<svg width="40" height="40" viewBox="0 0 40 40" fill="none" xmlns="http://www.w3.org/2000/svg">
<g clip-path="url(#clip0_160_4482)">
<path d="M20 3.33333C10.8 3.33333 3.33333 10.8 3.33333 20C3.33333 29.2 10.8 36.6667 20 36.6667C29.2 36.6667 36.6667 29.2 36.6667 20C36.6667 10.8 29.2 3.33333 20 3.33333ZM20.1 31.6667V28.3167C20.0667 28.3167 20.0333 28.3167 20 28.3167C17.8667 28.3167 15.7333 27.5 14.1 25.8833C11.25 23.0333 10.9 18.6333 13.0333 15.4L14.8667 17.2333C13.6833 19.45 13.9833 22.25 15.85 24.1167C17.0167 25.2833 18.55 25.8333 20.0833 25.8V22.2333L24.8 26.95L20.1 31.6667ZM26.95 24.6L25.1167 22.7667C26.3 20.55 26 17.75 24.1333 15.8833C22.9833 14.7333 21.5 14.1667 20 14.1667C19.9667 14.1667 19.9333 14.1667 19.9 14.1667V17.75L15.1833 13.05L19.9 8.33333V11.7C22.0667 11.6667 24.25 12.45 25.9 14.1167C28.7333 16.95 29.0833 21.3667 26.95 24.6Z" fill="white"/>
</g>
<defs>
<clipPath id="clip0_160_4482">
<rect width="40" height="40" fill="white"/>
</clipPath>
</defs>
</svg>
