<svg width="41" height="80" viewBox="0 0 41 80" fill="none" xmlns="http://www.w3.org/2000/svg">
<path d="M26.6934 39.5C27.8934 57.5 12.5268 68.3333 5.19342 71.5L6.19347 73C13.6935 68.8333 28.9645 56.3257 27.1935 39.5C25.1936 20.5 12.1935 14 12.1935 14C12.1935 14 25.5268 22 26.6934 39.5Z" fill="#F9AE3D" stroke="#F9AE3D" stroke-width="0.5"/>
<path d="M21.0587 28.7146C22.5109 29.1197 24.0477 30.2389 24.6346 30.7478C24.1633 31.2685 22.7953 32.2258 21.0939 31.8893C19.3924 31.5527 17.8685 30.3182 17.3193 29.7431C17.9607 29.2315 19.6066 28.3095 21.0587 28.7146Z" fill="#F9AE3D"/>
<path d="M22.7626 34.3274C24.3291 34.8809 25.9356 36.2258 26.543 36.8291C25.9861 37.3665 24.4107 38.3172 22.565 37.8206C20.7193 37.324 19.1356 35.8533 18.5745 35.18C19.3178 34.6652 21.1961 33.774 22.7626 34.3274Z" fill="#F9AE3D"/>
<path d="M23.0869 38.9206C24.5331 39.7384 25.8809 41.3424 26.374 42.0423C25.732 42.4745 24.0152 43.1364 22.2841 42.3261C20.553 41.5157 19.2496 39.7917 18.8143 39.031C19.6359 38.6535 21.6406 38.1029 23.0869 38.9206Z" fill="#F9AE3D"/>
<path d="M22.3863 44.3296C23.7953 45.2099 25.0715 46.8715 25.5335 47.5922C24.8731 47.9959 23.129 48.582 21.4351 47.6965C19.7412 46.8111 18.5146 45.0317 18.113 44.2526C18.9503 43.9115 20.9772 43.4493 22.3863 44.3296Z" fill="#F9AE3D"/>
<path d="M14.4129 59.5578C14.8698 61.3322 14.6269 63.63 14.4483 64.5571C13.6137 64.3778 11.7744 63.5206 11.0937 61.5255C10.413 59.5305 10.7852 57.1762 11.0564 56.2485C11.9848 56.6122 13.9559 57.7834 14.4129 59.5578Z" fill="#F9AE3D"/>
<path d="M18.78 55.0206C19.4249 56.5517 19.5112 58.6451 19.4737 59.5004C18.7014 59.4501 16.938 58.9246 16.0632 57.2252C15.1884 55.5258 15.2106 53.3647 15.331 52.4965C16.212 52.6999 18.1352 53.4894 18.78 55.0206Z" fill="#F9AE3D"/>
<path d="M20.8259 49.8935C21.7913 51.2457 22.3353 53.269 22.4866 54.1116C21.722 54.2322 19.8863 54.1068 18.6596 52.641C17.433 51.1752 16.9799 49.062 16.9067 48.1886C17.8108 48.1936 19.8605 48.5414 20.8259 49.8935Z" fill="#F9AE3D"/>
<path d="M17.2482 20.3723C18.6027 20.7179 20.0502 21.7238 20.6047 22.1836C20.1785 22.6759 18.9301 23.5913 17.346 23.3143C15.7619 23.0373 14.324 21.9243 13.803 21.4024C14.3871 20.915 15.8938 20.0266 17.2482 20.3723Z" fill="#F9AE3D"/>
<path d="M19.2482 24.3723C20.6027 24.7179 22.0502 25.7238 22.6047 26.1836C22.1785 26.6759 20.9301 27.5913 19.346 27.3143C17.7619 27.0373 16.324 25.9243 15.803 25.4024C16.3871 24.915 17.8938 24.0266 19.2482 24.3723Z" fill="#F9AE3D"/>
<path d="M13.6456 17.0417C14.8252 17.2541 16.1252 18.0255 16.6277 18.3846C16.2934 18.8319 15.2819 19.6916 13.91 19.552C12.5381 19.4125 11.2398 18.5488 10.7622 18.1345C11.2318 17.6817 12.4659 16.8292 13.6456 17.0417Z" fill="#F9AE3D"/>
<path d="M29.4986 33.3071C28.2599 34.2306 27.204 35.8681 26.8309 36.5714C27.4737 36.8952 29.135 37.3051 30.6374 36.3551C32.1397 35.4051 33.1406 33.6621 33.4533 32.9094C32.6512 32.6572 30.7373 32.3836 29.4986 33.3071Z" fill="#F9AE3D"/>
<path d="M30.5173 40.0316C29.1516 40.7541 27.857 42.2102 27.3804 42.848C27.966 43.2665 29.5447 43.9264 31.175 43.2181C32.8053 42.5098 34.0618 40.9411 34.4862 40.2453C33.7323 39.873 31.883 39.309 30.5173 40.0316Z" fill="#F9AE3D"/>
<path d="M29.852 46.8201C28.3456 47.1636 26.7175 48.234 26.0918 48.7262C26.5487 49.2823 27.9022 50.3293 29.6604 50.0682C31.4187 49.8071 33.0391 48.618 33.6295 48.0561C32.998 47.501 31.3583 46.4766 29.852 46.8201Z" fill="#F9AE3D"/>
<path d="M28.0373 53.4713C26.4952 53.5671 24.7157 54.3605 24.0186 54.7453C24.3798 55.3679 25.5465 56.6196 27.3238 56.6459C29.1011 56.6721 30.8923 55.7603 31.5657 55.3012C31.0321 54.6513 29.5794 53.3756 28.0373 53.4713Z" fill="#F9AE3D"/>
<path d="M24.3406 60.109C22.8047 59.9409 20.916 60.42 20.1637 60.6805C20.4137 61.3555 21.3503 62.7875 23.0973 63.1158C24.8442 63.4441 26.7644 62.8504 27.5061 62.5125C27.0909 61.7814 25.8764 60.277 24.3406 60.109Z" fill="#F9AE3D"/>
<path d="M19.4859 65.586C17.95 65.418 16.0614 65.897 15.3091 66.1575C15.5591 66.8325 16.4957 68.2646 18.2426 68.5928C19.9896 68.9211 21.9098 68.3275 22.6515 67.9896C22.2363 67.2584 21.0218 65.7541 19.4859 65.586Z" fill="#F9AE3D"/>
<path d="M26.3855 26.8974C25.5436 28.271 25.155 30.2653 25.066 31.0907C25.8137 31.1553 27.581 30.9092 28.6679 29.4078C29.7548 27.9064 30.0493 25.8314 30.0607 24.9815C29.1864 25.0478 27.2274 25.5237 26.3855 26.8974Z" fill="#F9AE3D"/>
<path d="M23.6457 21.74C23.2936 23.1924 23.5185 25.0637 23.6749 25.8177C24.3535 25.6618 25.8436 24.9413 26.3756 23.3063C26.9076 21.6714 26.5767 19.7556 26.3448 19.0021C25.5918 19.3095 23.9978 20.2875 23.6457 21.74Z" fill="#F9AE3D"/>
<path d="M19.3141 17.7413C19.3889 19.3505 20.1871 21.2185 20.5769 21.9514C21.2318 21.585 22.5557 20.3891 22.6119 18.5367C22.6681 16.6843 21.7467 14.8022 21.2789 14.0927C20.5928 14.6384 19.2393 16.1321 19.3141 17.7413Z" fill="#F9AE3D"/>
<path d="M15.0869 13.7941C15.5858 15.1409 16.7694 16.5118 17.2989 17.0289C17.7561 16.5404 18.5572 15.1663 18.1037 13.5774C17.6502 11.9885 16.3582 10.639 15.7688 10.1629C15.3336 10.8121 14.588 12.4473 15.0869 13.7941Z" fill="#F9AE3D"/>
<path d="M8.91054 13.6782C10.2682 14.1971 12.1011 14.2112 12.8479 14.1534C12.7812 13.4795 12.2701 11.9531 10.7585 11.2381C9.24691 10.523 7.35795 10.6058 6.60242 10.7365C6.80608 11.5009 7.55283 13.1593 8.91054 13.6782Z" fill="#F9AE3D"/>
</svg>
