<svg width="32" height="32" viewBox="0 0 32 32" fill="none" xmlns="http://www.w3.org/2000/svg">
<path d="M16 7.60977C18.7327 7.60977 19.0564 7.62021 20.1357 7.66945C21.1335 7.71499 21.6754 7.88167 22.036 8.02183C22.4805 8.18589 22.8827 8.44749 23.2128 8.7874C23.5527 9.11752 23.8143 9.51963 23.9783 9.96415C24.1185 10.3248 24.2852 10.8667 24.3307 11.8645C24.38 12.9437 24.3904 13.2674 24.3904 16.0001C24.3904 18.7329 24.38 19.0565 24.3307 20.1358C24.2852 21.1336 24.1185 21.6754 23.9783 22.0361C23.6341 22.9287 22.9286 23.6341 22.036 23.9784C21.6754 24.1186 21.1335 24.2853 20.1357 24.3308C19.0567 24.3801 18.733 24.3905 16 24.3905C13.2671 24.3905 12.9436 24.3801 11.8644 24.3308C10.8666 24.2853 10.3247 24.1185 9.96406 23.9784C9.51956 23.8144 9.11743 23.5528 8.78733 23.2129C8.44741 22.8827 8.18582 22.4806 8.02175 22.0361C7.88159 21.6755 7.71487 21.1336 7.66936 20.1358C7.62012 19.0566 7.60969 18.7329 7.60969 16.0001C7.60969 13.2674 7.62012 12.9438 7.66936 11.8645C7.71489 10.8667 7.88159 10.3248 8.02175 9.96415C8.18584 9.5196 8.44746 9.11749 8.7874 8.78736C9.11753 8.44745 9.51963 8.18585 9.96416 8.02178C10.3248 7.88163 10.8667 7.7149 11.8645 7.6694C12.9437 7.62017 13.2674 7.60973 16.0001 7.60973L16 7.60977ZM16.0001 5.76572C13.2207 5.76572 12.872 5.7775 11.7806 5.8273C10.6912 5.87703 9.94729 6.05001 9.29631 6.30302C8.61343 6.56 7.99482 6.96285 7.48362 7.48346C6.96289 7.99463 6.55994 8.61324 6.30286 9.29615C6.05005 9.94717 5.87708 10.6911 5.82754 11.7805C5.77754 12.8719 5.76575 13.2205 5.76575 16C5.76575 18.7795 5.77754 19.1281 5.82754 20.2196C5.87727 21.3089 6.05024 22.0528 6.30327 22.7038C6.56025 23.3867 6.96309 24.0053 7.48372 24.5165C7.9949 25.0371 8.6135 25.44 9.29639 25.697C9.94741 25.95 10.6913 26.1229 11.7807 26.1727C12.8722 26.2225 13.2208 26.2343 16.0002 26.2343C18.7797 26.2343 19.1283 26.2225 20.2198 26.1727C21.3091 26.1229 22.0531 25.95 22.704 25.697C24.0787 25.1653 25.1655 24.0785 25.6971 22.7038C25.9502 22.0528 26.1231 21.3089 26.1729 20.2196C26.2227 19.128 26.2345 18.7794 26.2345 16C26.2345 13.2206 26.2227 12.8719 26.1729 11.7805C26.1231 10.6911 25.9502 9.94717 25.6971 9.29619C25.4402 8.61331 25.0373 7.9947 24.5167 7.48351C24.0055 6.96278 23.3869 6.55985 22.7039 6.30282C22.0529 6.05001 21.309 5.87703 20.2196 5.82751C19.1282 5.7775 18.7795 5.76572 16 5.76572H16.0001V5.76572Z" fill="white"/>
<path d="M16 10.7446C13.0974 10.7446 10.7445 13.0975 10.7445 16C10.7445 18.9025 13.0974 21.2555 16 21.2555C18.9025 21.2555 21.2554 18.9025 21.2554 16C21.2554 13.0975 18.9025 10.7446 16 10.7446ZM16 19.4114C14.1159 19.4114 12.5886 17.884 12.5886 16C12.5886 14.1159 14.116 12.5886 16 12.5886C17.8841 12.5886 19.4114 14.116 19.4114 16C19.4114 17.8841 17.884 19.4114 16 19.4114Z" fill="white"/>
<path d="M21.4631 11.765C22.1413 11.765 22.6912 11.2152 22.6912 10.5369C22.6912 9.85866 22.1413 9.30882 21.4631 9.30882C20.7848 9.30882 20.235 9.85866 20.235 10.5369C20.235 11.2152 20.7848 11.765 21.4631 11.765Z" fill="white"/>
</svg>
