<svg width="32" height="32" viewBox="0 0 32 32" fill="none" xmlns="http://www.w3.org/2000/svg">
<path d="M26.7879 10.4956C26.527 9.51327 25.7584 8.73965 24.7824 8.47708C23.0134 8 15.9199 8 15.9199 8C15.9199 8 8.8265 8 7.0575 8.47708C6.08153 8.73965 5.31289 9.51327 5.05201 10.4956C4.578 12.2761 4.578 15.9909 4.578 15.9909C4.578 15.9909 4.578 19.7057 5.05201 21.4862C5.31289 22.4685 6.08153 23.2422 7.0575 23.5047C8.8265 23.9818 15.9199 23.9818 15.9199 23.9818C15.9199 23.9818 23.0134 23.9818 24.7824 23.5047C25.7584 23.2422 26.527 22.4685 26.7879 21.4862C27.2619 19.7057 27.2619 15.9909 27.2619 15.9909C27.2619 15.9909 27.2619 12.2761 26.7879 10.4956ZM13.6 19.3637V12.6181L19.5287 15.991L13.6 19.3637Z" fill="white"/>
</svg>
