<svg width="75" height="140" viewBox="0 0 75 140" fill="none" xmlns="http://www.w3.org/2000/svg">
<g clip-path="url(#clip0_357_9386)">
<path opacity="0.9" fill-rule="evenodd" clip-rule="evenodd" d="M25.1667 30.6752C24.9445 30.6198 23.7847 30.4465 19.6597 31.5138C16.8333 32.2415 14.6528 34.1336 13.4236 35.4712C13.3195 35.5821 13.2292 35.7138 13.1597 35.8455C13.0347 35.9356 12.9236 36.0396 12.8264 36.1574C12.4653 36.594 12.2778 36.8851 12.2639 36.9059C12.1597 37.0584 12.0833 37.2316 12.0347 37.4049L11.0208 41.1821L8.58334 48.8752L7.90973 50.8297C7.84029 51.0237 7.81251 51.2316 7.81945 51.4396L7.88195 53.3247C7.78473 54.0039 7.60418 56.0693 8.37501 57.4485C9.27779 59.0772 11.6875 60.2138 11.6875 60.2138H11.6945C12.5347 60.595 13.5278 60.2277 13.9236 59.396C13.9236 59.396 14.2778 58.6475 14.5486 57.9128L16.3958 58.7514C16.9028 58.9802 17.4931 58.9524 17.9722 58.6613C18.4514 58.3772 18.757 57.8782 18.7986 57.3168L19 54.4336C19.0486 53.699 18.625 53.0198 17.9445 52.7425L16.9931 52.3544L17.6042 49.2564C17.6458 49.0346 17.6458 48.8059 17.6042 48.5841C17.6042 48.5841 16.8472 44.9663 16.4514 41.9514C16.4375 41.8267 16.4028 41.7089 16.3611 41.598C16.25 40.697 16.1528 39.9069 16.0695 39.2207C17.6042 37.5643 17.9653 36.4901 22.3472 34.8752L25.257 33.9257C25.9722 33.6901 26.4514 33.0108 26.4306 32.2623C26.4097 31.5069 25.8889 30.8623 25.1597 30.6752H25.1736H25.1667Z" fill="white"/>
</g>
<defs>
<clipPath id="clip0_357_9386">
<rect width="27.7778" height="34.6535" fill="white" transform="translate(0 30.4951)"/>
</clipPath>
</defs>
</svg>
