<svg width="75" height="140" viewBox="0 0 75 140" fill="none" xmlns="http://www.w3.org/2000/svg">
<path fill-rule="evenodd" clip-rule="evenodd" d="M40.9653 26.3437L38.7084 27.5981C38.5834 27.6674 38.4792 27.7575 38.3889 27.8615C38.3473 27.8684 38.3056 27.8823 38.2639 27.8892L37.7362 28.0486C36.9098 27.9932 33.4098 27.8338 31.5903 27.8892C30.8681 27.91 29.5625 27.8823 28.9306 27.8476C28.882 27.6536 28.8264 27.4248 28.7917 27.2169C28.5625 25.9625 28.382 24.3199 28.3542 24.0288C28.2987 21.4298 28.3403 19.7803 28.507 18.7407C28.5764 18.3248 28.6181 18.0476 28.757 17.8951C28.8125 17.8397 28.8542 17.7773 28.8959 17.708C29.1042 17.9298 29.8403 18.0684 30.1737 18.0684H30.1945C31.0487 18.0615 32.2292 18.0684 33.7431 18.1238C37.5556 18.2555 39.875 18.6852 40.5 18.8724C41.007 20.5288 41.1667 21.2427 41.0834 22.1991C41.0695 22.2407 41.0487 22.2961 41.0278 22.3516C40.9237 22.6496 40.9514 22.9684 41.0834 23.2318C41.0625 23.2872 41.0417 23.3427 41.0209 23.3981C40.8264 24.0496 40.8889 25.4219 40.9653 26.3367V26.3437ZM37.2292 33.3852C39.9653 32.4496 42.3959 30.8417 42.1945 30.6407C42.5 30.8833 42.6875 30.9734 43.0834 31.105C43.6528 31.2922 44.2639 31.2991 44.8612 31.008C46.0209 30.4397 47.1042 29.705 47.1042 29.705C47.3334 29.5456 47.5 29.31 47.5625 29.0397C47.5625 29.0397 47.7362 28.3466 48.375 26.905C48.7709 26.0179 49.0903 25.713 49.1945 25.6575L49.2292 25.6367C49.3334 25.6437 49.4375 25.6367 49.5417 25.6159L50.5903 25.408C50.7153 25.3803 51.1806 25.2833 51.2709 25.2694H51.3056C51.7917 25.1654 52.1737 24.7565 52.2153 24.2437L52.3125 22.9892C52.2917 23.2179 51.9306 21.7902 51.9167 21.2565C51.8681 19.6555 52.4653 18.706 52.0556 16.1555C51.9514 15.511 51.7639 14.8179 51.5417 14.1456C51.5903 14.104 51.632 14.0555 51.6737 14.007C51.882 13.7437 51.9653 13.404 51.9028 13.0714L51.757 12.3575C51.6945 12.0664 51.5278 11.8169 51.2987 11.6575C51.3195 11.4842 51.2987 11.304 51.2431 11.1377L50.9792 10.4031C50.8125 9.93177 50.3612 9.62682 49.8612 9.65454L49.4723 9.67533C48.4445 8.32385 44.5556 3.75652 39.5973 3.20207C33.7153 2.54365 30.8125 4.25553 29.0556 5.84959C28.6667 6.19613 28.3403 6.5288 28.0695 6.82682L28.0487 6.85454L27.5973 7.37434L27.5764 7.40207C27.3056 7.73474 27.1042 8.0189 26.9653 8.23375L26.5 8.36543C26.1737 8.45553 25.9028 8.69118 25.7639 9.00306L23.8125 13.4734C23.6181 13.9169 23.7292 14.4298 24.0834 14.7555L24.8195 15.4347C24.8612 15.4763 24.9098 15.511 24.9584 15.5387L24.9237 15.6565C24.8959 15.7466 24.882 15.8298 24.882 15.9199C24.8264 15.9961 24.7778 16.0724 24.7362 16.1625C24.7153 16.211 24.6945 16.2595 24.6737 16.308C23.9375 17.8951 23.5695 19.8842 23.7292 21.4159C23.7917 22.0328 24.1528 22.6912 24.6945 23.2734C25.2778 23.8971 26.0695 24.4516 26.5834 24.7773L27.1667 31.3199C27.1806 31.4862 27.2362 31.6526 27.3195 31.7981C27.3195 31.7981 28.2223 33.3852 30.3264 33.8219C32.0139 34.1753 35.1945 33.8842 35.1945 33.8842C35.2848 33.8773 37.1459 33.4199 37.2362 33.3922L37.2292 33.3852Z" fill="white"/>
</svg>
