<svg width="75" height="140" viewBox="0 0 75 140" fill="none" xmlns="http://www.w3.org/2000/svg">
<path opacity="0.8" fill-rule="evenodd" clip-rule="evenodd" d="M38.1319 78.1227C38.3333 78.1227 38.7361 78.1019 39.1527 77.9702C39.9375 77.7277 40.4236 77.1871 40.5624 76.4247C40.8541 74.7683 41.493 61.3296 41.6874 57.2475C41.7152 56.6168 41.5902 55.9791 41.3194 55.4039L38.2013 48.8613C38.0208 48.4801 37.6458 48.2306 37.2291 48.2098C29.2106 47.7755 25.199 47.5583 25.1944 47.5583C24.7499 47.5583 24.368 47.7316 24.1249 48.0574L19.4027 54.1841C19.1805 54.4752 19.0486 54.8217 19.0277 55.189L17.8958 73.5207C17.8749 73.7425 17.743 75.7316 19.5555 76.2306C20.4513 76.4801 37.7777 78.095 37.9513 78.1158C37.9652 78.1158 38.0347 78.1158 38.1388 78.1158L38.1319 78.1227Z" fill="white"/>
<path fill-rule="evenodd" clip-rule="evenodd" d="M37.361 77.9496C37.611 77.9704 37.743 77.9843 37.7499 77.9843C37.7985 77.9843 40.0972 78.1645 40.4305 76.2585C40.7222 74.6021 41.3749 61.0526 41.5555 57.2615C41.5902 56.6239 41.4583 55.9863 41.1805 55.411L38.0624 48.9378C37.8749 48.5427 37.4791 48.2793 37.0347 48.2585H35.9027C36.3472 48.2793 36.736 48.5427 36.9305 48.9378L40.0485 55.411C40.3263 55.9863 40.4583 56.6239 40.4235 57.2615C40.243 61.0526 39.5902 74.6021 39.2985 76.2585C39.0833 77.4645 38.0833 77.8387 37.361 77.9427V77.9496Z" fill="white"/>
</svg>
