<svg width="75" height="140" viewBox="0 0 75 140" fill="none" xmlns="http://www.w3.org/2000/svg">
<path opacity="0.7" fill-rule="evenodd" clip-rule="evenodd" d="M50.7709 73.7566C50.8195 73.7566 50.9445 73.7566 51 73.7427C51.2917 73.6734 52.0417 73.4516 52.6806 72.9942C53.2639 72.5714 53.6112 72.0516 53.7153 71.4556C53.9653 69.9516 54.3264 58.4467 54.4306 54.9536C54.4514 54.2882 54.3056 53.6229 54.007 53.0269L51.2223 47.4892C51.007 47.0665 50.5834 46.7962 50.1042 46.7823L39.5556 46.4912C39.0903 46.4912 38.6875 46.6853 38.4098 47.0179L34.6459 51.6338C34.382 51.9595 34.2292 52.3476 34.2084 52.7635L33.2431 69.0714C33.2431 69.0714 33.2084 69.5427 33.2084 69.6536C33.2084 69.8962 33.2153 70.2635 33.3264 70.6516C33.5348 71.4209 34.0209 71.9338 34.7223 72.1348C35.4514 72.3427 49.1528 73.6041 50.7084 73.7496H50.7778L50.7709 73.7566Z" fill="white"/>
<path fill-rule="evenodd" clip-rule="evenodd" d="M50.1736 73.5416C50.6041 73.5832 50.8819 73.6109 50.9722 73.6178C50.993 73.6178 51.0138 73.6178 51.0347 73.6178C51.3194 73.5555 53.493 73.0287 53.7708 71.3723C54.0208 69.8683 54.3819 58.3772 54.4861 54.8842C54.5069 54.2327 54.368 53.5812 54.0694 52.999L51.2847 47.4683C51.0833 47.0733 50.6805 46.8168 50.2361 46.803H49.1041C49.5486 46.8168 49.9513 47.0733 50.1527 47.4683L52.9375 52.999C53.2291 53.5812 53.375 54.2327 53.3541 54.8842C53.25 58.3772 52.8888 69.8683 52.6388 71.3723C52.4097 72.7584 50.8472 73.3545 50.1805 73.5485L50.1736 73.5416Z" fill="white"/>
</svg>
