<svg width="75" height="140" viewBox="0 0 75 140" fill="none" xmlns="http://www.w3.org/2000/svg">
<path fill-rule="evenodd" clip-rule="evenodd" d="M40.632 25.9555L38.7501 27.0367C38.6251 27.106 37.7779 27.4941 37.7779 27.4941C36.9515 27.4387 33.4515 27.2793 31.632 27.3347C30.9098 27.3555 29.7293 27.2654 29.0973 27.2308C29.0487 27.0367 28.5834 24.4516 28.5487 24.1605C28.4932 21.5615 28.5348 19.9119 28.7015 18.8723C28.7709 18.4565 28.6529 18.3248 28.7918 18.1723C28.8473 18.1169 28.889 18.0545 28.9307 17.9852C29.139 18.207 29.7223 18.3733 30.0487 18.3733H30.0695C30.9237 18.3664 32.1043 18.3733 33.6182 18.4288C37.4307 18.5605 39.6251 18.9486 40.2501 19.1357C40.757 20.7921 40.9098 21.2496 40.8265 22.206C40.8126 22.2476 40.7918 22.303 40.7709 22.3585C40.6668 22.6565 40.6945 22.9753 40.8265 23.2387C40.8057 23.2941 40.7848 23.3496 40.764 23.405C40.5695 24.0565 40.5418 25.0407 40.6182 25.9555H40.632ZM49.4932 26.1426L49.4793 26.1565L49.5001 26.1426H49.4932ZM51.3751 25.8308H51.3334H51.3126L51.4237 25.8169C52.1529 25.6714 52.7223 25.0545 52.7848 24.2852L52.882 23.0308C52.8959 22.8921 52.8543 22.7605 52.7779 22.6496C52.7084 22.3793 52.5001 21.5476 52.4862 21.2288C52.4307 19.607 53.0348 18.6436 52.6182 16.0585C52.5279 15.4832 52.3682 14.8733 52.1807 14.2704C52.4515 13.8892 52.5557 13.411 52.4584 12.9535L52.3126 12.2397C52.2432 11.9139 52.0904 11.6228 51.8682 11.4011C51.8612 11.2486 51.8265 11.0892 51.7709 10.9436L51.507 10.209C51.257 9.50898 50.5765 9.05155 49.8265 9.08621H49.7293C48.4307 7.45749 44.5348 3.18126 39.6459 2.63373C33.507 1.94759 30.4932 3.76343 28.6598 5.41987C28.257 5.78027 27.9237 6.11987 27.632 6.43175L27.6112 6.45947V6.46641L27.1598 6.98621L27.139 7.02086V7.02779C26.9237 7.29116 26.7501 7.5268 26.6182 7.72086L26.3612 7.79017C25.8682 7.92878 25.4584 8.28225 25.257 8.7466L23.3057 13.21C23.014 13.8753 23.1807 14.6446 23.7084 15.1367L24.3265 15.705C24.2918 15.7674 24.257 15.8367 24.2223 15.906L24.1598 16.0377C23.3751 17.7219 23.0001 19.8219 23.1668 21.4436C23.2432 22.1644 23.6459 22.9476 24.2779 23.6268C24.8126 24.202 25.507 24.7149 26.0418 25.0753L26.6043 31.3476C26.6251 31.5971 26.7015 31.8397 26.8334 32.0545C26.8682 32.11 27.882 33.8634 30.2154 34.3486C31.9654 34.709 35.2501 34.4179 35.2501 34.4179C35.3473 34.411 37.2987 33.9327 37.4168 33.8912C39.6112 33.1426 41.6043 31.9644 42.3195 31.3753C42.4862 31.4654 42.6668 31.5347 42.9098 31.6179C43.6112 31.8535 44.3682 31.8535 45.1182 31.4931C46.3126 30.911 47.4307 30.1486 47.4307 30.1486C47.7779 29.9129 48.0209 29.5595 48.1251 29.1506C48.1251 29.1506 48.2987 28.4921 48.9029 27.106C49.1182 26.6278 49.3473 26.302 49.4445 26.1773C49.5209 26.1773 49.5904 26.1634 49.6668 26.1496L50.7154 25.9417C50.8334 25.9139 51.2918 25.8238 51.382 25.81L51.3751 25.8308Z" fill="white"/>
</svg>
