<svg xmlns="http://www.w3.org/2000/svg" style="isolation:isolate" width="256" height="128"><defs><clipPath id="a"><path d="M0 0H256V128H0z"/></clipPath></defs><g clip-path="url(#a)" fill-rule="evenodd" fill="#FFF"><path d="M 203.88 111.152 C 204.076 111.658 204.49 112.047 205.007 112.212 C 205.28 112.303 205.566 112.346 205.854 112.338 C 206.279 112.341 206.701 112.259 207.094 112.097 C 207.413 111.986 207.712 111.823 207.979 111.615 L 208.036 111.615 L 208.036 112.718 C 207.692 112.858 207.34 112.979 206.983 113.08 C 206.617 113.176 206.241 113.222 205.863 113.22 C 205.007 113.271 204.165 112.982 203.522 112.414 C 202.933 111.8 202.628 110.968 202.681 110.118 C 202.635 109.263 202.925 108.423 203.489 107.778 C 204.037 107.197 204.811 106.882 205.609 106.916 C 206.308 106.87 206.992 107.129 207.486 107.627 C 207.96 108.185 208.198 108.906 208.148 109.637 L 208.148 110.187 L 203.712 110.187 C 203.707 110.516 203.764 110.844 203.88 111.152 L 203.88 111.152 Z M 207.164 109.415 C 207.192 108.969 207.048 108.529 206.763 108.186 C 206.444 107.873 206.005 107.713 205.56 107.748 C 205.08 107.724 204.611 107.899 204.263 108.23 C 203.943 108.546 203.748 108.968 203.715 109.416 L 207.164 109.416 L 207.164 109.415 Z M 173.591 109.66 C 173.593 109.4 173.579 109.139 173.547 108.88 C 173.526 108.682 173.467 108.49 173.372 108.315 C 173.279 108.167 173.144 108.05 172.984 107.98 C 172.773 107.898 172.547 107.861 172.321 107.871 C 172.022 107.875 171.726 107.945 171.456 108.075 C 171.147 108.214 170.854 108.388 170.585 108.594 L 170.585 113.069 L 169.573 113.069 L 169.573 107.069 L 170.579 107.069 L 170.579 107.735 C 170.878 107.487 171.209 107.283 171.564 107.127 C 171.891 106.981 172.245 106.906 172.603 106.905 C 173.162 106.868 173.709 107.082 174.095 107.488 C 174.465 107.969 174.645 108.569 174.603 109.174 L 174.603 113.069 L 173.591 113.069 L 173.591 109.66 Z M 147.762 112.441 C 147.674 112.499 147.553 112.587 147.4 112.695 C 147.261 112.798 147.112 112.886 146.955 112.958 C 146.769 113.047 146.575 113.117 146.376 113.167 C 146.123 113.223 145.866 113.251 145.607 113.25 C 145.093 113.261 144.596 113.067 144.225 112.71 C 143.848 112.356 143.642 111.857 143.659 111.34 C 143.639 110.951 143.741 110.565 143.952 110.237 C 144.166 109.944 144.456 109.714 144.79 109.572 C 145.21 109.399 145.654 109.29 146.106 109.248 C 146.623 109.19 147.175 109.147 147.76 109.115 L 147.76 108.958 C 147.768 108.761 147.727 108.565 147.64 108.388 C 147.561 108.241 147.442 108.119 147.296 108.037 C 147.135 107.948 146.958 107.892 146.775 107.872 C 146.566 107.841 146.356 107.826 146.145 107.828 C 145.845 107.831 145.547 107.865 145.254 107.93 C 144.91 108.005 144.571 108.107 144.242 108.234 L 144.192 108.234 L 144.192 107.213 C 144.473 107.14 144.757 107.081 145.044 107.037 C 145.409 106.97 145.78 106.936 146.151 106.936 C 146.523 106.932 146.894 106.968 147.258 107.044 C 147.551 107.104 147.828 107.224 148.072 107.395 C 148.301 107.559 148.482 107.78 148.599 108.035 C 148.724 108.343 148.783 108.674 148.774 109.006 L 148.774 113.078 L 147.761 113.078 L 147.761 112.441 L 147.762 112.441 Z M 147.762 109.93 C 147.457 109.949 147.095 109.974 146.675 110.012 C 146.338 110.035 146.004 110.086 145.676 110.165 C 145.412 110.234 145.17 110.366 144.969 110.551 C 144.783 110.742 144.686 111.002 144.702 111.268 C 144.683 111.56 144.798 111.844 145.013 112.041 C 145.291 112.238 145.629 112.331 145.968 112.305 C 146.305 112.31 146.64 112.241 146.948 112.101 C 147.237 111.966 147.511 111.798 147.762 111.6 L 147.762 109.933 L 147.762 109.93 Z M 122.486 108.103 C 122.317 108.084 122.147 108.076 121.977 108.078 C 121.664 108.08 121.356 108.149 121.073 108.281 C 120.772 108.425 120.489 108.606 120.232 108.82 L 120.232 113.076 L 119.222 113.076 L 119.222 107.076 L 120.232 107.076 L 120.232 107.964 C 120.556 107.691 120.913 107.461 121.296 107.279 C 121.593 107.148 121.913 107.078 122.238 107.076 C 122.414 107.076 122.543 107.083 122.62 107.089 C 122.696 107.095 122.817 107.113 122.976 107.14 L 122.976 108.179 L 122.925 108.179 C 122.779 108.142 122.631 108.117 122.481 108.103 L 122.486 108.103 Z M 95.597 107.927 L 93.509 107.927 L 93.509 110.66 Q 93.509 111.134 93.529 111.401 C 93.54 111.576 93.593 111.746 93.681 111.897 C 93.752 112.035 93.866 112.146 94.006 112.213 C 94.209 112.287 94.426 112.319 94.642 112.308 C 94.816 112.306 94.989 112.282 95.157 112.238 C 95.333 112.187 95.462 112.15 95.545 112.118 L 95.596 112.118 L 95.596 113.025 C 95.39 113.078 95.182 113.118 94.972 113.146 C 94.774 113.176 94.574 113.193 94.374 113.196 C 93.857 113.234 93.348 113.055 92.97 112.701 C 92.61 112.255 92.437 111.687 92.486 111.116 L 92.486 107.927 L 91.811 107.927 L 91.811 107.076 L 92.495 107.076 L 92.495 105.351 L 93.513 105.351 L 93.513 107.076 L 95.6 107.076 L 95.6 107.927 L 95.597 107.927 Z M 65.594 106.912 C 66.293 106.866 66.978 107.125 67.471 107.622 C 67.943 108.182 68.18 108.902 68.133 109.632 L 68.133 110.187 L 63.698 110.187 C 63.692 110.516 63.748 110.843 63.864 111.152 C 63.965 111.407 64.122 111.637 64.323 111.824 C 64.514 112.001 64.742 112.134 64.99 112.212 C 65.263 112.303 65.55 112.346 65.837 112.338 C 66.26 112.34 66.68 112.258 67.071 112.097 C 67.393 111.987 67.695 111.824 67.963 111.615 L 68.014 111.615 L 68.014 112.718 C 67.673 112.859 67.324 112.98 66.97 113.08 C 66.604 113.175 66.228 113.222 65.85 113.22 C 64.994 113.272 64.151 112.983 63.509 112.414 C 62.92 111.8 62.615 110.967 62.668 110.118 C 62.622 109.263 62.912 108.423 63.477 107.778 C 64.023 107.195 64.796 106.879 65.594 106.912 Z M 67.147 109.41 C 67.169 108.965 67.026 108.528 66.746 108.182 C 66.425 107.869 65.984 107.709 65.537 107.743 C 65.058 107.718 64.591 107.893 64.245 108.226 C 63.924 108.541 63.729 108.963 63.698 109.412 L 67.147 109.412 L 67.147 109.41 Z M 78.588 107.743 C 78.887 107.496 79.219 107.291 79.574 107.135 C 79.901 106.99 80.254 106.914 80.612 106.913 C 81.171 106.876 81.717 107.09 82.103 107.497 C 82.474 107.977 82.655 108.578 82.612 109.183 L 82.612 113.078 L 81.598 113.078 L 81.598 109.66 C 81.6 109.4 81.585 109.139 81.553 108.88 C 81.531 108.682 81.472 108.491 81.377 108.315 C 81.285 108.167 81.149 108.05 80.989 107.98 C 80.778 107.898 80.553 107.861 80.327 107.871 C 80.027 107.875 79.732 107.944 79.461 108.075 C 79.152 108.214 78.859 108.388 78.59 108.594 L 78.59 113.069 L 77.58 113.069 L 77.58 107.069 L 78.592 107.069 L 78.592 107.735 L 78.588 107.743 Z M 107.23 106.913 C 107.931 106.869 108.617 107.128 109.113 107.624 C 109.583 108.184 109.818 108.904 109.769 109.634 L 109.769 110.187 L 105.333 110.187 C 105.327 110.517 105.387 110.845 105.509 111.152 C 105.605 111.41 105.762 111.64 105.967 111.824 C 106.157 111.999 106.382 112.132 106.628 112.212 C 106.903 112.303 107.192 112.346 107.481 112.338 C 107.905 112.34 108.325 112.258 108.716 112.097 C 109.036 111.987 109.335 111.825 109.6 111.615 L 109.657 111.615 L 109.657 112.718 C 109.313 112.858 108.961 112.979 108.604 113.08 C 108.239 113.176 107.862 113.223 107.485 113.22 C 106.63 113.272 105.789 112.982 105.148 112.414 C 104.557 111.802 104.252 110.968 104.31 110.118 C 104.261 109.264 104.548 108.424 105.111 107.778 C 105.659 107.197 106.431 106.881 107.229 106.912 L 107.23 106.913 Z M 108.782 109.412 C 108.81 108.966 108.667 108.527 108.381 108.184 C 108.063 107.869 107.624 107.709 107.178 107.745 C 106.698 107.721 106.229 107.896 105.881 108.228 C 105.561 108.544 105.366 108.965 105.333 109.414 L 108.782 109.414 L 108.782 109.412 Z M 131.856 105.353 L 132.874 105.353 L 132.874 107.077 L 134.959 107.077 L 134.959 107.928 L 132.871 107.928 L 132.871 110.661 C 132.871 110.978 132.878 111.225 132.89 111.403 C 132.902 111.577 132.954 111.747 133.043 111.898 C 133.114 112.037 133.228 112.148 133.368 112.215 C 133.572 112.289 133.788 112.321 134.004 112.31 C 134.178 112.308 134.351 112.284 134.519 112.24 C 134.695 112.189 134.824 112.152 134.908 112.12 L 134.959 112.12 L 134.959 113.027 C 134.753 113.079 134.545 113.12 134.335 113.148 C 134.137 113.178 133.937 113.195 133.737 113.198 C 133.22 113.236 132.711 113.057 132.333 112.703 C 131.973 112.257 131.8 111.689 131.849 111.118 L 131.849 107.928 L 131.169 107.928 L 131.169 107.077 L 131.849 107.077 L 131.849 105.353 L 131.856 105.353 Z M 159.721 106.075 L 158.58 106.075 L 158.58 105.028 L 159.721 105.028 L 159.721 106.074 L 159.721 106.075 Z M 159.658 113.078 L 158.647 113.078 L 158.647 107.077 L 159.659 107.077 L 159.659 113.078 L 159.658 113.078 Z M 185.48 107.743 C 185.769 107.501 186.087 107.296 186.428 107.135 C 186.743 106.988 187.086 106.912 187.434 106.913 C 187.799 106.902 188.161 106.993 188.477 107.177 C 188.758 107.341 188.98 107.59 189.113 107.887 C 189.452 107.592 189.829 107.343 190.232 107.145 C 190.575 106.992 190.946 106.914 191.321 106.917 C 191.876 106.871 192.419 107.092 192.784 107.513 C 193.124 108.002 193.291 108.591 193.256 109.187 L 193.256 113.081 L 192.237 113.081 L 192.237 109.66 C 192.24 109.41 192.23 109.161 192.206 108.912 C 192.19 108.712 192.141 108.517 192.059 108.335 C 191.978 108.185 191.854 108.062 191.703 107.984 C 191.491 107.897 191.263 107.858 191.034 107.869 C 190.738 107.871 190.446 107.943 190.182 108.078 C 189.882 108.231 189.596 108.411 189.329 108.617 C 189.342 108.7 189.349 108.793 189.355 108.902 C 189.361 109.012 189.368 109.124 189.368 109.233 L 189.368 113.07 L 188.354 113.07 L 188.354 109.66 C 188.355 109.408 188.342 109.156 188.316 108.905 C 188.303 108.705 188.254 108.509 188.17 108.328 C 188.09 108.179 187.965 108.06 187.813 107.986 C 187.602 107.899 187.373 107.859 187.145 107.871 C 186.855 107.873 186.569 107.942 186.312 108.075 C 186.017 108.22 185.738 108.394 185.478 108.594 L 185.478 113.069 L 184.467 113.069 L 184.467 107.069 L 185.478 107.069 L 185.478 107.735 L 185.48 107.743 Z M 218.613 107.743 C 218.91 107.496 219.24 107.291 219.594 107.135 C 219.922 106.99 220.278 106.914 220.637 106.913 C 221.194 106.876 221.738 107.09 222.12 107.497 C 222.492 107.977 222.675 108.577 222.635 109.183 L 222.635 113.078 L 221.623 113.078 L 221.623 109.66 C 221.623 109.399 221.606 109.139 221.572 108.88 C 221.557 108.681 221.497 108.488 221.397 108.315 C 221.308 108.164 221.171 108.046 221.009 107.98 C 220.8 107.899 220.577 107.862 220.354 107.871 C 220.052 107.875 219.754 107.944 219.482 108.075 C 219.174 108.214 218.883 108.388 218.616 108.594 L 218.616 113.069 L 217.604 113.069 L 217.604 107.069 L 218.616 107.069 L 218.616 107.735 L 218.613 107.743 Z M 232.516 105.353 L 233.53 105.353 L 233.53 107.077 L 235.622 107.077 L 235.622 107.928 L 233.53 107.928 L 233.53 110.661 C 233.53 110.978 233.535 111.225 233.548 111.403 C 233.563 111.577 233.615 111.746 233.701 111.898 C 233.774 112.035 233.887 112.145 234.025 112.215 C 234.229 112.289 234.445 112.321 234.661 112.31 C 234.836 112.308 235.009 112.284 235.178 112.24 C 235.354 112.189 235.49 112.152 235.565 112.12 L 235.622 112.12 L 235.622 113.027 C 235.417 113.079 235.209 113.119 234.999 113.148 C 234.799 113.178 234.596 113.194 234.394 113.198 C 233.879 113.234 233.372 113.055 232.994 112.703 C 232.637 112.256 232.465 111.688 232.516 111.118 L 232.516 107.928 L 231.83 107.928 L 231.83 107.077 L 232.516 107.077 L 232.516 105.353 L 232.516 105.353 Z" vector-effect="non-scaling-stroke" stroke-width=".5" stroke="#FFF"/><path d="M236.835 85.27C236.804 85.585 236.865 85.902 237.011 86.183 237.17 86.375 237.385 86.512 237.625 86.577L237.498 87.491C236.239 88.183 234.923 88.764 233.564 89.228 232.68 89.558 231.756 89.765 230.816 89.842 229.588 89.842 228.628 89.101 227.978 87.571 227.328 86.042 226.616 82.307 225.834 76.384L218.402 85.182 213.03 85.011C212.872 85.03 212.713 84.981 212.592 84.878 212.494 84.788 212.445 84.658 212.458 84.527 212.456 84.465 212.471 84.405 212.502 84.351L212.502 84.137 214.424 73.477C214.468 73.254 214.512 72.995 214.6 72.599 214.988 70.246 215.214 68.858 215.214 68.331 215.267 67.87 215.085 67.413 214.731 67.113 214.437 66.939 214.254 66.625 214.247 66.283 214.295 65.834 214.416 65.395 214.603 64.983 214.868 64.193 215.187 63.421 215.558 62.675 216.272 62.344 217.021 62.095 217.792 61.933 218.506 61.758 219.238 61.669 219.974 61.669 221.014 61.549 222.045 61.956 222.723 62.754 223.296 63.456 223.557 64.72 223.557 66.464 223.557 67.289 223.557 68.025 223.512 68.722 223.467 69.375 223.424 69.984 223.385 70.554 225.021 69.954 226.699 69.473 228.405 69.115 229.755 68.83 231.13 68.683 232.51 68.676 234.393 68.676 235.698 68.939 236.405 69.466 237.142 69.986 237.493 71.032 237.493 72.643 237.493 73.95 237.405 75.991 237.142 78.826 236.925 81.657 236.835 83.794 236.835 85.27zM192.102 62.416L187.336 59.366 191.924 54.146C192.58 53.444 194.546 52.663 197.867 51.838 198.13 51.75 198.351 51.705 198.486 51.662L200.184 55.277C198.001 57.275 196.341 58.803 195.247 59.761 194.106 60.76 193.063 61.636 192.102 62.416zM193.718 65.853C194.777 65.231 195.926 64.776 197.123 64.502 197.257 64.543 197.368 64.639 197.428 64.766 197.473 64.816 197.473 64.853 197.515 64.899L198.656 66.383C198.706 66.479 198.749 66.578 198.784 66.681 198.837 66.836 198.867 66.998 198.872 67.162 198.776 67.807 198.647 68.446 198.485 69.078 197.284 75.122 196.421 81.228 195.901 87.368L194.068 88.629 189.968 86.839C189.003 86.445 188.086 84.619 187.168 81.441 187.042 80.96 186.945 80.61 186.863 80.396L183.809 80.261 183.721 76.432C183.715 76.284 183.728 76.137 183.76 75.993 183.768 75.961 183.785 75.932 183.81 75.911 184.262 74.92 184.849 73.996 185.554 73.165 186.684 71.588 187.956 70.117 189.353 68.771 190.659 67.592 192.13 66.609 193.718 65.853L193.718 65.853zM164.016 94.678C162.042 99.948 160.254 102.599 158.638 102.599 158.284 102.606 157.94 102.481 157.673 102.248 157.438 101.986 157.313 101.643 157.322 101.291L157.059 93.408 157.059 93.282C157.089 92.436 157.297 91.606 157.669 90.846 158.319 89.63 159.063 88.466 159.896 87.365Q160.356 83.768 160.553 80.439C160.685 78.22 160.775 76.127 160.82 74.13L158.72 74.13C158.624 74.125 158.532 74.095 158.452 74.042 158.402 73.948 158.374 73.844 158.37 73.737 158.434 71.98 158.656 70.231 159.032 68.513 159.438 66.427 159.993 64.373 160.692 62.367 160.712 62.225 160.793 62.1 160.915 62.025 161.018 61.903 161.153 61.812 161.304 61.762L165.937 59.542C165.937 59.409 165.975 59.237 165.975 59.015 165.989 58.711 166.177 58.442 166.458 58.324L169.78 57.189C169.837 57.168 169.895 57.153 169.955 57.144 170.006 57.108 170.069 57.092 170.131 57.099 170.266 57.099 170.347 57.275 170.394 57.62 170.44 57.964 170.476 58.887 170.476 60.366 170.47 63.683 170.296 66.998 169.955 70.298 169.627 73.818 169.117 77.319 168.428 80.787L169.56 81.961 170.476 81.44 172.004 83.221 166.328 88.625C165.676 90.194 164.931 92.236 164.016 94.678zM162.837 51.445L158.072 48.438 162.659 43.213C163.315 42.47 165.282 41.728 168.601 40.904 168.865 40.822 169.128 40.777 169.216 40.729L170.914 44.344C168.732 46.341 167.071 47.863 165.976 48.828 164.842 49.788 163.792 50.703 162.837 51.445zM137.936 62.416L133.176 59.366 137.719 54.146C138.368 53.444 140.386 52.663 143.657 51.838 143.968 51.75 144.183 51.705 144.317 51.662L146.016 55.277C143.835 57.275 142.174 58.803 141.041 59.761 139.942 60.76 138.892 61.636 137.931 62.416L137.936 62.416zM139.553 65.853C140.609 65.225 141.757 64.769 142.956 64.502 143.091 64.543 143.202 64.638 143.262 64.766 143.276 64.819 143.307 64.865 143.35 64.899L144.49 66.383C144.539 66.479 144.581 66.579 144.617 66.681 144.656 66.838 144.671 67.001 144.662 67.162 144.662 67.296 144.528 67.942 144.317 69.078 143.125 75.125 142.249 81.23 141.691 87.368L139.903 88.629 135.797 86.841C134.832 86.447 133.914 84.622 132.999 81.444 132.916 81.09 132.813 80.741 132.693 80.398L129.588 80.264 129.55 76.434C129.544 76.287 129.557 76.14 129.588 75.996L129.588 75.912C130.069 74.926 130.672 74.004 131.381 73.166 132.508 71.598 133.767 70.128 135.142 68.772 136.464 67.593 137.948 66.61 139.549 65.853L139.553 65.853zM115.175 77.649C115.178 80.885 115.515 84.111 116.18 87.277 116.242 87.563 116.285 87.853 116.307 88.145 116.306 88.227 116.277 88.305 116.224 88.367 116.126 88.401 116.022 88.413 115.919 88.405 115.836 88.405 115.393 88.278 114.569 88.054 113.737 87.791 112.902 87.571 112.075 87.362 111.438 87.201 110.917 86.747 110.671 86.138 110.63 86.069 110.601 85.994 110.588 85.915L108.705 78.305C105.479 80.652 101.496 83.087 99.493 84.482 97.437 85.833 96.254 86.531 95.955 86.531 95.329 86.525 94.788 86.093 94.644 85.484 94.296 84.509 94.146 83.474 94.205 82.44 94.273 79.397 95.018 76.408 96.386 73.689 98.165 70.054 100.397 66.66 103.029 63.586 102.989 63.473 102.959 63.355 102.942 63.235 102.909 63.166 102.894 63.09 102.898 63.014 102.906 62.881 102.935 62.75 102.986 62.627 103.019 62.513 103.079 62.409 103.161 62.323L106.134 59.798 106.527 59.359C106.725 59.392 106.909 59.484 107.054 59.623 107.269 59.756 107.702 60.104 108.358 60.625 108.663 60.497 109.059 60.32 109.498 60.104 109.818 59.925 110.155 59.778 110.504 59.666 111.026 59.666 111.907 60.367 113.171 61.803 114.589 63.364 115.819 65.086 116.835 66.934 116.234 68.399 115.823 69.936 115.614 71.506 115.292 73.538 115.143 75.593 115.17 77.649L115.175 77.649zM104.478 66.77C102.971 68.318 101.679 70.061 100.634 71.952 99.432 74.411 98.465 76.978 97.745 79.619L107.092 73.478 104.478 66.77zM92.877 48.743C92.718 54.709 79.152 71.942 91.336 94.5 91.833 95.419 92.813 99.954 90.598 99.992 79.589 100.151 80.297 100.056 69.301 100.068 57.395 100.03 53.469 111.474 34.506 113.088 36.746 108.623 36.237 105.13 38.757 101.578 27.153 96.834 20.039 85.564 20.039 71.333 20.079 52.317 35.518 36.93 54.534 36.953 58.972 37.056 63.364 37.874 67.541 39.375 68.482 39.726 70.612 39.153 70.633 38.316 70.862 31.385 67.878 19.588 67.814 17.616 67.178 8.509 77.157 11.09 74.773 17.496 71.75 25.639 77.337 28.747 79.87 40.625 80.201 42.173 82.205 44.684 83.249 42.579 85.348 38.368 87.277 30.016 83.951 17.998 81.757 10.653 90.76 9.137 90.912 15.505 91.027 18.277 89.181 18.839 89.449 20.249 91.944 33.465 93.134 38.722 92.873 48.743L92.877 48.743zM75.031 66.304L72.854 65.354C72.453 63.763 72.389 62.862 71.384 62.431 66.746 60.446 60.796 65.114 56.87 66.818L53.179 65.72 49.921 69.716 54.22 81.512 55.773 80.205 56.813 82.638 59.103 79.328 56.253 73.264C61.992 70.879 68.68 66.935 69.629 71.334 70.404 74.844 73.37 81.171 69.533 81.101 64.481 81.589 55.979 85.603 49.53 87.874L48.126 79.223C47.878 78.07 45.358 73.712 46.07 71.898 45.663 71.321 43.666 71.109 43.252 70.489 42.068 68.735 42.787 66.317 41.642 64.566 47.019 59.62 51.938 59.017 58.945 56.284L77.773 58.966 78.842 51.772 74.773 50.878 73.834 47.164 60.752 46.511C45.733 48.825 28.77 57.628 30.278 63.285 30.533 64.236 29.807 66.119 30.762 67.628 31.805 69.271 33.142 70.128 34.102 72.366 37.149 79.818 40.834 96.294 45.435 97.175 54.033 98.736 67.834 88.201 76.189 89.914 85.721 91.868 76.297 73.299 75.031 66.304z"/></g></svg>