<svg xmlns="http://www.w3.org/2000/svg" xmlns:xlink="http://www.w3.org/1999/xlink" width="40.002" height="40" viewBox="0 -153.471 1180 1179.941">
  <defs>
    <style>
      .cls-1 {
        fill: #fff;
        fill-rule: evenodd;
      }
    </style>
    <clipPath id="clip-path">
      <rect width="1180" height="873"/>
    </clipPath>
  </defs>
  <g clip-path="url(#clip-path)">
    <path id="Color_Fill_1" data-name="Color Fill 1" class="cls-1" d="M599,11c-0.1-4.056.07-8.354,1-11h2V14c8.094,2.253,20.582,24.652,21,24,4.135,12.57,1.925,25.46,5,39,2.55,11.229,1.192,20.5,4,32v14c3.113,13.938,2,31.121,2,47v17c2.494,7.082,2.011,11.913,0,19v44c4.866,1.657,13.523,1.077,20,1,3.321,2.082,11.926,1,17,1l36,1q0.5-17.5,1-35c-3.006-14.821-.838-42.737,3-56,2.631-9.093,3.3-19.3,11-23,5.188-3.028,19.686,1.943,23-3-4.291-.994-2.528-2.793-5-4H723c-9.147,6.13-43.7.122-53-2-5.746-1.311-10.54,1.051-14-2,26.675,0.043,54.988-1.915,84-2v-1h1c-0.166-7.915.007-19.691,6-22,11.86-7.661,11.854,16.03,13,23h51c8.266,4.937,25.633-1.6,33,4-10.089.059-20.012,2.038-29,4-15.678,3.423-30.437-2.059-45-2h-9c-1.972.867-4.179,3.745-7,5v1h24c1.021,0.8.274,0.355,2,1,17.29,29.453,12.989,73.228,13,117,32.909-.122,64.092,2.871,98,3-0.1-4.056.07-8.354,1-11h2v12h5V248h3v12h5V248h2v1c1.438,2.15,1.113,7.308,1,11l187,7h22c18.66,0.144,41.64.782,54,7,0.06,3.445,2.64,11.361,3,12,1.07,0.752.95,0.6,3,1,0,23.856,2.32,56.4-12,66-7.59,5.086-20.88,2.634-31,5-23.07,5.391-47.93,4.308-72,10-36.49,8.629-77.478,8.4-114,17l-29,3c-22.552,5.235-47.341,4.414-71,10a367.134,367.134,0,0,1-62,9c-0.81,18.147-9.231,34.131-15,48-8.894,21.383-15.428,42.435-25,62h-2c-4.1-17.145-13.288-35.7-19-53l-10-43c-12.133-5.963-38.691.622-53,4-6.6,1.559-14.281-.294-19,3-18.4,6.015-12,49.092-12,73q-0.5,27-1,54c0,11.829,1.28,26.894-1,37-3.345,14.825.927,32.075-2,45q-1,19-2,38c-3.185,14.307-1.538,30.312-5,45-0.954,4.047-3.314,13.009-2,16,8.84,5.329,31.19,2.333,43,5,13.388,3.023,28.385,1.7,43,5,20.816,4.7,45.893,6.253,67,9,2.8,3.653,7.091,6.38,9,11,6.5,15.727.8,44.489-9,51-9.965,6.619-28.057,3.894-41,7-30.677,7.362-65.353,8.41-96,16-12.133,3-25.806,1.5-36,6q-2.5,13.5-5,27h-9a2.834,2.834,0,0,0-1-1q-2.5-13-5-26c-2.67-1.441-4.221-1.994-9-2-9.5-5.665-31.882-3.477-46-7-37.739-9.416-80.7-11.323-118-20-2.089-3.025-5.507-5.491-7-9-6.231-14.644-6.282-47.348,8-52,7.731-5.686,21.988-2.5,33-5,26.934-6.107,57.993-4.908,85-11,10.295-2.322,25.887,1.2,34-4,0.8-1.18.773-1.681,1-4-5.721-9.264-3.074-36.684-6-50-4.3-19.555-4.866-44.5-6-65-0.981-17.743,2.444-39.048-1-55-3.743-17.337,2.475-38.911-1-55-4.925-22.8,9.446-71.011-10-78-5.984-5.191-39.874-7.284-50-9-5.424-.919-15.2-3.255-19-1-2.69.8-3.707,1.841-6,3,0,14.28-5.316,27.862-9,39-6.562,19.836-10.549,38.715-19,56h-2l-12-26c-11.5-26.994-21.31-53.089-28-84h-5c-7.125-4.348-19.011-1.808-28-4-22.842-5.57-48.239-4.3-72-10-47.78-11.462-101.231-10.418-149-22-16.963-4.113-34.228-3.182-50-7l-22-2c-13.525-3.306-31.922-6.016-45-8l-3,1c-20.236-5.934-23.789-77.516-5-84,11.961-8.893,51.78-.08,70-4l188-7V248h2v1c1.438,2.15,1.113,7.308,1,11h4c-0.105-4.31-.006-9.13,1-12h2v12h5V248h2v1c1.413,2.334.544,8.687,2,11,6.533-4.034,20.49.818,29-1,8.133-1.737,20.615,1,30-1,11.276-2.409,25.245-2.028,38-2-0.2-10.645-.741-21.547,0-30,0.151-1.725,1.624-4.855,1-8-2.851-14.363-.958-41.9,3-56,2.662-9.48,2.635-19.641,11-23,5.188-3.028,19.686,1.943,23-3-5.638-1.219-2.735-2.659-5-4H403c-9.2,6.164-43.723.117-53-2-5.746-1.311-10.54,1.051-14-2,26.585,0.043,55.028-1.916,84-2v-1h1q1-10,2-20c1.766-.961,1.68-1.257,4-2,13.234-8.378,9.646,16.273,13,22,5.881,3.713,41.121,1.11,51,1,8.266,4.937,25.633-1.6,33,4-10.286.137-19.945,2.035-29,4-17.073,3.706-37.189-2.044-55-2-1.284,3.666-2.656,3.6-6,5v1h24c1.021,0.8.274,0.355,2,1,2.784,5.6,7.007,10.533,9,17,3.955,12.829,5.02,32.83,3,47-0.194,1.362,1.05,6.983,1,10-0.189,11.367-.008,25.979,0,40l72-2c2.585-7.817,1-21.389,1-31V156c3.728-6.186-.747-18.951,1-27,5.429-25.013,1.421-53.222,8-77,2.307-8.34,4.757-18.144,9-25,6.108-9.869,13.845-9.03,14-26a2.832,2.832,0,0,0,1-1h2c-0.147,3.872-.537,9.715,1,12C586.071,8.727,593.391,10.442,599,11Z"/>
  </g>
</svg>
