<svg xmlns="http://www.w3.org/2000/svg" xmlns:xlink="http://www.w3.org/1999/xlink" width="39.993" height="40" viewBox="0 -145.603 1114 1114.206">
  <defs>
    <style>
      .cls-1 {
        fill: #fff;
        fill-rule: evenodd;
      }
    </style>
    <clipPath id="clip-path">
      <rect width="1114" height="823"/>
    </clipPath>
  </defs>
  <g clip-path="url(#clip-path)">
    <path id="Color_Fill_1" data-name="Color Fill 1" class="cls-1" d="M599,235l69,2c-0.6-26.952-3.088-60.936,3-84,2.243-8.5,3.04-20.78,10-24h21v-1h1c-4.878-5.5-12.1-5.3-23-5-8.121,5.558-37.414-.042-46-2-5.984-1.364-11.224.962-15-2,25.512,0.045,52.238-1.915,80-2v-1h1q1-9.5,2-19c2.806-1.513,4.964-2.043,10-2,1.021,0.8.274,0.355,2,1,1.1,4.247,1.4,16.26,4,20,5.521,3.492,37.737,1.111,47,1,8.062,4.812,24.835-1.452,32,4-10.887.077-21.26,1.895-31,4-8.624,1.864-19.572-.611-26-2H718a7.718,7.718,0,0,1-4,4v1h1c3.839,2.5,15.225,1.132,21,1,16.706,28.4,12.9,71.039,13,111l93,3V232h2v11h5V232h2v1c1.438,2.15,1.113,7.308,1,11h4V232h2v1c1.438,2.15,1.113,7.308,1,11,16.257-.124,35.216-1.191,50,2,9.378,2.024,21.87-.755,30,1,9.06,1.955,21.188-.686,29,1,17.833,3.849,41.62-1.752,59,2h23c19.37,0.246,44.82.385,58,7,0.06,4.3,1.23,9.821,2,11,1.07,0.752.95,0.6,3,1,0.71,20.7,2.96,57.186-14,63-8.08,5.354-22.27,2.481-33,5-20.27,4.759-42.6,3.888-64,9L744,383c-1.637,17.961-9.182,32.886-15,47-7.961,19.312-12.929,39.213-23,56h-2c-6.988-28.811-22.878-55.206-26-89-2.072-1.283-2.3-2.077-5-3-4.253-2.688-12.74.515-18,1-15.432,1.422-29.541,5.48-46,6-3.658,4.781-9.111,7.195-11,14v60c-2.127,9.859-1,24.439-1,36q-0.5,24-1,48v26c-3.357,15.506-.371,33.338-4,50q-3.5,29.5-7,59c19.626-.137,48.976,3.947,67,8l26,2c17.479,3.954,39.225,4.759,55,9,9.1,17.617,7.316,32.121,2,52-17.16,10.828-32.7,7.576-55,13-18.4,4.475-38.433,4.283-58,9-17.3,4.171-35.214,7.981-53,8-1.838,2.919-2.739,2.9-3,8-2.725,4.042-3.627,13.373-4,19-4.575.358-5.967,1.364-9-1-4.01-6.506-1.143-21.437-8-25L421,776c-12.86-3.131-30.218-.743-39-8-11.233-9.282-11.766-50.858,3-56,8.394-6.169,30.686-3.228,43-6,16.019-3.606,33.809-2.13,51-6a257.326,257.326,0,0,1,51-6v-2c-5.559-8.969-3.16-36.041-6-49-2.46-11.224-.267-24.448-3-37-2.045-9.393.367-21.087-2-32-2.2-10.154-1-25.135-1-37q-0.5-25.5-1-51c0-16.364-.957-32.973-1-48-0.023-8.182,1.753-20.623-1-27-1.946-4.509-6.815-6.683-10-10-22.111-.169-45.129-10.71-66-7-5.2,9.772-5.216,23.352-9,35-6.144,18.913-11.826,39.708-20,57-1.754-.631-0.971-0.193-2-1-7.974-8.825-10.1-23.155-15-35-8.765-21.2-17.519-41.944-23-67-23.787-7.464-54.562-6.306-79-12l-15-1c-20.268-4.834-42.582-3.9-64-9-15.677-3.733-33.2-3.006-50-7-47.864-11.381-101.047-11.452-149-22-14.592-22.168-15.5-49.558-6-75,12.712-7.254,39.707-6.909,59-7H87c17.387-3.746,41.159,1.844,59-2,8.131-1.752,20.621,1.021,30-1,7.813-1.683,19.939.952,29-1,15.156-3.265,34.4-1.954,51-2V232h2v12h5V232h2v11h5V232h2v1c1.337,1.992,1.1,6.507,1,10l93-3c-0.337-28.217-4.1-70.749,3-94,1.97-6.453,6.156-11.448,9-17,7.271,0.129,17.4.917,23-1-4.913-5.419-12.166-5.269-23-5-8.266,5.56-38.261,0-47-2-5.731-1.314-10.4.823-14-2,25.135,0.024,51.608-1.916,79-2,2.1-3.948,2.124-10.349,2-17,0.8-1.021.355-.274,1-2,3.393-2.14,4.685-3.054,11-3,3.4,5.289,4.163,10.211,4,20,10.1,5.236,34.112,2.12,48,2,5.026,3.108,25.112,1.712,32,3v1h-7c-11.582,7.558-53.013,2.123-71,2-1.122,1.671-5.1,4.515-4,5,4.992,3.024,17.043-1.081,22,2,17.579,17.258,12.006,73.758,12,107l69-2c1.079-3.127,1.065-8.414,1-13-2.207-3.462-1-12.737-1-18q0.5-21.5,1-43c0-51.149,1.464-120.192,23-150,3.782-5.235,10.207-6.758,15-11,3.763,1.267,9.769.983,13,3,17.058,10.646,20.7,39.538,26,62q0.5,9,1,18c0.613,2.765,2.573,10.127,3,12,1.4,6.133-1.877,18.371,0,27,1.63,7.493-.9,19.263,1,28,1.412,6.5-.786,17.3,1,25C602.127,188.485,599,215.514,599,235Z"/>
  </g>
</svg>
