<svg xmlns="http://www.w3.org/2000/svg" xmlns:xlink="http://www.w3.org/1999/xlink" width="40.014" height="40" viewBox="0 -78.327 955 954.654">
  <defs>
    <style>
      .cls-1 {
        fill: #fff;
        fill-rule: evenodd;
      }
    </style>
    <clipPath id="clip-path">
      <rect width="955" height="798"/>
    </clipPath>
  </defs>
  <g clip-path="url(#clip-path)">
    <path id="Color_Fill_1" data-name="Color Fill 1" class="cls-1" d="M489,32v3c-2.146.663-7.769,2.012-9,4h21c3.026-2.084,9.794-.733,13,0,4.541,9.061,7.3,14.7,10,27v34l5,4c2.808,4.265,3.516,11.765,4,18l-9,3v56h2c3.637,2.667,28.8,10.009,34,11,6.383,1.216,10.662-4.92,18-2,4.673,1.86,6.011,7.993,10,10,8.62,4.338,18.678,3.945,28,7,18.188,5.96,38.171,12.241,57,17H906c-0.139-12.586-2.563-31.414,1-42h1v42c12.9-.38,39.5-3.443,43,6,8.752,10.989.173,47.4-3,57-2.016,6.094-1.615,10.571-6,14-8.621,6.3-23.046,6.4-34,10-22.356,7.351-45.782,12.305-69,20-38.605,12.794-79.215,21.894-119,35-13.833,4.557-29.806,10.222-44,14l-152-1c0.652,55.607.348,114.875-10,161-3.931,17.521-2.338,35.678-6,52-5.023,22.386-3.189,46.558-8,68-1.471,6.554-.162,12.634-2,18h2c8.8,5.357,38.357,4.066,51,7l131,19c3.609,14.651,9.649,42.871-1,56-7.17,4.569-18.821,2.645-28,5-23.043,5.912-47.777,6.845-72,13-31.682,8.05-67.175,11.464-99,19-9.789,2.318-29.074-3.964-37-6-27.746-7.127-56.4-8.174-83-15-22.56-5.789-45.483-6.615-67-12-8.186-2.049-15.9-1.442-23-4-1.925-11.333-11.31-49,2-56,9.115-5.52,24.582-2.345,36-5,32.232-7.5,68.616-7.491,101-15,10.171-2.358,36.3-1.618,43-6,1.238-1.838,1.089-5.7,1-9-3.984-6.617-1.074-17.538-3-26-3.645-16.011-2.1-33.821-6-51-3.7-16.313-2.038-34.49-6-52-10.751-47.51-9.8-104.166-10-161l-152,1c-53.946-14.668-110.174-31.585-163-49-34.524-11.381-71.139-16.353-104-30-8.982-19-13.785-47.311-8-73,13.994-7.824,52.669-4,74-4H281c18.839-4.689,38.806-11.085,57-17,9.332-3.034,19.369-2.677,28-7,3.99-2,5.316-8.164,10-10,7.359-2.884,11.573,3.144,18,2,11.557-2.058,24.069-8.183,36-11V125c-4.948-.806-8.471-1.219-9-7,1.508-2.484.763-7.053,2-10,1.338-3.187,5.826-5.391,7-8V83c0-16.785.159-39.274,12-44,6.7-3.974,27.13,5.159,32-2h-7c-0.979-2.67-1.282-1.718-2-5-17.685.059-37.62,5.756-55,2l-36-4V28c11.934-.022,25.912-0.615,37-3,8.676-1.866,23.884-.5,31,1l23-1c1.03-2.8,1.518-2.1,2-6,1.733-2.747,1.414-11.758,2-15,22.27-13.106,13.461,12.964,21,22,5.373-3.39,12.447,1.333,19,0,22.72-4.622,49.226,1.832,71,3v1h-1c-6.7,4.282-17.965,1.066-27,3C531.983,37.284,510.544,32.116,489,32Z"/>
  </g>
</svg>
