<svg xmlns="http://www.w3.org/2000/svg" xmlns:xlink="http://www.w3.org/1999/xlink" width="40.084" height="40" viewBox="0 -175.801 1142 1139.601">
  <defs>
    <style>
      .cls-1 {
        fill: #fff;
        fill-rule: evenodd;
      }
    </style>
    <clipPath id="clip-path">
      <rect width="1142" height="788"/>
    </clipPath>
  </defs>
  <g clip-path="url(#clip-path)">
    <path id="Color_Fill_1" data-name="Color Fill 1" class="cls-1" d="M567,0h8c0.878,4.122,2,6.854,2,13l9,1c0.87-.228,1.9-3.454,5-2l1,3h15c19.2-4.036,51.662-2.049,70,2,9.6,2.12,21.469-1,28,4h-1c-6.774,6.244-19.073,3.58-30,6-29.939,6.631-62.178.879-92,1-0.372,2.076-.242,1.924-1,3-2.412-1.363-2.481-1.415-4,1h1c2.981,2.246,42.8,3.577,49,4,2.553,3.491,7.026,5.959,9,10,5.273,10.8,4.076,51.57-2,60-1.295.877-2.467,0.894-5,1,0.491,5.936,2.574,6.663,3,13h28q-0.5-15-1-30h11q-0.5,15-1,30h20c-0.132-8.664,2.283-12.794,4-19,4.119-1.4,4.62-2.894,11-3,4.346,6.563,7.074,10.067,7,22,13.667-.135,31.1-1.575,43,1,15.675,3.392,32.949-1.042,47,2h18c8.783,1.918,21.214,1.1,30,3h16c23.544,5.153,49.836,1.543,74,7l86,12c2-5.9,1.08-16.417,1-24,5.99-9.835-4.06-32.209,2-42-0.16,22.479-1.9,47,2,67,9.82,0.437,20.37,2.865,29,5l45,7c6.22,1.909,13.52,5.6,19,8,8.37,3.66,15.76,6.637,19,15v14c-3.52,4.074-4.79,9.548-8,14-6.65,9.209-22.5,21.351-32,28-34.7,24.293-81.9,36.634-126,51l-28,6c-18.974,5.742-39.822,7.6-61,13-12.569,3.207-27.188,6.589-42,7-1.5,3.409-1.272,4.438-6,5-4.981,3.182-17.459,3.572-24,4-0.829-2.963-.443-2.733-3-4-5.621,3.523-14.539,1.334-22,3-20.851,4.656-46.143,4.937-70,5v1h-1c0.215,5.038.327,7.344-3,9-1.545.707-.135,0.129-3,0v-6c-0.752-1.073-.6-0.946-1-3-13.871.035-61.472-2.651-69,2-16.911,10.448-26.086,36.624-31,59q-1,21.5-2,43c-4.666,21.548-1.338,47.4-6,69v14c-2.808,12.961.063,27.867-3,42-1.673,7.719-.068,17.1-2,26-3.781,17.412-4.168,38.658-4,56,2.125,1.456,2.5,2.839,5,4,8.831,5.879,41.137.715,55,2,32.4,3,71.06,5.274,97,16,9.679,4,21.238,7.554,25,17v12c-5.073,5.274-8.035,12.649-14,17-23.539,17.169-52.749,24.888-85,34l-16,2c-12.266,3.017-28.838,3-45,3H603c-5.342-1.592-6.685-6.788-11-9v1c-13.072,8.983-13.93,34.181-20,50-1.754-.631-0.971-0.193-2-1-9.86-13.187-5.178-44.177-22-50-1.565,3.313-3.691,6.578-7,8-7.669,3.295-46.544,2.2-55,0-38.285-9.973-69.6-14.017-98-33-11.459-7.659-24.362-13.457-24-33,2.331-1.789,2.218-3.626,4-6,2.992-3.985,11.309-8.959,16-11,28.46-12.385,66.9-9.567,101-17,17.335-3.778,41.592,1.774,58-2,7.09-11.978,3.38-39.58,0-55q-0.5-13-1-26c-2.8-12.689.052-27.148-3-41-7.737-35.121-1.352-75.93-9-111q-0.5-14-1-28c-4.39-16.032-16.691-43.078-29-51-10.441-6.719-53.78-3.206-71-3v8a6.1,6.1,0,0,0-2,2h-2l-1-2c-1.563-2.659-.263-6.244-3-8-3.923-2.417-11.568.166-17-1-9.668-2.075-21.36.3-32-2a170.611,170.611,0,0,0-24-3c-6.169-.344-16.018-3.817-20-2-2.371,2.071-1.471,2.523-6,3-5.966-3.679-17.427-1.007-23-5-2.835-3.324-2.307-4.1-9-4l-72-13c-66.513-18.168-134.391-33.275-183-69C18.287,219.717-.318,210.477,0,181c2.741-2.769,3.867-7.674,7-10,26.33-19.548,75.6-17.117,113-26,28.643-6.8,61.6-6.293,91-13l20-1c18.865-4.179,41.662-1.724,61-6h16c9.849-2.155,21.8.445,33-2,4.318-.943,12.442.213,18-1,19.164-4.182,48.938-1.935,71-2-0.132-8.664,2.283-12.794,4-19,4.119-1.4,4.62-2.894,11-3,4.346,6.563,7.074,10.067,7,22h58c0.089-6.136,1.812-8.031,3-13h-6c-2.791-21.267-12.429-60.754,8-71,10.518-5.275,36.228-2.252,49-3V29c-7.944-.469-17.015-3.906-26-2-20.992,4.453-50.18,5.89-72,1-9.866-2.211-22.2.219-29-5-0.8-1.021-.355-0.274-1-2,12.518-1.411,29.076-3.067,42-6h16c12.3-2.73,29.6-2.8,42,0h14l1-3c3.16-1.454,3.433,1.806,4,2l9-1c0.259-4.613,1.071-6.583,0-10h3V0Z"/>
  </g>
</svg>
