<svg xmlns="http://www.w3.org/2000/svg" xmlns:xlink="http://www.w3.org/1999/xlink" width="39.989" height="40" viewBox="0 -116.139 1028 1028.278">
  <defs>
    <style>
      .cls-1 {
        fill: #fff;
        fill-rule: evenodd;
      }
    </style>
    <clipPath id="clip-path">
      <rect width="1028" height="796"/>
    </clipPath>
  </defs>
  <g clip-path="url(#clip-path)">
    <path id="Color_Fill_1" data-name="Color Fill 1" class="cls-1" d="M532,31c21.529-1.158,52.619-3.42,73,1,8.533,1.851,16.5-1.239,22,3h-2c-6.116,4.291-15.231,2.083-24,4-14.589,3.19-53.641,7.889-67,3v5l16,1c1.95,2.56,5.287,4.233,7,7,12.032,19.429,7.011,55.6,7,84h-4v1c1.721,2.09,2.534,4.632,3,8l117,7c0.141-14,3-35.088-1-47h4v48c12.924-.134,27.473.48,39,3,9.882,2.161,20.359.111,29,2,14.6,3.19,31.263,0,45,3h15c23.112,5.082,50.956.963,74,6l30,1c7.4,1.621,16.787.137,25,2,16.915,3.837,34.674,6.125,48,13,18.96,9.782,46.39,22.975,38,59-0.9,3.846-2.1,9.314-4,13-15.78,30.656-60.162,36.18-97,46l-22,3c-74.617,19.01-156.6,23.155-231,42-21.851,5.535-44.273,6.757-65,12-11.714,2.963-25.854,1.348-35,7-11.375,7.029-15.6,25.076-19,40v21c-4.677,21.692.845,45.57-4,68l-7,88h1v1l149,48c6.89,4.078,32.15,22.27,22,38-5.515,17.336-24.112,17.538-43,22-31.967,7.551-68.023,6.491-100,14-17.143,4.026-45.8-1.523-47,18-3.323,5.395-1.35,13.965-3,21-3.447,14.7-3.617,34.36-7,49h-2v-2c-4.168-5.7-1.158-15.672-3-24-3.6-16.279-4.564-35.2-8-51-33.807-16.705-88.919-13.538-130-23-16.865-3.885-33.282-1.433-46-9-6.59-3.921-8.946-10.621-14-16,0.388-33.788,24.542-36.546,50-45,27.693-9.2,57.609-18.886,85-29,11.578-4.275,27.9-4.787,37-12,1.142-1.69,1.066-4.9,1-8-4.674-7.708-.707-28.45-3-39-6.028-27.733-.9-60.97-7-89-1.486-6.828.215-16.414-1-22V407c-2.867-12.42-7.044-30.392-16-37-8.28-6.109-20.272-4.876-32-8-26.318-7.01-54.541-7.954-82-15-63.519-16.3-133.219-19.788-197-36l-29-4c-27.36-6.991-56.225-10.641-80-21C16.33,276.994-.074,262.239,0,232c0.021-8.337.73-15.7,4-21,13.172-21.362,55.287-37.852,90-38-0.194-14.41.939-28.921,1-42,0.026-5.716-1.432-16.161,1-20l1,61,246-16V108h4v2c-3.437,5.431-1.111,36.891-1,46h1c6.81-4.159,19.2-.1,28-2,8.647-1.866,19.105.134,29-2,17.477-3.768,39.751-3.915,59-4v-2c1.353-1.725,2.128-4.847,3-7-3.245-.828-1.528.49-3-2-3.554-5.425.439-17.653-1-25-3.939-20.108,1.266-62.452,18-64,2.312-1.541,8.105-1.119,12-1V41c-5.032.427-8.965,2.08-13,3l-13-1c-14.482-.8-27.759,1.016-41-2l-25-5V34c28.964-1.168,62.592-5.084,94-3,0.87-9.977,5.827-26.13,14-29,2.038-1.883,3.835-2,8-2C524.135,7.911,530.828,16.036,532,31Z"/>
  </g>
</svg>
