<svg xmlns="http://www.w3.org/2000/svg" xmlns:xlink="http://www.w3.org/1999/xlink" width="39.975" height="40" viewBox="0 -70.29 934 934.579">
  <defs>
    <style>
      .cls-1 {
        fill: #fff;
        fill-rule: evenodd;
      }
    </style>
    <clipPath id="clip-path">
      <rect width="934" height="794"/>
    </clipPath>
  </defs>
  <g clip-path="url(#clip-path)">
    <path id="Color_Fill_1" data-name="Color Fill 1" class="cls-1" d="M486,31c21.737-1.758,55.48-3.465,76,1,7.782,1.693,14.054-.84,19,3-26.961,3.276-61.567,12.834-93,7v5a117.8,117.8,0,0,1,16,1c1.935,2.573,5.283,4.233,7,7,5.4,8.7,5.511,22.631,8,34,3.457,15.792-4.554,32.469,0,47,1.056,3.371,3.349,6.912,4,12l109,7c4.714-9.072,2.121-30.3,2-43-0.8-1.18-.773-1.681-1-4h4c-0.545,13.552-.98,29.938-1,45,4.306,2.687,9.086,3.16,17,3,3.528,2.1,10.068-.087,15,1,17.854,3.934,39.263-.13,58,4,13.723,3.025,30.427-.214,45,3,13.717,3.025,30.441-.225,45,3,11.547,2.558,24.474,1.125,37,4,30.893,7.092,62.084,12.365,76,36,2.441,4.145,1.633,8.629,3,14,5.977,23.491-3.155,42.315-15,54-17.768,17.528-43.045,26.553-71,34-15.606,4.158-30.228,3.008-46,7-12.5,3.164-26.33,3.541-40,7-10.222,2.586-22.205,5.61-34,6v4a2.834,2.834,0,0,0-1,1c-6.652.521-18.7,4.962-23,3-0.752-1.073-.6-0.946-1-3-17.717,1.714-36.664,5.792-53,10-25.449,6.556-51.69,7.745-76,14-16.724,4.3-43.058,1.975-52,14-6.516,8.763-10.134,21.9-13,34-1.521,6.424.156,15.775-1,21v21L496,584c12.522,2.414,24.8,7.807,36,12,20.339,7.615,41.422,12.818,61,20,17.535,6.433,37.329,8.143,53,17,8.014,4.529,32.217,22.462,21,38-4.983,16.436-23.3,16.771-41,21-31.481,7.522-67.45,6.719-99,14-17.319,4-47.8-1.613-49,18-3.323,5.395-1.35,13.965-3,21-3.454,14.73-3.624,34.393-7,49h-2v-2c-4.1-5.577-1.212-15.911-3-24l-7-49c-3.547-2.262-5.951-6.3-10-8-11.524-4.847-25.862-1.948-39-5-24.012-5.579-51.974-5.48-76-11-18.569-4.267-38.148-1.325-52-10-5.443-3.408-8.657-9.433-13-14-0.237-7.829-1.642-14.852,2-21,8.473-14.3,25.09-17.72,42-24,25.961-9.641,54.035-17.321,80-27l48-15v-9c-5.009-8.261-1.306-40.583-4-53-6.638-30.594-.268-67.958-7-99V405c-1.12-4.829-2.093-10.788-4-16-11.5-31.415-33.165-23.684-66-32-22.759-5.764-47.133-6.943-71-13a451.669,451.669,0,0,0-52-10l-2,4c-5.992-1.022-18.435-1.634-23-5-0.8-1.18-.773-1.681-1-4-16.508-.041-41.775-6.193-57-10l-29-4c-10.134-2.61-22.008-2.9-33-6-24.55-6.914-45.283-14.11-63-27-5.088-3.7-11.357-6.971-15-12C0.526,255.54-5.037,222.005,7,204c9.332-13.959,38.916-28.606,61-30-0.165-9.126-1.4-38.687,2-44l1,43c18.915-2.014,42.972-2.874,62-7,14.614-3.169,31.251-.021,45-3l45-2c20.777-4.528,49.148-4.8,72-5,5.509-9.048,3.144-31,3-45-0.752-1.073-.6-0.946-1-3h4c-0.321,13.669-.972,29.862-1,45l3,1c5.4,3.279,22.068-.812,30-1,26.085-.618,51.681-4.639,79-5v-1h1a126.46,126.46,0,0,1,3-21V108c0-16.048-.117-31.526,4-43,2.715-7.567,4.311-15.438,13-17,2.477-1.644,8.9-1.123,13-1V41c-19.6,1.8-46.138,3.27-65-1-9.9-2.242-21.733-.29-28-6,28.922-.708,63.416-6.52,95-3,0.86-9.865,5.925-26.164,14-29,2.038-1.883,3.835-2,8-2C478.229,7.965,484.819,15.857,486,31Z"/>
  </g>
</svg>
