<svg xmlns="http://www.w3.org/2000/svg" width="80" height="40" viewBox="0 0 80 40">
  <defs>
    <style>
      .cls-1 {
        fill: #fff;
        fill-rule: evenodd;
      }
    </style>
  </defs>
  <path id="Color_Fill_1" data-name="Color Fill 1" class="cls-1" d="M38.036,15.069V14.78l-0.575-.1,0.192-.963c0.326,0.064.482,0.209,0.671-.1,0.259-.384.207-1.067,0.479-1.445a2.739,2.739,0,0,1,.479-0.193,7,7,0,0,1,0-.867h0.479a3.73,3.73,0,0,0,.192.674h0.479c1.015-.634,3.536-0.042,4.5-0.674a1.311,1.311,0,0,1-.479-0.771,16.339,16.339,0,0,1-3.066-.193c-1.9-.153-4.678,0-6.9,0H11.305l-0.1-.193c1.265-.418,4.81-0.1,6.419-0.1H31.9c0.441,0.282,2.626.1,3.353,0.1a39.059,39.059,0,0,0,7.281-.289,1.317,1.317,0,0,1,.575.1,4.991,4.991,0,0,0,2.108-.289,0.8,0.8,0,0,1-.479-0.1h0.1a2.259,2.259,0,0,1,1.725,0v0.1a0.8,0.8,0,0,0-.479.1h0.192a0.471,0.471,0,0,0,.575,0,0.566,0.566,0,0,1,.383.193c0.462,0.115.874-.209,1.437-0.1a31.352,31.352,0,0,0,5.844.289l17.82-.1H77.7a8.539,8.539,0,0,1,2.3.1v0.1H79.9a5.436,5.436,0,0,1-2.012.1H73.006c-6.1,0-12.6,0-18.4,0a27.428,27.428,0,0,0-5.94.193c-0.8.2-1.64-.355-1.916,0.193a0.653,0.653,0,0,0-.287.578l1.916,0.1c1.61,0.792,2.5,2.856,4.886,2.89V13.72a4.6,4.6,0,0,1,2.3-.482,1.765,1.765,0,0,0,.1.867V13.239a5.963,5.963,0,0,1,1.245.1v0.482a0.652,0.652,0,0,0-.1.385l0.766,0.289c0.107-.277.017-0.177,0.287-0.289,0.282,1.2,1.778,1.707,2.683,2.312,0.83,0.555,1.657,1.281,2.491,1.83a1.2,1.2,0,0,0,.479.1,6.625,6.625,0,0,0,.862.771c0.754,0.359,1.713.147,2.491,0.385,1.727,0.528,3.737.979,4.982,2.023a0.331,0.331,0,0,1-.1.193c-0.515.667-1.7,0.559-2.4,1.06a0.743,0.743,0,0,1-.288.289c-0.14-.243-0.042-0.149-0.383-0.193l-0.192.674h-0.1v-0.1a0.78,0.78,0,0,0-.862-0.385c-0.639.386-2.394,0.048-2.778,0.674-0.521.825,0.452,1.624,0.479,2.6a1.152,1.152,0,1,1-2.2-.674,2.23,2.23,0,0,1,.767-0.771,4.363,4.363,0,0,0,.575-0.1,2.049,2.049,0,0,1-.862-0.674h0.192a0.992,0.992,0,0,0,.766.385l-0.1-.771h-0.1a0.955,0.955,0,0,1-.479.289v-0.1a0.854,0.854,0,0,0,.287-0.289H63.617l-6.994.771a4.412,4.412,0,0,0-.1,1.734H56.335a2.334,2.334,0,0,0-.479-1.541,0.587,0.587,0,0,0,.192-0.193H55.856c-0.507.313-1.335,0.044-2.012,0.193a25.175,25.175,0,0,1-4.407.482c0,0.3.162,0.13-.1,0.289V25.184c-1.16.123-2.2,0.363-3.449,0.385a0.467,0.467,0,0,1-.1.289V25.569a9.931,9.931,0,0,0-2.683.289c-0.544.439-.68,1.21-1.533,1.349V27.5l0.575,0.1,0.575,0.674a5.444,5.444,0,0,1-.1,1.156L41.964,30a5.364,5.364,0,0,1-1.15-.1c-1.166-1.686-.346-1.41.287-2.7H40.24c-0.439-.275-0.942-0.153-1.15-0.674a1.411,1.411,0,0,1-.192-0.771,12.033,12.033,0,0,1-2.108,0,16.892,16.892,0,0,0-3.545-.963c-0.02.135,0.079-.039,0.1,0.1,0.184,0.075-.192.1-0.192,0.1V24.7c-1.137-.072-2.416.258-3.737,0.289V24.8c-0.1-.157-0.092-0.615-0.192-0.771a0.826,0.826,0,0,0-.479-0.1,1.375,1.375,0,0,0-1.245,0,9.8,9.8,0,0,1-.862,1.349,5.1,5.1,0,0,0-1.437-.1v-0.1h0.1c0.321-.193.957-0.083,1.246-0.289a2.267,2.267,0,0,0,.192-1.06l-0.287-.1a3.365,3.365,0,0,0-2.3-.193c-0.235.152,0.067,0.258-.479,0.385a1.809,1.809,0,0,1-.288.771H23.186c-0.076-.417-0.2-0.356-0.287-0.771-2.307.108-5.576,0.07-8.048,0.1l-0.1-.193c0.341-.215.215-1.383,0.192-1.927l-1.724-.193a0.723,0.723,0,0,1-.383.482V22a0.978,0.978,0,0,0-.287-0.482,4.4,4.4,0,0,0-1.916-.289C9.827,22.485,7.543,24.1,7.09,25.376a5.038,5.038,0,0,1,.766.193v0.1H7.569A5.945,5.945,0,0,0,6.9,25.376a10.544,10.544,0,0,1-5.078.771l-0.1-.193H2.012a5.647,5.647,0,0,0,2.874-.385,4.414,4.414,0,0,1-1.533-.385V24.895c0.6-.674.465-1.829,0.383-2.986l-0.1-.482c0.1-.424.538-0.776,0.671-1.252-1.518-.16-2.433-1.032-3.832-1.252V18.633a11.564,11.564,0,0,0,3.162-.963,0.652,0.652,0,0,0,.192-0.482c-0.847-.931-1.152-2.361-1.82-3.468A16.55,16.55,0,0,1,0,9.963,6.521,6.521,0,0,1,3.257,9l7.761,8.959H13.6c0.517-.312,1.96-0.1,2.683-0.1l6.707-.1c1.9-.418,4.281.108,6.036-0.385C31.93,16.566,34.407,15.139,38.036,15.069Zm8.431-4.72v0.193h0.1A0.331,0.331,0,0,0,46.467,10.349Zm-1.437.1v0.482h0.1v-0.1a0.652,0.652,0,0,0,.1-0.385H45.03Zm0.958,0a1.39,1.39,0,0,0,.1.482h0.1V10.445H45.988Zm-41.1,9.826a1.353,1.353,0,0,0,.192.771c0.049-.367.134-0.405,0.192-0.771H4.886Zm10.731,3.468h6.707v-0.1a1.281,1.281,0,0,1-.1-0.674H22.036a5.162,5.162,0,0,0-1.916-.289c-0.588-.064-3.453-0.848-4.024-0.578-0.436.122-.412,0.306-0.383,0.867A1.531,1.531,0,0,0,15.617,23.739Zm6.994,0H22.9V23.064H22.707v-0.1h-0.1v0.771Zm0.958-.578v0.482h0.1v0.1a0.327,0.327,0,0,0,.192-0.1,3.4,3.4,0,0,1,.287-0.289,0.344,0.344,0,0,0-.192-0.1A0.644,0.644,0,0,0,23.569,23.161Zm-15.713,2.5a0.462,0.462,0,0,1,.287.1A0.462,0.462,0,0,1,7.856,25.665Zm0.287,0.1a0.462,0.462,0,0,1,.287.1A0.462,0.462,0,0,1,8.144,25.762Zm0.287,0.1H8.623v0.1A0.328,0.328,0,0,1,8.431,25.858Z" transform="translate(0 0.5)"/>
</svg>
