<svg xmlns="http://www.w3.org/2000/svg" width="39.938" height="40" viewBox="0 0 39.938 40">
  <defs>
    <style>
      .cls-1 {
        fill: #fff;
        fill-rule: evenodd;
      }
    </style>
  </defs>
  <path id="Color_Fill_1" data-name="Color Fill 1" class="cls-1" d="M19.571,1h0.491V1.367h0.184A8.827,8.827,0,0,1,21.534,6.5h0.245V6.626a4.182,4.182,0,0,1,0,1.59,1.1,1.1,0,0,1-.245.183v5.015a14.186,14.186,0,0,1,.43,3.18h3.006c0.066-.858.083-2.182,0.859-2.324a0.221,0.221,0,0,0,.123.061A4.341,4.341,0,0,1,26.5,16.6a11.815,11.815,0,0,1,2.086.245h1.166c0.588,0.131,1.253.176,1.84,0.306l1.227,0.061c1.108,0.248,2.452.183,3.558,0.428,1.061,0.235,3.065-.134,3.374.8a3.259,3.259,0,0,1,.184,1.651c0,0.794-.05,1.5-0.061,2.446a18.224,18.224,0,0,0-4.049.306H35.092c-0.886.206-2,.093-2.883,0.306a4.194,4.194,0,0,1-.982.061c-0.115,0-.021-0.18-0.123-0.122a8.06,8.06,0,0,1-1.84.245,19.538,19.538,0,0,1-4.478.306v0.061a4.248,4.248,0,0,1,.123,1.774,13.664,13.664,0,0,1-.307,4.1c-0.142.38-.093,0.846-0.552,0.917a0.533,0.533,0,0,1-.307.061v0.245a4.049,4.049,0,0,1-1.1.061V30.6H22.577V30.539a2.59,2.59,0,0,1-.552-0.122c-0.879.275-1,1.45-.982,2.63H21.1a7.222,7.222,0,0,1,1.534,0c0.473-.084,1.006.066,1.534,0a9.066,9.066,0,0,1,2.086,0V32.985h0.061a1.244,1.244,0,0,1,.123-0.55,0.21,0.21,0,0,1,.123.061,8.99,8.99,0,0,1,.245,3v0.673a2.673,2.673,0,0,0-.184.245,1.748,1.748,0,0,1-.184.978V36.9a2.058,2.058,0,0,1-.123-0.917H26.258V36.1a5.016,5.016,0,0,1-.307,1.162,4.061,4.061,0,0,1-1.472.061H20.736a0.933,0.933,0,0,0,0-.612,1.787,1.787,0,0,1-.43,1.1A1.121,1.121,0,0,0,20,38H19.939V37.939c-0.561-.282-0.455-0.737-0.8-1.223L19.2,37.327H13.988l-0.307-.917c-0.053-.225.045-0.265,0-0.428H13.62V36.41a2.393,2.393,0,0,0-.123,1.04H13.436V37.327a5.027,5.027,0,0,1-.123-0.979,8.112,8.112,0,0,1,.061-3.914H13.5V32.5a0.719,0.719,0,0,1,.123.489c1.741,0,3.636-.055,5.276.061,0.036-1.576-.194-1.951-0.982-2.691a1.954,1.954,0,0,0-.552.306,0.311,0.311,0,0,0-.061.183H16.258a0.959,0.959,0,0,1-.061-0.306,1.251,1.251,0,0,1-.552-0.122,11.433,11.433,0,0,1-.614-1.773V27.175a13.456,13.456,0,0,1,.123-3.547H13.5c-0.565-.338-2.065-0.071-2.822-0.245a17.312,17.312,0,0,1-1.84-.184,34.062,34.062,0,0,0-3.558-.306,0.394,0.394,0,0,0-.061-0.245v0.245C3.48,22.864,1.9,22.542.061,22.527a18.423,18.423,0,0,1,.123-4.22,3.045,3.045,0,0,1,.552-0.428l3.988-.367c1.136-.251,2.431-0.1,3.62-0.367a33.433,33.433,0,0,1,5.092-.55c-0.033-.87.077-2.032,0.675-2.263a0.314,0.314,0,0,1,.184-0.061,3.98,3.98,0,0,1,.675,2.324h3.006a6.436,6.436,0,0,0,.061-1.712,9.542,9.542,0,0,0,.368-3.669H18.282c-0.04-.168.1-0.064,0.123-0.122V6.443c-0.037-.169.042-0.336,0-0.55-0.061-.039-0.145.068-0.123-0.061a1.706,1.706,0,0,1,.184-0.245l0.061-1.162L18.9,2.774A4.67,4.67,0,0,0,19.571,1ZM34.663,22.65a0.3,0.3,0,0,0,.061.184A0.3,0.3,0,0,0,34.663,22.65ZM13.19,35.921a0.3,0.3,0,0,0,.061.183A0.3,0.3,0,0,0,13.19,35.921Zm13.5,0a0.3,0.3,0,0,0,.061.183V35.921H26.687Z" transform="translate(0 0.5)"/>
</svg>
