<svg xmlns="http://www.w3.org/2000/svg" width="40" height="39.969" viewBox="0 0 40 39.969">
  <defs>
    <style>
      .cls-1 {
        fill: #fff;
        fill-rule: evenodd;
      }
    </style>
  </defs>
  <path id="Color_Fill_1" data-name="Color Fill 1" class="cls-1" d="M22.33,8.986a0.3,0.3,0,0,1,.187.062,3.941,3.941,0,0,1,.062.5c0.138,0.262.495,0.482,0.622,0.749a5.292,5.292,0,0,0,.435.936l0.311,0.25a3.007,3.007,0,0,0,.622,1c0.717,0.5,1.55.732,2.3,1.186,1.555,0.938,3.244,1.791,4.79,2.746,0.7,0.433,1.668.774,2.177,1.186a6.647,6.647,0,0,0,.809.374c0.823,0.5,1.706.991,2.426,1.435a3.544,3.544,0,0,1,1.368.874c0.544,0.865.425,2.25,0.56,3.557H38.938V23.9c-2.344-.416-4.639-0.639-6.967-1.248-1.242-.325-2.426-0.251-3.67-0.562-0.36-.09-2.223-0.3-2.426-0.437a1.034,1.034,0,0,0-.435-0.375,3.49,3.49,0,0,1-.746.187,7.985,7.985,0,0,0-1.742-.25v0.062H22.89a2.766,2.766,0,0,1-.249,1.123c-0.115.08-.327,0.1-0.435,0.187-0.312.361-.264,1.121-0.871,1.186a16.187,16.187,0,0,1-.249,3.619q-0.062,1.03-.124,2.059a11.276,11.276,0,0,0-.249,2.247,6.671,6.671,0,0,0,1.555,1.061c0.939,0.627,1.862,1.37,2.8,2a5.4,5.4,0,0,1,1.493,1,4.29,4.29,0,0,1,.373,2.683c-0.994-.329-2.056-0.329-3.11-0.624A19.563,19.563,0,0,0,19.967,37a9.962,9.962,0,0,1-.311,2.371c-0.079.329,0.064,0.478-.187,0.624V39.875c-0.388-.639-0.039-2.191-0.435-2.808A0.418,0.418,0,0,0,18.785,37a5.671,5.671,0,0,1-1.493.312c-1.15.309-2.453,0.5-3.608,0.811a9.379,9.379,0,0,1-1.555.25,5.082,5.082,0,0,1,.311-2.558,1.438,1.438,0,0,1,.435-0.312c1.381-.961,2.792-1.966,4.167-2.933,0.51-.358,1.292-0.446,1.306-1.311-0.339-.554-0.1-1.547-0.249-2.246a26.984,26.984,0,0,1-.373-5.179c-0.741-.338-0.482-1.079-1.368-1.435a2.536,2.536,0,0,0-.249-1.123,1.5,1.5,0,0,0-.684-0.062,3.739,3.739,0,0,1-2.053.125c-0.431.649-1.814,0.466-2.675,0.686-1.6.41-3.447,0.491-5.038,0.936a13.147,13.147,0,0,0-2.488.5H2.364a12.732,12.732,0,0,1-2.239.375,3.64,3.64,0,0,1,0-1.435c0-2.6,1.647-2.905,3.3-3.807,3.2-1.746,6.684-3.589,9.89-5.554,0.383-.234.814-0.3,1.182-0.562a19.889,19.889,0,0,0,1.306-1.81l0.062-.374a2.077,2.077,0,0,0,.622-1.31h0.249V8.861A10.461,10.461,0,0,1,16.67,6.3H16.483V6.178c0.415-.139.077-0.411,0.311-0.686a1.453,1.453,0,0,1,.746-0.062,14.894,14.894,0,0,1,.933-4.306A1.231,1.231,0,0,1,19.407.062a0.733,0.733,0,0,1,.5,0,6.685,6.685,0,0,1,.933,1.56L21.4,4.368c0.087,0.367.018,0.749,0.124,1.061a2.441,2.441,0,0,1,.746.062A27.261,27.261,0,0,1,22.33,8.986Z" transform="translate(0.484 -0.031)"/>
</svg>
