<svg xmlns="http://www.w3.org/2000/svg" width="48" height="20" viewBox="0 0 48 20">
  <metadata><?xpacket begin="﻿" id="W5M0MpCehiHzreSzNTczkc9d"?>
<x:xmpmeta xmlns:x="adobe:ns:meta/" x:xmptk="Adobe XMP Core 5.6-c138 79.159824, 2016/09/14-01:09:01        ">
   <rdf:RDF xmlns:rdf="http://www.w3.org/1999/02/22-rdf-syntax-ns#">
      <rdf:Description rdf:about=""/>
   </rdf:RDF>
</x:xmpmeta>
                                                                                                    
                                                                                                    
                                                                                                    
                                                                                                    
                                                                                                    
                                                                                                    
                                                                                                    
                                                                                                    
                                                                                                    
                                                                                                    
                                                                                                    
                                                                                                    
                                                                                                    
                                                                                                    
                                                                                                    
                                                                                                    
                                                                                                    
                                                                                                    
                                                                                                    
                                                                                                    
                           
<?xpacket end="w"?></metadata>
<defs>
    <style>
      .cls-1 {
        fill: #fff;
      }

      .cls-1, .cls-2 {
        fill-rule: evenodd;
      }

      .cls-2 {
        fill: #55646b;
      }
    </style>
  </defs>
  <path class="cls-1" d="M36.828,5.036l0.1,0.378,0.3-.08L37.27,5.487l1.311-.341-0.036-.135,0.327-.088,0.3,1.1-0.327.088L38.8,5.978l-1.306.36,0.048,0.181-0.3.08,0.022,0.083L36.4,6.916l-0.068-.255-0.979.27,0.066,0.248-0.872.234-0.065-.241L29.2,8.628l-0.207.3-3.5.938,0.584,2.179-0.23.476L20.8,13.814l-6.689-1.193-7.647,1.99-0.8-.858-2.057.866L3.187,13.607l2.084-.877L5.038,11.565l0.723-.458-0.408-.985,0.082-.347,0.409-.11L6,10.244,8.216,9.65l0.253-.216L8.806,9.491l0.2,0.745,4.956-1.328,0.679-.537,7.115-1.906,0.866,0.507,1.737-.495,0.387,0.39,9.97-2.515-0.044-.165,2.808-.752L37.535,3.64l4.9-1.236L42.166,1.41l0.156-.042L42.138,0.68l0.13-.577,0.354-.095,0.307,0.46,0.184,0.688,0.144-.039,0.271,1.011L43.637,2.1,43.58,1.888l0.709-.19,0.324,0.12,0.009,0.034L48,1V2ZM19.16,7.9l-3.38.906,0.192,0.717,3.38-.906ZM34.1,5.777l-9.052,2.46L25.09,8.379l3.5-.938,0.358,0.21,5.289-1.376Zm1.852-.5-0.98.266,0.136,0.508L36.1,5.792Z"/>
  <path class="cls-2" d="M18,20V19h7v1H18Zm2-5.746-2.078.557,0.732,2.73L12,19,3.49,16.757l-0.058.162-0.415.075L1.032,16.04A41.433,41.433,0,0,1,.013,10.6l0.051-.369a3.444,3.444,0,0,1,1.625-.2L1.9,10.447l0.743,4.474,1.046,0.063,0.3,0.322L7.75,15.882l9.731-2.608-0.1-.386-5.752,1.541-0.34-1.268,11.339-3.038L22.861,11H23v0.614a1.842,1.842,0,0,1,0,.566V18H20V14.254Z"/>
</svg>
