<?xml version="1.0" encoding="UTF-8"?>
<svg id="Layer_1" data-name="Layer 1" xmlns="http://www.w3.org/2000/svg" width="50" height="242" viewBox="0 0 50 242">
  <defs>
    <style>
      .cls-1 {
        fill: #fff;
        fill-rule: evenodd;
      }
    </style>
  </defs>
  <path class="cls-1" d="M15,13h20v229H15s0-229,0-229ZM34.99,11.2H15.01c.13-3.68,1.2-6.47,2.96-8.35,1.79-1.92,4.29-2.85,7.02-2.85s5.23.92,7.02,2.85c1.76,1.89,2.83,4.68,2.96,8.35ZM37,109.6l12.56,23.35h-12.56v-23.35ZM13,109.6v23.35H.44l12.56-23.35ZM37,205.05l9,6.93v30.02h-9v-36.95ZM13,242H4v-30.02s9-6.93,9-6.93v36.95Z"/>
</svg>