<svg width="36" height="14" viewBox="0 0 36 14" fill="none" xmlns="http://www.w3.org/2000/svg">
<g clip-path="url(#clip0_1043_12211)">
<path d="M33.5652 1H2.43478C1.64237 1 1 1.61991 1 2.38462V11.6154C1 12.3801 1.64237 13 2.43478 13H33.5652C34.3576 13 35 12.3801 35 11.6154V2.38462C35 1.61991 34.3576 1 33.5652 1Z" fill="url(#paint0_radial_1043_12211)"/>
<path d="M35 2C35 1.44772 34.5523 1 34 1H2C1.44772 1 1 1.44772 1 2V12C1 12.5523 1.44772 13 2 13H34C34.5523 13 35 12.5523 35 12V2ZM36 12C36 13.1046 35.1046 14 34 14H2C0.895431 14 0 13.1046 0 12V2C0 0.89543 0.89543 0 2 0H34C35.1046 0 36 0.89543 36 2V12Z" fill="#2E1903"/>
<path d="M2 1C1.44772 1 1 1.44772 1 2V12C1 12.5523 1.44772 13 2 13H34C34.5523 13 35 12.5523 35 12V2C35 1.44772 34.5523 1 34 1H2ZM34 12H2V2H34V12Z" fill="url(#paint1_linear_1043_12211)"/>
</g>
<defs>
<radialGradient id="paint0_radial_1043_12211" cx="0" cy="0" r="1" gradientUnits="userSpaceOnUse" gradientTransform="translate(18 1.92308) rotate(180) scale(18.913 10.2981)">
<stop stop-color="#F9F9B7"/>
<stop offset="0.04" stop-color="#F3DA69"/>
<stop offset="0.21" stop-color="#F3DA69"/>
<stop offset="0.49" stop-color="#E9BD67"/>
<stop offset="0.74" stop-color="#CCA355"/>
<stop offset="0.83" stop-color="#C0974D"/>
<stop offset="0.93" stop-color="#AE8A49"/>
<stop offset="1" stop-color="#AE8A49"/>
</radialGradient>
<linearGradient id="paint1_linear_1043_12211" x1="12" y1="1" x2="12" y2="13" gradientUnits="userSpaceOnUse">
<stop stop-color="#F9F9B7"/>
<stop offset="0.254808" stop-color="#F9F9B7"/>
<stop offset="0.756393" stop-color="#C2994E"/>
<stop offset="1" stop-color="#BC9755"/>
</linearGradient>
<clipPath id="clip0_1043_12211">
<rect width="36" height="14" fill="white"/>
</clipPath>
</defs>
</svg>
