<svg xmlns="http://www.w3.org/2000/svg" width="80" height="40" viewBox="0 0 80 40">
  <defs>
    <style>
      .cls-1 {
        fill: #fff;
        fill-rule: evenodd;
      }
    </style>
  </defs>
  <path id="Color_Fill_1" data-name="Color Fill 1" class="cls-1" d="M80,10.591v0.3H55.133c-2.989,0-5.566.164-8.193,0.1v2.363h0.1v0.1c1.206-.009,1.692.092,2.988,0.1v0.2a1.359,1.359,0,0,0-.482.1c0.064,0.144,1.349,2.461,1.349,2.461h1.157c0.646,0.389,1.779.012,2.6,0.2,1.454,0.327,3.132.036,4.627,0.394a8.5,8.5,0,0,1,3.663,1.772l0.482,0.689c0.426,0.333.809,0.558,1.253,0.886l0.385,0.492a17.28,17.28,0,0,0,1.928.689c0.226,0.1.539,0.416,0.771,0.492,0.484,0.16.9-.187,1.157,0.2a1.722,1.722,0,0,0-.868.1,0.7,0.7,0,0,1,.193.689l-0.771.591c-0.689.325-2.84,0.77-3.084,1.378a1.176,1.176,0,0,0,0,.886,2.536,2.536,0,0,1,1.157.1c-0.16.11-.059,0.01,0,0.2a3.577,3.577,0,0,1-1.157,0,1.84,1.84,0,0,1-.193.788c-0.445.29-2.822,0.11-3.566,0.1l-7.518-.591L53.3,28.311c1.767,0.011,3.721-.074,5.2-0.2v0.1h0.1a0.34,0.34,0,0,1-.1.2c-0.765.7-2.219,0.122-3.47,0.394a25.489,25.489,0,0,1-4.723.1c-2.513,0-5.623.281-7.807-.2a1.419,1.419,0,0,1-.1-0.394,1.488,1.488,0,0,1,.482-0.1,1.5,1.5,0,0,0,1.157,0c-0.391-.163-0.321-0.63-0.289-1.181a1.329,1.329,0,0,1-.1-0.689,37.55,37.55,0,0,1-8-.394l-2.024-.1a30.968,30.968,0,0,0-5.783-.689c-0.171.834-.41,1.53-1.542,1.477v-0.1h-0.1l0.289-1.575a20.575,20.575,0,0,1-3.759-.492c-1.4-.324-2.856-0.192-4.145-0.492l-1.735-.1c-1.761-.4-3.878-0.4-5.59-0.788-1.382-.312-3.3.786-4.819,0.492l-0.1-.2H6.651c0.383,0.265,3.294-.267,3.566-0.492-1.6-.088-2.267-1.269-2.988-2.264-0.923-1.274-2.081-2.455-2.988-3.741a10.272,10.272,0,0,0-1.06-1.575H0V13.938H2.024v-0.1l-0.675-.886c1.289-.005,1.454,0,2.7,0H5.012c0.514,0.187,1.456,1.412,1.928,1.673H8.386c0.515-.333,3.474-0.109,4.337-0.1v1.378C10.636,15.936,9.4,16.283,8,15.415v0.1H8.1a6.759,6.759,0,0,0,1.639,1.378c0.954,0.729,1.818,1.615,2.8,2.363a7.938,7.938,0,0,0,1.831,1.575l20.337-.2v-0.1a10.976,10.976,0,0,0-.675-1.28,26.531,26.531,0,0,1-2.892-1.969c1.211,0.024,4.9.216,5.2-.3a0.344,0.344,0,0,1,0-.394h0.1c0.049,0.4.02,0.4,0.386,0.492,0.4-.279,1.088-0.135,1.542-0.394a11.38,11.38,0,0,0,2.217-2.264,0.825,0.825,0,0,1-.578-0.3l1.928-.1,0.193-.3c0.148-.05,1,0.2,1.446.2a1.174,1.174,0,0,1,.771-0.984v-0.3a0.461,0.461,0,0,1,.289.1,9.892,9.892,0,0,1,.386.984c0.3-.388,1.183-0.1,1.446-0.492a11.5,11.5,0,0,0,.1-2.264H45.88c-0.587.375-2.02-.016-2.988,0-1.579.026-3.661-.1-5.783-0.1H13.4v-0.3H36.53c2.728,0,5.988.278,8.1-.3,0.442-.12,1.237.245,1.542,0.1A2.717,2.717,0,0,1,46.843,10a2.022,2.022,0,0,0,.386.492,12.353,12.353,0,0,1,4.145.1H80ZM44.627,28.311c1.781-.014,3.619,0,5.687,0a6.521,6.521,0,0,0,2.41-.1H52.434q-0.048-.935-0.1-1.87H46.843a9.238,9.238,0,0,0-2.41.1A6.325,6.325,0,0,1,44.627,28.311Z" transform="translate(0 0.5)"/>
</svg>
