<svg xmlns="http://www.w3.org/2000/svg" width="80" height="40" viewBox="0 0 80 40">
  <defs>
    <style>
      .cls-1 {
        fill: #fff;
        fill-rule: evenodd;
      }
    </style>
  </defs>
  <path id="Color_Fill_1" data-name="Color Fill 1" class="cls-1" d="M7.17,9H8.13c0.01,2.122.433,4.8-.113,6.679,0.105,0.057.216,0.116,0.339,0.168a0.791,0.791,0,0,0-.056.225,14.255,14.255,0,0,1,2.032-.056l4.8,0.056v0.954c-1.8.017-3.773,0.179-5.589,0.056v0.056c0.511,0.315.937,0.776,1.411,1.122,1.245,0.911,2.424,1.841,3.67,2.75a10.539,10.539,0,0,0,1.863,1.459,4.589,4.589,0,0,0,1.75.056h3.67l10.388-.056c1.064,0,2.245,0,3.218-.056a6.15,6.15,0,0,0,1.694-.056,8.463,8.463,0,0,0,1.073-.729V21.571a1.958,1.958,0,0,1-.9-0.168,3.151,3.151,0,0,1-.056-2.189,0.592,0.592,0,0,1,.339-0.112c0.454-.27,1.292.018,1.863-0.112,1.109-.253,1.726-0.877,3.105-0.9,0.072-.235.211-0.364,0.282-0.617-0.269.005-.314,0.024-0.4-0.168a1.146,1.146,0,0,1,0-.73,3.5,3.5,0,0,1,.96-0.056c0.75-1.553,3.348-.824,5.251-1.179,0.095-.29.006-0.656,0.113-1.01a2.02,2.02,0,0,1,.282-0.337l0.113-.9H49V12.985h1.412V13.1H50.191l0.113,0.9c0.339,0.207.336,0.044,0.734-.056V13.77a1.673,1.673,0,0,1,.4.224l0.734-.056V13.827c-0.235-.391-0.044-1.015-0.452-1.235V12.536H51.658V12.7H50.925V12.48c-0.276-.056-0.1-0.1-0.226-0.168l-3.613-.168a12.528,12.528,0,0,1-2.258,0c0,0.194.009,0.232-.339,0.224-0.025-.064-0.065-0.264-0.113-0.112H44.319a0.875,0.875,0,0,1,.056.281H44.206a1.4,1.4,0,0,0-.169-0.505c-5.479.005-19.008-.108-24.6-0.112V11.638c5.577,0,19.159-.107,24.6-0.112a2.058,2.058,0,0,1,.113-0.393h0.226V11.3a2.346,2.346,0,0,0,.847.112,3.6,3.6,0,0,0,1.524,0L50.7,11.3a0.27,0.27,0,0,1,.056-0.168V11.077h0.169V10.852h0.734c0.047,0.182-.028.086,0.113,0.168V10.964a0.285,0.285,0,0,0,.057-0.168H52l0.056,0.674h0.4l0.113-.168a1.411,1.411,0,0,0-.452-0.281,0.71,0.71,0,0,1,.056-0.225H52.28a0.714,0.714,0,0,0,.452.393,1.613,1.613,0,0,1,1.524-.393,1.337,1.337,0,0,0,.678.337,0.487,0.487,0,0,0,.339-0.337,11.4,11.4,0,0,0,1.411.056,2.878,2.878,0,0,0,.169.449c2.068,0,4.181.109,6.21,0.112a1.149,1.149,0,0,0,.113-0.281h0.282a2.81,2.81,0,0,1,.113.393c5.384-.005,10.909.108,16.429,0.112V11.75a0.285,0.285,0,0,0-.056.168c-5.516,0-10.967.107-16.373,0.112V12.2H63.4v0.337H63.232V12.255H63.119c-0.083.143-.12,0.113-0.339,0.112a0.382,0.382,0,0,0-.113-0.224,7.559,7.559,0,0,1-1.694,0c-1.386,0-2.8.156-4.121,0.168a1.068,1.068,0,0,0-.169.393h-0.79a0.27,0.27,0,0,0-.056-0.168v0.056H55.78a5.992,5.992,0,0,0-.339,1.179h0.565c0.245,0.192.415,0.055,0.4-.337H56.74L56.8,13.827a1.51,1.51,0,0,1,.678,1.235c0.089,0.05.207,0.193,0.282,0.225,0.14,0.059.3-.007,0.4,0.056a0.735,0.735,0,0,0-.4.056,9.354,9.354,0,0,1,1.411,1.8h0.056V17.138a5.134,5.134,0,0,1,1.524-.9V16.3l-1.3,1.179a0.817,0.817,0,0,0,1.016.505,0.593,0.593,0,0,1,.452,0V17.7H61.03V17.98c0.878,0.047,1.9.153,2.71,0.281a3.1,3.1,0,0,1,1.073-.056,14.288,14.288,0,0,0,3.557.337c0.074-.212-0.055-0.207.282-0.225a4.27,4.27,0,0,0,1.016.449,6.1,6.1,0,0,0,.734-0.056,1.378,1.378,0,0,1,.4.505c0.359,0.285.828,0.406,1.186,0.673,0.336,0.251.548,0.723,0.9,0.954l0.508,0.168a2.076,2.076,0,0,0,.678.73v-1.4a10.181,10.181,0,0,1-.113-2.526l-0.169-.056a0.491,0.491,0,0,0-.282-0.056V17.98H73.225c-0.009-.322-0.01-0.351,0-0.674h0.282v0.281a1.727,1.727,0,0,0,.4-0.056,0.877,0.877,0,0,0,.056-0.281,0.274,0.274,0,0,1-.169-0.056,1.315,1.315,0,0,1,.508,0,0.361,0.361,0,0,0-.113.281,1.481,1.481,0,0,0,.734.112V17.7H74.3a1.457,1.457,0,0,0-.113.73,4.668,4.668,0,0,1,.056,1.122,10.891,10.891,0,0,1,.113,2.189,1.2,1.2,0,0,0,.847.449c0.328-.3,2.363.156,2.541,0.337L77.968,23.2H77.742a1.219,1.219,0,0,1-.282.561c0.038,0.181.233,0.4,0.282,0.561a2.1,2.1,0,0,1-.226,1.122,1.539,1.539,0,0,1-1.581.337,1.273,1.273,0,0,0-.4-0.224,6.458,6.458,0,0,1-.79.393,1.989,1.989,0,0,1,.169.168l-0.734.112a1.406,1.406,0,0,0-.113-0.281,2.5,2.5,0,0,1-1.016.224,3.791,3.791,0,0,0-.339.449,1.354,1.354,0,0,1,.056.617c1.707,0,3.806-.1,5.363,0V27.52H77.855V27.8h0.282v0.281c-1.65.1-3.763,0-5.589,0-0.242.713-1.591,0.527-2.541,0.505a2.575,2.575,0,0,1-1.016.056,0.361,0.361,0,0,1-.056.224V28.643H68.6a0.644,0.644,0,0,0-.113.393H68.144V28.811a0.585,0.585,0,0,1-.452-0.168c-0.119-.053-0.807.165-1.242,0.168v0.056h0.056c0.132,0.079.49,0.031,0.621,0.112a6.331,6.331,0,0,0,.621.786v0.168a0.6,0.6,0,0,1,.339.056H67.749v0.168c-0.755.192-1.481,0.476-2.371,0.673a22.428,22.428,0,0,1-4.121.056H52.9a17.988,17.988,0,0,1-3.5-.056c-0.531-.121-1.111.011-1.186-0.561A1.018,1.018,0,0,0,48.44,30.1a7.247,7.247,0,0,0,2.541.281,2.968,2.968,0,0,1,.4-0.786V28.531H50.529a0.27,0.27,0,0,1-.056.168V28.531L49,28.643l-0.056-.561H47.142a1.665,1.665,0,0,1-.4.505l-1.919-.168V28.082H41.835a7.65,7.65,0,0,1-.734-0.449,1.252,1.252,0,0,1-.226.617V27.913a0.739,0.739,0,0,1-.056-0.393H40.141a1.014,1.014,0,0,1-.169.225l-0.056.786a0.274,0.274,0,0,1,.169.056,3.169,3.169,0,0,1-1.411-.112H38.9l-0.056-.9a2.015,2.015,0,0,0-.9-0.112c-0.434-.265-2.369.032-3.049-0.112a21.972,21.972,0,0,0-3.274-.168h-1.3a15.575,15.575,0,0,0-3.444-.112v0.056H26.817l-0.056.337H26.422V27.015H26.366V26.959l-3.5-.505c-0.836-.2-1.711-0.159-2.484-0.337l-1.3-.112c-1.521-.346-3.231-0.4-4.742-0.73a5.713,5.713,0,0,0-2.2.449,6.18,6.18,0,0,1-1.129.056,10.837,10.837,0,0,1-3.613.674,2.76,2.76,0,0,0-.339-0.337V26.005H7.17a1.82,1.82,0,0,0,.79.337,7.031,7.031,0,0,1,2.2-.73,0.859,0.859,0,0,0,.621-0.224c-0.183-.3-0.11-0.782-0.282-1.066-0.448-.739-1.129-1.34-1.637-2.02a4.193,4.193,0,0,0-.847-1.066V23.7a0.483,0.483,0,0,0-.056.281H7L6.944,20.73a6.9,6.9,0,0,0-.056-1.01,0.43,0.43,0,0,1-.169-0.393,1.781,1.781,0,0,1,.169-0.168L7,17.98A4.646,4.646,0,0,0,6.493,17.7V17.531H6.662l0.056-.112a0.825,0.825,0,0,0,.113-0.449H6.775a11.708,11.708,0,0,1-1.75,0L0,16.913V15.9l4.855-.112c0.34,0.031,1.891.232,1.92,0.224,0.153-.166-0.024-0.167.226-0.224a0.2,0.2,0,0,0,.113.056V15.566a4.448,4.448,0,0,1,0-1.8ZM56.909,28.194a1.232,1.232,0,0,1-.169.561l-0.056-.561H56.57a18.262,18.262,0,0,1-2.654.224v0.168H53.86V28.531c-0.113,0-.016.057-0.113,0a0.347,0.347,0,0,0-.226-0.112,0.16,0.16,0,0,1-.056.056v0.168c-0.53.024-1.156-.042-1.75-0.056a8.091,8.091,0,0,1,.056,1.684,3.976,3.976,0,0,0,.678.112,0.483,0.483,0,0,1,.169-0.337c0.047,0.506.827,0.363,1.355,0.337a0.482,0.482,0,0,1,.169-0.337,0.475,0.475,0,0,0,.056.337h7.114c0.081-.3.312-0.526,0.4-0.786V28.082H60.014a0.161,0.161,0,0,1-.056.056l-0.056.337H59.563V28.194a2.948,2.948,0,0,0-1.186-.112Zm5.138-.112V29.6a3.149,3.149,0,0,1,.4.786h0.282a0.732,0.732,0,0,1,.226-0.337c0.012,0.451.35,0.367,0.79,0.337a2.564,2.564,0,0,1,.169-0.337c0.033,0.434.393,0.366,0.847,0.337a4.526,4.526,0,0,1,1.016-.112,11.551,11.551,0,0,0,1.694-.561V29.653a8.293,8.293,0,0,0-2.032-1.01,4.166,4.166,0,0,1-1.073.168l-0.113-.224a5.536,5.536,0,0,0-1.073-.224,0.612,0.612,0,0,1-.113.168c0-.227.092-0.134-0.056-0.224A1.539,1.539,0,0,0,62.047,28.082Z"/>
</svg>
