<svg xmlns="http://www.w3.org/2000/svg" width="80" height="40" viewBox="0 0 80 40">
  <defs>
    <style>
      .cls-1 {
        fill: #fff;
        fill-rule: evenodd;
      }
    </style>
  </defs>
  <path id="Color_Fill_1" data-name="Color Fill 1" class="cls-1" d="M47.065,7h0.292q0.049,1.637.1,3.274a6.427,6.427,0,0,1,1.949.6v0.1a1.24,1.24,0,0,0-.682.1,0.677,0.677,0,0,0-.1.4h0.1c0.493-.274.9,0.092,1.851,0,0,0,1.427.216,1.754,0.3H80v0.2H63.337c-0.462.292-2.661,0.1-3.41,0.1H50.865v0.3a5.619,5.619,0,0,0-2.046,0,1.8,1.8,0,0,1,.292.5H48.916a0.6,0.6,0,0,0-.195-0.2v0.794c2.979-.024,2.95,2.421,4.775,2.579a9.787,9.787,0,0,1,1.851-1.19v0.1a3.258,3.258,0,0,0-.877,1.091c0.534,0.366,2.8.306,3.7,0.3a9.723,9.723,0,0,0,1.462,1.29l0.195-.1c0.388,0.473.551,1.151,1.364,1.19,0.877,0.6,2.321.292,3.313,0.794a20.1,20.1,0,0,1,3.41,3.075c0.147-.085.072-0.283,0.195-0.1,0.226,0.18.278,0.513,0.487,0.694a8.4,8.4,0,0,0,1.754.893v-0.2a0.333,0.333,0,0,1-.195-0.1,1.376,1.376,0,0,1,.487.1c-0.015-.688.161-0.949,0.779-0.992a1.1,1.1,0,0,1,.39,1.091,3.262,3.262,0,0,0-.1.5,3.012,3.012,0,0,1,.487.3,0.823,0.823,0,0,0-.779.6c0.661,0.557-.078,1.664,0,1.885h-0.39c-0.742.517-1.977-.148-2.339-0.4v0.1a0.7,0.7,0,0,1,.195.694,2.016,2.016,0,0,0-.974.1,2.794,2.794,0,0,1,.78.2v0.2a1.431,1.431,0,0,0-.877.2,3.057,3.057,0,0,1,1.072.2l-0.1-.3a2.51,2.51,0,0,1,1.169.3H71.62c1.532,0,2.993,0,4.287,0v0.2h-4.58a3.269,3.269,0,0,1-1.169,0,7.291,7.291,0,0,0-.682.3,3.836,3.836,0,0,0,1.364.992v0.1H70.646c-0.526-.525-1.435-0.652-1.949-1.19-0.128.333-.15,0.287-0.585,0.3v0.893a4.059,4.059,0,0,0-1.169,0,5.993,5.993,0,0,0-.487-0.992c-0.352-.371-0.521.158-0.682-0.5a0.812,0.812,0,0,0,.487-0.992c-2.8,0-5.465-.095-8.477-0.1a2.975,2.975,0,0,1-1.072,1.29v0.1h0.195a0.388,0.388,0,0,1,.39-0.2,3.272,3.272,0,0,1,.585.794c-0.322.224-.457,0.57-0.779,0.794v-0.2a0.9,0.9,0,0,0,.39-0.695,2.8,2.8,0,0,0-.877-0.3,2.222,2.222,0,0,0-.39.6,1.322,1.322,0,0,1,.39,1.29c-0.136.166-.153,0.422-0.292,0.6s-0.436.241-.585,0.4a4.209,4.209,0,0,1-1.364-.2,1.733,1.733,0,0,1-.487-0.992,1.192,1.192,0,0,1,0-.794,9.943,9.943,0,0,0,.877-0.794h0.779l0.39-1.687a53.534,53.534,0,0,1-6.431-.3v0.5H49.4v-0.1a0.677,0.677,0,0,1-.1-0.4l-2.631-.1v0.4h-0.1v-0.1a0.512,0.512,0,0,1-.1-0.3,15.547,15.547,0,0,0-2.534-.2c-0.2.28,0.1,0.239-.195,0.4v-0.2a0.512,0.512,0,0,1-.1-0.3,24.952,24.952,0,0,1-5.067-.6l-1.364.1a12.579,12.579,0,0,0-2.339-.5,3.915,3.915,0,0,1-.1.893c-0.842.532-3.49,0.444-3.7-.6a1.6,1.6,0,0,0,.1-0.794h-0.39c-0.273.471-.686,0.752-0.974,1.191a3.256,3.256,0,0,1,.78.1v0.1H30.012c-0.5-.309-1.486-0.061-1.949-0.4a2.3,2.3,0,0,0,.39-1.29l-1.364-.2-0.1,1.191a1.458,1.458,0,0,1-.39.2c-0.808.473-2.016-.574-2.923-0.4-1.473.288-5.148-.348-6.626-0.694-1.183-.277-2.427-0.09-3.41-0.5a4.759,4.759,0,0,1-.292-0.4c-0.14-.465.363-0.878-0.1-1.19a0.492,0.492,0,0,0-.292-0.1c-0.117.249-1.552,2.51-1.656,2.579H6.431a4.873,4.873,0,0,1-1.754,1.091,1.269,1.269,0,0,1-.195.992,0.682,0.682,0,0,0,.195.3,0.951,0.951,0,0,1-1.072,1.191c-0.462-.419-1.212-1.405-0.1-1.786a3.855,3.855,0,0,1,.78,0,0.36,0.36,0,0,0,.1-0.2,2.856,2.856,0,0,1-.39-0.5c0.308-.183.171-0.368,0.1-0.695H4.58c0.085,0.14-.077.245,0.195,0.2v-0.1a7.5,7.5,0,0,1,.585-1.587c0.113-.167.46-0.224,0.585-0.4A5.318,5.318,0,0,0,7.406,20.79a1.092,1.092,0,0,0,.1-0.6,0.466,0.466,0,0,1-.292-0.1,5.782,5.782,0,0,1-.39-0.694c-0.493-.692-1.378-1.06-1.851-1.786h-0.1v0.1c-0.859.706-1.492,2.718-2.436,3.175v-0.1a0.708,0.708,0,0,1-.585-0.5c1.008-.792,1.5-2.5,2.339-3.175v-0.2a2.251,2.251,0,0,1-1.267-1.488A1.8,1.8,0,0,0,4,14.837H3.9v-0.1A19.708,19.708,0,0,1,0,13.448a2.089,2.089,0,0,0,.292-0.794h0.1a7.664,7.664,0,0,0,1.851.6c0.623,0.234,1.841.482,2.436,0.794a1.713,1.713,0,0,0,.682.5,0.682,0.682,0,0,1,.292-0.5c0.035,0.506.071,0.492,0.585,0.5V8.786H7.113v4.762a5.874,5.874,0,0,0-.585,1.091,5.1,5.1,0,0,0,1.267.3c1.583-.325,3.053-1.321,4.775-1.587a1.6,1.6,0,0,1,.1.794c-0.744.585-2.087,0.644-3.021,0.992a9.488,9.488,0,0,1-1.169.5l-0.877-.2a0.669,0.669,0,0,0,0,.5,8.747,8.747,0,0,0,1.462.992,10.7,10.7,0,0,0,4.19,2.282l18.222-.992v-0.1a2.518,2.518,0,0,1-.78-0.694,27.6,27.6,0,0,0,4.482-.2c0.782-.172,1.581.137,2.144-0.2a1.116,1.116,0,0,0,.487-0.992,0.513,0.513,0,0,0,.1-0.3,4.783,4.783,0,0,1,.682.1,0.972,0.972,0,0,0,.682-0.5,2.6,2.6,0,0,1-.585-1.19,6.013,6.013,0,0,1,2.144-1.091v0.2H40.633a1.515,1.515,0,0,0-.487.4h0.195c1.06,1.044,1.837-.174,2.826-0.5a7.947,7.947,0,0,1,2.534.1,1.711,1.711,0,0,1,.1-0.6H45.6a0.377,0.377,0,0,1-.292.2v-0.1a1.2,1.2,0,0,0,.39-0.4H45.506a3.834,3.834,0,0,0-1.949,0v-0.3h-0.1v0.1a11.723,11.723,0,0,0-3.021-.1H34.2c-6.486,0-13.16-.1-19.781-0.1v-0.2H37.028c2.2,0,5.01.225,6.626-.4l0.487,0.1a2.937,2.937,0,0,0,.877-0.2c0.41-.07.508,0.293,0.779,0.1a0.562,0.562,0,0,0,0-.4H45.116v-0.1h0.1a3.045,3.045,0,0,1,1.754-.6C47.013,9.143,47.062,8.079,47.065,7Zm-0.487,3.968c0.168,0.087.125,0.088,0.292,0H46.577Zm0.974,0c0.167,0.087.124,0.088,0.292,0H47.552Zm-2.046.1H45.7v0.1A0.332,0.332,0,0,1,45.506,11.068Zm3.313,0h0.195v0.1A0.333,0.333,0,0,1,48.819,11.068Zm-3.508.1h0.195v0.1A0.333,0.333,0,0,1,45.311,11.167Zm3.7,0h0.195v0.1A0.333,0.333,0,0,1,49.013,11.167Zm-2.923,1.29V13.25a2.267,2.267,0,0,1,.78.1V12.456a0.359,0.359,0,0,1-.1-0.2h-0.1v0.1C46.45,12.361,46.507,12.407,46.09,12.456Zm1.462,0.893h0.779V12.456a1.34,1.34,0,0,1-.585-0.2A2.048,2.048,0,0,0,47.552,13.349ZM7.308,22.476c-0.374.792-.929,1.45-1.364,2.183H6.139c0.242-.808.906-1.282,1.169-2.083h0.1C7.5,22.475,7.31,22.477,7.308,22.476Zm6.334,0.6a5.254,5.254,0,0,0,0,1.389c1.137,0.49,2.878.427,4.19,0.695v-0.5a4.038,4.038,0,0,0,.195-0.992Zm4.385,2.083c1.483,0.089,2.813.47,4.385,0.5l0.1-1.389-4.385-.6v0.694A1.6,1.6,0,0,0,18.027,25.155Zm52.619-1.091c0.162,0.111.1,0.176,0.195,0H70.646Zm-47.942.3L22.509,25.75c0.914,0.021,1.215-.008,2.144,0a2.919,2.919,0,0,0,.1-0.893,0.512,0.512,0,0,0,.1-0.3Zm45.8,0.794a1.446,1.446,0,0,0,.1.5,1.058,1.058,0,0,1,.487-0.4v-0.1H68.5Zm-63.045.3a2.192,2.192,0,0,1-.487.4H5.262a0.349,0.349,0,0,1,.195-0.1C5.5,25.525,5.546,25.642,5.457,25.452Zm66.358,0.2a1.014,1.014,0,0,1,0,.893V25.651Zm-3.216.794a0.485,0.485,0,0,0,.1.3A0.485,0.485,0,0,0,68.6,26.444Zm3.118,0.1a0.512,0.512,0,0,1,.1.3h-0.1v-0.3Zm-2.339,1.885a0.349,0.349,0,0,0,.195.1A0.349,0.349,0,0,0,69.379,28.429Zm0,0.3a0.281,0.281,0,0,0,.39,0h-0.39Z" transform="translate(0 0.5)"/>
</svg>
