<svg xmlns="http://www.w3.org/2000/svg" width="80" height="40" viewBox="0 0 80 40">
  <defs>
    <style>
      .cls-1 {
        fill: #fff;
        fill-rule: evenodd;
      }
    </style>
  </defs>
  <path id="Color_Fill_1" data-name="Color Fill 1" class="cls-1" d="M48.039,11.08c-0.067.421-.228,0.767-0.291,1.251a1.266,1.266,0,0,1,.872.481v-0.1a0.347,0.347,0,0,0,.1-0.193c-0.239-.125-0.066.041-0.194-0.192h0.1v-0.1c2.128,0.819,6.553.578,10.557,0.577H80V13.1H52.4a2.356,2.356,0,0,1-1.453.192c-0.918-.187-1.765.573-2.518,0.193v0.289c0.314,0.122.255,0.085,0.291,0.481-0.673.416-.008,0.438-0.194,0.77H48.232a4.063,4.063,0,0,0-.1,1.059l0.969-.1c0.061-.109.257-0.21,0.291-0.289a1.5,1.5,0,0,1,0-.577v0.1a0.618,0.618,0,0,1,.291.577,7.811,7.811,0,0,0,2.615-.289v0.962h0.1a1.754,1.754,0,0,1,1.162-.674v0.1a2.179,2.179,0,0,0-.484.577H55.69c0.661,0.488,1.789.375,2.615,0.674,1.4,0.507,1.906,1.033,3.583,1.059,0.326,1.29,1.323,1.407,1.743,2.117a17.646,17.646,0,0,1,3,.385,3.185,3.185,0,0,0,.29.289l1.065-.1,0.1-.577a1.062,1.062,0,0,0,.291-0.193,0.332,0.332,0,0,1,.194.1c0.41,0.135.408,0.319,0.387,0.866-0.115.232-.088,0.211,0.1,0.385l-0.1-.289h0.194a1.121,1.121,0,0,0,.291.192v0.1c-0.062.1-.21,0.02-0.1,0.1,0.175,0.361.692,0.9,0.484,1.347a0.987,0.987,0,0,1-.581.866c-1.1.99-4.884,0.959-6.683,1.347-0.779.168-1.516-.018-2.131,0.192v0.192a1.628,1.628,0,0,1,.581.481H60.823a2.418,2.418,0,0,0-1.646-.674,1.5,1.5,0,0,0-.1.481,0.73,0.73,0,0,1,0,.578h0.581v0.192h-0.1c-0.1.1,0.1,0.1,0.1,0.1a6.427,6.427,0,0,0,1.259.1,11.457,11.457,0,0,0,3.2,0v0.1h0.1v0.193H63.729c-0.442.266-1.189-.073-1.937,0.1-0.374.085-.882,0.426-1.162,0.481a0.293,0.293,0,0,1-.291-0.1h0.194a0.35,0.35,0,0,1,.194-0.1v-0.1a4.069,4.069,0,0,0-1.259.192,2.565,2.565,0,0,1,.872.192H60.145a1.115,1.115,0,0,1-.968.289,0.333,0.333,0,0,0,.194-0.1H59.08v0.1h-0.1c0.072,0.084.122,0.109,0.194,0.192H58.208a5.53,5.53,0,0,1-1.55.193l-0.1-.289h0.1a2.219,2.219,0,0,0,1.937-.192H57.724a5.754,5.754,0,0,1-.872.192l-0.1-.962,0.291-.1a0.5,0.5,0,0,1,.291-0.1,5.953,5.953,0,0,1,.194-1.347H56.852a0.656,0.656,0,0,0-.387-0.1,21.471,21.471,0,0,0-1.453,2.021h-0.1V27.343L55.4,26.67H55.3l-0.969,1.059h0.387a0.59,0.59,0,0,1,.194-0.192v0.192a2.745,2.745,0,0,0-1.065,1.155,1.8,1.8,0,0,1,.872.77H54.528a1.905,1.905,0,0,0-.968-0.577c0.04,0.922-.114,1.516-0.775,1.732a1.8,1.8,0,0,1-1.55,0,4.878,4.878,0,0,0-.581-0.77,4.037,4.037,0,0,1,.194-1.444,4.133,4.133,0,0,1,.969-0.577c0.686-.182,1.006.516,1.356-0.1-0.286.035-.2,0.193-0.387-0.1a1.407,1.407,0,0,0,.678-0.1,17.267,17.267,0,0,1,.775-2.021H53.269c-0.7.421-3.224,0.066-4.261,0.289-1.4.3-3.073-.029-4.552,0.289A41.753,41.753,0,0,1,37,26.766a6.288,6.288,0,0,0-.1,1.732c-0.639.037-2.047,0.388-2.518,0.1l1.647-.1-0.291-1.636H35.254c-0.307.736-1.147,0.393-2.034,0.577-2.873.6-5.005-.278-7.651-0.385v0.962H24.988l-0.1-.962-4.165.1v0.481H20.436V27.151a8.158,8.158,0,0,0-3.1.481v-0.1a1.887,1.887,0,0,0,.194-0.385H16.949a5.316,5.316,0,0,1-2.034.1,1.744,1.744,0,0,1-.1.866,1.485,1.485,0,0,0-.1-0.77,3.232,3.232,0,0,0-1.356-.1,4.319,4.319,0,0,1-1.647.1l-3.487.1c-0.663,0-1.646.1-1.646,0.1-0.084-.071-0.109-0.121-0.194-0.192a3.855,3.855,0,0,1-1.646.866V28.5H4.939a0.842,0.842,0,0,0,.484.1L6.3,27.536h0.1v0.1h0.1a13.192,13.192,0,0,1-1.743,2.6,1.122,1.122,0,0,1-.969-0.1,2.363,2.363,0,0,1-.194-0.866,0.347,0.347,0,0,0,.1-0.193,1.6,1.6,0,0,0,.678-0.481A1.464,1.464,0,0,0,3.971,28.4a0.528,0.528,0,0,1-.387.289v-0.1a1.384,1.384,0,0,0,.387-0.866,0.867,0.867,0,0,1,.581.1c0.345-.953,1.6-1.185,1.937-2.117A0.859,0.859,0,0,1,6.2,25.418H6.392c0.168,0.127.156,0.166,0.291,0.1,0.1-.131.2-0.356,0.291-0.481a1.062,1.062,0,0,1-.291-0.192,0.333,0.333,0,0,0,.194-0.1A0.985,0.985,0,0,0,6,25.226a0.59,0.59,0,0,1,.194.192H6c-0.855-.924-2.284.324-3.2-0.192H3c0.838-.628,2.657-0.689,3.39-1.347C5.13,23,3.188,19.494,2.518,17.912a19.468,19.468,0,0,0-.969-2.694C1.128,14.705.2,14.936,0,14.159a2.607,2.607,0,0,0,.484-0.77c0.567,0.18,1.058.676,1.55,0.866l2.421-.1C4.44,13.243,3.917,10.19,4.262,9.636l0.291,4.523,0.581,0.1V14.063a14.551,14.551,0,0,1-.387-3.272,3.6,3.6,0,0,1,1.065-.1,0.274,0.274,0,0,1,.1-0.1c0.2,1.639.539,3.527,0,4.812,0.976,0.022,1.074.482,1.55,0.962v1.155a12.089,12.089,0,0,1,3,1.636c0.449,0.273.933,0.165,1.065,0.77a2.607,2.607,0,0,0-.484.77L8.426,19.356v0.1A7.813,7.813,0,0,1,9.3,20.9a18.626,18.626,0,0,0,2.131,2.887,18.723,18.723,0,0,0,4.165-.481l3.971-.385c1.416-.323,3.018-0.227,4.552-0.577a21.569,21.569,0,0,1,3.777-.481V21.377l1.259-.1v0.1h0.1v0.289a9.012,9.012,0,0,0,3.777-1.732l0.291,0.1v-0.1s0-.829,0-1.251c1.359-.145,2.264-0.457,3.584-0.481V17.623c0.342,0.069.24,0.118,0.581,0.192a1.7,1.7,0,0,1,.194-0.385,1.289,1.289,0,0,0,.194.385,11.635,11.635,0,0,1,2.518-.77,0.506,0.506,0,0,0,.387.192,5.475,5.475,0,0,0,.775-0.192,7.692,7.692,0,0,1,1.743-.77v-0.77a2.816,2.816,0,0,1,.872-0.1v0.77c0.468,0.034,1.548.32,1.84-.193,0.45-.64-0.156-1.446-0.291-2.117A0.662,0.662,0,0,0,46,13.389a0.35,0.35,0,0,0-.194-0.1c0.006,0.28.093,0.134,0,.289a0.842,0.842,0,0,1-.484.1c-0.656-.553-1.678-0.094-2.518-0.289A30.568,30.568,0,0,0,36.9,13.1H14.431V12.812H38.354c1.576,0,5.608-.247,5.714-0.193,0.571,0.292,1.616-.487,1.743-0.289a1.7,1.7,0,0,0,.387.289,0.494,0.494,0,0,1,.484-0.289l-0.194-1.155c0.314-.08.148,0.047,0.291-0.192H46V10.791H46.3V10.406a0.47,0.47,0,0,0,.291-0.1,6.266,6.266,0,0,1-2.034-.289,1.738,1.738,0,0,0-.291-0.385,1.183,1.183,0,0,1,.1-0.962,0.521,0.521,0,0,1,.291-0.385c0.642-.507,5.052-0.258,5.424.289a1.268,1.268,0,0,1,.194.866,1.538,1.538,0,0,1-.678.674,7.862,7.862,0,0,1-1.84.192v0.1a0.543,0.543,0,0,1,.581.289H48.136c-0.083.062-.3,0.129-0.387,0.192a0.965,0.965,0,0,1,.581.192H48.039Zm-2.228,1.444a0.464,0.464,0,0,0,.1.289A0.463,0.463,0,0,0,45.811,12.523Zm-3.777.385a0.284,0.284,0,0,0,.387,0H42.034Zm9.976,0a0.284,0.284,0,0,0,.387,0H52.01Zm-6.2.193a0.35,0.35,0,0,0,.194.1A0.35,0.35,0,0,0,45.811,13.1Zm2.712,0a0.35,0.35,0,0,0,.194.1A0.35,0.35,0,0,0,48.523,13.1Zm-2.325.289a0.526,0.526,0,0,0,0,.385h0.1A0.619,0.619,0,0,0,46.2,13.389Zm1.84,0.481V13.485h-0.1v0.1a0.811,0.811,0,0,1-.291.193v0.1h0.387Zm0.194-.385a0.464,0.464,0,0,0,.1.289V13.485h-0.1Zm-1.743.1c0.024,0.308-.1.149,0.291,0.289A0.527,0.527,0,0,0,46.489,13.582Zm-0.291.577a1,1,0,0,0,.387.577,0.618,0.618,0,0,0,.194-0.481A1.784,1.784,0,0,0,46.2,14.159Zm1.55,0V14.64h0.1v0.1h0.194a1.062,1.062,0,0,1,.291-0.577H47.748Zm-1.646.385v0.192h0.1V14.544H46.1Zm2.131,0v0.192h0.1V14.544h-0.1Zm-1.646.77a1.1,1.1,0,0,0,.194.77A0.7,0.7,0,0,0,46.586,15.314Zm1.162,0a1.7,1.7,0,0,0,0,.77h0.194v-0.77H47.748Zm-10.557,2.6V18.1h0.1v-0.1h0.1A0.35,0.35,0,0,0,37.191,17.912Zm29.734,6.159,1.162,0.1v-0.1c-1.307-.541-0.573-0.926-0.969-1.732A10.324,10.324,0,0,0,66.925,24.071Zm-12.2,1.54a16.816,16.816,0,0,0-.775,1.636h0.1a4.945,4.945,0,0,1,1.55-1.54v-0.1H54.722Zm4.068,0L58.6,26h0.194V25.9C58.875,25.734,58.875,25.777,58.789,25.611Zm-1.162.192V26h0.1V25.8h-0.1ZM6.877,26.958a2.052,2.052,0,0,0-.194-0.866H6.489a3.868,3.868,0,0,1-1.646,1.444v0.1H5.133A4.331,4.331,0,0,1,6.877,26.958ZM58.4,26.092a1.406,1.406,0,0,1-.194.77,1.076,1.076,0,0,1,.678.193v-0.1a1.271,1.271,0,0,1,0-.866H58.4Zm-0.872.192a0.619,0.619,0,0,0,.1.385A0.619,0.619,0,0,0,57.53,26.285Zm1.937,0.577a0.35,0.35,0,0,1-.194.1v0.1h0.291c0.075-.066.216-0.126,0.291-0.193H59.467Zm0.872,0c-0.075.066-.216,0.126-0.291,0.193h0.291c0.1-.067.387-0.124,0.484-0.193H60.339Zm-0.775.866c0.007,0.215-.021.068,0.194,0.1v-0.1H59.564Zm-3,.1h0.194a0.589,0.589,0,0,1-.194.192v0.1h-0.1Zm2.131,0.1v0.192h0.1v-0.1h0.1A0.35,0.35,0,0,0,58.693,27.921Zm-54.044.77v0.192a0.86,0.86,0,0,1,.291.289H5.133v-0.1Zm0.387,0.577V29.46h0.1V29.268h-0.1Z" transform="translate(0 0.5)"/>
</svg>
