<svg xmlns="http://www.w3.org/2000/svg" width="40" height="40" viewBox="0 0 40 40">
  <defs>
    <style>
      .cls-1 {
        fill: #fff;
        fill-rule: evenodd;
      }
    </style>
  </defs>
  <path id="Color_Fill_1" data-name="Color Fill 1" class="cls-1" d="M21.252,14.568a4.3,4.3,0,0,1,.967.121l0.061,0.182a5.161,5.161,0,0,1,.06,2.428c1.064,0.542,2.3,2.247,3.5,2.489A1.206,1.206,0,0,1,26.025,19a4.318,4.318,0,0,0-.06-1.275c0.028-.17.189-0.349,0.242-0.546h0.121v0.061a12.88,12.88,0,0,1,.06,2.974L27.233,20.7a0.97,0.97,0,0,1,.121-0.364,3.27,3.27,0,0,0,1.329.91V21.184a1.3,1.3,0,0,1-.06-0.607h0.242a2.322,2.322,0,0,1,.181-0.85V18.392c0.036-.131.138-0.263,0.181-0.425h0.181c0.082,1.207.06,2.64,0.06,3.945a2.937,2.937,0,0,1,.786.546c0.768,0.52,1.5,1.047,2.235,1.578a1.2,1.2,0,0,1,.785,1.032,0.291,0.291,0,0,1,.181.061c0.515,0.671.547,2.4,0.544,3.46a5.588,5.588,0,0,1-1.208-.364c-0.965-.318-1.929-0.547-2.84-0.85a77.3,77.3,0,0,0-7.673-2.064v0.425a6.362,6.362,0,0,0-.121,1.517,13.013,13.013,0,0,1-.423,2.124c-0.151.337,0.147,0.5-.06,0.668a1.458,1.458,0,0,1-.665.061l-0.3,3.338a2.639,2.639,0,0,1,1.148.607c1.118,0.692,2.29,1.268,3.383,1.942a2.58,2.58,0,0,1,1.148.789,4.1,4.1,0,0,1-.181,2.246H26.025a7.437,7.437,0,0,0-1.752-.486c-0.808-.266-1.675-0.445-2.538-0.728a6.664,6.664,0,0,0-1.51-.425,3.737,3.737,0,0,1-.3,1.517,2.416,2.416,0,0,1-.3.243c-0.171.3,0.159,0.666-.121,0.85a4.31,4.31,0,0,0-.483-1.517,5.036,5.036,0,0,0-.242-1.153,6.269,6.269,0,0,1-1.692.486c-0.808.266-1.675,0.445-2.538,0.728a7.845,7.845,0,0,1-1.692.486V38.907a4.082,4.082,0,0,1-.181-1.942,1.837,1.837,0,0,1,1.148-.971c0.98-.609,2.037-1.216,3.021-1.821,0.417-.257,1.46-0.535,1.51-1.093a10.263,10.263,0,0,1-.242-2.913H18.05V30.106a1.262,1.262,0,0,1-.785-0.121,2.115,2.115,0,0,0-.181-1.335,18.935,18.935,0,0,1-.3-3.338H16.66a4.43,4.43,0,0,1-1.148.243c-0.775.222-1.588,0.349-2.356,0.607-1.71.574-3.494,0.99-5.256,1.578a13.183,13.183,0,0,1-2.84.85,11.8,11.8,0,0,1,.544-3.52H5.785V24.7a5.783,5.783,0,0,0,.423-0.486c0.73-.577,1.548-1.111,2.3-1.639a7.534,7.534,0,0,0,1.088-.668V19.12a2.952,2.952,0,0,0,.06-1.153H9.833v0.121c0.345,0.386-.02,1.055.181,1.639a2.084,2.084,0,0,1,.181.789,0.292,0.292,0,0,1,.181.061c0.085,0.142.033,0.527,0.121,0.668a7.6,7.6,0,0,1,1.269-.85,0.615,0.615,0,0,0,.181.3,6.823,6.823,0,0,0,.725-0.486V19.606a9.83,9.83,0,0,1,.06-2.428,0.207,0.207,0,0,1,.121.061,6.857,6.857,0,0,1,.362,2.549c0.92-.155,1.979-1.372,2.658-1.882a1.48,1.48,0,0,0,.846-0.85,5.825,5.825,0,0,1,.06-2.307,2.609,2.609,0,0,1,1.027-.182,2.37,2.37,0,0,1,.06-0.971c0.025,0.217-.029.153,0.121,0.243V10.683a11.175,11.175,0,0,0,.121-2.064c0.169-.778.058-1.676,0.242-2.489l0.363-2.124H18.594a0.162,0.162,0,0,0-.121.061V3.885a0.864,0.864,0,0,1,.3.061,12.1,12.1,0,0,1,.6-2.61A5.825,5.825,0,0,1,19.56,0a9.971,9.971,0,0,0,.6,3.1c0.269,0.945.272,2.019,0.6,2.853l-0.06.364a7.922,7.922,0,0,0,.121,1.517,30.472,30.472,0,0,1,.242,6.009h0.121a0.393,0.393,0,0,1,.06-0.243v0.971Zm-0.483-8.8a0.31,0.31,0,0,1,.061.182H20.769V5.766Zm-2.9,8.316v0.486H17.99V14.082H17.869Zm3.2,0v0.486h0.121V14.082H21.071ZM18.352,33.566v0.121h0.06A0.208,0.208,0,0,0,18.352,33.566Zm2.3,0.061v0.121h0.06A0.208,0.208,0,0,0,20.648,33.627Zm-2.054,1.517a0.293,0.293,0,0,0,.06.182A0.3,0.3,0,0,0,18.594,35.144ZM20.406,35.2a0.394,0.394,0,0,0,.061.243A0.393,0.393,0,0,0,20.406,35.2Zm-1.752.789a0.509,0.509,0,0,0,.06.3A0.511,0.511,0,0,0,18.654,35.994Zm1.692,0.121a0.511,0.511,0,0,0,.06.3A0.509,0.509,0,0,0,20.346,36.115Zm-1.631.607a0.643,0.643,0,0,0,.06.364A0.644,0.644,0,0,0,18.715,36.722Zm1.571,0.121a0.511,0.511,0,0,0,.06.3A0.509,0.509,0,0,0,20.285,36.844Z" transform="translate(0.469)"/>
</svg>
