<svg xmlns="http://www.w3.org/2000/svg" width="40" height="39.938" viewBox="0 0 40 39.938">
  <defs>
    <style>
      .cls-1 {
        fill: #fff;
        fill-rule: evenodd;
      }
    </style>
  </defs>
  <path id="Color_Fill_1" data-name="Color Fill 1" class="cls-1" d="M33,28.756a10.808,10.808,0,0,1-2.69-.711c-1.187-.393-2.336-0.45-3.522-0.84a26,26,0,0,0-4.355-1.163,20.319,20.319,0,0,1-.256,4.2l-0.064,1.163a7.326,7.326,0,0,0-.256,2.262,5.515,5.515,0,0,1,.256-1.68h0.064v0.065a6.64,6.64,0,0,1,.9.969c0.909,0.917,1.79,1.851,2.69,2.779a7.116,7.116,0,0,1,1.665,1.745A7.321,7.321,0,0,1,27.621,40H27.493a9.315,9.315,0,0,0-1.857-.775c-0.955-.421-1.989-0.936-2.946-1.357-0.514-.226-1.452-0.243-1.473-0.969a3.022,3.022,0,0,0,.192-0.84H21.345v0.129a1.64,1.64,0,0,0-.192.84H20.9c-0.088.2,0.009,0.188-.384,0.194a0.55,0.55,0,0,1-.32.065,8.042,8.042,0,0,1-.128,1.616H19.936V38.772a3.336,3.336,0,0,1-.128-1.486l-0.7-.065V37.028H18.847a4.187,4.187,0,0,0-.192-0.969H18.591v0.129a2.458,2.458,0,0,1,.192,1.1c-1.516.587-2.975,1.214-4.483,1.874a12.691,12.691,0,0,1-1.921.84V38.837c0.257-.424.064-1.164,0.32-1.551l1.153-1.1c0.747-.754,1.43-1.572,2.177-2.326a13.589,13.589,0,0,0,1.793-1.874h0.064v0.065c0.255,0.424.051,1.207,0.32,1.616a14.486,14.486,0,0,0-.384-2.779L17.759,29.6a18.571,18.571,0,0,1-.192-3.554,16.587,16.587,0,0,0-3.138.84c-1.676.524-3.323,0.679-5,1.228A11.329,11.329,0,0,1,7,28.756V24.3c2.483-1.383,4.853-3.067,7.236-4.588,0.548-.349,2.469-1.185,2.5-1.874a6.628,6.628,0,0,1,0-2.714,2.972,2.972,0,0,1,1.6-.065V10.986a3.383,3.383,0,0,0,0-1.034H18.207a0.455,0.455,0,0,1-.256.129V10.016h0.064a1.02,1.02,0,0,0,.256-0.323,0.751,0.751,0,0,1-.064-0.775h0.064a2.8,2.8,0,0,0,0,.517L18.4,9.5V7.237c0.295-.507-0.01-1.517.128-2.132a29.094,29.094,0,0,1,.832-3.683c0.1-.268.392-1.432,0.7-1.357a5.678,5.678,0,0,1,.7,1.809c0.256,0.8.43,1.768,0.64,2.649,0.108,0.452.038,0.961,0.128,1.357,0.149,0.653-.163,1.782.128,2.262a5.784,5.784,0,0,1,.192-1.292c0.13-.588-0.038-1.362.064-1.874h0.128V5.105a3.331,3.331,0,0,1,0,1.486,11.011,11.011,0,0,1-.32,2,0.649,0.649,0,0,0,.128.452l-0.064.84a0.213,0.213,0,0,0-.192,0,10.326,10.326,0,0,1,0,1.228,22.853,22.853,0,0,1,.064,3.942h0.064a2.48,2.48,0,0,1,1.537.065,8.821,8.821,0,0,0,.192.9,17.53,17.53,0,0,1-.192,2.2,10.1,10.1,0,0,1,2.241,1.422c1.691,1.081,3.406,2.074,5.059,3.166A25.529,25.529,0,0,1,33,24.3v4.459ZM21.665,8.982A2.218,2.218,0,0,1,21.6,9.5h0.064V9.435A0.438,0.438,0,0,0,21.665,8.982ZM18.271,34.249v0.129h0.064A0.222,0.222,0,0,0,18.271,34.249Zm3.394,0v0.129h0.064V34.249H21.665Zm-3.33.258a0.42,0.42,0,0,0,.064.258A0.42,0.42,0,0,0,18.335,34.507Zm3.266,0a0.42,0.42,0,0,0,.064.258A0.42,0.42,0,0,0,21.6,34.507Zm-3.138.969a2.1,2.1,0,0,0,.128.388A0.373,0.373,0,0,0,18.463,35.477Zm2.946,0.065a0.545,0.545,0,0,0,.064.323A0.545,0.545,0,0,0,21.409,35.541Z" transform="translate(0 -0.063)"/>
</svg>
