<svg xmlns="http://www.w3.org/2000/svg" style="isolation:isolate" width="100" height="100"><defs><clipPath id="a"><path d="M0 0H100V100H0z"/></clipPath></defs><g clip-path="url(#a)"><path d="M 68.81 93 L 67.246 89.416 C 82.907 82.566 93.026 67.094 93.026 50 C 93.026 32.906 82.907 17.434 67.246 10.584 L 68.81 7 C 85.895 14.473 96.935 31.352 96.935 50 C 96.935 68.648 85.895 85.527 68.81 93 L 68.81 93 Z M 86.254 50 C 86.254 64.405 77.727 77.443 64.53 83.217 L 62.915 79.529 C 74.645 74.397 82.225 62.807 82.225 50.003 C 82.225 37.199 74.645 25.609 62.915 20.477 L 64.529 16.786 C 77.725 22.559 86.252 35.596 86.254 50 L 86.254 50 Z M 74.442 50 C 74.44 59.711 68.69 68.5 59.793 72.391 L 58.228 68.809 C 65.703 65.542 70.535 58.159 70.535 50.002 C 70.535 41.845 65.703 34.461 58.228 31.195 L 59.793 27.613 C 68.689 31.503 74.439 40.29 74.442 50 Z M 49.997 57.822 C 45.677 57.822 42.175 54.32 42.175 50 C 42.175 45.68 45.677 42.178 49.997 42.178 C 54.318 42.178 57.82 45.68 57.82 50 C 57.82 54.32 54.318 57.822 49.997 57.822 Z M 41.769 68.807 L 40.205 72.389 C 31.306 68.501 25.555 59.712 25.555 50 C 25.555 40.289 31.306 31.5 40.205 27.612 L 41.769 31.194 C 34.295 34.461 29.465 41.844 29.465 50 C 29.465 58.157 34.295 65.54 41.769 68.807 Z M 17.77 50 C 17.769 62.805 25.349 74.396 37.08 79.529 L 35.466 83.22 C 22.269 77.446 13.741 64.408 13.741 50.003 C 13.741 35.598 22.269 22.559 35.466 16.786 L 37.08 20.471 C 25.349 25.604 17.769 37.195 17.77 50 Z M 6.975 50 C 6.975 67.093 17.093 82.565 32.753 89.416 L 31.189 93 C 14.104 85.527 3.065 68.648 3.065 50 C 3.065 31.353 14.104 14.474 31.189 7.001 L 32.753 10.585 C 17.094 17.436 6.975 32.907 6.975 50 Z" fill="none" vector-effect="non-scaling-stroke" stroke-width="3.911" stroke="#000" stroke-opacity="0.5" stroke-linejoin="round" stroke-linecap="round" stroke-miterlimit="3"/><path d="M 68.81 93 L 67.246 89.416 C 82.907 82.566 93.026 67.094 93.026 50 C 93.026 32.906 82.907 17.434 67.246 10.584 L 68.81 7 C 85.895 14.473 96.935 31.352 96.935 50 C 96.935 68.648 85.895 85.527 68.81 93 L 68.81 93 Z M 86.254 50 C 86.254 64.405 77.727 77.443 64.53 83.217 L 62.915 79.529 C 74.645 74.397 82.225 62.807 82.225 50.003 C 82.225 37.199 74.645 25.609 62.915 20.477 L 64.529 16.786 C 77.725 22.559 86.252 35.596 86.254 50 L 86.254 50 Z M 74.442 50 C 74.44 59.711 68.69 68.5 59.793 72.391 L 58.228 68.809 C 65.703 65.542 70.535 58.159 70.535 50.002 C 70.535 41.845 65.703 34.461 58.228 31.195 L 59.793 27.613 C 68.689 31.503 74.439 40.29 74.442 50 Z M 49.997 57.822 C 45.677 57.822 42.175 54.32 42.175 50 C 42.175 45.68 45.677 42.178 49.997 42.178 C 54.318 42.178 57.82 45.68 57.82 50 C 57.82 54.32 54.318 57.822 49.997 57.822 Z M 41.769 68.807 L 40.205 72.389 C 31.306 68.501 25.555 59.712 25.555 50 C 25.555 40.289 31.306 31.5 40.205 27.612 L 41.769 31.194 C 34.295 34.461 29.465 41.843 29.465 50 C 29.465 58.157 34.295 65.54 41.769 68.807 Z M 17.77 50 C 17.769 62.805 25.349 74.396 37.08 79.529 L 35.466 83.22 C 22.269 77.446 13.741 64.408 13.741 50.003 C 13.741 35.598 22.269 22.559 35.466 16.786 L 37.08 20.471 C 25.349 25.604 17.769 37.195 17.77 50 Z M 6.975 50 C 6.975 67.093 17.093 82.565 32.753 89.416 L 31.189 93 C 14.104 85.527 3.065 68.648 3.065 50 C 3.065 31.353 14.104 14.474 31.189 7.001 L 32.753 10.585 C 17.094 17.436 6.975 32.907 6.975 50 Z" fill-rule="evenodd" fill="#FFF"/></g></svg>