<svg width="56" height="56" viewBox="0 0 56 56" fill="none" xmlns="http://www.w3.org/2000/svg">
<path d="M6.43066 36C8.75587 42.2667 13.7333 47.2441 20 49.5693V52.7432C12.0758 50.183 5.81595 43.9243 3.25586 36H6.43066ZM52.7441 36C50.184 43.9243 43.9242 50.183 36 52.7432V49.5693C42.2667 47.2441 47.2441 42.2667 49.5693 36H52.7441ZM20 6.42969C13.7331 8.75484 8.75591 13.7332 6.43066 20H3.25586C5.81598 12.0756 12.0756 5.81598 20 3.25586V6.42969ZM36 3.25586C43.9244 5.81598 50.184 12.0756 52.7441 20H49.5693C47.2441 13.7332 42.2669 8.75484 36 6.42969V3.25586Z" fill="#FFD900"/>
<path d="M6.43066 36C8.75587 42.2667 13.7333 47.2441 20 49.5693V52.7432C12.0758 50.183 5.81595 43.9243 3.25586 36H6.43066ZM52.7441 36C50.184 43.9243 43.9242 50.183 36 52.7432V49.5693C42.2667 47.2441 47.2441 42.2667 49.5693 36H52.7441ZM20 6.42969C13.7331 8.75484 8.75591 13.7332 6.43066 20H3.25586C5.81598 12.0756 12.0756 5.81598 20 3.25586V6.42969ZM36 3.25586C43.9244 5.81598 50.184 12.0756 52.7441 20H49.5693C47.2441 13.7332 42.2669 8.75484 36 6.42969V3.25586Z" fill="white"/>
<path d="M20 49.5694C13.7333 47.2442 8.75589 42.2668 6.43069 36H3.25589C5.81598 43.9243 12.0758 50.183 20 52.7432V49.5694ZM52.7442 34C53.3838 34 53.985 34.3061 54.3614 34.8233C54.7376 35.3404 54.8441 36.0067 54.6475 36.6153C51.8898 45.1509 45.1506 51.8888 36.6153 54.6465C36.0067 54.8431 35.3404 54.7367 34.8233 54.3604C34.3061 53.984 34 53.3828 34 52.7432V49.5694C34 48.7331 34.5207 47.9853 35.3047 47.6944C41.0251 45.5718 45.5718 41.0251 47.6944 35.3047L47.7539 35.1602C48.0789 34.4571 48.7855 34 49.5694 34H52.7442ZM19.3848 1.35257C19.9934 1.15595 20.6597 1.26241 21.1768 1.6387C21.6939 2.01509 22 2.61627 22 3.25589V6.42971C22 7.26596 21.4794 8.01382 20.6953 8.30471C14.975 10.4272 10.4284 14.9747 8.30569 20.6953C8.01479 21.4793 7.26693 22 6.43069 22H3.25589C2.61627 22 2.01509 21.6939 1.6387 21.1768C1.26241 20.6597 1.15595 19.9934 1.35257 19.3848C4.11026 10.8492 10.8492 4.11026 19.3848 1.35257ZM34.8233 1.6387C35.3404 1.26241 36.0067 1.15595 36.6153 1.35257C45.1508 4.11026 51.8898 10.8492 54.6475 19.3848C54.8441 19.9934 54.7376 20.6597 54.3614 21.1768C53.985 21.6939 53.3838 22 52.7442 22H49.5694C48.7331 22 47.9853 21.4793 47.6944 20.6953C45.5717 14.9747 41.025 10.4272 35.3047 8.30471C34.5207 8.01382 34 7.26596 34 6.42971V3.25589C34 2.61627 34.3061 2.01509 34.8233 1.6387ZM20 3.25589C12.0757 5.81601 5.81601 12.0757 3.25589 20H6.43069C8.75593 13.7332 13.7331 8.75487 20 6.42971V3.25589ZM36 6.42971C42.2669 8.75487 47.2441 13.7332 49.5694 20H52.7442C50.184 12.0757 43.9244 5.81601 36 3.25589V6.42971ZM22 52.7432C22 53.3828 21.6939 53.984 21.1768 54.3604C20.6597 54.7367 19.9934 54.8431 19.3848 54.6465C10.8495 51.8888 4.11028 45.1509 1.35257 36.6153C1.15595 36.0067 1.26241 35.3404 1.6387 34.8233C2.01509 34.3061 2.61627 34 3.25589 34H6.43069C7.26693 34 8.01479 34.5207 8.30569 35.3047C10.4283 41.0251 14.975 45.5718 20.6953 47.6944C21.4793 47.9853 22 48.7331 22 49.5694V52.7432ZM36 52.7432C43.9243 50.183 50.1841 43.9243 52.7442 36H49.5694C47.2442 42.2668 42.2668 47.2442 36 49.5694V52.7432Z" fill="black"/>
</svg>
