<svg xmlns="http://www.w3.org/2000/svg" width="40" height="40" viewBox="0 0 40 40">
  <defs>
    <style>
      .cls-1 {
        fill: #fff;
        fill-rule: evenodd;
      }
    </style>
  </defs>
  <path id="Color_Fill_1" data-name="Color Fill 1" class="cls-1" d="M20.843,7.331a3.575,3.575,0,0,0,.184.737c0.081,0.292.048,0.634,0.11,0.921v2.541c0.032,0.126.111,0.236,0.147,0.368a0.851,0.851,0,0,1,.258.184h1.62a0.482,0.482,0,0,0,.295.147,1.975,1.975,0,0,1,1.068-.184l0.037-.11a4.312,4.312,0,0,0,.074-1.068c0.1-.453.184-0.871,0.295-1.252a3.5,3.5,0,0,0,.147-0.7,0.188,0.188,0,0,0-.11-0.037,4.9,4.9,0,0,1-2.21-.11V8.693a5.5,5.5,0,0,0,1.031-.11,5.948,5.948,0,0,1,1.4.037,0.775,0.775,0,0,1,.589-0.7,1.407,1.407,0,0,0,.479.7,4.683,4.683,0,0,1,1.62.037,1.021,1.021,0,0,1,.7.147,11.356,11.356,0,0,1-1.363.147,3.95,3.95,0,0,0-1.031-.037,3.147,3.147,0,0,1,.221.81,8.7,8.7,0,0,1,.332,2.247c0.879,0.539,1.959.462,3.057,0.773,2.1,0.6,4.381.879,6.482,1.473,1.33,0.376,3.231.26,3.72,1.473a0.167,0.167,0,0,0-.111.074,0.187,0.187,0,0,0,.074.147,1.488,1.488,0,0,1-.074.405l0.111,0.074c0.025,0.046-.019.029-0.037,0.037-0.242.889-1.13,0.929-2.062,1.179-1.25.334-2.583,0.487-3.83,0.81-0.359.093-.622,0.024-0.957,0.111-2.106.542-4.359,0.761-6.482,1.289l-0.81.037c-1.289.292-2.343,0.008-3.278,0.7a5.122,5.122,0,0,0-1.51,2.431l-0.405,4.346c0.09,0.067.131,0.2,0.221,0.258a8.993,8.993,0,0,0,.994.479,30.106,30.106,0,0,1,3.2,1.694,1.407,1.407,0,0,1,.737,1.51c-0.31,1.307-1.627,1.435-2.873,1.8a2.753,2.753,0,0,1-1.62.184,1.947,1.947,0,0,1-.884-1.1H20.364v0.331c-0.226.044-.237,0.125-0.221,0.405a8.737,8.737,0,0,0-.11,1.547H19.959V33.958a2.183,2.183,0,0,1-.037-0.516c-0.069-.312-0.048-0.757-0.11-1.068a2.02,2.02,0,0,1,.074-0.331,0.922,0.922,0,0,1-.111-0.479h-0.11a1.859,1.859,0,0,1-.957,1.694,2.214,2.214,0,0,1-1.326-.111c-1.045-.306-2.406-0.447-2.946-1.252a1.686,1.686,0,0,1-.221-1.142,2.39,2.39,0,0,1,1.62-1.473c0.691-.359,1.4-0.743,2.1-1.1,0.4-.209,1.384-0.5,1.436-0.994a3.446,3.446,0,0,1-.074-0.847c-0.147-.651-0.03-1.416-0.184-2.1-0.088-.391-0.032-0.849-0.147-1.252a4.71,4.71,0,0,0-1.878-2.689c-0.744-.46-2.338-0.247-3.315-0.479l-0.663-.037c-2.022-.507-4.21-0.717-6.224-1.252-0.841-.223-1.7-0.257-2.5-0.479-0.821-.227-1.683-0.271-2.468-0.479a3.4,3.4,0,0,1-1.179-.331,2.652,2.652,0,0,1-.589-0.516A2.1,2.1,0,0,0,0,16.428c0.017-.027.107-0.1,0.11-0.11V16.243L0.034,16.17a3.15,3.15,0,0,1,.037-0.405A0.293,0.293,0,0,0,0,15.654a1.957,1.957,0,0,1,.626-0.737A4.04,4.04,0,0,1,1.544,14.7c0.7-.194,1.437-0.274,2.173-0.479,0.634-.177,1.317-0.254,1.989-0.442a5.35,5.35,0,0,1,.958-0.221A6.563,6.563,0,0,1,6.7,11.971v1.547a6.221,6.221,0,0,0,1.326-.295c0.818-.231,1.709-0.374,2.5-0.553a3.788,3.788,0,0,1,.663.074V12.671a0.248,0.248,0,0,0,.037-0.147c0.453-.015,1.869-0.207,2.026-0.552V11.713a4.289,4.289,0,0,0,.074-1.031c0.144-.645.3-1.184,0.442-1.8H13.625a4.95,4.95,0,0,1-2.21-.11V8.73h0.037a7.939,7.939,0,0,1,2.431-.11,0.941,0.941,0,0,1,.442-0.7V7.883h0.037V7.92c0.3,0.121.242,0.622,0.552,0.7a4.644,4.644,0,0,1,1.62.037,1.021,1.021,0,0,1,.7.147,10.776,10.776,0,0,1-1.326.147,4.223,4.223,0,0,0-1.031-.037,10.927,10.927,0,0,1,.479,1.952c0.085,0.389,0,.8.074,1.142l0.111,0.037c0.21,0.131.631-.071,0.884,0.037a0.47,0.47,0,0,0,.295.147c0.283-.4,1.3.078,1.731-0.184,0.439-.152.405-0.66,0.405-1.252q0.018-1.142.037-2.283a9.113,9.113,0,0,0,.258-1.179H19.37a2.349,2.349,0,0,1,.184-0.516,3.51,3.51,0,0,0,.332-0.295,2.863,2.863,0,0,0,.074-1.215h0.074v1.1a0.433,0.433,0,0,1,.074.184C20.565,6.735,20.41,7.311,20.843,7.331Zm-0.884,27.18h0.074v0.184H19.959V34.511Z"/>
</svg>
