<svg xmlns="http://www.w3.org/2000/svg" width="40" height="40" viewBox="0 0 40 40">
  <defs>
    <style>
      .cls-1 {
        fill: #fff;
        fill-rule: evenodd;
      }
    </style>
  </defs>
  <path id="Color_Fill_1" data-name="Color Fill 1" class="cls-1" d="M18.358,0h2.349V0.066h0.065a10.345,10.345,0,0,0,.392,1.587c0.215,0.785.22,1.632,0.392,2.38l0.392,4.033c0.166,0.764-.159,3.239.131,3.7a7.119,7.119,0,0,0,1.566,1.653c1.055,1.069,2.143,2.1,3.2,3.173a6.877,6.877,0,0,0,1.436,1.455V12.562h0.131v5.686a9.258,9.258,0,0,1,1.305,1.322l3.067,3.108A8.464,8.464,0,0,1,34.8,24.926a5.576,5.576,0,0,1-.2,3.041,1.364,1.364,0,0,1-.261.86,14.557,14.557,0,0,0-2.872-1.388c-0.607-.27-1.221-0.722-1.827-0.992-1.552-.69-3.03-1.411-4.5-2.182a17.052,17.052,0,0,0-2.284-1.124,1.257,1.257,0,0,0-.718.066c-0.691.432-.379,1.275-0.587,2.248-0.167.777-.012,1.659-0.2,2.512L20.9,32c1.119,0.731,1.889,1.972,2.937,2.777a4.024,4.024,0,0,1,1.5,1.587,3.945,3.945,0,0,1-.326,2.314H24.95a8.332,8.332,0,0,0-1.762-.727c-0.93-.408-1.913-0.842-2.872-1.256a8.9,8.9,0,0,1-.587,2.578,1.072,1.072,0,0,1-.261.727V39.934c-0.549-.763-0.33-2.446-0.849-3.24a8.33,8.33,0,0,1-1.762.727c-0.927.407-1.918,0.843-2.871,1.256V38.546a2.922,2.922,0,0,1-.326-2.182,4.006,4.006,0,0,1,1.436-1.521l0.718-.793a12.68,12.68,0,0,0,1.305-1.19A1.844,1.844,0,0,0,18.1,31.6a6.728,6.728,0,0,1-.2-1.719c-0.307-1.388-.152-3.073-0.457-4.5q-0.033-.727-0.065-1.454a2.552,2.552,0,0,0-.653-0.793c-1.289-.025-2.191.9-3.133,1.322-2.234,1-4.292,2.111-6.526,3.107a19.817,19.817,0,0,1-2.545,1.256C4.468,27.69,3.714,26.17,4.2,24.992a6.418,6.418,0,0,1,1.632-1.917A42.18,42.18,0,0,1,8.96,19.967a24.6,24.6,0,0,0,1.7-1.851c1.066-1.08,2.2-2.094,3.263-3.174l3.067-3.174a27.818,27.818,0,0,1,.326-5.884c0.206-.951.046-1.8,0.261-2.711l0.653-3.107A0.223,0.223,0,0,0,18.358,0Z" transform="translate(0.5)"/>
</svg>
