<?xml version="1.0" encoding="UTF-8"?>
<svg id="Layer_12" data-name="Layer 12" xmlns="http://www.w3.org/2000/svg" width="28" height="28" viewBox="0 0 28 28">
  <defs>
    <style>
      .cls-1 {
        fill: #fff;
        stroke-width: 0px;
      }
    </style>
  </defs>
  <path class="cls-1" d="m12.09,11.63c-.29.29-.59,1.21-.62,1.77-.01.19.02.3.08.34.73.5,3.91.64,4.84,0,.06-.04.09-.15.09-.31-.01-.51-.3-1.32-.62-1.8h-3.78Zm2.45-2.88l-.12,1.18s.75-.09,1.38.36c.93.68,1.51,1.99,1.51,3v.82l4.18.46v.39h-.85v.82h.85v.85h-2.51v-.85h.85v-.82h-2.51v.82c0,.49-.14.79-.35,1.06l1.08,2.14c.13.17.24.33.24.46,0,.29-.2.53-.48.53-.32,0-.55-.24-.55-.53,0-.14.07-.28.24-.46-.15-.24-.3-.47-.44-.69-.12-.19-.25-.38-.39-.57-.14-.19-.25-.35-.35-.47-.42.16-.91.19-1.47.19h-1.65c-.44,0-.81-.03-1.18-.1l-1.49,1.63c.15.15.26.29.26.46,0,.29-.24.53-.53.53-.32,0-.56-.24-.56-.53,0-.13.14-.32.21-.42,0,0,.04-.09.12-.26.26-.53.71-1.44.96-1.97-.19-.24-.31-.55-.31-1.01v-.82h-2.48v.82h.82v.85h-2.48v-.85h.82v-.82h-.82v-.39l4.15-.46v-.82c0-.99.6-2.33,1.53-3,.62-.45,1.39-.36,1.39-.36l-.14-1.03H4.07l.17-.56,9.14.29v-.19c0-.19.37-.41.6-.41s.59.21.59.41v.1h9.15l.19.56-9.39-.34Z"/>
</svg>