<?xml version="1.0" encoding="UTF-8"?>
<svg id="Layer_9" data-name="Layer 9" xmlns="http://www.w3.org/2000/svg" width="28" height="28" viewBox="0 0 28 28">
  <defs>
    <style>
      .cls-1 {
        fill: #fff;
        stroke-width: 0px;
      }
    </style>
  </defs>
  <path class="cls-1" d="m13.88,23.86l-.08-1.1-.56,1.02-3.03-.4c-.1-.43-.18-1-.11-1.32.02-.11.06-.17.12-.19l3.15-1.06-.7-5.06-8.93-1.36s-.09-.07-.14-.18c-.21-.53-.32-1.76-.16-2.42.05-.21.14-.32.26-.32h9.1s.23-2.02.23-2.02c0-.16.03-.28.07-.37.04-.09.09-.16.16-.2.07-.04.15-.07.24-.08.09-.01.19-.02.3-.02v-.17h-.05c-.42,0-.83.03-1.25.08-.42.06-.78.08-1.11.08-.11,0-.2-.01-.28-.06-.08-.04-.14-.09-.17-.14-.04-.05-.05-.09-.05-.13,0-.04.04-.06.11-.06h2.74s0-.08,0-.08c0-.03,0-.05.02-.08.02-.03.06-.05.11-.05h.03s0-.07,0-.09c0-.02.04-.03.08-.03.05,0,.08.01.08.03,0,.02.01.05.01.09h.05s.08.02.09.05c.02.03.03.05.03.08v.09c.41,0,.82-.04,1.24-.09.42-.06.78-.08,1.11-.08.11,0,.21.02.28.06.08.04.13.08.17.13.04.05.05.09.04.13-.01.04-.05.06-.11.06h-2.78s0,.17,0,.17c.11,0,.21.01.3.02.09.01.17.04.24.08.07.05.12.11.16.2.04.09.06.21.07.36l.22,2.03h9.1c.12,0,.21.11.26.32.16.67.04,1.88-.15,2.42-.04.12-.08.18-.13.18l-8.94,1.36-.69,5.07,3.14,1.05c.06.02.1.08.13.19.08.33-.01.91-.11,1.33l-3.04.39-.55-1.02-.08,1.1c0,.07-.05.1-.14.1-.03,0-.05-.01-.08-.03-.03-.01-.04-.04-.03-.07Z"/>
</svg>