<?xml version="1.0" encoding="UTF-8"?>
<svg id="Layer_12" data-name="Layer 12" xmlns="http://www.w3.org/2000/svg" width="28" height="28" viewBox="0 0 28 28">
  <defs>
    <style>
      .cls-1 {
        fill: #fff;
        fill-rule: evenodd;
        stroke-width: 0px;
      }
    </style>
  </defs>
  <path class="cls-1" d="m22.23,13.82v.95h5.5l-2.58,2.81H.98l-.71-1.43,1.57-.03v-.45c.04-.19.11-.34.19-.45l-1.29-.6.19-.45,1.48.69c.11-.07.18-.09.24-.11h1.79v1.37h.91v-.37h1.24v-2.84h1.82c.13.04.25.11.42.24l1.47-.69.23.45-1.41.64c.04.09.06.17.09.26v.95h2v-1.85h2.52v-4.57h-.85v-.33h.85v-1.59h.4v1.59h.78v.33h-.78v4.57h1.39v-2.13h-.31v-.88h1.74v.88h-.35v2.13h1.05v1.85h1.99v-1.85h1.78c.09.04.21.08.38.19l1.38-.64.19.45-1.22.58c.04.11.08.21.11.32Z"/>
</svg>