<?xml version="1.0" encoding="UTF-8"?>
<svg id="Layer_9" data-name="Layer 9" xmlns="http://www.w3.org/2000/svg" width="28" height="28" viewBox="0 0 28 28">
  <defs>
    <style>
      .cls-1 {
        fill: #fff;
        fill-rule: evenodd;
        stroke-width: 0px;
      }
    </style>
  </defs>
  <path class="cls-1" d="m8.52,14.66v2.43h17.67c-.73,2.29-2.34,2.91-3.79,3.22H2.95v.74h-1.14v-1.41l.78-1.15v-1.41h1.63v-2.43h4.3Zm7.06-.59h-5.08l-.16.49h-1.78v-1.15s1.24,0,1.24,0l-.7-1.27-.55-.05v-.37l.76.17,1.1,1.51,5.01-.78c.09-.43.32-.82.62-1.12.02-.04.03-.06.03-.06l-.84.15-1.07-1.21v-.61l.52-.23,1.11-.08.08-.29.29-.04-2.13-2.19.64.09,2.38,1.98,2.91-.42.44.63,3.64-.62.34-.39,1.43-.12.18,1.08-1.39.29-.52-.21-3.53.61-.16.77-2.04.38c.84.31,1.44,1.13,1.44,2.08,0,1.22-.99,2.22-2.22,2.22-.88,0-1.64-.52-2-1.26Z"/>
</svg>