<svg width="38" height="38" viewBox="0 0 38 38" fill="none" xmlns="http://www.w3.org/2000/svg">
<g clip-path="url(#clip0_576_4625)">
<path fill-rule="evenodd" clip-rule="evenodd" d="M15.392 20.7418C16.1385 20.6636 16.9125 20.6048 17.7143 20.5853L17.6864 19.4323H19.4745L19.5663 20.5853C27.0214 20.8002 32.5969 23.6926 34.1635 26.2625H37.4626L38.0062 27.2592H34.6058C35.5366 30.3958 30.8552 34.2458 20.7277 34.5878L20.8842 36.5323H18.1197L18.0738 34.5878C8.02 34.2458 2.79481 30.4545 3.3938 27.2592H0.00244141L0.435754 26.2625H3.73487C4.49052 24.7577 6.63732 23.1162 9.835 21.9828C10.2313 22.3443 10.6183 22.6861 10.9869 22.9988C8.45272 24.015 6.84961 25.4417 6.49943 26.7511C5.72536 29.6434 10.7291 32.956 19.3085 32.956C27.98 32.956 32.5233 29.6043 31.4543 26.7511C30.5512 24.3571 25.5194 21.6407 18.7001 21.6407C17.6588 21.6407 16.6728 21.709 15.7421 21.8165C15.6499 21.494 15.5302 21.1326 15.392 20.7418ZM18.8477 24.4354C22.0454 24.4354 24.1464 25.8424 24.3215 26.7511C24.4874 27.6012 22.9022 29.2722 19.1056 29.2722C15.4195 29.2722 13.5488 27.6598 13.6318 26.7511C13.7055 25.8814 15.5763 24.4354 18.8477 24.4354Z" fill="white"/>
<path fill-rule="evenodd" clip-rule="evenodd" d="M15.0036 5.76015L17.0129 4.31629C17.0129 4.31629 17.5572 3.76389 18.7885 5.24987C20.2454 7.00678 21.6984 8.90575 23.5638 12.2029C25.3663 15.3907 26.437 18.2492 25.9907 18.8395C25.9872 18.8531 25.9187 18.9023 25.9033 18.9023C25.2029 19.136 22.8338 17.2105 20.3888 14.4844C17.8574 11.6657 16.5225 9.68195 15.3221 7.74076C14.4162 6.27721 15.0036 5.76015 15.0036 5.76015Z" fill="white"/>
<path fill-rule="evenodd" clip-rule="evenodd" d="M23.3469 17.4094L14.2554 11.3416L22.2164 5.57216L25.3715 15.9384L23.3469 17.4094Z" fill="url(#paint0_linear_576_4625)"/>
<path fill-rule="evenodd" clip-rule="evenodd" d="M1.0194 5.39712L3.74246 3.44041C3.74246 3.44041 4.48008 2.69179 6.14872 4.7056C8.12312 7.08657 10.0921 9.66005 12.6202 14.1284C15.0629 18.4485 16.514 22.3223 15.9091 23.1223C15.9043 23.1407 15.8116 23.2074 15.7906 23.2074C14.8415 23.5242 11.6309 20.9146 8.31746 17.2202C4.88692 13.4004 3.07787 10.712 1.45101 8.08125C0.223416 6.09785 1.0194 5.39712 1.0194 5.39712Z" fill="white"/>
<path fill-rule="evenodd" clip-rule="evenodd" d="M12.322 21.153L0.0012207 12.9298L10.79 5.11112L15.0658 19.1595L12.322 21.153Z" fill="url(#paint1_linear_576_4625)"/>
</g>
<defs>
<linearGradient id="paint0_linear_576_4625" x1="24.1462" y1="16.1159" x2="18.4959" y2="8.81661" gradientUnits="userSpaceOnUse">
<stop stop-color="white"/>
<stop offset="1" stop-color="white" stop-opacity="0"/>
</linearGradient>
<linearGradient id="paint1_linear_576_4625" x1="13.4053" y1="19.4" x2="5.74795" y2="9.50802" gradientUnits="userSpaceOnUse">
<stop stop-color="white"/>
<stop offset="1" stop-color="white" stop-opacity="0"/>
</linearGradient>
<clipPath id="clip0_576_4625">
<rect width="38" height="38" fill="white"/>
</clipPath>
</defs>
</svg>
