<svg xmlns="http://www.w3.org/2000/svg" width="46" height="46" viewBox="0 0 46 46">
  <defs>
    <style>
      .cls-1 {
        fill: #fff;
        fill-rule: evenodd;
      }
    </style>
  </defs>
  <g id="Layer_11" data-name="Layer 11">
    <path d="M39.48621,27.4646l-2.17273-1.72827.35705-.44782a.74991.74991,0,0,0-.1195-1.05444L36.095,23.07581l.1106-.13868.55761-.69928a.75006.75006,0,0,0-.1195-1.05456L26.22083,12.89252a.75.75,0,0,0-1.05335.11944l-1.1217,1.407a.75.75,0,0,0,.1195,1.0545L32.2616,21.9137l-.02356.02954L7.89807,2.58179a.75.75,0,0,0-1.05334.11944L5.61719,4.241a.75.75,0,0,0,.1195,1.0545L20.84851,17.31616a.74649.74649,0,0,0-.33691.22534l-.8302.9701a.75007.75007,0,0,0,.1029,1.07464l3.82825,3.04511-2.77026,1.382a2.50332,2.50332,0,0,0-1.39368,2.25213v.72272a.74654.74654,0,0,0,.13745.4328.74855.74855,0,0,0-.271.57709v3.989a.75.75,0,0,0,.73645.74988l-1.99084,7.481H16.045a.75.75,0,0,0-.75.75v2.02636a.75.75,0,0,0,.75.75H31.03223a.75.75,0,0,0,.75-.75V40.9679a.75.75,0,0,0-.74756-.75l-2.36084-.00769a.75018.75018,0,0,0,.00134-.39094l-1.88464-7.08221h.23816a.75.75,0,0,0,.75-.75V28.46313a.75.75,0,0,0,.23339.12348,6.10987,6.10987,0,0,0,1.70313.23547,5.46787,5.46787,0,0,0,1.67029-.25049.74993.74993,0,0,0,.23791-1.3012l-.39721-.316.23291-.29224,3.42614,2.72522a.70984.70984,0,0,0,.12427.12732L36.75,30.89905a.75.75,0,0,0,1.05334-.11939l1.80237-2.26049a.75007.75007,0,0,0-.1195-1.05457Zm-11.89685.03528a.753.753,0,0,0-.24537-.18256l1.90625-3.31494.15821.12671Z"/>
    <path class="cls-1" d="M39.01926,28.05157l-1.8024,2.2605-1.7404-1.3844.0138-.0174-4.1505-3.3015-1.1681,1.4652.9849.7834a5.30682,5.30682,0,0,1-2.916.0149l2.125-3.9375-1.194-.9564-.1356-.1079-2.3679,4.1177h-6.4695v-.7227a1.767,1.767,0,0,1,.9786-1.581l3.8234-1.9074-4.7494-3.7778.8303-.9701,5.1787,4.1195,1.1482-.5728L6.20356,4.70847l1.2276-1.5397,24.9264,19.8278.3799-.4766.5643-.7077,2.0049,1.5948,1.7775,1.4139-.8251,1.0349Zm-3.9644-4.8743L33.05,21.58247l-8.4178-6.696,1.1218-1.407,10.4228,8.2908-.5576.6993Zm-14.0277,8.8098h-.9621v-3.989h6.9636v3.989h-1.2139l2.1357,8.0251h-3.9587v.9327l7.0405.023v2.0264H16.04506v-2.0264h2.5921Z"/>
  </g>
</svg>
