<svg xmlns="http://www.w3.org/2000/svg" width="40" height="39.969" viewBox="0 0 40 39.969">
  <defs>
    <style>
      .cls-1 {
        fill: #fff;
        fill-rule: evenodd;
      }
    </style>
  </defs>
  <path id="Color_Fill_1" data-name="Color Fill 1" class="cls-1" d="M27.03,12.816c-0.022-.576-0.1-1.733.257-1.942V11c0.247,0.406.005,1.552,0.193,1.812a0.847,0.847,0,0,0,.451.065A7.034,7.034,0,0,1,28.059,11h0.129a17.26,17.26,0,0,1,.129,1.942l10.3,1.165a5.322,5.322,0,0,1,.064,3.56c-0.7-.194-3.794.6-4.827,0.906-0.649.192-1.212,0.139-1.866,0.324-1.7.48-3.406,0.694-5.213,1.165l-1.352.13c-0.994.238-2.321,0.335-3.154,0.518v1.553c-0.3.5,0.041,2.9-.129,3.689-0.242,1.124,0,2.387-.257,3.56A19.079,19.079,0,0,0,21.5,33.2l6.693,1.1c0.683,1.014.355,1.97,0.064,3.172l-2.446.324a0.982,0.982,0,0,1-.129.194,4.013,4.013,0,0,1-1.158.065,13.084,13.084,0,0,0-1.48.324c-0.739.193-1.87,0.048-2.317,0.388a10.707,10.707,0,0,1-.322,1.036,2.9,2.9,0,0,1-1.866,0l-0.258-1.1a24.988,24.988,0,0,1-3.411-.583,9.8,9.8,0,0,1-1.545-.13,0.976,0.976,0,0,1-.129-0.194l-2.446-.324V37.346c-0.465-.572-0.648-2.947.322-3.042a6.926,6.926,0,0,1,1.866-.324A30.215,30.215,0,0,1,17.5,33.2a11.122,11.122,0,0,0-.257-2.33c-0.158-.72-0.051-1.478-0.193-2.136q-0.032-.874-0.064-1.748c-0.159-.734.05-1.63-0.129-2.46a21.549,21.549,0,0,1-.129-3.819H16.6c-0.571-.4-3.32-0.386-4.376-0.647-2.764-.684-5.5-0.973-8.238-1.812-1.01-.309-2.073-0.372-3.025-0.647a3.722,3.722,0,0,1-.644,0,7.8,7.8,0,0,1-.257-2.977c0.063-.194.325-0.4,0.386-0.583a8.994,8.994,0,0,1,.064-1.359,3.322,3.322,0,0,0,.064,1.295,0.847,0.847,0,0,0,.45.065l9.654-1.1c-0.021-.566-0.1-1.736.257-1.942v0.13c0.387,0.659-.339,1.724.579,1.748V12.816h0.064a7.262,7.262,0,0,1,.129-1.942h0.129a17.252,17.252,0,0,1,.129,1.942l3.347-.388c0.57-.128,1.459.061,1.673-0.388V10.874a10.019,10.019,0,0,0,.193-1.748A1.514,1.514,0,0,0,17.7,9.061c0.625-1.127-.063-2.351.257-3.819,0.439-2.015.321-4.008,1.48-5.243a0.22,0.22,0,0,1,.129.065c0.546,0.21.568,0.861,0.772,1.424a13.674,13.674,0,0,1,.708,4.531c0,1.052-.3,2.592.322,3.042,0.09,0.057.361,0.07,0.451,0.129a10.243,10.243,0,0,1,.193,2.848C23.109,12.662,25.53,12.633,27.03,12.816Z" transform="translate(0.516)"/>
</svg>
