<svg xmlns="http://www.w3.org/2000/svg" width="40" height="39.969" viewBox="0 0 40 39.969">
  <defs>
    <style>
      .cls-1 {
        fill: #fff;
        fill-rule: evenodd;
      }
    </style>
  </defs>
  <path id="Color_Fill_1" data-name="Color Fill 1" class="cls-1" d="M21.383,10.111a5.854,5.854,0,0,1,1.7.19l0.44,4.676,0.377,0.19v0.505l-0.377-.063a4.129,4.129,0,0,1-.251,1.769l1.634,1.39c0.1-.173,0-0.11.189-0.063l1.383,1.2c1.29,1.021,2.732,2.427,3.834,3.223-0.147.666,0.41,1.264,0.566,1.9L31,27.615l-1.069-.253a5.431,5.431,0,0,1-.126,1.769H29.743l-0.314-.063a4.637,4.637,0,0,0-.189-1.833l-6.914-1.769a0.427,0.427,0,0,1-.251.253l-0.063-.19c0.011,2.693-.782,5.015-0.943,7.457l3.331,2.78,1.446,0.948L26.1,38.168H25.72L20.5,37.22l-0.126,2.654c-0.419.064-.249,0.223-0.5,0l-0.251-.126q-0.032-1.264-.063-2.528l-5.594.948c0-2.281,3.8-3.787,5.029-5.308a35.337,35.337,0,0,1-1.006-7.2c-0.216-.058-0.111.067-0.189-0.19l-7.166,1.769a3.759,3.759,0,0,1-.126,1.9H10.446l-0.314-.063-0.063-1.706-1.006.253A9.245,9.245,0,0,1,9.817,23c0.2,0.049.137,0.181,0.251,0,1.74-1.323,3.046-3.031,4.966-4.423,0.159,0.12,0,.122.189,0.063l1.571-1.327c-0.372-.812-0.438-5.759.251-7.077l1.634-.126c-0.791-2.85.732-5.845,1.257-7.709,0.2-.728-0.255-1.873.126-2.4a16.021,16.021,0,0,0,.943,4.866A22.544,22.544,0,0,1,21.383,10.111Z" transform="translate(-0.031)"/>
</svg>
