<svg xmlns="http://www.w3.org/2000/svg" width="40" height="40" viewBox="0 0 40 40">
  <defs>
    <style>
      .cls-1 {
        fill: #fff;
        fill-rule: evenodd;
      }
    </style>
  </defs>
  <path id="Color_Fill_1" data-name="Color Fill 1" class="cls-1" d="M21.355,10l1.639,0.189a14.731,14.731,0,0,1,.441,4.654l0.441,0.126V15.6H23.814L23.5,15.472c0.006,0.578-.14,1.849-0.126,1.887l1.513,1.258c0.148-.2.045-0.144,0.252,0l1.891,1.635c2.272,1.812,4,2.96,3.971,7.17l-1.072-.252a5.983,5.983,0,0,1-.126,1.761H29.739l-0.315-.063a4.732,4.732,0,0,0-.189-1.824L22.3,25.283a0.426,0.426,0,0,1-.252.252l-0.063-.189c0.028,2.667-.665,5-0.946,7.358l3.215,2.7,1.639,1.132,0.189,1.384-5.61-.943c0.045,1.046.135,2.7-.567,3.019a8.831,8.831,0,0,1-.378-3.019l-5.61.943,0.252-1.509a19.071,19.071,0,0,0,4.791-3.774,38.773,38.773,0,0,1-.946-7.233c-0.349.094-.145-0.163-0.63-0.063l-6.745,1.7q-0.063.943-.126,1.887H10.261l-0.126-.063-0.063-1.7L9,27.421V25.849l0.378-1.824c1.1-2.626,3.877-3.537,5.61-5.6,0.275,0.121.194,0.187,0.441-.126l1.324-1.132c-0.242-.427-0.334-6.1.126-6.855C17.076,9.994,18.145,10,18.645,10c-0.531-3.865,1.077-6.6,1.324-10h0.063a16.07,16.07,0,0,0,.946,4.78A18.97,18.97,0,0,1,21.355,10Z"/>
</svg>
