<svg xmlns="http://www.w3.org/2000/svg" width="40" height="40" viewBox="0 0 40 40">
  <defs>
    <style>
      .cls-1 {
        fill: #fff;
        fill-rule: evenodd;
      }
    </style>
  </defs>
  <path id="Color_Fill_1" data-name="Color Fill 1" class="cls-1" d="M22.118,11.964a27.128,27.128,0,0,1,6.437.492c1.005,0.231,2.071.153,3.034,0.369l1.722,0.164c2.063,0.478,4.34.487,6.4,0.943a1.628,1.628,0,0,1,.246.328,2.225,2.225,0,0,1-.041.861V15.7c-0.117.532-.1,1.175-0.205,1.681a14.178,14.178,0,0,1-1.435.328c-0.991.283-2.126,0.413-3.116,0.7-0.476.136-.957,0.171-1.394,0.287a0.453,0.453,0,0,1-.164-0.041,18.489,18.489,0,0,1-3.362.82c-1.675.478-3.485,0.764-5.207,1.189H22.077a16.671,16.671,0,0,1-.287,4.715l-0.246,2.3a11.57,11.57,0,0,0-.369,1.927h0.082a6.871,6.871,0,0,0,1.517.287c1.02,0.263,2.177.4,3.2,0.656,0.507,0.129,1.432.084,1.6,0.533,0.459,0.508-.085,1.509-0.287,1.886a2.9,2.9,0,0,1-1.148,1.353,6.65,6.65,0,0,1-1.312.164,13.8,13.8,0,0,1-2.706.369c-0.119-.186-0.333-0.317-0.451-0.492A11.055,11.055,0,0,1,20.6,32.218H20.56a5.518,5.518,0,0,1-.287,1.189,2.945,2.945,0,0,1-.123.82,7.907,7.907,0,0,0-.41-1.968,0.148,0.148,0,0,0-.041.082c-0.123.187-.131,0.427-0.246,0.615a12.113,12.113,0,0,1-.9,1.435,0.694,0.694,0,0,1-.574.451L14.2,34.309a2.976,2.976,0,0,1-1.271-1.517c-0.218-.455-0.655-1.708.082-1.968a5.782,5.782,0,0,1,1.763-.369c1.412-.362,2.939-0.555,4.387-0.861V29.512a10.536,10.536,0,0,1-.41-2.3c-0.117-.5-0.078-1.087-0.205-1.64a22.927,22.927,0,0,1-.328-4.92H15.271c-1.649-.4-3.4-0.694-5-1.148A23.067,23.067,0,0,1,6.7,18.647a0.457,0.457,0,0,1-.164.041C6.05,18.557,5.509,18.5,4.98,18.36c-1.358-.366-3.091-0.515-4.305-0.943a7.058,7.058,0,0,1-.287-2.378H0.019A0.82,0.82,0,0,1,.1,14.547l0.041,0.369,0.246,0.041a1.456,1.456,0,0,1,.082-0.9,2.314,2.314,0,0,1,1.271-.287C2.573,13.577,3.486,13.6,4.365,13.4c1.379-.323,2.936-0.3,4.346-0.615l1.394-.123c0.615-.138,1.317-0.094,1.968-0.246a28.262,28.262,0,0,1,6.15-.451c0-.782,0-1.324,0-2.091a0.975,0.975,0,0,1-.082-0.7,2.077,2.077,0,0,0,.082-0.861c0.134-.615.008-1.3,0.451-1.6a2.094,2.094,0,0,1,.984-0.082l0.082-.123a1.024,1.024,0,0,1-.2-0.164,10.974,10.974,0,0,1-3.4-.123L16.091,6.1h0.082a2.98,2.98,0,0,1,.9-0.123A14.039,14.039,0,0,1,19.7,5.937c0.123-.4.034-0.769,0.574-0.779a0.475,0.475,0,0,1,.205.205,1.114,1.114,0,0,1,.041.492,1,1,0,0,0,.287.082,2.691,2.691,0,0,0,1.23-.041,6.921,6.921,0,0,1,2.214.287,0.141,0.141,0,0,1-.041.082,2.731,2.731,0,0,1-.779.082c-0.977.214-2.153-.216-2.87,0.164a1.461,1.461,0,0,0,.943.123,0.209,0.209,0,0,0,.123.041,0.8,0.8,0,0,1,.287.451,2.4,2.4,0,0,1,.123.861c0.049,0.228-.022.625,0.041,0.9A4.277,4.277,0,0,1,22.2,9.914c-0.139-.008-0.082.268-0.082,0.492v1.558Z"/>
</svg>
