<svg xmlns="http://www.w3.org/2000/svg" width="40" height="40" viewBox="0 0 40 40">
  <defs>
    <style>
      .cls-1 {
        fill: #fff;
        fill-rule: evenodd;
      }
    </style>
  </defs>
  <path id="Color_Fill_1" data-name="Color Fill 1" class="cls-1" d="M21.992,12.746h3.228a7.721,7.721,0,0,1,.3-1.662,2.38,2.38,0,0,0,.757-0.353,0.965,0.965,0,0,0,.656.4,4.578,4.578,0,0,1,.252,1.713h0.1a2.359,2.359,0,0,0,.656.151c0.834,0.238,1.733.351,2.623,0.6,2.5,0.711,5.154,1.244,7.717,1.814a2.038,2.038,0,0,1,.807-1.864,3.3,3.3,0,0,1,.454.5c0.694,1.519.39,4.712-.05,6.3a5.6,5.6,0,0,1-.454,1.814v-0.05a6.542,6.542,0,0,1-.5-2.166,2.277,2.277,0,0,0-.757.252l-2.472.806v0.151a6.672,6.672,0,0,0-1.009.353c-0.176.043-.108-0.1-0.2-0.1a7.447,7.447,0,0,0-1.463.554c-1.187.464-2.448,0.784-3.682,1.259a10.232,10.232,0,0,0-2.169.756,1.165,1.165,0,0,0-.1.5,7.567,7.567,0,0,1-.958,0l-0.05-.6H21.992a4.123,4.123,0,0,0-.05,1.108,18.506,18.506,0,0,0-.2,2.62L21.185,33.1l6.658,3.073a3.41,3.41,0,0,1,.4,2.217l-0.3.252c-1.649.01-3.468,0.05-5.2,0.05a8.892,8.892,0,0,1-2.27-.05c0.02,0.591-.04,1.36-0.656,1.36a1.914,1.914,0,0,1-.252-0.4,4.121,4.121,0,0,0-.151-0.957,4.856,4.856,0,0,1-1.715.05H13.367a2.152,2.152,0,0,1-1.614-.3c-0.384-.464.1-1.979,0.4-2.217a7.88,7.88,0,0,1,1.564-.705c1.1-.485,2.229-1.128,3.329-1.612a11.448,11.448,0,0,0,1.715-.756V32.7a10.509,10.509,0,0,1-.252-2.217c-0.2-.882-0.051-1.948-0.252-2.872a18.442,18.442,0,0,1-.252-3.678,4.551,4.551,0,0,0-1.16-.05H14.275l-0.05.6a7.586,7.586,0,0,1-.958,0l-0.1-.6a8.542,8.542,0,0,1-2.27-.756c-1.351-.518-2.609-0.8-3.834-1.31a3.609,3.609,0,0,1-1.211-.4c-0.086.039-.036,0.133-0.2,0.1-0.333-.064-0.629-0.3-1.009-0.353V21.008H4.54a3.674,3.674,0,0,0-.908-0.3,9.156,9.156,0,0,0-2.219-.756,6.9,6.9,0,0,1-.5,2.217H0.858a16.292,16.292,0,0,0-.5-2.015,13.856,13.856,0,0,1-.1-5.693,3.226,3.226,0,0,1,.605-0.907h0.1a1.182,1.182,0,0,0,.3.3,3,3,0,0,1,.3.705,1.7,1.7,0,0,0,.2.856,2.659,2.659,0,0,1,.656-0.151c0.772-.233,1.6-0.32,2.421-0.554,2.559-.728,5.3-1.279,7.919-1.864V12.292a7.238,7.238,0,0,0,.252-1.159,2.621,2.621,0,0,0,.454-0.1,0.744,0.744,0,0,1,.353-0.3c0.264,0.425.649,0.2,0.706,0.705a3.41,3.41,0,0,1,.2,1.31h3.228c-0.045-3.447-.05-7.505.757-10.176,0.23-.763.433-2.283,1.11-2.519a0.547,0.547,0,0,1,.3-0.05,7.075,7.075,0,0,1,1.261,3.023l0.1,0.856C22.1,6.339,21.986,9.749,21.992,12.746Z"/>
</svg>
