<svg xmlns="http://www.w3.org/2000/svg" width="40" height="40" viewBox="0 0 40 40">
  <defs>
    <style>
      .cls-1 {
        fill: #fff;
        fill-rule: evenodd;
      }
    </style>
  </defs>
  <path id="Color_Fill_1" data-name="Color Fill 1" class="cls-1" d="M20.685,6.1a9.047,9.047,0,0,1,2.078.1c0.61,0.142,1.358-.018,1.936.1a0.169,0.169,0,0,1-.094.048,4.4,4.4,0,0,1-1.086.048,7.4,7.4,0,0,1-2.786-.048,0.7,0.7,0,0,1-.047.239,5,5,0,0,1,.945.048c0.483,0.982.285,2.97,0.283,4.4a0.707,0.707,0,0,0,.189.1,3.084,3.084,0,0,0,.992.144c0.884,0.2,1.861.031,2.786,0.239,0.477,0.107,1.028.024,1.558,0.143,1.83,0.412,3.929.163,5.762,0.574,0.7,0.157,1.432.046,2.078,0.191,1.476,0.333,3.68-.064,4.392,1,0.752,1.129-.036,2.528-0.661,3.159a5.581,5.581,0,0,1-2.692,1.292l-1.37.191c-1.708.439-3.587,0.6-5.337,0.957a0.233,0.233,0,0,1-.047.143V19.022l-2.172.383a0.365,0.365,0,0,1,0,.239H27.344V19.4l-2.6.431a1.111,1.111,0,0,1-.142.431c0-.261-0.012-0.341-0.236-0.383l-1.7.335a0.882,0.882,0,0,1-.047.431,0.342,0.342,0,0,0-.142-0.383,4.317,4.317,0,0,0-.708,1.244l-0.378,4.642-0.472,3.4a12.564,12.564,0,0,1,2.55.526c1.205,0.33,2.992.31,3.872,0.957a3.048,3.048,0,0,1,.331.431c0.08,2.359-1.885,1.723-3.778,2.153A15.964,15.964,0,0,1,20.779,34a2.782,2.782,0,0,0-.52-1.148A3.358,3.358,0,0,1,20.024,34a0.173,0.173,0,0,1-.047-0.1c-0.2-.284-0.086-0.855-0.283-1.148-0.056.478-.346,0.778-0.425,1.244a15.813,15.813,0,0,1-3.164-.383c-1.793-.41-4.046.182-3.731-2.249,0.158-.117.253-0.326,0.425-0.431a6.123,6.123,0,0,1,1.606-.431c0.9-.245,1.932-0.379,2.834-0.622a6.715,6.715,0,0,0,1.889-.431,8.842,8.842,0,0,1-.283-1.962c-0.327-1.423-.2-3.167-0.52-4.642L18.276,21.7a1.955,1.955,0,0,0-.85-1.436,0.554,0.554,0,0,1-.094.383,1.876,1.876,0,0,1,.047-0.431l-1.889-.335a2.689,2.689,0,0,1-.095.383H15.348c0-.278-0.026-0.4-0.283-0.431a13.484,13.484,0,0,0-2.408-.431,0.406,0.406,0,0,1-.047.239,0.822,0.822,0,0,0-.047-0.287l-2.125-.335a0.233,0.233,0,0,1-.047.143c-0.039-.155.023-0.073-0.094-0.143a12.173,12.173,0,0,0-2.22-.383C5.5,17.985,2.063,18.145.708,16.246a2.564,2.564,0,0,1-.661-1.914A1.847,1.847,0,0,1,.9,12.944l0.661-.191V10.6H1.653v2.153H1.747c0.448-.28,1.857-0.142,2.5-0.287,0.955-.214,2.068-0.064,3.07-0.287,0.5-.11,1.06-0.022,1.606-0.143a10.3,10.3,0,0,1,2.031-.192V11.413h0.095V11.8a9.426,9.426,0,0,0,2.031-.191c0.545-.121,1.11-0.034,1.606-0.144h0.52c0.868-.195,1.953-0.137,2.786-0.335a4.757,4.757,0,0,0,.095-1.675c0.246-.639-0.354-2.538.378-2.871h0.85V6.531a0.2,0.2,0,0,1,0-.191H19.221a6.744,6.744,0,0,1-2.786.048,3.009,3.009,0,0,1-1.133-.1H15.4a3.544,3.544,0,0,1,.85-0.048,14.94,14.94,0,0,1,3.07-.144,1.126,1.126,0,0,1,.472-0.957C20.275,4.688,20.683,5.664,20.685,6.1Z"/>
</svg>
