<svg xmlns="http://www.w3.org/2000/svg" width="40" height="40" viewBox="0 0 40 40">
  <defs>
    <style>
      .cls-1 {
        fill: #fff;
        fill-rule: evenodd;
      }
    </style>
  </defs>
  <path id="Color_Fill_1" data-name="Color Fill 1" class="cls-1" d="M20.667,6.044c1.3-.013,2.651.124,4,0.142V6.282a17.062,17.062,0,0,1-3.952,0V6.519h0.048V6.566h0.667A3.553,3.553,0,0,1,21.9,7.753V8.987c0.009,0.024.126,0.11,0.143,0.142a1.209,1.209,0,0,1,0,.854h-0.1A0.163,0.163,0,0,0,21.9,9.889v1.566c0.482,0.121,1.194.162,1.762,0.285l1.048,0.047a13.621,13.621,0,0,0,2.429.237v-0.9a2.147,2.147,0,0,1-.857-0.047h0.857V10.6a2.149,2.149,0,0,1-.857-0.047h0.857V9.936a1.711,1.711,0,0,1-.714-0.047h0.714V8.512h0.1V9.889A1.856,1.856,0,0,1,28,9.936H27.238v0.617a2.144,2.144,0,0,1,.857.047H27.238v0.475a2.146,2.146,0,0,1,.857.047H27.238v0.9l5.9,0.57h0.571c0.785,0.174,1.746.112,2.524,0.285,1.594,0.354,3.13-.119,3.619,1.376A2.677,2.677,0,0,1,39,16.866c-0.945.93-2.279,1.086-3.809,1.471l-0.857.095c-0.885.223-1.869,0.238-2.809,0.475a10.1,10.1,0,0,1-1.9.332v0.19H29.571c-0.164-.255-1.725.154-2.19,0.19a0.5,0.5,0,0,1-.048.285V19.666a7.355,7.355,0,0,0-1.714.285,2.95,2.95,0,0,0-.857.142,1.182,1.182,0,0,1-.191.38c0-.3-0.03-0.338-0.333-0.332a12.43,12.43,0,0,1-1.619.332,0.44,0.44,0,0,1,0,.38,0.871,0.871,0,0,0-.1-0.38,4.208,4.208,0,0,0-.9,3.18H22a1.3,1.3,0,0,1,.048-0.427H22.1v5.268H22.048V28.447A1.634,1.634,0,0,1,22,28.02a2.167,2.167,0,0,0-.857-0.047v0.095a5.77,5.77,0,0,0-.238,1.519h0.048v0.048a6.062,6.062,0,0,1,1.429.285c0.724,0.195,1.464.245,2.143,0.427a14.127,14.127,0,0,1,2.524.57,1.021,1.021,0,0,1,.619,1.234C27.3,33.472,26.33,33.18,25,33.478c-0.752.169-1.574,0.1-2.381,0.285A10.947,10.947,0,0,1,20.762,34a8.7,8.7,0,0,0-.476-1.282A2.582,2.582,0,0,1,19.952,34V33.905c-0.2-.318-0.071-0.89-0.286-1.187A1.613,1.613,0,0,1,19,34a6.741,6.741,0,0,0-1.667-.19c-1.861-.423-5.595.122-4.9-2.515a4.643,4.643,0,0,1,.619-0.427,32.376,32.376,0,0,1,4.1-.9,8.467,8.467,0,0,0,1.9-.38A0.319,0.319,0,0,0,19.1,29.4a5.64,5.64,0,0,1-.238-1.424H18V28.02H17.952a1,1,0,0,1-.048.475V24.7a4.134,4.134,0,0,1,.048-1.471v0.427h0.429A5.943,5.943,0,0,0,17.952,21a5.948,5.948,0,0,0-.476-0.522H17.429a0.662,0.662,0,0,1-.1.38V20.426l-1.857-.285a0.413,0.413,0,0,1-.143.332,0.542,0.542,0,0,0-.1-0.38,13.4,13.4,0,0,0-2.571-.427v0.19H12.619V19.809a0.264,0.264,0,0,1,0-.19c-0.687-.03-1.757-0.5-2.238-0.19v-0.19A5.874,5.874,0,0,1,9,19c-0.759-.19-1.525-0.2-2.238-0.38L5.619,18.48C3.064,17.824.741,17.892,0.1,15.3A1.851,1.851,0,0,1,.81,13.354a3.778,3.778,0,0,0,.762-0.237V10.98H1.619v0.047a8.684,8.684,0,0,1,.048,2.088H1.714a2.506,2.506,0,0,1,.667-0.095c0.889-.206,1.916-0.076,2.857-0.285,0.651-.144,1.39-0.034,2.1-0.19,0.492-.109,1.072-0.021,1.619-0.142l5.238-.522c0.871-.191,1.839-0.055,2.667-0.237,0.4-.088,1.084.078,1.238-0.237V9.889H18.048V9.984h-0.1V9.936a1.038,1.038,0,0,1,.143-1V8.227c0-.923.052-1.694,1.048-1.661V6.519l0.1,0.047V6.519a0.409,0.409,0,0,0,.048-0.237,13.731,13.731,0,0,1-3.952,0V6.187c1.352-.007,2.687-0.142,4-0.142A0.873,0.873,0,0,1,20.143,5,1.341,1.341,0,0,1,20.667,6.044Zm-2.714,17.7v1.139a1.965,1.965,0,0,0,.571.047l-0.1-1.139A1.571,1.571,0,0,0,17.952,23.748Zm3.619,0-0.1,1.186a1.881,1.881,0,0,0,.571-0.047A4.246,4.246,0,0,1,22,23.748H21.571Zm-3,2.088q-0.024-.427-0.048-0.854H18a2.917,2.917,0,0,0-.048.807A2.159,2.159,0,0,0,18.571,25.836Zm2.9-.854a2.983,2.983,0,0,0-.048.807,1.3,1.3,0,0,0,.571.047V24.982H21.476Zm-3.524,1.661h0.714l-0.048-.712A2.159,2.159,0,0,0,18,25.884,2.726,2.726,0,0,0,17.952,26.643Zm3.429-.759-0.048.759h0.714V26.6A3.227,3.227,0,0,1,22,25.931,1.44,1.44,0,0,0,21.381,25.884Zm-2.667.854H18a4.246,4.246,0,0,0-.048,1.139,3.334,3.334,0,0,0,.9.048V27.83A2.588,2.588,0,0,1,18.714,26.738Zm2.571,0-0.143,1.187H22V26.738H21.286Z"/>
</svg>
