<svg xmlns="http://www.w3.org/2000/svg" xmlns:xlink="http://www.w3.org/1999/xlink" width="39.946" height="40" viewBox="0 -201.795 1168 1169.591">
  <defs>
    <style>
      .cls-1 {
        fill: #fff;
        fill-rule: evenodd;
      }
    </style>
    <clipPath id="clip-path">
      <rect width="1168" height="766"/>
    </clipPath>
  </defs>
  <g clip-path="url(#clip-path)">
    <path id="Color_Fill_1" data-name="Color Fill 1" class="cls-1" d="M612,35q3,18,6,36,0.5,15,1,30c4.112,18.93,1.833,42.557,2,64,11.438,3.822,31.517,1.085,45,1,3.822-11.438,1.085-31.517,1-45a2.834,2.834,0,0,0,1-1h-3c-0.081-10.076-.029-21.436,1-30,7.426-4.873,15.429-4.193,28-4V85h1V84c-4.337-1.077-8.811-3.828-14-5H639l-1-2h45c1.7-1.082,7.074-1.361,9-2,0.286-4.722.086-13.291,4-15,10.177-6.29,7.983,10.562,11,15,10.934,6.77,43.259-3.356,53,4-19.667-.353-47.015-2.891-58,6h1c4.36,2.818,17.587,1.133,24,1,5.976,9.107,5.172,18.616,5,34-2.076.372-1.924,0.242-3,1,3.382,5.34,1.111,36.045,1,45,17.36-.33,43.148,10.184,58,15,9.085,2.946,22.137,2.5,29,8,1.563,2.659.263,6.244,3,8l13,3c0.885-1.4,1.085-5.608,2-7,4.158,2.737,9.7,2.253,15,4,12.688,4.182,26.335,6.543,40,11,35.877,11.7,75.08,20.361,111,32,13.63,4.416,27.21,7.072,40,11,3.55,1.089,10.64,2.816,12,2,3.62-5.96-1.68-20.078,2-26-0.13,8.659-1.35,21.1,1,28,8.58,0.832,16.75,4.592,24,7,20.76,6.9,41.56,9.888,59,19,7.7,4.023,17.11,7.339,22,14,23.87,32.526-23.9,51.977-48,58-10.93,2.731-21.38.039-32,0h-69l-251-1-78-1c-13.173,0-28.844-.511-39,2-7.007,13.885-17.713,30.271-22,46-2.349,8.619,2.493,14.021,3,21h-4c0.1,18.406.549,38.557-3,55-2.059,9.541-.2,19.644-2,28q-1,21-2,42c-3.274,15.058-5.871,38.43-3,54,30.053,17.794,64.64,31.7,96,48,12.985,6.751,30.752,10.646,39,22,8.275,11.391,11.77,37.319,3,52-14.929,24.991-49.935,20-89,20l-42-1c-11.019-3.176-10.393-10.061-25-7-1.874,4.387-8.455,31.528-11,33,0.009-11.239-3.412-33-14-34-6.871-3.385-13.651,6.245-19,8-2.291.752-7.786,0.729-9,1H496c-48.267,0-74.443,3.11-84-37-3.491-14.649,3.655-29.023,9-36,6.617-8.637,19.847-11.744,30-17,23.706-12.272,49.322-23.673,73-36,6.979-3.633,28.368-10.687,31-17,1.9-2.976,1.435-12.256,1-17-1.128-12.3-.1-27.069-3-40-6.567-29.276-2.263-65.1-8-94q0.5-4,1-8-1-20.5-2-41c-1.94-6.8-6.851-14.842-10-21-4.421-8.646-5.916-22.289-15-26H431c-4.858,3-28.129,1-36,1H302l-181,1c-47.944,0-81.687,3.1-110-18-14.623-10.9-13.586-32.042-1-44,17.17-16.314,74.634-30.925,103-37V227h1v26c10.322-.462,20.338-5.146,29-8,18.207-6,36.758-9.335,54-15,34.964-11.489,70.957-17.783,105-29,10.342-3.408,20.412-4.328,30-8,0.137,3.382.494,5.156,2,7,3.258-3.638,9.545-2.34,14-3a28.9,28.9,0,0,0,1-9c8.922-.475,17.533-4.578,25-7,12.331-4,24.654-6.318,36-10,7.842-2.545,21.309-2.988,26-6,0.752-1.073.6-.946,1-3-3.134-4.768-1.1-38.038,1-42h-3c-0.1-10.135-.687-22.476,1-31,1.766-.962,1.68-1.257,4-2,5.03-3.11,18.368-.171,24-2V84c-4.337-1.077-8.811-3.828-14-5H408l-1-2h45c1.7-1.082,7.074-1.361,9-2,0.286-4.722.086-13.291,4-15,10.177-6.29,7.983,10.562,11,15,12.21,7.566,41.283-4.206,53,4-18.783-.353-47.145-3.244-57,6h1c4.724,2.954,19.492.992,25,2,3.734,7.573,3.111,21.148,3,33-2.076.372-1.924,0.242-3,1,5.387,8.637.208,35.077,2,45h44c2.516-7.468,1.081-20.741,1-30,5.09-8.278-.679-34.577,2-46,3.746-15.972,2.56-33.946,7-48V36c1.651-4.142,6.972-8.425,9-16-0.191-1.358-1.047-1.514-1-5,1.9,1.34.874,1.283,4,2,1.921-3.871,4.754-6.523,7-10a8.893,8.893,0,0,1-3-3l3-1c2.827-2.5,7.456-3.181,15-3l-1,2c1.882,1.009,4.185-.642,5-1,1.238,0.746,2.322,2.2,4,3-1.121,2.091-1.434,1.832-2,5,3.061,2.021,4.375,4.549,6,8,3.8-.247,3.461-2.028,5,1-2.181,1.961-.982,2.7-2,4,0.838,1.13,3.515,2.836,4,4,0.372,0.893-3.073,2.714,0,7,1.021,0.8.274,0.355,2,1C610.073,34.752,609.946,34.6,612,35Z"/>
  </g>
</svg>
