<svg xmlns="http://www.w3.org/2000/svg" width="40" height="40" viewBox="0 0 40 40">
  <defs>
    <style>
      .cls-1 {
        fill: #fff;
        fill-rule: evenodd;
      }
    </style>
  </defs>
  <path id="Color_Fill_1" data-name="Color Fill 1" class="cls-1" d="M21.414,9.932a0.2,0.2,0,0,1,.125.041,3.238,3.238,0,0,1,.041,1.2c0.412,0.627-.155,2.008-0.166,2.765L24.2,14.141l-0.042-1.155H24.033a3.22,3.22,0,0,1,.457-1.733h0.873l-0.042-.206H25.2a1.881,1.881,0,0,1-.873.083,8.8,8.8,0,0,1-2-.206V10.84c0.985-.014,2.03-0.041,3.035-0.041V10.716A0.692,0.692,0,0,1,25.53,10.3a0.273,0.273,0,0,1,.249,0,0.562,0.562,0,0,0,.166.454,2.422,2.422,0,0,0,.915,0,6.761,6.761,0,0,1,2,.165v0.041H28.815c-0.428.284-2.239,0.129-2.911,0.124a0.551,0.551,0,0,1-.083.165h0.915a0.654,0.654,0,0,1,.166.206,3.369,3.369,0,0,1,.125,2.1l0.042,0.867,3.992,0.289a0.488,0.488,0,0,0,.5.454,0.568,0.568,0,0,0,.208-0.248,0.277,0.277,0,0,0,.042-0.165L35.8,15.049a8.614,8.614,0,0,1,.083-2.393v2.393c1.86-.026,3.945.141,4.116,1.816-0.163.153-.22,0.846-0.374,1.073a3.432,3.432,0,0,1-1.039.743,3.149,3.149,0,0,1-.832.206C36.8,19.151,35.7,19.1,34.678,19.34c-0.637.149-1.4,0.178-2.037,0.33a4.78,4.78,0,0,1-.624,0,9.682,9.682,0,0,1-1.746.289c-1.194.283-2.7,0.314-3.825,0.536a4.157,4.157,0,0,1-.873,2.063,1.926,1.926,0,0,0-.291-0.5,7.776,7.776,0,0,1-.457-1.4H24.782a6.938,6.938,0,0,1-1.04.124,10.408,10.408,0,0,1-2.37.248V21.32a2.63,2.63,0,0,1,.125,1.114,3.531,3.531,0,0,0,1.123.413,0.116,0.116,0,0,1-.041.041,0.212,0.212,0,0,1-.125.041,4.716,4.716,0,0,0-1.04-.413,1.157,1.157,0,0,1-.125.289v0.825a17.479,17.479,0,0,1-.125,1.9V26.4c-0.047.217,0.017,0.6-.042,0.866A12.993,12.993,0,0,0,21,29.779h0.083a7.779,7.779,0,0,0,1.663.33c1.161,0.309,2.426.486,3.617,0.743l0.042-.578a0.253,0.253,0,0,0,.083-0.083h0.042v0.041a1.263,1.263,0,0,1,.125.743,4.745,4.745,0,0,1-.042,1.9,2.671,2.671,0,0,1-.125.866,3.331,3.331,0,0,1-.083-1.073,0.583,0.583,0,0,0-.208-0.124c-0.215.208-.749,1.2-0.915,1.279H21.123a0.939,0.939,0,0,0-.249-0.206V33.7a7.14,7.14,0,0,0-.166,1.4,0.677,0.677,0,0,1-.166.124c-0.137.188-.024,0.342-0.291,0.413V37H20.166V35.638H19.834V37H19.751V35.638H19.626c-0.083-.27-0.3-0.431-0.374-0.7V34.318c-0.044-.2-0.081-0.533-0.125-0.7H19.085a1.567,1.567,0,0,1-1.206.206h-3.16L13.8,32.5a0.915,0.915,0,0,1-.208.165,1.666,1.666,0,0,1-.125,1.073c-0.07-.937-0.448-2.728,0-3.549h0.042v0.041a0.236,0.236,0,0,1,.083.248,0.843,0.843,0,0,0,.125.371,7.791,7.791,0,0,1,1.663-.33c1.161-.308,2.426-0.486,3.617-0.743V29.036a3.866,3.866,0,0,1-.042-0.908C18.846,27.6,19,26.973,18.877,26.4a3.561,3.561,0,0,1-.208-0.867h0.125a8.552,8.552,0,0,0-.125-1.9H18.628a3.951,3.951,0,0,1-1.164.413V23.961h0.042V23.92a1.538,1.538,0,0,0,1.081-.536,1.363,1.363,0,0,1-.042-0.66,6.738,6.738,0,0,0,.083-1.692H18.586a2.207,2.207,0,0,1-.915-0.041c-0.757-.175-1.865-0.127-2.495-0.33v0.082c-0.322.482-.323,1.544-0.832,1.816a0.921,0.921,0,0,0-.25-0.371,5.79,5.79,0,0,1-.54-1.692c-1.122-.168-2.65-0.231-3.825-0.536a6.669,6.669,0,0,1-1.746-.289A5.355,5.355,0,0,1,6.2,19.464c-0.692-.18-1.431-0.121-2.079-0.289L2.661,19.01C1.265,18.651.141,18.355,0,16.7a2.949,2.949,0,0,0,.333-0.743,2.464,2.464,0,0,1,1-.66,17.3,17.3,0,0,1,1.788-.206H3.7l4.491-.33,0.042,0.248a0.6,0.6,0,0,0,.416.165,0.87,0.87,0,0,1,.457-0.454,4.764,4.764,0,0,1,1.206-.083,15.826,15.826,0,0,1,2.62-.206l0.042-.867a1.942,1.942,0,0,1-.125-0.867c0.094-.451.151-0.948,0.249-1.32a2.49,2.49,0,0,1,1.04-.124V11.17a0.478,0.478,0,0,1-.083-0.124,7.877,7.877,0,0,1-2.994-.124V10.881H11.1a2.378,2.378,0,0,1,1-.083c0.63-.008,1.354-0.006,2,0a0.9,0.9,0,0,1,.208-0.5,0.273,0.273,0,0,1,.25,0l0.083,0.454a1.377,1.377,0,0,0,.416.041,1.825,1.825,0,0,1,.707-0.041,6.313,6.313,0,0,1,1.871.165v0.041H17.588a8.114,8.114,0,0,1-2.911.082,0.881,0.881,0,0,1-.083.206h0.915c0.052,0.079.168,0.135,0.208,0.206a5.563,5.563,0,0,1,.249,1.527H15.842q-0.021.6-.042,1.2h0.042A3.668,3.668,0,0,1,16.8,14.1a9.068,9.068,0,0,1,1.788-.165,4.762,4.762,0,0,0-.291-1.485,2.8,2.8,0,0,1,.125-1.279v-1.2a0.117,0.117,0,0,0,.041-0.041h0.125q0.021-1.073.042-2.146A0.733,0.733,0,0,1,18.5,7.415h0.166a8.24,8.24,0,0,1,.416-2.847c0.152-.182.719-0.247,0.832-0.413A3.112,3.112,0,0,0,19.958,3h0.083V4.155a0.149,0.149,0,0,1,.042.083,2.121,2.121,0,0,1,.748.248V3.66h0.083V4.65a3.5,3.5,0,0,1,.291,1.527A17.235,17.235,0,0,1,21.414,9.932Z"/>
</svg>
