<svg xmlns="http://www.w3.org/2000/svg" width="40" height="40" viewBox="0 0 40 40">
  <defs>
    <style>
      .cls-1 {
        fill: #fff;
        fill-rule: evenodd;
      }
    </style>
  </defs>
  <path id="Color_Fill_1" data-name="Color Fill 1" class="cls-1" d="M19.882,4.505h0.235V4h0.039V4.078a1.727,1.727,0,0,0,0,.466l0.235,0.194a0.81,0.81,0,0,1,.039.272H20.51l-0.039.117a1.185,1.185,0,0,1,.157.194A9.4,9.4,0,0,1,20.98,6.8a19.046,19.046,0,0,1,.588,4.739l1.49,0.194A6.6,6.6,0,0,0,23.1,9.982a1.661,1.661,0,0,1-.039-0.66c0-.532.034-1.529,0.431-1.67a2.037,2.037,0,0,1,.784-0.039A0.187,0.187,0,0,0,24.235,7.5a1.076,1.076,0,0,0-.471-0.039,5.064,5.064,0,0,1-1.922-.117c0.742-.009,1.557-0.075,2.392-0.078V7.185c0.215-.319-0.126-0.9.549-0.622a5.179,5.179,0,0,1,.157.7h1.451a5.015,5.015,0,0,0,.863.117V7.419H26.98a6.345,6.345,0,0,1-2.039.039L24.9,7.574a0.111,0.111,0,0,0-.039.039h0.824a4.424,4.424,0,0,1,.431,1.826q-0.019.388-.039,0.777c0.028,0.072.167,0.188,0.2,0.272q0.02,0.369.039,0.738H26a4.85,4.85,0,0,0,.039.893c0.817,0.258,1.753.145,2.627,0.35,1.771,0.415,3.759.347,5.529,0.777,0.686,0.167,1.4.116,2.039,0.272a22.462,22.462,0,0,1,2.9.466,1.331,1.331,0,0,1,.745.427,1.386,1.386,0,0,0,.078.272,1.223,1.223,0,0,1-.2.738c-0.63.964-1.814,0.957-3.1,1.282-1.6.406-3.563,0.708-5.137,0.932a0.884,0.884,0,0,1-.157.544v0.039H31.333V18.179a1.378,1.378,0,0,1-.118-0.117V17.752l-2,.466a1.328,1.328,0,0,1-.078.583H29.059a0.584,0.584,0,0,1-.078-0.155A0.549,0.549,0,0,0,28.9,18.3a11.078,11.078,0,0,1-2.079.544v0.116a0.4,0.4,0,0,1-.078.427l-0.118-.039a0.738,0.738,0,0,0-.118-0.466,10.191,10.191,0,0,1-2.078.35,0.921,0.921,0,0,1-.039.427,0.518,0.518,0,0,1-.078.155H24.275V19.772c-0.271-.235.113-0.446-0.314-0.466-0.422.257-1.413,0.071-1.8,0.35a0.535,0.535,0,0,1-.079.544H22.039V20.16a0.45,0.45,0,0,1-.078-0.5H21.843q-0.019.6-.039,1.2a7.748,7.748,0,0,1-.039,1.36c-0.058.265,0.008,0.638-.039,0.855-0.113.518-.011,1.143-0.118,1.632v0.583c-0.159.725-.027,1.532-0.2,2.292a14.987,14.987,0,0,0-.314,2.758l4.118,0.7a8.605,8.605,0,0,0,1.333.233,1.114,1.114,0,0,0,.079-0.194h0.039v0.039a0.763,0.763,0,0,0,.157.233c0.183,0.124.418,0.147,0.588,0.272a1.468,1.468,0,0,1,.274,1.865,9.572,9.572,0,0,1-1.059.7V34.029c-2.093.047-4.057,0.148-6.118,0.155a1.4,1.4,0,0,1-.471.816,0.135,0.135,0,0,1-.078-0.039,1.248,1.248,0,0,1-.51-0.777l-6.078-.155v0.155H13.333c-0.07-.188-0.86-0.445-1.059-0.738a1.393,1.393,0,0,1,.98-2.1c0-.174,0-0.214.118-0.272a0.617,0.617,0,0,0,.079.233,5.923,5.923,0,0,1,1.529-.272c0.775-.2,1.614-0.221,2.431-0.427a9.573,9.573,0,0,1,1.49-.272L18.51,26.8l-0.039-.932c-0.186-.837-0.049-1.834-0.235-2.68q-0.039-1.3-.078-2.6a3.631,3.631,0,0,0-.039-0.932H18.039a0.743,0.743,0,0,1-.078.544H17.922V20.16a1.365,1.365,0,0,1-.118-0.116V19.617c-0.673-.069-1.3-0.283-2-0.311a0.6,0.6,0,0,1,0,.35,0.52,0.52,0,0,1-.078.155l-0.118-.039a2.934,2.934,0,0,1-.039-0.544,10.8,10.8,0,0,1-2.157-.35,0.774,0.774,0,0,1-.118.505H13.255V19.345A1.117,1.117,0,0,1,13.1,18.8a3.958,3.958,0,0,1-.941-0.233c-0.392-.117-0.779-0.134-1.137-0.272,0.015,0.26.036,0.436-.157,0.505V18.762a0.856,0.856,0,0,1-.078-0.544l-2.039-.466a0.8,0.8,0,0,1-.039.427l-0.118.039V18.179a0.765,0.765,0,0,1-.078-0.505A0.149,0.149,0,0,1,8.392,17.6a2.666,2.666,0,0,1-.98-0.155c-0.585-.15-1.182-0.171-1.725-0.311-1.947-.5-5.185-0.315-5.647-2.214a1.877,1.877,0,0,1,.078-0.622,4.373,4.373,0,0,0,.824-0.388c0.573-.192,1.321-0.172,1.922-0.311L4.627,13.4c1.967-.458,4.152-0.4,6.118-0.855,0.776-.18,1.583-0.142,2.314-0.311a1.411,1.411,0,0,0,.9-0.194,1.649,1.649,0,0,0,0-.816H13.686V10.6a2.564,2.564,0,0,1,.235-0.388q-0.02-.33-0.039-0.66c-0.016-.577.036-1.715,0.431-1.9A2.037,2.037,0,0,1,15.1,7.613,0.186,0.186,0,0,0,15.059,7.5a1.076,1.076,0,0,0-.471-0.039,5.064,5.064,0,0,1-1.921-.117c0.742-.009,1.557-0.075,2.392-0.078V7.185c0.215-.319-0.126-0.9.549-0.622a2.184,2.184,0,0,0,.157.66,5.765,5.765,0,0,0,1.451.039,5.015,5.015,0,0,0,.863.117V7.419H17.8a6.384,6.384,0,0,1-2.039.039l-0.039.117a0.111,0.111,0,0,0-.039.039,4.984,4.984,0,0,1,.9.039c0.461,0.8.314,2.073,0.314,3.263a4.671,4.671,0,0,0,0,.816h0.274a4.561,4.561,0,0,1,1.255-.194,19.672,19.672,0,0,1,.9-5.982,3.264,3.264,0,0,1,.274-0.816l0.2-.155A1.21,1.21,0,0,1,19.882,4V4.505Z"/>
</svg>
