<svg id="basezone" xmlns="http://www.w3.org/2000/svg" width="100" height="100" viewBox="0 0 100 100">
  <defs>
    <style>
      .cls-1 {
        fill: #fff;
      }

      .cls-1, .cls-2 {
        fill-rule: evenodd;
      }
    </style>
  </defs>
  <path class="cls-1" d="M50,1.995L98.005,50,50,98.005,1.995,50Z"/>
  <path id="O" class="cls-2" d="M70.974,38.448a20.036,20.036,0,0,0-4.368-7.835,17.488,17.488,0,0,0-7.2-4.6,30.312,30.312,0,0,0-9.942-1.494,27.565,27.565,0,0,0-10.363,1.8,19.9,19.9,0,0,0-7.49,5.172,22.1,22.1,0,0,0-4.559,8.18A35.559,35.559,0,0,0,25.517,50.5a39.692,39.692,0,0,0,1.437,11.34,19.761,19.761,0,0,0,4.31,7.892,17.5,17.5,0,0,0,7.183,4.617,30.484,30.484,0,0,0,10.1,1.513,27.715,27.715,0,0,0,10.325-1.782,19.621,19.621,0,0,0,7.49-5.172,22.244,22.244,0,0,0,4.559-8.256,36.7,36.7,0,0,0,1.532-11.034A37.706,37.706,0,0,0,70.974,38.448ZM61.243,56.876a15.84,15.84,0,0,1-2.165,5.536,11.13,11.13,0,0,1-4.023,3.755,12.679,12.679,0,0,1-6.206,1.379,13.93,13.93,0,0,1-6.168-1.207,9.505,9.505,0,0,1-3.908-3.506A15.7,15.7,0,0,1,36.7,57.3a39.417,39.417,0,0,1-.613-7.3,33.267,33.267,0,0,1,.632-6.609,15.433,15.433,0,0,1,2.165-5.459A11.417,11.417,0,0,1,42.911,34.2a12.536,12.536,0,0,1,6.207-1.4,13.473,13.473,0,0,1,6.13,1.245,9.975,9.975,0,0,1,3.927,3.525,15.293,15.293,0,0,1,2.088,5.478,37.917,37.917,0,0,1,.613,7.107A34.252,34.252,0,0,1,61.243,56.876Z"/>
</svg>
