<svg id="basezone_axis" xmlns="http://www.w3.org/2000/svg" width="100" height="100" viewBox="0 0 100 100">
  <defs>
    <style>
      .cls-1 {
        fill: #FFF;
        fill-rule: evenodd;
      }
    </style>
  </defs>
  <path id="basezone_big_allies_1_alt" class="cls-1" d="M26.169,91.141L49.9,78.264,73.723,91.2a47.767,47.767,0,0,1-47.555-.061h0ZM82.46,84.765L77.211,58.444,96.718,40.259A47.652,47.652,0,0,1,82.46,84.765h0ZM2.308,49.871a47.812,47.812,0,0,1,.94-9.46L22.581,58.439,17.359,84.6A47.487,47.487,0,0,1,2.308,49.871h0Zm90.6-20.8-26.133-2.7L54.983,2.49A47.749,47.749,0,0,1,92.912,29.072h0ZM44.8,2.512L33.017,26.364,7.1,29.043A47.752,47.752,0,0,1,44.8,2.512h0ZM61.75,65.53a3.453,3.453,0,0,0-.248-0.978,1.359,1.359,0,0,0-.4-0.543,0.847,0.847,0,0,0-.511-0.171H54.05V30.656a0.825,0.825,0,0,0-.124-0.466,0.868,0.868,0,0,0-.5-0.295,5.438,5.438,0,0,0-1.1-.155q-0.728-.047-1.906-0.047-0.961,0-1.565.015t-0.976.062a3.257,3.257,0,0,0-.6.124,1.253,1.253,0,0,0-.387.2l-8.614,5.587a3.934,3.934,0,0,0-.589.466,1.5,1.5,0,0,0-.341.559,2.977,2.977,0,0,0-.155.823q-0.031.482-.031,1.226a13.78,13.78,0,0,0,.093,1.831,1.612,1.612,0,0,0,.356.916,0.763,0.763,0,0,0,.713.186,4.717,4.717,0,0,0,1.162-.419l6.445-3.57V63.839H38.463a0.781,0.781,0,0,0-.5.171,1.436,1.436,0,0,0-.387.543,3.423,3.423,0,0,0-.248.978,12.129,12.129,0,0,0-.078,1.506,9.924,9.924,0,0,0,.093,1.474,3.517,3.517,0,0,0,.263.962,1.3,1.3,0,0,0,.387.512,0.78,0.78,0,0,0,.465.155H60.588a0.829,0.829,0,0,0,.5-0.155,1.306,1.306,0,0,0,.387-0.512,3.527,3.527,0,0,0,.263-0.962,9.909,9.909,0,0,0,.093-1.474A12.248,12.248,0,0,0,61.75,65.53Z"/>
</svg>
