<?xml version="1.0" encoding="UTF-8"?>
<svg id="letters_aligned" xmlns="http://www.w3.org/2000/svg" width="21" height="21" viewBox="0 0 21 21">
  <defs>
    <style>
      .cls-1 {
        fill: #fff;
      }
    </style>
  </defs>
  <path class="cls-1" d="M12,6.27v6.14h0c0,.4-.04.76-.12,1.08h0c-.08.32-.22.59-.42.82h0c-.2.23-.45.4-.77.51h0c-.32.12-.71.18-1.18.18h0c-.15,0-.3-.01-.44-.03h0c-.15-.02-.28-.05-.4-.08h0c-.12-.03-.23-.07-.32-.1h0c-.09-.04-.15-.07-.18-.1h0s-.05-.06-.07-.09h0s-.04-.07-.05-.13h0c-.01-.05-.02-.12-.03-.19h0c0-.08,0-.17,0-.29h0c0-.15,0-.29.01-.39h0c0-.11.02-.19.04-.25h0c.02-.06.04-.1.07-.13h0s.07-.04.12-.04h0s.1.01.16.04h0c.06.03.13.06.2.09h0c.07.03.16.06.26.09h0c.1.03.22.04.35.04h0c.13,0,.25-.02.35-.05h0c.1-.03.19-.09.25-.18h0c.07-.08.12-.2.15-.34h0c.03-.14.05-.32.05-.55h0v-6.06h0s.02-.09.05-.12h0s.08-.06.16-.09h0c.07-.02.17-.04.3-.05h0c.13-.01.29-.02.48-.02h0c.19,0,.35,0,.47.02h0c.12.01.23.03.3.05h0c.08.02.13.05.16.09h0s.05.07.05.12h0Z"/>
</svg>