<svg id="basezone" xmlns="http://www.w3.org/2000/svg" width="100" height="100" viewBox="0 0 100 100">
  <defs>
    <style>
      .cls-1 {
        fill: #fff;
      }

      .cls-1, .cls-2 {
        fill-rule: evenodd;
      }
    </style>
  </defs>
  <path class="cls-1" d="M50,1.995L98.005,50,50,98.005,1.995,50Z"/>
  <path id="A" class="cls-2" d="M57.14,23.281a3.727,3.727,0,0,0-.556-1.149,1.992,1.992,0,0,0-1.073-.632,9.608,9.608,0,0,0-2.088-.268q-1.341-.057-3.6-0.057-1.954,0-3.142.057a7.723,7.723,0,0,0-1.858.268,1.9,1.9,0,0,0-.977.613,3.847,3.847,0,0,0-.536,1.054L28.023,67.147a12.491,12.491,0,0,0-.575,2.145,1.5,1.5,0,0,0,.268,1.245,2.1,2.1,0,0,0,1.379.556,25.5,25.5,0,0,0,2.758.115q1.647,0,2.663-.077a5.9,5.9,0,0,0,1.571-.287,1.641,1.641,0,0,0,.8-0.575,3.1,3.1,0,0,0,.4-0.9l3.142-9.693H59.056l3.333,9.961a2.606,2.606,0,0,0,.383.8,1.516,1.516,0,0,0,.8.479,7.534,7.534,0,0,0,1.667.23q1.092,0.057,3.046.057,1.877,0,2.95-.1a2.5,2.5,0,0,0,1.494-.5,1.318,1.318,0,0,0,.306-1.207,13.364,13.364,0,0,0-.575-2.184ZM56.719,51.938H42.658l7.011-21.071h0.038Z"/>
</svg>
