<svg id="basezone_axis" xmlns="http://www.w3.org/2000/svg" width="100" height="100" viewBox="0 0 100 100">
  <defs>
    <style>
      .cls-1 {
        fill: #fff;
        fill-rule: evenodd;
      }
    </style>
  </defs>
  <path id="basezone_big_allies_2_alt" class="cls-1" d="M26.169,91.141L49.9,78.264,73.723,91.2a47.767,47.767,0,0,1-47.555-.061h0ZM82.46,84.765L77.211,58.444,96.718,40.259A47.652,47.652,0,0,1,82.46,84.765h0ZM2.308,49.871a47.812,47.812,0,0,1,.94-9.46L22.581,58.439,17.359,84.6A47.487,47.487,0,0,1,2.308,49.871h0Zm90.6-20.8-26.133-2.7L54.983,2.49A47.749,47.749,0,0,1,92.912,29.072h0ZM44.8,2.512L33.017,26.364,7.1,29.043A47.752,47.752,0,0,1,44.8,2.512h0ZM62.9,65.955a3.632,3.632,0,0,0-.28-1.027,1.457,1.457,0,0,0-.451-0.576,0.977,0.977,0,0,0-.575-0.187H45.74l4.695-4.825a77.838,77.838,0,0,0,5.69-6.18A32.5,32.5,0,0,0,59.452,48.3a14.76,14.76,0,0,0,1.555-4.094,19.977,19.977,0,0,0,.373-3.86,11.387,11.387,0,0,0-.762-4.187A8.873,8.873,0,0,0,58.3,32.8a10.886,10.886,0,0,0-3.9-2.21,17.149,17.149,0,0,0-5.488-.794,19.125,19.125,0,0,0-3.824.373,24.534,24.534,0,0,0-3.358.918,17.635,17.635,0,0,0-2.565,1.121,7.392,7.392,0,0,0-1.43.95,3.233,3.233,0,0,0-.544.638,2.435,2.435,0,0,0-.249.623,5.452,5.452,0,0,0-.14.84q-0.047.483-.047,1.2a17.293,17.293,0,0,0,.078,1.79,7.126,7.126,0,0,0,.2,1.167,1.332,1.332,0,0,0,.326.623,0.685,0.685,0,0,0,.482.187,2.275,2.275,0,0,0,1.119-.482q0.715-.482,1.788-1.059a15.616,15.616,0,0,1,2.487-1.043,10.356,10.356,0,0,1,3.249-.467,6.045,6.045,0,0,1,2.27.389,4.411,4.411,0,0,1,1.6,1.074,4.583,4.583,0,0,1,.964,1.6,5.767,5.767,0,0,1,.326,1.946,11.425,11.425,0,0,1-.264,2.366,12.136,12.136,0,0,1-.979,2.724,23.111,23.111,0,0,1-1.99,3.269,36.784,36.784,0,0,1-3.358,3.969l-6.965,7.472a11.3,11.3,0,0,0-1.011,1.2,6.059,6.059,0,0,0-.637,1.121,4.821,4.821,0,0,0-.342,1.307,14.2,14.2,0,0,0-.093,1.759,9.152,9.152,0,0,0,.14,1.775,2.262,2.262,0,0,0,.451,1.043,1.529,1.529,0,0,0,.808.483,4.9,4.9,0,0,0,1.181.124H61.721a0.964,0.964,0,0,0,.56-0.171,1.192,1.192,0,0,0,.4-0.576,4.486,4.486,0,0,0,.233-1.043A13.067,13.067,0,0,0,63,67.465,10.6,10.6,0,0,0,62.9,65.955Z"/>
</svg>
