<svg xmlns="http://www.w3.org/2000/svg" style="isolation:isolate" width="21" height="21">
    <defs>
        <clipPath id="a">
            <path d="M0 0H21V21H0z"/>
        </clipPath>
    </defs>
    <g clip-path="url(#a)" fill-rule="nonzero">
        <path d="M 10.5 0.5 L 20.5 10.5 L 10.5 20.5 L 0.5 10.5 L 10.5 0.5 Z" fill="none" stroke="#FFFFFF" stroke-width="1" stroke-linejoin="miter"/>
        <path d="M 11.853 5.435 C 11.831 5.357 11.795 5.283 11.748 5.217 C 11.695 5.157 11.624 5.115 11.545 5.097 C 11.415 5.066 11.282 5.049 11.149 5.047 Q 10.895 5.036 10.466 5.036 Q 10.096 5.036 9.871 5.047 C 9.752 5.049 9.634 5.066 9.519 5.097 C 9.446 5.116 9.382 5.157 9.333 5.214 C 9.289 5.275 9.255 5.342 9.232 5.413 L 6.334 13.75 C 6.286 13.882 6.249 14.019 6.225 14.157 C 6.206 14.239 6.225 14.326 6.276 14.393 C 6.347 14.459 6.44 14.496 6.537 14.498 C 6.711 14.515 6.885 14.522 7.06 14.52 Q 7.372 14.52 7.565 14.506 C 7.666 14.501 7.766 14.483 7.863 14.451 C 7.923 14.431 7.976 14.393 8.014 14.342 C 8.048 14.29 8.074 14.232 8.09 14.172 L 8.686 12.334 L 12.217 12.334 L 12.849 14.222 C 12.864 14.277 12.888 14.328 12.921 14.374 C 12.961 14.42 13.014 14.451 13.073 14.465 C 13.176 14.491 13.282 14.506 13.389 14.509 Q 13.596 14.519 13.966 14.519 Q 14.322 14.519 14.525 14.5 C 14.628 14.5 14.727 14.467 14.809 14.406 C 14.865 14.344 14.887 14.258 14.867 14.177 C 14.842 14.036 14.806 13.897 14.758 13.763 L 11.853 5.435 Z M 11.774 10.867 L 9.108 10.867 L 10.437 6.873 L 10.444 6.873 L 11.774 10.867 Z" fill="#FFFFFF"/>
    </g>
</svg>