<svg xmlns="http://www.w3.org/2000/svg" style="isolation:isolate" width="21" height="21"><defs><clipPath id="a"><path d="M0 0H21V21H0z"/></clipPath></defs><g clip-path="url(#a)" fill-rule="evenodd"><path d="M 10.5 0 L 21 10.5 L 10.5 21 L 0 10.5 L 10.5 0 Z" fill-opacity="0.5"/><path d="M 10.5 1.4 L 19.6 10.5 L 10.5 19.6 L 1.4 10.5 L 10.5 1.4 Z" fill="#FFF"/><path d="M 14.279 6.045 C 14.279 5.999 14.267 5.954 14.242 5.914 C 14.21 5.869 14.166 5.834 14.115 5.813 C 14.033 5.778 13.946 5.758 13.857 5.751 C 13.72 5.738 13.581 5.731 13.443 5.732 C 13.3 5.731 13.157 5.737 13.015 5.751 C 12.923 5.759 12.832 5.779 12.746 5.813 C 12.69 5.834 12.64 5.869 12.601 5.914 C 12.572 5.952 12.557 5.998 12.557 6.045 L 12.557 10.453 Q 12.557 10.954 12.568 11.506 Q 12.579 12.058 12.601 12.566 L 12.594 12.566 Q 12.463 12.276 12.325 11.985 Q 12.187 11.695 12.042 11.393 Q 11.897 11.092 11.741 10.791 Q 11.584 10.489 11.425 10.178 L 9.594 6.742 C 9.516 6.577 9.426 6.418 9.325 6.266 C 9.249 6.151 9.155 6.049 9.045 5.965 C 8.944 5.891 8.829 5.838 8.707 5.809 C 8.555 5.774 8.4 5.758 8.244 5.761 L 7.221 5.761 C 7.042 5.756 6.867 5.816 6.73 5.932 C 6.59 6.063 6.516 6.251 6.531 6.443 L 6.531 14.89 C 6.53 14.937 6.543 14.982 6.567 15.021 C 6.599 15.067 6.645 15.101 6.698 15.119 C 6.782 15.151 6.87 15.172 6.959 15.181 C 7.099 15.197 7.24 15.204 7.38 15.203 C 7.523 15.205 7.667 15.197 7.809 15.181 C 7.899 15.172 7.989 15.151 8.074 15.119 C 8.129 15.101 8.177 15.067 8.212 15.021 C 8.239 14.983 8.253 14.937 8.252 14.89 L 8.252 9.974 Q 8.252 9.422 8.238 8.903 Q 8.223 8.383 8.194 7.86 L 8.206 7.86 Q 8.373 8.289 8.584 8.742 Q 8.794 9.196 8.998 9.588 L 11.337 13.983 Q 11.519 14.346 11.664 14.574 C 11.746 14.71 11.848 14.832 11.966 14.937 C 12.064 15.024 12.181 15.087 12.307 15.123 C 12.45 15.159 12.598 15.176 12.746 15.174 L 13.56 15.174 C 13.652 15.173 13.744 15.16 13.832 15.134 C 13.918 15.109 13.997 15.065 14.064 15.006 C 14.131 14.946 14.185 14.871 14.221 14.788 C 14.261 14.694 14.281 14.593 14.279 14.491 L 14.279 6.045 L 14.279 6.045 Z"/></g></svg>