<?xml version="1.0" encoding="UTF-8"?>
<svg id="letters_aligned" xmlns="http://www.w3.org/2000/svg" width="21" height="21" viewBox="0 0 21 21">
  <defs>
    <style>
      .cls-1 {
        fill: #fff;
        fill-rule: evenodd;
      }
    </style>
  </defs>
  <path id="G" class="cls-1" d="M13.95,6.99c-.02-.1-.07-.19-.14-.27-.1-.09-.22-.16-.34-.22-.2-.1-.4-.18-.62-.24-.29-.08-.58-.15-.87-.19-.37-.05-.74-.08-1.11-.08-.68,0-1.36.1-2.01.32-.58.2-1.1.51-1.54.91-.43.41-.77.9-.98,1.45-.24.62-.36,1.27-.35,1.92-.01.63.1,1.26.32,1.85.4,1.06,1.3,1.89,2.44,2.25.65.21,1.32.31,2.01.3.26,0,.51-.01.76-.03.25-.02.5-.06.75-.1.25-.04.49-.1.72-.16.23-.06.43-.12.58-.18.13-.04.24-.12.31-.24.05-.11.08-.23.08-.35v-3.46c0-.08-.01-.16-.04-.24-.02-.07-.06-.13-.1-.18-.04-.05-.1-.09-.16-.11-.07-.03-.14-.04-.21-.04h-3.16s-.08.01-.12.04c-.04.03-.07.07-.09.11-.03.07-.05.13-.05.21-.01.1-.02.21-.02.32-.01.17.01.35.07.51.03.09.11.15.2.15h1.77v2.02c-.18.09-.38.16-.58.2-.21.04-.42.07-.63.07-.41,0-.81-.06-1.19-.2-.35-.12-.67-.32-.92-.58-.27-.28-.47-.6-.6-.95-.15-.42-.22-.87-.21-1.32,0-.42.07-.84.21-1.24.13-.36.33-.68.6-.96.26-.27.58-.48.94-.62.39-.15.81-.22,1.23-.22.38,0,.75.04,1.12.12.28.07.56.16.83.26.19.08.38.16.56.26.09.06.19.1.3.12.04,0,.08-.01.11-.03.04-.03.07-.07.08-.12.03-.07.04-.15.05-.23.01-.11.02-.22.02-.34,0-.17-.01-.34-.04-.51Z"/>
</svg>