<svg id="basezone" xmlns="http://www.w3.org/2000/svg" width="100" height="100" viewBox="0 0 100 100">
  <defs>
    <style>
      .cls-1 {
        fill: #fff;
      }

      .cls-1, .cls-2 {
        fill-rule: evenodd;
      }
    </style>
  </defs>
  <path class="cls-1" d="M50,1.995L98.005,50,50,98.005,1.995,50Z"/>
  <path id="L" class="cls-2" d="M66,67.121a5.2,5.2,0,0,0-.287-1.264,1.542,1.542,0,0,0-.479-0.69,1.107,1.107,0,0,0-.671-0.211H48.969V24.449a1.068,1.068,0,0,0-.249-0.69,1.754,1.754,0,0,0-.824-0.5,8.058,8.058,0,0,0-1.532-.306,21.3,21.3,0,0,0-2.452-.115,19.076,19.076,0,0,0-2.308.115,8.083,8.083,0,0,0-1.552.306,1.75,1.75,0,0,0-.824.5,1.064,1.064,0,0,0-.249.69V69.84a3.062,3.062,0,0,0,.862,2.433,3.132,3.132,0,0,0,2.126.747H64.562a1.042,1.042,0,0,0,.671-0.23,1.685,1.685,0,0,0,.479-0.747,5.868,5.868,0,0,0,.287-1.3,16.473,16.473,0,0,0,.1-1.935A12.193,12.193,0,0,0,66,67.121Z"/>
</svg>
