<svg id="basezone" xmlns="http://www.w3.org/2000/svg" width="100" height="100" viewBox="0 0 100 100">
  <defs>
    <style>
      .cls-1 {
        fill: #fff;
      }

      .cls-1, .cls-2 {
        fill-rule: evenodd;
      }
    </style>
  </defs>
  <path class="cls-1" d="M50,1.995L98.005,50,50,98.005,1.995,50Z"/>
  <path id="I" class="cls-2" d="M55,26.594a1.075,1.075,0,0,0-.246-0.689,1.729,1.729,0,0,0-.813-0.5,7.883,7.883,0,0,0-1.514-.306,20.784,20.784,0,0,0-2.422-.115,20.367,20.367,0,0,0-2.384.115,8.325,8.325,0,0,0-1.532.306,1.733,1.733,0,0,0-.832.5,1.072,1.072,0,0,0-.246.689V73.382a1.069,1.069,0,0,0,.246.689,1.717,1.717,0,0,0,.813.5,7.862,7.862,0,0,0,1.532.306,25.378,25.378,0,0,0,4.824,0,7.837,7.837,0,0,0,1.514-.306,1.72,1.72,0,0,0,.813-0.5A1.073,1.073,0,0,0,55,73.382V26.594Z"/>
</svg>
