<svg id="basezone_axis" xmlns="http://www.w3.org/2000/svg" width="100" height="100" viewBox="0 0 100 100">
  <defs>
    <style>
      .cls-1 {
        fill: #fff;
        fill-rule: evenodd;
      }
    </style>
  </defs>
  <path id="basezone_big_allies_5" class="cls-1" d="M30.237,93.07L49.892,82.75,69.64,93.125a47.832,47.832,0,0,1-39.4-.056h0ZM74.528,84L49.894,71.062,25.258,84l4.706-27.4L10.036,37.189l27.542-4L49.9,8.262,62.214,33.2l27.542,4L69.826,56.6l4.7,27.4h0Zm9.512-.943L80.213,60.75,97.36,44.057a48.07,48.07,0,0,1,.332,5.647A47.454,47.454,0,0,1,84.04,83.059h0ZM2.308,49.7a48.186,48.186,0,0,1,.31-5.47L19.573,60.746l-3.8,22.124A47.441,47.441,0,0,1,2.308,49.7h0ZM92.79,28.654L68.634,25.148,57.523,2.657a47.774,47.774,0,0,1,35.267,26h0ZM42.251,2.692L31.158,25.143,7.23,28.614A47.777,47.777,0,0,1,42.251,2.692h0ZM59.173,51.184A6.962,6.962,0,0,0,57.282,48.5a8.3,8.3,0,0,0-3.066-1.639,14.29,14.29,0,0,0-4.174-.558q-0.851,0-1.623.023t-1.556.114V40.13h10.3a0.769,0.769,0,0,0,.683-0.615,6.022,6.022,0,0,0,.235-1.981,10.572,10.572,0,0,0-.056-1.173,2.988,2.988,0,0,0-.179-0.785,1.027,1.027,0,0,0-.3-0.433,0.617,0.617,0,0,0-.38-0.137H43.438a1.4,1.4,0,0,0-1.108.4,1.982,1.982,0,0,0-.347,1.309v12.8a1.943,1.943,0,0,0,.28,1.218,1.156,1.156,0,0,0,.929.33,15.754,15.754,0,0,0,2-.137,18.622,18.622,0,0,1,2.361-.137,11.221,11.221,0,0,1,2.775.3,4.749,4.749,0,0,1,1.858.888,3.524,3.524,0,0,1,1.052,1.446,5.289,5.289,0,0,1,.336,1.947,5.378,5.378,0,0,1-.4,2.186,4.021,4.021,0,0,1-1.142,1.514,4.624,4.624,0,0,1-1.8.877,9.493,9.493,0,0,1-2.361.273A10.992,10.992,0,0,1,45.3,59.95a11.661,11.661,0,0,1-3.033-1.161,1.618,1.618,0,0,0-.683-0.262,0.47,0.47,0,0,0-.313.114,0.921,0.921,0,0,0-.235.387,2.992,2.992,0,0,0-.146.717q-0.045.444-.045,1.081,0,0.592.022,1.025a5.15,5.15,0,0,0,.078.717,2.348,2.348,0,0,0,.145.489,1.09,1.09,0,0,0,.28.376,3.275,3.275,0,0,0,.806.433,12.467,12.467,0,0,0,1.578.524,17.837,17.837,0,0,0,2.171.433,18.235,18.235,0,0,0,2.552.171,14.911,14.911,0,0,0,4.644-.683A10.283,10.283,0,0,0,56.7,62.341a8.714,8.714,0,0,0,2.305-3.165,10.61,10.61,0,0,0,.817-4.269A9.88,9.88,0,0,0,59.173,51.184Z"/>
</svg>
