<svg width="21" height="21" viewBox="0 0 21 21" fill="none" xmlns="http://www.w3.org/2000/svg">
<path d="M13.9034 8.77654C13.9733 9.06694 13.7381 9.32842 13.4394 9.32842H12.5349C12.285 9.32842 12.0814 9.14042 11.9978 8.90495C11.9664 8.81665 11.9292 8.73293 11.8861 8.6538C11.779 8.45425 11.6415 8.28447 11.4737 8.14449C11.3058 8.0045 11.112 7.89727 10.892 7.82281C10.675 7.74835 10.4391 7.71112 10.1845 7.71112C9.7244 7.71112 9.3236 7.82877 8.98209 8.06407C8.64062 8.29639 8.37584 8.63593 8.18774 9.0827C7.99964 9.52649 7.90559 10.0656 7.90559 10.7C7.90559 11.3523 7.99964 11.9003 8.18774 12.3441C8.37873 12.7879 8.64496 13.123 8.98643 13.3493C9.3279 13.5757 9.7229 13.6889 10.1715 13.6889C10.4232 13.6889 10.6562 13.6546 10.8703 13.5861C11.0874 13.5176 11.2798 13.4178 11.4476 13.2868C11.6155 13.1528 11.7544 12.9904 11.8644 12.7998C11.9106 12.7218 11.9509 12.6393 11.9855 12.5522C12.0753 12.3261 12.2764 12.1484 12.5197 12.1495L13.4407 12.1538C13.7389 12.1552 13.9723 12.4175 13.8915 12.7046C13.8277 12.9316 13.7408 13.1539 13.631 13.3717C13.4371 13.7589 13.1753 14.1059 12.8454 14.4126C12.5184 14.7164 12.1277 14.9577 11.6734 15.1364C11.2219 15.3121 10.7112 15.4 10.1411 15.4C9.3482 15.4 8.63918 15.2153 8.01411 14.846C7.39193 14.4767 6.89998 13.942 6.53825 13.2421C6.17942 12.5422 6 11.6948 6 10.7C6 9.70222 6.18231 8.85336 6.54693 8.15342C6.91156 7.45349 7.4064 6.92034 8.03147 6.55399C8.65654 6.18466 9.3597 6 10.1411 6C10.6562 6 11.1337 6.07446 11.5735 6.22338C12.0163 6.37231 12.4084 6.58973 12.7499 6.87567C13.0913 7.15862 13.3691 7.50561 13.5833 7.91664C13.7218 8.179 13.8285 8.46564 13.9034 8.77654Z" fill="white"/>
</svg>
