<svg xmlns="http://www.w3.org/2000/svg" style="isolation:isolate" width="21" height="21"><defs><clipPath id="a"><path d="M0 0H21V21H0z"/></clipPath></defs><g clip-path="url(#a)" fill-rule="evenodd"><path d="M 10.5 0 L 21 10.5 L 10.5 21 L 0 10.5 L 10.5 0 Z" fill-opacity="0.5"/><path d="M 10.5 1.4 L 19.6 10.5 L 10.5 19.6 L 1.4 10.5 L 10.5 1.4 Z" fill="#FFF"/><path d="M 13.533 13.746 C 13.525 13.664 13.507 13.583 13.479 13.506 C 13.461 13.455 13.43 13.409 13.388 13.375 C 13.351 13.348 13.306 13.334 13.261 13.335 L 10.305 13.335 L 10.305 5.656 C 10.305 5.609 10.288 5.562 10.257 5.526 C 10.215 5.48 10.161 5.447 10.101 5.431 C 10.006 5.402 9.909 5.383 9.811 5.373 C 9.656 5.357 9.501 5.349 9.346 5.351 C 9.2 5.349 9.054 5.357 8.908 5.373 C 8.809 5.383 8.71 5.402 8.614 5.431 C 8.554 5.447 8.5 5.48 8.458 5.526 C 8.427 5.562 8.411 5.609 8.411 5.656 L 8.411 14.261 C 8.395 14.431 8.454 14.6 8.574 14.722 C 8.686 14.818 8.83 14.868 8.977 14.864 L 13.26 14.864 C 13.307 14.865 13.352 14.849 13.388 14.82 C 13.43 14.782 13.461 14.733 13.478 14.679 C 13.506 14.599 13.524 14.516 13.533 14.432 C 13.546 14.31 13.553 14.188 13.552 14.065 C 13.553 13.958 13.547 13.852 13.533 13.746 L 13.533 13.746 Z"/></g></svg>