<svg xmlns="http://www.w3.org/2000/svg" style="isolation:isolate" width="21" height="27"><defs><clipPath id="a"><path d="M0 0H21V27H0z"/></clipPath></defs><g clip-path="url(#a)"><path d="M 2.5 13.5 C 2.5 9.085 6.085 5.5 10.5 5.5 C 14.915 5.5 18.5 9.085 18.5 13.5 C 18.5 17.915 14.915 21.5 10.5 21.5 C 6.085 21.5 2.5 17.915 2.5 13.5 Z" fill-opacity="0.25"/><path d="M 1 13.5 C 1 8.257 5.257 4 10.5 4 C 15.743 4 20 8.257 20 13.5 C 20 18.743 15.743 23 10.5 23 C 5.257 23 1 18.743 1 13.5 Z M 2.25 13.5 C 2.25 8.947 5.947 5.25 10.5 5.25 C 15.053 5.25 18.75 8.947 18.75 13.5 C 18.75 18.053 15.053 21.75 10.5 21.75 C 5.947 21.75 2.25 18.053 2.25 13.5 Z" fill-rule="evenodd" fill-opacity="0.5"/><path d="M 2 13.5 C 2 8.809 5.809 5 10.5 5 C 15.191 5 19 8.809 19 13.5 C 19 18.191 15.191 22 10.5 22 C 5.809 22 2 18.191 2 13.5 Z M 3 13.5 C 3 9.361 6.361 6 10.5 6 C 14.639 6 18 9.361 18 13.5 C 18 17.639 14.639 21 10.5 21 C 6.361 21 3 17.639 3 13.5 Z" fill-rule="evenodd" fill="#FFF"/><path d="M 4 13.5 C 4 9.913 6.913 7 10.5 7 C 14.087 7 17 9.913 17 13.5 C 17 17.087 14.087 20 10.5 20 C 6.913 20 4 17.087 4 13.5 Z M 14.102 18.465 L 10.5 16.571 L 6.898 18.465 L 7.586 14.454 L 4.672 11.614 L 8.698 11.029 L 10.5 7.379 L 12.302 11.029 L 16.328 11.614 L 13.414 14.454 L 14.102 18.465 Z" fill-rule="evenodd" fill="#FFF"/></g></svg>