<svg xmlns="http://www.w3.org/2000/svg" style="isolation:isolate" width="21" height="21"><defs><clipPath id="a"><path d="M0 0H21V21H0z"/></clipPath></defs><g clip-path="url(#a)"><path d="M 10.5 0 L 21 10.5 L 10.5 21 L 0 10.5 L 10.5 0 Z" fill-rule="evenodd" fill-opacity="0.5"/><path d="M 10.5 1.4 L 19.6 10.5 L 10.5 19.6 L 1.4 10.5 L 10.5 1.4 Z" fill-rule="evenodd" fill="#FFF"/><path d="M 12.435 6.046 L 12.435 12.544 L 12.435 12.544 Q 12.435 13.179 12.316 13.688 L 12.316 13.688 L 12.316 13.688 Q 12.197 14.197 11.911 14.555 L 11.911 14.555 L 11.911 14.555 Q 11.626 14.912 11.164 15.1 L 11.164 15.1 L 11.164 15.1 Q 10.702 15.288 10.023 15.288 L 10.023 15.288 L 10.023 15.288 Q 9.807 15.288 9.594 15.255 L 9.594 15.255 L 9.594 15.255 Q 9.381 15.223 9.204 15.172 L 9.204 15.172 L 9.204 15.172 Q 9.027 15.122 8.897 15.064 L 8.897 15.064 L 8.897 15.064 Q 8.767 15.006 8.724 14.959 L 8.724 14.959 L 8.724 14.959 Q 8.681 14.912 8.652 14.862 L 8.652 14.862 L 8.652 14.862 Q 8.623 14.811 8.601 14.728 L 8.601 14.728 L 8.601 14.728 Q 8.58 14.645 8.572 14.522 L 8.572 14.522 L 8.572 14.522 Q 8.565 14.4 8.565 14.212 L 8.565 14.212 L 8.565 14.212 Q 8.565 13.966 8.576 13.797 L 8.576 13.797 L 8.576 13.797 Q 8.587 13.627 8.612 13.53 L 8.612 13.53 L 8.612 13.53 Q 8.637 13.432 8.684 13.393 L 8.684 13.393 L 8.684 13.393 Q 8.731 13.353 8.803 13.353 L 8.803 13.353 L 8.803 13.353 Q 8.868 13.353 8.955 13.4 L 8.955 13.4 L 8.955 13.4 Q 9.042 13.447 9.15 13.497 L 9.15 13.497 L 9.15 13.497 Q 9.258 13.548 9.403 13.595 L 9.403 13.595 L 9.403 13.595 Q 9.547 13.642 9.742 13.642 L 9.742 13.642 L 9.742 13.642 Q 9.937 13.642 10.085 13.587 L 10.085 13.587 L 10.085 13.587 Q 10.233 13.533 10.33 13.4 L 10.33 13.4 L 10.33 13.4 Q 10.428 13.266 10.478 13.042 L 10.478 13.042 L 10.478 13.042 Q 10.529 12.819 10.529 12.465 L 10.529 12.465 L 10.529 6.046 L 10.529 6.046 Q 10.529 5.974 10.576 5.92 L 10.576 5.92 L 10.576 5.92 Q 10.623 5.866 10.727 5.83 L 10.727 5.83 L 10.727 5.83 Q 10.832 5.794 11.02 5.776 L 11.02 5.776 L 11.02 5.776 Q 11.207 5.758 11.482 5.758 L 11.482 5.758 L 11.482 5.758 Q 11.756 5.758 11.937 5.776 L 11.937 5.776 L 11.937 5.776 Q 12.117 5.794 12.229 5.83 L 12.229 5.83 L 12.229 5.83 Q 12.341 5.866 12.388 5.92 L 12.388 5.92 L 12.388 5.92 Q 12.435 5.974 12.435 6.046 L 12.435 6.046 Z"/></g></svg>