<svg id="basezone_axis" xmlns="http://www.w3.org/2000/svg" width="100" height="100" viewBox="0 0 100 100">
  <defs>
    <style>
      .cls-1 {
        fill: #fff;
        fill-rule: evenodd;
      }
    </style>
  </defs>
  <path id="basezone_big_axis_4" class="cls-1" d="M96.2,63H63V96.2a48.048,48.048,0,0,1-27-.284V63H3.8A48.048,48.048,0,0,1,4.08,36H36V4.08A48.048,48.048,0,0,1,63,3.8V36H95.92A48.048,48.048,0,0,1,96.2,63ZM59.3,53.682a0.786,0.786,0,0,0-.645-0.559h-2.7V35.338a0.538,0.538,0,0,0-.235-0.434,2.035,2.035,0,0,0-.739-0.308,8.121,8.121,0,0,0-1.35-.183q-0.845-.057-2.042-0.057-1.1,0-1.878.046a9.4,9.4,0,0,0-1.279.148,3.033,3.033,0,0,0-.786.251,0.952,0.952,0,0,0-.4.354L37.806,51.342a7.5,7.5,0,0,0-.387.822,4.543,4.543,0,0,0-.235.822,8.038,8.038,0,0,0-.117.97q-0.035.537-.035,1.267a9.81,9.81,0,0,0,.082,1.427,2.237,2.237,0,0,0,.258.822,0.788,0.788,0,0,0,.434.365,1.976,1.976,0,0,0,.587.08h11.62V63.26a0.644,0.644,0,0,0,.129.4,0.952,0.952,0,0,0,.47.285,4.3,4.3,0,0,0,.915.171q0.575,0.057,1.42.057,0.892,0,1.456-.057a4.511,4.511,0,0,0,.916-0.171,1.045,1.045,0,0,0,.493-0.285,0.61,0.61,0,0,0,.141-0.4V57.917h2.7a0.775,0.775,0,0,0,.669-0.605,4.9,4.9,0,0,0,.247-1.769A4.622,4.622,0,0,0,59.3,53.682ZM49.966,39.539h0.047V53.123H41.961ZM70,6.367A48.193,48.193,0,0,1,93.147,29H70V6.367ZM29,6.831V29H6.856A48.186,48.186,0,0,1,29,6.831Zm0,86.339A48.2,48.2,0,0,1,6.356,70H29V93.169Zm41,0.464V70H93.632A48.193,48.193,0,0,1,70,93.633Z"/>
</svg>
