<svg xmlns="http://www.w3.org/2000/svg" style="isolation:isolate" width="100" height="100"><defs><clipPath id="a"><path d="M0 0H100V100H0z"/></clipPath></defs><g clip-path="url(#a)"><path d="M 96.2 63 L 63 63 L 63 96.2 C 54.158 98.688 44.788 98.59 36 95.916 L 36 63 L 3.8 63 C 1.311 54.158 1.408 44.788 4.08 36 L 36 36 L 36 4.08 C 44.788 1.408 54.158 1.311 63 3.8 L 63 36 L 95.92 36 C 98.592 44.788 98.689 54.158 96.2 63 L 96.2 63 Z M 70 6.367 C 80.095 11.017 88.272 19.012 93.147 29 L 70 29 L 70 6.367 L 70 6.367 Z M 29 6.831 L 29 29 L 6.856 29 C 11.561 19.35 19.355 11.547 29 6.831 L 29 6.831 Z M 29 93.17 C 19.005 88.291 11.005 80.105 6.356 70 L 29 70 L 29 93.169 L 29 93.17 Z M 70 93.634 L 70 70 L 93.632 70 C 88.826 80.444 80.444 88.826 70 93.633 L 70 93.634 Z" fill-rule="evenodd" fill="#FFF"/></g></svg>