<?xml version="1.0" encoding="UTF-8"?>
<svg id="letters_aligned" xmlns="http://www.w3.org/2000/svg" width="21" height="21" viewBox="0 0 21 21">
  <defs>
    <style>
      .cls-1 {
        fill: #fff;
        fill-rule: evenodd;
      }
    </style>
  </defs>
  <path id="L" class="cls-1" d="M13.58,13.94c0-.08-.03-.15-.06-.23-.02-.05-.05-.09-.1-.12-.04-.03-.09-.04-.14-.04h-3.28v-7.26s-.02-.09-.05-.12c-.05-.04-.1-.07-.17-.09-.1-.03-.21-.05-.32-.05-.17-.02-.27-.02-.44-.02-.16,0-.32,0-.48.02-.11,0-.22.03-.32.05-.07.02-.12.05-.17.09-.03.03-.05.08-.05.12v8.14c-.02.16.05.32.18.44.12.09.28.14.44.13h4.67c.05,0,.1-.01.14-.04.05-.04.08-.08.1-.13.03-.08.05-.15.06-.23.01-.12.02-.23.02-.35,0-.1,0-.2-.02-.3Z"/>
</svg>