<svg id="basezone" xmlns="http://www.w3.org/2000/svg" width="100" height="100" viewBox="0 0 100 100">
  <defs>
    <style>
      .cls-1 {
        fill: #fff;
      }

      .cls-1, .cls-2 {
        fill-rule: evenodd;
      }
    </style>
  </defs>
  <path class="cls-1" d="M50,1.995L98.005,50,50,98.005,1.995,50Z"/>
  <path id="H" class="cls-2" d="M68.966,26.657a1.068,1.068,0,0,0-.249-0.69,1.756,1.756,0,0,0-.824-0.5,8.059,8.059,0,0,0-1.532-.306,20.863,20.863,0,0,0-2.414-.115,19.457,19.457,0,0,0-2.346.115,7.643,7.643,0,0,0-1.532.306,1.746,1.746,0,0,0-.8.5,1.065,1.065,0,0,0-.249.69V44.981H40.972V26.657a1.122,1.122,0,0,0-.23-0.69,1.62,1.62,0,0,0-.8-0.5,8.062,8.062,0,0,0-1.532-.306,18.968,18.968,0,0,0-2.327-.115,21.373,21.373,0,0,0-2.433.115,8.086,8.086,0,0,0-1.552.306,1.753,1.753,0,0,0-.824.5,1.065,1.065,0,0,0-.249.69V73.474a1.062,1.062,0,0,0,.249.69,1.741,1.741,0,0,0,.824.5,8.039,8.039,0,0,0,1.552.306,21.4,21.4,0,0,0,2.433.115,18.991,18.991,0,0,0,2.327-.115,8.014,8.014,0,0,0,1.532-.306,1.61,1.61,0,0,0,.8-0.5,1.119,1.119,0,0,0,.23-0.69V53.937H59.015V73.474a1.062,1.062,0,0,0,.249.69,1.734,1.734,0,0,0,.8.5,7.6,7.6,0,0,0,1.532.306,19.481,19.481,0,0,0,2.346.115,20.889,20.889,0,0,0,2.414-.115,8.011,8.011,0,0,0,1.532-.306,1.744,1.744,0,0,0,.824-0.5,1.066,1.066,0,0,0,.249-0.69V26.657Z"/>
</svg>
