<svg id="basezone" xmlns="http://www.w3.org/2000/svg" width="100" height="100" viewBox="0 0 100 100">
  <defs>
    <style>
      .cls-1 {
        fill: #fff;
      }

      .cls-1, .cls-2 {
        fill-rule: evenodd;
      }
    </style>
  </defs>
  <path class="cls-1" d="M50,1.995L98.005,50,50,98.005,1.995,50Z"/>
  <path id="C" class="cls-2" d="M65.067,65.266a6.053,6.053,0,0,0-.23-1.283,1.154,1.154,0,0,0-.383-0.613,1.093,1.093,0,0,0-.613-0.153,2.853,2.853,0,0,0-1.4.613q-0.9.613-2.3,1.379a19.481,19.481,0,0,1-3.352,1.4,15.124,15.124,0,0,1-4.636.632,13.277,13.277,0,0,1-5.306-1.015,10.383,10.383,0,0,1-4.023-3.084,14.6,14.6,0,0,1-2.567-5.268,28.112,28.112,0,0,1-.9-7.567,27.99,27.99,0,0,1,.843-7.164,16.169,16.169,0,0,1,2.471-5.421,10.907,10.907,0,0,1,9.214-4.655,14.158,14.158,0,0,1,4.617.67,18.606,18.606,0,0,1,3.333,1.494,23.952,23.952,0,0,1,2.28,1.494,2.652,2.652,0,0,0,1.456.67,0.916,0.916,0,0,0,.613-0.23,1.8,1.8,0,0,0,.46-0.728,5.059,5.059,0,0,0,.268-1.3q0.076-.8.077-1.954,0-1.072-.058-1.8a9.812,9.812,0,0,0-.172-1.264,3.219,3.219,0,0,0-.306-0.881,4.314,4.314,0,0,0-.709-0.862,8.8,8.8,0,0,0-1.82-1.245,17.812,17.812,0,0,0-2.931-1.283,24.39,24.39,0,0,0-3.544-.9,22.468,22.468,0,0,0-3.985-.345,24.508,24.508,0,0,0-9.329,1.724,19.717,19.717,0,0,0-7.26,5.057,23.371,23.371,0,0,0-4.712,8.237,34.453,34.453,0,0,0-1.686,11.225,34.956,34.956,0,0,0,1.533,10.881,20.968,20.968,0,0,0,4.406,7.8,18.149,18.149,0,0,0,6.973,4.693,25.532,25.532,0,0,0,9.195,1.571,26.266,26.266,0,0,0,4.846-.421,25.691,25.691,0,0,0,3.984-1.054,19.159,19.159,0,0,0,2.95-1.322,7.789,7.789,0,0,0,1.628-1.13,4.045,4.045,0,0,0,.613-0.785,3.264,3.264,0,0,0,.306-0.824,7.866,7.866,0,0,0,.172-1.149q0.058-.67.058-1.628Q65.143,66.09,65.067,65.266Z"/>
</svg>
