<svg xmlns="http://www.w3.org/2000/svg" width="40" height="40" viewBox="0 0 40 40">
  <defs>
    <style>
      .cls-1 {
        fill: #fff;
        fill-rule: evenodd;
      }
    </style>
  </defs>
  <path id="Color_Fill_1" data-name="Color Fill 1" class="cls-1" d="M21.391,2.478l2.734-.048a4.351,4.351,0,0,1,1.1.048v0.1c-1,.252-2.563.954-3.693,0.429V3.336a0.32,0.32,0,0,1,.048.191h0.192c-0.01.2-.089,0.336-0.1,0.477a4.937,4.937,0,0,0,.336,1.383q0.048,1.979.1,3.957h-0.24V9.63l0.144,0.048c0.424,0.317,1.259.106,1.87,0.238,0.583,0.126,1.285.007,1.919,0.143a13.939,13.939,0,0,0,2.734.191V7.58h0.144V10.3a12.346,12.346,0,0,1,2.59.191c0.486,0.109,1.009,0,1.439.1,0.881,0.2,1.975,0,2.83.191h0.719a10.619,10.619,0,0,1,2.59.477,1.866,1.866,0,0,1,.911,2.527,4.883,4.883,0,0,1-2.3,1.812l-0.911.143-0.1.191-1.2.238a0.829,0.829,0,0,0-.1-0.143,2.73,2.73,0,0,1-.911.191c-1.509.422-3.206,0.605-4.748,1-1.128.29-2.507,0.223-3.453,0.715a4.9,4.9,0,0,1-1.007.143c-0.659.169-1.448,0.257-2.11,0.429a5.16,5.16,0,0,1-.576,0,1.5,1.5,0,0,0-.671.477v0.811a2.735,2.735,0,0,0-.048.715,5.153,5.153,0,0,0-.1,1.478c0.043,0.092.221,0.189,0.288,0.286h-0.1a0.76,0.76,0,0,0-.24-0.238V22.79c-0.244.4-.057,2.1-0.192,2.718l-0.288,2.956c-0.116.511-.064,1.1-0.192,1.669a11.061,11.061,0,0,0-.24,2.193,5.365,5.365,0,0,1,1.391.238c0.663,0.179,1.346.167,1.967,0.334a6.271,6.271,0,0,1,1.774.381,1.912,1.912,0,0,1,.528,1.1,1.17,1.17,0,0,1-.1.62,1.211,1.211,0,0,1-1.055.954H24.6a0.584,0.584,0,0,0-.24.191,8.173,8.173,0,0,1-.959.1c-0.225.041-.152-0.074-0.24-0.143a2.672,2.672,0,0,1-.432.048,5.561,5.561,0,0,1-1.966.1c-0.115-.211-0.348-0.461-0.432-0.667a0.838,0.838,0,0,0-.1-0.525v0.572A12.388,12.388,0,0,0,20.1,38H19.952V37.9c-0.081-.174.087-0.691,0-1.1a10.45,10.45,0,0,1-.144-1.764h-0.1a1.365,1.365,0,0,1-.48,1.192,6.448,6.448,0,0,1-2.014-.1c-0.062,0-.336-0.048-0.336-0.048-0.092.064-.011,0.181-0.24,0.143a7.992,7.992,0,0,1-.959-0.1,0.592,0.592,0,0,0-.24-0.191h-0.48a1.546,1.546,0,0,1-1.151-1.573,1.822,1.822,0,0,1,.528-1.1,5.991,5.991,0,0,1,1.775-.381c0.615-.155,1.3-0.166,1.966-0.334a6.075,6.075,0,0,1,1.391-.238,10.02,10.02,0,0,0-.24-2.193c-0.191-.836-0.11-1.7-0.288-2.479l-0.192-2.765c-0.141-.638.006-1.416-0.144-2.1-0.1-.459.017-1.011-0.1-1.526a11.555,11.555,0,0,1-.144-2.289A2.449,2.449,0,0,0,17.7,18.5a2.187,2.187,0,0,1-.336.048c-0.74-.167-1.616-0.287-2.35-0.477l-0.815-.1c-2.621-.792-5.728-1.013-8.393-1.764l-0.959-.143c-0.062.018-.038,0.117-0.192,0.1A6.426,6.426,0,0,1,3.6,15.924l-0.1-.191-0.48-.048L2.158,15.4A4.461,4.461,0,0,1,.1,13.4c-0.517-1.376,1.277-2.413,2.35-2.479a5.175,5.175,0,0,1,.1-1.526V10.87c2.977,0.018,5.846-.538,8.825-0.572V7.58h0.144V10.3h0.048l5.468-.429v-0.1a1.716,1.716,0,0,1-.336-1.24,1.534,1.534,0,0,1,.863-0.143,0.583,0.583,0,0,0,.384.429,14.3,14.3,0,0,1,.1-2.718,7.583,7.583,0,0,0,0-.858,2.241,2.241,0,0,1,.24-0.477,2.616,2.616,0,0,0,0-1.24h0.192l0.048-.334a8.386,8.386,0,0,1-2.59-.429,2.216,2.216,0,0,1-1.1-.334h3.022a2.04,2.04,0,0,0,.815.048A1.669,1.669,0,0,1,20.192,1a2.668,2.668,0,0,0,.384.191A2.084,2.084,0,0,1,21.391,2.478Z"/>
</svg>
