<svg xmlns="http://www.w3.org/2000/svg" width="39.938" height="40" viewBox="0 0 39.938 40">
  <defs>
    <style>
      .cls-1 {
        fill: #fff;
        fill-rule: evenodd;
      }
    </style>
  </defs>
  <path id="Color_Fill_1" data-name="Color Fill 1" class="cls-1" d="M39.5,15.31a6.144,6.144,0,0,0-2.128.507,11.436,11.436,0,0,0-3.631.57l-1.377.19c-1.855.489-3.84,0.577-5.759,1.077-0.972.254-2.025,0.3-3.067,0.57a2,2,0,0,1-1.315.127v0.19H22.034l-0.438.507a18.035,18.035,0,0,1-.188,3.613c-0.2.918,0,2.035-.188,2.916l-0.25,3.739a20.6,20.6,0,0,0-.376,3.169,13.556,13.556,0,0,1,3.067.507l1.69,0.253a2.223,2.223,0,0,1,.689.7,5.174,5.174,0,0,1-.125,1.648,3.292,3.292,0,0,1-.626.444l-0.939.063a10.99,10.99,0,0,1-3.318.317,4.11,4.11,0,0,1-.563-0.887,0.229,0.229,0,0,0-.063.127c-0.19.111-.188,0.134-0.188,0.444a7.281,7.281,0,0,0-.188,1.9H19.969V37.937a12.8,12.8,0,0,1-.188-2.155c-0.1-.06-0.188-0.23-0.25-0.127l-0.563.761a3.365,3.365,0,0,1-1.627-.127c-0.512-.117-0.751.122-1.252,0a6.66,6.66,0,0,1-1.753-.444l-0.376-.507a3.783,3.783,0,0,1,0-1.394c0.377-1.072,2.79-.983,3.944-1.268,0.432-.107,1.288.007,1.5-0.317-0.347-.575-0.191-2.583-0.376-3.423-0.463-2.109-.1-4.687-0.563-6.845v-1.2c-0.085-.566-0.076-1.47-0.188-1.965-0.146-.093-0.241-0.3-0.376-0.38a16.054,16.054,0,0,0-2.566-.444c-1.72-.447-3.663-0.616-5.383-1.078-0.722-.194-2.164-0.139-2.692-0.507-0.043-.049-0.082-0.142-0.125-0.19v0.19a17.1,17.1,0,0,1-3.255-.634,11.978,11.978,0,0,1-2.128-.38c-0.417-.186-1.095,0-1.377-0.317-0.6-.771-0.321-2.931-0.25-3.866A0.658,0.658,0,0,1,.626,11L18.279,9.542V8.211a5.363,5.363,0,0,1,0-1.585,9.839,9.839,0,0,1,.814-3.866A2.052,2.052,0,0,1,19.468,2h1.064l0.626,1.141c0.2,0.486.258,1.129,0.438,1.585a0.467,0.467,0,0,1-.063.317c-0.017.283,0.1,0.2,0.125,0.254C21.766,5.568,21.5,6.3,21.6,6.563a11.3,11.3,0,0,1,.125,2.979,2.8,2.8,0,0,0,.814.063,6.415,6.415,0,0,0,1.628.127c0.991,0.219,2.124.017,3.192,0.254,1,0.221,2.12.016,3.192,0.253,0.736,0.163,1.571.012,2.379,0.19,2.139,0.473,4.664.173,6.761,0.634a7.622,7.622,0,0,1-.063,4.183c-0.055-.047-0.071-0.08-0.125-0.127v0.19Zm-39-.887a0.309,0.309,0,0,0,.063.19A0.309,0.309,0,0,0,.5,14.423Zm38.936,0.254a0.309,0.309,0,0,0,.063.19v-0.19H39.437Zm-39,.254a0.309,0.309,0,0,0,.063.19A0.309,0.309,0,0,0,.438,14.93Zm32.238,0.76a0.308,0.308,0,0,0,.063.19A0.309,0.309,0,0,0,32.676,15.69ZM7.2,15.88a0.309,0.309,0,0,0,.063.19A0.309,0.309,0,0,0,7.2,15.88Zm25.54,0.254a0.307,0.307,0,0,0,.063.19A0.309,0.309,0,0,0,32.739,16.134ZM14.022,34.007a0.754,0.754,0,0,0,.313.317C14.251,34.294,14.118,34.07,14.022,34.007ZM25.853,34.07l-0.188.254C25.757,34.386,25.875,34.1,25.853,34.07Zm-6.2,1.331v0.127h0.063A0.218,0.218,0,0,0,19.656,35.4Zm0.626,0v0.063H20.219c-0.12.049,0.125,0.063,0.125,0.063A0.218,0.218,0,0,0,20.282,35.4Z" transform="translate(-0.031)"/>
</svg>
