<svg xmlns="http://www.w3.org/2000/svg" width="39.875" height="40" viewBox="0 0 39.875 40">
  <defs>
    <style>
      .cls-1 {
        fill: #fff;
        fill-rule: evenodd;
      }
    </style>
  </defs>
  <path id="Color_Fill_1" data-name="Color Fill 1" class="cls-1" d="M21.494,4.618l0.287,0.057V4.789a0.508,0.508,0,0,0-.23.455h0.23V5.3h0.057a3.2,3.2,0,0,0-.23.512,1.24,1.24,0,0,1,.287.114,3.4,3.4,0,0,0-.287.455h0.057a1.076,1.076,0,0,0,.287.171,0.811,0.811,0,0,0-.287.512H21.9V7.122h0.057V7.236a0.488,0.488,0,0,0-.287.4l0.345,0.114a1.933,1.933,0,0,0-.287,1.593,65.812,65.812,0,0,1,6.552.626,5.786,5.786,0,0,1,.747-0.057c0.863,0.19,1.952.088,2.816,0.285h0.747c0.894,0.2,1.91.016,2.874,0.228a23.357,23.357,0,0,0,4.023.341,2.72,2.72,0,0,1,.4.911c0.188,0.8-.085,3.05-0.46,3.244a7.7,7.7,0,0,1-1.207.228c-1.059.4-2.46,0.359-3.736,0.683-4.03,1.022-8.394,1.429-12.471,2.333a2.66,2.66,0,0,0-.4.512q-0.086,1.963-.172,3.927c-0.117.531,0.016,1.17-.115,1.764-0.366,1.658-.156,3.565-0.517,5.179-0.157.7-.017,1.428-0.23,2.049H20.69a4.446,4.446,0,0,0,1.092.171c0.878,0.217,1.939.3,2.816,0.512,0.664,0.163,1.251.125,1.322,0.854a1.5,1.5,0,0,1-.23,1.593c-0.561.556-3.443,0.754-4.655,0.74l-0.575-.8H20.4v0.057a0.311,0.311,0,0,0-.172.341A5.606,5.606,0,0,0,20.058,37H19.943V36.943c-0.044-.085-0.171-1.77-0.172-2.106a0.31,0.31,0,0,1-.23-0.171H19.483v0.057a2.134,2.134,0,0,1-.575.683,2.341,2.341,0,0,1-1.264-.057c-0.411-.061-0.805.052-1.149,0a20.557,20.557,0,0,1-2.126-.455,2.6,2.6,0,0,1-.4-0.626,2.079,2.079,0,0,1,.287-1.65,4.421,4.421,0,0,1,1.839-.455c1.032-.24,2.212-0.364,3.276-0.569V31.309a3.692,3.692,0,0,1-.115-0.967c-0.2-.872-0.077-1.839-0.287-2.789-0.138-.624-0.018-1.349-0.172-2.049-0.1-.472.005-1.047-0.115-1.594-0.363-1.651-.137-3.621-0.345-5.35a3.266,3.266,0,0,0-.517-0.455l-1.149-.171c-1.4-.359-2.9-0.423-4.368-0.8-2.8-.715-5.873-0.941-8.678-1.65-0.457-.116-0.819.032-1.207-0.057a9.756,9.756,0,0,0-1.9-.455c-0.387-.65-0.84-3.823,0-4.155a7.394,7.394,0,0,1,1.9-.171c1.094-.237,2.433-0.04,3.563-0.284l12.3-1.024a2.388,2.388,0,0,0-.287-1.593,0.332,0.332,0,0,0,.287-0.285,0.981,0.981,0,0,1-.287-0.341H18.1a0.3,0.3,0,0,1,.172-0.057,1.659,1.659,0,0,0-.23-0.569h0.115a0.3,0.3,0,0,1,.172-0.057V6.211a0.91,0.91,0,0,1-.287-0.285l0.172-.057a0.3,0.3,0,0,1,.172-0.057A1.422,1.422,0,0,0,18.1,5.3c0.231-.044.3-0.042,0.345-0.285a0.91,0.91,0,0,1-.287-0.285l0.172-.057a0.3,0.3,0,0,1,.172-0.057,4.042,4.042,0,0,1,.517-1.764,12.214,12.214,0,0,1-1.9,0,15.475,15.475,0,0,0-3.1-.4V2.341a30.589,30.589,0,0,1,4.942.114A2.733,2.733,0,0,0,19.483,2h1.034a1.464,1.464,0,0,0,.172.341,3.149,3.149,0,0,0,1.437.114,16,16,0,0,1,3.161.171,3.2,3.2,0,0,1,.747.057,16.481,16.481,0,0,0-3.276.285c-0.677.145-1.256-.155-1.782-0.057V3.081A2.266,2.266,0,0,1,21.494,4.618ZM19.655,34.382c0,0.165-.055.079,0,0.171V34.61h0.057A0.365,0.365,0,0,0,19.655,34.382Zm0.575,0.057c0.048,0.185-.028.087,0.115,0.171V34.439H20.23Z" transform="translate(-0.063 0.5)"/>
</svg>
