<svg xmlns="http://www.w3.org/2000/svg" width="40" height="40" viewBox="0 0 40 40">
  <defs>
    <style>
      .cls-1 {
        fill: #fff;
        fill-rule: evenodd;
      }
    </style>
  </defs>
  <path id="Color_Fill_1" data-name="Color Fill 1" class="cls-1" d="M21.984,9.832a0.576,0.576,0,0,0-.182.046V9.924h0.365l7.07,0.6V9.282h0.183v1.237l10.125,0.824c0.726,1.1.4,2.907,0.046,4.214a17.282,17.282,0,0,0-2.144.55,3.073,3.073,0,0,0-.593-0.046c-3.411.857-6.906,1.092-10.353,1.969-1,.254-2.016.308-2.965,0.55a5.381,5.381,0,0,0-1.551.321,3.334,3.334,0,0,0-.365.458,13.044,13.044,0,0,1-.137,2.657c-0.11.511,0.007,1.057-.091,1.511V24.26c-0.127.583-.057,1.344-0.182,1.924v0.6c-0.181.829-.036,1.739-0.228,2.611a20.147,20.147,0,0,0-.365,3.16,4.568,4.568,0,0,1,1.095.183c0.673,0.166,1.342.168,1.961,0.321a5.88,5.88,0,0,1,2.007.458,1.485,1.485,0,0,1,.365.733A2.307,2.307,0,0,1,26,35.16c-0.343,1.068-1.23.9-2.326,1.145l-0.684-.046a5.25,5.25,0,0,1-1.916.137,1.641,1.641,0,0,1-.593-0.779H20.433c-0.056.121-.187,0.159-0.228,0.275v0.412A7.43,7.43,0,0,0,20.068,38H19.932a10.089,10.089,0,0,0-.183-2.2,0.4,0.4,0,0,0-.228-0.137c-0.225.224-.379,0.545-0.593,0.779a7.966,7.966,0,0,1-1.916-.183l-0.684.046C15.24,36.072,14.336,36.22,14,35.16a2.325,2.325,0,0,1-.046-0.916c0.285-1.137,1.226-.918,2.372-1.191a16.678,16.678,0,0,1,3.056-.5l-0.547-5.176-0.046-1.191c-0.23-1.052-.043-2.325-0.274-3.389V22.015c-0.126-.575-0.011-1.345-0.137-1.924a3.07,3.07,0,0,0-.046-0.733c-0.291-.89-2.6-0.826-3.6-1.1-0.776-.211-1.638-0.234-2.463-0.458-1.614-.438-3.451-0.646-5.063-1.008-0.907-.2-2.1-0.285-3.056-0.55a9.113,9.113,0,0,0-1.277-.229,1.017,1.017,0,0,1-.319.092c-0.423-.087-0.767-0.262-1.14-0.366a1.772,1.772,0,0,1-1-.275,2.055,2.055,0,0,1-.274-1.008c-0.194-.877-0.321-3.106.639-3.114l9.806-.824V9.282h0.182v1.237l6.978-.55a2.481,2.481,0,0,1,.274-0.321V7.038c0.12-.168-0.045-0.778.046-1.145L18.335,4.84c0.163-.019.115,0.022,0.183-0.092a1.986,1.986,0,0,0,.091-0.458,7.724,7.724,0,0,1,.411-1.008H18.7a2.018,2.018,0,0,1-1,0c-0.647-.15-1.429-0.169-2.1-0.321a3.1,3.1,0,0,1-.867-0.092,11.126,11.126,0,0,0,2.144-.092L19.111,2.87a0.481,0.481,0,0,1,.228-0.137c0.3-.277.2-0.7,0.775-0.733,0.083,0.114.237,0.164,0.319,0.275a0.814,0.814,0,0,0,.821.6,3.944,3.944,0,0,1,1.186-.092L25.177,2.87V2.916H25.131a5.125,5.125,0,0,1-1.368.183,12.541,12.541,0,0,1-2.782.183V3.328a3.554,3.554,0,0,1,.5,1.511c0.163,0.019.115-.022,0.183,0.092,0.362,0.519.12,1.241,0.274,2.015A20.238,20.238,0,0,1,21.984,9.832Z"/>
</svg>
