<svg xmlns="http://www.w3.org/2000/svg" width="40" height="40" viewBox="0 0 40 40">
  <defs>
    <style>
      .cls-1 {
        fill: #fff;
        fill-rule: evenodd;
      }
    </style>
  </defs>
  <path id="Color_Fill_1" data-name="Color Fill 1" class="cls-1" d="M21.369,2.478A32.9,32.9,0,0,1,25.4,2.43V2.478h-0.1a3.553,3.553,0,0,1-1.056.334,9.421,9.421,0,0,1-2.257.477L21.513,3V3.336a0.319,0.319,0,0,1,.048.191h0.192a5.032,5.032,0,0,0,.24,1.86l0.1,3.957h-0.24V9.63l0.144,0.048c0.436,0.325,1.29.1,1.921,0.238,0.566,0.122,1.239.007,1.873,0.143a13.965,13.965,0,0,0,2.737.191V7.58h0.144V10.3a13.29,13.29,0,0,1,2.593.191c0.687,0.149,1.47,0,2.113.143h0.72c0.892,0.2,1.988.045,2.881,0.238h0.576c0.965,0.229,2.13.457,2.113,1.669h0.048a0.523,0.523,0,0,0,.288.048c0,1.488-1.451,2.63-2.545,3l-0.912.143-0.1.191-1.2.238a0.8,0.8,0,0,0-.1-0.143,2.7,2.7,0,0,1-.912.191c-1.832.512-3.888,0.713-5.762,1.192a11.984,11.984,0,0,0-2.449.524l-0.72.1c-0.751.193-1.646,0.282-2.4,0.477a4.41,4.41,0,0,1-.576,0,1.443,1.443,0,0,0-.672.477v0.811a2.735,2.735,0,0,0-.048.715,5.15,5.15,0,0,0-.1,1.478c0.043,0.092.222,0.189,0.288,0.286H21.7a0.761,0.761,0,0,0-.24-0.238V22.79c-0.244.4-.057,2.1-0.192,2.718l-0.288,2.956c-0.116.511-.064,1.1-0.192,1.669a11.046,11.046,0,0,0-.24,2.193,5.751,5.751,0,0,1,1.393.238c0.858,0.216,1.732.225,2.545,0.429a2.267,2.267,0,0,1,1.393.477,1.807,1.807,0,0,1,.336,1.24,1.343,1.343,0,0,1-.912,1.192l-0.912.1-0.048.143-1.152.1a1.137,1.137,0,0,0-.1-0.143,0.994,0.994,0,0,1-.48.048,7.741,7.741,0,0,1-1.825.143,6.766,6.766,0,0,1-.48-0.715,0.839,0.839,0,0,0-.1-0.525v0.572A12.373,12.373,0,0,0,20.072,38H19.928V37.9c-0.079-.169.085-0.654,0-1.049l-0.144-1.812h-0.1a1.107,1.107,0,0,1-.672,1.24,10.5,10.5,0,0,1-2.113-.191,0.293,0.293,0,0,0-.1.143,2.974,2.974,0,0,1-.672-0.048c-0.966-.317-1.881-0.039-2.257-1.192a1.683,1.683,0,0,1-.048-0.954c0.328-1.106,1.378-.909,2.545-1.192a15.541,15.541,0,0,1,3.073-.524,10.252,10.252,0,0,0-.24-2.193c-0.191-.836-0.11-1.7-0.288-2.479q-0.1-1.383-.192-2.765c-0.141-.638.006-1.416-0.144-2.1-0.1-.459.017-1.011-0.1-1.526a11.54,11.54,0,0,1-.144-2.289,4.09,4.09,0,0,0-.528-0.429,2.388,2.388,0,0,0-.48,0c-0.929-.208-1.955-0.271-2.929-0.524-2.344-.611-5.123-0.906-7.491-1.573-0.559-.158-1.12-0.2-1.633-0.334a0.692,0.692,0,0,1-.432-0.1c-0.054.027-.054,0.128-0.1,0.143l-1.2-.238-0.1-.191L2.545,15.59c-1.1-.382-2.563-1.493-2.545-3H0.288V12.539H0.336V11.967c0.709-.463.874-0.954,2.065-1.049a5.168,5.168,0,0,1,.1-1.526V10.87c3.034,0.023,5.909-.552,8.836-0.572V7.58h0.144V10.3h0.048L17,9.869v-0.1a1.972,1.972,0,0,1-.336-1.24,1.537,1.537,0,0,1,.864-0.143,0.583,0.583,0,0,0,.384.429l0.1-3.433a5.376,5.376,0,0,0,.24-1.86h0.192a0.678,0.678,0,0,1,.048-0.238,14.832,14.832,0,0,1-2.785-.62,3.913,3.913,0,0,1-1.056-.238,22.5,22.5,0,0,1,3.986.048A1.681,1.681,0,0,1,20.168,1a2.668,2.668,0,0,0,.384.191A2.1,2.1,0,0,1,21.369,2.478Z"/>
</svg>
