<svg xmlns="http://www.w3.org/2000/svg" width="40" height="40" viewBox="0 0 40 40">
  <defs>
    <style>
      .cls-1 {
        fill: #fff;
        fill-rule: evenodd;
      }
    </style>
  </defs>
  <path id="Color_Fill_1" data-name="Color Fill 1" class="cls-1" d="M24.625,9.095H24.75a2.51,2.51,0,0,1,.083-0.71H24.75a4.857,4.857,0,0,1-2.583-.167,0.118,0.118,0,0,1-.042-0.042h0.083a7.168,7.168,0,0,1,2.708-.125,1.067,1.067,0,0,1,.875-0.794,1.2,1.2,0,0,1,.708.794,7.317,7.317,0,0,1,2.833.167,0.15,0.15,0,0,1-.083.042,4.34,4.34,0,0,1-2.625.084V8.51a2.35,2.35,0,0,1,.125,1l0.208,0.042a8.52,8.52,0,0,1,.167,2.716h0.083a4.413,4.413,0,0,0,1.125.125c0.839,0.19,1.787.1,2.667,0.293,0.946,0.212,2.018.113,3,.334l5.833,0.668V11.727a2.116,2.116,0,0,1,.042-0.794A17.522,17.522,0,0,0,40,14.192L39.958,16.7a0.479,0.479,0,0,1-.292.083,8.159,8.159,0,0,1-1.708.293c-1.237.311-2.612,0.343-3.875,0.669a2.056,2.056,0,0,0-.375.084l-0.042.125c-0.221.139-1.6,0.148-1.708,0.293-0.056-.049.009-0.094-0.083-0.125-0.428.154-.926,0.124-1.417,0.251-1.078.278-2.25,0.3-3.375,0.585-1.081.277-2.247,0.3-3.375,0.585a11.422,11.422,0,0,1-2.417.418l-0.208.251c0.023,3.726-.5,7.42-0.583,11.031a2.05,2.05,0,0,0,.583.042,4.116,4.116,0,0,0,1.042.084c0.83,0.184,1.837.055,2.667,0.251a7,7,0,0,0,.833,0,5.277,5.277,0,0,1,.042,2.3,2.71,2.71,0,0,1-.083.794,2.4,2.4,0,0,0-.125-1.045,7.55,7.55,0,0,1-.917,1.17l-3.625.084a5.482,5.482,0,0,1-1.792,0c-0.378-.081-0.883.028-1.208-0.042l-1.667-.042a1.992,1.992,0,0,1-.75-0.042c-0.45-.168-0.575-0.866-0.958-1.128a3.652,3.652,0,0,1-.125,1.045,8.237,8.237,0,0,1,0-3.134,2.869,2.869,0,0,0,1.375-.042l3.708-.251a1.051,1.051,0,0,0,.042-0.334,2.573,2.573,0,0,1-.042-0.585c-0.079-.364-0.046-0.884-0.125-1.254V28.357c-0.26-1.2.01-2.634-.25-3.844-0.12-.559.026-1.163-0.083-1.671-0.133-.619.129-2.225-0.125-2.632a0.336,0.336,0,0,0-.417-0.251,4.869,4.869,0,0,0-1.208-.209c-0.851-.215-1.773-0.229-2.667-0.46-0.765-.2-1.6-0.209-2.417-0.418-0.915-.236-1.915-0.262-2.875-0.5a2.707,2.707,0,0,0-1.292-.125,8.27,8.27,0,0,0-1.458-.251c-0.156-.043-0.244-0.166-0.375-0.209C5.815,17.656,5.355,17.671,5,17.577l-0.75-.084c-0.911-.23-1.968-0.3-2.875-0.543a2.635,2.635,0,0,1-1.25-.293,12.324,12.324,0,0,1-.042-2.883,0.435,0.435,0,0,1,.25-0.084,2.892,2.892,0,0,1,.75-0.084C1.688,13.471,2.354,13.544,3,13.4c1.567-.353,3.35-0.233,4.917-0.585l1.75-.167c0.148,0.084-.02.186,0.375,0.209a0.509,0.509,0,0,1,.542-0.293,5.333,5.333,0,0,1,1.5-.167v0.125l0.417-.042V12.437h0.042V12.312a1.614,1.614,0,0,0,.375-0.042V12.061a1.877,1.877,0,0,0,0-.585A7.2,7.2,0,0,1,13,9.638a0.626,0.626,0,0,1,.167-0.084,0.212,0.212,0,0,1,.125-0.042,8.809,8.809,0,0,1,.125-1.128H13.333a4.6,4.6,0,0,1-2.625-.209h0.083c0.463-.312,2.07-0.147,2.75-0.125a0.8,0.8,0,0,1,1.125-.669,2.021,2.021,0,0,0,.625.669,6.119,6.119,0,0,1,2.208.084,0.5,0.5,0,0,1,.417.125H17.875c-0.5.392-2.041,0.222-2.667,0.084V8.468c0.1,0.147-.017.348,0.083,0.585l0.125,0.042a1.418,1.418,0,0,1-.083.418,1.1,1.1,0,0,1,.292.251v2.214l3.125-.334a4.52,4.52,0,0,0,.083-1.588,17.694,17.694,0,0,0,.083-2.047c0.314-1.436.076-2.081,0.958-3.008h0.292c1.178,1.272,1.031,4.144,1.042,6.56a0.48,0.48,0,0,0,.292.084l2.75,0.334V11.017c0.363-.207,0-0.9.208-1.253a1,1,0,0,0,.25-0.46A0.283,0.283,0,0,1,24.625,9.095Z"/>
</svg>
