<svg xmlns="http://www.w3.org/2000/svg" width="40" height="40" viewBox="0 0 40 40">
  <defs>
    <style>
      .cls-1 {
        fill: #fff;
        fill-rule: evenodd;
      }
    </style>
  </defs>
  <path id="Color_Fill_1" data-name="Color Fill 1" class="cls-1" d="M20.638,32.557A6.035,6.035,0,0,1,22,32.785c0.686,0.165,1.368.162,2,.32a4.837,4.837,0,0,1,1.686.412,1.474,1.474,0,0,1,.364.732,2.333,2.333,0,0,1-.046.915c-0.334,1.054-1.236.916-2.323,1.144l-0.638-.046A5.947,5.947,0,0,1,21,36.4c-0.139-.281-0.357-0.495-0.5-0.778H20.456c-0.056.121-.187,0.159-0.228,0.275v0.412A7.422,7.422,0,0,0,20.091,38H19.954a10.076,10.076,0,0,0-.182-2.2,0.4,0.4,0,0,0-.228-0.137,2.384,2.384,0,0,1-.592.732,5.585,5.585,0,0,1-1.959-.137l-0.638.046c-1.087-.235-1.99-0.084-2.323-1.144a2.322,2.322,0,0,1-.046-0.915,1.48,1.48,0,0,1,.364-0.732,4.817,4.817,0,0,1,1.686-.412c0.637-.156,1.317-0.158,2-0.32a6.535,6.535,0,0,1,1.367-.229l-0.547-5.169V26.793c-0.218-.993-0.055-2.2-0.273-3.2L18.451,20.8a5.217,5.217,0,0,0-.091-1.418c-0.29-.889-2.595-0.825-3.6-1.1-0.775-.21-1.636-0.234-2.46-0.457-1.612-.437-3.447-0.646-5.057-1.006-0.908-.2-2.1-0.285-3.052-0.549a9.106,9.106,0,0,0-1.276-.229,1.013,1.013,0,0,1-.319.091c-0.418-.086-0.762-0.257-1.139-0.366a1.811,1.811,0,0,1-1-.274,6.793,6.793,0,0,1-.364-3.2c0.052-.228.17-0.508,0.228-0.732a5.052,5.052,0,0,1,1.64-.274C2.841,11.092,3.9,11.2,4.784,11.011H5.376c1.249-.275,2.712-0.092,3.964-0.366l1.139-.046c0.868-.191,1.928-0.032,2.825-0.229,0.709-.156,1.513-0.015,2.278-0.183a14,14,0,0,1,2.688-.229,5.031,5.031,0,0,0,.046-1.327,3.694,3.694,0,0,1-.046-1.052c0.019-.057.124-0.038,0.091-0.183a9.224,9.224,0,0,1,.683-4.163H18.724a2.016,2.016,0,0,1-1,0c-0.646-.15-1.427-0.169-2.1-0.32a3.1,3.1,0,0,1-.866-0.091A11.114,11.114,0,0,0,16.9,2.732l2.369,0.091a0.918,0.918,0,0,1,1-.778c0.034,0.061.487,0.77,0.5,0.778h0.5a3.941,3.941,0,0,1,1.185-.091l2.733,0.091V2.869H25.148a5.12,5.12,0,0,1-1.367.183A12.528,12.528,0,0,1,21,3.235V3.281a4.883,4.883,0,0,1,.547,2.287,0.451,0.451,0,0,0,.137.183l-0.046.595h0.091a0.875,0.875,0,0,1-.091.457s0.044,0.18.046,0.183h0.091l-0.091.549a10.273,10.273,0,0,1,.046,2.379c0.312,0.1.676,0.009,1.048,0.091,0.878,0.194,1.947.082,2.825,0.274H26.2c0.868,0.191,1.929.031,2.825,0.229,0.709,0.156,1.514.015,2.278,0.183,0.515,0.113,1.118.012,1.686,0.137,0.515,0.113,1.118.012,1.686,0.137,1.559,0.343,3.375.14,4.92,0.457,0.664,1.045.325,2.95,0,4.163a15.046,15.046,0,0,0-2.141.549,3.743,3.743,0,0,0-.592-0.046c-2.389.607-5,.769-7.38,1.418-0.991.27-2.019,0.292-2.961,0.549-0.991.27-2.018,0.292-2.961,0.549a5.655,5.655,0,0,0-1.549.32,3.4,3.4,0,0,0-.364.457,13.026,13.026,0,0,1-.137,2.653c-0.113.524,0.01,1.086-.091,1.555C21.23,24.437,21.4,25.4,21.23,26.2v0.595C21.05,27.62,21.194,28.53,21,29.4A20.009,20.009,0,0,0,20.638,32.557Z"/>
</svg>
