<svg xmlns="http://www.w3.org/2000/svg" width="40" height="40" viewBox="0 0 40 40">
  <defs>
    <style>
      .cls-1 {
        fill: #fff;
        fill-rule: evenodd;
      }
    </style>
  </defs>
  <path id="Color_Fill_1" data-name="Color Fill 1" class="cls-1" d="M34.307,16.563c1.3,0.034,3.64-.023,4.628.524a13.283,13.283,0,0,1-.2,3.142L28.245,22.455c-2.171.543-4.483,0.627-6,1.768a95.018,95.018,0,0,1-.978,10.213c1.182,0.137,3.507,1.208,4.367.72a7.079,7.079,0,0,1-.065,2.946V37.971l-0.2-.786v1.244c-1.088.043-5.182,0.784-5.345,1.571H19.967a0.533,0.533,0,0,0-.261-0.524l-5.084-1.047L14.558,37.25a1.955,1.955,0,0,1-.2.851,7.523,7.523,0,0,1,.065-2.946c0.434,0.344,3.393-.6,4.3-0.72-0.222-1.887-.568-9.508-1.3-10.54-3.669-1.436-8.417-1.945-12.449-2.946C3.732,20.64,2.233,20.65,1.2,20.1c-0.108-.826-0.347-2.508.065-3.208l4.432-.327V14.075H5.954v2.488H6.019c3.58-.9,7.973-0.094,11.341-1.113C17.294,10.62,17.33,1.912,19.9,0h0.261c1.729,2.388,1.987,6.372,2.607,9.755,0.211,1.151-.712,4.283,0,5.761,3.444,0.828,7.631.556,11.276,1.047-0.028-.655-0.2-2.291.261-2.488v2.488Z" transform="translate(0.016)"/>
</svg>
