<svg xmlns="http://www.w3.org/2000/svg" width="40" height="40" viewBox="0 0 40 40">
  <defs>
    <style>
      .cls-1 {
        fill: #fff;
        fill-rule: evenodd;
      }
    </style>
  </defs>
  <path id="Color_Fill_1" data-name="Color Fill 1" class="cls-1" d="M20.735,6.4a14.923,14.923,0,0,1,3.61,0,2.831,2.831,0,0,1,1.007.127H25.268a1.74,1.74,0,0,1-.5.127,8.252,8.252,0,0,1-2.308.254H21.784a4.9,4.9,0,0,0-1.007-.127V6.989l-0.63.042V7.243a9.209,9.209,0,0,1,1.637.042,5.314,5.314,0,0,1,.42,2.793,1.78,1.78,0,0,1,.588.465L23,10.966h2.1a11.294,11.294,0,0,1,1.8.381V10.924a2.846,2.846,0,0,0,.042-0.8,9.529,9.529,0,0,0,.084-1.354h0.126a1.273,1.273,0,0,0,.084.465,7.622,7.622,0,0,1,.042,1.269,2.462,2.462,0,0,0,.084.931,3.9,3.9,0,0,0,.965.212c0.891,0.254,1.918.425,2.812,0.677a3.975,3.975,0,0,1,1.259.3,0.758,0.758,0,0,0,.252.338,0.282,0.282,0,0,0,.21.085,0.748,0.748,0,0,1,.378-0.3,2.386,2.386,0,0,0,.923.212V9.993h0.126v3h0.084a3.805,3.805,0,0,0,.965.212,19.766,19.766,0,0,1,2.309.592,3.894,3.894,0,0,1,2.183,2.073c0.621,1.661-.879,2.933-2.015,3.3a13.922,13.922,0,0,1-3.694.169H26.947c-0.51,0-1.4.1-1.8,0.042a4.428,4.428,0,0,0-1.973.085,2.931,2.931,0,0,0-1.385,1.481q-0.021.423-.042,0.846c-0.132.609-.067,1.259-0.21,1.9-0.173.776-.11,1.628-0.294,2.454a9.4,9.4,0,0,0-.21,1.523c1.523,0.944,3.3,1.651,4.911,2.5,0.572,0.3,1.538.713,1.259,1.65-0.54,1.814-5.739,2.8-6.59.55a3.326,3.326,0,0,1-.42.127,14.359,14.359,0,0,1-.252,2.5l-0.21-2.5a1.12,1.12,0,0,0-.42-0.085,2.187,2.187,0,0,1-.881,1.015c-1.873.739-5.142-.189-5.666-1.481A1.538,1.538,0,0,1,12.8,30.98c0.277-.152.477-0.462,0.755-0.635s0.585-.227.881-0.381c0.985-.511,2.035-1,3.022-1.523,0.4-.208,1.4-0.456,1.427-0.973a11.606,11.606,0,0,1-.252-2.031c-0.228-1-.2-2.169-0.42-3.173l-0.084-1.312a2.934,2.934,0,0,0-1.385-1.481,4.371,4.371,0,0,0-1.973-.085l-0.336-.042H5.624a11.336,11.336,0,0,1-3.987-.338,2.572,2.572,0,0,1-1.049-4.02,5.157,5.157,0,0,1,2.854-1.523l0.965-.169a17.092,17.092,0,0,1,2.392-.55c0.222,0.5.567,0.211,0.714-.169l5.079-1.142,0.084-1.439V9.231a1.392,1.392,0,0,0,.084-0.465h0.126q0.063,1.29.126,2.581H13.1a2.6,2.6,0,0,1,.756-0.169,11.972,11.972,0,0,1,3.064-.212,2.057,2.057,0,0,1,.546-0.762,0.893,0.893,0,0,0,.252-0.127v-1.1a3.582,3.582,0,0,0,.042-0.762,1.753,1.753,0,0,1,.462-0.973h1.553V7.031l-0.63-.042V6.735c-1.036.13-3.78,0.4-4.491-.169a0.119,0.119,0,0,1-.042-0.042c0.357-.126.767-0.03,1.217-0.127a14.31,14.31,0,0,1,3.358,0c0.02-.58.305-1.4,0.923-1.4A2.662,2.662,0,0,1,20.735,6.4Z"/>
</svg>
