<svg xmlns="http://www.w3.org/2000/svg" width="100" height="100" viewBox="0 0 100 100">
  <defs>
    <style>
      .cls-1 {
        fill: #3f84c5;
        fill-rule: evenodd;
      }
    </style>
  </defs>
  <path id="bot_ready" class="cls-1" d="M50,98A48,48,0,1,1,98,50,48.053,48.053,0,0,1,50,98ZM78.637,81H21.364A42.128,42.128,0,0,0,78.637,81ZM50,7.772A42.194,42.194,0,0,0,18,77.507V75H82v2.509A42.194,42.194,0,0,0,50,7.772ZM22,66H78v6H22V66Zm47.349-2.929h-38.7A7.659,7.659,0,0,1,23,55.421V24.58a7.658,7.658,0,0,1,7.65-7.649h38.7A7.658,7.658,0,0,1,77,24.58V55.421A7.659,7.659,0,0,1,69.349,63.071ZM71.982,23.83A1.885,1.885,0,0,0,70.1,21.949H29.9A1.885,1.885,0,0,0,28.02,23.83V56.046A1.886,1.886,0,0,0,29.9,57.929H70.1a1.886,1.886,0,0,0,1.883-1.883V23.83ZM31,26H69V54H31V26Z"/>
</svg>
