<svg xmlns="http://www.w3.org/2000/svg" width="400" height="80" viewBox="0 0 400 80">
  <metadata><?xpacket begin="﻿" id="W5M0MpCehiHzreSzNTczkc9d"?>
<x:xmpmeta xmlns:x="adobe:ns:meta/" x:xmptk="Adobe XMP Core 5.6-c138 79.159824, 2016/09/14-01:09:01        ">
   <rdf:RDF xmlns:rdf="http://www.w3.org/1999/02/22-rdf-syntax-ns#">
      <rdf:Description rdf:about=""/>
   </rdf:RDF>
</x:xmpmeta>
                                                                                                    
                                                                                                    
                                                                                                    
                                                                                                    
                                                                                                    
                                                                                                    
                                                                                                    
                                                                                                    
                                                                                                    
                                                                                                    
                                                                                                    
                                                                                                    
                                                                                                    
                                                                                                    
                                                                                                    
                                                                                                    
                                                                                                    
                                                                                                    
                                                                                                    
                                                                                                    
                           
<?xpacket end="w"?></metadata>
<defs>
    <style>
      .cls-1 {
        fill: #fff;
        fill-rule: evenodd;
      }
    </style>
  </defs>
  <path class="cls-1" d="M67.014,80.035V77.886L46,64V18H0L25,49,0,80Zm0-14.057h-13.6l13.6,8.127V65.978ZM196.591,44.636h0.99v-0.5l-0.99-.99v1.486ZM80.861,31.392v0.626l0.626,0.626,1.251-1.251V30.766l-0.626-.626Zm95.264,6.336-0.5.5v0.5l0.5,0.5h0.5l0.5-.5v-0.5l-0.5-.5h-0.5ZM187,46.122v-0.5l-0.5-.5-0.99.99v0.5h0.99ZM198.572,40.2l0.991-.99h-0.991V40.2Zm-2.946-10.376h-0.991q0,1.982-.99,1.981V32.8q2.449,0,2.45,7.9v1.46h0.991l0.495-.5-1.955-10.35V29.827ZM75.178,35.8l-1.251,1.278v6.283l1.251,1.251h3.155l2.529-2.5v-3.78L78.332,35.8H75.178Zm0.652-6.283a4.98,4.98,0,0,0,5.032-3.78,10.1,10.1,0,0,0-3.155-5.058q-3.78.835-3.78,1.9v5.658l1.251,1.277H75.83Zm171.182,5.11v0.7h2.111V33.217h-0.7Zm-4.2-14.73h0.7V18.487h-0.7v1.408Zm-4.223,1.382-1.408,1.408v8.447l0.7,0.7q4.928,0,4.927-5.631Q242.814,21.276,238.591,21.276ZM151.62,36.241l0.5,0.5,0.991-.99H151.62v0.5ZM114.649,45l-0.834,1.669,0.834,0.834,1.277-1.251Zm1.695,4.615-0.418.417,0.835,0.834h0.417V50.032l-0.417-.417h-0.417ZM100.779,39.109v0.417l0.444,1.694v0.417l-0.444.417,0.444,1.669,0.834-.834V42.055l-0.417-2.945h-0.861Zm10.95,4.614-0.443.417a2.972,2.972,0,0,1,1.278,2.112H113.4V45l-1.252-1.278h-0.417ZM106.254,22.71H105.42l-1.277,12.619,1.277,0.834h2.086l0.417-.417-1.669-12.619V22.71Zm0,18.928h0.418v-0.86h-0.418v0.86ZM77.707,16.271H77.081l-0.626.626,1.251,1.278v-1.9ZM93.219,50.45h0.834V49.615H93.219V50.45Zm62.833-15.2q2.477-.338,2.476-1.46V32.8h-0.5Zm-29.433.991,0.5,0.5,0.991-.99h-1.486v0.5ZM93.636,47.921h0.417l0.861-.834V46.669H94.053ZM131.051,35.25q2.477-.338,2.477-1.46V32.8h-0.5ZM317.43,47.5h-0.417l-0.417.417q0,0.653,1.668,1.278v0.417l-0.417.417V50.45h0.835q0-1.251.86-1.251Q319.359,48.337,317.43,47.5Zm-14.052-.834v0.417l0.834,0.834h0.417V46.252l-0.417-.417ZM101.223,37h-0.444q0,0.86,2.529,1.278v0.417l-0.417.417V40.36h0.834V39.109L105,39.943h0.417Q103.439,37,101.223,37Zm226.714-14.7H327.1V22.71h0.835V22.293ZM69.521,44.61l1.251-1.251H69.521V44.61Zm230.494,2.06h0.834V45.835h-0.834v0.834ZM82.113,23.206V21.954l-0.626-.626H80.861l-0.626.626,1.251,1.251h0.626ZM50,0V64H350V0H50ZM169.216,30.818h0.991l-0.991-3.468,0.5-9.359V14.029h7.9l0.991,0.99v7.9l-0.5,4.928,0.5,0.5q0,3.885-3.467,4.953V32.8h-0.991V32.3l0.5-.5v-0.99h-1.486q-1.9,4.485-2.177,2.49t-1.76-1.994v-0.5Zm8.395,3.441h-1.486V33.79l0.5-.5ZM78.332,51.544H65.74V50.293l0.626-2.528-0.626-2.5V13.768h0.626l1.9,1.877,1.877-1.251L71.4,15.645l-3.129,3.78v0.626h0.626Q73.3,16.766,73.3,14.394h5.657q1.277,0,1.278,2.5h0.626l0.626-.626-0.626-.626V15.019l0.626-.626q5.657,0,7.561,7.561v2.5q0,6.022-4.406,7.56,5.031,2.791,5.032,10.09Q89.673,51.545,78.332,51.544Zm19.944,0.183H97V51.284l0.86-.834h0.417v1.278Zm12.592,0v-0.86h0.86V50.032h-0.86V47.921h0.417l2.529,3.807h-2.946Zm8.421,0-0.417.417h-0.861l0.861-1.277V50.45l-0.444-.417q-0.834,0-.834,1.695h-2.086l-1.277-1.695,0.417-1.251-0.417-.417h-0.417l-0.417.417h-0.834a2.5,2.5,0,0,0-1.695-2.112q0-4.2-4.2-4.2L105,42.889h-0.86l-0.835-.834q-0.834,0-.834,3.363h-0.417L101.64,45h-0.417v1.251l-0.444,2.112,1.278-.861-0.417,4.224H99.111v-0.86l0.417-2.946H99.111q-4.38,3.807-6.309,3.807H92.385q0-3.076,7.56-37.412h11.784l6.7,31.1v0.834h-0.417V45h-1.251v0.834l1.251,1.669v0.861l-0.417.417q1.434,0,2.112,2.946H119.29Zm21.146-30.294h-5.918l-0.5,1.981,0.5,9.385v0.99l-2.476,2.451v0.99h0.99v-0.99h0.991l0.5,5.918v9.385l-0.5.5-0.5-.5-1.486.5-2.451-.5-0.5.5-0.5-.5-2.476.5-0.5-2.477v-0.5h0.5v0.991h0.5V48.6h-0.991V47.113l0.991-.991-0.5-2.476V41.664h0.5l0.5,1.486,0.991-.991v-0.5l-0.5-.469,0.5-.5h0.5l0.5,0.5h0.99l1.46-1.486v-0.5q-0.992,0-.991-1.486h-0.964l-0.5,1.486v0.5l-1.487-.5-1.981.5V22.423l-0.991-.99h-4.432l-0.99-.991V15.019l0.99-.99h16.3l2.45,0.5,1.486-.5v7.4Zm25,0h-5.918l-0.5,1.981,0.5,9.385v0.99l-2.476,2.451v0.99h0.99v-0.99h0.991l0.5,5.918v9.385l-0.5.5-0.5-.5-1.485.5-2.451-.5-0.5.5-0.5-.5-2.477.5-0.5-2.477v-0.5h0.5v0.991h0.5V48.6h-0.991V47.113l0.991-.991-0.5-2.476V41.664h0.5l0.5,1.486,0.991-.991v-0.5l-0.5-.469,0.5-.5h0.5l0.5,0.5h0.991l1.46-1.486v-0.5q-0.992,0-.991-1.486h-0.964l-0.5,1.486v0.5l-1.486-.5-1.981.5V22.423l-0.991-.99h-4.432l-0.99-.991V15.019l0.99-.99H161.5l2.451,0.5,1.486-.5v7.4Zm24.011,25.7h-0.991v0.989h0.5l0.5-.5v3.922h-5.423l-2.477-.5v0.5h-1.46l0.469-1.981-0.469-3.441H179.1l-0.5.5,0.5,1.981-0.5,1.955v0.5l0.5,0.5-2.477.5q-0.729-1.981-1.485-1.981h-0.5l-0.5,1.981-4.432-.5V51.051l0.5-.494V50.064h-0.991V49.571h0.991V48.609h-0.991V47.623q0-.831,2.973-1.48l-0.991-.991-1.486.991-0.5-1.989,0.5-.5V40.7l-0.5-.5h0.5l-0.5-1.486,0.5-1.981v-0.99l-0.5-.5,0.5-1.46H170.7l0.99,0.965h1.955l1.487-.965,0.5,2.457h0.99V35.254h0.991l0.991,6.429v2.482l0.991,0.992,0.964-.992,0.991,0.992h0.5l0.5-.5h6.909v2.468ZM211.4,51.544l-2.946.5h-0.5l-0.5-.5q0-4.927-.991-4.927h-0.5V48.1l0.5,0.5h-0.5l0.5,2.945v0.5q-0.99,0-.99-1.486H204.49L204,52.04l-1.46-.5-4.458.5V51.049l1.981-1.981h0.5v0.5l-0.5.5v0.5l0.5,0.5q1.148,0,1.486-3.441,2.451-1.8,2.451-2.972H211.4v6.908Zm0-30.111h-9.36l-0.99.99v5.423l0.99,0.991,8.4,0.026-0.5,1.974,0.5,1.974v1.948l-0.99.987h-7.405q-0.886,0-1.486,4.458,0.288,4.433,1.982,4.432v0.5q-3.963,1.3-3.963,2.477v0.5l-1.486-.5h-0.5l0.5,1.955-2.451,2.477h-1.486l-0.99-.991V15.019l0.99-.99h8.89l3.442,0.5v-0.5h1.486l0.495,0.5,1.982-.5H211.4v7.4Zm40.54,8.29q-0.7,8.422-7.013,8.421h-6.335l-1.408,1.407V51.492h-9.829V26.907l0.7-4.927-0.7-2.789,0.7-3.519-0.7-.7h0.7l0.7-.7h7.013l4.928,0.7,0.7-.7q1.407,0,1.407,2.112h0.7V14.967h1.408q7.013,0,7.013,11.94v2.816Zm7.536,22H258.2V51.284l0.86-.834h0.418v1.278Zm12.592,0v-0.86h0.86V50.032h-0.86V47.921h0.417l2.529,3.807h-2.946Zm8.421,0-0.417.417H279.21l0.861-1.277V50.45l-0.444-.417q-0.834,0-.834,1.695h-2.086l-1.277-1.695,0.417-1.251-0.417-.417h-0.417l-0.417.417h-0.835a2.5,2.5,0,0,0-1.694-2.112q0-4.2-4.2-4.2l-1.669.417h-0.86l-0.835-.834q-0.834,0-.834,3.363h-0.417L262.838,45h-0.417v1.251l-0.444,2.112,1.278-.861-0.417,4.224h-2.529v-0.86l0.417-2.946h-0.417q-4.38,3.807-6.309,3.807h-0.417q0-3.076,7.56-37.412h11.784l6.7,31.1v0.834H279.21V45h-1.251v0.834L279.21,47.5v0.861l-0.417.417q1.434,0,2.112,2.946h-0.417Zm27.087-10.95q-1.121,11.784-10.923,11.784l-0.418-.417h-0.443l-0.417.417q-11.34-1.148-11.341-8.838V40.36l-0.417-.417h0.417l0.417-.417h7.144l0.417-.417q0.6,6.726,3.78,6.726l1.278-.417q1.9-2.945,2.946-2.946V41.637h-1.278V41.22h1.278V40.36l-1.278.417-1.668-2.086q-12.62-6.544-12.619-13.036V23.988Q285.52,13.9,293.706,13.9h2.528l2.921,0.417v0.417l-0.835,1.251V16.4h0.417l1.695-1.668q4.562,0,6.309,8.812L306.3,25.239h-5.866l-1.695-.417q-0.965-4.2-3.78-4.2H294.54l-1.669,1.669v1.252l0.417,2.111q13.87,8.369,13.87,13.453v0.417l-0.417-.417-2.112.834V40.36l0.417,0.417,1.695-.834h0.417l0.417,0.417v0.417Zm26.671,0q-1.12,11.784-10.924,11.784l-0.417-.417h-0.443l-0.417.417Q310.7,51.414,310.7,43.723V40.36l-0.417-.417H310.7l0.417-.417h7.143l0.418-.417q0.6,6.726,3.78,6.726l1.277-.417q1.9-2.945,2.946-2.946V41.637h-1.277V41.22h1.277V40.36l-1.277.417-1.669-2.086q-12.618-6.544-12.618-13.036V23.988Q312.189,13.9,320.376,13.9H322.9l2.92,0.417v0.417l-0.834,1.251V16.4h0.417l1.694-1.668q4.563,0,6.31,8.812l-0.443,1.694H327.1l-1.694-.417q-0.965-4.2-3.78-4.2h-0.417l-1.669,1.669v1.252l0.417,2.111q13.869,8.369,13.87,13.453v0.417l-0.417-.417-2.112.834V40.36l0.417,0.417,1.695-.834h0.417l0.417,0.417v0.417ZM290.76,47.5h-0.418l-0.417.417q0,0.653,1.669,1.278v0.417l-0.417.417V50.45h0.834q0-1.251.86-1.251Q292.688,48.337,290.76,47.5Zm35.925-.834h0.835V45.835h-0.835v0.834Zm-258.416,3,0.626,0.626,1.251-1.251H68.269v0.626Zm261.78-3v0.417l0.834,0.834H331.3V46.252l-0.417-.417Zm0-6.726-0.861.834V41.22l0.861-.86V39.943Zm-26.671,0-0.861.834V41.22l0.861-.86V39.943Zm-41.4-.834v0.417l0.444,1.694v0.417l-0.444.417,0.444,1.669,0.834-.834V42.055l-0.417-2.945h-0.861Zm39.289-16.816h-0.834V22.71h0.834V22.293ZM262.421,37h-0.444q0,0.86,2.529,1.278v0.417l-0.417.417V40.36h0.834V39.109l1.278,0.834h0.417Q264.637,37,262.421,37Zm-7.587,10.923h0.417l0.861-.834V46.669h-0.861Zm-0.417,2.529h0.834V49.615h-0.834V50.45Zm13.035-8.812h0.418v-0.86h-0.418v0.86Zm-195.4-9.62H73.3V31.392H72.049v0.626Zm195.4-9.307h-0.834l-1.277,12.619,1.277,0.834H268.7l0.417-.417-1.669-12.619V22.71Zm10.09,26.905-0.418.417,0.835,0.834h0.417V50.032l-0.417-.417h-0.417ZM275.847,45l-0.834,1.669,0.834,0.834,1.277-1.251Zm-2.92-1.278-0.443.417a2.97,2.97,0,0,1,1.277,2.112H274.6V45l-1.252-1.278h-0.417ZM332.986,80V77.856L354,63.977V18h46L375,48.984l25,30.984ZM333,66h13l-13.014,8.077Z"/>
</svg>
