<svg xmlns="http://www.w3.org/2000/svg" width="40" height="40" viewBox="0 0 40 40">
  <defs>
    <style>
      .cls-1 {
        fill: #fff;
        fill-rule: evenodd;
      }
    </style>
  </defs>
  <path id="Color_Fill_1" data-name="Color Fill 1" class="cls-1" d="M15.18,8.216h0.376A5.92,5.92,0,0,1,16,11.392a9.745,9.745,0,0,0,2.017-.135c0.283-.062.482,0.069,0.581-0.169A12.12,12.12,0,0,0,18.8,9.635a7.745,7.745,0,0,1,.581-1.588c0.061-.111.227-0.232,0.274-0.338a1.14,1.14,0,0,1,.068-0.541,0.9,0.9,0,0,0,.034.405,0.4,0.4,0,0,1,.513-0.034,0.409,0.409,0,0,1,.068-0.372V7.676a5.225,5.225,0,0,0,.513.743,0.176,0.176,0,0,1,.1-0.034,5.022,5.022,0,0,0,.308,1.554c0.1,0.4.081,0.88,0.171,1.25H21.5a3.078,3.078,0,0,0,.991.1,7.612,7.612,0,0,0,1.5.1,7.125,7.125,0,0,1,.171-2.568,1.232,1.232,0,0,1,.274-0.608h0.41V8.047H24.786a1.5,1.5,0,0,1-.581.034,9.9,9.9,0,0,1-1.436-.2V7.811a9.952,9.952,0,0,1,2.12-.034A0.808,0.808,0,0,1,25.5,7a1.08,1.08,0,0,1,.479.743,11.131,11.131,0,0,1,2.12.1V7.878H28.068a4.417,4.417,0,0,1-2.017.169V8.216h0.41c0.111,0.348.309,0.7,0.41,1.115a10.007,10.007,0,0,1,0,2.264L32.1,11.932a3.584,3.584,0,0,1,.068-1.419c0.01,0.431.033,0.94,0.034,1.419a9.8,9.8,0,0,1,1.846.135c0.509,0.109,1.093,0,1.573.1L38.6,12.338c0.3,0.068.553,0.2,0.82,0.27,0,0.151,0,.186.1,0.236a1.007,1.007,0,0,0,.308.1,1.083,1.083,0,0,1,.034,1.081c-0.428.93-1.611,0.828-2.7,1.115-1.108.292-2.344,0.4-3.453,0.676l-0.752.1a5.319,5.319,0,0,1-1.607.27,8.434,8.434,0,0,1-1.846.372,33.714,33.714,0,0,1-3.351.642,19.47,19.47,0,0,1-.684,2.3H25.436V19.466a1.85,1.85,0,0,1-.205-0.642,7.8,7.8,0,0,1-.41-1.351,2.9,2.9,0,0,0-.752.135c-0.507.128-.962,0.108-1.47,0.236a7.777,7.777,0,0,1-1.231.236,14.279,14.279,0,0,1-.239,2.77l-0.239,2.77c-0.136.608-.028,1.319-0.171,1.959a13.153,13.153,0,0,0-.205,2.466L25.368,29.2a1.756,1.756,0,0,1,.068.608,4.962,4.962,0,0,1-.137,1.824,0.673,0.673,0,0,0-.273-0.541,1.359,1.359,0,0,0-.752-0.034l-1.949.169v0.1l-2.12.169v0.3a0.437,0.437,0,0,1-.137-0.034,0.245,0.245,0,0,1-.1.236,0.822,0.822,0,0,0-.137-0.473,2.091,2.091,0,0,0-.615-0.068,8.05,8.05,0,0,0-1.538-.135,0.162,0.162,0,0,0-.034-0.1,3.4,3.4,0,0,0-.889-0.068,4.968,4.968,0,0,0-1.812-.068,2.691,2.691,0,0,0-.239.405,1.155,1.155,0,0,1-.034.2,6.976,6.976,0,0,1,0-2.568,4.372,4.372,0,0,0,1.436-.3c0.447-.135.852-0.136,1.3-0.27a14.459,14.459,0,0,1,2.085-.507,8.1,8.1,0,0,0-.137-1.757c-0.089-.4-0.022-0.822-0.1-1.182l-0.171-2.3c-0.119-.529-0.043-1.122-0.171-1.689a18.955,18.955,0,0,1-.273-3.041c-1.1-.053-2.41-0.61-3.419-0.608a0.1,0.1,0,0,1-.034.034,6.585,6.585,0,0,1-.41,1.351,1.12,1.12,0,0,1-.239.642,9.438,9.438,0,0,0-.547-1.757,0.858,0.858,0,0,0-.205-0.541,4.56,4.56,0,0,0-.923-0.169c-0.822-.219-1.7-0.253-2.564-0.473-2.485-.636-5.235-0.842-7.795-1.487-1.037-.261-1.923-0.206-2.359-1.047a0.967,0.967,0,0,1,.068-1.081,1.054,1.054,0,0,0,.342-0.135,0.41,0.41,0,0,1,.1-0.2c0.463-.419,1.419-0.18,2.154-0.338,0.478-.1,1.094-0.033,1.573-0.135H4.923c0.307-.066.678,0.007,1.026-0.067a10.614,10.614,0,0,1,1.846-.135l0.034-1.419H7.863v0.034A5.581,5.581,0,0,1,7.9,11.932l5.231-.338a7.932,7.932,0,0,1,.1-2.534c0.141-.464.08-0.856,0.718-0.845l0.034-.169H13.812a3.657,3.657,0,0,1-1.47-.068,0.535,0.535,0,0,1-.41-0.135,0.1,0.1,0,0,0,.034-0.034C12.593,7.8,13.3,7.746,14.017,7.743A0.791,0.791,0,0,1,14.633,7a2.257,2.257,0,0,1,.41.439,0.623,0.623,0,0,0,.137.338,1.53,1.53,0,0,1,.581-0.034c0.53,0,1.013.043,1.47,0.068V7.878H17.162a4.638,4.638,0,0,1-2.017.169V8.081A0.226,0.226,0,0,1,15.18,8.216Z"/>
</svg>
