<svg width="120" height="120" viewBox="0 0 120 120" xmlns="http://www.w3.org/2000/svg">
<defs>
<style>.cls-1 {
        fill: #fff;
        fill-rule: evenodd;
      }</style>
</defs>
<path class="cls-1" d="M88.981,94.673V76.514l19.011-10.959v17.9Zm0-44.084L107.992,39.63V61.157L88.981,71.827V50.588ZM65.972,29.613l17.982-8.521,24.038,11.13L91.022,41.39Zm-5.386-2.532-18.6-8.742L60,10l18.868,8.737ZM29.1,41.454L12.008,32.222l24.68-11.428,18.2,8.885Zm1.917,30.334L12.008,61.157V39.63L31.014,50.55V71.788Zm0,22.846L12.008,83.457v-17.9l19.006,10.92V94.634ZM56,86.389L34.006,73.711V52.53L56,65.556V86.389ZM56,110L34.006,96.666V78.456L56,91.481V110Zm4.286-77.69L85.261,44.5,60,58.148,34.652,44.455ZM86,73.773L64,86.389V65.556L86,52.593V73.773Zm0,22.955L64,110V91.481L86,78.518v18.21Z"/>
</svg>
