<svg width="120" height="120" viewBox="0 0 120 120" xmlns="http://www.w3.org/2000/svg">
<defs>
<style>.cls-1 {
        fill: #fff;
        fill-rule: evenodd;
      }</style>
</defs>
<path class="cls-1" d="m100.91 62.158-7.182 7.156-4.968-4.961 7.171-7.185 12.445-9.127 1.66 1.665zm-22.935-13.676-6.24-6.242 7.172-7.175 15.4-11.246 2.089 2.09-11.255 15.408zm-22.266-17.2-4.992-4.994 7.162-7.18 12.451-9.128 1.678 1.674-9.123 12.452zm-7.113 7.118-2.744 7.84-19.375 19.391-10.17-10.174 19.4-19.378 7.808-2.76 4.131-4.133 5.083 5.09zm-28.54 33.593-10.031-10.036 3.839-3.865 10.05 10.041zm26.693 13.93-3.844 3.861-12.522-12.529 3.854-3.855zm15.113 20.191-3.844 3.865-9.964-9.969 3.868-3.846zm6.871-42.057-19.364 19.4-12.68-12.684 19.402-19.373 8.434-2.133 4.126-4.128 6.345 6.333-4.131 4.138zm5.035 10.108 7.8-2.775 4.128-4.128 5.049 5.061-4.126 4.128-2.763 7.821-19.374 19.383-10.1-10.112z"/>
</svg>
