<svg width="100" height="100" viewBox="0 0 100 100" xmlns="http://www.w3.org/2000/svg">
<defs>
<style>.cls-1 {
        fill: #fff;
        fill-rule: evenodd;
      }</style>
</defs>
<path class="cls-1" d="M71.073,46.107c-13.141,0-23.811-10.333-23.811-23.065S57.932-.023,71.073-0.023,94.884,10.31,94.884,23.042,84.215,46.107,71.073,46.107Zm0-41.609c-10.571,0-19.15,8.308-19.15,18.55S60.5,41.6,71.073,41.6s19.15-8.308,19.15-18.55S81.644,4.5,71.073,4.5ZM74.43,22.73l8.361,8.051a0.627,0.627,0,0,1,0,.9l-2.356,2.278a0.672,0.672,0,0,1-.928,0L71.15,25.908l-8.365,8.055a0.669,0.669,0,0,1-.929,0L59.5,31.68a0.625,0.625,0,0,1,0-.9l8.361-8.051L59.5,14.758a0.615,0.615,0,0,1,0-.9l2.351-2.282a0.669,0.669,0,0,1,.929,0l8.366,7.963,8.455-8.2a0.673,0.673,0,0,1,.929,0l2.356,2.282a0.622,0.622,0,0,1,0,.9ZM59.646,83.874c0,6.247-9.672,6.111-22.568,6.111-0.666.008-9.711,0.059-12.9,0C14.509,89.985,7.97,87,7.97,83.874c0-6.247,2.816-9.87,6.04-9.87v3.623c0,2.028,7.162,6.367,13.632,6.367h4.48c6.469,0,14.855-3.244,14.855-6.367V74C53.068,74.249,59.646,77.626,59.646,83.874ZM44,74.775c0,2.729-2.353,4.392-5.587,5.311L37,69V43l1.256-6.751a18.828,18.828,0,0,0,5.785-2.171L40,42V65Zm-26.783-40.7c3.4,2.1,8.756,2.974,13.442,2.945,0.113,0,.231-0.006.345-0.006v44c-0.123,0-.247.006-0.371,0.006-6.448,0-13.647-1.562-13.647-6.247L21,65.132V41.708ZM39.006,12.994c-2.756,0-4.992,1.346-4.992,3s2.236,3,4.992,3a7,7,0,0,0,3.449-.84,26.877,26.877,0,0,0,.217,10.756c-3.1,2.112-7.58,3.044-12.043,3.081l0-.168L30.586,32c-4.686-.039-9.406-1.048-12.514-3.391-2.278-1.543-6.831-6.736-6.831-11.361V16.062c0-4.974,5.812-6.819,12.9-7.081H37.077a26.712,26.712,0,0,1,8.085,1.347,27.259,27.259,0,0,0-1.8,4.23A6.007,6.007,0,0,0,39.006,12.994ZM17.985,20.506c0,0.83,1.346,1.5,3,1.5s3-.673,3-1.5-1.346-1.5-3-1.5S17.985,19.677,17.985,20.506Zm6-7.5c-1.658,0-3,.673-3,1.5s1.346,1.5,3,1.5,3-.673,3-1.5S25.648,13,23.99,13ZM30.5,22.012c-1.935,0-3.506.9-3.506,2s1.57,2,3.506,2,3.505-.9,3.505-2S32.44,22.012,30.5,22.012ZM31,100c-3.559,0-7.019-1.637-7.019-3.69h0V94.02L31,94.009V100Zm6-3.711s0,0.008,0,.012c0,1.4-1.158,2.6-3.009,3.224V94l3,0Z"/>
</svg>
