<svg width="120" height="120" viewBox="0 0 120 120" xmlns="http://www.w3.org/2000/svg">
<defs>
<style>.cls-1 {
        fill: #fff;
        fill-rule: evenodd;
      }</style>
</defs>
<path class="cls-1" d="M108,106.992H12a2,2,0,0,1-2-2v-46a2,2,0,0,1,2-2H52.564A26.676,26.676,0,0,0,51.247,63H47v7h4v3H66V69a22.411,22.411,0,0,1,.727-6.431,10.023,10.023,0,0,1,1.518-3.282,20.679,20.679,0,0,1,2.07-2.294H108a2,2,0,0,1,2,2v46A2,2,0,0,1,108,106.992ZM88,101h7V94H88v7Zm0-9h7V85H88v7Zm0-9h7V76H88v7ZM35,101H73V94H35v7Zm0-9h7V85H35v7Zm-9,9h7V94H26v7Zm0-9h7V85H26v7ZM23,63H16v7h7V63Zm0,13H16v7h7V76Zm0,9H16v7h7V85Zm0,9H16v7h7V94Zm3-11h7V76H26v7Zm9-20H28v7h7V63Zm0,20h7V76H35v7ZM45,63H38v7h7V63ZM66,76H44v7h7v2H44v7H73V85H66V83h7V76H66ZM76,63H69v7h7V63Zm6,13H75v7h7V76Zm0,9H75v7h7V85Zm0,9H75v7h7V94ZM92,66H88v4h4V66Zm6,0H94v4h4V66Zm6,0h-4v4h4V66Zm0,10H97v7h7V76Zm0,9H97v7h7V85Zm0,9H97v7h7V94ZM54,79h9v9H54V79ZM71.414,51.919a44.843,44.843,0,0,0-5.7,5.747,12.851,12.851,0,0,0-1.983,4.24A39.881,39.881,0,0,0,63,70H54V67s0.175-5.669,1.854-9.136a20.911,20.911,0,0,1,3.521-5.841,65.792,65.792,0,0,1,6.414-6.268c3.092-2.747,5.1-4.944,6.021-6.565a10.538,10.538,0,0,0,1.216-5.349,12.326,12.326,0,0,0-3.891-9.213c-2.708-2.652-6.03-3.659-9.959-3.659-3.8,0-6.972.887-9.514,3.287s-4.213,6.139-5.009,11.236l-9.168-1.1q1.244-10.239,7.364-15.683c4.079-3.624,9.472-5.715,16.177-5.715,7.1,0,12.773,2.224,17,6.117a18.193,18.193,0,0,1,6,14.136,18.173,18.173,0,0,1-2.058,8.906C78.477,44.847,75.74,48.059,71.414,51.919Z"/>
</svg>
