<svg width="100" height="100" viewBox="0 0 100 100" xmlns="http://www.w3.org/2000/svg">
<defs>
<style>.cls-1 {
        fill: #fff;
        fill-rule: evenodd;
      }</style>
</defs>
<path class="cls-1" d="M93.845,81.991H60.966a28.473,28.473,0,1,1-17.953-37.7V12.146C43.013,9.182,46.036,6,48.806,6H94.234c2.761,0,5.775,3.183,5.775,6.147V75.464C100.009,78.42,96.606,81.991,93.845,81.991ZM34.493,49A22.5,22.5,0,1,0,57,71.508,22.513,22.513,0,0,0,34.493,49ZM94.016,68.722l-0.008-6.043c-4.22-2.329-9.668-4.465-13.539-7.762-1.057-.867-1.165-4.524.192-5.817,3.4-2.546,5.734-8.038,5.743-13.739,0.009-7.887-6.243-16.709-14.774-16.709S56.848,27.474,56.856,35.361c0,5.7,2.347,11.192,5.743,13.739,1.357,1.293,1.249,4.95.192,5.817a29.477,29.477,0,0,1-3.522,2.533,28.321,28.321,0,0,1,3.723,14.043,28.618,28.618,0,0,1-.235,3.49H94.016v-6.26ZM49.13,75.012H19.879A0.869,0.869,0,0,1,19,74.167V69.842A0.87,0.87,0,0,1,19.879,69H49.13a0.87,0.87,0,0,1,.876.846v4.324A0.869,0.869,0,0,1,49.13,75.012ZM18.994,32.007H13.009V18.988H-0.006v-6H13.009V-0.007h5.985V12.986H32.014v6H18.994v13.02Z"/>
</svg>
