<?xml version="1.0" encoding="UTF-8"?>
<svg id="Layer_1" data-name="Layer 1" xmlns="http://www.w3.org/2000/svg" width="24" height="24" viewBox="0 0 24 24">
  <defs>
    <style>
      .cls-1 {
        fill: #fff;
      }

      .cls-1, .cls-2 {
        fill-rule: evenodd;
      }

      .cls-2 {
        fill: #9f9f9f;
      }
    </style>
  </defs>
  <path class="cls-2" d="M20.76,14.24c1.06,1.99,1.59,4.09.9,4.41-.69.32-2.33-1.25-3.4-3.24-.54-1.01.29-.96.94-1.24.62-.27,1.04-.91,1.56.07ZM18.74,13.16c-.12.05-.3.13-.49-.26-.51-1.04-4.32-8.46-8.47-8.64-1.56-.07-3.17.88-4.67,3.57-2.71,4.85-3.34,12.38-3.38,12.42-.1.66-.69.77-.99.74-.29-.03-.77-.12-.74-.77-.04-.07.35-2.48.38-2.68C3.32,2.03,10.14-.71,15.95,7.59c1.2,1.72,2.15,3.59,2.69,4.74.2.42.25.77.09.83Z"/>
  <path class="cls-1" d="M19.47,3.85c2.3-.55,4.32-.45,4.52.24.19.69-1.51,1.7-3.81,2.25-1.17.28-.94-.46-1.1-1.1-.15-.62-.73-1.12.4-1.4ZM17.52,5.74c.04.12.06.34-.38.49-.73.25-5.16,1.34-9.23,4.81-2.31,1.97-4.5,4.71-5.85,8.5-.11.3-.2.49-.28.79-.13.52-.51.69-1.07.65-.3-.02-.69-.14-.7-.65,0-.68.32-1.64.8-2.59,1.49-3.02,3.58-5.52,6.14-7.5,2.75-2.13,6.04-3.65,9.74-4.57.37-.09.8-.08.84.07Z"/>
</svg>