<svg width="64" height="64" viewBox="0 0 64 64" fill="none" xmlns="http://www.w3.org/2000/svg">
<path fill-rule="evenodd" clip-rule="evenodd" d="M54.469 48H9.534C9.16152 48.0039 8.8009 47.8691 8.52234 47.6218C8.24378 47.3745 8.06721 47.0324 8.027 46.662L8.005 17.606C7.99158 17.3999 8.02064 17.1932 8.09039 16.9988C8.16015 16.8044 8.26909 16.6264 8.41049 16.4758C8.55188 16.3252 8.7227 16.2053 8.91235 16.1234C9.102 16.0416 9.30645 15.9996 9.513 16H14.46C14.6733 15.9858 14.8871 16.0189 15.0862 16.0968C15.2853 16.1747 15.4648 16.2955 15.6118 16.4507C15.7589 16.6058 15.8699 16.7915 15.937 16.9945C16.0041 17.1975 16.0256 17.4128 16 17.625V20H48.007V17.606C47.9936 17.4001 48.0226 17.1936 48.0922 16.9993C48.1619 16.805 48.2706 16.6271 48.4118 16.4765C48.553 16.326 48.7236 16.206 48.913 16.124C49.1024 16.0421 49.3066 15.9999 49.513 16H54.46C54.6733 15.9858 54.8871 16.0189 55.0862 16.0968C55.2853 16.1747 55.4648 16.2955 55.6118 16.4507C55.7589 16.6058 55.8699 16.7915 55.937 16.9945C56.0041 17.1975 56.0256 17.4128 56 17.625L56.008 46.394C56.0209 46.6026 55.9904 46.8116 55.9185 47.0078C55.8466 47.204 55.7349 47.3832 55.5903 47.5341C55.4457 47.685 55.2714 47.8043 55.0784 47.8845C54.8854 47.9647 54.6779 48.004 54.469 48Z" fill="#2D2D2D"/>
<path fill-rule="evenodd" clip-rule="evenodd" d="M55.009 46.9901H48.973V18.9811C49.2647 18.423 49.6926 17.9476 50.217 17.599C50.7415 17.2504 51.3455 17.0399 51.973 16.9871C52.6078 17.0303 53.2207 17.2366 53.7525 17.5859C54.2843 17.9352 54.7171 18.4157 55.009 18.9811V46.9901ZM17.009 20.9831H47.014V47.0001H17.006V20.9831H17.009ZM15.023 46.9901H9.016V18.9811C9.016 18.9811 10.139 16.9871 11.984 16.9871C12.6144 17.0477 13.2205 17.261 13.75 17.6084C14.2795 17.9558 14.7164 18.4269 15.023 18.9811V46.9901Z" fill="white"/>
</svg>
