<svg xmlns="http://www.w3.org/2000/svg" width="46" height="10" viewBox="0 0 46 10">
  <defs>
    <style>
      .cls-1 {
        fill: #fff;
      }
    </style>
  </defs>
  <g id="Layer_7" data-name="Layer 7">
    <path class="cls-1" d="M41.67263,5.70764a1.08918,1.08918,0,0,0-1.478-.43909,4.77883,4.77883,0,0,1-2.27368.55878,3.86375,3.86375,0,0,1-3.915-2.4978,1.09006,1.09006,0,0,0-2.11621,0,3.86375,3.86375,0,0,1-3.915,2.4978,3.86375,3.86375,0,0,1-3.915-2.4978,1.09006,1.09006,0,0,0-2.11621,0,3.86375,3.86375,0,0,1-3.915,2.4978,3.86375,3.86375,0,0,1-3.915-2.4978,1.09006,1.09006,0,0,0-2.11621,0,3.86375,3.86375,0,0,1-3.915,2.4978,4.78582,4.78582,0,0,1-2.27429-.55878A1.09,1.09,0,1,0,4.77,7.18567a6.97091,6.97091,0,0,0,3.312.82178A6.598,6.598,0,0,0,13.0552,5.85938a6.59792,6.59792,0,0,0,4.97314,2.14807,6.59792,6.59792,0,0,0,4.97314-2.14807,6.83087,6.83087,0,0,0,9.94629,0,6.598,6.598,0,0,0,4.97315,2.14807,6.97119,6.97119,0,0,0,3.31262-.82178A1.09059,1.09059,0,0,0,41.67263,5.70764Z"/>
  </g>
</svg>
