<svg xmlns="http://www.w3.org/2000/svg" width="39.938" height="40" viewBox="0 0 39.938 40">
  <defs>
    <style>
      .cls-1 {
        fill: #fff;
        fill-rule: evenodd;
      }
    </style>
  </defs>
  <path id="Color_Fill_1" data-name="Color Fill 1" class="cls-1" d="M24.1,14.59h3.317A2.385,2.385,0,0,0,27.9,14.2a3.7,3.7,0,0,1,1.9-.147,4.891,4.891,0,0,1,.878.541l8.781,0.639a2.077,2.077,0,0,1,.049-0.836V15.23L39.8,15.279c0.148,0.494.42,1.881-.39,1.918-0.322.2-1.049,0.053-1.366,0.246L38,17.59a2.709,2.709,0,0,1-.537.1,0.573,0.573,0,0,1-.342-0.1,17.034,17.034,0,0,0-2.146.443l-0.878.1c-1.238.327-2.639,0.465-3.9,0.738v1.623a2.349,2.349,0,0,1-.293.934H27.951a6.538,6.538,0,0,1-.293-2.557,7.952,7.952,0,0,0-2.049-.049H21.171c-0.095.9,0,2.089-.2,3q-0.024.811-.049,1.623l-0.39,4.869a10.379,10.379,0,0,1,3.122.393,2.246,2.246,0,0,1,1.171.3,1.582,1.582,0,0,1-.049,1.23,9.156,9.156,0,0,1-1.366.2,14.275,14.275,0,0,1-3.073.246,0.878,0.878,0,0,0-.1-0.2L20.049,32H20V31.951c-0.231-.393.018-1.131-0.244-1.475v0.2a20.389,20.389,0,0,1-4.439-.393,0.517,0.517,0,0,1-.1-0.3A1.64,1.64,0,0,1,15.171,29a5.723,5.723,0,0,1,1.22-.3,11.739,11.739,0,0,1,3.122-.393l-0.488-6.738c-0.019-.562.022-2.566-0.244-2.754H12.439a6.588,6.588,0,0,0-.049,1.721,2.278,2.278,0,0,1-.293.885H10.2a5.211,5.211,0,0,1-.341-2.557h-0.1a14.839,14.839,0,0,0-2.732-.492c-0.88-.227-1.846-0.251-2.78-0.492a8.426,8.426,0,0,0-1.317-.3c-0.088-.064-0.031.091-0.049,0.1H2.585A13.561,13.561,0,0,0,.39,17.2C0.17,16.831-.238,15.571.341,15.279A2.158,2.158,0,0,1,.829,15.23c0.826-.188,1.814,0,2.683-0.2,1.269-.286,2.787-0.045,4.049-0.344h0.78a7.758,7.758,0,0,0,1.024-.1A3.108,3.108,0,0,0,9.8,14.2a4.521,4.521,0,0,1,1.9-.147,9.986,9.986,0,0,1,.927.541,4.938,4.938,0,0,0,1.707-.049c0.124-.019.521,0.049,0.732,0.049a5.494,5.494,0,0,1,.878,0V13.9h0.1V14.59h2.683a1.629,1.629,0,0,0,.049-0.492,2.588,2.588,0,0,1,.1-1.18q0.024-.959.049-1.918c0.067-.254.177-0.375,0.244-0.59,0.12-.386.005-0.813,0.146-1.18a3.358,3.358,0,0,0-.829.1,5.561,5.561,0,0,1-2.146-.148v-0.1l0.146-.049a10.536,10.536,0,0,1,2.878-.1A1.2,1.2,0,0,1,19.9,8.1c0.558-.316.58,0.715,0.781,0.836h0.341c0.552,0.2,2.014-.147,2.683.148v0.1h-0.1c-0.562.382-2.286,0.016-2.829,0.049v0.2a4.046,4.046,0,0,1,.1.934c0.069,0.259.177,0.38,0.244,0.639v0.738a14.061,14.061,0,0,1,.1,2.8,9.6,9.6,0,0,0,2.537.049A0.935,0.935,0,0,1,24,14.541a1.08,1.08,0,0,0,0-.639h0.1V14.59Zm-8.39,15v0.1h0.049A0.169,0.169,0,0,0,15.707,29.59Zm2.293,0a0.176,0.176,0,0,0,.1.049A0.176,0.176,0,0,0,18,29.59Zm3.951,0a0.176,0.176,0,0,0,.1.049A0.176,0.176,0,0,0,21.951,29.59Zm2.342,0v0.1h0.049v-0.1H24.293Z" transform="translate(-0.031 -0.016)"/>
</svg>
