<svg xmlns="http://www.w3.org/2000/svg" width="40" height="40" viewBox="0 0 40 40">
  <defs>
    <style>
      .cls-1 {
        fill: #fff;
        fill-rule: evenodd;
      }
    </style>
  </defs>
  <path id="Color_Fill_1" data-name="Color Fill 1" class="cls-1" d="M21.372,15.189h1.638a5.578,5.578,0,0,1-.041-1.5l0.123-.041,0.041-.244a1.9,1.9,0,0,1-.778-0.081l0.819-.041a0.319,0.319,0,0,1,.328-0.325,0.73,0.73,0,0,1,.123.2,0.206,0.206,0,0,1,.041.122,2.032,2.032,0,0,1,.9.081,4.182,4.182,0,0,1-.86,0V13.4a3.275,3.275,0,0,1,.164,1.786H26.2q-0.021-.71-0.041-1.421a1.061,1.061,0,0,0,.164-0.365,1.842,1.842,0,0,1-.737-0.081l0.778-.041a0.408,0.408,0,0,1,.328-0.325,0.615,0.615,0,0,0,.737.325c0.076,0.046.293,0.034,0.368,0.081a2.751,2.751,0,0,1-.86,0v0.162a2.467,2.467,0,0,1,.123,1.664H29.4A4.134,4.134,0,0,1,29.56,13.4H29.232c-0.1-.057-0.356-0.022-0.45-0.081l0.819-.041a0.319,0.319,0,0,1,.328-0.325,0.769,0.769,0,0,1,.164.325,2.032,2.032,0,0,1,.9.081,4.181,4.181,0,0,1-.86,0v0.081c0.336,0.443.17,0.924,0.164,1.746a15.3,15.3,0,0,1,3.153.122c0.482,0.106,1-.013,1.433.081h0.7c0.425,0.092,1.01.029,1.433,0.122l2.7,0.122a0.379,0.379,0,0,1,.164.122,2.857,2.857,0,0,1-.123,1.827,2.209,2.209,0,0,1-.614.162c-0.552.168-1.136,0.26-1.72,0.447-1.092.35-2.263,0.53-3.4,0.893a7.744,7.744,0,0,1-2.088.528,1.736,1.736,0,0,1,.041,1.1V20.386l-0.2.041a0.278,0.278,0,0,1-.123.2c-0.014-.169.008-0.149-0.123-0.2a0.21,0.21,0,0,0-.123-0.041,0.625,0.625,0,0,1-.041.325l-0.041-.69a0.824,0.824,0,0,0,.123-0.406c-1.076-.072-2.191,0-3.316,0-2.236,0-4.651,0-6.755,0l-0.041.122a2.8,2.8,0,0,0-.041,1.015q-0.021,1.137-.041,2.273c-0.049,2.355-.207,4.7-0.369,6.942h0.041v0.041a5.3,5.3,0,0,1,1.31.365c0.694,0.223,1.394.356,2.047,0.568a2.263,2.263,0,0,1,1.146.406,0.963,0.963,0,0,1-.164,1.055,2.008,2.008,0,0,1-.778.122,10.51,10.51,0,0,0-1.6.244l-1.228.122a2.864,2.864,0,0,1-1.228.122v0.2c-0.342.523,0.123,1.337-.164,1.786a0.354,0.354,0,0,0-.082-0.365,0.292,0.292,0,0,1-.164.081,0.26,0.26,0,0,1-.041.162c-0.017-.145.019-0.1-0.082-0.162a0.293,0.293,0,0,0-.164-0.081,0.734,0.734,0,0,1-.041.365,3.341,3.341,0,0,1-.082-0.65,0.558,0.558,0,0,0,.123-0.325c-0.048-.322-0.146-0.667-0.164-1.015H19.529a4.251,4.251,0,0,1-1.187-.081c-1.215-.288-2.538-0.292-3.685-0.528a1.7,1.7,0,0,1-.082-1.1,22.22,22.22,0,0,1,3.316-1.015,4.521,4.521,0,0,0,1.187-.325A0.272,0.272,0,0,0,19.12,29.8a19.276,19.276,0,0,1-.164-2.436c-0.11-.5.04-1.106-0.082-1.664a23.628,23.628,0,0,1-.123-2.558A17.388,17.388,0,0,0,18.71,21.4c-0.119-.549.056-1.245-0.041-1.746a1.7,1.7,0,0,0-.491-0.041,5.854,5.854,0,0,0-.655,0H8.557a1.736,1.736,0,0,1,.041,1.1V20.386l-0.2.041a0.278,0.278,0,0,1-.123.2c-0.013-.169.008-0.149-0.123-0.2a0.21,0.21,0,0,0-.123-0.041,0.625,0.625,0,0,1-.041.325l-0.041-.69a0.824,0.824,0,0,0,.123-0.406,9.329,9.329,0,0,1-2.252-.568c-0.844-.26-1.657-0.337-2.5-0.609-0.974-.315-2.068-0.614-3.071-0.853a2.778,2.778,0,0,1-.123-1.867A0.379,0.379,0,0,0,.287,15.6a11.853,11.853,0,0,0,2.7-.122l2.129-.081c0.432-.093.95,0.023,1.433-0.081A16.608,16.608,0,0,1,9.7,15.189,3.6,3.6,0,0,1,9.867,13.4H9.539c-0.1-.057-0.356-0.022-0.45-0.081l0.819-.041V13.16a0.431,0.431,0,0,1,.328-0.2,0.548,0.548,0,0,0,.7.325c0.076,0.046.293,0.034,0.368,0.081a4.182,4.182,0,0,1-.86,0v0.081a2.706,2.706,0,0,1,.123,1.746h2.375a5.968,5.968,0,0,1-.041-1.055V13.687A0.357,0.357,0,0,0,13.06,13.4a1.9,1.9,0,0,1-.778-0.081l0.819-.041a0.388,0.388,0,0,1,.328-0.325,0.607,0.607,0,0,0,.737.325c0.076,0.046.293,0.034,0.368,0.081a4.5,4.5,0,0,1-.9,0V13.4a2.867,2.867,0,0,1,.164,1.786h2.334q-0.02-.731-0.041-1.461a0.527,0.527,0,0,0,.164-0.325,1.841,1.841,0,0,1-.737-0.081l0.819-.041,0.041-.2a0.44,0.44,0,0,1,.287-0.122,0.548,0.548,0,0,0,.7.325c0.076,0.046.293,0.034,0.368,0.081a2.75,2.75,0,0,1-.86,0v0.122a2.821,2.821,0,0,1,.123,1.7h1.638a42.512,42.512,0,0,1,.45-7.47C18.972,7.7,19.025,7.75,19,7.639a0.665,0.665,0,0,0,.2-0.528,8.112,8.112,0,0,0,.573-1.34,0.138,0.138,0,0,1-.123,0A1.327,1.327,0,0,1,19.734,5a0.354,0.354,0,0,0,.082.365,0.293,0.293,0,0,1,.164-0.081,0.26,0.26,0,0,1,.041-0.162c0.017,0.145-.019.1,0.082,0.162a0.293,0.293,0,0,0,.164.081A0.734,0.734,0,0,1,20.307,5a6.1,6.1,0,0,0,.082.65,0.791,0.791,0,0,0-.082.162c-0.107.016-.054-0.03-0.082,0.081a4.834,4.834,0,0,1,.7,1.786c0.107,0.016.054-.03,0.082,0.081-0.057.008,0.017-.033-0.041-0.041C20.93,7.642,20.921,7.8,20.921,7.8a6.6,6.6,0,0,1,.287,1.786A39.817,39.817,0,0,1,21.372,15.189Z"/>
</svg>
