<svg xmlns="http://www.w3.org/2000/svg" style="isolation:isolate" width="75" height="75"><defs><clipPath id="a"><path d="M0 0H75V75H0z"/></clipPath></defs><g clip-path="url(#a)"><path d="M 7 37.5 C 7 20.667 20.667 7 37.5 7 C 54.333 7 68 20.667 68 37.5 C 68 54.333 54.333 68 37.5 68 C 20.667 68 7 54.333 7 37.5 Z" fill="#FFF"/><path d="M 41.879 16.815 C 41.879 16.596 41.803 16.383 41.663 16.215 C 41.47 16.006 41.222 15.856 40.948 15.781 C 40.515 15.649 40.07 15.56 39.62 15.514 C 38.914 15.439 38.204 15.406 37.494 15.414 C 36.795 15.407 36.097 15.44 35.403 15.515 C 34.947 15.561 34.497 15.651 34.058 15.781 C 33.778 15.854 33.525 16.004 33.327 16.215 C 33.187 16.384 33.11 16.597 33.111 16.816 L 33.111 57.587 C 33.11 57.807 33.186 58.02 33.327 58.188 C 33.52 58.397 33.767 58.547 34.041 58.622 C 34.48 58.755 34.931 58.844 35.387 58.889 C 36.087 58.962 36.792 58.996 37.496 58.989 C 38.206 58.996 38.916 58.963 39.622 58.889 C 40.073 58.843 40.518 58.754 40.951 58.622 C 41.225 58.547 41.473 58.397 41.665 58.188 C 41.806 58.019 41.882 57.807 41.881 57.587 L 41.881 16.815 L 41.879 16.815 Z" fill-rule="evenodd"/></g></svg>