<svg xmlns="http://www.w3.org/2000/svg" style="isolation:isolate" width="75" height="75"><defs><clipPath id="a"><path d="M0 0H75V75H0z"/></clipPath></defs><g clip-path="url(#a)"><path d="M 7 37.5 C 7 20.667 20.667 7 37.5 7 C 54.333 7 68 20.667 68 37.5 C 68 54.333 54.333 68 37.5 68 C 20.667 68 7 54.333 7 37.5 Z" fill="#FFF"/><path d="M 55.126 42.234 C 54.706 41.102 54.085 40.056 53.293 39.146 C 52.523 38.269 51.6 37.539 50.569 36.992 C 49.499 36.426 48.347 36.032 47.155 35.823 C 48.079 35.489 48.947 35.016 49.728 34.421 C 50.464 33.858 51.105 33.181 51.628 32.417 C 52.152 31.644 52.549 30.793 52.806 29.896 C 53.08 28.935 53.216 27.94 53.209 26.941 C 53.25 25.261 52.904 23.593 52.2 22.067 C 51.537 20.698 50.535 19.52 49.291 18.645 C 47.876 17.68 46.289 16.994 44.617 16.627 C 42.391 16.143 40.116 15.919 37.838 15.959 L 26.909 15.959 C 26.228 15.939 25.563 16.171 25.042 16.611 C 24.488 17.17 24.21 17.946 24.283 18.73 L 24.283 56.389 C 24.209 57.173 24.486 57.949 25.04 58.509 C 25.561 58.949 26.226 59.181 26.907 59.16 L 38.477 59.16 C 40.069 59.171 41.66 59.065 43.237 58.842 C 44.605 58.645 45.951 58.315 47.256 57.857 C 48.471 57.433 49.629 56.861 50.704 56.155 C 51.728 55.482 52.637 54.647 53.395 53.684 C 54.166 52.69 54.763 51.573 55.161 50.38 C 55.603 49.033 55.819 47.622 55.8 46.205 C 55.819 44.851 55.591 43.506 55.126 42.234 L 55.126 42.234 Z M 43.993 30.231 C 43.756 30.918 43.371 31.545 42.867 32.068 C 42.33 32.612 41.682 33.033 40.966 33.303 C 39.982 33.639 38.945 33.791 37.905 33.754 L 32.961 33.754 L 32.961 22.536 L 37.436 22.536 C 38.541 22.505 39.645 22.628 40.716 22.903 C 41.459 23.11 42.151 23.468 42.749 23.955 C 43.291 24.417 43.708 25.008 43.96 25.674 C 44.239 26.421 44.376 27.214 44.364 28.011 C 44.367 28.767 44.242 29.518 43.993 30.231 L 43.993 30.231 Z M 46.095 49.061 C 45.763 49.787 45.268 50.427 44.649 50.931 C 44.001 51.448 43.258 51.833 42.463 52.066 C 41.449 52.343 40.4 52.472 39.349 52.447 L 32.961 52.447 L 32.961 40.164 L 38.208 40.164 C 39.534 40.13 40.858 40.276 42.144 40.598 C 43.049 40.835 43.896 41.255 44.633 41.833 C 45.281 42.364 45.789 43.046 46.112 43.819 C 46.461 44.672 46.632 45.586 46.617 46.507 C 46.633 47.386 46.455 48.259 46.095 49.061 L 46.095 49.061 Z" fill-rule="evenodd"/></g></svg>