<svg id="capturezone" xmlns="http://www.w3.org/2000/svg" width="100" height="100" viewBox="0 0 100 100">
  <defs>
    <style>
      .cls-1 {
        fill: #fff;
      }

      .cls-2 {
        fill-rule: evenodd;
      }
    </style>
  </defs>
  <circle class="cls-1" cx="50" cy="50" r="48"/>
  <path id="R" class="cls-2" d="M76.542,79.724q-0.265-.919-1.059-2.916l-5.77-13.4a44.128,44.128,0,0,0-2.064-4.335A24.559,24.559,0,0,0,65.4,55.66a15.2,15.2,0,0,0-2.541-2.548,15.858,15.858,0,0,0-2.885-1.786A22.692,22.692,0,0,0,65.638,48.7a16.845,16.845,0,0,0,4.182-3.836,15.923,15.923,0,0,0,2.567-5.018,20.915,20.915,0,0,0,.873-6.226,19.671,19.671,0,0,0-1.218-7.172,15.415,15.415,0,0,0-3.52-5.412,17.844,17.844,0,0,0-5.611-3.7,29.044,29.044,0,0,0-7.437-2q-1.429-.158-3.176-0.263t-4.446-.105H30.119a4.347,4.347,0,0,0-2.938,1.025,4.183,4.183,0,0,0-1.191,3.336V81.064a1.528,1.528,0,0,0,.318.946,2.228,2.228,0,0,0,1.112.683,11.189,11.189,0,0,0,2.144.42,29.776,29.776,0,0,0,3.361.158,29.643,29.643,0,0,0,3.388-.158,11.152,11.152,0,0,0,2.117-.42,2.414,2.414,0,0,0,1.138-.683,1.455,1.455,0,0,0,.344-0.946v-25.9h4.341a10.432,10.432,0,0,1,3.917.683,8.612,8.612,0,0,1,2.991,2.023A14.613,14.613,0,0,1,53.516,61.2q1.058,2,2.17,4.571l6.14,15.185a4.077,4.077,0,0,0,.529,1.077,2.26,2.26,0,0,0,1.085.736,7.939,7.939,0,0,0,2.091.394q1.323,0.1,3.547.105,2.646,0,4.182-.105a10.1,10.1,0,0,0,2.329-.368,1.69,1.69,0,0,0,1.006-.657,2.038,2.038,0,0,0,.212-0.972A5.614,5.614,0,0,0,76.542,79.724ZM58.121,39.03A8.176,8.176,0,0,1,55.9,42.1a10.377,10.377,0,0,1-3.705,2A17.1,17.1,0,0,1,47,44.81H39.912V25.527h6.246a34.07,34.07,0,0,1,3.732.158,19.492,19.492,0,0,1,2.408.42,8.353,8.353,0,0,1,5.029,3.258,10.037,10.037,0,0,1,1.535,5.674A10.332,10.332,0,0,1,58.121,39.03Z"/>
</svg>
