<svg id="capturezone" xmlns="http://www.w3.org/2000/svg" width="100" height="100" viewBox="0 0 100 100">
  <defs>
    <style>
      .cls-1 {
        fill: #fff;
      }

      .cls-2 {
        fill-rule: evenodd;
      }
    </style>
  </defs>
  <circle class="cls-1" cx="50" cy="50" r="48"/>
  <path id="A" class="cls-2" d="M59.705,12.9a5.1,5.1,0,0,0-.768-1.576,2.757,2.757,0,0,0-1.482-.867,13.372,13.372,0,0,0-2.885-.368q-1.854-.079-4.976-0.079-2.7,0-4.341.079a10.744,10.744,0,0,0-2.567.368,2.627,2.627,0,0,0-1.35.841,5.261,5.261,0,0,0-.741,1.445L19.475,73.063a17.042,17.042,0,0,0-.794,2.942,2.04,2.04,0,0,0,.371,1.708,2.913,2.913,0,0,0,1.906.762,35.481,35.481,0,0,0,3.811.158q2.275,0,3.679-.105a8.2,8.2,0,0,0,2.17-.394,2.266,2.266,0,0,0,1.112-.788,4.227,4.227,0,0,0,.556-1.235l4.341-13.293H62.352l4.605,13.661a3.569,3.569,0,0,0,.529,1.1,2.1,2.1,0,0,0,1.112.657,10.471,10.471,0,0,0,2.3.315q1.509,0.079,4.208.079,2.593,0,4.076-.131a3.468,3.468,0,0,0,2.064-.683,1.8,1.8,0,0,0,.423-1.655,18.212,18.212,0,0,0-.794-2.995ZM59.123,52.2H39.7l9.687-28.9h0.053Z"/>
</svg>
