<svg xmlns="http://www.w3.org/2000/svg" style="isolation:isolate" width="21" height="27"><defs><clipPath id="a"><path d="M0 0H21V27H0z"/></clipPath></defs><g clip-path="url(#a)"><path d="M 2.5 13.5 C 2.5 9.085 6.085 5.5 10.5 5.5 C 14.915 5.5 18.5 9.085 18.5 13.5 C 18.5 17.915 14.915 21.5 10.5 21.5 C 6.085 21.5 2.5 17.915 2.5 13.5 Z" fill-opacity="0.2"/><path d="M 1 13.5 C 1 8.257 5.257 4 10.5 4 C 15.743 4 20 8.257 20 13.5 C 20 18.743 15.743 23 10.5 23 C 5.257 23 1 18.743 1 13.5 Z M 2.25 13.5 C 2.25 8.947 5.947 5.25 10.5 5.25 C 15.053 5.25 18.75 8.947 18.75 13.5 C 18.75 18.053 15.053 21.75 10.5 21.75 C 5.947 21.75 2.25 18.053 2.25 13.5 Z" fill-rule="evenodd" fill-opacity="0.5"/><path d="M 2 13.5 C 2 8.809 5.809 5 10.5 5 C 15.191 5 19 8.809 19 13.5 C 19 18.191 15.191 22 10.5 22 C 5.809 22 2 18.191 2 13.5 Z M 3 13.5 C 3 9.361 6.361 6 10.5 6 C 14.639 6 18 9.361 18 13.5 C 18 17.639 14.639 21 10.5 21 C 6.361 21 3 17.639 3 13.5 Z" fill-rule="evenodd" fill="#FFF"/><path d="M 4 13.5 C 4 9.913 6.913 7 10.5 7 C 14.087 7 17 9.913 17 13.5 C 17 17.087 14.087 20 10.5 20 C 6.913 20 4 17.087 4 13.5 Z" fill="#FFF"/><path d="M 14.007 9.065 C 14.007 9.018 13.991 8.973 13.961 8.937 C 13.919 8.892 13.866 8.86 13.807 8.844 C 13.713 8.816 13.617 8.797 13.52 8.787 C 13.37 8.772 13.219 8.765 13.068 8.766 C 12.922 8.764 12.775 8.772 12.629 8.788 C 12.532 8.797 12.436 8.816 12.343 8.844 C 12.285 8.861 12.233 8.893 12.193 8.936 C 12.163 8.972 12.146 9.018 12.146 9.065 L 12.146 12.526 L 8.847 12.526 L 8.847 9.065 C 8.848 9.019 8.832 8.973 8.804 8.937 C 8.764 8.892 8.712 8.859 8.654 8.844 C 8.56 8.816 8.464 8.797 8.367 8.787 C 8.222 8.771 8.077 8.764 7.932 8.766 C 7.78 8.765 7.628 8.772 7.476 8.787 C 7.378 8.797 7.281 8.816 7.186 8.844 C 7.127 8.86 7.074 8.892 7.032 8.937 C 7.002 8.973 6.985 9.018 6.985 9.065 L 6.985 17.759 C 6.985 17.806 7.002 17.852 7.032 17.887 C 7.074 17.932 7.127 17.964 7.186 17.98 C 7.281 18.008 7.378 18.027 7.476 18.037 C 7.628 18.053 7.78 18.06 7.932 18.058 C 8.077 18.06 8.222 18.053 8.367 18.037 C 8.464 18.027 8.56 18.008 8.654 17.98 C 8.712 17.965 8.764 17.933 8.804 17.887 C 8.832 17.851 8.848 17.806 8.847 17.759 L 8.847 14.189 L 12.146 14.189 L 12.146 17.759 C 12.145 17.806 12.162 17.852 12.192 17.887 C 12.233 17.932 12.285 17.964 12.343 17.98 C 12.436 18.009 12.532 18.028 12.63 18.037 C 12.775 18.053 12.922 18.06 13.068 18.058 C 13.219 18.06 13.37 18.052 13.52 18.036 C 13.617 18.027 13.713 18.008 13.806 17.98 C 13.866 17.964 13.919 17.932 13.961 17.887 C 13.991 17.851 14.007 17.806 14.007 17.759 L 14.007 9.065 L 14.007 9.065 Z" fill-rule="evenodd"/></g></svg>