<svg id="capturezone" xmlns="http://www.w3.org/2000/svg" width="100" height="100" viewBox="0 0 100 100">
  <defs>
    <style>
      .cls-1 {
        fill: #fff;
      }

      .cls-2 {
        fill-rule: evenodd;
      }
    </style>
  </defs>
  <circle class="cls-1" cx="50" cy="50" r="48"/>
  <path id="B" class="cls-2" d="M77.74,57.45a15.772,15.772,0,0,0-2.885-4.86A15.194,15.194,0,0,0,70.568,49.2a18.224,18.224,0,0,0-5.373-1.839,15.214,15.214,0,0,0,4.049-2.207A13.721,13.721,0,0,0,72.235,42a13.885,13.885,0,0,0,1.853-3.967,16.544,16.544,0,0,0,.635-4.65,17.328,17.328,0,0,0-1.588-7.671,14.108,14.108,0,0,0-4.579-5.385A21.078,21.078,0,0,0,61.2,17.15,46.337,46.337,0,0,0,50.532,16.1h-17.2a4.348,4.348,0,0,0-2.938,1.025A4.183,4.183,0,0,0,29.2,20.46V79.727a4.182,4.182,0,0,0,1.191,3.336,4.347,4.347,0,0,0,2.938,1.025H51.538a51.194,51.194,0,0,0,7.49-.5,33.666,33.666,0,0,0,6.326-1.55,24.778,24.778,0,0,0,5.426-2.68,17.882,17.882,0,0,0,4.235-3.888,17.529,17.529,0,0,0,2.779-5.2A20.23,20.23,0,0,0,78.8,63.7,17.493,17.493,0,0,0,77.74,57.45ZM60.219,38.561a7.877,7.877,0,0,1-1.773,2.89,8.327,8.327,0,0,1-2.991,1.944,13.424,13.424,0,0,1-4.817.709H42.857V26.45H49.9a18.613,18.613,0,0,1,5.161.578,8.788,8.788,0,0,1,3.2,1.655,6.651,6.651,0,0,1,1.906,2.706,10.057,10.057,0,0,1,.635,3.678A10.456,10.456,0,0,1,60.219,38.561Zm3.308,29.634a8.2,8.2,0,0,1-2.276,2.942,10.014,10.014,0,0,1-3.441,1.786,17.024,17.024,0,0,1-4.9.6H42.857V54.192h8.258a23.09,23.09,0,0,1,6.193.683,10.777,10.777,0,0,1,3.917,1.944,8.081,8.081,0,0,1,2.329,3.126,10.705,10.705,0,0,1,.794,4.23A9.412,9.412,0,0,1,63.527,68.195Z"/>
</svg>
