<svg xmlns="http://www.w3.org/2000/svg" style="isolation:isolate" width="21" height="27"><defs><clipPath id="a"><path d="M0 0H21V27H0z"/></clipPath></defs><g clip-path="url(#a)"><path d="M 2.5 13.5 C 2.5 9.085 6.085 5.5 10.5 5.5 C 14.915 5.5 18.5 9.085 18.5 13.5 C 18.5 17.915 14.915 21.5 10.5 21.5 C 6.085 21.5 2.5 17.915 2.5 13.5 Z" fill-opacity="0.2"/><path d="M 1 13.5 C 1 8.257 5.257 4 10.5 4 C 15.743 4 20 8.257 20 13.5 C 20 18.743 15.743 23 10.5 23 C 5.257 23 1 18.743 1 13.5 Z M 2.25 13.5 C 2.25 8.947 5.947 5.25 10.5 5.25 C 15.053 5.25 18.75 8.947 18.75 13.5 C 18.75 18.053 15.053 21.75 10.5 21.75 C 5.947 21.75 2.25 18.053 2.25 13.5 Z" fill-rule="evenodd" fill-opacity="0.5"/><path d="M 2 13.5 C 2 8.809 5.809 5 10.5 5 C 15.191 5 19 8.809 19 13.5 C 19 18.191 15.191 22 10.5 22 C 5.809 22 2 18.191 2 13.5 Z M 3 13.5 C 3 9.361 6.361 6 10.5 6 C 14.639 6 18 9.361 18 13.5 C 18 17.639 14.639 21 10.5 21 C 6.361 21 3 17.639 3 13.5 Z" fill-rule="evenodd" fill="#FFF"/><path d="M 4 13.5 C 4 9.913 6.913 7 10.5 7 C 14.087 7 17 9.913 17 13.5 C 17 17.087 14.087 20 10.5 20 C 6.913 20 4 17.087 4 13.5 Z" fill="#FFF"/><path d="M 14.256 14.509 C 14.167 14.268 14.035 14.045 13.866 13.851 C 13.702 13.664 13.505 13.508 13.285 13.392 C 13.057 13.271 12.812 13.187 12.558 13.143 C 12.755 13.071 12.94 12.971 13.106 12.844 C 13.263 12.724 13.399 12.58 13.511 12.417 C 13.623 12.252 13.707 12.071 13.762 11.879 C 13.82 11.675 13.849 11.463 13.848 11.25 C 13.857 10.892 13.783 10.536 13.633 10.211 C 13.491 9.919 13.278 9.668 13.013 9.482 C 12.711 9.276 12.373 9.13 12.017 9.052 C 11.542 8.949 11.058 8.901 10.572 8.909 L 8.243 8.909 C 8.098 8.905 7.956 8.954 7.845 9.048 C 7.727 9.167 7.668 9.333 7.683 9.5 L 7.683 17.526 C 7.667 17.693 7.727 17.858 7.845 17.977 C 7.956 18.071 8.097 18.121 8.242 18.116 L 10.708 18.116 C 11.047 18.118 11.387 18.096 11.723 18.048 C 12.014 18.006 12.301 17.936 12.579 17.838 C 12.838 17.748 13.085 17.626 13.314 17.476 C 13.532 17.332 13.726 17.154 13.887 16.949 C 14.052 16.737 14.179 16.499 14.264 16.245 C 14.358 15.958 14.404 15.657 14.4 15.355 C 14.404 15.067 14.355 14.78 14.256 14.509 L 14.256 14.509 Z M 11.884 11.951 C 11.833 12.097 11.751 12.231 11.644 12.342 C 11.529 12.458 11.391 12.548 11.239 12.606 C 11.029 12.677 10.808 12.71 10.586 12.702 L 9.533 12.702 L 9.533 10.311 L 10.486 10.311 C 10.722 10.304 10.957 10.331 11.185 10.389 C 11.344 10.433 11.491 10.51 11.619 10.613 C 11.734 10.712 11.823 10.838 11.877 10.98 C 11.936 11.139 11.965 11.308 11.963 11.478 C 11.963 11.639 11.937 11.799 11.884 11.951 L 11.884 11.951 Z M 12.332 15.964 C 12.261 16.119 12.155 16.255 12.024 16.362 C 11.885 16.473 11.727 16.555 11.558 16.604 C 11.342 16.663 11.118 16.691 10.894 16.685 L 9.533 16.685 L 9.533 14.068 L 10.651 14.068 C 10.933 14.06 11.216 14.092 11.49 14.16 C 11.683 14.211 11.863 14.3 12.02 14.423 C 12.158 14.537 12.267 14.682 12.335 14.847 C 12.41 15.028 12.446 15.223 12.443 15.42 C 12.446 15.607 12.408 15.793 12.332 15.964 L 12.332 15.964 Z" fill-rule="evenodd"/></g></svg>