<svg id="capturezone" xmlns="http://www.w3.org/2000/svg" width="100" height="100" viewBox="0 0 100 100">
  <defs>
    <style>
      .cls-1 {
        fill: #fff;
      }

      .cls-2 {
        fill-rule: evenodd;
      }
    </style>
  </defs>
  <circle class="cls-1" cx="50" cy="50" r="48"/>
  <path id="O" class="cls-2" d="M79.819,33.7a27.424,27.424,0,0,0-6.035-10.745,24.185,24.185,0,0,0-9.952-6.3A42.167,42.167,0,0,0,50.1,14.605a38.342,38.342,0,0,0-14.319,2.469A27.508,27.508,0,0,0,25.43,24.168a30.252,30.252,0,0,0-6.3,11.218,48.433,48.433,0,0,0-2.117,14.843A54.059,54.059,0,0,0,19,65.781,27.046,27.046,0,0,0,24.953,76.6a24.2,24.2,0,0,0,9.925,6.331,42.408,42.408,0,0,0,13.948,2.075,38.549,38.549,0,0,0,14.266-2.443,27.115,27.115,0,0,0,10.349-7.093,30.445,30.445,0,0,0,6.3-11.323A49.978,49.978,0,0,0,81.857,49.02,51.35,51.35,0,0,0,79.819,33.7ZM66.374,58.977a21.63,21.63,0,0,1-2.991,7.592,15.333,15.333,0,0,1-5.558,5.149A17.626,17.626,0,0,1,49.25,73.61a19.369,19.369,0,0,1-8.522-1.655,13.1,13.1,0,0,1-5.4-4.808,21.435,21.435,0,0,1-2.858-7.592,53.653,53.653,0,0,1-.847-10.009,45.291,45.291,0,0,1,.873-9.063,21.075,21.075,0,0,1,2.991-7.487,15.726,15.726,0,0,1,5.558-5.123,17.425,17.425,0,0,1,8.575-1.918,18.734,18.734,0,0,1,8.47,1.708A13.747,13.747,0,0,1,63.516,32.5,20.882,20.882,0,0,1,66.4,40.009a51.628,51.628,0,0,1,.847,9.747A46.639,46.639,0,0,1,66.374,58.977Z"/>
</svg>
