<svg xmlns="http://www.w3.org/2000/svg" style="isolation:isolate" width="21" height="27"><defs><clipPath id="a"><path d="M0 0H21V27H0z"/></clipPath></defs><g clip-path="url(#a)"><path d="M 2.5 13.5 C 2.5 9.085 6.085 5.5 10.5 5.5 C 14.915 5.5 18.5 9.085 18.5 13.5 C 18.5 17.915 14.915 21.5 10.5 21.5 C 6.085 21.5 2.5 17.915 2.5 13.5 Z" fill-opacity="0.2"/><path d="M 1 13.5 C 1 8.257 5.257 4 10.5 4 C 15.743 4 20 8.257 20 13.5 C 20 18.743 15.743 23 10.5 23 C 5.257 23 1 18.743 1 13.5 Z M 2.25 13.5 C 2.25 8.947 5.947 5.25 10.5 5.25 C 15.053 5.25 18.75 8.947 18.75 13.5 C 18.75 18.053 15.053 21.75 10.5 21.75 C 5.947 21.75 2.25 18.053 2.25 13.5 Z" fill-rule="evenodd" fill-opacity="0.5"/><path d="M 2 13.5 C 2 8.809 5.809 5 10.5 5 C 15.191 5 19 8.809 19 13.5 C 19 18.191 15.191 22 10.5 22 C 5.809 22 2 18.191 2 13.5 Z M 3 13.5 C 3 9.361 6.361 6 10.5 6 C 14.639 6 18 9.361 18 13.5 C 18 17.639 14.639 21 10.5 21 C 6.361 21 3 17.639 3 13.5 Z" fill-rule="evenodd" fill="#FFF"/><path d="M 4 13.5 C 4 9.913 6.913 7 10.5 7 C 14.087 7 17 9.913 17 13.5 C 17 17.087 14.087 20 10.5 20 C 6.913 20 4 17.087 4 13.5 Z" fill="#FFF"/><path d="M 13.851 9.882 C 13.831 9.778 13.783 9.681 13.712 9.601 C 13.609 9.508 13.494 9.429 13.371 9.367 C 13.175 9.263 12.97 9.178 12.758 9.114 C 12.475 9.027 12.187 8.961 11.895 8.915 C 11.532 8.858 11.165 8.831 10.798 8.834 C 10.12 8.824 9.446 8.937 8.809 9.167 C 8.237 9.375 7.718 9.704 7.285 10.131 C 6.855 10.566 6.523 11.088 6.31 11.662 C 6.072 12.312 5.956 13 5.966 13.693 C 5.956 14.36 6.065 15.024 6.289 15.653 C 6.488 16.204 6.806 16.704 7.221 17.118 C 7.643 17.53 8.151 17.843 8.708 18.036 C 9.348 18.256 10.021 18.363 10.697 18.353 Q 11.077 18.353 11.454 18.317 Q 11.83 18.282 12.199 18.211 Q 12.568 18.14 12.912 18.04 Q 13.256 17.94 13.489 17.848 C 13.621 17.806 13.731 17.716 13.798 17.595 C 13.85 17.478 13.876 17.35 13.873 17.222 L 13.873 13.557 C 13.874 13.472 13.862 13.387 13.837 13.305 C 13.815 13.236 13.78 13.171 13.733 13.116 C 13.69 13.066 13.636 13.026 13.575 12.999 C 13.511 12.972 13.441 12.958 13.371 12.96 L 10.239 12.96 C 10.197 12.959 10.156 12.973 10.124 12.999 C 10.086 13.031 10.056 13.073 10.038 13.12 C 10.01 13.189 9.992 13.262 9.984 13.336 C 9.971 13.447 9.965 13.559 9.966 13.671 C 9.955 13.855 9.979 14.04 10.037 14.215 C 10.064 14.306 10.144 14.37 10.238 14.375 L 11.995 14.375 L 11.995 16.51 C 11.814 16.606 11.621 16.678 11.421 16.723 C 11.216 16.77 11.007 16.794 10.797 16.794 C 10.395 16.799 9.995 16.729 9.618 16.588 C 9.271 16.456 8.958 16.247 8.704 15.976 C 8.439 15.685 8.237 15.342 8.113 14.969 C 7.964 14.52 7.893 14.05 7.901 13.578 C 7.896 13.132 7.966 12.688 8.109 12.265 C 8.236 11.889 8.438 11.543 8.704 11.248 C 8.963 10.964 9.281 10.741 9.636 10.593 C 10.022 10.434 10.437 10.356 10.855 10.362 C 11.228 10.356 11.6 10.399 11.962 10.49 C 12.242 10.562 12.516 10.655 12.783 10.767 C 12.973 10.847 13.157 10.94 13.335 11.045 C 13.424 11.111 13.527 11.154 13.636 11.173 C 13.676 11.174 13.715 11.161 13.747 11.137 C 13.784 11.104 13.812 11.061 13.826 11.013 C 13.851 10.935 13.868 10.855 13.876 10.774 C 13.889 10.656 13.895 10.537 13.894 10.419 C 13.899 10.239 13.885 10.059 13.851 9.882 L 13.851 9.882 Z" fill-rule="evenodd"/></g></svg>