<svg width="24" height="24"><path d="M 2.646 3.354 L 3.354 2.646 L 7.354 6.646 L 6.646 7.354 L 2.646 3.354 Z M 21.354 20.646 L 20.646 21.354 L 16.646 17.354 L 17.354 16.646 L 21.354 20.646 Z M 3.354 21.354 L 2.646 20.646 L 6.646 16.646 L 7.354 17.354 L 3.354 21.354 Z M 20.646 2.646 L 21.354 3.354 L 17.354 7.354 L 16.646 6.646 L 20.646 2.646 Z" fill="none" stroke-width="1.4" stroke="#000" stroke-linejoin="round" stroke-miterlimit="3"/><path d="M 2.646 3.354 L 3.354 2.646 L 7.354 6.646 L 6.646 7.354 L 2.646 3.354 Z M 21.354 20.646 L 20.646 21.354 L 16.646 17.354 L 17.354 16.646 L 21.354 20.646 Z M 3.354 21.354 L 2.646 20.646 L 6.646 16.646 L 7.354 17.354 L 3.354 21.354 Z M 20.646 2.646 L 21.354 3.354 L 17.354 7.354 L 16.646 6.646 L 20.646 2.646 Z" fill-rule="evenodd" fill="#FFF"/></svg>