<svg width="100" height="100" viewBox="0 0 100 100" xmlns="http://www.w3.org/2000/svg">
<defs>
<style>.cls-1 {
        fill-rule: evenodd;
        fill: url(#a);
      }</style>
<linearGradient id="a" x1="50" x2="50" y1="88" y2="15.031" gradientUnits="userSpaceOnUse">
<stop stop-color="#ffc84a" offset="0"/>
<stop stop-color="#fff67c" offset="1"/>
</linearGradient>
</defs>
<path class="cls-1" d="M90,70.851V88H88.625l-15.68-7.107s0.277,0.007-1.336.55A67.9,67.9,0,0,1,50,85.009C22.386,85.009,0,69.174,0,49.8S22.386,15.028,50,15.028s50,15.4,50,34.774c0,7.48-3.337,14.412-9.023,20.106C90.67,70.214,90,70.851,90,70.851ZM50,22C25.147,22,5,34.6,5,49.789S25.147,78,50,78c7.6,0,14.648-1.969,20.926-4L85,79.164V66.879c6.162-4.705,10-10.595,10-17.09C95,34.6,74.852,22,50,22ZM25,44H35V54H25V44Zm20,0H55V54H45V44Zm20,0H75V54H65V44Z"/>
</svg>
