<?xml version="1.0" encoding="utf-8"?>
<!-- Generator: Adobe Illustrator 16.0.0, SVG Export Plug-In . SVG Version: 6.00 Build 0)  -->
<!DOCTYPE svg PUBLIC "-//W3C//DTD SVG 1.1//EN" "http://www.w3.org/Graphics/SVG/1.1/DTD/svg11.dtd">
<svg version="1.1" id="Layer_1" xmlns="http://www.w3.org/2000/svg" xmlns:xlink="http://www.w3.org/1999/xlink" x="0px" y="0px"
	 width="40px" height="40px" viewBox="0 0 40 40" enable-background="new 0 0 40 40" xml:space="preserve">
<path id="Color_Fill_1" fill="#FFFFFF" d="M12.123,16.316c0.014-2.752,0.049-5.706,0.049-8.54c0.016-0.745,0.032-1.489,0.049-2.234
	C12.173,5.195,12.19,4.842,12.27,4.5c0.017,3.855,0.033,7.711,0.049,11.566c0.166,0.024,0.334,0.008,0.491-0.049
	c-0.07,0.006-0.141-0.012-0.2-0.051h0.049c0.033-0.033,0.117-0.017,0.147-0.05c0.012-0.12,0.046-0.238,0.1-0.347
	c0.06-0.038,0.129-0.056,0.2-0.051c0,0.055,0.017,0.106,0.049,0.149c0.075-0.081,0.202-0.087,0.283-0.012
	c0.032,0.03,0.054,0.069,0.062,0.112c0.032,0.043,0.049,0.095,0.049,0.148c0.523,0,0.895,0.083,1.325,0.1v-0.199
	c-0.111-0.036-0.228-0.053-0.344-0.051v-0.146h0.295c-0.046-0.221-0.113-0.437-0.2-0.645c-0.011-0.065,0.12-0.286,0.1-0.348
	c-0.067-0.07-0.117-0.155-0.147-0.248h-0.246c0.041-0.161-0.024-0.076,0.1-0.149v0.05c0.135,0.024,0.058-0.028,0.1-0.1
	c-0.071,0.006-0.141-0.011-0.2-0.05c0.228-0.026,0.458-0.026,0.687,0v-0.1c0.157-0.271-0.149-0.343-0.147-0.546l0.1-0.3h0.489
	l0.049,0.149c0.053,0.11,0.053,0.238,0,0.348c-0.117,0.022-0.232,0.056-0.344,0.1c0.042,0.093,0.023,0.037,0,0.149
	c0.403-0.033,0.808,0.035,1.178,0.2c-0.017-0.065-0.017-0.134,0-0.2h0.1v0.2c1.62,0.008,2.392,0.033,3.779,0
	c0,0.054-0.017,0.106-0.049,0.149c-0.072-0.126,0.011-0.056-0.147-0.1v0.05c0.063,0.006,0.118,0.044,0.147,0.1h-0.148
	c-0.405-0.065-0.817-0.082-1.227-0.05c-0.04,0.073-0.089,0.141-0.147,0.2c-0.379-0.043-0.763-0.009-1.129,0.1v-0.1
	c0.038-0.005,0.073-0.022,0.1-0.05c-0.536-0.051-1.076,0.035-1.57,0.248c-0.037,0.06-0.054,0.129-0.049,0.2h-0.592
	c-0.193,0.454-0.262,0.95-0.2,1.44h0.049v-0.101c0.25-0.268,0.375-0.628,0.344-0.993c0.26-0.032,0.522-0.049,0.785-0.05
	c0.082,0.153,0.116,0.327,0.1,0.5c0.285-0.045,0.539-0.18,0.834-0.248v1.093c-0.032,0.043-0.049,0.095-0.049,0.148
	c0.601,0.074,1.193,0.209,1.767,0.4c0.159,0.046,0.326,0.063,0.491,0.05c0.047-0.144,0.195-0.229,0.344-0.2
	c0.049,0.092,0.1,0.189,0.147,0.3c0.609-0.081,1.225,0.08,1.718,0.447c0.252,0.038,0.499,0.104,0.735,0.2
	c0.035,0.037,0.064,0.111,0.101,0.148c0.483-0.105,0.982-0.121,1.472-0.05h3.779c1.047,0.055,2.095,0.055,3.141,0
	c0.119-0.04,0.234-0.09,0.344-0.149h2.848c0.039,0.064,0.072,0.131,0.1,0.201c0,0,0.525-0.051,0.639-0.051
	c0.687,0.041,1.376,0.024,2.061-0.05c0.998-0.039,1.998-0.022,2.994,0.05c0.045,0.209,0.061,0.422,0.047,0.635
	c-1.357,0-2.8,0.051-4.221,0.051c-0.523,0.029-1.048,0.029-1.571,0V18.8c-2.752,0-5.091,0-7.951,0l-2.847,0.05
	c-0.294,0.021-0.59,0.021-0.883,0c-0.006,0.069-0.021,0.137-0.049,0.2c-0.763,0.03-0.943,0.706-1.67,0.447v0.101h0.639
	c0.639-0.174,1.305-0.225,1.963-0.149c0.054,0.092,0.088,0.194,0.1,0.3c0.299,0.02,0.595,0.068,0.883,0.148
	c0.379,0.015,0.759-0.02,1.129-0.1c0.004,0.142,0.12,0.254,0.262,0.251c0.011-0.001,0.021-0.001,0.033-0.003
	c0.314,0.111,0.648,0.162,0.981,0.148l0.101-0.299c0.037,0.004,0.072,0.021,0.1,0.049c0.22,0.149-0.014,0.101,0.1,0.248
	c0.238,0.076,0.49,0.094,0.736,0.051c0.174-0.117,0.397-0.137,0.589-0.051c-0.044,0.043-0.077,0.094-0.1,0.149
	c0.236,0.003,0.47,0.054,0.687,0.149c0.41,0.572,0.756,1.188,1.031,1.837c-0.206,0.125-0.454,0.161-0.688,0.1v0.05
	c-0.148,0.195-0.154,0.492-0.293,0.7c-0.358,0.337-0.773,0.606-1.228,0.794c-0.685,0.542-1.425,1.008-2.209,1.391
	c-0.388,0.073-0.785,0.09-1.179,0.05H21.6l-8.785,0.05h-4.57c-0.72,0.07-1.445,0.055-2.16-0.05c-0.771-0.317-1.498-0.734-2.16-1.241
	c-0.349-0.216-0.748-0.311-1.08-0.546c-0.228-0.17-0.413-0.392-0.54-0.646c-0.011-0.138-0.044-0.273-0.1-0.399H1.767
	c-0.012,0.021-0.029,0.038-0.049,0.05c0.052,0.108,0.069,0.23,0.049,0.348v0.051c-0.081,0.016-0.164,0.016-0.245,0L1.08,22.77
	c-0.068-0.326-0.085-0.661-0.049-0.992c0.078-0.119,0.113-0.26,0.1-0.4c-0.091-0.049-0.147-0.145-0.147-0.248l-0.442-0.05
	c-0.063-0.087-0.099-0.192-0.1-0.3c-0.053,0-0.105-0.018-0.147-0.051C0.111,20.377,0.01,19.988,0,19.592
	c0.174-0.021,0.333-0.11,0.442-0.248c0,0,0.587-0.047,0.736-0.05V18.55c0.352-0.022,0.771-0.147,1.178-0.2V19l0.491-0.05V18.3
	c0.648-0.009,1.394-0.048,2.11-0.05c-0.034,0.234-0.018,0.473,0.049,0.7v-0.7c0.642,0.016,1.283-0.035,1.914-0.15H6.479
	C6.39,17.986,6.271,17.9,6.135,17.852h0.294v-0.345h-0.1c-0.034-0.1,0.093-0.713,0.1-0.942c0.071-0.055,0.156-0.089,0.245-0.101
	c0.108,0.048,0.227,0.065,0.344,0.05v-0.148h0.148v0.148c0.149,0,0.297,0.016,0.442,0.051c-0.001,0.102,0.015,0.203,0.049,0.3h0.1
	v-0.3c0.44-0.053,0.885-0.053,1.325,0c-0.048-0.213-0.048-0.434,0-0.646c0.193,0.046,0.391,0.063,0.589,0.05v-0.447
	c0.111-0.036,0.228-0.053,0.344-0.05c0.086,0.07,0.187,0.121,0.294,0.149v-0.05c-0.177-0.109-0.129-0.087-0.1-0.3
	c0.133,0.019,0.269,0.001,0.393-0.05c-0.058-0.176-0.075-0.363-0.049-0.546h0.295c0,0.567-0.078,1.1-0.049,1.59
	c0.112,0.033,0.228,0.051,0.344,0.049c0.116-0.872,0.132-1.754,0.049-2.63c0.006-2.062,0.049-4.312,0.049-6.454
	c-0.091-0.91-0.057-1.829,0.1-2.73c0,2.711,0,5.64,0,8.192c-0.071,1.19-0.071,2.384,0,3.574c0.074,0.164,0.173,0.314,0.294,0.447
	h0.1c-0.016-0.118,0.001-0.238,0.049-0.348C11.891,16.316,12.008,16.301,12.123,16.316z M18.7,13.883
	c0.125,0.072,0.055-0.011,0.1,0.149h-0.1V13.883z M15.215,14.083c0.027,0.027,0.063,0.044,0.1,0.05
	C15.288,14.105,15.253,14.087,15.215,14.083L15.215,14.083z M14.675,14.183v0.1h0.049v-0.1H14.675z M16.982,14.283
	c0.254,0.088,0.531,0.088,0.785,0H16.982z M17.915,14.283c0.238,0.085,0.498,0.085,0.736,0H17.915L17.915,14.283z M14.676,14.383
	l0.049,0.149h0.049v-0.05c0.026-0.027,0.044-0.062,0.049-0.1h-0.05c-0.055,0.08-0.005,0.028-0.098-0.003L14.676,14.383z
	 M15.363,14.383v0.1h0.049v-0.1H15.363L15.363,14.383z M16,14.429c0.084,0.044,0.063,0.044,0.147,0H16z M15.313,14.629
	c-0.07,0.103-0.105,0.225-0.1,0.348h0.049C15.313,14.868,15.331,14.747,15.313,14.629L15.313,14.629z M10.503,15.473
	c0,0.054,0.017,0.106,0.049,0.149c0-0.055-0.018-0.107-0.052-0.15L10.503,15.473z M13.203,15.721v0.2h0.2v-0.2H13.2H13.203z
	 M10.503,15.771c0,0.053,0.017,0.105,0.049,0.148c0-0.055-0.018-0.107-0.052-0.15L10.503,15.771z M9.865,16.171
	c0.041,0.161-0.024,0.076,0.1,0.149c0.109-0.054,0.236-0.054,0.344,0V16.02h-0.1c-0.092,0.091-0.215,0.144-0.344,0.147V16.171z
	 M10.503,16.021c-0.006,0.07,0.011,0.141,0.049,0.201c0.006-0.072-0.012-0.145-0.052-0.205L10.503,16.021z M12.319,16.171
	c0,0.054,0.017,0.106,0.049,0.149v-0.153h-0.049V16.171z M9.129,16.57h0.294v-0.155l-0.294-0.05v0.199V16.57z M9.473,16.422v0.148
	h0.294v-0.155H9.472L9.473,16.422z M6.332,16.77c0.026,0.027,0.043,0.063,0.049,0.101h-0.05L6.332,16.77L6.332,16.77z M19.878,17.17
	v-0.159h-0.1v-0.05H19.73v0.05c-0.056,0.03-0.093,0.086-0.1,0.149h0.245L19.878,17.17z M7.068,18.163l0.049,0.7
	c0.111,0.035,0.227,0.053,0.344,0.05c0.335-0.096,0.688-0.112,1.031-0.05c0.893,0.136,1.797,0.186,2.7,0.148V18.9
	c-0.05-0.068-0.12-0.121-0.2-0.149c-0.477-0.223-0.995-0.343-1.52-0.351c-0.788-0.185-1.596-0.268-2.405-0.248L7.068,18.163z
	 M19.78,19.454c0.158,0.114,0.365,0.134,0.54,0.05L19.78,19.454z M26.553,19.802v0.138l-0.199,0.149V19.84H26.4v-0.05h0.146
	L26.553,19.802z M26.896,20.002l0.049,0.148h0.05v-0.161H26.9L26.896,20.002z M0.688,20.896c0.187,0.027,0.368-0.075,0.442-0.248
	c-0.087-0.014-0.162-0.07-0.2-0.149H0.883v0.05c-0.061,0.043-0.128,0.077-0.2,0.1v0.248H0.688z M1.472,21.33l0.049,0.199h0.05
	C1.582,21.449,1.542,21.37,1.472,21.33z M1.372,21.578c-0.044,0.211-0.1,0.508-0.147,0.745h0.051v-0.05
	c0.113-0.213,0.148-0.459,0.098-0.695H1.372z M1.372,22.277l-0.049,0.248h0.1c0.011-0.087-0.006-0.176-0.049-0.252L1.372,22.277z
	 M28.366,22.479c-0.037,0.131-0.06,0.119-0.101,0.248h0.101V22.67c0.043-0.037,0.055-0.063,0.1-0.1v-0.1h-0.1V22.479z
	 M26.943,22.627c0.027,0.027,0.062,0.045,0.1,0.05c-0.025-0.028-0.061-0.048-0.098-0.056L26.943,22.627z M27.188,22.627
	c0.006,0.068,0.022,0.137,0.049,0.2c-0.154,0-0.065-0.084-0.146,0.05h0.049v0.05h0.051v-0.05c0.082-0.05,0.15-0.118,0.201-0.2
	h-0.054v-0.05h-0.147H27.188z M26.7,22.77c-0.126,0.168-0.427,0.33-0.147,0.5c0.122-0.113,0.222-0.249,0.295-0.399H26.8
	C26.734,22.746,26.818,22.835,26.7,22.77z M27.73,22.87c-0.086-0.021-0.168-0.054-0.244-0.101c-0.043,0.062-0.077,0.129-0.1,0.201
	h-0.05c-0.049,0.049,0.048,0.049,0.05,0.049c0.068,0.09,0.184,0.129,0.293,0.101v-0.05h0.051V22.87L27.73,22.87z M28.074,22.77
	c-0.055,0.055-0.125,0.09-0.2,0.101v0.101h0.101c0.082-0.05,0.15-0.119,0.199-0.201H28.074z M26.945,23.07
	c-0.059,0.177-0.141,0.346-0.245,0.5h0.1c0.136-0.127,0.358-0.17,0.491-0.301L26.945,23.07z M11.878,23.518
	c0.007,0.399-0.133,0.787-0.393,1.092h0.982v-0.051c-0.29-0.265-0.436-0.652-0.393-1.043h-0.2L11.878,23.518z M15.902,23.518h-0.295
	v0.1c0.012,0.361-0.111,0.715-0.344,0.992h1.031v-0.049c-0.269-0.281-0.411-0.658-0.394-1.047L15.902,23.518z M19.485,23.518
	c-0.008,0.396-0.146,0.78-0.393,1.092h0.982v-0.051c-0.293-0.263-0.439-0.652-0.393-1.043h-0.2L19.485,23.518z M4.957,23.666
	c0.081,0.055,0.052,0.088,0.1,0H4.957z M8.442,24.212c-0.059,0.146-0.142,0.281-0.245,0.399h0.54v-0.049
	c-0.112-0.105-0.211-0.225-0.295-0.354V24.212z M23.068,24.262l-0.2,0.348h0.442v-0.049c-0.074-0.105-0.155-0.207-0.242-0.302
	V24.262z"/>
</svg>
