<svg xmlns="http://www.w3.org/2000/svg" width="40" height="40" viewBox="0 0 40 40">
  <defs>
    <style>
      .cls-1 {
        fill: #fff;
        fill-rule: evenodd;
      }
    </style>
  </defs>
  <path id="cn_cm11_ico" class="cls-1" d="M10.85,18.559h0.338c0-.1.022-0.077,0.169-0.072V18.366c0.135-.041.106-0.216,0.1-0.386h0.072v0.386c0.085-.021.108-0.027,0.121,0.1a0.174,0.174,0,0,0-.048.193l0.844-.024V18.583a0.447,0.447,0,0,0,.024-0.217h0.072V18.221h0.145V14.093h0.048v3.669a1.32,1.32,0,0,1,.024.507h0.338a0.615,0.615,0,0,1,.1-0.193,3.213,3.213,0,0,1-.241-0.314,0.173,0.173,0,0,0,.048-0.1,1.1,1.1,0,0,1,.313-0.024c0.011,0,.056.067,0.072,0.072H13.7V17.593h0.048a1.4,1.4,0,0,1,.482,0,6.565,6.565,0,0,1,1.181-.024v0.217a0.363,0.363,0,0,0,.1.048,0.581,0.581,0,0,1,.169-0.217V17.593H15.6V17.472a0.069,0.069,0,0,0,.024-0.024c0.149,0,.183,0,0.193-0.145a0.116,0.116,0,0,0,.072-0.024,0.207,0.207,0,0,1,.072-0.1,0.7,0.7,0,0,0,.313.072,0.356,0.356,0,0,0,.169-0.145,0.126,0.126,0,0,1,0-.121,0.07,0.07,0,0,1-.024-0.024,0.936,0.936,0,0,1-.217-0.024V16.724a0.915,0.915,0,0,0-.723-0.072,0.259,0.259,0,0,1-.145.1L15.31,16.6H14.587a0.1,0.1,0,0,1-.145.024h0.072a0.117,0.117,0,0,0-.024-0.072,0.209,0.209,0,0,0-.121-0.024,0.162,0.162,0,0,1-.1.024L14.25,16.41H14.177V16.217H14.25l0.024-.193h0.1v0.1h0.024A0.526,0.526,0,0,1,14.78,16V15.928a0.427,0.427,0,0,1,.241-0.048,0.256,0.256,0,0,1,.048.121c0.436,0,.928.023,1.4,0.024v-0.1h0.289a0.307,0.307,0,0,1-.024.1H16.9V16h0.024V15.855h0.1a0.223,0.223,0,0,0,.072.241c0.154,0.1.538,0.018,0.7,0.1a0.427,0.427,0,0,1,.313-0.048,3.618,3.618,0,0,0,1.109.072l2,0.024v0.145l-2.556.024c-0.02.078,0.012,0.037-.048,0.073V16.459H18.59a0.156,0.156,0,0,1-.024.1v-0.1H18.348a0.2,0.2,0,0,1-.024.121V16.459a8.282,8.282,0,0,0-1.3.072v0.41H16.974c-0.045.027-.173,0.02-0.217,0.048a0.087,0.087,0,0,1,.024.048h0.024a0.123,0.123,0,0,1,.072-0.024l0.048,0.241H17a1.509,1.509,0,0,1,.6.072,3.639,3.639,0,0,1,.6.048,2.017,2.017,0,0,0,.627-0.024,1.092,1.092,0,0,1,.289.024h0.988v0.1A3.672,3.672,0,0,0,19,17.521h0.024c0.085,0.055.086-.034,0.1,0.121-0.417-.013-0.989.047-1.423,0.048v0.145H17.263v0.193H16.95l-0.024-.193H16.588v0.048a0.564,0.564,0,0,1-.024.217h0.024a0.242,0.242,0,0,1,.217-0.072,0.529,0.529,0,0,0,.241.217,2.126,2.126,0,0,0,.772.024,0.661,0.661,0,0,1,.241-0.241,0.746,0.746,0,0,1,.53.072,0.319,0.319,0,0,1,.024.169c0.493-.008,1.1-0.013,1.591,0a0.24,0.24,0,0,0,.121.169,0.706,0.706,0,0,1,.723.072,0.082,0.082,0,0,0,.048-0.024,0.533,0.533,0,0,1,.217-0.265V18.2h0.024v0.024a0.346,0.346,0,0,1,.169.121,6.019,6.019,0,0,0,.579.29,0.807,0.807,0,0,1,.313.169l0.1-.024a0.34,0.34,0,0,1,.145.145,8.115,8.115,0,0,0,.747.338,2.739,2.739,0,0,1,.53.338c-0.1.11-.116,0.3-0.217,0.41a3.005,3.005,0,0,0-.627-0.338,0.462,0.462,0,0,0-.217-0.072,1.542,1.542,0,0,0-.048.362h-0.12a0.365,0.365,0,0,1-.048.145h0.121V20.3h0.024v0.024a0.367,0.367,0,0,1,.145.024A0.2,0.2,0,0,1,23,20.3c0.042,0.032.039,0.042,0.072,0.024a0.148,0.148,0,0,1,.1-0.048c0.038,0.054.04,0.051,0.072,0.048a0.159,0.159,0,0,1,.121-0.072c0.029,0.04.095,0.1,0.121,0.072a0.433,0.433,0,0,1,.121-0.072v0.024h0.024c0.073,0.052.174-.09,0.289,0.072l0.024-.024a0.159,0.159,0,0,1,.121-0.072,0.132,0.132,0,0,0,.1.072c0.023-.035.069-0.115,0.1-0.072a0.214,0.214,0,0,1,.072.072,0.282,0.282,0,0,1,.145-0.072c0.008,0.117.038,0.149,0.048,0.265a4.907,4.907,0,0,1,.747.072h1.085a11.33,11.33,0,0,0,1.832.024l0.1-.193H30.4a0.51,0.51,0,0,0,.169.217,3.59,3.59,0,0,1,.8,0h8v0.072H40v0.6a1.968,1.968,0,0,0-.627.048H36.311c-2.511,0-5,.048-7.45.048a9.8,9.8,0,0,0-1.929,0c-0.349.075-.79-0.045-1.109,0.024a4.554,4.554,0,0,0-1.278.1,0.639,0.639,0,0,1-.12.241c-0.11-.128-0.057.04-0.169,0a0.194,0.194,0,0,0-.072-0.072,0.094,0.094,0,0,1-.072.1,0.39,0.39,0,0,0-.193-0.024,0.549,0.549,0,0,0-.1-0.072,0.117,0.117,0,0,1-.121.1l-0.024-.072-0.1.072-0.024-.072a0.278,0.278,0,0,0-.048.072c-0.064-.041-0.019-0.037-0.1-0.024a0.117,0.117,0,0,0-.024-0.072c-0.068.1-.156-0.035-0.169,0.193a0.729,0.729,0,0,0-.024.314,5.7,5.7,0,0,0,.53.314h0.482c0.165,0.036.433-.02,0.627,0.024a1,1,0,0,0,.458.1,0.069,0.069,0,0,0,.024.024,0.088,0.088,0,0,1-.048.024c-0.019.017-.054,0.032-0.072,0.048H25.22a0.651,0.651,0,0,1,.289.29,0.189,0.189,0,0,0,.024.266,2.757,2.757,0,0,0,.506.048,0.128,0.128,0,0,1,.12-0.048l0.386,0.072a0.518,0.518,0,0,1,.048-0.121c0.108,0.019.117,0.03,0.241,0.048v0.072a6.049,6.049,0,0,1,1.374.217,0.367,0.367,0,0,0,.217-0.072h0.6a0.81,0.81,0,0,1,.169-0.314,0.253,0.253,0,0,0,.169.072,0.18,0.18,0,0,1,.1-0.1v0.048a1.659,1.659,0,0,0-.362.7H29.15a0.147,0.147,0,0,1,.048-0.048,0.763,0.763,0,0,0,.289.314,3.286,3.286,0,0,1,.241.386v0.1a0.242,0.242,0,0,1,.217.121,0.579,0.579,0,0,0-.121.314h0.217v0.072H29.777V25.2a0.671,0.671,0,0,1,.145.314,2.147,2.147,0,0,1-.675.386c-0.051.032-.076,0.112-0.12,0.145-0.107.078-.171-0.032-0.217,0.121,0.117,0.112-.064.3-0.1,0.41l0.024,0.217a0.253,0.253,0,0,0,.145.048,0.164,0.164,0,0,1,.1-0.024,0.38,0.38,0,0,1,.024.121H29.078v0.024a1.351,1.351,0,0,1-.555-0.121v0.217a1,1,0,0,1-.651.362,0.663,0.663,0,0,1-.41.434,0.309,0.309,0,0,0-.145-0.024H27.294v0.024a0.283,0.283,0,0,0-.024.145c-0.159.051-.248,0.213-0.386,0.266a1.429,1.429,0,0,1-.217,0,0.134,0.134,0,0,1-.024.145,2.527,2.527,0,0,1-.386.29,0.429,0.429,0,0,0-.169-0.024H26.064a0.134,0.134,0,0,1-.024.145,1.283,1.283,0,0,1-.362.266,1.3,1.3,0,0,1-.169,0,1.334,1.334,0,0,1-.024.145c0,0.006-.375.261-0.386,0.265a0.808,0.808,0,0,1-.193,0c-0.019.029-.029,0.116-0.048,0.145a1.732,1.732,0,0,1-.555.241,0.621,0.621,0,0,0-.169-0.072c0,0.1-.041.131-0.217,0.121a3.478,3.478,0,0,1-.892.024H21.8c-0.1,0-.132-0.056-0.193-0.048a1.89,1.89,0,0,1-.675.048,0.3,0.3,0,0,0-.145-0.1,0.876,0.876,0,0,1-.675.1c-0.073-.112-0.494.1-0.747,0V29.9c-0.012-.006-0.2.048-0.289,0.048-0.36,0-.491,0-0.8,0h-0.41c-0.024-.007-0.011-0.065-0.072-0.048a1.617,1.617,0,0,1-.7.048,7.963,7.963,0,0,0-1.037,0,0.925,0.925,0,0,1-.482-0.048,1.336,1.336,0,0,1-.7.048V29.9c-0.066-.016-0.022.035-0.048,0.048A1.95,1.95,0,0,1,14.1,29.9a1.472,1.472,0,0,1-.723.048A2.208,2.208,0,0,1,12.61,29.9a1.342,1.342,0,0,1-.7.048V29.9c-0.023-.02-0.044.047-0.048,0.048H11.549c-0.134,0-.313-0.022-0.41-0.024a2.607,2.607,0,0,1-.7.024,5.123,5.123,0,0,1-.747,0A0.117,0.117,0,0,0,9.668,29.9a1.265,1.265,0,0,1-.651.048c-0.026-.008-0.023-0.072-0.1-0.048a1.047,1.047,0,0,1-.555.048,0.163,0.163,0,0,0-.121-0.1,0.608,0.608,0,0,1-.651.024,1.147,1.147,0,0,1-.675.048A10.992,10.992,0,0,1,5.3,29.879L5.015,29.9c-0.133-.038-0.264-0.13-0.41-0.169a0.162,0.162,0,0,0-.1-0.169c-0.027-.015-0.094.014-0.121,0a0.719,0.719,0,0,1-.434-0.555,0.175,0.175,0,0,1-.145,0,0.8,0.8,0,0,1-.362-0.555c-0.318.1-.431-0.434-0.506-0.507A0.44,0.44,0,0,1,2.8,27.924a1.883,1.883,0,0,1-.313-0.314c-0.06-.113.045-0.129-0.048-0.169a0.713,0.713,0,0,0-.579-0.048,0.253,0.253,0,0,1-.048-0.145H1.857a0.485,0.485,0,0,1,.193-0.024,0.34,0.34,0,0,0,.024-0.1c-0.125-.088-0.03-0.082-0.1-0.193L1.76,26.814A3.353,3.353,0,0,1,1.471,26.5a0.172,0.172,0,0,0-.024-0.121,0.659,0.659,0,0,1-.289.121v0.1c-0.14-.013-0.054-0.027-0.121-0.072H0.94A0.673,0.673,0,0,1,.892,26.4c-0.241.4-1.01,0.162-.82-0.362a0.671,0.671,0,0,1,.241-0.217H0.482a0.305,0.305,0,0,1,.024-0.1c0.081,0.031.369,0.214,0.386,0.217a0.489,0.489,0,0,0,.1-0.265,2.591,2.591,0,0,0-.338-0.024,0.95,0.95,0,0,1-.386-0.483A4.069,4.069,0,0,0,0,24.014a2.419,2.419,0,0,1,.892-0.676V22.131H1.181a0.356,0.356,0,0,1-.048-0.217,0.1,0.1,0,0,0,.048-0.1c-0.121.014-.27,0.055-0.41,0.073-0.011-.073-0.048-0.076-0.024-0.1C0.79,21.72.8,21.721,0.916,21.721a0.425,0.425,0,0,1,.241.024,7.718,7.718,0,0,1,1.495-.121v0.145a8.536,8.536,0,0,0,1.615-.145A9.446,9.446,0,0,0,5.3,21.576a0.815,0.815,0,0,1,.313.048c0.321,0,.577.02,0.916,0a9.775,9.775,0,0,1,2.966.362,3.976,3.976,0,0,0,1.447.121,0.973,0.973,0,0,0,.627,0,3.7,3.7,0,0,1-.747-0.217,6.961,6.961,0,0,0-2.483-.41,0.2,0.2,0,0,1-.072-0.145c0.139-.062.012-0.193,0.193-0.217,0.035,0.061.011,0.037,0.1,0.048a0.083,0.083,0,0,1,.024-0.048V21.069a3.718,3.718,0,0,1-.723-0.483,0.38,0.38,0,0,1-.048-0.217l0.41-1.062c0.06-.156.035-0.37,0.241-0.386A0.466,0.466,0,0,0,8.728,18.9a3.148,3.148,0,0,0,.82.048v-0.1H9.741L9.765,18.7l0.145-.121,0.217-.024V18.51c0.016-.035.006-0.022,0.12-0.024,0,0.091.044,0.084,0.193,0.072,0-.122-0.048-0.845-0.048-0.845H10.44a1.548,1.548,0,0,0,.024-0.531c0-.1.048-0.579,0.048-0.579A2.153,2.153,0,0,1,10.44,16h0.072V15.831h0.169v-6.3A1.454,1.454,0,0,1,10.705,9q0.012,2.426.024,4.852v1.424a2.365,2.365,0,0,0,.048.724l-0.024.314c0,0.324,0,.548,0,0.893v0.41H10.8v0.1H10.85a0.426,0.426,0,0,1-.048.265C10.787,18.221,10.849,18.317,10.85,18.559Zm7.4-1.955H18.3v0.024A0.082,0.082,0,0,1,18.252,16.6Zm0.362,0a0.117,0.117,0,0,1,.072.024A0.117,0.117,0,0,1,18.614,16.6Zm-0.555.024a0.117,0.117,0,0,1,.072.024A0.117,0.117,0,0,1,18.059,16.628Zm0.723,0a0.117,0.117,0,0,1,.072.024A0.117,0.117,0,0,1,18.782,16.628Zm0.1,0.024a0.087,0.087,0,0,1,.024.048H18.879V16.652Zm-0.844.121H18.9V16.8H18.879a3.254,3.254,0,0,1-.844.024,0.442,0.442,0,0,1-.024-0.145h0.024v0.1Z" transform="translate(0 0.516)"/>
</svg>
