<svg xmlns="http://www.w3.org/2000/svg" width="40" height="40" viewBox="0 0 40 40">
  <defs>
    <style>
      .cls-1 {
        fill: #fff;
        fill-rule: evenodd;
      }
    </style>
  </defs>
  <path id="cn_is_2_1944_ico" class="cls-1" d="M17.562,16.928a0.355,0.355,0,0,0,.021.125c0.136-.038.236,0.014,0.356-0.021a0.1,0.1,0,0,0,.021.063,1.178,1.178,0,0,1,1.047-.313,0.351,0.351,0,0,1,.146-0.376,0.549,0.549,0,0,1,.377-0.042c0.033,0.042.1,0.062,0.126,0.1a2.769,2.769,0,0,1,.084.606,3.41,3.41,0,0,1,.837.084l0.1-.021a0.54,0.54,0,0,1,.126.063c0.025,0.013.16-.029,0.188-0.021a0.24,0.24,0,0,1,.042.063s0.093-.038.126-0.042v0.084h0.021a0.73,0.73,0,0,1,.565.042,0.858,0.858,0,0,1,.146-0.042,0.1,0.1,0,0,0,.021.063,0.128,0.128,0,0,1,.042-0.042,0.1,0.1,0,0,0,.021.063c0.046-.072.1-0.032,0.209-0.042v0.021H22.166c-0.04.016,0.042,0.021,0.042,0.021,0.048-.027.034,0.011,0.1-0.021a0.264,0.264,0,0,1-.021.084h0.063c0.017-.068-0.01-0.032.042-0.063,0.009,0.059.089,0.046,0.209,0.042,0.1,0.066.373,0.053,0.46,0.125l0.042,0.125a0.542,0.542,0,0,0,.293.167v0.042a0.152,0.152,0,0,0-.126.042c0.061,0.069.025,0.088,0,.167,0.28,0.195.051,0.282,0.607,0.272l-0.021.188a2.681,2.681,0,0,1,.356.021v0.063a6.814,6.814,0,0,1,1.3.084l11.805,0.063V18.642a3.547,3.547,0,0,0,.44-0.021v-0.1h0.1v0.1a3.563,3.563,0,0,0,.753-0.1h0.775a1.686,1.686,0,0,1,.523.042,1.61,1.61,0,0,1,0,1.024,1.713,1.713,0,0,1-.523.042H38.64a3.761,3.761,0,0,0-.774-0.1V19.6h-0.1V19.519a1.633,1.633,0,0,0-.44-0.021V19.352H37.3a3.6,3.6,0,0,1-.879.021H33.972a4.731,4.731,0,0,1-.858.021H30.665a4.618,4.618,0,0,1-.837.021H28.174l-2.658.021a6.947,6.947,0,0,1-1.3.084v0.063H23.862a0.06,0.06,0,0,1-.021.021v0.063a2.838,2.838,0,0,0-.628.23,1.806,1.806,0,0,1-.146.146,0.72,0.72,0,0,1-.314.042c-0.014,0-.07.058-0.084,0.063a5.255,5.255,0,0,1-.754.188l-0.063.167h0.377V20.334a1.121,1.121,0,0,1,.314-0.021,1.372,1.372,0,0,1,.209-0.042v0.251c0.115,0.02.061,0.068,0.126,0.1a1.887,1.887,0,0,0,.293.042,1.652,1.652,0,0,1,.23.146,2.926,2.926,0,0,0,.984.376,0.208,0.208,0,0,0,.084-0.125c-0.19-.266.136-0.515,0.251-0.627l0.251-.021v0.669a1.024,1.024,0,0,0,.419.063,1.238,1.238,0,0,1,.607,0,1.68,1.68,0,0,1,.063.585c-0.022.089-.078,0.172-0.1,0.251h0.419a1.515,1.515,0,0,0,.272.021,1.806,1.806,0,0,1,.44.188,1.7,1.7,0,0,1,.419.334,1.569,1.569,0,0,0,.314.376,1.648,1.648,0,0,0-.23.418,0.124,0.124,0,0,0,.042.125l-0.042.125c-0.062-.008-0.043-0.042-0.084.021a0.076,0.076,0,0,0-.021.042,0.184,0.184,0,0,1,.188.1,0.838,0.838,0,0,1,0,.4c-0.021.066-.115,0.187-0.126,0.251a0.263,0.263,0,0,1,0,.209c-0.039,0-.019-0.02-0.042.021a0.141,0.141,0,0,1,.021.084,0.549,0.549,0,0,1-.147.125c0-.07.045-0.05-0.021-0.084V24.722H27.337v0.021a2.253,2.253,0,0,1-.251.251v0.021c0.083,0.015.067,0,.084,0.084a2.374,2.374,0,0,1-.356.188V25.266c0.046-.049.024-0.016,0.021-0.1H26.813a0.971,0.971,0,0,1-.251.146l0.021,0.146c-0.175.037-.2,0.116-0.377,0.146,0-.075.031-0.043-0.042-0.063a0.685,0.685,0,0,1-.167.1,0.219,0.219,0,0,1,.042.125,0.281,0.281,0,0,0-.084.042c0-.075.031-0.043-0.042-0.063a0.278,0.278,0,0,1-.126.167H25.746c0-.078.025-0.051-0.063-0.063a0.735,0.735,0,0,1-.23.1,0.218,0.218,0,0,1,.042.125,1.831,1.831,0,0,0-.314.167V26.206a0.084,0.084,0,0,0,0-.1,1.143,1.143,0,0,1-.314.188V26.31c0.083,0.015.067,0,.084,0.084a2.232,2.232,0,0,1-.314.167,0.26,0.26,0,0,0,0-.125H24.615a1.034,1.034,0,0,1-.251.146,0.353,0.353,0,0,1,.042.125l-0.063.021a0.762,0.762,0,0,1-.251.084l-0.021-.1H24.029c-0.072.053-.2,0.05-0.272,0.1a0.084,0.084,0,0,1,0,.1,0.181,0.181,0,0,1-.1.021c0.008-.047.019-0.023,0-0.063a0.638,0.638,0,0,1-.419.063c0.008-.047.019-0.023,0-0.063a0.444,0.444,0,0,1-.335.063c-0.008-.055.016-0.027-0.042-0.042a0.63,0.63,0,0,1-.377.042c-0.008-.055.015-0.027-0.042-0.042a0.474,0.474,0,0,1-.314.042c-0.008-.055.016-0.027-0.042-0.042a0.541,0.541,0,0,1-.377.042c-0.008-.055.016-0.027-0.042-0.042a0.436,0.436,0,0,1-.356.042,0.262,0.262,0,0,0,.084-0.021V26.9h-0.1a0.4,0.4,0,0,1-.377.042,0.08,0.08,0,0,0,.063-0.042h-0.1a0.356,0.356,0,0,1-.335.063c-0.035-.038-0.267.038-0.419,0-0.04-.045-0.17.036-0.314,0a6.648,6.648,0,0,0-.754,0c0.008-.047.019-0.023,0-0.063a0.6,0.6,0,0,1-.419.063c0.008-.047.019-0.023,0-0.063a0.3,0.3,0,0,1-.314.042,0.08,0.08,0,0,0,.063-0.042H18.294a0.424,0.424,0,0,1-.4.042,0.08,0.08,0,0,0,.063-0.042H17.876a0.321,0.321,0,0,1-.293.063c0.008-.047.019-0.023,0-0.063a0.626,0.626,0,0,1-.419.063c0.008-.047.019-0.023,0-0.063a0.3,0.3,0,0,1-.335.021,2.7,2.7,0,0,1-.733.042c0.008-.047.019-0.023,0-0.063a0.6,0.6,0,0,1-.419.063c0.008-.047.019-0.023,0-0.063a0.3,0.3,0,0,1-.314.042c0.052-.027.014,0.009,0.042-0.042H15.343a0.424,0.424,0,0,1-.4.042c0.052-.027.014,0.009,0.042-0.042H14.924a0.321,0.321,0,0,1-.293.063c0.008-.047.019-0.023,0-0.063a0.626,0.626,0,0,1-.419.063c0.008-.047.019-0.023,0-0.063a0.4,0.4,0,0,1-.314.063c0.008-.047.019-0.023,0-0.063a0.626,0.626,0,0,1-.419.063c0.008-.047.019-0.023,0-0.063a0.445,0.445,0,0,1-.335.063c-0.008-.055.016-0.027-0.042-0.042a0.55,0.55,0,0,1-.356.042c-0.008-.053.012-0.033-0.063-0.042a0.378,0.378,0,0,1-.272.042c-0.008-.055.016-0.027-0.042-0.042a0.567,0.567,0,0,1-.356.042c-0.008-.053.012-0.033-0.063-0.042a0.378,0.378,0,0,1-.272.042c-0.008-.055.016-0.027-0.042-0.042a0.631,0.631,0,0,1-.377.042c-0.008-.055.016-0.027-0.042-0.042a2.411,2.411,0,0,1-.774.063,0.526,0.526,0,0,1-.272-0.021,0.08,0.08,0,0,0,.063-0.042H10.152a0.178,0.178,0,0,1-.251.021,0.1,0.1,0,0,1-.147.021,0.08,0.08,0,0,0,.063-0.042H9.733a0.254,0.254,0,0,1-.293.042A0.08,0.08,0,0,0,9.5,26.916H9.419a0.437,0.437,0,0,1-.4.042,0.08,0.08,0,0,0,.063-0.042H9a0.334,0.334,0,0,1-.314.063c-0.035-.038-0.267.039-0.419,0-0.04-.045-0.17.036-0.314,0a6.318,6.318,0,0,0-.733,0c0.008-.047.019-0.023,0-0.063a0.7,0.7,0,0,1-.419.063c0.008-.047.019-0.023,0-0.063a0.307,0.307,0,0,1-.314.042c0.052-.027.014,0.009,0.042-0.042H6.468a0.433,0.433,0,0,1-.4.042c0.052-.027.014,0.009,0.042-0.042H6.049a0.307,0.307,0,0,1-.272.063V26.958H5.756c0.008-.047.019-0.023,0-0.063a0.3,0.3,0,0,1-.272,0c-0.022.082-.024,0.08-0.126,0.084V26.958H5.338c0.008-.047.019-0.023,0-0.063a0.352,0.352,0,0,1-.293,0V26.854a0.205,0.205,0,0,0,.1-0.042,0.076,0.076,0,0,0-.042-0.021l-0.377-.125c0,0.077.035,0.08-.063,0.1-0.015-.018-0.026-0.023-0.042-0.042,0.052-.027.014,0.009,0.042-0.042H4.6A0.173,0.173,0,0,1,4.4,26.6a0.082,0.082,0,0,0,.063-0.084l-0.293-.125a0.205,0.205,0,0,1-.042.1,0.072,0.072,0,0,1-.042-0.021A0.143,0.143,0,0,1,4,26.436c0.052-.027.014,0.009,0.042-0.042H3.977a0.139,0.139,0,0,1-.167-0.063c0.051-.027.058-0.052,0.042-0.083-0.088-.065-0.166-0.019-0.251-0.084,0-.039.02-0.019-0.021-0.042a0.1,0.1,0,0,1-.1.084c-0.015-.018-0.026-0.024-0.042-0.042,0.052-.027.014,0.009,0.042-0.042H3.433a0.744,0.744,0,0,0-.084.021c-0.03,0-.1-0.051-0.147-0.063V26.039a0.082,0.082,0,0,0,.063-0.084A0.349,0.349,0,0,1,3.1,25.872a0.427,0.427,0,0,0-.063.063,0.817,0.817,0,0,1-.44-0.188A0.206,0.206,0,0,0,2.7,25.7a0.076,0.076,0,0,0-.042-0.021,1.361,1.361,0,0,0-.314-0.167,0.16,0.16,0,0,1,0,.125A0.072,0.072,0,0,1,2.3,25.621a1.326,1.326,0,0,1-.293-0.146,0.2,0.2,0,0,0,0-.146c-0.074-.037-0.115-0.087-0.188-0.125-0.021.066-.033,0.085-0.084,0.063a3.78,3.78,0,0,1-.649-0.773H1.151a0.264,0.264,0,0,0-.021-0.084,1.969,1.969,0,0,0-.188.125v0.021a0.228,0.228,0,0,1,.167.1V24.7H0.858A1.453,1.453,0,0,0,.481,24.66a0.206,0.206,0,0,1-.167-0.125A0.91,0.91,0,0,0,.1,23.678a0.9,0.9,0,0,1,.1-0.69H0.188a0.425,0.425,0,0,1-.167.125V23.093A0.075,0.075,0,0,1,0,23.051,5.075,5.075,0,0,0,.8,22.4c0.394-.294.8-0.564,1.193-0.857,0.2-.145.366-0.352,0.544-0.46a0.468,0.468,0,0,1,0-.334c0.05-.038.075-0.111,0.126-0.146A0.517,0.517,0,0,0,2.8,20.543l0.021-.188a0.542,0.542,0,0,1,.167-0.188,1.04,1.04,0,0,1,.565.146A0.359,0.359,0,0,0,3.6,20.5H3.663V19.937H5.484l0.063-.084a1.593,1.593,0,0,1,.586.084c0.581,0.008,1.088,0,1.7,0a3.008,3.008,0,0,0,.021.543H8.1V20.46H8.121V19.937c0.594,0,1.065.006,1.654,0a0.227,0.227,0,0,0,.209-0.084,0.844,0.844,0,0,1,.461.063,0.456,0.456,0,0,1,.4-0.1,2.666,2.666,0,0,1,.063-0.418,0.135,0.135,0,0,1-.084-0.021,0.372,0.372,0,0,0,.251-0.313c-0.031-.022-0.058-0.091-0.084-0.1H10.445V18.872h0.063V18.809H9.754a0.3,0.3,0,0,1-.021-0.084,0.076,0.076,0,0,0,.021-0.042H9.88a4.132,4.132,0,0,0,.984.021,0.587,0.587,0,0,1,.377-0.585V18.2h0.042a0.469,0.469,0,0,0,.146-0.188c-0.02-.04-0.008-0.024,0-0.084a0.669,0.669,0,0,1,.147,0v-0.1a0.107,0.107,0,0,0,.021-0.063,0.667,0.667,0,0,1-.188-0.1l0.021-.063a0.387,0.387,0,0,0,.23-0.1c0.261-.1.333,0.164,0.419-0.188a0.592,0.592,0,0,1,.021-0.272c0.04,0.06.079-.018,0.188-0.021a5.24,5.24,0,0,0,.628,0l0.1-.46a4.592,4.592,0,0,1,.461-0.313c0.136-.061.242,0,0.293-0.146a0.155,0.155,0,0,1-.042-0.125h0.1v0.188h0.042a0.279,0.279,0,0,1,.147-0.021V16.051h0.021V16.03a0.073,0.073,0,0,1,.042.021,0.115,0.115,0,0,1,.063.084c0.111-.038.316,0.006,0.377-0.021a0.551,0.551,0,0,0,.063-0.23H14.568a1.722,1.722,0,0,1-.628.021V15.424H12.622a0.423,0.423,0,0,1,0-.167h0.4v-0.1a21.285,21.285,0,0,1-2.344-.021,0.207,0.207,0,0,1,.042-0.125H10.633a2.429,2.429,0,0,0-.67-0.042,0.27,0.27,0,0,1-.021.146V14.964a0.658,0.658,0,0,1-.209-0.021C9.725,15,9.745,14.976,9.67,14.985a0.353,0.353,0,0,1-.209.042L9.44,14.964a0.244,0.244,0,0,1,0-.188,0.331,0.331,0,0,1,.1-0.021,0.72,0.72,0,0,0,.4.063,0.27,0.27,0,0,1,.021-0.146v0.146a0.762,0.762,0,0,0,.4-0.042,0.884,0.884,0,0,0,.021-0.355h0.084V14.63H10.4v0.063h0.063v0.084a0.86,0.86,0,0,0,.251.021,3.367,3.367,0,0,1,.837-0.021,7.863,7.863,0,0,0,2.072-.1v0.063h0.1V14.713h0.021l0.021-.188,0.942-.021v0.042a0.733,0.733,0,0,1,0,.209H14.9a0.23,0.23,0,0,1,.063-0.188V13.982a0.1,0.1,0,0,0,.1-0.042,1.1,1.1,0,0,1,.419.021v0.1a1.2,1.2,0,0,0-.021.46,0.606,0.606,0,0,1-.188.021v0.1l0.272,0.042a0.318,0.318,0,0,0,.293.042c0.005,0.15.055,0.19,0.063,0.334H15.845v0.1l-0.481-.021a0.648,0.648,0,0,1-.063.251c0-.124-0.033-0.134-0.042-0.251l-0.209.021v0.1a1.022,1.022,0,0,0-.021.376,0.131,0.131,0,0,0,.126.1,0.142,0.142,0,0,1,.084-0.021,0.383,0.383,0,0,1,.021.125l0.293-.021v0.272h0.063V16.051a0.071,0.071,0,0,0,.042-0.021H15.7v0.042a0.107,0.107,0,0,1,.021.063l0.188,0.021V15.967h0.1a1.112,1.112,0,0,1-.042.167,0.177,0.177,0,0,0,.146.063,0.481,0.481,0,0,0,.168.063,1.4,1.4,0,0,1,.419.293,0.519,0.519,0,0,0,.188.376,1.673,1.673,0,0,1,.126-0.376V13.878A5.276,5.276,0,0,1,17.038,13H17.08v0.021a3.228,3.228,0,0,1,.021.815v1.609a4.47,4.47,0,0,0,.021.815,1.669,1.669,0,0,0,.126.669h0.314Zm-2.24-1.5a0.106,0.106,0,0,1,.021.063H15.322V15.424Z"/>
</svg>
