<svg xmlns="http://www.w3.org/2000/svg" width="40" height="40" viewBox="0 0 40 40">
  <defs>
    <style>
      .cls-1 {
        fill: #fff;
        fill-rule: evenodd;
      }
    </style>
  </defs>
  <path id="cn_isu_152_ico" class="cls-1" d="M23.058,16.1h1.858a5.9,5.9,0,0,0,.886,0V16.011h0.065V15.925H25.8V15.687h0.086V16.1a1.913,1.913,0,0,0,.454.043,0.28,0.28,0,0,1,.022-0.151v0.151c0.231,0,.335-0.057.54-0.065l0.022,0.065a0.342,0.342,0,0,1,.022.173,0.2,0.2,0,0,1-.108.065,0.938,0.938,0,0,0-.475-0.086,0.334,0.334,0,0,1-.022.173V16.292l-0.843.043v0.043h0.065v0.086l-0.065.022a1.892,1.892,0,0,1-.67.022H23.058v0.108h0.367a0.656,0.656,0,0,1,0,.194H23.058a1.733,1.733,0,0,0,.065.518c0.02,0.07-.036.046-0.043,0.065v0.432a0.764,0.764,0,0,1,.259.043,0.621,0.621,0,0,0,.043.194c0.228,0,.474-0.007.67-0.022V17.956H24.2v0.086h0.108a0.4,0.4,0,0,1,.022.13,0.145,0.145,0,0,0-.022.086H24.2V18.28h0.022a1.616,1.616,0,0,0,.605.086c0.044-.025-0.019-0.041.087-0.065a0.06,0.06,0,0,0,.022.022v0.065c0.68,0.025,1.493.139,2.161,0.173,0.149,0.235.365,0.366,0.54,0.6a1.794,1.794,0,0,0,.389.475h0.389a1.3,1.3,0,0,0,.562.065L30.6,19.727a2.812,2.812,0,0,1,.8.065l5.446,0.043V19.748a6.115,6.115,0,0,1,1.232.065h1.664a1.4,1.4,0,0,0,.259.065v0.95a1.332,1.332,0,0,0-.259.065H38.552a3.081,3.081,0,0,0-.692.065H36.845V20.872l-4.733.022a5.9,5.9,0,0,0-.713.022l-0.022.043L29.411,21c0.035,0.105.009,0.172-.13,0.173V21.3h0.065a0.192,0.192,0,0,0,.065.065,0.286,0.286,0,0,0,.043.238,0.239,0.239,0,0,1-.065.151,0.938,0.938,0,0,0,.043.151,0.193,0.193,0,0,1-.151.086v0.151a1.358,1.358,0,0,1-.195.173H27.7v0.043h1.124a3.39,3.39,0,0,0,.475.13,3.32,3.32,0,0,1,.691.778c-0.062.043-.022,0.05,0,0.13a1.678,1.678,0,0,1-.173.065l-0.108-.151-0.735.259,0.043,0.065a0.168,0.168,0,0,0-.087,0l-0.022.065h0.022a0.118,0.118,0,0,0,.087.065,0.724,0.724,0,0,1,.259-0.151,0.168,0.168,0,0,1,.043.13,0.374,0.374,0,0,0-.065.173c0.056,0.1.174,0.16,0.216,0.259a3.171,3.171,0,0,1-.065.907H29.39a0.1,0.1,0,0,0-.022-0.065c-0.053.044-.031-0.027-0.065,0.043a0.663,0.663,0,0,0-.087.238c0.073,0.02.067,0.008,0.087,0.086a2.175,2.175,0,0,1-.3.367,0.364,0.364,0,0,0-.022-0.13H28.957v0.022l-0.216.173a0.143,0.143,0,0,1,.065.108,1.744,1.744,0,0,1-.411.281,0.12,0.12,0,0,0-.022-0.13,2.272,2.272,0,0,0-.194.13L28.2,26.294l-0.087.022a0.133,0.133,0,0,1-.043.151H28.05a0.1,0.1,0,0,0-.022-0.065v0.022a0.786,0.786,0,0,1-.194.194,0.213,0.213,0,0,0-.043-0.108c-0.113.055-.193,0.137-0.3,0.194a0.366,0.366,0,0,1,.043.13,0.323,0.323,0,0,1-.086.043c-0.008-.056.016-0.028-0.043-0.043l-0.022.108a0.869,0.869,0,0,1-.173.108,0.27,0.27,0,0,0,0-.13H27.185l-0.3.216a0.143,0.143,0,0,1,.065.108c-0.12.072-.2,0.162-0.346,0.238V27.417a0.145,0.145,0,0,0,.022-0.086H26.6l-0.324.238a0.143,0.143,0,0,1,.065.108,1.557,1.557,0,0,1-.346.216V27.87c0.048-.051.025-0.017,0.022-0.108H25.975a0.762,0.762,0,0,1-.346.065v0.022a0.188,0.188,0,0,1,.022.108,0.656,0.656,0,0,0-.151.022c0.009-.049.02-0.023,0-0.065a0.323,0.323,0,0,1-.259.065V27.957a0.245,0.245,0,0,0,.065-0.108H25.046a0.128,0.128,0,0,1,0,.086,1.167,1.167,0,0,1-.54.043V27.957a0.245,0.245,0,0,0,.065-0.108H24.311a0.1,0.1,0,0,1,0,.108,1.377,1.377,0,0,1-.519.022V27.935a0.162,0.162,0,0,0,.087-0.086H23.6a0.1,0.1,0,0,1,0,.108,1.377,1.377,0,0,1-.519.022V27.957a0.167,0.167,0,0,0,.065-0.108H22.863V27.87a0.187,0.187,0,0,1,.022.108,1.368,1.368,0,0,1-.519-0.022,0.162,0.162,0,0,0,.065-0.108H22.15V27.87a0.086,0.086,0,0,1,.043.086,2.029,2.029,0,0,1-.54.022V27.935a0.428,0.428,0,0,0,.043-0.086H21.437V27.87a0.188,0.188,0,0,1,.022.108h-0.54V27.957A0.169,0.169,0,0,0,21,27.849H20.724V27.87c0.048,0.051.025,0.017,0.022,0.108h-0.54V27.957a0.349,0.349,0,0,0,.086-0.108h-0.3V27.87a0.146,0.146,0,0,1,.043.108H19.514V27.957a0.618,0.618,0,0,0,.043-0.108H19.3a0.1,0.1,0,0,1,0,.108,1.377,1.377,0,0,1-.519.022V27.957a0.147,0.147,0,0,0,.043-0.108H18.563V27.87c0.039,0.041.04,0.017,0.022,0.065a0.957,0.957,0,0,1-.519.043V27.935a0.085,0.085,0,0,0,.065-0.086H17.871a0.1,0.1,0,0,1,0,.108,1.377,1.377,0,0,1-.519.022V27.957a0.245,0.245,0,0,0,.065-0.108h-0.3V27.87a0.1,0.1,0,0,1,.043.108,1.368,1.368,0,0,1-.519-0.022,0.163,0.163,0,0,0,.065-0.108H16.424V27.87a0.188,0.188,0,0,1,.022.108H15.927V27.935a0.418,0.418,0,0,0,.043-0.086H15.71a0.1,0.1,0,0,1,0,.108,1.377,1.377,0,0,1-.519.022V27.957a0.169,0.169,0,0,0,.086-0.108H15V27.87a0.187,0.187,0,0,1,.022.108h-0.54V27.957a0.349,0.349,0,0,0,.086-0.108h-0.3V27.87a0.188,0.188,0,0,1,.022.108h-0.5V27.957a1.05,1.05,0,0,0,.043-0.108H13.571a0.1,0.1,0,0,1,0,.108,1.377,1.377,0,0,1-.519.022V27.957a0.147,0.147,0,0,0,.043-0.108H12.836V27.87a0.187,0.187,0,0,1,.022.108h-0.54V27.957a0.169,0.169,0,0,0,.086-0.108H12.145c0.05,0.2-.338.141-0.54,0.13V27.957c0.081-.03.046-0.042,0.087-0.108h-0.3V27.87a0.1,0.1,0,0,1,.043.108H10.913V27.957a0.245,0.245,0,0,0,.065-0.108H10.7V27.87a0.187,0.187,0,0,1,.022.108h-0.54V27.957a0.24,0.24,0,0,0,.065-0.108H9.984a0.1,0.1,0,0,1,0,.108,1.377,1.377,0,0,1-.519.022V27.935a0.162,0.162,0,0,0,.086-0.086H9.271a0.1,0.1,0,0,1,0,.108,1.377,1.377,0,0,1-.519.022V27.957a0.167,0.167,0,0,0,.065-0.108H8.536V27.87a0.187,0.187,0,0,1,.022.108h-0.5V27.957A1.071,1.071,0,0,0,8.1,27.849H7.823V27.87a0.086,0.086,0,0,1,.043.086,2.029,2.029,0,0,1-.54.022V27.935a0.424,0.424,0,0,0,.043-0.086H7.11V27.87a0.187,0.187,0,0,1,.022.108H6.591V27.957a0.169,0.169,0,0,0,.086-0.108H6.4V27.87c0.048,0.051.025,0.017,0.022,0.108a2,2,0,0,1-.54-0.065V27.892a0.132,0.132,0,0,0,.043-0.043H5.662V27.87a0.146,0.146,0,0,1,.043.108,1.376,1.376,0,0,1-.411-0.065V27.892H5.316a0.181,0.181,0,0,0,.043-0.065H5.381V27.806l-0.389-.086a0.166,0.166,0,0,1,0,.13,0.913,0.913,0,0,1-.367-0.194,0.085,0.085,0,0,0,.065-0.086,2.42,2.42,0,0,1-.346-0.13,0.137,0.137,0,0,1-.022.108A0.238,0.238,0,0,1,4.214,27.5c-0.034-.025-0.008-0.042-0.13-0.043a0.631,0.631,0,0,1-.13-0.086,0.36,0.36,0,0,0,.086-0.065V27.287a1.583,1.583,0,0,1-.367-0.151c0.013,0.068.009,0.09-.086,0.108-0.017-.015-0.048-0.028-0.065-0.043,0.053-.028.015,0.009,0.043-0.043H3.458a0.24,0.24,0,0,1-.194-0.086c0.07-.018.033,0.011,0.065-0.043H3.35V27.006A2.441,2.441,0,0,1,3,26.855c0.009,0.049.02,0.023,0,.065a0.186,0.186,0,0,1-.108.022c-0.017-.015-0.048-0.028-0.065-0.043a0.131,0.131,0,0,0,.043-0.043,0.443,0.443,0,0,1-.3-0.065c0-.068.031-0.04-0.043-0.065a0.234,0.234,0,0,1-.13.022A1.037,1.037,0,0,0,2.312,26.6a0.094,0.094,0,0,1-.065.065A0.963,0.963,0,0,1,1.9,26.466c0.07-.018.033,0.011,0.065-0.043a0.058,0.058,0,0,0-.022-0.043,0.887,0.887,0,0,1-.238.108c-0.061-.085-0.158-0.131-0.216-0.216,0.053-.028.015,0.009,0.043-0.043A0.3,0.3,0,0,1,1.3,26.034c0.08,0,.075.027,0.108-0.065A0.192,0.192,0,0,1,1.34,25.9a0.485,0.485,0,0,1-.216,0,0.305,0.305,0,0,1-.324.3A0.987,0.987,0,0,1,.713,26.1l-0.086-.367c-0.109-.125-0.248-0.06-0.259-0.3a3.465,3.465,0,0,1-.151-0.54A2.519,2.519,0,0,1,0,24.652V24.328a0.962,0.962,0,0,1,.259-0.886,5.979,5.979,0,0,1,1.578-1.123,1.7,1.7,0,0,0,.67-0.54,0.084,0.084,0,0,1-.043-0.065H2.485V21.693a0.323,0.323,0,0,0,.086.043,3.547,3.547,0,0,0,.735-0.713,0.25,0.25,0,0,1-.194-0.281,0.264,0.264,0,0,0,.108-0.195c-0.052-.135-0.2-0.287.043-0.346l0.151,0.022c0.029-.013-0.02-0.046.086-0.065V20.18H3.522v0.065a6.962,6.962,0,0,0,2.183,0,1.573,1.573,0,0,1,.648.065c0.623,0,1.291.006,1.88,0.022v0.194H8.277A0.59,0.59,0,0,1,8.536,20.5V20.332c0.667,0,1.2.009,1.858,0a1.527,1.527,0,0,1,.648-0.086c0.009,0,.034.081,0.043,0.086h1.729a1.911,1.911,0,0,1,.022-0.367c0.084,0,.1.011,0.13-0.043H12.9v-0.13a0.992,0.992,0,0,1-.346-0.216H12.62a0.146,0.146,0,0,0,.086.022,1.653,1.653,0,0,1,.173-0.54V18.409H12.793V18.236H12.88v-0.13H12.728l-0.022-.043a0.4,0.4,0,0,1,.13-0.022V17.956H13.2V17.718H13.29v0.238a0.788,0.788,0,0,1,.238-0.108C13.586,17.96,13.547,18,13.722,18a0.341,0.341,0,0,0,.173.022,3.082,3.082,0,0,0,.043-0.324l0.778,0.043V18.02h0.238V17.956a4.025,4.025,0,0,0,.67-0.173,0.188,0.188,0,0,0,.022-0.108,0.077,0.077,0,0,1-.022-0.043h0.043v0.043a0.383,0.383,0,0,0,.346.281v-0.13A1.335,1.335,0,0,1,16.38,17.8a1.781,1.781,0,0,1,.065.173H16.51l0.022,0.108h0.043V18h0.173v0.086h0.3a0.992,0.992,0,0,0,.043-0.216,0.466,0.466,0,0,1,.151-0.022,0.078,0.078,0,0,0,.043.022c0.012,0.069.011,0.155,0.022,0.194a0.8,0.8,0,0,0,.238.022V18H17.72v0.086l0.3-.022V17.956a0.383,0.383,0,0,1,.216-0.043,0.463,0.463,0,0,1,.022.151H18.52V18.02c-0.21-.239.384-0.206,0.584-0.194a0.265,0.265,0,0,1,.108.108,0.121,0.121,0,0,0,0,.086H19.168a0.251,0.251,0,0,0-.065-0.043V18c0.018,0.041.01,0.016,0,.065h0.3v-0.13a0.244,0.244,0,0,0,.195-0.086c0.122-.067.165,0.034,0.173-0.151a0.345,0.345,0,0,1,.216-0.043c0.023,0.009-.008.057,0.065,0.043a2.539,2.539,0,0,1,.475-0.13c0.005-.039.069-0.375,0.087-0.41s0.127-.065.151-0.108v-0.41a0.165,0.165,0,0,0-.086-0.108,0.341,0.341,0,0,0-.173-0.022,0.528,0.528,0,0,1-.065.259c0-.151-0.053-0.14-0.065-0.281-0.15.011-.317,0.043-0.519,0.043l-0.022-.13H19.795a1.581,1.581,0,0,1,.065-0.346,3.009,3.009,0,0,0,.627-0.108V15.86H20.313a2.111,2.111,0,0,1-.022-0.562,0.188,0.188,0,0,1-.022-0.108h0.043c0.042,0.022.447,0.024,0.54,0.043v0.583a0.132,0.132,0,0,0-.043.043c0.07,0.018.033-.011,0.065,0.043a0.342,0.342,0,0,1,.022.173H21.07a0.485,0.485,0,0,0,0-.281h0.043a3.157,3.157,0,0,1,1.037.022,0.352,0.352,0,0,0,.043.216,0.186,0.186,0,0,0,.108.022V15.968c0.07,0.018.033-.011,0.065,0.043a0.063,0.063,0,0,0-.022.022h0.108a1.323,1.323,0,0,0,.562.065V12.383A5.31,5.31,0,0,1,23.058,11v5.1Zm-2.636.67a0.063,0.063,0,0,1,0,.086V16.768Zm1.534,0.043v0.518h-0.67a0.369,0.369,0,0,0,.065.194v0.022a3.34,3.34,0,0,0,.951-0.022v0.022a0.4,0.4,0,0,0-.022.194H22.3A0.615,0.615,0,0,1,22.41,17.7v0.086a0.457,0.457,0,0,1,.3.022v0.043l0.281-.022c0-.393.021-0.631,0.022-1.015H21.956Z" transform="translate(0 0.5)"/>
</svg>
