<svg xmlns="http://www.w3.org/2000/svg" width="40" height="40" viewBox="0 0 40 40">
  <defs>
    <style>
      .cls-1 {
        fill: #fff;
        fill-rule: evenodd;
      }
    </style>
  </defs>
  <path id="cn_m60a3_tts_ico" class="cls-1" d="M9.144,13.519a0.369,0.369,0,0,1,.2.044v0.022H9.252a0.235,0.235,0,0,1-.108,0v0.131H9.252v0.066a0.1,0.1,0,0,1,.065.022,1.088,1.088,0,0,0-.065.613l0.022,1.665a0.1,0.1,0,0,1,.108,0c0.015,0.017.028,0.049,0.043,0.066V16.126a0.656,0.656,0,0,0,.065-0.307l0.5,0.044a0.4,0.4,0,0,1,.217-0.11,0.376,0.376,0,0,1,.368.131h0.282V15.8h0.2V15.82h0.022v0.066h0.173a1.176,1.176,0,0,1,.3-0.416,0.754,0.754,0,0,0,.3-0.263,0.191,0.191,0,0,1-.065-0.219,0.384,0.384,0,0,1,.087-0.066,0.3,0.3,0,0,1,.238.022,3.22,3.22,0,0,1,.26-0.329l0.282-.066V11.066h0.022v3.483a5.392,5.392,0,0,1,1.668-.11c0.239,0.055.494,0.026,0.542,0.263l0.13-.022c0.009-.078-0.01-0.055.043-0.088a0.109,0.109,0,0,1,.065-0.022,1.27,1.27,0,0,0,0-.591H15.8c0.034-.027.011-0.014,0.043,0a0.113,0.113,0,0,1,.022.066,0.277,0.277,0,0,0-.022.307,2.023,2.023,0,0,1,.542.109v0.044l-0.065-.022a0.613,0.613,0,0,1-.087.175h0.108a0.678,0.678,0,0,1,.412.022l0.563-.044a1.742,1.742,0,0,0,.607.372,0.112,0.112,0,0,1,.022.066h0.087v0.066c0.126,0.015.055,0.037,0.108,0.066h0.542a6.964,6.964,0,0,0,1.647-.044,0.692,0.692,0,0,1,.5.11c-0.015.034,0,0,0,.066H20.65a1.474,1.474,0,0,1-.693,0h-1.82V15.4h-0.2a0.253,0.253,0,0,1-.238.241,0.263,0.263,0,0,0-.13.066,0.112,0.112,0,0,1,.022.066,0.9,0.9,0,0,0-.238.241h0.108a0.4,0.4,0,0,1,.2-0.022v0.022h0.022v0.066H17.79v0.263H17.682v0.022a0.485,0.485,0,0,0,.282.11c0.022-.177.112-0.29,0.13-0.482a0.217,0.217,0,0,1-.108-0.088c0.01-.024.029-0.131,0.043-0.2h0.065a0.531,0.531,0,0,0,.238.044V15.82a1.64,1.64,0,0,1,.585.2A0.154,0.154,0,0,1,19,15.995l0.022,0.066,0.108-.022L19.155,16.1a0.927,0.927,0,0,0,.347.066,0.107,0.107,0,0,0,.022.066,0.287,0.287,0,0,1,.217.022v0.066a8.246,8.246,0,0,0,1.04.307c0.018,0.071-.011.033,0.043,0.066a0.144,0.144,0,0,1,.087-0.022V16.74c0.07,0.018.033-.011,0.065,0.044a1.419,1.419,0,0,0-.087.175A1.24,1.24,0,0,0,21.6,16.74a0.6,0.6,0,0,1,.3.088c0.008-.014.217-0.307,0.217-0.307a0.12,0.12,0,0,1,.087,0,0.662,0.662,0,0,1,.065-0.131,0.268,0.268,0,0,0,.13,0,2.39,2.39,0,0,0,.888.591l-0.022.044h0.022a0.507,0.507,0,0,0,.173.066,0.355,0.355,0,0,1,.022.088,0.089,0.089,0,0,1,.087-0.022l0.043,0.11c0.044,0.036.1,0.034,0.152,0.066a2.244,2.244,0,0,0,.325.241,0.884,0.884,0,0,1,.217.066c0.029,0.021.034,0.084,0.065,0.11a0.431,0.431,0,0,1-.087.132,0.623,0.623,0,0,1,.087.153,0.085,0.085,0,0,0-.087.066l0.13,0.088a0.51,0.51,0,0,0-.087.175,0.08,0.08,0,0,1,.022.044h0.022c0.029-.05.027-0.04,0.043-0.044a0.18,0.18,0,0,0,.065.044c0.012-.028,0-0.016.022-0.022,0.045,0.03.073,0.063,0.087,0.066a0.255,0.255,0,0,0,.043-0.066h0.022V18.4a0.255,0.255,0,0,1,.043.066h0.022V18.449a0.255,0.255,0,0,0,.043-0.066c0.025,0.026.04,0.062,0.065,0.088,0.018-.031.045-0.1,0.065-0.066a0.255,0.255,0,0,1,.043.066c0.137-.093.111-0.078,0.26-0.022a0.281,0.281,0,0,1,.022-0.088c0.08,0.065.031,0.055,0.13,0.022,0.012,0.176.054,0.231,0.26,0.219a0.247,0.247,0,0,0,.13-0.022V18.514c0.125,0.016.055,0.037,0.108,0.066h0.715c0.606,0,1.282.018,1.82,0.044a0.737,0.737,0,0,1,.108-0.2h2.1a0.556,0.556,0,0,1,.022.175,0.7,0.7,0,0,1,.282,0v0.066h0.087V18.6c0.145,0.011.074,0.035,0.13,0.066h0.52V18.6c0.145,0.011.06,0.027,0.13,0.066a2.569,2.569,0,0,1,.693-0.022h6.522V18.58h0.087v0.066h0.065a0.106,0.106,0,0,1,.022-0.066,0.185,0.185,0,0,0,.022.131H40V19.3H39.177v0.022H39.155a0.233,0.233,0,0,1-.022.131V19.391c-2.743,0-5.524-.021-8.234-0.022v0.066a1.169,1.169,0,0,0-.13-0.044v0.044l-0.325.022h-1.8c-0.953-.005-2.309-0.058-3.229-0.022v0.044a0.384,0.384,0,0,1-.065.175,0.118,0.118,0,0,0-.065-0.088,0.28,0.28,0,0,1-.022.088c-0.034-.021-0.065-0.08-0.087-0.044a0.169,0.169,0,0,1-.065.066c-0.018-.031-0.045-0.1-0.065-0.066a0.42,0.42,0,0,0-.065.088c-0.046-.038-0.032-0.043-0.065-0.044a0.257,0.257,0,0,0-.043.066,0.08,0.08,0,0,1-.022-0.044c-0.015-.017-0.028-0.049-0.043-0.066a0.266,0.266,0,0,1-.087.088L24.7,19.631a0.255,0.255,0,0,0-.043.066,0.774,0.774,0,0,0-.065-0.066,0.106,0.106,0,0,1-.022.066,0.266,0.266,0,0,0-.087-0.088,0.281,0.281,0,0,1-.022.088,0.641,0.641,0,0,0-.108-0.088,0.281,0.281,0,0,1-.022.088,0.79,0.79,0,0,0-.065-0.066c-0.018.071,0.011,0.034-.043,0.066a0.119,0.119,0,0,0-.065-0.088,1.567,1.567,0,0,1-.52.548,0.132,0.132,0,0,1-.152-0.022,3.254,3.254,0,0,1-.542.11v0.022h0.585a1.359,1.359,0,0,0,.5.022l1.062,0.044a3.9,3.9,0,0,0,.5.657,0.647,0.647,0,0,0-.065.241,0.452,0.452,0,0,0,.238,0c0.117,0.011.29,0.1,0.368-.044H26.089a0.11,0.11,0,0,0-.065-0.022,0.413,0.413,0,0,1-.043-0.153,0.588,0.588,0,0,0,.087-0.153,2.508,2.508,0,0,1,.607.285,0.552,0.552,0,0,1,.238.044s0.077,0.1.087,0.109l0.108-.022c0.154,0.045.355,0.039,0.542,0.088,0.124,0.032.271,0.043,0.412,0.088a2.493,2.493,0,0,0,.325.131,0.362,0.362,0,0,0,.152-0.088h0.368c0.073-.038.014-0.047,0.13-0.044a1.418,1.418,0,0,1,.152-0.307l0.2,0.066a0.474,0.474,0,0,1,.043-0.11h0.022v0.022h0.022a3.122,3.122,0,0,1-.368.679l0.022,0.066a0.322,0.322,0,0,1,.087-0.044,0.5,0.5,0,0,0,.217.241,1.887,1.887,0,0,1,.3.5,0.493,0.493,0,0,1,.238.044,0.083,0.083,0,0,0,.065.088c-0.032.077-.061,0.2-0.087,0.241a2.154,2.154,0,0,0-.325-0.131v0.044a0.172,0.172,0,0,0-.043.131,1.36,1.36,0,0,0,.628.044v0.11H29.881V23.18c-0.005.021-.017,0.008,0,0.022a0.281,0.281,0,0,0,.087.131,0.638,0.638,0,0,1-.043.131,1.267,1.267,0,0,0-.2.11c0.006,0.021.017,0.008,0,.022-0.157.108-.311,0.168-0.455,0.285-0.035.029-.031,0.1-0.065,0.131a1.64,1.64,0,0,1-.173.088,1.2,1.2,0,0,0-.173.7,0.074,0.074,0,0,1,.043.022,0.235,0.235,0,0,1,.152-0.022c0.053,0.028.015-.009,0.043,0.044,0.005,0.021.017,0.008,0,.022l-0.022.066-0.26.022a0.846,0.846,0,0,0-.217-0.109c-0.082.039,0.008,0.072-.043,0.153-0.088.142-.3,0.2-0.39,0.351a0.373,0.373,0,0,0-.238,0,0.769,0.769,0,0,1,0,.153c-0.152.047-.251,0.209-0.39,0.263-0.12.047-.172-0.074-0.217,0.022a0.482,0.482,0,0,1-.065.153,0.628,0.628,0,0,1-.585.241,0.6,0.6,0,0,1-.455.46,1.23,1.23,0,0,0-.173-0.022,0.909,0.909,0,0,1-.433.482,0.681,0.681,0,0,0-.217-0.044,0.539,0.539,0,0,1-.542.46,0.218,0.218,0,0,0-.108-0.022,0.3,0.3,0,0,1-.043.2,1.713,1.713,0,0,1-.5.219,0.171,0.171,0,0,0-.152-0.088c-0.349.306-1.383,0.01-1.777,0.131a1.335,1.335,0,0,1-.758-0.088,0.866,0.866,0,0,1-.628.088,0.341,0.341,0,0,0-.173-0.11,0.633,0.633,0,0,1-.585.11,0.2,0.2,0,0,0-.173-0.11,0.658,0.658,0,0,1-.585.11,0.15,0.15,0,0,0-.152-0.11,0.623,0.623,0,0,1-.585.11c-0.032-.056,0-0.025-0.065-0.044V27.847H18.483v0.066a1.97,1.97,0,0,1-.585.044,0.246,0.246,0,0,0-.152-0.11v0.066a2.06,2.06,0,0,1-.607.044,0.19,0.19,0,0,0-.108-0.11,0.728,0.728,0,0,1-.693.066c-0.018-.071.011-0.034-0.043-0.066a0.7,0.7,0,0,1-.693.066c-0.018-.071.011-0.034-0.043-0.066a0.733,0.733,0,0,1-.628.11,1.119,1.119,0,0,0-.108-0.11,0.7,0.7,0,0,1-.628.11,0.189,0.189,0,0,0-.108-0.11,0.7,0.7,0,0,1-.628.11,0.189,0.189,0,0,0-.108-0.11,0.689,0.689,0,0,1-.628.11,0.19,0.19,0,0,0-.108-0.11,0.641,0.641,0,0,1-.607.11,0.265,0.265,0,0,0-.13-0.11,0.641,0.641,0,0,1-.607.11,0.19,0.19,0,0,0-.108-0.11,0.68,0.68,0,0,1-.607.11c-0.046-.02-0.077-0.084-0.13-0.11a0.662,0.662,0,0,1-.607.11,0.157,0.157,0,0,0-.13-0.11v0.066a1.885,1.885,0,0,1-.563.044,0.154,0.154,0,0,0-.173-0.11v0.066a1.707,1.707,0,0,1-.52.044,0.246,0.246,0,0,0-.152-0.11v0.066a1.971,1.971,0,0,1-.585.044l-0.022-.044a0.707,0.707,0,0,0-.217.044H6.761a4.047,4.047,0,0,1-1.517-.088,0.346,0.346,0,0,0-.087.066,0.869,0.869,0,0,1-.542-0.175,1.285,1.285,0,0,1-.108-0.219,0.263,0.263,0,0,1-.2.022,2.025,2.025,0,0,1-.368-0.329,2.174,2.174,0,0,0,0-.219,0.309,0.309,0,0,1-.2,0c-0.122-.082-0.181-0.224-0.3-0.307a1.513,1.513,0,0,0,.022-0.219H3.445a0.249,0.249,0,0,1-.173,0l-0.325-.307c-0.039-.088.107-0.163-0.087-0.219a0.118,0.118,0,0,1-.087,0,0.637,0.637,0,0,1-.3-0.5,0.411,0.411,0,0,1-.217-0.022,0.339,0.339,0,0,0-.043-0.088,2.665,2.665,0,0,0-.368.022A0.233,0.233,0,0,1,1.8,25.262,0.8,0.8,0,0,1,2.037,25.2V25.174c-0.127-.107.06-0.227-0.173-0.241-0.038-.027-0.038,0-0.065-0.022A1.046,1.046,0,0,1,1.5,24.6c-0.02-.048.021-0.119,0-0.153l-0.043-.066c-0.058.021-.138,0.006-0.173,0.022-0.061.027,0.017,0.048-.108,0.066v0.088a0.4,0.4,0,0,1-.238-0.088C0.917,24.451.9,24.385,0.888,24.363a1.371,1.371,0,0,1-.238.219,1.453,1.453,0,0,1-.39-0.044A1.493,1.493,0,0,0,.087,24.32a0.515,0.515,0,0,1,.065-0.438,1.607,1.607,0,0,0,.368-0.2C0.583,23.727.885,23.9,0.888,23.9c0.017-.024,0-0.075.022-0.11A0.489,0.489,0,0,0,1,23.728H0.975c-0.125-.1-0.35-0.118-0.477-0.219A1.979,1.979,0,0,1,.13,22.085,0.293,0.293,0,0,1,0,21.976l0.022-.066c0.154-.1.268-0.267,0.412-0.372a2.277,2.277,0,0,0,.282-0.153,0.48,0.48,0,0,1,.043-0.11,0.642,0.642,0,0,0,.108,0,5.422,5.422,0,0,0,.022-1.2H0.932a0.516,0.516,0,0,1,.238,0,0.45,0.45,0,0,1-.043-0.219c0.009-.023.034,0.008,0.043-0.11a2.645,2.645,0,0,1-.412.066,0.147,0.147,0,0,1,0-.11,0.325,0.325,0,0,1,.325-0.066,0.937,0.937,0,0,0,.325-0.044l0.8-.022V19.478h0.5V19.61H2.774a0.3,0.3,0,0,0,.043.088,0.348,0.348,0,0,1,.238-0.088c0.018,0.071-.011.034,0.043,0.066a1.783,1.783,0,0,1,.477-0.044,8.838,8.838,0,0,1,1.712-.066V19.5H5.439v0.066a3.232,3.232,0,0,1,.607-0.044,2.943,2.943,0,0,0,.585.044V19.5h0.13v0.066a9.143,9.143,0,0,1,2.644.329,1.972,1.972,0,0,0,.932.044h0.022V19.916a4.3,4.3,0,0,1-.91-0.219c-0.235-.067-0.437-0.063-0.672-0.131-0.349-.1-0.719-0.2-1.105-0.285a2.043,2.043,0,0,1-.022-0.46H7.5A1.271,1.271,0,0,0,7.086,18.8c-0.21-.02-0.5-0.028-0.693-0.066l-0.022-.066a0.191,0.191,0,0,1-.022-0.11,2.307,2.307,0,0,1-.433-0.022V18.383H5.981a10.937,10.937,0,0,1,.043-1.906H6.891a0.347,0.347,0,0,1,.022.11H7.974V16.543a0.882,0.882,0,0,1-.26-0.5,0.228,0.228,0,0,1,.108-0.044,0.3,0.3,0,0,0,.238.044V15.995A0.4,0.4,0,0,1,8,15.842,0.953,0.953,0,0,0,7.714,15.8a0.482,0.482,0,0,1-.065-0.2H7.671V15.579a0.95,0.95,0,0,1,.78.263l0.043,0.2a2.58,2.58,0,0,0,.347.175,0.233,0.233,0,0,1,.022-0.131,0.144,0.144,0,0,1,.087-0.022,0.145,0.145,0,0,0,.087.022,5.274,5.274,0,0,1,.065-1.2c0.085-.329-0.054-0.831,0-1.1a0.19,0.19,0,0,0-.043-0.2V13.563A1.752,1.752,0,0,0,9.1,12.906V11H9.144v2.519Z" transform="translate(0 0.5)"/>
</svg>
