<svg xmlns="http://www.w3.org/2000/svg" width="39.969" height="40" viewBox="0 0 39.969 40">
  <defs>
    <style>
      .cls-1 {
        fill: #fff;
        fill-rule: evenodd;
      }
    </style>
  </defs>
  <path id="Color_Fill_1" data-name="Color Fill 1" class="cls-1" d="M21.7,11.049v0.293c-0.775-.014-3.884-0.172-4.226.146h-0.1a0.717,0.717,0,0,0,.528.293l-0.1.293-1.441-.049V11.732h0.1c0.253-.1.335-0.008,0.432-0.293l-2.113.146a0.793,0.793,0,0,1-.048.683l-0.288.049L14.5,13.049a0.963,0.963,0,0,1,.384.146,4.032,4.032,0,0,0-.336,1.61h0.288c0.085-.422.366-1.088,0.432-1.317,0.912,0.249,1.314-.229,2.545-0.244l0.048-.341,0.1,0.049v0.341h0.192a0.75,0.75,0,0,1,.72-0.488v0.049a1.368,1.368,0,0,0-.1.634c0.974,0.182.75,0.445,1.3,0.878l0.192,0.1a1.018,1.018,0,0,1,0-.878l0.24,0.1c0.109-.506.629-0.525,1.249-0.488v0.976a0.312,0.312,0,0,1,.24.1,3.987,3.987,0,0,0-1.008.293c0.517,0.1.619,0.432,1.249,0.537a1.275,1.275,0,0,1,.1-1.073V15a3.175,3.175,0,0,1,1.152,0,0.431,0.431,0,0,1,.1-0.341,1.273,1.273,0,0,1-.144.585H24.49v0.244a4.285,4.285,0,0,1,.624.2,3.432,3.432,0,0,1,.528-0.634c0.6,0.338.395,1,1.489,1.317L27.179,16.8c3.983,0.36,8.764.147,12.821,0.146v1.024l-8.115-.049c-0.624,0-2.631-.117-2.929.146a0.529,0.529,0,0,0-.144.244H26.987a1.307,1.307,0,0,1-1.537.732L25.4,18.756l-0.192.2a0.358,0.358,0,0,0,.192.2c0.467,0.175,1.169-.048,1.489.146,0.145,0.131.12,0.139,0.1,0.341a7.67,7.67,0,0,1,1.489-.341c0.09,0.461.958,0.831,1.392,1.122l-0.1-.439,0.048-.049,0.1,0.1,1.008,0.634,0.432-.1a4.8,4.8,0,0,1,.864.585v-0.1a0.941,0.941,0,0,0,.288-0.585,1.018,1.018,0,0,1,.816.146V20.024h0.288q0.024,0.9.048,1.8c0.6-.055.448,0.16,0.768,0.439h1.921l0.432,0.049-0.048.341-2.017.049h0.1c0.467,0.378,1.642,1.509,1.633,2.1a1.147,1.147,0,0,0-.528.293,6.183,6.183,0,0,1-.48,1.8,33.819,33.819,0,0,1-5.666,3.707c-1.514.633-6.234,0.244-8.355,0.244h-9.6a22.734,22.734,0,0,1-4.754-.1c-1.66-.408-3.018-1.714-4.322-2.585a8.76,8.76,0,0,0-1.056-.78c-0.434-.159-0.612.1-0.912-0.293A0.338,0.338,0,0,1,.96,26.756C1.042,26.978,1.016,26.972,1.3,27l0.1-.049V26.9a2.276,2.276,0,0,1-.24-1.268L0.144,25.2l0.288-.537L0.288,24.61V24.561h0.24a0.637,0.637,0,0,1,.144-0.537,0.439,0.439,0,0,1-.528-0.244,0.612,0.612,0,0,1,0-.78,1.656,1.656,0,0,1,.1-0.878,1.947,1.947,0,0,0,1.681-.634c0.07,0.233-.034.122,0.192,0.2,0.041-.879,2.478-1.15,3.361-1.073a0.32,0.32,0,0,1,.048-0.341H5.57l0.1,0.341,1.152-.1,0.576-.488a4.079,4.079,0,0,1,1.729-.293l0.144,0.2A1.24,1.24,0,0,1,9.652,19.1a2.846,2.846,0,0,0,1.152-.439c0.321-.123.769,0.016,1.008-0.1a0.8,0.8,0,0,1,.384.585,0.759,0.759,0,0,1,.528.049l0.048-.341L13.638,18.9,13.686,19.2l0.048-.1,0.1-.049-0.288-.537-1.825-.049V18.122l-2.785.049V17.878H8.884l-0.1.146a4.611,4.611,0,0,1-.1-0.927,1.982,1.982,0,0,0,.192-0.683c0.745-.087,3.149-0.646,3.313-1.171-0.175-.044-0.1,0-0.192-0.1,0.826-.1,1.244-1.7,1.249-2.634a1.008,1.008,0,0,0,.576-0.1V12.366l-0.432-.1a0.43,0.43,0,0,0-.1-0.39,1.51,1.51,0,0,0-1.344.049c-0.138-.471-1.113-0.2-1.489-0.146l0.144-.1-0.048-.1H10.18c-0.046-.279-0.094-0.21-0.144-0.488a1.2,1.2,0,0,0,.192-0.439,1.046,1.046,0,0,0,.864-0.2h0.288c0.247,0.029.07,0.111,0.192,0.2l2.3,0.049v-0.2l0.432,0.049A3.683,3.683,0,0,1,14.406,9h0.048v1.707l0.144-.049V10.415l0.192,0.049a0.312,0.312,0,0,0,.1.341l1.681,0.1A32.74,32.74,0,0,0,21.7,11.049ZM10.564,10.8l-0.048.1,0.1-.1H10.564Zm0.048,0.1v0Zm-0.192.049L10.516,11ZM10.8,11.244h0Zm-0.384.1v0.2a0.281,0.281,0,0,0,.24-0.2H10.42Zm6.531,0.146a2.888,2.888,0,0,1-.528.488h1.393v-0.2C17.332,11.737,17.394,11.542,16.951,11.488Zm-3.409,1.366-0.048.244h0.048l0.048-.1C13.626,12.887,13.689,12.891,13.541,12.854Zm0.48,0.732h-0.24a5.6,5.6,0,0,1-.672,1.659C13.976,14.984,14.081,14.78,14.022,13.585Zm0.1,0V14.9l0.1-.049Zm6.243,0.341,0.1,0.049ZM22.281,15.1l0.24,0.1C22.424,15.094,22.473,15.129,22.281,15.1Zm0.48,0v0.146h0.192l0.1-.146H22.761Zm2.785,0.1-0.048.244h0.336V15.293ZM8.884,16.854L8.836,17C8.936,16.889,8.891,16.982,8.884,16.854Zm-0.1.683v0ZM12.917,19v0.2h0.576V19H12.917Zm20.216,1.707-0.1.049V20.8a0.75,0.75,0,0,1,.288.244V20.707H33.133ZM32.365,21l-0.048.2h0.048l0.048-.2H32.365ZM1.249,22.122l-0.048.1,0.1-.1H1.249Zm31.5,5.073a4.509,4.509,0,0,1-1.681.878l-0.048.341h0.048l1.825-1.073Zm-27.227.927H5.138a1.215,1.215,0,0,0-.624-0.537l-0.432.2v0.049h0.1l1.441,0.829Zm5.186-.585a2.657,2.657,0,0,1-.768,2.341l1.777-.049c-0.7-.332-0.886-1.3-0.816-2.293H10.708Zm5.186,0.878a1.647,1.647,0,0,1-.816,1.415v0.049l1.681-.049A2.394,2.394,0,0,1,15.894,28.415Zm5.042,0a2.369,2.369,0,0,1-.768,1.463l1.633-.049A2.308,2.308,0,0,1,20.936,28.415Zm5.042,0a2.086,2.086,0,0,1-.816,1.463l1.681-.049h-0.1A6.163,6.163,0,0,1,25.978,28.415Z" transform="translate(-0.031 0.016)"/>
</svg>
