<?xml version="1.0" encoding="utf-8"?>
<!-- Generator: Adobe Illustrator 16.0.0, SVG Export Plug-In . SVG Version: 6.00 Build 0)  -->
<!DOCTYPE svg PUBLIC "-//W3C//DTD SVG 1.1//EN" "http://www.w3.org/Graphics/SVG/1.1/DTD/svg11.dtd">
<svg version="1.1" id="Layer_1" xmlns="http://www.w3.org/2000/svg" xmlns:xlink="http://www.w3.org/1999/xlink" x="0px" y="0px"
	 width="39.938px" height="40px" viewBox="0 0 39.938 40" enable-background="new 0 0 39.938 40" xml:space="preserve">
<path id="Color_Fill_1" fill="#FFFFFF" d="M3.187,22.1H2.759c-0.64-0.828-1.679-1.213-1.617-2.371l-1,0.823l-0.048-0.1H0l0.1-0.194
	C0.767,19.75,1.402,19.2,2,18.613C1.852,18.262,1.817,17.873,1.9,17.5c0.825,0.018,1.113,0.346,1.57-0.29
	c0.625,0.372,1.326-0.254,1.76-0.242c0.504,0.177,1.043,0.228,1.57,0.146c1.186-0.133,2.382-0.133,3.567,0
	c0.605,0.029,1.213-0.02,1.807-0.146v-0.049c-0.059-0.277-0.172-0.541-0.333-0.774c-1.2,0.018-3.413,0.291-4.185-0.242L7.42,15.274
	c-0.431,0.047-0.866,0.014-1.284-0.1L6.231,14.5l0.523,0.048c0.021,0.281,0.114,0.338,0.571,0.29l0.048-0.1L7.23,13.77h-0.57
	L6.04,13.1l0.048-0.048l0.666,0.238L6.468,12.9C6.27,12.97,6.061,13.004,5.85,13c0.187-0.152,0.434-0.206,0.666-0.145
	c0.164,0.085,0.272,0.25,0.285,0.435l0.19-0.145v-0.193l0.189,0.194v0.048l-0.238,0.145l0.429-0.048
	c0.037-0.165,0.119-0.315,0.237-0.435l-0.899-0.048v-0.582l0.237,0.048c0,0.16-0.056,0.4,0.101,0.29l0.1,0.048
	c-0.013-0.377,0-0.476,0.38-0.484v0.435c0.691,0.017,3.785,0.575,4.091,0.048c0.121-0.506,0.17-1.028,0.143-1.548l-0.333-0.048
	c0.031-0.17,0.067-0.169-0.048-0.29c-0.688-0.16-1.399-0.176-2.093-0.048l0.048-0.194l-0.285,0.048l-0.1-0.484
	c0.116-0.047,0.068,0.017,0.1-0.242c0.375,0.026,0.582-0.187,0.9-0.145c0.835,0.148,1.691,0.132,2.521-0.048
	c-0.008,0.129,0.045,0.254,0.143,0.339l5.033,0.149v0.242c-1.076-0.136-2.168-0.102-3.233,0.1v0.1l0.38,0.1v0.194l-0.047,0.048
	l-1.095-0.048v-0.062l0.049-0.194c0.263-0.018,0.246,0.009,0.333-0.194l-1.522,0.1c0.04,0.184,0.004,0.376-0.1,0.532l-0.238,0.048
	v1.21l0.189-0.048l0.049,0.484l0.048-0.387l0.048,0.484l0.1-0.048v-0.148l0.101,0.048V12.9h4.653c0.426,0,1.347,0.132,1.522-0.145
	c-0.106-0.395-0.123-0.808-0.048-1.21c0.191,0.036,0.371,0.119,0.522,0.242l-0.1,0.629l0.333,0.1v0.145l-0.285,0.048V12.9h0.477
	l0.1-0.29l1.094,0.145l0.571,0.435l0.428-0.387h0.144l0.048,0.1c-0.165,0.185-0.294,0.398-0.381,0.629l0.189,0.145h0.618
	l0.048-0.726l0.144-0.048l0.143,0.1v0.339c0.369,0.064,0.724,0.195,1.046,0.387c0.019-2.744,0.034-5.487,0.047-8.229h0.048v8.323
	l0.476,0.577c0.515,0.049,1.024,0.146,1.521,0.29l7.753,0.1c2.017,0,4.554-0.295,6.137,0c0.052,0.278,0.017,0.565-0.101,0.823
	c-0.761,0.3-3.1,0-4.232,0l-6.231,0.048c-1.335,0.2-2.788-0.076-3.8,0.29l-1.522,0.145v1.114c0.378-0.075,0.696-0.327,0.856-0.677
	l0.1,0.1c0.309,0.154,0.584,0.368,0.81,0.629c0.706,0.301,1.468,0.449,2.234,0.436l0.233,0.189c-0.003,0.292,0.08,0.578,0.238,0.823
	h0.142l0.048-0.048l-0.143-0.436l0.1-0.101l0.381-0.048c0.043,0.355,0.04,0.613,0.523,0.629l0.1-0.048
	c-0.003-0.254-0.068-0.503-0.189-0.726h0.237l0.049,0.1l0.1,0.531c-0.06,0.281-0.231,0.526-0.476,0.678l0.143,0.193l1.046,0.727
	c0.371,0.056,0.75,0.006,1.094-0.145c0.7-0.166,1.779,1,1.9,1.6l-0.951-0.049c1.4,2.092-0.486,2.925-1.807,3.727
	c-0.624,0.481-1.313,0.873-2.045,1.161L26.683,26.5L8.609,26.452c-1.784-0.468-3.463-1.272-4.945-2.371l0.048-0.146H3.472
	c0.022,0.326-0.202,0.617-0.522,0.678c0-0.277-0.145-0.533-0.382-0.678c-0.104-0.332,0.034-0.691,0.332-0.871
	c0.163,0.213,0.155,0.201,0.523,0.146v0.39H3.71l0.048-0.968C3.481,22.58,3.258,22.373,3.187,22.1z M9.37,10l-0.144,0.048V10.1
	C9.394,10.057,9.349,10.028,9.37,10z M9.227,10.339c0.123,0.138,0.062,0.076,0.19,0H9.227z M14.127,10.439
	c-0.116,0.131-0.264,0.23-0.428,0.29v0.048h1.046v-0.051L14.127,10.439z M21.309,12.955h0.144l-0.101,0.1L21.309,12.955z
	 M6.279,13.245l0.429,0.435h0.521l0.048-0.194v-0.05c-0.338-0.034-0.672-0.099-0.999-0.194L6.279,13.245z M23.925,16.197
	c-0.243,0.227-0.536,0.393-0.856,0.485l-0.1-0.243l-0.238,0.048l-0.047,0.1l0.047,0.146h0.713l-0.048,0.338l0.571,0.146
	L23.925,16.197z M7.467,17.258L7.467,17.258z M7.99,17.258L7.99,17.258z M8.656,17.258L8.656,17.258z M10.891,17.258L10.891,17.258z
	 M11.271,17.258L11.271,17.258z M26.92,17.693c-0.024,0.108,0.014,0.221,0.1,0.291c0.101,0.14,0.257,0.229,0.429,0.242l0.048-0.291
	L26.92,17.693z M27.871,17.889l-0.101,0.047l0.144,0.194l0.189,0.101l-0.048-0.242L27.871,17.889z M27.681,18.13l0.048,0.339
	l0.285,0.242h0.048v-0.243L27.681,18.13z M2.188,18.855L2.14,18.956H2.24L2.188,18.855z M28.395,18.9
	c0.099,0.159,0.25,0.279,0.429,0.339C28.754,19.056,28.589,18.926,28.395,18.9z M29.295,18.9l-0.048,0.193l0.189-0.193H29.3H29.295z
	 M29.295,19.432c-0.003,0.092,0.033,0.18,0.1,0.242l0.144-0.048L29.295,19.432z M1.186,19.867L1.186,19.867z M29.961,19.915
	l0.339,0.246L29.961,19.915z M0.52,19.963l-0.048,0.1l0.1-0.1H0.523H0.52z M3.9,21.273H3.52L3.8,21.71
	c-0.116,0.213-0.28,0.328-0.381,0.532l0.428,0.193v-0.1L3.9,21.273z M2.854,23.5l-0.143,0.145l0.048,0.242l0.1,0.049h0.19l0.1-0.101
	C3.111,23.541,3.093,23.57,2.854,23.5z M6.659,24.081l-0.571,0.387L7.9,25.242C7.774,24.857,7.81,24.438,8,24.081H6.659z
	 M10.321,24.081l0.101,0.048L10.321,24.081z M14.697,24.081c0.163,0.515,0.112,1.072-0.143,1.548H15.6
	c-0.255-0.475-0.307-1.033-0.143-1.548H14.7H14.697z M17.836,24.081l0.1,0.048L17.836,24.081z M19.736,24.081l0.101,0.048
	L19.736,24.081z M22.162,24.081c0.231,0.499,0.193,1.083-0.101,1.548h1.095c-0.255-0.476-0.307-1.033-0.144-1.548h-0.849H22.162z
	 M27.299,24.081l0.1,0.048L27.299,24.081z M29.725,24.081c0.127,0.238,0.191,0.505,0.19,0.774l0.809-0.532l-0.047-0.146
	c-0.148,0.129-0.329,0.213-0.523,0.242v-0.339h-0.427H29.725z M11.033,24.662l-0.049,0.145c-0.169-0.059-0.354-0.059-0.522,0
	c-0.015,0.297-0.114,0.582-0.285,0.823h2.283l-0.38-0.823c-0.337-0.11-0.691-0.16-1.045-0.146L11.033,24.662z M18.548,24.662
	l-0.047,0.145c-0.17-0.059-0.354-0.059-0.523,0c-0.027,0.293-0.125,0.576-0.285,0.823h2.283l-0.38-0.823
	C19.262,24.684,18.905,24.634,18.548,24.662L18.548,24.662z M26.111,24.662l-0.048,0.145c-0.168-0.063-0.354-0.063-0.522,0
	c-0.027,0.293-0.125,0.576-0.285,0.823h2.283l-0.38-0.823C26.823,24.684,26.467,24.634,26.111,24.662L26.111,24.662z"/>
</svg>
