<svg xmlns="http://www.w3.org/2000/svg" width="39.938" height="40" viewBox="0 0 39.938 40">
  <defs>
    <style>
      .cls-1 {
        fill: #fff;
        fill-rule: evenodd;
      }
    </style>
  </defs>
  <path id="Color_Fill_1" data-name="Color Fill 1" class="cls-1" d="M10.618,15.133l0.436,0.049v0.049l-0.291.049,0.048,0.79v-0.1c0.437-1.061.656-.528,1.649-0.888V15.034H12.121a2.221,2.221,0,0,1-.145-0.493,0.276,0.276,0,0,0,.145-0.3c0.884,0.084,2.879-.042,3.539,0,0.063-.221-0.032-0.1.146-0.2,0.031,0.249.023,0.245,0.194,0.345a22.232,22.232,0,0,0,5.43.148v0.3c-0.554-.025-3.094-0.174-3.394.1h-0.1l0.049,0.148a0.719,0.719,0,0,1,.388.1,5.756,5.756,0,0,0-.049.642,1.125,1.125,0,0,1,.485-0.2c-0.088.275-.109,0.455,0.145,0.444l0.049,0.1a1.95,1.95,0,0,1,.145-0.345,7.288,7.288,0,0,0,1.842.592,13.358,13.358,0,0,1,1.406.839L24.436,17.4c2.085,0.361,5.144.1,7.564,0.1l4.412,0.049a9.766,9.766,0,0,1,3.345-.395,1.6,1.6,0,0,1-.048,1.629,13.434,13.434,0,0,1-3.248-.395l-8.727.049c-2.421,0-4.746-.026-5.867,1.283l0.048,0.3a4.057,4.057,0,0,1,1.7.049,0.574,0.574,0,0,1,.485-0.444v0.444a2.357,2.357,0,0,1,1.406.1,1.463,1.463,0,0,1,1.891-.2l0.1,0.987h0.049a0.943,0.943,0,0,1,.533-0.839,1.021,1.021,0,0,1,.97.1c0.363,0.673.115,1.281,0.388,1.925,0.311,0.735,1.517.806,1.164,2.171h0.242a1.055,1.055,0,0,1-.339.444,2.721,2.721,0,0,0-.194-0.3l0.049,0.3H29.576c-0.434,1.774-3.312,3.689-5.236,4.1h-11.3c-2.116,0-5.565.375-7.273-.2-1.927-.646-3.094-2.291-4.558-3.158V25.151A0.429,0.429,0,0,1,1.358,24.9c-0.2-.05-0.115.055-0.145-0.148H0.533a1.992,1.992,0,0,1,.679-1.727l-0.048-.1a2.791,2.791,0,0,1-.727-0.691c0.143-.234.386-0.675,0-0.888L0,20.956c-0.013-1.9,1.587-.917,3.055-1.283a1.882,1.882,0,0,1,.873-0.2V19.13H4.218v0.395c1.221-.053,1.729-0.231,2.909-0.247l0.533-.1c0.955,0.294,1.346.75,2.521,0.74V18.686c-0.976,0-4.519-.184-4.752-0.049l-0.145-.049L5.333,17.6a0.518,0.518,0,0,1-.339-0.148H5.382a1.458,1.458,0,0,1,.194-0.79,0.537,0.537,0,0,1,.339-0.247l-0.048-.444a1.282,1.282,0,0,0,.727.148l0.194-.691c1.187,0.047,1.3.563,2.279,0.592a2.144,2.144,0,0,1,.1-0.888h1.115A36.5,36.5,0,0,1,10.424,10h0.048C10.468,11.748,10.579,13.589,10.618,15.133Zm1.649-.79,0.1,0.049Zm0.194,0.1-0.048.1h0.1Zm0.146,0.247h0Zm-0.291.148-0.048.1,0.242-.049Zm4.946,0.049-1.358.049-0.049.148v0.049H16a1.742,1.742,0,0,0,1.552-.2V14.886H17.261ZM17.6,14.935v0.1l-0.436.148v0.049h1.115V15.182C17.934,15.121,17.918,15,17.6,14.935Zm-5.042.148-0.1.049h0.97V15.083H12.558Zm-3.394.938a2.967,2.967,0,0,0,1.115.049V15.231l-1.115.049v0.74ZM14.4,16.169V15.33a14.768,14.768,0,0,0-3.3.2,0.69,0.69,0,0,0,.049.592Zm1.454-.839c-0.028.2,0,.148-0.1,0.247H15.176v0.444a2.162,2.162,0,0,1,.97.148,1.027,1.027,0,0,1,.1-0.642,0.442,0.442,0,0,1,.1.345l0.921-.1L17.5,16.169a0.614,0.614,0,0,1,.485,0h0.049a1.562,1.562,0,0,0,.048-0.642Zm-0.97.691-0.048.1,0.242,0.049V16.021H14.885Zm24.582,2.467q-0.024-.518-0.049-1.036a1.282,1.282,0,0,0-.63.1,1.1,1.1,0,0,0,.145.888ZM38.3,18.439V17.5H38.061l-0.291.2,0.048,0.543a0.187,0.187,0,0,0,.1.1A0.593,0.593,0,0,0,38.3,18.439ZM5.576,18.291v0Zm20.752,1.48-0.63.444v0.049l0.1,0.049,0.194,0.049c0.058-.477.323-0.394,0.679-0.543Zm-24.727.2v0.148c0.227-.049.211,0.029,0.291-0.148H1.6Zm-0.533.1,0.1,0.049Zm0.339,0,0.1,0.049Zm8.533,0.049,0.194,0.049Zm18.473,0.049-0.339.1-0.242.247,0.1,0.148,0.194,0.1-0.145.2c0.226-.064.141-0.028,0.242-0.2l-0.194-.247,0.1-.148,0.436-.049-0.049.1c0.129,0.158.064,0.1,0,.3,0.233,0.065.169,0.033,0.242,0.247h0.436l-0.049-.2A0.929,0.929,0,0,0,28.412,20.166Zm-2.764.3,0.145,0.1Zm0.291,0.148,0.242,0.148Zm0.533,0,0.1,0.049Zm0.776,0-0.242.049a0.534,0.534,0,0,0,.1.3l0.194,0.1v-0.1A0.484,0.484,0,0,0,27.249,20.61Zm-0.533.049-0.048.1,0.291,0.1-0.049-.1C26.862,20.629,26.929,20.7,26.715,20.66ZM27.83,21.1l-0.049.148L28.17,21.4C28.072,21.186,28.114,21.154,27.83,21.1Zm1.358,0H28.849l-0.1.444,0.533,0.444Zm-1.455.345,0.339,0.2Zm1.115,0.494,0.242,0.345,0.145-.049Zm-28.218.2-0.048.049,0.1,0.1,0.145-.148H0.63Zm28.7,0.2c0.008,0.221-.048.14,0.1,0.3a0.9,0.9,0,0,0,.776.592l-0.1-.1A2.185,2.185,0,0,0,29.333,22.338ZM1.358,25.052v0Zm3.733,1.629H3.927c-0.269-.129-0.125-0.4-0.533-0.345l-0.1-.049,0.145,0.2c0.631,0.256,1.181.72,1.842,1.036ZM26.085,26.73l-0.145.592,0.97-.543V26.73H26.085Zm-16.824.148a1.669,1.669,0,0,1-.679,1.234l1.406-.049A2.122,2.122,0,0,1,9.261,26.878Zm4.218,0.049a1.972,1.972,0,0,1-.679,1.184h1.358l-0.339-.345Zm4.17,0.049a1.829,1.829,0,0,1-.679,1.135l1.406-.049A1.969,1.969,0,0,1,17.649,26.977Zm4.17,0.049a1.735,1.735,0,0,1-.63,1.086h1.358l-0.049-.1A2.507,2.507,0,0,1,21.818,27.026Z" transform="translate(0 0.516)"/>
</svg>
