<?xml version="1.0" encoding="utf-8"?>
<!-- Generator: Adobe Illustrator 16.0.0, SVG Export Plug-In . SVG Version: 6.00 Build 0)  -->
<!DOCTYPE svg PUBLIC "-//W3C//DTD SVG 1.1//EN" "http://www.w3.org/Graphics/SVG/1.1/DTD/svg11.dtd">
<svg version="1.1" id="Layer_1" xmlns="http://www.w3.org/2000/svg" xmlns:xlink="http://www.w3.org/1999/xlink" x="0px" y="0px"
	 width="40px" height="40px" viewBox="0 0 40 40" enable-background="new 0 0 40 40" xml:space="preserve">
<path id="Color_Fill_1" fill="#FFFFFF" d="M11.644,14.506l0.39,0.048l0.049-0.145c-0.158-0.04-0.074,0.024-0.146-0.1h0.146
	l0.1,0.145h0.049c0.17-0.016,0.336-0.065,0.487-0.145l0.581,0.052c0.077-0.072,0.145-0.155,0.2-0.245l0.292,0.048v-0.048
	c-0.308-0.203-0.491-0.549-0.487-0.917c0.062-0.025,0.128-0.042,0.195-0.048c0.043,0.041,0.092,0.075,0.146,0.1
	c0.04-0.157-0.024-0.074,0.1-0.145c0.014,0.126,0,0.095,0.244,0.1v-0.052h0.049v-0.048c-0.068,0.005-0.137-0.011-0.195-0.048
	c0.069,0.005,0.137-0.011,0.195-0.048c0.041-0.042,0.074-0.091,0.1-0.145h-0.205c-0.059-0.176-0.041-0.369,0.049-0.531
	c0.189-0.059,0.389-0.076,0.585-0.048c0.043,0.173,0.06,0.353,0.049,0.531c-0.127,0.037-0.258,0.053-0.39,0.048l0.049,0.338h0.146
	v-0.1h0.048l-0.049-0.1h0.049c0.172-0.057,0.356-0.073,0.536-0.048c0.093,0.064,1.567,0.431,1.754,0.145
	c-0.126-0.003-0.239-0.079-0.292-0.193c0.432,0,0.37-0.008,0.78,0v-0.574h0.1v0.628l-0.487,0.145v0.1h1.8c0,0,0.007-0.188,0.049-0.1
	c0.246,0.157,0.544,0.209,0.828,0.145c0.061,0.076,0.031,0.025,0,0.1v0.1c-0.37-0.064-0.746-0.081-1.12-0.048
	c0,0.053-0.017,0.104-0.049,0.145c-0.743,0.104-1.495,0.12-2.241,0.048c-0.138-0.068-0.3-0.068-0.438,0h0.438
	c0.006,0.066,0.022,0.131,0.049,0.193c0.5-0.11,1.019-0.093,1.51,0.048v0.1h-0.44c-0.341,0.21-1.307-0.137-1.657,0.048
	c-0.033,0.018-0.041,0.221-0.1,0.1c-0.05-0.057-0.12-0.092-0.195-0.1c-0.035,0.109-0.052,0.224-0.049,0.338h-0.581v-0.397h-0.1v0.19
	c-0.021,0.226-0.005,0.455,0.049,0.676h-0.39v0.1c0.157,0.053,0.293,0.155,0.39,0.29c0.104-0.011,0.203-0.045,0.292-0.1
	c0.123-0.016,0.246,0.021,0.341,0.1c0.052,0,0.22-0.048,0.341-0.048v0.241l2.582,0.386c-0.022-0.062-0.022-0.13,0-0.193
	c0.323-0.038,0.649-0.053,0.974-0.048c0.175-0.075,0.354-0.139,0.536-0.193v-0.145h0.15v0.144h0.292v-0.144h0.146v0.241h0.049
	c0.355-0.078,0.725-0.062,1.072,0.048c0.725,0.02,1.643-0.1,2.387-0.1v0.676l-2.484,0.048v0.1h0.633
	c0.613-0.085,1.232-0.118,1.852-0.1v0.386l4.925,0.052c1.06-0.201,2.143-0.25,3.216-0.145c0.919,0.136,1.849,0.184,2.777,0.145
	c1.774,0,3.607-0.047,5.311-0.048v0.676c-1.736,0-3.6-0.048-5.408-0.048h-2.244c-0.201,0.086-0.416,0.136-0.634,0.145
	c-1.007,0.109-2.025,0.062-3.018-0.142l-2.046,0.048c-1.875,0-3.7,0.082-5.408,0.145c-0.016,0.117-0.049,0.231-0.1,0.337h-0.101
	c0.007-0.103-0.052-0.199-0.146-0.24v0.048c0.066,0.138,0.115,0.284,0.146,0.435c0.547-0.099,1.105-0.115,1.657-0.049
	c0.02,0.126-0.036,0.063,0.1,0.1c0.122,0.069,0.5-0.187,0.586-0.1c0.035,0.142,0.102,0.273,0.194,0.387
	c0.429,0.206,0.891,0.336,1.364,0.385c-0.004-0.082,0.013-0.165,0.049-0.24l0.1,0.048c-0.008-0.098-0.024-0.194-0.049-0.29h0.1v0.1
	h0.101v-0.054c0.032-0.036,0.063-0.108,0.101-0.146v0.146c0.1-0.007,0.189-0.061,0.243-0.146v0.193c0.053,0,0.104,0.017,0.146,0.049
	c-0.123,0.07-0.074,0.021-0.1,0.192c0.216,0.009,0.431-0.026,0.633-0.101c0.029,0.078,0.047,0.159,0.049,0.242
	c0.738-0.118,1.494,0.018,2.145,0.386c0.184,0.208,0.316,0.456,0.391,0.724c-0.306,0.191-0.599,0.4-0.877,0.628
	c0.205,1.075-0.44,1.347-1.072,1.738c-0.721,0.448-1.45,0.899-2.192,1.353c-0.27,0.198-0.564,0.361-0.877,0.482
	c-0.612,0.093-1.234,0.109-1.851,0.048H6.285L4.97,23.916c-0.769-0.318-1.49-0.741-2.144-1.255
	c-0.808-0.503-1.516-0.588-1.754-1.545c-0.246,0-0.321-0.015-0.39-0.193c-0.114-0.211-0.114-0.465,0-0.676H0v-0.142
	c0.206-0.201,0.386-0.429,0.536-0.676c0.025,0.041,0.059,0.075,0.1,0.1c-0.234-0.188-0.432-0.416-0.585-0.676
	c0.097,0.015,0.195,0.015,0.292,0c-0.105-0.178-0.105-0.4,0-0.578c0.196-0.107,0.411-0.173,0.633-0.193
	c0.031-0.042,0.048-0.093,0.049-0.145c-0.053,0-0.104-0.017-0.146-0.049c-0.027-0.027-0.044-0.063-0.049-0.1h0.047V17.74
	c0.121,0.002,0.24-0.033,0.341-0.1H4.19l1.169-0.049c0.11,0.07,0.224,0.135,0.341,0.193c0.042-0.031,0.093-0.048,0.146-0.049
	c0.012,0.021,0.029,0.037,0.049,0.049v0.145c0.973,0.008,1.741,0.014,2.875,0.049v-0.101c-0.07-0.236-0.07-0.488,0-0.724
	c-0.567,0.063-1.141,0.051-1.705-0.038v0.048c0.098,0.09,0.166,0.208,0.195,0.338h-0.1v-0.051c-0.174-0.17-0.293-0.389-0.341-0.628
	c0.277-0.185-0.053-0.977,0.244-1.159c0.529-0.111,1.074-0.127,1.609-0.048h1.072l0.1-0.145c0.247-0.142,0.508-0.255,0.78-0.338
	c0.369,0.001,0.716-0.179,0.926-0.483c-0.084-0.014-0.157-0.068-0.195-0.145c0.361-0.124,0.244-0.653,0.244-1.11v-3.379h0.049v4.49
	H11.644z M18.66,12.816c0.065,0.063,0.102,0.15,0.1,0.241h-0.1C18.644,12.978,18.644,12.896,18.66,12.816z M14.811,13.057v0.1
	c0.174-0.02,0.123,0.023,0.195-0.1H14.811z M15.25,13.157v0.1h0.05v-0.1H15.25z M14.519,13.495v0.1h0.146v-0.1H14.519z
	 M15.299,13.543c0.027,0.026,0.063,0.043,0.1,0.048c-0.026-0.027-0.062-0.045-0.099-0.051L15.299,13.543z M14.568,13.784
	c0.027,0.026,0.063,0.043,0.1,0.048c-0.027-0.027-0.062-0.045-0.1-0.05V13.784z M13.886,14.218v0.434l0.244-0.048
	c0.074-0.115,0.109-0.25,0.1-0.386H13.886z M20.171,14.318c0.064,0.298,0.012,0.609-0.146,0.869v-0.199h-0.244
	c-0.137-0.1-0.211-0.265-0.195-0.434c0.148-0.166,0.364-0.253,0.585-0.238V14.318z M19.538,14.945
	c0.031,0.042,0.048,0.093,0.049,0.145h-0.05v-0.15L19.538,14.945z M19.587,15.09c0.052,0.054,0.052,0.139,0,0.193v-0.198V15.09z
	 M19.831,15.138h0.1v0.048c-0.039-0.005-0.075-0.024-0.101-0.053L19.831,15.138z M7.162,15.716c-0.112,0.392-0.146,0.802-0.1,1.207
	c0.041,0.043,0.075,0.092,0.1,0.145h0.1v-1.352H7.162z M7.357,15.716v1.4h0.195c0.079-0.463,0.095-0.934,0.048-1.4H7.357z
	 M7.698,15.716v1.4h0.195v-1.4H7.7H7.698z M7.99,15.716v1.352c0.078,0.029,0.16,0.045,0.244,0.048v-1.4H7.99z M8.331,15.716v1.4
	c0.083-0.001,0.166-0.018,0.244-0.048c-0.077-0.446-0.094-0.901-0.049-1.352H8.331z M8.672,15.716v1.4h0.147v-0.1
	c0.195-0.404,0.263-0.857,0.195-1.3H8.672z M9.11,15.716v0.628h0.05v-0.052c0.162-0.18,0.309-0.373,0.44-0.576H9.11L9.11,15.716z
	 M5.652,17.885v0.1H5.7C5.696,17.947,5.679,17.912,5.652,17.885z M8.868,17.934c0.055,0.051,0.14,0.051,0.195,0H8.868L8.868,17.934z
	 M9.648,17.934c0.027,0.025,0.063,0.043,0.1,0.047C9.72,17.955,9.685,17.938,9.648,17.934L9.648,17.934z M25.287,18.223
	c0.072,0.056,0.172,0.056,0.244,0H25.287L25.287,18.223z M26.163,18.416v0.048h-0.048c-0.094,0.037,0.1,0.048,0.1,0.048
	C26.209,18.475,26.191,18.441,26.163,18.416z M25.773,18.561c0.055,0.052,0.14,0.052,0.194,0H25.773z M0.39,19.285
	c0.055,0.028,0.093,0.083,0.1,0.145H0.438v-0.048C0.412,19.355,0.396,19.322,0.39,19.285z M0.926,20.878
	c-0.016,0.067,0.069,0.07,0.1,0.101C1.057,20.923,0.939,20.893,0.926,20.878z M26.262,21.316c-0.048,0.069-0.175,0.104-0.101,0.145
	c0.042,0.031,0.093,0.048,0.146,0.048c0.026-0.062,0.043-0.126,0.049-0.192h-0.1H26.262z M24.994,21.992v0.29h0.049
	c0.398-0.202,0.773-0.444,1.121-0.724c-0.038-0.005-0.073-0.021-0.1-0.049c-0.338,0.201-0.696,0.361-1.07,0.479V21.992z
	 M16.858,21.943c-0.196-0.014-0.394,0.003-0.585,0.049c0.025,0.437-0.114,0.867-0.39,1.207H17.3v-0.053
	c-0.304-0.326-0.464-0.761-0.442-1.207V21.943z M20.512,21.943c0.022,0.46-0.135,0.91-0.438,1.256h1.704v-0.053
	c-0.327-0.311-0.489-0.758-0.438-1.207h-0.827V21.943z M7.455,22.089c-0.01,0.41-0.165,0.804-0.438,1.11H8.77v-0.053
	c-0.293-0.273-0.453-0.66-0.438-1.062H7.454L7.455,22.089z M11.986,22.137c-0.033,0.391-0.186,0.762-0.438,1.063h1.559v-0.053
	c-0.266-0.277-0.437-0.633-0.487-1.014c-0.209,0.043-0.426,0.043-0.635,0L11.986,22.137z M3.606,22.186
	c0.064,0.065,0.152,0.102,0.244,0.1V22.23H3.8v-0.049H3.605L3.606,22.186z"/>
</svg>
