<?xml version="1.0" encoding="utf-8"?>
<!-- Generator: Adobe Illustrator 16.0.0, SVG Export Plug-In . SVG Version: 6.00 Build 0)  -->
<!DOCTYPE svg PUBLIC "-//W3C//DTD SVG 1.1//EN" "http://www.w3.org/Graphics/SVG/1.1/DTD/svg11.dtd">
<svg version="1.1" id="Layer_1" xmlns="http://www.w3.org/2000/svg" xmlns:xlink="http://www.w3.org/1999/xlink" x="0px" y="0px"
	 width="39.969px" height="40px" viewBox="0 0 39.969 40" enable-background="new 0 0 39.969 40" xml:space="preserve">
<path id="Color_Fill_1" fill="#FFFFFF" d="M6.965,14.276v0.2c0.422,0.045,0.849,0.012,1.258-0.1c0.078-0.076-0.049-0.051,0.048-0.1
	c0.029-0.079,0.045-0.162,0.048-0.246c0.083-0.001,0.165-0.018,0.242-0.049c-0.044-0.042-0.078-0.092-0.1-0.148
	c0.038-0.004,0.073-0.021,0.1-0.049c-0.125-0.021-0.224-0.12-0.242-0.246h0.194c0.126-0.033,0.256-0.05,0.387-0.05
	c0.043,0.013,0.15,0.179,0.193,0.2l1.4,0.049v-0.2c0.052,0.001,0.104-0.017,0.145-0.049c-0.157-0.041-0.074,0.024-0.145-0.1
	c0.181-0.006,0.118,0.059,0.145-0.148c0.066-0.24,0.083-0.492,0.048-0.739h0.194v0.739h0.048c0.094-0.071,0.286-0.077,0.387-0.148
	c0.051-0.109,0.085-0.226,0.1-0.345h0.1c-0.009,0.3,0.01,0.375,0.29,0.394v-0.047h0.045c-0.042-0.161-0.059-0.328-0.05-0.494
	c-0.077-0.03-0.159-0.046-0.242-0.049c-0.087,0.145-0.244-0.088-0.484-0.148c-0.04,0.16,0.024,0.075-0.1,0.148V12.5
	c-0.049-0.125-0.066-0.261-0.048-0.394h0.145v0.148h0.199v-0.2h0.048c0.071,0.124,0.021,0.076,0.194,0.1v-0.046h0.048V12.06
	c-0.068,0.005-0.137-0.012-0.194-0.049c0.067-0.005,0.132-0.022,0.194-0.049v-0.05c-0.327-0.03-0.266-0.3-0.242-0.64
	c0.02,0.012,0.037,0.029,0.048,0.049c0.176-0.062,0.37-0.044,0.532,0.049c-0.067,0.243-0.115,0.49-0.145,0.739h0.1
	c-0.018-0.065-0.018-0.135,0-0.2c0.02,0.012,0.036,0.029,0.048,0.049c0.031,0.043,0.048,0.095,0.048,0.148h0.145v-0.2l1.016,0.049
	v0.148c0.3-0.04,0.839,0.051,1.4,0.049v-0.2h-0.048c-0.074,0.118-0.012,0.017-0.242,0v-0.1c0.38-0.009,0.426-0.051,0.822-0.049
	v-0.64h0.048v0.049c0.062,0.208,0.078,0.426,0.048,0.64c-0.151,0.053-0.373,0.131-0.532,0.2v0.1h1.886v-0.1
	c0.154-0.018,0.065,0.115,0.145,0.148c0.215,0.038,0.436,0.003,0.629-0.1c0.04,0.16-0.024,0.075,0.1,0.148
	c-0.001-0.053,0.016-0.105,0.048-0.148v0.1c0.031,0.043,0.048,0.095,0.048,0.148h-0.05V12.4c-0.383-0.066-0.773-0.083-1.161-0.049
	v0.1H16.3V12.5h-0.048c-0.785,0.11-1.581,0.126-2.37,0.049v0.1c0.147-0.008,0.294,0.008,0.435,0.049l-0.048,0.148
	c-0.43-0.084-0.871-0.101-1.306-0.049v0.543h-0.629V12.9h-0.242c0.016,0.293,0.092,0.391,0.1,0.739
	c-0.243,0.049-0.726,0.09-1.016,0.148c-0.021,0.087-0.054,0.17-0.1,0.246h0.048v0.049c0.062-0.026,0.127-0.042,0.194-0.049
	c-0.009,0.085,0.007,0.171,0.048,0.246v-0.397h0.194l-0.048,0.3c0.4,0,0.978-0.064,1.5-0.049c0.163,0.412,0.123,0.57,0.774,0.542
	v0.394c-0.085,0.015-0.158,0.07-0.194,0.148c0.323,0.291,0.558,0.667,0.677,1.084l1.983,0.049l0.048,0.143h0.532
	c0.057-0.131-0.043-0.088,0.1-0.148v0.1c0.031,0.043,0.048,0.095,0.048,0.148c4.9-0.01,9.538,0.199,14.51,0.199h6.14
	c0.729-0.17,1.478-0.237,2.226-0.199c0.098,0.301,0.132,0.62,0.1,0.936c-0.041,0.044-0.074,0.094-0.1,0.148
	c-0.478-0.09-1.291-0.008-1.693-0.049c-1.725-0.18-3.947-0.148-5.9-0.148c-5.246,0-10.141,0.193-15.284,0.199
	c0.005,0.104-0.052,0.201-0.145,0.246c0-0.199-0.219-0.164-0.532-0.147c-0.075,0.093-0.176,0.163-0.29,0.2
	c1.165-0.061,2.333,0.006,3.482,0.199v0.148c-0.115,0.074-0.251,0.109-0.387,0.1c-0.183,0.117-0.544-0.051-0.774,0.05
	c-0.509,0.11-1.033,0.126-1.548,0.049v0.2c-0.745,0-1.423,0.011-2.128,0v0.1c0.151,0.196,0.22,0.443,0.193,0.689
	c-0.021,0.09-0.102,0.152-0.193,0.148v0.049h1.064c0.394-0.121,0.815-0.121,1.209,0c0.194,0.021,0.391,0.004,0.58-0.049
	c0.115-0.006,0.23,0.011,0.338,0.049c0.39,0.027,0.781-0.006,1.161-0.1c0-0.156-0.058-0.119,0.145-0.148
	c0.206-0.142,0.489-0.146,0.677-0.299c-0.041-0.025-0.075-0.061-0.1-0.101h0.048V19h0.1c0.041,0.226,0.087,0.2,0.339,0.2
	c0.284-0.149,0.598-0.233,0.919-0.245v0.199c0.499-0.002,0.993,0.101,1.451,0.301c0.304,0.021,0.601,0.105,0.871,0.245
	c0.085-0.062,0.166-0.128,0.242-0.2c0.296-0.095,0.608-0.129,0.919-0.1c-0.094,0.158-0.174,0.322-0.242,0.493
	c0.479,0.199,0.984,0.331,1.5,0.394l0.145-0.049c0.025,0.17,0.074,0.336,0.146,0.493c0.104-0.071,0.202-0.154,0.29-0.246v0.101
	c-0.031,0.043-0.048,0.094-0.048,0.147c0.181,0.034,0.358,0.084,0.532,0.147c-0.001-0.053,0.016-0.105,0.047-0.147
	c0.246,0.099,0.512,0.133,0.775,0.101c0.818,0.125,1.484,0.725,1.692,1.526c-0.161,0.024-0.323,0.024-0.483,0v0.04
	c0.045,0.111,0.11,0.213,0.193,0.3c-0.101,0.354-0.23,0.701-0.387,1.035c-0.36,0.358-0.788,0.644-1.258,0.837
	c-0.733,0.538-1.529,0.984-2.371,1.33l-1.399,0.049H6.143c-0.761,0.078-1.53,0.027-2.274-0.15c-0.735-0.364-1.446-0.775-2.128-1.232
	c-0.515-0.184-0.957-0.529-1.258-0.984c-0.245-0.578,0.044-1.223-0.145-1.725C0.231,21.904,0.115,21.922,0,21.911v-0.3
	c0.218-0.278,0.413-0.575,0.58-0.887c0.146,0.003,0.293-0.014,0.435-0.049c-0.041-0.025-0.075-0.06-0.1-0.101
	c0.238-0.169,0.109-0.705,0.387-0.837c0.545-0.339,2.264,0.242,2.805-0.1h-2.9c-0.063-0.292-0.096-0.589-0.1-0.887
	c0.342-0.873,0.586-1.782,0.726-2.709c-0.118,0.013-0.233,0.046-0.339,0.1v-0.1c0.298-0.274,0.501-0.637,0.58-1.034
	c-0.067,0.005-0.132,0.022-0.193,0.049c-0.01,0.069,0.04-0.021,0.048,0.049c0.093,0.038-0.1,0.049-0.1,0.049
	c-0.146-0.134-0.259-0.3-0.329-0.485c0.142-0.04,0.288-0.056,0.435-0.049c0.012,0.02,0.028,0.037,0.048,0.049
	c-0.009,0.083-0.025,0.166-0.048,0.246c0.168,0.178,0.186-0.052,0.193,0.345c0.431-0.067,0.853-0.183,1.258-0.345
	c-0.081-0.146-0.049,0-0.048-0.2c0.401-0.234,0.845-0.385,1.306-0.443c0.231,0.075,0.286,0.261,0.435,0.3
	c0.103-0.012,0.201-0.046,0.29-0.1h1.016v-0.1c-0.026-0.028-0.043-0.063-0.048-0.1c0.067-0.005,0.132-0.022,0.193-0.049
	c0.13-1.67,0.1-3.986,0.1-5.961C6.557,7.51,6.572,6.75,6.675,6v5.911c-0.059,0.775-0.01,1.554,0.145,2.315v0.049L6.965,14.276
	L6.965,14.276z M16.493,11.764h0.1v0.246h-0.1V11.764z M12.478,12.01c0.054,0.052,0.14,0.052,0.194,0H12.478L12.478,12.01z
	 M12.962,12.06v0.049h-0.048c-0.093,0.038,0.1,0.049,0.1,0.049C13.008,12.12,12.991,12.085,12.962,12.06L12.962,12.06z
	 M12.091,12.453v0.147h0.242v-0.147H12.091L12.091,12.453z M12.091,12.753c0.083,0.043,0.062,0.044,0.145,0H12.091L12.091,12.753z
	 M10.543,13.59v0.1h0.048c-0.003-0.039-0.02-0.076-0.047-0.104L10.543,13.59z M8.076,14.33h0.1v0.049h-0.1v-0.053V14.33z
	 M7.976,14.378h0.1v0.049c-0.037-0.006-0.07-0.025-0.095-0.053L7.976,14.378z M38.641,16.891c-0.043,0.041-0.078,0.092-0.1,0.148
	c-0.037,0.06-0.053,0.129-0.048,0.199c0.151,0.117,0.342,0.17,0.532,0.148c0.039-0.145,0.055-0.294,0.048-0.443h-0.04v-0.057h-0.387
	L38.641,16.891z M39.221,16.891v0.492h0.489v-0.496h-0.483L39.221,16.891z M14.021,19.649c0.169,0.075,0.363,0.075,0.532,0h-0.526
	H14.021z M26.984,20.586c0.031,0.043,0.047,0.094,0.048,0.147h-0.044v-0.151L26.984,20.586z M26.452,20.785
	c0.08,0.055,0.052,0.088,0.1,0H26.452z M0.769,20.834c-0.058,0.037-0.125,0.054-0.193,0.049v0.05H0.532l-0.048,0.3h0.1
	c0.139-0.106,0.255-0.24,0.339-0.395H0.774L0.769,20.834z M0.962,21.573c-0.194,0.008-0.381,0.077-0.532,0.2l0.1,0.345h0.1V22.06
	c0.102-0.126,0.215-0.241,0.339-0.345v-0.147L0.962,21.573z M3.235,24.185h-0.43v-0.101c-0.037-0.06-0.053-0.129-0.048-0.199
	c-0.136-0.004-0.27,0.031-0.387,0.1c0.012,0.02,0.028,0.037,0.048,0.049c0.256,0.207,0.553,0.357,0.871,0.443v-0.053
	c-0.04-0.075-0.057-0.161-0.048-0.246L3.235,24.185z M6.135,23.885c0.031,0.459-0.106,0.914-0.387,1.281h1.846v-0.101
	c-0.296-0.316-0.423-0.757-0.339-1.183H6.143L6.135,23.885z M13.487,23.885l-0.048,0.3h-0.29c-0.021,0.36-0.156,0.706-0.387,0.985
	h2.418v-0.101c-0.3-0.314-0.427-0.757-0.339-1.183h-1.346L13.487,23.885z M20.936,24.185c-0.059,0.352-0.191,0.687-0.387,0.985h2.95
	v-0.101c-0.3-0.314-0.427-0.757-0.338-1.183h-1.879c-0.072,0.214-0.039,0.283-0.339,0.291L20.936,24.185z M26.063,24.185
	c-0.001,0.084-0.018,0.167-0.047,0.245h0.1c0.252-0.184,0.529-0.332,0.822-0.442v-0.056h-0.19c-0.058-0.037-0.126-0.054-0.194-0.049
	c-0.089,0.271-0.107,0.313-0.482,0.295L26.063,24.185z M10.15,24.185c-0.071,0.349-0.202,0.681-0.387,0.985h0.871v-0.057
	c-0.179-0.301-0.338-0.614-0.477-0.936L10.15,24.185z M17.744,24.185c-0.06,0.352-0.191,0.687-0.387,0.985h1.064v-0.057
	c-0.281-0.225-0.427-0.578-0.387-0.936h-0.29V24.185z"/>
</svg>
