<?xml version="1.0" encoding="utf-8"?>
<!-- Generator: Adobe Illustrator 16.0.0, SVG Export Plug-In . SVG Version: 6.00 Build 0)  -->
<!DOCTYPE svg PUBLIC "-//W3C//DTD SVG 1.1//EN" "http://www.w3.org/Graphics/SVG/1.1/DTD/svg11.dtd">
<svg version="1.1" id="Layer_1" xmlns="http://www.w3.org/2000/svg" xmlns:xlink="http://www.w3.org/1999/xlink" x="0px" y="0px"
	 width="40px" height="40px" viewBox="0 0 40 40" enable-background="new 0 0 40 40" xml:space="preserve">
<path id="Color_Fill_1" fill="#FFFFFF" d="M5,18.517v-0.149c1.086,0,2.258,0.022,3.265,0.05c0,0.054,0.018,0.106,0.051,0.149
	c0.13-0.287,0.362-0.23,0.714-0.199c0.024,0.086,0.058,0.171,0.1,0.25c0.025-0.04,0.06-0.074,0.1-0.1
	c-0.118-0.747-0.135-1.506-0.051-2.258h4.031v0.15c0.208-0.011,0.387,0.144,0.408,0.351c0.027-0.026,0.045-0.062,0.051-0.101
	c0.146-0.093,0.254-0.234,0.306-0.399c0.456,0.067,0.918,0.083,1.378,0.05l0.1-0.451h-0.3v-0.5h0.459
	c0.041-0.225,0.107-0.444,0.2-0.652h0.153v-0.354h-0.353v-0.3c-0.179,0.068-0.369,0.102-0.561,0.1
	c-0.144-0.206-0.016-0.623-0.153-0.7c-0.155-0.108-0.174,0.041-0.255-0.1c0.216-0.349,0.025-1.023,0.255-1.355
	c0.25,0.135,0.535,0.187,0.816,0.15c0.07-0.463,0.104-0.932,0.1-1.4c0.438-0.075,0.884-0.091,1.327-0.05
	c-0.042-0.685-0.042-1.372,0-2.057H16.99c-0.096,0.045-0.202,0.063-0.306,0.05V7.73c0.069,0.006,0.136,0.022,0.2,0.05v-0.6h-0.047
	c0.001,0.103-0.016,0.204-0.051,0.3h-0.1V7.128h-0.462V4.519c0.794-0.12,1.601-0.137,2.4-0.05V1.258
	C18.562,0.839,18.579,0.412,18.674,0v4.415c0.099,0.034,0.202,0.05,0.306,0.05v2.659c-0.104-0.001-0.208,0.016-0.306,0.05
	c0.138,1.166,0.155,2.343,0.051,3.512h1.582V0h0.051v0.05c0.109,0.983,0.126,1.974,0.051,2.96v7.68h0.61
	c-0.004-0.387,0.03-0.773,0.101-1.154c0.426-0.041,0.854-0.024,1.276,0.05c-0.027,0.366-0.027,0.733,0,1.1h1.428v0.05h0.051v0.853
	h0.1c0.207,0.094,0.601-0.376,0.715-0.251c0.097,0.06,0.199,0.11,0.306,0.15c0.12-0.16,0.31-0.252,0.51-0.251
	c0.027,0,0.028,0.122,0.101,0.1c0.131-0.076,0.268-0.143,0.408-0.2c0.114,0.143,0.184,0.317,0.199,0.5
	c-0.146,0.106,0.014,0.248,0.051,0.5c-0.197,0.001-0.39,0.053-0.561,0.151v0.05H27.5V12.5h4.693c0.816-0.053,1.637-0.036,2.449,0.05
	c0.168-0.044,0.338-0.078,0.51-0.1c0.895,0.125,1.8,0.159,2.701,0.1v0.25h-0.047v0.05c-1.855,0.144-3.968,0-6.021,0
	c-1.983,0-3.81,0.148-5.714,0.151c-0.301,0.441-0.913,0.636-0.918,1.354h-0.307v0.344c0.627,0.252-0.089,0.672,1.223,0.652v0.553
	H26.02c-0.145-0.072-0.314-0.072-0.459,0c0.152,0.097,0.197,0.299,0.101,0.451h1.378c0.027,0.027,0.063,0.045,0.1,0.051
	c0.045-0.234,0.123-0.256,0.408-0.252c-0.008-0.152,0.009-0.305,0.051-0.451c0.186,0.034,0.373,0.051,0.562,0.05v0.05h0.051
	c-0.009,0.118-0.025,0.235-0.051,0.352h0.153c0.064-0.024,0.135-0.024,0.199,0c0.032-0.199,0.032-0.402,0-0.601
	c-0.271,0.038-0.545,0.038-0.816,0v-0.149c-0.275,0.029-0.555-0.004-0.815-0.101c0.288,0,1.327,0.05,1.327,0.05
	c0.036-0.081,0.111-0.139,0.2-0.15c0.457,0.064,0.921,0.064,1.378,0c-0.139,0.019-0.279,0.002-0.408-0.051
	c0.667-0.064,1.34-0.013,1.99,0.151c-0.7-0.006-0.826,0.101-1.428,0.101c0,0.054-0.018,0.106-0.051,0.149
	c-0.237,0.097-0.367,0.353-0.307,0.601c0.357,0.014,0.717-0.002,1.072-0.051c0.017-0.227-0.006-0.21,0.199-0.251
	c0.077,0.208,0.199,0.397,0.357,0.552c0-0.16,0.01-0.199,0.307-0.199v0.05c-0.127,0.073-0.056,0.034-0.052,0.251
	c0.328-0.008,0.063,0.215,0.511,0.251c-0.051,0.519,0.262,0.444,0.407,0.853h-0.036c-0.025-0.04-0.061-0.074-0.101-0.1v0.1
	c0.083,0.191,0.227,0.35,0.407,0.451c0.028-0.026,0.063-0.044,0.101-0.05v0.151c-0.149-0.021-0.063-0.082-0.153,0.05
	c0.125,0.144,0.213,0.315,0.256,0.5c-0.119,0.067-0.094,0.062-0.101,0.1c0.229,0.165,0.468,0.315,0.714,0.452
	c0.038-0.006,0.073-0.023,0.1-0.05c0.162-0.235,0.251-0.515,0.256-0.8h1.326c0.021,0.137-0.039,0.272-0.152,0.351
	c0.184,0.021,0.128-0.024,0.2,0.101c-0.237,0-0.191-0.084-0.2,0.199h0.307c0.08,0.139,0.207,0.244,0.356,0.301l-0.101,0.15
	c0.072,0.022,0.14,0.057,0.201,0.1v-0.049c0.027-0.026,0.063-0.044,0.1-0.051c-0.023,0.047-0.023,0.104,0,0.15
	c0.064,0.02,0.135,0.02,0.199,0c0.158-0.236,0.053-0.387,0.459-0.4c0.071,0.104,0.106,0.227,0.101,0.352
	c1.657,0.156,3.03,0.738,3.366,2.156c-0.371-0.005-0.72,0.185-0.918,0.5c0.053,0.127,0.07,0.265,0.052,0.4
	c0.163-0.01,0.063-0.037,0.2,0.05c-0.066,0.092-0.117,0.192-0.153,0.3v0.1c-0.067,0.013-0.134,0.029-0.2,0.051
	c-0.119,0.173-0.09,0.385-0.199,0.552c-0.215,0.155-0.403,0.341-0.562,0.552c0.071,0.041,0.11,0.119,0.101,0.2h-0.043v0.05
	c-0.156-0.049-0.154-0.1-0.307-0.15c-0.432,0.471-0.93,0.875-1.48,1.199c-0.878,0.813-1.835,1.535-2.856,2.158
	c-0.815,0.207-1.661,0.274-2.5,0.199H10c-0.682,0.036-1.366,0.002-2.041-0.1L7.4,27.8c-0.2-0.114-0.388-0.248-0.561-0.399
	c-0.708-0.44-1.405-0.879-2.092-1.301c-0.663-0.412-1.335-0.724-1.99-1.154c-0.248-0.162-0.418-0.5-0.663-0.651
	c-0.389-0.102-0.742-0.31-1.02-0.601c-0.103-0.164-0.138-0.361-0.1-0.552c0.092-0.109,0.194-0.21,0.306-0.3v0.05
	c0.045,0.196,0.062,0.399,0.051,0.601c0.115,0.035,0.236,0.053,0.357,0.05v-0.05c-0.068-0.281-0.119-0.566-0.153-0.854v0.051
	c-0.033,0.043-0.051,0.096-0.051,0.15H1.327c0.107-0.235,0.142-0.498,0.1-0.753h-0.1c-0.374,0.253-0.829,0.36-1.276,0.3
	C0.022,22.357,0.004,22.32,0,22.279c0.518-0.27,0.944-0.688,1.224-1.199c-0.28-0.168-0.523-0.392-0.714-0.656h0.051v-0.051h0.1
	c0.09,0.119,0.215,0.207,0.357,0.252c-0.006-0.136,0.011-0.271,0.051-0.4c-0.056-0.03-0.093-0.086-0.1-0.15l-0.255,0.051
	c-0.005-0.039-0.023-0.074-0.051-0.1v-0.051c0.122,0.004,0.229-0.08,0.255-0.199C0.752,19.734,0.84,19.8,0.765,19.675
	c0.071-0.175,0.088-0.367,0.051-0.552c-0.044,0.037-0.058,0.063-0.1,0.1v-0.199c0.129-0.301,0.164-0.633,0.1-0.953
	c0.132-0.039,0.243-0.129,0.306-0.252c-0.117-0.043-0.21-0.135-0.255-0.25c0.185-0.116,0.395-0.186,0.612-0.201
	c0.143,0.115,0.297,0.215,0.459,0.301c0.145,0.1,0.207,0.3,0.357,0.4c0.125-1.854,0.051-3.933,0.051-5.871L2.4,4.268V0.455
	C2.328-0.029,2.344-0.522,2.449-1c0,4.571,0.1,8.956,0.1,13.446v4.164c0.045,0.635,0.045,1.272,0,1.907
	c0.126,0.062,0.079,0.089,0.2,0.151C3.491,18.529,4.246,18.479,5,18.517z M18.571,7.178c-0.027,0.186-0.009,0.375,0.051,0.552
	C18.649,7.544,18.632,7.355,18.571,7.178z M17.193,8.478v-0.2h-0.152c0.013-0.103-0.004-0.208-0.051-0.3V8.53h0.051
	c0.045-0.031,0.098-0.048,0.153-0.047L17.193,8.478z M18.519,8.478v-0.5h-0.1c-0.017,0.27-0.134,0.336-0.1,0.451
	c0.06,0.038,0.13,0.057,0.201,0.054L18.519,8.478z M17.601,8.278v0.2h0.409v-0.05h0.051v-0.15H17.601L17.601,8.278z M18.366,10.686
	h0.2c0-0.676,0.023-1.405,0.051-2.007l-0.255-0.05v0.05c0.083,0.668,0.084,1.343,0.005,2.011L18.366,10.686z M25.866,11.786
	c-0.06,0.059-0.128,0.11-0.2,0.151v0.05h0.051l0.051,0.1h0.051v-0.05c0.1-0.043,0.16-0.143,0.154-0.251h-0.101H25.866z M15.051,14.1
	c0.18-0.01,0.354-0.061,0.51-0.151c0.033-0.043,0.051-0.097,0.051-0.151c-0.032-0.043-0.05-0.096-0.051-0.15h-0.2
	c-0.006-0.069-0.023-0.137-0.051-0.2H15.2C15.173,13.669,15.123,13.888,15.051,14.1z M30,15.256c0.057,0.051,0.143,0.051,0.2,0H30z
	 M28.01,15.406c0.057,0.051,0.143,0.051,0.2,0H28.01z M28.979,16.107v-0.35H28.93c-0.033,0.057-0.09,0.094-0.154,0.1
	c-0.01-0.183,0.07-0.137-0.152-0.199v0.5h0.051c0.096-0.045,0.201-0.063,0.307-0.049L28.979,16.107z M29.54,16.156
	c0.022-0.152,0.005-0.308-0.052-0.451c-0.061,0.129-0.112,0.262-0.152,0.4c0.061,0.038,0.133,0.057,0.205,0.053L29.54,16.156z
	 M13.928,16.508l-0.051,0.1c0.09-0.066,0.052-0.098,0.052-0.098L13.928,16.508z M13.214,16.558v0.601h0.051
	c0.103-0.104,0.189-0.222,0.255-0.352c-0.046-0.134-0.165-0.229-0.306-0.246V16.558z M10.614,17.357v0.101h0.357v-0.101h-0.359
	H10.614z M11.124,17.357c-0.001,0.055,0.017,0.108,0.051,0.151c0.163-0.015,0.32-0.065,0.459-0.151H11.124z M1.532,17.609v0.1h0.05
	v-0.051h0.051c-0.028-0.024-0.064-0.04-0.102-0.045L1.532,17.609z M32.398,17.609c0.057,0.03,0.094,0.086,0.101,0.15h-0.05v-0.05
	c-0.025-0.026-0.043-0.06-0.049-0.097L32.398,17.609z M0.918,18.668h0.153c0.006,0.076,0.042,0.148,0.1,0.199H1.02
	c0.012,0.106,0.046,0.209,0.1,0.301h0.1v-0.1c0.036-0.078,0.007-0.008,0-0.15h0.056c0.057,0.113,0.182,0.175,0.306,0.15
	c0.11-0.097,0.198-0.217,0.255-0.352c0.099,0.033,0.202,0.051,0.306,0.05c0.044-0.079,0.078-0.163,0.1-0.251
	c0.051-0.117,0.031-0.253-0.051-0.352c-0.043-0.251-0.255-0.439-0.51-0.451C1.229,18.1,0.887,17.722,0.918,18.668z M13.265,17.715
	l0.051,0.15h0.051C13.361,17.801,13.322,17.744,13.265,17.715z M32.5,17.765c0.055,0.047,0.105,0.097,0.152,0.149v0.101H32.6v-0.05
	C32.546,17.91,32.512,17.84,32.5,17.765z M32.807,17.914h0.051c0.024,0.139-0.028,0.06-0.101,0.101L32.807,17.914z M13.877,18.266
	c0.009,0.131,0.063,0.256,0.153,0.352v-0.051C14.109,18.414,14.009,18.35,13.877,18.266L13.877,18.266z M4.948,18.566H4.643v0.1H4.9
	c0.013,0.021,0.03,0.037,0.051,0.05v-0.147L4.948,18.566z M13.162,18.566v0.1c0.083-0.059,0.064-0.02,0.001-0.098L13.162,18.566z
	 M13.468,18.566v0.1h0.459v-0.051c-0.149-0.039-0.304-0.055-0.458-0.047L13.468,18.566z M4.08,18.615
	c0.027,0.027,0.062,0.045,0.1,0.051c-0.027-0.025-0.062-0.043-0.098-0.049L4.08,18.615z M8.06,18.615
	c0.027,0.027,0.062,0.045,0.1,0.051c-0.027-0.025-0.062-0.043-0.099-0.049L8.06,18.615z M12.601,18.615
	c0.088,0.045,0.065,0.045,0.153,0H12.601L12.601,18.615z M14.081,18.615c0.057,0.051,0.143,0.051,0.2,0H14.081z M1.887,18.816
	c0.027,0.025,0.062,0.043,0.1,0.049c-0.027-0.025-0.062-0.042-0.099-0.047L1.887,18.816z M33.775,19.066
	c-0.057,0.09-0.076,0.197-0.051,0.301c0.027,0.026,0.062,0.043,0.1,0.05c0.017-0.118,0-0.239-0.049-0.349V19.066z M35,19.17v0.1
	h0.051v-0.1H35z M0.867,19.32v0.1h0.1v-0.051L0.867,19.32z M35.2,19.369v0.101h0.051v-0.05h0.051
	C35.273,19.393,35.238,19.375,35.2,19.369z M36.322,19.369v0.201h0.1V19.52c0.027-0.027,0.045-0.063,0.051-0.1L36.322,19.369z
	 M1.48,21.979v0.1h0.051v-0.1H1.48z M5.817,24.738H4.949v0.101h0.1c0.227,0.206,0.485,0.374,0.765,0.5v-0.601H5.817z M29.389,24.738
	h-1.634v0.101c-0.104,0.309-0.171,0.628-0.2,0.953c-0.162,0.343-0.368,0.663-0.611,0.952h3.214v-0.045
	C29.599,26.209,29.313,25.479,29.389,24.738z M35.204,24.738v0.201h0.101c0.039-0.08,0.113-0.135,0.199-0.15v-0.051H35.2H35.204z
	 M11.275,25.738c-0.104,0.373-0.297,0.717-0.561,1h1.225v-0.039c-0.293-0.215-0.421-0.811-0.663-0.957L11.275,25.738z
	 M16.683,25.738c-0.085,0.381-0.281,0.729-0.561,1h1.225v-0.039c-0.24-0.306-0.461-0.625-0.663-0.957L16.683,25.738z M22.143,25.738
	c-0.166,0.355-0.371,0.691-0.613,1h1.225v-0.039c-0.255-0.283-0.461-0.607-0.611-0.957V25.738z"/>
</svg>
