<svg xmlns="http://www.w3.org/2000/svg" width="40" height="40" viewBox="0 0 40 40">
  <defs>
    <style>
      .cls-1 {
        fill: #fff;
        fill-rule: evenodd;
      }
    </style>
  </defs>
  <path id="cn_type_95_ha_go_ico" class="cls-1" d="M26.239,12.556l0.428,0.025,0.025-.175h0.05a0.17,0.17,0,0,1,.1-0.025,0.376,0.376,0,0,1,.05.1,0.169,0.169,0,0,1,.025.1,0.547,0.547,0,0,1,.227-0.125,0.275,0.275,0,0,1,.151.326,0.259,0.259,0,0,1,.05.251,0.572,0.572,0,0,0,.377.025,0.258,0.258,0,0,1,.075-0.1c0.1-.018.085,0.077,0.126,0.1a0.905,0.905,0,0,0,.579-0.1,0.844,0.844,0,0,0,.252.125,2.9,2.9,0,0,0,.277.226l1.384,0.075c0.248,0.053.6-.018,0.881,0.025a8.014,8.014,0,0,0,1.057.025c1.012,0,2.1.033,3.069,0.025V14.01c-1.293-.01-2.572.024-3.824,0.05a4.749,4.749,0,0,0-1.333.075,3.814,3.814,0,0,0,0,.652l-0.8.025a0.322,0.322,0,0,1-.151.1,3.446,3.446,0,0,0-1.409-.1v0.075a0.1,0.1,0,0,0-.076.05,0.658,0.658,0,0,0-.126-0.05V14.812a0.505,0.505,0,0,0-.3.05c-0.057.074-.069,0.172-0.126,0.251a1.448,1.448,0,0,0-.428.226c0.09,0.03.092,0.038,0.1,0.15-0.091.058-.034,0.058-0.076,0.125a0.194,0.194,0,0,0-.075.075,0.948,0.948,0,0,1,.05.15,0.267,0.267,0,0,1,.126-0.05,0.251,0.251,0,0,0,.1.125A0.128,0.128,0,0,1,27.2,15.84l0.075,0.1a1.188,1.188,0,0,0,.755-0.075c0.3,0.19.3,0.027,0.478,0.025a1.3,1.3,0,0,0,.855,0l0.05-.025V15.89c0.114,0.078.214,0.108,0.3-.025a4.407,4.407,0,0,0,.478.175,1.635,1.635,0,0,0,.075.226,0.263,0.263,0,0,0-.075.2,0.4,0.4,0,0,0,.126.025v0.1a0.144,0.144,0,0,1,.151.05,0.254,0.254,0,0,0-.05.15c0.088,0.081.27,0.089,0.352,0.175l0.05,0.2,0.2,0.05c0.069,0.041.121,0.109,0.2,0.15a1.034,1.034,0,0,1,0,.576h0.553V17.87h0.2L32,17.945h1.082V17.87h0.2a1.161,1.161,0,0,0,.7.075,2.031,2.031,0,0,1,.679.15,0.357,0.357,0,0,1,0,.251,0.691,0.691,0,0,0-.252.1L34.44,18.5H34.415a0.788,0.788,0,0,1-.151.075V18.6h0.428a7.906,7.906,0,0,1,1.182-.075c0.366-.076.785,0.006,1.182-0.075a1.972,1.972,0,0,1,.8-0.05c0.408,0.133.839,0.4,1.233,0.576a1.722,1.722,0,0,1,.906.5,2.1,2.1,0,0,0-.025.326,9.159,9.159,0,0,0-.377,1.629,1.129,1.129,0,0,0,.076.426l-0.151.025a0.086,0.086,0,0,1-.025.05c0.04,0.233-.015.44,0.277,0.451v0.376h-0.2a2.068,2.068,0,0,0-.075.476c0.085,0.061.147,0.021,0.176,0.15-0.053.082-.044,0.223-0.1,0.3a0.526,0.526,0,0,0-.2-0.075c-0.044.169-.171,0.287-0.226,0.451H39.17a0.527,0.527,0,0,0,.151.1,2.618,2.618,0,0,1-.2.326,0.418,0.418,0,0,0-.226-0.075,0.8,0.8,0,0,0-.3.326c0.046,0.03.136,0.121,0.1,0.15-0.062.093-.163,0.136-0.226,0.226a0.572,0.572,0,0,0-.277-0.05,0.512,0.512,0,0,0-.277.226,0.2,0.2,0,0,1,.1.15,0.741,0.741,0,0,1-.277.2,0.2,0.2,0,0,0-.151-0.15,1.156,1.156,0,0,0-.352.351,0.167,0.167,0,0,1,.1.15c-0.117.04-.158,0.133-0.277,0.175a0.37,0.37,0,0,0-.151-0.15,1.155,1.155,0,0,0-.352.351,0.331,0.331,0,0,1,.1.15,2.081,2.081,0,0,1-.3.175l-0.1-.15H36.226v0.025l-0.377.276c0.038,0.077.086,0.124,0.126,0.2a1.974,1.974,0,0,0-.3.2,0.406,0.406,0,0,0-.126-0.175v0.025a0.721,0.721,0,0,0-.377.351,0.19,0.19,0,0,1,.1.125H35.245a0.4,0.4,0,0,1-.252.175,0.273,0.273,0,0,1-.1-0.125h-0.05a0.974,0.974,0,0,0-.352.351c0.041,0.03.108,0.1,0.075,0.125a0.572,0.572,0,0,1-.277.2V28.271a0.662,0.662,0,0,1-.1-0.125H34.164V28.17a3.623,3.623,0,0,0-.377.276V28.5a0.836,0.836,0,0,1,.1.1,0.086,0.086,0,0,1-.025.05c-0.064.081-.166,0.115-0.226,0.2H33.61l-0.1-.175a4.117,4.117,0,0,0-.4.3,0.086,0.086,0,0,0,.025.05c0.025,0.076.049,0.075,0.075,0.15H33.182a0.74,0.74,0,0,1-.277.2,0.217,0.217,0,0,0-.151-0.15,0.576,0.576,0,0,1-.377.226c0.019,0.109.056,0.113,0.075,0.226a0.792,0.792,0,0,1-.352.1c-0.033-.044-0.042-0.13-0.075-0.175a0.8,0.8,0,0,1-.478.1l0.025,0.226-0.377.05v-0.2a1.864,1.864,0,0,0-.5-0.025,0.719,0.719,0,0,0-.025.226H30.315V29.749h-0.5a0.086,0.086,0,0,1-.025.05,0.9,0.9,0,0,1,.025.175H29.459l-0.025-.226H28.956a0.722,0.722,0,0,0-.025.226H28.579V29.749h-0.5V29.8a0.33,0.33,0,0,0-.025.175H27.7V29.749H27.22a0.719,0.719,0,0,0-.025.226H26.843a0.435,0.435,0,0,1,0-.226h-0.5a0.719,0.719,0,0,0-.025.226H25.962V29.749h-0.5V29.8a0.33,0.33,0,0,0-.025.175H25.082V29.749H24.6a0.722,0.722,0,0,0-.025.226H24.226V29.749h-0.5V29.8a0.33,0.33,0,0,0-.025.175H23.346V29.749H22.868a0.719,0.719,0,0,0-.025.226H22.491V29.749h-0.5a0.719,0.719,0,0,0-.025.226H21.61V29.749h-0.5V29.8a0.33,0.33,0,0,0-.025.175H20.73V29.749H20.252a0.722,0.722,0,0,0-.025.226H19.874V29.749h-0.5V29.8a0.33,0.33,0,0,0-.025.175H18.994V29.749H18.516a0.719,0.719,0,0,0-.025.226H18.138V29.749h-0.5a0.719,0.719,0,0,0-.025.226H17.258V29.749h-0.5V29.8a0.33,0.33,0,0,0-.025.175H16.377V29.749H15.9a0.722,0.722,0,0,0-.025.226H15.522V29.749h-0.5V29.8a0.33,0.33,0,0,0-.025.175H14.642V29.749H14.164a0.455,0.455,0,0,0-.025.15,0.127,0.127,0,0,0-.025.075H13.761a0.685,0.685,0,0,1,.025-0.226h-0.5a0.719,0.719,0,0,0-.025.226H12.906V29.749H12.4V29.8a0.33,0.33,0,0,0-.025.175H12.025V29.749H11.547a0.457,0.457,0,0,0-.025.15,0.127,0.127,0,0,0-.025.075H11.145l0.025-.226h-0.5V29.8a0.33,0.33,0,0,0-.025.175,1.3,1.3,0,0,1-.377-0.025,0.626,0.626,0,0,0,.025-0.2l-0.5-.05a0.738,0.738,0,0,1-.075.2,0.732,0.732,0,0,1-.327-0.15,0.111,0.111,0,0,0,0-.176,0.915,0.915,0,0,0-.4-0.15,0.651,0.651,0,0,1-.126.175c-0.114-.082-0.256-0.041-0.277-0.226,0.028-.037.052-0.076,0.025-0.1a0.838,0.838,0,0,0-.453-0.15,0.26,0.26,0,0,0-.05.15,0.436,0.436,0,0,1-.352-0.15,0.11,0.11,0,0,0,0-.175,1.006,1.006,0,0,0-.428-0.15,0.159,0.159,0,0,1-.126.175,0.472,0.472,0,0,0-.252-0.1,0.7,0.7,0,0,1,.05-0.226,3.209,3.209,0,0,0-.478-0.15l-0.075.175-0.3-.125a0.09,0.09,0,0,1-.025-0.05,0.2,0.2,0,0,0,.05-0.15,0.913,0.913,0,0,0-.453-0.15c-0.044.047-.059,0.125-0.1,0.175-0.085-.074-0.237-0.079-0.327-0.15a0.381,0.381,0,0,0,.075-0.2C5.176,28,5.07,27.9,4.881,27.87a0.763,0.763,0,0,1-.075.175,0.455,0.455,0,0,1-.327-0.175,0.3,0.3,0,0,0,.075-0.15,2.694,2.694,0,0,0-.5-0.15,0.427,0.427,0,0,1-.075.175c-0.092-.068-0.244-0.074-0.327-0.15a0.671,0.671,0,0,0,.1-0.175L3.27,27.243l-0.1.175a0.593,0.593,0,0,1-.327-0.226,0.331,0.331,0,0,0,.1-0.15,2.158,2.158,0,0,0-.453-0.251,0.176,0.176,0,0,1-.126.125l-0.252-.276a0.5,0.5,0,0,0,.151-0.15,1.925,1.925,0,0,0-.352-0.376,0.138,0.138,0,0,1-.151.075c-0.034-.134-0.113-0.2-0.151-0.326a0.247,0.247,0,0,0,.176-0.125,3.456,3.456,0,0,1-.151-0.4,0.17,0.17,0,0,0-.1-0.025,0.17,0.17,0,0,1-.1.025V25.313H1.409c-0.005-.147-0.042-0.2-0.05-0.351a0.86,0.86,0,0,0,.2-0.025v-0.05a1.015,1.015,0,0,1,0-.451,0.86,0.86,0,0,1-.2-0.025V24.06a0.356,0.356,0,0,1,.1-0.025,0.218,0.218,0,0,0,.126.025V24.035H1.61c0.022-.178.107-0.27,0.126-0.451a0.251,0.251,0,0,1-.176-0.125,0.659,0.659,0,0,1,.176-0.3,0.265,0.265,0,0,0,.176.075l0.277-.4a1.735,1.735,0,0,1-.327-0.451c-0.11-.145-0.293-0.256-0.4-0.4a4.6,4.6,0,0,0-.5-0.6V21.353H0.981c0.224-.275.514-0.174,0.5-0.7a1.31,1.31,0,0,1-.05-0.526H1.358v-0.05a0.169,0.169,0,0,1-.025-0.1A0.109,0.109,0,0,0,1.409,19.9H1.258a3.967,3.967,0,0,1-1.182.05A0.453,0.453,0,0,0,0,19.85a3.311,3.311,0,0,1,.05-0.7A0.464,0.464,0,0,1,.2,19.123,2.852,2.852,0,0,0,1.358,19.1V19.023h-0.1v-0.15H1.333l-0.05-.852H1.509l0.025,0.251h0.05V18.246c0.019-.025.02-0.046,0.05-0.1-0.062-.032-0.017.011-0.05-0.05H1.761V18.12H1.736c-0.048.019,0.05,0.025,0.05,0.025a0.091,0.091,0,0,1,.05-0.025c-0.006.078-.05,0.089,0.075,0.1a0.17,0.17,0,0,1,.1-0.025c0.01,0.066-.019.033,0.05,0.05a0.441,0.441,0,0,0,.075-0.1c0.041-.039-0.026-0.026.025-0.05a0.182,0.182,0,0,1,.2-0.05V18.07H2.39a0.264,0.264,0,0,0-.025.1,0.982,0.982,0,0,0,.252-0.025c0.01,0.066-.019.033,0.05,0.05,0.022-.016.079-0.034,0.1-0.05a0.09,0.09,0,0,0,.025-0.05,0.352,0.352,0,0,1-.1.025V18.1H2.717l-0.025-.05H2.717a0.731,0.731,0,0,1,.2-0.05v0.05c-0.033.014-.019,0-0.025,0.025,0.039,0.056.089,0.068,0.025,0.1V18.2H2.893v0.025a0.086,0.086,0,0,1,.05.025,0.36,0.36,0,0,0,.075-0.075c0.067-.033.146,0.008,0.2-0.025l0.025-.075,0.2,0.025a0.109,0.109,0,0,1,.05-0.05c0.01,0.063-.015.04,0.075,0.05A0.218,0.218,0,0,1,3.7,18.07c0.01,0.066-.019.033,0.05,0.05,0.023-.061.027-0.04,0.05-0.1,0.041-.039-0.026-0.026.025-0.05a0.368,0.368,0,0,1,.2-0.05v0.025H4.05A0.555,0.555,0,0,1,4,18.07H4.151V18.02H4.176V18c-0.082-.021-0.038.012-0.075-0.05H4.126a0.17,0.17,0,0,0,.1.025,0.09,0.09,0,0,0,.1.1c0.019-.017.056-0.033,0.075-0.05a0.09,0.09,0,0,0,.025-0.05L4.352,18a0.2,0.2,0,0,0,0-.1h0.1v-0.1a0.693,0.693,0,0,0,.226-0.025v0.05a0.128,0.128,0,0,1,.025.075L4.83,17.92v0.025H4.7v0.1H4.83a0.423,0.423,0,0,1,.151-0.125V17.895c-0.082-.021-0.038.012-0.075-0.05h0.2a0.091,0.091,0,0,0,.05.025c-0.006.078-.05,0.089,0.075,0.1a0.218,0.218,0,0,1,.126-0.025c0.01,0.066-.019.033,0.05,0.05a0.489,0.489,0,0,1,.1-0.05c-0.048-.06-0.027-0.041-0.075-0.1l0.252-.05c0,0.09-.037.052,0.05,0.075,0.068-.123.191,0.062,0.252,0.075V17.92H6.013c0.008-.148,0-0.159.2-0.15V17.744H6.239c0,0.115-.035.13,0.075,0.15a0.392,0.392,0,0,0,.025-0.125H6.516c-0.009.074-.05,0.052,0.025,0.1a0.223,0.223,0,0,1,.075-0.075,0.21,0.21,0,0,1-.05-0.075,0.94,0.94,0,0,0,.553-0.15V17.544a0.308,0.308,0,0,1-.126-0.226,5.17,5.17,0,0,1,.654-0.276,1.187,1.187,0,0,1,.2-0.125,2.138,2.138,0,0,1,.126.2H8V17.093a0.444,0.444,0,0,1,.1-0.075,0.226,0.226,0,0,0,.3,0,0.228,0.228,0,0,1,.176-0.125,0.271,0.271,0,0,0,.3.075v-0.05a0.128,0.128,0,0,1-.025-0.075,0.333,0.333,0,0,1,.2-0.05,1.667,1.667,0,0,1,.805-0.05,0.188,0.188,0,0,1,.1-0.1,0.83,0.83,0,0,0,.7-0.025c0.113-.03.2,0.048,0.3,0.025l0.327-.025c0.114-.041.34,0,0.5-0.05,0.017-.006.065-0.072,0.075-0.075,0.093-.031.178,0.058,0.327,0.025,0.314-.07.658-0.04,1.031-0.125a2.149,2.149,0,0,0,.377-0.05c0.04-.017.068-0.108,0.1-0.125,0.017-.009.352-0.075,0.352-0.075a0.787,0.787,0,0,0,.3.075c0.406-.088.974-0.092,1.258-0.175a0.723,0.723,0,0,0,.176.1,0.35,0.35,0,0,1,0-.175l0.3-.05V15.89a0.183,0.183,0,0,1-.2-0.05,1.806,1.806,0,0,0,.126-0.451,5.163,5.163,0,0,0,.252-0.877h-0.05a0.348,0.348,0,0,1-.327-0.025,1.9,1.9,0,0,1-.377-0.351,0.276,0.276,0,0,1,.05-0.125,4.565,4.565,0,0,1,.956-0.3,6.513,6.513,0,0,1,.377-1.328,0.787,0.787,0,0,1,.126-0.4h0.931c0.031-.084.05-0.087,0.151-0.1a0.232,0.232,0,0,0,.277.1,0.419,0.419,0,0,0,.075-0.2,0.855,0.855,0,0,0,.1-0.426,0.146,0.146,0,0,1-.05-0.125,0.723,0.723,0,0,0,.076-0.326,0.578,0.578,0,0,1-.126-0.2,0.306,0.306,0,0,0,.1-0.1H18.491a1.693,1.693,0,0,1,.1-0.4,2.322,2.322,0,0,1,.352-0.2,1.6,1.6,0,0,0,.931.1,2.838,2.838,0,0,0,.6,0l0.025-.05c0.065-.015.049,0.041,0.076,0.05h0.5a11.835,11.835,0,0,1,1.61,0,3.238,3.238,0,0,0,.629,0h0.755c0.041-.021.071-0.129,0.126-0.075a0.6,0.6,0,0,1,.478.576,0.121,0.121,0,0,0-.075.025h0.025a0.182,0.182,0,0,1,.075.175,0.844,0.844,0,0,0-.126.1,0.979,0.979,0,0,0,.075.3,1.542,1.542,0,0,0,.1.752,2.82,2.82,0,0,0,.377.1,3.274,3.274,0,0,0,.6.3c0.07,0.011.2-.065,0.327-0.075a0.976,0.976,0,0,0,.05.15A0.267,0.267,0,0,1,26.239,12.556ZM5.912,17.769h0.05v0.025A0.086,0.086,0,0,1,5.912,17.769Zm-0.679.05a0.261,0.261,0,0,1,.176.05H5.384a0.091,0.091,0,0,1-.05.025A0.68,0.68,0,0,0,5.233,17.82Zm-1.006.075h0.05V17.92A0.086,0.086,0,0,1,4.226,17.895Zm-0.679.05,0.2,0.025V18H3.723a0.17,0.17,0,0,1-.1.025A0.888,0.888,0,0,0,3.547,17.945Zm-0.3.025L3.5,18V18.02H3.421C3.349,17.983,3.3,18.053,3.245,17.97Zm-0.73.05a0.122,0.122,0,0,1,.075.025A0.122,0.122,0,0,1,2.516,18.02Zm0.478,0L3.17,18.045V18.07H3.145c-0.01.066,0.019,0.033-.05,0.05C3.1,18.046,3.053,18.089,2.994,18.02Zm-1.107.05h0.05V18.1A0.086,0.086,0,0,1,1.887,18.07ZM1.937,18.1H2.088V18.12H2.063a0.219,0.219,0,0,1-.126.025V18.1Zm0.528,0h0.05V18.12A0.086,0.086,0,0,1,2.465,18.1Z" transform="translate(0 0.016)"/>
</svg>
