<svg xmlns="http://www.w3.org/2000/svg" width="39.969" height="40" viewBox="0 0 39.969 40">
  <defs>
    <style>
      .cls-1 {
        fill: #fff;
        fill-rule: evenodd;
      }
    </style>
  </defs>
  <path id="cn_type_63_i_ico" class="cls-1" d="M19.339,19.985h0.147V20.7H19.368v0.059a0.309,0.309,0,0,0,.147.06,0.837,0.837,0,0,1,.47-0.06,0.263,0.263,0,0,0,.088.089,0.647,0.647,0,0,0-.029.209h0.147a0.254,0.254,0,0,0,.088-0.209c-0.136-.09.012-0.11,0-0.209-0.274-.377.151-0.677,0.647-0.655a3.3,3.3,0,0,1,.029.864,2.381,2.381,0,0,0-.558.328v0.03h2.057a1.188,1.188,0,0,0,.588.149c0.031-.012-0.01-0.072.088-0.06,0.171,0.022.362,0.124,0.559,0.149a0.111,0.111,0,0,1,.117-0.089c0.073,0.047.28,0.1,0.412,0.179a2.517,2.517,0,0,0,.235.179l0.294,0.059c0.063,0.029.112,0.124,0.176,0.149a8.041,8.041,0,0,0,1.234.179c0.174,0.388.183,0.337,0.764,0.328a1.659,1.659,0,0,0,.617.03l1.47,0.03a7.5,7.5,0,0,0,.97.03c0.316,0.018.726,0.03,1.087,0.03H34.8V22.457c0.684,0,1.447-.03,2.175-0.03h0.852a1.44,1.44,0,0,0,.118.119l0.5-.03a8.768,8.768,0,0,0,1.558.03v0.685a8.62,8.62,0,0,0-1.558.03,2.137,2.137,0,0,0-.529,0,1.275,1.275,0,0,1-.118.119H35.445a2.114,2.114,0,0,1-.206.06l-0.029-.06-0.412-.03V23.231c-2.91-.007-5.719.071-8.494,0.149-0.157.588-.693,0.374-1.293,0.357a0.672,0.672,0,0,0,.029.447H24.629v0.03h0.029a1.287,1.287,0,0,0,.735-0.03,2.728,2.728,0,0,1,.735.03c0.275-.481.838-0.447,1.587-0.447l0.588-.03a2.251,2.251,0,0,0,.941.179v0.328a1.978,1.978,0,0,1,.529.238,1.731,1.731,0,0,1,.264.03,0.513,0.513,0,0,0,.323.238,3.082,3.082,0,0,0,.882.119c0.037-.114.06-0.117,0.206-0.119V24.661a0.577,0.577,0,0,0,.235-0.655c0.185,0,.859-0.141.911-0.119l0.029,0.089,0.5-.03v0.089H32.976V24.1a0.153,0.153,0,0,1,.029.089,0.188,0.188,0,0,1,.118.03H33.005a2.217,2.217,0,0,0,.088.893,1.656,1.656,0,0,0,.588.089l0.029-.059H33.681a1.541,1.541,0,0,0-.441-0.089,0.383,0.383,0,0,0-.029-0.119h0.147c0.337,0.21,1.367.074,1.675,0.3a0.262,0.262,0,0,1,.029.149,0.588,0.588,0,0,0-.265.328c0.029,0.05,0,.068.029,0.119a0.138,0.138,0,0,0,.147.059,0.221,0.221,0,0,1,.117-0.119v0.06a0.771,0.771,0,0,1-.088.536,0.814,0.814,0,0,1-.647.089,1.2,1.2,0,0,0-.323.328c-0.057-.028-0.12-0.1-0.147-0.06a2.629,2.629,0,0,0-.588.715,3.646,3.646,0,0,1,.059,1.608,3.975,3.975,0,0,0-.117-1.549H33.211v0.03a3.627,3.627,0,0,0-.735.834c-0.129.172-.342,0.3-0.47,0.477a2.1,2.1,0,0,1-.441.506,0.529,0.529,0,0,1,.029.179,0.228,0.228,0,0,1,.147.119,0.264,0.264,0,0,0-.029.149l0.088,0.06a0.3,0.3,0,0,1-.059.149l0.088,0.03v0.059c-0.123.08,0.027,0.091-.029,0.238l-0.088.06,0.029,0.179c-0.038.088-.068-0.02-0.088,0.179-0.1.025-.045-0.015-0.088,0.06,0.021,0.046,0,0,0,.089a0.3,0.3,0,0,0-.235.268,0.372,0.372,0,0,1-.118-0.03v0.089a0.6,0.6,0,0,0-.176,0c-0.029.238-.107,0.024-0.235,0.119a0.487,0.487,0,0,1-.088.119l-0.088-.03-0.029.089c-0.064.031-.026-0.1-0.088-0.03a1.227,1.227,0,0,1-.382.208,0.18,0.18,0,0,1-.029.03c-0.082-.063-0.561.292-0.764,0.268v0.089a5.981,5.981,0,0,1-.588.179v0.089a1.331,1.331,0,0,0-.206,0c-0.141.056,0,.178-0.206,0.089v0.089a3.1,3.1,0,0,1-.588.179v0.089l-0.147-.03v0.089a0.62,0.62,0,0,1-.265,0,0.806,0.806,0,0,1-.147.089,11.6,11.6,0,0,0-1.734,0,5.429,5.429,0,0,1-.617-0.03c-0.422.038-.845-0.033-1.205,0a2.208,2.208,0,0,1-.558.03,4.169,4.169,0,0,0-.676,0,2.847,2.847,0,0,1-.911-0.03c-0.229-.033-0.528.08-0.852,0.03-0.238-.037-0.631.012-0.911,0a5.9,5.9,0,0,0-.97,0c-0.428.075-.849-0.083-1.234-0.03-0.832.116-1.925,0-2.821,0.03a8.1,8.1,0,0,0-.823,0,5.427,5.427,0,0,1-.617-0.03,12.41,12.41,0,0,1-1.558,0c-0.462-.012-1.122.018-1.617,0.03a8.936,8.936,0,0,0-1.087,0,3.608,3.608,0,0,1-1.146-.03c-0.195-.032-0.392.049-0.588,0.03a9.894,9.894,0,0,0-1.5,0c-0.024-.1.014-0.045-0.059-0.089a0.369,0.369,0,0,1-.323,0l-0.029-.089-0.176.03A0.3,0.3,0,0,1,5.114,32.7l-0.088.03L5,32.643l-0.147.03a0.454,0.454,0,0,1-.088-0.119,0.611,0.611,0,0,0-.265,0,0.145,0.145,0,0,0-.029-0.089c-0.112.048-.042-0.022-0.118-0.059l-0.088.059c-0.064-.025-0.119-0.128-0.176-0.149a0.352,0.352,0,0,1-.176.03L3.88,32.255a0.183,0.183,0,0,1-.118.03,2.257,2.257,0,0,0-.852-0.3V31.9H2.645c-0.024-.1.014-0.046-0.059-0.089a0.538,0.538,0,0,1-.353-0.149,0.269,0.269,0,0,1-.206.06,2.465,2.465,0,0,0-.206-0.179c-0.114.017-.072-0.087-0.176-0.119-0.058-.018-0.209.044-0.294,0.03a0.772,0.772,0,0,0-.118-0.357,0.529,0.529,0,0,1-.323-0.328A0.557,0.557,0,0,0,.94,30.29c-0.119-.015-0.12-0.006-0.147-0.119-0.021-.046,0,0,0-0.089A0.32,0.32,0,0,0,1,29.843H0.97a2.384,2.384,0,0,1-.764-0.655H0.794V28.831A0.955,0.955,0,0,1,.47,28.384a0.893,0.893,0,0,1-.235-0.089V28.086a0.187,0.187,0,0,0,.176-0.208A0.82,0.82,0,0,0,.441,27.52a0.9,0.9,0,0,0-.206,0c-0.31.357,0.036,1.219-.147,1.519a4.139,4.139,0,0,1-.029-1.191,1.048,1.048,0,0,0,.059-0.387,0.442,0.442,0,0,0,.294-0.238,0.26,0.26,0,0,0,.029-0.149,0.61,0.61,0,0,1-.294-0.03H0.206A0.448,0.448,0,0,1,.47,26.984V26.239A0.662,0.662,0,0,1,.147,26.12H0.47a0.936,0.936,0,0,1-.059-0.238H0.47a0.833,0.833,0,0,0,.059-0.387A0.971,0.971,0,0,1,.411,24.75l0.206-.06C0.583,24.657.534,24.636,0.5,24.6a0.592,0.592,0,0,1,.294.059A0.244,0.244,0,0,1,.97,24.542,0.318,0.318,0,0,1,1,24.363a1.4,1.4,0,0,0,.852.149A1.027,1.027,0,0,0,2,24.393l1.029-.06c0.36-.082.782,0,1.176-0.089a1.763,1.763,0,0,1,.705-0.06c0.022,0.007.1,0.085,0.118,0.089a1.4,1.4,0,0,0,.529-0.119,0.56,0.56,0,0,1,.235.06v-0.03H5.819a0.318,0.318,0,0,1,.029-0.179,1.583,1.583,0,0,1,.617-0.03,5.4,5.4,0,0,0,1.146-.059l0.029-.149a0.767,0.767,0,0,0,.441,0c0.032-.022.053-0.131,0.088-0.149h3.262a4.448,4.448,0,0,0,1.234-.06,1.264,1.264,0,0,1-.147-0.089,3.215,3.215,0,0,1-.47-0.059,1.63,1.63,0,0,1-.265-0.357,1.42,1.42,0,0,1,.794-1.579c0.12-.049.335,0.034,0.47-0.03s-0.023-.124.264-0.149a0.379,0.379,0,0,1-.029.119l-0.088-.03v0.03h0.029c0.056,0.023-.059.03-0.059,0.03v-0.03H13.137v0.03a0.109,0.109,0,0,1,.029.06,1.2,1.2,0,0,1,.264.06,4.127,4.127,0,0,0,.676-0.119,2.2,2.2,0,0,0,.176-0.328h0.059c0,0.118,0,.093.176,0.089a0.449,0.449,0,0,1,.059-0.268,0.9,0.9,0,0,1,.97-0.238V20.64a0.352,0.352,0,0,1-.059-0.149,0.4,0.4,0,0,1,.294-0.089,0.419,0.419,0,0,1,.059-0.209,0.2,0.2,0,0,1,.118-0.03,0.552,0.552,0,0,1,.029.179,0.108,0.108,0,0,0-.029.06,2.371,2.371,0,0,0,.823.119,1.285,1.285,0,0,0,.206-0.149,1.914,1.914,0,0,1,.823-0.209V20.045H17.9a3.612,3.612,0,0,0,.029.477h0.617a1.563,1.563,0,0,0,.617-0.417,0.2,0.2,0,0,0,.029-0.119h0.117v-12A2.83,2.83,0,0,1,19.339,7V19.985Zm-7.054,1.459a0.109,0.109,0,0,1,.029.06H12.285v-0.06Zm0.117,0a0.108,0.108,0,0,1,.029.06H12.4v-0.06Z" transform="translate(-0.031 0.016)"/>
</svg>
