<?xml version="1.0" encoding="utf-8"?>
<!-- Generator: Adobe Illustrator 16.0.0, SVG Export Plug-In . SVG Version: 6.00 Build 0)  -->
<!DOCTYPE svg PUBLIC "-//W3C//DTD SVG 1.1//EN" "http://www.w3.org/Graphics/SVG/1.1/DTD/svg11.dtd">
<svg version="1.1" id="Layer_1" xmlns="http://www.w3.org/2000/svg" xmlns:xlink="http://www.w3.org/1999/xlink" x="0px" y="0px"
	 width="39.969px" height="40px" viewBox="0 0 39.969 40" enable-background="new 0 0 39.969 40" xml:space="preserve">
<path id="cn_type_63_i_ico" fill="#FFFFFF" d="M19.308,12.985h0.147V13.7h-0.118v0.06c0.043,0.032,0.094,0.053,0.147,0.06
	c0.148-0.065,0.311-0.085,0.47-0.06c0.021,0.036,0.052,0.066,0.088,0.088c-0.021,0.068-0.031,0.139-0.029,0.21h0.147
	c0.061-0.052,0.093-0.13,0.088-0.21c-0.136-0.09,0.012-0.109,0-0.209c-0.274-0.376,0.151-0.676,0.646-0.654
	c0.048,0.286,0.058,0.576,0.029,0.863c-0.199,0.084-0.388,0.194-0.558,0.328v0.031h2.057c0.181,0.1,0.382,0.15,0.588,0.148
	c0.031-0.012-0.01-0.072,0.089-0.061c0.17,0.022,0.361,0.125,0.559,0.149c0.011-0.055,0.061-0.093,0.117-0.089
	c0.072,0.047,0.279,0.1,0.412,0.179c0.074,0.064,0.152,0.124,0.234,0.179l0.294,0.06c0.063,0.028,0.112,0.124,0.177,0.149
	c0.405,0.091,0.818,0.15,1.233,0.179c0.174,0.388,0.183,0.337,0.765,0.327c0.201,0.049,0.41,0.06,0.616,0.031l1.47,0.029
	c0.322,0.031,0.646,0.041,0.971,0.03c0.316,0.018,0.726,0.03,1.087,0.03h3.735v-0.092c0.684,0,1.446-0.029,2.174-0.029h0.853
	c0.037,0.041,0.077,0.081,0.118,0.119l0.5-0.03c0.518,0.056,1.039,0.065,1.559,0.03v0.685c-0.52-0.037-1.041-0.027-1.559,0.03
	c-0.176-0.022-0.354-0.022-0.529,0c-0.037,0.042-0.076,0.082-0.117,0.119h-2.354c-0.068,0.023-0.137,0.043-0.206,0.06l-0.028-0.06
	l-0.412-0.03v-0.119c-2.91-0.007-5.72,0.071-8.494,0.149c-0.157,0.588-0.693,0.373-1.293,0.356
	c-0.042,0.147-0.032,0.306,0.028,0.447h-0.411v0.03h0.029c0.242,0.061,0.498,0.051,0.734-0.03c0.246-0.023,0.493-0.013,0.736,0.03
	c0.274-0.481,0.838-0.447,1.586-0.447l0.588-0.03c0.298,0.126,0.619,0.188,0.941,0.179v0.328c0.188,0.053,0.365,0.133,0.529,0.238
	c0.088,0.003,0.177,0.014,0.264,0.029c0.07,0.121,0.188,0.207,0.323,0.238c0.286,0.082,0.583,0.123,0.882,0.119
	c0.037-0.113,0.061-0.117,0.206-0.119v-0.089c0.216-0.142,0.312-0.408,0.235-0.655c0.185,0,0.858-0.141,0.91-0.119l0.029,0.09
	l0.5-0.03v0.089h-0.146V17.1c0.019,0.026,0.028,0.057,0.029,0.089c0.041-0.004,0.082,0.008,0.117,0.029h-0.117
	c-0.032,0.301-0.002,0.605,0.088,0.894c0.188,0.065,0.388,0.095,0.588,0.089l0.029-0.059H33.65c-0.143-0.051-0.291-0.081-0.441-0.09
	c-0.004-0.041-0.014-0.08-0.029-0.118h0.147c0.337,0.21,1.366,0.073,1.675,0.3c0.024,0.046,0.034,0.098,0.029,0.148
	c-0.126,0.073-0.221,0.19-0.266,0.328c0.029,0.051,0,0.068,0.029,0.119c0.031,0.049,0.09,0.072,0.146,0.059
	c0.022-0.053,0.064-0.096,0.117-0.118v0.06c0.037,0.184,0.006,0.374-0.088,0.536c-0.193,0.118-0.428,0.151-0.646,0.089
	c-0.128,0.088-0.238,0.199-0.323,0.328c-0.058-0.027-0.12-0.1-0.147-0.061c-0.236,0.202-0.436,0.444-0.588,0.716
	c0.14,0.525,0.16,1.074,0.06,1.609c0.063-0.52,0.023-1.047-0.117-1.549H33.18v0.03c-0.286,0.238-0.534,0.52-0.734,0.834
	c-0.129,0.172-0.342,0.299-0.471,0.477c-0.119,0.191-0.268,0.361-0.44,0.506c0.02,0.059,0.029,0.119,0.028,0.18
	c0.064,0.016,0.118,0.061,0.147,0.119c-0.024,0.045-0.034,0.098-0.028,0.148l0.088,0.061c-0.006,0.053-0.027,0.105-0.06,0.148
	l0.088,0.029v0.061c-0.123,0.08,0.027,0.09-0.028,0.236l-0.088,0.061l0.028,0.18c-0.038,0.088-0.067-0.02-0.088,0.178
	c-0.101,0.025-0.045-0.014-0.088,0.061c0.021,0.047,0,0,0,0.09c-0.129,0.027-0.224,0.137-0.235,0.268
	c-0.041-0.004-0.08-0.014-0.117-0.029v0.088c-0.059-0.008-0.118-0.008-0.177,0c-0.028,0.238-0.106,0.023-0.235,0.119
	c-0.022,0.045-0.053,0.084-0.088,0.119l-0.088-0.029l-0.029,0.088c-0.063,0.031-0.025-0.1-0.088-0.029
	c-0.113,0.092-0.242,0.162-0.381,0.207c-0.01,0.012-0.02,0.021-0.029,0.031c-0.082-0.063-0.562,0.291-0.765,0.268v0.09
	c-0.192,0.068-0.389,0.129-0.588,0.178v0.09c-0.068-0.006-0.138-0.006-0.206,0c-0.141,0.055,0,0.178-0.206,0.088v0.09
	c-0.189,0.078-0.386,0.139-0.588,0.18v0.088l-0.147-0.029v0.088c-0.087,0.02-0.178,0.02-0.265,0
	c-0.046,0.035-0.095,0.064-0.147,0.09c-0.576-0.043-1.156-0.043-1.733,0c-0.206,0.002-0.412-0.008-0.616-0.029
	c-0.423,0.037-0.846-0.033-1.205,0c-0.185,0.033-0.372,0.043-0.559,0.029c-0.225-0.018-0.451-0.018-0.676,0
	c-0.304,0.039-0.611,0.029-0.911-0.029c-0.229-0.033-0.528,0.078-0.853,0.029c-0.238-0.037-0.63,0.012-0.911,0
	c-0.323-0.027-0.647-0.027-0.97,0c-0.428,0.074-0.849-0.084-1.234-0.029c-0.832,0.115-1.925,0-2.821,0.029
	c-0.274-0.014-0.549-0.014-0.823,0c-0.206,0.002-0.412-0.008-0.617-0.029c-0.519,0.031-1.039,0.031-1.558,0
	c-0.462-0.014-1.122,0.018-1.617,0.029c-0.362-0.021-0.725-0.021-1.087,0c-0.381,0.051-0.768,0.041-1.146-0.029
	c-0.195-0.033-0.392,0.049-0.588,0.029c-0.5-0.039-1-0.039-1.5,0c-0.024-0.1,0.014-0.045-0.059-0.09
	c-0.102,0.051-0.221,0.051-0.323,0l-0.029-0.088l-0.176,0.029c-0.026-0.027-0.046-0.061-0.06-0.098L4.995,25.73l-0.026-0.088
	l-0.147,0.031c-0.036-0.035-0.065-0.076-0.088-0.119c-0.087-0.02-0.178-0.02-0.265,0c0-0.033-0.01-0.064-0.029-0.09
	c-0.112,0.049-0.042-0.021-0.118-0.059l-0.088,0.059c-0.064-0.025-0.119-0.127-0.176-0.148c-0.055,0.025-0.116,0.035-0.176,0.029
	l-0.033-0.09c-0.035,0.021-0.077,0.033-0.118,0.029c-0.261-0.156-0.551-0.258-0.852-0.301V24.9H2.614
	c-0.024-0.1,0.014-0.047-0.059-0.09c-0.132-0.004-0.258-0.057-0.353-0.148c-0.058,0.047-0.132,0.07-0.206,0.061
	c-0.065-0.064-0.134-0.123-0.206-0.18c-0.114,0.018-0.072-0.086-0.176-0.119c-0.058-0.018-0.209,0.045-0.294,0.031
	c-0.009-0.127-0.05-0.25-0.118-0.357c-0.152-0.055-0.271-0.176-0.323-0.328c0.082-0.146,0.093-0.324,0.03-0.479
	c-0.119-0.016-0.12-0.008-0.147-0.119c-0.021-0.047,0,0,0-0.09c0.106-0.037,0.185-0.129,0.207-0.238h-0.03
	c-0.298-0.162-0.559-0.385-0.764-0.656h0.588v-0.355c-0.15-0.115-0.263-0.27-0.324-0.447c-0.082-0.02-0.161-0.049-0.235-0.09v-0.209
	c0.103-0.006,0.182-0.094,0.177-0.197c0-0.002,0-0.006-0.001-0.01c0.037-0.117,0.047-0.238,0.03-0.359
	c-0.068-0.008-0.138-0.008-0.206,0c-0.31,0.357,0.036,1.219-0.147,1.52c-0.067-0.393-0.077-0.795-0.029-1.191
	c0.044-0.123,0.064-0.256,0.059-0.387c0.129-0.031,0.237-0.118,0.294-0.238c0.024-0.045,0.035-0.097,0.029-0.148
	c-0.099,0.015-0.2,0.004-0.294-0.029h0.059c0.08-0.047,0.172-0.068,0.264-0.061v-0.745c-0.116-0.011-0.228-0.052-0.323-0.119h0.323
	c-0.03-0.076-0.05-0.156-0.059-0.237h0.059c0.05-0.123,0.07-0.256,0.059-0.388C0.36,18.273,0.317,18.003,0.38,17.75l0.206-0.06
	c-0.034-0.033-0.083-0.054-0.117-0.09c0.102-0.006,0.203,0.015,0.294,0.059c0.038-0.063,0.103-0.106,0.176-0.116
	c-0.007-0.063,0.003-0.124,0.03-0.18c0.261,0.139,0.56,0.19,0.852,0.148c0.053-0.034,0.103-0.074,0.148-0.118l1.029-0.06
	c0.36-0.082,0.782,0,1.176-0.09c0.229-0.067,0.469-0.088,0.705-0.06c0.022,0.007,0.1,0.085,0.118,0.089
	c0.182-0.005,0.362-0.045,0.529-0.119c0.082,0.002,0.162,0.023,0.235,0.061v-0.03h0.027C5.78,17.123,5.79,17.06,5.817,17.005
	c0.202-0.051,0.412-0.061,0.617-0.03c0.383,0.021,0.767,0.001,1.146-0.06l0.029-0.148c0.144,0.043,0.297,0.043,0.441,0
	c0.032-0.022,0.053-0.131,0.088-0.149H11.4c0.412,0.038,0.828,0.018,1.234-0.06c-0.051-0.026-0.1-0.057-0.147-0.09
	c-0.158-0.008-0.315-0.027-0.47-0.059c-0.104-0.105-0.193-0.227-0.265-0.357c-0.135-0.646,0.194-1.301,0.794-1.578
	c0.12-0.049,0.335,0.033,0.47-0.03c0.135-0.063-0.023-0.124,0.264-0.149c-0.003,0.041-0.013,0.082-0.029,0.119l-0.088-0.029v0.029
	h0.029c0.056,0.023-0.059,0.03-0.059,0.03v-0.03h-0.027v0.03c0.016,0.017,0.026,0.038,0.029,0.06c0.09,0.01,0.179,0.031,0.264,0.061
	c0.229-0.021,0.455-0.061,0.676-0.119c0.067-0.104,0.126-0.214,0.176-0.328h0.059c0,0.118,0,0.094,0.176,0.09
	c-0.009-0.094,0.012-0.188,0.059-0.269c0.246-0.269,0.628-0.362,0.97-0.238v-0.06c-0.031-0.045-0.051-0.096-0.059-0.149
	c0.082-0.067,0.188-0.1,0.294-0.089c0.001-0.074,0.021-0.146,0.059-0.209c0.035-0.022,0.077-0.033,0.118-0.03
	c0.02,0.058,0.029,0.118,0.029,0.179c-0.016,0.017-0.026,0.038-0.029,0.06c0.266,0.088,0.544,0.128,0.823,0.119
	c0.073-0.043,0.143-0.093,0.206-0.149c0.255-0.13,0.537-0.202,0.823-0.209v-0.118h0.09c-0.001,0.16,0.009,0.319,0.029,0.477h0.617
	c0.236-0.087,0.448-0.23,0.617-0.417c0.022-0.036,0.032-0.077,0.029-0.119h0.117v-12C19.23,0.658,19.24,0.324,19.308,0V12.985z
	 M12.254,14.444c0.016,0.017,0.026,0.038,0.029,0.06h-0.029V14.444z M12.371,14.444c0.016,0.017,0.026,0.038,0.029,0.06h-0.031
	v-0.06H12.371z"/>
</svg>
