<svg xmlns="http://www.w3.org/2000/svg" width="40" height="40" viewBox="0 0 40 40">
  <defs>
    <style>
      .cls-1 {
        fill: #fff;
        fill-rule: evenodd;
      }
    </style>
  </defs>
  <path id="cn_t_34_1942_ico" class="cls-1" d="M23.949,12.994h0.115a0.292,0.292,0,0,1,.092.189,0.8,0.8,0,0,1-.046.237,0.318,0.318,0,0,0,.276.047c0.084,0.085.233,0.083,0.322,0.166L24.8,13.823h0.345a4.115,4.115,0,0,0,1.105,0,0.478,0.478,0,0,1,0,.142,0.116,0.116,0,0,0,.069.024,4.117,4.117,0,0,0,.438.142,2.372,2.372,0,0,0,.46.284h1.911c0.023,0.039.236,0.391,0.253,0.4H30.42a2.037,2.037,0,0,0,.737.024h1.911c2.272,0,4.615.026,6.885,0.024a2.663,2.663,0,0,1,.023.686,1.748,1.748,0,0,1-.484.024,1.964,1.964,0,0,0-.714-0.024H36.891l-7.024.071v0.047a1.755,1.755,0,0,1,.115,1.136H29.937a1.763,1.763,0,0,1-.737.047,7.641,7.641,0,0,0-1.773.095,2.57,2.57,0,0,1-.253.8v0.024H27.15V17.752a0.442,0.442,0,0,1-.161-0.284,0.88,0.88,0,0,0,.115-0.379H27.081a0.332,0.332,0,0,0-.184.26,0.5,0.5,0,0,1-.069.237,3.263,3.263,0,0,0-.092.852H25.653v0.047h1.428a5.4,5.4,0,0,1,.645.4,0.425,0.425,0,0,1,.345.095V18.864a0.767,0.767,0,0,1,0-.5,2.054,2.054,0,0,1,.576-0.45l0.345,0.024v0.828h0.046a0.757,0.757,0,0,1,.829.331l0.092,0.166h0.23a1.375,1.375,0,0,1,.438.213,0.884,0.884,0,0,0,.53.663l-0.184-.568H31V19.55a0.078,0.078,0,0,1,.046.024,0.7,0.7,0,0,1,.438.592H32.1a0.254,0.254,0,0,1,.046.118H33v0.047c0.047,0.114-.037.153-0.184,0.142a1.77,1.77,0,0,0-.668-0.024v0.26a0.078,0.078,0,0,0-.046.024,3.43,3.43,0,0,0-.875-0.047v0.047a1.372,1.372,0,0,1,.069.166,1.128,1.128,0,0,0,.461.284h2.51a1.97,1.97,0,0,1,1.8,1.775,2.287,2.287,0,0,0-.461.071c0.019,0.164.073,0.348,0.092,0.5a1.644,1.644,0,0,1-.184.734,2.938,2.938,0,0,1-1.5,1.278c-0.705.444-1.45,0.83-2.165,1.278a11.668,11.668,0,0,1-1.75.97c-0.245.1-.617,0.1-0.806,0.166h-1.98c-0.1,0-.319-0.054-0.345-0.047a8.611,8.611,0,0,1-2.3,0c-0.061-.009-0.043.039-0.069,0.047H19.16a9.132,9.132,0,0,0-1.336,0H14.462a7.319,7.319,0,0,0-1.128,0H11.4c-0.107,0-.219-0.058-0.276-0.047a7.753,7.753,0,0,1-2.188,0c-0.055-.009-0.094.045-0.184,0.047H7.093a14.381,14.381,0,0,1-1.773-.5c-0.326-.125-0.6-0.17-0.944-0.284-0.631-.212-1.325-0.459-1.934-0.686-0.14-.052-0.236-0.026-0.368-0.071A2.454,2.454,0,0,1,.645,25.4a3.949,3.949,0,0,1-.322-1.041c-0.06-.27.115-0.489,0.069-0.734a1.343,1.343,0,0,1-.023-0.568H0.438a1.336,1.336,0,0,0,.092.189H0.576a0.6,0.6,0,0,1,.161-0.26V22.959a1.173,1.173,0,0,1-.391-0.473,0.213,0.213,0,0,0,.092-0.071A1.915,1.915,0,0,1,0,21.894a2.759,2.759,0,0,0,.783-0.308l0.207-.071V20.9H0.23V17.917A1.091,1.091,0,0,1,.691,17.87a2.324,2.324,0,0,1,.783-0.024c0.524-.03,1.181,0,1.773,0V17.775H3.385V17.7H3.569v0.071H3.685V17.87a0.587,0.587,0,0,1,.345.047,1.266,1.266,0,0,1,.115.189c0.149,0.2.37,0.343,0.507,0.568H4.675V18.651c0.031-.046.089-0.136,0.138-0.213,0.067,0,.032.023,0.069,0a0.688,0.688,0,0,0,.046-0.118,3.024,3.024,0,0,0,1.059-.473,10.2,10.2,0,0,1,2.579-.189H9.119a0.567,0.567,0,0,1,.3-0.071,0.123,0.123,0,0,1,.023.071,0.286,0.286,0,0,0-.092.024V17.7H9.6V17.657a0.45,0.45,0,0,0,.023-0.213H9.442V17.278c1.48-.006,3.264-0.012,4.744,0v0.166H14a1.213,1.213,0,0,0,.023.26h2.257a0.2,0.2,0,0,0,.115.024l-0.023-.166h-1.75a0.4,0.4,0,0,1-.115-0.189,1.984,1.984,0,0,1,.23-0.947,3.29,3.29,0,0,1-.115-0.521l0.092-.047,0.023-.26a3.513,3.513,0,0,0,.276-0.9H14.945a0.257,0.257,0,0,1-.069-0.166,0.376,0.376,0,0,0,.161-0.095,0.847,0.847,0,0,1-.46-0.284c0.131,0,.588.06,0.6,0.047a1.6,1.6,0,0,0,.138-0.45,5.38,5.38,0,0,0,.276-0.876,0.815,0.815,0,0,1,.23.047v0.071a2.9,2.9,0,0,0-.184.639h0.046a0.9,0.9,0,0,1,.138-0.047c0.035-.019.082-0.1,0.115-0.118l0.253-.024,0.115-.166a1.28,1.28,0,0,0,.207-0.142,0.483,0.483,0,0,1,.092-0.142h0.115c0.124-.048.3-0.15,0.438-0.189a1.959,1.959,0,0,1,1.105.095c0.07,0.03.159,0.12,0.23,0.142a7.243,7.243,0,0,0,.875-0.047l0.023,0.284a0.291,0.291,0,0,1,.207.047,0.122,0.122,0,0,1,.023.071,0.123,0.123,0,0,0-.023.071h1.658l0.023-.118h0.069V12.97a0.066,0.066,0,0,0,.023-0.024,0.79,0.79,0,0,0,.276-0.095,0.512,0.512,0,0,0,.023.237c0.082,0.053.216,0.066,0.3,0.118-0.024.037-.107,0.1-0.069,0.118a0.126,0.126,0,0,0,.092.071,0.29,0.29,0,0,1,.322-0.26,0.416,0.416,0,0,1,.069.095,0.926,0.926,0,0,0-.207.095L22.2,13.4a1.213,1.213,0,0,0,.553.071l0.023-.071h0.23V13.3a0.4,0.4,0,0,1-.092-0.4,1.676,1.676,0,0,1,.253-0.828,0.627,0.627,0,0,1,.53-0.024,0.359,0.359,0,0,1,.115.308A2.231,2.231,0,0,1,23.949,12.994Z" transform="translate(0 -0.016)"/>
</svg>
