<?xml version="1.0" encoding="utf-8"?>
<!-- Generator: Adobe Illustrator 16.0.0, SVG Export Plug-In . SVG Version: 6.00 Build 0)  -->
<!DOCTYPE svg PUBLIC "-//W3C//DTD SVG 1.1//EN" "http://www.w3.org/Graphics/SVG/1.1/DTD/svg11.dtd">
<svg version="1.1" id="Layer_1" xmlns="http://www.w3.org/2000/svg" xmlns:xlink="http://www.w3.org/1999/xlink" x="0px" y="0px"
	 width="40px" height="40px" viewBox="0 0 40 40" enable-background="new 0 0 40 40" xml:space="preserve">
<path id="Color_Fill_1" fill="#FFFFFF" d="M6.1,14.647h0.148v0.288h0.1c0.037-0.362,0.146-0.477,0.148-0.769h0.146V13.59H6.1v-0.337
	c0.344-0.135,0.712-0.2,1.082-0.192l0.1,0.144c0.131,0.013,0.263,0.013,0.394,0c0.053,0.138,0.07,0.286,0.049,0.432
	c-0.114-0.013-0.23-0.013-0.344,0c-0.055,0.153-0.072,0.318-0.049,0.48c0.178,0.233,0.266,0.523,0.246,0.817h0.491
	c0.141-0.987,0.224-1.982,0.246-2.979c0.093-0.097,0.212-0.164,0.344-0.192v0.1c-0.111-0.019-0.053-0.044-0.148,0
	c0.246,0.2-0.27,2.359-0.148,3.075c0.622,0.063,1.249,0.063,1.87,0c0.134-0.076,0.124-0.043,0.148-0.24
	c0.032-0.042,0.049-0.092,0.049-0.144h-0.393c-0.023-0.094-0.075-0.178-0.148-0.24v-0.676c0.229,0.016,0.459,0.016,0.689,0h0.049
	V13.59c-0.357-0.222-0.487-0.68-0.3-1.057c0.027,0.026,0.063,0.043,0.1,0.048c-0.009-0.083,0.008-0.167,0.049-0.24
	c0.522,0.063,1.049,0.079,1.574,0.048c-0.04-0.19-0.04-0.387,0-0.577c0.079,0.029,0.162,0.045,0.246,0.048
	c-0.006,0.177-0.022,0.354-0.049,0.529c0.353,0.006,0.702,0.071,1.033,0.192h1.48c0,0.152-0.07,0.09,0.1,0.144
	c0.007-0.062,0.044-0.116,0.1-0.144c0,0.052,0.017,0.103,0.049,0.144c-0.019-0.191-0.1-0.194,0.049-0.288v0.288
	c0.458-0.056,0.92-0.056,1.378,0c-0.16,0.04-0.075-0.024-0.148,0.1c0.053-0.001,0.105,0.016,0.148,0.048
	c-0.455-0.08-0.918-0.096-1.378-0.048c-0.042,0.069-0.092,0.133-0.148,0.192c-0.111-0.038-0.228-0.054-0.344-0.048l-0.148,0.24
	c-0.363,0.176-1.205-0.006-1.525,0.192c0.17-0.053,0.356-0.015,0.492,0.1c-0.031,0.042-0.048,0.092-0.049,0.144h-0.3
	c0,0.052-0.017,0.103-0.049,0.144c-0.112-0.03-0.228-0.046-0.344-0.048c-0.125-0.07-0.056,0.01-0.1-0.144
	c-0.096,0.019-0.182,0.07-0.246,0.144v-0.1c0.041-0.073,0.058-0.157,0.049-0.24c0.07,0.006,0.14-0.011,0.2-0.048l-0.344,0.048
	c-0.004,0.135,0.03,0.269,0.1,0.384c-0.059,0.047-0.095,0.117-0.1,0.192c0.125,0.019,0.243,0.069,0.344,0.144h-0.2
	c0.077,0.229-0.004,0.482-0.2,0.625c0.053-0.001,0.105,0.016,0.148,0.048c-0.091,0.018-0.154,0.1-0.148,0.192H12.2v0.048
	c0.224,0.015,0.257-0.015,0.394,0v-0.147h0.148c0.06-0.265-0.005-0.047,0.2-0.192v-0.1c0.126-0.247,0.093-0.293,0.492-0.288v0.144
	h-0.347l-0.049,0.24h0.2c0.021-0.129,0.122-0.106,0.394-0.1c0.295,0.02,0.591,0.02,0.886,0c0.055-0.223,0.1-0.245,0.394-0.24
	c0.069,0.01,0.11,0,0.3,0l-0.049,0.432h0.2c0.01,0.067-0.04-0.019-0.049,0.048c-0.095,0.037,0.1,0.048,0.1,0.048l0.049-0.432
	c0.066,0.017,0.135,0.017,0.2,0c-0.037-0.042-0.062-0.054-0.1-0.1c0.12-0.119,0.205-0.268,0.246-0.432
	c0.191-0.059,0.392-0.075,0.59-0.048l-0.049,0.1h0.049v-0.041l0.1,0.048c0.042,0.131,0.091,0.259,0.148,0.384
	c0.213-0.121,0.447-0.202,0.689-0.24v0.384c-0.06,0.219-0.076,0.448-0.049,0.673c-0.053,0-0.105,0.016-0.148,0.048
	c0.3-0.029,0.363-0.089,0.492,0.144c0.083-0.082,0.12-0.2,0.2-0.288c0.356,0.164,0.74,0.261,1.132,0.288
	c-0.027,0.114-0.01,0.234,0.049,0.336h0.1c0.015-0.248,0.043-0.272,0.3-0.288c0.038,0.113,0.107,0.213,0.2,0.288
	c0.303,0.158,0.656,0.194,0.984,0.1v-0.146c0.279-0.023,0.561-0.007,0.836,0.048c-0.076,0.139-0.144,0.283-0.199,0.432
	c0.265,0.367,0.531,0.081,0.836,0.288c0.027,0.082,0.061,0.162,0.1,0.24l4.773,0.145c0.752,0.162,1.713,0.01,2.558,0.191h0.886
	c0.737,0.159,1.863-0.059,2.801,0.145h1.131c0.373,0.153,1.115-0.035,1.723,0.1c0.742,0.158,1.593-0.079,2.411,0.1
	c0.5,0.106,1.05,0.133,1.573,0.192v0.673c-1.018,0.059-2.038,0.025-3.049-0.1c-0.27-0.047-0.848,0.022-1.182-0.049
	c-0.508-0.043-1.016-0.059-1.525-0.047c-0.041,0.155,0.024,0.072-0.1,0.144c-0.113-0.03-0.231-0.03-0.344,0
	c-0.389-0.044-1.133-0.08-1.574-0.144h-1.154c-1.271-0.188-2.557-0.252-3.839-0.193l-5.166-0.191
	c-0.089,0.07-0.143,0.176-0.147,0.288H21.8v0.188h0.05c0.199-0.377,1.199-0.235,1.672-0.191v0.24
	c0.512-0.003,1.023,0.045,1.525,0.144h0.641c0.052,0.087,0.068,0.189,0.049,0.288c0.391,0.057,0.789,0.057,1.181,0
	c0.339,0.076,0.687,0.11,1.033,0.1c0.066-0.114,0.173-0.199,0.3-0.24v0.193h0.541c-0.1,0.364,0.244,0.413,0.492,0.576
	c0.455,0.23,0.807,0.625,0.984,1.105c-0.188,0.115-0.385,0.212-0.591,0.287c-0.063-0.178-0.184-0.33-0.344-0.432
	c-0.005,0.038-0.021,0.074-0.049,0.1c0.327,1.584-1.019,1.929-1.968,2.547c-0.527,0.438-1.11,0.806-1.732,1.094l-1.328,0.048H7.429
	c-0.641,0.063-1.288,0.028-1.919-0.101c-0.615-0.271-1.208-0.592-1.771-0.961c-0.526-0.219-1.036-0.477-1.525-0.769
	c-0.2-0.163-0.326-0.474-0.541-0.625c-0.081-0.022-0.166-0.022-0.246,0c-0.126-0.253-0.334-0.456-0.59-0.577v0.101
	c-0.036,0.058-0.053,0.124-0.049,0.192c0.081-0.019,0.165-0.019,0.246,0c0.027,0.026,0.044,0.062,0.049,0.1h-0.1
	c-0.125,0.055-0.268,0.055-0.394,0c-0.045-0.189-0.062-0.383-0.049-0.577c-0.037-0.058-0.054-0.124-0.049-0.192
	c0.213-0.096,0.362-0.297,0.394-0.529c-0.093-0.278-0.11-0.576-0.049-0.864l-0.688,0.055C0.065,19.119,0.014,19.001,0,18.875
	c0.108-0.391,0.142-0.797,0.1-1.2c0.076-0.01,0.146-0.045,0.2-0.1c0.184,0.013,0.365,0.046,0.541,0.1
	c-0.013-0.099,0.004-0.198,0.049-0.288c0.234,0.021,0.47-0.013,0.689-0.1h3.39v0.1c0.545,0.006,1.089-0.042,1.624-0.144l1.476,0.048
	c0.056,0.023-0.019,0.1,0.246,0.1c0.163,0.031,0.33,0.031,0.492,0l0.049-0.144l1.673,0.101v-0.059
	c-0.253-0.1-0.549-0.266-0.787-0.336H8.954C7.8,16.706,6.2,16.99,5.215,16.716c-0.339-0.022-0.672-0.104-0.984-0.24
	c0.104-0.392,0.122-0.801,0.049-1.2l1.23,0.1v-0.06c-0.041-0.025-0.075-0.059-0.1-0.1c0.149-0.242,0.203-0.531,0.15-0.81h0.2
	c0.047-0.34,0.114-0.677,0.2-1.009c0.14-0.612-0.028-1.3,0.1-1.874c0.156-0.7-0.045-1.469,0.1-2.114
	C6.125,8.943,6.155,8.474,6.248,8.016L6,12.916L6.1,14.647z M10.38,12.677c-0.019,0.13-0.001,0.263,0.049,0.384
	C10.448,12.931,10.431,12.798,10.38,12.677L10.38,12.677z M16.432,12.725c0.027,0.027,0.044,0.062,0.049,0.1h-0.048L16.432,12.725
	L16.432,12.725z M13.432,12.825c0.189,0.075,0.4,0.075,0.59,0H13.432z M14.613,12.825c0.09,0.062,0.21,0.062,0.3,0H14.613z
	 M13.432,13.065c0.027,0.026,0.063,0.043,0.1,0.048c-0.027-0.027-0.062-0.046-0.1-0.052V13.065z M10.532,13.257l0.049,0.144h0.049
	c-0.005-0.063-0.044-0.12-0.101-0.148L10.532,13.257z M11.713,13.401l0.148,0.336h0.1v-0.051c-0.06-0.064-0.09-0.172-0.148-0.24
	c-0.028-0.027-0.064-0.044-0.103-0.049L11.713,13.401z M14.862,14.458h-0.2l-0.049,0.192h0.2v-0.051h0.049v-0.145V14.458z
	 M11.812,14.65l-0.049,0.144h0.1c0-0.054-0.02-0.106-0.055-0.147L11.812,14.65z M14.764,14.698c0.027,0.026,0.062,0.043,0.1,0.048
	c-0.028-0.028-0.065-0.046-0.104-0.051L14.764,14.698z M19.385,15.516c-0.053-0.001-0.105,0.016-0.148,0.048
	c-0.036,0.057-0.053,0.125-0.049,0.192h0.049C19.312,15.694,19.363,15.61,19.385,15.516z M20.418,15.852
	c0.044,0.041,0.094,0.075,0.148,0.1v-0.1H20.418z M21.107,17.966c-0.039,0.033-0.11,0.063-0.148,0.101
	c0.191,0.061,0.398,0.061,0.59,0L21.107,17.966z M20.369,18.014c0.106,0.063,0.238,0.063,0.344,0H20.369z M21.648,18.113
	c0.027,0.027,0.063,0.044,0.1,0.049c-0.026-0.029-0.062-0.049-0.1-0.057V18.113z M28.389,21.236v0.101h0.1v-0.06h0.05v-0.049h-0.149
	V21.236z M28.189,21.285c-0.039,0.033-0.11,0.063-0.148,0.1c-0.031,0.055-0.046,0.118-0.041,0.182h0.1
	c0.112-0.144,0.246-0.127,0.092-0.289L28.189,21.285z M27.6,21.333c-0.025,0.054-0.06,0.103-0.101,0.144
	c0.004,0.039,0.021,0.074,0.049,0.101c0.08,0.077,0.19,0.113,0.3,0.1c0.033-0.093,0.049-0.189,0.049-0.288h-0.049v-0.063H27.6
	V21.333z M26.664,21.573c-0.076,0.079-0.129,0.179-0.148,0.288h0.049v-0.101c0.113-0.081,0.151-0.085,0.103-0.194L26.664,21.573z
	 M27.107,21.573c-0.189,0.132-0.355,0.295-0.492,0.481c-0.047,0.104-0.064,0.221-0.049,0.336h0.049
	c0.285-0.219,0.601-0.396,0.935-0.529v-0.101c-0.192-0.053-0.25-0.145-0.44-0.194L27.107,21.573z M14.954,21.957
	c0.03,0.497-0.148,0.984-0.492,1.345h1.968v-0.055c-0.381-0.315-0.552-0.817-0.443-1.3h-1.03L14.954,21.957z M11.215,22.102
	c0.014,0.441-0.145,0.873-0.443,1.199h1.378v-0.054c-0.35-0.275-0.535-0.71-0.492-1.153h-0.44L11.215,22.102z M19.235,22.102
	c0.037,0.455-0.146,0.9-0.492,1.199h1.577v-0.054c-0.339-0.28-0.508-0.718-0.443-1.153h-0.64L19.235,22.102z M23.122,22.102
	c0.019,0.442-0.142,0.875-0.442,1.199h1.082v-0.054c-0.356-0.271-0.543-0.709-0.492-1.153h-0.146L23.122,22.102z M4.722,22.438h-0.3
	v0.047h0.1c0.054,0.055,0.125,0.09,0.2,0.101V22.43V22.438z M7.922,22.537c-0.047,0.291-0.186,0.561-0.394,0.77h0.885v-0.06
	c-0.181-0.228-0.346-0.469-0.492-0.72L7.922,22.537z"/>
</svg>
