<svg xmlns="http://www.w3.org/2000/svg" width="39.906" height="40" viewBox="0 0 39.906 40">
  <defs>
    <style>
      .cls-1 {
        fill: #fff;
        fill-rule: evenodd;
      }
    </style>
  </defs>
  <path id="Color_Fill_1" data-name="Color Fill 1" class="cls-1" d="M5.844,11a0.821,0.821,0,0,1,0,.572V11Zm0.206,0.695a4.991,4.991,0,0,1,0,1.471V11.695Zm0.165,2.656H6.091V14.269a0.141,0.141,0,0,0,.082-0.041,0.141,0.141,0,0,1-.082-0.041,0.141,0.141,0,0,0,.082-0.041,0.141,0.141,0,0,1-.082-0.041,0.141,0.141,0,0,0,.082-0.041,0.141,0.141,0,0,1-.082-0.041H6.379a0.251,0.251,0,0,0,.082.082c-0.1.132,0.016,0.031-.082,0.163H6.5c-0.013,1.029-.119,2.389-0.165,3.474a0.179,0.179,0,0,1,.123.123,7.387,7.387,0,0,0,.946-0.041V17.5a1.026,1.026,0,0,0,.206-0.163,1.129,1.129,0,0,0,.412.123,0.72,0.72,0,0,0,.082.163,0.971,0.971,0,0,1,.041-0.45,2.641,2.641,0,0,1,.988-0.041,1.752,1.752,0,0,0,.7.041c0,0.275,0,.31,0,0.572H9.506v0.082H9.547a2.758,2.758,0,0,0,.988.041c0.569,0,1.106.154,1.646,0.163V17.5c0.571,0,1.175.026,1.687,0.041,0-.129-0.07-0.055.041-0.123a0.684,0.684,0,0,1,.494-0.041,0.318,0.318,0,0,0,.412.245,0.656,0.656,0,0,0,.329.041c0.043-.185.023-0.388,0.082-0.572h0.082c-0.008.095-.019,0.045,0.082,0.164a0.156,0.156,0,0,1,.082-0.123,0.2,0.2,0,0,0,.041.123,0.2,0.2,0,0,1,.041-0.123c0.034,0.133-.02.062,0.082,0.123V17.13h0.37a1.362,1.362,0,0,0,.041.613,0.548,0.548,0,0,0,.288.041,0.574,0.574,0,0,0,.041-0.163,0.209,0.209,0,0,1-.041-0.123H16.049V17.334H16.09a0.448,0.448,0,0,0,.247.041V16.762H16.132l-0.041-.123c0.1-.053.028,0.018,0.082-0.082a2.99,2.99,0,0,1-.37-0.94,0.536,0.536,0,0,1-.288-0.041c0.322-.007.336-0.046,0.658-0.041V15.373H16.3v0.163h0.165c0.022-.373-0.093-0.464-0.082-0.858a1.874,1.874,0,0,1,.535-0.041l0.041,0.123h0.123l0.041-.123h0.453c0.045,0.114.124,0.261,0.123,0.286-0.05.068-.074-0.016-0.082,0.2H17.572a1,1,0,0,1-.453.041A0.719,0.719,0,0,0,17.037,15a0.35,0.35,0,0,1-.37.2l0.041,0.327c0.134-.034.063,0.02,0.123-0.082a0.451,0.451,0,0,1-.123-0.082,1.781,1.781,0,0,1,1.193.163,0.279,0.279,0,0,1,.123-0.245v0.041h0.041a0.263,0.263,0,0,0-.082.2c0.685,0,1.544,0,2.346,0a0.2,0.2,0,0,1,.041-0.123,4.4,4.4,0,0,0,1.6.041v0.164c-0.48-.012-0.93,0-1.482,0a0.2,0.2,0,0,1-.041.123,6.893,6.893,0,0,1-.905.082c-0.081.03-.256,0.12-0.37,0.163l-0.041-.123a0.2,0.2,0,0,0,.123-0.041,3.518,3.518,0,0,0-1.194.041,1.167,1.167,0,0,1-.494.2v0.409H17.49a1.249,1.249,0,0,1-.535.041l-0.041-.409H16.831a1.927,1.927,0,0,0-.041.49,0.347,0.347,0,0,0-.206.041c0.161,0,.185-0.02.247,0.082-0.161,0-.185-0.02-0.247.082,0.134,0.034.063-.02,0.123,0.082H16.584c-0.005.34-.011,0.211,0.123,0.368a0.663,0.663,0,0,0-.082.531h0.041v0.041l0.37,0.041a0.444,0.444,0,0,0,.247-0.49,0.674,0.674,0,0,1,0-.409,0.857,0.857,0,0,1,.206-0.082,1.032,1.032,0,0,1,.864.123,3.2,3.2,0,0,0-.082.776,1.773,1.773,0,0,1,.535.245c0.016-.595.577-0.729,0.576-0.163a0.44,0.44,0,0,0-.041.245c0.289,0.006.628,0.106,0.864,0.123a0.845,0.845,0,0,1,.412-0.082c0.171,0.053.389,0.215,0.576,0.286l0.37,0.082a0.817,0.817,0,0,1,.165.245,2.1,2.1,0,0,0,.412.286c0.2,0.115.6,0.027,0.782,0.163,0.041,0.067.04,0.261,0.082,0.327a2.134,2.134,0,0,0,.823.041,5.151,5.151,0,0,0,1.317.082,4.931,4.931,0,0,0,2.017-.041l0.576,0.041a11.931,11.931,0,0,0,1.728,0v0.163a13.485,13.485,0,0,1,2.058,0c0.306,0.068.8-.044,1.152,0.041a0.78,0.78,0,0,0,.165.082,7.553,7.553,0,0,1,2.058,0c0.609,0.138,1.12-.126,1.687,0,0.491,0.109,1.187-.079,1.728.041a4.184,4.184,0,0,1,.741.041l0.041,0.123h0.823v0.082a0.905,0.905,0,0,1,0,.531,13.4,13.4,0,0,1-2.757-.041c-0.5-.117-1.154.064-1.6-0.041-0.487-.114-1.126.061-1.564-0.041H33.21a12.863,12.863,0,0,1-2.428-.082,3.175,3.175,0,0,0-1.317.041l-0.041.123a5.616,5.616,0,0,1-.7-0.041,9.461,9.461,0,0,1-1.975-.163H24.321a2.35,2.35,0,0,1-.947,0,1.69,1.69,0,0,1-.247.736c-0.218.13-.621,0.027-0.823,0.163,0.5,0.011.954,0.124,1.482,0.163l0.041-.245h0.041a2.04,2.04,0,0,0,.741.123v0.2a11.256,11.256,0,0,0,1.728.082c0.05,0.127.016,0.092,0.165,0.123a1.379,1.379,0,0,1,1.235.409,0.855,0.855,0,0,0-.206.327h0.082a0.909,0.909,0,0,1,.947-0.082l0.082-.245h0.041V22.32a0.36,0.36,0,0,1,0,.286h0.082a0.478,0.478,0,0,1,.123-0.082,0.34,0.34,0,0,1,.041-0.2,0.149,0.149,0,0,0,.082.041v0.123a0.538,0.538,0,0,0-.041.286,0.478,0.478,0,0,1-.288.082,0.68,0.68,0,0,1-.288,0,0.514,0.514,0,0,1-.041.163l-0.206-.041a0.251,0.251,0,0,1-.082.082V23.1a0.83,0.83,0,0,1,.412.409l-0.412.082v0.082a1.376,1.376,0,0,1,.412,1.962,1.82,1.82,0,0,1-.823.613,0.512,0.512,0,0,1-.453.163,0.74,0.74,0,0,1-.617.286,1.159,1.159,0,0,1-.37.286c-0.29.127-.525,0.261-0.782,0.368l-0.123-.041-0.041.163H25.226a4.022,4.022,0,0,0-1.029.409l-0.206-.041-0.041.082a1.374,1.374,0,0,1-.576-0.041c-0.108-.022-0.433.062-0.617,0.041a12.49,12.49,0,0,0-1.44,0c-0.18.006-.418-0.054-0.535-0.041-1.07.123-2.238,0.022-3.292,0.041a7.685,7.685,0,0,0-1.111,0c-0.453.1-.924-0.072-1.276,0-0.654.135-1.34-.117-1.893,0-0.808.171-1.8-.15-2.51,0a2.519,2.519,0,0,1-.617-0.041c-0.639-.019-1.285.041-1.934,0.041a9.917,9.917,0,0,0-1.152,0,6.12,6.12,0,0,0-1.44.041,5.621,5.621,0,0,0-.782-0.327c-0.221-.139-0.347-0.3-0.535-0.409a1.123,1.123,0,0,0-.576-0.286,2.979,2.979,0,0,0-1.564-.9c-0.03.162,0,.131-0.165,0.163a3.1,3.1,0,0,0-.412-0.327,2.958,2.958,0,0,1-.247-0.531,3.993,3.993,0,0,1-.412-0.449H0.782v0.082a0.185,0.185,0,0,0,.041.163,1.294,1.294,0,0,0,.247.123,0.139,0.139,0,0,1-.041.082v0.041A0.574,0.574,0,0,1,.7,25.221a0.8,0.8,0,0,1-.535.122,0.719,0.719,0,0,1-.082-0.409,1.1,1.1,0,0,1-.041-0.49,0.775,0.775,0,0,0,.37-0.858,1.806,1.806,0,0,1-.082-0.695l-0.123-.041A0.948,0.948,0,0,1,.165,22.4a0.573,0.573,0,0,0,.165-0.613H0.453v-0.45H0.206V21.216H0.412a3.209,3.209,0,0,0,0-.45,2.96,2.96,0,0,1,1.07.123,0.2,0.2,0,0,0,.247-0.082H2.84v0.082a0.142,0.142,0,0,0,.206-0.082,2.99,2.99,0,0,1,.453.082,1.137,1.137,0,0,1,.453-0.082,7.777,7.777,0,0,0,1.934.041c0.185-.038.133,0.127,0.288,0.082,0.006,0,.008-0.069.206-0.082v0.123a5.8,5.8,0,0,0,.741-0.082c0.034,0.133-.02.063,0.082,0.123V20.889H7.407v0.123c1.109,0,2.243.04,3.333,0.041v0.2c0.592,0,1.049-.078,1.564-0.082V21.053H11.811V20.889A16.378,16.378,0,0,1,8.93,20.6H7.449a13.838,13.838,0,0,0-2.84,0V20.522c0.4-.374.229-2.168,0.576-2.615a0.359,0.359,0,0,1,.206-0.041V17.7H5.556a4.541,4.541,0,0,1,.165-1.267V15.7A10.9,10.9,0,0,1,5.8,13.493a6.377,6.377,0,0,1,.041-1.471L5.8,15.5a8.009,8.009,0,0,0,.041,1.512H5.885V16.639a14.852,14.852,0,0,0,.123-2.574,2.313,2.313,0,0,1,.041-0.858,5.268,5.268,0,0,0,.041,1.39c0.017-.146-0.019-0.1.082-0.163a0.2,0.2,0,0,0,.041.123v-0.2Zm0.082,0v0.082H6.337V14.351H6.3Zm0.082,0a0.457,0.457,0,0,0,0,.2V14.6H6.42A0.428,0.428,0,0,0,6.379,14.351Zm14.033,0.858h0.082v0.164H20.412V15.209Zm-14.4.164a9.137,9.137,0,0,0,.082,1.921A4.889,4.889,0,0,0,6.008,15.373Zm10.123,0.245V15.7C16.2,15.651,16.182,15.682,16.132,15.618Zm0.165,0v0.041H16.255c-0.079.032,0.082,0.041,0.082,0.041A0.139,0.139,0,0,0,16.3,15.618Zm3.539,0c-0.058.036-.231,0.044-0.288,0.082a1.261,1.261,0,0,0,.782-0.082H19.835Zm-1.235.041a1.431,1.431,0,0,0,.823,0H18.6Zm-0.247.041a0.121,0.121,0,0,0,.165,0H18.354Zm-3.045.041a0.147,0.147,0,0,1,.041.082H15.309V15.74Zm0.823,0.082a0.121,0.121,0,0,0,.165,0H16.132Zm1.44,0c0.071,0.036.053,0.036,0.123,0H17.572Zm-0.947.368a0.2,0.2,0,0,0,.041.123V16.19H16.626Zm-0.823.2h0.082v0.041A0.141,0.141,0,0,1,15.8,16.394Zm0.123,0.041h0.082v0.041A0.142,0.142,0,0,1,15.926,16.435ZM5.8,17.048v0.2H5.885V17.212C5.858,17.176,5.83,17.083,5.8,17.048Zm9.918,0.123v0.082h0.041A0.139,0.139,0,0,0,15.72,17.171Zm0.082,0v0.082c0.147-.017.1,0.019,0.165-0.082H15.8Zm-8.272.654H7.654A1.709,1.709,0,0,0,7.7,17.5a0.211,0.211,0,0,0-.123-0.041A1.174,1.174,0,0,0,7.531,17.825Zm6.626-.368L14.2,17.579h0.041V17.539a0.147,0.147,0,0,0,.041-0.082H14.156Zm-6.3.041v0.368H7.942V17.825a0.44,0.44,0,0,0,.041-0.245ZM19.012,17.62a0.784,0.784,0,0,0,0,.368h0.165a1.02,1.02,0,0,0,.041-0.327A0.648,0.648,0,0,0,19.012,17.62ZM8.107,17.7v0.123H8.436V17.7H8.107Zm0.412,0v0.123a0.363,0.363,0,0,0,.37-0.082H8.765A0.448,0.448,0,0,0,8.519,17.7Zm0.453,0.041v0.082H9.465V17.743H8.971ZM20.7,21.257v0.163a1.389,1.389,0,0,0,.782-0.041Zm-20.412,1.1a0.719,0.719,0,0,0-.082.409l0.123,0.082A1.089,1.089,0,0,0,.288,22.361ZM27.572,24.2v0.082h0.041V24.24h0.041A0.149,0.149,0,0,0,27.572,24.2Zm-27.16.613a1.8,1.8,0,0,0-.041.368,0.585,0.585,0,0,0,.165.041V25.139A2.644,2.644,0,0,0,.412,24.813Zm26.708,0.572c-0.051.156-.082,0.178,0.123,0.164V25.426Zm-0.617.368a2.233,2.233,0,0,0-.247.286,0.918,0.918,0,0,1,.165.2,0.669,0.669,0,0,1,.412-0.286,0.471,0.471,0,0,1-.082-0.123C26.588,25.852,26.652,25.862,26.5,25.752ZM7.613,27.387H7.737V27.264a2.084,2.084,0,0,0,.288.082,1.019,1.019,0,0,0,.041-0.327,0.2,0.2,0,0,0,.123-0.041A1,1,0,0,1,8.066,26H7.86v0.041a1.187,1.187,0,0,1-.329.94A2.291,2.291,0,0,1,7.613,27.387ZM14.115,26a1.266,1.266,0,0,1-.494,1.1v0.286l0.37-.041c0.053-.1-0.018-0.028.082-0.082V27.019H14.2V27.1c0.036,0.057.045,0.229,0.082,0.286a0.655,0.655,0,0,1,.329-0.041,0.14,0.14,0,0,1,.041-0.082A2.348,2.348,0,0,0,14.4,26.9a1.846,1.846,0,0,1-.041-0.9H14.115Zm7.078,0.123c-0.007.571-.287,0.65-0.288,1.144a4.022,4.022,0,0,1,.494.123V27.346a0.24,0.24,0,0,1,.082-0.327V27.06a0.351,0.351,0,0,1,.041.2,1.606,1.606,0,0,0,.453.082,0.96,0.96,0,0,1,.041-0.327H22.1a0.865,0.865,0,0,0,.082.286,2.572,2.572,0,0,1,.412.041V27.019h0.123V27.1c0.037,0.057.045,0.229,0.082,0.286a0.71,0.71,0,0,1,.082-0.2,1.155,1.155,0,0,1-.329-1.062H22.1L22.017,26A7.374,7.374,0,0,0,21.193,26.12ZM26.132,26a0.918,0.918,0,0,0-.864.245,0.673,0.673,0,0,0-.041.654c-0.005-.176-0.059-0.144.041-0.2,0.016-.011.172,0.018,0.288,0L25.6,26.57a0.7,0.7,0,0,1-.082-0.245h0.041V26.284h0.082a0.935,0.935,0,0,0,.206.286V26.529c-0.046-.081-0.024-0.074,0-0.163,0.188,0.03.279-.028,0.412,0A0.826,0.826,0,0,1,26.132,26Zm-8.807.082a1.59,1.59,0,0,1-.288.858,0.716,0.716,0,0,0-.37.45h0.041a0.884,0.884,0,0,1,.412-0.041V27.019h0.123l0.041,0.368a1.585,1.585,0,0,1,.453-0.041V27.019H17.86L17.9,27.387h0.041a0.767,0.767,0,0,1,.37-0.041l0.041-.327h0.123a0.33,0.33,0,0,0,.123.368c0.041-.028.165-0.053,0.206-0.082a1.225,1.225,0,0,1-.453-1.185ZM4.239,26.12c-0.008.107,0.054,0.117,0.247,0.123l0.041-.123H4.239Zm-0.946.041a0.5,0.5,0,0,0,.288.163L3.663,26.2A1.2,1.2,0,0,0,3.292,26.161Zm7.531,0a0.974,0.974,0,0,0-.082.409v0.041h0.082V26.529A0.249,0.249,0,0,0,10.823,26.161Zm2.881,0a1.324,1.324,0,0,0-.123.45h0.082V26.57A0.275,0.275,0,0,0,13.7,26.161Zm3.21,0a1.787,1.787,0,0,0-.082.45h0.041V26.57h0.041A0.742,0.742,0,0,0,17,26.2ZM7.449,26.2a0.841,0.841,0,0,0-.082.409H7.449V26.529A0.4,0.4,0,0,0,7.531,26.2H7.449Zm-3.663.082L3.7,26.529a3.361,3.361,0,0,1,.412.163,0.365,0.365,0,0,0,.123-0.123C4.089,26.478,3.951,26.367,3.786,26.284Zm1.07,0.122a0.514,0.514,0,0,0,.041.164H4.938V26.529a0.147,0.147,0,0,0,.041-0.082Zm3.7,0.409-0.123-.409H8.354v0.245a0.292,0.292,0,0,1,.082.164H8.56Zm2.757-.409a0.792,0.792,0,0,0,.123.45h0.082V26.692c-0.05-.064-0.072-0.182-0.123-0.245A0.149,0.149,0,0,0,11.317,26.406Zm3.333,0a0.792,0.792,0,0,0,.123.45h0.082V26.692c-0.05-.064-0.072-0.182-0.123-0.245A0.149,0.149,0,0,0,14.65,26.406Zm4.033,0v0.286a0.389,0.389,0,0,1,.123.163h0.082V26.692c-0.056-.062-0.072-0.176-0.123-0.245A0.148,0.148,0,0,0,18.683,26.406Zm-14.321.2a0.561,0.561,0,0,1-.123.286c0.182,0.014.431,0.191,0.453,0.163H4.733V27.019A2.313,2.313,0,0,0,4.362,26.611Zm18.56,0.123,0.041,0.123H23A0.155,0.155,0,0,0,22.922,26.733Zm-11.893.286h0.123l0.041,0.368h0.082c0.035-.027.129-0.055,0.165-0.082a4.481,4.481,0,0,1-.453-0.49,2.713,2.713,0,0,0-.412.531h0.041v0.041a0.408,0.408,0,0,1,.412-0.041V27.019ZM24.979,26.9l-0.082.123a0.329,0.329,0,0,0,.165-0.082Zm-17.531.45a1.383,1.383,0,0,1,.041-0.327H7.449a0.768,0.768,0,0,1-.288.2A0.287,0.287,0,0,0,7.449,27.346Zm0.741-.286a0.96,0.96,0,0,0,.041.327l0.123-.041V27.224C8.285,27.172,8.259,27.112,8.189,27.06ZM20.7,27.1c-0.087.111-.207,0.165-0.288,0.286a0.563,0.563,0,0,1,.37,0,0.53,0.53,0,0,1,0-.286H20.7Zm-11.481.163V27.142a0.524,0.524,0,0,0-.165.041v0.041H9.095A0.211,0.211,0,0,0,9.218,27.264Zm2.881-.123v0.041H12.017c-0.046.036,0.041,0.041,0.041,0.041a0.191,0.191,0,0,0,.206,0V27.183A0.523,0.523,0,0,1,12.1,27.142Zm3.374,0.082v0.082H15.6V27.264Zm-8.4.041-0.041.123H7.078V27.346C7.129,27.282,7.1,27.325,7.078,27.264Zm6.255,0a0.548,0.548,0,0,1-.288.041v0.082h0.041a0.548,0.548,0,0,1,.288-0.041A0.14,0.14,0,0,0,13.333,27.264Zm3.086,0.041a0.148,0.148,0,0,0,.082.041A0.148,0.148,0,0,0,16.42,27.305Zm6.5,0a0.149,0.149,0,0,0,.082.041A0.149,0.149,0,0,0,22.922,27.305Zm-16.872.245c0.034,0.133-.02.062,0.082,0.123,0.032-.028.092-0.054,0.123-0.082Z" transform="translate(-0.031 0.5)"/>
</svg>
