<?xml version="1.0" encoding="utf-8"?>
<!-- Generator: Adobe Illustrator 16.0.0, SVG Export Plug-In . SVG Version: 6.00 Build 0)  -->
<!DOCTYPE svg PUBLIC "-//W3C//DTD SVG 1.1//EN" "http://www.w3.org/Graphics/SVG/1.1/DTD/svg11.dtd">
<svg version="1.1" id="Layer_1" xmlns="http://www.w3.org/2000/svg" xmlns:xlink="http://www.w3.org/1999/xlink" x="0px" y="0px"
	 width="39.969px" height="40px" viewBox="0 0 39.969 40" enable-background="new 0 0 39.969 40" xml:space="preserve">
<path id="Color_Fill_1" fill="#FFFFFF" d="M15.912,14.877l1.613,0.094c-0.014,0.127,0.002,0.256,0.047,0.376h0.332
	c0.414,0.132,0.849,0.18,1.281,0.141c0.166,0.068,0.343,0.1,0.522,0.094l0.047-0.141c0.189,0.023,0.38,0.023,0.569,0
	c0.325,0.204,0.676,0.362,1.044,0.47c-0.006-0.189-0.026-0.257,0.095-0.329c0.632-0.192,1.305-0.209,1.945-0.047v0.47
	c-0.255,0.034-0.364,0.146-0.617,0.188c-0.009,0.141-0.009,0.282,0,0.423c5.54,0.222,11.556,0.163,17.177,0.188v0.705
	c-0.669-0.023-1.646,0.046-2.515,0.048h-0.567c-0.046,0.014,0.037,0.118-0.095,0.094c-0.04-0.008-0.214-0.168-0.285-0.188
	l-1.139,0.047h-2.941c-0.696-0.051-1.396-0.035-2.088,0.048h-2.515c-1.74,0-3.514,0.032-5.077,0.141
	c0.021,0.222-0.161,0.277-0.38,0.376v0.047h0.285c0.21-0.034,0.426-0.001,0.617,0.094c0.213,0.039,0.365-0.139,0.664-0.141
	l-0.048,0.094h0.048c0.373-0.173,0.8-0.19,1.186-0.047c-0.021,0.341-0.286,0.642-0.047,0.752c0.025,0.025,0.059,0.042,0.095,0.047
	c-0.058-0.513,0.36-0.688,1.044-0.658c0.025,0.025,0.059,0.042,0.096,0.048c0.07,0.111,0.104,0.243,0.094,0.375
	c-0.025,0.025-0.041,0.059-0.047,0.094c0.162,0.036,0.311,0.118,0.428,0.236c0.139,0.057,0.775-0.043,1.044,0.047
	c0.398,0.176,0.767,0.414,1.091,0.705c0.179,0.054,0.342,0.15,0.475,0.281c-0.056,0.122-0.104,0.248-0.142,0.376
	c-0.059-0.04-0.122-0.072-0.19-0.094c-0.155,0.161-0.298,0.333-0.427,0.517c-0.052,0.336-0.131,0.666-0.237,0.987
	c-0.305,0.306-0.657,0.56-1.043,0.752c-0.759,0.688-1.604,1.272-2.516,1.74c-0.704,0.13-1.422,0.161-2.135,0.094H10.74
	c-1.187,0.1-2.38,0.068-3.559-0.094c-0.448-0.213-0.877-0.464-1.281-0.752c-0.543-0.327-1.1-0.481-1.661-0.8
	c-0.221-0.191-0.413-0.412-0.57-0.657c-0.083-0.085-0.246-0.101-0.332-0.188c-0.105,0.048-0.217,0.08-0.332,0.094
	c-0.39-0.272-0.674-0.67-0.807-1.127c-0.05-0.186,0-0.43-0.047-0.564c-0.147,0.111-0.306,0.205-0.474,0.281
	c-0.096,0.008-0.191,0.023-0.285,0.048c-0.747,0.021-1.369-0.568-1.39-1.315C0,19.266,0.004,19.187,0.016,19.109
	c0.162-0.709,0.867-1.152,1.576-0.99c0.389,0.088,0.717,0.349,0.891,0.708c0.219-0.043,0.445-0.043,0.664,0v-0.048
	c-0.092-0.104-0.143-0.238-0.142-0.377c0.081,0.002,0.162,0.018,0.237,0.048v-0.142c0.104,0.062,0.215,0.109,0.332,0.142
	c0,0,0.249-0.134,0.285-0.142c0.61-0.135,1.242-0.135,1.851,0v-0.093c0.03-0.04,0.047-0.09,0.047-0.141c0.726,0,1.53,0,2.183,0.047
	c0,0.051,0.016,0.101,0.047,0.142v-0.048c0.06-0.103,0.164-0.173,0.282-0.188c0.581,0.186,1.197,0.234,1.8,0.141v-0.846
	c-0.066-0.01,0.019,0.039-0.047,0.047c-0.037,0.09-0.047-0.094-0.047-0.094c0.379-0.377-0.127-1.2-0.285-1.552h0.427l0.19,0.611
	h0.048v-0.047c0.092-0.082,0.172-0.177,0.237-0.282c-0.237-0.181-0.383-0.468-0.617-0.658l0.047-0.141h0.047v0.188
	c0.157-0.023,0.315,0.029,0.427,0.141v-0.141c-0.117-0.061-0.032,0.02-0.095-0.094c0.06-0.033,0.109-0.082,0.142-0.141v0.094h0.095
	v-0.047c0.072-0.142,0.168-0.269,0.285-0.376v0.094c0.088,0.159,0.137,0.336,0.142,0.517h0.19c0.067-0.096,0.1-0.212,0.095-0.329
	h-0.041v0.047c-0.032,0.036-0.062,0.1-0.095,0.141c-0.046-0.239-0.11-0.475-0.19-0.705c0.107-0.034,0.22-0.05,0.332-0.047
	c0.026,0.025,0.059,0.042,0.095,0.047v0.141c-0.03,0.041-0.047,0.09-0.047,0.141l0.285,0.047v-0.047c-0.1-0.125-0.026-0.085,0-0.329
	c0.153,0.019,0.393,0.068,0.522,0.094l0.569-0.047v0.094h0.332c0.171-0.056,0.346-0.104,0.522-0.141v-0.142
	c-0.983,0-1.742-0.091-2.657-0.094v-0.141c0.693,0,1.1-0.051,1.708-0.047v-0.141c0.175,0.025,0.354,0.009,0.522-0.047h-2.989
	c-0.014-0.039-0.092-0.166,0-0.188h-1c-0.026,0.025-0.059,0.042-0.095,0.047v-0.279h0.099c0.2,0.06,0.41,0.076,0.617,0.047v-0.147
	h0.142v0.141c1.093,0.031,2.188-0.017,3.274-0.141c0.061,0.037,0.124,0.068,0.19,0.094l0.095-0.188l1-0.047
	c-0.016,0.078-0.016,0.158,0,0.235h0.142c-0.001-0.051,0.016-0.101,0.047-0.141c0.073-0.039,0.155-0.056,0.237-0.047
	c0.042,0.03,0.091,0.047,0.142,0.047v-0.138h-0.38c-0.024-0.219-0.024-0.439,0-0.658h0.759c0.045,0.2,0.062,0.406,0.047,0.611
	c-0.107,0.034-0.22,0.049-0.332,0.047c0,0.051,0.017,0.101,0.048,0.141c0.069,0.095,0.17,0.162,0.285,0.188
	c0.072-0.038,0.153-0.053,0.234-0.044c0,0.051,0.016,0.101,0.047,0.141v-2.965c-0.055-0.392-0.037-0.791,0.053-1.176
	C15.862,11.293,15.869,13.176,15.912,14.877z M9.839,13.137h0.142v0.235H9.839V13.137z M13.92,13.372v0.094h0.237v-0.094H13.92
	L13.92,13.372z M14.821,13.516c0.185,0,0.214,0.023,0.285-0.094h-0.19c-0.026-0.025-0.059-0.042-0.095-0.047V13.516z M13.587,13.469
	v0.094h0.095v-0.097h-0.095V13.469z M15.2,13.469c0.1,0.113,0.045,0.01,0.142,0.047c0.027-0.088-0.096-0.041-0.142-0.05V13.469z
	 M8.984,13.516h0.095c-0.003,0.065-0.019,0.129-0.047,0.188v0.094c-0.025-0.025-0.042-0.058-0.047-0.094H8.937L8.984,13.516z
	 M15.769,14.877c0.088-0.371,0.088-0.757,0-1.128c-0.072,0.398-0.271,0.761-0.569,1.035h0.095
	C15.442,14.856,15.605,14.889,15.769,14.877z M14.299,13.842v0.094h0.047C14.341,13.9,14.325,13.867,14.299,13.842z M13.445,13.936
	c0.054,0.049,0.137,0.049,0.19,0H13.445z M11.645,15.064c0.082,0.041,0.061,0.042,0.142,0h-0.145H11.645z M10.079,15.158
	l0.285,0.047v0.047h-0.146c-0.036-0.036-0.106-0.061-0.142-0.093L10.079,15.158z M24.693,18.309c-0.016,0.111,0,0.226,0.047,0.328
	v-0.375c-0.025-0.025-0.042-0.059-0.047-0.094c-0.219-0.047-0.441-0.063-0.664-0.047v0.047h0.039
	c0.035,0.041,0.061,0.053,0.096,0.094c0.108-0.038,0.219-0.069,0.332-0.094c0.02,0.09,0.103,0.15,0.193,0.141H24.693z
	 M10.693,18.261c0.082,0.041,0.061,0.042,0.142,0H10.693z M11.452,18.261c0.134,0.067,0.292,0.067,0.427,0H11.452z M20.135,18.261
	c0.135,0.067,0.292,0.067,0.428,0H20.135L20.135,18.261z M20.609,18.261c0.082,0.041,0.061,0.042,0.142,0H20.609L20.609,18.261z
	 M25.496,18.309c0,0.104-0.01,0.032,0.095,0.047v-0.047H25.496L25.496,18.309z M25.876,18.777h0.192
	c0.065-0.117,0.113-0.244,0.143-0.375c-0.146-0.077-0.311-0.109-0.475-0.094v0.047c0.107,0.113,0.159,0.269,0.141,0.424
	L25.876,18.777z M26.256,18.402l-0.047,0.328h0.096v-0.092C26.378,18.516,26.346,18.482,26.256,18.402L26.256,18.402z M2.769,18.873
	c-0.016,0.062-0.016,0.127,0,0.188h0.094C2.874,18.984,2.836,18.91,2.769,18.873z M2.911,19.107
	c0.026,0.025,0.059,0.043,0.095,0.047c-0.026-0.024-0.059-0.041-0.095-0.045V19.107z M3.101,19.249
	c-0.249,0.009-0.462,0.181-0.522,0.423h0.047c0.157-0.111,0.334-0.19,0.522-0.234C3.123,19.377,3.107,19.314,3.101,19.249
	L3.101,19.249z M2.911,19.672c-0.052,0.051-0.118,0.084-0.19,0.094v0.051c0.216,0.055,0.413,0.168,0.569,0.328v-0.049
	C3.2,19.926,3.07,19.781,2.911,19.672L2.911,19.672z M3.196,20.236c-0.021,0.082-0.053,0.16-0.095,0.234h0.047v-0.046
	C3.223,20.336,3.238,20.328,3.196,20.236L3.196,20.236z M3.48,21.416v-0.239c-0.139,0.019-0.059,0.077-0.142-0.047
	c0.134-0.133,0.106-0.122,0.095-0.329H3.338c-0.21,0.184-0.48,0.285-0.759,0.282c-0.041-0.058-0.073-0.121-0.095-0.188
	c0.091-0.055,0.186-0.102,0.285-0.141v-0.047c-0.082,0.01-0.165-0.008-0.237-0.047c0.035-0.004,0.068-0.02,0.094-0.044
	c-0.105-0.046-0.202-0.109-0.285-0.188v0.088c0.158,0.168-0.034,1,0.569,1.035c0.08-0.154,0.216-0.271,0.38-0.328
	c0.012,0.019,0.028,0.035,0.047,0.047L3.29,21.416H3.48z M2.436,20.616h0.095v0.047H2.436V20.616z M3.436,20.663
	c0.026,0.025,0.059,0.042,0.095,0.047c-0.026-0.026-0.061-0.044-0.098-0.05L3.436,20.663z M6.136,22.45H5.948
	c-0.041,0.058-0.073,0.12-0.095,0.188c0.108,0.037,0.219,0.069,0.332,0.094v-0.051c-0.04-0.071-0.057-0.153-0.048-0.234L6.136,22.45
	z M21.984,22.497h-1.09c-0.117,0.392-0.275,0.771-0.475,1.128h2.04v-0.049c-0.304-0.277-0.476-0.671-0.474-1.082L21.984,22.497z
	 M25.827,22.497c0.026,0.025,0.06,0.042,0.095,0.047c-0.025-0.026-0.058-0.044-0.093-0.05L25.827,22.497z M9.837,22.967
	c-0.078,0.234-0.19,0.456-0.332,0.658h0.764v-0.049c-0.2-0.16-0.239-0.46-0.43-0.612L9.837,22.967z M13.492,23.016
	c-0.084,0.217-0.196,0.423-0.332,0.611h0.709v-0.098C13.727,23.371,13.601,23.199,13.492,23.016z M17.146,23.016
	c-0.105,0.217-0.232,0.422-0.38,0.611h0.759v-0.051C17.372,23.408,17.245,23.221,17.146,23.016z M15.295,23.58
	c0.026,0.025,0.059,0.041,0.095,0.047c-0.025-0.027-0.059-0.045-0.095-0.051V23.58z M23.695,23.58
	c0.025,0.025,0.059,0.041,0.095,0.047c-0.026-0.027-0.06-0.045-0.097-0.051L23.695,23.58z"/>
</svg>
