<?xml version="1.0" encoding="utf-8"?>
<!-- Generator: Adobe Illustrator 16.0.0, SVG Export Plug-In . SVG Version: 6.00 Build 0)  -->
<!DOCTYPE svg PUBLIC "-//W3C//DTD SVG 1.1//EN" "http://www.w3.org/Graphics/SVG/1.1/DTD/svg11.dtd">
<svg version="1.1" id="Layer_1" xmlns="http://www.w3.org/2000/svg" xmlns:xlink="http://www.w3.org/1999/xlink" x="0px" y="0px"
	 width="39.969px" height="40px" viewBox="0 0 39.969 40" enable-background="new 0 0 39.969 40" xml:space="preserve">
<path id="Color_Fill_1" fill="#FFFFFF" d="M11.783,12.297h0.2c-0.019,0.61-0.21,2.153,0.1,2.423c-0.027,0.027-0.062,0.044-0.1,0.05
	v-0.054H11.93v0.555c0.111-0.02,0.053-0.046,0.147,0c-0.162,0.1-0.157,0.182-0.147,0.454h0.245
	c-0.013-0.278,0.032-0.137,0.147-0.353c-0.185-0.367,0.177-1.334,0-1.867c-0.065-0.178-0.099-0.365-0.1-0.555
	c0.06-0.038,0.111-0.09,0.147-0.151l0.147,0.1v-0.148c-0.101,0.014-0.204-0.004-0.294-0.05c0.124-0.074,0.076-0.022,0.1-0.2h0.147
	c0.081,1.059,0.081,2.122,0,3.18h0.049v-0.053c0.198-0.158,0.308-0.403,0.294-0.656c-0.166-0.048-0.152-0.019-0.2-0.2
	c0.133-0.285,0.201-0.595,0.2-0.909c0.187-0.126,0.414-0.18,0.637-0.151c0.189,0.204,0.279,0.481,0.245,0.757h-0.048v0.047
	c0.166,0.048,0.152,0.019,0.2,0.2c-0.119,0.159-0.156,0.365-0.1,0.555c0.137,0.093,0.254,0.213,0.343,0.353
	c0.163-0.116,0.346-0.201,0.539-0.252c0.088,0.284,0.316,0.272,0.686,0.252v0.051h0.049v-0.148h0.735
	c-0.023-0.047-0.023-0.103,0-0.151c0.127,0.042,0.265,0.042,0.392,0v-0.152h-0.149v-0.3h-0.1c-0.005,0.038-0.022,0.073-0.049,0.1
	v-0.153h-0.145c0.021-0.294-0.161-0.564-0.441-0.656c0.04-0.164-0.024-0.077,0.1-0.151v0.052l0.1-0.05v-0.05
	c-0.085,0.01-0.171-0.008-0.245-0.05c0.232-0.015,0.241-0.1,0.245-0.1c0.166,0.019,0.33,0.053,0.49,0.1
	c-0.01-0.439-0.153-0.461-0.147-0.858h0.1c0.192-0.096,0.425-0.031,0.539,0.151v-0.155h0.481c0.045,0.076,0.063,0.165,0.049,0.252
	c-0.094,0.245-0.143,0.268-0.49,0.252c-0.02-0.072-0.075-0.129-0.147-0.151c-0.049,0.099-0.138,0.172-0.245,0.2
	c0.032,0.044,0.049,0.097,0.049,0.152c0.35-0.076,0.716-0.022,1.029,0.151c0.02-0.181-0.023-0.127,0.1-0.2v0.056h0.055
	c-0.044,0.042-0.078,0.094-0.1,0.151h1.961c0.073,0.049,0.172,0.03,0.221-0.042c0.012-0.017,0.02-0.037,0.024-0.057
	c-0.025-0.122-0.079-0.062,0.049-0.151v0.3c0.463,0,0.924-0.031,1.324-0.05v0.15h-1.327c-0.128,0.128-0.312,0.185-0.49,0.151
	c-0.226,0.049-0.455,0.083-0.686,0.1c-0.333-0.099-0.683-0.133-1.029-0.1c-0.103,0.145-0.264,0.237-0.441,0.252v0.4h-0.393
	c-0.004,0.203-0.021,0.405-0.049,0.606h0.441c-0.018-0.187-0.001-0.375,0.049-0.555c0.238-0.07,0.489-0.086,0.735-0.05
	c0.046,0.053,0.095,0.104,0.147,0.151c-0.049,0.127-0.066,0.265-0.049,0.4h0.2v0.353h0.392v0.151c0.789,0.04,1.566,0.209,2.3,0.5
	c0.271,0.143,0.579,0.196,0.882,0.152c0.282-0.241,0.618-0.413,0.979-0.5v0.4c-0.068-0.005-0.137-0.022-0.199-0.05
	c-0.006,0.069-0.022,0.136-0.049,0.2h0.146c0.124-0.051,0.26-0.068,0.393-0.05l0.049,0.151c0.02,0.154,0.053,0.306,0.1,0.454
	c0.131,0.09,0.283,0.142,0.441,0.151c-0.023,0.121-0.057,0.238-0.101,0.354h0.888c0.392,0.047,0.787,0.047,1.178,0
	c0.664,0.15,1.662,0.07,2.205,0.15h0.932c0.777,0.129,1.567,0.163,2.354,0.1h0.881c1.183,0.271,2.681,0.033,4.168,0.252
	c0.16,0.025,0.584-0.059,0.832-0.049c0.805-0.006,1.608,0.062,2.4,0.199v-0.136c0.133-0.009,0.266,0.008,0.393,0.05
	c0.1,0.075-0.027,0.072,0.146,0.1v0.556c-0.913,0.106-1.836,0.089-2.744-0.05c-0.529-0.143-1.244,0.076-1.717-0.051
	c-0.527-0.142-1.244,0.076-1.716-0.051c-0.282-0.039-0.569-0.004-0.833,0.101c-0.04,0.011-1.813-0.017-1.961-0.05
	c-0.29-0.071-0.592-0.071-0.883,0c-0.707-0.16-1.434-0.211-2.156-0.151c-1.094,0.056-2.189,0.056-3.284,0
	c-0.436-0.086-0.882-0.103-1.323-0.05c-0.173,0.062-0.355,0.096-0.539,0.1c-0.074,0.094-0.142,0.194-0.199,0.301h0.348
	c0.338-0.151,0.711-0.203,1.078-0.152c0.054,0.074,0.088,0.162,0.1,0.253c0.164-0.097,0.35-0.149,0.539-0.151
	c0.041,0.072,0.09,0.14,0.147,0.2c0.685,0.259,1.946-0.017,2.549,0.2v-0.051h-0.05c-0.053-0.039,0.047-0.039,0.047-0.039
	c0.042-0.033,0.094-0.05,0.146-0.051c0.061,0.121,0.127,0.239,0.2,0.354c0.163-0.009,0.327-0.009,0.49,0v-0.155h0.101
	c0.047-0.013,0.019-0.04,0.049,0c0.07,0.04,0.109,0.119,0.1,0.2c1.065-0.021,1.994,0.723,2.206,1.768l-0.833,0.252
	c0.107,0.861-0.787,1.277-1.324,1.666c-0.617,0.581-1.312,1.074-2.064,1.467c-0.914,0.326-2.451-0.2-3.676,0.05l-5.932,0.05h-6.128
	c-0.963,0.098-1.934,0.08-2.892-0.05c-0.854-0.308-1.662-0.733-2.4-1.263c-0.125-0.078-0.256-0.145-0.392-0.199
	c-0.06,0.037-0.13,0.055-0.2,0.05c-0.481-0.32-0.911-0.712-1.275-1.161c-0.071,0.055-0.156,0.089-0.245,0.1
	c-0.082-0.088-0.149-0.189-0.2-0.3c0.054-0.024,0.104-0.059,0.147-0.1l-0.441,0.05c-0.035,0.114-0.052,0.233-0.049,0.354h0.2v0.1
	H2.91c-0.075,0.042-0.16,0.06-0.245,0.051c-0.083-0.172-0.118-0.364-0.1-0.555c-0.064-0.301,0.075-0.607,0.343-0.758
	c0.052-0.158,0.013-0.332-0.1-0.453c-0.073,0.063-0.156,0.113-0.245,0.15v-0.399c-0.073-0.28-0.089-0.571-0.049-0.858
	c0.128-0.039,0.246-0.107,0.343-0.199c0.032-0.083,0.049-0.17,0.053-0.259c-0.26,0.03-0.522,0.047-0.784,0.05
	c-0.114-0.079-0.253-0.115-0.392-0.1c-0.114,0.029-0.279,0.169-0.392,0.2c-0.517,0.152-1.07-0.079-1.324-0.556
	c-0.022-0.098-0.022-0.201,0-0.3c-0.152-0.905,0.168-1.64,1.176-1.615c0.119,0.136,0.271,0.239,0.441,0.3
	c0.328,0.352,0.457,0.845,0.343,1.312c0.106,0,0.21,0.035,0.294,0.1c0.041,0.078,0.058,0.166,0.049,0.252h0.295v-0.1
	c0.014-0.037,0.027-0.179,0.049-0.3H2.91c0.384-0.216,1.754,0.194,2.3,0c0.686-0.051,1.374-0.051,2.059,0
	c1.19-0.114,2.555-0.015,3.922-0.05c0.183,0.04,0.362,0.09,0.539,0.15l1.52,0.101v-0.4h-0.046v-0.05
	c-0.497-0.01-0.99-0.078-1.471-0.2l-1.912-0.151c-0.262-0.037-0.529-0.021-0.784,0.051c-0.408-0.146-0.844-0.198-1.275-0.151
	c-0.005-0.038-0.022-0.073-0.049-0.1l0.1-1.968l1.912,0.05v-0.2H9.43v-0.5h0.339v-0.17h0.2v0.151h0.294
	c-0.039-0.218-0.1-0.186-0.147-0.4c0.071-0.09,0.179-0.146,0.294-0.151c0.037,0.13,0.053,0.265,0.049,0.4
	c-0.032,0.044-0.049,0.097-0.049,0.151h0.294v0.5h-0.147v0.252l0.931-0.05c0.018-0.128,0.068-0.25,0.147-0.353l-0.049-0.5l0.1-0.1
	V9.016h0.049v0.05c0.073,0.297,0.089,0.605,0.049,0.909L11.783,12.297L11.783,12.297z M16.44,13.862v0.1h0.1v-0.1H16.44z
	 M20.949,14.016c0.084,0.044,0.063,0.045,0.146,0H20.949z M18.106,14.116c0.237,0.086,0.498,0.086,0.735,0H18.106z M18.988,14.116
	c0.205,0.082,0.433,0.082,0.637,0H18.988L18.988,14.116z M15.311,14.166c0.057,0.074,0.057,0.178,0,0.252v-0.254V14.166z
	 M16.537,14.166c0,0.054,0.017,0.107,0.049,0.151v-0.153h-0.048L16.537,14.166z M15.949,14.216v0.1h0.049v-0.051h0.049
	C16.021,14.239,15.986,14.221,15.949,14.216z M15.557,14.67h0.1v0.046C15.619,14.712,15.584,14.695,15.557,14.67L15.557,14.67z
	 M15.657,14.72h0.1v0.05c-0.039-0.005-0.075-0.024-0.102-0.054L15.657,14.72z M12.03,14.82h0.1v0.05
	c-0.039-0.005-0.075-0.024-0.102-0.054L12.03,14.82z M12.03,14.92h0.1v0.05c-0.039-0.004-0.075-0.021-0.102-0.049L12.03,14.92z
	 M12.03,15.02h0.1v0.05c-0.039-0.003-0.075-0.021-0.102-0.048L12.03,15.02z M12.03,15.12h0.1v0.05
	c-0.038-0.003-0.074-0.02-0.102-0.047L12.03,15.12z M11.54,15.52c-0.001,0.055,0.017,0.108,0.049,0.152v-0.145h-0.051L11.54,15.52z
	 M12.226,15.52c-0.001,0.055,0.016,0.108,0.049,0.152v-0.145h-0.051L12.226,15.52z M16.442,15.52
	c-0.085-0.01-0.171,0.007-0.245,0.05c0.086,0.021,0.169,0.054,0.245,0.1v-0.143V15.52z M22.369,16.284
	c0.084,0.044,0.063,0.045,0.146,0H22.369z M22.418,16.384c-0.175,0.15-0.373,0.269-0.588,0.353v0.05
	c0.064,0.024,0.135,0.024,0.199,0c0.084-0.056,0.301-0.086,0.393-0.151c0.058-0.06,0.107-0.127,0.146-0.2h-0.051
	c-0.025-0.027-0.061-0.045-0.098-0.051L22.418,16.384z M27.418,19.463c0.04,0.071,0.119,0.111,0.2,0.1v-0.1H27.418z M28.251,19.514
	v0.1h0.101v-0.098h-0.101V19.514z M28.006,22.087l-0.049,0.101c0.088-0.071,0.051-0.099,0.051-0.099L28.006,22.087z M27.663,22.188
	c-0.14,0.182-0.361,0.258-0.49,0.453h0.101c0.189-0.086,0.334-0.25,0.396-0.451L27.663,22.188z M28.251,22.387v-0.199l-0.245,0.049
	v0.101h0.1c0.043,0.034,0.094,0.053,0.147,0.054L28.251,22.387z M27.663,22.387c-0.107,0.126-0.16,0.289-0.147,0.454h0.053
	c0.135-0.118,0.283-0.219,0.441-0.3v-0.049c-0.072-0.021-0.139-0.056-0.199-0.1c0.02,0.113,0.045,0.055,0,0.15
	c-0.019-0.071-0.072-0.129-0.142-0.152L27.663,22.387z M17.516,23.296c-0.23-0.02-0.459-0.054-0.686-0.101
	c-0.057,0.268-0.156,0.522-0.294,0.758h1.226v-0.1c-0.151-0.146-0.238-0.344-0.244-0.554L17.516,23.296z M20.996,23.246h-0.391
	c-0.055,0.251-0.155,0.49-0.293,0.707h0.931v-0.1c-0.165-0.158-0.254-0.377-0.245-0.604L20.996,23.246z M24.084,23.296
	c-0.079,0.227-0.178,0.446-0.294,0.656h0.637v-0.046c-0.085-0.217-0.198-0.421-0.34-0.606L24.084,23.296z M9.868,23.396
	c-0.056,0.195-0.138,0.382-0.245,0.555h0.735v-0.045c-0.129-0.139-0.214-0.313-0.245-0.5c-0.078,0.034-0.167,0.032-0.244-0.006
	L9.868,23.396z M13.152,23.396l-0.245,0.555h1.082v-0.045c-0.109-0.152-0.192-0.32-0.245-0.5c-0.192,0.059-0.398,0.057-0.589-0.006
	L13.152,23.396z"/>
</svg>
