<?xml version="1.0" encoding="utf-8"?>
<!-- Generator: Adobe Illustrator 16.0.0, SVG Export Plug-In . SVG Version: 6.00 Build 0)  -->
<!DOCTYPE svg PUBLIC "-//W3C//DTD SVG 1.1//EN" "http://www.w3.org/Graphics/SVG/1.1/DTD/svg11.dtd">
<svg version="1.1" id="Layer_1" xmlns="http://www.w3.org/2000/svg" xmlns:xlink="http://www.w3.org/1999/xlink" x="0px" y="0px"
	 width="40px" height="40px" viewBox="0 0 40 40" enable-background="new 0 0 40 40" xml:space="preserve">
<path id="Color_Fill_1" fill="#FFFFFF" d="M11.2,16.624h0.35c0.266-0.355,0.608-0.646,1-0.852v-0.853c1.126,0.209,1.242,0.8,3,0.451
	l-0.05-0.2c-0.282,0.033-0.558-0.105-0.7-0.351c-0.135-0.185-0.114-0.44,0.05-0.6l0.9-0.05l0.05-0.351
	c-0.223-0.085-0.166-0.1-0.25-0.3l0.1-0.3c0.416-0.067,0.841-0.05,1.25,0.05c0.109,0.174,0.089,0.399-0.05,0.551
	c-0.296-0.096-0.617-0.078-0.9,0.05c0.058,0.028,0.096,0.085,0.1,0.15c0.374-0.062,0.757-0.01,1.1,0.15v-0.2l0.2,0.1
	c-0.045,0.02-0.081,0.055-0.1,0.1l2.35,0.05c0.029-0.12,0.1-0.227,0.2-0.3l0.05,0.3h1.45v0.2c-0.938,0.041-1.874,0.141-2.8,0.3
	c-0.39-0.112-0.794-0.163-1.2-0.15c-0.29,0.122-0.166,0.309-0.45,0.251v0.4l-0.55,0.1h0.1l0.3,0.1v0.05h-0.3l-0.05,0.351H15.7v0.552
	l2.45,0.451l0.2-0.351l0.3,0.1v0.351c1.366-0.318,2.855,1.139,4.8,0.7c1.261-0.167,2.536-0.183,3.8-0.05
	c1.565,0.107,3.137,0.09,4.7-0.051c2.534,0,5.333,0.201,8.05,0.201v0.699c-4.962-0.014-8.768,0.1-13.65,0.1
	c-1.416,0-4.776-0.271-5.3,0.5v0.051c0.673-0.008,1.046-0.006,1.65-0.051l-0.05,0.201c0.725,0.057,1.443,0.174,2.149,0.351v-0.05
	l-0.1-0.2l0.149-0.05l0.101,0.1l-0.101,0.251c0.266,0.017,0.529-0.054,0.75-0.2c0.592,0.385,1.307,0.527,2,0.4
	c-0.035,0.566,0.07,0.656,0.5,0.752c0.113,0.367,0.301,0.707,0.551,1l-0.051,0.1c-0.285,0.122-0.604,0.14-0.899,0.051
	c0.185,0.826-0.681,1.383-1.15,1.754c-2.026,1.603-1.688,2.064-5.45,2.064l-15.95-0.05c-1.293-0.351-2.25-1.335-3.65-1.75
	c-0.137-0.412-0.304-0.813-0.5-1.2l-0.6,0.15c-0.131-0.373-0.131-0.78,0-1.153l-0.3-0.101c0.151-0.144,0.241-0.342,0.25-0.551
	l-0.2-0.1c0.069-0.074,0.12-0.162,0.15-0.259c-0.238-0.073-0.125,0.034-0.2-0.2c0.159-0.145,0.113-0.1,0.1-0.4
	c-0.153,0-0.07,0.049-0.2-0.05v-0.3c0.261-0.1,0.292-0.145,0.55-0.251c-0.027-0.147-0.121-0.062,0-0.149
	c0.514-0.517,4.063,0.156,4.9-0.101l0.1-0.149l0.25,0.299c1.256-0.23,2.544-0.23,3.8,0v-0.399c-1.053-0.332-2.146-0.517-3.25-0.551
	l-0.05-1.2l-0.1,0.05c-0.22,0.543-0.735,0.315-1,0v-0.3c0.041-0.129,0.13-0.236,0.25-0.3c0.128-0.101,0.303-0.121,0.45-0.05
	l0.45,0.3l0.05-0.3c0.612,0.103,1.238,0.103,1.85,0l0.05-0.1l-0.1-1.864h0.4l-0.05,1.3h0.2v-0.05c-0.108-0.213-0.122-0.087-0.05-0.3
	h0.05l0.35,0.05L9,15.771h0.65l0.1-9.324v6.617l0.15,3.359c0.205-0.089,0.428-0.124,0.65-0.1c-0.029-0.149-0.046-0.3-0.05-0.451
	l0.2-0.451h0.35l0.2,0.451C11.267,15.91,11.205,16.272,11.2,16.624z M16,14.117l0.1,0.05L16,14.117z M14.95,14.267l-0.15,0.2
	l-0.05,0.2c0.176,0.225,0.423,0.383,0.7,0.451C15.244,14.859,15.075,14.573,14.95,14.267z M17.9,14.367L17.9,14.367z M18.85,14.367
	L18.85,14.367z M15.2,14.467c0.019,0.045,0.055,0.081,0.1,0.1L15.2,14.467z M15.4,14.467c0.028,0.058,0.086,0.096,0.15,0.1
	C15.521,14.509,15.464,14.472,15.4,14.467L15.4,14.467z M16.1,14.467L16.1,14.467z M9.2,16.267L9.2,16.267z M9.3,16.267l-0.1,0.299
	l0.25-0.1c-0.082-0.184,0.055-0.108-0.15-0.194V16.267z M9.5,16.267v0.2h0.05L9.5,16.267z M18.35,16.618l-0.05,0.251h0.2v-0.245
	h-0.15V16.618z M7.15,18.318l0.1,0.05L7.15,18.318z M0.65,19.17l0.1,0.051L0.65,19.17z M25.5,19.531l0.05,0.1l0.05-0.1H25.5z
	 M25.8,22.539l-0.05,0.251l0.15-0.251H25.8z M26.05,22.589L26,22.84h0.1L26.05,22.589z M26.25,22.589v0.2l0.1-0.051L26.25,22.589z
	 M25.4,22.889c-0.055,0.25-0.25,0.445-0.5,0.5l0.1,0.2l0.75-0.45L25.4,22.889z M3.55,23.289l-0.1,0.352h-0.2l0.95,0.353
	c-0.03-0.12-0.101-0.227-0.2-0.3c-0.086,0.012-0.175-0.006-0.25-0.051l0.05-0.351H3.55V23.289z M17.5,23.439
	c0.008,0.119-0.049,0.234-0.15,0.299H17.1c0.002,0.381-0.121,0.75-0.35,1.054H18c-0.16-0.269-0.247-1.06-0.4-1.253L17.5,23.439z
	 M21.2,23.689l-0.15,0.051c0.034,0.376-0.073,0.751-0.3,1.053h1v-0.046c-0.214-0.308-0.319-0.679-0.3-1.054H21.2V23.689z
	 M7.45,24.391l-0.2,0.399h0.5l-0.1-0.101c-0.019-0.123-0.092-0.231-0.2-0.295V24.391z M10.7,24.49l-0.2,0.3h0.4L10.7,24.49z
	 M13.8,24.49l-0.15,0.3H14L13.8,24.49z"/>
</svg>
