<svg xmlns="http://www.w3.org/2000/svg" width="40" height="40" viewBox="0 0 40 40">
  <defs>
    <style>
      .cls-1 {
        fill: #fff;
        fill-rule: evenodd;
      }
    </style>
  </defs>
  <path id="Color_Fill_1" data-name="Color Fill 1" class="cls-1" d="M9.791,19.279H9.939l-0.049.589a2.9,2.9,0,0,1,.64-0.1V19.426a0.238,0.238,0,0,1-.148-0.049c0.124-.072.076-0.022,0.1-0.2h0.148v-0.1a0.331,0.331,0,0,0,.049-0.2h0.344a1.119,1.119,0,0,0,.3.54H11.169v0.638a1.677,1.677,0,0,1,.394.049c0-.143-0.047-0.068,0-0.147a1.058,1.058,0,0,1,.689-0.344V19.377h0.2c0.067-.135.107-0.195,0.148-0.295a5,5,0,0,1,.049-0.687,3.409,3.409,0,0,0,.836.491,1.728,1.728,0,0,1,.836.2l0.148-.049c0.044-.017.153-0.133,0.2-0.147a5.768,5.768,0,0,0,.886-0.049,0.177,0.177,0,0,0,.049-0.1,1.519,1.519,0,0,1-.246-0.147c0.121-.064.034,0.021,0.1-0.1a0.741,0.741,0,0,1-.443-0.835c0.361,0,.453-0.005.787,0V17.266a0.238,0.238,0,0,1-.148-0.049,0.33,0.33,0,0,1-.049-0.2,0.534,0.534,0,0,1,0-.245l0.148-.049c0.249-.163.374,0.038,0.492,0.147-0.069-.146.438-0.151,0.59-0.147a0.289,0.289,0,0,0,.2.245,0.178,0.178,0,0,1-.1.049c-0.105.261-.212,0.265-0.59,0.245l-0.049-.147c-0.1.08-.23,0.115-0.344,0.2a0.27,0.27,0,0,1,.148.2,1.573,1.573,0,0,1,1.082.147v-0.2c0.16,0.041.075-.024,0.148,0.1-0.121.064-.034-0.021-0.1,0.1h0.492c0.355,0.235,1.813-.063,2.017.049-0.019-.2-0.1-0.2.049-0.295,0.024,0.475.7,0.311,1.279,0.295a0.144,0.144,0,0,1,.2,0,0.624,0.624,0,0,0-.2.049v0.049a0.319,0.319,0,0,1,.2.049,5.189,5.189,0,0,0-1.427-.049l-0.1.2H18.795a1.034,1.034,0,0,1-.394.147C18.384,17.9,17.937,17.99,17.565,18a0.2,0.2,0,0,1-.246,0,2.606,2.606,0,0,1-.394.344,0.3,0.3,0,0,0-.1-0.1v0.393a0.878,0.878,0,0,0-.541.147h0.049c0.069,0.043.276,0.053,0.344,0.1h-0.3V19.23l-0.738.049v0.54H15.7v0.049c0.59,0.012,2.108.554,2.46,0.393,0.14-.186.056-0.28,0.394-0.295L18.6,20.114a1.742,1.742,0,0,1,.049.245,0.251,0.251,0,0,0,.148.049v-0.1l0.886,0.1c0.1,0.039.142,0.2,0.246,0.245L20.615,20.7a2.544,2.544,0,0,0,.836.2v0.147L23.469,21.1a25.478,25.478,0,0,1,4.428,0c0.823,0.188,2-.1,2.558.1a4.176,4.176,0,0,0,.59-0.2,17.756,17.756,0,0,1,2.509,0,0.791,0.791,0,0,1,.3.049l0.1,0.147h0.1V21.1a11.559,11.559,0,0,1,2.116,0c0.5,0.009,1.352,0,2.116,0h0.836a2.594,2.594,0,0,0,.886.1v0.687l-4.231.049c-0.352,0-1.649-.1-1.82-0.049l-0.1.147h-3a12.53,12.53,0,0,0-3.641-.049L26.47,21.93a16.917,16.917,0,0,1-3.149.049H22.435c-0.546.128-.986,0.412-1.525,0.54v0.049h0.3a6.7,6.7,0,0,1,1.476-.049v0.049a0.25,0.25,0,0,0-.049.147,4.338,4.338,0,0,1,1.132,0,3.131,3.131,0,0,0,1.624.393,0.237,0.237,0,0,1,.049-0.147c0.036-.043.062-0.055,0.1-0.1l0.148,0.049,0.049,0.245a2.041,2.041,0,0,1,1.132.245,0.961,0.961,0,0,1,.689-0.147V23.3H27.6v0.54a3.039,3.039,0,0,1,.492.245,0.19,0.19,0,0,0-.1.147l0.2-.049a1.167,1.167,0,0,0,.443.786,0.168,0.168,0,0,1-.049.1,0.9,0.9,0,0,1-.886.1c0.009,1.166-1.039,1.709-1.722,2.209A7.479,7.479,0,0,1,23.961,28.9a5.832,5.832,0,0,1-1.525.049H6.347a4.709,4.709,0,0,1-1.23-.049A13.636,13.636,0,0,1,3,27.773c-0.374-.2-0.761-0.437-1.132-0.589-0.238-.1-0.248.122-0.344-0.049-0.244-.349-0.364-0.692-0.541-0.982a0.169,0.169,0,0,0,.1-0.049,1.73,1.73,0,0,1-.148-0.147,1.231,1.231,0,0,1-.492.147,6.676,6.676,0,0,1-.2-0.884c-0.064-.11-0.1.044-0.148-0.2a0.187,0.187,0,0,0,.148-0.1,0.187,0.187,0,0,1-.148-0.1,0.6,0.6,0,0,0,.2-0.2H0v-0.2H0.049V24.385H0.2a0.892,0.892,0,0,1,.1-0.393H0.246V23.943H0.1a2.123,2.123,0,0,0,.1-0.589H0.148A0.252,0.252,0,0,1,0,23.4V23.01l0.394-.049V22.814a0.768,0.768,0,0,0,.344-0.147H0.689V22.618c-0.144.019-.062,0.08-0.148-0.049H0.59V22.519a1.6,1.6,0,0,0,.787-0.049,0.874,0.874,0,0,0,.3.2H1.722a0.3,0.3,0,0,1-.1-0.2c1.265,0.088,2.152,0,3.592,0a0.868,0.868,0,0,0,.1.2,0.4,0.4,0,0,1,.3-0.245v0.147a0.437,0.437,0,0,1,.148.147,0.968,0.968,0,0,0,.59-0.2,0.346,0.346,0,0,0,.246.147l0.049-.147H7.036a2.535,2.535,0,0,0,1.082.2c0.044-.234.125-0.209,0.394-0.2l0.049,0.147H8.708c0.047,0,1.122.039,1.181,0h-0.3V22.274c-0.438-.091-0.884-0.319-1.279-0.442-0.342-.107-0.772.009-1.082-0.1a0.237,0.237,0,0,1-.049.147,2.17,2.17,0,0,0-.886-0.2,0.531,0.531,0,0,1-.049-0.295A2.072,2.072,0,0,0,6.3,20.556H6.15V20.7a0.888,0.888,0,0,1-.246.147c-0.505.361-.725-0.361-0.689-0.687A0.835,0.835,0,0,1,5.9,19.917a0.875,0.875,0,0,0,.443.344V19.966h0.1a1.635,1.635,0,0,0,.689.049c0.02-.129.079-0.106,0.344-0.1a0.955,0.955,0,0,0,.64.1,2.393,2.393,0,0,0,.148-1.424,0.779,0.779,0,0,1,0-.589,0.317,0.317,0,0,0,.049.2c0.1-.159.077-0.075,0.2,0V18.052A0.238,0.238,0,0,1,8.364,18h0.2a4.344,4.344,0,0,0,0,1.326c0.157-.009.061-0.037,0.2,0.049a0.644,0.644,0,0,0-.148-0.344,0.3,0.3,0,0,0,.1-0.1,1.062,1.062,0,0,0,.344.049,1.308,1.308,0,0,1-.1.295H9a2.433,2.433,0,0,1,.59-0.049,6.95,6.95,0,0,0,.049-1.62,10.3,10.3,0,0,0,.049-1.866V12.062A8.413,8.413,0,0,1,9.742,10C9.74,13.083,9.785,16.276,9.791,19.279Zm6.2-1.718v0.1h0.1v-0.1h-0.1Zm-1.132.147h0.1v0.049A0.169,0.169,0,0,1,14.859,17.708Zm0.3,0.049a0.177,0.177,0,0,0,.1.049A0.178,0.178,0,0,0,15.154,17.757Zm4.084,0.049c-0.08.049-.314,0.047-0.394,0.1a4.035,4.035,0,0,0,.787-0.049V17.806H19.237Zm-4.526.049a0.177,0.177,0,0,1,.049.1H14.711v-0.1Zm3.149,0a1.339,1.339,0,0,0,.836,0H17.86Zm-1.82.049,0.049,0.147h0.049V17.9h-0.1Zm-0.886.049a0.417,0.417,0,0,0,.394.1v-0.1h-0.2A0.275,0.275,0,0,1,15.154,17.954ZM16.925,18a0.178,0.178,0,0,0,.1.049A0.178,0.178,0,0,0,16.925,18Zm-1.968.442h0.1v0.049A0.168,0.168,0,0,1,14.957,18.444Zm0.1,0.049h0.1v0.049A0.168,0.168,0,0,1,15.055,18.494Zm0.738,0.393a0.379,0.379,0,0,0-.148.147h0.1a0.413,0.413,0,0,0,.1-0.147H15.793Zm-6.839.54v0.1H9A0.168,0.168,0,0,0,8.954,19.426Zm0.2,0.294c0.008,0.244-.038.253,0.148,0.295a0.421,0.421,0,0,0,.1-0.295H9.3s-0.01.192-.049,0.1v-0.1h-0.1Zm0.344,0a0.41,0.41,0,0,0,.049.245A0.41,0.41,0,0,0,9.5,19.721Zm-0.3.1a0.177,0.177,0,0,1,.049.1H9.2v-0.1Zm9.1,0.54h0.2V20.065H18.352v0.1A0.33,0.33,0,0,0,18.3,20.359Zm1.181-.049a0.238,0.238,0,0,1,.148.049A0.238,0.238,0,0,1,19.483,20.31ZM2.952,22.667a0.178,0.178,0,0,0,.1.049A0.177,0.177,0,0,0,2.952,22.667Zm16.679,0a0.261,0.261,0,0,0,.3,0h-0.3Zm5.166,0.1,0.148,0.049-0.049.147H24.8l-0.1-.147A0.169,0.169,0,0,0,24.8,22.765Zm0.689,0.2c0.041,0.159-.024.075,0.1,0.147V23.059h0.049V23.01H25.584A0.179,0.179,0,0,0,25.486,22.961ZM27.011,23.4c0.085,0.043.063,0.044,0.148,0H27.011Zm0.492,0a0.237,0.237,0,0,0,.049.147A0.237,0.237,0,0,0,27.5,23.4ZM26.814,25.22v0.1h0.1v-0.1h-0.1Zm0,0.245v0.1h0.1v-0.1h-0.1Zm-0.1.2a0.19,0.19,0,0,0,.148.1v-0.1H26.716Zm-0.1.147c0.041,0.159-.024.075,0.1,0.147A0.187,0.187,0,0,0,26.618,25.809Zm-0.787.147a0.267,0.267,0,0,0-.1.245,0.177,0.177,0,0,0,.1.049v-0.1a0.967,0.967,0,0,0,.1-0.2h-0.1Zm0.59,0L26.47,26.1h0.049V26.054h0.049V26.005H26.519A0.177,0.177,0,0,0,26.421,25.956Zm-0.394.049-0.049.295h0.1V26.251C26.153,26.128,26.12,26.089,26.027,26.005Zm0.2,0v0.245h0.049V26.2h0.049l0.049-.1H26.322C26.259,25.982,26.343,26.07,26.224,26.005Zm-0.886.344a1.378,1.378,0,0,1-.1.1,0.375,0.375,0,0,0,.049.2c-0.137.217-.35,0.022-0.394,0.393h0.049v0.049l0.836-.54A0.741,0.741,0,0,0,25.338,26.349Zm-21.894.687a0.29,0.29,0,0,0-.2,0H3.2v0.049a3.419,3.419,0,0,1,.984.393V27.184a0.635,0.635,0,0,1-.394-0.147,1.406,1.406,0,0,1,0-.295h-0.3A0.9,0.9,0,0,0,3.444,27.036Zm13.629,0.1a1.692,1.692,0,0,1-.394,1.129h1.328v-0.1c-0.421-.316-0.167-1.157-0.541-1.277C17.446,27.167,17.365,27.15,17.073,27.134Zm3.985,0a2.387,2.387,0,0,1-.344,1.129H21.8v-0.1c-0.483-.346-0.17-0.877-0.344-1.227a0.62,0.62,0,0,1-.049.2H21.058Zm-13.629.638a1.059,1.059,0,0,1-.246.491h0.59V28.215A1.645,1.645,0,0,0,7.429,27.773Zm3.2,0.147a0.958,0.958,0,0,1-.2.344h0.492V28.215A1.528,1.528,0,0,0,10.627,27.92Zm3.149,0a1.33,1.33,0,0,1-.2.344h0.443v-0.1C13.917,28.092,13.876,28,13.776,27.92Z" transform="translate(0 0.516)"/>
</svg>
