<svg xmlns="http://www.w3.org/2000/svg" width="40" height="40" viewBox="0 0 40 40">
  <defs>
    <style>
      .cls-1 {
        fill: #fff;
        fill-rule: evenodd;
      }
    </style>
  </defs>
  <path id="Color_Fill_1" data-name="Color Fill 1" class="cls-1" d="M11.768,11a0.18,0.18,0,0,1,.048.1H11.768V11Zm-0.1,6.573h0.242a2.4,2.4,0,0,0,.048.4L12.2,18.116c0.056,0.106,0,.268.048,0.346V18.314a1.24,1.24,0,0,0,.484-0.2,5.241,5.241,0,0,1,1.55.3,0.34,0.34,0,0,1-.145.247A0.243,0.243,0,0,0,14,18.611a2.842,2.842,0,0,0-.242.544,1.034,1.034,0,0,1,.581.3c0.3,0.1.437-.082,0.726,0a1.928,1.928,0,0,0,.581.1V19.4h-0.29L15.3,19.3a0.75,0.75,0,0,1,.242-0.049,0.174,0.174,0,0,0,.1.049V18.561a0.261,0.261,0,0,1-.194,0,9.572,9.572,0,0,0-.242-1.137l0.339,0.049c0.04-.16-0.024-0.076.1-0.148v0.148h0.145c0.029-.342-0.063-0.429-0.048-0.791a1.374,1.374,0,0,1,.436-0.049,1.06,1.06,0,0,0,.194.2V16.683h0.484a0.921,0.921,0,0,1,.048.247c-0.093.24-.141,0.262-0.484,0.247-0.151-.211-0.094-0.048-0.387,0v0.148a2.316,2.316,0,0,1,1.065.148v-0.2c0.157,0.041.074-.024,0.145,0.1a0.179,0.179,0,0,0-.048.1h0.387a2.5,2.5,0,0,0,.968.049c0.682,0,.692,0,1.211,0a3.843,3.843,0,0,1,.969,0c-0.157.041-.074-0.024-0.145,0.1a0.232,0.232,0,0,1,.145.049,4.793,4.793,0,0,0-1.308-.049,0.473,0.473,0,0,1-.145.2,2.15,2.15,0,0,0-.678-0.05,1,1,0,0,1-.387.148v-0.1a0.165,0.165,0,0,0,.1-0.05,3.208,3.208,0,0,0-1.259.1,0.549,0.549,0,0,1-.242.148v0.346H16.223a1.016,1.016,0,0,0-.049-0.346H16.126a1.33,1.33,0,0,0,0,.593c-0.2,0-.116-0.081-0.194.049a3.136,3.136,0,0,1,0,.939,0.3,0.3,0,0,1,.242.1V19.549a0.6,0.6,0,0,1,.194.049,1.022,1.022,0,0,1-.1-0.544,0.478,0.478,0,0,1,.581-0.247,0.343,0.343,0,0,0,.194.1,0.788,0.788,0,0,1,.048.247,1.744,1.744,0,0,0-.1.445,0.53,0.53,0,0,1,.484.445l1.743,0.346,0.048-.247a0.677,0.677,0,0,1,.194-0.049,0.173,0.173,0,0,0,.1.049v0.346a4.086,4.086,0,0,1,1.017.049c0.193,0.052.4,0.208,0.581,0.247a2.672,2.672,0,0,1,.969.1,1.591,1.591,0,0,0,.1.2,2.8,2.8,0,0,0,.484.148c0.181,0.051.5,0.021,0.63,0.049a2.783,2.783,0,0,0,.823-0.049,16.993,16.993,0,0,1,2.663.148,6.521,6.521,0,0,1,.969,0h1.453c0.052,0.013.275,0.145,0.29,0.148,0.082,0.019.424-.1,0.63-0.1l2.663,0.049,3.293,0.049c0.368,0.047,1.285.049,1.986,0.049H39.08a5.029,5.029,0,0,0,.92.148v0.593c-2.012,0-4.1.09-6.1-.1-1.319-.124-2.846.221-4.261-0.1l-0.63.049a15.424,15.424,0,0,1-2.131-.049H22.663a1.348,1.348,0,0,0-.484.247l-0.049.148c-0.292.161-.263-0.146-0.484,0.2h0.339a1.281,1.281,0,0,1,.92-0.1v0.247H23.1a0.242,0.242,0,0,1,.048-0.148,3.29,3.29,0,0,0,2.47.2,0.244,0.244,0,0,0,.194.247,1.138,1.138,0,0,1,.775.1c0.914,0.217,1.92-.006,2.034.988-0.157.041-.074-0.024-0.145,0.1a0.847,0.847,0,0,1,.145.544,1.478,1.478,0,0,1-.969,1.384,11.672,11.672,0,0,1-2.324,1.581,11.339,11.339,0,0,1-2.712.049H6.586a8.024,8.024,0,0,1-2.179-1.137A10.923,10.923,0,0,1,3.1,26.073c-0.276-.23-0.119-0.723-0.581-0.791a0.637,0.637,0,0,1-.048.2,0.663,0.663,0,0,1-.484-0.1,0.545,0.545,0,0,1-.048-0.3H1.55a2.088,2.088,0,0,0-.291-0.3,0.5,0.5,0,0,1-.1-0.4,0.6,0.6,0,0,0,.194-0.2h-0.1A0.957,0.957,0,0,1,0,23.651a0.3,0.3,0,0,0,.1-0.1H0.145A0.892,0.892,0,0,0,1.162,24a2.291,2.291,0,0,1,.291-0.148l0.291-.4V23.206a0.4,0.4,0,0,0,.242-0.049c-0.123-.072-0.055.011-0.1-0.148a0.989,0.989,0,0,1,.242-0.1c0.052,0.082.161,0.058,0.291-.049a0.262,0.262,0,0,0,0-.247H2.663a1.466,1.466,0,0,1,.823-0.148,0.263,0.263,0,0,0,.242.1,7.991,7.991,0,0,1,2.615-.148c0.084,0.02.015,0.089,0.048,0.1a15.334,15.334,0,0,1,1.84-.1,13.036,13.036,0,0,0,1.453,0L12.3,22.465V22.02a19.729,19.729,0,0,0-4.5-.544l0.048-1.483a13.05,13.05,0,0,0,1.55,0V19.747L9.976,19.8v0.2c0.656,0,.829.134,1.356,0.148v-0.1a0.98,0.98,0,0,0,.1-0.2,0.308,0.308,0,0,1-.194-0.049c0.157-.041.074,0.024,0.145-0.1l-0.145-.049a0.276,0.276,0,0,0,.1-0.247h-0.1V18.907h0.242c0.04,0.16-.024.076,0.1,0.148V18.512h-0.29l0.048-.445c0.239-.059.254-0.134,0.242-0.445a4.462,4.462,0,0,0,.048-1.433c0.052-.952.1-2.091,0.1-3.064a4.109,4.109,0,0,1,.049-1.433Zm7.7-.346a0.339,0.339,0,0,1,.048.2h-0.1v-0.1A0.18,0.18,0,0,0,19.371,17.227Zm-3.341.148v0.1h0.145V17.424Zm-1.162.148h0.1v0.049A0.166,0.166,0,0,1,14.867,17.523Zm5.86,0a0.179,0.179,0,0,1,.048.1H20.726v-0.1Zm-5.23.049a0.173,0.173,0,0,0,.1.049A0.173,0.173,0,0,0,15.5,17.573Zm2.228,0.049a1.068,1.068,0,0,0,.726,0H17.724Zm0.872,0a0.961,0.961,0,0,0,.678,0H18.6Zm-3.874.1a0.255,0.255,0,0,1,.048.148H14.722V17.721Zm0.775,0c0.083,0.044.062,0.044,0.145,0H15.5ZM16.8,17.77a0.173,0.173,0,0,0,.1.05A0.173,0.173,0,0,0,16.8,17.77Zm-1.985.2a0.18,0.18,0,0,1,.048.1H14.818v-0.1Zm1.114,0.1v0.1h0.048v-0.1H15.932Zm-4.068,1.581c0.19,0.032.176,0.075,0.387,0.1V19.9a0.308,0.308,0,0,1,.194.05c-0.283-.017-0.2-0.047-0.436-0.05v0.2h0.048c0.071-.126-0.011-0.056.145-0.1v0.049h0.048l-0.048.1h0.048a0.174,0.174,0,0,0,.1.05,1.489,1.489,0,0,0,.242-0.593,0.6,0.6,0,0,0,.194-0.049,1.18,1.18,0,0,0-.048-0.2V19.3c-0.169,0-.2-0.123-0.484-0.148V18.611a1.034,1.034,0,0,1-.339-0.1V18.66C11.95,18.708,11.871,19.271,11.864,19.648Zm0.194-1.038a0.178,0.178,0,0,1,.048.1H12.058v-0.1Zm1.792,0.642L13.9,19.4H14l-0.049-.1H14A0.244,0.244,0,0,0,13.85,19.253Zm-2.373.049a1.983,1.983,0,0,0-.048.4h0.048V19.648A0.338,0.338,0,0,0,11.477,19.3Zm1.986,0.049V19.5h0.194V19.352H13.463Zm-2.276.3a0.255,0.255,0,0,1,.048.148H11.186V19.648Zm2.663,0a0.173,0.173,0,0,0,.1.049A0.172,0.172,0,0,0,13.85,19.648Zm5.472,0.791h0.145V20.192h-0.1v0.049A0.338,0.338,0,0,0,19.322,20.439Zm1.937,2.273a0.227,0.227,0,0,0,.242.1V22.762ZM0.048,23.7v0.1H0.1V23.75H0.145A0.174,0.174,0,0,0,.048,23.7Zm1.937,0.1a1.033,1.033,0,0,1-.436.3v0.049H1.743a3.024,3.024,0,0,1,.387,0v-0.1A1.115,1.115,0,0,0,1.985,23.8Zm-0.145.4a0.188,0.188,0,0,0,.1.148,0.138,0.138,0,0,0,.048.049A0.267,0.267,0,0,0,1.84,24.195Zm0.145,0.3a0.324,0.324,0,0,0,.048.2A0.324,0.324,0,0,0,1.985,24.491Zm25.133,0.89H26.78V25.43a1.031,1.031,0,0,0,.339.2V25.381Zm-0.63.049a0.808,0.808,0,0,0-.436.445,0.73,0.73,0,0,0,.145.346,2.642,2.642,0,0,0,.678-0.494A4.369,4.369,0,0,0,26.489,25.43Zm-14.625.939a2.5,2.5,0,0,1-.387.791h0.1a2.733,2.733,0,0,1,1.162,0V27.111a1.435,1.435,0,0,1-.339-0.741H11.864Zm4.407,0h-0.63a1.858,1.858,0,0,1-.387.791H15.3a2.461,2.461,0,0,1,1.259,0v-0.1A0.961,0.961,0,0,1,16.271,26.369Zm3.874,0.049-0.775-.049a1.647,1.647,0,0,1-.387.791h0.1a2.711,2.711,0,0,1,1.356,0v-0.1A0.787,0.787,0,0,1,20.145,26.419Zm3,0.148a1.876,1.876,0,0,0-.387.593h0.726v-0.1C23.317,26.934,23.3,26.7,23.148,26.567ZM8.62,26.715c-0.048.193-.136,0.268-0.194,0.445H8.475a0.556,0.556,0,0,1,.436,0V27.111C8.795,27,8.732,26.832,8.62,26.715Z" transform="translate(0 0.516)"/>
</svg>
