<svg xmlns="http://www.w3.org/2000/svg" width="39.969" height="40" viewBox="0 0 39.969 40">
  <defs>
    <style>
      .cls-1 {
        fill: #fff;
        fill-rule: evenodd;
      }
    </style>
  </defs>
  <path id="Color_Fill_1" data-name="Color Fill 1" class="cls-1" d="M15.943,17.361l1.613,0.094a0.824,0.824,0,0,0,.047.376h0.332a3.242,3.242,0,0,0,1.281.141,1.266,1.266,0,0,0,.522.094l0.047-.141a2.337,2.337,0,0,0,.569,0,4.2,4.2,0,0,0,1.044.47c-0.006-.189-0.026-0.257.095-0.329a3.628,3.628,0,0,1,1.945-.047v0.47c-0.255.034-.364,0.146-0.617,0.188a3.417,3.417,0,0,0,0,.423c5.54,0.222,11.556.163,17.177,0.188v0.705c-0.669-.023-1.646.046-2.515,0.047H36.916c-0.046.015,0.037,0.119-.095,0.094-0.04-.007-0.214-0.168-0.285-0.188l-1.139.047H32.456a10.931,10.931,0,0,0-2.088.047H27.853c-1.74,0-3.513.033-5.077,0.141,0.021,0.222-.161.277-0.38,0.376v0.047h0.285a1.023,1.023,0,0,1,.617.094c0.213,0.039.366-.139,0.664-0.141l-0.047.094h0.047a1.542,1.542,0,0,1,1.186-.047c-0.022.341-.286,0.642-0.047,0.752a0.172,0.172,0,0,0,.095.047c-0.058-.513.36-0.688,1.044-0.658a0.172,0.172,0,0,0,.095.047,0.617,0.617,0,0,1,.095.376,0.169,0.169,0,0,0-.047.094,0.863,0.863,0,0,1,.427.235c0.139,0.057.776-.042,1.044,0.047a4.136,4.136,0,0,1,1.091.705,1.161,1.161,0,0,1,.475.282,2.814,2.814,0,0,0-.142.376,0.719,0.719,0,0,0-.19-0.094,4.276,4.276,0,0,0-.427.517,6.182,6.182,0,0,1-.237.987,3.984,3.984,0,0,1-1.044.752,11.674,11.674,0,0,1-2.515,1.74,7.763,7.763,0,0,1-2.135.094H10.771a16.183,16.183,0,0,1-3.559-.094,8.443,8.443,0,0,1-1.281-.752c-0.543-.327-1.1-0.481-1.661-0.8A3.015,3.015,0,0,1,3.7,24.6c-0.083-.085-0.246-0.1-0.332-0.188a1.162,1.162,0,0,1-.332.094,2.09,2.09,0,0,1-.807-1.128c-0.05-.185,0-0.429-0.047-0.564a2.5,2.5,0,0,1-.474.282,1.53,1.53,0,0,0-.285.047A1.353,1.353,0,0,1,.047,21.593a1.316,1.316,0,0,1,2.467-.282,1.736,1.736,0,0,1,.664,0V21.263a0.564,0.564,0,0,1-.142-0.376,0.686,0.686,0,0,1,.237.047V20.793a1.388,1.388,0,0,0,.332.141s0.249-.133.285-0.141a4.256,4.256,0,0,1,1.851,0V20.7a0.239,0.239,0,0,0,.047-0.141c0.726,0,1.53,0,2.183.047a0.226,0.226,0,0,0,.047.141V20.7A0.389,0.389,0,0,1,8.3,20.511a3.935,3.935,0,0,0,1.8.141V19.806c-0.066-.01.019,0.039-0.047,0.047-0.037.09-.047-0.094-0.047-0.094,0.379-.377-0.127-1.2-0.285-1.552h0.427l0.19,0.611h0.048V18.771a1.263,1.263,0,0,0,.237-0.282c-0.237-.181-0.383-0.468-0.617-0.658l0.047-.141h0.047v0.188a0.5,0.5,0,0,1,.427.141V17.878c-0.117-.061-0.032.02-0.095-0.094a0.363,0.363,0,0,0,.142-0.141v0.094h0.095V17.69a1.329,1.329,0,0,1,.285-0.376v0.094a1.125,1.125,0,0,1,.142.517h0.19a0.539,0.539,0,0,0,.095-0.329H11.34v0.047c-0.032.036-.062,0.1-0.095,0.141a5.113,5.113,0,0,0-.19-0.705,1.028,1.028,0,0,1,.332-0.047,0.171,0.171,0,0,0,.095.047v0.141a0.239,0.239,0,0,0-.047.141l0.285,0.047V17.361c-0.1-.125-0.026-0.085,0-0.329,0.153,0.019.393,0.068,0.522,0.094l0.569-.047v0.094h0.332a5.027,5.027,0,0,1,.522-0.141V16.89c-0.983,0-1.742-.091-2.657-0.094V16.655c0.693,0,1.1-.051,1.708-0.047V16.467a1.145,1.145,0,0,0,.522-0.047H10.249c-0.014-.039-0.092-0.166,0-0.188h-1a0.172,0.172,0,0,1-.095.047V16H9.253a1.444,1.444,0,0,0,.617.047V15.9h0.142v0.141a23.023,23.023,0,0,0,3.274-.141,1.191,1.191,0,0,0,.19.094l0.095-.188,1-.047a0.606,0.606,0,0,0,0,.235h0.142a0.226,0.226,0,0,1,.047-0.141,0.413,0.413,0,0,1,.237-0.047,0.243,0.243,0,0,0,.142.047V15.715h-0.38a2.957,2.957,0,0,1,0-.658h0.759a2.11,2.11,0,0,1,.047.611,1.027,1.027,0,0,1-.332.047,0.226,0.226,0,0,0,.048.141,0.481,0.481,0,0,0,.285.188A0.413,0.413,0,0,1,15.8,16a0.226,0.226,0,0,0,.047.141V13.176A3.216,3.216,0,0,1,15.9,12C15.893,13.777,15.9,15.66,15.943,17.361ZM9.87,15.621h0.142v0.235H9.87V15.621Zm4.081,0.235V15.95h0.237V15.856H13.95ZM14.852,16c0.185,0,.214.023,0.285-0.094h-0.19a0.171,0.171,0,0,0-.095-0.047V16Zm-1.234-.047v0.094h0.095V15.95H13.618Zm1.613,0c0.1,0.113.045,0.01,0.142,0.047C15.4,15.912,15.277,15.959,15.231,15.95ZM9.015,16H9.11a0.484,0.484,0,0,1-.047.188v0.094a0.169,0.169,0,0,1-.047-0.094H8.968ZM15.8,17.361a2.442,2.442,0,0,0,0-1.128,1.851,1.851,0,0,1-.569,1.035h0.095A0.926,0.926,0,0,0,15.8,17.361ZM14.33,16.326V16.42h0.047A0.161,0.161,0,0,0,14.33,16.326Zm-0.854.094a0.14,0.14,0,0,0,.19,0h-0.19Zm-1.8,1.128c0.082,0.041.061,0.042,0.142,0H11.673Zm-1.566.094,0.285,0.047v0.047H10.249C10.213,17.7,10.143,17.675,10.107,17.643Zm14.614,3.15a0.6,0.6,0,0,0,.047.329V20.746a0.169,0.169,0,0,1-.047-0.094,2.367,2.367,0,0,0-.664-0.047v0.047H24.1c0.035,0.041.06,0.053,0.095,0.094a2.7,2.7,0,0,1,.332-0.094A0.179,0.179,0,0,0,24.721,20.793Zm-14-.047c0.082,0.041.061,0.042,0.142,0H10.724Zm0.759,0a0.481,0.481,0,0,0,.427,0H11.483Zm8.683,0a0.481,0.481,0,0,0,.427,0H20.166Zm0.474,0c0.082,0.041.061,0.042,0.142,0H20.641Zm4.887,0.047c0,0.105-.01.033,0.095,0.047V20.793H25.528Zm0.38,0.47H26.1a1.424,1.424,0,0,0,.142-0.376,0.847,0.847,0,0,0-.474-0.094V20.84A0.523,0.523,0,0,1,25.908,21.263Zm0.38-.376-0.047.329h0.095V21.122C26.409,21,26.377,20.967,26.287,20.887ZM2.8,21.357a0.373,0.373,0,0,0,0,.188H2.894A0.186,0.186,0,0,0,2.8,21.357Zm0.142,0.235a0.172,0.172,0,0,0,.095.047A0.172,0.172,0,0,0,2.942,21.593Zm0.19,0.141a0.557,0.557,0,0,0-.522.423H2.657a1.512,1.512,0,0,1,.522-0.235A0.66,0.66,0,0,1,3.132,21.734Zm-0.19.423a0.34,0.34,0,0,1-.19.094V22.3a1.211,1.211,0,0,1,.569.329V22.58A1.183,1.183,0,0,0,2.942,22.157Zm0.285,0.564a1,1,0,0,1-.095.235H3.179V22.909C3.254,22.82,3.269,22.812,3.227,22.721ZM3.511,23.9V23.661c-0.139.018-.059,0.077-0.142-0.047,0.134-.133.106-0.122,0.095-0.329H3.369a1.137,1.137,0,0,1-.759.282,0.7,0.7,0,0,1-.095-0.188A1.782,1.782,0,0,1,2.8,23.238V23.191a0.4,0.4,0,0,1-.237-0.047A0.164,0.164,0,0,0,2.657,23.1a0.978,0.978,0,0,1-.285-0.188V23c0.158,0.168-.034,1,0.569,1.035a0.678,0.678,0,0,1,.38-0.329,0.135,0.135,0,0,0,.047.047L3.321,23.9h0.19Zm-1.044-.8H2.562v0.047H2.467V23.1Zm1,0.047a0.172,0.172,0,0,0,.095.047A0.172,0.172,0,0,0,3.464,23.144Zm2.7,1.787H5.979a0.706,0.706,0,0,0-.095.188,2.692,2.692,0,0,0,.332.094V25.166A0.4,0.4,0,0,1,6.168,24.931Zm15.848,0.047H20.925a5.559,5.559,0,0,1-.474,1.128h2.04V26.06A1.456,1.456,0,0,1,22.017,24.978Zm3.843,0a0.172,0.172,0,0,0,.095.047A0.171,0.171,0,0,0,25.86,24.978Zm-15.99.47a2.542,2.542,0,0,1-.332.658H10.3V26.06C10.1,25.9,10.061,25.6,9.87,25.448ZM13.523,25.5a2.737,2.737,0,0,1-.332.611H13.9V26.013A3.207,3.207,0,0,1,13.523,25.5Zm3.654,0a3.481,3.481,0,0,1-.38.611h0.759V26.06A2.331,2.331,0,0,1,17.177,25.5Zm-1.851.564a0.172,0.172,0,0,0,.095.047A0.171,0.171,0,0,0,15.326,26.06Zm8.4,0a0.172,0.172,0,0,0,.095.047A0.172,0.172,0,0,0,23.725,26.06Z" transform="translate(-0.031 0.516)"/>
</svg>
