<?xml version="1.0" encoding="utf-8"?>
<!-- Generator: Adobe Illustrator 16.0.0, SVG Export Plug-In . SVG Version: 6.00 Build 0)  -->
<!DOCTYPE svg PUBLIC "-//W3C//DTD SVG 1.1//EN" "http://www.w3.org/Graphics/SVG/1.1/DTD/svg11.dtd">
<svg version="1.1" id="Layer_1" xmlns="http://www.w3.org/2000/svg" xmlns:xlink="http://www.w3.org/1999/xlink" x="0px" y="0px"
	 width="40px" height="40px" viewBox="0 0 40 40" enable-background="new 0 0 40 40" xml:space="preserve">
<path id="Color_Fill_1" fill="#FFFFFF" d="M8.634,4c0.064,0.106,0.064,0.239,0,0.346V4z M14.049,11.96l0.049-0.593h0.146
	l0.049,0.643c0.226,0.04,0.441,0.124,0.634,0.247v-0.149c-0.005-0.267,0.207-0.488,0.474-0.494c0.005,0,0.009,0,0.014,0
	c0.031-0.193,0.075-0.18,0.1-0.4c0.394,0.013,0.786,0.063,1.171,0.148v0.3c0.523,0.019,1.044,0.068,1.561,0.148
	c-0.356,0.048-0.717,0.048-1.073,0v0.05c0.109,0.283,0.144,0.59,0.1,0.89c0.407,0.147,0.851,0.165,1.268,0.049
	c0.281,0.456,0.467,0.1,0.781,0.3c0.144,0.199,0.326,0.367,0.537,0.494c0.314,0.07,0.515-0.4,0.781-0.3
	c0.049,0.082,0.117,0.151,0.199,0.2c0.092-0.123,0.236-0.197,0.391-0.2l0.1,0.2c0.121-0.104,0.279-0.157,0.439-0.148
	c0.09,0.093,0.141,0.216,0.146,0.346c-0.054,0.025-0.104,0.059-0.146,0.1h0.39c0.319,0.078,0.65,0.094,0.976,0.049h2.439l8.39,0.049
	v0.641c-4.34,0-8.629,0.094-13.024,0.1v0.049c0.176,0.101,0.313,0.258,0.391,0.445h-0.257c-0.124-0.05-0.259-0.067-0.39-0.049v0.049
	h0.049c0.074,0.041,0.159,0.058,0.244,0.049v0.148l2.199,0.1c0.455-0.048,0.916-0.032,1.366,0.049c0.468,0.2,0.787-0.161,1.269,0.2
	c-0.001-0.053,0.016-0.105,0.049-0.148c0.02,0.178-0.023,0.125,0.1,0.201c0.082-0.16,0.277-0.227,0.439-0.148
	c0.076,0.057,0.017,0.1,0.293,0.1c0.07,0.131,0.233,0.18,0.364,0.108c0.028-0.015,0.054-0.035,0.074-0.06
	c-0.124-0.072-0.055,0.012-0.101-0.147c0.213,0.056,0.076,0.114,0.201,0.2h0.34c0.265,0.076,0.553,0.221,0.879,0.3
	c0.484,0.112,1.143-0.251,1.512-0.05H30c-0.041,0.097-0.041,0.205,0,0.301h0.1c0.068-0.15,0.229-0.232,0.391-0.2
	c0.172,0.071,0.353,0.121,0.537,0.147c0.06,0.076,0.108,0.158,0.146,0.248c0.245-0.045,0.496-0.028,0.731,0.049
	c0.471-0.074,0.951-0.057,1.416,0.049c0.084,0.256,0.08,0.308,0.438,0.3c0.019-0.093,0.105-0.157,0.2-0.147
	c0.014,0.086,0.067,0.16,0.146,0.199c0.57,0.166,1.162,0.249,1.756,0.247V17.15c-0.037-0.041-0.059-0.095-0.062-0.15
	c0.538-0.049,1.079,0.055,1.562,0.3c-0.042,0.097-0.076,0.198-0.1,0.3h0.243c0.181,0.093,0.392,0.11,0.585,0.049h-0.236
	c-0.005-0.068-0.021-0.136-0.049-0.199h0.342c0.471,0.156,0.967,0.225,1.463,0.199c-0.02,0.088-0.054,0.171-0.1,0.248h0.1
	c0.063-0.123-0.021-0.035,0.101-0.101v0.147h0.2c0.037,0.131,0.059,0.119,0.1,0.248c-0.09,0.07-0.13,0.188-0.1,0.3
	c-0.069,0.005-0.137,0.021-0.2,0.049l0.049,0.101h-0.052c-0.586,0.34-1.048,0.859-1.316,1.482c-0.102-0.017-0.204,0.001-0.293,0.049
	c0.105,0.087,0.178,0.21,0.199,0.346c-0.266,0.277-0.191,0.506-0.781,0.494v-0.055h0.049c0.108-0.048,0.193-0.137,0.235-0.247
	h-0.044v-0.049c-0.064-0.024-0.135-0.024-0.199,0c-0.148,0.054-0.271,0.16-0.343,0.3h0.146c0-0.053,0.018-0.105,0.05-0.148v0.101
	c0.038,0.005,0.073,0.021,0.1,0.049c-0.026,0.155-0.075,0.305-0.146,0.445c0.014-0.103-0.004-0.207-0.049-0.3v0.05
	c-0.033,0.097-0.049,0.198-0.049,0.3h-0.045c0.023-0.141-0.07-0.272-0.211-0.297c-0.012-0.002-0.022-0.003-0.033-0.003V21.2
	c-0.101,0.073-0.146,0.17-0.244,0.247c0.365,1.775-0.768,2.078-1.801,2.719c-0.691,0.427-1.434,0.8-2.146,1.236
	c-0.269,0.205-0.563,0.371-0.878,0.494c-0.792,0.11-1.594,0.127-2.391,0.049H8.146c-0.618,0.061-1.24,0.043-1.854-0.049
	c-0.795-0.335-1.536-0.785-2.2-1.336c-0.948-0.631-2.475-1.111-2.78-2.373c-0.046-0.406,0.023-0.817,0.2-1.187H0.78
	c-0.188-0.058-0.386-0.073-0.58-0.044c0.107-0.548,0.323-1.068,0.634-1.533h-0.2c-0.1,0.129-0.06,0.032-0.293,0l-0.1-3.213H0v-1.137
	c0.537,0.033,1.076,0.016,1.61-0.05c0.203,0.008,0.403,0.059,0.585,0.148c0.043-0.037,0.055-0.062,0.1-0.1v0.148h0.144
	c0-0.054,0.017-0.105,0.049-0.148c0.14-0.053,0.291-0.07,0.439-0.05c0.212,0.032,0.429,0.016,0.634-0.049
	c0.046,0.168,0.019,0.154,0.2,0.2c0.005-0.069,0.022-0.136,0.049-0.2c0.552,0.055,1.107,0.055,1.659,0
	c0.1,0.337,0.548,0.268,0.976,0.247c0.116-0.027,0.229-0.06,0.341-0.1c-0.053,0-0.104-0.017-0.146-0.049h0.2
	c0.04,0.16-0.024,0.075,0.1,0.148c0.079-0.03,0.166-0.03,0.244,0v-0.2c0.103,0.035,0.189,0.106,0.244,0.2c0,0,0.772-0.1,0.878-0.1
	v0.351h0.035c0.027-0.027,0.063-0.044,0.1-0.049c0.034-0.097,0.034-0.203,0-0.3h0.1c0.242,0.041,0.487,0.057,0.732,0.049h0.044
	c-0.029,0.079-0.046,0.163-0.049,0.247H9.61v-0.343c0.101,0.013,0.203-0.005,0.293-0.05H9.61v-0.1
	c0.063-0.006,0.118-0.044,0.146-0.1c-0.323-0.017-0.639-0.101-0.927-0.247c-0.097-0.354-0.131-0.723-0.1-1.088
	c-0.381-0.002-0.689-0.312-0.687-0.693c0-0.032,0.002-0.064,0.007-0.096C8.055,12.583,8.038,12.466,8,12.355l0.146-0.05L8.2,11.712
	h0.1c0.034-0.083-0.078-0.2-0.049-0.346c0.19-0.93,0.024-2.193,0.244-3.164c0.09-0.4-0.028-0.947,0.049-1.285
	c0.13-0.573-0.13-2.2,0.1-2.571L8.488,10.13c-0.057,0.546-0.023,1.098,0.1,1.632c0.021,0.181,0.021,0.363,0,0.544
	c0.389,0.418,0.629-0.411,1.073-0.346c0.53-0.103,1.07-0.152,1.61-0.148C12.192,11.933,13.121,11.982,14.049,11.96z M15.805,11.07
	h0.1v0.049c-0.04-0.003-0.077-0.021-0.105-0.049H15.805z M15.22,11.663c-0.133,0.191-0.217,0.412-0.244,0.643l0.146,0.1
	C15.247,12.179,15.282,11.914,15.22,11.663z M17.659,11.91h0.1v0.05C17.721,11.955,17.686,11.938,17.659,11.91z M17.415,12.058h0.1
	v0.05C17.477,12.104,17.441,12.085,17.415,12.058z M8.78,13.69c0,0.053,0.017,0.105,0.049,0.148V13.69H8.78z M3.17,15.025v0.1h0.342
	v-0.1H3.17L3.17,15.025z M4.682,15.125c0.027,0.027,0.062,0.044,0.1,0.049C4.755,15.147,4.721,15.129,4.682,15.125L4.682,15.125z
	 M27.561,15.867c0.084,0.043,0.062,0.044,0.146,0H27.561L27.561,15.867z M31.023,16.51v-0.15l-0.342-0.049l-0.049,0.2L31.023,16.51
	L31.023,16.51z M32.877,16.609c-0.096-0.029-0.197-0.029-0.293,0c-0.056,0.03-0.093,0.086-0.1,0.148h0.244
	c0.076,0.061,0.024,0.032,0.1,0c0.032-0.043,0.05-0.097,0.05-0.15L32.877,16.609z M32.926,16.659V16.8l0.244,0.05v-0.144
	c-0.078-0.03-0.16-0.047-0.243-0.05L32.926,16.659z M36.2,17.15c0.106,0.16,0.311,0.223,0.487,0.148
	c0.027-0.027,0.045-0.063,0.049-0.1C36.557,17.212,36.375,17.195,36.2,17.15z M37.127,17.251c-0.053-0.001-0.104,0.017-0.146,0.049
	c0.057,0.03,0.094,0.085,0.101,0.148h0.049v-0.2L37.127,17.251z M37.078,17.498c0.081,0.055,0.052,0.087,0.1,0H37.078z
	 M38.15,20.365c-0.068,0.005-0.136,0.021-0.199,0.049v0.1h0.1c0.047,0.012,0.02,0.039,0.049,0c0.031-0.043,0.047-0.096,0.047-0.149
	L38.15,20.365z M34.932,23.184c0.055,0.055,0.145,0.055,0.199,0c0.001,0,0.001,0,0.001,0H34.932z M3.615,23.232
	c0.475,0.357,1.001,0.641,1.561,0.841v-0.347c0.027-0.027,0.044-0.063,0.049-0.101c-0.512-0.222-1.058-0.355-1.615-0.394H3.615z
	 M14.688,23.533c-0.184,0.154-0.593,0.1-0.78,0.246c-0.035,0.213-0.051,0.428-0.049,0.644c-0.105,0.27-0.254,0.521-0.439,0.742h2.1
	v-0.056c-0.43-0.404-0.583-1.023-0.39-1.582h-0.447L14.688,23.533z M20.151,23.533c-0.405-0.025-0.81,0.061-1.171,0.246
	c-0.053,0.245-0.086,0.493-0.1,0.742c-0.104,0.229-0.235,0.445-0.39,0.644h2.049v-0.056c-0.395-0.424-0.543-1.021-0.393-1.582
	L20.151,23.533z M29.029,23.533c-0.184,0.154-0.594,0.1-0.78,0.246c-0.05,0.246-0.083,0.493-0.101,0.742
	c-0.107,0.228-0.237,0.443-0.39,0.644h1.8v-0.056c-0.396-0.424-0.527-1.031-0.341-1.582h-0.2L29.029,23.533z M33.857,23.533
	c-0.276,0.131-0.573,0.215-0.877,0.246v0.05c0.047,0.108,0.063,0.229,0.049,0.346h0.1c0.375-0.257,0.786-0.458,1.221-0.593v-0.055
	h-0.496L33.857,23.533z M8.98,23.582c0.125,0.559-0.019,1.145-0.39,1.582h1.854v-0.055c-0.405-0.398-0.555-0.988-0.39-1.532H8.976
	L8.98,23.582z M24.346,23.682c-0.133,0.023-0.263,0.057-0.39,0.101v0.147c0.046,0.457-0.114,0.911-0.438,1.236h1.268v-0.057
	c-0.4-0.359-0.571-0.91-0.443-1.434L24.346,23.682z"/>
</svg>
