<?xml version="1.0" encoding="utf-8"?>
<!-- Generator: Adobe Illustrator 16.0.0, SVG Export Plug-In . SVG Version: 6.00 Build 0)  -->
<!DOCTYPE svg PUBLIC "-//W3C//DTD SVG 1.1//EN" "http://www.w3.org/Graphics/SVG/1.1/DTD/svg11.dtd">
<svg version="1.1" id="Layer_1" xmlns="http://www.w3.org/2000/svg" xmlns:xlink="http://www.w3.org/1999/xlink" x="0px" y="0px"
	 width="40px" height="40px" viewBox="0 0 40 40" enable-background="new 0 0 40 40" xml:space="preserve">
<path id="Color_Fill_1" fill="#FFFFFF" d="M9.791,15.795h0.148L9.89,16.384c0.209-0.057,0.423-0.09,0.64-0.1v-0.342
	c-0.053,0.001-0.105-0.017-0.148-0.049c0.124-0.072,0.076-0.022,0.1-0.2h0.148v-0.1c0.037-0.06,0.055-0.129,0.049-0.2h0.344
	c0.047,0.205,0.151,0.392,0.3,0.54h-0.154v0.637c0.133,0.002,0.265,0.018,0.394,0.05c0-0.143-0.047-0.068,0-0.147
	c0.178-0.197,0.424-0.32,0.689-0.344v-0.236h0.2c0.067-0.135,0.107-0.195,0.148-0.295c0-0.23,0.017-0.459,0.049-0.687
	c0.254,0.203,0.536,0.368,0.836,0.491c0.291-0.005,0.579,0.064,0.836,0.2l0.148-0.049c0.044-0.017,0.153-0.133,0.2-0.146
	c0.296,0.006,0.592-0.01,0.886-0.049c0.026-0.027,0.043-0.062,0.049-0.1c-0.086-0.041-0.169-0.09-0.246-0.147
	c0.121-0.064,0.034,0.021,0.1-0.1c-0.329-0.136-0.515-0.486-0.443-0.835c0.361,0,0.453-0.005,0.787,0v-0.393
	c-0.053,0-0.105-0.017-0.148-0.049c-0.037-0.06-0.054-0.13-0.049-0.2c-0.019-0.081-0.019-0.165,0-0.245l0.148-0.049
	c0.249-0.163,0.374,0.038,0.492,0.147c-0.069-0.146,0.438-0.151,0.59-0.147c0.012,0.114,0.091,0.21,0.2,0.245
	c-0.027,0.027-0.063,0.044-0.1,0.049c-0.105,0.261-0.212,0.265-0.59,0.245l-0.049-0.147c-0.1,0.08-0.23,0.115-0.344,0.2
	c0.079,0.039,0.134,0.113,0.148,0.2c0.367-0.082,0.75-0.03,1.082,0.146v-0.2c0.16,0.041,0.075-0.024,0.148,0.1
	c-0.121,0.064-0.034-0.021-0.1,0.1h0.492c0.355,0.235,1.813-0.063,2.017,0.049c-0.019-0.2-0.1-0.2,0.049-0.295
	c0.024,0.475,0.7,0.311,1.278,0.295c0.057-0.054,0.145-0.054,0.201,0c-0.069,0.005-0.137,0.021-0.201,0.049v0.049
	c0.07-0.006,0.141,0.011,0.201,0.049c-0.472-0.082-0.952-0.099-1.428-0.049l-0.1,0.2h-0.945c-0.12,0.076-0.254,0.125-0.394,0.147
	c-0.017-0.256-0.464-0.166-0.836-0.156c-0.072,0.056-0.174,0.056-0.246,0c-0.119,0.127-0.251,0.243-0.394,0.344
	c-0.025-0.041-0.059-0.075-0.1-0.1v0.393c-0.192-0.011-0.382,0.041-0.541,0.147h0.049c0.069,0.043,0.276,0.053,0.344,0.1h-0.3v0.346
	l-0.738,0.049v0.54H15.7v0.049c0.59,0.012,2.108,0.554,2.46,0.394c0.14-0.187,0.056-0.28,0.394-0.295L18.6,16.63
	c0.022,0.081,0.039,0.163,0.049,0.245c0.043,0.031,0.095,0.049,0.148,0.049v-0.1l0.886,0.1c0.1,0.039,0.142,0.2,0.246,0.245
	l0.686,0.047c0.266,0.114,0.548,0.182,0.836,0.2v0.146l2.018,0.054c1.474-0.129,2.955-0.129,4.428,0c0.824,0.188,2-0.101,2.559,0.1
	c0.201-0.052,0.398-0.118,0.59-0.2c0.836-0.059,1.674-0.059,2.51,0c0.102-0.003,0.203,0.014,0.299,0.049l0.101,0.147h0.101v-0.096
	c0.703-0.065,1.412-0.065,2.115,0c0.5,0.009,1.352,0,2.116,0h0.836c0.287,0.084,0.587,0.118,0.886,0.1v0.687l-4.23,0.05
	c-0.353,0-1.649-0.101-1.82-0.05l-0.1,0.147h-3c-1.205-0.193-2.432-0.21-3.642-0.049l-0.745-0.056
	c-1.047,0.115-2.101,0.131-3.15,0.05h-0.885c-0.547,0.128-0.986,0.412-1.525,0.54v0.049h0.3c0.489-0.07,0.983-0.087,1.476-0.049
	v0.049c-0.031,0.043-0.049,0.094-0.049,0.146c0.376-0.049,0.756-0.049,1.133,0c0.495,0.276,1.057,0.412,1.623,0.394
	c0-0.054,0.018-0.104,0.049-0.147c0.037-0.043,0.063-0.055,0.101-0.1l0.147,0.049l0.049,0.245c0.394-0.029,0.787,0.056,1.133,0.245
	c0.203-0.135,0.449-0.188,0.689-0.146v0.047H27.6v0.539c0.172,0.067,0.336,0.149,0.492,0.246c-0.056,0.029-0.093,0.084-0.1,0.146
	l0.199-0.049c0.037,0.311,0.196,0.594,0.443,0.785c-0.004,0.039-0.021,0.074-0.049,0.101c-0.257,0.188-0.594,0.226-0.886,0.101
	c0.009,1.166-1.039,1.709-1.722,2.209c-0.582,0.617-1.264,1.133-2.018,1.521c-0.504,0.083-1.017,0.1-1.525,0.049H6.347
	c-0.411,0.037-0.824,0.021-1.23-0.049C4.379,25.104,3.671,24.727,3,24.289c-0.374-0.2-0.761-0.438-1.132-0.589
	C1.63,23.6,1.62,23.822,1.524,23.65c-0.244-0.349-0.364-0.691-0.541-0.981c0.038-0.005,0.073-0.022,0.1-0.049
	c-0.052-0.046-0.102-0.095-0.148-0.147c-0.152,0.084-0.319,0.133-0.492,0.147c-0.086-0.29-0.153-0.585-0.2-0.884
	c-0.064-0.11-0.1,0.043-0.148-0.2c0.063-0.007,0.119-0.044,0.148-0.101c-0.063-0.006-0.119-0.043-0.148-0.1
	c0.082-0.05,0.15-0.118,0.2-0.2H0v-0.2h0.049V20.9H0.2c0.002-0.137,0.037-0.271,0.1-0.393H0.246v-0.049H0.1
	c0.061-0.19,0.095-0.389,0.1-0.589H0.148C0.104,19.9,0.053,19.916,0,19.916v-0.391l0.394-0.049V19.33
	c0.125-0.02,0.243-0.07,0.344-0.146H0.689v-0.05c-0.144,0.019-0.062,0.08-0.148-0.049H0.59v-0.05
	c0.263,0.049,0.533,0.033,0.787-0.049c0.085,0.086,0.187,0.154,0.3,0.199h0.045c-0.058-0.051-0.094-0.123-0.1-0.199
	c1.265,0.088,2.152,0,3.592,0c0.025,0.07,0.058,0.138,0.1,0.199c0.051-0.127,0.165-0.22,0.3-0.244v0.146
	c0.06,0.037,0.111,0.087,0.148,0.146c0.213,0.001,0.42-0.069,0.59-0.199c0.057,0.082,0.146,0.136,0.246,0.146l0.049-0.146h0.389
	c0.342,0.145,0.711,0.213,1.082,0.199c0.044-0.233,0.125-0.209,0.394-0.199l0.049,0.146h0.147c0.047,0,1.122,0.039,1.181,0h-0.3
	V18.79c-0.438-0.091-0.884-0.319-1.279-0.442c-0.342-0.106-0.772,0.01-1.082-0.1c0,0.053-0.017,0.105-0.049,0.146
	c-0.278-0.128-0.58-0.196-0.886-0.199c-0.044-0.092-0.061-0.194-0.049-0.295c0.074-0.27,0.093-0.551,0.056-0.828H6.15v0.144
	c-0.073,0.062-0.157,0.112-0.246,0.147c-0.505,0.361-0.725-0.361-0.689-0.688c0.179-0.181,0.432-0.271,0.685-0.243
	c0.106,0.161,0.262,0.281,0.443,0.344v-0.295h0.1c0.224,0.065,0.458,0.083,0.689,0.049c0.02-0.129,0.079-0.106,0.344-0.1
	c0.195,0.107,0.421,0.142,0.64,0.1c0.193-0.449,0.245-0.946,0.148-1.424c-0.077-0.189-0.077-0.4,0-0.589
	c-0.006,0.07,0.011,0.141,0.049,0.2c0.1-0.159,0.077-0.075,0.2,0v-0.15c-0.054,0-0.107-0.018-0.149-0.052h0.2
	c-0.068,0.439-0.068,0.886,0,1.326c0.157-0.009,0.061-0.037,0.2,0.049c-0.014-0.127-0.066-0.247-0.148-0.344
	c0.041-0.025,0.075-0.059,0.1-0.1c0.111,0.035,0.228,0.052,0.344,0.049c-0.021,0.102-0.055,0.201-0.1,0.295H9
	c0.194-0.041,0.392-0.057,0.59-0.049c0.08-0.537,0.096-1.08,0.049-1.62c0.073-0.619,0.089-1.244,0.049-1.866V8.578
	C9.621,7.891,9.64,7.199,9.742,6.516C9.74,9.599,9.785,12.792,9.791,15.795z M15.991,14.077v0.1h0.1v-0.1H15.991z M14.859,14.224
	h0.1v0.049C14.921,14.269,14.886,14.251,14.859,14.224z M15.159,14.273c0.027,0.027,0.062,0.044,0.1,0.049
	c-0.028-0.027-0.065-0.044-0.105-0.049H15.159z M19.243,14.322c-0.08,0.049-0.314,0.047-0.394,0.1
	c0.263,0.01,0.527-0.007,0.787-0.049v-0.051h-0.399H19.243z M14.717,14.371c0.027,0.027,0.044,0.062,0.049,0.1h-0.055v-0.1H14.717z
	 M17.866,14.371c0.271,0.089,0.564,0.089,0.836,0H17.86H17.866z M16.046,14.42l0.049,0.147h0.049v-0.151h-0.1L16.046,14.42z
	 M15.16,14.469c0.105,0.1,0.254,0.138,0.394,0.1v-0.1h-0.2c-0.064,0.026-0.136,0.026-0.2,0.001L15.16,14.469z M16.925,14.516
	c0.027,0.026,0.063,0.043,0.1,0.049C16.998,14.539,16.963,14.521,16.925,14.516z M14.957,14.958h0.1v0.049
	c-0.038-0.004-0.073-0.021-0.1-0.047V14.958z M15.057,15.007h0.1v0.049c-0.039-0.003-0.075-0.02-0.102-0.046L15.057,15.007z
	 M15.795,15.4c-0.062,0.034-0.113,0.085-0.148,0.147h0.1c0.043-0.041,0.078-0.091,0.1-0.147h-0.054H15.795z M8.956,15.94v0.1H9
	c-0.004-0.037-0.021-0.071-0.046-0.098L8.956,15.94z M9.156,16.234c0.008,0.244-0.038,0.253,0.148,0.295
	c0.07-0.082,0.105-0.188,0.1-0.295H9.3c0,0-0.01,0.192-0.049,0.1v-0.1h-0.1H9.156z M9.5,16.234c-0.01,0.085,0.008,0.17,0.049,0.245
	c0.009-0.084-0.008-0.168-0.049-0.242V16.234z M9.2,16.334c0.026,0.027,0.043,0.063,0.049,0.1H9.2V16.334z M18.3,16.874h0.2v-0.293
	h-0.148v0.101C18.315,16.738,18.297,16.807,18.3,16.874L18.3,16.874z M19.481,16.825c0.053-0.001,0.105,0.017,0.148,0.049
	c-0.053,0.001-0.104-0.017-0.146-0.048L19.481,16.825z M2.952,19.184c0.027,0.025,0.062,0.043,0.1,0.049
	C3.025,19.205,2.99,19.188,2.952,19.184z M19.631,19.184c0.09,0.063,0.21,0.063,0.3,0H19.631z M24.797,19.283l0.148,0.049
	l-0.049,0.146H24.8l-0.1-0.146c0.038-0.006,0.073-0.023,0.1-0.051L24.797,19.283z M25.486,19.482c0.041,0.16-0.024,0.076,0.1,0.147
	v-0.055h0.049v-0.05h-0.051c-0.027-0.025-0.061-0.043-0.098-0.049V19.482z M27.012,19.916c0.084,0.043,0.063,0.044,0.147,0H27.012z
	 M27.503,19.916c-0.001,0.053,0.017,0.105,0.049,0.146c0-0.053-0.019-0.105-0.052-0.146H27.503z M26.814,21.736v0.1h0.1v-0.1H26.814
	z M26.814,21.98v0.101h0.1V21.98H26.814z M26.714,22.182c0.03,0.055,0.085,0.093,0.147,0.1v-0.1h-0.146H26.714z M26.613,22.328
	c0.041,0.158-0.023,0.074,0.101,0.146c-0.005-0.063-0.04-0.119-0.096-0.149L26.613,22.328z M25.827,22.475
	c-0.074,0.059-0.112,0.152-0.101,0.246c0.027,0.025,0.063,0.043,0.101,0.049v-0.101c0.041-0.063,0.074-0.13,0.1-0.2h-0.1V22.475z
	 M26.417,22.475l0.054,0.142h0.049V22.57h0.049v-0.049H26.52c-0.027-0.027-0.062-0.044-0.099-0.049L26.417,22.475z M26.023,22.523
	l-0.049,0.295h0.1v-0.051c0.078-0.123,0.046-0.162-0.047-0.246L26.023,22.523z M26.223,22.523v0.246h0.049v-0.054h0.049l0.05-0.1
	h-0.048c-0.063-0.118,0.021-0.03-0.098-0.095L26.223,22.523z M25.337,22.868c-0.032,0.034-0.065,0.068-0.101,0.1
	c-0.002,0.07,0.016,0.14,0.05,0.2c-0.138,0.217-0.351,0.021-0.394,0.393h0.049v0.049l0.836-0.539
	c-0.119-0.115-0.274-0.188-0.439-0.205L25.337,22.868z M3.443,23.555c-0.064-0.023-0.135-0.023-0.2,0H3.2v0.049
	c0.346,0.08,0.678,0.212,0.984,0.394V23.7c-0.144-0.003-0.283-0.055-0.394-0.147c-0.01-0.098-0.01-0.197,0-0.295h-0.3
	c-0.032,0.095-0.047,0.194-0.046,0.294L3.443,23.555z M17.072,23.654c0.011,0.412-0.129,0.814-0.394,1.13h1.328v-0.101
	c-0.421-0.315-0.167-1.156-0.541-1.276c-0.019,0.276-0.1,0.259-0.392,0.243L17.072,23.654z M21.057,23.654
	c-0.018,0.4-0.137,0.788-0.344,1.13H21.8v-0.101c-0.483-0.346-0.17-0.877-0.344-1.227c-0.005,0.068-0.021,0.137-0.049,0.2h-0.349
	L21.057,23.654z M7.428,24.293c-0.038,0.183-0.123,0.352-0.246,0.491h0.59V24.73c-0.088-0.166-0.204-0.314-0.343-0.441L7.428,24.293
	z M10.628,24.439c-0.042,0.128-0.11,0.245-0.2,0.345h0.492V24.73c-0.083-0.111-0.182-0.21-0.293-0.295L10.628,24.439z
	 M13.777,24.439c-0.049,0.125-0.116,0.24-0.2,0.345h0.443v-0.101c-0.103-0.076-0.144-0.168-0.244-0.248L13.777,24.439z"/>
</svg>
