<svg xmlns="http://www.w3.org/2000/svg" width="40" height="40" viewBox="0 0 40 40">
  <defs>
    <style>
      .cls-1 {
        fill: #fff;
        fill-rule: evenodd;
      }
    </style>
  </defs>
  <path id="cn_ztz_96a_ico" class="cls-1" d="M9.923,19.312c0,0.268-.06.412-0.066,0.64H9.879a0.975,0.975,0,0,1,.661-0.132V19.467H10.386V19.423h0.088v-0.2a0.158,0.158,0,0,0,.154-0.066c0.033-.049.032-0.149,0.066-0.2A0.732,0.732,0,0,1,11,18.937L11.07,19.18a0.346,0.346,0,0,0,.154.044v0.2h0.088v0.044H11.158v0.662h0.4L11.533,20a4.553,4.553,0,0,1,.485-0.265V19.666h0.22c0-.07.021-0.111,0.022-0.243h0.2l0.022-.11a0.28,0.28,0,0,0,.088-0.022V19.268H12.547c-0.032-.056,0-0.025-0.066-0.044V19.158h0.088V19.114a3.261,3.261,0,0,0,0-.684h0.022c0.052,0.039.137,0.03,0.2,0.066a1.935,1.935,0,0,1,.265.243,0.407,0.407,0,0,1,.2-0.022v0.132a0.73,0.73,0,0,0,.2.088,0.315,0.315,0,0,1,.11-0.088,1.631,1.631,0,0,0,.816.243c0.09-.027.189-0.124,0.287-0.154h0.948a0.272,0.272,0,0,1,.154-0.044,0.107,0.107,0,0,0-.022-0.066C15.5,18.551,14.887,18.7,14.862,18.1a0.64,0.64,0,0,0,.132-0.419c0.252,0.009.46,0.022,0.772,0.022a1.317,1.317,0,0,1,.022-0.375,0.242,0.242,0,0,1-.154-0.066A0.839,0.839,0,0,1,15.546,17a0.3,0.3,0,0,0,.066-0.2,0.4,0.4,0,0,0,.088-0.066,2.509,2.509,0,0,1,.463.022l0.022,0.066a0.113,0.113,0,0,1,.022.066H16.3l0.022-.11h0.044a0.957,0.957,0,0,1,.485,0,1.172,1.172,0,0,1,.066.331c-0.073,0-.024.095-0.088,0.155a0.681,0.681,0,0,1-.507,0,0.709,0.709,0,0,0-.044-0.132,0.113,0.113,0,0,1-.066.022l-0.022.132H16.141a0.373,0.373,0,0,1-.243.044,0.107,0.107,0,0,0,.022.066,0.19,0.19,0,0,1,.11-0.022v0.022H16.009a0.4,0.4,0,0,1-.022.154h0.066c0.029-.054-0.009-0.015.044-0.044,0.009,0.056-.013.035,0.066,0.044a2.612,2.612,0,0,1,.662-0.022c0.116,0.037.218,0.136,0.331,0.177a0.69,0.69,0,0,1,.022-0.221h0.044a0.47,0.47,0,0,1,.088.088H17.222L17.244,17.7h0.441a1.5,1.5,0,0,0,.617.044c0.445,0,.824,0,1.3,0V17.724h0.022a0.563,0.563,0,0,1,.088-0.287c0.042,0.019.016,0.011,0.066,0v0.221c0.021,0.042.008,0.026,0,.088h1.036a0.964,0.964,0,0,0,.419-0.044,0.553,0.553,0,0,1,.022.177,0.722,0.722,0,0,1-.221.022,0.469,0.469,0,0,0-.331-0.044H19.78a0.16,0.16,0,0,1-.176.176c-0.129.066-.611-0.081-0.794,0l-0.066.088-0.331.066a0.245,0.245,0,0,1,.044-0.155H17.574a0.731,0.731,0,0,1-.309.022v0.11h-0.2a0.243,0.243,0,0,1-.154.221V18.364H16.891V18.3H16.8v0.4h-0.11a0.147,0.147,0,0,1,0,.11c-0.032.056,0,.025-0.066,0.044a0.293,0.293,0,0,0-.154-0.022v0.066h0.2v0.044H16.538v0.4a7.986,7.986,0,0,0-.9.088v0.463a4.224,4.224,0,0,1,.926.177c0.327,0.086.621,0.071,0.948,0.154a1.537,1.537,0,0,0,.617.11,1.24,1.24,0,0,1,.221-0.309c0.311-.206.23,0.36,0.265,0.4a0.188,0.188,0,0,0,.154.044,0.218,0.218,0,0,1,.265-0.132,3.794,3.794,0,0,0,.838.2c0.143,0.053.233,0.191,0.375,0.243,0.241,0.088.567,0.071,0.75,0.132a1.391,1.391,0,0,1,.2-0.022,1.513,1.513,0,0,0,.221.088v0.066c0.053,0.02.035,0.024,0.088,0.044a1.738,1.738,0,0,0,.617.022l1.323,0.044V21.078h0.176c0.018,0.072-.011.034,0.044,0.066V21.078h0.176v0.066H23.9V21.078L26.814,21.1c0.018,0.072-.011.034,0.044,0.066V21.1a1.293,1.293,0,0,0,.375,0c0.018,0.072-.011.034,0.044,0.066V21.1l2.933,0.044c0.018,0.072-.011.034,0.044,0.066V21.144H30.43V21.21h0.044a0.149,0.149,0,0,0,.088.022,0.107,0.107,0,0,1,.022-0.066,1.038,1.038,0,0,1,.463-0.132c0.018,0.072-.011.034,0.044,0.066V21.034a11.148,11.148,0,0,1,2.8.11c0,0.07-.037.03,0.022,0.066a0.143,0.143,0,0,0,.132,0V21.144H34.2c0.018,0.072-.011.034,0.044,0.066V21.144c0.766,0,1.62,0,2.315,0,0.018,0.072-.011.034,0.044,0.066V21.144c0.735,0,1.735.006,2.47,0V21.21h0.044a3.327,3.327,0,0,0,.838.022,2.59,2.59,0,0,1,.022.684,2.8,2.8,0,0,0-.86.044H35.877a17.622,17.622,0,0,1-1.962-.044l-0.044.132c-0.5.051-1.391,0.022-2.117,0.022a3.585,3.585,0,0,0-.926.022V22.027H30.584a0.347,0.347,0,0,1-.022-0.11,21.485,21.485,0,0,1-2.293.066H27.233c-0.152.035-.3-0.032-0.463,0A13.572,13.572,0,0,1,24.851,22c-1.163.038-2.164,0.068-3.4,0.066-0.016.078-.027,0.055-0.044,0.132a0.8,0.8,0,0,0-.221.044,0.47,0.47,0,0,1-.375.331V22.6h0.419a0.478,0.478,0,0,1,.265,0c0.018-.072-0.011-0.034.044-0.066a0.8,0.8,0,0,0,.2.022,1.615,1.615,0,0,0,.353.088,1.7,1.7,0,0,1,.573-0.066,0.236,0.236,0,0,0-.044.177,7.023,7.023,0,0,0,1.081-.022,0.3,0.3,0,0,0,.11.154,3.17,3.17,0,0,0,.97.221,0.106,0.106,0,0,1,.022-0.066,0.278,0.278,0,0,0,.022.088c0.231,0.015.287,0.037,0.529,0.044a0.226,0.226,0,0,1,.132-0.221c0.1-.059.147,0.037,0.2,0.088V23.2l0.617,0.022a4.484,4.484,0,0,0,.6.221V23.351a2.5,2.5,0,0,1,.662-0.022V23.88a3.524,3.524,0,0,0,.507.243,0.4,0.4,0,0,0-.11.132c0.058,0.017.053,0.026,0.11,0.044,0.025-.063,0-0.041.066-0.066v0.022h0.022a0.373,0.373,0,0,0,0,.221,2.174,2.174,0,0,0,.176.155,5.079,5.079,0,0,0,.287.441,0.075,0.075,0,0,1-.022.044,1.286,1.286,0,0,1-.706.2l-0.2-.11a2.512,2.512,0,0,1-.044.552,0.18,0.18,0,0,0-.154.177,0.288,0.288,0,0,0-.11,0,0.54,0.54,0,0,1-.132.243c0.025,0.059.042,0.046,0.066,0.11H27.3v0.022a0.233,0.233,0,0,0-.11-0.044,0.134,0.134,0,0,1-.044.044,0.4,0.4,0,0,1,.066.11,0.393,0.393,0,0,1-.2.044,2.133,2.133,0,0,0-.2.154l0.066,0.11H26.814c-0.041-.039-0.018-0.041-0.066-0.022a0.075,0.075,0,0,0-.044.022c0.025,0.032.046,0.067,0.022,0.088l-0.044.066a0.231,0.231,0,0,0-.132-0.044,0.7,0.7,0,0,1-.2.177c0.021,0.035.08,0.066,0.044,0.088a1.012,1.012,0,0,0-.11-0.022,0.085,0.085,0,0,0-.044.066,0.086,0.086,0,0,1,.044.066,0.234,0.234,0,0,1-.11.044,0.325,0.325,0,0,0-.287.132,0.232,0.232,0,0,1,.044.11H25.888c-0.041-.039-0.017-0.041-0.066-0.022s-0.025,0-.044.066c0,0,.064.029,0.044,0.044H25.8l-0.044.066a0.23,0.23,0,0,0-.132-0.044,0.772,0.772,0,0,1-.2.177c0.021,0.035.08,0.066,0.044,0.088a0.969,0.969,0,0,0-.11-0.022c-0.063.067,0,.067-0.022,0.132-0.016.019-.028,0.025-0.044,0.044a0.167,0.167,0,0,0-.11-0.022,1.124,1.124,0,0,0-.22.154,0.235,0.235,0,0,1,.044.11H24.961a0.088,0.088,0,0,0-.088-0.044,0.311,0.311,0,0,0-.022.088s0.064,0.029.044,0.044H24.873l-0.044.066a0.231,0.231,0,0,0-.132-0.044,0.884,0.884,0,0,1-.2.177l0.066,0.088H24.52v0.022H24.5V28.647A0.135,0.135,0,0,0,24.41,28.6a0.08,0.08,0,0,1-.044.022v0.044c0.029,0.038.038,0.035,0.022,0.066a0.766,0.766,0,0,0-.066.066,0.381,0.381,0,0,0-.375.022c0,0.1.032,0.078-.022,0.11a0.063,0.063,0,0,1-.022.022c-0.017-.092-0.011-0.08-0.11-0.088v0.088a0.4,0.4,0,0,1-.132.022c-0.039-.113-0.159-0.1-0.309-0.088a0.151,0.151,0,0,1-.066.11V28.978a0.43,0.43,0,0,1-.044-0.088H23.2c-0.013.1-.019,0.107-0.132,0.11-0.036-.139-0.158-0.12-0.331-0.11V29H22.668V28.912H22.646V28.89H22.58V29H22.448V28.934a0.641,0.641,0,0,0-.309-0.044V29H22.073V28.912a0.311,0.311,0,0,0-.088-0.022,0.346,0.346,0,0,0-.022.11h-0.11V28.934a0.642,0.642,0,0,0-.309-0.044,0.062,0.062,0,0,1-.022.022,0.311,0.311,0,0,1,.022.088H21.477V28.912a0.347,0.347,0,0,0-.11-0.022V29h-0.11V28.934a0.641,0.641,0,0,0-.309-0.044,0.151,0.151,0,0,1-.066.11,0.1,0.1,0,0,0-.11-0.11V29h-0.11c-0.036-.139-0.158-0.12-0.331-0.11V29H20.265V28.912H20.243V28.89H20.176V29H20.044l-0.022-.11H19.735V29H19.669V28.912a0.31,0.31,0,0,0-.088-0.022,0.346,0.346,0,0,0-.022.11h-0.11V28.934a0.641,0.641,0,0,0-.309-0.044,0.151,0.151,0,0,1-.066.11c-0.007-.106,0-0.1-0.11-0.11V29h-0.11V28.934a0.641,0.641,0,0,0-.309-0.044,0.151,0.151,0,0,1-.066.11c-0.007-.106,0-0.1-0.11-0.11V29h-0.11V28.934a0.711,0.711,0,0,0-.331-0.044V29H17.883c-0.007-.106,0-0.1-0.11-0.11V29h-0.11V28.934a0.71,0.71,0,0,0-.331-0.044V29H17.266V28.89H17.178V29h-0.11c-0.036-.139-0.159-0.12-0.331-0.11V29H16.67V28.912a0.31,0.31,0,0,0-.088-0.022,0.346,0.346,0,0,0-.022.11H16.45V28.912a1.09,1.09,0,0,0-.309-0.022V29H16.075V28.912a0.31,0.31,0,0,0-.088-0.022,0.346,0.346,0,0,0-.022.11h-0.11V28.934a0.641,0.641,0,0,0-.309-0.044,0.151,0.151,0,0,1-.066.11c-0.007-.106,0-0.1-0.11-0.11V29h-0.11V28.934a0.641,0.641,0,0,0-.309-0.044,0.151,0.151,0,0,1-.066.11c-0.007-.106,0-0.1-0.11-0.11V29h-0.11V28.934a0.641,0.641,0,0,0-.309-0.044,0.151,0.151,0,0,1-.066.11c-0.008-.106,0-0.1-0.11-0.11V29h-0.11V28.934a0.711,0.711,0,0,0-.331-0.044V29H13.694c-0.007-.106,0-0.1-0.11-0.11V29h-0.11c-0.036-.139-0.158-0.12-0.331-0.11V29H13.076V28.89H12.988V29H12.856V28.912a1.091,1.091,0,0,0-.309-0.022V29H12.481V28.912H12.459V28.89H12.393V29H12.26V28.912a1.091,1.091,0,0,0-.309-0.022V29H11.885V28.912A0.31,0.31,0,0,0,11.8,28.89a0.346,0.346,0,0,0-.022.11h-0.11V28.934a0.641,0.641,0,0,0-.309-0.044V29H11.29V28.912A0.311,0.311,0,0,0,11.2,28.89a0.346,0.346,0,0,0-.022.11H11.07V28.934a0.642,0.642,0,0,0-.309-0.044,0.151,0.151,0,0,1-.066.11c-0.007-.106,0-0.1-0.11-0.11V29h-0.11V28.934a0.641,0.641,0,0,0-.309-0.044A0.151,0.151,0,0,1,10.1,29c-0.007-.106,0-0.1-0.11-0.11V29H9.879V28.934A0.641,0.641,0,0,0,9.57,28.89a0.346,0.346,0,0,0-.022.11H9.482V28.89H9.394V29H9.283c-0.036-.139-0.158-0.12-0.331-0.11V29H8.886V28.912H8.864V28.89H8.8V29H8.666V28.912a1.091,1.091,0,0,0-.309-0.022V29H8.291V28.912A0.31,0.31,0,0,0,8.2,28.89a0.346,0.346,0,0,0-.022.11H8.071V28.934a0.641,0.641,0,0,0-.309-0.044V29H7.7V28.912a0.31,0.31,0,0,0-.088-0.022,0.346,0.346,0,0,0-.022.11H7.475V28.934a0.641,0.641,0,0,0-.309-0.044A0.151,0.151,0,0,1,7.1,29c-0.007-.106,0-0.1-0.11-0.11V29H6.88c-0.034-.135-0.141-0.12-0.309-0.11a0.346,0.346,0,0,0-.022.11H6.483V28.89H6.395V29H6.262V28.912a1.091,1.091,0,0,0-.309-0.022V29a0.106,0.106,0,0,1-.066-0.022c-0.041-.065.035-0.069-0.088-0.088L5.777,29H5.667V28.912H5.623a0.664,0.664,0,0,0-.287-0.022v0.088c-0.072-.018-0.034.011-0.066-0.044,0.027-.035.014-0.011,0-0.044s-0.028-.025-0.044-0.044H5.182c-0.022.081-.014,0.078-0.11,0.088a0.08,0.08,0,0,0-.044-0.022,0.172,0.172,0,0,0,0-.11l-0.265-.132a0.086,0.086,0,0,1-.066.088V28.735a0.343,0.343,0,0,0-.022-0.11A0.112,0.112,0,0,0,4.609,28.6c-0.029.065-.013,0.064-0.066,0.044l-0.066-.022a0.134,0.134,0,0,0,0-.11l-0.265-.132c-0.019.071-.025,0.061-0.044,0.066-0.048-.078.029-0.105-0.11-0.132-0.029.065-.013,0.064-0.066,0.044-0.1-.064,0-0.028-0.044-0.11A0.6,0.6,0,0,0,3.66,28.1a0.28,0.28,0,0,1-.022.088H3.616V28.161a0.278,0.278,0,0,0-.044-0.11,0.112,0.112,0,0,0-.066-0.022V28.1L3.4,28.073a0.672,0.672,0,0,0-.022-0.154c-0.1-.026-0.161-0.081-0.265-0.11a0.279,0.279,0,0,1-.022.088H3.065V27.875C3.029,27.819,3.038,27.787,3,27.72H2.977a0.086,0.086,0,0,1-.066.088V27.786l-0.066-.022a0.185,0.185,0,0,0-.022-0.11,0.706,0.706,0,0,0-.243-0.132,0.083,0.083,0,0,1-.088.066l0.022-.11-0.066-.022V27.433H2.426a0.086,0.086,0,0,1-.066.088V27.5l-0.066-.022V27.411a1.106,1.106,0,0,1-.463-0.177l-0.309.022a1.887,1.887,0,0,0-.132-0.485c-0.05.009-.024,0.02-0.066,0a0.785,0.785,0,0,1-.066-0.066c0.034-.055.066-0.056,0.044-0.11a0.293,0.293,0,0,0-.2-0.066V26.44a0.2,0.2,0,0,0,.066-0.066c-0.093-.052-0.1-0.086-0.176-0.132a0.374,0.374,0,0,0,.044-0.132A0.21,0.21,0,0,1,.97,26.021a0.321,0.321,0,0,1-.375.022,0.127,0.127,0,0,1-.176.132,0.977,0.977,0,0,1-.022-0.2,0.107,0.107,0,0,1-.066-0.022,2.342,2.342,0,0,1-.066-0.728,1.61,1.61,0,0,0,.11-0.155,1.187,1.187,0,0,0-.287-0.154A0.079,0.079,0,0,0,.11,24.873a0.918,0.918,0,0,0,.243-0.265,1,1,0,0,1-.044-0.243c-0.133,0-.136-0.02-0.132-0.154h0.11l-0.022-.221-0.154.022a0.672,0.672,0,0,0-.022-0.154,0.28,0.28,0,0,0,.088-0.022A2.814,2.814,0,0,0,.2,23.417a0.775,0.775,0,0,1-.176.044A0.076,0.076,0,0,0,0,23.417a1.428,1.428,0,0,0,.022-0.375A1.007,1.007,0,0,0,.375,23V22.865H0.551a0.185,0.185,0,0,1,.066-0.155,0.232,0.232,0,0,1-.132-0.022c0.056-.032.025,0,0.044-0.066l0.882-.088V22.6H1.566a0.474,0.474,0,0,1,.022.154H1.676A0.312,0.312,0,0,0,1.7,22.667H1.654c-0.031-.014-0.024-0.029-0.022-0.132l1.213,0.044v0.11a4.368,4.368,0,0,0,.6-0.154H5.27v0.176H5.292a0.548,0.548,0,0,1,.287-0.265V22.6a1.97,1.97,0,0,0,.221.154,1.054,1.054,0,0,1,.507-0.066A0.086,0.086,0,0,1,6.373,22.6V22.578c0.022-.022.022,0.022,0.022,0.022a0.32,0.32,0,0,0,.221.11l0.022-.132H7.056v0.044a0.113,0.113,0,0,1,.022.066l0.353,0.022a0.407,0.407,0,0,1,.221-0.066,1.572,1.572,0,0,0,.441.088,0.22,0.22,0,0,1,0-.11,0.764,0.764,0,0,1,.441-0.044,0.34,0.34,0,0,1,.044.132,0.365,0.365,0,0,1,.331-0.022H8.931v0.066a2.924,2.924,0,0,1,.485-0.088v0.022H9.438c0.008,0.112.248,0.072,0.419,0.066V22.689H9.592V22.314a5.12,5.12,0,0,1-.86-0.287c-0.1-.03-0.183.028-0.243,0l-0.044-.088a3.614,3.614,0,0,0-1.169-.132v0.066L7.233,21.85v0.022c0.027,0.035.014,0.011,0,.044a0.239,0.239,0,0,1-.132.022l-0.022-.066a0.149,0.149,0,0,1-.022-0.088L6.351,21.74,6.329,20.592H6.174a0.518,0.518,0,0,1-.617.353,0.7,0.7,0,0,1-.375-0.463,0.514,0.514,0,0,1,.684-0.508,2.833,2.833,0,0,0,.441.331V20.283H6.329a0.528,0.528,0,0,1,.022-0.243,0.148,0.148,0,0,1,.088-0.022,2.254,2.254,0,0,0,.662.044V19.974A1.5,1.5,0,0,1,7.519,20l-0.044.066h0.4c0.087,0.048.065-.041,0.154-0.022,0.059,0.052,0,.043.132,0.044V20H8.225a0.965,0.965,0,0,0,.044-0.309,4.308,4.308,0,0,1,0-.574c0-.413-0.069-0.629-0.066-1.059H8.556c0,0.488-.065.778-0.066,1.28,0.111,0,.131,0,0.265,0v-0.11c-0.1-.023-0.193-0.139-0.066-0.2a0.56,0.56,0,0,1,.331,0,0.235,0.235,0,0,1,.044.11,0.172,0.172,0,0,0-.088.177H9a1.675,1.675,0,0,1,.617-0.022c0.095-.856.013-1.837,0.044-2.759,0.044-1.28.022-2.655,0.022-3.972V10.706A2,2,0,0,1,9.7,10c0,1.959.022,3.988,0.022,5.98v1.479a4.178,4.178,0,0,0,.022.75c0.074,0.343-.018.754,0.044,1.081H9.835A0.149,0.149,0,0,0,9.923,19.312ZM16.935,17h0.044V17.04H16.935V17Zm7.894,5.782a0.148,0.148,0,0,1,.088.132,0.466,0.466,0,0,0-.088.132L24.7,22.887A0.485,0.485,0,0,0,24.829,22.777Z" transform="translate(0 0.5)"/>
</svg>
