<svg xmlns="http://www.w3.org/2000/svg" width="48" height="20" viewBox="0 0 48 20">
  <metadata><?xpacket begin="﻿" id="W5M0MpCehiHzreSzNTczkc9d"?>
<x:xmpmeta xmlns:x="adobe:ns:meta/" x:xmptk="Adobe XMP Core 5.6-c138 79.159824, 2016/09/14-01:09:01        ">
   <rdf:RDF xmlns:rdf="http://www.w3.org/1999/02/22-rdf-syntax-ns#">
      <rdf:Description rdf:about=""/>
   </rdf:RDF>
</x:xmpmeta>
                                                                                                    
                                                                                                    
                                                                                                    
                                                                                                    
                                                                                                    
                                                                                                    
                                                                                                    
                                                                                                    
                                                                                                    
                                                                                                    
                                                                                                    
                                                                                                    
                                                                                                    
                                                                                                    
                                                                                                    
                                                                                                    
                                                                                                    
                                                                                                    
                                                                                                    
                                                                                                    
                           
<?xpacket end="w"?></metadata>
<defs>
    <style>
      .cls-1 {
        fill: #55646b;
      }

      .cls-1, .cls-2 {
        fill-rule: evenodd;
      }

      .cls-2 {
        fill: #fff;
      }
    </style>
  </defs>
  <path class="cls-1" d="M47,12H43V3h5C46.194,6.517,48.934,7.791,47,12ZM21,2H42V14H21V2ZM0,18V15l2-2H8V5H2L0,3V2L2,0H20V20H2Zm37,0H21V15H37v3ZM1,13V5L2,6H7v6H2Z"/>
  <path class="cls-2" d="M44,6.992V7.977h-9.99V9.332l-0.36.36H24.813l-0.54.321h-2.3L22,11H21L20,9H19l-1,1-4.433,0-0.36-.313H12.173a1.353,1.353,0,0,1-.9,2.277H9.434a3.49,3.49,0,0,0-.806,1.863c-0.08.311-1.6,0.181-1.62,0-0.192-1.67.864-1.752,0.986-2.7V10H7.039l-0.9-1.025H4.7c-0.777-.011-0.72-0.54-0.72-0.54V8.072a0.6,0.6,0,0,1,.73-0.54h1.25v-0.9l0.36-.36H6.984V5.012h0.54l0.54,0.54h1.8L10.4,6.029h3.249l1.44-.3h4.86l0.18-.18h1.62v0.72h0.72l0.72,0.72h14.58V6.272l0.735-1.3h0.5L38.994,6.992H44ZM11.813,9.54H10.334l-0.72,1.738,1.648,0A1.07,1.07,0,0,0,11.813,9.54Z"/>
</svg>
