<svg xmlns="http://www.w3.org/2000/svg" width="39.938" height="40" viewBox="0 0 39.938 40">
  <defs>
    <style>
      .cls-1 {
        fill: #fff;
        fill-rule: evenodd;
      }
    </style>
  </defs>
  <path id="Color_Fill_1" data-name="Color Fill 1" class="cls-1" d="M7.133,16.651V16.8C7.439,16.81,7.671,16.913,8,16.94V16.651H8.193V16.94H8.241V16.892c0.042-.071,0-0.236.048-0.337l0.048-.048c0.063-.077.23-0.069,0.289-0.145l0.048-.241H8.964a10.144,10.144,0,0,0,2.12.193V16.121h0.145v0.193h0.434a0.871,0.871,0,0,0,.145.193V16.94h0.482V16.747h0.1V16.8a0.245,0.245,0,0,1,.048.145c0.453,0.05.614,0.249,1.108,0.289V17.181H13.59a0.679,0.679,0,0,1-.048-0.193h0.723V16.94a0.852,0.852,0,0,1-.482-0.675L13.3,16.217a0.725,0.725,0,0,1-.193-0.578c0.5,0,.838.084,1.253,0.1,0.1-.257.207-0.261,0.578-0.241v0.1a0.246,0.246,0,0,1,.048.144,0.4,0.4,0,0,0-.241.048,1,1,0,0,1,.337.1V15.687h1.639v0.048c-0.059.085,0,.084-0.048,0.145-0.1.061-.382,0.033-0.482,0.1a1.152,1.152,0,0,1,.53.048c-0.059.085,0,.084-0.048,0.145a2.074,2.074,0,0,1-.964.048,0.766,0.766,0,0,1-.241.241,1.4,1.4,0,0,1-.048.771c0.194-.006.264-0.026,0.337,0.1a0.245,0.245,0,0,1,.048.145,2.255,2.255,0,0,0,.819.1,0.659,0.659,0,0,1,.289-0.193c0.04-.156-0.024-0.074.1-0.145v0.145a0.749,0.749,0,0,0,.289-0.193H18.94c0.12,0.425.338,0.462,0.916,0.434a5.829,5.829,0,0,0,1.446.1c1.364,0.3,2.973.043,4.337,0.337a5.57,5.57,0,0,1,1.446.1,1.5,1.5,0,0,0,.241.337,0.922,0.922,0,0,1,.675-0.1h8.193c0.4,0,2.214-.08,2.265-0.048a0.625,0.625,0,0,0-.337.048l0.627-.048a0.445,0.445,0,0,1,.193.193H40v0.723a3.752,3.752,0,0,1-1.012.048V19.253H38.94V19.4c-2.036,0-3.873,0-5.831,0a20.111,20.111,0,0,1-2.94,0c-0.935-.2-2.145.185-2.94-0.1a0.689,0.689,0,0,1-.048.241c-0.322.028-.146,0.081-0.289,0.144h-1.88a1.587,1.587,0,0,0-.048.482,0.612,0.612,0,0,1-.193-0.048,0.655,0.655,0,0,0,0-.434H24.723v0.434l-1.494.048v0.048a1.6,1.6,0,0,1,1.012,1.012H22.072v0.193h5.349c0.089,0.038,0,.179.193,0.145h0.048a1.056,1.056,0,0,1,.1-0.145l0.819-.193v0.145a0.233,0.233,0,0,1,.145.048,0.522,0.522,0,0,1,.048.289c1.883,0.182,3.448.588,5.2,0.675V22.337h0.048V22.145h1.157V22.53h0.048v0.048a8.174,8.174,0,0,1,1.88.241,0.245,0.245,0,0,1,.048.145,5.739,5.739,0,0,0-.289.771v0.337a1.846,1.846,0,0,0-.337.578c-0.055.04,0.048,0.048,0.048,0.048a2.537,2.537,0,0,1,.386.53,1.676,1.676,0,0,1-.627.627,1.161,1.161,0,0,0-.675-0.241,0.338,0.338,0,0,1-.241.241V25.9a0.671,0.671,0,0,1,.337.1c-0.126.13-.451,0.319-0.53,0.434l-0.145.482a2.647,2.647,0,0,1-.626.819,10.8,10.8,0,0,1-2.072.916c-0.869.377-1.8,0.9-2.7,1.2a5.412,5.412,0,0,1-1.59.1H8.916a10.3,10.3,0,0,1-2.8-.1C5.206,29.54,4.3,28.987,3.422,28.6A12.127,12.127,0,0,1,1.06,27.494c-0.231-.171-0.5-0.893-0.675-1.012-0.08-.054-0.275-0.007-0.337-0.048H0.1a0.588,0.588,0,0,0,.289-0.145,2.323,2.323,0,0,1-.1-0.964,3.294,3.294,0,0,0-.241-0.578,0.263,0.263,0,0,1,.1-0.241,0.3,0.3,0,0,0-.1-0.193c-0.054-.3.278-0.406,0.193-0.627v-0.1c-0.115.068-.028,0.082-0.145,0.048H0.048L0.1,23.494a0.986,0.986,0,0,0,.53-1.157h0.1a1.482,1.482,0,0,0,.1.723V23.012a0.621,0.621,0,0,0,.241-0.386c-0.369-.151-0.137-0.506-0.289-0.867a1.431,1.431,0,0,0-.289-0.337l0.337-.482a8.429,8.429,0,0,1,2.217-.048,4.193,4.193,0,0,0,1.2.241l0.193,0.386a7.644,7.644,0,0,1,1.976-.1,1.03,1.03,0,0,0,.723-0.1,3.2,3.2,0,0,1-.771-0.578c-0.356-.256-0.707-0.464-1.06-0.723a3.219,3.219,0,0,0-.482-0.434l-1.06-.048a10.411,10.411,0,0,1-.578-1.3,11.589,11.589,0,0,0,0-1.446h0.1V16.747c0.049-.048.048,0.047,0.048,0.048,0.528,0.357.786,1.154,1.639,1.157a0.311,0.311,0,0,0,.048.193,2.523,2.523,0,0,1,.482-1.3H5.349V16.506H5.687v-0.1a3.316,3.316,0,0,0,.1-1.4c-0.022-1.05.015-2.3-.048-3.422a3.065,3.065,0,0,1,0-1.3l0.1,3.952a6.858,6.858,0,0,0,.048,1.735c0.12-1.244,0-2.931,0-4.337A4.659,4.659,0,0,1,5.928,10l0.048,4.627A5.126,5.126,0,0,0,6.169,16.7a1.455,1.455,0,0,0,.627.048C6.868,16.623,6.94,16.645,7.133,16.651Zm7.9-.675a0.234,0.234,0,0,0,.048.145A0.232,0.232,0,0,0,15.036,15.976Zm-6.313.53v0.1H8.771A0.165,0.165,0,0,0,8.723,16.506Zm-5.349.964H3.759V17.422l-0.386-.337V17.47Zm0,0.1v0.578a6.95,6.95,0,0,1,1.06,0v-0.1A1.3,1.3,0,0,0,3.373,17.566Zm0.048,0.723A7.456,7.456,0,0,0,3.807,19.4H4.53a0.373,0.373,0,0,0,.145-0.145,3.106,3.106,0,0,0,.289-0.964h-0.1A5.1,5.1,0,0,1,3.422,18.289ZM36.386,24.94a3.45,3.45,0,0,1-.337.53,0.679,0.679,0,0,0,.337.1,4.217,4.217,0,0,0,.289-0.337v-0.1A1.076,1.076,0,0,0,36.386,24.94Zm-36.1.144a0.233,0.233,0,0,0,.048.145V25.084H0.289Zm8.482,2.892c-0.115.252-.3,0.476-0.386,0.723h1.4V28.6C9.328,28.22,9.745,27.949,8.771,27.976Zm4.386,0a2.477,2.477,0,0,1-.385.723h1.446V28.651C13.8,28.214,14.1,27.948,13.157,27.976Zm4.386,0a3.119,3.119,0,0,1-.337.723h1.4V28.6a0.979,0.979,0,0,1-.337-0.626H17.542Zm4.434,0a7.091,7.091,0,0,1-.386.723h1.446V28.651a1.333,1.333,0,0,1-.386-0.675H21.976Zm5.108,0H26.361a5.207,5.207,0,0,1-.337.723h1.4V28.6A0.931,0.931,0,0,1,27.084,27.976Z" transform="translate(-0.063)"/>
</svg>
