<svg id="country_iran" xmlns="http://www.w3.org/2000/svg" width="100" height="60" viewBox="0 0 100 60">
  <metadata><?xpacket begin="﻿" id="W5M0MpCehiHzreSzNTczkc9d"?>
<x:xmpmeta xmlns:x="adobe:ns:meta/" x:xmptk="Adobe XMP Core 5.6-c138 79.159824, 2016/09/14-01:09:01        ">
   <rdf:RDF xmlns:rdf="http://www.w3.org/1999/02/22-rdf-syntax-ns#">
      <rdf:Description rdf:about=""/>
   </rdf:RDF>
</x:xmpmeta>
                                                                                                    
                                                                                                    
                                                                                                    
                                                                                                    
                                                                                                    
                                                                                                    
                                                                                                    
                                                                                                    
                                                                                                    
                                                                                                    
                                                                                                    
                                                                                                    
                                                                                                    
                                                                                                    
                                                                                                    
                                                                                                    
                                                                                                    
                                                                                                    
                                                                                                    
                                                                                                    
                           
<?xpacket end="w"?></metadata>
<defs>
    <style>
      .cls-1 {
        fill: #f5f5f5;
      }

      .cls-2 {
        fill: #239f40;
      }

      .cls-2, .cls-3 {
        fill-rule: evenodd;
      }

      .cls-3 {
        fill: #ce1126;
      }
    </style>
  </defs>
  <rect class="cls-1" y="13" width="100" height="34"/>
  <path class="cls-2" d="M95.891,20H95.434V19.57h-4.11V20H90.867V19.57H86.758V20H86.3V19.57H82.192V20H81.736V19.57h-4.11V20H77.168V19.57H73.059V20H72.6V19.57H68.493V20H68.036V19.57H63.927V20H63.471V19.57h-4.11V20H58.9V19.57H54.8V20H54.337V19.57H50.228V20H49.77V19.57H45.66V20H45.21V19.57H41.1V20H40.64V19.57H36.53V20H36.074V19.57h-4.11V20H31.51V19.57H27.4V20H26.941V19.57h-4.11V20H22.37V19.57H18.26V20H17.81V19.57H13.7V20H13.242V19.57H9.132V20H8.676V19.57H4.566V20H4.11V19.57H0V16.93H5.936V16.6H0V0H100V19.57H95.891V20ZM0.913,18.751H1.37V18.429H0.913v0.323ZM4.04,17.516H2.74v0.326H3.718v0.591h-1.5V17.52H0.065v1.3H0.392V17.842h1.5v0.909H4.04V17.516Zm4.571-.977H8.284V18.43H7.7V16.539H7.371V18.43H6.784V16.539H6.458v0.977H4.636v1.235h1.3V18.429H4.958V17.842h1.5v0.909H8.611V16.539Zm1.435,2.213H10.5V18.429H10.046v0.323ZM9.2,18.819H9.524V17.842h1.5v0.909h2.148V17.516h-1.3v0.326H12.85v0.591h-1.5V17.52H9.2v1.3ZM15.068,16.6H9.132V16.93h5.936V16.6Zm2.675-.065H17.417V18.43H16.83V16.539H16.5V18.43H15.916V16.539H15.59v0.977H13.769v1.235h1.3V18.429H14.09V17.842h1.5v0.909h2.153V16.539Zm1.435,2.213h0.457V18.429H19.178v0.323Zm-0.848.068h0.327V17.842h1.5v0.909H22.3V17.516H21v0.326h0.983v0.591h-1.5V17.52H18.33v1.3ZM24.2,16.6H18.265V16.93H24.2V16.6Zm2.678-.065H26.552V18.43H25.965V16.539H25.639V18.43H25.052V16.539H24.726v0.977H22.9v1.235h1.3V18.429H23.223V17.842h1.5v0.909h2.155V16.539Zm1.433,2.213h0.457V18.429H28.311v0.323Zm-0.848.068h0.326V17.842h1.5v0.909h2.148V17.516h-1.3v0.326h0.979v0.591h-1.5V17.52H27.463v1.3ZM33.336,16.6H27.4V16.93h5.936V16.6Zm2.677-.065H35.687V18.43H35.1V16.539H34.774V18.43H34.187V16.539H33.861v0.977H32.034v1.235h1.3V18.429H32.356V17.842h1.5v0.909h2.158V16.539Zm1.43,2.213H37.9V18.429H37.443v0.323Zm-0.848.068h0.326V17.842h1.5v0.909H40.57V17.516h-1.3v0.326h0.978v0.591h-1.5V17.52H36.6v1.3ZM42.466,16.6H36.53V16.93h5.936V16.6Zm2.674-.065H44.813V18.43H44.226V16.539H43.9V18.43H43.324V16.539H43v0.977H41.171v1.235h1.3V18.429H41.492V17.842h1.5v0.909H45.14V16.539Zm1.435,2.213h0.457V18.429H46.575v0.323Zm-0.848.068h0.327V17.842h1.5v0.909H49.7V17.516H48.4v0.326h0.98v0.591h-1.5V17.52H45.727v1.3ZM51.6,16.6H45.662V16.93H51.6V16.6Zm2.672-.065H53.946V18.43H53.359V16.539H53.033V18.43H52.446V16.539H52.12v0.977H50.3v1.235h1.3V18.429H50.62V17.842h1.5v0.909h2.152V16.539Zm1.436,2.213h0.457V18.429H55.708v0.323Zm-0.848.068h0.326V17.842h1.5v0.909h2.149V17.516h-1.3v0.326h0.979v0.591h-1.5V17.52H54.86v1.3ZM60.731,16.6H54.8V16.93h5.936V16.6Zm2.679-.065H63.084V18.43H62.5V16.539H62.171V18.43H61.584V16.539H61.258v0.977H59.432v1.235h1.3V18.429H59.753V17.842h1.5v0.909H63.41V16.539Zm1.43,2.213H65.3V18.429H64.84v0.323Zm-0.848.068h0.327V17.842h1.5v0.909h2.148V17.516h-1.3v0.326h0.978v0.591h-1.5V17.52H63.992v1.3ZM69.863,16.6H63.927V16.93h5.936V16.6Zm2.676-.065H72.213V18.43H71.626V16.539H71.3V18.43H70.715V16.539H70.389v0.977H68.563v1.235h1.3V18.429H68.885V17.842h1.5v0.909h2.154V16.539Zm1.434,2.213H74.43V18.429H73.973v0.323Zm-0.848.068h0.326V17.842h1.5v0.909H77.1V17.516H75.8v0.326h0.978v0.591h-1.5V17.52H73.125v1.3ZM79,16.6H73.059V16.93H79V16.6Zm2.67-.065H81.353V18.43H80.766V16.539H80.44V18.43H79.853V16.539H79.527v0.977H77.7v1.235H79V18.429H78.018V17.842h1.5v0.909H81.67V16.539Zm1.435,2.213h0.457V18.429H83.105v0.323Zm-0.848.068h0.327V17.842h1.5v0.909h2.148V17.516h-1.3v0.326H85.91v0.591h-1.5V17.52H82.257v1.3ZM88.128,16.6H82.192V16.93h5.936V16.6Zm2.672-.065H90.476V18.43H89.889V16.539H89.563V18.43H88.976V16.539H88.65v0.977H86.828v1.235h1.3V18.429H87.15V17.842h1.5v0.909H90.8V16.539Zm1.438,2.213H92.7V18.429H92.238v0.323Zm-0.848.068h0.326V17.842h1.5v0.909h2.148V17.516h-1.3v0.326h0.979v0.591h-1.5V17.52H91.39v1.3Zm4.57-.068h1.3V18.429H96.283V17.842h1.5v0.909h2.157V16.539H99.613V18.43H99.026V16.539H98.7V18.43H98.113V16.539H97.787v0.977H95.96v1.235Zm1.3-1.822V16.6H91.324V16.93H97.26Z"/>
  <path class="cls-3" d="M0,60V41.571H5.936V41.245H0V40.43H4.11V40H4.566v0.431h4.11V40H9.132v0.427h4.11V40H13.7v0.431h4.11V40h0.45v0.43h4.11V40h0.461v0.431h4.11V40H27.4v0.427h4.107l0,0V40h0.454v0.431h4.11V40H36.53v0.427h4.11V40H41.1v0.431h4.11V40h0.45v0.43h4.11V40h0.458v0.431h4.109V40H54.8v0.427h4.1v0l0.005,0H58.9V40h0.461v0.431h4.11V40h0.456v0.427h4.109v0h0V40h0.457v0.431H72.6V40h0.459v0.43h4.109V40h0.458v0.431h4.11V40h0.456v0.427H86.3v0l0,0h0V40h0.458v0.431h4.109V40h0.457v0.427h4.11V40h0.457v0.43H100V60H0ZM0.913,43.4H1.37V43.07H0.913V43.4ZM4.04,42.158H2.74v0.326H3.718V43.07h-1.5V42.162H0.065v1.3H0.392V42.484h1.5V43.4H4.04V42.158Zm4.571-.977H8.284v1.891H7.7V41.18H7.371v1.89H6.784V41.179H6.458v0.976H4.636V43.4h1.3V43.07H4.958V42.484h1.5V43.4H8.611V41.18Zm1.435,2.212H10.5v0l0,0h0V43.07H10.046v0.323ZM9.2,43.461H9.524V42.484h1.5V43.4h2.148V42.158h-1.3v0.326H12.85v0.584h-1.5V42.162H9.2v1.3Zm5.868-2.216H9.132v0.323h5.936V41.245Zm2.675-.065H17.417v1.891H16.83V41.18H16.5v1.887H15.916V41.176H15.59v0.98H13.769V43.4h1.3V43.07H14.09V42.484h1.5V43.4h2.153V41.18ZM19.178,43.4h0.457V43.07H19.178V43.4Zm-0.848.065h0.327V42.484h1.5V43.4H22.3V42.158H21v0.326h0.982V43.07h-1.5V42.162H18.33v1.3Zm5.87-2.216H18.265v0.326H24.2V41.245Zm2.674-.065H26.548v1.891H25.961V41.18H25.635v1.89H25.048V41.179H24.726v0.976H22.9V43.4h1.3V43.07H23.223V42.484h1.5V43.4h2.151V41.18Zm1.437,2.212h0.456V43.07H28.311v0.323Zm-0.848.068h0.326V42.484h1.5V43.4h2.148V42.158h-1.3v0.326h0.978v0.584h-1.5V42.162H27.463v1.3Zm5.873-2.216H27.4v0.323h5.933l0,0V41.245Zm2.671-.065H35.681v1.891H35.094V41.18H34.768v1.887H34.181V41.176H33.855l0.005,0v0.976H32.033V43.4h1.3V43.07H32.355V42.484h1.5V43.4h2.152V41.18Zm1.436,2.212H37.9v0h0V43.07H37.443v0.323Zm-0.848.068h0.326V42.484h1.5V43.4H40.57V42.158h-1.3v0.326h0.979v0.584h-1.5V42.162H36.6v1.3Zm5.871-1.893V41.245H36.53v0.323h5.936v0h0Zm2.674-.388H44.813v1.891H44.226V41.18H43.9v1.887H43.315V41.176H42.989l0.005,0v0.976H41.167V43.4h1.3V43.07H41.488V42.484h1.5V43.4H45.14V41.18ZM46.575,43.4h0.457V43.07H46.575V43.4Zm-0.848.065h0.327V42.484h1.5V43.4H49.7V42.158H48.4v0.326h0.982V43.07h-1.5l0,0V42.162H45.727v1.3ZM51.6,41.245H45.662v0.326H51.6V41.245Zm2.674-.065H53.948v1.891H53.361V41.18H53.035v1.89H52.448V41.179H52.12v0.976H50.3V43.4h1.3V43.07H50.62V42.484h1.5V43.4h2.154V41.18Zm1.434,2.212h0.457v0h0V43.07H55.708v0.323Zm-0.848.068h0.326V42.484h1.5V43.4h2.148V42.158h-1.3v0.326h0.98v0.584h-1.5V42.162H54.86v1.3Zm5.871-1.893V41.245H54.8v0.323h5.936v0h0Zm2.675-.388H63.08v1.891H62.493V41.18H62.167v1.887H61.58V41.176H61.254l0,0v0.976H59.432V43.4h1.3V43.07H59.753V42.484h1.5V43.4h2.153V41.18Zm1.434,2.212H65.3l0,0V43.07H64.84v0.323Zm-0.848.068h0.327V42.484h1.5V43.4h2.148V42.158h-1.3v0.326h0.978v0.584h-1.5V42.162H63.992v1.3Zm5.871-2.216H63.927v0.323h5.936V41.245Zm2.676-.065H72.213v1.891H71.626V41.18H71.3v1.887H70.711V41.176H70.385l0,0v0.976H68.563V43.4h1.3V43.07H68.885V42.484h1.5V43.4h2.154V41.18ZM73.973,43.4H74.43V43.07H73.973V43.4Zm-0.848.065h0.326V42.484h1.5V43.4H77.1V42.158H75.8v0.326h0.982V43.07h-1.5l0,0V42.162H73.125v1.3ZM79,41.245H73.059v0.326H79V41.245Zm2.67-.065H81.348v1.891H80.761V41.18H80.435v1.89H79.848V41.179H79.527v0.976H77.7V43.4H79V43.07H78.017V42.484h1.5V43.4H81.67V41.18Zm1.435,2.212h0.457V43.07H83.105v0.323Zm-0.848.068h0.327V42.484h1.5V43.4h2.148V42.158h-1.3v0.326H85.91v0.584h-1.5V42.162H82.257v1.3Zm5.871-2.216H82.192v0.323h5.936V41.245ZM90.8,41.18H90.476v1.891H89.889V41.18H89.563v1.887H88.976V41.176H88.65v0.98H86.828V43.4h1.3V43.07H87.15V42.484h1.5V43.4H90.8V41.18Zm1.438,2.212h0.456V43.07H92.238v0.323Zm-0.848.068h0.326V42.484h1.5V43.4h2.148V42.158h-1.3v0.326h0.978v0.584h-1.5V42.162H91.39v1.3Zm5.87-2.216H91.324v0.323H97.26V41.245Zm2.679-.065H99.613v1.891H99.026V41.18H98.7v1.887H98.108V41.176H97.782l0.005,0v0.976H95.96V43.4h1.3V43.07H96.282V42.484h1.5V43.4h2.157V41.18Zm-45.4-6.449,0.012-.016A7.33,7.33,0,0,0,53.1,24.448h0A5.6,5.6,0,0,1,54.538,34.732Zm-0.127-3.011a6.664,6.664,0,0,1-3.237,3.841,7.318,7.318,0,0,0,2.848.453,6.657,6.657,0,0,1-3.442.18l-0.01.235L50,37.215l-0.571-.785L49.42,36.2a6.657,6.657,0,0,1-3.442-.18,7.322,7.322,0,0,0,2.848-.453,6.681,6.681,0,0,1-1.237-10.98,7.325,7.325,0,0,0,1.766,10.028l-0.221-5.467v-4.31A2.275,2.275,0,0,0,50,24.1a2.274,2.274,0,0,0,.866.727v4.311l-0.221,5.467a7.325,7.325,0,0,0,1.766-10.025A6.685,6.685,0,0,1,54.411,31.721ZM50,23.786a1.059,1.059,0,0,1-1.85-1A1,1,0,0,0,50,23.1a1,1,0,0,0,1.85-.316A1.059,1.059,0,0,1,50,23.786Zm-4.55,10.93,0.012,0.016a5.6,5.6,0,0,1,1.444-10.285A7.331,7.331,0,0,0,45.45,34.716Z"/>
</svg>
