<?xml version="1.0" encoding="utf-8"?>
<!-- Generator: Adobe Illustrator 25.4.1, SVG Export Plug-In . SVG Version: 6.00 Build 0)  -->
<svg version="1.1" id="USA" xmlns="http://www.w3.org/2000/svg" xmlns:xlink="http://www.w3.org/1999/xlink" x="0px" y="0px"
	 viewBox="0 0 30 30" style="enable-background:new 0 0 30 30;" xml:space="preserve">
<g>
	<path style="fill:none;" d="M30,15c0,0.3,0,0.7,0,1c0,0.8-0.2,1.6-0.3,2.4c-0.2,0.9-0.5,1.7-0.8,2.5s-0.7,1.5-1.2,2.2
		c-0.5,0.9-1.2,1.6-1.9,2.4c-0.8,0.9-1.7,1.6-2.7,2.2c-2.2,1.4-4.9,2.3-7.7,2.4c-0.1,0-0.3,0-0.4,0s-0.3,0-0.4,0
		c-2.8-0.1-5.5-0.9-7.7-2.4c-1-0.6-1.9-1.4-2.7-2.2c-0.7-0.7-1.3-1.5-1.9-2.4c-0.5-0.7-0.8-1.5-1.2-2.2c-0.3-0.8-0.6-1.6-0.8-2.5
		C0.2,17.6,0.1,16.8,0,16c0-0.3,0-0.6,0-1s0-0.8,0.1-1.2c0.1-0.8,0.2-1.6,0.4-2.4s0.4-1.5,0.7-2.2C1.5,8.3,2,7.5,2.4,6.8
		C3,6,3.6,5.2,4.3,4.5c0.9-0.9,1.9-1.7,3-2.4C9.6,0.8,12.2,0,15,0s5.4,0.8,7.6,2.1c1.1,0.6,2.1,1.4,3,2.4c0.8,0.7,1.4,1.5,2,2.3
		c0.5,0.7,0.9,1.5,1.3,2.4c0.3,0.7,0.5,1.5,0.7,2.2s0.3,1.5,0.4,2.4C30,14.2,30,14.6,30,15z"/>
	<path style="fill:#CB001C;" d="M23.1,27.6c-2.2,1.4-4.9,2.3-7.7,2.4h-0.8c-2.8-0.1-5.5-0.9-7.7-2.4H23.1z"/>
	<path style="fill:#FFFFFF;" d="M25.8,25.4c-0.8,0.9-1.7,1.6-2.7,2.2H6.9c-1-0.6-1.9-1.4-2.7-2.2H25.8z"/>
	<path style="fill:#CB001C;" d="M27.7,23c-0.5,0.9-1.2,1.6-1.9,2.4H4.2c-0.7-0.7-1.3-1.5-1.9-2.4H27.7z"/>
	<path style="fill:#FFFFFF;" d="M28.8,20.8c-0.3,0.8-0.7,1.5-1.2,2.2H2.3c-0.5-0.7-0.8-1.5-1.2-2.2H28.8z"/>
	<path style="fill:#CB001C;" d="M29.6,18.3c-0.2,0.9-0.5,1.7-0.8,2.5H1.2c-0.3-0.8-0.6-1.6-0.8-2.5H29.6z"/>
	<path style="fill:#FFFFFF;" d="M30,16c0,0.8-0.2,1.6-0.3,2.4H0.4C0.2,17.6,0.1,16.8,0,16H30z"/>
	<path style="fill:#CB001C;" d="M30,15c0,0.3,0,0.7,0,1H0c0-0.3,0-0.6,0-1s0-0.8,0.1-1.2H30C30,14.2,30,14.6,30,15z"/>
	<path style="fill:#FFFFFF;" d="M29.9,13.8H0.1c0.1-0.8,0.2-1.6,0.4-2.4h29.1C29.8,12.2,29.9,12.9,29.9,13.8z"/>
	<path style="fill:#CB001C;" d="M29.6,11.4H0.4c0.2-0.8,0.4-1.5,0.7-2.2h27.6C29.1,9.9,29.4,10.6,29.6,11.4z"/>
	<path style="fill:#FFFFFF;" d="M28.8,9.2H1.2C1.5,8.3,2,7.5,2.4,6.8h25.1C28,7.5,28.5,8.3,28.8,9.2z"/>
	<path style="fill:#CB001C;" d="M27.6,6.8H2.4C3,6,3.6,5.2,4.3,4.5h21.3C26.4,5.2,27,6,27.6,6.8z"/>
	<path style="fill:#FFFFFF;" d="M25.7,4.5H4.3c0.9-0.9,1.9-1.7,3-2.4h15.3C23.7,2.7,24.8,3.5,25.7,4.5z"/>
	<path style="fill:#CB001C;" d="M22.6,2.1H7.4C9.6,0.8,12.2,0,15,0S20.4,0.8,22.6,2.1z"/>
	<path style="fill:#2A3560;" d="M15.1,0v16H0c0-0.3,0-0.6,0-1C0,6.7,6.7,0,15.1,0L15.1,0z"/>
	<path id="Path_556" style="fill:#FFFFFF;" d="M1.2,12.6l0.2,0.5H2l-0.6,0.4l0.2,0.7l-0.5-0.4l-0.5,0.4l0.2-0.7l-0.5-0.4H1L1.2,12.6
		z"/>
	<path id="Path_559" style="fill:#FFFFFF;" d="M3.1,8.5l0.2,0.7h0.6L3.4,9.4l0.3,0.7L3.1,9.7l-0.5,0.4l0.2-0.7L2.3,9.2h0.6L3.1,8.5z
		"/>
	<path id="Path_560" style="fill:#FFFFFF;" d="M3.1,11.1l0.2,0.7h0.6l-0.5,0.4l0.3,0.7l-0.6-0.4l-0.5,0.4l0.2-0.7l-0.5-0.4h0.6
		L3.1,11.1z"/>
	<path id="Path_562" style="fill:#FFFFFF;" d="M5,4.3L5.1,5h0.7L5.3,5.4L5.5,6L5,5.6L4.5,6l0.2-0.7L4.1,5h0.7L5,4.3z"/>
	<path id="Path_563" style="fill:#FFFFFF;" d="M5,7.1l0.2,0.5h0.7L5.3,8l0.2,0.7L5,8.2L4.5,8.6L4.7,8L4.1,7.6h0.7L5,7.1z"/>
	<path id="Path_564" style="fill:#FFFFFF;" d="M5,9.7l0.2,0.7h0.7l-0.6,0.4l0.2,0.7L5,11l-0.5,0.4l0.2-0.7l-0.5-0.4h0.7L5,9.7z"/>
	<path id="Path_565" style="fill:#FFFFFF;" d="M5,12.6l0.2,0.5h0.7l-0.6,0.4l0.2,0.7L5,13.8l-0.5,0.4l0.2-0.7l-0.5-0.4h0.7L5,12.6z"
		/>
	<path id="Path_566" style="fill:#FFFFFF;" d="M6.9,3l0.2,0.7h0.7L7.2,3.9l0.2,0.8L6.9,4.3L6.4,4.7l0.2-0.8L6.1,3.7h0.6L6.9,3z"/>
	<path id="Path_567" style="fill:#FFFFFF;" d="M6.9,5.8l0.2,0.7h0.7L7.2,6.8l0.2,0.5L6.9,7.1L6.4,7.3l0.2-0.5L6.1,6.4h0.6L6.9,5.8z"
		/>
	<path id="Path_568" style="fill:#FFFFFF;" d="M6.9,8.5l0.2,0.7h0.7L7.2,9.4l0.2,0.7L6.9,9.7l-0.5,0.4l0.2-0.7L6.1,9.2h0.6L6.9,8.5z
		"/>
	<path id="Path_569" style="fill:#FFFFFF;" d="M6.9,11.1l0.2,0.7h0.7l-0.5,0.4l0.2,0.7L7,12.5l-0.5,0.4l0.2-0.7l-0.5-0.4h0.6
		L6.9,11.1z"/>
	<path id="Path_570" style="fill:#FFFFFF;" d="M8.8,1.6L9,2.2h0.7L9.1,2.6l0.2,0.5L8.8,2.9L8.3,3.1l0.2-0.5L8,2.2h0.6L8.8,1.6z"/>
	<path id="Path_571" style="fill:#FFFFFF;" d="M8.8,4.3L9,5h0.7L9.1,5.4L9.3,6L8.8,5.6L8.3,6l0.2-0.7L8,5h0.6L8.8,4.3z"/>
	<path id="Path_572" style="fill:#FFFFFF;" d="M8.8,7.1L9,7.6h0.7L9.1,8l0.2,0.7L8.8,8.2L8.3,8.6L8.5,8L8,7.6h0.6L8.8,7.1z"/>
	<path id="Path_573" style="fill:#FFFFFF;" d="M8.8,9.7L9,10.4h0.7l-0.6,0.4l0.2,0.7L8.8,11l-0.5,0.4l0.2-0.7L8,10.4h0.6L8.8,9.7z"
		/>
	<path id="Path_574" style="fill:#FFFFFF;" d="M8.8,12.6L9,13.1h0.7l-0.6,0.4l0.2,0.7l-0.5-0.4l-0.5,0.4l0.2-0.7L8,13.1h0.6
		L8.8,12.6z"/>
	<path id="Path_575" style="fill:#FFFFFF;" d="M10.7,3l0.2,0.7h0.7L11,3.9l0.2,0.8l-0.5-0.4l-0.5,0.4l0.2-0.8L9.9,3.7h0.6L10.7,3z"
		/>
	<path id="Path_576" style="fill:#FFFFFF;" d="M10.7,5.8l0.2,0.7h0.7L11,6.8l0.2,0.5L10.7,7l-0.5,0.3l0.2-0.5L9.9,6.4h0.6L10.7,5.8z
		"/>
	<path id="Path_577" style="fill:#FFFFFF;" d="M10.7,8.5l0.2,0.7h0.7L11,9.4l0.2,0.7l-0.5-0.4l-0.5,0.4l0.2-0.7L9.9,9.2h0.6
		L10.7,8.5z"/>
	<path id="Path_578" style="fill:#FFFFFF;" d="M10.7,11.1l0.2,0.7h0.7L11,12.2l0.2,0.7l-0.5-0.4l-0.5,0.4l0.2-0.7l-0.5-0.4h0.6
		L10.7,11.1z"/>
	<path id="Path_579" style="fill:#FFFFFF;" d="M12.6,1.6l0.2,0.7h0.7l-0.6,0.4l0.2,0.5l-0.5-0.3l-0.5,0.3l0.2-0.5l-0.5-0.4h0.6
		L12.6,1.6z"/>
	<path id="Path_580" style="fill:#FFFFFF;" d="M12.6,4.3L12.8,5h0.7l-0.6,0.4L13.1,6l-0.5-0.4L12.1,6l0.2-0.7L11.8,5h0.6L12.6,4.3z"
		/>
	<path id="Path_581" style="fill:#FFFFFF;" d="M12.6,7.1l0.2,0.5h0.7L12.9,8l0.2,0.7l-0.5-0.4l-0.5,0.4L12.3,8l-0.5-0.4h0.6
		L12.6,7.1z"/>
	<path id="Path_582" style="fill:#FFFFFF;" d="M12.6,9.7l0.2,0.7h0.7l-0.6,0.4l0.2,0.7L12.6,11l-0.5,0.4l0.2-0.7l-0.5-0.4h0.6
		L12.6,9.7z"/>
	<path id="Path_583" style="fill:#FFFFFF;" d="M12.6,12.6l0.2,0.5h0.7l-0.6,0.4l0.2,0.7l-0.5-0.4l-0.5,0.4l0.2-0.7l-0.5-0.4h0.6
		L12.6,12.6z"/>
	<g>
		<path style="fill:#FFFFFF;" d="M1.2,11l0.5,0.4l-0.2-0.7L2,10.3H1.3L1.2,9.7L1,10.3H0.7c0,0.1-0.1,0.2-0.1,0.2l0.2,0.1l-0.2,0.7
			L1.2,11z"/>
		<path style="fill:#FFFFFF;" d="M2.8,6.8L2.6,7.3L3.1,7l0.6,0.3L3.4,6.8l0.5-0.4H3.3L3.1,5.9L3,6L2.9,6.4H2.7
			c0,0.1-0.1,0.2-0.2,0.2L2.8,6.8z"/>
	</g>
</g>
</svg>
