<svg width="100" height="100" viewBox="0 0 100 100" xmlns="http://www.w3.org/2000/svg">
<defs>
<style>.cls-1 {
        fill: #0a50a1;
      }
      .cls-2 {
        fill: #e3e3e3;
      }
      .cls-2, .cls-3 {
        fill-rule: evenodd;
      }
      .cls-3 {
        fill: #efa811;
      }</style>
</defs>
<rect class="cls-1" y="12" width="100" height="75"/>
<path class="cls-2" d="M100,57H58V87H43V57H0V42H43V12H58V42h42V57Z"/>
<path class="cls-3" d="M58.065,52.063V55.84a37.616,37.616,0,0,0-7.405-.85,41.6,41.6,0,0,0-7.724.85V52.062c-0.883-1-3.191-3.8-3.23-5.589-0.043-1.974,1.94-3.089,4.484-2.864a3.408,3.408,0,0,1,.956-0.546c1.23-.47,3.423.357,4.246,0.7,0.065-.17.132-0.334,0.2-0.488a1.488,1.488,0,0,1,.7-2.7c-0.023-.242-0.039-0.51-0.039-0.813,0-.032,0-0.058,0-0.089a1.906,1.906,0,0,1-1.19-.239,1.936,1.936,0,0,1,1.205-.239,1.63,1.63,0,0,1,.232-1.042,1.616,1.616,0,0,1,.232,1.036,2.3,2.3,0,0,1,1.393.245,2.274,2.274,0,0,1-1.378.245c0,0.029,0,.054,0,0.083,0,0.307-.017.577-0.04,0.821a1.487,1.487,0,0,1,.711,2.661c0.076,0.165.154,0.342,0.228,0.527,0.855-.355,3-1.145,4.206-0.685a3.408,3.408,0,0,1,.956.544c2.544-.225,4.527.887,4.484,2.856C61.256,48.277,58.948,51.061,58.065,52.063ZM43.35,44.845a2.786,2.786,0,0,0-1.945,1.287c-0.729,1.339,1.19,3.921,1.19,3.921l0.51-1.023,1.02,2.216-0.51.17,0.223,0.335c0.467-.086,1.093-0.191,1.827-0.294l0.16-.723-1.02.511-0.68-.682V49.031l1.19,0.511a15.713,15.713,0,0,1-2.04-3.58A2.348,2.348,0,0,1,43.35,44.845Zm5.257,3.515,1.487,1.02s-0.64-2.761-.814-4.32c-1.154-.114-4.129-0.335-4.3.39-0.219.9,1.19,3.751,1.19,3.751l1.19-.852v2.387h-0.85l0.357,0.573c0.879-.1,1.852-0.163,2.842-0.2l0.39-.882-1.157.68C48.337,50.227,48.607,48.36,48.607,48.36Zm7.418-2.89c-0.174-.716-3.084-0.507-4.264-0.393-0.182,1.561-.836,4.3-0.836,4.3l1.53-1.02s0.278,1.867-.34,2.55l-1.19-.68,0.4,0.873c0.977,0.026,1.945.092,2.826,0.192L54.5,50.74h-0.85V48.36l1.19,0.85S56.244,46.369,56.025,45.47Zm3.57,0.68a2.787,2.787,0,0,0-1.945-1.283,2.335,2.335,0,0,1,.075,1.113,15.658,15.658,0,0,1-2.04,3.57l1.19-.51v1.53l-0.68.68-1.02-.51,0.157,0.706c0.734,0.1,1.364.214,1.834,0.3l0.219-.328-0.51-.17,1.02-2.21,0.51,1.02S60.324,47.486,59.6,46.15Z"/>
</svg>
