<svg id="Italy" xmlns="http://www.w3.org/2000/svg" width="100" height="100" viewBox="0 0 100 100">
  <metadata><?xpacket begin="﻿" id="W5M0MpCehiHzreSzNTczkc9d"?>
<x:xmpmeta xmlns:x="adobe:ns:meta/" x:xmptk="Adobe XMP Core 5.6-c138 79.159824, 2016/09/14-01:09:01        ">
   <rdf:RDF xmlns:rdf="http://www.w3.org/1999/02/22-rdf-syntax-ns#">
      <rdf:Description rdf:about=""/>
   </rdf:RDF>
</x:xmpmeta>
                                                                                                    
                                                                                                    
                                                                                                    
                                                                                                    
                                                                                                    
                                                                                                    
                                                                                                    
                                                                                                    
                                                                                                    
                                                                                                    
                                                                                                    
                                                                                                    
                                                                                                    
                                                                                                    
                                                                                                    
                                                                                                    
                                                                                                    
                                                                                                    
                                                                                                    
                                                                                                    
                           
<?xpacket end="w"?></metadata>
<defs>
    <style>
      .cls-1 {
        fill: #118642;
      }

      .cls-2 {
        fill: #c72127;
      }

      .cls-2, .cls-3 {
        fill-rule: evenodd;
      }

      .cls-3 {
        fill: #e5e5e5;
      }

      .cls-4 {
        fill: #2d43ac;
      }
    </style>
  </defs>
  <g id="country_italy_alt">
    <rect class="cls-1" y="17" width="100" height="66"/>
    <path class="cls-2" d="M55,17h45V45H55V17ZM0,55H45V83H0V55Z"/>
    <path class="cls-3" d="M100,55H55V83H45V55H0V45H45V17H55V45h45V55Z"/>
    <path class="cls-3" d="M35,38V61a4,4,0,0,1-4,4H14a4,4,0,0,1-4-4V38H9.817L7,35H37.817Z"/>
    <path class="cls-3" d="M18,64l4.5,4L27,64H18Z"/>
    <path class="cls-4" d="M15,40H30a0,0,0,0,1,0,0V58a2,2,0,0,1-2,2H17a2,2,0,0,1-2-2V40A0,0,0,0,1,15,40Z"/>
  </g>
</svg>
