<svg width="100" height="100" viewBox="0 0 100 100" xmlns="http://www.w3.org/2000/svg">
<defs>
<style>.cls-1 {
        fill: #263c6f;
      }
      .cls-2 {
        fill: #b71515;
      }
      .cls-2, .cls-3, .cls-4 {
        fill-rule: evenodd;
      }
      .cls-3 {
        fill: #e3e3e3;
      }
      .cls-4 {
        fill: #fbcd18;
      }</style>
</defs>
<rect class="cls-1" y="15" width="100" height="70"/>
<path class="cls-2" d="M0,55H45V85H0V55ZM55,15h45V45H55V15Z"/>
<rect class="cls-1" x="10" y="35" width="25" height="30"/>
<path class="cls-3" d="M55,55V85H45V55H40v9a6,6,0,0,1-6,6H11a6,6,0,0,1-6-6V55H0V45H5V30H40V45h5V15H55V45h45V55H55ZM35,35H10V61a4,4,0,0,0,4,4H31a4,4,0,0,0,4-4V35Z"/>
<path class="cls-4" d="M15,40h5V50H15V40Zm10,0h5V50H25V40ZM20,50h5V60H20V50Z"/>
</svg>
