<svg id="country_britain_empire_navy" xmlns="http://www.w3.org/2000/svg" width="100" height="66" viewBox="0 0 100 66">
  <metadata><?xpacket begin="﻿" id="W5M0MpCehiHzreSzNTczkc9d"?>
<x:xmpmeta xmlns:x="adobe:ns:meta/" x:xmptk="Adobe XMP Core 5.6-c138 79.159824, 2016/09/14-01:09:01        ">
   <rdf:RDF xmlns:rdf="http://www.w3.org/1999/02/22-rdf-syntax-ns#">
      <rdf:Description rdf:about=""/>
   </rdf:RDF>
</x:xmpmeta>
                                                                                                    
                                                                                                    
                                                                                                    
                                                                                                    
                                                                                                    
                                                                                                    
                                                                                                    
                                                                                                    
                                                                                                    
                                                                                                    
                                                                                                    
                                                                                                    
                                                                                                    
                                                                                                    
                                                                                                    
                                                                                                    
                                                                                                    
                                                                                                    
                                                                                                    
                                                                                                    
                           
<?xpacket end="w"?></metadata>
<defs>
    <style>
      .cls-1 {
        fill: #f5f5f5;
      }

      .cls-2 {
        fill: #001e6c;
      }

      .cls-2, .cls-3 {
        fill-rule: evenodd;
      }

      .cls-3 {
        fill: #c81329;
      }
    </style>
  </defs>
  <rect class="cls-1" width="100" height="66"/>
  <path class="cls-2" d="M34.778,11L46,4.089h0V11H34.778ZM27,0H40.174L27,8.231V0ZM19,8.563L5.334,0H19V8.563ZM0,11V4.416L10.043,11H0Zm9.333,8L0,25.1V19H9.333ZM19,20.977V30H4.624Zm8,0.357L40.762,30H27V21.334ZM46,19v6.5h0L35.48,19H46Z"/>
  <path class="cls-3" d="M53,37V66H46V37H0V28.3l14.2-9.293h4.4L2.141,30H21V17H0V13H21V0h4V13H46V0.88L30.48,11.061h-4.4L42.48,0H53V30h47v7H53ZM25,17V30l20.629-.011L28.72,19.009h4.4L46,26.84V17H25ZM0,3.08V0H0.44L17.28,11.061h-4.4Z"/>
</svg>
