<svg width="100" height="100" viewBox="0 0 100 100" xmlns="http://www.w3.org/2000/svg">
<defs>
<style>.cls-1 {
        fill: #fff;
        fill-rule: evenodd;
      }</style>
</defs>
<path class="cls-1" d="M50.055,12.007A27.856,27.856,0,0,0,36.58,15.528a21.957,21.957,0,0,0-8.511,7.818,19.806,19.806,0,0,0-3.219,9.325,1.821,1.821,0,0,0,.655,1.637A2.53,2.53,0,0,0,27.251,35h4.692a2.873,2.873,0,0,0,1.8-.634,2.778,2.778,0,0,0,1.036-1.69A13.969,13.969,0,0,1,40.235,24.3a16.507,16.507,0,0,1,9.82-3.31A18.508,18.508,0,0,1,60.529,24.4a9.228,9.228,0,0,1,4.364,8.029,11.013,11.013,0,0,1-2.237,6.92,44.971,44.971,0,0,1-6.819,6.709q-3.6,3.169-5.728,5.388a20.406,20.406,0,0,0-3.655,5.441,17.189,17.189,0,0,0-1.465,7.448v2.812a2.694,2.694,0,0,0,.873,2.007A2.872,2.872,0,0,0,47.935,70h4.1a2.877,2.877,0,0,0,2.073-.845,2.7,2.7,0,0,0,.873-2.007V65.076a12.291,12.291,0,0,1,2.166-7.607A43.911,43.911,0,0,1,64.13,50.5a58.518,58.518,0,0,0,5.619-5.124,20.265,20.265,0,0,0,3.6-5.493,17.74,17.74,0,0,0,1.473-7.448A17.38,17.38,0,0,0,71.6,22.237a21.5,21.5,0,0,0-8.838-7.184,30.21,30.21,0,0,0-12.711-3.046h0ZM55.989,84.96V79.036a3.078,3.078,0,0,0-3.041-3.043h-5.92a3.078,3.078,0,0,0-3.041,3.043V84.96A3.078,3.078,0,0,0,47.028,88h5.92a3.078,3.078,0,0,0,3.041-3.043h0Z"/>
</svg>
