<svg width="100" height="100" viewBox="0 0 100 100" xmlns="http://www.w3.org/2000/svg">
<defs>
<style>.cls-1 {
        fill: #3a3a3a;
      }
      .cls-2 {
        fill: #b6b6b6;
        fill-rule: evenodd;
      }</style>
</defs>
<rect class="cls-1" y="17" width="100" height="65"/>
<path class="cls-2" d="M50.5,77A27.5,27.5,0,1,1,78,49.5,27.5,27.5,0,0,1,50.5,77ZM50.421,26.216A22.851,22.851,0,1,0,73.259,49.067,22.844,22.844,0,0,0,50.421,26.216ZM68.873,59.154l-0.146,0a1.6,1.6,0,0,1-1.356.784,1.615,1.615,0,1,1,1.153-2.746,19.693,19.693,0,0,0,2.135-8.361,17.4,17.4,0,0,0-2.147-7.374,1.606,1.606,0,0,1-1.141.476,1.635,1.635,0,0,1,0-3.27,1.585,1.585,0,0,1,1.028.4l0.1,0s3.483,4.806,3.576,9.745C72.169,53.9,68.873,59.154,68.873,59.154Zm-3.482-6.011c-0.1,4.982-3.789,2.942-3.789,2.942l-6.616-4.67c-0.779-.561-0.014-0.766-0.014-0.766L59,50.576a0.932,0.932,0,0,0-.223-1.72l-3.838.261c-0.554-.086-0.206-0.763-0.206-0.763l5.685-4.316c4.964-3.058,4.843,2.212,4.843,2.212C72.317,49.714,65.391,53.143,65.391,53.143ZM53.108,49.874a2.946,2.946,0,0,1-.264,1.212L64.694,63.16l-1.256,1.232L51.673,52.406a2.906,2.906,0,0,1-2.885.115L37.278,63.781l-1.236-1.256L47.519,51.3a2.9,2.9,0,0,1,.1-3.022L36.337,36.781l1.256-1.232,11.37,11.585a2.941,2.941,0,0,1,2.636.17L63.747,35.42l1.236,1.256L52.8,48.59A2.939,2.939,0,0,1,53.108,49.874Zm-4.419-4.3L43.9,39.061s-2.108-3.641,2.875-3.832c0,0,3.306-6.97,6.9,0,0,0,5.271-.216,2.3,4.79l-4.217,5.748s-0.671.359-.767-0.192l0.192-3.832a0.933,0.933,0,0,0-1.725-.192v4.024S49.264,46.343,48.689,45.576ZM59.509,35.435a1.636,1.636,0,0,1-1.151-2.782,17.4,17.4,0,0,0-7.368-2.143,19.672,19.672,0,0,0-8.336,2.122,1.657,1.657,0,1,1-1.99-.2l0-.138s5.256-3.3,10.349-3.2c4.941,0.093,9.748,3.575,9.748,3.575l0,0.132a1.611,1.611,0,0,1,.368,1A1.628,1.628,0,0,1,59.509,35.435ZM40.34,43.972l5.673,4.318s0.347,0.677-.205.763l-3.829-.261a0.933,0.933,0,0,0-.223,1.721l4.024,0.072s0.763,0.205-.014.766l-6.6,4.672s-3.679,2.042-3.781-2.943c0,0-6.911-3.431.124-6.9C35.507,46.185,35.387,40.912,40.34,43.972Zm-6.494-2.036a1.635,1.635,0,0,1-1.148-.471,17.394,17.394,0,0,0-2.145,7.37,19.681,19.681,0,0,0,2.131,8.353,1.646,1.646,0,0,1,1.162-.477,1.615,1.615,0,1,1-1.372,2.447l-0.135,0s-3.3-5.254-3.2-10.346c0.092-4.94,3.576-9.745,3.576-9.745l0.092,0a1.615,1.615,0,0,1,1.04-.4A1.635,1.635,0,1,1,33.846,41.936ZM51.7,53.774l4.789,6.52s2.107,3.644-2.874,3.836c0,0-3.3,6.976-6.9,0,0,0-5.268.216-2.3-4.795l4.215-5.753s0.671-.36.766,0.192l-0.191,3.835a0.932,0.932,0,0,0,1.724.192V53.774S51.124,53.007,51.7,53.774ZM41.314,64.353a1.631,1.631,0,0,1,1.17,2.775,17.389,17.389,0,0,0,7.356,2.136,19.668,19.668,0,0,0,8.333-2.12,1.637,1.637,0,1,1,2.8-1.157,1.61,1.61,0,0,1-.806,1.375l0,0.115s-5.256,3.3-10.349,3.2c-4.941-.093-9.748-3.575-9.748-3.575l0-.088a1.6,1.6,0,0,1-.393-1.027A1.638,1.638,0,0,1,41.314,64.353Z"/>
</svg>
