<svg id="country_usa" xmlns="http://www.w3.org/2000/svg" width="100" height="100" viewBox="0 0 100 100">
  <metadata><?xpacket begin="﻿" id="W5M0MpCehiHzreSzNTczkc9d"?>
<x:xmpmeta xmlns:x="adobe:ns:meta/" x:xmptk="Adobe XMP Core 5.6-c138 79.159824, 2016/09/14-01:09:01        ">
   <rdf:RDF xmlns:rdf="http://www.w3.org/1999/02/22-rdf-syntax-ns#">
      <rdf:Description rdf:about=""/>
   </rdf:RDF>
</x:xmpmeta>
                                                                                                    
                                                                                                    
                                                                                                    
                                                                                                    
                                                                                                    
                                                                                                    
                                                                                                    
                                                                                                    
                                                                                                    
                                                                                                    
                                                                                                    
                                                                                                    
                                                                                                    
                                                                                                    
                                                                                                    
                                                                                                    
                                                                                                    
                                                                                                    
                                                                                                    
                                                                                                    
                           
<?xpacket end="w"?></metadata>
<defs>
    <style>
      .cls-1 {
        fill: #e1e1e1;
      }

      .cls-2 {
        fill: #bf0a31;
      }

      .cls-2, .cls-4 {
        fill-rule: evenodd;
      }

      .cls-3 {
        fill: #18396d;
      }

      .cls-4 {
        fill: #e3e3e3;
      }
    </style>
  </defs>
  <g id="country_usa_modern">
    <rect class="cls-1" y="17" width="100" height="67"/>
    <path class="cls-2" d="M0,79H100v5H0V79ZM0,69H100v5H0V69ZM0,59H100v5H0V59ZM51,49h49v5H51V49Zm0-11h49v5H51V38Zm0-11h49v5H51V27Zm0-11h49v5H51V16Z"/>
    <rect class="cls-3" y="16" width="51" height="38"/>
    <path class="cls-4" d="M5,19.528l-1.238.944L4.238,22,3,21.055,1.762,22l0.473-1.527L1,19.528h1.53L3,18l0.473,1.527H5m9,0-1.238.944L13.238,22,12,21.055,10.762,22l0.473-1.527L10,19.528h1.53L12,18l0.473,1.527H14m9,0-1.238.944L22.238,22,21,21.055,19.762,22l0.473-1.527L19,19.528h1.53L21,18l0.473,1.527H23m9,0-1.238.944L31.238,22,30,21.055,28.762,22l0.473-1.527L28,19.528h1.53L30,18l0.473,1.527H32m9,0-1.238.944L40.238,22,39,21.055,37.762,22l0.473-1.527L37,19.528h1.53L39,18l0.473,1.527H41m9,0-1.238.944L49.238,22,48,21.055,46.762,22l0.473-1.527L46,19.528h1.53L48,18l0.473,1.527H50M9.5,23.372l-1.238.944,0.473,1.527L7.5,24.9l-1.238.944,0.473-1.527L5.5,23.372h1.53L7.5,21.845l0.473,1.527H9.5m9,0-1.238.944,0.473,1.527L16.5,24.9l-1.238.944,0.473-1.527L14.5,23.372h1.53L16.5,21.845l0.473,1.527H18.5m9,0-1.238.944,0.473,1.527L25.5,24.9l-1.238.944,0.473-1.527L23.5,23.372h1.53L25.5,21.845l0.473,1.527H27.5m9,0-1.238.944,0.473,1.527L34.5,24.9l-1.238.944,0.473-1.527L32.5,23.372h1.53L34.5,21.845l0.473,1.527H36.5m9,0-1.238.944,0.473,1.527L43.5,24.9l-1.238.944,0.473-1.527L41.5,23.372h1.53L43.5,21.845l0.473,1.527H45.5M5,27.465l-1.238.944,0.473,1.527L3,28.992l-1.238.944,0.473-1.527L1,27.465h1.53L3,25.938l0.473,1.527H5m9,0-1.238.944,0.473,1.527L12,28.992l-1.238.944,0.473-1.527L10,27.465h1.53L12,25.938l0.473,1.527H14m9,0-1.238.944,0.473,1.527L21,28.992l-1.238.944,0.473-1.527L19,27.465h1.53L21,25.938l0.473,1.527H23m9,0-1.238.944,0.473,1.527L30,28.992l-1.238.944,0.473-1.527L28,27.465h1.53L30,25.938l0.473,1.527H32m9,0-1.238.944,0.473,1.527L39,28.992l-1.238.944,0.473-1.527L37,27.465h1.53L39,25.938l0.473,1.527H41m9,0-1.238.944,0.473,1.527L48,28.992l-1.238.944,0.473-1.527L46,27.465h1.53L48,25.938l0.473,1.527H50M9.5,31.447l-1.238.944,0.473,1.527L7.5,32.974l-1.238.944,0.473-1.527L5.5,31.447h1.53L7.5,29.92l0.473,1.527H9.5m9,0-1.238.944,0.473,1.527L16.5,32.974l-1.238.944,0.473-1.527L14.5,31.447h1.53L16.5,29.92l0.473,1.527H18.5m9,0-1.238.944,0.473,1.527L25.5,32.974l-1.238.944,0.473-1.527L23.5,31.447h1.53L25.5,29.92l0.473,1.527H27.5m9,0-1.238.944,0.473,1.527L34.5,32.974l-1.238.944,0.473-1.527L32.5,31.447h1.53L34.5,29.92l0.473,1.527H36.5m9,0-1.238.944,0.473,1.527L43.5,32.974l-1.238.944,0.473-1.527L41.5,31.447h1.53L43.5,29.92l0.473,1.527H45.5M5,35.255L3.765,36.2l0.473,1.527L3,36.783l-1.238.944L2.235,36.2,1,35.255h1.53L3,33.728l0.473,1.527H5m9,0-1.238.944,0.473,1.527L12,36.783l-1.238.944L11.235,36.2,10,35.255h1.53L12,33.728l0.473,1.527H14m9,0-1.238.944,0.473,1.527L21,36.783l-1.238.944L20.235,36.2,19,35.255h1.53L21,33.728l0.473,1.527H23m9,0-1.238.944,0.473,1.527L30,36.783l-1.238.944L29.235,36.2,28,35.255h1.53L30,33.728l0.473,1.527H32m9,0-1.238.944,0.473,1.527L39,36.783l-1.238.944L38.235,36.2,37,35.255h1.53L39,33.728l0.473,1.527H41m9,0-1.238.944,0.473,1.527L48,36.783l-1.238.944L47.235,36.2,46,35.255h1.53L48,33.728l0.473,1.527H50m-40.5,3.5L8.265,39.7l0.473,1.527L7.5,40.283l-1.238.944L6.735,39.7,5.5,38.755h1.53L7.5,37.228l0.473,1.527H9.5m9,0-1.238.944,0.473,1.527L16.5,40.283l-1.238.944L15.735,39.7,14.5,38.755h1.53L16.5,37.228l0.473,1.527H18.5m9,0-1.238.944,0.473,1.527L25.5,40.283l-1.238.944L24.735,39.7,23.5,38.755h1.53L25.5,37.228l0.473,1.527H27.5m9,0-1.238.944,0.473,1.527L34.5,40.283l-1.238.944L33.735,39.7,32.5,38.755h1.53L34.5,37.228l0.473,1.527H36.5m9,0-1.238.944,0.473,1.527L43.5,40.283l-1.238.944L42.735,39.7,41.5,38.755h1.53L43.5,37.228l0.473,1.527H45.5M5,42.344l-1.238.944,0.473,1.527L3,43.871l-1.238.944,0.473-1.527L1,42.344h1.53L3,40.817l0.473,1.527H5m9,0-1.238.944,0.473,1.527L12,43.871l-1.238.944,0.473-1.527L10,42.344h1.53L12,40.817l0.473,1.527H14m9,0-1.238.944,0.473,1.527L21,43.871l-1.238.944,0.473-1.527L19,42.344h1.53L21,40.817l0.473,1.527H23m9,0-1.238.944,0.473,1.527L30,43.871l-1.238.944,0.473-1.527L28,42.344h1.53L30,40.817l0.473,1.527H32m9,0-1.238.944,0.473,1.527L39,43.871l-1.238.944,0.473-1.527L37,42.344h1.53L39,40.817l0.473,1.527H41m9,0-1.238.944,0.473,1.527L48,43.871l-1.238.944,0.473-1.527L46,42.344h1.53L48,40.817l0.473,1.527H50M9.5,45.752L8.265,46.7l0.473,1.527L7.5,47.279l-1.238.944L6.735,46.7,5.5,45.752h1.53L7.5,44.225l0.473,1.527H9.5m9,0-1.238.944,0.473,1.527L16.5,47.279l-1.238.944L15.735,46.7,14.5,45.752h1.53L16.5,44.225l0.473,1.527H18.5m9,0-1.238.944,0.473,1.527L25.5,47.279l-1.238.944L24.735,46.7,23.5,45.752h1.53L25.5,44.225l0.473,1.527H27.5m9,0-1.238.944,0.473,1.527L34.5,47.279l-1.238.944L33.735,46.7,32.5,45.752h1.53L34.5,44.225l0.473,1.527H36.5m9,0-1.238.944,0.473,1.527L43.5,47.279l-1.238.944L42.735,46.7,41.5,45.752h1.53L43.5,44.225l0.473,1.527H45.5M5,49.528l-1.238.944L4.238,52,3,51.055,1.762,52l0.473-1.527L1,49.528h1.53L3,48l0.473,1.527H5m9,0-1.238.944L13.238,52,12,51.055,10.762,52l0.473-1.527L10,49.528h1.53L12,48l0.473,1.527H14m9,0-1.238.944L22.238,52,21,51.055,19.762,52l0.473-1.527L19,49.528h1.53L21,48l0.473,1.527H23m9,0-1.238.944L31.238,52,30,51.055,28.762,52l0.473-1.527L28,49.528h1.53L30,48l0.473,1.527H32m9,0-1.238.944L40.238,52,39,51.055,37.762,52l0.473-1.527L37,49.528h1.53L39,48l0.473,1.527H41m9,0-1.238.944L49.238,52,48,51.055,46.762,52l0.473-1.527L46,49.528h1.53L48,48l0.473,1.527H50"/>
  </g>
</svg>
