<svg xmlns="http://www.w3.org/2000/svg" width="100" height="100" viewBox="0 0 100 100">
  <metadata><?xpacket begin="﻿" id="W5M0MpCehiHzreSzNTczkc9d"?>
<x:xmpmeta xmlns:x="adobe:ns:meta/" x:xmptk="Adobe XMP Core 5.6-c138 79.159824, 2016/09/14-01:09:01        ">
   <rdf:RDF xmlns:rdf="http://www.w3.org/1999/02/22-rdf-syntax-ns#">
      <rdf:Description rdf:about=""/>
   </rdf:RDF>
</x:xmpmeta>
                                                                                                    
                                                                                                    
                                                                                                    
                                                                                                    
                                                                                                    
                                                                                                    
                                                                                                    
                                                                                                    
                                                                                                    
                                                                                                    
                                                                                                    
                                                                                                    
                                                                                                    
                                                                                                    
                                                                                                    
                                                                                                    
                                                                                                    
                                                                                                    
                                                                                                    
                                                                                                    
                           
<?xpacket end="w"?></metadata>
<defs>
    <style>
      .cls-1 {
        fill: #7b1212;
      }

      .cls-2 {
        fill: #eee;
      }

      .cls-2, .cls-3 {
        fill-rule: evenodd;
      }

      .cls-3 {
        fill: #c71919;
      }
    </style>
  </defs>
  <rect class="cls-1" y="16" width="100" height="68"/>
  <path id="Color_Fill_4" data-name="Color Fill 4" class="cls-2" d="M89.566,40.34A30.205,30.205,0,0,1,80,54l-5,1V50s5.926-5.566,4-11c-2.022-5.706-8-5-8-5v2l2,2v4l-6,6v5L59.541,64.77,57,78l-3,4H51V78l1-3H48l1,3v4H46l-3-4L40.451,64.77,32.986,53V48l-6-6V38l2-2V34S23,33.295,20.977,39c-1.927,5.434,4,11,4,11v5l-5-1A30.208,30.208,0,0,1,10.4,40.34c-0.7-3.545-3.717-25.149,29.581-22.027a15.987,15.987,0,0,0,3.937,10.682l3.445-4.011h5.266l3.442,4.011a15.993,15.993,0,0,0,3.934-10.682C93.28,15.19,90.261,36.795,89.566,40.34Z"/>
  <path id="Color_Fill_5" data-name="Color Fill 5" class="cls-3" d="M87.115,43.02a12.093,12.093,0,0,1-3.6.3,11.419,11.419,0,0,0,1.459-7.12c0.039,0,2.417-.529,3.245-4.857h0.044A13.89,13.89,0,0,1,87.115,43.02Zm-3.572-8.172a9.41,9.41,0,0,0-4.528-5.491,7.763,7.763,0,0,0-1.583-7.826V21.487c2.582,0.807,7.789,3.5,9.319,7.178C86.763,32.126,85.216,34.38,83.543,34.848ZM68,30l2-2h1v5l-2,1H68V30Zm3-3-1-1-3,3v6l4,4v3L57,52V50l4.628-4.142L65.6,20.1a37.86,37.86,0,0,1,9.543.605C77.015,23.191,77.081,27.014,77,28A23.532,23.532,0,0,0,71,27ZM55.582,49.751L51.976,72,50,74v0h0v0l-1.973-2-3.6-22.249-3.767-4.675L36.012,20h2c-0.034,5.265,4.97,12.021,4.97,12.021l0.031,4.035L48,45v9l2,6,2-6V45l5-8.943,0.031-4.035S62.035,25.265,62,20h2L59.352,45.075ZM44.975,33.79v-1.2l5.034,5.552,5-5.552v1.2c0,2.216-3.383,7.013-5,8.383C48.389,40.8,44.975,36.006,44.975,33.79Zm0-3.194V29.759l3.4-2.782h3.278l3.364,2.782V30.6l-5,4.968ZM43.006,50v2L29.017,42V39l4-4V29l-3-3-1,1a23.5,23.5,0,0,0-6,1c-0.081-.986-0.015-4.809,1.851-7.291a37.8,37.8,0,0,1,9.536-.605l3.973,25.754Zm-22-20.643a9.408,9.408,0,0,0-4.524,5.491c-1.672-.468-3.217-2.722-3.207-6.183,1.529-3.677,6.733-6.371,9.312-7.178V21.53A7.767,7.767,0,0,0,21.008,29.357ZM15.059,36.2a11.427,11.427,0,0,0,1.458,7.12,12.073,12.073,0,0,1-3.6-.3,13.9,13.9,0,0,1-1.142-11.675h0.044C12.644,35.674,15.02,36.2,15.059,36.2Zm2.523,8.158a13.482,13.482,0,0,0,5.578,5.751c0.179,1.3.244,1.772,0.4,2.984-3.419-.764-7.224-3.71-9.444-8.821A6.361,6.361,0,0,0,17.582,44.361Zm0.022-9.08c1.845-4.718,4.469-6.932,9.321-6.789,0.207,1.052.41,2.257,0.749,4.169-6.536-.152-11.762,6.5-5.18,15.992C18.859,45.765,15.759,40,17.6,35.281ZM32.015,30v4h-1l-2-1V28h1ZM46,74l2,4v3H47l-2.188-3.69L42.007,64,35.013,52V49l8.993,7ZM56,56l9-7v3L58,64,55.189,77.31,53,81H52V78l2-4ZM82.423,35.281C84.269,40,81.167,45.765,77.528,48.653c6.588-9.5,1.357-16.144-5.184-15.992,0.339-1.912.542-3.117,0.749-4.169C77.951,28.349,80.577,30.563,82.423,35.281Zm0.022,9.08a6.37,6.37,0,0,0,3.473-.087c-2.221,5.111-6.03,8.057-9.451,8.821,0.152-1.212.217-1.685,0.4-2.984A13.487,13.487,0,0,0,82.444,44.361Z"/>
</svg>
