<svg id="country_india" xmlns="http://www.w3.org/2000/svg" width="100" height="100" viewBox="0 0 100 100">
  <metadata><?xpacket begin="﻿" id="W5M0MpCehiHzreSzNTczkc9d"?>
<x:xmpmeta xmlns:x="adobe:ns:meta/" x:xmptk="Adobe XMP Core 5.6-c138 79.159824, 2016/09/14-01:09:01        ">
   <rdf:RDF xmlns:rdf="http://www.w3.org/1999/02/22-rdf-syntax-ns#">
      <rdf:Description rdf:about=""/>
   </rdf:RDF>
</x:xmpmeta>
                                                                                                    
                                                                                                    
                                                                                                    
                                                                                                    
                                                                                                    
                                                                                                    
                                                                                                    
                                                                                                    
                                                                                                    
                                                                                                    
                                                                                                    
                                                                                                    
                                                                                                    
                                                                                                    
                                                                                                    
                                                                                                    
                                                                                                    
                                                                                                    
                                                                                                    
                                                                                                    
                           
<?xpacket end="w"?></metadata>
<defs>
    <style>
      .cls-1, .cls-5 {
        fill: #fff;
      }

      .cls-2 {
        fill: #006934;
      }

      .cls-3 {
        fill: #f15b25;
      }

      .cls-4 {
        fill: #2c2c6f;
      }

      .cls-5 {
        fill-rule: evenodd;
      }
    </style>
  </defs>
  <rect class="cls-1" y="37" width="100" height="26"/>
  <rect class="cls-2" y="62" width="100" height="22"/>
  <rect class="cls-3" y="16" width="100" height="22"/>
  <circle class="cls-4" cx="50" cy="50" r="11"/>
  <path class="cls-5" d="M53.748,48.611l-1.87.762a1.967,1.967,0,0,0-.1-0.253l1.86-.783L58.21,45.3c0.132,0.232.285,0.45,0.4,0.693a0.409,0.409,0,0,0,.312.755c0.091,0.248.137,0.515,0.207,0.772Zm-0.489-.924-1.6,1.215a1.983,1.983,0,0,0-.172-0.213l1.594-1.237,3.636-4.117c0.188,0.189.393,0.36,0.565,0.564a0.41,0.41,0,0,0,.5.653c0.153,0.217.265,0.462,0.4,0.692Zm-0.711-.766L51.31,48.515a1.993,1.993,0,0,0-.213-0.172l1.216-1.6,2.444-4.914c0.231,0.133.475,0.246,0.693,0.4a0.41,0.41,0,0,0,.653.5c0.2,0.171.376,0.377,0.565,0.564Zm-0.885-.555L50.88,48.225a1.97,1.97,0,0,0-.253-0.1l0.762-1.869,1.088-5.377c0.257,0.07.524,0.117,0.773,0.207a0.409,0.409,0,0,0,.756.312c0.243,0.113.461,0.267,0.693,0.4Zm-1-.308L50.39,48.05a2.026,2.026,0,0,0-.272-0.027l0.252-2L50.026,40.5c0.27,0,.537.017,0.8,0.041a0.41,0.41,0,0,0,.812.11c0.266,0.047.514,0.139,0.772,0.207Zm-1.045-.039,0.252,2a2.027,2.027,0,0,0-.272.027l-0.274-1.991-1.748-5.2c0.258-.068.506-0.161,0.773-0.207a0.41,0.41,0,0,0,.812-0.11c0.265-.023.531-0.039,0.8-0.04Zm-1.019.233,0.762,1.869a1.964,1.964,0,0,0-.253.1l-0.783-1.859-3.036-4.573c0.232-.132.45-0.285,0.693-0.4a0.409,0.409,0,0,0,.756-0.312c0.248-.091.515-0.137,0.772-0.207Zm-3.368-4.425,2.444,4.914,1.215,1.6a1.983,1.983,0,0,0-.213.172l-1.238-1.594-4.119-3.634c0.189-.188.361-0.393,0.565-0.565a0.411,0.411,0,0,0,.653-0.5C44.757,42.073,45,41.961,45.232,41.827Zm-1.958,1.508,3.636,4.117L48.5,48.69a1.993,1.993,0,0,0-.172.213l-1.6-1.215-4.916-2.443c0.134-.231.246-0.475,0.4-0.693a0.41,0.41,0,0,0,.5-0.653C42.881,43.7,43.086,43.524,43.274,43.335Zm-1.681,3.191A0.412,0.412,0,0,0,41.381,46c0.114-.243.267-0.461,0.4-0.692l4.575,3.034,1.86,0.783a1.963,1.963,0,0,0-.1.253l-1.87-.762-5.38-1.087c0.07-.257.117-0.524,0.207-0.772A0.413,0.413,0,0,0,41.593,46.526ZM46.241,51.4l1.87-.762a1.967,1.967,0,0,0,.1.253l-1.86.783L41.78,54.705c-0.132-.232-0.285-0.45-0.4-0.693a0.409,0.409,0,0,0-.312-0.755c-0.091-.248-0.137-0.515-0.207-0.772Zm0.489,0.923,1.6-1.215a1.982,1.982,0,0,0,.172.213L46.91,52.556l-3.636,4.117c-0.188-.189-0.393-0.36-0.565-0.564a0.41,0.41,0,0,0-.5-0.653c-0.153-.217-0.265-0.462-0.4-0.692Zm0.711,0.766,1.238-1.594a1.994,1.994,0,0,0,.213.172l-1.215,1.6-2.444,4.914c-0.231-.133-0.475-0.246-0.692-0.4a0.411,0.411,0,0,0-.653-0.5c-0.2-.171-0.376-0.377-0.565-0.564Zm0.885,0.555,0.783-1.859a1.964,1.964,0,0,0,.253.1L48.6,53.756l-1.088,5.377c-0.257-.07-0.524-0.117-0.772-0.207a0.409,0.409,0,0,0-.756-0.312c-0.243-.113-0.461-0.267-0.693-0.4Zm-7.8-2.806c-0.023-.264-0.039-0.531-0.04-0.8l5.522,0.344,2-.252a2.026,2.026,0,0,0,.028.272l-1.992.274-5.2,1.747c-0.068-.258-0.161-0.506-0.207-0.772A0.409,0.409,0,0,0,40.527,50.837Zm7.512-1.227a2.026,2.026,0,0,0-.028.272l-2-.252-5.522.344c0-.27.017-0.537,0.041-0.8a0.409,0.409,0,0,0,.11-0.811c0.047-.266.139-0.514,0.207-0.772l5.2,1.747Zm1.286,4.341L49.6,51.959a2.027,2.027,0,0,0,.272.027l-0.252,2,0.344,5.519c-0.27,0-.537-0.017-0.8-0.04a0.41,0.41,0,0,0-.812-0.11c-0.266-.047-0.515-0.139-0.773-0.207Zm1.045,0.039-0.252-2a2.026,2.026,0,0,0,.272-0.027l0.274,1.991,1.748,5.2c-0.258.068-.506,0.16-0.772,0.207a0.41,0.41,0,0,0-.812.11c-0.265.023-.531,0.039-0.8,0.04Zm1.019-.233-0.762-1.869a1.97,1.97,0,0,0,.253-0.1l0.783,1.859L54.7,58.215c-0.232.132-.45,0.285-0.693,0.4a0.409,0.409,0,0,0-.756.312c-0.248.091-.515,0.137-0.773,0.207Zm3.368,4.425-2.444-4.914-1.216-1.6a2,2,0,0,0,.213-0.172l1.238,1.594,4.119,3.634c-0.189.188-.36,0.393-0.564,0.564a0.41,0.41,0,0,0-.653.5C55.232,57.935,54.988,58.048,54.757,58.181Zm1.958-1.508-3.636-4.117-1.594-1.237a2,2,0,0,0,.172-0.213l1.6,1.215,4.917,2.443c-0.134.23-.246,0.475-0.4,0.692a0.41,0.41,0,0,0-.5.653C57.108,56.313,56.9,56.485,56.715,56.674ZM58.4,53.482a0.412,0.412,0,0,0,.212.53c-0.114.243-.267,0.461-0.4,0.693l-4.575-3.034-1.86-.783a1.982,1.982,0,0,0,.1-0.253l1.87,0.762,5.38,1.088c-0.07.257-.117,0.524-0.207,0.772A0.412,0.412,0,0,0,58.4,53.482ZM51.95,50.4a2.026,2.026,0,0,0,.027-0.272l2,0.252,5.522-.344c0,0.27-.017.537-0.041,0.8a0.409,0.409,0,0,0-.11.811c-0.047.266-.139,0.514-0.207,0.772l-5.2-1.747Zm7.512-1.228c0.023,0.265.039,0.531,0.041,0.8l-5.522-.344-2,.252a2.026,2.026,0,0,0-.027-0.272l1.992-.274,5.2-1.747c0.068,0.258.161,0.506,0.207,0.772A0.409,0.409,0,0,0,59.463,49.172Z"/>
</svg>
