<svg id="country_brazil" xmlns="http://www.w3.org/2000/svg" width="100" height="66" viewBox="0 0 100 66">
  <metadata><?xpacket begin="﻿" id="W5M0MpCehiHzreSzNTczkc9d"?>
<x:xmpmeta xmlns:x="adobe:ns:meta/" x:xmptk="Adobe XMP Core 5.6-c138 79.159824, 2016/09/14-01:09:01        ">
   <rdf:RDF xmlns:rdf="http://www.w3.org/1999/02/22-rdf-syntax-ns#">
      <rdf:Description rdf:about=""/>
   </rdf:RDF>
</x:xmpmeta>
                                                                                                    
                                                                                                    
                                                                                                    
                                                                                                    
                                                                                                    
                                                                                                    
                                                                                                    
                                                                                                    
                                                                                                    
                                                                                                    
                                                                                                    
                                                                                                    
                                                                                                    
                                                                                                    
                                                                                                    
                                                                                                    
                                                                                                    
                                                                                                    
                                                                                                    
                                                                                                    
                           
<?xpacket end="w"?></metadata>
<defs>
    <style>
      .cls-1 {
        fill: #009b3a;
      }

      .cls-2 {
        fill: #fedf00;
      }

      .cls-2, .cls-4, .cls-5 {
        fill-rule: evenodd;
      }

      .cls-3 {
        fill: #002776;
      }

      .cls-4 {
        fill: #fff;
      }

      .cls-5 {
        fill: #65aa33;
      }
    </style>
  </defs>
  <rect class="cls-1" width="100" height="65.969"/>
  <path class="cls-2" d="M9.286,32.985L50,58.973,90.72,32.985,50,7Z"/>
  <circle class="cls-3" cx="50.016" cy="32.984" r="17.172"/>
  <path class="cls-4" d="M66.984,35.4a17.089,17.089,0,0,1-.593,2.72A39.286,39.286,0,0,0,33.4,28.669a17.017,17.017,0,0,1,.9-2.623,42.044,42.044,0,0,1,5.884-.416A41.52,41.52,0,0,1,66.984,35.4Zm-2.45,3.76,0.1,0.325-0.276-.2-0.278.2,0.1-.325-0.274-.2,0.341,0,0.108-.323,0.107,0.324,0.341,0ZM63.04,40.928l-0.35-.252-0.352.25,0.132-.411-0.347-.257,0.431,0,0.137-.409,0.135,0.41,0.431,0-0.348.255Zm-0.627-1.4-0.423-.3-0.425.3,0.159-.5L61.3,38.718l0.522,0,0.166-.494,0.163,0.5,0.521,0.005-0.421.308ZM61.508,41.62l0.139-.414,0.137,0.415,0.437,0-0.352.258L62,42.3l-0.355-.255-0.356.253,0.133-.416-0.351-.26Zm-0.939,1.451-0.289-.208-0.29.207,0.109-.34-0.286-.212,0.357,0,0.113-.338,0.112,0.339,0.357,0-0.288.211Zm-1.616,1.452-0.366-.263-0.367.261,0.137-.429L58,43.823l0.451,0,0.143-.427,0.141,0.428,0.451,0-0.364.267Zm-0.142-1.77-0.3-.213-0.3.212,0.111-.348-0.293-.218,0.365,0,0.116-.346,0.114,0.347,0.365,0L58.7,42.4Zm-1.9.583-0.3-.215-0.3.213,0.112-.35-0.3-.219,0.368,0,0.117-.349,0.115,0.349,0.368,0-0.3.218ZM55.771,28.263l-0.432-.311-0.434.309,0.162-.507-0.428-.317,0.532,0,0.17-.5,0.167,0.506,0.532,0.005-0.429.315Zm-0.953,3.673,0.376,0-0.3.222L55,32.521,54.7,32.3l-0.306.218,0.114-.358-0.3-.224,0.376,0,0.12-.356ZM54,42.561l0.111,0.353-0.3-.216-0.3.215,0.113-.352-0.3-.22,0.37,0,0.118-.351,0.116,0.351,0.37,0ZM52.4,37.74l-0.377-.272-0.378.269,0.142-.442-0.373-.277,0.465,0,0.148-.44,0.145,0.441,0.465,0-0.375.275ZM50.485,41.2l-0.431-.31-0.433.308,0.162-.506-0.426-.316,0.531,0,0.169-.5,0.166,0.5,0.531,0.005-0.428.314Zm-0.054-4.992-0.377-.271-0.379.269,0.142-.443-0.373-.277,0.465,0,0.148-.441L50.2,35.489l0.465,0-0.375.275ZM49.34,38.453l0.085,0.271-0.231-.166-0.232.165,0.087-.271-0.228-.169h0.284l0.091-.27,0.089,0.27,0.285,0Zm-0.711-.835L48.34,37.41l-0.29.206,0.108-.339-0.286-.212,0.356,0,0.113-.337,0.111,0.338,0.356,0-0.287.21ZM43.948,34.19l-0.385-.277-0.386.275,0.144-.452-0.381-.282,0.474,0L43.566,33l0.148,0.45,0.474,0-0.382.28Zm-0.905,7.556,0.172-.512,0.169,0.513,0.541,0.005-0.436.32,0.162,0.516-0.439-.316-0.44.313,0.165-.515L42.5,41.748Zm-1.471-2.491-0.366-.263-0.367.261,0.137-.429-0.362-.268,0.451,0,0.143-.427,0.141,0.428,0.45,0-0.363.266ZM40.8,40.289l0.379,0-0.306.224,0.114,0.362-0.308-.222-0.309.22,0.116-.361-0.3-.226,0.379,0,0.121-.36Zm-1.282-4-0.2-.144-0.2.143,0.075-.235L39,35.908h0.247l0.079-.234L39.4,35.908l0.246,0-0.2.146Zm-1.443,1.36-0.427-.308-0.429.305,0.16-.5-0.423-.313,0.526,0,0.167-.5,0.165,0.5,0.526,0.005-0.424.311Zm-1.463-7.11L36.144,30.2l-0.473.336,0.177-.553-0.466-.346,0.58,0,0.185-.55,0.182,0.551,0.58,0.006-0.468.343Zm-1.2,7.843,0.148-.441,0.145,0.441,0.465,0-0.375.275,0.139,0.443-0.377-.271-0.379.269,0.142-.442-0.373-.277Zm14.576,7.808,0.062-.184,0.061,0.185,0.194,0-0.157.115L50.212,46.5l-0.158-.113-0.158.113,0.059-.185L49.8,46.193h0.194Zm5.018-1.96,0.145-.431L55.3,44.233l0.455,0-0.367.269,0.136,0.434-0.369-.266-0.371.264,0.139-.434-0.366-.271Zm3.443,1.34,0.114-.34,0.112,0.34,0.358,0-0.289.212,0.107,0.342-0.291-.209-0.292.208,0.109-.341L58.1,45.574Z"/>
  <path class="cls-5" d="M65.962,36.108a0.74,0.74,0,1,1-.067-1.1A0.78,0.78,0,0,1,65.962,36.108Zm-0.256-.86a0.522,0.522,0,1,0,.018.671A0.479,0.479,0,0,0,65.706,35.248ZM64.137,34.3a0.285,0.285,0,0,0-.146-0.4c-0.147-.105-0.269-0.156-0.367-0.018-0.164.22,0.825,0.7,0.49,1.174a0.6,0.6,0,0,1-.894-0.014,0.64,0.64,0,0,1-.3-0.845l0.3,0.214c-0.095.133-.014,0.291,0.176,0.427s0.324,0.138.386,0.053c0.193-.271-0.818-0.734-0.474-1.206,0.3-.405.749-0.054,0.92,0.068a0.534,0.534,0,0,1,.2.753ZM62.376,33.09a0.285,0.285,0,0,0-.167-0.39c-0.153-.1-0.277-0.142-0.368,0-0.152.228,0.861,0.659,0.55,1.146a0.6,0.6,0,0,1-.894.033,0.64,0.64,0,0,1-.345-0.828l0.31,0.2c-0.088.138,0,.292,0.2,0.417s0.331,0.121.388,0.032c0.179-.281-0.855-0.69-0.536-1.179,0.275-.42.745-0.093,0.922,0.02a0.534,0.534,0,0,1,.241.741Zm-2.4-1.661-0.161.284,0.813,0.46-0.138.244-0.813-.46-0.207.366,1.037,0.586-0.149.264-1.281-.724,0.805-1.422,1.22,0.69-0.15.264Zm-1.37.01a0.937,0.937,0,0,1-.137.69L58.22,32a1.061,1.061,0,0,0,.089-0.634L57.77,31.1l-0.271.543-0.272-.136,0.751-1.452,0.836,0.417a0.514,0.514,0,0,1,.231.689A0.508,0.508,0,0,1,58.608,31.439Zm0.049-.7-0.564-.281-0.188.376,0.564,0.281A0.21,0.21,0,1,0,58.657,30.735Zm-2.122-.995a0.521,0.521,0,0,0-.41.942,0.428,0.428,0,0,0,.46-0.106l-0.241-.1,0.093-.214L57,30.5l-0.326.749-0.214-.093,0.1-.223a0.67,0.67,0,0,1-.558.023,0.822,0.822,0,0,1,.652-1.5,0.739,0.739,0,0,1,.414.765l-0.321-.14A0.4,0.4,0,0,0,56.535,29.74Zm-2.456.443a0.822,0.822,0,1,1,.976-0.508A0.779,0.779,0,0,1,54.079,30.183Zm0.466-1.247a0.521,0.521,0,1,0,.225.632A0.478,0.478,0,0,0,54.545,28.937Zm-1.8.072a1.166,1.166,0,0,1,0,.7l-0.267-.084a1.061,1.061,0,0,0-.011-0.64L51.887,28.8l-0.183.579-0.29-.091,0.514-1.552,0.891,0.281A0.51,0.51,0,0,1,52.742,29.008Zm-0.037-.71-0.6-.19-0.126.4,0.6,0.189A0.21,0.21,0,1,0,52.706,28.3Zm-2.219.105-0.633-.164-0.152.588-0.294-.076,0.432-1.576,0.9,0.234A0.514,0.514,0,1,1,50.487,28.4Zm0.159-.707-0.611-.158-0.105.407L50.541,28.1A0.21,0.21,0,1,0,50.646,27.7Zm-3.865-.681-0.044.253L47.5,27.4l-0.047.276-0.76-.13-0.063.368,0.932,0.16-0.047.276L46.3,28.142l0.249-1.45,1.18,0.2-0.047.276Zm-2.679.848,0.1-1.117-0.423,1.088-0.256-.022-0.228-1.145-0.1,1.117-0.279-.024,0.142-1.628,0.407,0.036,0.228,1.145,0.423-1.088,0.407,0.036-0.142,1.628Zm-1.791-.141-1.471-.051L40.9,26.038l1.4,0.049-0.011.3-1.121-.039-0.011.327,0.934,0.033-0.01.28-0.934-.033-0.015.42,1.191,0.041Zm-2.776-.044-0.771.014-0.029-1.634,0.771-.013a0.7,0.7,0,0,1,.713.688l0,0.233A0.7,0.7,0,0,1,39.535,27.679Zm0.405-.895a0.444,0.444,0,0,0-.452-0.436l-0.444.008,0.018,1.027,0.444-.008a0.444,0.444,0,0,0,.436-0.451Zm-1.862.94-0.28.02a1.062,1.062,0,0,0-.245-0.591l-0.6.042L36.995,27.8l-0.3.021L36.6,26.189l0.932-.065a0.51,0.51,0,0,1,.292.952A1.166,1.166,0,0,1,38.078,27.724Zm-0.547-1.3-0.629.044,0.029,0.419,0.629-.044A0.21,0.21,0,1,0,37.531,26.428Zm-2.172,1.54a0.822,0.822,0,1,1,.631-0.9A0.78,0.78,0,0,1,35.359,27.969ZM35.2,26.648a0.521,0.521,0,1,0,.492.457A0.478,0.478,0,0,0,35.2,26.648Z"/>
</svg>
