<svg width="100" height="100" viewBox="0 0 100 100" xmlns="http://www.w3.org/2000/svg">
<defs>
<style>.cls-1 {
        fill: #636363;
      }
      .cls-2 {
        fill: #bbb;
        fill-rule: evenodd;
      }</style>
</defs>
<rect class="cls-1" y="12" width="100" height="75"/>
<path class="cls-2" d="M26,40.964l1.611,1.7a0.92,0.92,0,0,1-.216,1.152,1.2,1.2,0,0,1-1.224.432L24.382,42.36a7.831,7.831,0,0,1-3.972,1.453A9.729,9.729,0,0,1,13.026,40.9l-1.831,2.63a1.212,1.212,0,0,1-1.656,0,1.282,1.282,0,0,1-.072-1.872l2.413-1.987q-0.274-.327-0.541-0.677l0.864-.72a6.923,6.923,0,0,0,.608.63l0.328-.27L14,39.494l-0.17.243a10.339,10.339,0,0,0,6.146,1.989,5.3,5.3,0,0,0,2.853-1l-7.067-7.452L13.57,35.39,10.978,32.8l4.608-4.248L18.9,28.694l0.792,0.792L17.3,31.793l7.082,7.465c1.314-1.705,2.005-4.258.925-7.54-1.915-5.821-11.52-5.58-12.528-4.968,0,0,1.3-1.152,5.328-1.224s9.247,2.5,10.152,8.064A8.6,8.6,0,0,1,26,40.964Z"/>
<path class="cls-2" d="m19.478 17.728 0.443 1.364 0.127 0.392h1.846l-1.493 1.085 0.127 0.392 0.443 1.364-1.493-1.085-1.493 1.085 0.443-1.364 0.127-0.392-1.493-1.085h1.846l0.127-0.392 0.443-1.364m0-1.835-0.978 3.024h-3.183l2.572 1.868-0.982 3.023 2.572-1.868 2.572 1.868-0.982-3.023 2.572-1.868h-3.181l-0.982-3.023z"/>
</svg>
