<svg id="country_kazakhstan" xmlns="http://www.w3.org/2000/svg" width="100" height="50" viewBox="0 0 100 50">
  <metadata><?xpacket begin="﻿" id="W5M0MpCehiHzreSzNTczkc9d"?>
<x:xmpmeta xmlns:x="adobe:ns:meta/" x:xmptk="Adobe XMP Core 5.6-c138 79.159824, 2016/09/14-01:09:01        ">
   <rdf:RDF xmlns:rdf="http://www.w3.org/1999/02/22-rdf-syntax-ns#">
      <rdf:Description rdf:about=""/>
   </rdf:RDF>
</x:xmpmeta>
                                                                                                    
                                                                                                    
                                                                                                    
                                                                                                    
                                                                                                    
                                                                                                    
                                                                                                    
                                                                                                    
                                                                                                    
                                                                                                    
                                                                                                    
                                                                                                    
                                                                                                    
                                                                                                    
                                                                                                    
                                                                                                    
                                                                                                    
                                                                                                    
                                                                                                    
                                                                                                    
                           
<?xpacket end="w"?></metadata>
<defs>
    <style>
      .cls-1 {
        fill: #00abc2;
      }

      .cls-2 {
        fill: #ffec2d;
        fill-rule: evenodd;
      }
    </style>
  </defs>
  <rect class="cls-1" width="100" height="50"/>
  <path class="cls-2" d="M66.736,28.994c0.552,0.168.977-.376,1.461-0.537,0.368-.18.212,0.32,0.1,0.486a7.36,7.36,0,0,1-2.059,1.585c-0.406.148-.241,0.32,0.117,0.257,0.175-.007.777-0.1,0.513,0.195a9.615,9.615,0,0,1-1.986.735c0.381,0.135.83-.011,1.187,0.155a4.114,4.114,0,0,1-1.55.5c-0.412.04-.437,0.149-0.01,0.184,0.179,0.045.659-.01,0.644,0.188a8.519,8.519,0,0,0-1.894.434,1.25,1.25,0,0,0,.629.314c0.406,0.138-.32.313-0.458,0.477a5.757,5.757,0,0,1-3.539.8,5.387,5.387,0,0,0,2.68-1.118c0.349-.119.228-0.419,0.145-0.687A0.825,0.825,0,0,0,63.48,32.7c-0.415-.237-0.087-0.373.225-0.445,0.163-.058.586-0.235,0.3-0.413a1.071,1.071,0,0,1,.656-0.472c0.39-.139.346-0.22-0.037-0.289a14.734,14.734,0,0,1,1.38-.89c0.353-.17-0.295-0.219-0.464-0.258a1.489,1.489,0,0,0,.774-1.135c-0.3-.01-0.546.174-0.838,0.181a2.12,2.12,0,0,0,.684-1.329,1.862,1.862,0,0,0-1.271.234,6.068,6.068,0,0,0-1.992,1.972,0.819,0.819,0,0,1-.5.6c-1.314.727-2.882,1.178-3.8,2.441-1.212.337-2.5,0.293-3.7,0.658a3.575,3.575,0,0,0-1.48,1,10,10,0,0,1-2.417,1.367c-0.011,0-.021.013-0.032,0.019A0.11,0.11,0,0,1,51,35.926a0.118,0.118,0,1,1-.118.118,0.116,0.116,0,0,1,.032-0.076c-0.229.129-.418,0.354-0.673,0.12h0a0.428,0.428,0,0,1,.039-0.206,4,4,0,0,1,1.6-.812c1.186-.376,1.753-1.578,2.69-2.3A9.991,9.991,0,0,1,55.8,32.6a12.394,12.394,0,0,0,4.3-1.45,11.9,11.9,0,0,0,5.749-7.839c-0.07-.334.474-0.479,0.552-0.142a6.013,6.013,0,0,1-.176,2.279,9.088,9.088,0,0,0,.953-2.718A0.969,0.969,0,0,1,67.536,22c0.376-.052.432,0.356,0.433,0.633a8.517,8.517,0,0,1-1.259,3.752,11.836,11.836,0,0,0,1.653-2.113,0.58,0.58,0,0,1,.862-0.286,1.183,1.183,0,0,1-.3,1,14,14,0,0,1-2.181,2.819,8.984,8.984,0,0,0,2.224-1.889c0.137-.264.665-0.228,0.627,0.109A12.093,12.093,0,0,1,66.736,28.994ZM61.669,21a0.5,0.5,0,0,1,.555-0.55,19.875,19.875,0,0,1,2.3.55,19.875,19.875,0,0,1-2.3.55A0.5,0.5,0,0,1,61.669,21Zm-0.147-1.491a0.5,0.5,0,0,1,.437-0.648,19.88,19.88,0,0,1,2.368.09,19.869,19.869,0,0,1-2.153.989A0.5,0.5,0,0,1,61.522,19.509ZM61.81,18.37a0.55,0.55,0,1,1-.421-1.016,19.873,19.873,0,0,1,2.34-.374A19.87,19.87,0,0,1,61.81,18.37Zm-1.43-1.617a0.5,0.5,0,0,1,.156-0.766,19.882,19.882,0,0,1,2.222-.823A19.87,19.87,0,0,1,61.147,16.9,0.5,0.5,0,0,1,60.38,16.753Zm-0.951-1.158a0.5,0.5,0,0,1,0-.781,19.879,19.879,0,0,1,2.019-1.241,19.879,19.879,0,0,1-1.241,2.019A0.5,0.5,0,0,1,59.429,15.594Zm-1.159-.951a0.5,0.5,0,0,1-.149-0.767,19.87,19.87,0,0,1,1.738-1.611,19.882,19.882,0,0,1-.823,2.222A0.5,0.5,0,0,1,58.271,14.643Zm-1.322-.707a0.5,0.5,0,0,1-.3-0.723,19.87,19.87,0,0,1,1.39-1.919,19.873,19.873,0,0,1-.374,2.34A0.5,0.5,0,0,1,56.949,13.937ZM55.515,13.5a0.5,0.5,0,0,1-.431-0.652,19.863,19.863,0,0,1,.989-2.154,19.881,19.881,0,0,1,.09,2.368A0.5,0.5,0,0,1,55.515,13.5Zm-1.491-.147a0.5,0.5,0,0,1-.55-0.555,19.875,19.875,0,0,1,.55-2.305,19.875,19.875,0,0,1,.55,2.305A0.5,0.5,0,0,1,54.024,13.355Zm-1.492.147a0.5,0.5,0,0,1-.648-0.437,19.881,19.881,0,0,1,.09-2.368,19.863,19.863,0,0,1,.989,2.154A0.5,0.5,0,0,1,52.532,13.5Zm-1.434.435a0.5,0.5,0,0,1-.721-0.3A19.873,19.873,0,0,1,50,11.295a19.87,19.87,0,0,1,1.39,1.919A0.5,0.5,0,0,1,51.1,13.937Zm-1.322.707a0.5,0.5,0,0,1-.766-0.156,19.882,19.882,0,0,1-.823-2.222,19.87,19.87,0,0,1,1.738,1.611A0.5,0.5,0,0,1,49.776,14.643Zm-1.162.169a0.55,0.55,0,1,1-.778.778A19.879,19.879,0,0,1,46.6,13.572,19.879,19.879,0,0,1,48.614,14.813Zm-0.947,1.94a0.5,0.5,0,0,1-.767.149,19.87,19.87,0,0,1-1.611-1.738,19.882,19.882,0,0,1,2.222.823A0.5,0.5,0,0,1,47.667,16.753Zm-0.706,1.322a0.5,0.5,0,0,1-.723.3,19.87,19.87,0,0,1-1.919-1.39,19.873,19.873,0,0,1,2.34.374A0.5,0.5,0,0,1,46.961,18.074Zm-0.872.786a0.55,0.55,0,1,1-.215,1.079,19.863,19.863,0,0,1-2.154-.989A19.881,19.881,0,0,1,46.089,18.861ZM46.379,21a0.5,0.5,0,0,1-.555.55,19.875,19.875,0,0,1-2.3-.55,19.875,19.875,0,0,1,2.3-.55A0.5,0.5,0,0,1,46.379,21Zm7.095,8.2a0.55,0.55,0,1,1,1.1,0,19.875,19.875,0,0,1-.55,2.3A19.875,19.875,0,0,1,53.474,29.2Zm-0.941-.7a0.5,0.5,0,0,1,.431.652,19.869,19.869,0,0,1-.989,2.153,19.88,19.88,0,0,1-.09-2.368A0.5,0.5,0,0,1,52.532,28.5Zm-4.7-2.089a0.55,0.55,0,1,1,.778.778A19.879,19.879,0,0,1,46.6,28.428,19.879,19.879,0,0,1,47.836,26.409ZM51.1,28.063a0.5,0.5,0,0,1,.3.723A19.867,19.867,0,0,1,50,30.705a19.872,19.872,0,0,1,.374-2.34A0.5,0.5,0,0,1,51.1,28.063Zm-2.911,1.672a19.882,19.882,0,0,1,.823-2.222,0.55,0.55,0,1,1,.915.611A19.87,19.87,0,0,1,48.187,29.735Zm-0.52-4.487a0.5,0.5,0,0,1-.156.766,19.882,19.882,0,0,1-2.222.823A19.87,19.87,0,0,1,46.9,25.1,0.5,0.5,0,0,1,47.667,25.247Zm-1.578-2.108a19.881,19.881,0,0,1-2.368-.09,19.863,19.863,0,0,1,2.154-.989A0.55,0.55,0,1,1,46.089,23.139Zm0.872,0.786a0.5,0.5,0,0,1-.3.721,19.873,19.873,0,0,1-2.34.374,19.87,19.87,0,0,1,1.919-1.39A0.5,0.5,0,0,1,46.961,23.926Zm9.989,4.137a0.5,0.5,0,0,1,.721.3,19.872,19.872,0,0,1,.374,2.34,19.867,19.867,0,0,1-1.39-1.919A0.5,0.5,0,0,1,56.949,28.063Zm1.322-.706a0.5,0.5,0,0,1,.766.156,19.882,19.882,0,0,1,.823,2.222,19.87,19.87,0,0,1-1.738-1.611A0.5,0.5,0,0,1,58.271,27.357Zm1.162-.169a0.55,0.55,0,1,1,.778-0.778,19.879,19.879,0,0,1,1.241,2.019A19.879,19.879,0,0,1,59.433,27.187Zm0.947-1.94a0.5,0.5,0,0,1,.767-0.149,19.87,19.87,0,0,1,1.611,1.738,19.882,19.882,0,0,1-2.222-.823A0.5,0.5,0,0,1,60.38,25.247Zm1.142-2.756a0.5,0.5,0,0,1,.652-0.431,19.86,19.86,0,0,1,2.153.989,19.88,19.88,0,0,1-2.368.09A0.5,0.5,0,0,1,61.522,22.492Zm-0.435,1.434a0.5,0.5,0,0,1,.723-0.3,19.87,19.87,0,0,1,1.919,1.39,19.873,19.873,0,0,1-2.34-.374A0.5,0.5,0,0,1,61.087,23.926Zm-4.924,5.009a19.88,19.88,0,0,1-.09,2.368,19.869,19.869,0,0,1-.989-2.153A0.55,0.55,0,1,1,56.163,28.935ZM47.3,21a6.727,6.727,0,1,1,6.727,6.727A6.727,6.727,0,0,1,47.3,21Zm5.9,11.712c0.2,0.017.4,0.023,0.6,0.035h0a6.645,6.645,0,0,1-.5.967,3.846,3.846,0,0,0-2.517-.637,3.118,3.118,0,0,1-2.028-.609A15,15,0,0,0,47.049,31a4.161,4.161,0,0,1-1.655-.764c-1.011-.824-1.59-2.047-2.578-2.9a5.74,5.74,0,0,0-.621-0.486c-0.2.049-.11,0.482-0.355,0.261-0.133-.095-0.467-0.1-0.5.029a2.731,2.731,0,0,1,.646,1.361,2.485,2.485,0,0,0-.674.033A4.212,4.212,0,0,0,42.337,29.6a2.214,2.214,0,0,0-.641.091,2.937,2.937,0,0,0,1.337.734c0.106,0.14-.155.41,0.065,0.529,0.127,0.052.547,0.139,0.258,0.284a0.236,0.236,0,0,0,.129.439,1.113,1.113,0,0,1,.549.244c-0.142.145-.585,0.316-0.208,0.452a2.6,2.6,0,0,0,1.155.336c-0.2.17-.45,0.266-0.658,0.426a15.909,15.909,0,0,0,2.972,1.246,9.443,9.443,0,0,0,1.233.34,10.106,10.106,0,0,1-3.506-.925c-0.575-.252-1.154-0.5-1.744-0.713,0.258-.135.557-0.167,0.825-0.284a4.811,4.811,0,0,1-1.653-.454,1.139,1.139,0,0,1,.516-0.208c0.3-.071.479-0.157,0.062-0.182a3.914,3.914,0,0,1-1.273-.316,0.98,0.98,0,0,1,.569-0.165,1.183,1.183,0,0,0,.579-0.2c-0.65-.269-1.5-0.079-2.008-0.652-0.117-.219.364-0.043,0.5-0.079a2.661,2.661,0,0,0,1.055-.03,7.786,7.786,0,0,1-2.683-1.574c-0.08-.124-0.32-0.461-0.127-0.5,0.562,0.074.969,0.688,1.57,0.592a1.352,1.352,0,0,0-.456-0.438,11.474,11.474,0,0,1-2.341-2.553c-0.042-.329.475-0.378,0.611-0.124a10,10,0,0,0,2.11,1.84c0.3,0.144-.17-0.17-0.232-0.284a14.938,14.938,0,0,1-2.045-2.9c-0.1-.19-0.256-0.534.032-0.636a0.566,0.566,0,0,1,.721.3A13.729,13.729,0,0,0,41.3,26.4a8.607,8.607,0,0,1-1.26-3.741c0.014-.261.031-0.655,0.384-0.644,0.3-.045.25,0.335,0.347,0.516a10.183,10.183,0,0,0,1.006,2.928,6.575,6.575,0,0,1-.193-2.231,0.288,0.288,0,0,1,.484-0.171c0.145,0.355.175,0.794,0.308,1.175a11.871,11.871,0,0,0,4.647,6.362A12.238,12.238,0,0,0,53.194,32.712ZM9,35.074a2.2,2.2,0,0,1-.275,1.092L6.517,40.7a1.319,1.319,0,0,0-.1.6,0.808,0.808,0,0,0,1.612-.013A0.6,0.6,0,0,0,7.5,40.563c-0.331,0-.463.135-0.463,0.364a0.191,0.191,0,0,0,.191.229c0.284,0,.2-0.378.2-0.378a0.257,0.257,0,0,1,.191.351,0.513,0.513,0,0,1,.276.162,0.518,0.518,0,0,1-.276.148,0.253,0.253,0,0,1-.214.367,0.374,0.374,0,0,0,.027-0.233,0.578,0.578,0,0,1-.765-0.566A0.818,0.818,0,0,1,7.7,40.171a0.474,0.474,0,0,1-.258-0.4,0.953,0.953,0,0,0,.258.054,0.853,0.853,0,0,1-.184-0.526,0.47,0.47,0,0,0,.4.094,0.968,0.968,0,0,1,.844-1.322,1.606,1.606,0,0,0-.429,1.052c0,1.162.326,1.357,0.326,2.164a1.188,1.188,0,0,1-.515.941,0.7,0.7,0,0,1,.454.321h0a0.589,0.589,0,0,1-.53.29,1.1,1.1,0,0,1,.6,1c0,0.8-.332,1.127-0.332,2.026A2.637,2.637,0,0,0,8.752,47a0.971,0.971,0,0,1-.888-1.277,0.36,0.36,0,0,0-.313.094A0.531,0.531,0,0,1,7.7,45.348a0.411,0.411,0,0,0-.3.01,0.652,0.652,0,0,1,.333-0.468,0.794,0.794,0,0,1-1.062-.759,0.576,0.576,0,0,1,.5-0.615,0.511,0.511,0,0,1,.264.082A0.4,0.4,0,0,0,7.4,43.269a0.258,0.258,0,0,1,.215.377,0.464,0.464,0,0,1,.327.148,0.391,0.391,0,0,1-.327.148,0.291,0.291,0,0,1-.177.418s0.105-.418-0.163-0.418a0.2,0.2,0,0,0-.231.215,0.386,0.386,0,0,0,.448.352A0.6,0.6,0,0,0,8.063,43.8a0.749,0.749,0,0,0-.861-0.7,0.669,0.669,0,0,0-.775.674c0,0.6.875,1.966,0.875,2.5a0.666,0.666,0,0,1-.721.625A1.035,1.035,0,0,1,6,46.689a1.035,1.035,0,0,1-.581.215A0.666,0.666,0,0,1,4.7,46.279c0-.534.875-1.9,0.875-2.5A0.669,0.669,0,0,0,4.8,43.105a0.749,0.749,0,0,0-.862.7,0.6,0.6,0,0,0,.567.707,0.386,0.386,0,0,0,.448-0.352,0.2,0.2,0,0,0-.231-0.215c-0.268,0-.163.418-0.163,0.418a0.291,0.291,0,0,1-.177-0.418,0.391,0.391,0,0,1-.326-0.148,0.464,0.464,0,0,1,.326-0.148A0.258,0.258,0,0,1,4.6,43.269a0.4,0.4,0,0,0-.026.329,0.511,0.511,0,0,1,.264-0.082,0.576,0.576,0,0,1,.5.615,0.794,0.794,0,0,1-1.062.759,0.652,0.652,0,0,1,.333.468,0.411,0.411,0,0,0-.3-0.01,0.531,0.531,0,0,1,.144.469,0.36,0.36,0,0,0-.313-0.094A0.971,0.971,0,0,1,3.248,47a2.637,2.637,0,0,0,.414-1.134c0-.9-0.332-1.228-0.332-2.026a1.1,1.1,0,0,1,.6-1,0.589,0.589,0,0,1-.53-0.29h0a0.7,0.7,0,0,1,.454-0.321,1.188,1.188,0,0,1-.515-0.941c0-.808.327-1,0.327-2.164a1.606,1.606,0,0,0-.429-1.052,0.968,0.968,0,0,1,.844,1.322,0.47,0.47,0,0,0,.4-0.094,0.853,0.853,0,0,1-.184.526,0.953,0.953,0,0,0,.258-0.054,0.474,0.474,0,0,1-.258.4,0.818,0.818,0,0,1,1.034.836,0.578,0.578,0,0,1-.765.566,0.374,0.374,0,0,0,.027.233,0.253,0.253,0,0,1-.214-0.367,0.518,0.518,0,0,1-.276-0.148,0.513,0.513,0,0,1,.276-0.162,0.257,0.257,0,0,1,.191-0.351s-0.08.378,0.2,0.378a0.191,0.191,0,0,0,.191-0.229c0-.23-0.132-0.364-0.463-0.364a0.6,0.6,0,0,0-.531.721,0.808,0.808,0,0,0,1.612.013,1.319,1.319,0,0,0-.1-0.6L3.275,36.166A2.2,2.2,0,0,1,3,35.074a1.288,1.288,0,0,1,1.386-1.3A1.288,1.288,0,0,1,3,32.473a2.2,2.2,0,0,1,.275-1.092l2.208-4.531a1.319,1.319,0,0,0,.1-0.6,0.808,0.808,0,0,0-1.612.013,0.6,0.6,0,0,0,.531.722c0.331,0,.463-0.135.463-0.364a0.191,0.191,0,0,0-.191-0.229c-0.284,0-.2.378-0.2,0.378a0.257,0.257,0,0,1-.191-0.351,0.513,0.513,0,0,1-.276-0.162,0.518,0.518,0,0,1,.276-0.148A0.253,0.253,0,0,1,4.6,25.74a0.374,0.374,0,0,0-.027.233,0.578,0.578,0,0,1,.765.566,0.818,0.818,0,0,1-1.034.836,0.474,0.474,0,0,1,.258.4A0.953,0.953,0,0,0,4.3,27.726a0.853,0.853,0,0,1,.184.526,0.47,0.47,0,0,0-.4-0.094,0.968,0.968,0,0,1-.844,1.322,1.606,1.606,0,0,0,.429-1.052c0-1.162-.327-1.357-0.327-2.164a1.188,1.188,0,0,1,.515-0.941A0.7,0.7,0,0,1,3.4,25h0a0.7,0.7,0,0,1,.454-0.321,1.188,1.188,0,0,1-.515-0.941c0-.808.327-1,0.327-2.164a1.606,1.606,0,0,0-.429-1.052,0.968,0.968,0,0,1,.844,1.322,0.47,0.47,0,0,0,.4-0.094,0.853,0.853,0,0,1-.184.526,0.957,0.957,0,0,0,.258-0.054,0.474,0.474,0,0,1-.258.4,0.818,0.818,0,0,1,1.034.836,0.578,0.578,0,0,1-.765.566,0.374,0.374,0,0,0,.027.233,0.253,0.253,0,0,1-.214-0.367,0.518,0.518,0,0,1-.276-0.148,0.513,0.513,0,0,1,.276-0.162,0.257,0.257,0,0,1,.191-0.351s-0.08.378,0.2,0.378a0.191,0.191,0,0,0,.191-0.229c0-.23-0.132-0.364-0.463-0.364a0.6,0.6,0,0,0-.531.721,0.808,0.808,0,0,0,1.612.014,1.319,1.319,0,0,0-.1-0.6L3.275,18.62A2.2,2.2,0,0,1,3,17.527a1.288,1.288,0,0,1,1.386-1.3A1.288,1.288,0,0,1,3,14.926a2.2,2.2,0,0,1,.275-1.092L5.483,9.3a1.319,1.319,0,0,0,.1-0.6,0.808,0.808,0,0,0-1.612.013,0.6,0.6,0,0,0,.531.721c0.331,0,.463-0.134.463-0.364a0.191,0.191,0,0,0-.191-0.229c-0.284,0-.2.378-0.2,0.378a0.257,0.257,0,0,1-.191-0.351,0.513,0.513,0,0,1-.276-0.162,0.518,0.518,0,0,1,.276-0.148A0.253,0.253,0,0,1,4.6,8.193a0.374,0.374,0,0,0-.027.233,0.578,0.578,0,0,1,.765.566A0.818,0.818,0,0,1,4.3,9.829a0.475,0.475,0,0,1,.258.4A0.953,0.953,0,0,0,4.3,10.179a0.853,0.853,0,0,1,.184.526,0.47,0.47,0,0,0-.4-0.094,0.968,0.968,0,0,1-.844,1.322,1.606,1.606,0,0,0,.429-1.052c0-1.162-.327-1.357-0.327-2.164a1.188,1.188,0,0,1,.515-0.941A0.7,0.7,0,0,1,3.4,7.454h0a0.589,0.589,0,0,1,.53-0.29,1.1,1.1,0,0,1-.6-1c0-.8.332-1.127,0.332-2.026A2.638,2.638,0,0,0,3.248,3a0.971,0.971,0,0,1,.888,1.277,0.36,0.36,0,0,0,.313-0.094,0.531,0.531,0,0,1-.144.469,0.411,0.411,0,0,0,.3-0.01,0.652,0.652,0,0,1-.333.468,0.794,0.794,0,0,1,1.062.759,0.576,0.576,0,0,1-.5.615A0.511,0.511,0,0,1,4.571,6.4a0.4,0.4,0,0,0,.026.329,0.258,0.258,0,0,1-.215-0.377,0.463,0.463,0,0,1-.326-0.148,0.391,0.391,0,0,1,.326-0.148,0.291,0.291,0,0,1,.177-0.418s-0.105.418,0.163,0.418a0.2,0.2,0,0,0,.231-0.215A0.386,0.386,0,0,0,4.5,5.491a0.6,0.6,0,0,0-.567.707,0.749,0.749,0,0,0,.862.7,0.669,0.669,0,0,0,.775-0.674c0-.6-0.875-1.966-0.875-2.5A0.666,0.666,0,0,1,5.419,3.1,1.035,1.035,0,0,1,6,3.312,1.035,1.035,0,0,1,6.581,3.1a0.666,0.666,0,0,1,.721.625c0,0.534-.875,1.9-0.875,2.5a0.669,0.669,0,0,0,.775.674,0.749,0.749,0,0,0,.861-0.7A0.6,0.6,0,0,0,7.5,5.491a0.386,0.386,0,0,0-.448.352,0.2,0.2,0,0,0,.231.215c0.268,0,.163-0.418.163-0.418a0.291,0.291,0,0,1,.177.418,0.391,0.391,0,0,1,.327.148,0.463,0.463,0,0,1-.327.148,0.258,0.258,0,0,1-.215.377A0.4,0.4,0,0,0,7.429,6.4a0.511,0.511,0,0,1-.264.082,0.576,0.576,0,0,1-.5-0.615,0.794,0.794,0,0,1,1.062-.759,0.652,0.652,0,0,1-.333-0.468,0.411,0.411,0,0,0,.3.01,0.531,0.531,0,0,1-.144-0.469,0.36,0.36,0,0,0,.313.094A0.971,0.971,0,0,1,8.752,3a2.638,2.638,0,0,0-.414,1.134c0,0.9.332,1.228,0.332,2.026a1.1,1.1,0,0,1-.6,1,0.589,0.589,0,0,1,.53.29h0a0.7,0.7,0,0,1-.454.321,1.188,1.188,0,0,1,.515.941c0,0.808-.326,1-0.326,2.164a1.606,1.606,0,0,0,.429,1.052,0.968,0.968,0,0,1-.844-1.322,0.47,0.47,0,0,0-.4.094A0.853,0.853,0,0,1,7.7,10.179a0.953,0.953,0,0,0-.258.054,0.475,0.475,0,0,1,.258-0.4,0.818,0.818,0,0,1-1.034-.836,0.578,0.578,0,0,1,.765-0.566A0.374,0.374,0,0,0,7.4,8.193a0.253,0.253,0,0,1,.214.367,0.518,0.518,0,0,1,.276.148,0.513,0.513,0,0,1-.276.162,0.257,0.257,0,0,1-.191.351s0.08-.378-0.2-0.378a0.191,0.191,0,0,0-.191.229c0,0.23.132,0.364,0.463,0.364a0.6,0.6,0,0,0,.531-0.721A0.808,0.808,0,0,0,6.415,8.7a1.319,1.319,0,0,0,.1.6l2.208,4.531A2.2,2.2,0,0,1,9,14.926a1.288,1.288,0,0,1-1.386,1.3A1.288,1.288,0,0,1,9,17.527a2.2,2.2,0,0,1-.275,1.092L6.517,23.151a1.319,1.319,0,0,0-.1.6,0.808,0.808,0,0,0,1.612-.014A0.6,0.6,0,0,0,7.5,23.016c-0.331,0-.463.135-0.463,0.364a0.191,0.191,0,0,0,.191.229c0.284,0,.2-0.378.2-0.378a0.257,0.257,0,0,1,.191.351,0.513,0.513,0,0,1,.276.162,0.518,0.518,0,0,1-.276.148,0.253,0.253,0,0,1-.214.367,0.374,0.374,0,0,0,.027-0.233,0.578,0.578,0,0,1-.765-0.566A0.818,0.818,0,0,1,7.7,22.625a0.474,0.474,0,0,1-.258-0.4,0.957,0.957,0,0,0,.258.054,0.853,0.853,0,0,1-.184-0.526,0.47,0.47,0,0,0,.4.094,0.968,0.968,0,0,1,.844-1.322,1.606,1.606,0,0,0-.429,1.052c0,1.162.326,1.357,0.326,2.164a1.188,1.188,0,0,1-.515.941A0.7,0.7,0,0,1,8.6,25h0a0.7,0.7,0,0,1-.454.321,1.188,1.188,0,0,1,.515.941c0,0.808-.326,1-0.326,2.164a1.606,1.606,0,0,0,.429,1.052,0.968,0.968,0,0,1-.844-1.322,0.47,0.47,0,0,0-.4.094A0.853,0.853,0,0,1,7.7,27.726a0.953,0.953,0,0,0-.258.054,0.474,0.474,0,0,1,.258-0.4,0.818,0.818,0,0,1-1.034-.836,0.578,0.578,0,0,1,.765-0.566A0.374,0.374,0,0,0,7.4,25.74a0.253,0.253,0,0,1,.214.367,0.518,0.518,0,0,1,.276.148,0.513,0.513,0,0,1-.276.162,0.257,0.257,0,0,1-.191.351s0.08-.378-0.2-0.378a0.191,0.191,0,0,0-.191.229c0,0.23.132,0.364,0.463,0.364a0.6,0.6,0,0,0,.531-0.722,0.808,0.808,0,0,0-1.612-.013,1.319,1.319,0,0,0,.1.6L8.725,31.38A2.2,2.2,0,0,1,9,32.473a1.288,1.288,0,0,1-1.386,1.3A1.288,1.288,0,0,1,9,35.074ZM5.356,46.313c0.163,0.2.641-.2,0.643-0.2H6s0.48,0.4.643,0.2c0.2-.242-0.355-1.2-0.644-1.909C5.711,45.109,5.159,46.072,5.356,46.313ZM5.1,42.532c-0.034.013-.082,0.019-0.12,0.03A1.438,1.438,0,0,1,6,43.182a1.431,1.431,0,0,1,1.015-.623c-0.035-.01-0.08-0.015-0.112-0.028A1.26,1.26,0,0,1,6,41.938H6A1.261,1.261,0,0,1,5.1,42.532ZM6.644,3.687C6.481,3.487,6,3.884,6,3.886H6s-0.48-.4-0.643-0.2C5.159,3.929,5.711,4.891,6,5.6,6.289,4.891,6.841,3.929,6.644,3.687ZM6.9,7.468c0.031-.012.076-0.017,0.112-0.028A1.43,1.43,0,0,1,6,6.818a1.438,1.438,0,0,1-1.014.621C5.02,7.45,5.068,7.455,5.1,7.468a1.261,1.261,0,0,1,.9.593H6A1.261,1.261,0,0,1,6.9,7.468Zm1.5,7.39A1.529,1.529,0,0,0,8.245,14.2L6,9.491H6L3.755,14.2a1.529,1.529,0,0,0-.156.661,0.83,0.83,0,0,0,.864.8,0.73,0.73,0,0,0,.755-0.634,0.311,0.311,0,0,0-.3-0.357c-0.423,0-.4.356-0.313,0.58A0.526,0.526,0,0,1,4.231,14.7a0.676,0.676,0,0,1-.422-0.236,0.531,0.531,0,0,1,.422-0.229,0.455,0.455,0,0,1,.374-0.566c-0.072.251-.119,0.539,0.313,0.539a0.8,0.8,0,0,1,.707.256L5.66,13.132c0.018-.4-0.542-0.389-0.9-0.27a0.84,0.84,0,0,1,1.048-.647,0.5,0.5,0,0,1-.32-0.486A1.268,1.268,0,0,1,6,10.816v0a1.268,1.268,0,0,1,.51.914,0.5,0.5,0,0,1-.32.486,0.84,0.84,0,0,1,1.048.647c-0.356-.119-0.916-0.131-0.9.27l0.034,1.335a0.8,0.8,0,0,1,.707-0.256c0.432,0,.385-0.289.313-0.539a0.455,0.455,0,0,1,.374.566,0.531,0.531,0,0,1,.422.229,0.676,0.676,0,0,1-.422.236,0.526,0.526,0,0,1-.374.546c0.084-.224.11-0.58-0.313-0.58a0.311,0.311,0,0,0-.3.357,0.73,0.73,0,0,0,.755.634A0.83,0.83,0,0,0,8.4,14.859ZM4.558,16.227A1.609,1.609,0,0,1,6,17.287a1.6,1.6,0,0,1,1.435-1.059A1.609,1.609,0,0,1,6,15.167,1.609,1.609,0,0,1,4.558,16.227Zm3.687,2.029A1.529,1.529,0,0,0,8.4,17.595a0.83,0.83,0,0,0-.864-0.8,0.73,0.73,0,0,0-.755.634,0.311,0.311,0,0,0,.3.357c0.423,0,.4-0.356.313-0.58a0.526,0.526,0,0,1,.374.546,0.676,0.676,0,0,1,.422.236,0.531,0.531,0,0,1-.422.229,0.455,0.455,0,0,1-.374.566c0.072-.251.119-0.54-0.313-0.54a0.8,0.8,0,0,1-.707-0.256L6.34,19.321c-0.018.4,0.542,0.389,0.9,0.27a0.84,0.84,0,0,1-1.048.647,0.5,0.5,0,0,1,.32.486,1.268,1.268,0,0,1-.51.914v0a1.268,1.268,0,0,1-.51-0.914,0.5,0.5,0,0,1,.32-0.486,0.84,0.84,0,0,1-1.048-.647c0.356,0.119.916,0.131,0.9-.27L5.626,17.986a0.8,0.8,0,0,1-.707.256c-0.432,0-.385.289-0.313,0.54a0.455,0.455,0,0,1-.374-0.566,0.531,0.531,0,0,1-.422-0.229,0.676,0.676,0,0,1,.422-0.236A0.526,0.526,0,0,1,4.605,17.2c-0.084.224-.11,0.58,0.313,0.58a0.311,0.311,0,0,0,.3-0.357,0.73,0.73,0,0,0-.755-0.634,0.83,0.83,0,0,0-.864.8,1.529,1.529,0,0,0,.156.661L6,22.962H6ZM6.9,25.015c0.017-.007.043-0.009,0.061-0.015-0.018-.006-0.044-0.008-0.061-0.015A1.26,1.26,0,0,1,6,24.392H6a1.261,1.261,0,0,1-.9.593c-0.017.007-.043,0.009-0.061,0.015,0.018,0.006.044,0.008,0.061,0.015a1.261,1.261,0,0,1,.9.593H6A1.26,1.26,0,0,1,6.9,25.015Zm1.5,7.39a1.529,1.529,0,0,0-.157-0.661L6,27.038H6L3.755,31.744a1.529,1.529,0,0,0-.156.661,0.83,0.83,0,0,0,.864.8,0.73,0.73,0,0,0,.755-0.634,0.311,0.311,0,0,0-.3-0.357c-0.423,0-.4.356-0.313,0.58a0.526,0.526,0,0,1-.374-0.546,0.676,0.676,0,0,1-.422-0.236,0.531,0.531,0,0,1,.422-0.229,0.455,0.455,0,0,1,.374-0.566c-0.072.251-.119,0.54,0.313,0.54a0.8,0.8,0,0,1,.707.256L5.66,30.679c0.018-.4-0.542-0.389-0.9-0.27a0.84,0.84,0,0,1,1.048-.647,0.5,0.5,0,0,1-.32-0.486A1.268,1.268,0,0,1,6,28.362v0a1.268,1.268,0,0,1,.51.914,0.5,0.5,0,0,1-.32.486,0.84,0.84,0,0,1,1.048.647c-0.356-.119-0.916-0.131-0.9.27l0.034,1.335a0.8,0.8,0,0,1,.707-0.256c0.432,0,.385-0.289.313-0.54a0.455,0.455,0,0,1,.374.566,0.531,0.531,0,0,1,.422.229,0.676,0.676,0,0,1-.422.236,0.526,0.526,0,0,1-.374.546c0.084-.224.11-0.58-0.313-0.58a0.311,0.311,0,0,0-.3.357,0.73,0.73,0,0,0,.755.634A0.83,0.83,0,0,0,8.4,32.405ZM6,32.713a1.609,1.609,0,0,1-1.444,1.06A1.609,1.609,0,0,1,6,34.833a1.609,1.609,0,0,1,1.435-1.061A1.6,1.6,0,0,1,6,32.713Zm1.536,1.626a0.73,0.73,0,0,0-.755.634,0.311,0.311,0,0,0,.3.357c0.423,0,.4-0.356.313-0.58a0.526,0.526,0,0,1,.374.546,0.676,0.676,0,0,1,.422.236,0.531,0.531,0,0,1-.422.229,0.455,0.455,0,0,1-.374.566c0.072-.251.119-0.539-0.313-0.539a0.8,0.8,0,0,1-.707-0.256L6.34,36.868c-0.018.4,0.542,0.389,0.9,0.27a0.84,0.84,0,0,1-1.048.647,0.5,0.5,0,0,1,.32.486,1.268,1.268,0,0,1-.51.914v0a1.268,1.268,0,0,1-.51-0.914,0.5,0.5,0,0,1,.32-0.486,0.84,0.84,0,0,1-1.048-.647c0.356,0.119.916,0.131,0.9-.27L5.626,35.533a0.8,0.8,0,0,1-.707.256c-0.432,0-.385.289-0.313,0.539a0.455,0.455,0,0,1-.374-0.566,0.531,0.531,0,0,1-.422-0.229A0.676,0.676,0,0,1,4.231,35.3a0.526,0.526,0,0,1,.374-0.546c-0.084.224-.11,0.58,0.313,0.58a0.311,0.311,0,0,0,.3-0.357,0.73,0.73,0,0,0-.755-0.634,0.83,0.83,0,0,0-.864.8,1.529,1.529,0,0,0,.156.661L6,40.509H6L8.245,35.8A1.529,1.529,0,0,0,8.4,35.142,0.83,0.83,0,0,0,7.538,34.339Zm42.707,1.8a0.8,0.8,0,0,0,.13.068,1.4,1.4,0,0,0,.14.047,0.579,0.579,0,0,0,.132,0,1.086,1.086,0,0,0,.14-0.025,0.379,0.379,0,0,0,.125.077,0.338,0.338,0,0,0,.135.017,0.344,0.344,0,0,0,.13-0.032,0.366,0.366,0,0,0,.11-0.088,0.3,0.3,0,0,0,.067-0.1,0.419,0.419,0,0,0,.017-0.125,0.579,0.579,0,0,0-.017-0.13l0.157-.015,0.093-.015c0.233-.038.458-0.12,0.693-0.152a2.086,2.086,0,0,1,.527-0.088c-0.177.133-.345,0.275-0.527,0.4,0.1,0.025.2,0.047,0.307,0.063-0.128.15-.268,0.292-0.385,0.453a1.087,1.087,0,0,0,.808.025c0.063-.068.125-0.005,0.192,0.022a2.876,2.876,0,0,0,.792.13h0.953a0.9,0.9,0,0,1,.35.078,0.48,0.48,0,0,1-.178.052,3.653,3.653,0,0,1-.713-0.02l-1.5-.032c-0.532.007-1.063,0.018-1.593,0.073a3.251,3.251,0,0,0-1.078.208c-0.077.08-.02-0.078-0.01-0.12,0.042-.08.055-0.135-0.047-0.083a0.884,0.884,0,0,0-.333.167c-0.057.02-.072,0.167-0.09,0.135a0.729,0.729,0,0,1-.072-0.348,0.557,0.557,0,0,1,.083-0.267A1.189,1.189,0,0,1,50.245,36.14Zm3.372,1.084c1.255-.154,2.574.129,3.781-0.324,0.2-.119.667-0.287,0.5-0.562-0.149-.217.388-0.132,0.439-0.386-0.032-.322.246-0.277,0.518-0.305,1.219-.053,2.423.2,3.638,0.248a0.816,0.816,0,0,1-1.094.825c-0.253.041-.631-0.581-0.557-0.129a1.053,1.053,0,0,1-.232.71h0a1.021,1.021,0,0,1-.942-0.284,4.657,4.657,0,0,0-.438.7c-0.242.275-.538-0.077-0.516-0.348-0.289.244-.435,0.8-0.9,0.722-0.222-.181-0.386-0.56-0.555-0.128-0.138.211-.505,0.511-0.7,0.193-0.059-.282-0.2-0.613-0.353-0.165a0.6,0.6,0,0,1-.769.41c-0.179-.146.143-0.686-0.084-0.648-0.34.225-.538,0.783-1.012,0.738-0.184-.207.112-0.557-0.09-0.787a1.571,1.571,0,0,1-.916.787,2.962,2.962,0,0,1-.12-0.694,1.945,1.945,0,0,1-1.4.565A1.854,1.854,0,0,1,53.617,37.224Z"/>
</svg>
