<svg id="country_canada_modern" xmlns="http://www.w3.org/2000/svg" width="100" height="66" viewBox="0 0 100 66">
  <metadata><?xpacket begin="﻿" id="W5M0MpCehiHzreSzNTczkc9d"?>
<x:xmpmeta xmlns:x="adobe:ns:meta/" x:xmptk="Adobe XMP Core 5.6-c138 79.159824, 2016/09/14-01:09:01        ">
   <rdf:RDF xmlns:rdf="http://www.w3.org/1999/02/22-rdf-syntax-ns#">
      <rdf:Description rdf:about=""/>
   </rdf:RDF>
</x:xmpmeta>
                                                                                                    
                                                                                                    
                                                                                                    
                                                                                                    
                                                                                                    
                                                                                                    
                                                                                                    
                                                                                                    
                                                                                                    
                                                                                                    
                                                                                                    
                                                                                                    
                                                                                                    
                                                                                                    
                                                                                                    
                                                                                                    
                                                                                                    
                                                                                                    
                                                                                                    
                                                                                                    
                           
<?xpacket end="w"?></metadata>
<defs>
    <style>
      .cls-1 {
        fill: #da291c;
      }

      .cls-2 {
        fill: #f5f5f5;
        fill-rule: evenodd;
      }
    </style>
  </defs>
  <rect class="cls-1" width="100" height="66"/>
  <path class="cls-2" d="M24.99,0H74.97V65.98H24.99V0ZM50.917,54.127l-0.468-8.986a0.989,0.989,0,0,1,1.156-1.02l8.944,1.572-1.208-3.332a0.677,0.677,0,0,1,.208-0.76l9.8-7.934L67.14,32.636a0.677,0.677,0,0,1-.354-0.823l1.937-5.956-5.644,1.2a0.677,0.677,0,0,1-.76-0.4l-1.093-2.572-4.4,4.727a0.677,0.677,0,0,1-1.156-.593l2.124-10.954-3.4,1.968a0.677,0.677,0,0,1-.926-0.242c-0.008-.013-0.015-0.026-0.021-0.04L49.98,12.165l-3.457,6.789a0.677,0.677,0,0,1-.908.3l-0.04-.021-3.4-1.968,2.124,10.954a0.677,0.677,0,0,1-1.156.593l-4.4-4.727-1.093,2.572a0.677,0.677,0,0,1-.76.4l-5.644-1.2,1.937,5.956a0.677,0.677,0,0,1-.354.823l-2.207,1.031,9.8,7.934a0.677,0.677,0,0,1,.208.76l-1.208,3.332,8.944-1.572a0.989,0.989,0,0,1,1.156,1.02l-0.468,8.986h1.874Z"/>
</svg>
