<?xml version="1.0" encoding="utf-8"?>
<!-- Generator: Adobe Illustrator 25.4.1, SVG Export Plug-In . SVG Version: 6.00 Build 0)  -->
<svg version="1.1" id="Layer_1" xmlns="http://www.w3.org/2000/svg" xmlns:xlink="http://www.w3.org/1999/xlink" x="0px" y="0px"
	 viewBox="0 0 30 30" style="enable-background:new 0 0 30 30;" xml:space="preserve">
<g id="Group_471" transform="translate(-0.016 -0.268)">
	<g id="Group_162" transform="translate(0 0)">
		<circle id="Ellipse_43" style="fill:#CB1D23;" cx="15" cy="15.3" r="15"/>
		<g id="Group_161" transform="translate(5.566 6.995)">
			<path id="Path_603" style="fill:#F7DE29;" d="M1.8,10.8l1.1-3.5L0,5.1l3.6,0l1.1-3.4l1.1,3.4l3.6,0L6.6,7.3l1.1,3.5L4.8,8.7
				L1.8,10.8z"/>
			<path id="Path_604" style="fill:#F7DE29;" d="M12,12.7l1.2,0.5l0.8-1L14,13.5l1.2,0.5L14,14.3l-0.2,1.4l-0.7-1.1l-1.3,0.3l0.8-1
				L12,12.7z"/>
			<path id="Path_605" style="fill:#F7DE29;" d="M18.7,6l-1.4-0.3l-0.6,1.2l-0.2-1.3l-1.3-0.2l1.2-0.6l-0.2-1.3l0.9,0.9l1.2-0.5
				L17.7,5L18.7,6z"/>
			<path id="Path_606" style="fill:#F7DE29;" d="M15.9,12l0.4-1.3l-1.1-0.8h1.4L17,8.7l0.4,1.2h1.4l-1.1,0.8l0.5,1.3L17,11.1
				L15.9,12z"/>
			<path id="Path_607" style="fill:#F7DE29;" d="M12.1,0.4l1.2,0.6L14.2,0L14,1.3l1.2,0.6l-1.3,0.3l-0.2,1.3l-0.6-1.2l-1.3,0.2
				l0.9-0.9L12.1,0.4z"/>
		</g>
	</g>
</g>
</svg>
