<svg id="country_usa" xmlns="http://www.w3.org/2000/svg" width="100" height="66" viewBox="0 0 100 66">
  <metadata><?xpacket begin="﻿" id="W5M0MpCehiHzreSzNTczkc9d"?>
<x:xmpmeta xmlns:x="adobe:ns:meta/" x:xmptk="Adobe XMP Core 5.6-c138 79.159824, 2016/09/14-01:09:01        ">
   <rdf:RDF xmlns:rdf="http://www.w3.org/1999/02/22-rdf-syntax-ns#">
      <rdf:Description rdf:about=""/>
   </rdf:RDF>
</x:xmpmeta>
                                                                                                    
                                                                                                    
                                                                                                    
                                                                                                    
                                                                                                    
                                                                                                    
                                                                                                    
                                                                                                    
                                                                                                    
                                                                                                    
                                                                                                    
                                                                                                    
                                                                                                    
                                                                                                    
                                                                                                    
                                                                                                    
                                                                                                    
                                                                                                    
                                                                                                    
                                                                                                    
                           
<?xpacket end="w"?></metadata>
<defs>
    <style>
      .cls-1, .cls-4 {
        fill: #f5f5f5;
      }

      .cls-2 {
        fill: #bf0a31;
      }

      .cls-2, .cls-3, .cls-4 {
        fill-rule: evenodd;
      }

      .cls-3 {
        fill: #18396d;
      }
    </style>
  </defs>
  <rect class="cls-1" y="-0.031" width="100" height="66.031"/>
  <path class="cls-2" d="M0,61.023H100V66H0V61.023Zm0-9.55H100v4.7H0v-4.7Zm0-9.46H100V46.98H0V42.013ZM50,31.484h50V37H50v-5.52Zm0-10.009h50v4.548H50V21.475Zm0-10.981h50v4.975H50V10.494ZM50,0h50V4.978H50V0Z"/>
  <path class="cls-3" d="M0,0H50V36.977H0V0Z"/>
  <path class="cls-4" d="M5.55,3.209L4.3,4.165,4.775,5.711,3.521,4.755l-1.254.956L2.747,4.165,1.493,3.209h1.55L3.521,1.662,4,3.209H5.55m6.077,0-1.254.956,0.479,1.547L9.6,4.755l-1.254.956L8.823,4.165,7.57,3.209h1.55L9.6,1.662l0.479,1.547h1.55m6.077,0-1.254.956,0.479,1.547-1.254-.956-1.254.956L14.9,4.165l-1.254-.956H15.2l0.479-1.547,0.479,1.547H17.7m6.077,0-1.254.956,0.479,1.547-1.254-.956L20.5,5.711l0.479-1.547-1.254-.956h1.55l0.479-1.547,0.479,1.547h1.55m6.077,0L28.6,4.165l0.479,1.547-1.254-.956-1.254.956,0.479-1.547L25.8,3.209h1.55l0.479-1.547,0.479,1.547h1.55m6.077,0-1.254.956,0.479,1.547-1.254-.956-1.254.956L33.13,4.165l-1.254-.956h1.55l0.479-1.547,0.479,1.547h1.55m6.077,0-1.254.956,0.479,1.547-1.254-.956-1.254.956,0.479-1.547-1.254-.956H39.5l0.479-1.547,0.479,1.547h1.55m6.077,0-1.254.956,0.479,1.547-1.254-.956-1.254.956,0.479-1.547L44.03,3.209h1.55l0.479-1.547,0.479,1.547h1.55M5.55,9.032L4.3,9.988l0.479,1.547-1.254-.956-1.254.956L2.747,9.988,1.493,9.032h1.55L3.521,7.486,4,9.032H5.55m6.077,0-1.254.956,0.479,1.547L9.6,10.579l-1.254.956L8.823,9.988,7.57,9.032h1.55L9.6,7.486l0.479,1.547h1.55m6.077,0-1.254.956,0.479,1.547-1.254-.956-1.254.956L14.9,9.988l-1.254-.956H15.2l0.479-1.547,0.479,1.547H17.7m6.077,0-1.254.956,0.479,1.547-1.254-.956-1.254.956,0.479-1.547-1.254-.956h1.55l0.479-1.547,0.479,1.547h1.55m6.077,0L28.6,9.988l0.479,1.547-1.254-.956-1.254.956,0.479-1.547L25.8,9.032h1.55l0.479-1.547,0.479,1.547h1.55m6.077,0-1.254.956,0.479,1.547-1.254-.956-1.254.956L33.13,9.988l-1.254-.956h1.55l0.479-1.547,0.479,1.547h1.55m6.077,0-1.254.956,0.479,1.547-1.254-.956-1.254.956,0.479-1.547-1.254-.956H39.5l0.479-1.547,0.479,1.547h1.55m6.077,0-1.254.956,0.479,1.547-1.254-.956-1.254.956,0.479-1.547L44.03,9.032h1.55l0.479-1.547,0.479,1.547h1.55M5.55,14.856L4.3,15.812l0.479,1.547L3.521,16.4l-1.254.956,0.479-1.547-1.254-.956h1.55l0.479-1.547L4,14.856H5.55m6.077,0-1.254.956,0.479,1.547L9.6,16.4l-1.254.956,0.479-1.547L7.57,14.856h1.55L9.6,13.309l0.479,1.547h1.55m6.077,0-1.254.956,0.479,1.547L15.675,16.4l-1.254.956L14.9,15.812l-1.254-.956H15.2l0.479-1.547,0.479,1.547H17.7m6.077,0-1.254.956,0.479,1.547L21.752,16.4l-1.254.956,0.479-1.547-1.254-.956h1.55l0.479-1.547,0.479,1.547h1.55m6.077,0-1.254.956,0.479,1.547L27.828,16.4l-1.254.956,0.479-1.547L25.8,14.856h1.55l0.479-1.547,0.479,1.547h1.55m6.077,0-1.254.956,0.479,1.547L33.905,16.4l-1.254.956,0.479-1.547-1.254-.956h1.55l0.479-1.547,0.479,1.547h1.55m6.077,0-1.254.956,0.479,1.547L39.982,16.4l-1.254.956,0.479-1.547-1.254-.956H39.5l0.479-1.547,0.479,1.547h1.55m6.077,0-1.254.956,0.479,1.547L46.059,16.4l-1.254.956,0.479-1.547-1.254-.956h1.55l0.479-1.547,0.479,1.547h1.55M5.55,20.679L4.3,21.635l0.479,1.547-1.254-.956-1.254.956,0.479-1.547-1.254-.956h1.55l0.479-1.547L4,20.679H5.55m6.077,0-1.254.956,0.479,1.547L9.6,22.226l-1.254.956,0.479-1.547L7.57,20.679h1.55L9.6,19.133l0.479,1.547h1.55m6.077,0-1.254.956,0.479,1.547-1.254-.956-1.254.956L14.9,21.635l-1.254-.956H15.2l0.479-1.547,0.479,1.547H17.7m6.077,0-1.254.956,0.479,1.547-1.254-.956-1.254.956,0.479-1.547-1.254-.956h1.55l0.479-1.547,0.479,1.547h1.55m6.077,0-1.254.956,0.479,1.547-1.254-.956-1.254.956,0.479-1.547L25.8,20.679h1.55l0.479-1.547,0.479,1.547h1.55m6.077,0-1.254.956,0.479,1.547-1.254-.956-1.254.956,0.479-1.547-1.254-.956h1.55l0.479-1.547,0.479,1.547h1.55m6.077,0-1.254.956,0.479,1.547-1.254-.956-1.254.956,0.479-1.547-1.254-.956H39.5l0.479-1.547,0.479,1.547h1.55m6.077,0-1.254.956,0.479,1.547-1.254-.956-1.254.956,0.479-1.547-1.254-.956h1.55l0.479-1.547,0.479,1.547h1.55M5.55,26.5L4.3,27.459l0.479,1.547L3.521,28.05l-1.254.956,0.479-1.547L1.493,26.5h1.55l0.479-1.547L4,26.5H5.55m6.077,0-1.254.956,0.479,1.547L9.6,28.05l-1.254.956,0.479-1.547L7.57,26.5h1.55L9.6,24.956,10.077,26.5h1.55m6.077,0-1.254.956,0.479,1.547-1.254-.956-1.254.956L14.9,27.459,13.646,26.5H15.2l0.479-1.547L16.154,26.5H17.7m6.077,0-1.254.956,0.479,1.547-1.254-.956-1.254.956,0.479-1.547L19.723,26.5h1.55l0.479-1.547L22.231,26.5h1.55m6.077,0-1.254.956,0.479,1.547-1.254-.956-1.254.956,0.479-1.547L25.8,26.5h1.55l0.479-1.547L28.307,26.5h1.55m6.077,0-1.254.956,0.479,1.547-1.254-.956-1.254.956,0.479-1.547L31.877,26.5h1.55l0.479-1.547L34.384,26.5h1.55m6.077,0-1.254.956,0.479,1.547-1.254-.956-1.254.956,0.479-1.547L37.953,26.5H39.5l0.479-1.547L40.461,26.5h1.55m6.077,0-1.254.956,0.479,1.547-1.254-.956-1.254.956,0.479-1.547L44.03,26.5h1.55l0.479-1.547L46.538,26.5h1.55M5.55,32.327L4.3,33.282l0.479,1.547-1.254-.956-1.254.956,0.479-1.547-1.254-.956h1.55L3.521,30.78,4,32.327H5.55m6.077,0-1.254.956,0.479,1.547L9.6,33.873l-1.254.956,0.479-1.547L7.57,32.327h1.55L9.6,30.78l0.479,1.547h1.55m6.077,0-1.254.956,0.479,1.547-1.254-.956-1.254.956L14.9,33.282l-1.254-.956H15.2l0.479-1.547,0.479,1.547H17.7m6.077,0-1.254.956,0.479,1.547-1.254-.956-1.254.956,0.479-1.547-1.254-.956h1.55l0.479-1.547,0.479,1.547h1.55m6.077,0-1.254.956,0.479,1.547-1.254-.956-1.254.956,0.479-1.547L25.8,32.327h1.55l0.479-1.547,0.479,1.547h1.55m6.077,0-1.254.956,0.479,1.547-1.254-.956-1.254.956,0.479-1.547-1.254-.956h1.55l0.479-1.547,0.479,1.547h1.55m6.077,0-1.254.956,0.479,1.547-1.254-.956-1.254.956,0.479-1.547-1.254-.956H39.5l0.479-1.547,0.479,1.547h1.55m6.077,0-1.254.956,0.479,1.547-1.254-.956-1.254.956,0.479-1.547-1.254-.956h1.55l0.479-1.547,0.479,1.547h1.55"/>
</svg>
