<svg xmlns="http://www.w3.org/2000/svg" width="100" height="100" viewBox="0 0 100 100">
  <defs>
    <style>
      .cls-1 {
        fill: #f5e60a;
      }

      .cls-2 {
        fill: #be1e2d;
      }

      .cls-3 {
        fill: #050505;
      }

      .cls-4 {
        fill: #3c2415;
      }
    </style>
  </defs>
  <g id="Layer_2" data-name="Layer 2">
    <rect class="cls-1" y="17" width="100" height="66"/>
    <rect class="cls-2" y="48.08282" width="100" height="4.1411"/>
    <rect class="cls-2" y="39.18712" width="100" height="4.1411"/>
    <rect class="cls-2" y="56.97853" width="100" height="4.1411"/>
    <path class="cls-3" d="M64.08061,51.538s-2.44973,4.70348-6.66326,6.76125l3.52761.294s-.9799,2.93967-3.6256,3.62559-4.40951.098-5.19342-1.37184l-.196-.88191V36.15372h3.91956v-3.6256H51.58114a2.98867,2.98867,0,1,0-3.4179,0H43.89485v3.6256h3.91957V59.96506l-.196.88191c-.78391,1.46983-2.54772,2.05777-5.19342,1.37184s-3.6256-3.62559-3.6256-3.62559l3.52761-.294C38.1135,56.24148,35.66377,51.538,35.66377,51.538L33.214,61.33691l2.93968-1.86179c1.66581,4.11554,5.09543,6.17331,8.917,7.25119S49.87219,69.862,49.87219,69.862s.97989-2.05777,4.80146-3.13565,7.2512-3.13565,8.917-7.25119l2.93967,1.86179ZM49.87219,28.36358a1.71481,1.71481,0,1,1-1.71481,1.71481A1.71676,1.71676,0,0,1,49.87219,28.36358Z"/>
    <path class="cls-4" d="M47.84784,49.03473V47.49182c-2.41852-.43677-4.3371-1.21063-4.3371-2.69836,0-2.10742,2.0249-2.88135,4.67237-3.67432l.40527-.12158c.38476-.1167.90332-.228,1.499-.35742C53.11475,39.98389,58.75,38.76172,58.75,34a4.538,4.538,0,0,0-1.45752-3.51562c-2.13428-1.93848-5.84131-1.60645-5.99853-1.59083l.14306,1.49317c.03174-.00342,3.21-.28272,4.8501,1.21094A3.06033,3.06033,0,0,1,57.25,34c0,3.27783-3.69531,4.35352-7.48047,5.17432-.63721.13818-1.188.25781-1.6167.38769l-.3999.12061c-2.42334.72558-5.74219,1.71924-5.74219,5.11084C42.01074,47.46942,44.91022,48.54315,47.84784,49.03473Z"/>
    <path class="cls-4" d="M59.52393,51.39893a.89232.89232,0,0,1-.27637.6997C58.58447,52.80908,56.957,53.25,55,53.25c-7.78528,0-13.12512.92639-15.90082,2.75287.34741.33423.75513.69812,1.18408,1.03967C42.10706,56.01276,46.142,54.75,55,54.75c2.43018,0,4.37793-.59326,5.34375-1.62744A2.38836,2.38836,0,0,0,61.02,51.2959c-.20606-2.98877-3.44873-3.10645-6.88135-3.231-.72461-.02637-1.47461-.05322-2.22656-.10644l-.05341-.00409v1.50274c.7519.05225,1.50135.08057,2.22528.10681C57.70459,49.69531,59.42139,49.919,59.52393,51.39893Z"/>
    <path class="cls-4" d="M64.04688,63.793a15.04776,15.04776,0,0,0-.98078-3.24933,8.57626,8.57626,0,0,1-1.0116,1.55017,11.63773,11.63773,0,0,1,.51093,1.93646c.19336,1.20557.18066,5.25293-8.09961,6.73145C45.87842,72.29492,39.96,68.09717,38.564,66.50537a5.89109,5.89109,0,0,1-1.65722-4.43555,5.27947,5.27947,0,0,1,.136-.79351,9.93313,9.93313,0,0,1-1.0008-1.67865,7.11155,7.11155,0,0,0-.62988,2.34814A7.42789,7.42789,0,0,0,37.436,67.49463c1.92724,2.19678,6.97314,5.0874,13.43505,5.0874a21.95231,21.95231,0,0,0,3.8584-.34375C64.356,70.51953,64.29492,65.33936,64.04688,63.793Z"/>
  </g>
</svg>
