<svg id="USSR" xmlns="http://www.w3.org/2000/svg" width="100" height="100" viewBox="0 0 100 100">
  <metadata><?xpacket begin="﻿" id="W5M0MpCehiHzreSzNTczkc9d"?>
<x:xmpmeta xmlns:x="adobe:ns:meta/" x:xmptk="Adobe XMP Core 5.6-c138 79.159824, 2016/09/14-01:09:01        ">
   <rdf:RDF xmlns:rdf="http://www.w3.org/1999/02/22-rdf-syntax-ns#">
      <rdf:Description rdf:about=""/>
   </rdf:RDF>
</x:xmpmeta>
                                                                                                    
                                                                                                    
                                                                                                    
                                                                                                    
                                                                                                    
                                                                                                    
                                                                                                    
                                                                                                    
                                                                                                    
                                                                                                    
                                                                                                    
                                                                                                    
                                                                                                    
                                                                                                    
                                                                                                    
                                                                                                    
                                                                                                    
                                                                                                    
                                                                                                    
                                                                                                    
                           
<?xpacket end="w"?></metadata>
<defs>
    <style>
      .cls-1 {
        fill: #606060;
      }

      .cls-2 {
        fill: #bbb;
        fill-rule: evenodd;
      }
    </style>
  </defs>
  <g id="country_ussr_alt_locked">
    <g>
      <rect class="cls-1" y="17" width="100" height="66"/>
      <path class="cls-2" d="M38.77,68.166l10.2-6.275,1.31-.8,1.274,0.852,9.221,6.167L58.668,55.947l-0.244-1.406,1.076-.912,7.457-6.322-10.94-1.521L54.671,45.6l-0.547-1.265L49.86,34.47l-4.28,9.877-0.546,1.263-1.357.181-10.7,1.43,7.47,6.413,1.1,0.943-0.293,1.434L38.77,68.166h0Zm11.391-1.257L36.525,75.3l-4.744,2.919,1.129-5.525,3.316-16.248L25.679,47.387,21.5,43.8l5.425-.726L41.7,41.1l5.948-13.727,2.215-5.111,2.213,5.121L58.005,41.1,73.045,43.2l5.445,0.757-4.214,3.571L63.681,56.507l2.831,16.335h0l0,0.008,1.05,5.7L62.8,75.362l-12.64-8.453h0Z"/>
    </g>
  </g>
</svg>
