<svg id="argentina" xmlns="http://www.w3.org/2000/svg" width="100" height="100" viewBox="0 0 100 100">
  <metadata><?xpacket begin="﻿" id="W5M0MpCehiHzreSzNTczkc9d"?>
<x:xmpmeta xmlns:x="adobe:ns:meta/" x:xmptk="Adobe XMP Core 5.6-c138 79.159824, 2016/09/14-01:09:01        ">
   <rdf:RDF xmlns:rdf="http://www.w3.org/1999/02/22-rdf-syntax-ns#">
      <rdf:Description rdf:about=""/>
   </rdf:RDF>
</x:xmpmeta>
                                                                                                    
                                                                                                    
                                                                                                    
                                                                                                    
                                                                                                    
                                                                                                    
                                                                                                    
                                                                                                    
                                                                                                    
                                                                                                    
                                                                                                    
                                                                                                    
                                                                                                    
                                                                                                    
                                                                                                    
                                                                                                    
                                                                                                    
                                                                                                    
                                                                                                    
                                                                                                    
                           
<?xpacket end="w"?></metadata>
<defs>
    <style>
      .cls-1 {
        fill: #7ca3c7;
      }

      .cls-1, .cls-3, .cls-4 {
        fill-rule: evenodd;
      }

      .cls-2 {
        fill: #e5e5e5;
      }

      .cls-3 {
        fill: #f5be32;
        stroke: #e08c43;
        stroke-width: 0.5px;
      }

      .cls-4 {
        fill: #a15512;
      }
    </style>
  </defs>
  <path class="cls-1" d="M100,83H0V17H100V83ZM44.582,50.164L48.259,58.1s0.063,0.152.165,0.11,0.039-.193.039-0.193L45.4,49.829M45.31,52.916c-0.045,1.207.7,1.87,0.607,2.948a3.811,3.811,0,0,0,.638,2.106,5.687,5.687,0,0,1-.026.729c0.125,0.06.4-.271,0.308-0.867a4.3,4.3,0,0,1-.438-2.089c0.107-1.316-.543-1.623-0.385-2.823M44.548,50l0.331,8.724s0,0.164.111,0.164,0.11-.164.11-0.164L45.432,50m-1.274,2.819c-0.508,1.1-.072,1.995-0.578,2.953a3.8,3.8,0,0,0-.224,2.188,5.782,5.782,0,0,1-.305.664c0.092,0.1.471-.1,0.62-0.685a4.294,4.294,0,0,1,.4-2.1c0.608-1.175.125-1.705,0.735-2.754m-0.225-3.257-3.064,8.185s-0.064.152,0.038,0.194,0.165-.11.165-0.11L45.4,50.164m-2.266,2.121c-0.893.822-.837,1.816-1.675,2.509A3.823,3.823,0,0,0,40.4,56.731a5.787,5.787,0,0,1-.539.5c0.045,0.129.474,0.086,0.837-.4a4.326,4.326,0,0,1,1.181-1.784c1.016-.856.774-1.528,1.743-2.266m1.05-3.094-5.994,6.4s-0.117.116-.039,0.193,0.2-.039.2-0.039L45.3,50.306m-2.913,1.1c-1.143.421-1.475,1.36-2.518,1.683a3.864,3.864,0,0,0-1.72,1.39,5.838,5.838,0,0,1-.69.256c-0.008.137,0.405,0.259,0.927-.05a4.373,4.373,0,0,1,1.781-1.2c1.269-.405,1.306-1.118,2.486-1.433m2.892,1.068c0.059,1.159.722,1.672,0.592,2.728,0.286-.835-0.4-1.483-0.364-2.716m-0.988-3.041L47.3,55.541l-2.11-5.617m-0.9,3.169c-0.394,1.093.021,1.818-.508,2.745,0.587-.663.2-1.523,0.713-2.647m0.262-3.184L44.985,56l0.221-5.989M43.154,52.6c-0.786.86-.683,1.688-1.529,2.343,0.8-.39.773-1.331,1.681-2.176m1.472-2.842-2.11,5.617,2.518-5.45m-2.9,1.613c-1.058.5-1.283,1.3-2.318,1.585,0.888-.058,1.228-0.937,2.394-1.373m2.458-2.068L40.7,54.236l4.432-4.08m-0.315-.563L36.81,53.234S36.657,53.3,36.7,53.4s0.2,0.038.2,0.038L45.159,50.4m-3.117-.087c-1.218-.044-1.888.7-2.976,0.6a3.9,3.9,0,0,0-2.126.632,5.882,5.882,0,0,1-.736-0.025c-0.06.123,0.274,0.393,0.875,0.3a4.406,4.406,0,0,1,2.109-.434c1.329,0.106,1.638-.538,2.85-0.381m2.952-1.453-8.808.328s-0.166,0-.166.109,0.166,0.109.166,0.109l8.808,0.328m-2.846-1.262c-1.108-.5-2.014-0.071-2.982-0.573a3.908,3.908,0,0,0-2.209-.222,5.839,5.839,0,0,1-.67-0.3c-0.1.091,0.1,0.467,0.691,0.614a4.409,4.409,0,0,1,2.116.4c1.187,0.6,1.721.124,2.781,0.728m3.288-.223-8.264-3.035s-0.153-.063-0.2.038,0.111,0.164.111,0.164L44.821,50.4m-2.142-2.244c-0.83-.885-1.833-0.829-2.533-1.66a3.886,3.886,0,0,0-1.955-1.042,5.749,5.749,0,0,1-.5-0.534c-0.131.045-.087,0.47,0.4,0.829a4.378,4.378,0,0,1,1.8,1.17c0.864,1.006,1.543.767,2.288,1.727m3.124,1.04L38.84,43.75s-0.117-.116-0.2-0.039,0.039,0.193.039,0.193l5.994,6.4M43.566,47.42c-0.425-1.132-1.374-1.461-1.7-2.494a3.845,3.845,0,0,0-1.4-1.7,5.718,5.718,0,0,1-.258-0.684c-0.138-.008-0.262.4,0.05,0.918a4.329,4.329,0,0,1,1.212,1.764c0.41,1.257,1.129,1.293,1.447,2.462m-1.078,2.865c-1.17.058-1.688,0.715-2.754,0.586,0.843,0.283,1.5-.4,2.742-0.361m3.07-.979-5.5,2.494,5.671-2.09m-3.2-.888c-1.1-.39-1.836.021-2.771-0.5,0.669,0.581,1.537.2,2.673,0.706m3.214,0.259-6.047.219,6.047,0.219m-2.614-2.033C41.5,47.4,40.662,47.5,40,46.663c0.394,0.791,1.344.766,2.2,1.665m2.87,1.458L39.4,47.7l5.5,2.494m-1.629-2.869c-0.5-1.048-1.313-1.271-1.6-2.3,0.058,0.88.946,1.217,1.386,2.371m2.088,2.435L40.71,45.75l4.12,4.39m0.569-.312-3.677-7.934s-0.063-.152-0.166-0.11-0.039.194-.039,0.194l3.064,8.186m0.088-3.087c0.045-1.207-.7-1.87-0.607-2.948a3.809,3.809,0,0,0-.638-2.106,5.7,5.7,0,0,1,.026-0.729c-0.124-.06-0.4.271-0.308,0.867a4.3,4.3,0,0,1,.438,2.089c-0.107,1.316.544,1.623,0.385,2.823M45.432,50L45.1,41.272s0-.164-0.11-0.164-0.11.164-.11,0.164L44.548,50m1.274-2.819c0.508-1.1.072-1.995,0.579-2.953a3.8,3.8,0,0,0,.224-2.188,5.72,5.72,0,0,1,.306-0.664c-0.092-.1-0.471.1-0.62,0.684a4.293,4.293,0,0,1-.4,2.1c-0.607,1.175-.125,1.705-0.735,2.754M45.4,50.164l3.064-8.186s0.064-.152-0.038-0.194-0.165.11-.165,0.11l-3.677,7.934m2.266-2.121c0.893-.822.837-1.816,1.675-2.509a3.824,3.824,0,0,0,1.052-1.936,5.785,5.785,0,0,1,.539-0.5c-0.045-.129-0.474-0.086-0.837.4A4.327,4.327,0,0,1,48.1,44.945c-1.015.855-.774,1.528-1.743,2.266M45.3,50.306L51.3,43.9s0.117-.116.039-0.193-0.2.039-.2,0.039l-6.462,5.937m2.913-1.1c1.143-.421,1.475-1.36,2.517-1.683a3.863,3.863,0,0,0,1.72-1.39,5.811,5.811,0,0,1,.69-0.256c0.008-.137-0.4-0.259-0.927.05a4.37,4.37,0,0,1-1.781,1.2c-1.269.406-1.306,1.118-2.486,1.433m-2.892-1.068c-0.059-1.159-.722-1.672-0.592-2.728-0.286.835,0.4,1.483,0.364,2.716M45.194,49.9l-2.518-5.449,2.11,5.617m0.9-3.169c0.394-1.093-.021-1.818.507-2.744-0.587.663-.2,1.523-0.713,2.647m-0.262,3.184L44.995,44l-0.221,5.989M46.827,47.4c0.786-.86.683-1.688,1.529-2.343-0.8.39-.773,1.331-1.681,2.176M45.2,50.072l2.11-5.617L44.795,49.9m2.9-1.613c1.058-.5,1.283-1.3,2.318-1.585-0.889.058-1.228,0.937-2.394,1.373m-2.458,2.068,4.119-4.39-4.432,4.08M45.159,50.4l8.011-3.642s0.153-.063.111-0.164-0.2-.038-0.2-0.038l-8.264,3.035m3.117,0.087c1.218,0.044,1.888-.7,2.976-0.6a3.9,3.9,0,0,0,2.126-.632,5.838,5.838,0,0,1,.736.025c0.06-.123-0.274-0.393-0.876-0.305a4.405,4.405,0,0,1-2.109.434c-1.329-.106-1.638.538-2.85,0.381M44.99,50.434l8.808-.328s0.166,0,.166-0.109S53.8,49.887,53.8,49.887l-8.808-.328m2.846,1.262c1.108,0.5,2.014.071,2.982,0.573a3.907,3.907,0,0,0,2.209.222,5.824,5.824,0,0,1,.67.3c0.1-.091-0.1-0.467-0.691-0.614a4.41,4.41,0,0,1-2.116-.4c-1.187-.6-1.721-0.123-2.781-0.728m-3.288.223,8.264,3.035s0.153,0.063.2-.038-0.111-.164-0.111-0.164l-8.011-3.642M47.3,51.837c0.83,0.885,1.833.829,2.533,1.66a3.886,3.886,0,0,0,1.955,1.042,5.731,5.731,0,0,1,.5.534c0.131-.045.087-0.47-0.4-0.829a4.377,4.377,0,0,1-1.8-1.17c-0.864-1.006-1.543-.767-2.288-1.727m-3.124-1.04,6.462,5.937s0.117,0.116.2,0.039S51.3,56.088,51.3,56.088l-5.994-6.4m1.112,2.886c0.425,1.132,1.373,1.461,1.7,2.494a3.845,3.845,0,0,0,1.4,1.7,5.675,5.675,0,0,1,.258.684c0.138,0.008.262-.4-0.05-0.918a4.33,4.33,0,0,1-1.212-1.764c-0.41-1.257-1.129-1.293-1.447-2.462m1.078-2.864c1.17-.058,1.688-0.715,2.754-0.586-0.843-.283-1.5.4-2.742,0.361m-3.07.979,5.5-2.494-5.671,2.09m3.2,0.888c1.1,0.39,1.836-.021,2.771.5-0.67-.581-1.537-0.2-2.673-0.706M45,50.22L51.048,50,45,49.782m2.614,2.033c0.869,0.778,1.7.677,2.366,1.515-0.394-.791-1.344-0.766-2.2-1.665m-2.869-1.458,5.671,2.09-5.5-2.494m1.629,2.869c0.5,1.049,1.313,1.271,1.6,2.3-0.058-.88-0.945-1.217-1.386-2.371m-2.088-2.435,4.432,4.08-4.12-4.39m-0.16-3.411A3.555,3.555,0,1,1,41.4,50,3.572,3.572,0,0,1,44.99,46.441Zm1.224,2.8a0.712,0.712,0,0,0-.618.324,1.132,1.132,0,0,0,1.3-.028,0.952,0.952,0,0,0-.682-0.3h0Zm0,0.056a0.534,0.534,0,0,1,.493.212,0.733,0.733,0,0,1-.993.056,0.583,0.583,0,0,1,.5-0.268h0Zm0.05-.225a0.736,0.736,0,0,0-.607.219,0.722,0.722,0,0,1-.276.137c-0.027.027,0,.109,0.055,0.082a1.589,1.589,0,0,0,.331-0.219,0.694,0.694,0,0,1,.5-0.137,1.568,1.568,0,0,1,.828.383,0.863,0.863,0,0,0-.828-0.465h0Zm0.994,0.164a1.443,1.443,0,0,0-1.878-.219,1.065,1.065,0,0,0-.206.457,1.314,1.314,0,0,0,.289.993,0.209,0.209,0,0,0-.111.055,1.931,1.931,0,0,1-.225-1.247,1.75,1.75,0,0,1,.087-0.312,1.33,1.33,0,0,1,2.043.274h0Zm-1.049.026a0.246,0.246,0,1,1-.248.246A0.247,0.247,0,0,1,46.205,49.257Zm0.718,0.411a1.094,1.094,0,0,1-1.215.164c-0.276-.164-0.276-0.219-0.221-0.219a1.569,1.569,0,0,1,.331.164,1.373,1.373,0,0,0,1.1-.109h0Zm-2.482.819a0.246,0.246,0,1,0,.25.384,0.527,0.527,0,0,0,.3.08h0.032a0.528,0.528,0,0,0,.3-0.08,0.245,0.245,0,0,0,.2.1,0.246,0.246,0,0,0,.048-0.488,0.165,0.165,0,1,1-.222.164,0.378,0.378,0,0,1-.687,0,0.166,0.166,0,1,1-.222-0.164h0Zm0.27,0.728a1.272,1.272,0,0,0-.634.412,5.018,5.018,0,0,0,.44-0.272,0.659,0.659,0,0,1,.468.024h0a0.659,0.659,0,0,1,.468-0.024,4.969,4.969,0,0,0,.444.272,1.283,1.283,0,0,0-.638-0.412,0.748,0.748,0,0,0-.275.084h0A0.747,0.747,0,0,0,44.711,51.216Zm-0.093.324a1.9,1.9,0,0,0-.46.088,1.715,1.715,0,0,1,.828.056h0a1.717,1.717,0,0,1,.828-0.056,1.485,1.485,0,0,0-.828-0.056h0a3,3,0,0,0-.368-0.032h0Zm-0.436.084c-0.032,0-.067,0-0.1,0,0.58,0.055.3,0.384,0.909,0.384h0c0.607,0,.333-0.329.913-0.384-0.607-.055-0.415.3-0.913,0.3h0c-0.466,0-.322-0.31-0.8-0.3h0Zm1.305,0.888a0.5,0.5,0,0,0-.994,0,0.512,0.512,0,0,1,.994,0h0Zm-2.729-3.282a1.443,1.443,0,0,1,1.878-.219,1.068,1.068,0,0,1,.206.457,1.314,1.314,0,0,1-.289.993,0.209,0.209,0,0,1,.111.055,1.931,1.931,0,0,0,.225-1.247,1.757,1.757,0,0,0-.086-0.312,1.33,1.33,0,0,0-2.043.274h0Zm0.994-.164a0.736,0.736,0,0,1,.607.219,0.722,0.722,0,0,0,.276.137c0.028,0.027,0,.109-0.055.082a1.59,1.59,0,0,1-.331-0.219,0.694,0.694,0,0,0-.5-0.137,1.565,1.565,0,0,0-.828.383,0.863,0.863,0,0,1,.828-0.465h0Zm-0.017.169a0.712,0.712,0,0,0-.618.324,1.132,1.132,0,0,0,1.3-.028,0.952,0.952,0,0,0-.682-0.3h0Zm0,0.056a0.534,0.534,0,0,1,.493.212,0.733,0.733,0,0,1-.993.056,0.583,0.583,0,0,1,.5-0.268h0Zm0.036-.035a0.246,0.246,0,1,1-.248.246A0.247,0.247,0,0,1,43.768,49.257Zm-0.678.411a1.094,1.094,0,0,0,1.215.164c0.276-.164.276-0.219,0.221-0.219a1.569,1.569,0,0,0-.331.164,1.373,1.373,0,0,1-1.1-.109h0Z"/>
  <rect class="cls-2" y="39" width="100" height="22"/>
  <path class="cls-3" d="M49.6,50.66l3.691,7.577a0.155,0.155,0,0,0,.166.105c0.1-.04.039-0.185,0.039-0.185L50.415,50.34m-0.088,2.948c-0.045,1.152.707,1.786,0.609,2.815a3.519,3.519,0,0,0,.641,2.011,5.182,5.182,0,0,1-.026.7c0.125,0.057.4-.259,0.309-0.828a3.94,3.94,0,0,1-.44-1.995c0.108-1.257-.546-1.55-0.387-2.7M49.562,50.5l0.333,8.332s0,0.157.111,0.157,0.111-.157.111-0.157L50.449,50.5M49.17,53.192c-0.51,1.048-.072,1.905-0.581,2.82a3.465,3.465,0,0,0-.225,2.089,5.378,5.378,0,0,1-.307.634c0.092,0.1.473-.1,0.622-0.654a3.923,3.923,0,0,1,.4-2c0.61-1.123.125-1.628,0.738-2.63M49.6,50.34l-3.077,7.817s-0.064.145,0.039,0.185a0.155,0.155,0,0,0,.166-0.1l3.692-7.578M48.14,52.686c-0.9.785-.84,1.734-1.682,2.4A3.6,3.6,0,0,0,45.4,56.932a5.708,5.708,0,0,1-.541.475c0.046,0.124.476,0.082,0.84-.38a4.111,4.111,0,0,1,1.186-1.7c1.02-.817.777-1.459,1.75-2.164M49.692,50.2l-6.017,6.113s-0.118.111-.039,0.185a0.162,0.162,0,0,0,.2-0.037l6.488-5.67m-2.925,1.051c-1.147.4-1.481,1.3-2.527,1.607a3.837,3.837,0,0,0-1.727,1.328,6.056,6.056,0,0,1-.693.244c-0.008.131,0.407,0.247,0.931-.048a4.4,4.4,0,0,1,1.788-1.146c1.274-.387,1.311-1.068,2.5-1.368m2.9,1.02c0.059,1.107.725,1.6,0.594,2.605,0.287-.8-0.405-1.416-0.366-2.594m-0.992-2.9,2.528,5.2-2.118-5.364m-0.9,3.027c-0.4,1.044.021,1.736-.509,2.621,0.589-.633.2-1.454,0.716-2.528m0.263-3.041L50,56.23l0.222-5.72m-2.061,2.472c-0.789.822-.686,1.612-1.535,2.238,0.8-.373.776-1.271,1.688-2.078m1.478-2.714-2.118,5.364,2.528-5.2m-2.908,1.541c-1.063.475-1.288,1.242-2.327,1.514,0.892-.055,1.233-0.895,2.4-1.311m2.468-1.975L45.7,54.549l4.45-3.9m-0.316-.538-8.042,3.478s-0.154.06-.111,0.156,0.2,0.037.2,0.037l8.3-2.9M47.046,50.8c-1.223-.043-1.9.666-2.988,0.574a4.053,4.053,0,0,0-2.135.6,6.193,6.193,0,0,1-.739-0.024c-0.06.118,0.275,0.375,0.879,0.291a4.611,4.611,0,0,1,2.117-.414c1.334,0.1,1.645-.514,2.862-0.364m2.964-1.387-8.843.313S41,50.4,41,50.5s0.166,0.1.166,0.1l8.843,0.314m-2.857-1.205c-1.113-.48-2.022-0.068-2.994-0.547a4.112,4.112,0,0,0-2.217-.212,6.03,6.03,0,0,1-.673-0.289c-0.1.087,0.1,0.446,0.694,0.586a4.63,4.63,0,0,1,2.124.381c1.191,0.575,1.728.118,2.792,0.7m3.3-.213-8.3-2.9s-0.154-.06-0.2.036,0.111,0.156.111,0.156l8.043,3.478m-2.15-2.143c-0.833-.845-1.841-0.792-2.544-1.585a3.975,3.975,0,0,0-1.962-1,5.6,5.6,0,0,1-.5-0.51c-0.131.043-.087,0.449,0.4,0.792a4.432,4.432,0,0,1,1.808,1.118c0.867,0.961,1.549.732,2.3,1.649M50.319,50.2l-6.488-5.67a0.162,0.162,0,0,0-.2-0.037c-0.078.074,0.039,0.185,0.039,0.185L49.692,50.8M48.576,48.04c-0.426-1.081-1.379-1.4-1.706-2.381a3.729,3.729,0,0,0-1.409-1.627,5.264,5.264,0,0,1-.259-0.653c-0.139-.008-0.263.383,0.051,0.877a4.148,4.148,0,0,1,1.216,1.685c0.411,1.2,1.134,1.235,1.452,2.352m-1.082,2.736c-1.175.055-1.695,0.683-2.765,0.56,0.846,0.27,1.5-.382,2.753-0.345m3.082-.935-5.524,2.382,5.694-2m-3.213-.848c-1.108-.372-1.843.02-2.782-0.48,0.672,0.555,1.543.189,2.683,0.674m3.227,0.248-6.071.209L49.995,50.7m-2.624-1.942C46.5,48.02,45.66,48.117,45,47.316c0.4,0.755,1.349.731,2.205,1.59M50.082,50.3l-5.693-2,5.524,2.382m-1.635-2.74c-0.5-1-1.318-1.214-1.607-2.193,0.059,0.84.949,1.162,1.392,2.264m2.1,2.325-4.449-3.9,4.136,4.192m0.571-.3-3.691-7.577a0.155,0.155,0,0,0-.166-0.1c-0.1.04-.039,0.185-0.039,0.185L49.6,50.66m0.088-2.948c0.045-1.152-.707-1.786-0.609-2.815a3.518,3.518,0,0,0-.641-2.011,5.188,5.188,0,0,1,.026-0.7c-0.125-.057-0.4.259-0.309,0.828a3.941,3.941,0,0,1,.44,1.995c-0.108,1.257.546,1.55,0.387,2.7M50.45,50.5l-0.333-8.332s0-.157-0.111-0.157-0.111.157-.111,0.157L49.562,50.5m1.279-2.692c0.51-1.048.072-1.905,0.581-2.821a3.465,3.465,0,0,0,.225-2.089,5.329,5.329,0,0,1,.307-0.634c-0.092-.1-0.473.1-0.622,0.654a3.925,3.925,0,0,1-.4,2c-0.61,1.122-.125,1.629-0.738,2.63m0.226,3.11,3.077-7.818s0.064-.145-0.039-0.185a0.155,0.155,0,0,0-.166.1L49.6,50.34m2.275-2.026c0.9-.785.84-1.734,1.682-2.4a3.6,3.6,0,0,0,1.056-1.849,5.7,5.7,0,0,1,.541-0.475c-0.046-.124-0.476-0.082-0.84.38a4.112,4.112,0,0,1-1.186,1.7c-1.019.817-.777,1.459-1.75,2.164M50.32,50.8l6.017-6.113s0.118-.111.039-0.185-0.2.037-.2,0.037L49.692,50.2m2.925-1.052c1.147-.4,1.481-1.3,2.528-1.608a3.838,3.838,0,0,0,1.727-1.327,6.065,6.065,0,0,1,.693-0.244c0.008-.131-0.407-0.248-0.931.048a4.394,4.394,0,0,1-1.788,1.146c-1.274.387-1.311,1.068-2.5,1.368m-2.9-1.02c-0.059-1.107-.725-1.6-0.594-2.605-0.287.8,0.405,1.416,0.366,2.594m0.992,2.9-2.528-5.2L49.8,50.569m0.9-3.027c0.4-1.044-.021-1.736.509-2.621-0.589.633-.2,1.454-0.715,2.528M50.232,50.49L50.01,44.77l-0.222,5.72m2.061-2.472c0.789-.822.686-1.612,1.535-2.238-0.8.373-.776,1.271-1.688,2.078m-1.478,2.715,2.118-5.364-2.528,5.2m2.908-1.541c1.063-.475,1.288-1.242,2.327-1.514-0.892.055-1.233,0.895-2.4,1.311m-2.468,1.975,4.136-4.192-4.449,3.9m0.316,0.538,8.042-3.478s0.154-.06.111-0.157-0.2-.036-0.2-0.036l-8.3,2.9M52.965,50.2c1.223,0.042,1.9-.666,2.988-0.574a4.054,4.054,0,0,0,2.135-.6,6.182,6.182,0,0,1,.739.024c0.06-.118-0.275-0.375-0.879-0.291a4.611,4.611,0,0,1-2.117.414c-1.334-.1-1.645.514-2.862,0.364m-2.963,1.387,8.843-.314s0.166,0,.166-0.1-0.166-.1-0.166-0.1l-8.843-.313m2.857,1.205c1.113,0.48,2.022.068,2.994,0.547a4.109,4.109,0,0,0,2.217.212,6.011,6.011,0,0,1,.673.289c0.1-.087-0.1-0.446-0.694-0.586a4.629,4.629,0,0,1-2.124-.381c-1.191-.575-1.728-0.118-2.792-0.7m-3.3.213,8.3,2.9s0.154,0.06.2-.036-0.111-.157-0.111-0.157l-8.042-3.478m2.15,2.144c0.833,0.845,1.841.792,2.544,1.585a3.976,3.976,0,0,0,1.962,1,5.611,5.611,0,0,1,.5.51c0.131-.043.087-0.449-0.4-0.792a4.431,4.431,0,0,1-1.808-1.118c-0.867-.96-1.549-0.732-2.3-1.649M49.692,50.8l6.488,5.67a0.162,0.162,0,0,0,.2.037c0.078-.074-0.039-0.185-0.039-0.185L50.319,50.2m1.116,2.756c0.427,1.081,1.379,1.4,1.706,2.381a3.728,3.728,0,0,0,1.409,1.627,5.281,5.281,0,0,1,.259.653c0.139,0.008.263-.383-0.051-0.877a4.146,4.146,0,0,1-1.216-1.684c-0.411-1.2-1.133-1.235-1.452-2.352m1.083-2.736c1.174-.055,1.695-0.683,2.765-0.56-0.847-.271-1.5.382-2.753,0.345m-3.082.935,5.523-2.382-5.693,2m3.213,0.848c1.108,0.372,1.843-.02,2.782.48-0.672-.555-1.543-0.189-2.683-0.674m-3.227-.247,6.07-.209L50.017,50.3m2.624,1.942c0.872,0.743,1.711.646,2.375,1.446-0.4-.755-1.349-0.731-2.205-1.59M49.929,50.7l5.693,2L50.1,50.315m1.635,2.74c0.5,1,1.318,1.214,1.607,2.193-0.059-.84-0.949-1.162-1.391-2.264m-2.1-2.325,4.449,3.9-4.136-4.192M50.006,47.1a3.4,3.4,0,1,1-3.6,3.4A3.5,3.5,0,0,1,50.006,47.1Zm1.228,2.669a0.726,0.726,0,0,0-.62.309,1.185,1.185,0,0,0,1.305-.027,0.98,0.98,0,0,0-.685-0.283h0Zm0,0.053a0.547,0.547,0,0,1,.495.2,0.764,0.764,0,0,1-1,.053,0.594,0.594,0,0,1,.5-0.256h0Zm0.051-.215a0.76,0.76,0,0,0-.61.209,0.742,0.742,0,0,1-.277.131c-0.028.026,0,.1,0.055,0.078a1.609,1.609,0,0,0,.333-0.209,0.723,0.723,0,0,1,.5-0.131,1.606,1.606,0,0,1,.832.366,0.869,0.869,0,0,0-.832-0.444h0Zm1,0.156a1.5,1.5,0,0,0-1.885-.209,0.994,0.994,0,0,0-.207.436,1.212,1.212,0,0,0,.29.948,0.214,0.214,0,0,0-.111.052,1.767,1.767,0,0,1-.226-1.191,1.619,1.619,0,0,1,.087-0.3,1.377,1.377,0,0,1,2.051.261h0Zm-1.053.025a0.235,0.235,0,1,1-.249.235A0.243,0.243,0,0,1,51.225,49.795Zm0.721,0.393a1.144,1.144,0,0,1-1.22.157c-0.277-.157-0.277-0.209-0.222-0.209a1.611,1.611,0,0,1,.333.157,1.443,1.443,0,0,0,1.109-.1h0Zm-2.492.782a0.239,0.239,0,0,0-.2.233,0.243,0.243,0,0,0,.251.233,0.25,0.25,0,0,0,.2-0.1,0.55,0.55,0,0,0,.3.076h0.032a0.55,0.55,0,0,0,.3-0.076,0.25,0.25,0,0,0,.2.1,0.243,0.243,0,0,0,.251-0.233,0.239,0.239,0,0,0-.2-0.233,0.158,0.158,0,0,1,.109.149,0.161,0.161,0,0,1-.166.157,0.163,0.163,0,0,1-.166-0.149,0.388,0.388,0,0,1-.689,0,0.163,0.163,0,0,1-.166.149,0.161,0.161,0,0,1-.166-0.157,0.158,0.158,0,0,1,.109-0.149h0Zm0.271,0.7a1.285,1.285,0,0,0-.636.394,5.092,5.092,0,0,0,.442-0.26,0.692,0.692,0,0,1,.47.023h0a0.692,0.692,0,0,1,.47-0.023,5.045,5.045,0,0,0,.446.26,1.3,1.3,0,0,0-.641-0.394,0.779,0.779,0,0,0-.276.08h0A0.778,0.778,0,0,0,49.726,51.665Zm-0.093.309a2,2,0,0,0-.462.084,1.806,1.806,0,0,1,.831.053h0a1.807,1.807,0,0,1,.831-0.053A1.563,1.563,0,0,0,50,52h0a3.17,3.17,0,0,0-.369-0.031h0Zm-0.437.081c-0.032,0-.067,0-0.105,0,0.582,0.052.3,0.367,0.912,0.367h0c0.61,0,.334-0.314.916-0.367-0.61-.052-0.417.287-0.916,0.287h0c-0.468,0-.324-0.3-0.807-0.29h0Zm1.31,0.848a0.5,0.5,0,0,0-1,0,0.521,0.521,0,0,1,1,0h0Zm-2.74-3.134a1.5,1.5,0,0,1,1.885-.209,1,1,0,0,1,.207.436,1.213,1.213,0,0,1-.29.948,0.214,0.214,0,0,1,.111.052,1.766,1.766,0,0,0,.226-1.191,1.611,1.611,0,0,0-.087-0.3,1.377,1.377,0,0,0-2.051.261h0Zm1-.156a0.76,0.76,0,0,1,.61.209,0.743,0.743,0,0,0,.277.131c0.028,0.026,0,.1-0.055.078a1.6,1.6,0,0,1-.332-0.209,0.724,0.724,0,0,0-.5-0.131,1.6,1.6,0,0,0-.831.366,0.869,0.869,0,0,1,.831-0.444h0Zm-0.017.161a0.725,0.725,0,0,0-.62.309,1.185,1.185,0,0,0,1.305-.027,0.98,0.98,0,0,0-.685-0.283h0Zm0,0.053a0.547,0.547,0,0,1,.495.2,0.764,0.764,0,0,1-1,.053,0.594,0.594,0,0,1,.5-0.256h0Zm0.036-.033a0.235,0.235,0,1,1-.249.235A0.243,0.243,0,0,1,48.778,49.795Zm-0.681.393a1.143,1.143,0,0,0,1.22.157c0.277-.157.277-0.209,0.222-0.209a1.611,1.611,0,0,0-.333.157,1.443,1.443,0,0,1-1.109-.1h0Z"/>
  <path class="cls-4" d="M51.592,49a0.922,0.922,0,0,0-.824.493,1.36,1.36,0,0,0,1.735-.043A1.2,1.2,0,0,0,51.592,49h0Zm-0.005.085a0.684,0.684,0,0,1,.657.323,0.892,0.892,0,0,1-1.325.085,0.756,0.756,0,0,1,.668-0.408h0Zm0.068-.342a0.921,0.921,0,0,0-.81.333,0.912,0.912,0,0,1-.368.208c-0.036.042,0,.166,0.074,0.125a2.1,2.1,0,0,0,.442-0.333,0.843,0.843,0,0,1,.663-0.208,2.009,2.009,0,0,1,1.105.583,1.158,1.158,0,0,0-1.105-.708h0Zm1.325,0.249c-0.847-.833-1.915-0.958-2.5-0.333a1.743,1.743,0,0,0-.275.7,2.207,2.207,0,0,0,.386,1.511,0.265,0.265,0,0,0-.148.083,3.3,3.3,0,0,1-.3-1.9,2.973,2.973,0,0,1,.116-0.475,1.648,1.648,0,0,1,2.725.416h0Zm-1.4.04a0.377,0.377,0,1,1-.331.375A0.355,0.355,0,0,1,51.58,49.031Zm0.958,0.626a1.318,1.318,0,0,1-1.621.25c-0.368-.25-0.368-0.333-0.295-0.333a2,2,0,0,1,.442.25,1.629,1.629,0,0,0,1.473-.166h0ZM49.227,50.9a0.367,0.367,0,0,0-.269.371,0.354,0.354,0,0,0,.334.372,0.317,0.317,0,0,0,.269-0.158,0.637,0.637,0,0,0,.4.122H50a0.637,0.637,0,0,0,.4-0.122,0.316,0.316,0,0,0,.269.158A0.354,0.354,0,0,0,51,51.275a0.367,0.367,0,0,0-.269-0.371,0.251,0.251,0,0,1,.145.238,0.222,0.222,0,1,1-.442.012,0.48,0.48,0,0,1-.916,0,0.222,0.222,0,1,1-.442-0.012,0.251,0.251,0,0,1,.145-0.238h0Zm0.36,1.109a1.69,1.69,0,0,0-.846.627,6.575,6.575,0,0,0,.587-0.414,0.779,0.779,0,0,1,.625.037h0.005a0.779,0.779,0,0,1,.625-0.037,6.525,6.525,0,0,0,.592.414,1.7,1.7,0,0,0-.851-0.627,0.908,0.908,0,0,0-.366.128H49.954A0.906,0.906,0,0,0,49.588,52.012Zm-0.124.493a2.264,2.264,0,0,0-.614.134,2.022,2.022,0,0,1,1.1.085h0.005a2.021,2.021,0,0,1,1.1-.085,1.746,1.746,0,0,0-1.1-.085H49.954a3.532,3.532,0,0,0-.49-0.049h0Zm-0.581.129c-0.043,0-.089,0-0.14.006,0.773,0.083.4,0.585,1.212,0.585H49.96c0.81,0,.444-0.5,1.217-0.585-0.81-.083-0.554.457-1.217,0.457H49.955c-0.622,0-.43-0.472-1.072-0.463h0Zm1.741,1.352a0.668,0.668,0,1,0-1.326,0,0.667,0.667,0,0,1,1.326,0h0Zm-3.64-5c0.847-.833,1.915-0.958,2.5-0.333a1.743,1.743,0,0,1,.275.7,2.207,2.207,0,0,1-.386,1.511,0.266,0.266,0,0,1,.148.083,3.3,3.3,0,0,0,.3-1.9,2.973,2.973,0,0,0-.115-0.475,1.648,1.648,0,0,0-2.725.416h0Zm1.326-.249a0.921,0.921,0,0,1,.81.333,0.913,0.913,0,0,0,.368.208c0.037,0.042,0,.166-0.074.125a2.113,2.113,0,0,1-.442-0.333,0.843,0.843,0,0,0-.663-0.208,2.008,2.008,0,0,0-1.1.583,1.158,1.158,0,0,1,1.1-.708h0ZM48.286,49a0.922,0.922,0,0,0-.824.493,1.36,1.36,0,0,0,1.734-.043A1.2,1.2,0,0,0,48.286,49h0Zm-0.005.085a0.684,0.684,0,0,1,.657.323,0.892,0.892,0,0,1-1.325.085,0.756,0.756,0,0,1,.668-0.408h0Zm0.049-.053a0.377,0.377,0,1,1-.332.375A0.355,0.355,0,0,1,48.329,49.031Zm-0.9.626a1.318,1.318,0,0,0,1.62.25c0.368-.25.368-0.333,0.295-0.333a1.991,1.991,0,0,0-.442.25,1.63,1.63,0,0,1-1.473-.166h0Z"/>
</svg>
