<svg id="country_ussr" xmlns="http://www.w3.org/2000/svg" width="100" height="68" viewBox="0 0 100 68">
  <defs>
    <style>
      .cls-1 {
        fill: #bc0000;
      }

      .cls-2 {
        fill: #ffc71e;
        fill-rule: evenodd;
      }
    </style>
  </defs>
  <g id="country_ussr-2" data-name="country_ussr">
    <rect class="cls-1" width="100" height="68"/>
    <path class="cls-2" d="M26,29.964l1.611,1.7a0.92,0.92,0,0,1-.216,1.152,1.2,1.2,0,0,1-1.224.432L24.382,31.36a7.831,7.831,0,0,1-3.972,1.453A9.729,9.729,0,0,1,13.026,29.9l-1.831,2.63a1.212,1.212,0,0,1-1.656,0,1.282,1.282,0,0,1-.072-1.872l2.413-1.987q-0.274-.327-0.541-0.677l0.864-.72a6.923,6.923,0,0,0,.608.63l0.328-.27L14,28.494l-0.17.243a10.339,10.339,0,0,0,6.146,1.989,5.3,5.3,0,0,0,2.853-1l-7.067-7.452L13.57,24.39,10.978,21.8l4.608-4.248L18.9,17.694l0.792,0.792L17.3,20.793l7.082,7.465c1.314-1.705,2.005-4.258.925-7.54-1.915-5.821-11.52-5.58-12.528-4.968,0,0,1.3-1.152,5.328-1.224s9.247,2.5,10.152,8.064A8.6,8.6,0,0,1,26,29.964Z"/>
    <path class="cls-2" d="M19.478,6.728l0.443,1.364,0.127,0.392h1.846l-1.16.843L20.4,9.568,20.528,9.96l0.443,1.364-1.16-.843-0.333-.242-0.333.242-1.16.843L18.428,9.96l0.127-.392-0.333-.242-1.16-.843h1.846l0.127-.392,0.443-1.364m0-1.834L18.5,7.917H15.317l2.572,1.868-0.982,3.023,2.572-1.868,2.572,1.868L21.067,9.785l2.572-1.868H20.46L19.478,4.893h0Z"/>
  </g>
</svg>
