<svg id="country_australia" xmlns="http://www.w3.org/2000/svg" width="100" height="66" viewBox="0 0 100 66">
  <metadata><?xpacket begin="﻿" id="W5M0MpCehiHzreSzNTczkc9d"?>
<x:xmpmeta xmlns:x="adobe:ns:meta/" x:xmptk="Adobe XMP Core 5.6-c138 79.159824, 2016/09/14-01:09:01        ">
   <rdf:RDF xmlns:rdf="http://www.w3.org/1999/02/22-rdf-syntax-ns#">
      <rdf:Description rdf:about=""/>
   </rdf:RDF>
</x:xmpmeta>
                                                                                                    
                                                                                                    
                                                                                                    
                                                                                                    
                                                                                                    
                                                                                                    
                                                                                                    
                                                                                                    
                                                                                                    
                                                                                                    
                                                                                                    
                                                                                                    
                                                                                                    
                                                                                                    
                                                                                                    
                                                                                                    
                                                                                                    
                                                                                                    
                                                                                                    
                                                                                                    
                           
<?xpacket end="w"?></metadata>
<defs>
    <style>
      .cls-1 {
        fill: #001b69;
      }

      .cls-2 {
        fill: #f5f5f5;
      }

      .cls-2, .cls-3 {
        fill-rule: evenodd;
      }

      .cls-3 {
        fill: #e50027;
      }
    </style>
  </defs>
  <rect class="cls-1" width="100" height="66"/>
  <path class="cls-2" d="M75.349,10.7a2.857,2.857,0,0,0,.212.6,9.269,9.269,0,0,0,.535,1.631c0.483-.187,1-0.314,1.489-0.535a2.41,2.41,0,0,1,.745-0.284,1.236,1.236,0,0,1-.319.5c-0.2.3-.341,0.586-0.535,0.887a1.858,1.858,0,0,0-.425.673,0.914,0.914,0,0,1,.357.213c0.367,0.2.7,0.362,1.063,0.567a1.871,1.871,0,0,0,.6.357v0.106c-0.808.014-1.511,0.17-2.34,0.178a1.024,1.024,0,0,0-.036.319,2.322,2.322,0,0,1,.106.673,13.412,13.412,0,0,1,.213,1.418H76.909a8.536,8.536,0,0,0-1.241-1.312,0.923,0.923,0,0,0-.425-0.39,9.973,9.973,0,0,1-1.209,1.28,0.926,0.926,0,0,1-.461.425c0.089-.777.253-1.564,0.319-2.375a2.041,2.041,0,0,0-.567-0.036,3.281,3.281,0,0,0-.807-0.071,5.256,5.256,0,0,0-.993-0.106V15.316a7.068,7.068,0,0,0,1.56-.921,0.838,0.838,0,0,0,.461-0.319H73.51a6.257,6.257,0,0,0-.851-1.276,2.017,2.017,0,0,0-.357-0.535V12.125c0.812,0.106,1.413.735,2.269,0.78a1.254,1.254,0,0,1,.142-0.425c0.061-.153.016-0.243,0.071-0.39a11.88,11.88,0,0,0,.459-1.387h0.106ZM89.106,27.015l0.319,2.408H89.35a9.062,9.062,0,0,0-1.241-1.276,0.922,0.922,0,0,0-.461-0.425,23.124,23.124,0,0,1-1.595,1.7H85.985c0.083-.773.288-1.565,0.319-2.375H86.268V27.012a5.936,5.936,0,0,1-1.311-.142,7.044,7.044,0,0,1-.993-0.071,0.129,0.129,0,0,1-.036-0.07,6.328,6.328,0,0,0,1.418-.851,1.227,1.227,0,0,0,.6-0.39,4.312,4.312,0,0,1-.461-0.745,6.317,6.317,0,0,1-.851-1.276h0.071a2.7,2.7,0,0,0,.745.284,5.452,5.452,0,0,0,1.489.567V24.282h0.036a3.024,3.024,0,0,1,.284-0.851c0.173-.468.241-0.942,0.425-1.382h0.07a2.192,2.192,0,0,0,.213.673,12.134,12.134,0,0,1,.461,1.56,0.65,0.65,0,0,0,.212.036,1.343,1.343,0,0,1,.535-0.213c0.514-.2,1.058-0.472,1.595-0.638v0.071a7.589,7.589,0,0,0-.779,1.2,2.637,2.637,0,0,0-.535.815,12.436,12.436,0,0,1,1.347.815,1.842,1.842,0,0,1,.709.425H91.48v0.036a1.034,1.034,0,0,0-.425.036H90.449A6.774,6.774,0,0,1,89.106,27.015ZM65.07,30.56a12.865,12.865,0,0,0-2.34.213v0.248a12.859,12.859,0,0,1,.284,1.7,2.614,2.614,0,0,1,.036.425v0.036l-0.106-.036a1.459,1.459,0,0,0-.425-0.461,10,10,0,0,1-1.134-1.241,0.121,0.121,0,0,0-.07.036,0.713,0.713,0,0,0-.284.284c-0.317.342-.664,0.664-0.993,0.993a0.791,0.791,0,0,1-.425.357c0.089-.757.276-1.54,0.319-2.34H59.858a3.3,3.3,0,0,0-.851-0.071,6.865,6.865,0,0,0-1.385-.144V30.418a5.134,5.134,0,0,0,1.311-.779,1.248,1.248,0,0,0,.638-0.425,7.131,7.131,0,0,1-.745-1.134,4.134,4.134,0,0,1-.567-0.851h0.106a2.864,2.864,0,0,0,.745.284c0.446,0.189.944,0.419,1.418,0.567l0.036-.071a2.468,2.468,0,0,0,.178-0.567c0.19-.515.336-1.129,0.567-1.63H61.38a3.24,3.24,0,0,0,.284.851c0.168,0.489.3,0.941,0.425,1.418h0.07a3,3,0,0,1,.779-0.284,14.039,14.039,0,0,1,1.418-.567v0.106a6.269,6.269,0,0,0-.638.993,4.507,4.507,0,0,0-.638.957h0.036a1.684,1.684,0,0,0,.5.284c0.487,0.268.935,0.636,1.454,0.887V30.56h0Zm15.742,2.694h0.142a5.081,5.081,0,0,0,.357,1.064,0.818,0.818,0,0,0,.142.425h1.589a0.5,0.5,0,0,1,.036.142,3.415,3.415,0,0,0-.886.639,1.132,1.132,0,0,0-.39.248v0.213a7.952,7.952,0,0,1,.5,1.454H82.225a5.948,5.948,0,0,0-1.414-.961,4.291,4.291,0,0,1-1.276.887,9.2,9.2,0,0,0,.425-1.56c-0.194-.378-1.168-0.629-1.276-1.028a6.349,6.349,0,0,1,1.666-.036,0.1,0.1,0,0,1,.036-0.036C80.419,34.186,80.744,33.771,80.812,33.255ZM25.252,40.493h0.085a5.483,5.483,0,0,0,.517,1.595c0.357,1.007.593,2.012,0.948,2.973,0.125,0.335.249,1.3,0.56,1.379a10.291,10.291,0,0,1,1.982-.732c0.519-.2,1.12-0.492,1.637-0.69,0.314-.12.554-0.124,0.862-0.258a5.8,5.8,0,0,1,1.336-.517v0.085A5,5,0,0,0,32.4,45.49c-0.614.934-1.229,1.866-1.851,2.805a4.014,4.014,0,0,0-.819,1.25c1.872,0.883,3.487,2.228,5.343,3.145v0.085H34.6a9.166,9.166,0,0,1-1.982.169c-0.339.075-.866,0.1-1.207,0.169H30.725a9.277,9.277,0,0,1-1.853.169,0.676,0.676,0,0,0-.043.215,8.417,8.417,0,0,1,.215,1.68c0.05,0.19.125,0.568,0.169,0.775v0.474a20.878,20.878,0,0,1,.474,3.1H29.6a9.009,9.009,0,0,0-1.25-1.293c-0.646-.647-1.25-1.335-1.9-1.982a7.488,7.488,0,0,0-1.207-1.25,6.322,6.322,0,0,1-.862.862c-0.485.492-.913,1.041-1.379,1.551-0.26.284-.63,0.508-0.862,0.819a7.1,7.1,0,0,1-1.293,1.336,18.906,18.906,0,0,1,.345-2.111v-0.42c0.091-.393.06-0.841,0.169-1.293a12.255,12.255,0,0,0,.345-2.413,2.126,2.126,0,0,0-.6-0.043,9,9,0,0,0-1.982-.17c-0.332-.074-0.874-0.1-1.207-0.169H17.237a8.643,8.643,0,0,0-1.723-.169V52.694h0.043a8.443,8.443,0,0,1,1.335-.775c0.8-.5,1.632-1.092,2.457-1.551a9.95,9.95,0,0,0,1.465-.862,6.135,6.135,0,0,0-.862-1.293c-0.593-.891-1.138-1.745-1.68-2.672a7.612,7.612,0,0,1-.862-1.293H17.54a9.644,9.644,0,0,0,2.068.775c0.781,0.35,1.64.593,2.457,0.948a4.877,4.877,0,0,0,1.25.474V46.4h0.043a2.625,2.625,0,0,1,.258-0.733c0.075-.184.011-0.3,0.085-0.474,0.184-.424.354-0.985,0.517-1.422C24.623,42.685,24.782,41.528,25.252,40.493Zm53.071,8.854v0.142a2.845,2.845,0,0,0-.5.745,5.974,5.974,0,0,0-.779,1.17h0.036a1.56,1.56,0,0,0,.5.284,9.707,9.707,0,0,0,1.524.922V52.68H78.568a12.209,12.209,0,0,1-1.878.213v0.248a1.438,1.438,0,0,1,.071.461,9.639,9.639,0,0,1,.248,1.7H76.943V55.271c-0.423-.408-0.836-0.851-1.241-1.276a0.727,0.727,0,0,0-.421-0.392,2.671,2.671,0,0,0-.779.815l-0.6.567a1.105,1.105,0,0,1-.319.319c0.089-.788.252-1.59,0.319-2.408H73.824a3.226,3.226,0,0,0-.851-0.07,6.944,6.944,0,0,0-1.453-.142V52.612c0.474-.26.932-0.57,1.382-0.851a1.326,1.326,0,0,0,.638-0.425,8.065,8.065,0,0,1-.851-1.312,3.626,3.626,0,0,1-.461-0.673h0.142a10.716,10.716,0,0,0,1.524.639,2.143,2.143,0,0,0,.6.178,1.968,1.968,0,0,0,.284-0.815c0.152-.44.3-0.989,0.5-1.418h0.07a4.2,4.2,0,0,0,.284.851,12.648,12.648,0,0,0,.461,1.418c0.507-.216,1.033-0.337,1.56-0.567a3.324,3.324,0,0,1,.673-0.285Z"/>
  <path class="cls-2" d="M49.992,32.989H42.135L30,24.436v8.554H20V24.663L8.222,32.989H0v-4.2l10.981-7.769L0,21V12l12.528-.032L0,3.3V0H9.536L20,7.371V0H30V7.58L40.714,0h9.277V3.452L37.666,11.968,50,12v9l-10.855.022,10.846,7.484v4.484Z"/>
  <path class="cls-3" d="M49.992,18.994L28,19V33H22V19L0,18.994V14l22,0V0h6V14l21.992,0v5Zm-4.843,14L30,22.274,30,21l3.729,0.022,16.263,11.3v0.666H45.149ZM30.11,12L30,11,45.546,0h4.446V0.948L34.011,12.025ZM20,12l-4.181-.032L0,1.062V0H4.284L20,11.112Zm0,9,0,1.159L4.681,32.989H0V32.208L16.158,21.022Z"/>
</svg>
