<svg xmlns="http://www.w3.org/2000/svg" width="100" height="100" viewBox="0 0 100 100">
  <metadata><?xpacket begin="﻿" id="W5M0MpCehiHzreSzNTczkc9d"?>
<x:xmpmeta xmlns:x="adobe:ns:meta/" x:xmptk="Adobe XMP Core 5.6-c138 79.159824, 2016/09/14-01:09:01        ">
   <rdf:RDF xmlns:rdf="http://www.w3.org/1999/02/22-rdf-syntax-ns#">
      <rdf:Description rdf:about=""/>
   </rdf:RDF>
</x:xmpmeta>
                                                                                                    
                                                                                                    
                                                                                                    
                                                                                                    
                                                                                                    
                                                                                                    
                                                                                                    
                                                                                                    
                                                                                                    
                                                                                                    
                                                                                                    
                                                                                                    
                                                                                                    
                                                                                                    
                                                                                                    
                                                                                                    
                                                                                                    
                                                                                                    
                                                                                                    
                                                                                                    
                           
<?xpacket end="w"?></metadata>
<defs>
    <style>
      .cls-1 {
        fill: #fff;
        fill-rule: evenodd;
      }
    </style>
  </defs>
  <path class="cls-1" d="M84.991,49.656a34.6,34.6,0,0,0-19.183-29.33,17.221,17.221,0,0,0,1.926-7.93c0-.032,0-0.063,0-0.094A42.685,42.685,0,0,1,93.11,51.325q0,0.559-.014,1.114A17.2,17.2,0,0,0,84.991,49.656ZM50.433,24.8a12.4,12.4,0,1,1,12.4-12.4A12.4,12.4,0,0,1,50.433,24.8ZM15.877,49.609a17.2,17.2,0,0,0-8.114,2.3c0-.2-0.007-0.39-0.007-0.586A42.685,42.685,0,0,1,33.133,12.3c0,0.031,0,.063,0,0.094a17.221,17.221,0,0,0,1.926,7.93A34.6,34.6,0,0,0,15.877,49.609ZM28.805,66.9a12.4,12.4,0,1,1-12.4-12.4A12.4,12.4,0,0,1,28.805,66.9Zm0.343,11.7a34.582,34.582,0,0,0,42.074.389,17.293,17.293,0,0,0,7.311,4.458A42.67,42.67,0,0,1,22.1,83.236,17.315,17.315,0,0,0,29.148,78.6ZM71.195,66.9a12.4,12.4,0,1,1,12.4,12.4A12.4,12.4,0,0,1,71.195,66.9Z"/>
</svg>
