<svg xmlns="http://www.w3.org/2000/svg" width="40" height="40" viewBox="0 0 40 40">
  <defs>
    <style>
      .cls-1 {
        fill: #fff;
        fill-rule: evenodd;
      }
    </style>
  </defs>
  <path id="Color_Fill_1" data-name="Color Fill 1" class="cls-1" d="M20.172,5.426h0.172a0.9,0.9,0,0,1,.043.3,0.263,0.263,0,0,0-.086.085c0.88,0.25,2.157.086,3.147,0.3a3.264,3.264,0,0,1,.776.043c-1.262-.007-2.577.145-3.793,0.17-0.039.1-.046,0.068-0.086,0.17H21.81a1.087,1.087,0,0,1,.56.468,1.8,1.8,0,0,1,.086,1.064,15.706,15.706,0,0,1-.431,2.383,5.828,5.828,0,0,1,1.465.383c0.456,0.147.952,0.238,1.379,0.341l0.345-.043,0.043,0.128a5.3,5.3,0,0,0,.991.255c0.594,0.167,1.128.173,1.724,0.34,2,0.563,4.122.834,6.164,1.4,0.9,0.251,1.858.376,2.8,0.638a7.994,7.994,0,0,0,1.121.3,2.648,2.648,0,0,0,.345-0.085v0.17a1.553,1.553,0,0,1,1.379.6,1.381,1.381,0,0,1,.129,1.064,4.5,4.5,0,0,1-1.422,1.957H23.578a1.521,1.521,0,0,0-.776,0,5.864,5.864,0,0,0-.431.425,7.1,7.1,0,0,0-.345.894,9.72,9.72,0,0,0-.517,1.149q-0.021.6-.043,1.192c-0.157.7-.1,1.55-0.259,2.255v0.511l-0.474,4.936h0.086a5.1,5.1,0,0,0,1.422.383c1.037,0.31,2.244.532,3.276,0.809a2.093,2.093,0,0,1,.259.383c0.419,1.149-1.011,1.323-1.767,1.532-0.729.2-1.568,0.367-2.285,0.6-0.279.089-.641,0.089-0.776,0.17a1.651,1.651,0,0,0-.905.511v1.021A0.78,0.78,0,0,0,20,35H19.914V34.7c-0.149-.243.066-0.822-0.086-1.064-0.233-.606-1.154-0.57-1.81-0.766s-1.44-.368-2.112-0.553a4.5,4.5,0,0,1-1.422-.425,3.3,3.3,0,0,1-.345-0.468,1.381,1.381,0,0,1,.086-0.851,2.467,2.467,0,0,1,1.379-.468c1.172-.322,2.425-0.626,3.578-0.894l-0.474-4.851V23.851c-0.159-.707-0.1-1.554-0.259-2.255q-0.022-.638-0.043-1.277a9.755,9.755,0,0,0-1.164-2.383,2.54,2.54,0,0,0-1.293-.085H1.422c-0.166-.237-0.472-0.367-0.647-0.6a2.375,2.375,0,0,1-.647-2.511,2.573,2.573,0,0,1,1.336-.511v-0.17a13.68,13.68,0,0,0,3.75-.723c0.651-.183,1.246-0.2,1.9-0.383,1.528-.429,3.168-0.762,4.741-1.106V9.766A5.672,5.672,0,0,0,11.9,8.277H11.94V8.319a2.46,2.46,0,0,1,0,1.149l0.043,0.468v1.872l2.672-.6,0.043-.128,0.345,0.043c0.427-.1.917-0.257,1.336-0.383a5.052,5.052,0,0,0,1.509-.426A2.376,2.376,0,0,1,17.716,9.6c-0.208-.743-0.622-2.512.086-2.979,0.28-.185,1.636-0.028,1.767-0.213a0.74,0.74,0,0,0-.345-0.085,16.521,16.521,0,0,0-2.543-.17,3.011,3.011,0,0,1-.948-0.043,23.3,23.3,0,0,0,3.922-.3c0-.314.077-0.379,0.086-0.681A0.464,0.464,0,0,1,20.043,5a0.769,0.769,0,0,0,.129.17V5.426Z"/>
</svg>
