<svg xmlns="http://www.w3.org/2000/svg" width="39.969" height="40" viewBox="0 0 39.969 40">
  <defs>
    <style>
      .cls-1 {
        fill: #fff;
        fill-rule: evenodd;
      }
    </style>
  </defs>
  <path id="Color_Fill_1" data-name="Color Fill 1" class="cls-1" d="M19.9,7h0.145V7.246a1.269,1.269,0,0,0,.726.491,2.838,2.838,0,0,1,1.065-.049c0.96,0,1.895.147,2.76,0.2V7.934H24.552a3.007,3.007,0,0,1-.92.147,6.614,6.614,0,0,1-3,.1V8.327a1.141,1.141,0,0,0-.533.049h0.581a3.065,3.065,0,0,1,.484.59V9.261a5.525,5.525,0,0,1,.049,1.868c1.062,0.268,1.948,1.092,2.954,1.425h1.4l0.1-.885a0.588,0.588,0,0,1,.387-0.2,1.979,1.979,0,0,1,.291,1.13c0.592,0,1.119.046,1.743,0.049a9.089,9.089,0,0,1,1.695.049c0.652,0.149,1.489-.086,2.082.049,0.668,0.152,1.523-.09,2.131.049h1.162a10.875,10.875,0,0,1,2.47.2c0.888,0.228,2.72.643,2.276,1.917a4.565,4.565,0,0,1-3,2.605l-0.872.049c-1.289.291-2.865,0-4.165,0.295H30.993c-0.8.181-1.813,0.013-2.615,0.2h-0.92a5.625,5.625,0,0,1-1.695.1,7.5,7.5,0,0,1-1.55-.835c-0.5-.266-2.649-0.264-2.857.2V18.01a3.82,3.82,0,0,0-.048,1.032c-0.091.611,0.04,1.378-.1,2.015-0.191.888-.041,1.924-0.242,2.851l-0.436,3.785a5.624,5.624,0,0,1,1.5.393c0.709,0.242,1.457.325,2.131,0.541,0.79,0.252,1.386.142,1.6,0.983a0.851,0.851,0,0,1-.145.59,1.543,1.543,0,0,1-.145.442c-0.484.646-2.207,0.6-3.148,0.836a3.755,3.755,0,0,1-1.55.2c-0.074-.123-0.228-0.223-0.29-0.344a1.234,1.234,0,0,0-.291-0.688V30.592H20.145v0.147h0.048V30.69c0.038-.095.048,0.1,0.048,0.1A6.067,6.067,0,0,0,20,33a0.178,0.178,0,0,1-.048-0.1c-0.119-.064-0.033.021-0.1-0.1,0.128-.014.1-0.041,0.1-0.295a9.406,9.406,0,0,1-.049-1.081,1.45,1.45,0,0,1-.145-0.835H19.709v0.049H19.661a2.239,2.239,0,0,1-.484.983,3.577,3.577,0,0,1-1.84-.2c-1.6-.415-3.627-0.041-3-2.31,1.4-.846,3.508-0.814,5.085-1.474-0.251-.791-0.1-1.688-0.291-2.556-0.135-.617-0.045-1.33-0.194-2.015a20.6,20.6,0,0,1-.29-3.981H18.45v-0.1a0.324,0.324,0,0,1,0-.295h0.194l-0.1-1.229-0.339-.246a7.111,7.111,0,0,0-2.276,0,15.427,15.427,0,0,1-1.792.934,5.64,5.64,0,0,1-1.695-.1h-0.92c-0.518-.114-1.225-0.034-1.743-0.147l-1.743-.049c-1.667-.368-3.892.073-5.424-0.442A4.213,4.213,0,0,1,.969,16.24,2.523,2.523,0,0,1,0,14.323,3.234,3.234,0,0,1,.969,13.34c0.9-.477,1.934-0.282,3.051-0.541H5.908c0.593-.134,1.43.1,2.082-0.049,0.593-.135,1.43.1,2.082-0.049a8.832,8.832,0,0,1,1.646-.049c0.677,0,1.245-.05,1.889-0.049a1.083,1.083,0,0,1,.291-1.081,0.249,0.249,0,0,1,.242,0,1.885,1.885,0,0,1,.194,1.032c1.856,0.057,2.163-.455,3.341-0.983,0.345-.154.982-0.228,1.017-0.688a3.118,3.118,0,0,1,0-.983c-0.076-.844.149-1.556,1.162-1.524V8.327H19.274c-0.005-.186.048-0.135-0.194-0.147-0.466.312-2.579,0.026-3.051-.1a1.905,1.905,0,0,1-.678-0.147H15.4a4.628,4.628,0,0,1,1.356-.147,10.576,10.576,0,0,1,2.712-.049A0.684,0.684,0,0,1,19.9,7.246V7Zm-1.211,5.456a1.876,1.876,0,0,0-.1-0.934C18.071,12,17.158,12.046,16.61,12.5Zm2.615-.934a5.014,5.014,0,0,0-.1.885h0.048v0.049a6.732,6.732,0,0,0,2.034,0A9.081,9.081,0,0,1,21.308,11.522ZM20.048,32.754a0.178,0.178,0,0,1,.049.1H20.048v-0.1Z"/>
</svg>
