<svg xmlns="http://www.w3.org/2000/svg" width="40" height="40" viewBox="0 0 40 40">
  <defs>
    <style>
      .cls-1 {
        fill: #fff;
        fill-rule: evenodd;
      }
    </style>
  </defs>
  <path id="Color_Fill_1" data-name="Color Fill 1" class="cls-1" d="M21.336,14.28h2.446a7.545,7.545,0,0,1,.151-1.752L24.2,12.3l1.016-.037V12.155a20.858,20.858,0,0,0-3.2-.075V12.006a0.107,0.107,0,0,0,.038-0.037,28.652,28.652,0,0,1,2.935-.112,0.642,0.642,0,0,0,.15-0.522,0.536,0.536,0,0,1,.339-0.112,0.561,0.561,0,0,1,.15.522A8.614,8.614,0,0,0,28,11.857a1.7,1.7,0,0,0,.715.075v0.075H28.674a2.027,2.027,0,0,1-.978.112l-1.957-.075a0.208,0.208,0,0,1-.188.112v0.112a3.008,3.008,0,0,1,1.016.075,0.378,0.378,0,0,1,.263.261,4.25,4.25,0,0,1,.151,1.714H38.269a3.643,3.643,0,0,1,1.016.037,1.53,1.53,0,0,1,.6.522,1.691,1.691,0,0,1,.038.82c-0.038.089-.189,0.1-0.226,0.186l-0.038.373c-0.522.908-1.836,0.987-2.935,1.342-2.339.755-4.979,1.212-7.225,1.938-0.706.228-1.436,0.342-2.107,0.559a1.739,1.739,0,0,0-.941.373,2.342,2.342,0,0,0-.113.447,3.88,3.88,0,0,1-.828,1.565,0.411,0.411,0,0,1-.226.037,3.935,3.935,0,0,1-.715-1.118,0.855,0.855,0,0,0-.226-0.522,2.1,2.1,0,0,0-.828.186,7.98,7.98,0,0,0-1.656.41,3.817,3.817,0,0,0-.489.6,13.812,13.812,0,0,1,0,2.758v1.081A19.141,19.141,0,0,0,21,29.6h0.075a6.831,6.831,0,0,0,1.543.373c0.813,0.229,1.721.428,2.521,0.671,0.692,0.21,1.482.26,1.693,0.932,0.25,0.795-.581,1.137-0.978,1.342-1.362.7-3.784,0.626-5.532,0.82a3.113,3.113,0,0,1-.3,1.267H19.981V34.963a2.4,2.4,0,0,1-.3-1.23c-1.658-.157-4.169-0.119-5.456-0.783a1.337,1.337,0,0,1-1.054-1.379,3.338,3.338,0,0,1,.3-0.447,5.207,5.207,0,0,1,1.543-.522c1.26-.4,2.669-0.712,3.989-1.006V29.037a11.113,11.113,0,0,1-.151-1.6,17.058,17.058,0,0,1-.226-3.652V22.068c-0.2-.594-0.755-0.635-1.392-0.82-0.377-.11-0.83-0.217-1.2-0.335a0.945,0.945,0,0,0-.376-0.037,1.819,1.819,0,0,0-.3.708c-0.138.313-.372,0.6-0.527,0.894-0.843.088-1.016-1.384-1.279-2.05A30.255,30.255,0,0,0,10.2,19.46C7.959,18.735,5.52,18.319,3.274,17.6c-1.094-.352-2.418-0.436-2.935-1.342L0.3,15.882A0.6,0.6,0,0,0,.113,15.77a1.523,1.523,0,0,1,.075-1.044,2.388,2.388,0,0,1,.527-0.373,3.966,3.966,0,0,1,1.091-.037H13.02a9.187,9.187,0,0,1,.15-1.789l0.263-.224,1.016-.037V12.155a18.859,18.859,0,0,0-3.2-.075V12.006a0.107,0.107,0,0,0,.038-0.037,28.653,28.653,0,0,1,2.935-.112,0.579,0.579,0,0,0,.15-0.484,0.133,0.133,0,0,0,.038-0.075l0.113-.037c0.293-.2.362,0.207,0.339,0.484a8.614,8.614,0,0,0,2.371.112,1.7,1.7,0,0,0,.715.075v0.075H17.912a2.027,2.027,0,0,1-.978.112l-1.957-.075a0.208,0.208,0,0,1-.188.112v0.112a3.008,3.008,0,0,1,1.016.075,0.315,0.315,0,0,1,.226.186,3.969,3.969,0,0,1,.188,1.752h2.446V12.006a6.709,6.709,0,0,1,.038-1.23c0.121-.551-0.073-1.247.038-1.752V8.391c0.1-.462.053-1.078,0.188-1.491,0.188-.573.224-1.6,0.752-1.789a0.823,0.823,0,0,1,.527-0.075,2.51,2.51,0,0,1,.451.373c0.169,0.281.309,1.067,0.489,1.565V7.422c0.061,0.261.034,0.668,0.113,0.932V8.988c0.112,0.479-.085,1.153.038,1.677a6.346,6.346,0,0,1,.038,1.23V14.28Z"/>
</svg>
