<svg xmlns="http://www.w3.org/2000/svg" width="100" height="100" viewBox="0 0 100 100">
  <defs>
    <style>
      .cls-1 {
        fill: #3f84c5;
        fill-rule: evenodd;
      }
    </style>
  </defs>
  <path id="dead" class="cls-1" d="M86.758,32.435h-0.04L60.576,73.164a2.2,2.2,0,0,1-1.85,1.011H58.014A2.009,2.009,0,0,1,56,72.166V39.027c-1.457-1.757-4.579-1.911-5.5-1.917v0l-0.142,0-0.124,0v0c-0.983,0-4.5.126-6.243,1.751V72.166a2.009,2.009,0,0,1-2.009,2.009H41.274a2.2,2.2,0,0,1-1.85-1.011L13.322,32.5H13.254a22,22,0,0,1-.241-3.149C13.013,13.7,29.573,1.01,50,1.01S86.987,13.7,86.987,29.347A22.014,22.014,0,0,1,86.758,32.435Zm-6.48,3.921s0.064-3.326-2.738-3.086c-2.071.178-3.892,2.187-5.087,3.908L64.307,61.24ZM59.927,62.588l8.344-24.647a4.679,4.679,0,0,0-4.562-1.774,4.945,4.945,0,0,0-3.782,2.285V62.588Zm-19.854,0V38.836a5.038,5.038,0,0,0-4.023-2.668,4.755,4.755,0,0,0-4.4,1.556ZM35.694,61.24L27.8,37.93c-1.148-1.826-3.2-4.456-5.582-4.66-2.263-.194-2.65,1.915-2.718,2.743Zm9.26,13.771h1.2a4.643,4.643,0,1,1,7.7,0h1.2a3.943,3.943,0,0,1,3.938,3.947v5.1A3.942,3.942,0,0,1,55.046,88H55.011v6.234a4.625,4.625,0,0,1-4.483,4.755H49.473a4.625,4.625,0,0,1-4.483-4.755V88H44.954a3.943,3.943,0,0,1-3.938-3.947v-5.1A3.943,3.943,0,0,1,44.954,75.011Z"/>
</svg>
