<?xml version="1.0" encoding="UTF-8"?>
<svg id="Layer_1" data-name="Layer 1" xmlns="http://www.w3.org/2000/svg" width="27" height="15" viewBox="0 0 27 15">
  <defs>
    <style>
      .cls-1 {
        fill: #fdfcff;
      }

      .cls-1, .cls-2 {
        fill-rule: evenodd;
      }

      .cls-2 {
        opacity: .4;
      }
    </style>
  </defs>
  <path class="cls-2" d="M13.5,15c-.16,0-.32-.04-.46-.11L.54,8.39c-.33-.17-.54-.51-.54-.89s.21-.71.54-.89L13.04.11c.14-.08.3-.11.46-.11s.32.04.46.11l12.5,6.5c.33.17.54.51.54.89s-.21.71-.54.89l-12.5,6.5c-.14.08-.3.11-.46.11Z"/>
  <polygon class="cls-1" points="13.5 1 26 7.5 13.5 14 1 7.5 13.5 1"/>
</svg>