<?xml version="1.0" encoding="UTF-8"?>
<svg id="Layer_1" data-name="Layer 1" xmlns="http://www.w3.org/2000/svg" width="22" height="17" viewBox="0 0 22 17">
  <defs>
    <style>
      .cls-1 {
        fill: #fdfcff;
      }

      .cls-2 {
        opacity: .5;
      }

      .cls-3 {
        fill-rule: evenodd;
      }
    </style>
  </defs>
  <rect class="cls-2" width="22" height="17"/>
  <rect class="cls-1" x="1" y="1" width="20" height="15"/>
  <path class="cls-3" d="M12.5,10.5c0,.83-.67,1.5-1.5,1.5s-1.5-.67-1.5-1.5.67-1.5,1.5-1.5,1.5.67,1.5,1.5"/>
  <polygon class="cls-3" points="8.34 7.6 7.79 7.02 11 4 14.21 7.02 13.66 7.6 11 5.1 8.34 7.6"/>
  <path class="cls-3" d="M16.96,5.31c-.66-.84-1.54-1.31-2.47-1.31h-6.98c-.93,0-1.81.47-2.47,1.31-.65.84-1.02,1.98-1.02,3.17s.37,2.33,1.02,3.17c.65.84,1.54,1.31,2.47,1.31h6.98c.93,0,1.81-.47,2.47-1.31.65-.84,1.02-1.98,1.02-3.17s-.37-2.33-1.02-3.17M16.26,10.95c-.45.65-1.06,1.02-1.69,1.02h-7.19c-.63,0-1.24-.37-1.69-1.02-.45-.65-.7-1.54-.7-2.47s.25-1.81.7-2.47c.45-.65,1.06-1.02,1.69-1.02h7.19c.63,0,1.24.37,1.69,1.02.45.65.7,1.54.7,2.47s-.25,1.81-.7,2.47"/>
  <polygon class="cls-3" points="8.34 9.6 7.79 9.02 11 6 14.21 9.02 13.66 9.6 11 7.1 8.34 9.6"/>
</svg>