<?xml version="1.0" encoding="UTF-8"?>
<svg id="Layer_1" data-name="Layer 1" xmlns="http://www.w3.org/2000/svg" width="20" height="20" viewBox="0 0 20 20">
  <defs>
    <style>
      .cls-1 {
        fill: #fdfcff;
      }

      .cls-2 {
        opacity: .5;
      }
    </style>
  </defs>
  <rect class="cls-2" width="20" height="20"/>
  <rect class="cls-1" x="1" y="1" width="18" height="18" transform="translate(20) rotate(90)"/>
  <g>
    <path d="M5.44,10.93h-1.55l-.42,1.04h-.57l1.63-3.99h.29l1.63,3.99h-.6l-.43-1.04ZM4.06,10.47h1.22l-.45-1.12-.15-.6h-.01l-.15.61-.45,1.11Z"/>
    <path d="M7.01,8.04h2.4v.49h-1.83v1.07c.07-.01.15-.02.25-.03.1-.01.2-.02.3-.02.21,0,.41.02.6.06s.36.1.5.19.26.21.35.36c.09.15.13.34.13.56s-.04.42-.13.58-.21.3-.35.4c-.15.11-.32.19-.51.24-.2.05-.4.08-.62.08-.07,0-.15,0-.24,0-.09,0-.19,0-.29-.01-.1,0-.2-.02-.29-.03-.1-.01-.18-.03-.26-.04v-3.89ZM8.16,11.52c.13,0,.25-.01.36-.04.12-.03.22-.08.3-.14s.16-.14.21-.23.08-.2.08-.33c0-.16-.03-.29-.08-.39-.06-.1-.13-.17-.23-.23-.1-.05-.21-.09-.33-.1-.13-.02-.26-.03-.39-.03-.04,0-.08,0-.13,0s-.1,0-.14.01-.09,0-.13.02c-.04,0-.07.01-.09.02v1.4s.06.01.11.02c.05,0,.09,0,.15.01s.11,0,.16,0h.16Z"/>
    <path d="M13.28,8.53h-1.33v3.44h-.57v-3.44h-1.33v-.49h3.23v.49Z"/>
    <path d="M16.53,9.37l.03-.43h-.02l-.27.44-2.03,2.59h-.35v-3.93h.57v2.62l-.05.43h.03l.28-.44,2.02-2.6h.35v3.93h-.57v-2.6Z"/>
  </g>
</svg>