<?xml version="1.0" encoding="UTF-8"?>
<svg id="Layer_1" data-name="Layer 1" xmlns="http://www.w3.org/2000/svg" width="35" height="15" viewBox="0 0 35 15">
  <defs>
    <style>
      .cls-1 {
        fill: #fdfcff;
      }

      .cls-1, .cls-2, .cls-3 {
        fill-rule: evenodd;
      }

      .cls-3 {
        opacity: .5;
      }
    </style>
  </defs>
  <path class="cls-3" d="M13.5,15c-.16,0-.32-.04-.46-.11L.54,8.39c-.33-.17-.54-.51-.54-.89s.21-.71.54-.89L13.04.11c.14-.08.3-.11.46-.11h21.5v15H13.5Z"/>
  <polygon class="cls-1" points="13.5 1 34 1 34 14 13.5 14 1 7.5 13.5 1"/>
  <rect x="30" y="1" width="4" height="13"/>
  <rect x="24" y="1" width="4" height="13"/>
  <path class="cls-2" d="M20.92,7.5l2.54,2.54-.92.92-2.77-2.77h0s-8.85,0-8.85,0v2.32l-5.77-3,5.77-3v2.32h8.85,0s2.77-2.78,2.77-2.78l.92.92-2.54,2.54Z"/>
</svg>