<?xml version="1.0" encoding="UTF-8"?>
<svg id="Layer_1" data-name="Layer 1" xmlns="http://www.w3.org/2000/svg" width="24" height="24" viewBox="0 0 24 24">
  <defs>
    <style>
      .cls-1 {
        fill: #fdfcff;
      }

      .cls-2 {
        opacity: .5;
      }
    </style>
  </defs>
  <rect class="cls-2" x="3.87" y="3.87" width="16.26" height="16.26" transform="translate(-4.97 12) rotate(-45)"/>
  <rect class="cls-1" x="5" y="5" width="14" height="14" transform="translate(-4.97 12) rotate(-45)"/>
  <g>
    <path d="M7.27,8.48v7.62h-1.08v-7.62h1.08ZM8.12,16.1h-1.45v-.82h1.45c.51,0,.93-.09,1.25-.26s.56-.44.71-.79c.15-.35.23-.78.23-1.29v-1.3c0-.41-.04-.75-.13-1.05s-.21-.53-.39-.72c-.17-.19-.39-.33-.65-.42-.26-.09-.57-.14-.92-.14h-1.58v-.83h1.58c.48,0,.91.07,1.3.2.39.13.72.33,1,.6s.49.6.64.99c.15.39.22.85.22,1.37v1.29c0,.52-.07.98-.22,1.37-.15.39-.36.72-.64.99-.28.27-.62.46-1.02.6-.4.13-.86.2-1.37.2Z"/>
    <path d="M13.88,8.48v7.62h-1.08v-7.62h1.08ZM14.73,16.1h-1.45v-.82h1.45c.51,0,.93-.09,1.25-.26s.56-.44.71-.79c.15-.35.23-.78.23-1.29v-1.3c0-.41-.04-.75-.13-1.05s-.21-.53-.39-.72c-.17-.19-.39-.33-.65-.42-.26-.09-.57-.14-.92-.14h-1.58v-.83h1.58c.48,0,.91.07,1.3.2.39.13.72.33,1,.6s.49.6.64.99c.15.39.22.85.22,1.37v1.29c0,.52-.07.98-.22,1.37-.15.39-.36.72-.64.99-.28.27-.62.46-1.02.6-.4.13-.86.2-1.37.2Z"/>
  </g>
</svg>