<?xml version="1.0" encoding="UTF-8"?>
<svg id="Layer_1" data-name="Layer 1" xmlns="http://www.w3.org/2000/svg" width="24" height="24" viewBox="0 0 24 24">
  <defs>
    <style>
      .cls-1 {
        fill: #fdfcff;
      }

      .cls-2 {
        opacity: .5;
      }

      .cls-3 {
        fill-rule: evenodd;
      }
    </style>
  </defs>
  <rect class="cls-2" x="3.87" y="3.87" width="16.26" height="16.26" transform="translate(-4.97 12) rotate(-45)"/>
  <rect class="cls-1" x="5" y="5" width="14" height="14" transform="translate(-4.97 12) rotate(-45)"/>
  <path class="cls-3" d="M9.86,16v-4.99c0-.55.23-1.07.63-1.46.4-.39.95-.61,1.52-.61s1.11.22,1.52.61c.4.39.63.91.63,1.46v4.99h.86v-4.94c0-.81-.32-1.59-.88-2.16-.56-.57-1.33-.9-2.12-.9s-1.56.32-2.12.9-.88,1.35-.88,2.16v4.94h.86Z"/>
  <rect x="8" y="15" width="8" height="1"/>
</svg>