<?xml version="1.0" encoding="UTF-8"?>
<svg id="Layer_1" data-name="Layer 1" xmlns="http://www.w3.org/2000/svg" width="11" height="11" viewBox="0 0 11 11">
  <defs>
    <style>
      .cls-1 {
        fill: #fff;
      }

      .cls-1, .cls-2 {
        fill-rule: evenodd;
      }

      .cls-2 {
        opacity: .25;
      }
    </style>
  </defs>
  <polygon class="cls-2" points="5.88 8 5.12 8 3.38 9.74 1.26 7.62 3 5.88 3 5.12 1.26 3.38 3.38 1.26 5.12 3 5.88 3 7.62 1.26 9.74 3.38 8 5.12 8 5.88 9.74 7.62 7.62 9.74 5.88 8"/>
  <polygon class="cls-1" points="7 4.71 8.33 3.38 7.62 2.67 6.29 4 4.71 4 3.38 2.67 2.67 3.38 4 4.71 4 6.29 2.67 7.62 3.38 8.33 4.71 7 6.29 7 7.62 8.33 8.33 7.62 7 6.29 7 4.71"/>
</svg>