<?xml version="1.0" encoding="UTF-8"?>
<svg id="Layer_1" data-name="Layer 1" xmlns="http://www.w3.org/2000/svg" width="30" height="15" viewBox="0 0 30 15">
  <defs>
    <style>
      .cls-1 {
        fill: #fdfcff;
      }

      .cls-1, .cls-2, .cls-3 {
        fill-rule: evenodd;
      }

      .cls-3 {
        opacity: .4;
      }
    </style>
  </defs>
  <path class="cls-3" d="M30,7.5c0,.37-.21.71-.54.89l-12.5,6.5c-.14.08-.3.11-.46.11s-.32-.04-.46-.11l-11.37-5.91c-.2.62-.52,1.2-.97,1.68-.68.73-1.6,1.19-2.59,1.3l-1.11.12v-2.98l.85-.13c.26-.04.49-.17.67-.37.25-.28.39-.69.39-1.11s-.14-.82-.39-1.11c-.18-.21-.41-.33-.67-.37l-.85-.13v-2.98l1.11.12c.99.11,1.91.58,2.59,1.3.45.48.77,1.06.97,1.68L16.04.11c.14-.08.3-.11.46-.11s.32.04.46.11l12.5,6.5c.33.17.54.51.54.89Z"/>
  <path class="cls-1" d="M2.96,5.03c.61.66.95,1.55.95,2.47s-.34,1.82-.95,2.47c-.53.57-1.23.91-1.96.99v-1c.48-.07.93-.31,1.27-.7.41-.47.64-1.1.64-1.77s-.23-1.3-.64-1.77c-.35-.39-.79-.63-1.27-.7v-1c.74.08,1.43.42,1.96.99ZM16.5,1L4,7.5l12.5,6.5,12.5-6.5L16.5,1Z"/>
  <path class="cls-2" d="M13.06,4.77c0-.38.31-.68.68-.68h5.47c.38,0,.68.31.68.68s-.31.68-.68.68h-5.47c-.38,0-.68-.31-.68-.68ZM19.21,9.55h-5.47c-.38,0-.68.31-.68.68s.31.68.68.68h5.47c.38,0,.68-.31.68-.68s-.31-.68-.68-.68ZM23.32,6.82h-12.32v-1.32l-4,2,4,2v-1.32h12.32c.38,0,.68-.31.68-.68s-.31-.68-.68-.68Z"/>
</svg>