<svg xmlns="http://www.w3.org/2000/svg" style="isolation:isolate" width="100" height="100"><defs><clipPath id="a"><path d="M0 0H100V100H0z"/></clipPath></defs><g clip-path="url(#a)"><path d="M 90.077 76.316 L 73.684 76.316 L 73.684 23.684 L 90.077 23.684 C 92.65 23.684 94.737 25.771 94.737 28.344 L 94.737 71.656 C 94.737 74.229 92.65 76.316 90.077 76.316 Z M 65.789 76.316 L 34.211 76.316 L 34.211 23.684 L 65.789 23.684 L 65.789 76.316 Z M 5.263 71.656 L 5.263 28.344 C 5.263 25.771 7.35 23.684 9.923 23.684 L 26.316 23.684 L 26.316 76.316 L 9.923 76.316 C 7.35 76.316 5.263 74.229 5.263 71.656 Z" fill="none" vector-effect="non-scaling-stroke" stroke-width="4" stroke="#000" stroke-opacity="0.5" stroke-linecap="square" stroke-miterlimit="3"/><path d="M 90.077 76.316 L 73.684 76.316 L 73.684 23.684 L 90.077 23.684 C 92.65 23.684 94.737 25.771 94.737 28.344 L 94.737 71.656 C 94.737 74.229 92.65 76.316 90.077 76.316 Z M 65.789 76.316 L 34.211 76.316 L 34.211 23.684 L 65.789 23.684 L 65.789 76.316 Z M 5.263 71.656 L 5.263 28.344 C 5.263 25.771 7.35 23.684 9.923 23.684 L 26.316 23.684 L 26.316 76.316 L 9.923 76.316 C 7.35 76.316 5.263 74.229 5.263 71.656 Z" fill-rule="evenodd" fill="#FFF"/></g></svg>