<?xml version="1.0" encoding="UTF-8"?>
<svg id="Layer_1" data-name="Layer 1" xmlns="http://www.w3.org/2000/svg" width="22" height="27" xmlns:xlink="http://www.w3.org/1999/xlink" viewBox="0 0 22 27">
  <defs>
    <style>
      .cls-1 {
        fill: #ffffac;
      }

      .cls-1, .cls-2, .cls-3, .cls-4, .cls-5, .cls-6, .cls-7, .cls-8, .cls-9, .cls-10, .cls-11, .cls-12 {
        stroke-width: 0px;
      }

      .cls-2 {
        fill: #351003;
      }

      .cls-3 {
        fill: url(#linear-gradient);
      }

      .cls-4 {
        fill: #fefca6;
        isolation: isolate;
        opacity: .44;
      }

      .cls-4, .cls-6, .cls-10 {
        fill-rule: evenodd;
      }

      .cls-5 {
        fill: #f1360b;
      }

      .cls-6 {
        fill: #101010;
      }

      .cls-7 {
        fill: url(#linear-gradient-2);
      }

      .cls-8 {
        fill: url(#radial-gradient);
      }

      .cls-13 {
        opacity: .85;
      }

      .cls-9 {
        fill: #ffff98;
      }

      .cls-10 {
        fill: #fefeb1;
      }

      .cls-11 {
        fill: #5f3604;
      }

      .cls-12 {
        fill: #ffffa0;
      }
    </style>
    <linearGradient id="linear-gradient" x1="11" y1="1" x2="11" y2="26" gradientUnits="userSpaceOnUse">
      <stop offset=".09" stop-color="#fd6554"/>
      <stop offset="1" stop-color="#d74c40"/>
    </linearGradient>
    <linearGradient id="linear-gradient-2" x1="11" y1="28.48" x2="11" y2="1.17" gradientUnits="userSpaceOnUse">
      <stop offset="0" stop-color="#690001"/>
      <stop offset=".04" stop-color="#5c0001"/>
      <stop offset=".16" stop-color="#720503"/>
      <stop offset=".39" stop-color="#a91008"/>
      <stop offset=".65" stop-color="#f01f0e"/>
      <stop offset=".78" stop-color="#f12311"/>
      <stop offset=".89" stop-color="#f62e19"/>
      <stop offset="1" stop-color="#fd4127"/>
    </linearGradient>
    <radialGradient id="radial-gradient" cx="11.39" cy="285.97" fx="11.39" fy="285.97" r="9.16" gradientTransform="translate(0 404.67) scale(1 -1.38)" gradientUnits="userSpaceOnUse">
      <stop offset="0" stop-color="#ffffcb"/>
      <stop offset=".25" stop-color="#fbf28c"/>
      <stop offset=".36" stop-color="#faed73"/>
      <stop offset=".45" stop-color="#fbdf6d"/>
      <stop offset=".68" stop-color="#fcbf5f"/>
      <stop offset=".8" stop-color="#fdb35a"/>
      <stop offset=".98" stop-color="#ffd370"/>
    </radialGradient>
  </defs>
  <g id="discount_color_icon_up">
    <g id="label_red_up">
      <path class="cls-6" d="m10.94,4c-.52,0-.95.43-.95.95,0,.52.43.95.95.95s.95-.43.95-.95-.43-.95-.95-.95Zm8.89,23H2.18c-1.19,0-2.17-.98-2.17-2.17-.01-3.14,0-11.58.01-14.08,0-.77.31-1.5.85-2.04L8.51,1.03c1.37-1.37,3.63-1.37,5,0l7.64,7.67c.54.54.85,1.28.85,2.05v14.07c0,1.2-.98,2.18-2.17,2.18Z"/>
      <path class="cls-3" d="m11.03,2.5c-1.37,0-2.5,1.13-2.5,2.5s1.13,2.5,2.5,2.5,2.5-1.13,2.5-2.5-1.13-2.5-2.5-2.5Zm8.79,23.5H2.18c-.64,0-1.17-.53-1.18-1.17-.01-3.11,0-11.48.01-14.08,0-.5.2-.98.56-1.34L9.22,1.74c.98-.99,2.6-.99,3.58,0l7.64,7.67c.36.36.56.84.56,1.34v14.07c0,.65-.53,1.18-1.18,1.18Z"/>
      <path class="cls-7" d="m11,3c-1.1,0-2,.9-2,2s.9,2,2,2,2-.9,2-2-.9-2-2-2Zm8.82,22H2.18c-.1,0-.18-.08-.18-.17-.01-3.14,0-11.57.01-14.08,0-.24.09-.46.26-.63l7.65-7.67c.6-.6,1.58-.6,2.17,0l7.64,7.67c.17.17.26.4.26.64v14.07c0,.1-.08.18-.18.18Z"/>
    </g>
    <g id="timer_icon">
      <g>
        <circle class="cls-11" cx="11" cy="17" r="7"/>
        <circle class="cls-8" cx="11" cy="17" r="6.22"/>
        <path class="cls-4" d="m16.77,14.67c0,.11.02.22.02.33,0,3.19-2.59,5.78-5.78,5.78-3.19,0-5.78-2.59-5.78-5.78,0-.11.01-.22.02-.33-1.29,3.18.24,6.81,3.43,8.1,3.18,1.29,6.81-.24,8.1-3.43.61-1.5.61-3.18,0-4.68Z"/>
        <g class="cls-13">
          <path class="cls-12" d="m11,11.17c3.22,0,5.83,2.61,5.83,5.83s-2.61,5.83-5.83,5.83-5.83-2.61-5.83-5.83c0-3.22,2.61-5.83,5.83-5.83m0-.39c-3.44,0-6.22,2.79-6.22,6.22s2.79,6.22,6.22,6.22,6.22-2.79,6.22-6.22c0-3.44-2.79-6.22-6.22-6.22h0Z"/>
        </g>
        <path class="cls-10" d="m5.23,17.87c0-3.18,2.58-5.77,5.77-5.77s5.77,2.58,5.77,5.77c0,.94-.23,1.86-.66,2.69,1.97-2.82,1.28-6.7-1.54-8.66s-6.7-1.28-8.66,1.54c-1.49,2.14-1.49,4.98,0,7.12-.44-.83-.66-1.75-.66-2.68Z"/>
        <rect class="cls-5" x="10" y="12" width="2" height="6"/>
        <rect class="cls-5" x="10" y="19" width="2" height="2"/>
        <rect class="cls-2" x="10" y="12" width="2" height="1"/>
        <rect class="cls-2" x="10" y="19" width="2" height="1"/>
        <rect class="cls-9" x="10" y="21" width="2" height="1"/>
        <rect class="cls-1" x="10" y="18" width="2" height="1"/>
      </g>
    </g>
  </g>
</svg>