<svg xmlns="http://www.w3.org/2000/svg" xmlns:xlink="http://www.w3.org/1999/xlink" width="24" height="27" viewBox="0 0 24 27">
  <defs>
    <style>
      .cls-1 {
        fill: url(#linear-gradient);
      }

      .cls-2 {
        fill: url(#linear-gradient-2);
      }

      .cls-3 {
        fill: #101010;
      }

      .cls-4 {
        fill: url(#linear-gradient-3);
      }

      .cls-5 {
        fill: url(#radial-gradient);
      }

      .cls-6 {
        fill: none;
      }

      .cls-7 {
        fill: url(#linear-gradient-5);
      }

      .cls-8, .cls-9 {
        fill: #f8f8f4;
      }

      .cls-8 {
        opacity: 0.58;
      }
    </style>
    <linearGradient id="linear-gradient" x1="12" y1="0.5" x2="12" y2="31.36441" gradientTransform="matrix(1, 0, 0, -1, 0, 26.99402)" gradientUnits="userSpaceOnUse">
      <stop offset="0.00738" stop-color="#64726f"/>
      <stop offset="0.19622" stop-color="#64726f"/>
      <stop offset="0.2963" stop-color="#7a857f"/>
      <stop offset="0.50273" stop-color="#b1b7a9"/>
      <stop offset="0.65434" stop-color="#dddfcb"/>
      <stop offset="0.81388" stop-color="#e1e3cf"/>
      <stop offset="0.96457" stop-color="#eceed9"/>
      <stop offset="1" stop-color="#f0f2dd"/>
    </linearGradient>
    <linearGradient id="linear-gradient-2" x1="12" y1="26.49414" x2="12" y2="0.5" gradientTransform="matrix(1, 0, 0, -1, 0, 26.99402)" gradientUnits="userSpaceOnUse">
      <stop offset="0.08644" stop-color="#f9fae9"/>
      <stop offset="1" stop-color="#79857c"/>
    </linearGradient>
    <linearGradient id="linear-gradient-3" x1="12" y1="25" x2="12" y2="7" gradientUnits="userSpaceOnUse">
      <stop offset="0" stop-color="#79857c"/>
      <stop offset="0.91356" stop-color="#f9fae9"/>
    </linearGradient>
    <radialGradient id="radial-gradient" cx="12.02174" cy="23.34783" r="9.48963" gradientUnits="userSpaceOnUse">
      <stop offset="0.01374" stop-color="#fff"/>
      <stop offset="0.22674" stop-color="#fff" stop-opacity="0.76266"/>
      <stop offset="0.60954" stop-color="#fff" stop-opacity="0.35634"/>
      <stop offset="0.87547" stop-color="#fff" stop-opacity="0.09981"/>
      <stop offset="1" stop-color="#fff" stop-opacity="0"/>
    </radialGradient>
    <linearGradient id="linear-gradient-5" x1="12" y1="22" x2="12" y2="10" gradientUnits="userSpaceOnUse">
      <stop offset="0" stop-color="#79857c"/>
      <stop offset="0.71844" stop-color="#f9fae9"/>
      <stop offset="1" stop-color="#fff"/>
    </linearGradient>
  </defs>
  <g id="Layer_7" data-name="Layer 7">
    <path class="cls-1" d="M21.72559,26.494H2.27441A1.7763,1.7763,0,0,1,.5,24.7196L.50391,12.23914l.01367-.10938-.001-.04346a2.49849,2.49849,0,0,1,.73145-1.88281L10.209,1.24158a2.53328,2.53328,0,0,1,3.582,0L22.752,10.204a2.49669,2.49669,0,0,1,.73145,1.88232l.01465.15528.002,12.478A1.7763,1.7763,0,0,1,21.72559,26.494ZM12,3.51575A1.47827,1.47827,0,1,0,13.47827,4.994,1.47829,1.47829,0,0,0,12,3.51575Z"/>
    <path class="cls-2" d="M21.72559,24.994A.27461.27461,0,0,0,22,24.71985l-.002-12.40747L21.99,12.22717l-.00916-.09778.00355-.09814a1.00062,1.00062,0,0,0-.29322-.76672L12.731,2.30273a1.03355,1.03355,0,0,0-1.46131-.00061l-8.962,8.963a1.00192,1.00192,0,0,0-.292.76611l.00135.05408.00024.01062.00244.11035-.01367.1095-.00207.017L2,24.7196a.27466.27466,0,0,0,.27441.27442H21.72559m0,1.5H2.27441A1.7763,1.7763,0,0,1,.5,24.7196L.50391,12.23914l.01367-.10938-.001-.04346a2.49849,2.49849,0,0,1,.73145-1.88281L10.209,1.24158a2.53328,2.53328,0,0,1,3.582,0L22.752,10.204a2.49669,2.49669,0,0,1,.73145,1.88232l.01465.15528.002,12.478A1.7763,1.7763,0,0,1,21.72559,26.494Z"/>
    <path class="cls-3" d="M21.72571,25.994A1.27575,1.27575,0,0,0,23,24.71973V12.30322c-.00562-.04114-.01062-.08227-.01379-.124l-.00415-.05566.002-.05579a2.00744,2.00744,0,0,0-.58521-1.51062L13.43689,1.59521a2.032,2.032,0,0,0-2.87378,0L1.6012,10.55713A2.00744,2.00744,0,0,0,1.016,12.06775l.002.05579-.00415.05566c-.0028.03772-.0072.07507-.01379.124V24.71973A1.27575,1.27575,0,0,0,2.27429,25.994H21.72571m0,1H2.27429A2.27439,2.27439,0,0,1,0,24.71973V12.26831c0-.05627.01245-.109.0166-.16418A3.01441,3.01441,0,0,1,.894,9.85L9.856.88806a3.0322,3.0322,0,0,1,4.28808,0L23.106,9.85a3.01441,3.01441,0,0,1,.87744,2.25415c.00415.05517.0166.10791.0166.16418V24.71973A2.27439,2.27439,0,0,1,21.72571,26.994Z"/>
    <path class="cls-3" d="M12,10a6,6,0,1,1-6,6,6.00687,6.00687,0,0,1,6-6m0-2a8,8,0,1,0,8,8,7.99993,7.99993,0,0,0-8-8Z"/>
    <g>
      <path class="cls-4" d="M12,7a9,9,0,1,0,9,9A9,9,0,0,0,12,7Zm0,17a8,8,0,1,1,8-8A7.99993,7.99993,0,0,1,12,24Z"/>
      <path class="cls-4" d="M12,7a9,9,0,1,0,9,9,9,9,0,0,0-9-9Zm0,17a8,8,0,1,1,8-8,7.99993,7.99993,0,0,1-8,8Z"/>
    </g>
    <g>
      <path class="cls-5" d="M12,7a9,9,0,1,0,9,9A9,9,0,0,0,12,7Zm0,17a8,8,0,1,1,8-8A7.99993,7.99993,0,0,1,12,24Z"/>
      <path class="cls-5" d="M12,7a9,9,0,1,0,9,9,9,9,0,0,0-9-9Zm0,17a8,8,0,1,1,8-8,7.99993,7.99993,0,0,1-8,8Z"/>
    </g>
    <circle class="cls-6" cx="12" cy="16" r="6"/>
    <path class="cls-3" d="M12,4.05286A.94714.94714,0,1,1,11.05286,5,.94826.94826,0,0,1,12,4.05286M12,3a2,2,0,1,0,2,2,1.99995,1.99995,0,0,0-2-2Z"/>
    <path class="cls-7" d="M12,11a5,5,0,1,1-5,5,5.00573,5.00573,0,0,1,5-5m0-1a6,6,0,1,0,6,6,6,6,0,0,0-6-6Z"/>
    <path class="cls-8" d="M10,11h4a0,0,0,0,1,0,0v9.77989A1.22011,1.22011,0,0,1,12.77989,22H11.22011A1.22011,1.22011,0,0,1,10,20.77989V11A0,0,0,0,1,10,11Z"/>
    <rect class="cls-3" x="11" y="11" width="2" height="7"/>
    <rect class="cls-3" x="11" y="19" width="2" height="2"/>
    <rect class="cls-9" x="11" y="21" width="2" height="1"/>
    <rect class="cls-9" x="11" y="18" width="2" height="1"/>
  </g>
</svg>
