<?xml version="1.0" encoding="UTF-8"?>
<svg id="Layer_1" data-name="Layer 1" xmlns="http://www.w3.org/2000/svg" width="45" height="27" xmlns:xlink="http://www.w3.org/1999/xlink" viewBox="0 0 45 27">
  <defs>
    <style>
      .cls-1 {
        fill: url(#linear-gradient);
      }

      .cls-1, .cls-2, .cls-3 {
        stroke-width: 0px;
      }

      .cls-2 {
        fill: #101010;
        fill-rule: evenodd;
      }

      .cls-3 {
        fill: url(#linear-gradient-2);
      }
    </style>
    <linearGradient id="linear-gradient" x1="22.5" y1="3.65" x2="22.5" y2="22.81" gradientUnits="userSpaceOnUse">
      <stop offset="0" stop-color="#f9fae9"/>
      <stop offset=".09" stop-color="#f9fae9"/>
      <stop offset="1" stop-color="#a9b1a5"/>
    </linearGradient>
    <linearGradient id="linear-gradient-2" x1="22.5" y1="32.08" x2="22.5" y2="4.07" gradientUnits="userSpaceOnUse">
      <stop offset="0" stop-color="#64726f"/>
      <stop offset=".2" stop-color="#64726f"/>
      <stop offset=".3" stop-color="#7a857f"/>
      <stop offset=".5" stop-color="#b1b7a9"/>
      <stop offset=".65" stop-color="#dddfcb"/>
      <stop offset=".81" stop-color="#e1e3cf"/>
      <stop offset=".96" stop-color="#eceed9"/>
      <stop offset="1" stop-color="#f0f2dd"/>
    </linearGradient>
  </defs>
  <path class="cls-2" d="m42.75,27H2.17C.98,27,0,26.01,0,24.82v-14.07c0-.77.3-1.51.85-2.05L8.49,1.03c1.37-1.37,3.63-1.37,5,0l6.82,6.84h22.44c1.24,0,2.25,1.01,2.25,2.25v14.62c0,1.24-1.01,2.25-2.25,2.25ZM11.06,4c-.52,0-.95.43-.95.95s.43.95.95.95.95-.43.95-.95c0-.52-.43-.95-.95-.95Z"/>
  <path class="cls-1" d="m42.88,26h-23.05s0,0,0,0H2.18c-.65,0-1.18-.53-1.18-1.18v-14.07c0-.5.2-.99.56-1.34L9.2,1.74c.99-.99,2.6-.99,3.58,0l7.24,7.26h22.85c.62,0,1.12.5,1.12,1.12v14.75c0,.62-.5,1.12-1.12,1.12ZM11,2.5c-1.37,0-2.5,1.13-2.5,2.5s1.13,2.5,2.5,2.5,2.5-1.13,2.5-2.5-1.13-2.5-2.5-2.5Z"/>
  <path class="cls-3" d="m43,25h-23.18s0,0,0,0H2.18c-.1,0-.18-.08-.18-.18v-14.07c0-.24.09-.47.26-.64l7.64-7.67c.6-.6,1.57-.6,2.17,0,2.02,2.02,6.25,6.27,7.53,7.55h23.4v15ZM11,3c-1.1,0-2,.9-2,2s.9,2,2,2,2-.9,2-2-.9-2-2-2Z"/>
</svg>