<?xml version="1.0" encoding="UTF-8"?>
<svg id="Layer_1" data-name="Layer 1" xmlns="http://www.w3.org/2000/svg" viewBox="0 0 42 42">
  <defs>
    <style>
      .cls-1 {
        fill: #fff;
      }

      .cls-1, .cls-2, .cls-3 {
        fill-rule: evenodd;
      }

      .cls-2 {
        fill: #40515c;
        opacity: .6;
      }

      .cls-3 {
        fill: #ffa200;
      }
    </style>
  </defs>
  <path class="cls-2" d="M21.67,13.09c-.38-.58-.98-1.06-1.71-1.43-1.37-.7-3.19-1.05-5.2-1.05s-3.83.35-5.2,1.05c-.73.37-1.32.84-1.7,1.42v.85c1.87-.77,4.27-1.16,6.9-1.16s5.05.39,6.92,1.17c0-.26,0-.55,0-.85ZM11.56,26.66h0c.7,1.16,1.93,1.91,3.28,1.99,1.32-.05,2.54-.76,3.24-1.89,1-3.07,1.67-6.24,1.99-9.46-.29-.18-.66-.33-1.09-.47-1.11-.36-2.59-.57-4.21-.57-2.26,0-4.25.38-5.27,1.02.06,2.14,1.39,8.18,2.07,9.38ZM32.24,26.92s.03-.07.05-.11c.16-.26.32-.89.5-1.67.41-1.76.81-4.21.88-5.39-.21-.12-.48-.23-.78-.33-.88-.28-2.05-.45-3.33-.45-1.72,0-3.24.27-4.07.74.04,1,.35,2.87.7,4.48.26,1.19.52,2.23.74,2.6.01.02.03.05.04.07.04.05.08.1.12.16.53.91,1.48,1.5,2.53,1.56,1.04-.05,2-.63,2.52-1.53.03-.05.06-.1.1-.15ZM26.26,30.92c-.53-.44-1.15-.96-1.74-1.46-.21-.18-.34-.44-.33-.72s.13-.54.35-.72c.11-.09.22-.18.32-.28-.04-.05-.07-.1-.1-.15-.73-1.41-1.16-2.96-1.25-4.54l-.51-.53c-.1-.11-.18-.23-.22-.37l-.3-1-.31.32c-.22,2.01-.76,4.63-1.44,6.18,1.5,1.38,3.56,2.22,5.54,3.28ZM27.51,14.52c.08.19.09.41.03.62v.03s-.26.82-.26.82c.74-.14,1.48-.22,2.23-.25h.04c1.8,0,3.61.53,4.97,1.4,0-.29.01-.57.02-.85-.29-.41-.73-.74-1.25-1-1.05-.53-2.41-.78-3.74-.78-.04,0-.08,0-.13,0-.64-.09-1.28-.08-1.91.02ZM23.45,18.13c1.04-.96,1.84-2.18,2.31-3.54v-.03c.07-.19.2-.35.35-.46-.09-.18-.13-.39-.09-.6.08-.44.12-.89.13-1.34,0-.07,0-.13,0-.18-.08-.12-.22-.36-.33-.74-.07-.24-.04-.51.08-.73.13-.22.34-.38.58-.44,1.01-.25,2.04-.38,3.08-.38,3.82,0,6.47,1.72,7.74,3.56.61.88.9,1.81.9,2.63v.05c-.08,1.37-.53,2.7-1.32,3.82h0s-.4,2.28-.4,2.28c-.03.18-.12.35-.25.48l-.52.53c-.1,1.58-.52,3.13-1.24,4.54-.03.05-.06.1-.09.14.16.15.33.29.51.41.21.15.35.39.38.65.03.26-.05.52-.23.72-1.43,1.62-3.11,2.99-4.97,4.08-.32.19-.72.16-1.01-.05,0,.07,0,.13-.02.2-.06.29-.25.53-.51.66-7.42,3.52-16.28,2.11-22.25-3.54-.21-.2-.32-.49-.29-.78.03-.29.2-.55.45-.7.9-.54,1.75-1.16,2.54-1.86-.7-1.51-1.25-4.05-1.48-6.08l-.71-.75c-.13-.14-.22-.31-.25-.5l-.47-2.93c-.94-.73-1.47-1.26-1.79-1.87-.36-.68-.47-1.47-.47-2.79,0-.76.4-1.77,1.23-2.78,1.67-2.02,5.13-4.18,9.73-4.18s7.93,2.2,9.51,4.23c.78,1,1.15,2,1.15,2.74,0,1.25,0,1.94-.23,2.53-.22.56-.64,1.06-1.57,1.82l-.18,1.16Z"/>
  <path class="cls-3" d="M27.34,30.61c-.61-.5-1.44-1.2-2.23-1.86.45-.36.84-.78,1.17-1.25.69,1.19,1.94,1.96,3.32,2.03,1.38-.04,2.65-.8,3.34-2,.39.53.86.99,1.39,1.37-1.36,1.54-2.96,2.86-4.74,3.89-.71-.77-1.46-1.5-2.25-2.19ZM35.99,19.38l-.44,2.49-.76.79c-.05,1.57-.44,3.11-1.16,4.51-.13.15-.35.2-.53.12.6-1.02,1.57-6.68,1.51-7.98-.76-.73-2.73-1.25-5.06-1.25s-4.19.49-4.99,1.18c-.12,1.41.96,7,1.57,8.04-.19.09-.41.04-.55-.11-.72-1.4-1.12-2.94-1.17-4.51l-.75-.79-.43-1.41c-.22-.17-.43-.34-.63-.53,1.9-1.17,3.33-2.96,4.04-5.07l-.73,2.4c1.18-.35,2.4-.56,3.64-.61,2.47,0,5.01,1.06,5.93,2.71-.07-.86-.04-2.25,0-3.34-.92-1.65-3.46-2.46-5.93-2.46-.87-.12-1.76-.08-2.61.11.09-.5.14-1,.14-1.5,0-.87-.14-.4-.38-1.2.93-.23,1.89-.35,2.85-.35,4.9,0,7.7,3.06,7.7,5.25-.07,1.27-.51,2.48-1.27,3.5Z"/>
  <path class="cls-1" d="M10.76,27.12c.86,1.45,2.39,2.37,4.08,2.45,1.69-.05,3.25-.97,4.1-2.43,1.09-3.33,1.8-6.78,2.11-10.27-.94-.9-3.39-1.55-6.28-1.55s-5.2.61-6.19,1.47c-.15,1.74,1.42,8.99,2.18,10.33ZM22.6,12.82c-1.14-2.05-4.21-3.14-7.83-3.14s-6.69,1.1-7.83,3.14c0,0,0,1.17,0,2.63,1.85-1.18,4.67-1.76,7.83-1.76s5.98.57,7.83,1.76c0,0,.03-1.22,0-2.63ZM22.76,16.48l-.55,3.59-.94.98c-.22,2.23-.85,5.46-1.68,6.77,1.93,2.09,5.03,3.04,7.66,4.76l.88.99c-7.07,3.35-15.52,2.01-21.21-3.37,1.17-.7,2.26-1.53,3.24-2.48-.01,0-.03,0-.04-.02-.85-1.28-1.51-4.39-1.73-6.65l-.93-.98-.53-3.29c-1.96-1.47-2.19-1.92-2.19-4.14,0-2.02,3.94-6.03,10.03-6.03s9.72,4.07,9.72,6.03c0,2.16.14,2.38-1.73,3.84Z"/>
</svg>