<?xml version="1.0" encoding="UTF-8"?>
<svg id="Layer_3" data-name="Layer 3" xmlns="http://www.w3.org/2000/svg" width="46" height="46" viewBox="0 0 46 46">
  <defs>
    <style>
      .cls-1 {
        fill: #10212f;
        opacity: .7;
      }

      .cls-1, .cls-2, .cls-3, .cls-4 {
        stroke-width: 0px;
      }

      .cls-2 {
        fill: #ffa200;
      }

      .cls-2, .cls-3, .cls-4 {
        fill-rule: evenodd;
      }

      .cls-3 {
        fill: #fff;
      }

      .cls-4 {
        fill: #9da7ab;
      }
    </style>
  </defs>
  <rect class="cls-1" x="1" y="1" width="44" height="44"/>
  <path class="cls-3" d="m5.52,13.29l-.52-.37,2.47-3.47.52.37.4-.57,1.51-.25,1.45,1.03.21-.29,1.04.74-4.73,6.66-1.04-.74.21-.29-1.45-1.03-.26-1.51.2-.28Zm10.73,8.66l-.02-.19,1.28-1.8.6,1.52-1.86.47Zm3.44-5.06l.04-.05.92-.22s.14.11.38.32v.06s-1.33-.11-1.33-.11Zm-2.42,2.46l-1.89,2.67-.77-.55-.21.29-1.54-1.09.21-.29-4.42-3.14,4.32-6.08,4.42,3.14.21-.29,1.54,1.09-.21.29.77.55-.64.9-2.88-.24,1.09,2.75Z"/>
  <polygon class="cls-2" points="30.27 18.82 36 18 31.94 21.76 35.68 23.5 31.8 25.33 35.44 29.48 30.15 28.91 30.64 32.76 27.17 30.43 26 35 23.49 30.18 20 32 20.65 28.14 14 29.41 18.08 25.5 15.24 23.46 19.74 21.92 18 18 21.75 19.22 22.44 14.46 26.25 17.68 29 14 30.27 18.82"/>
  <path class="cls-4" d="m34.78,11.89c.15-.48.34-.95.58-1.41l-2.78-.48c-.13.33-.23.65-.32.97l2.52.92Zm1.4-2.69c.25-.32.6-.74,1.02-1.24l-3.01-.51c-.23.3-.43.57-.6.8l2.6.95Zm4.2-4.88c.38-.43.77-.86,1.14-1.28l-3.55-.61-.6.79,3,1.1Zm-2.14,2.42c.35-.4.72-.82,1.09-1.25l-3.26-.56-.6.79,2.77,1.01Zm-3.94,7.87c.01-.3.03-.76.05-.9.04-.27.09-.55.15-.83l-2.53-.43c0,.08-.02.16-.02.23-.01.13-.03.57-.04,1.06l2.39.87Zm-2.36.25l-1.15-1.83c.07-1.27.41-3.54,1.75-5.32.86-1.14,2.81-3.71,4.32-5.72h7.12c-2.46,2.73-6.3,7.02-7.11,8.17-1.28,1.81-1.54,4.05-1.55,5.56l-1.03.34v-.84s-1.95-.39-1.95-.39l-.4.03Zm-17.18,20.92c.71-.39,1.45-.7,2.16-.94-.02-.02,0-.04.06-.07l-3.36-.57c-.08.03-.15.05-.21.08-.42.16-.85.34-1.26.55l2.61.95Zm-2.55,1.96c.35-.39.73-.74,1.14-1.05l-3.04-.52c-.1.11-.2.22-.29.34-.07.09-.15.2-.26.33l2.45.9Zm-1.81,2.23c.32-.4.61-.77.87-1.09l-2.75-.47c-.17.22-.35.44-.54.68l2.42.89Zm-1.77,2.25c.29-.37.58-.74.86-1.1l-2.78-.47c-.18.22-.36.45-.55.67l2.46.9Zm-3.1,1.76h-3.15s5.28-6.25,6.73-8.17c2.36-3.11,8.19-3.63,8.19-3.63l.93.68-.69,1,2.23.12,1.42,1.04s-5.44.39-8.16,3.5c-1.12,1.28-4.28,5.44-4.28,5.44h-1.49c.15-.2.32-.41.48-.62l-2.83-.48c-.19.23-.37.45-.55.67l1.18.43Z"/>
</svg>