<?xml version="1.0" encoding="UTF-8"?>
<svg id="Layer_1" data-name="Layer 1" xmlns="http://www.w3.org/2000/svg" width="54" height="54" xmlns:xlink="http://www.w3.org/1999/xlink" viewBox="0 0 54 54">
  <defs>
    <style>
      .cls-1 {
        fill: #10212f;
        opacity: .7;
      }

      .cls-1, .cls-2, .cls-3, .cls-4 {
        stroke-width: 0px;
      }

      .cls-1, .cls-2, .cls-4 {
        fill-rule: evenodd;
      }

      .cls-2 {
        fill: #82a3b3;
      }

      .cls-3 {
        fill: none;
      }

      .cls-4 {
        fill: #fff;
      }

      .cls-5 {
        clip-path: url(#clippath);
      }
    </style>
    <clipPath id="clippath">
      <rect class="cls-3" x="4" y="1" width="46" height="52"/>
    </clipPath>
  </defs>
  <g class="cls-5">
    <polygon class="cls-1" points="27 1 50 14 50 40 27 53 4 40 4 14 27 1"/>
    <path class="cls-4" d="m35.41,41.93c-3.08.41-6.15-.93-7.56-3.32-2.68-4.2,1.81-6.35,1.47-8.74,0,0,1.54,2.04.94,4.02s3.95.7,1.2-3.5c-2.41-3.61.6-6.82,2.54-9.39,0,0-1.47,3.09.87,5.01s2.47,5.71,2.27,7.11c0,0,2.01-1.05,2.41-3.85,0,0,3.61,7.11-.6,8.51-5.42,1.87-.8,2.22,1.07,1.22,0,0-.07,2.16-4.61,2.91Z"/>
    <path class="cls-2" d="m22.64,34.01l-1.11,1.12-3.63-3.63,1.12-1.12,3.63,3.63Zm-7.73-4.04l-2.91-2.91,1.11-1.12,2.91,2.91-1.12,1.12Zm8.27-9.73l-.8,2.27-5.61,5.62-2.95-2.95,5.62-5.62,2.26-.8,1.2-1.2,1.47,1.47-1.2,1.19Zm2.06-2.06l-1.45-1.45,2.08-2.08,3.61-2.65.49.49-2.64,3.61-2.08,2.08Zm1.33,22.14l-.66.67-2.89-2.89,1.12-1.11,1.26,1.27c.18.45.42.93.74,1.42.13.22.28.44.43.65Zm10.58-14.83l3.34-2.45.48.48-2.64,3.61-.13.13c-.28-.62-.62-1.22-1.05-1.77Zm-6.5-3.36l-.77-.77,2.08-2.08,4.46-3.26.61.61-1.95,2.68s-.01,0-.02-.01c-.88-.54-2.03-.32-2.65.51-.55.73-1.17,1.51-1.75,2.33Zm-3.25,7.17l-4,4-3.67-3.68,5.62-5.61,2.44-.62,1.2-1.2.98.97c-.26.43-.5.87-.7,1.32-.5,1.13-.78,2.3-.71,3.52-.57.24-.99.72-1.16,1.28Z"/>
  </g>
</svg>