<svg width="42" height="42" viewBox="0 0 42 42" fill="none" xmlns="http://www.w3.org/2000/svg">
<g filter="url(#filter0_d_763_6362)">
<path fill-rule="evenodd" clip-rule="evenodd" d="M22.809 32.9238L23.6269 31.8678L18.2261 30.9447L18.0345 31.181L22.809 32.9312V32.9238ZM26.9425 27.5626L27.753 26.5067L22.529 25.6131L22.3227 25.8642L26.9425 27.5553V27.5626ZM29.7866 23.8704L30.5971 22.8144L25.9184 22.1572C25.852 22.2384 25.7784 22.3271 25.6973 22.4304L29.7866 23.863V23.8704ZM31.2087 22.0243L32.0192 20.9683L27.2741 20.2373L27.2594 20.6434L31.2087 22.0243ZM24.0911 31.2475L24.9016 30.1915L19.5523 29.2758L19.3607 29.5121L24.0837 31.2475H24.0911ZM32.557 20.2742L33.4559 19.1148L28.4235 18.2508L28.1141 18.6422L32.557 20.2742ZM25.5205 29.4014L26.331 28.3454L21.048 27.4445L20.8491 27.6882L25.5205 29.4014ZM35.1359 16.9438L36.02 15.7918L31.0392 14.9426L30.7297 15.3266L35.1285 16.9364L35.1359 16.9438ZM20.2449 36.2468L21.0701 35.176L15.5588 34.2308L15.3746 34.4597L20.2449 36.2468ZM21.5343 34.5779L22.3596 33.5145L16.8998 32.5841L16.7156 32.813L21.5343 34.5779ZM28.3793 25.7091L29.1898 24.6532L24.4889 23.8261L23.8184 24.0329L28.3793 25.7018V25.7091ZM33.8612 18.6053L34.7527 17.4533L29.7498 16.5967L29.4403 16.9881L33.8612 18.6127V18.6053ZM37 16.294L21.0259 37H19.6702L19.7955 36.8302L14.2252 35.8776L14.041 36.1065L16.4798 37H12L19.1765 28.2494C19.4786 27.8654 21.2101 25.7091 22.809 23.7449C23.1995 23.2797 23.5753 23.4717 24.15 22.8587C25.0121 21.9431 26.2941 19.9862 26.3899 19.8606L26.5962 19.0631L36.9853 6V8.03073L36.5505 7.95688L36.2411 8.34826L36.9779 8.62149V10.1205L35.0917 9.79562L34.8264 10.2313L36.9705 10.8516V12.2103L33.6328 11.6417L33.3307 12.0257L36.9705 13.3549V14.0934L32.3286 13.2959L32.0265 13.6798L36.4032 15.2823L36.9705 14.5512V16.3087L37 16.294Z" fill="#D7D7D7"/>
<path fill-rule="evenodd" clip-rule="evenodd" d="M24.1642 20.2828C24.157 20.3337 24.1279 20.3846 24.0988 20.4356C24.0842 20.4574 24.0697 20.4792 24.0552 20.501C24.0188 20.5519 23.9752 20.5883 23.9315 20.6174C23.757 20.7192 22.7897 22.181 22.4479 22.2683C21.5388 22.5083 22.1642 21.4974 21.3788 21.2646C20.477 20.9956 19.8224 20.6319 19.8224 20.6319L19.8879 20.0428L22.4261 16.4646L22.957 16.2101C22.957 16.2101 23.5315 16.7046 24.0842 17.4828C24.557 18.1446 25.197 17.381 25.2697 18.3119C25.2988 18.661 24.1933 20.0937 24.157 20.2974L24.1642 20.2828ZM12.9061 14.0428L12.5352 13.7737L14.3606 11.2719L14.7315 11.541L15.0297 11.1337L16.1642 10.9883L17.1606 11.7156L17.3133 11.5046L18.0552 12.0428L14.5497 16.8356L13.8079 16.2974L13.9606 16.0865L12.9642 15.3592L12.7606 14.2392L12.9061 14.0428ZM17.6624 18.7992L15.0806 16.9156L18.2806 12.5374L20.8624 14.421L21.0152 14.2101L22.1279 15.0174L21.9752 15.2283L22.5279 15.6356L19.3279 20.0137L18.7752 19.6065L18.6224 19.8174L17.5097 19.0101L17.6624 18.7992Z" fill="#B0C3CB"/>
<path fill-rule="evenodd" clip-rule="evenodd" d="M12.8984 25.2659L21.4221 23.4405L13.6184 27.3241L12.8984 25.2659ZM26.3748 7.92773L26.2293 16.6477L28.5348 8.23319L26.3748 7.92773ZM22.433 11.5205L25.3784 17.4914L23.8003 11.0186L22.433 11.5132V11.5205ZM13.9021 20.735L13.6621 22.1677L20.5712 22.5823L13.9021 20.735Z" fill="#FFA200"/>
</g>
<defs>
<filter id="filter0_d_763_6362" x="7" y="1" width="35" height="41" filterUnits="userSpaceOnUse" color-interpolation-filters="sRGB">
<feFlood flood-opacity="0" result="BackgroundImageFix"/>
<feColorMatrix in="SourceAlpha" type="matrix" values="0 0 0 0 0 0 0 0 0 0 0 0 0 0 0 0 0 0 127 0" result="hardAlpha"/>
<feOffset/>
<feGaussianBlur stdDeviation="2.5"/>
<feComposite in2="hardAlpha" operator="out"/>
<feColorMatrix type="matrix" values="0 0 0 0 0 0 0 0 0 0 0 0 0 0 0 0 0 0 0.7 0"/>
<feBlend mode="normal" in2="BackgroundImageFix" result="effect1_dropShadow_763_6362"/>
<feBlend mode="normal" in="SourceGraphic" in2="effect1_dropShadow_763_6362" result="shape"/>
</filter>
</defs>
</svg>
