<?xml version="1.0" encoding="UTF-8"?>
<svg id="Layer_1" data-name="Layer 1" xmlns="http://www.w3.org/2000/svg" width="54" height="54" viewBox="0 0 54 54">
  <defs>
    <style>
      .cls-1 {
        fill: #10212f;
        opacity: .7;
      }

      .cls-1, .cls-2, .cls-3 {
        stroke-width: 0px;
      }

      .cls-2 {
        fill: #82a3b3;
      }

      .cls-2, .cls-3 {
        fill-rule: evenodd;
      }

      .cls-3 {
        fill: #ff3e00;
      }
    </style>
  </defs>
  <circle class="cls-1" cx="27" cy="27" r="26"/>
  <path class="cls-2" d="m33.52,32.5c1.2-1.41,1.93-3.16,2.08-5.01h-4.68c-.1.62-.34,1.2-.7,1.71l3.31,3.29h0Zm-6.03,3.11c1.85-.15,3.6-.88,5.01-2.08l-3.3-3.3c-.51.36-1.09.6-1.71.7v4.68Zm-7.5-14.6c-1.21,1.42-1.93,3.17-2.08,5.03h4.68c.1-.62.34-1.2.7-1.71l-3.31-3.32Zm6.03-3.1h0c-1.85.15-3.6.87-5.01,2.08l3.32,3.31c.51-.36,1.09-.6,1.71-.7v-4.68Zm9.41,4.73c.59,1.25.93,2.64.93,4.12,0,5.3-4.3,9.6-9.6,9.6-1.47,0-2.87-.33-4.12-.93l.55-.55c.9.39,1.86.64,2.85.72v-3.57l6.01-6.01h3.55c-.08-.99-.32-1.94-.71-2.83l.55-.55Zm-17.03,8.86c-.8-1.4-1.25-3.02-1.25-4.75,0-5.3,4.3-9.6,9.6-9.6,1.73,0,3.35.46,4.75,1.25l-.54.54c-1.07-.58-2.26-.93-3.48-1.03v4.52s-5.04,5.04-5.04,5.04h-4.53c.1,1.23.46,2.42,1.04,3.5l-.54.54Zm18.88-10.71c.91,1.59,1.44,3.38,1.55,5.23h1.95s.01,0,.01,0c.4,0,.73.32.73.73s-.32.73-.73.73h-1.96c-.16,2.71-1.23,5.28-3.03,7.3l1.39,1.39c.25.28.25.7,0,.98-.27.3-.73.32-1.02.05l-1.39-1.39c-2.02,1.8-4.59,2.87-7.29,3.03v1.96c0,.4-.32.73-.73.73s-.73-.32-.73-.73v-1.97c-1.85-.11-3.65-.64-5.24-1.55l1.06-1.06c1.47.76,3.13,1.19,4.9,1.19,5.88,0,10.64-4.77,10.64-10.65h0c0-1.76-.43-3.42-1.19-4.89l1.07-1.07Zm-20.68,12.52c-1.12-1.74-1.79-3.74-1.91-5.83h-1.96c-.4,0-.73-.33-.73-.73s.33-.73.73-.73h1.96c.16-2.7,1.22-5.28,3.02-7.3l-1.39-1.38c-.28-.28-.28-.74,0-1.03.28-.28.74-.28,1.03,0l1.38,1.39c2.02-1.8,4.6-2.86,7.3-3.02v-1.96c0-.4.32-.73.73-.73s.73.32.73.73v1.96c2.09.12,4.09.79,5.83,1.91l-1.06,1.06c-1.61-.97-3.49-1.53-5.5-1.53-5.88,0-10.64,4.77-10.64,10.65,0,2.01.56,3.89,1.53,5.5l-1.05,1.05Z"/>
  <path class="cls-3" d="m37.29,15.3c.39-.39,1.02-.39,1.41,0,.39.39.39,1.02,0,1.41l-22.17,22.17c-.39.39-1.02.39-1.41,0-.39-.39-.39-1.02,0-1.41l22.17-22.17Z"/>
</svg>