<?xml version="1.0" encoding="UTF-8"?>
<svg id="Layer_1" data-name="Layer 1" xmlns="http://www.w3.org/2000/svg" width="54" height="54" viewBox="0 0 54 54">
  <defs>
    <style>
      .cls-1 {
        fill: #10212f;
        opacity: .7;
      }

      .cls-1, .cls-2 {
        fill-rule: evenodd;
        stroke-width: 0px;
      }

      .cls-2 {
        fill: #82a3b3;
      }
    </style>
  </defs>
  <polygon class="cls-1" points="27 1 50 14 50 40 27 53 4 40 4 14 27 1"/>
  <path class="cls-2" d="m28,31c-1.1,0-2,.9-2,2s.9,2,2,2,2-.9,2-2-.9-2-2-2Zm.03-10c-.59,0-1.06.13-1.4.38-.42.31-.63.77-.63,1.39,0,.2.02.4.06.61l1.13,6.49h1.69l1.07-6.52c.03-.21.05-.4.05-.57,0-.64-.17-1.09-.52-1.36-.35-.27-.83-.41-1.45-.41Zm12.97,13v-3h-2v7h-15l-4-4h-5v-4h-2v4h-2v-13h2v4h2v-4h3.75l2.25-3h2v-1h-3v-2h13v2h-3v1h2l4,3h3v3h2v-3h2v13h-2Z"/>
</svg>