<svg width="42" height="42" viewBox="0 0 42 42" fill="none" xmlns="http://www.w3.org/2000/svg">
<path fill-rule="evenodd" clip-rule="evenodd" d="M29.0651 16.5349C28.8527 16.3825 28.7105 16.1545 28.6644 15.9019L28.1319 15.793L27.9735 15.8051C27.5997 15.8338 27.2413 15.651 27.045 15.3316L26.3138 14.1416C26.3202 14.1609 26.326 14.1805 26.3312 14.2003L27.0279 16.8445L29.0865 16.5499C29.0793 16.545 29.0722 16.54 29.0651 16.5349ZM30.7459 16.4074C31.0089 16.4874 31.2342 16.6744 31.3579 16.9341C31.5461 17.3291 31.4556 17.8006 31.1346 18.0979L29.2747 19.8204L30.6442 20.4575C30.996 20.6212 31.2214 20.9736 31.2224 21.3616C31.2234 21.7496 30.9999 22.1031 30.649 22.2687L29.0275 23.0334L30.7996 25.0539C31.0714 25.3637 31.1252 25.8085 30.9353 26.1742C30.7453 26.54 30.3504 26.7517 29.9407 26.7075L27.3524 26.4286L27.5489 27.9725C27.5984 28.3616 27.4159 28.7437 27.0822 28.9497C26.7485 29.1557 26.3251 29.1476 25.9995 28.929L24.651 28.0235L24.1511 29.9759C24.0484 30.3773 23.7086 30.6738 23.2969 30.7213C22.8852 30.7687 22.4869 30.5573 22.2954 30.1897L20.9321 27.5717L19.2811 28.4327C19.2621 28.4426 19.2428 28.4519 19.2233 28.4606C19.2954 28.4916 19.364 28.5312 19.4275 28.5788L20.4857 29.3713C20.8196 29.6214 20.9631 30.0524 20.8459 30.4527C20.7288 30.8527 20.376 31.138 19.9605 31.1689L19.9593 31.169L19.9563 31.1693L19.9311 31.1715C19.9071 31.1737 19.8691 31.1774 19.8185 31.183C19.7172 31.1942 19.5661 31.2131 19.3768 31.243C18.9969 31.3029 18.47 31.4057 17.8867 31.5764C16.6912 31.926 15.3924 32.5219 14.5654 33.489C14.1714 33.9495 13.3931 34.9602 12.6948 35.8817C12.3498 36.3368 12.0307 36.7619 11.7977 37.0733C11.6812 37.2289 11.5864 37.356 11.5207 37.4442L11.4192 37.5805C11.2305 37.8345 10.9324 37.9848 10.616 37.9848H9.50569C9.2696 37.9848 9.04607 37.9016 8.87014 37.7568C8.69168 37.9109 8.46093 38 8.21651 38H5.86915C5.48191 38 5.12948 37.7764 4.96448 37.4261C4.79947 37.0758 4.85156 36.6617 5.09819 36.3631L5.26865 36.1565C5.37808 36.0237 5.5357 35.8323 5.72824 35.598C6.11337 35.1294 6.63798 34.4895 7.19614 33.8041C8.32018 32.4239 9.5568 30.888 10.0799 30.1797L10.0812 30.1779C11.1583 28.7263 12.9456 27.9564 14.3056 27.5447C15.008 27.332 15.6483 27.1999 16.1129 27.1206C16.346 27.0808 16.5369 27.054 16.6718 27.037C16.7393 27.0284 16.7929 27.0223 16.8309 27.0182L16.876 27.0135L16.8895 27.0122L16.8938 27.0118L16.8954 27.0116C16.8954 27.0116 16.8966 27.0115 16.9874 28.0074L16.8966 27.0115C17.1427 26.9891 17.3884 27.0585 17.5863 27.2065L17.8311 27.3896C17.8316 27.3864 17.8321 27.3832 17.8326 27.38L18.0666 25.9907L14.6427 26.6446C14.2076 26.7277 13.7696 26.5146 13.5665 26.121C13.3633 25.7273 13.4434 25.2469 13.7632 24.9404L15.8619 22.9291L14.7735 22.1473C14.4696 21.929 14.313 21.5592 14.3677 21.189C14.3753 21.1373 14.3869 21.0868 14.4021 21.0378C14.3207 21.008 14.2419 20.967 14.1678 20.9146L13.0478 20.1219C12.8437 19.9774 12.7016 19.762 12.6485 19.5188L10.1297 17.7294C9.87874 17.7632 9.62375 17.7005 9.4167 17.5532L8.66034 17.015C8.45724 16.8705 8.31596 16.6557 8.26308 16.4134L7.75917 16.0554C7.54373 15.9024 7.39762 15.6703 7.35278 15.4099L7.16882 14.3415C7.04115 14.2009 6.95511 14.0256 6.92308 13.8354C6.87902 13.5738 6.94068 13.3055 7.0945 13.0894L8.89086 10.5657C9.11389 10.2524 9.48439 10.1063 9.84077 10.1546C9.95254 10.084 10.0783 10.0356 10.2113 10.0136L11.3095 9.83179C11.5699 9.78868 11.8368 9.85026 12.0519 10.0031L12.5597 10.3638C12.7986 10.3348 13.0485 10.3914 13.2598 10.5418L14.0162 11.0799C14.2214 11.226 14.355 11.4353 14.4091 11.6624L16.9525 13.4693C17.1905 13.4403 17.4396 13.4965 17.6505 13.6458L18.7705 14.4385C18.9754 14.5835 19.1178 14.7999 19.1704 15.0441L19.1813 15.0519C19.3053 15.1405 19.403 15.2521 19.4728 15.3768C19.4809 15.3783 19.489 15.3799 19.497 15.3816L19.6036 14.6462C19.6558 14.2866 19.8989 13.9836 20.2386 13.8547C20.5783 13.7258 20.9613 13.7913 21.2388 14.0259L23.1987 15.6823L24.5632 13.8565C24.7929 13.5491 25.1783 13.4002 25.5551 13.4735C25.7769 13.5166 25.9726 13.6322 26.116 13.7957C26.0592 13.6584 26.0334 13.5094 26.0415 13.3596C26.0973 12.3251 26.3675 10.3575 27.5394 8.76551C27.7511 8.47856 28.0496 8.07508 28.395 7.60829L28.3964 7.60638C29.1019 6.65283 30.0026 5.4356 30.7575 4.40798C30.9459 4.15149 31.2451 4 31.5634 4H36.8692C37.2622 4 37.6187 4.2302 37.7805 4.58836C37.9423 4.94652 37.8793 5.36623 37.6194 5.6611C36.7034 6.70073 35.5331 8.03437 34.5173 9.21641C33.4818 10.4215 32.6585 11.41 32.3944 11.7935L32.3933 11.795C31.6105 12.927 31.4228 14.3896 31.4158 15.4699C31.413 15.8929 31.1445 16.268 30.7459 16.4074Z" fill="#40515C" fill-opacity="0.6"/>
<path fill-rule="evenodd" clip-rule="evenodd" d="M8.28736 13.9384L7.90918 13.6693L9.70554 11.1456L10.0837 11.4147L10.3746 11.0002L11.4728 10.8184L12.5274 11.5675L12.6801 11.3565L13.4365 11.8947L9.99645 16.7384L9.24009 16.2002L9.39282 15.9893L8.33827 15.2402L8.14918 14.142L8.29463 13.9384H8.28736ZM16.091 20.2365L16.0765 20.0984L17.0074 18.7893L17.4437 19.8947L16.091 20.2365ZM18.5928 16.5565L18.6219 16.5202L19.291 16.3602C19.291 16.3602 19.3928 16.4402 19.5674 16.5929V16.6365L18.6001 16.5565H18.5928ZM16.8328 18.3456L15.4583 20.2875L14.8983 19.8875L14.7455 20.0984L13.6255 19.3056L13.7783 19.0947L10.5637 16.8111L13.7055 12.3893L16.9201 14.6729L17.0728 14.462L18.1928 15.2547L18.0401 15.4656L18.6001 15.8656L18.1346 16.5202L16.0401 16.3456L16.8328 18.3456Z" fill="white"/>
<path fill-rule="evenodd" clip-rule="evenodd" d="M26.2878 17.9605L30.4551 17.3642L27.5024 20.0987L30.2224 21.3642L27.4005 22.6951L30.0478 25.7133L26.2005 25.2987L26.5569 28.0987L24.0333 26.4042L23.1824 29.7278L21.3569 26.2224L18.8187 27.546L19.2914 24.7387L14.4551 25.6624L17.4224 22.8187L15.3569 21.3351L18.6296 20.2151L17.3642 17.3642L20.0914 18.2514L20.5933 14.7896L23.3642 17.1314L25.3642 14.4551L26.2878 17.9605Z" fill="#FFA200"/>
<path fill-rule="evenodd" clip-rule="evenodd" d="M30.0134 12.5447C30.1251 12.1789 30.3487 11.3506 30.5276 11H28.5C28.4031 11.2515 28.2026 11.5997 28.1355 11.8435L30.0134 12.5447ZM32.5917 8.61991C32.8526 8.31508 33.7243 7.3277 34 7H31L30.5276 7.84258L32.5917 8.61229V8.61991ZM27.897 14.8081L27.0401 13.4134C27.0922 12.4456 27.3456 10.7156 28.3441 9.35913C28.985 8.49036 30.4381 6.53179 31.5634 5H36.8691C35.036 7.0805 32.1744 10.3498 31.5708 11.2262C30.617 12.6056 30.4232 14.3127 30.4158 15.4634L29.6482 15.7226V15.0824L28.1951 14.7852L27.897 14.8081ZM15.0946 30.7509C15.6237 30.4537 16.1752 30.2174 16.7042 30.0345C16.6893 30.0193 16.7042 30.0041 16.7489 29.9812L14.2451 29.5468C14.1855 29.5697 14.1333 29.5849 14.0886 29.6078C13.7756 29.7297 13.4552 29.8669 13.1497 30.0269L15.0946 30.7509ZM11.8456 33.944C12.084 33.6392 12.3002 33.3572 12.4939 33.1134L10.375 32.839C10.2483 33.0067 10.005 33.3171 9.86337 33.5L11.8456 33.9517V33.944ZM8.2165 37H5.86914C5.86914 37 9.80376 32.237 10.8843 30.7738C12.6429 28.4037 16.9874 28.0074 16.9874 28.0074L17.6804 28.5256L17.1663 29.2877L18.828 29.3791L19.8862 30.1717C19.8862 30.1717 15.8324 30.4689 13.8054 32.839C12.9708 33.8145 10.616 36.9848 10.616 36.9848H9.50568C9.61746 36.8323 9.74414 36.6723 9.86337 36.5123L7.75448 36.1465C7.61289 36.3217 7.47876 36.4894 7.34462 36.6571L8.22395 36.9848L8.2165 37Z" fill="#D7D7D7"/>
</svg>
