<?xml version="1.0" encoding="utf-8"?>
<!-- Generator: Adobe Illustrator 26.3.1, SVG Export Plug-In . SVG Version: 6.00 Build 0)  -->
<svg version="1.1" id="Layer_2_00000111157412167203556540000007141308537901496222_"
	 xmlns="http://www.w3.org/2000/svg" xmlns:xlink="http://www.w3.org/1999/xlink" x="0px" y="0px" viewBox="0 0 304.8 304.7"
	 style="enable-background:new 0 0 304.8 304.7;" xml:space="preserve">
<g id="Layer_7">
	<path style="fill:#FFFFFF;" d="M226.8,195.2l20.6-41.8v59.1c-4-2.7-8-6-12-9.3L226.8,195.2C227.4,194.6,226.8,195.2,226.8,195.2z
		 M115.2,180l-26.6-4.6V39.8c19.3-12,41.8-19.3,66.4-19.3v106.2l-13.3-19.9v26.6l-39.8-13.3L115.2,180z M141.8,47.2h6.6v-6.6h-6.6
		V47.2z M141.8,67.1h6.6v-6.6h-6.6V67.1z M141.8,87h6.6v-6.6h-6.6V87z M281.2,214.5v-67.7c0-29.2-10-55.8-26.6-77v146.7
		c3.3,1.3,6.6,2.7,10,2.7C269.9,219.1,275.9,217.1,281.2,214.5z M168.3,146.8l-6.6-10V21.3c33.9,2,64.4,17.3,86.3,40.5v91.6
		l-46.5,6.6l6.6-66.4L168.3,146.8z M234.7,67.1h6.6v-6.6h-6.6V67.1z M234.7,87h6.6v-6.6h-6.6V87z M234.7,106.9h6.6v-6.6h-6.6V106.9z
		 M234.7,126.8h6.6v-6.6h-6.6V126.8z M234.7,146.8h6.6v-6.6h-6.6V146.8z M40.8,219.8c-4,0-8-0.7-12-2.7v-70.4
		c0-42.5,21.2-79.7,53.1-102.9V174l-6.6-1.3l19.9,26.6l-7.3,3.3l-0.7-0.7l-9.3-8l-10.6,10.6C56.8,213.8,48.1,219.1,40.8,219.8z
		 M68.7,67.1h6.6v-6.6h-6.6V67.1z M68.7,87h6.6v-6.6h-6.6V87z M68.7,106.9h6.6v-6.6h-6.6V106.9z M68.7,126.8h6.6v-6.6h-6.6V126.8z
		 M68.7,146.8h6.6v-6.6h-6.6V146.8z M68.7,166.7h6.6V160h-6.6V166.7z M68.7,186.6h6.6V180h-6.6V186.6z M263.9,233.1
		c-14.6-1.3-27.2-10.6-37.2-19.9c-10,8.6-23.2,17.3-37.2,17.9c-12.6-0.7-24.6-8-33.9-16.6l-3.3-3.3c-6,5.3-12.6,10.6-19.3,13.9
		c-5.3,2.7-12,5.3-17.9,5.3c-13.9,0-27.2-9.3-37.2-17.9l-2.7,2.7c-9.3,8.6-21.2,16.6-34.5,17.9c-13.3,0-26.6-7.3-37.2-15.3
		c10,10,22.6,18.6,37.2,19.9c13.9,0,26.6-6.6,37.2-14.6c7.3,6.6,15.9,12,25.9,15.3c15.3,5.3,30.5-0.7,43.2-10c2-1.3,4-2.7,5.3-4
		c10.6,8.6,23.2,15.3,37.2,15.3c13.9-0.7,26.6-8,37.2-17.3c10.6,8,23.2,14.6,37.2,14.6c14.6-1.3,27.2-10,37.2-19.9
		C290.5,225.8,277.9,233.1,263.9,233.1L263.9,233.1z M193.6,257.6c-2-1.3-4-3.3-6-5.3l-2.7,2.7c-6.6,5.3-14.6,10.6-22.6,13.3
		c-12.6,4-25.2-2.7-35.2-10c-2-1.3-4-3.3-6-5.3c-2,2-4,4-6,5.3c-8,6.6-17.3,12-27.2,13.3c-12.6,0-23.9-6-33.2-13.3
		c8.6,9.3,20.6,17.3,33.2,18.6c12,0,22.6-5.3,32.5-12c0.7,0,0.7-0.7,1.3-0.7s0.7,0.7,1.3,1.3c9.3,7.3,19.9,13.3,32.5,13.9
		c12.6,0,23.9-6.6,33.9-14.6c6.6,5.3,14.6,10,23.2,12c16.6,4.6,32.5-5.3,43.8-17.3c-10,6.6-21.2,13.3-33.2,13.3
		C210.8,270.3,201.5,264.3,193.6,257.6L193.6,257.6z"/>
</g>
</svg>
