<svg xmlns="http://www.w3.org/2000/svg" width="40" height="40" viewBox="0 0 40 40">
  <defs>
    <style>
      .cls-1 {
        fill: #fff;
        fill-rule: evenodd;
      }
    </style>
  </defs>
  <path id="Color_Fill_1" data-name="Color Fill 1" class="cls-1" d="M19.31,1.275h0.276a0.265,0.265,0,0,1,.055-0.165V1.385H19.31v0.55h0.11a1.119,1.119,0,0,1,1.159-.055V1.385H20.3V1.275h0.276V1h0.11V1.275h0.276a0.265,0.265,0,0,1,.055-0.165V1.385H20.69a12.966,12.966,0,0,0,.662,2.585c0.154,0.678.024,1.438,0.165,2.09V6.994c0.153,0.7-.058,1.538.11,2.31a14.835,14.835,0,0,1,.11,2.75h0.11a16.451,16.451,0,0,0,2.814.22l0.055-.55a0.258,0.258,0,0,1,.055-0.385,1.559,1.559,0,0,1-.11-0.715c-0.223-.858-0.224-2.437.828-2.42V8.039a13.55,13.55,0,0,1-2.814-.22h0.11a11.69,11.69,0,0,1,2.7-.055,0.725,0.725,0,0,1,.717-0.88,0.2,0.2,0,0,0,.11.055,1.384,1.384,0,0,1,.276.825,10.625,10.625,0,0,1,2.979.11c-0.957.009-1.88,0.158-2.979,0.165V8.2l0.552,0.055a5.2,5.2,0,0,1,.386,1.1c0.207,0.889-.249,1.816,0,2.365a0.267,0.267,0,0,0-.165.055,1.654,1.654,0,0,1,.055.715,20.636,20.636,0,0,1,2.979.275c0.674,0.147,1.377.032,1.986,0.165,0.889,0.194,1.823.04,2.648,0.22,1.329,0.29,2.911-.071,3.862.55a2.715,2.715,0,0,1,1.048,2.145c-0.532,2.761-2.169,2-4.69,2.585-2.878.669-6.034,0.68-8.938,1.265v0.11c-0.17.253-.1,0.742-0.276,0.99v-0.11a1.757,1.757,0,0,0-.331-0.88,2.546,2.546,0,0,0-.993.055,20.334,20.334,0,0,0-3.034.5,11.574,11.574,0,0,0-.055,2.695L20.966,32.9l5.131,0.99a0.969,0.969,0,0,1,.166-0.385h0.055v0.055c0.383,0.484.191,2.257,0.055,2.86a2.234,2.234,0,0,1-.11.825,2.808,2.808,0,0,0-.166-1.21v0.055a0.782,0.782,0,0,1-.386.44,5.891,5.891,0,0,1-1.545.165,19.39,19.39,0,0,1-3.366.385,3.049,3.049,0,0,0-.055-0.88H20.69a5.919,5.919,0,0,1-.772,2.8,6.227,6.227,0,0,0-.441-1.155c-0.156-.476-0.106-1-0.276-1.485H19.145v0.055a1.491,1.491,0,0,0-.055.66l-5.076-.55a1.769,1.769,0,0,0-.221-0.495H13.738v0.44c-0.111.182-.05,0.545-0.165,0.715v-0.11a2.794,2.794,0,0,1-.055-0.715,5.949,5.949,0,0,1,.055-2.8,0.19,0.19,0,0,1,.11.055,0.371,0.371,0,0,1,.11.275l5.131-.99-0.331-5.224h-0.11a0.24,0.24,0,0,1-.166.165V27.672c0.3-.09.244-0.444,0.221-0.825a9.066,9.066,0,0,1-.11-1.87,25.749,25.749,0,0,1-.166-4.619H18.207V20.3a11.684,11.684,0,0,1-1.821-.275l-0.828-.055a4.441,4.441,0,0,0-1.49-.165l-0.221.99H13.793a4.912,4.912,0,0,0-.221-1.1h-0.11c-0.612-.372-1.975-0.164-2.759-0.385-1.952-.551-4.714-0.453-6.841-0.99a18.209,18.209,0,0,1-2.372-.33,2.52,2.52,0,0,1-.883-3.959c0.541-.712,2.135-0.833,3.366-0.825a9.771,9.771,0,0,1,.055-2.365c0,0.737,0,1.5,0,2.365l8.441-.715V11.779c0.024-.51-0.4-3.177.386-3.52A0.875,0.875,0,0,1,13.3,8.2V8.039a13.037,13.037,0,0,1-2.814-.22h0.11a11.69,11.69,0,0,1,2.7-.055,0.689,0.689,0,0,1,.717-0.88,2.354,2.354,0,0,1,.331.385,3.611,3.611,0,0,0,.11.55,10.1,10.1,0,0,1,2.924.055C16.414,7.883,15.5,8.032,14.4,8.039V8.2h0.441a3.15,3.15,0,0,1,.331.44,5.445,5.445,0,0,1,0,2.695,0.427,0.427,0,0,0,.11.275v0.11h-0.11l0.055,0.55a14.749,14.749,0,0,0,2.924-.22v-0.66c0.257-.424-0.035-2.465.11-3.135l0.276-4.234a8.39,8.39,0,0,1,.331-1.375A2.449,2.449,0,0,0,19.2,1.385H18.924V1.275H19.2V1h0.11V1.275Z"/>
</svg>
