<svg xmlns="http://www.w3.org/2000/svg" width="40" height="40" viewBox="0 0 40 40">
  <defs>
    <style>
      .cls-1 {
        fill: #fff;
        fill-rule: evenodd;
      }
    </style>
  </defs>
  <path id="Color_Fill_1" data-name="Color Fill 1" class="cls-1" d="M21.928,10.852a8.384,8.384,0,0,1,1.782.167l1.2,0.083,0.332-.042c0.446,0.121,1.148.138,1.658,0.251h0.456a9.212,9.212,0,0,0,1.658.167V10.267H29.1v1.212h0.083a4.682,4.682,0,0,0,1.285.125V10.267h0.083v1.379a14.085,14.085,0,0,1,2.736.251c0.752,0.166,1.536.054,2.238,0.209l0.912,0.042c1.022,0.228,2.3.168,3.233,0.418,0.485,0.739.354,2.7,0.083,3.593a1.014,1.014,0,0,1-.539.919,5.54,5.54,0,0,0-.7.125c-0.6.149-1.229,0.114-1.782,0.251l-0.912.084c-0.959.23-2.071,0.224-3.026,0.46l-1.824.209a4.054,4.054,0,0,1-1.451.167c-0.655.218-1.458,0.157-2.2,0.334-1.769.425-3.716,0.435-5.513,0.794a35.121,35.121,0,0,1-.415,4.094l-0.083,1c-0.154.67-.125,1.407-0.29,2.131a8.43,8.43,0,0,0-.207,1.5H20.85v0.042a7.413,7.413,0,0,1,1.617.5c1.223,0.414,2.462.729,3.648,1.128,0.415,0.14,1.435.269,1.575,0.627,0.3,0.316.282,2.2-.29,2.256a5.105,5.105,0,0,1-1.534,0h-4.1a12.474,12.474,0,0,0-1.534,0c-0.26.441,0.084,1.7-.249,2.214l-0.207-2.256a10.148,10.148,0,0,1-2.321.042c-1.671,0-3.468.11-5.016,0a0.737,0.737,0,0,1-.124-0.167,3.659,3.659,0,0,1-.042-2.131,12.167,12.167,0,0,1,2.28-.794c0.953-.321,1.992-0.641,2.943-0.961a7.433,7.433,0,0,0,1.658-.5,0.284,0.284,0,0,0,.041-0.167,13.507,13.507,0,0,1-.29-2.214c-0.157-.682-0.176-1.484-0.332-2.172l-0.041-.71A18.981,18.981,0,0,1,18.2,19.5H18.114a7.293,7.293,0,0,0-1.534-.209c-1.051-.25-2.226-0.2-3.316-0.46-2.091-.5-4.232-0.408-6.342-0.919l-1.534-.167c-0.964-.227-2.015-0.18-3.026-0.418a8.768,8.768,0,0,0-1.7-.251,2.981,2.981,0,0,1-.332-0.459,6.242,6.242,0,0,1-.29-2.549,6.794,6.794,0,0,1,.083-1.212c0.427-.7,1.593-0.379,2.528-0.585,0.842-.186,1.814-0.056,2.694-0.251,0.567-.125,1.209-0.032,1.824-0.167a11.491,11.491,0,0,1,2.28-.209V10.267H9.534V11.6a6.745,6.745,0,0,0,1.368-.125V10.267h0.083v1.212c2.212-.013,4.6-0.6,7.047-0.627,0.157-1.489-.27-3.15.041-4.6q0.021-.376.041-0.752a6.86,6.86,0,0,1,.456-0.836H18.529a1.644,1.644,0,0,1-.788,0L15.668,4.5a3.548,3.548,0,0,1-1.119-.084,0.118,0.118,0,0,1-.041-0.042l0.124-.042a6.162,6.162,0,0,1,1.575-.125,7.242,7.242,0,0,1,2.86,0A6.423,6.423,0,0,0,20.435,4V4.042H20.394a0.481,0.481,0,0,1-.124.084V4.167a15.484,15.484,0,0,1,3.523.084c0.53,0.119,1.194.026,1.7,0.125V4.418H25.451a3.647,3.647,0,0,1-.87.042c-0.427.092-.945-0.016-1.409,0.084a5.34,5.34,0,0,1-1.865.084V4.71c0.708,0.342.443,0.867,0.622,1.713a7.536,7.536,0,0,1,0,2.632v1.8Z"/>
</svg>
