<svg xmlns="http://www.w3.org/2000/svg" width="39.969" height="40" viewBox="0 0 39.969 40">
  <defs>
    <style>
      .cls-1 {
        fill: #fff;
        fill-rule: evenodd;
      }
    </style>
  </defs>
  <path id="Color_Fill_1" data-name="Color Fill 1" class="cls-1" d="M21.918,10.883c2.5-.022,4.579.563,7.073,0.6V10.28h0.1v1.256l1.345,0.1V10.28h0.1v1.357L37.26,12.29c1.347,0.3,2.672-.428,2.64,1.357a2.556,2.556,0,0,1,.05,1c-0.025.725-.185,2.233-0.7,2.412v0.05H39.2a2.123,2.123,0,0,0-.05-0.854v0.854a33.329,33.329,0,0,0-4.134.6l-2.939.352a13.032,13.032,0,0,1-2.541.352,0.656,0.656,0,0,0-.05-0.352v0.4A11.492,11.492,0,0,0,27,18.822l-1.843.2c-1.062.249-2.282,0.357-3.387,0.5-0.034,3.065-.761,5.851-1,8.742a19.543,19.543,0,0,1,2.341.754c1,0.337,1.991.552,2.939,0.9,0.5,0.186,1.469.2,1.644,0.7a3.863,3.863,0,0,1,0,2.06,0.747,0.747,0,0,1-.2.1,7.977,7.977,0,0,1-1.992.05c-1.8,0-3.6-.041-5.33-0.05l-0.1,1.407a3.459,3.459,0,0,1,.149.5H20.075a2.313,2.313,0,0,1-.149.3V34.7H19.676V34.6a2.976,2.976,0,0,0,0-1.909,6.6,6.6,0,0,1-1.793.151H12.4a3.274,3.274,0,0,1-.149-2.361,36.221,36.221,0,0,1,3.587-1.156c1.068-.36,2.205-0.8,3.338-1.055v-0.05a10.971,10.971,0,0,1-.3-2.261c-0.229-.982-0.166-2.069-0.4-3.115a16.641,16.641,0,0,1-.3-3.316L0.8,17.114a2.123,2.123,0,0,0-.05-0.854,1.284,1.284,0,0,1-.1.854c-0.763-1.072-.624-2.5-0.6-4.22A1.881,1.881,0,0,1,.6,12.441l2.59-.2,6.227-.6V10.28h0.1v1.357l1.3-.1a4.755,4.755,0,0,0,.05-1.256h0.1v1.206c2.47,0,4.549-.579,7.024-0.6a6.929,6.929,0,0,0,.05-1.809,2.765,2.765,0,0,1-.1-1.156c0-.877.01-2.9,0.6-3.115a4.678,4.678,0,0,1,.947-0.151A0.325,0.325,0,0,0,19.228,4.5a2.761,2.761,0,0,1-1.644.2,15.588,15.588,0,0,0-3.039-.2L14.5,4.352h0.1C15.05,4.069,15.9,4.329,16.488,4.2A10.092,10.092,0,0,1,18.58,4.05c0.2,0.046.482,0.169,0.7,0.2,0.11,0.016.907-.238,1.146-0.251V4.05a0.545,0.545,0,0,0-.149.1,24.2,24.2,0,0,1,3.985.151c0.43,0.1.849-.018,1.2,0.1v0.05H25.206a5.353,5.353,0,0,1-1.3.05c-0.418.089-.924,0-1.395,0.1a3.163,3.163,0,0,1-1.046.1c-0.282-.062-0.575-0.161-0.9-0.2-0.048.073-.178,0.11-0.1,0.151a3.063,3.063,0,0,0,.947.1C22.281,6.089,21.919,8.794,21.918,10.883ZM10.411,17.767a1.358,1.358,0,0,0,.05.6A1.36,1.36,0,0,0,10.411,17.767Zm9.166,14.118a0.244,0.244,0,0,0,.05.151V31.885h-0.05Zm0.7,0.1a0.424,0.424,0,0,0,.05.251A0.424,0.424,0,0,0,20.274,31.985Zm-0.648.251a0.327,0.327,0,0,0,.05.2A0.327,0.327,0,0,0,19.626,32.237Z" transform="translate(-0.031 0.5)"/>
</svg>
