<svg xmlns="http://www.w3.org/2000/svg" width="40" height="40" viewBox="0 0 40 40">
  <defs>
    <style>
      .cls-1 {
        fill: #fff;
        fill-rule: evenodd;
      }
    </style>
  </defs>
  <path id="Color_Fill_1" data-name="Color Fill 1" class="cls-1" d="M20.723,7.049h0.193c-0.043,3.308.887,5.381,0.916,8.585h0.289v-0.1l0.289,0.049a17.261,17.261,0,0,0,1.976-.1l1.108-.049c0.967-.226,2.039-0.41,2.988-0.638l4.145-.147c0.725-.156,1.576.07,2.361-0.1a3.4,3.4,0,0,1,1.2-.049c0.86,0.217,1.765.415,2.651,0.687A5.474,5.474,0,0,0,40,15.487a2.659,2.659,0,0,1-.145.589,17.11,17.11,0,0,0-2.8.49l-8.434.049-4.048.1a10.221,10.221,0,0,0-2.747-.392v1.57c0.764,0.247,1.86.5,2.8,0.736l2.554,0.2c1.252,0.327,2.618.646,3.855,1.03l1.59,0.343,2.843,1.717-0.241.393-2.41-.294c-2.06-.576-4.242-1.177-6.265-1.864-0.885-.3-1.762-0.38-2.651-0.687-0.516-.178-1.005-0.612-1.494-0.785a5.334,5.334,0,0,0-.578-0.1A4.762,4.762,0,0,1,21.59,19.8c-0.176.662-.238,1.343-0.386,1.962q-0.217,4.243-.434,8.487a0.827,0.827,0,0,1,.434.883A5.191,5.191,0,0,1,21.253,33H20.868a9.412,9.412,0,0,1-.626-0.932,2.378,2.378,0,0,1-.482.049c-0.311.348-.345,0.889-1.012,0.883-0.02-.821.04-1.492,0.048-2.355a0.99,0.99,0,0,0,.434-0.981,4.27,4.27,0,0,1-.048-0.932c-0.119-.55.034-1.209-0.1-1.815-0.122-.565.038-1.241-0.1-1.864-0.116-.539-0.029-1.274-0.145-1.815V22.306c-0.147-.676-0.224-1.344-0.386-1.962a8.293,8.293,0,0,0-.337-1.766c-0.125.079-.264,0-0.53,0.1-0.449.158-.907,0.548-1.349,0.736-0.9.384-2.033,0.469-2.988,0.785-1.969.652-4.077,1.235-6.072,1.815l-2.458.294a0.643,0.643,0,0,0-.193-0.343,0.138,0.138,0,0,1,.048-0.049,5.809,5.809,0,0,1,1.06-.638A12.556,12.556,0,0,1,7.373,20.2c0.5-.2,1.021-0.184,1.542-0.343,1.264-.386,2.643-0.666,3.9-1.03l1.59-.1c0.935-.221,1.845-0.273,2.651-0.54,0.237-.078,1.068-0.235,1.109-0.294v-1.57a11.192,11.192,0,0,0-2.8.392l-4.337-.1h-3.9a10.832,10.832,0,0,1-2.024-.049H2.94c-0.347-.081-0.811-0.159-1.157-0.245A16.549,16.549,0,0,1,.1,16.026L0,15.487a6.128,6.128,0,0,0,1.494-.393c0.729-.242,1.568-0.409,2.265-0.589a3.452,3.452,0,0,1,1.253.049c0.743,0.172,1.656-.065,2.361.1L11.518,14.8c0.924,0.225,2,.407,2.94.638l1.157,0.049a9.135,9.135,0,0,0,1.735.1,1.183,1.183,0,0,1,.482-0.049,0.594,0.594,0,0,0,.337.1,15.019,15.019,0,0,1,.53-4.219,19.2,19.2,0,0,0,.386-4.366h0.193V7.442h0.048A0.627,0.627,0,0,1,19.9,7.049a0.728,0.728,0,0,1,.434,0,1.376,1.376,0,0,0,.386.392V7.049Z" transform="translate(0 -0.016)"/>
</svg>
