<svg xmlns="http://www.w3.org/2000/svg" width="39.938" height="40" viewBox="0 0 39.938 40">
  <defs>
    <style>
      .cls-1 {
        fill: #fff;
        fill-rule: evenodd;
      }
    </style>
  </defs>
  <path id="Color_Fill_1" data-name="Color Fill 1" class="cls-1" d="M25.657,12.871h10c1.458,0,3.209-.178,3.838.664a2.058,2.058,0,0,1,.455,1.584c-0.029.124-.2,0.478-0.2,0.562a1.6,1.6,0,0,0,.151.358,2.392,2.392,0,0,1-.05,1.278c-0.965,2.607-4.369,2.065-7.828,2.044A17.479,17.479,0,0,1,30.4,21.712c-1.291,1.857-2.489,3.735-3.737,5.622-0.391.592-.809,1.18-1.212,1.789a2.709,2.709,0,0,0-.454.664h0.05a2.486,2.486,0,0,1,.707.818,2.648,2.648,0,0,1,.1,1.124,1.641,1.641,0,0,1,.05.409,1.937,1.937,0,0,1-.657,1.227c-0.753.508-3.638,0.268-4.9,0.255V33.262h-0.1a2.028,2.028,0,0,0-.1.971,1.743,1.743,0,0,0-.1.767h-0.1V34.642a3,3,0,0,1-.1-1.278,0.754,0.754,0,0,0-.2-0.1V33.62c-1.171.017-3.887,0.2-4.7-.153a1.671,1.671,0,0,1-.859-1.687,5.639,5.639,0,0,1,.1-1.022A1.952,1.952,0,0,1,14.7,29.94a0.512,0.512,0,0,0,.3-0.256,11.036,11.036,0,0,1-1.414-2.1c-1.253-1.809-2.575-3.63-3.788-5.468-0.436-.661-0.886-1.3-1.313-1.942a5.522,5.522,0,0,0-.505-0.818h-5.3a4.192,4.192,0,0,0-.657-0.2A3.965,3.965,0,0,1,.505,17.981a2.485,2.485,0,0,1-.253-2.249c-0.026-.16-0.161-0.436-0.2-0.613a1.989,1.989,0,0,1,.606-1.738c0.879-.675,2.642-0.511,4.192-0.511h9.495c-0.049-2.949-.1-6.309,1.313-7.819a0.548,0.548,0,0,1,.455.051c0.575,0.225.495,1.309,0.909,1.533,0.473-.3,1.64.062,2.273-0.1a1.678,1.678,0,0,1,.505-0.1c0.057-.211.088-0.208,0.354-0.2,0.057,0.211.088,0.208,0.354,0.2a10.161,10.161,0,0,0,2.576.153,4.2,4.2,0,0,1,.808-1.533,0.548,0.548,0,0,1,.454.051c0.525,0.2.627,1.07,0.808,1.635A22.041,22.041,0,0,1,25.657,12.871ZM17.424,10.52h0.859l-0.051-.358a0.256,0.256,0,0,1-.252-0.153c0.462-.612-0.036-2.025.354-2.606a1.773,1.773,0,0,1,1.313-.2,0.734,0.734,0,0,0,.05-0.2,0.536,0.536,0,0,1-.354-0.051c-0.791-.145-1.622.041-2.323-0.1V7.1A11.631,11.631,0,0,1,17.424,10.52Zm4.344-.358-0.051.358h0.859a10.787,10.787,0,0,1,.454-3.68H22.778c-0.5.3-2.189-.158-2.475,0.307h0.05a2.876,2.876,0,0,0,1.111.051,3.5,3.5,0,0,1,.354,1.789l-0.05.511a1.02,1.02,0,0,1,.2.562A0.2,0.2,0,0,1,21.768,10.162Zm-4.344,1.022v1.687h0.1V12.819a0.773,0.773,0,0,0,0-.409,0.705,0.705,0,0,1,.2-0.051,0.181,0.181,0,0,0,.1.051c-0.029.151-.1,0.159,0.05,0.255a2.593,2.593,0,0,0,.455-1.635h-0.1A1.873,1.873,0,0,1,17.424,11.184Zm5.152,1.687V11.184l-0.909-.153V11.8C21.973,12.225,21.875,12.835,22.576,12.871Zm-4.242-.92-0.152.46h0.05a0.452,0.452,0,0,1,.152-0.153C18.353,12.16,18.348,11.975,18.333,11.951Zm3.283,0c0.05,0.179,0,.209.05,0.358l0.152,0.1v-0.1A1.9,1.9,0,0,0,21.616,11.951Zm-3.232.92v-0.2h-0.1a0.776,0.776,0,0,0-.1.2h0.2Zm3.232,0h0.253V12.819a0.911,0.911,0,0,0-.253-0.153v0.2Zm-3.131,6.491H17.273c-0.078,1.722-.512,5.08-1.364,5.928a0.172,0.172,0,0,1-.1-0.051,2.089,2.089,0,0,1-.556-1.278,20.724,20.724,0,0,1-.758-4.6H8.232v0.051a7.212,7.212,0,0,1,.707,1.073c0.557,0.8,1.1,1.632,1.667,2.453,0.815,1.176,1.6,2.384,2.424,3.578a18.445,18.445,0,0,1,1.414,2.044,5.488,5.488,0,0,0,.909-0.409c0.774-.335,1.538-0.648,2.273-0.971,0.5-.222,1.177-0.148,1.162-0.92-0.291-.477-0.015-1.325-0.152-1.942a8.832,8.832,0,0,1-.1-3.118Q18.51,20.281,18.485,19.361Zm3.03,0q-0.025.92-.051,1.84a5.864,5.864,0,0,1,0,1.891v0.92a13.983,13.983,0,0,0-.253,2.709c1.047,0.461,2.138.818,3.182,1.329a2.748,2.748,0,0,0,1.162.46,8.9,8.9,0,0,0,.808-1.227c0.557-.8,1.1-1.632,1.667-2.453,0.779-1.125,1.533-2.282,2.323-3.424a19.489,19.489,0,0,0,1.414-2.044H25.505c-0.077,1.716-.514,5.082-1.364,5.928a0.172,0.172,0,0,1-.1-0.051,2.089,2.089,0,0,1-.556-1.278,20.683,20.683,0,0,1-.758-4.6H21.515ZM19.192,29.583a10.005,10.005,0,0,0-.3-1.942,2.213,2.213,0,0,0-.1-0.715,4.573,4.573,0,0,1-1.212.511c-0.567.249-1.2,0.571-1.768,0.818a2.625,2.625,0,0,0-1.212.562,2.713,2.713,0,0,1,.606.869A21.913,21.913,0,0,1,19.192,29.583Zm1.616,0h2.929a7.778,7.778,0,0,0,1.061.051,2.8,2.8,0,0,0,.606-0.92A8.832,8.832,0,0,1,23.737,28c-0.875-.384-1.743-0.662-2.576-1.073Zm-1.162,2.709a1.632,1.632,0,0,0,.151.869A1.876,1.876,0,0,0,19.647,32.291Zm0.657,0a2.753,2.753,0,0,1-.152.869h0.1A1.776,1.776,0,0,0,20.3,32.291Zm-0.657.767v0.1H19.7A0.177,0.177,0,0,0,19.647,33.058Zm0.657,0v0.1h0.05A0.175,0.175,0,0,0,20.3,33.058Z" transform="translate(-0.031 -0.031)"/>
</svg>
