<svg xmlns="http://www.w3.org/2000/svg" width="40" height="40" viewBox="0 0 40 40">
  <defs>
    <style>
      .cls-1 {
        fill: #fff;
        fill-rule: evenodd;
      }
    </style>
  </defs>
  <path id="Color_Fill_1" data-name="Color Fill 1" class="cls-1" d="M24.139,10.319a4.108,4.108,0,0,1-1.014-.3c-0.7-.232-1.388-0.43-2.088-0.607V9.833a0.931,0.931,0,0,1,.03.395h0.119a0.085,0.085,0,0,0,.03.03l0.09,0.728a1.254,1.254,0,0,1,.239.213l0.03,0.577c0.024,0.092.1,0.2,0.119,0.3L21.812,13.9a3.053,3.053,0,0,1,.3.455l0.03,0.7a3.194,3.194,0,0,0,.358.425c0.336,0.474.718,0.93,1.014,1.426h0.03v-0.03A0.31,0.31,0,0,0,23.6,16.6c0.206-.353-0.146-1.153.179-1.426v-0.03h0.03v0.03a4.923,4.923,0,0,1,.149,1.973v0.394a2.516,2.516,0,0,1,.447.607c0.316,0.448.663,0.88,0.985,1.335,0.656,0.928,1.367,1.825,2.029,2.762a10.993,10.993,0,0,1,.925,1.244h0.03V22.337c0.041-.065.044-0.184,0.09-0.243a0.151,0.151,0,0,1,.09-0.03l0.03,0.091c0.236,0.328-.091,1.293.06,1.73a3.172,3.172,0,0,0,.477.607c0.267,0.378.509,0.746,0.776,1.123a5.435,5.435,0,0,1,.477.637H30.4V24.613a2.6,2.6,0,0,0,.09-0.637h0.06a25.672,25.672,0,0,1,.09,2.64,2.056,2.056,0,0,1,.328.455c0.229,0.325.481,0.639,0.716,0.971a3.44,3.44,0,0,1,.567.759h0.03v-0.85a2.845,2.845,0,0,0,.09-0.546,1.36,1.36,0,0,1,.179-0.3l0.09,0.03a5.349,5.349,0,0,1,.239,1.73v1.3a0.42,0.42,0,0,0,.09.061,5.8,5.8,0,0,1-.09.911q0.015,0.971.03,1.942a0.242,0.242,0,0,1-.179.091,0.6,0.6,0,0,0-.447-0.061V31.472a1.749,1.749,0,0,0-.03-0.637v1.032a5.894,5.894,0,0,0-1.223.061c-0.428.094-.892-0.025-1.283,0.061H29.122c-0.4.061-.919,0-1.313,0.091l-1.283.03-4,.212V30.744a1.654,1.654,0,0,0-.03-0.607v3.4a0.719,0.719,0,0,0-.6.546,5.5,5.5,0,0,0-.09,1.093l-0.239,1.578a7.251,7.251,0,0,0-1.164.03c-0.234.047-.451-0.087-0.567-0.03a0.233,0.233,0,0,0-.09-0.091,0.14,0.14,0,0,1-.149.061c0,1.042-.095,2.216-0.06,3.217-0.072.027-.047,0.032-0.119,0.061a1.078,1.078,0,0,1-.06-0.182,5.342,5.342,0,0,0,0-.91q-0.015-1.092-.03-2.185a0.2,0.2,0,0,1-.179-0.091v0.091a13.04,13.04,0,0,1-1.79.03,7.7,7.7,0,0,0-.209-1.366l-0.119-1.548a1.193,1.193,0,0,1-.567-0.334,4.826,4.826,0,0,1-.03-1.184L11.7,32.079a7.218,7.218,0,0,0-.03-1.608v1.608l-5.012-.212a2.185,2.185,0,0,1-.269,1.244L6.3,33.08A5.784,5.784,0,0,1,6.06,30.9c-0.01-1.078-.166-3.04.3-3.794l0.09,0.03a4.112,4.112,0,0,1,.239,1.639h0.03v-0.03a1.77,1.77,0,0,0,.269-0.364h0.06a0.268,0.268,0,0,0,.09.091,0.357,0.357,0,0,1-.09-0.182,5.261,5.261,0,0,0,.806-1.093A3.872,3.872,0,0,0,8.3,26.646v-2c0.116-.2.019-0.529,0.149-0.7v0.061a7.959,7.959,0,0,1,.089,2.276h0.03V26.222a1.908,1.908,0,0,0,.358-0.485c0.28-.4.582-0.775,0.865-1.184a4.116,4.116,0,0,0,.507-0.637V22.458a2.613,2.613,0,0,0,.09-0.364c0.086-.015.055-0.037,0.119,0.03a3.123,3.123,0,0,1,.089,1.335h0.03a9.861,9.861,0,0,1,.6-0.789c0.525-.742,1.1-1.447,1.611-2.185,0.455-.656.948-1.27,1.4-1.912a6.944,6.944,0,0,1,.746-1.032,8.3,8.3,0,0,1,.149-2.367h0.06l0.03,0.061a3.661,3.661,0,0,1,.119,1.608,0.113,0.113,0,0,1,.089.061h0.03a2.056,2.056,0,0,1,.358-0.486c0.293-.423.569-0.826,0.865-1.244a3.27,3.27,0,0,0,.418-0.516V14.234a2.053,2.053,0,0,0,.03-0.455c0.076-.357.005-0.762,0.09-1.153,0.051-.239.093-0.571,0.149-0.759q0.015-.319.03-0.637a1.129,1.129,0,0,1,.239-0.243l0.119-.759h0.119l0.06-.819a6.489,6.489,0,0,0-1.283.395c-0.622.209-1.264,0.3-1.85,0.546V9.256a5.9,5.9,0,0,0,.806-0.819c0.6-.612,1.188-1.239,1.79-1.851a2.231,2.231,0,0,0,.835-1.032,2,2,0,0,0,.06-0.486c0.105-.459.089-0.955,0.209-1.426A22.112,22.112,0,0,1,19.455,0h0.06a1.772,1.772,0,0,0,.149.395c0.107,0.319.173,0.645,0.268,0.941L20.47,3.763l0.268,1.973a3.629,3.629,0,0,0,.776.819l1.85,1.912,0.776,0.759v1.093Zm7.7,18.088-0.03.061C31.859,28.425,31.837,28.407,31.837,28.407Z" transform="translate(0.5)"/>
</svg>
