<svg xmlns="http://www.w3.org/2000/svg" width="46" height="46" viewBox="0 0 46 46">
  <metadata><?xpacket begin="﻿" id="W5M0MpCehiHzreSzNTczkc9d"?>
<x:xmpmeta xmlns:x="adobe:ns:meta/" x:xmptk="Adobe XMP Core 5.6-c138 79.159824, 2016/09/14-01:09:01        ">
   <rdf:RDF xmlns:rdf="http://www.w3.org/1999/02/22-rdf-syntax-ns#">
      <rdf:Description rdf:about=""/>
   </rdf:RDF>
</x:xmpmeta>
                                                                                                    
                                                                                                    
                                                                                                    
                                                                                                    
                                                                                                    
                                                                                                    
                                                                                                    
                                                                                                    
                                                                                                    
                                                                                                    
                                                                                                    
                                                                                                    
                                                                                                    
                                                                                                    
                                                                                                    
                                                                                                    
                                                                                                    
                                                                                                    
                                                                                                    
                                                                                                    
                           
<?xpacket end="w"?></metadata>
<defs>
    <style>
      .cls-1, .cls-2 {
        fill-rule: evenodd;
      }

      .cls-2 {
        fill: #fff;
      }
    </style>
  </defs>
  <path class="cls-1" d="M35,35H20a1,1,0,0,1-.707-0.293L15.586,31H11c-0.552,0-1-1.627-1-2.18C10,29.373,9.552,31,9,31H7a1,1,0,0,1-1-1V18a1,1,0,0,1,1-1H9c0.552,0,1,1.842,1,2.394h0c0-.552.448-2.394,1-2.394h3.538l1.7-2H16a1,1,0,0,1-1-1V12a1,1,0,0,1,1-1H28a1,1,0,0,1,1,1v2a1,1,0,0,1-.43.822L32.273,17H35c0.552,0,1,1.842,1,2.394h0c0-.552.448-2.394,1-2.394h2a1,1,0,0,1,1,1V30a1,1,0,0,1-1,1H37c-0.552,0-1-1.627-1-2.18V34A1,1,0,0,1,35,35Z"/>
  <path class="cls-2" d="M37,30V27H35v7H20l-4-4H11V26H9v4H7V18H9v4h2V18h4l2.55-3H19V14H16V12H28v2H25v1h1.9L32,18h3v3h2V18h2V30H37Z"/>
</svg>
