<svg xmlns="http://www.w3.org/2000/svg" width="40" height="40" viewBox="0 0 40 40">
  <defs>
    <style>
      .cls-1 {
        fill: #fff;
        fill-rule: evenodd;
      }
    </style>
  </defs>
  <path id="Color_Fill_1" data-name="Color Fill 1" class="cls-1" d="M20.615,8.772h0.2v0.4l0.941,0.05L22,11.228c0.118,0.546-.008,1.154.1,1.654q0.025,1.3.05,2.607a5.673,5.673,0,0,0,.793,1.053c0.656,0.942,1.417,1.618,2.081,2.506L25.817,19.8a12.324,12.324,0,0,0,1.09,1.253L27.4,21.5a4.236,4.236,0,0,0,1.04,1.1,0.535,0.535,0,0,1,.05-0.3c0.218,0.336.559,0.587,0.793,0.9,0.689,0.929,1.49,1.729,2.18,2.657,0.449,0.6,1.086.773,1.09,1.855H32.7a0.622,0.622,0,0,0,.149.251l0.05,1.353a9.641,9.641,0,0,1-.05,2.406,8.293,8.293,0,0,0-.2,1.3,8.893,8.893,0,0,1-2.229-1.454,1.49,1.49,0,0,1-.347-0.1c-0.487-.311-0.98-0.629-1.486-0.952-1.364-.871-2.633-1.7-4.062-2.607-0.536-.342-1.078-0.7-1.635-1.053a2.733,2.733,0,0,0-.991-0.6,0.582,0.582,0,0,0-.1.351,9.658,9.658,0,0,0-.1,1.8c-0.139.649,0,1.409-.149,2.105l-0.347,2.607a4.8,4.8,0,0,1,.793.952c0.432,0.579,1,1.063,1.437,1.654a4.1,4.1,0,0,1,1.09,1.5A6.962,6.962,0,0,1,24.38,40a4.054,4.054,0,0,0-.991-0.8c-0.758-.568-1.459-1.227-2.229-1.8a2.6,2.6,0,0,0-1.09-.8c-0.066.062-.178,0.091-0.248,0.15a2.6,2.6,0,0,0,0,.7,1.888,1.888,0,0,1-.2.551h-0.1c-0.18.345,0.138,1-.05,1.3v-1.3a2.626,2.626,0,0,1-.248-0.351c-0.073-.244.082-0.759,0-0.9-0.045-.078-0.279-0.118-0.347-0.2a7.72,7.72,0,0,0-1.04.852c-1.112.834-2.123,1.84-3.27,2.606a8.564,8.564,0,0,1-.05-2.957,5.113,5.113,0,0,1,1.139-1.4,19.44,19.44,0,0,1,2.13-2.506,7.789,7.789,0,0,0-.2-1.253L17.3,28.17c-0.03-.559.139-1.8-0.347-1.9a2.452,2.452,0,0,1-.644.4c-0.536.343-1.078,0.7-1.635,1.053-1.756,1.122-3.55,2.238-5.3,3.409-0.614.41-1.243,0.795-1.883,1.2a3.315,3.315,0,0,1-1.139.7A17.018,17.018,0,0,1,6.1,29.574l0.05-1.6c0.038-.087.254-0.171,0.3-0.251V27.068a6.328,6.328,0,0,1,.842-0.9c0.582-.78,1.31-1.439,1.883-2.206a8.4,8.4,0,0,1,1.387-1.654,0.656,0.656,0,0,0,.05.351c0.331-.51.884-0.829,1.239-1.3,0.9-1.21,2.118-2.148,3.022-3.358l0.743-.7c0.345-.478.605-0.967,0.941-1.454a2.032,2.032,0,0,0,.347-0.451V13.083c0.113-.532-0.024-1.181.1-1.754l0.248-2.105,0.941-.05V8.722h0.049a0.251,0.251,0,0,0,.149.05c0-1.714.049-3.288,0.05-4.762a0.142,0.142,0,0,0,.05-0.05h0.049c0.021,0.179-.023.126,0.1,0.2V3.81a3.446,3.446,0,0,0,.2-1l-0.049-.351C19,1.771,19.153.806,19.327,0.05l0.3-.05a14.281,14.281,0,0,1,.4,1.955,8.233,8.233,0,0,1,.347,2.155h0.1a0.19,0.19,0,0,1,.1-0.15V4.612a1.327,1.327,0,0,0-.05.9A18.619,18.619,0,0,1,20.615,8.772Z"/>
</svg>
