<?xml version="1.0" encoding="UTF-8"?>
<svg xmlns="http://www.w3.org/2000/svg" width="22" height="22" xmlns:xlink="http://www.w3.org/1999/xlink" viewBox="0 0 22 22">
  <defs>
    <style>
      .cls-1 {
        fill: #1a293c;
      }

      .cls-2 {
        fill: #e6e2d5;
      }

      .cls-3 {
        fill: #f9f9f9;
      }

      .cls-4 {
        fill: #bab1a8;
      }

      .cls-5 {
        fill: #42413d;
      }

      .cls-6 {
        fill: #1d333c;
      }

      .cls-7 {
        fill: #716f68;
      }

      .cls-8 {
        fill: url(#linear-gradient);
      }

      .cls-9 {
        fill: #1e5473;
      }
    </style>
    <linearGradient id="linear-gradient" x1="11" y1="17" x2="11" y2="3" gradientUnits="userSpaceOnUse">
      <stop offset="0" stop-color="#213360"/>
      <stop offset="1" stop-color="#75d2ed"/>
    </linearGradient>
  </defs>
  <g id="Layer_9" data-name="Layer 9">
    <polygon points="20 5 20 16 20.44 16 22 17.59 22 19.43 20.41 21 1.56 21 0 19.41 0 17.57 1.58 16 2 16 2 8.04 0 6.43 0 4.62 1.39 3.02 20.12 -.04 22 1.52 22 3.35 20.6 5 20 5"/>
  </g>
  <g id="Layer_6" data-name="Layer 6">
    <polygon class="cls-8" points="4 5 18 3 18 17 4 17 4 5"/>
    <g>
      <polygon class="cls-2" points="2 19.5 1.5 19 1.5 18 2 17.5 20 17.5 20.5 18 20.5 19 20 19.5 2 19.5"/>
      <path class="cls-7" d="M20,18v1H2v-1h18M20,17H2l-1,1v1l1,1h18l1-1v-1l-1-1h0Z"/>
    </g>
    <rect class="cls-5" x="16" y="18" width="1" height="2"/>
    <rect class="cls-5" x="5" y="18" width="1" height="2"/>
    <rect class="cls-2" x="13" y="13" width="2" height="5.25"/>
    <rect class="cls-2" x="7" y="13" width="2" height="5.25"/>
    <rect class="cls-7" x="7" y="13" width="2" height="1"/>
    <rect class="cls-7" x="13" y="13" width="2" height="1"/>
    <rect class="cls-1" x="9" y="13" width="4" height="1"/>
    <rect class="cls-9" x="7" y="6" width="1" height="4"/>
    <rect class="cls-9" x="10" y="5" width="1" height="5"/>
    <rect class="cls-9" x="13" y="4" width="1" height="6"/>
    <rect class="cls-9" x="16" y="3" width="1" height="8"/>
    <g>
      <polygon class="cls-3" points="6 12.5 5.5 12 5.5 11 6 10.5 16 10.5 16.5 11 16.5 12 16 12.5 6 12.5"/>
      <path class="cls-4" d="M16,11v1H6v-1h10M16,10H6l-1,1v1l1,1h10l1-1v-1l-1-1h0Z"/>
    </g>
    <rect class="cls-4" x="3" y="6" width="1" height="11"/>
    <rect class="cls-4" x="18" y="4" width="1" height="13"/>
    <polygon class="cls-6" points="19 5.26 3 7.9 3 6.56 19 3.92 19 5.26"/>
    <g>
      <polygon class="cls-2" points="1.5 6 1.5 5 1.92 4.51 19.92 1.51 20.5 2 20.5 3 20.08 3.49 2.08 6.49 1.5 6"/>
      <path class="cls-7" d="M20,2v1L2,6v-1l18-3M19.84,1.01L1.84,4.01l-.84.99v1l1.16.99,18-3,.84-.99v-1l-1.16-.99h0Z"/>
    </g>
  </g>
</svg>