<svg xmlns="http://www.w3.org/2000/svg" width="40" height="40" viewBox="0 0 40 40">
  <defs>
    <style>
      .cls-1 {
        fill: #fff;
        fill-rule: evenodd;
      }
    </style>
  </defs>
  <path id="Color_Fill_1" data-name="Color Fill 1" class="cls-1" d="M20.5,7.744a0.318,0.318,0,0,1,.2.067c-0.215.056-.1-0.033-0.2,0.135,0.323,0.537.048,1.451,0.2,2.155,0.327,1.524-.137,3.6.2,5.185,0.227,1.068-.171,1.774.4,2.492,0.431,0.256.562,0.058,0.531,0.808,0.273,0.435.046,2.993,0,3.569L27,24.849v3.367a8.618,8.618,0,0,0-1.792.4c-1.289.364-2.593,0.516-3.85,0.808a1.676,1.676,0,0,1-.265.337c0.011,2.211-.247,4.288-0.265,6.4,0.914,0.219,1.707.779,2.655,0.943v1.414L19.434,40a9.5,9.5,0,0,1-1.991-.808,12.493,12.493,0,0,1-1.925-.673V37.1l2.655-.943v-0.4A9.226,9.226,0,0,1,18.04,33.6c-0.185-1.242-.007-2.879-0.265-4.04a12.48,12.48,0,0,0-2.456-.606A24.93,24.93,0,0,0,12,28.216c0.013-.907,0-1.437,0-2.29V24.849a5.54,5.54,0,0,1,1.195-.606c0.979-.516,2.056-1.042,2.987-1.616a3.676,3.676,0,0,0,.929-0.4V20.875a8.78,8.78,0,0,1,.133-3.03c0.267,0.009.363,0.037,0.465-.135,0.713-.814.344-3.3,0.465-4.646a3,3,0,0,0-.133-1.616c0.46-.719.115-2.15,0.332-3.1,0.445-1.944.621-3.982,1.062-5.791C19.612,1.827,19.145.582,19.5,0,19.459,3.015,20.346,5.064,20.5,7.744Z" transform="translate(0.5)"/>
</svg>
