<svg xmlns="http://www.w3.org/2000/svg" width="40" height="39.969" viewBox="0 0 40 39.969">
  <defs>
    <style>
      .cls-1 {
        fill: #fff;
        fill-rule: evenodd;
      }
    </style>
  </defs>
  <path id="Color_Fill_1" data-name="Color Fill 1" class="cls-1" d="M29.815,21.8H30c0,2.268,0,4.785,0,7.055H29.815l-0.062-1.008-8.252.945v0.756c0.2,0.323.046,2.246,0.246,2.772,0.127,0.333-.159.8,0.062,0.882a3.726,3.726,0,0,0,.862.567c0.55,0.375,1.106.822,1.663,1.2a5.692,5.692,0,0,1,.924.567v0.756a1.559,1.559,0,0,0-.062.693l-4.064.315-0.246,2.646H20.763a4.148,4.148,0,0,1-1.17,0,2.5,2.5,0,0,0-.062-0.567H19.469v0.567a8.659,8.659,0,0,1-1.293,0V39.559a8.4,8.4,0,0,1-.246-2.268L13.8,36.976V35.528l3.51-2.331V32.378c0.318-.46.246-2.82,0.246-3.591H17.437l-8.129-.945L9.246,28.85H9.062c-0.021-2.245,0-4.8,0-7.055H9.246c0.027,1.161.06,2.521,0.062,3.779H9.37A17.98,17.98,0,0,0,11.094,24.5v-2.9a1.617,1.617,0,0,0,.246-0.756H11.4l0.062,0.693,0.185,0.063v2.52h0.123a5.934,5.934,0,0,1,1.416-.882,3.9,3.9,0,0,1,.308-1.827,4.62,4.62,0,0,0,.37,1.449c0.486-.608,1.679-0.862,2.279-1.386a2.757,2.757,0,0,0,.37-1.008,6.109,6.109,0,0,0,.677-2.835c1.011-.512.829-1.519,0.8-3.024a4.512,4.512,0,0,1-.246-1.2,11.315,11.315,0,0,1-.37-3.465,0.294,0.294,0,0,1,.185.063,2.331,2.331,0,0,1,.062.945,4.773,4.773,0,0,0,.308,2.394V13.291a2.868,2.868,0,0,0,.062-0.63c0.186-.842.044-2.19,0.246-3.15V8.441l0.431-3.78c0.238-.96.583-1.936,0.8-2.835V0h0.062V0.063c0.251,0.431-.084,1.285.062,1.827,0.046,0.171.109,0.4,0.185,0.63,1.29,3.99,1.1,9.479,1.108,14.677h0.123a0.536,0.536,0,0,1,.062-0.315,6.561,6.561,0,0,0,.677.756h0.123v1.323c0.531,0.612.49,1.675,0.924,2.394a2.61,2.61,0,0,0,.862.5,7.042,7.042,0,0,0,1.663,1.008,2.256,2.256,0,0,1,.308-1.386,11.128,11.128,0,0,0,.308,1.764,7.623,7.623,0,0,0,1.478.945V22.551a3.407,3.407,0,0,1,.246-1.7h0.062c0.108,0.9.547,2.541,0.185,3.654,0.663,0.206,1.107.8,1.786,1.008V22.551A2.068,2.068,0,0,0,29.815,21.8ZM17.683,26.457a0.537,0.537,0,0,0,.062.315A0.538,0.538,0,0,0,17.683,26.457Zm3.633,0a0.832,0.832,0,0,0,.062.441A0.832,0.832,0,0,0,21.317,26.457Zm-7.39.063a0.177,0.177,0,0,0,.246,0H13.927Zm10.962,0a0.177,0.177,0,0,0,.246,0H24.889Zm-11.763.063c0.106,0.056.079,0.056,0.185,0H13.126Zm12.625,0c0.106,0.056.079,0.056,0.185,0H25.751Zm-13.487.063a0.177,0.177,0,0,0,.246,0H12.264Zm14.287,0c0.106,0.055.079,0.056,0.185,0H26.551Zm-8.93.315a1,1,0,0,0,.062.5A1,1,0,0,0,17.622,26.961Zm3.757,0.189a0.832,0.832,0,0,0,.062.441A0.832,0.832,0,0,0,21.378,27.15Zm-3.818.756a0.678,0.678,0,0,0,.062.378A0.678,0.678,0,0,0,17.56,27.906Zm3.88,0.189a0.536,0.536,0,0,0,.062.315A0.538,0.538,0,0,0,21.44,28.095ZM17.5,33.134V33.26H17.56A0.217,0.217,0,0,0,17.5,33.134ZM21.44,33.26a1.353,1.353,0,0,0,.062.63A1.354,1.354,0,0,0,21.44,33.26Zm-3.88.189a1.352,1.352,0,0,0,.062.63A1.352,1.352,0,0,0,17.56,33.449Zm3.818,0.819a0.537,0.537,0,0,0,.062.315A0.538,0.538,0,0,0,21.378,34.268Zm-3.757.126a0.678,0.678,0,0,0,.062.378A0.678,0.678,0,0,0,17.622,34.394Zm0.062,0.882a0.309,0.309,0,0,0,.062.189A0.308,0.308,0,0,0,17.683,35.276Z" transform="translate(0.484)"/>
</svg>
