<svg xmlns="http://www.w3.org/2000/svg" width="40" height="40" viewBox="0 0 40 40">
  <defs>
    <style>
      .cls-1 {
        fill: #fff;
        fill-rule: evenodd;
      }
    </style>
  </defs>
  <path id="Color_Fill_1" data-name="Color Fill 1" class="cls-1" d="M21.5,12.774h0.2a6.66,6.66,0,0,1,.26-1.161,12.465,12.465,0,0,0,0-2.129,0.316,0.316,0,0,1,.2.065,1.929,1.929,0,0,1,.065.839,6.116,6.116,0,0,0-.065,1.29,15,15,0,0,0-.586,4.581,6.375,6.375,0,0,1,1.237,1.1v0.9a14.494,14.494,0,0,0,.781,1.226L24.1,21.936A8.472,8.472,0,0,1,25.923,23.1c1.079,0.677,2.145,1.319,3.189,2a6.161,6.161,0,0,1,1.757,1.161,5.449,5.449,0,0,1,.065,2c-1.368-.069-3.265.432-4.882,0.452a3.659,3.659,0,0,0-.065-1.419V28.71a2.7,2.7,0,0,1-.781.064,18.248,18.248,0,0,1-2.864.323l-0.26,4,4.036,2.516v1.1a0.554,0.554,0,0,0-.065.323l-4.361.258c0.011,1.123-.308,1.572-0.325,2.645H20a1.906,1.906,0,0,0-.065-0.839,1.717,1.717,0,0,1-.065.774,3.38,3.38,0,0,1-1.3.064l-0.13-1.355c-0.026-.063-0.236-0.2-0.26-0.258l0.065-.968L13.882,37.1V35.613a24.877,24.877,0,0,0,2.994-1.871c0.375-.235.932-0.272,0.976-0.839a13.087,13.087,0,0,1-.26-2.968,3.729,3.729,0,0,0-.065-1.29V29.1L13.3,28.645l-2.083-.129A9.3,9.3,0,0,0,9,28.258V26.194c0.406-.218,2.032-1.119,2.083-1.548a0.436,0.436,0,0,0,.325,0,3.131,3.131,0,0,0,.781-0.516l2.669-1.677a1.34,1.34,0,0,0,.976-0.839,8.249,8.249,0,0,0,.456-1.936c0.294-.88.834-1.091,0.846-2.387,0.447-.287.737-0.745,1.172-1.032a1.289,1.289,0,0,0,.065.452h0.065V16.645A4.278,4.278,0,0,0,18.5,15.1v-4A34.283,34.283,0,0,1,19.154,4a16.8,16.8,0,0,1,.456-2.387c0.056-.131.28-0.281,0.325-0.387C20.089,0.868,19.816.29,20,0a4.531,4.531,0,0,0,.456,2.129A26.647,26.647,0,0,0,21.107,4.9a1.651,1.651,0,0,1-.065.774,8.676,8.676,0,0,0,.13,1.548,20.651,20.651,0,0,1,.2,4.839A1.68,1.68,0,0,1,21.5,12.774Zm6.7,14.581a2.678,2.678,0,0,0,.065,1.1A2.68,2.68,0,0,0,28.2,27.355Z"/>
</svg>
