<svg xmlns="http://www.w3.org/2000/svg" width="40" height="40" viewBox="0 0 40 40">
  <defs>
    <style>
      .cls-1 {
        fill: #fff;
        fill-rule: evenodd;
      }
    </style>
  </defs>
  <path id="Color_Fill_1" data-name="Color Fill 1" class="cls-1" d="M20.9,35.679A8.3,8.3,0,0,1,20.7,37H19.3a6.656,6.656,0,0,1-.2-1.321,11.785,11.785,0,0,1-2.312-.3c-0.8-.193-1.664-0.037-2.412-0.2-0.632-.14-1.4.087-1.809-0.254a1.117,1.117,0,0,1-.151-1.118c1.429-.652,3.127-1.018,4.623-1.575,0.474-.177,1.5-0.2,1.508-0.813a6.046,6.046,0,0,1-.2-1.524c-0.372-1.626-.222-3.853-0.9-5.181a1.565,1.565,0,0,0-.653-0.914,3.381,3.381,0,0,0-1.055-.2c-0.96-.243-2-0.252-3.015-0.508-3.134-.794-6.354-0.921-9.5-1.727-1.492-.383-2.568-0.2-3.065-1.625A1.444,1.444,0,0,1,.1,18.611c0.373-1.229,3.149-1.043,4.523-1.372,2.348-.562,4.937-0.559,7.286-1.118l2.764-.356a6.42,6.42,0,0,0,.7-0.457c0.533-.327,1.114-0.593,1.658-0.864,0.062-.608.038-1.489,0.151-2.032,0.122-.072.32-0.111,0.452-0.2,0.614-.431.4-2.278,0.6-3.2,0.379-1.7.472-3.517,0.955-5.029A5,5,0,0,1,19.95,2a0.171,0.171,0,0,1,.1.051c0.482,0.213.671,1.73,0.854,2.337,0.389,1.291.483,2.862,0.8,4.267,0.226,0.988.018,2.027,0.3,2.946a3.042,3.042,0,0,0,.754.864c0.3,0.352.1,1.456,0.2,1.981,0.674,0.322,1.335.7,2.01,1.067a2.933,2.933,0,0,0,.352.254c0.694,0.239,1.669.125,2.412,0.3,2.118,0.511,4.464.509,6.583,1.016,1.618,0.387,3.9.19,5.126,0.965a2.828,2.828,0,0,1,.5.61c0.11,2.852-2.343,2.369-4.573,2.946-3.95,1.023-8.1,1.245-12.261,2.184a6.742,6.742,0,0,0-.955,1.88l-0.05.914-0.7,5.181a6.731,6.731,0,0,1,1.558.508c0.983,0.372,2.012.643,2.965,0.965a3.293,3.293,0,0,1,1.658.66,0.862,0.862,0,0,1-.452,1.168l-2.111.152c-0.553.119-1.2,0.01-1.809,0.152A13.114,13.114,0,0,1,20.9,35.679Z"/>
</svg>
