<svg xmlns="http://www.w3.org/2000/svg" width="40" height="40" viewBox="0 0 40 40">
  <defs>
    <style>
      .cls-1 {
        fill: #fff;
        fill-rule: evenodd;
      }
    </style>
  </defs>
  <path id="Color_Fill_1" data-name="Color Fill 1" class="cls-1" d="M18.985,13.981a8,8,0,0,1,.539-2.391c0.14-.369.2-0.7,0.663-0.617a6.658,6.658,0,0,1,.87,3.008c0.713,0.052,1.812,0,2.656,0a1.052,1.052,0,0,0,.87-0.165V13.281a0.542,0.542,0,0,0,.041-0.288,0.2,0.2,0,0,1-.166-0.206c0.317-.2.138-2.068,0.083-2.181l0.124-.206c-0.119-.046-0.076-0.007-0.124-0.123,0.134-.143-0.035-0.088,0-0.206a1.807,1.807,0,0,1,.124-0.165C24.547,9.861,24.59,9.9,24.542,9.783a0.9,0.9,0,0,1,.124-0.37c-0.083-.075-0.081.011-0.124-0.123l0.124-.082c-0.073-.093-0.176-0.179,0-0.288-0.1-.063-0.085.008-0.124-0.123l0.124-.082c-0.1-.127-0.084-0.031-0.083-0.206a0.252,0.252,0,0,0,.083-0.082,0.513,0.513,0,0,1-.124-0.37A2.871,2.871,0,0,0,25,6.574H24.957a8.217,8.217,0,0,1-2.363-.123,3.927,3.927,0,0,1-.953-0.041C22.784,6.4,24,6.245,25.081,6.285a1.318,1.318,0,0,1,.58-0.988,0.452,0.452,0,0,1,.249-0.041,1.84,1.84,0,0,1,.415.494,2.59,2.59,0,0,0,.207.576,9.007,9.007,0,0,1,2.4.041,2.116,2.116,0,0,1,.912.082,9.263,9.263,0,0,0-1.986.082,2.652,2.652,0,0,1-1.285.041V6.7a3.06,3.06,0,0,1,.207.823V7.849a1.3,1.3,0,0,1,.249.206c0.037,0.116-.12.051,0,0.288L26.9,8.425c-0.035.081,0.167,0.116,0.083,0.206-0.031.036-.052,0.046-0.083,0.082a0.225,0.225,0,0,1,.124.165,0.453,0.453,0,0,0-.124.082c0.08,0.064.115,0.1,0.083,0.165-0.031.036-.052,0.046-0.083,0.082a0.225,0.225,0,0,1,.124.165,0.454,0.454,0,0,0-.124.082,1.519,1.519,0,0,1,.124.658c-0.02.049-.1,0.014-0.083,0.123,0.084,0.528.041,2.4,0.041,3.58,0.8,0.478,2.333.18,3.4,0.412,0.62,0.135,1.322.019,1.99,0.165,0.458,0.1.986,0.013,1.492,0.123,0.429,0.094.933,0.019,1.409,0.123,1.392,0.3,3.044.16,4.394,0.453a2.073,2.073,0,0,1,.29.535q0.021,0.453.041,0.905a5.056,5.056,0,0,0-.041.7,3.442,3.442,0,0,1-.539,1.728,14.331,14.331,0,0,1-2.653.453c-2.209.546-4.62,0.609-6.839,1.152-0.753.184-1.441,0.2-2.152,0.37a0.823,0.823,0,0,0-.7.247,2.157,2.157,0,0,0-.207,1.276L26.781,24.8,26.532,28.1c-0.174.784-.2,1.817-0.376,2.6l-0.041.947c-0.134.608-.074,1.237-0.207,1.846v0.576a6.491,6.491,0,0,0-.166,1.07H25.658a2.769,2.769,0,0,0-.207-1.194v0.041c-0.162.174-.391,0.949-0.539,1.029H15.13l-0.539-1.07H14.549a4.635,4.635,0,0,1-.207,1.235V35.09a2.922,2.922,0,0,1-.124-0.823c-0.166-.711-0.09-1.493-0.249-2.216V31.557c-0.166-1.646-.5-3.379-0.67-5.024-0.13-.594,0-1.221-0.124-1.77V23.94c-0.139-.636.067-1.531-0.083-2.181-0.045-.2-0.12-0.424-0.166-0.617a5.566,5.566,0,0,0-1.244-.288C10.7,20.61,9.642,20.607,8.615,20.36,5.989,19.726,3.329,19.551.663,19a5.027,5.027,0,0,1-.58-1.852l0.041-.576-0.083-.041a2.092,2.092,0,0,1,.332-1.44,3.522,3.522,0,0,1,1.036-.123c0.746-.162,1.619-0.035,2.4-0.206C5.492,14.4,7.3,14.635,8.988,14.269c0.493-.107,1.009-0.027,1.451-0.123h0.5c0.617-.135,1.415-0.1,1.99-0.247a1.183,1.183,0,0,0,.041-0.37,0.745,0.745,0,0,0-.124-0.7,0.276,0.276,0,0,0,.042-0.165h0.124a24.083,24.083,0,0,1,0-2.428l0.041-.082a0.29,0.29,0,0,1-.124-0.082c0.079-.066.142-0.113,0.083-0.206H12.926c0.181-.032.041-0.226,0-0.288a0.159,0.159,0,0,0,.083-0.123c0-.092-0.015.01-0.083-0.082-0.034-.047.036-0.028,0.041-0.041a0.48,0.48,0,0,0,0-.329,0.252,0.252,0,0,0,.083-0.082,0.455,0.455,0,0,1-.124-0.082c0.155-.161.042-0.138,0.041-0.329a0.252,0.252,0,0,0,.083-0.082,0.663,0.663,0,0,1-.124-0.37,2.754,2.754,0,0,0,.456-1.481H13.341a8.217,8.217,0,0,1-2.363-.123,3.926,3.926,0,0,1-.953-0.041c1.144-.007,2.358-0.164,3.44-0.123a1.477,1.477,0,0,1,.58-0.988c0.516-.312.7,0.8,0.87,1.029a9.66,9.66,0,0,1,2.487.041,2.089,2.089,0,0,1,.912.082,10.049,10.049,0,0,0-2.072.082,2.655,2.655,0,0,1-1.285.041V6.7a4.621,4.621,0,0,1,.207,1.07c0.038,0.105.225,0.18,0.249,0.288S15.38,8.1,15.33,8.137c-0.042.253,0.148,0.056-.041,0.329,0.2,0.212.011,0.048,0.041,0.288,0,0.036.108,0.021,0.083,0.123,0,0.01-.111.067-0.124,0.082a0.353,0.353,0,0,1,0,.494,0.167,0.167,0,0,1,.124.165c0,0.037-.1.022-0.083,0.123,0.066,0.519.047,2.4,0.041,4.074L15.5,13.9a1.958,1.958,0,0,0,.912.082C17.2,13.981,18.325,14.019,18.985,13.981ZM14.8,31.022H25.244c-0.124-1.234-.163-2.555-0.287-3.79V26.656c-0.172-.776-0.035-1.723-0.207-2.51-0.164-.75.2-2.363-0.415-2.593a7.485,7.485,0,0,0-2.114-.082H17.61a6.992,6.992,0,0,0-2.114.123c-0.341.768-.126,1.815-0.332,2.757v0.576c-0.167.759,0.184,1.624,0.007,2.428A29.979,29.979,0,0,0,14.8,31.022Z"/>
</svg>
