<svg xmlns="http://www.w3.org/2000/svg" width="40" height="40" viewBox="0 0 40 40">
  <defs>
    <style>
      .cls-1 {
        fill: #fff;
        fill-rule: evenodd;
      }
    </style>
  </defs>
  <path id="Color_Fill_1" data-name="Color Fill 1" class="cls-1" d="M37.19,15.76a10.852,10.852,0,0,1,.5-3.341,2.142,2.142,0,0,1,.452-1.147h0.5c1.581,2.738.865,7.98,0.351,11.27-0.075.479,1.087,1.891,0.954,2.244a3.158,3.158,0,0,1-1.506.1,0.181,0.181,0,0,0-.1-0.05l-0.351-1.047-0.452-2.543A2.119,2.119,0,0,0,37.29,20.1c-0.445.634-2.841,0.477-3.814,0.7-0.77.175-1.636,0.112-2.459,0.3-0.638.145-1.365,0.092-2.058,0.249-2.2.5-4.68,0.435-6.876,0.9a2.146,2.146,0,0,0-.3.4l-0.151,3.092c-0.275,1.259-.072,2.7-0.351,3.989-0.071.325,0.007,0.784-.05,1.047-0.142.655,0.016,1.354-.1,1.945h0.1L27,33.762a2.522,2.522,0,0,1,0,2.194,1.662,1.662,0,0,1-.5.05,5.769,5.769,0,0,1-1.456.1c-0.436.093-.963-0.006-1.455,0.1a11.184,11.184,0,0,1-2.509.2,6.489,6.489,0,0,1-.151,1.6H19.072a0.143,0.143,0,0,0-.05-0.05,13.561,13.561,0,0,1-.1-1.546c-1.837,0-3.8-.371-5.872-0.4-0.265-.434-0.69-1.975.05-2.244a3.986,3.986,0,0,1,1.1-.2c0.981-.249,2.128-0.351,3.112-0.6a5.289,5.289,0,0,0,1.455-.249,1.348,1.348,0,0,0,.05-0.6c-0.242-.4.019-1.5-0.1-2.045l-0.452-5.535c-0.153-.7.145-1.645-0.2-2.144a2.2,2.2,0,0,0-1.3-.3c-0.9-.2-1.906-0.131-2.861-0.349L3.061,20.4c-0.2-.068-0.3-0.228-0.5-0.3a15.211,15.211,0,0,1-.6,3.59,4.271,4.271,0,0,1-.351,1.2H0.05A0.778,0.778,0,0,1,0,24.636a12.685,12.685,0,0,0,1-1.945L0.652,20.7l-0.1-1.346A14.607,14.607,0,0,1,.5,14.613c0.253-1.094.079-3.357,1.355-3.341a15.748,15.748,0,0,1,.8,2.842L2.811,15.76H3.162a0.87,0.87,0,0,0-.1-0.249,0.255,0.255,0,0,0,.2-0.3,13.657,13.657,0,0,0,2.911-.3c0.843-.186,1.723-0.076,2.509-0.249l1-.05c1.255-.279,2.71-0.173,3.965-0.449,1.009-.222,2.052-0.087,3.011-0.3a3.867,3.867,0,0,0,1.154-.15,2.924,2.924,0,0,0,.1-1.247q0.025-1.446.05-2.892c0.226-1.025-.034-2.184.2-3.241,0.135-.611.053-1.3,0.2-1.945,0.252-1.106.36-2.374,0.6-3.391h2.008l0.05,0.15c0.448,0.595.3,2.119,0.5,2.992,0.17,0.743.133,1.67,0.3,2.443V7.233c0.111,0.509-.025,1.122.1,1.7,0.061,0.279-.024.756,0.05,1.1,0.1,0.459,0,1.109.05,1.646,0.055,0.6.046,1.369,0.05,2.044h0.1c0.524,0.333,2.382.177,3.162,0.349,0.459,0.1.99,0.035,1.506,0.15,2.045,0.454,4.377.25,6.424,0.7,0.843,0.185,1.723.077,2.509,0.249a3.2,3.2,0,0,1,.9.1c0.086,0.094.171,0.2,0.251,0.3a0.475,0.475,0,0,0-.151.2h0.4Z"/>
</svg>
