<svg xmlns="http://www.w3.org/2000/svg" width="40" height="40" viewBox="0 0 40 40">
  <defs>
    <style>
      .cls-1 {
        fill: #fff;
        fill-rule: evenodd;
      }
    </style>
  </defs>
  <path id="Color_Fill_1" data-name="Color Fill 1" class="cls-1" d="M0.717,27.945C0.538,26.578-.4,24.5.221,23.014c0.354-.852,2.608-2.307,3.421-2.9,0.417-.307.8-0.736,1.214-1.041,2.476-1.808,4.773-3.837,7.228-5.644,1.341-.987,2.587-2.1,3.917-3.068,0.449-.328,1.206-0.557,1.214-1.315,0.273-.459-0.028-1.786.11-2.411,0.133-.6.013-1.282,0.166-1.918C17.934,2.865,18.043.234,20.083,0A5.124,5.124,0,0,1,21.3.822c1.245,1.711,1.415,5.754,1.434,8.658a7.915,7.915,0,0,1,1.1.877c0.889,0.655,1.717,1.387,2.593,2.027,2.934,2.145,5.67,4.489,8.607,6.63,1.067,0.778,2.066,1.673,3.145,2.466a5.54,5.54,0,0,0,1.159.931v-2.74h0.055l0.055,2.959c0.022,0.056.193,0.164,0.221,0.219a5.609,5.609,0,0,1,.276,1.1,3.247,3.247,0,0,1-.11.822l-0.11,1.26c-0.159.627-.354,1.313-0.5,1.918H39.007a7.346,7.346,0,0,0-1.876-.877c-1.206-.528-2.392-1.152-3.641-1.7-2.508-1.1-4.953-2.393-7.5-3.507a27.224,27.224,0,0,0-3.366-1.589v0.712a3.143,3.143,0,0,0-.055,1.151q-0.055,1.205-.11,2.411c-0.266,1.213-.047,2.582-0.331,3.836-0.194.859-.121,1.824-0.331,2.74a13.438,13.438,0,0,0-.331,2.794,8.226,8.226,0,0,1,1.159.931c0.879,0.648,1.673,1.39,2.538,2.027a7.264,7.264,0,0,1,1.6,1.26,3,3,0,0,1-.11,1.753,0.587,0.587,0,0,1-.276.11,11.559,11.559,0,0,0-2.317-.986c-0.695-.3-1.416-0.611-2.152-0.931a6.021,6.021,0,0,0-1.379-.6c-0.079.353-.3,0.624-0.386,0.931l-0.11,1.37H19.972v-0.11c-0.337-.555,0-1.862-0.662-2.192a11.535,11.535,0,0,1-2.317.986q-1.293.563-2.648,1.151a2.794,2.794,0,0,1-.938.384,2.937,2.937,0,0,1-.165-1.918c1.405-.9,2.582-2.194,3.917-3.178a4.61,4.61,0,0,0,1.379-1.151,3.8,3.8,0,0,1-.11-0.986c-0.189-.827-0.128-1.743-0.331-2.63-0.167-.731-0.169-1.625-0.331-2.356l-0.055-1.37c-0.137-.623-0.014-1.337-0.166-2.027a24.824,24.824,0,0,1-.221-4.11h-0.11a3.415,3.415,0,0,1-.938.438c-0.892.392-1.772,0.852-2.7,1.26-2.621,1.15-5.168,2.506-7.834,3.671-1.244.544-2.465,1.193-3.752,1.754A3.774,3.774,0,0,1,.717,27.945Z"/>
</svg>
