<svg xmlns="http://www.w3.org/2000/svg" width="40" height="40" viewBox="0 0 40 40">
  <defs>
    <style>
      .cls-1 {
        fill: #fff;
        fill-rule: evenodd;
      }
    </style>
  </defs>
  <path id="Color_Fill_1" data-name="Color Fill 1" class="cls-1" d="M39.272,22.274a8.8,8.8,0,0,1,.133-2.636V22.6c0.03,0.072.225,0.173,0.265,0.264a6.294,6.294,0,0,1,.265,1.054,4.187,4.187,0,0,1-.133.857l-0.066,1.054c-0.166.675-.435,1.439-0.53,2.109a4.133,4.133,0,0,1-1.325-.593c-0.821-.425-1.708-0.831-2.517-1.186-2.745-1.2-5.332-2.486-8.079-3.69-1.114-.488-2.214-1.072-3.378-1.582a7.388,7.388,0,0,0-1.258-.593v0.527a3.583,3.583,0,0,0-.066,1.318L22.45,24.909c-0.253,1.157-.058,2.482-0.331,3.69a34.462,34.462,0,0,0-.662,5.272c1.392,0.854,2.539,2.136,3.841,3.1,0.458,0.338,1.4.75,1.523,1.384a2.708,2.708,0,0,1-.2,1.647,6.686,6.686,0,0,1-1.325-.593c-0.574-.251-1.1-0.384-1.656-0.659a2.431,2.431,0,0,0-1.192-.461A5.639,5.639,0,0,0,20.6,37.43a7.178,7.178,0,0,1-.265,1.054h-0.2A3.854,3.854,0,0,1,20,39.8H19.934V39.341a1.98,1.98,0,0,1-.066-0.857,0.321,0.321,0,0,1-.2-0.066c-0.213-.351-0.051-0.885-0.53-0.989a7.242,7.242,0,0,1-1.921.857A28.966,28.966,0,0,1,13.378,40a0.687,0.687,0,0,1-.133-0.4,2.367,2.367,0,0,1,0-1.581,7.4,7.4,0,0,0,1.06-.857c1.029-.761,1.967-1.623,2.98-2.372a2.705,2.705,0,0,0,1.258-1.12c-0.323-.529-0.22-2.517-0.4-3.295-0.2-.892-0.2-1.99-0.4-2.9V26.689a33.937,33.937,0,0,1-.4-6.392,16.954,16.954,0,0,0-3.245,1.516C10.843,23.244,7.77,24.8,4.5,26.227c-1.1.481-2.48,1.5-3.709,1.713C0.507,26.64-.351,24.495.265,23c0.355-.863,2.325-2.105,3.113-2.7l0.331-.461c3.057-2.04,5.961-4.871,9.007-7.117,1.11-.818,2.11-1.771,3.179-2.57a6.925,6.925,0,0,0,1.391-1.12V7.446c0.281-.477,0-1.388.132-1.977C17.864,3.474,17.91.032,20.2,0a5.172,5.172,0,0,1,1.06.725c1.255,1.709,1.444,5.442,1.457,8.369a6.934,6.934,0,0,1,.993.857c0.868,0.651,1.655,1.407,2.517,2.043,3.039,2.243,5.841,4.732,8.874,6.985,1.034,0.768,1.991,1.661,3.046,2.438A3.217,3.217,0,0,0,39.272,22.274Z"/>
</svg>
