<svg xmlns="http://www.w3.org/2000/svg" width="40" height="40" viewBox="0 0 40 40">
  <defs>
    <style>
      .cls-1 {
        fill: #fff;
        fill-rule: evenodd;
      }
    </style>
  </defs>
  <path id="Color_Fill_1" data-name="Color Fill 1" class="cls-1" d="M39.331,22.349a9.623,9.623,0,0,1,.122-2.651v2.952a5.165,5.165,0,0,1,.365.6c0.387,1.286-.2,3.764-0.608,4.759L22.614,20.3v0.723c-0.306.5,0.031,2.261-.122,2.952-0.1.467,0,1.037-.122,1.566-0.381,1.72-.226,3.651-0.608,5.3L21.52,33.072a3.239,3.239,0,0,0-.061.843,8.648,8.648,0,0,0,1.7,1.325,40.952,40.952,0,0,1,3.708,3.072c0.008,0.744-.106.972-0.122,1.566a0.639,0.639,0,0,1-.365.12,8.134,8.134,0,0,0-2.067-.9c-1.213-.528-2.5-1.105-3.708-1.687a9.874,9.874,0,0,1-.3,1.084H20.122a3.1,3.1,0,0,1-.182,1.386l-0.122-1.386a0.3,0.3,0,0,1-.182-0.06l-0.3-1.024H19.271a8.047,8.047,0,0,1-2.067.9c-0.936.406-1.879,0.84-2.857,1.265A2.841,2.841,0,0,1,13.252,40V39.88a2.955,2.955,0,0,1-.122-1.566,2.678,2.678,0,0,1,1.094-.964c1.005-.737,1.911-1.675,2.918-2.41,0.557-.406,1.339-0.6,1.337-1.566a2.358,2.358,0,0,1-.061-0.542c-0.214-.93-0.137-1.947-0.365-2.952-0.194-.854-0.171-1.888-0.365-2.771V26.386a32.215,32.215,0,0,1-.365-6.084H17.2a3.93,3.93,0,0,1-.912.422c-0.929.46-1.868,0.892-2.857,1.325-1.438.63-2.88,1.479-4.316,2.108-1.51.662-2.962,1.26-4.438,1.988-0.969.478-1.946,0.937-2.979,1.386a2.006,2.006,0,0,1-.973.422A4.531,4.531,0,0,1,.3,26.325C0.23,26.037.133,25.61,0.061,25.3V24.337c-0.182-1.881,1.469-2.67,2.675-3.554,0.924-.678,1.756-1.548,2.675-2.229,2.241-1.661,4.316-3.471,6.565-5.121,0.611-.448,1.152-1.056,1.763-1.506a29.833,29.833,0,0,0,2.675-2.169,1.289,1.289,0,0,0,.79-0.9c0.285-.475-0.022-1.881.122-2.53C17.817,4.1,17.675.59,19.757,0.06c0.9-.228,1.566.94,1.824,1.446,1.037,2.035.844,4.958,1.155,7.771a2.6,2.6,0,0,1,1.033.783c1.026,0.766,1.958,1.659,2.979,2.41,3.1,2.282,5.953,4.831,9.058,7.108,0.85,0.623,1.627,1.353,2.492,1.988A2.938,2.938,0,0,0,39.331,22.349Z"/>
</svg>
