<svg xmlns="http://www.w3.org/2000/svg" width="40" height="40" viewBox="0 0 40 40">
  <defs>
    <style>
      .cls-1 {
        fill: #fff;
        fill-rule: evenodd;
      }
    </style>
  </defs>
  <path id="Color_Fill_1" data-name="Color Fill 1" class="cls-1" d="M22.648,20.3a18.218,18.218,0,0,1-.183,3.554c-0.171.78-.025,1.633-0.183,2.349v0.723c-0.2.9-.169,1.963-0.365,2.831-0.311,1.372-.214,2.811-0.487,4.157a8.227,8.227,0,0,1,1.826,1.446,34.044,34.044,0,0,1,3.653,2.952,5.682,5.682,0,0,1-.183,1.627,0.871,0.871,0,0,1-.243.06,3.66,3.66,0,0,0-.974-0.422C24.4,39.1,23.221,38.62,22.1,38.072a3.559,3.559,0,0,0-1.461-.6,2.637,2.637,0,0,0-.3,1.024H20.152a3.17,3.17,0,0,1-.183,1.325c-0.029-.45-0.117-0.813-0.122-1.325a0.3,0.3,0,0,1-.183-0.06l-0.3-1.024H19.239a8.1,8.1,0,0,1-2.07.9c-0.893.388-1.8,0.8-2.74,1.2a4.575,4.575,0,0,1-1.1.482,0.689,0.689,0,0,1-.122-0.422,3,3,0,0,1-.061-1.446c1.486-.928,2.737-2.283,4.14-3.313,0.511-.375,1.221-0.552,1.218-1.446a2.352,2.352,0,0,1-.061-0.542c-0.21-.91-0.142-1.916-0.365-2.891-0.2-.879-0.166-1.922-0.365-2.831V26.386a32.011,32.011,0,0,1-.365-6.084,2.528,2.528,0,0,0-.792.361c-1.027.448-2,.958-2.983,1.386-3,1.308-5.826,2.729-8.828,4.036-1.024.446-2.035,0.98-3.105,1.446a2.837,2.837,0,0,1-.974.422,3.709,3.709,0,0,0-.244-0.723,9.88,9.88,0,0,1-.3-4.1C0.464,22.2,2.631,20.8,3.47,20.181c2.432-1.8,4.668-3.864,7.123-5.663,0.508-.372.953-0.892,1.461-1.265,1.1-.81,2.127-1.658,3.227-2.47,0.24-.177.431-0.485,0.67-0.663,0.442-.33,1.261-0.659,1.279-1.386,0.276-.465.018-2.547,0.183-3.253a17.781,17.781,0,0,1,1.1-4.277c0.239-.441,1.1-1.542,1.766-1.084C21.93,0.553,22.039,2.9,22.466,4.578c0.16,0.627.038,1.333,0.183,1.928l0.061,2.711a0.882,0.882,0,0,0,.3.06c0.269,0.185.514,0.456,0.791,0.663,0.24,0.178.431,0.486,0.67,0.663,0.891,0.66,1.722,1.332,2.618,1.988,0.717,0.525,1.358,1.22,2.07,1.747,2.244,1.66,4.323,3.47,6.575,5.12,0.849,0.622,1.63,1.354,2.5,1.988a4.486,4.486,0,0,0,1.157.9V20.6c0.121-.2,0-0.707.122-0.9V22.59a1.629,1.629,0,0,0,.183.181,3.457,3.457,0,0,1,.244.783,9.374,9.374,0,0,1-.67,4.337,0.313,0.313,0,0,1-.183.06,8.219,8.219,0,0,0-2.07-.964c-1.023-.448-2.035-0.979-3.1-1.446-2.767-1.209-5.465-2.632-8.28-3.856A16.246,16.246,0,0,0,22.648,20.3Z"/>
</svg>
