<svg xmlns="http://www.w3.org/2000/svg" width="40" height="40" viewBox="0 0 40 40">
  <defs>
    <style>
      .cls-1 {
        fill: #fff;
        fill-rule: evenodd;
      }
    </style>
  </defs>
  <path id="Color_Fill_1" data-name="Color Fill 1" class="cls-1" d="M24.271,10.984c0-.8.029-1.658,0.05-2.384h0.1V8.9a9.829,9.829,0,0,1,.05,2.335c1,0.626,1.822,1.545,2.764,2.235,2.583,1.894,4.954,4.02,7.538,5.911,0.96,0.7,1.845,1.523,2.814,2.235a4.675,4.675,0,0,0,1.156.894V19.627h0.1v3.03c1.808,1.148.99,4.091,0.553,6.11H39.2a5.24,5.24,0,0,0-1-.5c-0.665-.36-1.444-0.691-2.111-1.093C34.008,25.929,31.669,25,29.6,23.75c-0.824-.5-1.737-0.745-2.563-1.242-1.036-.623-2.167-1.124-3.266-1.689a6.458,6.458,0,0,0-1.206-.646,3.477,3.477,0,0,0-.05.795c-0.228,1.035.08,2.232-.151,3.279-0.243,1.1-.046,2.4-0.3,3.527-0.181.8-.106,1.684-0.3,2.533a14.111,14.111,0,0,0-.352,2.931,12.377,12.377,0,0,1,1.106.894c0.933,0.685,1.793,1.46,2.714,2.136,0.409,0.3,1.269.658,1.307,1.291a3.369,3.369,0,0,1-.151,1.391,0.72,0.72,0,0,1-.2.05,6.606,6.606,0,0,0-1.608-.7c-1.3-.566-2.678-1.166-3.97-1.788v0.1a1.772,1.772,0,0,0-.251.944h-0.2A4.362,4.362,0,0,1,20,38.752H19.95v-0.3a2.119,2.119,0,0,1-.1-0.894h-0.2a4.886,4.886,0,0,0-.251-1.043h-0.05a6.755,6.755,0,0,1-1.708.745c-0.922.4-1.858,0.827-2.814,1.242a4.689,4.689,0,0,1-1.156.5,2.218,2.218,0,0,1-.151-1.689,3.392,3.392,0,0,1,1.256-1.043c0.917-.671,1.747-1.514,2.663-2.186,0.431-.316,1.155-0.571,1.156-1.292a3.265,3.265,0,0,1-.1-0.844c-0.178-.767-0.112-1.606-0.3-2.434-0.15-.657-0.153-1.472-0.3-2.136l-0.05-1.192c-0.125-.564-0.013-1.212-0.151-1.838a21.589,21.589,0,0,1-.2-4.172h-0.1a4.634,4.634,0,0,1-.7.348c-0.824.5-1.773,0.836-2.613,1.341-0.824.5-1.773,0.836-2.613,1.341-2.018,1.213-4.216,2.179-6.332,3.278q-1.563.812-3.166,1.639A3.815,3.815,0,0,1,.6,28.767v-0.1a5.642,5.642,0,0,1-.352-1.639C0.185,26.78.11,26.4,0.05,26.135a2.982,2.982,0,0,1,0-.944L0,24.5a4.738,4.738,0,0,1,.251-0.844,8.49,8.49,0,0,1,2.563-2.285c0.506-.37.953-0.872,1.457-1.242C6.216,18.7,8.01,17.134,9.95,15.7c0.674-.5,1.283-1.143,1.96-1.639,0.887-.65,1.688-1.4,2.563-2.037a5.343,5.343,0,0,0,1.055-.795V8.8a0.426,0.426,0,0,0,.05-0.248h0.05V8.6a8.177,8.177,0,0,1,.1,2.434h0.05c0.266-.271,1.509-1.127,1.608-1.341V9.047a11.178,11.178,0,0,0,.1-1.987c0.112-.5.025-1.061,0.151-1.59,0.385-1.616.627-4.182,2.311-4.421,0.692-.1,1.325.894,1.558,1.341,0.934,1.791,1.069,4.7,1.106,7.3A7.877,7.877,0,0,0,24.271,10.984Z"/>
</svg>
