<svg xmlns="http://www.w3.org/2000/svg" width="40" height="40" viewBox="0 0 40 40">
  <defs>
    <style>
      .cls-1 {
        fill: #fff;
        fill-rule: evenodd;
      }
    </style>
  </defs>
  <path id="Color_Fill_1" data-name="Color Fill 1" class="cls-1" d="M20.608,37.428a8.429,8.429,0,0,0-.221,1.04H20.166l-0.111,1.258h-0.11V39.4a2.644,2.644,0,0,1-.111-0.93H19.613a5.45,5.45,0,0,0-.221-1.04,5.773,5.773,0,0,0-1.492.657c-1.107.485-2.155,0.887-3.26,1.368A4.23,4.23,0,0,1,13.315,40a1.486,1.486,0,0,1-.111-0.547,2.732,2.732,0,0,1-.055-1.259c0.344-.22.614-0.582,0.939-0.821,1.029-.756,1.97-1.608,2.983-2.353a5.8,5.8,0,0,0,1.492-1.2,3.8,3.8,0,0,1-.111-0.985c-0.189-.826-0.128-1.741-0.331-2.626-0.167-.73-0.169-1.622-0.331-2.353q-0.028-.657-0.055-1.313c-0.137-.622-0.014-1.335-0.166-2.025a23.746,23.746,0,0,1-.221-4.323h-0.11a5.675,5.675,0,0,1-1.16.547c-0.985.507-1.99,0.964-3.039,1.423-2.482,1.086-4.879,2.4-7.4,3.5-1.232.537-2.428,1.2-3.7,1.751a3.717,3.717,0,0,1-1.215.547V27.852A4.617,4.617,0,0,1,.331,26.32a5.636,5.636,0,0,1-.055-3.447,12.716,12.716,0,0,1,2.762-2.3c0.462-.339.864-0.81,1.326-1.149,1.948-1.43,3.747-3,5.691-4.432,0.647-.478,1.229-1.11,1.879-1.587,0.786-.577,1.494-1.239,2.265-1.806A6.013,6.013,0,0,0,15.3,10.78V8.208a0.47,0.47,0,0,0,.055-0.274h0.055V8.044a8.327,8.327,0,0,1,.111,2.517H15.58c0.355-.484,1.584-1.018,1.658-1.642,0.267-.448-0.026-1.744.11-2.353,0.127-.567.024-1.209,0.166-1.806,0.409-1.724.634-4.45,2.431-4.706,0.857-.122,1.516,1.1,1.768,1.7,0.895,2.1.737,4.689,1.05,7.442,0.687,0.239,1.007,1.078,1.713,1.313V8.482a1.88,1.88,0,0,0,.11-0.492h0.055V8.263A10.542,10.542,0,0,1,24.7,10.78c1.084,0.666,1.968,1.662,2.983,2.408,2.63,1.933,5.047,4.089,7.679,6.019,0.961,0.7,1.842,1.528,2.818,2.243a5.8,5.8,0,0,0,1.215.985V19.7h0.055q0.028,1.477.055,2.955c0.062,0.155.268,0.357,0.331,0.547a5.426,5.426,0,0,1-.111,2.791c-0.14.526-.176,1.75-0.552,1.97a14.437,14.437,0,0,0-2.1-.93c-1.621-.709-3.2-1.572-4.862-2.3-2.127-.928-4.184-2.065-6.353-3.009a25.411,25.411,0,0,0-3.2-1.532v0.6c-0.242.4,0.029,2.28-.111,2.9-0.1.456,0.007,1.012-.11,1.532l-0.608,5.855a11.524,11.524,0,0,0-.331,2.845A13.885,13.885,0,0,0,23.2,35.239c0.724,0.531,1.376,1.219,2.1,1.751,0.394,0.289,1.446.874,1.547,1.368a3.474,3.474,0,0,1-.055,1.477,0.451,0.451,0,0,1-.332.164,7.2,7.2,0,0,0-1.768-.766c-1.013-.44-2.038-0.909-3.094-1.368A4.157,4.157,0,0,0,20.608,37.428Z"/>
</svg>
