<svg xmlns="http://www.w3.org/2000/svg" width="40" height="40" viewBox="0 0 40 40">
  <defs>
    <style>
      .cls-1 {
        fill: #fff;
        fill-rule: evenodd;
      }
    </style>
  </defs>
  <path id="Color_Fill_1" data-name="Color Fill 1" class="cls-1" d="M38.744,22.437c-0.009-.64,0-1.379.05-1.94a2.854,2.854,0,0,1,.05-0.945q0.025,1.567.05,3.134c1.391,0.47,1.2,3.206.8,4.675a4.374,4.374,0,0,1-.3,1.343,0.258,0.258,0,0,1-.151.05,4.895,4.895,0,0,0-1.005-.5c-0.812-.418-1.708-0.809-2.513-1.293-2.074-1.249-4.41-2.181-6.482-3.432-0.418-.252-0.888-0.345-1.307-0.6-1.2-.721-2.51-1.264-3.769-1.94a6.459,6.459,0,0,0-1.658-.846,21.966,21.966,0,0,1-.2,4.427c-0.133.608-.03,1.241-0.151,1.791-0.214.972-.036,1.94-0.251,2.885a23.949,23.949,0,0,0-.5,3.979,4.293,4.293,0,0,1,1.005.8c1.026,0.747,1.956,1.6,2.965,2.338a2.5,2.5,0,0,1,1.156,1.044,3.148,3.148,0,0,1-.1,1.492,0.761,0.761,0,0,1-.2.1,5.112,5.112,0,0,0-1.055-.448c-0.888-.387-1.789-0.792-2.714-1.194a6.633,6.633,0,0,0-1.859-.8v0.1a2.372,2.372,0,0,0-.251.9h-0.2A2.7,2.7,0,0,1,20,38.851c-0.016-.429-0.1-0.786-0.1-1.293H19.7a0.142,0.142,0,0,0-.05-0.05,2.337,2.337,0,0,0-.251-0.995c-1.218.531-2.425,1.051-3.668,1.592a12.718,12.718,0,0,1-2.01.9,0.6,0.6,0,0,1-.151-0.448,2.191,2.191,0,0,1-.05-1.194,3.083,3.083,0,0,1,1.206-1.044c0.9-.658,1.714-1.479,2.613-2.139a3.647,3.647,0,0,0,1.306-1.144,3.451,3.451,0,0,1-.1-0.9c-0.206-.9-0.133-1.876-0.352-2.835-0.154-.673-0.149-1.5-0.3-2.188V26.466c-0.122-.55-0.016-1.183-0.151-1.791a27.819,27.819,0,0,1-.251-4.526h-0.1a6.562,6.562,0,0,1-1.357.7c-0.921.476-1.874,0.937-2.814,1.442-2.563,1.378-5.184,2.673-7.789,4.029-1.105.575-2.241,1.137-3.367,1.741a4.676,4.676,0,0,1-1.407.7V28.7H0.6c-0.179-1.465-1-3.5-.352-5.024,0.384-.9,2.2-2.09,3.015-2.686,0.4-.293.756-0.7,1.156-0.995,2.2-1.611,4.2-3.47,6.382-5.073,1.162-.853,2.221-1.838,3.367-2.686,0.349-.259.668-0.546,1.005-0.8a1.665,1.665,0,0,0,.352-0.2V9.008a1.974,1.974,0,0,0,.1-0.5h0.05v0.2A9.579,9.579,0,0,1,15.729,11h0.1a13.294,13.294,0,0,1,1.608-1.442,18.055,18.055,0,0,1,.9-6.814c0.353-.831.71-1.622,1.759-1.741a4.894,4.894,0,0,1,1.156.746c1.169,1.6,1.342,5.185,1.357,7.908,0.679,0.237,1.024,1.1,1.709,1.343V8.66c0.034-.038.066-0.111,0.1-0.149,0.056,0.812.05,1.8,0.05,2.686a37.166,37.166,0,0,1,3.166,2.537c2.478,1.82,4.755,3.852,7.236,5.67,0.959,0.7,1.841,1.525,2.814,2.238A3.142,3.142,0,0,0,38.744,22.437Z"/>
</svg>
