<svg xmlns="http://www.w3.org/2000/svg" width="40" height="40" viewBox="0 0 40 40">
  <defs>
    <style>
      .cls-1 {
        fill: #fff;
        fill-rule: evenodd;
      }
    </style>
  </defs>
  <path id="Color_Fill_1" data-name="Color Fill 1" class="cls-1" d="M21.932,10.163h0.452v0.05h0.05l0.2,1.387q0.025,1.337.05,2.675L37.39,15.562a9.989,9.989,0,0,1,.2-2.823,1.7,1.7,0,0,1,.3-0.842h1.3c0.621,1.082.5,2.975,0.452,4.606,0,0,.1.291,0.1,0.3a11.1,11.1,0,0,1-.05,1.337,15.728,15.728,0,0,1-.05,3.121V22.15c-0.151.672-.126,1.4-0.3,2.08a2,2,0,0,0-.151.842,1.956,1.956,0,0,0,.8.248v0.5a2.628,2.628,0,0,0-1.1.594,3.857,3.857,0,0,0-.3,1.139h-0.05V27.5a6.362,6.362,0,0,1-.452-1.932,17.786,17.786,0,0,1-.652-4.507H37.39a4.124,4.124,0,0,1-1.355.3c-0.944.252-1.968,0.318-2.961,0.594-1.169.325-2.443,0.4-3.664,0.743-2.291.636-4.8,0.944-7.127,1.486a9.035,9.035,0,0,0-1,2.477l-0.3,3.517a15.054,15.054,0,0,0-.3,2.873L27.5,34.632a1.244,1.244,0,0,0,.2.248,5.29,5.29,0,0,1-.151,2.08c-0.386.316-1.691,0.114-2.309,0.248l-5.069.446a1.045,1.045,0,0,1-.151.3V38h-0.05v-0.05a0.283,0.283,0,0,1-.1-0.3c-2.263-.037-4.886-0.549-7.328-0.594l-0.1-.149a5.156,5.156,0,0,1-.1-2.13,13.149,13.149,0,0,1,2.258-.594c1.511-.454,3.15-0.79,4.718-1.139V32.5a9.784,9.784,0,0,1-.2-1.981c-0.217-.954-0.136-2.111-0.351-3.071l-0.05-.842c-0.088-.334-0.249-0.734-0.351-1.04-0.183-.547-0.261-1.366-0.9-1.436a4.062,4.062,0,0,0-1-.2c-0.859-.23-1.8-0.291-2.71-0.545-2.674-.745-5.607-1-8.281-1.734A29.225,29.225,0,0,1,2.56,21.06v0.892a5.449,5.449,0,0,0-.151,1.288c-0.23.951-.357,1.969-0.6,2.873a3.509,3.509,0,0,1-.4,1.436,3.127,3.127,0,0,0-.3-1.189C0.728,26.036-.01,26.134,0,25.419a0.178,0.178,0,0,0,.05-0.1,0.934,0.934,0,0,0,.8-0.4A7.828,7.828,0,0,1,.5,22.893c-0.06-.26-0.092-0.677-0.151-0.941v-1.09A10.406,10.406,0,0,1,.3,18.98c0-1.361,0-2.285,0-3.517,0-1.1-.067-2.961.452-3.517a3.54,3.54,0,0,1,1.355-.05,8.923,8.923,0,0,1,.5,3.665l14.755-1.288a19.941,19.941,0,0,1,.251-4.111h0.452a16.1,16.1,0,0,1,.4-3.715c0.222-.932.192-1.894,0.4-2.774,0.3-1.244-.038-1.886.8-2.675,1.636-.049,1.143,1.251,1.455,2.576C21.31,4.342,21.287,5.183,21.481,6A18.674,18.674,0,0,1,21.932,10.163Z"/>
</svg>
