<svg xmlns="http://www.w3.org/2000/svg" width="40" height="40" viewBox="0 0 40 40">
  <defs>
    <style>
      .cls-1 {
        fill: #fff;
        fill-rule: evenodd;
      }
    </style>
  </defs>
  <path id="Color_Fill_1" data-name="Color Fill 1" class="cls-1" d="M20.807,6.331H20.434V6.373h0.041a1.931,1.931,0,0,0,.951.042,9.269,9.269,0,0,1,2.11.083,1.438,1.438,0,0,1,.91.208c0.01,0.04.032,0.016,0,.042a2.616,2.616,0,0,1-1.241.125c-0.915,0-1.806-.034-2.73-0.042A0.626,0.626,0,0,0,20.393,7h1.861a0.986,0.986,0,0,1,.248.208,6.373,6.373,0,0,1,.124,2.205H22.5a8.563,8.563,0,0,0,.041,2.08,4.16,4.16,0,0,0,1.075.083c0.4,0.087.961,0.037,1.365,0.125h0.7c1.37,0.3,3.113-.053,4.509.25,0.349,0.075.82-.023,1.117,0.042,0.362,0.078.848-.025,1.158,0.042h0.7l1.655,0.083v-1.29a8.769,8.769,0,0,0,.083-1.456,0.15,0.15,0,0,1,.041.083,2.122,2.122,0,0,1,.041.791l0.041,1.872c1.135-.022,3.681-0.009,4.1.624a0.619,0.619,0,0,1,.165-0.083,5.953,5.953,0,0,1,.579,1.082,3.8,3.8,0,0,1-.951,3.287,6.853,6.853,0,0,1-1.737,1.04c-1.2.411-2.86,0.183-4.136,0.5l-0.869.042c-0.666.146-1.746,0.137-2.523,0.333l-0.7.042c-0.681.158-1.479,0.086-2.192,0.25-0.6.137-1.257,0.06-1.9,0.208a22.991,22.991,0,0,1-2.4.291,10.156,10.156,0,0,1-.165,2.039c-0.147.674-.03,1.379-0.166,2v0.458c-0.179.8-.123,1.714-0.331,2.538-0.131.52-.146,1.1-0.29,1.664a8.914,8.914,0,0,0-.331,1.623,11.021,11.021,0,0,1,5.336,1.415,3.833,3.833,0,0,1,.62.666,1.771,1.771,0,0,1-.083.915,2.428,2.428,0,0,1-.993.874,8.317,8.317,0,0,1-2.192.874c-0.316.083-.567,0.009-0.91,0.083a5.043,5.043,0,0,1-1.075.083c-0.407-.046-1.482-0.673-1.613-0.624-0.128.172-.065,0.279-0.372,0.291l-0.041-.083a0.434,0.434,0,0,1-.083-0.25,3.676,3.676,0,0,0-.827.416c-0.262.114-.567,0.116-0.827,0.25a7.284,7.284,0,0,1-1.448-.083c-0.2-.085-0.708-0.1-1.034-0.208-1.077-.352-2.652-0.861-2.813-2.122a1.3,1.3,0,0,1,.91-1.165,10.044,10.044,0,0,1,5.088-1.331,6.025,6.025,0,0,0-.29-1.456c-0.183-.711-0.206-1.452-0.372-2.122l-0.166-1.664c-0.111-.482-0.094-1.117-0.207-1.623v-0.5a16.318,16.318,0,0,1-.207-2.954,17.45,17.45,0,0,1-2.813-.333c-0.641-.159-1.311-0.061-1.9-0.208l-1.117-.083c-1.174-.274-2.564-0.264-3.723-0.5a5.053,5.053,0,0,1-.62,0c-0.657-.151-1.459-0.088-2.11-0.25l-0.827-.042a8.448,8.448,0,0,1-2.523-.624c-0.15-.095-0.869-0.707-0.869-0.707a3.691,3.691,0,0,1-.951-3.2A5.674,5.674,0,0,1,.7,12.656a0.513,0.513,0,0,1,.165.083c0.092-.041.157-0.2,0.248-0.25l0.662-.208,2.358-.166,4.55-.125a17.4,17.4,0,0,1,2.4-.125h0.951l5.46-.333c0.066-.619-0.035-1.512.083-2.122H17.373A10.8,10.8,0,0,1,17.5,7.164,5.246,5.246,0,0,1,19.607,7V6.914a0.952,0.952,0,0,0-.5-0.083,3.142,3.142,0,0,1-.786.042,8,8,0,0,1-2.73-.166l-0.041-.125a0.117,0.117,0,0,0,.041-0.042c0.757-.046,1.534-0.125,2.4-0.125a5.307,5.307,0,0,0,1.613-.042V6.331H19.193A1.118,1.118,0,0,1,20.145,5,1.524,1.524,0,0,1,20.807,6.331Z"/>
</svg>
