<svg xmlns="http://www.w3.org/2000/svg" width="40" height="40" viewBox="0 0 40 40">
  <defs>
    <style>
      .cls-1 {
        fill: #fff;
        fill-rule: evenodd;
      }
    </style>
  </defs>
  <path id="Color_Fill_1" data-name="Color Fill 1" class="cls-1" d="M20.166,5.58h0.125a1.628,1.628,0,0,1-.042.5,0.142,0.142,0,0,1,.083.041,2.261,2.261,0,0,1,.749.041h0.832a8.212,8.212,0,0,1,1.58.124,3.888,3.888,0,0,1,1.04.083c-1.526-.007-3.11.122-4.324,0.207a0.7,0.7,0,0,1-.042.249h1.622a0.15,0.15,0,0,0,.083.041,4.842,4.842,0,0,1,.582,1.492c0.123,0.533.016,1.121,0.125,1.616,0.086,0.392-.114,1.18.208,1.326a5.366,5.366,0,0,0,1.455.083,12.7,12.7,0,0,1,2,.124h0.956c1.142,0.246,2.518-.037,3.659.207h0.956c0.573,0.123,1.329.037,1.913,0.124h0.873c0.571,0.123,1.248-.051,1.871.083a14.214,14.214,0,0,0,2.744.124,1.856,1.856,0,0,1,.042-0.746,4.17,4.17,0,0,0,.041.787,0.428,0.428,0,0,1,.457.207c0.29,0.369.013,0.99,0.166,1.533a12.731,12.731,0,0,1-.416,3.646c-0.879.273-1.942,0.109-2.786,0.414v0.124l-1.081.166-0.083-.166c-1.047.325-2.3,0.2-3.41,0.456-0.654.153-1.377,0.124-2.079,0.29-2.393.567-5.116,0.559-7.484,1.119-0.468,1.045-.255,2.659-0.541,3.9-0.206.89-.147,1.862-0.374,2.776-0.137.55-.177,1.16-0.333,1.74A8.316,8.316,0,0,0,21.04,29.7h0.083a5.389,5.389,0,0,0,1.247.331c1.017,0.327,2.151.566,3.16,0.912a7.921,7.921,0,0,1,1.372.373c0.385,0.252.284,2.168,0.083,2.735a18.882,18.882,0,0,0-2.2.29,1.37,1.37,0,0,1-.748,0,11.159,11.159,0,0,1-2.786.373l-0.832-1.616H20.374a3.246,3.246,0,0,1-.208,1.119c-0.109.017-.09,0.067-0.083,0.29-0.078.13-.038,0.384-0.125,0.5a3.092,3.092,0,0,0-.25-1.119c-0.073-.257-0.043-0.52-0.125-0.746H19.543v0.041c-0.389.429-.457,1.174-0.873,1.575a5.582,5.582,0,0,0-1.372-.166c-0.946-.221-1.84-0.136-2.786-0.373a4.946,4.946,0,0,1-1.5-.207,6.924,6.924,0,0,1-.083-2.61,9.715,9.715,0,0,1,1.372-.414c1.015-.331,2.144-0.581,3.16-0.912a4.64,4.64,0,0,0,1.5-.456,7.709,7.709,0,0,1-.333-1.657c-0.451-1.673-.428-3.647-0.832-5.428-0.159-.7.006-2.324-0.457-2.652a4.888,4.888,0,0,0-1.5-.249c-0.931-.222-2.023-0.23-2.952-0.456l-0.624-.041c-0.938-.22-1.967-0.179-2.952-0.414C8.359,18.488,7.171,18.5,6.279,18.3,4.4,17.884,2.371,17.848.457,17.472V17.224a4.02,4.02,0,0,1-.208-1.16,8.329,8.329,0,0,1,0-3.854,0.867,0.867,0,0,1,.457-0.124A1.855,1.855,0,0,1,.748,11.34l0.042,0.7a14.3,14.3,0,0,0,2.744-.124c0.621-.134,1.3.04,1.871-0.083H6.279c0.582-.088,1.338,0,1.913-0.124H9.106a8.414,8.414,0,0,1,1.039-.083,4.323,4.323,0,0,0,.707.083l0.083-.124,1.871-.041c1.383-.3,3.1.02,4.491-0.249V11.216a3.581,3.581,0,0,0,.083-0.912c0.217-.981.034-3.145,0.79-3.481h1.622V6.575c-0.737-.04-1.9-0.127-2.786-0.207a4.686,4.686,0,0,1-1.455-.041A12.214,12.214,0,0,0,18,6.16a15.461,15.461,0,0,0,1.663-.083,1.123,1.123,0,0,0,.041-0.5h0.125V5.041A0.9,0.9,0,0,1,20.125,5,2.036,2.036,0,0,1,20.166,5.58Z"/>
</svg>
