<svg xmlns="http://www.w3.org/2000/svg" width="40" height="40" viewBox="0 0 40 40">
  <defs>
    <style>
      .cls-1 {
        fill: #fff;
        fill-rule: evenodd;
      }
    </style>
  </defs>
  <path id="Color_Fill_1" data-name="Color Fill 1" class="cls-1" d="M22.36,10.907c1.605,0.165,3.158.223,4.721,0.416V10.533h0.083v0.042a1.9,1.9,0,0,1,.041.749l0.456,0.042V11.157h0.124v0.208a33.048,33.048,0,0,1,3.52.333c0.505,0.111,1.033.024,1.491,0.125l2.112,0.125c0.5,0.109,1.07.005,1.615,0.125a13.72,13.72,0,0,0,2.691.208,2.646,2.646,0,0,1,.041-1v1.04h0.207L39.5,12.7h0.331V12.78a3.634,3.634,0,0,1,.083,1.082,9.556,9.556,0,0,1-.414,3.412c-1.4.143-2.749,0.6-4.182,0.666a0.6,0.6,0,0,0,.041.208l-1.035.166V18.148a10.492,10.492,0,0,0-2.443.416c-0.873.226-1.78,0.243-2.609,0.458-0.584.151-1.113,0.1-1.7,0.25-1.736.448-3.654,0.545-5.466,0.915V19.354H22.07V19.4l-1.159,9.945a13.158,13.158,0,0,1,2.195.707c1.311,0.438,2.65.741,3.934,1.165,0.717,0.236,1.72.346,1.615,1.373a2.107,2.107,0,0,1-1.118,1.873,8.9,8.9,0,0,1-2.07.083H21.118a5.023,5.023,0,0,0-.745-1.207,0.118,0.118,0,0,0-.041-0.042l-0.207,1.5H20a0.35,0.35,0,0,1-.041.208V34.792H19.834a5.954,5.954,0,0,0-.248-1.5,0.119,0.119,0,0,1-.041.042,7.507,7.507,0,0,1-.7,1.207H13.209a6.308,6.308,0,0,0-.787-0.083,2.121,2.121,0,0,1-.952-2.58c0.16-.1.286-0.285,0.455-0.375a5.621,5.621,0,0,1,.87-0.25c1-.336,2.067-0.568,3.106-0.915,0.606-.2,1.27-0.35,1.9-0.583a6.384,6.384,0,0,1,1.242-.416L17.888,19.313H17.847v0.874H17.764L12.836,19.4c-1.283-.332-2.733-0.42-4.017-0.749l-0.745-.083c-1.012-.261-2.117-0.273-3.188-0.541-0.637-.159-1.348-0.163-2.029-0.333a21.767,21.767,0,0,0-2.4-.416l-0.29-1.248A11.11,11.11,0,0,1,.124,12.7H0.455V12.613A0.553,0.553,0,0,0,.5,12.322a13,13,0,0,0,2.4-.208c0.72-.158,1.481-0.019,2.153-0.166L7.2,11.823c0.441-.1.957-0.016,1.449-0.125,1.094-.242,2.4-0.195,3.52-0.333V11.157H12.3v0.208l0.456-.042a2.832,2.832,0,0,1,.041-0.791h0.083v0.791c1.561-.161,3.125-0.22,4.72-0.416A5.624,5.624,0,0,1,17.764,9.2V8.785c0.11-.484.094-1.1,0.207-1.581a1.557,1.557,0,0,1,.58-1.165,2.023,2.023,0,0,1,.87-0.083,0.752,0.752,0,0,0,.124-0.208,1.484,1.484,0,0,0-.29-0.125,2.268,2.268,0,0,1-1.325.166C16.885,5.558,15.69,5.6,14.7,5.373V5.29a18,18,0,0,1,4.721-.083A0.481,0.481,0,0,0,19.5,4.915l0.124-.749a0.641,0.641,0,0,1,.663-0.083,5.6,5.6,0,0,1,.166,1.04,0.545,0.545,0,0,0,.331.083,4.01,4.01,0,0,1,1.284-.083c1.091,0,2.145.061,3.147,0.083V5.29c-0.637.073-1.43,0.15-2.07,0.291l-0.828.042a4.355,4.355,0,0,1-1.449.125,1.174,1.174,0,0,0-.331-0.125,0.225,0.225,0,0,1-.124.166V5.831h0.041a0.529,0.529,0,0,0,.538.125,1.985,1.985,0,0,0,.58.083,8.544,8.544,0,0,0,.414.874l0.124,1.415A11.4,11.4,0,0,1,22.36,10.907Z"/>
</svg>
