<svg xmlns="http://www.w3.org/2000/svg" width="40" height="40" viewBox="0 0 40 40">
  <defs>
    <style>
      .cls-1 {
        fill: #fff;
        fill-rule: evenodd;
      }
    </style>
  </defs>
  <path id="Color_Fill_1" data-name="Color Fill 1" class="cls-1" d="M21.38,13.053h3.312a2,2,0,0,0,1.1-.1,2.211,2.211,0,0,1-.05-1.344c0.129-.576.033-1.794,0.452-1.991h0.954A0.9,0.9,0,0,0,27.3,9.368a0.551,0.551,0,0,1-.151-0.1,7.756,7.756,0,0,1-3.112-.05,2.48,2.48,0,0,1-.9-0.149,0.141,0.141,0,0,1-.05-0.05h0.1a4.7,4.7,0,0,1,1.255-.1,12.31,12.31,0,0,1,2.71,0V8.871H27.2c0.005-.268.072-0.185,0.1-0.249,0.2-.453-0.176-0.712.5-0.7a0.181,0.181,0,0,0,.1.05,5.355,5.355,0,0,1,.151.846c1.145,0.217,2.919-.039,4.015.4v0.05H31.719a15.1,15.1,0,0,1-2.861.149,3,3,0,0,0-.753-0.1l-0.151.1v0.05h0.05a1.594,1.594,0,0,0,1.1.149,5.755,5.755,0,0,1,.5,1.792c0.107,0.49-.091,1.123.05,1.543-0.163.041-.077-0.024-0.151,0.1h1a12.542,12.542,0,0,0,2.459,0h6.575a0.57,0.57,0,0,1,0,.3h0.4a14.423,14.423,0,0,1-.1,3.336,1,1,0,0,1-.251.846,17.752,17.752,0,0,1-2.961.747c-1,.3-2.064.482-3.112,0.8a2.72,2.72,0,0,1-1.1.249,12.148,12.148,0,0,1-2.007.548,9.314,9.314,0,0,1-1.656.448,8.459,8.459,0,0,1-.753,2.29,1.052,1.052,0,0,1-.452.8,6.361,6.361,0,0,0-.4-0.9l-0.5-1.693a4.2,4.2,0,0,1-1.054.3c-0.93.282-1.936,0.435-2.911,0.747a3.875,3.875,0,0,1-1.506.349v0.5a9.037,9.037,0,0,0-.151,1.842c-0.133.606-.068,1.378-0.2,1.991v0.747a14.73,14.73,0,0,0-.2,2.888,14.175,14.175,0,0,1,2.76.647C24,31,24.532,31,25.144,31.175c0.96,0.271,2.039.514,3.011,0.747,0.729,1.1-.135,2.312-0.753,2.888-2.31.011-4.875,0.049-7.127,0.05a6.969,6.969,0,0,1-.3,2.141l-0.251-2.141c-1.742.021-3.45,0-5.069,0A6.517,6.517,0,0,1,12.4,34.71c-0.373-.248-1.37-2.447-0.452-2.788a9.565,9.565,0,0,1,2.309-.548c1.109-.312,2.3-0.47,3.463-0.8a12.174,12.174,0,0,1,1.656-.4c0.024-2.725-.514-5.28-0.552-7.916a6.537,6.537,0,0,1-1.3-.349c-0.846-.271-1.715-0.393-2.509-0.647a9.936,9.936,0,0,1-1.656-.448v0.1a2.775,2.775,0,0,0-.2.7,15.556,15.556,0,0,1-.7,1.792h-0.1a13.267,13.267,0,0,1-1.1-3.087,5.059,5.059,0,0,1-1.3-.349c-0.472-.156-0.883-0.144-1.355-0.3-0.284-.093-0.734-0.285-1-0.349-1.44-.339-3.147-0.69-4.617-1.145-0.679-.21-1.371-0.3-2.008-0.5A0.923,0.923,0,0,1,.3,17.434,4.379,4.379,0,0,1,.1,15.99,12.665,12.665,0,0,1,.05,13.4,1.089,1.089,0,0,1,.4,13.351V13.2a4.716,4.716,0,0,1,1.957-.149H7.026a0.345,0.345,0,0,0,.4.1,8.746,8.746,0,0,1,2.208-.1,1.35,1.35,0,0,0,.853-0.1,2.341,2.341,0,0,1-.05-1.394c0.126-.562.044-1.749,0.452-1.942h1c0.048-.079.182-0.149,0.1-0.2-0.065-.123.022-0.034-0.1-0.1-0.192-.083-0.373.164-0.7,0.1C10.465,9.275,8.3,9.391,7.88,9.07a0.142,0.142,0,0,1-.05-0.05,36.356,36.356,0,0,1,4.065-.1V8.871h0.05c-0.007-.525.018-0.961,0.6-0.946a1.067,1.067,0,0,1,.151.7c0.127,0.073.092,0.063,0.1,0.249a19.441,19.441,0,0,1,2.911.1,1.6,1.6,0,0,1,1.054.2,13.878,13.878,0,0,1-3.162.2,0.9,0.9,0,0,0-.853.05c-0.013.048-.039,0.019,0,0.05a1.479,1.479,0,0,0,1.054.149,5.04,5.04,0,0,1,.4,3.435H18.67a22.526,22.526,0,0,1,.151-4.58c0.113-.511,0-1.053.1-1.494V6.331c0.155-.691.141-1.567,0.3-2.191C19.387,3.5,19.482,2.119,20.075,2a8.962,8.962,0,0,1,.9,2.937q0.025,0.647.05,1.294c0.129,0.584.07,1.35,0.2,1.942V9.319A21.484,21.484,0,0,1,21.38,13.053Z"/>
</svg>
