<svg xmlns="http://www.w3.org/2000/svg" width="40" height="40" viewBox="0 0 40 40">
  <defs>
    <style>
      .cls-1 {
        fill: #fff;
        fill-rule: evenodd;
      }
    </style>
  </defs>
  <path id="Color_Fill_1" data-name="Color Fill 1" class="cls-1" d="M21.321,13.034c1.116,0.014,2.212.056,3.235,0a2.408,2.408,0,0,0,1.185-.09,2.508,2.508,0,0,1-.046-1.357c0-.537.184-1.847,0.5-1.99h0.957l0.137-.181a0.535,0.535,0,0,0-.273-0.136,1.263,1.263,0,0,1-.911.136C25.149,9.206,23.981,9.3,23.1,9.1V9.009l2.232-.181,1.822,0.09V8.873H27.2c-0.006-.5-0.012-0.962.547-0.95a0.393,0.393,0,0,1,.137.181,1.668,1.668,0,0,1,.137.724H28.2c0.013,0.12.038,0.095,0.273,0.09a2.2,2.2,0,0,1,1,0,13.761,13.761,0,0,1,2.551.271V9.235H31.982a3.233,3.233,0,0,1-.911.09,9.9,9.9,0,0,1-3.007-.045,0.4,0.4,0,0,1-.137.136V9.461h0.046a1.552,1.552,0,0,0,1.048.136,0.165,0.165,0,0,0,.091.045,8.708,8.708,0,0,1,.5,3.3c-0.148.037-.07-0.022-0.137,0.09h0.911c0.451,0.282,1.853-.039,2.551,0,2.076,0.115,4.362.052,6.515,0.045a0.928,0.928,0,0,1,.091.226,0.13,0.13,0,0,0-.046.045,0.332,0.332,0,0,1,.364.091,1.985,1.985,0,0,1,.046.543,6.975,6.975,0,0,1-.091,2.487,1.6,1.6,0,0,1-.228,1.04,0.525,0.525,0,0,1-.5.09c-0.018.114,0.026,0.071-.137,0.09a11.589,11.589,0,0,1-1.777.5,0.885,0.885,0,0,1-.592.045,7.624,7.624,0,0,1-2.415.633,32.593,32.593,0,0,1-3.189.9,11.284,11.284,0,0,0-2.232.588,3.129,3.129,0,0,0-.182.633c-0.2.553-.415,1.2-0.638,1.718a0.806,0.806,0,0,1-.41.678c-0.132-.565-0.491-1.19-0.683-1.764a1.368,1.368,0,0,0-.273-0.769,4.684,4.684,0,0,1-1.23.317c-0.946.3-1.968,0.47-2.961,0.769a2.961,2.961,0,0,1-1.23.271v0.633a14.721,14.721,0,0,0-.182,2.261c-0.122.556-.059,1.288-0.182,1.854v0.724a13.026,13.026,0,0,0-.182,2.487,8.149,8.149,0,0,1,1.959.452c1.136,0.323,2.232.4,3.371,0.724a11.817,11.817,0,0,0,2.1.5,1.4,1.4,0,0,1,.319.362,2.854,2.854,0,0,1-.774,2.487,5.184,5.184,0,0,1-2.1.136c-1.783,0-3.519.009-5.194,0A10.916,10.916,0,0,1,19.954,37l-0.273-2.17h-4.92a9.063,9.063,0,0,1-2.187-.045,1.409,1.409,0,0,1-.638-0.769,2.2,2.2,0,0,1-.273-1.809,0.328,0.328,0,0,1,.228-0.271,8,8,0,0,1,2.187-.543c1.01-.285,2.084-0.426,3.144-0.724a11.7,11.7,0,0,1,2.141-.5c0.021-2.706-.523-5.253-0.547-7.913a6.311,6.311,0,0,1-1.549-.407c-0.88-.293-1.8-0.415-2.642-0.678-0.185-.058-1.276-0.317-1.276-0.317a4.165,4.165,0,0,0-.273.95c-0.1.288-.256,0.63-0.365,0.9a0.818,0.818,0,0,1-.41.678,7.431,7.431,0,0,0-.41-0.9c-0.191-.462-0.291-0.954-0.456-1.4a2.081,2.081,0,0,0-.228-0.769,1.9,1.9,0,0,0-.5-0.09c-0.611-.187-1.264-0.288-1.913-0.5-1.735-.558-3.667-0.919-5.421-1.447-0.744-.224-1.484-0.328-2.187-0.543a1.828,1.828,0,0,1-.866-0.271A2.875,2.875,0,0,1,.137,16.38a10.01,10.01,0,0,1-.046-3.03H0.41V13.215a4.558,4.558,0,0,1,1.868-.136H6.925a1,1,0,0,0,.5.045,20.741,20.741,0,0,1,2.187-.09,1.661,1.661,0,0,0,.866-0.09,1.634,1.634,0,0,1-.091-0.95c0-.7.112-2.15,0.547-2.351,0.229-.138.674,0.065,0.957-0.045,0.037-.014.124-0.107,0.182-0.136a0.477,0.477,0,0,0-.319-0.181,1.02,1.02,0,0,1-.774.136C10.262,9.258,8.215,9.388,7.79,9.054H7.836a4.132,4.132,0,0,1,1.5-.136c0.88-.079,1.656-0.005,2.551,0V8.873h0.045a6.985,6.985,0,0,1,.137-0.859,0.94,0.94,0,0,1,.456-0.09,1.13,1.13,0,0,0,.182.226l0.046,0.724a36.748,36.748,0,0,1,4.009.226V9.145H16.72a4.443,4.443,0,0,1-1.276.136,9.472,9.472,0,0,1-2.642,0,0.4,0.4,0,0,1-.137.136V9.461h0.046a1.553,1.553,0,0,0,1.048.136,5.263,5.263,0,0,1,.456,3.437h1.367a2.3,2.3,0,0,0,.866.045c0.67-.005,1.451-0.037,2.187-0.045a20.3,20.3,0,0,1,.137-3.979V8.014C18.929,7.3,18.84,6.42,19,5.708l0.046-.995A6.283,6.283,0,0,1,19.954,2c0.567,0.2.648,1.537,0.82,2.216,0.139,0.549.139,1.329,0.273,1.944V6.748a11.389,11.389,0,0,1,.137,1.221v0.9A22.423,22.423,0,0,1,21.321,13.034Z"/>
</svg>
