<svg xmlns="http://www.w3.org/2000/svg" width="40" height="40" viewBox="0 0 40 40">
  <defs>
    <style>
      .cls-1 {
        fill: #fff;
        fill-rule: evenodd;
      }
    </style>
  </defs>
  <path id="Color_Fill_1" data-name="Color Fill 1" class="cls-1" d="M22.7,15.79h0.165V15.9a0.943,0.943,0,0,1,.11.609,15.305,15.305,0,0,0,1.6.055,1.691,1.691,0,0,1,.055-0.388h0.386a0.28,0.28,0,0,0,.165.055,0.465,0.465,0,0,1,.055-0.277,0.587,0.587,0,0,0,.055.332,11.179,11.179,0,0,0,1.157.776,12.787,12.787,0,0,0,2.038.166h0.771l8.76,0.72c-0.021-.726.183-1.759,0.716-1.939,0.911-.563.974,1.5,1.1,2.105a13.272,13.272,0,0,1-.055,3.934l-0.055.831a22.08,22.08,0,0,0-.606,2.493c-0.11,0-.016-0.057-0.11,0a0.6,0.6,0,0,1-.055.388,0.2,0.2,0,0,1-.055-0.111,10.417,10.417,0,0,1-.771-2.881h-0.22a3.967,3.967,0,0,1-.992.222c-0.785.224-1.638,0.315-2.479,0.554-2.418.688-4.991,1.231-7.548,1.773a0.381,0.381,0,0,1-.22.388,1.855,1.855,0,0,1-.5,0c-1.009.362-1.431,1.491-1.983,2.327-0.59.892-1.163,1.8-1.763,2.715a9.47,9.47,0,0,0-.771,1.053l-0.5,3.158c1.84,0.672,3.775,1.254,5.565,1.995,0.555,0.23,1.8.409,2.094,0.831C29.4,38.617,28.554,39.6,28.154,40H11.736c-0.582-.749-0.934-0.991-0.661-2.161,1.581-.973,3.784-1.425,5.565-2.161a10.194,10.194,0,0,0,2.094-.72,0.2,0.2,0,0,0,.055-0.111c-0.37-.615-0.2-2.243-0.5-2.992a9.321,9.321,0,0,0-.992-1.44c-0.675-1.018-1.319-2.045-1.983-3.047a3.475,3.475,0,0,0-1.653-1.717,0.47,0.47,0,0,1-.5.055,0.6,0.6,0,0,0-.22-0.388,2.554,2.554,0,0,0-.716-0.166c-0.84-.241-1.75-0.353-2.645-0.61C8.1,24.118,6.51,23.932,4.959,23.49a17.434,17.434,0,0,0-3.141-.72v0.055H1.763a9.334,9.334,0,0,1-.771,2.936V25.651a4.917,4.917,0,0,1-.5-1.828,18.556,18.556,0,0,1-.441-4.875c0.013-1.057,0-2.656.771-2.936a0.725,0.725,0,0,1,.386-0.055,3.037,3.037,0,0,1,.716,1.994l8.76-.72,2.645-.111c0.1-.032,1.338-0.774,1.377-0.831a3.144,3.144,0,0,0,.055-0.332,0.467,0.467,0,0,0,.055.277,1.017,1.017,0,0,1,.5-0.055l0.055,0.388a13.639,13.639,0,0,0,1.6-.055V15.956a0.507,0.507,0,0,1,.276-0.166,23.285,23.285,0,0,1,.165-4.709c0.153-.692.025-1.417,0.165-2.05L17.686,7.2c0.315-1.4.338-2.889,0.716-4.155C18.685,2.1,19.052.029,20.11,0a8.142,8.142,0,0,1,1.6,3.6L21.873,4.82c0.222,0.9.225,2.033,0.441,2.992Q22.342,8.5,22.369,9.2c0.09,0.408.006,0.908,0.11,1.385A26.542,26.542,0,0,1,22.7,15.79Z"/>
</svg>
