<svg xmlns="http://www.w3.org/2000/svg" width="40" height="40" viewBox="0 0 40 40">
  <defs>
    <style>
      .cls-1 {
        fill: #fff;
        fill-rule: evenodd;
      }
    </style>
  </defs>
  <path id="Color_Fill_1" data-name="Color Fill 1" class="cls-1" d="M38,26.813l-11.807-.251L23.667,26.5a2.966,2.966,0,0,0-1.073-.565,5.269,5.269,0,0,0-.063,1.319,13.487,13.487,0,0,0-.126,3.014,9.014,9.014,0,0,0,1.326,2.072c0.83,1.3,1.57,2.587,2.4,3.893a8.773,8.773,0,0,1,1.137,1.758H27.2a5.371,5.371,0,0,1-1.642,1.256l0.063,0.126H25.561a0.228,0.228,0,0,1-.126.063c-0.1-.325-2.347-0.838-2.841-0.942a1.573,1.573,0,0,0-.126-0.314V38.43H21.963V37.865L20.005,37.8a1.676,1.676,0,0,0-.063-0.754c0.006,1.077-.183,1.7-0.189,2.763a0.274,0.274,0,0,0-.19.188,0.226,0.226,0,0,1-.063-0.126,1.739,1.739,0,0,1-.126-1.13c-0.474-.224-0.048-1.44-0.316-1.884V37.8l-1.894.063v0.126a0.827,0.827,0,0,0-.063.44H16.6a0.4,0.4,0,0,0-.063-0.251v0.314l-2.9.754c0,0.2.09,0.117-.126,0.188V39.184a0.306,0.306,0,0,1-.189-0.063c-0.577-.238-0.959-0.839-1.515-1.13L11.86,37.8a8.535,8.535,0,0,0,.947-1.507c0.8-1.267,1.642-2.537,2.462-3.83a9.085,9.085,0,0,0,1.452-2.323,7.071,7.071,0,0,0-.126-1.758q-0.032-1.256-.063-2.512H16.406c-0.88.883-3.054,0.688-4.8,0.691l-10.544.251a2.224,2.224,0,0,1,.316-1.7c0.654-.47,2.57-0.708,3.473-1,2.315-.762,4.816-1.375,7.135-2.135a17.863,17.863,0,0,0,3.283-.942,8.641,8.641,0,0,0,.695-1.947,15.747,15.747,0,0,0,.947-2.449c0.06-.4-0.449-0.676-0.126-1.13a0.961,0.961,0,0,1,.758-0.565,15.337,15.337,0,0,1,.505-1.633l-0.063-1.319a5.828,5.828,0,0,0,0-1.507,0.8,0.8,0,0,1-.063-0.44,2.057,2.057,0,0,1,.253-0.188,0.321,0.321,0,0,0-.126-0.314h0.126l0.063-1.821c0.121-.525-0.011-1.169.126-1.758,0.244-1.05.282-2.216,0.568-3.14C19.135,2.17,19.323,1.56,19.5,1a6.367,6.367,0,0,1,.063-1,5.837,5.837,0,0,0,.505,2.261c0.3,0.916.35,1.922,0.568,2.889,0.24,1.062.028,2.243,0.253,3.265v1.13h0.126a0.507,0.507,0,0,0-.063.377,0.886,0.886,0,0,1,.189.126,1.283,1.283,0,0,1-.063.565,11.822,11.822,0,0,0,0,1.507,0.6,0.6,0,0,1,.063.314,2.749,2.749,0,0,0-.063,1.256c0.118,0.422.393,0.854,0.505,1.319a0.7,0.7,0,0,1,.695.5c0.335,0.467-.2.736-0.126,1.13a9.547,9.547,0,0,0,.631,1.507c0.407,0.993.611,1.992,1.01,2.951a5.813,5.813,0,0,1,1.515.44c1.32,0.434,2.657.717,3.915,1.13,1.965,0.646,3.966,1.076,5.872,1.7,0.909,0.3,1.816.4,2.652,0.753A3.376,3.376,0,0,1,38,26.813Z" transform="translate(0.469)"/>
</svg>
