<svg xmlns="http://www.w3.org/2000/svg" width="40" height="40" viewBox="0 0 40 40">
  <defs>
    <style>
      .cls-1 {
        fill: #fff;
        fill-rule: evenodd;
      }
    </style>
  </defs>
  <path id="Color_Fill_1" data-name="Color Fill 1" class="cls-1" d="M36,26.667l-12.36-.309c-0.38-.123-0.687-0.5-1.112-0.617v1.111a18.843,18.843,0,0,0-.124,3.025,3.467,3.467,0,0,0,.927,1.728c0.851,1.274,1.634,2.57,2.41,3.889,0.344,0.585.8,1.161,1.174,1.728a1.1,1.1,0,0,1,.247.556c-0.445.563-1.352,0.809-1.669,1.482H25.371V39.012a15.507,15.507,0,0,1-2.843-.741,0.517,0.517,0,0,0-.062-0.309,0.886,0.886,0,0,1-.062.309H21.972l-0.062-.617a10.772,10.772,0,0,1-1.916-.062,0.8,0.8,0,0,0-.062-0.432A7.634,7.634,0,0,1,19.5,40l-0.124-1.481-0.185-.062c-0.242-.537.166-1.34-0.124-1.79a2.209,2.209,0,0,1-.062.926,5.081,5.081,0,0,1-1.854.062v0.617H16.657V38.025H16.534a0.884,0.884,0,0,1-.062.309c-0.97.059-1.752,0.582-2.719,0.679a0.781,0.781,0,0,1-.062.247H13.629V39.2a8.723,8.723,0,0,1-1.73-1.543,10.045,10.045,0,0,0,1.421-2.222c0.749-1.184,1.522-2.369,2.287-3.58a8.323,8.323,0,0,0,1.112-1.728A13.85,13.85,0,0,0,16.6,27.1a3.276,3.276,0,0,0-.124-1.358c-0.756.713-2.166,0.679-3.646,0.679a23.68,23.68,0,0,0-4.017.123c-0.873.194-1.985-.115-2.781,0.062a18.193,18.193,0,0,1-2.9,0,2.608,2.608,0,0,1-.062-1.049c0.248-.377.061-0.928,0.433-1.173L4.3,24.2C4.9,24,5.55,23.86,6.213,23.642c1.781-.584,3.715-1.084,5.5-1.667,0.858-.28,1.733-0.477,2.534-0.741a2.122,2.122,0,0,0,1.112-.37,11.891,11.891,0,0,0,.865-2.469c0.6-1.468,1.343-3.238,1.792-4.753l0.062-1.728a18.733,18.733,0,0,1,.185-3.272l0.185-3.333c0.144-.623.129-1.331,0.309-1.975,0.212-.759.515-1.6,0.742-2.284A6.63,6.63,0,0,1,19.562,0a6.638,6.638,0,0,0,.556,2.407l0.494,2.531,0.124,2.037a18.28,18.28,0,0,1,.247,2.531,6.179,6.179,0,0,0,0,.988l0.062,3.025a32.5,32.5,0,0,0,1.3,3.4c0.553,1.348.873,2.75,1.421,4.074a18.718,18.718,0,0,1,3.584,1.049c1.176,0.388,2.289.537,3.461,0.926,1.567,0.52,3.281,1.04,4.882,1.481A5.2,5.2,0,0,1,36,26.667Zm-16.006,10a0.8,0.8,0,0,0,.062.432A0.8,0.8,0,0,0,19.994,36.667Z" transform="translate(0.469)"/>
</svg>
