<svg xmlns="http://www.w3.org/2000/svg" width="40" height="40" viewBox="0 0 40 40">
  <defs>
    <style>
      .cls-1 {
        fill: #fff;
        fill-rule: evenodd;
      }
    </style>
  </defs>
  <path id="Color_Fill_1" data-name="Color Fill 1" class="cls-1" d="M21.525,8.622h0.089A1.607,1.607,0,0,1,21.643,8c0.009,0.241.029,0.52,0.03,0.8-0.17.069-.161,0.172-0.148,0.415a1.345,1.345,0,0,1,.03.533h0.059a0.151,0.151,0,0,1,.089-0.03,0.6,0.6,0,0,1,.03-0.207h0.03V9.837c-0.2.1-.221,0.185-0.207,0.5a2.774,2.774,0,0,1,.03.978V13.9h0.3V12.889h1.569a3.615,3.615,0,0,0,.237,1.126v0.474c0.035,0.133.067,0.292,0.118,0.444,0.449,1.337,1,2.622,1.54,3.882,0.188,0.441.354,0.883,0.533,1.3a1.1,1.1,0,0,0,.237.533,1.161,1.161,0,0,0,.444-0.8,1.621,1.621,0,0,0,.089-0.741,0.31,0.31,0,0,1,.178-0.059,1.245,1.245,0,0,1,.059.533A5.46,5.46,0,0,1,27,21.156h0.326a8.286,8.286,0,0,1,.03-1.452l0.148-.03a2.457,2.457,0,0,1,.089,1.037,1.41,1.41,0,0,1,.03.533v1.3c2.7,1.105,5.545,1.979,8.231,3.111,0.71,0.3,1.444.51,2.132,0.8a2.389,2.389,0,0,1,.977.444A10.985,10.985,0,0,1,40,29.541H39.615a3.315,3.315,0,0,0-.829-0.059c-0.48-.1-1.087-0.014-1.569-0.119H36.684l-8.5-.5-2.517-.119a3.414,3.414,0,0,1-.444-0.326,2.372,2.372,0,0,1-.533-0.326v-0.8h-0.03v0.03h-0.03a4.531,4.531,0,0,0-.059,1.244c0,0.833.084,1.612,0.089,2.459a4.4,4.4,0,0,1,.681.859c0.373,0.5.806,0.97,1.184,1.482,0.833,1.125,1.8,2.156,2.635,3.289,0.232,0.314.553,0.592,0.77,0.919a1.572,1.572,0,0,1,.207,1.274,1.912,1.912,0,0,1-.355.415,0.547,0.547,0,0,1-.415.3,4.262,4.262,0,0,1-.977-0.089c-0.791-.19-1.7-0.2-2.487-0.385a3.349,3.349,0,0,1-.977-0.148c-0.375-.413-0.532-1.227-0.888-1.659a3.136,3.136,0,0,1-.5,1.422q-0.015.622-.03,1.244A0.175,0.175,0,0,0,23.39,40a4.336,4.336,0,0,0-.267-1.274H22.265a0.107,0.107,0,0,0-.059-0.03,8.636,8.636,0,0,1-.415-1.244,0.107,0.107,0,0,0-.03.059,2.7,2.7,0,0,1-.326.563,1.528,1.528,0,0,1-.8.089c0,0.431-.056.751-0.059,1.156H20.311a1.151,1.151,0,0,1-.03.267,0.637,0.637,0,0,1-.207.03,1.32,1.32,0,0,0-.355-0.059,0.449,0.449,0,0,1-.059-0.119,0.2,0.2,0,0,1-.03-0.118H19.423c0-.4-0.057-0.724-0.059-1.156a2.192,2.192,0,0,1-.829-0.089,1.425,1.425,0,0,1-.207-0.415H18.3v0.681a0.55,0.55,0,0,0-.03.267h-0.03v-0.03c-0.023-.057-0.03.059-0.03,0.059a0.256,0.256,0,0,1,.03.148h-0.03l-1.332.059a2.508,2.508,0,0,0-.207,1.1,0.373,0.373,0,0,0-.118.03V39.5a2.494,2.494,0,0,1-.059-0.681,0.75,0.75,0,0,1-.474-0.059c-0.021-.03-0.038-0.119-0.059-0.148a0.191,0.191,0,0,1-.03.119c-0.006-.434-0.047-0.878-0.03-1.3H15.87v0.059a2.875,2.875,0,0,0-.3.563c-0.176.289-.352,0.6-0.5,0.919l-3.286.444a3.147,3.147,0,0,1-1.273.118,0.87,0.87,0,0,1-.415-0.385,1.7,1.7,0,0,1-.237-0.267,1.967,1.967,0,0,1,.592-1.807c0.294-.4.68-0.759,0.977-1.156,0.846-1.131,1.766-2.183,2.605-3.318,0.306-.413.665-0.793,0.977-1.215a2.537,2.537,0,0,0,.326-0.356V30.637a3.62,3.62,0,0,0,.059-0.889,10.768,10.768,0,0,0,.03-1.57,1.555,1.555,0,0,0-.089-0.859v-0.03h-0.03v0.83a8.954,8.954,0,0,0-.977.622L0,29.541v-0.03a2.192,2.192,0,0,0,.178-0.593C0.391,28.276.768,26.9,1.362,26.7a0.084,0.084,0,0,0,.03.03V26.7a1.971,1.971,0,0,1,.622-0.237c0.689-.286,1.42-0.505,2.132-0.8,1.983-.821,4.088-1.489,6.07-2.311,0.556-.231,1.124-0.4,1.658-0.622a1.309,1.309,0,0,0,.5-0.178V20.682a4.058,4.058,0,0,0,.059-0.978l0.148-.03a3.845,3.845,0,0,1,.089,1.482H13c-0.005-.747.111-1.351,0.118-2.044a0.31,0.31,0,0,1,.178-0.059l0.03,0.089a3.962,3.962,0,0,1,.118,1.007,2.719,2.719,0,0,0,.5.5,1.717,1.717,0,0,1,.207-0.5c0.185-.421.331-0.843,0.5-1.244,0.569-1.33,1.107-2.665,1.569-4.059,0.085-.257.012-0.558,0.089-0.83a3.706,3.706,0,0,0,.237-1.126H18.12V13.9h0.3V10.1c-0.176-.077-0.191-0.15-0.178-0.415h0.03v0.03c0.021,0.03.038,0.118,0.059,0.148a0.211,0.211,0,0,0,.118.059V9.007a0.392,0.392,0,0,0,.03-0.207l-0.148-.03V8.119c0.02-.03.038-0.118,0.059-0.148a2.244,2.244,0,0,0,.03.622h0.059V8.326A2.743,2.743,0,0,0,18.5,7.7a5.025,5.025,0,0,0-.03-1.393,2.883,2.883,0,0,1,.178-0.948h0.089a6.07,6.07,0,0,1,.237-1.57c0.072-.276.042-0.5,0.119-0.77a13.521,13.521,0,0,1,.829-2.37C20,0.507,19.921.148,20.015,0a2.764,2.764,0,0,0,.415,1.393,16.2,16.2,0,0,1,.474,1.63c0.149,0.507.11,0.98,0.237,1.511,0.084,0.35.094,0.795,0.178,1.156v0.3A14.731,14.731,0,0,1,21.525,8.622Z"/>
</svg>
