<svg xmlns="http://www.w3.org/2000/svg" width="40" height="40" viewBox="0 0 40 40">
  <defs>
    <style>
      .cls-1 {
        fill: #fff;
        fill-rule: evenodd;
      }
    </style>
  </defs>
  <path id="Color_Fill_1" data-name="Color Fill 1" class="cls-1" d="M21,11.191h1.442a24.378,24.378,0,0,0,.173,2.583v0.689a18.656,18.656,0,0,1,.981,3.9h0.115c0.056-.014.022-0.045,0.058,0a2.5,2.5,0,0,1,.115,1.205l0.981,0.918V19.57h0.115v0.115a2.107,2.107,0,0,1,.115,1.09L25.385,21a3.132,3.132,0,0,1,.115-0.861h0.058V20.6a1.552,1.552,0,0,1,.058.689h0.058V21.234a11.956,11.956,0,0,0,.4-1.664h0.058v0.8a3.988,3.988,0,0,1,.058,1.492l4.5,4.419a9.764,9.764,0,0,0,1.9,1.951c0.024-.205-0.027-0.144.115-0.23a7.046,7.046,0,0,0,.231.976,5.2,5.2,0,0,1-.923,2.066,1.455,1.455,0,0,1-.577.918,12.469,12.469,0,0,0-1.9-.4c-0.6-.159-1.308-0.316-1.9-0.459H23.712a3.292,3.292,0,0,0-.058.918,4.151,4.151,0,0,0-.115,1.492,0.739,0.739,0,0,1,.058-0.4v0.057a15.376,15.376,0,0,0,1.442,1.664,2.045,2.045,0,0,1,.058-0.861c0.662,1.045,1.616,1.932,2.365,2.927a2.5,2.5,0,0,1,.923,1.435c-0.29.475-.471,1.518-1.038,1.664a3.891,3.891,0,0,0-1.038-.23C25.587,39.569,24.722,39.4,24,39.2a2.775,2.775,0,0,1-.808-0.172c-0.174-.286.062-0.978-0.115-1.263a5.893,5.893,0,0,1-.058,1.607H22.846a10.03,10.03,0,0,0-.865-3.1,6.917,6.917,0,0,0,0-1.263,3.527,3.527,0,0,1-.173.861l0.058,1.32c-0.8,0-1.265,0-2.077,0V37.073a4.467,4.467,0,0,0-.173-2.353,0.208,0.208,0,0,1-.115.057v1.09a1.123,1.123,0,0,1,.115.23H19.269V35.983a2.681,2.681,0,0,0,.115-1.205,0.732,0.732,0,0,1-.231-0.057v0.517a3.875,3.875,0,0,0-.115,1.951c-0.8,0-1.265,0-2.077,0a3.6,3.6,0,0,0-.115-2.066,6.814,6.814,0,0,1-.635,2.984,4.221,4.221,0,0,1-.346,1.148V39.2a8,8,0,0,1-.115-1.32H15.692v0.287a2.066,2.066,0,0,1,.058.861H15.692v0.057a7.854,7.854,0,0,0-1.846.4l-1.327.23a2.716,2.716,0,0,1-1.154.23,2.789,2.789,0,0,1-.865-1.836,4.557,4.557,0,0,1,1.1-1.435c0.444-.59.883-1.131,1.327-1.722a8.174,8.174,0,0,0,.865-1.033h0.058v0.918H13.9V34.72a11.844,11.844,0,0,0,1.327-1.492,0.125,0.125,0,0,1,.115,0V32.712a5.7,5.7,0,0,1-.173-1.607H11.25a35.567,35.567,0,0,1-3.981.861c-0.38-1.432-1.724-2.126-1.1-4.017H6.231v0.057c0.039,0.044.076,0.128,0.115,0.172l4.731-4.763,1.615-1.549V20.373a1.894,1.894,0,0,0,.058-0.8h0.058v0.057c0.312,0.42-.116,1.486.173,1.951a1.872,1.872,0,0,1,.058-0.8V20.89c0.084,0.112.091,0.34,0.173,0.459a4.756,4.756,0,0,1,.173-1.435A4.813,4.813,0,0,0,13.5,21h0.058V20.947A4.86,4.86,0,0,0,13.9,19.57h0.058a4.676,4.676,0,0,0,.058.918h0.058V20.43A1.833,1.833,0,0,0,15,18.479c0.039-.044.076-0.128,0.115-0.172a0.3,0.3,0,0,0,.173.057,11.952,11.952,0,0,1,.981-3.9V13.429c0.144-.649.046-1.64,0.173-2.238h1.385v0.057h0.058C17.92,12.177,18,13.109,18,14.118h0.173C17.935,9.328,17.853,3.291,19.385,0H19.5c0.18,0.743.541,1.525,0.75,2.3a29.938,29.938,0,0,1,.519,7.116v3.214a3.742,3.742,0,0,0,.058,1.492c0.133,0.3-.095.789,0.058,1.033C20.879,13.785,20.944,12.413,21,11.191ZM15.346,33.286a0.6,0.6,0,0,0,.058.344A0.6,0.6,0,0,0,15.346,33.286Zm8.077,0.4a0.276,0.276,0,0,0,.058.172A0.277,0.277,0,0,0,23.423,33.687Zm-8.019.172a0.277,0.277,0,0,0,.058.172A0.276,0.276,0,0,0,15.4,33.859ZM23.365,34.2v0.115h0.058A0.2,0.2,0,0,0,23.365,34.2Zm-7.9.115a0.37,0.37,0,0,0,.058.23A0.369,0.369,0,0,0,15.462,34.319Zm7.846,0.287V34.72h0.058A0.2,0.2,0,0,0,23.308,34.606Zm-7.789.115a0.479,0.479,0,0,0,.058.287A0.478,0.478,0,0,0,15.519,34.72Zm7.731,0.23a0.369,0.369,0,0,0,.058.229A0.369,0.369,0,0,0,23.25,34.95Zm-7.673.172a0.6,0.6,0,0,0,.058.344A0.6,0.6,0,0,0,15.577,35.122Zm7.615,0.287a0.277,0.277,0,0,0,.058.172V35.409H23.192Z" transform="translate(0.531)"/>
</svg>
