<svg xmlns="http://www.w3.org/2000/svg" width="40" height="40" viewBox="0 0 40 40">
  <defs>
    <style>
      .cls-1 {
        fill: #fff;
        fill-rule: evenodd;
      }
    </style>
  </defs>
  <path id="Color_Fill_1" data-name="Color Fill 1" class="cls-1" d="M21.059,11.24h1.459a17.261,17.261,0,0,1,.133,1.851v1.322c0.107,0.381.4,0.865,0.531,1.256a12.393,12.393,0,0,1,.6,3.769L32.6,28.165c0.055-.215-0.032-0.1.133-0.2v0.066c0.721,1.019-.349,2.422-0.73,3.041-0.268.437-.121,0.864-0.862,0.86a4.165,4.165,0,0,0-1.658-.4c-0.588-.157-1.552-0.363-1.99-0.463a1.646,1.646,0,0,0-.663.066,11.137,11.137,0,0,1-3.052-.066v0.4a4.708,4.708,0,0,0-.133,1.719,6.438,6.438,0,0,1,1.393,1.653h0.066a1.963,1.963,0,0,1,.066-0.86l3.251,3.967A3.041,3.041,0,0,1,27.56,40c-1.037-.181-2.139-0.455-3.118-0.727a3.857,3.857,0,0,1-1.194-.264c-0.059-.093-0.072-0.371-0.133-0.463a2.865,2.865,0,0,1-.066.86H22.983V39.339a4.678,4.678,0,0,1-.133-0.793,10,10,0,0,0-.8-2.248l-0.066.859H19.865q-0.066-1.19-.133-2.38H19.6V35.9a0.336,0.336,0,0,1,.066.2H19.334V35.967a2.525,2.525,0,0,0,.133-1.19H19.334v0.132a7.916,7.916,0,0,0-.133,2.248H17.012V36.231H16.946v0.132c-0.56.746-.523,2.052-0.862,3.041a0.227,0.227,0,0,1-.133-0.066c-0.113-.186-0.017-0.675-0.133-0.859v0.6c-1.51.037-2.917,0.715-4.378,0.926-0.247-.72-0.838-0.932-0.862-1.983a21.265,21.265,0,0,0,1.592-2.05,16.272,16.272,0,0,0,1.659-1.983h0.133v0.727a0.239,0.239,0,0,0-.066.132h0.066c0.39-.612,1.3-1.156,1.459-1.917a4.445,4.445,0,0,1-.133-1.851H15.221c-0.42.253-3.25,0.009-3.848,0a4.882,4.882,0,0,0-.862.264l-1,.132a8.457,8.457,0,0,1-2.123.463c-0.255-.98-1.087-1.71-1.327-2.711a4.269,4.269,0,0,1,.2-1.256h0.2a0.319,0.319,0,0,0,.066.2V28.033A15.993,15.993,0,0,0,8.72,25.851L13.3,21.289l1.99-1.917V18.314l0.332-1.851c0.2-.622.547-1.342,0.73-1.917V12.694a8.672,8.672,0,0,0,.133-1.455h1.459v0.132c0.342,0.517.141,2.008,0.133,2.777,0.215-.055.1,0.032,0.2-0.132a5.431,5.431,0,0,1-.066-1.719,31.871,31.871,0,0,1,0-4.959c0.237-.457-0.34-0.776-0.066-1.19a0.7,0.7,0,0,0,.066.4A22.185,22.185,0,0,1,19.467,0H19.6l0.663,1.917a17.9,17.9,0,0,1,.531,4.628H20.86a0.252,0.252,0,0,1,.133-0.2V6.612a5.272,5.272,0,0,0-.133,2.116c0,1.819-.078,3.7-0.066,5.422h0.133V12.1A2.1,2.1,0,0,0,21.059,11.24Z" transform="translate(0.484)"/>
</svg>
