<svg xmlns="http://www.w3.org/2000/svg" width="40" height="40" viewBox="0 0 40 40">
  <defs>
    <style>
      .cls-1 {
        fill: #fff;
        fill-rule: evenodd;
      }
    </style>
  </defs>
  <path id="Color_Fill_1" data-name="Color Fill 1" class="cls-1" d="M21.031,11.27h1.461v0.139c0.454,0.749-.159,2.122.139,3.061a14.967,14.967,0,0,1,1.113,4.939l6.611,6.539a15.476,15.476,0,0,0,2.227,2.226c0.058-.226-0.034-0.106.139-0.209a3.764,3.764,0,0,1,.209,1.322A12.433,12.433,0,0,1,31.469,32a10.038,10.038,0,0,0-1.67-.348,23.765,23.765,0,0,0-6.054-.487l-0.139,2.017A5.594,5.594,0,0,1,25,34.852h0.07a0.985,0.985,0,0,1,.139-0.835,6.52,6.52,0,0,0,1.253,1.53,18.6,18.6,0,0,0,1.948,2.435C28.44,38.84,27.928,40,27.155,40a20.924,20.924,0,0,0-3.966-.9,1.463,1.463,0,0,0-.069-0.7,3.59,3.59,0,0,1-.07,1.044H22.91V39.3a6.538,6.538,0,0,1-.209-1.183c-0.189-.576-0.478-1.194-0.626-1.809h-0.07v0.9H19.848q-0.07-1.217-.139-2.435H19.57v0.765a1.355,1.355,0,0,1,.07.556H19.361a12.025,12.025,0,0,0,.07-1.322H19.291V35.27a7.564,7.564,0,0,0-.139,1.948H16.995c0-.448.008-0.5,0-0.9h-0.07v0.139c-0.517.7-.449,2.189-0.974,2.852a4.107,4.107,0,0,0-.139-1.6,7.778,7.778,0,0,1,0,1.322,3.662,3.662,0,0,1-1.183.278,14.165,14.165,0,0,1-3.2.7,3.468,3.468,0,0,1-.835-1.948,14.925,14.925,0,0,0,1.044-1.391c0.383-.511.94-0.951,1.322-1.461a4.579,4.579,0,0,1,.974-1.183,1.866,1.866,0,0,0,.07.835c0.417-.69,1.367-1.143,1.392-2.157a4.272,4.272,0,0,1-.139-1.531,22.379,22.379,0,0,0-5.776.417,9.891,9.891,0,0,1-2.018.348A12.438,12.438,0,0,1,6.07,29.217a2.72,2.72,0,0,1,.278-1.252c0.1,0.067.152,0.249,0.209,0.139a15.727,15.727,0,0,0,2.157-2.156l4.523-4.522c0.682-.682,2.018-1.431,2.018-2.713l0.278-1.878c0.236-.793.613-1.643,0.835-2.365v-2.3a7.554,7.554,0,0,0,.139-0.9h1.461c0.058,0.894.136,1.873,0.139,2.922h0.139V13.7a5.881,5.881,0,0,1-.07-2.087V6.748a0.911,0.911,0,0,1-.139-0.487h0.07a1,1,0,0,0,.07.348h0.07V5.565a6.514,6.514,0,0,0,.139-1.53C18.6,3.11,18.944.318,19.57,0c0.121,0.484.4,0.993,0.557,1.461a17.585,17.585,0,0,1,.626,5.078h0.139a0.582,0.582,0,0,1,.07-0.348V6.748c-0.291.2-.149,1.413-0.139,1.878a14.062,14.062,0,0,1,.07,3.061,8.7,8.7,0,0,0-.07,2.5h0.07v-1.53A3.957,3.957,0,0,0,21.031,11.27Z" transform="translate(0.484)"/>
</svg>
