<svg xmlns="http://www.w3.org/2000/svg" width="40" height="40" viewBox="0 0 40 40">
  <defs>
    <style>
      .cls-1 {
        fill: #fff;
        fill-rule: evenodd;
      }
    </style>
  </defs>
  <path id="Color_Fill_1" data-name="Color Fill 1" class="cls-1" d="M22.518,11.24a17.576,17.576,0,0,1,.133,1.917v1.256a16,16,0,0,1,.929,4.826L32.6,28.165c0.055-.215-0.032-0.1.133-0.2v0.066c0.731,1.025-.278,2.241-0.663,2.975a7.631,7.631,0,0,1-.4.926H31.143a5.528,5.528,0,0,0-1.725-.4,24.682,24.682,0,0,0-5.639-.4q-0.066,1.025-.133,2.05a6.572,6.572,0,0,1,1.393,1.653h0.066a1.963,1.963,0,0,1,.066-0.86c0.671,1.06,1.629,1.962,2.388,2.975a2.539,2.539,0,0,1,.929,1.455c-0.355.535-.4,1.507-1.194,1.587a4.317,4.317,0,0,0-1.194-.264,16.62,16.62,0,0,0-2.919-.661,2.962,2.962,0,0,0-.066-1.19,3.766,3.766,0,0,1-.066,1.454,13.417,13.417,0,0,0-1-3.041,1.023,1.023,0,0,1-.066.529,5.877,5.877,0,0,1-2.123.066V36.165H19.732v1.124h-0.4a3.8,3.8,0,0,0-.133-1.455,2.36,2.36,0,0,1-.066.992,5.671,5.671,0,0,1-2.056.066V36.826H17.012a1.2,1.2,0,0,0-.066-0.595l-1,3.107a5.256,5.256,0,0,0-.133-1.653,7.423,7.423,0,0,1,0,1.322,4.46,4.46,0,0,1-1.393.331A17.413,17.413,0,0,1,11.44,40c-0.19-.357-1.151-1.415-0.8-1.983,0.256-.814,1.72-2.06,2.256-2.777a3.891,3.891,0,0,1,1.061-1.256v0.793H13.894v0.066h0.133c0.264-.744,1.285-1.08,1.393-1.917a5.447,5.447,0,0,1-.133-1.785H11.174a19.24,19.24,0,0,1-3.781.793L6.066,29.289A2.621,2.621,0,0,1,6.4,27.967c0.089,0.152.081,0.12,0.133,0.132a16.5,16.5,0,0,0,2.256-2.248l4.71-4.694,1.99-1.917V18.182a6.421,6.421,0,0,0,.2-1.521c0.184-.742.468-1.5,0.663-2.116,0.288-.907-0.259-2.539.2-3.24a3.629,3.629,0,0,1,1.393-.066v0.132c0.394,0.62-.167,2.465.332,2.777A34.273,34.273,0,0,1,18.14,8.86,2.3,2.3,0,0,0,18.074,7.4a1.588,1.588,0,0,0,.133-0.661,1.062,1.062,0,0,1-.133-0.529H18.14c0.009,0.249-.031.232,0.133,0.331V5.421a10.111,10.111,0,0,0,.2-1.917,22.252,22.252,0,0,1,1-3.5H19.6l0.6,1.653a17.487,17.487,0,0,1,.6,4.893h0.133a0.426,0.426,0,0,1,.066-0.264c-0.062,1.844-.2,5.337-0.2,7.868h0.133V12.231c0.142-.237.048-0.713,0.2-0.926A3.629,3.629,0,0,1,22.518,11.24Z" transform="translate(0.469)"/>
</svg>
