<svg xmlns="http://www.w3.org/2000/svg" width="40" height="40" viewBox="0 0 40 40">
  <defs>
    <style>
      .cls-1 {
        fill: #fff;
        fill-rule: evenodd;
      }
    </style>
  </defs>
  <path id="Color_Fill_1" data-name="Color Fill 1" class="cls-1" d="M31.869,29.316c-1.134-.01-1.509-0.009-2.552,0a0.314,0.314,0,0,1-.066.2v-0.2H22.38c0.014,1,.063,2.162.065,3.257l4.581,3.778v1.629a0.7,0.7,0,0,1,.065.391H27.026c-0.036-.085,0-0.048-0.066-0.065a3.372,3.372,0,0,0-.916.717,1.978,1.978,0,0,0-1.374.065,3.65,3.65,0,0,0-.524-0.13H22.38V38.046H21.333V34.984H21.2v1.173c-0.384.539-.2,2.008-0.2,2.866H19.893a1.466,1.466,0,0,1-.2.326c-0.075.191-.017,0.513-0.065,0.651h-0.2a3.425,3.425,0,0,0-.2-0.977H18.126v-0.13a3.9,3.9,0,0,1-.066-1.433c0-.925-0.2-1.55-0.2-2.476H17.733v3.062H16.686v0.912c-1.527-.009-2.33-0.009-3.73,0-0.229-.29-0.625-0.424-0.851-0.717-0.057.048-.074,0.082-0.131,0.13V38.046a4.532,4.532,0,0,0,.066-1.694c1.119-.558,2.259-1.976,3.272-2.736a11.982,11.982,0,0,0,1.309-.977V30.814a3.935,3.935,0,0,0,.066-1.5c-3.337-.011-6.823-0.022-9.49,0a7.3,7.3,0,0,1-.131-1.889A3.449,3.449,0,0,0,7.2,26.254,14.239,14.239,0,0,0,9.16,24.625c1.592-1.19,3-2.6,4.581-3.778,0.568-.425,2.085-1.288,2.094-2.15,0.238-.4.335-1.7,0.523-2.215,1.631-4.437,1.266-10.653,3.011-14.723,0.175-.408-0.061-1.37.2-1.759-0.04,2.306,1.107,3.5,1.244,5.668,0.254,0.008.194-.043,0.2,0.326,0.1,0.208-.028.188-0.065,0.326a11,11,0,0,0,.131,1.759c0.277,1.032.191,2.3,0.458,3.453,0.28,1.216.345,2.494,0.72,3.648a12.5,12.5,0,0,1,.982,3.974c0.556,0.356.985,0.915,1.505,1.3,1.731,1.29,3.262,2.825,4.974,4.1a20.66,20.66,0,0,1,2.16,1.694v1.173C32.138,27.6,31.886,28.858,31.869,29.316ZM20.809,5.733a1.634,1.634,0,0,0,.131.326C20.931,5.813,20.971,5.83,20.809,5.733Z" transform="translate(0.484)"/>
</svg>
