<svg xmlns="http://www.w3.org/2000/svg" width="40" height="40" viewBox="0 0 40 40">
  <defs>
    <style>
      .cls-1 {
        fill: #fff;
        fill-rule: evenodd;
      }
    </style>
  </defs>
  <path id="Color_Fill_1" data-name="Color Fill 1" class="cls-1" d="M32,29.279H31.306a0.3,0.3,0,0,1-.063.188V29.279H30.485a0.3,0.3,0,0,1-.063.188V29.279c-2.471,0-5.294,0-7.955,0v3.26l4.672,3.887v1.818a2.672,2.672,0,0,0-1.073.815,2.869,2.869,0,0,0-1.326-.125,0.3,0.3,0,0,1-.063.188V38.934h-2.21a2.769,2.769,0,0,1,0-.878H21.394V34.984H21.268v0.5c-0.3.477-.166,2.745-0.253,3.511H19.689v1H19.437V39H18.111c0.008-1.522-.182-2.6-0.189-4.013H17.732v3.072h-1.01v0.878c-0.874,0-1.9.017-2.588,0a9.327,9.327,0,0,1-1.073,0,2.245,2.245,0,0,1-.947-0.69c-0.055.046-.071,0.079-0.126,0.125V37.994a4.351,4.351,0,0,0,.063-1.63,36.656,36.656,0,0,0,3.22-2.7A8.467,8.467,0,0,0,16.659,32.6V30.157a2.066,2.066,0,0,0,.063-0.878H9.841a0.658,0.658,0,0,1-.063.376V29.279c-1.029,0-1.646,0-2.588,0A10.328,10.328,0,0,1,7.063,27.4a3.315,3.315,0,0,0,.126-1.128c0.61-.376,1.079-0.96,1.641-1.379,1.689-1.26,3.185-2.767,4.861-4.013,0.481-.357,2.1-1.375,2.146-2.006a4.11,4.11,0,0,0,.126-0.941l0.379-1.379c1.679-4.514,1.348-10.718,3.094-14.922,0.187-.45-0.061-1.24.189-1.63a8.543,8.543,0,0,0,.821,3.511l0.442,2.132,0.189-.063V5.643c-0.3.618,0.123,2.869,0.316,3.7l0.063,1.191c0.273,1.179.244,2.432,0.568,3.574,0.471,1.658,1.229,3.086,1.263,5.078a14.661,14.661,0,0,1,1.957,1.63c1.67,1.241,3.147,2.718,4.8,3.95,0.512,0.381,1.93,1.2,1.957,1.944C31.957,26.795,32,28.7,32,29.279ZM18.048,5.58h0.126V5.643H18.048V5.58Zm2.841,0.125V5.956h0.126V5.831C20.96,5.784,20.944,5.752,20.889,5.705Z" transform="translate(0.484)"/>
</svg>
