<svg xmlns="http://www.w3.org/2000/svg" width="40" height="40" viewBox="0 0 40 40">
  <defs>
    <style>
      .cls-1 {
        fill: #fff;
        fill-rule: evenodd;
      }
    </style>
  </defs>
  <path id="Color_Fill_1" data-name="Color Fill 1" class="cls-1" d="M19.37,0h0.2V0.13c0.549,0.721.526,1.853,0.783,2.862,0.795,3.13.387,7.483,0.391,11.122h0.13a23.946,23.946,0,0,1,.2-2.927H22.5q0.065,1.626.13,3.252a14.041,14.041,0,0,1,.978,3.9,0.316,0.316,0,0,1,.2.065,2.744,2.744,0,0,1,.065,1.106l0.978,0.911a3.349,3.349,0,0,1,.065-0.976h0.131v0.13a2.394,2.394,0,0,1,.13,1.236,0.984,0.984,0,0,0,.261.13,2.383,2.383,0,0,1,.13-1.041,2.526,2.526,0,0,0,.2,1.3,0.886,0.886,0,0,1,.2-0.455c0.162-.421-0.16-0.97.131-1.236,0.063-.016.025-0.051,0.065,0a9.1,9.1,0,0,1,.065,2.342,13.814,13.814,0,0,1,2.413,2.471l2.674,2.6a9.516,9.516,0,0,0,1.3,1.3c0.027-.233-0.031-0.164.13-0.26a4.556,4.556,0,0,1,.2,1.236,7.2,7.2,0,0,1-1.044,2.081,2.651,2.651,0,0,1-.261.65H31.174a4.618,4.618,0,0,0-1.435-.325,22.526,22.526,0,0,0-6-.52,3.474,3.474,0,0,0-.065.976,2.8,2.8,0,0,0-.13,1.171c0.5,0.019,1.017,1.232,1.5,1.561a1.932,1.932,0,0,1,.065-0.846c0.682,1.042,1.6,1.923,2.348,2.927a4.638,4.638,0,0,1,.913,1.106A2.3,2.3,0,0,1,27.326,40a4.386,4.386,0,0,0-1.174-.26c-0.724-.2-1.623-0.382-2.348-0.585a1.77,1.77,0,0,1-.587-0.13c-0.149-.246.022-0.862-0.13-1.106a5.426,5.426,0,0,1-.065,1.5l-0.13-.065-0.2-1.171c-0.191-.581-0.5-1.246-0.652-1.821a5.669,5.669,0,0,0-.065-1.171c-0.03.688-.067,1.244-0.065,2.016H19.826a15.62,15.62,0,0,0-.065-2.407H19.5a5.567,5.567,0,0,0,.13,1.3H19.3v-0.13a2.485,2.485,0,0,0,.13-1.171,0.316,0.316,0,0,0-.2.065,4.7,4.7,0,0,0-.13,2.341H17.022a3.822,3.822,0,0,0-.13-2.016,6.77,6.77,0,0,1-.652,2.992,1.9,1.9,0,0,1-.391,1.041V37.854H15.783a4.395,4.395,0,0,1-.065,1.236l-4.3.911c-0.249-.469-1.082-1.115-0.848-1.951a4.2,4.2,0,0,1,.978-1.236,16.6,16.6,0,0,1,2.348-2.862,1.934,1.934,0,0,0,.065.846c0.418-.674,1.424-1.269,1.435-2.081a3.665,3.665,0,0,1-.13-1.561,17.136,17.136,0,0,0-3.913-.065,2.487,2.487,0,0,1-.652.13c-0.9.251-1.918,0.448-2.87,0.65a3.113,3.113,0,0,0-.065-1.236v1.3H7.3c-0.24-.877-1.42-2.1-1.239-2.992a1.644,1.644,0,0,1,.261-0.976c0.088,0.15.08,0.118,0.13,0.13l6.261-6.179V19.512h0.065V19.447l0.13,0.065a7.858,7.858,0,0,1,.065,2.081h0.065a1.741,1.741,0,0,1,.065-0.78v0.13c0.044,0.05.085,0.145,0.13,0.2l0.2-1.236a3.334,3.334,0,0,0,.13,1.106H13.63V20.943a5.35,5.35,0,0,0,.261-1.5h0.13v0.065c0.13,0.215,0,.763.131,0.976,0.564-.825.931-0.531,0.913-2.081H15.13V18.342h0.2a14.791,14.791,0,0,1,.978-3.9l0.13-3.252H17.87v0.065h0.065l0.13,2.862H18.2V13.008C17.938,12.6,18.13,10.177,18.13,9.5A30.771,30.771,0,0,1,18.587,2.6C18.811,1.728,19.23.847,19.37,0ZM15.391,33.3a0.684,0.684,0,0,0,.065.39A0.684,0.684,0,0,0,15.391,33.3Zm8.087,0.065a0.543,0.543,0,0,0,.065.325A0.543,0.543,0,0,0,23.478,33.366Zm-8.022.585a0.314,0.314,0,0,0,.065.2A0.313,0.313,0,0,0,15.457,33.951Zm7.957,0.065v0.13h0.065A0.223,0.223,0,0,0,23.413,34.016Zm-7.891.455a0.314,0.314,0,0,0,.065.2A0.314,0.314,0,0,0,15.522,34.472Zm7.826,0a0.315,0.315,0,0,0,.065.2v-0.2H23.348Zm-7.761.455a0.543,0.543,0,0,0,.065.325A0.544,0.544,0,0,0,15.587,34.927Zm7.7,0a0.315,0.315,0,0,0,.065.2v-0.2H23.283Zm-7.63.455a1.364,1.364,0,0,0,.065.65A1.364,1.364,0,0,0,15.652,35.382Zm7.565,0a0.42,0.42,0,0,0,.065.26A0.42,0.42,0,0,0,23.217,35.382Zm-0.065.911a2.716,2.716,0,0,0,.065,1.106A2.718,2.718,0,0,0,23.152,36.293Z" transform="translate(0.5)"/>
</svg>
