<svg xmlns="http://www.w3.org/2000/svg" width="40" height="39.969" viewBox="0 0 40 39.969">
  <defs>
    <style>
      .cls-1 {
        fill: #fff;
        fill-rule: evenodd;
      }
    </style>
  </defs>
  <path id="Color_Fill_1" data-name="Color Fill 1" class="cls-1" d="M33.436,29.49a18.909,18.909,0,0,0-2.944.185H29.3a13.817,13.817,0,0,1-2.38.247,15.155,15.155,0,0,1-3.571.186V30.17a6.447,6.447,0,0,1,.5,1.422,11.319,11.319,0,0,1,.5,1.175,6.3,6.3,0,0,0,.063,1.3,3.33,3.33,0,0,0,.752.8c0.694,0.906,1.564,1.627,2.255,2.535L27.8,37.713v1.855a0.222,0.222,0,0,0-.063.124A1.248,1.248,0,0,1,26.8,40a5.108,5.108,0,0,0-1.378-.618c-1.041-.452-2.147-0.985-3.195-1.484a0.734,0.734,0,0,0,0-.495,7.465,7.465,0,0,1-.376,1.546H20.783a0.686,0.686,0,0,0-.376-0.062V38.764c-0.226-.3-0.1-0.907-0.313-1.236a10.931,10.931,0,0,0,.063,1.36H19.906V38.764a1.8,1.8,0,0,0,0-1.113,9.365,9.365,0,0,1-.188,1.236l-1.441.062-0.063-.185c-0.278-.374-0.158-1.1-0.439-1.484a0.935,0.935,0,0,1,0,.618,5.08,5.08,0,0,1-1.378.618c-0.944.409-2.479,1.454-3.633,1.484a1.691,1.691,0,0,1-.5-0.433V37.713A15.207,15.207,0,0,0,14.519,35.3a12.377,12.377,0,0,0,1.19-1.175v-1.3a12.58,12.58,0,0,0,1-2.72H16.461a12.745,12.745,0,0,1-2.631-.124,9.862,9.862,0,0,1-3.069-.309H9.633a24.445,24.445,0,0,0-2.944-.185V29.366C6.544,29.141,6.6,28.706,6.438,28.5a1.6,1.6,0,0,1-.188.927V29.366a3.005,3.005,0,0,1-.063-1.113,31.982,31.982,0,0,1,0-5.44H6.313v0.124c0.324,0.438.069,2.236,0.376,2.72a6.3,6.3,0,0,1,1.19-.556c0.77-.4,1.587-0.892,2.38-1.236,0.4-.176,1.456-0.473,1.566-0.866H11.638a6.377,6.377,0,0,1,.313-1.855,0.222,0.222,0,0,1,.063.124c0.247,0.3.141,1.412,0.438,1.607,0.519-.462,1.572-0.511,2-1.051a2.313,2.313,0,0,1,.313-0.989,1.723,1.723,0,0,0,.25.8c0.277-.243,1.639-0.7,1.754-0.866V19.165a4,4,0,0,0,.063-0.866c0.159-.7.126-1.443,0.313-2.164,0.282-1.085.48-2.322,0.752-3.462L18.215,9.83a5.449,5.449,0,0,1,.5-1.3,2.1,2.1,0,0,0,.25-0.309V6a15.286,15.286,0,0,1,.5-4.451A2.923,2.923,0,0,1,20.031.062c0.061-.016.024-0.048,0.063,0a3.646,3.646,0,0,1,.5,1.422,17.263,17.263,0,0,1,.564,4.7,9.117,9.117,0,0,0,0,2.164c0.028,0.067.211,0.183,0.251,0.247a5.159,5.159,0,0,1,.438,1.113l0.5,3.957a28.2,28.2,0,0,1,.94,7.233h0.063a6.844,6.844,0,0,1,1.879.8,1.9,1.9,0,0,1,.125-0.866,0.222,0.222,0,0,1,.063.124c0.161,0.189.048,0.642,0.188,0.865a7.97,7.97,0,0,0,2.13,1.051,6.258,6.258,0,0,1,.313-1.731h0.063v0.062a3.413,3.413,0,0,1,.188,1.978l5.136,2.473a5,5,0,0,1,.063-0.989c0.213-.037.136-1.045,0.125-1.484a1.935,1.935,0,0,0,.188-0.371h0.063V23.8a4.21,4.21,0,0,1,.063,1.546c0,1.357-.049,2.748-0.063,4.018H33.812V29.3c-0.134-.182-0.111-0.563-0.251-0.742ZM16.711,20.958v0.124h0.063A0.211,0.211,0,0,0,16.711,20.958ZM6.438,25.41v0.124H6.5V25.41H6.438ZM17.714,36.971v0.124h0.063V36.971H17.714Zm4.573,0.062a0.3,0.3,0,0,0,.063.185A0.3,0.3,0,0,0,22.286,37.033Z" transform="translate(-0.016 -0.031)"/>
</svg>
