<svg xmlns="http://www.w3.org/2000/svg" width="40" height="39.969" viewBox="0 0 40 39.969">
  <defs>
    <style>
      .cls-1 {
        fill: #fff;
        fill-rule: evenodd;
      }
    </style>
  </defs>
  <path id="Color_Fill_1" data-name="Color Fill 1" class="cls-1" d="M21,5.8q0.015,1.263.031,2.525a4.838,4.838,0,0,0,.031,1.309,7.514,7.514,0,0,0,.46.842c0.23,0.449.452,0.96,0.644,1.4a31.5,31.5,0,0,1,1.2,3.523c0.285,0.954.355,2.01,0.583,3.024a11.594,11.594,0,0,0,.153,1.621,4.273,4.273,0,0,0,.736.436,1.161,1.161,0,0,1,.184-0.779v0.031a1.288,1.288,0,0,1,.092.9l2.055,1.185a1.244,1.244,0,0,1,.031-0.5l0.153-.093V20.982a0.655,0.655,0,0,1,.245-0.624,1.307,1.307,0,0,0,.092.218,2.309,2.309,0,0,0-.031.686l0.123,0.094q-0.015.343-.031,0.686H27.59v0.031h0.031a3.992,3.992,0,0,0,.675.374,3.833,3.833,0,0,0,.859.5V22.728a6.168,6.168,0,0,0,.092-1.309l0.123-.281H29.4a1.689,1.689,0,0,1,.061.592,3.011,3.011,0,0,0-.031,1v0.405c0.044,0.083.439,0.174,0.491,0.249v0.624h0.031V22.977h0.031a5.146,5.146,0,0,0,1.135.655c0.576,0.356,1.188.663,1.779,1.029a2.683,2.683,0,0,0,.644.374c0.023-.266.082-0.1,0.153-0.218V23.975l0.031-.811c0.04-.14.142-0.252,0.184-0.405h0.031v0.312a1.445,1.445,0,0,1,.031.53c0,0.313.031,0.674,0.031,1.029v3.959H33.908v0.125H33.663a1.523,1.523,0,0,0-.031-0.592v1.153l-10.672.437v0.062a4.5,4.5,0,0,1,.337.966,19.941,19.941,0,0,1,.767,2.089V33.2a7.1,7.1,0,0,0,.889.935,12.267,12.267,0,0,1,1.012,1.154l0.307,0.281a7.024,7.024,0,0,1,.613.717L27.314,36.7c0.07,0.08.111,0.174,0.184,0.249L27.682,37.1v2.307a6.222,6.222,0,0,1-1.1.561,6.694,6.694,0,0,1-.92-0.561c-0.263-.163-0.535-0.243-0.8-0.405-0.564-.348-1.168-0.707-1.748-1.029-0.311-.173-1.074-0.4-1.073-0.842a1.425,1.425,0,0,0,.031-0.779,5.077,5.077,0,0,1-.307,1.341l-0.123.436H21.4a2.91,2.91,0,0,1-1.073-.062c0-.093-0.213-1.1-0.245-1.154l0.031,1.06h0.061L20.2,38.161H20.169a0.457,0.457,0,0,0-.337,0V38a1.605,1.605,0,0,0,.092-0.9V37.069H19.893a2.747,2.747,0,0,1-.215,1,3.709,3.709,0,0,1-1.288.062V38.1H18.359l-0.276-.966a2.99,2.99,0,0,0-.184-0.9l0.092,1.154a14.182,14.182,0,0,0-1.564.9c-0.6.374-1.238,0.625-1.84,1a4.846,4.846,0,0,1-1.227.686c-0.144-.133-0.964-0.471-1.012-0.561V37.1a4.17,4.17,0,0,0,.675-0.748c0.272-.31.644-0.574,0.889-0.9a13.843,13.843,0,0,1,1.227-1.372A2.235,2.235,0,0,0,16,32.892a8.489,8.489,0,0,0,.429-1.309,10.687,10.687,0,0,0,.644-1.871L6.4,29.275c0.005-.344-0.015-0.733-0.031-1.029a1.519,1.519,0,0,0-.031-0.53v1H6.123V28.589H6.031V24.443a4.3,4.3,0,0,1,.092-1.652v0.062a2.95,2.95,0,0,1,.215,1.621,1.9,1.9,0,0,0,.031.686A0.757,0.757,0,0,1,6.4,24.817v0.031c0.029,0.05-.03.1,0.061,0.156a0.152,0.152,0,0,1,.031-0.094c0.013,0.112-.014.078,0.061,0.125a6.54,6.54,0,0,1,1.2-.686c0.753-.468,1.539-0.959,2.331-1.372a1.038,1.038,0,0,0,.031.437A1.111,1.111,0,0,0,10.6,23.04a0.46,0.46,0,0,1,0-.28,4.976,4.976,0,0,1,.061-1.652,1.214,1.214,0,0,0,.092.249l0.061,0.935a0.983,0.983,0,0,0,.123.655,1.8,1.8,0,0,1,.491-0.281c0.326-.2.657-0.418,1.012-0.592V22.042H12.287l-0.061-.686c0.174-.086.165-0.23,0.153-0.5a0.634,0.634,0,0,1,.061-0.5H12.5V20.39a0.881,0.881,0,0,1,.153.592V21.2c0.026,0.057.158,0.074,0.184,0.125a0.9,0.9,0,0,0,.092.468,2.464,2.464,0,0,1,.4-0.218l0.951-.592a1.72,1.72,0,0,0,.613-0.343v-0.53a0.517,0.517,0,0,1,.092-0.405h0.031v0.031a2.417,2.417,0,0,1,.184.748c0.254-.144.5-0.3,0.767-0.436a10.018,10.018,0,0,1,.307-2.619l0.123-.9a32.53,32.53,0,0,1,1.319-4.3c0.158-.371.392-0.757,0.552-1.122a6.494,6.494,0,0,1,.307-0.748,4.261,4.261,0,0,0,.4-0.717q0.031-1.45.061-2.9A1.651,1.651,0,0,0,18.942,5.8s0.089-.085.092-0.094V5.518a7.443,7.443,0,0,1,.031-1.06c0.084-.375-0.028-0.854.061-1.247A11.865,11.865,0,0,1,19.985,0h0.061c0.051,0.174.179,0.335,0.245,0.5a13.989,13.989,0,0,1,.46,1.715c0.126,0.489.076,1,.184,1.5,0.132,0.6-.16,1.7.153,2.089H21ZM33.571,24.91A0.153,0.153,0,0,0,33.6,25V24.91H33.571ZM17.317,26.719a21.138,21.138,0,0,1-.092,2.557h0.031a14.519,14.519,0,0,0,.092-1.871A1.9,1.9,0,0,0,17.317,26.719Zm5.367,0V28.4a1.4,1.4,0,0,0,.092.748V29.057a7.411,7.411,0,0,1-.061-1.9A1.131,1.131,0,0,0,22.684,26.719Zm0.092,2.463v0.062h0.031A0.108,0.108,0,0,0,22.776,29.182Zm-5.582.125v0.062h0.031V29.306H17.194Zm-0.031.093v0.062h0.031V29.4H17.163Zm5.091,5.674a0.334,0.334,0,0,0,.031.187A0.334,0.334,0,0,0,22.254,35.074Zm-4.508.062a0.334,0.334,0,0,0,.031.187A0.334,0.334,0,0,0,17.746,35.136Zm4.478,0.156a0.333,0.333,0,0,0,.031.187A0.333,0.333,0,0,0,22.223,35.292Zm-4.447.062a0.265,0.265,0,0,0,.031.156A0.265,0.265,0,0,0,17.777,35.355Zm4.416,0.156a0.265,0.265,0,0,0,.031.156A0.265,0.265,0,0,0,22.193,35.511Zm-4.386.062a0.265,0.265,0,0,0,.031.156A0.265,0.265,0,0,0,17.807,35.573Zm4.355,0.156a0.264,0.264,0,0,0,.031.156A0.264,0.264,0,0,0,22.162,35.729Zm-4.324.062a0.265,0.265,0,0,0,.031.156A0.265,0.265,0,0,0,17.838,35.791Zm4.293,0.156a0.2,0.2,0,0,0,.031.125A0.2,0.2,0,0,0,22.131,35.947Zm-4.263.062a0.2,0.2,0,0,0,.031.125A0.2,0.2,0,0,0,17.869,36.009ZM22.1,36.165a0.265,0.265,0,0,0,.031.156A0.265,0.265,0,0,0,22.1,36.165Z"/>
</svg>
