<svg width="29" height="100" viewBox="0 0 29 100" fill="none" xmlns="http://www.w3.org/2000/svg">
<path d="M8.86299 98.97C7.75533 98.9563 6.68223 98.5824 5.80595 97.9048C4.92966 97.2271 4.29783 96.2826 4.00599 95.214C3.49968 93.3699 3.1422 91.4882 2.93699 89.587L2.82299 88.528C0.733003 69.0679 0.443108 49.4564 1.95699 29.943L2.33699 25.053C3.01576 15.9363 7.19511 7.43574 14 1.33099C20.8043 7.43627 24.9838 15.9365 25.664 25.053L26.045 29.944C27.5578 49.4571 27.2672 69.0682 25.177 88.528L25.063 89.587C24.8594 91.488 24.5039 93.3697 24 95.214C23.7081 96.2829 23.0759 97.2277 22.1992 97.9054C21.3225 98.5831 20.249 98.9568 19.141 98.97L14 99L8.86299 98.97Z" fill="#C92F31"/>
<path d="M13.9999 2.693C20.2256 8.58262 24.0295 16.5836 24.6669 25.13L25.0469 30.021C26.556 49.4728 26.2668 69.0224 24.1829 88.421L24.0679 89.48C23.8686 91.3281 23.5219 93.1572 23.0309 94.95C22.7966 95.8084 22.2894 96.5673 21.5858 97.1121C20.8823 97.6569 20.0206 97.958 19.1309 97.97L14.0109 98L8.86688 97.97C7.97715 97.958 7.11548 97.6569 6.41194 97.1121C5.7084 96.5673 5.20119 95.8084 4.96688 94.95C4.47571 93.1573 4.12894 91.3281 3.92988 89.48L3.81588 88.421C1.73167 69.0224 1.44211 49.4728 2.95088 30.021L3.33088 25.13C3.96884 16.5833 7.77339 8.58231 13.9999 2.693ZM13.9999 0C6.64062 6.32135 2.08767 15.3025 1.33888 24.975L0.958884 29.866C-0.563739 49.4406 -0.272498 69.1141 1.82888 88.635L1.94288 89.694C2.15434 91.6486 2.52219 93.5832 3.04288 95.479C3.38947 96.7593 4.14521 97.8911 5.19488 98.7019C6.24456 99.5127 7.53058 99.9581 8.85688 99.97L13.9999 100L19.1429 99.97C20.4697 99.9587 21.7564 99.5137 22.8067 98.7028C23.857 97.8919 24.6132 96.7598 24.9599 95.479C25.4806 93.5832 25.8484 91.6486 26.0599 89.694L26.1739 88.635C28.2758 69.1141 28.567 49.4406 27.0439 29.866L26.6639 24.975C25.9143 15.302 21.3603 6.32083 13.9999 0Z" fill="#313131"/>
</svg>
