<svg xmlns="http://www.w3.org/2000/svg" width="40" height="39.875" viewBox="0 0 40 39.875">
  <defs>
    <style>
      .cls-1 {
        fill: #fff;
        fill-rule: evenodd;
      }
    </style>
  </defs>
  <path id="Color_Fill_1" data-name="Color Fill 1" class="cls-1" d="M21.631,10.435L22.277,10.5c0,1.5-.044,2.965-0.129,4.316a5.66,5.66,0,0,0-.129,1.546c0.622,0.447,2.431.621,3.294,0.9,1.453,0.473,3.009.734,4.521,1.224a18.1,18.1,0,0,0,3.035.837,22.037,22.037,0,0,1,.258-4.573c0.141-.585.078-1.34,0.581-1.546A0.33,0.33,0,0,1,33.9,13.14c0.69,1.074.71,2.707,0.71,4.509a49.362,49.362,0,0,1-.387,7.343,1.014,1.014,0,0,0,.194.386,7.317,7.317,0,0,1,.517,1.675H34.806v0.193a8.706,8.706,0,0,0-1.227,0,18.137,18.137,0,0,0-.452-2.19c-0.976-.068-2.1,0-3.229,0l-8.331.064-0.194,6.828a15.777,15.777,0,0,0-.129,2.448,3.747,3.747,0,0,0,1.033.387c0.713,0.294,1.547.609,2.26,0.9,0.461,0.189,1.066.168,1.227,0.644,0.3,0.884-.019,3.338-0.581,3.543a1.4,1.4,0,0,1-1.162-.258A27.339,27.339,0,0,0,20.6,38.454a1,1,0,0,1-.065.515,1.494,1.494,0,0,1-.452.129,3.223,3.223,0,0,1-.064.709,0.918,0.918,0,0,1-.258.064,0.336,0.336,0,0,0-.194-0.322c-0.123.06-.075,0.024-0.258,0a1.563,1.563,0,0,1-.129-0.451l-0.71-.064V38.969H18.4a0.467,0.467,0,0,0-.129-0.515,6.02,6.02,0,0,1-1.485.515c-0.87.326-2.046,1.087-3.1,0.9a5.71,5.71,0,0,1-.323-3.8L17.821,34.4c-0.307-.941.036-2.093-0.194-3.156-0.126-.585.079-1.46-0.065-2.126a21.832,21.832,0,0,1-.129-3.994c-3.733,0-7.987-.306-11.56-0.064a8.233,8.233,0,0,1-.581,2.19,5.2,5.2,0,0,0-1.1,0,0.189,0.189,0,0,0-.129-0.193,6.664,6.664,0,0,1,.517-1.675,1.023,1.023,0,0,0,.194-0.386,49.892,49.892,0,0,1-.388-7.214,13.692,13.692,0,0,1,.194-3.607A4.395,4.395,0,0,1,4.84,13.4a2.4,2.4,0,0,0,.323-0.322c0.274-.773-0.323-2.537.065-3.156L5.292,13.2c0.023,0.043.225,0.139,0.258,0.193a5.07,5.07,0,0,1,.388,1.353,31.751,31.751,0,0,1,.194,4.573l10.85-2.9a14.325,14.325,0,0,0-.258-2.963V10.5l0.646-.064a4.649,4.649,0,0,1,.194-1.224V7.15c0.12-.538,0-1.214.129-1.8,0.237-1.048.357-2.156,0.646-3.092,0.186-.6.479-2.294,1.227-2.19,0.635,0.089.9,1.551,1.1,2.19,0.283,0.932.41,2.05,0.646,3.092,0.139,0.615,0,1.309.129,1.868V9.34A4.117,4.117,0,0,1,21.631,10.435Zm5.554,14.3a0.415,0.415,0,0,0,.065.258A0.415,0.415,0,0,0,27.185,24.734Z" transform="translate(0.5 -0.063)"/>
</svg>
