<svg xmlns="http://www.w3.org/2000/svg" width="40" height="40" viewBox="0 0 40 40">
  <defs>
    <style>
      .cls-1 {
        fill: #fff;
        fill-rule: evenodd;
      }
    </style>
  </defs>
  <path id="Color_Fill_1" data-name="Color Fill 1" class="cls-1" d="M20.913,5.3c0.481,0.052.979-.012,1.535,0a18.117,18.117,0,0,1,2.9.209V5.55H25.145a3.643,3.643,0,0,1-1,.126,15.313,15.313,0,0,1-3.112.168V6.01a6.533,6.533,0,0,1,.83.042,2.237,2.237,0,0,1,.415.5c0.313,0.77-.073,1.88.124,2.806a5.382,5.382,0,0,1,.083,1.005c0.258,0.067.574,0.184,0.871,0.251L25.892,10.7a14.617,14.617,0,0,0,2.448.168,9.627,9.627,0,0,0,.041-1.34h0.249V9.571a6.722,6.722,0,0,0,0,1.3,3.688,3.688,0,0,1,.415.126,2.412,2.412,0,0,1,.456-0.084c0.893,0.183,1.97.015,2.863,0.209,0.475,0.1.985-.009,1.411,0.084h0.705c0.444,0.1,1.05.029,1.494,0.126h0.747c0.9,0.2,2.05.053,2.9,0.251v0.377L39.876,12a10.555,10.555,0,0,1,.041,2.6c-0.078.342-.21,0.664-0.29,0.963-1.089.614-3.11,0.567-4.481,0.922-0.4.1-.95,0.11-1.369,0.251a1.807,1.807,0,0,0-.29.251l-0.622.084a9.217,9.217,0,0,1-1.328.293,3.632,3.632,0,0,1-.373-0.168,8.655,8.655,0,0,0-1.411.293c-1.028.258-2.09,0.293-3.071,0.545-0.96.246-1.948,0.274-2.863,0.5a3.98,3.98,0,0,0-1.369.335c-0.744.547-.462,1.942-0.705,3.016-0.233,1.031-.222,2.228-0.456,3.267l-0.041.712c-0.147.657-.091,1.387-0.249,2.094a7.474,7.474,0,0,0-.166,1.215c1.044,0.454,2.153.888,3.2,1.34a8.762,8.762,0,0,1,1.66.67,1.227,1.227,0,0,1,.373,1.466c-0.419.73-2.456,1.416-3.776,1.089H21.826c-0.377-.088-0.823-0.144-1.162-0.251-0.126-.04-0.373-0.084-0.373-0.084L20,36H19.917V35.749a22.483,22.483,0,0,1-.29-2.387,2.972,2.972,0,0,1-.954.251,6.159,6.159,0,0,1-4.232-.461,1.161,1.161,0,0,1-.705-1.131c0.151-.809.78-0.922,1.452-1.215,0.788-.344,1.653-0.707,2.448-1.047,0.373-.16,1.421-0.361,1.452-0.8a12.978,12.978,0,0,1-.249-2.094l-0.705-5.4c-0.2-.865-0.029-1.791-0.456-2.388-0.332-.464-0.926-0.381-1.577-0.544-1.065-.268-2.21-0.306-3.319-0.586-1.281-.323-2.725-0.524-4.025-0.754-0.115-.02-0.23.178-0.373,0.168a8.418,8.418,0,0,1-1.328-.293l-0.622-.084-0.166-.209a1.862,1.862,0,0,0-.332-0.084l-0.954-.126C3.5,16.183,1.784,16.083.373,15.644-0.142,14.6.02,13.4,0.041,12l0.249-.042V11.581H0.373a4.3,4.3,0,0,1,1.369-.126c0.44-.1.965,0.022,1.452-0.084A15.663,15.663,0,0,1,5.934,11.2V9.4H6.017v1.8c1.71-.183,3.8-0.146,5.27-0.335a5.566,5.566,0,0,0,0-1.34h0.249V9.613c-0.04.065,0.036,0.964,0.042,1.257l4.149-.251c0.789-.006,1.753.123,1.743-0.712,0.059-.121-0.051-0.4,0-0.628,0.344-1.562-.625-3.3,1.411-3.267V5.843a13.585,13.585,0,0,1-3.112-.209,3.509,3.509,0,0,1-1.2-.168L16.971,5.3A13.709,13.709,0,0,1,19,5.3,1.267,1.267,0,0,1,20.083,4,1.721,1.721,0,0,1,20.913,5.3Z"/>
</svg>
