<svg xmlns="http://www.w3.org/2000/svg" width="40" height="40" viewBox="0 0 40 40">
  <defs>
    <style>
      .cls-1 {
        fill: #fff;
        fill-rule: evenodd;
      }
    </style>
  </defs>
  <path id="Color_Fill_1" data-name="Color Fill 1" class="cls-1" d="M34.559,29.889a2.417,2.417,0,0,1-.441-0.126,7.474,7.474,0,0,0-.126-1.327,3.044,3.044,0,0,1-.063,1.2,9.786,9.786,0,0,0-1.512-.822c-1.082-.663-2.258-1.3-3.339-1.959-0.223-.137-1.43-0.64-1.512-0.758v-1.58H27.5v1.517H27.439a3.672,3.672,0,0,0-1.008-.569c-0.978-.6-1.991-1.142-3.024-1.706a2.512,2.512,0,0,0-1.26-.632,13.275,13.275,0,0,0-.063,3.1c0,2.407-.293,4.809-0.315,7.077a8.511,8.511,0,0,1,1.2,1.074c0.84,0.638,1.553,1.391,2.331,2.085A3.25,3.25,0,0,1,26.431,37.6a4.342,4.342,0,0,1-.252,2.338H25.99a22.643,22.643,0,0,0-3.213-1.769,4.706,4.706,0,0,0-1.512-.822c-0.031.343-.037,0.4-0.063,0.758H20.949v0.063H20.886l-0.126.821c-0.521,0-.733.108-1.2,0.126a3.018,3.018,0,0,1,0,.885H19.437V39.874a1.221,1.221,0,0,1,0-.758c-0.463-.01-0.678-0.12-1.2-0.126a1.529,1.529,0,0,0-.189-0.821A0.423,0.423,0,0,0,17.8,38.1c-0.02-.361-0.029-0.416-0.063-0.758a2.456,2.456,0,0,0-.945.506c-0.846.517-1.7,0.857-2.583,1.327a4.525,4.525,0,0,1-1.386.758,4.351,4.351,0,0,1-.252-2.338A3.005,3.005,0,0,1,13.7,36.461c0.764-.579,1.425-1.383,2.142-2.022,0.49-.437,1.371-0.752,1.386-1.643-0.273-.449,0-1.247-0.126-1.832a31.8,31.8,0,0,1-.189-5.561,9.208,9.208,0,0,0-.063-2.338,6.444,6.444,0,0,0-1.7.948c-1.2.736-2.462,1.309-3.654,2.022V24.518H11.435V26.1a8.446,8.446,0,0,0-2.142,1.2c-0.355.217-.716,0.288-1.071,0.505-1.031.63-2.105,1.289-3.213,1.833a3.041,3.041,0,0,0-.063-1.2V29.7a1.468,1.468,0,0,1-.5.19V29.763a6.916,6.916,0,0,1-.252-1.706,21.8,21.8,0,0,1,0-4.866H4.252v2.275H4.315V25.4c1.933-1.788,3.935-3.587,6.049-5.182,1.15-.867,2.127-2.039,3.276-2.907,0.888-.671,1.648-1.489,2.52-2.148a1.393,1.393,0,0,0,.819-0.885c0.288-.469-0.066-1.482.063-2.085,0.195-.913-0.083-1.992.126-2.97a8.006,8.006,0,0,0,.126-2.085c-0.1-.58.39-1.152,0.126-1.769a0.825,0.825,0,0,1-.252-0.442c1.085-.737.87-1.746,1.26-3.16L18.87,0.316A1.5,1.5,0,0,1,19.626,0a1.1,1.1,0,0,1,.5.442c0.5,0.582.584,2.862,0.945,3.728,0.176,0.421.68,0.45,0.756,1.011-0.578.4-.01,1.266-0.126,1.9a7.57,7.57,0,0,0,.126,2.149v1.39c0.259,1.174.039,2.7,0.189,3.918,0.883,0.572,1.565,1.458,2.394,2.085,1.8,1.358,3.369,2.941,5.167,4.3,0.556,0.419,1.02,1.033,1.575,1.453,0.887,0.671,1.648,1.49,2.52,2.148a3.421,3.421,0,0,1,1.071.948C35.243,26.461,34.684,28.943,34.559,29.889ZM17.736,4.55a1.5,1.5,0,0,0-.441.632,0.179,0.179,0,0,1,.063.063h0.063a0.8,0.8,0,0,1,.063-0.253,0.178,0.178,0,0,1,.063.063c0.044,0.064.081,0.253,0.126,0.316A2.119,2.119,0,0,0,17.736,4.55Zm3.465,0a2.091,2.091,0,0,0,.189.821,1.076,1.076,0,0,1,.063-0.379h0.063V5.055C21.559,5.1,21.6,5.2,21.642,5.245V5.182a0.323,0.323,0,0,0,.063-0.19Z" transform="translate(0.469)"/>
</svg>
