<svg xmlns="http://www.w3.org/2000/svg" width="40" height="40" viewBox="0 0 40 40">
  <defs>
    <style>
      .cls-1 {
        fill: #fff;
        fill-rule: evenodd;
      }
    </style>
  </defs>
  <path id="Color_Fill_1" data-name="Color Fill 1" class="cls-1" d="M23.436,9.472a3.622,3.622,0,0,1,.182-1.139,1.87,1.87,0,0,1,.5-0.228,1.554,1.554,0,0,1,.455,1.367h8.055a16.461,16.461,0,0,1,3.14.046,4.737,4.737,0,0,0,1,.091c0.02,0,.031-0.118.091-0.091a1.019,1.019,0,0,1,.091.182c0.1,0.071.767,0.257,0.91,0.319,0.874,0.376,2.417,1.448,2.048,2.962-0.76,3.122-3.786,2.917-7.6,2.917H23.072c-0.171.476-.545,0.458-0.546,1.185a0.4,0.4,0,0,1,.046.228H22.253l0.046-.365H22.253a0.131,0.131,0,0,1-.046.046c-0.311.884-.011,2.15-0.228,3.145-0.137.626,0.009,1.386-.137,2.051-0.089.41,0.01,0.9-.091,1.367-0.3,1.39-.116,3-0.41,4.33-0.165.748,0,1.551-.228,2.233h0.091a6.813,6.813,0,0,0,1.547.547A28.851,28.851,0,0,1,25.8,31.85c0.59,0.309,1.236.5,1.229,1.413a3.474,3.474,0,0,1-.546.957,10.884,10.884,0,0,1-5.552,1.413,11.253,11.253,0,0,0-.819.775,1.514,1.514,0,0,1-.137.547V37H19.932V36.954a2.968,2.968,0,0,1-.136-0.547,2.032,2.032,0,0,0-1.183-.775L17.2,35.5c-1.584-.394-4.339-0.688-4.323-2.6a3.422,3.422,0,0,1,.546-0.729,20.858,20.858,0,0,1,3.732-1.5c0.371-.152,1.579-0.362,1.638-0.729a3.138,3.138,0,0,1-.091-0.82c-0.183-.823-0.08-1.725-0.273-2.6-0.209-.942-0.065-2.139-0.273-3.1V22.735c-0.136-.626.008-1.385-0.137-2.051-0.089-.41.01-0.9-0.091-1.367a11.44,11.44,0,0,1-.137-2.233,5.93,5.93,0,0,1-.91-1.048L16.837,15.9H4a5.141,5.141,0,0,0-1.229-.228,4.76,4.76,0,0,1-1.82-.912,2.954,2.954,0,0,1-.819-2.917A3.106,3.106,0,0,1,1.684,10.2a7.873,7.873,0,0,1,.865-0.41L3,9.7a1.282,1.282,0,0,1,.091-0.182c0.057-.029.028,0.025,0.046,0.046a2.486,2.486,0,0,0,1-.046,16.755,16.755,0,0,1,3.185-.046h8.009A1.43,1.43,0,0,1,15.7,8.2a0.406,0.406,0,0,1,.591.228,1.7,1.7,0,0,1,.182,1.048H17.52q0.023-1.686.046-3.373A6.412,6.412,0,0,1,18.2,4.777H17.065c-0.438-.26-1.4-0.015-1.82-0.319A0.129,0.129,0,0,1,15.2,4.413a7.941,7.941,0,0,0,1.229-.137h0.91c0.6-.012,1.306,0,1.911,0V4.185A2.676,2.676,0,0,1,19.8,3.091a0.194,0.194,0,0,1,.228-0.046,1.39,1.39,0,0,1,.637,1.185,0.479,0.479,0,0,0-.273.046h0.046a4.074,4.074,0,0,0,1.274-.046,16.308,16.308,0,0,1,2.958.182V4.458c-0.928.061-1.9,0.307-2.958,0.319V4.823c0.854,0.7.683,3.017,0.683,4.6A3.9,3.9,0,0,0,23.436,9.472Z"/>
</svg>
