<svg xmlns="http://www.w3.org/2000/svg" width="40" height="40" viewBox="0 0 40 40">
  <defs>
    <style>
      .cls-1 {
        fill: #fff;
        fill-rule: evenodd;
      }
    </style>
  </defs>
  <path id="Color_Fill_1" data-name="Color Fill 1" class="cls-1" d="M20.66,4.187H20.387V4.232h0.046a3.743,3.743,0,0,0,1.274-.046c0.925,0.082,2.067.016,2.912,0.183V4.415H24.573a9.012,9.012,0,0,1-2.139.319c-0.323.07-.737-0.043-1,0.046V4.826H21.8c0.121,0.468.467,0.871,0.592,1.323q0.023,1.666.046,3.332h1c-0.028-.708.067-1.379,0.774-1.369a1.986,1.986,0,0,1,.364,1.369h8.146a28.231,28.231,0,0,1,3.913.137,0.929,0.929,0,0,1,.273-0.091c0.04,0.015.081,0.158,0.136,0.183,0.355,0.157.7,0.225,1,.365,0.834,0.385,2.236,1.46,1.866,2.967-0.725,2.948-3.84,2.875-7.508,2.875H23.072a2.13,2.13,0,0,0-.546.913,0.977,0.977,0,0,1,.046.456H22.253a0.351,0.351,0,0,0,0-.32,0.129,0.129,0,0,1-.046.046c-0.247.764,0.006,1.8-.182,2.647-0.091.41,0.012,0.906-.091,1.369-0.392,1.773-.048,3.961-0.455,5.7L21.251,29.2a3.6,3.6,0,0,0-.091.867,3.243,3.243,0,0,0,1.183.456,37.75,37.75,0,0,1,3.6,1.415,1.756,1.756,0,0,1,1.092.958,1.379,1.379,0,0,1-.819,1.46,9.9,9.9,0,0,1-5.233,1.278c-0.2.312-.626,0.466-0.819,0.776a1.1,1.1,0,0,1-.228.593V36.954a3.911,3.911,0,0,1-.136-0.548,6.8,6.8,0,0,0-.865-0.822,5.9,5.9,0,0,1-1.82-.091c-1.348-.342-2.946-0.546-3.777-1.415a1.2,1.2,0,0,1-.364-1.278,1.5,1.5,0,0,1,.865-0.776,25.738,25.738,0,0,1,3.5-1.415,4.361,4.361,0,0,0,1.5-.593,3.481,3.481,0,0,1-.137-1.05c-0.148-.669-0.067-1.42-0.228-2.145-0.2-.882-0.075-2.006-0.273-2.921V23.217c-0.136-.627.008-1.387-0.137-2.054-0.086-.4.006-0.876-0.091-1.323a15.449,15.449,0,0,1-.182-2.784,3.991,3.991,0,0,1-.728-0.822,1.508,1.508,0,0,0-.182-0.319H4.141a4.788,4.788,0,0,0-1.183-.228,6.046,6.046,0,0,1-1.547-.593,1.424,1.424,0,0,0-.455-0.365,2.933,2.933,0,0,1-.819-2.875,3.088,3.088,0,0,1,1.593-1.689,6.4,6.4,0,0,1,.637-0.319L3,9.663l0.046-.137a1.89,1.89,0,0,0,.5.046A17.66,17.66,0,0,1,7.19,9.481h8.191a1.285,1.285,0,0,1,.364-1.323,0.491,0.491,0,0,1,.273-0.046,1,1,0,0,1,.273.274,1.733,1.733,0,0,1,.182,1.1H17.52q0.023-1.118.046-2.236V6.1A6.424,6.424,0,0,1,18.2,4.78H17.975a3.885,3.885,0,0,0-1.047-.046A4.755,4.755,0,0,1,15.2,4.415h0.046a2.289,2.289,0,0,1,.683-0.091,12.446,12.446,0,0,1,2.548-.137,3.454,3.454,0,0,0,1.047.046V4.187H19.295A1.092,1.092,0,0,1,20.068,3a0.163,0.163,0,0,0,.091.046A2.256,2.256,0,0,1,20.66,4.187Z"/>
</svg>
