<svg xmlns="http://www.w3.org/2000/svg" width="26" height="26" viewBox="0 0 26 26"><defs><style>.cls-1{fill:#eee;}</style></defs><g id="Layer_2" data-name="Layer 2"><g id="Layer_1-2" data-name="Layer 1"><path class="cls-1" d="M21,9a4,4,0,0,0-3.86,3H0v2H17.14a4,4,0,0,0,7.72,0H26V12H24.86A4,4,0,0,0,21,9Zm0,6a2,2,0,1,1,2-2A2,2,0,0,1,21,15ZM8,18a4,4,0,0,0-3.86,3H0v2H4.14a4,4,0,0,0,7.72,0H26V21H11.86A4,4,0,0,0,8,18Zm0,6a2,2,0,1,1,2-2A2,2,0,0,1,8,24ZM8.86,3A4,4,0,0,0,1.14,3H0V5H1.14A4,4,0,0,0,8.86,5H26V3ZM5,6A2,2,0,1,1,7,4,2,2,0,0,1,5,6Z"/></g></g></svg>