<svg xmlns="http://www.w3.org/2000/svg" width="39.906" height="40" viewBox="0 0 39.906 40">
  <defs>
    <style>
      .cls-1 {
        fill: #fff;
        fill-rule: evenodd;
      }
    </style>
  </defs>
  <path id="Color_Fill_1" data-name="Color Fill 1" class="cls-1" d="M21.113,2.663c1.8-.009,3.483.13,5.113,0.178V2.96h-0.12a4.866,4.866,0,0,1-1.323.119,10.372,10.372,0,0,1-3.549,0V3.2a11.812,11.812,0,0,1,.18,1.188,1.938,1.938,0,0,1,.361.594,0.225,0.225,0,0,0-.18.238,0.532,0.532,0,0,1,.18.356,0.225,0.225,0,0,0-.18.238,0.532,0.532,0,0,1,.18.356,0.225,0.225,0,0,0-.18.238,0.532,0.532,0,0,1,.18.356,0.225,0.225,0,0,0-.18.238c0.328,0.291-.028.307,0,0.594a0.722,0.722,0,0,1,.18.356l-0.18.119a4.218,4.218,0,0,0-.06,1.366h0.12a0.218,0.218,0,0,1,.12-0.059V9.552c1.036,0,2.118.055,3.068,0.059h1.143c0.148-.074-0.029-0.172.18-0.119a2.911,2.911,0,0,1,.12,1.307l2.346,0.119c-0.005-.917.245-1.39,0.18-2.019h0.18c0,0.756.173,1.187,0.18,2.019h0.361c-0.007-.836.171-1.259,0.181-2.019h0.12c0,0.785.23,1.229,0.241,2.079,3.235-.02,6.558.188,9.5,0.416a0.722,0.722,0,0,1,.241.475,2.77,2.77,0,0,1,.06,1.069,13.48,13.48,0,0,1-.06,3.148,1.05,1.05,0,0,0-.361-0.059,4.4,4.4,0,0,0-.962.594,10.518,10.518,0,0,1-1.263.594,27.181,27.181,0,0,1-8.6,1.6V19.47a0.957,0.957,0,0,1-.3.059l-0.06-.713h-0.06a7.125,7.125,0,0,1-1.8.178c-1.343.292-2.942,0.208-4.271,0.475a6.509,6.509,0,0,0-.722,1.485l-0.12,3.088c-0.121.551,0.017,1.216-.12,1.841a15.169,15.169,0,0,0-.241,2.97h0.06v0.059a6.958,6.958,0,0,1,1.444.475c1.155,0.381,2.275.667,3.368,1.069a3.266,3.266,0,0,1,1.744.831,1.993,1.993,0,0,1,.18,1.485c-0.655,1.844-4.974,1.457-7.278,1.485a11.852,11.852,0,0,1-.241,2.376c-0.123.551,0.107,1.123-.3,1.366-0.07-1.164-.266-2.519-0.421-3.742-1.928-.028-5.273.206-6.556-0.713a1.626,1.626,0,0,1-.722-1.841c0.373-1.161,3.824-1.845,5.113-2.316a4.75,4.75,0,0,0,1.744-.653,5.973,5.973,0,0,1-.12-1.485c-0.333-1.487-.022-3.272-0.361-4.811V21.074a5.273,5.273,0,0,0-.241-0.475c-0.239-.576-0.2-1.177-1.023-1.188a7.31,7.31,0,0,0-1.865-.178,19.475,19.475,0,0,0-3.789-.356,2.935,2.935,0,0,1-.06.653H11.368V19.411a1.253,1.253,0,0,1-.06-0.594,25.547,25.547,0,0,1-8.06-1.485A7.918,7.918,0,0,1,.481,15.966c-0.172.087-.248,0.139-0.361,0.059a2.742,2.742,0,0,1-.06-1.069c0-.86-0.207-3.294.361-3.5,0.5-.369,1.362-0.079,2.105-0.238,1.635-.348,3.754.115,5.414-0.238,0.629-.134,1.441.118,1.985-0.059a4.671,4.671,0,0,1,.3-2.019c-0.006.721,0.181,1.285,0.241,2.019h0.3A9.811,9.811,0,0,0,10.947,8.9h0.18c0,0.756.173,1.187,0.18,2.019l2.346-.119,0.12-1.366h0.12a1.488,1.488,0,0,0,1.143.178c0.975,0,2.071-.042,3.128-0.059a0.745,0.745,0,0,1,.06-0.238,0.5,0.5,0,0,0,.18.119V8.186c-0.3-.309-0.141-0.344-0.06-0.772-0.173-.066-0.111-0.01-0.18-0.178a0.621,0.621,0,0,0,.18-0.416,0.26,0.26,0,0,1-.18-0.178,0.621,0.621,0,0,0,.18-0.416c-0.173-.066-0.111-0.01-0.18-0.178a0.621,0.621,0,0,0,.18-0.416,0.26,0.26,0,0,1-.18-0.178,0.621,0.621,0,0,0,.18-0.416,0.26,0.26,0,0,1-.18-0.178c0.2-.2.712-1.575,0.421-1.782a3.277,3.277,0,0,1-1.444.119,17.873,17.873,0,0,1-3.429-.238V2.841c1.627-.034,3.311-0.171,5.113-0.178,0.12-.6.621-1.636,1.323-1.663A3.973,3.973,0,0,1,21.113,2.663Z" transform="translate(-0.031 0.5)"/>
</svg>
