<svg xmlns="http://www.w3.org/2000/svg" width="40" height="40" viewBox="0 0 40 40">
  <defs>
    <style>
      .cls-1 {
        fill: #fff;
        fill-rule: evenodd;
      }
    </style>
  </defs>
  <path id="Color_Fill_1" data-name="Color Fill 1" class="cls-1" d="M21.069,4.38a13.33,13.33,0,0,1,2.912.092,3.723,3.723,0,0,1,1.138.138,21.262,21.262,0,0,1-3.914.23,3.585,3.585,0,0,0,.546,1.886A2.075,2.075,0,0,1,21.57,7a0.4,0.4,0,0,1,.136.368,0.527,0.527,0,0,1-.136.092l0.136,0.276,0.137,0.046a3.007,3.007,0,0,1,.091.782,14,14,0,0,1,.182,2.715l5.87,0.184V11.374a2.652,2.652,0,0,0,.046-0.966c0-.671.137-1.055,0.136-1.7H28.3a4.337,4.337,0,0,0,.137.874v1.932h0.364a15.836,15.836,0,0,1,.046-1.794,4.332,4.332,0,0,0,.137-1.012h0.136c-0.006.652,0.137,1.151,0.137,1.886a1.9,1.9,0,0,0,.091.92,3.835,3.835,0,0,0,1.411.046c0.369,0.224,1.454-.065,1.957.046,0.37,0.082.939-.048,1.365,0.046,0.3,0.066.784-.032,1.138,0.046,0.482,0.107,1.059-.026,1.593.092,1.312,0.29,2.617.223,3.049,1.38,0.588,1.576-.971,2.6-1.775,3.128-1.942,1.288-4.2,1.71-6.826,2.347l-3.276.322v0.6a0.281,0.281,0,0,0-.091.092,0.155,0.155,0,0,1-.091-0.046c-0.115-.067-0.083-0.058-0.091-0.23-0.052-.086-0.038-0.329-0.091-0.414a5.493,5.493,0,0,1-1.411.138c-1.326.3-2.871,0.189-4.187,0.46a5.739,5.739,0,0,0-.728,1.564l-0.091,2.991c-0.137.637,0.012,1.382-.136,2.07a11.755,11.755,0,0,0-.182,2.254l4.232,1.426a3.715,3.715,0,0,1,1.775.736,1.843,1.843,0,0,1,.273,1.472,2.159,2.159,0,0,1-1.411,1.242,8.5,8.5,0,0,1-2.321.138c-0.954,0-1.987.054-3,.046a11.169,11.169,0,0,1-.228,2.484A1.379,1.379,0,0,1,19.977,37V36.954a3.91,3.91,0,0,1-.182-1.2,19.488,19.488,0,0,1-.228-2.254l-2.776-.046a9.3,9.3,0,0,1-2.5-.138,2.518,2.518,0,0,1-.728-0.414,1.581,1.581,0,0,1-.683-1.84c0.249-.714.884-0.793,1.593-1.058,1-.374,2.094-0.681,3.094-1.058,0.423-.159,1.57-0.284,1.593-0.782a8.9,8.9,0,0,1-.137-1.748c-0.377-1.724.078-4.263-.5-5.8-0.177-.469-0.244-1.084-0.865-1.1l-5.324-.552v0.6a0.48,0.48,0,0,1-.228.092,2.486,2.486,0,0,1-.045-0.69c-3.889-.355-7.385-0.927-9.966-2.576-0.754-.482-2.384-1.411-2-2.945,0.349-1.4,1.658-1.336,3.094-1.656H4c0.571-.125,1.27.049,1.911-0.092,0.37-.081.939,0.048,1.365-0.046A8.806,8.806,0,0,1,8.874,11.6l1.82-.046V11.466a2.946,2.946,0,0,0,.045-1.058c0-.664.173-1.086,0.182-1.7h0.091V9.027a6.812,6.812,0,0,1,.182,2.438,0.641,0.641,0,0,0,.182.046,0.3,0.3,0,0,1,.182-0.046V9.809a5.935,5.935,0,0,0,.182-1.1h0.091V8.981a7.282,7.282,0,0,1,.182,2.484l5.87-.184V11.189a3.638,3.638,0,0,0,.046-0.828c0.1-.458-0.016-1.022.091-1.518l0.182-1.1h0.136a0.318,0.318,0,0,1,.137-0.23,0.377,0.377,0,0,1-.182-0.276,0.486,0.486,0,0,0,.136-0.322,0.235,0.235,0,0,1-.136-0.23,3.9,3.9,0,0,0,.546-1.886,11.278,11.278,0,0,1-2.912-.046,1.818,1.818,0,0,1-.91-0.184,9.713,9.713,0,0,0,1.911-.184,9.565,9.565,0,0,1,2,0,2.855,2.855,0,0,1,.91-1.334,0.7,0.7,0,0,1,.364.046A1.691,1.691,0,0,1,21.069,4.38Z"/>
</svg>
