<svg xmlns="http://www.w3.org/2000/svg" width="40" height="40" viewBox="0 0 40 40">
  <defs>
    <style>
      .cls-1 {
        fill: #fff;
        fill-rule: evenodd;
      }
    </style>
  </defs>
  <path id="Color_Fill_1" data-name="Color Fill 1" class="cls-1" d="M38.732,28.532v-0.22L22.339,23.035l-0.262,2.683v0.748c-0.131.606-.046,1.379-0.175,1.979q-0.022.616-.044,1.231a2.328,2.328,0,0,0-.087.836,1.034,1.034,0,0,1,.044.4c-0.1.476-.123,1.063-0.219,1.539a5.093,5.093,0,0,1,1.093.748c0.871,0.586,1.736,1.162,2.579,1.759a6.611,6.611,0,0,1,1.443.968,3.286,3.286,0,0,1-.175,2.375,9.949,9.949,0,0,0-2.011-.484c-0.794-.225-1.649-0.333-2.492-0.572a6.04,6.04,0,0,0-1.093-.264v0.044H20.9c-0.021.324-.122,0.516-0.131,0.88H20.153v1.011a0.267,0.267,0,0,0-.087.088,1.3,1.3,0,0,1-.175-1.1H19.279a8.637,8.637,0,0,0-.175-0.924,8.873,8.873,0,0,0-1.88.44c-0.418.119-.764,0.1-1.18,0.22-0.847.242-1.761,0.462-2.623,0.66V38.208a3.121,3.121,0,0,1-.044-2.375,8.078,8.078,0,0,1,1.18-.748c0.877-.587,1.747-1.26,2.623-1.847a2.747,2.747,0,0,0,1.224-.968,1.543,1.543,0,0,1-.044-0.352c-0.162-.7.008-1.349-0.131-1.979-0.373-1.69-.047-3.816-0.437-5.5-0.107-.46.01-0.986-0.131-1.407a8.96,8.96,0,0,0-1.312.44c-0.834.283-1.656,0.524-2.448,0.792-2.458.831-4.927,1.561-7.344,2.375-1.24.418-2.474,0.785-3.672,1.188a6.441,6.441,0,0,0-1.53.484,1.263,1.263,0,0,0-.087.22l-0.393.088V28.444H0.831a1.968,1.968,0,0,1-.481.176C0.3,28.189.184,27.7,0.087,27.257A9.2,9.2,0,0,1,.175,24.75H0.481V24.706a0.42,0.42,0,0,1,.044-0.44,19.808,19.808,0,0,1,2.361-1.847c0.9-.665,1.719-1.493,2.623-2.155,0.422-.309,1.617-1,1.617-1.627a17.235,17.235,0,0,0,.131-1.8H7.3v0.22c0.226,0.384-.2,1.489.175,1.715a4.376,4.376,0,0,1,1.049-.836c0.616-.455,1.173-1.042,1.792-1.5a1.675,1.675,0,0,0,.962-1.012,17.131,17.131,0,0,0,.131-1.759h0.044v0.22a6.443,6.443,0,0,1,.044,1.627h0.044a3.6,3.6,0,0,1,.743-0.572c0.2-.147.37-0.381,0.568-0.528a1.976,1.976,0,0,0,.568-0.4V6.058a1.25,1.25,0,0,1,.044-0.968A0.222,0.222,0,0,1,13.6,5.046a0.676,0.676,0,0,1,.088.4,11.368,11.368,0,0,1,0,2.2v6.113h0.087c0.371-.515,1.828-1.208,2.011-1.715-0.142-.037-0.067.021-0.131-0.088,0.391-.266-0.017-2.03.306-2.463,0.077,0.7.127,1.607,0.131,2.375h0.044a8.338,8.338,0,0,1,1.093-.924,1.2,1.2,0,0,0,.393-0.264V9.62a15.459,15.459,0,0,0,.131-2.067c0.1-.477.016-1.02,0.131-1.539,0.223-1.009.226-2.155,0.481-3.079a4.527,4.527,0,0,1,.306-1.187,1.838,1.838,0,0,1,1.137-.7,1.229,1.229,0,0,1,.743.132c0.88,0.337.882,0.921,1.137,1.891,0.223,0.848.236,1.892,0.437,2.815q0.022,0.462.044,0.924c0.118,0.547,0,1.211.131,1.8a11.158,11.158,0,0,1,.131,2.111,7.982,7.982,0,0,1,.962.7V10.676a5.181,5.181,0,0,0,.087-1.1,3.413,3.413,0,0,1,.656-1.715c0.067,0.217.227,0.423,0.306,0.616A7.954,7.954,0,0,1,24.7,9.62a14.874,14.874,0,0,1,.044,2.947,4.465,4.465,0,0,1,1.049.836c0.919,0.68,1.759,1.494,2.71,2.111V13.975a2,2,0,0,0,.087-0.308h0.044v0.22c0.063,0.1.108,1.646,0.131,1.847,0.939,0.59,1.8,1.441,2.71,2.111a4.824,4.824,0,0,0,1.049.836,0.151,0.151,0,0,1,.044-0.088,0.285,0.285,0,0,0,.044.176V18.681a9.8,9.8,0,0,0,.087-1.847h0.087V17.1c0.068,0.11.107,1.715,0.131,1.935,0.582,0.374,1.069.91,1.617,1.32,1.159,0.865,2.246,1.779,3.41,2.639a10.553,10.553,0,0,0,1.443,1.188V21.847h0.087v2.419a0.586,0.586,0,0,1,.087.484c0.171,0,.2-0.022.262,0.088a2.4,2.4,0,0,1,.087.748,7.421,7.421,0,0,1-.262,3.035H39.607a1.993,1.993,0,0,0-.437-0.176,0.371,0.371,0,0,1-.044.22A0.782,0.782,0,0,0,38.732,28.532Z" transform="translate(0 -0.016)"/>
</svg>
