<svg xmlns="http://www.w3.org/2000/svg" width="39.938" height="40" viewBox="0 0 39.938 40">
  <defs>
    <style>
      .cls-1 {
        fill: #fff;
        fill-rule: evenodd;
      }
    </style>
  </defs>
  <path id="Color_Fill_1" data-name="Color Fill 1" class="cls-1" d="M21.25,11.732a11.887,11.887,0,0,0,2.74-.048,3.552,3.552,0,0,1,.24-2.533h1.106v-0.1a26.585,26.585,0,0,0-3.221-.143l-0.048-.1,0.144-.048a3.4,3.4,0,0,1,.817-0.048,12.726,12.726,0,0,1,2.019-.048V8.625A0.412,0.412,0,0,1,25,8.386a0.694,0.694,0,0,1,.24.048c0.007-.18-0.023-0.168.1-0.239a0.252,0.252,0,0,1,.24,0V8.386h0.144v0.1a0.6,0.6,0,0,0,.048.143c0.252,0.166,2.376.04,2.933,0.143V8.816H28.654c-0.515.422-2.847-.21-3.173,0.335h1.106a5.051,5.051,0,0,1,.288,2.677,8.984,8.984,0,0,1,1.779.143c0.475,0.1.979,0,1.394,0.1,0.9,0.2,1.93,0,2.788.191H33.51c0.847,0.185,1.9.054,2.74,0.239h0.721c1.472,0.32,2.608-.153,2.981,1.338a1.561,1.561,0,0,1-.144.908c-0.505,1.328-1.034,1.134-2.452,1.482-1.585.389-3.362,0.47-4.952,0.86l-1.442.191c-0.825.2-1.723,0.216-2.6,0.43a9.769,9.769,0,0,1-2.067.335,28.705,28.705,0,0,1-.24,2.964c-0.126.578,0.017,1.2-.1,1.721v0.86c-0.109.5-.037,1.178-0.144,1.673v0.86c-0.115.525-.03,1.241-0.144,1.769V28.8c-0.152.692-.045,1.634-0.192,2.294a3.234,3.234,0,0,1-.1.908,4.837,4.837,0,0,0-.144-1.434H25.1a1.4,1.4,0,0,1-.337,1.147H15.24c-0.025-.046-0.617-0.987-0.337-1.147H14.712A3.4,3.4,0,0,1,14.567,32a5.942,5.942,0,0,0-.144-1.243c-0.142-.64.03-1.333-0.1-1.912V27.937c-0.115-.527-0.03-1.244-0.144-1.769l-0.1-2.533c-0.114-.521.03-1.143-0.1-1.721L13.7,18.042a7.292,7.292,0,0,1-1.779-.287c-0.778-.193-1.578-0.2-2.308-0.382l-1.154-.143c-1.49-.371-3.175-0.445-4.663-0.813-1.913-.473-3.282-0.066-3.75-2.055A1.546,1.546,0,0,1,.625,12.88c0.6-.4,1.544-0.148,2.4-0.335C3.664,12.407,4.4,12.551,5.1,12.4a18.357,18.357,0,0,1,3.125-.239,4.664,4.664,0,0,1,.1-1.864v1.816a0.682,0.682,0,0,0,.192.048,5.689,5.689,0,0,1,1.442-.1,18.1,18.1,0,0,1,3.173-.239c-0.011-.524-0.228-2.441.289-2.677h1.058v-0.1h-0.1A13.405,13.405,0,0,0,11.3,8.912L11.25,8.769c0.924-.1,2.083-0.058,2.981-0.1V8.625a0.412,0.412,0,0,1-.048-0.239,0.694,0.694,0,0,1,.24.048c0.007-.18-0.023-0.168.1-0.239a0.252,0.252,0,0,1,.24,0V8.386H14.9v0.1a0.6,0.6,0,0,0,.048.143c0.252,0.166,2.376.04,2.933,0.143V8.816H17.837c-0.515.422-2.847-.21-3.173,0.335h1.106a2.918,2.918,0,0,1,.337,1.673c0,0.218-.048.86-0.048,0.86a11.835,11.835,0,0,0,2.644.048,8.7,8.7,0,0,0,.048-2.294c0.206-.341.078-1.39,0.288-1.673,0.027,0.062,0,.035.048,0.048a5.354,5.354,0,0,0,.288-0.526A2.953,2.953,0,0,1,19.76,7H20.24a2.592,2.592,0,0,1,.673.86c0.042-.035.054-0.06,0.1-0.1a4.476,4.476,0,0,0,.192,1.1Q21.226,10.3,21.25,11.732Zm-5.817,6.405L14.808,28.8H25.144c0.025-3.595-.548-7.073-0.577-10.612a16.63,16.63,0,0,0-3.269-.048v0.048H21.25a6.5,6.5,0,0,1-.865,3.2,1.592,1.592,0,0,1-.433.813,3.8,3.8,0,0,0-.336-0.669,17.645,17.645,0,0,1-.721-1.912L18.7,18.186a2.447,2.447,0,0,0-.913-0.048H15.433Z" transform="translate(-0.031 0.5)"/>
</svg>
