<?xml version="1.0" encoding="utf-8"?>
<!-- Generator: Adobe Illustrator 16.0.0, SVG Export Plug-In . SVG Version: 6.00 Build 0)  -->
<!DOCTYPE svg PUBLIC "-//W3C//DTD SVG 1.1//EN" "http://www.w3.org/Graphics/SVG/1.1/DTD/svg11.dtd">
<svg version="1.1" id="Layer_1" xmlns="http://www.w3.org/2000/svg" xmlns:xlink="http://www.w3.org/1999/xlink" x="0px" y="0px"
	 width="40px" height="40px" viewBox="0 0 40 40" enable-background="new 0 0 40 40" xml:space="preserve">
<path id="Color_Fill_1" fill="#FFFFFF" d="M13.935,11.031c0.943-0.026,1.887,0.045,2.816,0.213c1,0.215,2.043,0.018,2.96,0.213
	c1,0.213,2.289-0.222,3.178,0.071c0.002-0.122,0.025-0.243,0.071-0.356h0.072c-0.009,0.1,0.017,0.2,0.071,0.284
	c0.009-0.098,0.033-0.194,0.072-0.284h0.072c0.064,0.559,1.064,0.386,1.661,0.356l0.071,0.356h0.072
	c0.111-0.059,0.236-0.083,0.361-0.071V11.6h0.65c-0.042-0.115-0.042-0.241,0-0.356c0.038,0.038,0.063,0.088,0.072,0.142
	c0.299,0.343,0.247,0.952,0.865,1c0.6,0.379,1.531,0.035,2.383,0.213c0.959,0.109,1.926,0.133,2.889,0.071h5.631
	c0.641-0.144,1.295-0.215,1.951-0.213l0.071,0.213c0.087,0.205,0.087,0.436,0,0.64c-0.356,0.074-0.72,0.098-1.083,0.071
	c-0.797-0.23-1.631-0.303-2.455-0.213h-4.476c-0.795-0.047-1.593-0.023-2.384,0.071c-0.77,0.164-1.961-0.277-2.311,0.284
	c0.328,0.415,0.551,0.902,0.65,1.422c-0.434-0.063-0.876-0.039-1.301,0.071h0.361c0.195,0.667,0.463,1.31,0.795,1.92
	c0.656,0.303,1.332,0.564,2.021,0.782c1.026,0.619,2.195,0.963,3.393,1c0.061-0.137,0.109-0.28,0.145-0.427H33.5
	c0.145,0.524,0.3,0.264,0.723,0.5c0.145,0.08,0.219,0.322,0.36,0.427v0.071c-0.305-0.12-0.651-0.035-0.866,0.213
	c-0.316,0.508,0.146,1.514-0.072,2.133c-0.303,0.362-0.547,0.77-0.722,1.209l0.361,0.071c0.059,0.104,0.132,0.2,0.217,0.284
	c-0.007,0.054-0.032,0.104-0.071,0.142c-0.144,0.326-0.146,0.044-0.434,0.214c-0.06,0.104-0.133,0.198-0.217,0.283
	c0-0.077-0.025-0.152-0.072-0.213v0.07c-0.066,0.209-0.114,0.424-0.145,0.641c-0.395,0.925-1.078,1.697-1.949,2.2
	c-2.377,1.37-5.586-0.617-5.848-2.7h-0.217l-0.217-0.568H11.625c-0.122,0.396-0.542,0.62-0.939,0.5
	c-0.083,1.887-3.124,3.916-5.415,2.986c-0.929-0.391-1.712-1.063-2.239-1.923l-0.289-1c-0.092-0.039-0.189-0.063-0.289-0.071
	c-0.11-0.147-0.185-0.318-0.217-0.5H2.166c0.008,0.1-0.017,0.2-0.072,0.284v-0.069c-0.056-0.072-0.01-0.179-0.072-0.283
	c-0.125-0.105-0.273-0.18-0.433-0.213c-0.098-0.129-0.171-0.273-0.217-0.428l-1.083-1c0.041-0.164,0.041-0.336,0-0.5H0.072
	C0.009,20.946-0.016,20.823,0,20.702c0.315-0.401,0.423-0.929,0.289-1.422c-0.078,0.001-0.155-0.024-0.217-0.071
	C0.019,19.124-0.007,19.024,0,18.924c0.495-0.193,0.467-0.519,0.433-1.209c0.047-0.061,0.1-0.224,0.144-0.284
	c0.82-0.228,1.676-0.3,2.523-0.213c-0.001-0.077,0.024-0.152,0.072-0.213c0.5-0.3,1.91,0,2.6-0.142
	c0.447-0.118,0.915-0.143,1.372-0.071c0.082,0.033,0.031,0.185,0.289,0.142c0.128-0.061,0.25-0.133,0.367-0.214l4.043-0.213v0.213
	h0.287l0.722-1.565c0.001-0.36,0.051-0.719,0.148-1.066C13.42,13.106,13.734,12.081,13.935,11.031z M15.523,11.813
	c0.04,0.038,0.09,0.063,0.144,0.071C15.628,11.846,15.578,11.821,15.523,11.813L15.523,11.813z M38.844,12.738
	c-0.082,0.073-0.133,0.175-0.144,0.284l0.288,0.071v-0.355h-0.143H38.844z M39.133,12.738v0.356h0.65v-0.356H39.133z M12.924,14.938
	c0.677,0.242,1.417,0.242,2.094,0H12.924z M24.837,14.938c0.131,0.088,0.302,0.088,0.433,0H24.837L24.837,14.938z M25.848,14.938
	v0.142h0.072v-0.067h0.072c-0.039-0.039-0.09-0.063-0.145-0.071V14.938z M33.141,23.045h-0.217v0.071H33l-0.072,0.213h0.145v-0.067
	c0.045-0.062,0.068-0.137,0.068-0.213V23.045z"/>
</svg>
