<svg xmlns="http://www.w3.org/2000/svg" width="40" height="40" viewBox="0 0 40 40">
  <defs>
    <style>
      .cls-1 {
        fill: #fff;
        fill-rule: evenodd;
      }
    </style>
  </defs>
  <path id="Color_Fill_1" data-name="Color Fill 1" class="cls-1" d="M8.989,16.927a2.687,2.687,0,0,0,.6-0.148V16.729a0.965,0.965,0,0,1-.1-0.2,0.672,0.672,0,0,0,.2-0.1,1.76,1.76,0,0,1-.15-0.148,0.664,0.664,0,0,1,.4-0.1,1.649,1.649,0,0,0,.35.148,1.719,1.719,0,0,0-.4.049v0.1c0.115,0.136.009,0.261-.1,0.495h0.1a0.256,0.256,0,0,0,.15.049,2.769,2.769,0,0,1,.1-0.643,8.921,8.921,0,0,0,1.3.2v-0.05a0.435,0.435,0,0,1,0-.346,0.635,0.635,0,0,1,.2.05c-0.02.145-.082,0.062,0.05,0.148V16.333h0.05V16.284a0.3,0.3,0,0,1-.1-0.1,1.507,1.507,0,0,0,.4-0.346h0.6a1.055,1.055,0,0,1,.05.346,2.107,2.107,0,0,0,1.2-.148c0.067,0.358.588,0.269,1,.247a2.77,2.77,0,0,0,.949.049c0.521,0.029,1.2.054,1.8,0.049v0.1h-0.05a0.435,0.435,0,0,1-.25.049,2.181,2.181,0,0,0-1,0l-2.347.05V16.63h-0.05a0.881,0.881,0,0,1-.1.445,0.806,0.806,0,0,0-.4-0.05v0.05h0.05a0.871,0.871,0,0,0,.5.2l0.05-.3c0.121-.045.079-0.053,0.2-0.1v0.049a1.474,1.474,0,0,1,.2.445,0.372,0.372,0,0,1,.3,0,1.189,1.189,0,0,1,.05.544c0.227,0,.145.069,0.25-0.1l0.15,0.05c-0.028.1-.082,0.042,0,0.1a0.216,0.216,0,0,0,.15.148,1.382,1.382,0,0,1,.649-0.4c0.35,0.343.5,0.9,0.849,1.237,0.119,0.114.33,0.135,0.449,0.247a0.8,0.8,0,0,0,.549.346,1.261,1.261,0,0,0,.2-0.4h0.05c0.052,0.661,1.2.47,1.9,0.445,0.093-.068.237-0.033,0.35-0.1,0.263-.155.064-0.379,0.549-0.4a0.6,0.6,0,0,0,.4.4,11.431,11.431,0,0,0,3.046.1v0.148l0.25,0.05v0.148c1.291,0,2.626.049,3.845,0.05a13.528,13.528,0,0,1,2.447.049c0.962,0.2,2.147-.142,3.046.049h1.7a20.659,20.659,0,0,0,3.3-.148,4.779,4.779,0,0,1,1.1.247v0.742c-0.261-.049-0.119.069-0.3,0.148H39.65a1.7,1.7,0,0,1-.4-0.049,0.944,0.944,0,0,1-.5.1,10.863,10.863,0,0,0-3.5-.1l-11.036.1c0.02,0.112.046,0.054,0,.148a0.933,0.933,0,0,1-.449.05v0.247c-1.431.006-2.833,0.034-3.9-.049a0.733,0.733,0,0,1-.05.495c-0.167-.011-0.12-0.107-0.2.05a0.171,0.171,0,0,1,.1.049,2.652,2.652,0,0,1,.35-0.2,1.687,1.687,0,0,1,.4.693h-0.05v0.049a2.77,2.77,0,0,0-1.3.148h0.05v0.049c0.292,0.091.637,0.129,0.949,0.2h0.649c0.08,0.027.171,0.167,0.25,0.2,0.218,0.084.535-.07,0.7,0l0.1,0.2a0.439,0.439,0,0,1,.2-0.049,2.214,2.214,0,0,1,.2.2,4.606,4.606,0,0,0,.549.1c0.072-.366.165-0.472,0.649-0.445,0.065-.122-0.021-0.034.1-0.1l0.05,0.495a0.917,0.917,0,0,1,.35.05v0.1c-0.219.027-.225,0.021-0.25,0.247-0.062.078-.032,0.025,0,0.1a0.256,0.256,0,0,0,.15.05,0.77,0.77,0,0,0,.05-0.247h0.25v0.2h0.05V24.2a1.258,1.258,0,0,1,1.348.792c0.176,0.275-.185.483-0.3,0.643a0.723,0.723,0,0,1,.25.049v0.1h-0.25c-0.087-.065-0.08-0.085-0.15-0.049a5.773,5.773,0,0,1-.2.891,3.151,3.151,0,0,1-1.1.792,10.6,10.6,0,0,1-2.547,1.435,14.72,14.72,0,0,1-3.1.049H7.291a7.469,7.469,0,0,1-1.948-.049A9.639,9.639,0,0,1,4,28.159,22.262,22.262,0,0,1,1.948,27.12c-0.189-.124-0.315-0.444-0.5-0.544C1.129,26.4.733,26.731,0.7,26.081H0.449V24.844H0.4v0.049c-0.039.1-.05-0.1-0.05-0.1A1.289,1.289,0,0,1,.8,24.6V24.4H1V24.349a1.083,1.083,0,0,0-.35-0.05,0.339,0.339,0,0,0-.2-0.049A0.7,0.7,0,0,0,.4,23.607h0.15a4.362,4.362,0,0,1,0-.594,1.271,1.271,0,0,1,.8-0.3c0.358,0.232.574-.139,1.1-0.049,0.253,0.043,1.092-.061,1.4,0a5.776,5.776,0,0,0,1.1,0,10.88,10.88,0,0,0,1.6,0c0.259-.049.554,0.22,0.749,0.148v-0.1a10.624,10.624,0,0,0,1.248.1v-0.05H8.34c-0.576-.346-2.179.112-2.7-0.247a0.251,0.251,0,0,1-.05-0.148,1.979,1.979,0,0,0,.05-1.336l-0.1-1.781a0.684,0.684,0,0,0-.2-0.247l-0.1-.594c0.208-.038.182-0.026,0.2-0.247a2.777,2.777,0,0,1-1.7-1.089,0.331,0.331,0,0,0,.05-0.2,2.4,2.4,0,0,1,.949-0.544l1.049,0.247,0.2,0.247,0.3-.1,0.35,0.2,0.05,0.3c0.526,0,.824.1,1.4,0.1l0.1-.148a0.191,0.191,0,0,1-.1-0.148h0.3a0.18,0.18,0,0,0,.1.05V16.63a0.332,0.332,0,0,0,.05-0.2h0.15l0.05-4.651A6.886,6.886,0,0,1,8.789,10v6.432A1.44,1.44,0,0,1,8.989,16.927Zm2.846-.841a0.181,0.181,0,0,0,.1.05A0.181,0.181,0,0,0,11.835,16.086Zm-0.3.445a0.147,0.147,0,0,0,.2,0h-0.2Zm1.448,0.149V17.57l0.2,0.05V17.57a0.4,0.4,0,0,1-.15-0.445,0.4,0.4,0,0,0,.15-0.247A0.373,0.373,0,0,0,12.984,16.68Zm1.8,0.148a1.957,1.957,0,0,1,.8.05A1.957,1.957,0,0,1,14.782,16.828Zm-8.739.4a1.534,1.534,0,0,0,.35-0.05,0.169,0.169,0,0,1,.05-0.1,0.169,0.169,0,0,0-.05-0.1c-0.074-.126-0.106-0.1-0.3-0.1A1.056,1.056,0,0,0,6.042,17.224Zm3.4-.346c-0.043.032-.157,0.066-0.2,0.1h0.3v-0.05h0.05V16.878H9.438Zm0,0.2a0.18,0.18,0,0,0,.1.049A0.18,0.18,0,0,0,9.438,17.076Zm-1.2.049a0.622,0.622,0,0,0,.05.2H8.34v-0.05a0.251,0.251,0,0,0,.05-0.148H8.24Zm0.2,0a0.238,0.238,0,0,0,.05.148V17.125H8.439ZM5.393,18.51a1.536,1.536,0,0,0,.05.495h0.05V18.659C5.459,18.621,5.428,18.548,5.393,18.51ZM20.624,19.2c-0.05.092-.1,0.19-0.15,0.3h0.5V19.4A0.392,0.392,0,0,0,20.624,19.2Zm18.427,0.99H38.6a2.221,2.221,0,0,0-.05.643,1.083,1.083,0,0,0,.35.05c0.078,0.061.025,0.032,0.1,0A1.626,1.626,0,0,0,39.051,20.193Zm0.6,0.693V20.193H39.3a2.217,2.217,0,0,0-.05.643A1.261,1.261,0,0,0,39.65,20.885Zm-21.873.643,0.05,0.148h0.05V21.529h-0.1Zm0.549,0v0.247a0.9,0.9,0,0,0,.449-0.2V21.529H18.327Zm-0.3.247v0.1C18.108,21.816,18.089,21.854,18.028,21.776Zm0.15,0v0.1h0.05V21.826h0.05A0.181,0.181,0,0,0,18.177,21.776Zm1.049,0.445a0.421,0.421,0,0,0-.25.049,0.639,0.639,0,0,1,.2.049c0.01,0.178-.074.1,0.1,0.148v-0.1A0.251,0.251,0,0,1,19.226,22.221Zm-0.7.247a0.181,0.181,0,0,0,.1.05A0.181,0.181,0,0,0,18.527,22.469Zm-9.888.3v0.1h0.1c0.039-.034.111-0.065,0.15-0.1H8.639Zm0.3,0.05v0.1a1.145,1.145,0,0,0,.6,0,0.243,0.243,0,0,0,.15-0.05Zm13.433,0.643a0.178,0.178,0,0,1,.05.1h-0.05v-0.1Zm-0.449.049c-0.016.069,0.071,0.072,0.1,0.1C22.057,23.554,21.936,23.523,21.923,23.508ZM0.35,23.8a0.144,0.144,0,0,1,0,.2V23.8Zm-0.1,1.138a0.144,0.144,0,0,1,0,.2v-0.2ZM0,26.279l0.25-1.138a3.742,3.742,0,0,0,0,1.138H0Zm23.071,0.544a3.1,3.1,0,0,1-.949.3v0.495a0.178,0.178,0,0,0-.05.1h0.05a4.984,4.984,0,0,0,1.3-.792A1.934,1.934,0,0,1,23.071,26.823Zm-18.627.495c-0.365-.013-0.2-0.065-0.35-0.148a3.046,3.046,0,0,0-.949-0.049v0.049h0.1a5.05,5.05,0,0,0,1.3.643v-0.1A0.579,0.579,0,0,1,4.444,27.318Zm3-.2a1.663,1.663,0,0,1-.549,1.237H8.639V28.307a1.187,1.187,0,0,1-.5-1.187h-0.7Zm7.291,0a1.641,1.641,0,0,1-.5,1.237h1.8V28.307a1.243,1.243,0,0,1-.5-1.187h-0.8Zm-3.6.2a1.532,1.532,0,0,1-.549,1.039h1.648V28.307a1.258,1.258,0,0,1-.549-0.99H11.136Zm7.391,0a1.617,1.617,0,0,1-.5,1.039h1.6V28.307a1.936,1.936,0,0,1-.549-0.94v-0.05H18.527Z" transform="translate(0 0.516)"/>
</svg>
