<svg xmlns="http://www.w3.org/2000/svg" width="39.969" height="40" viewBox="0 0 39.969 40">
  <defs>
    <style>
      .cls-1 {
        fill: #fff;
        fill-rule: evenodd;
      }
    </style>
  </defs>
  <path id="fr_arl_44_acl1_ico" class="cls-1" d="M20.192,13.05c0.717-.01,1.467.436,2.105,0.38a0.108,0.108,0,0,1,.023-0.067,1.2,1.2,0,0,1,.566-0.134L22.909,13.3a0.321,0.321,0,0,0-.159,0v0.022a0.409,0.409,0,0,1,.023.2L23,13.564a0.521,0.521,0,0,0,.045.089L24.222,13.9a0.107,0.107,0,0,1,.023-0.067A0.3,0.3,0,0,1,24.4,13.81a0.635,0.635,0,0,0,.249.045V13.9a0.5,0.5,0,0,0-.023.112h0.113a2.009,2.009,0,0,1,.679.246,3.939,3.939,0,0,1,.136.715,0.574,0.574,0,0,0,.181.022,0.2,0.2,0,0,0,.113.022l0.181-.536,0.068-.022a2.281,2.281,0,0,1,.5.357,1.784,1.784,0,0,0,.2.313c0.131,0.111.284,0.022,0.294,0.268a5.246,5.246,0,0,1,.86.112l3.486,0.022a8.967,8.967,0,0,0,1.652.022h0.453a8.976,8.976,0,0,0,1.652.022h0.453a8.03,8.03,0,0,0,1.472.022c0.915,0,1.9,0,2.807,0a1.847,1.847,0,0,1,.045.559H39.932l-3.35.022a7.442,7.442,0,0,1-1.358.022l-2.332.022-3.056.045H28.183a5.729,5.729,0,0,1-1.087.112v0.156a2.053,2.053,0,0,0-.77.648,0.548,0.548,0,0,1-.362.156c-0.093-.137-0.02-0.417-0.113-0.559a0.116,0.116,0,0,0-.068-0.022,0.424,0.424,0,0,1-.2.022l-0.045.067a0.238,0.238,0,0,0-.045.156H25.422a4.1,4.1,0,0,1-.657.782H24.38v0.134h0.34v0.112c0.364,0,.73.02,1.064,0.022V17.967c0.529,0,.954-0.045,1.449-0.045H27.64a0.59,0.59,0,0,0,.317.045c0.139-.037.275-0.12,0.43-0.156v0.156a3.1,3.1,0,0,1,.589.156l0.09-.022a2.007,2.007,0,0,1,.249.246,0.27,0.27,0,0,1,.159.045,2.122,2.122,0,0,0,.5.447l0.091-.112a0.535,0.535,0,0,1,.09.022,1.235,1.235,0,0,1,.226.291c-0.028.035-.015,0.011,0,0.045a5.392,5.392,0,0,0,.747.6,1.893,1.893,0,0,0,.453-0.045,0.708,0.708,0,0,0,.091-0.223,0.291,0.291,0,0,1-.159-0.112l0.045-.134,0.294-.022a0.331,0.331,0,0,1,.045.179,0.1,0.1,0,0,0-.045.089H31.76v0.045h0.023a0.3,0.3,0,0,0,.158.022v0.067h0.2v0.112l1.7-.112a2.349,2.349,0,0,1,.792-0.045H35a5.789,5.789,0,0,1,.906.156,2.477,2.477,0,0,1,1.222,1.028,2.3,2.3,0,0,1,.362,1.274v0.313a3.166,3.166,0,0,1-.317.894c-0.545.868-1.6,1.166-2.49,1.7a30.481,30.481,0,0,1-4.256,2.078l-1.494.4a19.851,19.851,0,0,1-4.98.268H11.092a9.878,9.878,0,0,1-2.015-.089l-0.34-.022A20.123,20.123,0,0,1,5.614,26.3,4.489,4.489,0,0,0,3.8,25.654a2.637,2.637,0,0,0-.566-0.737,5.015,5.015,0,0,1-.385-0.782,1.456,1.456,0,0,1-.747.112,0.559,0.559,0,0,0-.091-0.112c0-.152.023-0.894,0.023-0.894L1.9,22.994a0.578,0.578,0,0,1-.838-0.223,0.772,0.772,0,0,1,.068-0.514,0.912,0.912,0,0,0,.34-0.335,4.744,4.744,0,0,1-.589-0.916H0.86v0.022a0.113,0.113,0,0,0-.091.134,0.65,0.65,0,0,1-.226.581,0.514,0.514,0,0,1-.317.067,0.154,0.154,0,0,0-.091-0.022c-0.3-.5.08-0.442,0.091-0.849-0.064.007-.047,0.024-0.091,0H0.158a0.424,0.424,0,0,1,.113-0.067c-0.06-.1.014-0.073,0-0.179a0.554,0.554,0,0,1-.045-0.112,0.589,0.589,0,0,1,.362.045V20.6H0.611V20.581H0.589a4.29,4.29,0,0,0-.521-0.849l0.249-.067a1.171,1.171,0,0,0-.023-0.29l0.068-.022a0.627,0.627,0,0,1,.385.134A0.107,0.107,0,0,1,.77,19.419a0.853,0.853,0,0,1,.2-0.067c0.042-.02.054-0.092,0.091-0.112a0.985,0.985,0,0,1,.317-0.022,1.843,1.843,0,0,1-.045-0.179H1.381V19.017C1.4,18.995,1.4,19.039,1.4,19.039a0.128,0.128,0,0,1,.045.134,2.528,2.528,0,0,0,.724-0.246,0.06,0.06,0,0,0-.023-0.045c0.137-.018.124-0.1,0.113-0.246a5.278,5.278,0,0,0,.86-0.224,0.158,0.158,0,0,0,.136.112,0.724,0.724,0,0,1,.362-0.089c0.027,0.007.019,0.059,0.091,0.045,0.207-.042.417-0.191,0.656-0.223a0.774,0.774,0,0,1-.045-0.179H4.414a0.4,0.4,0,0,1,.023.134,0.147,0.147,0,0,0,.091-0.022,3.11,3.11,0,0,1,.634-0.425v0.022H5.184a0.286,0.286,0,0,0,.023.156,0.618,0.618,0,0,1,.43.157,0.464,0.464,0,0,1,.023-0.224V18.1H5.75V17.855a0.577,0.577,0,0,1,.181-0.022,0.449,0.449,0,0,1,.045.246H6.044V17.609h4.98L11,17.3h0.5v0.067h2.377a0.827,0.827,0,0,1,.136.648h0.023c0.035-.043.056-0.062,0.091-0.045a0.383,0.383,0,0,0,.181.067,1.788,1.788,0,0,1,1.064-.112V17.765c-0.423-.143-0.649-0.615-1.109-0.738H11.794V16.6H11.636V16.492H11.568V16.313h0.068V15.6H11.568V15.419h0.068a1.4,1.4,0,0,1,.159-0.737c-0.074-.018-0.035.011-0.068-0.045a0.452,0.452,0,0,0,.068-0.134c0.066,0,.031.021,0.068,0a0.163,0.163,0,0,1,.113-0.089c0.043,0.035.047,0.042,0.091,0.022a1.862,1.862,0,0,0,.113-0.2c0.025-.033.115-0.037,0.136-0.067V14.056a0.081,0.081,0,0,1-.023-0.045h0.045a1.341,1.341,0,0,1,.362-0.067l0.023,0.067c0.492-.187.958-0.413,1.449-0.626a2.148,2.148,0,0,1,.973-0.335V12.559a0.712,0.712,0,0,1,.226.045c0.208-.3.343-0.041,0.634-0.156l0.045-.067H16.3c0.055-.034.005-0.159,0.068-0.2a0.342,0.342,0,0,0,.023.179,1.653,1.653,0,0,0,.589.022h1.517V12.313h0.2c0.01,0,.024.082,0.045,0.067a1,1,0,0,1,.5-0.089,0.193,0.193,0,0,1,.113-0.223c0.317-.192.21,0.216,0.272,0.335,0,0,.4.2,0.407,0.2,0.033-.057.048-0.045,0.136-0.045V12.6A1.137,1.137,0,0,1,20.192,13.05Zm14.08,6.078h0.181v0.045H34.273V19.129Zm1.041,0.045a0.185,0.185,0,0,1,.2.067H35.473A0.665,0.665,0,0,1,35.314,19.173ZM33.39,19.2h0.045V19.24H33.3a0.065,0.065,0,0,1-.023.022V19.218A0.191,0.191,0,0,0,33.39,19.2Zm-1.132.089h0.158v0.022H32.371C32.315,19.342,32.3,19.327,32.258,19.285Zm-0.973.022h0.158v0.045H31.285V19.307Zm5.229,0.268a0.618,0.618,0,0,1,.158.089V19.71H36.65A0.49,0.49,0,0,1,36.514,19.575ZM37.4,20.425a0.34,0.34,0,0,1,.113.2H37.487V20.6A0.261,0.261,0,0,1,37.4,20.425Zm-37.306.536H0.136v0.022H0.113C0.1,20.986.069,20.984,0.091,20.961ZM0,21.006a0.111,0.111,0,0,1,.068.022A0.111,0.111,0,0,1,0,21.006Zm37.8,0.6H37.85l0.023,0.2H37.827V21.654A0.08,0.08,0,0,1,37.8,21.609Zm-0.136,1.229c0.056,0.029.015-.01,0.045,0.045a0.319,0.319,0,0,0-.068.156H37.623V23.017c-0.016-.035,0,0,0-0.067A0.261,0.261,0,0,0,37.668,22.838Zm-0.679,1.05h0.045a0.063,0.063,0,0,1-.023.022,0.448,0.448,0,0,1-.136.134V23.978A0.241,0.241,0,0,0,36.989,23.888Zm-0.973.648c0.056,0.029.016-.01,0.045,0.045a1.271,1.271,0,0,1-.158.045V24.6h0.023C35.952,24.578,35.99,24.562,36.016,24.536Zm-33.39.022a0.228,0.228,0,0,1,.113.2H2.716V24.737A0.568,0.568,0,0,1,2.626,24.559Zm32.507,0.447c0.056,0.029.015-.01,0.045,0.045a0.691,0.691,0,0,0-.136.067V25.073A0.209,0.209,0,0,0,35.133,25.006Zm-0.86.469c0.045,0.059,0,.079-0.113.089V25.542h0.023C34.209,25.516,34.246,25.5,34.273,25.475ZM3.4,25.564l0.158,0.089V25.7H3.509A0.548,0.548,0,0,1,3.4,25.564Zm29.994,0.38c0.056,0.029.015-.01,0.045,0.045a1.273,1.273,0,0,1-.159.045V26.011H33.3C33.326,25.986,33.364,25.97,33.39,25.944ZM4.369,26.1a0.184,0.184,0,0,1,.136.089H4.46A0.267,0.267,0,0,1,4.369,26.1Zm28.115,0.313a0.11,0.11,0,0,1,.068.022H32.53a0.273,0.273,0,0,1-.136.067V26.458A0.155,0.155,0,0,0,32.484,26.413ZM5.3,26.525a0.887,0.887,0,0,1,.158.045v0.045H5.433A0.659,0.659,0,0,1,5.3,26.525Zm26.259,0.313H31.6v0.045a0.872,0.872,0,0,0-.159.045V26.883A0.25,0.25,0,0,0,31.556,26.838Zm-25.308.089a0.185,0.185,0,0,1,.136.089H6.338C6.277,26.961,6.251,26.991,6.248,26.927Zm24.335,0.291a0.11,0.11,0,0,1,.068.022H30.628a0.461,0.461,0,0,1-.136.067V27.263A0.155,0.155,0,0,0,30.583,27.218Zm-23.407.134a0.879,0.879,0,0,1,.158.045v0.045H7.312A0.659,0.659,0,0,1,7.176,27.352Zm22.388,0.156h0.091v0.022H29.632a0.392,0.392,0,0,1-.136.045V27.531A0.11,0.11,0,0,0,29.564,27.508Zm-21.392.179a1.216,1.216,0,0,1,.181.045v0.022H8.24A0.174,0.174,0,0,1,8.172,27.687Zm20.441,0.045a0.081,0.081,0,0,1,.023.045H28.591a0.2,0.2,0,0,1-.113.022V27.777H28.5C28.523,27.761,28.591,27.748,28.614,27.732Zm-19.378.157a0.2,0.2,0,0,1,.158.067H9.327A0.2,0.2,0,0,1,9.236,27.888Zm18.178,0.022a0.355,0.355,0,0,1,.181.022C27.508,27.945,27.46,27.983,27.414,27.911Zm-17.136.045a0.3,0.3,0,0,1,.159.022A0.3,0.3,0,0,1,10.277,27.955Zm1.019,0h0.158V28H11.3V27.955Zm1,0a0.54,0.54,0,0,1,.181.022V28H12.292V27.955Zm1,0a0.54,0.54,0,0,1,.181.022V28H13.288V27.955Zm1.019,0h0.159V28H14.307V27.955Zm1,0h0.158V28H15.3V27.955Zm1,0h0.159V28H16.3V27.955Zm1,0h0.159V28H17.295V27.955Zm1,0a0.54,0.54,0,0,1,.181.022V28H18.291V27.955Zm1.019,0h0.158V28H19.31V27.955Zm1,0h0.159V28H20.306V27.955Zm1,0H21.46V28H21.3V27.955Zm1,0h0.158V28H22.3V27.955Zm1,0a0.54,0.54,0,0,1,.181.022V28H23.294V27.955Zm1.019,0a0.54,0.54,0,0,1,.181.022V28H24.312V27.955Zm1.041,0h0.181V28H25.354V27.955Zm1.019,0h0.181V28H26.372V27.955Z"/>
</svg>
