<svg xmlns="http://www.w3.org/2000/svg" width="79.938" height="40" viewBox="0 0 79.938 40">
  <defs>
    <style>
      .cls-1 {
        fill: #fff;
        fill-rule: evenodd;
      }
    </style>
  </defs>
  <path id="Color_Fill_1" data-name="Color Fill 1" class="cls-1" d="M48.669,17.961a0.762,0.762,0,0,0,.608-0.15c0.127,0.133-.038.119,0.228,0.15a0.361,0.361,0,0,1,.076-0.225v0.225h1.065c0,1.35.019,2.247,0,3.3a7.641,7.641,0,0,0-1.065.225,0.663,0.663,0,0,0-.228-0.225v0.075H49.278v0.075h0.076c0.059,0.051.17,0.1,0.228,0.15a0.671,0.671,0,0,0-.228.225,0.659,0.659,0,0,0-.3-0.225v0.3c0.241,0,.1-0.127.228,0.075-0.494.524-.213,2.188-0.076,2.778h0.38a2.978,2.978,0,0,0,1.141-.075V24.417a1.094,1.094,0,0,1-.837-0.075,1,1,0,0,1-.152-0.751c0.455,0,.674-0.019.989,0v-0.6h2.586v0.225c1.147,0.719,3.017.606,4.867,0.6v0.225l-1.9.075v0.45a17.744,17.744,0,0,0,3.27-.075c0.786-.167,1.819.072,2.509-0.075h1.369v-0.15a0.865,0.865,0,0,1,.456-0.075V23.967a0.8,0.8,0,0,1-.532-0.15,0.27,0.27,0,0,1-.076-0.15,11.72,11.72,0,0,1,3.042-.075c-0.063.244,0.037,0.115-.152,0.225-0.347-.221-0.961.131-1.521,0.15v0.375c1.4,0.016,2.557-.133,3.8-0.225v-0.15a3.42,3.42,0,0,0,0-1.727,4.489,4.489,0,0,1-1.673-.826c-0.343-.207-0.721-0.244-1.065-0.45-0.718-.432-1.5-0.915-2.205-1.351-1.389-.857-2.784-1.561-4.107-2.477-1.668-1.155-3.248-2.493-4.867-3.679a19.925,19.925,0,0,1-2.738-2.177c-0.066.056-.086,0.095-0.152,0.15-0.127-.969-2.677-2.015-2.89-3H48.9a5.383,5.383,0,0,0,1.217,1.051l0.532,0.6c0.788,0.589,1.487,1.215,2.281,1.8,1.12,0.828,2.136,1.879,3.27,2.7,2.332,1.693,4.713,3.191,7.224,4.73,1.162,0.712,2.416,1.466,3.65,2.1a4.243,4.243,0,0,0,1.293.526c0.131-.059.14-0.2,0.228-0.075,0.17,0.12.16,0.337,0.3,0.45a14.948,14.948,0,0,0,3.042,1.2V23.441h0.076l0.076-1.276c0.192-.029.12,0.044,0.152-0.225,0.24-.411-0.228-0.572-0.3-0.9l0.152-.676a1.206,1.206,0,0,1,.38-0.075,2.612,2.612,0,0,1,.3,1.426c0.085,0.175-.166.911,0.228,1.126V22.766a1.849,1.849,0,0,0,.076-0.826,3.5,3.5,0,0,1,.608-0.075l0.076,0.225h1.369a0.36,0.36,0,0,1,.076-0.225V22.09a10.315,10.315,0,0,0,1.521,0l0.076-.225h0.076c0.184,0,.063.155,0.152,0.225a1.2,1.2,0,0,1,.684,0,1.333,1.333,0,0,1,1.065-.751,3.5,3.5,0,0,1,1.141-.15,23.18,23.18,0,0,1-.228,4.354c-0.118.537,0.021,1.284-.076,1.727v1.351a2.608,2.608,0,0,1-.989,2.177c-0.867.571-3.955,0.375-5.4,0.375l-13.384.15a27.16,27.16,0,0,1-4.867.075l-7.6.15H43.422a18.187,18.187,0,0,1-3.27.075l-5.1.075H32.4a23.467,23.467,0,0,1-4.259.075H26.92a20.291,20.291,0,0,1-3.65.075l-5.856.075L12.243,32H10.114a20.981,20.981,0,0,0-3.726-.9v0.225H6.008c-0.1-.484-0.312-0.487-0.913-0.45v0.075a2.017,2.017,0,0,1,.076.9,8.728,8.728,0,0,1-2.281.075,2.39,2.39,0,0,1-.913-0.751,3.012,3.012,0,0,1,.76-3,3.583,3.583,0,0,0,.989-0.751V26.895a5.953,5.953,0,0,1-2.89-4.58H0.913a2,2,0,0,0,.3.976,0.833,0.833,0,0,0,.456.075,1.7,1.7,0,0,0,.684.075v-0.3H1.217V22.916H2.433l-0.076-.45c-0.178.005-.131,0.067-0.3-0.075,0.517-.008.659,0,1.217,0v0.075H3.118a2.659,2.659,0,0,0-.684.075,0.8,0.8,0,0,1,.076.45l3.27,0.15v-0.6H5.932l-0.076.225c0.172,0.142.282-.09,0.38,0.15,0.052,0.129.039,0.209,0.076,0.3a0.261,0.261,0,0,0,.152-0.075,0.269,0.269,0,0,0,.076-0.15c-0.192-.11-0.117-0.033-0.152-0.3a0.5,0.5,0,0,1-.3-0.075,5.57,5.57,0,0,1,.76-0.15A2.03,2.03,0,0,1,7,23.216H7.681a25.09,25.09,0,0,0,3.042.15v-0.45H10.646V22.841H10.8c-0.027,1.407.45,1.7,0.989,2.628h0.152v-0.15a0.865,0.865,0,0,1-.076-0.676h0.228l0.228-1.276L13,23.291a1.164,1.164,0,0,1,.076.375H12.928a0.517,0.517,0,0,0-.3-0.075,1.6,1.6,0,0,0-.228,1.051c0.748-.061,1.025-0.259,1.749-0.375a0.285,0.285,0,0,0,.152.225V23.141c0.086-.14.063-0.537,0.152-0.676a1.152,1.152,0,0,0,.076.6,1.989,1.989,0,0,1,.076-0.9,5.379,5.379,0,0,1,1.977-.075,3.928,3.928,0,0,1,.152-0.6H15.894a1.866,1.866,0,0,0-.836-0.075v-0.15h0.228a2.717,2.717,0,0,0,1.521-.075c-0.859,0-1.089-.009-1.749,0v-0.15c0.769,0,1.114,0,1.825,0a0.944,0.944,0,0,1,.761-0.826,2.994,2.994,0,0,1,2.053.225h0.076c0.033,0.488.075,1.066,0.076,1.652h1.141c0.037-1.105.293-1.994,0.3-3.228h0.228q0.038,1.539.076,3.078a8.173,8.173,0,0,1,0,1.2,7.931,7.931,0,0,1-1.293.3c0.016,0.557-.065,1.8-0.076,2.553h1.141V25.769h0.608V25.694h0.076a0.961,0.961,0,0,1,.076-0.526,4.672,4.672,0,0,1,1.749-.075v0.075a0.275,0.275,0,0,0,.076.45,2.093,2.093,0,0,0,.913.075,2.036,2.036,0,0,1,0-1.051,1.715,1.715,0,0,0,.228,1.051c0.631,0.357,1.392-.366,2.053-0.075a1.337,1.337,0,0,1,.228.375h2.129l0.076-1.051a0.371,0.371,0,0,1-.228-0.075H29.278V24.793h0.989v0.075H29.658v0.075h0.076a2.24,2.24,0,0,0,.076,1.051h1.217a1.427,1.427,0,0,1,.684-0.075V24.493h0.532a9.531,9.531,0,0,0,.532.826,4.186,4.186,0,0,1,.076-1.351,0.893,0.893,0,0,0-.456-0.225V22.766l0.989-.751a4.3,4.3,0,0,0,1.065-.15,2.339,2.339,0,0,1,.608-0.6,6.389,6.389,0,0,0,.761,0v2.477H35.589a0.79,0.79,0,0,0-.152.375,0.811,0.811,0,0,1,0,.375,1.1,1.1,0,0,0,.38-0.075v0.3a0.957,0.957,0,0,0-.38,1.126,1.085,1.085,0,0,0,.3.075c0.227-.086.911-0.089,1.217-0.225V25.469a2.343,2.343,0,0,0,.532-0.075,2.3,2.3,0,0,0,.532-1.126,2.474,2.474,0,0,0-.456-0.3,4.008,4.008,0,0,1-.912-0.15,2.685,2.685,0,0,1-.076-1.126,1,1,0,0,1,.532.075H36.654v0.45a2.619,2.619,0,0,1,.608.075v-0.45a9.7,9.7,0,0,0,0-1.5h0.684V21.114a1.142,1.142,0,0,0,.684-0.826h0.3a10,10,0,0,1,2.205-2.027l1.217-1.276a19.908,19.908,0,0,0,1.673-1.426V12.931a0.8,0.8,0,0,1-.076-0.45,1.085,1.085,0,0,1,.3-0.075,1.6,1.6,0,0,1,.076.525,0.982,0.982,0,0,0-.076.526h0.076a0.676,0.676,0,0,1,.532-0.225c0.021,0.194-.035.133,0.3,0.15a0.841,0.841,0,0,1,.456,0c0.029-.2-0.056-0.1.152-0.15,0.065,0.049.239,0.1,0.3,0.15,0.282,0.442.085,3.087,0.076,3.829a4.232,4.232,0,0,1,.456-0.15v0.15h0.456a21.982,21.982,0,0,1,.837-3.829l0.076-1.5c0.39-1.71.24-3.445,0.76-4.88H48.9V8.051c-0.425.2-.232,2.244-0.228,3.078C48.681,13.468,48.719,15.753,48.669,17.961ZM47.833,9.327h0.152l-0.076.15a1.972,1.972,0,0,1-.38.15V9.553H47.6A2.634,2.634,0,0,1,47.833,9.327ZM47,9.7c0.229,0.171.165,0.1,0.152,0.375a1.378,1.378,0,0,1-.38.225,0.739,0.739,0,0,0-.152-0.45A1.924,1.924,0,0,0,47,9.7Zm3.878,0.976a0.217,0.217,0,0,1,0,.3v-0.3Zm-0.076.375a0.38,0.38,0,0,1,.076.225H50.8V11.054Zm-0.076.3a0.217,0.217,0,0,1,0,.3v-0.3Zm-2.51.075a0.622,0.622,0,0,0,.076.375A0.622,0.622,0,0,0,48.213,11.429Zm3.346,0a0.437,0.437,0,0,1-.076.526Zm-0.913.225a0.217,0.217,0,0,1,0,.3v-0.3Zm-0.076.3a0.217,0.217,0,0,1,0,.3v-0.3Zm0.836,0a0.379,0.379,0,0,1,.076.225H51.407V11.955Zm-0.076.225a0.379,0.379,0,0,1,.076.225H51.331V12.18Zm-0.837.15a0.217,0.217,0,0,1,0,.3v-0.3Zm0.76,0.075a0.38,0.38,0,0,1,.076.225H51.255V12.405Zm-0.837.225a0.217,0.217,0,0,1,0,.3v-0.3Zm0.761,0a0.38,0.38,0,0,1,.076.225H51.179V12.631ZM47.6,17.961h0.837V14.282a3.749,3.749,0,0,0-.076-1.426C48.264,14.607,47.64,16.032,47.6,17.961Zm3.5-5.105a0.38,0.38,0,0,1,.076.225H51.1V12.856Zm-0.761.075a0.217,0.217,0,0,1,0,.3v-0.3Zm0.684,0.15a0.38,0.38,0,0,1,.076.225H51.027V13.081Zm-0.76.225a0.38,0.38,0,0,1,.076.225H50.266V13.306Zm0.684,0a0.38,0.38,0,0,1,.076.225H50.951V13.306Zm-6.692.225a2.881,2.881,0,0,0,.076,1.2A2.881,2.881,0,0,0,44.259,13.532Zm6.616,0a0.38,0.38,0,0,1,.076.225H50.875V13.532Zm-1.9.075c0.247,0.062.116-.037,0.228,0.15a0.414,0.414,0,0,0,0,.3H48.973v-0.45Zm1.217,0a0.217,0.217,0,0,1,0,.3v-0.3Zm0.608,0.15a0.38,0.38,0,0,1,.076.225H50.8V13.757Zm-0.684.15a0.217,0.217,0,0,1,0,.3v-0.3Zm0.608,0.075a0.217,0.217,0,0,1,0,.3v-0.3Zm-0.684.3a0.38,0.38,0,0,1,.076.225H50.038V14.282Zm0.608,0a0.38,0.38,0,0,1,.076.225H50.646V14.282Zm-0.076.225a0.38,0.38,0,0,1,.076.225H50.57V14.508Zm-0.608.075a0.217,0.217,0,0,1,0,.3v-0.3Zm0.532,0.15a0.38,0.38,0,0,1,.076.225H50.494V14.733Zm-0.608.15a0.217,0.217,0,0,1,0,.3v-0.3Zm-5.627.075a0.48,0.48,0,0,0,.076.3A0.481,0.481,0,0,0,44.259,14.958Zm6.16,0a0.379,0.379,0,0,1,.076.225H50.418V14.958Zm-0.608.225a0.217,0.217,0,0,1,0,.3v-0.3Zm0.532,0a0.379,0.379,0,0,1,.076.225H50.342V15.183Zm-0.076.225a0.38,0.38,0,0,1,.076.225H50.266V15.408Zm-1.293.075H49.2a1.531,1.531,0,0,0,0,.45H48.973v-0.45Zm-4.715.075v0.15h0.076A0.257,0.257,0,0,0,44.259,15.559Zm5.475,0a0.379,0.379,0,0,1,.076.225H49.734V15.559Zm0.456,0.075a0.38,0.38,0,0,1,.076.225H50.19V15.634Zm-8.821,7.132c0-.578-0.13-0.756-0.152-1.276l0.228-.075a3,3,0,0,1,1.293,0v0.751a1.174,1.174,0,0,0-.076.6H43.27a4.638,4.638,0,0,1,.076-0.976l0.684-.375V15.859H43.954a8.11,8.11,0,0,1-1.749,1.577l-1.141,1.2a5.106,5.106,0,0,0-1.521,1.426c0.414,0,.343.6,0.3,1.2h0.076v0.075a1,1,0,0,1,.532.075c-0.057.23,0.079,0.149,0.152,0.3a0.4,0.4,0,0,1-.152.375l0.152,0.676h0.76Zm2.89-6.907v0.15h0.076v-0.15H44.259Zm5.4,0a0.217,0.217,0,0,1,0,.3v-0.3Zm0.456,0a0.38,0.38,0,0,1,.076.225H50.114V15.859Zm-5.855.225a1.152,1.152,0,0,0,.076.6A1.151,1.151,0,0,0,44.259,16.084Zm5.779,0a0.38,0.38,0,0,1,.076.225H50.038V16.084Zm-0.456.075a0.217,0.217,0,0,1,0,.3v-0.3Zm0.38,0.15a0.436,0.436,0,0,1-.076.526Zm-0.456.15a0.217,0.217,0,0,1,0,.3v-0.3Zm-5.247.3a0.961,0.961,0,0,0,.076.526A0.961,0.961,0,0,0,44.259,16.76Zm5.171,0.075a0.217,0.217,0,0,1,0,.3v-0.3Zm0.38,0a0.38,0.38,0,0,1,.076.225H49.81V16.835Zm-0.076.225a0.379,0.379,0,0,1,.076.225H49.734V17.06Zm-0.38.075a0.217,0.217,0,0,1,0,.3v-0.3Zm0.3,0.15a0.379,0.379,0,0,1,.076.225H49.658V17.285Zm-5.4.15a2.656,2.656,0,0,0,.076,1.126A2.656,2.656,0,0,0,44.259,17.435Zm5.019,0a0.217,0.217,0,0,1,0,.3v-0.3Zm0.3,0.075a0.38,0.38,0,0,1,.076.225H49.582V17.511ZM0,18.036a0.38,0.38,0,0,1,.076.225H0V18.036Zm0.076,0.3a0.217,0.217,0,0,1,0,.3v-0.3Zm0.076,0.375a0.217,0.217,0,0,1,0,.3v-0.3Zm44.107,0a2.655,2.655,0,0,0,.076,1.126A2.656,2.656,0,0,0,44.259,18.712Zm2.053,0.375c0.131,0.066.1,0.067,0.228,0H46.312Zm-46.084.075a0.217,0.217,0,0,1,0,.3v-0.3ZM46.16,20.288h0.228l0.152-.976-0.38-.075v1.051Zm-22.205-.45H23.346l-0.076-.225a2.236,2.236,0,0,0,.456-0.3h0.152v0.15a0.984,0.984,0,0,1,.152.676H23.954v-0.3Zm-23.65-.3a0.217,0.217,0,0,1,0,.3v-0.3ZM0.38,19.913a0.217,0.217,0,0,1,0,.3v-0.3Zm43.878,0.075a2.881,2.881,0,0,0,.076,1.2A2.881,2.881,0,0,0,44.259,19.988Zm35.513,0a0.27,0.27,0,0,1,.076.15H79.772v-0.15ZM39.24,21.339h0.3a1.416,1.416,0,0,0-.228-1.2,0.672,0.672,0,0,1-.228.225A1.936,1.936,0,0,1,39.24,21.339ZM24.03,20.213a0.3,0.3,0,0,1,0,.375V20.213Zm-23.574.075a0.217,0.217,0,0,1,0,.3v-0.3Zm45.7,0.075a4.739,4.739,0,0,1,0,.751h0.152a0.5,0.5,0,0,0,.456,0,1.169,1.169,0,0,1-.228-0.751H46.16Zm-22.053.3a0.3,0.3,0,0,1,0,.375V20.664Zm-23.574.075a0.217,0.217,0,0,1,0,.3v-0.3Zm38.023,0.15a1.844,1.844,0,0,0-.38.45h0.608v-0.15A2.026,2.026,0,0,1,38.555,20.889Zm-37.947.225a0.217,0.217,0,0,1,0,.3v-0.3Zm23.574,0a0.3,0.3,0,0,1,0,.375V21.114ZM43.5,22.691h0.3V22.315h0.076V22.24a0.811,0.811,0,0,0,.456-0.075A1,1,0,0,1,43.8,22.09h0.076a0.715,0.715,0,0,0,.456-0.826H44.259a1.079,1.079,0,0,1-.761.751v0.676Zm2.662-1.426v0.6l0.608,0.3V22.09a3.6,3.6,0,0,1,0-.826H46.16ZM0.684,21.49a0.217,0.217,0,0,1,0,.3v-0.3Zm76.806,0a0.642,0.642,0,0,1,.38.075A0.644,0.644,0,0,1,77.491,21.49Zm1.673,0a0.36,0.36,0,0,0,.076.225V21.49H79.164Zm-54.9.075a0.3,0.3,0,0,1,0,.375V21.565Zm52.4,0a0.643,0.643,0,0,1,.38.075A0.643,0.643,0,0,1,76.654,21.565Zm-0.837.075a0.644,0.644,0,0,1,.38.075A0.642,0.642,0,0,1,75.818,21.64Zm-0.76.075a0.644,0.644,0,0,1,.38.075A0.644,0.644,0,0,1,75.057,21.715Zm-0.837.075a0.643,0.643,0,0,1,.38.075A0.644,0.644,0,0,1,74.221,21.79Zm-73.46.075a0.217,0.217,0,0,1,0,.3v-0.3Zm72.167,0H73.08V21.94A0.261,0.261,0,0,1,72.928,21.865Zm-48.593.15a0.3,0.3,0,0,1,0,.375V22.015Zm17.11,0.075v0.15h0.3V22.165H41.673V22.09H41.445Zm0.837,0c0.021,0.194-.035.133,0.3,0.15V22.165H42.51V22.09H42.281Zm3.878,0.075a0.407,0.407,0,0,0,.456,0H46.16Zm28.061,0.15h0.228v0.3c0.527,0.009,1.846-.106,2.053-0.45H76.2c-0.438.247-1.738-.151-2.433,0.075v0.075a1.453,1.453,0,0,1,.456.3v-0.3Zm-73.08,0a0.811,0.811,0,0,1,.456.075A0.811,0.811,0,0,1,1.141,22.315Zm40.3,0v0.45h1.141V22.39A4.119,4.119,0,0,0,41.445,22.315ZM3.5,22.466a1.4,1.4,0,0,1,.684.075A1.4,1.4,0,0,1,3.5,22.466Zm20.912,0a0.3,0.3,0,0,1,0,.375V22.466Zm44.411,0v1.652h0.152a19.838,19.838,0,0,1,2.662-.375V23.667A12.584,12.584,0,0,1,68.821,22.466Zm-64.106.075a1.619,1.619,0,0,1,.76.075A1.618,1.618,0,0,1,4.715,22.541ZM7.3,22.691a1,1,0,0,1,.532.075A1,1,0,0,1,7.3,22.691Zm0.608,0H8.061v0.075H7.909V22.691Zm0.837,0.075a1.194,1.194,0,0,1,.608.075A1.194,1.194,0,0,1,8.745,22.766Zm-1.9.075a0.48,0.48,0,0,0,.076.3A0.481,0.481,0,0,0,6.844,22.841Zm3.194,0a1,1,0,0,1,.532.075A1,1,0,0,1,10.038,22.841Zm-3.954.075a0.36,0.36,0,0,0,.076.225A0.36,0.36,0,0,0,6.084,22.916Zm18.4,0a0.3,0.3,0,0,1,0,.375V22.916Zm22.129,0.075c0.126,0.084.081,0.133,0.152,0H46.616ZM2.51,23.216c0.121,0.205.068,0.189,0.38,0.225,0.3,0.125.611-.283,0.913,0V23.366H3.878a0.275,0.275,0,0,0-.152-0.075A3.021,3.021,0,0,0,2.51,23.216Zm11.863,0v1.426h0.989c0.106-.289.07-0.4,0.456-0.45a1.221,1.221,0,0,0-.152-0.751A2.867,2.867,0,0,0,14.373,23.216Zm-8.821.15-1.6-.075v0.075a0.638,0.638,0,0,0,.228.15c0.168,0.066.993,0.081,1.369,0.15v-0.3Zm31.1-.075v0.375a1.931,1.931,0,0,0,.608.075V23.366Zm-30.418.375h0.3V23.441l-0.3-.075v0.3Zm18.327-.3a0.3,0.3,0,0,1,0,.375V23.366Zm22.053,0,0.076,0.225h0.076V23.366H46.616Zm-40.76.075a0.36,0.36,0,0,0,.076.225V23.441H5.856Zm0.989,0v0.3c0.529,0,1.008.042,1.445,0.075v-0.3Zm54.525,0h0.152v0.075A0.261,0.261,0,0,1,61.369,23.441Zm-51.331.45v-0.3H9.43v0.15H9.354c-0.075.076,0.075,0.074,0.076,0.075A1.217,1.217,0,0,0,10.038,23.892Zm14.6-.075a0.3,0.3,0,0,1,0,.375V23.817Zm38.707,0.15a0.269,0.269,0,0,1,.076.15H63.346v-0.15Zm-10.038.676h1.673a2.407,2.407,0,0,1,.152-0.45,0.36,0.36,0,0,0,.076.225V24.192a2.532,2.532,0,0,0-.76-0.075,7.161,7.161,0,0,1-1.141.3v0.225Zm10.722-.45a1.774,1.774,0,0,1-.532.15v0.075h0.38a0.833,0.833,0,0,1,.456-0.075V24.267H64.259V24.192H64.03Zm-39.316.075a0.3,0.3,0,0,1,0,.375V24.267ZM65.7,24.718V24.493l-1.065.075v0.075a0.27,0.27,0,0,1,.076.15h0.152A1.866,1.866,0,0,1,65.7,24.718Zm-1.521.075V24.568a9.064,9.064,0,0,0-2.053.15v0.075h0.076A4.661,4.661,0,0,0,64.183,24.793Zm0.152-.15v0.15h0.076A0.256,0.256,0,0,0,64.335,24.643Zm-4.639.075c-0.612.372-2.647-.1-3.422,0.15v0.15h2.357c0.733-.423,3.041.263,3.422-0.3H59.7Zm-8.973.375V24.868a2.111,2.111,0,0,0-.684.075,0.275,0.275,0,0,0,.152.075A1.018,1.018,0,0,0,50.722,25.093Zm2.586-.225v0.15c0.459,0.018,1.564.134,1.749-.15H53.308ZM65.78,24.943a2.975,2.975,0,0,0-1.065.075,0.257,0.257,0,0,0,.076.15,1.867,1.867,0,0,0,.837.075,0.275,0.275,0,0,1,.152-0.075V24.943Zm-3.65.15v0.3l1.9-.075a1.125,1.125,0,0,0,.152-0.3H63.65Zm2.129-.075c0.063,0.244-.037.115,0.152,0.225V25.018H64.259Zm0.228,0c0.063,0.244-.037.115,0.152,0.225V25.018H64.487Zm-2.509.075-0.076.3h0.152A0.48,0.48,0,0,0,61.977,25.093Zm-2.814.075c-0.03.17-.07,0.081,0,0.225a4.332,4.332,0,0,0,1.9,0v-0.15H60.989V25.168H59.164Zm-4.106.375v-0.3a5.644,5.644,0,0,0-1.825.075l0.076,0.225h1.749Zm1.217-.3v0.3a2.464,2.464,0,0,0,1.293-.15,0.27,0.27,0,0,0,.076-0.15H56.274Zm-33.992.075a0.961,0.961,0,0,0,.076.526A0.961,0.961,0,0,0,22.281,25.318Zm27.833,0v0.15l0.76,0.075,0.076-.225H50.114Zm5.019,0v0.15h0.076A0.256,0.256,0,0,0,55.133,25.318Zm-42.662.225v0.15h0.076A0.256,0.256,0,0,0,12.472,25.544Zm12.7,0.075h0.152v0.075H25.171V25.619ZM3.726,28.4h0.3V28.021A0.37,0.37,0,0,0,3.8,28.1,0.5,0.5,0,0,0,3.726,28.4Zm0,0.375v0.751H3.8c0.143-.065.056-0.036,0.228,0V28.772h-0.3Zm0,0.976V30.5H3.8c0.143-.064.056-0.036,0.228,0V29.9Z" transform="translate(0 0.5)"/>
</svg>
