<svg xmlns="http://www.w3.org/2000/svg" width="40" height="40" viewBox="0 0 40 40">
  <defs>
    <style>
      .cls-1 {
        fill: #fff;
        fill-rule: evenodd;
      }
    </style>
  </defs>
  <path id="Color_Fill_1" data-name="Color Fill 1" class="cls-1" d="M19.364,16.1l2.445,0.048v0.145H19.364v0.819c2.929,0,6.9.142,8.9-.048v0.385c-2.663,0-5.869,0-8.9,0a0.72,0.72,0,0,0,.1.289c0.111-.019.053-0.044,0.147,0,0.083,0.136.012,0.492,0.1,0.626V17.93h0.2a8.436,8.436,0,0,0,.1,1.059h0.489V19.47c0.3,0.074,1.192.465,1.223,0.433a0.516,0.516,0,0,1,.293-0.1,4.186,4.186,0,0,0,.342,1.252,1.047,1.047,0,0,1,.2-0.193v0.144h0.2a2.225,2.225,0,0,0,.2-0.433c0.666,0,1.2-.011,1.858,0a0.49,0.49,0,0,0,.147.241,13.864,13.864,0,0,1,2.4-.048l0.049-.241h0.685a1.647,1.647,0,0,1,.685,0v0.482a4.787,4.787,0,0,1,1.125.337s0.046-.088.1-0.048v0.241h0.147c0.056-.2.086-0.2,0.342-0.193a1.512,1.512,0,0,0,.489.145,0.329,0.329,0,0,0,.147.241c0.265,0.189.383-.03,0.636-0.1a0.368,0.368,0,0,0,0,.193,0.867,0.867,0,0,0,.587.193,0.863,0.863,0,0,0,.147-0.241A7.828,7.828,0,0,1,30.66,21.2c-0.272-.1-0.519-0.027-0.587-0.337h0.049V20.819l2.445,0.819c0.1-.03.153-0.164,0.245-0.193a0.388,0.388,0,0,1,.391.144c0.015,0.005.562-.051,0.733-0.048a1.382,1.382,0,0,1,.1-0.385,4.831,4.831,0,0,0,.831-0.289,4.676,4.676,0,0,1,0-1.541,1.776,1.776,0,0,1,0,.722h0.1V19.807H35.11c0.026,0.577,0,1.687,0,2.552H35.061a0.639,0.639,0,0,0-.587-0.145v0.048a2.729,2.729,0,0,1,.978.289c0.02-.172-0.023-0.121.1-0.193a6.888,6.888,0,0,1,.88.193,1.427,1.427,0,0,0,.2.192,1,1,0,0,1,.391.1c0.043-.076,0-0.132.147-0.1a8.231,8.231,0,0,1,1.614.722c0.439,0.2,1.168.046,1.174,0.674a0.173,0.173,0,0,1,.049.1c-0.632.487-.948,1.385-1.614,1.83a0.474,0.474,0,0,1,0,.385c0.12,0.165.48,0.371,0.293,0.674a1.96,1.96,0,0,1-.2.1,5.3,5.3,0,0,1,0,.626,0.168,0.168,0,0,1-.1-0.048,1.432,1.432,0,0,1-.049-0.626,1.469,1.469,0,0,0-.685-0.193,9.766,9.766,0,0,0-1.076,1.3l-0.293.241v0.241a3.191,3.191,0,0,1-.44.915,6.345,6.345,0,0,1-1.565,1.059q-1.163.762-2.347,1.541a5.61,5.61,0,0,1-.733.53,7.484,7.484,0,0,1-2.445.145H10.611L9.144,32.9a4.867,4.867,0,0,1-1.222-.626c-0.663-.4-1.361-0.72-2-1.107-0.929-.559-2.26-0.882-2.738-1.878a0.324,0.324,0,0,1-.244.144,0.177,0.177,0,0,0-.1-0.048c0.039-.262-0.019-0.453-0.44-0.433V28.763H2.3A0.892,0.892,0,0,1,1.614,29,0.548,0.548,0,0,1,1.32,28.57a0.6,0.6,0,0,1,.049-0.289c-0.067-.082-0.074.022-0.1-0.145a1.023,1.023,0,0,1,.293-0.289A0.6,0.6,0,0,1,2.054,27.7V27.9H2.1a0.579,0.579,0,0,1,.244-0.1V27.559a2.567,2.567,0,0,1-.293-0.867H2a0.352,0.352,0,0,1-.2.1v-0.1c-0.179-.258-0.145-0.717-0.342-0.963a4.958,4.958,0,0,0-.978-0.241A4.187,4.187,0,0,1,.44,23.948,1.836,1.836,0,0,1,.978,23.9a6.147,6.147,0,0,0-.342-1.2H0.587a0.559,0.559,0,0,1-.538.241L0,21.493H0.978V21.444H1.027a0.55,0.55,0,0,1,.1-0.481c-0.243.01-.318,0.027-0.391-0.145a0.726,0.726,0,0,1-.147-0.385,1.085,1.085,0,0,0,.391-0.385,2.623,2.623,0,0,0,1.369-.481,1.4,1.4,0,0,1,.489-0.145A0.832,0.832,0,0,1,3.081,20a0.375,0.375,0,0,0-.147.144,1.2,1.2,0,0,0,.342.1,2.534,2.534,0,0,1,.929-0.385c0.136,0.317,1.168.16,1.663,0.144l0.049-.193H6.064V20h0.1a0.428,0.428,0,0,0,.245.048c0.055-.2.086-0.2,0.342-0.193a8.216,8.216,0,0,0,1.125.048,0.3,0.3,0,0,1,.2-0.1V20c0.478,0,.713.087,1.125,0.1A0.6,0.6,0,0,1,9.242,19.9a1.112,1.112,0,0,0,.538-0.1V20.1a0.31,0.31,0,0,1,.244.1c0.005-.339.146-0.312,0.489-0.289a0.95,0.95,0,0,1,.538-0.048L11.1,20h0.587V19.856a0.336,0.336,0,0,0,.2-0.1c-0.681-.455-0.09-1.262-0.489-1.83a0.252,0.252,0,0,1-.147.048v0.144H10.66c-0.019-.351-0.139-0.547-0.147-0.963l-0.293-.048,0.049,0.722h-0.2c0-.5,0-0.724,0-1.2H9.633a0.308,0.308,0,0,0-.049-0.193,0.231,0.231,0,0,1-.049.144,0.6,0.6,0,0,0-.049-0.193H9.633V15.811a3.261,3.261,0,0,1,.88-0.048,1.945,1.945,0,0,1,.049.578L11.1,16.389V16.2h0.636V16.1a0.5,0.5,0,0,0,.1-0.289h-0.1v0.048H11.687V15.811H11.638V15.763h0.049V15.715a0.4,0.4,0,0,0,.2,0c0.04-.156-0.024-0.074.1-0.144l-0.049.193a0.185,0.185,0,0,1,.2.144c1.384-.692,3.246-0.015,4.939,0,0.009-.418.08-0.2,0.2-0.385,0.077-.121.087-0.579,0.147-0.722a2.647,2.647,0,0,1,1.369-.1v1.348h0.1a0.785,0.785,0,0,0,.391.048V7h0.1V7.048c-0.073.119,0,2.042,0,2.456v6.6Zm-2.152-.53c-0.072.168-.117,0.248,0.049,0.385V16h0.049V15.811C17.277,15.763,17.248,15.619,17.213,15.57Zm-2.1.722V16.1a0.169,0.169,0,0,0,.1-0.048,0.985,0.985,0,0,0,.831,0l-1.956-.289v0.144A1.03,1.03,0,0,0,15.11,16.293Zm6.259-.1a0.413,0.413,0,0,0,.391,0H21.369Zm-7.09.144c0.081,0.054.052,0.085,0.1,0h-0.1Zm4.6,0.433H18.631V16.582h-0.1a0.252,0.252,0,0,0-.147-0.048c-0.025.213-.069,0.173-0.1,0.385h-0.44v0.048h0.1a2.53,2.53,0,0,0,1.32.144v-0.77H18.778v0.048A0.344,0.344,0,0,1,18.875,16.774Zm-0.636-.289h-0.2v0.1a0.743,0.743,0,0,0,.2.1V16.485Zm-2.347.193v0.1h0.049v-0.1H15.892Zm0.147,0v0.144a0.543,0.543,0,0,0-.245.1h0.049a0.537,0.537,0,0,0,.293.048c0.065-.11.075-0.056,0.293-0.048V16.726H16.284a0.23,0.23,0,0,1-.049.145V16.678h-0.2Zm0,0.144a0.173,0.173,0,0,1,.049.1H16.039v-0.1Zm1.32,0.1a0.413,0.413,0,0,0,.391,0H17.359Zm-1.467.144a0.145,0.145,0,0,0,.2,0h-0.2Zm11.1,0.144c0.041,0.156-.024.074,0.1,0.145V17.207h-0.1Zm0.2,0c0.006,0.061-.1.09,0,0.145a0.293,0.293,0,0,0,.1-0.145h-0.1Zm0.2,0.048a0.178,0.178,0,0,0,.1.048A0.177,0.177,0,0,0,27.384,17.256Zm0.147,0a0.178,0.178,0,0,0,.1.048A0.177,0.177,0,0,0,27.531,17.256Zm0.489,0a0.178,0.178,0,0,0,.1.048A0.177,0.177,0,0,0,28.02,17.256Zm-9.829.192a1.364,1.364,0,0,0,.587.145,0.3,0.3,0,0,1,.1-0.1V17.448H18.191Zm1.027,0H18.973a0.723,0.723,0,0,0-.1.193h0.293v0.048h0.049V17.448Zm-1.76.1-0.049.145h0.1v0.048h0.049l0.049-.193H17.457Zm-7.335.048a0.177,0.177,0,0,0,.1.048A0.178,0.178,0,0,0,10.122,17.593Zm1.614,0.337a0.231,0.231,0,0,0,.049.145V18.026h0.049V17.978Zm7.873,0.578c0.041,0.156-.024.074,0.1,0.145V18.6C19.664,18.568,19.651,18.543,19.609,18.507Zm-7.579.337v0.241c0.225,0.1.283,0.287,0.489,0.385V19.422a0.881,0.881,0,0,1-.049-0.433A1.237,1.237,0,0,1,12.029,18.844ZM6.5,19.952A0.178,0.178,0,0,0,6.6,20,0.177,0.177,0,0,0,6.5,19.952Zm0.147,0c0.081,0.054.052,0.085,0.1,0H6.65Zm28.215,0.193c0.011,0.2,0,.376,0,0.674h0.1V20.144h-0.1Zm-32.225.048a0.352,0.352,0,0,1-.2.1v0.048H2.738v-0.1Zm25.624,0.241h0.1v0.048h-0.1V20.433Zm0.342,0a0.32,0.32,0,0,1,.2.048A0.319,0.319,0,0,1,28.606,20.433Zm-26.357.048c0.028,0.182.153,0.175,0.342,0H2.249Zm-0.342.048v0.1a0.626,0.626,0,0,0,.2-0.048V20.53h-0.2ZM28.46,20.578v0.1h0.049V20.626h0.049A0.177,0.177,0,0,0,28.46,20.578Zm-26.846.1c0.04,0.156-.024.073,0.1,0.144V20.674h-0.1Zm-0.831.144c-0.016.067,0.069,0.07,0.1,0.1C0.914,20.864.8,20.833,0.782,20.819ZM30.9,21.541a2.177,2.177,0,0,0-.636-0.1,0.244,0.244,0,0,0-.049.144h0.049v0.048a2.982,2.982,0,0,1,.636.048V21.541Zm1.907,0.1a0.442,0.442,0,0,0,.293.145v-0.1A0.906,0.906,0,0,0,32.812,21.637Zm-0.147.241a0.507,0.507,0,0,0-.1.241h0.049v0.048a0.56,0.56,0,0,0,.244,0c0.055-.071.1-0.147,0.049-0.193A0.579,0.579,0,0,0,32.665,21.878Zm0.391,0.193v0.193h0.049V22.215a0.243,0.243,0,0,0,.049-0.144h-0.1Zm1.858,0v0.048H34.866c-0.094.037,0.1,0.048,0.1,0.048A0.164,0.164,0,0,0,34.914,22.07Zm-1.565.193v0.1H33.4A0.164,0.164,0,0,0,33.35,22.263Zm0.44,0.1v0.1C33.868,22.4,33.85,22.435,33.79,22.359Zm0.147,0.048v0.1h0.049A0.164,0.164,0,0,0,33.936,22.407Zm0.147,0.048a1.48,1.48,0,0,0,.831.241,0.173,0.173,0,0,0,.049-0.1C34.648,22.533,34.41,22.516,34.083,22.456ZM35.208,22.7l0.049,0.144a0.669,0.669,0,0,0,.44,0Zm1.027,0.1c-0.009.152,0.011,0.04,0.147,0.144a0.319,0.319,0,0,0-.2.048h0.049a1.474,1.474,0,0,0,.734.144c0.112,0.039.152,0.146,0.293,0.193a0.3,0.3,0,0,1,.1-0.1,0.177,0.177,0,0,0-.1-0.048Zm1.223,0.626a0.627,0.627,0,0,1-.2-0.048v0.048h0.049a12.988,12.988,0,0,0,2.4.674V23.948c-0.832-.093-1.479-0.6-2.3-0.722v0.048A0.243,0.243,0,0,1,37.457,23.419Zm-36.822.674v1.252A1.626,1.626,0,0,0,1.32,25.3H0.782a2.7,2.7,0,0,1,.1-1.2H0.636Zm1.076,1.685c0,0.13-.065.078,0.1,0.144v-0.1Zm0.244,2.359a0.916,0.916,0,0,0-.44.145,0.607,0.607,0,0,0,.147.289v0.048H1.711A1.408,1.408,0,0,1,1.956,28.137Zm-0.1.289v0.193H1.907V28.57a0.244,0.244,0,0,0,.049-0.145h-0.1Zm5.77,1.83a0.985,0.985,0,0,1-.587-0.241,5.118,5.118,0,0,0-1.467-.241v0.048H5.623a9.811,9.811,0,0,0,2.054.963V30.737A1.013,1.013,0,0,1,7.628,30.256Zm4.743-.145a2.311,2.311,0,0,1-.587,1.83h1.467V31.893a1.789,1.789,0,0,1-.538-1.782H12.372Zm19.9,0.145v0.385h0.1a1.958,1.958,0,0,1,.782-0.433V30.159C32.773,30.162,32.667,30.25,32.274,30.256Zm-14.914,0a2.367,2.367,0,0,1-.587,1.685H18.24V31.893a1.825,1.825,0,0,1-.587-1.637H17.359Zm4.988,0a2.671,2.671,0,0,1-.587,1.685h1.467V31.893a1.7,1.7,0,0,1-.587-1.637H22.347Zm5.183,0H27.286v0.1c0.3,0.462-.428,1.363-0.587,1.589h1.418V31.893A1.866,1.866,0,0,1,27.531,30.256Z" transform="translate(0 0.016)"/>
</svg>
