<svg xmlns="http://www.w3.org/2000/svg" width="40" height="40" viewBox="0 0 40 40">
  <defs>
    <style>
      .cls-1 {
        fill: #fff;
        fill-rule: evenodd;
      }
    </style>
  </defs>
  <path id="fr_amx_32_ico" class="cls-1" d="M15.613,16.531c0.187,0,.252,0,0.423,0v0.635c0.663,0,1.212.043,1.915,0.045V17.3l-1.693.023v0.023a0.091,0.091,0,0,1,.044.091,0.065,0.065,0,0,0-.022.023,0.691,0.691,0,0,0-.245.045v0.068H15.9V17.6a1.612,1.612,0,0,1,.022.589h0.022V18.163a0.47,0.47,0,0,1,.067-0.2,0.858,0.858,0,0,1,.356-0.023v0.045a0.628,0.628,0,0,1,.022.272l0.334,0.023a0.6,0.6,0,0,0,.045.091H18a0.531,0.531,0,0,1,.2-0.249c0.279-.175.226,0.306,0.334,0.385a0.624,0.624,0,0,0,.29-0.023c0.214,0.048.476,0.255,0.735,0.317a0.14,0.14,0,0,1,.156-0.113V18.661h0.022v0.023a1.517,1.517,0,0,0,.824.363c0.032,0.1.013,0.113,0.156,0.113a1.585,1.585,0,0,0,.423.068,6.537,6.537,0,0,0,1.114.136v0.091h0.111v0.091a5.372,5.372,0,0,1,.779.068c0.179,0.031.482-.041,0.668,0a2.283,2.283,0,0,0,.757-0.023,2.729,2.729,0,0,1,.846.091H28.8a4.591,4.591,0,0,0,.846.023H32.2a2.1,2.1,0,0,0,.668.045h1.381c1.563,0,3.173.009,4.722,0A1.352,1.352,0,0,0,40,19.908V20.52H39.109a0.294,0.294,0,0,1-.334.136,4.963,4.963,0,0,0-1.158-.023c-1.061,0-2.025.045-3.051,0.045l-8.753.045a4.142,4.142,0,0,0-.935.091H24.365a5.584,5.584,0,0,1-1.114,0H22.561a0.361,0.361,0,0,1-.2.045c-0.022.116-.092,0.1-0.223,0.091l-0.022.113H22.071a2.324,2.324,0,0,1-.468.023,3.588,3.588,0,0,1-1.336.295,4.474,4.474,0,0,0-.49-0.159v0.113H19.644v0.181a1.43,1.43,0,0,0-.869.091h0.869a0.36,0.36,0,0,1,.334-0.045V21.495h0.067v0.227h0.045A0.19,0.19,0,0,1,20.2,21.7a0.252,0.252,0,0,1,.045-0.113,0.594,0.594,0,0,0,.468-0.045,2.99,2.99,0,0,1,.49.091l0.468,0.045a0.578,0.578,0,0,0,.156.068l0.044-.045h0.49c0.091-.047.126-0.151,0.267-0.045a0.626,0.626,0,0,1,.022.272,0.477,0.477,0,0,0,.223.113,0.218,0.218,0,0,1,.178-0.045v0.045H23.029v0.023H23.1a1.263,1.263,0,0,1,.089-0.317c0.352-.243.633-0.067,0.624,0.408a0.45,0.45,0,0,1,.2.023v0.068h0.067l0.022-.136a4.712,4.712,0,0,1,.468-0.136V21.857H24.7v0.295a0.427,0.427,0,0,1,.178.272c0.033,0.025.068,0.047,0.089,0.023a0.7,0.7,0,0,0,.022-0.295h0.156a0.906,0.906,0,0,0,.022.272c0.065-.009.028-0.037,0.067,0.023a0.091,0.091,0,0,1,.045.091,3.328,3.328,0,0,1,.334-0.023v0.091L26.169,22.7c0.145,0.035.267-.035,0.356,0a0.1,0.1,0,0,1,.045.068,1.883,1.883,0,0,1,.089.861c0.188,0.093.471,0.06,0.468,0.363a0.156,0.156,0,0,0-.044.159c0.016,0.113.052,0.134,0.178,0.136a0.236,0.236,0,0,1,.156-0.045,0.153,0.153,0,0,1,0,.113,0.316,0.316,0,0,1-.356.023c-0.281-.109-0.026-0.3-0.512-0.295a0.441,0.441,0,0,1-.089.045c-0.1.223-.332,0.395-0.423,0.612-0.061.145,0.033,0.122-.089,0.227a0.627,0.627,0,0,1-.111.544,0.175,0.175,0,0,0-.089,0v0.045a0.5,0.5,0,0,0,0,.068,0.467,0.467,0,0,1-.4.295,0.47,0.47,0,0,1-.468.295,0.876,0.876,0,0,0-.089.113,2.888,2.888,0,0,1-.468.249H24.3l0.022,0.045H24.3a1.513,1.513,0,0,1-.512.249,0.077,0.077,0,0,1,0,.068,1.275,1.275,0,0,0-.379.227,0.188,0.188,0,0,0-.067-0.045,0.086,0.086,0,0,1-.067.045c0.009,0.066.037,0.028-.022,0.068a1.1,1.1,0,0,1-.379.227c-0.012-.029,0-0.017-0.022-0.023a0.251,0.251,0,0,0-.089.113c-0.108.09-.259,0.106-0.356,0.2-0.067-.021-0.037-0.046-0.089-0.023-0.08.035-.017,0.041-0.067,0.091l-0.111.023a0.642,0.642,0,0,1-.379.113c-0.017-.006.006-0.037-0.111-0.045v0.068C21.5,27.987,21.332,28,21.158,28V27.932H21.047V28H20.579V27.932H20.468V28H20V27.932H19.889V28H19.421c-0.055-.031.017-0.05-0.111-0.068V28H18.842c-0.062-.029.017-0.048-0.111-0.068V28h-0.49V27.932H18.151V28h-0.49V27.932H17.572V28h-0.49V27.932H16.993V28H16.5V27.932H16.414V28h-0.49V27.932H15.835V28h-0.49V27.932H15.256V28h-0.49V27.932H14.677V28H14.209c-0.062-.029.017-0.048-0.111-0.068V28H13.63c-0.055-.031.017-0.05-0.111-0.068V28H13.051V27.932H12.94V28H12.472V27.932H12.361V28H11.893V27.932H11.782V28H11.314V27.932H11.2V28H10.735V27.932H10.624V28H10.156V27.932H10.045V28H9.577V27.932H9.465V28H9V27.932H8.886V28H8.419V27.932H8.307V28H7.84V27.932H7.728V28H7.261V27.932H7.149V28H6.659c0-.086.022-0.062-0.089-0.068V28H6.08V27.932H5.991V28L5.5,27.977a0.28,0.28,0,0,0-.045-0.068,1.222,1.222,0,0,0-.178.045L4.855,27.8c0-.072.038-0.03-0.022-0.068C4.816,27.708,4.8,27.7,4.788,27.683c-0.053.032-.013,0.038-0.067,0.023a5.36,5.36,0,0,1-.49-0.295c-0.012.03,0,.017-0.022,0.023-0.152-.047-0.263-0.158-0.423-0.2a0.126,0.126,0,0,0,0-.091,1.058,1.058,0,0,1-.512-0.181,0.539,0.539,0,0,0-.022-0.091c-0.068-.049-0.047.014-0.089,0.023a2.752,2.752,0,0,1-.356-0.181c-0.042-.027-0.047-0.116-0.089-0.136l-0.111.023a2.045,2.045,0,0,1-.4-0.272,0.808,0.808,0,0,0-.111,0c-0.129-.038-0.239-0.163-0.379-0.2,0.009-.067.036-0.028-0.022-0.068s-0.073.013-.134-0.023a2.063,2.063,0,0,1-.312-0.317c-0.043-.04-0.13-0.009-0.178-0.045A0.856,0.856,0,0,0,1,25.552a1.159,1.159,0,0,0-.579-0.045,0.122,0.122,0,0,0-.067-0.091,0.149,0.149,0,0,0-.089-0.023V25.325H0.111v-0.5c0.142,0,.164-0.041.312-0.045V24.464H0.535l-0.022-.431a0.479,0.479,0,0,1-.156-0.181A0.838,0.838,0,0,1,.445,23.4a0.172,0.172,0,0,1-.134-0.2H0.468a0.411,0.411,0,0,0,.067-0.113,2,2,0,0,1-.512-0.159A0.117,0.117,0,0,1,0,22.855a5.394,5.394,0,0,0,.267-0.929,0.851,0.851,0,0,0-.022-0.159,1.359,1.359,0,0,1,.134-0.272,0.5,0.5,0,0,1,.2-0.363,1.424,1.424,0,0,0,.49.136l-0.022.181H1.069c0.071-.1.128-0.046,0.245-0.023a0.228,0.228,0,0,1,.045-0.136A0.079,0.079,0,0,1,1.4,21.268a0.113,0.113,0,0,1,.067-0.023,0.111,0.111,0,0,1,.022-0.068,5.084,5.084,0,0,1,1.381-.045,4.08,4.08,0,0,1,.935-0.045,7.434,7.434,0,0,0,1.849.023c0.079-.008.033,0.05,0.067,0.068a2,2,0,0,0,.4.023c0.041,0.135.008,0.14,0.2,0.136a0.877,0.877,0,0,1,.735-0.023,0.154,0.154,0,0,1,.089-0.136,0.11,0.11,0,0,0,.022.068A0.26,0.26,0,0,1,7.283,21.2c0.04,0.151.167,0.052,0.29,0.113l-0.022.045A1.033,1.033,0,0,0,7.8,21.336a1.541,1.541,0,0,0,.646.113,0.508,0.508,0,0,1,.245-0.091,0.291,0.291,0,0,1-.022.091H8.731a0.143,0.143,0,0,1,.134-0.068c0.018-.073-0.011-0.035.045-0.068,0.011,0.05,0,.039.022,0.045L9,21.381c0.018-.073-0.011-0.035.045-0.068a0.144,0.144,0,0,0,.045.113,0.091,0.091,0,0,0-.045.091H9.087a0.379,0.379,0,0,1,.134-0.045v0.023H9.2c-0.043.017,0.045,0.023,0.045,0.023a0.581,0.581,0,0,0,.334,0v0.068a0.809,0.809,0,0,0,.156-0.045v-0.2H9.421V21.155l-3.14-.249H4.432a0.325,0.325,0,0,1-.022-0.091,3.12,3.12,0,0,0,0-.929c-0.056-.009-0.035.013-0.045-0.068a0.082,0.082,0,0,0,.022-0.045c-0.06-.01-0.049-0.056-0.045-0.181a1.94,1.94,0,0,0,.089-0.567,0.663,0.663,0,0,1,.156.023V18.956c0.638,0,1.339-.019,1.693-0.045v-0.2H6.37V18.593a0.121,0.121,0,0,0,.089-0.068,8.6,8.6,0,0,0,.089-1.949V11.567H6.592v3.9a1.9,1.9,0,0,1,.022.657L6.637,17.8a0.936,0.936,0,0,0,.134.771v0.136H6.9V18.82l0.78-.113,0.022-.159L8.174,18.5a0.288,0.288,0,0,0,.089.136,0.29,0.29,0,0,1,.156-0.023v0.091l0.958-.136A1.423,1.423,0,0,0,9.4,18.185h0.646v0.249a0.136,0.136,0,0,1,.045.045,1.877,1.877,0,0,1,.356-0.045V18.321a0.16,0.16,0,0,0,.178-0.045H10.49l-0.022-.521h0.4a0.11,0.11,0,0,1,.022-0.068A1.052,1.052,0,0,0,11,17.619a2.609,2.609,0,0,0,.089-0.7h0.045c0.042-.021.026-0.009,0.089,0V16.8a0.091,0.091,0,0,0,.045-0.091,3.646,3.646,0,0,1,.779-0.045v0.091c0.273,0,.426.066,0.735,0.068,0-.175,0-0.243,0-0.408l-0.111-.023a0.138,0.138,0,0,0-.044-0.045,2.125,2.125,0,0,0,.044-0.635,1.743,1.743,0,0,1,1.069-.249,4.085,4.085,0,0,1,.045.839H13.92a1.151,1.151,0,0,1,.223.408H14.3v0.272a0.232,0.232,0,0,0,.245-0.068,0.155,0.155,0,0,1-.044-0.181,0.267,0.267,0,0,1,.2-0.068,0.732,0.732,0,0,1,.089.113c0.03,0.094-.086.157-0.044,0.181a0.926,0.926,0,0,0,.423.136c-0.015-.364.016-0.579,0.379-0.567V11H15.59v4.669A3.485,3.485,0,0,1,15.613,16.531Z" transform="translate(0 0.5)"/>
</svg>
