<svg xmlns="http://www.w3.org/2000/svg" width="40" height="40" viewBox="0 0 40 40">
  <defs>
    <style>
      .cls-1 {
        fill: #fff;
        fill-rule: evenodd;
      }
    </style>
  </defs>
  <path id="fr_aml_90_ico" class="cls-1" d="M6.717,6a0.1,0.1,0,0,1,0,.133V6ZM6.751,6.167a0.133,0.133,0,0,1,0,.167V6.167Zm0.034,0.2a0.133,0.133,0,0,1,0,.167V6.367Zm0.034,0.2a0.1,0.1,0,0,1,0,.133V6.567Zm0.034,0.2a0.1,0.1,0,0,1,0,.133V6.767ZM6.886,6.933a0.133,0.133,0,0,1,0,.167V6.933Zm0.034,0.2a0.133,0.133,0,0,1,0,.167V7.133Zm0.034,0.2a0.1,0.1,0,0,1,0,.133V7.333ZM6.987,7.5a0.133,0.133,0,0,1,0,.167V7.5ZM7.021,7.7a0.133,0.133,0,0,1,0,.167V7.7ZM7.055,7.9a0.1,0.1,0,0,1,0,.133V7.9ZM7.089,8.1a0.1,0.1,0,0,1,0,.133V8.1ZM7.122,8.267a0.133,0.133,0,0,1,0,.167V8.267Zm0.034,0.2a0.133,0.133,0,0,1,0,.167V8.467Zm0.034,0.2a0.1,0.1,0,0,1,0,.133V8.667ZM7.224,8.833a0.133,0.133,0,0,1,0,.167V8.833Zm0.034,0.2a0.133,0.133,0,0,1,0,.167V9.033Zm0.034,0.2a0.1,0.1,0,0,1,0,.133V9.233Zm0.034,0.2a0.1,0.1,0,0,1,0,.133V9.433ZM7.359,9.6a0.133,0.133,0,0,1,0,.167V9.6ZM7.392,9.8a0.1,0.1,0,0,1,0,.133V9.8ZM7.426,10a0.1,0.1,0,0,1,0,.133V10ZM7.46,10.167a0.132,0.132,0,0,1,0,.167V10.167Zm0.034,0.2a0.133,0.133,0,0,1,0,.167V10.367Zm0.034,0.2a0.1,0.1,0,0,1,0,.133V10.567Zm0.034,0.2a0.1,0.1,0,0,1,0,.133V10.767Zm0.034,0.167a0.133,0.133,0,0,1,0,.167V10.933Zm0.034,0.2a0.133,0.133,0,0,1,0,.167V11.133Zm0.034,0.2a0.1,0.1,0,0,1,0,.133V11.333ZM7.7,11.5a0.133,0.133,0,0,1,0,.167V11.5ZM7.73,11.7a0.133,0.133,0,0,1,0,.167V11.7Zm0.034,0.2a0.1,0.1,0,0,1,0,.133V11.9ZM7.8,12.1a0.1,0.1,0,0,1,0,.133V12.1Zm0.034,0.167a0.133,0.133,0,0,1,0,.167V12.267Zm0.034,0.2a0.133,0.133,0,0,1,0,.167V12.467Zm0.034,0.2a0.1,0.1,0,0,1,0,.133V12.667Zm0.034,0.2a0.1,0.1,0,0,1,0,.133V12.867Zm0.034,0.167a0.133,0.133,0,0,1,0,.167V13.033ZM8,13.233a0.1,0.1,0,0,1,0,.133V13.233Zm0.034,0.2a0.1,0.1,0,0,1,0,.133V13.433ZM8.068,13.6a0.133,0.133,0,0,1,0,.167V13.6ZM8.1,13.8a0.133,0.133,0,0,1,0,.167V13.8ZM8.135,14a0.1,0.1,0,0,1,0,.133V14Zm0.034,0.2a0.1,0.1,0,0,1,0,.133V14.2ZM8.2,14.367a0.133,0.133,0,0,1,0,.167V14.367Zm0.034,0.2a0.1,0.1,0,0,1,0,.133V14.567Zm0.034,0.2a0.1,0.1,0,0,1,0,.133V14.767ZM8.3,14.933a0.133,0.133,0,0,1,0,.167V14.933Zm0.034,0.2a0.133,0.133,0,0,1,0,.167V15.133ZM20.895,15.5v0.167H20.861a6.786,6.786,0,0,0-1.384,0c-1.056,0-2.2.06-3.376,0.067v0.633h0.068c0.018-.007.311,0.062,0.506,0.067v1.2a4.434,4.434,0,0,1-.911.033l-0.034.1a1.808,1.808,0,0,0,0,.833,0.128,0.128,0,0,1,.1.067c0.2-.047.417-0.092,0.405,0.233a6.376,6.376,0,0,1,1.451.367c0.287,0.087.579,0.057,0.844,0.167,0.166,0.069.35,0.233,0.506,0.3a4.536,4.536,0,0,0,.641.033L20.084,19.9l0.1,0.167h2.262V19.933h0.034V19.9a0.24,0.24,0,0,1,.1.1h0.371v0.067h0.473a4.426,4.426,0,0,1,.54.367,0.561,0.561,0,0,1,.439.367l12.219,0.033v-0.1H37a5.544,5.544,0,0,1,2.127-.233,0.808,0.808,0,0,1,.878.3,2.259,2.259,0,0,0,0,1,1.153,1.153,0,0,0-.3.167H37.7a4.4,4.4,0,0,0-1.08-.233v-0.1c-2.814,0-5.711.033-8.574,0.033H26.127a5.929,5.929,0,0,0-1.046.033c-0.51.108-1.151-.055-1.62,0.033-0.009.086,0.016,0.059-.135,0.067a1.94,1.94,0,0,0-.709-0.033H20.76a2.739,2.739,0,0,1-.776.533V22.133H19.916v0.433a1.2,1.2,0,0,0,.2.067,1.641,1.641,0,0,1,.844-0.033,1.787,1.787,0,0,1,.27.033,4.559,4.559,0,0,0,.371.3c0.171,0.049.413-.066,0.641,0a0.438,0.438,0,0,0,.169.1,0.823,0.823,0,0,1,.2-0.1,1.429,1.429,0,0,0,0,.7c0.48,0.492,1.3.374,2.262,0.367a0.1,0.1,0,0,1,.034-0.033v-0.1c0.148,0.035.052,0.079,0.135,0.133h0.236a1.006,1.006,0,0,1,.169.233l0.135-.033V25A10.353,10.353,0,0,0,26.8,25a4.988,4.988,0,0,0-.236-1.367H26.532a1.41,1.41,0,0,1-.1.6,0.173,0.173,0,0,1-.1.033,0.28,0.28,0,0,1-.067-0.1,4.152,4.152,0,0,1,0-1.3,1.314,1.314,0,0,1,.236.067,0.493,0.493,0,0,0,.1.467V23.367h0.034V23.4c0.206,0.288.111,1.481,0.371,1.633a0.547,0.547,0,0,1,.236.033c-0.02-.4.022-0.729,0.405-0.733a1.761,1.761,0,0,0,.506.133V24.6a0.12,0.12,0,0,0-.034.067,4.989,4.989,0,0,0-.54.133v0.333a1.929,1.929,0,0,0,.338-0.067c0,0.234.015,0.528,0,.667h0.067a1.461,1.461,0,0,1,.473-0.3L28.591,25.5a1.468,1.468,0,0,0,.034.367L29.266,25.9a0.675,0.675,0,0,0,.473.2c-0.037.169-.125,0.136-0.169,0.3a0.594,0.594,0,0,0,.27.333,0.268,0.268,0,0,1,.169-0.033,0.169,0.169,0,0,1,.034.1c-0.159.084-.106,0.22-0.1,0.433-0.067,0-.009-0.034-0.067,0a0.12,0.12,0,0,1,.034.067c-0.067,0-.009-0.034-0.067,0a0.12,0.12,0,0,1,.034.067,0.114,0.114,0,0,0-.1,0l0.034,0.1c-0.068,0-.01-0.034-0.068,0a0.12,0.12,0,0,1,.034.067c-0.068,0-.01-0.034-0.068,0,0.029,0.063.016,0.025,0,.1L29.637,27.6v0.033a0.12,0.12,0,0,1,.034.067c-0.067,0-.009-0.034-0.067,0,0.029,0.063.016,0.025,0,.1l-0.067-.033V27.8a0.12,0.12,0,0,1,.034.067c-0.068,0-.01-0.034-0.068,0,0.029,0.063.016,0.025,0,.1l-0.067-.033v0.033a0.12,0.12,0,0,1,.034.067c-0.068,0-.01-0.034-0.068,0a0.169,0.169,0,0,1,.034.1A1.346,1.346,0,0,0,29.84,28.1a0.305,0.305,0,0,1-.034-0.233,0.508,0.508,0,0,1,.338.467A8.658,8.658,0,0,1,29.1,29.767l-0.3.1a4.2,4.2,0,0,1-.135,1.4c-0.11.028-.052-0.016-0.1,0.067a0.822,0.822,0,0,1-.135.533l-0.068-.033a0.92,0.92,0,0,1-.337.567,1.855,1.855,0,0,1-.844.8,0.231,0.231,0,0,0-.034.1,3.86,3.86,0,0,0-.473.3,3.633,3.633,0,0,1-.439.167l-0.135-.033a0.56,0.56,0,0,1-.067.1,3.716,3.716,0,0,1-.574.133,1.756,1.756,0,0,1-.574-0.067,3.706,3.706,0,0,1-3-1.333,5.814,5.814,0,0,1-.608-1.033,2.151,2.151,0,0,1,0-.267l-0.1-.033a3.945,3.945,0,0,0-.1-0.4,1.55,1.55,0,0,0-.608-0.033v0.067a2.6,2.6,0,0,0,0,1.1H20.388v-0.3a1.841,1.841,0,0,1,0-.867L8.844,30.7v0.033a3.466,3.466,0,0,1-.338,1.133l-0.068-.033a2.157,2.157,0,0,1-.675,1c-0.053.016-.436,0.547-0.506,0.333V33.3a0.906,0.906,0,0,1-.506.2,2.2,2.2,0,0,1-1.722.4,2.228,2.228,0,0,1-.54.067A6.921,6.921,0,0,1,3.274,33.6V33.5a0.242,0.242,0,0,1-.135.033c-0.009,0-.365-0.226-0.371-0.233V33.167L2.7,33.2a1.385,1.385,0,0,1-.439-0.3L2.3,32.8l-0.1.033c-0.026-.022-0.293-0.346-0.3-0.367l0.034-.133-0.1.033c-0.034-.044-0.077-0.1-0.1-0.133A4.044,4.044,0,0,1,1.148,29.6l-0.1-.033a0.369,0.369,0,0,0-.3-0.033v0.1c-0.087.009-.06-0.015-0.068,0.133a0.918,0.918,0,0,1-.1.7H0.506v-0.2a1.419,1.419,0,0,0,.1-0.833,0.523,0.523,0,0,1-.1-0.4,1.26,1.26,0,0,0,.1-0.4,0.337,0.337,0,0,1-.1-0.333,0.483,0.483,0,0,0,.1-0.067l0.068-.467A0.435,0.435,0,0,1,.54,27.6a3.445,3.445,0,0,1,.068-0.5,3.729,3.729,0,0,1-.27-0.833l-0.27-.033A1.157,1.157,0,0,1,0,26.033a0.293,0.293,0,0,1,.135-0.1,0.174,0.174,0,0,1,.1-0.033V25.433h0.1C0.351,25.056.4,24.571,0.405,24.1H0.371a0.2,0.2,0,0,1-.2.1c-0.15-.049-0.145-0.135-0.135-0.333a1.351,1.351,0,0,1,.54-0.433,7.284,7.284,0,0,0,1.35-.167,0.16,0.16,0,0,1,.034-0.1A6.441,6.441,0,0,1,2.6,23.033c0.023-.014.045-0.116,0.068-0.133a0.422,0.422,0,0,1,.169.067l0.776-.1c0.055-.02.115-0.11,0.169-0.133l0.439-.1a1.541,1.541,0,0,1,.236-0.167c0.257-.079.369,0.131,0.641,0.067A9.466,9.466,0,0,1,7.089,22.4V22.067H7.021v0.067a1.192,1.192,0,0,1-.27-0.067v0.067c-0.028.011-.506,0-0.506,0a0.288,0.288,0,0,0-.27-0.067,11.257,11.257,0,0,1-2.025,0L3.713,22c-0.024,0-.11.092-0.135,0.1A1.381,1.381,0,0,1,2.835,22a0.4,0.4,0,0,1-.1-0.3A2.618,2.618,0,0,0,2.7,21.367,0.219,0.219,0,0,0,2.768,21.2a1.09,1.09,0,0,1-.1-0.3,6,6,0,0,1,1.181-1.3,0.16,0.16,0,0,1,.034-0.1,1.7,1.7,0,0,0,.844-0.033,6.516,6.516,0,0,1,.709,0V19.3H5.2a0.114,0.114,0,0,0-.034-0.067A0.114,0.114,0,0,1,5.2,19.167l0.034-.1,1.181-.1a0.381,0.381,0,0,1,.068.233l-0.2.033v0.133L7.392,19.3a3.654,3.654,0,0,1,.473-0.433L8.878,18.8c-0.008-.463-0.142-0.9-0.135-1.267a2.554,2.554,0,0,1-.068-0.5,0.12,0.12,0,0,1,.034.067,5.62,5.62,0,0,1,.27,1.1h0.1a0.205,0.205,0,0,0,.068.067,0.41,0.41,0,0,0,.034.467,0.369,0.369,0,0,0,.2.033,0.929,0.929,0,0,1,.405-0.033V18.7H9.823V18.6a2.286,2.286,0,0,0,.709.033c0.085-.049.052-0.015,0.068-0.133a0.345,0.345,0,0,1-.2-0.533,6.907,6.907,0,0,1,1.08-.067,4.637,4.637,0,0,1,2.3-.067c0.364,0.118.646,0.39,0.979,0.5v-1c0.14-.038.137-0.058,0.135-0.233a9.1,9.1,0,0,0-.236-1.067c-0.1.134-.128,0.019-0.135,0.267a0.1,0.1,0,0,0-.034.033c-0.067,0-.009-0.034-0.067,0a0.409,0.409,0,0,1-.3.067,0.229,0.229,0,0,0-.169-0.067,0.771,0.771,0,0,1-.337.533c-0.045-.041-0.121-0.061-0.169-0.1a0.169,0.169,0,0,1-.034-0.1,0.832,0.832,0,0,0,.27-0.5,0.2,0.2,0,0,0-.169-0.133v-0.1H13.1V15.5a0.774,0.774,0,0,0,.169-0.1,1.21,1.21,0,0,0,.81.1l0.034-.067,0.371,0.033c0.078-.029.152-0.171,0.236-0.2a3.454,3.454,0,0,1,.911,0,1.6,1.6,0,0,1,.1.133,0.134,0.134,0,0,0,.169-0.067c0.216-.081.361,0.206,0.506-0.033a0.2,0.2,0,0,1-.068-0.067h0.068a0.321,0.321,0,0,0,.135.1l-0.034.067H16.54a5.51,5.51,0,0,0,1.35.033C18.876,15.434,19.849,15.5,20.895,15.5ZM8.371,15.333a0.1,0.1,0,0,1,0,.133V15.333Zm5.671,0a0.12,0.12,0,0,1,.034.067H14.042V15.333Zm-5.637.2a0.1,0.1,0,0,1,0,.133V15.533ZM8.439,15.7a0.133,0.133,0,0,1,0,.167V15.7Zm0.034,0.2a0.1,0.1,0,0,1,0,.133V15.9Zm0.034,0.2a0.1,0.1,0,0,1,0,.133V16.1ZM8.54,16.267a0.132,0.132,0,0,1,0,.167V16.267Zm0.034,0.2a0.133,0.133,0,0,1,0,.167V16.467Zm0.034,0.2a0.1,0.1,0,0,1,0,.133V16.667Zm0.034,0.2a0.1,0.1,0,0,1,0,.133V16.867Z" transform="translate(0 0.016)"/>
</svg>
