<svg xmlns="http://www.w3.org/2000/svg" width="40" height="40" viewBox="0 0 40 40">
  <defs>
    <style>
      .cls-1 {
        fill: #fff;
        fill-rule: evenodd;
      }
    </style>
  </defs>
  <path id="fr_amx_13_90_ico" class="cls-1" d="M12.128,20.9a1.077,1.077,0,0,1,.31,0h0.034a0.655,0.655,0,0,0,.345.819l0.1,0.137h0.345c0.1,0.032.161,0.133,0.276,0.171V20.9h0.069v0.444a2.089,2.089,0,0,0,.172.887,1.442,1.442,0,0,0,.482.1V22.065a2.175,2.175,0,0,0,0-.512h0.1c0,0.392,0,.435,0,0.785,1.335,0,2.56.1,3.928,0.1a2.086,2.086,0,0,0,.034-0.58h0.034a0.176,0.176,0,0,1,.1-0.034v0.068a1.327,1.327,0,0,1,.035.546,4.323,4.323,0,0,1,1.24.2c0.357,0.091.724,0.063,1.068,0.137l2.308-.034h5.306a0.622,0.622,0,0,1,.034.2H29.7V22.816c1.746,0,3.335.068,5.03,0.068h2.618a13.374,13.374,0,0,0,2.653.1V23.84a13.123,13.123,0,0,0-2.618.1H34.763c-1.709,0-3.307.067-5.065,0.068v-0.1h-1.24v0.171h-6.27c-0.45.109-.992,0.2-1.482,0.307a4.825,4.825,0,0,1-1.482,0H17.192v0.068a1.98,1.98,0,0,1,.241.444c-0.155-.005-0.159-0.043-0.207.034C17.215,25,17.252,24.974,17.158,25a0.125,0.125,0,0,0-.069-0.034v0.068a0.132,0.132,0,0,1,.069.1,0.168,0.168,0,0,0-.1.034,0.257,0.257,0,0,1,.138.137,0.291,0.291,0,0,0-.172.034h0.035a3.506,3.506,0,0,0,.448.614h1.1a2.365,2.365,0,0,0,.551.034,3.838,3.838,0,0,0,1.034.137V25.819h0.172v0.239H20.4c0.058-.1.05-0.1,0.207-0.1a0.53,0.53,0,0,0,.586.171,0.923,0.923,0,0,1,.827-0.171,1.733,1.733,0,0,0,.31,0V25.99a0.16,0.16,0,0,0-.069.171,5.939,5.939,0,0,1,.93.341,0.918,0.918,0,0,1,.172-0.444c0.268,0.109.942,0.287,0.9,0.58h0.689v0.2h0.035V26.809a1.212,1.212,0,0,0,.241-0.785h0.138v0.683h0.035a0.181,0.181,0,0,1,.172,0V26.6a1.956,1.956,0,0,0,.413-0.034,0.609,0.609,0,0,1,.792-0.512,2.089,2.089,0,0,1,.035.58h0.1V26.57a1.6,1.6,0,0,0,.1-0.614h0.138v0.068a1.808,1.808,0,0,1,.069.819,10.925,10.925,0,0,0,1.654.546v0.1a2.581,2.581,0,0,1,2.171,1.058,1.275,1.275,0,0,0-.448.41,1.589,1.589,0,0,1,.345.614,0.167,0.167,0,0,0-.1.034,0.123,0.123,0,0,1,.034.068c0.1,0.044.071-.039,0.1,0.1a1.263,1.263,0,0,1,.069.614,0.168,0.168,0,0,0-.1.034,0.943,0.943,0,0,1-.069.785,0.44,0.44,0,0,1-.138-0.034v0.034a0.83,0.83,0,0,1,.035.2,3.653,3.653,0,0,1-.379.478c-0.082.044-.092-0.062-0.172,0.034,0,0.077.048,0.1-.034,0.171a1.991,1.991,0,0,1-.414.273L29.6,32.338c-0.068.037,0.011,0.127,0,.137a2.059,2.059,0,0,1-.62.341c-0.055-.093.005-0.028-0.1-0.034a1.032,1.032,0,0,1-.517.444c-0.086-.023-0.064-0.081-0.1-0.034a2.229,2.229,0,0,1-.586.444L27.528,33.6a0.347,0.347,0,0,0-.034.136,5.486,5.486,0,0,1-.482.307l-0.172-.034c-0.049.025-.054,0.169-0.1,0.2a4.357,4.357,0,0,0-.482.273c-0.1-.058,0-0.035-0.138-0.034-0.062.4-.618,0.268-0.792,0.375a0.123,0.123,0,0,1,.034.068H25.116a1.019,1.019,0,0,1-.551-0.034,1.381,1.381,0,0,1-.689.068c-0.029-.012.007-0.107-0.1-0.068v0.068a2.8,2.8,0,0,1-.758-0.068,1.2,1.2,0,0,1-.655.068V34.864h-0.1v0.068H21.6a0.165,0.165,0,0,0-.035-0.1,1.073,1.073,0,0,1-.723.1,0.164,0.164,0,0,0-.035-0.1,1.073,1.073,0,0,1-.724.1,0.164,0.164,0,0,0-.034-0.1,1.166,1.166,0,0,1-.724.1,0.165,0.165,0,0,0-.034-0.1,1.166,1.166,0,0,1-.724.1,0.164,0.164,0,0,0-.035-0.1,1.166,1.166,0,0,1-.723.1,0.164,0.164,0,0,0-.034-0.1,1.166,1.166,0,0,1-.723.1,0.165,0.165,0,0,0-.035-0.1,1.166,1.166,0,0,1-.724.1,0.164,0.164,0,0,0-.034-0.1,1.166,1.166,0,0,1-.724.1,0.164,0.164,0,0,0-.034-0.1,1.166,1.166,0,0,1-.723.1,0.165,0.165,0,0,0-.034-0.1,1.166,1.166,0,0,1-.724.1,0.164,0.164,0,0,0-.034-0.1,1.166,1.166,0,0,1-.723.1,0.164,0.164,0,0,0-.034-0.1,1.166,1.166,0,0,1-.723.1,0.165,0.165,0,0,0-.035-0.1,1.166,1.166,0,0,1-.723.1,0.164,0.164,0,0,0-.034-0.1,1.052,1.052,0,0,1-.758.1c-0.029-.012.006-0.108-0.1-0.068a1.189,1.189,0,0,1-.655.068V34.864a2.515,2.515,0,0,1-.758.068V34.864a2.51,2.51,0,0,1-.758.068V34.864a3.676,3.676,0,0,1-.448.068H7.924V34.864a3.454,3.454,0,0,1-.792.068V34.864H7.063v0.068A1.728,1.728,0,0,1,6.374,34.9a0.164,0.164,0,0,0-.034-0.1,0.984,0.984,0,0,1-.758-0.1,0.429,0.429,0,0,0-.034-0.136,1.212,1.212,0,0,1-.689-0.171c0.014-.1.056-0.043-0.034-0.1a0.451,0.451,0,0,1-.138.034,2.1,2.1,0,0,1-.482-0.2l-0.069-.136c-0.083-.039-0.052.057-0.1,0.068a5.165,5.165,0,0,0-.586-0.239c0.014-.1.056-0.043-0.034-0.1s-0.02.057-.138,0.034A3.078,3.078,0,0,1,2.756,33.5V33.4a1.028,1.028,0,0,1-.724-0.2c0-.063.033-0.03-0.034-0.068s-0.018.055-.1,0.034a1.863,1.863,0,0,1-.482-0.273,0.224,0.224,0,0,1-.069-0.2c-0.07-.1-0.184-0.019-0.276-0.136-0.121-.155-0.177-0.369-0.31-0.512A0.219,0.219,0,0,0,.827,31.86h-0.1V31.792a1.275,1.275,0,0,1-.1-0.683h0.1a1.068,1.068,0,0,1,.069-0.751,0.592,0.592,0,0,0,.172-0.273H0.93a2.176,2.176,0,0,1-.9.273c0-.54.4-0.522,0.482-0.921a1.673,1.673,0,0,1-.069-0.512,2.717,2.717,0,0,0-.172-0.273l-0.1.034v-0.1c0.109,0,.064.049,0.1-0.068a0.82,0.82,0,0,1-.069-0.444A0.255,0.255,0,0,0,0,28.14V28a0.577,0.577,0,0,1,.517-0.375,2.694,2.694,0,0,1,1.723-.307A3.44,3.44,0,0,0,2,26.536,0.494,0.494,0,0,1,2.136,26.5a0.36,0.36,0,0,1,.069.171,1.58,1.58,0,0,0,.069.41c0.139,0,.188.018,0.241-0.068H2.446a0.177,0.177,0,0,0-.1-0.034V26.809a3.663,3.663,0,0,1,.551-0.1,1.534,1.534,0,0,1,.172.307,0.118,0.118,0,0,0,.069-0.034c0.024-.053,0,0,0-0.1h0.1c0.029-.111-0.017-0.052.069-0.1a0.289,0.289,0,0,0,.1.137,0.213,0.213,0,0,1,.276-0.068,0.853,0.853,0,0,0,.069.171,2.544,2.544,0,0,1,.655-0.068,14.3,14.3,0,0,0,1.654-.2V26.707a1.606,1.606,0,0,1-.482-0.068H5.96A0.272,0.272,0,0,1,5.995,26.4C5.863,26.357,5.86,26.33,5.857,26.16a0.193,0.193,0,0,1-.207-0.1,0.122,0.122,0,0,0,.034-0.068,0.952,0.952,0,0,1-.31-0.034l0.034-.1a0.305,0.305,0,0,0,.1-0.1H5.271a0.461,0.461,0,0,1-.241.034V25.717a0.259,0.259,0,0,0,.138-0.171,0.737,0.737,0,0,1-.034-0.136,1.71,1.71,0,0,1,.241-0.478H4.341a10.628,10.628,0,0,0-1.654-.409C2.412,24.441,2.17,24.5,2.1,24.215l-0.207-.034-0.069-.1a1.805,1.805,0,0,1,0-1.126,0.52,0.52,0,0,1,.138-0.068,0.176,0.176,0,0,1,.1-0.034v-0.2H1.723A1.481,1.481,0,0,1,1.792,22.1a0.118,0.118,0,0,1-.069-0.034H2.067L2.1,21.724l0.172-.034a4.807,4.807,0,0,1,.31-1.092,9.569,9.569,0,0,0,1.068.034,0.429,0.429,0,0,1-.034.137c0.13,0,.121-0.016.172,0.068a1.919,1.919,0,0,0,.1.546c0.956-.009,1.9,0,2.929,0a1.291,1.291,0,0,1,1.171.2l0.1-.034V21.485a3.755,3.755,0,0,1-.276-0.956,0.4,0.4,0,0,1,.241-0.068,0.272,0.272,0,0,0,.241.2V20.529h0.1v-0.2h0.1v-0.1a0.167,0.167,0,0,1-.1-0.034l0.345-.034v0.068h-0.1v0.1a2.1,2.1,0,0,0,1.275-.307V19.983C9.8,19.969,9.836,20,9.785,19.915a6.077,6.077,0,0,0,.724-0.034c0.08,0.218.262,0.1,0.482,0.171,0.287,0.1.5,0.352,0.758,0.444V20.358a7.052,7.052,0,0,1-.482-1.468c-0.42-1.12-.744-2.282-1.137-3.447-0.563-1.67-1.1-3.432-1.723-5.085C8.17,9.726,8.055,9.108,7.821,8.481,7.512,7.658,7.283,6.817,6.994,5.956A4.271,4.271,0,0,1,6.684,5H6.718V5.068a4.488,4.488,0,0,1,.345,1.024c0.3,0.8.518,1.637,0.827,2.457,1,2.664,1.758,5.465,2.756,8.123,0.362,0.963.613,1.964,0.965,2.9A3.132,3.132,0,0,0,11.99,20.6a0.176,0.176,0,0,1,.1-0.034A1.113,1.113,0,0,1,12.128,20.9ZM8.751,20.12H8.82v0.034A0.119,0.119,0,0,1,8.751,20.12Zm-6.649,7H2.171V27.15A0.119,0.119,0,0,1,2.1,27.116Zm-0.069.034H2.1v0.034A0.119,0.119,0,0,1,2.033,27.15Zm-2,1.024a0.122,0.122,0,0,1,.034.068H0.034V28.174Zm0.1,0.307a0.173,0.173,0,0,1,.034.1H0.138v-0.1Z" transform="translate(0 0.016)"/>
</svg>
