<?xml version="1.0" encoding="utf-8"?>
<!-- Generator: Adobe Illustrator 16.0.0, SVG Export Plug-In . SVG Version: 6.00 Build 0)  -->
<!DOCTYPE svg PUBLIC "-//W3C//DTD SVG 1.1//EN" "http://www.w3.org/Graphics/SVG/1.1/DTD/svg11.dtd">
<svg version="1.1" id="Layer_1" xmlns="http://www.w3.org/2000/svg" xmlns:xlink="http://www.w3.org/1999/xlink" x="0px" y="0px"
	 width="40px" height="40px" viewBox="0 0 40 40" enable-background="new 0 0 40 40" xml:space="preserve">
<path id="fr_amx_13_hot_ico" fill="#FFFFFF" d="M6.012,11.521c0.231-0.03,0.465,0.028,0.654,0.165L6.83,11.6v0.082
	c-0.213,0.231,0.046,0.239,0,0.536C6.779,12.55,6.536,12.8,6.5,13.169c-0.149,0.019-0.301,0.019-0.45,0
	c-0.041,0.189-0.055,0.384-0.041,0.577c0.133,0.098,0.257,0.208,0.368,0.33h1.435c0.053,0.089,0.143,0.149,0.245,0.165
	c0.031-0.05,0.046-0.108,0.043-0.166c-0.144-0.267-0.228-0.563-0.245-0.865l0.123-0.041v-0.042c0.041-0.041,0.04,0.041,0.041,0.041
	c0.139,0.053,0.134,0.116,0.286,0.165V13.21h0.12V13c0.133-0.034,0.062,0.02,0.123-0.082c-0.133-0.034-0.062,0.02-0.123-0.082h0.368
	v0.082C8.661,12.956,8.731,12.9,8.671,13c0.063,0.005,0.122,0.034,0.164,0.082c0.155-0.125,0.172,0.025,0.286,0
	c0.255-0.104,0.501-0.229,0.736-0.371c0-0.137-0.028-0.129,0.2-0.124c0.433-0.215,1.6,0.485,1.881,0.742
	c0.108-0.031,0.1-0.05,0.2-0.082v0.082c0.039,0.091,0.053,0.19,0.041,0.288c0.095-0.012,0.191-0.012,0.286,0
	c0.148,0.342-0.216,0.729,0.614,0.699c0.158-0.053,0.324-0.08,0.491-0.082c0.016-0.225,0-0.274,0-0.617h0.082v0.494
	c0.026,0.035,0.041,0.079,0.041,0.123l0.532-0.041c0.057-0.052,0.112-0.106,0.164-0.164c0.207,0.01,0.412,0.037,0.614,0.082
	c0.499-0.102,1.005-0.156,1.513-0.166l0.123,1.195l1.718,0.041c0.01-0.017,0.024-0.031,0.041-0.041
	c-0.016-0.207-0.002-0.414,0.041-0.617c0.031,0.004,0.06,0.018,0.082,0.041c0.044,0.203,0.071,0.41,0.082,0.617
	c0.374-0.02,0.627,0.041,0.654,0.371c6.884-0.013,14,0.2,20.736,0.206v0.824c-6.886-0.007-13.752,0.158-20.7,0.165
	c-0.251,0.607-1.223,0.43-2.045,0.412v0.041c0.101,0.133,0.169,0.288,0.2,0.453c-0.058-0.005-0.116,0.01-0.164,0.041
	c0.022,0.021,0.036,0.051,0.041,0.082c-0.066-0.016-0.134-0.016-0.2,0c0.034,0.037,0.062,0.078,0.082,0.123
	c-0.044,0-0.088,0.015-0.123,0.041c0.057,0.035,0.186,0.086,0.123,0.125c-0.03,0.035-0.052,0.045-0.082,0.082
	c0.123,0.225,0.274,0.432,0.45,0.617h1.268c0.213,0.059,0.436,0.073,0.654,0.041c0.015,0.209,0.461,0.135,0.777,0.125v-0.33h0.176
	v0.246h0.041c0.229-0.254,0.378,0.266,0.776,0.082c0.053-0.058,0.107-0.113,0.164-0.164c0.34-0.068,0.69-0.054,1.023,0.041h-0.124
	v0.205c0.327,0.045,0.646,0.143,0.94,0.288c-0.004-0.185,0.111-0.352,0.287-0.411c0.268,0.171,0.557,0.309,0.858,0.411
	c-0.048,0.108-0.2,0.412-0.2,0.412c0.049,0.03,0.106,0.045,0.164,0.041c0.141-0.321,0.342-0.032,0.532-0.082
	c0.011,0,0.101-0.114,0.123-0.124c0.212-0.06,0.436-0.074,0.653-0.041c0-0.045,0.014-0.088,0.041-0.124
	c0.326,0.214,0.724-0.339,0.859-0.493c0.151-0.004,0.303,0.01,0.45,0.041v-0.158h0.16c0.029,0.359,0.002,0.721-0.082,1.071
	c0.456,0.108,0.706,0.349,1.146,0.494h0.49l0.041-0.124c0.178-0.07,0.15,0.092,0.2,0.124h0.534c0.093,0.026,0.246,0.136,0.328,0.165
	H30.1c0.186,0.152,0.393,0.277,0.613,0.371c0.035-0.08,0.063-0.162,0.082-0.247c-0.025-0.053-0.02-0.293-0.041-0.412h0.082V20.3
	c0.065,0.243,0.065,0.499,0,0.742c0.156,0.071,0.275,0.206,0.327,0.371c-0.165,0.108-0.274,0.264-0.45,0.371L31,22.232
	c0.025,0.094,0.025,0.193,0,0.287c0.093,0.125,0.116,0.008,0.123,0.289c0.072,0.442,0.03,0.896-0.123,1.318h-0.121
	c-0.04,0.28-0.169,0.541-0.367,0.742l-0.123-0.082v0.082c-0.023,0.037-0.037,0.08-0.041,0.124c-0.427,0.212-0.824,0.474-1.187,0.782
	c-0.071-0.031-0.075-0.107-0.123-0.041c-0.159,0.205-0.372,0.361-0.614,0.453c-0.021-0.033-0.049-0.061-0.082-0.082
	c-0.141,0.227-0.338,0.411-0.572,0.535C27.7,26.607,27.7,26.532,27.648,26.6c-0.168,0.246-0.439,0.398-0.736,0.412
	c-0.096,0.212-0.272,0.375-0.491,0.453l-0.164-0.041c-0.057,0.03-0.1,0.2-0.164,0.247c-0.169,0.112-0.379,0.142-0.573,0.082
	c-0.045,0.028-0.084,0.147-0.123,0.165c-0.23,0.065-0.478,0.051-0.699-0.041c-0.221,0.109-0.48,0.109-0.7,0
	c-0.132-0.046-0.086,0.066-0.123,0.082H23.23c0.001-0.045-0.014-0.088-0.041-0.124c-0.214,0.149-0.484,0.194-0.735,0.124
	c-0.503-0.051-1.011-0.051-1.513,0c0-0.045-0.014-0.088-0.041-0.124c-0.221,0.136-0.484,0.181-0.736,0.124
	c0-0.045-0.014-0.088-0.041-0.124c-0.476,0.148-0.978,0.19-1.472,0.124c0-0.045-0.014-0.088-0.041-0.124
	c-0.219,0.136-0.484,0.181-0.736,0.124c0-0.045-0.014-0.088-0.041-0.124c-0.476,0.148-0.978,0.19-1.472,0.124
	c0.001-0.045-0.014-0.088-0.041-0.124c-0.265,0.146-0.582,0.161-0.859,0.041c-0.191,0.091-0.406,0.119-0.614,0.082
	c0-0.045-0.014-0.089-0.041-0.124c-0.22,0.137-0.484,0.181-0.736,0.124c0.001-0.045-0.014-0.089-0.041-0.124
	c-0.264,0.146-0.582,0.161-0.859,0.041c-0.191,0.09-0.406,0.119-0.614,0.082c0-0.045-0.014-0.088-0.041-0.124
	c-0.22,0.136-0.484,0.181-0.736,0.124c0.001-0.045-0.014-0.088-0.041-0.124c-0.264,0.146-0.582,0.161-0.859,0.041
	c-0.191,0.091-0.406,0.119-0.614,0.082c0-0.045-0.014-0.089-0.041-0.124c-0.22,0.137-0.484,0.181-0.736,0.124
	c0.001-0.045-0.014-0.089-0.041-0.124c-0.264,0.146-0.582,0.16-0.859,0.041c-0.2,0.107-0.433,0.137-0.654,0.082
	c-0.048-0.023,0.033-0.1-0.082-0.082c-0.249,0.104-0.529,0.104-0.777,0c-0.25,0.133-0.557,0.102-0.775-0.079
	c-0.499-0.045-0.984-0.185-1.431-0.412c0-0.13,0.058-0.077-0.082-0.124c-0.232,0.021-0.46-0.071-0.614-0.247
	c-0.023-0.021-0.052-0.035-0.083-0.04c-0.214-0.006-0.425-0.063-0.613-0.166v-0.123c-0.301-0.02-0.587-0.135-0.818-0.33
	c-0.218,0.02-0.436-0.039-0.614-0.164c-0.008-0.148,0.061-0.086-0.082-0.125c-0.288,0.17-0.6-0.399-0.7-0.453
	c-0.038-0.022-0.08-0.037-0.123-0.041c-0.212-0.204-0.331-0.487-0.327-0.782c-0.039,0.02-0.084,0.02-0.123,0
	c-0.093-0.464-0.079-0.942,0.041-1.4c0.056-0.135,0.185-0.239,0.245-0.37H0.818c-0.239,0.135-0.503,0.219-0.777,0.246L0,23.139
	c0.084-0.113,0.077-0.3,0.164-0.412c0.153-0.199,0.313-0.106,0.327-0.494c-0.023-0.137-0.037-0.273-0.041-0.412
	c-0.026-0.079-0.122-0.2-0.164-0.288L0.2,21.573v-0.041C0.178,21.51,0.164,21.48,0.159,21.45c0.091-0.164,0.106-0.36,0.041-0.536H0
	l0.041-0.082H0c0.075-0.127,0.172-0.239,0.286-0.332c0.108-0.021,0.217-0.035,0.327-0.041c0.207-0.068,0.379-0.268,0.613-0.33
	c0.3-0.079,0.632,0.075,1.023,0v-0.163l-0.164-0.041v0.041h0.042c0.079,0.032-0.082,0.041-0.082,0.041
	c0.001-0.22-0.014-0.44-0.045-0.659h0.045v-0.041l0.164,0.084c0.014,0.207,0.348,0.133,0.654,0.123
	c0.022,0.022,0.051,0.037,0.082,0.041l0.123,0.288c0.031-0.005,0.06-0.02,0.081-0.043c0.019-0.089,0.08-0.163,0.164-0.2
	c0.024,0.146-0.006,0.156,0.082,0.207c0.087-0.166,0.138-0.162,0.327-0.125c0.017,0.147-0.019,0.101,0.082,0.166
	c0.768-0.152,1.548-0.234,2.331-0.248c0.208,0.043,0.424,0.014,0.613-0.082h-0.94v-0.045h0.163c0.028-0.095,0.028-0.195,0-0.289
	l-0.123-0.041l0.041-0.164l-0.2-0.041l0.041-0.125H5.44v-0.041H5.4l0.123-0.205H5.235c-0.049,0.03-0.106,0.045-0.164,0.041
	L5.03,18.525l0.2-0.166c-0.056-0.041-0.099-0.099-0.123-0.164c0.105-0.138,0.188-0.291,0.245-0.453h-0.9
	c-0.587-0.199-1.189-0.352-1.8-0.453C2.382,17.21,2.16,17.277,2.086,17H1.963c-0.222-0.356-0.293-0.786-0.2-1.195H1.8
	c0.145-0.115,0.269-0.255,0.368-0.412h-0.45V14.9c0.1-0.051,0.3-0.055,0.409-0.125c0.066-0.102,0.168-0.175,0.286-0.205l0.082-0.37
	l0.123-0.041c0.122-0.075,0.267-0.104,0.409-0.082l0.2-0.865C3.072,13.229,2.924,13.143,2.863,13c0.059-0.1,0.087-0.214,0.082-0.329
	c0.117,0,0.106,0.038,0.123-0.165c-0.069,0.008-0.139-0.007-0.2-0.041h0.24c0.023-0.293,0.078-0.583,0.164-0.865
	c0.715-0.133,1.445-0.161,2.168-0.082c0.147-0.041,0.303-0.041,0.45,0C5.884,7.547,5.93,3.48,5.93-0.427v-3.3
	C5.869-4.15,5.883-4.582,5.971-5L6.012,11.521z M6.912,11.521c0.069-0.007,0.139,0.007,0.2,0.041
	C7.042,11.569,6.973,11.555,6.912,11.521z M6.83,11.562h0.082V11.6C6.881,11.597,6.853,11.583,6.83,11.562z M7.157,11.562
	c0.058-0.005,0.115,0.01,0.164,0.041C7.263,11.608,7.206,11.593,7.157,11.562z M7.357,11.603c0.058-0.005,0.115,0.01,0.164,0.041
	c-0.056,0.003-0.112-0.013-0.159-0.044L7.357,11.603z M7.557,11.644c0.058-0.005,0.115,0.01,0.164,0.041
	c-0.055,0.003-0.109-0.012-0.155-0.041H7.557z M5.644,13.993c0.016-0.236,0.04-0.5,0.041-0.783H5.6
	c-0.664-0.073-1.333-0.087-2-0.041c-0.052,0.072-0.081,0.158-0.082,0.247c-0.088,0.21-0.144,0.432-0.164,0.659h2.167
	C5.581,13.971,5.513,14.027,5.644,13.993z M0,20.955c0.022,0.022,0.036,0.051,0.041,0.082H0V20.955z M0.123,21.326
	c0.022,0.021,0.036,0.051,0.041,0.082H0.123V21.326z"/>
</svg>
