<?xml version="1.0" encoding="utf-8"?>
<!-- Generator: Adobe Illustrator 16.0.0, SVG Export Plug-In . SVG Version: 6.00 Build 0)  -->
<!DOCTYPE svg PUBLIC "-//W3C//DTD SVG 1.1//EN" "http://www.w3.org/Graphics/SVG/1.1/DTD/svg11.dtd">
<svg version="1.1" id="Layer_1" xmlns="http://www.w3.org/2000/svg" xmlns:xlink="http://www.w3.org/1999/xlink" x="0px" y="0px"
	 width="40.031px" height="40px" viewBox="0 0 40.031 40" enable-background="new 0 0 40.031 40" xml:space="preserve">
<g>
	<g>
		<path id="fr_amx_13_fl_11_ico" fill="#FFFFFF" d="M14.636,10.407c0.4,0.073,0.477,0.473,0.858,0.543
			c0.037,0.044,0.09-0.043,0.179-0.072c0.062,0.136,0.087,0.286,0.072,0.435c0.118-0.015,0.238-0.015,0.357,0
			c0.027,0.043,0.039,0.094,0.036,0.145c-0.044,0.09-0.069,0.189-0.072,0.29c0.134,0.1,0.153,0.3,0.286,0.4
			c0.436,0.255,0.926,0.405,1.43,0.434c-0.037-0.352-0.012-0.707,0.072-1.05l0.036,1.087h0.072
			c-0.003-0.175,0.034-0.348,0.107-0.507l0.036,0.542c0.267,0.02,0.53,0.067,0.786,0.146c0.584,0.148,1.173,0.185,1.716,0.326
			c0.531,0.069,1.057,0.179,1.572,0.326h0.715c0.352-0.003,0.701,0.046,1.037,0.146c0.11,0.117,0.174,0.271,0.18,0.434
			c0.466-0.022,0.933,0.002,1.394,0.072h10.472c0.139-0.045,0.283-0.07,0.43-0.072v-0.112c0.515-0.042,1.033-0.005,1.537,0.108
			l0.75-0.035c0.369-0.041,0.74-0.041,1.108,0v0.072h0.214v0.869h-0.214v0.071c-0.381,0.027-0.763,0.027-1.144,0l-0.715-0.036
			l-0.071,0.109h-1.466v-0.107c-0.158-0.003-0.314-0.027-0.465-0.072h-7.508c-1.442-0.043-2.887-0.008-4.324,0.108l-0.036,0.253
			c-0.073,0.073-0.157,0.135-0.25,0.182c-0.354,0.127-0.735,0.164-1.108,0.108c-0.645,0-1.277,0.075-2,0.072v0.036
			c0.127,0.086,0.253,0.156,0.393,0.254l0.466,0.507h1.213c0.29,0.081,0.594,0.105,0.894,0.073c0.285,0.15,0.617,0.189,0.93,0.109
			v-0.365h0.215v0.291h0.035l0.037-0.109c0.168-0.113,0.239,0.123,0.285,0.145c0.047,0.022,0.463,0.03,0.645,0.037
			c0.431-0.217,0.922-0.28,1.395-0.182v0.036c-0.109,0.063-0.107,0.075-0.107,0.253c0.41,0.078,0.807,0.212,1.18,0.4
			c-0.058-0.229,0.066-0.462,0.286-0.543c0.226,0.199,0.989,0.3,1.037,0.615c-0.083,0.127-0.155,0.261-0.214,0.4
			c0.053,0.037,0.114,0.063,0.179,0.072c0.003-0.053,0.015-0.104,0.035-0.152h0.036c0.037,0.023,0.007,0.079,0.035,0.036
			c0.084-0.085,0.204-0.126,0.322-0.109c0.051,0.064,0.135,0.093,0.215,0.072c0.039-0.013,0.129-0.126,0.178-0.146
			c0.252,0.006,0.502-0.006,0.752-0.035l0.035-0.109c0.119-0.019,0.239-0.019,0.357,0v-0.104h0.215
			c0.158-0.2,0.338-0.383,0.536-0.543c0.167-0.004,0.335,0.008,0.5,0.037v-0.182h0.179c0,0.438-0.008,0.92-0.035,1.3
			c0.447,0.181,0.961,0.492,1.394,0.616c0.276-0.033,0.551-0.082,0.822-0.145l0.032,0.11l0.68,0.036
			c0.212,0.104,0.443,0.166,0.679,0.182v0.108c0.237,0.114,0.465,0.247,0.679,0.399V18.99c0.102-0.077,0.154-0.2,0.144-0.326h-0.071
			c0.057-0.125,0.082-0.263,0.072-0.4c-0.032-0.014-0.058-0.039-0.072-0.072h0.143v0.072c0.053,0.315,0.028,0.639-0.071,0.942
			c0.194,0.097,0.354,0.248,0.465,0.435c-0.29,0.174-0.524,0.424-0.679,0.725c0.053,0.089,0.111,0.174,0.179,0.253
			c0.044,0.118,0.079,0.239,0.106,0.362c0.061-0.01,0.121-0.021,0.18-0.037c0.017,0.047,0.017,0.099,0,0.146
			c-0.031,0.022-0.068,0.036-0.107,0.036c0,0.283,0.069,0.434,0.072,0.761c0.131,0.037,0.126,0.024,0.143,0.181H37.55
			c0.009,0.242-0.054,0.481-0.179,0.688v0.036h0.036c0.062,0.041,0.101,0.107,0.106,0.182h-0.035v0.035l-0.18-0.072
			c-0.104,0.232-0.236,0.451-0.393,0.652c0.056,0.068,0.068,0.075,0.035,0.145c-0.03,0.023-0.068,0.036-0.106,0.037
			c0,0-0.047-0.101-0.071-0.074v0.037c-0.211,0.121-0.414,0.255-0.609,0.399c0.022,0.058,0.035,0.119,0.037,0.181
			c-0.029,0.019-0.054,0.043-0.071,0.072c-0.06-0.057-0.134-0.094-0.216-0.109c-0.264,0.098-0.481,0.291-0.607,0.543
			c0.01,0.035,0.028,0.015,0,0.037c-0.031,0.022-0.068,0.035-0.107,0.035c-0.057-0.08-0.059-0.076-0.106-0.072
			c-0.238,0.112-0.466,0.246-0.679,0.4c0.051,0.067,0.037,0.162-0.03,0.213c-0.002,0.002-0.004,0.003-0.006,0.004v0.037h-0.036
			v-0.037c-0.029-0.031-0.054-0.068-0.072-0.108c-0.299,0.083-0.555,0.277-0.715,0.543c0.044,0.057,0.023,0.019,0,0.071
			c-0.031,0.023-0.068,0.036-0.107,0.037c-0.057-0.082-0.059-0.076-0.106-0.072c-0.287,0.071-0.524,0.271-0.644,0.543l0.035,0.035
			h-0.07c0,0-0.047,0.101-0.072,0.072v-0.035c-0.029-0.031-0.054-0.068-0.072-0.108h-0.07c-0.26,0.118-0.482,0.306-0.643,0.543
			c0.044,0.058,0.023,0.019,0,0.071c-0.031,0.023-0.068,0.036-0.107,0.037c-0.058-0.101-0.026-0.088-0.106-0.072
			c-0.22,0.066-0.431,0.191-0.679,0.253c0.01,0.079-0.018,0.159-0.072,0.217c-0.027-0.004-0.053-0.017-0.071-0.036
			c-0.029-0.045-0.054-0.094-0.071-0.145c-0.26,0.049-0.523,0.073-0.787,0.072V27.5h-0.284c0.001-0.039-0.013-0.078-0.036-0.109
			c-0.186-0.051-0.381-0.063-0.572-0.035c-0.008,0.015-0.021,0.027-0.035,0.035V27.5h-0.287v-0.145h-0.608
			c-0.009,0.015-0.021,0.027-0.036,0.035V27.5h-0.25v-0.145h-0.645c-0.008,0.015-0.021,0.027-0.035,0.035V27.5h-0.215v-0.145h-0.681
			c-0.036,0.145-0.039,0.139-0.212,0.145c0-0.039-0.012-0.078-0.036-0.109c-0.222-0.057-0.452-0.069-0.679-0.035
			c0,0.039-0.012,0.077-0.036,0.108c-0.042,0.026-0.093,0.04-0.144,0.036c-0.205-0.18-0.492-0.236-0.75-0.145
			c0,0.039-0.013,0.077-0.036,0.108V27.5h-0.107c0.001-0.039-0.013-0.078-0.036-0.109c-0.245-0.061-0.5-0.073-0.75-0.035V27.5
			h-0.143c0-0.039-0.012-0.078-0.036-0.109c-0.245-0.061-0.501-0.073-0.751-0.035V27.5h-0.143c0-0.039-0.013-0.078-0.037-0.109
			c-0.232-0.059-0.477-0.071-0.715-0.035c-0.008,0.015-0.021,0.027-0.035,0.035V27.5h-0.143v-0.145h-0.751
			c-0.009,0.015-0.021,0.027-0.036,0.035V27.5h-0.142v-0.145h-0.751c-0.009,0.015-0.021,0.027-0.036,0.035V27.5
			c-0.039,0-0.076-0.012-0.107-0.036h-0.036v-0.108h-0.753c-0.034,0.123-0.014,0.112-0.143,0.145
			c-0.009-0.015-0.021-0.027-0.036-0.036v-0.108h-0.748c0,0.039-0.012,0.077-0.036,0.108c-0.031,0.023-0.068,0.036-0.107,0.036
			c-0.009-0.015-0.021-0.027-0.036-0.036v-0.108h-0.75c0,0.039-0.012,0.077-0.036,0.108V27.5h-0.108
			c0-0.039-0.012-0.078-0.036-0.109c-0.245-0.061-0.5-0.073-0.751-0.035V27.5h-0.142c0-0.039-0.012-0.078-0.036-0.109
			c-0.246-0.061-0.501-0.073-0.751-0.035V27.5h-0.142c0-0.039-0.012-0.078-0.036-0.109c-0.233-0.059-0.477-0.071-0.715-0.035
			c-0.009,0.015-0.021,0.027-0.036,0.035V27.5h-0.142v-0.145h-0.751c-0.008,0.015-0.021,0.027-0.036,0.035V27.5h-0.143v-0.145
			h-0.751v0.035h-0.032V27.5H12.17v-0.145h-0.754c-0.036,0.133-0.023,0.127-0.179,0.145v-0.145H10.49
			c0,0.039-0.013,0.077-0.036,0.108c-0.043,0.026-0.093,0.04-0.143,0.036v-0.145H9.56c0,0.039-0.012,0.077-0.036,0.108
			C9.493,27.487,9.455,27.5,9.416,27.5v-0.036H9.382v-0.108H8.631v0.035H8.595V27.5l-0.179-0.036v-0.108l-0.75-0.072
			c-0.017,0.071-0.072,0.127-0.143,0.145v-0.037c-0.03-0.055-0.042-0.118-0.036-0.181c-0.229-0.099-0.469-0.171-0.715-0.217
			c-0.042,0.043-0.09,0.079-0.143,0.108v-0.037C6.516,27,6.595,26.941,6.558,26.884c-0.189-0.138-0.41-0.225-0.642-0.253
			c-0.044,0.027-0.081,0.064-0.107,0.109L5.7,26.7c0.023-0.058,0.023-0.123,0-0.181c-0.198-0.15-0.436-0.238-0.684-0.25
			c-0.029,0.031-0.053,0.068-0.071,0.108l-0.107-0.036c0.023-0.058,0.023-0.123,0-0.181c-0.196-0.15-0.432-0.239-0.679-0.253
			c-0.03,0.032-0.054,0.068-0.072,0.109L3.98,25.98c0-0.141,0.018-0.162-0.072-0.217C3.732,25.631,3.52,25.556,3.3,25.547
			c-0.029,0.033-0.053,0.069-0.071,0.109l-0.103-0.039c0-0.141,0.018-0.163-0.071-0.217c-0.185-0.124-0.391-0.21-0.608-0.254
			c-0.029,0.053-0.064,0.102-0.107,0.145c-0.031-0.029-0.067-0.054-0.107-0.072c0.034-0.055,0.034-0.125,0-0.181
			c-0.184-0.194-0.402-0.354-0.643-0.472c-0.062,0.049-0.057,0.063-0.107,0.037c-0.04-0.023-0.066-0.063-0.071-0.109
			c0.08-0.059,0.075-0.059,0.071-0.109c-0.074-0.303-0.268-0.564-0.536-0.724v-0.146c0.121-0.033,0.111-0.014,0.143-0.145
			c-0.074-0.234-0.086-0.484-0.036-0.725c-0.131-0.037-0.126-0.023-0.143-0.181h0.177V22.43h0.036
			c-0.068-0.238-0.056-0.493,0.036-0.724c0.068-0.017,0.131-0.054,0.179-0.106c-0.057-0.021-0.118-0.033-0.179-0.035
			c-0.349,0.134-0.708,0.243-1.072,0.326c-0.037-0.093-0.049-0.192-0.036-0.291c0.088-0.1,0.091-0.264,0.179-0.361
			c0.154-0.121,0.297-0.256,0.429-0.4c-0.07-0.234-0.106-0.479-0.107-0.724c-0.031-0.097-0.137-0.228-0.18-0.328L0.23,19.822
			c-0.031-0.186-0.079-0.367-0.143-0.543c0.02-0.02,0.032-0.045,0.036-0.072H0.087v0.036c-0.028,0.069-0.036-0.072-0.036-0.072
			c0.019-0.02,0.032-0.044,0.036-0.071c-0.093-0.01-0.063,0.018-0.071-0.145c0.095-0.174,0.23-0.322,0.393-0.436
			c0.141-0.033,0.284-0.057,0.429-0.071c0.153-0.062,0.324-0.261,0.465-0.326c0.249-0.063,0.51-0.05,0.751,0.036l0.679-0.072v-0.219
			c-0.182,0-0.1-0.026-0.214,0.072v-0.471c-0.029-0.042-0.045,0.014-0.036-0.035L2.554,17.4c-0.068-0.067-0.107-0.158-0.107-0.254
			c0.069-0.024,0.141-0.037,0.214-0.037c0.056,0.339,0.348,0.229,0.786,0.218c0.053,0.038,0.115,0.062,0.179,0.071
			c-0.004,0.144,0.082,0.273,0.214,0.326l0.036-0.072c-0.04-0.023-0.066-0.063-0.071-0.109h0.143
			c0.004-0.049,0.016-0.098,0.036-0.143h0.071c-0.015,0.088,0.028,0.175,0.107,0.217c0.046-0.078,0.125-0.132,0.214-0.145V17.5
			H4.341c-0.068,0.033,0.075,0.041,0.075,0.041c0.056-0.045,0.018-0.023,0.071,0c0.035,0.069,0.083,0.131,0.143,0.182
			c0.221-0.056,0.449-0.08,0.676-0.072c0.715-0.162,1.449-0.223,2.181-0.182c0.044-0.259,0.185-0.492,0.393-0.652
			c0.031-0.022,0.068-0.035,0.107-0.035v-0.109H6.916L6.88,16.563c0.04-0.021,0.067-0.063,0.071-0.108
			c-0.175-0.098-0.313-0.25-0.393-0.435H6.522l-0.036,0.217h-0.07v-0.071c0.053-0.274,0.065-0.556,0.036-0.833
			c0.073-0.151,0.133-0.309,0.179-0.471c0.227-0.053,0.368-0.319,0.608-0.4c0.274-0.016,0.549-0.002,0.82,0.039
			c0.09-0.035,0.175-0.084,0.25-0.145c0.116-0.058,0.419-0.028,0.536-0.072c0.056-0.525,0.151-1.046,0.286-1.557
			c-0.006-0.208,0.057-0.412,0.179-0.58c0.126-0.042,0.261-0.055,0.393-0.036v-0.147H9.489v-0.073
			c0.382-0.176,0.795-0.275,1.215-0.29c-0.025-0.324-0.2-0.411-0.215-0.761c0.067-0.066,0.156-0.104,0.25-0.109
			c0.063,0.129,0.182,0.223,0.322,0.253v-0.143h0.143v-0.29c0.128-0.015,0.09,0.017,0.143-0.072
			c-0.128-0.015-0.09,0.017-0.143-0.072l0.393-0.036v0.036h0.036v0.072c-0.128,0.015-0.09-0.017-0.143,0.072h0.143
			c0.03,0.117-0.018,0.055,0.072,0.109c0.126-0.125,0.2-0.032,0.322,0c0.064-0.026,1.066-0.5,1.072-0.507h-0.214v-0.072
			c0.32-0.007,0.621-0.055,0.894-0.036v0.145c0.23,0.003,0.459,0.041,0.679,0.109L11.491-3.464h0.071V-3.5h0.036L14.636,10.407z
			 M11.598,10.335c0.039,0,0.076,0.012,0.107,0.036C11.666,10.371,11.628,10.358,11.598,10.335L11.598,10.335z M18.032,11.965
			c0.012,0.011,0.071,0.019,0.036,0.072C18.028,12.019,17.957,11.972,18.032,11.965L18.032,11.965z"/>
	</g>
</g>
</svg>
