<svg xmlns="http://www.w3.org/2000/svg" width="40" height="40" viewBox="0 0 40 40">
  <defs>
    <style>
      .cls-1 {
        fill: #fff;
        fill-rule: evenodd;
      }
    </style>
  </defs>
  <path id="fr_amx_13_dca_40_ico" class="cls-1" d="M17.68,15a0.678,0.678,0,0,0-.1-0.341h0.034a0.685,0.685,0,0,0,.542.375v0.682a2.078,2.078,0,0,1,.915.58L21,17.658a4.578,4.578,0,0,1,.542.341c0.161,0.152.294,0.806,0.44,0.887h2.811v0.171l0.3,0.034v0.137l9.246,0.1a12.023,12.023,0,0,0,2.608-.034H38a0.275,0.275,0,0,0,.2.068c0.578-.1,1.191-0.271,1.8-0.341v1.228H39.966a2.638,2.638,0,0,0-.745-0.136c-0.275-.069-0.638-0.142-0.914-0.2-0.33-.075-0.97.1-1.389,0.034a28.476,28.476,0,0,0-3.658,0l-8.163.068v0.171h-0.3v0.171H22.659v0.034a3.381,3.381,0,0,1,.339.75,10.671,10.671,0,0,1,.677,1.4c0.015,0.05-.061.048-0.068,0.068v0.409H22.354v0.171c0.2,0,.465-0.055.61-0.034a1.453,1.453,0,0,0,.406.034c0.1-.017.1-0.155,0.237-0.1a0.136,0.136,0,0,0,.068.068v-0.1l2.337-.034V22.639h0.237v0.307h0.034c0.059-.1.071-0.1,0.237-0.1a0.776,0.776,0,0,0,.745.171c0.048-.021.117-0.149,0.169-0.171a7.427,7.427,0,0,1,1.253,0v0.034c-0.114.045-.1,0.053-0.1,0.2a7.777,7.777,0,0,0,1.152.409,0.625,0.625,0,0,1,.271-0.512c0.235,0.175,1.04.316,1.084,0.614a2.185,2.185,0,0,0-.2.409,0.228,0.228,0,0,0,.169.068,0.436,0.436,0,0,1,.034-0.136h0.034c0.035,0.022.007,0.074,0.034,0.034a0.413,0.413,0,0,1,.271-0.137,1.068,1.068,0,0,1,.711.512,0.253,0.253,0,0,0-.068.2h0.068a0.361,0.361,0,0,0,.237.068V24.549a1.463,1.463,0,0,1,.407-0.921,0.541,0.541,0,0,0,.406-0.034,1.787,1.787,0,0,0,.339-0.409l0.271-.2a1.588,1.588,0,0,1,.508.068v-0.2h0.2v0.785h0.068A2.729,2.729,0,0,1,35.7,23.56V23.321h0.2v0.512a0.163,0.163,0,0,1,.1.034H35.9v0.409a0.163,0.163,0,0,1,.1.034H35.9v0.444a1.937,1.937,0,0,0,.542.034c0.111-.245.312,0,0.44,0.034H37.29a4.034,4.034,0,0,1,1.118.444,3.275,3.275,0,0,0,.542.444,0.614,0.614,0,0,0,.1-0.171,1.212,1.212,0,0,0-.034-0.648h0.068V24.857h0.034v0.034a2.066,2.066,0,0,1,0,1.024,0.1,0.1,0,0,0,.034.034,0.187,0.187,0,0,0,.135,0,1.231,1.231,0,0,1,.1.239,8.934,8.934,0,0,1-.711.58,0.946,0.946,0,0,0,.169.171c0.093,0.11.068,0.342,0.169,0.444v0.034h0.2v0.137H39.187v0.034h-0.1a4.05,4.05,0,0,1,.068.751c0.114,0.046.14,0.026,0.169,0.171a0.177,0.177,0,0,0-.169.1,4.573,4.573,0,0,0-.169.682c0.11,0.043.089,0.03,0.1,0.171l-0.2-.034a4.239,4.239,0,0,1-.406.648,0.137,0.137,0,0,1,.068.136H38.51v0.034l-0.2-.068c-0.133.186-.482,0.311-0.576,0.478a0.231,0.231,0,0,1,.034.136,0.207,0.207,0,0,0-.068.068,1.433,1.433,0,0,1-.169-0.137,1.423,1.423,0,0,0-.677.546c0.042,0.053.022,0.017,0,.068l-0.034.068a0.415,0.415,0,0,1-.136-0.136,1.214,1.214,0,0,0-.711.546c0.042,0.053.022,0.017,0,.068-0.059.045-.054,0.059-0.1,0.034a0.393,0.393,0,0,1-.068-0.1,1.052,1.052,0,0,0-.711.58c0.008,0.033.027,0.013,0,.034-0.059.045-.054,0.059-0.1,0.034a0.4,0.4,0,0,1-.068-0.1H34.852a2.023,2.023,0,0,1-.643.409,0.672,0.672,0,0,1,0,.2c-0.059.045-.054,0.059-0.1,0.034a0.6,0.6,0,0,0-.135-0.1,2.154,2.154,0,0,1-.644.409c0,0.137.018,0.187-.068,0.239v0.034H33.226V33.557a0.6,0.6,0,0,0-.136-0.1,1.6,1.6,0,0,1-.711.307c0,0.168.011,0.175-.135,0.2-0.033-.139-0.04-0.157-0.2-0.171a1.627,1.627,0,0,1-.643.034L31.363,34h-0.1a0.366,0.366,0,0,0-.169,0V33.864a2.211,2.211,0,0,0-.61-0.034V33.9a0.176,0.176,0,0,0-.034.1H30.178a0.54,0.54,0,0,1-.034-0.171h-0.61V33.9a0.175,0.175,0,0,0-.034.1H29.263V33.864a2.486,2.486,0,0,0-.677-0.034L28.552,34h-0.2l-0.034-.171H27.672c-0.053.138-.043,0.165-0.237,0.171L27.4,33.829H26.723V33.9a0.176,0.176,0,0,0-.034.1H26.52V33.829H25.775L25.741,34H25.605V33.829H24.86c-0.045.115-.026,0.141-0.169,0.171V33.932a0.175,0.175,0,0,1-.034-0.1H23.912a0.537,0.537,0,0,0-.034.171H23.743l-0.034-.171H22.964L22.93,34H22.794V33.829H22.015v0.136A0.475,0.475,0,0,1,21.88,34a0.54,0.54,0,0,1-.034-0.171H21.1a0.54,0.54,0,0,0-.034.171H20.931L20.9,33.829H20.152V33.9a0.176,0.176,0,0,0-.034.1H19.983V33.829H19.2v0.136a0.529,0.529,0,0,1-.169.034V33.829H18.29a0.54,0.54,0,0,0-.034.171H18.12V33.864a2.888,2.888,0,0,0-.779-0.034V33.9a0.176,0.176,0,0,0-.034.1H17.172V33.829H16.393L16.359,34h-0.1a0.54,0.54,0,0,1-.034-0.171H15.478V33.9a0.175,0.175,0,0,0-.034.1H15.309a0.537,0.537,0,0,1-.034-0.171H14.53V33.9a0.175,0.175,0,0,0-.034.1H14.361V33.829H13.582L13.548,34H13.412V33.829H12.667a0.537,0.537,0,0,0-.034.171H12.5a0.54,0.54,0,0,1-.034-0.171H11.719L11.685,34H11.55a0.537,0.537,0,0,1-.034-0.171H10.771L10.737,34H10.6V33.864a2.889,2.889,0,0,0-.779-0.034V33.9a0.175,0.175,0,0,0-.034.1H9.653a0.539,0.539,0,0,1-.034-0.171L8.84,33.8a0.164,0.164,0,0,1-.169.137V33.9H8.637c0-.147.048-0.12-0.034-0.17-0.131-.108-0.429-0.21-0.576-0.307H7.959a0.95,0.95,0,0,0-.1.136,0.121,0.121,0,0,0-.068-0.034,0.7,0.7,0,0,0-.034-0.239,1.636,1.636,0,0,0-.61-0.341,0.394,0.394,0,0,0-.068.1l-0.1-.034a0.672,0.672,0,0,0,0-.2L6.4,32.431c-0.11.039-.118,0.1-0.2,0.068a0.224,0.224,0,0,1,0-.2,2.774,2.774,0,0,0-.644-0.341c-0.053.032-.1,0.124-0.135,0.068a0.137,0.137,0,0,1-.068-0.137,0.175,0.175,0,0,0,.034-0.1,1.492,1.492,0,0,1-.576-0.341c-0.11.039-.118,0.1-0.2,0.068-0.086-.05-0.038.007-0.068-0.1a0.175,0.175,0,0,0,.034-0.1A2.513,2.513,0,0,1,4,30.929a1.211,1.211,0,0,1-.237.1V31H3.726a0.359,0.359,0,0,0,0-.2,2.577,2.577,0,0,0-.677-0.478c-0.064.061-.027,0.063-0.1,0.034-0.03-.025-0.038-0.043-0.068-0.068a0.617,0.617,0,0,0,.1-0.171,1.184,1.184,0,0,1-.339-0.682h-0.2A0.117,0.117,0,0,0,2.4,29.36V29.292a0.172,0.172,0,0,0,.135-0.2l-0.2-.034a0.712,0.712,0,0,1-.813.58,0.516,0.516,0,0,1-.373-0.239,0.582,0.582,0,0,1-.068-0.375,0.507,0.507,0,0,1,.135-0.068,0.172,0.172,0,0,1,.1-0.034v0.171a0.612,0.612,0,0,0,.2.171,0.446,0.446,0,0,0,.237.034,0.469,0.469,0,0,0,.169-0.444H1.9a0.269,0.269,0,0,0-.3-0.2,1.578,1.578,0,0,1-1.05.2C0.53,27.961.867,27.5,0.881,26.7H0.1c0-.838.011-1.948,0.034-2.525-0.089-.013-0.044.025-0.068-0.068A6.95,6.95,0,0,1,.2,23.048a4.6,4.6,0,0,1,1.219-.034l0.034,0.1a0.454,0.454,0,0,1,.034.239,3.048,3.048,0,0,0,.542-0.239A0.256,0.256,0,0,0,2.1,22.844H2.371v0.034a0.481,0.481,0,0,0-.169.034,0.864,0.864,0,0,0,.068.171,0.292,0.292,0,0,0,.169.034,5.971,5.971,0,0,1,1.118.068,21.874,21.874,0,0,0,3.251-.034V23.014H4.979V22.639H3.116a3.7,3.7,0,0,1-.1-1.467,0.175,0.175,0,0,1-.034-0.1,6.166,6.166,0,0,1-1.118.2,1.8,1.8,0,0,1-1.219-.989,1.279,1.279,0,0,1,.1-0.989,1.784,1.784,0,0,1,.711-0.887l0.2-.068a3.475,3.475,0,0,1,.2-0.307,1.765,1.765,0,0,1,1.05-.239v-0.2a4.293,4.293,0,0,0,.745-0.375c0.719-.323,1.407-0.626,2.1-0.989a2.936,2.936,0,0,1,2.3-.443v-0.2a1.4,1.4,0,0,1,.745.136V15.577H9.077C9.062,15.413,9,15.3,8.975,15.167a1.383,1.383,0,0,1,.135-0.546,1.473,1.473,0,0,1,1.05-.341,0.535,0.535,0,0,1,.237.409,0.657,0.657,0,0,1-.068.375,0.884,0.884,0,0,1,.136.648h0.2a1.453,1.453,0,0,1,.034-0.444,1.638,1.638,0,0,1,0,.444,9.625,9.625,0,0,1,1.084,0h2.4v-0.1h0.2V15.44h0.169a0.874,0.874,0,0,1,1.084-.614,1.411,1.411,0,0,0,.542.239,0.487,0.487,0,0,0,.034-0.136,4.04,4.04,0,0,1-.3-1.024c-0.231-.695-0.4-1.425-0.643-2.149-0.406-1.222-.7-2.5-1.118-3.753-0.319-.963-0.678-1.991-0.915-3h0.068a4.443,4.443,0,0,0,.3.989c0.2,0.6.352,1.2,0.542,1.774,0.553,1.662.983,3.349,1.524,4.981,0.2,0.6.353,1.2,0.542,1.774,0.073,0.221.014,0.47,0.271,0.512A2.707,2.707,0,0,1,17.68,15Zm-7.045.171a0.175,0.175,0,0,1,.034.1H10.635v-0.1ZM0,24.242a0.123,0.123,0,0,1,.034.068H0V24.242Z" transform="translate(0 0.5)"/>
</svg>
