<?xml version="1.0" encoding="utf-8"?>
<!-- Generator: Adobe Illustrator 16.0.0, SVG Export Plug-In . SVG Version: 6.00 Build 0)  -->
<!DOCTYPE svg PUBLIC "-//W3C//DTD SVG 1.1//EN" "http://www.w3.org/Graphics/SVG/1.1/DTD/svg11.dtd">
<svg version="1.1" id="Layer_1" xmlns="http://www.w3.org/2000/svg" xmlns:xlink="http://www.w3.org/1999/xlink" x="0px" y="0px"
	 width="40px" height="40px" viewBox="0 0 40 40" enable-background="new 0 0 40 40" xml:space="preserve">
<path id="Color_Fill_1" fill="#FFFFFF" d="M10.024,12.897h0.095c-0.025,0.238-0.029,0.452-0.031,0.733
	c0.42,0.042,0.844,0.031,1.261-0.032c-0.079-0.047-0.058-0.04-0.063-0.159h-0.128c0.041-0.156,0.062-0.317,0.063-0.478h0.189v0.123
	h0.19v-0.155c0.373-0.085,0.753-0.128,1.135-0.128c0.325,0.113,0.665,0.178,1.009,0.191c0.053-0.392,0.053-0.788,0-1.179v0.1H13.3
	v-0.129h-0.03c-0.042,0.042-0.099,0.065-0.158,0.064c0.007,0.17,0.047,0.192,0.063,0.351h-0.031v0.032h-0.063
	c-0.023-0.048-0.055-0.092-0.095-0.128c-0.1-0.21,0.061-0.409-0.221-0.446c-0.059-0.029-0.125-0.04-0.189-0.032
	c-0.001,0.236-0.033,0.472-0.095,0.7c-0.061,0.021-0.125,0.032-0.189,0.032v-0.066c0.11-0.292,0.087-0.618-0.063-0.892l0.095-0.032
	c0.271-0.043,0.544-0.064,0.819-0.064c0.217-0.205,0.492-0.338,0.788-0.382c0.108,0.058,0.196,0.146,0.252,0.255
	c0.021,0.029,0.032,0.064,0.031,0.1c0.623,0,1.381,0.044,1.954,0.032v0.127h-0.061c-0.175-0.048-0.36-0.048-0.536,0v0.128h-1.355
	c-0.142,0.107-0.233,0.269-0.252,0.446L14,13.375h0.063v0.223c0.138-0.01,0.276,0,0.41,0.032c0.022-0.117,0-0.087,0.095-0.128
	c0.027-0.021,0.061-0.032,0.095-0.032v0.159h0.284l-0.031-0.159c0.172-0.02,0.34-0.062,0.5-0.127v0.255
	c0.145,0.034,0.292,0.056,0.441,0.064c0.115-0.084,0.243-0.148,0.378-0.191c0.382,0.042,0.75,0.172,1.072,0.382v0.064
	c-0.092,0-0.044-0.031-0.095,0h0.032c0.427,0.269,1.66,0.124,1.891,0.542c0.088,0.119,0.123,0.269,0.095,0.414h0.41v-0.064
	c-0.023-0.038-0.034-0.083-0.031-0.127c0.279,0.021,0.549,0.108,0.788,0.255c0.18,0.06,0.272-0.074,0.347,0.1
	c0.042,0.145,0.053,0.297,0.031,0.446c1.039,0.076,2.081,0.097,3.121,0.064h1.293c0.797,0.082,1.6,0.094,2.399,0.032h0.662
	c0.798,0.082,1.601,0.093,2.399,0.032H31.3c0.733,0.08,1.472,0.09,2.207,0.031l4.101,0.032c0.226-0.063,0.459-0.097,0.693-0.1
	c0.262,0.196,0.602,0.255,0.914,0.159c0.236-0.152,0.537-0.164,0.785-0.033v0.542c-0.213,0.078-0.436,0.121-0.662,0.127
	c-0.268-0.183-0.601-0.241-0.914-0.159c-0.199,0.172-0.472,0.232-0.725,0.159c-0.387-0.131-0.798-0.165-1.2-0.101
	c-1.021,0-2.09,0.032-3.151,0.032c-4.139,0-8.465,0.087-12.578,0.159c0.008,0.182-0.004,0.363-0.031,0.542
	c-0.467,0.046-0.677,0.247-1.135,0.287l0.031-0.224H19.48l-0.032,0.543h-0.441v0.063c0.021,0.029,0.032,0.064,0.031,0.101
	c0.419-0.045,0.84-0.066,1.261-0.064c0.185,0,0.364,0.045,0.441,0.032c0.143-0.024,0.3-0.108,0.441-0.127v0.159
	c0.469,0.041,0.902,0.271,1.199,0.637c0.039-0.027,0.081-0.049,0.126-0.064c0.093,0.155,0.567,0.82,0.914,0.543
	c0.026-0.03,0.048-0.064,0.063-0.101c-0.049-0.004-0.095-0.026-0.127-0.063v-0.06l0.096-0.032c0.147-0.061,0.316,0.01,0.377,0.157
	c0,0.001,0,0.001,0.001,0.002c-0.052,0.02-0.095,0.055-0.126,0.101h0.125c0.148-0.002,0.297-0.023,0.441-0.064
	c-0.018,0.031-0.018,0.068,0,0.1c0.18-0.075,0.371-0.119,0.566-0.128c-0.001,0.036,0.01,0.071,0.032,0.101
	c0.175-0.093,0.37-0.137,0.567-0.127c0,0.1-0.011,0.093,0.158,0.1c0.039-0.092-0.037-0.066,0.094-0.1
	c0.262,0.139,0.559,0.195,0.852,0.158v0.101c0.049-0.007,0.093-0.028,0.126-0.064c0.116,0.115,0.287,0.154,0.44,0.101
	c0.232,0.143,0.436,0.326,0.601,0.541H27.8v0.033h-0.03c0.018,0.04,0.027,0.083,0.032,0.127H27.9v0.015h-0.035
	c0.017,0.04,0.027,0.084,0.031,0.128c0.035,0,0.068,0.011,0.096,0.031c-0.018,0.018-0.028,0.041-0.032,0.064
	c0.034,0,0.067,0.012,0.095,0.032c0.066,0.304,0.109,0.613,0.127,0.924c-0.048,0.617-0.404,1.169-0.947,1.466v0.101
	c-0.291,0.173-0.598,0.322-0.914,0.446c0.002,0.035-0.01,0.07-0.031,0.1c-0.003-0.024-0.014-0.047-0.031-0.064
	c-0.057,0.064-0.1,0.141-0.126,0.223c-0.1,0.144,0,0.649-0.095,0.925c-0.084-0.017-0.169-0.017-0.252,0v-0.075
	c0.012-0.107,0.002-0.216-0.031-0.318h-0.096c-0.029-0.056-0.061-0.108-0.096-0.16c-0.007-0.074-0.007-0.148,0-0.223
	c-0.233,0.232-0.623,0.301-0.851,0.542c-0.003-0.024-0.014-0.046-0.03-0.063c-0.35,0.262-0.73,0.476-1.136,0.637
	c-0.054-0.085-0.026-0.007-0.126-0.032c0.002,0.036-0.01,0.071-0.031,0.101c-0.35,0.064-0.688,0.171-1.01,0.318l-0.252,0.032
	c-0.012,0.038-0.033,0.073-0.063,0.101c-0.015-0.035,0.012-0.101-0.063-0.064l-0.032,0.1c-0.127-0.022-0.257-0.012-0.378,0.032
	v0.049c-0.175-0.051-0.36-0.051-0.536,0c-0.624,0.11-1.258,0.152-1.891,0.127H7.092c-0.309-0.128-0.643-0.182-0.977-0.159
	c-0.12-0.107-0.287-0.145-0.441-0.1c0.001-0.036-0.01-0.071-0.032-0.1c0,0-0.006,0.123-0.032,0.063V24.91l-0.063,0.031
	c-0.025-0.038-0.058-0.072-0.095-0.1c-0.037-0.06-0.014,0.008-0.063,0.032c0.001-0.036-0.01-0.071-0.032-0.101
	c-0.084-0.006-0.168-0.016-0.252-0.031c0.001-0.036-0.01-0.072-0.032-0.1c0,0-0.006,0.123-0.032,0.063v-0.05L4.98,24.684
	c-0.025-0.039-0.058-0.072-0.095-0.1c-0.037-0.061-0.014,0.008-0.063,0.032c0.001-0.036-0.01-0.071-0.032-0.101
	c-0.003,0.025-0.015,0.047-0.032,0.064c0.001-0.036-0.01-0.071-0.032-0.1c-0.142-0.038-0.28-0.092-0.41-0.16
	c-0.295-0.194-0.628-0.324-0.977-0.381c0.001-0.037-0.01-0.072-0.032-0.101c-0.003,0.024-0.015,0.047-0.032,0.063
	c0.001-0.035-0.01-0.07-0.032-0.1v0.064c-0.048-0.069-0.113-0.124-0.189-0.159c-0.027,0.024-0.036,0.04-0.063,0.063
	c0.001-0.035-0.01-0.07-0.032-0.1c-0.073,0.151-0.251-0.244-0.378-0.255c-0.035,0.058-0.079-0.125-0.126-0.159H2.364
	c-0.027-0.165-0.118-0.313-0.252-0.414c-0.003-0.055-0.014-0.108-0.032-0.16c-0.017,0.018-0.028,0.04-0.032,0.064
	c-0.068,0.207-0.068,0.43,0,0.637c-0.028,0.066-0.06,0.129-0.095,0.191l-0.032,0.51C1.88,24.09,1.845,24.113,1.826,24.15
	c-0.054-0.025-0.058-0.084-0.095-0.032C1.65,24.234,1.713,24.27,1.51,24.277c-0.039-0.026-0.082-0.048-0.126-0.064
	c-0.043,0.08-0.109,0.146-0.189,0.191c-0.044-0.016-0.087-0.037-0.126-0.064c-0.058-0.048-0.1-0.109-0.158-0.158
	c0.014-0.047,0.035-0.09,0.063-0.129H0.883c-0.076,0.07-0.185,0.094-0.283,0.062c-0.017-0.073-0.028-0.147-0.032-0.224
	c-0.078-0.059-0.151-0.122-0.221-0.19l0.031-0.316c-0.017-0.069-0.106-0.153-0.126-0.223l0.032-0.351
	c-0.017-0.058-0.108-0.127-0.126-0.194l0.032-0.478c-0.091-0.495-0.112-1-0.063-1.5c-0.012-0.039-0.034-0.073-0.063-0.101V20.13
	c-0.085-0.14-0.073-0.319,0.031-0.446c0.057-0.054,0.086,0.026,0.095-0.158c0.07-0.075,0.036-0.025,0.032-0.159
	c-0.062-0.066-0.093-0.16-0.158-0.224v-0.031h0.031c0.021-0.018,0.074-0.049,0.095-0.064c0.136-0.1-0.006-0.042,0.063-0.158
	c0.007-0.012,0.061,0.045,0.095-0.064c-0.09,0.01-0.065,0.033-0.126,0h0.03c0.038-0.023,0.082-0.035,0.126-0.032
	c0.233,0.081,0.492,0.044,0.693-0.101l-0.032-0.1c0.195,0.023,0.392-0.012,0.567-0.1c0.028-0.065,0.04-0.137,0.033-0.208
	c0.229-0.026,0.453-0.093,0.661-0.193c0.127-0.003,0.254,0.007,0.378,0.032c0.223-0.042,0.393-0.1,0.63-0.159
	c-0.017-0.04-0.028-0.084-0.032-0.128c0.313,0.055,0.42-0.3,0.63-0.191c0.051-0.028,0.072-0.121,0.126-0.063
	c0.021,0.028,0.032,0.063,0.032,0.101c0.103,0.02,0.2,0.063,0.284,0.127c-0.003-0.045,0.008-0.09,0.032-0.127v0.123h0.096v-0.16
	h0.095v-0.19h3.782c-0.002-0.075-0.013-0.15-0.032-0.224h0.347c0.163,0.044,0.333,0.055,0.5,0.033h1.261
	c0.057,0.164,0.089,0.336,0.095,0.51h0.095c0.016-0.115,0.059-0.225,0.126-0.319c0.132-0.041,0.272-0.052,0.41-0.032v-0.574
	l-4.7-0.414c-0.012-0.082,0.023-0.041-0.063-0.063l0.095-0.765H6.462c-0.308,0.291-0.771,0.342-1.135,0.127
	c-0.364-0.408-0.505-0.969-0.378-1.5C5.01,14.211,5.074,14.2,5.138,14.2c0.052,0.315,0.063,0.637,0.032,0.956
	c0.065,0.148,0.149,0.288,0.252,0.414c0.078,0.053,0.163,0.096,0.252,0.127c0.165,0.031,0.335-0.005,0.473-0.1
	c0.343-0.359,0.524-0.843,0.5-1.339c0-0.15,0.022-0.301,0.063-0.446c0.106-0.077,0.138-0.009,0.158-0.191h2.998
	c0.005-0.245-0.005-0.49-0.032-0.733h0.095c0.012-1.979,0.032-4.087,0.032-6.118V5.153C9.93,4.93,9.941,4.703,9.992,4.484
	C9.991,7.284,10,10.154,10.024,12.897z M25.279,18.568c0.056-0.006,0.111,0.006,0.158,0.033
	C25.383,18.607,25.328,18.596,25.279,18.568z M25.658,18.568h0.063v0.033h-0.063V18.568z M24.586,18.602
	c0.043,0.003,0.086,0.014,0.126,0.031v0.032C24.66,18.672,24.611,18.646,24.586,18.602z M25.658,18.633h0.158v0.032h-0.063v0.032
	C25.713,18.693,25.677,18.669,25.658,18.633z M25.941,18.633c0.035,0,0.068,0.012,0.096,0.032
	C26.002,18.666,25.969,18.654,25.941,18.633z M26.068,18.633c0.034,0,0.067,0.012,0.095,0.032
	C26.129,18.666,26.096,18.654,26.068,18.633z M23.861,18.665c0.045-0.004,0.09,0.008,0.127,0.032
	C23.943,18.701,23.898,18.689,23.861,18.665L23.861,18.665z M26.162,18.665h0.063v0.032C26.201,18.693,26.179,18.683,26.162,18.665
	L26.162,18.665z M23.137,18.697c0.043-0.004,0.088,0.008,0.125,0.031c-0.045,0.004-0.088-0.008-0.125-0.033V18.697z M24.936,18.697
	c0.045-0.004,0.09,0.008,0.127,0.031c-0.046,0.004-0.092-0.007-0.129-0.033L24.936,18.697z M26.449,18.697h0.063v0.031
	c-0.025-0.002-0.049-0.014-0.066-0.033L26.449,18.697z M24.18,18.729c0.055-0.006,0.109,0.006,0.157,0.032
	c-0.056,0.007-0.111-0.005-0.16-0.032H24.18z M26.512,18.729c0.045-0.003,0.089,0.008,0.127,0.032
	c-0.047,0.005-0.092-0.007-0.13-0.032H26.512z M26.891,18.92l0.123,0.064v0.031H26.95c-0.028-0.027-0.05-0.06-0.063-0.096H26.891z
	 M27.3,19.02c0.056,0.016,0.108,0.037,0.158,0.064v0.032c-0.069,0.004-0.133-0.037-0.158-0.101V19.02z M27.959,19.684h0.063v0.032
	h-0.03v0.032C27.974,19.73,27.963,19.708,27.959,19.684z M28.021,19.716c0.027,0.03,0.048,0.063,0.063,0.101
	C27.982,19.764,28.023,19.805,28.021,19.716z M28.085,20.13c0.017,0.018,0.028,0.04,0.031,0.063h-0.031V20.13z M28.307,20.576
	c0.026,0.038,0.026,0.089,0,0.127h-0.033C28.277,20.66,28.289,20.617,28.307,20.576L28.307,20.576z M28.148,21.5
	c0.041,0.042,0.064,0.1,0.063,0.159H28.18v-0.063C28.16,21.568,28.148,21.535,28.148,21.5L28.148,21.5z M28.211,21.5
	c0.018,0.018,0.027,0.04,0.031,0.064h-0.031V21.5L28.211,21.5z M27.645,22.3c0.025,0.03,0.047,0.063,0.063,0.101
	c-0.107-0.055-0.063-0.017-0.063-0.104V22.3z M27.707,22.3c0.017,0.018,0.027,0.04,0.031,0.064h-0.031v-0.067V22.3z M26.887,22.811
	l0.096,0.031v0.032H26.95v0.032h-0.031v-0.035c-0.017-0.018-0.028-0.04-0.032-0.064V22.811z M2.017,22.874
	c0.027,0.06,0.015,0.024,0,0.101H1.986L2.017,22.874z M26.257,23.161l0.095,0.032v0.031c-0.041-0.004-0.076-0.029-0.095-0.066
	V23.161z M2.49,23.572c0.043,0.004,0.086,0.014,0.126,0.031v0.032H2.585c-0.049,0.04-0.016,0.021-0.063,0
	C2.505,23.619,2.494,23.596,2.49,23.572z M24.934,23.891l0.094,0.032v0.031C24.988,23.95,24.952,23.927,24.934,23.891z
	 M3.184,24.018h0.063v0.032C3.223,24.047,3.201,24.035,3.184,24.018z M3.279,24.018h0.062v0.032H3.31
	C3.288,24.055,3.248,24.052,3.279,24.018L3.279,24.018z M24.271,24.241l0.096,0.032v0.031C24.326,24.301,24.29,24.277,24.271,24.241
	L24.271,24.241z M3.94,24.305c0.047,0.014,0.083,0.053,0.095,0.101H3.972C3.92,24.314,3.946,24.396,3.94,24.305z M23.577,24.561
	l0.095,0.031v0.032C23.632,24.619,23.597,24.596,23.577,24.561L23.577,24.561z M4.634,24.624H4.7v0.032H4.665
	C4.643,24.66,4.6,24.657,4.634,24.624z M4.7,24.656h0.06v0.027H4.728C4.706,24.691,4.667,24.689,4.7,24.656z M22.855,24.848
	l0.096,0.031v0.032c-0.041-0.003-0.078-0.027-0.098-0.063H22.855z M5.39,24.975h0.063v0.031H5.422
	C5.4,25.01,5.36,25.008,5.39,24.975z M22.064,25.074c0.055,0.001,0.108,0.012,0.158,0.031v0.028
	c-0.061,0.015-0.124-0.011-0.158-0.063V25.074z M6.115,25.202c0.1,0.026,0.048-0.017,0.095,0.063H6.115v-0.068V25.202z
	 M21.34,25.229l0.096,0.032v0.032C21.395,25.289,21.359,25.266,21.34,25.229z M21.309,25.261c0.034,0.054,0.055,0.034,0,0.064
	V25.261z M6.871,25.361H7v0.063H6.872v-0.067L6.871,25.361z M20.52,25.361h0.127v0.063c-0.053,0.007-0.104-0.021-0.127-0.067V25.361
	z M8.42,25.425h0.122v0.06H8.416V25.42L8.42,25.425z M9.177,25.425H9.3v0.06H9.173V25.42L9.177,25.425z M9.934,25.425h0.126v0.06
	H9.929V25.42L9.934,25.425z M10.691,25.425h0.126v0.032H10.78c-0.08,0.011-0.039,0.047-0.094-0.037L10.691,25.425z M11.447,25.425
	c0.1,0.026,0.048-0.016,0.095,0.064c-0.118-0.019-0.093,0.015-0.1-0.069L11.447,25.425z M12.172,25.425h0.126v0.06h-0.131V25.42
	L12.172,25.425z M12.929,25.425h0.121v0.06h-0.126V25.42L12.929,25.425z M13.685,25.425h0.126v0.06H13.68V25.42L13.685,25.425z
	 M14.442,25.425c0.043,0.004,0.086,0.015,0.126,0.032v0.027h-0.131V25.42L14.442,25.425z M15.198,25.425
	c0.043,0.004,0.086,0.015,0.126,0.032v0.027h-0.131V25.42L15.198,25.425z M15.923,25.425h0.126v0.06
	c-0.053,0.009-0.105-0.018-0.131-0.064L15.923,25.425z M16.679,25.425H16.8v0.06h-0.125V25.42L16.679,25.425z M17.436,25.425h0.126
	v0.06h-0.131V25.42L17.436,25.425z M18.192,25.425h0.126v0.06h-0.13V25.42L18.192,25.425z M18.98,25.425h0.12v0.06h-0.124V25.42
	L18.98,25.425z M19.736,25.425c0.054,0.001,0.108,0.013,0.158,0.032v0.027c-0.062,0.016-0.127-0.01-0.162-0.064L19.736,25.425z"/>
</svg>
