<svg xmlns="http://www.w3.org/2000/svg" width="40" height="40" viewBox="0 0 40 40">
  <defs>
    <style>
      .cls-1 {
        fill: #fff;
        fill-rule: evenodd;
      }
    </style>
  </defs>
  <path id="fr_arl_44_ico" class="cls-1" d="M9.953,17.438h0.071c0,0.259-.017.515-0.024,0.743h1.177V17.966H11.059a1.65,1.65,0,0,0,.071-0.456h0.188v0.12h0.188V17.51a3.972,3.972,0,0,1,1.082-.168,3.164,3.164,0,0,0,1.059.192c0-.279.04-0.519,0.047-0.743h0.165v0.168h0.047v0.384c0,0.3.043,0.536,0.047,0.791h0.165V18.086a0.438,0.438,0,0,1,.282.048v-0.1l0.118,0.024c0.01-.086-0.011-0.06.047-0.1V17.99a0.385,0.385,0,0,1,.024.192c0.126-.009.124-0.041,0.259-0.048l-0.024-.144a1.232,1.232,0,0,0,.541-0.144v0.048a0.453,0.453,0,0,0-.023.216,3.222,3.222,0,0,0,.471.072V18.11h0.047a1.545,1.545,0,0,1,1.388.288v0.048H17.2a0.107,0.107,0,0,0-.118,0v0.048l1.741,0.336c0.078,0.04.145,0.122,0.235,0.168a1.7,1.7,0,0,0,.047.407,1.125,1.125,0,0,0,.471.048l-0.024-.24a8.26,8.26,0,0,0,1.082.264,1.51,1.51,0,0,1,.047.575,2.669,2.669,0,0,1,.565.072h3.859L32.635,20.2l4.941,0.048a2.579,2.579,0,0,1,.753-0.1,1.2,1.2,0,0,0,.941.144,1.743,1.743,0,0,1,.141-0.144,1.731,1.731,0,0,1,.588.12v0.551a1.428,1.428,0,0,1-.612.12,1.345,1.345,0,0,0-.988-0.144,0.307,0.307,0,0,1-.118.168,64.092,64.092,0,0,0-6.777-.048l-2.659.024a7.972,7.972,0,0,0-1.506.024H25.671l-3.012.024a11.346,11.346,0,0,0-1.976.072v0.5a0.746,0.746,0,0,1-.353.048,2.024,2.024,0,0,1-.776.264l0.047-.24H19.412a1.509,1.509,0,0,0-.047.575H18.941v0.048a0.8,0.8,0,0,1,.024.12h0.165V22.329h0.682a0.585,0.585,0,0,1,.212-0.048h0.494a0.3,0.3,0,0,0,.212.048,2.271,2.271,0,0,1,.329-0.12v0.12a1.279,1.279,0,0,1,.847.336,0.887,0.887,0,0,0,.353.312c0.035-.054.076-0.093,0.118-0.072a1.472,1.472,0,0,1,.165.192l-0.024.072a2.125,2.125,0,0,0,.635.48,1.393,1.393,0,0,1,.282-0.048,0.769,0.769,0,0,0,.071-0.168,0.124,0.124,0,0,1-.118-0.144,0.307,0.307,0,0,1,.188-0.048,0.118,0.118,0,0,1,.071-0.024,0.742,0.742,0,0,1,0,.216c-0.076.02-.036-0.012-0.071,0.048,0.128,0.009.138,0.043,0.282,0.048v0.1h0.024a1.722,1.722,0,0,1,.424-0.024c0.292-.063.624,0,0.941-0.072A1.98,1.98,0,0,1,27.765,25.9a2.441,2.441,0,0,1-.377.7,2.584,2.584,0,0,1-.776.527c-0.444.274-.934,0.486-1.388,0.767a15.382,15.382,0,0,1-2.706,1.343l-0.282.048c-0.468.153-.992,0.264-1.506,0.384l-0.471.024a3.96,3.96,0,0,1-.729.024H7.059c-0.433-.1-0.854-0.131-1.247-0.264-0.42-.142-0.83-0.365-1.247-0.551-0.289-.129-0.587-0.27-0.894-0.408A1.774,1.774,0,0,0,2.8,28.2a1.921,1.921,0,0,0-.424-0.575,3.089,3.089,0,0,1-.259-0.575,1.467,1.467,0,0,1-.588.072l-0.024-.072a1.64,1.64,0,0,1,0-.719,0.3,0.3,0,0,0-.165-0.144,0.422,0.422,0,0,1-.424,0A1.212,1.212,0,0,0,.776,26a0.577,0.577,0,0,1,.306-0.6,2.852,2.852,0,0,0-.471-0.743v0.024a0.252,0.252,0,0,0-.047.24,0.979,0.979,0,0,1-.188.288,0.393,0.393,0,0,1-.259.048,0.845,0.845,0,0,1-.071-0.072A0.413,0.413,0,0,1,0,24.918a0.4,0.4,0,0,0,.141-0.312H0.094c0.11,0,.063-0.222.047-0.288a0.6,0.6,0,0,1,.282.048V24.343H0.447V24.319H0.424a4.766,4.766,0,0,0-.376-0.647,0.184,0.184,0,0,0,.165-0.1,1.323,1.323,0,0,1,.024-0.192A0.156,0.156,0,0,1,.329,23.36a0.485,0.485,0,0,0,.212.12,0.792,0.792,0,0,1,.447-0.216c0.018-.036.006-0.087,0.024-0.144H1.035v0.024a0.164,0.164,0,0,1,.024.1c0.2-.024.335-0.123,0.541-0.144a0.815,0.815,0,0,0,.071-0.264,1.515,1.515,0,0,0,.541-0.168,1.2,1.2,0,0,1,.235.072,1.8,1.8,0,0,0,.776-0.24A0.164,0.164,0,0,1,3.2,22.4H3.271v0.048a0.169,0.169,0,0,1,.024.072,1.711,1.711,0,0,0,.471-0.359,0.08,0.08,0,0,1,.047.024c0.016,0.024.03,0.1,0.047,0.12a0.464,0.464,0,0,1,.306.1,0.257,0.257,0,0,1,.024-0.144v0.168H4.259V22.233A0.422,0.422,0,0,1,4.4,22.209a0.612,0.612,0,0,1,.024.192H4.494v-0.36H8.188L8.165,21.8H8.518v0.048h1.765a0.775,0.775,0,0,1,.118.48h0.047c0.018-.016.052-0.032,0.07-0.048l0.118-.288h0.423V21.418a4.734,4.734,0,0,1-.988-0.1c-0.365-.081-0.746-0.021-1.082-0.1-0.439-.1-0.925-0.027-1.341-0.12a4.416,4.416,0,0,1-1.318-.168H6.306c-0.009-.128-0.04-0.127-0.047-0.264H6.329L6.4,20.123H6.353a1.069,1.069,0,0,1-1.153.24l0.024,0.048H5.2a0.251,0.251,0,0,1-.141.024,0.415,0.415,0,0,1-.141-0.407,0.212,0.212,0,0,0,.024-0.12c-0.015-.056-0.078-0.167-0.094-0.24V18.781a0.815,0.815,0,0,1,.141-0.048v0.024H5.012a0.257,0.257,0,0,0,.024.144V18.877a1.2,1.2,0,0,1,.353-0.288,1.758,1.758,0,0,0,.306-0.1c0.11-.075.2-0.188,0.329-0.264l-0.118-.144H5.929V18.062a1.3,1.3,0,0,1,.612.48H6.565V18.517a0.386,0.386,0,0,0,.024-0.192,0.473,0.473,0,0,1,.188,0V18.277a0.164,0.164,0,0,0,.024-0.1H9.812c-0.005-.26-0.035-0.482-0.047-0.743H9.835a0.641,0.641,0,0,1,.047-0.216V9.647A1.841,1.841,0,0,1,9.906,9v5.706A10.972,10.972,0,0,0,10,17.343C9.939,17.349,9.958,17.331,9.953,17.438Zm15.482,5.777a0.193,0.193,0,0,1,.118.024A0.194,0.194,0,0,1,25.435,23.216Zm0.776,0.024a0.394,0.394,0,0,1,.141.024v0.024H26.282C26.264,23.271,26.23,23.256,26.212,23.24Zm-1.529.024a0.243,0.243,0,0,1,.141.024C24.725,23.295,24.739,23.324,24.682,23.264Zm-0.659.048h0.047V23.36H23.953V23.336A0.112,0.112,0,0,0,24.024,23.312Zm-0.729.024h0.047v0.048H23.224V23.36A0.112,0.112,0,0,0,23.294,23.336Zm3.835,0.24a0.09,0.09,0,0,1,.071.048h0.024v0.024A0.128,0.128,0,0,1,27.129,23.575Zm0.635,0.647a0.838,0.838,0,0,1,.071.072v0.048H27.812V24.319A0.172,0.172,0,0,1,27.765,24.223ZM0.024,24.63H0.071v0.024A0.08,0.08,0,0,1,.024,24.63Zm28.047,0.48a0.416,0.416,0,0,1,.047.144H28.071V25.11Zm-0.118.959a0.127,0.127,0,0,1,0,.12H27.906V26.164A0.172,0.172,0,0,0,27.953,26.069Zm-0.518.791h0.047a0.068,0.068,0,0,1-.024.024,0.29,0.29,0,0,1-.094.1A0.394,0.394,0,0,1,27.435,26.86Zm-25.482.5a0.163,0.163,0,0,1,.047.12H1.976V27.435A0.123,0.123,0,0,1,1.953,27.363Zm24.753,0a0.112,0.112,0,0,1,.071.024H26.729a0.27,0.27,0,0,1-.071.048V27.387A0.08,0.08,0,0,0,26.706,27.363ZM2,27.483a0.087,0.087,0,0,1,.024.048H2V27.483Zm24.047,0.24a0.112,0.112,0,0,1,.07.024H26.071C26.054,27.75,26.025,27.748,26.047,27.723Zm-0.635.36h0.047a0.068,0.068,0,0,1-.023.024,0.272,0.272,0,0,1-.071.048V28.106A0.081,0.081,0,0,0,25.412,28.082Zm-22.894.072a0.089,0.089,0,0,1,.071.048H2.612v0.024A0.127,0.127,0,0,1,2.518,28.154Zm22.235,0.288a0.112,0.112,0,0,1,.071.024H24.777a0.274,0.274,0,0,1-.071.048V28.466A0.081,0.081,0,0,0,24.753,28.442Zm-21.529.12,0.118,0.024v0.048H3.318C3.29,28.606,3.251,28.59,3.224,28.562ZM24.094,28.8h0.047v0.024A0.08,0.08,0,0,1,24.094,28.8Zm-0.047.024h0.047v0.024A0.079,0.079,0,0,1,24.047,28.825Zm-20.118.048L4.024,28.9v0.048H4A0.845,0.845,0,0,1,3.929,28.873Zm19.482,0.24h0.047a0.068,0.068,0,0,1-.023.024,0.119,0.119,0,0,1-.071.024V29.137A0.08,0.08,0,0,0,23.412,29.113Zm-18.8.072a0.5,0.5,0,0,1,.118.048v0.024H4.682A0.832,0.832,0,0,1,4.612,29.185ZM22.706,29.4c-0.008.044,0.017,0.03-.047,0.048V29.425A0.081,0.081,0,0,0,22.706,29.4Zm-17.388.1,0.071,0.024v0.024H5.318V29.5Zm0.071,0.048H5.435v0.024H5.388V29.545Zm16.588,0.072c-0.009.044,0.014,0.038-.071,0.048a0.068,0.068,0,0,1-.023.024V29.64A0.15,0.15,0,0,0,21.977,29.616ZM6.071,29.76l0.118,0.048v0.024H6.141A0.184,0.184,0,0,1,6.071,29.76Zm15.106,0.048a0.112,0.112,0,0,1,.071.024H21.224a0.157,0.157,0,0,1-.094.024V29.832A0.08,0.08,0,0,0,21.177,29.808Zm-14.329.12H6.965v0.048H6.918C6.9,29.96,6.865,29.945,6.847,29.928Zm13.529,0h0.094v0.024H20.447C20.38,29.985,20.381,29.984,20.377,29.928ZM7.6,29.976A0.245,0.245,0,0,1,7.741,30,0.243,0.243,0,0,1,7.6,29.976Zm0.776,0A0.194,0.194,0,0,1,8.494,30,0.194,0.194,0,0,1,8.376,29.976Zm0.753,0A0.194,0.194,0,0,1,9.247,30,0.194,0.194,0,0,1,9.129,29.976Zm0.729,0A0.194,0.194,0,0,1,9.976,30,0.194,0.194,0,0,1,9.859,29.976Zm0.753,0a0.194,0.194,0,0,1,.118.024A0.194,0.194,0,0,1,10.612,29.976Zm0.729,0a0.194,0.194,0,0,1,.118.024A0.194,0.194,0,0,1,11.341,29.976Zm0.753,0a0.194,0.194,0,0,1,.118.024A0.194,0.194,0,0,1,12.094,29.976Zm0.729,0a0.194,0.194,0,0,1,.118.024A0.194,0.194,0,0,1,12.824,29.976Zm0.753,0a0.194,0.194,0,0,1,.118.024A0.194,0.194,0,0,1,13.577,29.976Zm0.753,0a0.194,0.194,0,0,1,.118.024A0.194,0.194,0,0,1,14.329,29.976Zm0.729,0a0.194,0.194,0,0,1,.118.024A0.194,0.194,0,0,1,15.059,29.976Zm0.753,0a0.194,0.194,0,0,1,.118.024A0.194,0.194,0,0,1,15.812,29.976Zm0.729,0a0.194,0.194,0,0,1,.118.024A0.194,0.194,0,0,1,16.541,29.976Zm0.753,0a0.194,0.194,0,0,1,.118.024A0.194,0.194,0,0,1,17.294,29.976Zm0.753,0a0.194,0.194,0,0,1,.118.024A0.194,0.194,0,0,1,18.047,29.976Zm0.776,0a0.194,0.194,0,0,1,.118.024A0.194,0.194,0,0,1,18.824,29.976Zm0.753,0a0.194,0.194,0,0,1,.118.024A0.194,0.194,0,0,1,19.577,29.976Z" transform="translate(0 0.5)"/>
</svg>
