<?xml version="1.0" encoding="utf-8"?>
<!-- Generator: Adobe Illustrator 16.0.0, SVG Export Plug-In . SVG Version: 6.00 Build 0)  -->
<!DOCTYPE svg PUBLIC "-//W3C//DTD SVG 1.1//EN" "http://www.w3.org/Graphics/SVG/1.1/DTD/svg11.dtd">
<svg version="1.1" id="Layer_1" xmlns="http://www.w3.org/2000/svg" xmlns:xlink="http://www.w3.org/1999/xlink" x="0px" y="0px"
	 width="39.969px" height="40px" viewBox="0 0 39.969 40" enable-background="new 0 0 39.969 40" xml:space="preserve">
<path id="fr_amx_10rc_ico" fill="#FFFFFF" d="M12.269,14.344v-0.067c0.297-0.051,0.599-0.066,0.9-0.045
	c0.104-0.022,0.207-0.052,0.307-0.089c0.105,0.044,0.216,0.074,0.329,0.089c0.007-1.725,0.015-3.449,0.022-5.174v-1.4
	c-0.026-0.186-0.019-0.375,0.022-0.557c0,2.336,0.02,4.8,0.044,7.136h0.526v-0.362c0.096,0.003,0.191-0.005,0.285-0.022v-0.045
	c-0.057-0.279-0.079-0.564-0.066-0.848c0.293-0.079,0.596-0.116,0.9-0.111c0.025,0.065,0.063,0.126,0.11,0.178
	c0.012,0.198-0.018,0.396-0.088,0.58l0.022,0.268h0.153c0.011,0.217-0.004,0.434-0.044,0.647c0.38,0.09,0.771,0.128,1.162,0.111
	V14.5c-0.061-0.051-0.14-0.075-0.219-0.067c-0.109,0.075-0.242,0.106-0.373,0.089c-0.009-0.098-0.023-0.194-0.044-0.29
	c0.02-0.027,0.035-0.057,0.044-0.089c-0.009-0.045-0.1-0.155-0.11-0.2c0.023-0.033,0.039-0.072,0.044-0.112
	c-0.056-0.138-0.123-0.272-0.2-0.4c-0.135-0.008-0.2-0.019-0.2-0.178c0.209,0.042,0.422,0.064,0.636,0.067
	c0.041-0.018,0.112-0.116,0.153-0.134h0.438c0.407-0.04,0.817,0.006,1.205,0.134c0.14,0.024,0.284,0.009,0.416-0.045h0.026
	l-0.022,0.045h0.022c0.245,0.052,0.498,0.06,0.745,0.022l1.688,0.045c-0.007,0.029-0.007,0.06,0,0.089h-0.025
	c-0.248-0.028-0.498-0.028-0.745,0l-1.841,0.04v0.045h0.329c0.173,0.036,0.35,0.051,0.526,0.045v0.089h-0.044
	c-0.261,0.042-0.526,0.049-0.789,0.022v0.112c-0.082,0-0.054-0.027-0.066,0.067c0.036,0.168,0.051,0.341,0.044,0.513
	c-0.051,0.036-0.117,0.044-0.175,0.022c0.048-0.242,0.063-0.49,0.044-0.736c-0.067-0.004-0.135,0.003-0.2,0.022
	c0.025,0.033,0.067,0.073,0.044,0.089c-0.111,0.063-0.249,0.054-0.351-0.022l-0.022,0.111h0.373v0.045
	c-0.132-0.02-0.267-0.012-0.395,0.022l0.022,0.045h-0.086v0.045c-0.198-0.002-0.396-0.018-0.592-0.045v0.045
	c-0.029,0.03-0.045,0.07-0.044,0.111c-0.052-0.01-0.104-0.025-0.153-0.045c-0.03-0.1,0.027-0.1-0.11-0.112
	c-0.086,0.039-0.186,0.031-0.263-0.022h0.044v-0.042c-0.072-0.104-0.096-0.234-0.066-0.357h-0.153v0.067h0.109v0.223
	c-0.057,0.006-0.043,0-0.044,0.111c0.027,0.064,0.027,0.136,0,0.2h0.067v0.134c0.255-0.019,0.512-0.019,0.767,0
	c0.031,0.056,0.054,0.116,0.066,0.178c0.009-0.005,0.017-0.013,0.022-0.022c0.043-0.125,0.08-0.251,0.109-0.379h0.022
	c-0.045,0.164-0.029,0.338,0.044,0.491c0.032-0.057,0-0.025,0.066-0.045v0.045c-0.023,0.021-0.046,0.043-0.066,0.067
	c0.031,0.092,0.068,0.181,0.11,0.268c0.11-0.007,0.22-0.022,0.329-0.045v0.111c0.311,0.026,0.619,0.078,0.921,0.156
	c0.208,0.05,0.261-0.065,0.482,0l0.329,0.156c0.007-0.093,0-0.082,0.066-0.111c0.104-0.051,0.225-0.051,0.329,0
	c0.011-0.06,0.069-0.1,0.129-0.089c0,0,0.001,0,0.002,0c0.093,0.146,0.204,0.28,0.33,0.4c0.213,0.061,0.436,0.083,0.656,0.067v0.067
	h0.373c0,0.06,0.008,0.12,0.021,0.178l0.201,0.022l0.065,0.089c0.165-0.028,0.333-0.043,0.5-0.045c0.2,0.05,0.41,0.15,0.592,0.2
	h0.658l1.512-0.022c0.046-0.013,0.114-0.078,0.153-0.089c0.079-0.007,0.158,0.017,0.219,0.067h4.889
	c0.43-0.034,0.863-0.027,1.293,0.022h4.01c0.527-0.02,1.055-0.005,1.578,0.045c-0.006-0.163-0.021-0.344-0.021-0.535h0.68
	c0,0.241-0.013,0.456,0,0.647c0.063-0.009,0.121-0.032,0.174-0.067c0.236-0.072,0.524,0.013,0.746-0.067
	c0.179-0.116,0.381-0.192,0.592-0.223c0.232,0.208,0.4,0.479,0.481,0.782c-0.1,0.066-0.511,0.528-0.548,0.534
	c-0.191-0.04-0.372-0.124-0.525-0.245l-0.326-0.02c-0.41-0.084-0.829-0.121-1.248-0.111v0.111H37.27
	c-0.279,0.073-0.57,0.089-0.855,0.045h-2.301l-5.741,0.021h-2.08c-0.2,0-0.386-0.007-0.526,0h-0.263
	c-0.028,0.045-0.065,0.082-0.108,0.111c-0.041-0.034-0.086-0.064-0.133-0.089H25.24v0.019c-0.254,0.053-0.494,0.047-0.768,0.111
	c-0.555,0.119-1.124,0.149-1.688,0.089c-0.111-0.026-0.266-0.084-0.352-0.11l-0.285,0.021c-0.07-0.046-0.157-0.063-0.24-0.045
	l-0.021,0.066l-0.373,0.067c-0.068,0.12-0.149,0.231-0.242,0.334h0.153c0.103-0.021,0.209-0.014,0.308,0.022
	c0.343-0.023,0.687-0.023,1.029,0c0.006,0.009,0.014,0.017,0.022,0.021v0.072h0.329v0.156h0.021
	c0.039-0.065,0.102-0.113,0.176-0.135v0.022c0.026,0.087,0.033,0.179,0.021,0.269c0.061,0.006,0.119,0.021,0.175,0.045
	c0.034,0.219,0.085,0.436,0.153,0.646h0.066c-0.001,0.024,0.007,0.048,0.021,0.066c0.033-0.018,0.072-0.025,0.109-0.021
	c0.002,0.053,0.01,0.105,0.022,0.156c0.033,0.027,0.07,0.051,0.11,0.066v0.022h-0.043c-0.023-0.024-0.055-0.039-0.088-0.044
	c-0.003,0.031-0.01,0.061-0.022,0.089c0.085-0.002,0.169,0.021,0.241,0.067l0.679,0.089c0.033-0.042,0.063-0.087,0.089-0.134h-0.021
	v-0.023c-0.079,0-0.047,0.033-0.066-0.045c0.071-0.027,0.059-0.02,0.066-0.111h0.066l0.021-0.111h0.087
	c0.291,0.107,0.593,0.182,0.899,0.224c0.369,0.114,0.773,0.17,1.162,0.29c0.277,0.1,0.563,0.166,0.855,0.2
	c0,0.046-0.007,0.091-0.021,0.134c0.029,0.002,0.06,0.01,0.088,0.021c-0.117,0.27-0.287,0.514-0.5,0.715
	c0.033,0.037,0.074,0.078,0.109,0.111c-0.002,0.018-0.01,0.033-0.021,0.045c-0.047,0.072-0.09,0.061-0.11,0.111
	c0.078,0.086,0.151,0.175,0.22,0.268c-0.008,0.055-0.022,0.107-0.045,0.156c-0.017,0.09,0.037,0.129,0.022,0.223
	c-0.101,0-0.078,0.113-0.066,0.269h-0.026v0.022h-0.066v-0.447c-0.074-0.066-0.166-0.113-0.264-0.135
	c-0.024,0.023-0.055,0.038-0.088,0.045c-0.047-0.004-0.08-0.079-0.109-0.045c-0.164,0.188-0.311,0.388-0.438,0.601
	c-0.146,0.206-0.336,0.399-0.482,0.601c-0.092,0.18-0.21,0.346-0.352,0.49l-0.5,0.223c-0.449,0.236-0.932,0.477-1.381,0.715
	c-0.189,0.064-0.373,0.146-0.548,0.244c-0.04,0.063-0.069,0.129-0.088,0.201c-0.056,0.105-0.087,0.043-0.11,0.066
	c-0.014,0.051-0.021,0.104-0.021,0.156c0,0.01-0.165,0.236-0.176,0.244h-0.09l-0.045,0.135c-0.063,0.084-0.137,0.158-0.219,0.223
	l-0.066-0.021l-0.109,0.156c-0.063,0.049-0.13,0.094-0.2,0.133l-0.088-0.021l-0.088,0.111c-0.076,0.045-0.157,0.082-0.241,0.111
	l-0.109-0.022c-0.121,0.093-0.266,0.146-0.416,0.155v-0.039c-0.147,0.057-0.303,0.088-0.461,0.09
	c-0.158-0.034-0.32-0.049-0.481-0.045c-0.018-0.072,0.011-0.034-0.044-0.067c-0.296-0.017-0.583-0.108-0.833-0.269v-0.065
	c-0.054-0.001-0.107-0.017-0.153-0.045c-0.103-0.045-0.188-0.124-0.241-0.224c-0.124-0.066-0.234-0.156-0.325-0.264
	c-0.002-0.031,0.006-0.063,0.022-0.089c-0.036-0.018-0.072-0.032-0.11-0.045c-0.078-0.08-0.146-0.17-0.2-0.269
	c-0.035-0.153-0.103-0.299-0.2-0.424c0.009-0.031,0.024-0.062,0.044-0.088c-0.171-0.031-0.345-0.039-0.518-0.025h-1.164
	c0,0.023-0.007,0.047-0.022,0.066v0.022h-0.066c-0.012,0.156-0.057,0.308-0.131,0.446l-0.066-0.022
	c0.008,0.183-0.109,0.348-0.285,0.399c-0.036,0.166-0.164,0.297-0.329,0.336c-0.026,0.043-0.048,0.088-0.066,0.134
	c-0.073,0.062-0.154,0.114-0.241,0.155l-0.088-0.021l-0.11,0.135c-0.07,0.037-0.143,0.066-0.219,0.088l-0.11-0.021
	c-0.049,0.04-0.1,0.077-0.153,0.111c-0.078,0.026-0.159,0.041-0.241,0.045c-0.022,0-0.01-0.053-0.066-0.045
	c-0.024,0-0.218,0.074-0.285,0.089c-0.055,0.005-0.11-0.011-0.153-0.045c-0.109,0.015-0.219,0.022-0.329,0.022
	c-0.347-0.088-0.684-0.207-1.008-0.357v-0.065l-0.153-0.022c-0.117-0.174-0.486-0.34-0.57-0.512l0.022-0.09
	c-0.035-0.018-0.072-0.033-0.11-0.045c-0.069-0.073-0.128-0.156-0.175-0.245c-0.001-0.03,0.007-0.062,0.022-0.089l-0.11-0.089
	c-0.037-0.1-0.081-0.196-0.132-0.29l0.044-0.066h-0.043c-0.151-0.037-0.309-0.045-0.463-0.023H9.81
	c-0.02,0.051-0.049,0.096-0.088,0.134v0.156c-0.025,0.073-0.094,0.168-0.132,0.245l-0.066-0.022c-0.011,0.155-0.083,0.298-0.2,0.399
	c-0.029,0.006-0.058,0.016-0.084,0.027c-0.046,0.098-0.105,0.188-0.175,0.269c-0.042,0.03-0.108,0.01-0.153,0.045
	c-0.045,0.034-0.034,0.106-0.066,0.134c-0.074,0.062-0.155,0.113-0.241,0.156l-0.088-0.021l-0.11,0.133
	c-0.07,0.037-0.144,0.067-0.219,0.09l-0.11-0.022c-0.108,0.07-0.227,0.123-0.351,0.156c-0.068,0.008-0.041-0.054-0.11-0.045
	c-0.014,0-0.073,0.062-0.088,0.067C7.42,25.502,7.305,25.495,7.2,25.454c-0.153,0.019-0.308,0.019-0.46,0l-0.022-0.067
	c-0.117-0.002-0.233-0.011-0.349-0.027c-0.037-0.021-0.067-0.052-0.088-0.088l-0.2-0.022c-0.074-0.026-0.165-0.101-0.241-0.134
	c0-0.083,0.026-0.055-0.066-0.067c-0.249-0.148-0.471-0.337-0.658-0.558l0.022-0.067c-0.036-0.06-0.155-0.089-0.2-0.155
	c-0.031-0.049-0.058-0.1-0.081-0.151l0.022-0.089c-0.057-0.046-0.108-0.098-0.153-0.156c-0.044-0.1-0.036-0.225-0.066-0.29
	c-0.226-0.173-0.468-0.322-0.723-0.446c-0.477-0.306-0.974-0.621-1.447-0.937l-0.329-0.183c-0.026-0.048-0.057-0.093-0.092-0.135
	c-0.14-0.081-0.259,0.028-0.285-0.178H1.679v0.045c-0.027,0.146-0.042,0.297-0.044,0.445H1.591v-0.045
	c-0.022-0.095-0.037-0.191-0.044-0.289c-0.171,0.061-0.361-0.004-0.46-0.156c-0.016-0.104-0.008-0.211,0.022-0.313H1.043v-0.066
	c0.044-0.055,0.081-0.114,0.11-0.178c0.079-0.043,0.152-0.096,0.216-0.158c-0.133-0.271-0.244-0.555-0.329-0.846
	c-0.014-0.118-0.051-0.232-0.11-0.334H0.079c-0.06-0.248-0.075-0.506-0.044-0.759c-0.063-0.163-0.078-0.342-0.044-0.514
	c0.028-0.011,0.058-0.019,0.088-0.021c0.041,0.033,0.045,0.041,0.09,0.021c0.02-0.042,0.027-0.089,0.022-0.134
	c-0.139-0.193-0.139-0.454,0-0.647c0.2-0.153,0.392,0.151,0.592,0h0.019v-0.022H0.78v-0.021c-0.082,0-0.054,0.027-0.066-0.066
	c0.038-0.021,0.075-0.043,0.11-0.067c0.254-0.03,0.511-0.038,0.767-0.022c0.027,0.012-0.01,0.043,0.088,0.045
	c0.118,0,0.086-0.033,0.11-0.045h0.744c0.018-0.072-0.011-0.033,0.044-0.066c0.034,0.02,0.076,0.02,0.11,0v0.066
	c0.417-0.005,0.837,0,1.293,0c0.138-0.021,0.277-0.037,0.416-0.045c0.016,0.035,0,0,0,0.067h0.439v-0.089h0.022
	c0.05,0.046,0.054,0.031,0.132,0c0.007,0.031,0,0.063-0.02,0.089h0.677c0.187-0.077,0.39-0.108,0.592-0.089
	c0.006,0.031-0.002,0.063-0.022,0.089h1.1c0.174-0.03,0.352-0.03,0.526,0h1.376V17.6c-0.028,0.002-0.053,0.02-0.066,0.045h0.132
	c-0.002-0.031,0.005-0.063,0.022-0.09c0.009,0.08-0.01,0.057,0.044,0.09c0.07-0.025,0.145-0.033,0.219-0.022
	c0-0.024,0.008-0.048,0.022-0.067c0.012-0.012,0.027-0.02,0.044-0.021c0.151-0.041,0.31-0.041,0.46,0
	c0.011,0.031,0.025,0.061,0.044,0.089c0.225-0.03,0.454-0.03,0.679,0c0.021-0.088,0.028-0.179,0.022-0.269h-2.7
	c-0.553-0.129-1.125-0.158-1.688-0.088c-0.111-0.086-0.194-0.203-0.241-0.334c-0.014-0.02-0.022-0.043-0.022-0.068H6.084v-0.199
	H5.755v-0.068H5.58c0.011-0.23,0.003-0.461-0.022-0.691h0.066c0.018,0.072-0.011,0.034,0.044,0.067c0.009,0,0.485,0,0.548,0v0.134
	h0.021v-0.023c0.121-0.061,0.204-0.178,0.219-0.312l0.2,0.022c-0.007-0.175,0-0.321,0-0.535c0.112-0.015,0.104-0.06,0.2,0
	c0.275-0.153,0.497-0.386,0.636-0.669c0.085,0.019,0.17-0.029,0.2-0.111c0.129,0.064,0.229,0.176,0.277,0.312
	c-0.037,0.083-0.088,0.159-0.153,0.223c-0.113,0.029-0.204,0.113-0.241,0.223h0.087c0.226-0.125,0.427-0.292,0.592-0.491v-0.067
	c0.117-0.024,0.1-0.086,0.219-0.111c0.133,0.062,0.224,0.189,0.241,0.335c-0.081,0.053-0.143,0.131-0.175,0.223
	c0.166,0.006,0.076,0.036,0.241,0.045c0.379-0.121,0.768-0.211,1.162-0.268V14.79c-0.044-0.098-0.066-0.205-0.066-0.312
	c0.416-0.012,0.75-0.189,1.184-0.2V14.21c0.063-0.029,0.131-0.044,0.2-0.045c0.049,0.033,0.101,0.063,0.153,0.089
	c0.074-0.435,0.088-0.877,0.044-1.316c0.037-0.161,0.044-0.327,0.022-0.491V6.516h0.044v6.422c0.03,0.117,0.038,0.238,0.022,0.357
	v0.914c0.053,0.02,0.035,0.024,0.088,0.045c0.064-0.024,0.133-0.032,0.2-0.022c0.049,0.11,0.166,0.174,0.285,0.156
	C12.17,14.381,12.221,14.366,12.269,14.344z M9.069,14.701c0.052-0.007,0.105,0,0.153,0.022C9.17,14.73,9.117,14.722,9.069,14.701
	L9.069,14.701z M8.869,14.723c0.045-0.006,0.09,0.001,0.131,0.022C8.955,14.751,8.91,14.743,8.869,14.723z M9.242,14.723h0.042
	v0.022c-0.017-0.002-0.032-0.01-0.044-0.022H9.242z M8.694,14.745c0.038-0.005,0.077,0.003,0.11,0.022
	c-0.039,0.005-0.078-0.003-0.112-0.022H8.694z M9.286,14.745c0.175-0.027,0.354-0.02,0.526,0.022
	c-0.176,0.027-0.355,0.02-0.528-0.022H9.286z M9.854,14.816c0.023,0.025,0.023,0.064,0,0.089V14.816z M28.046,19.566
	c0.015,0.02,0.022,0.043,0.022,0.066h-0.022v-0.07V19.566z"/>
</svg>
