<?xml version="1.0" encoding="utf-8"?>
<!-- Generator: Adobe Illustrator 16.0.0, SVG Export Plug-In . SVG Version: 6.00 Build 0)  -->
<!DOCTYPE svg PUBLIC "-//W3C//DTD SVG 1.1//EN" "http://www.w3.org/Graphics/SVG/1.1/DTD/svg11.dtd">
<svg version="1.1" id="Layer_1" xmlns="http://www.w3.org/2000/svg" xmlns:xlink="http://www.w3.org/1999/xlink" x="0px" y="0px"
	 width="40px" height="40px" viewBox="0 0 40 40" enable-background="new 0 0 40 40" xml:space="preserve">
<path id="Color_Fill_1" fill="#FFFFFF" d="M22.195,7.904h0.986c0.373,0.393,0.769,0.764,1.184,1.112l0.199-0.049
	c0.166,0.127,0.314,0.274,0.444,0.437L24.96,9.549c0.138,0.16,0.306,0.291,0.493,0.388c0.23,0.374,0.605,0.637,1.035,0.728
	c0.291,0.075,0.592,0.091,0.889,0.049v-0.046c-0.457-0.258-0.859-0.604-1.184-1.018h0.246c0.136,0.1,0.345,0.1,0.494,0.194
	c0.389,0.415,0.914,0.673,1.479,0.728v0.582h0.247c0.074,0.115,0.109,0.251,0.1,0.388h-0.055c-0.049,0.049,0.049,0.048,0.049,0.049
	v0.049c0.656-0.05,1.316-0.05,1.973,0c1.4,0,2.825,0,4.192,0v0.63c-0.86-0.007-1.856,0-2.713,0
	c-0.526-0.029-1.054-0.013-1.578,0.048c-0.606,0.129-1.39-0.126-1.924,0.049c0.056,0.106,0.056,0.232,0,0.339
	c-0.042,0.031-0.155,0.065-0.2,0.1c0.567,0.384,1.067,0.859,1.48,1.406h-0.047c-0.355,0.085-0.723,0.102-1.084,0.049v0.1
	c0.154-0.052,0.326-0.014,0.443,0.1c-0.036,0.058-0.054,0.126-0.049,0.194H29.3v0.049c0.64,0.056,1.284,0.056,1.925,0
	c0.012,0.317,0.154,0.616,0.395,0.825c-0.021,0.457,0.363,0.848,0.395,1.406c0.115,0.01,0.222,0.062,0.301,0.146
	c0.123-0.055,0.261-0.072,0.395-0.049c0.138,0.126,0.309,0.21,0.493,0.242l0.2-1.552h-0.101c0,0.266-0.03,0.408-0.3,0.436
	c-0.048-0.322-0.048-0.648,0-0.97h0.2l0.147,0.485h0.049v-0.057c0.025-0.094,0.076-0.178,0.148-0.242v0.049
	c-0.186,0.63-0.287,1.283-0.3,1.94c0.552,0.183,1.081,0.427,1.578,0.727c0.161,0.045,0.326,0.078,0.493,0.1
	c0.27,0.178,0.55,0.339,0.839,0.485l0.2-0.048c0.076,0.086,0.158,0.167,0.246,0.242h0.301l0.049,0.145h1.43
	c0.035-0.165,0.086-0.328,0.148-0.484c0.079-0.03,0.162-0.046,0.246-0.049v0.049h0.05c0.026,0.279,0.122,0.246,0.147,0.533h0.642
	c0.151,0.18,0.284,0.375,0.396,0.582c-0.297-0.043-0.6-0.025-0.889,0.049c-0.113,0.096-0.168,0.242-0.148,0.389
	c0.059,0.418,0.059,0.843,0,1.261l0.101,0.05c-0.042,0.076-0.075,0.157-0.101,0.241c0.017,0.072,0.051,0.14,0.101,0.194
	c-0.05,0.236-0.134,0.465-0.247,0.679l0.049,0.146c-0.048,0.055-0.2,0.033-0.247,0.1c-0.122,0.213-0.271,0.408-0.444,0.582
	c0.043,0.152,0.013,0.384,0.049,0.582c0.386-0.148,0.567,0.1,0.543,0.534c-0.127,0.134-0.308,0.204-0.492,0.194
	c-0.042,0-0.043,0.023-0.2,0.049v0.193h-0.101c0.006-0.068-0.011-0.137-0.049-0.193v0.048h-0.057
	c-0.16,0.284-0.199,0.633-0.345,0.97c-0.493,1.086-1.372,1.949-2.466,2.425c-2.767,1.14-6.182-0.784-6.362-3.2l-0.247-0.049
	l-0.2-0.582H13.416c-0.1,0.48-0.369,0.561-0.986,0.534c-0.027,0.026-0.063,0.044-0.1,0.05c-0.085,0.57-0.324,1.106-0.691,1.551
	c-1.081,1.609-3.045,2.382-4.932,1.94c-1.519-0.399-3.325-1.825-3.453-3.54l-0.395-0.049c-0.043-0.059-0.077-0.125-0.1-0.193
	c-0.04-0.094-0.04-0.199,0-0.291H2.614c0,0.104-0.036,0.207-0.1,0.291v-0.059H2.466c-0.06-0.104-0.094-0.221-0.1-0.34H2.219
	c-0.168-0.231-0.476-0.357-0.641-0.582c-0.172-0.378-0.467-0.686-0.838-0.872v-0.194c-0.087-0.063-0.192-0.098-0.3-0.1
	c-0.062-0.221-0.096-0.449-0.1-0.68C0.13,21.629,0.014,21.703,0,21.338c0.273-0.423,0.442-0.904,0.493-1.406
	c-0.084-0.053-0.139-0.143-0.148-0.242C0.1,19.545,0,19.689,0,19.301c0.29-0.072,0.494-0.332,0.493-0.631
	c-0.042-0.42-0.026-0.845,0.049-1.261c1.005,0.013,2.01-0.035,3.009-0.145v-0.291c1.595,0.011,3.142-0.169,4.686-0.242v0.194
	l0.691-0.049c-0.001-0.052,0.017-0.104,0.049-0.145c0.293-0.05,0.591-0.067,0.888-0.049c0.863-0.188,1.827-0.011,2.762-0.145
	c0.342-0.063,0.69-0.08,1.036-0.049c0.041,0.074,0.058,0.158,0.049,0.242h0.395v-0.1c0.076-0.427,0.226-0.837,0.444-1.212l0.2-0.1
	c0.15-0.241-0.061-0.544,0.247-0.63c0.652,0.103,1.313,0.137,1.973,0.1v-0.046c-0.05-0.123-0.067-0.257-0.049-0.388
	c0.155,0.052,0.326,0.014,0.444-0.1h-1.139c0.064-0.611,0.197-1.212,0.395-1.794c-0.037-0.387-0.037-0.777,0-1.164l0.148-0.048
	l0.049-0.437c0.055,0.021,0.117,0.001,0.148-0.049c0.122-0.309,0.114-0.692,0.2-0.97c0.19-0.632,0.135-1.789,0.493-2.231
	c0.042-0.029,0.093-0.045,0.145-0.045c0.421,0.092,0.855,0.109,1.282,0.049c1.114,0,1.956,0.007,3.058,0v0.1
	C22.186,7.738,22.203,7.821,22.195,7.904z M38.175,24.055c0.054,0.271-0.12,0.387,0.345,0.387c0.025-0.053,0.059-0.103,0.101-0.146
	c-0.005-0.038-0.021-0.073-0.05-0.101l-0.049-0.145h-0.347V24.055z M3.107,24.296l0.049,0.291h0.05
	C3.193,24.484,3.159,24.386,3.107,24.296L3.107,24.296z M12.429,24.587h0.2v-0.101c-0.053-0.051-0.088-0.119-0.1-0.193h-0.1v0.291
	V24.587z"/>
</svg>
