<svg xmlns="http://www.w3.org/2000/svg" width="39.969" height="40" viewBox="0 0 39.969 40">
  <defs>
    <style>
      .cls-1 {
        fill: #fff;
        fill-rule: evenodd;
      }
    </style>
  </defs>
  <path id="fr_b1_bis_ico" class="cls-1" d="M11.185,6h0.186c0.019,0.5-.031,1.345-0.031,2V8.681a6.029,6.029,0,0,1,0,.9v9.26h0.217V19H11.371v0.062H11.4a0.66,0.66,0,0,0,.4.312,0.548,0.548,0,0,0-.093.125L11.8,19.531c-0.03.049-.113,0.093-0.062,0.125,0.045,0.1.075,0.053-.031,0.125,0.029,0.049.113,0.093,0.062,0.125a0.261,0.261,0,0,0-.062.093h0.062a1.02,1.02,0,0,0,.434.031v0.312h0.031a1.114,1.114,0,0,1,.651-0.249,3.378,3.378,0,0,1,1.084-.062H16.3a2.066,2.066,0,0,1,.062-0.5l0.093-.031a0.836,0.836,0,0,1,.465-0.062c0.7,0,.728.573,1.146,0.811l0.217,0.031c0.278,0.095.621,0.21,0.9,0.312l0.31,0.062a0.731,0.731,0,0,1,.093.156,2.958,2.958,0,0,0,1.642.624V21.215a0.149,0.149,0,0,1-.093-0.031h0.031c0.118-.105.5-0.047,0.558-0.125a0.671,0.671,0,0,0,.124-0.125,0.212,0.212,0,0,1-.093-0.187,6.991,6.991,0,0,1-1.518-.062l-0.155-.218c-0.066-.892.711-1.619,0.805-2.463H20.852v0.031a0.361,0.361,0,0,0-.062.094H20.759V18.1a0.211,0.211,0,0,1-.031-0.125,1.055,1.055,0,0,1,.186-0.249h0.124l0.093-.312a2.453,2.453,0,0,1,.31-0.561,2.493,2.493,0,0,1,.806-0.062,0.639,0.639,0,0,0,0-.249,1.022,1.022,0,0,1,.4-0.062c0.038,0.077.055,0.048,0.093,0.125,0,0-.09.041-0.062,0.062h0.031a0.55,0.55,0,0,0,.062.125V16.756H22.8c0.043-.1,0-0.091.186-0.094V16.507a0.535,0.535,0,0,0,.434-0.468c0.079-.128.077-0.488,0.155-0.686a4.151,4.151,0,0,1,2.943-.156c0.177,0.065.368,0.195,0.558,0.249V15.2H27.2a3.433,3.433,0,0,1,.031.9H27.08a0.814,0.814,0,0,1,.062.374,0.351,0.351,0,0,0-.093.218,0.432,0.432,0,0,0,.124.156,3.147,3.147,0,0,0,.837.249c0.373,0.124.822,0.21,1.208,0.374a1.123,1.123,0,0,0,.5.187V17.6a1.079,1.079,0,0,1-.4-0.343,0.663,0.663,0,0,1,.217-0.031c0.127,0.091.3,0.1,0.434,0.187,0.167,0.111.3,0.333,0.465,0.436a4.625,4.625,0,0,0,.651.125V18.44h0.186c0.04,0.08.059,0.241,0.093,0.343l4.4,0.093V18.814h0.4v0.5c-0.566,0-1.258,0-1.89,0a5.077,5.077,0,0,0-1.023.031H32.688a7.564,7.564,0,0,0-1.363.062v0.281a2.547,2.547,0,0,0-1.116.592,0.263,0.263,0,0,0-.031-0.156c-0.118.175-.342,0.268-0.465,0.436a2.33,2.33,0,0,0-.186.405,1.014,1.014,0,0,1,.155.125c0-.122-0.015-0.14.062-0.187a1.869,1.869,0,0,1,.713-0.031V20.778a4.466,4.466,0,0,1,1.208-.094,0.534,0.534,0,0,0,.279.094,0.19,0.19,0,0,1,.062-0.062V20.4H32.44v0.062c0.035,0.058.026,0.223,0.062,0.281a0.571,0.571,0,0,0,.279.031v0.093l0.867-.031a4.762,4.762,0,0,1,.527,1.528c-0.127.067-.3,0.124-0.434,0.187a1.876,1.876,0,0,0,.186.561,1.71,1.71,0,0,0,.372.125,3.05,3.05,0,0,1,.589.343c0.186,0.139.622,0.836,0.744,0.873a2.707,2.707,0,0,0,.713.125,10.125,10.125,0,0,0,2.7.343V25.58a2.883,2.883,0,0,1,.434,3.773,6,6,0,0,1-2.045,1.4A17.131,17.131,0,0,1,32.471,33H8.644c-0.486-.116-1.044-0.217-1.518-0.343-0.278-.074-0.511-0.041-0.775-0.125a3.55,3.55,0,0,1-.527-0.281c-0.51-.267-1.041-0.552-1.549-0.779-0.556-.248-1.062-0.509-1.58-0.78l-0.527-.218-0.248-.281A4.877,4.877,0,0,1,1.332,29.6a1.055,1.055,0,0,0-.186-0.343v0.062a2.087,2.087,0,0,0-.031.717,1.9,1.9,0,0,0,0,.53,1.351,1.351,0,0,1-.062.405c-0.025.121,0.039,0.534,0,.779a0.356,0.356,0,0,1-.31,0,1.189,1.189,0,0,1,0,.281,0.9,0.9,0,0,0-.31.031V32a0.954,0.954,0,0,1,0-.343L0.31,31.628a0.236,0.236,0,0,1,.062-0.187c-0.108-.194-0.026-0.122.031-0.281l-0.062-.312A2.356,2.356,0,0,0,.4,30.163a2.608,2.608,0,0,1,0-1,4.1,4.1,0,0,1,.031-1.59,0.191,0.191,0,0,1-.062-0.062H0.341v0.062a0.937,0.937,0,0,1-.31.624A1.032,1.032,0,0,1,0,27.887a2.982,2.982,0,0,0,.124-0.842c0.086-.349.239-0.718,0.31-1.06a4.091,4.091,0,0,0-.155-1.122,0.254,0.254,0,0,1-.186-0.125H0.217a0.533,0.533,0,0,0,.217.125V24.707A1.312,1.312,0,0,1,.279,23.99l-0.248-.031A1.987,1.987,0,0,1,.279,22.9a0.82,0.82,0,0,0,.4-0.436A0.61,0.61,0,0,1,.62,22.213a10.1,10.1,0,0,0,1.673-.374A0.788,0.788,0,0,1,2.6,21.5a0.767,0.767,0,0,1,.589,0,0.582,0.582,0,0,1,.775-0.156l0.093,0.125L4.493,21.4c0.888-.239,1.874-0.378,2.758-0.623,0.462-.129.934-0.124,1.363-0.281a0.561,0.561,0,0,0,.124.374,3.363,3.363,0,0,1,.713-0.156,2.207,2.207,0,0,1,.868-0.374V20.03h0.5l0.031-.094a0.118,0.118,0,0,1-.093-0.062,0.277,0.277,0,0,0,.093-0.093,0.135,0.135,0,0,1-.093-0.093,0.118,0.118,0,0,0,.093-0.062,0.276,0.276,0,0,1-.093-0.094,0.135,0.135,0,0,0,.093-0.094c-0.071-.042-0.056-0.038-0.062-0.062,0.123-.116.281-0.2,0.4-0.312-0.041-.248.031-0.96,0.031-1.372V14.48c0-2.036,0-4.207,0-6.142C11.217,7.581,11.155,6.606,11.185,6Zm1.022,14.778c0.291,0.031.562,0.123,0.868,0.187l0.031,0.094a0.757,0.757,0,0,1,0,.343h0.651V20.311H12.889V20.186A0.558,0.558,0,0,0,12.208,20.778Zm2.2-.468V21.4a16.114,16.114,0,0,0,1.7,0,1.768,1.768,0,0,0,.186-1.091h-1.89Zm2.045,0c-0.021.494-.059,1.1,0.434,1.091,0.034-.147.121-0.251,0.155-0.374V20.311H16.452Zm0.805,0v0.717a2.274,2.274,0,0,1,.155.374H18V20.685A1.283,1.283,0,0,0,17.258,20.311Zm2.789,1.216V21.433a0.462,0.462,0,0,1,.124-0.062c0.067,0.109.042,0.076,0.186,0.062V21.34a3.247,3.247,0,0,1-.806-0.437A0.152,0.152,0,0,1,19.52,21a2.725,2.725,0,0,0-.868-0.281v0.125a1.268,1.268,0,0,0,.991.561A0.359,0.359,0,0,0,20.047,21.527ZM0.991,23.46a0.151,0.151,0,0,0,.031.094,1.15,1.15,0,0,1,.31-0.312V23.21H1.177a2.134,2.134,0,0,0-.4.031,0.87,0.87,0,0,0-.341.748H0.465a0.111,0.111,0,0,1,.062-0.031,0.532,0.532,0,0,1,.031-0.187A0.106,0.106,0,0,1,.62,23.8c0.021,0.024.041,0.07,0.062,0.094A2.448,2.448,0,0,0,.9,23.678c0.019-.05-0.02-0.154,0-0.218H0.991Z" transform="translate(0 0.5)"/>
</svg>
