<svg xmlns="http://www.w3.org/2000/svg" width="79.906" height="40" viewBox="0 0 79.906 40">
  <defs>
    <style>
      .cls-1 {
        fill: #fff;
        fill-rule: evenodd;
      }
    </style>
  </defs>
  <path id="Color_Fill_1" data-name="Color Fill 1" class="cls-1" d="M23.165,13.52h0.269a2.31,2.31,0,0,1,.09-1.35,2.461,2.461,0,0,0,.269,1.71,0.746,0.746,0,0,1,.718,0l-0.9.09v2.61h0.539v1.17c0.238,0.026.188,0.074,0.18,0.54-0.1.123-.186,0.333-0.269,0.45a1.16,1.16,0,0,1,.629.09c-0.355.209-.235,0.6-0.269,1.17a1.8,1.8,0,0,0,.718,0v0.36c-0.246.145-.087,0-0.09,0.36h0.09a0.988,0.988,0,0,1,1.257.27c0.06-.746.684-0.57,1.616-0.54a0.951,0.951,0,0,0,.09.54c0.037-.322-0.042-0.226.18-0.36a1.561,1.561,0,0,1,1.347-.09,0.579,0.579,0,0,0-.359.09h0.718a0.582,0.582,0,0,0,.09.36,0.436,0.436,0,0,1,.09-0.27c0.169-.033.17,0.042,0.18-0.36,0.291-.075.137,0.044,0.269-0.18a0.425,0.425,0,0,1-.18-0.45,0.708,0.708,0,0,1,.449-0.18V19.46a0.433,0.433,0,0,1-.269-0.09,1.135,1.135,0,0,0,.09-0.9,3.008,3.008,0,0,1,.628,0,0.754,0.754,0,0,0,.09.45,7.682,7.682,0,0,0,0-1.08,8,8,0,0,1,1.616-1.35,1.052,1.052,0,0,0,.449.18,6.272,6.272,0,0,1,.449,3.78h0.18a3.692,3.692,0,0,1,1.437-.09c1.229,0,2.589,0,3.681.09a5.411,5.411,0,0,1,.359-0.9,2.566,2.566,0,0,0-.09-0.72c0.07-.744.083-1.46,0.09-2.34l-0.269.09c-0.106-.679-0.509-0.32-0.539-1.17a1.3,1.3,0,0,1,.808,0V15.05a1.891,1.891,0,0,1-1.167-.09,1.267,1.267,0,0,0,.359-0.63v0.18a0.5,0.5,0,0,1,0,.36h0.269V14.78a0.325,0.325,0,0,1-.09-0.18c0.255,0,.035.071,0.269-0.09v0.36a1.134,1.134,0,0,1,.359.09,1.354,1.354,0,0,1-.18-0.36h0.269a2.885,2.885,0,0,1,.09-0.9,0.606,0.606,0,0,1-.359-0.63h0.539V12.98a0.46,0.46,0,0,1-.09-0.27,0.75,0.75,0,0,0,.449-0.09,0.651,0.651,0,0,1-.179-0.72,0.75,0.75,0,0,0,.449-0.09,0.579,0.579,0,0,1-.359-0.09,0.579,0.579,0,0,0,.359-0.09,0.579,0.579,0,0,1-.359-0.09,0.661,0.661,0,0,1,.539.18c0.074-.292-0.044-0.138.18-0.27l0.09,0.18c0.12,0.163.321,1.054,0.359,1.08l0.09,0.27h0.269v0.45a0.433,0.433,0,0,0-.269.09h0.18l0.09,0.27H42.02a1.724,1.724,0,0,1-.269.63H42.29a0.97,0.97,0,0,1,.539-0.09c0.074,0.292-.044.137,0.18,0.27V14.33c0.544,0,.625-0.016,1.077,0v0.54a2.765,2.765,0,0,1-.718.27v0.27h0.269a1.817,1.817,0,0,0,.09.63c-0.512.053-.463,0.162-0.718,0a1.716,1.716,0,0,0,0,1.17c0.074-.292-0.044-0.137.179-0.27a0.775,0.775,0,0,1,.449-0.09,0.959,0.959,0,0,0,.269.63,0.457,0.457,0,0,0,.269.09v0.27H43.906v0.72a1.433,1.433,0,0,0,.718-0.18c0.1,0.259.068,0.293,0.269,0.36a2.34,2.34,0,0,1,1.347,0v1.71H46.15v0.09a2.365,2.365,0,0,0-.808.09,0.434,0.434,0,0,1,.269.09H45.342v1.62a9.692,9.692,0,0,1,2.155,0V21.8H46.51V20.63c1.088,0.055,2.405.28,3.5,0.36a7.506,7.506,0,0,1,.808-0.09c0.237,0.049.6,0.374,0.9,0.45h3.5v0.27c-0.875-.017-3.3-0.186-3.771.18h0.359v0.99h0.539a0.754,0.754,0,0,1,.09-0.45,0.755,0.755,0,0,0,.09.45c0.1-.149.009-0.055,0.18,0a0.755,0.755,0,0,1,.09-0.45v0.45h0.269a0.754,0.754,0,0,1,.09-0.45,1.53,1.53,0,0,0,.09.54c0.261-.005.125-0.087,0.269,0,0.263,0.35.336,0.282,1.167,0.27v0.09a1.845,1.845,0,0,0-1.347.18h1.8a1.881,1.881,0,0,0,.718,0V23.06h0.988V21.98a1.926,1.926,0,0,1,.629-0.09c0.487,0.293,1.7.082,2.245,0.18,0.187,0.034,1.342.017,1.616,0.09,0.25,0.067.592,0.371,0.9,0.45h3.412v0.18H64.647a6.81,6.81,0,0,1-2.514.09v0.09a0.325,0.325,0,0,1,.09.18h0.269c0.074,0.292-.044.138,0.18,0.27a0.583,0.583,0,0,1,.09-0.36v0.36h1.167c0.025-.233-0.042-0.16.359-0.18a0.6,0.6,0,0,1,.629,0,1.522,1.522,0,0,0-.539.09v0.09h0.359a1.3,1.3,0,0,0,.539-0.36,0.434,0.434,0,0,1-.269-0.09,1.16,1.16,0,0,1,.629.09c-0.291.075-.137-0.044-0.269,0.18h0.359c0.139,0.064.012,0.012,0.269,0a0.436,0.436,0,0,1,.09-0.27v0.27a10,10,0,0,0,2.783-.27,0.579,0.579,0,0,1-.359-0.09,1.749,1.749,0,0,0,.539,0,0.608,0.608,0,0,1,.09.36,6.394,6.394,0,0,0,1.167-.36c1.307,0.546,3.566.1,4.938-.09l-0.09.18h0.09a7.875,7.875,0,0,1,2.245-.09,0.582,0.582,0,0,1,.09-0.36c0.037,0.322-.042.227,0.18,0.36a0.675,0.675,0,0,1,.628,0,4.11,4.11,0,0,0-.09-0.45h0.18c0.069,0.375.047,0.327,0.449,0.36a0.583,0.583,0,0,1,.09-0.36c0.037,0.322-.042.227,0.18,0.36a0.979,0.979,0,0,1,.449,0V22.7h0.09a5.806,5.806,0,0,1,0-.81h0.09A3.867,3.867,0,0,0,80,23.06a1.243,1.243,0,0,0-.539.72c0.227,0.035.142-.052,0.18,0.27a0.731,0.731,0,0,0-.449.18,30.027,30.027,0,0,1-.9,4.32c-0.179,0-.025-0.092-0.179,0,0.077,0.169.042,0.066,0,.27a0.752,0.752,0,0,0-.269-0.18v0.18c0.222,0.116.061-.039,0.18,0.18h-65.9a2.2,2.2,0,0,0-1.975-.63c0.035,0.264.147,0.113-.09,0.27a0.458,0.458,0,0,1-.269.09V28.37H9.428V28.19l0.359-.09V28.01c-0.592-.05-2.841-0.308-3.322,0H8.081a2.465,2.465,0,0,1-.359.9H4.579a14.094,14.094,0,0,1,.09-2.52c-1.482-.3-1.9-1.322-2.6-2.07,0.366-.226.224-1,0.359-1.44H2.6c0.008,0.233-.091.432,0.449,0.45a0.436,0.436,0,0,1,.09-0.27,0.436,0.436,0,0,0,.09.27,0.541,0.541,0,0,0,.359-0.27,2.03,2.03,0,0,0,1.886.18c0.025-.233-0.042-0.16.359-0.18v0.09a0.46,0.46,0,0,0-.09.27c0.289-.13.28-0.107,0.269-0.72H5.926a6.576,6.576,0,0,1-2.155,0V22.16a6.3,6.3,0,0,0,1.167-.27,0.46,0.46,0,0,1,.09.27c2.187,0,4.944-.2,6.824,0v0.27c-1.329.084-2.571,0.262-4.04,0.27v0.09c0.171,0.193.029,0.212,0,.72H8.26a1.34,1.34,0,0,1,.269-0.45,0.436,0.436,0,0,0,.09.27c0.014-.009,2.631-0.313,3.053,0a1.656,1.656,0,0,0-1.257.18h1.347V23.15a5.67,5.67,0,0,1-2.155-.09H13.2c0.051-.469.054-1.192,0.09-1.53a0.731,0.731,0,0,0,.539-0.27,1.844,1.844,0,0,0,.449.18,1.142,1.142,0,0,0-.09-0.36h0.269v0.09h0.09l-0.09.27H14.9c-0.036-.2-0.082-0.1,0-0.27,0.318,0.439,1.383.284,1.975,0.27,0.074,0.292-.044.137,0.18,0.27a3.572,3.572,0,0,1,.9,0,0.583,0.583,0,0,1,.09-0.36,0.583,0.583,0,0,0,.09.36V21.53a1.041,1.041,0,0,0,.18-0.27h-0.9V21.17l1.167-.09a1.161,1.161,0,0,1,.449-0.36l0.988,0.09V20.36h0.539v0.36L20.92,20.9a9.209,9.209,0,0,0-.09.99H21.1c-0.019-.372,0-0.631,0-1.17h0.449a0.672,0.672,0,0,1,.359-0.36,0.323,0.323,0,0,0,.179.09,0.754,0.754,0,0,0-.179.27h0.449c0.041-.568.243-0.619,0.269-1.26H22.267V19.1a0.644,0.644,0,0,0,.539-0.45c-0.2.036-.1,0.083-0.269,0a0.608,0.608,0,0,1-.09-0.36,1.716,1.716,0,0,0,.628-0.27V17.93a0.434,0.434,0,0,1-.269-0.09,2.992,2.992,0,0,0,.09-1.26h0.449a13.707,13.707,0,0,0,0-1.98c-0.067-.079-0.113-0.1-0.18-0.18h0.269V13.97h-0.18V13.88h-0.09a0.951,0.951,0,0,1-.09.54,15.178,15.178,0,0,1,.09-3.42v2.52Zm0.09-.54a0.326,0.326,0,0,1,.09.18h-0.09V12.98Zm16.251,0.18a0.262,0.262,0,0,0,.359,0H39.506Zm0,0.18a0.262,0.262,0,0,0,.359,0H39.506Zm-0.09.99a0.325,0.325,0,0,1,.09.18h-0.09V14.33Zm0.269,0.81c0.074,0.292-.044.137,0.18,0.27V15.14h-0.18Zm0.359,0v0.27H40.4V15.14H40.045Zm0.449,0v0.27h0.359V15.14H40.494Zm0.449,0.27a0.433,0.433,0,0,0,.269-0.09,0.326,0.326,0,0,1-.09-0.18h-0.18v0.27Zm0.9,0V15.14a1.133,1.133,0,0,0-.359.09v0.09h0.09A0.458,0.458,0,0,0,41.841,15.41Zm0.539-.27c0.074,0.292-.044.137,0.18,0.27V15.14h-0.18Zm0.269,0v0.27h0.269V15.14H42.649Zm0.359,0v0.27h0.269V15.14H43.008Zm0.9,0.63a0.325,0.325,0,0,1,.09.18h-0.09V15.77Zm-4.579.27a0.324,0.324,0,0,0,.18.09A0.324,0.324,0,0,0,39.327,16.04Zm-15.174,1.8v0.18h0.09A0.308,0.308,0,0,0,24.153,17.84Zm18.855,0v0.18H43.1V17.84h-0.09Zm0.539,0.36v0.54h0.18V18.65a0.78,0.78,0,0,0,.09-0.45c-0.061-.069-0.118-0.2-0.179-0.27a0.775,0.775,0,0,1-.449.09v0.09h0.09A0.458,0.458,0,0,0,43.547,18.2Zm-30.617-.09c0.165,0.227.147,0.113-.09,0.27l0.449,0.81H13.2a1.08,1.08,0,0,0-1.167-.72,1.066,1.066,0,0,1-.9,0A3.708,3.708,0,0,0,12.929,18.11Zm-2.065.63a0.325,0.325,0,0,1,.09.18h-0.09V18.74Zm32.323,0.09v0.18c0.322-.038.226,0.042,0.359-0.18H43.187Zm2.245,0v0.18h0.09A0.308,0.308,0,0,0,45.432,18.83Zm0.18,0v0.18h0.18V18.83h-0.18Zm0.269,0v0.18H46.15V18.83H45.881ZM30.8,18.92V19.1a0.75,0.75,0,0,0,.449-0.09A1.285,1.285,0,0,1,30.8,18.92Zm-17.508.27a0.491,0.491,0,0,1,.269.36h-0.09V19.46h-0.09Zm17.957,0v0.18h0.18V19.19h-0.18Zm-0.09.27c0.154,0.079.115,0.08,0.269,0H31.156Zm-17.6.09a0.491,0.491,0,0,1,.269.36h-0.09V19.82h-0.09Zm29.63,0.09v0.27h0.359V19.64H43.187Zm0.539,0.09v0.18h0.18V19.73h-0.18Zm0.359,0v0.18h0.18V19.73h-0.18Zm0.359,0v0.18h0.18V19.73h-0.18Zm0.988,0v0.18h0.09A0.308,0.308,0,0,0,45.432,19.73Zm0.18,0v0.18h0.18V19.73h-0.18Zm0.269,0a0.347,0.347,0,0,0,.269.18V19.73H45.881Zm-32.054.18a0.681,0.681,0,0,1,.359.45H14.1V20.27h-0.09A1.357,1.357,0,0,1,13.827,19.91ZM21.908,20H22c0.044,0.248-.05.106-0.18,0.18Zm-18.047.09a0.263,0.263,0,0,1,0,.36V20.09Zm20.561,0v0.18c0.321-.037.226,0.043,0.359-0.18H24.422Zm5.208,0a1.73,1.73,0,0,0,.269.18c0.139-.064.012-0.012,0.269,0v0.09H29.45V20.27C29.672,20.154,29.511,20.309,29.63,20.09Zm-27.654.18H2.6l0.359,0.9a2.555,2.555,0,0,0,1.077-.09c-0.321-.037-0.226.043-0.359-0.18a1.633,1.633,0,0,0,.808-0.09,0.555,0.555,0,0,1-.629-0.27H4.04a1.66,1.66,0,0,1,.808-0.09v0.18c-0.119.156-.155,0.145-0.09,0.27a8.124,8.124,0,0,0,1.347.36,1.915,1.915,0,0,1-.269.45,6.087,6.087,0,0,1-3.771-.54A1.926,1.926,0,0,1,1.975,20.27Zm12.211,0.09a0.491,0.491,0,0,1,.269.36h-0.09V20.63h-0.09Zm-12.929.09H1.526a4.435,4.435,0,0,0,.359.9,10.077,10.077,0,0,1-1.616.54,2.621,2.621,0,0,1-.18-0.9A2.876,2.876,0,0,0,1.257,20.45Zm41.661,1.44h0.449a1.856,1.856,0,0,1,.18-1.44H42.918v0.09A4.064,4.064,0,0,1,42.918,21.89ZM28.911,20.54a0.324,0.324,0,0,0,.18.09A0.324,0.324,0,0,0,28.911,20.54Zm5.028,0.09V20.9c0.234,0.025.177,0,.18,0.45a0.518,0.518,0,0,0-.18.54,0.434,0.434,0,0,0,.269-0.09c-0.248-.242-0.031-0.6,0-1.17H33.939Zm0.359,0V20.9h0.18a2.1,2.1,0,0,0,.988.18V20.9H34.837V20.81a3.479,3.479,0,0,1,1.437.09c-0.291.075-.137-0.044-0.269,0.18h0.629a2.563,2.563,0,0,1,.449-0.18V20.81C36.316,20.753,35.3,20.631,34.3,20.63Zm4.669,0.45h0.269V20.63H36.992v0.09h0.18l0.09,0.27a9.915,9.915,0,0,1,1.706-.18v0.27Zm-24.512-.36a0.491,0.491,0,0,1,.269.36h-0.09V20.99h-0.09Zm23.344,0h0.18v0.09A0.308,0.308,0,0,1,37.8,20.72Zm-32.593.45c0.169,0.16.071,0.166,0.269,0.09h0.18V21.17H5.208Zm38.249,0.09a1.167,1.167,0,0,0,.09.63A1.168,1.168,0,0,0,43.457,21.26Zm-7.632.45c0.2,0.145,1.788.44,2.065,0H36.813A9.1,9.1,0,0,1,35.825,21.71Zm2.155,0a1.238,1.238,0,0,0,.988.18V21.8A5.038,5.038,0,0,0,37.98,21.71Zm-34.3.18c0.1,0.149.159,0.1,0,.18V21.89ZM29.63,21.98v0.36h0.18V22.25a0.46,0.46,0,0,0,.09-0.27H29.63Zm9.248,0.36h0.269a1.145,1.145,0,0,1,.09-0.36H38.968c-0.158.085,0,.02-0.18,0v0.09A0.46,0.46,0,0,1,38.878,22.34Zm0.449-.36c0.154,0.079.115,0.08,0.269,0H39.327ZM4.31,22.07a0.474,0.474,0,0,0,.539,0H4.31Zm-2.065.36h0.18v0.18H2.245V22.43Zm27.385,0v0.36H29.9V22.43H29.63Zm9.248,0a1.275,1.275,0,0,0-.09.36h0.18A0.583,0.583,0,0,0,38.878,22.43Zm6.465,0v0.36l1.437-.09V22.43H45.342Zm1.526,0v0.36h0.09c0.1-.149.009-0.055,0.179,0V22.43H46.869Zm32.5,0a0.325,0.325,0,0,1,.09.18h-0.09V22.43Zm-2.514.09a0.433,0.433,0,0,1,.269.09A0.433,0.433,0,0,1,76.858,22.52Zm-37.8.09v0.18C39.2,22.683,39.167,22.752,39.057,22.61Zm36.184,0a0.579,0.579,0,0,1,.359.09A0.579,0.579,0,0,1,75.241,22.61Zm2.783,0a0.433,0.433,0,0,1,.269.09A0.434,0.434,0,0,1,78.025,22.61Zm-75.69.09h0.18v0.09H2.424v0.09A0.325,0.325,0,0,1,2.334,22.7Zm71.2,0a0.579,0.579,0,0,1,.359.09A0.579,0.579,0,0,1,73.535,22.7Zm2.963,0a0.434,0.434,0,0,1,.269.09A0.434,0.434,0,0,1,76.5,22.7Zm-5.028.09a0.75,0.75,0,0,1,.449.09A0.75,0.75,0,0,1,71.47,22.79Zm1.8,0.09a0.579,0.579,0,0,1,.359.09A0.579,0.579,0,0,1,73.266,22.88Zm-16.251.18v0.36h0.449a0.342,0.342,0,0,1,.18-0.27V23.06H57.015Zm-45.163.09a0.583,0.583,0,0,0,.09.36A0.582,0.582,0,0,0,11.852,23.15Zm0.269,0v0.36H12.57V23.15H12.121Zm-3.412.18v0.18H8.8V23.33H8.709Zm0.18,0v0.18c0.321-.038.226,0.042,0.359-0.18H8.889Zm0.449,0v0.18c0.321-.038.226,0.042,0.359-0.18H9.338Zm3.591,0v0.18h0.09V23.33h-0.09ZM53.6,23.51a0.324,0.324,0,0,0,.18.09A0.324,0.324,0,0,0,53.6,23.51Z" transform="translate(-0.094)"/>
</svg>
