<svg xmlns="http://www.w3.org/2000/svg" width="79.938" height="40" viewBox="0 0 79.938 40">
  <defs>
    <style>
      .cls-1 {
        fill: #fff;
        fill-rule: evenodd;
      }
    </style>
  </defs>
  <path id="Color_Fill_1" data-name="Color Fill 1" class="cls-1" d="M45.63,16.281v0.3c0.256,0.038.128-.074,0.2,0.2a0.7,0.7,0,0,0-.2.693c0.256,0.038.128-.073,0.2,0.2a20.875,20.875,0,0,0-.1,5.447,1.521,1.521,0,0,1,.49-0.1,1.264,1.264,0,0,1,.1-0.4c0.291,0.132.237-.1,0.294,0.4H47.3a14.367,14.367,0,0,0,0-2.08h0.1v-0.1a0.334,0.334,0,0,1,.2.1c0.067,0.076.128,0.221,0.2,0.3v-0.4c0.369-.014.344,0.047,0.49-0.2-0.31,0-.132.168-0.294-0.1a0.335,0.335,0,0,0,.2-0.1,1.187,1.187,0,0,1-.294-0.594h0.1v0.1a3.946,3.946,0,0,0,.294.5c0.15,0.091.384,0.024,0.49,0.1-0.351.041-.246-0.047-0.392,0.2h0.1a1.05,1.05,0,0,0,.587.1v-0.2a0.383,0.383,0,0,1-.2-0.3h0.1v0.1h0.1a3.286,3.286,0,0,1,.294.891h0.1v-0.2c0.086-.11.1,0.1,0.1,0.1a1.309,1.309,0,0,1,.392.594h-0.1a0.535,0.535,0,0,0-.587-0.3v0.1h0.294c0,0.779.029,1.3,0,1.882h0.2c0.127-.244-0.042-0.067.2-0.2v-0.4c0.545,0,.673-0.025,1.077,0l0.1,0.594h0.1V21.728c0.242-.128.067,0.043,0.2-0.2a0.47,0.47,0,0,1-.294-0.1c0.369-.239.051-0.418,0.588-0.594a3.494,3.494,0,0,1-.588-0.991h0.1a1.459,1.459,0,0,0,1.763.991,1.326,1.326,0,0,0,.392.693,0.47,0.47,0,0,0-.294.1c0.326,0.219.1,0.857,0.294,1.189v-0.4h0.392a0.482,0.482,0,0,1,.1-0.3v-0.1h0.294v0.4h0.392v0.3h0.294a1.153,1.153,0,0,1,0-.594h0.1v0.1a0.7,0.7,0,0,1,0,.5,1.393,1.393,0,0,1,.49.1V22.224c0.318-.082.15,0.049,0.294-0.2H55.031v-0.1a3.469,3.469,0,0,1,1.469.1c-0.394-.013-0.535-0.054-0.685.2,0.441-.019.425-0.049,0.392,0.594a0.627,0.627,0,0,1,.392.1c-0.318.082-.15-0.048-0.294,0.2h1.077a0.334,0.334,0,0,0,0,.3c0.4,0.013.314,0.09,0.294,0.693h-0.49c0,0.776.013,1.171,0,1.783h1.077v-0.4H57.479v-0.2a2.714,2.714,0,0,0,.392-1.387c2.738,0.181,5.106.861,8.225,0.891v0.3a11.131,11.131,0,0,0-3.035.1v0.1a41,41,0,0,0,8.029.891v0.3H68.054v0.1h0.2a1.173,1.173,0,0,0,.979.4c0.242-.128.067,0.043,0.2-0.2-0.242-.128-0.067.043-0.2-0.2h0.588c-0.021.331-.211,0.238,0.1,0.4,0.008-.009.129-0.286,0.2-0.2v0.1a0.82,0.82,0,0,0,.294.2,1.14,1.14,0,0,1,.49-0.2c0-.284-0.091-0.257.392-0.3,0.487,0.84,1.41.1,2.154,0.2a3.248,3.248,0,0,1,.49.3,4.677,4.677,0,0,0,1.665-.3,1.67,1.67,0,0,1,.686.3,5.28,5.28,0,0,0,1.077-.2c0.081,0.321-.048.151,0.2,0.3l0.1-.3a4.06,4.06,0,0,0,1.958.3V26.284a2.692,2.692,0,0,1-.685-0.3,1.07,1.07,0,0,0,.685,0,20.071,20.071,0,0,0-2.056-.3v0.1a0.372,0.372,0,0,1,.294.2h-0.2a2.051,2.051,0,0,0-1.469-.5v0.1h0.1c0.188,0.077-.2.1-0.2,0.1-0.632-.731-3.682-0.6-4.9-0.891-3.265-.781-6.914-0.811-10.184-1.585-1.151-.272-3.644-0.1-4.406-0.693L71.383,24.6a13.412,13.412,0,0,0,3.917.5c0.435-.051.893,0.467,1.371,0.2a0.334,0.334,0,0,1-.2-0.1,9.975,9.975,0,0,1,1.665.5c0.531,0.14,1.032.041,1.469,0.2V25.195a1.754,1.754,0,0,1-.979-0.4h0.2V24.7a3.2,3.2,0,0,1,.783.4,3.285,3.285,0,0,1,.1-1.387c0,2.489.837,7.778-.587,9.013C75.674,35.71,65.97,34.9,59.535,34.9H9.792a16.151,16.151,0,0,0-2.35-.991v0.3h-0.1v-0.1l-0.294.1v-0.5H6.659c-0.032-.219.1-0.107-0.1-0.2a1.632,1.632,0,0,0-.979-0.2v0.1A0.992,0.992,0,0,1,5.875,34.7H2.742a12.916,12.916,0,0,1-.1-3.367h0.2c0.1-.069.392-0.128,0.49-0.2-0.887-.195-1.807-0.554-1.763-1.783a2.9,2.9,0,0,0,.2-1.089,1.865,1.865,0,0,1,.294-0.3c0.226-.492-0.211-0.917,0-1.288v0.3l0.588-.1v0.1h-0.2a0.5,0.5,0,0,1-.294.1,3.824,3.824,0,0,1,0,1.089h0.49a0.657,0.657,0,0,1,.49-0.2v0.1a0.335,0.335,0,0,0-.2.1h0.49c0.268-.419,1.394-0.307,2.154,0v-0.3a4.943,4.943,0,0,1,1.371.3v-0.3H7.54v0.3H8.225v-0.5h0.2c0.014,0.373-.046.348,0.2,0.5a1.3,1.3,0,0,1,.1-0.693,1.151,1.151,0,0,1,.2.693H9.89a0.482,0.482,0,0,1,.1-0.3c0.194,0.111.177,0.059,0.392,0v0.3a0.47,0.47,0,0,0,.294-0.1,0.849,0.849,0,0,1,.294-0.4v-0.1c0.1-.1.1,0.1,0.1,0.1a1.45,1.45,0,0,1,.1.4,9.839,9.839,0,0,0,2.644.1v-0.3h0.588c0.011,0.37-.118.242,0.294,0.3a0.376,0.376,0,0,1,.2-0.3c0.081,0.321-.048.151,0.2,0.3a0.334,0.334,0,0,1,0-.3h0.1v0.1c0.2,0.162-.069.116,0.2,0.2v-0.5a14.077,14.077,0,0,0-3.036,0v-0.4h0.1c0.789,0.388,3.889-.215,4.6-0.4a4.654,4.654,0,0,0,1.371-.2,0.99,0.99,0,0,0,.294-0.5H17.332l-0.1-.3H19L19.486,25h0.1v0.2a1.347,1.347,0,0,0-.392.693h0.1a32.888,32.888,0,0,1,3.329-.5l0.49-5.744h-0.1v-0.1a19.553,19.553,0,0,0-2.252.99,4.772,4.772,0,0,0-.49,0s0.383,0.019.2,0.1h-0.2c-0.168.087-.125,0.088-0.294,0a0.335,0.335,0,0,0,.2-0.1s-0.383-.019-0.2-0.1h0.2a10.241,10.241,0,0,1,2.252-.792c0.382-.159.764-0.457,1.175-0.594v0.1c-0.473.4-.227,0.822-0.392,1.585a26.575,26.575,0,0,0-.49,4.655l0.685-.1L23.7,24.7h0.1v0.2a0.71,0.71,0,0,0-.2.4h0.1a11.505,11.505,0,0,1,1.763-.3v0.1h0.1c0.022,0.655.235,0.867,0.294,1.486H25.165v0.5h0.686a3.317,3.317,0,0,0,.2-1.585,0.471,0.471,0,0,1-.294-0.1H26.34l0.1-.792-0.49-.1a1.056,1.056,0,0,1-.2-0.5h0.2a0.84,0.84,0,0,1,.49-0.1v-0.3l-0.979-.2v-0.4h0.2a1.533,1.533,0,0,1,.783-0.1V22.323a3.138,3.138,0,0,1-1.469-1.387h0.2a4.945,4.945,0,0,0,1.273,1.288v-0.3a0.6,0.6,0,0,1-.2-0.2,0.334,0.334,0,0,0,.2-0.1,0.5,0.5,0,0,1-.587-0.2,6.79,6.79,0,0,0,1.469,0c-0.036-.454-0.005-0.684,0-1.288,0.853,0.24,2.4-1.2,3.427-1.387v0.1h-0.2c-0.958.853-3.173,0.806-3.133,2.575h0.1a6.051,6.051,0,0,1,2.35-.792v0.1h-0.2c-0.6.483-2.211,0.7-2.448,0.891h-0.1a0.353,0.353,0,0,0,.2.1c0.084,0.064.308,0.133,0.392,0.2a1.487,1.487,0,0,0-.783,0,2.136,2.136,0,0,0-.1.99c0.367,0.234.061,0.531,0,.99h1.077v-0.1c-0.174-.186-0.181-0.078-0.1-0.3,0.142-.252-0.021-0.112.294-0.2,0,0.65.073,0.506,0.1,1.189l-1.273.1a1.57,1.57,0,0,0-.1.5h0.881v0.3h0.881V25.1c0.853-.316.7-0.688,1.175-0.99,0.753,0.495,4,.089,4.9-0.1V24.6a1.145,1.145,0,0,0-.2.3c0.355,0,.336.095,0.294,0.693a0.359,0.359,0,0,0-.1.2,0.813,0.813,0,0,0-.49.1h1.763a1.754,1.754,0,0,0-.2-1.387c-0.219.017-.2,0.059-0.392-0.2a0.335,0.335,0,0,0,.2-0.1c0.359,0.121.586,0.334,0.979,0.5a0.8,0.8,0,0,0,0,.4h0.2V23.313a14.041,14.041,0,0,1-2.546-1.188,0.334,0.334,0,0,0,.2-0.1,0.334,0.334,0,0,1-.2-0.1,1.412,1.412,0,0,1,.783.3s-0.383.019-.2,0.1h0.2a0.352,0.352,0,0,0,.2.1c-0.072-.086-0.123-0.112-0.2-0.2a5.126,5.126,0,0,1,.783.2c-0.054.19-.161,0.085,0,0.2a5.955,5.955,0,0,0,.979.3V21.233a0.508,0.508,0,0,1-.1-0.3h0.1v-0.1c0.389,0.036,1.2,0,1.86,0a1.307,1.307,0,0,0,.294.693,0.47,0.47,0,0,0-.294.1c0.45,0.206.225,2.311,0.2,3.169h0.1V24.7a0.674,0.674,0,0,0,.1-0.4,0.87,0.87,0,0,0,.49-0.3c0.035,0.5.923,0.323,1.665,0.3a0.59,0.59,0,0,0,0,.4,1.771,1.771,0,0,0,.587.2c0.085-.073.111-0.125,0.2-0.2V25H42.4V24.5h0.2V25c0.89,0,1.229.181,2.056,0.2a1.446,1.446,0,0,1-.2.693h0.392a6.992,6.992,0,0,0,.1-1.882c-0.433-.419,0-1.171,0-1.882a36.1,36.1,0,0,0-.1-5.447h-0.1a0.6,0.6,0,0,1-.2.2v-0.2a0.819,0.819,0,0,0,.392-0.693,0.424,0.424,0,0,0-.392-0.4v0.2a1.036,1.036,0,0,1,.2.594h-0.1v-0.2c-0.211-.271-0.074-0.384-0.49-0.5a2.149,2.149,0,0,1-1.469.4h0.2a3.418,3.418,0,0,1,1.469-.5,14.925,14.925,0,0,1,.1-3.466h-0.2a0.856,0.856,0,0,1-.881.3h0.2c0.554-.484,1.009-0.237.979-1.387a34.114,34.114,0,0,0,.588-3.863c-0.222.04-.106,0.091-0.294,0,0.354-.206.282-0.273,0.2-0.693a0.47,0.47,0,0,0,.294-0.1A3.62,3.62,0,0,1,45.435,4a0.688,0.688,0,0,0,.587.594v0.1h-0.2a1.132,1.132,0,0,0-.294-0.2,5.35,5.35,0,0,0,0,2.476,0.532,0.532,0,0,0,.392.4v0.1h-0.2a0.5,0.5,0,0,0-.294-0.1v0.1h0.1A15.912,15.912,0,0,0,47,12.121v0.1h0.1v-0.3a6.318,6.318,0,0,1-.392-1.783c-0.338-1.234-.579-2.483-0.881-3.566a3.409,3.409,0,0,1-.2-1.783c0.058,0.966.431,1.667,0.489,2.674l0.49,0.3v0.1c-0.278-.032-0.2-0.1-0.392,0,0.75,1.143.283,3.253,1.077,4.358a1.4,1.4,0,0,0,.685.3v0.1H47.687a1.912,1.912,0,0,0-.392-0.2v0.3a0.4,0.4,0,0,1,0,.5,2.585,2.585,0,0,0-.2-0.891H47v0.3c0.177,0.238.209,0.658,0.392,0.891a0.482,0.482,0,0,1,.1-0.3,8.236,8.236,0,0,0,.49,2.08,0.43,0.43,0,0,0-.294.3,2.019,2.019,0,0,0-1.861-.2,0.964,0.964,0,0,1,.587.2,1.927,1.927,0,0,1-.783-0.2v0.3a3.126,3.126,0,0,1,.979,1.783,0.442,0.442,0,0,0-.392.1v-0.2c0.009-.009.282-0.13,0.2-0.2h-0.1a4.051,4.051,0,0,0-.392-0.891H45.63ZM44.945,4.4h0.2l-0.1.2a8.929,8.929,0,0,1-1.175.693v-0.1h0.1C44.229,4.853,44.685,4.734,44.945,4.4Zm1.077,0.3,0.294,0.1v0.1h-0.2Zm0.294,0.2h0.2v0.1A0.334,0.334,0,0,1,46.316,4.891Zm0.2,0.1,0.294,0.1v0.1A0.372,0.372,0,0,1,46.512,4.99Zm0.294,0.2H47v0.1h-0.2v-0.1Zm-3.133.1h0.2v0.1h-0.1C43.7,5.4,43.58,5.392,43.672,5.288Zm3.329,0,0.294,0.1v0.1A0.372,0.372,0,0,1,47,5.288Zm-3.623.2h0.2v0.1h-0.1C43.408,5.6,43.286,5.59,43.378,5.486Zm3.917,0a2.086,2.086,0,0,1,.49.2v0.1h-0.2A3.491,3.491,0,0,1,47.3,5.486Zm-4.211.2h0.2v0.1h-0.1C43.115,5.8,42.992,5.788,43.085,5.684Zm4.7,0.1a2.086,2.086,0,0,1,.49.2v0.1h-0.2A3.491,3.491,0,0,1,47.785,5.783Zm-4.994.1h0.2v0.1h-0.1C42.821,5.994,42.7,5.986,42.791,5.882Zm-0.294.2h0.2v0.1h-0.1C42.527,6.192,42.4,6.184,42.5,6.08Zm5.777,0a2.086,2.086,0,0,1,.49.2v0.1h-0.2A3.476,3.476,0,0,1,48.274,6.08Zm-6.071.2h0.2v0.1H42.3C42.233,6.39,42.111,6.382,42.2,6.278Zm6.561,0.1a2.086,2.086,0,0,1,.49.2v0.1h-0.2A3.476,3.476,0,0,1,48.764,6.377Zm-6.854.1h0.2v0.1h-0.1C41.94,6.588,41.817,6.58,41.909,6.476Zm-0.294.2h0.2v0.1h-0.1C41.646,6.786,41.523,6.778,41.616,6.674Zm7.638,0a2.086,2.086,0,0,1,.49.2v0.1h-0.2A3.475,3.475,0,0,1,49.253,6.674Zm-7.931.2h0.2v0.1h-0.1C41.352,6.984,41.229,6.976,41.322,6.872Zm8.421,0.1a2.086,2.086,0,0,1,.49.2v0.1h-0.2A3.475,3.475,0,0,1,49.743,6.971Zm-8.715.1h0.2v0.1h-0.1C41.058,7.182,40.936,7.175,41.028,7.07Zm-0.294.2h0.2v0.1h-0.1C40.765,7.38,40.642,7.373,40.734,7.268Zm3.917,0h0.2v0.1h-0.1a0.7,0.7,0,0,1-.392.2v-0.1h0.1C44.528,7.38,44.579,7.355,44.651,7.268Zm5.581,0a2.086,2.086,0,0,1,.49.2v0.1h-0.2A3.475,3.475,0,0,1,50.233,7.268Zm-9.792.2h0.2v0.1h-0.1C40.471,7.579,40.348,7.571,40.441,7.466Zm3.721,0.1h0.2v0.1h-0.1C44.192,7.678,44.069,7.67,44.162,7.565Zm6.561,0a2.083,2.083,0,0,1,.489.2v0.1h-0.2A3.475,3.475,0,0,1,50.722,7.565Zm-10.575.1h0.2v0.1h-0.1C40.177,7.777,40.054,7.769,40.147,7.665Zm3.721,0.1h0.2v0.1A0.334,0.334,0,0,1,43.868,7.764Zm-4.015.1h0.2v0.1h-0.1C39.883,7.975,39.761,7.967,39.853,7.863Zm3.819,0h0.2v0.1h-0.1C43.7,7.975,43.58,7.967,43.672,7.863Zm1.567,0a3.585,3.585,0,0,0,.1,1.486A3.587,3.587,0,0,0,45.239,7.863Zm1.371,0a2.083,2.083,0,0,1,.49.2v0.1H46.9A3.49,3.49,0,0,1,46.61,7.863Zm4.6,0a2.083,2.083,0,0,1,.49.2v0.1h-0.2A3.49,3.49,0,0,1,51.212,7.863Zm-11.652.2h0.2l-0.1.2a11.787,11.787,0,0,1-1.469.891v-0.1h0.1C38.62,8.629,39.231,8.488,39.559,8.061Zm3.819,0h0.2v0.1h-0.1a0.7,0.7,0,0,1-.392.2v-0.1h0.1C43.255,8.172,43.306,8.147,43.378,8.061Zm1.665,0-0.2,1.783h0.2V8.754A0.673,0.673,0,0,0,45.043,8.061ZM47.1,8.16a2.972,2.972,0,0,1,.685.3v0.1h-0.2A4.124,4.124,0,0,1,47.1,8.16Zm4.6,0a2.082,2.082,0,0,1,.49.2v0.1H52A3.49,3.49,0,0,1,51.7,8.16Zm-8.813.2h0.2v0.1h-0.1C42.919,8.47,42.8,8.462,42.889,8.358Zm2.448,6.735,2.35,0.1v-0.2A5.407,5.407,0,0,1,46.61,13.31a0.613,0.613,0,0,1,.294.1,8.287,8.287,0,0,0,.685,1.09l-0.881-2.377c-0.441-.03-0.487.064-0.588-0.1a1.493,1.493,0,0,1-.587-1.089h0.1v0.1a2.4,2.4,0,0,0,.587.792,1.142,1.142,0,0,0,.49.2v-0.2a13.762,13.762,0,0,1-1.175-3.466h-0.1V9.843c0.011,0,.342-0.037.2,0.1-0.478.112,0,1.882,0,1.882a0.446,0.446,0,0,1,.1.2h-0.1a0.736,0.736,0,0,0-.392-0.4v0.99h0.2v0.3l-0.2.1Zm6.854-6.636a2.083,2.083,0,0,1,.49.2v0.1h-0.2A3.49,3.49,0,0,1,52.191,8.457Zm-9.6.1h0.2v0.1h-0.1a0.7,0.7,0,0,1-.392.2v-0.1h0.1C42.472,8.668,42.522,8.642,42.595,8.556Zm5.19,0a9.945,9.945,0,0,1,2.546,1.486c1.779,1.1,3.623,2.148,5.483,3.07l-0.1.2a0.984,0.984,0,0,1,.783.2c-0.116.263,0.088,0.178-.2,0.3a1.132,1.132,0,0,0-.294-0.2l0.1-.2h-0.1a0.484,0.484,0,0,1-.49-0.1l0.1-.2h-0.1c-0.458.186-1.528-.818-1.958-1.089-1.209-.763-2.452-1.449-3.623-2.179A7.644,7.644,0,0,1,47.785,8.556Zm4.9,0.2a2.084,2.084,0,0,1,.49.2v0.1h-0.2A3.492,3.492,0,0,1,52.681,8.754Zm-10.575.1h0.2v0.1H42.2C42.136,8.965,42.013,8.957,42.105,8.853Zm-0.294.2h0.2v0.1h-0.1a0.7,0.7,0,0,1-.392.2v-0.1h0.1C41.688,9.163,41.739,9.137,41.812,9.051Zm11.359,0,0.294,0.1v0.1A0.372,0.372,0,0,1,53.17,9.051Zm-15.177.1h0.2v0.1h-0.1C38.023,9.262,37.9,9.254,37.993,9.15Zm15.471,0.1h0.2v0.1A0.334,0.334,0,0,1,53.464,9.249Zm-15.765.1h0.2v0.1H37.8C37.729,9.46,37.606,9.453,37.7,9.348Zm3.623,0h0.2v0.1h-0.1a0.7,0.7,0,0,1-.392.2v-0.1h0.1C41.2,9.46,41.249,9.435,41.322,9.348Zm12.338,0,0.294,0.1v0.1A0.372,0.372,0,0,1,53.66,9.348Zm-16.255.2h0.2v0.1H37.5C37.435,9.658,37.313,9.651,37.405,9.546Zm16.548,0h0.2v0.1A0.334,0.334,0,0,1,53.954,9.546Zm-13.121.1h0.2v0.1h-0.1C40.863,9.757,40.74,9.75,40.832,9.645Zm13.317,0,0.294,0.1v0.1A0.372,0.372,0,0,1,54.149,9.645Zm-17.038.1h0.2v0.1h-0.1C37.142,9.857,37.019,9.849,37.111,9.744Zm3.427,0.1h0.2v0.1h-0.1a0.7,0.7,0,0,1-.392.2v-0.1h0.1C40.415,9.955,40.466,9.93,40.539,9.843Zm13.9,0a2.087,2.087,0,0,1,.49.2v0.1h-0.2A3.5,3.5,0,0,1,54.443,9.843Zm-17.626.1h0.2v0.1h-0.1C36.848,10.055,36.725,10.047,36.818,9.942Zm8.029,0a3.911,3.911,0,0,0-.1,1.882,1.63,1.63,0,0,1,.2-0.99,1.559,1.559,0,0,0,0,.891v-0.1a4.233,4.233,0,0,0,.1-1.684h-0.2Zm-8.323.2h0.2v0.1h-0.1a0.975,0.975,0,0,1-.49.3v-0.1h0.1A3.439,3.439,0,0,1,36.524,10.141Zm3.525,0h0.2v0.1h-0.1C40.079,10.253,39.957,10.245,40.049,10.141Zm14.884,0a2.082,2.082,0,0,1,.49.2v0.1h-0.2A3.5,3.5,0,0,1,54.933,10.141Zm-15.177.2h0.2v0.1h-0.1a0.7,0.7,0,0,1-.392.2v-0.1h0.1C39.632,10.45,39.683,10.425,39.755,10.339Zm15.667,0.1a2.082,2.082,0,0,1,.49.2v0.1h-0.2A3.482,3.482,0,0,1,55.422,10.438Zm-19.486.1h0.2v0.1h-0.1C35.967,10.649,35.844,10.641,35.936,10.537Zm3.329,0.1h0.2v0.1h-0.1a0.7,0.7,0,0,1-.392.2v-0.1h0.1C39.142,10.748,39.193,10.722,39.266,10.636Zm-3.623.1h0.2v0.1h-0.1C35.673,10.847,35.55,10.839,35.643,10.735Zm20.269,0a2.09,2.09,0,0,1,.49.2v0.1h-0.2A3.467,3.467,0,0,1,55.912,10.735Zm-20.563.2h0.2v0.1h-0.1C35.379,11.045,35.256,11.037,35.349,10.933Zm3.427,0h0.2v0.1h-0.1C38.806,11.045,38.684,11.037,38.776,10.933Zm17.625,0.1a2.09,2.09,0,0,1,.49.2v0.1H56.7A3.468,3.468,0,0,1,56.4,11.032Zm-21.346.1h0.2v0.1h-0.1C35.085,11.243,34.963,11.235,35.055,11.131Zm3.427,0h0.2v0.1h-0.1a0.7,0.7,0,0,1-.392.2v-0.1h0.1C38.359,11.243,38.41,11.217,38.482,11.131Zm-3.721.2h0.2v0.1h-0.1C34.792,11.441,34.669,11.433,34.761,11.329Zm22.13,0a2.082,2.082,0,0,1,.49.2v0.1h-0.2A3.482,3.482,0,0,1,56.891,11.329Zm-18.9.1h0.2v0.1h-0.1C38.023,11.54,37.9,11.532,37.993,11.428Zm-3.525.1h0.2v0.1h-0.1C34.5,11.639,34.375,11.631,34.468,11.527Zm3.231,0.1h0.2v0.1H37.8a0.7,0.7,0,0,1-.392.2v-0.1h0.1C37.576,11.738,37.626,11.713,37.7,11.626Zm19.682,0a2.082,2.082,0,0,1,.49.2v0.1h-0.2A3.467,3.467,0,0,1,57.381,11.626Zm-23.207.1h0.2v0.1h-0.1C34.2,11.837,34.081,11.83,34.174,11.725ZM44.26,15.192l0.783-.1V11.824h-0.2v0.1A12.267,12.267,0,0,0,44.26,15.192ZM33.88,11.923h0.2l-0.1.2a11.8,11.8,0,0,1-1.469.891v-0.1h0.1C32.941,12.491,33.552,12.35,33.88,11.923Zm3.329,0h0.2v0.1h-0.1a0.7,0.7,0,0,1-.392.2v-0.1h0.1C37.086,12.035,37.137,12.01,37.209,11.923Zm20.661,0a2.09,2.09,0,0,1,.49.2v0.1h-0.2A3.467,3.467,0,0,1,57.87,11.923Zm-13.317.1a0.645,0.645,0,0,0,.1.4A0.645,0.645,0,0,0,44.553,12.022Zm1.175,0a0.383,0.383,0,0,1,.2.3h-0.1v-0.1A0.357,0.357,0,0,1,45.728,12.022Zm-9.009.2h0.2v0.1h-0.1C36.75,12.333,36.627,12.325,36.72,12.22Zm9.5,0a1.115,1.115,0,0,1,.392.693h-0.1v-0.1A1.187,1.187,0,0,1,46.218,12.22Zm12.142,0a2.088,2.088,0,0,1,.489.2v0.1h-0.2A3.483,3.483,0,0,1,58.36,12.22Zm-12.436.1a0.383,0.383,0,0,1,.2.3h-0.1v-0.1A0.36,0.36,0,0,1,45.924,12.32Zm-9.5.1h0.2v0.1h-0.1a0.7,0.7,0,0,1-.392.2v-0.1h0.1C36.3,12.53,36.353,12.5,36.426,12.419Zm6.757,0.1h0.2v0.1A0.335,0.335,0,0,1,43.182,12.518Zm15.667,0a2.078,2.078,0,0,1,.49.2v0.1h-0.2A3.5,3.5,0,0,1,58.849,12.518Zm-15.863.1h0.2v0.1h-0.2v-0.1Zm3.133,0a0.54,0.54,0,0,1,.294.4h-0.1v-0.1h-0.1Zm1.861,0,0.49,0.1v0.1H48.176C48.1,12.728,48.053,12.7,47.98,12.617Zm-12.044.1h0.2v0.1h-0.1C35.967,12.828,35.844,12.82,35.936,12.716Zm6.854,0h0.2v0.1A0.335,0.335,0,0,1,42.791,12.716Zm-0.2.1h0.2v0.1A0.334,0.334,0,0,1,42.595,12.815Zm5.875,0,0.49,0.1v0.1H48.666C48.593,12.926,48.543,12.9,48.47,12.815Zm10.869,0a2.078,2.078,0,0,1,.49.2v0.1h-0.2A3.483,3.483,0,0,1,59.339,12.815Zm-23.7.1h0.2v0.1h-0.1a0.7,0.7,0,0,1-.392.2v-0.1h0.1C35.519,13.026,35.57,13,35.643,12.914Zm6.756,0h0.2v0.1A0.334,0.334,0,0,1,42.4,12.914Zm4.21,0a0.359,0.359,0,0,1,.1.2h-0.1v-0.2Zm-14.3.1h0.2v0.1h-0.1C32.344,13.125,32.221,13.117,32.313,13.013Zm9.792,0a0.47,0.47,0,0,1,.294.1H42.2A9.714,9.714,0,0,1,39.168,14.5h0.2C40.1,13.822,41.389,13.713,42.105,13.013Zm4.308,0a0.383,0.383,0,0,1,.2.3h-0.1v-0.1A0.36,0.36,0,0,1,46.414,13.013Zm2.546,0,0.49,0.1v0.1H49.155C49.083,13.125,49.032,13.1,48.96,13.013Zm-2.252.1a0.36,0.36,0,0,1,.1.2h-0.1v-0.2Zm13.121,0a2.087,2.087,0,0,1,.49.2v0.1h-0.2A3.483,3.483,0,0,1,59.829,13.112Zm-27.809.1h0.2v0.1h-0.1C32.05,13.323,31.927,13.315,32.02,13.211Zm3.133,0h0.2v0.1h-0.1a0.7,0.7,0,0,1-.392.2v-0.1h0.1C35.03,13.323,35.081,13.3,35.153,13.211Zm14.3,0a8.366,8.366,0,0,1,1.273.4v0.1H50.428C50.153,13.493,49.7,13.447,49.449,13.211Zm-17.723.2h0.2v0.1h-0.1C31.756,13.521,31.633,13.513,31.726,13.409Zm28.592,0a2.089,2.089,0,0,1,.49.2v0.1h-0.2A3.5,3.5,0,0,1,60.318,13.409Zm-25.655.1h0.2v0.1h-0.1C34.694,13.62,34.571,13.612,34.663,13.508Zm-3.231.1h0.2v0.1h-0.1C31.462,13.719,31.34,13.711,31.432,13.607Zm25.067,0h0.2v0.1A0.334,0.334,0,0,1,56.5,13.607Zm-22.13.1h0.2v0.1h-0.1a0.7,0.7,0,0,1-.392.2V13.9h0.1C34.246,13.818,34.3,13.792,34.37,13.706Zm16.353,0,0.489,0.1v0.1H50.918C50.846,13.818,50.795,13.792,50.722,13.706Zm5.973,0,0.294,0.1c-0.116.263,0.088,0.178-.2,0.3a3.482,3.482,0,0,1-.294-0.3C56.718,13.8,56.768,13.915,56.7,13.706Zm4.113,0a3.2,3.2,0,0,1,.783.4v0.1H61.4A5.947,5.947,0,0,1,60.808,13.706Zm-29.669.1h0.2v0.1h-0.1a0.975,0.975,0,0,1-.49.3V14.1h0.1A3.453,3.453,0,0,1,31.138,13.805Zm20.073,0.1L51.7,14v0.1H51.408C51.335,14.016,51.284,13.991,51.212,13.9Zm5.777,0h0.2V14A0.335,0.335,0,0,1,56.989,13.9ZM33.88,14h0.2v0.1h-0.1C33.91,14.115,33.788,14.108,33.88,14Zm23.3,0h0.2v0.1A0.334,0.334,0,0,1,57.185,14Zm-5.483.1a16.108,16.108,0,0,1,2.252.792v0.1H53.66C53.121,14.581,52.194,14.564,51.7,14.1Zm5.288,0h0.2v0.1A0.334,0.334,0,0,1,56.989,14.1Zm0.392,0,0.294,0.1v0.1A0.372,0.372,0,0,1,57.381,14.1Zm-26.83.1h0.2v0.1h-0.1C30.581,14.313,30.458,14.306,30.551,14.2Zm3.036,0h0.2v0.1h-0.1a0.7,0.7,0,0,1-.392.2V14.4h0.1C33.463,14.313,33.514,14.288,33.586,14.2Zm23.6,0,0.294,0.1v0.1A0.372,0.372,0,0,1,57.185,14.2Zm4.406,0a2.082,2.082,0,0,1,.49.2v0.1h-0.2A3.5,3.5,0,0,1,61.591,14.2Zm-3.917.1h0.2v0.1A0.334,0.334,0,0,1,57.674,14.3Zm-27.417.1h0.2v0.1h-0.1C30.287,14.512,30.165,14.5,30.257,14.4Zm27.222,0h0.2v0.1A0.335,0.335,0,0,1,57.479,14.4Zm0.392,0a2.086,2.086,0,0,1,.49.2v0.1h-0.2A3.482,3.482,0,0,1,57.87,14.4ZM33.1,14.5h0.2v0.1h-0.1a0.7,0.7,0,0,1-.392.2V14.7h0.1C32.973,14.61,33.024,14.585,33.1,14.5Zm24.578,0,0.294,0.1v0.1A0.372,0.372,0,0,1,57.674,14.5Zm4.406,0a2.082,2.082,0,0,1,.49.2v0.1h-0.2A3.482,3.482,0,0,1,62.081,14.5Zm-32.118.1h0.2v0.1h-0.1C29.994,14.71,29.871,14.7,29.963,14.6Zm9.009,0h0.2v0.1A0.335,0.335,0,0,1,38.972,14.6Zm-0.2.1h0.2v0.1A0.334,0.334,0,0,1,38.776,14.7Zm5.679,0a0.508,0.508,0,0,1,.1.3h-0.1V14.7Zm1.175,0a0.509,0.509,0,0,1,.1.3h-0.1V14.7Zm12.338,0h0.2v0.1A0.334,0.334,0,0,1,57.968,14.7Zm0.392,0h0.2v0.1A0.334,0.334,0,0,1,58.36,14.7Zm-28.69.1h0.2v0.1h-0.1C29.7,14.908,29.577,14.9,29.67,14.8Zm2.938,0h0.2v0.1h-0.1C32.637,14.908,32.515,14.9,32.607,14.8Zm5.973,0h0.2v0.1A0.334,0.334,0,0,1,38.58,14.8Zm19.584,0,0.294,0.1v0.1A0.372,0.372,0,0,1,58.164,14.8Zm0.392,0a2.975,2.975,0,0,1,.685.3v0.1h-0.2A4.123,4.123,0,0,1,58.556,14.8Zm4.015,0a2.09,2.09,0,0,1,.49.2v0.1h-0.2A3.482,3.482,0,0,1,62.57,14.8Zm-24.284.1a0.47,0.47,0,0,1,.294.1h-0.2a13.988,13.988,0,0,1-3.623,1.684h0.2C35.852,15.859,37.42,15.742,38.286,14.895Zm-8.911.1h0.2v0.1h-0.1C29.406,15.106,29.283,15.1,29.376,14.994Zm2.937,0h0.2v0.1h-0.1a0.7,0.7,0,0,1-.392.2v-0.1h0.1C32.19,15.105,32.241,15.08,32.313,14.994Zm21.64,0,0.49,0.1v0.1H54.149C54.077,15.105,54.026,15.08,53.954,14.994Zm4.5,0h0.2v0.1A0.334,0.334,0,0,1,58.458,14.994Zm0.2,0.1a2.089,2.089,0,0,1,.49.2v0.1h-0.2A3.469,3.469,0,0,1,58.654,15.093Zm4.406,0a2.09,2.09,0,0,1,.49.2v0.1h-0.2A3.468,3.468,0,0,1,63.06,15.093Zm-33.978.1h0.2v0.1h-0.1C29.112,15.3,28.99,15.3,29.082,15.192Zm25.361,0,0.49,0.1v0.1H54.639C54.566,15.3,54.516,15.278,54.443,15.192Zm4.8,0a2.08,2.08,0,0,1,.49.2v0.1h-0.2A3.483,3.483,0,0,1,59.241,15.192Zm-27.417.1h0.2v0.1h-0.1C31.854,15.4,31.731,15.4,31.824,15.291Zm12.632,0v0.2h0.2v-0.2h-0.2Zm3.525,0a0.383,0.383,0,0,1,.2.3h-0.1v-0.1A0.359,0.359,0,0,1,47.98,15.291Zm-19.192.1h0.2v0.1h-0.1C28.819,15.5,28.7,15.494,28.788,15.39Zm18.507,0h0.2v0.1A0.334,0.334,0,0,1,47.3,15.39Zm7.638,0L56.7,15.984v0.1H56.4C55.995,15.77,55.305,15.739,54.933,15.39Zm4.211,0a2.08,2.08,0,0,1,.49.2v0.1h-0.2A3.483,3.483,0,0,1,59.143,15.39Zm4.406,0a2.082,2.082,0,0,1,.49.2v0.1h-0.2A3.482,3.482,0,0,1,63.55,15.39Zm-32.02.1h0.2v0.1h-0.1a0.7,0.7,0,0,1-.392.2v-0.1h0.1C31.407,15.6,31.458,15.575,31.53,15.489Zm13.317,0c0.163,0.111.1,0.175,0.2,0h-0.2Zm2.252,0h0.2v0.1A0.335,0.335,0,0,1,47.1,15.489Zm12.632,0h0.2v0.1A0.334,0.334,0,0,1,59.731,15.489Zm-31.236.1h0.2v0.1h-0.1C28.525,15.7,28.4,15.692,28.495,15.588Zm17.919,0a1.826,1.826,0,0,0,.685,0v0.1H47a1.114,1.114,0,0,1-.979.3h0.2a0.7,0.7,0,0,1,.392-0.2v-0.1A0.335,0.335,0,0,1,46.414,15.588Zm1.077,0c0.084,0.186.046,0.073,0,.3a1.879,1.879,0,0,1,.783.3,1.257,1.257,0,0,0-1.175.1v-0.2a0.6,0.6,0,0,0,.2-0.2,0.47,0.47,0,0,1-.294-0.1A0.458,0.458,0,0,0,47.491,15.588Zm0.685,0a0.383,0.383,0,0,1,.2.3h-0.1v-0.1A0.357,0.357,0,0,1,48.176,15.588Zm11.75,0a2.086,2.086,0,0,1,.49.2v0.1h-0.2A3.482,3.482,0,0,1,59.927,15.588Zm-0.294.1a2.08,2.08,0,0,1,.49.2v0.1h-0.2A3.468,3.468,0,0,1,59.633,15.687Zm4.406,0a2.082,2.082,0,0,1,.49.2v0.1h-0.2A3.467,3.467,0,0,1,64.039,15.687Zm-35.838.1h0.2l-0.1.2a17.669,17.669,0,0,1-2.056,1.288v-0.1h0.1C26.815,16.574,27.736,16.392,28.2,15.786Zm2.84,0h0.2v0.1h-0.1a0.7,0.7,0,0,1-.392.2v-0.1h0.1C30.917,15.9,30.968,15.872,31.04,15.786Zm14.59,0.1c0.081,0.321-.048.151,0.2,0.3v-0.1C45.741,16.01,45.716,15.958,45.63,15.885Zm2.742,0a3.549,3.549,0,0,1,.294.4c0.408,0.307,1.089.19,1.469,0.5H49.743c-0.526-.4-1-0.2-1.469-0.594C48.541,16.024,48.355,16.2,48.372,15.885Zm12.044,0h0.2v0.1A0.334,0.334,0,0,1,60.416,15.885Zm-0.294.1h0.2v0.1A0.334,0.334,0,0,1,60.122,15.984Zm0.49,0a2.089,2.089,0,0,1,.49.2v0.1h-0.2A3.468,3.468,0,0,1,60.612,15.984Zm3.917,0a2.09,2.09,0,0,1,.49.2v0.1h-0.2A3.467,3.467,0,0,1,64.529,15.984Zm-33.978.1h0.2v0.1h-0.1C30.581,16.2,30.458,16.187,30.551,16.083Zm26.144,0,0.49,0.1v0.1H56.891C56.819,16.195,56.768,16.169,56.7,16.083Zm3.623,0,0.294,0.1v0.1A0.372,0.372,0,0,1,60.318,16.083Zm-17.919.1a0.471,0.471,0,0,1,.294.1H42.4v-0.1Zm-12.142.1h0.2v0.1h-0.1a0.7,0.7,0,0,1-.392.2v-0.1h0.1C30.134,16.393,30.185,16.368,30.257,16.281Zm11.848,0a0.47,0.47,0,0,1,.294.1H42.2a7.582,7.582,0,0,1-2.644.792h0.2C40.385,16.7,41.495,16.775,42.105,16.281Zm4.9,0c0.084,0.187.046,0.073,0,.3H46.9Zm10.184,0,1.763,0.594v0.1H58.654C58.247,16.662,57.557,16.63,57.185,16.281Zm3.427,0h0.2v0.1A0.334,0.334,0,0,1,60.612,16.281Zm0.49,0h0.2v0.1A0.334,0.334,0,0,1,61.1,16.281Zm3.917,0a4.637,4.637,0,0,1,.979.5v0.1H65.8A5.981,5.981,0,0,1,65.018,16.281Zm-20.074.1a0.8,0.8,0,0,0,0,.4h0.1A0.645,0.645,0,0,0,44.945,16.38Zm15.863,0a2.08,2.08,0,0,1,.49.2v0.1H61.1A3.483,3.483,0,0,1,60.808,16.38Zm0.49,0a2.08,2.08,0,0,1,.49.2v0.1h-0.2A3.483,3.483,0,0,1,61.3,16.38Zm-31.53.2h0.2v0.1h-0.1C29.8,16.69,29.675,16.683,29.767,16.578Zm17.038,0c0.046,0.211.093,0.1-.1,0.3v0.1h-0.1A1.335,1.335,0,0,1,46.805,16.578Zm2.056,0a0.383,0.383,0,0,1,.2.3h-0.1v-0.1A0.36,0.36,0,0,1,48.862,16.578Zm12.436,0.1a2.089,2.089,0,0,1,.49.2v0.1h-0.2A3.483,3.483,0,0,1,61.3,16.677Zm0.49,0a2.971,2.971,0,0,1,.685.3v0.1h-0.2A4.123,4.123,0,0,1,61.787,16.677Zm-32.313.1h0.2v0.1h-0.1a0.7,0.7,0,0,1-.392.2v-0.1h0.1C29.35,16.888,29.4,16.863,29.474,16.776Zm5.092,0h0.2v0.1A0.335,0.335,0,0,1,34.566,16.776Zm15.569,0A3.807,3.807,0,0,1,52,17.371H51.6C51.21,17.075,50.518,17.085,50.135,16.776Zm-15.863.1a0.47,0.47,0,0,1,.294.1h-0.2a13.981,13.981,0,0,1-3.623,1.684h0.2C31.838,17.84,33.405,17.723,34.272,16.875Zm10.184,0c0.046,0.211.093,0.1-.1,0.3v0.1h-0.1A1.332,1.332,0,0,1,44.455,16.875Zm4.6,0a0.54,0.54,0,0,1,.294.4h-0.1v-0.1h-0.1Zm16.94,0a2.078,2.078,0,0,1,.49.2v0.1h-0.2A3.483,3.483,0,0,1,66,16.875Zm-7.05.1,0.49,0.1v0.1H59.143C59.071,17.086,59.02,17.061,58.947,16.974Zm2.84,0a2.089,2.089,0,0,1,.49.2v0.1h-0.2A3.5,3.5,0,0,1,61.787,16.974Zm-32.8.1h0.2v0.1h-0.1a0.7,0.7,0,0,1-.392.2v-0.1h0.1C28.861,17.185,28.912,17.16,28.984,17.074Zm33.488,0a2.972,2.972,0,0,1,.685.3v0.1h-0.2A4.114,4.114,0,0,1,62.473,17.074Zm-3.035.1,0.49,0.1v0.1H59.633C59.56,17.284,59.51,17.259,59.437,17.173Zm7.05,0a2.087,2.087,0,0,1,.49.2v0.1h-0.2A3.483,3.483,0,0,1,66.487,17.173Zm-40.441.1h0.2v0.1h-0.1C26.077,17.384,25.954,17.376,26.047,17.272Zm13.219,0a0.47,0.47,0,0,1,.294.1H39.266v-0.1Zm4.9,0c0.084,0.186.046,0.073,0,.3h-0.1Zm2.546,0a0.383,0.383,0,0,1,.2.3h-0.1v-0.1A0.357,0.357,0,0,1,46.708,17.272Zm2.644,0a0.383,0.383,0,0,1,.2.3h-0.1v-0.1A0.358,0.358,0,0,1,49.351,17.272Zm12.925,0a2.084,2.084,0,0,1,.49.2v0.1h-0.2A3.5,3.5,0,0,1,62.277,17.272Zm-33.782.1h0.2v0.1h-0.1C28.525,17.483,28.4,17.475,28.495,17.371Zm10.477,0a0.471,0.471,0,0,1,.294.1h-0.2a7.581,7.581,0,0,1-2.644.792h0.2C37.251,17.792,38.361,17.865,38.972,17.371Zm13.023,0a0.471,0.471,0,0,1,.294.1A0.47,0.47,0,0,1,52,17.371Zm7.932,0,0.49,0.1v0.1H60.122C60.05,17.482,60,17.457,59.927,17.371Zm-34.174.1h0.2v0.1h-0.1C25.783,17.582,25.66,17.574,25.753,17.47Zm20.857,0a0.359,0.359,0,0,1,.1.2h-0.1v-0.2Zm5.679,0a3.048,3.048,0,0,1,1.567.5H53.464C53.149,17.728,52.6,17.717,52.289,17.47Zm10.869,0a2.975,2.975,0,0,1,.685.3v0.1h-0.2A4.123,4.123,0,0,1,63.158,17.47Zm3.819,0a2.087,2.087,0,0,1,.49.2v0.1h-0.2A3.484,3.484,0,0,1,66.977,17.47Zm-38.776.1h0.2v0.1H28.3a0.7,0.7,0,0,1-.392.2v-0.1H28C28.077,17.68,28.128,17.655,28.2,17.569Zm15.765,0c0.046,0.211.093,0.1-.1,0.3v0.1h-0.1A1.332,1.332,0,0,1,43.966,17.569Zm2.154,0c0.046,0.211.093,0.1-.1,0.3v0.1h-0.1A1.336,1.336,0,0,1,46.12,17.569Zm0.783,0a0.54,0.54,0,0,1,.294.4H47.1v-0.1H47Zm2.644,0a0.383,0.383,0,0,1,.2.3h-0.1v-0.1A0.36,0.36,0,0,1,49.547,17.569Zm10.869,0a8.365,8.365,0,0,1,1.273.4v0.1H61.4C61.12,17.851,60.669,17.8,60.416,17.569Zm2.35,0a2.08,2.08,0,0,1,.49.2v0.1h-0.2A3.483,3.483,0,0,1,62.766,17.569Zm-37.307.1h0.2v0.1h-0.1C25.489,17.78,25.367,17.772,25.459,17.668Zm21.249,0a1.6,1.6,0,0,1,.49.891H47.1v-0.1A1.744,1.744,0,0,1,46.708,17.668Zm20.759,0.1,0.294,0.1v0.1A0.372,0.372,0,0,1,67.466,17.767Zm-42.3.1h0.2v0.1h-0.1C25.2,17.978,25.073,17.97,25.165,17.866Zm2.546,0h0.2v0.1h-0.1C27.741,17.978,27.619,17.97,27.711,17.866Zm22.032,0a0.54,0.54,0,0,1,.294.4h-0.1v-0.1h-0.1Zm13.513,0h0.2v0.1A0.334,0.334,0,0,1,63.256,17.866Zm0.587,0a2.089,2.089,0,0,1,.49.2v0.1h-0.2A3.483,3.483,0,0,1,63.843,17.866Zm-20.171.1c0.084,0.186.046,0.073,0,.3h-0.1Zm2.154,0c0.084,0.186.046,0.073,0,.3h-0.1Zm1.371,0a0.383,0.383,0,0,1,.2.3H47.3v-0.1A0.357,0.357,0,0,1,47.2,17.965Zm6.659,0a0.47,0.47,0,0,1,.294.1H53.856v-0.1Zm9.6,0,0.294,0.1v0.1A0.372,0.372,0,0,1,63.452,17.965Zm4.308,0h0.2v0.1h-0.2v-0.1Zm-42.889.1h0.2v0.1h-0.1C24.9,18.176,24.779,18.168,24.872,18.064Zm2.546,0h0.2v0.1h-0.1a0.7,0.7,0,0,1-.392.2v-0.1h0.1C27.294,18.176,27.345,18.15,27.417,18.064Zm26.732,0a3.049,3.049,0,0,1,1.567.5H55.324C55.01,18.322,54.457,18.311,54.149,18.064Zm7.54,0,0.49,0.1v0.1H61.885C61.812,18.176,61.762,18.15,61.689,18.064Zm6.267,0,0.294,0.1v0.1A0.372,0.372,0,0,1,67.956,18.064Zm-4.211.1h0.2v0.1h-0.2v-0.1Zm0.587,0h0.2v0.1A0.334,0.334,0,0,1,64.333,18.163Zm-39.755.1h0.2v0.1h-0.1C24.608,18.374,24.485,18.366,24.578,18.262Zm18.9,0c0.046,0.211.093,0.1-.1,0.3v0.1h-0.1A1.332,1.332,0,0,1,43.476,18.262Zm3.917,0a0.54,0.54,0,0,1,.294.4h-0.1v-0.1h-0.1Zm2.644,0a0.383,0.383,0,0,1,.2.3h-0.1v-0.1A0.36,0.36,0,0,1,50.037,18.262Zm12.142,0,0.49,0.1v0.1H62.375C62.3,18.374,62.251,18.348,62.179,18.262Zm1.763,0a2.078,2.078,0,0,1,.49.2v0.1h-0.2A3.5,3.5,0,0,1,63.941,18.262Zm0.588,0a2.082,2.082,0,0,1,.49.2v0.1h-0.2A3.482,3.482,0,0,1,64.529,18.262Zm3.721,0h0.2v0.1A0.334,0.334,0,0,1,68.25,18.262Zm-41.322.1h0.2v0.1h-0.1C26.958,18.473,26.835,18.465,26.928,18.361Zm9.2,0a0.47,0.47,0,0,1,.294.1A0.47,0.47,0,0,1,36.132,18.361Zm32.313,0,0.294,0.1v0.1A0.372,0.372,0,0,1,68.446,18.361Zm-44.161.1h0.2v0.1h-0.1C24.314,18.572,24.192,18.564,24.284,18.46Zm11.554,0a0.47,0.47,0,0,1,.294.1H35.838v-0.1Zm26.83,0,0.49,0.1v0.1H62.864C62.792,18.572,62.741,18.546,62.668,18.46Zm-36.034.1h0.2v0.1A0.334,0.334,0,0,1,26.634,18.559Zm8.911,0a0.47,0.47,0,0,1,.294.1h-0.2a4.4,4.4,0,0,1-2.35.693h0.2C34.039,18.939,35.01,18.992,35.545,18.559Zm11.652,0a0.359,0.359,0,0,1,.1.2H47.2v-0.2Zm3.035,0a0.383,0.383,0,0,1,.2.3h-0.1v-0.1A0.358,0.358,0,0,1,50.233,18.559Zm5.483,0a3.807,3.807,0,0,1,1.861.594H57.185C56.791,18.858,56.1,18.868,55.716,18.559Zm8.715,0a2.078,2.078,0,0,1,.49.2v0.1h-0.2A3.483,3.483,0,0,1,64.431,18.559Zm0.588,0h0.2v0.1A0.334,0.334,0,0,1,65.018,18.559Zm3.721,0a2.082,2.082,0,0,1,.49.2v0.1h-0.2A3.482,3.482,0,0,1,68.739,18.559Zm-44.749.1h0.2v0.1h-0.1C24.02,18.77,23.9,18.762,23.99,18.658Zm2.448,0h0.2v0.1h-0.1C26.468,18.77,26.346,18.762,26.438,18.658Zm16.744,0c0.046,0.211.093,0.1-.1,0.3v0.1h-0.1A1.336,1.336,0,0,1,43.182,18.658Zm4.5,0a0.383,0.383,0,0,1,.2.3h-0.1v-0.1A0.357,0.357,0,0,1,47.687,18.658Zm15.471,0,1.763,0.594v0.1H64.627C64.22,19.039,63.531,19.007,63.158,18.658Zm2.056,0a2.089,2.089,0,0,1,.49.2v0.1h-0.2A3.484,3.484,0,0,1,65.214,18.658Zm-17.919.1a1.594,1.594,0,0,1,.49.891h-0.1v-0.1A1.743,1.743,0,0,1,47.3,18.757Zm-23.6.1h0.2v0.1h-0.1C23.727,18.968,23.6,18.961,23.7,18.856Zm2.448,0h0.2v0.1h-0.1a0.7,0.7,0,0,1-.392.2v-0.1h0.1C26.021,18.968,26.072,18.943,26.144,18.856Zm24.284,0a1.176,1.176,0,0,1,.49.693h-0.1v-0.1h-0.1A3.7,3.7,0,0,1,50.428,18.856Zm14.492,0a2.087,2.087,0,0,1,.49.2v0.1h-0.2A3.5,3.5,0,0,1,64.92,18.856Zm4.308,0a2.09,2.09,0,0,1,.49.2v0.1h-0.2A3.5,3.5,0,0,1,69.229,18.856Zm-21.346.1a0.54,0.54,0,0,1,.294.4h-0.1v-0.1h-0.1Zm17.821,0a2.97,2.97,0,0,1,.685.3v0.1h-0.2A4.122,4.122,0,0,1,65.7,18.955Zm-22.815.1c0.084,0.186.046,0.073,0,.3h-0.1Zm-17.234.1h0.2v0.1h-0.1C25.685,19.266,25.562,19.258,25.655,19.153Zm31.922,0a0.47,0.47,0,0,1,.294.1A0.47,0.47,0,0,1,57.577,19.153Zm7.833,0a2.084,2.084,0,0,1,.49.2v0.1H65.7A3.5,3.5,0,0,1,65.41,19.153Zm4.309,0a2.086,2.086,0,0,1,.49.2v0.1h-0.2A3.5,3.5,0,0,1,69.719,19.153Zm-11.848.1a3.049,3.049,0,0,1,1.567.5H59.045C58.731,19.51,58.178,19.5,57.87,19.252Zm-32.509.1h0.2v0.1h-0.1a0.7,0.7,0,0,1-.392.2v-0.1h0.1C25.238,19.463,25.289,19.438,25.361,19.351Zm17.332,0c0.046,0.211.093,0.1-.1,0.3v0.1H42.5A1.335,1.335,0,0,1,42.693,19.351Zm5.483,0a0.383,0.383,0,0,1,.2.3h-0.1v-0.1A0.357,0.357,0,0,1,48.176,19.351Zm16.744,0,0.49,0.1v0.1H65.116C65.044,19.463,64.993,19.438,64.92,19.351Zm1.469,0h0.2v0.1A0.334,0.334,0,0,1,66.389,19.351Zm-33.39.1a0.47,0.47,0,0,1,.294.1A0.47,0.47,0,0,1,33,19.451Zm32.9,0a2.08,2.08,0,0,1,.49.2v0.1h-0.2A3.5,3.5,0,0,1,65.9,19.451Zm0.685,0a2.082,2.082,0,0,1,.49.2v0.1h-0.2A3.482,3.482,0,0,1,66.585,19.451Zm3.623,0a2.082,2.082,0,0,1,.49.2v0.1H70.5A3.5,3.5,0,0,1,70.208,19.451Zm-37.5.1a0.47,0.47,0,0,1,.294.1A0.47,0.47,0,0,1,32.705,19.55Zm18.213,0a0.383,0.383,0,0,1,.2.3h-0.1v-0.1A0.359,0.359,0,0,1,50.918,19.55Zm14.492,0,0.49,0.1v0.1H65.606C65.533,19.661,65.483,19.636,65.41,19.55Zm-42.5.1c0.084,0.186.046,0.073,0,.3h-0.1Zm0.685,0a3.508,3.508,0,0,0,.685.3,2.023,2.023,0,0,1,.783-0.3v0.1c-0.111.113-.5,1.343-0.2,1.09A5.124,5.124,0,0,1,23.6,19.649Zm8.813,0a0.47,0.47,0,0,1,.294.1h-0.2a4.4,4.4,0,0,1-2.35.693h0.2C30.906,20.029,31.877,20.081,32.411,19.649Zm15.373,0a0.359,0.359,0,0,1,.1.2h-0.1v-0.2Zm0.588,0a0.54,0.54,0,0,1,.294.4h-0.1v-0.1h-0.1Zm-5.973.1c0.084,0.187.046,0.073,0,.3H42.3Zm17.038,0a0.47,0.47,0,0,1,.294.1A0.47,0.47,0,0,1,59.437,19.748Zm6.463,0,0.49,0.1v0.1H66.1C66.023,19.859,65.972,19.834,65.9,19.748Zm0.49,0c0.792,0.21,1.376.77,2.252,0.99v0.1a1.227,1.227,0,0,1-.392-0.1v0.1h0.1c0.188,0.077-.2.1-0.2,0.1C67.681,20.36,66.659,20.25,66.389,19.748Zm0.686,0a2.97,2.97,0,0,1,.685.3v0.1h-0.2A4.115,4.115,0,0,1,67.075,19.748Zm3.623,0a2.082,2.082,0,0,1,.49.2v0.1h-0.2A3.467,3.467,0,0,1,70.7,19.748Zm-46.022.1a1.14,1.14,0,0,1-.49.2v0.1h0.1a1.2,1.2,0,0,0,.392.4v-0.4C24.762,19.973,24.763,20.017,24.676,19.847Zm35.055,0a3.048,3.048,0,0,1,1.567.5H60.906C60.591,20.1,60.038,20.094,59.731,19.847Zm-37.013.1c0.122,0.155.063,0.051,0,.2a3,3,0,0,1-.294.594h-0.1v-0.2A2.09,2.09,0,0,0,22.717,19.946Zm19.486,0.1c0.046,0.211.093,0.1-.1,0.3v0.1h-0.1A1.334,1.334,0,0,1,42.2,20.045Zm6.463,0a0.383,0.383,0,0,1,.2.3h-0.1v-0.1A0.358,0.358,0,0,1,48.666,20.045Zm22.521,0a2.09,2.09,0,0,1,.49.2v0.1h-0.2A3.483,3.483,0,0,1,71.187,20.045Zm-3.427.1a2.97,2.97,0,0,1,.685.3v0.1h-0.2A4.122,4.122,0,0,1,67.76,20.144Zm-6.463.2a0.47,0.47,0,0,1,.294.1A0.471,0.471,0,0,1,61.3,20.342Zm10.38,0a2.086,2.086,0,0,1,.49.2v0.1h-0.2A3.482,3.482,0,0,1,71.677,20.342Zm-34.174.1a1.024,1.024,0,0,1,.587.1A1.023,1.023,0,0,1,37.5,20.441Zm4.406,0a0.557,0.557,0,0,1-.294.594v0.1h-0.1v-0.2A1.594,1.594,0,0,0,41.909,20.441Zm10.086,0a1.023,1.023,0,0,1,.587.1A1.023,1.023,0,0,1,52,20.441Zm9.6,0a3.807,3.807,0,0,1,1.86.594H63.06C62.667,20.739,61.975,20.75,61.591,20.441Zm-41.909.1a0.47,0.47,0,0,1,.294.1A0.47,0.47,0,0,1,19.682,20.54Zm10.184,0a0.47,0.47,0,0,1,.294.1A0.47,0.47,0,0,1,29.865,20.54Zm7.442,0h0.2v0.1A0.334,0.334,0,0,1,37.307,20.54Zm15.275,0h0.2C52.662,20.7,52.738,20.661,52.583,20.54Zm15.863,0h0.2v0.1A0.334,0.334,0,0,1,68.446,20.54Zm-49.057.1a0.47,0.47,0,0,1,.294.1h-0.2a0.482,0.482,0,0,1-.588.1h0.2C19.17,20.77,19.313,20.707,19.388,20.639Zm33.488,0h0.2v0.1A0.334,0.334,0,0,1,52.876,20.639Zm15.765,0c0.8,0.213,1.357.769,2.252,0.99-0.054.175-.027,0.053-0.2,0.1,0,0,.26.245,0.294,0.3H70.8c-0.152-.179-0.226-0.337-0.294-0.4A3.163,3.163,0,0,1,68.641,20.639Zm3.525,0a2.082,2.082,0,0,1,.49.2v0.1h-0.2A3.482,3.482,0,0,1,72.167,20.639Zm-52.387.1h0.2v0.1A0.334,0.334,0,0,1,19.78,20.738Zm2.448,0c0.084,0.186.046,0.073,0,.3h-0.1Zm-2.742.1a0.47,0.47,0,0,1,.294.1h-0.2c-0.168.087-.125,0.088-0.294,0A0.335,0.335,0,0,0,19.486,20.837Zm12.142,0a6.631,6.631,0,0,1,1.567.693c-0.172.142,0.081,0.16,0.2,0.3H33.1a0.7,0.7,0,0,0-.392-0.2l0.1-.2h-0.1a0.351,0.351,0,0,1-.2.1,0.629,0.629,0,0,0,.1.3v0.1h0.1v-0.1l-0.1-.1h0.2a13.857,13.857,0,0,0,2.742,2.377,0.352,0.352,0,0,1-.2.1v0.1h-0.1V24.2c-0.9-.306-1.423-1.3-2.154-1.783-0.17-.112-0.44-0.085-0.587-0.2a0.334,0.334,0,0,0,.2-0.1,2.688,2.688,0,0,0-.685-0.5,5.246,5.246,0,0,1-.2,1.684v-0.2A5.59,5.59,0,0,1,31.628,20.837Zm-13.023.1a0.47,0.47,0,0,1,.294.1H18.7a0.932,0.932,0,0,1-.881.2h0.2C18.172,21.113,18.452,21.06,18.6,20.936Zm49.743,0h0.2v0.1A0.334,0.334,0,0,1,68.348,20.936Zm4.308,0a2.082,2.082,0,0,1,.49.2v0.1h-0.2A3.467,3.467,0,0,1,72.656,20.936Zm-53.66.1a0.47,0.47,0,0,1,.294.1h-0.2a0.339,0.339,0,0,1-.489.1h0.2C18.873,21.147,18.924,21.122,19,21.035Zm3.035,0c0.084,0.186.046,0.073,0,.3h-0.1Zm41.42,0a3.807,3.807,0,0,1,1.861.594H64.92C64.527,21.334,63.835,21.344,63.452,21.035Zm5.092,0a2.087,2.087,0,0,1,.49.2v0.1h-0.2A3.5,3.5,0,0,1,68.543,21.035Zm-42.791.1c0.109,0.164.173,0.106,0,.2v-0.2Zm15.667,0c0.046,0.211.093,0.1-.1,0.3v0.1h-0.1A1.332,1.332,0,0,1,41.42,21.134Zm-9.2.1a0.352,0.352,0,0,0,.2.1A0.352,0.352,0,0,0,32.215,21.233Zm40.93,0a2.088,2.088,0,0,1,.489.2v0.1h-0.2A3.467,3.467,0,0,1,73.146,21.233Zm-55.618.1a0.47,0.47,0,0,1,.294.1A0.471,0.471,0,0,1,17.528,21.332Zm0.783,0a0.47,0.47,0,0,1,.294.1h-0.2a0.339,0.339,0,0,1-.49.1h0.2C18.188,21.444,18.238,21.419,18.311,21.332Zm3.525,0c0.084,0.186.046,0.073,0,.3h-0.1Zm9.89,0v0.2h0.2v-0.2h-0.2Zm37.307,0a2.083,2.083,0,0,1,.49.2v0.1h-0.2A3.5,3.5,0,0,1,69.033,21.332Zm-51.8.1a0.471,0.471,0,0,1,.294.1h-0.2a0.932,0.932,0,0,1-.881.2h0.2C16.8,21.608,17.081,21.555,17.234,21.431Zm36.524,0h0.392v0.5a0.47,0.47,0,0,1-.294-0.1A0.674,0.674,0,0,1,53.758,21.431Zm-20.563.1,0.49,0.1v0.1H33.391C33.318,21.642,33.267,21.617,33.195,21.53Zm7.932,0c0.084,0.186.046,0.073,0,.3h-0.1Zm6.463,0a0.352,0.352,0,0,0,.2.1A0.352,0.352,0,0,0,47.589,21.53Zm26.046,0a2.087,2.087,0,0,1,.49.2v0.1h-0.2A3.484,3.484,0,0,1,73.635,21.53Zm-56.01.1a0.47,0.47,0,0,1,.294.1h-0.2a0.339,0.339,0,0,1-.49.1h0.2C17.5,21.741,17.553,21.716,17.626,21.629Zm4.015,0c0.122,0.155.063,0.05,0,.2a3,3,0,0,1-.294.594h-0.1v-0.2A2.089,2.089,0,0,0,21.64,21.629Zm43.672,0a3.808,3.808,0,0,1,1.861.594H66.781C66.388,21.928,65.7,21.938,65.312,21.629Zm4.21,0a2.078,2.078,0,0,1,.49.2v0.1h-0.2A3.483,3.483,0,0,1,69.523,21.629Zm-35.838.1,0.49,0.1c-0.1.278-.138,0.035,0,0.3H33.88c-0.073-.086-0.123-0.112-0.2-0.2a0.334,0.334,0,0,0,.2-0.1A0.334,0.334,0,0,1,33.684,21.728Zm37.209,0,0.49,0.1v0.1H71.089C71.017,21.84,70.966,21.815,70.894,21.728Zm-54.737.1a0.47,0.47,0,0,1,.294.1h-0.2a0.933,0.933,0,0,1-.881.2h0.2C15.724,22,16,21.951,16.157,21.828Zm9.3,0a0.5,0.5,0,0,1-.1.5h-0.1v-0.2A1.146,1.146,0,0,0,25.459,21.828Zm7.932,0a0.47,0.47,0,0,1,.294.1A0.47,0.47,0,0,1,33.391,21.828Zm7.54,0c0.046,0.211.093,0.1-.1,0.3v0.1h-0.1A1.335,1.335,0,0,1,40.93,21.828Zm9.009,0a0.383,0.383,0,0,1,.2.3h-0.1v-0.1A0.36,0.36,0,0,1,49.939,21.828Zm24.186,0a2.078,2.078,0,0,1,.49.2v0.1h-0.2A3.5,3.5,0,0,1,74.125,21.828Zm-57.185.1a0.47,0.47,0,0,1,.294.1h-0.2c-0.168.087-.125,0.088-0.294,0A0.334,0.334,0,0,0,16.94,21.927Zm10.771,0h0.2v0.1A0.335,0.335,0,0,1,27.711,21.927Zm42.3,0h0.2v0.1A0.335,0.335,0,0,1,70.012,21.927Zm1.371,0,1.763,0.594v0.1H72.852C72.445,22.307,71.756,22.276,71.383,21.927Zm-38.58.1c-0.032.137,0.139,0.144,0.2,0.2C33.067,22.118,32.83,22.055,32.8,22.026Zm13.415,0a0.47,0.47,0,0,1,.294.1,0.509,0.509,0,0,1,.1.3,1.37,1.37,0,0,1-.392.1A0.608,0.608,0,0,1,46.218,22.026Zm23.99,0a2.086,2.086,0,0,1,.49.2v0.1H70.5A3.5,3.5,0,0,1,70.208,22.026Zm0.783,0h0.2v0.1A0.335,0.335,0,0,1,70.991,22.026Zm-54.541.1a0.47,0.47,0,0,1,.294.1h-0.2a0.339,0.339,0,0,1-.489.1h0.2C16.327,22.236,16.378,22.211,16.45,22.125Zm33.684,0a0.54,0.54,0,0,1,.294.4h-0.1v-0.1h-0.1Zm21.053,0a2.082,2.082,0,0,1,.49.2v0.1h-0.2A3.467,3.467,0,0,1,71.187,22.125Zm3.427,0,0.294,0.1v0.1A0.372,0.372,0,0,1,74.614,22.125Zm-59.535.1a0.47,0.47,0,0,1,.294.1h-0.2a0.933,0.933,0,0,1-.881.2h0.2C14.647,22.4,14.927,22.348,15.08,22.224Zm25.557,0c0.084,0.186.046,0.073,0,.3h-0.1Zm26.536,0a3.807,3.807,0,0,1,1.86.594H68.641C68.248,22.522,67.556,22.533,67.173,22.224Zm-42.007.1c0.084,0.186.046,0.073,0,.3h-0.1Zm8.029,0c-0.032.137,0.139,0.144,0.2,0.2C33.459,22.416,33.222,22.352,33.195,22.323Zm37.5,0a2.082,2.082,0,0,1,.49.2v0.1h-0.2A3.467,3.467,0,0,1,70.7,22.323Zm4.21,0h0.2v0.1A0.334,0.334,0,0,1,74.908,22.323Zm-59.143.1a0.471,0.471,0,0,1,.294.1h-0.2a0.339,0.339,0,0,1-.49.1h0.2C15.642,22.534,15.693,22.508,15.765,22.422Zm5.386,0c0.084,0.186.046,0.073,0,.3h-0.1Zm14.1,0a0.352,0.352,0,0,0,.2.1A0.352,0.352,0,0,0,35.251,22.422Zm36.426,0h0.2v0.1A0.334,0.334,0,0,1,71.677,22.422Zm3.427,0,0.294,0.1v0.1A0.372,0.372,0,0,1,75.1,22.422Zm-39.363.1a0.47,0.47,0,0,1,.294.1A0.47,0.47,0,0,1,35.741,22.521Zm4.7,0c0.046,0.211.093,0.1-.1,0.3v0.1h-0.1A1.335,1.335,0,0,1,40.441,22.521Zm6.463,0a0.292,0.292,0,0,1,0,.4v-0.4Zm3.525,0a0.383,0.383,0,0,1,.2.3h-0.1v-0.1A0.359,0.359,0,0,1,50.428,22.521Zm21.444,0a2.084,2.084,0,0,1,.49.2v0.1h-0.2A3.483,3.483,0,0,1,71.873,22.521ZM14,22.62a0.471,0.471,0,0,1,.294.1H14.1a0.932,0.932,0,0,1-.881.2h0.2C13.57,22.8,13.85,22.744,14,22.62Zm10.967,0a0.5,0.5,0,0,1-.1.5h-0.1v-0.2A1.146,1.146,0,0,0,24.969,22.62Zm46.218,0a2.082,2.082,0,0,1,.49.2v0.1h-0.2A3.467,3.467,0,0,1,71.187,22.62Zm1.958,0,0.489,0.1v0.1H73.342C73.269,22.732,73.218,22.706,73.146,22.62Zm2.252,0h0.2v0.1A0.334,0.334,0,0,1,75.4,22.62Zm-60.318.1a0.47,0.47,0,0,1,.294.1h-0.2a0.339,0.339,0,0,1-.49.1h0.2C14.956,22.831,15.007,22.805,15.08,22.719Zm5.875,0c0.084,0.186.046,0.073,0,.3h-0.1Zm12.632,0a0.352,0.352,0,0,0,.2.1A0.352,0.352,0,0,0,33.586,22.719Zm42.007,0,0.294,0.1v0.1A0.372,0.372,0,0,1,75.594,22.719Zm-18.409.1a0.357,0.357,0,0,1,.1.2h-0.1v-0.2Zm11.848,0a3.808,3.808,0,0,1,1.861.594H70.5C70.109,23.116,69.416,23.127,69.033,22.818Zm3.329,0h0.2v0.1A0.334,0.334,0,0,1,72.362,22.818Zm1.273,0,0.49,0.1v0.1H73.831C73.759,22.93,73.708,22.9,73.635,22.818Zm-33.488.1a0.557,0.557,0,0,1-.294.594v0.1h-0.1v-0.2A1.594,1.594,0,0,0,40.147,22.917Zm31.53,0a2.09,2.09,0,0,1,.49.2v0.1h-0.2A3.483,3.483,0,0,1,71.677,22.917Zm0.881,0a2.089,2.089,0,0,1,.49.2v0.1h-0.2A3.5,3.5,0,0,1,72.558,22.917Zm3.329,0h0.2v0.1A0.334,0.334,0,0,1,75.887,22.917Zm-62.962.1a0.47,0.47,0,0,1,.294.1A0.47,0.47,0,0,1,12.925,23.016Zm1.469,0a0.47,0.47,0,0,1,.294.1h-0.2a1.066,1.066,0,0,1-.979.3h0.2C13.894,23.246,14.212,23.186,14.394,23.016Zm6.365,0c0.084,0.186.046,0.073,0,.3h-0.1Zm13.219,0c-0.032.137,0.139,0.144,0.2,0.2C34.242,23.109,34.005,23.046,33.978,23.016Zm40.147,0,1.763,0.594v0.1H75.594C75.187,23.4,74.5,23.365,74.125,23.016Zm1.958,0,0.294,0.1v0.1A0.372,0.372,0,0,1,76.083,23.016Zm-63.452.1a0.47,0.47,0,0,1,.294.1h-0.2a0.932,0.932,0,0,1-.881.2h0.2C12.2,23.292,12.479,23.239,12.632,23.115Zm12.044,0a0.5,0.5,0,0,1-.1.5h-0.1v-0.2A1.146,1.146,0,0,0,24.676,23.115Zm21.249,0.891H47.2V23.214a3.582,3.582,0,0,0-1.077-.1,0.351,0.351,0,0,1-.2.1v0.792Zm3.721-.891a0.358,0.358,0,0,1,.1.2h-0.1v-0.2Zm3.623,0a0.645,0.645,0,0,0,.1.4A0.646,0.646,0,0,0,53.268,23.115Zm1.371,0v0.4h0.294a1.265,1.265,0,0,1,.1-0.4H54.639Zm17.528,0.1a2.086,2.086,0,0,1,.49.2v0.1h-0.2A3.482,3.482,0,0,1,72.167,23.214Zm0.881,0h0.2v0.1A0.335,0.335,0,0,1,73.048,23.214Zm3.329,0a2.086,2.086,0,0,1,.49.2v0.1h-0.2A3.5,3.5,0,0,1,76.377,23.214Zm-55.814.1c0.122,0.155.063,0.051,0,.2a3.009,3.009,0,0,1-.294.594h-0.1v-0.2A2.089,2.089,0,0,0,20.563,23.313Zm52.681,0a2.082,2.082,0,0,1,.49.2v0.1h-0.2A3.482,3.482,0,0,1,73.244,23.313Zm-38.776.1c-0.032.137,0.139,0.144,0.2,0.2C34.732,23.5,34.495,23.442,34.468,23.412Zm12.827,0a3.284,3.284,0,0,0,.1,1.387A3.284,3.284,0,0,0,47.3,23.412Zm23.6,0a3.808,3.808,0,0,1,1.861.594H72.362C71.969,23.711,71.277,23.721,70.894,23.412Zm-59.339.1a0.47,0.47,0,0,1,.294.1h-0.2a0.933,0.933,0,0,1-.881.2h0.2C11.122,23.688,11.4,23.635,11.555,23.511Zm1.665,0a0.47,0.47,0,0,1,.294.1h-0.2a0.339,0.339,0,0,1-.49.1h0.2C13.1,23.623,13.147,23.6,13.219,23.511Zm33.293,0h0.2v0.1h-0.2v-0.1Zm26.144,0a2.082,2.082,0,0,1,.49.2v0.1h-0.2A3.467,3.467,0,0,1,72.656,23.511Zm4.211,0a2.082,2.082,0,0,1,.49.2v0.1h-0.2A3.482,3.482,0,0,1,76.867,23.511Zm-52.485.1c0.084,0.187.046,0.073,0,.3h-0.1Zm15.275,0c0.046,0.211.093,0.1-.1,0.3v0.1h-0.1A1.334,1.334,0,0,1,39.657,23.61Zm34.076,0h0.2v0.1A0.334,0.334,0,0,1,73.733,23.61Zm-38.874.1c-0.032.137,0.139,0.144,0.2,0.2C35.124,23.8,34.886,23.739,34.859,23.709Zm11.359,0h0.2v0.1h-0.2v-0.1Zm27.711,0a2.084,2.084,0,0,1,.49.2v0.1h-0.2A3.483,3.483,0,0,1,73.929,23.709Zm1.958,0,0.49,0.1v0.1H76.083C76.011,23.821,75.96,23.8,75.887,23.709Zm-63.354.1a0.471,0.471,0,0,1,.294.1h-0.2a0.339,0.339,0,0,1-.49.1h0.2C12.41,23.92,12.461,23.895,12.534,23.808Zm60.612,0h0.2v0.1h-0.2v-0.1Zm4.21,0a2.082,2.082,0,0,1,.49.2v0.1h-0.2A3.482,3.482,0,0,1,77.356,23.808Zm-66.879.1a0.47,0.47,0,0,1,.294.1h-0.2a0.933,0.933,0,0,1-.881.2h0.2C10.044,24.084,10.325,24.031,10.477,23.907Zm13.709,0a0.5,0.5,0,0,1-.1.5h-0.1V24.2A1.145,1.145,0,0,0,24.186,23.907Zm21.542,0a4.029,4.029,0,0,0,0,1.783v0.2h0.1A5.112,5.112,0,0,0,45.728,23.907Zm27.613,0a5.157,5.157,0,0,1,.979.594,16.4,16.4,0,0,0,2.154.594v0.1H76.181l-1.175-.4v0.1a0.372,0.372,0,0,1,.294.2H75.1c-0.534-.53-1.455-0.51-2.056-0.99l0.587,0.1v-0.1A0.372,0.372,0,0,1,73.342,23.907Zm3.035,0,0.49,0.1v0.1H76.573C76.5,24.019,76.45,23.994,76.377,23.907Zm-3.623.1a0.47,0.47,0,0,1,.294.1H72.754v-0.1Zm1.665,0h0.2v0.1A0.334,0.334,0,0,1,74.419,24.006Zm-62.57.1a0.47,0.47,0,0,1,.294.1h-0.2a0.339,0.339,0,0,1-.49.1h0.2C11.725,24.217,11.776,24.192,11.848,24.105Zm8.225,0c0.084,0.186.046,0.073,0,.3h-0.1Zm25.851,0.5c0.581-.011.659-0.027,1.175,0a0.483,0.483,0,0,0,.1.3V24.2a3.582,3.582,0,0,0-1.077-.1,0.351,0.351,0,0,1-.2.1v0.4Zm3.623-.5V24.7h0.2V24.6h-0.1C49.7,24.309,49.844,24.293,49.547,24.105Zm3.721,1.783h0.489v-0.1a5.775,5.775,0,0,1,0-1.684h-0.2c-0.224.192-.031,0.133-0.294,0v0.2A12.462,12.462,0,0,1,53.268,25.888Zm0.588-1.783c-0.052,1.081-.291,1.78.685,1.783v-0.1a5.775,5.775,0,0,1,0-1.684H53.856Zm0.783,0v0.5h0.49v-0.5h-0.49Zm19.976,0a2.087,2.087,0,0,1,.49.2v0.1h-0.2A3.5,3.5,0,0,1,74.614,24.105Zm2.252,0L78.629,24.7v0.1H78.335C77.929,24.486,77.239,24.454,76.867,24.105Zm0.979,0a2.09,2.09,0,0,1,.49.2v0.1h-0.2A3.5,3.5,0,0,1,77.846,24.105ZM9.4,24.3a0.47,0.47,0,0,1,.294.1H9.5a0.932,0.932,0,0,1-.881.2h0.2C8.967,24.48,9.248,24.427,9.4,24.3Zm1.763,0.1a0.47,0.47,0,0,1,.294.1h-0.2a1.066,1.066,0,0,1-.979.3h0.2C10.663,24.632,10.98,24.573,11.163,24.4Zm8.715,0c0.084,0.186.046,0.073,0,.3h-0.1Zm4.015,0c0.084,0.186.046,0.073,0,.3h-0.1Zm15.373,0a2.4,2.4,0,0,0,1.567,0H39.266Zm35.838,0a2.971,2.971,0,0,1,.686.3v0.1h-0.2A4.132,4.132,0,0,1,75.1,24.4Zm3.231,0a2.086,2.086,0,0,1,.49.2v0.1h-0.2A3.5,3.5,0,0,1,78.335,24.4Zm-70.012.3a0.47,0.47,0,0,1,.294.1H8.323V24.7Zm11.359,0c0.084,0.186.046,0.073,0,.3h-0.1Zm9.988,0v0.2h0.1A0.339,0.339,0,0,0,29.67,24.7ZM1.86,25.987l-1.665.2v-0.2A5.237,5.237,0,0,1,0,25.195H0.2a10.42,10.42,0,0,1,1.567-.4v0.693A0.865,0.865,0,0,1,1.86,25.987ZM8.029,24.8a0.47,0.47,0,0,1,.294.1h-0.2a0.932,0.932,0,0,1-.881.2h0.2C7.6,24.975,7.877,24.923,8.029,24.8Zm30.942,0a1.044,1.044,0,0,0-.2.594,1.254,1.254,0,0,0,.1.3c0.127,0.244-.042.067,0.2,0.2V25.294A1.84,1.84,0,0,0,38.972,24.8Zm-28.984.1a0.47,0.47,0,0,1,.294.1h-0.2a0.339,0.339,0,0,1-.49.1h0.2C9.864,25.01,9.915,24.984,9.988,24.9Zm34.761,0a0.359,0.359,0,0,1,.1.2h-0.1V24.9ZM47.3,25v0.594h0.2v-0.2C47.427,25.308,47.36,25.082,47.3,25Zm-1.371.1a0.482,0.482,0,0,0,.1.3A0.483,0.483,0,0,0,45.924,25.1Zm1.175,0a0.513,0.513,0,0,0,.1.5A0.837,0.837,0,0,0,47.1,25.1Zm2.448,0v0.792h0.2V25.1h-0.2Zm1.371,0a4.624,4.624,0,0,0,0,.792h0.2a1.076,1.076,0,0,1,.1-0.792H50.918Zm-43.966.1a0.47,0.47,0,0,1,.294.1H7.05a0.933,0.933,0,0,1-.881.2h0.2C6.519,25.371,6.8,25.319,6.952,25.195Zm2.35,0a0.47,0.47,0,0,1,.294.1H9.4a0.339,0.339,0,0,1-.49.1h0.2C9.179,25.307,9.23,25.281,9.3,25.195Zm27.124,0.1v0.2h0.2v-0.2h-0.2Zm26.438,0H62.179v0.1a3.021,3.021,0,0,1,.1,1.287h0.2v-0.1A2.487,2.487,0,0,0,62.864,25.294Zm-27.417.1a0.359,0.359,0,0,1,.1.2h-0.1v-0.2Zm18.8,0a0.358,0.358,0,0,1,.1.2h-0.1v-0.2Zm-45.63.1a0.47,0.47,0,0,1,.294.1h-0.2a0.339,0.339,0,0,1-.49.1h0.2C8.494,25.6,8.544,25.578,8.617,25.492Zm18.213,0v0.693h0.294V25.492H26.83Zm0.392,0a8.27,8.27,0,0,0,.2,1.585h0.1V25.492H27.222Zm-21.346.1a0.47,0.47,0,0,1,.294.1h-0.2a0.933,0.933,0,0,1-.881.2h0.2C5.442,25.768,5.723,25.715,5.875,25.591Zm29.082,0.1h0.2v0.1A0.334,0.334,0,0,1,34.957,25.69Zm41.322,0a2.082,2.082,0,0,1,.49.2v0.1h-0.2A3.467,3.467,0,0,1,76.279,25.69Zm-68.348.1a0.47,0.47,0,0,1,.294.1h-0.2c-0.168.087-.125,0.088-0.294,0A0.334,0.334,0,0,0,7.931,25.789Zm25.753,0a0.284,0.284,0,0,0,.392,0H33.684Zm-31.824.2a0.529,0.529,0,0,1,0,.594V25.987Zm2.938,0a0.47,0.47,0,0,1,.294.1H4.9a0.932,0.932,0,0,1-.881.2h0.2C4.365,26.164,4.646,26.111,4.8,25.987Zm2.644,0a0.47,0.47,0,0,1,.294.1H7.54a0.339,0.339,0,0,1-.49.1h0.2C7.319,26.1,7.369,26.074,7.442,25.987Zm21.836,0c0.081,0.321-.048.151,0.2,0.3v-0.1a0.359,0.359,0,0,0,.1-0.2H29.278Zm1.273,0a0.974,0.974,0,0,0,.881,0H30.551Zm1.077,0a0.352,0.352,0,0,0,.2.1A0.351,0.351,0,0,0,31.628,25.987Zm0.392,0a0.974,0.974,0,0,0,.881,0H32.02Zm2.252,0,0.1,0.3h0.1v-0.3h-0.2Zm0.881,0v0.2h0.294v-0.2H35.153Zm0.392,0a3.826,3.826,0,0,1,0,1.089h0.392a8.262,8.262,0,0,1,0-1.089H35.545Zm17.723,0v0.2h0.1A0.341,0.341,0,0,0,53.268,25.987Zm0.294,0a3.539,3.539,0,0,0,.1,1.089h0.2v-0.2h-0.1v0.1c-0.076.191-.1-0.2-0.1-0.2a0.845,0.845,0,0,0,.2-0.792H53.562Zm0.392,0,0.1,1.089h0.2v-0.1a1.343,1.343,0,0,0,.2-0.99h-0.1a0.646,0.646,0,0,1-.1.4v-0.4H53.954Zm22.815,0h0.2v0.1A0.334,0.334,0,0,1,76.769,25.987Zm1.077,0c0.321,0.084.387,0.2,0.685,0.3v0.1H78.238C78.113,26.217,77.97,26.154,77.846,25.987Zm-20.465.1a0.352,0.352,0,0,0,.2.1A0.352,0.352,0,0,0,57.381,26.086Zm0.685,0a0.352,0.352,0,0,0,.2.1A0.352,0.352,0,0,0,58.066,26.086Zm18.9,0a2.084,2.084,0,0,1,.49.2v0.1h-0.2A3.483,3.483,0,0,1,76.965,26.086Zm-55.912,2.08a6.388,6.388,0,0,1,.1-1.783H20.465a2.632,2.632,0,0,0-1.567-.2l-0.294.5h1.371a0.5,0.5,0,0,1,.49-0.3v0.1h0.1c0.069,0.718.5,1.187,0.2,1.684h0.294Zm-14.3-1.882a0.47,0.47,0,0,1,.294.1h-0.2a0.339,0.339,0,0,1-.49.1h0.2C6.633,26.4,6.684,26.371,6.756,26.284Zm-3.035.1a0.47,0.47,0,0,1,.294.1A0.47,0.47,0,0,1,3.721,26.383Zm73.733,0,0.588,0.2v0.2h-0.2C77.721,26.613,77.579,26.55,77.454,26.383Zm1.077,0a2.08,2.08,0,0,1,.49.2v0.1h-0.2A3.468,3.468,0,0,1,78.531,26.383Zm-75.1.1a0.47,0.47,0,0,1,.294.1h-0.2a0.933,0.933,0,0,1-.881.2h0.2C2.994,26.659,3.275,26.606,3.427,26.482Zm50.82,0a0.51,0.51,0,0,1,.1.3h-0.1v-0.3Zm-48.176.1a0.47,0.47,0,0,1,.294.1h-0.2a0.339,0.339,0,0,1-.49.1h0.2C5.948,26.693,6,26.668,6.071,26.582Zm38.58,0a2.5,2.5,0,0,0,.2.5C44.833,26.7,44.893,26.729,44.651,26.582Zm22.521,0.1c0.151,0.191.241,0.276,0.392,0.2a0.359,0.359,0,0,0,.1-0.2h-0.49Zm11.848,0h0.2v0.1h-0.2v-0.1Zm-73.635.2a0.47,0.47,0,0,1,.294.1h-0.2a1.067,1.067,0,0,1-.979.3H4.7C4.886,27.108,5.2,27.049,5.386,26.879Zm57.185,0a0.352,0.352,0,0,0,.2.1A0.352,0.352,0,0,0,62.57,26.879Zm0.49,0a0.352,0.352,0,0,0,.2.1A0.352,0.352,0,0,0,63.06,26.879Zm-28.69.1a0.352,0.352,0,0,0,.2.1A0.352,0.352,0,0,0,34.37,26.978Zm-30.159.4a0.47,0.47,0,0,1,.294.1h-0.2a0.339,0.339,0,0,1-.49.1h0.2C4.087,27.486,4.138,27.46,4.211,27.374Zm-0.685.3a0.47,0.47,0,0,1,.294.1h-0.1a0.655,0.655,0,0,1-.392.1v-0.1A0.334,0.334,0,0,0,3.525,27.671Zm-0.392.2h0.2v0.1h-0.2v-0.1Zm12.534,0a0.351,0.351,0,0,0,.2.1A0.352,0.352,0,0,0,15.667,27.869Zm0.392,0a0.481,0.481,0,0,0,.1.3v-0.2l0.1-.1h-0.2Zm4.113,0.2a0.352,0.352,0,0,0,.2.1A0.352,0.352,0,0,0,20.171,28.067Z" transform="translate(0 0.5)"/>
</svg>
