<svg xmlns="http://www.w3.org/2000/svg" width="80" height="40" viewBox="0 0 80 40">
  <defs>
    <style>
      .cls-1 {
        fill: #fff;
        fill-rule: evenodd;
      }
    </style>
  </defs>
  <path id="Color_Fill_1" data-name="Color Fill 1" class="cls-1" d="M51.859,12.855v0.412a2.984,2.984,0,0,1,.7.1v0.618a0.91,0.91,0,0,0-.1.515,0.479,0.479,0,0,0-.3.1,2.359,2.359,0,0,1,1.709.412l-0.9-.206v0.1a0.561,0.561,0,0,1,.3.412h-0.1a0.8,0.8,0,0,0-.9-0.515,2.308,2.308,0,0,0-.3.309,0.91,0.91,0,0,0-.1.515h0.8a3.389,3.389,0,0,1,.2-0.618,8.052,8.052,0,0,0,.6,1.133h-0.1a3.233,3.233,0,0,1-.6.206,1.924,1.924,0,0,0,0,1.133c0.594-.017.681-0.012,1.306,0v0.721h-0.1v-0.1c-0.078-.2-0.1.206-0.1,0.206h0.2a8.285,8.285,0,0,0,1.508.1v-0.1a0.881,0.881,0,0,1-.6-0.721h0.1l0.5,0.618c0.088-.076.113-0.13,0.2-0.206,0.044,0.67.1,1.463,0.1,2.267h0.1c0.189-.183.08-0.19,0.3-0.1a0.534,0.534,0,0,1,.1.309,0.342,0.342,0,0,0-.2.1h0.4V20.17h1.105a1.328,1.328,0,0,1-.1.412h1.106l0.1-.412H57.789c0-.7-0.012-0.838,0-1.442a26.258,26.258,0,0,1,2.714.309,2.7,2.7,0,0,0,.2-0.515,0.478,0.478,0,0,1-.3-0.1,1.273,1.273,0,0,1,.7.1H60.8a5.289,5.289,0,0,1,.2.721c0.765,0.053,1.709.1,2.613,0.1v0.206h-0.2a2.406,2.406,0,0,0-2.312.412c0.456,0.394.429,1.06,0.4,1.958h0.4v-0.1a2.457,2.457,0,0,1-.2-1.649,5.454,5.454,0,0,1,.9-0.206,3.529,3.529,0,0,0,2.311.309v0.412c0.789,0.032,1.695.1,2.613,0.1v0.206h-0.2a3.307,3.307,0,0,0-2.312.309,2.392,2.392,0,0,1,.4.515V21.406a6.334,6.334,0,0,0,1.106,0c-0.036.3-.2,0.213,0.1,0.412v-0.1h-0.1c-0.193-.08.2-0.1,0.2-0.1,0.1-.026.038-0.081,0.1,0a0.376,0.376,0,0,1,.1.206c0.454-.309.779-0.051,1.507,0l0.1-.309s-0.393-.02-0.2-0.1h0.2V21.3a1.088,1.088,0,0,1,.5.206h-0.2v0.206h0.1v0.1a5.178,5.178,0,0,1,1.005,0V21.509a3.172,3.172,0,0,1,1.307.206c-0.074-.09-0.127-0.116-0.2-0.206,0.328,0,.3-0.143.5,0v0.206a4.93,4.93,0,0,0,1.407,0,1.922,1.922,0,0,1,.1-0.927v0.927l1.809-.1a1.636,1.636,0,0,1,.1-0.824v0.824l1-.1V21.2h0.5v0.412h0.1v-0.1c0.065-.089.134-0.324,0.2-0.412v0.412a15.263,15.263,0,0,0,1.608,0,1.635,1.635,0,0,1,.1-0.824,0.92,0.92,0,0,0,.2.927A8.641,8.641,0,0,0,79.9,21.3L80,21.818c-0.994.36-2.064,3.148-2.513,4.224-0.249.6-.108,1.488-0.5,1.648-0.034-.045-3.369,0-4.221,0H59.9C48.276,27.723,36.432,27.9,24.724,27.9l-14.07.1c-0.358-.149-0.7-0.7-1.106-0.824a8.54,8.54,0,0,0-2.111.206v0.412h-0.1c-0.161-.281.016-0.085-0.3-0.1V27.382h-0.4V27.176c0.4-.076.323-0.01,0.4-0.412h-0.2a1.918,1.918,0,0,1-.8.206c-0.143,1.245-1.494.988-2.814,0.927-0.157.128-.051,0.066-0.2,0-0.575-.21-0.439-1.176-0.4-1.958a1.82,1.82,0,0,0,.4-0.309C1.451,25.537.846,24.591,0,23.776a6.282,6.282,0,0,0,.2-2.164,0.375,0.375,0,0,1,.1.206,5.13,5.13,0,0,1,0,1.133,0.535,0.535,0,0,0,.5-0.206c0.167,0.182-.05.164,0.3,0.206v-0.1a1.439,1.439,0,0,1,.2-1.236v0.1a2.777,2.777,0,0,1,.3,1.133h0.4a2.628,2.628,0,0,1,.2-0.515,0.506,0.506,0,0,0,.1.309V22.436a0.917,0.917,0,0,0-.2-0.515h0.2c0.218,0.692,1.393.881,2.01,0.824a0.615,0.615,0,0,0-.2-0.412h0.7v0.1c-0.248.133-.068-0.044-0.2,0.206h0.6c0.083,0.334-.049.157,0.2,0.309a0.878,0.878,0,0,1,.2-0.515,0.638,0.638,0,0,1-.4-0.1h0.7v0.1c-0.273.189-.138,0.1-0.1,0.515h0.5c0.137-.406-0.06-0.4.6-0.412v0.1a0.622,0.622,0,0,0-.2.206,0.382,0.382,0,0,1,.3.206c0.292-.006.14-0.1,0.3,0,0.069-.079.132-0.23,0.2-0.309a1.3,1.3,0,0,0,.7.1,0.506,0.506,0,0,1,.1-0.309v0.515h0.4a3.141,3.141,0,0,1,.1-0.412,1.194,1.194,0,0,1,.2.309c0.22-.18.243-0.324,0.5-0.206h0.1l-0.1.309h0.4a2.826,2.826,0,0,1,.6,0V22.746c0.257,0.006.193,0.075,0.3-.309a1.43,1.43,0,0,1-.7-0.309,14.617,14.617,0,0,0-1.709,0h-0.1v-0.1h0.1v-0.1a6.653,6.653,0,0,0,2.513,0l0.1-.515h0.1a0.389,0.389,0,0,0,.3.206c0-.4-0.05-0.464.2-0.618a0.288,0.288,0,0,0,.1.1c-0.1.18-.256,0.344-0.1,0.515v0.1c0.4-.132.953-0.032,1.407-0.206,0.242-.092.5-0.4,0.6-0.412,0.171,0.188-.083.28,0.5,0.309,0.07,1.149.4,1.477-1.005,1.442v0.206h1.508a1.452,1.452,0,0,0,.3-1.133,0.526,0.526,0,0,0,.3-0.515h0.7a1.489,1.489,0,0,0,.1-0.412,1.394,1.394,0,0,1-.1-0.721,3.628,3.628,0,0,0-1.106-.1V19.552a3.23,3.23,0,0,1,1.005-.1V18.83h0.2v-0.1h0.1V21.3c0.253,0.151.184,0.129,0.2,0.515h1.306V21.612a1.578,1.578,0,0,1,.8.206c0.168,0.007.088-.073,0.1-0.206,0.262-.014.186,0.173,0.3,0.206A1.421,1.421,0,0,0,20.4,21.2a2.635,2.635,0,0,1-1.206-.1,6.743,6.743,0,0,0,2.211-.412c0,0.4-.05.464,0.2,0.618a0.67,0.67,0,0,1,.5-0.206v0.1c-0.311.126-.227,0.039-0.3,0.412,0.748-.047,1.38-0.1,2.412-0.1V21.3a7,7,0,0,1-.4-1.133h0.2a2.632,2.632,0,0,0,.3-0.412,1.15,1.15,0,0,0,.6,0v0.1h-0.2c-0.392.355-.608,0.206-0.6,1.03h0.2a0.506,0.506,0,0,1,.1-0.309v0.309a0.59,0.59,0,0,1,.4.206,0.88,0.88,0,0,1,.1-0.515,1.922,1.922,0,0,0,.1.927,3.888,3.888,0,0,1,1.709-.1V21.2a12.565,12.565,0,0,1-.3-2.061c-0.439.13-.923,0.605-1.307,0.412h0.2a4.324,4.324,0,0,0,1.106-.721c0.216-.313-0.082-0.352.2-0.515a4.351,4.351,0,0,1,.6-0.412c0.087-.133.025-0.315,0.1-0.412a0.677,0.677,0,0,0,.1.412,1.549,1.549,0,0,1,.8,0,2.715,2.715,0,0,1,.5.618l0.2-.1h0.1v1.133c0.326,0.53-.081.548-0.1,0.618-0.07.259,0.183,0.213,0.2,0.309a5.09,5.09,0,0,1-.1.721h0.6v0.1a0.7,0.7,0,0,0-.2.515h0.1V21.612a1.192,1.192,0,0,0,.2-0.309h0.1v0.206a3.34,3.34,0,0,0-.4.618h0.5V21.612c0.807-.042,2.1,0,3.417,0v0.927h0.1a1.361,1.361,0,0,1,1.106-.206v0.1c-0.147.253-.052,0.365-0.2,0.618h0.7a4.755,4.755,0,0,1,.2-1.133,1.273,1.273,0,0,1-.7-0.1c0.392,0,.452.051,0.6-0.206a1.548,1.548,0,0,0-.5-0.1,8.072,8.072,0,0,1-2.915-.1c1.089-.082,1.91.222,3.116-0.206V21.1h-0.3c-0.243.144-2.417,0.145-2.714-.206h0.2a5.219,5.219,0,0,0,2.01.1h4.221c0.038-.021.165-0.393,0.2-0.412,0.36-.184.313,0.357,0.7,0.206a0.406,0.406,0,0,1,.2-0.206c-0.039.3-.164,0.129,0.1,0.309,0.456,0.278.967-.12,1.508,0a1.572,1.572,0,0,1,.3.309c0.227,0.106,2.127-.138,2.714-0.1a3.2,3.2,0,0,1-.2-1.03l0.3-.1v-1.03a0.74,0.74,0,0,0,.3-0.206c0.006-.038-0.211-0.814-0.2-0.824h0.2c0.213-.393,1.669-0.554,2.111-0.824a2.717,2.717,0,0,0,.4.824h0.2a3.865,3.865,0,0,0,.1,1.03,1.921,1.921,0,0,1,.1-0.927c0.009,1.27-.006,1.257,0,2.576h0.1c0.241-.38.863-0.03,1.106,0.206a0.879,0.879,0,0,1,.3-0.206c-0.008.485,0.4,0.918,0.1,1.236v0.206h0.3a0.666,0.666,0,0,1,.4-0.1l0.1-1.03a0.933,0.933,0,0,1-.4-0.309h0.6a3.594,3.594,0,0,1,.1-0.824,1.822,1.822,0,0,1-.4-0.309h-0.8a3.216,3.216,0,0,1,.1-0.721c0.26-.029.178,0.048,0.2-0.412-0.44-.728-0.269-3.122-0.9-3.5-0.985.69-2.561,0.668-3.819,1.03A46.291,46.291,0,0,1,32.06,17.285a2.24,2.24,0,0,1-.2.515h-0.1V17.594a1.2,1.2,0,0,0,.2-0.309H30.553a11.6,11.6,0,0,0-3.015-.206,0.639,0.639,0,0,1-.1.412h-0.1V16.667a0.375,0.375,0,0,0,.1-0.206h-0.1v0.1c-0.878.861-1.5,2.3-2.613,2.885V19.242a17.292,17.292,0,0,0,1.709-2.164,7.762,7.762,0,0,0,1-1.03h0.1v0.824a44.678,44.678,0,0,0,16.683-1.133c0.9-.258,3.883-0.648,4.221-1.236a3.467,3.467,0,0,1-.3-1.545h0.2v0.1h0.1a1.7,1.7,0,0,0,.3,1.545,6.155,6.155,0,0,1,.8,0V14.5a3.412,3.412,0,0,1-1.105-1.339h0.1v0.1c0.8,0.41.754,0.979,1.407,1.442l-0.5-.618h0.2a0.864,0.864,0,0,0,.7.515V14.194l0.5-.1V11.515h-0.1a5.389,5.389,0,0,1-.1,2.061,18.067,18.067,0,0,0-.1-2.576h0.2c0.055,0.653.227,0.081,0.3,0.721a4.279,4.279,0,0,0-.1,1.133h0.1C51.3,12.636,51.3,12.812,51.859,12.855Zm-1.508-1.442h0.2v0.1A0.341,0.341,0,0,1,50.352,11.412Zm0.5,3.194a0.638,0.638,0,0,0,.4-0.1h-0.3a0.507,0.507,0,0,0-.1-0.309v0.412Zm-2.01.206a1.364,1.364,0,0,0,.1.721A1.364,1.364,0,0,0,48.844,14.812Zm0.2,0a1.365,1.365,0,0,0,.1.721A1.363,1.363,0,0,0,49.045,14.812Zm0.2,0.1a2.218,2.218,0,0,0,.1,1.03,3.307,3.307,0,0,1,.1-1.03h-0.2Zm0.3,0a23.327,23.327,0,0,1-.4,4.43h0.4a2.919,2.919,0,0,1,.1-1.752v0.515h0.4a0.858,0.858,0,0,1,.3-0.824,0.478,0.478,0,0,1-.3-0.1,0.825,0.825,0,0,0,.5-0.1,0.912,0.912,0,0,0,.1-0.515,1.55,1.55,0,0,1,.1-0.309,1.274,1.274,0,0,1-.5,0V15.636h0.7V15.43a0.977,0.977,0,0,1-.3-0.412Zm-0.9.1a0.506,0.506,0,0,0,.1.309A0.506,0.506,0,0,0,48.643,15.018Zm5.226,0a1.648,1.648,0,0,1,1.005.309h-0.4C54.314,15.2,54.026,15.147,53.869,15.018Zm-2.412.618V15.224h-0.2a1.335,1.335,0,0,1-.1.412h0.3Zm1.809-.309a0.561,0.561,0,0,1,.3.412h-0.1v-0.1h-0.1Zm1.608,0a8.742,8.742,0,0,1,2.814.824h-0.4C56.632,15.7,55.483,15.826,54.874,15.327Zm-1.206.515a0.561,0.561,0,0,1,.3.412h-0.1v-0.1h-0.1Zm-2.613.1v0.206h0.1A0.356,0.356,0,0,0,51.055,15.946Zm6.633,0.206a2.934,2.934,0,0,1,1.508.412h-0.4C58.5,16.36,57.964,16.373,57.688,16.151Zm-6.533,1.03V16.564h0.4V16.358a1.392,1.392,0,0,0-.4-0.1v0.1h-0.1a1.529,1.529,0,0,1-.2.824h0.3Zm0.9,0.515h0.4l0.1-1.236c-0.286.033-.208,0.109-0.4,0a0.622,0.622,0,0,0,.2-0.206h-0.1a0.788,0.788,0,0,0-.3.309A10.307,10.307,0,0,1,52.06,17.7Zm1.91-1.442a0.561,0.561,0,0,1,.3.412h-0.1v-0.1h-0.1ZM59.2,16.564A29.385,29.385,0,0,1,64.623,17.9c0.871,0.25,2.149.117,2.814,0.618a23.958,23.958,0,0,1-5.93-1.339C60.758,16.949,59.745,17.014,59.2,16.564Zm-4.824.206a0.561,0.561,0,0,1,.3.412h-0.1v-0.1h-0.1Zm-1.809.412a0.506,0.506,0,0,0,.1.309V17.182h-0.1Zm2.111,0a0.561,0.561,0,0,1,.3.412h-0.1v-0.1h-0.1ZM31.658,17.8a0.374,0.374,0,0,1,.1.206h-0.1V17.8Zm-5.427.206a0.307,0.307,0,0,1,0,.412V18.006Zm5.327,0a0.96,0.96,0,0,1-.2.721h-0.1V18.521A1.938,1.938,0,0,0,31.558,18.006Zm-5.226.412a0.307,0.307,0,0,1,0,.412V18.418Zm41.106,0.1,8.442,1.442c1.011,0.242,3,.016,3.719.515a17.028,17.028,0,0,1-3.92-.515c-1.552-.374-3.108-0.363-4.523-0.721C70.127,18.982,68.158,19.057,67.437,18.521Zm12.261,0c0.341,0.566,0,2.045.2,2.679H79.7V18.521Zm-48.543.206a0.375,0.375,0,0,1,.1.206h-0.1V18.727Zm-0.1.206a0.524,0.524,0,0,1-.1.515h-0.1V19.242A1.2,1.2,0,0,0,31.055,18.933Zm13.266,0a4.668,4.668,0,0,0-.1.927h0.1v-0.1A0.877,0.877,0,0,0,44.322,18.933Zm-13.568.515a0.375,0.375,0,0,1,.1.206h-0.1V19.449Zm-5.829.206h0.2v0.1h-0.2v-0.1Zm5.729,0a0.376,0.376,0,0,1,.1.206h-0.1V19.655Zm-0.1.206a0.524,0.524,0,0,1-.1.515h-0.1V20.17A1.2,1.2,0,0,0,30.553,19.861Zm13.869,0.1a0.58,0.58,0,0,0,0,.412h0.1V19.964h-0.1Zm-20.8.309h0.2v0.1A0.342,0.342,0,0,1,23.618,20.273Zm15.678,0a0.375,0.375,0,0,1,.1.206H39.3V20.273Zm10.452,0a0.374,0.374,0,0,1,.1.206h-0.1V20.273Zm-26.332.1h0.2v0.1A0.342,0.342,0,0,1,23.417,20.376Zm6.834,0a0.375,0.375,0,0,1,.1.206h-0.1V20.376Zm8.04,0a0.534,0.534,0,0,1,.1.309h-0.1V20.376Zm-15.176.1a0.478,0.478,0,0,1,.3.1h-0.2a0.872,0.872,0,0,1-.9.309h0.2C22.684,20.726,22.947,20.646,23.116,20.479Zm15.779,0h0.2v0.1A0.342,0.342,0,0,1,38.895,20.479Zm5.427,0a3.659,3.659,0,0,0,.1,1.236v-0.1A1.217,1.217,0,0,0,44.322,20.479Zm-14.171.1a0.524,0.524,0,0,1-.1.515h-0.1V20.891A1.194,1.194,0,0,0,30.151,20.582Zm-16.583.1,0.3,0.1v0.1h-0.7v-0.1A0.637,0.637,0,0,0,13.568,20.685Zm2.714,0.1a0.374,0.374,0,0,1,.1.206h-0.1V20.788Zm33.869,0-0.2,1.03h0.2A1.6,1.6,0,0,0,50.151,20.788Zm-35.075.206a0.557,0.557,0,0,1,0,.618V20.994Zm7.035,0h0.2v0.1A0.342,0.342,0,0,1,22.111,20.994Zm-11.055.1a0.478,0.478,0,0,1,.3.1A0.478,0.478,0,0,1,11.055,21.1Zm18.794,0a0.374,0.374,0,0,1,.1.206h-0.1V21.1Zm9.347,0-0.1.309h0.2A3.57,3.57,0,0,1,40.7,21.2V21.1H40.5A2.882,2.882,0,0,1,39.2,21.1Zm-14.472.1v0.206h0.1V21.2h-0.1Zm10.955,0v0.206h0.1A0.356,0.356,0,0,0,35.678,21.2Zm-6.633.1a0.881,0.881,0,0,0,.1.515l0.1-.515h-0.2Zm12.161,0.618V21.3h-0.2c-0.472.355-2.814,0.1-2.814,0.1-0.113-.088.042-0.106-0.1-0.1-0.187,0-.023.335-0.3,0.206a0.376,0.376,0,0,0-.2-0.206c-0.021.144,0.083-.041,0.1,0.1,0.193,0.08-.2.1-0.2,0.1-0.13-.254.043-0.07-0.2-0.206-0.091.25-.107,0.164-0.2,0.412,0.065,0.089.135,0.324,0.2,0.412C37.755,21.827,40.383,21.915,41.206,21.921ZM38.694,21.3c0.173,0.091.128,0.092,0.3,0h-0.3Zm10.653,0a0.422,0.422,0,0,1,0,.515V21.3Zm-27.839.1c0.021,0.144-.083-0.042-0.1.1-0.193.08,0.2,0.1,0.2,0.1A0.355,0.355,0,0,0,21.508,21.406Zm14.171,0.1a0.506,0.506,0,0,0,.1.309V21.509h-0.1Zm-12.261.1c-0.235.146-.873,0.056-1.106,0.206a1.6,1.6,0,0,0,1.306-.206h-0.2Zm0.5,0v0.206h0.3V21.612h-0.3Zm38.191,0v0.309h0.6V21.612h-0.6Zm-17.789.206v0.206h0.3v-0.1Zm-43.116.1v0.618h0.1v-0.1A0.438,0.438,0,0,0,1.206,21.921Zm24.322,1.133h0.3V21.921a0.784,0.784,0,0,1-.4,0v0.721A0.708,0.708,0,0,1,25.528,23.055Zm9.95-1.133,0.1,0.618h0.2V22.333h-0.1l0.1-.206h-0.1C35.548,21.873,35.722,22.057,35.477,21.921Zm-35.075.1a0.375,0.375,0,0,1,.1.206H0.4V22.024ZM0.5,22.23a0.7,0.7,0,0,1,.2.515H0.6V22.539A0.534,0.534,0,0,1,.5,22.23Zm34.774,0a0.506,0.506,0,0,0,.1.309V22.23h-0.1Zm-30.854.206a0.678,0.678,0,0,0,.1.412A0.678,0.678,0,0,0,4.422,22.436Zm32.663,0.1v0.515h0.2A0.682,0.682,0,0,0,37.085,22.539Zm-7.538.515h0.4a1.329,1.329,0,0,0-.1-0.412,0.342,0.342,0,0,0-.2.1A0.534,0.534,0,0,0,29.548,23.055Zm5.93-.412a0.677,0.677,0,0,0,.1.412A0.678,0.678,0,0,0,35.477,22.642Zm0.2,0a0.506,0.506,0,0,0,.1.309V22.642h-0.1Zm-33.467.1c0.167,0.115.107,0.182,0.2,0h-0.2Zm31.156,0c-0.033.143,0.143,0.149,0.2,0.206C33.638,22.842,33.395,22.776,33.367,22.746Zm-30.754.1a0.521,0.521,0,0,0,.6,0h-0.6Zm35.779,0v0.206h0.2V22.849h-0.2ZM7.437,26.764c0.083,0.334-.049.157,0.2,0.309V26.764h-0.2Zm0.9,0V26.97a0.825,0.825,0,0,0,.5-0.1A1.412,1.412,0,0,1,8.342,26.764Z" transform="translate(0 0.5)"/>
</svg>
