<svg xmlns="http://www.w3.org/2000/svg" width="39.969" height="40" viewBox="0 0 39.969 40">
  <defs>
    <style>
      .cls-1 {
        fill: #fff;
        fill-rule: evenodd;
      }
    </style>
  </defs>
  <path id="fr_cckw_353_bofors_ico" class="cls-1" d="M17.949,12.237A0.612,0.612,0,0,1,18,12.048l0.093,0.047a0.885,0.885,0,0,1,.047.285,1.465,1.465,0,0,0,.093.712l0.28,1.8a1.544,1.544,0,0,0,.559-0.142v0.237a7.014,7.014,0,0,0-1.818.332v0.095h0.326a2.755,2.755,0,0,1,.793-0.142,4.823,4.823,0,0,1,1.911-.237,0.285,0.285,0,0,0,.187.095,2.115,2.115,0,0,1,.559-0.095c0.687-.175,1.452-0.187,2.191-0.38,1.662-.434,3.459-0.467,5.175-0.9,0.389-.1.784-0.11,1.212-0.237a4.132,4.132,0,0,1,.886-0.285l0.093,0.712a16.272,16.272,0,0,0-4.429.665c-1.3.338-2.571,0.326-3.869,0.665-0.379.1-.88,0.186-1.259,0.285l-0.513.047c-0.239.1,0.033,0.155-.28,0.142v0.142a2.769,2.769,0,0,1-.932.142v0.047a0.245,0.245,0,0,1,.047.142h0.14a2.417,2.417,0,0,0-.093.332c-0.72.015-1.566,0.433-2.144,0.237L17.3,16.889H17.249a6.468,6.468,0,0,1-1.818.332v0.237h0.326a0.412,0.412,0,0,0,.14.285,3.81,3.81,0,0,0,1.445.285,10.342,10.342,0,0,0,2.145.237,1.593,1.593,0,0,1-.093.665c-0.347-.117-0.75-0.048-1.165-0.142a10.984,10.984,0,0,0-1.958-.237c-0.037.082-.122,0.087-0.047,0.142a2.571,2.571,0,0,1,.932.759H17.2V19.5a0.27,0.27,0,0,0-.233.285,0.594,0.594,0,0,1,.42.095,0.172,0.172,0,0,0-.047.095h0.466l0.047-.237h0.093v0.047a0.191,0.191,0,0,1,.093.19,3.569,3.569,0,0,0,.373.095,3.124,3.124,0,0,1,.466-0.285v0.047a0.576,0.576,0,0,0-.42.57H18.6v0.237H18.415a0.609,0.609,0,0,1-.047.19,0.49,0.49,0,0,0-.326-0.19v0.142a0.432,0.432,0,0,1-.373-0.047c-0.059.154-.041,0.125-0.233,0.142V20.782a0.245,0.245,0,0,1-.047-0.142H16.877v0.142H16.69V20.639H16.41l-0.047.522a19.028,19.028,0,0,0,4.009.095V21.161a1.3,1.3,0,0,1-.093-1.187,0.482,0.482,0,0,1,.28-0.095,0.98,0.98,0,0,1,.466-0.047V19.12a0.253,0.253,0,0,1-.186-0.143h0.047a0.475,0.475,0,0,1,.326-0.332,0.87,0.87,0,0,0,.653.095,10.686,10.686,0,0,0,1.958-.047V17.174a2.338,2.338,0,0,1-.047-0.9H24.1V16.32a11.709,11.709,0,0,0-.047,2.373,0.621,0.621,0,0,1,.186.095V18.456a5.881,5.881,0,0,0,0-1.092,8.841,8.841,0,0,1,2,.19,2.881,2.881,0,0,1,.559,1.377,2.44,2.44,0,0,1,2.518,1.092,0.985,0.985,0,0,1,.326-0.048,0.521,0.521,0,0,1,.093-0.142,4.287,4.287,0,0,0-.373-0.807c-0.133.015-.1,0.05-0.186,0H29.138V18.978a0.543,0.543,0,0,1,.28-0.142,0.375,0.375,0,0,0,0,.19,0.3,0.3,0,0,1,.233-0.095,2.61,2.61,0,0,0,.186.57h0.047V19.405a1.669,1.669,0,0,0,.093-0.427,6.458,6.458,0,0,1-.932-1,0.16,0.16,0,0,0-.093.047,5.228,5.228,0,0,1-.839.57V18.456a13.334,13.334,0,0,0,1.259-1.092,2.008,2.008,0,0,0,.653-0.57V15.94a0.685,0.685,0,0,0-.186-0.285c-0.015.215,0.006,0.2-.186,0.237a0.884,0.884,0,0,1-.047-0.285,0.627,0.627,0,0,1,.047-0.522h0.093a1.191,1.191,0,0,0,.28.522c0.146-.109.1-0.051,0.28,0l-0.047-.475c0.123-.036.111-0.057,0.233-0.095a2.4,2.4,0,0,1,.093.332,5.463,5.463,0,0,0-.093,1.756,1.09,1.09,0,0,1,.186.475,10.568,10.568,0,0,1,2.8.285l0.653,0.047c0.8,0.2,1.706.311,2.471,0.522,0.621,0.171,1.721.261,1.912,0.854h0.047v0.048H38.508C38.493,19.727,38.6,21.3,38.6,21.3l-0.047.095a7.955,7.955,0,0,1,1.166.285,1.5,1.5,0,0,0,.233.522v0.047c0.044,0.246-.091.2-0.14,0.285a3.649,3.649,0,0,1,0,.712,1.382,1.382,0,0,1-.606.047,2.358,2.358,0,0,0-.932-0.047v0.095a0.557,0.557,0,0,1,.186.475,0.159,0.159,0,0,0-.093.047,0.159,0.159,0,0,1-.093-0.047,0.244,0.244,0,0,1-.047-0.142l-0.653.047a0.681,0.681,0,0,0-.047.19,2.082,2.082,0,0,1-.326,1.851,2.472,2.472,0,0,1-1.4,1.092,2.431,2.431,0,0,1-3.03-2.326,2.2,2.2,0,0,1-.7-0.142c-0.087.055-.051,0.164-0.233,0.142a25.7,25.7,0,0,1-2.984-.38,0.39,0.39,0,0,0-.326.095,0.526,0.526,0,0,1-.28-0.095s-0.731.085-.886,0.095v0.9H25.921a3.464,3.464,0,0,0-.047-0.949,12.785,12.785,0,0,1-1.305-.142v0.332c-0.64-.013-1.517.036-2.145,0a2.675,2.675,0,0,0-.746-0.047l-3.73.285a2.457,2.457,0,0,1-3.776,1.9,2.714,2.714,0,0,1-.792-0.9,1.682,1.682,0,0,0-.326-0.712,0.571,0.571,0,0,1-.653-0.047c-0.091.1-.147,0.22-0.28,0.142-0.141-.047-0.139-0.093-0.28-0.142-0.47.951-.748,1.663-1.818,1.994a2.31,2.31,0,0,1-1.026,0,2.436,2.436,0,0,1-1.772-3.513H6.2a0.31,0.31,0,0,1-.186.047V24.1a0.384,0.384,0,0,1,.233.048A4.131,4.131,0,0,1,5.035,24.1H5.268V23.392l-0.42-.047a0.609,0.609,0,0,1-.233.332,0.158,0.158,0,0,1-.093-0.047,0.522,0.522,0,0,1-.047-0.285,1.772,1.772,0,0,0-.326.1c-0.053.18-.139,0.308-0.186,0.522H3.916V23.345H3.263v0.047a0.417,0.417,0,0,1,.047.237,25.929,25.929,0,0,1-2.844,0c-0.039.154,0.023,0.073-.093,0.143V23.725a2.48,2.48,0,0,1,0-1.139,0.81,0.81,0,0,0-.233.095,2,2,0,0,1-.047-0.712,0.45,0.45,0,0,0,.093-0.237A1.131,1.131,0,0,1,0,21.541l0.047-.285a2.455,2.455,0,0,1,.559-1.424A3.38,3.38,0,0,1,.839,19.12,3.122,3.122,0,0,1,1.4,18.93a3.766,3.766,0,0,1,1.165-.617,2.6,2.6,0,0,0,.979.047H5.967a0.133,0.133,0,0,0,.047.047c0.01,0.084.295,1.281,0.326,1.329a2.037,2.037,0,0,1,.793-0.047H9.044v1.282h1.585v0.19a10.07,10.07,0,0,0,1.911,0l-0.047-.522H10.256L10.21,20.5a3.964,3.964,0,0,0,0-1.282,0.223,0.223,0,0,1-.14-0.047h0.186a3.508,3.508,0,0,0-.28-1.377,1.8,1.8,0,0,1-.093-0.665,0.542,0.542,0,0,1,.233-0.095,0.326,0.326,0,0,0,.14.285,3.843,3.843,0,0,1,1.678-1.187,0.236,0.236,0,0,1,.14-0.047l-0.047-.475h0.047V15.56h0.14a3.923,3.923,0,0,1,.373-1.377,1.317,1.317,0,0,0,.233.095,0.678,0.678,0,0,0-.047.19l0.559,0.047a0.186,0.186,0,0,1,.14-0.19,0.96,0.96,0,0,0,.373.143c0,0.138-.045.066,0,0.142a2.273,2.273,0,0,0,1.119.142V14.8a1.505,1.505,0,0,0-.093.76l0.42-.047a0.545,0.545,0,0,1,0-.237,0.364,0.364,0,0,0,.14-0.142H15.338a0.376,0.376,0,0,1-.28.048,0.172,0.172,0,0,1-.047-0.1h0.047V15.038l1.026-.142a0.311,0.311,0,0,1,.047-0.19c0.019,0.17-.022.119,0.093,0.19a1.681,1.681,0,0,1,.7-0.142A9.782,9.782,0,0,0,16.6,12.76H16.55a0.509,0.509,0,0,1-.047.285,0.693,0.693,0,0,0-.047-0.237,10.805,10.805,0,0,0-1.352.237,0.613,0.613,0,0,0-.047-0.19c-0.137.019-.058,0.078-0.14-0.047-0.041-.035-0.053-0.06-0.093-0.1a0.719,0.719,0,0,0,.093-0.19,0.568,0.568,0,0,0,.513,0c0.039,0.154-.023.072,0.093,0.142,0.215-.136.628-0.048,0.839-0.19a0.244,0.244,0,0,0,.047-0.142A1.11,1.11,0,0,1,16.317,12H16.41c0,0.185-.023.214,0.093,0.285a1.062,1.062,0,0,1,.326-0.095c0.053,0.2.082,0.193,0.326,0.19A1.691,1.691,0,0,1,17.949,12.237Zm-1.026.237a16.967,16.967,0,0,0,.373,2.611,5.653,5.653,0,0,0,1.119-.19V14.563c-0.282-.463-0.218-1.717-0.466-2.278A3.78,3.78,0,0,1,16.923,12.475Zm1.911,1.187a0.193,0.193,0,0,1,0,.237V13.661Zm0.047,0.285a0.141,0.141,0,0,1,0,.19v-0.19Zm0.047,0.237a0.193,0.193,0,0,1,0,.237V14.184Zm0.047,0.285a0.193,0.193,0,0,1,0,.237V14.468Zm-5.921,5.174a7.461,7.461,0,0,1-.932-0.19l-0.047-.095h0.093a0.727,0.727,0,0,0,.42.142V19.405c-0.353-.124-0.214-0.29-0.373-0.617a3.051,3.051,0,0,0-.326-0.285H11.842a1.4,1.4,0,0,1-.047.57,2.8,2.8,0,0,1,0-.807h-0.14v0.142a0.584,0.584,0,0,0-.186.047V18.218a3.406,3.406,0,0,0,.233-1.282H11.655c-0.109.09-.546,0.129-0.606,0.19-0.1.106,0.089,0.084-.047,0.142a0.819,0.819,0,0,0-.326-0.142,1.207,1.207,0,0,0-.326.759,8.116,8.116,0,0,1,.653,1,3.288,3.288,0,0,0,1.958,1.044l0.047-.142A0.245,0.245,0,0,0,13.054,19.642ZM29.6,17.411a1.058,1.058,0,0,1-.28.237,0.164,0.164,0,0,0,.047.095,4.427,4.427,0,0,0,.559.854h0.047V18.076a0.522,0.522,0,0,0,.047-0.285H29.93a0.31,0.31,0,0,1-.186.047V17.744A1.111,1.111,0,0,0,29.6,17.411ZM10.4,20.307h1.818V20.26A11.379,11.379,0,0,1,11,19.548c-0.244-.185-0.358-0.53-0.606-0.712v1.472Zm1.445-1.234a0.183,0.183,0,0,1,.093.142H11.888V19.168A0.172,0.172,0,0,1,11.842,19.073Zm0.093,0.142c0.09,0.076.182,0.083,0.047,0.142V19.31A0.172,0.172,0,0,1,11.935,19.215ZM8.112,21.161v0.617H7.646l-0.28.427H8.438a0.311,0.311,0,0,1,.233-0.095,5.184,5.184,0,0,1,.047-0.949H8.112ZM17.576,21.4v0.285h0.047v0.048a2.01,2.01,0,0,1,.466.142,1.286,1.286,0,0,1,.326-0.047h0.047l0.093,0.19a2.123,2.123,0,0,0,.326.1V21.446C18.489,21.43,18.03,21.4,17.576,21.4Zm1.4,0.047v0.712a4.512,4.512,0,0,0,.653,0c0-.319,0-0.36,0-0.665H19.58V21.446A4.2,4.2,0,0,0,18.974,21.446Zm3.543,0.475h0.14v0.19c-0.151.039-.071-0.023-0.14,0.095h1.119a0.4,0.4,0,0,1,.233-0.047V22.111a2.913,2.913,0,0,1-.047-0.617,1.38,1.38,0,0,0-.746-0.095v0.142H22.751A0.233,0.233,0,0,0,22.7,21.4c-0.089.044-.055,0.018-0.187,0v0.095A3.836,3.836,0,0,1,22.518,21.921ZM20,21.446a1.878,1.878,0,0,0,.047.759A1.876,1.876,0,0,0,20,21.446Z" transform="translate(0 0.531)"/>
</svg>
