<svg xmlns="http://www.w3.org/2000/svg" width="40" height="40" viewBox="0 0 40 40">
  <defs>
    <style>
      .cls-1 {
        fill: #fff;
        fill-rule: evenodd;
      }
    </style>
  </defs>
  <path id="Color_Fill_1" data-name="Color Fill 1" class="cls-1" d="M17.633,17.679h0.532c-0.018-.446-0.1-1.144.29-1.284a0.633,0.633,0,0,1,.773.494c-0.265.081-.213,0.4-0.193,0.741a20.07,20.07,0,0,0,2.077.049,2.06,2.06,0,0,1,.725-0.049,3.048,3.048,0,0,0,.821,0c0.439-.054.662,0.083,1.111,0v-0.3a3.475,3.475,0,0,0-1.111-.2l-0.048.247c-0.8.54-.632-0.155-1.014-0.543a0.594,0.594,0,0,0,.145-0.3,2.957,2.957,0,0,1,.628-0.2,0.674,0.674,0,0,1,.242.3,0.256,0.256,0,0,1,.048.148,3.774,3.774,0,0,1,1.111.148V16.79a1.118,1.118,0,0,0,.386-0.049v0.1a2.134,2.134,0,0,0-.048.839,5.872,5.872,0,0,1,1.884.049,4.411,4.411,0,0,0,.145.84,9.619,9.619,0,0,1,.725-2.519A0.307,0.307,0,0,1,26.667,16a0.4,0.4,0,0,0,.242-0.049c0.126-.166.041-0.229,0.338-0.247a2.159,2.159,0,0,1,.435-0.049c-0.009-.169-0.07-0.177.193-0.2,0.083,0.043.062,0.044,0.145,0H27.874a5.109,5.109,0,0,1,0-.938c0.207-.669,1.858-0.62,1.981.1a2.132,2.132,0,0,0-.048.839,0.23,0.23,0,0,0-.145.049,3.975,3.975,0,0,1,.29.346c0.745,0.487,2.213.352,2.9,0.889a0.308,0.308,0,0,0-.193.049,0.179,0.179,0,0,1,.048.1,1.37,1.37,0,0,1,.483.3h0.773c0.641,0,1.458.01,1.884,0.049V17.58a22.3,22.3,0,0,1-2.367.049v0.1a3.223,3.223,0,0,1,.821.148h4.106v0.445h-4.4a1.784,1.784,0,0,1-.676.148,0.37,0.37,0,0,1-.193.247v0.049h0.048a0.472,0.472,0,0,0,.29.3,5.2,5.2,0,0,0,1.4.247c-0.028.172-.016,0.318-0.048,0.445h0.048V19.7a0.483,0.483,0,0,1,.483-0.247V20.2c2.185-.03,5.346.856,4.445,3.457-0.342.988-2.327,2.188-3.285,2.617C32.539,28.054,26.635,27.9,20.87,27.9a20.873,20.873,0,0,1-3.816-.049c-0.68-.152-1.428.036-2.029-0.1-0.683-.153-1.52,0-2.174-0.148l-2.029-.1c-2.154-.5-5.427-0.413-5.507-2.963a2.789,2.789,0,0,1-.966-0.3A9.338,9.338,0,0,1,.87,22.272c-0.188-.19-0.756-0.4-0.821-0.543A0.339,0.339,0,0,1,0,21.531c0.335-.036.443,0.017,0.773,0V21.383H5.845v0.148A6.687,6.687,0,0,0,7.2,21.284c0-.322.259-0.267,0.531-0.444a1.509,1.509,0,0,0,.193-0.346,0.586,0.586,0,0,0,.483-0.1,0.3,0.3,0,0,1,0-.2V20.148c0.545,0.151.844-.421,1.546-0.444a0.711,0.711,0,0,1,.048.2,0.212,0.212,0,0,0-.145.148H10a2.746,2.746,0,0,0,.483-0.2,1.286,1.286,0,0,1,0-.494,7.854,7.854,0,0,1-1.208-.1v-0.2H8.164v-0.1c0.735,0.021,1.182-.09,2.174-0.1,0.2-.363.861-0.66,0.966-0.938a1.985,1.985,0,0,0,0-.988,1.66,1.66,0,0,1,1.836-.2,1.457,1.457,0,0,0,.193.3,2.118,2.118,0,0,0-.1.889c0.176-.014.127-0.072,0.242,0.049a0.739,0.739,0,0,0,.338.4c0.109,0.043.22,0.005,0.29,0.049a0.307,0.307,0,0,0-.193.049c0.267,0.373.106,1.082,0.338,1.383a0.411,0.411,0,0,0,.242.049,0.777,0.777,0,0,1,.338,0V19.852a0.829,0.829,0,0,1,0-.346H14.686v0.3H14.4a0.6,0.6,0,0,0-.193-0.2,6.533,6.533,0,0,0,.048-1.63h0.1a1.422,1.422,0,0,1,.435,0V17.926a0.35,0.35,0,0,1,0-.247h0.242v-0.1a0.328,0.328,0,0,1-.242-0.4,0.854,0.854,0,0,1,.193-0.148,0.214,0.214,0,0,1,.338.148,0.381,0.381,0,0,1-.1.4,0.334,0.334,0,0,0,.338.1l0.048-.247a0.462,0.462,0,0,0,.242-0.148l0.58-.049a1.2,1.2,0,0,0,.676.2,1.357,1.357,0,0,0,.048-0.938,9.6,9.6,0,0,0,.193-3.21A3.659,3.659,0,0,1,17.391,12v3.9A9.651,9.651,0,0,1,17.633,17.679Zm-2.85-.2a0.255,0.255,0,0,1,.048.148H14.783V17.482Zm11.111,1.185v0.346h0.1V18.667h-0.1Zm0.048,0.444c-0.08.26,0.009,0.56-.048,0.79h0.193a0.793,0.793,0,0,0,.048-0.247c-0.157-.063-0.127-0.043-0.145-0.247a1.237,1.237,0,0,1,.145-0.2,2.651,2.651,0,0,1,.966,0v-0.1H25.942Zm-11.884.741a0.173,0.173,0,0,0,.1.049A0.173,0.173,0,0,0,14.058,19.852Zm20.773,0v0.1h0.048A0.17,0.17,0,0,0,34.831,19.852Zm0,0.148v0.148c0.127,0.038.115,0.059,0.242,0.1V20.2A1.426,1.426,0,0,0,34.831,20Zm0.048,0.79v0.1a0.531,0.531,0,0,0,.387.148,0.267,0.267,0,0,1,.145-0.2V20.79H34.879Zm0.966,0a0.573,0.573,0,0,0,.676.346c0.313-.126.872,0.2,1.256-0.049C37.141,21.041,36.622,20.8,35.845,20.79Zm0.242,0.445c0,0.143.046,0.069,0,.148a1.236,1.236,0,0,0-.242.247,0.586,0.586,0,0,1,.1.247,1.016,1.016,0,0,0,.338.049,1.332,1.332,0,0,1,.773-0.642V21.235A2.606,2.606,0,0,1,36.087,21.235Zm-1.256.3c0,0.143-.047.069,0,0.148a0.419,0.419,0,0,0,.483.2v-0.1a0.586,0.586,0,0,0,.1-0.247h-0.58Zm-33.14.346a2.019,2.019,0,0,1-.435.346v0.049H1.3a0.334,0.334,0,0,0,.338.1,2.289,2.289,0,0,1,.918-0.049A1.4,1.4,0,0,1,3,21.926V21.877h-1.3Zm3.285,0H4.348a3.456,3.456,0,0,0-.338,1.136H4.058v0.049a1.313,1.313,0,0,0,.483.1,1.3,1.3,0,0,0,.58-0.79A1.174,1.174,0,0,1,4.976,21.877ZM6.57,22.025a1.206,1.206,0,0,0-.531.938H6.087a3.189,3.189,0,0,0,.773-0.691A0.582,0.582,0,0,0,6.57,22.025Zm-3.816.444L2.8,23.309l0.145,0.049a0.5,0.5,0,0,0,.29.1,0.889,0.889,0,0,1,.145-0.2V22.617h-0.1A1.048,1.048,0,0,0,2.754,22.469Zm0.87,0.247a0.324,0.324,0,0,0,.048.2A0.325,0.325,0,0,0,3.623,22.716Zm2.077,0a1.1,1.1,0,0,1-.483.1,4.9,4.9,0,0,1-.435.494V24.1H4.831v0.049a1.29,1.29,0,0,0,.386.049h0.1A2.386,2.386,0,0,0,5.7,22.716Zm32.319,1.926a0.174,0.174,0,0,0,.1.049A0.172,0.172,0,0,0,38.019,24.642ZM7.1,26.025v0.1H7.15v-0.1H7.1Zm0.435,0.049-0.048.2h0.1a0.636,0.636,0,0,1,.048-0.2h-0.1Z" transform="translate(0 -0.031)"/>
</svg>
