<svg xmlns="http://www.w3.org/2000/svg" width="80" height="40" viewBox="0 0 80 40">
  <defs>
    <style>
      .cls-1 {
        fill: #fff;
        fill-rule: evenodd;
      }
    </style>
  </defs>
  <path id="Color_Fill_1" data-name="Color Fill 1" class="cls-1" d="M52.154,14.4V12.837c0.226-.083.148-0.1,0.373-0.184,0.128,0.317.207,0.353,0.652,0.367V13.3h0.186a2.174,2.174,0,0,0,.652.184v0.643a1.08,1.08,0,0,0-.559.735H53.83c0.121-.227-0.04-0.062.186-0.184v0.184h0.093v0.092c-0.645-.012-0.922.089-0.931,0.735a1.73,1.73,0,0,0,.745-0.092v0.276a0.921,0.921,0,0,1,.652.459,1.6,1.6,0,0,0-1.118.459v0.184a6.016,6.016,0,0,0,1.676.184v0.092a1.333,1.333,0,0,0-1.118.184h1.49v0.643a3.2,3.2,0,0,1-1.676.184,0.467,0.467,0,0,0-.466-0.184l0.093,1.1H53.83a0.76,0.76,0,0,1,.093-0.459c0.077,0.3-.046.14,0.186,0.275a0.571,0.571,0,0,1,.745-0.092,0.44,0.44,0,0,1,.093-0.276,0.441,0.441,0,0,0,.093.276,2.1,2.1,0,0,1,.652.092v0.551h0.652a1.3,1.3,0,0,0-.093-0.459h0.373a2.287,2.287,0,0,0,1.024.092V21.1a1.658,1.658,0,0,1,.373.184,0.645,0.645,0,0,0-.279.459h0.279c0.2-.24.114-0.059,0.559,0V21.653h0.093V21.561H58.58c-0.137-.233-0.2-0.184-0.559-0.184V21.286c0.381-.162.372-1.167,0.373-1.653h0.652v0.459h0.093v0.092a16.2,16.2,0,0,1,1.676.092,4.244,4.244,0,0,0,.466.367c0.594,0.179,1.5-.194,1.956.092A5.544,5.544,0,0,0,61,21.01a6.291,6.291,0,0,1,.093,1.194h0.373c0.088,0.312.036,0.286,0.373,0.367a0.4,0.4,0,0,1,.373,0V22.3H62.026A0.393,0.393,0,0,1,61.56,22.2a0.453,0.453,0,0,0,.279-0.092,1.648,1.648,0,0,1,0-1.1h0.373a6.984,6.984,0,0,0,1.863.092c0,0.29-.158.123,0.093,0.276,0.123,0.009.247,0.2,0.466,0.276h2.142v0.092H66.682v0.092c-0.258-.075-0.421-0.031-0.652-0.092a0.441,0.441,0,0,1-.093.275c-0.235-.4-1.125-0.132-1.4,0V22.2a0.454,0.454,0,0,1,.279.092,0.366,0.366,0,0,0-.186.367h0.745a0.76,0.76,0,0,1,.093-0.459c0.013,0.346-.044.323,0.186,0.459V22.48c-0.066-.142-0.012-0.012,0-0.276l0.466-.092a1.282,1.282,0,0,0-.093.367c0.246,0.011.153,0.1,0.559,0.184,0.078-.238.08-0.257,0.186-0.551h0.093v0.459h0.838V22.3c0.3,0.076.142-.045,0.279,0.184H67.893v0.092h0.279V22.112h0.186c-0.037.269-.152,0.115,0.093,0.276A1.3,1.3,0,0,0,69.29,22.2a0.789,0.789,0,0,1-.466-0.092,1.15,1.15,0,0,0,.279-0.551v0.551c0.749,0.014.58,0.172,1.211,0.184V22.02h0.559v0.092c-0.23.119-.063-0.039-0.186,0.184h0.186v0.092h0.093V22.02a0.789,0.789,0,0,1,.466.092c-0.333.038-.234-0.043-0.373,0.184h0.093a0.816,0.816,0,0,0,.466.092V22.2a0.246,0.246,0,0,0-.093-0.184h0.559c-0.037.208-.085,0.1,0,0.276a0.479,0.479,0,0,0,.279.092,0.588,0.588,0,0,1,.093-0.367,0.587,0.587,0,0,0,.093.367,2.358,2.358,0,0,1,.838-0.276c0.045,0.007-.058.282,0.186,0.184a1.041,1.041,0,0,1,.373-0.367V22.02a0.464,0.464,0,0,0-.093.276,5.637,5.637,0,0,1,1.3-.092V21.837a3.381,3.381,0,0,1,1.4.092H76V22.2h0.093V22.112a4.264,4.264,0,0,0,1.4-.092V22.2a3.815,3.815,0,0,0,.466.092V21.745H78.6v0.092a0.505,0.505,0,0,0-.279.367h0.466a1.022,1.022,0,0,1,.559-0.092,0.647,0.647,0,0,1,.093-0.551,1.3,1.3,0,0,0,.093.459c0.211-.037.1-0.084,0.279,0A1.067,1.067,0,0,1,80,22.48c-1.552.2-2.762,4.583-2.98,6.337-4.2-.423-9.218-0.092-13.6-0.092H58.114a16.413,16.413,0,0,0-2.887.092H41.816l-28.126.092a7.949,7.949,0,0,0-1.024-1.01l-2.515.092a0.624,0.624,0,0,1-.279.551c-0.151-.232,0-0.04-0.279,0a1.021,1.021,0,0,0,0-.459,0.715,0.715,0,0,1-.279-0.276c0.254-.146.234-0.082,0.279-0.459H9.5c-0.374.236-.969,0.2-1.3,0.459,0.46,0.086.4,0.306,0.373,0.827a1.677,1.677,0,0,0-.373.276,15.311,15.311,0,0,1-2.7-.092A7.775,7.775,0,0,1,5.4,26.7a2.414,2.414,0,0,1,.466-0.184V26.429c-1.7-.094-2.105-1.061-2.98-1.929a2.014,2.014,0,0,0,.186-1.286,1.6,1.6,0,0,1,.559.092,1.174,1.174,0,0,1,.093-0.643v0.918c-0.273-.078-0.388-0.182-0.559.092H3.912c0.036-.24-0.069-0.12.186-0.184a0.313,0.313,0,0,0,.093.184V23.4a2.507,2.507,0,0,1,.559.184,0.44,0.44,0,0,1,.093-0.276c0.077,0.3-.046.14,0.186,0.276a0.211,0.211,0,0,1,.279,0,0.715,0.715,0,0,1,.279-0.276,0.3,0.3,0,0,0,0,.276,0.724,0.724,0,0,1,.559,0V23.4a0.789,0.789,0,0,1-.466-0.092,2.8,2.8,0,0,0,1.583-.367,0.366,0.366,0,0,0,.373.276,0.76,0.76,0,0,1,.093-0.459c0,0.526.1,0.661,0.559,0.735V23.4a0.454,0.454,0,0,1-.279-0.092,1.63,1.63,0,0,1,.838.276,1.657,1.657,0,0,1,1.3,0V23.214a0.975,0.975,0,0,1,.652.184c-0.255.148-.091,0-0.093,0.367h0.373a0.586,0.586,0,0,1,.093-0.367v0.367a0.927,0.927,0,0,0,.745-0.276,0.321,0.321,0,0,1-.186-0.092H12.2c0.03,0.2-.1.1,0.093,0.184,0.125-.244.166-0.285,0.373-0.184,0.434,0.221-.011.287,0.559,0.367,0.03-.2-0.1-0.1.093-0.184a0.314,0.314,0,0,0,.093.184V23.4H13.69v0.367h0.186A0.587,0.587,0,0,1,13.97,23.4v0.367h0.652c-0.024-.247-0.176-0.244.093-0.367,0.039,0.329-.044.231,0.186,0.367V23.674a0.465,0.465,0,0,1-.093-0.276H15.18V23.49a0.464,0.464,0,0,0-.093.276,0.455,0.455,0,0,0,.279-0.092,0.465,0.465,0,0,1-.093-0.276h1.211c-0.034.271-.187,0.19,0.093,0.367a1.865,1.865,0,0,1,.093-0.735,8.9,8.9,0,0,0-2.235-.184V22.663h2.235c0.39-.164.458-0.433,0.838-0.551a2.3,2.3,0,0,1,1.024.092,1.152,1.152,0,0,0,.745-0.184L19.371,22.3a2.466,2.466,0,0,1,.093,1.1H19v0.367a2.533,2.533,0,0,0,1.118-.092c-0.342-.064-0.255,0-0.372-0.276a1.476,1.476,0,0,1,.466-0.092A3.073,3.073,0,0,1,20.3,22.02a6.5,6.5,0,0,0-1.77-.184c-0.283-.2-0.318.075-0.466-0.184a4.27,4.27,0,0,0,2.421-.367,3.436,3.436,0,0,0,1.676-.184,0.785,0.785,0,0,0,.093-0.459H22.91a18.565,18.565,0,0,0,.279,2.02H22.724V22.3H22.631v0.092H22.538a0.724,0.724,0,0,1,0,.367h0.745v-2.2H22.538V20a2.4,2.4,0,0,1,1.49.092,0.8,0.8,0,0,1,.186-0.826v0.184a1.2,1.2,0,0,0-.093.643,4.842,4.842,0,0,0,.652-0.184c0.162,0.141-.043.132,0.279,0.184,0.286-.6.567-0.074,0.559-1.194-0.08-.173-0.044-0.068,0-0.276a17.13,17.13,0,0,0,2.887-.459c0.84-.195,1.506-0.073,2.328-0.276l5.588-1.1c0-.276-0.03-0.267.466-0.275,0.483,0.309,3.17-.565,3.725-0.735,1.79-.546,3.477-0.713,5.215-1.286l5.4-1.745a3.05,3.05,0,0,1,0-1.745l0.093,1.653c0.294,0,.125-0.156.279,0.092-0.293.119-.114,1.135-0.093,1.929l0.279,0.184V14.49a0.321,0.321,0,0,1-.186-0.092h0.559Zm-0.373-2.3a1.194,1.194,0,0,1,.373.092v0.184a1.969,1.969,0,0,1-.373.367V12.653A0.99,0.99,0,0,0,51.781,12.1Zm-0.186.643h0.186v0.092A0.321,0.321,0,0,1,51.595,12.745Zm-9.313,5.51h0.373v0.092c-0.583.211-.4,1.529-0.373,2.3h0.093a0.442,0.442,0,0,1,.466-0.184,0.966,0.966,0,0,1,.186.459,0.366,0.366,0,0,0-.186.367h0.466a0.566,0.566,0,0,1,.186-0.184V21.01a1.2,1.2,0,0,1-.373-0.092V20.643a8.247,8.247,0,0,1,1.49,0V20.367c0.57,0,.7-0.022.745-0.459a3.966,3.966,0,0,0,.093-2.2,0.761,0.761,0,0,1,.559-0.276,3.751,3.751,0,0,1,1.4-.092v1.1a5.88,5.88,0,0,1,.186,1.653,12.493,12.493,0,0,1,2.608.367V20.184H49.732V19.541h0.093v0.092c0.072,0.177.093-.184,0.093-0.184l0.466-4.684a4.507,4.507,0,0,0,.931-0.092,8.311,8.311,0,0,0-.093-1.745A23.405,23.405,0,0,0,46.659,14.4a85.491,85.491,0,0,1-9.127,2.3v0.092a18.485,18.485,0,0,1,4,1.1,3.141,3.141,0,0,0,.838,0A1.283,1.283,0,0,0,42.282,18.255Zm9.965-3.306v0.092H52.34c0.179,0.071-.186.092-0.186,0.092a1.021,1.021,0,0,0-.559-0.092v0.092h0.186a2.985,2.985,0,0,0,.652.276V15.225c-0.066-.142-0.012-0.013,0-0.276H52.247Zm-1.77,2.571h0.466v0.551h0.652l-0.093-2.3c-0.405-.2-0.618-0.573-1.024-0.735v0.735c-0.4.64-.2,2.889-0.373,3.765H50.2V19.449A11.2,11.2,0,0,0,50.477,17.52Zm1.863-1.837a3.623,3.623,0,0,1-.652-0.184v0.092h0.093a1.231,1.231,0,0,0,.559.367V15.684Zm0.279,0.184-0.093.367H52.9V16.051A0.781,0.781,0,0,0,52.619,15.867Zm-1.024.092a11.554,11.554,0,0,0,.279,2.3,18.732,18.732,0,0,0,.279-1.929A2.087,2.087,0,0,0,51.595,15.959Zm1.583,0.092v0.184a0.79,0.79,0,0,0,.466-0.092Zm0.279,0.276V16.51h0.093A0.313,0.313,0,0,0,53.458,16.327Zm0.279,0a0.337,0.337,0,0,0,.186.092A0.338,0.338,0,0,0,53.737,16.327Zm-1.211.276v0.184h0.093V16.6H52.526Zm0.466,0.918a2.757,2.757,0,0,0-.093-0.643H52.526a0.337,0.337,0,0,1-.186.092v0.459H52.247V17.52h0.745ZM34.831,17.8a6.728,6.728,0,0,1,.279,1.653,0.454,0.454,0,0,1,.279.092,1.153,1.153,0,0,0-.093,1.1h0.745c0.106-.38.163-0.373,0.652-0.367a2.832,2.832,0,0,1,1.583-.092,0.36,0.36,0,0,0,.279.367c0.011,0.01,1.286,0,1.863,0v0.092h0.093a2.166,2.166,0,0,0,.093,1.01c0.143-.22.024-0.032,0.466,0a1.421,1.421,0,0,0,.093-0.459,0.355,0.355,0,0,1-.186-0.276,2.12,2.12,0,0,0,.931-0.643,28.915,28.915,0,0,1-3.818-2.3,6.178,6.178,0,0,0-1.3-.918,5.4,5.4,0,0,1-.279,1.378,8.562,8.562,0,0,0-.186-1.469l-5.681,1.1c-0.743.186-1.839-.015-2.421,0.367a14.714,14.714,0,0,0,2.98-.184,13.872,13.872,0,0,1,1.77.092A13.471,13.471,0,0,1,34.831,17.8Zm1.676-.826v0.184H36.6A0.313,0.313,0,0,0,36.508,16.969Zm0.745,0a9.784,9.784,0,0,0,2.235,1.378c0.811,0.532,1.574,1.24,2.421,1.745V19.541A2.2,2.2,0,0,0,42,18.531H41.909V18.439C40.288,18.26,38.8,17.357,37.253,16.969Zm0.931,0.092a0.338,0.338,0,0,0,.186.092A0.337,0.337,0,0,0,38.184,17.061Zm0.279,0.092a0.338,0.338,0,0,0,.186.092A0.337,0.337,0,0,0,38.463,17.153Zm0.279,0.092a11.867,11.867,0,0,0,3.353,1.1V18.163H42V18.071C40.827,17.949,39.9,17.411,38.743,17.245Zm14.529,0,0.093,0.367H53.83V17.52C53.548,17.43,53.552,17.34,53.271,17.245Zm-6.147.459L47.218,20H47.4A9.759,9.759,0,0,0,47.125,17.7Zm5.029,0.735h0.279a1.88,1.88,0,0,1-.093.735h0.838V19.082a2.2,2.2,0,0,1-.093-1.01H52.247v0.092H52.154v0.276Zm2.7-.092a0.33,0.33,0,0,1,.093.184H54.855V18.347ZM26.17,19.357h0.466v0.735H26.263a6.136,6.136,0,0,0-.186,1.01,2.365,2.365,0,0,0,.745.092V21.1h0.093V20.827a12.827,12.827,0,0,1,3.632.092,0.933,0.933,0,0,0,.093.735V21.469a0.671,0.671,0,0,1,.652-0.184v0.092H30.827v0.276a1.22,1.22,0,0,0,.745-0.184c0.225,0.212.078,0.185,0.559,0.184V21.286a0.483,0.483,0,0,1-.466-0.092,0.33,0.33,0,0,0,.093-0.184c0.333-.038.234,0.043,0.373-0.184H31.2V20.735a1.622,1.622,0,0,0,1.49-.367H32.5c-0.13-.058-0.1-0.121-0.093-0.551H32.5V19.725a0.321,0.321,0,0,1,.186.092c0.512,0.289-.08.323,0.186,0.735,0.034,0.052.316,0.123,0.373,0.184a0.822,0.822,0,0,0-.279.276h0.372a3.043,3.043,0,0,1,0,.643h0.186V21.194c0.367-.556-0.058-2.056-0.093-2.755-2.283.031-5.631,0.815-7.73,0.276v0.735h0.186c0.08-.106.185-0.267,0.279-0.367v0.275Zm-1.118,0a0.33,0.33,0,0,1,.093.184H25.052V19.357Zm20.489,0.276-0.093.643h0.186A1.174,1.174,0,0,0,45.541,19.633Zm-20.768.092a0.33,0.33,0,0,1,.093.184H24.773V19.725Zm1.676,0.459a1.079,1.079,0,0,1,0,.918V20.184Zm-24.4.092a5.887,5.887,0,0,1,1.024,2.112H2.98L2.7,21.929l-2.142,1.01C0.428,22.421.138,22.106,0,21.561,0.632,21.431,1.975,20.97,2.049,20.276Zm45.448,0a0.337,0.337,0,0,0,.186.092A0.338,0.338,0,0,0,47.5,20.276Zm0.466,0.092a0.5,0.5,0,0,0,.559,0H47.963Zm1.77,1.286a1.149,1.149,0,0,0-.093-0.367h0.186v0.367H50.2v-1.01H50.012a2.769,2.769,0,0,0-.931-0.184v0.092a1.386,1.386,0,0,1,0,1.1h0.652Zm29.9-.735a0.755,0.755,0,0,1,0,.735V20.918ZM32.5,21.286c-0.3.076-.142-0.045-0.279,0.184a0.329,0.329,0,0,1,.093.184H32.5V21.286Zm0.466,0v0.367h0.093V21.469a0.565,0.565,0,0,0,.186-0.184H32.969Zm44.237,0a2.1,2.1,0,0,1,.186.643H77.206V21.286Zm-34.179.367H43.4V21.561a1.414,1.414,0,0,0-.372-0.184v0.276ZM74.6,21.378a0.743,0.743,0,0,1,.093.551,0.479,0.479,0,0,1-.279.092V21.929C74.649,21.793,74.6,21.734,74.6,21.378Zm-35.2.184v0.184h0.093A0.314,0.314,0,0,0,39.395,21.561Zm5.122,0c0.16,0.081.119,0.082,0.279,0H44.517Zm0.373,0v0.184h0.093V21.561H44.889Zm33.9,0.184h0.186v0.092A0.321,0.321,0,0,1,78.789,21.745Zm-2.142.092h0.186v0.092A0.321,0.321,0,0,1,76.647,21.837Zm-3.912.092h0.186V22.02H72.736V21.929Zm0.279,0a1.221,1.221,0,0,1,.652.092A1.221,1.221,0,0,1,73.015,21.929Zm2.235,0V22.2a0.675,0.675,0,0,0,.652-0.276H75.25Zm3.539,0h0.186V22.02A0.321,0.321,0,0,1,78.789,21.929Zm-2.142.092h0.186v0.092A0.321,0.321,0,0,1,76.647,22.02Zm-9.5.092h0.186V22.2H67.148V22.112ZM67.614,22.2c-0.077.3,0.046,0.14-.186,0.276V22.388c0.08-.173.044-0.068,0-0.276h0.652V22.2H67.614Zm-64.54.184a0.329,0.329,0,0,1,.093.184H3.073V22.388Zm63.236,0H66.5V22.48A0.321,0.321,0,0,1,66.31,22.388Zm0.745,0h0.186V22.48A0.321,0.321,0,0,1,67.055,22.388Zm1.77,0v0.184H69.1V22.48Zm-65.658.184a0.33,0.33,0,0,1,.093.184H3.166V22.571ZM3.26,22.755a0.33,0.33,0,0,1,.093.184H3.26V22.755Zm6.892,0a0.265,0.265,0,0,1,0,.367V22.755Zm2.422,0a0.365,0.365,0,0,1,0,.459V22.755Zm-7.357.092c0.071,0.138.024,0.334,0.093,0.551H5.029V23.306A2.6,2.6,0,0,0,5.215,22.847Zm-1.863.092a0.329,0.329,0,0,1,.093.184H3.353V22.939Zm-0.186.367a0.338,0.338,0,0,0,.186.092A0.337,0.337,0,0,0,3.166,23.306Zm5.4,0a0.789,0.789,0,0,1,.466.092A0.789,0.789,0,0,1,8.568,23.306ZM6.24,23.4a0.338,0.338,0,0,0,.186.092A0.337,0.337,0,0,0,6.24,23.4Zm6.892,0h0.186V23.49A0.321,0.321,0,0,1,13.132,23.4Zm6.333,0h0.186V23.49H19.465V23.4Zm-3.26.092a1.72,1.72,0,0,0-.838.092,1.521,1.521,0,0,1,.838.184V23.49Zm3.26,0.092h0.186v0.092A0.321,0.321,0,0,1,19.465,23.582ZM5.96,26.52a1.148,1.148,0,0,0,1.024.184Zm4.47,0.827H9.965v0.184h0.093a0.36,0.36,0,0,0,.279.184V27.622A0.464,0.464,0,0,0,10.431,27.347Zm0.373,0v0.275a2.483,2.483,0,0,0,1.4,0Zm-2.887.459c-0.131.081-.522,0.1-0.652,0.184H7.916A0.337,0.337,0,0,1,8.1,27.9V27.806H7.916Z" transform="translate(0 0.031)"/>
</svg>
