<svg xmlns="http://www.w3.org/2000/svg" width="39.969" height="40" viewBox="0 0 39.969 40">
  <defs>
    <style>
      .cls-1 {
        fill: #fff;
        fill-rule: evenodd;
      }
    </style>
  </defs>
  <path id="Color_Fill_1" data-name="Color Fill 1" class="cls-1" d="M13.267,10a0.4,0.4,0,0,1,0,.391V10Zm0.8,5.617a3.9,3.9,0,0,1,1.242.049,0.306,0.306,0,0,1,.348-0.2,1.332,1.332,0,0,0,.944.147V15.47l0.4-.049V15.177a3.644,3.644,0,0,0,.4-0.147V14.884a0.532,0.532,0,0,0,.3-0.049c-0.194,0-.223.024-0.3-0.1a6.715,6.715,0,0,1,1.739-.049,1.224,1.224,0,0,0,.547.049V14.591h0.2v0.146h0.447c0.1-.24.173-0.411,0.3-0.733a10.617,10.617,0,0,1,1.242-.1v0.1h0.05c0.049,0.049-.049.048-0.05,0.049a0.935,0.935,0,0,1-.447.049,0.612,0.612,0,0,1-.05.2,0.858,0.858,0,0,1,.3.049c0.256,0.585.344,1.376,1.143,1.417,0.046,0,.121-0.033.3-0.049v0.146a1.463,1.463,0,0,1,.4.1,0.387,0.387,0,0,1-.1.146c0.632,0.048.616,0.7,0.994,0.879h0.795c0.038,0.033.111,0.064,0.149,0.1s0.065,0.109.1,0.146a2.946,2.946,0,0,1,1.59.049c-0.005.306,0.291,0.225,0.7,0.2a2.732,2.732,0,0,0,.994.049l2.236,0.049a12.826,12.826,0,0,0,2.385.1h0.845c0.436,0.092,1.092-.056,1.59.049a12.051,12.051,0,0,1,1.441.049,4.158,4.158,0,0,0,1.739-.049v0.147h0.248V17.717h0.7a2.37,2.37,0,0,1,.05.684,9.964,9.964,0,0,1-1.739-.146,2.989,2.989,0,0,1-1.193.1,1.353,1.353,0,0,0,.8-0.146,6.555,6.555,0,0,0-.845.049V18.3h0.05c0.1,0.038-.1.049-0.1,0.049-0.481-.306-1.2.068-1.739-0.049a13.753,13.753,0,0,0-2.534-.049H27.627V18.3h-0.05l-0.05.342H26.534a0.643,0.643,0,0,0-.745-0.244,0.18,0.18,0,0,1-.1.049V18.5h0.05a2.951,2.951,0,0,1,.7.928,1.628,1.628,0,0,0-.3.1h0.447V19.28h0.05V19.231a0.171,0.171,0,0,1,.1.049,0.416,0.416,0,0,1,.05.244l1.491-.1V19.28a9,9,0,0,1,2.335.244c-0.207.016-.183-0.009-0.248,0.146l-0.149.44a0.172,0.172,0,0,1,.1.049,0.825,0.825,0,0,0,.2-0.147v0.147a3.243,3.243,0,0,1,1.143.1,0.838,0.838,0,0,0,.8.2V20.306H32.4a0.531,0.531,0,0,1-.1.146V20.306h0.05a0.539,0.539,0,0,1,.3-0.146c0.51,0.308,1.734.095,2.186,0.44a0.247,0.247,0,0,1,.05.146,0.565,0.565,0,0,0-.1.146h-0.1c0.011-.163.107-0.117-0.05-0.2a5.607,5.607,0,0,0-1.342-.147,0.383,0.383,0,0,1,0,.2c1.8,0.047,3.265.723,4.82,0.928v0.2h0.05c0.13-.1.1-0.062,0.3-0.049-0.061.43-.347,0.671-0.4,1.123a0.948,0.948,0,0,1,.447.684,1.907,1.907,0,0,0-.547.2,1.9,1.9,0,0,1-.149,2.051,5.244,5.244,0,0,1-1.59.977c-0.787.471-1.626,0.883-2.435,1.368a6.812,6.812,0,0,1-1.044.635,7.6,7.6,0,0,1-2.186.1H9.54a20.8,20.8,0,0,1-2.981-1.123l-1.888-.635a2.216,2.216,0,0,1-.646-0.586,1.518,1.518,0,0,0-.348-0.635,2.045,2.045,0,0,1-.646.049,0.655,0.655,0,0,1-.149-0.489,0.7,0.7,0,0,0,.1-0.391H2.832v-0.2H3.081a1.173,1.173,0,0,0,.1-0.342c-0.485-.181-1.829-0.794-1.938-1.27a14.069,14.069,0,0,0,.149-2.1h-0.2l-0.05-.1H1.292a0.18,0.18,0,0,0,.1.049V20.5c-0.043-.092-0.024-0.036,0-0.146H1.342a1.937,1.937,0,0,0-.2.244,4.112,4.112,0,0,1-.05.537V20.55a0.644,0.644,0,0,0,.2-0.293h-0.2v-0.2A2.57,2.57,0,0,1,0,18.4a0.821,0.821,0,0,1,.248-0.244v0.049c0.123,0.063.034-.021,0.1,0.1a0.243,0.243,0,0,0-.1.244,3.714,3.714,0,0,0,.845,1.123V19.427H1.242V18.4H1.491a0.353,0.353,0,0,1,.149-0.244,1.954,1.954,0,0,1,.845-0.293,1.044,1.044,0,0,0,.1.342l0.149-.049V18.01a0.2,0.2,0,0,1-.1-0.2h0.1c0.086-.05.175-0.037,0.3-0.1a1,1,0,0,1,.1.244,0.2,0.2,0,0,0-.1.2,7.991,7.991,0,0,1,.944,0,3.9,3.9,0,0,0-.149-0.586,0.334,0.334,0,0,1-.3-0.146,0.3,0.3,0,0,0,.1-0.1c0.378,0.11.978-.093,1.093,0.2-0.178.02-.125-0.023-0.2,0.1a1.059,1.059,0,0,0,1.193.44c0.233-.121.939,0.083,1.342,0,0,0,1.374.041,1.391,0.049a0.879,0.879,0,0,0,.3.2c0.165,0.021.1-.078,0.149-0.1a1.335,1.335,0,0,1,.745.1c0.014-.126-0.023-0.087.2-0.1a2.453,2.453,0,0,0,1.59,0,11.037,11.037,0,0,1-2.286-.391A1.769,1.769,0,0,1,8.7,17.766a0.757,0.757,0,0,1-.2-0.342,0.876,0.876,0,0,1-.05.44,0.311,0.311,0,0,0-.05-0.2,0.312,0.312,0,0,1-.05.2l0.05-.733a0.243,0.243,0,0,1-.149-0.049,0.175,0.175,0,0,1-.05-0.1H8.348A1.51,1.51,0,0,0,8.3,16.2a2.411,2.411,0,0,0,.3-0.293,2.141,2.141,0,0,1,.3.049c0.037,0.03.055,0.061,0.149,0.146-0.123.063-.034-0.021-0.1,0.1H9.193a0.293,0.293,0,0,1,.348-0.244,0.282,0.282,0,0,0,.2,0l-0.05.146a13.766,13.766,0,0,0,1.59,0V15.959a1.036,1.036,0,0,1,.248-0.1,3.979,3.979,0,0,1,.745-0.049c0.067-.018.3-0.176,0.348-0.2,0.154-.061.113,0.083,0.149,0.1l0.5-.049V15.617a2.105,2.105,0,0,1-.5-1.465h0.149a1.306,1.306,0,0,0,.05.586,0.175,0.175,0,0,0,.05-0.1,0.246,0.246,0,0,0,.05-0.146c0.161,0.04.076-.024,0.149,0.1a0.964,0.964,0,0,0,.2.879h0.05V14.787a17.291,17.291,0,0,0-.1-3.321,2.091,2.091,0,0,1,0-.977,11.741,11.741,0,0,0,.2,2.589,6.542,6.542,0,0,0,.2,1.661c0.05-.852.015-2.086,0.149-2.979a4.755,4.755,0,0,1,.05-1.368C13.957,12.206,13.946,14.11,14.062,15.617Zm6.807-1.465a0.589,0.589,0,0,1-.248.1V14.3h0.348V14.2Zm-2.733.733a3.211,3.211,0,0,0,1.54,0h-1.54Zm1.739,0a0.339,0.339,0,0,0,.348,0H19.876Zm-2.683.44v0.1a0.324,0.324,0,0,0,.2-0.049Zm-8.447.684v0.1H8.8V16.057h0.05A0.18,0.18,0,0,0,8.745,16.008Zm0.646,0-0.05.146h0.05V16.105C9.453,16.029,9.423,16.081,9.391,16.008Zm-0.894.1-0.05.1C8.534,16.135,8.5,16.105,8.5,16.105Zm-0.1.146v0.1h0.05A0.167,0.167,0,0,0,8.4,16.252ZM8.149,16.4L8.3,16.447V16.5H8.149V16.4Zm0.3,0.83a0.18,0.18,0,0,0,.1.049A0.181,0.181,0,0,0,8.447,17.229Zm0.7,0.684h0.1v0.049h-0.1V17.913Zm28.969,0.049v0.147h0.2V17.961h-0.2Zm0.3,0c0.041,0.159-.024.075,0.1,0.147V17.961h-0.1Zm0.2,0a0.609,0.609,0,0,0,.05.2h0.05v-0.2h-0.1ZM13.168,18.987c-0.016.068,0.071,0.071,0.1,0.1C13.3,19.033,13.181,19,13.168,18.987Zm1.043,0a0.234,0.234,0,0,1-.05.147,4.541,4.541,0,0,0-.745.146c0.562,0,.936,0,1.491,0v-0.2C14.591,19.076,14.542,19,14.211,18.987Zm-13.068.83a0.2,0.2,0,0,0,.248,0H1.143ZM32.8,20.5a0.218,0.218,0,0,0,.3.049Zm5.068,2.735-0.05.2h0.05v-0.1C37.925,23.258,37.9,23.309,37.863,23.237Zm-35.926.44-0.05.146H2.037A0.186,0.186,0,0,0,1.938,23.676Zm0.4,0a0.312,0.312,0,0,0-.1.244,0.709,0.709,0,0,0,.2.049,0.756,0.756,0,0,0,.05-0.244Zm0.348,0.1a0.441,0.441,0,0,0,0,.293l0.2,0.049V24.067a0.394,0.394,0,0,1-.149-0.1A0.311,0.311,0,0,0,2.683,23.774Zm0.2,1.221v0.1h0.1v-0.1h-0.1ZM3.23,25.581a0.312,0.312,0,0,0-.1.244h0.1c0.048,0.012.019,0.038,0.05,0a0.325,0.325,0,0,0,.05-0.2Zm2.733,0.782c0.1,0.117.047,0.01,0.149,0.049C6.142,26.323,6.011,26.372,5.963,26.363Zm0.646,0.049a1.342,1.342,0,0,0-.248.342,6.982,6.982,0,0,1,1.789.586v-0.2a0.973,0.973,0,0,1,.05-0.733H6.609Zm5.068,0a2.737,2.737,0,0,1-.3,1.563h0.745v-0.1a1.75,1.75,0,0,1-.3-1.465H11.677Zm3.677,0a2.272,2.272,0,0,1-.348,1.563h0.8v-0.1a1.61,1.61,0,0,1-.3-1.465H15.354Zm3.627,0a2.013,2.013,0,0,1-.3,1.563h0.8V27.925a1.7,1.7,0,0,1-.3-1.514h-0.2Zm3.677,0a2.4,2.4,0,0,1-.3,1.563h0.8V27.925a1.607,1.607,0,0,1-.3-1.514h-0.2Zm3.677,0a2.5,2.5,0,0,1-.3,1.563h0.8V27.925a1.592,1.592,0,0,1-.3-1.514h-0.2Zm3.677,0a2.5,2.5,0,0,1-.3,1.563H30.46v-0.1a1.65,1.65,0,0,1-.3-1.465H30.012Zm3.677,0.049,0.05,0.586h0.05a4.476,4.476,0,0,1,1.093-.586V26.411h-0.4A1.982,1.982,0,0,1,33.689,26.46Z" transform="translate(0 0.5)"/>
</svg>
