<svg xmlns="http://www.w3.org/2000/svg" width="79.906" height="40" viewBox="0 0 79.906 40">
  <defs>
    <style>
      .cls-1 {
        fill: #fff;
        fill-rule: evenodd;
      }
    </style>
  </defs>
  <path id="Color_Fill_1" data-name="Color Fill 1" class="cls-1" d="M54.822,14.117c0.437,0.028.287,0.082,0.57-.095v0.283H55.3V14.4a6.809,6.809,0,0,0-.855,0v0.094c0.182,0.323-.185.679-0.095,1.133a7.567,7.567,0,0,1,.095,1.983h0.38c0.011-.366-0.062-0.28.475-0.283V17.044a0.461,0.461,0,0,1-.285-0.094,0.9,0.9,0,0,1,.76.094H55.487v0.283h0.855a1.189,1.189,0,0,1-.095.378c-0.18,0-.312.079-0.76,0.094v0.283c0.471-.015.442-0.011,0.95,0v0.283c0.36-.032.21-0.012,0.38-0.189,0,0,.862.188,1.045,0.189a4.014,4.014,0,0,1,0,.85h0.095c0.489-.285,1.935.242,2.375,0.378l1.805,0.095h0.095v0.094c-0.781-.035-1.731-0.13-2,0.378a1.29,1.29,0,0,1,.475.283c-0.34.039-.239-0.045-0.38,0.189,0.358,0.014.334-.044,0.475,0.189a3.671,3.671,0,0,1,.095.85,1.038,1.038,0,0,0,.57-0.094,0.34,0.34,0,0,0,.095-0.189H61.093V20.256a1.01,1.01,0,0,1,.475-0.189,1.8,1.8,0,0,0,1.045.189,10.884,10.884,0,0,0,2.85.378v0.189c-0.938-.042-1.919-0.167-2,0.472,0.82-.033,2.945-0.014,3.23.283,0.3-.408-0.042-0.462.76-0.472,0,0.264-.132.274,0.285,0.378a0.75,0.75,0,0,1,0-.378c0.961,0.705,1.468.206,2.375,0.094v0.283a15.213,15.213,0,0,0,4.276-.283c0.105-.043,1.379.262,1.615,0.283,0.124,0.011.583-.094,0.855-0.094-0.026-.312-0.157-0.365.38-0.378v0.378a19.7,19.7,0,0,1,2.47,0,1.836,1.836,0,0,1,.095-1.228c0.006,0.5.141,1.3,0.095,1.417-0.27.811-1.1,1.426-1.425,2.267a30.768,30.768,0,0,0-.665,3.589c-1.131.375-3.654,0.1-5.036,0.095-0.507.311-3.072,0.094-3.9,0.094H58.052a23.147,23.147,0,0,1-4.181.095H42.185a20.151,20.151,0,0,1-3.61.094H31.354l-15.2.095H11.116L9.786,28a12.63,12.63,0,0,0-2.85-.567v0.283c-0.25.072-.227,0.113-0.475,0.189,0.014-.493.054-0.572-0.38-0.756-0.251,1.047-1.676.8-2.945,0.756a7.111,7.111,0,0,1,.1-1.983,1.363,1.363,0,0,1-1.425-.756c-0.371-.475.027-0.953-0.1-1.606-0.083-.029-0.246.079-0.19-0.094,0.012-.037.263-0.223,0.285-0.283a3.878,3.878,0,0,1,.1-0.661H2.09A3.245,3.245,0,0,0,2,21.106h0.1a8.56,8.56,0,0,1,.1,1.511c0.33-.038.132-0.01,0.285-0.189,0.127-.148.1,0.189,0.1,0.189H3.42c0.043-.266.4-0.209,0.95-0.189v0.094a0.8,0.8,0,0,0-.475.095h0.19a1.39,1.39,0,0,0,.855-0.095,0.863,0.863,0,0,0,.57.189c0.046-.019.108-0.349,0.285-0.283a1.4,1.4,0,0,1,.19.283,2.093,2.093,0,0,0,1.33-.283v0.283H7.791V22.617a1.844,1.844,0,0,1-.19-0.378H8.076c-0.028.414-.228,0.443,0.38,0.472a0.958,0.958,0,0,1,.76-0.283c0.079,0.306-.047.144,0.19,0.283a0.323,0.323,0,0,1,.1-0.189,1.221,1.221,0,0,1,0-.472,0.461,0.461,0,0,1-.285-0.094,0.812,0.812,0,0,1,.76.094H9.691v0.472a3.708,3.708,0,0,1,.855.095V22.333a0.843,0.843,0,0,1-.19-0.472h0.57c-0.1.557-.1,0.2-0.19,0.756a1.514,1.514,0,0,1,1.425.094V22.428h0.76v0.283h0.285a0.315,0.315,0,0,1,0-.283h0.475v0.283a4.439,4.439,0,0,1,1.425,0l0.1-.472h0.285l0.095,0.378h0.1l0.1-.567a6.14,6.14,0,0,1-2-.283,21.936,21.936,0,0,0,4.181-.567,4.638,4.638,0,0,1,.1,1.322h-0.38v0.189h0.855a5.872,5.872,0,0,1,0-1.039h0.38l0.1-.661c-0.287.008-1.3-.093-2-0.094V20.728a18.769,18.769,0,0,0,4.18-.567v0.095h0.1a8.772,8.772,0,0,1,0,1.417h0.665c-0.01-.6,0-1.1,0-1.889h0.285v0.472h0.19V19.594a0.326,0.326,0,0,1-.19-0.094,0.633,0.633,0,0,1,.475,0H22.9v0.094H22.613v0.378h1.14V19.594h0.19a0.569,0.569,0,0,0,.475.095v0.283H24.8c-0.057-.351-0.127-0.312-0.19-0.661h0.57c-0.056.351-.126,0.312-0.19,0.661h0.76v0.567a3.089,3.089,0,0,0-.57.189c0.062,0.081.127,0.3,0.19,0.378a3.777,3.777,0,0,1,.665-0.189,1.43,1.43,0,0,1,.95-0.189v0.283c0.181-.018,1.118-0.351,1.33,0V20.822c0.067-.146.012-0.013,0-0.283h0.57v0.094a0.634,0.634,0,0,0-.1.378,0.843,0.843,0,0,1,.665.189,2.4,2.4,0,0,1,.285-1.039c0.013,0.355-.045.332,0.19,0.472V19.972a6.691,6.691,0,0,0,.19-1.039h-0.19a0.991,0.991,0,0,1-.095.567V18.839c0.636-.593-0.022-2.088.38-2.739,0.008,0.724-.012,1.274,0,2.361H30.4a7.643,7.643,0,0,1,1.9-.378,16.193,16.193,0,0,1,4.846-.944,1.328,1.328,0,0,1,.1.378l-0.19-.095v0.095c0.084,0.162.084,0.121,0,.283V17.611a0.614,0.614,0,0,0-.475-0.189,1.283,1.283,0,0,1-1.045-.094l-0.095.189a4.94,4.94,0,0,0-.19.756H35.154a0.934,0.934,0,0,0-.19-0.567,17.6,17.6,0,0,1-3.04,2.078c-0.511.317-1.409,0.429-1.52,1.133a2.557,2.557,0,0,0,1.045.472,1.61,1.61,0,0,1,1.14.094,1.893,1.893,0,0,0-.095-0.661,1.209,1.209,0,0,0,.38-0.094V20.633a0.616,0.616,0,0,1-.38-0.094c0.349-.082.283-0.061,0.38-0.378h0.095c0.015,0.356.077,0.215,0.19,0.378,0,0-.407.283,0.1,0.567,0.288-.118.982,0.159,1.52,0.094,0.427-.051,1.866-0.119,2.66-0.283,0.04,0.338-.045.238,0.19,0.378v-1.7c0.272-.423.014-2.876,0-3.683a1.008,1.008,0,0,1-.57-0.094h0.76v0.094c-0.421.653,0.1,3.543,0.095,4.061h0.57c0-.3-0.161-0.127.1-0.283v0.094c0.262,0.046.112-.053,0.19-0.189-0.463-.059-0.526-0.034-0.57-0.472a1.842,1.842,0,0,0,.19-0.378,0.876,0.876,0,0,0,.57,0,1.19,1.19,0,0,0,.095.378h0.285v1.7a0.461,0.461,0,0,0-.285.095,0.823,0.823,0,0,1,.095.756H40.19a1.058,1.058,0,0,1,0-.472,0.486,0.486,0,0,1,.285-0.094L40.38,17.8h0.19a12.056,12.056,0,0,1,1.805-.094H42.47l-0.095.189H42.47a1.1,1.1,0,0,0,.285.189v0.095a0.461,0.461,0,0,0-.285.094,0.679,0.679,0,0,1,.19.756,1.741,1.741,0,0,1,.855.094H42.66q0.048,0.85.095,1.7h0.57a1.421,1.421,0,0,0,0,.756c0.252-.112.17,0.085,0.285-0.189-0.234-.122-0.065.041-0.19-0.189h0.095c0.14-.24.2-0.189,0.57-0.189V20.067a1.483,1.483,0,0,1-.76-0.095c1.041-.009,1.418-0.277,2.375-0.283V19.311a2.284,2.284,0,0,1-1.045-.094,24.9,24.9,0,0,1,3.135.094,6.859,6.859,0,0,1,0-1.605,11.479,11.479,0,0,0,2-.095,3.058,3.058,0,0,1,.19.472,0.343,0.343,0,0,1-.19.095,0.7,0.7,0,0,1,.19.567h0.38l0.1-.283c0.3-.488.066-1.4,0.38-1.889v0.189c0.065,0.073.124,0.211,0.19,0.283a0.975,0.975,0,0,1,.19-0.661v0.095a0.48,0.48,0,0,1,.095.283,3.983,3.983,0,0,0-.57,1.417h1.14a0.486,0.486,0,0,0,.285.094,12.475,12.475,0,0,0,0-3.022,1.774,1.774,0,0,1-.285-0.661h0.095V14.494h0.095a0.707,0.707,0,0,0,0,.472h0.095V14.494a0.34,0.34,0,0,1-.095-0.189h-0.19l-0.095.472H51.687c0-.408.208-0.272-0.19-0.378a0.323,0.323,0,0,1-.095.189,0.455,0.455,0,0,0-.1-0.283,1.324,1.324,0,0,1-1.045,0h0.475a0.455,0.455,0,0,1,.1-0.283c0.232,0.385.546,0.11,0.76,0a3.344,3.344,0,0,0,.57.095c-0.016-.783-0.265-2.561.1-3.117a16.06,16.06,0,0,1,0,3.117h0.19V13.928h0.1v0.094a2.644,2.644,0,0,0,1.045.095l-0.095-.189h0.095c-0.073-.064-0.212-0.124-0.285-0.189a3.4,3.4,0,0,0,.1-1.417,1.04,1.04,0,0,0,.285-0.189,2.418,2.418,0,0,1,1.425,1.039A0.88,0.88,0,0,0,54.822,14.117Zm-2.565-.661a0.455,0.455,0,0,0,.095.283V13.456H52.257Zm0,4.817h0.57V18.083a3.736,3.736,0,0,1,0-1.7,1.881,1.881,0,0,0,.19,1.133L53.3,15.722a0.8,0.8,0,0,1-.475-0.094H53.3a2.105,2.105,0,0,1,.1-1.039,0.991,0.991,0,0,0,.095.567V14.589a1.347,1.347,0,0,0-.76-0.283c-0.357.579,0.233,1.542-.095,2.078,0.013-.38.052-0.516-0.19-0.661a1.976,1.976,0,0,1-.1.944,3.7,3.7,0,0,1,.1-1.133h-0.19v1.228C52.546,17.19,52.285,17.593,52.257,18.272Zm3.23-4.061a0.461,0.461,0,0,1,.285.095A0.462,0.462,0,0,1,55.487,14.211Zm-3.23.095v1.133h0.19V14.306h-0.19Zm-2.85.094a1.742,1.742,0,0,1,.855.094A1.741,1.741,0,0,1,49.406,14.4Zm-0.855.094a1.742,1.742,0,0,1,.855.095,3.352,3.352,0,0,1-1.615,0A1.482,1.482,0,0,0,48.551,14.494Zm2.375,0.095a2.166,2.166,0,0,1,.475.85h-0.19Zm0.38,0a0.378,0.378,0,0,1,0,.472V14.589Zm-4.37.094a1.741,1.741,0,0,1,.855.095A1.741,1.741,0,0,1,46.936,14.683Zm6.936,0-0.19.945h0.38V15.439c-0.053-.082-0.035-0.562-0.1-0.661V14.683h-0.1Zm-7.791.095a1.742,1.742,0,0,1,.855.094A1.742,1.742,0,0,1,46.081,14.778Zm5.511,0a0.275,0.275,0,0,1,0,.378V14.778Zm-6.271.094a1.483,1.483,0,0,1,.76.095A1.483,1.483,0,0,1,45.321,14.872Zm-0.855.095a1.741,1.741,0,0,1,.855.094A1.742,1.742,0,0,1,44.466,14.967Zm7.316,0a0.48,0.48,0,0,1,.095.283H51.782V14.967Zm-8.171.094a1.741,1.741,0,0,1,.855.095A1.742,1.742,0,0,1,43.61,15.061Zm-0.76.095a1.481,1.481,0,0,1,.76.094A1.483,1.483,0,0,1,42.85,15.156Zm8.646,0a0.479,0.479,0,0,1,.095.283H51.5V15.156ZM42,15.25a1.742,1.742,0,0,1,.855.094A1.741,1.741,0,0,1,42,15.25Zm8.931,0a0.378,0.378,0,0,1,0,.472V15.25Zm0.76,0a0.34,0.34,0,0,1,.095.189H51.687V15.25Zm-10.546.094a1.742,1.742,0,0,1,.855.095A1.741,1.741,0,0,1,41.14,15.344Zm-0.855.095a1.742,1.742,0,0,1,.855.094A1.741,1.741,0,0,1,40.285,15.439Zm10.831,0a0.378,0.378,0,0,1,0,.472V15.439Zm0.285,0a0.34,0.34,0,0,1,.095.189c0.083-.07.107-0.119,0.19-0.189v0.283c-0.067.146-.012,0.013,0,0.283H51.5Zm-11.876.094a1.483,1.483,0,0,1,.76.095A1.483,1.483,0,0,1,39.525,15.533Zm-0.855.095a1.742,1.742,0,0,1,.855.094A1.742,1.742,0,0,1,38.67,15.628Zm-0.855.094a1.741,1.741,0,0,1,.855.095A1.741,1.741,0,0,1,37.815,15.722Zm13.492,0a0.48,0.48,0,0,1,.1.283h-0.1V15.722Zm2.755,1.889a10.072,10.072,0,0,0-.1-1.889H53.682v0.095c0.029,0.021-.259,1.087-0.38,1.605A1.261,1.261,0,0,0,54.062,17.611ZM36.2,15.911a1.741,1.741,0,0,1,.855.095A1.742,1.742,0,0,1,36.2,15.911Zm14.632,0a0.378,0.378,0,0,1,0,.472V15.911Zm0.19,0a0.275,0.275,0,0,1,0,.378V15.911Zm-15.677.095a1.741,1.741,0,0,1,.855.094A1.742,1.742,0,0,1,35.344,16.006Zm15.867,0a1.1,1.1,0,0,1,.19.472h-0.1V16.383A0.634,0.634,0,0,1,51.211,16.006Zm0.19,0a0.479,0.479,0,0,1,.095.283H51.4V16.006Zm0.285,0a0.34,0.34,0,0,1,.095.189H51.687V16.006Zm-17.1.094a1.483,1.483,0,0,1,.76.094A1.482,1.482,0,0,1,34.584,16.1Zm-0.855.094a1.742,1.742,0,0,1,.855.095A1.741,1.741,0,0,1,33.729,16.194Zm18.052,0a0.366,0.366,0,0,1,.19.283H51.877V16.383A0.34,0.34,0,0,1,51.782,16.194Zm1.9,0a0.34,0.34,0,0,1,.095.189H53.682V16.194Zm-20.808.095a1.742,1.742,0,0,1,.855.094A1.741,1.741,0,0,1,32.874,16.289Zm-0.76.094a1.483,1.483,0,0,1,.76.095A1.483,1.483,0,0,1,32.114,16.383Zm18.812,0a0.48,0.48,0,0,1,.095.283H50.926V16.383Zm-19.667.095a1.741,1.741,0,0,1,.855.094A1.742,1.742,0,0,1,31.259,16.478Zm20.713,0a0.34,0.34,0,0,1,.095.189H51.972V16.478ZM30.4,16.572a1.741,1.741,0,0,1,.855.095A1.741,1.741,0,0,1,30.4,16.572Zm-0.57.283h0.19a0.873,0.873,0,0,1-.57.472Zm6.176,0.472a0.279,0.279,0,0,0,.38,0H36.01Zm16.437,0a0.34,0.34,0,0,1,.1.189h-0.1V17.328Zm-16.817.094,0.285,0.095v0.094H35.439V17.517A0.326,0.326,0,0,0,35.63,17.422Zm16.912,0.095a0.34,0.34,0,0,1,.095.189H52.542V17.517Zm-23.563.094h0.19l-0.1.189-0.285.094Zm5.511,0a23.7,23.7,0,0,1-4.18,1.039v0.378H30.5c0.131,0.13-.168.094-0.19,0.094L30.4,20.35h0.19a19.332,19.332,0,0,1,4.085-2.644A0.343,0.343,0,0,0,34.489,17.611Zm18.147,0.095a0.34,0.34,0,0,1,.095.189H52.637V17.706ZM54.822,17.8a2.705,2.705,0,0,1-.19.85h0.285V18.272H55.3V17.8H54.822Zm-26.413.283H28.6v0.095H28.5C28.438,18.19,28.319,18.183,28.409,18.083Zm-0.38.283h0.19v0.094H28.124C28.058,18.474,27.939,18.466,28.029,18.367Zm23.658,0a0.343,0.343,0,0,0,.19.094A0.344,0.344,0,0,0,51.687,18.367Zm-16.532.094a0.48,0.48,0,0,1,.095.283H35.154V18.461Zm-34.109.85a3.748,3.748,0,0,1-.95,0A1.018,1.018,0,0,1,0,18.744a2.675,2.675,0,0,0,1.14-.189V18.65c-0.182.3,0.051,0.678-.1,0.944V19.311Zm26.6-.661h0.19v0.094H27.744C27.678,18.757,27.559,18.749,27.649,18.65Zm-26.413.283a0.34,0.34,0,0,1,.1.189h-0.1V18.933Zm26.033,0h0.19v0.095A0.326,0.326,0,0,1,27.268,18.933Zm52.352,0a1.693,1.693,0,0,1,0,1.228V18.933Zm-52.637.189h0.19v0.095A0.326,0.326,0,0,1,26.983,19.122Zm16.532,0a2.563,2.563,0,0,1,1.14.095A2.565,2.565,0,0,1,43.515,19.122ZM1.33,19.217a0.34,0.34,0,0,1,.1.189H1.33V19.217Zm25.463,0h0.19v0.094H26.888C26.823,19.324,26.7,19.316,26.793,19.217Zm19,0.094v0.378l0.855,0.189v0.189a3.973,3.973,0,0,0-.095,1.605h0.855V21.483a3.011,3.011,0,0,0,.095-0.472h0.285c0-.734-0.008-0.968,0-1.605C47.2,19.366,46.509,19.312,45.8,19.311Zm4.276,1.511h0.57l-0.095.85h0.285a10.884,10.884,0,0,1,0-2.172h-0.1c-0.1.144-.259-0.015-0.665-0.189v1.511Zm3.61-1.039h0.38a1.346,1.346,0,0,0-.1-0.472l-0.19.095A1.329,1.329,0,0,0,53.682,19.783Zm-27.173-.378H26.7V19.5H26.6C26.538,19.513,26.419,19.505,26.508,19.406Zm25.558,0a1.1,1.1,0,0,1-.285.189l-0.095.472h0.19a0.643,0.643,0,0,0,.38.094V20.067h-0.1a2.018,2.018,0,0,0,.1-0.661h-0.19Zm5.321,0.756h0.475V19.406H57.387v0.189A2.7,2.7,0,0,0,57.387,20.161ZM1.425,19.5a0.34,0.34,0,0,1,.1.189h-0.1V19.5Zm28.314,0a0.632,0.632,0,0,1,0,.661V19.5Zm8.551,0a0.34,0.34,0,0,1,.095.189H38.29V19.5Zm-37.15.094a0.635,0.635,0,0,1,.19.472h-0.1V19.878A0.48,0.48,0,0,1,1.14,19.594Zm25.083,0h0.19v0.095A0.326,0.326,0,0,1,26.223,19.594Zm-0.19.095h0.19v0.094A0.326,0.326,0,0,1,26.033,19.689ZM1.52,19.783a0.34,0.34,0,0,1,.1.189H1.52V19.783Zm24.323,0h0.19v0.095h-0.1C25.873,19.89,25.754,19.883,25.843,19.783Zm20.9,0.189a1.74,1.74,0,0,1,.855.095A1.741,1.741,0,0,1,46.746,19.972ZM1.33,20.067a0.34,0.34,0,0,1,.1.189H1.33V20.067Zm0.285,0a0.339,0.339,0,0,1,.1.189h-0.1V20.067Zm59,0c0.033,0.028.19,0.049,0.095,0.189C60.607,20.209,60.417,20.088,60.618,20.067Zm-59.192.189a0.34,0.34,0,0,1,.1.189h-0.1V20.256Zm0.285,0a0.48,0.48,0,0,1,.1.283H1.71V20.256Zm50.166,0a0.279,0.279,0,0,0,.38,0h-0.38Zm5.416,0a0.505,0.505,0,0,0,.57,0h-0.57ZM1.52,20.444a0.34,0.34,0,0,1,.1.189H1.52V20.444Zm50.451,0v0.189h0.285V20.444H51.972Zm5.416,0c0.043,0.266.4,0.209,0.95,0.189V20.444h-0.95Zm-55.582.095a0.34,0.34,0,0,1,.1.189h-0.1V20.539Zm-0.19.094a0.34,0.34,0,0,1,.1.189h-0.1V20.633Zm0.1,0.189a0.34,0.34,0,0,1,.1.189H1.71V20.822Zm0.19,0a0.34,0.34,0,0,1,.1.189H1.9V20.822Zm36.009,0v0.472H38.1V21.2h0.095a0.516,0.516,0,0,1,0-.378H37.91Zm13.777,0c0,0.509-.092.772,0.285,0.85a0.917,0.917,0,0,1,.095-0.756H51.972V20.822H51.687Zm-49.881.189a0.34,0.34,0,0,1,.1.189h-0.1V21.011Zm28.789,0.095v0.189h0.095V21.106H30.594Zm-1.33.189a0.927,0.927,0,0,1-.19.472h0.19V21.672c0.083-.07.107-0.119,0.19-0.189V21.294h-0.19Zm8.171,0.095c-0.086.229-.1,0.15-0.19,0.378h0.38V21.672a0.326,0.326,0,0,1-.19-0.094,0.579,0.579,0,0,0,.19-0.189h-0.19Zm0.475,0a0.344,0.344,0,0,0,.19.094A0.344,0.344,0,0,0,37.91,21.389Zm25.653,0v0.189h0.1V21.389h-0.1Zm-38.1.094v0.189h0.19V21.483h-0.19ZM37.91,21.578a0.344,0.344,0,0,0,.19.094A0.344,0.344,0,0,0,37.91,21.578Zm5.321,0.094a0.343,0.343,0,0,0,.19.095A0.343,0.343,0,0,0,43.23,21.672Zm-40.95.189a0.48,0.48,0,0,1,.1.283H2.28V21.861Zm23.373,0.85,0.855-.094V22.144a1.013,1.013,0,0,0-.855-0.283A6.764,6.764,0,0,1,25.653,22.711Zm0.95-.85a2.363,2.363,0,0,1,0,.756,0.434,0.434,0,0,1,.38.094V22.239a0.461,0.461,0,0,0,.285-0.095h0.095V21.861H26.6Zm0.855,0v0.283h0.095V22.05c0.279,0.037.119,0.154,0.285-.094h0.095V21.861H27.458Zm4.846,0v0.567h0.285V21.861H32.3Zm0.76,0a1.743,1.743,0,0,0,.285.85,0.584,0.584,0,0,1,.38-0.189,3.451,3.451,0,0,0-.19-0.661H33.064Zm1.045,0a3.129,3.129,0,0,0-.19.85h0.1a0.805,0.805,0,0,1,.665-0.189,0.339,0.339,0,0,0,.095-0.189,0.635,0.635,0,0,1-.19-0.472H34.109Zm0.95,0a0.343,0.343,0,0,0,.19.095A0.343,0.343,0,0,0,35.059,21.861Zm4.086,0v0.85H39.81C39.846,21.942,39.912,21.85,39.145,21.861Zm7.411,0v0.378h0.665V22.05A0.682,0.682,0,0,0,46.556,21.861Zm-11.5.189a1.473,1.473,0,0,0-.095.472l0.285,0.189V22.617C35.176,22.5,35.136,22.162,35.059,22.05Zm-32.684.094a0.48,0.48,0,0,1,.1.283h-0.1V22.144Zm41.615,0.189v0.189h0.1A0.323,0.323,0,0,0,43.991,22.333Zm2.565,0c0.079,0.306-.046.144,0.19,0.283V22.333h-0.19Zm0.285,0a0.454,0.454,0,0,0,.095.283A0.455,0.455,0,0,0,46.841,22.333Zm0.19,0c0.079,0.306-.047.144,0.19,0.283V22.333h-0.19ZM3.325,25.922a0.344,0.344,0,0,0,.19.095A0.343,0.343,0,0,0,3.325,25.922ZM3.9,26.017a0.384,0.384,0,0,0,.475,0H3.9Z" transform="translate(0 0.5)"/>
</svg>
