<?xml version="1.0" encoding="utf-8"?>
<!-- Generator: Adobe Illustrator 16.0.0, SVG Export Plug-In . SVG Version: 6.00 Build 0)  -->
<!DOCTYPE svg PUBLIC "-//W3C//DTD SVG 1.1//EN" "http://www.w3.org/Graphics/SVG/1.1/DTD/svg11.dtd">
<svg version="1.1" id="Layer_1" xmlns="http://www.w3.org/2000/svg" xmlns:xlink="http://www.w3.org/1999/xlink" x="0px" y="0px"
	 width="39.969px" height="40px" viewBox="0 0 39.969 40" enable-background="new 0 0 39.969 40" xml:space="preserve">
<path id="Color_Fill_1" fill="#FFFFFF" d="M13.267,7.5c0.068,0.122,0.068,0.27,0,0.391V7.5z M14.067,13.117
	c0.414-0.05,0.833-0.034,1.242,0.049c0.05-0.144,0.198-0.229,0.348-0.2c0.286,0.164,0.622,0.217,0.944,0.147V12.97l0.4-0.049v-0.244
	c0.136-0.041,0.27-0.09,0.4-0.146v-0.146c0.103,0.014,0.207-0.004,0.3-0.049c-0.194,0-0.223,0.024-0.3-0.1
	c0.575-0.091,1.16-0.108,1.739-0.049c0.176,0.058,0.363,0.074,0.547,0.049v-0.144h0.2v0.146h0.447c0.1-0.24,0.173-0.411,0.3-0.733
	c0.412-0.058,0.827-0.091,1.242-0.1v0.1h0.05c0.049,0.049-0.049,0.048-0.05,0.049c-0.143,0.053-0.296,0.069-0.446,0.049
	c-0.006,0.069-0.023,0.137-0.051,0.2c0.102-0.001,0.203,0.015,0.301,0.049c0.256,0.585,0.344,1.376,1.143,1.417
	c0.046,0,0.121-0.033,0.3-0.049v0.146c0.138,0.014,0.272,0.048,0.399,0.1c-0.021,0.056-0.055,0.106-0.1,0.146
	c0.633,0.048,0.616,0.7,0.994,0.879h0.795c0.038,0.033,0.111,0.063,0.148,0.1c0.039,0.036,0.065,0.109,0.101,0.146
	c0.524-0.129,1.075-0.113,1.59,0.049c-0.005,0.306,0.291,0.225,0.7,0.2c0.326,0.077,0.662,0.094,0.994,0.049l2.236,0.049
	c0.789,0.107,1.588,0.141,2.385,0.1h0.845c0.437,0.092,1.092-0.056,1.59,0.049c0.481-0.012,0.962,0.004,1.441,0.049
	c0.576,0.106,1.169,0.089,1.739-0.049v0.147h0.248v-0.162h0.699c0.05,0.225,0.066,0.455,0.051,0.684
	c-0.584,0.002-1.165-0.046-1.739-0.146c-0.388,0.113-0.793,0.147-1.193,0.1c0.275,0.035,0.555-0.017,0.8-0.146
	c-0.282-0.002-0.564,0.015-0.845,0.049V15.8h0.05c0.1,0.038-0.1,0.049-0.1,0.049c-0.481-0.306-1.2,0.068-1.739-0.049
	c-0.841-0.094-1.689-0.11-2.534-0.049h-5.051V15.8h-0.05l-0.05,0.342h-0.993c-0.165-0.241-0.47-0.341-0.745-0.244
	c-0.027,0.026-0.063,0.043-0.1,0.049V16h0.05c0.292,0.26,0.53,0.575,0.7,0.928c-0.104,0.024-0.204,0.057-0.301,0.1h0.447V16.78h0.05
	v-0.049c0.038,0.005,0.073,0.022,0.101,0.049c0.041,0.074,0.059,0.159,0.05,0.244l1.491-0.1V16.78
	c0.785-0.021,1.57,0.061,2.334,0.244c-0.206,0.016-0.182-0.009-0.247,0.146l-0.149,0.439c0.038,0.006,0.073,0.022,0.1,0.05
	c0.074-0.039,0.142-0.089,0.201-0.147v0.147c0.383-0.035,0.771-0.001,1.143,0.1c0.213,0.202,0.517,0.278,0.8,0.2v-0.152H32.4
	c-0.025,0.053-0.059,0.103-0.101,0.146v-0.146h0.05c0.082-0.08,0.188-0.131,0.301-0.146c0.51,0.308,1.733,0.095,2.186,0.439
	c0.031,0.043,0.049,0.094,0.05,0.146c-0.04,0.043-0.074,0.092-0.1,0.146h-0.101c0.012-0.164,0.107-0.117-0.05-0.201
	c-0.439-0.103-0.89-0.151-1.342-0.146c0.018,0.065,0.018,0.135,0,0.2c1.8,0.047,3.265,0.723,4.82,0.928v0.2h0.05
	c0.13-0.1,0.1-0.063,0.3-0.049c-0.062,0.43-0.347,0.671-0.399,1.123c0.244,0.148,0.408,0.4,0.446,0.684
	c-0.191,0.039-0.376,0.105-0.547,0.2c0.356,0.653,0.298,1.456-0.149,2.051c-0.467,0.419-1.006,0.749-1.59,0.978
	c-0.787,0.471-1.625,0.883-2.435,1.367c-0.328,0.243-0.678,0.455-1.044,0.636c-0.721,0.138-1.457,0.172-2.186,0.1H9.54
	c-1.021-0.298-2.018-0.673-2.981-1.123l-1.888-0.635c-0.252-0.151-0.472-0.35-0.646-0.586c-0.063-0.237-0.182-0.454-0.348-0.636
	c-0.211,0.051-0.429,0.067-0.646,0.05c-0.114-0.136-0.168-0.313-0.149-0.489c0.071-0.117,0.106-0.254,0.1-0.391h-0.15v-0.2h0.249
	c0.05-0.108,0.084-0.224,0.1-0.343c-0.485-0.181-1.829-0.793-1.938-1.27c0.102-0.695,0.152-1.396,0.149-2.1h-0.2l-0.05-0.1h0.15
	c0.027,0.025,0.063,0.043,0.1,0.049V18c-0.043-0.092-0.024-0.036,0-0.146h-0.05c-0.073,0.076-0.14,0.158-0.2,0.244
	c-0.005,0.18-0.021,0.359-0.05,0.537V18.05c0.093-0.077,0.162-0.179,0.2-0.293h-0.2v-0.2C0.521,17.173,0.127,16.576,0,15.9
	c0.064-0.098,0.149-0.181,0.248-0.244v0.049c0.123,0.063,0.034-0.021,0.1,0.1c-0.079,0.054-0.118,0.15-0.1,0.244
	c0.208,0.425,0.494,0.806,0.845,1.123v-0.245h0.149V15.9h0.249c0.013-0.099,0.067-0.187,0.149-0.244
	c0.255-0.162,0.544-0.262,0.845-0.293c0.014,0.119,0.047,0.234,0.1,0.342l0.149-0.049V15.51c-0.071-0.04-0.11-0.119-0.1-0.2h0.1
	c0.086-0.05,0.175-0.037,0.3-0.1c0.044,0.077,0.077,0.159,0.1,0.244c-0.071,0.04-0.11,0.119-0.1,0.2
	c0.314-0.019,0.629-0.019,0.944,0c-0.035-0.199-0.084-0.395-0.149-0.586c-0.119,0.008-0.233-0.047-0.3-0.146
	c0.041-0.025,0.075-0.059,0.1-0.1c0.378,0.11,0.978-0.093,1.093,0.2c-0.178,0.02-0.125-0.023-0.2,0.1
	c0.255,0.396,0.742,0.575,1.193,0.44c0.233-0.121,0.939,0.083,1.342,0c0,0,1.374,0.041,1.391,0.049c0.085,0.087,0.187,0.155,0.3,0.2
	c0.165,0.021,0.1-0.078,0.149-0.1c0.253-0.039,0.511-0.004,0.745,0.1c0.014-0.126-0.023-0.087,0.2-0.1
	c0.516,0.177,1.075,0.177,1.59,0c-0.774-0.05-1.54-0.181-2.286-0.391c-0.15,0.001-0.3-0.017-0.446-0.054
	c-0.096-0.094-0.165-0.212-0.2-0.342c0.021,0.148,0.004,0.3-0.05,0.44c0.006-0.071-0.011-0.141-0.05-0.2
	c0.006,0.07-0.011,0.141-0.05,0.2l0.05-0.733c-0.054,0.001-0.106-0.017-0.149-0.049c-0.027-0.027-0.045-0.062-0.05-0.1h0.147
	c0.053-0.26,0.037-0.53-0.048-0.782c0.108-0.089,0.209-0.187,0.3-0.293c0.101,0.009,0.201,0.025,0.3,0.049
	c0.037,0.03,0.055,0.061,0.149,0.146c-0.123,0.063-0.034-0.021-0.1,0.1h0.244c0.024-0.16,0.173-0.271,0.333-0.247
	c0.005,0.001,0.01,0.002,0.015,0.003c0.064,0.024,0.136,0.024,0.2,0l-0.05,0.146c0.53,0.031,1.061,0.031,1.59,0v-0.145
	c0.078-0.044,0.161-0.078,0.248-0.1c0.247-0.04,0.496-0.056,0.745-0.049c0.067-0.018,0.3-0.176,0.348-0.2
	c0.154-0.061,0.113,0.083,0.149,0.1l0.5-0.049v-0.044c-0.347-0.407-0.525-0.931-0.5-1.465h0.149
	c-0.028,0.197-0.011,0.397,0.05,0.586c0.027-0.027,0.045-0.063,0.05-0.101c0.032-0.042,0.049-0.093,0.05-0.146
	c0.161,0.04,0.076-0.024,0.149,0.1c-0.083,0.308-0.008,0.637,0.2,0.879h0.05v-0.684c0.074-1.108,0.04-2.22-0.1-3.321
	c-0.077-0.321-0.077-0.656,0-0.977c-0.029,0.867,0.038,1.736,0.2,2.589c-0.004,0.56,0.063,1.118,0.2,1.661
	c0.05-0.853,0.015-2.086,0.149-2.979c-0.049-0.456-0.033-0.917,0.05-1.368c-0.011,1.814-0.022,3.718,0.094,5.225H14.067z
	 M20.874,11.652c-0.073,0.052-0.159,0.086-0.248,0.1V11.8h0.349v-0.1L20.874,11.652z M18.141,12.385c0.505,0.125,1.034,0.125,1.54,0
	H18.141z M19.88,12.385c0.107,0.064,0.241,0.064,0.348,0h-0.352H19.88z M17.197,12.825v0.1c0.07,0.006,0.14-0.011,0.2-0.049
	L17.197,12.825z M8.75,13.509v0.1H8.8v-0.052h0.05c-0.029-0.028-0.066-0.045-0.105-0.049L8.75,13.509z M9.396,13.509l-0.05,0.146
	h0.05v-0.05c0.057-0.076,0.027-0.024-0.005-0.097L9.396,13.509z M8.502,13.609l-0.05,0.1C8.534,13.635,8.5,13.605,8.5,13.605
	L8.502,13.609z M8.402,13.755v0.1h0.05c-0.005-0.04-0.023-0.076-0.052-0.103L8.402,13.755z M8.149,13.9L8.3,13.947V14H8.149V13.9z
	 M8.449,14.73c0.027,0.026,0.062,0.043,0.1,0.049c-0.027-0.027-0.063-0.045-0.102-0.05L8.449,14.73z M9.149,15.414h0.1v0.049h-0.1
	V15.414L9.149,15.414z M38.118,15.463v0.147h0.2v-0.149h-0.2V15.463z M38.418,15.463c0.041,0.159-0.023,0.075,0.1,0.147v-0.149h-0.1
	V15.463z M38.618,15.463c0.005,0.069,0.022,0.137,0.05,0.2h0.05v-0.2H38.618z M13.168,16.487c-0.016,0.068,0.071,0.071,0.1,0.1
	C13.3,16.533,13.181,16.5,13.168,16.487z M14.211,16.487c0,0.053-0.017,0.105-0.05,0.146c-0.252,0.028-0.501,0.077-0.745,0.146
	c0.562,0,0.936,0,1.491,0v-0.2C14.591,16.576,14.542,16.5,14.211,16.487z M1.143,17.317c0.073,0.058,0.175,0.058,0.248,0H1.143z
	 M32.8,18c0.07,0.095,0.204,0.117,0.3,0.049L32.8,18z M37.868,20.734l-0.05,0.201h0.05v-0.101c0.057-0.077,0.032-0.026-0.005-0.098
	L37.868,20.734z M1.942,21.175l-0.05,0.146h0.145c-0.007-0.062-0.044-0.116-0.099-0.146L1.942,21.175z M2.342,21.175
	c-0.067,0.063-0.104,0.152-0.1,0.244c0.063,0.026,0.131,0.042,0.2,0.049c0.03-0.077,0.047-0.16,0.05-0.243L2.342,21.175z
	 M2.69,21.275c-0.033,0.095-0.033,0.197,0,0.293l0.2,0.049v-0.051c-0.057-0.021-0.108-0.055-0.149-0.1
	c0.002-0.068-0.018-0.137-0.058-0.193L2.69,21.275z M2.89,22.496v0.1h0.1v-0.1H2.89z M3.23,23.081
	c-0.068,0.063-0.104,0.151-0.1,0.244h0.1c0.048,0.012,0.019,0.038,0.05,0c0.038-0.06,0.055-0.13,0.05-0.2L3.23,23.081z
	 M5.963,23.863c0.1,0.117,0.047,0.01,0.149,0.049C6.142,23.823,6.011,23.872,5.963,23.863z M6.609,23.912
	c-0.1,0.1-0.184,0.215-0.248,0.342c0.62,0.113,1.222,0.311,1.789,0.586v-0.199c-0.08-0.242-0.062-0.506,0.05-0.733H6.609V23.912z
	 M11.677,23.912c0.057,0.539-0.047,1.083-0.3,1.563h0.745v-0.1c-0.314-0.419-0.424-0.957-0.3-1.465h-0.146V23.912z M15.354,23.912
	c0.078,0.546-0.046,1.102-0.348,1.563h0.8v-0.1c-0.334-0.409-0.447-0.957-0.3-1.465h-0.152V23.912z M18.981,23.912
	c0.119,0.54,0.01,1.105-0.3,1.563h0.8v-0.05c-0.336-0.427-0.448-0.99-0.3-1.514L18.981,23.912L18.981,23.912z M22.658,23.912
	c0.08,0.54-0.025,1.092-0.301,1.563h0.801v-0.05c-0.352-0.421-0.465-0.991-0.301-1.514L22.658,23.912L22.658,23.912z M26.335,23.912
	c0.073,0.539-0.032,1.088-0.3,1.563h0.8v-0.05c-0.354-0.419-0.468-0.991-0.3-1.514L26.335,23.912L26.335,23.912z M30.012,23.912
	c0.073,0.539-0.032,1.088-0.3,1.563h0.748v-0.1c-0.328-0.412-0.439-0.957-0.3-1.465h-0.148V23.912z M33.689,23.961l0.05,0.586h0.05
	c0.336-0.245,0.703-0.442,1.093-0.586v-0.05h-0.399C34.224,23.98,33.954,23.997,33.689,23.961L33.689,23.961z"/>
</svg>
