<svg xmlns="http://www.w3.org/2000/svg" width="79.969" height="40" viewBox="0 0 79.969 40">
  <defs>
    <style>
      .cls-1 {
        fill: #fff;
        fill-rule: evenodd;
      }
    </style>
  </defs>
  <path id="Color_Fill_1" data-name="Color Fill 1" class="cls-1" d="M52.817,12.672v0.209h0.042c0.061-.106-0.009-0.047.126-0.084v0.084a1.3,1.3,0,0,1,.042.585,3.166,3.166,0,0,1,.628.042v0.042c-0.169-.006-0.229-0.023-0.293.084h0.209c0,0.314.022,0.616,0.042,0.877l-0.461.042,0.042,0.376c0.551,0,1.09-.051,1.592-0.083a3.61,3.61,0,0,1,.586,0h0.042v0.042H54.785a6.174,6.174,0,0,1-1.592.084l0.042,0.209a0.443,0.443,0,0,1,.251.042H53.236v0.125a0.846,0.846,0,0,0,.293-0.042,1.744,1.744,0,0,0,.042.71c0.035-.135-0.021-0.064.084-0.125a0.359,0.359,0,0,0,.042.334c-0.279.064-.182,0.794-0.168,1.127H53.487a0.2,0.2,0,0,0-.042-0.125c0,0.3.044,0.388,0.042,0.584h0.251a1.616,1.616,0,0,1,.042-0.668,1,1,0,0,0,.042.459c0-.163-0.021-0.188.084-0.251a0.615,0.615,0,0,0,.293-0.125,0.463,0.463,0,0,1-.209-0.376,0.434,0.434,0,0,0,.209-0.334h0.419a1.361,1.361,0,0,1,0,.793,1.637,1.637,0,0,1,.377.042v0.459H55.12a1.265,1.265,0,0,1,.042-0.292h0.084a0.393,0.393,0,0,0,.042.334,13.143,13.143,0,0,0-1.759.334L53.7,19.812h0.5a7.912,7.912,0,0,0-.126-1.086h2.01c-0.01-.186,0-0.425,0-0.71a1.052,1.052,0,0,1,.335-0.042,0.4,0.4,0,0,1,.419.042,1.257,1.257,0,0,1,.042.543,0.232,0.232,0,0,1,0,.167,1.715,1.715,0,0,1,1.131.042,1.252,1.252,0,0,0-.084.752H57.8v0.793a1.83,1.83,0,0,0,.963-0.084c-0.11-.016-0.055.031-0.084-0.084h0.042V20.1h0.084c0,0.084-.043.012,0,0.084a0.657,0.657,0,0,1,.419-0.125V20.1a0.212,0.212,0,0,0-.042.125c0.293,0.025.616,0.082,1.005,0.084a0.253,0.253,0,0,0,0,.251,6.922,6.922,0,0,1,.084-1.336,11.443,11.443,0,0,0,.084,1.5H60.23l-0.042.167c0.2,0.007.138,0.088,0.126,0.376a2.273,2.273,0,0,0,.88-0.042,0.329,0.329,0,0,1-.167-0.292,2.2,2.2,0,0,1,.209-0.209,0.283,0.283,0,0,1,.168-0.042V20.522a2.377,2.377,0,0,1,1.047.084,1.057,1.057,0,0,0,.293.334l1.885,0.042v0.167a15.37,15.37,0,0,0-1.8.042,1.812,1.812,0,0,0,.084.543,2.293,2.293,0,0,0,.88.042v0.084H63.707a3.262,3.262,0,0,1-1.173.292v0.668a2.168,2.168,0,0,1,.628.042,0.168,0.168,0,0,0-.168-0.084c-0.027-.163-0.064-0.152-0.084-0.334h0.042a0.143,0.143,0,0,0,.042.084,1.272,1.272,0,0,1,.042-0.292c0.142,0.012.233,0.036,0.251-.209a1.957,1.957,0,0,1,.921.084,1.091,1.091,0,0,0,.712.334,6.52,6.52,0,0,0,1.592.042v0.167l-1.8.042a0.2,0.2,0,0,0,.042.125,0.364,0.364,0,0,0,.209.042,0.464,0.464,0,0,1,.377,0v0.084a0.3,0.3,0,0,0-.084.334h0.377a1.118,1.118,0,0,1,.042-0.5v0.5h0.67a1.119,1.119,0,0,1,.042-0.5v0.5h0.293a1.118,1.118,0,0,1,.042-0.5v0.5h0.419a1.241,1.241,0,0,1,.042-0.543v0.543h0.251a1.118,1.118,0,0,1,.042-0.5v0.5a3.818,3.818,0,0,0,.544-0.125,0.527,0.527,0,0,1,.042-0.167H67.937a0.391,0.391,0,0,1,.042-0.334v0.167l0.251-.042-0.042.084h0.126v0.167H68.4V22.944a2.135,2.135,0,0,1-.168-0.25h0.084c0.065-.067.043,0.042,0.084-0.042a0.569,0.569,0,0,1,.419-0.125c0.156,0.147.17,0.079,0.377,0.042a0.331,0.331,0,0,0,.084.125c-0.094.109-.042,0.078,0,0.25h0.042a1.267,1.267,0,0,1,0-.292,4.159,4.159,0,0,1,.544.084,0.269,0.269,0,0,1,.042-0.167,1.73,1.73,0,0,1,.419.251H70.2a0.533,0.533,0,0,1-.042.167,0.182,0.182,0,0,1,.126.125h0.084a0.365,0.365,0,0,1,.084-0.376,4.748,4.748,0,0,1,1.215.084c-0.214.041-.183,0.173-0.168,0.418h0.209a0.637,0.637,0,0,0,.084-0.376c-0.1-.054-0.028.018-0.084-0.084,0.125,0.014.045-.013,0.209,0a0.829,0.829,0,0,0-.084-0.835,1.266,1.266,0,0,1-.461-0.251H71.5c0.318,0.282.6,0.185,0.586,0.835a0.306,0.306,0,0,1,.126.292,0.248,0.248,0,0,0,.168,0,0.151,0.151,0,0,0,.042-0.084,0.218,0.218,0,0,0,.251.084c0.029-.032.055-0.093,0.084-0.125,0.035,0.136-.02.064,0.084,0.125a0.283,0.283,0,0,0,.168.042,0.269,0.269,0,0,1,.042-0.167V22.9l0.419-.042a0.348,0.348,0,0,1,.042-0.209,0.84,0.84,0,0,0,.042.292,0.459,0.459,0,0,1,.293,0v0.042H73.8a0.4,0.4,0,0,1-.293,0v0.209a0.588,0.588,0,0,0,.5-0.167,0.271,0.271,0,0,1-.168-0.042h0.042a0.466,0.466,0,0,1,.377,0,0.645,0.645,0,0,1,.042-0.334v0.292l0.251,0.042a0.645,0.645,0,0,1,.042-0.334,1.14,1.14,0,0,0,.042.376,0.969,0.969,0,0,1,.335-0.042,0.646,0.646,0,0,1,.042-0.334v0.334a1.98,1.98,0,0,0,.586.042c0.053-.088.029-0.331,0.084-0.418v0.418a0.144,0.144,0,0,1,.084.042,0.144,0.144,0,0,0,.084-0.042c0.048-.078.035-0.3,0.084-0.376v0.418c0.326,0,.4.076,0.712,0.084a1.117,1.117,0,0,1,.042-0.5v0.5l0.419-.042a1.119,1.119,0,0,1,.042-0.5v0.5h0.168a1.116,1.116,0,0,1,.042-0.5v0.5h0.461a1.241,1.241,0,0,1,.042-0.543v0.543H77.99a1.117,1.117,0,0,1,.042-0.5v0.5H79.12V22.568H79.2a1,1,0,0,0,.042.459V22.944a2.8,2.8,0,0,0,.335-0.919h0.042V22.15a2.94,2.94,0,0,0-.335.919H79.5V22.9a0.9,0.9,0,0,1,.293-0.042c0-.834,0-1.282,0-2h0.084v2a0.556,0.556,0,0,1,.084.376,1.973,1.973,0,0,0-.963.835,10.478,10.478,0,0,0-1.34,2.046c-0.571,1.307-.63,2.621-2.136,3.006l-0.754.042c-0.917.2-2.1,0-3.058,0.209-0.325.073-.773-0.019-1.047,0.042H69.613a9.743,9.743,0,0,1-1.8.042H53.7c-14.529,0-28.88.167-43.393,0.167A1.348,1.348,0,0,0,9.592,29c-0.007,0-1.831.015-1.927,0.042-0.056.015-.2,0.11-0.251,0.125-0.272.076-.557-0.024-0.838,0.042H5.78a2.582,2.582,0,0,1-.084.71H5.571a0.737,0.737,0,0,0-.084-0.167c-0.021.2-.04,0.234-0.251,0.25-0.14-.163-0.179-0.072-0.377-0.042a0.435,0.435,0,0,1-.084-0.251,0.624,0.624,0,0,1,.042-0.543H4.607a0.437,0.437,0,0,0-.251-0.084,0.2,0.2,0,0,1-.042.125,0.412,0.412,0,0,1-.419.334,1.474,1.474,0,0,1-.712,0,1.778,1.778,0,0,1-.838-0.125,2.706,2.706,0,0,1-.8-1.8,0.547,0.547,0,0,1,.5-0.292c0.1-.059.364-0.023,0.461-0.084C2.024,27.228.868,26.93,0.8,26.534A1.157,1.157,0,0,0,1.047,26.2,0.421,0.421,0,0,1,.8,25.825H0.838a0.446,0.446,0,0,0,.251.334l-0.042-.125a1.464,1.464,0,0,0,.461-0.5,1.488,1.488,0,0,1-.126-0.125H1.424V25.365L1.55,25.407V25.365a6.271,6.271,0,0,0,.545-0.835,2.856,2.856,0,0,0-.377-1.712,0.73,0.73,0,0,0-.293-0.626,3.322,3.322,0,0,1-1.215.376L0,21.858a9.8,9.8,0,0,1,1.382-.5,2.1,2.1,0,0,0,.209.71c0.132,0.384.14,0.71,0.293,1.086,0.111,0.272.382,0.567,0.5,0.835,0.084,0.187-.19.556,0.084,0.71a2.686,2.686,0,0,1,0-.459,0.15,0.15,0,0,1,.042.084c0.055,0.1-.025.256,0.042,0.376A0.2,0.2,0,0,1,2.6,24.572v0.084L2.681,24.7A1.075,1.075,0,0,1,2.6,24.489H2.639V24.53a0.5,0.5,0,0,0,.168.167V24.656A0.507,0.507,0,0,0,2.89,24.2H2.932v0.459a0.587,0.587,0,0,1,.377.084,1.117,1.117,0,0,1,.042-0.5,1.47,1.47,0,0,0,.042.459l0.126,0.042A1.241,1.241,0,0,1,3.56,24.2v0.543H4.188A1.241,1.241,0,0,1,4.23,24.2v0.543H4.691a1.117,1.117,0,0,1,.042-0.5v0.5H4.984A0.629,0.629,0,0,1,4.942,24.2a0.27,0.27,0,0,0,.042.167,0.6,0.6,0,0,1,.042-0.209H5.068a0.469,0.469,0,0,0,0,.209,0.152,0.152,0,0,0,.084.042c0.017-.149-0.02-0.105.084-0.167a0.255,0.255,0,0,0,.084.084V24.28H5.277V24.238H5.319a0.251,0.251,0,0,1,.251,0,0.449,0.449,0,0,0,.084.292A0.354,0.354,0,0,1,5.7,24.2a1.46,1.46,0,0,1,0,.543H5.738c0.051-.129.016-0.094,0.168-0.125v0.125H6.031V24.614H6.157A0.759,0.759,0,0,1,6.2,24.238a0.589,0.589,0,0,0,.084.5c0.082-.151.2-0.1,0.461-0.084L6.7,24.405H6.743v0.083a0.817,0.817,0,0,1,.084.167H6.911a0.646,0.646,0,0,1,.042-0.334,0.646,0.646,0,0,0,.042.334,0.143,0.143,0,0,1,.042-0.084,0.269,0.269,0,0,0,.042.167c0.052-.112.023-0.046,0.168-0.084a0.875,0.875,0,0,1,.042-0.418v0.418H7.539a0.646,0.646,0,0,1,.042-0.334v0.334a1.55,1.55,0,0,1,.293.084,1.117,1.117,0,0,1,.042-0.5v0.5a0.357,0.357,0,0,1,.335,0,0.876,0.876,0,0,1,.042-0.418,0.646,0.646,0,0,0,.042.334,0.214,0.214,0,0,1,.126-0.042c0.035,0.136-.021.064,0.084,0.125a1.551,1.551,0,0,1,.084-0.5l0.042,0.5H8.921a0.875,0.875,0,0,1,.042-0.418v0.418H9.257V24.405H9.089V24.322H9.131V24.28a0.874,0.874,0,0,0,.5-0.042,0.15,0.15,0,0,0,.042-0.084H9.424a5.9,5.9,0,0,0-1.508-.042V23.946L9.969,23.9a0.343,0.343,0,0,1,.377-0.376,2.036,2.036,0,0,1,.8-0.042v0.167L11.393,23.7a1.033,1.033,0,0,0,.126.376,0.987,0.987,0,0,0-.209.209h0.126c0.055-.075.069,0.019,0.084-0.167A2.362,2.362,0,0,0,11.6,23.7a2.926,2.926,0,0,1,.209-0.25H11.476a2.358,2.358,0,0,0-.88-0.125V23.236a2.4,2.4,0,0,0,.921-0.042,0.36,0.36,0,0,0,.042-0.209,2.53,2.53,0,0,1-.963-0.042H11.56V22.651A13.321,13.321,0,0,0,9.8,22.61V22.443a6.437,6.437,0,0,0,2.01-.125c0.114-.131.212-0.215,0.335-0.334h0.88V22.15l0.251,0.042a0.36,0.36,0,0,0,.126.292,0.753,0.753,0,0,0-.126.209h0.335V22.276h0.126v-0.71h2.722a0.693,0.693,0,0,1,.21-0.71c0.224-.176.48,0.025,0.461,0.376,0.1,0.068.055,0.134,0.042,0.334h0.963V21.524a0.4,0.4,0,0,1-.209-0.418,0.883,0.883,0,0,1,.628-0.251v0.125a0.588,0.588,0,0,1,.084.543H18.6V21.482c-0.033-.08-0.042.084-0.042,0.084h0.209a4.107,4.107,0,0,0,.042,1.5,0.539,0.539,0,0,1,.042-0.292,0.51,0.51,0,0,0,.084.459,3.01,3.01,0,0,0,0-.585H18.806V22.568H19.1V22.61a1.38,1.38,0,0,0-.042.585H19.1V23.152c0.083-.138,0-0.49.084-0.626v0.042c0.084,0.138,0,.49.084,0.626a0.151,0.151,0,0,1,.084-0.042V22.818a3.082,3.082,0,0,1-.084-0.793c-0.115-.506-0.041-1.074-0.168-1.628-0.249-1.1-.194-2-0.377-3.006a4.841,4.841,0,0,0,0-.626,8.8,8.8,0,0,1-.209-1.879h0.042L18.6,15.219c0.109,0,.037-0.054.126,0.042h0.042c0.042,0.042-.041.041-0.042,0.042-0.1.085-.061-0.051-0.126,0.084,0.258,0.428,0,1.541.293,1.921,0.023-.054,0-0.031.042-0.042l0.126,0.042v0.042H19.016c-0.124.113-.124-0.018-0.168,0.167a5.966,5.966,0,0,1,.168,1.461c0.226,0.971.19,2.069,0.377,2.881a3.619,3.619,0,0,0,.167,1.253,0.26,0.26,0,0,0,.377-0.084,0.855,0.855,0,0,1,.126-0.376,1.445,1.445,0,0,0,.084.585h0.042V22.693a0.452,0.452,0,0,0,.042-0.251,0.143,0.143,0,0,0,.084-0.042,0.144,0.144,0,0,1,.084.042c0.107,0.061.047-.009,0.084,0.125a2.91,2.91,0,0,1,.042.668h0.084a1,1,0,0,1,.042-0.459,2.6,2.6,0,0,0,.042.543,0.685,0.685,0,0,0-.419.083h2.806v0.084c-0.106.061-.047-0.009-0.084,0.125h0.084c0.373-.167,1.775.209,2.178-0.042a0.435,0.435,0,0,1-.293-0.084,1.132,1.132,0,0,0,.042-0.5h0.084v0.5h0.838c0.009-.174,0-0.326,0-0.584-0.534-.013-1.165-0.041-1.759-0.042V22.693l2.011-.042c0.117-.45.591-0.436,1.173-0.418v0.209h0.042a0.32,0.32,0,0,1,.251,0c0.018,0.455.194,0.431,0.712,0.418,0.005-.754-0.118-1.3-0.126-2a0.2,0.2,0,0,1-.126-0.042,0.118,0.118,0,0,1-.042-0.042h0.126V20.564a0.271,0.271,0,0,0,.168-0.042,0.271,0.271,0,0,1-.168-0.042,0.279,0.279,0,0,0,.168-0.251,0.926,0.926,0,0,0,.419-0.125c0.029-.032.055-0.093,0.084-0.125a0.2,0.2,0,0,0,.042.125,1.11,1.11,0,0,1,.461-0.125L29.4,20.313c0.09,0.056.15,0.115,0.251,0.167v0.042a0.272,0.272,0,0,0-.168.042,1.463,1.463,0,0,1,.251.25c-0.139.073-.119,0.076-0.126,0.292,0.128,0.058.122-.006,0.126,0.25H29.7a0.268,0.268,0,0,0-.042-0.167l0.084,1.044a3.564,3.564,0,0,1,.419,0v1.253c0.32,0,.564-0.023.8,0V23.4H30.618V23.361H30.66a0.423,0.423,0,0,1,.377-0.084c0-.186,0-0.117.126-0.251a0.248,0.248,0,0,1-.167-0.084,1.705,1.705,0,0,1,.167-0.125c0.166-.261-0.1-0.493.251-0.585a0.214,0.214,0,0,1,.126-0.042V22.61H31.414v0.167h1.215a0.631,0.631,0,0,1,.084.167,0.872,0.872,0,0,0-.084.334h0.126a1.21,1.21,0,0,1,.8-0.626,10.436,10.436,0,0,0-.293-2.38h0.126l0.042,0.334h0.084V20.438a0.2,0.2,0,0,0,.126-0.042,0.271,0.271,0,0,1-.167-0.042h0.042l0.209-.292a7.956,7.956,0,0,0,1.005-.25,0.794,0.794,0,0,0,.251.585,0.2,0.2,0,0,0-.126.042h0.126v0.167a0.2,0.2,0,0,1,.126.042,5.5,5.5,0,0,0,.168,2,1.359,1.359,0,0,0,.084.5,0.269,0.269,0,0,1,.042-0.167v0.167h0.419a0.2,0.2,0,0,1,.042-0.125,1.142,1.142,0,0,1,.5-0.042c0.035-.135-0.02-0.064.084-0.125,0.143,0.267.243,0,.461,0.042v0.083h0.628v1.8h0.084a2.605,2.605,0,0,1,.042-0.543H37.7v0.25h0.209a0.349,0.349,0,0,1,.042-0.209,0.307,0.307,0,0,0,.084.251c0.094-.016.274-0.03,0.293-0.042a0.15,0.15,0,0,0,.042-0.083,0.158,0.158,0,0,1-.126-0.167,1.759,1.759,0,0,0,.712-0.042,2.418,2.418,0,0,1-1.131-.125h0.084l0.042-.084c-0.123,0-.06-0.02-0.168-0.125l0.084-.251,0.126,0.042V23.612c-0.1-.054-0.029.018-0.084-0.084H37.99c-0.036-.063-0.119-0.031-0.042-0.083a1.317,1.317,0,0,1,.628-0.042c0.609,0.135,1.657-.117,2.178.042a0.269,0.269,0,0,0-.084.209h0.084c0.05-.046,1.785-0.006,2.3,0V23.7a0.15,0.15,0,0,0-.042.084c-0.115.054-.2,0.175-0.293,0.209H40.838v0.042H40.8a0.526,0.526,0,0,1-.042.167h1.424v0.292h0.084a2.656,2.656,0,0,1,.335,0v-0.25h0.042v0.084a0.28,0.28,0,0,1,.042.167h0.461a1.349,1.349,0,0,1,.084-0.25,0.143,0.143,0,0,0,.042.084V23.528a0.281,0.281,0,0,1-.042-0.167h0.126l0.042-.5h0.042V22.9a1.153,1.153,0,0,1,.084.459h0.293c0.087-.506.71-0.473,0.88-0.877a1.692,1.692,0,0,0-.084-0.751c-0.154-.665-0.116-1.332-0.251-1.962h0.126l0.042,0.376h0.084c0.038-.1.045-0.066,0.084-0.167a0.2,0.2,0,0,1-.126-0.042h0.042a1.937,1.937,0,0,1,.209-0.251,1.631,1.631,0,0,1,.419-0.084,0.527,0.527,0,0,0-.042-0.167h0.084c0.035,0.136-.021.064,0.084,0.125a0.981,0.981,0,0,1,.419-0.125V19.77a0.7,0.7,0,0,1,.251.209,0.2,0.2,0,0,0-.126.042h0.168v0.125c0.136,0.035.064-.02,0.126,0.084-0.136.035-.064-0.02-0.126,0.084a0.407,0.407,0,0,1,.084.209,0.325,0.325,0,0,1,.251-0.083v0.083H46.45v0.042c-0.2.056-.183,0.165-0.168,0.418,0.211,0.346.058,1.12,0.209,1.378a1.645,1.645,0,0,0,.8.083c0-.132-0.071-0.056.042-0.125a0.314,0.314,0,0,0,.168.167V22.317l0.419,0.042,0.042,0.125c0.048,0.026.689-.042,0.922-0.042V22.234a0.634,0.634,0,0,1,.167-0.083,0.283,0.283,0,0,1,.168-0.042V22.4l0.88-.125a1.044,1.044,0,0,0,.042-0.334,4.715,4.715,0,0,1-.167-1.211A10.93,10.93,0,0,0,48.377,19.6c-0.054.1,0.018,0.028-.084,0.084-0.076-.139-0.222-0.18-0.293-0.334a0.867,0.867,0,0,1,.544-0.125v0.084a0.271,0.271,0,0,0-.167.042h0.042a4.821,4.821,0,0,0,1.424.376V19.562h0.084V19.6a1.194,1.194,0,0,1,.084.209,0.219,0.219,0,0,0,.209-0.125H50.011V19.645a0.371,0.371,0,0,0,.251-0.292c0.2-.014.258-0.065,0.461-0.083a0.269,0.269,0,0,1,.042-0.167v0.125a3.409,3.409,0,0,0,.5-0.125,0.7,0.7,0,0,0,.293.585,0.271,0.271,0,0,0-.168.042h0.126V19.9l0.209,0.042,0.042,0.125a11.479,11.479,0,0,1,0,1.879h0.042a0.143,0.143,0,0,1,.042-0.084c-0.017.4,0.07,0.58,0.042,1,0.106,0.016.066-.024,0.084,0.125a0.212,0.212,0,0,0-.042.125h0.084V22.651l0.712-7.641a0.351,0.351,0,0,1-.209-0.042h0.209a18,18,0,0,0,0-2.3,0.271,0.271,0,0,1-.168-0.042h0.168l-0.209-1.837A1.853,1.853,0,0,1,52.482,10a9.832,9.832,0,0,0,.251,1.879,2.472,2.472,0,0,0,.084.71,2.033,2.033,0,0,0,.8.042,0.486,0.486,0,0,0,.251.042v0.042H53.445A1.522,1.522,0,0,0,52.817,12.672Zm0.042,0.334a0.27,0.27,0,0,0,.042.167A0.27,0.27,0,0,0,52.859,13.006Zm0.461,0.668V13.549a0.713,0.713,0,0,0-.251.042v0.084h0.251Zm-0.377.167v0.083h0.042A0.143,0.143,0,0,0,52.942,13.841Zm-0.126,1.127h0.167a3.5,3.5,0,0,0-.084-0.793H52.859v0.5A0.552,0.552,0,0,0,52.817,14.969Zm0,0.042c-0.032.944-.2,1.855-0.209,2.839h0.5a0.12,0.12,0,0,1,.042-0.042,1.616,1.616,0,0,1,.042-0.668v0.668h0.168V17.724c-0.059-.1-0.023-0.363-0.084-0.459a0.758,0.758,0,0,1-.042.376c0-.5-0.029-1.017-0.042-1.461a0.286,0.286,0,0,1-.251-0.125,0.683,0.683,0,0,0,0-.292h0.084L53.068,16.1h0.126l-0.042-.334a0.286,0.286,0,0,1-.251-0.125,0.451,0.451,0,0,0,0-.292h0.084l0.042,0.334h0.126a3.849,3.849,0,0,1-.126-0.668H52.817Zm1.047,0.209a0.2,0.2,0,0,1-.126-0.042,0.151,0.151,0,0,0,.042-0.084h0.084v0.125Zm-1.34-.042c0.106,0.061.047-.009,0.084,0.125H52.524V15.178Zm0.712,0.209v0.125h0.251V15.386H53.236Zm0.042,0.167v0.125h0.209V15.553H53.278Zm0,0.167v0.125h0.209V15.72H53.278Zm0.209,0.292V15.887H53.278v0.042a0.151,0.151,0,0,1,.042.083h0.167Zm-36.691,0a0.486,0.486,0,0,1,.084.125H16.754Zm36.524,0.042V16.18h0.167V16.054H53.319Zm-36.44.083a5.019,5.019,0,0,1,1.3.835,1.275,1.275,0,0,1,.544.376H18.639A19.733,19.733,0,0,1,16.88,16.138Zm36.44,0.084v0.125a0.2,0.2,0,0,1,.126.042,0.292,0.292,0,0,0-.084.292h0.126a2.279,2.279,0,0,1,0-.459H53.319Zm0.167,0.5a0.2,0.2,0,0,0-.126.042,0.151,0.151,0,0,1,.042.084h0.084V16.722Zm-0.084.167c0.035,0.135-.021.064,0.084,0.125V16.889H53.4Zm0,0.167c0.035,0.136-.021.064,0.084,0.125V17.056H53.4Zm-0.67,1.127h0.126V18.1a0.28,0.28,0,0,0,.042-0.167,0.2,0.2,0,0,0-.126.042H52.733v0.209Zm0.251-.251v0.251h0.084V18.142a0.361,0.361,0,0,0,.042-0.209H52.984Zm0.5,0L53.529,18.1h0.084V18.059c0.1-.054.029,0.018,0.084-0.084A0.66,0.66,0,0,0,53.487,17.933Zm-0.922.334c-0.165,1.564-.36,3.189-0.377,4.8h0.084a0.44,0.44,0,0,1,.042-0.25c-0.006.168-.023,0.228,0.084,0.292a1.148,1.148,0,0,1,.084-0.543,0.214,0.214,0,0,1,.126-0.042l0.042,0.125a0.55,0.55,0,0,1,.042.292L52.9,22.985v0.042a0.352,0.352,0,0,0-.209.042h0.126v0.251l0.335,0.042a7.5,7.5,0,0,1,.042-1.336H52.775a11.6,11.6,0,0,1,0-2h0.084V20.1a0.858,0.858,0,0,1,0,.376h0.293a0.758,0.758,0,0,1,.042-0.376,0.759,0.759,0,0,0,.042.376,0.758,0.758,0,0,1,.042-0.376V20.48h0.209c0.005-.824-0.068-1.405-0.084-2.255H53.319A1.906,1.906,0,0,1,52.565,18.267Zm-33.843.209a0.15,0.15,0,0,1,.042.084H18.723V18.476ZM53.78,18.518a0.544,0.544,0,0,1,.293.042A0.544,0.544,0,0,1,53.78,18.518Zm0,0.167a0.544,0.544,0,0,1,.293.042A0.545,0.545,0,0,1,53.78,18.685Zm0,0.167a0.544,0.544,0,0,1,.293.042A0.544,0.544,0,0,1,53.78,18.852Zm0,0.167a0.545,0.545,0,0,1,.293.042A0.544,0.544,0,0,1,53.78,19.019Zm-2.932.042a0.2,0.2,0,0,1,.126.042A0.2,0.2,0,0,1,50.848,19.061Zm2.932,0.125a0.544,0.544,0,0,1,.293.042A0.544,0.544,0,0,1,53.78,19.186Zm0,0.167a0.544,0.544,0,0,1,.293.042A0.544,0.544,0,0,1,53.78,19.353Zm-5.236.125v0.083c0.533,0.178.849,0.771,1.382,0.96V20.23a0.771,0.771,0,0,1-.042-0.376l-0.126-.042A4.058,4.058,0,0,0,48.545,19.478ZM56.419,19.6v0.209h0.126V19.6H56.419Zm0.168,0a0.348,0.348,0,0,0,.042.209A0.349,0.349,0,0,0,56.586,19.6Zm0.084,0v0.209H56.8V19.6H56.67Zm0.167,0a0.348,0.348,0,0,0,.042.209A0.349,0.349,0,0,0,56.838,19.6Zm0.084,0v0.209h0.084V19.77a0.281,0.281,0,0,0,.042-0.167H56.922Zm0.377,0a0.349,0.349,0,0,0,.042.209A0.348,0.348,0,0,0,57.3,19.6Zm0.168,0a0.647,0.647,0,0,0,.042.334A0.647,0.647,0,0,0,57.466,19.6Zm0.167,0a0.647,0.647,0,0,0,.042.334A0.647,0.647,0,0,0,57.634,19.6Zm-9.424.167a0.323,0.323,0,0,1,.209.292,0.449,0.449,0,0,1-.293.125,0.436,0.436,0,0,1-.084-0.25A0.9,0.9,0,0,0,48.209,19.77Zm1.759,0.084c0.072,0.037.053,0.037,0.126,0H49.969Zm7.33,0v0.084H57.34A0.142,0.142,0,0,0,57.3,19.854Zm1.382,0a0.516,0.516,0,0,1,.251.084v0.042a3.351,3.351,0,0,0-.335.167c0-.084.043-0.012,0-0.084a0.152,0.152,0,0,1-.084.042V20.021a0.533,0.533,0,0,0,.167-0.042V19.854Zm-29.822.084h0.084v0.042H28.859V19.937Zm0.251,0a0.2,0.2,0,0,1,.126.042A0.2,0.2,0,0,1,29.11,19.937Zm20.984,0a0.2,0.2,0,0,0-.126.042,4,4,0,0,1,.126.71h0.084V20.355A1.226,1.226,0,0,1,50.094,19.937ZM44.733,21.9a0.2,0.2,0,0,0,.126-0.042,6.036,6.036,0,0,1-.209-1.628H44.565v0.376A4.543,4.543,0,0,1,44.733,21.9Zm8.126-1.378v0.292H53.11V20.731a0.36,0.36,0,0,0,.042-0.209H52.859Zm0,0.626V21.4h0.335a0.139,0.139,0,0,1,0-.125h0.042v0.042h0.042a2.4,2.4,0,0,0-.042.668h0.293c0-.5-0.022-1.024-0.042-1.461H53.278a0.349,0.349,0,0,1-.042.209,0.348,0.348,0,0,0-.042-0.209,0.652,0.652,0,0,1,0,.5,0.2,0.2,0,0,0-.042-0.125C53.163,21.186,53.187,21.158,52.859,21.148Zm-4.733-.334a0.2,0.2,0,0,1,.042-0.125,0.214,0.214,0,0,1,.126-0.042v0.042c-0.036.079-.02,0.031,0,0.125H48.126ZM33.55,20.689a0.2,0.2,0,0,0-.126.042,0.82,0.82,0,0,1,.084.167H33.55V20.689Zm1.508,0.042a0.212,0.212,0,0,1,.042.125H35.058V20.731Zm15.5,2.631a9.866,9.866,0,0,0-.251-1.754,1,1,0,0,0-.168-0.71V20.856H50.094v0.209a3.431,3.431,0,0,1,.126,1.086,0.242,0.242,0,0,1,.167.209,1.789,1.789,0,0,1-.084.459,2.55,2.55,0,0,1-.544.543h0.8Zm2.3-2.505v0.251H53.11V20.856H52.859Zm-19.393.125v0.083h0.042A0.144,0.144,0,0,0,33.466,20.981Zm1.633,0a0.167,0.167,0,0,1,0,.209V20.981Zm-1.592.167a0.439,0.439,0,0,0,.042.251A0.44,0.44,0,0,0,33.508,21.148Zm1.633,0.167a0.168,0.168,0,0,1,0,.209V21.315Zm25.173,0.042v0.084a3.045,3.045,0,0,0,1.131-.042ZM18.723,21.4a0.162,0.162,0,0,1,.084.125H18.723V21.4Zm34.094,0.042a0.865,0.865,0,0,1,0,.25h0.377v-0.25H52.817Zm-23.079.042a0.22,0.22,0,0,1,0,.251V21.482Zm3.812,0a0.44,0.44,0,0,0,.042.251A0.439,0.439,0,0,0,33.55,21.482Zm26.764,0v0.292h0.293V21.482H60.314Zm0.335,0v0.292h0.8V21.482h-0.8Zm0.88,0.125c0.035,0.135-.02.064,0.084,0.125V21.691C61.576,21.66,61.565,21.638,61.529,21.608Zm-26.346.042a0.167,0.167,0,0,1,0,.209V21.649Zm44.524,0a0.212,0.212,0,0,1,.042.125H79.707V21.649Zm-26.848.084v0.25h0.293a0.762,0.762,0,0,0,.042-0.25H52.859Zm26.806,0.042a0.213,0.213,0,0,1,.042.125H79.665V21.775Zm-46.073.042a0.44,0.44,0,0,0,.042.251A0.439,0.439,0,0,0,33.592,21.816Zm37.78,0.042h0.084V21.9H71.414v0.042A0.15,0.15,0,0,1,71.372,21.858ZM29.78,21.9a0.22,0.22,0,0,1,0,.251V21.9Zm49.843,0a0.213,0.213,0,0,1,.042.125H79.623V21.9ZM43.937,23.361h0.251V23.111a3.674,3.674,0,0,1,.67,0v0.251h0.168l-0.168-1.42H44.775a3.111,3.111,0,0,1,0,.668A1.691,1.691,0,0,0,43.937,23.361Zm-8.712-1.378a0.167,0.167,0,0,1,0,.209V21.983Zm18.052,0.042v0.084h0.251V22.025H53.278Zm18.094,0c0.1,0.086.009,0.04,0.042,0.125C71.338,22.176,71.38,22.065,71.372,22.025Zm-37.738.125a0.439,0.439,0,0,0,.042.25A0.439,0.439,0,0,0,33.634,22.15Zm19.644,0V22.4h0.251V22.15H53.278Zm-36.524.125v0.292a0.2,0.2,0,0,1,.126.042,0.63,0.63,0,0,0-.126.626h0.084a0.715,0.715,0,0,1,.042-0.459,2.7,2.7,0,0,1,0,.459h0.544a0.269,0.269,0,0,1,.042-0.167v0.167h0.88V23.027a0.2,0.2,0,0,1-.126-0.042,0.879,0.879,0,0,1,.209-0.292v0.083a0.452,0.452,0,0,0-.042.251,0.2,0.2,0,0,1,.21.042V22.735H18.471V22.651H18.6V22.276H16.754Zm18.513,0.042a0.167,0.167,0,0,1,0,.209V22.317Zm18.011,0.125v0.251h0.209V22.443H53.278Zm-33.424.042a0.662,0.662,0,0,1,0,.5v-0.5Zm13.11,0.668h0.8q-0.021-.334-0.042-0.668H33.675v0.083a1.445,1.445,0,0,1-.126.209,1.006,1.006,0,0,0-.67.5h0.084V23.152ZM52.1,22.568a0.2,0.2,0,0,0,.042.125A0.2,0.2,0,0,0,52.1,22.568Zm-35.183.042a0.2,0.2,0,0,1,.126.042H16.963c-0.072.037-.053,0.037-0.126,0A0.144,0.144,0,0,0,16.922,22.61Zm55.162,0v0.084h0.042V22.61H72.084Zm-54.995.042a0.2,0.2,0,0,1,.126.042H17.131c-0.072.037-.053,0.037-0.126,0A0.144,0.144,0,0,0,17.089,22.651Zm18.22,0a0.167,0.167,0,0,1,0,.209V22.651Zm-18.052.042a0.2,0.2,0,0,1,.126.042H17.3c-0.072.037-.053,0.037-0.126,0h0.084V22.693Zm19.183,0h0.126c0.054,0.1-.018.028,0.084,0.083a0.152,0.152,0,0,1-.084.042,0.214,0.214,0,0,1-.126.042A0.322,0.322,0,0,0,36.44,22.693Zm35.518,0v0.083H72V22.693H71.958Zm-54.534.042a0.2,0.2,0,0,1,.126.042H17.466c-0.072.037-.054,0.037-0.126,0A0.144,0.144,0,0,0,17.424,22.735Zm0.712,0c0.136,0.035.064-.02,0.126,0.084H18.136V22.735Zm35.141,0v0.25h0.251v-0.25H53.278ZM69.361,22.9h0.168V22.777l-0.168-.042V22.9Zm2.764-.167v0.084h0.042A0.142,0.142,0,0,0,72.126,22.735Zm-59.141.084v0.125h0.5V22.777H13.4A0.9,0.9,0,0,1,12.984,22.818Zm4.607-.042a0.2,0.2,0,0,1,.126.042H17.634C17.6,22.824,17.552,22.821,17.592,22.777Zm0.377,0c0.136,0.035.064-.02,0.126,0.084a0.858,0.858,0,0,1-.209.084,0.321,0.321,0,0,0-.251,0V22.86A0.463,0.463,0,0,0,17.969,22.777Zm-4.44.042a0.2,0.2,0,0,0,.042.125A0.2,0.2,0,0,0,13.529,22.818Zm56.88,0v0.376h0.084V23.069H71.12V22.86H71.037A3.275,3.275,0,0,0,70.408,22.818Zm0.754,0.042v0.209h0.293V22.86A1.415,1.415,0,0,0,71.162,22.86Zm-53.7.042c0.136,0.034.064-.021,0.126,0.083H17.466V22.9Zm0.628,0h0.084v0.083C18.064,22.955,18.1,23.016,18.094,22.9Zm44.44,0v0.083H62.66V22.944Zm5.445,0a0.15,0.15,0,0,0,.084.042A0.151,0.151,0,0,0,67.979,22.9Zm3.853,0.292H72V22.9H71.916v0.042A0.433,0.433,0,0,0,71.833,23.194Zm0.293-.292v0.25h0.084V23.111a0.212,0.212,0,0,0,.042-0.125,0.15,0.15,0,0,1-.042-0.083H72.126Zm0.168,0.167h0.126a0.2,0.2,0,0,0-.042-0.125,0.214,0.214,0,0,0-.126-0.042v0.042A0.213,0.213,0,0,1,72.293,23.069Zm0.168-.125c0.035,0.136-.02.064,0.084,0.125a0.358,0.358,0,0,0,.168-0.125H72.67V22.9Zm7.2-.042a0.527,0.527,0,0,0,.042.167h0.042V22.9H79.665ZM17.3,22.944c0.136,0.035.064-.02,0.126,0.084H17.3V22.944Zm45.529,0.042a0.646,0.646,0,0,0,.042.334V22.944a0.271,0.271,0,0,0-.168.042h0.126Zm0.168-.042a0.759,0.759,0,0,0,.042.376A0.76,0.76,0,0,0,62.995,22.944Zm0.084,0v0.376a0.766,0.766,0,0,0,.377-0.042,0.2,0.2,0,0,1-.126-0.042h0.126a1.6,1.6,0,0,0-.084-0.292H63.079Zm1.675,0.334H64.88a0.986,0.986,0,0,0-.042-0.334H64.8v0.042C64.7,23.1,64.735,23.107,64.754,23.278Zm0.168-.334a0.646,0.646,0,0,0,.042.334A0.648,0.648,0,0,0,64.921,22.944Zm0.168,0v0.334h0.126V22.944H65.089Zm7.665,0v0.125a1.465,1.465,0,0,0,.251.125V23.027a0.351,0.351,0,0,1-.209-0.042,0.351,0.351,0,0,0,.209-0.042H72.754Zm-59.77.042-0.042.251h0.545V22.985h-0.5Zm0.586,0a0.439,0.439,0,0,0,.042.251A0.44,0.44,0,0,0,13.571,22.985Zm3.56,0c0.136,0.035.064-.02,0.126,0.084H17.131V22.985Zm10.429,0v0.5a4.97,4.97,0,0,1,.545,0V23.152h0.168V22.985H27.56Zm37.445,0a0.54,0.54,0,0,0,.042.292A0.539,0.539,0,0,0,65.005,22.985Zm8.042,0v0.125a0.938,0.938,0,0,0,.419.084V22.985H73.047Zm-56.084.042c0.136,0.035.064-.02,0.126,0.084H16.963V23.027Zm10.513,0a1,1,0,0,0,.042.459A1,1,0,0,0,27.476,23.027Zm25.8,0a0.439,0.439,0,0,0,.042.251A0.44,0.44,0,0,0,53.278,23.027Zm-40.419.042-0.042.125H12.9A0.2,0.2,0,0,0,12.859,23.069Zm4.44,0a0.213,0.213,0,0,1,.042.125H17.3V23.069Zm1.131,0v0.167h0.084V23.069H18.429Zm8.88,0.418h0.126V23.069H27.351v0.042A0.772,0.772,0,0,0,27.309,23.486Zm19.267-.418v0.292a0.369,0.369,0,0,0,.377-0.084C46.675,23.185,46.939,23.09,46.576,23.069Zm26.136,0.125c-0.035-.135.021-0.064-0.084-0.125l-0.042.125h0.126Zm1.675-.125a0.15,0.15,0,0,1-.084.042v0.042h0.251V23.069H74.387Zm0.335,0c-0.032.029-.093,0.055-0.126,0.084a0.764,0.764,0,0,0,.377-0.042Zm0.293,0v0.084a0.652,0.652,0,0,0,.335-0.042A0.993,0.993,0,0,1,75.016,23.069Zm-56.461.042a0.2,0.2,0,0,0,.042.125A0.2,0.2,0,0,0,18.555,23.111Zm53.78,0a0.151,0.151,0,0,0,.084.042A0.151,0.151,0,0,0,72.335,23.111Zm0.126,0v0.084H72.5V23.111H72.461Zm1.55,0a0.241,0.241,0,0,0,.251.084V23.111H74.011Zm-55.246.042v0.084h0.042A0.143,0.143,0,0,0,18.764,23.152Zm33.55,0.042a0.2,0.2,0,0,0,.042.125V23.236C52.344,23.209,52.369,23.217,52.314,23.194Zm-25.089.084a0.27,0.27,0,0,0,.042.167A0.269,0.269,0,0,0,27.225,23.278Zm36.272,0c0.072,0.037.053,0.037,0.126,0H63.5Zm-16.335.042a0.222,0.222,0,0,0,.251,0H47.162Zm0.5,0a0.582,0.582,0,0,0,.461,0H47.665Zm1.005,0a0.123,0.123,0,0,0,.167,0H48.67Zm0.544,0a0.222,0.222,0,0,0,.251,0H49.215ZM19.9,24.739h0.5V24.53a0.918,0.918,0,0,0,.209-0.209v0.167h0.21a0.44,0.44,0,0,1,.042-0.25v0.25h0.5l0.042-.334a3.055,3.055,0,0,1-1.3-.083,0.75,0.75,0,0,0,.042-0.459,0.2,0.2,0,0,0,.126-0.042c-0.1-.106-0.008-0.119-0.126-0.167l-0.335.251v1.086h0.042a0.875,0.875,0,0,1,.042-0.418v0.418ZM31.414,23.4v0.084h0.168V23.445h0.042V23.4H31.414Zm0.251,0v0.084h0.042V23.4H31.665ZM32,23.4v0.084a0.718,0.718,0,0,0,.5-0.084H32Zm0.88,0v0.084h0.084V23.4H32.88ZM11.9,23.486a0.834,0.834,0,0,0-.209.626c0.028,0.032.055,0.093,0.084,0.125V24.2a6.37,6.37,0,0,0,.251-0.71H11.9Zm8.586,0V23.57a0.665,0.665,0,0,0,.461-0.084H20.482Zm1.3,0.125a0.2,0.2,0,0,0-.042-0.125,0.151,0.151,0,0,1-.084.042v0.084H21.78Zm0.042-.125v0.125a0.6,0.6,0,0,0,.377-0.084,5.077,5.077,0,0,1,.712.084V23.528a0.12,0.12,0,0,0,.042-0.042H21.822Zm16.335,0a0.2,0.2,0,0,0,.042.125,1.1,1.1,0,0,1,.754.042V23.528Zm0.838,0.042c0.035,0.136-.021.064,0.084,0.125a4.26,4.26,0,0,1,1.55,0V23.486Zm-17.885,0c0.072,0.037.054,0.037,0.126,0H21.11Zm0.168,0a0.241,0.241,0,0,0,.251.084V23.528H21.278Zm-9.257.084-0.084.459a0.363,0.363,0,0,1,.126.167A1.489,1.489,0,0,0,12.021,23.612Zm11.141,0.334v0.167H22.953v0.042a0.143,0.143,0,0,1,.084.042H21.906v0.042h1.256a1.607,1.607,0,0,0-.084.5h0.5a0.875,0.875,0,0,1,.042-0.418v0.418h0.168a1.116,1.116,0,0,1,.042-0.5v0.5h0.461a0.875,0.875,0,0,1,.042-0.418,0.875,0.875,0,0,0,.042.418,1.469,1.469,0,0,1,.168-0.5c0.015,0.373.476,0.272,0.838,0.25,0.043-.057.027,0.012,0.126,0.042v-0.71c-0.018-.027-0.015-0.128-0.042-0.209H25.382C25.194,24.134,23.866,23.96,23.162,23.946Zm15.372-.334a0.123,0.123,0,0,0,.168,0H38.534ZM2.094,23.7a1.7,1.7,0,0,0,.209.626V24.2A0.916,0.916,0,0,0,2.094,23.7Zm3.686,0H6.492v0.042H6.408A1.637,1.637,0,0,1,5.78,23.7Zm15.707,0.292a0.151,0.151,0,0,0,.084.042A0.151,0.151,0,0,0,21.487,23.988Zm17.592,0c0.031,0.036.053,0.047,0.084,0.084l0.126-.042V23.988H39.079Zm0.377,0a1.141,1.141,0,0,0,.712,0H39.456Zm0.754,0a0.757,0.757,0,0,0,.544,0H40.209Zm-33.675.042a0.162,0.162,0,0,1,.084.125H6.576V24.113A0.15,0.15,0,0,1,6.534,24.029Zm15.037,0.042a0.151,0.151,0,0,0,.084.042A0.151,0.151,0,0,0,21.571,24.071Zm0.461,0.042a0.151,0.151,0,0,0,.084.042A0.152,0.152,0,0,0,22.031,24.113Zm0.209,0c0.072,0.037.054,0.037,0.126,0H22.241Zm0.251,0a0.151,0.151,0,0,0,.084.042A0.152,0.152,0,0,0,22.492,24.113Zm0.209,0c0.072,0.037.053,0.037,0.126,0H22.7Zm16.461,0a0.122,0.122,0,0,0,.167,0H39.162Zm-36.733.042a0.15,0.15,0,0,1,.042.084H2.429V24.155Zm9.508,0v0.084h0.042A0.143,0.143,0,0,0,11.937,24.155Zm27.058,0v0.084h0.084V24.155H38.995Zm-32.5.042a0.151,0.151,0,0,1,.042.083H6.492V24.2Zm0.126,0a0.151,0.151,0,0,1,.042.083H6.618V24.2Zm4.942,0V24.28H11.6A0.143,0.143,0,0,0,11.56,24.2Zm-9.382.042a0.539,0.539,0,0,0,.042.292A0.539,0.539,0,0,0,2.178,24.238Zm0.209,0a0.15,0.15,0,0,1,.042.084H2.387V24.238ZM6.66,24.28a0.213,0.213,0,0,1,.042.125H6.66V24.28Zm34.764,0a0.151,0.151,0,0,0,.084.042A0.151,0.151,0,0,0,41.424,24.28ZM6.45,24.322a0.15,0.15,0,0,1,.042.084H6.45V24.322Zm5.236,0.042a0.2,0.2,0,0,0,.042.125V24.363H11.686Zm0.126,0a0.432,0.432,0,0,0,.084.292A0.349,0.349,0,0,0,11.812,24.363Zm0.168,0,0.042,0.125h0.042A0.158,0.158,0,0,0,11.979,24.363Zm26.471,0,0.042,0.125h0.042V24.363H38.45Zm0.126,0v0.084h0.042V24.363H38.576Zm2.262,0a0.645,0.645,0,0,0,.042.334A0.646,0.646,0,0,0,40.838,24.363Zm0.293,0a0.645,0.645,0,0,0,.042.334A0.646,0.646,0,0,0,41.131,24.363Zm0.168,0a0.646,0.646,0,0,0,.042.334A0.645,0.645,0,0,0,41.3,24.363Zm0.126,0c0.035,0.136-.021.064,0.084,0.125V24.363H41.424Zm-38.869.042a0.151,0.151,0,0,1,.042.083H2.555V24.405Zm2.387,0v0.083H4.984V24.405H4.942Zm4.356,0v0.334H9.382V24.405H9.3Zm0.335,0H9.466a0.589,0.589,0,0,0-.042.167,0.358,0.358,0,0,0,.126.167c0.047-.069,0-0.026.084,0V24.405Zm1.424,0a1.272,1.272,0,0,1-.126.292,0.533,0.533,0,0,1,.168.042V24.405H11.058Zm0.084,0v0.334h0.209V24.405H11.141Zm0.251,0a0.2,0.2,0,0,0,.042.125A0.2,0.2,0,0,0,11.393,24.405Zm-4.984.042a0.212,0.212,0,0,1,.042.125H6.408V24.447Zm5.068,0v0.292H11.56V24.572C11.532,24.54,11.505,24.479,11.476,24.447Zm10.094,0.042a0.439,0.439,0,0,0,.042.251A0.44,0.44,0,0,0,21.571,24.489Zm0.084,0v0.251h0.084V24.489H21.654Zm17.634,0a0.349,0.349,0,0,0,.042.209A0.349,0.349,0,0,0,39.288,24.489ZM2.262,24.53A0.269,0.269,0,0,0,2.3,24.7,0.269,0.269,0,0,0,2.262,24.53Zm9.466,0-0.042.209H11.77V24.53H11.728Zm29.7,0V24.7h0.084V24.53H41.424Zm-36.4.125v0.084A0.531,0.531,0,0,0,5.194,24.7V24.656H5.026Zm33.759,0.084c0.072,0.037.054,0.037,0.126,0H38.785Zm0.168,0c0.072,0.037.053,0.037,0.126,0H38.953Zm0.293,0a0.151,0.151,0,0,0,.084.042A0.151,0.151,0,0,0,39.246,24.739ZM1.3,25.449l0.126,0.042a0.12,0.12,0,0,1-.042.042C1.3,25.615,1.3,25.489,1.3,25.449Zm-0.126.084L1.3,25.574a0.119,0.119,0,0,1-.042.042C1.172,25.7,1.178,25.573,1.173,25.532Zm-0.126.084,0.126,0.042a0.118,0.118,0,0,1-.042.042C1.046,25.782,1.052,25.656,1.047,25.616ZM0.921,25.7l0.126,0.042C1,25.846,1,25.916.963,25.992V25.95A0.285,0.285,0,0,1,.921,25.7Zm2.052,1.67a0.151,0.151,0,0,0,.084.042A0.151,0.151,0,0,0,2.974,27.37Zm0.168,0.042a0.151,0.151,0,0,0,.084.042A0.151,0.151,0,0,0,3.141,27.411Zm0.126,0.042a0.735,0.735,0,0,0,.084.167C3.333,27.471,3.371,27.515,3.267,27.453Zm0.461,0.084a0.151,0.151,0,0,0,.084.042A0.151,0.151,0,0,0,3.728,27.537Zm0.126,0.042c0.072,0.037.054,0.037,0.126,0H3.853ZM4.021,27.62A0.864,0.864,0,0,1,4.607,28,1.4,1.4,0,0,1,4.4,29H4.482a0.46,0.46,0,0,1,.293-0.125V28.831a0.894,0.894,0,0,1,.209-0.919c0.072-.063.054,0.049,0.126-0.083H4.9A2.172,2.172,0,0,0,4.021,27.62Zm1.508,0.334a3.644,3.644,0,0,1,.251.5,1.372,1.372,0,0,0,.042.292,0.784,0.784,0,0,1,.209-0.125l0.042-.543H5.99A1.11,1.11,0,0,0,5.529,27.954Zm1.55,0.376L7.12,28.58a3.205,3.205,0,0,0,1.55.125C8.106,28.645,7.658,28.384,7.079,28.33Z"/>
</svg>
