<svg xmlns="http://www.w3.org/2000/svg" width="79.938" height="40" viewBox="0 0 79.938 40">
  <defs>
    <style>
      .cls-1 {
        fill: #fff;
        fill-rule: evenodd;
      }
    </style>
  </defs>
  <path id="Color_Fill_1" data-name="Color Fill 1" class="cls-1" d="M49.72,10.566h0.654v-0.1A1.294,1.294,0,0,1,50,9.806h0.093V9.9a2.106,2.106,0,0,1,.561.95H50.561a0.574,0.574,0,0,0-.187-0.19v0.95c-0.339,0-.321.091-0.28,0.665,0.509,0.832.427,3.324,0.654,4.467h0.093v-0.57a2.017,2.017,0,0,1-.187-1.426c0.069,0.957.652,1.949,0.374,2.851h0.093c0.1-.105.1-0.037,0.28-0.19v0.285a1.463,1.463,0,0,0,0,1.141h0.187V18.55a1.207,1.207,0,0,0,.748.095V19.31c-0.44.261-.2,0.425-0.093,0.855h1.028a8.2,8.2,0,0,1,0-.95c-0.42.01-.336,0.12-0.561-0.19h0.654a4.215,4.215,0,0,1,.093-1.426,0.472,0.472,0,0,1,.28-0.1,0.335,0.335,0,0,0,.187.1v0.665c-0.3,0-.225-0.114-0.28.285,0.54-.027,2.054-0.2,2.43.095a6.276,6.276,0,0,0-.28,1.9,24.531,24.531,0,0,1,4.579.285,1.016,1.016,0,0,1,.187.475h1.963V21.5H61.5a1.965,1.965,0,0,1-.935.1v0.475a3.468,3.468,0,0,0,1.122-.095v0.475a11.771,11.771,0,0,1,2.43-.475v0.095a0.319,0.319,0,0,0-.187.1l1.122,0.095a1.016,1.016,0,0,1,.187.475L67.2,22.826v0.19H65.327V23.3l5.981-.1a0.757,0.757,0,0,1,.561-0.38v0.38l7.29-.285a0.725,0.725,0,0,0,.748.57,0.569,0.569,0,0,1,0,.38,10.187,10.187,0,0,0-2.71,4.277c-0.132.419-.059,1.037-0.187,1.426l-3.832.57c-1.157.258-2.385,0.049-3.458,0.285H65.608c-1.666.366-5.034,0.167-6.823,0.19H47.664a17.368,17.368,0,0,1-3.178.1h-8.6a15.941,15.941,0,0,1-2.9.095H27.664c-5.2,0-10.73.051-15.888,0.19-1.072-2.334-3.748-.59-5.794-0.95v0.285a0.49,0.49,0,0,1,.093.285H5.888c-0.144-.067-0.013-0.012-0.28,0a1.638,1.638,0,0,0-.093-0.57l-0.467-.1a0.8,0.8,0,0,1-.467.76c-0.849.809-2.848-.639-2.43-1.806a1.6,1.6,0,0,1,.654-0.57,2.162,2.162,0,0,1-1.776-.76,8.4,8.4,0,0,0,1.4-1.9,6.879,6.879,0,0,1,.093-0.95c0.3,0.326,1.274.19,1.869,0.19l3.925,0.095c0.545,0,1.64.162,1.869-.19H9.252V24.727H9.159v-0.1l0.935-.1c-0.015-.772.292-0.718,1.028-0.665v0.57h0.094c0.2-.576.784-0.424,1.4-0.38v0.285h0.654v0.665l0.935-.095v-0.19a0.345,0.345,0,0,1-.094-0.19,7.058,7.058,0,0,0-1.028-.57,5.152,5.152,0,0,1-1.028-.095,1.935,1.935,0,0,0,.935-0.095c-0.386-.013-0.665.076-0.841-0.285h0.094l1.589,0.475c-0.032-.458-0.161-0.683.093-0.855a8.222,8.222,0,0,1,1.589-.1,2.919,2.919,0,0,0,.654-0.57,6.383,6.383,0,0,1,2.243-.1V19.69a13.743,13.743,0,0,1-1.028-3.707c0.675-.423,1.331-0.953,2.056-1.331a1.018,1.018,0,0,1,.093-0.57v0.57c1.1,0.225,1.662,1.383,2.617,1.711H34.206c2.227-.534,4.581-1.031,6.636-1.711,1.261-.417,3.2-0.643,4.206-1.331,0.422-.287.683-0.84,1.121-1.14v0.19a3.074,3.074,0,0,0-.841.855h0.093c1.077-.824,3.247-0.9,4.206-1.806-0.215-.509.149-2.1-0.467-2.471a17.107,17.107,0,0,1-2.991,3.231v-0.19c0.623-.411,3.09-2.938,3.178-3.707A0.49,0.49,0,0,1,49.252,8h0.093V8.1c0.037,0.06.447,1.352,0.467,1.426H49.72a1.042,1.042,0,0,0-.187-0.285V9.521A2.67,2.67,0,0,1,49.72,10.566Zm0.093-1.045A0.368,0.368,0,0,1,50,9.806H49.907v-0.1A0.345,0.345,0,0,1,49.813,9.521Zm0.841,1.331a0.367,0.367,0,0,1,.187.285H50.748v-0.1A0.344,0.344,0,0,1,50.654,10.851Zm0.187,0.285a0.367,0.367,0,0,1,.187.285H50.935v-0.1A0.344,0.344,0,0,1,50.841,11.136Zm0.187,0.285a2.063,2.063,0,0,1,.654,1.045H51.589v-0.1A2.106,2.106,0,0,1,51.028,11.422Zm-1.5.19c-0.541.477-1.5,0.488-2.056,0.95a17.466,17.466,0,0,1,1.682,3.707h0.093a3.547,3.547,0,0,1,.187-1.521,0.7,0.7,0,0,0,.187.76V15.033a2.062,2.062,0,0,1-.187-1.236c0.339,0,.321-0.091.28-0.665H49.626a1.249,1.249,0,0,1-.093.665C49.55,13.169,49.845,12.1,49.533,11.612Zm2.15,0.855a0.368,0.368,0,0,1,.187.285H51.776v-0.1A0.344,0.344,0,0,1,51.682,12.467Zm-4.392.1a9.953,9.953,0,0,1-2.15.855,41.871,41.871,0,0,0,1.028,4.277,5.655,5.655,0,0,0,.374,1.616c0.3-.55.791-0.808,1.122-1.331h0.093v0.1a7.921,7.921,0,0,1,.654,1.235H48.6V19.215a0.71,0.71,0,0,1-.187-0.57H48.5V18.55H48.6v0.095c0.213,0.36.06,1.085,0.28,1.426,0.034-1.217.377-2.418,0.374-3.517,0-.2-0.989-1.88-1.121-2.186A5.029,5.029,0,0,0,47.29,12.562Zm4.579,0.19a6.376,6.376,0,0,1,.467.57,2.794,2.794,0,0,1-.187.76H52.056V13.8C52.339,13.418,52,13.221,51.869,12.752ZM21.4,23.112a58.789,58.789,0,0,0,6.262.1c0.019-.133-0.077.038-0.093-0.1-0.18-.074.187-0.1,0.187-0.1,0.337,0.363,1.586.19,2.243,0.19h6.168a7.017,7.017,0,0,0,.187-0.95,7.472,7.472,0,0,1-.28-1.426,1.6,1.6,0,0,1,.28-0.285,0.6,0.6,0,0,1-.374-0.1h0.187a1.918,1.918,0,0,1,1.5-.76v0.57c0.246,0.072.223,0.114,0.467,0.19v0.1a0.6,0.6,0,0,0-.374.095c0.4,0.18.4,1.363,0.374,2.186h0.748V22.731a2.628,2.628,0,0,1-.748-1.14h0.093a1.961,1.961,0,0,0,1.121,1.235,2.674,2.674,0,0,1,.748-0.19,9.232,9.232,0,0,1,.467-1.521,3.963,3.963,0,0,1,.094-1.046,0.6,0.6,0,0,1-.374-0.095h0.187a1.7,1.7,0,0,1,1.5-.76v0.57H42.15a0.807,0.807,0,0,1,.093-0.475c0,0.825-.008.649,0,1.521,0.571,0.208.6,1.575,1.4,1.806a2.232,2.232,0,0,0,1.028.1,6.144,6.144,0,0,1,0-1.616l0.28,0.095v0.475a2.341,2.341,0,0,0-.093,1.046,1.057,1.057,0,0,0,.748-0.19l1.121-2.376a5,5,0,0,1,0-.76H46.355l-1.308-5.893a15.273,15.273,0,0,0-3.084,1.046c-1.279.431-2.6,0.555-3.832,1.045,0.387,1.593,1.705,2.777,2.15,4.372H40.187v-0.1L37.944,15.6c-0.637.214-3.605,0.647-3.832,1.046a18.344,18.344,0,0,1,1.869,3.8H35.888V20.355a22.5,22.5,0,0,1-1.963-3.9c-0.946.33-1.989,0.223-3.084,0.475-3.141.724-6.985,0.548-10.748,0.57v0.1c0.414,0.405.6,5.041,1.308,5.988V23.112Zm30.187-9.6a0.772,0.772,0,0,1,.467.1A0.771,0.771,0,0,1,51.589,13.512Zm-0.467.1a0.772,0.772,0,0,1,.467.1A0.772,0.772,0,0,1,51.122,13.607Zm-0.561.1a0.771,0.771,0,0,1,.467.095A0.772,0.772,0,0,1,50.561,13.7Zm-0.934.285a2.3,2.3,0,0,0,.187,1.331A2.614,2.614,0,0,0,49.626,13.988Zm0.28,0L50,15.508h0.187v-0.38C50.012,14.838,50.09,14.261,49.907,13.988Zm2.056,0.095a2.077,2.077,0,0,1-.374,1.236H51.5V15.033A2.251,2.251,0,0,0,51.963,14.083Zm-32.43.76a6.809,6.809,0,0,0-1.869,1.045,0.335,0.335,0,0,0,.187.1l1.869,1.14v-0.76A3.416,3.416,0,0,1,19.533,14.843Zm0.187,0a7.353,7.353,0,0,0,.467,2.471c0.475-.437,1.315-0.5,1.776-0.95C21.179,15.9,20.537,15.269,19.72,14.843ZM51.4,15.318a1.576,1.576,0,0,1-.28,1.045H51.028V15.888A0.788,0.788,0,0,0,51.4,15.318ZM49.72,15.6a0.448,0.448,0,0,0-.28.095,2.063,2.063,0,0,0-.093.951,2.778,2.778,0,0,1,.467,1.045h0.093V16.649A2.26,2.26,0,0,1,49.72,15.6Zm0.28,0a12.894,12.894,0,0,0,.748,4.087h0.093a23.257,23.257,0,0,0-.654-3.992A0.335,0.335,0,0,0,50,15.6Zm-32.43.475a8.459,8.459,0,0,0,.841,3.231C18.445,17.246,18.9,16.715,17.57,16.078Zm4.486,0.38a6.553,6.553,0,0,1-1.682.855v0.1H24.86c0.435-.263,1.286.035,1.869-0.1,1.682-.374,3.645-0.275,5.234-0.665a3.727,3.727,0,0,0,1.122-.19H22.056Zm-3.271,5.892h0.748l0.28-4.942-1.121-.665v0.285c0.5,0.836-.243,2.507.093,3.517,0.131,0.392.522,0.667,0.654,1.14H19.346V21.591a2.585,2.585,0,0,1-.467-0.76H18.785v1.521Zm30.28-3.041H50a4.964,4.964,0,0,0-.654-2.471H49.252V17.6A3.968,3.968,0,0,0,49.065,19.31Zm1.776-2.471a0.953,0.953,0,0,0,.187.57A0.694,0.694,0,0,0,50.841,16.839ZM18.5,17.124a3.168,3.168,0,0,0,.093,1.331A3.168,3.168,0,0,0,18.5,17.124Zm1.776,0.665,0.28,0.095v0.095A0.355,0.355,0,0,1,20.28,17.789Zm30.654,0L51.4,19.975A3.475,3.475,0,0,0,50.935,17.789Zm-30.374.19a0.355,0.355,0,0,1,.28.19h0.093v0.1A0.507,0.507,0,0,1,20.561,17.979Zm0.374,0.285,0.28,0.095v0.095A0.355,0.355,0,0,1,20.935,18.265Zm-1.308,4.087h0.467V22.256h0.093l-0.28-2.091c0.247-.027.2-0.078,0.187-0.57-0.188-.318-0.08-0.95-0.28-1.235Zm1.589-3.9,0.28,0.1v0.095A0.355,0.355,0,0,1,21.215,18.455Zm28.879,0.19,0.187,2.281,0.748,0.285V21.116H50.935a4.24,4.24,0,0,0-.28-1.521H50.561V19.88a1.986,1.986,0,0,1,.187,1.045H50.654V20.831C50.3,20.285,50.515,19.132,50.094,18.645ZM20.748,24.157h0.28a14.008,14.008,0,0,0-.654-4.087,3.873,3.873,0,0,0-.28-1.331v0.285c0.359,0.608,0,1.784.374,2.376a0.465,0.465,0,0,1,.093-0.285v0.95h0.187c0.147,0.414-.253.42-0.187,0.855A11.584,11.584,0,0,1,20.748,24.157Zm0.841-5.417,0.28,0.1v0.1A0.355,0.355,0,0,1,21.589,18.74Zm-3.084.1A2.308,2.308,0,0,0,18.6,19.88,2.308,2.308,0,0,0,18.5,18.835Zm3.364,0.1,0.28,0.095v0.1A0.355,0.355,0,0,1,21.869,18.93Zm0.28,0.19a0.355,0.355,0,0,1,.28.19h0.093v0.1A0.507,0.507,0,0,1,22.15,19.12ZM51.5,19.785h0.374a0.328,0.328,0,0,1,.093-0.19v-0.19a1.987,1.987,0,0,1-.467-0.19v0.57Zm-28.972-.38L22.8,19.5V19.6A0.355,0.355,0,0,1,22.523,19.405Zm26.075,0H48.224V19.5c0.361,0.148.168,0.153,0.28,0.475H48.6v-0.57Zm1.4,0H49.065a2.79,2.79,0,0,0-.093.855A4.768,4.768,0,0,1,50,20.736v-1.33Zm-27.2.19,0.28,0.1v0.095A0.355,0.355,0,0,1,22.8,19.6Zm0.28,0.19a0.355,0.355,0,0,1,.28.19h0.093V20.07A0.507,0.507,0,0,1,23.084,19.785Zm30.467,0a0.464,0.464,0,0,0,.093.285V19.785H53.551Zm0.187,0v0.19H54.86v-0.19H53.738Zm-30.28.285,0.28,0.1v0.1A0.355,0.355,0,0,1,23.458,20.07Zm24.953,0a0.464,0.464,0,0,0,.093.285,0.335,0.335,0,0,1,.187-0.1v-0.1Zm-24.673.19a0.355,0.355,0,0,1,.28.19h0.093v0.1A0.507,0.507,0,0,1,23.738,20.26Zm-5.234.1a4.931,4.931,0,0,0,.093,1.9A4.931,4.931,0,0,0,18.5,20.355ZM49.159,23.4h0.654a6.075,6.075,0,0,0,.28-2.186A0.648,0.648,0,0,1,50,20.831c-0.441-.112-0.684-0.35-1.121-0.475v0.665A7.985,7.985,0,0,1,49.159,23.4ZM48.6,20.45a0.464,0.464,0,0,0,.093.285A0.464,0.464,0,0,0,48.6,20.45Zm-28.5.1a3.289,3.289,0,0,0,.093.76H20.28A2.582,2.582,0,0,0,20.094,20.546Zm4.019,0,0.28,0.095v0.095A0.356,0.356,0,0,1,24.112,20.546Zm22.9,2.091-0.28-2.091a0.344,0.344,0,0,0-.093.19,6.035,6.035,0,0,0-.935,2.091h0.467A2.251,2.251,0,0,1,47.009,22.636Zm11.215-.1v-0.57a0.977,0.977,0,0,0,1.028-.1c-0.546-.028-0.827-0.034-0.841-0.665l0.28-.095c0.178-.089.109-0.036,0.374,0V20.831a1.191,1.191,0,0,0,.654-0.1,26.768,26.768,0,0,1-3.925-.095v0.095a1.211,1.211,0,0,0,.748.19,4.463,4.463,0,0,0,1.028,0v0.1h0.094a3.276,3.276,0,0,1,0,1.235,0.448,0.448,0,0,1,.28.095c-0.3.079-.143-0.046-0.28,0.19h0.187A0.513,0.513,0,0,1,58.224,22.541ZM24.393,20.736l0.28,0.1v0.095A0.355,0.355,0,0,1,24.393,20.736Zm24.3,0.1a0.622,0.622,0,0,0,.093.38A0.622,0.622,0,0,0,48.692,20.831Zm-24.019.095a0.355,0.355,0,0,1,.28.19h0.093v0.095A0.507,0.507,0,0,1,24.673,20.926Zm26.636,0c0.155,0.106.1,0.168,0.187,0H51.308Zm-1.028.1a2.491,2.491,0,0,0,.187,1.426v-0.1a1.294,1.294,0,0,0,.374-0.665,0.447,0.447,0,0,1-.28-0.095h0.094c0.155-.106.2,0.091,0.374-0.19H50.935V21.306c-0.082.07-.106,0.12-0.187,0.19A0.552,0.552,0,0,0,50.28,21.021Zm-25.234.19,0.28,0.1V21.4A0.355,0.355,0,0,1,25.047,21.211ZM40.374,23.4h0.467l-0.187-2.091H40.561V21.5a1.492,1.492,0,0,0-.187,1.331c-0.3.079-.143-0.046-0.28,0.19C40.405,22.98,40.359,22.922,40.374,23.4Zm-20.187-2a0.622,0.622,0,0,0,.093.38A0.622,0.622,0,0,0,20.187,21.4Zm5.14,0,0.28,0.1v0.1A0.355,0.355,0,0,1,25.327,21.4Zm17.2,0.1,0.187,1.9H42.8v-0.19a1.322,1.322,0,0,0,.093-0.57c0.313,0.02.224,0.2,0.374-.1A11.322,11.322,0,0,0,42.523,21.5Zm-16.916.1a0.355,0.355,0,0,1,.28.19h0.094v0.1A0.506,0.506,0,0,1,25.608,21.591Zm23.177,0.095a1.249,1.249,0,0,0,.094.665A1.249,1.249,0,0,0,48.785,21.686Zm-22.8.19,0.28,0.1v0.095A0.355,0.355,0,0,1,25.981,21.876ZM50.374,23.4h0.561V23.3h0.093a6.176,6.176,0,0,0,0-1.426,0.346,0.346,0,0,0-.093.19A1.647,1.647,0,0,0,50.374,23.4ZM26.262,22.066a0.956,0.956,0,0,1,.561.38h0.094v0.095H26.729C26.584,22.349,26.4,22.27,26.262,22.066ZM1.776,23.492L0,23.587V22.541a7.886,7.886,0,0,0,1.776-.285,0.328,0.328,0,0,0,.093.19,4.683,4.683,0,0,0,.28,1.9H2.056v-0.19A1.007,1.007,0,0,1,1.776,23.492Zm61.4-.95c0.365,0,.421.047,0.561-0.19h0.093V22.256H63.084a8.682,8.682,0,0,1-1.121.76c0.171,0.5.749,0.416,1.4,0.38V23.3A0.814,0.814,0,0,1,63.178,22.541Zm-45.981.95v0.285h1.215V22.446a3.852,3.852,0,0,0-1.589.095,2.024,2.024,0,0,1,1.122.285,1.045,1.045,0,0,1,.094.57A2.66,2.66,0,0,1,17.2,23.492ZM18.5,22.446a3.168,3.168,0,0,0,.093,1.331A3.168,3.168,0,0,0,18.5,22.446Zm0.28,0v1.331h0.28V22.826c0.352-.014.328,0.045,0.467-0.19A3.22,3.22,0,0,0,18.785,22.446Zm30.094,0a1.249,1.249,0,0,0,.093.665A1.249,1.249,0,0,0,48.879,22.446Zm-21.963.095,0.28,0.1v0.1A0.355,0.355,0,0,1,26.916,22.541Zm-25.047.19a0.344,0.344,0,0,1,.093.19H1.869v-0.19Zm25.327,0a0.355,0.355,0,0,1,.28.19H27.57v0.095A0.506,0.506,0,0,1,27.2,22.731Zm9.065,0.095v0.38h0.187v-0.19C36.367,22.946,36.343,22.9,36.262,22.826Zm6.729,0V23.4h0.374a1.383,1.383,0,0,1,.093-0.475H43.271A0.471,0.471,0,0,0,42.991,22.826Zm3.551,0-0.093.57h0.467c-0.04-.335-0.187-0.288.093-0.475a0.807,0.807,0,0,0,.093.475V22.922A1.689,1.689,0,0,0,46.542,22.826Zm-7.29.1v0.285a0.982,0.982,0,0,0,.467.19V22.922H39.252ZM44.673,23.4v-0.38l-1.028-.095v0.095A0.954,0.954,0,0,0,44.673,23.4Zm0.935-.38V23.4h0.561V22.922Zm-7.383,0V23.4h1.028V23.3A1.153,1.153,0,0,0,38.224,23.017Zm6.636,0V23.4c0.547-.023.38-0.161,0.654,0C45.408,23,45.35,23.011,44.86,23.017Zm-42.9.1a0.344,0.344,0,0,1,.093.19H1.963v-0.19Zm41.589,0c0.077,0.308-.046.145,0.187,0.285V23.3C43.657,23.231,43.633,23.182,43.551,23.112Zm33.832,0c-0.112.074-.45,0.114-0.561,0.19a7.336,7.336,0,0,0,2.337-.19H77.383Zm-63.832.1a0.51,0.51,0,0,1,0,.57v-0.57Zm0.374,0v0.855h0.094v0.095H14.3v-0.38h1.589V23.3Zm35.047,0V23.4h0.093A0.328,0.328,0,0,0,48.972,23.207Zm1.028,0-0.093.19C50.07,23.264,50,23.207,50,23.207Zm24.579,0c-0.489.319-2.011,0.108-2.71,0.1v0.19h0.093c0.884-.544,3.4.293,4.3-0.285C75.6,23.207,75.008,23.233,74.579,23.207ZM22.336,25.868a0.6,0.6,0,0,0-.187-0.475h1.122v0.095c-0.166.178-.173,0.075-0.093,0.285v0.1h0.187a1.724,1.724,0,0,0,.28-0.475h0.093V25.3a5.755,5.755,0,0,0-1.869-.19V25.012a0.49,0.49,0,0,1-.093-0.285,0.782,0.782,0,0,1,.28-0.19c0.077-.043,0-0.1.187-0.1h0.093c0.236,0.289.919-.225,1.589,0,0.064,0.021.042,0.22,0.187,0.19a21.836,21.836,0,0,1,3.925,0v0.1H27.944c-0.578.363-2.062-.024-2.71,0.19v0.19a0.96,0.96,0,0,1,.467.57,4.316,4.316,0,0,1,1.869-.1V25.3h0.28V25.012h0.093a0.587,0.587,0,0,0,.654-0.19c-0.008-.015-0.093-1.14-0.093-1.14a2.4,2.4,0,0,1-.374-0.285h0.187c0.464,0.615,1.178.135,1.5,0.285a0.485,0.485,0,0,1,.28.475,0.5,0.5,0,0,0,0,.475H32.43a7.378,7.378,0,0,1,2.991,0c0.08-.235.183-0.668,0.28-0.95a1.3,1.3,0,0,0,.374.1V23.3c-5,0-9.442,0-14.393,0v0.19c0.5,0.489-.377,1.454.187,2.281A0.8,0.8,0,0,0,22.336,25.868ZM36.262,23.3v0.475h0.187A0.45,0.45,0,0,0,36.262,23.3Zm34.393,0c-0.67.414-2.231-.23-2.9,0.19,0.66,0.019,3.25.13,3.458-.19H70.654Zm8.131,0a5.015,5.015,0,0,1-1.963.095v0.19H77.29c0.444-.273,1.522.088,1.963-0.19ZM2.056,23.4a0.49,0.49,0,0,1,.093.285H2.056V23.4Zm63.271,0v0.19c0.7,0,1.177-.019,1.682,0v-0.1H67.1V23.4h-1.5c-0.147.118-.048,0.061-0.187,0H65.327Zm-22.336.1v0.38a0.736,0.736,0,0,1,.374,0v-0.38H42.991Zm0.561,0v0.38a1.168,1.168,0,0,0,.374-0.095v-0.1H43.832C43.7,23.44,43.852,23.575,43.551,23.492Zm0.748,0.19c0.335-.04.235,0.045,0.374-0.19H44.019v0.19a0.368,0.368,0,0,1,.187.285H44.3V23.682Zm0.561-.19v0.475h0.187v-0.19a0.49,0.49,0,0,0,.093-0.285H44.86Zm0.467,0-0.093.475h0.187V23.872a0.649,0.649,0,0,0,.093-0.38H45.327Zm0.374,0v0.38h0.467V23.777H46.075l0.093-.19H46.075v-0.1H45.7Zm16.449,0a3.174,3.174,0,0,0,1.869,0H62.15Zm11.028,0v0.19a3.031,3.031,0,0,0,1.682-.19H73.178Zm1.776,0a1.86,1.86,0,0,0,1.308,0H74.953Zm-25.7.1a0.488,0.488,0,0,0,.561,0H49.252Zm1.122,0a0.488,0.488,0,0,0,.561,0H50.374Zm18.6,0c-0.174.108-.669,0.078-0.841,0.19,0.553,0.023,1.834.162,2.056-.19H69.813A1.486,1.486,0,0,1,68.972,23.587Zm1.4,0a1.22,1.22,0,0,1-.093.38h0.467c0.21-.277.047-0.1,0.374,0v-0.19l0.094-.1H71.028A1.219,1.219,0,0,0,70.374,23.587Zm1.308,0.38a2.078,2.078,0,0,0,1.215-.19c0.225-.067,1.291.337,1.776,0-0.925-.016-2.468-0.347-2.9-0.1A0.49,0.49,0,0,0,71.682,23.967Zm6.449-.38c-0.286.175-1.025,0.01-1.308,0.19h2.617v-0.1A5.523,5.523,0,0,0,78.131,23.587ZM2.15,23.682a0.281,0.281,0,0,1,0,.38v-0.38Zm60.935,0c-0.131.084-.524,0.1-0.654,0.19,0.517,0.024,1.57.139,1.776-.19H63.832A5.781,5.781,0,0,1,63.084,23.682Zm2.149,0v0.19a2.259,2.259,0,0,0,1.028-.19H65.234Zm10.374,0.1a0.62,0.62,0,0,0,.654,0H75.608Zm-7.477.095c0.026,0.247,0,.187.467,0.19v-0.19H68.131Zm0.841,0v0.19h0.374a0.336,0.336,0,0,1,.187-0.1V23.872H68.972Zm-39.533,1.14h0.374a2.07,2.07,0,0,0,.374.855V25.393c-0.172-.222-0.32-0.544-0.467-0.76,0.238-.138.105,0.021,0.187-0.285-0.195-.13-0.313-0.274-0.374-0.285H29.439A8.843,8.843,0,0,1,29.439,25.012Zm32.9-1.046v0.19h1.589v-0.19H62.336Zm2.71,0c0.161,0.084.12,0.085,0.28,0h-0.28Zm-62.8.1a1.416,1.416,0,0,1,.187.665H2.243a0.327,0.327,0,0,0-.093-0.19Zm8.037,0.095v0.38h0.748V24.062Zm10.561,0.38v0.475h0.467V24.537H20.841Zm-0.28.1v0.19h0.093v-0.19H20.561Zm0.841,0.1v0.19H21.5A0.327,0.327,0,0,0,21.4,24.727Zm15.047,0v0.76h0.187v-0.76H36.449Zm-26.168.095v0.19h0.748v-0.19H10.28Zm19.907,0a2.8,2.8,0,0,0,.187.76,1.9,1.9,0,0,1,1.028-.095c0.168,0.057.308,0.5,0.467,0.285a1.882,1.882,0,0,0,.654-0.855H32.43v-0.1H30.187Zm-27.57.19V25.2H2.71v-0.19H2.617Zm0.187,0c0.4,0.438,2.316.208,3.084,0.19v-0.1C4.822,25.112,3.745,25.041,2.8,25.012Zm3.271,0.095a3.405,3.405,0,0,0,1.963,0H6.075Zm2.243,0a3.433,3.433,0,0,0,1.776.19v-0.19H8.318Zm2.243,0a0.335,0.335,0,0,0,.187.1A0.335,0.335,0,0,0,10.561,25.107Zm1.963,0V25.3H12.71v-0.19H12.523Zm0.28,0V25.3h1.028V25.2H13.738v-0.1A1.981,1.981,0,0,1,12.8,25.107Zm8.692,0a1.348,1.348,0,0,0,.187.76A1.346,1.346,0,0,0,21.5,25.107Zm14.112,0.76v-0.76H34.3a3.306,3.306,0,0,1-.28.285h0.093l0.28,0.475A9.149,9.149,0,0,1,35.608,25.868Zm0.093-.76a0.622,0.622,0,0,0,.094.38A0.622,0.622,0,0,0,35.7,25.107Zm0.187,0a0.623,0.623,0,0,0,.093.38A0.622,0.622,0,0,0,35.888,25.107Zm-15.047.1a0.488,0.488,0,0,0,.561,0H20.841Zm7.383,0v0.665h0.187v-0.1A1.044,1.044,0,0,0,28.5,25.2h-0.28ZM2.617,25.3c0.161,0.084.119,0.085,0.28,0H2.617Zm2.15,0.285V25.3a4.412,4.412,0,0,0-1.776.1C3.849,25.414,3.97,25.563,4.766,25.583Zm1.122-.19c0.077,0.308-.046.145,0.187,0.285,0.08-.186.129-0.045,0.467-0.19V25.393H5.888Zm1.028,0c-0.3.079-.143-0.047-0.28,0.19H6.822a0.268,0.268,0,0,0,.093.1V25.393Zm-4.206.19a1.1,1.1,0,0,0,.935,0H2.71Zm18.692,0a0.464,0.464,0,0,0,.093.285A0.465,0.465,0,0,0,21.4,25.583ZM3.832,28.529a1.08,1.08,0,0,0,.28.19A0.361,0.361,0,0,0,3.832,28.529Zm1.682,1.236V28.814l-0.748-.095v0.095A0.692,0.692,0,0,1,5.14,29.86H5.234A0.472,0.472,0,0,1,5.514,29.765ZM6.449,29l-0.561-.1V29.1a1.165,1.165,0,0,0,.28.57,0.8,0.8,0,0,0,.187-0.285A0.649,0.649,0,0,0,6.449,29Zm0.374,0.1v0.38a1.979,1.979,0,0,0,.654.1,3.578,3.578,0,0,0,1.4-.1Z" transform="translate(0 0.5)"/>
</svg>
