<svg xmlns="http://www.w3.org/2000/svg" width="80" height="40" viewBox="0 0 80 40">
  <defs>
    <style>
      .cls-1 {
        fill: #fff;
        fill-rule: evenodd;
      }
    </style>
  </defs>
  <path id="Color_Fill_1" data-name="Color Fill 1" class="cls-1" d="M56.2,17.692a3.32,3.32,0,0,0-.8.1v0.41a1.518,1.518,0,0,1,.2,1.026,0.648,0.648,0,0,0,.5,0h0.2a0.543,0.543,0,0,1,.1-0.718c0.06-.023.561-0.057,0.8-0.1,0-.4-0.05-0.462.2-0.615a0.6,0.6,0,0,0,.1.615c0.536-.354,1.216.08,1.6-0.1,0.074-.035.076-0.466,0.2-0.205a1.264,1.264,0,0,1,.4.41,0.971,0.971,0,0,0,0,.821H59.3v1.231a1.032,1.032,0,0,0,.6-0.1,0.34,0.34,0,0,1-.2-0.1c0.388-.2-0.079-0.239.5-0.308,0.1-.14.064,0.029,0.3,0.1a1.692,1.692,0,0,1,.3-0.513h0.1v0.1a0.619,0.619,0,0,1,.2.205c-0.291-.006-0.139-0.1-0.3,0a0.705,0.705,0,0,0-.1.41,0.476,0.476,0,0,0,.3-0.1c0.068-.079.131-0.229,0.2-0.308v0.1a0.373,0.373,0,0,1,.1.205,0.9,0.9,0,0,0-.3.308,0.926,0.926,0,0,1,.7,0c-0.059.352-.207,0.415,0.1,0.615a8.28,8.28,0,0,0,1.1-.1,2.973,2.973,0,0,1-.7-0.1v-0.1a0.532,0.532,0,0,0,.1-0.308c0.577-.088.256-0.173,0.5-0.308h0.9a1.781,1.781,0,0,1,.3.41c0.553,0.322,1.438-.115,1.9.205-0.516-.027-1.4-0.125-1.6.205h1a2.059,2.059,0,0,1,0,.615,2.737,2.737,0,0,1-1.5.41v0.718a1.516,1.516,0,0,0,.8-0.1c-0.274-.165-0.1.005-0.1-0.41A5.176,5.176,0,0,1,65.9,22c0.523,0.788,1.515.218,2.1,0.615a7.99,7.99,0,0,0-1.6.1v0.1h1c0.766-.383,2.534-0.1,3.7-0.1l6.3-.205a0.675,0.675,0,0,1,.1-0.41c0.042,0.367-.047.258,0.2,0.41a4.232,4.232,0,0,1,1.7,0,0.505,0.505,0,0,0,.6.41v0.41c-1.937.728-2.256,3.534-3.1,5.436a204.225,204.225,0,0,1-21.7.82v0.205h0.1c0.1,0.1-.1.1-0.1,0.1a0.847,0.847,0,0,1-.5.1c-0.247-.684-3.055-0.427-4.3-0.41-0.585.369-2.286,0.1-3.1,0.1H39.4L11,30a3.819,3.819,0,0,0-.9-0.923c-1.393-.009-2.523.177-3.8,0.205v0.513H6.2v0.1a0.843,0.843,0,0,1-.4-0.308c-0.083.333,0.049,0.157-.2,0.308a1.159,1.159,0,0,0-.4-0.923H5.5a2.879,2.879,0,0,1,.1-0.923H5.4a0.5,0.5,0,0,0-.3-0.1,2.008,2.008,0,0,1-.6,1.846H3a0.708,0.708,0,0,0-.4-0.205,3.862,3.862,0,0,1-.7-1.846,6.809,6.809,0,0,0,.8-0.41,1.245,1.245,0,0,1-1.2-.923c0.38-.4.751-1.77,1-1.846V24.256l2.2,0.1a2.614,2.614,0,0,1,.2-0.513c0.042,0.367-.047.258,0.2,0.41a21.464,21.464,0,0,0,4.9,0,6.088,6.088,0,0,0-1.7,0v-0.41H8.5a2.413,2.413,0,0,0,1.7.1,2.909,2.909,0,0,1,.3-0.41c0.695-.265.932,0.277,1.5,0.308a0.654,0.654,0,0,1-.2.513h0.7V23.744H12.3c-0.231-.153-0.939-0.21-1.4-0.41a2.258,2.258,0,0,0,.1-0.718,2.054,2.054,0,0,0,1-.1H10.4V22.308h1.9a2.663,2.663,0,0,1,.2-0.41c0.623-.279,1.021.256,1.5,0.308a0.288,0.288,0,0,1-.1.1L14,22.615a1.565,1.565,0,0,0-.6.205h1.4L14.9,22h1.7l0.1,0.615h0.7a0.868,0.868,0,0,0-.3-0.718c0.493-.044.316-4.065,0.3-5.128a1.232,1.232,0,0,1-.7-1.231,12.487,12.487,0,0,0,1.8-.821c0.227-.3-0.253-0.3.2-0.615,0.054,0.45.042,0.463,0.5,0.513l12-.82,9-1.026c2.116-.511,4.4-0.477,6.6-1.026a68.22,68.22,0,0,1,7.3-1.231c-0.043-.361-0.2-0.31.1-0.513,0.091,1.605,2.463,2.561,2.6,4.308a4.432,4.432,0,0,0-1.3,2.667h0.2a1.153,1.153,0,0,1,0-.718,1.389,1.389,0,0,1,.4-0.1v0.205a0.627,0.627,0,0,1,0,.615c0.455,0.039.516,0.1,0.6,0.513-0.586.2-.234,0.554-0.5,1.026v-0.82Zm-3.1-6.872c-0.62.392-1.61,0.208-2.4,0.41-2.169.556-4.512,0.56-6.8,1.128-2.235.555-4.907,0.584-7.2,1.128l-2.9.205c-1.74.4-3.88,0.1-5.7,0.513-0.864.2-1.912-.018-2.9,0.205a30.408,30.408,0,0,1-6,.41v0.1h0.1v0.1a9.425,9.425,0,0,0,2.7,0c2.3-.049,4.549-0.308,6.7-0.513,4.142-.394,8.409-0.51,12.2-1.436,1.59-.389,3.243-0.356,4.7-0.718,2.733-.678,5.6-0.51,8.1-1.436v-0.1H53.1Zm0.8,0.1a1.35,1.35,0,0,0,.1,1.436A3.447,3.447,0,0,0,53.9,10.923Zm0.7,1.744a1.266,1.266,0,0,1,.7.1,0.634,0.634,0,0,0-.4.1,13.334,13.334,0,0,1,1.4.718v-0.1c-0.793-.591-1.114-2.02-2-2.462v0.1A4.567,4.567,0,0,1,54.6,12.667Zm-1.1-1.026v-0.41H53.4a8.2,8.2,0,0,1-2.2.41c-2.271.6-4.8,0.635-7.2,1.231-2.277.566-4.963,0.579-7.3,1.128l-1.8.1c-1.813.424-4,.182-5.9,0.615-1.136.258-2.44,0.023-3.7,0.308a30.554,30.554,0,0,1-5.3.41v0.1h0.2c0.564,0.37,1.781,0,2.5,0,2.148-.014,4.341-0.391,6.4-0.513a41.577,41.577,0,0,0,6.7-.718c1.868-.433,3.782-0.3,5.5-0.718,1.655-.4,3.171-0.212,4.8-0.615,1.32-.327,2.782-0.348,4.2-0.718A16.69,16.69,0,0,1,53.5,11.641Zm0.1,0.615a1.325,1.325,0,0,0-.1-0.41l-9,1.641c-1.678.42-3.408,0.337-5,.718-1.952.467-4.029,0.279-5.9,0.718l-2.1.1c-1,.229-2.167.05-3.3,0.308a37.791,37.791,0,0,1-7.5.513v0.205h0.2c0.548,0.36,1.713.007,2.4,0l6.2-.41,10.3-1.128c2.052-.486,4.276-0.4,6.4-0.923Zm0,0.205c-0.6.38-1.54,0.21-2.3,0.41-2.139.564-4.5,0.567-6.8,1.128-2.382.582-5.161,0.555-7.6,1.128l-1.8.1c-1.574.365-3.415,0.13-5.1,0.513a45.12,45.12,0,0,1-8.6.615v0.1h0.1c0.511,0.337,1.606.012,2.2,0l5.7-.41c1.349-.309,2.862-0.077,4.3-0.41,1.13-.262,2.471-0.119,3.7-0.41,3.237-.767,6.845-0.765,10-1.539,1.5-.367,5.6-0.413,6.5-1.128ZM54,17.487h0.5v-0.1a16.214,16.214,0,0,1-.3-2.359l0.1-.615-0.3-.1c-0.2-.4.1-1.11-0.1-1.436a8.543,8.543,0,0,1-1.7.41l1.1,3.795a1.242,1.242,0,0,1,.4.1,2.3,2.3,0,0,0-.1,1.128h0.2v-0.82c0.327-.55.058-1.615,0.4-2.154Zm-2-4.205c-0.517.037-1.685,0.122-1.9,0.513,0.8,0.678,1.553,3.362,2.6,3.487a0.662,0.662,0,0,1,.4-0.1v-0.1A14.075,14.075,0,0,1,52,13.282Zm3.5,0.923v1.436h0.1v-0.1a6.339,6.339,0,0,0,.9-1.436,0.634,0.634,0,0,1-.4-0.1,0.476,0.476,0,0,0,.3-0.1,4.144,4.144,0,0,1-1.2-.615v0.205c-0.167.29-.043,0.3,0.1,0.513a1.4,1.4,0,0,0-.5.1v0.1a0.476,0.476,0,0,1,.3.1c-0.345.216-.141,0.74-0.1,1.231,0.259,0.028.178-.048,0.2,0.41a0.532,0.532,0,0,0-.1.308h0.1v-0.1a3.827,3.827,0,0,0,0-2.051H56v0.1H55.5Zm-24.6,8.1L31,23.026h0.6v-0.41a0.38,0.38,0,0,0,.3-0.205H32a1.058,1.058,0,0,0,.4.615,1.969,1.969,0,0,1,1.2,0l0.3-1.949c0.008-.272-0.345-0.891-0.4-1.333h0.1v-0.1h0.1a0.5,0.5,0,0,0,.1.308,2.583,2.583,0,0,1,1.4-.513,1.4,1.4,0,0,0,.3.923c0.825-.531,2.245-0.251,3.3-0.513,2.842-.706,6.025-0.918,8.8-1.641,0.92-.24,4.062-0.439,4.4-1.026-0.754-.8-1.543-3.47-2.8-3.487a7.535,7.535,0,0,1-2,.308c-1.694.42-3.576,0.377-5.4,0.82-2.032.494-4.423,0.443-6.5,0.923l-1.9.1c-1.664.382-3.624,0.111-5.4,0.513a32.1,32.1,0,0,1-5.9.513v0.1h0.1a24.719,24.719,0,0,0,3.9,2.667,9.956,9.956,0,0,0,2.2,1.539v-0.1a0.618,0.618,0,0,1-.2-0.205,1.147,1.147,0,0,0,.3-0.513,0.476,0.476,0,0,1-.3-0.1h0.2a3.514,3.514,0,0,1,1.3-.615c0.1,0.818.485,1.533,0.7,2.667h0.6Zm-12.6-7.18a2.948,2.948,0,0,1-1.2.615,0.358,0.358,0,0,0,.2.1,2.34,2.34,0,0,0,1.1.513V15.539C18.536,15.291,18.542,15.284,18.3,15.128Zm0.5,0L19,16.462h0.2l0.1-.718A2.426,2.426,0,0,0,18.8,15.128Zm0.6,0.308a0.38,0.38,0,0,0,.4.308v-0.1A1.492,1.492,0,0,0,19.4,15.436Zm35.2,0.1v0.205h0.1A0.355,0.355,0,0,0,54.6,15.539Zm-35.1.41v0.308h1v-0.1A1.734,1.734,0,0,0,19.5,15.949Zm-0.9.1v0.513h0.2V16.359C18.732,16.28,18.669,16.13,18.6,16.051Zm36,0a3.313,3.313,0,0,0,.2,1.436A1.632,1.632,0,0,0,54.6,16.051Zm-37.3.205v0.205h0.1V16.256H17.3Zm0.3,0.205v0.308a2.746,2.746,0,0,0,.7.513V16.769A3.726,3.726,0,0,0,17.6,16.462Zm1.9,0-0.1.308h0.9c0.186-.117.716-0.085,0.9-0.205A9.4,9.4,0,0,0,19.5,16.462Zm-0.4.41a0.5,0.5,0,0,0,.1.308V16.872H19.1Zm0.3,0.205c-0.031,2.017.255,3.64,0.4,5.539h0.5v-0.1h0.1c-0.039-.3-0.164-0.128.1-0.308v0.41h0.3c0.048,0.428.105,0.481,0.1,0.615a5.215,5.215,0,0,1-.4.41,0.5,0.5,0,0,0-.3-0.1,1.333,1.333,0,0,1-.2.821,6.33,6.33,0,0,0,2.4,0v-0.1a5.338,5.338,0,0,1-1.6-.205,0.532,0.532,0,0,1-.1-0.308,0.34,0.34,0,0,0,.2-0.1,12.738,12.738,0,0,0,2.9.1,4.253,4.253,0,0,0,1.7-.1c-0.822-.145-4.015-0.092-4.5-0.41l4.3,0.205a0.84,0.84,0,0,1,0-.41,2.62,2.62,0,0,0,1.2-.1,6.02,6.02,0,0,0-1.7-.1v-0.1l1.9-.1,0.1-.308a1.154,1.154,0,0,1,1.3.205l0.2-.923c-1.3-.759-2.5-1.8-3.7-2.667a19.155,19.155,0,0,1-3-2.051Zm-0.9-.1a2.484,2.484,0,0,0,.1.82h0.1v-0.82H18.5Zm-0.9.1c-0.014,1.038-.279,4.822.1,5.436l0.5-4.82C17.963,17.5,17.856,17.255,17.6,17.077ZM53.1,17.59a0.847,0.847,0,0,1-.5.1V17.9a4.35,4.35,0,0,1,.9,1.436h0.1V18.821C53.364,18.494,53.364,17.891,53.1,17.59Zm1.4,0H54a2.635,2.635,0,0,0-.1.821c-0.308.477,0.217,1.627,0.4,2.051a1.382,1.382,0,0,0,.4.1v-0.1A14.409,14.409,0,0,1,54.5,17.59Zm0.2,0v0.205h0.1V17.59H54.7Zm-8.3,1.333a3.051,3.051,0,0,0,.4,1.436c0.13-.253-0.043-0.07.2-0.205a3.309,3.309,0,0,0,.3,1.949,2.878,2.878,0,0,0,1,.205c0.239-.886.866-1.1,0.9-2.256a0.674,0.674,0,0,1-.2-0.615,1.029,1.029,0,0,1,.6-0.205,2.652,2.652,0,0,0,.8.615c-0.046-.41-0.115-0.375.2-0.615a5.959,5.959,0,0,1,1.3-.513,0.565,0.565,0,0,0,.3.615v0.1c-0.064.105-.217,0.021-0.1,0.1a1.66,1.66,0,0,0,1.4.718,3.842,3.842,0,0,0-1.4-2.462A26.636,26.636,0,0,1,46.4,18.923Zm8.5,0.41h0.4v-0.1a8.814,8.814,0,0,1-.3-1.436H54.9v1.538ZM18.4,21.385c-0.063-.927.073-0.378,0.3-0.923V18.205L18.4,18a12.222,12.222,0,0,1-.4,3.385h0.4Zm0.5-2.359a2.511,2.511,0,0,0,.1,1.128A2.511,2.511,0,0,0,18.9,19.026Zm19.3,4v0.41h4.9c0-.305-0.118-0.354.4-0.41a3.927,3.927,0,0,0,1.4,0l0.3-2.154c-0.056-.471-0.329-0.89-0.4-1.436h0.1v-0.1a1.65,1.65,0,0,0,1.3-.308l-7.6,1.333c-0.965.237-2.415-.036-3.1,0.513,0.357,0.609.192,1.528,0.6,2.051a1.06,1.06,0,0,0,.6.1V22.821a1.032,1.032,0,0,1-.6-0.1h0.1c0.415-.386,1.278-0.139,1.9-0.1v0.205a2.053,2.053,0,0,0-1,.1h0.1A2.085,2.085,0,0,0,38.2,23.026Zm17.1-3.282V19.436H54.9v0.205H55A0.5,0.5,0,0,0,55.3,19.744Zm2.4,0V19.436H57.1v0.205h0.2A0.661,0.661,0,0,0,57.7,19.744Zm-2.3-.205c0.166,0.114.107,0.181,0.2,0H55.4Zm1.5,0v0.205H57V19.539H56.9Zm-7.4.1c-0.047.505-.176,0.549-0.2,1.128a3.187,3.187,0,0,1,1,1.436h0.1V21.59a2.9,2.9,0,0,0,.2-1.231A7.151,7.151,0,0,1,49.5,19.641Zm10.3,0.205H60v0.1A0.341,0.341,0,0,1,59.8,19.846Zm-26,.205-0.1.308h0.1C33.806,20.061,33.9,20.217,33.8,20.051Zm19.8,0c0.083,0.333-.049.157,0.2,0.308V20.154Zm7.8,0h0.2v0.1A0.34,0.34,0,0,1,61.4,20.051Zm-8.9.513a5.485,5.485,0,0,0,.9,0h0.1v-0.1H53.4v-0.1l-0.9-.205v0.41Zm8.1,0V20.256H60.3v0.205H60.2v0.1h0.4Zm-7-.1v0.205H54v-0.1H53.9v-0.1H53.6Zm-1.1.308a7.961,7.961,0,0,0,.4,1.949h0.3l0.2-1.949H52.5Zm1,0a7.171,7.171,0,0,1-.3,2.154h0.7V22.308H53.5V22h1.2V20.872Zm-4.3.308c-0.146.488-.456,0.726-0.6,1.231H49a2.486,2.486,0,0,1,1,0V22.1C49.662,21.818,49.566,21.342,49.2,21.077Zm5.1,0.205a0.42,0.42,0,0,1,0,.513V21.282Zm7.3,0v0.41h0.2c0.464-.226,1.193.159,1.6-0.1H62.9c0-.326.12-0.247-0.3-0.308A8.977,8.977,0,0,1,61.6,21.282Zm-11,.923c0.325-.085.153,0.05,0.3-0.205-0.078-.122-0.12-0.494-0.2-0.615Zm29.3-.513A0.532,0.532,0,0,1,80,22H79.8Zm-63,.1h0.2a1.833,1.833,0,0,1-.2.41v-0.41Zm2.5,1.436a3.681,3.681,0,0,0-.2-1.436,1.339,1.339,0,0,1-.2.821c0.3,0.173.2,0.327,0.1,0.615h0.3Zm-19.3.41L0,22.205A10.568,10.568,0,0,0,2.5,21.9v0.82a1.947,1.947,0,0,1,.1.923H2.5C2.034,23.331.811,23.623,0.1,23.641Zm17.8-1.026h0.7v-0.1h0.1V22.205a0.587,0.587,0,0,0-.4.205A0.522,0.522,0,0,0,18,21.9ZM74.3,22.1a0.531,0.531,0,0,1,.1.308H74.3V22.1Zm-54.4.1a0.532,0.532,0,0,1,.1.308H19.9V22.205Zm25.3,0v0.82h0.2V22.308Zm25.7,0a0.373,0.373,0,0,1,.1.205H70.9V22.205Zm-6.9.1a0.532,0.532,0,0,1,.1.308H64V22.308Zm-10.5.1a0.305,0.305,0,0,1,0,.41V22.41Zm-25.1.1a0.5,0.5,0,0,0,.1.308V22.513H28.4Zm5.7,0.513a1.5,1.5,0,0,0-.1-0.513H33.9l-0.1.513h0.3Zm-20.8-.1-0.1.308h0.1a11.49,11.49,0,0,1,1.4,0l0.1-.308H14.1A6.15,6.15,0,0,1,13.3,22.923Zm15,0c0.038,0.268-.074.134,0.2,0.205V22.923H28.3Zm20.4,0.1a0.518,0.518,0,0,0,.6,0H48.7Zm1.1,0a0.287,0.287,0,0,0,.4,0H49.8Zm0.7,0a0.394,0.394,0,0,0,.5,0H50.5Zm-22.7.205c0.021,0.144-.082-0.041-0.1.1-0.192.079,0.2,0.1,0.2,0.1A0.355,0.355,0,0,0,27.8,23.231Zm0.4,0v0.308h0.4a0.351,0.351,0,0,1,0-.308H28.2Zm20.8,0v0.205h0.3V23.231H49Zm0.6,0a0.567,0.567,0,0,0,.6.205V23.231H49.6Zm1.3,0a0.675,0.675,0,0,0,.1.41A0.675,0.675,0,0,0,50.9,23.231Zm-7.5.1a0.358,0.358,0,0,0,.2.1A0.358,0.358,0,0,0,43.4,23.333Zm-4.4.205a0.358,0.358,0,0,1-.2.1v0.1h1.7V23.539H40.3A2.377,2.377,0,0,1,39,23.539Zm1.8,0c0.348,0.392,1.8.225,2.5,0.205v-0.1A9.143,9.143,0,0,0,40.8,23.539Zm2.8,0a0.39,0.39,0,0,0,.2.308v0.1h0.1V23.744C43.7,23.592,43.956,23.6,43.6,23.539Zm-5.5.923c0.566,0.026,1.774.158,2-.205a5.338,5.338,0,0,1-1.6-.205,0.373,0.373,0,0,1-.1-0.205,0.619,0.619,0,0,0,.2-0.205H38.3a0.358,0.358,0,0,1-.2.1v0.718ZM26,23.744l0.1,0.308h0.1A0.39,0.39,0,0,0,26,23.744Zm-23.5.1a0.531,0.531,0,0,1,.1.308H2.4Zm23.6,0.615V24.154a8.708,8.708,0,0,0-2.3-.205,0.39,0.39,0,0,1-.2.308v0.1h0.1A7.433,7.433,0,0,0,26.1,24.462Zm17.8,0a0.5,0.5,0,0,0-.1-0.308,0.666,0.666,0,0,0-.5-0.205c0.039,0.3.164,0.129-.1,0.308V23.949a2.834,2.834,0,0,0-2.1.41C42.022,24.466,43.028,24.427,43.9,24.462Zm-20.6-.205a0.358,0.358,0,0,0,.2.1A0.358,0.358,0,0,0,23.3,24.256Zm-18.1.205a0.358,0.358,0,0,0,.2.1A0.358,0.358,0,0,0,5.2,24.462Zm1.6,0a0.287,0.287,0,0,0,.4,0H6.8Zm0.5,0a0.659,0.659,0,0,0,.7,0H7.3Zm1.5,0a0.814,0.814,0,0,0,.8,0H8.8Zm0.9,0a0.358,0.358,0,0,0,.2.1A0.358,0.358,0,0,0,9.7,24.462Zm-6.9.1c0.043,0.036.241,0.369,0.3,0.1A1.019,1.019,0,0,0,2.8,24.564Zm22,0a0.358,0.358,0,0,0,.2.1A0.358,0.358,0,0,0,24.8,24.564Zm0.9,0c0.172,0.09.128,0.091,0.3,0H25.7Zm12.5,0c0.172,0.09.128,0.091,0.3,0H38.2ZM6.7,28.769V28.256l-0.7-.1v0.1A0.763,0.763,0,0,0,6.7,28.769Zm0.9-.308v0.205a1.267,1.267,0,0,0,.7-0.1A2.968,2.968,0,0,1,7.6,28.462Zm69,0.1a0.358,0.358,0,0,0,.2.1A0.358,0.358,0,0,0,76.6,28.564Z"/>
</svg>
