<svg xmlns="http://www.w3.org/2000/svg" width="80" height="40" viewBox="0 0 80 40">
  <defs>
    <style>
      .cls-1 {
        fill: #fff;
        fill-rule: evenodd;
      }
    </style>
  </defs>
  <path id="Color_Fill_1" data-name="Color Fill 1" class="cls-1" d="M54.707,10c0.082,0.179.045,0.07,0,.286h-0.1Zm-0.1.381a0.364,0.364,0,0,1,.1.476h-0.1V10.381Zm0.287,2.1h0.287c0.079-.309-0.047-0.146.192-0.286v0.381c-0.293.254,0.016,0.111,0.1,0.762H55.186V15.81a2.279,2.279,0,0,0,.767-0.1V15.9H55.473a0.491,0.491,0,0,1-.288.1,3.976,3.976,0,0,0,.288,2.1V17.524a8.037,8.037,0,0,1,1.629-.191c0.039,0.25.154,0.206,0.671,0.191,0.324,0.192.965,0.072,1.245,0.286h-0.1a0.89,0.89,0,0,0-.192.762l-0.575.1v0.1a0.484,0.484,0,0,1,.1.286h0.767V18.381a8.989,8.989,0,0,1,1.054,0v0.667h0.1c0.226-.2.153-0.038,0.671,0-0.038.659-.17,0.653-0.192,1.429h0.1a1.357,1.357,0,0,1,1.15-.191v0.1h0.1a3.1,3.1,0,0,0,.1.667,2.337,2.337,0,0,0,1.054.1V20.952a0.639,0.639,0,0,0,.1-0.381l1.245,0.1c0.379,0.648,1.463.51,2.491,0.476v0.1a5.5,5.5,0,0,0-2.2.191h0.862V22.1h0.288V21.429A1.952,1.952,0,0,1,67.353,22c-0.624.02-.782,0.192-0.767,0.857l1.15-.1a3.585,3.585,0,0,0,0-.857h0.575c0.175,0.113.527-.023,0.766,0.1l0.192,0.381h2.2v0.19H69.365v0.191h1.15l9.389-.476a2.823,2.823,0,0,1,.1-1.238c0.06,3.2-.949,5.393-1.341,8.286l-61.7.1c-0.568-.154-1.361-0.51-2.012-0.667a3.044,3.044,0,0,0-1.15.1l-2.97.1a6.834,6.834,0,0,1-2.012.286A2.754,2.754,0,0,1,8.623,30H8.431c-0.086-.353-0.207-0.414-0.287-0.762a6.936,6.936,0,0,1-2.2-.191,8.1,8.1,0,0,1-.192-1.619H4.12a0.834,0.834,0,0,1-.479.1c-0.232-.836-1.324-1.842-1.15-2.667H2.4v0.1c-0.074.183-.1-0.191-0.1-0.191a4.952,4.952,0,0,0-.766-1.333l0.1-.191h-0.1A5.122,5.122,0,0,1,.287,23.9L0,23.143a1.512,1.512,0,0,0,1.054-.762h0.1v-0.1h-0.1v0.1c-0.074.183-.1-0.191-0.1-0.191A0.343,0.343,0,0,0,1.054,22a0.343,0.343,0,0,1,.1.191c0.374,0.411,1.076,2.388,1.341,2.571H7.473v0.1a1.719,1.719,0,0,0-1.341.191H7.377c0.365-.21.836-0.007,1.054-0.381a3.167,3.167,0,0,0-.958-0.1,15.967,15.967,0,0,1-3.449,0c-0.667-.1-1.1.219-1.533-0.1h0.1v-0.1c1.75,0.6,5.5-.243,6.994.1,0.572,0.13,2.466.128,2.683-.191h-2.2V24.1a8.44,8.44,0,0,0,2.3-.1V23.714a4.532,4.532,0,0,0,1.82-.286c0.137-.066.327-0.419,0.479-0.476,0.276-.1,1.173.229,1.533,0H14.755V22.762h2.2c0.1-.373.109-0.366,0.575-0.381a2.231,2.231,0,0,1,.958-0.191v0.191a1.391,1.391,0,0,0,0,.571h0.862a0.346,0.346,0,0,0,.192.1V22.857c-0.2-.324.225-0.4-0.383-0.476V22h0.479c0,0.318-.065.3,0.479,0.286V22H20.79V21.524c0.378-.17.717-0.5,1.15-0.667v0.1h0.1a1.2,1.2,0,0,0-.287.667c0.272-.03.2-0.1,0.383,0a2.972,2.972,0,0,0-.479.286h0.1a1.908,1.908,0,0,0,1.629-.1,0.753,0.753,0,0,0,.1-0.381,35.832,35.832,0,0,0,3.257-2.476V17.81h0.192a2.123,2.123,0,0,1,1.054-.286c0.1,0.35.063,0.335,0.479,0.381a8.552,8.552,0,0,1,2.108-.286c1.338-.319,2.808-0.306,4.215-0.667,2.41-.617,4.96-0.844,7.377-1.524A32.007,32.007,0,0,1,47.713,14v0.1a35.3,35.3,0,0,0-5.461,1.429c-2.135.606-4.2,0.67-6.419,1.238A41.028,41.028,0,0,1,28.072,18a42.933,42.933,0,0,0-.1,4.476,0.465,0.465,0,0,1,.288.1c-0.456.195-.317,1.273-0.288,1.9a2.874,2.874,0,0,0,1.246-.1,6.646,6.646,0,0,0-1.054-.191V23.81a1.89,1.89,0,0,1,.671-0.286,17.474,17.474,0,0,0,2.874.191,3.226,3.226,0,0,1,.1-0.762,0.664,0.664,0,0,1,1.054.381,0.528,0.528,0,0,0,0,.381H34.4V23.9a12.28,12.28,0,0,0-2.874.476h0.1a18.4,18.4,0,0,0,3.353.1,3.894,3.894,0,0,0,.1-1.143H33.533a1.342,1.342,0,0,1-.1-0.381,2.8,2.8,0,0,0,.383-0.667,1.307,1.307,0,0,0,1.054.191c0.041-.073-0.084-0.551-0.1-0.952h0.671V21.048l0.671-.1v0.571h1.82a0.794,0.794,0,0,1,.1-0.476v0.476h0.575V21.238a1.221,1.221,0,0,0,.383-0.1v0.381h0.479a11.91,11.91,0,0,1,.1-2.19l2.012-.381a17.306,17.306,0,0,1,.192,2.762c0.652-.162.733,0.068,0.671,0.857,0.217-.038.1-0.087,0.287,0-0.31.194-.212,0.864-0.192,1.524a2.484,2.484,0,0,0,1.437.381v-0.1c-0.472-.045-0.513-0.168-1.054-0.191V23.714a25.1,25.1,0,0,1,3.545,0,0.56,0.56,0,0,1,.383-0.857,0.5,0.5,0,0,1,.479,0c0.271,0.7.28,0.91,1.341,0.857,0.295-.444.648,0.034,0.862-0.286H48.671a1.028,1.028,0,0,1,.383-0.952,0.833,0.833,0,0,0,.479.1,9.846,9.846,0,0,0,.192-1.333h0.958c0.151-.146.228,0.072,0.383,0.191V20.286a3.161,3.161,0,0,1,0-1.9,8.7,8.7,0,0,0,2.2-1.524,0.329,0.329,0,0,1,.192.1c0.7,0.574.432,2.8,0.958,3.143a0.648,0.648,0,0,0,.383.1l-0.1-2a0.622,0.622,0,0,1-.383-0.1h0.287a13.08,13.08,0,0,0-.192-2.857c0.248-.026.17,0.044,0.192-0.381a9.6,9.6,0,0,1-.287-2.1,1.942,1.942,0,0,0-.671.1V12.476h0.1v-0.1H53.94c0,0.3-.136.178,0.192,0.286,0.14-.24.12-0.174,0.479-0.191V12h-0.1a5.4,5.4,0,0,1-2.012.476c0.575-.051,1.916-0.4,2.108-0.857-0.244-.139-0.108.021-0.192-0.286a2.031,2.031,0,0,1,.383-0.381A3.807,3.807,0,0,0,54.9,12.476Zm0.1-.571h0.192V12A0.33,0.33,0,0,1,54.994,11.9ZM55.186,12l0.479,0.1v0.1H55.377C55.306,12.107,55.257,12.083,55.186,12Zm-1.15.191h0.192v0.1h-0.1C54.066,12.3,53.946,12.291,54.036,12.191Zm1.629,0h0.192v0.1A0.329,0.329,0,0,1,55.665,12.191Zm0.192,0.1a3.708,3.708,0,0,1,.671.191v0.1H56.24C56.127,12.462,55.968,12.4,55.856,12.286Zm-3.736.286a0.621,0.621,0,0,1,.383.1c-0.5.076-1.124,0.511-1.533,0.286A2.4,2.4,0,0,0,52.12,12.571Zm1.245,0A3.569,3.569,0,0,1,53.749,14a15.878,15.878,0,0,1,.862,3.714h-0.1L54.228,16.1c-0.258-.04-0.21-0.236-0.192-0.762A10.152,10.152,0,0,1,53.365,12.571Zm1.054,0a0.458,0.458,0,0,0,.1.286A0.46,0.46,0,0,0,54.419,12.571Zm0.383,0.1v0.667h0.192V12.667H54.8Zm-1.054.19a0.484,0.484,0,0,1,.1.286h-0.1V12.857Zm-3.162.19a0.622,0.622,0,0,1,.383.1c-0.565.082-1.449,0.635-1.916,0.381A3.5,3.5,0,0,0,50.587,13.048Zm3.258,0.1a0.277,0.277,0,0,1,0,.381V13.143ZM54.9,13.429a1.488,1.488,0,0,0-.1.476h0.1V14h0.1A1,1,0,0,0,54.9,13.429Zm-0.958.1a0.559,0.559,0,0,1,.1.667Zm-5.269.1a0.622,0.622,0,0,1,.383.1,2.391,2.391,0,0,1-1.341.191A1.918,1.918,0,0,0,48.671,13.619Zm6.9,0a1.863,1.863,0,0,1,.192.381H55.569V13.619ZM54.323,14a0.381,0.381,0,0,1,0,.476V14Zm-0.192.191a1.932,1.932,0,0,1,.287,1.048h-0.1V15.048A1.782,1.782,0,0,1,54.132,14.191Zm0.671,0a8.015,8.015,0,0,0,.192,1.428A1.951,1.951,0,0,0,54.8,14.191Zm-0.287,1.238a1.677,1.677,0,0,0,.192.381C54.667,15.469,54.752,15.57,54.515,15.429ZM54.9,16.191a1.726,1.726,0,0,0,.1.857A1.726,1.726,0,0,0,54.9,16.191Zm-0.958.1a0.381,0.381,0,0,1,0,.476V16.286Zm-0.1.571a0.381,0.381,0,0,1,0,.476V16.857Zm-25.964.286a0.483,0.483,0,0,1,.1.286h-0.1V17.143ZM54.9,17.333a1.47,1.47,0,0,0,.1.762A1.469,1.469,0,0,0,54.9,17.333Zm-27.114.286a2.942,2.942,0,0,1-.958.286v0.857h0.1C27.186,18.456,28.065,18.128,27.784,17.619Zm-0.958,5.333H27.5c0.477-.778.3-2.579,0.287-3.809a2.1,2.1,0,0,1,0-.762H27.593c-0.338.415-.725,0.389-0.767,1.143C26.856,19.544,26.839,22.207,26.826,22.952Zm28.168-4.571a1.47,1.47,0,0,0,.1.762A1.469,1.469,0,0,0,54.994,18.381Zm0.287,0.286v1.81h0.192V19.048C55.411,18.966,55.345,18.748,55.281,18.667ZM27.5,19.143h0.192v0.1A0.33,0.33,0,0,1,27.5,19.143Zm-3.928,3.238H22.8a5.612,5.612,0,0,1,0,1.238h0.192c0.018-.745.514-0.623,1.245-0.571L24.335,22h1.437v0.571H25.389v0.286a9.724,9.724,0,0,0,1.054.381,0.346,0.346,0,0,1,.192-0.1c-0.037-.761.061-3.234,0.1-3.9H26.539c-0.256.352-1.663,1.226-1.437,1.429a4.046,4.046,0,0,0-1.437.952v1.238h-0.1V22.381Zm3.736-3.143H27.5v0.1A0.328,0.328,0,0,1,27.305,19.238Zm27.689,0.476a1.47,1.47,0,0,0,.1.762A1.469,1.469,0,0,0,54.994,19.714ZM25.964,20h0.192v0.1A0.328,0.328,0,0,1,25.964,20Zm-0.192.1h0.192v0.1A0.329,0.329,0,0,1,25.773,20.1Zm34.3,0.381a1.2,1.2,0,0,1,.1-0.381h-1.15a1.084,1.084,0,0,1-.862,0v0.1c0.089,0.181.036,0.111,0,.381h0.479A3.489,3.489,0,0,1,60.072,20.476Zm-5.844-.286v0.571h0.1a0.733,0.733,0,0,1,.287-0.286A2.453,2.453,0,0,0,54.228,20.191Zm-28.934.191h0.192v0.1A0.33,0.33,0,0,1,25.293,20.381Zm36.695,0.857v0.191h1.245v-0.1h-0.1v-0.1h-1.15Zm-41.677.1a1.016,1.016,0,0,1,.575.1A1.016,1.016,0,0,1,20.311,21.333Zm-0.1.191a0.806,0.806,0,0,1,.479.1A0.805,0.805,0,0,1,20.216,21.524Zm30.85,0a1.726,1.726,0,0,0,.1.857A1.726,1.726,0,0,0,51.066,21.524Zm-0.958.1V21.81h0.1A0.326,0.326,0,0,0,50.108,21.619Zm0.192,0V21.81h0.1A0.326,0.326,0,0,0,50.3,21.619Zm0.192,0V21.81h0.1A0.326,0.326,0,0,0,50.491,21.619ZM67.353,21.81a0.465,0.465,0,0,1,.287.1A0.465,0.465,0,0,1,67.353,21.81Zm-32.287.381,0.1,0.381h0.192V22.286C35.081,22.284,35.316,22.361,35.066,22.191Zm7.76,0.1h0.192v0.191C42.756,22.406,42.843,22.545,42.826,22.286Zm36.5,0.1a6.314,6.314,0,0,1-1.533.1c-1.075.207-2.756-.045-4.12,0.286-0.557.135-1.282-.06-1.724,0.1v0.1h1.341a34.431,34.431,0,0,1,4.407-.286c0.723-.02,1.966.066,2.2-0.286H79.521C79.352,22.471,79.52,22.4,79.329,22.381Zm0,0.286c-0.4.261-1.555,0-1.725,0.19h-0.1v0.1h1.725a2.071,2.071,0,0,1,.575-0.1,0.343,0.343,0,0,0,.1-0.19A1.974,1.974,0,0,1,79.329,22.667Zm-51.545.1c0.02,0.133-.079-0.038-0.1.1-0.184.074,0.192,0.1,0.192,0.1A0.325,0.325,0,0,0,27.784,22.762Zm43.4,0a2.62,2.62,0,0,1-1.15.1v0.1h0.1v0.1a1.838,1.838,0,0,0,1.246-.286H71.186Zm-1.82.1v0.191h0.192v-0.1h0.1v-0.1H69.365Zm6.323,0c-0.247.148-.905,0.038-1.15,0.191h1.15a0.346,0.346,0,0,1,.192-0.1v-0.1H75.689Zm0.287,0a1.736,1.736,0,0,0,1.246,0H75.976Zm-9.485.1a1.242,1.242,0,0,0,1.341,0H66.491Zm7.186,0c-0.074.065-.214,0.125-0.287,0.191C73.534,23.117,73.966,23.036,73.677,22.952Zm0.383,0a0.346,0.346,0,0,0,.192.1A0.346,0.346,0,0,0,74.06,22.952Zm-2.778.1c-0.1.066-.383,0.123-0.479,0.191C71.3,23.267,71.495,23.333,71.281,23.048Zm1.533,0a0.346,0.346,0,0,0,.192.1A0.347,0.347,0,0,0,72.814,23.048Zm-2.491.1v0.19l0.287-.1v-0.1H70.323Zm-3.832.1a1.68,1.68,0,0,0,1.341,0H66.491Zm1.437,0a0.346,0.346,0,0,0,.192.1A0.346,0.346,0,0,0,67.928,23.238ZM14.467,24.476V23.9L13.8,23.524a4.178,4.178,0,0,1,0,.952h0.671Zm12.551,0,0.862-.1V23.714H27.4a1,1,0,0,1-.1.571l-0.1-.571H27.018v0.762Zm22.132-.762V23.9c-0.9.09-1.931,0.192-2.874,0.381v0.1h0.1c0.221,0.128,2.862-.022,3.162-0.667A0.77,0.77,0,0,1,49.15,23.714ZM29.6,24.381a0.346,0.346,0,0,0,.192.1A0.346,0.346,0,0,0,29.6,24.381Zm14.659,0c0.165,0.084.122,0.085,0.287,0H44.264Zm-34.683.19c0.06,0.333,1.881.207,2.587,0.191V24.571H11.593A8.534,8.534,0,0,1,9.581,24.571Zm4.216,0c0.039,0.25.154,0.206,0.671,0.191V24.571H14.275A1.051,1.051,0,0,1,13.8,24.571Zm-11.21.286v0.191h0.1V24.857h-0.1Zm2.2,0a1,1,0,0,0,.575.191V24.857H4.79Zm4.79,0v0.191c0.754,0.016,2.44.245,2.97-.1C11.4,24.872,10.72,24.869,9.581,24.857Zm4.216,0c-0.135.084-.537,0.1-0.671,0.191a1.767,1.767,0,0,0,1.341-.191H14.275A1.051,1.051,0,0,1,13.8,24.857ZM6.228,27.524c0.165,0.084.122,0.085,0.287,0H6.228Zm0.383,0.1a2.223,2.223,0,0,0,.671.191v-0.1A2.072,2.072,0,0,0,6.611,27.619Zm0.958,0.1c0.165,0.084.122,0.085,0.287,0H7.569Zm1.82,0.952L9.485,28,8.048,27.81v0.1h0.1a2.41,2.41,0,0,0,.862.857A0.649,0.649,0,0,1,9.389,28.667ZM9.772,28a2.883,2.883,0,0,1-.1.667h1.15a5.887,5.887,0,0,0,2.587-.191A12.146,12.146,0,0,1,9.772,28Z"/>
</svg>
