<svg xmlns="http://www.w3.org/2000/svg" width="80" height="40" viewBox="0 0 80 40">
  <defs>
    <style>
      .cls-1 {
        fill: #fff;
        fill-rule: evenodd;
      }
    </style>
  </defs>
  <path id="Color_Fill_1" data-name="Color Fill 1" class="cls-1" d="M56.067,8a2.853,2.853,0,0,0,.042.8h0.042a0.721,0.721,0,0,1,.167-0.713,0.489,0.489,0,0,1,.377,0L56.736,8.21a3.97,3.97,0,0,1,.084.63c-0.222,0-.271.015-0.335,0.168a1.813,1.813,0,0,1,.084.881h0.209V9.8a2.2,2.2,0,0,0,.084-0.336,0.54,0.54,0,0,1-.293-0.042,1.4,1.4,0,0,0,.5-0.042V9.469c-0.15.017-.105-0.02-0.167,0.084a2.2,2.2,0,0,0-.084.336h0.126A0.144,0.144,0,0,1,56.987,9.8V9.931a2.91,2.91,0,0,0-.921.294h1.381c-0.017-.1-0.038-0.046,0-0.126a0.434,0.434,0,0,0,.418.126,0.119,0.119,0,0,1-.042.042v0.042a2.563,2.563,0,0,0-1.046.042v0.042h0.544c0.078,0.048.3,0.035,0.377,0.084H56.067c0,1.012.04,2.111,0.042,3.148h0.167c0.072-.13.009-0.134,0.167-0.168-0.017.155-.014,0.091,0.084,0.21a0.214,0.214,0,0,0-.126.21,0.373,0.373,0,0,1,.126.126H56.109c0,1.319.041,2.736,0.042,3.987h0.042a0.66,0.66,0,0,1,.335-0.042,1.62,1.62,0,0,1,.084-0.294h0.251c0.253-.153.814,0,1.088-0.168,0.1,0.292.388,0.074,0.586,0.21H58.494a2.683,2.683,0,0,0-.125,1.343h0.544V14.3a7.475,7.475,0,0,1,.042-1.8v6.422h0.167c-0.011-.276.009-0.387,0.167-0.42a0.7,0.7,0,0,0,.042.42,0.54,0.54,0,0,1,.293.042H59.08v0.881h1.171v0.588h0.293a6.837,6.837,0,0,1,0,.755h0.669c0-.049.084-1.385,0.084-1.385a0.15,0.15,0,0,1,.084-0.042v0.084a2.788,2.788,0,0,0,.042,1.343c0.136,0.035.064-.02,0.125,0.084a3.854,3.854,0,0,1-.837.168H60.8a0.6,0.6,0,0,1,.293-0.126V21.263H60.544v0.252c0.092-.022.083-0.047,0.167,0H60.628a0.45,0.45,0,0,0-.084.336h0.042v0.042c-0.261,0-.3.027-0.293,0.294,0.114,0.073.017,0,0,.168L61.506,22.4a2.276,2.276,0,0,0,.042.881V23.152l0.377-.084V22.228h1a0.317,0.317,0,0,1,0-.21h0.042a0.264,0.264,0,0,0,.084.21c0.1-.029.078-0.1,0.126-0.042l0.084,0.042a0.362,0.362,0,0,0-.125-0.252c-0.066.052-.021,0.027-0.084,0H63.013V21.934a0.368,0.368,0,0,0,.377-0.336,0.725,0.725,0,0,0-.042-0.588h0.167v0.042h0.042l0.084,0.378a0.769,0.769,0,0,1,.377.084,0.448,0.448,0,0,0,.167.21L64.1,21.85a24.9,24.9,0,0,0,2.594.084V22.06a5.943,5.943,0,0,0-2.218.042,0.27,0.27,0,0,1,.167.042c-0.15.017-.105-0.02-0.167,0.084h1.046v0.42l0.5-.042V22.69c-0.306.117-.179,1.258-0.167,1.679a4.724,4.724,0,0,1,1.3.084h-1.3v0.42h1.088a0.767,0.767,0,0,1,.042-0.378v0.378a2.807,2.807,0,0,1,.921.084H66.987v0.336a3.152,3.152,0,0,0,.628-0.042L67.573,25,68.41,25.04v0.252c0.213-.019.324-0.018,0.544-0.042A0.2,0.2,0,0,1,69,25.124V25.25h0.377a0.661,0.661,0,0,0,.042-0.21,0.284,0.284,0,0,1-.084-0.21,1,1,0,0,1-.46-0.042h0.586V24.662a0.2,0.2,0,0,1-.126-0.042,0.54,0.54,0,0,1,.293.042H69.5v0.126h0.46V24.746a0.255,0.255,0,0,1-.084-0.084c0.09-.07.129-0.118,0.084-0.21a1.847,1.847,0,0,0-1-.084,0.653,0.653,0,0,1-.042.336V24.369H68.7V24.83h0.084c0.108,0.065.4,0.017,0.5,0.084H68.7a0.545,0.545,0,0,1-.042.294V24.914a4.989,4.989,0,0,1-1.381-.084h1.381v-0.5a0.762,0.762,0,0,1-.377-0.042,10.415,10.415,0,0,0,1.716,0,0.44,0.44,0,0,1-.251-0.042,8.245,8.245,0,0,1,1.464.042v0.042H70.67v0.126c0.028,0.008.569,0.157,0.586,0.168H71.213a0.609,0.609,0,0,0-.209.126,1.8,1.8,0,0,1,.879.084H71.046a1.331,1.331,0,0,1-.126.336,4.826,4.826,0,0,0,.8,0c0-.164-0.021-0.189.084-0.252,0.064-.032.3-0.051,0.418-0.084V24.788a0.386,0.386,0,0,1-.418-0.126h0.084a4.235,4.235,0,0,0,.46,0V24.285H72.134a0.272,0.272,0,0,1-.042.168V24.285a1.68,1.68,0,0,1-.879-0.084c1.1-.005,2.179-0.048,3.222-0.084a3.518,3.518,0,0,1,1.3.042l-1.674.042a0.2,0.2,0,0,1-.042.126c-0.035-.136.02-0.064-0.084-0.126a8.13,8.13,0,0,1-1.548.084V24.62a3.139,3.139,0,0,0,.962.084,1.134,1.134,0,0,1,.5-0.042,0.271,0.271,0,0,1,.042-0.168v0.168l1.59-.042a0.767,0.767,0,0,1,.042-0.378,0.352,0.352,0,0,0,.042.21c0.014-.213.023-0.113,0.126-0.21a0.271,0.271,0,0,0,.042.168c0.021-.259.149-0.228,0.418-0.21a0.151,0.151,0,0,0,.084.042,0.151,0.151,0,0,1-.084.042,3.311,3.311,0,0,1-.376,0v0.671H75.9c0,0.084-.043.012,0,0.084A0.452,0.452,0,0,1,76.151,25a1.828,1.828,0,0,1,.042-0.546h0.042a0.272,0.272,0,0,0,.042.168l0.042-.5a0.27,0.27,0,0,1-.167-0.042l3.306-.084V23.907a2.49,2.49,0,0,0,.209-0.755c0.063-.209.188-0.492,0.251-0.672a13.61,13.61,0,0,0-.042-2.266H80v0.042a3.05,3.05,0,0,0-.042,1.091c0,0.951-.041,1.947-0.042,2.728a5.817,5.817,0,0,1,0,1.175c-0.206.345-.5,0.663-0.711,1.007a18.27,18.27,0,0,0-1.171,2.56c-0.147.358-.263,1.306-0.586,1.427a8.6,8.6,0,0,1-2.343.084H74.6c-0.02.008-.1,0.116-0.126,0.126H71.213a14.624,14.624,0,0,1-2.72.042l-4.854.042h-2.26L11.8,31a2.062,2.062,0,0,0-.921-0.839l-0.753.042c-0.879,0-1.468.144-2.3,0.168a0.46,0.46,0,0,1-.167.294,0.2,0.2,0,0,1-.167.042c-0.1-.032-0.136-0.132-0.167-0.084a0.74,0.74,0,0,1-.167.126,1.318,1.318,0,0,1,.042-0.42,0.432,0.432,0,0,1-.377-0.168A0.574,0.574,0,0,0,7.2,29.867a0.813,0.813,0,0,1,.084-0.713H7.113A3.644,3.644,0,0,0,5.9,28.86V28.9a0.684,0.684,0,0,1,.795.462,1.187,1.187,0,0,1-.126.588,1.4,1.4,0,0,1-.335.839,5.963,5.963,0,0,1-2.092-.042c-0.213-.328-0.839-1.71-0.377-2.015a1.69,1.69,0,0,1,.795-0.084h0.5a4.021,4.021,0,0,1,.628.252V28.818l-0.126-.042-2.134-.588A1.924,1.924,0,0,1,2.8,28.02a1.878,1.878,0,0,1-.167-0.63,15.5,15.5,0,0,1-.46-1.763c-0.025-.15.064-0.12,0.084-0.168a5.653,5.653,0,0,0,0-1.133c-0.12-.472-0.311-1.011-0.46-1.469A7.5,7.5,0,0,0,1.423,21.6H1.548a3.4,3.4,0,0,0,.251.881c0.2,0.623.357,1.226,0.5,1.847H3.138V24.285c-0.109-.066,0-1.462-0.084-1.721H3.18v0.042a0.859,0.859,0,0,0,.084.756,4.773,4.773,0,0,1,.795-0.5V22.9a0.215,0.215,0,0,1,.042.126,0.858,0.858,0,0,0-.753.462,1.972,1.972,0,0,0,.167.965H8.494V23.781c0.2,0,.75-0.088.753-0.084H9.289v0.042c0.01,0.027.024,0.194,0.042,0.294H9.372V23.865a2.432,2.432,0,0,1,.8-0.126v0.714h2.343v-0.21a0.741,0.741,0,0,1-.167-0.084,0.654,0.654,0,0,1,.5.042H12.678v0.252c0.6,0,.859-0.123,1.506-0.126a0.767,0.767,0,0,1,.042-0.378,0.369,0.369,0,0,0,.084.378,0.2,0.2,0,0,1,.042-0.126c0.007,0.071-.012.239,0,0.252h1.423c0.142-.6.524-0.424,0.711-0.714-0.153-.1-0.235-0.281-0.377-0.378a8.316,8.316,0,0,0-.795-0.42,1.264,1.264,0,0,1-.628-0.378,3.014,3.014,0,0,1,.586-0.42,5.738,5.738,0,0,1,1.715-.084v0.084a1.8,1.8,0,0,1,.084.839h0.293c0.005-.438-0.006-0.649,0-0.923H19.5a2.047,2.047,0,0,0-.042-0.294l0.084,0.042c-0.049-.111.038-0.075-0.084-0.126v0.084c-0.085.1,0.051,0.061-.084,0.126V21.85H19.331l0.084-.168H19.121a6.521,6.521,0,0,0-1.632-.042V21.473h2.05V21.431a0.656,0.656,0,0,1-.251-0.336,1.423,1.423,0,0,1,.628-0.294c0.041-.011.016-0.033,0.042,0a2.052,2.052,0,0,1,.251.252,9.774,9.774,0,0,0,1.757,0V21.3h0.251a2.109,2.109,0,0,1-.042.462,1.886,1.886,0,0,1-.544.042V22.06a22.333,22.333,0,0,1,2.678-.042c0.222,0.041.565-.094,0.711-0.042a0.564,0.564,0,0,0,.335.084V21.473H25.314v0.042a0.214,0.214,0,0,0-.042.126,0.349,0.349,0,0,1-.209-0.042H25.23a0.545,0.545,0,0,1,.042-0.294c0.035,0.136-.02.064,0.084,0.126V21.095h0.669v0.042a1.4,1.4,0,0,0-.042.588H25.69V22.06c1.424,0,2.853,0,4.435,0v0.21c0.45,0,.547-0.121,1-0.126a2.28,2.28,0,0,1,.042-0.881v0.21h0.209c0-.483,0-0.861,0-1.259a7.887,7.887,0,0,0,.962-0.042v-0.21a1.312,1.312,0,0,0-.46.084V19.668a0.3,0.3,0,0,0,.084-0.168,1.032,1.032,0,0,1,.67-0.21,0.5,0.5,0,0,0,.251.126,3.174,3.174,0,0,1,.209.713H33.054a0.742,0.742,0,0,0-.46-0.168v0.21h0.084a2.276,2.276,0,0,0,.879.042v0.546a2.4,2.4,0,0,0,1.13-.126v0.084a0.371,0.371,0,0,0-.126.126,3.746,3.746,0,0,0-1-.042v0.5l-0.335.126v0.084a1.619,1.619,0,0,1,.669.042H33.222v0.755h0.544l-0.042-.336a0.464,0.464,0,0,1,.335-0.126L34.1,21.976a0.666,0.666,0,0,1,.042.336h0.209c-0.007.768,0.039,1.075,0.042,1.931a0.741,0.741,0,0,1,.167.084H34.519a0.324,0.324,0,0,0-.125.126h0.042c0.1,0.059.364,0.023,0.46,0.084a1.119,1.119,0,0,0-.5.042,1,1,0,0,1,.46.042h-0.46V25h0.46A0.767,0.767,0,0,1,34.9,24.62a0.767,0.767,0,0,0,.042.378,0.546,0.546,0,0,1,.418-0.042A0.2,0.2,0,0,1,35.4,24.83a0.281,0.281,0,0,1,.167-0.042v-0.21a1,1,0,0,0,.46-0.042,0.76,0.76,0,0,1-.377-0.042c0.169,0.006.229,0.023,0.293-.084-0.169-.056-0.171-0.111-0.167-0.336a0.9,0.9,0,0,0,.126-0.923h0.251v0.042H36.025a0.444,0.444,0,0,0,.042.252,0.352,0.352,0,0,1,.042-0.21,1.953,1.953,0,0,0,.837.252l0.042-.336a0.76,0.76,0,0,1-.377-0.042h0.377V22.774h0.126c0,0.32,0,.394,0,0.713,0.825,0.056,1.741.047,2.594,0.042a0.957,0.957,0,0,1,.126-0.755,1.764,1.764,0,0,0,.042.713,0.551,0.551,0,0,0,.293.042,1.709,1.709,0,0,0,.209-1.175h0.46c0-.72-0.028-1.769,0-2.224A0.4,0.4,0,0,1,40.586,20a4.57,4.57,0,0,0,.042-1.385H40.46V18.073h0.628v0.546H40.921V19.5h0.042a0.485,0.485,0,0,0,.251-0.462l2.134-.168v0.462a2.254,2.254,0,0,0,.46.294v0.042a0.57,0.57,0,0,0-.46.084h0.126a0.218,0.218,0,0,1,.209,0V20h0.251v0.042a0.143,0.143,0,0,0-.084.042h0.167A0.485,0.485,0,0,1,44.142,20v0.252H44.1a0.483,0.483,0,0,0-.377-0.084v0.084a3.589,3.589,0,0,0-.042,1.3c0.24-.009.237-0.065,0.46-0.084,0.008,0.309.013,0.455,0.042,0.839h0.084a1.227,1.227,0,0,0,.418.042,5.177,5.177,0,0,1,1.883-.126,2.4,2.4,0,0,0,1.046,0,1.186,1.186,0,0,0,.126.252h0.042V21.473h0.209c0,0.287.119,0.749,0.084,0.839a0.163,0.163,0,0,0-.084.168,11.529,11.529,0,0,0,1.255-.042v0.084a3.192,3.192,0,0,1-.126.881h0.335V22.312h0.126V21.934h1.3v0.378h0.042V22.27a1.205,1.205,0,0,0,.377.042,3.413,3.413,0,0,1,.711-1.259c0-.518,0-0.838,0-1.3L52.3,19.71c0-.741-0.064-1.234-0.042-1.889h0.084v0.126a2.9,2.9,0,0,0,1.088-.042H53.054V17.192a0.983,0.983,0,0,0,.586-0.126,0.223,0.223,0,0,0,.167.126,1.194,1.194,0,0,0,.126-0.881h0.084v0.881l0.377-.042a2.278,2.278,0,0,1,.042-0.881,2.278,2.278,0,0,0,.042.881,0.885,0.885,0,0,1,.042-0.42v0.378h0.126c0-.41,0-0.6,0-0.965a0.246,0.246,0,0,1-.167,0,0.456,0.456,0,0,1-.042-0.252H54.1V15.807h0.335a0.846,0.846,0,0,1,.042-0.294L54.6,15.555c0.034-.183.047-0.165,0.251-0.168v0.168a0.246,0.246,0,0,1,.167,0,1.4,1.4,0,0,1,.042.588,0.34,0.34,0,0,1-.251.126c0,0.268,0,.491,0,0.84h0.125a0.2,0.2,0,0,1,.042-0.126l-0.042.294H55.1a2.536,2.536,0,0,1,.042-0.965v0.965H55.23V16.268h0.042v1.007h0.293a5.469,5.469,0,0,0-.084-1.091H55.69L55.732,16.9h0.126c0-2.178.076-4.424,0.084-6.421a8.17,8.17,0,0,1-1.423-.084,3.682,3.682,0,0,1-.544,0c-0.1-.054-0.029.018-0.084-0.084a15.321,15.321,0,0,0,2.05-.084V8.839c0.022-.035.015-0.373,0.042-0.42-0.032-.029-0.093-0.055-0.126-0.084h0.126A1.435,1.435,0,0,0,55.941,8h0.125Zm-0.544.126a0.349,0.349,0,0,1,.209.042,0.269,0.269,0,0,0-.167.042,0.46,0.46,0,0,1,.125.084H55.565C55.494,8.182,55.5,8.261,55.523,8.126ZM55.69,8.294a0.2,0.2,0,0,1,.126.042A0.2,0.2,0,0,1,55.69,8.294Zm0.377,0.546V9.889H56.4a5.259,5.259,0,0,0,0-1.049H56.067Zm0.628,0.168a1,1,0,0,1,.46.042A1,1,0,0,1,56.695,9.007ZM56.9,9.091a0.274,0.274,0,0,1,0,.252H56.862V9.217A0.214,0.214,0,0,0,56.9,9.091Zm0.167,0.084a0.151,0.151,0,0,1,.042.084H57.071V9.175Zm-0.084.42a0.151,0.151,0,0,1,.042.084H56.987V9.595Zm-0.879.378c0,0.063-.081.061,0,0.084h0.084C56.2,9.989,56.128,10.006,56.109,9.973Zm0.251,0v0.084H56.4A0.144,0.144,0,0,0,56.36,9.973Zm-2.636.336a0.182,0.182,0,0,1,.126.126c-0.084,0-.012-0.043-0.084,0A0.214,0.214,0,0,1,53.724,10.308Zm1.925,2.35a0.253,0.253,0,0,1,.167.21H55.774a0.12,0.12,0,0,0-.042-0.042Zm0.628,0a0.209,0.209,0,0,1-.042.21H56.193V12.785A0.486,0.486,0,0,0,56.276,12.659Zm-0.167,1.007V13.96h0.167V13.666H56.109Zm0.209,1.217c0.136,0.035.064-.021,0.126,0.084,0,0.071.011,0.035,0.084,0.126-0.161.148-.129,0.187,0,0.336H56.234V15.387a0.978,0.978,0,0,0,0-.336h0.084C56.375,14.959,56.323,15,56.318,14.883Zm-2.05,1.427h0.084v0.042H54.268V16.31Zm1.339,0a1.383,1.383,0,0,0,.042.588A1.38,1.38,0,0,0,55.607,16.31Zm-0.125.21a0.35,0.35,0,0,1,0,.336V16.52Zm-1.213.252h0.084v0.042A0.143,0.143,0,0,1,54.268,16.772Zm1.464,0.5h0.126a2.134,2.134,0,0,1,0-.336c-0.136.035-.064-0.021-0.126,0.084C55.819,17.079,55.744,17.065,55.732,17.276Zm-0.126-.252a0.444,0.444,0,0,0,.042.252A0.444,0.444,0,0,0,55.607,17.024Zm-1,.126v0.126H54.9V17.234A0.373,0.373,0,0,0,54.6,17.15Zm-1.674.881a0.767,0.767,0,0,0,.042.378A0.767,0.767,0,0,0,52.929,18.031Zm0.084,0v0.462h0.418l0.042-.126a0.665,0.665,0,0,1-.042-0.336H53.013Zm3.138,0a1,1,0,0,0,.042.462A1,1,0,0,0,56.151,18.031Zm0.084,0v0.462h0.293V18.031H56.234Zm-3.222.5v0.42h0.293a1.854,1.854,0,0,0,.126-0.42H53.013Zm3.138,0a0.884,0.884,0,0,0,.042.42A0.884,0.884,0,0,0,56.151,18.535Zm0.084,0v0.42h0.293v-0.42H56.234ZM52.469,19.71l0.586,0.042V19.458a1.618,1.618,0,0,0-.586-0.336V19.71Zm0.879-.588a0.122,0.122,0,0,0,.167,0H53.347Zm-12.3.042H41.13v0.042A0.144,0.144,0,0,1,41.046,19.164Zm12.259,0.084v0.546h0.126a0.486,0.486,0,0,1,0,.252h0.084a3.512,3.512,0,0,0,.126-0.756Zm3.724,0.042a0.893,0.893,0,0,1-.084.42h0.167V19.248a0.877,0.877,0,0,0-.418.042h0.335Zm0.126-.042V19.71H57.28V19.248H57.155Zm0.167,0V19.71h0.46V19.248h-0.46Zm0.5,0v0.294h0.042A0.151,0.151,0,0,1,57.95,19.5a0.77,0.77,0,0,0,.042-0.252H57.824Zm0.293,0V19.71H58.2V19.248H58.117Zm0.167,0v0.336a0.736,0.736,0,0,0,.167.126V19.248H58.285Zm0.209,0V19.71h0.084V19.248H58.494Zm0.126,0V19.71H58.7V19.248H58.619Zm0.167,0a1.007,1.007,0,0,0,.042.462A1.007,1.007,0,0,0,58.787,19.248Zm0.084,0a1.007,1.007,0,0,0,.042.462A1.007,1.007,0,0,0,58.87,19.248Zm-23.891.042L35.1,19.332a2.279,2.279,0,0,1-.209,1.049v0.042H34.854V20.339A1.26,1.26,0,0,0,34.979,19.29Zm18.159,0.462h0.125V19.5l-0.125-.084v0.336Zm4.9-.294a0.9,0.9,0,0,1-.084.21h0.084V19.71h0.042A0.444,0.444,0,0,0,58.034,19.458Zm-1.3.168V19.71h0.125V19.626H56.736Zm1.088,0V19.71h0.042A0.144,0.144,0,0,0,57.824,19.626Zm-16.9.042v0.084h0.293V19.668H40.921ZM61.13,19.794h0.084v0.042H61.13V19.794Zm0.293,0h0.084v0.042A0.143,0.143,0,0,1,61.423,19.794Zm-0.377.042H61.13v0.042A0.144,0.144,0,0,1,61.046,19.836ZM61.716,20a0.152,0.152,0,0,1,.042.084H61.716V20Zm-29.289.084c0.069,0.047.045,0.074,0.084,0H32.427Zm21,0v0.42h0.084v-0.42H53.431Zm8.326,0a0.214,0.214,0,0,1,.042.126H61.757V20.088Zm-0.921.042a0.223,0.223,0,0,1,0,.252V20.13Zm-29.414.63h0.251v-0.5H31.464v0.084A0.9,0.9,0,0,0,31.423,20.759Zm0.293-.5v0.5a0.583,0.583,0,0,1,.209,0,1.965,1.965,0,0,1,0-.5H31.716Zm0.251,0v0.5h0.377V20.423A0.407,0.407,0,0,0,31.967,20.256Zm0.628,0.5H33.18v-0.5h-0.5a0.227,0.227,0,0,1-.125.168A1.053,1.053,0,0,1,32.594,20.759Zm0.669-.5v0.5h0.251v-0.5H33.264Zm18.661,0a0.152,0.152,0,0,1,.042.084H51.925V20.256ZM61.757,20.3a0.215,0.215,0,0,1,.042.126H61.757V20.3Zm-9.874.042a0.151,0.151,0,0,1,.042.084H51.883V20.339Zm-17.071.084c0.052,0.066.027,0.021,0,.084a0.373,0.373,0,0,1-.126.126A0.689,0.689,0,0,1,34.812,20.423Zm17.029,0a0.15,0.15,0,0,1,.042.084H51.841V20.423Zm9.038,0a0.152,0.152,0,0,1,.042.084H60.879V20.423Zm-29.038.042a0.151,0.151,0,0,1,.042.084H31.841V20.465ZM51.8,20.507a0.152,0.152,0,0,1,.042.084H51.8V20.507Zm-20,.084a0.152,0.152,0,0,1,.042.084H31.8V20.591Zm19.958,0a0.151,0.151,0,0,1,.042.084H51.757V20.591Zm1.674,0.462H53.64a0.547,0.547,0,0,1,0-.336H53.515c-0.035-.136.02-0.064-0.084-0.126v0.084A1.321,1.321,0,0,1,53.431,21.053ZM31.3,20.633a0.152,0.152,0,0,1,.042.084H31.3V20.633Zm20.418,0.042a0.152,0.152,0,0,1,.042.084H51.716V20.675Zm9.749,0h0.084v0.042A0.144,0.144,0,0,1,61.464,20.675Zm-30.209.084a0.214,0.214,0,0,1,.042.126H31.255V20.759Zm20.418,0a0.151,0.151,0,0,1,.042.084H51.674V20.759ZM31.423,20.8v0.42h0.209V21.137a0.665,0.665,0,0,0,.042-0.336H31.423Zm0.293,0.42h0.209V20.8c-0.165.017-.165-0.019-0.209,0.084A0.983,0.983,0,0,1,31.716,21.221Zm0.251-.42v0.42H32.3a1.317,1.317,0,0,1,.042-0.42H31.967Zm0.628,0,0.042,0.42H33.18V20.8H32.594Zm0.669,0v0.42h0.251V20.8H33.264Zm1.213,0.042c0.02,0.09.04,0.043-.042,0.126v0.042H34.393A0.562,0.562,0,0,1,34.477,20.843Zm17.155,0a0.152,0.152,0,0,1,.042.084H51.632V20.843Zm0.46,0.042a0.272,0.272,0,0,0,.042.168A0.272,0.272,0,0,0,52.092,20.885Zm-20.879.042a0.152,0.152,0,0,1,.042.084H31.213V20.927Zm20.377,0a0.152,0.152,0,0,1,.042.084H51.59V20.927Zm-0.042.084a0.151,0.151,0,0,1,.042.084H51.548V21.011Zm-20.377.042a0.151,0.151,0,0,1,.042.084H31.172V21.053Zm3.138,0c0.02,0.09.04,0.043-.042,0.126v0.042H34.226A0.565,0.565,0,0,1,34.31,21.053Zm17.2,0.042a0.759,0.759,0,0,1,.084.546H51.548A2.632,2.632,0,0,0,51.506,21.095Zm-0.042.084a0.151,0.151,0,0,1,.042.084H51.464V21.179Zm1.59,0.168-1-.126-0.544,1.091h1.3V22.228a0.965,0.965,0,0,1,0-.588,0.856,0.856,0,0,1,.251-0.042A0.965,0.965,0,0,1,53.054,21.347Zm-18.912-.084c0.052,0.066.027,0.021,0,.084a0.207,0.207,0,0,1-.167.126Zm17.28,0a0.152,0.152,0,0,1,.042.084H51.423V21.263Zm-20,.21c0.158-.006.147,0.02,0.209-0.084a0.894,0.894,0,0,1-.209-0.084v0.168Zm19.958-.126a0.151,0.151,0,0,1,.042.084H51.381V21.347Zm12.092,0.042a0.273,0.273,0,0,0,.042.168A0.273,0.273,0,0,0,63.473,21.389Zm-12.134.042a0.15,0.15,0,0,1,.042.084H51.339V21.431Zm-17.448.042h0.084v0.042A0.143,0.143,0,0,1,33.891,21.473ZM51.3,21.515a0.152,0.152,0,0,1,.042.084H51.3V21.515Zm-0.042.084a0.151,0.151,0,0,1,.042.084H51.255V21.6Zm-0.042.084a0.152,0.152,0,0,1,.042.084H51.213V21.683Zm-49.791.042c0.037,0.309.178,0.512,0.209,0.839-0.513.056-.9,0.326-1.423,0.378C0.165,22.6.035,22.5,0,22.1,0.5,22.043.906,21.774,1.423,21.725Zm49.749,0.042a0.151,0.151,0,0,1,.042.084H51.172V21.766Zm-0.042.084a0.15,0.15,0,0,1,.042.084H51.13V21.85Zm-0.042.084a0.152,0.152,0,0,1,.042.084H51.088V21.934Zm-0.042.084a0.151,0.151,0,0,1,.042.084H51.046V22.018ZM51,22.1a0.152,0.152,0,0,1,.042.084H51V22.1Zm12.929,0.042c0.086,0.1.04,0.009,0.125,0.042C64.084,22.11,63.974,22.152,63.933,22.144Zm0.251,0a0.485,0.485,0,0,0,.126.084A0.162,0.162,0,0,0,64.184,22.144Zm-13.222.042A0.151,0.151,0,0,1,51,22.27H50.962V22.186Zm-33.724.126a0.152,0.152,0,0,1,.042.084H17.239V22.312Zm12.887,0.042v0.378h0.46V22.354h-0.46Zm3.1,0.042v0.378h0.5l0.042-.378H33.222Zm0.92,0v0.378H34.31V22.4H34.142Zm6.276,0v0.462h0.126V22.4H40.418Zm0.167,0v0.336a0.765,0.765,0,0,0,.251.042V22.4H40.586ZM44.6,22.648V22.4H44.393v0.042c0.14,0.085.1,0.043,0.084,0.21H44.6ZM60.5,22.69V22.438H60.293V22.48c0.087,0.056.012,0.041,0,.252h0.042A0.282,0.282,0,0,1,60.5,22.69Zm0.042-.252v0.294a0.887,0.887,0,0,1,.418.21H60.8a0.6,0.6,0,0,1-.042.21,1.811,1.811,0,0,1,.544.042c0.012,0.109-.02.075,0.167,0.084V22.438h-0.92ZM79.582,25V24.662h0.126v0.252h0.126c0.015-.389.041-0.854,0.042-1.3a0.349,0.349,0,0,1-.209-0.042h0.209a2.149,2.149,0,0,0-.042-0.839A14.868,14.868,0,0,1,79.289,25h0.293ZM30.126,22.816v0.42h0.46v-0.42h-0.46Zm10.293,0.462h0.126a0.376,0.376,0,0,0-.126-0.378v0.378Zm-4.226-.168a0.541,0.541,0,0,1,.293.042A0.54,0.54,0,0,1,36.193,23.11Zm-32.134.042a0.214,0.214,0,0,1,.042.126H4.059V23.152Zm36.778,0.126V23.152H40.628v0.084H40.586v0.042h0.251Zm19.456-.084v0.084h0.125C60.362,23.149,60.406,23.255,60.293,23.193Zm1.506,0c-0.032.029-.093,0.055-0.126,0.084C61.737,23.266,61.926,23.231,61.8,23.193Zm-38.745,1.3h2.3V23.361a4.423,4.423,0,0,0-1.757.294,0.664,0.664,0,0,0-.5.21A1.523,1.523,0,0,0,23.054,24.495Zm2.636-1.133v1.133h0.377a1.43,1.43,0,0,0-.042-0.336h0.126v-0.8H25.69Zm0.544,0v0.713H26.36V23.361H26.234Zm0.209,0v0.672h0.628a0.26,0.26,0,0,1,.209-0.252v-0.42H26.444Zm0.921,0v0.42H27.49v-0.42H27.364Zm0.209,0v0.42h1.339a2.041,2.041,0,0,0,.042.294H30l-0.042.42H30.67a3.475,3.475,0,0,1,0-.671H30.628s-0.008.164-.042,0.084V23.823c-0.121-.072-0.079-0.092-0.042-0.21a3.678,3.678,0,0,1-.628-0.252H27.573Zm-11.3.042c0.073,0.124.137,0.223,0.209,0.126A0.755,0.755,0,0,0,16.276,23.4Zm0.209,0a0.228,0.228,0,0,0,.167.126V23.487a0.151,0.151,0,0,0,.042-0.084H16.485Zm6.569,0a0.162,0.162,0,0,0,.125.084V23.445h0.042V23.4H23.054Zm0.46,0a1.477,1.477,0,0,1-.377.21v0.042h0.125c0.109-.082.306-0.086,0.418-0.168a0.15,0.15,0,0,0,.042-0.084H23.515Zm6.82,0a0.154,0.154,0,0,0,.209.126,0.255,0.255,0,0,0,.084-0.084A0.9,0.9,0,0,0,30.335,23.4ZM3.18,23.445v0.084H3.222V23.445H3.18ZM48.2,23.865v0.63a5.415,5.415,0,0,0,1.423-.042,0.144,0.144,0,0,1-.084-0.042,0.581,0.581,0,0,0,.084-0.462c-0.124,0-.144.05-0.167-0.168H49.5V23.739h0.125V23.487H49.54a1.437,1.437,0,0,0-.46,0l-0.209.252A1.254,1.254,0,0,1,48.2,23.865Zm-12.134-.336a0.272,0.272,0,0,0,.042.168A0.272,0.272,0,0,0,36.067,23.529Zm-26.653.084c0.053,0.056.123,0.134,0.042,0.21l-0.084-.042C9.317,23.686,9.366,23.7,9.414,23.613Zm-6.192.672H3.389L3.264,23.7H3.222v0.588Zm5.941-.462v0.084C9.23,23.857,9.214,23.889,9.163,23.823Zm26.946,0a0.2,0.2,0,0,0,.042.126A0.2,0.2,0,0,0,36.109,23.823Zm-20,.63a1.07,1.07,0,0,1,.335-0.588H16.4a1.226,1.226,0,0,0-.544.588h0.251Zm0.628-.294H16.569a0.2,0.2,0,0,1-.042.126V24.2c-0.032-.05-0.05-0.2-0.084-0.252a0.118,0.118,0,0,1-.042.042,1.565,1.565,0,0,0-.209.462h0.586V24.411C16.691,24.3,16.725,24.329,16.736,24.159Zm10.628-.168c0.072,0.037.053,0.037,0.125,0H27.364Zm0.209,0v0.084h0.293V23.991H27.573Zm0.586,0v0.084H28.7V24.033A1.889,1.889,0,0,0,28.159,23.991ZM79,24.537v-0.5H78.912a5.046,5.046,0,0,1-1.213.084v0.462h0.084a0.609,0.609,0,0,1,0-.42,0.935,0.935,0,0,0,.084.42A3.043,3.043,0,0,1,79,24.537Zm0.042-.5a1.129,1.129,0,0,0,.042.5,0.273,0.273,0,0,1,.042-0.168c0.017,0.15-.02.106,0.084,0.168a0.213,0.213,0,0,1,.126-0.042l0.126-.462H79.038Zm-2.678.126a2.109,2.109,0,0,1-.042.462h0.126a3.173,3.173,0,0,1,1.172-.042,1.559,1.559,0,0,0,.042-0.462C77.211,24.115,76.748,24.141,76.36,24.159ZM16.653,24.2a0.151,0.151,0,0,1,.042.084H16.653V24.2Zm9.623,0.042v0.252H26.36V24.243H26.276Zm0.167,0v0.252h0.669V24.243H26.444Zm0.921,0v0.252H27.49V24.243H27.364Zm0.209,0v0.252h0.335V24.243H27.573Zm0.544,0v0.252h0.628V24.243H28.117Zm0.795,0a0.272,0.272,0,0,0,.042.168A0.272,0.272,0,0,0,28.912,24.243Zm-25.69.084v0.126H3.431V24.327H3.222Zm33.054,0a0.2,0.2,0,0,0,.042.126V24.327H36.276Zm30.335,0a6.9,6.9,0,0,1,2.008.084A9.378,9.378,0,0,1,66.611,24.327Zm3.515,0a1.313,1.313,0,0,0,.251.126,0.265,0.265,0,0,0-.042-0.126A0.29,0.29,0,0,1,70.126,24.327Zm0.293,0a0.2,0.2,0,0,0,.042.126,0.151,0.151,0,0,1,.084-0.042c0,0.084-.043.012,0,0.084a0.151,0.151,0,0,1,.084-0.042V24.327H70.418Zm-68.075.042c0.036,0.027.132,0.056,0.167,0.084a0.27,0.27,0,0,0-.167.042,1.554,1.554,0,0,0,.795-0.126H2.343Zm11.423,0a0.243,0.243,0,0,0,.335,0H13.766Zm61.841,0v0.294H75.69V24.579C75.661,24.536,75.637,24.411,75.607,24.369Zm-8.41.042a0.423,0.423,0,0,1,0,.378V24.411Zm-61.046.126v0.42H7.113a0.352,0.352,0,0,1,.042-0.21v0.21H7.406V24.579a0.27,0.27,0,0,1-.167-0.042,1.243,1.243,0,0,0,.544-0.042C7.232,24.492,6.64,24.514,6.151,24.537Zm6.109-.042a0.221,0.221,0,0,0,.251,0H12.259Zm0.418,0a0.419,0.419,0,0,0,.377,0H12.678Zm0.418,0a0.151,0.151,0,0,0,.084.042A0.151,0.151,0,0,0,13.1,24.495Zm1.3,0a4.354,4.354,0,0,0,1.381,0H14.393Zm1.464,0a0.221,0.221,0,0,0,.251,0H15.858Zm0.335,0c0.072,0.037.053,0.037,0.126,0H16.192ZM2.762,24.83V24.537H2.385v0.042a0.724,0.724,0,0,1,.084.252H2.762ZM2.8,24.537a0.564,0.564,0,0,1,0,.294H3.054a0.869,0.869,0,0,1,.084-0.294H2.8Zm0.5,0.42H3.556l-0.084-.42H3.222V24.62A0.356,0.356,0,0,1,3.305,24.956Zm1,0v-0.42H3.556V24.62c0.054,0.078.068,0.221,0.126,0.294A1.508,1.508,0,0,0,4.31,24.956Zm0.042-.42v0.42H4.686v-0.42H4.351Zm0.377,0v0.42h1v-0.42h-1Zm1.046,0v0.42H6.109v-0.42H5.774Zm17.322,0a1.2,1.2,0,0,0,.5.042,6.836,6.836,0,0,0,1.674-.042H23.1Zm2.594,0a0.419,0.419,0,0,0,.377,0H25.69Zm0.586,0a0.152,0.152,0,0,0,.084.042A0.15,0.15,0,0,0,26.276,24.537Zm0.167,0a1.035,1.035,0,0,0,.669,0H26.444Zm0.921,0c0.072,0.037.053,0.037,0.125,0H27.364Zm0.209,0a0.347,0.347,0,0,0,.335,0H27.573Zm0.544,0a0.578,0.578,0,0,0,.46,0h-0.46Zm0.5,0c0.072,0.037.053,0.037,0.126,0H28.619Zm1.339,0a1.133,1.133,0,0,0,.711,0H29.958Zm18.243,0a0.5,0.5,0,0,0,.418,0H48.2Zm0.46,0a1.759,1.759,0,0,0,.962,0H48.661Zm-36.4.042V25h0.251a1.831,1.831,0,0,1,0-.42H12.259Zm0.418,0a0.884,0.884,0,0,0,.042.42A0.884,0.884,0,0,0,12.678,24.579Zm0.084,0V25h0.293v-0.42H12.762ZM14.937,25v-0.42h-0.5v0.084a0.493,0.493,0,0,1,.084.21A1.15,1.15,0,0,0,14.937,25Zm0.042-.42V25h0.293v-0.42H14.979Zm0.335,0V25H15.69V24.914a0.665,0.665,0,0,0,.042-0.336H15.314Zm0.544,0L15.9,25h0.042a0.7,0.7,0,0,1,.084-0.42H15.858ZM77.824,24.62v0.42L79.08,25v-0.42H79.038C79.023,24.6,78.107,24.625,77.824,24.62Zm1.3-.042V25h0.084l0.084-.42H79.121ZM23.1,24.62v0.294H23.18a0.744,0.744,0,0,1,.753-0.126V24.62H23.1Zm0.879,0v0.168a6.655,6.655,0,0,1,1.3.042V24.62h-1.3Zm1.339,0a0.353,0.353,0,0,0,.042.21A0.352,0.352,0,0,0,25.314,24.62Zm0.377,0v0.21a0.967,0.967,0,0,1,.377,0V24.62H25.69Zm0.586,0V25H26.36V24.62H26.276Zm0.167,0V25h0.669V24.62H26.444Zm0.921,0V25H27.49V24.62H27.364Zm0.209,0V25h0.335V24.62H27.573Zm0.544,0V25H28.41V24.62H28.117Zm0.335,0V25h0.126V24.62H28.452Zm0.167,0V25h0.126V24.62H28.619Zm0.293,0a0.767,0.767,0,0,0,.042.378A0.767,0.767,0,0,0,28.912,24.62Zm1.046,0A0.767,0.767,0,0,0,30,25a0.476,0.476,0,0,1,.251-0.378H29.958Zm0.544,0c0.069,0.047.045,0.074,0.084,0H30.5Zm0.126,0a0.272,0.272,0,0,0,.042.168A0.272,0.272,0,0,0,30.628,24.62Zm4.979,0v0.126a5.909,5.909,0,0,0,.628.042V24.746h0.042V24.62H35.607Zm0.711,0v0.126a3.794,3.794,0,0,0,.586.042V24.746h0.042V24.62H36.318Zm0.837,0v0.168a0.414,0.414,0,0,1,.251.084V24.62H37.155Zm0.335,0v0.168h0.084a0.421,0.421,0,0,1,.418.042,0.325,0.325,0,0,0,.126.126c-0.013-.214-0.068-0.214.209-0.21V24.83a0.214,0.214,0,0,0-.042.126c0.121-.053.086,0.048,0.125-0.126a0.152,0.152,0,0,1-.042-0.084h0.167V24.62H37.49Zm1.088,0a0.721,0.721,0,0,1,.042.336H38.7a4.442,4.442,0,0,1,.962,0V24.62H38.577ZM39.916,25h0.46V24.62h-0.5V24.7A0.557,0.557,0,0,1,39.916,25ZM48.2,24.62v0.294h0.126c0.017,0.11.067,0.091,0.293,0.084V24.62H48.2Zm0.46,0V25h0.084a0.2,0.2,0,0,1,.042-0.126V25h0.837a1.632,1.632,0,0,0-.042-0.378H48.661Zm22.594,0h0.084v0.042H71.3V24.7A0.151,0.151,0,0,1,71.255,24.62Zm0.126,0H71.8v0.042H71.757A0.255,0.255,0,0,1,71.381,24.62Zm4.937,0.042,0.042,0.294L76.485,25a3.043,3.043,0,0,0,1.13.042V24.62Zm1.339,0.378h0.126a0.885,0.885,0,0,0-.042-0.42,0.544,0.544,0,0,1-.042.294,0.271,0.271,0,0,0-.042-0.168V25.04Zm-1.423-.378V25h0.084V24.83C76.291,24.794,76.262,24.7,76.234,24.662Zm-0.753.042-1.59.042V24.83h0.167a2.611,2.611,0,0,1,.335,0v0.042H74.352A0.323,0.323,0,0,0,74.1,25h0.042a1.134,1.134,0,0,1,.753-0.126v0.084a0.214,0.214,0,0,0-.042.126h0.084c0-.122-0.04-0.058,0-0.126a0.892,0.892,0,0,1,.418-0.042v0.042H75.314a0.612,0.612,0,0,0-.293.126h0.042v0.042a1.551,1.551,0,0,0,.418-0.084c-0.136-.035-0.064.021-0.126-0.084C75.522,24.951,75.486,24.952,75.481,24.7Zm0.126,0a1.363,1.363,0,0,0,.084.252C75.692,24.793,75.711,24.767,75.607,24.7Zm-73.264.042v0.21H2.427V24.872C2.4,24.84,2.372,24.779,2.343,24.746Zm71.046,0V24.83a1.4,1.4,0,0,0,.46-0.084h-0.46Zm-0.921.294a3.186,3.186,0,0,1,.377-0.126V24.788a2.09,2.09,0,0,0-.46.042v0.084C72.491,24.975,72.432,24.905,72.469,25.04Zm0.8-.252a2.291,2.291,0,0,0-.711.378h0.418A0.227,0.227,0,0,1,73.1,25a0.32,0.32,0,0,0,.335-0.126A0.247,0.247,0,0,1,73.264,24.788Zm0.418,0.042c0.009,0.059-.034-0.017-0.042.042-0.08.033,0.084,0.042,0.084,0.042A0.143,0.143,0,0,0,73.682,24.83Zm-71.213.042a0.293,0.293,0,0,0,.293.084V24.872H2.469Zm0.335,0v0.084H2.845V24.872H2.8Zm0.084,0v0.084c0.15-.017.105,0.02,0.167-0.084H2.887ZM69.582,25.25h0.293a0.644,0.644,0,0,0,.084-0.378H69.54v0.084A0.557,0.557,0,0,1,69.582,25.25ZM65.858,25v0.336h0.669c0.035-.136-0.02-0.064.084-0.126a0.813,0.813,0,0,0,.335.084V24.956a2.77,2.77,0,0,0-1.088,0,0.76,0.76,0,0,1,.377.042H65.858Zm8.117-.084a0.151,0.151,0,0,1-.084.042V25h0.084a0.151,0.151,0,0,1,.084-0.042V24.914H73.975Zm-3.933.042V25.04h0.042V24.956H70.042Zm3.682,0c0.072,0.037.053,0.037,0.126,0H73.724Zm0.962,0c0.035,0.136-.02.064,0.084,0.126A0.16,0.16,0,0,0,74.686,24.956ZM2.343,25a0.151,0.151,0,0,0,.084.042A0.151,0.151,0,0,0,2.343,25ZM2.51,25a0.221,0.221,0,0,0,.251,0H2.51ZM2.8,25a0.221,0.221,0,0,0,.251,0H2.8Zm0.5,0A0.281,0.281,0,0,0,3.6,25H3.305Zm0.377,0a0.938,0.938,0,0,0,.628,0H3.682Zm0.669,0a0.347,0.347,0,0,0,.335,0H4.351Zm0.377,0a1.868,1.868,0,0,0,1,0h-1Zm1.046,0a0.347,0.347,0,0,0,.335,0H5.774Zm0.377,0a1.76,1.76,0,0,0,.962,0H6.151Zm1,0a0.221,0.221,0,0,0,.251,0H7.155ZM14.77,25.04a0.122,0.122,0,0,0,.167,0H14.77Zm0.209,0a0.15,0.15,0,0,0,.084.042A0.152,0.152,0,0,0,14.979,25.04Zm0.335,0a0.347,0.347,0,0,0,.335,0H15.314Zm10.962,0a0.151,0.151,0,0,0,.084.042A0.151,0.151,0,0,0,26.276,25.04Zm0.167,0a1.034,1.034,0,0,0,.669,0H26.444Zm0.921,0c0.072,0.037.053,0.037,0.125,0H27.364Zm0.209,0a0.347,0.347,0,0,0,.335,0H27.573Zm0.544,0a0.281,0.281,0,0,0,.293,0H28.117Zm0.335,0c0.072,0.037.054,0.037,0.126,0H28.452Zm0.167,0c0.072,0.037.053,0.037,0.126,0H28.619Zm5.774,0a0.419,0.419,0,0,0,.377,0H34.393Zm5.481,0a0.663,0.663,0,0,0,.5,0h-0.5Zm8.41,0a0.347,0.347,0,0,0,.335,0H48.285Zm0.377,0a0.151,0.151,0,0,0,.084.042A0.152,0.152,0,0,0,48.661,25.04Zm0.126,0a0.663,0.663,0,0,0,.5,0h-0.5Zm25.356,0c0.012,0.109,0,.083.209,0.084V25.082h0.042V25.04A0.519,0.519,0,0,1,74.142,25.04Zm0.335,0a0.15,0.15,0,0,0,.084.042A0.152,0.152,0,0,0,74.477,25.04Zm-72.134.042c0.072,0.037.053,0.037,0.126,0H2.343Zm0.5,0.378a0.2,0.2,0,0,0,.126-0.042,0.557,0.557,0,0,0,.042-0.294H3.054V25.082H2.929c-0.047.07,0,.026-0.084,0V25.46Zm0.5-.378v0.336H3.389V25.46H3.682L3.64,25.124A0.9,0.9,0,0,0,3.347,25.082Zm0.377,0,0.042,0.336a1.889,1.889,0,0,0,.544.042V25.082H3.724Zm0.628,0V25.46H4.686V25.082H4.351Zm0.377,0V25.46H4.812c0.343-.247,1.282.39,1.3-0.378H4.728Zm1.423,0V25.46H6.946a0.2,0.2,0,0,1,.042-0.126V25.292H7.113v-0.21H6.151ZM7.2,25.292H7.406v-0.21H7.155v0.042A0.284,0.284,0,0,1,7.2,25.292Zm5.063-.21v0.21a0.592,0.592,0,0,0,.167.042l0.042-.126a0.214,0.214,0,0,0,.042-0.126H12.259Zm0.418,0a0.2,0.2,0,0,0,.042.126A0.2,0.2,0,0,0,12.678,25.082Zm0.084,0L12.8,25.46h0.209a1.216,1.216,0,0,0,.042-0.378H12.762Zm0.335,0v0.21h0.042V25.208C13.188,25.157,13.147,25.143,13.1,25.082Zm54.686,0v0.084h0.042A0.144,0.144,0,0,0,67.782,25.082Zm0.418,0a0.2,0.2,0,0,0,.042.126A0.2,0.2,0,0,0,68.2,25.082Zm4.979,0v0.084h0.167V25.124h0.042V25.082H73.18Zm-65.523.252H7.782v-0.21H7.657a0.556,0.556,0,0,0-.084.336H7.657V25.334Zm0.293-.21V25.46H8.033c0.018-.186-0.035-0.173.126-0.21V25.124H7.95Zm6.109,0.21v-0.21H14.017v0.084a0.486,0.486,0,0,0-.084.126h0.126Zm0.921-.21v0.252h0.084V25.124H14.979Zm0.335,0V25.46a0.224,0.224,0,0,0,.209-0.084c0.1,0.1.04,0.083,0.251,0.084V25.124c-0.145.017-.058,0-0.126,0.084A2.2,2.2,0,0,0,15.314,25.124Zm0.544,0a0.167,0.167,0,0,0,.084.168C15.9,25.166,15.958,25.181,15.858,25.124Zm10.418,0v0.252H26.36V25.124H26.276Zm0.167,0v0.294a2.063,2.063,0,0,0,.586.042,0.556,0.556,0,0,0,.084-0.336H26.444Zm0.962,0v0.294h0.042V25.376a0.455,0.455,0,0,0,.042-0.252H27.406Zm1.506,0a0.352,0.352,0,0,0,.042.21A0.352,0.352,0,0,0,28.912,25.124Zm1.046,0a0.714,0.714,0,0,0,.042.252,1.029,1.029,0,0,0,.125-0.126Zm4.435,0V25.46H34.77V25.124H34.393Zm0.418,0a0.272,0.272,0,0,0,.042.168A0.272,0.272,0,0,0,34.812,25.124Zm13.473,0V25.46h0.335V25.124H48.285Zm0.377,0V25.46h0.084V25.124H48.661Zm0.126,0V25.46h0.5V25.124h-0.5Zm-18.159.042,0.042,0.252h0.042V25.25C30.675,25.219,30.664,25.2,30.628,25.166Zm-15.063.042a0.152,0.152,0,0,1,.042.084H15.565V25.208ZM2.929,25.25a0.152,0.152,0,0,1,.042.084H2.929V25.25Zm27.615,0v0.084a0.327,0.327,0,0,0-.209,0v0.084h0.209a0.144,0.144,0,0,1,.042-0.084A0.144,0.144,0,0,0,30.544,25.25Zm-15.314.042a0.2,0.2,0,0,0,.042.126A0.2,0.2,0,0,0,15.23,25.292Zm0.293,0a0.151,0.151,0,0,1,.042.084H15.523V25.292Zm14.644,0c0,0.084-.066.032,0,0.084-0.009.059,0.042,0.042,0.042,0.042C30.26,25.366,30.167,25.292,30.167,25.292Zm36.485,0a0.151,0.151,0,0,0,.084.042A0.151,0.151,0,0,0,66.653,25.292ZM2.51,25.334a0.2,0.2,0,0,0,.042.126A0.2,0.2,0,0,0,2.51,25.334ZM15.858,25.46h0.167V25.418a0.628,0.628,0,0,0-.167-0.084V25.46Zm-8.117-.084V25.46H7.782A0.144,0.144,0,0,0,7.741,25.376Zm4.6,0a0.151,0.151,0,0,1-.084.042V25.46h0.126A0.144,0.144,0,0,0,12.343,25.376ZM76.82,28.524a0.122,0.122,0,0,0,.167,0H76.82Zm0.377,0a2.287,2.287,0,0,0,.544.084,2.064,2.064,0,0,0,.126.336,0.454,0.454,0,0,0-.209-0.42H77.2Zm-0.5.042a0.151,0.151,0,0,0,.084.042A0.151,0.151,0,0,0,76.695,28.566Zm-0.167.042a0.151,0.151,0,0,0,.084.042A0.151,0.151,0,0,0,76.527,28.608ZM76.4,28.65a0.15,0.15,0,0,0,.084.042A0.15,0.15,0,0,0,76.4,28.65Zm-0.293.084a0.151,0.151,0,0,0,.084.042A0.151,0.151,0,0,0,76.109,28.734Zm-0.293.084a0.151,0.151,0,0,0,.084.042A0.151,0.151,0,0,0,75.816,28.818Zm-0.126.042a0.151,0.151,0,0,0,.084.042A0.151,0.151,0,0,0,75.69,28.86Zm-0.293.084a0.151,0.151,0,0,0,.084.042A0.151,0.151,0,0,0,75.4,28.943Zm2.385,0.042v0.084h0.042V28.985H77.782Zm-0.042.126V29.2h0.042V29.111H77.741ZM7.322,29.2c0.069,0.047.045,0.074,0.084,0H7.322ZM77.7,29.237v0.084h0.042V29.237H77.7Zm-69.623.126-0.418-.084v0.084a2.191,2.191,0,0,0,.293.546,0.485,0.485,0,0,0,.084-0.294A0.456,0.456,0,0,0,8.075,29.363Zm69.582,0v0.084H77.7V29.363H77.657Zm-2.636.042a0.443,0.443,0,0,0,.042.252A0.444,0.444,0,0,0,75.021,29.405Zm2.594,0.084v0.084h0.042V29.489H77.615Zm-68.87.042a0.905,0.905,0,0,0-.042.294H8.745v0.042a3.038,3.038,0,0,0,1.423.042Zm68.828,0.084V29.7h0.042V29.615H77.573Zm-0.042.126v0.084h0.042V29.741H77.531Zm-2.469.042a0.16,0.16,0,0,0,.084.126A0.459,0.459,0,0,0,75.063,29.783Zm2.427,0.084a0.208,0.208,0,0,1-.167.21c-0.442.27-1.443-.189-1.883,0.084a11.168,11.168,0,0,0,1.967-.042,0.758,0.758,0,0,1,.126-0.168A0.144,0.144,0,0,0,77.49,29.867Zm-2.343.084c-0.014.058,0.059,0.061,0.084,0.084C75.259,29.99,75.158,29.963,75.146,29.951Zm0.126,0.084a0.162,0.162,0,0,0,.125.084A0.485,0.485,0,0,0,75.272,30.035Z" transform="translate(0 0.5)"/>
</svg>
