<?xml version="1.0" encoding="utf-8"?>
<!-- Generator: Adobe Illustrator 16.0.0, SVG Export Plug-In . SVG Version: 6.00 Build 0)  -->
<!DOCTYPE svg PUBLIC "-//W3C//DTD SVG 1.1//EN" "http://www.w3.org/Graphics/SVG/1.1/DTD/svg11.dtd">
<svg version="1.1" id="Layer_1" xmlns="http://www.w3.org/2000/svg" xmlns:xlink="http://www.w3.org/1999/xlink" x="0px" y="0px"
	 width="40px" height="40px" viewBox="0 0 40 40" enable-background="new 0 0 40 40" xml:space="preserve">
<path id="fr_lorraine_40t_ico" fill="#FFFFFF" d="M12.8,13.908h0.133v-0.133c0.045-0.051,0.109-0.083,0.177-0.089
	c0.27-0.031,0.542,0.049,0.751,0.222h0.309c0.24,0.022,0.525,0,0.774,0V13.73c0.032-0.018,0.062-0.04,0.088-0.066h0.128V13.6
	c0.246,0.062,0.504,0.062,0.751,0c0.137-0.19,0.344-0.318,0.575-0.355c0.161,0.024,0.3,0.123,0.376,0.266l0.022,0.111h1.459
	c0.131,0.034,0.267,0.042,0.4,0.022v0.086l-0.575,0.022v0.111h-1.3v0.067c-0.142,0.094-0.299,0.162-0.464,0.2v0.089h-0.095
	c0,0.156-0.01,0.353,0,0.444c0.278,0.044,0.56,0.052,0.84,0.022c0.109,0.116,0.247,0.2,0.4,0.244
	c0.181-0.128,0.374-0.239,0.575-0.333l0.044,0.022c-0.002,0.017-0.01,0.032-0.022,0.044c-0.122,0.124-0.256,0.235-0.4,0.333H17.9
	c0.386,0.075,0.778,0.12,1.171,0.133c0.1,0.022,0.239,0.011,0.354,0.044c0.093,0.027,0.212,0.106,0.309,0.133l0.309,0.022
	c0.274,0.065,0.616,0.092,0.884,0.155c0.019,0.033,0.04,0.063,0.066,0.089V15.7c4.094,0,8.073,0.089,12.177,0.089l4.84,0.022
	c0.318-0.076,0.646-0.099,0.973-0.067v0.116h0.021c0.328-0.068,0.666-0.076,0.996-0.023V16.3c-0.338,0.039-0.681,0.031-1.018-0.022
	v0.092c-0.324,0.04-0.654,0.018-0.972-0.067l-0.905,0.022h-4.088c-0.463,0.05-0.929,0.058-1.393,0.022H28.84
	c-2.6,0-5.191,0.065-7.845,0.067v0.155c-0.058,0.075-0.149,0.116-0.243,0.111c-0.197,0.012-0.392,0.057-0.575,0.133
	c0.119,0.081,0.192,0.212,0.2,0.355c0.075,0.17,0.2,0.329,0.287,0.488l0.044,0.2h0.11c0.315-0.003,0.63,0.049,0.928,0.155v-0.089
	h0.133c-0.016-0.054-0.037-0.106-0.066-0.155h0.022c0.142,0.039,0.263,0.135,0.331,0.266c-0.046,0.038-0.07,0.096-0.066,0.155
	c0.185,0.073,0.362,0.162,0.53,0.266c0.3,0.13,0.601,0.274,0.884,0.377h0.111c0.071,0.048,0.145,0.093,0.221,0.133
	c0.14,0.016,0.279,0.022,0.42,0.022c0.032,0.035,0.062,0.072,0.088,0.111c0.035,0.092,0,0.151,0.022,0.199
	c0.017,0.02,0.028,0.025,0.044,0.044c0.116-0.039,0.228-0.091,0.332-0.155c-0.041-0.182,0.051-0.367,0.221-0.443v-0.021
	c-0.158,0-0.184-0.035-0.177-0.199c0.072-0.02,0.146-0.026,0.222-0.022c0.005-0.009,0.012-0.017,0.021-0.022v0.289h0.088v-0.311
	h0.111v0.865c0.285,0.021,0.553,0.147,0.751,0.354c-0.074,0.146-0.12,0.304-0.134,0.466c0.119,0.041,0.215,0.13,0.266,0.244
	c-0.014,0.02-0.021,0.043-0.021,0.067l0.088-0.022c-0.003,0.055,0.035,0.102,0.088,0.111c-0.092,0.26,0.063,0.479-0.022,0.8
	c-0.043,0.172-0.11,0.336-0.2,0.488c-0.415,0.398-0.902,0.715-1.436,0.932c-0.727,0.513-1.523,0.917-2.365,1.2H8.442
	C7.72,24.014,6.995,24,6.276,23.917c-0.29-0.071-0.589-0.2-0.862-0.288c-0.526-0.174-1.021-0.291-1.547-0.466
	c-0.222-0.094-0.451-0.168-0.685-0.222c-0.01,0.031-0.024,0.062-0.044,0.089C3.11,23.016,3.081,23.006,3.05,23v-0.109
	c-0.088-0.035-0.188-0.108-0.265-0.133c-0.093-0.027-0.152,0.085-0.177,0.044H2.564c-0.011-0.179-0.135-0.331-0.309-0.377
	c-0.019,0.015-0.042,0.022-0.066,0.022c-0.019-0.027-0.034-0.058-0.044-0.09c0.029-0.028,0.072-0.066,0.044-0.088
	c-0.054-0.1-0.098-0.204-0.133-0.312H1.923c0-0.169,0.023-0.051,0.066-0.155l-0.022-0.377c-0.054,0.002-0.101-0.036-0.111-0.089
	c0.038-0.024,0.063-0.065,0.066-0.11c-0.1-0.086,0-0.178-0.133-0.201c-0.019,0.015-0.042,0.022-0.066,0.022V21.4
	c-0.027,0.019-0.057,0.033-0.088,0.043v-0.017c-0.059-0.094,0.041-0.314-0.022-0.421l-0.066-0.021
	c-0.042-0.074-0.059-0.16-0.047-0.245c0.128-0.062,0.225-0.175,0.265-0.312c-0.047-0.052-0.084-0.111-0.11-0.177l-0.044,0.022
	v-0.022c-0.024-0.138-0.115-0.254-0.243-0.312c-0.149,0.057-0.316,0.031-0.442-0.065c-0.339-0.217-0.589-0.547-0.707-0.933
	c0.042,0.002,0.078-0.025,0.088-0.065l-0.066-0.022C0.168,18.81,0.085,18.786,0,18.787c0.012-0.358,0.065-0.828,0.42-0.843v-0.066
	c0.068-0.007,0.135-0.021,0.2-0.044c0.079-0.008,0.061,0.033,0.088,0.044c0.144,0.035,0.294,0.011,0.42-0.067
	c0.094-0.086,0.15-0.206,0.155-0.333h1.568c0.017-0.057,0.057-0.105,0.11-0.133c0.128,0.111,0.305,0.145,0.464,0.089
	c0.079-0.1,0.111,0.014,0.177,0.044h1.547v0.112c0.144,0.123,0.09,0.29,0.376,0.288c0.106-0.037,0.221-0.044,0.331-0.022v-0.244
	c0.22,0,0.337,0.063,0.6,0.066v-0.111H6.5c0.115-0.032,0.236-0.039,0.354-0.022c0.015,0.043,0.022,0.088,0.022,0.133h1.08V17.59
	c0.128-0.044,0.265-0.059,0.4-0.044c0.015,0.043,0.022,0.088,0.022,0.133h1.081V17.59c0.128-0.044,0.265-0.059,0.4-0.044
	c0.067,0.183,0.288,0.143,0.53,0.133V17.9c0.167,0.031,0.337,0.045,0.508,0.044c0.059-0.039,0.13-0.054,0.2-0.044v0.044
	c0.125,0.032,0.258,0.017,0.373-0.044h-0.332v-0.133c0.046-0.07,0.106-0.13,0.177-0.177c0.045-0.032,0.1-0.048,0.155-0.044v-0.089
	c0.223,0.04,0.453-0.008,0.641-0.133c-0.166-0.377-0.234-0.79-0.2-1.2c-0.477-0.055-0.958-0.063-1.437-0.022
	c-0.1-0.071-0.651-0.218-0.685-0.266v-0.753c0.064-0.141,0.154-0.269,0.265-0.377c0.034-0.019,0.072-0.026,0.111-0.022
	c-0.007-0.222-0.015-0.444-0.022-0.665h0.044c0.021-0.073,0.036-0.147,0.044-0.222V12h0.044v1.508
	c0.019,0.095,0.026,0.191,0.022,0.288c0.002,0.067,0.009,0.134,0.022,0.2l0.066,0.022c-0.007,0.155-0.015,0.311-0.022,0.466h0.044
	c0.507-0.174,1.063-0.142,1.547,0.089h0.022V14.6c-0.089,0-0.121-0.012-0.155,0.044c0.149,0.051,0.308,0.066,0.464,0.044
	C12.54,14.493,12.721,14.219,12.8,13.908z"/>
</svg>
