<?xml version="1.0" encoding="utf-8"?>
<!-- Generator: Adobe Illustrator 16.0.0, SVG Export Plug-In . SVG Version: 6.00 Build 0)  -->
<!DOCTYPE svg PUBLIC "-//W3C//DTD SVG 1.1//EN" "http://www.w3.org/Graphics/SVG/1.1/DTD/svg11.dtd">
<svg version="1.1" id="Layer_1" xmlns="http://www.w3.org/2000/svg" xmlns:xlink="http://www.w3.org/1999/xlink" x="0px" y="0px"
	 width="39.969px" height="40px" viewBox="0 0 39.969 40" enable-background="new 0 0 39.969 40" xml:space="preserve">
<path id="Color_Fill_1" fill="#FFFFFF" d="M12.195,15.394c0.063-0.028,0.128-0.053,0.194-0.074v0.223
	c0.118,0.012,0.231-0.045,0.291-0.148c0.016-0.021,0.024-0.047,0.024-0.074h-0.17l-0.073-0.1c0.063-0.088,0.098-0.192,0.1-0.3h0.049
	c0.013,0.02,0.029,0.037,0.05,0.049c-0.028,0.026-0.046,0.062-0.05,0.1c0.058,0.042,0.124,0.067,0.194,0.074
	c0-0.1-0.014-0.048,0.048-0.124c-0.042,0.007-0.086,0-0.124-0.02c0.474-0.052,0.856-0.061,1.311-0.074v-0.051
	c-0.067-0.014-0.122-0.061-0.146-0.124h0.024v-0.024h0.023v0.025c0.149,0.078,0.32,0.104,0.485,0.074
	c0.036,0.062,0.011,0.038,0.1,0.049c0.036-0.309,0.002-0.622-0.1-0.915c0.003,0.035-0.006,0.07-0.024,0.1v-0.124h-0.1
	c-0.007,0.043-0.034,0.081-0.073,0.1c-0.002-0.019-0.011-0.036-0.023-0.049c-0.059,0.111-0.106,0.227-0.146,0.346h-0.142
	c0.018-0.135,0.042-0.268,0.073-0.4c-0.107-0.073-0.235-0.108-0.364-0.1c-0.19,0.137-0.421,0.207-0.655,0.2v-0.048
	c-0.064-0.151-0.113-0.309-0.146-0.47c0.212,0.099,0.445,0.142,0.679,0.124c0.14-0.036,0.238-0.123,0.388-0.148
	c-0.001-0.051,0.008-0.101,0.024-0.148h0.023v0.074c0.089-0.011,0.179-0.011,0.268,0c0.016,0.021,0.023,0.047,0.023,0.074
	c0.277-0.014,0.553-0.048,0.825-0.1v-0.172h0.1c0,0.051,0.008,0.101,0.024,0.148l0.121-0.049l0.024,0.074
	c0.081-0.008,0.164,0.001,0.242,0.025c0.019,0.03,0.027,0.065,0.024,0.1l0.9,0.05l0.048-0.074c0.035-0.011,0.073-0.001,0.1,0.025
	l0.049-0.074c0.024-0.008,0.325,0.049,0.438,0.049v0.074h0.34c0.002-0.069,0.019-0.137,0.049-0.2h0.024v0.025
	c0.035,0.05,0.053,0.111,0.049,0.173H18v0.1h-0.881v0.223c-0.071,0.02-0.145,0.028-0.219,0.025
	c-0.021-0.016-0.046-0.025-0.072-0.025c0.041,0.428,0.033,0.859-0.024,1.286h0.1v0.074c0.058,0.001,0.115,0.01,0.171,0.025V15.3
	h-0.028c-0.021,0.016-0.076,0.033-0.101,0.049h0.023c0.047,0.021,0.096,0.037,0.146,0.049v0.074c0.225,0,0.357,0.079,0.581,0.1v-0.1
	c0.125-0.171,0.162-0.391,0.101-0.593c0.058-0.116,0.092-0.242,0.1-0.371h1.747c0.09,0.024,0.229,0.1,0.315,0.124
	c0.058,0.006,0.116-0.003,0.17-0.025h0.7c0,0.423,0,0.713,0,1.112h-0.436v0.071h0.049c0.438,0.216,0.919,0.334,1.407,0.346
	c0.146,0.09,0.314,0.133,0.485,0.124v0.074l0.145,0.025c-0.002-0.034-0.011-0.068-0.023-0.1h0.049v0.025
	c0.02,0.038,0.028,0.081,0.023,0.124c-0.015,0.021-0.023,0.047-0.023,0.074h0.1c0.043-0.078,0.101-0.146,0.17-0.2
	c0.114-0.032,0.235,0.02,0.291,0.124c0.063,0.15,0.035,0.322-0.072,0.445c0.146-0.019,0.113-0.082,0.267-0.101v0.024h0.024V16.8
	h-0.101c0.021,0.105,0.048,0.074,0.073,0.173c0.164,0.007,0.323,0.059,0.461,0.148c0.012,0.035,0.028,0.068,0.049,0.1h0.192
	c0.317,0.076,0.779-0.039,1.14,0c0.258,0.028,0.708-0.031,0.946,0c0.062,0.024,0.119,0.059,0.17,0.1h2.014
	c0.146,0,0.217,0.035,0.315,0.025v-0.271c0.731,0.105,1.475,0.105,2.207,0c-0.001,0.075,0.007,0.149,0.023,0.223h0.073
	c0.256-0.095,0.531-0.12,0.8-0.073v0.024h0.021v0.074c0.8-0.059,1.604-0.042,2.399,0.049c0.268,0.036,0.539,0.02,0.801-0.049h3.93
	c0.037,0.028,0.071,0.063,0.1,0.1h0.51c-0.001-0.026,0.008-0.053,0.023-0.073c0.064-0.014,0.129-0.021,0.194-0.025V17.3h-0.17
	c-0.054-0.023-0.112-0.032-0.17-0.024v-0.051c-0.019-0.066-0.019-0.135,0-0.201c0.04-0.015,0.082-0.022,0.125-0.023
	c0.094,0.031,0.191,0.049,0.291,0.049c0.101,0.098,0.161,0.23,0.17,0.371h0.097v0.62c-0.281,0.006-0.429,0-0.728,0h-0.341
	c-0.487,0.139-0.998,0.173-1.5,0.101l-0.605,0.024c-0.468-0.052-0.938-0.061-1.407-0.024l-0.314,0.024
	c-0.308-0.091-0.63-0.116-0.946-0.074c-0.401,0.062-0.809,0.078-1.213,0.05c-0.416,0-0.893,0.022-1.237,0
	c0,0.025-0.008,0.052-0.024,0.073c-0.207,0.044-0.419,0.061-0.631,0.05c-0.074-0.063-0.169-0.099-0.267-0.1v0.049
	c0,0-0.456-0.049-0.509-0.049c-0.567-0.025-1.136-0.01-1.7,0.049c0-0.026-0.008-0.053-0.024-0.074
	c-0.045-0.021-0.095-0.03-0.145-0.024c-0.443,0.046-0.89,0.054-1.334,0.024h-0.828c-0.02,0.037-0.044,0.07-0.073,0.101h-2.255
	c-0.106,0.051-0.205,0.118-0.291,0.2l-0.655,0.123l-0.049,0.101c-0.143,0.193-0.365,0.312-0.605,0.321
	c-0.043-0.079-0.111-0.141-0.194-0.174c-0.003,0.035-0.011,0.068-0.024,0.101c0.062,0.028,0.127,0.044,0.194,0.049v0.074h0.146
	v-0.056l0.34,0.049c0.011-0.066,0.074-0.111,0.142-0.1c0.001,0,0.003,0,0.004,0c0.014,0.014,0.03,0.022,0.049,0.025v0.1
	c0.169,0,0.247-0.1,0.51-0.1c0.095,0.081,0.2,0.148,0.314,0.199l0.024,0.074c0.136,0.023,0.273,0.04,0.412,0.049
	c-0.012-0.066-0.004-0.137,0.023-0.199h0.8v0.273c0.089,0.025,0.171,0.067,0.243,0.125c0.082-0.084,0.2-0.122,0.315-0.101
	c-0.01,0.067-0.002,0.137,0.023,0.2c0.094,0.083,0.2,0.15,0.315,0.199c0.051-0.008,0.1-0.025,0.146-0.049
	c0.094,0.051,0.183,0.109,0.268,0.174c0.121,0.022,0.247,0.014,0.364-0.025c-0.132,0.016-0.265-0.002-0.389-0.049
	c-0.013-0.014-0.021-0.031-0.023-0.049c0.046-0.094,0.063-0.197,0.049-0.301h0.267c0.006-0.052,0.022-0.102,0.049-0.147
	c0.298,0.147,0.605,0.271,0.923,0.371c0.047-0.015,0.096-0.022,0.146-0.025c0.134,0.054,0.035,0.06,0.1,0.124
	c0.12,0.061,0.257,0.078,0.389,0.051c0.265,0.396,0.603,0.741,0.995,1.014h0.064v0.074c0.293,0.156,0.479,0.459,0.485,0.791
	c-0.116,0.055-0.248,0.147-0.364,0.199c-0.185,0.036-0.363,0.094-0.534,0.174c-0.02,0.037-0.028,0.08-0.023,0.123
	c0.108,0.521-0.035,1.062-0.389,1.459c-0.388,0.306-0.822,0.548-1.285,0.717c-0.9,0.457-1.844,0.918-2.741,1.385
	c-0.683,0.209-1.4,0.277-2.11,0.199H6.664c-0.463,0.04-0.929,0.012-1.384-0.082c-0.539-0.246-1.043-0.562-1.5-0.939
	c-0.435-0.3-0.879-0.538-1.31-0.841c-0.144-0.101-0.249-0.288-0.388-0.4c-0.082-0.045-0.155-0.104-0.218-0.173l-0.196-0.563
	c-0.035-0.003-0.068-0.012-0.101-0.025v0.271c0.054,0.107,0.078,0.227,0.073,0.347L1.569,23.6c-0.031,0.021-0.064,0.037-0.1,0.049
	V23.6c-0.087-0.211-0.121-0.439-0.1-0.668c-0.189,0.017-0.37-0.08-0.461-0.246H0.891v0.1c-0.049,0.373-0.023,0.752,0.073,1.115
	l-0.195,0.072C0.681,23.492,0.664,23,0.72,22.514c-0.045-0.012-0.074-0.054-0.073-0.1H0.624v0.1
	c-0.022,0.047-0.03,0.098-0.024,0.148l-0.146-0.025l0.072-0.617c-0.044-0.153-0.101-0.302-0.17-0.445
	c-0.323-0.828-0.383-1.736-0.17-2.6c-0.172-0.088-0.254-0.287-0.193-0.471c0.054-0.023,0.104-0.058,0.146-0.1
	c0.104,0.022,0.209,0.039,0.315,0.049c0.075-0.051,0.146-0.105,0.215-0.166l0.509-0.025v-0.199h0.17v0.172
	c0.336,0.011,0.67,0.061,0.995,0.148h1.265v-0.07h0.101v0.073h2.567v-0.05c-0.048-0.063-0.031-0.041-0.023-0.124l0.073-0.024
	c0.21-0.061,0.436-0.014,0.605,0.123c0.271,0.017,0.542-0.018,0.8-0.1c0.101-0.021,0.204-0.002,0.291,0.05l0.34-0.024l0.024,0.1
	c-0.026,0-0.052,0.009-0.073,0.025h0.049c0.204,0.067,0.417,0.102,0.632,0.1l0.023-0.074H8.969c-0.07,0.025-0.147,0.025-0.218,0
	v-0.051c0.173,0.031,0.254-0.05,0.412-0.025v-0.074h0.218v0.025c-0.016,0.021-0.024,0.048-0.024,0.074
	c0.536,0.018,0.782,0.145,1.407,0.148v0.074c-0.079,0.02-0.037-0.013-0.073,0.049h0.578v-0.024
	c-0.177-0.034-0.348-0.093-0.509-0.173c-0.359-0.143-0.72-0.249-1.067-0.371c-0.168-0.01-0.332-0.053-0.484-0.124
	c-0.035,0.03-0.019,0.082-0.101,0.074c-0.229-0.044-0.456-0.101-0.679-0.173c-0.399-0.168-0.827-0.26-1.26-0.271
	c0.011-0.075,0.002-0.152-0.024-0.223V17.3H6.397v0.074L5.912,17.4l0.023-0.445L5.257,16.98l-0.048-1.066
	c0.312-0.021,0.628-0.048,0.97-0.049v0.223h0.1c0.013,0.02,0.029,0.037,0.05,0.049c-0.02,0.043-0.064,0.046-0.024,0.074
	c0.04,0.028,0.012,0.016,0.049,0c0.094-0.176,0.227-0.328,0.389-0.445c0.177-0.093,0.505-0.046,0.631-0.124
	c-0.035,0.003-0.071-0.005-0.101-0.025c0.035,0.003,0.07-0.006,0.101-0.025c0.169-0.268-0.101-0.608,0.1-0.915
	c0.021-0.016,0.047-0.024,0.073-0.025c0.197,0.052,0.401,0.077,0.605,0.074c0.337,0.077,0.754,0.073,1.093,0.148
	c0.135,0.03,0.307-0.011,0.411,0.025c-0.049,0.082-0.074,0.176-0.072,0.272h0.558c0.188-0.195,0.309-0.447,0.34-0.717h0.189
	c-0.008,0.096,0.019,0.192,0.073,0.272c0.107,0.1,0.23,0.184,0.363,0.247c-0.002,0.019-0.011,0.036-0.023,0.049
	c-0.061,0.123-0.134,0.239-0.219,0.346h0.024c0.186-0.011,0.372-0.011,0.558,0c0,0.026,0.009,0.053,0.024,0.074v-0.023
	c0.093-0.262,0.118-0.542,0.073-0.816c-0.011-0.445,0.038-1.176-0.024-1.656h0.073v-0.223h-0.077c-0.022-0.073-0.022-0.15,0-0.223
	c-0.06-0.032-0.017,0.011-0.049-0.049c0.119,0,0.11-0.026,0.1-0.2c-0.075,0.035-0.073,0.012-0.072,0.173h-0.075v-0.05
	c0.087-0.055,0.027-0.075,0-0.148c0.067-0.077,0.164-0.122,0.267-0.124l0.146,0.124c-0.034,0.063-0.034,0.137,0,0.2h-0.024v0.025
	c-0.013-0.014-0.021-0.031-0.023-0.049c-0.022-0.046-0.03-0.097-0.024-0.148h-0.122V12.3c0.062,0.01,0.038-0.014,0.049,0.074
	c-0.064,0.042-0.005,0.021-0.023,0.1h0.023c0.033-0.011,0.066-0.02,0.101-0.025V12.5h-0.028v0.025c-0.055-0.01-0.026-0.023-0.073,0
	c0.03,0.006,0.057,0.024,0.073,0.049v0.049c0.007,0.141-0.001,0.281-0.024,0.42l-0.072,0.025v0.4
	c-0.005,0.388,0.011,0.776,0.048,1.162c0.071,0.092,0.114,0.204,0.121,0.321h-0.023c-0.003-0.095-0.027-0.188-0.073-0.272h-0.024
	v0.371c0.018,0.1,0.018,0.201,0,0.3c0.059,0.022,0.039,0.026,0.1,0.049V15c0.052-0.006,0.102-0.023,0.146-0.049
	c-0.058-0.204-0.05-0.42,0.023-0.618V8.225C11.93,7.484,11.937,6.74,12.001,6c0.013,0.014,0.021,0.031,0.023,0.049
	c0.04,0.17,0.048,0.346,0.024,0.519v6.18c-0.065,0.618-0.041,1.243,0.073,1.854V6.865h0.047v8.01
	C12.21,15.045,12.22,15.221,12.195,15.394z M11.589,12.254V12.3h0.023v-0.045L11.589,12.254L11.589,12.254z M11.71,12.279
	c0.026,0.028,0.026,0.072,0,0.1V12.279z M11.516,12.353c0.026,0.028,0.026,0.072,0,0.1V12.353z M11.54,12.5
	c-0.001,0.026,0.008,0.053,0.023,0.074C11.565,12.547,11.556,12.521,11.54,12.5z M11.54,12.772c0.013,0.013,0.021,0.031,0.023,0.049
	H11.54v-0.047V12.772z M16.294,13.662c-0.074,0.046-0.267,0-0.34,0.049h0.437v-0.022h0.024v-0.025h-0.121V13.662z M15.76,13.983
	v0.148h-0.121v0.049c0.021,0.046,0.03,0.097,0.024,0.148h-0.194c-0.014,0.191-0.038,0.381-0.073,0.569
	c0.035-0.003,0.07,0.005,0.101,0.025c-0.014,0.014-0.021,0.031-0.024,0.049h0.146c0.116,0.035,0.239,0.045,0.36,0.029v-0.842
	c0.083-0.097,0.192-0.167,0.315-0.2c-0.042,0.281-0.025,0.567,0.049,0.841c0-0.289,0.017-0.584,0.024-0.841
	c-0.225-0.039-0.453-0.047-0.68-0.025v0.049L15.76,13.983L15.76,13.983z M14.765,14.329c0.063,0.191,0.089,0.393,0.073,0.593h0.023
	c0.12-0.026,0.242-0.042,0.364-0.049c-0.032-0.074-0.076-0.1,0-0.148V14.7h0.024l0.023,0.1h0.024c0.021-0.132,0.021-0.267,0-0.4
	c-0.039-0.015-0.08-0.023-0.121-0.025c-0.037,0.021-0.079,0.029-0.121,0.025c0-0.026-0.008-0.053-0.023-0.074
	c-0.03-0.019-0.065-0.028-0.101-0.025c-0.051,0.024-0.106,0.035-0.163,0.03L14.765,14.329z M14.28,14.403
	c0.064,0.02,0.129,0.036,0.194,0.049c0.003,0.034,0.011,0.068,0.024,0.1h-0.047V14.48h-0.171v-0.075L14.28,14.403z M12.097,14.749
	c-0.005,0.043,0.004,0.086,0.024,0.124c0.004-0.042-0.004-0.084-0.023-0.121L12.097,14.749z M15.178,14.922
	c0.044,0.031,0.103,0.031,0.146,0H15.178z M11.778,14.947c0.021,0.047,0.012,0.018,0,0.074h-0.02L11.778,14.947z M15.805,15.047
	c0.027,0.028,0.071,0.028,0.099,0.001c0.001,0,0.001,0,0.001-0.001H15.805z M13.767,15.072c0.013,0.013,0.03,0.021,0.048,0.025
	c-0.013-0.013-0.028-0.021-0.046-0.024L13.767,15.072z M13.985,15.072c0.036,0.027,0.086,0.027,0.121,0H13.99H13.985z
	 M14.543,15.319h0.1v-0.246h-0.144V15.1c0.056,0.059,0.074,0.143,0.049,0.22L14.543,15.319z M14.81,15.072
	c-0.008,0.059,0.001,0.118,0.024,0.173c0.009-0.058,0.002-0.118-0.021-0.172L14.81,15.072z M15.247,15.072
	c0.043,0.031,0.102,0.031,0.146,0h-0.142H15.247z M14.98,15.146c-0.006,0.051,0.002,0.102,0.024,0.148
	c0.007-0.05,0-0.101-0.021-0.147L14.98,15.146z M9.643,15.246c0.104,0.077,0.234,0.113,0.364,0.1c0.021-0.031,0.038-0.064,0.049-0.1
	H9.648H9.643z M12.19,15.493c0.042,0.022,0.031,0.022,0.073,0h-0.068H12.19z M11.559,15.567c0.036,0.027,0.085,0.027,0.121,0h-0.116
	H11.559z M6.198,16.235v0.049h0.028c-0.002-0.019-0.011-0.036-0.023-0.049H6.198z M6.198,16.309v0.049h0.028
	c-0.002-0.019-0.011-0.036-0.023-0.049H6.198z M6.271,16.309c0,0.026,0.009,0.053,0.024,0.074c0.002-0.026-0.005-0.052-0.02-0.074
	H6.271z M22.79,16.409c-0.047,0.034-0.074,0.089-0.073,0.147c0,0,0.032,0.071,0.049,0.049v-0.024
	c0.025-0.034,0.061-0.06,0.101-0.074v0.05c-0.032,0.043-0.042,0.039-0.024,0.073c0.039,0.056,0.04,0.052,0.073,0.05
	c0.057-0.051,0.084-0.126,0.072-0.201c-0.052-0.048-0.121-0.074-0.192-0.071L22.79,16.409z M6.198,16.458
	c-0.019,0.124-0.01,0.251,0.023,0.371c0.02-0.124,0.014-0.251-0.019-0.372L6.198,16.458z M6.271,16.779v0.173h0.054v-0.025h0.024
	c-0.019-0.052-0.043-0.102-0.073-0.147H6.271z M6.15,16.927c-0.026,0-0.052,0.009-0.072,0.025c-0.021,0.038-0.029,0.081-0.024,0.124
	h0.053c0.014-0.014,0.03-0.022,0.049-0.025v-0.124H6.15z M6.199,16.927C6.2,16.953,6.21,16.979,6.227,17
	c0-0.026-0.008-0.052-0.023-0.073H6.199z M5.981,16.952c-0.008,0.059,0.001,0.118,0.024,0.173c0.009-0.059,0.002-0.118-0.021-0.173
	H5.981z M6.321,17.025c-0.021,0.021-0.038,0.047-0.049,0.074h0.053c0.015-0.027,0.042-0.045,0.072-0.049v-0.025H6.324H6.321z
	 M6.203,17.1c-0.004,0.035,0.005,0.07,0.023,0.101C6.23,17.165,6.222,17.13,6.203,17.1z M6.446,17.1
	c-0.031,0.037-0.073,0.063-0.12,0.074V17.2h0.29v-0.026C6.554,17.162,6.496,17.137,6.446,17.1z M6.155,17.225
	c0.001-0.027-0.008-0.053-0.023-0.074c-0.021,0.02-0.046,0.036-0.073,0.049v0.025h0.101H6.155z M9.355,17.669
	c-0.021,0.081-0.049,0.101-0.072,0.173h0.1c0.017-0.061,0.042-0.118,0.073-0.173H9.355z M1.544,18.361
	c0.052,0.032,0.118,0.032,0.17,0H1.546H1.544z M9.622,18.534V18.46H9.478v0.049L9.622,18.534z M0.574,18.607
	c0.002-0.033,0.01-0.067,0.023-0.1H0.551c-0.021,0.031-0.038,0.064-0.049,0.1H0.574L0.574,18.607z M0.186,18.534
	c-0.062,0.056-0.09,0.141-0.073,0.223h0.051c0.083,0.011,0.158-0.05,0.169-0.133c0-0.005,0.001-0.01,0.001-0.015h0.023v-0.026H0.333
	C0.294,18.545,0.24,18.527,0.186,18.534L0.186,18.534z M10.204,18.559v0.074c0.155,0.012,0.312-0.006,0.461-0.049L10.204,18.559z
	 M0.212,19.2c-0.003,0.034-0.011,0.067-0.024,0.1h0.024c0.013-0.013,0.03-0.022,0.049-0.024C0.258,19.243,0.24,19.215,0.212,19.2z
	 M0.236,19.3v0.05H0.26C0.258,19.331,0.249,19.313,0.236,19.3z M0.187,19.374v0.101h0.101v-0.101H0.187z M26.773,19.475
	c0.034,0.044,0.092,0.063,0.146,0.049V19.5L26.773,19.475z M0.163,19.548c-0.003,0.035,0.005,0.07,0.023,0.101
	C0.19,19.613,0.182,19.578,0.163,19.548z M27.163,19.695c0.058,0.009,0.116,0,0.17-0.024c-0.06-0.007-0.117-0.022-0.17-0.049V19.7
	V19.695z M27.381,19.896c0.075-0.005,0.148-0.021,0.218-0.049V19.77c-0.055-0.02-0.112-0.027-0.17-0.024
	c-0.031,0.044-0.049,0.095-0.049,0.149L27.381,19.896z M0.139,19.82c0,0.026,0.008,0.053,0.024,0.074V19.82H0.139z M27.889,19.895
	v0.049c0.035,0.003,0.07-0.006,0.1-0.025L27.889,19.895z M0.669,21.328C0.644,21.326,0.619,21.316,0.6,21.3
	c-0.02-0.038-0.028-0.081-0.023-0.124H0.6c-0.002,0.047,0.028,0.088,0.073,0.1v-0.59h0.023V20.66H0.669
	c-0.087-0.051-0.134-0.148-0.121-0.247c0.02-0.091,0.011-0.187-0.024-0.272H0.187c0.008-0.059,0-0.118-0.023-0.173
	c0.031,0.464,0.155,0.917,0.363,1.332c0.025,0.179,0.075,0.354,0.146,0.519v-0.49H0.669z M28.783,22.416
	c0,0.053,0.017,0.105,0.049,0.148c0.004-0.098,0.015-0.112-0.045-0.149L28.783,22.416z M28.637,23.182l-0.024,0.049
	c0.047-0.03,0.028-0.049,0.028-0.049H28.637z M28.669,23.23l-0.024,0.05C28.683,23.246,28.669,23.23,28.669,23.23z M28.596,23.256
	l-0.024,0.049c0.039-0.033,0.021-0.049,0.021-0.049H28.596z M26.655,23.503c-0.036,0.038-0.076,0.071-0.12,0.101v0.024h0.023
	l0.045,0.072c0.019-0.003,0.036-0.012,0.049-0.025l0.073-0.024c-0.015-0.055-0.04-0.105-0.073-0.15L26.655,23.503z M2.131,23.577
	c-0.008,0.034,0.034,0.036,0.049,0.049c0.013-0.026-0.045-0.041-0.052-0.049H2.131z M2.007,23.6l0.072,0.076
	C2.068,23.641,2.041,23.613,2.007,23.6z M26.313,23.625c-0.029,0.02-0.064,0.027-0.1,0.025v0.024c0.037,0.037,0.06,0.087,0.1,0.124
	c0.036-0.043,0.099-0.055,0.146-0.025l-0.073-0.147L26.313,23.625L26.313,23.625z M25.998,23.674v0.076
	c-0.044,0.006-0.086,0.023-0.121,0.05c0.078,0.062,0.144,0.137,0.193,0.222h0.05c0.022-0.025,0.047-0.051,0.072-0.073
	c-0.043-0.094-0.061-0.198-0.049-0.3h-0.025c-0.037,0.021-0.079,0.031-0.121,0.027L25.998,23.674z M2.105,23.674
	c-0.008,0.034,0.034,0.036,0.049,0.049c0.016-0.022-0.044-0.039-0.05-0.047L2.105,23.674z M28.105,23.773
	c-0.021,0.021-0.046,0.038-0.072,0.051v0.025h0.049c0.015-0.027,0.042-0.047,0.072-0.05v-0.024h-0.047L28.105,23.773z
	 M25.243,23.975c-0.028,0.163-0.028,0.33,0,0.493c0.063-0.059,0.063-0.09,0.146-0.073c-0.04-0.08-0.073-0.162-0.1-0.248h0.023
	v-0.025h0.057c0.061,0.07,0.117,0.146,0.17,0.223l0.072-0.025c0.02-0.072,0.028-0.147,0.024-0.223
	c-0.021-0.046-0.03-0.098-0.024-0.147h0.05v-0.025h0.023c0.006,0.083,0.051,0.157,0.121,0.2c0.038-0.029,0.071-0.063,0.1-0.1
	c-0.026-0.077-0.06-0.151-0.1-0.223c-0.174,0.093-0.364,0.151-0.561,0.172L25.243,23.975z M3.509,24.048L3.46,24.122
	c0.009,0.004,0.117-0.065,0.051-0.075L3.509,24.048z M3.63,24.073l-0.024,0.173c0.031,0.003,0.059,0.021,0.073,0.049
	c0.061-0.025,0.111-0.068,0.146-0.124c-0.06-0.043-0.124-0.076-0.193-0.099L3.63,24.073z M2.611,24.122
	c-0.008,0.034,0.034,0.036,0.05,0.05c0.018-0.027-0.04-0.043-0.048-0.051L2.611,24.122z M27.475,24.122
	c0,0.035-0.02-0.011-0.023,0.024c-0.048,0.02,0.049,0.025,0.049,0.025c0.013-0.014,0.03-0.021,0.049-0.025v-0.025h-0.072
	L27.475,24.122z M3.921,24.223L3.848,24.37c0.132-0.019,0.101,0.087,0.146,0.024c0.026-0.016,0.045-0.043,0.049-0.074h0.025v-0.026
	H4.044c-0.036-0.03-0.077-0.056-0.121-0.074L3.921,24.223z M4.139,24.346L4.09,24.568c0.063,0.02,0.058,0.031,0.121,0.051v-0.028
	c0.059-0.038,0.108-0.089,0.146-0.147c-0.068-0.04-0.141-0.073-0.216-0.1L4.139,24.346z M26.939,24.396
	c-0.013,0.014-0.03,0.021-0.049,0.024v0.024h0.049c0.014-0.013,0.03-0.021,0.049-0.024v-0.028h-0.045L26.939,24.396z M3.119,24.47
	c-0.006,0.03,0.038,0.03,0.05,0.048c0.019-0.027-0.04-0.043-0.047-0.051L3.119,24.47z M22.019,24.791h0.073v0.05
	c0.043,0.085,0.068,0.177,0.073,0.272h0.121c0.091-0.209,0.073-0.45-0.05-0.644v0.025c-0.075,0.073-0.1,0.2-0.17,0.272l-0.218,0.123
	v0.2h0.021c0.029-0.077,0.009-0.056,0.1-0.073c0.012,0.026,0.028,0.052,0.049,0.073L22.019,24.791L22.019,24.791z M25.075,24.47
	c-0.039,0.051-0.064,0.11-0.073,0.173v0.025l0.073-0.025c0.028-0.055,0.03-0.121,0-0.176V24.47z M4.432,24.495
	c-0.023,0.071-0.058,0.138-0.1,0.2c0.053,0.002,0.104,0.02,0.146,0.05c0.036-0.033,0.062-0.077,0.073-0.124
	c-0.028-0.053-0.069-0.097-0.119-0.129V24.495z M19.108,25.014c0.045,0.006,0.087,0.022,0.121,0.051v-0.275h0.073l0.049,0.32h0.146
	c0.003-0.187-0.057-0.369-0.17-0.519c-0.149,0.122-0.237,0.302-0.243,0.494h0.023v-0.074V25.014z M26.385,24.668
	c-0.013,0.014-0.03,0.022-0.049,0.025v0.024h0.049c0.014-0.013,0.03-0.022,0.049-0.024v-0.028h-0.049V24.668z M16.245,25.113h0.124
	v-0.053c0.039-0.096,0.063-0.196,0.072-0.3c-0.03-0.061,0.011-0.017-0.049-0.049c-0.091,0.052-0.153,0.144-0.17,0.247
	c0.021,0.047,0.029,0.1,0.022,0.15V25.113z M3.608,24.789c-0.008,0.034,0.034,0.036,0.05,0.05C3.669,24.813,3.614,24.8,3.608,24.789
	z M4.603,24.789c-0.008,0.07-0.025,0.051,0,0.1c0.03,0.029,0.063,0.055,0.101,0.074C4.676,24.901,4.643,24.843,4.603,24.789
	L4.603,24.789z M13.457,24.789c-0.093,0.07-0.14,0.186-0.121,0.3h0.022c0.044-0.078,0.038-0.071,0.121-0.05
	C13.526,24.959,13.516,24.859,13.457,24.789L13.457,24.789z M10.425,25.012c0.058,0.002,0.11,0.029,0.146,0.074v-0.248h-0.025
	c-0.095,0.045-0.152,0.143-0.146,0.247h0.024v-0.074L10.425,25.012z M16.489,24.889c0.002,0.058,0.01,0.115,0.024,0.172
	c0.013-0.014,0.021-0.031,0.024-0.05c0.019-0.002,0.036-0.011,0.049-0.024C16.551,24.956,16.518,24.924,16.489,24.889L16.489,24.889
	z M7.589,24.913c-0.059,0.038-0.096,0.103-0.101,0.173h0.024c0.03-0.077,0.009-0.056,0.1-0.074c0.013,0.027,0.029,0.053,0.05,0.074
	v-0.148L7.589,24.913z M16.127,24.913c-0.059,0.03-0.103,0.084-0.121,0.147h0.023c0.044-0.069,0.028-0.041,0.101-0.024v-0.101h0.019
	v-0.023h-0.024L16.127,24.913z M18.82,25.113h0.121c0.007-0.068,0.023-0.137,0.05-0.2h-0.028c-0.074,0.042-0.127,0.114-0.146,0.196
	L18.82,25.113z M22.434,24.913v0.147h0.024c0.017-0.031,0.042-0.057,0.072-0.074L22.434,24.913z M25.834,24.938
	c0,0.035-0.021-0.01-0.024,0.025c-0.047,0.02,0.049,0.025,0.049,0.025c0.014-0.014,0.03-0.022,0.05-0.025v-0.025h-0.081H25.834z
	 M13.22,25.111l0.024-0.148h-0.031c-0.043,0.041-0.092,0.076-0.146,0.1v0.025h0.024c0.037,0.02,0.08,0.027,0.122,0.021L13.22,25.111
	z M13.632,25.111h0.1v-0.026l-0.121-0.101v0.025c0.016,0.031,0.021,0.066,0.016,0.1L13.632,25.111z M21.71,25.111l0.023-0.125h-0.03
	c-0.036,0.031-0.07,0.064-0.101,0.101h-0.021v0.022h0.121L21.71,25.111z M10.697,25.037c0.054,0.09,0.073,0.074,0.073,0.074
	c-0.024-0.027-0.051-0.052-0.079-0.075L10.697,25.037z M7.297,25.063c-0.02,0.017-0.054,0.031-0.073,0.049
	c0.091,0,0.085,0.012,0.121-0.049h-0.05H7.297z M10.135,25.063c0.007,0.063-0.011,0.043,0.1,0.049v-0.026h0.024v-0.024h-0.126
	L10.135,25.063z M15.835,25.063c-0.02,0.017-0.055,0.031-0.073,0.049c0.091,0,0.085,0.012,0.121-0.049h-0.05H15.835z M4.119,25.136
	c-0.009,0.034,0.033,0.036,0.049,0.05c0.014-0.027-0.044-0.043-0.051-0.051L4.119,25.136z M25.295,25.21
	c-0.014,0.014-0.03,0.022-0.049,0.024v0.025h0.049c0.013-0.014,0.03-0.021,0.049-0.025v-0.025h-0.051L25.295,25.21z M6.253,25.434
	v0.049c0.035,0.003,0.07-0.006,0.1-0.025c-0.035-0.003-0.069-0.012-0.101-0.025L6.253,25.434z M6.932,25.434
	c0.014,0.013,0.03,0.021,0.049,0.024c-0.013-0.015-0.03-0.024-0.05-0.026L6.932,25.434z M11.032,25.434
	c0.042,0.021,0.03,0.021,0.072,0H11.03H11.032z M16.032,25.434c0.013,0.013,0.03,0.021,0.049,0.024
	c-0.015-0.015-0.033-0.024-0.055-0.026L16.032,25.434z M16.541,25.434c0.013,0.013,0.03,0.021,0.049,0.024
	c-0.014-0.015-0.033-0.024-0.053-0.026L16.541,25.434z M17.05,25.434c0.013,0.013,0.029,0.021,0.048,0.024
	c-0.014-0.015-0.032-0.024-0.052-0.026L17.05,25.434z M21.319,25.434c0.014,0.013,0.031,0.021,0.05,0.024
	c-0.015-0.015-0.033-0.024-0.054-0.026L21.319,25.434z M21.925,25.434c0.013,0.013,0.03,0.021,0.049,0.024
	c-0.014-0.015-0.032-0.024-0.052-0.026L21.925,25.434z M22.507,25.434c0.013,0.013,0.03,0.021,0.049,0.024
	c-0.014-0.015-0.032-0.024-0.052-0.026L22.507,25.434z M23.113,25.434c0.014,0.013,0.031,0.021,0.05,0.024
	c-0.014-0.015-0.032-0.024-0.053-0.026L23.113,25.434z M4.605,25.458c-0.008,0.034,0.034,0.036,0.049,0.05
	c0.016-0.029-0.045-0.044-0.052-0.052L4.605,25.458z M24.738,25.482c-0.013,0.014-0.03,0.023-0.049,0.025v0.022h0.049
	c0.014-0.014,0.031-0.022,0.05-0.025V25.48h-0.052L24.738,25.482z M24.107,25.755V25.8c0.042-0.012,0.083-0.028,0.121-0.049h-0.123
	L24.107,25.755z M16.248,25.779c0.013,0.014,0.03,0.023,0.049,0.025c-0.014-0.015-0.032-0.023-0.052-0.027L16.248,25.779z
	 M19.765,25.779c0.014,0.014,0.03,0.023,0.049,0.025c-0.013-0.014-0.031-0.023-0.051-0.027L19.765,25.779z M5.938,25.829
	c0.014,0.013,0.03,0.022,0.049,0.024c-0.013-0.014-0.031-0.023-0.051-0.026L5.938,25.829z M6.593,25.829
	c0.014,0.013,0.03,0.022,0.049,0.024c-0.014-0.014-0.031-0.023-0.051-0.026L6.593,25.829z M7.248,25.829
	c0.013,0.013,0.03,0.022,0.049,0.024c-0.014-0.014-0.031-0.023-0.051-0.026L7.248,25.829z M7.927,25.829
	c0.012,0.011,0.026,0.02,0.042,0.022c-0.012-0.012-0.027-0.021-0.044-0.024L7.927,25.829z M8.582,25.829
	c0.013,0.013,0.03,0.022,0.049,0.024C8.617,25.84,8.6,25.83,8.58,25.827L8.582,25.829z M9.261,25.829
	c0.042,0.022,0.031,0.022,0.073,0H9.259H9.261z M9.961,25.829c0.013,0.013,0.029,0.022,0.048,0.024
	c-0.012-0.014-0.028-0.022-0.046-0.026L9.961,25.829z M10.661,25.829c0.013,0.013,0.03,0.022,0.049,0.024
	c-0.011-0.012-0.025-0.021-0.041-0.026L10.661,25.829z M11.34,25.829c0.042,0.022,0.031,0.022,0.073,0h-0.067H11.34z M12.019,25.829
	c0.014,0.013,0.03,0.022,0.049,0.024c-0.011-0.013-0.026-0.021-0.043-0.026L12.019,25.829z M12.65,25.829
	c0.042,0.022,0.031,0.022,0.073,0h-0.067H12.65z M13.281,25.829c0.043,0.022,0.031,0.022,0.073,0h-0.067H13.281z M13.936,25.829
	c0.042,0.022,0.031,0.022,0.073,0h-0.068H13.936z M14.567,25.829c0.042,0.022,0.031,0.022,0.073,0h-0.071H14.567z M15.125,25.829
	c0.042,0.022,0.03,0.022,0.073,0H15.13H15.125z M15.683,25.829c0.042,0.022,0.031,0.022,0.073,0h-0.068H15.683z M16.241,25.829
	c0.013,0.013,0.03,0.022,0.049,0.024c-0.012-0.013-0.028-0.022-0.045-0.026L16.241,25.829z M16.775,25.829
	c0.042,0.022,0.031,0.022,0.073,0h-0.069H16.775z M17.333,25.829c0.042,0.022,0.03,0.022,0.072,0h-0.068H17.333z M17.915,25.829
	c0.042,0.022,0.03,0.022,0.072,0h-0.068H17.915z M18.521,25.829c0.042,0.022,0.031,0.022,0.073,0h-0.068H18.521z M19.127,25.829
	c0.042,0.022,0.031,0.022,0.073,0h-0.068H19.127z M19.758,25.829c0.013,0.013,0.03,0.022,0.049,0.024
	c-0.012-0.013-0.026-0.021-0.044-0.026L19.758,25.829z M20.364,25.829c0.042,0.022,0.031,0.022,0.073,0h-0.067H20.364z
	 M20.97,25.829c0.042,0.022,0.031,0.022,0.073,0h-0.067H20.97z M21.601,25.829c0.014,0.013,0.03,0.022,0.049,0.024
	c-0.012-0.013-0.026-0.021-0.044-0.026L21.601,25.829z M22.207,25.829c0.042,0.022,0.03,0.022,0.072,0h-0.066H22.207z
	 M22.813,25.829c0.042,0.022,0.031,0.022,0.073,0h-0.067H22.813z M23.444,25.829c0.042,0.022,0.031,0.022,0.073,0H23.45H23.444z
	 M5.93,25.879C5.978,25.9,5.969,25.9,6.009,25.876H5.936L5.93,25.879z M6.585,25.879c0.027,0.027,0.071,0.028,0.099,0.001
	c0.001,0,0.001-0.001,0.001-0.001H6.585z M7.24,25.879c0.026,0.027,0.071,0.028,0.099,0.001l0.001-0.001H7.24z M7.919,25.879
	c0.042,0.021,0.031,0.021,0.073,0H7.925H7.919z M8.574,25.879c0.026,0.027,0.071,0.028,0.099,0.001l0.001-0.001H8.574z
	 M9.253,25.879c0.027,0.027,0.071,0.028,0.099,0.001c0.001,0,0.001-0.001,0.001-0.001H9.259H9.253z M9.953,25.879
	c0.026,0.027,0.071,0.028,0.099,0.001l0.001-0.001H9.953z M10.653,25.879c0.027,0.027,0.072,0.028,0.1,0.001
	c0,0,0-0.001,0.001-0.001h-0.084H10.653z M11.332,25.879c0.035,0.027,0.085,0.027,0.121,0h-0.107H11.332z M11.987,25.879
	c0.036,0.027,0.086,0.027,0.121,0h-0.106H11.987z M12.642,25.879c0.027,0.027,0.071,0.028,0.1,0.001c0,0,0-0.001,0.001-0.001H12.642
	z M13.273,25.879c0.036,0.027,0.086,0.027,0.121,0h-0.107H13.273z M13.904,25.879c0.036,0.027,0.086,0.027,0.121,0h-0.107H13.904z
	 M14.535,25.879c0.035,0.027,0.085,0.027,0.12,0h-0.107H14.535z M15.117,25.879c0.026,0.027,0.071,0.028,0.099,0.001l0.001-0.001
	H15.117z M15.651,25.879c0.036,0.027,0.086,0.027,0.121,0h-0.108H15.651z M16.209,25.879c0.035,0.027,0.085,0.027,0.121,0h-0.109
	H16.209z M16.743,25.879c0.035,0.027,0.085,0.027,0.12,0h-0.108H16.743z M17.301,25.879c0.036,0.027,0.085,0.027,0.121,0h-0.109
	H17.301z M17.883,25.879c0.036,0.027,0.085,0.027,0.121,0h-0.109H17.883z M18.489,25.879c0.044,0.031,0.103,0.031,0.146,0h-0.134
	H18.489z M19.096,25.879c0.036,0.027,0.085,0.027,0.121,0h-0.109H19.096z M19.702,25.879c0.043,0.031,0.102,0.031,0.145,0h-0.133
	H19.702z M20.308,25.879c0.044,0.031,0.103,0.031,0.146,0h-0.134H20.308z M20.939,25.879c0.036,0.027,0.086,0.027,0.121,0h-0.108
	H20.939z M21.545,25.879c0.035,0.027,0.085,0.027,0.121,0h-0.108H21.545z M22.152,25.879c0.036,0.027,0.086,0.027,0.121,0h-0.104
	H22.152z M22.783,25.879c0.026,0.027,0.071,0.028,0.099,0.001l0.001-0.001H22.783z M23.389,25.879c0.036,0.027,0.085,0.027,0.121,0
	h-0.109H23.389z"/>
</svg>
