<?xml version="1.0" encoding="utf-8"?>
<!-- Generator: Adobe Illustrator 16.0.0, SVG Export Plug-In . SVG Version: 6.00 Build 0)  -->
<!DOCTYPE svg PUBLIC "-//W3C//DTD SVG 1.1//EN" "http://www.w3.org/Graphics/SVG/1.1/DTD/svg11.dtd">
<svg version="1.1" id="Layer_1" xmlns="http://www.w3.org/2000/svg" xmlns:xlink="http://www.w3.org/1999/xlink" x="0px" y="0px"
	 width="40px" height="40px" viewBox="0 0 40 40" enable-background="new 0 0 40 40" xml:space="preserve">
<path id="fr_m4a4_cn_75_50_ico" fill="#FFFFFF" d="M10.237,12.352c0.024,0,0.047,0.008,0.066,0.023
	c0.043,0.192,0.051,0.392,0.022,0.587c-0.064,0.244-0.071,0.498-0.022,0.745h0.022v0.023l0.221,0.023v0.068h0.132
	c0.042,0.161,0.271,0.122,0.463,0.113c0.103,0.071,0.235,0.088,0.353,0.045c-0.002-0.083,0.006-0.167,0.022-0.248
	c0.176-0.084,0.346-0.183,0.508-0.293c-0.013-0.093,0.002-0.187,0.044-0.271c0.046-0.029,0.175-0.015,0.221-0.045
	c0.101-0.127,0.133-0.295,0.088-0.451h0.11l0.022,0.181c0.1,0.038,0.112,0.039,0.11,0.18c-0.024,0.024-0.04,0.056-0.044,0.09h0.066
	c0.254-0.119,0.539-0.158,0.816-0.113c-0.011-0.076-0.003-0.153,0.022-0.226c-0.005,0.083,0.002,0.167,0.022,0.248l0.177,0.022
	c0.05-0.142,0.032-0.018,0.132-0.068c0.072-0.072,0.132-0.156,0.176-0.248c0.061,0.009,0.116,0.041,0.154,0.09
	c0.029,0.103,0.037,0.21,0.022,0.316c0.249,0.019,0.494,0.072,0.728,0.158c0.099,0.207,0.301,0.345,0.53,0.361
	c0.097-0.085,0.232-0.11,0.353-0.068c0.353,0.029,0.708,0.021,1.059-0.022v-0.634h0.088c-0.017,0.278-0.009,0.558,0.022,0.835
	c0.065,0.019,0.133,0.026,0.2,0.023c0.212-0.021,0.426-0.029,0.64-0.023v-0.406h0.066v0.474c-0.024,0-0.047,0.007-0.066,0.022
	c0.083,0.053,0.145,0.132,0.177,0.226c-0.01,0.122-0.033,0.243-0.066,0.361c0.029,0.107,0.087,0.1,0.221,0.09
	c0.177,0.059,0.365,0.082,0.552,0.068c0.2,0.024,0.5,0.13,0.728,0.18c0.084-0.01,0.166-0.032,0.243-0.068l0.022,0.068h0.419
	c0.081,0.024,0.148,0.11,0.221,0.135c0.122,0.01,0.241,0.041,0.354,0.09c0.018,0.028,0.032,0.059,0.043,0.09
	c0.326,0.056,0.645,0.147,0.949,0.271c0.074,0.088,0.105,0.203,0.088,0.316l16.416,0.158c0.59-0.095,1.189-0.125,1.787-0.09
	c0.054,0.214,0.068,0.436,0.043,0.654h-0.022v0.023c-0.588,0.075-1.185,0.052-1.765-0.068l-2.537,0.022h-1.479
	c-0.513,0.057-1.03,0.064-1.544,0.023l-2.779,0.023l-8.119,0.09c-0.003,0.108-0.025,0.216-0.066,0.316l-0.993,0.181
	c-0.012,0.093-0.083,0.166-0.176,0.18v0.023h0.11c0.085,0.029,0.174,0.044,0.265,0.045c0.023-0.042,0.053-0.08,0.088-0.113
	l0.601,0.068c-0.001,0.024,0.007,0.048,0.021,0.068v-0.022c0.053-0.094,0.161-0.14,0.266-0.113c0.049,0.018,0.1,0.032,0.152,0.042
	c0.004,0.125,0.034,0.248,0.088,0.36c0.152,0.036,0.307,0.059,0.463,0.068c0.218-0.037,0.441-0.005,0.641,0.09
	c0.063,0.174,0.085,0.359,0.065,0.542h0.419c0.006,0.16,0.027,0.319,0.066,0.474c0.174,0.125,0.393,0.166,0.6,0.113
	c0.076,0.066,0.144,0.143,0.2,0.227c0,0.111,0.03,0.221,0.088,0.316c0.038-0.084,0.037-0.053,0.154-0.046V19.1h0.065l0.022-0.112
	h0.022v-0.024c0.123-0.016,0.188-0.061,0.33-0.068v0.113h0.066V19.1h0.354c-0.039-0.104-0.092-0.201-0.154-0.293h0.01v-0.023
	l0.132-0.023c0.04,0.237,0.267,0.396,0.503,0.356c0.024-0.004,0.049-0.011,0.071-0.019l-0.065,0.564
	c0.023,0,0.047,0.008,0.065,0.023c0.022,0.057,0.03,0.119,0.022,0.18H26.1l-0.132,0.587c0.136,0.083,0.267,0.175,0.4,0.271
	l0.065,0.09h0.946c0.108,0.032,0.22,0.055,0.331,0.068c0.248,0.117,0.479,0.27,0.684,0.451c-0.117,0.096-0.209,0.221-0.265,0.361
	c0.065,0.106,0.177,0.192,0.243,0.293c0.023,0.063,0.054,0.123,0.088,0.181c-0.027,0.031-0.043,0.071-0.044,0.113
	c0.01,0.039,0.024,0.077,0.044,0.112c0.074,0,0.053-0.049,0.088,0.023c0.079,0.193,0.109,0.402,0.088,0.609h-0.088v0.199h0.066
	c-0.004,0.23-0.1,0.449-0.266,0.609c-0.041,0-0.02-0.021-0.043,0.023c-0.027,0.039-0.057,0.077-0.089,0.112
	c0.03,0.023,0.054,0.055,0.066,0.091c-0.163,0.125-0.312,0.269-0.441,0.429c-0.026-0.026-0.056-0.05-0.088-0.068
	c-0.024,0.036-0.093,0.056-0.11,0.09c-0.051,0.101,0.069,0.046-0.021,0.113c-0.111,0.099-0.229,0.188-0.354,0.271
	c-0.055-0.017-0.071-0.07-0.088-0.045c-0.059,0.056-0.104,0.124-0.132,0.2c-0.126,0.069-0.245,0.153-0.353,0.248
	c-0.035-0.021-0.066-0.082-0.088-0.045c-0.059,0.017-0.053,0.027-0.11,0.045c0.021,0.034,0.021,0.079,0,0.113
	c-0.118,0.12-0.261,0.214-0.419,0.271c-0.018-0.072,0.011-0.033-0.044-0.067c-0.022,0.03-0.054,0.054-0.088,0.067
	c0.015,0.037,0.015,0.077,0,0.113c-0.14,0.09-0.273,0.188-0.4,0.293h-0.021c-0.005-0.034-0.02-0.065-0.045-0.09v0.023
	c-0.084,0.145-0.217,0.256-0.375,0.315c-0.066,0.039-0.144,0.055-0.221,0.045c-0.014-0.02-0.021-0.044-0.021-0.067l-0.176,0.021
	v0.113c-0.168,0.007-0.357,0.021-0.553,0.023v-0.091H23.96v0.091h-0.551v-0.091h-0.155c0,0.024-0.008,0.049-0.021,0.068
	c-0.174,0.042-0.354,0.05-0.529,0.022v-0.09h-0.178v0.09h-0.551v-0.09H21.8v0.09h-0.53c-0.005-0.009-0.012-0.018-0.021-0.022v-0.063
	h-0.156v0.09h-0.551v-0.09h-0.177v0.09h-0.53v-0.09h-0.176v0.09h-0.53v-0.09h-0.176v0.09h-0.53
	c-0.005-0.009-0.013-0.017-0.022-0.022v-0.067h-0.154v0.09h-0.529c-0.005-0.009-0.013-0.017-0.022-0.022v-0.067H17.54v0.09h-0.552
	v-0.09h-0.154v0.09h-0.552v-0.09h-0.154v0.09h-0.552v-0.09h-0.154c-0.159,0.115-0.364,0.148-0.552,0.09v-0.09h-0.176v0.09h-0.53
	v-0.09h-0.176v0.09h-0.53v-0.09h-0.176v0.09h-0.53v-0.021H12.73v-0.068h-0.154v0.09h-0.552v-0.09H11.87
	c0,0.025-0.007,0.049-0.022,0.068c-0.173,0.042-0.353,0.05-0.529,0.023v-0.091h-0.177v0.091h-0.53v-0.091h-0.176v0.091h-0.53v-0.023
	H9.884v-0.068H9.73v0.09H9.178v-0.09H9.024v0.09H8.472v-0.09c-0.059-0.004-0.118-0.004-0.176,0v0.09h-0.53v-0.09
	c-0.059-0.004-0.118-0.004-0.177,0v0.09H7.06v-0.09c-0.059-0.004-0.118-0.004-0.177,0v0.09H6.354v-0.021H6.332v-0.068
	c-0.035-0.015-0.075-0.015-0.11,0c-0.056,0.033-0.034,0.01-0.044,0.09H5.626v-0.09c-0.035-0.015-0.075-0.015-0.11,0
	c-0.03,0.023-0.053,0.055-0.066,0.09c-0.147-0.1-0.435-0.047-0.574-0.158c0.019-0.026,0.019-0.063,0-0.09l-0.154-0.067
	c0.007,0.029,0.007,0.061,0,0.09H4.677C4.527,26.146,4.364,26.062,4.192,26c0.006-0.049-0.01-0.099-0.044-0.135l-0.11-0.045
	c-0.002,0.031-0.01,0.061-0.022,0.09c-0.198-0.064-0.379-0.173-0.53-0.316c0.012-0.012,0.02-0.027,0.022-0.045
	c-0.045-0.031-0.099-0.047-0.154-0.045c-0.022,0.025-0.054,0.042-0.088,0.045C3.116,25.444,2.953,25.36,2.78,25.3
	c0.039-0.108,0.006-0.128-0.132-0.157c-0.029,0.065-0.014,0.065-0.066,0.045L2.1,24.966c0.01-0.028,0.01-0.061,0-0.09
	c-0.045-0.04-0.097-0.071-0.154-0.09c-0.002,0.03-0.01,0.062-0.022,0.09c-0.191-0.068-0.37-0.167-0.53-0.293
	c0.014-0.02,0.022-0.044,0.022-0.067c-0.043-0.012-0.081-0.035-0.11-0.068c-0.059,0.025-0.046,0.043-0.11,0.068
	c-0.172-0.107-0.324-0.246-0.446-0.408c0.025-0.014,0.042-0.039,0.044-0.067c-0.029-0.023-0.052-0.055-0.066-0.09
	c-0.035,0.015-0.075,0.015-0.11,0c-0.137-0.159-0.222-0.355-0.243-0.564h0.066c0-0.061-0.008-0.121-0.022-0.18H0.331
	c-0.028-0.196-0.014-0.397,0.044-0.587c0.036-0.014,0.066-0.037,0.088-0.068c0.023-0.033,0.038-0.072,0.044-0.113
	c-0.033-0.004-0.064-0.02-0.088-0.045c0.068-0.196,0.191-0.369,0.353-0.5c0.033,0.039,0.016,0.023,0.044,0.023
	c0.039-0.035,0.068-0.081,0.084-0.132c-0.049-0.062-0.023-0.022,0-0.113c-0.167-0.085-0.322-0.191-0.463-0.315l-0.2-0.068
	l0.022-0.068L0,21.107v-0.045l0.375-0.113v-0.023H0.2v-0.045c0.077-0.027,0.146-0.074,0.2-0.135c0.027-0.04,0.042-0.088,0.041-0.137
	c0.072-0.019,0.034,0.012,0.066-0.045c0.006-0.021,0.017-0.008,0-0.022c-0.168-0.054-0.325-0.138-0.463-0.248
	c0.11-0.136,0.119-0.328,0.022-0.474c0.104-0.095,0.187-0.21,0.243-0.338h0.022c0,0.065-0.021,0.03,0,0.067
	c0.137,0.087,0.285,0.154,0.441,0.2c-0.033,0.051-0.063,0.104-0.088,0.158h0.044v0.023c0.022,0.021,0.022-0.022,0.022-0.023
	C0.888,19.65,0.999,19.38,1.081,19.1c0.008-0.105,0.046-0.207,0.11-0.293c0.035-0.019,0.071-0.034,0.109-0.047
	c-0.007-0.037-0.007-0.075,0-0.113c0.094-0.018,0.179-0.064,0.243-0.135c0.021-0.059,0.021-0.122,0-0.181
	c0.332,0,0.562-0.037,0.949-0.068v0.023h0.023L2.537,18.6H2.6l0.022-0.112h0.026c0,0.024,0.007,0.048,0.022,0.067v-0.021
	c0.017-0.04,0.048-0.073,0.088-0.091c0.36-0.088,0.73-0.126,1.1-0.112v-0.067c0.067-0.037,0.145-0.053,0.221-0.045
	c0.161-0.062,0.335-0.085,0.507-0.068c0.027,0.043,0.049,0.088,0.066,0.136c0.324-0.088,0.658-0.134,0.993-0.136
	c0.231-0.051,0.529,0,0.772-0.067c0.008,0,0.224-0.035,0.243-0.045l0.022-0.068c0.124,0.024,0.25,0.032,0.375,0.023
	c0.113-0.046,0.231-0.076,0.353-0.091c-0.01-0.107-0.032-0.213-0.066-0.315h0.025v-0.022c0.409-0.077,0.809-0.199,1.191-0.364
	c0.201,0,0.401,0.015,0.6,0.045v0.068L8.675,17.29l-0.022,0.068c-0.05,0.139-0.05,0.291,0,0.429h0.062
	C9,17.675,9.297,17.593,9.6,17.542c-0.002,0.031-0.01,0.062-0.022,0.09h0.24c0.118,0.008,0.234-0.024,0.331-0.09
	c-0.047-0.065-0.063-0.148-0.044-0.226h0.243V17.2c-0.249,0.017-0.494-0.064-0.684-0.226c-0.012-0.054-0.026-0.106-0.044-0.158
	c-0.078-0.019-0.152-0.049-0.221-0.09c-0.084-0.129-0.158-0.265-0.221-0.406c-0.202-0.28-0.457-0.517-0.75-0.7
	c-0.413-0.134-0.807-0.324-1.169-0.564c-0.156-0.332-0.074-0.727,0.2-0.97c0.086-0.064,0.17-0.076,0.265-0.135
	c0.168-0.105,0.036-0.184,0.375-0.181c0-0.066-0.021-0.031,0-0.068c0.277-0.044,0.559-0.052,0.838-0.023
	c-0.002,0.031-0.01,0.062-0.022,0.09c0.118-0.026,0.242,0.007,0.331,0.09l0.022,0.068h0.351c0.025-0.085,0.114-0.135,0.2-0.113
	v-0.063c0.2,0.009,0.255-0.029,0.243-0.248c0.019-0.376,0.011-0.753-0.022-1.128h0.022v-0.023h0.066
	c0-1.011,0.022-2.091,0.022-3.136C10.109,8.645,10.117,8.07,10.171,7.5h0.022v1.67c0.043,0.292,0.051,0.587,0.022,0.88
	C10.215,10.819,10.239,11.616,10.237,12.352z M2.581,18.443c0.014,0.021,0.022,0.044,0.022,0.068H2.581V18.443z"/>
</svg>
