<svg xmlns="http://www.w3.org/2000/svg" width="80" height="40" viewBox="0 0 80 40">
  <defs>
    <style>
      .cls-1 {
        fill: #fff;
        fill-rule: evenodd;
      }
    </style>
  </defs>
  <path id="Color_Fill_1" data-name="Color Fill 1" class="cls-1" d="M28.235,21.266H28.5a4.118,4.118,0,0,1,.089-1.658v3.055h1.953a0.907,0.907,0,0,1,.089-0.524v0.524c0.9,0,1.329-.131,2.042-0.087a2,2,0,0,1,.178.7,5.734,5.734,0,0,1,.089,2.182h0.178c-0.01-.441-0.194-0.38.266-0.436l-0.089.436h0.977c0.121-.3.2-0.268,0.622-0.262a1.732,1.732,0,0,1,.089-0.611h0.089v0.611h1.243v0.349h0.977V25.193h1.243a1.565,1.565,0,0,1,.089-0.785V25.28h0.8V25.193h0.089a1.547,1.547,0,0,1,.266-1.4c0.261,0.159.363-.2,0.444,0.349a5.188,5.188,0,0,1,.266,1.047,1.193,1.193,0,0,0,.622.087,2.053,2.053,0,0,1,.089-0.96,2.053,2.053,0,0,0,.089.96,2.118,2.118,0,0,1,1.421,0V25.106a0.92,0.92,0,0,1,0-.436,0.681,0.681,0,0,0,.266-0.262,1.235,1.235,0,0,1,0-.785c-0.023.016-.285,0.032-0.178-0.087h0.178V23.36c-0.3-.142-0.282-0.348-0.266-0.785a5.862,5.862,0,0,1,2.131,0V20.916a0.784,0.784,0,0,1-.266-0.262c0.449-.03.29-0.743,0.266-1.4h0.089a0.557,0.557,0,0,0,.089.349v-0.7h1.066v2.705l0.266,0.175c0.185,0.064,1.235.02,1.6,0.087-0.1.411,0.055,0.688,0,1.309h0.089V23.011a2.848,2.848,0,0,0,.089-1.222H47.858V21.615a2.282,2.282,0,0,0,.533-0.087v1.92h0.533a5.3,5.3,0,0,0,.089-1.484,13.757,13.757,0,0,1,0-3.055h0.977a6.86,6.86,0,0,1,0,.785h0.266V18.211h0.089V18.3a4.212,4.212,0,0,1,.089,1.4c0.068,0.7.009,1.764,0,2.793h0.888v0.96H51.5a1.6,1.6,0,0,1,.888,0V23.273a2.893,2.893,0,0,0,.178-0.7H52.3a3.082,3.082,0,0,1-.622.087,0.417,0.417,0,0,1-.089.262v-0.7h0.178v0.262a4.127,4.127,0,0,1,2.131.087,5.088,5.088,0,0,0-1.065.087v0.349c0.284,0.377-.039.427,0.71,0.436,0.087-.215.2-0.022,0.621,0A8.821,8.821,0,0,1,54.34,21a13.885,13.885,0,0,1,.089,1.571h0.266V22.138h0.533v0.087a0.581,0.581,0,0,0-.089.349h0.71c-0.023-.635,0-1.134,0-1.92H56.2c0.025-.226-0.041-0.155.355-0.174,0.13,0.22.111,0.16,0.444,0.174,0-3.614,0-6.8,0-10.3H57.27V11.84h0.266c-0.052.583-.145,0.262-0.266,0.524a17.75,17.75,0,0,0,0,2.706,0.581,0.581,0,0,1,.355.087H57.27V15.68a2.767,2.767,0,0,1,.621,0H57.98a3.174,3.174,0,0,0-.089.96c-0.805.3-.666,1.1-0.621,2.182H57.8a0.557,0.557,0,0,1,.089-0.349v0.349c0.288-.072.136,0.043,0.266-0.174a5,5,0,0,1-.266-1.047,1.563,1.563,0,0,1,.355-0.262c0.086-.022.034-0.068,0.089,0a0.73,0.73,0,0,1,.178.7,1.683,1.683,0,0,0-.178.785H58.6a0.557,0.557,0,0,1,.089-0.349v0.96a6.726,6.726,0,0,0-1.421.175v1.047c1.073,0.011,1.794,0,2.486,0,0.074-.283-0.044-0.133.178-0.262,0.01,0.331-.088.239,0.355,0.262V21.7l1.154,0.087v0.087a4.418,4.418,0,0,0-.089,1.745H61v0.785h1.243V24.058l0.178,0.087A1.338,1.338,0,0,0,61.8,23.8l0.089-.262c1.235-.015,2.723.086,4.262,0.087V23.8h-1.6a2.188,2.188,0,0,1-.977.087v0.175a0.581,0.581,0,0,1,.089.349A7.556,7.556,0,0,0,65.7,24.32v0.611H66.06a1.091,1.091,0,0,1,.089-0.349H66.06v0.087c-0.069.168-.089-0.175-0.089-0.175H66.06c0.7-.6.98,0.126,1.51,0.349l1.154,0.175V24.756H68.457V24.582l0.266,0.087a0.721,0.721,0,0,1,.089-0.436,1.731,1.731,0,0,0,.089.611H68.99a3.333,3.333,0,0,1,.089-1.4,5.124,5.124,0,0,0,.089,1.484,0.9,0.9,0,0,1,.977.175c0-.377-0.194-0.251.178-0.349l-0.089.349h0.089V25.018c0.226,0.023.432,0.167,0.621-.175h0.089V24.756a0.435,0.435,0,0,1-.266-0.087h0.266a0.72,0.72,0,0,1,.089-0.436,1.735,1.735,0,0,1,0,.785h0.355V24.669h0.089c0.069,0.059.2,0.114,0.266,0.174-0.288.072-.136-0.043-0.266,0.175h0.444a1.564,1.564,0,0,1,.089-0.785v0.349h1.243v0.087H73.163c-0.151.061-.816,0.011-0.977,0.087a0.44,0.44,0,0,0-.089.262c1.261,0,2.6-.055,3.729-0.087a0.923,0.923,0,0,1,.089-0.785,2.287,2.287,0,0,0,.089.873,1.843,1.843,0,0,1,1.421,0,0.9,0.9,0,0,1,.178-0.873v0.087a1.591,1.591,0,0,0-.089.785,3.371,3.371,0,0,0,1.066-.087c0.165-.293-0.1-0.584.266-0.785a4.336,4.336,0,0,1,0,.873H79.29a9.883,9.883,0,0,1,.178-2.444,13.4,13.4,0,0,0,.089,2.444,0.753,0.753,0,0,1,.444.087H79.822c-0.5.753-1.289,1.32-1.776,2.095-0.893,1.421-.857,3.508-2.486,4.189a11.846,11.846,0,0,1-3.64.436H70.233a26.123,26.123,0,0,1-4.706.087H56.382L11.72,31.826a1.034,1.034,0,0,0-.977-0.96,3.644,3.644,0,0,1-1.332.174,0.417,0.417,0,0,1-.089.262,0.851,0.851,0,0,1-.533.349,8.619,8.619,0,0,0-1.6,0,0.843,0.843,0,0,0-.355-0.262,15.659,15.659,0,0,1-.444-1.833H6.482V29.469a3.04,3.04,0,0,1,1.776.349,0.455,0.455,0,0,0-.266-0.436,11.779,11.779,0,0,0-2.042-.96C5.7,28.288,5.422,28.016,5.15,27.9a2.75,2.75,0,0,1-1.243-.524V25.716c-0.2-.2-0.1-0.068-0.089-0.436H4a0.3,0.3,0,0,0,.089.174,0.556,0.556,0,0,1,.089-0.349,0.458,0.458,0,0,0,.266.087,0.556,0.556,0,0,0,.089.349,2.926,2.926,0,0,0-.089-0.7H4.084A0.3,0.3,0,0,1,4,25.018V24.756a67.318,67.318,0,0,1,6.748-.349v0.96a5.083,5.083,0,0,1,1.332.087,2.42,2.42,0,0,1,.266-0.96l0.266,0.175V24.582H12.519c-0.037-.171.136-0.063,0-0.175a0.458,0.458,0,0,1,.266-0.087,4.171,4.171,0,0,0,.888-0.175v0.436c-0.232.034-.116-0.065-0.178,0.175h1.332a2.052,2.052,0,0,1,.089-0.96v0.96c0.816,0.022.746-.1,0.71-0.96H15.538V23.709h0.178a0.249,0.249,0,0,0,.089.087,3.168,3.168,0,0,0-.089.96H15.8V24.582c0.061-.088.114-0.349,0.178-0.436v1.222h0.355a3.857,3.857,0,0,1,.089-1.571v1.571a4.879,4.879,0,0,0,1.509-.087c0.079-.123.1-0.489,0.178-0.611a0.557,0.557,0,0,0,.089.349,0.322,0.322,0,0,1,.178-0.087l-0.089-.175,0.266,0.087c0.163-.194-0.1-0.138.177-0.262a1.184,1.184,0,0,0,.71.262,1.09,1.09,0,0,1,.089-0.349h0.089a0.418,0.418,0,0,0,.089.262,5.2,5.2,0,0,1,1.953-.087l0.089-.524c-0.753-.05-1.7-0.087-2.575-0.087V23.884l4.262-.087v0.349a0.5,0.5,0,0,0-.533.262c0.225,0.034.14-.051,0.178,0.262,0.881,0.006,1.4-.153,2.131-0.175V24.407a11.819,11.819,0,0,1-.178-1.745,0.58,0.58,0,0,1-.355-0.087c0.668-.044,1.48-0.067,2.042-0.087,0.018-.122-0.073.035-0.089-0.087-0.171-.068.177-0.087,0.177-0.087,0.071,0.381.1,0.344,0.533,0.349a2.883,2.883,0,0,1-.266-0.96,1.382,1.382,0,0,1,.533-0.174V21.7a0.769,0.769,0,0,1-.089.786,0.422,0.422,0,0,0,.444.174c0-1.657,0-3.306,0-5.149-1.323-.776-2.555-1.918-3.818-2.793-0.525-.364-1.528-0.7-1.776-1.309h0.089a6.249,6.249,0,0,0,1.421.96c0.982,0.676,1.949,1.5,2.93,2.182a3.011,3.011,0,0,1,.8.524l0.266-.087a11.063,11.063,0,0,0,.089-2.967c-0.114-.237.237-1.226,0-1.658-0.123-.224-0.223.06-0.266-0.524h0.266a5.316,5.316,0,0,0-.089-1.309,0.908,0.908,0,0,1,.355-0.175A6.22,6.22,0,0,1,28.324,8ZM22.2,13.586h0.177C22.27,13.726,22.338,13.692,22.2,13.586Zm35.25,1.135a0.313,0.313,0,0,1,.089.175H57.447V14.72Zm0.089,0.611h0.178v0.087A0.306,0.306,0,0,1,57.536,15.331Zm-0.089,1.658a0.313,0.313,0,0,1,.089.174H57.447V16.989Zm0,0.349h0.178v0.087A0.306,0.306,0,0,1,57.447,17.338ZM57.27,18.909v0.436H57.8V18.909H57.27Zm0.621,0v0.436h0.178V19.258a0.581,0.581,0,0,0,.089-0.349H57.891Zm0.444,0v0.349h0.089v0.087H58.6V18.909H58.335Zm-13.407.785a0.907,0.907,0,0,0,.089.524A0.907,0.907,0,0,0,44.928,19.695Zm5.061,0.087c-0.017.82-.187,3.152,0.089,3.578,0-1.1.173-2.267,0.178-3.578H49.989Zm-6.038.436a0.337,0.337,0,0,1,.266.175h0.089V20.48H44.129A0.73,0.73,0,0,1,43.951,20.218Zm0.977,0.087a0.907,0.907,0,0,0,.089.524A0.907,0.907,0,0,0,44.928,20.306Zm14.118,0h0.178v0.087A0.306,0.306,0,0,1,59.046,20.306Zm-15.094.175c0.044,0.066.31,0.154,0.089,0.262C43.869,20.825,43.893,20.549,43.951,20.48Zm0.355,0,0.266,0.087v0.087A0.337,0.337,0,0,1,44.306,20.48ZM44.928,21a3.856,3.856,0,0,0,.089,1.571A3.856,3.856,0,0,0,44.928,21Zm-42.087.087H3.019C2.913,21.231,2.982,21.2,2.841,21.091ZM2.93,21.266c0.062,0.6.617,1.432,0.266,1.658a13.175,13.175,0,0,1-2.664.7A3.4,3.4,0,0,1,0,22.051H0.089V21.964C1.13,21.851,1.825,21.334,2.93,21.266Zm25.305,0.087v1.309H28.5V21.353H28.235Zm15.716,0h0.178v0.175H43.951V21.353ZM3.019,21.44a0.313,0.313,0,0,1,.089.174H3.019V21.44ZM43.951,21.7h0.178v0.087A0.306,0.306,0,0,1,43.951,21.7Zm2.131,0.873h0.355V22.487H46.349c0.089-.317-0.132-0.213.089-0.349V21.964a1.2,1.2,0,0,1-.355-0.174v0.087A5.378,5.378,0,0,1,46.082,22.575Zm13.23-.7v0.262h0.444V21.876H59.312Zm0.977,0a0.417,0.417,0,0,0,.089.262c0.1-.252.23-0.062,0.533,0V21.964A1.941,1.941,0,0,0,60.289,21.876ZM3.2,22.051a0.313,0.313,0,0,1,.089.175H3.2V22.051Zm0.178,0.611a0.313,0.313,0,0,1,.089.175H3.374V22.662Zm28.768,0.349H32.5V22.836l-0.266-.087V22.662H32.142v0.349Zm-28.679,0a0.313,0.313,0,0,1,.089.175H3.463V23.011Zm49.1,0.436c0.288-.072.136,0.043,0.266-0.175-0.061-.067-0.116-0.195-0.178-0.262V23.1A0.581,0.581,0,0,0,52.564,23.447Zm-0.355-.262a0.312,0.312,0,0,1,.089.174H52.209V23.186Zm-48.657.087a0.441,0.441,0,0,1,.089.262H3.552V23.273Zm44.4,0v0.175h0.178V23.273H47.947Zm-1.865.087c0.153,0.077.114,0.078,0.266,0H46.082Zm-21.754.087h0.178v0.087A0.306,0.306,0,0,1,24.329,23.447ZM3.64,23.622c0.1,0.145.157,0.093,0,.175V23.622Zm11.632,0H15.45v0.087A0.306,0.306,0,0,1,15.272,23.622Zm45.194,0v0.611c0.219,0.113.061-.037,0.178,0.175h0.089V23.622H60.466Zm0.355,0a1.566,1.566,0,0,0,.089.785A1.564,1.564,0,0,0,60.821,23.622ZM15.8,23.884a0.441,0.441,0,0,1,.089.262H15.8V23.884Zm16.337,1.571H32.5a3.878,3.878,0,0,0,.089-1.134,0.937,0.937,0,0,1,0-.436H32.5v0.175C32.051,24.285,32.11,24.784,32.142,25.455ZM3.729,23.971a0.313,0.313,0,0,1,.089.175H3.729V23.971Zm11.543,0.087a0.44,0.44,0,0,1,.089.262H15.272V24.058Zm24.773,0.087V24.32h0.089A0.3,0.3,0,0,0,40.044,24.146Zm-36.226.087a0.313,0.313,0,0,1,.089.175H3.818V24.233Zm26.815,0a1.041,1.041,0,0,0,.355.7,0.417,0.417,0,0,1,.089-0.262v0.262h0.355v0.524h0.355V25.28C31.358,24.932,31.345,24.312,30.633,24.233Zm1.421,0c-0.475.009-.448,0.016-0.888,0V24.32a0.91,0.91,0,0,1,.355.524h0.089A0.907,0.907,0,0,1,31.7,24.32v0.174c0.046,0.115.189,0.717,0.266,0.96h0.089V24.931A5.379,5.379,0,0,1,32.053,24.233ZM4.084,24.32a0.313,0.313,0,0,1,.089.174H4.084V24.32Zm8.968,0.087-0.089.175C13.118,24.46,13.052,24.407,13.052,24.407Zm-8.879.087a0.314,0.314,0,0,1,.089.175H4.173V24.495Zm56.471,0a0.908,0.908,0,0,0,.089.524A0.907,0.907,0,0,0,60.644,24.495Zm0.178,0a0.908,0.908,0,0,0,.089.524A0.908,0.908,0,0,0,60.821,24.495Zm0.178,0v0.524h0.8a0.417,0.417,0,0,1,.089-0.262c0.073,0.283-.044.133,0.178,0.262V24.495H61Zm1.154,0v0.524h0.533a1.351,1.351,0,0,0,.089-0.436A1.941,1.941,0,0,0,62.153,24.495Zm1.509,0v0.436a1.651,1.651,0,0,0,.533.087V24.495H63.663Zm0.621,0a0.908,0.908,0,0,0,.089.524A0.907,0.907,0,0,0,64.284,24.495Zm0.178,0v0.524h0.178V24.495H64.462Zm0.266,0v0.524h0.533V24.495H64.728Zm0.621,0v0.524h0.178a1.773,1.773,0,0,1,0-.524H65.35Zm13.585,0a0.314,0.314,0,0,1,.089.175H78.935V24.495Zm-75.028.087A0.313,0.313,0,0,1,4,24.756H3.907V24.582Zm6.038,0c0.153,0.077.113,0.078,0.266,0H9.945Zm55.849,0a0.312,0.312,0,0,1,.089.175H65.794V24.582ZM5.15,24.756v0.785H5.239a0.687,0.687,0,0,1,.8,0V24.931s-0.347-.017-0.178-0.087H6.038V24.669H5.86A1.628,1.628,0,0,1,5.15,24.756ZM6.3,24.669v0.174a2.905,2.905,0,0,0,.533-0.174H6.3Zm0.977,0a0.906,0.906,0,0,0,.8,0h-0.8Zm0.888,0c0.153,0.077.113,0.078,0.266,0H8.169Zm0.533,0a0.263,0.263,0,0,0,.355,0H8.7Zm0.8,0a0.322,0.322,0,0,0,.178.087A0.322,0.322,0,0,0,9.5,24.669Zm2.841,0v0.436h0.089V25.018C12.536,24.808,12.511,24.826,12.342,24.669Zm-7.458.087a0.9,0.9,0,0,0-.178.524l0.266,0.087v0.087H5.061v-0.7H4.883Zm14.917,0V25.28h0.8V24.756H19.8Zm0.888,0v0.436h0.178V24.756H20.688Zm0.266,0a0.72,0.72,0,0,0,.089.436A0.72,0.72,0,0,0,20.955,24.756Zm0.178,0v0.436h0.533V24.756H21.132Zm1.509,0a1.349,1.349,0,0,0-.089.436H22.73A0.72,0.72,0,0,0,22.642,24.756Zm0.178,0v0.436h0.533V24.756H22.819Zm0.622,0v0.436l1.066,0.087V24.756H23.441Zm47.236,0,0.178,0.087a1.072,1.072,0,0,1-.355.087V24.844A0.306,0.306,0,0,0,70.677,24.756Zm-55.849.611V24.844H13.94c0,0.248.07,0.034-.089,0.262a0.433,0.433,0,0,1,.266.087c-0.288.072-.136-0.043-0.266,0.175h0.178A7.114,7.114,0,0,1,14.828,25.367Zm0.089-.524,0.089,0.524H15.45V24.844H14.917Zm0.621,0a0.907,0.907,0,0,0,.089.524A0.908,0.908,0,0,0,15.538,24.844Zm0.178,0a0.906,0.906,0,0,0,.089.524A0.908,0.908,0,0,0,15.716,24.844Zm3.907,0a0.557,0.557,0,0,0,.089.349A0.556,0.556,0,0,0,19.623,24.844ZM6.3,24.931v0.436c0.408-.03.252-0.053,0.533,0.174V24.931H6.3Zm0.622,0a0.417,0.417,0,0,0,.089.262A0.418,0.418,0,0,0,6.926,24.931Zm61.887,0a0.322,0.322,0,0,0,.178.087A0.322,0.322,0,0,0,68.812,24.931Zm-50.7.175a0.417,0.417,0,0,0,.089.262V25.106H18.113Zm-8.169.087c-0.029.121,0.126,0.127,0.178,0.175C10.184,25.275,9.969,25.219,9.945,25.193Zm-2.664.087v0.174H7.37A0.3,0.3,0,0,0,7.281,25.28Zm0.444,0v0.174H7.814A0.3,0.3,0,0,0,7.725,25.28Zm0.266,0v0.174H8.08V25.28H7.991Zm0.178,0a0.417,0.417,0,0,0,.089.262V25.455a0.313,0.313,0,0,0,.089-0.174H8.169Zm0.888,0a0.434,0.434,0,0,0-.266.087H8.879v0.087l0.178,0.087V25.28Zm0.089,0v0.262H9.412V25.28H9.145ZM9.5,25.542c0.288-.072.136,0.043,0.266-0.174H9.678V25.28H9.5v0.262Zm4-.262c0.153,0.077.114,0.078,0.266,0H13.5Zm6.126,0-0.089.262h0.089V25.455C19.733,25.318,19.68,25.41,19.623,25.28Zm4.795,0.087v0.174h0.089V25.367H24.417ZM8.524,29.644v0.175A2.265,2.265,0,0,1,9.5,30.6a0.931,0.931,0,0,0,.089-0.524C9.17,29.977,8.94,29.758,8.524,29.644Zm1.865,0.873c-0.029.121,0.126,0.127,0.178,0.174C10.628,30.6,10.413,30.543,10.389,30.516Z" transform="translate(0 0.016)"/>
</svg>
