<svg xmlns="http://www.w3.org/2000/svg" width="40" height="40" viewBox="0 0 40 40">
  <defs>
    <style>
      .cls-1 {
        fill: #fff;
        fill-rule: evenodd;
      }
    </style>
  </defs>
  <path id="fr_m3a3_stuart_ico" class="cls-1" d="M15.318,13.755h0.161c-0.01.124-.064,0.7-0.064,0.7a0.412,0.412,0,0,1,.1.351,1.274,1.274,0,0,0-.1.734l0.064,0.032V15.8c0.049,0.083.082-.022,0.1,0.191h0.611l0.032-.319a0.274,0.274,0,0,0,.193-0.351,8.55,8.55,0,0,0,1.738-.479,1.027,1.027,0,0,0,.579-0.192,1.624,1.624,0,0,0-.1-0.574h0.129a2.558,2.558,0,0,0,.257.351,0.213,0.213,0,0,1,.161-0.1v0.032h0.032v0.1a1.261,1.261,0,0,0,.386-0.064,1.7,1.7,0,0,0,.386.032c0.251-.088.4-0.471,0.644-0.574h0.611a1.538,1.538,0,0,1,.064.638c0.473,0,.887.062,1.416,0.064V14.266h0.1v0.287h0.322V14.426a1.641,1.641,0,0,0,.129-1.117H23.138V13.277a0.525,0.525,0,0,0,.1-0.191,2.491,2.491,0,0,1-.644-0.192c-0.027.086-.02-0.013-0.064,0.064a1.414,1.414,0,0,1,0,.223H22.2A2.263,2.263,0,0,1,22.14,12.7a2.308,2.308,0,0,1-1.03-.319A2.584,2.584,0,0,0,20.5,11.9v0.032a0.372,0.372,0,0,1,.064.16H20.4a0.154,0.154,0,0,1-.032.1,0.165,0.165,0,0,1-.1.032V12.192H20.241V12.1H20.08V12.032a1.95,1.95,0,0,0,0-.479,0.22,0.22,0,0,0,.193-0.1h-0.1V11.33a0.605,0.605,0,0,1-.386-0.1h0.161a0.315,0.315,0,0,0-.064-0.191,0.6,0.6,0,0,0-.29-0.032v0.032H19.566a5.023,5.023,0,0,1-.161.67,0.7,0.7,0,0,1-.225.032,0.515,0.515,0,0,1-.1-0.287,2.064,2.064,0,0,0,.257-0.415,0.55,0.55,0,0,1,0-.223,2.484,2.484,0,0,1,.579-0.064l0.032-.223a0.3,0.3,0,0,0,.225-0.128,0.121,0.121,0,0,1-.1-0.128,1.734,1.734,0,0,1,.483-0.032v0.064a0.163,0.163,0,0,1,.032.1h0.386a0.958,0.958,0,0,0,.1.128h0.708v-0.1h0.129v0.1c0.376,0,.635,0,0.965,0V10.277h0.1v0.479c1.391,0,2.843.029,4.183,0.032a1.045,1.045,0,0,1,.032.319c-1.373,0-2.856.031-4.28,0.032v0.319a3.8,3.8,0,0,0,.451.16,5.3,5.3,0,0,0-.257.638,3.521,3.521,0,0,0-.354.287c0.241,0.059.489,0.162,0.772,0.223a1.421,1.421,0,0,1,.29.543h-0.1V14.33h0.032a2.594,2.594,0,0,1,.451-0.447,0.571,0.571,0,0,0,.258-0.1,0.391,0.391,0,0,1-.161-0.319,1.015,1.015,0,0,1-.386.064c-0.022-.149-0.068-0.279.064-0.351a0.49,0.49,0,0,1,.322.064,1.67,1.67,0,0,1,.064-0.255,1.819,1.819,0,0,1,1.384-.287v1.309H25.165v0.032a0.84,0.84,0,0,1,.258.479,1.715,1.715,0,0,0,.74.255V14.745h0.032v-0.1a1.447,1.447,0,0,1,.418.128l-0.032.16a4.953,4.953,0,0,1,1.48.511,0.381,0.381,0,0,0,.129.319,2.3,2.3,0,0,0,.611.064,0.493,0.493,0,0,1-.032-0.415h0.225a6.433,6.433,0,0,0,.483.447h0.386a0.692,0.692,0,0,0,.322.032,8.01,8.01,0,0,0,.483.957H32.5a4.764,4.764,0,0,0,1.255.1c0.5,0.105,1.168-.082,1.706.032a8.341,8.341,0,0,0,1.448.032,16.53,16.53,0,0,0,1.834,0v0.415c-2.486-.109-5.047.153-7.5,0.16v0.032a0.683,0.683,0,0,0,.129.128,0.281,0.281,0,0,0,.161.032v0.287H31.408a0.091,0.091,0,0,1-.032.032,0.775,0.775,0,0,1-.064.447c-0.394.393-.784,0.073-1.351,0.223a1.617,1.617,0,0,1-.483.128l-0.032-.223H29.381a0.838,0.838,0,0,1-.547.191,1.024,1.024,0,0,0,.064.383h-0.74a0.091,0.091,0,0,1-.032.032v0.032h0.29a2.392,2.392,0,0,1,.772.255,0.33,0.33,0,0,1,.064.191h0.1a0.275,0.275,0,0,1,.225-0.255,0.769,0.769,0,0,0,.611-0.255l0.579,0.064a0.366,0.366,0,0,1,.064.223H30.8c-0.016.088,0.018,0.038,0.064,0.064a0.9,0.9,0,0,0,.322.128,0.667,0.667,0,0,0,.1.351,0.375,0.375,0,0,0,.354.128,0.156,0.156,0,0,1,.161-0.128c0.261,0.321.78,0.374,1.062,0.67a0.111,0.111,0,0,0,.064-0.032,0.479,0.479,0,0,1,.418-0.319,0.61,0.61,0,0,1,.225.255,0.163,0.163,0,0,1,.032.1c-0.114.11-.175,0.273-0.29,0.383a0.679,0.679,0,0,0,.064.159,0.977,0.977,0,0,0-.193.1,0.117,0.117,0,0,0,.064.032,4.069,4.069,0,0,0,.451.255,2.693,2.693,0,0,1,.547.862,9.4,9.4,0,0,0,.965.032,0.872,0.872,0,0,1,.354-0.511,0.916,0.916,0,0,1,.547-0.128v0.16a2.209,2.209,0,0,0,.515.1,1.279,1.279,0,0,0,.064-0.479h0.193a6.7,6.7,0,0,1-.161,1.564c0.632,0.041,1.175.062,1.963,0.064a1.041,1.041,0,0,1,.032.319,2.394,2.394,0,0,1-.644.032v0.032H38.1a4.379,4.379,0,0,0,.611.383A6.268,6.268,0,0,1,40,25.436a0.214,0.214,0,0,0-.032.128c-0.237.166-.566,0.375-0.9,0.575a0.538,0.538,0,0,1,.064.191,0.3,0.3,0,0,0-.1.128l-0.1-.032-0.032.192a0.353,0.353,0,0,1,.1.064,0.458,0.458,0,0,1,.29-0.032,0.092,0.092,0,0,0,.032.032c0.017,0.121.045,0.134,0.064,0.255a1.261,1.261,0,0,0-.225.064s0.093,0.042.064,0.064H39.2a1.463,1.463,0,0,0-.1.16l0.064,0.032c0.019,0.007.181,0.018,0.258,0.032a0.454,0.454,0,0,0,.032.16,1.831,1.831,0,0,0-.29.064,0.091,0.091,0,0,1-.032.032L39.2,27.7a0.479,0.479,0,0,1,.257,0l-0.032.255a2.285,2.285,0,0,1-.258,0l-0.1.064a0.712,0.712,0,0,1,.129.192,0.284,0.284,0,0,0-.1.1c0.133,0.041.158,0.084,0.161,0.255a0.115,0.115,0,0,0-.032.064H39.067c-0.074.029-.087-0.029-0.161,0-0.108.042-.093,0.049-0.1,0.191l0.161,0.032a0.446,0.446,0,0,1,.032.128,1.251,1.251,0,0,1-.257.255,0.51,0.51,0,0,1-.29.1,0.383,0.383,0,0,1,.032.223l-0.064.1a0.88,0.88,0,0,0-.354-0.16v0.064a0.162,0.162,0,0,0-.032.1c0.122,0,.088-0.032.1,0.128a0.114,0.114,0,0,1,.032.064,0.581,0.581,0,0,1-.161.1v0.032H37.973V29.936l-0.161-.128c-0.017.13-.007,0.13-0.129,0.16a0.616,0.616,0,0,0-.129-0.1,0.45,0.45,0,0,1-.032.128c0.059,0.079.162,0.08,0.1,0.223-0.024.028-.041,0.036-0.064,0.064a0.11,0.11,0,0,1-.064-0.032c-0.109-.03-0.1-0.012-0.129-0.128H37.2a0.336,0.336,0,0,0-.064.159,0.22,0.22,0,0,1,.129.223,0.329,0.329,0,0,0-.193.128H37.039V30.606a0.515,0.515,0,0,0-.257-0.192,0.728,0.728,0,0,1-.193.16l0.032,0.064H36.589a0.165,0.165,0,0,0,.1.032,0.494,0.494,0,0,1,0,.223c-0.024.028-.041,0.036-0.064,0.064a0.11,0.11,0,0,1-.064-0.032A1.072,1.072,0,0,0,36.3,30.8a0.117,0.117,0,0,1-.064.032,0.451,0.451,0,0,0-.032.128,0.194,0.194,0,0,1,.1.192,1.055,1.055,0,0,1-.129.128,3.069,3.069,0,0,0-.322-0.191l-0.193.16v0.1h0.1l0.032,0.223a1.132,1.132,0,0,1-.193.064,0.23,0.23,0,0,0-.129-0.064c-0.043-.095.031-0.077-0.129-0.1a0.117,0.117,0,0,1-.064.032v0.128a0.422,0.422,0,0,1,.129.191,0.542,0.542,0,0,0-.193.16H35.173V31.947c-0.13-.113-0.051-0.18-0.258-0.192a0.534,0.534,0,0,0-.161.16,0.162,0.162,0,0,0-.032.1c0.081,0.012.051-.018,0.064,0.1a0.214,0.214,0,0,1,.032.128,0.486,0.486,0,0,1-.129.064A0.645,0.645,0,0,1,34.5,32.17c-0.011-.025,0-0.021-0.129-0.032l-0.1.16h0.1a0.62,0.62,0,0,1,0,.192,1.113,1.113,0,0,1-.322.191,0.829,0.829,0,0,0-.161-0.255,0.467,0.467,0,0,0-.322.191,1.976,1.976,0,0,0,0,.255l-0.258.032a0.3,0.3,0,0,0-.29-0.287,0.482,0.482,0,0,0-.064.128,0.157,0.157,0,0,1,.1.032c-0.2.112-.023,0.2-0.418,0.191a1.368,1.368,0,0,0,0-.255,0.336,0.336,0,0,0-.322-0.064v0.064a1.131,1.131,0,0,0-.064.255H32.051a0.912,0.912,0,0,0-.064-0.255,0.244,0.244,0,0,0-.225,0,0.809,0.809,0,0,1,0,.255h-0.29a0.9,0.9,0,0,1,0-.287,1.2,1.2,0,0,0-.354-0.032v0.064a0.79,0.79,0,0,1-.064.223,0.352,0.352,0,0,1-.193.032c-0.033-.178-0.009-0.3-0.225-0.319a1.132,1.132,0,0,1-.1.1,0.419,0.419,0,0,1,.032.223h-0.29a0.35,0.35,0,0,1,.032-0.255,0.659,0.659,0,0,0-.354-0.064l-0.032.064a1.135,1.135,0,0,0-.064.255H29.67a0.915,0.915,0,0,0-.064-0.255,0.152,0.152,0,0,0-.161-0.064,0.2,0.2,0,0,1-.064.064,0.286,0.286,0,0,1,0,.255H29.123a0.691,0.691,0,0,0-.032-0.255,0.336,0.336,0,0,0-.322-0.064v0.064a1.135,1.135,0,0,0-.064.255H28.512a0.279,0.279,0,0,1,0-.255,0.787,0.787,0,0,0-.225-0.064,0.692,0.692,0,0,0-.064.319h-0.29a0.35,0.35,0,0,1,.032-0.255,0.75,0.75,0,0,0-.386-0.064v0.064a1.732,1.732,0,0,0-.064.255H27.321a0.632,0.632,0,0,0-.064-0.255,0.35,0.35,0,0,0-.193-0.032,0.092,0.092,0,0,1-.032.032,0.564,0.564,0,0,1,0,.255H26.774a0.9,0.9,0,0,1,0-.287,1.065,1.065,0,0,0-.322-0.032l-0.032.064a0.691,0.691,0,0,1-.064.223,0.281,0.281,0,0,1-.161.032c-0.065-.165-0.029-0.307-0.258-0.319a0.253,0.253,0,0,1-.064.1,0.419,0.419,0,0,1,.032.223h-0.29a0.351,0.351,0,0,1,.032-0.255,0.659,0.659,0,0,0-.354-0.064l-0.032.064a0.692,0.692,0,0,1-.064.223,0.281,0.281,0,0,1-.161.032c-0.033-.178-0.009-0.3-0.225-0.319l-0.032.064a2.445,2.445,0,0,0-.032.255H24.489a1.2,1.2,0,0,1,0-.287,1.065,1.065,0,0,0-.322-0.032l-0.032.064a0.79,0.79,0,0,1-.064.223,0.281,0.281,0,0,1-.161.032,0.4,0.4,0,0,0-.1-0.255c-0.047-.081-0.014-0.049-0.129-0.064a0.2,0.2,0,0,1-.064.064,0.564,0.564,0,0,1,0,.255h-0.29a1.387,1.387,0,0,0,0-.255,0.385,0.385,0,0,0-.322-0.064,0.2,0.2,0,0,1-.064.064c0.067,0.112.021,0.076,0,.255H22.751a0.912,0.912,0,0,0-.064-0.255,0.244,0.244,0,0,0-.225,0,0.564,0.564,0,0,1,0,.255H22.2a1.753,1.753,0,0,0-.032-0.255,0.385,0.385,0,0,0-.322-0.064,0.2,0.2,0,0,1-.064.064c0.045,0.076.055,0.018,0.032,0.1-0.024.151-.054,0.158-0.225,0.16-0.033-.178-0.009-0.3-0.225-0.319a1.132,1.132,0,0,1-.1.1,0.419,0.419,0,0,1,.032.223h-0.29a1.377,1.377,0,0,0,0-.255,0.385,0.385,0,0,0-.322-0.064l-0.032.064a0.692,0.692,0,0,1-.064.223,0.28,0.28,0,0,1-.161.032c-0.033-.178-0.009-0.3-0.225-0.319l-0.032.064a2.445,2.445,0,0,0-.032.255H19.887a0.693,0.693,0,0,0-.032-0.255,0.336,0.336,0,0,0-.322-0.064v0.064a1.135,1.135,0,0,0-.064.255H19.308a0.09,0.09,0,0,0-.032-0.032,0.25,0.25,0,0,0-.064-0.223,0.152,0.152,0,0,0-.161-0.064,0.2,0.2,0,0,1-.064.064c0.068,0.109.027,0.091,0,.255H18.7a1.368,1.368,0,0,0,0-.255,0.336,0.336,0,0,0-.322-0.064v0.064a1.135,1.135,0,0,0-.064.255H18.118a0.635,0.635,0,0,0-.064-0.255,0.35,0.35,0,0,0-.193-0.032,0.091,0.091,0,0,1-.032.032,0.561,0.561,0,0,1,0,.255H17.57a0.981,0.981,0,0,0-.032-0.255,0.336,0.336,0,0,0-.322-0.064,0.2,0.2,0,0,1-.064.064c0.065,0.1.036,0.108,0,.255H16.959c-0.034-.178-0.009-0.3-0.225-0.319a1.131,1.131,0,0,1-.1.1,0.42,0.42,0,0,1,.032.223H16.38a0.35,0.35,0,0,1,.032-0.255,0.659,0.659,0,0,0-.354-0.064l-0.032.064a1.732,1.732,0,0,0-.064.255H15.8c-0.061-.154-0.029-0.3-0.225-0.319l-0.032.064a0.691,0.691,0,0,1-.064.223,0.514,0.514,0,0,1-.258.032,1.368,1.368,0,0,0,0-.255,0.385,0.385,0,0,0-.322-0.064l-0.032.064a1.717,1.717,0,0,0-.064.255H14.642a0.09,0.09,0,0,0-.032-0.032,0.25,0.25,0,0,0-.064-0.223c-0.047-.081-0.014-0.049-0.129-0.064l-0.032.064a1.124,1.124,0,0,0-.064.255h-0.29a1.224,1.224,0,0,1,.032-0.287,1.066,1.066,0,0,0-.322-0.032l-0.032.064a1.135,1.135,0,0,0-.064.255H13.451a0.916,0.916,0,0,0-.064-0.255,0.244,0.244,0,0,0-.225,0,0.564,0.564,0,0,1,0,.255h-0.29a1.672,1.672,0,0,0,0-.255,0.336,0.336,0,0,0-.322-0.064,0.2,0.2,0,0,1-.064.064c0.025,0.055.084,0.059,0.032,0.1-0.054.138-.056,0.161-0.257,0.16V32.9a0.826,0.826,0,0,1-.064-0.223,0.281,0.281,0,0,0-.161-0.032L12,32.713a2.473,2.473,0,0,0-.032.255h-0.29a1.224,1.224,0,0,1,.032-0.287,1.065,1.065,0,0,0-.322-0.032c-0.056.121-.039,0.31-0.29,0.319-0.032-.167-0.015-0.286-0.193-0.319a1.118,1.118,0,0,1-.1.1,0.343,0.343,0,0,1,0,.223h-0.29a1.234,1.234,0,0,1,.032-0.287,1.065,1.065,0,0,0-.322-0.032l-0.032.064c-0.065.084,0,.247-0.257,0.255V32.9c-0.072-.1-0.044-0.1,0-0.191a0.787,0.787,0,0,0-.225-0.064l-0.032.064a1.465,1.465,0,0,0-.064.255H9.332a0.692,0.692,0,0,0,.032-0.255c-0.047-.081-0.068-0.064-0.193-0.064a0.261,0.261,0,0,0-.225,0,0.222,0.222,0,0,1-.257.255,0.218,0.218,0,0,0-.129-0.032c-0.021-.158-0.045-0.193-0.064-0.319H8.367a0.218,0.218,0,0,0-.129-0.032,0.282,0.282,0,0,1-.1.255C8,32.658,7.858,32.735,7.852,32.457c0.057-.06.059-0.025,0.032-0.1a0.964,0.964,0,0,0-.257-0.191A0.455,0.455,0,0,1,7.5,32.2c0,0.091-.037.138-0.193,0.16a0.324,0.324,0,0,1-.161-0.351H7.208V31.947H7.176a0.232,0.232,0,0,0-.257-0.16V31.755H6.887c0.013,0.072.03,0.035,0,.1a0.322,0.322,0,0,1-.161.1V31.915a0.274,0.274,0,0,1-.161-0.223,0.349,0.349,0,0,0,.161-0.255,0.543,0.543,0,0,0-.257-0.16,0.843,0.843,0,0,1-.257.1,0.771,0.771,0,0,1-.064-0.223,0.3,0.3,0,0,1,.161-0.1V30.862l-0.161-.1a0.2,0.2,0,0,1-.032.128,0.211,0.211,0,0,0-.193,0,2.544,2.544,0,0,1-.161-0.511,0.427,0.427,0,0,0,.225-0.128,0.933,0.933,0,0,0-.161-0.638,2.538,2.538,0,0,0-.257-0.032V29.362c0.16-.064.272-0.039,0.29-0.255l-0.064-.032a1.493,1.493,0,0,0-.257-0.064l0.032-.287a1.515,1.515,0,0,1,.257.032,0.352,0.352,0,0,0,.1-0.415,0.235,0.235,0,0,1-.257-0.1,0.2,0.2,0,0,1,.225-0.192,1.626,1.626,0,0,1,.193,0,0.5,0.5,0,0,0,.032-0.16,0.115,0.115,0,0,1-.032-0.064,0.4,0.4,0,0,1-.225-0.064,0.5,0.5,0,0,1,.161-0.287,1.152,1.152,0,0,0,.193.1,0.323,0.323,0,0,0,.225-0.351A0.268,0.268,0,0,1,6.243,27.1L6.275,27a0.377,0.377,0,0,1,.193-0.1,0.2,0.2,0,0,0,.193.064c0.1-.041.085-0.028,0.1-0.16A0.2,0.2,0,0,1,6.6,26.617a0.509,0.509,0,0,0,.161-0.16,0.111,0.111,0,0,1,.064.032,0.629,0.629,0,0,0,.29.128,0.455,0.455,0,0,0,.161-0.287,0.177,0.177,0,0,1-.1-0.191c0.038-.037.091-0.059,0.129-0.1a0.367,0.367,0,0,0,.225.064l0.129-.032a0.906,0.906,0,0,1,.257-0.447,2.183,2.183,0,0,0-.129-0.319H4.634a0.165,0.165,0,0,1-.1.032A5.113,5.113,0,0,0,4.28,24a0.617,0.617,0,0,1-.451.064H2.51C2.257,24.063,2.191,24,1.963,24,0.6,23.982.129,24,.129,22.6V21.957A0.568,0.568,0,0,1,0,21.894a1.8,1.8,0,0,0,.322-0.16c0.364-.136.647-0.174,1.03-0.287a6.035,6.035,0,0,1,.8-0.255l-0.032-.447h-0.1V20.681c0.079-.041.022,0.014,0.064-0.064,0.059-.037-0.045-0.043-0.064-0.1a1.7,1.7,0,0,1,0-.319,22.413,22.413,0,0,1,3.315-.255,6.855,6.855,0,0,1,.8-0.287c0.055,0.047.131,0.051,0.193,0.1a2.366,2.366,0,0,0,.29.319v0.032c0.032,0.032.032-.032,0.032-0.032a2.691,2.691,0,0,1,.933-0.7,0.545,0.545,0,0,1,.1.383l0.418,0.032a1.434,1.434,0,0,0,.064-0.606H8.3v0.032H8.335a1.326,1.326,0,0,0,.032.542,0.662,0.662,0,0,1,.708,0,1.088,1.088,0,0,1,.676-0.1,0.469,0.469,0,0,0,.483.1,0.781,0.781,0,0,1,.644-0.255,0.218,0.218,0,0,0,.129.032V19.34h-0.29V19.277H11.07v0.287a0.985,0.985,0,0,1,.418-0.032,1.98,1.98,0,0,1,.032-0.415,1.591,1.591,0,0,1,.8-0.319l0.1,0.16a0.357,0.357,0,0,1,.225,0c0.025-.16.073-0.164,0.257-0.16,0.251,0.162.518,0.083,0.515,0.511a3.456,3.456,0,0,0,.579.064c0.121-.12.206-0.292,0.322-0.415h1.191a0.753,0.753,0,0,0,.644.351,1.156,1.156,0,0,1,.064.351h0.225V19.213a0.2,0.2,0,0,0,.064-0.064h0.032v0.032a0.717,0.717,0,0,1,.064.479h0.772l0.032-.351c0.115-.013.081,0.015,0.129-0.064-0.079-.041-0.022.014-0.064-0.064a2.308,2.308,0,0,0,.579-0.638H16.412V18.415a1.166,1.166,0,0,0-.257.16,0.837,0.837,0,0,1-.483-0.223,0.717,0.717,0,0,1,.032-0.638c-0.092-.015-0.071-0.164-0.064-0.351a1.457,1.457,0,0,0,.129-0.543H15.7a0.533,0.533,0,0,1-.354,0c-0.038-.061-0.132-0.1-0.161-0.159A0.763,0.763,0,0,0,15,16.245c-0.135-.089-0.19-0.019-0.193-0.255,0.148-.09-0.009-0.06.064-0.16L15,15.8V15.575a0.951,0.951,0,0,0-.064-0.766,0.547,0.547,0,0,1,.1-0.351c-0.031-.2-0.043-0.428-0.064-0.7h0.161c0-1.633.032-3.389,0.032-5.074A16.4,16.4,0,0,1,15.189,6h0.064v7.372A0.5,0.5,0,0,1,15.318,13.755Z" transform="translate(0 0.516)"/>
</svg>
