<?xml version="1.0" encoding="utf-8"?>
<!-- Generator: Adobe Illustrator 16.0.0, SVG Export Plug-In . SVG Version: 6.00 Build 0)  -->
<!DOCTYPE svg PUBLIC "-//W3C//DTD SVG 1.1//EN" "http://www.w3.org/Graphics/SVG/1.1/DTD/svg11.dtd">
<svg version="1.1" id="Layer_1" xmlns="http://www.w3.org/2000/svg" xmlns:xlink="http://www.w3.org/1999/xlink" x="0px" y="0px"
	 width="39.969px" height="40px" viewBox="0 0 39.969 40" enable-background="new 0 0 39.969 40" xml:space="preserve">
<path id="Color_Fill_1" fill="#FFFFFF" d="M8.261,11.563c0.992,0.014,2.621,0.2,3.292-0.187v-0.063
	c-0.082,0.021-0.167,0.021-0.248,0l-0.062-0.125c0.087-0.031,0.171-0.073,0.248-0.125c-0.088-0.05-0.138-0.149-0.124-0.25
	c0.148-0.053,0.294-0.116,0.435-0.187c-0.153-0.081-0.042,0.027-0.124-0.125H11.8c0.098,0.092,0.181,0.197,0.248,0.313
	c0.26-0.16,0.567-0.226,0.87-0.187c-0.001-0.068,0.021-0.133,0.062-0.187v0.188h0.25v-0.19h0.062c0.039,0,0.455-0.061,0.745-0.062
	c-0.1,0.32,0.114,0.486,0.5,0.5c0.305-0.229,0.672-0.36,1.053-0.376c-0.044-0.142-0.065-0.289-0.062-0.437H15.28v-0.25l-0.186-0.062
	c-0.575-0.085-1.159-0.106-1.739-0.062V9.563c0.033-0.034,0.055-0.078,0.062-0.125H13.23c-0.051,0.2,0.031,0.1-0.124,0.188
	c-0.045-0.221-0.076-0.155-0.124-0.375C13.07,9.201,13.12,9.102,13.106,9c0.297-0.025,0.589-0.087,0.87-0.187V9
	c0.703-0.05,1.409-0.05,2.112,0c0.051-0.2-0.03-0.1,0.124-0.187c0.026,0.354,0.127,0.332,0.5,0.313
	c1.402,0.156,2.815,0.197,4.224,0.125v0.188c-0.544-0.015-2.937-0.154-3.229,0.188c0,0-0.4-0.114-0.5-0.125
	c-0.333-0.021-0.667,0-0.994,0.063v0.5H15.9v0.063c0.071,0.249,0.049,0.516-0.062,0.75c-0.455-0.06-0.907,0.131-1.18,0.5
	c0.836,0.179,1.693,0.242,2.547,0.188c0.072-0.059,1.095,0.053,1.615,0.063l0.062,0.438l0.932,0.125v0.058
	c-0.047,0.006-0.091,0.029-0.124,0.063c0.36,0.008,0.716,0.071,1.056,0.188c0.229,0.022,0.461,0.001,0.684-0.062l1.241,0.125v0.875
	l0.745,0.688c1.042-0.108,2.095-0.023,3.105,0.25l12.422,0.063v1.5c-2.81-0.006-5.785,0-8.758,0L26.521,16v0.125h-0.869
	c-1.119,0.546-2.312,0.925-3.541,1.125c0.049,0.338,0.006,0.683-0.123,1h0.371v0.375h-0.434v0.125h0.063
	c0.115,0.057,0.245,0.078,0.373,0.063v0.375c-0.539,0.013-1.067,0.123-1.739,0.125v0.125c0.515,0.192,1.069,0.257,1.614,0.188
	c0.074-0.047,0.162-0.068,0.248-0.063v-2.126l2.733-0.062c0.113-0.1,0.238-0.184,0.373-0.25c0.456,0.028,0.915,0.007,1.366-0.062
	c-0.088,0.006-0.176-0.016-0.249-0.064c0.169-0.024,0.342-0.002,0.5,0.063c-0.067,0-0.133,0.021-0.187,0.063
	c0.473,0.081,0.951,0.123,1.43,0.125c0.17-0.149,0.406-0.197,0.621-0.125c0.047,0.076,0.11,0.14,0.186,0.188
	c0.208-0.074,0.475,0.075,0.807,0c0.714-0.131,1.449-0.044,2.112,0.25c0.209-0.006,0.418,0.016,0.621,0.063
	c-0.067,0-0.133,0.021-0.187,0.063c0.147-0.004,0.293-0.024,0.436-0.062l-0.063,0.125h0.063c0.326-0.08,0.668-0.08,0.994,0
	c-0.067-0.001-0.133,0.021-0.186,0.063h0.062v0.063c0.12-0.041,0.253-0.041,0.373,0c-0.001-0.066,0.021-0.133,0.062-0.187v0.188
	H34.6c0-0.068,0.021-0.134,0.063-0.188c0.025,0.225-0.029,0.157,0.124,0.25c0.212,0.015,0.42,0.057,0.621,0.125
	c0.92-0.002,1.837,0.104,2.733,0.313v-0.067l-0.063-0.062H38.2c0.136,0.153,0.247,0.01,0.435,0.188
	c0.031,0.107,0.072,0.213,0.124,0.313c0.4,0.232,0.8-0.199,0.933,0.313c-0.124,0.45-0.207,0.91-0.248,1.375
	c0.1,0.3,0.399,0.479,0.5,0.75c0.061,0.771,0.04,1.546-0.063,2.313c-0.081-0.021-0.166-0.021-0.248,0
	c0.001-0.068-0.021-0.134-0.063-0.188c0.002,0.068-0.02,0.135-0.062,0.188c-0.046-0.373-0.067-0.748-0.062-1.125h-0.131
	c-0.035,0.185-0.148,0.344-0.311,0.438c-0.02,0.179-0.084,0.351-0.186,0.5c-0.245,0.226-0.729,0.3-0.994,0.5
	c-0.266,0.2-0.531,0.515-0.807,0.688c-0.141,0.045-0.288,0.066-0.436,0.063c-0.183,0.329-0.465,0.592-0.807,0.75
	c-0.256,0.188-0.526,0.355-0.809,0.5l-0.186-0.063c-0.307,0.477-0.807,0.797-1.367,0.875v0.063h0.063
	c0.119,0.049-0.125,0.063-0.125,0.063c-0.225,0.137-0.5,0.16-0.744,0.063c0.012,0.215-1.652,0.125-2.112,0.125H23.6
	c-0.597-0.086-1.203-0.086-1.8,0c-0.232-0.006-0.463-0.048-0.683-0.125c-0.066,0.137-0.23,0.193-0.367,0.128
	c-0.002-0.001-0.004-0.002-0.006-0.003c-0.596-0.099-1.204-0.099-1.8,0h-3.727c-0.871,0.063-1.747,0.02-2.609-0.125
	c-0.092-0.027-0.087,0.112-0.124,0.125c-0.195,0.025-0.393-0.02-0.559-0.125c-0.163-0.029-0.116,0.1-0.186,0.125
	c-0.195,0.023-0.393-0.021-0.559-0.125c-0.067-0.02-0.129,0.113-0.248,0.125c-0.154,0-0.305-0.043-0.435-0.125
	c-0.162-0.034-0.118,0.1-0.186,0.125c-0.425-0.018-0.844-0.102-1.242-0.25C8.78,26.511,8.528,26.275,8.323,26
	c-0.1-0.189,0.019-0.229-0.063-0.312v0.062C8.2,25.813,8.2,25.688,8.2,25.688c-0.333-0.458,0.007-1.024-0.248-1.437
	c-0.111-0.139-0.236-0.264-0.373-0.375H7.143c-0.177-0.347-0.408-0.663-0.683-0.938H4.534c-0.284-0.078-0.576-0.121-0.87-0.125
	c-0.582-0.146-1.334-0.322-1.925-0.438c-0.294,0.01-0.586,0.052-0.87,0.125l-0.311-0.375c0.78-0.106,0.867-0.889,0.807-1.687
	c-0.375-0.166-0.773-0.271-1.18-0.312C0.133,19.92,0.062,19.879,0,19.688c0.329-0.062,0.661-0.103,0.994-0.125
	c0.458,0.161,0.95,0.204,1.429,0.125c0.311-0.292,0.602-0.605,0.87-0.937c0.344-0.093,0.704-0.114,1.056-0.063v0.125
	c-0.067,0.068-0.11,0.155-0.124,0.25c0.152-0.027,0.304,0.049,0.373,0.188H4.472c-0.095-0.051-0.204-0.072-0.311-0.062v0.125
	c0.429,0.394,0.786,0.858,1.056,1.375c0.129,0.176,0.368,0.325,0.5,0.5c0.092,0.208,0.218,0.397,0.373,0.563h2.854
	c0.67-0.178,1.358-0.281,2.05-0.313v-0.316H7.888c-0.052,0.341-0.371,0.575-0.711,0.523c-0.032-0.006-0.064-0.014-0.096-0.023
	c-0.155-0.252-0.3-0.125-0.559-0.125C6.48,21.38,6.46,21.253,6.46,21.125c0.441-0.334-0.235-1.199-0.311-1.687
	c0.042-0.296,0.104-0.588,0.186-0.875L5.963,18.5v-0.062c0.054-0.117,0.075-0.247,0.062-0.375c0.431-0.063,0.341-0.524,0.311-1H5.9
	v-0.25l0.248-0.062c-0.025,0.142-0.057,0.068,0,0.188c0.153-0.17,0.221-0.399,0.186-0.625c-0.066-0.18-0.088-0.373-0.062-0.562H5.9
	c-0.083-0.727-0.083-1.46,0-2.187c0.062-0.125,0.176-0.216,0.311-0.25c-0.224-0.111-0.384-0.318-0.435-0.562
	c0.261-0.093,0.532-0.155,0.807-0.187v-0.378c-0.125-0.134-0.172-0.323-0.124-0.5c0.135-0.148,0.308-0.256,0.5-0.312
	c0.399,0.136,0.82,0.2,1.242,0.188v-3.25C8.139,7.876,8.16,7.431,8.261,7V11.563z M13.292,9.063L13.23,9.251h0.186
	C13.409,9.172,13.362,9.101,13.292,9.063z M13.478,9.313c0.28,0.104,0.589,0.104,0.869,0H13.478z M17.329,9.876
	c0.312-0.046,0.629-0.024,0.932,0.063C17.949,9.984,17.631,9.963,17.329,9.876L17.329,9.876z M12.981,10.376
	c0.087-0.007,0.174,0.015,0.248,0.063C13.142,10.446,13.054,10.423,12.981,10.376L12.981,10.376z M18.7,11.688
	c-0.046,0.055-0.078,0.07-0.124,0.125c0.043,0.079,0.107,0.144,0.186,0.188v0.063h0.058v-0.126
	C18.78,11.884,18.737,11.741,18.7,11.688z M6.584,11.75v0.125h0.124v-0.062H6.77V11.75H6.584z M25.652,17
	c0.127-0.017,0.258,0.005,0.373,0.063C25.896,17.08,25.768,17.058,25.652,17z M21.863,17.063v0.125h0.062
	C21.919,17.141,21.896,17.097,21.863,17.063z M24.223,17.688c-0.001,0.067,0.021,0.134,0.063,0.188
	c0.002-0.068-0.02-0.135-0.061-0.188H24.223z M24.348,17.688c0.033,0.034,0.076,0.056,0.123,0.063
	C24.438,17.718,24.395,17.695,24.348,17.688L24.348,17.688z M24.533,17.688c-0.002,0.067,0.021,0.134,0.063,0.188v-0.188H24.533
	L24.533,17.688z M24.844,17.688c-0.001,0.067,0.021,0.134,0.063,0.188v-0.188h-0.061H24.844z M24.968,17.688
	c0.052,0.2-0.03,0.101,0.124,0.188v-0.063C25.039,17.767,25.023,17.734,24.968,17.688L24.968,17.688z M24.348,17.813
	c0.033,0.034,0.076,0.056,0.123,0.063C24.438,17.843,24.395,17.82,24.348,17.813L24.348,17.813z M24.1,17.938v0.125h0.062
	C24.155,18.016,24.134,17.973,24.1,17.938L24.1,17.938z M24.223,17.938v0.125h0.063c-0.006-0.048-0.027-0.091-0.061-0.125H24.223z
	 M24.348,17.938v0.125h0.063V18h0.063C24.438,17.967,24.395,17.945,24.348,17.938L24.348,17.938z M6.086,18.127v0.25h0.063v-0.063
	c0.04-0.054,0.062-0.12,0.062-0.187H6.086L6.086,18.127z M24.223,18.127c-0.001,0.067,0.021,0.134,0.063,0.188v-0.189h-0.061
	L24.223,18.127z M5.839,18.5h0.124v0.063H5.839V18.5z M5.715,18.563h0.124v0.063H5.776C5.733,18.633,5.656,18.629,5.715,18.563
	L5.715,18.563z M24.971,18.627v0.123h0.062v-0.125h-0.063L24.971,18.627z M5.529,18.689h0.123v0.061
	C5.605,18.744,5.561,18.723,5.529,18.689L5.529,18.689z M5.4,18.75h0.128v0.063H5.466C5.423,18.821,5.345,18.816,5.4,18.75z
	 M5.214,18.875h0.128v0.063c-0.047-0.007-0.091-0.028-0.125-0.063H5.214z M24.779,18.875c0.033,0.034,0.076,0.057,0.123,0.063
	c-0.031-0.033-0.074-0.056-0.119-0.063H24.779z M5.09,18.938h0.127C5.202,18.964,5.181,18.985,5.155,19
	c-0.043,0.008-0.12,0-0.062-0.062H5.09z M4.904,19.063h0.127v0.063H4.907v-0.063H4.904z M24.779,19.063
	c0.063,0.188-0.024,0.166,0.125,0.25v-0.25h-0.121H24.779z M4.78,19.127h0.127c-0.015,0.025-0.037,0.047-0.062,0.063
	C4.8,19.2,4.724,19.191,4.783,19.125L4.78,19.127z M24.221,19.189v0.125h0.063v-0.126h-0.059L24.221,19.189z M24.532,19.189v0.125
	H24.6v-0.126h-0.065L24.532,19.189z M4.6,19.25h0.12v0.063C4.674,19.307,4.632,19.283,4.6,19.25z M24.352,19.25
	c0.034,0.034,0.078,0.057,0.125,0.063c-0.035-0.034-0.08-0.057-0.129-0.063H24.352z M4.476,19.313H4.6
	c-0.015,0.026-0.037,0.048-0.062,0.063c-0.047,0.006-0.125,0.002-0.066-0.063H4.476z M6.029,19.438h0.12V19.5H6.025v-0.062H6.029z
	 M24.352,19.438c0.034,0.034,0.078,0.056,0.125,0.063c-0.035-0.035-0.08-0.057-0.129-0.063H24.352z M5.839,19.5
	c0.067,0,0.133,0.021,0.186,0.063H5.839V19.5z M5.715,19.563h0.124v0.063H5.714L5.715,19.563L5.715,19.563z M5.591,19.627h0.123
	v0.063H5.59v-0.064L5.591,19.627z M5.4,19.688c0.067-0.001,0.133,0.021,0.186,0.063C5.519,19.752,5.453,19.729,5.4,19.688z
	 M5.28,19.75H5.4v0.063C5.354,19.807,5.312,19.783,5.28,19.75z M5.156,19.813H5.28v0.063c-0.047-0.007-0.091-0.029-0.125-0.063
	H5.156z M4.97,19.877c0.067-0.001,0.133,0.021,0.186,0.063H4.969v-0.064L4.97,19.877z M4.846,19.939h0.123V20
	C4.922,19.994,4.878,19.973,4.846,19.939L4.846,19.939z M3.417,20.377c0.002,0.154,0.045,0.306,0.124,0.438
	c0.117,0.227,0.289,0.421,0.5,0.563h0.12c0.07-0.158,0.112-0.328,0.124-0.5c-0.18-0.154-0.347-0.32-0.5-0.5H3.416L3.417,20.377z
	 M39.193,21v0.125H39.13v0.063c0.214,0.31,0.303,0.69,0.248,1.063h0.062v-0.938C39.346,21.221,39.288,21.092,39.193,21z M39.5,22.5
	v0.125h0.124V22.5H39.5z M4.034,22.688c0.082,0.083,0.194,0.128,0.311,0.125V22.75H4.286v-0.062H4.037H4.034z M19.314,25.938h0.248
	c-0.002-0.128,0.019-0.255,0.062-0.375h0.062v0.313h0.186v-0.313h0.062v0.125c0.046,0.075,0.068,0.162,0.062,0.25
	c0.067,0.001,0.133-0.021,0.186-0.062c-0.241-0.4-0.39-0.848-0.435-1.313l-0.186,0.688c-0.049,0.086-0.282,0.23-0.311,0.313
	L19.314,25.938z M22.73,25.938h0.248l0.062-0.375h0.062v0.313h0.187v-0.313h0.062v0.063c0.052,0.096,0.074,0.204,0.063,0.313h0.248
	c0.031-0.527-0.116-0.745-0.124-1.375h-0.183c-0.129,0.636-0.554,0.863-0.621,1.374H22.73z M26.954,24.563
	c-0.069,0.59-0.399,0.716-0.435,1.313h0.186v-0.25h0.124v0.313h0.248l0.062-0.375h0.063v0.313h0.186v-0.25h0.125
	c0.021,0.283-0.009,0.262,0.247,0.313v-0.065c-0.37-0.329-0.558-0.818-0.5-1.312h-0.302H26.954z M30.555,24.563
	c-0.056,0.514-0.272,0.819-0.312,1.313h0.062v0.063H30.5l0.063-0.375h0.062v0.313h0.187v-0.25h0.123
	c0.002,0.107,0.023,0.213,0.063,0.313h0.184c0.03-0.519-0.117-0.729-0.123-1.375h-0.5L30.555,24.563z M34.777,24.563v0.063h-0.057
	c-0.119,0.049,0.125,0.063,0.125,0.063v-0.064h0.062c-0.034-0.033-0.077-0.055-0.124-0.062H34.777z M11.8,25.938h0.25l0.062-0.375
	h0.062c-0.016,0.128,0.005,0.259,0.062,0.375c0.034-0.033,0.077-0.056,0.124-0.062v-0.313c-0.009-0.308-0.094-0.608-0.248-0.875
	v0.125c-0.052,0.121-0.093,0.247-0.124,0.375c-0.232,0.199-0.405,0.458-0.5,0.75h0.124v-0.063c0.043-0.063,0.08-0.25,0.124-0.312
	v0.063C11.788,25.722,11.811,25.83,11.8,25.938z M34.348,24.688c0.024,0.091,0.095,0.161,0.186,0.188v-0.063H34.6V24.75h-0.065
	v-0.062H34.348L34.348,24.688z M34.223,24.877c0.051,0.199-0.029,0.1,0.125,0.188c-0.008-0.08-0.054-0.15-0.123-0.189L34.223,24.877
	z M15.59,25.877h0.186v-0.313h0.062v0.125c0.046,0.075,0.068,0.162,0.062,0.25c0.067,0.001,0.133-0.021,0.186-0.062
	c0.046-0.076,0.068-0.163,0.062-0.25c-0.013-0.173-0.055-0.342-0.124-0.5c-0.033,0.033-0.055,0.077-0.062,0.125
	c-0.147,0.113-0.214,0.267-0.373,0.375L15.59,25.877L15.59,25.877z M19.19,25.877c0.001-0.068-0.021-0.134-0.062-0.188
	c-0.034,0.033-0.077,0.056-0.124,0.063v0.125H19.19L19.19,25.877z M23.79,25.689c0.051,0.199-0.03,0.1,0.124,0.188v-0.063
	C23.859,25.767,23.843,25.734,23.79,25.689L23.79,25.689z M31.307,25.689c0.051,0.199-0.031,0.1,0.123,0.188
	c-0.008-0.08-0.057-0.152-0.13-0.188L31.307,25.689z M12.486,25.939c0.067,0,0.133-0.021,0.186-0.063l-0.186-0.125V25.939
	L12.486,25.939z M15.4,25.75c-0.038,0.07-0.107,0.117-0.186,0.125v0.063H15.4C15.429,25.801,15.461,25.87,15.4,25.75z M16.27,25.75
	v0.125c0.103-0.074,0.079-0.025,0.003-0.125H16.27z M11.301,25.813v0.063h-0.059c-0.119,0.049,0.124,0.063,0.124,0.063
	C11.359,25.891,11.336,25.847,11.301,25.813L11.301,25.813z M26.332,25.813v0.063h-0.059c-0.119,0.049,0.123,0.063,0.123,0.063
	c-0.006-0.048-0.027-0.092-0.062-0.126H26.332z M18.754,25.877c0.034,0.033,0.077,0.055,0.124,0.063
	c-0.032-0.033-0.074-0.056-0.12-0.064L18.754,25.877z M14.654,26.814c0.034,0.033,0.077,0.056,0.124,0.063
	c-0.032-0.033-0.074-0.055-0.12-0.063L14.654,26.814z M16.083,26.814c0.034,0.033,0.077,0.056,0.124,0.063
	c-0.032-0.033-0.074-0.055-0.12-0.063L16.083,26.814z M17.511,26.814c0.034,0.033,0.077,0.056,0.124,0.063
	c-0.032-0.033-0.073-0.055-0.119-0.063L17.511,26.814z M18.256,26.814c0.034,0.033,0.077,0.056,0.124,0.063
	c-0.032-0.033-0.074-0.055-0.119-0.063L18.256,26.814z M23.971,26.814c0.033,0.033,0.076,0.056,0.123,0.063
	c-0.031-0.033-0.073-0.055-0.119-0.063L23.971,26.814z M24.652,26.814c0.034,0.033,0.078,0.056,0.125,0.063
	c-0.032-0.033-0.074-0.055-0.119-0.063L24.652,26.814z M25.398,26.814c0.033,0.033,0.076,0.056,0.123,0.063
	c-0.032-0.033-0.075-0.056-0.121-0.063L25.398,26.814z M26.081,26.814c0.034,0.033,0.077,0.056,0.124,0.063
	c-0.031-0.033-0.073-0.055-0.118-0.063L26.081,26.814z M26.826,26.814c0.033,0.033,0.076,0.056,0.124,0.063
	c-0.032-0.033-0.073-0.055-0.118-0.063L26.826,26.814z M27.509,26.814c0.034,0.033,0.077,0.056,0.124,0.063
	c-0.031-0.032-0.072-0.055-0.117-0.063L27.509,26.814z M28.254,26.814c0.033,0.033,0.077,0.056,0.124,0.063
	c-0.031-0.032-0.072-0.055-0.116-0.063L28.254,26.814z M29.682,26.814c0.034,0.033,0.077,0.056,0.125,0.063
	c-0.032-0.032-0.073-0.055-0.117-0.063L29.682,26.814z M30.427,26.814c0.034,0.033,0.077,0.056,0.124,0.063
	c-0.031-0.032-0.071-0.055-0.115-0.063L30.427,26.814z M31.855,26.814c0.034,0.033,0.078,0.056,0.125,0.063
	c-0.032-0.032-0.072-0.055-0.117-0.063L31.855,26.814z"/>
</svg>
