<?xml version="1.0" encoding="utf-8"?>
<!-- Generator: Adobe Illustrator 16.0.0, SVG Export Plug-In . SVG Version: 6.00 Build 0)  -->
<!DOCTYPE svg PUBLIC "-//W3C//DTD SVG 1.1//EN" "http://www.w3.org/Graphics/SVG/1.1/DTD/svg11.dtd">
<svg version="1.1" id="Layer_1" xmlns="http://www.w3.org/2000/svg" xmlns:xlink="http://www.w3.org/1999/xlink" x="0px" y="0px"
	 width="40px" height="40px" viewBox="0 0 40 40" enable-background="new 0 0 40 40" xml:space="preserve">
<path id="fr_m3a3_stuart_ico" fill="#FFFFFF" d="M15.318,9.755h0.161c-0.01,0.124-0.064,0.7-0.064,0.7
	c0.086,0.095,0.123,0.225,0.1,0.352c-0.105,0.229-0.14,0.484-0.1,0.734l0.064,0.032V11.8c0.049,0.083,0.082-0.022,0.1,0.191h0.611
	l0.032-0.319c0.146-0.037,0.235-0.186,0.198-0.333c-0.001-0.006-0.003-0.012-0.005-0.018c0.595-0.098,1.177-0.258,1.738-0.479
	c0.208-0.004,0.41-0.071,0.579-0.192c0.001-0.196-0.032-0.39-0.1-0.574h0.129c0.076,0.124,0.162,0.242,0.257,0.351
	c0.035-0.057,0.095-0.094,0.161-0.1v0.032h0.032v0.1c0.131-0.001,0.262-0.023,0.386-0.064c0.127,0.025,0.256,0.036,0.386,0.032
	c0.251-0.088,0.4-0.471,0.644-0.574h0.611c0.065,0.206,0.088,0.423,0.063,0.638c0.474,0,0.888,0.062,1.416,0.064v-0.289h0.101v0.287
	h0.322v-0.127c0.172-0.345,0.219-0.741,0.129-1.117h-0.131V9.277c0.045-0.056,0.08-0.121,0.1-0.191
	c-0.223-0.035-0.439-0.099-0.645-0.192c-0.027,0.086-0.02-0.013-0.063,0.064c0.006,0.074,0.006,0.149,0,0.223H22.2
	c-0.037-0.158-0.058-0.319-0.06-0.481c-0.364-0.023-0.717-0.133-1.031-0.319C20.932,8.191,20.727,8.029,20.5,7.9v0.032
	c0.033,0.047,0.056,0.102,0.064,0.16H20.4c0.001,0.036-0.01,0.072-0.032,0.1c-0.029,0.021-0.064,0.032-0.1,0.032V8.192h-0.027V8.1
	H20.08V8.032c0.02-0.159,0.02-0.32,0-0.479c0.077,0.003,0.151-0.035,0.193-0.1h-0.1V7.33c-0.136,0.012-0.272-0.023-0.386-0.1h0.161
	c0-0.069-0.022-0.136-0.064-0.191c-0.092-0.034-0.192-0.045-0.29-0.032v0.032h-0.028c-0.038,0.227-0.092,0.451-0.161,0.67
	c-0.073,0.023-0.149,0.034-0.225,0.032c-0.062-0.083-0.097-0.184-0.1-0.287c0.102-0.127,0.188-0.267,0.257-0.415
	c-0.015-0.073-0.015-0.149,0-0.223c0.19-0.044,0.384-0.065,0.579-0.064l0.032-0.223c0.09-0.006,0.173-0.054,0.225-0.128
	c-0.061-0.011-0.104-0.066-0.1-0.128c0.158-0.033,0.321-0.044,0.483-0.032v0.064c0.021,0.028,0.032,0.063,0.031,0.1h0.387
	c0.029,0.045,0.063,0.088,0.1,0.128h0.708v-0.1h0.129v0.1c0.376,0,0.635,0,0.965,0V6.277h0.101v0.479
	c1.391,0,2.842,0.029,4.183,0.032C27.186,6.892,27.197,7,27.191,7.107c-1.373,0-2.856,0.031-4.28,0.032v0.319
	c0.146,0.063,0.298,0.116,0.45,0.16c-0.099,0.207-0.185,0.42-0.256,0.638c-0.125,0.088-0.242,0.184-0.354,0.287
	c0.241,0.059,0.489,0.162,0.772,0.223c0.135,0.157,0.234,0.343,0.289,0.543h-0.1v1.021h0.032c0.132-0.167,0.282-0.317,0.45-0.447
	c0.094-0.012,0.182-0.046,0.259-0.1c-0.103-0.074-0.162-0.193-0.161-0.319c-0.123,0.046-0.254,0.068-0.386,0.064
	c-0.022-0.149-0.068-0.279,0.063-0.351c0.111-0.016,0.226,0.006,0.322,0.064c0.015-0.086,0.036-0.172,0.064-0.255
	c0.403-0.278,0.902-0.382,1.384-0.287v1.309h-0.576v0.032c0.137,0.126,0.228,0.295,0.258,0.479c0.224,0.141,0.478,0.228,0.74,0.255
	v-0.029h0.032v-0.1c0.145,0.021,0.285,0.064,0.418,0.128l-0.032,0.16c0.517,0.091,1.017,0.263,1.479,0.511
	c-0.01,0.121,0.038,0.239,0.129,0.319c0.2,0.049,0.406,0.07,0.611,0.064c-0.071-0.126-0.083-0.278-0.031-0.415h0.225
	c0.153,0.157,0.314,0.307,0.482,0.447h0.387c0.104,0.036,0.213,0.047,0.322,0.032c0.139,0.329,0.301,0.649,0.482,0.957H32.5
	c0.412,0.088,0.834,0.122,1.255,0.1c0.5,0.105,1.168-0.082,1.706,0.032c0.48,0.053,0.965,0.063,1.448,0.032
	c0.61,0.034,1.224,0.034,1.834,0v0.415c-2.486-0.109-5.048,0.153-7.5,0.16v0.032c0.037,0.048,0.08,0.092,0.129,0.128
	c0.05,0.027,0.105,0.038,0.161,0.032v0.287h-0.125c-0.008,0.013-0.02,0.024-0.032,0.032c0.023,0.152,0.001,0.308-0.063,0.447
	c-0.395,0.393-0.785,0.073-1.352,0.223c-0.153,0.067-0.316,0.11-0.482,0.128l-0.033-0.223h-0.064
	c-0.154,0.126-0.348,0.194-0.547,0.191c-0.004,0.131,0.019,0.261,0.064,0.383h-0.74c-0.008,0.014-0.02,0.024-0.032,0.032v0.032h0.29
	c0.27,0.04,0.531,0.126,0.771,0.255c0.041,0.056,0.063,0.122,0.064,0.191h0.1c0.008-0.126,0.101-0.232,0.226-0.255
	c0.231,0.011,0.456-0.083,0.61-0.255l0.58,0.064c0.045,0.065,0.066,0.144,0.063,0.223H30.8c-0.016,0.088,0.019,0.038,0.064,0.064
	c0.098,0.063,0.207,0.106,0.321,0.128c0,0.124,0.035,0.245,0.101,0.351c0.087,0.104,0.222,0.152,0.354,0.128
	c0.014-0.076,0.082-0.131,0.16-0.128c0.262,0.321,0.78,0.374,1.063,0.67c0.023-0.003,0.047-0.015,0.063-0.032
	c0.063-0.18,0.228-0.305,0.418-0.318c0.098,0.063,0.176,0.15,0.226,0.255c0.021,0.028,0.032,0.063,0.031,0.101
	c-0.113,0.109-0.175,0.272-0.289,0.383c0.014,0.055,0.035,0.108,0.063,0.158c-0.067,0.026-0.133,0.061-0.192,0.101
	c0.017,0.017,0.039,0.028,0.063,0.032c0.145,0.094,0.296,0.18,0.451,0.255c0.235,0.249,0.421,0.542,0.547,0.862
	c0.321,0.026,0.644,0.037,0.965,0.031c0.052-0.208,0.177-0.39,0.354-0.511c0.164-0.099,0.355-0.144,0.547-0.128v0.16
	c0.167,0.053,0.34,0.087,0.515,0.1c0.052-0.154,0.073-0.316,0.063-0.479h0.193c0.008,0.525-0.046,1.051-0.16,1.563
	c0.631,0.041,1.174,0.062,1.963,0.063c0.026,0.104,0.037,0.213,0.031,0.319c-0.212,0.04-0.429,0.051-0.644,0.032v0.032H38.1
	c0.193,0.144,0.397,0.272,0.611,0.383c0.493,0.376,0.928,0.824,1.289,1.327c-0.023,0.038-0.035,0.083-0.032,0.128
	c-0.237,0.166-0.565,0.375-0.899,0.575c0.033,0.059,0.055,0.124,0.063,0.19c-0.044,0.033-0.079,0.077-0.1,0.129l-0.101-0.033
	L38.9,22.617c0.036,0.016,0.07,0.037,0.1,0.064c0.091-0.041,0.192-0.053,0.29-0.031c0.008,0.014,0.019,0.023,0.032,0.031
	c0.017,0.121,0.045,0.135,0.063,0.256c-0.077,0.014-0.151,0.035-0.225,0.064c0,0,0.093,0.041,0.063,0.063H39.2
	c-0.037,0.051-0.07,0.105-0.101,0.16l0.064,0.033c0.02,0.006,0.181,0.018,0.258,0.031c0.001,0.055,0.012,0.109,0.032,0.16
	c-0.099,0.014-0.195,0.035-0.29,0.064c-0.008,0.012-0.02,0.023-0.032,0.031l0.068,0.154c0.084-0.023,0.173-0.023,0.257,0
	l-0.032,0.256c-0.086,0.004-0.172,0.004-0.258,0l-0.101,0.064c0.054,0.057,0.098,0.121,0.129,0.191
	c-0.041,0.025-0.075,0.059-0.1,0.1c0.133,0.041,0.158,0.084,0.161,0.256c-0.017,0.018-0.028,0.039-0.032,0.064h-0.158
	c-0.073,0.027-0.086-0.029-0.16,0c-0.108,0.041-0.094,0.049-0.1,0.189l0.16,0.033c0.018,0.041,0.027,0.084,0.032,0.127
	c-0.073,0.098-0.159,0.184-0.257,0.256c-0.084,0.063-0.186,0.098-0.29,0.1c0.032,0.07,0.044,0.146,0.032,0.223l-0.064,0.1
	c-0.104-0.078-0.226-0.133-0.354-0.158v0.063c-0.021,0.029-0.033,0.064-0.032,0.1c0.122,0,0.088-0.031,0.1,0.129
	c0.018,0.018,0.028,0.039,0.032,0.064c-0.048,0.041-0.102,0.076-0.161,0.1v0.031h-0.032v-0.051l-0.16-0.127
	c-0.018,0.129-0.008,0.129-0.129,0.16c-0.039-0.039-0.082-0.072-0.129-0.102c-0.005,0.045-0.016,0.088-0.033,0.129
	c0.06,0.078,0.162,0.08,0.101,0.223c-0.024,0.027-0.041,0.037-0.063,0.064c-0.025-0.004-0.047-0.014-0.064-0.031
	c-0.109-0.031-0.1-0.014-0.129-0.129H37.2c-0.035,0.047-0.058,0.102-0.064,0.158c0.087,0.039,0.139,0.129,0.13,0.225
	c-0.078,0.018-0.146,0.063-0.193,0.127h-0.033v-0.027c-0.063-0.09-0.153-0.156-0.257-0.191c-0.055,0.064-0.12,0.119-0.193,0.16
	l0.032,0.064h-0.032c0.029,0.021,0.064,0.031,0.101,0.031c0.017,0.074,0.017,0.15,0,0.223c-0.024,0.029-0.041,0.037-0.064,0.064
	c-0.024-0.004-0.047-0.014-0.064-0.031c-0.08-0.055-0.168-0.096-0.261-0.125c-0.017,0.016-0.04,0.027-0.063,0.031
	c-0.018,0.041-0.027,0.084-0.032,0.129c0.069,0.037,0.108,0.113,0.101,0.191c-0.04,0.047-0.083,0.088-0.13,0.127
	c-0.103-0.07-0.211-0.133-0.321-0.189l-0.193,0.16v0.1h0.1l0.032,0.223c-0.063,0.027-0.127,0.049-0.192,0.064
	c-0.035-0.035-0.081-0.059-0.13-0.064c-0.043-0.096,0.031-0.078-0.129-0.1c-0.017,0.016-0.04,0.027-0.063,0.031v0.129
	c0.06,0.049,0.104,0.115,0.129,0.189c-0.076,0.039-0.143,0.094-0.193,0.16h-0.04v-0.035c-0.13-0.113-0.051-0.18-0.258-0.191
	c-0.064,0.041-0.12,0.096-0.161,0.16c-0.021,0.027-0.033,0.063-0.031,0.1c0.08,0.012,0.051-0.02,0.063,0.1
	c0.024,0.037,0.035,0.082,0.032,0.127c-0.04,0.029-0.084,0.051-0.129,0.064c-0.071-0.033-0.135-0.08-0.189-0.137
	c-0.011-0.025,0-0.021-0.129-0.031l-0.1,0.16h0.1c0.01,0.063,0.01,0.127,0,0.191c-0.096,0.082-0.205,0.146-0.322,0.191
	c-0.037-0.094-0.092-0.182-0.16-0.256c-0.13,0.016-0.246,0.086-0.322,0.191c-0.006,0.084-0.006,0.17,0,0.254l-0.258,0.033
	c-0.008-0.156-0.134-0.281-0.291-0.287c-0.027,0.039-0.049,0.082-0.063,0.127c0.036,0,0.071,0.012,0.101,0.033
	c-0.201,0.111-0.023,0.199-0.419,0.191c0.009-0.086,0.009-0.17,0-0.256c-0.089-0.076-0.21-0.1-0.321-0.064v0.064
	c-0.031,0.082-0.053,0.168-0.064,0.256h-0.199c-0.009-0.088-0.03-0.174-0.064-0.256c-0.07-0.037-0.154-0.037-0.225,0
	c0.014,0.084,0.014,0.17,0,0.256h-0.289c-0.016-0.096-0.016-0.193,0-0.287c-0.116-0.029-0.236-0.039-0.354-0.033v0.064
	c-0.011,0.078-0.032,0.152-0.063,0.223c-0.061,0.029-0.127,0.041-0.193,0.033c-0.033-0.178-0.01-0.301-0.226-0.32
	c-0.03,0.035-0.064,0.07-0.1,0.102c0.03,0.068,0.042,0.146,0.032,0.223h-0.291c-0.021-0.086-0.01-0.178,0.033-0.256
	c-0.11-0.053-0.232-0.076-0.354-0.064l-0.032,0.064c-0.031,0.082-0.053,0.168-0.064,0.256H29.67
	c-0.009-0.088-0.03-0.174-0.064-0.256c-0.035-0.053-0.099-0.078-0.16-0.064c-0.017,0.027-0.039,0.049-0.064,0.064
	c0.04,0.08,0.04,0.176,0,0.256h-0.258c0.006-0.086-0.006-0.174-0.032-0.256c-0.089-0.076-0.211-0.1-0.321-0.064v0.064
	c-0.031,0.082-0.053,0.168-0.064,0.256h-0.193c-0.041-0.08-0.041-0.176,0-0.256c-0.071-0.031-0.146-0.055-0.225-0.064
	c-0.047,0.1-0.068,0.209-0.064,0.32h-0.289c-0.022-0.086-0.012-0.178,0.031-0.256c-0.121-0.055-0.254-0.076-0.386-0.064v0.064
	c-0.028,0.084-0.05,0.168-0.063,0.256H27.32c-0.002-0.09-0.024-0.176-0.063-0.256c-0.06-0.029-0.127-0.039-0.192-0.031
	c-0.008,0.012-0.02,0.023-0.032,0.031c0.019,0.084,0.019,0.172,0,0.256h-0.259c-0.015-0.096-0.015-0.193,0-0.287
	c-0.104-0.027-0.213-0.039-0.321-0.033l-0.032,0.064c-0.009,0.078-0.03,0.152-0.064,0.223c-0.049,0.027-0.105,0.039-0.16,0.033
	c-0.065-0.166-0.029-0.307-0.258-0.32c-0.014,0.039-0.035,0.072-0.064,0.102c0.031,0.068,0.042,0.146,0.032,0.223h-0.29
	c-0.022-0.086-0.011-0.178,0.031-0.256c-0.109-0.053-0.232-0.076-0.354-0.064l-0.032,0.064c-0.009,0.078-0.03,0.152-0.063,0.223
	c-0.05,0.027-0.105,0.039-0.161,0.033c-0.033-0.178-0.009-0.301-0.226-0.32l-0.031,0.064c-0.016,0.084-0.026,0.17-0.032,0.256
	h-0.258c-0.012-0.096-0.012-0.191,0-0.287c-0.105-0.027-0.214-0.039-0.322-0.033l-0.032,0.064c-0.01,0.078-0.031,0.152-0.064,0.223
	c-0.049,0.027-0.104,0.039-0.16,0.033c-0.002-0.094-0.038-0.186-0.1-0.256c-0.047-0.08-0.015-0.049-0.129-0.064
	c-0.017,0.027-0.039,0.049-0.064,0.064c0.02,0.084,0.02,0.172,0,0.256h-0.29c0.008-0.086,0.008-0.17,0-0.256
	c-0.093-0.068-0.21-0.092-0.322-0.064c-0.017,0.027-0.038,0.049-0.063,0.064c0.066,0.113,0.021,0.076,0,0.256h-0.19
	c-0.009-0.088-0.03-0.174-0.063-0.256c-0.071-0.037-0.154-0.037-0.226,0c0.02,0.084,0.02,0.172,0,0.256H22.2
	c-0.005-0.086-0.015-0.172-0.032-0.256c-0.092-0.068-0.211-0.092-0.322-0.064c-0.016,0.027-0.037,0.049-0.063,0.064
	c0.045,0.076,0.055,0.018,0.032,0.1c-0.024,0.152-0.055,0.158-0.226,0.16c-0.032-0.178-0.009-0.299-0.225-0.318
	c-0.031,0.035-0.065,0.068-0.101,0.1c0.031,0.07,0.042,0.148,0.032,0.223h-0.29c0.008-0.084,0.008-0.17,0-0.254
	c-0.092-0.068-0.211-0.092-0.322-0.064l-0.031,0.064c-0.009,0.076-0.031,0.152-0.064,0.223c-0.049,0.027-0.105,0.037-0.161,0.031
	c-0.033-0.178-0.009-0.299-0.225-0.318L20.17,28.73c-0.015,0.084-0.026,0.17-0.032,0.254h-0.251
	c0.005-0.086-0.006-0.172-0.032-0.254c-0.089-0.076-0.211-0.1-0.322-0.064v0.064c-0.031,0.082-0.053,0.168-0.064,0.254h-0.161
	c-0.008-0.012-0.019-0.023-0.032-0.031c0.017-0.08-0.007-0.164-0.064-0.223c-0.035-0.053-0.099-0.078-0.161-0.064
	c-0.016,0.025-0.038,0.049-0.064,0.064c0.068,0.109,0.027,0.09,0,0.254H18.7c0.008-0.084,0.008-0.17,0-0.254
	c-0.089-0.076-0.211-0.1-0.322-0.064v0.064c-0.031,0.082-0.053,0.168-0.064,0.254h-0.196c-0.003-0.088-0.025-0.174-0.064-0.254
	c-0.06-0.029-0.127-0.041-0.193-0.033c-0.008,0.014-0.019,0.025-0.032,0.033c0.02,0.084,0.02,0.17,0,0.254H17.57
	c0-0.086-0.01-0.172-0.032-0.254c-0.089-0.076-0.211-0.1-0.322-0.064c-0.016,0.025-0.038,0.049-0.064,0.064
	c0.065,0.1,0.036,0.107,0,0.254h-0.193c-0.034-0.178-0.009-0.299-0.225-0.318c-0.031,0.035-0.064,0.068-0.1,0.1
	c0.031,0.07,0.042,0.148,0.032,0.223H16.38c-0.022-0.086-0.011-0.176,0.032-0.254c-0.11-0.055-0.232-0.076-0.354-0.064l-0.032,0.064
	c-0.028,0.082-0.049,0.168-0.064,0.254H15.8c-0.061-0.152-0.029-0.299-0.225-0.318l-0.032,0.064
	c-0.009,0.076-0.03,0.152-0.064,0.223c-0.082,0.033-0.17,0.043-0.258,0.031c0.008-0.084,0.008-0.17,0-0.254
	c-0.093-0.068-0.21-0.092-0.322-0.064l-0.032,0.064c-0.028,0.082-0.049,0.168-0.064,0.254h-0.161
	c-0.008-0.012-0.019-0.023-0.032-0.031c0.017-0.08-0.007-0.164-0.064-0.223c-0.047-0.082-0.014-0.049-0.129-0.064l-0.032,0.064
	c-0.031,0.082-0.053,0.168-0.064,0.254h-0.29c-0.001-0.096,0.01-0.191,0.032-0.287c-0.105-0.025-0.213-0.037-0.322-0.031
	l-0.032,0.064c-0.031,0.082-0.053,0.168-0.064,0.254h-0.194c-0.009-0.086-0.031-0.172-0.064-0.254c-0.071-0.037-0.155-0.037-0.225,0
	c0.02,0.084,0.02,0.17,0,0.254h-0.29c0.006-0.084,0.006-0.17,0-0.254c-0.089-0.076-0.211-0.1-0.322-0.064
	c-0.016,0.025-0.038,0.049-0.064,0.064c0.025,0.055,0.084,0.059,0.032,0.1c-0.054,0.139-0.056,0.16-0.257,0.16V28.9
	c-0.031-0.07-0.053-0.146-0.063-0.223c-0.05-0.027-0.105-0.039-0.161-0.033L12,28.713c-0.015,0.084-0.026,0.17-0.032,0.256h-0.29
	c0-0.098,0.01-0.193,0.032-0.287c-0.105-0.027-0.214-0.039-0.322-0.033c-0.056,0.121-0.039,0.311-0.29,0.32
	c-0.032-0.168-0.015-0.287-0.193-0.32c-0.031,0.035-0.065,0.07-0.1,0.102c0.025,0.072,0.025,0.15,0,0.223h-0.29
	c0-0.098,0.01-0.193,0.032-0.287c-0.105-0.027-0.213-0.039-0.322-0.033l-0.032,0.064c-0.065,0.084,0,0.248-0.257,0.256V28.9
	c-0.072-0.1-0.044-0.1,0-0.191c-0.071-0.033-0.147-0.055-0.225-0.064l-0.032,0.064c-0.029,0.082-0.05,0.168-0.064,0.256H9.332
	c0.026-0.084,0.037-0.17,0.032-0.256c-0.047-0.08-0.068-0.064-0.193-0.064c-0.071-0.033-0.154-0.033-0.225,0
	c0.02,0.121-0.062,0.236-0.183,0.256c-0.024,0.004-0.05,0.004-0.074,0c-0.039-0.023-0.083-0.035-0.129-0.033
	c-0.021-0.156-0.045-0.191-0.064-0.318H8.367c-0.039-0.023-0.084-0.035-0.129-0.031c0.013,0.096-0.025,0.193-0.1,0.254
	C8,28.658,7.858,28.734,7.852,28.457c0.057-0.061,0.059-0.025,0.032-0.1c-0.074-0.078-0.161-0.143-0.257-0.191
	c-0.041,0.018-0.083,0.029-0.127,0.033c0,0.092-0.037,0.139-0.193,0.16c-0.125-0.068-0.191-0.211-0.161-0.35h0.062v-0.063H7.176
	c-0.034-0.109-0.144-0.178-0.257-0.16v-0.031H6.887c0.013,0.07,0.03,0.035,0,0.1c-0.042,0.049-0.099,0.084-0.161,0.1v-0.039
	c-0.09-0.041-0.151-0.127-0.161-0.225c0.089-0.055,0.149-0.148,0.161-0.254c-0.069-0.076-0.158-0.133-0.257-0.16
	c-0.079,0.047-0.166,0.08-0.257,0.1c-0.032-0.07-0.054-0.146-0.064-0.223c0.042-0.051,0.098-0.086,0.161-0.1v-0.193l-0.161-0.1
	c0.004,0.045-0.007,0.09-0.032,0.129c-0.061-0.031-0.133-0.031-0.193,0c-0.071-0.164-0.125-0.336-0.161-0.512
	c0.086-0.018,0.165-0.063,0.225-0.127c0.026-0.227-0.031-0.453-0.161-0.639c-0.085-0.016-0.171-0.025-0.257-0.031v-0.221
	c0.16-0.063,0.272-0.039,0.29-0.254l-0.064-0.033c-0.083-0.027-0.169-0.049-0.257-0.063l0.032-0.287
	c0.086,0.002,0.172,0.014,0.257,0.031c0.123-0.1,0.164-0.27,0.1-0.414c-0.098,0.025-0.202-0.016-0.257-0.102
	c0.003-0.109,0.096-0.195,0.207-0.193c0.006,0,0.012,0.002,0.019,0.002c0.064-0.004,0.129-0.004,0.193,0
	c0.02-0.051,0.03-0.105,0.032-0.16c-0.018-0.018-0.028-0.039-0.032-0.064c-0.08,0.002-0.158-0.02-0.225-0.063
	c0.02-0.111,0.077-0.213,0.161-0.287c0.061,0.039,0.125,0.072,0.193,0.1c0.151-0.047,0.246-0.195,0.225-0.352
	C6.36,23.215,6.287,23.17,6.243,23.1L6.275,23c0.053-0.051,0.121-0.086,0.193-0.1c0.048,0.055,0.122,0.078,0.193,0.064
	c0.1-0.041,0.085-0.029,0.1-0.16c-0.09-0.018-0.156-0.096-0.161-0.188c0.065-0.041,0.12-0.096,0.161-0.16
	c0.024,0.004,0.047,0.015,0.064,0.032c0.084,0.067,0.184,0.11,0.29,0.128c0.087-0.072,0.145-0.174,0.161-0.287
	c-0.073-0.033-0.114-0.111-0.1-0.19c0.038-0.037,0.091-0.06,0.129-0.101c0.066,0.046,0.145,0.068,0.225,0.064l0.129-0.032
	c0.041-0.171,0.13-0.326,0.257-0.446c-0.035-0.11-0.078-0.217-0.129-0.319H4.634c-0.029,0.021-0.064,0.032-0.1,0.032
	C4.509,20.883,4.424,20.432,4.28,20c-0.137,0.078-0.298,0.102-0.451,0.064H2.51C2.257,20.063,2.191,20,1.963,20
	C0.6,19.982,0.129,20,0.129,18.6v-0.644C0.083,17.941,0.04,17.92,0,17.894c0.112-0.043,0.22-0.096,0.322-0.16
	c0.364-0.136,0.646-0.174,1.03-0.287c0.26-0.104,0.528-0.188,0.8-0.255L2.12,16.745h-0.1v-0.063
	c0.079-0.041,0.022,0.014,0.064-0.064c0.059-0.037-0.045-0.043-0.064-0.1c-0.01-0.106-0.01-0.213,0-0.319
	c1.097-0.167,2.205-0.252,3.315-0.255c0.261-0.112,0.528-0.208,0.8-0.287c0.055,0.047,0.131,0.051,0.193,0.1
	c0.086,0.115,0.184,0.222,0.29,0.319v0.032c0.032,0.032,0.032-0.032,0.032-0.032c0.256-0.299,0.575-0.538,0.933-0.7
	c0.08,0.11,0.116,0.247,0.1,0.383l0.418,0.032c0.064-0.195,0.086-0.402,0.064-0.606H8.3v0.032h0.035
	c-0.027,0.181-0.016,0.366,0.032,0.542c0.216-0.137,0.492-0.137,0.708,0c0.208-0.105,0.445-0.14,0.676-0.1
	c0.129,0.122,0.316,0.161,0.483,0.1c0.163-0.181,0.401-0.275,0.644-0.255c0.039,0.024,0.084,0.035,0.129,0.032V15.34h-0.29v-0.063
	h0.353v0.287c0.136-0.041,0.278-0.052,0.418-0.032c-0.004-0.139,0.007-0.278,0.032-0.415c0.232-0.178,0.509-0.288,0.8-0.319
	l0.1,0.16c0.073-0.024,0.152-0.024,0.225,0c0.025-0.16,0.073-0.164,0.257-0.16c0.251,0.162,0.518,0.083,0.515,0.511
	c0.191,0.037,0.385,0.059,0.579,0.064c0.121-0.12,0.206-0.292,0.322-0.415h1.191c0.14,0.221,0.383,0.354,0.644,0.351
	c0.04,0.113,0.061,0.231,0.064,0.351h0.225v-0.447c0.026-0.016,0.048-0.038,0.064-0.064h0.032v0.032
	c0.076,0.147,0.099,0.316,0.064,0.479h0.772l0.032-0.351c0.115-0.013,0.081,0.015,0.129-0.064c-0.079-0.041-0.022,0.014-0.064-0.063
	c0.231-0.175,0.428-0.391,0.579-0.638h-1.638v-0.128c-0.092,0.042-0.179,0.096-0.257,0.16c-0.181-0.02-0.351-0.098-0.483-0.223
	c-0.09-0.206-0.078-0.442,0.032-0.638c-0.092-0.015-0.071-0.164-0.064-0.351c0.078-0.171,0.121-0.355,0.129-0.543H15.7
	c-0.115,0.041-0.24,0.041-0.354,0c-0.038-0.061-0.132-0.1-0.161-0.159c-0.018-0.154-0.083-0.299-0.185-0.416
	c-0.135-0.089-0.19-0.019-0.193-0.255c0.148-0.09-0.009-0.06,0.064-0.16L15,11.8v-0.225c0.087-0.253,0.064-0.531-0.064-0.766
	c-0.008-0.125,0.027-0.249,0.1-0.351c-0.031-0.2-0.043-0.428-0.064-0.7h0.161c0-1.633,0.032-3.389,0.032-5.074
	C15.1,3.79,15.107,2.892,15.189,2h0.064v7.372C15.325,9.486,15.349,9.624,15.318,9.755z"/>
</svg>
