<?xml version="1.0" encoding="utf-8"?>
<!-- Generator: Adobe Illustrator 16.0.0, SVG Export Plug-In . SVG Version: 6.00 Build 0)  -->
<!DOCTYPE svg PUBLIC "-//W3C//DTD SVG 1.1//EN" "http://www.w3.org/Graphics/SVG/1.1/DTD/svg11.dtd">
<svg version="1.1" id="Layer_1" xmlns="http://www.w3.org/2000/svg" xmlns:xlink="http://www.w3.org/1999/xlink" x="0px" y="0px"
	 width="40px" height="40px" viewBox="0 0 40 40" enable-background="new 0 0 40 40" xml:space="preserve">
<path id="Color_Fill_1" fill="#FFFFFF" d="M18.242,13.11l3.316,0.066v-0.528h0.066v0.066c0.064,0.145,0.086,0.305,0.066,0.462
	c0.849,0,1.541,0.3,2.388,0.33c1.835,0.07,4.229-0.167,5.97,0.066l2.389-0.066h4.244c0.373,0,0.601,0.163,0.862,0.132
	c0.811-0.144,1.636-0.188,2.456-0.133v0.989c-2.262-0.009-4.686,0-7.363,0h-1.725v-0.131h-0.995c-0.737,0.401-2.438,0.2-3.517,0.2
	c-2.086,0-3.617,0.262-5.836,0.265v0.065c0.098,0.088,0.168,0.203,0.199,0.33c-0.16,0.003-0.289,0.135-0.286,0.296
	c0,0.036,0.007,0.071,0.021,0.104c0.59,1.188,1.271,1.156,3.051,1.121c0.601,0.191,1.228,0.281,1.857,0.264
	c0.043-0.013-0.046-0.1,0.065-0.132c1.023,0.444,2.136,0.647,3.25,0.595v0.264l1,0.199c0.014-0.186,0.111-0.355,0.266-0.461
	c0.4,0.256,0.722-0.074,1.061,0.399c0.025,0.077,0.07,0.147,0.133,0.2v-0.081l-0.065-0.066h0.133v0.066h0.062
	c-0.021,0.093,0.002,0.191,0.065,0.264h-0.132c-0.125-0.116-0.053-0.122-0.2-0.065c-0.054,0.082-0.099,0.171-0.133,0.264
	l0.663,0.132V18.52h0.066c-0.005-0.072-0.027-0.141-0.066-0.201v-0.063h-0.065v0.065h0.066c0.127,0.052-0.134,0.066-0.134,0.066
	V18.32c-0.049-0.064-0.053-0.121-0.133-0.264h0.133c0.354,0.277,0.73,0.52,1.129,0.727l0.066-0.4h0.331l0.066,0.33h0.332
	c0.159-0.254,0.282-0.039,0.464,0.066c0.248-0.402,0.562-0.759,0.929-1.055c0.589,0,0.474,0.127,1.062,0.131
	c0.131,0.523,0.107,1.073-0.066,1.584c-0.115-0.25-0.038-0.144-0.332-0.133c-0.001,0.072,0.021,0.143,0.066,0.2
	c0.186,0.158,0.228,0.056,0.265,0.4c-0.095,0.159-0.141,0.343-0.133,0.528c0.396,0.252,0.562,0.746,0.399,1.187h0.133
	c0.061-0.054,0.127-0.099,0.201-0.132v0.132h-0.068c-0.125,0.06-0.264,0.083-0.4,0.065c-0.076-0.082-0.142-0.215-0.199-0.131
	c-0.412,0.142-0.665,0.557-0.601,0.988c-0.127,0.173-0.14,0.421-0.265,0.594c-0.544,0.537-1.172,0.982-1.857,1.319
	c0-0.192,0.064-0.092,0-0.2c-0.142,0.227-0.321,0.428-0.531,0.594c-0.058-0.049-0.074-0.082-0.133-0.131
	c-0.092,0.223-0.254,0.408-0.464,0.527c-0.158-0.094-0.039-0.112-0.2-0.066h-0.059v0.066h0.066v-0.066
	c0.051-0.127,0.065,0.131,0.065,0.131h-0.065c-0.393,0.357-0.841,0.647-1.328,0.858v-0.133c0.051-0.007,0.098-0.03,0.134-0.065
	c-0.224,0.094-0.244,0.316-0.464,0.399c-0.701,0.122-1.416,0.145-2.123,0.065H13.2c-1.882,0.113-3.77,0.047-5.639-0.199
	c-0.005-0.092-0.026-0.182-0.061-0.266c-0.238,0.107-0.515,0.082-0.73-0.066c0-0.209,0.112-0.09-0.066-0.2
	c-0.275,0.093-0.578-0.017-0.73-0.265l0.2,0.066c-0.258-0.098-0.526-0.165-0.8-0.199c-0.013-0.238,0.1-0.138-0.133-0.201
	c-0.255,0.062-0.521-0.044-0.663-0.264l0.132,0.073c-0.247-0.205-0.121,0.06-0.464-0.065c-0.372-0.137-0.819-0.471-1.194-0.595
	c-0.7-0.231-1.386,0.056-1.459-0.792c0.12-0.08,0.212-0.195,0.265-0.33c-0.354-0.187-0.449-0.754-0.8-0.988v0.527
	c0.071,0.189,0.094,0.394,0.066,0.594c-0.114,0.002-0.226,0.025-0.332,0.066v-1.318H0.133c0.184-0.344,0.231-0.744,0.133-1.121
	c0.189,0.021,0.137,0.069,0.265,0c0.031-0.153,0.054-0.309,0.069-0.463c0.133-0.136,0.245-0.291,0.329-0.461
	c-0.498-0.797-0.793-1.703-0.862-2.64l0.2-0.065C0.288,17.104,0.333,16.947,0.4,16.8H0v-0.788c1.8-0.008,3.967-0.063,6.036-0.066
	c0.056,0.13,0.101,0.264,0.133,0.4c0.406,0.134,0.804,0.288,1.194,0.463c0.311,0.037,0.626,0.014,0.929-0.066
	c0.992-0.105,1.993-0.105,2.985,0v-0.268c-0.172-0.289-0.466-0.484-0.8-0.529V15.88c0.123-0.112,0.174-0.389,0.332-0.594
	c-0.95,0.034-1.897-0.124-2.786-0.462v-0.2h-0.2c-0.123-0.314-0.168-0.653-0.133-0.989h0.071c-0.065,0.293-0.018,0.6,0.133,0.858
	v0.065H7.96v-0.063c0.053-0.283,0.075-0.57,0.066-0.858c-0.051-0.045-0.148-0.087-0.2-0.132c0.215-0.055,0.1,0.032,0.2-0.132h-0.2
	c-0.058-0.043-0.128-0.066-0.2-0.066v-0.461c0.274-0.023,0.532-0.14,0.73-0.33c0.596,0.146,1.223,0.1,1.791-0.132
	c-0.578-0.068-1.164-0.023-1.725,0.132v-0.132c1.476-0.168,2.964-0.19,4.444-0.066c0.053,0.094,0.158,0.146,0.265,0.132v-0.066
	c-0.157-0.236-0.248-0.509-0.265-0.792h0.066v-0.066l0.332,0.2v-0.134c0.049-0.079,0.072-0.171,0.066-0.264h0.27
	c-0.001,0.072,0.022,0.143,0.066,0.2c0.316-0.117,0.626-0.251,0.929-0.4c-0.051-0.006-0.098-0.03-0.133-0.066
	c0.108-0.019,0.215,0.035,0.265,0.132c0.133,0.046,0.221,0,0.2-0.132c0,0,0.808,0.234,0.862,0.264c0.153,0.179,0.367,0.296,0.6,0.33
	v0.264h0.261v0.4c0.288,0.213,0.599,0.39,0.929,0.528c-0.025-0.179-0.002-0.361,0.066-0.528c-0.014,0.222,0.008,0.445,0.066,0.66
	l0.2,0.066V1.5h0.066v7.784c-0.126,1.275-0.081,2.562,0.133,3.826h0.066c-0.007-0.093,0.016-0.186,0.066-0.264V13.11z
	 M11.542,12.516c0.238-0.027,0.167,0.031,0.265-0.132h-0.862v0.066c0.237-0.056,0.481,0.052,0.6,0.264v-0.2L11.542,12.516z
	 M11.942,12.384c-0.007,0.093,0.016,0.186,0.066,0.264c0.007-0.093-0.017-0.186-0.068-0.264H11.942z M12.142,12.384v0.33h0.133
	c0.181-0.113,0.387-0.182,0.6-0.2V12.45c-0.241-0.059-0.489-0.082-0.736-0.066H12.142z M38.607,14.3h0.332v-0.66l-0.332,0.066V14.3z
	 M39.27,14.3h0.33v-0.66l-0.33,0.06V14.3L39.27,14.3z M7.894,13.7c0.104,0.253,0.104,0.538,0,0.792V13.7z M34.163,18.779h0.265
	c0.04-0.37,0.168-0.324,0.2-0.727c0.2-0.013,0.454,0.012,0.464,0c0.043-0.058,0.066-0.128,0.066-0.199
	c-0.085-0.035-0.174-0.058-0.266-0.066c-0.381,0.205-0.648,0.57-0.729,0.995V18.779z M28.855,17.922
	c0.037,0.035,0.084,0.059,0.133,0.066c-0.036-0.035-0.082-0.057-0.133-0.063V17.922z M35.291,18.186h0.332
	c-0.031,0.086-0.031,0.18,0,0.265v0.065h0.066v-0.591l-0.4,0.066v0.2L35.291,18.186z M29.719,18.12c0.114,0.058,0.086,0.06,0.2,0
	H29.719z M29.984,18.186c0.035,0.036,0.082,0.059,0.133,0.066c-0.037-0.035-0.084-0.057-0.135-0.063L29.984,18.186z M35.092,18.186
	c-0.038,0.114-0.014,0.24,0.066,0.33c0.012-0.113-0.012-0.227-0.067-0.326L35.092,18.186z M33.036,18.846
	c0.075,0.067,0.189,0.067,0.265,0H33.036L33.036,18.846z M34.164,18.846c0.076,0.067,0.189,0.067,0.266,0H34.164L34.164,18.846z
	 M33.832,19.046v0.132h0.2v-0.066L33.832,19.046z M34.098,19.046c0.113,0.058,0.084,0.06,0.199,0H34.1H34.098z M34.43,19.046
	c-0.082,0.075-0.172,0.142-0.266,0.2l0.4,0.066c-0.023-0.087-0.023-0.178,0-0.265h-0.137L34.43,19.046z M34.96,19.111
	c-0.059,0.057-0.104,0.125-0.133,0.201h0.265l0.066-0.133h-0.067C35.055,19.145,35.01,19.12,34.96,19.111L34.96,19.111z
	 M34.96,19.376c0.036,0.036,0.083,0.059,0.133,0.065C35.057,19.406,35.01,19.383,34.96,19.376L34.96,19.376z M0.133,22.344
	c0.131,0.43,0.131,0.889,0,1.319V22.344z M32.7,23.861c-0.058,0.082-0.103,0.17-0.134,0.265h0.066
	c0.088-0.099,0.204-0.168,0.332-0.2v-0.064H32.7z M33.563,23.861l-0.066,0.133c0.119-0.094,0.07-0.133,0.07-0.133H33.563z
	 M6.762,23.994H5.837c0.06,0.135,0.034,0.291-0.066,0.4l0.4,0.131c0.046-0.241,0-0.18,0.2-0.264v-0.07
	c0.067-0.065,0.066,0.064,0.066,0.065c0.109,0.071,0.162,0.203,0.133,0.33c-0.054,0.032-0.1,0.078-0.133,0.132l0.4,0.133
	L6.762,23.994z M32.301,23.994c0.055,0.214-0.033,0.1,0.133,0.199v-0.135L32.301,23.994z M5.634,24.061
	C5.633,24.133,5.656,24.203,5.7,24.26v-0.068c0.035-0.036,0.059-0.082,0.066-0.133H5.638L5.634,24.061z M5.434,24.126v0.132h0.072
	c-0.006-0.051-0.03-0.098-0.067-0.133L5.434,24.126z M32.034,24.126c-0.063,0.071-0.13,0.138-0.2,0.2
	c0.043,0.057,0.089,0.207,0.133,0.264c0.188-0.225,0.377-0.236,0.073-0.465L32.034,24.126z M4.505,24.391
	c0.139,0.098,0.297,0.166,0.464,0.199v-0.135H4.842c-0.101-0.055-0.216-0.078-0.331-0.066L4.505,24.391z M6.296,24.391v0.131h0.138
	v-0.133H6.3L6.296,24.391z M31.637,24.391c0.055,0.213-0.033,0.1,0.133,0.199c-0.006-0.084-0.055-0.159-0.127-0.201L31.637,24.391z
	 M3.775,24.456c0.041,0.074,0.116,0.124,0.2,0.132c-0.058-0.054-0.123-0.099-0.194-0.133L3.775,24.456z M10.342,24.456
	c-0.054,0.366-0.167,0.723-0.332,1.055h0.464c-0.056-0.128-0.056-0.272,0-0.399l0.2-0.066v0.066
	c0.094,0.053,0.147,0.156,0.133,0.264c-0.036,0.036-0.059,0.082-0.066,0.132h0.464v-0.062c-0.286-0.496-0.026-0.998-0.857-0.99
	L10.342,24.456z M14.521,25.511h0.4c0.003-0.184,0.048-0.364,0.133-0.528c-0.017-0.285-0.246-0.512-0.531-0.527v0.066h-0.062
	c-0.031,0.496,0.073,0.593,0.066,0.989H14.521z M18.634,24.456c-0.057,0.376-0.193,0.735-0.4,1.055h0.464
	c-0.085-0.284-0.079-0.405,0.265-0.462l0.066,0.2c0.005,0.093-0.018,0.185-0.066,0.265h0.464v-0.135
	c-0.203-0.354-0.47-0.667-0.787-0.924L18.634,24.456z M31.503,24.456c-0.163-0.028-0.325,0.054-0.399,0.2h-0.059v0.066
	c0.131,0.03,0.233,0.133,0.266,0.264c0.346-0.199,0.262-0.151,0.198-0.531L31.503,24.456z M5.303,24.656v0.132l0.4,0.132v-0.135
	c-0.14-0.016-0.275-0.061-0.396-0.133L5.303,24.656z M22.749,24.656c-0.06,0.124-0.082,0.263-0.065,0.4
	c0.102,0.131,0.126,0.307,0.065,0.461h0.464v-0.072c-0.037-0.107-0.059-0.218-0.066-0.33c-0.078-0.192-0.217-0.354-0.394-0.463
	L22.749,24.656z M26.928,25.514c-0.056-0.187-0.004-0.389,0.133-0.527c-0.074-0.041-0.125-0.115-0.133-0.2h-0.062
	c-0.085,0.253-0.196,0.496-0.332,0.726h0.399L26.928,25.514z M30.975,24.854l0.065,0.201h0.065v-0.201h-0.127H30.975z M5.97,24.982
	c0.111,0.104,0.25,0.174,0.4,0.201C6.259,25.08,6.12,25.01,5.97,24.982z M30.846,25.115c-0.029,0.095-0.074,0.184-0.133,0.264h0.066
	c0.078-0.078,0.146-0.167,0.199-0.264H30.846L30.846,25.115z M10.546,25.182c0.055,0.213-0.033,0.1,0.133,0.199
	C10.672,25.297,10.622,25.221,10.546,25.182L10.546,25.182z M14.327,25.182l-0.066,0.131h0.066
	c-0.014,0.092,0.066,0.066,0.066,0.066C14.476,25.3,14.328,25.182,14.327,25.182L14.327,25.182z M15.057,25.182
	c0.055,0.213-0.033,0.1,0.133,0.199v-0.134L15.057,25.182z M18.838,25.182l-0.066,0.199h0.133
	C18.906,25.309,18.883,25.238,18.838,25.182L18.838,25.182z M22.553,25.182c0.055,0.213-0.031,0.1,0.133,0.199
	c-0.007-0.084-0.057-0.16-0.131-0.199H22.553z M27.064,25.182c-0.002,0.072,0.021,0.143,0.065,0.199v-0.199H27.064L27.064,25.182z
	 M27.264,25.182c0.082,0.285-0.043,0.344,0.465,0.329v-0.065C27.561,25.381,27.404,25.291,27.264,25.182z M15.324,25.247
	l-0.066,0.264h0.265v-0.065C15.46,25.375,15.394,25.309,15.324,25.247L15.324,25.247z M23.284,25.247v0.132h0.133v-0.132H23.284z
	 M14.13,25.379v0.066h-0.067C13.935,25.5,14.2,25.511,14.2,25.511C14.192,25.46,14.167,25.414,14.13,25.379L14.13,25.379z
	 M23.55,25.379c0.019,0.171-0.03,0.117,0.265,0.132v-0.065L23.55,25.379z M22.355,25.445c0.037,0.035,0.084,0.059,0.133,0.065
	C22.453,25.475,22.406,25.452,22.355,25.445L22.355,25.445z M30.98,25.577l-0.066,0.132c0.113-0.093,0.064-0.132,0.064-0.132H30.98z
	 M10.217,25.777v0.132h0.066v-0.136h-0.067L10.217,25.777z M11.017,25.777v0.132h0.066v-0.136h-0.071L11.017,25.777z M14,25.973
	c-0.055-0.215,0.032-0.101-0.133-0.201c-0.067,0.092-0.159,0.161-0.265,0.201H14z M14.6,25.771c-0.046,0.085-0.116,0.154-0.2,0.201
	h0.4V25.84h-0.074c-0.036-0.035-0.082-0.059-0.132-0.066L14.6,25.771z M15.4,25.771c-0.046,0.085-0.116,0.154-0.2,0.201h0.4V25.84
	h-0.078c-0.036-0.035-0.082-0.059-0.132-0.066L15.4,25.771z M17.788,25.771c-0.06,0.055-0.127,0.1-0.2,0.133v0.066h0.322v-0.064
	c-0.057-0.049-0.074-0.083-0.132-0.133L17.788,25.771z M18.388,25.771l-0.066,0.201h0.4v-0.066c-0.109-0.06-0.226-0.104-0.347-0.133
	L18.388,25.771z M19.118,25.771v0.201c0.137,0.018,0.276-0.006,0.4-0.066c-0.135-0.057-0.275-0.102-0.418-0.133L19.118,25.771z
	 M19.918,25.771l-0.066,0.201H20.3v-0.066c-0.138-0.028-0.272-0.072-0.4-0.133L19.918,25.771z M22.307,25.771l-0.066,0.201h0.4
	v-0.066c-0.132,0.014-0.262-0.035-0.352-0.133L22.307,25.771z M23.633,25.771v0.133h0.066c-0.012-0.053-0.042-0.098-0.084-0.131
	L23.633,25.771z M26.684,25.771v0.133H26.8v-0.131h-0.133L26.684,25.771z M27.484,25.771v0.133H27.6v-0.131h-0.137L27.484,25.771z
	 M28.284,25.771v0.133h0.065v-0.131h-0.091L28.284,25.771z M11.634,25.838c-0.067,0.046-0.265,0.085-0.332,0.133h0.4
	c-0.014-0.054-0.047-0.1-0.093-0.131L11.634,25.838z M23.044,25.838v0.133c0.138,0.018,0.276-0.006,0.399-0.066
	c-0.145,0.006-0.289-0.016-0.426-0.064L23.044,25.838z M9.244,25.904c0.036,0.035,0.083,0.059,0.133,0.066
	c-0.042-0.04-0.098-0.063-0.156-0.064L9.244,25.904z M9.708,25.904c0.12,0.083,0.28,0.083,0.4,0H9.708z M10.508,25.904
	c0.121,0.083,0.28,0.083,0.4,0H10.508z M15.948,25.904c0.075,0.066,0.189,0.066,0.265,0H15.92H15.948z M21.719,25.904
	c0.114,0.058,0.086,0.059,0.2,0H21.719z M23.842,25.904c0.121,0.083,0.279,0.083,0.4,0H23.842z M26.164,25.904
	c0.12,0.083,0.279,0.083,0.4,0H26.164z M26.964,25.904c0.12,0.083,0.28,0.083,0.399,0H26.964z M27.764,25.904
	c0.121,0.083,0.279,0.083,0.4,0H27.764z M28.494,25.904c0.036,0.035,0.082,0.059,0.133,0.066c-0.046-0.043-0.106-0.066-0.169-0.064
	L28.494,25.904z M8.262,26.305c0.036,0.035,0.083,0.059,0.133,0.065C8.35,26.325,8.29,26.301,8.226,26.3L8.262,26.305z
	 M9.062,26.305c0.114,0.057,0.085,0.059,0.2,0H9.062z M9.862,26.305c0.114,0.057,0.085,0.059,0.2,0H9.862z M10.592,26.305
	c0.114,0.057,0.085,0.059,0.2,0H10.592z M11.392,26.305c0.114,0.057,0.085,0.059,0.2,0H11.392z M12.192,26.305
	c0.114,0.057,0.085,0.059,0.2,0H12.192z M12.992,26.305c0.114,0.057,0.085,0.059,0.2,0H12.992z M13.792,26.305
	c0.114,0.057,0.085,0.059,0.2,0H13.792z M14.522,26.305c0.076,0.066,0.189,0.066,0.265,0h-0.326H14.522z M15.322,26.305
	c0.076,0.066,0.189,0.066,0.265,0h-0.33H15.322z M16.122,26.305c0.114,0.057,0.085,0.059,0.2,0H16.122z M16.922,26.305
	c0.114,0.057,0.085,0.059,0.2,0H16.922z M17.722,26.305c0.114,0.057,0.085,0.059,0.2,0H17.722z M18.452,26.305
	c0.076,0.066,0.189,0.066,0.265,0h-0.342H18.452z M19.252,26.305c0.076,0.066,0.189,0.066,0.265,0h-0.346H19.252z M20.052,26.305
	c0.114,0.057,0.085,0.059,0.2,0H20.052z M20.852,26.305c0.114,0.057,0.086,0.059,0.2,0H20.852z M21.652,26.305
	c0.113,0.057,0.084,0.059,0.199,0H21.652z M22.452,26.305c0.114,0.057,0.085,0.059,0.2,0H22.452z M23.182,26.305
	c0.114,0.057,0.086,0.059,0.2,0H23.182z M23.982,26.305c0.113,0.057,0.084,0.059,0.199,0H23.982z M24.782,26.305
	c0.114,0.057,0.085,0.059,0.2,0H24.782z M25.582,26.305c0.113,0.057,0.085,0.059,0.2,0H25.582z M26.382,26.305
	c0.114,0.057,0.085,0.059,0.2,0H26.382z M27.182,26.305c0.114,0.057,0.086,0.059,0.2,0H27.182z M27.982,26.305
	c0.035,0.035,0.082,0.059,0.133,0.065c-0.063-0.071-0.163-0.1-0.254-0.07L27.982,26.305z M28.782,26.305
	c0.036,0.035,0.083,0.059,0.133,0.065c-0.063-0.073-0.166-0.101-0.258-0.07L28.782,26.305z"/>
</svg>
