<?xml version="1.0" encoding="utf-8"?>
<!-- Generator: Adobe Illustrator 16.0.0, SVG Export Plug-In . SVG Version: 6.00 Build 0)  -->
<!DOCTYPE svg PUBLIC "-//W3C//DTD SVG 1.1//EN" "http://www.w3.org/Graphics/SVG/1.1/DTD/svg11.dtd">
<svg version="1.1" id="Layer_1" xmlns="http://www.w3.org/2000/svg" xmlns:xlink="http://www.w3.org/1999/xlink" x="0px" y="0px"
	 width="40px" height="40px" viewBox="0 0 40 40" enable-background="new 0 0 40 40" xml:space="preserve">
<path id="fr_m4a3_105_sherman_ico" fill="#FFFFFF" d="M14.206,6.454h0.966c-0.018-0.051-0.018-0.105,0-0.156
	c0.131,0.038,0.27,0.038,0.4,0c0,0.183-0.031,0.161,0.187,0.156c0.016-0.025,0.037-0.046,0.062-0.062V6.204h0.129l0.031,0.344
	c0.141,0.045,0.288,0.066,0.436,0.063c0.248,0.172,0.906-0.105,1.215,0.031c0.392,0.058,0.788,0.089,1.184,0.094
	c0.403,0.047,0.81,0.058,1.215,0.031h2.305v0.249c-1.232,0-2.591,0.03-3.863,0.031v0.094h-0.124
	c0.003,0.044-0.007,0.088-0.031,0.125V7.141h-0.343c0.006,0.054-0.005,0.108-0.031,0.156c0-0.166,0-0.175-0.156-0.187
	c-0.167-0.005-0.335,0.005-0.5,0.031c-0.326-0.04-0.709,0.03-1.215,0.031c-0.067,0.223-0.088,0.457-0.063,0.688
	c-0.155,0.02-0.311,0.03-0.467,0.031v0.031l0.093,0.063v0.438c0,0.367,0.053,0.718,0.062,1c0.201-0.006,0.402,0.025,0.592,0.094
	c0.085-0.059,0.16-0.133,0.218-0.219c0.016-0.042,0.041-0.248,0.062-0.344h0.311c0.056-0.149,0.119-0.295,0.19-0.438
	C17.021,8.481,16.997,8.42,17.01,8.36c0.046-0.079,0.014-0.048,0.125-0.062v0.031h0.031l0.031,0.25h0.125
	c0.009,0.118-0.012,0.236-0.063,0.344h0.125c0.337-0.167,0.72-0.222,1.09-0.156V8.485h0.062v0.313l0.249,0.031l0.031-0.125
	l0.156,0.031c0.089-0.118,0.193-0.223,0.311-0.312c0.046,0.033,0.1,0.055,0.156,0.063v0.469c0.376,0.012,0.677,0.169,1.059,0.188
	c0.002,0.074,0.013,0.147,0.031,0.219c0.06,0.037,0.122,0.068,0.187,0.094c-0.024-0.159-0.003-0.322,0.063-0.469
	c0.037-0.023,0.081-0.034,0.125-0.031c0.006-0.154,0.048-0.306,0.123-0.44c0.024,0.021,0.07,0.041,0.095,0.063
	C21.053,8.715,21.012,8.864,21,9.016c-0.05-0.021-0.105-0.021-0.156,0c-0.07,0.157-0.092,0.331-0.062,0.5
	c0.124,0.075,0.262,0.128,0.405,0.156c0.057-0.164,0.25-0.137,0.467-0.125c0.281,0.089,0.58,0.111,0.871,0.063V9.516
	c-0.1-0.138-0.228-0.255-0.373-0.344c-0.034,0.052-0.096,0.077-0.156,0.063c-0.02-0.05-0.029-0.103-0.031-0.156
	c-0.016-0.041-0.016-0.085,0-0.125c0.046-0.034,0.1-0.055,0.156-0.062c0.033,0.051,0.096,0.077,0.156,0.063
	c0.031-0.154,0.135-0.283,0.279-0.344c0.287-0.107,0.598-0.14,0.9-0.094c0.059,0.362,0.068,0.729,0.031,1.094H23.3L23.27,9.83h0.217
	V9.766c0.068-0.025,0.248,0.06,0.406,0.031V9.266h0.092c0.021,0.219,0.01,0.44-0.03,0.656h0.062
	c0.125-0.064,0.271-0.076,0.405-0.031c0.075,0.1,0.159,0.194,0.249,0.281c-0.049,0.226-0.06,0.458-0.031,0.688
	c0.059-0.033,0.129-0.033,0.188,0c-0.035,0.02-0.059,0.054-0.063,0.094h0.096l-0.03,0.094c0.036,0.054,0.237,0.313,0.249,0.344
	c-0.143,0.264,0.954,0.4,1.09,0.156c-0.031-0.059-0.031-0.128,0-0.187h0.094v-0.157h0.031c0.014,0.036,0.036,0.147,0.063,0.063
	c0.07-0.184,0.189-0.345,0.343-0.469c0.104-0.059,0.225-0.081,0.343-0.062c0.1,0.1,0.211,0.187,0.311,0.281
	c0.008,0.177-0.003,0.355-0.031,0.531c0.242,0.192,0.535,0.312,0.842,0.344v0.094h0.623v0.03h0.031
	c-0.033,0.088-0.009,0.188,0.062,0.25c0.247,0.045,0.499,0.056,0.748,0.031c0.528,0.046,1.06,0.056,1.589,0.031l5.545,0.094v0.906
	c-2.633-0.007-5.34,0.109-7.943,0.156v0.25c-0.236,0.042-0.478,0.053-0.717,0.031c-0.138,0.028-0.254,0.121-0.311,0.25
	c0.02,0.027,0.031,0.06,0.031,0.094c-0.301-0.011-0.355,0.122-0.779,0.125c-0.027-0.072-0.084-0.129-0.156-0.156
	c-0.08,0.053-0.154,0.116-0.218,0.188c0.04,0.1,0.093,0.194,0.156,0.281c0.446,0.125,0.919,0.136,1.37,0.031
	c0.105-0.072,0.19-0.169,0.25-0.281c0.119,0.049,0.225,0.124,0.312,0.219c0.145-0.135,0.333-0.213,0.53-0.219
	c0.047,0.026,0.102,0.037,0.156,0.031c0.038,0.055,0.059,0.121,0.059,0.188c0.071,0.026,0.136,0.069,0.188,0.125l0.529,0.031v0.156
	h0.063c0.145-0.019,0.29-0.029,0.436-0.031c0.101-0.035,0.134-0.145,0.249-0.187v0.063c-0.023,0.038-0.033,0.081-0.031,0.125
	l0.375,0.031c0.023-0.082,0.037-0.075,0.062-0.156c-0.12,0.016-0.23-0.067-0.249-0.187c0.056-0.041-0.014-0.051,0.125-0.062
	c0.017,0.017,0.039,0.027,0.063,0.031c0.044,0.066,0.076,0.141,0.094,0.219h0.062l0.031-0.094c0.091,0.075,0.175,0.158,0.249,0.25
	l0.094-0.031c0.131,0.092,0.229,0.224,0.28,0.375c0.14-0.049,0.245-0.167,0.28-0.312c-0.123-0.256-0.059-0.563,0.156-0.75
	c0.016,0.017,0.038,0.028,0.062,0.031c0.065,0.371,0.087,0.749,0.062,1.125H32.8v0.063h-0.09v0.375
	c0.075,0.048,0.14,0.112,0.187,0.188c0.192-0.059,0.396-0.068,0.593-0.031c0.202,0.219,0.294,0.518,0.249,0.813
	c0.089,0.055,0.172,0.117,0.248,0.188h0.063c0.095-0.201,0.311-0.315,0.53-0.281v0.156h0.093v0.155h-0.094v0.156H34.8v0.313h0.53
	c0.025-0.046,0.057-0.088,0.093-0.125c-0.032-0.28-0.104-0.555-0.218-0.813l0.188-0.031c0.224,0.258,0.295,0.615,0.187,0.938
	c-0.063,0.2-0.243,0.25-0.312,0.438h0.715v-0.067c0.045-0.111,0.076-0.227,0.095-0.345l0.187,0.031
	c0.02,0.051,0.029,0.104,0.031,0.156c-0.031,0.08-0.042,0.166-0.031,0.25h0.28v0.281h-0.438c-0.138,0.243-0.262,0.493-0.373,0.75
	c0.148,0.143,0.282,0.299,0.399,0.469c0.293,0.082,0.599,0.103,0.9,0.063c0.239,0.146,0.688,0.101,0.935,0.25
	c0.027,0.039,0.049,0.081,0.063,0.125c0.115,0.112,0.253,0.197,0.404,0.25c0.018-0.041,0-0.022,0.031-0.03
	c0.034,0.016,0.066,0.037,0.094,0.063c-0.025,0.016-0.047,0.037-0.063,0.063c0.039,0.004,0.074,0.027,0.093,0.063
	c0.054-0.024,0.058-0.082,0.093-0.031l0.063,0.031c-0.025,0.055-0.082,0.059-0.031,0.094c0.227,0.234,0.436,0.484,0.623,0.75
	c0.225,0,0.417,1.148,0.654,1.22v0.125h-0.083v0.125l-0.748-0.125c-0.017,0.101-0.085,0.119-0.095,0.188
	c0.064,0.169,0.086,0.352,0.063,0.53c-0.077,0.157-0.2,0.356-0.279,0.531c-0.063,0-0.01-0.032-0.063,0
	c-0.027,0.022-0.035,0.039-0.063,0.063c0.037,0.056,0.059,0.12,0.063,0.188c0.071,0.018,0.145,0.027,0.218,0.031
	c0.042-0.06,0.118-0.084,0.187-0.063c0.078,0.04,0.021-0.014,0.063,0.063c0.008,0.029,0.025,0.012,0,0.031
	c-0.035,0.09-0.005,0.058-0.093,0.094c-0.192,0.082-0.41,0.07-0.593-0.031c-0.143,0.234-0.362,0.412-0.623,0.5
	c0,0.091,0.031,0.043,0,0.094c-0.19,0.196-0.398,0.374-0.623,0.531c-0.033-0.031-0.08-0.043-0.125-0.031
	c-0.051,0.033-0.041,0.176-0.092,0.219c-0.101,0.084-0.451,0.4-0.53,0.438c-0.044,0.003-0.088-0.009-0.125-0.031
	c-0.035,0.044-0.046,0.103-0.031,0.156c-0.126,0.104-0.26,0.198-0.399,0.281c-0.088,0.064-0.158,0.188-0.25,0.25
	c-0.051-0.015-0.104-0.015-0.156,0c-0.086,0.213-0.254,0.382-0.467,0.469c-0.289,0.294-0.656,0.5-1.059,0.594
	c-0.084-0.013-0.168-0.034-0.249-0.062v0.094H32.96c-0.026-0.011-0.019-0.1-0.125-0.063c-0.017,0.006,0.01,0.056-0.125,0.063
	c-0.155,0.009-0.872-0.062-0.872-0.062v0.063c-0.323,0.014-0.646-0.007-0.966-0.063v0.063c-0.335,0.013-0.67-0.008-1-0.062v0.063
	c-0.281,0.049-0.57,0.027-0.841-0.063c-0.097,0.004-0.191,0.025-0.28,0.063h-0.714v-0.073h-0.124v0.063
	c-0.281,0.048-0.569,0.026-0.841-0.062c0,0-0.492,0.063-0.623,0.063s-0.452-0.08-0.5-0.063c-0.182,0.055-0.372,0.076-0.561,0.063
	c-0.131,0-0.367-0.076-0.4-0.062v0.063h-0.877c-0.032-0.014,0.012-0.08-0.092-0.063h-0.031v0.063
	c-0.281,0.048-0.57,0.026-0.842-0.062c-0.114-0.039-0.108,0.05-0.187,0.063c-0.335,0.052-0.772-0.066-0.935,0
	c-0.324,0.015-0.647-0.006-0.967-0.063v0.063c-0.291,0.05-0.59,0.028-0.872-0.062c-0.319,0.055-0.643,0.076-0.966,0.063
	c-0.036-0.014,0.026-0.063-0.062-0.063c-0.088,0-0.026,0.049-0.062,0.063c-0.334,0.013-0.67-0.008-1-0.062v0.063
	c-0.324,0.015-0.647-0.006-0.966-0.063v0.063c-0.291,0.05-0.59,0.028-0.872-0.062c-0.096,0.002-0.191,0.023-0.28,0.063
	c-0.23,0.018-0.461-0.004-0.685-0.063c-0.087,0-0.173,0.021-0.249,0.063c-0.16,0.009-0.872-0.062-0.872-0.062
	c-0.271,0.09-0.56,0.111-0.841,0.063v-0.076c-0.097,0.004-0.191,0.024-0.28,0.063h-0.716c-0.036-0.015,0.026-0.062-0.062-0.062
	s-0.027,0.047-0.062,0.063c-0.323,0.014-0.647-0.007-0.966-0.063v0.063c-0.281,0.05-0.57,0.028-0.841-0.062
	c-0.052-0.029-0.117-0.012-0.146,0.039c-0.004,0.008-0.007,0.016-0.01,0.023l-0.935-0.031v-0.097H9.159
	c-0.016,0.032,0.031,0.073-0.031,0.063c-0.291-0.112-0.572-0.248-0.841-0.406l0.031-0.094c-0.092-0.019-0.186-0.029-0.28-0.031
	c-0.182-0.085-0.358-0.179-0.53-0.281c-0.037-0.056-0.078-0.108-0.125-0.156c-0.262-0.071-0.513-0.176-0.748-0.313
	c-0.092-0.073,0.051-0.075-0.062-0.125c-0.052-0.009-0.104-0.009-0.156,0c-0.276-0.105-0.522-0.277-0.717-0.5
	c-0.077,0.02-0.057,0.072-0.093,0.029c-0.305-0.082-0.578-0.256-0.779-0.5c-0.074,0.045-0.018,0.053-0.093,0.031
	c-0.228-0.082-0.447-0.187-0.654-0.313l-0.062-0.155l-0.125,0.03c-0.222-0.135-0.421-0.304-0.592-0.5
	c-0.057-0.1,0.03-0.135-0.031-0.219c-0.043-0.059-0.171-0.062-0.218-0.125c-0.237-0.407-0.356-0.873-0.343-1.344
	c-0.075-0.048-0.139-0.111-0.187-0.188c-0.309,0.047-0.623,0.058-0.935,0.031c-0.49,0.13-0.993,0.203-1.5,0.219
	C0.05,22.479,0.018,22.456,0,22.422c0.081-0.143,0.124-0.305,0.125-0.469c0.024-0.071,0.087-0.024,0.093-0.031
	c0.169-0.34,0.367-0.663,0.592-0.968c-0.052-0.093-0.032,0-0.031-0.125c0.25-0.229,0.451-0.506,0.592-0.813L1.34,19.891
	c0.039-0.019,0.082-0.029,0.125-0.031c0.097-0.111,0.142-0.259,0.125-0.405h0.53c0.016-0.119,0.044-0.131,0.062-0.25
	c-0.098-0.055-0.183-0.13-0.249-0.22c0.032-0.046,0.054-0.1,0.062-0.155c0.102-0.026,0.207-0.037,0.312-0.031
	c0.017,0.017,0.039,0.027,0.062,0.031c0.064-0.138,0.106-0.286,0.125-0.437c-0.054-0.041-0.05-0.055-0.093-0.031
	c-0.02,0.027-0.031,0.06-0.031,0.094c-0.196-0.051-0.403-0.04-0.592,0.031c-0.017,0.028-0.028,0.061-0.031,0.094
	c-0.069,0.031-0.143,0.053-0.218,0.063c-0.376-0.148-0.74-0.326-1.09-0.531c-0.023-0.026-0.037-0.061-0.039-0.096
	c-0.08-0.01-0.156-0.042-0.218-0.094c0.051-0.039,0.062-0.112,0.023-0.164c-0.006-0.008-0.014-0.016-0.023-0.023l0.093-0.03
	c0.025-0.038-0.015-0.025-0.026-0.032c-0.021-0.083-0.064-0.158-0.125-0.219h0.094c0.048,0.021,0,0,0.093,0
	c-0.03,0.048-0.03,0.108,0,0.156c0.192,0.123,0.449,0.066,0.572-0.126c0.006-0.01,0.012-0.02,0.017-0.029
	c-0.195-0.443-0.135-0.958,0.156-1.345c0.494-0.6,1.494,0,1.713,0.531c0.089-0.072,0.2-0.116,0.315-0.125v-0.094H3.24
	c0-0.084-0.011-0.168-0.031-0.25c0.059-0.033,0.124-0.055,0.191-0.063c0.017,0.018,0.039,0.028,0.062,0.031
	c0.013,0.112-0.015,0.079,0.062,0.125c0.103-0.018,0.199-0.061,0.28-0.125c0.027,0.026,0.059,0.047,0.093,0.063v-0.188
	c0.023-0.037,0.034-0.081,0.031-0.125c0.29,0.046,0.586,0.035,0.872-0.031c0.083-0.014,0.167-0.014,0.249,0
	c0.026,0.049,0.037,0.103,0.031,0.156l0.81-0.094v-0.093h0.06c0.11-0.04,0.226-0.061,0.343-0.062v-0.096h0.062
	c0.056-0.034,0.123-0.045,0.187-0.031c0.025,0.028,0.046,0.061,0.062,0.094c0.286-0.116,1.048-0.064,1.526-0.187l3.4-0.5v-0.094
	c0.078-0.036,0.163-0.057,0.249-0.062c0.027,0.036,0.062,0.091,0.093,0.125c0.223-0.061,0.454-0.093,0.685-0.094
	c0.258-0.061,0.59-0.035,0.872-0.125c0.261-0.097,0.533-0.16,0.81-0.187v-0.189c-0.422,0.12-0.863-0.114-1-0.531
	c-0.033-0.416-0.033-0.834,0-1.25c-0.409-0.146-0.847-0.189-1.276-0.125l-0.031-0.094c-0.044-0.237-0.044-0.481,0-0.719h0.592
	c0-0.091-0.03-0.043,0-0.094c0.058-0.028,0.123-0.039,0.187-0.031c0-0.034,0.011-0.067,0.031-0.094v0.094
	c0.093-0.006,0.187-0.006,0.28,0c-0.003-0.043-0.014-0.085-0.031-0.125h0.062v0.125h0.218v-0.062
	c0.076-0.349,0.107-0.706,0.093-1.062h0.623c0-0.487-0.06-0.879-0.062-1.406c0.034,0.001,0.067-0.01,0.094-0.031
	c0.098-0.557,0.119-1.125,0.062-1.687H14.05c-0.137,0.061-0.286,0.093-0.436,0.094c-0.016,0.026-0.037,0.047-0.063,0.063v0.094H13.4
	c-0.001-0.074-0.012-0.147-0.031-0.219h-1.157c-0.048,0.052-0.125,0.065-0.187,0.031h0.062c0.036-0.033,0.058-0.077,0.062-0.125
	h-0.062c-0.101-0.032-0.21-0.032-0.311,0l-0.031-0.25h-0.094V6.766h0.093l0.031-0.312c0.29,0.014,0.479-0.025,0.779-0.031V6.297
	c0.117-0.054,0.246-0.076,0.374-0.063c0.04,0.055,0.062,0.121,0.063,0.188l1.09,0.031V3.485c-0.064-0.325-0.031-0.662,0.095-0.969
	C14.255,3.827,14.266,5.142,14.206,6.454z M14.237,9.048h0.125c0,0.464-0.056,0.847-0.062,1.25h0.03
	c0.186-0.158,0.396-0.284,0.623-0.375c0.125-0.001,0.246-0.046,0.343-0.125v-0.25H15.14v0.156c-0.04,0.016-0.082,0.027-0.125,0.031
	c-0.034-0.165-0.044-0.333-0.031-0.5c0.079-0.12,0.102-0.268,0.062-0.406c-0.022-0.304-0.001-0.608,0.062-0.906
	c-0.013-0.007-0.023-0.018-0.031-0.031c-0.115,0.002-0.23-0.008-0.343-0.031V7.516l-0.53-0.187v1.344
	C14.243,8.794,14.254,8.921,14.237,9.048L14.237,9.048z M18.38,7.329h0.062V7.36C18.418,7.357,18.396,7.346,18.38,7.329z
	 M17.601,7.36c0.084-0.012,0.17-0.001,0.249,0.031C17.766,7.403,17.679,7.393,17.601,7.36L17.601,7.36z M18.442,7.36
	c0.095-0.013,0.191-0.002,0.28,0.031C18.627,7.404,18.531,7.394,18.442,7.36z M17.507,7.391h0.063v0.031
	C17.546,7.419,17.524,7.408,17.507,7.391L17.507,7.391z M18.753,7.391h0.062C18.779,7.441,18.8,7.429,18.753,7.391L18.753,7.391z
	 M17.476,7.422c0.017,0.018,0.027,0.039,0.031,0.063h-0.03L17.476,7.422L17.476,7.422z M18.816,7.453
	c0.036,0.046,0.036,0.11,0,0.156V7.453L18.816,7.453z M17.476,7.609h1.34V7.64h-0.031C18.351,7.707,17.908,7.697,17.476,7.609
	L17.476,7.609z M12.118,10.266c0.064-0.008,0.129,0.002,0.187,0.031C12.241,10.305,12.176,10.294,12.118,10.266z M12.336,10.297
	H12.4v0.031C12.376,10.325,12.353,10.314,12.336,10.297z M11.962,10.328h0.062v0.031C12.001,10.356,11.979,10.345,11.962,10.328
	L11.962,10.328z M12.429,10.359h0.062v0.031C12.468,10.387,12.446,10.376,12.429,10.359L12.429,10.359z M11.868,10.421
	c0.017,0.018,0.027,0.039,0.031,0.063h-0.03L11.868,10.421L11.868,10.421z M11.776,10.516h0.062v0.063h-0.062V10.516z
	 M12.586,10.547c0.03,0.113,0.05,0.228,0.062,0.344h-0.062c-0.023-0.027-0.039-0.035-0.062-0.062
	C12.597,10.754,12.621,10.645,12.586,10.547z M12.679,11.016c-0.004-0.043-0.014-0.085-0.031-0.125
	c0.192-0.038,0.354-0.166,0.436-0.344v0.063c0.05,0.024,0.085,0.071,0.094,0.125c-0.16,0.047-0.301,0.146-0.4,0.281H12.679z
	 M11.838,10.579c0.026,0.048,0.037,0.102,0.031,0.156c0.076,0.046,0.149,0.099,0.218,0.156c-0.094,0.06-0.014,0.047-0.062,0.125
	v-0.031C11.9,10.889,11.83,10.737,11.838,10.579z M12.368,10.798c0.044-0.003,0.088,0.007,0.125,0.031
	C12.449,10.833,12.405,10.821,12.368,10.798L12.368,10.798z M12.306,10.829h0.062v0.031C12.344,10.857,12.322,10.846,12.306,10.829
	L12.306,10.829z M12.088,10.892c0.044-0.004,0.088,0.007,0.125,0.031C12.168,10.927,12.124,10.916,12.088,10.892L12.088,10.892z
	 M12.836,10.986H13.3v0.062h-0.029C13.176,10.99,12.929,11.044,12.836,10.986L12.836,10.986z M12.088,11.048
	c0.035,0.02,0.058,0.055,0.062,0.094h-0.032V11.11C12.101,11.093,12.09,11.071,12.088,11.048L12.088,11.048z M12.182,11.173
	c0.035,0.02,0.058,0.055,0.062,0.094h-0.032v-0.032C12.195,11.218,12.185,11.196,12.182,11.173L12.182,11.173z M12.275,11.298
	c0.035,0.02,0.058,0.055,0.062,0.094h-0.032V11.36C12.288,11.343,12.277,11.321,12.275,11.298L12.275,11.298z M12.368,11.423
	c0.017,0.018,0.027,0.04,0.031,0.063h-0.031V11.423L12.368,11.423z M12.462,11.548c0.017,0.018,0.028,0.04,0.031,0.063h-0.032
	L12.462,11.548L12.462,11.548z M3.769,15.922h0.063v0.031C3.808,15.95,3.786,15.939,3.769,15.922z M3.769,15.984
	c0.02,0.027,0.031,0.061,0.031,0.095H3.769V15.984z"/>
</svg>
