<svg xmlns="http://www.w3.org/2000/svg" width="40" height="40" viewBox="0 0 40 40">
  <defs>
    <style>
      .cls-1 {
        fill: #fff;
        fill-rule: evenodd;
      }
    </style>
  </defs>
  <path id="fr_m4a3_105_sherman_ico" class="cls-1" d="M14.206,10.938h0.966a0.236,0.236,0,0,1,0-.156,0.719,0.719,0,0,0,.4,0c0,0.183-.031.161,0.187,0.156a0.193,0.193,0,0,1,.062-0.062V10.688H15.95l0.031,0.344a1.355,1.355,0,0,0,.436.063c0.248,0.172.906-.105,1.215,0.031a8.76,8.76,0,0,0,1.184.094,6.638,6.638,0,0,0,1.215.031h2.305V11.5c-1.233,0-2.591.03-3.863,0.031v0.094H18.349a0.2,0.2,0,0,1-.031.125V11.625H17.975a0.262,0.262,0,0,1-.031.156c0-.166,0-0.175-0.156-0.187a2.648,2.648,0,0,0-.5.031c-0.326-.04-0.709.03-1.215,0.031a1.731,1.731,0,0,0-.062.688,4.012,4.012,0,0,1-.467.031v0.031l0.093,0.063v0.438c0,0.367.053,0.718,0.062,1a1.589,1.589,0,0,1,.592.094,0.84,0.84,0,0,0,.218-0.219c0.016-.042.041-0.248,0.062-0.344h0.311A4.573,4.573,0,0,1,17.072,13a0.151,0.151,0,0,1-.062-0.156c0.046-.079.014-0.048,0.125-0.062v0.031h0.031l0.031,0.25h0.125a0.689,0.689,0,0,1-.062.344h0.125a1.762,1.762,0,0,1,1.09-.156V12.969h0.062v0.313l0.249,0.031,0.031-.125,0.156,0.031a1.622,1.622,0,0,1,.311-0.312,0.365,0.365,0,0,0,.156.063v0.469c0.376,0.012.677,0.169,1.059,0.188a0.956,0.956,0,0,0,.031.219,1.161,1.161,0,0,0,.187.094,0.843,0.843,0,0,1,.062-0.469,0.21,0.21,0,0,1,.125-0.031A0.968,0.968,0,0,1,21.028,13c0.024,0.021.07,0.041,0.094,0.063A1.158,1.158,0,0,0,21,13.5a0.206,0.206,0,0,0-.156,0,0.851,0.851,0,0,0-.062.5,1.255,1.255,0,0,0,.405.156c0.057-.164.25-0.137,0.467-0.125a1.879,1.879,0,0,0,.872.063V14a1.3,1.3,0,0,0-.374-0.344,0.147,0.147,0,0,1-.156.063,0.49,0.49,0,0,1-.031-0.156,0.175,0.175,0,0,1,0-.125,0.331,0.331,0,0,1,.156-0.062,0.147,0.147,0,0,0,.156.063,0.476,0.476,0,0,1,.28-0.344,1.8,1.8,0,0,1,.9-0.094,4.159,4.159,0,0,1,.031,1.094H23.3l-0.031.219h0.218V14.25c0.067-.025.248,0.06,0.405,0.031V13.75h0.093a2.372,2.372,0,0,1-.031.656h0.062a0.52,0.52,0,0,1,.405-0.031,2.378,2.378,0,0,0,.249.281,2.049,2.049,0,0,0-.031.688,0.189,0.189,0,0,1,.187,0,0.121,0.121,0,0,0-.062.094H24.86l-0.031.094c0.036,0.054.238,0.313,0.249,0.344-0.143.264,0.954,0.4,1.09,0.156a0.2,0.2,0,0,1,0-.187h0.094V15.688h0.031c0.014,0.036.036,0.147,0.062,0.063a1.126,1.126,0,0,1,.343-0.469,0.528,0.528,0,0,1,.343-0.062c0.1,0.1.211,0.187,0.311,0.281a2.712,2.712,0,0,1-.031.531,1.633,1.633,0,0,0,.841.344v0.094h0.623V16.5h0.031a0.227,0.227,0,0,0,.062.25,2.687,2.687,0,0,0,.748.031,11.891,11.891,0,0,0,1.589.031l5.545,0.094v0.906c-2.633-.007-5.34.109-7.944,0.156v0.25a2.663,2.663,0,0,1-.716.031,0.435,0.435,0,0,0-.311.25,0.16,0.16,0,0,1,.031.094c-0.3-.011-0.355.122-0.779,0.125a0.266,0.266,0,0,0-.156-0.156,1.091,1.091,0,0,0-.218.188,1.321,1.321,0,0,0,.156.281,2.774,2.774,0,0,0,1.371.031,0.789,0.789,0,0,0,.249-0.281,0.87,0.87,0,0,1,.312.219,0.813,0.813,0,0,1,.53-0.219,0.268,0.268,0,0,0,.156.031A0.328,0.328,0,0,1,29.5,19a0.473,0.473,0,0,1,.187.125l0.53,0.031v0.156H30.28a3.669,3.669,0,0,1,.436-0.031c0.1-.035.133-0.145,0.249-0.187v0.063a0.211,0.211,0,0,0-.031.125l0.374,0.031c0.024-.082.037-0.075,0.062-0.156a0.223,0.223,0,0,1-.249-0.187c0.056-.041-0.014-0.051.125-0.062a0.113,0.113,0,0,0,.062.031,0.652,0.652,0,0,1,.094.219h0.062l0.031-.094a1.744,1.744,0,0,1,.249.25l0.094-.031a0.746,0.746,0,0,1,.28.375,0.437,0.437,0,0,0,.28-0.312,0.633,0.633,0,0,1,.156-0.75,0.113,0.113,0,0,0,.062.031,4.705,4.705,0,0,1,.062,1.125H32.8v0.063H32.71v0.375a0.621,0.621,0,0,1,.187.188,1.254,1.254,0,0,1,.592-0.031,0.983,0.983,0,0,1,.249.813,1.584,1.584,0,0,1,.249.188H34.05a0.5,0.5,0,0,1,.53-0.281v0.156h0.093v0.156H34.579v0.156H34.8v0.313h0.53a0.562,0.562,0,0,1,.093-0.125,2.83,2.83,0,0,0-.218-0.813l0.187-.031a0.964,0.964,0,0,1,.187.938c-0.064.2-.243,0.25-0.312,0.438h0.716V22.188a1.641,1.641,0,0,0,.094-0.344l0.187,0.031a0.491,0.491,0,0,1,.031.156,0.5,0.5,0,0,0-.031.25h0.28v0.281H36.106a7.84,7.84,0,0,0-.374.75,3.048,3.048,0,0,1,.4.469,2.261,2.261,0,0,0,.9.063c0.24,0.146.689,0.1,0.935,0.25a0.442,0.442,0,0,1,.062.125,1.106,1.106,0,0,0,.405.25c0.017-.041,0-0.023.031-0.031a0.34,0.34,0,0,1,.093.063,0.19,0.19,0,0,0-.062.063,0.118,0.118,0,0,1,.093.063c0.054-.025.057-0.082,0.093-0.031l0.062,0.031c-0.025.054-.082,0.058-0.031,0.094a6.247,6.247,0,0,1,.623.75c0.225,0,.417,1.148.654,1.219v0.125H39.907v0.125l-0.748-.125c-0.017.1-.085,0.119-0.094,0.188a1.11,1.11,0,0,1,.062.531c-0.077.157-.2,0.356-0.28,0.531-0.062,0-.009-0.032-0.062,0-0.027.023-.035,0.039-0.062,0.063a0.379,0.379,0,0,1,.062.188,1.119,1.119,0,0,0,.218.031,0.167,0.167,0,0,1,.187-0.062c0.077,0.04.021-.014,0.062,0.062,0.008,0.03.025,0.012,0,.031-0.035.09-.005,0.058-0.093,0.094a0.674,0.674,0,0,1-.592-0.031,1.169,1.169,0,0,1-.623.5c0,0.091.03,0.043,0,.094a4.427,4.427,0,0,1-.623.531,0.136,0.136,0,0,0-.125-0.031c-0.052.033-.042,0.176-0.093,0.219-0.1.084-.45,0.4-0.53,0.438a0.218,0.218,0,0,1-.125-0.031,0.175,0.175,0,0,0-.031.156,3.164,3.164,0,0,1-.4.281c-0.087.065-.158,0.189-0.249,0.25a0.3,0.3,0,0,0-.156,0,0.852,0.852,0,0,1-.467.469,2.185,2.185,0,0,1-1.059.594,1.491,1.491,0,0,1-.249-0.062v0.094H32.96c-0.027-.011-0.019-0.1-0.125-0.062-0.017.006,0.01,0.055-.125,0.063-0.156.009-.872-0.062-0.872-0.062v0.063a4.5,4.5,0,0,1-.966-0.062v0.063a4.975,4.975,0,0,1-1-.062v0.063a1.739,1.739,0,0,1-.841-0.062,0.757,0.757,0,0,0-.28.063H28.037V31.875H27.913v0.063a1.75,1.75,0,0,1-.841-0.062s-0.492.063-.623,0.063-0.452-.08-0.5-0.062a1.588,1.588,0,0,1-.561.063c-0.13,0-.367-0.076-0.4-0.062v0.063H24.112c-0.033-.013.011-0.08-0.093-0.062H23.988v0.063a1.75,1.75,0,0,1-.841-0.062c-0.115-.039-0.109.05-0.187,0.063-0.335.052-.772-0.067-0.935,0a4.417,4.417,0,0,1-.966-0.062v0.063a1.832,1.832,0,0,1-.872-0.062,4.491,4.491,0,0,1-.966.063c-0.036-.014.026-0.062-0.062-0.062s-0.026.048-.062,0.063a4.975,4.975,0,0,1-1-.062v0.063a4.417,4.417,0,0,1-.966-0.062v0.063a1.832,1.832,0,0,1-.872-0.062,0.757,0.757,0,0,0-.28.063,2.082,2.082,0,0,1-.685-0.062,0.515,0.515,0,0,0-.249.063c-0.16.009-.872-0.062-0.872-0.062a1.722,1.722,0,0,1-.841.063V31.875a0.757,0.757,0,0,0-.28.063H12.336c-0.036-.014.026-0.062-0.062-0.062s-0.027.048-.062,0.063a4.5,4.5,0,0,1-.966-0.062v0.063a1.722,1.722,0,0,1-.841-0.062,0.107,0.107,0,0,0-.156.063l-0.935-.031V31.813H9.159c-0.016.032,0.031,0.074-.031,0.063a5.619,5.619,0,0,1-.841-0.406l0.031-.094a1.772,1.772,0,0,0-.28-0.031,5.714,5.714,0,0,1-.53-0.281,1.07,1.07,0,0,0-.125-0.156,3.148,3.148,0,0,1-.748-0.312c-0.092-.074.051-0.076-0.062-0.125a0.422,0.422,0,0,0-.156,0,1.821,1.821,0,0,1-.717-0.5C5.623,29.99,5.643,30.042,5.607,30a1.523,1.523,0,0,1-.779-0.5c-0.074.044-.018,0.053-0.093,0.031a3.7,3.7,0,0,1-.654-0.312l-0.062-.156-0.125.031a2.548,2.548,0,0,1-.592-0.5c-0.057-.1.03-0.136-0.031-0.219C3.228,28.316,3.1,28.313,3.053,28.25a2.53,2.53,0,0,1-.343-1.344,0.62,0.62,0,0,1-.187-0.187,4.031,4.031,0,0,1-.935.031,6.689,6.689,0,0,1-1.5.219A0.118,0.118,0,0,1,0,26.906a0.964,0.964,0,0,0,.125-0.469c0.024-.071.087-0.024,0.093-0.031A6.473,6.473,0,0,1,.81,25.438c-0.052-.092-0.032,0-0.031-0.125A2.563,2.563,0,0,0,1.371,24.5L1.34,24.375a0.32,0.32,0,0,1,.125-0.031,0.529,0.529,0,0,0,.125-0.406h0.53c0.016-.119.044-0.131,0.062-0.25a0.789,0.789,0,0,1-.249-0.219,0.366,0.366,0,0,0,.062-0.156,1.018,1.018,0,0,1,.312-0.031,0.113,0.113,0,0,0,.062.031,1.441,1.441,0,0,0,.125-0.437c-0.054-.041-0.05-0.054-0.093-0.031a0.16,0.16,0,0,0-.031.094,0.982,0.982,0,0,0-.592.031,0.218,0.218,0,0,0-.031.094,0.774,0.774,0,0,1-.218.063,8.057,8.057,0,0,1-1.09-.531A0.159,0.159,0,0,1,.4,22.5a0.416,0.416,0,0,1-.218-0.094,0.117,0.117,0,0,0,0-.187l0.093-.031C0.3,22.15.26,22.163,0.249,22.156a0.476,0.476,0,0,0-.125-0.219H0.218c0.048,0.022,0,0,.093,0a0.147,0.147,0,0,0,0,.156A0.414,0.414,0,0,0,.9,21.938a1.337,1.337,0,0,1,.156-1.344c0.494-.6,1.494,0,1.713.531A0.562,0.562,0,0,1,3.084,21V20.906H3.24a1.068,1.068,0,0,0-.031-0.25A0.48,0.48,0,0,1,3.4,20.594a0.112,0.112,0,0,0,.062.031c0.013,0.112-.015.079,0.062,0.125a0.626,0.626,0,0,0,.28-0.125,0.355,0.355,0,0,0,.093.063V20.5a0.211,0.211,0,0,0,.031-0.125A2.3,2.3,0,0,0,4.8,20.344a0.745,0.745,0,0,1,.249,0,0.271,0.271,0,0,1,.031.156l0.81-.094V20.313H5.95a1.066,1.066,0,0,1,.343-0.062V20.156H6.355a0.254,0.254,0,0,1,.187-0.031,0.361,0.361,0,0,1,.062.094c0.286-.117,1.048-0.065,1.526-0.187l3.4-.5V19.438a0.721,0.721,0,0,1,.249-0.062c0.027,0.036.062,0.091,0.093,0.125a2.644,2.644,0,0,1,.685-0.094c0.258-.061.59-0.035,0.872-0.125a3.247,3.247,0,0,1,.81-0.187V18.906a0.817,0.817,0,0,1-1-.531,7.91,7.91,0,0,1,0-1.25A2.632,2.632,0,0,0,11.963,17l-0.031-.094a1.964,1.964,0,0,1,0-.719h0.592c0-.091-0.03-0.043,0-0.094a0.335,0.335,0,0,1,.187-0.031,0.152,0.152,0,0,1,.031-0.094v0.094a2.289,2.289,0,0,1,.28,0,0.4,0.4,0,0,0-.031-0.125h0.062v0.125h0.218V16a4.194,4.194,0,0,0,.093-1.062h0.623c0-.487-0.06-0.879-0.062-1.406a0.15,0.15,0,0,0,.094-0.031,6.165,6.165,0,0,0,.062-1.687H14.05a1.084,1.084,0,0,1-.436.094,0.189,0.189,0,0,1-.062.063v0.094H13.4a0.953,0.953,0,0,0-.031-0.219H12.212a0.154,0.154,0,0,1-.187.031h0.062a0.191,0.191,0,0,0,.062-0.125H12.087a0.515,0.515,0,0,0-.311,0l-0.031-.25H11.651V11.25h0.093l0.031-.312c0.29,0.014.479-.025,0.779-0.031V10.781a0.72,0.72,0,0,1,.374-0.063,0.328,0.328,0,0,1,.062.188l1.09,0.031V7.969A1.69,1.69,0,0,1,14.175,7,37.005,37.005,0,0,1,14.206,10.938Zm0.031,2.594h0.125c0,0.464-.056.847-0.062,1.25H14.33a2.265,2.265,0,0,1,.623-0.375,0.554,0.554,0,0,0,.343-0.125v-0.25H15.14v0.156a0.442,0.442,0,0,1-.125.031,1.809,1.809,0,0,1-.031-0.5,0.491,0.491,0,0,0,.062-0.406,3.208,3.208,0,0,1,.062-0.906,0.088,0.088,0,0,1-.031-0.031,1.562,1.562,0,0,1-.343-0.031V12l-0.53-.187v1.344A0.852,0.852,0,0,1,14.237,13.531Zm4.143-1.719h0.062v0.031A0.106,0.106,0,0,1,18.38,11.813Zm-0.779.031a0.483,0.483,0,0,1,.249.031A0.482,0.482,0,0,1,17.6,11.844Zm0.841,0a0.567,0.567,0,0,1,.28.031A0.565,0.565,0,0,1,18.442,11.844Zm-0.935.031H17.57v0.031A0.106,0.106,0,0,1,17.508,11.875Zm1.246,0h0.062C18.779,11.925,18.8,11.913,18.754,11.875Zm-1.277.031a0.113,0.113,0,0,1,.031.063H17.477V11.906Zm1.34,0.031a0.126,0.126,0,0,1,0,.156V11.938Zm-1.34.156h1.34v0.031H18.785A3.728,3.728,0,0,1,17.477,12.094ZM12.118,14.75a0.328,0.328,0,0,1,.187.031A0.327,0.327,0,0,1,12.118,14.75Zm0.218,0.031H12.4v0.031A0.106,0.106,0,0,1,12.336,14.781Zm-0.374.031h0.062v0.031A0.108,0.108,0,0,1,11.963,14.813Zm0.467,0.031h0.062v0.031A0.107,0.107,0,0,1,12.43,14.844Zm-0.561.062a0.114,0.114,0,0,1,.031.063H11.869V14.906ZM11.776,15h0.062v0.063H11.776V15Zm0.81,0.031a2.247,2.247,0,0,1,.062.344H12.586c-0.023-.027-0.039-0.035-0.062-0.062A0.273,0.273,0,0,0,12.586,15.031ZM12.679,15.5a0.4,0.4,0,0,0-.031-0.125,0.609,0.609,0,0,0,.436-0.344v0.063a0.171,0.171,0,0,1,.094.125,0.759,0.759,0,0,0-.4.281H12.679Zm-0.841-.437a0.271,0.271,0,0,1,.031.156,1.788,1.788,0,0,1,.218.156c-0.094.06-.014,0.047-0.062,0.125V15.469A0.481,0.481,0,0,1,11.838,15.063Zm0.53,0.219a0.2,0.2,0,0,1,.125.031A0.2,0.2,0,0,1,12.368,15.281Zm-0.062.031h0.062v0.031A0.107,0.107,0,0,1,12.305,15.313Zm-0.218.063a0.2,0.2,0,0,1,.125.031A0.2,0.2,0,0,1,12.087,15.375Zm0.748,0.094H13.3v0.062H13.271C13.176,15.474,12.929,15.528,12.835,15.469Zm-0.748.062a0.121,0.121,0,0,1,.062.094H12.118V15.594A0.112,0.112,0,0,1,12.087,15.531Zm0.094,0.125a0.121,0.121,0,0,1,.062.094H12.212V15.719A0.113,0.113,0,0,1,12.181,15.656Zm0.093,0.125a0.12,0.12,0,0,1,.062.094H12.305V15.844A0.112,0.112,0,0,1,12.274,15.781Zm0.093,0.125a0.113,0.113,0,0,1,.031.063H12.368V15.906Zm0.094,0.125a0.114,0.114,0,0,1,.031.063H12.461V16.031ZM3.769,20.406H3.832v0.031A0.106,0.106,0,0,1,3.769,20.406Zm0,0.063a0.159,0.159,0,0,1,.031.094H3.769V20.469Z" transform="translate(0 0.516)"/>
</svg>
