<?xml version="1.0" encoding="utf-8"?>
<!-- Generator: Adobe Illustrator 16.0.0, SVG Export Plug-In . SVG Version: 6.00 Build 0)  -->
<!DOCTYPE svg PUBLIC "-//W3C//DTD SVG 1.1//EN" "http://www.w3.org/Graphics/SVG/1.1/DTD/svg11.dtd">
<svg version="1.1" id="Layer_1" xmlns="http://www.w3.org/2000/svg" xmlns:xlink="http://www.w3.org/1999/xlink" x="0px" y="0px"
	 width="39.938px" height="40px" viewBox="0 0 39.938 40" enable-background="new 0 0 39.938 40" xml:space="preserve">
<path id="Color_Fill_1" fill="#FFFFFF" d="M5.129,8.016c0.055,0.092,0.055,0.208,0,0.3V8.016z M5.335,8.185
	c0.081,0.276,0.081,0.57,0,0.847V8.185z M5.335,11.485h0.124v-0.038H5.418c0.038-0.148-0.049-0.033,0.041-0.169
	c-0.032-0.004-0.062-0.019-0.083-0.042c0.124-0.007,0.248-0.007,0.372,0v0.042c-0.101,0.043,0,0.095-0.083,0.212
	c0.134,0.035,0.063-0.021,0.124,0.085c-0.029,0.053-0.072,0.097-0.124,0.127c-0.034-0.137,0.02-0.065-0.083-0.127v0.085
	c0.198,0.346,0.258,0.755,0.165,1.143c-0.146,0.782-0.188,1.58-0.124,2.372c0.245,0.111,0.516,0.155,0.784,0.127
	c0.074-0.119,0.143-0.06,0.329-0.042c-0.003-0.156,0.011-0.313,0.041-0.466c0.094-0.031,0.192-0.046,0.291-0.044
	c0.108,0.054,0.206,0.125,0.289,0.212c0.037,0.079,0.052,0.167,0.041,0.254c0.13,0.045,0.273,0.012,0.37-0.085H7.482v-0.042
	c-0.034-0.065-0.048-0.139-0.041-0.212c-0.018-0.126-0.018-0.255,0-0.381l1.734,0.042c0,0.281,0.007,0.337,0,0.593H8.844v0.127
	c1.018-0.007,1.864,0.157,2.766,0.169v-0.55c0.582,0,1.164,0.036,1.692,0.042v-0.126h0.083c0.156-0.074,0.334-0.089,0.5-0.042
	c-0.004,0.138,0.104,0.253,0.243,0.257c0.015,0,0.03,0,0.046-0.003c0.161,0.055,0.33,0.084,0.5,0.085v-0.043
	c-0.05-0.112,0.046-0.395,0-0.551h0.082c0.068,0.086,0.048-0.03,0.083,0.085l-0.041,0.042h0.071
	c0.033-0.137-0.021-0.065,0.083-0.127c-0.001,0.045,0.014,0.09,0.041,0.127c-0.001-0.046,0.014-0.09,0.041-0.127
	c0.033,0.137-0.021,0.065,0.082,0.127c0.007-0.2,0.087-0.139,0.371-0.127c0.025,0.068,0.039,0.14,0.041,0.212
	c-0.024,0.154-0.038,0.31-0.041,0.466h0.291c0.022,0.023,0.052,0.038,0.083,0.042v-0.339h-0.293l-0.041-0.127h0.041v-0.042
	c0.094,0.03,0.191,0.044,0.289,0.042v-0.677h-0.243v-0.085c0.085,0.011,0.171-0.004,0.247-0.042
	c-0.156,0.01-0.309-0.052-0.412-0.169h0.119c-0.114-0.287-0.197-0.584-0.248-0.889c-0.058,0.005-0.116-0.01-0.164-0.042
	c0.177-0.03,0.356-0.044,0.536-0.042v-0.171h0.086v0.042c0.027,0.037,0.041,0.082,0.041,0.127h0.165
	c-0.078-0.304-0.106-0.619-0.083-0.932h0.413c0.1,0.034,0.196,0.077,0.289,0.127V11.87h0.537c0.039,0.2,0.171,0.229,0.083,0.3
	c-0.106,0.252-0.209,0.273-0.578,0.254c-0.021-0.06-0.048-0.116-0.083-0.169c-0.061,0.147-0.214,0.234-0.372,0.212v0.169
	c0.435-0.055,0.876,0.003,1.28,0.169c-0.011-0.086,0.003-0.175,0.041-0.254c0.032,0.029,0.092,0.056,0.124,0.085
	c-0.045,0-0.089,0.015-0.124,0.042c0.026,0.037,0.041,0.082,0.041,0.127c0.84,0.034,1.681,0.02,2.518-0.042
	c-0.028-0.17-0.132-0.193,0.041-0.3v0.339c0.534,0,1-0.06,1.486-0.085v0.212c-0.444-0.018-0.981-0.042-1.486-0.042
	c-0.084,0.315-0.612,0.229-0.99,0.212c-0.082,0.121-0.233,0.173-0.372,0.127c-0.022-0.023-0.037-0.053-0.041-0.085
	c0.071,0.008,0.144-0.006,0.206-0.042l-1.156,0.042c-0.211,0.106-0.432,0.191-0.66,0.254v0.421h-0.617l-0.041-0.424h-0.042v0.042
	c-0.104,0.196-0.118,0.427-0.041,0.635h-0.248v0.085c0.135,0.035,0.063-0.021,0.124,0.085h-0.124v0.381
	c0.045,0,0.089,0.015,0.124,0.042h-0.124v0.508h0.041v0.046c0.222,0.01,0.442-0.004,0.66-0.042c-0.026-0.281-0.026-0.565,0-0.847
	c0.129-0.061,0.271-0.09,0.413-0.085c0.223-0.061,0.461-0.03,0.661,0.085l-0.083,0.847c0.213,0.054,0.411,0.157,0.578,0.3
	c-0.046-0.18,0.001-0.37,0.124-0.508c0.098-0.095,0.255-0.091,0.349,0.007c0.032,0.033,0.055,0.075,0.064,0.12
	c0.008,0.155,0.008,0.311,0,0.466c0.263,0.004,0.525,0.033,0.784,0.085c0.16-0.055,0.329-0.084,0.5-0.085
	c0.172,0.056,0.389,0.224,0.577,0.3l0.413,0.085c0.101,0.058,0.149,0.269,0.248,0.339c0.342,0.19,0.725,0.293,1.115,0.3l0.041,0.381
	c0.244,0.049,0.495,0.063,0.743,0.042c0.382,0.06,0.771,0.074,1.156,0.042c0.794,0.148,1.611,0.119,2.394-0.085h2.354v0.127
	c0.556,0.066,1.591,0,2.394,0h0.867c0.948,0.063,1.899,0.063,2.848,0c0.74,0,1.59,0,2.436,0h1.113c0,0,0.146,0.032,0.165,0.042
	v0.085h0.867c0.011,0.212,0.011,0.424,0,0.635c-1.953,0-4.013,0.043-6.027,0.043c-1.539,0-3.193-0.063-4.664,0.041v0.16h-0.086
	c-0.347-0.217-1.791,0.09-2.188,0c-0.034-0.037-0.063-0.08-0.083-0.127h-0.082c-0.059,0.008-0.117-0.008-0.165-0.042l-3.55,0.089
	v0.043h-0.042c-0.041,0.311-0.2,0.524-0.248,0.847l-2.519-0.042v0.169c-0.058-0.005-0.116,0.01-0.165,0.042
	c0.196-0.078,0.409-0.107,0.619-0.085c0.229,0.065,0.463,0.108,0.7,0.127c0.137,0.011,0.078-0.066,0.124-0.085
	c0.144-0.033,0.294-0.002,0.413,0.085v-0.132c0.752,0.112,1.51,0.183,2.271,0.213v-0.081c0.026-0.037,0.04-0.081,0.04-0.127
	l0.789,0.081v0.254c0.54,0.023,1.077,0.08,1.61,0.169v-0.126h0.124v0.127l0.246,0.042c-0.02-0.04-0.02-0.087,0-0.127h0.12v0.127
	l0.87,0.08c0.092,0.089,0.188,0.175,0.289,0.254l-0.248,0.424h0.041c0.283-0.225,0.673-0.259,0.99-0.085
	c0.022-0.136,0.02-0.159,0.041-0.254h0.041v0.042c0.036,0.098,0.063,0.198,0.083,0.3c0.032-0.004,0.062-0.019,0.083-0.042
	c0.162-0.069,0.101-0.133,0.124-0.254c0.031,0.005,0.061,0.019,0.082,0.042c0.026,0.037,0.041,0.082,0.041,0.127
	c-0.043,0.108-0.071,0.223-0.083,0.339c-0.171,0.066-0.357,0.081-0.537,0.042c-0.038,0.145-0.016,0.133-0.164,0.169
	c-0.036-0.026-0.08-0.042-0.124-0.042v0.085h-0.04c-0.041,0.044,0.041,0.042,0.041,0.042c0.113,0.137,0.238,0.264,0.371,0.381v0.043
	H28.99c-0.131,0.041-0.256,0.098-0.372,0.168c0.274,0.146,0.503,0.366,0.659,0.636c-0.017,0.173,0.013,0.349,0.083,0.508
	c-0.006,0.274-0.063,0.546-0.165,0.8c-0.06,0.055-0.129,0.099-0.205,0.127v0.049c-0.021,0.137-0.095,0.259-0.206,0.34
	c-0.255,0.189-0.532,0.346-0.826,0.466H27.75c-0.091,0.054-0.488,0.456-0.619,0.3c-0.322,0.266-0.685,0.48-1.073,0.635
	c-0.068,0.004-0.138,0.004-0.206,0c-0.085,0.048-0.482,0.469-0.619,0.301c-0.156,0.203-0.404,0.315-0.66,0.299
	c-0.222,0.091-0.464,0.12-0.7,0.086c-0.236,0.047-0.482,0.018-0.7-0.086c-0.014,0.051-0.042,0.096-0.083,0.127
	c-0.195-0.027-0.389-0.07-0.578-0.127c-0.025,0.045-0.053,0.087-0.083,0.127c-0.186-0.004-0.369-0.047-0.537-0.127
	c-0.2,0.133-0.46,0.133-0.66,0c-0.136,0.124-0.331,0.157-0.5,0.086c-0.103-0.025-0.062-0.125-0.162-0.094
	c-0.024,0.043-0.053,0.086-0.083,0.127c-0.186-0.004-0.368-0.048-0.536-0.127c-0.2,0.131-0.46,0.131-0.66,0
	c-0.2,0.266-0.524-0.043-0.66,0c-0.025,0.043-0.053,0.086-0.083,0.127c-0.176,0.005-0.349-0.039-0.5-0.127
	c0,0-0.151,0.123-0.165,0.127c-0.174-0.009-0.344-0.052-0.5-0.127c-0.08-0.041-0.022,0.063-0.041,0.084
	c-0.21,0.043-0.429,0.013-0.619-0.084c-0.2,0.131-0.46,0.131-0.66,0c-0.148,0.126-0.356,0.158-0.537,0.084
	c-0.075-0.016-0.007-0.121-0.124-0.084c-0.024,0.043-0.053,0.086-0.083,0.127c-0.186-0.004-0.369-0.048-0.537-0.127
	c-0.2,0.13-0.46,0.13-0.66,0c-0.173,0.107-0.382,0.139-0.578,0.084c-0.236,0.045-0.481,0.016-0.7-0.084
	c-0.024,0.055-0.068,0.101-0.124,0.127c-0.389-0.008-0.775-0.05-1.156-0.127c-0.183,0.119-0.41,0.15-0.619,0.084
	c-0.441,0.043-0.888,0.015-1.32-0.084c-0.417,0.121-0.857,0.136-1.28,0.041c-0.617,0.094-1.246,0.08-1.858-0.041
	c-0.04,0.058-0.098,0.102-0.165,0.127C6.1,25.943,5.879,25.93,5.658,25.932c-1.066-0.445-2.044-1.076-2.891-1.863
	c-0.131-0.113-0.929-0.129-1.073-0.211c-0.361-0.36-0.361-0.812-1.072-0.801c-0.078,0.2-0.391,0.133-0.578,0.086v-0.301
	c-0.069-0.204-0.084-0.424-0.041-0.635c0.309-0.182,0.463-0.543,0.379-0.891c-0.07-0.233-0.099-0.478-0.083-0.721
	c-0.044-0.025-0.085-0.053-0.124-0.085c0.2-0.013,0.136-0.165,0.124-0.466c-0.094,0.018-0.045,0.039-0.124,0
	c0.166-0.343,0.251-0.719,0.248-1.1H0.134v-0.088h0.248c0-0.115,0.014-0.229,0.041-0.342c0.071,0.01,0.144-0.004,0.206-0.039H0.382
	v-0.084c0.264-0.002,0.526,0.027,0.784,0.086c0.061-0.017,0.116-0.046,0.165-0.086c0.134,0,0.078,0.066,0.124,0.086
	c0.092,0.023,0.189-0.01,0.248-0.086c0.078-0.006,0.154,0.026,0.206,0.086c0.077-0.041,0.161-0.07,0.248-0.086h0.041v0.086
	c0.106,0.024,0.079-0.07,0.124-0.086h0.536v0.086c0.121-0.041,0.246-0.068,0.372-0.086v0.086c0.301,0.129,0.445-0.201,0.7-0.086
	c0.326,0.147,1.33-0.071,2.023,0.17v-0.127c0.106,0.012,0.207,0.057,0.289,0.127v-0.127h0.166v0.127l0.618,0.041v-0.127
	c0.101-0.007,0.196,0.042,0.248,0.127v-0.127h0.206v0.127c1.084,0.016,2.301,0.043,3.427,0.043L10.867,18.9
	c0.329,0.051,0.666,0.036,0.99-0.043c-0.134-0.054-0.108-0.036-0.124-0.211c-0.18,0.005-0.359-0.01-0.536-0.043v-0.127
	c-0.929-0.024-1.854-0.125-2.767-0.3H7.523c-0.397-0.051-0.799-0.064-1.199-0.042l-1.731-0.039c-0.229,0.054-0.464,0.082-0.7,0.086
	l-0.043-0.128c0.254-0.71,0.422-1.449,0.5-2.2c0.12-0.392-0.13-0.59,0.33-0.593v-0.045c-0.026-0.037-0.041-0.081-0.041-0.127h0.161
	c-0.005-0.164,0.038-0.326,0.124-0.466l-0.041-0.339c0.043-0.238,0.073-0.611,0.124-0.847v-0.762
	c-0.045-0.763-0.017-1.529,0.083-2.287C5.044,9.88,5.058,9.368,5.13,8.863l-0.041,3.899C5.005,13.283,5.02,13.814,5.13,14.33
	c0.051-0.484,0.015-1.3,0.124-1.821c0.1-0.492-0.051-1.128,0.041-1.567c-0.044-0.494-0.03-0.991,0.041-1.482
	C5.33,10.171,5.3,10.929,5.295,11.578c-0.041,0.296-0.027,0.598,0.041,0.89v-0.979L5.335,11.485z M5.5,11.57v0.085h0.042
	c-0.005-0.031-0.02-0.06-0.042-0.081V11.57z M16.192,12.716v0.085c0.148-0.018,0.101,0.021,0.165-0.085H16.192z M5.292,12.801
	c-0.096,0.506-0.082,1.025,0.041,1.525c0.112-0.504,0.099-1.027-0.039-1.524L5.292,12.801z M19.905,12.886
	c-0.176,0.109-0.609-0.027-0.783,0.085h0.826c-0.004-0.031-0.019-0.061-0.04-0.084L19.905,12.886z M15.612,12.928
	c0.071,0.037,0.054,0.038,0.124,0h-0.121H15.612z M18.378,12.928c-0.049,0.033-0.2,0.051-0.248,0.085
	c0.289,0.028,0.581,0.014,0.867-0.042v-0.042H18.38L18.378,12.928z M14.787,13.055c0.021,0.023,0.036,0.053,0.041,0.085h-0.04
	v-0.084L14.787,13.055z M15.613,13.097c0.046,0.044,0.119,0.044,0.165,0h-0.163H15.613z M17.099,13.097v0.085
	c0.071,0.008,0.144-0.007,0.206-0.042L17.099,13.097z M14.829,13.351c0.021,0.023,0.036,0.053,0.041,0.085h-0.04v-0.083
	L14.829,13.351z M16.15,13.52v0.085h0.041v-0.083h-0.04L16.15,13.52z M15.118,13.647h0.083v0.042
	c-0.031-0.004-0.061-0.018-0.082-0.04L15.118,13.647z M16.109,13.776c0.022,0.023,0.052,0.038,0.083,0.042
	C16.169,13.795,16.141,13.781,16.109,13.776z M16.893,14.157c0.059-0.005,0.116,0.01,0.165,0.042
	C17,14.204,16.943,14.189,16.893,14.157L16.893,14.157z M5.087,14.457c-0.005,0.059,0.01,0.118,0.041,0.169
	c0.006-0.06-0.009-0.121-0.04-0.172L5.087,14.457z M5.294,14.496c-0.005,0.059,0.01,0.118,0.041,0.169
	C5.34,14.605,5.325,14.546,5.294,14.496z M15.201,14.538v0.085h0.041C15.239,14.591,15.224,14.561,15.201,14.538z M15.284,14.538
	v0.085c0.147-0.018,0.1,0.02,0.165-0.085H15.284z M6.904,14.838c-0.062,0.102-0.091,0.22-0.083,0.339
	c0.022,0.023,0.037,0.053,0.041,0.085h0.083c0.004-0.145,0.031-0.288,0.083-0.424H6.904z M13.633,14.838
	c0.034,0.137-0.021,0.065,0.082,0.127v-0.049c0.022-0.023,0.036-0.053,0.041-0.085h-0.123V14.838z M7.152,15.262h0.124v-0.346H7.193
	L7.152,15.262z M18.586,15.008c-0.026,0.125-0.04,0.253-0.041,0.381h0.083c0.063,0.03,0.006,0.006,0.124,0
	c0.023-0.099,0.037-0.199,0.041-0.3c-0.061-0.046-0.132-0.075-0.207-0.085V15.008z M7.853,15.135v0.081h0.372v-0.085H7.853V15.135z
	 M8.307,15.135v0.127c0.177,0.029,0.358-0.017,0.5-0.127H8.307z M0.134,20.087c0.061,0.135,0.061,0.289,0,0.424V20.087z
	 M28.163,21.951l-0.041,0.127h0.041c0.021-0.035,0.049-0.063,0.083-0.085C28.224,21.97,28.195,21.955,28.163,21.951L28.163,21.951z
	 M0.341,22.629c-0.02,0.112-0.02,0.227,0,0.339c0.06,0.106-0.009,0.048,0.128,0.083v-0.042C0.443,22.877,0.4,22.749,0.341,22.629
	L0.341,22.629z M0.712,22.716c-0.023,0.087-0.008,0.179,0.041,0.254c0.071-0.021,0.141-0.049,0.206-0.085
	c-0.056-0.044-0.098-0.103-0.123-0.169H0.712z M27.669,23.216c-0.086,0.14-0.164,0.162,0.041,0.212
	c0.022-0.022,0.052-0.037,0.083-0.042v-0.123L27.669,23.216z M27.256,23.725c-0.076-0.042-0.163-0.057-0.248-0.043
	c-0.087,0.076-0.2,0.133-0.289,0.213c0.07,0.071,0.1,0.176,0.165,0.254c0.152-0.111,0.279-0.254,0.371-0.42L27.256,23.725z
	 M27.998,23.816c-0.05,0.05-0.091,0.106-0.124,0.168h0.041l0.124-0.168H27.998z M8.142,24.957h0.127v0.339
	c0.066,0.025,0.136,0.04,0.206,0.042c0.021-0.054,0.035-0.111,0.041-0.169c-0.195-0.195-0.325-0.447-0.372-0.72
	c0.049-0.197,0.034-0.404-0.041-0.594c-0.066,0.025-0.124,0.07-0.165,0.127c0.003,0.327-0.114,0.644-0.33,0.89
	c0.015,0.157,0.042,0.313,0.083,0.466H7.73v-0.042c0.123-0.028,0.25-0.028,0.372,0L8.142,24.957z M14.251,25.296l0.041-0.339h0.124
	c0.014,0.141,0.014,0.283,0,0.424h0.083c0.132-0.032,0.258-0.088,0.37-0.165c0.026-0.037,0.04-0.081,0.041-0.127
	c-0.297-0.338-0.389-0.809-0.241-1.233h-0.128c-0.08,0.036-0.163,0.064-0.248,0.086c0,0.75-0.478,0.8-0.5,1.439h0.046
	C13.962,25.305,14.109,25.273,14.251,25.296L14.251,25.296z M21.558,24.025c-0.086,0.346-0.196,0.686-0.33,1.017
	c0.042,0.069,0.04,0.271,0.083,0.339c0.005-0.059,0.019-0.115,0.041-0.169c0.144,0.042,0.282,0.099,0.413,0.169v-0.043
	c-0.053-0.121-0.053-0.26,0-0.381c0.031,0.004,0.061,0.02,0.082,0.042c0.047,0.079,0.034,0.3,0.083,0.381v-0.084
	c0.042-0.048,0.102-0.079,0.165-0.085c0.062,0.107,0.087,0.085,0.248,0.085c-0.006-0.114,0.009-0.229,0.041-0.339
	c0.031,0.004,0.061,0.02,0.082,0.042c0.042,0.069,0.04,0.271,0.083,0.339c0.045-0.072,0.121-0.119,0.206-0.127
	c0.063,0.074,0.151,0.119,0.248,0.127v-0.042c-0.047-0.108-0.047-0.231,0-0.339h0.082v0.042c0.036,0.11,0.064,0.224,0.083,0.339
	v-0.042c0.042-0.042,0.041,0.042,0.041,0.042c0.026-0.037,0.041-0.081,0.041-0.127c0.075,0.008,0.146,0.037,0.206,0.085
	c-0.32-0.343-0.484-0.803-0.454-1.271c-0.168,0.021-0.338,0.006-0.5-0.043l-0.083-0.127C22.419,23.854,21.719,24.016,21.558,24.025z
	 M25.686,24.025c-0.052,0.207-0.079,0.42-0.082,0.635l0.041,0.127h0.083c0.002-0.072,0.016-0.144,0.041-0.211
	c0.095,0.025,0.194,0.025,0.289,0v-0.042c-0.059-0.103-0.088-0.221-0.083-0.339h0.124c0.047,0.104,0.102,0.205,0.165,0.3
	c0.022-0.022,0.052-0.037,0.083-0.042V24.28c0.168,0.012,0.262,0.049,0.33-0.128c-0.07-0.082-0.101-0.192-0.082-0.299
	C26.288,23.889,25.985,23.946,25.686,24.025z M16.976,25.338l0.413-0.042v-0.339h0.124c0.017,0.134,0.059,0.264,0.124,0.381
	c0.122-0.027,0.247-0.041,0.372-0.042c-0.006-0.114,0.009-0.229,0.041-0.339c0.031,0.004,0.061,0.02,0.083,0.042
	c0.032,0.132,0.104,0.249,0.206,0.339c0.107-0.061,0.241-0.043,0.33,0.042c-0.035-0.139-0.049-0.281-0.041-0.424h0.124
	c-0.005,0.155,0.073,0.3,0.206,0.381c0.042-0.028,0.165-0.055,0.206-0.085c-0.357-0.299-0.517-0.773-0.413-1.229h-0.412
	c-0.228-0.063-0.467-0.076-0.7-0.041v0.041h-0.044c-0.016,0.468-0.263,0.896-0.66,1.144C16.957,25.222,16.971,25.279,16.976,25.338z
	 M3.269,24.025c0.09,0.098,0.204,0.17,0.33,0.211l0.083-0.127C3.549,24.063,3.409,24.035,3.269,24.025z M4.218,24.025v0.084
	c0.123-0.005,0.242,0.041,0.33,0.127l0.041-0.211H4.221H4.218z M7.399,24.491h0.124v-0.084c0.075-0.097,0.105-0.22,0.083-0.339
	H7.523v0.041C7.453,24.227,7.41,24.356,7.399,24.491z M10.949,24.066l-0.124,0.425h0.124l0.041-0.127
	c0.045-0.077,0.06-0.167,0.041-0.255c-0.022-0.021-0.052-0.037-0.082-0.041V24.066z M13.88,24.066l-0.124,0.425h0.124l0.041-0.127
	c0.045-0.077,0.06-0.167,0.041-0.255c-0.022-0.021-0.051-0.037-0.082-0.041V24.066z M17.18,24.066c0.021,0.112,0.021,0.228,0,0.34
	h0.041v-0.084c0.063-0.061,0.064-0.161,0.003-0.224c-0.012-0.013-0.025-0.022-0.041-0.03L17.18,24.066z M3.805,24.236l-0.036,0.213
	c0.134,0.031,0.4,0.195,0.413,0.169c0.06-0.034,0.092-0.102,0.083-0.169c-0.11-0.003-0.261-0.16-0.457-0.213H3.805z M11.569,24.28
	c-0.027,0.081-0.041,0.167-0.041,0.254c0.053,0.063,0.095,0.136,0.124,0.212c0.032-0.004,0.062-0.02,0.083-0.042h0.041
	C11.736,24.551,11.665,24.406,11.569,24.28z M25.191,24.28l-0.041,0.212h0.083c0.004-0.032,0.019-0.063,0.041-0.085
	C25.27,24.354,25.239,24.306,25.191,24.28z M4.923,24.322v0.127c0.053,0.005,0.1,0.037,0.124,0.085h0.041v-0.085
	c-0.022-0.023-0.037-0.053-0.041-0.085L4.923,24.322z M8.723,24.745c-0.01-0.136-0.053-0.267-0.124-0.381
	c-0.037-0.028-0.083-0.044-0.13-0.042v0.085l0.124,0.339H8.72L8.723,24.745z M15.163,24.745l-0.124-0.423l-0.124,0.042
	c0.027,0.081,0.041,0.167,0.041,0.254c0.052,0.063,0.124,0.108,0.204,0.127H15.163z M19.043,24.322
	c0.001,0.149,0.044,0.296,0.124,0.423h0.083v-0.042c-0.099-0.1-0.118-0.277-0.21-0.381H19.043z M4.427,24.576L4.303,24.83
	c0.164,0.039,0.318,0.111,0.454,0.212v-0.126C4.665,24.787,4.554,24.672,4.427,24.576z M10.702,25.338
	c0.157-0.018,0.311-0.061,0.454-0.127V25h0.041v-0.043c0.031,0.004,0.061,0.02,0.082,0.042c0.048,0.079,0.034,0.3,0.083,0.381
	c0.072-0.056,0.215-0.071,0.289-0.127c-0.202-0.17-0.358-0.389-0.453-0.635v0.085l-0.5,0.466v0.169H10.702z M7.482,24.999
	c-0.111,0.12-0.255,0.208-0.413,0.254v0.085h0.165c0.018-0.076,0.088-0.128,0.165-0.122c0.054,0.101-0.018,0.029,0.083,0.085v-0.085
	C7.532,25.152,7.532,25.063,7.482,24.999L7.482,24.999z M21.063,25.041c-0.034,0.098-0.109,0.175-0.206,0.212v0.043
	c0.104-0.006,0.206,0.024,0.289,0.085v-0.043C21.109,25.279,21.101,25.102,21.063,25.041L21.063,25.041z M9.298,25.083
	c-0.036,0.063-0.118,0.031-0.041,0.085C9.28,25.19,9.309,25.205,9.34,25.21C9.34,25.164,9.325,25.12,9.298,25.083L9.298,25.083z
	 M12.311,25.083c-0.021,0.055-0.021,0.114,0,0.169h0.041v-0.036C12.369,25.116,12.392,25.168,12.311,25.083L12.311,25.083z
	 M9.463,25.168c0.024,0.047,0.071,0.079,0.124,0.085v-0.037L9.463,25.168z M13.632,25.295c0.001-0.046-0.014-0.09-0.041-0.127
	c-0.105,0.065-0.216,0.122-0.33,0.169h0.124C13.462,25.299,13.548,25.285,13.632,25.295L13.632,25.295z M15.696,25.168
	c0.025,0.047,0.071,0.079,0.124,0.085v-0.037L15.696,25.168z M16.728,25.253c0.005,0.054,0.036,0.101,0.083,0.127
	C16.79,25.334,16.763,25.291,16.728,25.253L16.728,25.253z M19.205,25.295c-0.015,0.059,0.059,0.061,0.083,0.085
	C19.317,25.336,19.217,25.309,19.205,25.295L19.205,25.295z M6.161,25.549v0.085c0.058-0.021,0.113-0.05,0.165-0.085H6.161z"/>
</svg>
