<svg xmlns="http://www.w3.org/2000/svg" width="40" height="40" viewBox="0 0 40 40">
  <defs>
    <style>
      .cls-1 {
        fill: #fff;
        fill-rule: evenodd;
      }
    </style>
  </defs>
  <path id="fr_pzkpfw_V_panther_dauphine_ico" class="cls-1" d="M7.748,19.989a0.472,0.472,0,0,0,.068.314,0.915,0.915,0,0,1,.2.045c0,0.114,0,.166,0,0.314H8.266V20.527a0.1,0.1,0,0,0,.068-0.067H8.356v0.022a0.175,0.175,0,0,1,.068.179h0.45a4.426,4.426,0,0,1,.18-0.493,1.42,1.42,0,0,1,.09-0.515c0.081-.009.057,0.011,0.09-0.045A0.71,0.71,0,0,0,9.3,19.451c-0.076-.021-0.07-0.009-0.09-0.09a1.334,1.334,0,0,0,.135-0.426c0.088,0,.1.011,0.135-0.045a0.307,0.307,0,0,1,.068-0.157c-0.111,0-.116.007-0.135-0.09a1.334,1.334,0,0,0,.135-0.426H9.662l0.068-.2c-0.1-.007-0.094,0-0.113-0.09A1.335,1.335,0,0,0,9.752,17.5H9.865a0.463,0.463,0,0,1,.068-0.179H9.887A0.115,0.115,0,0,0,9.82,17.3c0.011-.192.094-0.305,0.113-0.493h0.135l0.022-.135a0.346,0.346,0,0,1,.2-0.045,0.294,0.294,0,0,1,.045.179,0.133,0.133,0,0,0,.09,0,0.4,0.4,0,0,1,.45-0.157,1.14,1.14,0,0,1,.135-0.426l0.113-.09c0.055-.12,0-0.312.045-0.4h-0.09V15.506h1.712v-0.09a0.342,0.342,0,0,1,.09-0.045,0.233,0.233,0,0,1,.045.134h1.667V15.73H14.55a0.152,0.152,0,0,1-.09.022v0.359a1.651,1.651,0,0,1,.293.4,0.891,0.891,0,0,0,.158.045c-0.029.012-.017,0-0.023,0.022a0.153,0.153,0,0,0,.09.022L15,16.783h0.18V16.94a1.278,1.278,0,0,1,.27.022,0.81,0.81,0,0,0,.023-0.269c0.242,0.026.482,0.064,0.743,0.067,0.019-.073-0.011-0.034.045-0.067a0.417,0.417,0,0,0,.315.023v0.09l0.315,0.022v-0.09a0.669,0.669,0,0,0,.36,0v0.135a0.924,0.924,0,0,1,.293.067,0.765,0.765,0,0,1,.023-0.179h0.045a0.425,0.425,0,0,0,.315.022l-0.023.179,0.158-.022,0.023-.112a0.356,0.356,0,0,1,.113-0.022,0.889,0.889,0,0,0,.405,0V17.03l0.293-.022v0.247l0.2,0.067V17.209h0.27v0.179a0.064,0.064,0,0,1,.023.023,1.554,1.554,0,0,1,.45.09V17.3a1.872,1.872,0,0,1,.856.314,1.468,1.468,0,0,0,.225.157l0.946,0.224a0.814,0.814,0,0,0,.09.269,1.141,1.141,0,0,0,.473.045c0.254,0.023.588,0.022,0.878,0.022l3.468,0.022,10.7,0.112a0.325,0.325,0,0,1,.045-0.067l0.563-.023,0.023-.045a1.83,1.83,0,0,0,.27.022c0.133-.035.3-0.126,0.428-0.157a0.256,0.256,0,0,1,.2.067h0.766a0.751,0.751,0,0,1,.135.785,0.238,0.238,0,0,1-.158.179,5.525,5.525,0,0,1-.766.022,0.776,0.776,0,0,1-.09.067,2.693,2.693,0,0,1-.631-0.179,5.041,5.041,0,0,1-.721-0.022c-0.017-.005-0.056-0.063-0.068-0.067L35.2,19.07c-2.859,0-5.742.031-8.581,0.09l-2.973.022a8.282,8.282,0,0,0-1.734.067,0.251,0.251,0,0,1-.068.269,3.865,3.865,0,0,1-.788.2,2.5,2.5,0,0,1-1.329.426V20.011H19.685a0.39,0.39,0,0,1-.135.045v0.09a0.194,0.194,0,0,0-.022.112,0.385,0.385,0,0,1-.135-0.022v0.022a0.754,0.754,0,0,1,.068.4h0.608c0.027-.1.055-0.094,0.18-0.09a0.794,0.794,0,0,0,.631.09V20.549h0.18v0.067H20.923v0.045h0.428a0.064,0.064,0,0,1,.023-0.022A1.685,1.685,0,0,1,21.4,20.3l0.068-.022a5.042,5.042,0,0,1,.811-0.022c0.056,0.1.043,0.306,0.09,0.381a1.235,1.235,0,0,0,.473.022V20.616H22.7V20.572h0.18v0.09H23.2v-0.09a0.69,0.69,0,0,0,.158-0.022V20.5a0.372,0.372,0,0,1-.158-0.09,0.458,0.458,0,0,1,.428-0.112V20.258H23.221a0.732,0.732,0,0,1-.608-0.022,0.194,0.194,0,0,1-.023-0.112,0.081,0.081,0,0,0,.023-0.045h0.113a1.766,1.766,0,0,1,.721,0H23.9a0.688,0.688,0,0,1,.338-0.045,3.155,3.155,0,0,0,.743.067v0.291H24.55v0.179a0.133,0.133,0,0,1,.09,0c0.22,0.069.344,0.285,0.563,0.359a1.441,1.441,0,0,1,1.554.291,0.721,0.721,0,0,0,.113.336h0.383L27.23,21.4h0.113a0.946,0.946,0,0,1,.09-0.314,1.758,1.758,0,0,1,.473-0.022v0.067h0.158v0.045a0.894,0.894,0,0,1,0,.583H27.905v0.09l-0.2-.022v0.022a0.13,0.13,0,0,1,.09.112H27.86v0.09a0.476,0.476,0,0,0,.225.112v0.09c0.832-.015,1.975.347,2.14,0.964H30.18a0.087,0.087,0,0,0-.068-0.045v0.291c-0.277,0-.476.039-0.721,0.045v0.022h0.023a1.405,1.405,0,0,0,.811.09,1.529,1.529,0,0,1,.045.583,5.73,5.73,0,0,1,.45.583,0.132,0.132,0,0,1-.18.135,1.124,1.124,0,0,0-.27-0.336v0.448H30.248a0.152,0.152,0,0,1-.09.022,0.087,0.087,0,0,0-.068-0.045v0.022a2.132,2.132,0,0,1,.113.515h-0.09v0.045a2.741,2.741,0,0,0-.113.695,0.173,0.173,0,0,0-.135,0c-0.061.136-.171,0.258-0.225,0.381-0.036.082-.033,0.182-0.068,0.247-0.036-.021-0.068-0.081-0.09-0.045-0.105.071-.151,0.2-0.248,0.269a0.886,0.886,0,0,0-.135.067c-0.08.09,0.017,0.145-.135,0.179a0.107,0.107,0,0,0-.113-0.045c-0.1.1-.266,0.126-0.36,0.224a0.4,0.4,0,0,1-.113.179v0.022H28.356V27.745a0.237,0.237,0,0,0-.135-0.045,0.77,0.77,0,0,0-.36.247,0.113,0.113,0,0,0-.023.067,0.134,0.134,0,0,1-.09,0,0.262,0.262,0,0,1-.045-0.067,0.7,0.7,0,0,0-.45.269,0.114,0.114,0,0,0-.023.067,0.322,0.322,0,0,1-.18-0.067c-0.094.088-.258,0.1-0.36,0.179a0.325,0.325,0,0,1-.135.157,0.5,0.5,0,0,0-.158-0.045,2.926,2.926,0,0,0-.45.292h-0.09a0.108,0.108,0,0,0-.023-0.067,0.2,0.2,0,0,0-.113-0.022,1.643,1.643,0,0,1-.338.067,0.814,0.814,0,0,1-.315.157V28.866H25.023a1.692,1.692,0,0,0-.518.045,0.356,0.356,0,0,1-.18.09c-0.044-.162-0.295-0.122-0.5-0.112a0.447,0.447,0,0,1-.27.112,0.108,0.108,0,0,0-.023-0.067,0.081,0.081,0,0,0-.045-0.023,1.026,1.026,0,0,0-.7.09V28.91H22.748a1,1,0,0,0-.7.09V28.91H22a1,1,0,0,0-.7.09V28.91H21.261a1.072,1.072,0,0,0-.721.09V28.91H20.5a1.018,1.018,0,0,0-.7.09V28.91H19.752a0.861,0.861,0,0,0-.631.09V28.91a1.49,1.49,0,0,0-.405-0.022,0.4,0.4,0,0,1-.248.112V28.91a1.491,1.491,0,0,0-.405-0.022,0.481,0.481,0,0,1-.248.112V28.91H17.77a0.861,0.861,0,0,0-.631.09V28.91H17.095a0.816,0.816,0,0,0-.608.09V28.91a1.491,1.491,0,0,0-.405-0.022,0.481,0.481,0,0,1-.248.112V28.91a1.49,1.49,0,0,0-.405-0.022A0.48,0.48,0,0,1,15.18,29c-0.041-.154-0.237-0.122-0.428-0.112A0.4,0.4,0,0,1,14.5,29V28.91H14.46a0.8,0.8,0,0,0-.608.09V28.91H13.806A0.8,0.8,0,0,0,13.2,29V28.91H13.153a0.861,0.861,0,0,0-.631.09V28.91H12.478a0.8,0.8,0,0,0-.608.09V28.91H11.824a0.8,0.8,0,0,0-.608.09V28.91H11.171a0.79,0.79,0,0,0-.608.09c-0.041-.154-0.237-0.122-0.428-0.112A0.4,0.4,0,0,1,9.887,29V28.91H9.842a0.872,0.872,0,0,0-.631.09c0-.147-0.2-0.125-0.405-0.112A0.48,0.48,0,0,1,8.559,29V28.91H8.514a0.848,0.848,0,0,0-.631.09V28.91a1.491,1.491,0,0,0-.405-0.022,0.546,0.546,0,0,1-.27.112V28.91a1.582,1.582,0,0,0-.428-0.022A1.136,1.136,0,0,0,6.1,28.843V28.8a0.114,0.114,0,0,0,.023-0.067A3.053,3.053,0,0,1,5.7,28.507a0.394,0.394,0,0,1-.248-0.045,0.159,0.159,0,0,0,.045-0.09A1.488,1.488,0,0,0,4.865,28.1a0.556,0.556,0,0,0,0-.134l-0.383-.247c-0.16-.053-0.2.084-0.248-0.09,0.02-.038.02-0.029,0-0.067a1.215,1.215,0,0,0-.383-0.247A0.391,0.391,0,0,1,3.6,27.274a0.16,0.16,0,0,0,.045-0.09c-0.13-.072-0.237-0.206-0.36-0.269l-0.18-.022a0.155,0.155,0,0,1-.045-0.09c0.04-.042.042-0.018,0.023-0.067a2.689,2.689,0,0,0-.45-0.538V26.176c0.083-.023.079-0.015,0.09-0.112a2.868,2.868,0,0,1-.158-0.673H2.613V25.167c-0.059,0-.051.029-0.09-0.045A0.371,0.371,0,0,0,2.568,24.7a0.484,0.484,0,0,0-.225-0.022V24.181a2.024,2.024,0,0,1-.405-0.56l-0.023-.09H1.351v0.022c-0.023.022-.022-0.022-0.023-0.022a6.05,6.05,0,0,1-.541-0.986,3.531,3.531,0,0,1-.653-1.3A0.519,0.519,0,0,0,.653,20.8a0.15,0.15,0,0,1-.09-0.134H0.631V20.594a3.5,3.5,0,0,1-.293-0.269L0,20.347v-0.4a1.35,1.35,0,0,1,.788.224C0.9,20.25.988,20.5,1.081,20.549H1.419l0.023,0.112h0.27a0.612,0.612,0,0,0-.023-0.2H1.914v0.179a1.214,1.214,0,0,0,.338.022,1.993,1.993,0,0,1,.113-0.314,8.633,8.633,0,0,0,.968-0.022c0.221-.088.392-0.323,0.631-0.4v0.4l0.068,0.022L4.1,20.594H4.167a3.752,3.752,0,0,1,.023-0.672L4.437,19.9l0.023-.112H5.653a0.789,0.789,0,0,1,.36,0H7a0.351,0.351,0,0,1,.023.112,1.134,1.134,0,0,1,.248.022v0.045a1.084,1.084,0,0,0,.068.359V20.3a0.348,0.348,0,0,0,.068-0.314H7.523q0.011-3.082.023-6.164V11.9A3.5,3.5,0,0,1,7.568,11H7.613v2.376a1.344,1.344,0,0,1,.023.493v4.483a9.762,9.762,0,0,0,.023,1.636h0.09Zm7.41-3.9a0.118,0.118,0,0,1,0,.134V16.088Z"/>
</svg>
