<?xml version="1.0" encoding="utf-8"?>
<!-- Generator: Adobe Illustrator 16.0.0, SVG Export Plug-In . SVG Version: 6.00 Build 0)  -->
<!DOCTYPE svg PUBLIC "-//W3C//DTD SVG 1.1//EN" "http://www.w3.org/Graphics/SVG/1.1/DTD/svg11.dtd">
<svg version="1.1" id="Layer_1" xmlns="http://www.w3.org/2000/svg" xmlns:xlink="http://www.w3.org/1999/xlink" x="0px" y="0px"
	 width="39.969px" height="40px" viewBox="0 0 39.969 40" enable-background="new 0 0 39.969 40" xml:space="preserve">
<path id="Color_Fill_1" fill="#FFFFFF" d="M15.731,12.868h0.3c-0.026,0.113-0.026,0.229,0,0.343
	c0.223,0.354,0.581,0.602,0.991,0.686c-0.039-0.262-0.021-0.528,0.05-0.783c-0.078,0.324-0.005,0.667,0.2,0.931
	c0.109,0.048,0.229,0.063,0.347,0.049c-0.029-0.198-0.013-0.401,0.05-0.593v0.588l3.47,0.146v-0.1
	c0.013-0.172,0.064-0.34,0.149-0.49c-0.026,0.182-0.009,0.366,0.05,0.539c1.159,0.725,3.956,0.293,5.75,0.393
	c4.239,0.234,8.706,0.146,12.887,0.146v0.687c-5.947-0.007-12,0.141-18.041,0.147v0.153c-0.551,0.218-1.15,0.287-1.735,0.2
	c0.033,0.16,0.101,0.311,0.2,0.441c-0.165,0.013-0.313,0.104-0.4,0.244l0.149,0.049c-0.043,0.041-0.078,0.092-0.1,0.147
	c0.521,0.3,0.482,1.079,1.338,1.078l0.051-0.101c-0.102-0.01-0.191-0.063-0.248-0.146c0.242-0.274,0.578-0.449,0.941-0.49
	c0.111,0.088,0.227,0.17,0.348,0.245c-0.016-0.108,0.021-0.218,0.1-0.294c-0.002,0.145,0.051,0.285,0.148,0.393
	c0.067,0.16-0.238,0.248,0.101,0.44c0.372-0.096,0.761-0.112,1.14-0.049c0.855,0,1.585-0.105,2.479-0.101v-0.049
	c-0.153-0.192-0.131-0.471,0.05-0.637v0.049c0.184,0.199,0.351,0.412,0.5,0.637c0.122-0.066,0.261-0.101,0.399-0.1
	c0.03,0.078,0.047,0.161,0.051,0.245c-0.032,0.042-0.05,0.094-0.051,0.147c0.471,0.037,0.64,0.406,1.041,0.44
	c0.117-0.036,0.222-0.106,0.301-0.2h1.14v0.049h0.049c0.009,0.349,0.312,1.517,0.248,1.617c-0.178,0.188-0.378,0.352-0.595,0.49
	v0.049h0.049c0.408,0.573,0.695,1.224,0.843,1.911c0.056,0.524-0.049,1.055-0.3,1.519c-0.583,1.41-2.066,2.225-3.568,1.961
	c-0.822-0.17-1.559-0.62-2.082-1.274c-0.088-0.121-0.377-0.845-0.447-0.882H22.27c-0.339,1.024-1.182,1.803-2.23,2.058
	c-1.62,0.47-3.761-0.787-3.866-2.058h-1.879c-0.088,0.291-0.241,0.559-0.446,0.783c-1.091,1.476-3.171,1.787-4.646,0.696
	c-0.004-0.003-0.008-0.007-0.013-0.01c-0.285-0.224-0.535-0.487-0.743-0.784c-0.063-0.243-0.164-0.475-0.3-0.686H6.363
	c-0.112,0.346-0.298,0.664-0.545,0.931c-1.168,1.434-3.278,1.648-4.712,0.479c-0.015-0.013-0.031-0.025-0.046-0.039
	c-0.93-0.856-1.295-2.166-0.942-3.381c0.17-0.508,0.6-0.853,0.743-1.322c-0.279-0.088-0.5-0.305-0.592-0.582
	c0.167-0.491,0.267-1.002,0.3-1.52c0.488-0.056,0.983,0.014,1.437,0.2c0.116-0.089,0.309-0.065,0.446-0.147
	c0.277-0.264,0.667-0.374,1.041-0.293c0.081,0.024,0.216,0.171,0.3,0.199c0.492,0.059,0.99,0.04,1.476-0.057v-0.294h2.432
	c0.042-0.217,0.251-0.358,0.468-0.317c0.026,0.006,0.052,0.014,0.077,0.023c0.159,0.293,0.312,0.316,0.793,0.294
	c0.442-0.07,0.892-0.087,1.338-0.049v-0.05c-0.037-0.129-0.105-0.247-0.2-0.342c-0.096-0.097-0.215-0.166-0.347-0.201v-0.045
	c0.056-0.029,0.093-0.084,0.1-0.146h-0.1c-0.093,0.045-0.197,0.062-0.3,0.049v-0.1l0.149-0.1c-0.07-0.117-0.084-0.029-0.05-0.147
	c0.043-0.142,0.111-0.274,0.2-0.392H8.941c-0.625-0.386-1.961-0.115-2.23-0.834c-0.074-0.271-0.091-0.555-0.05-0.832
	c0.107-0.066,0.178-0.136,0.3-0.201v-0.139h-0.35V13.9h0.347V13.6c0.188-0.104,0.37-0.218,0.545-0.343h4.411
	c0.081,0.028,0.2,0.246,0.248,0.147c-0.014-0.304-0.082-0.603-0.2-0.882c0.064-0.026,0.131-0.042,0.2-0.049
	c0.05,0.082,0.118,0.15,0.2,0.2c0.043-0.142,0.11-0.274,0.2-0.392c-0.038-0.005-0.073-0.022-0.1-0.049
	c0.118,0.004,0.235-0.012,0.347-0.049v0.1c0,0-0.194,0.01-0.1,0.049h0.1c0.004,0.038,0.022,0.073,0.05,0.1
	c0.322-0.091,0.637-0.206,0.942-0.343c-0.122-0.064-0.034,0.021-0.1-0.1h0.644c0.212,0.129,0.448,0.212,0.694,0.245
	c0.144,0.075,0.256,0.252,0.4,0.343v-0.1c-0.183-0.391-0.317-0.802-0.4-1.225c-0.343-0.913-0.583-1.887-0.942-2.842
	c-0.713-1.9-1.207-3.9-1.933-5.831c-0.272-0.725-0.459-1.483-0.744-2.254C11.226-0.101,11.074-0.544,10.969-1h0.05v0.1l4.56,13.525
	l0.149-0.049v0.294L15.731,12.868z M7.503,13.357c-0.044,0.041-0.094,0.075-0.149,0.101v0.101c0.716,0.05,1.437-0.018,2.131-0.201
	H7.503z M9.684,13.357c0.125,0.068,0.275,0.068,0.4,0H9.684z M10.477,13.559h0.492v-0.201h-0.74v0.05h0.05
	c0.037,0.043,0.062,0.055,0.1,0.1c0.043-0.036,0.056-0.062,0.1-0.1v0.146L10.477,13.559z M11.22,13.357V13.6
	c0.281,0.064,0.576-0.01,0.793-0.199h-0.1c-0.225-0.063-0.461-0.077-0.692-0.043H11.22z M6.809,14.73
	c-0.056,0.273-0.072,0.554-0.05,0.832h0.05v0.05h0.1V14.73H6.809z M38.928,14.83v0.441c0.179,0.043,0.362,0.06,0.545,0.049
	l0.051-0.441c-0.195-0.046-0.396-0.063-0.596-0.051V14.83z M21.777,17.23l-0.248,0.293v0.295c0.146,0.039,0.297,0.056,0.447,0.049
	c0.047,0.012,0.019,0.038,0.049,0c0.132-0.098,0.248-0.213,0.348-0.344c-0.116-0.214-0.354-0.332-0.596-0.295V17.23z M26.586,17.475
	c0.002,0.101-0.016,0.2-0.05,0.295h0.3C26.797,17.641,26.706,17.534,26.586,17.475L26.586,17.475z M7.949,17.768
	c-0.021,0.044-0.057,0.079-0.1,0.101c0.122,0.067,0.265,0.085,0.4,0.049v-0.051C8.162,17.803,8.057,17.77,7.949,17.768z
	 M22.273,17.768l-0.049,0.147h0.045c0.024-0.041,0.059-0.075,0.1-0.101c-0.027-0.025-0.063-0.042-0.1-0.047H22.273z M19.251,17.915
	v0.101c0.08-0.028,0.168-0.028,0.248,0v-0.101H19.251L19.251,17.915z M26.982,17.915c-0.291,0.075-0.594,0.092-0.892,0.049v0.049
	c0.104,0.197,0.329,0.299,0.545,0.245C26.833,18.1,27.234,18.13,26.982,17.915z M21.783,18.016c0.027,0.025,0.063,0.043,0.1,0.049
	c-0.028-0.029-0.064-0.047-0.105-0.052L21.783,18.016z M24.212,18.064c0.091,0.062,0.21,0.062,0.3,0H24.212z M24.807,18.064
	c0.073,0.057,0.176,0.057,0.248,0h-0.253H24.807z M25.253,18.064c0.027,0.026,0.063,0.043,0.101,0.049
	c-0.029-0.028-0.066-0.047-0.105-0.051L25.253,18.064z"/>
</svg>
