<?xml version="1.0" encoding="utf-8"?>
<!-- Generator: Adobe Illustrator 16.0.0, SVG Export Plug-In . SVG Version: 6.00 Build 0)  -->
<!DOCTYPE svg PUBLIC "-//W3C//DTD SVG 1.1//EN" "http://www.w3.org/Graphics/SVG/1.1/DTD/svg11.dtd">
<svg version="1.1" id="Layer_1" xmlns="http://www.w3.org/2000/svg" xmlns:xlink="http://www.w3.org/1999/xlink" x="0px" y="0px"
	 width="40px" height="40px" viewBox="0 0 40 40" enable-background="new 0 0 40 40" xml:space="preserve">
<path id="fr_pzkpfw_V_panther_dauphine_ico" fill="#FFFFFF" d="M7.748,16.989c-0.015,0.109,0.009,0.22,0.068,0.313
	c0.068,0.008,0.135,0.023,0.2,0.045c0,0.114,0,0.166,0,0.314h0.25v-0.135c0.032-0.01,0.058-0.035,0.068-0.067h0.022v0.022
	c0.056,0.042,0.083,0.112,0.068,0.179h0.45c0.05-0.168,0.11-0.333,0.18-0.493c-0.002-0.176,0.028-0.351,0.09-0.515
	c0.081-0.009,0.057,0.011,0.09-0.045c0.028-0.049,0.05-0.102,0.066-0.157c-0.076-0.021-0.07-0.009-0.09-0.09
	c0.069-0.133,0.114-0.277,0.135-0.426c0.088,0,0.1,0.011,0.135-0.045c0.007-0.058,0.031-0.112,0.068-0.157
	c-0.111,0-0.116,0.007-0.135-0.09c0.068-0.133,0.114-0.277,0.135-0.426h0.114l0.068-0.2c-0.1-0.007-0.094,0-0.113-0.09
	c0.068-0.133,0.114-0.278,0.135-0.427h0.113c0.01-0.063,0.033-0.125,0.068-0.179H9.887C9.867,14.307,9.844,14.3,9.82,14.3
	c0.011-0.192,0.094-0.305,0.113-0.493h0.135l0.022-0.135c0.061-0.035,0.13-0.05,0.2-0.045c0.034,0.053,0.05,0.116,0.045,0.179
	c0.029,0.01,0.061,0.01,0.09,0c0.099-0.146,0.282-0.209,0.45-0.157c0.017-0.149,0.063-0.294,0.135-0.426l0.113-0.09
	c0.055-0.12,0-0.312,0.045-0.4h-0.09v-0.227h1.712v-0.09c0.027-0.02,0.058-0.035,0.09-0.045c0.029,0.039,0.044,0.086,0.045,0.134
	h1.667v0.225H14.55c-0.027,0.017-0.058,0.024-0.09,0.022v0.359c0.117,0.118,0.216,0.253,0.293,0.4
	c0.051,0.02,0.104,0.035,0.158,0.045c-0.029,0.012-0.017,0-0.023,0.022c0.027,0.017,0.058,0.024,0.09,0.022L15,13.783h0.18v0.157
	c0.09-0.002,0.181,0.005,0.27,0.022c0.022-0.088,0.03-0.179,0.023-0.269c0.242,0.026,0.482,0.064,0.743,0.067
	c0.019-0.073-0.011-0.034,0.045-0.067c0.098,0.049,0.211,0.057,0.315,0.023v0.09l0.315,0.022v-0.09c0.118,0.033,0.242,0.033,0.36,0
	v0.135c0.101,0.006,0.2,0.029,0.293,0.067c0-0.06,0.008-0.121,0.023-0.179h0.045c0.099,0.048,0.211,0.056,0.315,0.022l-0.023,0.179
	l0.158-0.022l0.023-0.112c0.036-0.014,0.074-0.021,0.113-0.022c0.133,0.031,0.271,0.031,0.405,0v0.224l0.293-0.022v0.247l0.2,0.067
	v-0.113h0.27v0.179c0.009,0.006,0.017,0.014,0.023,0.023c0.153,0.007,0.305,0.038,0.45,0.09V14.3
	c0.307,0.033,0.601,0.141,0.856,0.314c0.07,0.059,0.145,0.111,0.225,0.157l0.946,0.224c0.014,0.094,0.044,0.185,0.09,0.269
	c0.153,0.048,0.313,0.063,0.474,0.045c0.254,0.023,0.588,0.022,0.877,0.022l3.469,0.022l10.699,0.112
	c0.013-0.024,0.027-0.046,0.045-0.067l0.563-0.023l0.022-0.045c0.09,0.014,0.18,0.021,0.271,0.022
	c0.133-0.035,0.3-0.126,0.429-0.157c0.072-0.007,0.146,0.017,0.199,0.067h0.766c0.191,0.215,0.244,0.52,0.136,0.785
	c-0.017,0.084-0.077,0.152-0.158,0.179c-0.255,0.025-0.511,0.032-0.767,0.022c-0.027,0.024-0.058,0.047-0.09,0.067
	c-0.217-0.034-0.428-0.094-0.631-0.179c-0.24,0.01-0.481,0.003-0.721-0.021c-0.018-0.005-0.057-0.063-0.068-0.067L35.2,16.07
	c-2.859,0-5.742,0.031-8.581,0.09l-2.973,0.022c-0.579-0.039-1.16-0.016-1.734,0.067c0.033,0.095,0.007,0.201-0.068,0.269
	c-0.255,0.094-0.519,0.161-0.787,0.2c-0.395,0.266-0.855,0.413-1.33,0.426v-0.133h-0.042c-0.042,0.023-0.088,0.039-0.135,0.045v0.09
	c-0.018,0.034-0.026,0.073-0.022,0.112c-0.046,0.001-0.091-0.006-0.135-0.022v0.022c0.059,0.125,0.082,0.264,0.068,0.4h0.608
	c0.027-0.1,0.055-0.094,0.18-0.09c0.188,0.116,0.417,0.148,0.631,0.09v-0.109h0.181v0.067h-0.138v0.045h0.429
	c0.005-0.009,0.014-0.017,0.022-0.022c-0.003-0.113,0.006-0.227,0.026-0.339l0.067-0.022c0.27-0.029,0.541-0.036,0.812-0.022
	c0.056,0.1,0.043,0.307,0.09,0.381c0.154,0.038,0.315,0.045,0.473,0.022v-0.043H22.7v-0.044h0.18v0.09h0.32v-0.09
	c0.054-0.002,0.106-0.009,0.157-0.022V17.5c-0.059-0.017-0.113-0.047-0.157-0.09c0.114-0.108,0.275-0.151,0.428-0.112v-0.04h-0.407
	c-0.195,0.082-0.418,0.073-0.607-0.022c-0.02-0.034-0.027-0.073-0.023-0.112c0.013-0.012,0.021-0.028,0.023-0.045h0.113
	c0.237-0.05,0.482-0.05,0.721,0H23.9c0.106-0.043,0.223-0.059,0.338-0.045c0.244,0.052,0.493,0.074,0.742,0.067v0.291H24.55v0.179
	c0.029-0.011,0.062-0.011,0.091,0c0.219,0.069,0.344,0.284,0.563,0.358c0.529-0.221,1.141-0.106,1.554,0.291
	c0.009,0.12,0.048,0.235,0.113,0.336h0.383L27.23,18.4h0.112c0.012-0.109,0.042-0.216,0.091-0.314
	c0.155-0.028,0.314-0.036,0.473-0.021v0.066h0.158v0.045c0.064,0.189,0.064,0.395,0,0.583h-0.159v0.091l-0.2-0.022v0.022
	c0.05,0.016,0.085,0.06,0.09,0.111h0.064v0.09c0.064,0.057,0.143,0.096,0.226,0.112v0.09c0.832-0.015,1.976,0.347,2.14,0.964H30.18
	c-0.014-0.025-0.039-0.042-0.068-0.045v0.291c-0.276,0-0.476,0.039-0.721,0.045v0.022h0.023c0.256,0.109,0.537,0.141,0.811,0.09
	c0.053,0.189,0.068,0.388,0.045,0.583c0.163,0.185,0.313,0.379,0.45,0.583c0.007,0.072-0.046,0.137-0.119,0.144
	c-0.021,0.002-0.041-0.001-0.061-0.009c-0.067-0.128-0.159-0.242-0.271-0.336v0.448h-0.021c-0.027,0.017-0.059,0.023-0.09,0.021
	c-0.014-0.025-0.039-0.042-0.068-0.045v0.022c0.059,0.166,0.097,0.339,0.113,0.515h-0.09v0.045
	c-0.068,0.227-0.105,0.459-0.113,0.695c-0.043-0.019-0.092-0.019-0.135,0c-0.061,0.136-0.172,0.258-0.225,0.381
	c-0.037,0.082-0.033,0.182-0.068,0.247c-0.036-0.021-0.068-0.081-0.09-0.045c-0.105,0.071-0.151,0.2-0.248,0.269
	c-0.047,0.019-0.092,0.041-0.135,0.067c-0.08,0.09,0.017,0.146-0.136,0.179c-0.024-0.037-0.069-0.055-0.112-0.045
	c-0.101,0.1-0.267,0.126-0.36,0.225c-0.021,0.068-0.06,0.13-0.113,0.179v0.022h-0.022v-0.021c-0.039-0.028-0.086-0.044-0.135-0.045
	c-0.141,0.046-0.266,0.132-0.359,0.247c-0.016,0.02-0.023,0.043-0.023,0.066c-0.029,0.011-0.061,0.011-0.09,0
	c-0.019-0.02-0.033-0.042-0.045-0.066c-0.18,0.027-0.341,0.124-0.45,0.269c-0.015,0.02-0.022,0.043-0.022,0.067
	c-0.066-0.004-0.129-0.027-0.181-0.067c-0.094,0.088-0.258,0.101-0.36,0.179c-0.026,0.066-0.074,0.121-0.135,0.157
	c-0.049-0.023-0.104-0.038-0.158-0.045c-0.158,0.083-0.309,0.181-0.449,0.292h-0.09c0-0.024-0.008-0.048-0.023-0.066
	c-0.035-0.019-0.074-0.026-0.113-0.022c-0.109,0.034-0.223,0.057-0.338,0.067c-0.092,0.074-0.199,0.128-0.314,0.156v-0.067h-0.045
	c-0.174-0.012-0.35,0.003-0.519,0.045c-0.05,0.046-0.112,0.077-0.18,0.09c-0.044-0.162-0.295-0.122-0.5-0.112
	c-0.075,0.066-0.17,0.106-0.271,0.112c0-0.024-0.008-0.048-0.022-0.067c-0.013-0.012-0.028-0.02-0.046-0.022
	c-0.236-0.054-0.484-0.022-0.699,0.09V25.91h-0.039c-0.236-0.057-0.485-0.024-0.7,0.09v-0.09H22c-0.236-0.057-0.485-0.024-0.7,0.09
	v-0.09h-0.039c-0.243-0.055-0.498-0.023-0.721,0.09v-0.09H20.5c-0.236-0.055-0.485-0.022-0.7,0.09v-0.09h-0.048
	c-0.214-0.052-0.44-0.02-0.631,0.09v-0.09c-0.133-0.025-0.27-0.033-0.405-0.022c-0.067,0.065-0.155,0.104-0.248,0.112v-0.09
	c-0.133-0.025-0.27-0.033-0.405-0.022c-0.07,0.061-0.156,0.1-0.248,0.112v-0.09H17.77c-0.214-0.052-0.44-0.02-0.631,0.09v-0.09
	h-0.044c-0.207-0.051-0.425-0.019-0.608,0.09v-0.09c-0.133-0.025-0.27-0.033-0.405-0.022c-0.07,0.061-0.156,0.1-0.248,0.112v-0.09
	c-0.133-0.025-0.27-0.033-0.405-0.022c-0.071,0.062-0.157,0.1-0.249,0.112c-0.041-0.154-0.237-0.122-0.428-0.112
	C14.684,25.954,14.595,25.994,14.5,26v-0.09h-0.04c-0.207-0.053-0.425-0.02-0.608,0.09v-0.09h-0.046
	C13.6,25.858,13.382,25.891,13.2,26v-0.09h-0.047c-0.214-0.052-0.44-0.02-0.631,0.09v-0.09h-0.044
	c-0.207-0.053-0.425-0.02-0.608,0.09v-0.09h-0.046c-0.207-0.053-0.426-0.02-0.608,0.09v-0.09h-0.045
	c-0.207-0.054-0.426-0.021-0.608,0.09c-0.041-0.154-0.237-0.122-0.428-0.112C10.068,25.953,9.98,25.992,9.887,26v-0.09H9.842
	C9.628,25.859,9.402,25.892,9.211,26c0-0.146-0.2-0.125-0.405-0.112c-0.07,0.061-0.156,0.1-0.247,0.112v-0.09H8.514
	C8.3,25.857,8.074,25.889,7.883,26v-0.09c-0.133-0.025-0.27-0.033-0.405-0.022C7.4,25.949,7.307,25.988,7.208,26v-0.09
	c-0.141-0.027-0.285-0.034-0.428-0.022c-0.217-0.084-0.454-0.1-0.68-0.045V25.8c0.015-0.019,0.022-0.042,0.023-0.067
	c-0.146-0.063-0.288-0.139-0.423-0.226c-0.085,0.013-0.173-0.003-0.248-0.045c0.024-0.024,0.04-0.056,0.045-0.09
	c-0.187-0.139-0.403-0.231-0.632-0.272c0.005-0.044,0.005-0.089,0-0.134l-0.383-0.247c-0.16-0.053-0.2,0.084-0.248-0.09
	c0.02-0.038,0.02-0.029,0-0.066c-0.111-0.106-0.241-0.189-0.383-0.248C3.765,24.33,3.677,24.315,3.6,24.273
	c0.024-0.023,0.04-0.056,0.045-0.09c-0.13-0.071-0.237-0.205-0.36-0.269l-0.18-0.022c-0.024-0.023-0.041-0.056-0.045-0.09
	c0.04-0.042,0.042-0.018,0.023-0.066c-0.126-0.198-0.277-0.379-0.45-0.538v-0.022c0.083-0.023,0.079-0.015,0.09-0.111
	c-0.08-0.218-0.133-0.443-0.158-0.674h0.048v-0.224c-0.059,0-0.051,0.029-0.09-0.045c0.102-0.117,0.12-0.286,0.045-0.422
	c-0.072-0.025-0.149-0.032-0.225-0.022v-0.496C2.177,21.02,2.04,20.83,1.938,20.621l-0.023-0.09H1.351v0.021
	c-0.023,0.022-0.022-0.021-0.023-0.021c-0.211-0.312-0.392-0.642-0.541-0.986c-0.306-0.383-0.528-0.826-0.653-1.3
	c0.26,0.003,0.482-0.188,0.519-0.445c-0.053-0.023-0.088-0.075-0.09-0.134h0.068v-0.072c-0.103-0.084-0.2-0.174-0.293-0.269
	L0,17.347v-0.4c0.279-0.009,0.555,0.069,0.788,0.224c0.112,0.079,0.2,0.329,0.293,0.378h0.338l0.023,0.112h0.27
	c0.003-0.067-0.004-0.136-0.023-0.2h0.225v0.18c0.111,0.022,0.225,0.029,0.338,0.021c0.029-0.107,0.066-0.213,0.113-0.314
	c0.323,0.011,0.646,0.003,0.968-0.022c0.221-0.088,0.392-0.323,0.631-0.4v0.4l0.068,0.022L4.1,17.594h0.067
	c-0.013-0.224-0.005-0.449,0.023-0.672L4.437,16.9l0.023-0.112h1.193c0.119-0.028,0.242-0.028,0.36,0H7
	c0.014,0.036,0.021,0.074,0.023,0.112c0.083-0.001,0.167,0.006,0.248,0.022v0.045c0.002,0.123,0.025,0.244,0.068,0.359V17.3
	c0.073-0.087,0.098-0.204,0.068-0.314h0.116c0.007-2.055,0.015-4.109,0.023-6.164V8.9C7.515,8.601,7.522,8.298,7.568,8h0.045v2.376
	c0.038,0.162,0.046,0.329,0.023,0.493v4.483c-0.038,0.545-0.03,1.092,0.023,1.636L7.748,16.989L7.748,16.989z M15.158,13.089
	c0.027,0.041,0.027,0.094,0,0.134V13.089L15.158,13.089z"/>
</svg>
