<svg xmlns="http://www.w3.org/2000/svg" width="40" height="40" viewBox="0 0 40 40">
  <defs>
    <style>
      .cls-1 {
        fill: #fff;
        fill-rule: evenodd;
      }
    </style>
  </defs>
  <path id="Color_Fill_1" data-name="Color Fill 1" class="cls-1" d="M14.976,19.182a2.509,2.509,0,0,1-.145-0.722h0.242c0.054,0.162.055,0.16,0.242,0.193a1.512,1.512,0,0,1,.193-0.433s-0.189-.009-0.1-0.048h0.1a0.525,0.525,0,0,1,.29-0.048V18.17a0.21,0.21,0,0,0-.145.144,1.961,1.961,0,0,0,.531.048L17,17.978c-0.157-.04-0.074.024-0.145-0.1a2.729,2.729,0,0,1,2.174.77c0.117-.044.077-0.052,0.193-0.1-0.012.1,0.044,0.072,0.048,0.385a1.472,1.472,0,0,0,.338-0.048v0.289a0.245,0.245,0,0,0-.048.144,2.767,2.767,0,0,0,.628.53c0.256,0.1.581,0.062,0.821,0.144a2.48,2.48,0,0,1,.1-0.867V20h0.1a1.083,1.083,0,0,1,.048-0.53L21.3,20.048a7.661,7.661,0,0,1,1.5.289c0.678,0.172,1.377.225,1.981,0.385s1.44-.25,1.594.337a0.244,0.244,0,0,1,.048.144c2.831,0,5.836.048,8.744,0.048a5.124,5.124,0,0,0,1.739-.145,2.672,2.672,0,0,1,1.3.1,2.34,2.34,0,0,0,.725-0.048,4.855,4.855,0,0,1,1.063.1v0.722a12.513,12.513,0,0,0-1.836.048,3.685,3.685,0,0,1-1.256.048,4.725,4.725,0,0,0-1.159-.145H27.73a7.31,7.31,0,0,1-1.3.1l-0.048.241a6.731,6.731,0,0,1-2.85.289V22.6a1.92,1.92,0,0,1,.87.819,0.166,0.166,0,0,0-.1.048h0.435a5.6,5.6,0,0,0,1.449.048,0.417,0.417,0,0,1,.242-0.482c0.464-.285.439,0.24,0.58,0.337H27.44v0.193a21.7,21.7,0,0,1,3.333.048,11.331,11.331,0,0,0,1.16,0,1.6,1.6,0,0,1,.773-0.1c0.419,0.118.667,0.416,1.159,0.53,0.242-.344,1.058-0.253,1.642-0.241a20.391,20.391,0,0,0,.338,2.022l-0.725.578v0.048h0.048a6.251,6.251,0,0,1,.966,1.974,2.792,2.792,0,0,1-.048,1.252,3.732,3.732,0,0,1-2.416,2.985,3.243,3.243,0,0,1-1.836.289,4.28,4.28,0,0,1-2.705-1.541C29.053,31.3,28.6,30.3,28.6,30.3H26.473a3.845,3.845,0,0,1-3.14,2.6,2.433,2.433,0,0,1-.87-0.048l-0.676-.048a3.994,3.994,0,0,1-2.126-1.589,1.819,1.819,0,0,1-.483-0.915H17a3.957,3.957,0,0,1-5.121,2.359,5.325,5.325,0,0,1-1.014-.578A4.282,4.282,0,0,1,9.9,30.93,2.079,2.079,0,0,0,9.662,30.3H7.585a4.194,4.194,0,0,1-2.174,2.359A4.03,4.03,0,0,1,.483,31.026,4.382,4.382,0,0,1,.29,27.511a12.153,12.153,0,0,0,.725-1.155A1.429,1.429,0,0,1,.29,25.73,10.863,10.863,0,0,0,.676,23.8H1.932c0.772,0.631,1.091-.577,2.126-0.289,0.143,0.04.308,0.2,0.435,0.241a8.68,8.68,0,0,0,2.271-.1,1.418,1.418,0,0,0,.435.1,10.942,10.942,0,0,1,1.546-.1V23.37H9.13a0.474,0.474,0,0,1,.58-0.385,0.174,0.174,0,0,0,.1.048c0.061,0.113.109,0.358,0.193,0.482a0.247,0.247,0,0,1,.145-0.048c0.005,0.183-.048.132,0.193,0.144a0.327,0.327,0,0,1,.193-0.048,0.187,0.187,0,0,1,.145-0.1V23.322a1.78,1.78,0,0,0,.338-0.1,0.736,0.736,0,0,0,.676.1V23.274h0.048V23.226H11.691a1.709,1.709,0,0,0-.338-0.433,0.99,0.99,0,0,1,.483-1.107c0.322-.229,1.332-0.016,1.546-0.337,0.165-.226.255-1.388,0.386-1.733a0.624,0.624,0,0,0,.386-0.144c-0.173-.02-0.122.023-0.193-0.1a0.907,0.907,0,0,0,0-.867c-0.2-.7-0.268-1.467-0.483-2.215-0.515-1.79-.686-3.695-1.208-5.537-0.2-.7-0.271-1.463-0.483-2.215A6.992,6.992,0,0,1,11.449,7H11.5V7.048l2.754,12.23H14.3A1.575,1.575,0,0,1,14.976,19.182Zm0.87-.337a0.174,0.174,0,0,0,.1.048A0.175,0.175,0,0,0,15.845,18.844Zm3.188,0a0.174,0.174,0,0,0,.1.048A0.175,0.175,0,0,0,19.034,18.844Zm20.242,2.937h0.193a1.032,1.032,0,0,0,.048-0.337H39.469V21.4a0.3,0.3,0,0,0-.145.048A0.635,0.635,0,0,0,39.275,21.782ZM38.5,21.444v0.337H38.7v-0.1a0.325,0.325,0,0,0,.048-0.193A0.763,0.763,0,0,0,38.5,21.444Zm-27.15,1.444a0.245,0.245,0,0,1,.048.144H11.353V22.889Zm-1.546.722a1.46,1.46,0,0,0-.048-0.337,0.558,0.558,0,0,0-.338-0.1,0.635,0.635,0,0,0-.1.385,0.173,0.173,0,0,1,.048.1h0.1A0.64,0.64,0,0,1,9.807,23.611Zm16.57-.1h0.435V23.274a0.558,0.558,0,0,0-.338-0.1,0.3,0.3,0,0,1-.1.1v0.241Zm-2.754-.1a0.487,0.487,0,0,0,.435,0H23.623Zm-13.672.144a0.174,0.174,0,0,0,.1.048A0.174,0.174,0,0,0,9.952,23.563Z" transform="translate(0 0.016)"/>
</svg>
