<svg xmlns="http://www.w3.org/2000/svg" width="40" height="40" viewBox="0 0 40 40">
  <defs>
    <style>
      .cls-1 {
        fill: #fff;
        fill-rule: evenodd;
      }
    </style>
  </defs>
  <path id="fr_renault_r39_ico" class="cls-1" d="M24.5,12.591H24.6V12.75a2.464,2.464,0,0,1,.647.023c0.2,0.058.4,0.2,0.6,0.25A1.333,1.333,0,0,0,26.028,13a0.614,0.614,0,0,1,.092.136,3.721,3.721,0,0,0,.831.273c0.011-.011.184-0.136,0.185-0.136a0.75,0.75,0,0,1,.139.023,0.427,0.427,0,0,1,.462-0.136,0.308,0.308,0,0,1,.208.364,0.065,0.065,0,0,0-.023.023,0.56,0.56,0,0,0-.254-0.136,0.4,0.4,0,0,0-.069.091c-0.107.16,0.044,0.249,0.092,0.386l0.046,0.523h0.3a0.408,0.408,0,0,0,.023-0.136,0.916,0.916,0,0,1,.462.045,0.152,0.152,0,0,0-.023.091h3.464V14.25a4.228,4.228,0,0,1,.739.023,1.214,1.214,0,0,1,.185.5h2.864a1.921,1.921,0,0,1,.023.523H32.887a0.407,0.407,0,0,1-.023.2,0.179,0.179,0,0,1-.208.159,1.838,1.838,0,0,1-.647.023H30.323v0.159l-0.346-.023a1.2,1.2,0,0,1-.046.364A5.08,5.08,0,0,1,27.9,16.3a2.377,2.377,0,0,1-.023.614,0.937,0.937,0,0,1-.277.045,0.975,0.975,0,0,1-.023.3c0.166,0.014.059,0.042,0.139,0.091a1.515,1.515,0,0,0,.3.023h0.323a0.586,0.586,0,0,0,.046.091h0.3c0.26,0.056.6-.013,0.855,0.068a2.734,2.734,0,0,0,.369.227,0.4,0.4,0,0,1,.277-0.068,0.459,0.459,0,0,1,.185.159,2.393,2.393,0,0,1,.3.864,1.686,1.686,0,0,1-.023.273,1.6,1.6,0,0,0,.231.341,0.82,0.82,0,0,0,.185.523V19.818a0.269,0.269,0,0,0,.115-0.136,0.467,0.467,0,0,0,.254.046c0.031-.014.018-0.076,0.092-0.068a1.42,1.42,0,0,1,.208.091c0.185,0.067.448,0.142,0.67,0.2l0.808,0.023A3.83,3.83,0,0,0,33.9,20q0.783,0,1.5-.046a2.175,2.175,0,0,0,.069-0.341c0-.018-0.063-0.073-0.069-0.091A0.862,0.862,0,0,1,35.52,18.7a0.57,0.57,0,0,1,.254-0.023,0.366,0.366,0,0,1,.092.2,0.962,0.962,0,0,1-.069.75,2.123,2.123,0,0,0,.046.341h1.5a2.586,2.586,0,0,1,.97-0.046,3.523,3.523,0,0,1,.785.318,0.732,0.732,0,0,1,.624.636,2.331,2.331,0,0,0-.577.3h0.023a0.671,0.671,0,0,1,.092.114,0.415,0.415,0,0,0,0,.409l0.323-.023a0.171,0.171,0,0,1,.023.114,0.484,0.484,0,0,0-.069.386h0.115a0.407,0.407,0,0,1,.185.068,0.193,0.193,0,0,1,.023.114l-0.115.023a1.511,1.511,0,0,1-.046.318,1,1,0,0,0,.277.091L40,22.955H39.861a1.072,1.072,0,0,0-.092.318,0.359,0.359,0,0,1,.231.182,0.082,0.082,0,0,0-.023.046,0.264,0.264,0,0,0-.277.273c0.033,0.032.036,0.106,0.069,0.136,0.069,0.063.082-.025,0.115,0.091a0.152,0.152,0,0,0-.023.091L39.7,24.068a1.5,1.5,0,0,1-.208.2,1.582,1.582,0,0,1,.115.273,0.1,0.1,0,0,1-.092.091c-0.1-.119-0.316.041-0.346,0.136-0.024.073,0.114,0.2,0.069,0.227l-0.069.091A0.177,0.177,0,0,1,39.076,25c-0.164.051-.316,0.06-0.323,0.273a0.229,0.229,0,0,1,.023.114,0.807,0.807,0,0,1-.069.068,0.194,0.194,0,0,1-.092-0.091,0.543,0.543,0,0,0-.37.068,0.807,0.807,0,0,0,.023.25L38.2,25.7a0.119,0.119,0,0,1-.069.023c-0.04-.078-0.041-0.087-0.162-0.091a0.373,0.373,0,0,0-.254,0,1.4,1.4,0,0,1-.046.2c0.029,0.047.052,0,.069,0.091l-0.069.023a0.119,0.119,0,0,1-.069.023c-0.045-.088-0.069-0.095-0.208-0.091a0.23,0.23,0,0,0-.185,0,0.413,0.413,0,0,0-.023.136,0.8,0.8,0,0,0,0,.159,0.157,0.157,0,0,1-.115.046,0.349,0.349,0,0,0-.439-0.091,0.965,0.965,0,0,1,0,.273,0.157,0.157,0,0,1-.115.045,0.356,0.356,0,0,0-.439-0.091c0.016,0.063.012,0.2,0.023,0.3l-0.139.023a0.065,0.065,0,0,0-.023-0.023V26.591a1.259,1.259,0,0,0-.416,0,0.287,0.287,0,0,1-.023.182,0.29,0.29,0,0,1,.046.114l-0.139.023a0.339,0.339,0,0,0-.347-0.114l-0.092.023a1.638,1.638,0,0,1,.023.3H34.942a0.158,0.158,0,0,1-.092.023c-0.022-.077-0.009-0.071-0.092-0.091a0.327,0.327,0,0,0-.3,0,0.462,0.462,0,0,0-.023.3,0.177,0.177,0,0,1-.115.023,0.166,0.166,0,0,0-.115-0.091,0.189,0.189,0,0,0-.323.159,0.221,0.221,0,0,0,.023.136,0.309,0.309,0,0,1-.139.023,0.443,0.443,0,0,1-.046-0.091l-0.3-.046a0.265,0.265,0,0,1-.069.046,0.6,0.6,0,0,0,0,.3H33.3a0.456,0.456,0,0,1-.092.045,0.25,0.25,0,0,0-.092-0.136,2.476,2.476,0,0,0-.346-0.023c-0.017.127-.078,0.089-0.139,0.159a0.176,0.176,0,0,1,0,.091v0.046H32.517V27.864a0.594,0.594,0,0,0-.346-0.159,0.811,0.811,0,0,0-.092.3H31.94a0.4,0.4,0,0,0-.023-0.136A0.5,0.5,0,0,0,31.57,27.7a0.877,0.877,0,0,1-.115.273V28H31.34a0.149,0.149,0,0,0-.046-0.136A0.427,0.427,0,0,0,30.97,27.7a0.406,0.406,0,0,1-.092.136c-0.062.127,0.049,0.151-.139,0.159a0.355,0.355,0,0,0-.37-0.3,1.076,1.076,0,0,1-.092.136c-0.062.127,0.049,0.15-.139,0.159l-0.023-.136a0.594,0.594,0,0,0-.346-0.159,0.809,0.809,0,0,0-.092.3H29.538a0.243,0.243,0,0,0-.023-0.136,0.5,0.5,0,0,0-.346-0.159,0.875,0.875,0,0,1-.116.273V28H28.938a0.149,0.149,0,0,0-.046-0.136,0.427,0.427,0,0,0-.323-0.159,1.076,1.076,0,0,1-.092.136c-0.061.127,0.049,0.15-.139,0.159a0.355,0.355,0,0,0-.369-0.3,1.087,1.087,0,0,1-.092.136c-0.062.127,0.049,0.15-.139,0.159l-0.023-.136a0.594,0.594,0,0,0-.346-0.159,0.811,0.811,0,0,0-.092.3H27.136l-0.023-.159a1.026,1.026,0,0,0-.346-0.136,0.877,0.877,0,0,1-.115.273V28H26.536a0.355,0.355,0,0,0-.369-0.3,1.087,1.087,0,0,1-.092.136c-0.062.127,0.049,0.15-.139,0.159a0.365,0.365,0,0,0-.37-0.3,1.076,1.076,0,0,1-.092.136c-0.062.127,0.049,0.15-.139,0.159a0.477,0.477,0,0,0-.254-0.3H24.965a0.809,0.809,0,0,0-.092.3H24.734a0.49,0.49,0,0,0-.254-0.3H24.365a0.875,0.875,0,0,1-.115.273V28H24.134a0.365,0.365,0,0,0-.37-0.3,1.087,1.087,0,0,1-.092.136c-0.062.127,0.049,0.15-.139,0.159a0.365,0.365,0,0,0-.369-0.3,1.087,1.087,0,0,1-.092.136c-0.062.127,0.049,0.15-.139,0.159a0.36,0.36,0,0,0-.369-0.3,0.811,0.811,0,0,0-.092.3H22.333a0.365,0.365,0,0,0-.37-0.3,0.877,0.877,0,0,1-.115.273V28H21.732a0.365,0.365,0,0,0-.369-0.3,1.076,1.076,0,0,1-.092.136c-0.062.127,0.049,0.15-.139,0.159a0.365,0.365,0,0,0-.369-0.3,1.076,1.076,0,0,1-.092.136c-0.061.127,0.049,0.15-.139,0.159a0.365,0.365,0,0,0-.369-0.3,0.809,0.809,0,0,0-.092.3H19.931a0.365,0.365,0,0,0-.37-0.3,0.809,0.809,0,0,0-.092.3H19.33a0.365,0.365,0,0,0-.37-0.3,0.811,0.811,0,0,0-.092.3H18.73a0.365,0.365,0,0,0-.37-0.3,0.715,0.715,0,0,0-.092.3H18.129a0.477,0.477,0,0,0-.254-0.3H17.76a3.072,3.072,0,0,0-.092.3H17.529a0.459,0.459,0,0,0-.254-0.3H17.159a1.783,1.783,0,0,0-.092.3H16.928a0.149,0.149,0,0,0-.046-0.136,0.427,0.427,0,0,0-.323-0.159c-0.02.114-.074,0.165-0.092,0.3H16.328a0.487,0.487,0,0,0-.046-0.159,0.631,0.631,0,0,0-.323-0.136c-0.02.114-.074,0.165-0.092,0.3H15.751a0.065,0.065,0,0,0-.023-0.023,0.188,0.188,0,0,0-.023-0.114,0.494,0.494,0,0,0-.323-0.159l-0.116.3H15.15a0.729,0.729,0,0,0-.046-0.136,0.494,0.494,0,0,0-.323-0.159c-0.04.1-.074,0.186-0.115,0.3a0.43,0.43,0,0,0-.139-0.023V27.841a0.953,0.953,0,0,0-.37-0.159,0.237,0.237,0,0,1-.254.25V27.8a1.017,1.017,0,0,0-.346-0.182,0.709,0.709,0,0,0-.092.273H13.3V27.75a0.626,0.626,0,0,0-.346-0.182,0.709,0.709,0,0,0-.092.273,0.715,0.715,0,0,1-.162-0.023,0.4,0.4,0,0,0-.254-0.3H12.333a0.291,0.291,0,0,1-.092.136v0.114H12.055a0.38,0.38,0,0,1,.023-0.136,1.243,1.243,0,0,0-.323-0.159c-0.036-.028-0.012-0.015-0.046,0-0.046.041-.1,0.091-0.139,0.136a0.194,0.194,0,0,1,.023.114L11.409,27.7V27.568a0.615,0.615,0,0,0-.346-0.159,0.359,0.359,0,0,1-.092.114c-0.067.119,0.009,0.139-.185,0.136V27.523a1.017,1.017,0,0,0-.346-0.182,0.266,0.266,0,0,1-.254.25,0.411,0.411,0,0,0-.323-0.364,0.367,0.367,0,0,1-.254.227,0.085,0.085,0,0,0-.046-0.023,0.329,0.329,0,0,0-.254-0.386,0.518,0.518,0,0,1-.254.159,0.36,0.36,0,0,1-.092-0.114c0.03-.03.076-0.068,0.046-0.091a0.283,0.283,0,0,0-.277-0.3,0.156,0.156,0,0,1-.162.068A0.116,0.116,0,0,1,8.5,26.659a0.323,0.323,0,0,0-.023-0.409,1.7,1.7,0,0,0-.277.023,0.237,0.237,0,0,1-.092-0.136,0.284,0.284,0,0,0,.139-0.3,6.758,6.758,0,0,1-2.286-.455,12.445,12.445,0,0,1-3.233-1.477c-0.33-.227-0.624-0.51-0.947-0.75-0.128-.1-0.21-0.25-0.346-0.341v0.659H1.247V22.614a1.5,1.5,0,0,1-.3-0.364,5.031,5.031,0,0,1-.855-1.636A0.979,0.979,0,0,1,.115,19.75,0.54,0.54,0,0,1,.277,19.7c0.033,0.2.157,0.125,0.023,0.341H0.577A0.778,0.778,0,0,1,.9,20.023a1.011,1.011,0,0,0,.023-0.3A0.3,0.3,0,0,1,.9,19.568H0.831V19.523c0.078-.03.067-0.035,0.069-0.136a2.065,2.065,0,0,1-.069-0.318,3.683,3.683,0,0,0,.416-0.046v0.068a0.749,0.749,0,0,0-.023.409c0.073,0,.043-0.032.069,0.046a0.461,0.461,0,0,0,0,.432h0.37a2.866,2.866,0,0,1,.693-0.046c0.669-.144,1.455-0.016,2.125-0.159a6.552,6.552,0,0,1,.739-0.045,0.53,0.53,0,0,0,.393-0.068c-0.2-.046-0.2-0.182-0.185-0.432A0.879,0.879,0,0,1,5.4,18.864a0.206,0.206,0,0,0,.208-0.136l2.61-.182v0.068l0.231,0.068a6.436,6.436,0,0,1,.046.7,0.616,0.616,0,0,0-.208.159H8.36a0.707,0.707,0,0,1,.3-0.023V19.455a4.416,4.416,0,0,0,1.64-.182V19.25a6.2,6.2,0,0,1-.831-0.227V18.955H9.584a0.793,0.793,0,0,1,.185-0.864,1.738,1.738,0,0,1,.346-0.068,0.8,0.8,0,0,1,.277-0.114,0.388,0.388,0,0,0,.277.136l0.023-.136a2.759,2.759,0,0,1,.808-0.091,0.412,0.412,0,0,0,.138-0.227l0.462-.023V17.432a0.274,0.274,0,0,0,.185-0.068,3.411,3.411,0,0,1,.878.023l1.085-.045a0.513,0.513,0,0,1,.185-0.068,0.109,0.109,0,0,1,.023-0.068,0.109,0.109,0,0,0,.023.068,0.158,0.158,0,0,1,.092-0.023v0.068A6.5,6.5,0,0,0,16.928,17V16.977a0.529,0.529,0,0,1-.092-0.364,1.029,1.029,0,0,1-.208-0.591,1.818,1.818,0,0,1,.323-0.386,1.448,1.448,0,0,0,.762-0.455,1.076,1.076,0,0,1-.162-0.273,1.172,1.172,0,0,0,.185-0.3c0.111,0,.359.027,0.37,0.023a5.408,5.408,0,0,0,.508-0.886,3,3,0,0,0,.393-0.659l-0.023-.545h0.069V12.455c-0.075-.019-0.035.011-0.069-0.045a0.886,0.886,0,0,1,.577-0.091,1.272,1.272,0,0,1,.092.136H19.561v0.091h0.092V12.7a0.646,0.646,0,0,1,.323-0.045V12.7h0.3a0.946,0.946,0,0,1,.185-0.409c0.052-.09.06-0.185,0.116-0.273a2.136,2.136,0,0,1,1.039-.75,1.57,1.57,0,0,1,1.039-.227,3.267,3.267,0,0,1,.97.364,3.452,3.452,0,0,0,.369.3,2.031,2.031,0,0,1,.3-0.045,1.172,1.172,0,0,1,.185.114V11.8H24.457a1.4,1.4,0,0,1-.185.023,0.764,0.764,0,0,0-.046.182A0.954,0.954,0,0,1,24.5,12.591Zm-7.275,4.636a9.2,9.2,0,0,0,1.386-.068v-0.2a6.372,6.372,0,0,1-1.593-.045v0.045a0.166,0.166,0,0,0,.023.046A0.383,0.383,0,0,1,17.229,17.227ZM6.859,20.114L7,22.955H7.021C7.2,22.784,7.756,23,8.014,22.841a4.821,4.821,0,0,0,.531-1H8.36A2.132,2.132,0,0,1,7.9,20.909,1.607,1.607,0,0,1,8.822,20.3C8.8,20.062,8.7,19.985,8.406,20ZM3.326,23.2l0.508-.023a3.892,3.892,0,0,1,.577-0.75c0.467-.637.994-1.236,1.432-1.886A0.744,0.744,0,0,0,5.219,20.2,8.918,8.918,0,0,1,3.9,20.3a4.626,4.626,0,0,1-.485.545L3.233,21v0.5a2.181,2.181,0,0,1,.023.523A6.947,6.947,0,0,1,3.326,23.2Zm-0.485.046a6.535,6.535,0,0,0-.069-1.341V21.432C2.7,21.12,2.741,20.708,2.7,20.386l-1.363.068a2.732,2.732,0,0,0-.37.273A0.487,0.487,0,0,0,.647,21a3.017,3.017,0,0,0,.67,1,0.617,0.617,0,0,1,.416-0.068A0.088,0.088,0,0,1,1.778,22a1.323,1.323,0,0,0-.162.409,3.817,3.817,0,0,0,1.062.864A0.311,0.311,0,0,1,2.841,23.25ZM6.513,23L6.42,20.886H6.166a3.892,3.892,0,0,1-.393.5c-0.264.361-.518,0.709-0.785,1.068a5.643,5.643,0,0,0-.531.682H4.6a2.555,2.555,0,0,1,.647-0.045A6.576,6.576,0,0,1,6.513,23Zm3.072-.454a0.309,0.309,0,0,1,.208.023,2.5,2.5,0,0,1,.162-0.727H9.423v0.023H9.4a4.833,4.833,0,0,1-.139,1H9.423a0.568,0.568,0,0,0,.185-0.045,0.3,0.3,0,0,0,.023-0.159A0.152,0.152,0,0,1,9.584,22.546ZM8.8,22.932c0.024-.222.086-0.417,0.092-0.659H8.868V22.3a3.151,3.151,0,0,0-.346.636H8.8ZM8.453,23.3c0.007,0.064.024,0.047,0,.091a0.406,0.406,0,0,0-.185.068,0.8,0.8,0,0,0-.115.2H8.2c0.145-.07.416,0,0.462-0.227a0.606,0.606,0,0,1-.069-0.114V23.3H8.453Zm-1.432.2,0.046,0.841,0.185,0.023a4.76,4.76,0,0,1,.462-0.909H7.46A1.453,1.453,0,0,1,7.021,23.5Zm-2.633.182a1.347,1.347,0,0,0,.023.523,2.1,2.1,0,0,0,1.155.636,0.607,0.607,0,0,0,.416-0.023,1.211,1.211,0,0,0,.6-0.727,1.894,1.894,0,0,1-.046-0.568ZM8.152,23.8V23.7H8.129v0.023a3.107,3.107,0,0,0-.393.727L8.083,24.5V24.455C8,24.414,7.935,24.421,7.921,24.3a0.082,0.082,0,0,0,.023-0.046,0.65,0.65,0,0,0,.439-0.3V23.932a1.2,1.2,0,0,1-.162-0.114A0.118,0.118,0,0,0,8.152,23.8Z" transform="translate(0 0.484)"/>
</svg>
