<?xml version="1.0" encoding="utf-8"?>
<!-- Generator: Adobe Illustrator 16.0.0, SVG Export Plug-In . SVG Version: 6.00 Build 0)  -->
<!DOCTYPE svg PUBLIC "-//W3C//DTD SVG 1.1//EN" "http://www.w3.org/Graphics/SVG/1.1/DTD/svg11.dtd">
<svg version="1.1" id="Layer_1" xmlns="http://www.w3.org/2000/svg" xmlns:xlink="http://www.w3.org/1999/xlink" x="0px" y="0px"
	 width="40px" height="40px" viewBox="0 0 40 40" enable-background="new 0 0 40 40" xml:space="preserve">
<path id="Color_Fill_1" fill="#FFFFFF" d="M10.878,10.167c-0.213-0.093-0.443-0.139-0.676-0.133
	c-0.069,0.168-0.092,0.352-0.068,0.533c0.446,0.345,0.656,0.915,0.541,1.467h-0.337V12.3c4.6,0,9.363,0.022,13.852,0.067v0.267
	c0.107,0.044,0.229,0.044,0.338,0c0.035-0.085,0.059-0.175,0.068-0.267c0.051,0.006,0.098,0.03,0.135,0.067H24.8
	c-0.065,0.236,0.063,1.906,0.068,2.533h0.067c0.101-0.169-0.015-0.075,0.201-0.133v4c0.282,0.089,0.523,0.279,0.676,0.533
	c-0.018-0.361,0.027-0.723,0.135-1.067v-0.067h0.068c0.016,0.266,0.109,0.521,0.27,0.733c0.265-0.079,0.547-0.079,0.811,0
	c0.183,0.327,0.207,0.72,0.068,1.067h0.27v-0.066c-0.131-0.416-0.107-0.866,0.066-1.267c0.355-0.072,0.719-0.095,1.081-0.067V18.7
	h0.067v-1.468c-0.018-0.334,0.005-0.67,0.067-1c0.072,0,0.143,0.023,0.2,0.067c0.039,0.106,0.108,0.2,0.2,0.267V16.3h0.541
	c-0.058-0.938,0.01-1.879,0.2-2.8c0.08-0.05,0.175-0.073,0.27-0.067l0.068,0.2c0.021,0.333,0.021,0.667,0,1h0.338
	c-0.096-0.621-0.072-1.254,0.068-1.867v1.467h0.067c0.422-0.321,1.088-0.055,1.622-0.133c1.162-0.188,2.346-0.211,3.514-0.067V12.5
	h-0.062v-0.067h0.271V12.5c-0.194,0.51-0.241,1.064-0.136,1.6h0.067c0.225-0.038,0.453-0.038,0.677,0
	c0.331-0.081,0.675-0.103,1.015-0.067c0.492,0.19,0.883,0.577,1.079,1.067h0.2c0.084,0.121,0.201,0.214,0.338,0.267v0.199
	c-0.863-0.122-0.865-0.992-1.689-1.267v0.067c0.4,0.443,0.078,0.355,0.136,0.667c0.159,0.85,0.671,1.757,0.878,2.667
	c0.152-0.027,0.072-0.061,0.199,0c-0.111,0.1-0.068,0.048-0.067,0.133l0.067,0.2h0.068c0.01-0.251-0.031-0.234,0.135-0.333v0.133
	c-0.043,0.058-0.066,0.128-0.067,0.2h0.338l0.067,0.2c0.143,0.904,0.166,1.822,0.068,2.732c-0.146,0.042-0.283,0.109-0.404,0.2
	c0.05,0.079,0.074,0.173,0.067,0.267c0.431,0.201,0.77,0.559,0.946,1c-0.016,0.184-0.063,0.364-0.135,0.533V22.9
	c-0.047-0.067-0.088-0.268-0.135-0.334c0.015,1.252-0.662,0.918-1.015,1.733c-0.56-0.079-1.129-0.079-1.688,0v-0.2
	c0.16,0.021,0.324-0.002,0.473-0.066h-1.01c-0.018-0.137,0.007-0.276,0.068-0.4v0.2c0.318-0.013,0.636-0.057,0.945-0.133
	c0.008-0.093,0.031-0.183,0.068-0.267h0.068v0.199c0,0.123-0.064,0.061,0.067,0.133c0.058,0.043,0.128,0.066,0.2,0.067
	c0.051-0.173,0.074-0.353,0.068-0.533c-0.498,0.005-0.996,0.049-1.486,0.134c0,0.072-0.023,0.143-0.068,0.199
	c0.001-0.072-0.023-0.143-0.068-0.199V23.5c-0.019,0.203,0.004,0.406,0.068,0.6c0.02,0.498-0.123,0.99-0.404,1.4
	c-0.952,1.075-2.596,1.176-3.671,0.224c-0.144-0.126-0.272-0.269-0.384-0.424c-0.217-0.374-0.375-0.778-0.473-1.2h-0.2
	c-0.039,0.699-0.152,1.393-0.338,2.067c-0.037-0.036-0.085-0.06-0.136-0.067v-0.133c0.178-0.444,0.225-0.93,0.136-1.4h-0.138V24.7
	c-0.17,0.274-0.023,0.854-0.199,1.133v-0.065c-0.025-0.467-0.025-0.934,0-1.4L28.445,24.3c-0.087,0.87-0.626,1.63-1.418,2
	c-1.271,0.445-2.661-0.224-3.106-1.493c-0.087-0.249-0.134-0.51-0.137-0.773h-0.271c-0.015,0.266-0.109,0.521-0.27,0.732
	c0.072,0,0.143,0.023,0.199,0.067c-0.121,0.03-0.205,0.142-0.199,0.267h-0.068V24.9c-0.191,0.036-0.389-0.013-0.541-0.133
	c0.219-0.056,0.1,0.032,0.2-0.134c-0.095,0.008-0.189-0.017-0.271-0.067c0.052-0.006,0.1-0.029,0.136-0.066h-9.254
	c0.001-0.072-0.023-0.143-0.068-0.2c-0.1,0.249-0.087,0.148-0.338,0.2c-0.277,2.509-4.171,2.51-4.459,0H7.973
	c-0.6,1.35-2.142,2.688-3.851,1.467c-0.369-0.365-0.627-0.827-0.743-1.333c-0.149-0.118-0.285-0.252-0.405-0.399
	c0.093-0.325,0.116-0.666,0.068-1H2.973V23.3c-0.144,0.407-0.167,0.847-0.068,1.267c0.072,0,0.143,0.023,0.2,0.067
	c-0.183-0.024-0.37-0.002-0.541,0.067h0.071c0.052,0.046,0.151,0.087,0.2,0.133H2.7c-0.194,0.072-0.403,0.095-0.608,0.066
	l-0.068-0.133h0.2c0.068-0.622,0.047-1.251-0.062-1.867v1.533c-0.686,0.217-1.425,0.193-2.095-0.067C0.024,24.309,0,24.238,0,24.167
	c0.182-0.071,0.345-0.186,0.473-0.333h0.2V23.3l-0.338-0.067v-0.065c0.049-0.354,0.072-0.71,0.07-1.067
	c0.481-0.149,0.773-0.638,0.676-1.133c-0.039-0.18,0-0.107,0.135-0.267h-0.2c-0.073-0.217-0.073-0.45,0-0.667
	C0.9,20.035,0.786,20.059,0.678,20.1v-0.267c0.158-0.332,0.205-0.706,0.135-1.067c0-0.974-0.044-2,0-2.8h0.133
	c-0.031,0.154-0.031,0.313,0,0.468h0.068v-3.801h0.2v-0.266C2.4,12.362,3.724,12.3,5,12.3v-0.2c0.316,0.045,0.639,0.022,0.946-0.067
	H4.865v-0.866c0.492-0.122,0.824-0.444,1.351-0.533V10.3c-0.243-0.059-0.493-0.082-0.743-0.067C4.95,10.411,4.387,10.435,3.851,10.3
	C3.257,9.894,2.844,9.272,2.7,8.567c0.521-0.393,0.881-0.961,1.014-1.6l0.135,0.067c-0.068-0.166-0.187-0.306-0.338-0.4
	C3.747,6.285,3.93,5.903,4.054,5.5l0.473,0.2L4.392,6.1h0.067C4.671,5.856,4.853,5.587,5,5.3C4.752,5.122,4.819,4.974,4.865,4.7
	c0.856-0.151,1.288-1.029,2.094-1.2c0.037,0.036,0.084,0.06,0.135,0.067C7.272,3.909,7.5,4.224,7.77,4.5
	c0.722,1.013,1.455,2.008,2.162,3c0.34,0.658,0.772,1.265,1.284,1.8C11.019,9.548,10.901,9.851,10.878,10.167z M4.459,5.233
	c0.139,0.031,0.274,0.076,0.405,0.133C4.52,5.377,4.473,5.41,4.459,5.233z M6.013,12.033c0.116,0.059,0.086,0.059,0.2,0H6.013z
	 M6.351,12.033v0.2c0.343,0.084,0.705,0.037,1.014-0.133h0.067v-0.067H6.351z M24.46,12.9c0.026,0.174-0.05,0.087,0.136,0.133V12.9
	H24.46z M24.393,13.233v3.4h0.135V16.7h0.068v-3.467h-0.201H24.393z M36.216,13.966h0.136v0.067h-0.136V13.966L36.216,13.966z
	 M24.865,15.166c-0.078,0.756-0.056,1.518,0.068,2.268C25.012,16.678,24.988,15.916,24.865,15.166L24.865,15.166z M24.393,17.966
	h0.199v-0.532h-0.064v0.133C24.424,17.672,24.374,17.82,24.393,17.966L24.393,17.966z M24.865,17.699
	c-0.039,0.268-0.016,0.542,0.068,0.8C24.972,18.23,24.949,17.957,24.865,17.699L24.865,17.699z M24.46,19.699h0.2v-0.066
	c-0.086-0.221-0.061-0.469,0.068-0.667h0.199v-0.399h-0.332v-0.334c-0.072,0-0.143,0.023-0.201,0.067
	c0.155,0.198,0.27,0.425,0.338,0.667h-0.07c-0.033-0.073-0.079-0.141-0.135-0.199V19.1C24.455,19.291,24.432,19.498,24.46,19.699
	L24.46,19.699z M25.744,18.366c0.096,0.188,0.096,0.411,0,0.6V18.366z M28.852,18.434c-0.018,0.137,0.007,0.275,0.068,0.399
	C28.938,18.695,28.914,18.557,28.852,18.434L28.852,18.434z M26.014,18.7v1h0.135c-0.052-0.231-0.002-0.474,0.136-0.667
	C26.187,18.928,26.096,18.816,26.014,18.7z M27.434,19.1c-0.039,0.269-0.016,0.543,0.067,0.801c0.038-0.27,0.015-0.543-0.069-0.801
	H27.434z M25.811,19.5c-0.105,0.185-0.174,0.389-0.199,0.6h0.068c0.058-0.042,0.127-0.065,0.199-0.066v-0.066h-0.068
	C25.883,19.82,25.883,19.647,25.811,19.5z M25.203,20.033l-0.068,0.199h0.338v-0.065c-0.07-0.077-0.168-0.126-0.272-0.134H25.203z
	 M25.541,20.166c0.037,0.036,0.084,0.06,0.135,0.066C25.639,20.197,25.592,20.174,25.541,20.166L25.541,20.166z M24.393,20.232
	c0.036,0.037,0.084,0.061,0.135,0.067C24.49,20.264,24.443,20.24,24.393,20.232z M27.3,20.3c0.037,0.036,0.085,0.06,0.136,0.067
	C27.398,20.331,27.352,20.308,27.3,20.3z M2.3,20.7c0.852,0.118,1.716,0.118,2.568,0H2.3z M6.151,20.7
	c0.26,0.104,0.551,0.104,0.811,0H6.149H6.151z M7.029,20.7c0.807,0.118,1.626,0.118,2.432,0H7.027H7.029z M10.678,20.7
	c0.852,0.118,1.715,0.118,2.567,0h-2.569H10.678z M19.935,20.7c0.553,0.149,1.135,0.149,1.689,0h-1.692H19.935z M22.908,20.7
	c0.146,0.087,0.327,0.087,0.473,0h-0.477H22.908z M24.124,20.7c0.036,0.036,0.084,0.06,0.135,0.067
	c-0.037-0.037-0.085-0.061-0.137-0.067H24.124z M3.041,22.9c-0.05,0.058-0.085,0.074-0.135,0.133
	c0.036,0.035,0.06,0.082,0.068,0.133h0.067C3.072,23.08,3.072,22.986,3.041,22.9z M14.595,22.9v0.267h0.135
	c0.081-0.05,0.175-0.073,0.27-0.067V22.9H14.595z M17.771,22.9c0,0.072,0.023,0.143,0.068,0.199
	C17.839,23.027,17.815,22.957,17.771,22.9L17.771,22.9z M21.893,22.9l-0.067,0.533c0.198,0.053,0.403,0.076,0.608,0.066
	c0.08,0.05,0.175,0.073,0.27,0.066V23.3C22.313,23.041,22.637,22.9,21.893,22.9L21.893,22.9z M23.65,22.9v0.267h0.27l0.068-0.267
	h-0.34H23.65z M28.042,22.9c0.146,0.087,0.327,0.087,0.474,0H28.042L28.042,22.9z M31.15,22.9c0,0.193-0.065,0.093,0,0.199v0.067
	h0.067c0.007-0.095-0.017-0.188-0.069-0.267H31.15z M31.557,22.9c-0.008,0.092-0.031,0.182-0.068,0.267h0.135V23.1
	c0.055-0.059,0.101-0.127,0.135-0.199h-0.199H31.557z M36.083,22.967c-0.001,0.072,0.023,0.143,0.067,0.2v-0.2h-0.069H36.083z
	 M36.216,23.1c0.037,0.036,0.085,0.06,0.136,0.067C36.314,23.131,36.268,23.107,36.216,23.1z M30.338,23.232v0.334h0.135
	c0.003-0.115,0.025-0.228,0.068-0.334h-0.2H30.338z M30.676,23.3v0.134h0.068V23.3H30.676z M31.014,23.367
	c-0.008,0.094,0.017,0.188,0.068,0.267C31.09,23.54,31.065,23.445,31.014,23.367z M13.109,23.434v0.133h0.068v-0.133H13.109
	L13.109,23.434z M23.648,23.434V23.7h0.136v-0.267H23.648L23.648,23.434z M31.35,23.434c0.002,0.115,0.025,0.228,0.067,0.334h0.067
	V23.7c0.051-0.079,0.074-0.173,0.068-0.267h-0.199H31.35z M28.311,23.5c-0.007,0.142,0.072,0.273,0.201,0.333v-0.267L28.311,23.5z
	 M3.111,23.633c-0.029,0.203-0.005,0.409,0.068,0.6c0.028-0.202,0.003-0.408-0.071-0.6H3.111z M2.57,24.166V24.3h0.065
	c-0.006-0.05-0.03-0.097-0.067-0.133L2.57,24.166z M0.405,24.3c0.037,0.036,0.084,0.06,0.135,0.067
	C0.503,24.331,0.456,24.308,0.405,24.3z M2.5,24.434v0.133h0.068v-0.133H2.5z M23.107,24.5c0.037,0.036,0.084,0.06,0.136,0.066
	C23.206,24.531,23.159,24.508,23.107,24.5z M23.378,24.9c0.093,0.166,0.093,0.367,0,0.533V24.9z"/>
</svg>
