<svg xmlns="http://www.w3.org/2000/svg" width="39.969" height="40" viewBox="0 0 39.969 40">
  <defs>
    <style>
      .cls-1 {
        fill: #fff;
        fill-rule: evenodd;
      }
    </style>
  </defs>
  <path id="fr_somua_sau40_ico" class="cls-1" d="M30.637,11a13.676,13.676,0,0,0-.025,1.465,5.109,5.109,0,0,0,.025.928v2.442a8.183,8.183,0,0,0,.024,1.539,1.1,1.1,0,0,0,.024.269c0.176,0.161.439,0.231,0.613,0.391l-0.049.147c0.011,0.03.089-.01,0.073,0.073-0.006.034-.111,0.033-0.049,0.073a0.218,0.218,0,0,0,.073.073,0.2,0.2,0,0,1-.073.073,0.493,0.493,0,0,0,.073.073c0.017,0.073-.064.063-0.073,0.1l0.049,0.146-0.073.049a0.108,0.108,0,0,0,.049.1c-0.032.092-.1,0.165,0,0.22a0.246,0.246,0,0,0,.147.122,0.607,0.607,0,0,1-.024-0.269,0.213,0.213,0,0,1,.147-0.049c0.289,0.1.446,0.409,0.76,0.489l2.77,0.024a1.959,1.959,0,0,1,1.373.2,1.344,1.344,0,0,1-.049.171l3.5,0.024a4.267,4.267,0,0,1,.025,1.123,1.617,1.617,0,0,1-.441.024,3.322,3.322,0,0,1-.858.024h-2.23a1.174,1.174,0,0,1,.049.22,1.731,1.731,0,0,1-.27.146H34.51v0.22A1.8,1.8,0,0,1,35.637,22.7a2.148,2.148,0,0,0-.735.44c0.115,0.1.225,0.511,0.294,0.537,0.043-.032.039-0.042,0.073-0.024a0.841,0.841,0,0,1-.024.146,1.285,1.285,0,0,1,.049.586h0.147a0.383,0.383,0,0,1-.074.122l-0.049.513c-0.014.029-.076,0.064-0.1,0.1l0.147,0.049a0.068,0.068,0,0,1-.025.024,0.126,0.126,0,0,1-.074.024,1.837,1.837,0,0,1-.2.464c-0.041.057-.115,0.066-0.123,0.1a0.468,0.468,0,0,0,.1.073,0.069,0.069,0,0,1-.024.024,1.4,1.4,0,0,0-.319.244,0.568,0.568,0,0,1-.123.171c-0.081.045-.073-0.029-0.123,0.049,0.047,0.038.068,0.06,0.049,0.1-0.067.033-.028-0.036-0.073-0.024-0.132.034-.287,0.2-0.417,0.244a0.762,0.762,0,0,1-.147,0H33.848a0.192,0.192,0,0,1,.025.146v0.024a0.171,0.171,0,0,0-.1-0.049l-0.613.269c0.027,0.036.051,0.075,0.025,0.1-0.067.026-.021-0.03-0.074-0.024a3.975,3.975,0,0,0-.49.244,0.218,0.218,0,0,0-.147-0.024v0.049c0.039,0.046.046,0.05,0.025,0.1V27.51a0.293,0.293,0,0,1-.074-0.049c-0.132.046-.288,0.167-0.417,0.22a1.454,1.454,0,0,0-.221.024,0.134,0.134,0,0,1,.024.146,4,4,0,0,1-.686.122v0.073a0.48,0.48,0,0,1,.049.1H31.1a0.731,0.731,0,0,0-.441.073,0.361,0.361,0,0,1-.2-0.049v0.049a0.285,0.285,0,0,1,.049.122H30.441a0.684,0.684,0,0,0-.441.073,0.357,0.357,0,0,1-.172-0.049v0.073a0.164,0.164,0,0,1,.025.1H29.8a0.69,0.69,0,0,0-.466.073,0.852,0.852,0,0,1-.172-0.049v0.024a0.134,0.134,0,0,1,.024.146,3.341,3.341,0,0,0-.662.024v0.073a0.125,0.125,0,0,1,.024.073H28.5a0.069,0.069,0,0,1-.024.024,0.117,0.117,0,0,0-.024-0.073,0.846,0.846,0,0,1-.637-0.024v0.147a4.654,4.654,0,0,1-.686-0.147v0.147a4.653,4.653,0,0,1-.686-0.147c0,0.1.012,0.11-.049,0.147a1.177,1.177,0,0,0-.515-0.049c-0.051-.018-0.065-0.073-0.123-0.1V29H25.686V28.927a0.975,0.975,0,0,1-.613-0.1V29H25V28.927a1.9,1.9,0,0,1-.613-0.073V29H24.314V28.927a2.018,2.018,0,0,1-.637-0.073V29H23.6V28.927a1.9,1.9,0,0,1-.613-0.073V29H22.917V28.927h-0.49c-0.05-.018-0.067-0.072-0.123-0.1,0,0.1.013,0.134-.049,0.171V28.927a0.974,0.974,0,0,1-.613-0.1V29H21.569V28.927a1.819,1.819,0,0,1-.613-0.1c0,0.1.012,0.11-.049,0.147a1.008,1.008,0,0,0-.49-0.073c-0.039-.014-0.047-0.054-0.1-0.073,0,0.1.012,0.11-.049,0.147A1,1,0,0,0,19.8,28.9c-0.019-.008-0.047-0.058-0.073-0.073,0,0.1.012,0.11-.049,0.147a1,1,0,0,0-.466-0.073c-0.019-.008-0.047-0.058-0.073-0.073,0,0.1.012,0.11-.049,0.147a1.033,1.033,0,0,0-.466-0.073c-0.019-.008-0.047-0.058-0.074-0.073v0.147a5.637,5.637,0,0,1-.613-0.147c0,0.1.012,0.11-.049,0.147A0.976,0.976,0,0,0,17.4,28.9a1.342,1.342,0,0,0-.123-0.073c0,0.1.012,0.11-.049,0.147a0.976,0.976,0,0,0-.49-0.073,1.342,1.342,0,0,0-.123-0.073v0.147H16.544V28.9a1.9,1.9,0,0,1-.613-0.073c0,0.1.012,0.11-.049,0.147V28.9a1.374,1.374,0,0,1-.637-0.1c0,0.1.013,0.134-.049,0.171V28.9a1.163,1.163,0,0,1-.637-0.1v0.171H14.485V28.9a2.017,2.017,0,0,1-.637-0.1c0,0.1.012,0.11-.049,0.147a1.139,1.139,0,0,0-.539-0.073,1.339,1.339,0,0,0-.123-0.073c0,0.1.012,0.11-.049,0.147a1.249,1.249,0,0,0-.539-0.073,0.463,0.463,0,0,0-.1-0.073v0.147c-0.192-.037-0.513-0.091-0.686-0.147,0,0.1.012,0.11-.049,0.147a1.072,1.072,0,0,0-.515-0.073,1.342,1.342,0,0,0-.123-0.073c0,0.1.012,0.11-.049,0.147a1.158,1.158,0,0,0-.515-0.073,0.287,0.287,0,0,0-.122-0.073l0.024,0.147H10.343V28.878H9.828c-0.055-.019-0.078-0.073-0.147-0.1v0.171H9.608V28.878a2.145,2.145,0,0,1-.662-0.1v0.146c-0.2-.038-0.552-0.087-0.735-0.146,0,0.1.012,0.11-.049,0.146a1.161,1.161,0,0,0-.539-0.073c-0.044-.015-0.1-0.074-0.147-0.1v0.122a0.088,0.088,0,0,1,.025.049H7.426V28.854a1.447,1.447,0,0,1-.662-0.171c0,0.1,0,.112-0.074.146a4.817,4.817,0,0,0-.662-0.22,0.388,0.388,0,0,1-.049.147,1.285,1.285,0,0,0-.564-0.147c-0.056-.02-0.077-0.074-0.147-0.1v0.147H5.2V28.585a1.608,1.608,0,0,1-.662-0.171c0,0.112,0,.123-0.1.147V28.487a1.722,1.722,0,0,1-.662-0.171v0.147a0.185,0.185,0,0,1-.1-0.073,4.619,4.619,0,0,0-.466-0.049,0.737,0.737,0,0,1-.147-0.1,0.247,0.247,0,0,1-.074.122V28.341a0.124,0.124,0,0,1-.025-0.073A3.256,3.256,0,0,1,2.426,28a0.479,0.479,0,0,0-.049.1H2.353V28.072c-0.026-.037-0.024-0.027,0-0.073l-0.172-.122c-0.095-.111-0.173-0.227-0.27-0.342-0.023.036-.071,0.116-0.1,0.073H1.789V27.583a0.148,0.148,0,0,0,.049-0.049C1.717,27.436,1.594,27.045,1.52,27a0.1,0.1,0,0,1-.1.049V27a1.256,1.256,0,0,0-.147-0.586C1.1,26.634.907,26.27,0.833,26.143a1.388,1.388,0,0,1-.368-0.806,0.887,0.887,0,0,1,.1-0.146l-0.025-.244h-0.1a0.481,0.481,0,0,0-.1-0.146c0-.384.07-0.609,0.049-0.928H0.368a0.194,0.194,0,0,1-.221.1c0-.344-0.141-0.386-0.147-0.733A0.245,0.245,0,0,0,.123,23.09l0.1,0.024a3.473,3.473,0,0,1,.1-0.513,1.156,1.156,0,0,0,.466-0.024,0.166,0.166,0,0,1,.1-0.147c0.1-.067.151,0.016,0.221,0.049v-0.1a1.67,1.67,0,0,1,.417.073,0.118,0.118,0,0,0,.025.073V22.5a0.57,0.57,0,0,1,.245-0.269,0.209,0.209,0,0,0,.123.122V22.186H2.034v-0.1a0.267,0.267,0,0,0,.074-0.049,0.085,0.085,0,0,1,.049.024c0.063,0.039.035,0.083,0.1,0.122V22.137A1.464,1.464,0,0,0,2.279,21.6c0-.286.075-0.431,0.074-0.757,0.1,0,.11.012,0.147-0.049a0.285,0.285,0,0,1-.245-0.147A0.241,0.241,0,0,1,2.3,20.379c-0.1-.074-0.055-0.084,0-0.171-0.1-.074-0.055-0.084,0-0.171a0.217,0.217,0,0,1-.074-0.073c0.1-.074.055-0.084,0-0.171a0.133,0.133,0,0,0,.074-0.1,0.106,0.106,0,0,1-.074-0.073,0.464,0.464,0,0,0,.074-0.1c-0.1-.074-0.055-0.084,0-0.171a0.3,0.3,0,0,1-.1-0.1,0.106,0.106,0,0,0,.074-0.073,0.133,0.133,0,0,1-.074-0.1,0.133,0.133,0,0,0,.074-0.1c-0.16-.16.455-0.425,0.588-0.488,0.008-.893.025-1.877,0.025-2.809V14.322a5.128,5.128,0,0,0,.025-0.928,14.782,14.782,0,0,0-.025-1.539H3.039A21.2,21.2,0,0,0,3.015,14.1q0.012,2.2.025,4.4a1.415,1.415,0,0,0,.564.317,0.461,0.461,0,0,1,.343-0.122V18.62a7.205,7.205,0,0,0,1.667-.269c0.611-.162,1.2-0.161,1.814-0.318,0.493-.126,1.024-0.16,1.544-0.293A9.9,9.9,0,0,1,10.2,17.5a0.21,0.21,0,0,0,.221.122,0.165,0.165,0,0,1,.1-0.024,0.787,0.787,0,0,1,1.1-.342c0.175,0.067.226,0.274,0.368,0.317a5.125,5.125,0,0,1,.98-0.2v0.073h0.123a0.208,0.208,0,0,0,.2.2c0.186-.111.507-0.026,0.515-0.317a0.088,0.088,0,0,1-.024-0.049h0.049c0.024-.006.009-0.019,0.025,0a0.268,0.268,0,0,0,.1.146,0.166,0.166,0,0,1,.1-0.024V17.2h0.073l0.025,0.147h0.073l0.024-.171a1.892,1.892,0,0,0,.319-0.049,0.217,0.217,0,0,1,.074.073,0.855,0.855,0,0,1,.22-0.073,0.157,0.157,0,0,0,.025.1,2,2,0,0,1,.515-0.1,6.643,6.643,0,0,1,1.1-.22,0.35,0.35,0,0,0-.024-0.122,0.548,0.548,0,0,1,.27-0.049c0.107,0.029.065,0.068,0.172,0.1a1.972,1.972,0,0,1,.613-0.024,5.85,5.85,0,0,1,1.422-.2,1.357,1.357,0,0,0-.024-0.391h0.049a0.289,0.289,0,0,1,.2-0.049,2.017,2.017,0,0,1-.2-0.464,2.27,2.27,0,0,0,.221-0.83,2.942,2.942,0,0,1,.221-0.733c0.036-.053.136-0.074,0.172-0.122a1.215,1.215,0,0,1,.1-0.317,1.158,1.158,0,0,1,.221-0.024,3,3,0,0,0,.368-0.2l0.343-.1c0.033-.017.383-0.205,0.392-0.22v-0.1a0.655,0.655,0,0,1,.294-0.269,6.655,6.655,0,0,1,1.716-.049h0.662a0.7,0.7,0,0,1,.466.318v0.1a2.17,2.17,0,0,0,.735.317,0.44,0.44,0,0,1,.417-0.22,0.736,0.736,0,0,1,.2.22,0.5,0.5,0,0,0-.294,0,0.862,0.862,0,0,1-.074.073,0.241,0.241,0,0,0,.025.122L25.809,14.3a0.99,0.99,0,0,0,.123.318,3.171,3.171,0,0,0,1.226,0v0.122a2.028,2.028,0,0,1,.319.049l0.539-.049v0.2c-0.28-.02-0.558,0-0.858,0l-0.074.22H25.956a1.5,1.5,0,0,0-.024.415,0.742,0.742,0,0,1-.147.611,1.3,1.3,0,0,1,.2.049v0.44a5.954,5.954,0,0,1,1.1.073c0.364,0.079.715-.022,1.029,0.073a3.37,3.37,0,0,1,1.422.879,2.144,2.144,0,0,1,.343.317c0.064-.036.6-0.344,0.613-0.366V14.688a4.056,4.056,0,0,0,.024-1V11.073a0.436,0.436,0,0,1-.1-0.049ZM0.833,23.432V23.5a0.822,0.822,0,0,0-.27.22,0.955,0.955,0,0,1,.049.415,0.23,0.23,0,0,1,.2.293,0.636,0.636,0,0,1-.025.464l-0.1.049,0.025,0.2,0.123,0.024A2.51,2.51,0,0,1,1,25.9c0.1,0.036.136,0.11,0.245,0.147a0.975,0.975,0,0,1,.074-0.44,0.8,0.8,0,0,1-.147-0.049A1.166,1.166,0,0,0,1.4,24.921c-0.024-.075-0.123-0.182-0.147-0.269a1.95,1.95,0,0,1,.1-0.659H1.25c-0.044-.1-0.046-0.268-0.1-0.366a0.422,0.422,0,0,1-.172-0.2H0.833Z"/>
</svg>
