<?xml version="1.0" encoding="utf-8"?>
<!-- Generator: Adobe Illustrator 16.0.0, SVG Export Plug-In . SVG Version: 6.00 Build 0)  -->
<!DOCTYPE svg PUBLIC "-//W3C//DTD SVG 1.1//EN" "http://www.w3.org/Graphics/SVG/1.1/DTD/svg11.dtd">
<svg version="1.1" id="Layer_1" xmlns="http://www.w3.org/2000/svg" xmlns:xlink="http://www.w3.org/1999/xlink" x="0px" y="0px"
	 width="39.938px" height="40px" viewBox="0 0 39.938 40" enable-background="new 0 0 39.938 40" xml:space="preserve">
<path id="Color_Fill_1" fill="#FFFFFF" d="M25.15,11c0.022,0.289,0.109,0.569,0.253,0.82c-0.068,0-0.135,0.021-0.189,0.063
	c0.1,0.071,0.039,0.006,0,0.126c0.068,0,0.136,0.021,0.189,0.063c-0.068-0.001-0.135,0.021-0.189,0.063
	c0.068,0,0.136,0.021,0.189,0.063c-0.153,0.05-0.014,0.171-0.126,0.315c0.197,0.081,0.305,0.293,0.253,0.5h-0.253
	c-0.074,0.735-0.054,1.477,0.063,2.207c0.007-0.087,0.028-0.172,0.063-0.252l0.19,0.063c0.144,0.498,0.121,1.028-0.063,1.513
	l-0.253,0.126c-0.047,0.229-0.047,0.465,0,0.694h0.126c0.008-0.087,0.029-0.172,0.063-0.252c0.403,0.226,0.869,0.314,1.327,0.252
	c-0.021-0.179-0.067-0.131,0-0.252v0.068c0.127,0.558,0.147,1.134,0.063,1.7h1.327v-0.06c-0.122-0.395-0.101-0.821,0.063-1.2
	c0.332-0.068,0.673-0.089,1.011-0.063v0.063h0.063v-1.386c-0.017-0.316,0.005-0.634,0.063-0.946c0.068-0.001,0.136,0.021,0.19,0.063
	c0.036,0.101,0.102,0.188,0.188,0.252v-0.252h0.506c-0.053-0.888,0.011-1.778,0.189-2.649c0.075-0.047,0.164-0.069,0.253-0.063
	l0.063,0.189c0.02,0.315,0.02,0.631,0,0.946h0.316c-0.086-0.565-0.064-1.142,0.063-1.7V13.4h0.065c0.489-0.162,1.01-0.206,1.52-0.13
	c1.087-0.178,2.193-0.199,3.286-0.063v-1.45h-0.066v-0.063h0.253v0.063c-0.182,0.483-0.226,1.008-0.126,1.514h0.063
	c0.209-0.036,0.423-0.036,0.632,0c0.311-0.076,0.631-0.097,0.948-0.063c0.462,0.181,0.828,0.546,1.011,1.008h0.19
	c0.078,0.114,0.188,0.202,0.316,0.252v0.189c-0.809-0.115-0.81-0.939-1.58-1.2v0.063c0.373,0.419,0.071,0.336,0.126,0.631
	c0.147,0.8,0.627,1.662,0.821,2.523c0.144-0.025,0.069-0.058,0.19,0c-0.105,0.094-0.064,0.046-0.063,0.126l0.063,0.189h0.063
	c0.009-0.237-0.03-0.222,0.126-0.315V16.8c-0.041,0.055-0.063,0.121-0.063,0.189h0.31c0.032,0.051,0.075,0.094,0.126,0.126
	c-0.154,0.819,0.156,1.822,0,2.648c-0.137,0.039-0.265,0.104-0.379,0.189c0.047,0.075,0.069,0.163,0.063,0.252
	c0.404,0.191,0.721,0.529,0.885,0.945c-0.016,0.173-0.058,0.342-0.126,0.5v-0.055c-0.044-0.064-0.081-0.253-0.126-0.316
	c0.014,1.184-0.619,0.867-0.948,1.641c-0.523-0.075-1.056-0.075-1.58,0V22.73c0.15,0.02,0.304-0.002,0.442-0.063h-0.943
	c-0.017-0.13,0.006-0.261,0.063-0.378v0.189c0.299-0.012,0.595-0.055,0.885-0.127c0.007-0.086,0.028-0.172,0.063-0.252h0.063v0.189
	c0,0.115-0.06,0.057,0.063,0.126c0.055,0.04,0.121,0.063,0.189,0.063c0.048-0.162,0.069-0.332,0.063-0.5
	c-0.466,0.004-0.931,0.046-1.391,0.125c0.002,0.068-0.021,0.136-0.063,0.189c0.001-0.068-0.021-0.135-0.063-0.189v0.063
	c-0.018,0.191,0.004,0.385,0.063,0.567c0.018,0.471-0.115,0.936-0.379,1.324c-0.876,1.006-2.401,1.111-3.407,0.235
	c-0.145-0.126-0.273-0.269-0.384-0.424c-0.202-0.354-0.352-0.737-0.442-1.136h-0.189c-0.037,0.662-0.143,1.316-0.316,1.955
	c-0.034-0.033-0.078-0.055-0.126-0.063V24.5c0.165-0.421,0.209-0.879,0.126-1.324h-0.127V23.3c-0.159,0.259-0.022,0.81-0.19,1.072
	v-0.065c-0.022-0.441-0.022-0.884,0-1.324l-2.021-0.063c-0.08,0.819-0.583,1.538-1.327,1.892c-1.19,0.414-2.492-0.215-2.906-1.406
	c-0.083-0.236-0.125-0.486-0.127-0.737h-0.253c0.013,0.108-0.01,0.22-0.063,0.315c-0.01-0.237,0.029-0.223-0.126-0.315
	c0.03,0.212,0.009,0.429-0.063,0.631v-0.253h-1.138c-0.002-0.107-0.023-0.215-0.063-0.314h-0.063v0.377h-7.9
	c0.001-0.068-0.021-0.135-0.063-0.188c-0.095,0.235-0.081,0.14-0.316,0.188c-0.181,1.152-1.261,1.939-2.412,1.759
	c-0.906-0.142-1.616-0.853-1.759-1.759H9.984c-0.558,1.277-2,2.543-3.6,1.388c-0.348-0.347-0.59-0.783-0.7-1.261
	c-0.14-0.112-0.267-0.238-0.379-0.379c0.087-0.307,0.108-0.629,0.063-0.945H5.308c-0.119,0.111-0.05,0.115-0.189,0.063
	c-0.048-0.006-0.093-0.028-0.126-0.063c0.226-0.026,0.158,0.029,0.253-0.126l-0.063-0.063h0.126
	c0.007,0.049,0.028,0.093,0.063,0.127c0.008-0.088,0.03-0.173,0.065-0.252H5.371c-0.12,0.19-0.358,0.27-0.569,0.188v0.126
	c0.052,0.031,0.095,0.074,0.126,0.126H4.803v-0.063c-0.048-0.074-0.071-0.162-0.066-0.252c0.07-0.031,0.135-0.073,0.19-0.125H4.55
	v1.449c-0.513,0.174-1.067,0.174-1.58,0H2.907v-0.063c0.049-0.006,0.095-0.028,0.13-0.063c-0.141,0.063-0.289,0.106-0.442,0.126
	c-0.033-0.08-0.055-0.165-0.063-0.252c0.19-0.142,0.404-0.248,0.632-0.314v-0.5l-0.32-0.068v-0.063
	c0.045-0.335,0.066-0.672,0.063-1.01c0.451-0.146,0.722-0.606,0.63-1.072c-0.055-0.119-0.03-0.047,0-0.188H3.286
	c-0.267-0.081-0.546-0.103-0.821-0.063c-0.144,0.918-0.164,1.852-0.063,2.775H2.275c-0.006-0.048-0.028-0.092-0.063-0.126
	c-0.026,0.226,0.03,0.159-0.126,0.252c-0.007-0.048-0.028-0.093-0.063-0.126v0.945h0.063V23.3L1.77,23.363v-1.075
	c-0.258,0.002-0.515-0.041-0.758-0.126V22.1H0.948c-0.042-0.207-0.063-0.419-0.063-0.631c-0.262,0.025-0.508,0.136-0.7,0.315v-0.126
	c-0.256-0.4-0.007-2.801-0.189-3.279c-0.015-0.218,0.031-0.437,0.132-0.631c0.1-0.445-0.064-1.023,0.063-1.387h0.126l0.063,0.126
	c0.072,0.117,0.052,0.451,0.126,0.568c-0.034-0.234-0.012-0.472,0.063-0.695c0.245-0.08,0.505-0.101,0.759-0.06v-0.129
	C1.288,16.1,1.247,15.6,1.201,15.478c0.048-0.006,0.092-0.029,0.126-0.063h-0.19c-0.013-0.444-0.055-0.886-0.126-1.324
	c0.156-0.077,0.1-0.111,0.253-0.189v0.063c-0.05,0.249-0.071,0.503-0.063,0.757h0.126V13.9c0.089,0.007,0.178-0.015,0.253-0.063
	c-0.227-0.026-0.159,0.03-0.253-0.126l0.379-0.063c-0.008,0.089,0.015,0.177,0.063,0.252c0.055-0.041,0.2-0.084,0.253-0.126
	c-0.102,0.014-0.202-0.036-0.253-0.126l0.506-0.063v0.063c-0.16,0.092-0.07-0.014-0.126,0.189h0.948v0.5
	c0.245,0.103,0.479,0.229,0.7,0.378V13.4c0.109,0.012,0.22-0.01,0.315-0.063h-0.32c-0.117-0.74-0.052-1.498,0.189-2.207
	c0.161-0.064,0.335-0.086,0.506-0.063v0.252c0.778,0.063,1.559,0.084,2.339,0.063l0.568,0.063c0.692-0.087,1.393-0.087,2.085,0
	l0.506-0.063c0.759-0.044,1.521-0.023,2.275,0.063c0.296,0.005,0.593-0.016,0.885-0.063c1.017,0.091,2.251-0.13,3.224,0.063
	c0.338,0.021,0.678,0,1.011-0.063c0.438,0.07,0.884,0.091,1.327,0.063c0.523-0.083,1.057-0.083,1.58,0
	c0.562,0.088,0.943-0.176,1.327-0.063v-0.067c-0.079-0.1-0.041-0.032,0-0.126c0.092-0.16-0.015-0.071,0.188-0.126v0.252h0.19v0.5
	h0.124c-0.002-0.068,0.021-0.135,0.063-0.189v0.126c0.099,0.116,0.184,0.243,0.253,0.378c0.048-0.006,0.093-0.028,0.126-0.063
	c0.502-0.092,0.965-0.334,1.327-0.694h-0.631v-0.058h-0.064v-0.063C24.01,11.257,24.271,11.009,25.15,11z M24.202,11.568
	c0.034,0.034,0.078,0.056,0.126,0.063C24.294,11.597,24.249,11.575,24.202,11.568z M24.455,11.568l-0.063,0.189h0.19l-0.063-0.126
	h0.063C24.547,11.597,24.503,11.575,24.455,11.568z M22.055,15.352c0.102,0.041,0.215,0.041,0.316,0
	c0.04-0.055,0.063-0.121,0.063-0.189c0.171,0.001,0.341,0.022,0.506,0.063c0.028-0.41,0.063-0.9,0.063-1.387
	c0.176-0.039,0.347-0.103,0.505-0.189c-0.156-0.082-0.043,0.027-0.126-0.126c0.072-0.027,0.137-0.07,0.189-0.126
	c0.097,0.052,0.207,0.074,0.316,0.063v0.063c-0.052,0.056-0.094,0.12-0.126,0.189h0.253c0.076-0.047,0.164-0.069,0.253-0.063
	c0.084-0.387,0.226-0.7,0.316-1.135c-0.435-0.181-0.15-0.667-0.569-0.883c-0.17,0.156-1.517,0.946-1.517,0.946
	c-0.11-0.083-0.101-0.109-0.189-0.063c-0.373,0.094-0.344,0.353-0.315,0.82c-0.043,0.445-0.001,0.895,0.126,1.324L22.055,15.352z
	 M24.646,11.757v0.126C24.746,11.808,24.722,11.857,24.646,11.757L24.646,11.757z M21.676,11.883
	c-0.017,0.13,0.005,0.261,0.063,0.378C21.755,12.131,21.733,12,21.676,11.883L21.676,11.883z M21.992,11.883v0.631h0.063
	c0.159-0.089,0.257-0.259,0.253-0.441c-0.034-0.035-0.056-0.079-0.063-0.126C22.157,11.94,22.072,11.918,21.992,11.883
	L21.992,11.883z M24.646,11.946c0.034,0.034,0.079,0.056,0.126,0.063C24.738,11.975,24.693,11.953,24.646,11.946L24.646,11.946z
	 M24.646,12.072c0.034,0.034,0.079,0.056,0.126,0.063C24.738,12.101,24.693,12.079,24.646,12.072L24.646,12.072z M24.52,12.135
	v0.126h0.063c-0.007-0.048-0.03-0.092-0.065-0.126H24.52z M21.676,12.45c-0.001,0.068,0.021,0.135,0.063,0.189
	C21.74,12.57,21.717,12.504,21.676,12.45L21.676,12.45z M24.583,15.477h0.189c0.081-0.799,0.06-1.606-0.063-2.4
	c-0.122,0.365-0.165,0.752-0.126,1.135c-0.185,0-0.088-0.061-0.19,0c0.034,0.034,0.056,0.079,0.063,0.126
	c-0.2,0-0.085-0.107-0.19,0.063c-0.114,0.213-0.062,0.478,0.126,0.631c-0.065,0.294-0.043,0.601,0.063,0.883v-0.122
	C24.54,15.71,24.585,15.596,24.583,15.477L24.583,15.477z M36.4,13.144h0.126v0.063c-0.048-0.006-0.094-0.028-0.128-0.063H36.4z
	 M5.561,13.27c-0.034,0.034-0.078,0.056-0.126,0.063V13.4h13.271c0.819-0.065,1.644-0.065,2.464,0v-0.067
	c-0.291-0.063-0.589-0.084-0.885-0.063c-0.233,0.021-0.468,0.021-0.7,0c-0.757,0.065-1.517,0.086-2.275,0.063
	c-0.311-0.068-0.631-0.089-0.948-0.063c-1.072,0.075-2.147,0.096-3.223,0.063c-0.292-0.048-0.589-0.069-0.885-0.063
	c-0.594,0.127-1.447-0.134-2.085,0c-0.453,0.1-0.918-0.069-1.453,0C7.665,13.348,6.611,13.348,5.561,13.27z M21.675,13.964
	c-0.013,0.109,0.01,0.219,0.063,0.315C21.75,14.17,21.729,14.06,21.675,13.964z M21.675,14.464
	c-0.001,0.068,0.021,0.135,0.063,0.189v-0.184h-0.063V14.464z M3.792,15.221c-0.002-0.108-0.023-0.215-0.063-0.315
	c-0.217,0.084-0.464,0.035-0.632-0.126v0.189c0.066,0.094,0.109,0.202,0.126,0.315h0.126c0.14-0.06,0.293-0.08,0.443-0.059V15.221z
	 M4.929,15.284C4.88,15.327,4.788,15.367,4.74,15.41c0.278,0.076,0.577,0.03,0.82-0.126H5.371c-0.141,0.062-0.301,0.063-0.442,0.004
	V15.284z M6.256,15.284c0.315,0.146,0.669,0.19,1.011,0.126h13.97v-0.059c-0.311-0.065-0.63-0.087-0.947-0.063
	c-0.253,0.02-0.506,0.02-0.758,0c-0.526,0.02-1.193-0.026-1.77,0l-0.506,0.063c-0.311-0.073-0.631-0.094-0.948-0.063
	c-0.967,0.191-2.091-0.193-3.16,0c-0.776,0.096-1.562,0.096-2.338,0c-0.505-0.069-1.019-0.048-1.517,0.063l-0.7-0.063
	c-0.741,0.053-1.514,0.012-2.337,0V15.284z M30.016,15.536c0.071,0.066,0.182,0.066,0.253,0H30.016L30.016,15.536z M22.37,15.599
	c-0.001,0.068,0.021,0.135,0.063,0.189C22.434,15.72,22.411,15.654,22.37,15.599L22.37,15.599z M29.763,16.671h0.506V15.73h-0.442
	c-0.065,0.311-0.087,0.629-0.063,0.946V16.671z M22.37,16.608c0.149-0.005,0.299,0.016,0.441,0.063v-0.563
	c-0.159,0.042-0.328-0.007-0.441-0.126v0.631V16.608z M24.392,16.8c0.104,0.024,0.212,0.024,0.316,0
	c0.033-0.034,0.056-0.078,0.063-0.126h-0.189c-0.027-0.13-0.069-0.257-0.126-0.378h-0.063v0.5V16.8z M16.62,16.359
	c0.071,0.067,0.182,0.067,0.253,0H16.62z M16.936,16.359c0.349,0.115,0.726,0.115,1.074,0H16.936L16.936,16.359z M19.464,16.359
	c-0.052,0.163-0.052,0.337,0,0.5h0.379l0.063-0.189h0.189c0.121,0.038,0.119,0.345,0.379,0.063h0.063V16.8
	c0.066,0.059,0.13,0.123,0.189,0.189c0.052-0.2-0.031-0.1,0.126-0.189c0.309-0.087,0.631-0.108,0.948-0.063
	c-0.022-0.121,0.026-0.243,0.126-0.315C21.157,16.418,20.314,16.363,19.464,16.359L19.464,16.359z M3.35,16.422
	c-0.001,0.068,0.021,0.135,0.063,0.189C3.413,16.543,3.391,16.477,3.35,16.422L3.35,16.422z M19.274,16.422
	c-0.02,0.15,0.002,0.303,0.063,0.441C19.357,16.713,19.335,16.561,19.274,16.422L19.274,16.422z M7.9,16.485
	c-0.075,0.047-0.164,0.069-0.253,0.063v0.063h0.126c0.056,0.123,0.182,0.199,0.316,0.189c0.13-0.157,0.308-0.268,0.506-0.315h-0.7
	H7.9z M11,16.485c0.108,0.056,0.081,0.056,0.189,0H11z M18.141,16.485c-0.017,0.129,0.006,0.261,0.063,0.378
	c0.015-0.129-0.009-0.26-0.067-0.376L18.141,16.485z M17.757,17.559h0.253V16.55h-0.316v0.063
	C17.781,16.92,17.803,17.243,17.757,17.559z M7.204,16.676c-0.076,0.047-0.164,0.069-0.253,0.063V16.8
	c0.1,0.071,0.039,0.006,0,0.126h0.821L7.837,16.8C7.643,16.697,7.423,16.654,7.204,16.676z M29.763,16.739
	c0.158,0.086,0.349,0.086,0.506,0H29.763z M6.063,16.991c-0.054,0.041-0.2,0.084-0.253,0.126c0.254,0.008,0.347,0.034,0.442-0.126
	H6.067H6.063z M7.963,16.991l0.062,0.189h0.064v-0.189H7.963L7.963,16.991z M25.593,16.991c0.38-0.023,0.762-0.002,1.137,0.063
	v0.063C26.349,17.132,25.585,17.2,25.593,16.991z M29.511,17.369c-0.017,0.129,0.005,0.261,0.063,0.378
	C29.591,17.618,29.569,17.486,29.511,17.369z M24.456,17.432l0.063,0.189c0.054-0.055,0.118-0.099,0.19-0.126v-0.063H24.456
	L24.456,17.432z M29.763,17.5v0.441c0.089,0.007,0.178-0.015,0.253-0.063c-0.16-0.092-0.1-0.028-0.126-0.252
	c0.068,0.001,0.136-0.021,0.19-0.063L29.763,17.5z M0.442,17.563v0.5l0.195,0.126V18c-0.082-0.139-0.146-0.287-0.194-0.441
	L0.442,17.563z M25.342,17.626L25.277,18h0.126c0.017-0.13-0.007-0.261-0.065-0.378L25.342,17.626z M17.696,17.752
	c0.134,0.134,0.324,0.2,0.442,0h-0.444H17.696z M26.669,17.752c0.052,0.2-0.031,0.1,0.126,0.189v-0.193h-0.128L26.669,17.752z
	 M28.183,18c-0.036,0.254-0.015,0.513,0.063,0.757C28.282,18.503,28.261,18.244,28.183,18z M26.666,18.063
	c0.034,0.034,0.078,0.056,0.126,0.063C26.758,18.092,26.714,18.07,26.666,18.063L26.666,18.063z M17.819,18.126v0.189h0.318v-0.189
	H17.819L17.819,18.126z M6.002,18.378c-0.049,0.043-0.142,0.083-0.19,0.126c0.13,0.017,0.262-0.005,0.379-0.063L6.002,18.378z
	 M17.819,18.378V18.5h0.318v-0.122H17.819L17.819,18.378z M26.539,18.63v0.252h0.128c0.084-0.112,0.1,0.029,0.126-0.252h-0.256
	H26.539z M26.728,19.13c0.476,0.134,0.979,0.134,1.453,0H26.73H26.728z M34.437,20.523c0.286,0.105,0.6,0.105,0.885,0H34.437z
	 M16.177,21.596v0.252h0.126c0.055-0.041,0.122-0.063,0.19-0.063v-0.188H16.177z M19.084,21.596c0.052,0.199-0.031,0.1,0.126,0.188
	v-0.188H19.084z M24.645,21.596v0.252h0.253l0.063-0.252H24.645z M28.753,21.596c0.136,0.082,0.306,0.082,0.441,0H28.753
	L28.753,21.596z M31.66,21.596c0,0.182-0.062,0.088,0,0.188v0.063h0.063v-0.252H31.66L31.66,21.596z M32.039,21.596
	c-0.008,0.086-0.028,0.172-0.063,0.252h0.126v-0.063c0.052-0.056,0.095-0.12,0.126-0.188h-0.19H32.039z M36.273,21.658
	c-0.001,0.068,0.021,0.135,0.063,0.189C36.337,21.778,36.315,21.712,36.273,21.658L36.273,21.658z M36.399,21.784
	c0.034,0.034,0.079,0.056,0.126,0.063C36.49,21.813,36.446,21.791,36.399,21.784L36.399,21.784z M30.899,21.91v0.314h0.128
	c0.002-0.107,0.023-0.215,0.063-0.314h-0.189H30.899z M31.215,21.973V22.1h0.063c-0.005-0.048-0.026-0.092-0.061-0.127H31.215z
	 M4.928,22.036c0.068-0.001,0.136,0.021,0.19,0.063C5.05,22.1,4.984,22.078,4.928,22.036L4.928,22.036z M31.528,22.036
	c-0.007,0.089,0.016,0.177,0.063,0.252c0.01-0.088-0.009-0.177-0.054-0.252H31.528z M14.787,22.1v0.127h0.063V22.1H14.787z
	 M24.645,22.1v0.252h0.126V22.1H24.645z M31.845,22.1c0.002,0.108,0.023,0.215,0.063,0.315h0.063v-0.063
	c0.048-0.075,0.07-0.163,0.066-0.252h-0.19H31.845z M29.001,22.163c-0.007,0.134,0.068,0.259,0.189,0.315v-0.254L29.001,22.163z
	 M5.437,22.288c-0.027,0.191-0.005,0.387,0.063,0.567C5.528,22.664,5.505,22.469,5.437,22.288z M22.878,22.414v0.252h0.126
	c0.013-0.103-0.038-0.203-0.129-0.252H22.878z M24.205,23.423c0.142,0.15,0.068,0.022,0.063,0.252h-0.065v-0.252H24.205z
	 M24.395,23.486c0.085,0.156,0.085,0.344,0,0.5V23.486z"/>
</svg>
