<svg xmlns="http://www.w3.org/2000/svg" width="80" height="40" viewBox="0 0 80 40">
  <defs>
    <style>
      .cls-1 {
        fill: #fff;
        fill-rule: evenodd;
      }
    </style>
  </defs>
  <path id="Color_Fill_1" data-name="Color Fill 1" class="cls-1" d="M53.333,7.1a2.868,2.868,0,0,1,1.252.1A2.869,2.869,0,0,1,53.333,7.1Zm0.481,0.385a6.293,6.293,0,0,1,.1,2.215v0.1h-0.1V7.481Zm0.1,2.7a4.565,4.565,0,0,1,0,2.407V10.178ZM59.4,21.348a2.54,2.54,0,0,1,.289-0.77l1.059,0.385c-0.02.322-.207,0.231,0.1,0.385a0.347,0.347,0,0,1,.193-0.1c0.011-.374-0.09-0.11.1-0.385l0.481,0.1v0.289a47.291,47.291,0,0,0,6.065.289V21.83c-1.732-.04-5.044-0.3-6.065.289h0.193c0.618,0.535,1.134-.028,1.829.385-0.3.368,0.049,1.323-.1,1.83h0.674a2.816,2.816,0,0,1,.1-1.059,4.794,4.794,0,0,1,2.31,0,3.6,3.6,0,0,0,.867-0.1,21.921,21.921,0,0,0,2.214.1v1.059h0.192V24.141c0.142-.106.314,0.265,0.385,0.289h0.866V24.044h0.1c0.449,0.3,1.41-.05,2.022.1,0,0-.138.185,0.193,0.289a0.747,0.747,0,0,0,.578-0.1,0.806,0.806,0,0,1-.481-0.1,1.509,1.509,0,0,0,.77-0.289,1.507,1.507,0,0,0,.77.385,1.247,1.247,0,0,0-.674.1l1.155-.1V23.852a0.917,0.917,0,0,0,.289-0.385h0.192c0.194,0.842.051,1.18,1.059,1.156a5.68,5.68,0,0,0,2.792.1,1.221,1.221,0,0,0,.1.385c-2.543.94-1.511,5.941-4.717,6.837-1.564.437-4.446,0.1-6.257,0.1H60.746a23.664,23.664,0,0,1-4.332-.1l-17.329-.193a18.3,18.3,0,0,0-3.273-.1l-3.466-.1H30.229c-1.151-.246-2.771.175-4.043-0.1-1.09-.232-2.64.161-3.851-0.1a19.519,19.519,0,0,0-6.45.289l-1.251-.1c-2.387.492-5.266,0.12-7.605,0.578v0.289a0.491,0.491,0,0,1,.1.289,1.185,1.185,0,0,0-.866.193v-0.1a1.034,1.034,0,0,0,.193-0.674H6.258a2.769,2.769,0,0,0-.578,0,0.9,0.9,0,0,1-.481.77,1.324,1.324,0,0,1-.963,0c-0.606-1.021-.128-2.313-0.1-3.756a1.246,1.246,0,0,0,.674-0.1,1.363,1.363,0,0,1-1.155-.192A1.735,1.735,0,0,1,4.14,28.57v0.1a0.588,0.588,0,0,0-.193.193H4.813a4.956,4.956,0,0,0,.578-0.289,1.6,1.6,0,0,0,0-.963h-0.1a0.729,0.729,0,0,1-.481.385V27.9h0.1a1.324,1.324,0,0,0,.481-1.156c-0.459-.773-0.305-2.349-1.251-2.6a12.774,12.774,0,0,1-3.081,1.733A7.849,7.849,0,0,0,0,23.852l3.273-1.83a0.65,0.65,0,0,1-.1-0.385H3.466L5.1,24.815l-0.193-.1v0.1c0.165,0.213.215,0.561,0.385,0.77a0.622,0.622,0,0,1,.1-0.385,0.33,0.33,0,0,0,.1.193v-0.77l0.866-.1a1.5,1.5,0,0,1,.1-0.77,5.419,5.419,0,0,0,.1,1.156,0.806,0.806,0,0,1,.481.1c-0.312.08-.147-0.047-0.289,0.193-0.084-.071-0.109-0.121-0.193-0.193v0.77a0.806,0.806,0,0,1,.481.1,1.015,1.015,0,0,0-.578.1H7.22c-0.038-.218-0.088-0.1,0-0.289,0.371,0.568,2.341.037,3.177,0V25.393l1.444-.1a0.466,0.466,0,0,0,.1.289,3.742,3.742,0,0,1,.1-1.541c0.01,0.655,0,.834,0,1.541h0.289c-0.05-.367-0.135-0.405-0.192-0.77h0.1v0.193a0.842,0.842,0,0,0,.578.578,1.272,1.272,0,0,1,.674-0.1V25.2H14.44V25.1h0.1v-0.77a0.958,0.958,0,0,1-.866-0.1,4.58,4.58,0,0,1-.193-0.578,0.33,0.33,0,0,0,.193-0.1l-0.289.1c-0.111-.257-0.185-0.2-0.289-0.482a6.121,6.121,0,0,0,1.733-.289A6.046,6.046,0,0,1,12.8,22.6H8.087V22.311c1.357,0.024,3.345.106,4.525,0.1,0.317,0,1.15-.325,1.54-0.385V21.733a3.05,3.05,0,0,1,.674,0c-0.038.218-.088,0.1,0,0.289a0.491,0.491,0,0,0,.289.1c-0.006-.28-0.093-0.134,0-0.289a1.99,1.99,0,0,1,.963-0.482c0.325,1.211.811,0.556,1.251,1.059a11.93,11.93,0,0,1,.578,1.83H17.714a6.153,6.153,0,0,1-1.444.1V25.1a3.164,3.164,0,0,0,.963.1c0.265,0.158,3.823-.177,4.717-0.193V23.37c0.33-.059.209-1.716,0.192-2.407h0.1c0,0.947.009,1.659,0,2.407a2.071,2.071,0,0,0,.674.1,6.054,6.054,0,0,1,.77,0c-0.013-.708-0.174-2.95.1-3.37a12.135,12.135,0,0,0,.1,3.37h0.193a0.465,0.465,0,0,1,.1-0.289c0.464,0.742,2.662.79,2.792,1.444-0.245.14-.109-0.021-0.193,0.289a15.6,15.6,0,0,0,2.792-.1v-2.6a1.888,1.888,0,0,0,.192-0.385h0.1v0.193a2.29,2.29,0,0,0-.193,1.348H30.71c0.16-.507.222-0.942,0.77-0.963,0,0.276-.09.25,0.385,0.289a0.88,0.88,0,0,1,0-.674l0.1,0.674H33.6c0.111-.114-0.077-0.23.192-0.193a2.08,2.08,0,0,0,1.348.193c1.219,0,3.017.251,4.043-.1-0.038-.218-0.088-0.1,0-0.289a0.491,0.491,0,0,0,.289.1l-0.1.193h0.1c0.12-.01,1.086.095,1.637,0.1l0.1-.482c-0.346-.114-0.352-0.145-0.385-0.578H40.433V21.252h-0.1v-0.1H40.144a0.414,0.414,0,0,1-.385.385v-0.1a0.455,0.455,0,0,0,.193-0.481H39.567v-0.1h0.1c0.151-.12.049-0.062,0.193,0a6.916,6.916,0,0,0,1.637.481V21.156a3.2,3.2,0,0,0,.193-0.578,0.491,0.491,0,0,1,.289-0.1,0.491,0.491,0,0,0,.289.1,2.772,2.772,0,0,1,0,.77h0.193a0.807,0.807,0,0,1,.1-0.481c0.04,0.345-.045.242,0.193,0.385,0.826,0.5,2.578-.208,3.369.289-1.468,0-2.275.048-3.466,0a2.931,2.931,0,0,0,.1.674H42.551a0.623,0.623,0,0,0-.1-0.385,0.8,0.8,0,0,0-.481.578c0.852,0.575,3.175.306,4.525,0.289a2.073,2.073,0,0,0,.1-0.674H46.306V21.541a2.929,2.929,0,0,1,.674.1,3.33,3.33,0,0,1,.289,1.83h0.1V20.193a1.468,1.468,0,0,1,1.059-.289,0.33,0.33,0,0,0,.1.193,0.331,0.331,0,0,1-.1.193,0.833,0.833,0,0,1-.481.1v2.407h0.1A2.636,2.636,0,0,1,49,21.83a5.038,5.038,0,0,0,1.059,0c0.1-.156-0.012-0.455.1-0.674,0.315-.635.862,0.006,0.867-1.348a3.984,3.984,0,0,1-.1-1.541,10.939,10.939,0,0,1,.1-3.37h0.1v2.5a8.794,8.794,0,0,1,.193,2.889H51.5c0.524-.7,1.43-0.7,2.7-0.674,0.009-2.984.1-5.222,0.1-7.7h0.193v1.926a4.892,4.892,0,0,1,.1,1.83l0.1,3.852a7.491,7.491,0,0,0,2.022.1v0.1h0.1a12.161,12.161,0,0,0,.674,2.5c0.187-.092-0.023-0.063.1-0.193,0.134-.146.091,0.186,0.1,0.193,0.645,0.2.219-.262,0.674,0,0.019-.4.01-0.44,0.289-0.578A1.252,1.252,0,0,1,59.4,21.348Zm-5.391-8.667a0.347,0.347,0,0,1,.1.193h-0.1V12.682Zm0,0.385a4.821,4.821,0,0,1,0,2.5C54,14.862,54.008,14.007,54.007,13.067Zm-2.7,1.83a0.621,0.621,0,0,1,.385.1A0.622,0.622,0,0,1,51.312,14.9Zm3.081,0.578v0.193h0.1V15.474h-0.1Zm0,0.289v3.852h0.193V18.556C54.194,17.912,54.789,16.4,54.392,15.763ZM40.433,20.77a2.023,2.023,0,0,1,.963.1A2.024,2.024,0,0,1,40.433,20.77Zm19.35,0a0.348,0.348,0,0,0,.193.1A0.346,0.346,0,0,0,59.783,20.77Zm-18.676.193c0.034,0.029.192,0.05,0.1,0.193C41.1,21.109,40.9,20.985,41.107,20.963Zm18.58,0.193a0.348,0.348,0,0,0,.193.1A0.347,0.347,0,0,0,59.687,21.156Zm-29.17.1a1.961,1.961,0,0,1,.867.193v0.1H31.191C31.022,21.413,30.692,21.38,30.517,21.252Zm-0.289.1a0.466,0.466,0,0,1,.289.1A0.465,0.465,0,0,1,30.229,21.348Zm-0.192.1h0.192a1.174,1.174,0,0,1-.385.385A1.292,1.292,0,0,1,30.036,21.444Zm1.348,0.1h0.192C31.462,21.7,31.536,21.659,31.384,21.541Zm10.108,0.1a3.35,3.35,0,0,0,.289.289,0.329,0.329,0,0,0,.193-0.1c0.238-.125.066,0.041,0.193-0.193H41.492Zm16.655,0a0.492,0.492,0,0,1,.1.289h-0.1V21.637Zm0.866,0a0.648,0.648,0,0,1-.385.1,1.362,1.362,0,0,0-.1.385,0.33,0.33,0,0,1,.193.1,0.33,0.33,0,0,0,.193-0.1,1.838,1.838,0,0,0,.289-0.385Zm-43.129.1a0.347,0.347,0,0,0,.193.1A0.348,0.348,0,0,0,15.885,21.733Zm15.788,0.1a0.348,0.348,0,0,1,.1.193h-0.1V21.83Zm26.089,0.193h0.193v0.1A0.33,0.33,0,0,1,57.762,22.022Zm1.348,0.1a0.347,0.347,0,0,0,.193.1A0.347,0.347,0,0,0,59.11,22.119Zm1.829,0a0.509,0.509,0,0,0,.578,0H60.939Zm2.118,0.1a1.015,1.015,0,0,1,.578.1A1.015,1.015,0,0,1,63.057,22.215Zm-45.632.193a0.465,0.465,0,0,1,.289.1A0.465,0.465,0,0,1,17.425,22.407Zm-0.77.1,0.193,0.578,0.289-.1a1.365,1.365,0,0,0,.1-0.385h-0.1V22.5H16.655Zm0.867,0.1a0.492,0.492,0,0,1,.1.289h-0.1V22.6Zm6.354,0a0.347,0.347,0,0,1,.1.193h-0.1V22.6Zm-1.54.193,0.289,0.1v0.1A0.366,0.366,0,0,1,22.335,22.793Zm-5.872.1a0.347,0.347,0,0,0,.192.1A0.346,0.346,0,0,0,16.462,22.889Zm7.509,0a0.347,0.347,0,0,1,.1.193h-0.1V22.889Zm-7.413.289v0.482a2.416,2.416,0,0,0-.481.193h0.481a1.111,1.111,0,0,0,.193-0.674H16.558Zm6.258,0a0.347,0.347,0,0,1,.1.193h-0.1V23.178Zm-8.279.193a0.806,0.806,0,0,0,.1.482A0.806,0.806,0,0,0,14.537,23.37Zm15.114,0.1v1.348a1.22,1.22,0,0,0,.385-0.1c-0.038-.282-0.158-0.121.1-0.289a12.224,12.224,0,0,0,1.637,0c0,0.3-.163.13,0.1,0.289V24.237a4.159,4.159,0,0,1-.77,0c-0.157-.184-0.148-0.557-0.289-0.77v0.193c-0.133.134-.095-0.172-0.1-0.193H29.651Zm-13,.481a0.346,0.346,0,0,1-.192.1v0.1h0.289A0.33,0.33,0,0,0,16.655,23.948Zm15.307,0.289v0.482l2.214-.193V24.333c0.31-.1.208,0.162,0.289,0.193l3.369,0.1V24.237H31.962Zm7.509,0.385a2.866,2.866,0,0,0,1.637-.289v-0.1H39.663a0.347,0.347,0,0,1-.193.1v0.289Zm6.258-.1V24.237H42.166v0.1h0.1C42.789,24.8,44.823,24.542,45.728,24.526ZM5.1,24.815a0.347,0.347,0,0,1,.1.193H5.1V24.815Zm0.1,0.193a0.347,0.347,0,0,1,.1.193H5.2V25.007ZM6.835,25.3a0.372,0.372,0,0,1,.193.289h-0.1v-0.1A0.347,0.347,0,0,1,6.835,25.3Zm-1.444.674a0.348,0.348,0,0,0,.193.1A0.347,0.347,0,0,0,5.391,25.97Zm-0.77,2.022H4.813a0.274,0.274,0,0,1-.1.1,0.884,0.884,0,0,1-.578.482ZM5.2,29.052c0.037,0.244-.056.152,0.289,0.193V29.052H5.2Zm-0.193.867a1.016,1.016,0,0,0,.1.578A1.016,1.016,0,0,0,5.006,29.919Zm2.022,1.83a15.747,15.747,0,0,0,3.658-.193h1.733c0.917-.2,2.165-0.109,3.081-0.289v-0.1a10.535,10.535,0,0,0-2.792-.1c-0.466-.284-1.564-0.037-2.214-0.1-1.216-.112-3.42.075-4.525-0.289a4.418,4.418,0,0,1-.289,1.156,1.637,1.637,0,0,1,.578.1V31.652a3.334,3.334,0,0,0-.1-0.578,1.11,1.11,0,0,1,.674-0.193A1.474,1.474,0,0,1,7.028,31.748Zm-2.022-.77a1.016,1.016,0,0,0,.1.578A1.016,1.016,0,0,0,5.006,30.978ZM15.885,31.17a2.387,2.387,0,0,0,1.54,0h-1.54Zm-10.878.867V32.23H5.1A0.33,0.33,0,0,0,5.006,32.037Z" transform="translate(0 -0.047)"/>
</svg>
