<svg xmlns="http://www.w3.org/2000/svg" width="79.938" height="40" viewBox="0 0 79.938 40">
  <defs>
    <style>
      .cls-1 {
        fill: #fff;
        fill-rule: evenodd;
      }
    </style>
  </defs>
  <path id="Color_Fill_1" data-name="Color Fill 1" class="cls-1" d="M28.509,11.247l5.351,0.691,2.807,0.086a18.3,18.3,0,0,0,5.175,0h1.667c1.6-.348,3.481-0.252,5-0.6,1.442-.335,4.893-0.438,5.789-1.123A1.349,1.349,0,0,0,54.386,9.6,0.739,0.739,0,0,1,54.3,9.173h0.175v0.951c0.366,0.584-.077,1.835.088,2.592,0.146,0.675-.082,1.723.088,2.506a19.8,19.8,0,0,1,.175,3.8h0.439a0.714,0.714,0,0,1,.088-0.432v0.432h0.614a3.024,3.024,0,0,0,.175-1.383l0.439-.086V17.469H56.491a3.97,3.97,0,0,0-.175-0.951,0.926,0.926,0,0,1,.526-0.173,1.129,1.129,0,0,1,.175.691,0.328,0.328,0,0,0-.263.346,3.828,3.828,0,0,1,.7,1.9h0.7a1.718,1.718,0,0,0-.088-0.605h0.175c-0.012.348-.048,0.473,0.175,0.605-0.006-.845,1.06-0.6,1.228-1.556a0.953,0.953,0,0,1,1.053.691h0.351a1.08,1.08,0,0,0-.088-0.346,0.3,0.3,0,0,0,.175-0.086l0.526,0.086a0.413,0.413,0,0,0,.088.259c0.8,0.618,3.044.346,4.386,0.346a10.04,10.04,0,0,1,1.491,0,0.437,0.437,0,0,1,.088.259c-1.67-.019-4.04-0.31-5.088.259-0.443.24-1.288-.163-1.667,0.086a4,4,0,0,1,1.579.086,0.937,0.937,0,0,0-.526.086H63.6a17.969,17.969,0,0,0,0,1.815h0.7V20.321a29.279,29.279,0,0,1,5.439.086,1.045,1.045,0,0,0,.175.951V21.185h0.175s0.173,0.259.175,0.259l0.877,0.086a1.225,1.225,0,0,1,.088-0.432,5.6,5.6,0,0,0,2.895,0c0.117-.067.107-0.134,0.175,0a1.979,1.979,0,0,0,1.316.259V20.926a0.823,0.823,0,0,0,.263-0.346h0.175a2.041,2.041,0,0,0,.526,1.037,7.871,7.871,0,0,0,3.333.173,0.5,0.5,0,0,1,0,.346,7.873,7.873,0,0,0-1.579,2.16c-0.717,1.666-.769,3.71-2.456,4.407-1.488.616-4.058,0.346-6.053,0.346L56.93,28.963l-30.263-.519c-1.021-.215-2.465.151-3.6-0.086a22.311,22.311,0,0,0-7.193.259c-0.761.174-1.79-.2-2.719,0-1.885.4-4.152,0.071-6.053,0.432a1.208,1.208,0,0,0-.088.346,0.437,0.437,0,0,1,.088.259,0.64,0.64,0,0,0-.789.173V29.568A0.739,0.739,0,0,0,6.4,29.136H6.316V29.049a3.511,3.511,0,0,1-.7.086c-0.119.7-.351,0.823-1.228,0.778a2.9,2.9,0,0,1-.351-0.346c-0.436-.526-0.06-1.993.088-2.593a2.694,2.694,0,0,0,0-.864h0.7V26.025H3.6V25.938H3.684c0.636-.9,1.688-0.809,1.667-2.42-0.451-.673-0.4-1.968-1.14-2.333a15.539,15.539,0,0,1-3.158,1.728A5.629,5.629,0,0,0,0,21.012V20.926H0.088A13.6,13.6,0,0,1,3.246,19.2a1.339,1.339,0,0,1-.088-0.432,0.428,0.428,0,0,1,.263.087,15.1,15.1,0,0,1,1.754,3.2H5.088a0.946,0.946,0,0,0-.175-0.259v0.173c0.161,0.179.2,0.5,0.351,0.691a0.715,0.715,0,0,1,.088-0.432V22.4a0.31,0.31,0,0,1,.088.173H5.526V21.877A0.31,0.31,0,0,1,5.439,21.7,3.292,3.292,0,0,1,6.4,21.617a0.927,0.927,0,0,1,.088-0.778c0,0.928,0,1.334,0,2.247H6.667A0.913,0.913,0,0,0,6.842,22.4a0.473,0.473,0,0,1-.263-0.346H6.667a3.523,3.523,0,0,0,.877.086H7.632a4.5,4.5,0,0,0,0,.864l2.807-.259c0.027-.424.341-0.284,0.965-0.259a0.769,0.769,0,0,1,.439-0.086,0.414,0.414,0,0,0,.088.259,3.83,3.83,0,0,1,.088-1.555c0.005,0.652,0,.862,0,1.555a11.423,11.423,0,0,1,1.491-.086V22.309h0.877a2.8,2.8,0,0,0,.088-0.864H14.386V21.358c-0.361.077-.541,0.187-0.7,0-0.074-.105,0-0.377-0.088-0.518a1.112,1.112,0,0,1-.439-0.518h0.175a6.7,6.7,0,0,1,1.4-.259h0.088V19.975H13.158a1.745,1.745,0,0,0-1.4-.259H8.07V19.457c2.087,0.013,4.333-.1,6.053-0.259V18.852a0.929,0.929,0,0,1,.526,0,0.576,0.576,0,0,1,.088.346h0.351c-0.005-.251-0.085-0.12,0-0.259a1.2,1.2,0,0,1,.965-0.346c0.152,0.156.189,0.46,0.351,0.6a2.224,2.224,0,0,1,.877.518,1.815,1.815,0,0,1,.351,1.21h0.263v0.432H17.719c-0.163.056-1.153,0.024-1.491,0.086v0.778H16.4c0.527,0.335,3.682-.092,4.649-0.086a15.839,15.839,0,0,1,.088-2.852h0.088v0.259a6.734,6.734,0,0,0-.088,2.506h0.877q-0.044-.778-0.088-1.556h0.351V18.852a1.562,1.562,0,0,0-1.053.432V19.111a3.547,3.547,0,0,1,1.14-.432,1.554,1.554,0,0,1,.088-0.778l0.088,0.951c-0.286.049-.192,1.147-0.175,1.728h0.526a2.964,2.964,0,0,1-.175-1.383,5.375,5.375,0,0,0,.351,1.383c1.02-.336,2.9.6,2.982,0.519,0.537-.836.484-2.642,0.789-3.716,0.571-2.008.939-4.323,1.491-6.309a10.955,10.955,0,0,0,0-2.074h0.175V9.259A4.2,4.2,0,0,0,28.509,11.247ZM46.316,19.8V19.025H46.4a4.062,4.062,0,0,0,.614.259V18.333l0.614,0.086a4.6,4.6,0,0,1,.526.519,5.329,5.329,0,0,0,.175.691c0.536-.918,1.548-0.664,2.807-0.691l-0.088.173H51.14l3.07-.086V10.556H54.035c-0.655.415-1.715,0.3-2.544,0.518-2.182.573-4.728,0.527-7.105,1.037-1,.215-2.168-0.127-3.07.173a10.75,10.75,0,0,1,0,2.247v5.185C42.436,20.083,44.953,19.809,46.316,19.8Zm-14.474,0a3.485,3.485,0,0,0-.263-0.951h0.088v0.086a1.171,1.171,0,0,1,.263.864c2.234,0,4.565.005,7.193,0a0.66,0.66,0,0,1,0-.346,1.255,1.255,0,0,0,.351.086l-0.088.173h0.088c0.088-.035,1.246.081,1.754,0.086V12.284a29.76,29.76,0,0,1-5.877-.173l-2.193-.086-4.737-.6v0.086c0.2,0.355.013,1.534,0.263,2.333,0.665,2.126,1.034,4.552,1.842,6.654,0.345-.061.047-0.172,0.351,0a1.168,1.168,0,0,1,.263-0.951V19.457h0.088v0.086A1.238,1.238,0,0,0,31.842,19.8Zm-5.088,1.9a0.414,0.414,0,0,0,.088.259,0.769,0.769,0,0,0,.439.086,2.418,2.418,0,0,1,1.053-.086V14.531a13.861,13.861,0,0,0-.088-2.938,13.634,13.634,0,0,1-.7,3.284l-0.351,2.074a33.352,33.352,0,0,0-.965,4.321,1.143,1.143,0,0,1,.7.259,0.309,0.309,0,0,1,.088.173H26.754Zm27.632-2.679h0.263a45.136,45.136,0,0,0-.175-4.58c-0.059-.638.207-1.788-0.088-2.247v6.827ZM28.509,21.963h0.965a5.605,5.605,0,0,0,.088-1.556,1.249,1.249,0,0,1,.088-1.037v1.123h0.7V20.321a5.434,5.434,0,0,1-.351-1.3,47.734,47.734,0,0,1-1.491-5.444H28.421v0.346C28.662,14.357,28.51,19.949,28.509,21.963ZM59.825,17.9a0.318,0.318,0,0,0,.175.087A0.318,0.318,0,0,0,59.825,17.9Zm-0.088.173a0.319,0.319,0,0,0,.175.086A0.318,0.318,0,0,0,59.737,18.074Zm-29.386.346a2.208,2.208,0,0,1,1.053.173v0.086H31.228a3.278,3.278,0,0,0-1.053-.173A0.3,0.3,0,0,0,30.351,18.42Zm-14.561.259a0.317,0.317,0,0,0,.175.086A0.318,0.318,0,0,0,15.79,18.679Zm15.614,0h0.175C31.475,18.818,31.542,18.785,31.4,18.679ZM58.509,19.2a1.552,1.552,0,0,1,.439.173,0.964,0.964,0,0,1,.263-0.518H59.123V18.765a1.628,1.628,0,0,1-.526.087v0.086H58.509V19.2Zm-42.632-.346a0.319,0.319,0,0,0,.175.086A0.317,0.317,0,0,0,15.877,18.852Zm6.667,0a0.25,0.25,0,0,1,0,.346V18.852Zm7.193,0.086a0.31,0.31,0,0,1,.088.173H29.737V18.938Zm-0.088.173a0.436,0.436,0,0,1,.088.259H29.649V19.111Zm29.474,0c0.073,0.281-.043.132,0.175,0.259V19.284C59.222,19.22,59.2,19.175,59.123,19.111Zm-41.579.432a0.574,0.574,0,0,1,0,.6v-0.6Zm-0.965.086c0.088,0.161.181,0.331,0.263,0.518a0.3,0.3,0,0,0,.175-0.086c0.252-.1.162-0.015,0.263-0.259H17.193C17.061,19.579,16.93,19.62,16.579,19.63Zm0,0.259c-0.075.131-.25,0.064-0.088,0.173a0.318,0.318,0,0,0,.175.086A0.414,0.414,0,0,0,16.579,19.889Zm0,0.346-0.088.518H16.4a0.414,0.414,0,0,0-.088-0.259,1.083,1.083,0,0,0,.088.346,0.574,0.574,0,0,0-.351.086h0.526a0.9,0.9,0,0,0,.175-0.518C16.678,20.343,16.655,20.3,16.579,20.235Zm-2.017.259a0.715,0.715,0,0,0,.088.432A0.715,0.715,0,0,0,14.561,20.494ZM29.649,20.58v1.3H30V21.7c-0.062-.134-0.011-0.012,0-0.259,0.252,0.1.462,0.161,0.614-.086-0.122-.175-0.137-0.519-0.263-0.691A1.408,1.408,0,0,0,29.649,20.58Zm2.105,0.864a1.083,1.083,0,0,1-.088.346h0.175V21.272a2.751,2.751,0,0,1-.789,0c-0.143-.165-0.135-0.5-0.263-0.691-0.143.218,0,.037-0.263,0v0.173l0.263,0.778h0.526A0.769,0.769,0,0,1,31.754,21.444ZM16.491,21.1c0.034,0.219-.051.136,0.263,0.173V21.1H16.491ZM31.93,21.272a0.983,0.983,0,0,1,0,.518h1.053c1.077-.671,2.052.113,3.333-0.173,0.519-.116,1.194.352,1.491-0.086-0.507-.063-0.224-0.144-0.439-0.259H31.93ZM45.7,21.531V21.272l-1.491.086v0.173H44.3A2.553,2.553,0,0,0,45.7,21.531Zm-1.579.086V21.358l-2.632.086v0.173h2.632Zm28.86-.259a1.414,1.414,0,0,0,1.053,0H72.983Zm-33.509.086V21.7H41.14l0.088-.259H39.474Zm1.842,0v0.173H41.4A0.3,0.3,0,0,0,41.316,21.444Zm33.158,0a1.058,1.058,0,0,0,.877,0H74.474Zm-62.368.432a0.9,0.9,0,0,1,.263.605H12.281V22.309A0.579,0.579,0,0,1,12.105,21.877Zm-6.93.173a0.31,0.31,0,0,1,.088.173H5.175V22.049ZM6.93,22.914c0.151,0.076.112,0.077,0.263,0H6.93Zm0.351,0c0.151,0.076.112,0.077,0.263,0H7.281ZM5.263,24.642c-0.363.529-1.04,0.771-1.4,1.3H4.737c0.186-.349.379-0.15,0.614-0.259a2.316,2.316,0,0,0,.088-1.037H5.263ZM5.175,26.025l-0.088.259H5.439V26.111H5.351A0.318,0.318,0,0,0,5.175,26.025ZM5,26.889a1.1,1.1,0,0,0,.088.6A1.1,1.1,0,0,0,5,26.889Zm0.965,0.864L5.7,28.79a1.511,1.511,0,0,1,.526.086,4.991,4.991,0,0,1,0-.951l0.526-.086c0.059,0.1.226,0.181,0.263,0.259v0.6H7.193a4.979,4.979,0,0,0,1.842,0,33.886,33.886,0,0,0,4.825-.346c0.619-.134,1.3.2,1.579-0.259h-1.4c-0.573-.349-1.8.071-2.544-0.087A28.426,28.426,0,0,0,5.965,27.753ZM5,27.926a1.1,1.1,0,0,0,.088.605A1.1,1.1,0,0,0,5,27.926ZM15.877,28.1v0.173h1.228V28.185A4.4,4.4,0,0,0,15.877,28.1ZM5,28.963a0.414,0.414,0,0,0,.088.259V28.963H5Z" transform="translate(0 0.547)"/>
</svg>
