<svg xmlns="http://www.w3.org/2000/svg" width="80" height="40" viewBox="0 0 80 40">
  <defs>
    <style>
      .cls-1 {
        fill: #fff;
        fill-rule: evenodd;
      }
    </style>
  </defs>
  <path id="Color_Fill_1" data-name="Color Fill 1" class="cls-1" d="M41.062,7.407a9.8,9.8,0,0,1,3.742.711c2.313,0.724,4.751,1.032,6.979,1.728l2.933,0.61c4.258,1.3,8.8,1.927,13.148,3.252,2.554,0.778,5.221,1.179,7.889,1.931a18.881,18.881,0,0,0,3.641.915c0.084,0.33-.05.155,0.2,0.3a0.365,0.365,0,0,1,.2-0.1v4.065c-0.419.68,0.077,2.014,0.2,2.439-0.509.532-.3,1.58-0.506,2.439a4.4,4.4,0,0,1-1.416,2.845c-2.371,1.663-6.337.989-9.709,1.728H66.448c-0.983.213-2.43-.138-3.54,0.1-1.79.387-4.288,0.1-6.27,0.1H37.724V29.663c-5.776-.025-12.3-0.973-17.5.3-0.941.231-2.371-.04-3.439,0.2H15.474c-1.549.346-3.51,0.155-5.057,0.508-0.987.225-1.976-.028-2.731,0.3l0.2,0.61a1,1,0,0,0-.91.407V31.7a1.351,1.351,0,0,0,.1-0.711l-1.113.1c-0.092.65-.114,0.927-0.91,0.915a1.357,1.357,0,0,1-.607-0.61c-0.44-.578-0.054-2.208.1-2.947a2.94,2.94,0,0,0-.2-1.321h0.91v-0.1a0.481,0.481,0,0,1-.2-0.508,1.751,1.751,0,0,1,.809-0.407,2.337,2.337,0,0,1-.2-0.61c0.2-.253.167,0.038,0.2-0.508h-0.1v-0.1c-0.294.006-.14,0.1-0.3,0a0.52,0.52,0,0,1-.1-0.3h0.4l-0.1-1.626H5.36l-0.1-1.016h-0.4a26.775,26.775,0,0,1-4.551.61L0,19.4a19.039,19.039,0,0,0,5.461-1.016v0.2a12.1,12.1,0,0,1,.4,3.15h0.2v-0.3l8.6-.915v-0.3H14.058v-0.2c1.846-.034,3.911-0.035,5.765,0v0.3a44.272,44.272,0,0,0,5.36-.406H26.6a7.057,7.057,0,0,0,.607-0.508c1.022-.639,2.053-1.215,3.034-1.829,2.413-1.512,4.864-2.759,7.282-4.268,1.081-.675,2.227-1.769,3.54-2.134a0.4,0.4,0,0,0,.3.406v-0.2a0.346,0.346,0,0,1-.2-0.1c0.727-.694-0.58-3.889-0.3-4.167a0.364,0.364,0,0,1,.2-0.1V7.407Zm-0.607-.1a0.487,0.487,0,0,1,.3.1A0.488,0.488,0,0,1,40.455,7.3Zm0.2,0.2a0.3,0.3,0,0,1,0,.406V7.508ZM53.2,19.094V16.756H53a2.066,2.066,0,0,1-.4.2c0.039-.339.1-0.288-0.4-0.3-0.19.181-.08,0.188-0.3,0.1a3.811,3.811,0,0,1-.2-0.61h0.506c0.279,0.46,2.669-.208,3.337.2a0.885,0.885,0,0,0-.91.2,0.346,0.346,0,0,1,.2.1,3,3,0,0,0-1.315.1,6.2,6.2,0,0,0-.1,2.337c2.057,0.127,4.713.177,6.776,0.2h3.742c1.913,0.418,4.168.069,6.169,0.508,1.149,0.252,2.467.026,3.742,0.3a32.282,32.282,0,0,0,5.461.508c0.039,0.257-.059.16,0.3,0.2a23.832,23.832,0,0,1,0-3.862h-0.3c-0.23.321-1.769-.133-2.326-0.3C74.845,16,72.584,15.7,70.392,15.029c-6.72-2.057-13.922-3.146-20.632-5.183-2.879-.874-6.24-1.033-8.7-2.337V7.915a11.708,11.708,0,0,1,.607,2.236l0.2-.1v0.1a0.519,0.519,0,0,1,.1.3c-0.278.27-.116,0.392-0.1,0.813h0.1c0.166-.227.173-0.306,0.4-0.2,0.815,0.294,1.279,1.24,1.922,1.728,1.862,1.414,3.4,3.162,5.259,4.573a24.2,24.2,0,0,0,1.821,1.728H53.2ZM40.759,7.915a0.41,0.41,0,0,1,0,.508V7.915Zm0.1,0.508a0.3,0.3,0,0,1,0,.407V8.423Zm0.1,0.508a0.3,0.3,0,0,1,0,.407V8.931Zm0.1,0.407a0.41,0.41,0,0,1,0,.508V9.337Zm0.1,0.508a0.41,0.41,0,0,1,0,.508V9.846Zm0.3,0.711a2.057,2.057,0,0,0,.1.711h0.1v-0.2C41.6,10.963,41.539,10.659,41.467,10.557Zm0.2,0.813v0.2h0.1A0.349,0.349,0,0,0,41.669,11.37Zm9.709,9.045V19.7C48.722,18.02,46.7,15.4,44.2,13.5c-0.706-.535-1.243-1.608-2.124-1.931v0.1a8.344,8.344,0,0,1,1.618,2.033c1.116,1.515,2.4,2.93,3.54,4.472,0.664,0.9,1.615,1.545,1.821,2.642h-0.1a0.833,0.833,0,0,0-.4-0.2,24.183,24.183,0,0,1-2.427-3.049c-0.554-.746-1.366-1.388-1.922-2.134-0.518-.7-1.129-1.96-1.922-2.337v0.1a7.14,7.14,0,0,1,.506,2.134c0.516,1.841.986,3.878,1.416,5.793a1.783,1.783,0,0,0,1.011.2c0.632,0.423,3.95.028,4.046-.2a0.393,0.393,0,0,1-.2-0.3h0.1a1.189,1.189,0,0,0,1.315.406,1.115,1.115,0,0,1,.4-0.61A0.681,0.681,0,0,1,51.378,20.415ZM26.7,21.126a9.27,9.27,0,0,1,2.326.3V21.024a0.488,0.488,0,0,1,.3.1,0.689,0.689,0,0,1,.1.406,0.883,0.883,0,0,0-.1.508h1.011c0.294-2.67.9-3.595,3.135-4.268,0.91-.274,2.176-0.124,2.933-0.61a0.367,0.367,0,0,0,.1-0.2,1.231,1.231,0,0,1,0-1.219,2.169,2.169,0,0,1,.708-0.1,0.364,0.364,0,0,0,.2.1v0.2c0.443,0.693-.536,1.61-0.3,1.829a2.622,2.622,0,0,0,1.82.406l0.1-.508h0.1v0.3a0.367,0.367,0,0,0-.1.2h1.82c0.1,0.026.038,0.08,0.1,0,0.677-.465.427-3.838,0.4-5.081h-0.1v0.2c-0.551.645-1.37,3.863-1.821,3.963l-0.2.1v-0.1a0.393,0.393,0,0,1-.2-0.3,5.8,5.8,0,0,0,.607-1.626c0.464-1.134.929-2.4,1.416-3.557h-0.1a20.466,20.466,0,0,1-3.54,2.134c-2.3,1.438-4.679,2.93-6.978,4.37C29.523,18.857,26.722,19.877,26.7,21.126Zm15.676-3.658a4.344,4.344,0,0,1,.1,1.22c-0.367.262-.478,0.057-0.506,0.711a4.8,4.8,0,0,1,.2,1.931h1.214a2.305,2.305,0,0,0,.3-1.321,8.38,8.38,0,0,1-.506-2.236,51.844,51.844,0,0,0-1.315-5.386l-0.3-.1v5.691a0.966,0.966,0,0,1,.3.407h0.1a3.369,3.369,0,0,1,.1-0.915h0.3ZM53.6,16.35a1.012,1.012,0,0,0,.91,0H53.6Zm-16.89.813a0.349,0.349,0,0,1-.1.2,0.386,0.386,0,0,0,.2.3v0.1h0.1V17.366C36.827,17.291,36.8,17.238,36.713,17.163Zm2.427,0.2a0.367,0.367,0,0,1,.1.2h-0.1v-0.2ZM51.479,19.7v0.711a0.487,0.487,0,0,1,.3.1,1.073,1.073,0,0,0-.3.813h1.315a1.057,1.057,0,0,1,.2-0.711l-0.1.61H53.7a0.872,0.872,0,0,0,.506.1l-0.1-.508h0.1v0.1c0.622,0.609,2.312.433,3.54,0.407,0.746,0.461,2.258-.172,3.034,0a5.691,5.691,0,0,1,.809.407,0.524,0.524,0,0,1,.4-0.61,1.469,1.469,0,0,1,.809-0.2v0.2a1.752,1.752,0,0,0-.4.711h1.011V19.907l-9.81-.2v0.1a0.727,0.727,0,0,1,.2.407H53.7v-0.1a1.178,1.178,0,0,1-.2-0.3H53.4v0.2a2.383,2.383,0,0,1,.1.915H53.2a6.12,6.12,0,0,1,0-1.22H51.479Zm12.035,0.2,0.1,1.931a18.525,18.525,0,0,1,4.147.2V21.329a1.425,1.425,0,0,1,.4-0.1v0.1h0.1a1.6,1.6,0,0,0,0,.711,6.493,6.493,0,0,0,1.517.1,16.56,16.56,0,0,0,5.866.1,1,1,0,0,0,1.214.508,9.915,9.915,0,0,0,2.528.3v-0.2a3.462,3.462,0,0,0,0-1.931c-0.815.539-3.1,0.013-4.349-.1Zm-48.546.3v0.3h1.821v-0.3H14.968Zm2.023,0v0.2a3.768,3.768,0,0,0,1.922-.2H16.991Zm2.225,0a0.4,0.4,0,0,0,.506,0H19.216Zm33.78,0a0.3,0.3,0,0,1,0,.406V20.211Zm0.809,0a0.367,0.367,0,0,1,.1.2h-0.1v-0.2Zm0.1,0.2a0.367,0.367,0,0,1,.1.2h-0.1v-0.2Zm-34.589.508c-0.026.765,0.022,1.05,0,1.728a12.772,12.772,0,0,0,1.922-1.016c1.1-.411,2.292.275,3.54-0.1a5.979,5.979,0,0,1,1.82-.406v-0.61C24.079,20.5,21.722,20.805,19.317,20.923Zm34.69-.3a0.367,0.367,0,0,1,.1.2h-0.1v-0.2ZM17.092,22.447c0.5,0.069.52,0.235,1.011,0.3,0.084-.33-0.05-0.155.2-0.3v0.3h0.4c0.022-.756.232-1.029,0.3-1.829l-1.922.1a1.442,1.442,0,0,0-.1.407A2.231,2.231,0,0,1,17.092,22.447Zm-2.023.508h1.315V22.447h0.4v-0.1a2.9,2.9,0,0,1,0-1.219h-0.1v-0.1a9.016,9.016,0,0,1-1.618.1,1.87,1.87,0,0,0-.1.61A1.841,1.841,0,0,1,15.07,22.955Zm-9.1.711,3.843-.3V22.65a1.425,1.425,0,0,1,.4-0.1,0.287,0.287,0,0,0,.1.1,1.272,1.272,0,0,0,0,.61h1.011c0.514-.3,1.414.114,1.719-0.407h-0.1v-0.1h0.3a0.493,0.493,0,0,0,.1.3V21.228h-0.1c-0.478.3-1.286,0.063-1.922,0.2-1.292.285-4.4,0.775-5.461,0.406v0.3A4.081,4.081,0,0,1,5.967,23.667Zm7.484-2.439v1.829h0.2c0.019-.366-0.15-0.211.2-0.3,0.149,0.258.214,0.2,0.607,0.2a10.045,10.045,0,0,1,.2-1.728H13.451Zm59.772,0.813,0.2,0.2C73.155,22.335,73.088,22.182,73.224,22.041Zm0.809,0.407a0.294,0.294,0,0,0,.4,0h-0.4Zm0.607,0.1a0.365,0.365,0,0,0,.2.1A0.364,0.364,0,0,0,74.64,22.549Zm-57.244.1v0.2h0.1A0.348,0.348,0,0,0,17.4,22.65ZM5.563,26.919v0.2l0.4,0.1v-0.2Zm0.607,2.134a7.346,7.346,0,0,1,0,1.626h0.2a1.332,1.332,0,0,1,.708-0.1v-0.1a1.071,1.071,0,0,1-.3-0.711,0.847,0.847,0,0,1,.3-0.2,0.524,0.524,0,0,1,.506,0,3.611,3.611,0,0,0,.3.915,8.8,8.8,0,0,0,2.326-.1c1.9-.437,4.166-0.4,6.068-0.813v-0.2h-0.1v-0.1a69.6,69.6,0,0,0-6.978-.1A11.84,11.84,0,0,1,6.169,29.053Zm10.923,0.1a1.981,1.981,0,0,1-.4.2v0.2h0.607c0.539-.326,1.641-0.035,2.124-0.407H17.092Zm4.147,0.1a4.545,4.545,0,0,1-1.113.2v0.1H21.34c0.648-.392,1.989.1,2.63-0.3H21.239Zm-15.879.2a1.861,1.861,0,0,0,.1.915A1.861,1.861,0,0,0,5.36,29.459Zm14.058,0c-0.644.389-1.907,0-2.529,0.407a9.722,9.722,0,0,0,2.832-.3v-0.1h-0.3Z" transform="translate(0 0.5)"/>
</svg>
