<?xml version="1.0" encoding="utf-8"?>
<!-- Generator: Adobe Illustrator 16.0.0, SVG Export Plug-In . SVG Version: 6.00 Build 0)  -->
<!DOCTYPE svg PUBLIC "-//W3C//DTD SVG 1.1//EN" "http://www.w3.org/Graphics/SVG/1.1/DTD/svg11.dtd">
<svg version="1.1" id="Layer_1" xmlns="http://www.w3.org/2000/svg" xmlns:xlink="http://www.w3.org/1999/xlink" x="0px" y="0px"
	 width="39.938px" height="40px" viewBox="0 0 39.938 40" enable-background="new 0 0 39.938 40" xml:space="preserve">
<path id="Color_Fill_1" fill="#FFFFFF" d="M8.058,13.942v-0.691H7.959V13.3h-0.05v-0.049c-0.027-0.027-0.045-0.062-0.051-0.1
	c0.032-0.043,0.066-0.155,0.101-0.2V13c0.129,0.277,0.181,0.584,0.148,0.889c0.108,0,0.214-0.035,0.301-0.1
	c0.051-0.127,0.068-0.265,0.05-0.4h0.05v-0.04c-0.07,0.006-0.141-0.011-0.2-0.049c0.13-0.078,0.013-0.1,0.05-0.247
	c0.073,0.054,0.158,0.089,0.248,0.1c0.007-0.063,0.044-0.119,0.101-0.148c0,0.156-0.084,0.066,0.05,0.148
	c0.114-0.024,0.232-0.024,0.347,0c0.041-0.16-0.023-0.075,0.101-0.148c0.157,0.23,0.193-0.03,0.399,0
	c0.033,0.054,0.088,0.09,0.149,0.1c0.015-0.037-0.04-0.135,0.05-0.1c0.081,0.081,0.187,0.132,0.3,0.148v-0.051
	c-0.041-0.025-0.075-0.059-0.1-0.1h0.05v-0.048c0.155,0.027,0.307,0.077,0.447,0.148c-0.038,0.004-0.073,0.022-0.101,0.049h0.101
	c0.154-0.127,0.371-0.146,0.546-0.049c0.1-0.073-0.028-0.07,0.148-0.1c0.082,0.129,0.172,0.1,0.248-0.049
	c-0.122-0.064-0.033,0.021-0.1-0.1c0.025-0.125,0.076-0.242,0.149-0.346c0.095,0.046,0.058,0.019,0.199,0
	c-0.023,0.047-0.023,0.102,0,0.148c0.027-0.027,0.045-0.063,0.051-0.101c0.039-0.245,0.039-0.495,0-0.741
	c0.058-0.105,0.124-0.206,0.199-0.3c-0.055-0.025-0.104-0.059-0.148-0.1c0.135,0.026,0.275,0.009,0.399-0.049
	c0.007,0.191-0.031,0.146,0.248,0.147c0.126,0.068,0.242,0.151,0.348,0.247c-0.028,0.152-0.022,0.649-0.051,0.889h0.232
	c-0.025,0.209,0.028,0.42,0.149,0.593c-0.054-0.001-0.106,0.017-0.149,0.049c0.144,0.083,0.139,0.071,0.149,0.3
	c0.252,0.024,0.565,0.133,0.794,0.148c0.3,0.02,0.063-0.242,0.5,0c0.021-0.072,0.077-0.128,0.148-0.148c0,0.144-0.048,0.069,0,0.148
	c0.249-0.003,0.498,0.013,0.744,0.049v-6.71c-0.081-0.839-0.064-1.684,0.05-2.518c0.017,3.078,0.033,6.156,0.05,9.235l0.301,0.049
	v0.2c0.486-0.007,0.972,0.061,1.438,0.2c0.084,0.039,0.172,0.2,0.248,0.247c0.272,0.091,0.563,0.108,0.844,0.049l-0.05,0.642
	c0.054-0.001,0.106,0.016,0.149,0.049c0,0-0.2,0.022-0.101,0.049h0.051c0.021,0.16,0.17,0.272,0.33,0.25
	c0.006-0.001,0.011-0.001,0.017-0.003c0.695,0.183,1.416,0.251,2.134,0.2l0.447-0.049c0.056,0.014,0.2,0.134,0.248,0.148h0.695
	c0.66,0.059,1.324,0.059,1.984,0h0.894c0.382-0.09,0.784-0.3,1.092-0.346c0.075,0.012,0.145,0.047,0.2,0.1
	c0.251-0.054,0.499-0.121,0.743-0.2c0,0.156-0.084,0.066,0.051,0.148c0.042-0.072,0.092-0.139,0.148-0.2
	c0.068,0.029,0.136,0.063,0.2,0.1c0.061-0.034,0.13-0.051,0.2-0.049c0.052,0.047,0.102,0.096,0.148,0.148
	c0.175,0.035,0.188-0.176,0.348-0.148c0.069,0.012,0.049,0.174,0.2,0.148l0.1-0.148c0.265-0.02,0.529-0.02,0.794,0
	c0.313,0.187,0.682,0.257,1.042,0.2c0.133-0.109,0.284-0.192,0.447-0.247c0.274,0.269,0.676,0.364,1.042,0.247
	c0.315-0.25,0.755-0.27,1.092-0.049v0.147c0.206-0.02,0.408-0.069,0.6-0.147c0.177,0.009,0.348,0.06,0.5,0.147
	c0.05-0.01,0.301-0.234,0.348-0.247c0.134-0.037,0.141,0.107,0.199,0.148c0.086-0.045,0.169-0.094,0.248-0.148h0.149l0.05,0.1h1.023
	l0.05,0.147c0.196-0.017,0.385-0.086,0.546-0.2c0.229,0.013,0.45,0.082,0.646,0.2c0.043-0.066,0.12-0.105,0.199-0.1
	c0.006,0.069,0.022,0.137,0.051,0.2c0.041-0.044,0.092-0.078,0.148-0.101v0.3c0.74-0.091,1.486-0.112,2.23-0.063
	c0.052,0.243,0.068,0.493,0.05,0.741c-0.403,0.112-0.825,0.146-1.241,0.1c-0.68-0.528-1.452,0.358-1.935,0.4
	c-0.486-0.141-1.003-0.141-1.489,0c-0.166,0.032-0.453-0.2-0.601-0.148c-0.211,0.132-0.448,0.216-0.694,0.247
	c-0.041-0.16,0.023-0.076-0.101-0.148c-0.052,0.121-0.169,0.199-0.3,0.201c-0.032-0.161-0.185-0.27-0.347-0.248
	c-0.394,0.162-0.827,0.197-1.241,0.101c-0.074,0.181-0.219,0.325-0.4,0.399c-0.075-0.04-0.162-0.058-0.247-0.049
	c-0.035-0.121-0.086-0.237-0.149-0.346l-0.447-0.1c-0.011,0.105-0.045,0.208-0.1,0.3c-0.148-0.167-0.075-0.276-0.4-0.3
	c-0.117,0.18-0.34,0.262-0.546,0.199l-0.05-0.147c-0.132-0.084-0.239,0.216-0.447,0.147l-0.1-0.147
	c-0.128-0.052-0.566,0.017-0.844-0.05c-0.271,0.008-0.539,0.059-0.795,0.148c-0.04-0.043-0.074-0.094-0.1-0.148h-0.05
	c-0.006,0.201-0.005,0.154-0.3,0.148c-0.03,0.51-0.188,0.84-0.2,1.383c0.249-0.011,0.498,0.006,0.744,0.049v0.148
	c0.282,0.005,0.564-0.012,0.844-0.049c0.137,0.253,0.124,0.491,0.546,0.494c0.17,0.082,0.364,0.099,0.546,0.049
	c0.04,0.073,0.091,0.141,0.149,0.2c0.03-0.056,0.086-0.094,0.148-0.101v0.049c-0.04,0.025-0.075,0.06-0.1,0.101
	c0.616,0.049,1.229,0.131,1.836,0.247c-0.02,0.145-0.081,0.063,0.05,0.148c0.327-0.209,0.381,0.199,0.695,0.147
	c0.375,0.004,0.748,0.048,1.114,0.133c0.005,0.069,0.022,0.137,0.05,0.2c0.641-0.016,1.273,0.137,1.836,0.443
	c-0.126,0.158,0.011,0.127,0.05,0.4c-0.064-0.025-0.136-0.025-0.2,0c0.038,0.105,0.089,0.206,0.149,0.301h-0.101
	c-0.024-0.041-0.059-0.076-0.1-0.101v0.2c0.069,0.125,0.119,0.26,0.149,0.4c-0.145,0-0.069-0.049-0.149,0
	c0.108,0.166-0.02,0.047-0.05,0.246c-0.069-0.005-0.137-0.021-0.2-0.049c0.006,0.094-0.058,0.179-0.149,0.2
	c-0.045,0.019-0.514,0.115-0.743,0.2v-0.074c0.065-0.086,0.086-0.079,0.05-0.148v-0.05h-0.092c-0.235,0.351-0.81,0.655-0.993,0.988
	c-0.035,0.212-0.053,0.427-0.05,0.642h-0.058v-0.049c-0.05-0.08-0.048-0.314-0.1-0.4v0.05c-0.165,0.196-0.349,0.379-0.546,0.543
	c0.825,2.366-2.029,4.485-4.219,3.556c-0.614-0.291-1.132-0.754-1.488-1.333l-0.3-0.84h-1.88c-0.396,1.676-2.076,2.712-3.752,2.315
	c-0.267-0.063-0.522-0.16-0.764-0.291c-0.548-0.334-0.994-0.813-1.29-1.383l-0.2-0.593c-0.772-0.107-1.556-0.124-2.333-0.049
	c-0.409,1.683-2.106,2.714-3.789,2.305c-0.405-0.099-0.788-0.278-1.124-0.526c-0.374-0.313-0.678-0.699-0.893-1.137l-0.2-0.642
	h-0.99c-0.107,1.699-2.674,3.096-4.417,2.074c-0.726-0.415-1.273-1.083-1.537-1.876c-0.114-0.604-0.182-1.214-0.2-1.827
	c-0.308-0.121-0.623-0.222-0.943-0.3v0.543H1.656c0-0.469-0.093-0.648-0.101-1.086H1.011c-0.357-0.82-0.672-1.658-0.942-2.512
	c-0.074-0.542-0.057-1.093,0.051-1.63c0.014-0.526-0.003-1.055-0.051-1.579c0.148-0.026,0.298-0.043,0.447-0.05l0.05-0.2
	l0.101,0.049c0.377-0.063,0.76-0.079,1.141-0.049V17c-0.115-0.117-0.154-0.29-0.1-0.445c-0.062-0.056-0.129-0.105-0.2-0.147
	l0.05-0.2c-0.106-0.266-0.024-0.823,0.347-0.84c0.208,0.137,0.452,0.029,0.695,0.2c-0.038,0.005-0.073,0.022-0.1,0.049h0.2v-0.1
	c-0.072-0.021-0.129-0.076-0.149-0.148c0.267-0.149,0.463-0.397,0.546-0.691h0.1l0.051,0.2h0.05c0.009-0.205,0.122-0.392,0.3-0.494
	c0.076-0.041,0.162-0.058,0.248-0.049c0.031-0.793,0.1-1.7,0.1-2.617h0.145L3.641,6.189C3.492,5.475,3.443,4.744,3.493,4.016
	C3.49,4.895,3.573,5.771,3.741,6.633C3.912,7.414,3.78,8.228,3.941,8.954c0.2,0.913-0.033,2,0.301,2.765v1.284
	c0.073,0.434,0.174,0.862,0.3,1.284l0.148,0.049c0.286-0.101,0.592-0.135,0.894-0.1c0.179-0.093,0.333-0.229,0.446-0.395
	c0.181-0.032,0.366-0.032,0.547,0c0.162,0.162,0.373,0.267,0.6,0.3c0.014-0.128-0.023-0.088,0.2-0.1
	c0.103-0.01,0.206,0.006,0.3,0.049C7.796,14.023,7.924,13.974,8.058,13.942z M12.475,11.424h0.101v0.049
	C12.537,11.468,12.502,11.45,12.475,11.424L12.475,11.424z M12.128,11.624c-0.097,0.042-0.197,0.075-0.3,0.1v0.1h0.05
	c0.227-0.072,0.459-0.122,0.695-0.148L12.128,11.624z M10.639,13.102c0.027,0.026,0.063,0.043,0.101,0.049
	C10.712,13.125,10.677,13.107,10.639,13.102z M11.334,13.102c0.027,0.026,0.063,0.043,0.1,0.049
	C11.406,13.125,11.371,13.107,11.334,13.102z M14.758,13.596h0.1v0.05h-0.05C14.769,13.652,14.711,13.648,14.758,13.596z
	 M14.658,13.796c0.027,0.026,0.062,0.044,0.1,0.049c-0.026-0.027-0.062-0.045-0.099-0.051L14.658,13.796z M5.969,13.942
	c0.027,0.027,0.063,0.044,0.1,0.049C6.041,13.964,6.007,13.947,5.969,13.942z M17.339,14.633c0.027,0.026,0.063,0.044,0.1,0.049
	C17.411,14.655,17.377,14.638,17.339,14.633z M16.446,14.682v0.1h0.051v-0.05h0.05C16.519,14.705,16.483,14.688,16.446,14.682
	L16.446,14.682z M17.637,14.682c0.086,0.065,0.08,0.085,0.149,0.049h0.05v-0.048L17.637,14.682L17.637,14.682z M2.649,15.716v0.1
	h0.051v-0.1H2.649z M2.849,16.116l0.05,0.148h0.051c-0.007-0.063-0.046-0.12-0.103-0.148H2.849z M38.73,16.116v0.395h0.4v-0.395
	H38.73z M39.375,16.116v0.395h0.248v-0.395h-0.254H39.375z M2.948,16.416c-0.022,0.096,0.018,0.193,0.1,0.247
	C3.024,16.577,2.99,16.494,2.948,16.416L2.948,16.416z M3.048,16.859c-0.001,0.055,0.017,0.106,0.05,0.148
	c0.001-0.055-0.018-0.109-0.052-0.152L3.048,16.859z M18.929,17.16c0.015,0.109-0.022,0.221-0.1,0.3h0.199
	c0.027-0.026,0.063-0.044,0.101-0.049c-0.018-0.065-0.018-0.135,0-0.2c0.026,0.027,0.044,0.063,0.05,0.1
	c0.043,0.037,0.056,0.063,0.1,0.101c0.279-0.188,0.429,0.192,0.744,0.049c0,0.144-0.048,0.069,0,0.147
	c0.347-0.357,0.839-0.215,1.588-0.199v0.049c-0.125,0.072-0.076,0.021-0.1,0.2c0.13,0,0.1-0.038,0.2,0.1
	c0.051-0.067,0.12-0.119,0.2-0.147c-0.007,0.07,0.012,0.141,0.05,0.199c0.141-0.024,0.276-0.074,0.399-0.147
	c0.135,0.081,0.292,0.116,0.447,0.1c-0.023-0.046-0.023-0.101,0-0.147c0.128,0.139,0.312,0.212,0.5,0.199v-0.1
	c-0.122-0.064-0.034,0.021-0.1-0.1h0.1c0.064,0.109,0.175,0.183,0.3,0.199c-0.019-0.145-0.081-0.062,0.051-0.147
	c0.121,0.205,0.255,0.403,0.399,0.593c0.205,0.082,0.426,0.116,0.646,0.1c0.024,0.071,0.058,0.139,0.1,0.201
	c0.058,0.022,0.5-0.043,0.6,0c0.408,0.18,0.846,0.281,1.29,0.299c0,0.144-0.048,0.069,0,0.148c0.044-0.031,0.096-0.049,0.149-0.049
	c-0.003-0.117-0.02-0.232-0.05-0.346c-0.4,0.025-0.588,0.045-0.601-0.346c-0.092-0.389-0.108-0.791-0.05-1.186
	c-0.245-0.006-0.484-0.074-0.694-0.2c-0.869,0.036-1.784,0.2-2.829,0.2h-0.813c-0.587-0.123-1.189-0.157-1.787-0.1h-0.693
	c-0.123,0.077-0.257,0.135-0.397,0.172L18.929,17.16z M1.013,16.96c0.027,0.027,0.045,0.062,0.05,0.101H1.011V16.96H1.013z
	 M1.906,16.96l-0.051,0.147h0.2c-0.029-0.068-0.084-0.123-0.152-0.153L1.906,16.96z M2.998,17.061
	c-0.044,0.061-0.077,0.128-0.101,0.199c0.43-0.007,0.801,0.008,1.34,0c0.114,0.026,0.23,0.043,0.348,0.049
	c0.761-0.095,1.533-0.061,2.283,0.101c0.021-0.134,0.123-0.108,0.399-0.101v-0.1H3.195c-0.051-0.069-0.119-0.123-0.198-0.156
	L2.998,17.061z M2.651,17.16c0.017,0.109-0.051,0.053,0.051,0.1c0.027-0.026,0.062-0.043,0.1-0.049v-0.059H2.649L2.651,17.16z
	 M26.82,17.16c-0.018,0.141,0.018,0.284,0.101,0.4c0-0.135,0.018-0.27,0.05-0.4h-0.152H26.82z M18.631,17.407v0.1h0.05v-0.059h0.05
	c-0.027-0.027-0.063-0.044-0.102-0.05L18.631,17.407z M18.284,17.456v0.101c0.103,0.013,0.207-0.004,0.3-0.05L18.284,17.456z
	 M21.559,17.703v0.1h0.05v-0.1H21.559z M22.006,17.803c0.054,0.082,0.152,0.122,0.248,0.1v-0.06h-0.05v-0.049
	c-0.064,0.025-0.136,0.025-0.2,0L22.006,17.803z M26.969,18.684l-0.05,0.246h0.05v-0.05C27.021,18.824,27.021,18.738,26.969,18.684z
	 M27.515,18.982c0.077,0.119,0.206,0.193,0.347,0.201v-0.101h0.051v-0.056L27.515,18.982z M34.86,20.761
	c0.027,0.026,0.063,0.044,0.101,0.05c-0.027-0.029-0.063-0.048-0.104-0.054L34.86,20.761z M35.16,21.255
	c0.026,0.027,0.044,0.063,0.05,0.101h-0.05V21.255z"/>
</svg>
