<svg xmlns="http://www.w3.org/2000/svg" width="40" height="40" viewBox="0 0 40 40">
  <defs>
    <style>
      .cls-1 {
        fill: #fff;
        fill-rule: evenodd;
      }
    </style>
  </defs>
  <path id="Color_Fill_1" data-name="Color Fill 1" class="cls-1" d="M19.8,2h0.35a2.329,2.329,0,0,0,.5.987A7.243,7.243,0,0,1,21.7,6.394h0.15L21.9,6.838H21.75v0.2H21.9L21.95,7.48H21.8a2.45,2.45,0,0,1,.2.642,0.244,0.244,0,0,0-.15.049,1.194,1.194,0,0,1,.05.987L33.05,9.207h3.2a5.394,5.394,0,0,1,1.85.148c0.781,0.329,2.144,1.613,1.8,2.962a4.416,4.416,0,0,1-1.5,2.567,3.287,3.287,0,0,0-1.15.79,7.353,7.353,0,0,0-.25.987,4.494,4.494,0,0,1-2.25,2.221c-1.046.445-2.751,0.2-4.15,0.2H21.8a16.636,16.636,0,0,1-.25,3.209L21.4,25.054a27.6,27.6,0,0,0-.25,5.331c1.995-.023,4.272-0.258,5.15.839a1.889,1.889,0,0,1,.55,1.728c-0.443,1.851-1.473,1.823-3.25,2.32a3.509,3.509,0,0,1-1.85.247c-0.7-.244-0.874-1.06-1.35-1.53v0.049c-0.473.3-.315,1.519-0.3,2.271a1.619,1.619,0,0,0-.05.691h-0.1V36.951a12.656,12.656,0,0,1-.1-2.666,0.989,0.989,0,0,1-.3-0.3H19.5a2.768,2.768,0,0,1-1.3,1.53,2.417,2.417,0,0,1-1.35-.148,8.95,8.95,0,0,1-2.8-.79A2.842,2.842,0,0,1,13.1,32.9a1.844,1.844,0,0,1,.55-1.678c0.877-1.091,3.158-.868,5.15-0.839A27.018,27.018,0,0,0,18.55,25L18.4,22.289a17.583,17.583,0,0,1-.25-3.209H9.5c-1.17,0-2.942.267-3.9-.049a4.21,4.21,0,0,1-2.9-3.554C1.147,15.113-.784,12.558.4,10.54A3.276,3.276,0,0,1,1.85,9.355,5.37,5.37,0,0,1,3.7,9.207H6.9l11.15-.049a2.723,2.723,0,0,1-.1-0.839c0.054-.1.1,0.044,0.15-0.2H17.95L18,7.677h0.15V7.48H18l0.05-.444H18.2v-0.2c-0.162-.041-0.076.024-0.15-0.1a0.646,0.646,0,0,0,.05-0.346h0.15a6.289,6.289,0,0,1,1-3.258A2.985,2.985,0,0,0,19.8,2Z"/>
</svg>
