<svg xmlns="http://www.w3.org/2000/svg" width="40" height="40" viewBox="0 0 40 40">
  <defs>
    <style>
      .cls-1 {
        fill: #fff;
        fill-rule: evenodd;
      }
    </style>
  </defs>
  <path id="Color_Fill_1" data-name="Color Fill 1" class="cls-1" d="M20.82,4.214a18.785,18.785,0,0,1,3.6.09,3,3,0,0,1,.866.09c-1.4.016-2.86,0.129-4.373,0.135v0.09C20.943,4.664,20.97,4.8,21,4.843a1.392,1.392,0,0,0,.592.045,7.151,7.151,0,0,1,1,2.2q-0.023,1.079-.046,2.158a0.129,0.129,0,0,1,.046.045,8.283,8.283,0,0,0,.957.18V8.4H23.69V9.519c1.821,0.025,3.516.515,5.376,0.54,0-.26.012-0.354,0-0.54h0.228V7.856h0.137V10.1h0.091a0.31,0.31,0,0,0,.182.045v-0.09c0.31-.5-0.208-2.356.091-2.832v2.967h0.456V7.856h0.137c0.01,0.733.044,1.584,0.046,2.383l3.1,0.36c0.959,0.213,1.962.115,2.87,0.315,1.145,0.252,2.251.006,3.052,0.584,1.067,0.77.37,3.774-.456,4.361-0.946.673-2.666,0.378-4.009,0.674-0.154.034-1.2,0.09-1.276,0.135a1.2,1.2,0,0,1-.091.18,6.573,6.573,0,0,1-.866.09,5.662,5.662,0,0,1-.729-0.09c-1.038.183-2.245,0.178-3.28,0.4-0.725.158-1.47,0.077-2.141,0.225-0.987.218-2.027,0.108-2.961,0.315a3.244,3.244,0,0,0-1.139.18c-0.64.7-.646,2.508-0.911,3.642-0.369,1.577-.274,3.332-0.638,4.945-0.15.666-.044,1.363-0.182,1.978-0.153.68-.054,1.386-0.182,2.023h0.273a5.646,5.646,0,0,0,1.367.09c0.829,0.179,1.855.047,2.688,0.225,0.646,0.138,1.464-.137,1.777.315,0.39,0.486.137,1.741,0,2.248a2.915,2.915,0,0,1-1,.4H23.462a2.168,2.168,0,0,1-1.276,0c-0.362-.155-1.44.095-1.868-0.045L20.046,36H20V35.955a17.913,17.913,0,0,1-.319-2.158c-0.431.143-1.5-.111-1.868,0.045a2.168,2.168,0,0,1-1.276,0H15.4a8.413,8.413,0,0,1-1.822-.18,2.476,2.476,0,0,1-.364-0.45,3.967,3.967,0,0,1,.091-2.068,5.529,5.529,0,0,1,1.777-.27l4.328-.315L19.18,28.4c-0.145-.652-0.049-1.337-0.182-1.933q-0.023-.495-0.045-0.989c-0.18-.79-0.183-1.729-0.364-2.518l-0.182-1.843a17.893,17.893,0,0,0-.911-3.237l-6.15-.674-1.321-.09c-0.636-.144-1.414-0.14-2.05-0.27-0.218-.044-0.179.066-0.228,0.09l-1.321-.09-0.137-.18a2.5,2.5,0,0,0-.41-0.045l-0.866-.045c-1.259-.285-3.1-0.072-4.009-0.719-0.711-.505-0.711-1.391-0.957-2.383a7.4,7.4,0,0,0,0-1.259,2.148,2.148,0,0,1,1.048-1.034l6.241-.719c0.6-.146,1.816.021,2.232-0.27a10.116,10.116,0,0,0,.046-2.338H9.749v2.383H9.795a1.739,1.739,0,0,1,.729-0.09,8.634,8.634,0,0,0,.046-2.293h0.182V9.564H10.8a0.234,0.234,0,0,1,.137-0.045v0.54c1.7-.013,3.582-0.48,5.376-0.54V8.4h0.182V9.474a2.407,2.407,0,0,0,.957-0.225,0.813,0.813,0,0,0,.046-0.27,5.217,5.217,0,0,1-.046-1.349,3.359,3.359,0,0,1,.592-2.158,1.492,1.492,0,0,1,.364-0.584h0.638l0.046-.36c-1.467.006-2.852-.126-4.237-0.135V4.3c1.373,0,2.846-.086,4.328-0.09A1.33,1.33,0,0,1,20.091,3,2.062,2.062,0,0,1,20.82,4.214Z"/>
</svg>
