<svg xmlns="http://www.w3.org/2000/svg" width="40" height="40" viewBox="0 0 40 40">
  <defs>
    <style>
      .cls-1 {
        fill: #fff;
        fill-rule: evenodd;
      }
    </style>
  </defs>
  <path id="Color_Fill_1" data-name="Color Fill 1" class="cls-1" d="M20.82,4.214a18.556,18.556,0,0,1,3.554.09,3.19,3.19,0,0,1,.911.09c-1.4.016-2.86,0.129-4.373,0.135l0.046,0.36h0.638a7.8,7.8,0,0,1,1,2.248L22.506,9.2a2.209,2.209,0,0,0,1,.27V8.4H23.69V9.519c1.818,0.025,3.517.515,5.376,0.54V9.519h0.182q0.023-.832.046-1.663h0.137V10.1h0.091a0.31,0.31,0,0,0,.182.045c-0.006-.467.023-1,0.046-1.394a8.614,8.614,0,0,1,0-1.034A1.941,1.941,0,0,1,29.8,7.226v2.967h0.456V7.856h0.137l0.046,2.383a17.253,17.253,0,0,1,2.642.315L33.941,10.6c0.767,0.171,1.693.145,2.46,0.315,1.118,0.247,2.294.037,3.052,0.584,0.91,0.657.488,3.21-.091,4-0.837,1.143-3.18.718-4.829,1.079a6.559,6.559,0,0,0-.82.09l-0.091.18a6.964,6.964,0,0,1-.866.09,4.6,4.6,0,0,1-.729-0.09c-1.6.267-3.417,0.234-5.011,0.584-0.7.154-1.443,0.082-2.1,0.225H24.465c-0.609.134-1.356,0.148-1.959,0.27l-0.456.944-0.091.674c-0.137.5-.24,1.1-0.364,1.618l-0.182,1.8c-0.188.8-.181,1.763-0.364,2.563v0.495c-0.135.6-.035,1.282-0.182,1.933L20.592,30.56l4.328,0.315a6.155,6.155,0,0,1,1.64.135c0.575,0.369.4,2.443-.228,2.653a4.089,4.089,0,0,1-1.868.18,12.483,12.483,0,0,1-2.278.09c-0.064-.027.017-0.081-0.228-0.09a7.292,7.292,0,0,1-1.64-.045v0.09C20.1,34.243,20.167,35.522,20,36H19.954V35.685c-0.26-.423-0.029-1.515-0.319-1.888-0.429.272-1.32-.166-1.822,0.045a4.657,4.657,0,0,1-1.686,0c-0.908,0-2.382.166-2.779-.36a1.6,1.6,0,0,1-.182-0.585,2.936,2.936,0,0,1-.046-1.079,4.778,4.778,0,0,1,.182-0.674c0.591-.357,1.019-0.108,1.777-0.27l4.328-.315V30.47a3.978,3.978,0,0,1-.091-0.989c-0.14-.614-0.03-1.313-0.182-1.978C19,26.9,19.1,26.223,18.952,25.57c-0.378-1.643-.3-3.545-0.729-5.125a12.11,12.11,0,0,0-.547-2.068c-0.126-.255-0.042-0.463-0.41-0.495a4.644,4.644,0,0,0-1.184-.135c-0.816-.183-1.727-0.075-2.6-0.27-0.535-.12-1.143-0.048-1.731-0.18-1.194-.267-2.586-0.23-3.781-0.45a4.843,4.843,0,0,1-.729.09,7.119,7.119,0,0,1-.866-0.09l-0.091-.18c-0.156-.078-1.058-0.084-1.276-0.135-1.344-.311-3.059,0-4.009-0.674C0.181,15.272-.516,12.263.547,11.5c0.8-.579,1.907-0.331,3.052-0.584,0.775-.172,1.635-0.086,2.46-0.27a25.6,25.6,0,0,1,3.508-.4L9.613,7.856H9.749v2.383H9.795A3.045,3.045,0,0,1,10.57,10.1V7.856h0.137l0.046,1.708H10.8a0.234,0.234,0,0,1,.137-0.045v0.54c1.855,0.02,3.562-.472,5.376-0.54V8.4h0.137V9.519h0.046c0.26-.157.681-0.091,0.911-0.27a3.781,3.781,0,0,0,.046-1.394A1.584,1.584,0,0,1,17.4,7.091c0.149-.532.6-2.024,1-2.2H19V4.843h0.046l0.046-.315c-1.484.006-2.878-.128-4.282-0.135V4.349h0.046a5.329,5.329,0,0,1,1.367-.09,16.012,16.012,0,0,1,2.961-.045A1.284,1.284,0,0,1,20.091,3,2.247,2.247,0,0,1,20.82,4.214Z"/>
</svg>
