<svg xmlns="http://www.w3.org/2000/svg" width="40" height="40" viewBox="0 0 40 40">
  <defs>
    <style>
      .cls-1 {
        fill: #fff;
        fill-rule: evenodd;
      }
    </style>
  </defs>
  <path id="Color_Fill_1" data-name="Color Fill 1" class="cls-1" d="M20.878,3.05a7.01,7.01,0,0,0,1.405-.2,4.356,4.356,0,0,1,1.3.1c0.578,0.124,1.194-.011,1.706.1a3.928,3.928,0,0,1,1.255.15,0.255,0.255,0,0,1,.05.15,0.142,0.142,0,0,0-.05.05c-0.559.067-1.273,0.125-1.857,0.25l-1.606.05a3.065,3.065,0,0,1-1.355-.05v0.1a1.437,1.437,0,0,1,.4,1.4,1.1,1.1,0,0,0-.151.55,7.1,7.1,0,0,0,.3.65l0.351,3.95,0.853,0.25V10.5a0.3,0.3,0,0,1,.151-0.05v0.2c1.842,0.2,3.918.364,5.822,0.6V7.95h0.1v3.3a13.122,13.122,0,0,1,2.459.25c0.56,0.132,1.152.031,1.656,0.15h0.552c0.84,0.19,1.877.1,2.71,0.3,1.169,0.276,2.168-.126,2.76.75a4.062,4.062,0,0,1,.151,2.6,2.766,2.766,0,0,1-1.355,1.65c-0.945.4-2.564,0.242-3.664,0.5-0.835.2-1.653,0.265-2.459,0.45a0.787,0.787,0,0,0-.251-0.1c-0.564.073-1.3,0.165-1.857,0.3l-1.154.1c-1.192.278-2.525,0.213-3.764,0.5a16.436,16.436,0,0,1-2.861.4,16.084,16.084,0,0,1-.5,3.6,11.525,11.525,0,0,0-.05,2h-0.5a0.845,0.845,0,0,0-.05-0.3H21.33l-0.6,7.25a16.568,16.568,0,0,1,3.112.25c0.873,0.189,1.86.046,2.66,0.25a2.652,2.652,0,0,1,.4.7,1.505,1.505,0,0,1,0,.65,1.037,1.037,0,0,1-.151.85c-0.442.8-1.639,0.64-2.861,0.65a4.683,4.683,0,0,1-1.656,0H20.376a9.322,9.322,0,0,1-.3,2.2c-0.075.319,0.014,0.581-.05,0.8a0.172,0.172,0,0,1-.1-0.05c-0.082-.157.017-0.467-0.05-0.75a10.453,10.453,0,0,1-.3-2.2H17.716a2.465,2.465,0,0,1-1.255.1V35h-0.7a5.157,5.157,0,0,1-2.208-.2c-0.617-.384-0.881-2.347,0-2.65,0.381-.32,1.283-0.076,1.857-0.2,0.638-.137,1.361,0,2.058-0.15a9.565,9.565,0,0,1,1.757-.15,15.114,15.114,0,0,0-.251-2.95c-0.177-.806-0.036-1.652-0.2-2.4a7.33,7.33,0,0,0-.2-1.9v0.05a0.432,0.432,0,0,0-.05.25h-0.5a10.343,10.343,0,0,0-.05-2,17.965,17.965,0,0,1-.5-3.6,14.739,14.739,0,0,1-2.861-.4c-1.009-.239-2.06-0.175-3.011-0.4l-1.154-.1c-1.576-.367-3.077-0.309-4.517-0.65S1.995,17.414,1,16.7a3.254,3.254,0,0,1-1-2.75V13.3c0.543-1.769,2.241-1.045,4.065-1.45,0.857-.191,1.9-0.105,2.76-0.3l1.1-.05c0.849-.188,1.81-0.049,2.71-0.25,0.686-.153,1.465-0.035,2.208-0.2,1.015-.225,2.45-0.274,3.463-0.4v-0.2a0.257,0.257,0,0,1,.151.05v0.05l0.853-.25,0.351-3.95a7.085,7.085,0,0,0,.3-0.65,1.045,1.045,0,0,0-.151-0.55,1.7,1.7,0,0,1,.4-1.45h-0.3a2.388,2.388,0,0,1-1.054.05c-0.806-.179-2.977-0.019-3.463-0.4a0.255,0.255,0,0,1-.05-0.15,0.142,0.142,0,0,0,.05-0.05,15.824,15.824,0,0,0,2.058-.2h0.9a4.356,4.356,0,0,1,1.3-.1,6.628,6.628,0,0,0,1.405.2A1.836,1.836,0,0,1,19.724,2a2.833,2.833,0,0,1,.6.05A2.133,2.133,0,0,1,20.878,3.05Z"/>
</svg>
