<svg xmlns="http://www.w3.org/2000/svg" width="39.969" height="40" viewBox="0 0 39.969 40">
  <defs>
    <style>
      .cls-1 {
        fill: #fff;
        fill-rule: evenodd;
      }
    </style>
  </defs>
  <path id="Color_Fill_1" data-name="Color Fill 1" class="cls-1" d="M20.968,4.9H21.72c0.154,0.436.687,1.006,0.86,1.518a9.584,9.584,0,0,1-.054,2.928h0.054V9.4l0.968,0.217V8.477H23.71V9.616l5.376,0.6v-0.6h0.108V9.67h0.054a3.016,3.016,0,0,0,0,.6h0.484a13.411,13.411,0,0,1,.054-2.982v2.982h0.054v0.054a16,16,0,0,1,3.333.38c1.127,0.261,2.364.13,3.441,0.38,0.968,0.224,2.07,0,2.742.488,0.886,0.646.732,3.108,0.108,4.067-0.828,1.272-3.006.8-4.731,1.193a16,16,0,0,1-2.312.434,1.947,1.947,0,0,0-.645-0.109c-0.763.169-1.6,0.084-2.419,0.271-2.2.5-4.694,0.365-6.882,0.813-0.081.265-.294,0.441-0.376,0.7-0.394,1.263-.331,2.616-0.645,3.959q-0.027.434-.054,0.868c-0.206.913-.173,2.015-0.376,2.928v0.651a20.952,20.952,0,0,0-.323,3.8,19.683,19.683,0,0,1,3.495.271c0.8,0.176,1.7.032,2.419,0.217a3.512,3.512,0,0,1,.054,2.494,6.745,6.745,0,0,1-2.957.38c-0.289.011-.2,0.076-0.269,0.108a2.522,2.522,0,0,1-1.29-.108H20.323L20.054,37H19.946V36.62a7.308,7.308,0,0,1-.269-2.115H17.85a2.524,2.524,0,0,1-1.29.108V34.506H15.7a4.409,4.409,0,0,1-2.258-.271c-0.534-.406-0.311-1.854-0.161-2.494A5.7,5.7,0,0,1,15,31.469c0.467-.1,1.031.007,1.559-0.109a14.869,14.869,0,0,1,2.742-.217,11.946,11.946,0,0,0-.215-2.386v-0.7c-0.226-1.021-.155-2.205-0.376-3.2-0.291-1.3-.158-2.786-0.484-4.013-0.2-.769-0.19-2.607-1.021-2.657a3.291,3.291,0,0,0-.86-0.108c-0.8-.191-1.718-0.069-2.581-0.271-0.638-.149-1.346-0.054-2.043-0.217-1.094-.256-2.409-0.182-3.495-0.434a1.818,1.818,0,0,0-.645.109,3.141,3.141,0,0,1-1.29-.325c-0.117-.066-1.3-0.114-1.505-0.163l-1.021-.054C2,16.3.933,16.7,0.269,15.093l-0.215-1.03a2.765,2.765,0,0,1,0-1.03c0.07-.3-0.083-0.486,0-0.7,0.515-1.354,1.806-.9,3.28-1.247,1.554-.364,3.345-0.228,4.892-0.6a15.021,15.021,0,0,0,2.473-.271,1.325,1.325,0,0,0,.054-0.6h0.161v0.6l5.376-.6V8.477h0.161V9.616L17.419,9.4a15.689,15.689,0,0,1-.054-2.766,4.185,4.185,0,0,1,.591-1.193A1.686,1.686,0,0,1,18.28,4.9h0.753V4.627A11.764,11.764,0,0,1,15.86,4.41a4.154,4.154,0,0,1-1.129-.163c1.394,0,2.888-.1,4.409-0.108a1.282,1.282,0,0,1,.645-1.03c0.787-.48.841,0.857,1.075,1.03h2.581a6.55,6.55,0,0,0,1.774.108V4.3H25.108a2.172,2.172,0,0,1-.591.108,12.723,12.723,0,0,1-3.6.163V4.627A0.473,0.473,0,0,1,20.968,4.9Z" transform="translate(-0.031)"/>
</svg>
