<svg xmlns="http://www.w3.org/2000/svg" width="40" height="40" viewBox="0 0 40 40">
  <defs>
    <style>
      .cls-1 {
        fill: #fff;
        fill-rule: evenodd;
      }
    </style>
  </defs>
  <path id="Color_Fill_1" data-name="Color Fill 1" class="cls-1" d="M21.64,11.852l1.84,0.2a5.916,5.916,0,0,1,.12-1.381H23.48c-0.019-.695-0.039-1.821.36-2.131a0.641,0.641,0,0,1,.44-0.118V8.3a13.518,13.518,0,0,1-1.84-.118V8.1c0.608,0,1.27,0,1.88,0a1.418,1.418,0,0,1,.16-0.552l0.28-.2a0.572,0.572,0,0,0,.16.039l0.16,0.2a0.912,0.912,0,0,1,.16.513,10.3,10.3,0,0,1,1.92.039V8.182H27.12a5.374,5.374,0,0,1-1.84.118V8.419a1.5,1.5,0,0,1,.44.079,3.761,3.761,0,0,1,.4,2.17,0.2,0.2,0,0,0-.12.04,3.907,3.907,0,0,1,.12,1.7,13.239,13.239,0,0,1,2.52.316c0.85,0.189,1.756.133,2.56,0.316l1.28,0.118c1.285,0.3,2.751.262,4.04,0.552,0.83,0.187,1.7.137,2.48,0.316a0.993,0.993,0,0,1,.92.316,2.36,2.36,0,0,1-.52,1.933,5.635,5.635,0,0,1-1.52.276c-1.207.3-2.519,0.324-3.76,0.631-1.268.313-2.689,0.42-3.96,0.71-0.472.108-1.147,0.1-1.72,0.237-1,.246-2.08.258-3.12,0.513a33.354,33.354,0,0,1-3.68.631v0.276a0.826,0.826,0,0,1,.24.158v0.039H21.8a7.408,7.408,0,0,1,.16.789h0.52v0.039H21.6c0,0.771,0,1.382,0,2.091a6.35,6.35,0,0,1-.04,1.144v1.736c-0.07.321,0.041,0.814-.04,1.184a15.3,15.3,0,0,0-.12,2.6h0.08a7.084,7.084,0,0,0,1.6.434c1.056,0.341,2.222.6,3.28,0.947,0.649,0.21,1.6.129,1.6,0.986-0.194.288-.151,0.664-0.64,0.671a11.746,11.746,0,0,1-1.76.118,4.861,4.861,0,0,1-1.64.079,12.059,12.059,0,0,1-2.76.237c-0.067.688-.271,1.278-0.36,1.894-0.08,0-.011-0.04-0.08,0a0.2,0.2,0,0,1,.04.118H20.08L20.04,36H19.96V35.29a1.059,1.059,0,0,1-.04-0.474H19.24A5.294,5.294,0,0,0,19,33.948L18.84,32.8H18.36a11.063,11.063,0,0,0-1.68-.118c-0.113-.024-0.4.006-0.56-0.04l-0.04-.079a6.667,6.667,0,0,1-1.08,0,16.06,16.06,0,0,0-2.56-.2,1.427,1.427,0,0,1-.4-0.947c0.581-.636,1.146-0.542,2.04-0.829,1.453-.465,3.007-0.922,4.52-1.263V28.779a15.578,15.578,0,0,1-.08-2.052,14.362,14.362,0,0,1-.08-2.565c0-1.219-.04-2.356-0.04-3.591H18.32c-0.18-.108-0.621.031-0.8-0.079a2.8,2.8,0,0,0,.56-0.039V20.138a1,1,0,0,0,.08-0.434,0.505,0.505,0,0,0,.2-0.434,13.658,13.658,0,0,1-2.04-.355c-0.787-.2-1.608-0.2-2.36-0.395L13,18.4c-0.966-.24-2.093-0.294-3.04-0.552a1.564,1.564,0,0,1-.32,0c-0.756-.185-1.567-0.2-2.36-0.395C5.1,16.917,2.714,16.735.52,16.271a2.853,2.853,0,0,1-.44-2.012c0.9-.529,2.845-0.356,4.04-0.631s2.537-.245,3.72-0.513l0.96-.079c0.8-.184,1.711-0.126,2.56-0.316a14.3,14.3,0,0,1,2.52-.316A5.431,5.431,0,0,1,14,10.668H13.88c-0.021-.73-0.058-1.987.48-2.17a0.535,0.535,0,0,1,.36-0.079V8.3a4.7,4.7,0,0,1-1.88-.158h0.08A4.5,4.5,0,0,1,14.76,8.1a0.665,0.665,0,0,1,.44-0.71V7.354h0.04V7.393a0.4,0.4,0,0,1,.28.2,0.912,0.912,0,0,1,.16.513c0.61,0,1.272,0,1.88,0V8.182a16.955,16.955,0,0,1-1.84.118V8.419a1,1,0,0,1,.48.118,5.224,5.224,0,0,1,.32,2.131c-0.13.033-.061-0.019-0.12,0.079a2.8,2.8,0,0,1,.12,1.3l1.84-.2A8.886,8.886,0,0,1,18.44,10c0.076-.345-0.025-0.809.04-1.1V8.143c0.16-.713.11-1.59,0.28-2.249a3.208,3.208,0,0,1,.68-1.7L19.6,4h0.8a5.459,5.459,0,0,1,.64.908,11.211,11.211,0,0,1,.36,1.815V7.157c0.063,0.282.057,0.7,0.12,0.986v0.71c0.065,0.3-.036.76,0.04,1.1A9.923,9.923,0,0,1,21.64,11.852Z"/>
</svg>
