<svg xmlns="http://www.w3.org/2000/svg" width="40" height="40" viewBox="0 0 40 40">
  <defs>
    <style>
      .cls-1 {
        fill: #fff;
        fill-rule: evenodd;
      }
    </style>
  </defs>
  <path id="Color_Fill_1" data-name="Color Fill 1" class="cls-1" d="M20.021,5.122a1.322,1.322,0,0,1,.328.081l-0.041.122a0.71,0.71,0,0,1,.246.081c0,0.007.255,0.793,0.287,0.811,0.078,0.044.231,0.007,0.287,0.041A0.981,0.981,0,0,0,20.8,6.3a15.332,15.332,0,0,1,.246,1.541v0.69c0.08,0.368-.05.919,0.041,1.338a20.933,20.933,0,0,1,.041,3.488l1.805,0.325a8.869,8.869,0,0,1,.123-1.866,0.643,0.643,0,0,0,.328-0.041,0.271,0.271,0,0,0,.041-0.162H23.385A3.507,3.507,0,0,1,21.7,11.49c0.556-.006,1.212-0.014,1.764,0a0.3,0.3,0,0,1,.328-0.243,0.149,0.149,0,0,0,.082.04,0.225,0.225,0,0,0,.246.243,4.863,4.863,0,0,1,1.559.081v0.04H25.641a3.358,3.358,0,0,1-1.641,0v0.2h0.328v0.081a10.589,10.589,0,0,1,0,2.069l2.585,0.527V14.45c0.228-.378-0.055-1.34.205-1.7a0.722,0.722,0,0,0,.328-0.122,0.146,0.146,0,0,0,.041-0.081H26.544a5.473,5.473,0,0,1-.739-0.2c0.587,0,1.193.031,1.723,0.04a0.294,0.294,0,0,1,.369-0.2c0.113,0.221.173,0.259,0.533,0.243,0.2,0.118,1.037.106,1.313,0.2v0.04H29.292a2.45,2.45,0,0,1-1.231-.081,0.576,0.576,0,0,1-.041.2,0.643,0.643,0,0,1,.328.041,6.538,6.538,0,0,1-.041,1.987,0.115,0.115,0,0,1,.041.04A4.679,4.679,0,0,1,29.5,15.1c0.84,0.235,1.707.305,2.5,0.527,0.417,0.116.774,0.087,1.19,0.2,1.357,0.38,2.869.556,4.226,0.933,0.91,0.253,2.568.268,2.585,1.338-0.078.106-.087,0.259-0.164,0.365a2.4,2.4,0,0,1-1.149.73l-0.862.041c-0.971.209-2.147-.008-3.118,0.2h-0.78c-0.528.113-1.1,0.023-1.559,0.122H31.631a6.79,6.79,0,0,1-2.051.081,8.549,8.549,0,0,1-1.928.162h-0.7c-0.451.1-1.065,0.024-1.518,0.122H24.656c-0.473.1-1.037-.031-1.559,0.081a9.556,9.556,0,0,1-1.846.081,16.162,16.162,0,0,0-.123,3.813,1.235,1.235,0,0,1,.533.041H21.128q-0.062,2.8-.123,5.6h0.082a4.762,4.762,0,0,0,1.19.162c0.816,0.191,1.768.217,2.585,0.406a4.153,4.153,0,0,1,1.149.162,3.534,3.534,0,0,1,.041,1.7,2.217,2.217,0,0,1-.082.73l-0.041-.487a10.433,10.433,0,0,0-2.174.2c-0.514.113-.751,0-1.272,0.081a2.873,2.873,0,0,1-1.805-.122,0.146,0.146,0,0,0-.041.081,0.435,0.435,0,0,1,.041.243c-0.082,0-.011-0.041-0.082,0a0.271,0.271,0,0,1,.041.162,0.532,0.532,0,0,0-.287.041l-0.164.122c0.079,0.1.044,0.066,0.123,0.162-0.266,0-.295.058-0.287,0.325l0.369-.041v0.081a3,3,0,0,0-.369,0V34a0.332,0.332,0,0,0-.164,0V33.554a0.409,0.409,0,0,1-.246-0.081h0.246V33.189c-0.183-.016-0.072-0.023-0.164-0.081a4.061,4.061,0,0,1-.41.081,0.63,0.63,0,0,1-.041-0.2c0.147-.017.1,0.019,0.164-0.081a1.993,1.993,0,0,0-.123-0.568,2.023,2.023,0,0,1-1.723.2c-0.534-.117-1.14-0.034-1.723-0.162a8.819,8.819,0,0,0-1.723-.162,0.116,0.116,0,0,1-.041.04,0.724,0.724,0,0,1-.082.446,11.021,11.021,0,0,1,0-2.474h0.287l4.718-.69V28.484a4.044,4.044,0,0,1-.041-1.379c-0.034-.981-0.046-2.117-0.041-3.164A1.237,1.237,0,0,1,18.38,23.9h0.533V20.332a0.6,0.6,0,0,1-.164-0.243,10.108,10.108,0,0,1-2.585-.162,3.946,3.946,0,0,1-1.559-.041c-0.522-.113-1.086.021-1.559-0.081h-0.78c-0.719-.156-1.619-0.007-2.338-0.162L8.41,19.6c-1.222-.266-2.675.021-3.9-0.243H3.733c-1.432-.312-2.3.177-3.282-0.689a0.919,0.919,0,0,1-.41-0.892,3.24,3.24,0,0,1,.7-0.568,29.607,29.607,0,0,1,3.405-.771c0.867-.241,1.8-0.315,2.708-0.568,1.568-.435,3.275-0.7,4.882-1.054V14.734a9.258,9.258,0,0,1-.123-1.906,1.2,1.2,0,0,1,.369-0.041v-0.2l-0.78.122-0.9-.041v-0.04h0.041a4.935,4.935,0,0,1,1.682-.2l0.041-.2h0.082a0.358,0.358,0,0,1,.205-0.041,1.808,1.808,0,0,0,.164.243,4.524,4.524,0,0,1,1.723-.081v0.04H14.154a3.634,3.634,0,0,1-1.641.162v0.04c0.027,0.035.055,0.127,0.082,0.162a0.2,0.2,0,0,1,.328.081,5.22,5.22,0,0,1,.164,1.7,10.514,10.514,0,0,0,1.682-.365,2.773,2.773,0,0,0,.9-0.2,0.531,0.531,0,0,0,.041-0.284,5.756,5.756,0,0,1,0-1.785A0.6,0.6,0,0,0,16,11.773a0.205,0.205,0,0,0,.041-0.122c-0.521.036-1.111,0.044-1.682,0.041V11.611a11.038,11.038,0,0,1,1.682-.081,0.331,0.331,0,0,1,.328-0.284,0.439,0.439,0,0,0,.451.243,4.659,4.659,0,0,1,1.477,0V11.53H18.215a3.676,3.676,0,0,1-1.641.081v0.081a0.206,0.206,0,0,1,.041.122h0.328v0.04h0.041a14.189,14.189,0,0,1,.082,1.825,10.8,10.8,0,0,0,1.805-.365,3.386,3.386,0,0,0,.041-1.217v-3.2a3.654,3.654,0,0,0,.041-0.852L19.2,6.257a0.537,0.537,0,0,1-.287-0.041A0.537,0.537,0,0,0,19.2,6.176a5.346,5.346,0,0,0,.164-0.608c0.052-.105.167-0.2,0.246-0.324,0.071,0.032.076,0.107,0.123,0.041a0.154,0.154,0,0,0,.123-0.162H19.98A0.194,0.194,0,0,1,20.021,5V5.122Zm0.41,27.986h0.123V32.946h0.041a1.184,1.184,0,0,0,.205.081v0.081a0.477,0.477,0,0,1-.287.081,0.21,0.21,0,0,0-.123-0.041,0.336,0.336,0,0,1,.041-0.2v0.162Z"/>
</svg>
