<svg xmlns="http://www.w3.org/2000/svg" width="79.969" height="40" viewBox="0 0 79.969 40">
  <defs>
    <style>
      .cls-1 {
        fill: #fff;
        fill-rule: evenodd;
      }
    </style>
  </defs>
  <path id="Color_Fill_1" data-name="Color Fill 1" class="cls-1" d="M39.776,15.129a0.53,0.53,0,0,1,.285.04H39.776v0.243a0.53,0.53,0,0,1,.285.041H39.776a11.24,11.24,0,0,0,.733,2.145V16.5c0.594-.331,1.2-0.651,1.791-1.012a2.984,2.984,0,0,1,.611-0.364c0.034,0.6.348,1.079,0.407,1.659h0.163a0.115,0.115,0,0,0,.041.041V16.91H43.481a0.276,0.276,0,0,0-.163-0.041v0.648a0.137,0.137,0,0,1,.122,0v0.04c-0.089.019-.071,0-0.081,0.041-0.033.124,0.008,0.3-.041,0.445h0.326a0.2,0.2,0,0,1,.041-0.122,0.418,0.418,0,0,1-.081.283V18.083a1.371,1.371,0,0,1-.285,0v0.162A0.826,0.826,0,0,0,43.6,18.2v0.081c-0.428.5-.243,1.743-0.285,2.51a1.082,1.082,0,0,0,.366.121,0.934,0.934,0,0,1,.326-0.04V20.552a19.7,19.7,0,0,1,2.036,0H45.761V20.8h0.285a1.236,1.236,0,0,0,0-.4,1.522,1.522,0,0,1,.57-0.081c0.059,0.1.1,0.061,0.163,0.162-0.051.063-.026,0.021,0,0.081a0.139,0.139,0,0,1,.041-0.081c0.019,0.24.114,0.218,0.367,0.2a1.246,1.246,0,0,1,.448-0.041c-0.006-.159-0.091-0.1.081-0.162,0.128,0.218.081,0.158,0.244,0.081a1.046,1.046,0,0,0,.2.041V19.986H47.674l-0.122-.2h0.122a0.157,0.157,0,0,0,.122.081V19.176h0.326a23.481,23.481,0,0,0,.041-2.469,1.616,1.616,0,0,1-.9-0.283,2.071,2.071,0,0,1-.041-0.809H46.9a2.463,2.463,0,0,0-.122-0.567,0.861,0.861,0,0,0,.407-0.04H47.145v-0.04H47.023V14.724h0.163a0.337,0.337,0,0,0,.041.2V14.643h0.244l0.041-.2h0.163v0.2h0.407a7.808,7.808,0,0,1,.041-1.66h0.326V12.66h0.041V12.7h0.041c-0.049.116-.076,0.213,0.041,0.283V12.255H48.407a0.2,0.2,0,0,1,.041-0.121,0.542,0.542,0,0,1,.285-0.04,0.115,0.115,0,0,0,.041.04v0.121H48.611v0.729l0.611,0.04v0.2h0.244a1.685,1.685,0,0,1-.041.688V13.671h-0.2v0.243a0.342,0.342,0,0,1,.2.04H49.181v-0.2H49.1v0.89h0.489V14.481a0.642,0.642,0,0,1,.2-0.04l0.041,0.2h0.163v0.2h0.326v0.324H50.28v-0.04a0.625,0.625,0,0,0-.041-0.2,0.276,0.276,0,0,0-.163-0.04c-0.047.063-.078,0.014-0.081,0.243a4.09,4.09,0,0,1,0,.445l-0.244.04v0.769h0.081a0.337,0.337,0,0,1,.041-0.2v0.04h0.041a0.418,0.418,0,0,1-.041.162c-0.3.212-.863,0.109-0.855,0.648a0.349,0.349,0,0,1,.041.2H49.1v-0.04c0.028-.031.053-0.09,0.081-0.122a0.2,0.2,0,0,0,.041.122V17.071h0.163a0.356,0.356,0,0,1-.081.283h0.163V16.788l0.122-.041a0.563,0.563,0,0,1,.407,0v0.486H50.28v0.041a0.908,0.908,0,0,0-.081.607H50.117a3.756,3.756,0,0,1-1.1.283v0.121h0.529c0.034-.16-0.04-0.139.163-0.162v0.041s-0.159.008-.081,0.04H49.71c0.059,0.1-.009.046,0.122,0.081,0-.093-0.015-0.1.122-0.162,0.017,0.145-.019.1,0.081,0.162a0.214,0.214,0,0,1,.285-0.04V18.164a0.224,0.224,0,0,1,0-.162h0.122v0.243a0.259,0.259,0,0,1,.2.04l-0.041-.121h0.163a0.116,0.116,0,0,0,.041.04v0.121a1.22,1.22,0,0,1,.529.041,0.579,0.579,0,0,0-.489.081c0.132,0.051.107,0.036,0.122,0.2H51.42v0.081a1.192,1.192,0,0,1-.692.121c0,0.238-.017.133,0.081,0.243a0.507,0.507,0,0,0-.081.243h0.163V19.9c-0.246.054-.175,0.237-0.163,0.607H50.85v0.2h0.081a0.354,0.354,0,0,1,.081-0.364,0.2,0.2,0,0,0,.041.121,0.454,0.454,0,0,1,.081-0.162,0.588,0.588,0,0,1-.081-0.324H51.3a6.4,6.4,0,0,0-.041-0.809H51.3a1.9,1.9,0,0,0,.9.081c0,0.316,0,.4,0,0.729h0.244c0,0.225-.121.473-0.122,0.85h0.936v0.081H53.13a1.35,1.35,0,0,0-.733,0v0.121a0.823,0.823,0,0,1,.285.041c-0.033.134-.068,0.14,0.081,0.2a0.208,0.208,0,0,0,.122.04,0.734,0.734,0,0,1,.041-0.364v0.364h0.733a0.735,0.735,0,0,1,.041-0.364v0.364c0.153-.006.143,0.019,0.2-0.081a0.14,0.14,0,0,1-.081-0.041,1.864,1.864,0,0,0,.081-0.809h0.163V20.31a0.273,0.273,0,0,0,.041-0.162H54.27l-0.041-.2a0.428,0.428,0,0,1,.244-0.081,0.413,0.413,0,0,1,.2.121h0.041v0.04a0.585,0.585,0,0,0-.2.041v0.081H54.88l0.041,0.2,0.163,0.04c0.017-.145-0.019-0.1.081-0.162v0.162H55.41V20.229h0.122v0.162c0.156,0,.36-0.049.366-0.04a0.153,0.153,0,0,1,.122.162H55.98c-0.04.041,0.04,0.04,0.041,0.04a0.148,0.148,0,0,0,.081.041c0.082-.148.018-0.158,0.285-0.162v0.04c-0.1.059-.046-0.009-0.081,0.122h0.081a5.383,5.383,0,0,1,1.181-.081,0.581,0.581,0,0,1,.041-0.2h0.041v0.081a0.224,0.224,0,0,0,0,.162,0.2,0.2,0,0,0-.122.041,0.466,0.466,0,0,1,.081.121H57.486a9.5,9.5,0,0,1,0,1.74h0.081a0.261,0.261,0,0,1,.041-0.162v0.324c0.324,0,.712,0,1.221,0V22.293H58.87v-0.04a0.432,0.432,0,0,0,.244-0.041c-0.409-.009-0.88-0.039-1.343-0.041V21.848H57.649a0.715,0.715,0,0,1,.2-0.688,2.1,2.1,0,0,1,1.221-.364h0.692l0.041-.081h0.122L60.051,20.8c0.254,0.063.728-.1,0.9-0.04a1.363,1.363,0,0,0,.081.121c0.283,0.123.543,0.1,0.855,0.2a8.567,8.567,0,0,0,.936.324v0.121l3.868,0.121v0.2l-3.7.081,0.041,0.2a0.635,0.635,0,0,1,.326.04c-0.164.118-.018,0.048,0,0.4,0.294,0,.389-0.009.651,0V22.293h0.081a0.541,0.541,0,0,1,.285-0.04c0.19,0.474.222,0.336,0.936,0.324a0.626,0.626,0,0,1,.041-0.324v0.324h0.2a1.551,1.551,0,0,1,.122-0.283v0.121c0.771,0.014,1.094-.129,1.873-0.162v0.04a0.418,0.418,0,0,0-.081.243h0.285a0.521,0.521,0,0,1,.041-0.283v0.283h0.122c0.052-.134.109-0.109,0.163-0.243a0.273,0.273,0,0,1-.041-0.162h0.244c0.016-.106-0.03-0.053.081-0.081,0.008,0.057-.033-0.016-0.041.04-0.078.031,0.081,0.041,0.081,0.041,0.046-.072.073-0.01,0.285,0v0.162a0.2,0.2,0,0,0-.122.04,1.337,1.337,0,0,0,.773-0.04v0.121H69.5a0.194,0.194,0,0,1,.041-0.121,1.426,1.426,0,0,0,.285,0l0.041,0.121h0.489v-0.2h0.285a0.189,0.189,0,0,0,0,.2V22.252a3.878,3.878,0,0,0,.651-0.041v0.2h0.244a0.337,0.337,0,0,1,.041-0.2,0.337,0.337,0,0,0,.041.2,0.759,0.759,0,0,1,.366-0.041,0.337,0.337,0,0,1,.041-0.2v0.2c0.205-.027.115-0.079,0.244,0l-0.041-.121h0.081a0.177,0.177,0,0,0,.122.121c0.083-.185.1-0.089,0.2,0,0.062,0.054.036-.071,0.041-0.081a0.268,0.268,0,0,1,.244.081H73a0.337,0.337,0,0,1,.041-0.2v0.2H73.4V22.252h0.366a0.194,0.194,0,0,1,.041-0.121v0.04h0.041l-0.041.081h0.041a0.414,0.414,0,0,1,.366.081,2.977,2.977,0,0,0,1.059-.081,0.337,0.337,0,0,1,.041-0.2,0.194,0.194,0,0,0,.041.121,0.961,0.961,0,0,1,.041-0.445,0.57,0.57,0,0,0,.081.486V21.929H75.6a0.337,0.337,0,0,1,.041-0.2v0.2a1.111,1.111,0,0,0,.448,0v0.324h0.122a0.626,0.626,0,0,1,.122-0.243,0.2,0.2,0,0,0,.041.122,0.2,0.2,0,0,1,.041-0.122v0.081a0.413,0.413,0,0,0,.366.121c0.161,0.1.222-.021,0.326-0.081a0.713,0.713,0,0,0,.611.121,0.522,0.522,0,0,1,.041-0.283v0.283h0.611a0.626,0.626,0,0,1,.041-0.324v0.324l0.773-.041a0.624,0.624,0,0,1,.041-0.324v0.324c0.236-.039.223-0.1,0.448-0.121v0.041a0.266,0.266,0,0,0-.122.243l0.2,0.041V22.374H79.8c0-.066-0.041-0.364-0.041-0.364l0.122-.04a1.322,1.322,0,0,0-.041-0.486,20.556,20.556,0,0,0,.041-2.469h0.041v0.041h0.041a12.11,12.11,0,0,0-.041,2.145,4.9,4.9,0,0,1,0,.809,1.564,1.564,0,0,1,.041.567,8.222,8.222,0,0,1-.407.85,10.467,10.467,0,0,0-.529,1.619c-0.206.838,0.054,2.045-.244,2.793a6.755,6.755,0,0,1-1.71.04H60.906a3.092,3.092,0,0,1-1.1.04H57.038l-10.015.04c-7.149,0-14.331-.081-21.374-0.081H15.267a28.652,28.652,0,0,0-5.985-.4l-0.163-.4a3.857,3.857,0,0,1-1.221.2,3.4,3.4,0,0,1-.326.688H7.532A0.26,0.26,0,0,0,7.491,27.8v0.081A0.467,0.467,0,0,0,7.41,28H7.328V27.231H7.247c0,0.181,0,.222-0.122.283a9.107,9.107,0,0,1-2.076.041l-0.041-.081a4.636,4.636,0,0,1-.285-1.538H4.763V25.9a0.53,0.53,0,0,0,.285-0.04,8.767,8.767,0,0,1-2.565-.648,2.785,2.785,0,0,1-.57-0.648c-0.089,0-.077.044-0.163-0.041a0.2,0.2,0,0,0,.122-0.04c-0.182-.207-0.159-0.582-0.326-0.81-0.049-.031-0.2-0.048-0.244-0.081H1.344a0.209,0.209,0,0,1,.122-0.041l0.041-.526H1.547V23.1a0.628,0.628,0,0,0,.244.324,0.439,0.439,0,0,1,.2,0,0.436,0.436,0,0,0,.041-0.243H2.076v0.243H2.809a0.521,0.521,0,0,1,.041-0.283v0.283H3.135V23.183a2.357,2.357,0,0,1,.651-0.04,0.865,0.865,0,0,1,.041.283H4.193a0.909,0.909,0,0,1,.122-0.283V23.3c0.209-.021.294-0.023,0.489-0.041l0.041,0.162H4.885a0.521,0.521,0,0,1,.041-0.283v0.243H5.252a0.2,0.2,0,0,1,.041-0.121,0.2,0.2,0,0,0,.041.121,0.337,0.337,0,0,1,.041-0.2v0.2H5.537a0.424,0.424,0,0,1,.041-0.243,0.425,0.425,0,0,0,.041.243,0.276,0.276,0,0,0,.163.041,0.387,0.387,0,0,1,.407-0.041,0.425,0.425,0,0,1,.041-0.243v0.243H7a0.337,0.337,0,0,1,.041-0.2v0.2H7.084V23.345a0.576,0.576,0,0,0,.163.041V23.143H7.288c0.349,0.2,1.957-.3,2.361-0.364,0.328-.055.516,0.088,0.814,0.04a8.655,8.655,0,0,1,1.995,0,1.989,1.989,0,0,0-.041.567h0.122v-0.2h0.244a0.337,0.337,0,0,0,.041.2V23.143l0.366,0.04a0.337,0.337,0,0,0,.041.2,1.2,1.2,0,0,1,.041-0.526c0,0.158-.02.182,0.081,0.243a0.276,0.276,0,0,1,.163-0.04V22.819a0.58,0.58,0,0,1,.163-0.04v0.04c-0.137.053-.118,0.062-0.122,0.243h0.082a0.357,0.357,0,0,1,.366-0.081v0.364h0.041c0.1-.048.172,0.043,0.2,0a0.427,0.427,0,0,1,.244-0.081,0.139,0.139,0,0,0,.041.081,0.261,0.261,0,0,1,.041-0.162c0.06,0.1.018,0.063,0.163,0.081a0.746,0.746,0,0,1,.366-0.688V22.536H14.738c-0.066-.041-0.26-0.039-0.326-0.081a2.94,2.94,0,0,0,.814-0.04V22.374a0.433,0.433,0,0,1-.326-0.081,0.339,0.339,0,0,0,.081-0.122H14.453v-0.04a1.22,1.22,0,0,0,.529-0.041,0.747,0.747,0,0,1-.366-0.04H15.1V21.969c0-.042.021-0.073,0.041-0.2a0.628,0.628,0,0,1,.326.081,0.436,0.436,0,0,0,.041-0.243h0.122a0.833,0.833,0,0,1,0,.243h0.041c0.023-.053,0-0.03.041-0.041a0.722,0.722,0,0,1,.163.081H15.837c-0.035.026-.128,0.054-0.163,0.081a0.492,0.492,0,0,1-.122.364,0.354,0.354,0,0,0,.2.04,0.261,0.261,0,0,1,.041-0.162v0.121h0.244v0.121h0.2a0.337,0.337,0,0,1,.041-0.2c0.02,0.389.752,0.261,1.14,0.243V22.252h0.041v0.04h0.041a0.634,0.634,0,0,0-.041.2l0.244,0.04a0.522,0.522,0,0,1,.041-0.283v0.283h0.9V22.374a2.534,2.534,0,0,0,1.221-.121c-0.146-.017-0.1.019-0.163-0.081a0.3,0.3,0,0,0,.326-0.081,0.206,0.206,0,0,0,.041-0.121l-3.7-.081v-0.2l3.868-.121V21.443h0.081c0.081-.063,1.766-0.613,1.832-0.607a6.331,6.331,0,0,1,1.14,0h1.018L25.282,21.2a6.071,6.071,0,0,1,.122.688H25.282v0.283H25.2c-0.277.165-.9-0.063-1.14,0.122h0.122v0.283a2.717,2.717,0,0,0,1.018-.041,1.963,1.963,0,0,1-.774-0.04,9.97,9.97,0,0,1,1.221-.04V22.293a0.265,0.265,0,0,1-.163-0.04h0.163c0.02-.3.04-0.66,0.041-1.012h0.081V21.6a2.216,2.216,0,0,0,.855-0.041H25.934v-0.04a1.574,1.574,0,0,0,.244-0.567,3.244,3.244,0,0,1-1.1-.081,12.246,12.246,0,0,0,2.361-.2,0.518,0.518,0,0,0,.163.243v0.162H27.277V21.16a0.116,0.116,0,0,0-.041.04H27.4a0.291,0.291,0,0,1,.163-0.081,0.238,0.238,0,0,0,0,.162,0.541,0.541,0,0,1,.285-0.04v0.2H27.6V21.6h0.733a0.733,0.733,0,0,1,.041-0.364,0.734,0.734,0,0,0,.041.364,0.733,0.733,0,0,1,.041-0.364V21.6h0.366a0.949,0.949,0,0,1,0-.445H28.7V20.876h0.122c-0.01-.3-0.021-0.365.326-0.364v0.121h0.326V20.512H29.6v0.121H29.72V20.512h0.326l0.041-.243h0.163a0.739,0.739,0,0,1,.041.243,0.861,0.861,0,0,0,.407-0.041,1.666,1.666,0,0,1-.081-0.931H30.534v0.2H30.249a1.685,1.685,0,0,1,.041-0.688v0.121h0.2l0.041-.324a2,2,0,0,1,.489,0c0.071-.612.075-1.578,0.081-2.186a3.079,3.079,0,0,1,.041-1.052,16.9,16.9,0,0,0,.082,3.2h0.163a0.459,0.459,0,0,0,.244.04c0,0.764-.037,1.222-0.041,2.024h0.366A1.75,1.75,0,0,0,32,21.4a0.287,0.287,0,0,1,.244,0,0.194,0.194,0,0,0,.041.121,2.791,2.791,0,0,1,.9-0.4,0.677,0.677,0,0,0,.611.122v-0.2a1.306,1.306,0,0,1,0-.445h0.122V20.471c-0.533,0-1.226,0-1.873,0a0.712,0.712,0,0,1-.081-0.4h1.1a0.284,0.284,0,0,1,.122-0.243,1.067,1.067,0,0,0,.733-0.243v0.04H33.873a0.845,0.845,0,0,1-.366.2v0.041h0.611V19.5H34.076a0.291,0.291,0,0,1-.163.081v-0.04a0.443,0.443,0,0,0,.122-0.081,5.1,5.1,0,0,1-2.2-.162,0.521,0.521,0,0,0,.326-0.081,0.433,0.433,0,0,1-.2-0.486,1.14,1.14,0,0,1,.122-0.243c0.355-.2.357,0.552,0.692,0.607,0.039-.025.97-0.277,1.018-0.283v0.04H33.669v0.162a0.556,0.556,0,0,0,.57-0.243c0.018-.08.041,0.081,0.041,0.081a0.25,0.25,0,0,0,.163.081,0.723,0.723,0,0,0,.244,0l0.122-.162a1.278,1.278,0,0,1,.448.081,0.357,0.357,0,0,1,.366-0.081,0.261,0.261,0,0,0,.041.162,0.337,0.337,0,0,1,.041-0.2c0.036,0.23.124,0.135,0.163,0.364a0.387,0.387,0,0,0-.163.283,0.425,0.425,0,0,0-.041-0.243c-0.017.145,0.019,0.1-.081,0.162a0.264,0.264,0,0,1-.326-0.04v0.121a0.549,0.549,0,0,1-.285,0v0.04a0.9,0.9,0,0,1,.081.4,4.64,4.64,0,0,0,1.221.041,0.577,0.577,0,0,1-.041.2h1.547c0.009,0.177.046,0.179-.081,0.283a6.764,6.764,0,0,1-2.28.121v0.122h0.122v0.648c1.087,0,2.247.053,3.216,0.081a0.321,0.321,0,0,1,0-.162,0.116,0.116,0,0,1,.041.04,1.2,1.2,0,0,0,0,.121h0.57a2.1,2.1,0,0,1,.163-0.4,0.116,0.116,0,0,1-.041-0.04,4.652,4.652,0,0,1-1.018-.2V20.188h1.14V18.529a3.957,3.957,0,0,1-1.3-.283,0.409,0.409,0,0,0,.366-0.121h0.041v-0.04H38.229v-0.04h0.326V17.517h0.081a0.473,0.473,0,0,1,.448,0v0.526h0.122a0.337,0.337,0,0,1,.041-0.2v0.2h0.366V15.655a0.6,0.6,0,0,1-.285-0.688h0.041v0.162h0.285V14.2a0.2,0.2,0,0,1-.122-0.04c0.1-.052.028,0.017,0.081-0.081-0.053-.023-0.03,0-0.041-0.04a4.235,4.235,0,0,0,.081-1.376H39.491a1.081,1.081,0,0,1-.041.486A0.963,0.963,0,0,0,39.41,12.7a2.987,2.987,0,0,0-1.1-.04v-0.04c0.462,0,1-.012,1.343,0a5.066,5.066,0,0,0-.081-1.417c0.1-.065.058-0.138,0.163-0.2C39.734,12.181,39.771,13.727,39.776,15.129Zm8.631-2.712h0.081v0.04A0.14,0.14,0,0,1,48.407,12.417Zm0.814,0.85V13.51h0.2V13.267h-0.2Zm0,0.283v0.081h0.2V13.55h-0.2Zm-2.158,1.214v0.081C47.129,14.8,47.113,14.828,47.064,14.764Zm3.053,0.2H50.2v0.081H50.117V14.967Zm-10.748.2v0.243h0.285V15.169H39.369Zm9.974,0.486v0.162h0.081V15.655H49.344Zm0.2,0a0.26,0.26,0,0,0,.041.162A0.26,0.26,0,0,0,49.547,15.655Zm0.122,0a0.261,0.261,0,0,0,.041.162A0.261,0.261,0,0,0,49.669,15.655Zm-6.758.081a4.218,4.218,0,0,0,.2.81h0.041V16.383A1.933,1.933,0,0,0,42.911,15.736Zm-3.135,2.307c0.3,0,.4,0,0.733,0V18a20.238,20.238,0,0,0-.733-2.145C39.783,16.587,39.8,17.294,39.776,18.043ZM49.262,16.5a0.292,0.292,0,0,1-.163.081v0.041h0.081a0.209,0.209,0,0,1,.122-0.041A0.139,0.139,0,0,0,49.262,16.5Zm-18.85.04h0.081v0.04H30.412v-0.04Zm17.425,0a0.147,0.147,0,0,0,.081.04A0.148,0.148,0,0,0,47.837,16.545Zm-17.343.04h0.081v0.041A0.139,0.139,0,0,1,30.494,16.586Zm0.081,0.041h0.081v0.04A0.14,0.14,0,0,1,30.575,16.626Zm0.081,0.04h0.081v0.04A0.14,0.14,0,0,1,30.657,16.667Zm0.081,0.04h0.081v0.04A0.139,0.139,0,0,1,30.738,16.707Zm0.081,0.04H30.9v0.041H30.819V16.748ZM30.9,16.788h0.081v0.041A0.14,0.14,0,0,1,30.9,16.788Zm0.081,0.041h0.081v0.04A0.14,0.14,0,0,1,30.982,16.829Zm18.4,0.121a0.206,0.206,0,0,1,.041.121H49.384V16.95Zm-0.122.162a0.147,0.147,0,0,0,.081.041A0.147,0.147,0,0,0,49.262,17.112Zm0.774,0.162c0.07,0.036.052,0.036,0.122,0H50.036Zm-6.677.04c0.045,0.067.072,0.043,0,.081V17.314Zm0.326,0.526a0.146,0.146,0,0,1,.041.081H43.685V17.841Zm-5.5.041a0.146,0.146,0,0,1,.041.081H38.188V17.881Zm1.425,0.364V18.083H39.247a0.2,0.2,0,0,1-.041.121V18.083H38.8v0.04a0.146,0.146,0,0,1,.041.081Zm0.163-.162v0.162h0.285V18.083H39.776Zm0.326,0v0.162h0.407V18.083H40.1Zm-1.71.04a0.146,0.146,0,0,1,.041.081H38.392V18.124Zm-0.122.041a0.145,0.145,0,0,1,.041.081H38.27V18.164Zm1.506,0.121v1.9h0.081c0-.348.04-0.371,0.041-0.729a0.471,0.471,0,0,1,.285-0.081V18.933a1.9,1.9,0,0,1,.326,0V18.812a0.635,0.635,0,0,1-.326-0.041h0.326V18.286H39.776Zm-0.2.041H39.043v0.041h0.041a1.523,1.523,0,0,0,.488.121V18.326Zm11.685,0.121h0.081v0.04A0.139,0.139,0,0,1,51.257,18.448Zm-16.611.04a0.145,0.145,0,0,1,.041.081H34.646V18.488Zm-0.041.162a0.2,0.2,0,0,1,.122.041,0.146,0.146,0,0,0-.041.081A0.466,0.466,0,0,1,34.606,18.65Zm-0.326.041a0.529,0.529,0,0,1,.285.041A0.531,0.531,0,0,1,34.28,18.691Zm-0.326.081v0.162H33.914V18.852c-0.029-.063-0.005-0.005,0-0.121a0.635,0.635,0,0,1,.326.04H33.954Zm-0.651.081a0.2,0.2,0,0,1,.122.041A0.2,0.2,0,0,1,33.3,18.852Zm0.244,0.081,0.041,0.122h0.041V18.933H33.547Zm-3.257.283V19.3h0.2V19.217h-0.2Zm0,0.121v0.243h0.2V19.338h-0.2Zm5.455,0.04a0.213,0.213,0,0,1,0,.243V19.379Zm-1.506.081v0.2H34.28v-0.04c0.032-.078.041,0.081,0.041,0.081a0.288,0.288,0,0,0-.081.162h0.692a1.079,1.079,0,0,0-.081-0.243c0.106-.011.08,0,0.081-0.2h-0.2v0.04a0.221,0.221,0,0,1,.122.162H34.809a0.308,0.308,0,0,0-.326-0.2C34.392,19.505,34.426,19.467,34.239,19.46ZM34.361,19.5c0.035,0.076.019,0.03,0,.121H34.321Zm-1.669.081h0.081C32.725,19.646,32.757,19.631,32.692,19.581Zm-2.4.04V19.7h0.2V19.621h-0.2Zm2.687,0.121h0.081v0.04A0.14,0.14,0,0,1,32.977,19.743Zm13.639,0.324a0.146,0.146,0,0,1,.041.081H46.616V20.067Zm0.081,0a0.146,0.146,0,0,1,.041.081H46.7V20.067Zm-9.527.121V20.35a0.2,0.2,0,0,0,.122-0.041,0.145,0.145,0,0,0,.041-0.081,0.116,0.116,0,0,1-.041-0.041H37.171Zm10.5,0.121a0.146,0.146,0,0,1,.041.081H47.674V20.31Zm0.122,0a0.2,0.2,0,0,1,.122.041A0.2,0.2,0,0,1,47.8,20.31Zm-3.868.122H44.01C43.962,20.5,43.993,20.481,43.929,20.431Zm13.15,0a0.342,0.342,0,0,1,.2.04A0.342,0.342,0,0,1,57.079,20.431Zm-23.125.04a0.651,0.651,0,0,0,.489,0H33.954Zm0.9,0a0.566,0.566,0,0,0,.448,0H34.85Zm12.173,0a0.264,0.264,0,0,1,.163.041C47.021,20.515,47.089,20.578,47.023,20.471Zm0.244,0a0.431,0.431,0,0,1,.244.041A0.431,0.431,0,0,1,47.267,20.471Zm-1.1.041v0.162h0.081V20.512H46.168Zm0.2,0v0.162h0.081V20.512H46.372Zm0.2,0c-0.013.056,0.058,0.059,0.081,0.081C46.685,20.55,46.586,20.524,46.575,20.512Zm4.519,0a0.521,0.521,0,0,0,.041.283A0.521,0.521,0,0,0,51.094,20.512Zm-3.42.04v0.081h0.041A0.138,0.138,0,0,0,47.674,20.552Zm3.338,0.041a0.337,0.337,0,0,0,.041.2A0.337,0.337,0,0,0,51.013,20.593Zm-6.962.04v0.2h0.366v-0.2H44.051Zm0.407,0v0.2l0.366-.04V20.633H44.458Zm0.407,0a0.261,0.261,0,0,0,.041.162A0.26,0.26,0,0,0,44.865,20.633Zm0.081,0V20.8h0.285V20.633H44.947Zm0.326,0a0.26,0.26,0,0,0,.041.162A0.261,0.261,0,0,0,45.272,20.633Zm0.081,0V20.8h0.285V20.633H45.354Zm0.326,0a0.26,0.26,0,0,0,.041.162A0.261,0.261,0,0,0,45.679,20.633Zm-5.863.081a0.147,0.147,0,0,0,.081.04A0.147,0.147,0,0,0,39.817,20.714Zm-8.224.2v0.121h0.285V20.917H31.593ZM31.878,21.2V21.079H31.593v0.04c0.067,0.045.025,0,0,.081h0.285Zm-30.942.041a0.79,0.79,0,0,1,.081.162H0.936V21.241Zm0,0.2c0.108,0.048.073-.036,0.122,0.081a1.156,1.156,0,0,0,.122.526H1.1a2.287,2.287,0,0,1-.936.283,0.115,0.115,0,0,0-.041-0.04L0,21.767H0.041V21.726A2.2,2.2,0,0,0,.936,21.443ZM27.481,21.6V21.443H26.952v0.04h0.041A0.533,0.533,0,0,0,27.481,21.6Zm0.041-.162a0.261,0.261,0,0,0,.041.162A0.26,0.26,0,0,0,27.522,21.443Zm11.318,0v0.445h0.326a4.443,4.443,0,0,0,.041-0.445H38.84Zm0.448,0c0.017,0.106.065,0.088,0.285,0.081V21.483A1.25,1.25,0,0,1,39.288,21.443Zm8.183,0.121v0.121h0.489V21.524c0.119,0.01.125,0.1,0.163-.081H48.081A1.145,1.145,0,0,1,47.471,21.564Zm-14.494-.04v0.162c0.256,0,.546-0.016.692,0a0.237,0.237,0,0,1,0-.162,1.236,1.236,0,0,0-.529-0.041A0.276,0.276,0,0,1,32.977,21.524Zm2.565-.041v0.2h0.611v-0.2H35.542Zm0.651,0v0.2H36.56c-0.023.119-.083,0.126,0.041,0.2a2.514,2.514,0,0,1,1.506-.324c-0.03.234-.068,0.1-0.122,0.2v0.809h0.57V22.536a0.352,0.352,0,0,1-.244-0.121,1.034,1.034,0,0,1,.163-0.648,0.36,0.36,0,0,0,.244.121v-0.4H36.193Zm-3.257.2V21.524H32.9a0.48,0.48,0,0,1-.2.081v0.04h0.041A0.355,0.355,0,0,0,32.936,21.686Zm46.86-.162a0.145,0.145,0,0,1,.041.081H79.8V21.524Zm-46.046.04a0.2,0.2,0,0,0,.041.121V21.564H33.751Zm5.5,0v0.121c0.159,0,.183.02,0.244-0.081a0.116,0.116,0,0,0,.041-0.041H39.247Zm8.142,0.121c-0.034-.131.02-0.062-0.081-0.121a2.987,2.987,0,0,1-1.1.041v0.04H46.29A2.984,2.984,0,0,0,47.389,21.686ZM32.611,21.6c-0.031.028-.091,0.053-0.122,0.081C32.55,21.675,32.734,21.641,32.611,21.6Zm11.725,0a0.164,0.164,0,0,0,.2,0h-0.2Zm0.244,0v0.081h0.041A0.138,0.138,0,0,0,44.58,21.6Zm0.081,0v0.081h0.366V21.6H44.662ZM1.1,21.645a0.146,0.146,0,0,1,.041.081H1.1V21.645Zm74.422,0a0.2,0.2,0,0,1,.122.041A0.2,0.2,0,0,1,75.522,21.645Zm4.193,0a0.145,0.145,0,0,1,.041.081H79.715V21.645Zm-4.071.041a0.264,0.264,0,0,1,.163.04A0.264,0.264,0,0,1,75.644,21.686Zm4.031,0.04c0.035,0.076.019,0.03,0,.121H79.634Zm-78.494.121a0.146,0.146,0,0,1,.041.081H1.181V21.848Zm33.873,0v0.121h0.692V21.888A2.525,2.525,0,0,0,35.053,21.848Zm44.5,0.041h0.081v0.04A0.14,0.14,0,0,1,79.552,21.888Zm-64.936.04H14.7v0.04A0.14,0.14,0,0,1,14.616,21.929ZM79.471,22.01h0.082V22.05A0.139,0.139,0,0,1,79.471,22.01ZM1.262,22.05a0.146,0.146,0,0,1,.041.081H1.262V22.05Zm67.216,0a0.264,0.264,0,0,1,.163.04A0.264,0.264,0,0,1,68.478,22.05Zm11.2,0h0.081v0.04A0.14,0.14,0,0,1,79.674,22.05Zm-63.878.04h0.082v0.041A0.141,0.141,0,0,1,15.8,22.091Zm19.257,0,0.041,0.486a0.9,0.9,0,0,0,.651-0.081H35.461v-0.04h0.285V22.091H35.053Zm-19.338.041H15.8v0.04A0.14,0.14,0,0,1,15.715,22.131ZM1.3,22.171a0.146,0.146,0,0,1,.041.081H1.3V22.171Zm35.216,0.041V22.5H36.56v-0.04a0.3,0.3,0,0,0,.081-0.243H36.519Zm-35.176.041a0.146,0.146,0,0,1,.041.081H1.344V22.252Zm22.555,0c0.07,0.036.052,0.036,0.122,0H23.9Zm-22.514.283H1.262A0.116,0.116,0,0,1,1.3,22.5a0.221,0.221,0,0,1,0-.162,0.679,0.679,0,0,1,.122.081,0.272,0.272,0,0,1,.041.162c-0.046.075-.034,0.29-0.081,0.364v-0.4ZM16.9,22.374a0.978,0.978,0,0,1,.448.041A0.622,0.622,0,0,1,16.9,22.374Zm2.239,0.081v0.121h0.244V22.455H19.135ZM38.962,22.5v0.081a0.571,0.571,0,0,1,.2,0V22.5A0.571,0.571,0,0,1,38.962,22.5Zm18.565,0-0.041.122h0.081A0.2,0.2,0,0,0,57.527,22.5Zm-56.061.081a0.146,0.146,0,0,1,.041.081H1.466V22.576Zm0.041,0.081a0.146,0.146,0,0,1,.041.081H1.506V22.657Zm0.041,0.122H1.628v0.04A0.14,0.14,0,0,1,1.547,22.779Zm11.725,0.04a0.265,0.265,0,0,1,.163.041A0.264,0.264,0,0,1,13.272,22.819ZM1.588,22.86H1.669a0.115,0.115,0,0,1-.041.04v0.041A0.146,0.146,0,0,1,1.588,22.86Zm-0.163.081a0.558,0.558,0,0,1,0,.445V22.941Zm0.2,0a0.146,0.146,0,0,1,.041.081H1.628V22.941Zm0.041,0.081a0.47,0.47,0,0,1,.081.122H1.669V23.021ZM1.71,23.183H1.791v0.041A0.139,0.139,0,0,1,1.71,23.183Zm6.718,0.2H8.835V23.345a0.205,0.205,0,0,1-.041-0.121l-0.407-.041v0.041A0.272,0.272,0,0,1,8.427,23.386Zm-6.677-.121H1.832a0.116,0.116,0,0,1-.041.041v0.04A0.146,0.146,0,0,1,1.751,23.264ZM4.723,23.3a0.2,0.2,0,0,0,.041.121A0.2,0.2,0,0,0,4.723,23.3Zm-0.285.04v0.081H4.478A0.139,0.139,0,0,0,4.438,23.345ZM5.13,25.9c0.07,0.036.052,0.036,0.122,0H5.13Zm0.2,0.041a0.147,0.147,0,0,0,.081.04A0.147,0.147,0,0,0,5.333,25.936Zm0.2,0.04c0.07,0.036.052,0.036,0.122,0H5.537Zm0.2,0.041c0.07,0.036.052,0.036,0.122,0H5.74Zm0.2,0.04c0.07,0.036.052,0.036,0.122,0H5.944ZM6.188,26.1a0.147,0.147,0,0,0,.081.041A0.147,0.147,0,0,0,6.188,26.1Zm0.2,0.041a0.147,0.147,0,0,0,.081.04A0.147,0.147,0,0,0,6.392,26.138ZM6.8,26.219a0.147,0.147,0,0,0,.081.04A0.148,0.148,0,0,0,6.8,26.219ZM7,26.26a0.147,0.147,0,0,0,.081.041A0.147,0.147,0,0,0,7,26.26Zm0.2,0.041a1.381,1.381,0,0,1,.122.283H7.369l0.041-.243Zm0.733,0.162v0.2H8.224L8.265,26.5H8.1A0.276,0.276,0,0,0,7.939,26.462Zm0.774,0.162-0.041.121a1.4,1.4,0,0,1,.326.04v-0.04A0.606,0.606,0,0,0,8.712,26.624Z" transform="translate(0 0.5)"/>
</svg>
