<svg xmlns="http://www.w3.org/2000/svg" width="80" height="40" viewBox="0 0 80 40">
  <defs>
    <style>
      .cls-1 {
        fill: #fff;
        fill-rule: evenodd;
      }
    </style>
  </defs>
  <path id="Color_Fill_1" data-name="Color Fill 1" class="cls-1" d="M65.454,27.153l-0.094-.847H64.7a0.322,0.322,0,0,0-.094-0.188,0.323,0.323,0,0,1,.094-0.188,0.943,0.943,0,0,1,.378-0.471,6.416,6.416,0,0,0,2.456-.282,2.487,2.487,0,0,0,.472.376l-0.283.377h2.361v0.188H68.194a0.82,0.82,0,0,1-.472.094l0.094,0.847c4.114,0.029,7.892-.595,11.806-0.659a5.65,5.65,0,0,1,.094-2.165v2.918H80a23.846,23.846,0,0,1-1.039,5.741c-0.236.928-.047,2.173-0.567,2.823-0.5.419-3.731,0.188-4.722,0.188h-59.6c-0.531-.186-0.923-0.94-1.511-1.129l-4.439.188-0.189.659H7.745a1.565,1.565,0,0,0-.756-0.847l0.567-.188a1.169,1.169,0,0,1,0-.565H7.745c0.268,0.731,1.356.6,2.361,0.565l-0.095-.659c-0.693-.057-3-0.469-3.589-0.094H6.706L6.612,35.624H5.95L5.573,33.835a1,1,0,0,0,.567-0.094l-1.889.094a10.3,10.3,0,0,0-1.417-2.729V31.012H2.928c0.273-.31.438-0.143,0.472-0.753A1.242,1.242,0,0,0,3.495,29.6H3.778a0.786,0.786,0,0,1,.094-0.471c0.013,0.354-.045.331,0.189,0.471V28.565a0.729,0.729,0,0,0-.283-0.282A9.389,9.389,0,0,1,.756,29.506,6.518,6.518,0,0,0,0,27.624a13.047,13.047,0,0,0,2.645-1.035c0.209-.095.552-0.527,0.567-0.471l0.945,2.071a4.424,4.424,0,0,1,1.983-1.035,0.322,0.322,0,0,0,.094.188A8.337,8.337,0,0,1,5.006,29.6H5.762a5.092,5.092,0,0,0,1.889.094l3.967,0.094c0.078-.305-0.046-0.144.189-0.282v0.282l4.061,0.094a0.509,0.509,0,0,1,.283-0.377v0.282a3.83,3.83,0,0,0,1.511-.188,1.738,1.738,0,0,1-1.322-.188,7.76,7.76,0,0,1,2.078-.094,4.241,4.241,0,0,1,.189-1.035H16.246V28.094a4.967,4.967,0,0,0,2.267-.188,0.364,0.364,0,0,1-.189-0.282,1.8,1.8,0,0,1,.756-0.376c0.316,0.512,1.436.4,2.267,0.376v0.282h0.283v0.471a1.007,1.007,0,0,0-.661.282,1.242,1.242,0,0,0-.094.659H21.44v0.188a1.024,1.024,0,0,1,0,.471l1.417,0.094,0.095-.282a1.469,1.469,0,0,1,.189-1.412v0.094h0.094V28.094A4.549,4.549,0,0,0,25.03,28c-0.68-.016-0.928-0.182-1.7-0.188V27.529h1.039V27.341H24.274a2.025,2.025,0,0,1-.945.094,0.455,0.455,0,0,1,.094-0.282c0.348-.2,1.1.057,1.322-0.282H23.424V26.777h1.417l0.095-.471h0.472c-0.037.276-.154,0.118,0.095,0.282a0.639,0.639,0,0,1,.378-0.094V25.835h0.283a0.914,0.914,0,0,1,0,.659h0.189c0.1-.156.41-0.11,0.567,0.188a1.734,1.734,0,0,0-.661.094c0.334,0.146.147,0.264,0.283,0.376a11.512,11.512,0,0,1,1.417,0c0.632-1.255,1.817-2.188,2.456-3.388,0.18-.338-0.166-0.638,0-1.129,0.014-.041.61-0.986,0.661-1.035a10.534,10.534,0,0,1,1.133-.659c1.035-.756,2.055-1.577,3.117-2.353,3.557-2.6,6.97-5.416,10.578-8,2.1-1.507,4.1-3.18,6.234-4.706A14.625,14.625,0,0,1,54.687,4V5.694a30.11,30.11,0,0,1,.283,3.953,13.152,13.152,0,0,1,2.645,2.824l1.417,1.318,0.283,1.035c0.517,1.2,1.056,2.416,1.606,3.671,0.374,0.855,1.605,2.859,1.511,3.671a6.852,6.852,0,0,0,.283,2.447c0.5,1.294-.8,2.645,1.511,2.635A2.859,2.859,0,0,1,65.454,27.153ZM34.1,27.718V23.482h0.094c0.545,0.341,2.165.094,2.928,0.094h5.95a11.067,11.067,0,0,0,2.834-.094v0.471a11.742,11.742,0,0,0-.094,2.541l0.472,0.282c0.1,0.191,0,.43.094,0.565a1.45,1.45,0,0,1,.189-0.753h0.283a8.249,8.249,0,0,0-.189-2.823h0.189v0.188c0.19,0.331-.044,1.009.283,1.224V24.518a5.745,5.745,0,0,1-.283-1.224h0.094V23.2c0.277,0.037.118,0.154,0.283-.094H46.659V23.012a0.927,0.927,0,0,0,.472-0.753l2.928-.376v0.565c1.326,0.276,2.487.93,3.873,1.129a12.81,12.81,0,0,0-.661-4.047c-0.52-1.864-.732-3.7-1.133-5.553a4.2,4.2,0,0,0,.85-1.412c0.518-.847,1.742-2.236,1.795-3.388H54.687c-1.376,1.871-3.636,2.806-5.667,4.047-3.465,2.118-7.083,4.056-10.578,6.212-1.1.678-2.257,1.279-3.4,1.976a8.309,8.309,0,0,1-1.417.941H32.208a0.454,0.454,0,0,1,.094-0.282c0.534-1.41,3.331-2.4,4.628-3.2,4.088-2.529,8.378-4.906,12.468-7.435a29.231,29.231,0,0,1,3.778-1.976,4.188,4.188,0,0,0,1.511-.565V6.635a6.265,6.265,0,0,1-.094-2.353H54.5A8.506,8.506,0,0,1,52.7,5.6c-1.3.931-2.556,1.956-3.872,2.918-4.053,2.962-7.946,6.257-12,9.224-1.315.963-2.574,1.986-3.873,2.918-0.584.419-1.558,0.654-1.606,1.6,0.6,0.826.368,4.059,1.039,5.082a0.951,0.951,0,0,1,.661-0.471,2.569,2.569,0,0,1-.094.847H33.53A0.723,0.723,0,0,1,34.1,27.718ZM54.026,9.365a7.205,7.205,0,0,1-1.795.753,26.793,26.793,0,0,0-3.022,1.694c-3.724,2.278-7.622,4.472-11.334,6.776-1.714,1.064-4.36,1.84-5.384,3.576h0.283c0.409-.238,1.043-0.15,1.417-0.377,4.579-2.773,9.32-5.485,13.884-8.282,2.034-1.247,4.745-2.181,6.045-4.141H54.026Zm0.85,4.612V9.929H54.782v0.094a19.807,19.807,0,0,0-2.267,3.953H54.12C54.318,13.7,54.411,13.919,54.876,13.977Zm1.133-.565h0.283v0.565h2.456V13.788c-1.49-.988-2.3-2.877-3.778-3.859v1.788a1.017,1.017,0,0,1,.094.565h0.189a2.2,2.2,0,0,1,.945-0.188v0.188A1.792,1.792,0,0,0,56.009,13.412Zm-1.322.753c-0.775,0-1.336,0-2.267,0v0.094c0.627,0.615,1.33,2.188,2.078,2.541V15.765a2,2,0,0,0,.095-0.941,1.151,1.151,0,0,1-.378-0.376H54.4a0.838,0.838,0,0,0,.283.282V14.165Zm0.472,0a2.388,2.388,0,0,0,0,.753h0.094a0.516,0.516,0,0,1,.378-0.282v0.094a0.8,0.8,0,0,0-.472.847h0.094a0.606,0.606,0,0,1,.095-0.377,3.076,3.076,0,0,1-.095,1.318,1.709,1.709,0,0,0-.094-0.847,4.126,4.126,0,0,0,.189,1.882V17.365c1.194-.42,2.4-2.372,3.495-3.106V14.165H56.2a0.365,0.365,0,0,1-.283.188C55.875,14.1,55.681,14.146,55.159,14.165Zm0.189,5.271a1.993,1.993,0,0,0,.944-0.094,0.612,0.612,0,0,1-.378-0.094,1.74,1.74,0,0,1-.094-0.847,1.942,1.942,0,0,1,.756-0.282c0.138,0.239-.02.106,0.283,0.188,0.009,0.641.206,0.765,0,.941-0.073.064-.211,0.123-0.283,0.188h0.85a0.553,0.553,0,0,1,0,.377l-0.85.282c-0.026-.244.044-0.167-0.378-0.188v0.188a0.458,0.458,0,0,1,.283.094H56.1A0.683,0.683,0,0,0,55.348,20a0.576,0.576,0,0,0,.189.377c0.089,0.184-.139.049-0.189,0.094a10.652,10.652,0,0,0,.283,3.2,5.749,5.749,0,0,0,2.172.094V23.671H56.576V22.259h0.756V22.165a1.836,1.836,0,0,1-.189-0.377H57.8a2.35,2.35,0,0,0,.378.471,2.069,2.069,0,0,1,1.322,0V21.506c0.07-.114.014-0.468,0.094-0.565V20.847a0.324,0.324,0,0,1,.189.094,1.421,1.421,0,0,1,.189,1.035H61.11V21.882c-0.491-.662-0.476-1.785-0.756-2.635-0.5-1.52-1.029-3.2-1.417-4.8H58.843v0.094c-0.945.606-1.575,1.687-2.456,2.353a8.007,8.007,0,0,0-1.133.847v2.071h0.095V19.435Zm-2.834-4.706,1.417,6.4h0.095V20.188a12.58,12.58,0,0,0,.378-3.106C53.6,16.5,53.3,15.331,52.515,14.729Zm2.361,0v0.188h0.095V14.729H54.876Zm0,0.377c-0.007.815-.18,1.28-0.189,2.165a0.364,0.364,0,0,1,.189.282h0.095V17.082C54.875,16.851,55.2,15.618,54.876,15.106Zm4.817,1.129L61.3,21.977a3.115,3.115,0,0,0,.945.094V21.882a8.568,8.568,0,0,1-.756-1.788c-0.359-.818-0.871-1.726-1.228-2.541A4.2,4.2,0,0,0,59.693,16.235Zm-4.439.377c0.233,0.122.064-.04,0.189,0.188H55.348v0.094H55.254V16.612ZM54.12,22.259h0.945c-0.026-1.228-.006-1.943,0-3.388-0.246-.026-0.186,0-0.189-0.471,0.283-.212.014-0.594-0.189-0.941H54.593v0.565A23.158,23.158,0,0,0,54.12,22.259Zm1.228-3.953a0.632,0.632,0,0,1,0,.659V18.306Zm-0.378.188a0.454,0.454,0,0,0,.094.282V18.494H54.971Zm2.267,0.471a0.458,0.458,0,0,1,.283.094H57.237V18.965Zm-1.417,1.223a0.457,0.457,0,0,1,.283.094A0.458,0.458,0,0,1,55.821,20.188Zm-0.283.094a0.457,0.457,0,0,1,.283.094A0.458,0.458,0,0,1,55.537,20.282Zm-24.368,1.6a1.942,1.942,0,0,1-.567.847,0.969,0.969,0,0,1,.095.471h0.094V23.106C30.842,23.068,31.582,22.339,31.169,21.882Zm0.567,0.471h0.189v0.094H31.83a0.483,0.483,0,0,1-.283.094V22.447A0.324,0.324,0,0,0,31.736,22.353ZM52.8,27.435c0.38,0.012.517,0.051,0.661-.188a1.286,1.286,0,0,0-.094-0.377c0.277,0.037.118,0.154,0.283-.094a1.484,1.484,0,0,0,.094-0.753,6.768,6.768,0,0,1-2.361-1.506h0.094c0.507,0.607,1.525.752,2.078,1.318a0.324,0.324,0,0,0,.189-0.094c0.3-.494.077-1.334,0.378-1.788v0.659h1.795V23.859a8.271,8.271,0,0,1-2.172,0,31.357,31.357,0,0,0-3.684-1.129v0.094h0.189a0.676,0.676,0,0,0,.378.188v0.094c-0.306.078-.144-0.046-0.283,0.188a1.2,1.2,0,0,1,.567.659H50.815a0.947,0.947,0,0,0-.567-0.471v0.094a10.2,10.2,0,0,1,.094,3.012C51.3,26.606,52,27.125,52.8,26.871v0.565ZM31.169,22.918V23.2a0.728,0.728,0,0,0-.472.753c0.517,0.861-.081,2.575.472,3.388C31.246,26.489,31.542,23.542,31.169,22.918Zm18.89,0.188v0.188h0.095A0.322,0.322,0,0,0,50.059,23.106ZM31.83,27.718h0.378a22.8,22.8,0,0,0-.756-4.047q0.047,1.694.094,3.388A1.155,1.155,0,0,1,31.83,27.718Zm22.2-4.047a0.277,0.277,0,0,0,.378,0H54.026Zm0.472,0a0.381,0.381,0,0,0,.472,0H54.5ZM34.475,27.718h0.283c0.027-.652.008-0.98,0-1.694a0.75,0.75,0,0,0,.283-0.188c0.225,0.212.033,0.1,0.378,0.094a1.972,1.972,0,0,1,.094-0.941v0.941l2.456-.188V25.082a7,7,0,0,1,1.889-.094,1.327,1.327,0,0,1,.095.377,0.339,0.339,0,0,0-.095.188h0.756l0.189-.941h0.189V24.8a1.788,1.788,0,0,0,.378.753,0.681,0.681,0,0,1,.567-0.471v0.471h0.378a1.456,1.456,0,0,1,.094-0.753v0.753l1.322-.094a1.5,1.5,0,0,1,.189-0.565v0.565h0.661a1.709,1.709,0,0,1,.094-0.847v0.847a1.607,1.607,0,0,0,.567-0.094v0.659a0.813,0.813,0,0,0-.094.471h0.378V24.329c-0.872-.585-1.285-0.492-2.739-0.471v0.188c-0.13.13-.093-0.167-0.094-0.188H37.308c-0.122.232,0.041,0.064-.189,0.188a0.583,0.583,0,0,1,.189.753,0.34,0.34,0,0,1-.189.094,2.036,2.036,0,0,1,0-1.035H34.947a1.592,1.592,0,0,0-.472,1.318A14.558,14.558,0,0,0,34.475,27.718Zm-6.517-.188-0.095.565A1.226,1.226,0,0,0,28.524,28H28.241V27.718h0.567V27.529a0.634,0.634,0,0,1-.189-0.471l0.283-.094a3.452,3.452,0,0,1,1.889,0V26.306a9.241,9.241,0,0,1-.283-2.353H30.413v0.188a20.655,20.655,0,0,0-2.456,3.294,2.911,2.911,0,0,0-1.889.094h1.889Zm14.923-3.576a0.672,0.672,0,0,1-.095.565L42.5,24.424V24.235A0.874,0.874,0,0,0,42.881,23.953Zm8.028,0a0.946,0.946,0,0,1,.472.565H51.287A2.1,2.1,0,0,1,50.909,23.953ZM59.6,24.047v0.941a1.068,1.068,0,0,0,.472,0c0.174-.267.009-0.556,0.756-0.565V24.047H59.6Zm-17,.471a2.114,2.114,0,0,0,1.228.188v0.188H43.731A4.686,4.686,0,0,0,42.6,24.8C42.362,24.644,42.5,24.784,42.6,24.518Zm9.256,0.565a2.887,2.887,0,0,1,1.039,1.224H52.8A6.142,6.142,0,0,1,51.854,25.082Zm-4.911.188a7.43,7.43,0,0,0,.189,1.318A1.721,1.721,0,0,0,46.942,25.271Zm-12.184.282a0.339,0.339,0,0,1,.094.188H34.758V25.553Zm27.674,0.377v0.188h0.095V25.929H62.432Zm-9.539.377a0.945,0.945,0,0,1,.472.565H53.27A2.1,2.1,0,0,1,52.893,26.306Zm2.078,1.129a3.654,3.654,0,0,1,.189-1.129H55.065a2.025,2.025,0,0,1-.945.094l-0.283.847a0.339,0.339,0,0,1,.094.188h1.039Zm-8.784-.941a0.339,0.339,0,0,1,.094.188H46.187V26.494Zm33.247,0.094c-0.606.373-1.648,0.016-2.456,0.188a20.4,20.4,0,0,1-3.4.282v0.094h0.189a15.994,15.994,0,0,0,4.156-.282c0.646-.148,1.4.191,1.7-0.282H79.433Zm-34,.471a0.819,0.819,0,0,1-.472.094v0.188h0.472C45.469,27.128,45.518,27.239,45.431,27.059Zm27.2,0a7.092,7.092,0,0,1-1.7.094,16.658,16.658,0,0,1-3.022.188v0.188h0.756c0.927-.556,3.513.225,4.439-0.377Zm5.761,0.471V27.247a3.331,3.331,0,0,0,.945.188,0.839,0.839,0,0,1,.283-0.282V27.059H78.489c-0.61.371-2.367,0.127-3.117,0.377v0.094h0.094v0.094A13.867,13.867,0,0,1,78.394,27.529Zm-43.164.188h0.283V27.341h0.094a0.322,0.322,0,0,0,.095.188V27.247a1.361,1.361,0,0,1-.472-0.094v0.565Zm0.661-.376v0.188a0.793,0.793,0,0,1,.472.094,0.794,0.794,0,0,0-.472.094,4.547,4.547,0,0,0,1.794-.094,2.566,2.566,0,0,1-1.322-.188,0.612,0.612,0,0,0,.378-0.094h-0.85Zm38.914,0-0.094.282h0.378A0.575,0.575,0,0,0,74.805,27.341Zm-11.429.094c0.3,0.333,1.461.207,2.078,0.188V27.435H63.377Zm10.39,0v0.188l0.567,0.094V27.529A1.734,1.734,0,0,0,73.766,27.435Zm-1.794.094a1.5,1.5,0,0,1-.756.094L71.122,28h0.189a10.028,10.028,0,0,1,1.606-.188l-0.094-.188h0.094A2.025,2.025,0,0,0,71.972,27.529Zm-28.052.094a1.5,1.5,0,0,1-.756.094l0.095,0.188H43.164c-0.113.073-.455,0.113-0.567,0.188,0.38-.012.517-0.051,0.661,0.188-0.38-.012-0.517-0.051-0.661.188h1.7V28.377A4.142,4.142,0,0,0,43.92,27.624Zm0.85,0v0.188l0.189-.094v0.094a0.339,0.339,0,0,0,.094-0.188H44.77Zm8.784,0V28h0.189V27.624H53.554Zm1.606,0.282V27.624a3.6,3.6,0,0,0-1.322.094L53.932,28A4.287,4.287,0,0,1,55.159,27.906ZM68,27.718a0.342,0.342,0,0,0,.189.094A0.341,0.341,0,0,0,68,27.718Zm-41.181.377V27.812a1.727,1.727,0,0,0-.85.094,0.793,0.793,0,0,1,.472.094,0.793,0.793,0,0,0-.472.094h0.85Zm36.741-.188v0.377H63.66a5.167,5.167,0,0,1,1.983-.094A0.577,0.577,0,0,1,65.832,28V27.906A16.533,16.533,0,0,0,63.566,27.906Zm-58.56,0-0.756.471a3.539,3.539,0,0,1,.283.659H4.628V28.941A1.392,1.392,0,0,0,5.006,27.906Zm26.163,0v0.188h0.095V27.906H31.169Zm3.4,0v0.188h0.378V28H34.852V27.906A0.317,0.317,0,0,1,34.569,27.906Zm2.928,0c-0.357.215-1.251-.032-1.606,0.188,0.682,0.015,2.171.211,2.645-.094A3.347,3.347,0,0,1,37.5,27.906Zm1.133,0v0.188h0.283V27.906A0.317,0.317,0,0,1,38.631,27.906Zm0.756,0c-0.081.061-.3,0.126-0.378,0.188h0.472A0.322,0.322,0,0,0,39.386,27.906Zm1.322,0c0.036,0.246-.07.123,0.189,0.188V27.906H40.708Zm1.606,0v0.188H42.5V27.906H42.314Zm-8.5.094a0.34,0.34,0,0,0,.189.094A0.341,0.341,0,0,0,33.814,28Zm-27.769.188a0.339,0.339,0,0,1,.094.188H6.045V28.188Zm47.509,0c0.078,0.306-.046.144,0.189,0.282V28.188H53.554Zm1.606,0.282V28.188H53.837v0.188h0.094A2.861,2.861,0,0,0,55.159,28.471Zm-26.919-.188v0.188C28.393,28.359,28.356,28.431,28.241,28.282Zm5.573,0v0.188H34V28.282H33.814Zm0.661,0a0.447,0.447,0,0,0,.472.188V28.282H34.475Zm1.417,0v0.188a6.392,6.392,0,0,1,1.7,0V28.282h-1.7Zm1.794,0v0.188h0.85V28.282h-0.85Zm1.039,0c0.041,0.259.317,0.208,0.85,0.188V28.377A2.736,2.736,0,0,0,38.725,28.282Zm1.983,0c0.036,0.246-.07.123,0.189,0.188V28.282H40.708Zm1.606,0v0.188H42.5V28.377Zm10.012,0c-0.073.064-.211,0.123-0.283,0.188,0.356-.013.332,0.044,0.472-0.188H52.326ZM38.914,30.071h1.511c0.041-.5.174-0.639,0.189-1.223a3.188,3.188,0,0,0-1.7.188A1.6,1.6,0,0,1,38.914,30.071ZM4.25,29.035V29.6H4.439V29.224C4.357,29.154,4.333,29.105,4.25,29.035ZM18.04,29.6c0.195,0.226.09,0.02,0.283,0.094C18.381,29.523,18.132,29.617,18.04,29.6Zm2.739,0a0.277,0.277,0,0,0,.378,0H20.779Zm-11.712.847c0.307-.078.144,0.046,0.283-0.188H9.256V30.165H9.067v0.282ZM10.3,34.588a4.547,4.547,0,0,0,1.795-.094L10.3,33.929v0.659Z"/>
</svg>
