<?xml version="1.0" encoding="utf-8"?>
<!-- Generator: Adobe Illustrator 16.0.0, SVG Export Plug-In . SVG Version: 6.00 Build 0)  -->
<!DOCTYPE svg PUBLIC "-//W3C//DTD SVG 1.1//EN" "http://www.w3.org/Graphics/SVG/1.1/DTD/svg11.dtd">
<svg version="1.1" id="Layer_1" xmlns="http://www.w3.org/2000/svg" xmlns:xlink="http://www.w3.org/1999/xlink" x="0px" y="0px"
	 width="39.906px" height="40px" viewBox="0 0 39.906 40" enable-background="new 0 0 39.906 40" xml:space="preserve">
<path id="Color_Fill_1" fill="#FFFFFF" d="M15.606,1.003c0.015,0.131,0.048,0.26,0.1,0.382c0.094,0.032,0.193,0.048,0.292,0.048
	c0.041-0.03,0.089-0.046,0.139-0.048l0.049,0.143c0.246,0.71,0.394,1.45,0.438,2.2c0.225,0.865,0.249,1.808,0.487,2.724
	c0.2,0.754,0.362,1.663,0.487,2.438c-0.016,0.101-0.05,0.198-0.1,0.287c0.04,0.316,0.174,0.672,0.195,1.051l-0.438,0.048
	c-0.066,0.085-0.116,0.183-0.146,0.287c0.112,0.256,0.162,0.534,0.146,0.813l-0.389,0.048v0.143h0.243
	c0.026,0.061,0.042,0.125,0.049,0.191c-0.031,0.042-0.049,0.091-0.049,0.143h0.1c0.26,0.165,0.215-0.083,0.487-0.048
	c0.398,0.098,0.789,0.226,1.168,0.382c0.848,0.31,1.745,0.539,2.628,0.86c0.564,0.271,1.176,0.434,1.8,0.478v0.43
	c0.116,0.019,0.2,0.122,0.194,0.239c-0.16,0.1-0.092,0.011-0.1,0.191h0.1v-0.048c0.057-0.086,0.092-0.185,0.101-0.287
	c-0.038-0.004-0.073-0.021-0.101-0.048h0.488v0.053c-0.059,0.414-0.042,0.835,0.049,1.243h0.146c-0.035,0.333-0.035,0.668,0,1
	c0.437-0.059,0.874,0.103,1.168,0.431c0.179,0.415,0.16,0.889-0.049,1.289c-0.323,0.237-0.719,0.355-1.119,0.336v0.142
	c0.329,0.059,0.654,0.138,0.974,0.239c0.044,0.365,0.044,0.734,0,1.1c-0.265,0.106-0.543,0.171-0.828,0.191
	c0.022,0.15-0.014,0.304-0.1,0.43c-0.076-0.059-0.025-0.032-0.1,0c0.08,0.141-0.146,0.382,0.049,0.382
	c0.082,0.056-0.1,0.048-0.1,0.048c-0.17,0.086-0.35,0.15-0.535,0.191c-0.064,0.217-0.082,0.445-0.049,0.668
	c0.152,0.053,0.322,0.014,0.438-0.1h-0.182v-0.281c0.83,0,1.08,0,1.9,0h0.926c0.049-0.014,0.021-0.126,0.146-0.1v0.1
	c0.292,0.131,0.749-0.02,0.974,0.1c-0.004-0.141-0.056-0.275-0.146-0.382c-0.049-0.033-0.195-0.062-0.243-0.101
	c0.1-0.392,0.1-0.803,0-1.195c0.061-0.282,0.077-0.573,0.049-0.86c0.063-1.083,0.047-2.169-0.049-3.25h0.045v0.1
	c0.072,0.249,0.171,0.489,0.292,0.718c0.293-0.167,1.036,0.129,1.363-0.101c-0.191-0.043-0.389-0.06-0.584-0.047
	c-0.045-0.304-0.029-0.612,0.049-0.908c0.077-0.051,0.144-0.115,0.195-0.191c0.057-0.499,0.008-1.004-0.146-1.482h0.146l0.049-6.739
	c0.078-1.099,0.062-2.203-0.049-3.3h0.1v10.039h0.146v0.143c0.05,0.001,0.099,0.018,0.139,0.048
	c-0.295,0.38-0.385,0.879-0.243,1.338h0.049v-0.479c-0.063-0.27,0.009-0.553,0.194-0.759c0.021,0.398,0.021,0.796,0,1.195h0.1
	c0.758-0.104,1.525-0.12,2.287-0.048c-0.021-0.114-0.055-0.227-0.1-0.334h0.1c0.09,0.39,0.385,0.36,0.876,0.334v0.043h0.05
	c-0.057,0.284-0.057,0.576,0,0.86c-0.143,0.038-0.291,0.055-0.438,0.048c0.001,0.098-0.015,0.194-0.05,0.286h-0.051v-0.047
	c-0.04-0.072-0.057-0.156-0.049-0.238h-0.486v0.335c0.56,0,0.731,0,1.361,0v3.25h-0.145v0.526h0.145
	c0,0.051,0.018,0.102,0.049,0.143v-3.92c0.037-0.162,0.115-0.486,0.146-0.621l-0.049-0.239c0.082-0.151,0.147-0.312,0.195-0.478
	c0.531-0.088,1.074-0.088,1.605,0v-0.287c0.068-0.006,0.137,0.012,0.195,0.048c-0.158,0.04-0.074-0.022-0.146,0.101h0.1
	c0.277-0.118,0.581-0.152,0.877-0.101c0.839,0,1.477-0.009,2.238,0v0.044h0.049v0.143h0.24v0.049h0.049
	c0.125,0.42,0.206,0.853,0.244,1.289l0.633,0.049v0.143c0.287,0.062,0.555,0.193,0.778,0.383l-0.146,0.238
	c0.248,0.047,0.213,0.2,0.195,0.479l-0.146,0.047c-0.061,0.125,0.126,0.095,0.146,0.144c0.05,0.413,0.05,0.83,0,1.243
	c-0.158,0.04-0.074-0.023-0.146,0.1c-0.258-0.12-0.543-0.17-0.827-0.143v0.1l0.778,0.049v0.047h-0.051
	c-0.304,0.07-0.613,0.119-0.924,0.144v0.048c0.234-0.016,0.465,0.072,0.633,0.239c0.039,0.542,0.023,1.087-0.049,1.625
	c-0.116-0.004-0.231,0.013-0.342,0.048c0.027,0.026,0.063,0.043,0.1,0.047c0.086,0.064,0.188,0.098,0.293,0.102v0.18
	c0.164-0.023,0.316,0.09,0.34,0.254c0.004,0.027,0.004,0.055,0,0.082c-0.149,0.09-0.268,0.223-0.34,0.381
	c-0.035,0.043-0.166,0.059-0.195,0.102c-0.137,0.184,0.035,0.393-0.1,0.477c-0.062,0.041-0.127,0.074-0.195,0.102
	c0.016,0.113-0.002,0.229-0.049,0.334V23.18c-0.08-0.018-0.164-0.018-0.243,0c-0.556,0.133-0.903,0.686-0.779,1.244h0.049v0.047
	h-0.29c-0.238,0.068-0.491,0.068-0.729,0l0.049-0.143c-0.137,0.006-0.272-0.027-0.39-0.1c0.031-0.041,0.049-0.092,0.05-0.143
	l-0.876,0.143v0.191c0.378,0.568-0.301,1.533-0.487,1.768c-0.87,0.918-2.32,0.959-3.239,0.088c-0.396-0.375-0.646-0.881-0.703-1.426
	h-0.049v0.055c-0.411-0.061-0.83-0.012-1.217,0.143c-0.029-0.076-0.046-0.158-0.049-0.238l-0.827-0.049
	c0.045,1.182-0.877,2.176-2.059,2.221c-0.312,0.012-0.622-0.045-0.909-0.166c-0.869-0.383-1.426-1.25-1.411-2.199l-0.535-0.049
	v0.338h-0.049v-0.051c-0.038-0.059-0.058-0.23-0.101-0.287c-0.14-0.053-0.289-0.068-0.438-0.049v-0.047h-0.047v0.143h-7.882
	c-0.035-0.168-0.06-0.119-0.1-0.287h-0.289c-0.075,0.146-0.225,0.238-0.389,0.24c-0.085-0.127-0.094-0.049-0.243-0.102v0.049
	c0.071,0.398-0.016,0.811-0.243,1.146c-0.51,1.021-1.682,1.527-2.774,1.195c-0.448-0.17-0.837-0.465-1.12-0.852
	c-0.081-0.346-0.23-0.67-0.438-0.957C9.919,24.996,9.769,24.98,9.621,25c-0.219,1.008-1.027,1.783-2.044,1.959
	c-1.202,0.182-2.323-0.645-2.505-1.846c-0.039-0.26-0.032-0.525,0.023-0.783c0.114-0.326,0.278-0.633,0.487-0.908H4.949v1.053
	C4.71,24.541,4.735,24.701,4.754,25c-0.024,0.172-0.091,0.338-0.195,0.479c0.136-0.582,0.152-1.186,0.05-1.775v0.91
	c-0.254,0.074-0.215,0.305-0.195,0.621c-0.061,0.119-0.095,0.25-0.1,0.383H4.171c0.04-0.512,0.142-1.096,0.146-1.768H4.122v-0.047
	c0.065-0.061,0.102-0.148,0.1-0.238H3.976v-0.146H3.295c0.044,0.256,0.027,0.518-0.049,0.766c-0.165,0.018-0.329,0.051-0.487,0.1
	c-0.114-0.111-0.152-0.279-0.1-0.43H2.613v-0.051l-0.146-0.049c-0.038,0.033-0.109,0.063-0.146,0.1c-0.1,0.17,0.009,0.6-0.1,0.766
	c-0.012-0.127-0.012-0.256,0-0.383c-0.123-0.02-0.077,0.027-0.1-0.143l0.1,0.049c0.042-0.326-0.107-0.645-0.384-0.818
	c-0.095,0.027-0.197,0.027-0.292,0c-0.106-0.178-0.237-0.338-0.389-0.479c-0.08-0.141-0.011-0.23,0.146-0.287
	c0.114-0.078,0.252-0.113,0.389-0.1v-0.33H1.543c-0.002-0.361-0.122-0.713-0.341-1c-0.36-0.128-0.75-0.145-1.119-0.048
	c-0.11-0.519-0.144-1.05-0.1-1.578c0.136-0.107,0.04-0.036,0-0.239l0.243-0.048v-0.242c0.116-0.004,0.231,0.013,0.341,0.049V17.97
	c0.05-0.876,0.033-1.755-0.049-2.629l1.071,0.048l-0.046,1.435h0.438c-0.004,0.324,0.045,0.646,0.146,0.955h8.662
	c0.038-0.301,0.038-0.605,0-0.907c0.317-0.085,0.646-0.118,0.973-0.101v0.101c0.055,0.089,0.04,0.342,0.1,0.43
	c0.243-0.247,0.521-0.457,0.827-0.621c0.5-0.36,0.96-0.834,1.46-1.194c0.284-0.133,0.534-0.328,0.73-0.573
	c-0.221-0.142-0.417-0.468-0.633-0.574c-0.116,0.009-0.232-0.007-0.341-0.048c-0.051-0.284-0.085-0.572-0.1-0.86
	c-0.187-0.608-0.317-1.232-0.389-1.864h0.438c0.01-0.384,0.146-0.754,0.389-1.052c-0.1-0.356-0.07-0.761-0.195-1.146
	c-0.113-0.141-0.195-0.304-0.243-0.479h0.1c0.004,0.038,0.021,0.074,0.049,0.1l-0.049-0.191c-0.11,0.019-0.053,0.044-0.146,0
	c0.111-0.525,0.076-1.07-0.1-1.577c-0.035-0.324-0.101-0.644-0.195-0.956c-0.02-0.039-0.181-0.116-0.195-0.143
	c-0.088-0.174,0.087-0.232,0.1-0.335c-0.016-0.436-0.082-0.869-0.195-1.29c-0.142-0.354-0.24-0.723-0.292-1.1
	c-0.126-0.013-0.086,0.022-0.1-0.191h0.055c0,0,0.021,0.19,0.049,0.1V3.25c0.027-0.027,0.044-0.062,0.049-0.1
	c-0.119-0.373-0.203-0.757-0.249-1.146h0.1c0.811-0.237,1.642-0.396,2.482-0.478V1.338c-0.044-0.089-0.061-0.188-0.049-0.287h0.1
	C15.408,1.009,15.508,0.993,15.606,1.003z M12.93,3.394c0,0.052,0.017,0.102,0.049,0.143V3.394H12.93z M13.368,5.926l-0.049,0.143
	h0.049V6.021C13.428,5.947,13.399,5.998,13.368,5.926z M16.677,14.338c-0.378-0.016-0.756,0.033-1.119,0.143v0.047h0.438
	c0.254-0.068,0.519-0.084,0.779-0.047v-0.526c0.714,0.045,1.43,0.03,2.141-0.048c0.026-0.305,0.213-0.261,0.535-0.239v0.235h0.1
	c0.614,0.085,1.236,0.085,1.85,0c-0.854-0.181-1.687-0.454-2.482-0.812c-0.497-0.106-0.985-0.25-1.46-0.43
	c-0.155-0.086-0.27-0.285-0.438-0.382C16.951,12.973,16.837,13.661,16.677,14.338z M29.086,14.051c0.061,0.086,0.061,0.201,0,0.287
	V14.051z M21.592,14.1c0.121,0.065,0.268,0.065,0.389,0H21.592z M23.637,14.243h0.243c0.001-0.052-0.017-0.103-0.049-0.143
	c-0.059,0.041-0.137,0.041-0.194,0V14.243L23.637,14.243z M22.227,14.481h0.146v-0.191h-0.101v-0.048h-0.047v0.239H22.227z
	 M23.589,14.434c-0.009,0.083,0.008,0.167,0.05,0.239c0.008-0.083-0.01-0.167-0.052-0.239H23.589z M31.229,14.533
	c0.027,0.027,0.045,0.063,0.049,0.101h-0.051v-0.101H31.229z M31.277,14.633c0.062,0.086,0.062,0.201,0,0.287v-0.296V14.633z
	 M33.809,14.92c0.099-0.001,0.197,0.015,0.291,0.048v0.035c-0.25,0.011-0.283,0.035-0.293-0.092L33.809,14.92z M33.708,15.021
	c0.026,0.026,0.044,0.062,0.049,0.1h-0.049v-0.117V15.021z M34.098,15.021c0.026,0.026,0.043,0.062,0.049,0.1h-0.049v-0.117V15.021z
	 M14.973,15.211l-0.049,0.144h0.1c0.003-0.057-0.015-0.112-0.05-0.156L14.973,15.211z M23.635,15.312
	c-0.098,0.061-0.153,0.172-0.146,0.287h0.1c0.036-0.098,0.054-0.201,0.048-0.306L23.635,15.312z M29.035,15.359
	c0,0.262,0.018,0.474,0,0.621h0.049v-0.1h0.053c0.004-0.185-0.031-0.367-0.1-0.539L29.035,15.359z M14.68,15.459l-0.049,0.101h0.049
	c0.007,0.066,0.049,0.047,0.049,0.047v-0.17h-0.047L14.68,15.459z M15.069,15.603c-0.503,0.475-1.058,0.892-1.655,1.242v0.049h1.655
	c0.166-0.422,0.167-0.891,0.002-1.313L15.069,15.603z M14.388,15.65c-0.006,0.068,0.011,0.135,0.049,0.191
	c0.011-0.074-0.005-0.15-0.047-0.213L14.388,15.65z M27.234,15.65c0.027,0.027,0.045,0.063,0.05,0.101h-0.048V15.65H27.234z
	 M23.489,17.683h0.147c0.064-0.637,0.048-1.279-0.049-1.912c-0.111,0.321-0.146,0.664-0.1,1c0.09,0.16,0.125,0.345,0.1,0.526
	C23.512,17.412,23.478,17.547,23.489,17.683z M28.55,15.82v0.19h0.146v-0.19H28.55z M28.745,15.82v0.19h0.101v-0.19H28.745z
	 M14.098,15.868c0,0.052,0.017,0.103,0.049,0.143C14.147,15.958,14.13,15.908,14.098,15.868z M29.037,16.01v0.101h0.1V16.01H29.037z
	 M13.806,16.111c0,0.051,0.017,0.102,0.049,0.143v-0.15h-0.049V16.111z M29.232,16.21v0.238c-0.053,0-0.104,0.018-0.146,0.049h0.051
	v0.048c0.566-0.05,1.135-0.05,1.7,0v-0.342H29.23L29.232,16.21z M13.514,16.31c0,0.053,0.017,0.103,0.049,0.144v-0.156h-0.049V16.31
	z M13.222,16.549c0,0.052,0.017,0.103,0.049,0.144v-0.156h-0.049V16.549z M27.48,16.65c-0.046,0.303-0.029,0.611,0.049,0.908
	c0.092-0.305,0.074-0.633-0.049-0.926V16.65z M12.78,16.697l-0.049,0.101c0.089-0.089,0.053-0.117,0.053-0.117L12.78,16.697z
	 M38.866,17.303c0.1,0.013,0.201-0.004,0.292-0.048c-0.084,0.01-0.169-0.008-0.243-0.048c0.146,0.021,0.292-0.032,0.39-0.144
	c-0.139-0.125-0.078-0.145,0-0.287c-0.15-0.01-0.299-0.043-0.438-0.1v0.1c-0.048,0.105-0.063,0.222-0.05,0.336
	c0.092-0.051,0.201-0.051,0.293,0l-0.243,0.048V17.303z M12.929,16.777v0.101h0.049v-0.101H12.929L12.929,16.777z M12.637,17.017
	v0.1h0.049v-0.1H12.637z M13.221,17.781v-0.767h-0.048c-0.266,0.31-0.599,0.555-0.973,0.718v0.047h1.022L13.221,17.781z
	 M39.255,17.161c0,0.168,0.101,0.157,0.39,0.143v-0.05c-0.123-0.055-0.254-0.087-0.389-0.096L39.255,17.161z M11.907,17.351
	l-0.049,0.101c0.086-0.074,0.05-0.103,0.05-0.103L11.907,17.351z M12.199,17.351c0.027,0.027,0.062,0.043,0.1,0.049
	c-0.026-0.027-0.062-0.045-0.099-0.051L12.199,17.351z M15.167,17.452c-0.016,0.114,0.001,0.229,0.049,0.335
	c0.003-0.113,0.02-0.227,0.049-0.335h-0.1H15.167z M27.48,17.683c-0.046,0.303-0.029,0.612,0.049,0.908
	C27.574,18.289,27.558,17.98,27.48,17.683z M23.49,17.732v0.287h0.146v-0.287H23.49L23.49,17.732z M38.818,17.832v0.1h0.389v-0.1
	H38.818L38.818,17.832z M39.549,17.832c-0.058,0.037-0.234,0.057-0.292,0.1c0.153,0.051,0.322,0.013,0.438-0.1H39.549L39.549,17.832
	z M23.537,18.113c0.081,0.054,0.052,0.086,0.1,0H23.537z M23.488,18.543c0.027,0.026,0.063,0.043,0.1,0.048
	C23.561,18.566,23.526,18.548,23.488,18.543L23.488,18.543z M27.479,19.07l0.049,0.668h0.1v-0.524h0.049
	c0.049-0.048-0.048-0.047-0.049-0.048c-0.043-0.039-0.094-0.072-0.146-0.096H27.479z M27.479,19.929L27.43,20.98h0.1
	c0.053-0.35,0.036-0.707-0.049-1.05L27.479,19.929z M24.169,20.838h0.101v0.048c-0.037-0.005-0.072-0.021-0.099-0.047L24.169,20.838
	z M0.957,20.98c0.055,0.051,0.14,0.051,0.195,0H0.959H0.957z M28.305,21.081c0.084,0.042,0.063,0.043,0.146,0h-0.145H28.305z
	 M29.475,21.604v-0.525c-0.313,0.008-0.617,0.107-0.875,0.287c-0.101,0.024-0.206,0.007-0.293-0.049v0.188h0.101
	C28.749,21.627,29.116,21.662,29.475,21.604z M30.205,21.078c0,0.052,0.017,0.102,0.049,0.143
	C30.254,21.169,30.237,21.119,30.205,21.078z M30.789,21.555c0.04-0.154-0.023-0.072,0.1-0.142c0.047,0.012,0.02,0.036,0.049,0
	c0.047-0.104,0.064-0.222,0.049-0.335h-0.295v0.1c-0.078,0.132-0.127,0.278-0.146,0.43h0.1
	C30.687,21.576,30.736,21.557,30.789,21.555z M31.227,21.413h0.34v-0.192h-0.1c-0.021,0.055-0.056,0.225-0.1,0.1
	c-0.034-0.047-0.063-0.19-0.1-0.238L31.227,21.413z M2.467,21.125v0.1c0.137-0.008,0.273,0.026,0.389,0.1h18.492
	c0.479,0.047,0.962-0.019,1.411-0.19H20.18v0.048h0.049c0.094,0.037-0.1,0.049-0.1,0.049c-0.375-0.131-0.776-0.166-1.168-0.101
	H2.467V21.125z M27.917,21.225c-0.009,0.12,0.013,0.105,0.194,0.144v-0.052c-0.026-0.026-0.043-0.062-0.049-0.1h-0.145
	L27.917,21.225z M29.766,21.225c-0.043,0.059-0.076,0.123-0.1,0.191h0.049c0.043,0.031,0.094,0.047,0.146,0.048
	c0.004-0.038,0.021-0.073,0.049-0.101v-0.1L29.766,21.225z M30.154,21.324v0.101h0.05c-0.002-0.04-0.019-0.079-0.048-0.108
	L30.154,21.324z M30.105,21.468c0,0.052,0.018,0.103,0.049,0.144c0.004-0.055-0.014-0.109-0.047-0.151L30.105,21.468z
	 M31.469,21.468c0.027,0.026,0.063,0.042,0.1,0.048c-0.025-0.029-0.061-0.049-0.098-0.056L31.469,21.468z M31.178,21.516
	c0.026,0.025,0.062,0.043,0.1,0.049c-0.025-0.031-0.061-0.053-0.1-0.061V21.516z M29.863,22.041v-0.152h-0.778v0.049h0.052
	c0.23,0.092,0.48,0.125,0.728,0.096L29.863,22.041z M39.4,21.941l-0.049,0.143H39.4v-0.051c0.062-0.074,0.037-0.025,0.002-0.096
	L39.4,21.941z M39.547,21.99l-0.049,0.143h0.049V22.08c0.061-0.076,0.032-0.023,0.001-0.094L39.547,21.99z M36.871,22.133
	c0.094,0.043,0.191,0.076,0.292,0.1c0.026-0.027,0.044-0.063,0.049-0.1H36.871L36.871,22.133z M37.26,22.133
	c0.06,0.131,0.197,0.209,0.342,0.191c0.086-0.068,0.186-0.115,0.291-0.145v-0.051c-0.21,0.014-0.421,0.014-0.631,0L37.26,22.133z
	 M1.397,22.654c0.006,0.066,0.022,0.131,0.049,0.191h0.048v-0.143L1.397,22.654z M1.251,22.754v0.102H1.3
	c-0.003-0.041-0.02-0.078-0.049-0.105V22.754z M38.964,22.994c0.001-0.053-0.017-0.104-0.049-0.143
	c-0.027,0.025-0.063,0.043-0.101,0.047v0.1h0.146L38.964,22.994z M14.876,24.135v-0.717h-0.584v0.102
	c0.147,0.203,0.263,0.43,0.341,0.668L14.876,24.135z M15.46,23.705h-0.146l-0.049,0.336l0.292-0.049v-0.574h-0.1v0.285L15.46,23.705
	z M18.623,23.418c0.1,0.115,0.046,0.01,0.146,0.049C18.799,23.379,18.67,23.428,18.623,23.418z M18.964,23.418v0.102h0.146v-0.102
	H18.964z M24.564,23.418c0.004,0.229-0.221,0.369-0.244,0.766h0.05c0.063-0.117-0.021-0.031,0.101-0.1
	c0.051,0.064,0.117,0.113,0.194,0.143v-0.043c0-0.016,0.392-0.6,0.487-0.766h-0.592H24.564z M28.604,23.418v0.102
	c0.091,0.092,0.207,0.156,0.334,0.184c0.246-0.041,0.479-0.139,0.681-0.287H28.6L28.604,23.418z M35.803,23.418
	c0.088,0.061,0.204,0.061,0.293,0h-0.295H35.803z M36.29,23.418v0.102h0.101v-0.102H36.29z M2.857,23.563v0.287L3.1,23.803v-0.145
	c-0.133-0.057-0.263-0.121-0.389-0.191v0.1h0.146V23.563z M23.148,24.088h0.146v-0.047c-0.049-0.191-0.031-0.395,0.049-0.574h-0.1
	C23.227,23.732,23.154,23.777,23.148,24.088z M23.49,23.467c-0.04,0.242,0.031,0.488,0.195,0.67v0.047h0.051
	c0.053-0.211,0.117-0.418,0.195-0.621C23.798,23.486,23.643,23.453,23.49,23.467L23.49,23.467z M30.254,24.467
	c0.131,0,0.262-0.016,0.389-0.047v-0.045c-0.154-0.07-0.264-0.215-0.291-0.383c0.119-0.092,0.189-0.23,0.194-0.381l-0.049-0.145
	h-0.049v0.049c-0.149,0.295-0.218,0.625-0.195,0.955L30.254,24.467z M2.467,23.514c0.055,0.051,0.14,0.051,0.195,0H2.467z
	 M18.667,23.563v0.1h0.049v-0.051h0.049c-0.025-0.025-0.058-0.043-0.093-0.049H18.667z M30.837,24.184h0.195
	c0.04-0.154-0.024-0.072,0.1-0.143c0.027,0.063,0,0.035,0.05,0.047l0.146-0.047l0.101-0.43h-0.25l-0.341,0.43V24.184z
	 M29.814,23.992l-0.047-0.289h-0.101c-0.214,0.133-0.585,0.09-0.778,0.24l0.486,0.047c0.043-0.014-0.012-0.129,0.146-0.1
	C29.611,23.943,29.711,23.977,29.814,23.992z M37.066,23.705c0.088,0.061,0.203,0.061,0.291,0H37.066z M37.407,23.85
	c-0.009,0.145,0.009,0.289,0.049,0.43c-0.19-0.025-0.383,0.025-0.535,0.143H37.7v-0.668H37.6
	C37.561,23.82,37.484,23.857,37.407,23.85L37.407,23.85z M35.654,23.85c0.085,0.041,0.063,0.043,0.146,0H35.654z M36.92,24.23h0.438
	V23.85h-0.34c-0.073,0.113-0.107,0.248-0.098,0.383V24.23z M18.672,23.896v0.1h0.1v-0.1H18.672z M18.964,24.184h0.146
	c0.001-0.1-0.015-0.195-0.049-0.287h-0.049v0.047C18.972,24.018,18.955,24.102,18.964,24.184L18.964,24.184z M35.605,23.943
	c0.084,0.043,0.063,0.043,0.146,0H35.605z M35.898,23.992c0.027,0.025,0.063,0.043,0.1,0.047
	C35.971,24.014,35.936,23.998,35.898,23.992L35.898,23.992z M18.672,24.039c0.04,0.156-0.024,0.074,0.1,0.145v-0.143h-0.1V24.039z
	 M35.559,24.039c0.055,0.051,0.139,0.051,0.194,0h-0.196H35.559z M36.58,24.088v0.143h0.292v-0.189L36.58,24.088z M35.85,24.088
	c0.084,0.041,0.063,0.041,0.146,0H35.85L35.85,24.088z M35.607,24.135c0.027,0.027,0.063,0.045,0.1,0.049
	c-0.027-0.027-0.063-0.043-0.102-0.049H35.607z M29.135,24.236c0.027,0.025,0.063,0.043,0.1,0.047
	c-0.025-0.027-0.061-0.045-0.098-0.051L29.135,24.236z M29.914,24.475v-0.242c-0.372,0.021-0.486,0.078-0.876,0.1v0.047h0.049
	c0.269,0.078,0.548,0.109,0.826,0.092L29.914,24.475z M24.025,25c0.105,0.137,0.143,0.313,0.101,0.479h-0.053v-0.053
	c-0.085-0.127-0.103-0.287-0.048-0.43V25z"/>
</svg>
