<svg xmlns="http://www.w3.org/2000/svg" width="80" height="40" viewBox="0 0 80 40">
  <defs>
    <style>
      .cls-1 {
        fill: #fff;
        fill-rule: evenodd;
      }
    </style>
  </defs>
  <path id="germ_vs8_hydrofoil_ico" class="cls-1" d="M61.191,7V8.419h0.05a0.231,0.231,0,0,1,.347.049H61.34V8.761a0.421,0.421,0,0,1,.248.049,0.482,0.482,0,0,0-.4.147v2.348a1.564,1.564,0,0,0,.5,0,3.329,3.329,0,0,0,.6-1.125h-0.1a1.618,1.618,0,0,1-.6.1V10.229h0.05a4.225,4.225,0,0,1,.695-0.147V11.4a0.139,0.139,0,0,1,.05.049,5.006,5.006,0,0,1,1.935.832c0.243,0.33.487,0.7,0.695,1.027,0.15,0.24.182,0.511,0.347,0.734a1.642,1.642,0,0,1,.248.2c-0.064.027-.037,0-0.05,0.049,0.082,0.319.3,0.474,0.4,0.783h0.1V14.681a3.224,3.224,0,0,0,.05-1.223h0.1V14.73h0.05a0.409,0.409,0,0,1,.5-0.245,0.8,0.8,0,0,1,.2.636,0.248,0.248,0,0,1,.05.147,19.973,19.973,0,0,0,2.233-.1v-0.1a3.981,3.981,0,0,0,.149-1.761h0.1V15.17H70.67A2.656,2.656,0,0,1,70.918,14a0.235,0.235,0,0,0,.05.147,0.18,0.18,0,0,1,.1-0.049V13.9h-0.2c-0.027-.639-0.009-1.285.6-1.321a1.927,1.927,0,0,1,.645-0.049c0.855,0,1.406.147,1.439,0.93h2.382v0.1H73.548a2.6,2.6,0,0,1-.1.636c0.1,0,.014-0.05.1,0a1.929,1.929,0,0,0,.6.881h2.432a0.8,0.8,0,0,1,.4-0.049c-0.041-.159.024-0.075-0.1-0.147v0.049h-0.05V14.877a0.248,0.248,0,0,1-.05-0.147h0.149v-0.2h0.149v0.245h0.149V14.534h0.2v0.049a0.247,0.247,0,0,0-.05.147h0.2v0.147h-0.2v0.147h1.34a0.947,0.947,0,0,1,.2-0.2c0,0.14-.046.127,0.2,0.147l-0.05-.147h0.149a0.612,0.612,0,0,0,.05.2,1.08,1.08,0,0,1,.347-0.049q-0.025-1.2-.05-2.4a1.99,1.99,0,0,1,0-.978q0.075,1.663.149,3.327a0.34,0.34,0,0,1,.3.147,3.456,3.456,0,0,0-.05.342,2.38,2.38,0,0,1-.248.293,7.4,7.4,0,0,0-.347.881,24.5,24.5,0,0,1-1.538,2.838c-0.2.326-.285,0.665-0.5,0.979-0.236.351-.593,0.651-0.844,0.979a3.087,3.087,0,0,1-.546.636c-2.459,1.8-6.176,1.705-10.025,2.153V24.71L66.6,25.053v0.1a6.2,6.2,0,0,0-1.787,2.593,2.458,2.458,0,0,0-.248.342,0.787,0.787,0,0,0,.1.391l-0.1.147V31.9h-0.05v0.049a11.425,11.425,0,0,1-2.084-.049c0.018-1.144-.037-2.411-0.05-3.474a1.043,1.043,0,0,0,.05-0.391,6,6,0,0,0-.4-0.734,6.893,6.893,0,0,0-.4-0.978c-0.3-.466-0.779-0.854-1.092-1.321a0.791,0.791,0,0,0,.744-0.636c-5.357.2-10.78,0.518-16.228,0.538V24.368l-9.032-.245c-2.494.59-5.093,1-7.494,1.614C28,25.875,27.478,25.917,27,26.031H26.253c-1.943.462-4.071,0.707-6,1.223l-2.233.391c-0.945.269-2.12,0.575-3.176,0.783a0.712,0.712,0,0,1-.347-0.1,4.531,4.531,0,0,0-.744.2c-0.755.2-1.526,0.252-2.233,0.44-1.791.476-3.71,0.632-5.459,1.076v0.2a1.541,1.541,0,0,1,.3.881h-0.1L6,30.777H5.955c0.007,0.2.027,0.267-.1,0.342-0.448.3-1.5,0.022-2.035,0V30.63H3.672v0.538a4.936,4.936,0,0,1-1.737.1,3.849,3.849,0,0,0-.893-0.1V30.924h1.29V30.777H1.042V27.695c0.146-.584.4-1.231,0.546-1.81V23H1.141c0.011-.474.06-0.806,0.05-1.272a0.7,0.7,0,0,0-.4.1,3.614,3.614,0,0,0-.645.783C0.111,22.573.038,22.543,0,22.509c0.417-.543.313-1,1.34-0.979a10.836,10.836,0,0,1,.2-2.544V18.5a0.719,0.719,0,0,1,.149-0.1l0.1-.979,0.993-.049c0.317-.5.811-0.89,1.092-1.419h0.1a0.234,0.234,0,0,0,.05.147,4.337,4.337,0,0,1,.943-0.049C5.507,15.932,6.252,16.023,6.8,15.9H7.593c0.692-.254,2.645.019,3.722-0.2l10.422-.587V14.975C25.071,15,28.1,14.5,31.365,14.436a0.852,0.852,0,0,0-.1-0.245h0.3V13.9h-0.3V13.849h0.05a0.544,0.544,0,0,1,.3-0.049,1.392,1.392,0,0,1,.05.44c0.471,0,.795.1,1.34,0.1l0.1,1.37,1.042-.049V14.73c0.307,0.037.655,0.139,0.943,0.2,0.251,0.05.66-.083,0.794-0.049a3.18,3.18,0,0,1,.844-0.245v0.832a3.007,3.007,0,0,0,1.042-.44l0.1-2.251h0.1V12.48c0.111-.163.186,0.058,0.248-0.294h-0.2a1.193,1.193,0,0,1,.347-1.223,0.337,0.337,0,0,1,.248-0.1v0.049h-0.05c-0.1.038,0.1,0.049,0.1,0.049a1.869,1.869,0,0,1,1.439-.049,0.9,0.9,0,0,1,.6.832,8.184,8.184,0,0,1,2.382.1H40.695a13.4,13.4,0,0,0,.149,1.517,13.808,13.808,0,0,0,2.382-.391c1.333-.32,2.727-0.283,4.02-0.587l0.744-.049c0.573-.132,1.207-0.1,1.836-0.245a11.761,11.761,0,0,1,2.332-.294c-0.02-.58.009-1.369,0.447-1.517a3.155,3.155,0,0,1,1.538-.1c0.141,0.044.341,0.259,0.447,0.294a2.146,2.146,0,0,0,.794-0.147v0.734a0.138,0.138,0,0,0-.05.049h1.935v0.049c-0.6,0-1.267.047-1.935,0.049v0.2h0.1a5.092,5.092,0,0,0,1.29-.049h0.6l0.05-.147H59.95v-0.2h0.794v0.2h0.248V8.37A5.288,5.288,0,0,0,60.943,7h0.248ZM14.442,27.793V27.646l0.546-.1V23.438c-2.59-.055-5.183-0.235-7.841-0.245a3.418,3.418,0,0,0-.4.44V25a0.383,0.383,0,0,1,.3.294A9.561,9.561,0,0,0,6.1,27.744c-0.03.177,0.144,0.156,0.1,0.294l-0.2.1-0.05,1.223a0.919,0.919,0,0,0,.3.049,14.125,14.125,0,0,1,2.481-.489c1.045-.277,2.178-0.345,3.275-0.636A14.642,14.642,0,0,1,14.442,27.793Zm1.29-4.354V27.4a6.514,6.514,0,0,0,1.191-.245l1.092-.049c0.951-.229,2.032-0.384,2.978-0.636,1.425-.38,2.834-0.4,4.268-0.783,0.289-.077.666-0.085,0.993-0.2A3.081,3.081,0,0,1,27.1,25.2V23.83Zm12.109,0.44v1.174h0.05a8.661,8.661,0,0,1,1.737-.391h0.645a25.361,25.361,0,0,0,3.027-.587V24.025H31.861a3.7,3.7,0,0,0-1.29-.049Z" transform="translate(0 0.516)"/>
</svg>
