<?xml version="1.0" encoding="utf-8"?>
<!-- Generator: Adobe Illustrator 16.0.0, SVG Export Plug-In . SVG Version: 6.00 Build 0)  -->
<!DOCTYPE svg PUBLIC "-//W3C//DTD SVG 1.1//EN" "http://www.w3.org/Graphics/SVG/1.1/DTD/svg11.dtd">
<svg version="1.1" id="Layer_1" xmlns="http://www.w3.org/2000/svg" xmlns:xlink="http://www.w3.org/1999/xlink" x="0px" y="0px"
	 width="39.969px" height="40px" viewBox="0 0 39.969 40" enable-background="new 0 0 39.969 40" xml:space="preserve">
<path id="Color_Fill_1" fill="#FFFFFF" d="M36.354,15.923L36.893,16v2.076h0.461c0.039,0.063,0.092,0.116,0.154,0.154v0.077h-0.076
	c-0.043,0.042-0.097,0.068-0.154,0.077c0.203,0.2,0.289,0.49,0.23,0.77c0.115,0.07,0.252,0.098,0.385,0.076
	c0.281-0.23,0.538-0.488,0.77-0.769c0.335-0.009,0.67,0.017,1,0.077c0.201,0.804,0.252,1.638,0.152,2.461
	c-0.314,0.471,0.101,1.124,0.154,1.537h-0.076v-0.152c-0.042-0.042-0.068-0.096-0.078-0.154h-0.076c0,0.301,0.037,0.346-0.154,0.463
	v-0.386h-0.23c-0.18,1.601-1.151,2.243-2.153,3c-0.925,0.7-1.614,2.034-2.769,2.462c-0.928,0.344-3.229,0.077-4.386,0.077H11.661
	c-0.689-0.161-1.309-0.539-1.769-1.077c-0.267-0.369-0.223-0.977-0.769-1.078c-0.126,0.03-0.258,0.03-0.385,0
	c-0.343-0.225-0.569-0.592-0.615-1c-0.271-0.014-0.535-0.094-0.769-0.23c-0.115-0.186,0.1-0.184-0.154-0.309
	C7.021,24.025,6.801,23.971,6.584,24l-0.077-0.692h0.231v-0.231c-0.063-0.038-0.115-0.091-0.154-0.153
	C6.478,23.012,6.333,23.041,6.2,23v-0.309c0.063-0.038,0.115-0.091,0.154-0.154c-0.122-0.059-0.208-0.174-0.231-0.308H6.046v0.077
	C5.846,23.189,5.793,24.1,5.892,25H5.738c-0.014-1.063-0.541-0.686-0.615-1.463C5.349,23.436,5.519,23.238,5.584,23
	c-0.074-0.17-0.101-0.355-0.077-0.538H5.431c-0.281,0.032-0.565,0.032-0.846,0v-0.923h0.692c-0.011-0.109,0.016-0.218,0.077-0.309
	H5.2c-0.043,0.101,0,0.057-0.077,0.077C4.988,21.214,4.859,21.111,4.738,21c-0.283-0.011-0.565-0.037-0.846-0.077h0.462
	c0.015-0.263,0.066-0.521,0.154-0.769c-0.174-0.056-0.356-0.082-0.539-0.078c-0.33,0.173-0.757-0.336-1.077-0.23l-0.077,0.23
	c-0.802,0.053-1.607-0.025-2.385-0.23c0.133,0.016,0.268-0.012,0.385-0.077H0.507v-0.461c-0.164,0.009-0.316-0.082-0.385-0.231
	c-0.114-0.452-0.141-0.922-0.077-1.385C-0.036,16.461-0.01,15.226,0.123,14c0.312-0.014,0.616,0.098,0.846,0.308
	c0.459,0.064,0.922,0.09,1.385,0.077c0.374,0.898,0.507,1.88,0.385,2.846h0.153c0.478,0.123,0.974,0.148,1.462,0.077l1.462-2.538
	H5.354v-0.847h0.153c0.229,0.033,0.463,0.033,0.692,0v-1.769c0.182-0.005,0.362-0.031,0.538-0.078c-0.064-0.664-0.064-1.334,0-2
	c-0.436-0.027-0.82-0.293-1-0.692C5.625,9.229,5.57,9.039,5.583,8.847c-0.999,0.081-2.001,0.081-3,0v-1.77L0.892,7V6.462
	l1.692-0.077V5.077c1.489,0.1,2.984,0.048,4.462-0.154C7.266,5.014,7.5,5.066,7.738,5.077l0.154-0.231
	C8.116,4.79,8.092,5.035,8.2,5.077h2.077c1.46-0.098,2.925-0.098,4.385,0V5.23c0.531,0.831,0.024,2.581,0,3.615
	c-1.081,0-1.539-0.014-2.538,0c-0.476,0.006-0.637,0.31-0.846,0.231c-0.19-0.1-0.052,0.033-0.154-0.154L11.277,9L11.2,8.846
	c-0.435,0.048-0.871,0.074-1.308,0.077c0.014,1.121,0.145,2.225,0.154,3.153H10.2c0.117,0.064,0.251,0.092,0.385,0.078v1.769h0.462
	C11.097,13.6,11.2,13.288,11.354,13c0.161,0,0.19-0.055,0.538-0.077c-0.097-0.403-0.149-0.816-0.154-1.231
	c0.1-0.378,0.434-0.474,0.539-0.846c0.358-0.031,0.719-0.031,1.077,0c0.055,0.249,0.16,0.484,0.308,0.691
	c0.075,0.352-0.01,0.718-0.231,1c-0.069,0.151,0.11,0.041,0.154,0.078c0.027,0.078-0.032,0.139,0,0.308
	c0.35,0.019,0.476,0.069,0.538,0.231c0.068,0.22,0.172,0.428,0.308,0.614l0.077-0.153c0.376-0.164,0.446,0.248,0.846,0.153
	c0.44-0.17,0.918-0.224,1.385-0.153c0.235,0.133,0.498,0.213,0.769,0.23c0.05-0.066,0.077-0.147,0.077-0.23
	c0.94,0,2.231,0.074,2.923,0c0.002,0.131,0.029,0.262,0.077,0.385h0.154c0.063-0.594,1-0.419,1.614-0.385V14h0.77v0.385
	c0.525,0.074,1.04,0.203,1.538,0.385v-0.23h0.308c-0.001,0.083,0.026,0.164,0.077,0.23c0.342,0.232,0.741,0.366,1.154,0.385
	l0.077-0.23c0.352-0.103,0.725-0.103,1.076,0v0.154c0.063,0.147,0.063,0.314,0,0.462h0.154c0.464,0.271,1.006,0.38,1.538,0.308
	c-0.059-0.008-0.112-0.035-0.153-0.077c0.182,0.005,0.361,0.03,0.537,0.077v0.077c-0.083-0.001-0.164,0.026-0.23,0.077h0.154
	c0.455,0.219,0.957,0.325,1.461,0.308c-0.025,0.251,0.141,0.481,0.386,0.538c0.042,0.041,0.096,0.068,0.153,0.077
	c0.03-0.2-0.057-0.101,0.154-0.154V17c0.297,0.222,0.604,0.427,0.924,0.615c0.107-0.086,0.251-0.115,0.385-0.078
	c0.093,0.137,0,0.135,0.076,0.231c0.629,0.55,1.361,0.968,2.153,1.231c0.204-0.123,0.386-0.279,0.538-0.463
	c-0.477-0.399-0.275-1.709-0.538-2.076c-0.042,0.041-0.096,0.068-0.153,0.076c0.007,0.34-0.045,0.679-0.154,1l-0.231-0.076v-1.076
	c-0.141-0.404-0.112-0.848,0.077-1.23c0.059,0.008,0.113,0.034,0.154,0.076c0.109,0.295,0.162,0.608,0.154,0.924h0.385
	c-0.016,0.133,0.012,0.268,0.076,0.385c-0.08-0.217-0.02-0.462,0.154-0.615v0.154c0.109,0.062,0.17,0.184,0.154,0.308h0.23
	c0.008,0.059,0.035,0.112,0.077,0.154c-0.143,0.614-0.725,1.528,0,1.846c0.437-2.158,0.231-6.084,0.231-9.231V-8h0.154v23.923
	H36.354z M14.661,6.385c-0.009,0.108,0.019,0.216,0.077,0.308C14.747,6.584,14.719,6.477,14.661,6.385z M14.661,6.77
	c-0.009,0.108,0.019,0.217,0.077,0.308C14.747,6.969,14.72,6.86,14.661,6.77L14.661,6.77z M5.738,8.846
	C5.75,9.083,5.803,9.317,5.892,9.538C6.182,9.725,6.491,9.88,6.815,10V9.846C6.149,9.614,6.345,8.938,5.738,8.846z M6.276,8.846
	l0.077,0.462C6.509,9.406,6.64,9.537,6.738,9.693h0.077V9.539C6.894,9.344,6.92,9.132,6.892,8.924L6.276,8.846z M6.584,12.769
	c-0.008,0.108,0.019,0.217,0.077,0.308C6.669,12.969,6.643,12.86,6.584,12.769z M20.969,13.691c-0.08,0.217-0.193,0.105,0,0.231
	C20.969,13.699,21.043,13.816,20.969,13.691z M7.431,14.307v0.538c0.484,0.019,1.727,0.149,1.923-0.153H8.815
	c-0.092-0.058-0.2-0.085-0.308-0.078c0.001-0.083-0.026-0.164-0.077-0.23C8.106,14.285,7.766,14.26,7.431,14.307L7.431,14.307z
	 M13.816,17.229h0.385v-0.075c-0.063-0.039-0.116-0.092-0.155-0.154c0.456-0.287,0.387-1.815,0.308-2.385
	c-0.146-0.092-0.301-0.17-0.462-0.231v0.077c0.168,0.059,0.288,0.208,0.308,0.385c-0.769,0.309-0.07,1.148,0,1.691
	c-0.261,0.074-0.239,0.031-0.308,0.309C13.828,16.963,13.801,17.098,13.816,17.229L13.816,17.229z M11.047,14.845
	c0.069,0.39,0.227,0.759,0.462,1.077v-0.23c-0.147-0.226-0.145-0.568-0.308-0.769C11.159,14.881,11.104,14.854,11.047,14.845
	L11.047,14.845z M27.277,15c-0.256-0.033-0.514-0.033-0.77,0c-0.094,0.057-0.174,0.137-0.23,0.23
	c0.293,0.116,0.607,0.168,0.923,0.154C27.264,15.268,27.291,15.133,27.277,15z M36.354,16.154c-0.018,0.441,0.035,0.883,0.154,1.308
	h0.154v-1.308C36.561,16.181,36.455,16.181,36.354,16.154z M35.662,16.923c-0.111,0.163-0.189,0.345-0.23,0.538h0.076v-0.153
	C35.629,17.22,35.689,17.07,35.662,16.923L35.662,16.923z M36.508,17.154c0.041,0.041,0.068,0.096,0.077,0.153h-0.077V17.154z
	 M36.432,17.769v0.386h0.153v0.076h0.077v-0.462H36.432z M4.2,17.846v1.691h0.154v-1.461C4.301,18.018,4.253,17.904,4.2,17.846z
	 M38.738,18.691c-0.18,0.246-0.578,0.457-0.385,0.615c0.14-0.215,0.322-0.397,0.537-0.538C38.85,18.728,38.796,18.701,38.738,18.691
	z M39.275,18.691v0.154c0.222,0.086,0.143,0.014,0.231,0.23h0.077v-0.308L39.275,18.691z M39.584,20.154v-1h-0.076
	c-0.212,0.203-0.394,0.436-0.538,0.691c0.087,0.141,0.19,0.27,0.308,0.385C39.369,20.174,39.477,20.146,39.584,20.154z M0.661,19.23
	v0.154C0.785,19.293,0.755,19.353,0.661,19.23z M0.969,19.308v0.154c0.313,0.142,0.659,0.194,1,0.153L0.969,19.308z M2.046,19.615
	c0.132,0.068,0.1,0.068,0.231,0H2.046z M36.508,19.615c-0.025,0.107,0.109,0.112,0.154,0.154
	C36.715,19.688,36.529,19.639,36.508,19.615L36.508,19.615z M3.046,20.076c0.086,0.048,0.144,0.134,0.154,0.231H3.123V20.23
	C3.082,20.189,3.055,20.135,3.046,20.076z M3.2,20.308c0.086,0.048,0.144,0.134,0.154,0.231H3.277v-0.077
	C3.235,20.42,3.208,20.366,3.2,20.308z M39.123,20.308c-0.006,0.183,0.02,0.364,0.077,0.538h0.077v-0.538H39.123z M4.585,20.462
	v0.308h0.076C4.746,20.551,4.834,20.656,4.585,20.462L4.585,20.462z M3.354,20.539c0.042,0.041,0.068,0.096,0.077,0.154H3.354
	V20.539L3.354,20.539z M3.585,20.847c0.108-0.009,0.216,0.019,0.308,0.077C3.784,20.932,3.676,20.904,3.585,20.847L3.585,20.847z
	 M5.739,22.924c-0.033,0.233-0.007,0.472,0.077,0.691c0.033-0.233,0.006-0.472-0.078-0.692L5.739,22.924z M5.508,23.386v0.077H5.431
	c-0.148,0.06,0.154,0.077,0.154,0.077C5.577,23.48,5.55,23.426,5.508,23.386L5.508,23.386z M5.431,23.924
	c0.068,0.063,0.146,0.115,0.231,0.154v-0.155L5.431,23.924L5.431,23.924z M7.662,24.232c0.189,0.219,0.489,0.31,0.769,0.23
	L7.662,24.232z M8.2,24.847l0.077,0.231h0.077v-0.232L8.2,24.847L8.2,24.847z M36.508,24.847c-0.316,0.226-0.689,0.358-1.076,0.386
	v0.076c0.078,0.195,0.104,0.407,0.076,0.615h0.077v-0.155C35.994,25.584,36.322,25.256,36.508,24.847L36.508,24.847z M13.2,25.154
	v0.154h0.308c0.042-0.041,0.096-0.068,0.154-0.076v-0.078H13.2L13.2,25.154z M14.585,25.154c0.042,0.756-0.345,1.47-1,1.847v0.077
	h2.384V27c-0.536-0.45-0.774-1.164-0.615-1.846H14.585L14.585,25.154z M15.662,25.154l0.077,0.463
	c0.209,0.121,0.451,0.175,0.692,0.153c0.066-0.095,0.118-0.198,0.154-0.308c0.057-0.092,0.084-0.2,0.077-0.309H15.662z
	 M19.047,25.309c0.042,0.648-0.18,1.287-0.615,1.77h3V27c-0.59-0.412-0.84-1.162-0.615-1.846h-1.309
	C19.374,25.252,19.212,25.306,19.047,25.309L19.047,25.309z M21.124,25.154c0.005,0.183,0.03,0.363,0.077,0.539h0.154
	c0.143,0.07,0.303,0.097,0.461,0.077c0.156-0.166,0.24-0.388,0.231-0.614h-0.925L21.124,25.154z M24.893,25.154
	c-0.14,0.103-0.296,0.181-0.461,0.231c0.12,0.634-0.116,1.283-0.615,1.692h3.076V27c-0.517-0.463-0.726-1.179-0.539-1.846H24.893
	L24.893,25.154z M26.662,25.154c0.004,0.183,0.03,0.363,0.077,0.539l0.308,0.077v-0.155C26.91,25.469,26.781,25.314,26.662,25.154
	L26.662,25.154z M27.585,25.154H27.2v0.154c0.103,0.08,0.183,0.187,0.231,0.309h0.076v-0.078
	C27.571,25.421,27.598,25.287,27.585,25.154L27.585,25.154z M31.816,25.154c-0.625-0.051-1.254,0.027-1.848,0.23
	c0.112,0.633-0.122,1.278-0.615,1.691h3.078V27c-0.531-0.455-0.768-1.164-0.617-1.846H31.816z M33.047,25.154h-0.539v0.154
	c0.137,0.146,0.266,0.301,0.385,0.462v-0.079l0.154-0.076V25.154L33.047,25.154z M32.124,25.386v0.231l0.308,0.23v-0.156
	C32.301,25.595,32.252,25.482,32.124,25.386L32.124,25.386z M35.047,25.386c-0.161,0.114-0.344,0.192-0.538,0.231v0.076
	C34.789,25.699,35.238,25.52,35.047,25.386L35.047,25.386z M12.662,25.463c-0.042,0.041-0.096,0.068-0.154,0.077v0.077h0.308v-0.155
	L12.662,25.463L12.662,25.463z M13.201,25.54c0.05,0.123,0.05,0.261,0,0.385c-0.177,0.33-0.6,0.283-0.769,0.615
	c0.264,0.208,0.627,0.238,0.923,0.077c0.154-0.197,0.236-0.441,0.231-0.692c-0.083-0.083-0.137-0.191-0.154-0.308L13.201,25.54z
	 M18.432,25.54c-0.115,0.08-0.247,0.133-0.385,0.153v0.077h0.385c0.068-0.063,0.146-0.114,0.231-0.153v-0.078L18.432,25.54
	L18.432,25.54z M23.895,25.54c-0.123,0.094-0.343,0.135-0.463,0.23h0.463c0.038-0.063,0.091-0.115,0.153-0.153
	c-0.042-0.043-0.097-0.07-0.155-0.078L23.895,25.54z M29.432,25.54c-0.121,0.094-0.342,0.135-0.462,0.23h0.462
	c0.039-0.063,0.092-0.115,0.154-0.153C29.544,25.574,29.49,25.547,29.432,25.54L29.432,25.54z M16.508,26
	c-0.096,0.063-0.2,0.114-0.308,0.154c-0.093,0.164-0.146,0.35-0.154,0.539c0.078,0.105,0.185,0.186,0.308,0.23
	C16.864,27.29,17.369,26.373,16.508,26z M17.816,26c-0.067,0.049-0.148,0.076-0.231,0.076c-0.167,0.19-0.251,0.44-0.231,0.692
	c0.19,0.168,0.439,0.251,0.692,0.231c0.098-0.115,0.175-0.245,0.231-0.385c0.03-0.127,0.03-0.259,0-0.386
	C18.134,26.152,17.982,26.072,17.816,26L17.816,26z M21.893,26c-0.125,0.076-0.231,0.182-0.308,0.308
	c-0.069,0.144-0.097,0.304-0.077,0.462c0.189,0.168,0.439,0.252,0.692,0.231c0.177-0.216,0.26-0.492,0.231-0.769
	C22.265,26.127,22.082,26.049,21.893,26L21.893,26z M23.201,26c-0.11,0.066-0.213,0.144-0.309,0.23
	c-0.107,0.098-0.14,0.254-0.076,0.385c-0.008,0.146,0.09,0.275,0.23,0.309c0.422,0.3,0.705-0.162,0.692-0.615
	C23.567,26.192,23.387,26.089,23.201,26L23.201,26z M28.739,26c-0.146,0.109-0.275,0.239-0.386,0.385
	c-0.049,0.066-0.076,0.148-0.076,0.23c0.076,0.127,0.182,0.232,0.308,0.309c0.422,0.3,0.7-0.162,0.692-0.615
	C29.105,26.192,28.926,26.089,28.739,26L28.739,26z M34.124,26c-0.095,0.135-0.197,0.263-0.308,0.385
	c-0.029,0.274,0.17,0.521,0.445,0.549c0.057,0.006,0.113,0.002,0.17-0.011c0.223-0.163,0.363-0.416,0.385-0.692
	C34.626,26.063,34.376,25.979,34.124,26L34.124,26z M10.739,26.076l0.077,0.386c0.187,0.181,0.432,0.29,0.692,0.308
	c0.122-0.088,0.25-0.164,0.385-0.23c-0.042-0.041-0.096-0.068-0.154-0.077c-0.295-0.212-0.64-0.345-1.001-0.386H10.739z
	 M27.201,26.076c-0.109,0.215-0.163,0.453-0.154,0.692c0.189,0.168,0.439,0.251,0.692,0.231c0.12-0.128,0.2-0.289,0.229-0.461
	C27.448,26.684,27.564,26.275,27.201,26.076L27.201,26.076z M33.124,26.076v0.154h0.153v-0.154H33.124L33.124,26.076z M32.663,26.23
	c-0.044,0.177-0.069,0.357-0.077,0.538c0.063,0.069,0.115,0.146,0.154,0.231c0.507,0.062,0.777,0.033,0.846-0.538h-0.154
	c-0.355,0.438-0.488,0.003-0.771-0.231H32.663z"/>
</svg>
