<svg xmlns="http://www.w3.org/2000/svg" width="39.969" height="40" viewBox="0 0 39.969 40">
  <defs>
    <style>
      .cls-1 {
        fill: #fff;
        fill-rule: evenodd;
      }
    </style>
  </defs>
  <path id="germ_vt_1_2_ico" class="cls-1" d="M4.615,18a0.321,0.321,0,0,1-.043.154H4.658v0.309H4.571v0.11l0.582,0.022c0.035-.015,0-0.075.065-0.066L5.24,18.595H5.908l0.022-.066c0.064-.025.018,0.054,0.086,0.044,0.23-.033.53,0,0.668-0.044a0.155,0.155,0,0,0,.129.132,0.279,0.279,0,0,0,.151.022,1.131,1.131,0,0,1,.022-0.243l0.129-.022a0.342,0.342,0,0,1,.065.243,0.114,0.114,0,0,0-.022.066,0.742,0.742,0,0,0,.129.044,0.876,0.876,0,0,1,.022-0.2A0.52,0.52,0,0,0,7.741,18.4H8.28V18.153H8.949a3.644,3.644,0,0,0,1.013.243V18.131h3.019v0.53h0.043a0.7,0.7,0,0,0,.323.066V18.705h0.022a2.424,2.424,0,0,1,.3-0.839h0.065V17.91a0.666,0.666,0,0,0-.086.331,1.474,1.474,0,0,0,.194,0c0,0.07-.031.041,0.043,0.066a3.029,3.029,0,0,1,.194-0.662,3.51,3.51,0,0,1,1.358-.088,2.1,2.1,0,0,1,.647,0,2.214,2.214,0,0,0,.431.022,2.062,2.062,0,0,0,.712-0.066,0.4,0.4,0,0,0,.065.088,0.548,0.548,0,0,0-.043.221,3.32,3.32,0,0,0,.367.353V18.043a1.126,1.126,0,0,1,.323-0.022v0.022h0.022a0.237,0.237,0,0,0,.021.132c0.041-.02.324,0.041,0.474,0.044,0.028-.125.078-0.16,0.237-0.155a0.189,0.189,0,0,0,.129.132,0.988,0.988,0,0,0,.388.022,3.341,3.341,0,0,0,1.121-.066,0.68,0.68,0,0,0,.022-0.287H21.93V18.22c0.221,0,.413-0.032.582-0.044a0.382,0.382,0,0,0-.021-0.132A0.322,0.322,0,0,0,22.62,18V17.955H22.534v-1.1a0.383,0.383,0,0,1,.086-0.066,2.73,2.73,0,0,1,.819-0.133,0.129,0.129,0,0,0,.021.133,0.692,0.692,0,0,1,.5.221,0.717,0.717,0,0,1,.065.464c-0.275.149-.207,0.3-0.194,0.706a0.276,0.276,0,0,1,.151.088c0.036,0.014.1-.016,0.151,0V18.33h1.229a0.661,0.661,0,0,0,.41-0.044c-0.055-.032-0.033-0.01-0.043-0.088h0.043a0.715,0.715,0,0,1,.388,0,2.476,2.476,0,0,0,.022-0.64H26.156c-0.336.377-1.137-.152-0.863-0.552a0.173,0.173,0,0,1,.129-0.133,0.9,0.9,0,0,1,.949.066,0.778,0.778,0,0,1,.086.486,1.233,1.233,0,0,0-.194.088v0.662a0.08,0.08,0,0,0-.022.044,0.356,0.356,0,0,0-.151.11,0.687,0.687,0,0,1,.129.662,3.289,3.289,0,0,1,.5-0.044,8.865,8.865,0,0,0,1.854.132,5.131,5.131,0,0,0,.906,0c0.173-.064.243-0.275,0.41-0.331h2.07c0.182,0.06.262,0.288,0.431,0.353,0.149,0.058.33,0.023,0.474,0.088H40v1.1c-1.58,0-3.312,0-4.96,0H32.863c-0.122.036-.372,0-0.517,0.044-0.044.014-.117,0.074-0.172,0.088H31.655a8.856,8.856,0,0,1-2.156-.088,1.907,1.907,0,0,0-.431.044,6.377,6.377,0,0,0-1.035-.022H27.6a2.618,2.618,0,0,1-.927.133,0.8,0.8,0,0,0-.065.155,1,1,0,0,0,.668.11v0.155H27.3a0.163,0.163,0,0,1,.086-0.088,0.063,0.063,0,0,0,.022.022,0.416,0.416,0,0,0-.129.287,0.629,0.629,0,0,1,.151,0c0.048,0.036-.02.071,0,0.11,0.061,0.123.177,0.158,0.259,0.287a0.333,0.333,0,0,1,.172-0.088l0.022-.265a0.489,0.489,0,0,1,.259-0.044,0.4,0.4,0,0,1,.043.221,0.2,0.2,0,0,1,.022.11c0.352,0,.833,0,1.251,0V21.31l0.043-.022V21.266H29.52v0.022a1,1,0,0,1,.022.375,5.716,5.716,0,0,1-.065,1.016,1.357,1.357,0,0,1,.259,1.06l-0.367.022v0.044a1.2,1.2,0,0,1,.086.6,0.156,0.156,0,0,0-.172.2c0.087,0.021.06,0.046,0.151,0.066a0.75,0.75,0,0,1-.259.618,0.132,0.132,0,0,0-.129.022,0.76,0.76,0,0,1-.065.066,0.551,0.551,0,0,1,.065.2,1.491,1.491,0,0,1-.453.464,0.445,0.445,0,0,0-.194-0.088,0.454,0.454,0,0,0-.108.044,0.661,0.661,0,0,1-.022.2,2.149,2.149,0,0,1-.561.243,0.153,0.153,0,0,0-.129-0.155,0.249,0.249,0,0,1-.108.044,0.662,0.662,0,0,1-.022.2,1.514,1.514,0,0,1-.539.221,0.2,0.2,0,0,0-.173-0.132,0.078,0.078,0,0,1-.043.022,0.21,0.21,0,0,0-.021.221,2.272,2.272,0,0,0-.582.221,0.535,0.535,0,0,0-.108-0.155l-0.129.044a1.031,1.031,0,0,1-.021.2,1.451,1.451,0,0,1-.561.221,0.108,0.108,0,0,0-.022-0.066,0.179,0.179,0,0,0-.129-0.066c-0.017.015-.048,0.029-0.065,0.044a0.237,0.237,0,0,0-.022.2,4.8,4.8,0,0,1-.561.2,0.114,0.114,0,0,1-.022-0.066,0.082,0.082,0,0,1-.086-0.066l-0.129.044a1.4,1.4,0,0,0-.022.221c-0.211.028-.394,0.123-0.625,0.155a0.681,0.681,0,0,0-.065-0.177H23.375a0.875,0.875,0,0,0-.065.2H22.728V27.89a0.242,0.242,0,0,0-.194-0.088,0.885,0.885,0,0,0-.065.2H21.887V27.89a0.227,0.227,0,0,0-.194-0.088,0.42,0.42,0,0,0-.065.2H21.046a1.135,1.135,0,0,0-.065-0.2H20.852a0.418,0.418,0,0,0-.065.2h-0.6a0.908,0.908,0,0,0-.043-0.2H20.011a0.419,0.419,0,0,0-.065.2h-0.6a0.908,0.908,0,0,0-.043-0.2H19.148c-0.012.1-.034,0.089-0.043,0.2H18.5V27.868a0.313,0.313,0,0,0-.194-0.066,1.2,1.2,0,0,0-.043.2h-0.6V27.89a0.242,0.242,0,0,0-.194-0.088,1.718,1.718,0,0,0-.065.2H16.819V27.89a0.242,0.242,0,0,0-.194-0.088,0.6,0.6,0,0,0-.065.2H15.978V27.89a0.266,0.266,0,0,0-.194-0.088,0.6,0.6,0,0,0-.065.2H15.138V27.89a0.227,0.227,0,0,0-.194-0.088,0.419,0.419,0,0,0-.065.2H14.3V27.89A0.242,0.242,0,0,0,14.1,27.8a0.885,0.885,0,0,0-.065.2H13.456a1.627,1.627,0,0,0-.043-0.2H13.262a1.193,1.193,0,0,0-.043.2H12.636a1.135,1.135,0,0,0-.065-0.2H12.442a0.6,0.6,0,0,0-.065.2H11.8V27.868A0.313,0.313,0,0,0,11.6,27.8a0.6,0.6,0,0,0-.065.2H10.954a0.9,0.9,0,0,0-.043-0.2H10.76a1.2,1.2,0,0,0-.043.2h-0.6a1.627,1.627,0,0,0-.043-0.2H9.919a1.2,1.2,0,0,0-.043.2h-0.6a1.628,1.628,0,0,0-.043-0.2H9.078a1.7,1.7,0,0,0-.065.2H8.431V27.89A0.242,0.242,0,0,0,8.237,27.8a0.882,0.882,0,0,0-.065.2H7.59V27.868A0.365,0.365,0,0,0,7.4,27.8a0.419,0.419,0,0,0-.065.2c-0.207,0-.427-0.009-0.6-0.022v-0.11a0.242,0.242,0,0,0-.194-0.088,0.175,0.175,0,0,1-.065.066c-0.014.019-.029,0.069-0.043,0.088a3.751,3.751,0,0,1-.582-0.265,0.131,0.131,0,0,0,0-.177,0.214,0.214,0,0,0-.108-0.066,0.216,0.216,0,0,1-.151.11,1.4,1.4,0,0,1-.453-0.331,0.118,0.118,0,0,0-.043-0.177C5.051,27,5.054,26.99,5.024,27.007a0.2,0.2,0,0,0-.108.11,1.11,1.11,0,0,1-.5-0.375A0.14,0.14,0,0,0,4.4,26.609a0.79,0.79,0,0,1-.065-0.066c-0.067.039-.107,0.1-0.172,0.132a1.856,1.856,0,0,0-.474-0.309,0.331,0.331,0,0,0,.022-0.2,0.742,0.742,0,0,0-.129-0.044,0.227,0.227,0,0,1-.065.044,0.257,0.257,0,0,0-.043.066l-0.518-.309c0.02-.067.023-0.108,0.043-0.2A0.3,0.3,0,0,0,2.782,25.7a0.777,0.777,0,0,0-.065.066,0.776,0.776,0,0,0-.129-0.088l-0.151-.2H2.156A0.709,0.709,0,0,0,1.6,25.461V25.395H1.531v-0.11H1.6V25.02H1.488a1.758,1.758,0,0,0-.841-0.64C0.566,24.327.488,24.2,0.41,24.158a0.137,0.137,0,0,0-.086.022,2.033,2.033,0,0,1-.237-0.464L0.065,23.54H0.022a3.4,3.4,0,0,1,.129-0.706H0.216a3.231,3.231,0,0,0,.5-0.817A0.415,0.415,0,0,1,.453,21.8a0.3,0.3,0,0,1,.086-0.022,2.474,2.474,0,0,0,.216.177A0.073,0.073,0,0,0,.8,21.929a0.431,0.431,0,0,0,.173-0.4,0.356,0.356,0,0,1-.129-0.309H0.819c-0.022.014,0,.048-0.022,0.022A3.6,3.6,0,0,1,.69,20.317,0.137,0.137,0,0,1,.6,20.295H0.647l0.043-.066c0.052,0.034.085,0.063,0.129-.022A0.07,0.07,0,0,1,.8,20.118a0.963,0.963,0,0,0,.129.132A1.29,1.29,0,0,1,1.1,20.184,0.306,0.306,0,0,0,.906,19.92c0-.636-0.472-0.946-0.41-1.546A1.475,1.475,0,0,0,.712,18.2a0.991,0.991,0,0,1,.3.044,0.489,0.489,0,0,1,.108.552H1.186c0.129-.143.116,0,0.194-0.022L1.4,18.705a0.908,0.908,0,0,0,.172-0.066c0.022,0,.254.063,0.388,0.066l0.022-.133a1.108,1.108,0,0,0,.237-0.022,0.439,0.439,0,0,1,.173-0.11V18.352H2.48a1.717,1.717,0,0,0-.043-0.331H2.458V18a6.257,6.257,0,0,0,1.6-.022l-0.022-.221A0.2,0.2,0,0,0,4.075,17.6c-0.2-.9-0.4-1.747-0.69-2.671-0.232-.737-0.327-1.47-0.561-2.208C2.7,12.329,2.633,11.9,2.5,11.486A2.344,2.344,0,0,1,2.372,11H2.394v0.022a2.644,2.644,0,0,1,.151.6c0.118,0.366.178,0.762,0.3,1.148,0.286,0.887.468,1.854,0.755,2.738a9.605,9.605,0,0,0,.3,1.148c0.018,0.037.116,0.077,0.129,0.11,0.032,0.081-.054.044-0.043,0.11,0,0.016.058,0.09,0.065,0.11a2.442,2.442,0,0,0,.323.861,0.407,0.407,0,0,0,.108.022A0.224,0.224,0,0,0,4.615,18Z" transform="translate(-0.031 0.5)"/>
</svg>
