<?xml version="1.0" encoding="utf-8"?>
<!-- Generator: Adobe Illustrator 16.0.0, SVG Export Plug-In . SVG Version: 6.00 Build 0)  -->
<!DOCTYPE svg PUBLIC "-//W3C//DTD SVG 1.1//EN" "http://www.w3.org/Graphics/SVG/1.1/DTD/svg11.dtd">
<svg version="1.1" id="Layer_1" xmlns="http://www.w3.org/2000/svg" xmlns:xlink="http://www.w3.org/1999/xlink" x="0px" y="0px"
	 width="39.969px" height="40px" viewBox="0 0 39.969 40" enable-background="new 0 0 39.969 40" xml:space="preserve">
<path id="germ_pzkpfw_v_ausf_d_panther_ico" fill="#FFFFFF" d="M7.534,16.666h0.09c-0.014,0.115,0.018,0.231,0.09,0.323
	c0.141,0.092,0.232,0.048,0.226,0.3h0.069v-0.208c0.169-0.005,0.172,0.032,0.362,0.023c0.029-0.075,0.052-0.152,0.068-0.23
	c-0.15-0.053-0.267-0.172-0.317-0.323c0.023-0.034,0.039-0.073,0.045-0.115c0.028-0.02,0.059-0.035,0.091-0.046
	c0.093,0.046,0.192,0.077,0.294,0.092c0.013-0.112,0.051-0.165,0.068-0.277l0.113,0.023v-0.046c0.015-0.02,0.023-0.044,0.023-0.069
	c-0.139-0.042-0.259-0.132-0.339-0.253c0.023-0.069,0.062-0.131,0.113-0.184c0.093-0.011,0.187,0.005,0.271,0.046
	c0.013-0.09,0.044-0.177,0.091-0.254c0.042,0.024,0.088,0.04,0.136,0.046v-0.185c0.012-0.013,0.021-0.029,0.023-0.046
	c-0.083-0.016-0.062,0-0.091-0.069c0.138-0.289,0.215-0.603,0.226-0.922c0.029,0.011,0.062,0.011,0.091,0
	c0.03-0.058,0.053-0.12,0.068-0.184c-0.122-0.009-0.117-0.031-0.113-0.161c0.04-0.12,0.063-0.244,0.068-0.369
	c0.084,0.005,0.168-0.002,0.249-0.023c0.005-0.088,0.028-0.175,0.066-0.255c0.08,0.027,0.165,0.035,0.249,0.023v-0.045
	c0.029-0.04,0.045-0.088,0.046-0.138l0.226,0.046c0.03-0.215,0.125-0.416,0.271-0.576v0.023c0.029,0.04,0.113,0.207,0.113,0.207
	c-0.001,0.036-0.018,0.069-0.045,0.092c-0.013,0.143,0.084,0.273,0.226,0.3c0-0.239-0.087-0.624,0.226-0.622v-0.254
	c0.13,0.006,0.26-0.009,0.385-0.046c0.086-0.016,0.174,0,0.249,0.046c0.175-0.002,0.35-0.025,0.52-0.069
	c0.082-0.014,0.166,0.012,0.226,0.069c0.221,0.013,0.442-0.011,0.656-0.069c0.082-0.013,0.166,0.012,0.226,0.069l0.294-0.023
	l0.7,0.023v0.254h0.158c0.077,0.254,0.108,0.52,0.091,0.784c0.134,0.017,0.26,0.073,0.362,0.161h0.43
	c0.024-0.042,0.04-0.089,0.045-0.138c-0.019-0.035-0.027-0.075-0.023-0.115c0.69,0.024,1.378,0.094,2.059,0.207l0.249-0.276
	c0.009,0.006,0.017,0.014,0.023,0.023c0.092,0.083,0.19,0.16,0.294,0.23c0.025-0.078,0.026-0.076,0.113-0.092
	c0.012,0.012,0.028,0.02,0.045,0.023c0.015,0.13,0.023,0.261,0.023,0.392c0.046,0.032,0.102,0.048,0.158,0.046
	c0.057,0.023,0.12,0.032,0.181,0.023c0.016-0.042,0.039-0.081,0.068-0.115c0.377,0.161,0.772,0.277,1.177,0.346v-0.047
	c0.021-0.043,0.029-0.091,0.023-0.138c0.402,0.073,0.782,0.239,1.108,0.484l0.95,0.229c0.013,0.098,0.042,0.191,0.091,0.277
	c0.145,0.053,0.299,0.068,0.451,0.046l0.905,0.023l3.507,0.023l10.317,0.115c0.208,0.026,0.419-0.006,0.61-0.092h0.5
	c0.026-0.01-0.008-0.054,0.068-0.046c0.035,0.022,0.073,0.038,0.113,0.046c0.178-0.048,0.352-0.11,0.52-0.185
	c0.082-0.014,0.166,0.012,0.227,0.069c0.271,0.024,0.543,0.032,0.814,0.023c0.133,0.217,0.262,0.851-0.068,0.968
	c-0.255,0.024-0.512,0.032-0.769,0.022c-0.021,0.024-0.044,0.047-0.067,0.069c-0.221-0.028-0.434-0.09-0.635-0.184l-0.199,0.023
	c-0.108-0.021-0.318,0.011-0.453-0.023c-0.062-0.027-0.122-0.058-0.18-0.092l-2.309,0.023l-8.62,0.092l-2.964,0.023
	c-0.604-0.041-1.211-0.018-1.811,0.069v0.23c-0.3,0.174-0.736,0.174-1.063,0.323c-0.152,0.069-0.287,0.226-0.43,0.3
	c-0.206,0.035-0.41,0.082-0.611,0.138h0.023c0.358,0.066,0.722,0.104,1.086,0.115V16.85h0.385c0.064,0.05,0.105,0.125,0.113,0.207
	c-0.025,0-0.049,0.008-0.068,0.023h0.023c0.203,0.071,0.425,0.08,0.633,0.023V16.9c0.047-0.032,0.103-0.048,0.158-0.046
	c0.036,0.063,0.052,0.135,0.045,0.207c0.342-0.031,0.686,0.024,1,0.161c0.013,0.029,0.021,0.06,0.023,0.092h0.316v-0.095
	c-0.055-0.015-0.108-0.039-0.157-0.069c0.041-0.051,0.079-0.105,0.112-0.161h-0.1c-0.202,0.062-0.42,0.046-0.611-0.046
	c-0.019-0.035-0.026-0.075-0.022-0.115c0.013-0.013,0.021-0.029,0.022-0.046h0.113c0.171-0.042,0.35-0.042,0.521,0
	c0.226,0.026,0.455,0.019,0.679-0.023c0.212-0.046,0.451,0.028,0.611,0v0.323c0.023,0.059,0.031,0.122,0.022,0.184h0.158v0.069
	c0.306,0.1,0.511,0.45,0.792,0.576c0.139,0.013,0.275,0.042,0.407,0.089c0.202,0.203,0.438,0.367,0.7,0.484
	c0.016-0.082,0.027-0.058,0.045-0.139c0.024,0,0.049-0.008,0.068-0.022c0.012-0.013,0.02-0.028,0.022-0.046
	c-0.154-0.006-0.081-0.06-0.158-0.115h-0.112c-0.029-0.073-0.037-0.153-0.022-0.23c-0.017-0.028-0.024-0.061-0.023-0.093h0.091
	c0.049-0.3,0.135-0.34,0.5-0.323c0.026-0.017,0.058-0.024,0.09-0.022v0.092h0.158c0.021,0.207,0.021,0.415,0,0.622h-0.16V18.3
	l-0.226-0.022V18.3c0.05,0.017,0.086,0.063,0.091,0.115h0.067v0.207h-0.294v0.022c0.184,0.117,0.357,0.248,0.52,0.393
	c0.101,0.109,0,0.191,0.2,0.207c0.126-0.063,0.271-0.079,0.407-0.046c0.021,0.009,0.068,0.083,0.09,0.092
	c0.307,0.051,0.621,0.051,0.928,0v0.115c0.343,0.079,0.671,0.212,0.974,0.392V19.73c0.1,0.006,0.159-0.034,0.2-0.022
	c0.049,0.005,0.087,0.043,0.09,0.092c-0.053,0.041-0.092,0.097-0.112,0.161h0.022c0.184,0.179,0.389,0.334,0.611,0.461
	c0.473,0.418,0.723,1.031,0.68,1.659c-0.082,0.022-0.162,0.101-0.227,0.115l-0.566-0.046c-0.109-0.045-0.193-0.139-0.226-0.254
	c-0.073,0.067-0.101,0.027-0.181,0v0.023c0.061,0.171,0.098,0.35,0.113,0.53h-0.084c-0.006,0.009-0.014,0.018-0.023,0.022
	c-0.011,0.157-0.041,0.313-0.092,0.461c-0.004,0.085-0.004,0.169,0,0.254c-0.233,0.152-0.396,0.393-0.452,0.668
	c-0.036-0.053-0.037-0.049-0.068-0.047c-0.2,0.15-0.37,0.338-0.5,0.554c-0.037-0.036-0.085-0.06-0.136-0.069
	c-0.102,0.067-0.208,0.129-0.316,0.184c-0.066,0.076-0.119,0.162-0.158,0.254c-0.048-0.034-0.102-0.058-0.158-0.069
	c-0.094,0.075-0.247,0.083-0.34,0.161c-0.042,0.058-0.08,0.119-0.112,0.184c-0.048-0.033-0.102-0.057-0.158-0.068
	c-0.173,0.083-0.327,0.201-0.453,0.346c-0.048-0.033-0.101-0.057-0.157-0.069c-0.174,0.084-0.328,0.201-0.453,0.347
	c-0.048-0.034-0.102-0.058-0.158-0.069c-0.11,0.088-0.268,0.1-0.385,0.184c-0.048,0.062-0.11,0.108-0.182,0.138
	c-0.021-0.117-0.094-0.1-0.226-0.092c-0.101,0.065-0.259,0.032-0.362,0.092c-0.051,0.066-0.12,0.115-0.2,0.139
	c0.001-0.025-0.008-0.049-0.022-0.069c-0.043-0.021-0.09-0.028-0.137-0.022c-0.134,0.027-0.27,0.043-0.406,0.046
	c-0.058,0.048-0.127,0.079-0.2,0.092c0-0.024-0.008-0.05-0.022-0.069c-0.179-0.043-0.363-0.051-0.543-0.022
	c-0.041,0.069-0.121,0.106-0.201,0.092c0-0.024-0.008-0.05-0.022-0.069c-0.171-0.041-0.347-0.049-0.521-0.022
	c-0.055,0.066-0.14,0.101-0.226,0.092v-0.089h-0.55c-0.059,0.047-0.127,0.078-0.2,0.092c0-0.025-0.008-0.049-0.022-0.068
	c-0.171-0.042-0.348-0.05-0.521-0.023c-0.046,0.063-0.122,0.098-0.2,0.092c-0.006-0.01-0.014-0.018-0.023-0.023v-0.068H20.77
	c-0.057,0.05-0.126,0.082-0.201,0.092c0.001-0.025-0.008-0.049-0.022-0.068c-0.17-0.042-0.347-0.05-0.52-0.023
	c-0.053,0.069-0.14,0.104-0.226,0.092v-0.092h-0.479c-0.058,0.047-0.126,0.078-0.2,0.092v-0.092h-0.478
	c-0.048,0.051-0.112,0.083-0.181,0.092v-0.092h-0.476c-0.051,0.047-0.113,0.078-0.181,0.092c-0.006-0.01-0.014-0.018-0.023-0.023
	v-0.068h-0.474c-0.048,0.051-0.112,0.083-0.181,0.092c0-0.025-0.008-0.049-0.023-0.068c-0.148-0.039-0.302-0.047-0.453-0.023
	C16.609,25.966,16.542,26,16.47,26c-0.139-0.116-0.329-0.15-0.5-0.092c-0.031,0.068-0.106,0.107-0.181,0.092v-0.092h-0.472
	c-0.051,0.047-0.113,0.078-0.181,0.092c-0.13-0.114-0.312-0.149-0.475-0.092c-0.046,0.063-0.122,0.098-0.2,0.092v-0.092h-0.479
	C13.929,25.951,13.867,25.982,13.8,26c0-0.025-0.008-0.049-0.023-0.068c-0.148-0.039-0.302-0.047-0.453-0.023
	c-0.046,0.063-0.122,0.098-0.2,0.092v-0.092h-0.477c-0.051,0.047-0.113,0.078-0.181,0.092c0-0.025-0.008-0.049-0.023-0.068
	c-0.147-0.038-0.301-0.047-0.452-0.023c-0.046,0.063-0.122,0.098-0.2,0.092v-0.092h-0.479c-0.051,0.047-0.113,0.078-0.181,0.092
	c0-0.025-0.008-0.049-0.023-0.068c-0.147-0.038-0.301-0.046-0.452-0.023C10.614,25.966,10.547,26,10.475,26v-0.023h-0.022v-0.068
	H9.977C9.929,25.956,9.867,25.988,9.8,26c0-0.025-0.008-0.049-0.023-0.068c-0.147-0.038-0.301-0.046-0.452-0.023
	c-0.046,0.063-0.122,0.098-0.2,0.092v-0.092H8.643c-0.058,0.047-0.127,0.078-0.2,0.092v-0.092H7.964
	c-0.058,0.047-0.126,0.078-0.2,0.092v-0.092H7.285c-0.058,0.047-0.127,0.078-0.2,0.092v-0.092c-0.231,0.004-0.462-0.027-0.685-0.092
	c-0.195-0.047-0.345,0.119-0.43-0.023c0.028-0.036,0.015-0.012,0-0.046c-0.167-0.151-0.385-0.234-0.611-0.231
	c-0.036-0.08,0.011-0.092-0.023-0.16L4.955,25.1c-0.062-0.012-0.125-0.004-0.181,0.023c-0.029-0.025-0.059-0.048-0.091-0.069
	C4.7,25,4.724,25,4.706,24.963c-0.189-0.151-0.403-0.269-0.633-0.346c0.03-0.04,0.039-0.037,0.023-0.069
	c-0.159-0.17-0.379-0.27-0.611-0.276L3.462,24.2c0.019-0.012,0.034-0.027,0.045-0.046c-0.13-0.081-0.252-0.23-0.385-0.301
	l-0.181-0.022c-0.023-0.024-0.037-0.057-0.041-0.09c0.032-0.019,0.05-0.056,0.045-0.093c-0.159-0.146-0.302-0.309-0.43-0.483
	c-0.017-0.027-0.025-0.06-0.023-0.092h0.065c-0.018-0.089-0.049-0.174-0.091-0.253c0.005-0.124-0.002-0.248-0.023-0.369L2.376,22.4
	c0.011-0.051,0.034-0.099,0.068-0.139v-0.687c-0.088-0.021-0.18-0.029-0.271-0.023c-0.097,0.088-0.213,0.151-0.339,0.185
	c-0.019-0.021-0.034-0.044-0.045-0.069c0.38-0.094,0.4-0.228,0.385-0.715c-0.118-0.067-0.219-0.162-0.294-0.276
	c-0.026-0.101-0.073-0.194-0.138-0.275h-0.5v-0.024c-0.163-0.238-0.299-0.493-0.407-0.761c-0.259-0.439-0.508-0.957-0.724-1.383
	C0.24,18.2,0.335,18.1,0.475,18.049C0.43,17.9,0.51,17.617,0.452,17.52c-0.014-0.026-0.039-0.043-0.068-0.046
	C0.262,17.423,0.127,17.415,0,17.449v-0.391l0.5,0.023c0.14,0.116,0.319,0.174,0.5,0.161v-0.069h0.222v0.092l0.294,0.023V17.1
	c0.12,0.019,0.242,0.019,0.362,0v0.184h0.068v-0.203c0.053-0.006,0.106-0.006,0.158,0v0.184h0.023v-0.023
	c0.009-0.053,0.032-0.103,0.068-0.142c0.421,0.049,0.848,0.042,1.267-0.023v0.161h0.022c0.027-0.018,0.059-0.025,0.091-0.023v-0.157
	H3.62c0.063-0.024,0.132-0.032,0.2-0.023c0.026,0.038,0.067,0.063,0.113,0.069v0.184c0.1-0.011,0.199-0.034,0.294-0.069
	c0.094-0.111,0.111-0.1,0.317-0.092c0.035-0.02,0.078-0.02,0.113,0c-0.002-0.055,0.006-0.109,0.023-0.161h0.026v0.023
	c0.021,0.043,0.028,0.09,0.023,0.138l0.2-0.023v-0.069h0.2v-0.07c0.161,0.045,0.32,0.099,0.475,0.161
	c0.114-0.003,0.228-0.019,0.339-0.046c0.118,0.034,0.24,0.049,0.362,0.046c0.144-0.069,0.296-0.124,0.452-0.161l-0.023,0.069
	c0.106,0.014,0.207,0.053,0.294,0.115v-0.091c0.07-0.006,0.135-0.039,0.181-0.092c0.056-0.074,0.095-0.161,0.113-0.253
	c-0.056-0.03-0.015,0.01-0.045-0.046H7.4l0.043-6.247V8.668C7.411,8.446,7.419,8.22,7.466,8L7.534,16.666z"/>
</svg>
