<svg xmlns="http://www.w3.org/2000/svg" width="40" height="40" viewBox="0 0 40 40">
  <defs>
    <style>
      .cls-1 {
        fill: #fff;
        fill-rule: evenodd;
      }
    </style>
  </defs>
  <path id="germ_pzkpfw_iii_ausf_j_ico" class="cls-1" d="M16.658,15.79a5.061,5.061,0,0,1,.615.079,0.482,0.482,0,0,1,.027.237h0.187l0.027,0.079a3.844,3.844,0,0,1,0,.658,0.652,0.652,0,0,0,.107.053l-0.027.079a0.119,0.119,0,0,0,.053.053,0.542,0.542,0,0,1-.053.29h0.348a0.316,0.316,0,0,1,.08.237h0.561a0.407,0.407,0,0,1,.027.132h0.214a0.51,0.51,0,0,0,0-.316H18.85a1.764,1.764,0,0,0,.454.053l1.257,0.158v0.079h-0.08l0.027,0.237,3.075,0.342a0.3,0.3,0,0,0,.134.211,0.932,0.932,0,0,0,.374.132l0.027-.263A0.581,0.581,0,0,1,24.3,18.29a0.867,0.867,0,0,0,.561.474,1.287,1.287,0,0,0,.481.026c0.432,0,.776-0.025,1.123-0.026a0.428,0.428,0,0,0,.08.21h1.6c0.045,0.026.061,0,.107,0.026a0.162,0.162,0,0,1,.08.184,50.832,50.832,0,0,0,5.16.132L40,19.342v0.5l-10.481.053A6.232,6.232,0,0,1,28.342,20v0.158a0.4,0.4,0,0,1-.107.053,8.511,8.511,0,0,1-1.684.026,0.191,0.191,0,0,1-.214.158,6.656,6.656,0,0,1-1.471.026,0.651,0.651,0,0,1-.187.447V20.842a1.839,1.839,0,0,0-.187-0.368,1.813,1.813,0,0,1-.187.21,0.521,0.521,0,0,0,.08.316,1.374,1.374,0,0,0,.508.026H26.2a2.133,2.133,0,0,0,.187.237h0.08a0.4,0.4,0,0,1,.027-0.211,0.158,0.158,0,0,1,.187-0.132c0.041-.019,0,0,0.08,0a0.367,0.367,0,0,1,.027.105,0.127,0.127,0,0,0-.134,0,0.133,0.133,0,0,0-.027.079l0.08,0.026a0.235,0.235,0,0,0,.134.026c0.061-.079.035-0.057,0.134-0.053,0,0.14.014,0.154,0.16,0.158a0.229,0.229,0,0,1,.107.079,0.175,0.175,0,0,1,.027.105,0.991,0.991,0,0,1,1.016.474H28.262v0.026l-0.16.026,0.053,0.29H28.8a0.477,0.477,0,0,0,.4-0.132,2.941,2.941,0,0,1,1.257.053,0.56,0.56,0,0,1,.107.184H29.973a0.193,0.193,0,0,1-.107.053v0.5a0.5,0.5,0,0,0-.08.237h0.027v0.026l2.46,0.21a0.61,0.61,0,0,1,.749-0.368v0.158a1.652,1.652,0,0,1,.027.632,1.959,1.959,0,0,1,.428.474c0.1,0.133.273,0.236,0.374,0.368a4.074,4.074,0,0,0,.455.526v0.053c-0.176.046-.2,0.174-0.374,0.211a0.162,0.162,0,0,0-.053-0.053,0.585,0.585,0,0,1-.16.158,0.676,0.676,0,0,1,.214.684c-0.09.03-.089,0.03-0.107,0.132a0.225,0.225,0,0,1,.027.132H33.77a1.582,1.582,0,0,1-.027.605H33.85l-0.027.237H33.717v0.053a1.1,1.1,0,0,0-.027.184l-0.16.316c0.079,0.034.078,0.016,0.053,0.079a0.15,0.15,0,0,1-.134.158V28.105H33.423v0.026a2.087,2.087,0,0,1-.348.447c0.047,0.055.053,0.038,0.053,0.079a0.339,0.339,0,0,1-.187.158c-0.04-.044-0.019-0.027-0.053-0.026a3.85,3.85,0,0,0-.455.368,0.162,0.162,0,0,1,.053.053,1.792,1.792,0,0,0-.8.29c0.033,0.041.017,0.013,0,.053a0.858,0.858,0,0,1-.187.079,0.179,0.179,0,0,0-.053-0.105,2.442,2.442,0,0,1-.508.184l0.027,0.105a1.43,1.43,0,0,0-.214.053,0.115,0.115,0,0,0-.08-0.079,1.192,1.192,0,0,1-.481.158,0.153,0.153,0,0,1,0,.105,0.251,0.251,0,0,1-.187.053c-0.018-.02-0.035-0.059-0.053-0.079-0.129.094-.356,0.086-0.481,0.184a0.742,0.742,0,0,0-.053.132,0.586,0.586,0,0,0-.187.053A0.332,0.332,0,0,0,29.2,30.29a2.318,2.318,0,0,1-.508.158v0.132a0.746,0.746,0,0,1-.214.053,0.107,0.107,0,0,0-.107-0.079,1.376,1.376,0,0,1-.455.158c0.009,0.075.028,0.055,0,.105a0.318,0.318,0,0,1-.214.053V30.79l-0.615.053v0.105l-0.267.026V30.868H26.791a1.479,1.479,0,0,1-.561.026V31H25.989V30.895H25.455V31H25.214V30.895H24.679V31H24.465V30.895H23.9V31H23.69V30.895H23.128V31H22.914V30.895H22.353V31H22.139V30.895H21.6a0.075,0.075,0,0,1-.027.026V31H21.364V30.895H20.829V31H20.588V30.895H20.054V31H19.84V30.895H19.278V31H19.064V30.895H18.5V31H18.289V30.895H17.727V31H17.513V30.895H16.952V31H16.738V30.895H16.2V31H15.963V30.895H15.428V31H15.187V30.895H14.652V31H14.439V30.895H13.877V31H13.663V30.895H13.1V31H12.888V30.895H12.326V31H12.112V30.895H11.551V31H11.337V30.895H10.8V31H10.562V30.895H10.027V31H9.786V30.895H9.251V31H9.037V30.895H8.476V31H8.262V30.974H8.235V30.895C8.07,30.876,7.9,30.814,7.754,30.79s-0.1.058-.16,0.079l-0.241-.026a0.33,0.33,0,0,1,.027-0.105A2.253,2.253,0,0,1,6.845,30.5a0.179,0.179,0,0,1-.053.105A0.717,0.717,0,0,0,6.6,30.5c0.058-.167-0.275-0.26-0.455-0.342a0.179,0.179,0,0,1-.053.105,0.717,0.717,0,0,0-.187-0.105c0.086-.265-0.526-0.268-0.7-0.342,0.01-.078.054-0.054-0.027-0.105a1.138,1.138,0,0,0-.642-0.21c-0.022-.075.02-0.1-0.053-0.132a1.29,1.29,0,0,0-.374-0.21c-0.107-.023-0.085.054-0.16,0.026a0.306,0.306,0,0,1-.16-0.079,0.1,0.1,0,0,0,.053-0.079,2.574,2.574,0,0,1-.508-0.237c-0.035.078-.016,0.077-0.08,0.053a0.307,0.307,0,0,1-.16-0.079,0.1,0.1,0,0,0,.053-0.079,1.062,1.062,0,0,1-.428-0.29c-0.066.016-.079,0.062-0.107,0.026a0.238,0.238,0,0,1-.16-0.158,0.163,0.163,0,0,0,.053-0.053,1.434,1.434,0,0,0-.4-0.421c-0.042.033-.014,0.017-0.053,0-0.13-.153.08-0.371-0.214-0.395a1.122,1.122,0,0,1-.428.079V26.921H1.31V26.868a4.388,4.388,0,0,0,.107-1.632H0.989v0.026a1.877,1.877,0,0,1,.053.526,0.343,0.343,0,0,0-.107.026V25.447a1.871,1.871,0,0,1,.027-0.211H0.455l-0.027.158A0.747,0.747,0,0,1,.053,25.29a2.041,2.041,0,0,0,.08-0.395,0.236,0.236,0,0,1-.08-0.079,0.156,0.156,0,0,0,.16-0.105,0.271,0.271,0,0,0,.053-0.158,0.184,0.184,0,0,1-.16-0.211H0V24.29a0.886,0.886,0,0,0,.08-0.211c0.078,0.01.034,0.043,0.08-.026H0.187V24.026A0.175,0.175,0,0,1,.08,24c0.05-.073.052-0.2,0.107-0.263a0.907,0.907,0,0,0,.348-0.079,0.168,0.168,0,0,1,.027-0.105,0.664,0.664,0,0,1,.267-0.289V23.237H0.7l-0.187.211H0.481V23.421a0.105,0.105,0,0,1-.053-0.105,8.822,8.822,0,0,1,.749-0.763A2.845,2.845,0,0,1,1.471,22.5c-0.046-.263.331-0.308,0.615-0.316V22.105H2.38a0.468,0.468,0,0,1,.16-0.342,0.818,0.818,0,0,1,.428-0.132V21.5H2.995V21.474a1.384,1.384,0,0,0,.294-0.079l1.23-.026c0.175-.038.461,0.019,0.668-0.026A6.156,6.156,0,0,1,6.5,21.29a0.162,0.162,0,0,0,.053.053l-0.027.079a0.388,0.388,0,0,0-.134.026V21.5h0.08a3.425,3.425,0,0,1,1.1-.105,1.732,1.732,0,0,1-.027-0.316c0.054-.041.076-0.092,0.134-0.132a2.66,2.66,0,0,1,.882-0.079c0.7-.146,1.6.042,2.3-0.105a1.237,1.237,0,0,1,.642.053,1.388,1.388,0,0,1,.161.184h0.535V20.974h0.027a0.834,0.834,0,0,1,.027-0.447,0.128,0.128,0,0,0-.134.053,2.666,2.666,0,0,1-.294-0.053,0.126,0.126,0,0,1-.16.053,0.155,0.155,0,0,0-.134-0.079h-2.7A0.558,0.558,0,0,1,8.8,20.316a1.439,1.439,0,0,0,.053-0.684,9.883,9.883,0,0,0,.027-1.29,3.022,3.022,0,0,0,0-.605H9.064a5.319,5.319,0,0,1,1.123-.158c0.74-.171,1.6-0.222,2.326-0.368a1.074,1.074,0,0,1,.348.053l-0.08-.369a0.838,0.838,0,0,0,.134-0.605l0.08-.026a0.234,0.234,0,0,1,.134-0.026V15.895a1.32,1.32,0,0,1,.535-0.053,1.636,1.636,0,0,1,.775-0.053c0.694,0,1.394-.007,2.112,0L16.578,9h0.053v2.29a5.159,5.159,0,0,1,.027,1.237V15.79ZM0.936,26h0.08a2.768,2.768,0,0,0,.027.316H0.936C0.938,26.166.938,26.159,0.936,26Z"/>
</svg>
