<svg xmlns="http://www.w3.org/2000/svg" width="40" height="40" viewBox="0 0 40 40">
  <defs>
    <style>
      .cls-1 {
        fill: #fff;
        fill-rule: evenodd;
      }
    </style>
  </defs>
  <path id="germ_leopard_2k_ico" class="cls-1" d="M7.181,17.856a0.882,0.882,0,0,0,.2-0.066h0.4c0.352-.077.79-0.018,1.145-0.088,0-.07-0.037-0.03.022-0.066,0.061,0.029.046,0,.11-0.022v0.044a0.133,0.133,0,0,0-.044.044h0.11a0.534,0.534,0,0,0,.242.022V17.547a0.723,0.723,0,0,0,.485-0.111,0.328,0.328,0,0,1,.022-0.309,0.249,0.249,0,0,0,.2-0.177,0.417,0.417,0,0,0,.044-0.2,0.52,0.52,0,0,1-.2-0.53A2.811,2.811,0,0,1,9.537,16.2v0.066H9.383A2.055,2.055,0,0,0,9.1,15.6l-0.066-.2c-0.044,0-.058.005-0.088-0.066a0.331,0.331,0,0,1,0-.177,3,3,0,0,1,.727-0.044,4.675,4.675,0,0,0,1.035.022,1.177,1.177,0,0,1,.683-0.177,2.473,2.473,0,0,1,.4.177h0.551c0.124,0.029.3,0.081,0.418,0.111h0.418a2.982,2.982,0,0,0,.925.221v0.2h3.128a8.377,8.377,0,0,0,1.564-.022c0.489-.105,1,0.12,1.432-0.022V15.89c-1.949-.006-4.077-0.021-6.123-0.022a2.2,2.2,0,0,1,.044.287H14.1a2,2,0,0,1-.7.022c-0.4,0-.672.13-1.057,0.133a7.1,7.1,0,0,0,.176.862L13.194,17.3V17.26a0.351,0.351,0,0,1-.11-0.11c0.109-.072.179-0.229,0.286-0.287a0.86,0.86,0,0,0,.242-0.177,0.5,0.5,0,0,1,.2-0.2,1.244,1.244,0,0,1,.242.287,0.453,0.453,0,0,0,.066.42,3.434,3.434,0,0,0,.859.022,2.917,2.917,0,0,1,.9.066c0.066,0.017.035-.053,0.066-0.066h0.242a0.99,0.99,0,0,0,.529-0.044c-0.081-.015-0.06,0-0.088-0.066a0.161,0.161,0,0,1,.176-0.088,1.913,1.913,0,0,0,.242.066,0.9,0.9,0,0,1,.088.155,1.111,1.111,0,0,0,.33.155,3.374,3.374,0,0,0,.066-0.84,0.158,0.158,0,0,0,.044-0.088,1.093,1.093,0,0,1,.7-0.221,1.423,1.423,0,0,0,.154.53,0.106,0.106,0,0,0-.066.022,0.832,0.832,0,0,1,.088.6,2.089,2.089,0,0,0,.33.332V17.613h0.132V17.7a0.061,0.061,0,0,1,.022.022,0.076,0.076,0,0,0,.044-0.022,0.8,0.8,0,0,0,.022-0.331h0.33v0.2a0.637,0.637,0,0,0,.2.022v-0.4h0.11v0.4c0.267,0,.315-0.022.573-0.022V17.26a0.562,0.562,0,0,1-.154-0.11c0.027-.094.019-0.209,0.044-0.309a0.412,0.412,0,0,1,.264-0.088,0.28,0.28,0,0,1,.132.331c-0.015.054,0.071,0.019,0.022,0.066a0.435,0.435,0,0,0-.132.42,0.43,0.43,0,0,1,.2.022,0.119,0.119,0,0,0,0,.11,1.739,1.739,0,0,0,.639.022,0.272,0.272,0,0,0,.22.066,0.173,0.173,0,0,1,0-.088,0.117,0.117,0,0,0,.11.022V17.79l0.925,0.2,0.4,0.022a0.853,0.853,0,0,0,.462.066,0.453,0.453,0,0,0,0,.133,0.367,0.367,0,0,1,.286.155,1.34,1.34,0,0,0,.441.111,0.387,0.387,0,0,1,.352-0.376c0.326,0.248.176,0.233,0.11,0.6a0.079,0.079,0,0,1,.022.044,3.84,3.84,0,0,0,.485.221,0.246,0.246,0,0,1,.11-0.022,0.744,0.744,0,0,1,.11.111h1.212c0.084,0.029.14,0.148,0.22,0.177h0.639c0.025-.008.008-0.052,0.066-0.044,0.264,0.035.894,0.186,1.277,0.2h1.3a1.377,1.377,0,0,0,.507-0.022c0.127-.054.171-0.221,0.308-0.265h1.256a1.111,1.111,0,0,1,.419.022,0.876,0.876,0,0,1,.308.287c2.36,0,4.864.042,7.225,0.044v0.862H35.308a13.837,13.837,0,0,0-2.8.133H31.586c-0.79,0-1.412-.066-2.225-0.066H28.568c-0.192.046-.422,0.107-0.639,0.155L26.7,20.508c-0.188.284-1.19,0.182-1.674,0.177l-0.9.221-0.683.354a0.064,0.064,0,0,0,.022.022,3.157,3.157,0,0,0,.771,0,2.451,2.451,0,0,0,.661.155l0.022-.155,0.22,0.022a0.063,0.063,0,0,0,.022.022c0,0.1-.024.126,0.022,0.155a1.536,1.536,0,0,0,.507.088V21.525a0.338,0.338,0,0,1-.066-0.177,0.549,0.549,0,0,1,.176-0.022,0.47,0.47,0,0,0,.22.022,0.2,0.2,0,0,0,.242.155c0.034,0.016,0,0,.066,0v0.265l0.154,0.022c0,0.083-.027.054,0.066,0.066a2.446,2.446,0,0,0,.551.088,7.25,7.25,0,0,0,.881.243V22.144a1.94,1.94,0,0,1-.485-0.42,0.863,0.863,0,0,1,.286-0.265,0.23,0.23,0,0,0,.2.088,0.167,0.167,0,0,1,.11-0.088,4.136,4.136,0,0,0,.837.751,0.156,0.156,0,0,1,.176-0.066,0.339,0.339,0,0,1,.044.2,0.136,0.136,0,0,0-.022.133,0.61,0.61,0,0,0,.286.066c0.263,0.1.623,0.184,0.837,0.243,0.168,0.047.368-.1,0.485-0.044a1.043,1.043,0,0,0,.066.2,0.61,0.61,0,0,0,.33.044,0.347,0.347,0,0,0,.022-0.11,0.121,0.121,0,0,1-.066-0.133,0.23,0.23,0,0,1,.132-0.044,0.6,0.6,0,0,1,.264-0.022,0.134,0.134,0,0,0,.044.044,0.076,0.076,0,0,1-.022.044,0.188,0.188,0,0,1-.11.111V22.9c0.148,0.038.088,0.088,0.154,0.2V23.072A0.817,0.817,0,0,0,31.85,22.7h0.066a4.282,4.282,0,0,0,.022.619,0.291,0.291,0,0,0-.242.287c0.262-.021.5-0.169,0.485,0.243a0.262,0.262,0,0,0,.044.155c-0.044,0-.006-0.023-0.044,0a0.08,0.08,0,0,1,.022.044c-0.064,0-.031-0.021-0.066,0a1.388,1.388,0,0,1-.022.243,0.4,0.4,0,0,0,.132.022,0.318,0.318,0,0,1,.2-0.221,0.135,0.135,0,0,0,.044.044,1.015,1.015,0,0,1-.22.376c-0.315.257-.471-0.277-0.463-0.552H31.189l0.066,0.552H31.123V23.956H31.079a0.112,0.112,0,0,0-.066-0.022,4.084,4.084,0,0,1-.771.552,0.8,0.8,0,0,1-.044.707,0.143,0.143,0,0,0-.176.044,0.54,0.54,0,0,1,.066.155,0.754,0.754,0,0,0-.154.2l-0.286.243c-0.051-.018-0.1-0.044-0.154-0.066a0.2,0.2,0,0,1-.044.177c-0.1.129-.3,0.169-0.419,0.287-0.067-.026-0.1-0.065-0.176-0.088a0.259,0.259,0,0,1-.022.2,3.982,3.982,0,0,0-.418.287,0.74,0.74,0,0,0-.176-0.11v0.044a0.249,0.249,0,0,1,0,.155,1.464,1.464,0,0,1-.463.287,0.2,0.2,0,0,0-.132-0.066,0.181,0.181,0,0,1-.044.177,1.02,1.02,0,0,1-.441.265,0.158,0.158,0,0,0-.132-0.066,0.309,0.309,0,0,1-.022.177c-0.118.117-.3,0.168-0.419,0.287-0.067-.026-0.1-0.065-0.176-0.088a0.136,0.136,0,0,1-.044.155,0.894,0.894,0,0,1-.485.133,0.95,0.95,0,0,0-.088-0.111H25.771V27.89a0.084,0.084,0,0,0-.066.088C19.216,27.975,12.457,28,5.859,28V27.934H5.815C5.777,27.9,5.78,27.9,5.749,27.912A0.083,0.083,0,0,0,5.683,28l-0.595-.066a0.238,0.238,0,0,0-.044-0.2,0.223,0.223,0,0,1-.22.088,1.279,1.279,0,0,1-.441-0.331,0.6,0.6,0,0,0,.044-0.177H4.383a0.158,0.158,0,0,1-.154.066,1.118,1.118,0,0,1-.441-0.376,0.6,0.6,0,0,0,.044-0.177H3.789a0.145,0.145,0,0,1-.154.066,2.669,2.669,0,0,1-.441-0.331,0.8,0.8,0,0,1,.044-0.177H3.216V26.365a0.273,0.273,0,0,1-.176.044A1.32,1.32,0,0,1,2.6,26.033a0.426,0.426,0,0,0,.022-0.155H2.6a0.342,0.342,0,0,1-.176.066C2.31,25.78,2.11,25.7,2,25.525a0.344,0.344,0,0,0,.066-0.177H2.048a0.273,0.273,0,0,1-.176,0,0.385,0.385,0,0,0-.11-0.133V25.193H1.74a0.433,0.433,0,0,1-.529.464A0.928,0.928,0,0,1,1.1,25.3H1.013A0.076,0.076,0,0,0,.991,25.26V25.238H1.035a0.187,0.187,0,0,1,.154-0.044,0.7,0.7,0,0,1,0-.155c0.108-.031.117-0.076,0.11-0.221,0.007-.013-0.02-0.167-0.022-0.265a0.471,0.471,0,0,1,.154-0.022,0.755,0.755,0,0,0,.022.177H1.718V24.619H1.63V24.508a0.594,0.594,0,0,1-.044-0.044,0.14,0.14,0,0,0-.088.022l-0.022-.133H0.9L0.815,26.122A1.508,1.508,0,0,1,.507,26.1V26.077a1.166,1.166,0,0,0,.11-0.354c0.092-.282.149-0.623,0.22-0.95a0.852,0.852,0,0,0-.044-0.42v-0.53A0.106,0.106,0,0,1,.727,23.8a0.838,0.838,0,0,0-.066-0.2V23.58C0.639,23.558.639,23.6,0.639,23.6a1.209,1.209,0,0,0-.022.464H0.529V23.8A0.37,0.37,0,0,1,.286,23.58c0.056-.032.025,0,0.044-0.066C0.273,23.505.3,23.53,0.286,23.47a0.3,0.3,0,0,0,.22-0.243,0.538,0.538,0,0,0,.022-0.243,0.662,0.662,0,0,0,.154-0.022V22.917a1.763,1.763,0,0,1-.22-0.442V22.5a0.242,0.242,0,0,0-.066.044,0.738,0.738,0,0,1,.066.309H0.419c-0.034.016,0,0-.066,0l-0.044-.309H0.242V22.5A0.592,0.592,0,0,1,.2,22.144c-0.061,0-.048.026-0.066-0.066a0.912,0.912,0,0,0,0-.464H0.066V21.569A1.215,1.215,0,0,1,0,21.127H0.044a3.5,3.5,0,0,1,1.542-.11l0.088-.2H5.2l0.11,0.2h1.52a6.452,6.452,0,0,1,1.079-.088V20.906h-0.4V20.884h3.833c0.01,0.062.094,0.049,0.22,0.044a1.436,1.436,0,0,0,.352.11,5.169,5.169,0,0,0,.639.332h0.859a0.333,0.333,0,0,0,.044-0.088,1.86,1.86,0,0,1-.485-0.177c-0.217-.09-0.42-0.109-0.639-0.2a8,8,0,0,0-.859-0.331,0.253,0.253,0,0,0-.2.044,0.257,0.257,0,0,1-.2-0.044H11.035a0.243,0.243,0,0,1-.2.044l-0.022-.066H10.463a1.733,1.733,0,0,0-.771,0,0.275,0.275,0,0,1-.22-0.044c-0.067-.026-0.046.022-0.066,0.044-0.04.007-.11-0.021-0.176-0.022a0.522,0.522,0,0,0-.374-0.044A6.255,6.255,0,0,0,7.8,20.442a0.332,0.332,0,0,1-.044-0.088,0.23,0.23,0,0,1-.044-0.133l-0.374.066a0.789,0.789,0,0,1-.044-0.376,5.241,5.241,0,0,1-.947-0.6,0.792,0.792,0,0,1-.352-0.243A1.722,1.722,0,0,1,5.9,18.431a1.49,1.49,0,0,1,.463-0.42l0.22-.044a0.292,0.292,0,0,1,.264-0.11,0.318,0.318,0,0,1,.11-0.265l0.022-3.647v-1.3A2.53,2.53,0,0,1,7,12H7.026v0.022a1.268,1.268,0,0,1,.022.464v1.149L7.07,17.591A0.326,0.326,0,0,1,7.181,17.856Z"/>
</svg>
