<?xml version="1.0" encoding="utf-8"?>
<!-- Generator: Adobe Illustrator 16.0.0, SVG Export Plug-In . SVG Version: 6.00 Build 0)  -->
<!DOCTYPE svg PUBLIC "-//W3C//DTD SVG 1.1//EN" "http://www.w3.org/Graphics/SVG/1.1/DTD/svg11.dtd">
<svg version="1.1" id="Layer_1" xmlns="http://www.w3.org/2000/svg" xmlns:xlink="http://www.w3.org/1999/xlink" x="0px" y="0px"
	 width="40px" height="40px" viewBox="0 0 40 40" enable-background="new 0 0 40 40" xml:space="preserve">
<path id="germ_thyssen_henschel_tam_ico" fill="#FFFFFF" d="M4.553,14.32h0.162v0.053c0.434,0.034,0.871,0.016,1.3-0.053
	c-0.007-0.098,0.002-0.197,0.027-0.293H6.1v0.293c0.202,0.062,0.414,0.08,0.623,0.053c0.032-0.042,0.084-0.063,0.136-0.053
	c0.079,0.03,0.161,0.048,0.244,0.053c0.131,0,0.587-0.056,0.6-0.053c0.246,0.075,0.505,0.093,0.759,0.053V14.32
	c0.109,0.012,0.218,0.029,0.325,0.053c0.023-0.033,0.042-0.069,0.054-0.107c0.021-0.032,0.03-0.069,0.027-0.107h0.075
	c0-0.107,0.009-0.214,0.027-0.32c-0.029,0-0.058-0.009-0.081-0.027c0.379,0.019,0.758-0.044,1.111-0.185
	c0.209,0.023,0.421,0.005,0.623-0.053c-0.056,0.007-0.112-0.002-0.163-0.027c-0.117-0.163-0.052-0.3-0.352-0.293
	c-0.225,0.034-0.453,0.034-0.678,0V13.2c0.052-0.22,0.052-0.448,0-0.667l0.352-0.027c0.038-0.075,0.083-0.146,0.135-0.213
	c-0.03-0.053-0.016-0.048,0-0.107h0.056v0.08c0.1-0.007,0.2-0.007,0.3,0c0.018,0.023,0.027,0.051,0.027,0.08
	c0.536-0.006,1.071-0.051,1.6-0.133c0.007,0.065,0.025,0.128,0.054,0.187c0.19-0.021,0.382-0.012,0.569,0.027h1.6
	c0-0.071,0.009-0.143,0.027-0.213h0.05v0.026c0.033,0.057,0.052,0.121,0.054,0.187l0.461,0.027v0.08l-1.274,0.027v0.053
	c0.183-0.006,0.209-0.03,0.217,0.133h-0.027c-0.199-0.032-0.401-0.032-0.6,0l-0.027,0.133h-0.19c-0.295-0.062-0.599-0.062-0.894,0
	c0.004,0.063,0.033,0.12,0.081,0.16c-0.047-0.005-0.095,0.004-0.136,0.027c0.022,0.041,0.032,0.087,0.027,0.133H11.68v0.027
	c0.019,0.167-0.02,0.336-0.108,0.48c0.211,0.011,0.42,0.047,0.623,0.107c0.172-0.011,0.345-0.002,0.515,0.027h-0.081v0.32h0.108
	c0,0.029,0.009,0.057,0.027,0.08v-0.028c0.027-0.067,0.037-0.141,0.027-0.213h0.081v-0.72c0.166-0.156,0.375-0.259,0.6-0.293
	c0,0.122,0.292,0.088,0.488,0.08c0.034,0.046,0.053,0.103,0.054,0.16c0.071,0.126-0.009,0.951,0.027,1.12
	c0.306,0.024,0.614,0.034,0.921,0.027c0.061-0.148,0.137-0.145,0.352-0.133c0.023-0.018,0.052-0.027,0.081-0.027v-0.4H15.8v0.4
	l0.379,0.027c0.067,0.146,0.157,0.145,0.379,0.133V14.4c0.063,0.16,0.191,0.286,0.352,0.347c0.227,0.073,0.462,0.118,0.7,0.133
	c0.42,0.111,0.842,0.101,1.22,0.187h0.732c0.182,0.045,0.258,0.091,0.434,0.134c0.009-0.163,0.066-0.191,0.244-0.188
	c0.075,0.158,0.103,0.334,0.081,0.507h0.027c0.416,0.106,0.848,0.134,1.274,0.08c0.006,0.055,0.035,0.104,0.081,0.133
	c0.223,0.05,0.451,0.059,0.677,0.027l1.545,0.027l2.819,0.053c0.088-0.053,0.17-0.115,0.244-0.188
	c0.031-0.012,0.486,0.027,0.6,0.027c0.551,0.02,1.104,0.011,1.653-0.027c0.042,0.142,0.179,0.232,0.325,0.214
	c0.34,0.058,0.686,0.076,1.029,0.053h2.088c2.422,0,4.881-0.024,7.262-0.026c0.045,0.255,0.054,0.515,0.027,0.772
	c-0.33,0.052-0.666,0.062-1,0.026c-0.229-0.05-0.467-0.059-0.699-0.026h-8.545v0.055c-0.117-0.003-0.235,0.007-0.352,0.027
	c-0.055,0.08-0.129,0.145-0.217,0.187c-0.197-0.045-0.4-0.055-0.6-0.026h-1.515c-0.105-0.043-0.206-0.097-0.3-0.16l-1.084,0.026
	l-1.545,0.027c-0.334-0.022-0.668-0.014-1,0.027c-0.465,0.107-1.07-0.116-1.49,0.027c0.014,0.059,0.031,0.053,0,0.106
	c-0.314,0.05-0.633,0.059-0.949,0.027c-0.292,0.22-0.637,0.357-1,0.399c-0.013-0.177-0.167-0.311-0.345-0.297
	c-0.011,0.001-0.022,0.002-0.034,0.004v0.053c0.085,0.088,0.158,0.187,0.217,0.293h-0.7v0.054h1.247
	c0.143-0.069,0.306-0.089,0.46-0.054c0.377,0.056,0.758,0.074,1.139,0.054c0.78-0.09,1.57-0.036,2.331,0.16h0.163
	c0.293,0.04,0.583,0.103,0.867,0.187c0.102,0.097,0.21,0.186,0.324,0.268v-0.16H26.1c-0.013,0.151-0.004,0.304,0.027,0.453
	c0.398,0.02,0.791,0.102,1.165,0.24c0.024-0.065,0.028-0.043,0.054-0.107c-0.018-0.023-0.026-0.051-0.027-0.08l0.353,0.027v-0.056
	c-0.054-0.025-0.094-0.074-0.108-0.133c0.1-0.093,0.208-0.173,0.326-0.24c0.047,0.077,0.127,0.126,0.217,0.134
	c0.043-0.061,0.043-0.057,0.08-0.054c0.215,0.144,0.355,0.42,0.569,0.56c0.354,0.143,0.729,0.224,1.111,0.24
	c0.053-0.164,0.046-0.287,0.271-0.293c0.088,0.228,0.299,0.383,0.543,0.4c0.34-0.047,0.686-0.064,1.029-0.053
	c0.08-0.043,0.153-0.096,0.217-0.16h0.163l0.027-0.107c0.086-0.032,0.18-0.042,0.271-0.027c0.021,0.049,0.06,0.088,0.108,0.107
	c-0.003-0.063,0.007-0.127,0.026-0.187h0.027v0.026c0.055,0.389,0.055,0.783,0,1.172c0.122,0.023,0.247,0.078,0.379,0.107v0.053
	c-0.209,0.256-0.374,0.544-0.488,0.854c0.172,0.254,0.275,0.547,0.301,0.853c-0.061,0.105-0.089,0.226-0.081,0.347h0.051
	c0.106,0.012,0.214-0.017,0.3-0.079V22c0.036,0.046,0.047,0.043,0.027,0.08c-0.039,0.049-0.104,0.069-0.163,0.053
	c-0.138,0.122-0.442,0.131-0.461-0.107c-0.038-0.083-0.057-0.174-0.054-0.267c-0.169,0.048-0.342,0.084-0.516,0.107
	c-0.026,0.075-0.063,0.146-0.107,0.213c0.102,0.03,0.162,0.137,0.136,0.239c-0.067,0.113-0.104,0.242-0.108,0.373H31.68
	l-0.027,0.054c-0.021,0.061-0.021,0.126,0,0.187c-0.092,0.131-0.192,0.255-0.299,0.373c-0.069,0.032-0.158-0.048-0.218,0.053
	l0.027,0.08c-0.122,0.141-0.282,0.242-0.461,0.293c-0.041-0.027-0.087-0.045-0.136-0.053c-0.009,0.064,0.001,0.129,0.026,0.188
	c-0.165,0.051-0.241,0.185-0.407,0.24c-0.041-0.044-0.103-0.064-0.162-0.054C30.018,24.063,30.01,24.072,30,24.08
	c0.039,0.061,0.027,0.141-0.027,0.188c-0.08,0.1-0.219,0.14-0.3,0.239c-0.054-0.043-0.122-0.062-0.19-0.053
	c-0.018,0.061-0.027,0.124-0.026,0.187c-0.111,0.098-0.229,0.186-0.353,0.268c-0.06-0.034-0.123-0.061-0.189-0.08
	c-0.028,0.068-0.028,0.145,0,0.213c-0.134,0.053-0.254,0.135-0.352,0.24c-0.059-0.033-0.124-0.051-0.19-0.053
	c-0.007,0.076-0.035,0.15-0.081,0.213c-0.113,0.077-0.23,0.148-0.352,0.213c-0.053-0.048-0.12-0.076-0.19-0.08
	c-0.046,0.051-0.065,0.119-0.054,0.187c-0.168,0.021-0.333,0.065-0.488,0.134v-0.08c-0.084-0.035-0.182-0.014-0.244,0.053v0.053
	c-0.24,0.072-0.498,0.063-0.732-0.027v0.08h-0.649v-0.08H25.5v0.08h-0.648v-0.08H24.77v0.08H24.12v-0.08h-0.082v0.08h-0.649
	c-0.022-0.086,0.012-0.041-0.055-0.08v0.08h-0.678c-0.022-0.086,0.013-0.041-0.055-0.08v0.08h-0.649v-0.08H21.87v0.08h-0.65
	c-0.021-0.086,0.013-0.041-0.054-0.08v0.08h-0.65v-0.08h-0.082v0.08H19.81v-0.08h-0.081v0.08h-0.65v-0.08H19v0.08h-0.626v-0.08
	h-0.081v0.08h-0.624v-0.08h-0.081v0.08h-0.623v-0.08h-0.081v0.08h-0.65v-0.08h-0.082v0.08h-0.623v-0.08h-0.082v0.08h-0.623v-0.08
	h-0.081v0.08h-0.624v-0.08h-0.081v0.08h-0.65v-0.08h-0.082v0.08h-0.623v-0.08H12.6v0.08h-0.622v-0.08H11.9v0.08h-0.626v-0.08h-0.109
	v0.08h-0.6v-0.08h-0.05c-0.042-0.019,0,0-0.081,0v0.08h-0.6v-0.08H9.7v0.08H9.1v-0.08H8.943v0.08H8.374v-0.08
	c-0.054-0.008-0.109-0.008-0.163,0v0.08H7.642v-0.08c-0.088,0-0.173,0.028-0.244,0.08c-0.173,0.018-0.349,0-0.515-0.053v-0.08
	c-0.04-0.01-0.071-0.041-0.083-0.08c-0.04,0.029-0.087,0.047-0.136,0.053c0,0.029-0.009,0.058-0.027,0.08
	c-0.131-0.1-0.361-0.086-0.488-0.187c0.019-0.06-0.003-0.124-0.054-0.16c-0.01-0.012-0.141,0.058-0.163,0.054
	c-0.147-0.037-0.234-0.121-0.379-0.16C5.55,25.365,5.532,25.293,5.5,25.227c-0.063,0.044-0.141,0.063-0.217,0.054
	c-0.123-0.04-0.241-0.094-0.352-0.16l-0.027-0.187c-0.209,0.046-0.429-0.003-0.6-0.134c0.019-0.073-0.014-0.15-0.081-0.187
	C4.182,24.659,4.12,24.68,4.06,24.666c-0.147-0.025-0.281-0.101-0.379-0.213c0.018-0.052-0.005-0.108-0.054-0.133
	c-0.113,0.093-0.185,0-0.352-0.053l-0.406-0.054c-0.453-0.159-0.835-0.47-1.084-0.88c-0.111-0.16-0.273-0.238-0.163-0.48
	c-0.181-0.037-0.326-0.17-0.379-0.347C1.1,22.314,0.9,22.139,0.759,21.947c-0.063-0.119-0.146-0.228-0.244-0.32v0.667
	c0.023,0.123,0.032,0.248,0.027,0.373c0.033,0.207,0.079,0.411,0.136,0.613h-0.3l0.027-0.64c-0.057-0.154-0.084-0.316-0.081-0.48
	l0.081-0.027l-0.027-0.64c0.022-0.08,0.083-0.148,0.108-0.24c-0.161,0.012-0.321-0.025-0.461-0.106C0.009,21.123,0,21.096,0,21.066
	c0.028-0.029,0.066-0.049,0.108-0.053c0.066,0.061,0.155,0.09,0.244,0.08l0.027-0.08c0.106-0.199-0.263-0.554,0.054-0.72
	c0.209,0.026,0.421-0.021,0.6-0.133h0.024v-0.028H0.976c0.011-0.123,0.04-0.117,0.054-0.24c-0.07-0.026-0.121-0.086-0.136-0.16
	C0.959,19.649,0.997,19.547,1,19.439c-0.158-0.012-0.284-0.135-0.3-0.293c0.1-0.112,0.1-0.299,0.19-0.427
	c0.041-0.053,0.149-0.079,0.19-0.133l0.163-0.399c0.07-0.033,0.143-0.06,0.217-0.08l0.054,0.08h0.275
	c0.094-0.102,0.168-0.219,0.217-0.348c-0.066,0.014-0.133-0.02-0.163-0.08c-0.198,0.076-0.414,0.095-0.623,0.053v-0.746h0.6v0.08
	c0.077-0.035,0.15-0.08,0.217-0.133c0.081-0.014,0.164,0.018,0.217,0.08h0.917l0.027-0.08c0,0,0.692,0.066,0.759,0.08h1.761v0.16
	h0.054V17.2c0.019-0.034,0.047-0.062,0.081-0.08c0.078,0.028,0.162,0.038,0.244,0.026V17.2c-0.074-0.003-0.147,0.006-0.217,0.026
	v0.027c0.318,0.027,0.63,0.108,0.921,0.24h0.977c0.035-0.042,0.083-0.07,0.136-0.08c0.292,0.096,0.608,0.086,0.894-0.027H8.672
	c-0.131-0.044-0.268-0.07-0.406-0.08c-0.386-0.1-0.807-0.131-1.22-0.24c-0.795-0.211-1.671-0.317-2.466-0.506H3.089
	c-0.001-0.074-0.02-0.147-0.054-0.213h0.027V16.32c0.035,0.012,0.073,0.012,0.108,0c0.201-0.353,0.356-0.729,0.461-1.12
	c0.08-0.125,0.144-0.259,0.19-0.4c0.014-0.233-0.081-0.437-0.081-0.693h0.054v0.16c0.181,0.01,0.334,0.052,0.569,0.053
	c-0.02-0.321-0.001-0.643,0.054-0.96l0.027-8.027v-2.4C4.412,2.622,4.421,2.309,4.472,2v8.133c0.061,0.541,0.07,1.085,0.028,1.627
	C4.5,12.639,4.566,13.579,4.553,14.32z"/>
</svg>
