<?xml version="1.0" encoding="utf-8"?>
<!-- Generator: Adobe Illustrator 16.0.0, SVG Export Plug-In . SVG Version: 6.00 Build 0)  -->
<!DOCTYPE svg PUBLIC "-//W3C//DTD SVG 1.1//EN" "http://www.w3.org/Graphics/SVG/1.1/DTD/svg11.dtd">
<svg version="1.1" id="Layer_1" xmlns="http://www.w3.org/2000/svg" xmlns:xlink="http://www.w3.org/1999/xlink" x="0px" y="0px"
	 width="39.969px" height="40px" viewBox="0 0 39.969 40" enable-background="new 0 0 39.969 40" xml:space="preserve">
<path id="Color_Fill_1" fill="#FFFFFF" d="M18.667,13.527h0.075v0.026c0.013,0.068,0.029,0.135,0.05,0.2
	c0.324,0,0.958,0.056,1.082,0.026c0.083-0.02,0.146-0.073,0.276-0.1v0.026c-0.02,0.031-0.037,0.065-0.05,0.1h0.025
	c0.019-0.041,0.056-0.069,0.1-0.077v0.026c-0.021,0.013-0.037,0.03-0.05,0.051h0.1c0.156-0.039,0.317-0.056,0.479-0.051
	c0.341-0.052,0.688-0.069,1.032-0.051v-0.534h0.554c-0.023,0.181-0.058,0.361-0.1,0.538c0.06-0.002,0.119,0.007,0.176,0.026
	c0.021-0.083-0.013-0.039,0.05-0.077c0.044,0.049,0.112,0.068,0.176,0.051c0-0.086,0.026-0.3,0.025-0.487h0.453v-0.077h0.553
	c0.013,0.032,0.021,0.065,0.025,0.1c-0.095,0.173-0.075,0.385,0.05,0.538v-0.023l-0.025-0.026h0.05
	c0.03,0.019,0.065,0.028,0.101,0.026c0.01,0.067-0.02,0.034,0.05,0.051c0.021-0.064,0.084-0.105,0.151-0.1
	c0.026,0.06,0.085,0.098,0.15,0.1c0.022-0.041,0.039-0.083,0.05-0.128h0.101c0.077-0.13,0.171-0.251,0.276-0.359h0.025v0.026
	c0.176,0.099,0.315,0.251,0.4,0.435c0.174,0.03,0.351,0.047,0.527,0.051c0.53-0.188,1.111-0.179,1.636,0.026
	c0.103,0.01,0.204,0.037,0.3,0.077c-0.033,0.014-0.02,0-0.025,0.026c0.072,0.026,0.022-0.042,0.126-0.026l0.2,0.077l-0.025,0.051
	h0.025c0.019-0.041,0.056-0.069,0.1-0.077c0.012,0.092-0.012,0.064,0.051,0.1c-0.021-0.03-0.021-0.069,0-0.1
	c0.067,0.091,0.166,0.155,0.276,0.179v0.026c-0.035-0.002-0.07,0.007-0.1,0.026H28.2c0.046,0.039,0.097,0.073,0.15,0.1
	c0-0.1-0.041-0.061,0.025-0.1c0.098,0.073,0.208,0.125,0.327,0.154c-0.03,0.067,0,0.146,0.067,0.176
	c0.003,0.001,0.006,0.002,0.008,0.003c-0.021,0.039-0.071,0.019-0.024,0.051v0.026c0.014-0.014,0.022-0.032,0.024-0.051
	c0.028-0.028,0.011-0.027,0.051-0.077h-0.024v-0.026c-0.038,0.022-0.019,0.073-0.05,0.026s-0.012-0.019,0-0.077
	c0.102,0.119,0.22,0.223,0.352,0.307c0.167-0.01,0.335-0.001,0.5,0.026c0.011,0.067-0.019,0.034,0.051,0.051
	c0.014-0.033,0-0.019,0.024-0.026c0.101,0.043,0.188,0.112,0.252,0.2c-0.021,0.039-0.072,0.019-0.024,0.051
	c0.044,0.049,0.112,0.068,0.176,0.051c0.196,0.047,0.4,0.056,0.6,0.026v-0.072c0.185-0.021,0.371-0.013,0.553,0.026v-0.026H31.22
	c-0.048-0.02,0.05-0.026,0.05-0.026c0.115,0.035,0.237,0.035,0.353,0c0.033,0.077-0.018,0.069,0.126,0.077v-0.076h0.1v0.026
	c-0.021,0.013-0.037,0.03-0.05,0.051h0.024c0.185-0.07,0.386-0.088,0.579-0.051c0.427,0.055,0.857,0.055,1.283,0
	c0.085-0.018,0.173-0.009,0.252,0.026c-0.082,0.021-0.038-0.012-0.075,0.051h0.126c0.007,0.01,0.015,0.02,0.025,0.026
	c0-0.164,0.217-0.117,0.428-0.1v0.026h-0.1v0.077h0.226v-0.081c0.151-0.022,0.306-0.014,0.453,0.026
	c-0.035-0.002-0.07,0.007-0.1,0.026h0.024c0.031,0.021,0.065,0.038,0.101,0.051V15.09c0.038,0.006,0.073,0.023,0.1,0.051
	c0.116-0.062,0.254-0.071,0.377-0.026c-0.043-0.005-0.088,0.004-0.126,0.026c0.145-0.013,0.291,0.004,0.429,0.051v-0.051
	c-0.028,0-0.055-0.009-0.076-0.026h0.377c0.007,0.067,0,0.05,0.126,0.051c0.007-0.067,0-0.05,0.126-0.051v0.051
	c0.086,0.07,0.161-0.065,0.226-0.051c0.062,0.033,0.13,0.051,0.2,0.051V15.09h0.151c0,0.081-0.036,0.048,0.05,0.077
	c0.219-0.081,0.46-0.081,0.679,0c0.092-0.016,0.185-0.024,0.277-0.026c0.007,0.067,0,0.05,0.126,0.051
	c0.136-0.057,0.514,0.034,0.755-0.026c0.339-0.074,0.685-0.107,1.031-0.1l0.05,0.077c0.072,0.199,0.072,0.417,0,0.615h-0.05
	c-0.189,0.046-0.387,0.055-0.579,0.026c-0.163-0.013-0.324-0.046-0.479-0.101c-0.259-0.032-0.52-0.041-0.779-0.025V15.7
	c0.019,0.003,0.036,0.012,0.05,0.026c-0.027,0-0.054,0.008-0.075,0.025h0.075c0.005,0.045-0.004,0.089-0.025,0.128
	c0.003-0.035-0.006-0.069-0.024-0.1v0.077h-0.274v0.153h-0.075v-0.024c0.041-0.062,0.035-0.092-0.024-0.129
	c-0.07,0.008-0.135,0.044-0.177,0.101c0.027,0,0.054,0.009,0.075,0.026h-0.15c0-0.028-0.009-0.055-0.025-0.077
	c-0.006-0.011-0.015-0.021-0.025-0.026v0.026c0.023,0.048,0.031,0.101,0.025,0.153h0.05c0.007-0.066,0-0.05,0.126-0.051v0.026
	c-0.051,0.038-0.113,0.056-0.176,0.051c-0.039,0.019,0,0-0.075,0l-0.024-0.051l0.074,0.026v-0.076h-0.075v-0.077
	c-0.212,0.021-0.425,0.003-0.63-0.052c-0.019-0.002-0.036-0.012-0.05-0.025c0.027,0,0.054-0.01,0.075-0.025h-0.226v0.025
	c0.021,0.013,0.037,0.03,0.05,0.051c-0.09,0.012-0.063-0.012-0.101,0.051c-0.039,0.125-0.039,0.26,0,0.385h-0.05
	c-0.003-0.039-0.021-0.074-0.05-0.101c0.063-0.032,0.017,0.011,0.05-0.051H36.3c-0.006,0.011-0.015,0.02-0.025,0.026v-0.101
	c0.028,0.001,0.055-0.009,0.076-0.026c-0.032-0.003-0.061-0.021-0.076-0.051c0.069-0.041,0.063-0.022,0.076-0.127
	c-0.041-0.01-0.084-0.01-0.126,0c-0.017-0.021-0.033-0.058-0.05-0.078c-0.01,0.037-0.027,0.07-0.05,0.101
	c0.063,0.037,0.027-0.006,0.05,0.077h-0.05v-0.027h0.024c0.049-0.02-0.05-0.025-0.05-0.025v0.1c0.027,0,0.054,0.009,0.075,0.025
	h-0.1c-0.006-0.054-0.023-0.106-0.051-0.153H36.1c0.005-0.044-0.004-0.089-0.024-0.128c-0.004,0.034-0.012,0.068-0.025,0.1
	c-0.022-0.02-0.028-0.031-0.05-0.051c0.005,0.044-0.004,0.089-0.025,0.128v-0.021c-0.024-0.041-0.059-0.076-0.1-0.101
	c-0.032,0.013-0.068,0.013-0.101,0v0.051c0.052-0.007,0.104,0.003,0.151,0.026h-0.05c-0.088-0.041-0.182-0.066-0.277-0.077
	c-0.043,0.047,0.024,0.062-0.1,0.077c-0.029-0.037-0.063-0.071-0.101-0.1c0.032,0.121,0.017,0.157-0.15,0.153
	c-0.003-0.044-0.012-0.087-0.025-0.128v0.026c-0.016,0.022-0.024,0.049-0.025,0.077c-0.026,0-0.053,0.009-0.074,0.025
	c0.035-0.002,0.07,0.007,0.1,0.026h-0.078c-0.001,0.06-0.01,0.12-0.024,0.179h-0.026v-0.031c-0.021-0.04-0.029-0.084-0.025-0.129
	c-0.062,0-0.123-0.018-0.176-0.051c0.095,0,0.088,0.012,0.126-0.051h-0.024c-0.181,0.067-0.381,0.059-0.554-0.026v0.077h0.025v0.025
	c0.1,0,0.069-0.024,0.075,0.101c-0.006,0.024-0.021,0.011,0,0.026c-0.014,0.014-0.031,0.022-0.05,0.025
	c0-0.136,0.049-0.121-0.101-0.128c0.007-0.069,0.047-0.067-0.024-0.1c-0.007-0.011-0.015-0.02-0.025-0.026
	c0.032,0.051,0.021,0.117-0.025,0.154c0.045,0.042,0.041-0.014,0.051,0.077h-0.101v-0.027c0.028-0.041,0.05-0.116,0.075-0.153
	c-0.09-0.031,0.02-0.062-0.126-0.078c-0.133-0.02-0.268-0.02-0.4,0c-0.454,0.104-0.926,0.113-1.384,0.026v0.026
	c0.02,0.002,0.037,0.012,0.05,0.025h-0.153c-0.042-0.045-0.094-0.079-0.151-0.1c0,0.081,0.043,0.035-0.025,0.077
	c-0.011-0.046-0.053-0.078-0.1-0.077v0.025c0.027,0.014,0.053,0.031,0.075,0.052H32.05c-0.201-0.123-0.453-0.123-0.654,0
	c0.001,0.028-0.008,0.055-0.024,0.077c0-0.027-0.009-0.055-0.025-0.077c0.007,0.061-0.001,0.122-0.025,0.179
	c-0.038,0.021-0.082,0.031-0.126,0.026c0.001-0.028-0.008-0.056-0.024-0.077v0.154h0.05c0.007-0.067,0-0.051,0.126-0.051v0.025
	c-0.027,0-0.055,0.009-0.076,0.025c0.02,0.004,0.037,0.013,0.05,0.027c-0.172,0-0.157,0-0.226,0.076v-0.1
	c0.02-0.003,0.037-0.012,0.05-0.026c-0.019-0.003-0.036-0.012-0.05-0.026c0.02-0.002,0.037-0.012,0.05-0.025h-0.075
	c0.004-0.035,0.012-0.068,0.025-0.1c-0.035-0.006,0.01,0.021-0.025,0.025c-0.019,0.049-0.024-0.051-0.024-0.051
	c-0.014-0.014-0.031-0.022-0.05-0.026c0.01,0.058,0.022,0.028,0,0.077c-0.077-0.064-0.066-0.061-0.126-0.025
	c0.009-0.043,0.009-0.086,0-0.129c-0.014,0.014-0.031,0.023-0.051,0.026v-0.062c0.02-0.002,0.037-0.012,0.051-0.025
	c-0.018-0.032-0.044-0.059-0.075-0.077c0,0,0,0.101-0.025,0.052v-0.051c-0.266-0.025-0.534-0.025-0.8,0
	c0.003,0.127-0.065,0.245-0.176,0.307c-0.254,0.071-0.518,0.098-0.78,0.078c0.052,0.006,0.104-0.003,0.151-0.026
	c-0.037,0-0.654,0.128-0.654,0.128c0.044-0.005,0.088,0.004,0.126,0.025h-0.258v0.051c0.021,0.049,0.012,0.02,0,0.078h-0.05
	c-0.011-0.067,0.019-0.035-0.051-0.052c0.011,0.058,0.023,0.028,0,0.077c-0.032,0.034-0.078,0.053-0.126,0.051
	c-0.043-0.032-0.096-0.05-0.15-0.051c0.012-0.024,0.012-0.053,0-0.077h-0.05V16.4h-0.025v0.025c0.082,0.021,0.039-0.013,0.076,0.051
	H27.95c-0.045-0.033-0.04-0.043-0.076-0.025c-0.136,0.086-0.293,0.13-0.453,0.128v-0.056l0.1,0.026
	c-0.019-0.022-0.032-0.028-0.05-0.051c-0.063,0.015-0.122,0.042-0.176,0.077h0.024c0.035,0.004,0.068,0.012,0.101,0.025H27.4
	c-0.079,0.055-0.154,0.115-0.226,0.18h-0.029v-0.026c-0.094-0.053-0.179-0.12-0.252-0.2c0.04,0.018,0.086,0.018,0.126,0
	c-0.076-0.049-0.137-0.118-0.176-0.199c-0.029,0.023-0.063,0.041-0.1,0.051c0.077,0.132,0.12,0.281,0.126,0.435h1.609
	c0.085,0.161,0.205,0.302,0.353,0.41c0.118,0.005,0.236,0.022,0.352,0.051l0.101,0.23c0.091-0.021,0.186-0.021,0.276,0
	c0.01,0.067-0.019,0.034,0.05,0.051v0.077h0.051c0.013,0.014,0.03,0.023,0.05,0.025V17.65c-0.05-0.012-0.088-0.051-0.101-0.1h0.051
	c0.059,0.047,0.12,0.088,0.176,0.129V17.65c0.097-0.031,0.199-0.04,0.3-0.025c0.071,0.059,0.159,0.094,0.252,0.1
	c-0.027,0-0.054,0.01-0.075,0.026h0.05c0.037,0.065-0.005,0.029,0.075,0.051v-0.022c-0.019-0.003-0.036-0.012-0.05-0.026h0.075
	c0.006,0.011,0.015,0.02,0.024,0.026l-0.05,0.076h0.025c0.013-0.02,0.029-0.037,0.05-0.051c0.085,0.102,0.187,0.189,0.3,0.256
	c-0.026,0.024-0.052,0.051-0.075,0.078c0.157,0.002,0.304,0.076,0.4,0.199c0.03-0.049,0-0.031,0.05-0.025
	c0.104,0.054,0.203,0.113,0.3,0.179c0.2,0.073,0.4-0.04,0.453,0.179c0.039,0.004,0.075,0.021,0.101,0.051v-0.07
	c-0.017-0.005-0.03-0.014-0.041-0.026h0.075v0.026H32.1l-0.024,0.051c0.129,0.028,0.238,0.113,0.3,0.23
	c0.021-0.037-0.021-0.063,0.05-0.052v0.026l0.151,0.051c-0.02,0.021-0.032,0.029-0.051,0.051c0.122,0.016,0.241,0.049,0.353,0.1
	c-0.015,0.05-0.041,0.022,0,0.052c0.013,0.021,0.029,0.038,0.05,0.051l-0.05-0.077h0.05c0.029,0.02,0.064,0.028,0.1,0.026
	L33.006,18.8h-0.075v0.23h-0.05v-0.714h0.05V18.6h0.05c0.048-0.023,0.029-0.01,0.101,0v0.129c-0.066,0.039-0.063,0.541,0.199,0.537
	c0,0,0.25,0.2,0.327,0.256c-0.033-0.065-0.07-0.088-0.1-0.153c0.084,0,0.079,0.017,0.075-0.128
	c-0.038-0.143-0.063-0.289-0.075-0.436h-0.05l-0.025,0.256h-0.023v-0.154c-0.047-0.193-0.047-0.396,0-0.59h0.024v0.026
	c0.028,0.083,0.037,0.17,0.025,0.257h0.05c0.048-0.024,0.029-0.011,0.1,0v0.127c-0.032,0.223-0.023,0.447,0.025,0.666
	c0.148,0.105,0.309,0.191,0.478,0.256v0.026c-0.046,0.005-0.089,0.022-0.126,0.052l0.027,0.073c0.023-0.012,0.052-0.012,0.075,0
	v-0.022c0.007-0.017-0.008-0.012,0.024-0.026v0.026h0.025v-0.026c-0.008-0.044-0.043-0.043,0.025-0.077
	c0.102,0.064,0.195,0.143,0.276,0.231h-0.024v0.026c0.164,0.09,0.302,0.223,0.399,0.383c0.014,0.015,0.022,0.032,0.025,0.052h-0.022
	c-0.153-0.201-0.341-0.374-0.553-0.513c0,0.084-0.055,0.063,0,0.101c0.019,0.031,0.044,0.058,0.075,0.077l-0.075-0.1h0.025v-0.026
	h0.05c0.044,0.081,0.114,0.144,0.2,0.179c-0.015,0.049-0.041,0.021,0,0.051c0.038,0.033,0.064,0.078,0.075,0.129h-0.024
	c-0.03-0.031-0.063-0.057-0.1-0.078v0.026c0.066,0.038,0.112,0.104,0.126,0.179c0.032-0.008,0.066-0.008,0.1,0v-0.024
	c-0.031-0.02-0.057-0.046-0.075-0.077h0.075c0.039,0.043,0.065,0.097,0.075,0.154c-0.02,0.023-0.018,0.053-0.05,0.1h0.05
	c0.012-0.021,0.029-0.038,0.05-0.051c0.005,0.037,0.022,0.072,0.05,0.1l-0.05-0.154h0.05c0.003,0.02,0.012,0.037,0.025,0.052
	l-0.025-0.077h0.076c0.018,0.064,0.026,0.133,0.025,0.199h-0.051c-0.002-0.019-0.011-0.037-0.024-0.051
	c-0.001,0.045-0.01,0.088-0.025,0.129c0.032,0.004,0.061,0.022,0.076,0.051c0.021-0.023,0.037-0.049,0.05-0.077
	c0.067,0.043,0.021,0.039,0.101,0.026c0.018,0.146,0.069,0.287,0.15,0.41c0.102,0.019,0.197,0.063,0.277,0.127
	c0.048,0.07,0.1,0.252,0.176,0.359c0.008-0.116,0-0.107,0.1-0.128c0.014,0.014,0.031,0.022,0.051,0.026
	c-0.003,0.035,0.006,0.07,0.024,0.1c0.02-0.041,0.057-0.069,0.101-0.077c-0.005,0.054,0.025,0.105,0.074,0.128l-0.05,0.18H35.9
	c0.005,0.138,0.021,0.274,0.051,0.41c-0.084,0.113-0.159,0.232-0.227,0.357l-0.226,0.179c-0.188,0.019-0.378-0.007-0.554-0.077
	c-0.032-0.017-0.072-0.09-0.1-0.1h-0.254c-0.166-0.082-0.272-0.25-0.277-0.436c-0.016-0.021-0.024-0.049-0.024-0.076h-0.377
	c-0.046,0.07-0.106,0.132-0.177,0.179c-0.02,0.054-0.045,0.104-0.074,0.154c-0.043,0.005-0.085,0.015-0.126,0.026
	c-0.143,0.263-0.31,0.512-0.5,0.742c-0.101,0.059-0.188,0.077-0.277,0.128c0.39,1.586-0.581,3.187-2.166,3.575
	c-0.656,0.162-1.349,0.093-1.96-0.193c-0.596-0.328-1.104-0.793-1.484-1.357c-0.107-0.189-0.2-0.386-0.276-0.59
	c-0.006-0.068-0.022-0.136-0.051-0.199h-1.387c-0.033,0.322-0.146,0.631-0.327,0.9c-0.423,0.818-1.223,1.375-2.138,1.485
	c-0.366,0.077-0.745,0.067-1.107-0.026c-1.117-0.297-1.961-1.217-2.161-2.355h-1.009v0.1h-0.1v-0.1h-1.133
	c-0.218,0.965-0.867,1.776-1.761,2.2c-0.642,0.261-1.354,0.288-2.014,0.077c-1.059-0.31-1.849-1.193-2.038-2.28H10.39
	c-0.382,1.154-1.316,2.041-2.49,2.362c-0.361,0.094-0.74,0.104-1.106,0.025C6.6,26.879,6.479,26.9,6.314,26.846
	c-0.794-0.255-1.438-0.845-1.761-1.613c-0.206-0.385-0.302-0.819-0.277-1.256H4.252c-0.158,0.289-0.434,0.495-0.755,0.564
	c-0.05-0.012-0.101-0.021-0.151-0.025c-0.098-0.049-0.184-0.117-0.252-0.201l-0.05,0.026c-0.437-0.511-1.012-0.887-1.409-1.434
	C1.507,22.816,1.39,22.714,1.283,22.6c0.011-0.041,0.011-0.086,0-0.127c-0.196-0.215-0.373-0.447-0.528-0.692V21.6
	c-0.06-0.082-0.127-0.16-0.2-0.23C0.244,21.027,0.05,20.596,0,20.136c0.131-0.101,0.221-0.247,0.252-0.409
	c-0.114-0.286-0.141-0.6-0.075-0.9c0.158-0.123,0.245-0.342,0.4-0.461c0.35-0.264,0.753-0.447,1.182-0.538
	c0.033-0.076-0.024-0.062,0.1-0.077c0.158,0.071,0.336,0.08,0.5,0.025L1.881,17.75h-0.02v-0.021h0.78v0.025
	c-0.06-0.008-0.121,0.001-0.176,0.026l0.377,0.05c-0.043-0.038-0.127-0.042-0.176-0.077c0.142,0.011,0.278,0.055,0.399,0.128
	c0.32,0.123,0.668,0.158,1.007,0.1c0.032,0.086,0.038,0.074,0.15,0.078V18.01c0,0,0.29,0.049,0.353,0.051
	c-0.005-0.056,0.013-0.111,0.05-0.153h0.027c0.026,0.016,0.006,0.056,0.025,0.026c0.047-0.057-0.048-0.076,0.075-0.101v0.051
	c0.021-0.132,0.2-0.024,0.276-0.077c-0.043,0.006-0.087-0.004-0.126-0.025h0.026c0.135-0.125,0.299-0.214,0.479-0.256
	c0,0.1-0.041,0.061,0.024,0.1c0.059-0.041,0.13-0.059,0.2-0.051l-0.025,0.051h0.026c0.022-0.008,0.317,0,0.453,0v0.025
	c-0.02,0.004-0.037,0.013-0.05,0.026h0.1c0.077-0.1,0.11-0.028,0.252-0.077c0.132-0.026,0.269-0.026,0.4,0
	c0.293-0.019,0.672,0,1.082,0v0.026c-0.032,0.004-0.06,0.022-0.075,0.051h0.128V17.65H7.95C7.931,17.629,7.918,17.622,7.9,17.6
	C8.08,17.65,8.266,17.684,8.453,17.7c-0.073-0.003-0.144-0.03-0.2-0.077c0.282,0,0.466-0.018,0.729-0.025v0.025
	c-0.062,0.033-0.017-0.012-0.05,0.051h0.101c0.047-0.021,0.019-0.012,0.074,0v-0.049c-0.019-0.003-0.036-0.012-0.05-0.025
	c0.179-0.033,0.354-0.076,0.528-0.129c0.1-0.014,0.199-0.023,0.3-0.025c0,0.027,0.009,0.055,0.025,0.076v-0.1
	c0.146-0.063,0.314-0.054,0.452,0.026c-0.011-0.036-0.027-0.069-0.05-0.101h0.076c0.088,0.031,0.412-0.021,0.553,0.026
	c0-0.101-0.029-0.063,0.075-0.077c0.047,0.025,0.099,0.043,0.151,0.051c0.01-0.064-0.016-0.039,0.075-0.051
	c0.1,0.16,0.199-0.02,0.352,0.051c0.139,0.064,0.333,0.029,0.553,0.101v-0.027c0.054-0.03,0.116-0.04,0.177-0.026
	c0.013-0.014,0.03-0.022,0.05-0.025v-4.943c0.059-0.441,0.066-0.888,0.024-1.332V7.585h0.051v7.531
	c0.046,0.21,0.055,0.427,0.024,0.64v1.614c0.25,0.038,0.503,0.056,0.755,0.051c-0.012,0.024-0.012,0.053,0,0.077
	c0.265-0.049,0.532-0.083,0.8-0.1c0.029-0.024,0.063-0.042,0.101-0.051v0.025h0.024v-0.029l-0.024-0.025h0.05
	c0.043-0.002,0.086-0.011,0.126-0.026c-0.035,0.003-0.07-0.007-0.1-0.026h0.05c0.033-0.033,0.078-0.052,0.126-0.051v0.026
	c-0.02,0.003-0.037,0.012-0.05,0.026h0.05c0.102-0.008,0.202-0.024,0.3-0.052c-0.019-0.003-0.036-0.012-0.05-0.026h0.05
	c0.098-0.035,0.198-0.061,0.3-0.076c-0.027,0-0.054-0.01-0.074-0.026c0.067,0.012,0.135,0.028,0.199,0.052v-0.025h0.025
	c-0.02-0.022-0.032-0.029-0.05-0.051c0.127,0.004,0.253,0.021,0.377,0.051c0.018,0.031,0.043,0.059,0.075,0.076
	c-0.009-0.072-0.027-0.053,0-0.1c0.065,0.066,0.063-0.015,0.1,0.026l0.05,0.026c-0.019,0.021-0.032,0.028-0.05,0.051
	c0.142,0.027,0.284,0.044,0.428,0.051c0.045-0.065,0.105-0.118,0.176-0.154v0.051c-0.019,0.003-0.036,0.012-0.05,0.026h0.05
	c0.068-0.048,0.146-0.081,0.227-0.101c0.07-0.041,0.087-0.188,0.151-0.23h0.226c0.02-0.135,0.285-0.6,0.252-0.641v-0.03
	c-0.055,0.013-0.05,0.028-0.1,0c-0.014-0.015-0.022-0.032-0.025-0.051c0.063-0.015,0.113-0.064,0.126-0.128h-0.012
	c-0.052,0.114-0.186,0.165-0.3,0.114c-0.01-0.005-0.019-0.009-0.027-0.015c-0.002-0.027-0.011-0.054-0.025-0.077
	c-0.047,0-0.022,0.024-0.05-0.026c-0.029-0.029-0.046-0.072-0.075-0.1c0.021-0.031,0.038-0.064,0.05-0.1l-0.074,0.025
	c-0.02-0.232,0.033-0.464,0.15-0.666h0.025c-0.003,0.035,0.006,0.07,0.024,0.1v-0.128c-0.062-0.033-0.017,0.011-0.05-0.051
	c0.102-0.094,0.194-0.197,0.277-0.307c-0.069-0.041-0.021,0-0.025-0.077c0.04-0.02,0.067-0.057,0.075-0.1
	c0.029,0.03,0.063,0.056,0.101,0.077c-0.014-0.042-0.022-0.085-0.025-0.128c0.059-0.004,0.113-0.032,0.151-0.077
	c-0.039,0.024-0.088,0.024-0.126,0h0.05c0.068-0.145,0.184-0.262,0.327-0.333c0.043-0.004,0.087,0.005,0.126,0.026v-0.1
	c0.224-0.16,0.482-0.265,0.755-0.307c-0.004-0.086,0.047-0.166,0.126-0.2c0.009-2.544,0.017-5.088,0.024-7.633V4.434
	c-0.015-0.265-0.006-0.531,0.025-0.794C18.575,3.426,18.583,3.212,18.616,3C18.633,6.509,18.65,10.018,18.667,13.527z
	 M22.516,13.627c0.082,0.021,0.039-0.013,0.076,0.051h-0.076V13.63V13.627z M26.189,13.727c0.043,0.023,0.032,0.023,0.075,0H26.189z
	 M23.975,13.753v0.026H23.95C23.9,13.8,24,13.809,24,13.809c-0.003-0.02-0.012-0.037-0.025-0.051V13.753z M18.868,13.779
	c0.08,0.06,0.187,0.07,0.276,0.026c-0.091-0.017-0.184-0.024-0.276-0.022V13.779z M26.968,13.779c0.043,0.023,0.032,0.023,0.075,0
	H26.968L26.968,13.779z M19.268,13.805c0.014,0.014,0.031,0.023,0.05,0.026c-0.013-0.012-0.03-0.02-0.048-0.022L19.268,13.805z
	 M27.668,13.984c0.042,0.029,0.026,0.045,0.05,0H27.668z M27.9,14.142c0.001-0.028-0.008-0.055-0.024-0.077
	c-0.02,0.017-0.057,0.034-0.075,0.051h0.025C27.847,14.132,27.873,14.142,27.9,14.142z M27.95,14.142v0.051h0.024
	C27.973,14.174,27.964,14.156,27.95,14.142z M17.61,14.168l-0.024,0.051C17.629,14.183,17.61,14.168,17.61,14.168z M28,14.168v0.051
	h0.024v-0.051H28z M28.05,14.194c0.027,0.027,0.062,0.045,0.1,0.051C28.123,14.217,28.088,14.199,28.05,14.194L28.05,14.194z
	 M28.276,14.194h0.051v0.026C28.307,14.217,28.29,14.207,28.276,14.194L28.276,14.194z M17.433,14.22
	c0.008,0.037,0.025,0.072,0.05,0.1V14.3h0.025c0.025-0.026-0.025-0.025-0.025-0.026C17.452,14.207,17.5,14.253,17.433,14.22
	L17.433,14.22z M28.151,14.27c0.014,0.014,0.031,0.023,0.051,0.026C28.188,14.282,28.17,14.273,28.151,14.27z M17.359,14.3v0.051
	h0.025C17.381,14.332,17.372,14.314,17.359,14.3z M28.428,14.3c0.016,0.028,0.043,0.047,0.075,0.051v-0.03L28.428,14.3z
	 M17.409,14.351V14.4h0.024c-0.002-0.02-0.011-0.039-0.024-0.053V14.351z M28.609,14.377c-0.043-0.005-0.088,0.004-0.126,0.026
	c0.046,0.005,0.09,0.022,0.126,0.051v-0.081V14.377z M17.66,14.4l-0.025,0.051C17.679,14.414,17.66,14.4,17.66,14.4z M28.251,14.4
	c0.014,0.014,0.03,0.023,0.05,0.026C28.287,14.413,28.271,14.403,28.251,14.4L28.251,14.4z M17.308,14.477
	c0,0.028,0.009,0.055,0.025,0.077v-0.079h-0.025V14.477z M17.408,14.503c0.013,0.014,0.03,0.023,0.05,0.026
	c-0.013-0.015-0.03-0.025-0.049-0.029L17.408,14.503z M17.208,14.529c0,0.069-0.033,0.041,0.05,0.077v-0.054L17.208,14.529z
	 M28.655,14.529c-0.008,0.035,0.036,0.037,0.051,0.051c0.017-0.03-0.044-0.046-0.052-0.054L28.655,14.529z M17.561,14.58
	l-0.05,0.154h0.025v-0.029c0.041-0.027,0.053-0.083,0.026-0.125c-0.001-0.001-0.002-0.002-0.003-0.003L17.561,14.58z M17.184,14.631
	c0.014,0.014,0.031,0.023,0.05,0.026c-0.014-0.015-0.031-0.025-0.052-0.028L17.184,14.631z M17.058,14.708
	c0.037,0.033,0.08,0.059,0.126,0.077c-0.033-0.039-0.077-0.067-0.127-0.08L17.058,14.708z M17.033,14.759v0.051h0.024v-0.053h-0.027
	L17.033,14.759z M29.133,14.759c-0.008,0.066,0.026,0.052,0.1,0H29.133z M17.485,14.785v0.051h0.025v-0.054h-0.026L17.485,14.785z
	 M17.233,14.811v0.026h-0.024c-0.048,0.02,0.05,0.026,0.05,0.026v-0.029h0.025c-0.014-0.014-0.031-0.023-0.051-0.026V14.811z
	 M17.007,14.837c-0.008,0.035,0.036,0.037,0.05,0.051c0.018-0.03-0.044-0.047-0.051-0.054L17.007,14.837z M16.881,14.914
	c0.043,0.023,0.032,0.023,0.075,0H16.881z M17.434,14.914c0.014,0.014,0.031,0.023,0.05,0.026c-0.013-0.015-0.03-0.026-0.05-0.03
	V14.914z M16.956,14.965c-0.038,0.02-0.071,0.046-0.101,0.077h0.05c0.026,0.006,0.052,0.015,0.075,0.026l-0.024-0.077
	c0.027,0,0.054-0.009,0.074-0.026H16.956z M17.082,14.965c0.013,0.014,0.03,0.023,0.05,0.026c-0.013-0.015-0.03-0.025-0.05-0.029
	V14.965z M17.282,15.065v0.051h0.024v-0.052L17.282,15.065L17.282,15.065z M31.898,15.065v0.051H32
	c0.006-0.011,0.015-0.02,0.024-0.026v-0.026H31.9L31.898,15.065z M32.098,15.065v0.051h0.227V15.09
	c-0.073-0.021-0.148-0.029-0.225-0.026L32.098,15.065z M33.733,15.065v0.051h0.025V15.09h0.025
	c-0.013-0.013-0.029-0.022-0.048-0.026L33.733,15.065z M34.11,15.065c0.011,0.037,0.039,0.066,0.075,0.077v-0.027l0.05,0.026v-0.026
	l0.051-0.026v-0.025h-0.173L34.11,15.065z M30.991,15.091c0.013,0.014,0.03,0.023,0.05,0.026c-0.013-0.014-0.029-0.023-0.047-0.027
	L30.991,15.091z M31.142,15.091c0.014,0.014,0.031,0.023,0.05,0.026c-0.012-0.014-0.028-0.023-0.047-0.027L31.142,15.091z
	 M31.394,15.091c0.046,0.032,0.105,0.032,0.151,0H31.4H31.394z M32.375,15.091c0.054,0.034,0.122,0.034,0.176,0h-0.174H32.375z
	 M32.702,15.091v0.051c0.031-0.013,0.067-0.013,0.1,0c-0.02-0.037-0.061-0.058-0.102-0.052L32.702,15.091z M32.979,15.091v0.051
	h0.05v-0.027L32.979,15.091z M34.639,15.091c0.01,0.067,0.04,0.055,0.176,0.051c0.006-0.011,0.015-0.02,0.025-0.026V15.09
	c-0.066,0.006-0.132,0.006-0.198,0L34.639,15.091z M16.828,15.117c0.013,0.014,0.03,0.022,0.05,0.026
	c-0.013-0.014-0.029-0.024-0.048-0.028L16.828,15.117z M35.922,15.143c0.028,0.026,0.071,0.026,0.1,0H35.922z M37.255,15.143
	c0.014,0.014,0.031,0.023,0.05,0.026c-0.013-0.014-0.028-0.024-0.047-0.028L37.255,15.143z M37.33,15.143
	c0.045,0.028,0.099,0.038,0.15,0.026h0.025v-0.028h-0.173L37.33,15.143z M38.009,15.143c0.027,0,0.054,0.009,0.075,0.026h-0.071
	v-0.028L38.009,15.143z M17.154,15.169c-0.021,0.059-0.026,0.046-0.1,0.077v0.026h0.05v-0.029c0.025-0.025,0.025,0.025,0.025,0.026
	c0.021-0.019,0.028-0.032,0.05-0.051c-0.002-0.019-0.01-0.037-0.021-0.051L17.154,15.169z M34.311,15.169
	c0.014,0.014,0.031,0.023,0.05,0.026c-0.012-0.014-0.027-0.023-0.046-0.028L34.311,15.169z M34.89,15.169
	c0.014,0.014,0.031,0.023,0.05,0.026c-0.012-0.014-0.028-0.023-0.047-0.028L34.89,15.169z M17.28,15.195
	c-0.026,0.038-0.044,0.082-0.05,0.128h0.025v-0.054c0.045-0.048,0.045-0.02,0.028-0.077L17.28,15.195z M16.802,15.221
	c0.042,0.029,0.027,0.045,0.05,0H16.802z M16.902,15.221c0.011,0.065-0.015,0.04,0.075,0.051v-0.029L16.902,15.221z M39.342,15.247
	c-0.024,0.109-0.032,0.221-0.025,0.333h0.051c0.139,0.038,0.284,0.047,0.428,0.025c0.024-0.109,0.032-0.221,0.024-0.333h-0.05
	c-0.138-0.039-0.282-0.049-0.424-0.03L39.342,15.247z M39.166,15.273l-0.277,0.026c-0.037,0.06-0.054,0.13-0.05,0.2
	c0.044,0.032,0.097,0.05,0.151,0.051c0.044,0.028,0.099,0.038,0.15,0.026c0.032-0.099,0.042-0.204,0.029-0.307L39.166,15.273z
	 M16.7,15.346h0.1c-0.005,0.044,0.004,0.089,0.025,0.128v-0.128l-0.076-0.026v-0.025c-0.025-0.025-0.025,0.025-0.025,0.026
	c-0.041,0.028-0.062,0.079-0.05,0.128H16.7v-0.1V15.346z M16.9,15.32l-0.024,0.051c0.049-0.035,0.03-0.051,0.03-0.051H16.9z
	 M16.95,15.346c0,0.043,0.009,0.087,0.024,0.128c0.044-0.008,0.081-0.037,0.101-0.077c0.013-0.014,0.021-0.032,0.024-0.051h-0.018
	c-0.02,0.045-0.056,0.081-0.101,0.1v-0.1h-0.025H16.95z M17.15,15.346c-0.011,0.042-0.019,0.084-0.024,0.128h0.024l0.051-0.077
	c-0.063,0.003,0.005,0.003-0.043-0.051H17.15z M17.25,15.346V15.4h0.024v-0.029H17.3c-0.012-0.012-0.026-0.021-0.042-0.025H17.25z
	 M16.873,15.397l-0.025,0.1h0.025v-0.023C16.9,15.43,16.9,15.441,16.881,15.4L16.873,15.397z M16.621,15.497
	c-0.013,0.078-0.051,0.08-0.025,0.101c0.043,0.038,0.032-0.031,0.075,0.051c-0.031,0.039-0.017,0.013,0,0.051
	c0.019-0.018,0.056-0.034,0.075-0.051c-0.052-0.039-0.092-0.09-0.117-0.148L16.621,15.497z M16.747,15.497v0.051h0.083v-0.022
	L16.747,15.497z M16.999,15.497c-0.032,0.019-0.058,0.045-0.075,0.077c-0.033,0.033-0.052,0.08-0.05,0.128h0.024V15.68
	c0.048-0.055,0.098-0.106,0.151-0.154c-0.012-0.013-0.027-0.021-0.044-0.025L16.999,15.497z M17.175,15.497
	c-0.046,0.064-0.088,0.131-0.126,0.2h-0.019c0.009-0.073,0.027-0.053,0-0.1v0.025c-0.026,0.027-0.044,0.063-0.05,0.1
	c0.079,0,0.021,0.006,0.075,0.077c0.055-0.094,0.097-0.194,0.126-0.3L17.175,15.497z M16.775,15.598
	c0.042,0.028,0.027,0.045,0.051,0H16.78H16.775z M33.354,15.674v0.057h0.025V15.68h-0.021L33.354,15.674z M33.832,15.674v0.057
	h0.024V15.68h-0.02L33.832,15.674z M37.153,15.674c0.014,0.014,0.031,0.023,0.051,0.026c-0.014-0.012-0.029-0.019-0.046-0.021
	L37.153,15.674z M37.958,15.674c0.014,0.014,0.03,0.023,0.05,0.026c-0.013-0.012-0.029-0.019-0.046-0.021L37.958,15.674z
	 M16.83,15.7v0.03h-0.025c-0.048,0.02,0.05,0.025,0.05,0.025C16.854,15.734,16.845,15.715,16.83,15.7z M31.119,15.7
	c-0.001,0.027,0.008,0.055,0.024,0.077V15.7H31.119L31.119,15.7z M32.1,15.7v0.051h0.025V15.7H32.1z M37.861,15.7
	c-0.002,0.035,0.007,0.069,0.025,0.1C37.889,15.766,37.88,15.73,37.861,15.7L37.861,15.7z M16.7,15.73v0.051h0.029V15.73H16.7z
	 M32,15.73c-0.014,0.014-0.031,0.022-0.05,0.025v0.026H32l0.024-0.052H32L32,15.73z M33.535,15.73
	c0.013,0.014,0.03,0.022,0.05,0.025C33.572,15.742,33.554,15.732,33.535,15.73z M34.818,15.73c0,0.027,0.009,0.055,0.025,0.076
	V15.73H34.818z M35.318,15.73c0.003,0.067-0.006,0.135-0.024,0.199h0.024v-0.021c0.034-0.055,0.035-0.124,0.003-0.179H35.318z
	 M35.771,15.73c0.043,0.022,0.032,0.022,0.075,0h-0.072H35.771z M37.18,15.73l-0.025,0.051c0.046-0.036,0.027-0.051,0.027-0.051
	H37.18z M16.88,15.756v0.051h0.024v-0.051H16.88L16.88,15.756z M32.28,15.756c0.004,0.032,0.022,0.061,0.051,0.077
	c-0.014-0.028-0.031-0.055-0.054-0.077H32.28z M33.638,15.756c0.014,0.014,0.031,0.023,0.05,0.026
	c-0.014-0.015-0.032-0.024-0.053-0.026H33.638z M34.138,15.756c-0.021,0.018-0.079,0.034-0.1,0.051h0.126
	C34.161,15.787,34.153,15.77,34.138,15.756z M34.238,15.756l-0.024,0.077h0.05C34.264,15.805,34.255,15.778,34.238,15.756
	L34.238,15.756z M35.395,15.756c0.014,0.014,0.031,0.023,0.05,0.026c-0.012-0.013-0.027-0.022-0.045-0.026H35.395z M36.477,15.756
	c0.014,0.014,0.031,0.023,0.05,0.026C36.514,15.769,36.496,15.76,36.477,15.756L36.477,15.756z M36.577,15.756
	c0.013,0.014,0.03,0.023,0.05,0.026c-0.013-0.014-0.03-0.022-0.048-0.026H36.577z M36.753,15.756c0.043,0.023,0.032,0.023,0.075,0
	h-0.073H36.753z M32.174,15.782c0.014,0.014,0.031,0.022,0.05,0.026c-0.013-0.015-0.029-0.023-0.048-0.027L32.174,15.782z
	 M32.374,15.782v0.026h-0.022c-0.048,0.02,0.05,0.025,0.05,0.025c-0.002-0.02-0.011-0.039-0.024-0.053L32.374,15.782z
	 M32.474,15.782l-0.024,0.077H32.5c0.001-0.028-0.007-0.056-0.022-0.078L32.474,15.782z M33.732,15.782v0.051h0.076v-0.026
	L33.732,15.782z M33.908,15.782c0.043,0.022,0.031,0.022,0.074,0h-0.07H33.908z M35.116,15.782c-0.009,0.032-0.009,0.067,0,0.1
	h0.024c0.004-0.034-0.004-0.07-0.021-0.101L35.116,15.782z M35.871,15.782c0.013,0.014,0.03,0.022,0.05,0.026
	c-0.013-0.014-0.029-0.023-0.047-0.027L35.871,15.782z M36.978,15.782c0,0.027,0.009,0.055,0.025,0.077
	c0.001-0.028-0.007-0.056-0.022-0.078L36.978,15.782z M37.078,15.782l-0.025,0.077h0.05c0.002-0.027-0.006-0.055-0.021-0.078
	L37.078,15.782z M37.908,15.782c0.042,0.028,0.026,0.045,0.05,0H37.908z M33.355,15.809c0.043,0.022,0.032,0.022,0.075,0h-0.071
	H33.355z M33.455,15.809v0.051h0.024v-0.053h-0.021L33.455,15.809z M34.335,15.809c0.028,0.025,0.071,0.025,0.1,0H34.335z
	 M35.014,15.809l-0.025,0.076h0.051c0.002-0.027-0.005-0.055-0.021-0.078L35.014,15.809z M35.492,15.809v0.025h-0.021
	c-0.048,0.02,0.05,0.025,0.05,0.025c-0.001-0.02-0.009-0.037-0.021-0.053L35.492,15.809z M36.75,15.809
	c0.042,0.028,0.026,0.045,0.05,0H36.75z M16.926,15.834l-0.025,0.077h0.025v-0.027c0.036-0.04,0.021-0.013,0.005-0.052
	L16.926,15.834z M29.857,15.834l-0.024,0.051c0.048-0.037,0.029-0.053,0.029-0.053L29.857,15.834z M32.65,15.834
	c0.014,0.014,0.031,0.023,0.051,0.025c-0.013-0.014-0.028-0.023-0.047-0.027L32.65,15.834z M36.499,15.834
	c0.027,0,0.054,0.01,0.075,0.025h-0.021v0.026c-0.022-0.013-0.041-0.031-0.054-0.054L36.499,15.834z M37.153,15.834
	c0.014,0.014,0.031,0.023,0.051,0.025c-0.013-0.014-0.028-0.023-0.046-0.027L37.153,15.834z M37.228,15.834
	c0.042,0.029,0.027,0.045,0.05,0H37.228z M31.014,15.859c0.014,0.014,0.031,0.023,0.05,0.026c-0.012-0.013-0.027-0.022-0.045-0.028
	L31.014,15.859z M35.614,15.859h0.101v0.026H35.7v0.026c-0.069-0.033-0.048,0.02-0.077-0.055L35.614,15.859z M31.262,15.886
	c0.014,0.015,0.031,0.022,0.05,0.026c-0.011-0.014-0.025-0.023-0.042-0.028L31.262,15.886z M32.344,15.886
	c0.014,0.015,0.031,0.022,0.05,0.026c-0.011-0.014-0.025-0.023-0.042-0.028L32.344,15.886z M33.828,15.886
	c0.026,0,0.054,0.009,0.074,0.026c-0.024-0.002-0.047-0.012-0.065-0.028L33.828,15.886z M33.928,15.886
	c0.027,0,0.054,0.009,0.075,0.026c-0.024-0.002-0.048-0.012-0.066-0.028L33.928,15.886z M37.576,15.886h0.05
	c-0.006,0.011-0.015,0.021-0.025,0.026v0.025c-0.011-0.016-0.017-0.034-0.016-0.054L37.576,15.886z M16.976,16.064v-0.155h-0.02
	v0.051l-0.051-0.026c0.003,0.057-0.015,0.111-0.05,0.154h0.025c0.04-0.07-0.002-0.023,0.1-0.025L16.976,16.064z M35.416,15.911
	c0.013,0.014,0.021,0.032,0.024,0.051h-0.02v-0.053L35.416,15.911z M36.271,15.911h0.05v0.026h-0.05v-0.028V15.911z M32,15.936
	c0.024,0.028,0.024,0.07,0,0.1V15.936z M32.05,15.936h0.075c-0.003,0.066,0.006,0.135,0.024,0.199h-0.125v-0.021
	C32.049,16.058,32.058,15.996,32.05,15.936z M32.15,15.936c0.137,0,0.182,0.015,0.2,0.076h-0.2V15.936z M35.043,15.936
	c0.014,0.014,0.031,0.022,0.05,0.025C35.079,15.947,35.063,15.938,35.043,15.936L35.043,15.936z M37.307,15.936
	c0.014,0.014,0.031,0.022,0.05,0.025C37.344,15.947,37.326,15.938,37.307,15.936L37.307,15.936z M16.807,15.961
	c-0.008,0.033-0.008,0.067,0,0.1h0.023v-0.049h-0.025c-0.01-0.05,0.039-0.019,0-0.051H16.807z M31.096,15.961l0.025,0.077h0.024
	c-0.003-0.032-0.022-0.062-0.052-0.077H31.096z M32.178,15.961c0.014,0.014,0.031,0.023,0.05,0.025
	c-0.014-0.014-0.032-0.022-0.052-0.025H32.178z M32.578,15.961v0.18h-0.024v-0.026c-0.075,0.015-0.146,0.041-0.176-0.026H32.5v-0.1
	h-0.05c0.012,0.023,0.012,0.053,0,0.076c-0.029-0.029-0.055-0.063-0.075-0.1h0.2L32.578,15.961z M31.194,15.986
	c0.014,0.015,0.031,0.023,0.051,0.027C31.233,16,31.217,15.99,31.2,15.986H31.194z M31.269,15.986
	c0.014,0.015,0.031,0.023,0.05,0.027C31.306,15.999,31.288,15.99,31.269,15.986L31.269,15.986z M32.527,15.986v0.052h0.025v-0.052
	H32.527L32.527,15.986z M33.027,15.986h0.051v0.101h-0.051c0.011-0.032,0.012-0.067,0.004-0.101H33.027z M34.562,15.986h0.277v0.027
	c-0.033,0.025-0.06,0.061-0.075,0.1c0.082,0.021,0.038-0.014,0.075,0.051h-0.072c-0.012-0.053-0.028-0.104-0.05-0.154
	c-0.037,0.065,0.005,0.029-0.075,0.051v0.08h-0.076v-0.154H34.562z M34.862,15.986c0.01,0.009,0.051,0.014,0.025,0.052
	c-0.021-0.013-0.072-0.046-0.019-0.052H34.862z M32.07,16.014v0.051h0.03c-0.002-0.02-0.011-0.039-0.024-0.053L32.07,16.014z
	 M34.636,16.014c0.014,0.014,0.031,0.021,0.05,0.025c-0.012-0.014-0.026-0.022-0.044-0.027L34.636,16.014z M29.378,16.039
	c0.022,0.021,0.048,0.038,0.075,0.051c-0.014-0.027-0.039-0.047-0.069-0.053L29.378,16.039z M31.265,16.039v0.051H31.3
	c-0.004-0.021-0.014-0.039-0.03-0.053L31.265,16.039z M32.221,16.039c0.075,0.034,0.062-0.025,0.076,0.1h-0.05v-0.05
	c-0.013-0.015-0.02-0.032-0.021-0.052L32.221,16.039z M32.321,16.039c0.031,0.037,0.031,0.091,0,0.128v-0.13V16.039z M34.384,16.039
	c0.082,0.021,0.039-0.014,0.076,0.051H34.44v-0.027c-0.035-0.004,0.011,0.021-0.024,0.026c-0.016,0.05-0.025-0.052-0.025-0.052
	L34.384,16.039z M37.684,16.039l0.076,0.025v0.026h-0.074v-0.054L37.684,16.039z M31.093,16.064c0.014,0.014,0.031,0.023,0.05,0.026
	c-0.013-0.015-0.03-0.024-0.049-0.028L31.093,16.064z M32.15,16.064H32.2v0.026c-0.02-0.003-0.037-0.013-0.05-0.028L32.15,16.064z
	 M34.59,16.064v0.052h0.025c-0.002-0.021-0.011-0.038-0.024-0.054L34.59,16.064z M34.665,16.091
	c0.039,0.033,0.065,0.078,0.075,0.128c-0.077,0.034-0.014,0.008-0.051,0.077h-0.022v-0.2L34.665,16.091z M36.074,16.091
	c0.059,0.026,0.041,0,0.1,0.026v0.023h-0.1v-0.052V16.091z M33.055,16.117h0.05v0.051c-0.066-0.021-0.044,0.016-0.048-0.054
	L33.055,16.117z M37.432,16.117c0.017,0.049-0.005,0.104-0.05,0.128v-0.101c0.021-0.003,0.039-0.014,0.052-0.03L37.432,16.117z
	 M28.5,16.141c0.014,0.014,0.03,0.022,0.05,0.025C28.536,16.152,28.519,16.143,28.5,16.141z M28.7,16.141
	c0.036,0.029,0.089,0.029,0.126,0H28.7z M37.279,16.141h0.051c0.011,0.077,0.002,0.156-0.025,0.229
	c0.002-0.077-0.005-0.154-0.021-0.229H37.279z M28.625,16.166c0.014,0.014,0.03,0.023,0.05,0.025
	c-0.013-0.013-0.028-0.022-0.046-0.026L28.625,16.166z M32.046,16.166H32.1v0.2h-0.05c0.021-0.065,0.021-0.136,0-0.201
	L32.046,16.166z M34.486,16.166h0.051c-0.013,0.035-0.029,0.068-0.051,0.1v-0.023c-0.013-0.042,0.001-0.003,0.006-0.077
	L34.486,16.166z M36.121,16.166h0.05v0.025c-0.018-0.004-0.033-0.013-0.045-0.026L36.121,16.166z M32.297,16.191h0.05v0.052H32.3
	v-0.052H32.297z M34.762,16.191h0.1v0.026h-0.019v0.026c-0.067-0.032-0.043,0.021-0.076-0.053H34.762z M35.062,16.191h0.05v0.026
	c-0.017-0.005-0.031-0.014-0.043-0.026H35.062z M36.068,16.191c0.058,0.062,0.027,0.01,0.025,0.101h-0.017v-0.101H36.068z
	 M31.213,16.243c0.01,0.061,0.001,0.123-0.025,0.179H31.17v-0.154c0.019-0.002,0.036-0.012,0.05-0.025L31.213,16.243z
	 M34.735,16.243c0.031,0.04,0.017,0.013,0,0.051c-0.031,0.063,0.012,0.017-0.05,0.051c0.013-0.037,0.032-0.071,0.058-0.103
	L34.735,16.243z M37.402,16.27c0.014,0.014,0.022,0.031,0.025,0.051h-0.018v-0.053L37.402,16.27z M26.886,16.295v0.051h0.025v-0.027
	h0.024c-0.012-0.012-0.026-0.02-0.043-0.024L26.886,16.295z M32.27,16.295h0.05v0.051h-0.05V16.295L32.27,16.295z M28.17,16.32
	l-0.025,0.052c0.05-0.037,0.031-0.054,0.031-0.054L28.17,16.32z M28.22,16.32L28.2,16.4h0.05c0.001-0.029-0.007-0.059-0.024-0.082
	L28.22,16.32z M34.66,16.348c0.027,0.056,0.027,0.122,0,0.178h-0.019v-0.053c0.021-0.039,0.029-0.084,0.025-0.128L34.66,16.348z
	 M27.742,16.398c0.015,0.027,0.043,0.047,0.074,0.051l0.025-0.051c-0.03,0.012-0.063,0.012-0.094,0.002L27.742,16.398z
	 M32.042,16.398H32.1v0.051h-0.024L32.042,16.398z M27.69,16.449v0.025h-0.017c-0.048,0.021,0.05,0.026,0.05,0.026
	c0.006,0.011,0.015,0.02,0.025,0.026v-0.055L27.69,16.449z M28,16.473h0.05V16.5H28V16.473z M26.868,16.499
	c0.013,0.014,0.021,0.032,0.024,0.051h-0.024V16.499L26.868,16.499z M28.076,16.499h0.05v0.026h-0.05V16.499L28.076,16.499z
	 M31.095,16.525c0.025,0.028,0.025,0.07,0,0.1V16.525z M34.667,16.551h0.05v0.026C34.698,16.574,34.68,16.564,34.667,16.551
	L34.667,16.551z M34.642,16.602c0.027,0,0.054,0.01,0.075,0.026h-0.05c-0.017-0.009-0.013,0.006-0.025-0.028V16.602z M27.17,16.628
	c0.014,0.014,0.031,0.022,0.05,0.026C27.206,16.64,27.189,16.631,27.17,16.628L27.17,16.628z M15.044,17.166
	c0.042,0.029,0.026,0.045,0.05,0H15.044z M14.792,17.191v0.026h-0.025c-0.048,0.021,0.05,0.026,0.05,0.026v-0.028h0.025
	c-0.014-0.014-0.03-0.022-0.049-0.026L14.792,17.191z M14.566,17.218h0.051v0.026c-0.02-0.004-0.037-0.014-0.051-0.028V17.218z
	 M11.019,17.27h0.05v0.025c-0.019-0.003-0.037-0.014-0.05-0.027V17.27z M10.819,17.295c0.027,0,0.054,0.01,0.075,0.025
	c-0.027,0-0.055-0.01-0.076-0.028L10.819,17.295z M10.593,17.346c0.04,0.021,0.082,0.039,0.126,0.051v-0.053h-0.128L10.593,17.346z
	 M10.493,17.372c0.013,0.014,0.03,0.022,0.05,0.026c-0.014-0.016-0.032-0.025-0.052-0.029L10.493,17.372z M11.122,17.372
	l-0.025,0.101h0.023c0.039-0.031,0.081-0.057,0.126-0.078c-0.044,0-0.086-0.01-0.126-0.025L11.122,17.372z M10.392,17.398v0.051
	h0.025c-0.003-0.021-0.012-0.04-0.027-0.055L10.392,17.398z M10.568,17.398c0.043,0.022,0.032,0.022,0.075,0h-0.077H10.568z
	 M10.92,17.398c-0.049,0.021-0.1,0.038-0.151,0.051v0.025h0.075c0.05-0.029,0.045-0.015,0.1,0c0.001-0.028-0.008-0.057-0.025-0.08
	L10.92,17.398z M10.97,17.398v0.051h0.025c-0.003-0.021-0.012-0.04-0.026-0.055L10.97,17.398z M11.398,17.398
	c-0.013,0.014-0.03,0.022-0.05,0.025v0.026h0.075c-0.001-0.021-0.009-0.04-0.023-0.056L11.398,17.398z M10.039,17.424
	c0.027,0.026,0.071,0.026,0.1,0H10.039z M10.165,17.424c0,0.081-0.006,0.021-0.076,0.077c0.021,0.031,0.037,0.065,0.05,0.101
	c0.052-0.006,0.104,0.003,0.151,0.025V17.6c-0.014-0.014-0.022-0.031-0.025-0.051c-0.095,0-0.088,0.012-0.126-0.051
	c0.079,0.002,0.082-0.021,0.025-0.077L10.165,17.424z M11.448,17.424c0.013,0.014,0.03,0.023,0.05,0.026
	c-0.014-0.015-0.031-0.025-0.052-0.029L11.448,17.424z M11.574,17.424v0.051H11.6v-0.029h0.025
	c-0.015-0.014-0.033-0.021-0.054-0.024L11.574,17.424z M12.555,17.424c0.043,0.023,0.032,0.023,0.075,0H12.555L12.555,17.424z
	 M10.568,17.45c-0.013,0.014-0.03,0.022-0.05,0.026V17.5h0.101v-0.027c0.049-0.012,0.018,0.038,0.05,0h0.024v-0.027h-0.127
	L10.568,17.45z M12.052,17.45c0.014,0.014,0.031,0.022,0.05,0.026c-0.014-0.016-0.031-0.027-0.052-0.031L12.052,17.45z
	 M11.926,17.477c-0.008,0.035,0.036,0.037,0.05,0.051c0.017-0.027-0.044-0.049-0.051-0.055L11.926,17.477z M10.241,17.502
	c0.013,0.014,0.03,0.023,0.05,0.025c-0.014-0.014-0.032-0.023-0.053-0.027L10.241,17.502z M10.92,17.502
	c0.043,0.023,0.032,0.023,0.075,0h-0.077H10.92z M9.763,17.527c0.043,0.023,0.032,0.023,0.075,0H9.761H9.763z M10.518,17.527
	c0.014,0.015,0.031,0.023,0.05,0.027c-0.013-0.017-0.031-0.027-0.052-0.031L10.518,17.527z M10.669,17.527
	c0.043,0.023,0.032,0.023,0.075,0h-0.077H10.669z M13.663,17.527c0.013,0.015,0.03,0.023,0.05,0.027
	c-0.014-0.017-0.032-0.027-0.053-0.031L13.663,17.527z M9.311,17.555c0.014,0.014,0.031,0.021,0.05,0.025
	c-0.013-0.016-0.032-0.027-0.053-0.031L9.311,17.555z M9.487,17.555V17.6l0.075-0.025v-0.025H9.484L9.487,17.555z M10.921,17.555
	c0.031,0.02,0.064,0.037,0.1,0.051c-0.019-0.039-0.06-0.063-0.103-0.057L10.921,17.555z M10.443,17.58
	c0.014,0.014,0.031,0.023,0.051,0.025c-0.014-0.016-0.032-0.027-0.054-0.031L10.443,17.58z M10.871,17.58
	c-0.009,0.035,0.036,0.037,0.05,0.051c0.015-0.031-0.046-0.049-0.053-0.057L10.871,17.58z M29.412,17.58v0.051h0.05V17.6
	L29.412,17.58z M5.258,17.6c-0.011,0.029-0.027,0.057-0.05,0.077h0.075c0.012-0.021,0.029-0.038,0.05-0.051V17.6H5.258z M6.566,17.6
	c0.014,0.014,0.031,0.023,0.051,0.026C6.603,17.612,6.585,17.604,6.566,17.6z M6.666,17.6c-0.04,0.036-0.082,0.069-0.126,0.101
	h0.151c0.011-0.065-0.015-0.04,0.075-0.052c-0.01,0.059-0.022,0.028,0,0.078V17.7c0.021-0.022,0.037-0.05,0.05-0.077
	C6.766,17.625,6.715,17.617,6.666,17.6L6.666,17.6z M6.918,17.6c-0.02,0.045-0.056,0.081-0.101,0.101v0.026h0.101
	c-0.009-0.033-0.009-0.068,0-0.101c0.035,0.003,0.07-0.007,0.1-0.026H6.918z M9.283,17.6c0.043,0.023,0.031,0.023,0.074,0H9.283z
	 M9.61,17.6c-0.021,0.018-0.079,0.034-0.1,0.051c0.043,0.002,0.086,0.01,0.126,0.026C9.636,17.649,9.627,17.622,9.61,17.6z
	 M10.038,17.6c0.044,0.049,0.112,0.069,0.176,0.051v-0.025C10.155,17.623,10.096,17.615,10.038,17.6z M10.338,17.6
	c0.038,0.043,0.101,0.054,0.15,0.026L10.338,17.6z M10.738,17.6c0.014,0.014,0.031,0.023,0.051,0.026
	c-0.013-0.013-0.028-0.022-0.046-0.026H10.738z M6.338,17.626c-0.031,0.021-0.065,0.038-0.101,0.051V17.7h0.051
	c0.026-0.024,0.051-0.05,0.074-0.077H6.34L6.338,17.626z M7.546,17.626c0.028,0.026,0.071,0.026,0.1,0H7.546z M9.131,17.626
	c0.028,0.026,0.072,0.026,0.1,0H9.131z M11.068,17.626c0.053,0.062,0.024,0.005,0.075,0.026C11.16,17.6,11.094,17.63,11.068,17.626
	L11.068,17.626z M6.968,17.652c0,0.027,0.009,0.055,0.025,0.076V17.7c0.013-0.015,0.021-0.032,0.024-0.052H6.969L6.968,17.652z
	 M7.119,17.652v0.025H7.069C7.041,17.7,7.094,17.7,7.094,17.7v0.026c0.12-0.012,0.238-0.038,0.352-0.078
	c-0.107,0.016-0.217,0.016-0.325,0.002L7.119,17.652z M5.132,17.678c-0.034,0.037-0.078,0.063-0.126,0.077v0.026h0.076
	c0.029-0.03,0.063-0.057,0.1-0.077C5.168,17.689,5.151,17.681,5.132,17.678L5.132,17.678z M8.503,17.678v0.051
	c0.047,0.025,0.104,0.025,0.15,0c-0.042-0.037-0.098-0.055-0.153-0.052L8.503,17.678z M10.968,17.678
	c0.043,0.023,0.032,0.023,0.075,0H10.968L10.968,17.678z M11.295,17.678c0.014,0.014,0.031,0.023,0.05,0.026
	c-0.012-0.013-0.027-0.022-0.045-0.027L11.295,17.678z M29.735,17.678c0,0.057-0.005,0.018,0.051,0.026v-0.027L29.735,17.678
	L29.735,17.678z M5.56,17.7l-0.024,0.051l0.05,0.026C5.585,17.75,5.576,17.723,5.56,17.7z M9.032,17.7
	c-0.081,0.056-0.182,0.074-0.277,0.051v0.026H8.73V17.8h0.176l0.277-0.077V17.7c-0.05,0.007-0.102,0.007-0.152,0H9.032z M9.208,17.7
	c0.036,0.06,0.112,0.082,0.176,0.051c-0.02-0.003-0.037-0.012-0.05-0.026c0.019-0.002,0.036-0.012,0.05-0.025L9.208,17.7L9.208,17.7
	z M5.233,17.727v0.051h0.025v-0.049H5.233V17.727z M10.994,17.727c0.043,0.021,0.031,0.022,0.074,0H10.994z M29.761,17.727
	c0.014,0.014,0.031,0.022,0.05,0.025c-0.014-0.013-0.031-0.021-0.05-0.023V17.727z M6.261,17.752
	c0.014,0.014,0.031,0.023,0.05,0.025c-0.013-0.012-0.029-0.02-0.047-0.023L6.261,17.752z M6.387,17.752
	c0.014,0.014,0.031,0.023,0.05,0.025c-0.013-0.012-0.029-0.02-0.047-0.023L6.387,17.752z M6.587,17.752
	c0.028,0.026,0.071,0.026,0.1,0H6.587z M7.468,17.752c0.014,0.014,0.031,0.023,0.05,0.025c-0.013-0.012-0.028-0.02-0.046-0.023
	L7.468,17.752z M8.248,17.752V17.8l0.075-0.026v-0.02H8.252L8.248,17.752z M9.657,17.752c0.013,0.014,0.03,0.023,0.05,0.025
	c-0.014-0.012-0.029-0.02-0.047-0.023L9.657,17.752z M1.682,17.777h0.05V17.8c-0.017-0.002-0.033-0.009-0.046-0.021L1.682,17.777z
	 M5.33,17.777c-0.014,0.015-0.031,0.023-0.051,0.027v0.025H5.33c0.013-0.014,0.03-0.023,0.05-0.025v-0.025H5.333L5.33,17.777z
	 M8.45,17.777c0.062,0.035,0.138,0.035,0.199,0H8.45z M29.909,17.777c0.027,0.027,0.071,0.027,0.1,0H29.909z M30.286,17.777
	l-0.025,0.052c0.047-0.034,0.028-0.05,0.028-0.05L30.286,17.777z M1.586,17.829h0.05v0.026H1.585L1.586,17.829L1.586,17.829z
	 M4.831,17.829c0.042,0.028,0.026,0.045,0.05,0H4.831L4.831,17.829z M7.749,17.829c-0.008,0.069,0.014,0.045,0.075,0H7.749
	L7.749,17.829z M30.315,17.829v0.051h0.025C30.337,17.861,30.328,17.844,30.315,17.829L30.315,17.829z M2.843,17.855
	c0,0.072,0.02,0.01-0.025,0.076h0.051c0.021-0.017,0.078-0.033,0.1-0.051L2.843,17.855z M10.443,17.855v0.051h0.025v-0.024h0.025
	c-0.015-0.015-0.033-0.023-0.054-0.026H10.443z M5.009,17.881c0.043,0.023,0.032,0.023,0.075,0H5.006H5.009z M5.965,17.881
	c0.014,0.014,0.031,0.023,0.05,0.026C6,17.893,5.982,17.885,5.962,17.882L5.965,17.881z M8.053,17.881
	c0.014,0.014,0.031,0.023,0.05,0.026c-0.015-0.015-0.033-0.022-0.053-0.025L8.053,17.881z M4.883,17.907
	c0.043,0.022,0.032,0.022,0.075,0H4.881H4.883z M5.839,17.907c0.014,0.014,0.031,0.022,0.05,0.026
	c-0.015-0.015-0.033-0.023-0.053-0.026H5.839z M30.339,17.907v0.051l0.075,0.026v-0.051H30.39
	C30.376,17.92,30.359,17.91,30.339,17.907L30.339,17.907z M3.039,17.934c0.013,0.014,0.03,0.022,0.05,0.025
	c-0.013-0.013-0.028-0.021-0.045-0.025H3.039z M5.152,17.934c-0.019,0.017-0.056,0.033-0.074,0.051c0.095,0,0.088,0.012,0.126-0.051
	H5.157H5.152z M30.536,17.934v0.051c0.031-0.017,0.062-0.047,0.074-0.051c-0.034-0.016-0.021,0.045-0.069,0H30.536z M4.7,17.958
	c0.013,0.014,0.03,0.022,0.05,0.026C4.737,17.971,4.719,17.961,4.7,17.958z M5.329,17.958c0.013,0.014,0.03,0.022,0.05,0.026
	c-0.013-0.014-0.028-0.022-0.046-0.026H5.329z M5.656,17.958v0.052h0.03v-0.025h0.025c-0.014-0.014-0.032-0.023-0.051-0.026H5.656z
	 M3.065,17.984c0.037,0.029,0.09,0.029,0.126,0H3.069H3.065z M10.738,17.984c0.014,0.014,0.031,0.022,0.051,0.025
	c-0.013-0.013-0.028-0.021-0.046-0.025H10.738z M30.438,17.984l0.025,0.076h0.024v-0.025h0.025V18.01h-0.021
	c-0.015-0.014-0.032-0.023-0.052-0.025H30.438z M30.638,17.984c0,0.074-0.012,0.025,0.075,0.051V18.01L30.638,17.984z M4.428,18.01
	c0.044-0.005,0.088,0.004,0.126,0.026C4.51,18.041,4.466,18.031,4.428,18.01z M5.535,18.01c0.013,0.014,0.03,0.023,0.05,0.026
	C5.572,18.022,5.554,18.014,5.535,18.01z M5.735,18.01c-0.013,0.014-0.03,0.023-0.05,0.026v0.026
	C5.756,18.052,5.78,18.066,5.735,18.01L5.735,18.01z M6.012,18.01c0.043,0.023,0.032,0.023,0.075,0H6.012L6.012,18.01z
	 M4.628,18.036c0.014,0.014,0.031,0.022,0.05,0.026C4.665,18.048,4.648,18.039,4.628,18.036L4.628,18.036z M4.905,18.036
	c0.014,0.014,0.031,0.022,0.051,0.026C4.942,18.048,4.925,18.039,4.905,18.036L4.905,18.036z M5.157,18.036
	c0.027,0.026,0.071,0.026,0.1,0H5.157z M5.333,18.036c0.014,0.014,0.03,0.022,0.05,0.026C5.369,18.048,5.352,18.039,5.333,18.036
	L5.333,18.036z M6.163,18.063c0.013,0.014,0.03,0.022,0.05,0.025c-0.014-0.014-0.03-0.023-0.049-0.027L6.163,18.063z M6.641,18.063
	c0.014,0.014,0.031,0.022,0.05,0.025c-0.013-0.014-0.03-0.023-0.049-0.027L6.641,18.063z M3.849,18.088
	c0.028,0.027,0.072,0.027,0.101,0H3.849z M4.302,18.088c0.096,0.04,0.204,0.04,0.3,0H4.3H4.302z M4.802,18.088
	c0.014,0.014,0.031,0.023,0.05,0.026C4.839,18.1,4.823,18.09,4.805,18.086L4.802,18.088z M3.418,18.114
	c0.014,0.014,0.031,0.022,0.05,0.026c-0.013-0.015-0.029-0.024-0.047-0.029L3.418,18.114z M30.818,18.165
	c-0.008,0.035,0.036,0.037,0.051,0.051c0.018-0.028-0.043-0.045-0.051-0.053V18.165z M30.088,18.191v0.049h0.05v-0.025
	L30.088,18.191z M30.918,18.242c0.014,0.014,0.031,0.022,0.05,0.025c-0.014-0.014-0.03-0.023-0.05-0.027V18.242z M30.39,18.318
	c-0.008,0.035,0.036,0.037,0.05,0.052c0.019-0.029-0.04-0.045-0.05-0.054V18.318z M3.5,18.343c0.014,0.015,0.03,0.022,0.05,0.026
	C3.536,18.355,3.519,18.346,3.5,18.343z M30.8,18.343v0.052h0.025v-0.052h-0.032H30.8z M31.756,18.543
	c0.014,0.014,0.031,0.023,0.05,0.025c-0.017-0.014-0.037-0.021-0.058-0.021L31.756,18.543z M31.328,18.568
	c0.013,0.015,0.03,0.023,0.05,0.026c-0.016-0.014-0.036-0.021-0.058-0.021L31.328,18.568z M31.781,18.723
	c0.014,0.014,0.031,0.023,0.051,0.026c-0.017-0.014-0.036-0.021-0.058-0.022L31.781,18.723z M32.938,18.723
	c0.014,0.014,0.031,0.023,0.05,0.026c-0.016-0.014-0.035-0.021-0.057-0.022L32.938,18.723z M33.466,18.723
	c0.014,0.014,0.031,0.023,0.05,0.026c-0.016-0.014-0.036-0.021-0.057-0.022L33.466,18.723z M31.504,18.773
	c-0.008,0.037,0.036,0.037,0.05,0.052c0.011-0.025-0.054-0.039-0.054-0.048L31.504,18.773z M31.579,18.825
	c0.043,0.022,0.031,0.022,0.075,0h-0.083H31.579z M31.73,18.825c0,0.067-0.022,0.032,0.05,0.077
	c-0.015-0.027-0.033-0.053-0.057-0.073L31.73,18.825z M32.13,18.902v0.051h0.024v-0.047h-0.028L32.13,18.902z M32.155,19.03
	c0.014,0.014,0.031,0.022,0.051,0.026c-0.016-0.014-0.034-0.021-0.055-0.022L32.155,19.03z M32.382,19.03
	c0.043,0.022,0.032,0.022,0.075,0h-0.08H32.382z M32.634,19.057c0.014,0.014,0.031,0.022,0.05,0.025
	c-0.016-0.014-0.034-0.021-0.055-0.021L32.634,19.057z M32.584,19.107c0.026,0.027,0.062,0.045,0.1,0.051
	c-0.028-0.027-0.065-0.043-0.104-0.047L32.584,19.107z M33.213,19.286c0.014,0.014,0.031,0.022,0.05,0.026
	c-0.016-0.014-0.034-0.021-0.055-0.022L33.213,19.286z M33.263,19.486c-0.008,0.035,0.036,0.037,0.05,0.051
	c0.014-0.018-0.048-0.037-0.055-0.037L33.263,19.486z M33.763,19.512c0.014,0.014,0.031,0.023,0.05,0.026
	c-0.015-0.011-0.033-0.017-0.052-0.017L33.763,19.512z M33.788,19.563c0,0.058-0.005,0.019,0.05,0.026v-0.017h-0.05V19.563z
	 M34.014,19.717h0.05v0.026c-0.019,0-0.036-0.006-0.051-0.017L34.014,19.717z M33.687,19.743c0.031,0.021,0.065,0.038,0.101,0.051
	c-0.022-0.033-0.063-0.05-0.102-0.043L33.687,19.743z M34.14,19.82v0.051h0.025v-0.043h-0.027L34.14,19.82z M33.914,19.871
	c0.068,0.084,0.154,0.152,0.252,0.199c-0.052-0.099-0.145-0.169-0.254-0.191L33.914,19.871z M34.04,19.948h0.05v0.026
	c-0.019-0.001-0.037-0.007-0.052-0.019L34.04,19.948z M33.94,19.975c-0.008,0.034,0.036,0.036,0.051,0.051
	c0.015-0.02-0.047-0.035-0.054-0.043L33.94,19.975z M34.166,20c-0.008,0.035,0.036,0.037,0.05,0.051
	c0.015-0.019-0.045-0.035-0.052-0.043L34.166,20z M34.366,20.051c0.057,0.162-0.02,0.044-0.076,0.154h0.05
	c0.039,0.02,0.082,0.028,0.126,0.025c-0.012,0.025-0.012,0.053,0,0.078h0.025v-0.02h0.024v-0.025
	c-0.048-0.023-0.091-0.059-0.126-0.1c0.028-0.013,0.054-0.029,0.076-0.051c-0.031-0.023-0.064-0.041-0.101-0.055L34.366,20.051z
	 M34.19,20.077c0.009,0.032,0.009,0.067,0,0.1h0.025v-0.016c0.017-0.022,0.024-0.05,0.025-0.077H34.19V20.077z M34.844,20.359
	c0.028,0.043,0.045,0.026,0,0.051v-0.044V20.359z M35.02,20.559c0.028,0.017,0.047,0.045,0.05,0.077h-0.025v-0.014
	c-0.014-0.015-0.022-0.032-0.025-0.052L35.02,20.559z M34.995,20.609c0,0.048,0.023,0.023-0.025,0.052L34.995,20.609z
	 M35.071,20.636c0.014,0.015,0.022,0.032,0.025,0.052h-0.027v-0.039L35.071,20.636z M34.871,20.736l0.024,0.076h0.025
	c-0.008-0.027-0.027-0.051-0.053-0.063L34.871,20.736z M35.022,20.736c0.018,0.063,0.043,0.122,0.075,0.179h0.023v-0.062
	c-0.076-0.049-0.012-0.039-0.051-0.101c0,0,0,0.101-0.024,0.052V20.75h-0.026L35.022,20.736z M34.796,20.864
	c-0.023,0.062-0.027,0.041-0.05,0.1c0.021,0.013,0.037,0.03,0.05,0.052h-0.05c-0.034-0.06-0.031-0.048-0.051-0.052
	c-0.092,0.134-0.192,0.262-0.3,0.384v0.026c0.02,0.003,0.037,0.012,0.05,0.026h0.051c0.078-0.121,0.181-0.227,0.3-0.308
	c0.039,0.063,0.017,0.054,0.075,0.026c-0.044-0.008-0.081-0.037-0.101-0.077c0.101,0,0.061,0.042,0.101-0.026h0.024v-0.01
	c-0.057,0.01-0.026,0.024-0.075,0c-0.013-0.014-0.021-0.031-0.024-0.051h0.05v0.025h0.025c-0.021-0.037-0.048-0.072-0.078-0.103
	L34.796,20.864z M34.896,20.891c-0.008,0.034,0.036,0.036,0.05,0.051c0.016-0.014-0.046-0.029-0.053-0.041L34.896,20.891z
	 M34.896,21.09v0.07h0.05v-0.051h-0.05V21.09z M35.596,21.475c0.003,0.031,0.021,0.061,0.05,0.076
	c-0.013-0.021-0.028-0.041-0.046-0.058L35.596,21.475z M35.571,21.756c0.042,0.029,0.027,0.045,0.051,0H35.571z M35.445,21.782
	c-0.021,0.065-0.021,0.135,0,0.2h0.025V21.8h-0.023L35.445,21.782z M35.722,21.882c0,0.069-0.033,0.041,0.05,0.077
	c-0.008-0.025-0.025-0.047-0.049-0.059L35.722,21.882z M35.596,22.01c-0.104,0.109-0.197,0.23-0.277,0.359h0.025
	c0.079-0.06,0.163-0.111,0.252-0.154c0.033-0.027,0.045-0.1,0.076-0.128v-0.03L35.596,22.01z M34.539,22.061v0.101l0.1,0.077v-0.002
	c-0.022-0.049-0.031-0.102-0.025-0.154h-0.072L34.539,22.061z M34.791,22.061c0.006,0.063,0.023,0.123,0.05,0.18
	c0.032,0.014,0.065,0.021,0.1,0.025c0.079-0.063,0.154-0.129,0.227-0.199h-0.022c-0.113,0.038-0.235,0.044-0.352,0.016
	L34.791,22.061z M35.291,22.061l-0.151,0.2h0.03v0.001c0.075-0.039,0.172-0.089,0.13-0.18L35.291,22.061z M34.385,22.087
	c0.009,0.13,0.084,0.247,0.2,0.308c-0.057-0.102-0.122-0.197-0.195-0.287L34.385,22.087z M35.7,22.236L35.6,22.364
	C35.662,22.395,35.715,22.258,35.7,22.236z M35.071,22.313c-0.013,0.014-0.03,0.023-0.05,0.026v0.026
	c0.027-0.012,0.116-0.031,0.048-0.053H35.071z M3.671,22.441c-0.029,0.029-0.055,0.063-0.075,0.1h0.027
	c0.072,0.142,0.165,0.271,0.276,0.384c0.144,0.226,0.262,0.466,0.353,0.718h0.024v-0.023c0.05-0.131,0.075-0.27,0.075-0.41
	c-0.148-0.315-0.384-0.582-0.679-0.768H3.671z M35.419,22.441c-0.1,0.07-0.21,0.122-0.327,0.153h0.05
	c0.044,0.032,0.097,0.051,0.151,0.052l0.15-0.201h-0.022L35.419,22.441z"/>
</svg>
