<?xml version="1.0" encoding="utf-8"?>
<!-- Generator: Adobe Illustrator 16.0.0, SVG Export Plug-In . SVG Version: 6.00 Build 0)  -->
<!DOCTYPE svg PUBLIC "-//W3C//DTD SVG 1.1//EN" "http://www.w3.org/Graphics/SVG/1.1/DTD/svg11.dtd">
<svg version="1.1" id="Layer_1" xmlns="http://www.w3.org/2000/svg" xmlns:xlink="http://www.w3.org/1999/xlink" x="0px" y="0px"
	 width="40px" height="40px" viewBox="0 0 40 40" enable-background="new 0 0 40 40" xml:space="preserve">
<path id="Color_Fill_1" fill="#FFFFFF" d="M4.936,7.016c0.054,0.055,0.054,0.144,0,0.2V7.016z M4.987,7.316
	c0.058,0.073,0.058,0.176,0,0.249V7.316z M24.02,11.593h5.5c0.914,0,1.762,0.056,2.601,0v0.8c-2.481-0.139-5.437,0-8.093,0v2.239
	h0.052v-0.1c0.08-0.157,0.132-0.326,0.153-0.5h0.1l1.679,0.2c0.07-0.045,0.138-0.095,0.2-0.149c0.547,0.033,1.09,0.1,1.628,0.2
	c0.077-0.343,0.419-0.559,0.762-0.481c0.036,0.008,0.069,0.019,0.104,0.033c-0.027,0.026-0.063,0.044-0.101,0.05l-0.406,0.2v0.05
	h0.152c0,0.054,0.018,0.107,0.051,0.149c0.12,0.095,0.26,0.163,0.408,0.2c-0.006-0.07,0.012-0.141,0.051-0.2v0.05
	c0.037,0.06,0.055,0.13,0.051,0.2c0.699-0.04,1.342,0.385,1.578,1.045c1.906,0.077,3.839,0.1,5.953,0.1
	c1.189,0.035,2.378,0.001,3.563-0.1v0.5c-1.314-0.1-3.086-0.1-4.682-0.1c-0.746-0.053-1.496-0.037-2.239,0.05
	c-0.711,0.158-1.877-0.242-2.341,0.1h0.1c0.15,0.218,0.397,0.349,0.662,0.348c0.051,0.251,0.13,0.251,0,0.448
	c0.75,0.04,0.9,0.728,1.629,0.547c0.3,0.26,0.645,0.463,1.018,0.6c0-0.153-0.059-0.122,0.052-0.249l0.1,0.05
	c0.078-0.139-0.1-0.084,0.052-0.148c0.314-0.111,0.57-0.345,0.711-0.647h0.052v0.039c0.183,0.058,0.319,0.211,0.356,0.399
	c-0.179,0.135-0.295,0.348-0.459,0.5c0.006,0.039,0.023,0.074,0.051,0.101c0.04,0.078,0.114,0.134,0.201,0.149
	c0.088-0.066,0.082-0.087,0.152-0.051c0.077,0.1-0.032,0.2,0.255,0.249c0.478-0.274,1.033-0.381,1.578-0.3
	c0.056,0.092,0.123,0.175,0.2,0.249c0.062,0.528,0.062,1.063,0,1.592c-0.088,0.139-0.156,0.29-0.2,0.448
	c-0.165,0.041-0.078-0.024-0.153,0.1c0.107,0.039,0.209,0.089,0.305,0.149c-0.004,0.038-0.022,0.073-0.051,0.1
	c-0.132,0.073-0.225,0.2-0.254,0.349c0.633,0.516,0.315,1.966-0.052,2.487c-0.505,0.509-1.138,0.87-1.832,1.046
	c-1.526,0.648-3.1,1.394-4.631,2.039c-0.728,0.307-1.591,0.01-2.494,0.2c-0.659,0.075-1.323,0.093-1.985,0.05H12.57
	c-0.933,0-1.944-0.039-2.8-0.05c-0.594,0.053-1.191,0.036-1.781-0.05c-0.73-0.325-1.414-0.743-2.036-1.244
	c-0.761-0.47-1.566-0.828-2.29-1.343c-0.449-0.437-0.827-0.94-1.12-1.493H2.494v0.05c-0.161,0.145-0.298,0.313-0.407,0.5
	c-0.032-0.225-0.1-0.442-0.2-0.646c0.038-0.006,0.073-0.023,0.1-0.05l-0.153-0.101c0,0.157,0.086,0.067-0.051,0.149
	c-0.071-0.102-0.106-0.225-0.1-0.348c-0.229-0.002-0.455-0.053-0.662-0.149c-0.027-0.027-0.045-0.063-0.051-0.101
	c0.261-0.094,0.539-0.128,0.814-0.1v-0.1c-0.117-0.067-0.093-0.062-0.1-0.101c0.171-0.112,0.311-0.267,0.407-0.448
	c-0.16-0.078-0.51-0.084-0.712-0.148c0.076-0.119,0.111-0.26,0.1-0.4c-0.145,0.016-0.105,0.053-0.2,0
	c0.041-0.025,0.075-0.059,0.1-0.1c-0.35-0.191-0.647-0.466-0.865-0.801c-0.234-0.34,0.15-0.743,0.051-1.144
	C0.47,18.396,0.109,18.109,0,17.716c0.135-0.103,0.292-0.171,0.458-0.2c0.091,0.375,0.307,0.708,0.611,0.945
	c0.044-0.032,0.098-0.05,0.153-0.05c0.145,0.142,0.298,0.275,0.458,0.399c0.022,0.182,0.022,0.365,0,0.547h0.407
	c0.021-0.182,0.021-0.365,0-0.547h-0.1c-0.04,0.071-0.119,0.111-0.2,0.101l0.051-0.3c0.317-0.063,0.1-0.107,0.254-0.301l0.2,0.051
	c0.092-0.033,0.2-0.148,0.305-0.2v-0.05c-0.112-0.07-0.214-0.154-0.305-0.25c0.126-0.063,0.035,0.021,0.1-0.1
	c-0.028-0.141-0.08-0.276-0.153-0.4c0.313-0.2,0.658-0.418,0.967-0.647c0.038-0.081,0.071-0.164,0.1-0.249l0.155,0.05
	c0.14-0.076,0.276-0.159,0.407-0.249c0.305-0.317,0.693-0.541,1.12-0.647c0.104,0.175,0.243,0.327,0.407,0.448
	c0.092-0.066-0.023-0.082,0.2-0.1c0.045-0.032,0.098-0.05,0.153-0.05c-0.009,0.091-0.044,0.177-0.1,0.249h0.1
	c0.059-0.079,0.157-0.118,0.254-0.1c0.035,0.038,0.067,0.111,0.1,0.149c0.027-0.026,0.062-0.044,0.1-0.05
	c0.037-0.18,0.054-0.363,0.051-0.547c-0.337-1.573-0.394-3.3-0.763-4.826c-0.149-0.636-0.216-1.288-0.2-1.94
	c0.031,0.625,0.135,1.244,0.31,1.845l0.356,2.488c0.255,0.894,0.426,1.81,0.509,2.736c0.038,0.005,0.073,0.023,0.1,0.05
	c0.09-0.062,0.196-0.096,0.305-0.1c0.095,0.229,0.312,0.385,0.56,0.4c0.407-0.55,1.08-0.056,1.37-0.056
	c0.038-0.06,0.056-0.129,0.051-0.2c-0.11-0.16-0.147-0.359-0.1-0.547H8.8v-0.05c0.822,0.069,1.854-0.011,2.748,0.05
	c0-0.054-0.018-0.106-0.051-0.149c-0.027,0.027-0.063,0.044-0.1,0.05v-0.244h0.1c0.005,0.038,0.023,0.073,0.051,0.1
	c0.036-0.358,0.437-0.273,0.814-0.249c0.079-0.042,0.167-0.059,0.255-0.05v-0.15l-0.458-0.05l-0.051-0.1
	c0.262,0.009,0.523-0.042,0.763-0.149c-0.165-0.041-0.078,0.024-0.153-0.1h0.412v0.1c-0.126,0.064-0.035-0.021-0.1,0.1h0.305v0.149
	c-0.154-0.001-0.308,0.016-0.458,0.05v0.1h0.813c0.095-0.045,0.201-0.062,0.305-0.05c0-0.14-0.034-0.16,0.2-0.2
	c0.118,0.2,0.116,0.033,0.305,0.149c-0.055,0-0.109,0.017-0.153,0.05l1.018-0.05c0.051-0.092,0.148-0.149,0.254-0.149v-0.2
	c-0.291-0.011-0.565-0.136-0.763-0.348c-0.019,0.175-0.071,0.344-0.153,0.5h-0.046v-0.1c0.162-0.326,0.181-0.705,0.051-1.045h-0.1
	c-0.086-0.049-0.117-0.005-0.2-0.05c-0.279-0.212-0.432-0.55-0.407-0.9c-0.553,0.014-1.161,0-1.73,0H11.5
	c-0.195,0.116-0.4,0.216-0.611,0.3c-0.19,0.009-0.378,0.042-0.56,0.1h0.051c0.404,0.094,0.826,0.076,1.221-0.05
	c0.102,0.072,0.173,0.179,0.2,0.3c-0.062,0.043-0.129,0.077-0.2,0.1l-0.051-0.1c-0.115-0.171,0.081-0.16-0.2-0.2
	c-0.452,0.16-0.95,0.124-1.374-0.1c-0.009-0.251-0.043-0.501-0.1-0.746H9.517v-0.2h0.305c-0.029-0.2,0.147-0.339,0.153-0.746
	c0.53-0.012,1.055,0.107,1.527,0.348l1.323,0.05c0.217-0.11,0.395-0.285,0.509-0.5c0.796-0.059,1.594-0.076,2.392-0.05
	c0.021,0.092,0.106,0.155,0.2,0.149v-0.242h-0.353c-0.006-0.378,0-0.638,0-1.094h1.017v1.095h-0.356v0.249
	c1.285,0.132,3.121-0.006,4.478,0v0.2h-0.356v0.249h2.8v-1.146c0.068,0.006,0.137,0.022,0.199,0.05
	c-0.043,0.363-0.061,0.729-0.051,1.095h0.665V8.558c-0.058-0.398-0.04-0.803,0.052-1.194v4.229H24.02z M5.038,7.616
	c0.064,0.089,0.064,0.21,0,0.3V7.616z M5.089,7.916c0.064,0.09,0.064,0.21,0,0.3V7.916z M5.14,8.216
	C5.25,8.414,5.268,8.65,5.191,8.863L5.14,8.216z M15.929,11.599v-0.2c-0.862,0.109-1.732,0.142-2.6,0.1v-0.155
	c-0.145,0.021-0.283,0.072-0.407,0.149v0.05h0.509c0.831,0.075,1.665,0.092,2.498,0.05V11.599z M16.234,11.599H20.1v-0.255h-3.815
	c-0.031,0.08-0.048,0.164-0.051,0.249V11.599z M13.434,12.399c0.057,0.05,0.143,0.05,0.2,0H13.434z M15.419,12.399
	c-0.013,0.133-0.013,0.267,0,0.4c0.08,0.062,0.026,0.032,0.1,0c0.049-0.109,0.066-0.229,0.051-0.348L15.419,12.399z M15.724,12.399
	c-0.021,0.403-0.205,0.78-0.509,1.045c0.053,0.074,0.087,0.16,0.1,0.249c0.154,0.093,0.329,0.145,0.509,0.149
	c-0.026-0.064-0.026-0.136,0-0.2c0.101,0.014,0.204,0.014,0.305,0v-0.05c-0.182,0.014-0.363-0.039-0.509-0.149h0.051
	c0.146-0.107,0.333-0.143,0.509-0.1v0.05h0.051v-0.05h0.051v-0.05c-0.165-0.041-0.078,0.024-0.153-0.1
	c0.285,0.03,0.562,0.114,0.814,0.249H17v0.05c-0.178,0.014-0.352,0.064-0.509,0.149c0.121-0.004,0.241,0.013,0.356,0.05
	c-0.078,0.344-0.078,0.701,0,1.045h0.303v0.4c1.992,0,4.1-0.019,6.005-0.05v-1.254h-0.101c-0.045,0.032-0.098,0.05-0.152,0.05
	v-0.349h0.199v-0.05c-0.084-0.273-0.117-0.56-0.1-0.846h0.153v-0.248c-2.436,0.002-5.167,0.147-7.43,0L15.724,12.399z
	 M23.357,15.484h-0.609l0.052,0.537c-0.104,0.023-0.206,0.057-0.305,0.1c0.243,0.148,0.533,0.201,0.813,0.149
	c0.004,0.118-0.014,0.236-0.051,0.348c0.07,0.062,0.161,0.098,0.256,0.1h0.051c-0.09-0.075-0.145-0.184-0.153-0.3h0.051
	c0.007,0.063,0.044,0.119,0.101,0.149v-0.1c0.037-0.06,0.056-0.129,0.051-0.2c-0.104,0.013-0.211-0.004-0.305-0.05
	c0.104,0.001,0.207-0.015,0.305-0.05l0.051-0.4c-0.064-0.026-0.131-0.043-0.2-0.05c-0.041,0.07-0.119,0.109-0.2,0.1v-0.1
	c0.129-0.057,0.267-0.091,0.407-0.1c0.032,0.056,0.089,0.093,0.153,0.1c0.072-0.99,0.148-2.163,0.152-3.333h-0.668v0.05
	c0.071,0.277,0.071,0.568,0,0.846c-0.026,0.753,0.051,1.513,0.051,2.194L23.357,15.484z M14.147,12.449v0.4h0.1
	c0.113-0.078,0.172-0.212,0.153-0.348h0.051v-0.05h-0.303L14.147,12.449z M14.5,13.185h0.153v-0.2c-0.126-0.064-0.035,0.021-0.1-0.1
	H14.5V13.185z M14.347,12.936c-0.026,0.064-0.026,0.136,0,0.2H14.4v-0.2h-0.049H14.347z M15.263,12.936
	c-0.055,0.073-0.089,0.159-0.1,0.249h0.051c0.027-0.027,0.063-0.044,0.1-0.05l0.051-0.149L15.263,12.936z M16.332,13.284
	c0.084,0.056,0.054,0.088,0.1,0H16.332z M14.602,14.578c0.063,0.078,0.033,0.025,0,0.1c-0.011,0.021-0.037,0.1-0.1,0.05
	L14.602,14.578z M13.584,15.478v0.149c0.314-0.015,0.644,0,1.069,0v-0.153h-1.065L13.584,15.478z M15.162,15.478
	c0.417,0.193,0.893,0.211,1.323,0.05h-0.251c-0.35-0.085-0.712-0.104-1.069-0.054L15.162,15.478z M19.386,15.627v-0.153
	c-0.486-0.012-2.244-0.095-2.392,0.149h0.611c0.593-0.059,1.191-0.059,1.784,0L19.386,15.627z M19.895,15.478v0.149
	c0.865,0,1.5,0,2.341,0v-0.153H19.9L19.895,15.478z M10.175,16.025v0.1c0.126,0.064,0.035-0.021,0.1,0.1
	c0.027-0.027,0.045-0.062,0.051-0.1c0.126-0.064,0.035,0.021,0.1-0.1h-0.248H10.175z M14.348,16.025v0.249
	c0.171,0.01,0.343-0.006,0.509-0.05v-0.05h-0.048c-0.074-0.127,0.011-0.056-0.153-0.1c-0.095-0.046-0.201-0.064-0.305-0.053
	L14.348,16.025z M15.01,16.075v0.2h0.916v-0.254c-0.305-0.002-0.61,0.014-0.913,0.05L15.01,16.075z M18.267,16.025v0.249h0.407
	c0.052-0.101,0.145-0.174,0.255-0.2v-0.05H18.27L18.267,16.025z M11.549,16.075c0.025,0.055,0.059,0.105,0.1,0.149v-0.05l0.1-0.05
	v-0.05L11.549,16.075L11.549,16.075z M16.027,16.175v0.1H17v-0.1h-0.969H16.027z M17.147,16.175v0.1H17.2
	c-0.004-0.04-0.021-0.077-0.05-0.105L17.147,16.175z M17.961,16.175v0.1h0.153v-0.1h-0.15H17.961z M21.167,16.175v0.1h0.916v-0.1
	h-0.912H21.167z M5.445,16.216c0.084,0.055,0.054,0.088,0.1,0H5.445z M5.75,17.161c-0.053,0.048-0.103,0.1-0.15,0.155H5.547v0.05
	H5.8c0.013-0.021,0.03-0.038,0.051-0.05c-0.025-0.056-0.059-0.106-0.1-0.151L5.75,17.161z M5.394,17.416
	c0.02,0.13-0.038,0.065,0.1,0.1c0.012-0.021,0.03-0.038,0.051-0.05v-0.05H5.394z M5.241,17.516c-0.027,0.027-0.063,0.045-0.1,0.051
	v0.05h0.152C5.288,17.578,5.27,17.543,5.241,17.516L5.241,17.516z M32.723,17.566c0.418,0.356,0.879,0.659,1.373,0.899
	c0.027-0.026,0.045-0.062,0.051-0.1H34.1c-0.24-0.343-0.578-0.604-0.97-0.75v0.1l0.407,0.2v0.05h-0.153
	c-0.201-0.163-0.423-0.299-0.661-0.403V17.566z M33.994,18.113c-0.018,0.068,0.072,0.072,0.1,0.1
	c0.038-0.056-0.085-0.087-0.099-0.102L33.994,18.113z M36.693,18.262c-0.149,0.1-0.42,0.092-0.56,0.2
	c0.104,0.026,0.206,0.06,0.306,0.101l0.457-0.101l0.052,0.149h0.407v-0.051c-0.058-0.107-0.146-0.194-0.256-0.248
	c-0.129-0.053-0.27-0.07-0.408-0.053L36.693,18.262z M3.768,18.511c-0.203,0.147-0.39,0.315-0.56,0.5h0.1
	c0.049,0.013,0.019,0.039,0.051,0c0.203-0.106,0.377-0.261,0.509-0.448c-0.027-0.027-0.063-0.047-0.102-0.054L3.768,18.511z
	 M35.88,18.511c0.027,0.026,0.063,0.044,0.101,0.05c-0.028-0.027-0.064-0.045-0.103-0.052L35.88,18.511z M35.78,18.561
	c-0.054,0.245-0.07,0.496-0.052,0.746h0.052v-0.1c0.132-0.164,0.234-0.35,0.305-0.547L35.78,18.561z M36.034,18.561
	c0.027,0.027,0.062,0.045,0.1,0.051c-0.027-0.028-0.063-0.047-0.103-0.053L36.034,18.561z M34.507,18.611
	c0.058,0.112,0.108,0.229,0.153,0.348h0.1v-0.2c-0.078-0.063-0.166-0.115-0.26-0.151L34.507,18.611z M35.525,18.711
	c-0.001,0.055,0.018,0.106,0.051,0.148c0-0.055-0.02-0.108-0.055-0.151L35.525,18.711z M34.864,18.911l0.051,0.149
	c0.038-0.006,0.073-0.023,0.101-0.051s0.045-0.062,0.051-0.1h-0.2L34.864,18.911z M36.594,18.911
	c-0.104-0.001-0.207,0.016-0.305,0.05l0.1,0.2h0.101c0.056-0.074,0.091-0.162,0.101-0.254L36.594,18.911z M3.057,19.16
	c0.017,0.109-0.053,0.054,0.051,0.1c-0.005-0.04-0.024-0.078-0.055-0.104L3.057,19.16z M37.157,20.105
	c-0.411-0.084-0.784-0.293-1.069-0.601v0.101h-0.057v0.05l0.1-0.05v0.05c0.186,0.367,0.519,0.639,0.916,0.745l0.051-0.148
	c0.033-0.043,0.052-0.096,0.053-0.15L37.157,20.105z M36.292,22.145c-0.044,0.042-0.078,0.094-0.101,0.149h-0.06
	c-0.05,0.05,0.05,0.049,0.052,0.05l0.051,0.149h0.1v-0.101c0.082-0.127,0.047-0.168-0.049-0.252L36.292,22.145z M2.043,22.645v0.101
	h0.044v-0.101H2.036H2.043z M2.243,22.645c-0.027,0.064-0.044,0.132-0.051,0.2h0.047c0.038-0.062,0.09-0.112,0.153-0.148v-0.05
	H2.239L2.243,22.645z M36.034,22.794c-0.055,0.073-0.089,0.159-0.101,0.249h0.047v0.05h0.1c0.039-0.131,0.061-0.118,0.1-0.249h0.051
	v-0.05h-0.199H36.034z M2.039,22.895c0,0.054,0.018,0.105,0.051,0.148v-0.156H2.036L2.039,22.895z M35.372,23.441
	c0.122-0.022,0.241-0.057,0.356-0.101v-0.05c-0.123-0.059-0.088-0.1-0.201-0.05l-0.152,0.05v0.148L35.372,23.441z M34.914,23.292
	c-0.098,0.048-0.184,0.116-0.254,0.2c0.074,0.055,0.162,0.088,0.254,0.1c0.064-0.087,0.1-0.191,0.1-0.3H34.914z M33.846,23.691
	c-0.589,0.162-1.141,0.434-1.629,0.801c-0.384,0.154-0.757,0.029-0.865,0.447c-0.051,0.094-0.086,0.195-0.1,0.301H31.3
	c0.307-0.169,0.631-0.303,0.968-0.4c0.441-0.189,0.933-0.459,1.373-0.646c0.307-0.048,0.59-0.188,0.814-0.4
	c-0.208-0.047-0.391-0.172-0.51-0.348h-0.053v0.1c-0.029,0.04-0.048,0.088-0.051,0.139L33.846,23.691z M26.721,23.643
	c-0.249,0.068-0.509,0.085-0.764,0.049v0.051c0.607,0.623-0.048,1.734-0.305,2.139h2.443v-0.05c-0.66-0.483-0.484-1.319-0.356-2.14
	c-0.337-0.064-0.68-0.084-1.021-0.059L26.721,23.643z M6.82,23.691H5.9c-0.188,0.113-0.29,0.33-0.254,0.548
	c0.445,0.211,0.871,0.46,1.272,0.745c-0.075-0.26-0.092-0.532-0.051-0.799c0.042-0.063,0.076-0.13,0.1-0.201H6.87L6.82,23.691z
	 M15.675,23.792c0.21,0.722,0.059,1.499-0.407,2.089h2.544v-0.05c-0.541-0.532-0.702-1.341-0.407-2.04L15.675,23.792L15.675,23.792z
	 M5.293,23.941v0.1l0.153,0.05c-0.024-0.073-0.08-0.132-0.153-0.159V23.941z M10.942,24.741c-0.086,0.106-0.288,0.14-0.356,0.249
	l-0.051,0.3c-0.123,0.208-0.259,0.409-0.407,0.601h2.392V25.84c-0.216-0.288-0.387-0.606-0.509-0.945
	c-0.058-0.063-0.192-0.086-0.255-0.148h-0.814V24.741z M21.324,24.741c-0.081,0.1-0.295,0.149-0.356,0.249l-0.051,0.348
	c-0.094,0.182-0.292,0.371-0.407,0.547H22.9v-0.05c-0.746-0.606,0.033-1.138-1.577-1.108L21.324,24.741z"/>
</svg>
