<svg xmlns="http://www.w3.org/2000/svg" width="40" height="40" viewBox="0 0 40 40">
  <defs>
    <style>
      .cls-1 {
        fill: #fff;
        fill-rule: evenodd;
      }
    </style>
  </defs>
  <path id="Color_Fill_1" data-name="Color Fill 1" class="cls-1" d="M11.98,9h0.245V9.492a0.629,0.629,0,0,1,.342.049H12.274V9.689c0.382,0,.758.025,1.076,0.049a0.887,0.887,0,0,1,.147.246,0.961,0.961,0,0,1,0,.64,10.878,10.878,0,0,0-.391,1.23,4.977,4.977,0,0,0,.1,1.23,3.067,3.067,0,0,1-1.027.246v1.034c0.239-.052.1-0.093,0.2-0.148h0.88a0.662,0.662,0,0,0,.2.345,0.372,0.372,0,0,0,.391-0.049,1.16,1.16,0,0,0,.734-1.378,1.085,1.085,0,0,0-.489-0.1V12.79H14.034v0.049a2.433,2.433,0,0,1-.245.541v-0.1c-0.653-.5-0.041-2.008.44-2.215v0.148a0.505,0.505,0,0,0,0,.541,1.732,1.732,0,0,0,.44.246V11.855a2.913,2.913,0,0,1-.1-1.23l0.147,1.427,0.685,0.1a4.813,4.813,0,0,1-.44,1.772c-0.113.39,0.258,0.848,0.049,1.181a2.008,2.008,0,0,0-.147-0.984v0.1a2.508,2.508,0,0,1-1.516.886v0.2a2,2,0,0,0,.587.049v0.443a1.087,1.087,0,0,1,.391.246,1.552,1.552,0,0,1,.049-0.492h0.1a0.32,0.32,0,0,0,.049.2,0.434,0.434,0,0,1,.1-0.443c0.128-.1.095-0.063,0.293-0.049V15.3h0.049c0.036,0.113.059,0.38,0.1,0.492H15.11a0.523,0.523,0,0,1,.049-0.3v0.3H15.55a0.416,0.416,0,0,0,.44.345,0.573,0.573,0,0,1,.782-0.049c0.01-.069-0.04.02-0.049-0.049-0.094-.038.1-0.049,0.1-0.049a0.3,0.3,0,0,0,.1.1V15.743a0.178,0.178,0,0,1-.049-0.1A1.232,1.232,0,0,1,15.746,15V14.217a7.205,7.205,0,0,1,1.907-.049v0.148h0.2v0.148h0.1v0.049H18V14.266a0.541,0.541,0,0,1,0-.246h2.2l-0.049.788h0.2c0,0.463.092,0.63,0.1,1.083a2.448,2.448,0,0,0,1.027.148,0.2,0.2,0,0,0,.2.1l0.049-.148a1.645,1.645,0,0,0,.88.049V15.792a0.561,0.561,0,0,1,.342-0.1,2.931,2.931,0,0,0,.147.443V15.644h3.472V15.6H26.6V15.447h-0.2v-0.2h0.049c0.071,0.125-.011.056,0.147,0.1a0.907,0.907,0,0,0,.049-0.3c-0.163-.194-0.03-0.678-0.245-1.034a0.734,0.734,0,0,1,.2-0.1,1.491,1.491,0,0,0,.44.1,0.7,0.7,0,0,0-.244.049,5.794,5.794,0,0,0-.1.935l0.538-.049a4.43,4.43,0,0,0,.587.689,1.383,1.383,0,0,0,0,.394h0.342a0.3,0.3,0,0,1,0-.246h0.1c-0.006.2-.027,0.269,0.1,0.345a1.913,1.913,0,0,1,1.369-.148c0.054,0.13.026,0.307,0.1,0.492a0.76,0.76,0,0,0,.293.2l0.342,1.329h0.391a1.922,1.922,0,0,1,.88-0.64,4.134,4.134,0,0,1,0-1.132,5.117,5.117,0,0,1,1.32.148c0,0.192-.024.221,0.1,0.3l0.049-.049v0.1c0.032,0.042.065,0.155,0.1,0.2a0.425,0.425,0,0,1,.44-0.1,2.8,2.8,0,0,1,.587,1.23c1.5,0,2.779.014,4.157,0V17.908c0.635,0,.953-0.013,1.516,0v0.1H39.756v0.2H40v0.1H39.756v0.2H40v0.1H39.756a6.2,6.2,0,0,1-1.271,0l-0.049-.148a3.245,3.245,0,0,0-.342-0.049,25.992,25.992,0,0,1-3.716.049c0.033,0.828-.153,1.971-0.929,1.969a0.249,0.249,0,0,1-.147.049V20.025a0.64,0.64,0,0,1-.342-0.148v0.246a1.589,1.589,0,0,0,.88.689v0.2h0.147V21.5H33.5a6.971,6.971,0,0,0-.587,1.329h0.049V22.584h0.929v0.049a0.252,0.252,0,0,0-.049.148h0.2v0.1a0.252,0.252,0,0,1,.049.148,1.366,1.366,0,0,1,.538.1,0.783,0.783,0,0,1,.244-0.344,2.468,2.468,0,0,1-.293-0.591H34.523v0.049a1.759,1.759,0,0,0-.049.246,0.618,0.618,0,0,1-.342.148,2.272,2.272,0,0,1-.293-0.591h0.1a0.893,0.893,0,0,1,.342-0.148c0.06,0.152.018,0.111,0.2,0.148,0.071-.125-0.011-0.056.147-0.1a4.137,4.137,0,0,0,.44.984,1.524,1.524,0,0,1,.489.049,0.777,0.777,0,0,0-.049.246,7.628,7.628,0,0,1,.782.541l0.2-.049a3.3,3.3,0,0,0,.831.1,1.762,1.762,0,0,1,.636,0c-0.047.072-.175,0.107-0.1,0.148a6.138,6.138,0,0,0,1.712,1.28,4.025,4.025,0,0,0-.049.492,1.226,1.226,0,0,0-.245.2c-0.249,0-.572-0.074-0.636-0.049a0.168,0.168,0,0,0-.1.049,1.064,1.064,0,0,1,.1.443,2.063,2.063,0,0,1-1.174,2.215c-0.9.566-1.858,1.055-2.787,1.624a5.012,5.012,0,0,1-1.125.64,10.859,10.859,0,0,1-2.592.049H11.834a8.882,8.882,0,0,1-2.152-.049,5.379,5.379,0,0,1-1.516-.984c-0.777-.55-1.622-1.012-2.347-1.624a2.36,2.36,0,0,0-.978-0.886c-0.077.125-.128,0.194-0.244,0.148a0.334,0.334,0,0,1-.049-0.2c-0.716-.005-0.567.331-1.222,0.344a1.228,1.228,0,0,1-.342-0.246V27.063A8.735,8.735,0,0,0,2,26.571,4.908,4.908,0,0,1,.2,24.7a2.419,2.419,0,0,1,1.027-3.051L1.076,18.893c0.869-.024,2.041-0.056,2.983-0.1a0.14,0.14,0,0,0,.049.049c0.057,0.687.023,1.632,0.049,2.658a0.762,0.762,0,0,1-.245.049,0.45,0.45,0,0,0-.391,0v0.1H4.6c0.221-.116.875,0.155,1.222,0a9.881,9.881,0,0,1,3.863,0c0.347,0.076.792-.046,1.076,0.049,0.018,0.25.506,0.16,0.88,0.148,0.238,0.1.768-.233,1.174-0.148,0.362,0.076.863,0.145,1.223,0.2,0.232,0.034.159-.135,0.391-0.1,0.3,0.047.553,0.2,0.929,0.246V21.993a1.228,1.228,0,0,1-.245-0.1,9.318,9.318,0,0,0,1.76-.1,6.016,6.016,0,0,1-.978-0.344H14.328c-0.646-.16-1.5-0.154-2.2-0.3v-0.1c0.067-.119.069-0.122-0.049-0.2v0.2c-1.049-.063-2.116-0.2-3.032-0.2L9,20.714a13.819,13.819,0,0,0,.245-2.51l2.152,0.2a2.333,2.333,0,0,0,.929,0,0.522,0.522,0,0,0,.049.3,1.734,1.734,0,0,0,0-.64,0.319,0.319,0,0,1-.049.2l0.049-.64h-0.1c-0.142-.086-0.414-0.052-0.538-0.148a4.07,4.07,0,0,1-.049-1.476,2.769,2.769,0,0,1-.391-0.246l0.049-.148a1.036,1.036,0,0,1,.831-0.246V15.2l-0.147-.049a0.471,0.471,0,0,0,.049-0.2,2.276,2.276,0,0,0-.391-0.64c0.121-.064.033,0.021,0.1-0.1A4.775,4.775,0,0,1,11.3,11.51a7.588,7.588,0,0,0,.636-1.969,0.513,0.513,0,0,1-.293-0.049H11.98V9Zm2.445,1.083a0.517,0.517,0,0,1,.049.541Zm0,2.658a0.142,0.142,0,0,0,.2,0h-0.2Zm0.391,0v0.1h0.049A0.168,0.168,0,0,0,14.817,12.741Zm-0.293.246V12.839l-0.342-.049v0.1a0.14,0.14,0,0,0-.049.049Zm0.587-.2v0.1h0.049A0.168,0.168,0,0,0,15.11,12.79ZM15.061,15.1a0.412,0.412,0,0,1,0,.394V15.1Zm-0.391.246a0.907,0.907,0,0,0-.049.3,0.765,0.765,0,0,0,.245.049,0.9,0.9,0,0,0,.049-0.3H14.866V15.349h-0.2ZM20.2,15.694c-0.159.041-.075-0.024-0.147,0.1a0.178,0.178,0,0,1,.049.1h0.1v-0.2Zm6.064,0v0.443h0.049v-0.1c0.126-.074.1-0.147,0.1-0.344H26.259Zm-0.978.049a0.414,0.414,0,0,0,.049.246A0.414,0.414,0,0,0,25.281,15.743Zm-8.068.049a0.971,0.971,0,0,0,0,.3,0.176,0.176,0,0,0,.1.049c0.144-.24.186-0.077,0.391-0.2a0.252,0.252,0,0,1-.049-0.148h-0.44Zm0.538,0a0.239,0.239,0,0,0,.049.148A0.239,0.239,0,0,0,17.751,15.792Zm0.245,0v0.2h0.2v-0.2H18Zm4.743,0a0.7,0.7,0,0,0-.049.2,0.686,0.686,0,0,0,.2.049,0.7,0.7,0,0,0,.049-0.2H22.885V15.792H22.738Zm6.65,0.246a0.568,0.568,0,0,1-.147.1,0.327,0.327,0,0,0,0,.246,0.573,0.573,0,0,0,.391.1v-0.1a0.333,0.333,0,0,0,.049-0.2A0.57,0.57,0,0,0,29.389,16.038Zm3.716,0.738c0.041,0.16-.024.075,0.1,0.148A0.187,0.187,0,0,0,33.105,16.776Zm-0.049.443v0.1h0.1v-0.1h-0.1Zm5.624,0.787v0.2h0.391v-0.2H38.68Zm0.831,0.2v-0.2H39.267v0.049c0.042,0.093.023,0.036,0,.148h0.245Zm-0.831.1v0.2h0.391V18.3H38.68Zm0.831,0.2V18.3H39.267v0.1C39.348,18.46,39.248,18.489,39.511,18.5Zm-27.237.492a5.265,5.265,0,0,0-.1,1.624A5.611,5.611,0,0,0,12.274,18.991Zm-8.215.246a0.414,0.414,0,0,0,.049.246A0.414,0.414,0,0,0,4.059,19.237Zm0,0.3v0.1H4.108v-0.1H4.059ZM2.787,21.5a0.551,0.551,0,0,0,.587.148v-0.1A2,2,0,0,0,2.787,21.5Zm-1.174.049c0.019,0.125-.028.078,0.147,0.1v-0.1H1.614Zm0.342,0v0.1H2.641A0.138,0.138,0,0,1,2.689,21.6V21.55H1.956ZM1.271,21.6c0.084,0.043.063,0.044,0.147,0H1.271Zm31.345,0.1a6.3,6.3,0,0,1-1.712.541v0.049h0.147a1.223,1.223,0,0,1,.685-0.1,5.883,5.883,0,0,0,1.027-.492H32.616Zm-31.491.2a1.231,1.231,0,0,0-.2.148H0.88c-0.048.05,0.048,0.049,0.049,0.049a0.877,0.877,0,0,1,.391.1,5.9,5.9,0,0,1,.2,1.034L1.467,22.043h-0.1a1.564,1.564,0,0,1-.244.049V22.043a0.213,0.213,0,0,0,.147-0.148H1.125Zm0.2,0c0.081,0.055.052,0.087,0.1,0H1.32Zm29.927,0.738v0.148h0.147V22.633H31.247Zm0.44,0v0.2a0.235,0.235,0,0,0,.147-0.049,0.167,0.167,0,0,1-.1-0.049,3.9,3.9,0,0,0,.782.049,0.252,0.252,0,0,0,.049-0.148h-0.88Zm2.152,0.246a0.189,0.189,0,0,0,.147.1v-0.1H33.839Zm-32.323.443a0.275,0.275,0,0,0,.049.3A0.522,0.522,0,0,0,1.516,23.322Zm-0.1.246v0.1H1.467A0.169,0.169,0,0,0,1.418,23.568Zm2.2,3.248h0.2v-0.1a0.252,0.252,0,0,0,.049-0.148,0.292,0.292,0,0,1-.2-0.246c-0.2.006-.267,0.027-0.342-0.1a1.494,1.494,0,0,1-.049-0.64,0.322,0.322,0,0,1-.244,0,3.686,3.686,0,0,1-.44-0.64A0.469,0.469,0,0,0,2.3,24.9,1.366,1.366,0,0,0,1.809,24.5c-0.007.667-.007,0.76,0,1.427h-0.1a0.98,0.98,0,0,0-.1-0.541,0.167,0.167,0,0,0,.1-0.049H1.663V25.291a0.409,0.409,0,0,1-.147.1V25.045c0.281-.091.162-0.377,0.244-0.64,0.111,0.02.053,0.045,0.147,0a1.708,1.708,0,0,1-.391-0.689,0.9,0.9,0,0,1-.049.443,0.9,0.9,0,0,0-.049-0.443,5.244,5.244,0,0,1-.1,1.575l0.049-1.477h-0.1a0.418,0.418,0,0,1-.44.246c-0.16-.131-0.342-0.21-0.489-0.344v0.2C0.54,24.227.5,24.694,0.685,25a5.012,5.012,0,0,0,2.592,1.87,0.559,0.559,0,0,0,.2.394V27.21A0.441,0.441,0,0,0,3.619,26.817ZM2,24.946a0.178,0.178,0,0,1,.049.1H2v-0.1Zm-0.342.1a0.176,0.176,0,0,1-.1.049v0.049H1.711A0.169,0.169,0,0,0,1.663,25.045Zm0.293,0a0.178,0.178,0,0,1,.049.1H1.956v-0.1Zm1.418,1.181H3.912V26.177c-0.212-.125-0.341-0.31-0.538-0.443v0.492Zm0.391,0.1,0.049,0.148H3.863V26.423a0.178,0.178,0,0,0,.049-0.1H3.765Zm0.244,0v0.1H4.059v-0.1H4.01Zm-0.342.541v0.1H3.716A0.169,0.169,0,0,0,3.667,26.866Zm31.98,1.329a1.345,1.345,0,0,1-1.027.246v0.541H34.67a5.745,5.745,0,0,1,1.32-.689V28.244Zm-27.09.345a1.33,1.33,0,0,1-.44-0.049v0.1h0.1l0.342,0.246v-0.3Zm14.817,0.541a1.579,1.579,0,0,1-.489.886h1.076V29.917A7.03,7.03,0,0,1,23.374,29.081Zm7.433,0.246a3.231,3.231,0,0,1-.44.64h0.88V29.917A3.262,3.262,0,0,1,30.807,29.327Zm-18.484.049a1.642,1.642,0,0,1-.391.591h0.831V29.917A2.987,2.987,0,0,1,12.323,29.376Zm3.668,0a4.2,4.2,0,0,1-.391.591H16.43V29.917A1.565,1.565,0,0,1,15.99,29.376Zm3.619,0a1.642,1.642,0,0,1-.391.591H20.1V29.917A3.5,3.5,0,0,1,19.609,29.376Zm7.531,0.049a1.948,1.948,0,0,1-.391.541H27.58V29.917A3.211,3.211,0,0,1,27.139,29.425Z" transform="translate(0 0.016)"/>
</svg>
