<svg xmlns="http://www.w3.org/2000/svg" width="40" height="40" viewBox="0 0 40 40">
  <defs>
    <style>
      .cls-1 {
        fill: #fff;
        fill-rule: evenodd;
      }
    </style>
  </defs>
  <path id="Color_Fill_1" data-name="Color Fill 1" class="cls-1" d="M4.494,11a0.139,0.139,0,0,1,0,.193V11Zm0.049,0.29a0.19,0.19,0,0,1,0,.241V11.29Zm0.049,0.29a0.19,0.19,0,0,1,0,.241V11.579Zm0.049,0.29a0.251,0.251,0,0,1,0,.29v-0.29Zm0.049,0.29a0.25,0.25,0,0,1,0,.289V12.158Zm0.049,0.289a0.319,0.319,0,0,1,0,.338V12.448ZM4.79,12.786a0.251,0.251,0,0,1,0,.29v-0.29ZM8.1,19.252V19.107a0.788,0.788,0,0,0,.4-0.386h1.827V17.9h0.148v0.82h2.074a0.439,0.439,0,0,0,.494.338v0.193c1.522,0.005,2.727,0,3.951,0,0.388-.583,2.256-0.351,3.21-0.338,0.4,0.6.723,0.17,1.136,0.386a0.637,0.637,0,0,0-.2.048,0.708,0.708,0,0,0,.1.338,0.179,0.179,0,0,1,.1-0.048c0,0.125-.064.11,0.1,0.193v-0.1c0.1-.071-0.028-0.069.148-0.1v0.048H21.63V19.493a0.515,0.515,0,0,1,0-.241,0.533,0.533,0,0,1-.3-0.048h0.3a2.654,2.654,0,0,0-.049-0.579h0.3c0.112-.037.075-0.011,0.2,0.048a0.335,0.335,0,0,1,.049-0.241,0.3,0.3,0,0,1-.1-0.1h0.148a3.273,3.273,0,0,1,.247-0.869,1.621,1.621,0,0,1-.642-0.483,2.155,2.155,0,0,0,.889-1.206c1.035,0.024,2.488.048,3.6,0.048a16.143,16.143,0,0,1,1.728,0c1.025,0.174,2.247-.13,3.012,0a1.253,1.253,0,0,0,.3.483,7.731,7.731,0,0,0,1.975.29A33.238,33.238,0,0,0,40,16.984v0.483l-9.481.048a12.623,12.623,0,0,1-2.963.29v0.048c0.06,0.086,0,.084.049,0.145,0.2,0.293.659,0.434,0.84,0.724a2.843,2.843,0,0,0,.148,1.11c0.67,0.064.817,0.693,1.482,0.531a15.925,15.925,0,0,0,1.432.82c-0.163.149-.129,0.18-0.049,0.338l-0.1.1h0.049a0.4,0.4,0,0,1,.1.145h0.049a0.306,0.306,0,0,1,.247-0.386,5.276,5.276,0,0,1,.593-0.1,2.59,2.59,0,0,1,1.481-.241,3.411,3.411,0,0,1,.148,1.641c-0.021.051-.346,0.483-0.346,0.483h0.1a0.469,0.469,0,0,0,.2.145v0.1a0.272,0.272,0,0,0-.3.29,2.027,2.027,0,0,1,0,2.22,3.8,3.8,0,0,1-1.827,1.062q-1.506.638-3.062,1.3a9.869,9.869,0,0,1-1.58.676L22.321,29H12.988c-1.247,0-2.584-.04-3.753-0.048A7.84,7.84,0,0,1,7.21,28.9l-3.9-2.365a7.367,7.367,0,0,0-1.086-1.3,5.925,5.925,0,0,0-.346.483,0.377,0.377,0,0,0-.1-0.241,0.3,0.3,0,0,0,.1-0.1,0.833,0.833,0,0,1-.2-0.29,0.171,0.171,0,0,0,.1-0.048H1.728V24.995H1.63c-0.01.068,0.041-.019,0.049,0.048,0.095,0.037-.1.048-0.1,0.048V25.043A0.41,0.41,0,0,1,1.531,24.8a1.509,1.509,0,0,1-.593-0.145,0.172,0.172,0,0,1-.049-0.1H0.938V24.512a2.4,2.4,0,0,0,.691-0.048V24.416a0.212,0.212,0,0,1-.148-0.145,0.585,0.585,0,0,0,.4-0.386,2.144,2.144,0,0,1-.642-0.193,0.274,0.274,0,0,0,.1-0.29l-0.148.048A2.553,2.553,0,0,0,.4,22.582a6.817,6.817,0,0,0,.1-1.062A8.035,8.035,0,0,1,0,20.555,0.567,0.567,0,0,0,.3,20.41a0.171,0.171,0,0,1,.1.048,1.813,1.813,0,0,0,.593.82,0.423,0.423,0,0,1,.444.241,0.53,0.53,0,0,1,.049.531h0.4a1.465,1.465,0,0,0,0-.482H1.827a0.2,0.2,0,0,1-.2.1L1.58,21.52a1.74,1.74,0,0,0,.346-0.386,0.4,0.4,0,0,0,.4-0.193H2.272a0.364,0.364,0,0,0-.2-0.193c0.111-.077.1-0.079,0.1-0.145a2.457,2.457,0,0,0-.148-0.338c0.709-.435,1.071-0.729,1.728-1.158a1.137,1.137,0,0,1,.741-0.386,0.7,0.7,0,0,1,.346.434,0.8,0.8,0,0,1,.346-0.193,0.138,0.138,0,0,0,.049.048L5.086,19.2h0.1a0.251,0.251,0,0,1,.247-0.1,0.306,0.306,0,0,0,.2.1,2.243,2.243,0,0,0,.049-0.531c-0.278-1.3-.336-2.752-0.642-4.005a5.626,5.626,0,0,1-.148-1.592,7.863,7.863,0,0,0,.3,1.785c0.184,0.729.109,1.393,0.3,2.123a18.146,18.146,0,0,1,.4,1.979,0.171,0.171,0,0,1,.1.048,1.757,1.757,0,0,1,.3-0.1,0.4,0.4,0,0,0,.4.338,2.765,2.765,0,0,0,.444-0.241A2.431,2.431,0,0,1,8.1,19.252ZM32,16.55a0.308,0.308,0,0,0-.1.241,0.17,0.17,0,0,1,.1.048,0.171,0.171,0,0,0,.1-0.048,0.32,0.32,0,0,0,.049-0.193ZM32.444,16.6a0.67,0.67,0,0,0-.049.193,0.71,0.71,0,0,0,.2.048,0.673,0.673,0,0,0,.049-0.193H32.593V16.6H32.444Zm0.543,0.241V16.646a0.637,0.637,0,0,0-.2.048,0.165,0.165,0,0,0,.049.1A0.255,0.255,0,0,0,32.988,16.839Zm0.2-.145c0.011,0.073-.018.171,0.1,0.1a0.172,0.172,0,0,0,.049-0.1H33.185Zm0.3,0.048v0.1h0.1v-0.1h-0.1Zm0.3,0v0.048H33.728c-0.095.037,0.1,0.048,0.1,0.048A0.165,0.165,0,0,0,33.778,16.743Zm0.2,0.048a0.179,0.179,0,0,0,.1.048A0.18,0.18,0,0,0,33.975,16.791Zm-1.58.1a0.42,0.42,0,0,0,.4,0H32.4Zm0.543,0a0.42,0.42,0,0,0,.4,0h-0.4Zm0.494,0a0.507,0.507,0,0,0,.444,0H33.432Zm0.543,0a0.507,0.507,0,0,0,.445,0H33.975Zm0.543,0a0.266,0.266,0,0,0,.3,0h-0.3ZM19.21,19.156v0.1h0.938V19.2A3.525,3.525,0,0,0,19.21,19.156Zm-14.272.1a0.18,0.18,0,0,0,.1.048A0.179,0.179,0,0,0,4.938,19.252Zm16.346,0.241a0.881,0.881,0,0,1,.2.1H21.432c-0.077.06-.025,0.031-0.1,0h-0.1Zm0.2,0h0.1v0.048h-0.1V19.493Zm-16.2.772V20.072H5.235a0.47,0.47,0,0,1-.2.145v0.048H5.284Zm-0.4.048c0.019,0.126-.037.063,0.1,0.1v-0.1h-0.1Zm-0.148.1c0.016,0.107-.051.052,0.049,0.1A0.164,0.164,0,0,0,4.741,20.41Zm25.037,0.1a4.14,4.14,0,0,0,1.136.724,0.17,0.17,0,0,0,.1-0.048,3.735,3.735,0,0,0-.938-0.676v0.1a1.528,1.528,0,0,1,.346.145v0.1H30.37A2.451,2.451,0,0,0,29.778,20.507Zm1.086,0.434a0.372,0.372,0,0,0,.247.193A0.794,0.794,0,0,0,30.864,20.941Zm0.444,0,0.148,0.048v0.048A0.188,0.188,0,0,1,31.309,20.941Zm0.148,0.1a0.188,0.188,0,0,1,.148.1h0.049v0.048A0.266,0.266,0,0,1,31.457,21.038Zm1.926,0.048c-0.162.1-.446,0.081-0.593,0.193,0.282,0.025.52,0.191,0.642-.1,0.039-.092.049,0.1,0.049,0.1a0.447,0.447,0,0,0,.346.1,0.179,0.179,0,0,0,.1.048v-0.1a0.777,0.777,0,0,0-.247-0.193A0.546,0.546,0,0,0,33.383,21.086Zm-29.975.241a2.839,2.839,0,0,0-.494.434H2.963V21.81a0.171,0.171,0,0,0,.1-0.048,1.451,1.451,0,0,0,.444-0.386A0.179,0.179,0,0,0,3.407,21.327Zm29.037,0.048c0.014,0.15,0,.364,0,0.627h0.049V21.954c0.143-.153.218-0.419,0.346-0.579A1.033,1.033,0,0,1,32.444,21.375Zm-0.79.434a0.242,0.242,0,0,0,.148-0.048,1.371,1.371,0,0,1,.3-0.338l-0.3.048a0.433,0.433,0,0,1-.148.145V21.81Zm0.642-.338c0,0.1-.077.036,0,0.1,0.008,0.068.049,0.048,0.049,0.048V21.472H32.3Zm0.642,0.241,0.1,0.193h0.1a0.721,0.721,0,0,0,.1-0.193h-0.3Zm-30.222.193V22h0.1v-0.1h-0.1Zm31.012,0.869a2.484,2.484,0,0,1-.938-0.531v0.1a1.836,1.836,0,0,0,.2.29,1.4,1.4,0,0,0,.642.434V23.016A0.322,0.322,0,0,0,33.728,22.775Zm-1.284-.434c0.082,0.054.053,0.085,0.1,0h-0.1Zm0.494,2.268a0.5,0.5,0,0,0-.1.29l0.2,0.048v-0.29Zm-30.864.434a0.294,0.294,0,0,0-.1.193H2.025a0.434,0.434,0,0,1,.148-0.145A0.179,0.179,0,0,0,2.074,25.043ZM32.79,25.188a0.317,0.317,0,0,0-.148.29h0.1a0.721,0.721,0,0,0,.1-0.193h0.049c0.049-.049-0.049-0.048-0.049-0.048V25.188H32.79Zm-0.593.386c-0.043.109-.088,0.125-0.049,0.193v0.048a0.5,0.5,0,0,0,.3-0.193h-0.1A0.256,0.256,0,0,0,32.2,25.574Zm-0.395.1a1.942,1.942,0,0,0-.346.1v0.048h0.049a0.235,0.235,0,0,0,.247.1V25.863H31.8V25.67Zm-1.037.145-0.049.193a4.622,4.622,0,0,0-1.432.724c-0.383.157-.775,0.019-0.84,0.483a0.938,0.938,0,0,0-.1.193h0.1a2.2,2.2,0,0,1,.593-0.241c0.429-.183.906-0.445,1.333-0.627a3.95,3.95,0,0,0,.938-0.386A5.236,5.236,0,0,0,30.765,25.815Zm-6.222.145a2.6,2.6,0,0,1-.988.048v0.048c0.544,0.539-.009,1.555-0.247,1.93h2.173V27.938c-0.572-.517-0.418-1.148-0.3-1.93H25.136V25.96H24.543Zm-18.37.048a3.17,3.17,0,0,0-.988.1,0.527,0.527,0,0,1-.1.145,0.356,0.356,0,0,1,0,.241c0.448,0.136.74,0.528,1.185,0.676v-0.1A1.013,1.013,0,0,1,6.321,26.3,0.467,0.467,0,0,1,6.173,26.008Zm8.049,0.1a2.071,2.071,0,0,1-.4,1.93h2.321v-0.1A1.688,1.688,0,0,1,15.8,26.1h-1.58Zm-9.432.145a0.191,0.191,0,0,0,.148.1A0.574,0.574,0,0,0,4.79,26.249Zm5.136,0.724a6.91,6.91,0,0,0-.741,1.013h2.173V27.938a4.3,4.3,0,0,1-.642-0.965H9.926Zm9.432,0a3.49,3.49,0,0,0-.3.193l-0.049.29c-0.09.218-.312,0.349-0.395,0.579H20.79v-0.1C20.091,27.427,20.859,26.944,19.358,26.973Z"/>
</svg>
