<svg xmlns="http://www.w3.org/2000/svg" width="40" height="40" viewBox="0 0 40 40">
  <defs>
    <style>
      .cls-1 {
        fill: #fff;
        fill-rule: evenodd;
      }
    </style>
  </defs>
  <path id="germ_stug_iii_ausf_g_ico" class="cls-1" d="M12.561,19.739V19.295a1.331,1.331,0,0,0,.29-0.026V19.138c-0.066-.038-0.041-0.011-0.053-0.1h0.579V18.746H13.167V18.615c1.449,0,2.778,0,4.319,0v0.131H17.3v0.288h0.553a4.846,4.846,0,0,0-.053.627c0.35,0,.467.016,0.764,0.026v-0.1c-0.068,0-.06.034-0.105-0.052,0.141-.111.188-0.32,0.316-0.444,0.114,0.133.151,0.064,0.369,0.052a1.587,1.587,0,0,1-.105.523c0.835,0.081,2.015.1,3.213,0.1a0.406,0.406,0,0,1,0-.34,0.615,0.615,0,0,1,.263-0.052l0.053,0.392h1.053L23.805,20h1.606a0.642,0.642,0,0,0,.29.026,0.651,0.651,0,0,1,.026.209h0.079V20.5H25.728V21.2a1.349,1.349,0,0,1,.237.131H29.1a0.364,0.364,0,0,1,.132.288L35.313,21.7l2.528,0.026c0.035-.009.123-0.069,0.158-0.078l0.4-.026V21.568c0.123-.044.145,0.11,0.29,0.078l0.553-.287a0.3,0.3,0,0,1,.211.078h0.5a5.9,5.9,0,0,1,0,1.228h-0.5a0.3,0.3,0,0,1-.237.078c-0.192-.053-0.367-0.234-0.579-0.287H37.972c-0.03-.008-0.107-0.071-0.132-0.078l-8.611.1v0.131a3.2,3.2,0,0,1-1.448.131V22.77h0.026c0.4,0.352.525-.052,0.5,0.836a1.418,1.418,0,0,0,.395.026,2.757,2.757,0,0,0,.711.052,5.174,5.174,0,0,0,1.027.078,0.2,0.2,0,0,1,.132-0.209,2.044,2.044,0,0,1,1.132.026,0.26,0.26,0,0,1,.079.131h-0.5c-0.129.043-.179,0.168-0.342,0.235a0.075,0.075,0,0,0,.026.026,11.255,11.255,0,0,1,1.211,1.071c-0.147.093-.226,0.245-0.369,0.34a0.074,0.074,0,0,0,.026.026,0.449,0.449,0,0,1,.211.288,1.038,1.038,0,0,1-.026.313,0.571,0.571,0,0,1-.184.026,1.777,1.777,0,0,1-.132.34c-0.013.095,0.075,0.168,0.079,0.314a0.1,0.1,0,0,0-.079.1c0.021,0.029,0,.091.026,0.131,0.052,0.082.12,0,.158,0.131a0.094,0.094,0,0,0-.026.052H31.837a0.134,0.134,0,0,0-.079-0.026,2.734,2.734,0,0,1,0,.418H31.652a2.948,2.948,0,0,1-.158.758,0.345,0.345,0,0,0-.132,0,4.32,4.32,0,0,1-.395.653c-0.038-.025-0.057-0.093-0.079-0.052a3.247,3.247,0,0,1-.421.313,0.366,0.366,0,0,1,.026.1c-0.062.018-.088,0.066-0.132,0.078l-0.211-.026a1.855,1.855,0,0,1-.369.157v0.1H29.756v0.026a0.574,0.574,0,0,0-.184.052V29.589a4.678,4.678,0,0,0-.5.131v0.1H29.045V29.85a0.574,0.574,0,0,0-.184.052V29.824a4.7,4.7,0,0,0-.5.131v0.1H28.334v0.026a0.574,0.574,0,0,0-.184.052V30.059a0.919,0.919,0,0,0-.474.157,0.509,0.509,0,0,0-.053.1,0.574,0.574,0,0,0-.184.052V30.295c-0.2.013-.3,0.1-0.5,0.131v0.1H26.912v0.026a0.574,0.574,0,0,0-.184.052,0.168,0.168,0,0,0-.026-0.1,1.081,1.081,0,0,1-.474.157v0.1H26.2v0.026a0.574,0.574,0,0,0-.184.052c-0.019-.1,0-0.084-0.105-0.1a0.844,0.844,0,0,1-.342.052v0.078a0.978,0.978,0,0,1-.369.052,0.133,0.133,0,0,1-.026-0.078,1.831,1.831,0,0,1-.553.026v0.1H24.411v-0.1a0.569,0.569,0,0,1-.316.052,0.37,0.37,0,0,0-.211-0.052v0.1c-0.286,0-.395-0.1-0.711-0.1v0.1c-0.275,0-.326-0.1-0.685-0.1-0.012.085-.084,0.11-0.263,0.1v-0.1c-0.311,0-.437.094-0.711,0.1v-0.1H21.33c-0.011.072-.088,0.058-0.237,0.052-0.039-.066-0.012-0.04-0.105-0.052v0.1c-0.285,0-.439-0.1-0.737-0.1v0.1a1.366,1.366,0,0,0-.606-0.1,0.452,0.452,0,0,1-.316.1v-0.1a1.419,1.419,0,0,1-.527.026v0.078H18.591v-0.1H18.512v0.078c-0.2,0-.235-0.068-0.421-0.078v0.1L17.7,30.948V30.869H17.38a0.125,0.125,0,0,1-.026.078,0.419,0.419,0,0,1-.211.026c-0.039-.133-0.146-0.115-0.316-0.1v0.078l-0.395.026v-0.1H16.247v0.078a0.846,0.846,0,0,1-.342-0.078v0.1c-0.227,0-.235-0.026-0.474-0.026V30.869H15.168v0.1c-0.282,0-.306-0.1-0.606-0.1-0.035.078,0.025,0.063-.105,0.078a0.419,0.419,0,0,1-.211.026v-0.1H13.983v0.078c-0.239,0-.247.024-0.474,0.026v-0.1a1.024,1.024,0,0,1-.342.078V30.869H13.009v0.1c-0.314,0-.4-0.1-0.711-0.1V30.9H12.271L12.3,30.948H12.271a0.419,0.419,0,0,1-.211.026V30.948H12.034V30.869H11.718v0.078l-0.369.026v-0.1c-0.214,0-.218.074-0.448,0.078V30.869H10.823v0.1c-0.3,0-.411-0.1-0.711-0.1v0.1L9.77,30.948V30.869H9.454v0.078l-0.29.026v-0.1c-0.294,0-.406.1-0.711,0.1v-0.1H8.321v0.078a2.41,2.41,0,0,1-.395-0.078v0.1L7.5,30.948c-0.039-.1-0.024-0.118-0.158-0.131a0.5,0.5,0,0,0-.237-0.052v0.078l-0.263-.026V30.791a0.133,0.133,0,0,0,.026-0.078,1.176,1.176,0,0,1-.342-0.157,0.536,0.536,0,0,1-.369-0.078A0.3,0.3,0,0,0,6.215,30.4C6.1,30.371,5.747,30.2,5.741,30.216c-0.023.019-.03,0.033-0.053,0.052A0.315,0.315,0,0,0,5.53,30.19a0.153,0.153,0,0,0,0-.1,0.3,0.3,0,0,0-.211-0.052,0.427,0.427,0,0,0-.237-0.157,0.175,0.175,0,0,1-.237-0.052A0.1,0.1,0,0,0,4.9,29.746a0.508,0.508,0,0,1-.421-0.209c-0.066.02-.086,0.082-0.105,0.052a0.735,0.735,0,0,1-.342-0.261,0.767,0.767,0,0,0-.342-0.078,0.382,0.382,0,0,1-.263-0.157A0.093,0.093,0,0,0,3.45,29.04a0.744,0.744,0,0,1-.316-0.157c-0.042.025-.079,0.095-0.105,0.052a1.571,1.571,0,0,1-.342-0.183A0.44,0.44,0,0,0,2.66,28.6l-0.184-.1a0.1,0.1,0,0,1-.079.052,0.64,0.64,0,0,1-.132-0.157s0.076-.034.053-0.052H2.291l-0.026-.078c-0.059.023-.068,0.047-0.105,0.026A0.334,0.334,0,0,1,2,28.1,0.1,0.1,0,0,0,2.054,28a0.354,0.354,0,0,1-.211-0.157,0.449,0.449,0,0,1,0-.183,0.122,0.122,0,0,0-.132-0.131,0.1,0.1,0,0,1-.053.026c-0.017-.138-0.054-0.138-0.211-0.131a1.926,1.926,0,0,1-.711,0c-0.028.005-.085,0.043-0.132,0.052V25.618H0.316l-0.079.287a0.316,0.316,0,0,1-.211-0.1,5.325,5.325,0,0,0,.184-0.6H0.158l-0.079-.34-0.053.026V24.86H0a0.284,0.284,0,0,1,.105-0.183V24.7c0.027,0.026.026-.026,0.026-0.026a0.546,0.546,0,0,0,.079-0.261,0.089,0.089,0,0,1-.079,0,0.284,0.284,0,0,1,.105-0.183,1.12,1.12,0,0,0,.421-0.366,0.3,0.3,0,0,0-.132,0,0.674,0.674,0,0,1-.211.183V24.024a0.32,0.32,0,0,1-.105-0.1,5.335,5.335,0,0,1,.816-0.784,1.345,1.345,0,0,0,.79-0.1V22.953a0.816,0.816,0,0,0,.369-0.131,0.133,0.133,0,0,0,.026-0.078H2.186V22.717H2.107a1,1,0,0,1,.184-0.5H2.212V22.064a0.836,0.836,0,0,0,.4-0.078H2.633V21.829a12.168,12.168,0,0,1-1.448.209V21.986a1.624,1.624,0,0,1-.079-0.314,2.461,2.461,0,0,0,.316-0.157l0.711-.131L2.08,21.1c-0.343.012-.611,0.1-1.027,0.1A1.112,1.112,0,0,1,1,20.836,2.073,2.073,0,0,1,1.843,20.6,8.869,8.869,0,0,1,4,20.235L4.055,20.6a3.525,3.525,0,0,1-1,.288,0.68,0.68,0,0,0,.079.313,1.964,1.964,0,0,1,1-.1l0.053,0.366c-0.208.049-.452,0.15-0.685,0.209a1.866,1.866,0,0,0-.632.131,0.746,0.746,0,0,1,.053.131l0.421-.078v0.052a0.132,0.132,0,0,1,.026.078,2.852,2.852,0,0,0,1.264-.261l0.685-.131a3.283,3.283,0,0,1,.764-0.209v0.052a0.274,0.274,0,0,0,.026.183,4.707,4.707,0,0,1,1-.131c0.781-.178,1.668-0.16,2.449-0.34a4.617,4.617,0,0,0,1-.131h0.026V20.34h1.5a0.6,0.6,0,0,0,0-.235h0.132c0.037-2.649.026-5.408,0.026-8.1V9.836A2.353,2.353,0,0,1,12.271,9V19.739H12.3A0.44,0.44,0,0,1,12.561,19.739Z" transform="translate(0 0.016)"/>
</svg>
