<?xml version="1.0" encoding="utf-8"?>
<!-- Generator: Adobe Illustrator 16.0.0, SVG Export Plug-In . SVG Version: 6.00 Build 0)  -->
<!DOCTYPE svg PUBLIC "-//W3C//DTD SVG 1.1//EN" "http://www.w3.org/Graphics/SVG/1.1/DTD/svg11.dtd">
<svg version="1.1" id="Layer_1" xmlns="http://www.w3.org/2000/svg" xmlns:xlink="http://www.w3.org/1999/xlink" x="0px" y="0px"
	 width="39.969px" height="40px" viewBox="0 0 39.969 40" enable-background="new 0 0 39.969 40" xml:space="preserve">
<path id="germ_pzkpfw_iv_ausf_f2_ico" fill="#FFFFFF" d="M21.982,13.758l0.291,0.026c-0.001-0.029,0.008-0.057,0.025-0.079
	c0.031-0.02,0.068-0.029,0.106-0.026v0.053c-0.017,0.023-0.026,0.051-0.026,0.079H22.8v0.026h0.026
	c-0.01,0.075,0.01,0.15,0.053,0.211c0.15,0.127,0.334,0.209,0.528,0.238v-0.052c-0.109-0.104-0.132-0.271-0.054-0.4
	c0.014,0.015,0.023,0.033,0.026,0.053l0.238,0.37h2.062c0.022-0.086-0.013-0.04,0.053-0.079v0.079l0.528-0.026v0.135
	c0.117,0.047,0.245,0.065,0.37,0.053c0.018-0.086,0.098-0.144,0.186-0.132c0.028,0.039,0.047,0.084,0.053,0.132h2.061
	c0.018-0.086,0.099-0.144,0.186-0.132c0.093,0.124,0.247,0.185,0.4,0.158c0.051,0.061,0.088,0.133,0.105,0.211l7.5,0.079
	c0.45,0.018,0.901-0.008,1.347-0.079l0.4-0.026c0.146-0.146,0.349-0.223,0.555-0.211c0.219,0.063,0.413,0.192,0.556,0.37
	c0.034,0.229,0.025,0.462-0.026,0.687c-0.154,0.313-0.519,0.46-0.847,0.343c-0.09-0.037-0.174-0.154-0.264-0.185l-0.449-0.026
	c-0.656-0.083-1.32-0.1-1.98-0.053l-4.174,0.026v0.026h0.025c0.27,0.057,0.545,0.083,0.819,0.079c0.101,0.027,0.2,0.13,0.291,0.159
	h0.687c0.539,0,0.9-0.016,1.348,0v0.211h-1.987c-0.142-0.043-0.3-0.171-0.448-0.211h-2.615c-0.25,0.08-0.471,0.34-0.713,0.423
	h-5.471v-0.186h1.374c0.16,0.034,0.327,0.016,0.476-0.053H23.8c-0.075,0.171-0.137,0.347-0.185,0.527
	c-0.078-0.048-0.135-0.123-0.159-0.211c0.067-0.122,0.104-0.26,0.106-0.399H23.54c-0.065,0.123-0.155,0.23-0.265,0.316l0.16,0.819
	h1.347c0.036,0.145,0.108,0.143,0.291,0.132c0.067-0.147,0.124-0.021,0.237-0.053c0.039-0.011,0.026-0.101,0.106-0.079
	c0.04,0.046,0.098,0.074,0.159,0.079c0.436-0.026,0.873,0.019,1.295,0.132l0.4-0.025c0.018,0.01,0.028,0.09,0.053,0.105
	c0.096,0.016,0.193,0.023,0.291,0.025l0.025,0.08c0.115,0.021,0.233,0.012,0.344-0.026h0.025c0.09,0,0.043,0.065,0.079,0.079
	c0.069-0.017,0.14-0.025,0.211-0.026c0,0.119-0.032,0.122,0.026,0.158c0.049,0.023,0.104,0.032,0.158,0.026v-0.103h0.027v-0.026
	h0.079l0.026-0.132c0.068-0.025,0.139-0.044,0.211-0.053c0.032,0.057,0.051,0.12,0.053,0.185h0.105v-0.105
	c0.051-0.048,0.116-0.076,0.186-0.079c0.015,0.015,0.033,0.023,0.053,0.026c-0.003,0.037,0.006,0.074,0.026,0.105
	c0.095-0.127,0.241-0.203,0.399-0.211l0.05,0.105c0.041,0.024,0.161-0.067,0.211,0.025v0.581c-0.033,0.041-0.017,0.015,0,0.054
	s0.166,0.225,0.185,0.237c0.131,0.089,0.155-0.073,0.186,0.132c-0.029,0-0.057,0.01-0.079,0.026
	c0.063,0.055,0.052,0.079,0.026,0.158H31.1c0.127-0.063,0.358,0.089,0.5,0.026v-0.052h0.265c0.146-0.146,0.351-0.214,0.555-0.185
	c-0.021,0.133-0.011,0.27,0.026,0.4c0.107,0.043,0.193,0.129,0.238,0.237h-0.267v0.211h-0.052c-0.023,0.017-0.051,0.026-0.079,0.026
	v0.423h0.132c0,0.1,0,0.082,0.159,0.079c0.243,0.053,0.491,0.08,0.739,0.078c0.571,0.141,1.122,0.354,1.639,0.635
	c0.188,0.021,0.358,0.115,0.475,0.264h-0.08c-0.027-0.035-0.064-0.063-0.105-0.078v0.105c0.115,0.146,0.213,0.306,0.291,0.475
	c0.256,0.323,0.549,0.615,0.872,0.871c-0.015,0.034-0.022,0.07-0.026,0.106c-0.036,0.003-0.072,0.011-0.105,0.026
	c0.022,0.031,0.04,0.067,0.053,0.105c-0.152,0.004-0.305,0.031-0.449,0.079c0.092,0.136,0.092,0.313,0,0.448
	c-0.08,0.054-0.17,0.09-0.264,0.106c0.005,0.142-0.004,0.282-0.026,0.422c-0.106,0.015-0.108,0.005-0.132,0.106
	c-0.041,0.082-0.059,0.173-0.053,0.264h0.078c-0.023,0.154-0.068,0.306-0.131,0.449c-0.101,0-0.119-0.014-0.16,0.053
	c-0.064,0.051-0.104,0.129-0.105,0.211c0.037,0.063,0.045,0.016,0.025,0.079c-0.02,0.056-0.047,0.108-0.078,0.158l-0.106-0.031
	c0.013,0.11,0.015,0.167-0.106,0.211c-0.042,0.017-0.089,0.017-0.131,0c-0.054,0.055-0.099,0.117-0.133,0.185
	c0,0,0.076,0.035,0.053,0.054h-0.025c-0.043,0.065-0.109,0.112-0.186,0.132c-0.033-0.064,0.012-0.018-0.053-0.053
	c-0.129,0.216-0.376,0.177-0.423,0.343c0,0.049,0.025,0.024-0.026,0.054c-0.039,0.047-0.097,0.076-0.158,0.078l-0.026-0.078
	c-0.147,0.1-0.308,0.18-0.476,0.237c0.015,0.078,0.054,0.082-0.026,0.132c-0.034,0.035-0.083,0.055-0.132,0.053l-0.026-0.078
	c-0.179,0.041-0.339,0.144-0.448,0.291c0.006,0.025,0.021,0.01,0,0.025c-0.051,0.049-0.116,0.077-0.186,0.079l-0.025-0.079
	c-0.18,0.041-0.339,0.145-0.449,0.291c0.014,0.015,0.022,0.033,0.025,0.053c-0.1,0.015-0.111,0.037-0.211,0.054
	c0-0.028-0.009-0.057-0.025-0.079c-0.175,0.052-0.33,0.152-0.449,0.291c0,0.049,0.025,0.023-0.026,0.053
	c-0.05,0.032-0.103,0.059-0.159,0.079c-0.005-0.04-0.023-0.077-0.053-0.106c-0.119,0.101-0.327,0.112-0.449,0.211
	c-0.014,0.059-0.053,0.106-0.105,0.133c-0.039,0.027-0.085,0.045-0.133,0.053v-0.08c-0.178,0.063-0.365,0.098-0.555,0.105v0.08
	l-0.211,0.025v-0.105h-0.054c-0.076,0.029-0.157,0.037-0.238,0.026v0.079h-0.211c-0.022-0.086,0.013-0.04-0.053-0.079v0.106h-0.212
	v-0.106h-0.237v0.079c-0.103,0.003-0.204-0.024-0.291-0.079v0.106h-0.211v-0.106h-0.212v0.079c-0.109-0.006-0.218-0.032-0.316-0.079
	v0.106h-0.212v-0.106H27.16c-0.038,0.085-0.032,0.083-0.211,0.079c-0.034-0.086-0.023-0.068-0.133-0.079v0.106h-0.211v-0.106H26.42
	v0.079c-0.116-0.019-0.23-0.045-0.344-0.079v0.106h-0.211v-0.106h-0.133c-0.037,0.085-0.031,0.083-0.211,0.079
	c-0.045-0.08-0.056-0.079-0.185-0.079v0.106h-0.211v-0.106H25.02c-0.037,0.085-0.031,0.083-0.211,0.079
	c-0.049-0.084-0.074-0.083-0.211-0.079v0.106h-0.212v-0.106c-0.036,0.003-0.072,0.012-0.105,0.026
	c-0.011,0.068-0.042,0.057-0.186,0.053c-0.051-0.087-0.1-0.085-0.237-0.079v0.106h-0.211v-0.106h-0.08v0.079
	c-0.215,0-0.219-0.075-0.448-0.079v0.106h-0.212v-0.106h-0.053v0.079h-0.211v-0.079h-0.265v0.106c-0.224,0-0.222-0.026-0.448-0.026
	v-0.08h-0.291v0.106l-0.424-0.026v-0.08H20.9v0.106l-0.4-0.026v-0.08h-0.341v0.106l-0.37-0.026v-0.08h-0.37v0.106
	c-0.318,0-0.411-0.1-0.766-0.106v0.106c-0.116,0.017-0.234-0.022-0.317-0.106h-0.423v0.106c-0.109,0.021-0.221-0.02-0.291-0.106
	h-0.449v0.106c-0.091,0.016-0.186-0.004-0.264-0.053v-0.054h-0.476v0.106h-0.211c-0.006-0.011-0.016-0.02-0.026-0.026v-0.08
	c-0.167-0.015-0.335-0.006-0.5,0.026l0.026,0.053h-0.028c-0.067,0.027-0.14,0.035-0.211,0.026v-0.105h-0.5
	c0,0.028-0.009,0.057-0.026,0.079c-0.067,0.027-0.14,0.035-0.211,0.026v-0.105h-0.453c-0.07,0.087-0.182,0.128-0.291,0.106v-0.106
	H13.58v0.026h-0.026v0.079h-0.291v-0.105h-0.4v0.026H12.84v0.079h-0.317v-0.105h-0.4v0.106h-0.34v-0.106h-0.37v0.106h-0.37v-0.106
	H10.7v0.106h-0.4v-0.106H9.987v0.106H9.564v-0.106H9.273v0.106H8.824v-0.106H8.56v0.106H8.349c-0.003-0.037-0.012-0.072-0.026-0.106
	H8.269v0.106H8.058v-0.106H7.847l-0.026,0.079c0,0-0.426-0.025-0.476-0.025v-0.106c-0.177,0.002-0.354-0.017-0.528-0.054
	c-0.002,0.037-0.011,0.073-0.026,0.106c-0.061-0.015-0.123-0.023-0.185-0.026c-0.03-0.1,0.036-0.123-0.132-0.131
	c-0.134-0.059-0.279-0.086-0.424-0.08v0.08L5.812,27.2c0.01-0.078,0.053-0.056-0.026-0.106c-0.159-0.064-0.329-0.1-0.5-0.105v0.105
	H5.258C5.2,27.057,5.1,27.054,5.046,27.016c0.017-0.022,0.026-0.051,0.026-0.078c-0.179-0.033-0.355-0.076-0.528-0.133
	c-0.022,0.086,0.013,0.04-0.053,0.079c-0.05-0.032-0.104-0.058-0.159-0.079c0.014-0.033,0.022-0.069,0.026-0.105l-0.5-0.158
	l-0.027,0.075c-0.059-0.026-0.121-0.045-0.185-0.054v-0.129c-0.14-0.07-0.291-0.114-0.446-0.133
	c-0.018,0.021-0.035,0.059-0.053,0.079c-0.054-0.038-0.119-0.058-0.185-0.053c0.003-0.063-0.027-0.123-0.079-0.158
	c-0.1-0.08-0.275-0.095-0.37-0.185c-0.063,0.044-0.135,0.07-0.211,0.078c-0.055-0.031-0.108-0.066-0.159-0.105V25.8
	c-0.114-0.086-0.238-0.157-0.37-0.211c0,0-0.035,0.076-0.053,0.054v-0.026c-0.108-0.068-0.192-0.171-0.238-0.29
	c0.03-0.016,0.05-0.046,0.053-0.079c-0.067-0.106-0.157-0.197-0.264-0.265v0.026c-0.027,0.026-0.026-0.026-0.026-0.026
	c-0.107-0.222-0.161-0.466-0.159-0.713L1,24.294l-0.026-0.237h0.083v-0.132c-0.029,0.001-0.056-0.009-0.079-0.026
	c-0.028-0.075-0.037-0.157-0.026-0.237h0.105l0.026-0.159c-0.036-0.003-0.072-0.012-0.105-0.025c0.02-0.078,0.027-0.158,0.022-0.238
	c0.078,0.009,0.055,0.053,0.106-0.027c0.1-0.116-0.017-0.115,0-0.238c0-0.024,0.044-0.087,0.053-0.132
	c0.053-0.005,0.102-0.034,0.132-0.079c-0.038-0.021-0.059-0.063-0.053-0.105c0.039-0.035,0.066-0.082,0.079-0.133
	c0.042,0.022,0.091,0.022,0.132,0c0.049-0.047,0.082-0.11,0.132-0.158c-0.024-0.064-0.028-0.042-0.053-0.106
	c0.125-0.077,0.225-0.187,0.291-0.317c-0.078-0.066-0.125-0.161-0.132-0.264c-0.51,0.048-1.015,0.145-1.506,0.29
	C0.046,21.797-0.019,21.58,0,21.363c0.134-0.039,0.116-0.147,0.106-0.317h0.079c0.005,0.085,0.032,0.167,0.079,0.238
	c0.178-0.088,0.364-0.159,0.555-0.211c0.092-0.042,0.194-0.142,0.291-0.186c0.19-0.014,0.359-0.123,0.449-0.29
	c0.066-0.217,0.165-0.421,0.291-0.607c-0.039-0.156-0.13-0.254-0.159-0.422c0.071-0.072,0.164-0.119,0.264-0.133
	c0.111-0.037,0.231-0.037,0.343,0c0.003,0.126,0.089,0.234,0.211,0.265c0.182-0.045,0.37-0.054,0.555-0.026v-0.058
	c-0.047-0.099-0.065-0.209-0.053-0.317c-0.078,0.008-0.152-0.034-0.185-0.105c0.174-0.461,0.298-0.939,0.37-1.426
	c0.163,0.018,0.279,0.062,0.4,0.078c0.001-0.111,0.049-0.216,0.132-0.289c0.09-0.053,0.188-0.089,0.291-0.106l0.053,0.079
	c0.377-0.108,0.77-0.152,1.162-0.133V17.27h0.42v0.158l1-0.025v-0.079h0.268v-0.107h0.291l0.026-0.157
	c0.125-0.002,0.249-0.02,0.37-0.054c0.36-0.044,0.725-0.035,1.083,0.026c0.062,0.023,0.549-0.026,0.687-0.026
	c0.063,0.14,0.133,0.144,0.343,0.132v0.106h0.291v-0.105c0.264,0,0.427-0.006,0.661,0v0.078h0.106v-0.1h0.105
	c0.004-0.216,0.04-0.429,0.106-0.634h-0.53c-0.203,0.075-0.422,0.093-0.634,0.053H7.952c0.037-1.008,0.053-2.059,0.053-3.116
	c0.135-0.003,0.269-0.021,0.4-0.053l0.264,0.026c0.556-0.109,1.245-0.072,1.77-0.185c0.075-0.011,0.15,0.009,0.211,0.053
	l0.291-0.026l0.026,0.053c0.31-0.01,0.619-0.036,0.925-0.079v-0.192h-0.135c-0.124-0.148-0.189-0.335-0.185-0.528
	c0.109-0.183,0.146-0.399,0.105-0.607c0.014-0.015,0.023-0.033,0.026-0.053c0.25,0,0.227-0.148,0.211-0.4h0.5l0.026-0.079h1.03
	c0.694-0.061,1.393-0.061,2.087,0v0.079h0.5c0.021,0.078,0.03,0.158,0.026,0.238l0.185,0.026l0.031,0.086
	c0.029,0.211,0.02,0.426-0.026,0.634l0.106,0.079c0.044,0.1,0.053,0.211,0.026,0.317h0.132v0.053
	c0.028,0.076,0.037,0.158,0.026,0.238h0.977c0.047,0.041,0.091,0.085,0.132,0.132l0.927,0.105c0-0.028,0.009-0.057,0.027-0.079
	c0.054-0.021,0.1-0.058,0.132-0.106l0.026-0.026h-0.053c-0.041-0.021-0.086-0.031-0.132-0.026v-0.083
	c0.276,0.005,0.55,0.041,0.819,0.106c0.315,0.072,0.633,0.045,0.925,0.106v0.079l-0.185-0.026v0.105
	c0.107,0.026,0.122,0.031,0.132,0.158l1.585,0.185L21.9,7.416V5.44c-0.03-0.308-0.021-0.619,0.029-0.924
	c0.014,0.015,0.021,0.033,0.025,0.053c0.05,0.226,0.059,0.458,0.025,0.687v8.5L21.982,13.758z"/>
</svg>
