<?xml version="1.0" encoding="utf-8"?>
<!-- Generator: Adobe Illustrator 16.0.0, SVG Export Plug-In . SVG Version: 6.00 Build 0)  -->
<!DOCTYPE svg PUBLIC "-//W3C//DTD SVG 1.1//EN" "http://www.w3.org/Graphics/SVG/1.1/DTD/svg11.dtd">
<svg version="1.1" id="Layer_1" xmlns="http://www.w3.org/2000/svg" xmlns:xlink="http://www.w3.org/1999/xlink" x="0px" y="0px"
	 width="40px" height="40px" viewBox="0 0 40 40" enable-background="new 0 0 40 40" xml:space="preserve">
<path id="Color_Fill_1" fill="#FFFFFF" d="M4.585,13.741c0.371,0.025,0.83,0.048,1.268,0.048c0.041-0.173,0.156-0.348,0.293-0.29
	c0.175,0.057,0.178,0.073,0.2,0.29c0.377-0.015,0.451-0.288,0.634-0.242c0.164,0.054,0.162,0.055,0.2,0.242h0.43
	c0.05-0.124,0.159-0.214,0.29-0.241c0.18,0.211,0.462,0.305,0.732,0.242c0.059-0.132,0.197-0.21,0.341-0.193
	c0.034-0.131,0.016-0.269-0.049-0.387H9.61c0.336-0.088,0.679-0.153,1.024-0.193c-0.032-0.119-0.082-0.233-0.146-0.338
	c0.01,0.084-0.007,0.169-0.049,0.242c-0.034-0.216-0.058-0.225-0.293-0.242c-0.226,0.04-0.457,0.04-0.683,0v-0.726l0.39-0.048
	c0.015-0.11,0.067-0.213,0.147-0.29c0.452,0.291,1.761-0.087,1.9,0.048c0.033,0.037,0.064,0.108,0.1,0.145
	c0.716-0.025,1.432-0.009,2.146,0.048c0.001-0.083,0.018-0.165,0.049-0.242c0.043,0.084,0.092,0.165,0.146,0.242
	c0.153-0.01,0.306,0.024,0.439,0.1h-1.268v0.1c0.069-0.005,0.136-0.021,0.2-0.048v0.145c-0.21,0.023-0.423,0.023-0.634,0v0.145
	h-1.127v0.048c0.021,0.096,0.021,0.195,0,0.29h-0.2c-0.019,0.169-0.068,0.333-0.146,0.483c0.377,0.016,0.753,0.064,1.122,0.145
	c-0.089,0.067-0.128,0.182-0.1,0.29c0.07,0.02,0.126,0.075,0.146,0.146h0.049c0.014-0.338,0.1-0.589,0.1-1.015
	c0.294-0.267,0.721-0.327,1.078-0.153c0.093,0.396,0.109,0.806,0.049,1.208c0.322,0.06,0.65,0.076,0.976,0.048
	c0.105-0.099,0.246-0.151,0.39-0.145c-0.018-0.131-0.001-0.264,0.049-0.386c0.124-0.049,0.258-0.065,0.39-0.048v0.435h0.1
	c0.317,0.092,0.646,0.141,0.976,0.145c0.491,0.221,1.022,0.336,1.561,0.338c0.392,0.148,0.865,0.345,1.22,0.435
	c0.185-0.025,0.365-0.073,0.537-0.145c0.37,0.188,0.729,0.396,1.072,0.628h0.342l0.049,0.146h1.707
	c1.2-0.142,2.414-0.125,3.609,0.048v-0.24c0.859,0.088,1.727,0.088,2.586,0v0.242h0.049v0.048c0.213,0.02,0.427,0.003,0.634-0.048
	h3.756c0.683,0.058,1.368,0.058,2.05,0h2.683v0.1c0.403,0.052,0.81,0.066,1.216,0.045v0.726c-2.244-0.006-4.611,0.048-6.927,0.048
	c-1.155-0.107-2.321-0.059-3.464,0.145c-0.06,0.021-0.308-0.048-0.438-0.048c-0.683-0.021-1.367-0.006-2.049,0.048
	c-0.22,0.027-0.674-0.048-0.976-0.048H22c-0.099,0.01-0.197,0.025-0.293,0.048l-0.049,0.146h-1.024
	c-0.284,0.182-0.598,0.312-0.927,0.386c-0.022-0.157-0.168-0.267-0.326-0.245c-0.005,0.001-0.01,0.002-0.015,0.003v0.048
	c0.071,0.064,0.123,0.148,0.146,0.242c-0.229-0.033-0.461-0.017-0.683,0.048c0.765,0.028,1.53,0.012,2.293-0.048
	c0.209-0.031,0.676,0.075,0.976,0.048c0.647-0.091,1.305-0.091,1.951,0c0.233,0.078,0.6,0.218,0.878,0.29
	c0.22,0.057,1.089,0.071,1.22,0.146L26.2,17.51c0.417,0.105,0.841,0.187,1.268,0.242v-0.1c0.075-0.077,0.112-0.184,0.101-0.29
	c0.168,0.016,0.339-0.019,0.488-0.101c0.578,0.387,1.222,0.665,1.899,0.821l0.487-0.048c0.041,0.043,0.074,0.092,0.101,0.145
	c0.431,0.123,0.871,0.205,1.317,0.242c0.141-0.181,0.355-0.287,0.584-0.29c0.025,0.054,0.06,0.103,0.101,0.146
	c0.021-0.174-0.022-0.122,0.101-0.193v1.208l0.342,0.101c-0.119,0.297-0.283,0.575-0.488,0.821c0.063,0.254,0.23,0.429,0.293,0.628
	c0.02,0.215-0.016,0.431-0.1,0.628c0.063,0.026,0.131,0.042,0.199,0.048c0.055-0.054,0.125-0.089,0.2-0.1v0.1h0.05
	c0.047,0.049-0.049,0.049-0.05,0.049c-0.145,0.092-0.318,0.127-0.487,0.1l-0.146-0.048c0.043-0.147-0.017-0.305-0.146-0.386
	c-0.118,0.074-0.251,0.123-0.39,0.145c0,1.406-0.929,1.7-1.756,2.271c-0.739,0.65-1.559,1.202-2.438,1.643
	c-0.781,0.19-1.589,0.256-2.391,0.193H8.341L6.78,25.432c-1.059-0.369-2.074-0.855-3.024-1.451c-0.552-0.186-1.09-0.412-1.61-0.677
	l-0.536-0.72c-0.006-0.084,0.011-0.167,0.049-0.242H1.512c-0.347-0.39-0.657-0.811-0.927-1.256H0.537v0.678
	c0.086,0.331,0.135,0.672,0.146,1.014H0.39c-0.002-0.677,0.032-1.354,0.1-2.028C0.32,20.727,0.154,20.677,0,20.602v-0.048
	c0.041-0.024,0.075-0.059,0.1-0.1c0.085,0.063,0.187,0.098,0.293,0.1c0.025-0.062,0.04-0.126,0.046-0.192
	c-0.089-0.145-0.125-0.315-0.1-0.483c0.259-0.052,0.507-0.15,0.732-0.29c-0.113-0.208-0.131-0.455-0.049-0.677
	c-0.165-0.03-0.287-0.171-0.293-0.338c0.151-0.344,0.366-0.655,0.634-0.918c0.159-0.117,0.176-0.025,0.439,0
	c0.111-0.107,0.195-0.239,0.244-0.386c-0.217-0.012-0.5,0-0.829,0v-0.726c0.208-0.046,0.422-0.063,0.634-0.048
	c0.053,0.061-0.06,0.085,0.049,0.1c0.086-0.074,0.189-0.125,0.3-0.148c0.3,0.091,0.614,0.125,0.927,0.1
	c0.877-0.061,1.757-0.061,2.634,0c0,0.053,0.017,0.104,0.049,0.145c0.073-0.125,0.146-0.1,0.341-0.1v0.049
	c-0.07-0.008-0.14,0.01-0.2,0.047c0.287,0.037,0.567,0.119,0.829,0.242c0.716,0.057,1.438,0.023,2.146-0.1
	c-0.514-0.031-1.022-0.129-1.512-0.29c-0.914-0.244-1.848-0.329-2.732-0.531c-0.681-0.07-1.366-0.086-2.049-0.048
	c-0.313,0.048-0.632,0.014-0.927-0.1L2,15.916v-0.193c-0.131,0.004-0.262,0.021-0.39,0.047c-0.136-0.684-0.169-1.384-0.1-2.078
	h2.246c0.04-0.157-0.024-0.074,0.1-0.145v0.145l0.534,0.049c0-1.833,0.049-3.84,0.049-5.75l0.049-3.093
	c0.119-0.584-0.21-1.953,0.049-2.367C4.534,6.257,4.581,10.094,4.585,13.741z M12.536,11.953c0.174,0.109,0.384,0.145,0.585,0.1
	v-0.051h0.049v-0.049H12.536L12.536,11.953z M13.268,11.953v0.1h0.1v-0.1H13.268z M11.414,12.436c0.088,0.06,0.205,0.06,0.293,0
	H11.414L11.414,12.436z M10.877,12.581c-0.01,0.4,0.06,0.506,0.488,0.483c0.075,0.034,0.007,0.006,0.146,0
	c0.04-0.132,0.088-0.262,0.146-0.387C11.403,12.61,11.141,12.578,10.877,12.581L10.877,12.581z M13.951,12.731v0.1H14
	C13.996,12.793,13.979,12.758,13.951,12.731z M14,13.403c0.013-0.099-0.004-0.2-0.049-0.29c0,0.104-0.036,0.207-0.1,0.29H14z
	 M11.073,13.258c0.027,0.026,0.062,0.043,0.1,0.048C11.146,13.28,11.11,13.263,11.073,13.258z M11.273,13.258v0.145h0.244v-0.145
	h-0.249H11.273z M12.005,13.258c0.027,0.026,0.063,0.043,0.1,0.048c-0.029-0.027-0.065-0.044-0.105-0.048H12.005z M10.205,13.306
	c0.056,0.054,0.144,0.054,0.2,0H10.2H10.205z M11.571,13.306v0.1h0.039c-0.004-0.038-0.021-0.073-0.049-0.1H11.571z M1.671,13.741
	v0.19c0.354,0.063,0.715,0.08,1.073,0.048c-0.002-0.081,0.01-0.162,0.036-0.238H1.659H1.671z M2.891,13.741v0.242H3.8v-0.194
	c-0.304-0.058-0.614-0.074-0.922-0.048H2.891z M1.671,14.079v0.29h1.012c-0.001-0.099,0.015-0.197,0.049-0.29H1.659H1.671z
	 M2.842,14.369c0.328,0.067,0.669,0.033,0.976-0.1c0.024-0.062,0.024-0.131,0-0.193h-0.94c-0.012,0.02-0.029,0.036-0.049,0.048
	v0.242L2.842,14.369z M1.671,14.469v0.338h0.963c0.003-0.113,0.02-0.228,0.049-0.338H1.659H1.671z M2.78,14.804h0.83
	c0.012-0.02,0.029-0.036,0.049-0.048c0.012-0.103,0.046-0.201,0.1-0.29h-0.93C2.794,14.575,2.777,14.689,2.78,14.804z
	 M20.146,14.514c0.027,0.027,0.063,0.043,0.1,0.049C20.219,14.535,20.184,14.52,20.146,14.514z M1.659,14.9v0.291h0.926
	c-0.001-0.1,0.015-0.197,0.049-0.291H1.659z M2.732,14.9v0.291h0.731l0.1-0.291H2.732z M1.659,15.288v0.338h0.878v-0.339
	L1.659,15.288L1.659,15.288z M2.683,15.626h0.585c0.012-0.021,0.029-0.036,0.049-0.048c0.012-0.103,0.046-0.201,0.1-0.29H2.732
	C2.697,15.397,2.681,15.512,2.683,15.626z M28.391,17.559c-0.021,0.109-0.046,0.051,0,0.145v0.048c0.115,0.007,0.23-0.01,0.34-0.048
	C28.611,17.669,28.497,17.62,28.391,17.559z M29.414,18.139c0.139,0.106,0.313,0.158,0.488,0.145h0.049V18.23L29.414,18.139z
	 M30,18.23v0.101h0.1v-0.048L30,18.23z M32.049,18.331c-0.027,0.026-0.063,0.043-0.1,0.048v0.053h0.199v-0.101H32.049z
	 M32.391,18.331c0.084,0.043,0.062,0.043,0.146,0H32.391z M30.536,18.379c0.104,0.099,0.251,0.137,0.39,0.1v-0.047L30.536,18.379z
	 M32.486,18.479c-0.03,0.211-0.014,0.426,0.05,0.629c0.031-0.212,0.015-0.428-0.048-0.631L32.486,18.479z M31.17,18.527
	c0.02,0.125-0.036,0.063,0.1,0.1v-0.054h0.049v-0.048h-0.147L31.17,18.527z M31.755,18.527v0.192H31.8v-0.1
	c0.026-0.027,0.044-0.063,0.05-0.101h-0.101L31.755,18.527z M31.9,18.527c0,0.053,0.018,0.104,0.05,0.145v-0.1L32,18.525h-0.1
	V18.527z M30.389,18.77c0.111,0.086,0.262,0.105,0.391,0.047L30.389,18.77z M30.877,18.869c0.027,0.026,0.063,0.043,0.1,0.048
	c-0.025-0.028-0.061-0.048-0.099-0.054L30.877,18.869z M31.023,18.917c0.055,0.055,0.145,0.055,0.199,0H31.023z M31.561,19.018
	c0.068,0.092,0.197,0.113,0.293,0.047L31.561,19.018z M32.048,19.162c0.027,0.026,0.063,0.043,0.101,0.048
	c-0.026-0.029-0.061-0.05-0.1-0.058L32.048,19.162z M32.341,19.21c0.063,0.041,0.13,0.075,0.2,0.101
	c-0.037-0.074-0.117-0.118-0.199-0.109L32.341,19.21z M5.61,23.357c-0.313-0.028-0.627,0.006-0.927,0.1v0.048h0.049
	c0.278,0.204,0.593,0.353,0.927,0.435v-0.196C5.609,23.621,5.592,23.488,5.61,23.357z M9.317,23.744
	C9.186,24.09,9.005,24.416,8.78,24.71h1.171v-0.049C9.636,24.445,9.567,23.887,9.317,23.744L9.317,23.744z M13.073,23.744
	c-0.087,0.365-0.273,0.699-0.537,0.966h1.171v-0.049C13.4,24.448,13.314,23.884,13.073,23.744L13.073,23.744z M16.829,23.744
	c-0.083,0.367-0.269,0.702-0.537,0.966h1.171v-0.049c-0.289-0.22-0.467-0.556-0.488-0.918L16.829,23.744L16.829,23.744z
	 M20.585,23.744c-0.057,0.365-0.228,0.703-0.488,0.966h1.17v-0.049c-0.272-0.24-0.461-0.563-0.537-0.918L20.585,23.744
	L20.585,23.744z M24.385,23.744c-0.061,0.364-0.23,0.701-0.488,0.966h1.123v-0.049c-0.267-0.239-0.439-0.563-0.488-0.918h-0.141
	L24.385,23.744z M28.239,23.744c0.027,0.026,0.062,0.043,0.1,0.048c-0.026-0.026-0.06-0.043-0.095-0.049L28.239,23.744z"/>
</svg>
