<?xml version="1.0" encoding="utf-8"?>
<!-- Generator: Adobe Illustrator 16.0.0, SVG Export Plug-In . SVG Version: 6.00 Build 0)  -->
<!DOCTYPE svg PUBLIC "-//W3C//DTD SVG 1.1//EN" "http://www.w3.org/Graphics/SVG/1.1/DTD/svg11.dtd">
<svg version="1.1" id="Layer_1" xmlns="http://www.w3.org/2000/svg" xmlns:xlink="http://www.w3.org/1999/xlink" x="0px" y="0px"
	 width="40px" height="40px" viewBox="0 0 40 40" enable-background="new 0 0 40 40" xml:space="preserve">
<path id="Color_Fill_1" fill="#FFFFFF" d="M2.743,15.902h-0.2v-0.151h4.19v0.151h-0.5v0.399c0.207,0.011,0.233,0,0.5,0v-0.399
	c0.531-0.171,1.093-0.223,1.646-0.151c0.533,0.028,1.067,0.028,1.6,0v0.101c0.064,0.104,0.034,0.399,0.1,0.5
	c0.1-0.048,0.058-0.02,0.2,0v-0.101c-0.054,0.001-0.107-0.017-0.15-0.05c0.108-0.143,0.145-0.327,0.1-0.5V15.65
	c-0.315,0.031-0.633,0.031-0.948,0c-0.8,0.011-1.606,0-2.494,0l0.05-0.299H6.683c0.137-0.933,0.17-1.877,0.1-2.816
	c0.265-0.009,0.292-0.027,0.3-0.3h0.249v0.252c0.405-0.027,0.808-0.094,1.2-0.2l2.993-0.151v-0.157h0.6
	c-0.162-0.75-0.127-1.53,0.1-2.263c0.172-0.131,0.383-0.201,0.6-0.2c-0.098-0.568-0.081-1.149,0.05-1.71
	c0.381-0.379,1.419-0.169,1.9-0.05c0.037,0.062,0.088,0.114,0.15,0.151c-0.144,0.729-0.211,1.47-0.2,2.213
	c0.663,0.159,0.474,1.263,0.449,2.062c0.181,0,0.449,0,0.449,0v0.05h0.05c0.052-0.067,0.121-0.119,0.2-0.151
	c0.041,0.025,0.075,0.06,0.1,0.1c-0.07-0.006-0.141,0.012-0.2,0.05h0.2c0.03-0.056,0.086-0.093,0.15-0.1
	c0.014,0.13-0.023,0.089,0.2,0.1c0.054-0.021,0.325-0.065,0.449-0.1c0.019,0.127-0.029,0.079,0.15,0.1v-0.05
	c-0.063-0.006-0.12-0.043-0.15-0.1h0.1c0.061,0.08,0.15,0.134,0.249,0.151v-0.05l-0.05-0.05h0.1c0.79,0.141,1.595,0.175,2.394,0.1
	v0.252c0.038,0.005,0.073,0.022,0.1,0.05c0.472-0.042,0.944,0.083,1.335,0.351h1.746c0.245,0.059,0.496,0.092,0.748,0.1h1.047
	c0.979,0.345,2.383,0.169,3.441,0.4l1.3-0.05c0.321,0.041,0.638,0.108,0.948,0.2c0.199,0.202,0.465,0.326,0.748,0.352
	c0.348-0.146,0.723-0.214,1.1-0.2v0.05h0.05c0.006,0.188-0.06,0.123,0.149,0.151v-0.2c0.098-0.034,0.199-0.05,0.301-0.05
	c0.193,0.062,0.398,0.079,0.6,0.05v0.754h-0.9v-0.2h-0.199c0.024,0.064,0.024,0.136,0,0.2c-0.502-0.149-1.023-0.216-1.546-0.2
	c-0.203,0.184-0.49,0.241-0.748,0.151c-0.069,0.049,0.024,0.123-0.15,0.1c-2.226-0.142-4.459-0.125-6.683,0.05
	c0.018,0.135,0.001,0.273-0.051,0.4c-0.254,0.759-1.545,0.574-2.543,0.553c-0.332,0.114-0.697,0.078-1-0.1h-1.452v0.3H21.9
	c0.063,0.087,0.098,0.192,0.1,0.3c-0.032,0.044-0.05,0.097-0.05,0.15h0.249v-0.3c0.195-0.114,0.422-0.167,0.648-0.15
	c0.026,0.026,0.062,0.044,0.1,0.05c0.041,0.115,0.074,0.232,0.1,0.352h-0.05v0.051c-0.224-0.109-0.458-0.193-0.7-0.252v0.252h0.051
	v-0.101h0.1v0.05c0.064,0.022,0.132,0.039,0.199,0.051v0.1l0.5-0.05c0.281,0.054,0.568,0.054,0.849,0c0.425,0.125,0.876,0.125,1.3,0
	c0.025,0.04,0.06,0.075,0.1,0.1c-0.053-0.113-0.177-0.176-0.299-0.151c-0.076,0.084-0.037,0.052-0.101,0.051h-0.05v-0.051
	c0.146-0.04,0.297-0.057,0.449-0.05c0.074,0.063,0.158,0.114,0.248,0.151v-0.3c0.343-0.021,0.68,0.087,0.948,0.3
	c-0.054,0.093-0.054,0.207,0,0.3c0.229,0.009,0.454,0.077,0.648,0.2c0.429,0.084,0.863,0.135,1.3,0.15
	c0.059,0,0.279,0.133,0.35,0.151c0.376,0.081,0.762,0.114,1.146,0.101v0.1c-0.056,0.031-0.093,0.088-0.1,0.15h0.049
	c0.074-0.084,0.037-0.051,0.101-0.049c0.052,0.057,0.123,0.093,0.2,0.1c0.312-0.097,0.648-0.079,0.947,0.05v-0.05
	c-0.055-0.031-0.092-0.088-0.1-0.151h0.1c0.199-0.065,0.416-0.048,0.601,0.05c-0.005-0.07,0.013-0.141,0.05-0.199
	c0.301,0.234,0.711,0.3,1,0.553c0.1,0.085,0.2,0.339,0.301,0.4c0.344,0.215,0.945,0.053,1.299,0.299
	c0.048-0.248,0.166-0.217,0.449-0.199c0.036,0.113,0.053,0.232,0.051,0.352c0.577,0.056,1.147,0.174,1.699,0.353l-0.1-0.151
	c0.281-0.08,0.551-0.199,0.8-0.352c0.139,0.165,0.335,0.272,0.55,0.3c0.451,0.349,0.936,0.651,1.445,0.905
	c-0.001,0.102,0.016,0.203,0.05,0.3h0.15c0.001,0.054-0.017,0.107-0.05,0.151c-0.006-0.039-0.023-0.074-0.051-0.101v0.101
	c0.137,0.153,0.073,0.264,0.35,0.299v-0.435h0.15L40,20.579c-0.105,0.059-0.205,0.125-0.3,0.2l-0.4-0.151v0.05
	c0.041,0.025,0.075,0.06,0.101,0.1c-0.471,0.23-0.921,0.498-1.348,0.801v0.8c-0.021,0.169-0.054,0.336-0.1,0.5h-0.051v-1.142h-0.1
	c-0.563,0.426-1.166,0.796-1.8,1.105c-0.237,0.192-0.295,0.613-0.549,0.801c-1.049,0.791-2.226,1.399-3.343,2.111
	c-0.549,0.445-1.154,0.817-1.799,1.105c-0.793,0.121-1.598,0.139-2.395,0.051H10.025l-1.446-0.051
	c-0.495-0.18-0.952-0.451-1.347-0.799c-0.464-0.328-0.932-0.578-1.4-0.905c-0.342-0.241-0.681-0.601-1.047-0.8
	c-0.271-0.153-0.81,0.017-1.047-0.151c-0.048-0.097-0.116-0.183-0.2-0.252c-0.124,0.11-0.304,0.131-0.449,0.05
	c-0.06-0.209-0.183-0.352-0.249-0.553h0.1v-0.051c0.05-0.049,0.049,0.051,0.05,0.051c0.083,0.088,0.151,0.189,0.2,0.3
	c0.038-0.005,0.073-0.022,0.1-0.05c0.044-0.094,0.062-0.197,0.05-0.301c-0.106-0.11-0.054-0.014-0.05-0.15
	c-0.168-0.221-0.318-0.455-0.449-0.7H2.095c0.058-0.386,0.041-0.778-0.05-1.157c0.038,0.79,0.004,1.581-0.1,2.364
	c0-0.83-0.036-1.707-0.05-2.464l-0.1-0.05v-0.05H1.746v0.955h-0.3V22.7H1.4v-0.05c-0.051-0.163-0.051-0.338,0-0.5
	C1.265,22.166,1.127,22.148,1,22.1c-0.06-0.093,0.011-0.273-0.05-0.399c-0.1-0.212-0.273-0.071-0.3-0.453
	c0.285-0.079,0.319-0.218,0.3-0.601c-0.048-0.094-0.048-0.205,0-0.299c-0.222-0.092-0.462-0.126-0.7-0.101v-0.101H0.3v-0.07
	l0.1,0.05v-0.05c0.027-0.027,0.044-0.063,0.05-0.1h-0.2c0.047-0.287,0.03-0.581-0.05-0.86L0,18.97v-0.854l0.2-0.151l0.1-1.309
	c0.257,0.1,0.526,0.167,0.8,0.199v-0.1H0.848v-0.15h0.2v-0.199c-0.097,0.032-0.198,0.049-0.3,0.05c0.006-0.077,0.042-0.149,0.1-0.2
	c-0.116-0.045-0.206-0.137-0.248-0.253h0.15c0.05,0.013,0.017,0.039,0.05,0c0.042-0.077,0.059-0.165,0.05-0.252H2
	c0.026-4.68,0.051-9.712,0.05-14.735h0.1V15.6c0.063,0.247,0.097,0.5,0.1,0.754c0.065-0.098,0.189-0.139,0.3-0.1
	c0.081,0.029,0.15,0.082,0.2,0.151v-0.5L2.743,15.902z M12.469,10.016c0.119-0.004,0.237,0.013,0.349,0.05v-0.1h-0.449
	c-0.27,0.359-0.362,0.822-0.249,1.257h0.05v-0.1c0.128-0.21-0.013-0.62,0.1-0.855C12.355,10.201,12.424,10.115,12.469,10.016z
	 M14.314,10.167c0,0.055,0.017,0.107,0.05,0.151c0-0.054-0.018-0.106-0.05-0.149V10.167z M12.614,10.62
	c0.187-0.005,0.372-0.039,0.549-0.1c0.568-0.069,1.144-0.035,1.7,0.1v-0.05c-0.67-0.154-1.363-0.188-2.045-0.1v-0.054h-0.05v0.05
	c-0.099,0.023-0.177,0.101-0.2,0.2c-0.12,0.462-0.12,0.946,0,1.408c0.018-0.431,0.05-0.948,0.051-1.453L12.614,10.62z M18.15,10.67
	c0.054,0.029,0.076,0.096,0.05,0.151c-0.121-0.095,0-0.072-0.045-0.149L18.15,10.67z M18.15,10.87
	c0.032,0.044,0.05,0.097,0.05,0.151h-0.05v-0.148V10.87z M18.15,11.07c0.101,0.345,0.101,0.711,0,1.056v-1.052V11.07z
	 M12.065,12.026v0.1h0.05v-0.1H12.07H12.065z M16.105,12.076h0.1v0.05c-0.036-0.005-0.069-0.021-0.095-0.046L16.105,12.076z
	 M16.405,12.076h0.1v0.05c-0.036-0.005-0.07-0.021-0.096-0.046L16.405,12.076z M16.205,12.126h0.1v0.05
	c-0.036-0.004-0.07-0.021-0.096-0.046L16.205,12.126z M16.505,12.126h0.1v0.05c-0.036-0.004-0.07-0.021-0.096-0.046L16.505,12.126z
	 M25.383,13.886v-0.3c-0.123-0.11-0.285-0.164-0.449-0.151c-0.027,0.027-0.063,0.044-0.1,0.05c-0.041,0.115-0.074,0.233-0.1,0.352
	c0.213,0.05,0.434,0.067,0.652,0.053L25.383,13.886z M24.535,13.486v0.4h0.1v-0.3c-0.04-0.035-0.053-0.061-0.096-0.098
	L24.535,13.486z M25.734,13.486c-0.068,0.051-0.12,0.12-0.149,0.2c-0.036,0.06-0.054,0.13-0.05,0.2
	c0.18,0.044,0.364,0.062,0.549,0.05c0.033-0.097,0.05-0.198,0.05-0.3c-0.062-0.043-0.128-0.077-0.2-0.1
	c-0.059-0.036-0.129-0.053-0.197-0.048L25.734,13.486z M29.775,13.486c0.054,0.083,0.152,0.122,0.248,0.1v-0.05L29.775,13.486z
	 M26.782,13.939l-0.05-0.3c-0.258-0.125-0.457-0.111-0.5,0.252c0.18,0.044,0.365,0.061,0.551,0.05L26.782,13.939z M26.932,13.939
	h0.449l-0.05-0.3c-0.08-0.033-0.169-0.033-0.249,0c-0.123,0.065-0.034-0.022-0.1,0.1c-0.037,0.061-0.055,0.131-0.049,0.202
	L26.932,13.939z M27.932,13.939V13.79c-0.073-0.041-0.141-0.092-0.199-0.151l-0.15,0.05c-0.042,0.081-0.076,0.165-0.1,0.252h0.447
	L27.932,13.939z M30.227,13.639v0.1c0.087,0.02,0.171,0.054,0.248,0.1v-0.05L30.227,13.639z M28.081,13.939h0.349
	c0.001-0.054-0.017-0.108-0.05-0.151c-0.087-0.067-0.08-0.087-0.149-0.05l-0.15,0.05L28.081,13.939L28.081,13.939z M28.63,13.739
	l-0.101,0.2h0.35v-0.1c-0.073-0.055-0.16-0.089-0.251-0.1H28.63z M29.079,13.789c-0.065,0.231-0.05,0.146,0.2,0.151v-0.1h-0.051
	v-0.05L29.079,13.789L29.079,13.789z M31.822,13.789v0.1h0.05v-0.1H31.82H31.822z M29.428,13.839c0.014,0.131,0,0.1,0.249,0.1v-0.05
	c-0.08-0.03-0.165-0.047-0.251-0.049L29.428,13.839z M31.622,13.839v0.2h0.149v-0.2H31.622z M31.622,14.09
	c0.006,0.069,0.022,0.137,0.05,0.2h0.1v-0.2H31.622z M19.552,15.398c0.266,0.139,0.583,0.139,0.848,0H19.552L19.552,15.398z
	 M0.952,15.898c0.083,0.056,0.053,0.088,0.1,0H0.952z M1.952,16.398l0.05-0.5H1.5v0.1c0.057,0.195,0.091,0.396,0.1,0.6h0.05
	L1.6,16.455L1.952,16.398z M2.852,15.898v0.399c0.135-0.007,0.271,0.011,0.4,0.05v-0.445h-0.4V15.898z M3.352,15.898
	c-0.008,0.152,0.008,0.305,0.05,0.453l0.1-0.051c0.038-0.13,0.055-0.265,0.05-0.4h-0.2V15.898z M3.652,15.898v0.453h0.05
	C3.845,16.297,4,16.279,4.151,16.301v-0.248h0.2v-0.15h-0.7L3.652,15.898z M4.452,15.898v0.15h1l0.1,0.301
	c0.064-0.027,0.131-0.044,0.2-0.051v-0.4H4.452L4.452,15.898z M5.852,15.898v0.399c0.082,0.019,0.167,0.019,0.249,0
	c0.05-0.127,0.068-0.265,0.05-0.399H5.852L5.852,15.898z M1.413,16.198v0.1H1.5v-0.1H1.4H1.413z M1.213,16.298
	c-0.005,0.07,0.012,0.141,0.05,0.2c0.005-0.068,0.022-0.137,0.05-0.2H1.2H1.213z M1.363,16.348L1.3,16.605h0.15
	c0.026-0.063,0.043-0.131,0.05-0.199L1.363,16.348z M2.41,16.348c0.086,0.045,0.064,0.045,0.15,0H2.394H2.41z M2.36,16.448v0.1
	c0.071-0.024,0.138-0.058,0.2-0.1H2.36z M1.213,16.748c0.03,0.057,0.087,0.094,0.15,0.1v-0.05L1.213,16.748z M1.4,17.516
	c-0.009,0.087,0.008,0.175,0.05,0.252C1.459,17.68,1.442,17.593,1.4,17.516z M0.752,17.616v0.1h0.1v-0.1H0.752z M0.902,17.616v0.1
	h0.345v-0.1H0.9H0.902z M0.852,17.868c0.027,0.026,0.062,0.044,0.1,0.05c-0.028-0.029-0.064-0.049-0.104-0.055L0.852,17.868z
	 M1.052,17.868v0.1H1.1v-0.1H1.047H1.052z M0.1,18.116c-0.052,0.247-0.069,0.501-0.05,0.754c0.081,0.028,0.165,0.044,0.25,0.046
	v-0.1C0.259,18.576,0.192,18.342,0.1,18.116z M1.447,18.568v-0.399c-0.213-0.067-0.445-0.009-0.6,0.151
	c-0.037,0.06-0.055,0.129-0.05,0.199c0.213,0.048,0.432,0.063,0.649,0.047L1.447,18.568z M34.863,18.52v-0.203h-0.249v0.05h-0.05
	v0.1L34.863,18.52z M1.247,18.871v0.145h0.2c-0.052-0.128-0.052-0.271,0-0.399H0.8v0.1c0.111,0.128,0.282,0.187,0.447,0.153V18.871z
	 M36.809,18.821l-0.051,0.151h0.1v-0.057c0.027-0.027,0.045-0.063,0.051-0.1h-0.1V18.821z M0.948,19.475l0.5-0.05V19.07
	c-0.187,0.006-0.372,0.04-0.549,0.1L0.948,19.475z M0.748,19.475c-0.005,0.07,0.012,0.141,0.05,0.2
	c0.006-0.071-0.012-0.142-0.05-0.202V19.475z M1.148,20.129c0.044,0.13,0.1,0.395,0.15,0.553h0.05v-0.3
	c-0.02-0.083-0.02-0.169,0-0.251c-0.065,0.024-0.137,0.022-0.201-0.005L1.148,20.129z M1.597,20.329H1.9
	c0.026-0.063,0.043-0.132,0.05-0.2h-0.1c-0.078,0.043-0.171,0.043-0.249,0v0.2H1.597z M2.146,20.682c0,0.054,0.017,0.107,0.05,0.15
	v-0.153H2.145L2.146,20.682z M1.246,20.881C1.242,21,1.259,21.119,1.296,21.232h0.05v-0.352H1.246z M2.146,20.881
	c0.027,0.027,0.062,0.045,0.1,0.051C2.219,20.904,2.183,20.887,2.146,20.881L2.146,20.881z M2,20.932
	c-0.038,0.033-0.111,0.065-0.15,0.1C1.921,21.016,2.146,20.975,2,20.932z M2.2,21.082c-0.05,0.174-0.076,0.113,0.1,0.15
	c-0.007-0.064-0.046-0.121-0.105-0.15H2.2z M0.853,21.182v0.051H0.8c-0.1,0.039,0.1,0.05,0.1,0.05v-0.05h0.05
	c-0.028-0.027-0.063-0.045-0.102-0.051H0.853z M1.601,21.282v0.399h0.05v-0.05c0.048-0.11,0.065-0.232,0.05-0.352H1.6L1.601,21.282z
	 M2.15,21.282v0.399h0.2L2.3,21.282H2.145H2.15z M1.25,21.434c0.002,0.086,0.019,0.17,0.05,0.25h0.05v-0.25H1.25L1.25,21.434z
	 M0.801,21.482c0.045,0.041,0.095,0.075,0.15,0.101v-0.101H0.801L0.801,21.482z M1.247,21.736v0.352H1.3v-0.05
	c0.045-0.093,0.062-0.197,0.05-0.3h-0.1L1.247,21.736z M1.596,21.736v0.352H1.7v-0.352H1.6H1.596z M2.145,21.736v0.352h0.3v-0.1
	c-0.042-0.077-0.059-0.165-0.05-0.252H2.145z M2.145,22.136v0.353h0.648v-0.051c-0.114-0.056-0.23-0.105-0.349-0.15v-0.149h-0.3
	L2.145,22.136z M3.89,23.697v0.15c0.066,0.065,0.156,0.102,0.249,0.101C4.081,23.843,3.995,23.756,3.89,23.697z M7.082,24.297H6.135
	v0.051h0.05c0.298,0.301,0.654,0.539,1.047,0.699C7.2,24.76,7.106,24.584,7.082,24.3V24.297z M32.419,24.396
	c-0.175,0.071-0.36,0.105-0.549,0.101c-0.185,0.146-0.295,0.365-0.3,0.601c-0.027,0.026-0.045,0.062-0.051,0.1h0.051
	c0.343-0.332,0.752-0.59,1.199-0.754v-0.051h-0.351V24.396z M19.2,24.652c-0.12,0.146-0.253,0.28-0.4,0.399
	c-0.134,0.191-0.123,0.46-0.249,0.654c-0.09,0.139-0.254,0.257-0.349,0.399H20.5v-0.049c-0.396-0.364-0.629-0.871-0.648-1.408H19.2
	V24.652z M27.828,24.803c-0.079,0.115-0.227,0.147-0.301,0.252c-0.133,0.191-0.121,0.461-0.248,0.654
	c-0.09,0.137-0.254,0.253-0.35,0.4h1.601v-0.051c-0.568-0.33-0.388-0.785-0.7-1.256H27.828z M11.12,24.854
	c-0.268,0.399-0.586,0.861-0.848,1.256h0.8c0.227-0.077,0.473-0.077,0.7,0c-0.183-0.221-0.35-0.454-0.5-0.699
	c-0.035-0.189-0.085-0.375-0.15-0.557H11.12z M15.01,24.902c-0.229,0.398-0.479,0.785-0.748,1.158h1.4v0.049h0.05v-0.1
	c-0.428-0.214-0.396-0.939-0.699-1.105L15.01,24.902z M23.738,24.902c-0.272,0.383-0.531,0.841-0.801,1.207h1.547v-0.049
	c-0.285-0.36-0.534-0.748-0.743-1.156L23.738,24.902z"/>
</svg>
