<svg xmlns="http://www.w3.org/2000/svg" xmlns:xlink="http://www.w3.org/1999/xlink" width="40.031" height="40" viewBox="0 0 40.031 40">
  <defs>
    <style>
      .cls-1 {
        fill: #fff;
        fill-rule: evenodd;
      }
    </style>
    <clipPath id="clip-path">
      <rect x="0.016" width="40" height="40"/>
    </clipPath>
  </defs>
  <g clip-path="url(#clip-path)">
    <path id="germ_pzkpfw_38t_marder_iii_ico" class="cls-1" d="M17.874,15.3l5.772,0.032v0.1L29.7,15.492h2.141a4.6,4.6,0,0,1,.993.032h2.731a4.344,4.344,0,0,1,.931.032,0.853,0.853,0,0,0,.559-0.127l0.59-.032a5.562,5.562,0,0,1,1.4-.159c0.158,0,.9-0.032.9-0.032a5.232,5.232,0,0,1,0,1.429,6.091,6.091,0,0,0-1.489-.032,2.675,2.675,0,0,1-.59-0.159c-0.3-.077-0.553.026-0.869-0.063-0.036-.01-0.125-0.086-0.155-0.1H34.787l-11.141.1v0.286a3.1,3.1,0,0,0,.652.064,1.872,1.872,0,0,0,.062.381c0.022,0.13-.061.289-0.062,0.476-1.974,0-4.059.03-6.082,0.032v0.032h0.031l2.855,0.73a0.153,0.153,0,0,0,.031.19,0.4,0.4,0,0,1,.155,0,0.9,0.9,0,0,0,.465.349,0.478,0.478,0,0,1,.279-0.222,8.7,8.7,0,0,0,1.148.73V19.27a0.544,0.544,0,0,1-.062-0.317h0.093v0.063a4.416,4.416,0,0,1,.186.794c-0.1.023-.089-0.02-0.124,0.064a0.464,0.464,0,0,0,.124.063,0.866,0.866,0,0,0,.186,0V19.556H25.2v-0.73a0.191,0.191,0,0,0,.062-0.063l0.093,0.032v0.063a0.866,0.866,0,0,0,.155.667,2.19,2.19,0,0,0,.807.032h2.079a0.254,0.254,0,0,1,.279-0.063,1.429,1.429,0,0,0,1.086-.159c0.015,0.115.008,0.116,0.093,0.159a3.746,3.746,0,0,1,.776-0.317v0.063a0.378,0.378,0,0,1,.062.159,3.737,3.737,0,0,0-.807.318l0.062,0.159H29.884a1.374,1.374,0,0,1-.931.1H28.673a3.423,3.423,0,0,1-.962,0H25.384a3.054,3.054,0,0,1-.776.6,0.393,0.393,0,0,1,0,.349,0.49,0.49,0,0,1,.248.127,0.419,0.419,0,0,0,.031.222,0.329,0.329,0,0,1,.186-0.032v-0.1c0.265,0,.434.062,0.745,0.063,0.026-.1-0.015-0.048.062-0.1v0.1a0.432,0.432,0,0,0,.248-0.063,0.146,0.146,0,0,1,.186.063l0.59-.032v0.159a0.148,0.148,0,0,1,.093.032,0.553,0.553,0,0,0,.155.19,0.978,0.978,0,0,0,.155.032V21.4a0.351,0.351,0,0,1-.031-0.191h0.155v0.381l0.776-.032V21.81l-0.962-.032v0.064a0.592,0.592,0,0,1,.093.159,4.419,4.419,0,0,1,1.8.032l0.031-.1a2.121,2.121,0,0,0,.124-0.476,0.573,0.573,0,0,0,.372.064v0.191a3.244,3.244,0,0,0-.062.413l0.217,0.1a0.251,0.251,0,0,0-.062.191,1.713,1.713,0,0,0,.527.127l0.124,0.222H29.635v0.032a0.411,0.411,0,0,0-.124.317c-0.008.031-.024,0.012,0,0.032a1.031,1.031,0,0,0,.466.254,1.073,1.073,0,0,1-.062.159,1.5,1.5,0,0,0,.217.349c0.122,0.077.123-.05,0.186,0.1a0.165,0.165,0,0,1,.031.1c-0.1.039-.07,0.012-0.093,0.127a0.846,0.846,0,0,0,.155.349,0.156,0.156,0,0,0,.093.032,0.536,0.536,0,0,1-.124.286,1.414,1.414,0,0,0,.093.667,0.393,0.393,0,0,0-.155,0c-0.032.149-.125,0.256-0.155,0.381v0.032a0.3,0.3,0,0,1,.031.254c-0.379.008-.379,0.347-0.5,0.571-0.365-.149-0.351.32-0.621,0.381,0,0-.041-0.092-0.062-0.064v0.032l-0.341.19a0.271,0.271,0,0,1-.031.159,1.091,1.091,0,0,0-.093.1c-0.078-.055-0.05-0.08-0.124-0.063l-0.341.191a0.271,0.271,0,0,1-.031.159c-0.023.028-.039,0.036-0.062,0.063-0.1-.027-0.084-0.062-0.155-0.032a0.8,0.8,0,0,0-.434.413c-0.077-.024-0.1-0.1-0.124-0.063a1.324,1.324,0,0,0-.341.19c-0.094.13,0.041,0.153-.124,0.222V28.7H26.78V28.667a0.258,0.258,0,0,0-.093-0.063c-0.079.105-.27,0.123-0.341,0.222-0.093.129,0.042,0.155-.124,0.222a0.089,0.089,0,0,1-.031.032c-0.035-.091-0.005-0.058-0.093-0.1-0.077.1-.276,0.126-0.341,0.222a0.241,0.241,0,0,0,.031.159c-0.03.032-.093,0.03-0.124,0.063-0.082-.024-0.074-0.038-0.155-0.063a0.561,0.561,0,0,0-.341.349,0.461,0.461,0,0,0-.186.063,0.218,0.218,0,0,0-.062-0.127,1.532,1.532,0,0,1-.372.127c-0.134.076,0.044,0.144-.248,0.159v-0.1l-0.465.032a0.09,0.09,0,0,1-.031.032V30H23.615c-0.051-.174-0.251-0.14-0.466-0.127C23.1,29.982,23.094,30,22.933,30c-0.051-.174-0.251-0.14-0.466-0.127C22.414,29.982,22.412,30,22.25,30,22.2,29.826,22,29.86,21.784,29.873,21.731,29.982,21.729,30,21.567,30V29.873H21.1C21.049,29.982,21.046,30,20.884,30c-0.051-.174-0.251-0.14-0.465-0.127C20.366,29.982,20.364,30,20.2,30V29.968H20.171v-0.1H19.736C19.683,29.982,19.681,30,19.519,30V29.968H19.488v-0.1H19.054C19,29.982,19,30,18.836,30V29.873H18.371C18.314,29.989,18.3,30,18.123,30V29.873H17.688C17.632,29.989,17.616,30,17.44,30V29.873H17.005C16.949,29.989,16.933,30,16.757,30V29.873H16.323C16.27,29.982,16.267,30,16.106,30c-0.051-.174-0.251-0.14-0.465-0.127C15.584,29.989,15.567,30,15.392,30V29.873H14.957a0.35,0.35,0,0,1-.248.127V29.873H14.275a0.35,0.35,0,0,1-.248.127V29.873H13.592a0.331,0.331,0,0,1-.217.127c-0.051-.174-0.251-0.14-0.466-0.127C12.853,29.989,12.837,30,12.661,30V29.873H12.227a0.35,0.35,0,0,1-.248.127V29.873H11.513C11.478,30,11.459,30,11.3,30V29.873H10.83C10.8,30,10.795,29.995,10.644,30c-0.051-.174-0.251-0.14-0.466-0.127C10.122,29.989,10.106,30,9.93,30V29.873H9.465C9.43,30,9.41,30,9.247,30V29.873H8.782C8.747,30,8.728,30,8.565,30V29.873H8.1C8.064,30,8.045,30,7.882,30V29.873H7.448C7.391,29.989,7.375,30,7.2,30V29.873H6.734C6.7,30,6.68,30,6.517,30V29.873L6.051,29.81a0.3,0.3,0,0,1-.248.1,0.409,0.409,0,0,1,.031-0.127c-0.122-.029-0.272-0.143-0.372-0.159-0.146-.023-0.09.141-0.248,0.032a0.272,0.272,0,0,0-.093-0.127A1.7,1.7,0,0,0,4.562,29.4a0.111,0.111,0,0,1,0-.127,2.656,2.656,0,0,1-.341-0.127c-0.145-.031-0.171.053-0.31,0.032a0.253,0.253,0,0,1,0-.159,2.669,2.669,0,0,1-.341-0.127c-0.145-.031-0.171.053-0.31,0.032-0.025-.091.026-0.108-0.093-0.159a0.884,0.884,0,0,0-.559-0.1c0-.129.051-0.076-0.031-0.127a0.857,0.857,0,0,0-.621-0.127l0.031-.159A1.817,1.817,0,0,1,1.645,28.1a0.134,0.134,0,0,0-.155.064C1.435,28.153,1.4,28.111,1.334,28.1c0.022-.459-0.429-0.309-0.559-0.571,0.055-.06.057-0.025,0.031-0.1a1.013,1.013,0,0,0-.372-0.508,1.083,1.083,0,0,0-.155-0.73,8.633,8.633,0,0,1-.062-1.111h0.59a0.66,0.66,0,0,1,.124-0.413,0.772,0.772,0,0,0-.745-0.254,0.155,0.155,0,0,1-.031.1v-0.1H0.031A7.22,7.22,0,0,0,0,22.762,3.887,3.887,0,0,1,.465,22.73a0.808,0.808,0,0,0,.559.064v0.159H1.086c0.016-.339.225-0.318,0.248-0.635a0.777,0.777,0,0,1-.248-0.889,1.443,1.443,0,0,1-.5-0.54A1.761,1.761,0,0,1,.962,20.54a1.493,1.493,0,0,0,.621.508,0.736,0.736,0,0,1,.807.254,2.11,2.11,0,0,1,.093.254,0.106,0.106,0,0,0,.062-0.032c0.062-.084-0.035-0.063.093-0.1A1.067,1.067,0,0,0,2.2,20.762c-0.214-.149-0.363-0.02-0.59-0.159C1.47,20.515,1.292,20.4,1.148,20.286a2.829,2.829,0,0,0-.279-0.349,1.039,1.039,0,0,0-.248.032V19.937H0.59A3.351,3.351,0,0,0,.4,19.27c0.219-.079.2-0.2,0.186-0.508-0.055-.06-0.057-0.025-0.031-0.1a0.72,0.72,0,0,1,.5-0.063h1.49c0.279,0.18.6,0.159,0.621,0.6,0.295,0.459-.22,1.355.465,1.429a2.534,2.534,0,0,0,.124-0.444,0.12,0.12,0,0,1-.093-0.127,0.383,0.383,0,0,0,.124-0.032c-0.078-.1-0.063-0.024-0.062-0.159a1.238,1.238,0,0,0,.248-0.667c0.043-.065.138-0.088,0.186-0.159-0.1-.026-0.047.016-0.093-0.063,0.05-.08.041-0.239,0.093-0.317a0.4,0.4,0,0,1,.217-0.032c0.091,0.063.256,0.059,0.341,0.127a1.2,1.2,0,0,0-.062.191H4.717c0.083-.191.146-0.235,0.434-0.222a9.357,9.357,0,0,1,1.614-.254,6.266,6.266,0,0,0-.372-1.683L6.175,15.81a1.411,1.411,0,0,1-.217-0.286H6.02c0.054-.042.05-0.055,0.093-0.032a2.42,2.42,0,0,1,.714,1.555,2.945,2.945,0,0,1-.062.476c0.053,0.28.21,0.544,0.248,0.825,0.9,0.009,1.558-.25,2.42-0.254V18.064H9.465V18.032A0.825,0.825,0,0,1,9,17.937a0.164,0.164,0,0,1-.031-0.1A0.165,0.165,0,0,0,9,17.746l0.372,0.032v-0.1H9.185V17.619a2.666,2.666,0,0,1-.031-0.952c0.532,0,.7,0,1.21,0V16.6a1.035,1.035,0,0,1-.186-1.175,1.057,1.057,0,0,1,.683-0.317,14.261,14.261,0,0,1,.062-1.683,1.231,1.231,0,0,1,1.148-.317V12.635h0.062c0.048-.022,0,0,0.093,0v0.476h0.621V12.667h0.962v0.444H14.43V12.921a1.4,1.4,0,0,1,.31-0.254v0.444H15.3c0.037,0.056.127,0.079,0.155,0.127V13.4a1.306,1.306,0,0,0,.155.063v0.191a1.089,1.089,0,0,0,.186.159c0.089,0.155.089,0.33,0.186,0.476,0.029,0.044.127,0.057,0.155,0.1V14.54a0.909,0.909,0,0,0,.217.191c0.046,0.091-.065.145,0.031,0.222h0.093a0.271,0.271,0,0,0,.031.159,1.16,1.16,0,0,0,.993.159,0.481,0.481,0,0,0,.248.032c0.024-1.222.031-2.568,0.031-3.841A6.3,6.3,0,0,1,17.812,10C17.825,11.7,17.856,13.6,17.874,15.3Zm-17.1,3.46a1.38,1.38,0,0,0,.186.825c0.019-.138.117-0.249,0.124-0.349a3.362,3.362,0,0,0-.124-0.476H0.776Zm0.248,0,0.062,0.317H1.117V19.048a0.232,0.232,0,0,0,0-.286H1.024Zm0.372,0a1.794,1.794,0,0,0,.714.952V19.683H2.141A1.73,1.73,0,0,1,2.234,19.3,1.263,1.263,0,0,0,1.4,18.762Zm0.993,0H1.8v0.032a1.306,1.306,0,0,0,.465.413Zm0.683,0.825a0.688,0.688,0,0,0-.621-0.825l-0.124.54A2.142,2.142,0,0,0,3.072,19.587Zm-1.862-.6a0.718,0.718,0,0,0-.062.349,1.409,1.409,0,0,0,.714.762V20.032A8.181,8.181,0,0,0,1.21,18.984Zm1.055,0.381c-0.012.189-.075,0.256-0.093,0.444a2.848,2.848,0,0,0,.9.286V19.683H3.01a1.911,1.911,0,0,0-.372-0.1A1.622,1.622,0,0,0,2.265,19.365ZM1.893,20.508l0.031-.254A1.946,1.946,0,0,1,1.117,19.4H1.086v0.032a0.441,0.441,0,0,0-.093.317A2.018,2.018,0,0,0,1.893,20.508Zm0.248-.635a0.509,0.509,0,0,0-.031.159,0.669,0.669,0,0,0,.279.317,1.4,1.4,0,0,0,.745.1V20.381a0.747,0.747,0,0,1-.062-0.222A3.165,3.165,0,0,1,2.141,19.873Zm27.246,0.159a0.148,0.148,0,0,1,.093.032A0.148,0.148,0,0,1,29.387,20.032Zm-0.093.032a0.148,0.148,0,0,1,.093.032A0.148,0.148,0,0,1,29.294,20.064Zm-26.936.349c0.15,0.347.433,0.271,0.9,0.254V20.6a0.962,0.962,0,0,0-.621-0.1ZM0.186,24.54a0.164,0.164,0,0,1,.031.1H0.155Z" transform="translate(0.016)"/>
  </g>
</svg>
