<svg xmlns="http://www.w3.org/2000/svg" width="80" height="40" viewBox="0 0 80 40">
  <defs>
    <style>
      .cls-1 {
        fill: #fff;
        fill-rule: evenodd;
      }
    </style>
  </defs>
  <path id="Color_Fill_1" data-name="Color Fill 1" class="cls-1" d="M46.361,14.227a0.861,0.861,0,0,0,.193.684c0.215-.143.317-0.251,0.578,0.1l0.482,3.223-0.1.2H46.747V19.3L47.518,19.6l0.1-.781h0.578q0.048-2.1.1-4.2h0.1c-0.063,1.142-.345,3.275.578,3.516l0.386-.684,0.193,0.1,0.289,0.586-0.386.586-0.386-.391v0.586c0.384,0.077.4,0.085,0.482,0.684l0.386-.1,0.482-.586,0.964,1.074-0.386.1h1.06v1.856H52.53V21.16h0.964l-0.1-.586,2.217,0.2-0.193.293A0.675,0.675,0,0,0,56,20.281c-0.352-.089-0.2,0-0.386-0.2h0.675c-0.075,1.2.215,1.439,0.193,2.539,1.254-.59,3.872.064,5.108-0.391v1.074h1.06c-0.092-.5-0.232-0.531,0-0.879,0.287,0.248.03,0.174,0.386,0.2a0.752,0.752,0,0,1,.578-0.781l0.867,0.2,0.1,0.586a2.981,2.981,0,0,1,1.349.1H64.289v0.391l0.1,0.1,0.771-.1c0.139,0.58.743,1.577,1.253,1.563l-0.482-.1a6.106,6.106,0,0,1,.578-1.758H66.8s4.754,0.872,4.819.977H69.494l0.1,0.2H69.3v0.391h1.06a18.3,18.3,0,0,1,6.072-.586c0.808,0.034,2.08-.487,3.277-0.488V21.453l0.193,0.1L80,23.992,77.88,26.629c-0.862,1.377-.935,2.71-1.446,4.59h-13.2c-1.544,0-2.09.891-3.277,0.684-6.246-1.092-14.943-.683-22.265-0.684H13.4l-0.675-.781L8,30.828v0.781l-0.193-.1-0.193-.293v0.293l-0.386-.1a0.944,0.944,0,0,1,.193-0.586,0.973,0.973,0,0,1-.867-0.293,1.379,1.379,0,0,0,.964-1.074v-0.1H6.072a1.849,1.849,0,0,1-.289,1.465H4.916L4.627,29.266a2.2,2.2,0,0,1-1.446-.2c-0.9-1.817-.608-2.51-1.06-4a4.967,4.967,0,0,1-1.735.781L0,24.969l1.639-1.074a6.739,6.739,0,0,0,1.253,2.051c3.027,0.1,6.969.314,9.639-.391l0.289,0.293c-0.237.191-.039,0.055-0.289,0.1,0.438,0.419,1.3.033,1.735,0.1l0.1-.488c-0.428.233-2.121,0.114-2.41-.391,2.727,0.047,2.883-.656,4.819-0.781l0.578,0.293-0.1.684a0.857,0.857,0,0,1,.675.391l0.289-1.172c0.645,0.046.878,0.086,1.06-.391H19.084c-0.437-.216-1.231.01-1.446-0.2h1.349a0.83,0.83,0,0,1,.1-0.586l0.867-.2a9.739,9.739,0,0,1,.771.879,1.378,1.378,0,0,1,.289-0.293l0.1,0.293-0.193.488h0.867V23.6a0.716,0.716,0,0,0,.578-0.2,2.206,2.206,0,0,0-.771-1.074c0.187-.44-0.069-0.7.1-1.074h0.1c0.2,0.939.571,2.074,1.446,2.344l0.578-.879a5.059,5.059,0,0,0,.675.879V22.82H25.06l-0.675-4.59h0.1l0.675,4.59a3.683,3.683,0,0,0,2.41-.586c-0.2-.2-0.132-0.1-0.193-0.488a1.919,1.919,0,0,0,.964-0.586l0.578,0.488-0.578.586-0.386-.293v0.1l0.289,0.586,2.024,0.2a1.15,1.15,0,0,1-.193-0.977c0.531-.121.344-0.122,0.578-0.488,0.22,0.2.037,0.113,0.289,0.1-0.2-.2-0.132-0.1-0.193-0.488a1.419,1.419,0,0,0,.964-0.586l0.578,0.488-0.578.586-0.386-.293v0.1l0.289,0.586,1.06-.1c-0.069-1.252-1-4.212-.482-4.98l0.675,4.883h0.1c0.123-.841.377-0.861,0.386-1.367a0.709,0.709,0,0,1,.289.293,1.851,1.851,0,0,0-.289.977h0.1l3.181-1.465a3.313,3.313,0,0,0-.675-1.465v-0.1l3.084-.1-2.313-7.715,0.193,0.1,2.41,7.715v-0.2l1.831-6.543-0.771-1.562,0.193,0.1,0.482,1.172h0.193l0.964-3.809,0.771-.1L43.084,7h0.1V7.977c0.391-.07.114-0.2,0.386,0.1a1.617,1.617,0,0,0-.193,1.66h0.578a0.5,0.5,0,0,1,.1-0.391l0.193,0.2a3.389,3.389,0,0,0,.386,3.516l0.289-.1,0.289-.879,0.193,0.1,0.386,0.879-0.386.586c0.734-.147,1.044-0.437,1.446,0l-0.1.2H45.783l0.1,0.391h0.482ZM42.506,7.684l0.482,0.391V7.684H42.506Zm0,0.293L42.8,9.246h0.1a1.759,1.759,0,0,0-.1-1.172Zm0.675,0.1v0Zm-0.964.2-0.867,3.809,1.06,2.149h0.1a15.35,15.35,0,0,0-.289-4.688l0.193-.2h0.1c0.147,0.4-.125.234,0.289,0.391A3.579,3.579,0,0,0,42.217,8.27ZM42.6,9.93L42.8,10.516h0.1V10.125Zm0.578,0c0.04,0.51-.063.389,0.289,0.586Zm0.289,0,0.289,0.586,0.1-.586H43.47Zm-0.771.684,0.193,2.344A5.322,5.322,0,0,0,42.7,10.613Zm0.578,0,0.193,0.879h0.1C43.581,10.936,43.6,10.831,43.277,10.613Zm-0.1,1.074,0.1,1.172Zm0.386,0.2,0.675,2.344h0.482C44.48,13.6,44.264,12.115,43.566,11.883Zm-2.41.293-1.639,6.25c1.178-.579,1.946-2.15,2.892-3.027A4.213,4.213,0,0,0,41.157,12.176Zm2.313,0.2v0Zm0.1,0.293a1.972,1.972,0,0,0,.482,1.563v-0.1Zm-0.193.2v0Zm-0.193,1.367h0.482L43.47,13.152l-0.193.1Zm1.735-.977v0.293l0.1-.293h-0.1Zm1.542,0.293,0.193,0.1Zm-1.735.1v0Zm-2.12.1,0.1,0.488Zm0.771,0.586,0.289,0.1Zm0.482,0,0.193,0.1Zm0.482,0,0.193,0.1Zm1.639,0,0.289,0.1Zm-2.12.2,0.289,0.1Zm0.482,0,0.193,0.1Zm-0.386.2,0.289,0.1Zm0.482,0,0.289,0.1Zm1.06,1.074h0.771l0.1-.781-0.867.1v0.684Zm1.253-.781a1.374,1.374,0,0,0,.386,1.074v-0.1l-0.289-.977h-0.1Zm-3.47.1,0.289,0.586,0.1-.586H43.277Zm0.578,0v0.684h0.289l0.193-.586Zm1.253,0,0.1,0.684h0.1V15.106H45.108Zm-2.41.2v0Zm1.928,0c0.056,0.392,0,.292.193,0.488Zm-1.639.1c-0.235,1.206-.748,3.92-0.289,5.078a0.978,0.978,0,0,0,.482-1.172,1.815,1.815,0,0,0-.1-1.074h0.289C43.429,17.057,43.624,16.029,42.988,15.4Zm1.349,0.2v0Zm-2.024.1L40,18.426a4.594,4.594,0,0,0,2.024-.2l0.289,0.977V15.691Zm1.735,0.391c0.047,0.3-.108.064,0.1,0.293V16.082h-0.1Zm0.289,0.2,0.289,0.1Zm1.06,0,0.386,0.1Zm0.482,0,0.386,0.1Zm1.157,0.2-0.289.1a5.148,5.148,0,0,1,.193,1.758h0.386Zm-1.639.2,0.1,0.977h0.578a1.059,1.059,0,0,1,.1-0.781,0.628,0.628,0,0,0,.482-0.2v-0.1Zm-1.639,0-0.1.977a0.958,0.958,0,0,0,.675-0.488Zm0.482,0,0.193,0.391,0.1-.2,0.193-.2H44.241Zm0.482,0.293v0.488l0.193,0.1V17.254Zm-0.386.391-0.289.488c0.384-.156.312-0.192,0.675,0A0.587,0.587,0,0,0,44.337,17.352Zm2.121,0.2c0.121,0.152.041,0.12,0.193,0H46.458Zm-2.6.391,0.289,0.1Zm1.542,0,0.289,0.1Zm1.06,0,0.193,0.1Zm-2.8.2h0Zm0.578,0,0.289,0.1Zm0.386,0,0.193,0.1Zm0.771,0,0.289,0.1Zm3.181,0.2-0.193.1v0.488l0.386-.2Zm-4.916.1A2.037,2.037,0,0,1,43.47,19.6l1.542-1.074v-0.1H43.663Zm1.735,0v0.781l0.867-.781H45.4Zm1.157,0a0.557,0.557,0,0,0,0,.586c-0.528-.257-0.36-0.187-0.867.2l0.1,0.391h0.675c0.084-.254-0.039-0.341.193-0.2Zm-1.639.293-1.06.781v0.1L45.2,19.7V19.4Zm3.181,0.2v0Zm-0.386.1L48,19.109Zm0.193,0.2-0.193.1c0.172,0.35-.051.116,0.289,0.293Zm0.193,0V19.6h0.1Zm0.964,0v0Zm-3.566.2v0Zm-8.867.2v0Zm0,0.683-3.277,1.465v0.1c0.846-.093,1.344-0.067,1.253.586l2.313-.488V20.574l-0.193.293C36.721,20.4,36.814,20.458,36.627,20.281Zm-4.819.293a0.708,0.708,0,0,0,.289.293Zm22.458,0.1-0.675.1V21.16h0.482l0.675-.391v-0.1H54.265ZM56,20.77l-0.1.293,0.193-.2Zm-24.193.2v0.293L32,20.965H31.807Zm5.108,0.1v0ZM56,21.16v0Zm-27.566.2a0.37,0.37,0,0,0,.193.2Zm8.578,0.1v0.293l0.1-.293h-0.1Zm-3.855.1-0.1.2,0.193-.2h-0.1Zm-4.723.2v0.2C28.528,21.771,28.522,21.92,28.434,21.746Zm23.807,0.293,0.1,0.391h0.1C52.346,22.073,52.437,22.23,52.241,22.039Zm-15.325.1-0.1.2,0.386-.2H36.916Zm-0.482.1,0.193,0.2A0.369,0.369,0,0,0,36.434,22.234Zm-0.482.1a0.345,0.345,0,0,0,.289.2Zm27.855,0v0Zm0.578,0-0.1.2Zm-29.012.1,0.386,0.2Zm1.349,0.1c0.249,0.279.124,0.154,0.386,0H36.723Zm-0.386.1-0.386.1v0.1l0.675-.2H36.337Zm-0.578.1-0.578.293C35.341,22.968,36.033,22.959,35.759,22.723Zm-6.554.2,0.289,0.1Zm0.386,0h0Zm-4.916.1,0.385,0.1Zm1.06,0,0.289,0.1Zm0.482,0,0.386,0.1Zm-3.759.2a0.53,0.53,0,0,0,.289.391Zm2.988,0,0.193,0.1Zm0.289,0,0.289,0.1Zm0.482,0,0.289,0.1Zm38.361,0c0.226,0.207-.011.043,0.289,0.1v-0.1H64.578Zm-39.132.2,0.193,0.1Zm0.289,0,0.289,0.1Zm3.374,0,0.386,0.1Zm0.482,0h0Zm49.253,0-0.1.2,0.482-.1Zm-0.771.1c0.21,0.181.018,0.074,0.482,0.1Zm-13.4.1v0.2C64.769,23.626,64.763,23.775,64.675,23.6Zm13.012,0,0.193,0.1Zm1.446,0-0.385.1v0.1C79.175,23.749,79.082,23.668,79.133,23.6Zm-45.59.1-0.1.2C33.651,23.826,33.629,23.9,33.542,23.7Zm28.048,0h0Zm15.518,0L77.3,23.8Zm1.253,0-0.289.1v0.1l0.482-.2H78.361Zm-59.277.1,0.193,0.1Zm47.036,0v0.586l0.193-.1C66.258,23.894,66.318,23.993,66.121,23.8Zm10.6,0,0.193,0.1Zm-3.181.1,0.193,0.1Zm2.024,0,0.386,0.1Zm0.578,0,0.386,0.1Zm1.06,0,0.289,0.1Zm1.542,0,0.385,0.1Zm0.675,0,0.193,0.1Zm-45.783.1,0.193,0.1Zm41.253,0,0.289,0.1Zm1.831,0,0.1,0.2,0.1-.2H76.723Zm1.349,0h0Zm-3.952.1,0.193,0.1Zm2.024,0c0.234,0.208-.01.058,0.386,0.1v-0.1H76.145Zm-1.735.2,0.386,0.1Zm-2.6.1L72,24.481Zm-2.313.2,0.289,0.1Zm2.506,0,0.193,0.1Zm-53.3.1v0.488l0.289-.488H18.7Zm52.241,0h0Zm-52.627.1,0.193,0.1Zm0.771,0,0.193,0.1Zm1.735,0,0.193,0.1Zm0.289,0h0Zm49.639,0v0Zm-5.012.1,0.386,0.1Zm0.482,0,0.193,0.1Zm2.506,0a0.345,0.345,0,0,0,.289.2Zm-50.41.2a0.369,0.369,0,0,0,.193.2Zm47.422,0v0Zm0.482,0h0ZM13.4,25.457c0.334,0.183.392,0.207,0.675,0H13.4Zm3.855,0V25.75h0.193A0.343,0.343,0,0,0,17.253,25.457Zm0.578,0.488v0.2C17.926,25.97,17.919,26.119,17.831,25.945Zm-14.265.293,0.289,0.1Zm1.06,0h0Zm0.771,0,0.289,0.1Zm0.867,0,0.386,0.1Zm10.988,0,0.1,0.2,0.1-.2H17.253Zm-14.361.1,0.193,0.1Zm1.446,0.1,0.193,0.1Zm0.386,0h0Zm0.675,0,0.193,0.1Zm0.867,0v0.293l0.193-.293H6.265Zm0.867,0a0.4,0.4,0,0,0,.578.1Zm0.771,0,0.1,0.2C7.959,26.538,8.077,26.563,7.9,26.434Zm0.289,0c0.163,0.242.058,0.114,0.289,0H8.193Zm0.675,0v0Zm-5.3.1,0.289,0.2A0.346,0.346,0,0,0,3.566,26.531Zm3.277,0,0.193,0.1Zm3.566,0h0Zm0.771,0,0.289,0.1Zm1.253,0,0.289,0.1Zm0.771,0,0.193,0.1Zm0.675,0h0Zm0.578,0h0Zm2.12,0,0.386,0.1Zm0.675,0h0Zm-12.916.1,0.193,0.1Zm0.386,0h0Zm3.759,2.832H7.711L8,30.242l0.482-.1V29.461Zm0.675,0.1v0.586a5.7,5.7,0,0,0,2.6,0Z" transform="translate(0 0.531)"/>
</svg>
