<svg xmlns="http://www.w3.org/2000/svg" width="39.938" height="40" viewBox="0 0 39.938 40">
  <defs>
    <style>
      .cls-1 {
        fill: #fff;
        fill-rule: evenodd;
      }
    </style>
  </defs>
  <path id="Color_Fill_1" data-name="Color Fill 1" class="cls-1" d="M8.127,14c0.956,0,2.007.049,3.036,0.094v0.283H10.918a0.748,0.748,0,0,1-.881.566,0.319,0.319,0,0,0-.49.047c0.18,0.033.134,0,.2,0.142a0.236,0.236,0,0,1,.049.142h0.245a0.513,0.513,0,0,1,0,.236,0.437,0.437,0,0,1-.245.047l-0.049.236a1.272,1.272,0,0,1-.392.047,2.432,2.432,0,0,0-.881,0v0.047H8.519a2.835,2.835,0,0,0,.93.614,3.263,3.263,0,0,1,.734-0.991,4.941,4.941,0,0,0,.441.331,1.282,1.282,0,0,0,.441.661V16.03L16.5,16.077a0.507,0.507,0,0,1-.049.566h2.595V16.549A4.883,4.883,0,0,1,18.36,14.8a11.487,11.487,0,0,1,1.322-.567,0.936,0.936,0,0,0,.392.189l0.1,0.283c0.271,0.419.829,1.684,1.42,1.7v0.331c1.489,0,3.313-.037,4.308-0.047v0.142a1.539,1.539,0,0,0,.343-0.047,2.532,2.532,0,0,0,1.224.094,2.426,2.426,0,0,0,.881.047h2.4a18.077,18.077,0,0,0,2.889.047c1.01,0.02,2.193.047,3.28,0.047H38.14A10.564,10.564,0,0,1,40,16.833v0.9a13.055,13.055,0,0,1-1.665-.189H37.16c-0.863,0-1.7,0-2.644,0-2.853,0-5.873.072-8.617,0.189v0.142c-0.719-.007-1.6-0.048-2.595-0.047v0.095a0.309,0.309,0,0,1,.049.189H23.5a0.192,0.192,0,0,0,.2.142V18.3H23.5v0.142c-0.276.016-.008,0.087-0.2,0.189H22.521v0.047a1.726,1.726,0,0,1,.294.991h0.343a7.657,7.657,0,0,0,1.86.047v0.519a9.371,9.371,0,0,0-2.5.094H23.06v0.331H21.983l-0.49.614a0.179,0.179,0,0,1,.2,0c-0.115.069-.276,0.149-0.392,0.236h0.049a1.232,1.232,0,0,1,.832.519,0.6,0.6,0,0,1,.049.331,2.478,2.478,0,0,0-.392.283,2.651,2.651,0,0,1-1.077-.425,0.363,0.363,0,0,0-.1.142l-1.028-.047a1.971,1.971,0,0,0-.392-0.142c-0.3.024-.617,0.212-0.979,0.236-0.016.229-.076,0.291-0.1,0.519h0.049a2.24,2.24,0,0,1,.832-0.047c0.6,0,1.136-.006,1.762,0v0.236a5.97,5.97,0,0,1,1.224.425c0.4,0.123.727,0.111,1.126,0.236,0.832,0.261,1.77.512,2.644,0.708V24.67a0.793,0.793,0,0,0-.1.283h-0.1a4.885,4.885,0,0,0-1.273-.331,20.916,20.916,0,0,0-3.231-.85V23.82H21.053a1.58,1.58,0,0,1-.1.519h0.294v0.189H20.955V25h-0.93V24.622H19.878V25H18.7V24.67a1.028,1.028,0,0,0-.392-0.142V25h-0.93V24.528H17.038V24.339h0.343a1.772,1.772,0,0,1-.1-0.519H3.966a1.616,1.616,0,0,1-.049.519H4.211v0.189H3.917V25H2.987V24.528H2.644V24.339H2.987a1.77,1.77,0,0,1-.1-0.519,5.716,5.716,0,0,1-1.763-.094A9.708,9.708,0,0,1,.1,23.631a0.722,0.722,0,0,1-.049-0.378,28.937,28.937,0,0,1,3.084-.142V22.876l2.154,0.047v0.189c1.5,0.021,2.635-.047,4.162-0.047a4.674,4.674,0,0,0,1.518-.094H10.624V22.876c0.639,0,1.177.007,1.714,0a0.587,0.587,0,0,1,.2-0.189V22.64a1.337,1.337,0,0,0-.783-0.094V22.64c-0.191.073-.166-0.131-0.294,0.047H11.408l-0.049-.142H10.184c0.047-1.308.085-1.558-1.322-1.511v0.472H8.47V21.034H8.078v0.094H8.127v0.047H8.078a4.613,4.613,0,0,1-1.273.047,1.224,1.224,0,0,1-.049.567,0.358,0.358,0,0,1-.2.236,3.453,3.453,0,0,1-1.86,0,3.381,3.381,0,0,1-.2-1.605,3.943,3.943,0,0,1-1.273-.094,3.947,3.947,0,0,1-.2-1.794c0.173,0.034.121,0.058,0.294,0.094A1.794,1.794,0,0,0,3.28,18.06h0.2a4.27,4.27,0,0,1,.049,1.18,0.793,0.793,0,0,1-.245.047V19.24A0.235,0.235,0,0,0,3.329,19.1H3.182a1.414,1.414,0,0,0,.2,1.133c0.047,0.012.019,0.037,0.049,0a3.229,3.229,0,0,1,1.567-.142V19.476a0.875,0.875,0,0,1,.245.094V19h0.2a3.181,3.181,0,0,1,.049.9,1.909,1.909,0,0,1,.539,0,1.4,1.4,0,0,0,.147.283,4.98,4.98,0,0,0,.636-0.047c0.107-.047.085-0.258,0.343-0.189a0.672,0.672,0,0,1,.147.189c0.187,0.1.947-.027,1.175,0.047V19.76H8.617v-0.33H8.568a0.358,0.358,0,0,1-.343.142V19.476c0.435-.236.145-0.259,0.294-0.425a0.464,0.464,0,0,0,.245-0.189c-0.257-.274-0.54-1.232-0.881-1.322a1.791,1.791,0,0,1-1.175.094,1.216,1.216,0,0,1-.979-1.794,0.9,0.9,0,0,1,.2-0.425c0.17-.125.438-0.071,0.636-0.189a0.71,0.71,0,0,1,.245-0.236c0.153-.032.114,0.086,0.147,0.094,0,0,.78-0.167.832-0.189a4.462,4.462,0,0,1,.636-0.378V14.472H8.127V14Zm0.979,1.039H9.3V14.9H9.253c-0.063.067-.057,0-0.147-0.047v0.189Zm-2.889.708a3.281,3.281,0,0,0,1.028.472V16.125a1.129,1.129,0,0,0-.2-0.331A1.03,1.03,0,0,1,6.218,15.747Zm-0.294.189A1.227,1.227,0,0,0,7.785,17.3a0.168,0.168,0,0,0,.049-0.094H7.785a0.344,0.344,0,0,0-.245-0.142,0.59,0.59,0,0,0,0-.236,3.712,3.712,0,0,1-.734.283,0.333,0.333,0,0,1-.1-0.189A2.939,2.939,0,0,0,7.344,16.5C6.865,16.364,6.444,16.061,5.924,15.936Zm1.273,0a0.178,0.178,0,0,0,.1.047A0.18,0.18,0,0,0,7.2,15.936Zm7.393,0.8v0.189h1.42V16.738H14.59Zm22.815,0.378a0.7,0.7,0,0,0,.539.094V17.163h0.049V17.116H37.405Zm0,0.236a0.7,0.7,0,0,0,.539.095V17.4h0.049V17.352H37.405Zm-22.13,1.275a0.276,0.276,0,0,0,.294.189c0.2-.122.588-0.061,0.783-0.189H15.275Zm2.644,0.236a7.411,7.411,0,0,0-2.35.189V19.1h4.259a1.428,1.428,0,0,1,.049-0.472H18.066a0.178,0.178,0,0,1-.1.047v0.047H17.919v0.142ZM3.182,18.815c0.041,0.153-.024.072,0.1,0.142V18.91a0.169,0.169,0,0,0,.049-0.095H3.182Zm5.826,0.614c0.01,0.066-.04-0.019-0.049.047-0.094.037,0.1,0.047,0.1,0.047A0.16,0.16,0,0,0,9.009,19.429Zm-3.868.283c0.041,0.153-.024.072,0.1,0.142V19.712h-0.1ZM7,20.043c-0.042.071-.139,0.035-0.049,0.094v0.047a0.308,0.308,0,0,1,.245,0V20.09H7.148V20.043H7Zm-2.2.378a7.387,7.387,0,0,0,.049,1.369h0.1a3.435,3.435,0,0,0,1.518,0,1.319,1.319,0,0,0,.049-0.425H6.365a0.959,0.959,0,0,1-.2.425C6.131,21.758,6.06,21.728,6.022,21.7a0.31,0.31,0,0,1-.049-0.189,0.545,0.545,0,0,0,.1-0.142H5.435a0.339,0.339,0,0,0-.2-0.047,1.254,1.254,0,0,1-.245-0.9H4.8Zm0.343,0a3.142,3.142,0,0,0,.049.661,0.749,0.749,0,0,0,.2.095,1.307,1.307,0,0,1,.979-0.142,0.818,0.818,0,0,0,.147-0.614H5.141Zm1.763,0a1.08,1.08,0,0,0,.049.378L7.2,20.751V20.421H6.9Zm0.392,0.094v0.236H8.47V20.562H7.98V20.468C7.9,20.438,7.468,20.516,7.295,20.515Zm12.191,0.047V20.8h0.049v0.047l0.294,0.047a0.58,0.58,0,0,1,.049-0.189A1.2,1.2,0,0,0,19.486,20.562Zm-10.428.047a0.189,0.189,0,0,1-.147.095v0.047H9.792V20.7A1.635,1.635,0,0,0,9.058,20.609Zm8.372,0.472-0.049.142h0.1A0.223,0.223,0,0,0,17.43,21.082Zm-0.245,1.464a0.667,0.667,0,0,1-.441.094v0.047a0.917,0.917,0,0,0,.685.189,0.178,0.178,0,0,0,.1.047V22.876c-0.1-.1-0.07-0.16,0-0.33H17.185Zm1.224,1.275a1.582,1.582,0,0,1-.1.519H18.6v0.189h0.1V24.339h0.441V23.82H18.409Zm1.028,0v0.519h0.587a1.769,1.769,0,0,1-.1-0.519h-0.49Z" transform="translate(-0.063 0.5)"/>
</svg>
