<svg xmlns="http://www.w3.org/2000/svg" width="40" height="40" viewBox="0 0 40 40">
  <defs>
    <style>
      .cls-1 {
        fill: #fff;
        fill-rule: evenodd;
      }
    </style>
  </defs>
  <path id="Color_Fill_1" data-name="Color Fill 1" class="cls-1" d="M7.479,19.743l-0.241.049,1.11-.049L8.4,19.452l0.1,0.049c0,0.172-.1.124,0.1,0.243l0.193,0.049A8,8,0,0,0,8.83,17.85H9.216V17.559H9.843a4.75,4.75,0,0,0,.241,1.359l-0.338.049c0.248,0.263-.254.278,0,0.679a2.076,2.076,0,0,0,1.206.145,3.492,3.492,0,0,0,.1-0.582,4.533,4.533,0,0,0,1.447-.146l-0.145-.34a6.4,6.4,0,0,0-.82.049V18H11.87l0.145-.291c0.537,0.174,1.325-.162,1.834,0a8.28,8.28,0,0,0,2.026.243l0.1-.243a0.447,0.447,0,0,0,.531.243V18l-0.048.1-0.772.049c0.726,0.16.542,1.352,0.434,1.65h0.338V19.646a2.791,2.791,0,0,0,.289-1.213l1.013,0.049,0.1,1.165a10.314,10.314,0,0,1,2.075.194,0.862,0.862,0,0,0,.82.825V20.471a2.178,2.178,0,0,0,.868-0.1l0.1,0.1,0.1,0.485,3.474,0.194h2.605V20.907H30.35c0.042,0.263.017,0.184,0.193,0.291l0.1-.049,2.075-.1a2.144,2.144,0,0,0,1.255.146,12.04,12.04,0,0,1,1.351,0c1.458-.146,3.034.042,4.68,0.049v0.776l-17.033.146a11.009,11.009,0,0,1-1.882.534l-0.145-.194a1.014,1.014,0,0,1-.675.243c2.185-.027,4.727-0.413,6.08.582a0.821,0.821,0,0,1,.772-0.146v0.437a7.449,7.449,0,0,1,1.93-.34,3.582,3.582,0,0,0,3.378.873c0.319-.145.253-0.334,0.627-0.146,0.019-.185-0.054-0.06.048-0.194h0.048L33.2,25.032l0.29,0.049c-0.506.828-.2,1.088-0.29,1.989a0.389,0.389,0,0,1,.386.048l-0.193.1H32.955l-0.048-.388c-0.593.24-.461,0.959-0.82,1.407a14.553,14.553,0,0,1-3.474,2.426c-1.44.543-5.542,0.194-7.479,0.194L8.975,30.806,4.729,28.817a9.486,9.486,0,0,1-1.255-1.844H3.185l0.1,1.456H2.992V28.283a13.107,13.107,0,0,1,.193-1.892L2.7,26.2l0.048-.1,0.338,0.1a1.072,1.072,0,0,1,0-.679,1.354,1.354,0,0,1,.627-0.194l-0.048-.34-0.145.194c-0.154-.14-0.115-0.06-0.1-0.291-1.383.2-1.788-.5-2.75-0.873a5.993,5.993,0,0,0-.1-1.407l0.241-.049c0.575,0.108,2.5-.562,2.8.049,1.887-.877,5.353.323,7.286,0.1V22.654l-3.715-.728H3.715c-0.791,0-2.6.258-3.088-.146,0.321-.12.219-1.022,0.193-1.456a3.159,3.159,0,0,1-.676.194L0,20.034a0.444,0.444,0,0,1,.434-0.291c0.018,0.154.11,0.321,0.386,0.194H0.676V19.888l0.048-.146a34.582,34.582,0,0,1,5.983,0c0.046-2.535.145-5.373,0.145-8.1L6.9,8H6.948L7,19.112l0.483,0.146v0.485Zm7.431-1.5v0.146H13.9a2.629,2.629,0,0,1-.338.776,3.4,3.4,0,0,1,1.206.194A6.733,6.733,0,0,1,14.91,18.238Zm-2.027.388,0.048,0.485,0.531-.048,0.1-.291V18.724Zm-0.386.1v0.146l0.1,0.1Zm-3.233.194,0.1,0.049Zm0,0.243,0.1,0.437Zm2.992,0.146,0.1,0.048Zm1.013,0a0.173,0.173,0,0,0,.145.1A0.173,0.173,0,0,0,13.269,19.306Zm0.241,0v0Zm1.206,0.34c0.065,0.13.112,0.142,0.145,0H14.717Zm-9.7.048h0Zm1.062,0,0.145,0.049Zm-4.536.34c0.117,0.1,0,.029.193,0.049V20.034H1.544Zm0.579,0-0.579.194v0.291l1.5-.437Zm1.3,0-1.882.631v0.388l2.847-.97V20.034H3.426ZM1.834,21.247a6.55,6.55,0,0,0,1.978-.437V20.422a0.742,0.742,0,0,1,.434.243l0.483-.582L1.544,21.15l0.048,0.437,0.145-.1C1.837,21.391,1.8,21.441,1.834,21.247Zm2.75-.97-0.1.291A0.259,0.259,0,0,0,4.584,20.276ZM21.52,20.471a0.346,0.346,0,0,0,.1.291A0.289,0.289,0,0,0,21.52,20.471ZM4,20.665l0.1,0.049ZM3.764,21.1l-0.29.1v0.049H3.812Zm-1.206.437v0Zm1.158,1.65c0.276,0.046.207,0.1,0.483,0.146a0.264,0.264,0,0,1,.145-0.194V23.091H3.86l-0.048-.34H3.764V22.9Zm25.428,0.437a0.362,0.362,0,0,0,.241.243Zm-1.158.145,0.1,0.049Zm0.145,0v0Zm4.391,0.34,0.145,0.049Zm-0.193.146-0.289.049v0.049a1.721,1.721,0,0,0,.289.291V24.255Zm0.675,0v0Zm-1.4.049h0Zm-0.579.146a1.046,1.046,0,0,0,.724.145Zm1.4,0.1v0ZM33,24.595v0.194h0.048Zm-0.772.146,0.145,0.049Zm0.675,0.1-0.048.1C32.958,24.892,32.912,24.936,32.907,24.838ZM7.189,28.865l-0.048.146,0.82,0.34-0.048-.485H7.189Zm4.2,0.34a1.6,1.6,0,0,1-.434.874h0.965l-0.1-.1Zm3.522,0a1.706,1.706,0,0,1-.434.874H15.44l-0.193-.194Zm3.522,0L18,30.078h0.965l-0.193-.194Zm3.522,0-0.434.874h0.965l-0.145-.146Zm3.522,0a1.859,1.859,0,0,1-.434.874h0.965l-0.145-.146Z" transform="translate(0 0.516)"/>
</svg>
