<svg xmlns="http://www.w3.org/2000/svg" width="39.969" height="40" viewBox="0 0 39.969 40">
  <defs>
    <style>
      .cls-1 {
        fill: #fff;
        fill-rule: evenodd;
      }
    </style>
  </defs>
  <path id="germ_pzkpfw_vi_tiger_p_ico" class="cls-1" d="M6.634,19.834L6.85,19.856a0.381,0.381,0,0,1,.043.133,1.168,1.168,0,0,1-.3.243v0.022H6.613a0.249,0.249,0,0,0,.108.044,1.36,1.36,0,0,1,.215-0.155L7,19.989H7.151c0.031-.014.074-0.1,0.108-0.111h5.148V19.834h0.151V19.5a1.43,1.43,0,0,1-.646-0.066,3.01,3.01,0,0,0-.689.044c-0.212.047-.342-0.081-0.517-0.044a5.88,5.88,0,0,1-1.034.066,0.416,0.416,0,0,1-.022-0.133,1.314,1.314,0,0,0,0-.531c-0.015-.456-0.056-1-0.065-1.439a7.412,7.412,0,0,0,1.551-.221,4.844,4.844,0,0,1,.517.022,7.343,7.343,0,0,1,1.142-.155l-0.021.133h0.086V16.957H12.9a4.082,4.082,0,0,1,.991-0.022,0.249,0.249,0,0,0-.043-0.155,0.21,0.21,0,0,0,.065-0.088A0.259,0.259,0,0,0,14,16.78c0.027-.072.019-0.058,0.108-0.066V16.072l0.065-.044V15.74A0.427,0.427,0,0,1,14.41,15.7V15.474h0.108V15.7H15.4c0.047-.187.315-0.143,0.539-0.133a0.286,0.286,0,0,1,.021-0.089c0.2,0.035.1-.024,0.215-0.066a0.319,0.319,0,0,1,.28.088h0.28c0.016-.005.054-0.062,0.065-0.066h0.366a1.351,1.351,0,0,0,.065.266h0.151V15.474h0.108V15.7h0.194a0.732,0.732,0,0,1,.043.332,1.192,1.192,0,0,1,.065.664h0.022a0.232,0.232,0,0,1,.194.022,0.312,0.312,0,0,1,.28-0.088,1,1,0,0,1,.086.31h1.056l1.551,0.243c0.089,0.007.044-.051,0.086-0.066l0.409,0.066v0.066a6.111,6.111,0,0,1,1.034.155,0.2,0.2,0,0,0,.194-0.066l0.237,0.022c0.013,0.123.047,0.067,0.086,0.133A3.846,3.846,0,0,1,23.2,18a0.062,0.062,0,0,0,.021-0.022,1.377,1.377,0,0,0,.129-0.443h0.215a1.807,1.807,0,0,0,.538.221l0.021,0.066H24.34A6.4,6.4,0,0,0,26.6,18h0.969a2.157,2.157,0,0,1,.237.177h3.274a1.139,1.139,0,0,1,.108.111,1.184,1.184,0,0,0,.28.088h1.616a6.033,6.033,0,0,0,1.142.022l1.96,0.022a6.5,6.5,0,0,0,1.422-.044h0.409l0.021-.066c0.082-.042.244,0.05,0.345,0a1.316,1.316,0,0,1,.5-0.266,2.037,2.037,0,0,0,.948.177c0.03,0.084.1,0.159,0.129,0.244a0.741,0.741,0,0,1-.172.73,4.109,4.109,0,0,1-.668.022,0.772,0.772,0,0,1-.323.155,1.541,1.541,0,0,0-.668-0.332H37.609a4.727,4.727,0,0,0-1.012-.044l-1.917.022-2.24.022a4.039,4.039,0,0,0-1.163.044c-0.072.027-.13,0.128-0.194,0.155H27.808a1.808,1.808,0,0,1-.237.177H24.814a1.087,1.087,0,0,1-.086.088H24.405l-0.065.088H24.125v0.155H24.1v0.022c-0.285.018-.442,0.149-0.754,0.155a0.969,0.969,0,0,0-.108-0.354v0.022a1.638,1.638,0,0,0-.108.465H22.66c-0.032.056-.009,0.034-0.086,0.044a1.17,1.17,0,0,1-.022.332h1.206c0.04-.108.157-0.1,0.3-0.088,0.125,0.311.545,0.172,0.582,0.575-0.074.038-.083,0.04-0.086,0.155a0.449,0.449,0,0,0,.452.111c0.033-.016,0,0,0.065,0,0-.316.127-0.35,0.452-0.332a0.142,0.142,0,0,1,.086-0.022v0.088h0.108a0.4,0.4,0,0,0,.065.089l0.022,0.177,0.366,0.022v0.133a0.988,0.988,0,0,1-.388,0,0.348,0.348,0,0,1-.043.177l-0.129.022v0.089A0.471,0.471,0,0,0,25.4,21.6v0.022a0.113,0.113,0,0,1,.065.111h0.065a0.146,0.146,0,0,0,.022.088,1.3,1.3,0,0,0,.129.2,16.015,16.015,0,0,0,1.9-.022,0.109,0.109,0,0,0,.021.066,3.485,3.485,0,0,0,1.379,1.261,0.665,0.665,0,0,1-.108.265,0.387,0.387,0,0,1-.172.066,0.666,0.666,0,0,0-.56-0.111v0.155a0.221,0.221,0,0,1,.172.088,0.467,0.467,0,0,1,.065.177H28.239c0.009,0.126.041,0.182,0.043,0.332,0.135,0.033.139,0.111,0.129,0.288l-0.129-.022a2.491,2.491,0,0,1-.043.332,0.944,0.944,0,0,1,.108.088,0.87,0.87,0,0,0-.065.221,0.6,0.6,0,0,1-.151-0.066,1.425,1.425,0,0,1-.129.31,0.212,0.212,0,0,1,.043.133,0.271,0.271,0,0,1-.151.155,0.118,0.118,0,0,0-.086-0.088,0.526,0.526,0,0,1-.215.2l0.021,0.2a0.3,0.3,0,0,0-.151.111H27.442V26.141a0.806,0.806,0,0,1-.065-0.111,0.924,0.924,0,0,1-.28.177,0.357,0.357,0,0,1,0,.155,0.307,0.307,0,0,1-.151.066,0.419,0.419,0,0,0-.065-0.133c-0.135.119-.288,0.068-0.259,0.31l-0.065.022a0.09,0.09,0,0,1-.108.022c-0.027-.03-0.039-0.079-0.065-0.111-0.1.089-.267,0.057-0.28,0.243,0.055,0.09-.106.137-0.151,0.111-0.025-.032-0.038-0.081-0.065-0.111l-0.259.133c0.006,0.106.03,0.141-.021,0.177a0.392,0.392,0,0,1-.151.066,0.277,0.277,0,0,0-.043-0.133,0.072,0.072,0,0,0-.043.022,1.091,1.091,0,0,0-.237.111c0.006,0.106.03,0.141-.021,0.177a0.166,0.166,0,0,1-.129.044c-0.047-.068-0.006-0.087-0.108-0.111-0.1.091-.232,0.039-0.237,0.243a0.115,0.115,0,0,1,.021.066,0.439,0.439,0,0,1-.172.044,0.2,0.2,0,0,1-.021-0.111,0.27,0.27,0,0,0-.323.243,0.115,0.115,0,0,1,.021.066H24.125a0.31,0.31,0,0,1-.151.044V27.734H23.931a0.375,0.375,0,0,0-.28.044H23.63v0.155l-0.194.022-0.021-.111a0.3,0.3,0,0,0-.086-0.022,0.509,0.509,0,0,1-.237.022L23.07,28H22.876a0.446,0.446,0,0,0,0-.133,0.822,0.822,0,0,0-.345-0.022,0.687,0.687,0,0,1-.022.155H22.316a0.688,0.688,0,0,1,.021-0.155H21.971a0.693,0.693,0,0,1-.021.155H21.756l0.022-.155H21.432a0.488,0.488,0,0,0-.021.155H21.2l0.021-.155H20.872a0.488,0.488,0,0,0-.022.155H20.635a0.45,0.45,0,0,0,.022-0.155H20.312v0.044a0.2,0.2,0,0,0-.021.111H20.075l0.022-.155H19.731V28H19.515V27.845H19.171a1.111,1.111,0,0,1-.021.155H18.934l0.021-.155H18.589v0.133a0.689,0.689,0,0,1-.215.022V27.845H18.008V28H17.792a0.687,0.687,0,0,1,.022-0.155H17.448v0.044a0.2,0.2,0,0,0-.022.111H17.211l0.021-.155H16.866V28H16.651V27.845H16.284V28H16.069l0.022-.155H15.724v0.133a0.69,0.69,0,0,1-.215.022V27.845H15.164L15.143,28H14.949V27.845H14.6a1.111,1.111,0,0,1-.021.155H14.389V27.845H14.044a0.488,0.488,0,0,0-.022.155H13.829a0.077,0.077,0,0,0-.022-0.044,0.355,0.355,0,0,0,.022-0.111H13.463V28H13.247l0.022-.155H12.9V28H12.687l0.022-.155H12.364a0.488,0.488,0,0,0-.022.155H12.149a0.077,0.077,0,0,0-.021-0.044,0.356,0.356,0,0,0,.021-0.111H11.8a0.488,0.488,0,0,0-.022.155H11.589a0.077,0.077,0,0,0-.022-0.044,0.352,0.352,0,0,0,.022-0.111H11.244v0.044a0.2,0.2,0,0,0-.021.111H11.029V27.823H10.684L10.662,28H10.469V27.823H10.145a0.566,0.566,0,0,0-.021.177H9.908V27.823H9.564v0.155A0.69,0.69,0,0,1,9.348,28l0.022-.177H9.025A0.569,0.569,0,0,0,9,28H8.788l0.022-.177H8.465L8.444,28H8.25a0.691,0.691,0,0,1,.022-0.155,1.2,1.2,0,0,0-.345-0.022L7.905,28H7.711l0.022-.177H7.388L7.367,28H7.173V27.823H6.85v0.044A0.246,0.246,0,0,0,6.828,28H6.634l-0.022-.066a0.2,0.2,0,0,0,.022-0.111H6.29A0.773,0.773,0,0,1,6.268,28H6.074L6.1,27.823H5.773v0.022H5.751a0.239,0.239,0,0,1-.022.133A0.182,0.182,0,0,1,5.622,28a0.108,0.108,0,0,0-.065-0.022V27.8a1.5,1.5,0,0,1-.323-0.044v0.111a0.115,0.115,0,0,0-.022.066l-0.194-.022a1.2,1.2,0,0,1,.043-0.177c-0.135-.01-0.181-0.057-0.323-0.066L4.717,27.8l-0.194-.044V27.734a0.242,0.242,0,0,0,.043-0.155,0.992,0.992,0,0,1-.3-0.088,0.14,0.14,0,0,1-.108.155A0.25,0.25,0,0,0,4.05,27.6l0.022-.177-0.3-.066-0.022.133a1.1,1.1,0,0,1-.172-0.044L3.6,27.27a0.992,0.992,0,0,1-.3-0.088l-0.043.155a1.748,1.748,0,0,0-.172-0.044,0.872,0.872,0,0,1,.043-0.155H3.1V27.115l-0.3-.066a0.125,0.125,0,0,1-.065.133,0.22,0.22,0,0,0-.129-0.044l0.022-.155H2.606V26.96a0.945,0.945,0,0,1-.28-0.088,0.306,0.306,0,0,1-.065.155C2.228,27,2.166,26.988,2.132,26.96a0.081,0.081,0,0,1-.022-0.044,0.159,0.159,0,0,0,.043-0.088,0.88,0.88,0,0,0-.345-0.111,0.086,0.086,0,0,1-.065.088,0.244,0.244,0,0,1-.151-0.155,0.16,0.16,0,0,0,.043-0.089,0.474,0.474,0,0,1-.258-0.177,0.481,0.481,0,0,1-.129.088,0.472,0.472,0,0,1-.129-0.155,0.113,0.113,0,0,0,.065-0.111,0.5,0.5,0,0,1-.194-0.221,0.527,0.527,0,0,1-.151.044,1.676,1.676,0,0,1-.086-0.221H0.819a0.133,0.133,0,0,1,.043-0.044V25.743H0.84a1.929,1.929,0,0,0-.108-0.288A0.26,0.26,0,0,1,.6,25.389a0.553,0.553,0,0,1-.043-0.2H0.668a0.488,0.488,0,0,0,.022-0.155,0.34,0.34,0,0,1,0-.177c-0.1-.024-0.127-0.048-0.129-0.177,0.05-.1-0.082-0.227-0.043-0.4a1.051,1.051,0,0,1,.215-0.376H0.646a0.382,0.382,0,0,1-.237,0,0.272,0.272,0,0,1-.151.155,0.363,0.363,0,0,0-.129-0.044C0.161,23.877.076,23.9,0,23.8c0.376-.252.573-0.723,0.926-1a2.5,2.5,0,0,0,.388-0.31L1.4,22.335c0.066-.051.046,0.057,0.108-0.044a0.875,0.875,0,0,1,.129-0.553A0.289,0.289,0,0,0,1.9,21.649L2,21.671A0.856,0.856,0,0,0,2.068,21.6l0.172-.022c0.309-.13.648-0.257,0.926-0.376L3.08,20.941H3.188a0.206,0.206,0,0,0,.129.155V21.073H3.339a1.672,1.672,0,0,1-.065-0.155,0.513,0.513,0,0,1,.151-0.044v0.066c0.288-.041.534-0.278,0.84-0.332a3.129,3.129,0,0,1,.086-0.62l0.323-.111a2.841,2.841,0,0,1,.754-0.288c0.038,0.037.111,0.03,0.151,0.066,0.108,0.1-.023.113,0.237,0.111,0.012-1.837.043-3.777,0.043-5.621V12.6A1.713,1.713,0,0,1,5.88,12L5.9,19.768a1.122,1.122,0,0,0,.323.022,1.231,1.231,0,0,0,.452-0.111V19.7A0.166,0.166,0,0,0,6.634,19.834Z"/>
</svg>
