<svg xmlns="http://www.w3.org/2000/svg" width="79.938" height="40" viewBox="0 0 79.938 40">
  <defs>
    <style>
      .cls-1 {
        fill: #fff;
        fill-rule: evenodd;
      }
    </style>
  </defs>
  <path id="Color_Fill_1" data-name="Color Fill 1" class="cls-1" d="M52.958,9.75c0.044,0.963.209,0.949,0.282,1.781,0.192,0.112.546,0.229,0.751,0.375a0.478,0.478,0,0,0-.094.281h0.188V12.094h0.094a1.074,1.074,0,0,0,.469.75,4.549,4.549,0,0,0-.469,1.781h0.845a4.239,4.239,0,0,1,.094,1.219H55.024v0.094a2.863,2.863,0,0,0-.657.094v0.281a1.459,1.459,0,0,1,.751.094,7.267,7.267,0,0,0-1.409.281c-0.079,1.039-.278,3.061.563,3.188V19.406a3.5,3.5,0,0,1,1.315-.187V18.656a6.57,6.57,0,0,0-1.784-.094V17.344h2.911V17.25a20.239,20.239,0,0,1-2.066-4.125h0.188v0.188a18.62,18.62,0,0,1,1.972,4.031h0.751a8.855,8.855,0,0,0,.094,1.687,1.575,1.575,0,0,0,1.033.281c-0.036-.313-0.094-0.266.376-0.281v0.094c-0.122.052-.07,0-0.094,0.094,0.264,0.159.959,0.024,1.221,0.187H60a11.849,11.849,0,0,0,.188,1.313A3.226,3.226,0,0,0,60,21.75c0.6,0,.677-0.012,1.221,0l0.094-.281a1.294,1.294,0,0,1-.282-0.562h0.094a1.144,1.144,0,0,0,1.033.188v0.281a0.455,0.455,0,0,1,.282.094,0.338,0.338,0,0,0-.094.188A6.586,6.586,0,0,1,63,21.75v0.844H63.1V22.5c0.073-.18.094,0.188,0.094,0.188a2.269,2.269,0,0,0-.094,1.031c0.866,0.043,1.552.217,1.6-.469H63.286V21.656H63.38V21.563a6.083,6.083,0,0,1,2.535,0,5.339,5.339,0,0,0,.47.469h1.878v0.188H66.479v0.188c0.114,0.148.164,0.417,0.282,0.563a2.009,2.009,0,0,0,.939.094c0.594-.361,3.3-0.136,4.225-0.187l7.793-.562V22.125a3,3,0,0,1,.094-1.219,5.766,5.766,0,0,1,0,2.25,11.538,11.538,0,0,1-.939,1.125,10.847,10.847,0,0,0-1.033,2.625c-0.19.671,0.018,2.262-.563,2.531-0.594.366-3.91,0.094-4.883,0.094H11.925c-0.223-.6-0.466-0.609-1.315-0.562a9.411,9.411,0,0,1-1.878.375l-0.094.469A0.919,0.919,0,0,0,7.981,30V29.813a1.811,1.811,0,0,1-.094-0.469,2.694,2.694,0,0,0-.469-0.187V29.063a1.2,1.2,0,0,0,.657-1.031H7.042V27.938c-0.095-.093-0.093.092-0.094,0.094a3.752,3.752,0,0,0-.188.938H5.54a1.714,1.714,0,0,1-.094-0.562,0.81,0.81,0,0,1-.094-0.469c-0.838-.019-1.767-0.091-2.723-0.094a17.832,17.832,0,0,0-1.315-2.719,1.188,1.188,0,0,0,.376-0.094c-0.1-.323-0.023-0.955-0.094-1.125a4.946,4.946,0,0,1-.376-0.937H0.094A3.189,3.189,0,0,0,0,22.219H0.939a0.534,0.534,0,0,1,.469-0.094c0.373,0.622.045,1.8,0.469,2.344a2.006,2.006,0,0,1,1.408-.937,3.692,3.692,0,0,0,1.315.938v0.094H4.319c-0.294-.367-0.835-0.479-1.127-0.844-0.4.232-.635,0.4-1.127,0.656v0.094H2.441a5.933,5.933,0,0,1,.751,0v0.375H2.817v0.187H2.723v0.094H2.817a1.116,1.116,0,0,1,.845-0.281,0.453,0.453,0,0,0,.094.281c0.095-.065.375-0.121,0.469-0.187a0.455,0.455,0,0,1-.282-0.094H4.319a0.453,0.453,0,0,0,.094.281V24.844a5.308,5.308,0,0,1,2.16.281l0.094-.187c0.141-.225-0.116-0.223.188-0.375a4.182,4.182,0,0,1,1.6-.094h4.038V24.281a1.836,1.836,0,0,0,.188-0.375H12.3c-0.31-.187-1.1,0-1.408-0.187a9.443,9.443,0,0,0,3.38-.656,8.226,8.226,0,0,1,1.6.188v1.313h0.188c-0.072-.917.616-0.813,1.69-0.75V23.531H17.277V23.344a1.95,1.95,0,0,0,.282-0.75h-1.69l-0.094-.187h1.878a5.231,5.231,0,0,0,.47-0.469,5.573,5.573,0,0,1,2.629,0v1.688H20.657a1.849,1.849,0,0,0-1.221,0,0.338,0.338,0,0,0-.094.188h1.972V23.344a1.085,1.085,0,0,1,.657-0.187,3.69,3.69,0,0,0,1.5.094c0.091,0.595.032,0.588,0.845,0.563V22.219a0.824,0.824,0,0,1-.563-0.281,1.523,1.523,0,0,0,1.221-.187H24.413a0.453,0.453,0,0,0-.094-0.281,1.024,1.024,0,0,1-.188.281,1.341,1.341,0,0,0-.188-0.656,0.817,0.817,0,0,0,.282-0.375c0.154,0.209.16,0.282,0.376,0.188,0.5-.2.444-0.6,1.127-0.656v0.094h0.094c0.021,0.4,0,.807,0,1.406H25.728v0.094c-0.277-.054-0.291-0.191-0.469.094a1.15,1.15,0,0,1,1.033.188H26.009v1.406h0.845c0.121,0.231-.04.064,0.188,0.188v0.094a1.715,1.715,0,0,0-.845.094,0.533,0.533,0,0,1-.094.656h1.221V24.469c-0.474-.071-0.531.1-0.563-0.469l0.282-.094a12.515,12.515,0,0,1,3,.094,3.639,3.639,0,0,1,.094-0.844l0.751-.094a0.507,0.507,0,0,0,.282.375,2.559,2.559,0,0,1,1.127-.094v0.094h0.094a1.5,1.5,0,0,0,.188.75,9.28,9.28,0,0,0-2.723.375c1.3,0.006,2.016-.181,3.286-0.187V23.531H32.676a2.011,2.011,0,0,1-.094-0.656,4.722,4.722,0,0,0,.657-0.187l0.188,0.094V22.688a1.023,1.023,0,0,1,0-.469,1.424,1.424,0,0,0,1.127-.094V22.5c-0.275-.037-0.118-0.153-0.282.094,0.066,0.145.012,0.013,0,.281h0.563a6.541,6.541,0,0,0,.094-1.781c-0.3-.328-1.133-3.425-0.845-3.938a6.15,6.15,0,0,1,.939-1.125c0.109-.192,0-0.514.094-0.656v0.188a12.626,12.626,0,0,1,.563,2.156,22.948,22.948,0,0,1,1.5,4.781h0.845V22.313c-0.333-.551-0.1-1.723-0.376-2.25a0.892,0.892,0,0,0,.282-0.375c0.684-.078,1.135-0.332,1.878-0.375,0.037,0.89.288,2.057,0.376,3.188h0.845a0.614,0.614,0,0,0,.282.563H41.033v0.281a1.618,1.618,0,0,1,1.408.281H41.5v0.469H41.6c0.513-.508,2.328-0.148,3.286-0.094a0.8,0.8,0,0,1,.094-0.75,2.728,2.728,0,0,1,.751-0.187V23.25a0.93,0.93,0,0,1,.188.75h1.033a2.843,2.843,0,0,1,.094-0.656,2.116,2.116,0,0,0,.751-0.375c0.131-.19.146-0.563,0.282-0.75,0.162,0.083.12,0.083,0.282,0a0.477,0.477,0,0,0,.094-0.281c-0.371-.636-0.112-2.566-0.188-3a7.073,7.073,0,0,0-.563-1.031,16.735,16.735,0,0,1-1.408-4.594,11.88,11.88,0,0,0-2.723.75C42.13,14.5,40.746,14.578,39.249,15a21.75,21.75,0,0,1-3.85.844V15.656A12.457,12.457,0,0,0,38.5,15c2.458-.692,4.89-1.045,7.136-1.781,0.661-.217,2.545-0.469,2.817-0.937a0.572,0.572,0,0,1-.188-0.187c-2.39.893-4.883,1.317-7.512,2.063a26.222,26.222,0,0,1-5.446,1.219V15.281H35.4a7.252,7.252,0,0,1,1.784-.375c1.445-.409,2.987-0.6,4.507-1.031L48.263,12a18.5,18.5,0,0,1,4.413-1.406v0.094H52.488c-0.753.545-3.65,0.863-4.038,1.5a0.786,0.786,0,0,0,.282.188c0.9-.668,2.927-0.946,4.038-1.406v0.188H52.676c-0.756.547-3.56,0.833-3.944,1.5,1.27,1.279,1.75,3.4,3.286,4.406V14.156c-0.715-1.093.845-2.258,0.939-3.094A3.921,3.921,0,0,1,52.864,9a0.988,0.988,0,0,0,.094.563c0.095,0.065.375,0.121,0.469,0.188H52.958Zm0.094-.656,0.282,0.094V9.281H53.052V9.094Zm0.188,1.125a0.454,0.454,0,0,1,.282.094c-0.061.081-.126,0.295-0.188,0.375V10.594A2.366,2.366,0,0,1,53.239,10.219ZM52.77,12.844a0.6,0.6,0,0,1,.094-0.375c0.078,0.3-.046.143,0.188,0.281V12.281a1.24,1.24,0,0,1-.094-0.656H52.864v0.188a1.445,1.445,0,0,0-.563.938A0.814,0.814,0,0,0,52.77,12.844Zm-4.413-.281a5.969,5.969,0,0,1-1.972.656v0.094a11.576,11.576,0,0,1,.939,2.344,29.9,29.9,0,0,0,1.69,3.094L51.643,18a1.47,1.47,0,0,0,.376,1.031,4.592,4.592,0,0,0,.094,1.781c0.018-.926.283-2.759-0.094-3.469a9.045,9.045,0,0,0-.939-0.938c-0.443-.587-0.915-1.184-1.314-1.781C49.38,14.049,49.02,12.828,48.357,12.563Zm5.54,0-0.094.281a1.928,1.928,0,0,1,.563,0A0.479,0.479,0,0,0,53.9,12.563Zm-1.315.375H52.019v0.094c0.3,0.485.222,3.788,0.376,4.594h0.094V16.031C52.845,15.475,52.595,13.719,52.582,12.938Zm0.657,0.375H53.8V12.938H53.709a0.433,0.433,0,0,1-.469,0v0.375Zm0.751,1.313,0.282-1.594H54.178V12.938H53.991l-0.282,1.688h0.282Zm-1.127-1.594c0.01,0.685-.569,4.036-0.094,4.781a0.6,0.6,0,0,1,.094-0.375,2.216,2.216,0,0,0,.094.75h0.094c0.051-.572.19-1.19,0.282-1.687l-0.188-1.687C53.141,14.212,53.236,13.276,52.864,13.031Zm0.376,0.375a4.79,4.79,0,0,0,.282,1.969l0.188-1.969H53.239Zm-6.291,1.781a11.669,11.669,0,0,0,1.5,3.75,0.806,0.806,0,0,0,.376-0.281C47.856,17.843,47.821,16.1,46.948,15.188Zm6.1,0.281a4,4,0,0,1-.094,1.875v0.094H52.864v-0.75A2.661,2.661,0,0,0,53.052,15.469Zm0.469,0.375v0.469h0.094V16.219C53.726,15.992,53.7,16.013,53.521,15.844Zm0.751,0.469V16.031L53.9,15.938a1.187,1.187,0,0,1-.094.375h0.47ZM34.93,16.125a2,2,0,0,1-.751.938c0.313,1.017.147,2.617,0.751,3.375a18.406,18.406,0,0,1,.188-4.312H34.93Zm2.16,6.656a15.391,15.391,0,0,0-1.315-4.312,6.464,6.464,0,0,0-.563-1.781v0.281c0.429,0.7.426,3.847,0.657,4.875a3.786,3.786,0,0,0,.094.938,0.813,0.813,0,0,0,.469.094A1.245,1.245,0,0,1,37.089,22.781ZM35.117,17.25a0.6,0.6,0,0,0,.094.375A0.605,0.605,0,0,0,35.117,17.25Zm18.216,0.188-0.188.938h0.094V18.188A1.043,1.043,0,0,0,53.333,17.438Zm-18.216.281v3.469c0.1,0.309.366,0.647,0.469,1.031h0.094V21.563C35.224,20.793,35.692,18.258,35.117,17.719Zm17.183,0a5.747,5.747,0,0,0,.188,2.156C52.51,19.248,52.639,18.028,52.3,17.719Zm0.47,0.469q-0.047.656-.094,1.313h0.188V19.031a1.48,1.48,0,0,0,.094-0.75Zm0.375,0.375a1.716,1.716,0,0,0-.094.563h0.094A1.828,1.828,0,0,0,53.146,18.563Zm3,0.75a2.981,2.981,0,0,1,.657,0c-0.037-.373-0.186-0.378.094-0.562a0.429,0.429,0,0,1,.376.094,0.81,0.81,0,0,1,.094.469,0.455,0.455,0,0,0,.282-0.094c-0.607-.679-0.418-0.7-1.784-0.656a2.017,2.017,0,0,0-.094.656c0.275,0.045.208,0.566,0.188,1.125H56.15c0.124-.168.155,0.043,0.188-0.375C56.1,19.828,56.139,19.688,56.15,19.313Zm-2.911.094h0.282v-0.75H53.333v0.375A0.632,0.632,0,0,0,53.239,19.406Zm-0.282-.187v0.187h0.094A0.321,0.321,0,0,0,52.958,19.219Zm-0.282.375a1.921,1.921,0,0,0,0,1.031l0.188-1.031H52.676Zm0.563,0v0.094H53.146c-0.132-.015.094,0.094,0.094,0.094h0.188C53.443,19.63,53.282,19.668,53.239,19.594Zm-0.282.938a7,7,0,0,1,.188,1.219h0.563V21.563C53.521,21.255,53.687,20.624,52.958,20.531Zm5.07,0v0.281a1.445,1.445,0,0,0,.563.188V20.625H58.4A0.634,0.634,0,0,0,58.028,20.531Zm-5.916.375a0.987,0.987,0,0,0,.094.563A0.989,0.989,0,0,0,52.113,20.906Zm10.61,0.469h0.188v0.094A0.322,0.322,0,0,1,62.723,21.375Zm-26.948,1.5V22.594H35.493l-0.282-.844H35.117v0.844c-0.117.147-.06,0.048,0,0.188A1.244,1.244,0,0,0,35.775,22.875ZM78.967,22.5a0.633,0.633,0,0,0,.657,0H78.967Zm-1.314.094a1.3,1.3,0,0,0,1.033,0H77.653Zm-1.6.188v0.375a5.834,5.834,0,0,0,2.16-.094H77.559c0-.455-0.421-0.425-1.127-0.375A0.633,0.633,0,0,1,76.056,22.781Zm-0.751,0a0.632,0.632,0,0,0,.657,0H75.305Zm3.192,0a0.275,0.275,0,0,0,.376,0H78.5Zm1.127,0.281V22.781a3.153,3.153,0,0,1-.657,0v0.188A1.723,1.723,0,0,1,79.624,23.063Zm-6.2-.187a1.3,1.3,0,0,0,1.033,0H73.427Zm-1.878.094a2.332,2.332,0,0,0,1.5,0h-1.5Zm6.948,0a0.275,0.275,0,0,0,.376,0H78.5Zm-9.2.094a1.694,1.694,0,0,0,1.221,0H69.3Zm1.314,0a0.339,0.339,0,0,0,.188.094A0.34,0.34,0,0,0,70.61,23.063Zm3.662,0V23.25H74.46V23.063H74.272Zm-32.864.094H41.6V23.25A0.322,0.322,0,0,1,41.408,23.156Zm25.446,0a2.331,2.331,0,0,0,1.5,0h-1.5Zm6.479,0c0.162,0.083.12,0.083,0.282,0H73.333Zm0.376,0a0.363,0.363,0,0,0,.282.188V23.25h0.094V23.156H73.709Zm-25.915.094v0.188h0.094A0.321,0.321,0,0,0,47.793,23.25Zm18.5,0v0.375a1.327,1.327,0,0,0,.376.094c0.075-.124,1.2-0.153,1.5-0.281V23.344H67.981a3.12,3.12,0,0,1-1.314.094C66.641,23.195,66.711,23.271,66.291,23.25Zm3.944,0a1.33,1.33,0,0,0-.094.375h0.094V23.438C70.351,23.291,70.3,23.39,70.235,23.25Zm-0.845.094H69.014v0.188H68.92v0.094h0.188c0.184-.213.033-0.133,0.282,0V23.344Zm0.188,0v0.281a0.454,0.454,0,0,0,.282-0.094,0.338,0.338,0,0,0,.094-0.187H69.578ZM41.5,24.469V24.188c-0.423,0-.2-0.415-0.469-0.562v0.75a2.175,2.175,0,0,0,1.127.188V24.469A1.793,1.793,0,0,0,41.5,24.469Zm6.2-.75v0.188a0.992,0.992,0,0,0-.563.094c0.3,0.078.144-.046,0.282,0.188a0.581,0.581,0,0,0-.657.281H46.667v0.094h0.845c0.073-.064.21-0.123,0.282-0.187a0.81,0.81,0,0,0,.094-0.469C47.806,23.837,47.781,23.788,47.7,23.719ZM2.723,24c0.044,0.2.089,0.1-.094,0.281v0.094H2.535A1.257,1.257,0,0,1,2.723,24Zm43.568,0.281a0.444,0.444,0,0,1-.47.188,1.285,1.285,0,0,0-1.127.094h1.6a0.572,0.572,0,0,1,.188-0.187A0.339,0.339,0,0,0,46.291,24.281Zm-40.657.281a0.338,0.338,0,0,1,.094.188H5.634V24.563Zm1.6,0.094a0.633,0.633,0,0,0,.657,0H7.23Zm0.751,0c0.161,0.083.12,0.083,0.282,0H7.981Zm0.376,0a4.456,4.456,0,0,0,2.347,0H8.357Zm2.817,0a1.7,1.7,0,0,0,1.221,0H11.174Zm4.695,0a0.339,0.339,0,0,0,.188.094A0.338,0.338,0,0,0,15.869,24.656Zm-13.615.188c0.022,0.1-.189.191,0,0.281-0.008.125,0.094-.187,0.094-0.187C2.321,24.878,2.376,24.894,2.254,24.844Zm0.282,0a0.453,0.453,0,0,0,.094.281A0.452,0.452,0,0,0,2.535,24.844Zm4.695,0v0.281H7.606V24.844H7.23Zm0.563,0a0.453,0.453,0,0,0,.094.281V24.938l0.094-.094H7.793Zm0.282,0a0.34,0.34,0,0,0,.188.094A0.338,0.338,0,0,0,8.075,24.844Zm0.939,0a1.3,1.3,0,0,0,1.033,0H9.014Zm1.127,0a0.378,0.378,0,0,0,.47,0H10.141Zm1.127,0c0.162,0.082.12,0.083,0.282,0H11.268Zm0.376,0a0.34,0.34,0,0,0,.188.094A0.338,0.338,0,0,0,11.643,24.844Zm-8.263.094a0.338,0.338,0,0,0,.188.094A0.34,0.34,0,0,0,3.38,24.938Zm11.174,0v0.188h0.094V24.938H14.554Zm-6.1,3.188a0.638,0.638,0,0,0,.376.563V28.594a0.632,0.632,0,0,0,.094-0.375A1.479,1.479,0,0,0,8.451,28.125ZM9.3,28.219v0.469a3.918,3.918,0,0,0,1.878-.187Z" transform="translate(0 0.5)"/>
</svg>
