<?xml version="1.0" encoding="utf-8"?>
<!-- Generator: Adobe Illustrator 16.0.0, SVG Export Plug-In . SVG Version: 6.00 Build 0)  -->
<!DOCTYPE svg PUBLIC "-//W3C//DTD SVG 1.1//EN" "http://www.w3.org/Graphics/SVG/1.1/DTD/svg11.dtd">
<svg version="1.1" id="Layer_1" xmlns="http://www.w3.org/2000/svg" xmlns:xlink="http://www.w3.org/1999/xlink" x="0px" y="0px"
	 width="40px" height="40px" viewBox="0 0 40 40" enable-background="new 0 0 40 40" xml:space="preserve">
<path id="germ_flakpanzer_iv_ostwind_ico" fill="#FFFFFF" d="M5.527,17.473v-0.21c0.305-0.193,0.688-0.217,1.015-0.063
	c0.038,0.052,0.059,0.114,0.06,0.178l1.314-0.03v-0.263C8.089,17.086,8.261,17.057,8.424,17c0.066-0.027,0.143-0.003,0.179,0.059
	c0,0,0.565-0.017,0.627-0.029c0.437-0.062,0.88-0.051,1.314,0.029c0.144,0.286,0.335,0.225,0.747,0.209v-0.094l0.448-0.029
	l0.03,0.088c0.3,0.017,0.6,0.017,0.9,0c0.038-0.044,0.068-0.094,0.09-0.148h-0.63c0-0.141,0.02-0.281,0.06-0.416
	c-0.293-0.258-0.545-0.559-0.747-0.892c-0.408-0.542-0.9-1.025-1.314-1.576c-0.291-0.218-0.509-0.517-0.628-0.86
	c0.243-0.25,0.454-0.529,0.627-0.832c0.452-0.614,0.987-1.2,1.434-1.813c0.187-0.258,0.385-0.495,0.568-0.743
	c0.023-0.063,0.053-0.123,0.09-0.178H23.3c0.082-0.073,0.196-0.095,0.3-0.059c0.385,0.066,0.776,0.086,1.166,0.059
	c-0.027-0.11-0.078-0.212-0.149-0.3c0.013-0.007,0.022-0.018,0.03-0.03c0.012,0.007,0.022,0.018,0.029,0.03
	c0.05,0.105,0.109,0.206,0.18,0.3h1.763c0.132,0.22,0.282,0.429,0.448,0.624c0.423,0.6,0.839,1.194,1.254,1.784
	c0.185,0.26,0.367,0.519,0.539,0.773c0.035,0.096,0.086,0.187,0.148,0.268h5.527c0.363-0.073,0.737-0.083,1.105-0.03
	c0.521-0.003,1.043-0.063,1.553-0.178v0.832h-0.03c-0.166-0.043-0.337-0.063-0.508-0.059c-0.35-0.098-0.713-0.138-1.075-0.119
	c-0.076,0.016-0.622,0.095-0.657,0.089c-0.12,0-0.239-0.01-0.358-0.03l-0.06-0.089h-5.528c-0.061,0.113-0.142,0.215-0.238,0.3
	c-0.233,0.314-0.454,0.609-0.688,0.921c-0.1,0.133-0.267,0.249-0.357,0.387c-0.053,0.143-0.073,0.295-0.061,0.446
	c-0.061,0.087-0.131,0.167-0.209,0.238c-0.166,0.283-0.355,0.55-0.568,0.799c0.058,0.11,0.079,0.235,0.061,0.357h0.357
	c0.058,0.128,0.074,0.153,0.27,0.148v-0.092c0.186,0.048,0.377,0.067,0.568,0.06c0.044,0.114,0.023,0.12,0.209,0.119
	c0.166-0.038,0.338-0.048,0.508-0.03c0.063,0.033,0.005,0.12,0.209,0.089c0.201-0.005,0.403,0.015,0.6,0.06
	c0.18,0.01,0.36,0,0.538-0.03l0.058,0.089c0.225,0.059,0.461,0.059,0.687,0c0.097,0.143,0.248,0.239,0.418,0.268
	c0.032-0.117,0.034-0.115,0.179-0.119v0.059c0.02,0.025,0.03,0.057,0.03,0.089l0.478,0.03v-0.301h0.149v0.328l0.329-0.03v0.059
	c0.025,0.046,0.035,0.098,0.03,0.149c0.294,0.016,0.55,0.201,0.657,0.476h-0.03c-0.106,0.066-0.169,0-0.209,0.149
	c0.421,0.152,0.873,0.193,1.313,0.119c0.06,0.01,0.12,0.01,0.18,0c0.047-0.043,0.087-0.094,0.119-0.149
	c0.059-0.016,0.118-0.026,0.179-0.03c0.013-0.465,0.212-0.5,0.717-0.476c0.046-0.024,0.098-0.035,0.149-0.03v0.119l0.238,0.03
	c0.09,0.257,0.111,0.532,0.061,0.8c-0.047,0.064-0.107,0.115-0.18,0.148v0.416h0.239c0.029-0.076,0.05-0.156,0.06-0.237h0.091
	l0.03,0.237c0.307-0.038,0.617-0.049,0.926-0.029v0.246c-0.117,0.082-0.249,0.143-0.389,0.178v0.148h0.03v0.03
	c0.817,0.147,1.598,0.45,2.3,0.892v0.06h-0.09c-0.023-0.047-0.067-0.08-0.119-0.089v0.089c0.223,0.271,0.424,0.56,0.6,0.862
	c0.111,0.109,0.23,0.21,0.359,0.3c0.108,0.185,0.189,0.386,0.238,0.595c-0.106,0.1-0.188,0.221-0.238,0.357
	c-0.076,0.03-0.158,0.041-0.24,0.029c0.001,0.033-0.01,0.064-0.029,0.09c-0.076,0.03-0.158,0.041-0.239,0.029
	c-0.019-0.033-0.052-0.055-0.09-0.059v0.059c0.019,0.026,0.03,0.057,0.03,0.09h-0.121v0.029c0.061,0.216,0.05,0.445-0.03,0.654h0.09
	l-0.03,0.268h-0.119c-0.061,0.206-0.141,0.405-0.239,0.596c0.101,0.024,0.046-0.016,0.09,0.059c-0.033,0.063-0.073,0.123-0.12,0.178
	l-0.119-0.029c-0.049,0.084-0.09,0.174-0.119,0.267c-0.074,0.067-0.154,0.127-0.24,0.178c0.026,0.036,0.047,0.077,0.061,0.119
	c-0.061,0.038-0.111,0.089-0.148,0.149c-0.047-0.028-0.09-0.108-0.121-0.06c-0.172,0.099-0.324,0.229-0.447,0.386
	c0,0,0.086,0.039,0.061,0.06h-0.031c-0.053,0.06-0.129,0.092-0.209,0.089c-0.025-0.025-0.056-0.046-0.09-0.059
	c-0.139,0.128-0.301,0.229-0.478,0.3c0.016,0.038,0.026,0.078,0.03,0.119c-0.068,0.024-0.139,0.044-0.209,0.059l-0.03-0.089
	c-0.163,0.094-0.333,0.173-0.508,0.238c0.01,0.085,0.032,0.062,0,0.119c-0.035,0.033-0.085,0.055-0.12,0.089
	c-0.043-0.013-0.078-0.046-0.09-0.089l-0.508,0.238c0.01,0.084,0.031,0.062,0,0.118c-0.055,0.04-0.115,0.069-0.18,0.089
	c-0.039-0.088-0.018-0.087-0.09-0.059c-0.156,0.053-0.307,0.122-0.447,0.208c0,0.12,0.049,0.071-0.031,0.119
	c-0.033,0.046-0.092,0.069-0.148,0.059c-0.031-0.034-0.074-0.055-0.12-0.059c-0.144,0.101-0.306,0.171-0.478,0.208
	c0.01,0.084,0.031,0.061,0,0.119c-0.063,0.043-0.135,0.074-0.209,0.089c-0.034-0.085-0.006-0.056-0.09-0.089
	c-0.157,0.086-0.33,0.137-0.508,0.148v0.119l-0.24,0.03c-0.014-0.042-0.034-0.082-0.06-0.119c-0.182,0.063-0.376,0.084-0.567,0.059
	V28.5h-0.207v-0.119h-0.6V28.5h-0.236v-0.119H30.62V28.5h-0.239v-0.119h-0.6V28.5h-0.207v-0.119h-0.6V28.5h-0.236v-0.119H28.17V28.5
	h-0.238v-0.119h-0.601V28.5h-0.206v-0.119h-0.6V28.5h-0.237v-0.119h-0.567V28.5h-0.238v-0.119h-0.568V28.5h-0.239v-0.119h-0.6V28.5
	h-0.236v-0.119h-0.567V28.5h-0.239v-0.119h-0.567V28.5h-0.238v-0.119h-0.601V28.5h-0.237v-0.119h-0.566V28.5h-0.239v-0.119h-0.568
	V28.5h-0.239v-0.119h-0.6V28.5H18.94v-0.119h-0.568V28.5h-0.239v-0.119h-0.568V28.5h-0.239v-0.119h-0.6V28.5H16.49v-0.119h-0.568
	V28.5h-0.239v-0.119h-0.6V28.5h-0.206v-0.119h-0.6V28.5H14.04v-0.119h-0.567V28.5h-0.239v-0.119h-0.568V28.5h-0.239v-0.119h-0.6
	V28.5h-0.236v-0.119h-0.568V28.5h-0.239v-0.119h-0.567V28.5H9.978v-0.119H9.38V28.5H9.171v-0.119h-0.6V28.5l-0.239-0.03
	c0.003-0.041,0.014-0.081,0.03-0.118H8.036c-0.086-0.032-0.178-0.043-0.269-0.03v0.118h-0.03c-0.065-0.027-0.138-0.038-0.209-0.029
	v-0.118H7.5v-0.03l-0.54-0.089c-0.006,0.046-0.027,0.087-0.06,0.119c-0.066-0.03-0.137-0.05-0.209-0.06
	c0-0.121,0.049-0.112-0.119-0.118c-0.23-0.084-0.481-0.095-0.717-0.03v-0.061c0.016-0.016,0.026-0.036,0.03-0.059
	c-0.235-0.053-0.478-0.063-0.717-0.029c-0.033-0.032-0.075-0.053-0.12-0.06c0-0.12,0.049-0.071-0.03-0.119
	c-0.161-0.089-0.331-0.159-0.508-0.208v0.089c-0.082-0.008-0.162-0.028-0.239-0.059c0-0.12,0.049-0.071-0.03-0.119
	c-0.163-0.085-0.333-0.155-0.508-0.208v0.089c-0.074,0.007-0.148-0.015-0.209-0.059c-0.028-0.058-0.011-0.035,0-0.119
	c-0.226-0.027-0.343-0.144-0.568-0.179c0,0.033-0.01,0.064-0.03,0.09C2.863,27.03,2.792,27,2.717,26.984
	c0-0.119,0.049-0.07-0.03-0.118c-0.149-0.105-0.309-0.194-0.476-0.267c-0.019,0.033-0.052,0.056-0.09,0.06
	c-0.059-0.052-0.109-0.111-0.149-0.179c0.024-0.014,0.045-0.034,0.06-0.059C1.886,26.298,1.755,26.156,1.643,26l-0.119,0.03
	c-0.046-0.044-0.088-0.093-0.124-0.146c0.03-0.22-0.023-0.441-0.149-0.624c-0.068,0.012-0.032,0.027-0.09,0
	c-0.044-0.061-0.065-0.134-0.06-0.208h0.09l-0.06-0.624H1.046l0.03-0.238h0.119c0.007-0.201,0.047-0.4,0.119-0.59
	c-0.038-0.003-0.072-0.025-0.09-0.059c0.048-0.061,0.079-0.132,0.09-0.208c0.186-0.083,0.334-0.231,0.418-0.416
	c-0.027-0.056-0.038-0.117-0.03-0.178c0.048-0.03,0.089-0.071,0.119-0.119c0.037,0.025,0.078,0.046,0.12,0.059
	c0.045-0.063,0.1-0.088,0.149-0.148c-0.076-0.122-0.178-0.225-0.3-0.3c-0.256,0.16-0.737,0.037-0.986,0.207
	c-0.113,0.129-0.065,0.211-0.329,0.209c-0.045-0.025-0.098-0.035-0.149-0.03C0.225,22.489,0.116,22.369,0,22.257
	c0-0.128,0.042-0.254,0.119-0.356c-0.023-0.162-0.002-0.326,0.06-0.477v0.03c0.056,0.075,0.036,0.243,0.09,0.327
	c0.387-0.329,0.833-0.581,1.314-0.743c0.184-0.095,0.426-0.065,0.448-0.327C1.962,20.51,1.922,20.3,1.912,20.087
	c-0.125-0.428-0.215-0.865-0.269-1.308c0.301-0.096,0.611-0.156,0.926-0.18c0.018,0.445,0.099,0.886,0.239,1.309
	c0.076,0.03,0.158,0.041,0.239,0.029c0.196,0.07,0.412,0.061,0.6-0.029c-0.154,0-0.182-0.02-0.209-0.149H3.256
	c-0.01-0.228-0.01-0.455,0-0.684h0.389l0.03-0.089c-0.083-0.026-0.157-0.078-0.209-0.149c0.128-0.035,0.177,0.021,0.239-0.119
	c0.025-0.046,0.035-0.097,0.03-0.149C3.599,18.54,3.468,18.49,3.347,18.42c0.024-0.037,0.044-0.077,0.06-0.119
	c0.115,0.043,0.235,0.072,0.358,0.09c0.024-0.068,0.044-0.139,0.06-0.209c-0.016-0.016-0.027-0.036-0.03-0.059
	c-0.107-0.012-0.075,0.014-0.119-0.059H3.7c0.061-0.076,0.145-0.129,0.239-0.149c0.026-0.104,0.066-0.206,0.119-0.3
	c0.054-0.2-0.1-0.424,0.179-0.477c0.065,0.017,0.119,0.06,0.149,0.119c0.059,0.087,0.055,0.245,0.119,0.327
	C4.63,17.551,4.75,17.5,4.863,17.436c0.126-0.372,0.167-0.768,0.12-1.159v-2.67c0-3.313,0.03-6.745,0.03-10.107h0.06v13.525
	c0.1,0.149,0.066,0.301,0.149,0.416C5.32,17.477,5.424,17.486,5.527,17.473z"/>
</svg>
