<svg xmlns="http://www.w3.org/2000/svg" width="40" height="40" viewBox="0 0 40 40">
  <defs>
    <style>
      .cls-1 {
        fill: #fff;
        fill-rule: evenodd;
      }
    </style>
  </defs>
  <path id="Color_Fill_1" data-name="Color Fill 1" class="cls-1" d="M16.883,14.162H16.589a2.885,2.885,0,0,1,.1-0.5h-0.2v-0.2h0.54c0.041,0.163-.024.077,0.1,0.15v-0.1c0.043-.037.055-0.063,0.1-0.1a1.73,1.73,0,0,1-.1-0.5,1.591,1.591,0,0,0,.933-0.251,2.43,2.43,0,0,0,.049-0.9V9.451h1.767v0.4h2.749v1.453h0.785l0.245-1.453L24.295,9.9c0.061,1.2-.424,2.019-0.491,3.258a1.211,1.211,0,0,0-.736.7,1.851,1.851,0,0,1,.589,0,0.936,0.936,0,0,1,.049.3l1.325-.05a0.411,0.411,0,0,0,.245.1,3.218,3.218,0,0,1,.883,0H26.65l0.1,0.15h7.264a4.5,4.5,0,0,1,.932-0.1v0.652h-0.1c-0.406-.262-1.17.018-1.718-0.1a22.016,22.016,0,0,0-3.926-.05,6.755,6.755,0,0,0-1.767.05,6.847,6.847,0,0,0,.736.05v0.3a2.922,2.922,0,0,0-1.178.1c-0.065.025-.015-0.022-0.049-0.05a15.852,15.852,0,0,0-2.012-.05v0.1c0.616,0.513.318,1.074,1.571,1.052a0.245,0.245,0,0,0,.049.15,2.436,2.436,0,0,1,2.307-.1,1.157,1.157,0,0,1,.295-0.15c0.043,0.037.055,0.063,0.1,0.1a0.424,0.424,0,0,1-.245.251l0.2,0.4a1.554,1.554,0,0,1,.491.1c0.227,0.516.361,1.6,0.883,1.8a4.792,4.792,0,0,0,1.178.4,12.4,12.4,0,0,0,2.159.752,7.81,7.81,0,0,0-.1-2.105,0.527,0.527,0,0,1-.1.351,2.3,2.3,0,0,1,.049-0.9,0.713,0.713,0,0,0,.1.4,1.209,1.209,0,0,1,.049-0.4h0.049v1h0.245a4.892,4.892,0,0,0,.049,1.6c-0.02-.456.094-0.77,0.491-0.8a7.027,7.027,0,0,1,1.62-.05,1.814,1.814,0,0,1,.344.251,0.578,0.578,0,0,0,.1-0.15h0.049v0.1a2.176,2.176,0,0,0-.147.752,5.311,5.311,0,0,1-.638,1.1,2.868,2.868,0,0,0,.736,1.053c-0.034-.1.038-0.158,0-0.251-0.028-.069-0.247-0.128-0.294-0.2a1.5,1.5,0,0,1,0-1.2,1.759,1.759,0,0,1,.834-0.351,0.878,0.878,0,0,1,.147.2,2.025,2.025,0,0,1,0,1.6c-0.141.176-.323,0-0.442,0.15a0.841,0.841,0,0,0,.147.7h0.049v-0.15a0.532,0.532,0,0,1-.147-0.351,1.6,1.6,0,0,1,.687-0.451l0.147,0.351a1.048,1.048,0,0,0,.442.1,2.383,2.383,0,0,0,.1.251c0.181,0.1.238-.156,0.295,0.2-0.159.042-.075-0.024-0.147,0.1a2.842,2.842,0,0,1,.54,1.153,7.381,7.381,0,0,1-.687.3,2.111,2.111,0,0,0-.393-0.551v0.05a0.361,0.361,0,0,1,.1.2H38.135v-0.05a0.6,0.6,0,0,1-.147-0.3l0.1,0.05a2.6,2.6,0,0,1-.2-0.451H37.841v0.1a0.36,0.36,0,0,1,.1.2H37.89v-0.05a0.873,0.873,0,0,0-.245-0.3v0.05H37.6v0.1c0.329,0.262.51,0.7,0.785,0.9a0.5,0.5,0,0,1-.049.251,3.111,3.111,0,0,1-.54.2,0.676,0.676,0,0,0-.049.351h0.049v0.05a1.133,1.133,0,0,0,.491-0.5,0.329,0.329,0,0,0,.049.2v-0.05c0.215-.156.415-0.646,0.834-0.3a0.672,0.672,0,0,1,.049.551,0.668,0.668,0,0,1,.687.3,0.54,0.54,0,0,1,0,.551c-0.079.366,0.176,0.84-.442,0.852a1.179,1.179,0,0,0-.491-0.4c-0.06.155-.018,0.113-0.2,0.15a5.834,5.834,0,0,0-.638-0.551l-0.147.05a1.5,1.5,0,0,1-.343,1.1v-0.2c0.2-.286.139-0.814,0.343-1.1a0.246,0.246,0,0,0,.049.15c0.038-.034.109-0.066,0.147-0.1l-0.1-.05a0.83,0.83,0,0,0-.54-0.15v-0.15H37.252a3.906,3.906,0,0,1-2.209,4.11,3.735,3.735,0,0,1-5.1-2.907c-0.263.019-.259,0.086-0.54,0.1-0.064-.124.021-0.034-0.1-0.1V26.492H25.816a11.053,11.053,0,0,0-1.865.05,0.27,0.27,0,0,1-.147.2c-0.174-.444-1.521-0.251-2.11-0.251H16.834a7.712,7.712,0,0,0-2.061,0,0.99,0.99,0,0,1,.1.451h-0.1a0.976,0.976,0,0,1-.54,0A3.7,3.7,0,0,1,9.62,29.8a3.8,3.8,0,0,1-2.7-3.709H6.528v0.15c-0.335.008-.451,0.008-0.785,0v-0.15H4.417A13.123,13.123,0,0,1,2.9,25.138h0.2a3.148,3.148,0,0,0,.491.1v-0.15a2.089,2.089,0,0,0,.638-0.05v-0.05H3.092l-0.049-.251H2.994v0.15H2.847v-0.15a2.712,2.712,0,0,1-.442,0,1.291,1.291,0,0,0-.344-0.3,1.053,1.053,0,0,1-.883.6,0.569,0.569,0,0,0-.245-0.1,0.59,0.59,0,0,1-.147-0.3,0.285,0.285,0,0,1,0-.2,0.683,0.683,0,0,1,.344-0.251,0.141,0.141,0,0,0,.049.05,0.538,0.538,0,0,0,.049.3,0.523,0.523,0,0,0,.294.05,0.753,0.753,0,0,1,.344-0.4,2.128,2.128,0,0,0-.245-0.3h-0.2c-0.1-.076.026-0.161,0-0.2a5.72,5.72,0,0,0-.785-0.6A2.615,2.615,0,0,1,0,22.633a3.649,3.649,0,0,0,.589-0.8c0.432-.6.995-1.152,1.423-1.754a2.326,2.326,0,0,1,.393-0.6l1.178-.351a23.833,23.833,0,0,1,3.043-1,6.853,6.853,0,0,1,.883-0.351v-0.2c0.369,0.078,1.575.136,1.767-.4,0.07-.064,0-0.059-0.049-0.15,0.451-.016.26-0.4,0.54-0.551h0.785a1.159,1.159,0,0,1,1.08.05h1.129c0.278-.474.678-0.9,0.982-1.353a5.711,5.711,0,0,1,.344-0.6h0.54l-0.049-.351a0.346,0.346,0,0,1-.393-0.15,0.548,0.548,0,0,0,.1-0.551,0.193,0.193,0,0,0,.2-0.15,0.167,0.167,0,0,1-.1-0.05,1.88,1.88,0,0,0,.1-1.053V9.952A2.624,2.624,0,0,1,14.528,9q0.025,2.23.049,4.461a0.861,0.861,0,0,1,.2.1,1.594,1.594,0,0,0,.049.551c-0.08.1-.057-0.035-0.1,0.1,0.13,0.115.086,0.171,0.049,0.351h2.061a0.383,0.383,0,0,0,.147-0.15A0.239,0.239,0,0,1,16.883,14.162Zm-0.049-.5v0.15H17.08v-0.15H16.834Zm0.442,0v0.15h0.1v0.05h0.049v-0.15Zm-0.736.5a0.183,0.183,0,0,1,.049.1H16.54v-0.1Zm16.982,0.251a0.325,0.325,0,0,0,.343,0H33.522Zm0,0.1v0.1h0.343v-0.1H33.522Zm-6.724.251c0.014,0.13,0,.1.245,0.1v-0.1H26.8Zm10.258,4.21v0.2a0.681,0.681,0,0,1-.2.05,0.173,0.173,0,0,0-.049-0.1v-0.1A0.755,0.755,0,0,1,37.055,18.974Zm-2.7.9h0.2a0.494,0.494,0,0,1,.589-0.4V19.224l-0.54.05-0.147.2A0.6,0.6,0,0,0,34.356,19.876Zm1.031-.652v0.251a5.423,5.423,0,0,1,1.227.15,0.337,0.337,0,0,0-.147-0.3A2.181,2.181,0,0,0,35.387,19.224Zm-0.147.15v0.1h0.049A0.173,0.173,0,0,0,35.239,19.375Zm-0.883.6v0.2H34.4v0.05h0.1l0.049-.251h-0.2Zm1.129,0.6a2.765,2.765,0,0,1,.344.2,1.139,1.139,0,0,0,.245-0.3h0.049v0.1a1.138,1.138,0,0,0-.2.5h0.049v0.05a0.182,0.182,0,0,0,.049-0.1,2.383,2.383,0,0,0,.54-1.053H36.417a1.087,1.087,0,0,1-.1.251H36.27v-0.1a0.583,0.583,0,0,0,.1-0.15H35.73a1.637,1.637,0,0,1-.294.451A0.259,0.259,0,0,1,35.485,20.578Zm-0.442-.451H34.65a0.3,0.3,0,0,1-.1.1v0.05h0.1a1.008,1.008,0,0,0,.393.15v-0.3Zm0.147,0a1.1,1.1,0,0,0-.049.351h0.1V20.127H35.19Zm1.031,0.1a0.254,0.254,0,0,1-.049.251H36.123v-0.1A0.583,0.583,0,0,0,36.221,20.227Zm1.325,2a2.287,2.287,0,0,1-.245.2,1.661,1.661,0,0,1,.344.652h0.049c-0.083-.359.01-0.488-0.049-0.852h-0.1Zm0.393,1.4a0.182,0.182,0,0,1,.049.1H37.939v-0.1Zm0.245,0.451a0.182,0.182,0,0,1,.049.1H38.184v-0.1Zm-35.73.7a0.378,0.378,0,0,1,.2.251H2.6a0.14,0.14,0,0,0-.049-0.05A0.762,0.762,0,0,1,2.454,24.788Zm1.914,0.251a1,1,0,0,0,.785,0H4.368Zm1.178,0.05a2.987,2.987,0,0,1-1.718.1v0.05h0.1c0.469,0.305,2.2.055,2.8,0.05v-0.05a1.037,1.037,0,0,0-.344-0.05,1.355,1.355,0,0,0-.589.05C5.786,25.044,5.824,25.09,5.546,25.088Zm1.423,0.05a0.4,0.4,0,0,1-.1.15H7.018l0.049-.15h-0.1Zm31.607,0.2c-0.093.088-.244,0.118-0.344,0.2h0.1a0.937,0.937,0,0,0,.2.15A1.2,1.2,0,0,0,38.577,25.339Zm1.031,0a1.045,1.045,0,0,1,.147.3H39.8v-0.15a0.182,0.182,0,0,1-.049-0.1Zm-0.1.251v0.1l0.2,0.15A0.375,0.375,0,0,0,39.509,25.59Zm0.147,0.752a2.893,2.893,0,0,1-.245.2H39.46c0.085,0.066.079,0.087,0.147,0.05a0.559,0.559,0,0,0,.147-0.251h-0.1Zm-25.325.2a0.175,0.175,0,0,0,.1.05A0.175,0.175,0,0,0,14.331,26.542Z" transform="translate(0 0.516)"/>
</svg>
