<svg xmlns="http://www.w3.org/2000/svg" width="40" height="40" viewBox="0 0 40 40">
  <defs>
    <style>
      .cls-1 {
        fill: #fff;
        fill-rule: evenodd;
      }
    </style>
  </defs>
  <path id="Color_Fill_1" data-name="Color Fill 1" class="cls-1" d="M21.561,22.022V21.589a0.546,0.546,0,0,1,.39-0.144c0.068,0.132.089,0.409,0.146,0.578a1.4,1.4,0,0,1,.976.241,4.675,4.675,0,0,0,1.317-.048l2.781,0.048a14.457,14.457,0,0,1,3.463.1l1.463-.048h5.561a0.364,0.364,0,0,0,.2.145l0.1-.1a6.236,6.236,0,0,0,.732,0,2.678,2.678,0,0,1,.878-0.289,1.194,1.194,0,0,1,.439.915H39.951a0.962,0.962,0,0,1-.439.482c-0.251.133-.9-0.369-1.415-0.289a37.167,37.167,0,0,1-4,.1l-3.512-.048a7.97,7.97,0,0,1-2.439.1,15.926,15.926,0,0,0-3.268.048c-0.3.082-.53,0.3-0.829,0.385a4.786,4.786,0,0,1-.878-0.1,2.869,2.869,0,0,1-.537-0.1l-0.488.048a7.546,7.546,0,0,0-1.268-.048v0.048a0.186,0.186,0,0,1,.1.145,0.318,0.318,0,0,0-.2.048,0.185,0.185,0,0,1,.146.1c-0.154,0-.066-0.082-0.146.048a0.3,0.3,0,0,1,.1.1,0.238,0.238,0,0,0-.146.048c0.251,0.187-.047.085,0.1,0.385,0.127,0.266.676,0.744,0.878,1.059H20v0.048a19.681,19.681,0,0,1,2.146.048,1.705,1.705,0,0,0,.829.145,0.516,0.516,0,0,0,.049-0.289,1.686,1.686,0,0,1,.39.048,0.525,0.525,0,0,0,.1.241,1.175,1.175,0,0,1,.293-0.1,0.318,0.318,0,0,1-.2-0.048c0.1-.009.29,0,0.146-0.1a0.3,0.3,0,0,1,.2.048c0.129,0.006.087-.078,0.146-0.1s0.3,0.049.439,0.048a0.6,0.6,0,0,0,.049.193h0.1a0.734,0.734,0,0,0,.1-0.337c0.124-.2.017-0.618,0.146-0.819a3.442,3.442,0,0,0,.146,1.348,2.933,2.933,0,0,1,.293.1c0.128,0.134.024,0.291,0.293,0.337,0.06-.217-0.015-0.447.341-0.482a2.587,2.587,0,0,0,.585.144c0.164,0.095.282,0.354,0.439,0.433l0.927,0.193v-0.1a0.807,0.807,0,0,1,.39-0.048,0.72,0.72,0,0,1,.1.193,0.3,0.3,0,0,0-.1.1,1.449,1.449,0,0,1,1.122.963H29.22a1.065,1.065,0,0,0-.488-0.722V26.982H28.683V27.7a2.077,2.077,0,0,1,.2,2.793,3.867,3.867,0,0,1-1.61.819c-0.723.311-1.489,0.75-2.2,1.107-1.6.809-5.347,0.481-7.756,0.482H10.1a16.77,16.77,0,0,1-3.268-.048c-1.025-.325-2.152-0.791-3.122-1.2-1.122-.478-2.721-0.744-3.122-1.926a5.352,5.352,0,0,1,0-1.4,0.238,0.238,0,0,1-.146-0.048,0.516,0.516,0,0,0,.049-0.289H0.341v0.241L0.1,28.282c0.025-.183.068-0.2,0.1-0.385A0.591,0.591,0,0,1,0,27.7H0.049V27.656a0.372,0.372,0,0,0,.293.1,2.046,2.046,0,0,0,0-.53h0.1c0.092-.108.15-0.229,0.244-0.337,0.076,0.06.025,0.031,0.1,0a0.322,0.322,0,0,0,.049-0.193H0.585V26.644H0.634A4.236,4.236,0,0,1,1.61,26.5c0.791-.253,1.819-0.528,2.634-0.722,0.466-.111,1.188.118,1.8-0.048,0.063-.017.229-0.13,0.293-0.144,0.244-.056.222,0.107,0.293,0.144a6.536,6.536,0,0,0,1.61-.048c0.119-.02.525,0.048,0.732,0.048a12.964,12.964,0,0,0,3.073-.1,2.459,2.459,0,0,0,.732-0.1,2.974,2.974,0,0,1-1.366-.1,1.169,1.169,0,0,0,.39-0.048,0.5,0.5,0,0,1-.1-0.289h-0.2c-0.006-.187.032-0.143-0.244-0.144a0.721,0.721,0,0,1,.1-0.289H11.024a0.177,0.177,0,0,1-.1.048v-0.1a0.479,0.479,0,0,0,.146-0.241,0.238,0.238,0,0,1-.146-0.048,0.579,0.579,0,0,0,.146-0.193c0.038-.033.109-0.063,0.146-0.1-0.3,0-.762.066-0.976,0.048-0.742-.062-1.508-0.415-2.293-0.482a10.487,10.487,0,0,1,0-1.348H8.1c0-.516.038-0.774,0.049-1.059H7.854a1.409,1.409,0,0,1-.244.915V22.07a0.244,0.244,0,0,0,.049-0.145,2.145,2.145,0,0,0-.39,0,0.244,0.244,0,0,0-.049.145,0.238,0.238,0,0,1-.146-0.048,0.173,0.173,0,0,1-.049-0.1,2.345,2.345,0,0,0,.146-0.867h-0.1a0.251,0.251,0,0,0-.146-0.048c0.04-.156-0.024-0.074.1-0.144a0.332,0.332,0,0,0,.2.048l0.146-.963h0.2v0.1a0.173,0.173,0,0,0-.049.1l0.439,0.048c0.04-.156-0.024-0.074.1-0.144v0.1a1.419,1.419,0,0,0-.1.819,1.412,1.412,0,0,0,.244.1,7.379,7.379,0,0,0,.2-0.819H8.537A0.613,0.613,0,0,1,8.732,20v0.048a0.322,0.322,0,0,1,.049.193h1.854V20.048h0.049V20h0.1c-0.026.146-.025,0.17,0.146,0.241a0.474,0.474,0,0,1,.585-0.1,1.123,1.123,0,0,0,.293.482v0.385h0.1c0.092-.041.036-0.023,0.146,0l-0.2.289H12.2a1.678,1.678,0,0,1,.049-0.53h0.049v0.048a1.017,1.017,0,0,1,.049.482h1.122V21.252a1.27,1.27,0,0,1-.293-0.819H13.22V20.385h0.1l0.146,0.193,0.146-.048a0.247,0.247,0,0,1,.2-0.289c0.2,0.345.689-.086,1.024-0.144V19.952a2.031,2.031,0,0,1,1.317.289,0.821,0.821,0,0,0,.488.337,1.15,1.15,0,0,0,.537,0,0.848,0.848,0,0,1,.1-0.193,0.445,0.445,0,0,1,.293.144V7h0.1V20.626a1.149,1.149,0,0,1,0,.722,3.93,3.93,0,0,1,1.707.626Zm-10.1-1.83a1.039,1.039,0,0,0-.488.048,0.653,0.653,0,0,1,.488.145V20.193Zm0.049,0.722h0.2v0.1c-0.063.1-.059,0.159-0.146,0.289h0.1a0.72,0.72,0,0,0,.1-0.193,5.592,5.592,0,0,1-.049-0.578H11.561v0.1A0.515,0.515,0,0,0,11.512,20.915Zm5.854-.385v0.1l0.2,0.048V20.626Zm0.341,1.011a0.424,0.424,0,0,0,.39.385l0.049-.1A0.984,0.984,0,0,0,17.707,21.541Zm4,0.048v0.385a0.7,0.7,0,0,0,.2.048v-0.1a2.125,2.125,0,0,0,0-.337h-0.2Zm17.073,1.493a4.959,4.959,0,0,0,.634.144,3.222,3.222,0,0,0-.049-0.915C38.9,22.391,38.748,22.489,38.781,23.082ZM24.1,25.585a2.587,2.587,0,0,0,.39.1v-0.1H24.1Zm0.829,0.144v0.1h0.049A0.165,0.165,0,0,0,24.927,25.73Zm0.2,0.289v0.1h0.049A0.164,0.164,0,0,0,25.122,26.019Zm0.439,0.145a0.173,0.173,0,0,1,.049.1H25.561v-0.1Zm-0.439,4.718v0.385h0.049c0.354-.312,1.018-0.307,1.366-0.626H26.488V30.593a0.327,0.327,0,0,0-.244,0,1.459,1.459,0,0,1-.878.241A0.427,0.427,0,0,1,25.122,30.882Zm-0.439.048-0.049.145h0.146v-0.1h0.049V30.93H24.683ZM5.8,31.122a1.18,1.18,0,0,0-.537.048L5.8,31.315V31.122Zm3.463,0a1.476,1.476,0,0,1-.39.867h1.366V31.941a1.175,1.175,0,0,1-.39-0.819H9.268Zm4.1,0a1.917,1.917,0,0,1-.39.867H14.1v-0.1a0.937,0.937,0,0,1-.341-0.77h-0.39Zm3.659,0a1.73,1.73,0,0,1-.39.867h1.22v-0.1a0.937,0.937,0,0,1-.341-0.77H17.024Zm3.659,0a1.655,1.655,0,0,1-.341.867h1.707V31.941a1.028,1.028,0,0,1-.39-0.819H20.683Zm-14.39.241-0.049.144h0.1A0.231,0.231,0,0,0,6.293,31.363Zm2.439,0L8.683,31.6h0.1V31.556C8.838,31.439,8.825,31.45,8.732,31.363Zm1.61,0c-0.02.109-.045,0.052,0,0.144,0.071,0.122-.011.054,0.146,0.1v-0.1A0.374,0.374,0,0,0,10.342,31.363Zm2.439,0-0.049.241h0.1V31.556a0.322,0.322,0,0,0,.049-0.193h-0.1Zm9.366,0a0.672,0.672,0,0,0-.049.193h0.049V31.6h0.1v-0.1C22.211,31.47,22.18,31.4,22.146,31.363Zm2.439,0v0.1h0.049A0.164,0.164,0,0,0,24.585,31.363Zm-6.439.048v0.1h0.1v-0.1h-0.1Zm1.8,0v0.1h0.1v-0.1h-0.1Zm-1.415.385v0.1h0.049A0.164,0.164,0,0,0,18.537,31.8Zm1.073,0v0.1h0.049A0.164,0.164,0,0,0,19.61,31.8Zm-11.9.048,0.049,0.145H7.9v-0.1H7.854V31.844H7.707Zm3.561,0c0,0.134-.057.1,0.146,0.145l0.049-.1H11.415V31.844H11.268Zm0.683,0.145V31.844a0.626,0.626,0,0,0-.2.048v0.048H11.8A0.251,0.251,0,0,0,11.951,31.989Zm11.122-.145-0.049.145h0.146l0.049-.145H23.073Zm-4,.048v0.1h0.049A0.164,0.164,0,0,0,19.073,31.893Z" transform="translate(0 0.016)"/>
</svg>
