<svg xmlns="http://www.w3.org/2000/svg" width="80" height="40" viewBox="0 0 80 40">
  <defs>
    <style>
      .cls-1 {
        fill: #fff;
        fill-rule: evenodd;
      }
    </style>
  </defs>
  <path id="Color_Fill_1" data-name="Color Fill 1" class="cls-1" d="M27.319,19.073a2.808,2.808,0,0,0-.135.789,6.986,6.986,0,0,1,.2.789H28.2l0.068,0.592a3.956,3.956,0,0,1,.809.131c-0.024-.194-0.135-0.136.067-0.263a0.389,0.389,0,0,0,.27.263,0.313,0.313,0,0,1,.067-0.2v0.2a5.056,5.056,0,0,1,1.079,0V21.111a3.068,3.068,0,0,1-1.079,0h0.135c0.52-.3,2.3.184,2.833-0.066a1.822,1.822,0,0,1,.472-0.46,2.764,2.764,0,0,0,1.147-.2c0.046-.051.088-0.147,0.135-0.2a0.641,0.641,0,0,0,.135.395c-0.278.065-.046,0.028-0.2,0.2-0.111-.147-0.115-0.2-0.27-0.131a1.6,1.6,0,0,0-.2.2c-0.142-.2-0.512.016-0.742,0.131v0.066h2.968a1.139,1.139,0,0,1,0-.46H35.818a2.447,2.447,0,0,1-1.349,0,3.318,3.318,0,0,0,1.282-.066,14.271,14.271,0,0,0-1.484-.066V20.059a1.633,1.633,0,0,0,.54-0.066V19.927a0.577,0.577,0,0,1-.337-0.066,0.648,0.648,0,0,0,.607-0.2,0.246,0.246,0,0,0,.135.066c-0.05.057-.085,0.074-0.135,0.131a0.331,0.331,0,0,1,.2.066,0.236,0.236,0,0,0-.067.132h0.067V19.993a0.485,0.485,0,0,0,.607-0.066,0.233,0.233,0,0,1-.135-0.066c0.166-.085.046,0.028,0.135-0.131,0,0-.264-0.013-0.135-0.066h0.135c0.032-.238.018-0.239,0.2-0.329a9.015,9.015,0,0,1,2.563-.592v0.723h0.27v0.066a1.018,1.018,0,0,0-.135.855,1.152,1.152,0,0,1,.472.329,10.364,10.364,0,0,1,1.956.986,0.233,0.233,0,0,0,.135-0.066,0.436,0.436,0,0,0,.067-0.263,0.929,0.929,0,0,1-.472-0.329c0.2,0.026.085,0.108,0.2-.066-0.034-.159-0.109-0.081.067-0.2a0.646,0.646,0,0,1,.742.263,0.642,0.642,0,0,1,.067-0.592,0.914,0.914,0,0,0-.472-0.066V20.322h0.472V19.993a1.452,1.452,0,0,1-.675-0.066,0.727,0.727,0,0,0,.4-0.066l-0.742.066c-0.056.213,0.033,0.1-.135,0.2-0.042-.506,0-1.341,0-2.038a1.2,1.2,0,0,1-.27-0.132h0.2a42.344,42.344,0,0,0,.068-4.8h0.135v4.8h0.877a1.091,1.091,0,0,0-.068-0.394,0.728,0.728,0,0,0,.4-0.066,0.57,0.57,0,0,1-.2-0.263l0.4,0.066V15.523a2.191,2.191,0,0,0,.877-0.132c-0.013.2-.026,0.045,0.135,0.2a10.155,10.155,0,0,0-.135,1.709h0.472c0.124-.148.247-0.011,0.54,0.066v0.2h0.27c0,0.306.278,0.234,0.742,0.2v0.066H44.519v0.2a1.169,1.169,0,0,0-.4.066,0.643,0.643,0,0,0,.472.46V18.481c-0.14-.172-0.086-0.128-0.067-0.395a3.97,3.97,0,0,1,.742-0.2v0.526a1.263,1.263,0,0,1-.4.066,0.357,0.357,0,0,0-.2-0.263v0.066c0.046,0.051.088,0.147,0.135,0.2a1.281,1.281,0,0,0,.607.066,0.425,0.425,0,0,1-.2.329,0.444,0.444,0,0,1,.27.066H45.329a0.714,0.714,0,0,1-.675.132v0.789l-0.54.066V20.19h0.675V20.125h0.067c0-.305-0.111-0.246.27-0.263,0.1-.046.009-0.008,0.2,0v0.066a0.466,0.466,0,0,0-.135.263h0.068c0.135-.176.153-0.044,0.472,0v0.329c-0.422,0-.455.005-0.877,0a1.38,1.38,0,0,0-.067.46c0.091,0.166,0,.483.067,0.592a3.7,3.7,0,0,1,1.079.066,0.816,0.816,0,0,0-.067-0.263h0.2V21.111c0.219-.054.1,0.032,0.2-0.132a1.016,1.016,0,0,1-.068-0.526h0.472a1.328,1.328,0,0,1,0-.394,0.236,0.236,0,0,1,.067.131,0.358,0.358,0,0,1,0,.263h0.472l0.067,0.657h0.2a2.986,2.986,0,0,0,.068-0.329h0.068v0.329c0.819-.033,1.158.193,2.293,0.2,0.059,0.271-.05.245,0.337,0.263a0.408,0.408,0,0,1,.135-0.132v0.132c0.134,0.217,0,.771.135,0.986-0.009-.265-0.037-0.359.135-0.46a2.443,2.443,0,0,1,1.619-.263V21.505h0.067c0.38,0.229.64-.13,1.079,0.132-0.272-.009-0.369-0.036-0.472.131h0.607a1.151,1.151,0,0,1,.135-0.263v0.263a2.912,2.912,0,0,1,1.349.526l3.98,0.131v0.131H58.955a3.3,3.3,0,0,1-1.214.066H55.784a2.4,2.4,0,0,1-.742.2q0.034,0.723.067,1.446A1.316,1.316,0,0,0,55.717,24c0.29-.016.4,0.242,0.809,0.263V24.135a1.734,1.734,0,0,0-.54-0.066V23.28a10.391,10.391,0,0,1,3.777-.263c0.247,0.077.512,0.383,0.742,0.46l3.98,0.132v0.131a25.76,25.76,0,0,0-3.238.066,2.56,2.56,0,0,1-.675.2v0.263h0.742a0.3,0.3,0,0,1,0-.329,3.152,3.152,0,0,0,.944.329,0.539,0.539,0,0,1,.067-0.329v0.329h0.2A0.416,0.416,0,0,1,62.6,24v0.263L63,24.2a0.417,0.417,0,0,1,.067-0.263V24.2a6.539,6.539,0,0,0,1.214-.066,0.416,0.416,0,0,1,.068-0.263c0.148,0.264.9,0.05,1.416-.066a0.25,0.25,0,0,0,.27.329V24.069a0.442,0.442,0,0,1-.135-0.329h0.742c-0.024.194-.135,0.136,0.067,0.263a0.386,0.386,0,0,0,.27,0,0.313,0.313,0,0,1,.068-0.2,1.364,1.364,0,0,0,.4.2,0.313,0.313,0,0,1,.068-0.2,1.465,1.465,0,0,0,.944.131,0.313,0.313,0,0,1,.067-0.2A0.417,0.417,0,0,0,68.6,24a0.54,0.54,0,0,1,.067-0.329c0.028,0.235-.032.165,0.135,0.263,0.405-.348.588,0.111,0.674-0.066a0.511,0.511,0,0,0,.2-0.2,0.815,0.815,0,0,0,.067.263,4.182,4.182,0,0,0,1.214-.329c0.056,0.213-.033.1,0.135,0.2a0.48,0.48,0,0,1,.337,0,0.313,0.313,0,0,1,.067-0.2c0.083,0.2.025,0.149,0.27,0.2a0.416,0.416,0,0,1,.067-0.263v0.263l0.742-.066v-0.2a0.332,0.332,0,0,1,.2.066c-0.166.085-.046-0.028-0.135,0.131h0.135a1.432,1.432,0,0,1,.742-0.066,0.313,0.313,0,0,1,.067-0.2,0.816,0.816,0,0,0,.068.263c0.168-.047,1.207-0.124,1.214-0.131,0.044-.057.09-0.207,0.135-0.263a0.313,0.313,0,0,0,.068.2c0.155-.06.182,0.06,0.337,0a0.691,0.691,0,0,0,.337-0.2v0.2h0.472V23.28H76.29c0.229,0.394,1.226.216,1.619,0.131a0.416,0.416,0,0,1,.067-0.263,0.539,0.539,0,0,0,.067.329,0.747,0.747,0,0,1,.4-0.066,0.416,0.416,0,0,1,.067-0.263v0.263a4.311,4.311,0,0,0,.944-0.131,1.151,1.151,0,0,1,.135-0.263c0.068,0.349.174,0.233,0.4,0.395a9.6,9.6,0,0,0-2.226,3.682,7.527,7.527,0,0,1-.742,1.709H58.887c-0.439.264-2.923,0.066-3.642,0.066H45.531L11.467,28.8c-0.216-.067-0.514-0.326-0.742-0.395a11.884,11.884,0,0,0-2.091-.066,1.4,1.4,0,0,1-.135.46,1.973,1.973,0,0,0-.337-0.263V28.211c-0.441-.046-1.179,0-1.956,0V28.145H6.138A2.863,2.863,0,0,1,6.071,26.9c-1.33,0-2.763-.4-3.305-1.183a10.6,10.6,0,0,1-.54-1.315,0.92,0.92,0,0,1,.135-0.2l-0.2-.657H2.293v0.131a2.413,2.413,0,0,0,.27.46V24.2H2.631V23.806A0.406,0.406,0,0,1,2.5,23.675H2.631L2.7,23.806H2.766L2.7,23.938H2.766V23.872C2.818,23.746,2.833,24,2.833,24H2.9v0.066c-0.243.013-.14-0.1-0.2,0.132H2.766a3.278,3.278,0,0,1,1.417,0,0.417,0.417,0,0,1,.067-0.263c0.028,0.235-.032.165,0.135,0.263a5.836,5.836,0,0,1,.809-0.066H5.329a0.513,0.513,0,0,1,0-.263H5.4a0.6,0.6,0,0,0,.337.066V24H5.6v0.131H5.666a0.914,0.914,0,0,0,.472.066c0.11-.166,0-0.029.2,0a0.539,0.539,0,0,1,.067-0.329V24.2c0.556,0,1.181-.022,1.551,0,0.03-.181.227-0.145,0.607-0.132a0.189,0.189,0,0,0,.067.066,0.313,0.313,0,0,1,.067-0.2,0.923,0.923,0,0,0,.067.329H8.9a0.539,0.539,0,0,1,.067-0.329v0.329a2.152,2.152,0,0,1,.809,0c0.013-.237-0.1-0.136.135-0.2,0.126,0.017.249-.113,0.607-0.131a0.812,0.812,0,0,0,.27.263c0.028-.235-0.032-0.165.135-0.263,0.01,0.247-.032.231,0.135,0.329a0.539,0.539,0,0,1,.067-0.329c0.01,0.247-.032.231,0.135,0.329,0.054-.287.075-0.259,0.4-0.263v0.263h0.27V23.938h0.067v0.131L12.142,24a0.416,0.416,0,0,0,.067.263A0.416,0.416,0,0,1,12.277,24a1.47,1.47,0,0,0,.742.066v0.2h0.4A0.416,0.416,0,0,1,13.491,24v0.263h0.54A0.416,0.416,0,0,1,14.1,24a0.416,0.416,0,0,0,.068.263c0.067-.1-0.078-0.092.067-0.132H14.3v0.132c0.083,0.033.452-.309,0.675-0.329,0.088,0.27-.086.283,0.27,0.329A0.416,0.416,0,0,1,15.312,24v0.263h0.4a0.682,0.682,0,0,1,.067-0.329,1.578,1.578,0,0,1-.809-0.131l-3.238-.066V23.609a12.4,12.4,0,0,1,3.17-.066,4.325,4.325,0,0,1,.742-0.066c0.276-.078.543-0.378,0.809-0.46H17.4a1.171,1.171,0,0,1,.068-0.592v0.592l3.035,0.066a4.518,4.518,0,0,1,1.282-.066,1.822,1.822,0,0,1,.27.46,1.452,1.452,0,0,0-.675.066H21.45a2.927,2.927,0,0,0,1.147.066,0.417,0.417,0,0,1,.067-0.263,0.417,0.417,0,0,0,.067.263V22.952h-0.2V22.82a0.436,0.436,0,0,1-.067-0.263H22.53V22.491a1.452,1.452,0,0,0,.607-0.131v0.2h0.27V22.294h0.135a0.767,0.767,0,0,1,.675,0V22.228h0.067a3.142,3.142,0,0,1,.067-1.644h0.067v0.263H25.16a4.616,4.616,0,0,0,0,1.446,0.714,0.714,0,0,0,.675.131,4.58,4.58,0,0,1,.742.131V20.914L25.3,20.651a1.127,1.127,0,0,0-.067-0.46H25.3a0.351,0.351,0,0,0,.2.066c0.026-.172-0.05-0.086.135-0.131,0.014,0.092-.056-0.027-0.067.066-0.13.051,0.135,0.066,0.135,0.066a1.135,1.135,0,0,1,.472,0V20.19a0.307,0.307,0,0,1-.135-0.329,1.061,1.061,0,0,0,.337-0.329H26.307a1.375,1.375,0,0,1-.607,0,2.486,2.486,0,0,1,.067-0.592h0.27a0.5,0.5,0,0,0,.54.132V18.547h-0.4V18.152h0.4a10.973,10.973,0,0,0,0-3.09H26.509v0.066c-0.046.051-.088,0.147-0.135,0.2V15.062h-0.2v0.263a2.267,2.267,0,0,1-.944-0.066,0.5,0.5,0,0,0,.54-0.131h-0.54c-0.05-.057-0.085-0.074-0.135-0.132a0.727,0.727,0,0,0,.4-0.066c-0.219-.054-0.1.032-0.2-0.131h0.27V15h1.079V11.381a2.984,2.984,0,0,1,0-1.381c0,0.6.254,1.031,0.2,1.512a29.391,29.391,0,0,0,.2,7.561h0.27ZM42.833,14.8h0.135C42.888,14.905,42.94,14.88,42.833,14.8Zm-0.068.394a0.313,0.313,0,0,1,.068-0.2c0.09,0.2.021,0.034,0.2,0.132v0.066h-0.27ZM25.9,15.128V15.26h0.2V15.128H25.9Zm18.28,2.3v0.132H44.25V17.429H44.182Zm-3.17.723v1.315a7.458,7.458,0,0,0,1.012-.066,11.256,11.256,0,0,0-.135-1.118,0.278,0.278,0,0,0,.135-0.263,2.475,2.475,0,0,0-1.012.066,2.1,2.1,0,0,1,.472.066v0.066h-0.2A0.464,0.464,0,0,0,41.012,18.152Zm1.079-.131a0.245,0.245,0,0,0,.135.066A0.245,0.245,0,0,0,42.091,18.021Zm-0.2.263H41.551a0.313,0.313,0,0,1,.067-0.2c0.152,0.192.034,0.073,0.27,0v0.2ZM26.24,18.218V18.35c0.094,0.014-.027-0.054.067-0.066,0.052-.126.068,0.131,0.068,0.131a0.233,0.233,0,0,0-.135.066h0.337a0.513,0.513,0,0,1,0-.263H26.24Zm17.875,0V18.35h0.067A0.224,0.224,0,0,0,44.115,18.218Zm1.349,0.526a0.235,0.235,0,0,1,.067.131H45.464V18.744Zm-19.629.263a0.245,0.245,0,0,0,.135.066A0.244,0.244,0,0,0,25.835,19.007Zm-0.742.526a0.235,0.235,0,0,1,.067.131H25.093V19.533Zm1.417,0v0.131h0.067V19.533H26.509Zm0.337,0a0.246,0.246,0,0,0,.135.066,1.607,1.607,0,0,0-.135.329,0.464,0.464,0,0,0,.27.066V19.927A0.55,0.55,0,0,0,26.847,19.533Zm14.165,0V19.8h0.135V19.73a0.76,0.76,0,0,0,.135-0.2h-0.27Zm0.54,0.263h0.2a0.815,0.815,0,0,1,.067-0.263H41.484V19.6A0.33,0.33,0,0,1,41.551,19.8Zm-6.408-.2h0.135v0.066A0.233,0.233,0,0,1,35.143,19.6Zm-9.983.263a0.236,0.236,0,0,1,.067.131H25.16V19.862Zm13.828,0.2a0.259,0.259,0,0,1,0,.329V20.059ZM26.24,20.19c0.112,0.073.072,0.116,0.135,0H26.24Zm8.3,0.131c0.116,0.058.086,0.058,0.2,0h-0.2Zm0.607,0a0.694,0.694,0,0,0,.607,0H35.143Zm8.971,0.2v0.263a0.894,0.894,0,0,1,.472.066,0.332,0.332,0,0,0-.2.066h0.337V20.519H44.115ZM39.865,22.1l0.067-.395c0.059,0.049.076,0.083,0.135,0.131a0.832,0.832,0,0,1,0-.329h0.067c0.056,0.213-.033.1,0.135,0.2,0.14-.227.183-0.1,0.337,0V21.439a9.231,9.231,0,0,1-1.821-.855v0.2c0.122,0.327.017,1.059,0.135,1.446h0.068c0-.349-0.006-0.369.337-0.395a0.781,0.781,0,0,0,.2.131c-0.037.126-.111,0.056,0,0.132A0.756,0.756,0,0,0,39.865,22.1ZM26.442,20.716v0.131h0.067A0.223,0.223,0,0,0,26.442,20.716Zm18.617,0a0.235,0.235,0,0,1,.068.131H45.059V20.716Zm-21.045.066a0.479,0.479,0,0,1,0,.592V20.782Zm6.61,0.329v0.263h0.27V21.111h-0.27Zm0.337,0v0.263h1.214a0.29,0.29,0,0,1,.2-0.2V21.111H30.961Zm1.956,0v0.263h1.551V21.111H32.917Zm1.619,0v0.263h0.27V21.111h-0.27Zm0.337,0v0.263h0.944l0.067-.2A3.7,3.7,0,0,0,34.874,21.111Zm-2.091.066-0.067.2H32.85A0.313,0.313,0,0,0,32.783,21.177Zm9.106,0c-0.052.045-.151,0.086-0.2,0.131h0.27A0.224,0.224,0,0,0,41.889,21.177Zm10.59,0.131a4.164,4.164,0,0,1,1.551.066A3.824,3.824,0,0,1,52.479,21.308Zm-10.86.066v0.263h0.135A0.259,0.259,0,0,0,41.619,21.374Zm-0.944.131v0.132l0.2,0.066c-0.029.176-.011,0.769-0.068,1.052a0.364,0.364,0,0,0-.27.2c0.407,0.076.032,0.069,0.27,0.329,0.014-.27.007-0.3,0.2-0.395a0.408,0.408,0,0,0,.135.131,3.217,3.217,0,0,1,.674-0.526c-0.058-.124-0.032-0.049,0-0.2H41.686c-0.1.167,0.015,0.074-.2,0.131a0.215,0.215,0,0,0,0-.2l-0.54-.066C40.961,21.74,40.946,21.646,40.675,21.505Zm-11.062.789v1.315h0.337a1.176,1.176,0,0,1,.067-0.526h0.809a0.313,0.313,0,0,1,.067-0.2V22.82h0.2v-0.2a0.444,0.444,0,0,1-.27-0.066c0.241-.027.17,0.031,0.27-0.131-0.219-.192-0.124-0.406.2-0.46a1.388,1.388,0,0,0,.135.329H31.5a2.828,2.828,0,0,1,.472-0.657H31.029C30.72,22.207,30.567,22.329,29.612,22.294Zm10.725-.657v0.131h0.135V21.637H40.337Zm12.007,0v0.131h0.472V21.637H52.344ZM0,22.228c0.314-.037,1.486-0.529,1.551-0.46a1.254,1.254,0,0,1,.27.855,4.2,4.2,0,0,1-1.551.526V23.083H0.2Zm33.322,0.723H34.2V21.768c-0.638,0-1.272-.041-1.821-0.066a4.368,4.368,0,0,1-.4.657h0.068c0.248-.161.23-0.034,0.607,0,0.068-.242.044-0.231,0.337-0.263-0.026.193-.11,0.082,0.068,0.2a1.2,1.2,0,0,1,.809-0.131c0.008,0.194.024,0.038,0.135,0.263A0.71,0.71,0,0,0,33.322,22.952Zm7.69-1.249a0.393,0.393,0,0,0,.4.131V21.768Zm0.607,0v0.131h0.135V21.7H41.619Zm-19.427.131a0.235,0.235,0,0,1,.067.131H22.192V21.834ZM41.079,21.9v0.131h0.067V21.9H41.079Zm-18.82.131a0.236,0.236,0,0,1,.067.132H22.26V22.031Zm16.8,0v0.132h0.068A0.223,0.223,0,0,0,39.056,22.031Zm0.135,0v0.132C39.3,22.085,39.273,22.135,39.191,22.031Zm-6.408.132v0.131H32.85V22.163H32.783Zm-10.455.066a0.235,0.235,0,0,1,.067.131H22.327V22.228Zm18.685,0a0.235,0.235,0,0,1,.068.131H41.012V22.228Zm-18.617.2a0.236,0.236,0,0,1,.067.131H22.395V22.426Zm2.766,0.066a0.2,0.2,0,0,0,.27,0H25.16Zm-23.271.132a0.236,0.236,0,0,1,.067.131H1.889V22.623Zm31.231,0a0.747,0.747,0,0,1-.4.066V22.82c0.048,0.1.009,0.009,0,.2h0.54V22.886C33.18,22.777,33.319,22.746,33.12,22.623Zm0.742,0a0.33,0.33,0,0,1,.068.2H33.862v-0.2Zm16.661,0.263a0.417,0.417,0,0,0-.067-0.263v0.329a0.975,0.975,0,0,0,.27.066c0.2-.078.759,0.2,0.944-0.066H50.995A0.913,0.913,0,0,0,50.523,22.886Zm-17.875.131V22.689a6.009,6.009,0,0,1-.944,0l-0.27.394h0.337A1.4,1.4,0,0,1,32.648,23.017Zm0.472-.329a0.235,0.235,0,0,1,.067.131H33.12V22.689Zm8.364,0V22.82h0.337V22.689H41.484Zm37.909,0.066a0.235,0.235,0,0,1,.068.131H79.393V22.754ZM1.956,22.82a0.235,0.235,0,0,1,.067.131H1.956V22.82Zm29.68,0h0.135C31.691,22.926,31.743,22.9,31.636,22.82Zm8.634,0.066v0.131h0.068V22.886H40.27Zm0.135,0v0.131h0.068V22.886H40.4Zm1.282,0a0.246,0.246,0,0,0,.135.066A0.244,0.244,0,0,0,41.686,22.886Zm37.639,0a0.235,0.235,0,0,1,.067.131H79.326V22.886Zm-77.3.066a1.1,1.1,0,0,1,.337.46H2.293a1.164,1.164,0,0,1-.2-0.263A0.33,0.33,0,0,1,2.024,22.952Zm48.7,0.131-0.067.2h0.135A0.408,0.408,0,0,0,50.725,23.083Zm-30.287.526h0.2V23.478a0.759,0.759,0,0,0,.135-0.329H20.1v0.066c0.415,0.2.011,0.5,0.337,0.723V23.609Zm30.826-.46c0.131,0.146.124,0.106,0.4,0.131V23.149h-0.4Zm-10.321.066a0.245,0.245,0,0,0,.135.066A0.245,0.245,0,0,0,40.944,23.215Zm-19.359.066a0.245,0.245,0,0,0,.135.066A0.245,0.245,0,0,0,21.585,23.28Zm-19.427.066c0.024,0.02.135,0.034,0.067,0.131C2.151,23.445,2.016,23.361,2.159,23.346Zm30.354,0c-0.052.045-.151,0.086-0.2,0.131h0.135c0.1,0.166.085,0.12,0.337,0.132,0.02-.323.262-0.216,0.742-0.2V23.346H32.513Zm1.147,0v0.131h0.135V23.412h0.067V23.346h-0.2Zm17.875,0v0.131H51.6V23.346H51.535Zm-49.174.066c0.131,0.106.263,0.114,0.067,0.2V23.543A0.236,0.236,0,0,1,2.361,23.412Zm28.8,0c-0.106.232-.083,0.172,0.2,0.2-0.012-.208.016-0.055,0.2-0.2h-0.4Zm-1.147.066v0.132h0.067V23.478H30.017Zm3.373,0c0.112,0.073.072,0.116,0.135,0H33.39Zm0.27,0.066a0.365,0.365,0,0,0,.4,0h-0.4Zm37.572,0a0.235,0.235,0,0,1,.068.131H71.231V23.543Zm1.619,0h0.135v0.066A0.234,0.234,0,0,1,72.85,23.543Zm-61.788.263a0.577,0.577,0,0,1,.337.066C11.122,23.877,11.212,23.964,11.062,23.806Zm56.526,0h0.135v0.066A0.233,0.233,0,0,1,67.589,23.806Zm-62.732.066a0.33,0.33,0,0,1,.067.2H4.857v-0.2Zm55.582,0.066v0.131h0.067V23.938H60.438ZM5.464,24c0.022,0.145-.07.071,0.067,0.131A0.223,0.223,0,0,0,5.464,24Zm6.543,0.131v0.132h0.067A0.223,0.223,0,0,0,12.007,24.135Zm44.992,0v0.132h0.135V24.135H57ZM7.892,27.619c0.219-.054.1,0.032,0.2-0.131a0.419,0.419,0,0,1,0-.395H7.96v0.329A0.33,0.33,0,0,0,7.892,27.619Zm0.337-.526v0.132H8.3V27.093H8.229Zm0.54,0.132c0.056,0.213-.033.1,0.135,0.2V27.291a0.724,0.724,0,0,0-.337-0.132v0.066h0.2Zm-0.944.789c0.219-.054.1,0.032,0.2-0.131H7.892a0.189,0.189,0,0,0-.067-0.066v0.2Z" transform="translate(0 0.531)"/>
</svg>
