<?xml version="1.0" encoding="utf-8"?>
<!-- Generator: Adobe Illustrator 16.0.0, SVG Export Plug-In . SVG Version: 6.00 Build 0)  -->
<!DOCTYPE svg PUBLIC "-//W3C//DTD SVG 1.1//EN" "http://www.w3.org/Graphics/SVG/1.1/DTD/svg11.dtd">
<svg version="1.1" id="Layer_1" xmlns="http://www.w3.org/2000/svg" xmlns:xlink="http://www.w3.org/1999/xlink" x="0px" y="0px"
	 width="79.938px" height="40px" viewBox="0 0 79.938 40" enable-background="new 0 0 79.938 40" xml:space="preserve">
<path id="Color_Fill_1" fill="#FFFFFF" d="M49.299,7.556c0.763,0.005,1.8-0.038,2.438-0.045c0.011,0.093-0.004,0.186-0.044,0.271
	c-0.052,0.069-0.097,0.145-0.133,0.225h-0.045V7.781h-1.063c-0.134,0.177-0.281,0.343-0.443,0.495c-0.049,0.1,0,0.241-0.044,0.315
	c0.005-0.063-0.011-0.126-0.044-0.18c-0.25,0.196-0.436,0.462-0.532,0.765h0.044c0.005-0.034,0.02-0.065,0.044-0.09
	c-0.105,0.346-0.021,0.722,0.222,0.989h-0.129c0.015,0.539,0.029,1.079,0.044,1.619c0.725-0.079,1.457-0.049,2.173,0.09
	c-0.4-0.045-0.805-0.03-1.2,0.045c-0.385,0.192-0.707,0.488-0.932,0.855c0.029,0.039,0.044,0.086,0.044,0.135
	c0.2,0,0.7-0.1,0.71-0.09c0.054,0.114,0.054,0.246,0,0.36c-0.223-0.101-0.466-0.146-0.71-0.135c0,0.67,0.129,1.154,0.134,1.934
	c0.111,0.017,0.069-0.026,0.089,0.135c0.149-0.021,0.301-0.006,0.442,0.045c-0.062-0.005-0.124,0.011-0.177,0.045l0.4-0.045v0.045
	h-0.091c-0.068,0.038-0.146,0.053-0.223,0.045v0.315h0.089c0.617-0.096,1.245-0.096,1.861,0c-0.014-0.195-0.014-0.39,0-0.585v-0.045
	c0.338,0.056,0.682,0.056,1.02,0V14.8c-0.125-0.147-0.106-0.368,0.041-0.493c0.001,0,0.002-0.001,0.003-0.001
	c0.294,0.011,0.581,0.087,0.842,0.225c-0.111,0.065-0.179,0.186-0.177,0.314c0.272-0.003,0.543,0.042,0.8,0.135h2.57v2.474h0.048
	c0.02-0.089,0.088-0.159,0.177-0.181v0.091c-0.189,0.206-0.271,0.489-0.222,0.765h0.354v0.045c-0.059,0.205-0.073,0.42-0.044,0.631
	c0.149,0.021,0.301,0.006,0.443-0.046c-0.049,0.001-0.096-0.015-0.134-0.045h0.044c0.098-0.043,0.205-0.059,0.311-0.045
	c-0.01-0.104-0.01-0.21,0-0.315h-0.358v-0.047h0.044c0.039-0.029,0.085-0.045,0.134-0.046c-0.073-0.122-0.118-0.259-0.134-0.399
	c0.071,0.03,0.151,0.03,0.223,0v-0.051h-0.438c-0.038-0.028-0.085-0.044-0.133-0.045v-0.09c0.164-0.006,0.321-0.07,0.443-0.18
	c0.037,0.146-0.022,0.068,0.089,0.135V17.5c-0.034-0.004-0.065-0.021-0.089-0.045c0.064-0.061,0.11-0.139,0.133-0.225
	c0.053-0.033,0.114-0.049,0.177-0.045v0.494c0.12-0.023,0.245-0.008,0.355,0.045V17.5h0.354c0.045,0.5,0.553,0.386,1.064,0.359V17.9
	h-0.981v0.09c0.037,0.039,0.083,0.07,0.133,0.09c0.281-0.037,0.566-0.021,0.843,0.045c-0.252-0.037-0.509-0.022-0.755,0.045
	c0.043,0.1,0.059,0.208,0.044,0.314c0.101-0.022,0.089-0.051,0.178,0c-0.094,0.086-0.183,0.176-0.267,0.271
	c0.215,0,0.206,0.035,0.488,0.045v0.181h-0.664v0.18l0.488-0.045l-0.044,0.314c0.352,0.068,0.712,0.068,1.063,0
	c-0.076,0.01-0.154-0.007-0.222-0.045h0.221V19.07h-0.266v-0.225c0.048,0.001,0.095-0.016,0.133-0.045c0.044-0.076,0-0.1,0.044-0.18
	c0.271,0.099,0.555,0.159,0.842,0.18c-0.032,0.039-0.056,0.051-0.089,0.09h0.223c-0.005-0.062-0.021-0.123-0.045-0.18h0.223
	c0.333,0.104,0.674,0.179,1.019,0.225c-0.223,0-0.444,0.015-0.665,0.045c0.001,0.122,0.016,0.242,0.044,0.36h0.09
	c0.148,0.091,0.341,0.052,0.442-0.09h0.044c-0.03-0.112-0.1-0.084-0.044-0.135c0.039-0.037,0.084-0.067,0.133-0.091v0.36
	c0.008,0.12,0.008,0.24,0,0.36h0.089c0.612-0.332,1.333-0.396,1.994-0.18h-0.088c-0.144,0.344-1.226,0.389-1.418,0.72
	c0.07-0.032,0.151-0.032,0.223,0c0.074,0.121,0.12,0.258,0.133,0.399c-0.056,0.068-0.101,0.145-0.133,0.226l-0.134-0.045v0.045
	h0.044c0.085,0.034-0.089,0.045-0.089,0.045c-0.023-0.024-0.055-0.04-0.089-0.045c0.008,0.136,0.018,0.03-0.089,0.135h0.71v0.315
	l1.374-0.045l-0.089-0.766h-0.4c-0.011-0.018-0.025-0.033-0.044-0.045c-0.009-0.119-0.009-0.24,0-0.359h0.223l-0.045-0.226h0.09
	c0.471,0.063,0.947,0.063,1.418,0c0.047-0.097,0.125-0.177,0.222-0.226c0.173,0.089,0.336,0.194,0.488,0.315
	c-0.068,0.067-0.128,0.144-0.178,0.226h0.311c0.437,0.098,0.888,0.113,1.33,0.045v0.139h-1.109c-0.214,0.154-0.369,0.377-0.442,0.63
	c0.032,0.054,0.048,0.117,0.044,0.181c0.114,0.033,0.234,0.049,0.354,0.045c0.29-0.07,0.591-0.085,0.886-0.045l1.641-0.09
	l0.044-0.226h0.089c-0.009,0.077,0.007,0.156,0.044,0.226c0.006-0.17-0.021-0.158,0.089-0.226v0.045
	c0.033,0.054,0.048,0.117,0.044,0.181c0.221-0.029,0.442-0.044,0.665-0.046v-0.27c-0.077,0.009-0.154-0.007-0.222-0.045
	c0.163-0.024,0.33-0.009,0.486,0.045H71.06v0.27c0.222,0.017,0.442-0.047,0.621-0.18h-0.177v-0.36h0.044V20.51h0.133
	c-0.001-0.049,0.015-0.096,0.044-0.135c0.005,0.034,0.02,0.065,0.044,0.09V20.33c-0.077,0.009-0.154-0.007-0.222-0.045h0.266v0.18
	h0.044v0.045c0.273-0.1,0.556-0.176,0.843-0.225v0.09c-0.146,0.048-0.137,0.066-0.134,0.135c0.187,0.117,0.478-0.021,0.709,0.09
	c0.041,0.063,0.085,0.123,0.134,0.181c0.258-0.063,0.181-0.05,0.442,0.09v-0.045c0.036-0.034,0.084-0.05,0.133-0.045l0.044,0.135
	c0.343,0.022,0.687-0.007,1.02-0.09c-0.048,0.001-0.095-0.016-0.133-0.045l0.31-0.046v0.136c1.126-0.022,2.239-0.173,3.413-0.181
	v0.045h-0.042v0.046c-0.1-0.032-0.205-0.048-0.31-0.046v0.451h0.084v-0.091c0.05-0.027,0.083-0.077,0.089-0.135
	c-0.049,0.001-0.096-0.015-0.133-0.045c0.057-0.021,0.119-0.021,0.177,0c0.009,0.153,0.038,0.305,0.089,0.45
	c0.033-0.178,0-0.145,0.177-0.18c0.022,0.036,0.053,0.066,0.089,0.09v-0.047c0.035-0.094,0.08-0.185,0.134-0.27
	c0.05,0.129,0.008,0.083,0.133,0.135v-0.4h-0.129c0,0.049-0.016,0.097-0.044,0.136c-0.037-0.146,0.021-0.069-0.09-0.136
	c0.006,0.064-0.01,0.127-0.044,0.181v-0.049c-0.081-0.2,0.039-0.2,0.355-0.181V21h0.044v-0.04c0.093-0.122,0.168-0.257,0.222-0.399
	h0.044v0.09c-0.176,0.201-0.284,0.453-0.31,0.72l0.532-0.045l0.044-0.091c0.148-0.401,0.194-0.834,0.133-1.258h-0.089
	c-0.005,0.033-0.02,0.064-0.044,0.09v-0.142h0.133v-2.563c0.032-0.375,0.018-0.753-0.044-1.125h0.089v3.688
	c0.068,0.162-0.065,0.726,0,1.034c0.165,0.788-0.538,2.354-0.842,3.193c-0.442,1.218-0.618,2.6-0.976,3.867
	c-0.057,0.575-0.206,1.137-0.442,1.664c-0.363,0.084-0.739,0.1-1.108,0.045l-2.481,0.045h-9.975c-1.029,0.115-2.067,0.13-3.1,0.045
	h-43.57c-1.104-0.112-2.215-0.143-3.324-0.09h-1.02c-1.129-0.264-2.383-0.399-3.5-0.674c-0.702-0.059-1.409,0.018-2.083,0.225
	l-1.551,0.135v0.046c0.079,0.152,0.11,0.325,0.089,0.495H5.952c-0.023-0.089-0.148-0.342-0.178-0.27
	c-0.033,0.054-0.053,0.215-0.089,0.27c-0.1,0.033-0.205,0.048-0.31,0.045c-0.113-0.137-0.076-0.432-0.177-0.585
	c-0.187-0.114-0.342,0-0.4-0.271c0.179-0.023,0.34-0.121,0.443-0.27c-0.057-0.189-0.072-0.389-0.044-0.585L4.71,28.245
	c-0.146,0.778-0.49,0.665-1.374,0.63v0.045H4.49c0.029,0.211,0.015,0.426-0.045,0.63c-0.11,0.29-1.822,0.191-2.3,0.181
	c-0.134-0.591-0.164-1.199-0.089-1.801c0.115-0.034,0.235-0.049,0.355-0.045c0.338,0.137,0.698,0.213,1.063,0.225v-0.09H3.204
	L1.165,27.62c-0.7-0.261-0.72-0.771-0.976-1.484c-0.154-0.257-0.217-0.558-0.177-0.854c0.026-0.1,0.1-0.2,0.133-0.315
	c0.101-0.059,0.14-0.168,0.223-0.225L0.9,24.561V23.7c3.612,0,7.623-0.007,10.947,0c-0.019-0.136-0.003-0.272,0.044-0.4
	c-0.186-0.083-0.341-0.224-0.442-0.399H10.34v-0.142l1.64-0.045v-0.045c-0.063-0.055-0.123-0.115-0.177-0.18v-0.046h0.044
	c0.104-0.19,0.316-0.298,0.532-0.27c0.17,0.33,1.232,0.273,1.6,0.225c0.016,0.218,0.009,0.209,0.223,0.226
	c-0.001,0.121-0.016,0.242-0.044,0.36c-0.145,0.037-0.294,0.053-0.443,0.045L13.669,23.7l1.507-0.045v-1.212
	c-0.462-0.068-0.894-0.271-1.241-0.584h0.976c0.018-0.162,0.162-0.278,0.324-0.261c0.12,0.013,0.22,0.099,0.251,0.216
	c0.029,0.039,0.044,0.086,0.044,0.135h0.178v-0.315h0.044c0.234,0.046,0.475,0.046,0.709,0c0.363,0.084,0.734,0.129,1.107,0.136
	c0.004-0.151,0.019-0.302,0.044-0.451c-0.19-0.074-0.349-0.217-0.442-0.399h-1.111V20.78l1.641-0.046v-0.045
	c-0.09-0.045-0.154-0.127-0.178-0.225c0.151-0.135,0.334-0.228,0.532-0.27l0.222,0.27c0.469-0.084,0.946-0.099,1.418-0.045v0.225
	h0.223l-0.044,0.4h-0.445l-0.044,0.766h1.772v-0.492l0.134-0.045V20.42l0.575-0.045c0.032-0.102,0.047-0.209,0.045-0.314
	c0.09-0.002,0.181,0.014,0.266,0.045c-0.043,0.068-0.043,0.156,0,0.225c0.159,0.1,0.478,0.031,0.621,0.135h-0.227v0.4
	c0.077-0.009,0.155,0.007,0.223,0.045h-0.223v0.359c0.238,0.016,0.167,0.067,0.223,0.09c0.121,0.051,0.771-0.041,0.975,0
	c-0.032,0.227-0.018,0.456,0.044,0.676v-1.346h-0.262V20.6c-0.079-0.184-0.109-0.385-0.089-0.584h-0.222
	c-0.029-0.088-0.044-0.179-0.044-0.271c0.409,0.093,0.833,0.093,1.241,0c-0.251,0.037-0.508,0.022-0.753-0.045h0.931
	c0.005-0.062,0.021-0.123,0.045-0.181h-0.977v-0.045h0.975c0.045-0.3,0.078-0.377,0.443-0.359v0.09
	c-0.028,0.039-0.044,0.086-0.044,0.135h0.044c0.101-0.08,0.237-0.098,0.355-0.045V19.25c-0.062-0.127-0.062-0.273,0-0.4
	c0.053-0.033,0.114-0.049,0.177-0.045v0.271c0.189,0.082,0.368,0.188,0.532,0.315c-0.196-0.002-0.391,0.029-0.576,0.09
	c0.119-0.01,0.235,0.041,0.31,0.135c-0.023,0.024-0.039,0.056-0.044,0.09c-0.057,0.023-0.116,0.039-0.177,0.045
	c-0.022-0.037-0.053-0.067-0.089-0.09v0.04c0.105,0.067,0.229,0.099,0.354,0.09c0.235-0.037,0.475-0.037,0.709,0v-2.654
	c0.082-0.581,0.082-1.172,0-1.754c0.073-0.355,0.088-0.719,0.044-1.079c-0.056-0.032-0.102-0.079-0.133-0.135h0.133
	c0-0.339-0.021-0.783,0-0.989h0.09v1.079c0.053,0.824,0.053,1.65,0,2.475c0.048-0.001,0.095,0.016,0.133,0.045l0.886,3.822
	c0.471-0.055,0.947-0.055,1.418,0l0.048,0.271c-0.076,0.118-0.108,0.261-0.089,0.399c0.036,0.023,0.066,0.054,0.089,0.09h0.044
	c0.02-0.064,0.05-0.125,0.089-0.18c-0.135-0.131-0.051-0.125,0-0.27c-0.1-0.066-0.087-0.105-0.089-0.27
	c0.036-0.023,0.067-0.055,0.089-0.091c0.2,0.062,1.232-0.008,1.285,0.045c0.081,0.065,0.115,0.171,0.089,0.271h0.134
	c-0.005-0.063-0.021-0.123-0.044-0.18c0.033-0.005,0.064-0.021,0.089-0.045c0.162,0.027,0.633,0.008,0.709,0.045
	c0.111,0.065,0.068,0.02,0.089,0.18c-0.043,0.099-0.059,0.207-0.044,0.314h0.133c-0.001-0.049,0.015-0.096,0.044-0.135
	c0.126-0.043,0.246-0.104,0.355-0.18c-0.063-0.037-0.099-0.107-0.09-0.18c0.047-0.043,0.092-0.088,0.134-0.136
	c0.439,0.067,0.886,0.082,1.329,0.045l0.045,0.226c-0.059,0.111-0.09,0.234-0.09,0.359l0.223,0.045v-0.09
	c-0.028-0.193-0.028-0.391,0-0.585h0.044v0.05c0.043,0.1,0.058,0.209,0.044,0.315c0.384-0.023,0.769-0.023,1.151,0
	c-0.017-0.122-0.001-0.246,0.045-0.36V20.6c0.021,0.104,0.035,0.209,0.044,0.315L35.249,21c0.005,0.018-0.12,0.561-0.133,0.766
	h1.107c0.009-0.17-0.021-0.34-0.089-0.496h0.177v-0.58c-0.077-0.013-0.144-0.063-0.177-0.135c0.123,0.023,0.242-0.057,0.266-0.18
	l0,0c0.062-0.22,0.076-0.449,0.044-0.675h0.09c0.095,0.059,0.215,0.059,0.31,0c-0.063,0.005-0.125-0.011-0.177-0.045h0.709v-0.765
	h0.133v0.36h0.089v-0.36h0.4v0.18h0.044v-0.045c0.028-0.039,0.044-0.086,0.044-0.135h0.399v0.36h0.083v-0.36h0.134v0.766
	c0.721,0,1.115,0.062,1.551,0.045c0.324-0.03,0.65-0.03,0.975,0c0.073,0.294,0.088,0.6,0.044,0.9h-0.399v0.045
	c0.121,0.07,0.11,0.039,0.133,0.225h0.576c0.037-0.146,0.052-0.299,0.044-0.45c-0.05-0.402-0.064-0.809-0.044-1.214h0.089
	c0.053-0.033,0.114-0.049,0.177-0.045c0.1,0.275,0.348,0.191,0.8,0.18l-0.31-4.408h-0.174V14.8
	c-0.097-0.048-0.175-0.127-0.223-0.225c0.501-0.12,0.979-0.318,1.418-0.585c0.237-0.031,0.456-0.142,0.62-0.315
	c-0.048,0-0.095-0.015-0.133-0.045h0.089c0.059-0.06,0.139-0.092,0.223-0.09v0.045c-0.128,0.05-0.082,0.008-0.134,0.135h0.089
	c0.202-0.132,0.429-0.224,0.665-0.27V13.4c-0.153,0.066-0.324,0.082-0.487,0.045h0.089c0.124-0.101,0.289-0.134,0.442-0.09v-0.042
	c0.025-0.023,0.056-0.039,0.09-0.045c0.098,0.048,0.212,0.048,0.31,0v-0.045c-0.048,0-0.095-0.016-0.133-0.045l0.532-0.045
	c0.086,0.434,0.284,0.837,0.575,1.169c0.024-0.024,0.056-0.04,0.09-0.045v0.09c-0.139,0.041-0.23,0.171-0.223,0.315h-0.177v0.045
	c0.084,0.428,0.114,0.865,0.089,1.3c0.171,1.071,0.245,2.154,0.222,3.238h0.045c0.084-0.079,0.193-0.127,0.31-0.136
	c0.036,0.069,0.052,0.148,0.044,0.226c-0.105,0.425-0.136,0.864-0.089,1.3h0.31c-0.032-0.226-0.018-0.455,0.044-0.675v0.675
	l0.267-0.045v-0.26c0.067-0.279,0.082-0.569,0.044-0.854c0-0.701,0.006-1.316,0-2.024c0.218-0.047,0.442-0.062,0.665-0.045
	c0.053-0.552,0.172-1.096,0.354-1.619c0.139-0.5,0.127-0.938,0.267-1.439c0.209-0.708,0.372-1.43,0.487-2.159l-0.531-0.4
	c-0.401,0.007-0.802-0.008-1.2-0.045c0.572-0.008,1.229-0.044,1.86-0.045c0.037-0.274,0.096-0.545,0.178-0.81l-0.081-1.939
	c-0.136-0.186-0.347-0.301-0.576-0.315V8.411l-0.266-0.225c0.014,0.146-0.034,0.292-0.134,0.4c-0.033-0.031-0.1-0.059-0.133-0.09
	c0.094-0.116,0.154-0.253,0.177-0.4c-0.097-0.111-0.2-0.216-0.31-0.315h-1.023c-0.023,0.024-0.055,0.04-0.089,0.045
	c0.022,0.058,0.022,0.122,0,0.18h-0.047V7.961c-0.053-0.081-0.083-0.174-0.089-0.27c0.051-0.067,0.11-0.128,0.177-0.18
	c0.267-0.016,1.134,0.075,1.552,0.09v-0.09c0.104-0.178,0.165-0.378,0.177-0.585c0.061,0.005,0.121,0.021,0.177,0.045
	c-0.112,0.194-0.188,0.408-0.222,0.63l0.576-0.045c-0.089-0.475-0.104-0.96-0.045-1.439v0.27c0.062,0.005,0.121,0.02,0.178,0.045
	v-0.09c-0.057-0.189-0.072-0.389-0.044-0.585h-0.218c-0.017-0.122-0.001-0.246,0.045-0.36v0.315h0.177v-0.09
	c-0.057-0.189-0.072-0.389-0.044-0.585c-0.057-0.024-0.116-0.039-0.178-0.045c-0.004,0.034-0.02,0.065-0.044,0.09v-0.4h0.044v0.27
	h0.134c0.048-0.263,0.001-0.534-0.134-0.765c0.113-0.065,0.051,0.01,0.09-0.135h-0.134c0.015,0.107,0,0.216-0.044,0.315V4h0.178
	l-0.267-4h0.044v0.09c0.083,0.415,0.113,0.837,0.089,1.259c0.174,1.041,0.249,2.096,0.226,3.151h0.044
	c0.021-0.05,0.052-0.095,0.089-0.135v0.223c-0.049,0.128-0.079,0.263-0.089,0.4h0.044c0-0.097,0.031-0.192,0.089-0.27
	c-0.088,0.551-0.088,1.113,0,1.664c0.084,0.377-0.254,0.517-0.044,0.855c-0.012-0.092,0.004-0.186,0.044-0.27L49.299,7.556z
	 M46.861,7.646c0.2,0.075,0.421,0.075,0.62,0H46.861z M50.894,7.646c0.2,0.075,0.42,0.075,0.62,0H50.894z M48.102,7.736
	c0.044,0.09,0.125,0.156,0.223,0.18c0.005-0.062,0.02-0.123,0.044-0.18H48.102z M48.678,7.736v0.4h0.044
	c0.074-0.12,0.219-0.175,0.354-0.135v0.045h-0.043c-0.086,0.038-0.176,0.068-0.267,0.09v0.045H48.9
	c0.121-0.039,0.207-0.145,0.223-0.27c-0.033-0.054-0.049-0.117-0.044-0.18h-0.4V7.736z M49.52,7.736l-0.044,0.135h0.044V7.826
	C49.575,7.756,49.549,7.8,49.52,7.736z M50.008,7.736v0.45h0.044c0.119-0.139,0.223-0.29,0.31-0.45H50.008z M48.59,7.781h-0.133
	v0.09c-0.037,0.069-0.052,0.147-0.044,0.225l0.177,0.135V7.781z M49.299,7.781c-0.005,0.063,0.01,0.126,0.044,0.18
	C49.348,7.898,49.332,7.835,49.299,7.781z M49.831,7.781v0.585h0.044c0.021-0.037,0.053-0.067,0.089-0.09V7.781H49.831z
	 M49.609,7.826c-0.056,0.076-0.121,0.1-0.177,0.18h0.044c0.067-0.037,0.146-0.053,0.223-0.045v-0.09L49.609,7.826z M48.102,7.871
	c0,0.006,0.133,0.135,0.133,0.135C48.213,7.943,48.164,7.894,48.102,7.871z M49.432,8.096c-0.01,0.033-0.1,0.174-0.044,0.09
	l0.266-0.045V8.1h-0.222V8.096z M49.343,8.276V8.5h0.044c0.004-0.034,0.02-0.065,0.044-0.09v0.18h0.266
	c0.039-0.162,0.055-0.329,0.045-0.495h-0.043C49.637,8.265,49.569,8.275,49.343,8.276z M48.855,8.276
	c-0.056,0.032-0.102,0.079-0.133,0.135h0.047v0.045l0.177-0.135C48.921,8.296,48.89,8.281,48.855,8.276z M49.077,8.321
	c-0.034,0.118-0.054,0.107-0.09,0.225h0.09V8.5C49.123,8.449,49.122,8.372,49.077,8.321z M48.9,8.411l-0.044,0.135H48.9
	C48.902,8.415,48.943,8.483,48.9,8.411z M48.989,8.636c0.034,0.071,0.1,0.122,0.178,0.135v-0.09h-0.045V8.636H48.989L48.989,8.636z
	 M49.432,8.636c0.037,0.146-0.021,0.069,0.089,0.135c0.022-0.037,0.053-0.067,0.089-0.09V8.636H49.432z M49.476,10.21
	c-0.005,0.063,0.011,0.126,0.044,0.18C49.526,10.327,49.51,10.264,49.476,10.21z M49.254,11.244c0,0.154-0.03,0.307-0.089,0.45
	h0.177v-0.045C49.293,11.566,49.306,11.327,49.254,11.244z M49.032,11.784H48.59v0.09c0.146,0.07,0.28,0.161,0.4,0.27v-0.225
	C49.018,11.879,49.033,11.833,49.032,11.784L49.032,11.784z M49.387,12.369l-0.044-0.54c-0.034-0.004-0.065-0.021-0.089-0.045
	h-0.085v0.09c-0.063,0.109-0.095,0.234-0.089,0.36C49.172,12.299,49.277,12.345,49.387,12.369z M49.697,11.784
	c-0.08,0.196-0.046,0.421,0.09,0.585c0.243-0.151,0.454-0.351,0.62-0.585h-0.708H49.697z M49.475,14.213l-0.089-1.124h-0.132
	c-0.031-0.214,0-0.433,0.089-0.63l-0.31-0.18c-0.038,0.677-0.324,1.2-0.355,1.889C48.941,14.22,49.209,14.235,49.475,14.213
	L49.475,14.213z M44.91,13.224c0.062-0.005,0.124,0.011,0.177,0.045C45.025,13.273,44.963,13.257,44.91,13.224L44.91,13.224z
	 M44.157,13.494c0.048,0,0.095,0.015,0.133,0.045C44.241,13.539,44.195,13.523,44.157,13.494L44.157,13.494z M43.714,13.674
	c0.048,0,0.095,0.016,0.133,0.045h-0.088c-0.076,0.04-0.057,0.04-0.133,0C43.659,13.714,43.691,13.698,43.714,13.674L43.714,13.674z
	 M43.537,13.764h0.089v0.045C43.592,13.804,43.561,13.788,43.537,13.764L43.537,13.764z M43.404,13.809
	c0.049,0,0.096,0.015,0.134,0.045h-0.044c-0.088,0.084-0.194,0.146-0.311,0.18v-0.046h-0.045v-0.045
	C43.239,13.926,43.331,13.879,43.404,13.809L43.404,13.809z M27.537,13.989h0.089v0.045h-0.089v-0.046V13.989z M43.049,13.989h0.089
	v0.045c-0.034-0.005-0.065-0.021-0.089-0.046V13.989z M27.315,14.034c0.049-0.001,0.096,0.015,0.134,0.045
	C27.4,14.079,27.353,14.063,27.315,14.034L27.315,14.034z M42.96,14.034h0.089v0.045C43.015,14.074,42.985,14.058,42.96,14.034
	L42.96,14.034z M27.093,14.079c0.048,0,0.095,0.015,0.133,0.045C27.178,14.124,27.131,14.108,27.093,14.079L27.093,14.079z
	 M27.493,14.079c0.048,0,0.095,0.015,0.133,0.045C27.577,14.124,27.531,14.108,27.493,14.079L27.493,14.079z M27.271,14.124
	c0.049,0,0.096,0.016,0.133,0.045c-0.049,0.001-0.097-0.016-0.135-0.046L27.271,14.124z M42.828,14.124h0.089v0.045
	C42.883,14.164,42.852,14.148,42.828,14.124L42.828,14.124z M27.094,14.169h0.089v0.045C27.149,14.209,27.117,14.193,27.094,14.169
	L27.094,14.169z M42.739,14.169h0.09v0.045C42.794,14.209,42.763,14.193,42.739,14.169L42.739,14.169z M48.589,15.428h0.931
	c-0.015-0.375-0.029-0.749-0.044-1.124c-0.298-0.029-0.6,0.002-0.886,0.09l-0.665,3.058h0.576v-0.046
	c-0.045-0.269-0.045-0.542,0-0.811C48.624,16.219,48.656,15.818,48.589,15.428L48.589,15.428z M25.277,14.348
	c0.112,0.021,0.219,0.067,0.311,0.135h-0.045c-0.024,0.024-0.056,0.04-0.089,0.045c-0.022-0.037-0.053-0.067-0.09-0.09
	c0.008,0.176,0.101,0.117-0.089,0.18C25.305,14.531,25.306,14.436,25.277,14.348z M25.543,14.528c0.313,0.122,0.589,0.323,0.8,0.585
	h-0.091C26.063,14.871,25.718,14.782,25.543,14.528L25.543,14.528z M25.366,14.708l0.177,1.035h-0.045v0.045
	c-0.565,0.156-1.145,0.261-1.729,0.312c-0.142-0.311-0.217-0.647-0.222-0.989h0.044v-0.043c0.614-0.068,1.138-0.32,1.778-0.36
	H25.366z M53.819,14.753V14.8h-0.044c-0.085,0.035,0.089,0.045,0.089,0.045C53.86,14.81,53.844,14.778,53.819,14.753z
	 M49.919,15.068v0.765h0.089c-0.032-0.226-0.018-0.456,0.044-0.675c-0.056,0.228-0.024,0.469,0.089,0.675v-0.765H49.919z
	 M26.34,15.113c0.107,0.026,0.202,0.09,0.266,0.18h0.044v0.045h-0.088C26.493,15.246,26.407,15.209,26.34,15.113L26.34,15.113z
	 M50.185,15.158c-0.032,0.226-0.018,0.455,0.044,0.675C50.262,15.607,50.246,15.377,50.185,15.158L50.185,15.158z M51.692,15.518
	v0.315h0.223c-0.003-0.106-0.018-0.212-0.044-0.315c0.13,0.019,0.056,0.074,0.133-0.044h-0.134
	C51.816,15.506,51.754,15.521,51.692,15.518L51.692,15.518z M48.634,15.518v0.36h0.354v-0.36H48.634z M49.034,15.518v0.36h0.534
	v-0.36H49.034L49.034,15.518z M50.275,15.518v0.315h0.178v-0.315h-0.184H50.275z M50.497,15.518v0.315h1.151v-0.315h-1.153H50.497z
	 M52.048,15.518c0.05,0.048,0.127,0.048,0.177,0H52.048L52.048,15.518z M51.959,15.607c-0.009,0.078,0.007,0.156,0.044,0.226
	C52.012,15.755,51.996,15.676,51.959,15.607L51.959,15.607z M52.048,15.607v0.4h0.044v-0.09c0.101-0.071,0.152-0.193,0.133-0.314
	h-0.178L52.048,15.607z M49.921,15.878c0.024,0.024,0.055,0.04,0.089,0.045c-0.024-0.024-0.057-0.041-0.091-0.046L49.921,15.878z
	 M50.276,15.878c0.05,0.048,0.128,0.048,0.178,0h-0.185H50.276z M50.498,15.878c0.377,0.103,0.774,0.103,1.151,0h-1.154H50.498z
	 M51.698,15.878c0.064,0.053,0.157,0.053,0.222,0h-0.229H51.698z M51.964,15.878c-0.012,0.093,0.003,0.187,0.044,0.271
	c0.01-0.094-0.007-0.188-0.05-0.271L51.964,15.878z M48.64,15.923v0.36h0.355v-0.36h-0.361H48.64z M49.04,15.923v0.36h0.528v-0.36
	h-0.535H49.04z M50.458,16.283v-0.316c-0.116,0.036-0.239,0.036-0.355,0c0.015,0.128,0.047,0.094,0,0.18
	c-0.02-0.088-0.089-0.158-0.177-0.18V16.1c0.042-0.021,0.091-0.021,0.133,0v0.09c-0.062,0.01,0.019-0.037-0.044-0.045
	c-0.034-0.086-0.044,0.09-0.044,0.09h0.044c0.038,0.029,0.085,0.045,0.133,0.046c0.042-0.08,0.104-0.022,0.304,0.002L50.458,16.283z
	 M50.502,15.968v0.315h1.151v-0.316h-1.158L50.502,15.968z M51.702,15.968v0.315h0.222v-0.316h-0.232L51.702,15.968z M52.234,16.283
	v-0.227H52.18v0.09c-0.036,0.041-0.066,0.086-0.089,0.136h0.133L52.234,16.283z M50.229,16.1c0.024,0.025,0.039,0.057,0.044,0.09
	h-0.044V16.1z M55.548,16.5v0.45h0.177V16.5H55.548z M56.523,16.5c-0.009,0.078,0.007,0.156,0.044,0.225
	c0.008-0.075-0.008-0.15-0.044-0.218V16.5z M27.36,19.115l-0.49-2.248h-0.086v2.199C26.972,19.111,27.166,19.127,27.36,19.115z
	 M47.26,17.451c0.171,0.07,0.361,0.07,0.532,0H47.26z M48.501,17.811V17.5h-0.532v0.045c0.038,0.085,0.021,0.033,0,0.135
	c0.062,0.01-0.018-0.037,0.044-0.045c0.034-0.087,0.044,0.09,0.044,0.09h-0.044v0.045h0.044
	C48.084,17.764,48.309,17.809,48.501,17.811z M47.26,17.541v0.314h0.443c0.029-0.086,0.044-0.178,0.044-0.27h0.044v-0.045H47.26z
	 M47.836,17.811c-0.015,0.107,0.001,0.217,0.044,0.315C47.895,18.02,47.879,17.91,47.836,17.811z M47.26,17.9v0.226h0.4l0.044-0.226
	H47.26z M47.969,18.126h0.177v-0.09c-0.023-0.024-0.039-0.056-0.044-0.091c0.048,0.004,0.094,0.02,0.133,0.046
	c0.084,0.108,0.221,0.16,0.355,0.135v-0.135c-0.116-0.017-0.058,0.032-0.089-0.091c-0.177,0.018-0.355,0.018-0.532,0V18.126z
	 M57.72,18.126c0.062,0.005,0.121,0.021,0.177,0.045v0.09h-0.044C57.797,18.229,57.751,18.183,57.72,18.126z M57.32,18.171v0.271
	h0.178v-0.271H57.32L57.32,18.171z M57.542,18.171c-0.012,0.093,0.003,0.187,0.044,0.271C57.598,18.349,57.582,18.255,57.542,18.171
	z M47.26,18.352v1.168h0.089v-0.09c0.123-0.35,0.212-0.711,0.267-1.078H47.26z M47.747,18.352l-0.266,1.168h1.02v-0.09
	c-0.256-0.329-0.464-0.692-0.62-1.078H47.747z M48.947,18.352c-0.419,0-0.509,0.013-0.8,0v0.09c0.287,0.248,0.367,1.013,0.8,1.078
	v-0.09c-0.022-0.072-0.037-0.148-0.044-0.225c-0.089,0-0.012,0.046-0.089,0c-0.048-0.049-0.079-0.112-0.089-0.18
	c0.089,0,0.012,0.045,0.089,0c0.024,0.024,0.039,0.056,0.044,0.09c-0.011,0.044-0.034,0.017,0,0.045c0.078-0.042,0-0.01,0.089,0
	V18.35V18.352z M48.369,18.4c0.023,0.024,0.039,0.056,0.044,0.09h-0.044V18.4z M48.458,18.4c0.023,0.024,0.039,0.056,0.044,0.09
	h-0.045L48.458,18.4L48.458,18.4z M48.414,18.49c0.116,0.053,0.08-0.04,0.133,0.09h-0.046v0.045h0.044v-0.049h0.044v0.045
	c0.023,0.024,0.039,0.057,0.044,0.09c-0.048-0.004-0.094-0.019-0.133-0.045c-0.048-0.049-0.079-0.112-0.088-0.18L48.414,18.49z
	 M57.544,18.49c-0.015,0.107,0.001,0.216,0.044,0.314c0.015-0.108-0.001-0.219-0.046-0.318L57.544,18.49z M57.367,18.535V18.8H57.5
	v-0.27h-0.131L57.367,18.535z M49.256,18.58v0.22h0.043c0.172-0.055,0.354-0.07,0.532-0.045v-0.18h-0.577L49.256,18.58z
	 M48.547,18.715c0.023,0.025,0.039,0.057,0.044,0.09h-0.046v-0.09H48.547z M48.636,18.715c0.023,0.025,0.039,0.057,0.044,0.09
	h-0.046v-0.09H48.636z M59.184,18.715c0.076,0.04,0.058,0.04,0.133,0h-0.135H59.184z M48.591,18.805
	c0.123,0.051,0.114-0.035,0.177,0.135c-0.047-0.003-0.093-0.019-0.133-0.045c-0.025-0.025-0.041-0.059-0.045-0.095L48.591,18.805z
	 M61.669,18.846c0.024,0.024,0.055,0.04,0.089,0.045C61.734,18.867,61.702,18.852,61.669,18.846z M48.683,18.936
	c0.023,0.025,0.039,0.057,0.044,0.09h-0.049v-0.09H48.683z M48.772,18.936c0.024,0.025,0.039,0.057,0.044,0.09h-0.047v-0.09H48.772z
	 M57.326,18.98v0.496h0.222V18.98h-0.228H57.326z M57.592,18.98c-0.019,0.135-0.003,0.273,0.044,0.4c0.017-0.135,0-0.272-0.049-0.4
	H57.592z M57.681,18.98v0.136c0.077-0.009,0.154,0.007,0.222,0.045h-0.228v0.225c0.048-0.001,0.095,0.016,0.133,0.046
	c-0.048-0.001-0.095,0.015-0.133,0.045c0.633,0,1.03,0.148,1.019-0.496h-1.019H57.681z M61.493,18.98
	c0.067,0.078,0.163,0.127,0.266,0.136V19.07L61.493,18.98z M25.637,19.116l0.044,0.135h0.088v-0.046
	c-0.038-0.04-0.086-0.07-0.138-0.09L25.637,19.116z M26.837,21.77h0.975c-0.005-0.883-0.318-1.634-0.399-2.563l-0.576-0.045
	c-0.027,0.072-0.042,0.147-0.044,0.225c0.056,0.089-0.018,0.289,0.044,0.4l0.133,0.045V20.6c-0.04,0.036-0.085,0.066-0.133,0.09
	L26.837,21.77L26.837,21.77z M60.869,19.385h0.31V19.34c-0.077-0.057-0.17-0.088-0.266-0.09c-0.011-0.019-0.026-0.034-0.044-0.045
	V19.385z M48.855,19.25c0.024,0.024,0.039,0.057,0.044,0.09h-0.044V19.25z M37.509,19.43v0.09h0.089v-0.09H37.509z M38.484,19.43
	v0.09h0.085v-0.09H38.484z M60.869,19.655h0.177v-0.181l-0.177-0.045V19.655z M42.653,19.475h-0.712v0.045h0.089
	c0.188,0.195,0.415,0.349,0.665,0.45v-0.314c-0.033-0.054-0.049-0.117-0.045-0.181H42.653z M61.091,19.475
	c-0.005,0.063,0.01,0.127,0.044,0.181c0.004-0.063-0.013-0.127-0.047-0.181H61.091z M61.711,19.475c0.076,0.041,0.057,0.041,0.133,0
	h-0.135H61.711z M26.165,19.52c0.028,0.04,0.044,0.087,0.044,0.136h-0.046V19.52H26.165z M59.628,19.52v0.271l0.532,0.045
	c-0.011-0.104-0.011-0.21,0-0.315h-0.534H59.628z M60.204,19.52v0.136h0.484V19.52h-0.486H60.204z M24.437,19.564
	c0.024,0.025,0.039,0.057,0.044,0.091h-0.047v-0.091H24.437z M47.263,19.564v0.091h0.044v-0.046h0.042
	c-0.024-0.023-0.055-0.039-0.089-0.045H47.263z M47.663,19.655v0.225h1.063v-0.045c-0.042-0.046-0.087-0.237-0.133-0.271h-1.112
	v0.091h0.178H47.663z M48.815,19.564c0.027,0.051,0.077,0.084,0.134,0.091v-0.091h-0.138H48.815z M57.325,19.564v0.271
	c0.076,0.001,0.151,0.017,0.222,0.045v-0.315h-0.227H57.325z M57.591,19.564v0.091h0.044v-0.091h-0.048H57.591z M57.857,19.564
	h-0.182v0.091c0.061,0.005,0.121,0.021,0.177,0.045v-0.136H57.857z M61.89,19.564c-0.144,0.037-0.068-0.021-0.133,0.091h0.044
	c0.039,0.036,0.084,0.067,0.133,0.09c-0.024-0.058-0.041-0.118-0.048-0.181H61.89z M41.808,20.825l0.311-0.045v-0.45h0.619v-0.045
	c-0.233-0.285-0.539-0.503-0.886-0.63C41.783,20.041,41.769,20.435,41.808,20.825z M36.889,19.7c0.024,0.024,0.056,0.04,0.089,0.045
	C36.954,19.721,36.923,19.705,36.889,19.7z M37.022,19.7c0.076,0.04,0.058,0.04,0.133,0H37.022z M37.244,19.7
	c0.075,0.04,0.057,0.04,0.133,0H37.244L37.244,19.7z M39.504,19.7c0.076,0.04,0.057,0.04,0.133,0H39.504z M46.241,19.7
	c-0.006,0.063,0.01,0.126,0.044,0.18C46.289,19.816,46.275,19.754,46.241,19.7z M57.587,19.7c-0.005,0.063,0.011,0.126,0.044,0.18
	C57.636,19.816,57.62,19.754,57.587,19.7z M57.676,19.88h0.177v-0.135c-0.061-0.005-0.121-0.021-0.177-0.045V19.88z M60.202,19.7
	v0.18c0.281-0.025,0.564-0.01,0.842,0.045v-0.18c-0.115,0.042-0.234,0.072-0.355,0.09v-0.09L60.202,19.7z M61.088,19.745
	c-0.005,0.063,0.01,0.126,0.044,0.18C61.137,19.861,61.121,19.799,61.088,19.745z M62.462,19.835l-0.044,0.181h0.044V19.97
	C62.501,19.893,62.502,19.913,62.462,19.835z M62.551,19.835c0.019,0.017,0.107,0.162,0.133,0.045
	C62.642,19.858,62.597,19.843,62.551,19.835z M58.828,19.88c-0.012,0.093,0.003,0.187,0.044,0.271
	C58.884,20.058,58.868,19.964,58.828,19.88z M47.659,19.925v0.4c0.578,0,0.863,0,1.284,0L48.9,20.1
	C48.511,19.928,48.081,19.867,47.659,19.925z M57.321,20.15h0.134c0.017-0.118-0.033-0.06,0.089-0.09v-0.136h-0.174
	c-0.011,0.019-0.026,0.034-0.044,0.045v0.181H57.321z M57.587,19.925c-0.001,0.049,0.015,0.097,0.044,0.136v-0.136H57.587z
	 M57.676,19.925v0.136h0.177v-0.136H57.676L57.676,19.925z M61.842,19.925c0.024,0.024,0.056,0.04,0.089,0.045
	C61.906,19.945,61.875,19.93,61.842,19.925z M62.197,19.925c0.013,0.116-0.021,0.08,0.178,0.091v-0.091H62.197L62.197,19.925z
	 M57.369,19.97c0.023,0.024,0.039,0.057,0.044,0.091h-0.044V19.97z M48.682,20.016c0.05,0.027,0.083,0.078,0.089,0.135
	c-0.05,0.027-0.083,0.078-0.089,0.135h-0.048V20.24c-0.023-0.025-0.039-0.057-0.044-0.09c0.05-0.028,0.082-0.078,0.088-0.135H48.682
	z M79.703,20.061c0.005,0.145-0.042,0.287-0.134,0.399h-0.044v-0.09C79.6,20.275,79.659,20.172,79.703,20.061z M21.332,20.46v0.399
	h0.137V20.46H21.332z M21.554,20.46v0.36h0.4V20.51h-0.046v-0.045h-0.354V20.46z M22.529,20.82v-0.36h-0.399
	c-0.029,0.087-0.045,0.179-0.044,0.271c0.023,0.024,0.039,0.056,0.044,0.09H22.529z M79.482,20.46
	c0.024,0.024,0.039,0.056,0.044,0.09h-0.044V20.46z M63.393,20.55v0.091h0.044V20.6h0.044c-0.023-0.023-0.055-0.039-0.088-0.045
	V20.55z M36.357,20.641c-0.008,0.106,0.007,0.214,0.044,0.314V20.87c0.034-0.07,0.049-0.147,0.044-0.226h-0.088V20.641z
	 M42.385,20.641v0.09h0.266v-0.09H42.385z M78.685,20.686h0.084v0.045c-0.031-0.004-0.062-0.019-0.085-0.041L78.685,20.686z
	 M77.178,20.775V21c0.105-0.015,0.213,0.001,0.31,0.045h-0.576v0.225h0.133v-0.131c0.298,0.027,0.594,0.072,0.886,0.135h-0.709
	v0.136c0.384,0.048,0.773,0.032,1.152-0.045c0.028-0.04,0.044-0.087,0.044-0.136c-0.135,0.02-0.272,0.004-0.4-0.045h0.222V21
	c-0.236,0.035-0.478,0.02-0.709-0.045h0.709v-0.221L77.178,20.775z M78.641,20.73c0.048,0.026,0.066,0.085,0.044,0.135
	c-0.116-0.082-0.006-0.065-0.046-0.131L78.641,20.73z M75.804,20.865c0.013,0.123,0.043,0.244,0.089,0.359h0.223l-0.045,0.09h0.045
	c0.219-0.038,0.441-0.053,0.664-0.045c0-0.178,0-0.146-0.089-0.225c0.04-0.07,0.07-0.146,0.089-0.225L75.804,20.865z M76.823,20.82
	c-0.004,0.063,0.012,0.127,0.047,0.18c0.003-0.063-0.014-0.123-0.048-0.175L76.823,20.82z M76.912,20.82V21h0.222
	c0.005-0.063-0.011-0.127-0.044-0.18c0.001,0.049-0.015,0.096-0.044,0.135v-0.13h-0.135L76.912,20.82z M73.233,20.865
	c0.078,0.086,0.198,0.121,0.311,0.09v-0.04L73.233,20.865z M75.449,20.91c-0.001,0.049,0.015,0.096,0.044,0.135
	c0.082,0.041,0.175,0.057,0.266,0.045v-0.22L75.449,20.91z M78.684,20.865c0.109,0.058,0.03-0.02,0.089,0.09h-0.045V21h-0.044v-0.13
	V20.865z M21.332,20.91v0.359h0.137V20.91H21.332z M21.554,20.91v0.359h0.4V20.91H21.554z M22.13,20.91v0.359h0.399V20.91H22.13z
	 M74.872,20.91c0.05,0.1,0.109,0.166,0.177,0h-0.044c-0.074,0.117-0.007,0.049-0.136,0.005L74.872,20.91z M75.227,20.91v0.18h0.042
	c0.023-0.037,0.054-0.067,0.091-0.09c0,0.049,0.015,0.096,0.044,0.135v-0.22c-0.058,0.015-0.118,0.015-0.177,0V20.91z
	 M30.817,20.955v0.09h0.044V20.96h-0.044V20.955z M78.773,20.955c0.024,0.024,0.039,0.057,0.044,0.09h-0.048V20.96L78.773,20.955z
	 M71.504,21c0.076,0.04,0.057,0.04,0.133,0H71.504z M73.543,21.225V21h-0.223c-0.037,0.072-0.066,0.146-0.089,0.225H73.543
	L73.543,21.225z M73.587,21v0.18h0.354V21H73.587z M73.987,21v0.18c0.212,0.023,0.425-0.008,0.621-0.09h-0.399L74.252,21h-0.045
	C74.134,21.018,74.059,21.018,73.987,21L73.987,21z M75.893,21.045c0.268-0.04,0.539-0.025,0.8,0.045
	c-0.267,0.042-0.54,0.028-0.802-0.04L75.893,21.045z M76.824,21.045c-0.009,0.078,0.006,0.156,0.044,0.225
	c0.007-0.076-0.01-0.152-0.047-0.22L76.824,21.045z M78.597,21.045c0.023,0.024,0.039,0.057,0.044,0.09h-0.046V21.05L78.597,21.045z
	 M30.819,21.09l-0.044,0.135h0.089c-0.001-0.047-0.018-0.092-0.047-0.13L30.819,21.09z M70.569,21.184
	c0,0.049,0.016,0.097,0.044,0.135c0.128,0.049,0.266,0.064,0.4,0.046v-0.226L70.569,21.184z M71.056,21.139v0.18h0.576v-0.18
	c-0.155,0.02-0.06,0.012-0.133,0.09c-0.074,0.078-0.041-0.084-0.044-0.09c-0.086-0.027-0.18,0.01-0.223,0.09
	c-0.069-0.088-0.006-0.078-0.173-0.09H71.056z M79.034,21.139c-0.001,0.049,0.015,0.097,0.044,0.135
	c0.002-0.048-0.013-0.096-0.04-0.135H79.034z M69.461,21.229c0.001,0.049-0.015,0.097-0.044,0.136v-0.136h-0.349v0.226h0.09
	c0.271-0.091,0.558-0.122,0.842-0.09c0.023-0.058,0.038-0.118,0.044-0.181h-0.092c-0.155,0.053-0.321,0.068-0.483,0.045H69.461z
	 M70.17,21.184c-0.001,0.049,0.015,0.097,0.044,0.135v-0.135h-0.04H70.17z M70.347,21.184c0.037,0.146-0.021,0.069,0.089,0.135
	v-0.135h-0.085H70.347z M70.48,21.184c0,0.049,0.015,0.097,0.044,0.135c0.002-0.047-0.012-0.095-0.04-0.135H70.48z M74.292,21.409
	h0.31c0.022-0.063,0.052-0.124,0.089-0.181c0,0.226-0.039,0.26,0.134,0.315c0.048-0.04,0.093-0.086,0.133-0.135
	c-0.077,0.009-0.155-0.007-0.223-0.045c0.024-0.024,0.039-0.057,0.044-0.091c0.046,0.052,0.109,0.084,0.178,0.091v-0.181h-0.04
	v0.045c-0.219-0.053-0.447-0.053-0.665,0v0.045c0.028,0.039,0.044,0.087,0.045,0.136H74.292z M73.583,21.229v0.136h0.222
	l-0.044,0.09h0.177v-0.226h-0.351H73.583z M73.983,21.409h0.223v-0.091c-0.169,0.02-0.063-0.012-0.223-0.09V21.409z M75.313,21.229
	c0.013,0.09,0.013,0.181,0,0.271h0.089v-0.181c-0.032-0.032-0.048-0.055-0.087-0.09H75.313z M67.601,21.318V21.5h0.269
	c0.01-0.019,0.025-0.034,0.044-0.045c0.005-0.063,0.02-0.123,0.044-0.18h-0.043c-0.098,0.043-0.205,0.058-0.312,0.043H67.601z
	 M68.31,21.273c-0.103,0.021-0.208,0.021-0.31,0v0.045c0.016,0.134,0.016,0.268,0,0.4c0.024,0.008,0.132-0.029,0.089,0.045
	c-0.032,0.055-0.055-0.019-0.089,0.09h0.044c0.217-0.168,0.307-0.041,0.31-0.399c-0.031-0.055-0.046-0.117-0.041-0.181H68.31z
	 M68.443,21.273l-0.044,0.4h0.089c0.084-0.055,0.173-0.1,0.267-0.135c-0.069-0.148-0.02-0.018,0-0.27h-0.311L68.443,21.273z
	 M68.798,21.273v0.181h0.222v-0.181H68.8H68.798z M73.275,21.273c0.037,0.146-0.021,0.069,0.089,0.136
	c0.024-0.024,0.056-0.04,0.09-0.045c0.006,0.169-0.021,0.157,0.089,0.225v-0.315h-0.266H73.275z M21.242,21.814h0.177v-0.09
	c0.038-0.068,0.056-0.146,0.05-0.225h-0.048v-0.046h-0.133c0-0.049-0.016-0.097-0.044-0.136v0.496H21.242z M67.203,21.318V21.5
	h0.355v-0.18h-0.354L67.203,21.318z M77.087,21.454v-0.136c-0.284,0-0.323,0-0.621,0v0.046h0.089
	C76.709,21.475,76.906,21.508,77.087,21.454L77.087,21.454z M77.131,21.318v0.091h0.044v-0.091H77.131L77.131,21.318z
	 M30.815,21.364c-0.049,0.142-0.174,0.3,0,0.399v0.045h0.044v-0.449h-0.042L30.815,21.364z M71.059,21.589h0.177
	c0.011-0.019,0.026-0.034,0.044-0.045c-0.015-0.06-0.015-0.121,0-0.18h-0.131c-0.023,0.024-0.055,0.04-0.089,0.045L71.059,21.589
	L71.059,21.589z M71.325,21.364c0.079,0.056,0.186,0.056,0.266,0H71.325L71.325,21.364z M75.536,21.364l0.089,0.18h0.044V21.5
	c0.036-0.04,0.066-0.086,0.089-0.135L75.536,21.364L75.536,21.364z M63.969,21.454v0.18h0.089c0.067-0.037,0.146-0.053,0.222-0.045
	v-0.18h-0.045C64.136,21.505,64.169,21.463,63.969,21.454z M64.324,21.409v0.18h0.222v-0.18H64.324z M64.59,21.409
	c-0.005,0.063,0.01,0.126,0.044,0.18C64.639,21.525,64.623,21.463,64.59,21.409z M64.679,21.409v0.18h0.709
	c0.001-0.048-0.015-0.097-0.044-0.135C65.128,21.392,64.901,21.377,64.679,21.409L64.679,21.409z M70.529,21.409
	c-0.009,0.077,0.007,0.156,0.044,0.225C70.581,21.557,70.567,21.478,70.529,21.409z M70.618,21.409v0.225h0.044
	c0.112-0.046,0.234-0.062,0.354-0.045v-0.18H70.618L70.618,21.409z M21.554,21.634h0.753v0.181h0.089v-0.36h-0.8V21.5h-0.042V21.634
	L21.554,21.634z M73.986,21.454v0.09h0.223v-0.09H73.986z M74.296,21.454v0.09h0.31v-0.09H74.296z M75.896,21.454
	c0.05,0.048,0.128,0.048,0.177,0h-0.182H75.896z M68.805,21.499c0.024,0.024,0.056,0.04,0.089,0.045
	c-0.025-0.024-0.059-0.04-0.094-0.044L68.805,21.499z M73.769,21.499v0.09c0.159-0.019,0.111,0.021,0.177-0.09H73.769L73.769,21.499
	z M28.029,21.544l0.04,0.226h0.134c0.263-0.121,0.559-0.153,0.842-0.09v-0.136h-1.021H28.029z M29.758,21.544v0.226H30.6v-0.226
	h-0.847H29.758z M33.88,21.544V21.9h0.089c0.292,0.086,0.604,0.07,0.886-0.045c-0.252,0.009-0.3,0.052-0.354-0.09h0.532v-0.222
	h-1.157H33.88z M67.559,21.77v-0.226h-0.09c-0.202,0.045-0.396,0.121-0.576,0.226H67.559z M67.603,21.544
	c0.011,0.263,0.075,0.183,0,0.315h0.177c0.058-0.022,0.12-0.022,0.178,0v-0.09c-0.063,0.004-0.125-0.012-0.178-0.045h0.178v-0.181
	h-0.088C67.781,21.554,67.692,21.554,67.603,21.544z M68.135,21.544c0.109,0.058,0.03-0.019,0.089,0.09H68.18v0.046h-0.045V21.544z
	 M73.235,21.544v0.09h0.044v-0.09h-0.047H73.235z M27.894,21.634c0,0.049,0.015,0.097,0.044,0.136c0-0.049-0.017-0.098-0.047-0.136
	H27.894z M64.681,21.859l0.709-0.045v-0.181c-0.237-0.009-0.475,0.007-0.709,0.046V21.859z M70.753,21.634
	c-0.034,0.031-0.101,0.06-0.133,0.091c0.123,0.045,0.262,0.009,0.349-0.091H70.75H70.753z M71.108,21.634v0.091h0.178V21.68h-0.048
	v-0.046h-0.133H71.108z M63.969,21.68v0.18h0.222c0-0.049,0.016-0.097,0.044-0.135c0,0.048,0.016,0.096,0.044,0.135v-0.18H63.969z
	 M64.324,21.68v0.18h0.222v-0.18H64.324z M64.59,21.68c-0.005,0.063,0.01,0.125,0.044,0.18C64.639,21.796,64.623,21.732,64.59,21.68
	z M65.432,21.68v0.135c0.159-0.02,0.112,0.021,0.177-0.09h0.044V21.68H65.432z M66.54,21.68v0.09h0.31v-0.09H66.54z M67.692,21.68
	c0.024,0.023,0.039,0.056,0.044,0.09h-0.044V21.68z M15.747,21.725c-0.006,0.063,0.01,0.126,0.044,0.18
	C15.796,21.841,15.781,21.777,15.747,21.725z M15.836,21.725v0.27h0.044c0.023-0.024,0.055-0.04,0.089-0.045v-0.225H15.836z
	 M16.013,21.725v0.225h0.089v-0.225H16.013z M16.146,21.725v0.225h0.089C16.255,21.863,16.22,21.773,16.146,21.725z M16.946,22.039
	v-0.225h-0.091c-0.001,0.076-0.016,0.152-0.044,0.225h0.133H16.946z M16.99,22.039h0.133v-0.18h-0.09v-0.045h-0.046v0.225H16.99z
	 M47.128,22.084v-0.27h-0.045V21.9c-0.048,0.049-0.079,0.111-0.089,0.18h0.133L47.128,22.084z M66.895,21.814V21.9
	c0.226,0.019,0.453-0.012,0.665-0.09h-0.666L66.895,21.814z M17.169,21.859v0.18h0.31v-0.045h0.044v-0.135H17.169z M19.385,21.859
	v0.18h0.62v-0.18H19.385z M20.05,21.859v0.18h0.266v-0.18h-0.269H20.05z M20.36,21.859v0.18h0.801v-0.18H20.36z M21.291,21.859v0.18
	h0.178v-0.18h-0.181H21.291z M26.831,21.859v0.09c0.159-0.02,0.11,0.021,0.177-0.09h-0.18H26.831z M27.053,21.859v0.09
	c0.063-0.022,0.122-0.053,0.177-0.09h-0.181H27.053z M27.275,21.859v0.09c0.177-0.021,0.355-0.021,0.532,0v-0.09h-0.538H27.275z
	 M27.895,21.859c0.074,0.05,0.047,0.08,0.089,0h-0.093H27.895z M28.117,21.859v0.09c0.066-0.049,0.052-0.02-0.005-0.09H28.117z
	 M29.757,21.859v0.09c0.24,0.032,0.484,0.002,0.709-0.09h-0.713H29.757z M30.511,21.859v0.09H30.6v-0.09h-0.094H30.511z
	 M30.733,21.859c0.027,0.178,0.042,0.359,0.044,0.539h0.09v-0.18c-0.034-0.117-0.034-0.242,0-0.359h-0.139H30.733z M34.899,21.859
	v0.09h0.04c-0.004-0.034-0.021-0.066-0.045-0.09H34.899z M34.988,21.859v0.09h0.045c-0.006-0.035-0.023-0.066-0.05-0.09H34.988z
	 M35.121,21.859c0.037,0.146-0.022,0.068,0.089,0.135v-0.135h-0.094H35.121z M35.254,21.859c0.076,0.039,0.057,0.039,0.133,0h-0.138
	H35.254z M35.874,21.859c0.064,0.053,0.157,0.053,0.222,0h-0.227H35.874z M36.14,21.859c0.037,0.146-0.021,0.068,0.089,0.135v-0.135
	h-0.094H36.14z M66.589,21.859c0.08,0.056,0.186,0.056,0.266,0h-0.271H66.589z M64.063,21.904c-0.038,0.029-0.139,0.06-0.177,0.09
	c0.178,0.006,0.242,0.023,0.31-0.09h-0.138H64.063z M64.24,21.904v0.09h0.038V21.9h-0.044L64.24,21.904z M64.329,21.904v0.09h0.089
	c0.034-0.031,0.1-0.059,0.133-0.09h-0.227H64.329z M64.684,21.904c0.229,0.079,0.479,0.079,0.709,0h-0.715H64.684z M15.931,21.994
	v0.09h0.038v-0.09h-0.044H15.931z M16.02,21.994c0.037,0.146-0.021,0.068,0.089,0.135v-0.135h-0.096H16.02z M16.153,21.994
	c0,0.049,0.016,0.096,0.044,0.135v-0.09l0.045-0.045h-0.096H16.153z M41.017,21.994v0.09h0.222v-0.045h-0.051v-0.045h-0.177H41.017z
	 M41.283,22.039c0.023,0.023,0.055,0.04,0.089,0.045c-0.026-0.025-0.06-0.041-0.096-0.045H41.283z M16.951,22.084
	c-0.049,0-0.096,0.016-0.134,0.045c0.025,0.088,0.025,0.182,0,0.27h0.09v-0.045c0.037-0.084,0.05-0.178,0.036-0.27H16.951z
	 M16.988,22.4h0.134v-0.316c-0.145,0.037-0.068-0.021-0.134,0.09C17.005,22.248,17.005,22.326,16.988,22.4z M35.115,22.085v0.181
	h0.089v-0.181H35.115L35.115,22.085z M36.134,22.085v0.181h0.089v-0.181H36.134L36.134,22.085z M16.234,22.13
	c0,0.181,0.093,0.158,0.178,0H16.234L16.234,22.13z M16.544,22.13L16.5,22.4h0.089v-0.047c0.036-0.068,0.052-0.146,0.044-0.225
	L16.544,22.13L16.544,22.13z M17.164,22.13c0.084,0.243,0.077,0.192,0.487,0.181c0.102-0.033,0.21-0.033,0.311,0l0.044-0.136h-0.53
	c-0.096-0.043-0.202-0.059-0.307-0.046L17.164,22.13z M19.158,22.175v0.136H20V22.13c-0.281-0.003-0.562,0.011-0.84,0.044
	L19.158,22.175z M20.045,22.13v0.181h0.266V22.13h-0.264H20.045z M20.355,22.13v0.181h0.8V22.13H20.355z M21.286,22.13v0.181h0.183
	v-0.047c-0.038-0.084-0.021-0.033,0-0.135h-0.181L21.286,22.13z M23.768,22.13c-0.005,0.063,0.011,0.126,0.044,0.181
	C23.818,22.246,23.803,22.184,23.768,22.13L23.768,22.13z M18.051,22.175l0.044,0.136c0.023-0.025,0.039-0.057,0.044-0.091h0.044
	v-0.046L18.051,22.175L18.051,22.175z M40.876,22.175v0.271h0.093v-0.271h-0.091H40.876z M41.009,22.175v0.091h0.044v-0.091h-0.042
	H41.009z M41.496,22.175v0.271h0.044v-0.09c0.048-0.049,0.079-0.112,0.089-0.181h-0.131H41.496z M16.41,22.22
	c0,0.132-0.043,0.063,0,0.136V22.4h0.044c0.006-0.063-0.009-0.127-0.042-0.182L16.41,22.22z M16.543,22.22
	c0.023,0.024,0.039,0.057,0.044,0.091h-0.042V22.22H16.543z M16.853,22.22c0.028,0.04,0.044,0.087,0.044,0.136h-0.042v-0.137
	L16.853,22.22z M35.246,22.22c0.075,0.04,0.057,0.04,0.133,0h-0.13H35.246z M35.866,22.22c0.064,0.053,0.157,0.053,0.222,0h-0.219
	H35.866z M42.204,22.445v-0.137h-0.085c-0.095-0.055-0.201-0.086-0.311-0.09v0.045c0.155,0.143,0.021,0.178,0.398,0.18
	L42.204,22.445z M16.719,22.266c-0.001,0.048,0.015,0.096,0.044,0.135c0.002-0.049-0.012-0.097-0.04-0.137L16.719,22.266z
	 M17.029,22.266c0.024,0.023,0.04,0.056,0.045,0.09h-0.04v-0.09H17.029z M41.007,22.445h0.133v-0.18h-0.041
	c-0.024,0.023-0.055,0.039-0.089,0.045v0.135H41.007z M35.869,22.309v0.135h0.354v-0.135H35.869z M17.254,22.354
	c0.125,0.064,0.274,0.064,0.399,0H17.254z M17.786,22.354c0.049,0.048,0.127,0.048,0.177,0H17.786z M19.204,22.354
	c0.26,0.085,0.54,0.085,0.8,0H19.204z M20.046,22.354c0.08,0.057,0.186,0.057,0.266,0H20.046L20.046,22.354z M20.356,22.354
	c0.26,0.085,0.54,0.085,0.8,0H20.356z M21.287,22.354c0.049,0.048,0.127,0.048,0.177,0H21.287L21.287,22.354z M22.971,22.354
	c0.076,0.041,0.057,0.041,0.133,0h-0.135H22.971z M35.115,22.354v0.09h0.089v-0.09H35.115L35.115,22.354z M35.248,22.354v0.09h0.133
	v-0.09H35.248L35.248,22.354z M15.259,22.489c-0.018,0.567-0.1,1.132,0.222,1.169c0.069-0.121,0.101-0.261,0.089-0.4h-0.044V23.3
	c-0.033,0.086-0.044-0.09-0.044-0.09c0.104-0.192,0.135-0.416,0.089-0.63L15.259,22.489z M15.613,22.624v0.36h0.047v-0.045
	c0.036-0.041,0.066-0.086,0.089-0.135h0.044v0.09c-0.115,0.1-0.181,0.246-0.177,0.399h0.089l0.399-0.63H15.88
	c-0.005,0.057-0.039,0.107-0.089,0.135C15.796,22.619,15.869,22.633,15.613,22.624L15.613,22.624z M16.145,22.714l-0.354,0.585
	h0.089v-0.09C16.027,23.083,16.122,22.906,16.145,22.714L16.145,22.714z M16.369,22.8c-0.069,0.083-0.129,0.174-0.178,0.271h0.087
	v-0.09C16.338,22.925,16.424,22.848,16.369,22.8z M16.679,22.845h-0.134c-0.034,0.118-0.053,0.107-0.089,0.226h0.177v-0.09
	c0.028-0.039,0.044-0.084,0.045-0.131L16.679,22.845z M15.438,23.295c0.024,0.025,0.039,0.057,0.044,0.09h-0.045V23.3L15.438,23.295
	z M15.394,23.385c0.038,0.085,0.021,0.033,0,0.135h-0.045L15.394,23.385z M1.078,23.745c-0.093,0.228-0.124,0.476-0.09,0.72h0.045
	c-0.026-0.181-0.012-0.365,0.044-0.54c-0.019,0.136-0.004,0.272,0.044,0.4c0.026-0.193,0.012-0.39-0.044-0.577L1.078,23.745z
	 M1.167,23.745c-0.04,0.271-0.024,0.546,0.044,0.81c-0.028-0.195-0.014-0.395,0.044-0.585c-0.023,0.167-0.009,0.336,0.044,0.495
	c0.068-0.246,0.021-0.51-0.13-0.717L1.167,23.745z M1.344,23.745v0.72l0.575,0.049v-0.766H1.343L1.344,23.745z M1.964,23.745
	c-0.032,0.226-0.018,0.456,0.044,0.675c0.032-0.225,0.017-0.453-0.045-0.672L1.964,23.745z M2.053,23.745
	C2.051,24,2.066,24.256,2.097,24.51h0.221v-0.762H2.052L2.053,23.745z M2.363,23.745C2.325,24,2.341,24.261,2.407,24.51
	c0.036-0.254,0.021-0.514-0.046-0.762L2.363,23.745z M2.452,23.745v0.18c0.254-0.007,0.277-0.008,0.531,0v-0.18H2.452L2.452,23.745z
	 M3.028,23.745V24.2h0.041v-0.048c0.034-0.086,0.044,0.091,0.044,0.091c0.031,0.069,0.007,0.006,0,0.135H3.069
	c0.001-0.049-0.015-0.097-0.044-0.135v0.271H3.16v-0.226c0.058,0.015,0.118,0.015,0.177,0c-0.017,0.133-0.089,0.093,0.044,0.18
	v-0.585c-0.023-0.024-0.039-0.057-0.044-0.09c-0.101-0.032-0.205-0.047-0.311-0.045L3.028,23.745z M3.737,23.745
	c-0.104-0.004-0.21,0.012-0.31,0.045c0.034,0.224,0.034,0.451,0,0.675h0.088v-0.042c0.09-0.11-0.054-0.065,0.089-0.135
	c0.043,0.074,0.104,0.136,0.177,0.18v-0.225H3.692C3.631,24.182,3.769,24.2,3.781,24.2L3.737,23.745z M3.87,23.745l-0.044,0.45
	c0.391,0.012,0.37-0.024,0.354-0.45H3.87L3.87,23.745z M4.225,23.745v0.399c0.101,0.033,0.205,0.048,0.311,0.045
	c0.082-0.04,0.175-0.056,0.266-0.045v-0.399H4.225L4.225,23.745z M4.845,23.745V24.2c0.391,0.012,0.371-0.024,0.355-0.45H4.844
	L4.845,23.745z M5.245,23.745V24.2h0.31v-0.138c0.173,0,0.2,0.022,0.266-0.09H5.509v-0.045h0.31v-0.18H5.243L5.245,23.745z
	 M5.865,23.745v0.18h1.018v-0.18h-1.02H5.865z M7.372,23.745v0.18h0.62v-0.18H7.369H7.372z M8.037,23.745v0.18h0.399v-0.18H8.037z
	 M8.48,23.745v0.18h0.619v-0.18H8.48L8.48,23.745z M9.145,23.745v0.18h1.064v-0.18H9.145L9.145,23.745z M10.253,23.745v0.18h0.354
	v-0.18H10.253L10.253,23.745z M10.653,23.745v0.18h0.044v-0.042c0.037-0.04,0.067-0.086,0.09-0.135H10.65L10.653,23.745z
	 M11.628,23.925h0.131v-0.18h-0.178v0.045c0.029,0.04,0.045,0.089,0.045,0.138L11.628,23.925z M13.667,23.745v0.225h0.177v-0.222
	h-0.175L13.667,23.745z M13.889,23.745v0.225h0.62v-0.222h-0.62V23.745z M10.964,23.925c-0.037-0.146,0.021-0.069-0.089-0.135
	l-0.044,0.135H10.964z M11.008,23.925c0.048,0.001,0.095-0.015,0.133-0.045l-0.133-0.09V23.925z M11.363,23.925
	c0.001-0.048-0.015-0.096-0.044-0.135v0.045h-0.05l-0.044,0.09h0.133H11.363z M11.407,23.925c0.144-0.036,0.067,0.022,0.133-0.09
	h-0.092v-0.042h-0.045v0.135L11.407,23.925z M3.296,23.88c0.038,0.085,0.021,0.033,0,0.136H3.249L3.296,23.88z M3.872,23.88
	c0.023,0.024,0.039,0.056,0.044,0.09H3.869v-0.09H3.872z M6.221,24.061v0.14h0.662v-0.228h-1.02v0.09h0.354L6.221,24.061z
	 M7.285,23.97c-0.006,0.063,0.01,0.126,0.044,0.181c0.003-0.063-0.014-0.125-0.047-0.178L7.285,23.97z M7.374,23.97v0.23h0.62
	v-0.228H7.369L7.374,23.97z M8.039,23.97v0.23h0.399v-0.228H8.039V23.97z M8.482,23.97v0.23h0.617v-0.228h-0.62L8.482,23.97z
	 M9.147,23.97v0.23c0.447,0,0.761-0.044,1.064-0.045v-0.181H9.144L9.147,23.97z M10.255,23.97v0.181
	c0.105,0.015,0.213-0.001,0.31-0.045c0.028-0.039,0.044-0.087,0.044-0.136h-0.356H10.255z M11.055,23.97
	c-0.056,0.037-0.114,0.067-0.177,0.091v0.045H11.1c0-0.129-0.035-0.019,0.044-0.136h-0.095H11.055z M11.277,23.97
	c0,0.122-0.059,0.072,0.09,0.136c-0.008-0.059-0.045-0.107-0.098-0.133L11.277,23.97z M11.454,23.97l-0.044,0.136h0.089
	c0-0.129-0.035-0.019,0.044-0.136h-0.095H11.454z M11.631,23.97l-0.044,0.226h0.172v-0.043c-0.03-0.056-0.03-0.123,0-0.18h-0.133
	L11.631,23.97z M3.565,24.016c0.113,0.065,0.051-0.011,0.089,0.135H3.559v-0.133L3.565,24.016z M10.656,24.15
	c0.049,0,0.096-0.016,0.134-0.045c-0.024-0.025-0.039-0.057-0.044-0.09H10.65v0.135H10.656z M13.847,24.016h-0.178
	c-0.099,0.077-0.162,0.19-0.177,0.314c0.119-0.004,0.239,0.012,0.354,0.045c-0.011-0.119-0.012-0.238-0.005-0.357L13.847,24.016z
	 M13.891,24.016v0.314c0.105-0.008,0.211,0.007,0.311,0.045c0.059-0.139,0.014-0.023,0.133-0.09c0.059-0.082,0.104-0.174,0.133-0.27
	h-0.581H13.891z M11.099,24.15c0.076,0.039,0.057,0.039,0.133,0h-0.138H11.099z M11.808,24.15c0.215,0.077,0.45,0.077,0.665,0h-0.67
	H11.808z M13.359,24.15l0.044,0.135h0.044v-0.133h-0.093L13.359,24.15z M35.121,24.15c-0.023,0.057-0.038,0.117-0.044,0.18h0.089
	v-0.042h0.044c-0.023-0.05-0.056-0.096-0.094-0.136L35.121,24.15z M3.83,24.24v0.225h0.128c-0.005-0.063-0.02-0.123-0.044-0.18
	h0.088v0.045c0.03,0.057,0.077,0.104,0.133,0.135v-0.042c0.033-0.054,0.048-0.116,0.044-0.18H3.825L3.83,24.24z M5.16,24.24
	c-0.039,0.037-0.07,0.084-0.09,0.135H5.11c0.024,0.024,0.056,0.04,0.09,0.045c0.004-0.063-0.012-0.124-0.045-0.177L5.16,24.24z
	 M5.249,24.24v0.18h0.31v-0.18H5.243H5.249z M6.224,24.24v0.135h0.039v-0.042c0.161,0.102,0.374,0.063,0.488-0.09H6.218L6.224,24.24
	z M7.997,24.375v-0.132H7.459v0.09L7.997,24.375z M8.041,24.24v0.135h0.399v-0.132H8.041V24.24z M8.484,24.24v0.135h0.615v-0.132
	h-0.62L8.484,24.24z M9.149,24.24v0.135h0.887v-0.132H9.144L9.149,24.24z M10.789,24.24v0.135h0.576v-0.132h-0.582L10.789,24.24z
	 M11.41,24.24v0.135h0.349v-0.132h-0.355L11.41,24.24z M11.81,24.24v0.135h0.177v-0.132h-0.184L11.81,24.24z M12.12,24.24v0.135
	h0.222l0.044-0.135h-0.273H12.12z M4.231,24.285v0.09h0.038v-0.09H4.224H4.231z M12.031,24.285v0.09h0.038v-0.09h-0.045H12.031z
	 M2.458,24.375v0.135h0.259v-0.132H2.451L2.458,24.375z M2.768,24.375v0.135h0.215v-0.132H2.761L2.768,24.375z M5.959,28.875
	l0.442-0.045v-0.314H6.307c-0.113-0.047-0.232-0.077-0.354-0.09v0.45L5.959,28.875z M7.111,28.65v0.135
	c0.323,0.052,0.652,0.052,0.976,0L7.111,28.65z"/>
</svg>
