<svg xmlns="http://www.w3.org/2000/svg" width="40" height="40" viewBox="0 0 40 40">
  <defs>
    <style>
      .cls-1 {
        fill: #fff;
        fill-rule: evenodd;
      }
    </style>
  </defs>
  <path id="germ_pzkpfw_iii_ausf_m_ico" class="cls-1" d="M17.211,15.484a0.424,0.424,0,0,1,.2.022v0.045h0.478V15.8h0.2a3.9,3.9,0,0,1-.023.673c0.173,0.1.138,0.229,0.114,0.449a0.619,0.619,0,0,1,.273.022,0.174,0.174,0,0,1,.137.224h0.524v0.09a0.065,0.065,0,0,1,.023.022h0.046V16.74l0.364,0.022v0.269l1.457,0.157v0.067H20.922L20.945,17.5a2.756,2.756,0,0,1,.774.09l0.592,0.045a1.9,1.9,0,0,0,.637.067c0.279-.108.5-0.4,0.8-0.494v0.023a0.853,0.853,0,0,1,.25.4,0.22,0.22,0,0,0-.114.067H23.9a0.116,0.116,0,0,0,.114.067,0.108,0.108,0,0,1,.023-0.067,1.273,1.273,0,0,0,.114.381l0.3,0.067V18.109a0.371,0.371,0,0,1-.091-0.337h1.366v-0.09c0.489-.022.18,0.647,0.637,0.651a0.561,0.561,0,0,1,.25-0.022,0.293,0.293,0,0,0,.114.18,1.183,1.183,0,0,0,.433.022,6.224,6.224,0,0,1,1.252.023c0.083,0.041.092,0.053,0.091,0.179a5.656,5.656,0,0,1,1.093.09c0.215,0.046.447,0,.637,0.045L40,18.872v0.494l-9.562.022-1.935.135v0.135a0.211,0.211,0,0,0-.091.067,13.931,13.931,0,0,0-1.707,0c-0.079.165-.075,0.213-0.341,0.2a0.366,0.366,0,0,0-.182-0.023,1.425,1.425,0,0,0-.091.224c-0.066,0-.032-0.022-0.068,0a0.72,0.72,0,0,0-.091.135h0.25a7.228,7.228,0,0,0,1.024.045c0.235,0.059.532,0.115,0.774,0.157l0.159-.022a10.938,10.938,0,0,0,1.867.314,0.281,0.281,0,0,1-.023.09H30.12a3.057,3.057,0,0,0,.774.135,16.675,16.675,0,0,0,1.73.314v1.032a1.05,1.05,0,0,0,.023.4,1.172,1.172,0,0,0,.455.449c0.128,0.095.236,0.242,0.364,0.336a4.673,4.673,0,0,1,.615.494H34.058a3.208,3.208,0,0,0-.638.718,0.648,0.648,0,0,1,.341.808V25.76a0.584,0.584,0,0,1-.159.157s-0.02.289-.023,0.359h0.091V26.3a0.431,0.431,0,0,1-.091.224,0.083,0.083,0,0,0-.046-0.022,1.365,1.365,0,0,1-.182.538,0.293,0.293,0,0,1,.091.022,0.077,0.077,0,0,1-.023.045,0.179,0.179,0,0,1-.137.157c-0.042,0-.02-0.021-0.045.023s-0.285.4-.3,0.426a0.087,0.087,0,0,1,.045.067,0.752,0.752,0,0,1-.182.135,0.088,0.088,0,0,0-.068-0.045,0.755,0.755,0,0,1-.41.314l0.023,0.112a0.5,0.5,0,0,1-.2.067,0.14,0.14,0,0,0-.091-0.045,1.9,1.9,0,0,0-.455.247,0.114,0.114,0,0,1,.023.067l-0.2.045c-0.028-.07-0.009-0.051-0.091-0.067-0.11.08-.3,0.073-0.41,0.157-0.047.063,0.023,0.054-.046,0.09a0.156,0.156,0,0,1-.159.045,0.175,0.175,0,0,0-.068-0.067l-0.478.179a0.317,0.317,0,0,1,.023.09H30.142a0.734,0.734,0,0,1-.159.067,0.088,0.088,0,0,0-.068-0.09,1.41,1.41,0,0,1-.455.157c0,0.084.011,0.079-.046,0.112a0.734,0.734,0,0,1-.159.067c-0.017-.089,0-0.072-0.091-0.09a1.17,1.17,0,0,1-.433.157c0.007,0.064.024,0.046,0,.09a0.413,0.413,0,0,1-.2.067v-0.09H28.5a1.221,1.221,0,0,1-.478.157v0.112H28v0.022a1.217,1.217,0,0,0-.182.045c-0.029-.1-0.072-0.1-0.2-0.09a0.948,0.948,0,0,1-.41.045,0.318,0.318,0,0,0,.023.112H27.069a0.156,0.156,0,0,1-.091.022v-0.09l-0.569.023V30H26.181V29.91H25.657V30h-0.2V29.91H24.929V30h-0.2V29.91H24.178V30h-0.2V29.91H23.449V30h-0.2V29.91H22.721V30H22.493V29.91H21.969V30h-0.2V29.91H21.241V30h-0.2V29.91H20.512V30h-0.2V29.91H19.784V30H19.556V29.91H19.032V30h-0.2V29.91H18.3V30H18.1V29.91H17.575V30h-0.2V29.91H16.824V30h-0.2V29.91H16.1V30h-0.2V29.91H15.367V30h-0.2V29.91H14.639V30H14.411V29.91H13.887V30h-0.2V29.91H13.159V30h-0.2V29.91H12.43V30h-0.2V29.91H11.679V30h-0.2V29.91H10.951V30h-0.2V29.91H10.222V30h-0.2V29.91H9.493V30H9.266c-0.015-.1.025-0.1-0.114-0.112a1.2,1.2,0,0,0-.478-0.09,0.153,0.153,0,0,1-.046.09A0.448,0.448,0,0,0,8.4,29.843V29.8a0.26,0.26,0,0,0,.046-0.067,1.841,1.841,0,0,1-.524-0.2,0.281,0.281,0,0,1-.023.09,0.806,0.806,0,0,1-.114-0.067c-0.119-.08.027-0.032-0.046-0.135a4.792,4.792,0,0,0-.478-0.224,0.281,0.281,0,0,1-.023.09,0.079,0.079,0,0,1-.046-0.023l-0.137-.045a0.146,0.146,0,0,0,0-.112c-0.111-.1-0.3-0.121-0.41-0.224a0.8,0.8,0,0,1-.137.067c-0.039-.036-0.1-0.053-0.137-0.09,0.03-.039.039-0.036,0.023-0.067a1.1,1.1,0,0,0-.478-0.224L5.9,28.631l-0.182-.09c0.007-.064.024-0.046,0-0.09-0.111-.1-0.3-0.121-0.41-0.224-0.068.03-.053,0.069-0.114,0.045a0.129,0.129,0,0,1-.137-0.112,0.081,0.081,0,0,0,.023-0.045A2.437,2.437,0,0,1,4.6,27.891c-0.028.07-.009,0.051-0.091,0.067-0.039-.036-0.1-0.053-0.137-0.09,0.03-.039.039-0.036,0.023-0.067a4.074,4.074,0,0,1-.41-0.314,0.2,0.2,0,0,1-.091.067A0.485,0.485,0,0,1,3.756,27.4,0.087,0.087,0,0,0,3.8,27.33a1.036,1.036,0,0,0-.228-0.224,0.143,0.143,0,0,1-.023.09V27.151a0.3,0.3,0,0,0-.068-0.045V26.926H3.438a0.117,0.117,0,0,1-.068.022,0.839,0.839,0,0,1-.091-0.2c0.071-.027.051-0.008,0.068-0.09a1.73,1.73,0,0,1-.2-0.471c-0.107,0-.1-0.006-0.091-0.157a0.113,0.113,0,0,1-.023-0.067H3.051V25.939H3.119A5.294,5.294,0,0,1,3.1,25.378H3.005V25.333a0.35,0.35,0,0,0,.023-0.18,0.136,0.136,0,0,0,.091,0,1.589,1.589,0,0,0,.046-0.247c0.026-.071.08-0.168,0.114-0.247a0.156,0.156,0,0,1-.091-0.045l-0.729.112v0.314a0.734,0.734,0,0,0-.023.314,3.615,3.615,0,0,1-.364.381,1.81,1.81,0,0,1-.25.09,1,1,0,0,1-.637-0.067C0.547,25.439.649,24.883,0.66,23.965H0.569V23.853H0.66v-0.4L0.433,23.4a2.824,2.824,0,0,1-.364-0.449,0.851,0.851,0,0,1,.524-1.077V21.833H0.41c0.005-.188.008-0.375,0-0.561H0.341V21.115h0.2V20.891H1.184v0.292H1.32c0,0.228-.006.43,0,0.651H1.138v0.045H1.161a1.715,1.715,0,0,1,.364.247,2.9,2.9,0,0,0,.319.516l0.637-.673,0.364-.09V21.856a0.111,0.111,0,0,1-.068-0.022,0.314,0.314,0,0,1,.137-0.157,5.707,5.707,0,0,1,.8-0.18c0-.409.246-0.226,0.25-0.606H4.007A1.582,1.582,0,0,1,4.6,20.756V20.263a6.885,6.885,0,0,0,1.89.045V20.24c1.092,0,2.264.021,3.392,0.022V20.106H9.926V17.5h0.182l0.023-.269h0.091a1.227,1.227,0,0,1-.023-0.157,2.431,2.431,0,0,0,.638.09c0.841-.159,1.8-0.231,2.641-0.337v0.09L13.66,16.9l-0.068-.359a1.034,1.034,0,0,0,.114-0.067,2.721,2.721,0,0,0,.023-0.538,0.322,0.322,0,0,0,.182-0.045,0.8,0.8,0,0,0,.023-0.337,1.45,1.45,0,0,0,.478-0.045h0.3a3.507,3.507,0,0,0,.706-0.045,0.839,0.839,0,0,1,.2.023c0.522-.047.942,0,1.5,0V9.651A2.527,2.527,0,0,1,17.143,9a0.064,0.064,0,0,1,.023.022,1.4,1.4,0,0,1,.023.516v1.279ZM1.093,23.853H1.184v0.09H1.093c-0.01.453-.117,1.274,0.228,1.391a0.625,0.625,0,0,0,.41.067A0.428,0.428,0,0,0,2,25.109a0.734,0.734,0,0,0,.023-0.314,2.321,2.321,0,0,0-.478.067V24.728a0.24,0.24,0,0,0,.023-0.135c-0.084-.023-0.08-0.015-0.091-0.112a0.505,0.505,0,0,0,.068-0.292,0.276,0.276,0,0,1-.091-0.09,0.144,0.144,0,0,0,.159-0.112,0.231,0.231,0,0,0,.046-0.135,0.2,0.2,0,0,1-.159-0.2H1.412V23.606a0.343,0.343,0,0,0,.046-0.2H1.434c-0.078.074-.326,0.1-0.364,0.157A0.668,0.668,0,0,1,1.093,23.853ZM3.506,27.2H3.552l-0.023.067H3.506V27.2Z" transform="translate(0 0.5)"/>
</svg>
