<svg xmlns="http://www.w3.org/2000/svg" width="80" height="40" viewBox="0 0 80 40">
  <defs>
    <style>
      .cls-1 {
        fill: #fff;
        fill-rule: evenodd;
      }
    </style>
  </defs>
  <path id="germ_sf40_leichte_flakkampffaehre_ico" class="cls-1" d="M52.241,19.4h2.533a1.287,1.287,0,0,0,.844-0.1,1.279,1.279,0,0,0,.05-0.2h0.1a0.714,0.714,0,0,0,.149.451H52.34L52.39,19.8H52.34a0.252,0.252,0,0,0-.149-0.05v5.216h1.142a2.246,2.246,0,0,0-.248-0.8,0.247,0.247,0,0,0,.248-0.2h-0.05a0.58,0.58,0,0,1-.248.1v-0.1a9.228,9.228,0,0,0,1.688-.752c0.09-.04.035,0.065,0.05,0.1,0.061,0.014.4-.052,0.546-0.05,0-.548.013-0.809,0-1.354h0.2a1.709,1.709,0,0,0,.3,1.053,0.251,0.251,0,0,0,.149.05c0.281-.258,1.142-0.556,1.341-0.8a0.258,0.258,0,0,0,.05-0.151l-0.7-.15a0.631,0.631,0,0,0-.05-0.351H54.277c-0.28.195-.677,0.206-0.944,0.4-0.639.466-.6,1.769-0.6,2.859a0.4,0.4,0,0,0-.2,0V24.464c0.219-.368.009-1.856,0.2-2.357a1.5,1.5,0,0,1,.546-0.6,7.445,7.445,0,0,1,1.39-.05,14.518,14.518,0,0,1,2.831-.1v-0.1a0.938,0.938,0,0,0,.05-0.451H57.306V20.552a0.866,0.866,0,0,1,.248.1v-0.6a1.082,1.082,0,0,0,.05-0.5h0.05a2.765,2.765,0,0,0,.844.05,2.126,2.126,0,0,1,.1.9,1.5,1.5,0,0,1,.348.05,0.916,0.916,0,0,1,.1.752h0.05v0.05a4.868,4.868,0,0,0,.844.1v-0.1a0.438,0.438,0,0,1-.05-0.251,0.238,0.238,0,0,1-.149-0.05c0.109-.062.106-0.206,0.2-0.251h1.242v0.1a1.338,1.338,0,0,1,.149.552h3.178a1.77,1.77,0,0,1,1.341.3A4.553,4.553,0,0,1,66,23.712H65.9V22.458a1.63,1.63,0,0,1-.1-0.6,0.894,0.894,0,0,0-.248-0.15,2.37,2.37,0,0,0-1.241-.15h-2.93a1.259,1.259,0,0,0,.149.552,2.793,2.793,0,0,0,1.043.05H65.3v0.3H61.626l0.05,0.552H65.3V23.26H65.053v0.1a1.226,1.226,0,0,0,.2.2c0.095-.047.058-0.019,0.2,0v0.05H65.4c-0.1.039,0.1,0.05,0.1,0.05a0.252,0.252,0,0,1,.149-0.05,0.244,0.244,0,0,0,.05.151,0.178,0.178,0,0,0,.1.05,0.332,0.332,0,0,0,.2.05v1.053l2.334-.05a0.982,0.982,0,0,0,.4.1V20.9h0.1v4.063h1.44v2.959h0.05v-0.05a0.58,0.58,0,0,0,.1-0.151,0.7,0.7,0,0,0,.2.05,12.215,12.215,0,0,1,.05-2.809h0.1v2.859l0.149,0.05a3.3,3.3,0,0,0,.944.1c0.013,0,1.085.694,1.093,0.7a0.525,0.525,0,0,1,.1.3h4.569V26.219a6.169,6.169,0,0,1,0-1.154,9.736,9.736,0,0,1-.1-2.357,1.156,1.156,0,0,0,0-.9h0.248v0.05a6.642,6.642,0,0,0-.05,1.756q0.025,2.683.05,5.367h1.241a0.725,0.725,0,0,1-.05.251H79.7l-0.1,1,0.4,0.05-0.05.3h-0.4c-0.141,1.214-.423,1.105-1.093,1.705l-0.1.3a1.923,1.923,0,0,1-.5.151c-0.626.277-1.272,0.559-1.937,0.853-1.106.489-2.272,1.066-3.377,1.555a5.172,5.172,0,0,0-1.49.652,0.973,0.973,0,0,1-.149-0.151,6.777,6.777,0,0,0-.795.05c-0.15.407-1.061,0.251-1.589,0.251H63.563c-0.108-.232-0.192-0.264-0.546-0.251-0.21.4-1.061,0.251-1.639,0.251H56.462a0.483,0.483,0,0,0-.6-0.251c-0.238.39-1.085,0.251-1.688,0.251H49.311a0.448,0.448,0,0,0-.5-0.3c-0.261.44-1.06,0.3-1.738,0.3H42.21a0.526,0.526,0,0,0-.646-0.3c-0.155.471-1.047,0.3-1.639,0.3H35.009a0.448,0.448,0,0,0-.5-0.3c-0.262.44-1.061,0.3-1.738,0.3H27.908a0.489,0.489,0,0,0-.6-0.3c-0.23.448-1.039,0.3-1.688,0.3H20.708a0.4,0.4,0,0,0-.447-0.3c-0.162.466-1.044,0.3-1.639,0.3H13.656c-0.106-.459-0.592-0.377-1.142-0.351a4.791,4.791,0,0,0-.7-0.05c-0.63-.2-1.337-0.823-1.887-1H8.392a27.658,27.658,0,0,1-4.37-.05v0.05a0.3,0.3,0,0,1-.248.5,0.449,0.449,0,0,1-.248-0.4l0.05-.151c-0.016-.04-0.162-0.1-0.2-0.151a0.468,0.468,0,0,0,.348-0.3,0.194,0.194,0,0,1-.1-0.151,1.033,1.033,0,0,0,.348-0.1,0.53,0.53,0,0,1,0,.4,1.139,1.139,0,0,1,.447,0V33.643l-0.944-.05v-0.4H3.426v-0.05a0.533,0.533,0,0,1-.4-0.151v0.1a9.42,9.42,0,0,0,0,2.558H0.05c-0.009-.894-0.009-1.965,0-2.859H2.533a14.756,14.756,0,0,1,.1-3.16H2.88a0.962,0.962,0,0,0,.6.05v-0.2l0.6-.2a0.5,0.5,0,0,0,.1.3,0.252,0.252,0,0,1,.149-0.05c0.041,0.163-.024.077,0.1,0.15V29.53a1.147,1.147,0,0,0,.546.05v-1.6H3.426l-0.05-.151H7.945v-0.5a0.554,0.554,0,0,0-.248,0c-0.05.082-.048,0.32-0.1,0.4a4.087,4.087,0,0,1,.149-0.752H7.9v-0.1c0.056-.093.041-0.359,0.1-0.451a3.284,3.284,0,0,1,1.241-.05v-0.1a11.892,11.892,0,0,1-1.092-1.856,6.222,6.222,0,0,1,.05-1.755,0.181,0.181,0,0,1,.05.1,4.111,4.111,0,0,1,.795,1.4,5.74,5.74,0,0,1,.795,1.455h0.1V24.263h-0.5a0.244,0.244,0,0,1-.05.15,0.528,0.528,0,0,1-.1-0.3c0.756-.076,1.7-0.05,2.533-0.05h0.993v-0.1l1.44-.652V23.26h-0.5a0.332,0.332,0,0,1-.2.05v-0.3h3.675l0.05-.552H13.557v-0.3h3.824v-0.05h0.05a3.1,3.1,0,0,1,.3-1.254,2.984,2.984,0,0,1,1.142-.05,0.179,0.179,0,0,0,.1.05c0.021,0.18-.023.126,0.1,0.2a1,1,0,0,0-.2.652h0.1a2.184,2.184,0,0,0,.844-0.5,0.667,0.667,0,0,1-.1-0.3,0.618,0.618,0,0,1,.447-0.351,0.252,0.252,0,0,1,.149-0.05,4.793,4.793,0,0,1,.05-0.9h0.795a3.1,3.1,0,0,1,.1,1.1H21.3a0.485,0.485,0,0,1,.348-0.151,0.686,0.686,0,0,0,.5.552v0.3h1.39a3.772,3.772,0,0,1-.1.853c-0.085.4,0.148,0.672,0.05,1h0.646a5.6,5.6,0,0,1,1.738.8c-0.2,0-.118-0.082-0.2.05a0.543,0.543,0,0,1,.149.1,2.332,2.332,0,0,0-.3.752h1.937v1.906H27.61V24.966H29.3v-0.7H29.2v0.1c-0.044.07-.054,0.281-0.1,0.351a2.543,2.543,0,0,1,.05-0.552H29.3l-0.05-.552h-0.1c-0.033-.138.083-0.053,0.1-0.1l0.05-1.154h-0.05a1.485,1.485,0,0,1-.646.05v-0.1c0.18-.22-0.006-0.357.3-0.4l0.447-.2v-0.05H28.7c0-.465.1-0.659,0.1-1.154A9.432,9.432,0,0,1,27.61,19a0.548,0.548,0,0,0,.05-0.3h0.2v0.1a0.341,0.341,0,0,0-.05.2H28.9V18.4H29.05V15.737h1.688V18.4a8.756,8.756,0,0,0,2.433.1,1.636,1.636,0,0,1,.05-0.552,1.081,1.081,0,0,0,.4-0.251,0.244,0.244,0,0,0,.05.151c0.434-.618,1.637-0.024,1.639-1.053-0.062-.079-0.032-0.026,0-0.1a0.215,0.215,0,0,1,.2-0.2,0.426,0.426,0,0,1,.248-0.05c0.317,0.513,1.035.361,1.937,0.351a0.333,0.333,0,0,1,.248-0.1c0.114,0.441.519,0.7,0.6,1.154l-0.149.05v0.05h0.05l0.2,0.4h4.32a0.778,0.778,0,0,1,.4-0.05v0.2h0.2a28.134,28.134,0,0,1-.3-2.959c1.325-.377,4.358-0.15,6.158-0.15a9.152,9.152,0,0,1,2.284.05l-0.05.1a0.4,0.4,0,0,0,.149.1,1.853,1.853,0,0,0,.149.8V11.172a2.956,2.956,0,0,1-.844-0.8c-0.357-.361-0.689-0.738-1.043-1.1a4.783,4.783,0,0,1-.646-0.652c-0.043.037-.056,0.063-0.1,0.1V8.464h0.05a12.957,12.957,0,0,0,1.788,1.806,1.689,1.689,0,0,0,.745.652,2.289,2.289,0,0,0,.05-0.652,2.23,2.23,0,0,1,0-1.254,21.811,21.811,0,0,1,.05-3.461c0.211-.412-0.188-1.2.05-1.555-0.012,2.324.042,4.6,0.05,6.671a0.3,0.3,0,0,1,.3,0,0.239,0.239,0,0,0-.149.05c0.108,0.133.123,0.2,0.05,0.251-0.056.252-.109,0.012-0.2,0.2v1.4a6.638,6.638,0,0,1,.05,1.956A45.382,45.382,0,0,0,52.241,19.4Zm0-8.175a0.421,0.421,0,0,1,0,.4v-0.4Zm-0.05.652a0.258,0.258,0,0,1,.05.151h-0.05V11.875Zm-0.05.4a0.181,0.181,0,0,1,.05.1h-0.05v-0.1ZM8.094,22.558h0.1C8.135,22.639,8.173,22.619,8.094,22.558Z" transform="translate(-0.031 0.016)"/>
</svg>
