<svg xmlns="http://www.w3.org/2000/svg" width="80" height="40" viewBox="0 0 80 40">
  <defs>
    <style>
      .cls-1 {
        fill: #fff;
        fill-rule: evenodd;
      }
    </style>
  </defs>
  <path id="germ_s38_ico" class="cls-1" d="M49.509,13.459v0.465a0.626,0.626,0,0,0,.2-0.052V14.7H49.66a0.333,0.333,0,0,0-.2-0.052,8.04,8.04,0,0,1,.1,1.084h0.1c0.434-.851,2.084.011,2.767-0.413a0.506,0.506,0,0,0,.3-0.258,0.312,0.312,0,0,1-.1-0.1c0.171-.049.157-0.02,0.2-0.207h-0.2v-0.1a0.306,0.306,0,0,1,.2-0.1c0.062,0.024.444-.046,0.7-0.052,0.015,0.126.169,0.412,0.151,0.465a1.08,1.08,0,0,0-.2.774,8.889,8.889,0,0,0,1.308.207l0.05-.155a0.267,0.267,0,0,1-.05-0.155,3.155,3.155,0,0,0,1.006-.052v0.258l-0.8-.1v0.1a0.145,0.145,0,0,0-.05.052c0.474,0.05.733,0.142,1.208,0.207a9.88,9.88,0,0,0,.4,1.188,1.48,1.48,0,0,0,.654.052l1.56-.206v0.052a1.105,1.105,0,0,0-.3.465h0.151V17.9l0.3-.052V17.59h0.151v0.258h0.252v0.207H59.27a0.333,0.333,0,0,0-.2-0.052v0.258h0.453V18h0.1a3.277,3.277,0,0,1,1.258-.052,0.923,0.923,0,0,1,.1-0.207,0.2,0.2,0,0,0,.2.1,0.254,0.254,0,0,1,.05-0.155c0.225,0.327.9-.224,1.207-0.1,0.1,0.037.275,0.267,0.4,0.31L64,17.848a5.326,5.326,0,0,0,1.811-.052,0.776,0.776,0,0,1,.352.052h1.459V17.228h0.2l0.05,0.361,1.157,0.1a3.833,3.833,0,0,0,.05-0.878,6.113,6.113,0,0,1,1.711-.62,2.6,2.6,0,0,1,.755.774c0.3,0.14.44-.078,0.5,0.31h2.969v0.155H70.793v0.1H72.2a1.432,1.432,0,0,0,.6,0V18h0.151a1.452,1.452,0,0,0-.05-0.465h0.352V17.59a0.836,0.836,0,0,0-.05.413h0.2a1.452,1.452,0,0,0-.05-0.465h0.352V17.59a0.836,0.836,0,0,0-.05.413h0.1a6.321,6.321,0,0,0,1.208-.207v0.155h3.019a4.341,4.341,0,0,1,1.258-.207A5.676,5.676,0,0,0,79.9,18a8.191,8.191,0,0,1-.453,3.253c-0.484,1.785-.6,3.636-1.912,4.543-1.213.84-3.072,0.911-4.73,1.291-0.594.136-1.215,0.034-1.761,0.155-0.74.164-1.53,0-2.214,0.155-0.785.174-1.626-.009-2.365,0.155l-3.371.1c-0.811.18-1.854-.088-2.717,0.1-0.521.115-1.278-.078-1.862,0.052-0.537.119-1.312-.081-1.912,0.052a15.872,15.872,0,0,1-2.868.1H50.365a14.374,14.374,0,0,1-2.717.052l-4.478.052H41.006a9.8,9.8,0,0,1-1.811.052h-4.88a9.549,9.549,0,0,1-1.761.052h-4.78a21.986,21.986,0,0,1-3.975.052H22.692a18.4,18.4,0,0,1-4.126,0H11.874c-0.963-.229-2.051-0.4-3.019-0.619a3.77,3.77,0,0,0-1.308.052H6.541c-0.523.115-1.24,0.095-1.761,0.155a0.984,0.984,0,0,1-.4.929,0.332,0.332,0,0,1-.2.052,1.561,1.561,0,0,1-.4-0.568,0.791,0.791,0,0,0,0-.413l-0.553-.1v-0.1l0.5-.155V27.4H3.069a1.624,1.624,0,0,1-.252.774,6.384,6.384,0,0,1-.05.723,1.335,1.335,0,0,1-.6.052A7.405,7.405,0,0,0,.252,28.9a10.887,10.887,0,0,1,.1-2.943C-0.055,25.9.083,24.5,0.1,23.992a2.685,2.685,0,0,1-.05-0.981L0,20.946H0.453c0.045-.672.051-1.2,0.05-1.962h0.05v0.1A7.15,7.15,0,0,1,.6,20.894h0.5c0-.439-0.006-0.584,0-1.033A0.24,0.24,0,0,1,.956,19.81H1.107a1.736,1.736,0,0,1,.05-0.723c0,0.458.025,0.867,0.05,1.136a0.239,0.239,0,0,1,.151.052H1.208c-0.028.576-.016,0.589,0.553,0.568a5.28,5.28,0,0,1,1.66-.155,3.317,3.317,0,0,0-.2-0.568H3.27v0.052a0.6,0.6,0,0,0,.2.207V19.035h0.1v1.756a0.7,0.7,0,0,1,.05.361A5.265,5.265,0,0,0,4.629,21.1a0.967,0.967,0,0,0,.05-0.31H4.629a0.285,0.285,0,0,1-.3.1V20.636a0.871,0.871,0,0,1,.5-0.1,0.712,0.712,0,0,1,.151.516c0.326,0.01.509,0,.906,0V19.035h0.1V21.1A0.6,0.6,0,0,0,6.541,21H6.289V20.791h0.1a0.253,0.253,0,0,0,.151.052V20.584h0.2v0.052a0.355,0.355,0,0,0-.05.207h0.3V20.584h0.2v0.052a0.355,0.355,0,0,0-.05.207A0.706,0.706,0,0,0,7.4,20.791V21H7.145v0.1H7.6V20.946H7.8c0-.6,0-1.113,0-1.6a1.376,1.376,0,0,0,.654-0.723H8.5v0.052c0.091,0.119.063,0.329,0.151,0.465,0.064,0.1.3,0.116,0.352,0.206v1.6c0.043,0.1.024,0.038,0,.155H9.157a0.253,0.253,0,0,1,.151-0.052,1.448,1.448,0,0,1,1.409-1.755c-0.01-.3.007-0.458,0-0.878h0.05v0.052a6.227,6.227,0,0,1,.252,1.807h0.1V19.139h1.962c0.042-.168-0.025-0.079.1-0.155a0.873,0.873,0,0,1,.8-0.155V18.416c0.443,0.088.554,0.877,0.554,1.394-0.163.043-.077-0.025-0.151,0.1a1.726,1.726,0,0,0,1.107.361V18.984h0.1v1.291H17.61V20.223h0.05c0-.184.109-0.7,0.1-0.723h-0.1a0.839,0.839,0,0,1-.1-0.516,1.172,1.172,0,0,0,.3-0.671h-0.2a0.523,0.523,0,0,1-.352.155V18.261a2.067,2.067,0,0,0,.906-0.361,0.188,0.188,0,0,0,.05-0.1,3.576,3.576,0,0,1-.855-0.052,10.756,10.756,0,0,0-1.962,0V17.59c1.134-.048,2.67,0,3.774-0.155a4.893,4.893,0,0,0,.906,0V17.59h0.453a0.675,0.675,0,0,0,.05.31,0.222,0.222,0,0,0-.151.155h0.2v0.155a2.564,2.564,0,0,1-1.057-.052V18.88a4.714,4.714,0,0,1-1.409-.1v0.1a0.9,0.9,0,0,1,.05.774c-0.148-.02-0.063-0.085-0.151.052h0.05a0.4,0.4,0,0,1,.151.155c-0.13.078-.107,0.155-0.1,0.361h0.05v0.052a0.515,0.515,0,0,1,.5.1,1.419,1.419,0,0,0-.453.1l0.1,0.568h0.1A27.83,27.83,0,0,1,21.887,21a2.615,2.615,0,0,0,.05-0.723h0.2v0.671h0.1a0.5,0.5,0,0,0,.3,0V20.739H22.39V20.275h0.151c0.1-1.14.1-2.622,0.1-3.924,0.163,0.043.077-.025,0.151,0.1a0.852,0.852,0,0,0-.1.671c0.131,0.015.1,0,.1,0.258,0.094,0.158.052,0.471,0.151,0.62a0.6,0.6,0,0,1,.3-0.155v0.207a5.042,5.042,0,0,0-.05,1.91h0.4a0.333,0.333,0,0,1,.2-0.052V18.364H23.95A0.711,0.711,0,0,0,23.7,17.9a2.064,2.064,0,0,1-.1-0.826l0.252-.465a1.348,1.348,0,0,1,.8.361c0.4,0.521-.154.928-0.2,1.394H24.6v1.5a0.521,0.521,0,0,0,.5.052V18.88h0.1v1.136a12.178,12.178,0,0,1,1.308-.052V19.242h-0.1v0.052c-0.051.051-.05-0.051-0.05-0.052h-0.05V19.19c0.138-.082.127-0.046,0.151-0.258a0.171,0.171,0,0,1-.1-0.052,14.468,14.468,0,0,0,2.616-.1V18.726H26.918a0.18,0.18,0,0,0-.1-0.052,6.089,6.089,0,0,0-.6-1.239c0.109-.126.241-0.238,0.352-0.361a2.628,2.628,0,0,0,.805.155c0.021,0.185-.024.13,0.1,0.206a2.056,2.056,0,0,0,1.258.31c0.075-.171.1-0.164,0.453-0.155,0.057,0.089.13,0.084,0.2-.052,0.074,0.128-.008.106,0.151,0.155a0.222,0.222,0,0,1,.151-0.155,1.1,1.1,0,0,0,1.006.207c0.075-.171.1-0.164,0.453-0.155v0.052h-0.05c-0.1.04,0.1,0.052,0.1,0.052a0.489,0.489,0,0,1,.453-0.155,1.677,1.677,0,0,0,.2.207l0.8-.155a2.122,2.122,0,0,1,1.107-.465,0.687,0.687,0,0,0,.352.31c-0.1.125-.1,0.259-0.2,0.413a3.756,3.756,0,0,1-1.862.878v0.052h0.956a2.075,2.075,0,0,1,.855-0.052,3.805,3.805,0,0,0,.05.413c0.148-.02.063-0.085,0.151,0.052h-0.2a3.656,3.656,0,0,0,.05.723h0.805V19.242l-0.3.052V18.829h0.3a0.748,0.748,0,0,0,.05-0.207,4.186,4.186,0,0,1-.4-1.084c-0.21-.514-0.347-1.013-0.553-1.6a6.5,6.5,0,0,1-.654-1.652h0.05l0.1,0.155c0.037,0.07.03,0.292,0.1,0.465,0.215,0.527.42,1.085,0.654,1.652a11.169,11.169,0,0,1,.906,2.323h0.2a3.7,3.7,0,0,0,.2.981h0.151a6.818,6.818,0,0,0,1.208-.052,5.911,5.911,0,0,1,.5-1.084,0.442,0.442,0,0,0,.05.258,1.357,1.357,0,0,1,.906-0.258,4.939,4.939,0,0,0-.151-1.033h0.1v0.1a3.773,3.773,0,0,1,.2,1.033h0.906a8.54,8.54,0,0,1,2.113-.052c1.309,0,2.751-.045,4.126-0.052a5.84,5.84,0,0,1,0,1.033h0.7A0.394,0.394,0,0,0,46.34,19.6a2.2,2.2,0,0,0,.05-0.774,0.548,0.548,0,0,1-.151-0.1h0.2a12.12,12.12,0,0,1,.151-2.633,3.5,3.5,0,0,1,.906-0.1,0.876,0.876,0,0,1,.1-0.568V15.37l0.654-.052,0.1-1.859h0.3a9.151,9.151,0,0,1,.05-2.168v2.168h0.553V10.981A2.675,2.675,0,0,1,49.308,10a20.292,20.292,0,0,0,.05,3.459h0.151ZM22.843,16.351h0.1V16.4A0.171,0.171,0,0,1,22.843,16.351ZM0.553,18.88a0.188,0.188,0,0,1,.05.1H0.553v-0.1Zm1.711,0.826a0.762,0.762,0,0,1,.4.052A0.419,0.419,0,0,1,2.264,19.707Zm0.453,0a0.239,0.239,0,0,1,.151.052A0.24,0.24,0,0,1,2.717,19.707Zm-1.107.052a1.032,1.032,0,0,1,.5.052A1.034,1.034,0,0,1,1.61,19.758Zm1.258,0a0.623,0.623,0,0,1,.2.052v0.052h-0.1C2.931,19.816,2.905,19.8,2.868,19.758Zm0.252,0.155a0.188,0.188,0,0,1,.05.1H3.119v-0.1Zm15.2,0a0.189,0.189,0,0,1,.05.1h-0.05v-0.1Zm0.05,0.207a0.188,0.188,0,0,1,.05.1h-0.05v-0.1Zm-16.2.31a0.188,0.188,0,0,1,.05.1H2.164v-0.1Zm0.05,0.1a0.188,0.188,0,0,1,.05.1H2.214v-0.1Z" transform="translate(0.016 0.516)"/>
</svg>
