<svg xmlns="http://www.w3.org/2000/svg" width="40" height="40" viewBox="0 0 40 40">
  <defs>
    <style>
      .cls-1 {
        fill: #fff;
        fill-rule: evenodd;
      }
    </style>
  </defs>
  <path id="germ_pzkpfw_ii_ausf_c_ico" class="cls-1" d="M17.445,20.062h0.106a5.641,5.641,0,0,1,.388-1.018h0.176a0.508,0.508,0,0,0-.07-0.246,0.274,0.274,0,0,0,.247-0.14v-0.07a0.24,0.24,0,0,1-.141-0.07,0.715,0.715,0,0,0,.176-0.491,0.215,0.215,0,0,1-.07-0.07c-0.09.047-.121,0.1-0.211,0.14V17.99a0.126,0.126,0,0,0,.035-0.07c0.389-.1.191,0.006,0.458,0.14a0.607,0.607,0,0,1,.6-0.386V17.113H19V17.007h2.432V16.9a8.246,8.246,0,0,1,1.093,0v0.105h2.361v0.105H24.74v0.527a0.327,0.327,0,0,1,.141.105,1.993,1.993,0,0,1,.775.035,0.523,0.523,0,0,0,.247.281,1.687,1.687,0,0,0,.811.176h0.035V18.1c0.131-.021.116-0.047,0.247-0.07a0.358,0.358,0,0,0,.106.176,2.281,2.281,0,0,1,.67-0.211,0.366,0.366,0,0,1,.07.211c-0.111,0-.047-0.059-0.106.035-0.009.034-.028,0.013,0,0.035a0.27,0.27,0,0,1,.141.14,0.855,0.855,0,0,0,.529,0c0.017,0.127.009,0.128,0.106,0.176a0.239,0.239,0,0,0,.176.07l0.035-.7h0.07V17.99a0.554,0.554,0,0,1,.035.281,1.044,1.044,0,0,0-.07.491,4.056,4.056,0,0,0,.6.632V19.5c2.41,0,4.81.068,7.013,0.07v0.386c-1.209,0-2.33-.049-3.524.035v0.281a5.79,5.79,0,0,0-1.092.07c-0.156.017-.277-0.034-0.493-0.035H29.286v0.035a2.557,2.557,0,0,1,.74.807H29.991v0.035H29.956V21.15a4.436,4.436,0,0,0-.775-0.7v0.035a0.511,0.511,0,0,0-.07.281c0.111,0.023.134,0.045,0.141,0.07a0.693,0.693,0,0,0,.106.527h2.009l0.247,0.281c0.115,0.052.153-.083,0.247,0.07a0.126,0.126,0,0,1,.035.07c-0.118-.008-0.085-0.076-0.141.035h0.035a1.35,1.35,0,0,0,.458.211c0.045,0.063.023,0.172,0.071,0.246a0.955,0.955,0,0,1,.176.14,0.313,0.313,0,0,0-.106.281,1.233,1.233,0,0,0,.317.211,2.324,2.324,0,0,0,.035.878h0.071a1.865,1.865,0,0,0,.388.035,2.874,2.874,0,0,0,1.621-.07c-0.427-.188-0.359-0.557-0.247-0.948a0.842,0.842,0,0,1,.74-0.175,0.729,0.729,0,0,0,.106.386,1.016,1.016,0,0,1,.564,0c0.422,0.1.686,0.009,0.775,0.421H35.912a0.568,0.568,0,0,1-.564.175v0.14H35.313v0.035l-0.247.035v0.105h0.458a0.7,0.7,0,0,1-.035.246,2.942,2.942,0,0,0,.388.175c0.046-.087-0.015-0.024.07-0.07a0.443,0.443,0,0,0,.035.14,6.016,6.016,0,0,1,1.339.281l0.529,0.07a2.662,2.662,0,0,0,.67.492,0.17,0.17,0,0,1,.035-0.105c0.015,0.126-.017.088,0.07,0.14,0,0,.007-0.137.035-0.07v0.07a0.264,0.264,0,0,0,.035.07c0.276,0.224.661,0.322,0.916,0.562V25.89a0.5,0.5,0,0,1,.317-0.175v0.07a0.179,0.179,0,0,1,.035.105,1.022,1.022,0,0,0-.247.351c0.118,0.127-.029.118,0,0.281C39.76,26.759,39.961,27,40,27.294a0.828,0.828,0,0,1-.176.211,4.017,4.017,0,0,1-.458.211c-0.012-.159,0-0.147-0.141-0.176a0.239,0.239,0,0,1-.141.035,0.336,0.336,0,0,1-.106.175l0.035,0.07a0.943,0.943,0,0,1,.071.527h0.106a0.216,0.216,0,0,0,.071.07v0.07l-0.176.105a2.5,2.5,0,0,1-.035.6c0.024,0.052.2,0.055,0.106,0.14a0.141,0.141,0,0,1-.141.07,7.108,7.108,0,0,1-.176.772,0.238,0.238,0,0,1-.141.035,1.138,1.138,0,0,1-.317.456,1.172,1.172,0,0,1-.035.246l-0.176-.035a2.159,2.159,0,0,0-.423.562,1.991,1.991,0,0,1-.212-0.035c-0.064.027-.144,0.171-0.211,0.211L37,31.683a0.785,0.785,0,0,1-.07.14l-0.176-.035a1.578,1.578,0,0,1-.176.14H36.3c-0.173.05-.307,0.188-0.458,0.246l-0.388.035a2.655,2.655,0,0,0-.352.211l-0.458.07a1.812,1.812,0,0,0-.247.176,2.656,2.656,0,0,1-.493.07,2.632,2.632,0,0,0-.352.211l-0.564.105a2.261,2.261,0,0,1-.352.211,1.722,1.722,0,0,0-.493.07,1.274,1.274,0,0,1-.247.176,2.63,2.63,0,0,0-.493.07,1.14,1.14,0,0,1-.212.175c-0.18.059-.319-0.03-0.529,0.035a3.327,3.327,0,0,1-.388.176,2.3,2.3,0,0,0-.6-0.07,0.447,0.447,0,0,1-.317.07,0.885,0.885,0,0,0-.493-0.07,2.732,2.732,0,0,1-.7,0,0.445,0.445,0,0,0-.176.07,0.52,0.52,0,0,1-.352-0.07,1.124,1.124,0,0,0-.529.07,0.572,0.572,0,0,1-.282-0.07,0.814,0.814,0,0,0-.458.07,0.444,0.444,0,0,1-.317-0.07,0.879,0.879,0,0,0-.493.07,0.444,0.444,0,0,1-.317-0.07,0.874,0.874,0,0,0-.493.07,0.624,0.624,0,0,1-.388-0.07,2.155,2.155,0,0,0-.6.07,1.274,1.274,0,0,0-.564-0.07,0.523,0.523,0,0,1-.352.07,0.787,0.787,0,0,0-.458-0.07,0.524,0.524,0,0,1-.353.07,0.786,0.786,0,0,0-.458-0.07,2.007,2.007,0,0,1-.67,0,0.489,0.489,0,0,0-.212.07,0.624,0.624,0,0,1-.388-0.07,1.06,1.06,0,0,0-.493.07,0.507,0.507,0,0,1-.282-0.07,0.782,0.782,0,0,0-.458.07c-0.281.082-.432-0.16-0.74-0.07a4.1,4.1,0,0,1-1.269,0,2.539,2.539,0,0,0-.634.07,1.219,1.219,0,0,0-.6,0c-0.281.082-.432-0.16-0.74-0.07a0.628,0.628,0,0,1-.388.07,0.713,0.713,0,0,0-.423-0.07,0.544,0.544,0,0,1-.352.07,0.8,0.8,0,0,0-.458-0.07,0.543,0.543,0,0,1-.353.07,0.8,0.8,0,0,0-.458-0.07,0.523,0.523,0,0,1-.352.07,0.788,0.788,0,0,0-.458-0.07,2.447,2.447,0,0,1-.7,0,0.952,0.952,0,0,1-.458.07,3.323,3.323,0,0,0-.388-0.14,1.963,1.963,0,0,1-.458,0c-0.1-.035-0.27-0.144-0.388-0.176a2.751,2.751,0,0,1-.317,0c-0.152-.05-0.286-0.2-0.458-0.246l-0.388-.035a3.046,3.046,0,0,0-.352-0.211H7.648c-0.162-.048-0.293-0.2-0.458-0.246H6.872A3.349,3.349,0,0,1,6.52,32.7a1.5,1.5,0,0,0-.388-0.035,1.906,1.906,0,0,1-.352-0.211,1.172,1.172,0,0,0-.388-0.035,2.42,2.42,0,0,1-.458-0.246l-0.423-.035a2.116,2.116,0,0,1-.247-0.176c-0.157-.07-0.3-0.005-0.493-0.07a2.167,2.167,0,0,1-.352-0.281C3.3,31.54,3.165,31.579,3.031,31.507c-0.007,0-.722-0.744-0.74-0.772l-0.106-.386A2.833,2.833,0,0,1,1.938,30l0.035-.386c-0.014-.067-0.093-0.235-0.106-0.281a0.643,0.643,0,0,1,.106-0.421l0.035-.491a2.378,2.378,0,0,1,.317-0.527l0.106-.316A1.42,1.42,0,0,0,3.066,26.7L2.96,26.662V26.627c-0.036-.035-0.035.035-0.035,0.035a1.071,1.071,0,0,0-.106.351,1.686,1.686,0,0,1-.458,0L2.326,26.7a1.623,1.623,0,0,1-.282-0.14c-0.1-.033-0.185.031-0.282,0,0.014-.1.058-0.044-0.035-0.105-0.118.183-.334,0.286-0.458,0.456-0.09.124-.121,0.265-0.211,0.386-0.113.152-.309,0.271-0.423,0.421a0.9,0.9,0,0,1-.458.456A0.141,0.141,0,0,0,.035,28.1,0.442,0.442,0,0,0,0,27.961a6.846,6.846,0,0,0,1.163-1.369A2.479,2.479,0,0,0,1.656,26a0.229,0.229,0,0,1-.106-0.176,1.832,1.832,0,0,0,.211-0.667,3.178,3.178,0,0,0,.7-0.351h0.07v0.07a1.34,1.34,0,0,0,.846.035,0.3,0.3,0,0,0,.035-0.176c-0.039-.07-0.021-0.063,0-0.14H3.207V24.345c0.232-.043.263-0.05,0.247-0.386a2.463,2.463,0,0,1,.352-0.175,2.864,2.864,0,0,1,.035-0.562H6.1V23.116c0.043-.01.634-0.105,0.634-0.105a0.483,0.483,0,0,0,.211.07v0.105a0.3,0.3,0,0,0,.247-0.175,4.107,4.107,0,0,0,1.128.035,0.3,0.3,0,0,0,.176-0.105H9.057l1.48-.281V22.59c-0.048-.085-0.05-0.087.035-0.14v0.07a0.178,0.178,0,0,1,.035.105,2.3,2.3,0,0,0,.6-0.07,1.377,1.377,0,0,1,.07-0.246v0.035c0.032,0.034.087,0.206,0.106,0.14a7.224,7.224,0,0,0,1.833-.281,0.578,0.578,0,0,1,.282-0.316v0.105h0.071v0.035H13.6V21.993a0.343,0.343,0,0,1,.388-0.14,1.035,1.035,0,0,0,.529.035l0.035-.105a0.986,0.986,0,0,0,.176.07c0.454-.159.627-0.075,0.6-0.737a3.176,3.176,0,0,0,.035-1.123V6.194A4.683,4.683,0,0,1,15.4,5h0.035V21.115a0.464,0.464,0,0,1,.035.246h0.035a7.27,7.27,0,0,1,1.692-.035,1.219,1.219,0,0,0,.141-0.737,0.207,0.207,0,0,0,.176-0.14C17.363,20.383,17.442,20.216,17.445,20.062Z" transform="translate(0 0.516)"/>
</svg>
