<svg xmlns="http://www.w3.org/2000/svg" width="40" height="40" viewBox="0 0 40 40">
  <defs>
    <style>
      .cls-1 {
        fill: #fff;
        fill-rule: evenodd;
      }
    </style>
  </defs>
  <path id="germ_flarakpz_1_ico" class="cls-1" d="M9.065,7h0.2V7.779a2.777,2.777,0,0,0,.518.087V7H9.928a3.164,3.164,0,0,0,.058.923H9.928c-0.22.125-.639,0.026-0.662,0.346H9.295a0.591,0.591,0,0,1,.288-0.058L9.928,8.788a6.062,6.062,0,0,1,.288.98c0.136,0.558-.211.945-0.086,1.5a7.443,7.443,0,0,1,.288,1.009,0.478,0.478,0,0,1-.288.288c-0.211.158-.392,0.391-0.6,0.548-0.143.106-.294,0.176-0.432,0.288a0.1,0.1,0,0,1,.029.058H9.209v0.26H9.237v0.029l0.317,0.029V13.632h0.518v0.087a2.063,2.063,0,0,1,.576,0,0.57,0.57,0,0,0,.259.058,3.656,3.656,0,0,1,.6-0.086V13.6a0.412,0.412,0,0,1-.317-0.115,1.358,1.358,0,0,0,.691-0.288,1.862,1.862,0,0,1-.4-0.173l0.835-1.817a1.468,1.468,0,0,0,.6.173,1.447,1.447,0,0,0,.691.75,0.14,0.14,0,0,0-.029.144,0.194,0.194,0,0,0,.144.058l-0.086.259c-0.084,0-.04-0.028-0.086,0a0.1,0.1,0,0,1,.029.058c-0.058,0-.008-0.03-0.058,0a0.107,0.107,0,0,1-.058.144c-0.051.027,0,.006-0.057,0a2.241,2.241,0,0,1-.374.49,4.792,4.792,0,0,0,.547-0.029,0.306,0.306,0,0,1,.058.144,0.132,0.132,0,0,1-.029.115c-0.063.051-.534,0.107-0.691,0.173A5.865,5.865,0,0,1,10.5,14.3v0.058a0.617,0.617,0,0,1,.029.288h0.144v0.115a1.835,1.835,0,0,1,.4.317,7.478,7.478,0,0,0,1.669-.317l0.662-.115a1.22,1.22,0,0,0,.115-0.173,1.367,1.367,0,0,1,.518-0.259,1.052,1.052,0,0,1,.835.231c0.047,0.036.068,0.144,0.115,0.173l1.813,0.375a3.507,3.507,0,0,1,.288-0.432,1.941,1.941,0,0,0,0-.49c0.173-.022.095-0.078,0.2-0.144a2.389,2.389,0,0,0,.575.144,0.747,0.747,0,0,0,.058-0.144c-0.01-.066-0.156-0.173-0.2-0.288a0.818,0.818,0,0,1,.288-0.952c0.136-.1.326-0.006,0.46-0.115v0.144h0.086a0.616,0.616,0,0,1,.058-0.144,1.183,1.183,0,0,0,.345.086,0.956,0.956,0,0,1,.115-0.144,0.638,0.638,0,0,0,.086-0.317l0.23-.029,0.029,0.086h1.151a0.1,0.1,0,0,0,.029.058c-0.17.886,0.049,2.13-.029,3.085a3.325,3.325,0,0,1,.777.115,3.406,3.406,0,0,1,.6.058,0.588,0.588,0,0,1,.086.49c-0.007.012-.109,0.046-0.115,0.058a1.257,1.257,0,0,0,.029.548H21.842l0.029-.317H21.3V16.285a0.188,0.188,0,0,1,0-.173H21.209V16.2h-0.23V16.054H20.863v0.231H20.576v0.346h0.058a2.2,2.2,0,0,1,.317-0.115,1.16,1.16,0,0,0,.144.144v0.375a1.207,1.207,0,0,1-.518.058V17.15c0.024,0.071-.023.357,0,0.519a8.512,8.512,0,0,1,0,1.557H19.425v0.087H19.281a0.082,0.082,0,0,0-.029-0.029,4.658,4.658,0,0,0-.691-1.932,0.5,0.5,0,0,0-.317-0.4v0.029a4.8,4.8,0,0,1,.46.836c-0.285.333-.364,0.007-0.345,0.75a1.048,1.048,0,0,0-.144.577h0.029v0.029c0.278,0.016.338,0.07,0.6,0.087,0.026,0.07.031,0.046,0.058,0.115a2.01,2.01,0,0,0-.288.75h0.4v0.058H18.993l-0.23.115v0.029h0.173V20.264a2.9,2.9,0,0,1,.345.115,4,4,0,0,0,1.352.087V20.61a0.95,0.95,0,0,0,.374.058,6.417,6.417,0,0,1,1.151,0V20.437a1.539,1.539,0,0,1,.144-0.2h0.432a0.248,0.248,0,0,0,.144.029,3.867,3.867,0,0,0-.058.4c0.185-.014.358-0.057,0.6-0.058l0.029,0.2a2.4,2.4,0,0,1,.432.029l0.029-.231a0.139,0.139,0,0,1,.086.029,0.178,0.178,0,0,0-.029.173,0.42,0.42,0,0,0,.23.058l0.029-.2a1.048,1.048,0,0,0,.23-0.144c0.145,0.1.411,0.066,0.547,0.173a0.313,0.313,0,0,1,.029.173,0.4,0.4,0,0,0-.029.317,9.2,9.2,0,0,0,1.755.173v0.548H26.82a1.02,1.02,0,0,0,.576.144,0.5,0.5,0,0,1,.259-0.087c0,0.092-.035.07,0.086,0.087V21.994a0.382,0.382,0,0,1-.029-0.2,1.468,1.468,0,0,1-.6-0.029,7.586,7.586,0,0,1,.029-2.134h0.547l0.029,0.087a1.816,1.816,0,0,1,.058.75,8.752,8.752,0,0,0,.058,1.586c0.193,0.006.306,0.147,0.432,0.144a0.266,0.266,0,0,1,.2,0l0.086,0.231,1.036,0.231a0.165,0.165,0,0,1,.029-0.173,0.816,0.816,0,0,0,.374.087l0.115-.144c0.324,0.1.871,0.14,1.237,0.288a1.946,1.946,0,0,0,.317.058,0.205,0.205,0,0,1,.2-0.029v0.115a0.873,0.873,0,0,1,.2.029,0.437,0.437,0,0,1,.057.115,0.592,0.592,0,0,0-.115.288h0.115a0.193,0.193,0,0,0,.115.029V23.205a1.537,1.537,0,0,1,.432-0.029,1.175,1.175,0,0,0,.518-0.087,0.493,0.493,0,0,1,.288.087,1.214,1.214,0,0,0,.576-0.058c-0.006-.495,0-0.88,0-1.326a1.354,1.354,0,0,1,.058-0.634,1.391,1.391,0,0,1,.547-0.029l0.029,0.086a17.451,17.451,0,0,1,.086,2.018,1.5,1.5,0,0,1,.921.144,1.044,1.044,0,0,0,.2.2,3.136,3.136,0,0,0,.806,0v0.375a1.851,1.851,0,0,0,.691.231,6.656,6.656,0,0,1,.633-0.865,0.688,0.688,0,0,1,.288-0.346H38.82V24.3c0,0.139,0,.461,0,0.461a0.2,0.2,0,0,0,.086.115,0.249,0.249,0,0,0,.144.029c0.081-.133.428-0.52,0.691-0.346a0.408,0.408,0,0,1,.259.49,1.74,1.74,0,0,1-.173.231c-0.1.07-.213,0.079-0.316,0.144s-0.192.17-.288,0.231a1.045,1.045,0,0,0-.432.288,0.908,0.908,0,0,1,.316.49,0.986,0.986,0,0,0,0,.49,0.194,0.194,0,0,0,.144.058,0.328,0.328,0,0,1,.259-0.173,0.178,0.178,0,0,0,.057.058,1.4,1.4,0,0,1-.345.4c-0.6,0-.327-0.29-0.6-0.461a1.085,1.085,0,0,1-.432.4,0.359,0.359,0,0,0,0,.288c0.093,0.024.044-.014,0.086,0.058a3.817,3.817,0,0,0-.144.548,0.28,0.28,0,0,0-.2.058c0.016,0.079.063,0.226,0.057,0.231a3.749,3.749,0,0,1-.345.461,0.192,0.192,0,0,0-.2-0.029H37.41v0.029a0.3,0.3,0,0,1-.058.2,0.8,0.8,0,0,1-.432.259c-0.032-.057-0.074-0.054-0.2-0.058a0.3,0.3,0,0,1-.029.231,1.068,1.068,0,0,1-.46.26,0.14,0.14,0,0,0-.144-0.058,1.326,1.326,0,0,1-.115.231,4.032,4.032,0,0,1-.374.259c-0.087-.043-0.124-0.039-0.23-0.086a0.3,0.3,0,0,1-.086.259c-0.106.105-.27,0.152-0.374,0.259a0.534,0.534,0,0,0-.23-0.087,0.081,0.081,0,0,1-.029.029,0.235,0.235,0,0,1-.029.2c-0.1.126-.3,0.16-0.4,0.288a0.331,0.331,0,0,0-.2-0.087H33.986v0.029c-0.029.044-.022,0.149-0.057,0.2-0.106.106-.27,0.152-0.374,0.26a0.334,0.334,0,0,0-.23-0.058c-0.04.058-.045,0.173-0.086,0.231a0.98,0.98,0,0,1-.547.2,1.011,1.011,0,0,0-.173-0.115,0.113,0.113,0,0,1-.086.115v0.086l-0.6.029a0.2,0.2,0,0,0-.173-0.173c-0.059.233-.348,0.186-0.633,0.173-0.042-.073.006-0.032-0.086-0.058V31.8H30.82v0.086a1.921,1.921,0,0,1-.6.058c-0.042-.073.006-0.032-0.086-0.058V31.8H30.014v0.086a0.489,0.489,0,0,1-.23.058,0.952,0.952,0,0,1-.4.029V31.885a1.327,1.327,0,0,1-.144-0.086,0.378,0.378,0,0,0-.115.173H28.576a0.724,0.724,0,0,0-.086-0.2L28.4,31.8c-0.032.083,0,.053-0.086,0.086v0.087H27.77V31.885H27.684V31.8H27.568c-0.021.1-.035,0.072-0.058,0.173H26.964V31.885a0.989,0.989,0,0,0-.173-0.086,0.486,0.486,0,0,0-.086.173H26.158V31.885a0.265,0.265,0,0,0-.173-0.058,0.189,0.189,0,0,0-.086.144H25.324c-0.021-.1-0.035-0.072-0.057-0.173H25.151v0.086H25.065v0.087H24.518c-0.021-.1-0.035-0.072-0.058-0.173H24.345v0.086H24.259v0.087H23.712c-0.021-.1-0.035-0.072-0.058-0.173H23.54v0.086H23.453v0.087H22.907V31.885a1.327,1.327,0,0,1-.144-0.086,0.378,0.378,0,0,0-.115.173H22.1a0.727,0.727,0,0,0-.086-0.2l-0.086.029c-0.032.083-.005,0.053-0.086,0.086v0.087H21.3V31.885a0.509,0.509,0,0,0-.173-0.086,0.484,0.484,0,0,0-.086.173H20.489V31.885a0.509,0.509,0,0,0-.173-0.086,0.487,0.487,0,0,0-.086.173H19.684V31.885a0.817,0.817,0,0,1-.173-0.086,1,1,0,0,0-.086.173H18.878V31.885H18.791V31.8H18.676c-0.021.1-.035,0.072-0.058,0.173H18.072V31.885H17.986V31.8H17.871c-0.021.1-.035,0.072-0.058,0.173H17.237c-0.021-.1-0.035-0.072-0.058-0.173H17.065v0.086H16.978v0.087H16.432V31.885a0.126,0.126,0,0,1-.086-0.086,1,1,0,0,1-.173.086v0.087H15.626c-0.021-.1-0.035-0.072-0.058-0.173H15.453v0.086H15.367v0.087H14.82c-0.021-.1-0.035-0.072-0.057-0.173H14.648v0.086H14.561v0.087H14.014V31.885a0.509,0.509,0,0,0-.173-0.086,1,1,0,0,0-.086.173H13.209V31.885a0.989,0.989,0,0,0-.173-0.086,1,1,0,0,0-.086.173H12.4V31.885H12.317V31.8H12.2c-0.021.1-.035,0.072-0.057,0.173H11.568c-0.021-.1-0.035-0.072-0.058-0.173H11.4v0.086H11.309v0.087H10.763c-0.021-.1-0.035-0.072-0.058-0.173H10.59v0.086H10.5v0.087H9.957A1.03,1.03,0,0,0,9.842,31.8H9.813v0.029a0.167,0.167,0,0,0-.115.144l-0.6-.058a0.213,0.213,0,0,0-.173-0.231,0.316,0.316,0,0,1-.144.144A1.344,1.344,0,0,0,8.288,31.6,0.207,0.207,0,0,0,8.2,31.366a1.563,1.563,0,0,1-.2.058,0.827,0.827,0,0,1-.46-0.26,0.135,0.135,0,0,0-.115-0.173,0.19,0.19,0,0,1-.144.087,2.425,2.425,0,0,1-.489-0.231,0.53,0.53,0,0,0-.029-0.2c-0.3.053-.719,0.039-0.719-0.375a1.533,1.533,0,0,1-.288.087c-0.137-.019-0.255-0.173-0.432-0.2V30.068c-1.574.018-1.858-.553-2.446-1.5,0.126-.095.262-0.2,0.4-0.288a0.1,0.1,0,0,0-.058-0.029,1.282,1.282,0,0,0-.518-0.144v0.952H2.647v-0.4a0.367,0.367,0,0,1-.23-0.346A1.148,1.148,0,0,1,2.59,28.05H2.475a3.787,3.787,0,0,0-1.036-.288,0.432,0.432,0,0,0-.432-0.4,1.243,1.243,0,0,1,0,.75V27.819C1,27.808.9,27.772,0.892,27.761V27.617l0.086-.029A1.679,1.679,0,0,1,1.007,27.3a2,2,0,0,1,.058-0.721,0.61,0.61,0,0,1-.46-0.2l0.029-.086a0.452,0.452,0,0,1,.144-0.029,0.194,0.194,0,0,0,.2.115c0.2-.228-0.031-0.342-0.029-0.634,0-.089.187-0.237,0.144-0.259a1.131,1.131,0,0,0-.259-0.375,0.242,0.242,0,0,0,.058-0.087c-0.119-.1-0.186-0.368-0.288-0.432v0.029a0.477,0.477,0,0,0-.144.231C0.47,24.6.4,24.523,0.144,24.532v-0.75c0.006-.015.079-0.065,0.086-0.087l0.029-.346H0.23a0.2,0.2,0,0,1-.2.087H0V23.407c0.308-.047.161-0.244,0.288-0.461A0.467,0.467,0,0,1,.518,22.8c0.026-.235.011-0.419,0.029-0.634H0.4A2.293,2.293,0,0,1,.489,21.1v0.087A0.384,0.384,0,0,0,.863,21.1l-0.144-.2c-0.109-.083-0.236-0.117-0.345-0.2l-0.144-.2c-0.014-.318.08-0.512,0.374-0.519a1.175,1.175,0,0,1,.547.2,0.208,0.208,0,0,1,.23-0.115l-0.086-.49H1.9a1.263,1.263,0,0,1,.115.49c0.293,0,.432.057,0.806,0.058V20.091H2.849V20.062H2.82c-0.034-.127-0.1-0.17-0.144-0.288a0.111,0.111,0,0,0,.058-0.087,0.3,0.3,0,0,1-.173-0.029C2.536,19.637,2.529,19.622,2.5,19.6a0.1,0.1,0,0,1,.029-0.058,0.4,0.4,0,0,1,.4-0.231,0.3,0.3,0,0,1,.058.173c-0.051.054-.053,0.023-0.029,0.086,0.029,0.022.074,0,.115,0.029a2.2,2.2,0,0,1,.23.346V20.12a3.637,3.637,0,0,0,1.122-.058v0.2a1.45,1.45,0,0,0,0,.663H5.007c0.034-.182.089-0.213,0.317-0.2,0.054,0.051.023,0.053,0.086,0.029a5.261,5.261,0,0,0,1.007-.519,2.045,2.045,0,0,1,.345-0.259v0.058a1.842,1.842,0,0,0-.029.692,0.341,0.341,0,0,0,.173.058,0.383,0.383,0,0,1,.259-0.058c0.034,0.01.01,0.064,0.086,0.058a0.756,0.756,0,0,1,.317-0.029v0.058A0.147,0.147,0,0,1,7.6,20.9a0.368,0.368,0,0,1,.2.087l0.288-.029a8.52,8.52,0,0,0,1.007.029,4.04,4.04,0,0,0-.058-1.153A1.936,1.936,0,0,1,9.094,19.2a6.561,6.561,0,0,0-.288-1.384,1.284,1.284,0,0,0-.115-0.086,1.593,1.593,0,0,0-.029-0.461L8,17.957H7.971V17.929H7.942V17.9a2.14,2.14,0,0,0,.777-0.952H8.691a1.447,1.447,0,0,1-.374.375V17.265a1.905,1.905,0,0,0,.173-0.259c0.091,0.018.085,0.023,0.144-.058a3.326,3.326,0,0,0,.173-0.605L8.432,16.17V15.3A0.2,0.2,0,0,1,8.4,15.189a1.127,1.127,0,0,0,.547-0.548H9.094A1.625,1.625,0,0,1,9.122,14.3H8.317a4.562,4.562,0,0,0,.058-0.461,0.4,0.4,0,0,1-.086-0.058V13.2A0.408,0.408,0,0,1,8.2,13.142l-0.029-.49a3.136,3.136,0,0,1-.029-1.125v-0.49a8.673,8.673,0,0,1,.288-1.125c0.134-.328.347-0.683,0.46-1.009,0.069-.2.013-0.5,0.086-0.663H9.065V7.923H8.835V7.865a0.185,0.185,0,0,1,.144-0.058,0.147,0.147,0,0,1,.086-0.029V7ZM0.978,28.136a0.4,0.4,0,0,1,0,.317V28.136Zm-0.029.346a0.2,0.2,0,0,1,0,.2v-0.2Zm-0.029.2a0.084,0.084,0,0,1,0,.115V28.684Z" transform="translate(0 0.5)"/>
</svg>
