<svg xmlns="http://www.w3.org/2000/svg" width="80" height="40" viewBox="0 0 80 40">
  <defs>
    <style>
      .cls-1 {
        fill: #fff;
        fill-rule: evenodd;
      }
    </style>
  </defs>
  <path id="germ_rboot_r301_ico" class="cls-1" d="M50.472,12.96v0.152c-0.8-.012-2.361-0.174-2.68.2a10.552,10.552,0,0,0,0,1.515h0.05a7.364,7.364,0,0,1,1.886-.051l-0.05-.455a9.848,9.848,0,0,1-.844-0.758h0.1a8.126,8.126,0,0,0,1.935.252,6.117,6.117,0,0,1,.347,1.263h1.141a3.192,3.192,0,0,1,.5-0.1l0.1-.808a1.019,1.019,0,0,1-.4-0.354,2.2,2.2,0,0,1,.1-0.909,0.919,0.919,0,0,1,.6-0.2,0.857,0.857,0,0,1,.3.354,0.987,0.987,0,0,1,0,.859l-0.1-.05c0.038,0.288-.222.193-0.248,0.606a0.719,0.719,0,0,1,.1.505,3.208,3.208,0,0,0,.893.051V14.778h0.1a0.755,0.755,0,0,0,.645-0.05V14.98h-0.05a1.327,1.327,0,0,0-.6-0.05v0.1H54.74a1.619,1.619,0,0,0,.695.05c0.081,0.8.328,1.357,0.4,2.172a2.091,2.091,0,0,1,.992.2,7.6,7.6,0,0,0,1.142-.05,0.807,0.807,0,0,0,.05-0.253c-0.138,0-.107.059-0.149-0.151,0.126-.073.056,0.011,0.1-0.151-0.069-.011.02,0.041-0.05,0.05-0.038.1-.05-0.1-0.05-0.1a4.977,4.977,0,0,0-.05-1.465l0.149-.05c0.325-.277,2.175-0.168,2.779-0.152V14.677a0.317,0.317,0,0,1-.2-0.05h0.248a2.32,2.32,0,0,1,.05.656,5.872,5.872,0,0,1,.2,1.717l4.119-.151v-0.1a0.406,0.406,0,0,1-.149-0.4,5.431,5.431,0,0,0,.5-0.4H63.424c-0.015-.386-0.039-0.589.3-0.606a1.406,1.406,0,0,1,.3,0,0.541,0.541,0,0,1,.05-0.3v0.2l0.5-.05,0.05-.354c0.122-.065.034,0.022,0.1-0.1a0.435,0.435,0,0,0,.347.152l-0.05.454h0.149v-0.3a0.169,0.169,0,0,0,.1-0.051,2.164,2.164,0,0,0,.447.051,1.675,1.675,0,0,0-.149-0.505h0.248c0.07,0.425.162,0.536,0.695,0.505,0.368,0.621.709,0.482,1.638,0.454v0.1H66.8v0.05a1.222,1.222,0,0,0,.3.4c0.524,0.325,1.711-.227,2.233.1a13.679,13.679,0,0,1-2.382-.05,0.57,0.57,0,0,0-.744-0.505v0.1c0.58,0.7-.16,1.107,1.34,1.061,0.406-.252,1.574.026,2.134-0.1s1.232,0.036,1.836-.1a7.687,7.687,0,0,1,2.035,0,8.654,8.654,0,0,0,1.985-.253,1.584,1.584,0,0,0,.943,1.111c0.377-.257.661,0.233,0.993,0.3L80,17.455v0.05a7.784,7.784,0,0,0-.546,1.616c-0.9,2.23-1.288,5.276-3.226,6.465-1.314.806-3.12,0.766-4.864,1.162l-1.836.05c-0.387.086-.99-0.049-1.439,0.051a19.342,19.342,0,0,1-3.126.05c-2.582.088-5.375,0.05-8.04,0.05C49.245,26.95,41.359,27,33.6,27H23.077c-1.618-.382-3.409-0.542-5.012-0.96a10.765,10.765,0,0,1-2.332-.505,10.315,10.315,0,0,0-1.538.1H13.052c-0.293.065-.787-0.029-1.141,0.051a7.315,7.315,0,0,1-1.638.151,0.614,0.614,0,0,1-.248.5,0.374,0.374,0,0,0-.2-0.2,0.2,0.2,0,0,1-.149.2,3.138,3.138,0,0,1,0-.5,4.556,4.556,0,0,0-2.233.1c-0.123.193-.024,0.342-0.3,0.4a0.682,0.682,0,0,0-.1-0.2H7a0.2,0.2,0,0,1-.149.2v-0.05a0.537,0.537,0,0,1,0-.4A0.671,0.671,0,0,1,6.5,25.737h0.05c0.055-.073.206-0.091,0.248-0.152s0.112-.524.149-0.606a0.169,0.169,0,0,1,.1.05,0.984,0.984,0,0,0,.5.505,9.74,9.74,0,0,0-.05-1.162l-1.638-.1v0.151l0.5,0.05v1.818H4.566V24.374l1.141,0.05V24.273a3.226,3.226,0,0,1-1.39-.1,6.862,6.862,0,0,1-.546-1.061c-0.417-.7-0.822-1.473-1.241-2.172-0.241-.4-0.2-0.905-0.844-0.909A8.52,8.52,0,0,1,.6,20.535c0.006,0.326-.038.482-0.347,0.505C0.17,20.886.083,20.681,0,20.535a1.872,1.872,0,0,0,.447-0.354,3.608,3.608,0,0,1,2.035-.606V18.263H2.928a0.331,0.331,0,0,1,.05-0.2v0.2h8.089l0.05-.454h0.4l0.05,0.4a7.8,7.8,0,0,0,2.084.05c-0.017-.628-0.116-1.466-0.149-2.121h0.149a5.566,5.566,0,0,1,0-.909,0.5,0.5,0,0,1-.149-0.354h0.05v-0.05a0.168,0.168,0,0,1,.1.05,2.278,2.278,0,0,1,.3,1.263h0.149v0.3H14a12.482,12.482,0,0,0,0,1.818c0.454,0,.9-0.032,1.29-0.05q-0.025-.884-0.05-1.768c-0.288,0-.1-0.161-0.248-0.4-0.038-.034-0.111-0.066-0.149-0.1a0.317,0.317,0,0,0,.2-0.05,0.443,0.443,0,0,0,.05-0.252h0.149a12.4,12.4,0,0,1,.1,2.424,1.45,1.45,0,0,0,.992.151h2.581a1.894,1.894,0,0,0-.1-0.555,0.375,0.375,0,0,1-.3,0l-0.05-.253a0.784,0.784,0,0,0,.546-0.3v-0.05H15.682V16.9l3.524-.05v-0.2h0.1a0.75,0.75,0,0,1,.447,0V16.495h1.092v-0.3h0.347v0.3h0.6c0-.006-0.015-0.177.05-0.1v0.1a1.628,1.628,0,0,0,.248.354,0.724,0.724,0,0,1,.2.05h0.05v0.151a1.2,1.2,0,0,0,0,.4,2.124,2.124,0,0,0-.6.455,1.366,1.366,0,0,1-.893-0.1v0.2a0.345,0.345,0,0,0-.05.2l1.638-.05A1.545,1.545,0,0,1,23.524,17.1l0.5,0.05a6.536,6.536,0,0,1,1.489-.1c0-.2.179-0.94,0.149-0.96h0.248a0.67,0.67,0,0,1,.447.1,1.365,1.365,0,0,1,.1.909h0.1a4.6,4.6,0,0,1,1.141-.05,1.735,1.735,0,0,0,.744.3,0.172,0.172,0,0,0,0,.151,0.3,0.3,0,0,1,.248.152,1.929,1.929,0,0,0,.2.4c0.1,0,.014.052,0.1,0a2.369,2.369,0,0,0,.4-0.454c0.088,0.132,0,.071.149,0.05a0.246,0.246,0,0,0,.05.151,1.045,1.045,0,0,1,.844-0.3v0.2h0.3V17.4a0.465,0.465,0,0,1,.447-0.1,4.243,4.243,0,0,1,.149-1.061h0.248a3.956,3.956,0,0,0,.546.151c0.173,0.082.287,0.382,0.447,0.455h1.29a0.33,0.33,0,0,1,.05-0.2v0.2h0.546l0.546-1.465H34.442a0.637,0.637,0,0,1-.347.556,9.139,9.139,0,0,1-2.233,0c0.768,0,1.588-.03,2.283-0.05,0.083-.152.171-0.335,0.248-0.505H33.2a0.25,0.25,0,0,1-.149.05V15.283c0.4,0.016.872,0.05,1.34,0.05a0.852,0.852,0,0,1,.347-0.5,0.735,0.735,0,0,0,.5-0.1,0.777,0.777,0,0,0,.149-0.4h0.248v0.1a1.672,1.672,0,0,0-.2.4h0.6v0.3h0.149l-0.05-.4a0.893,0.893,0,0,1,.3-0.05,0.247,0.247,0,0,1,.05-0.152v0.1c0.343,0.225-.075.415,0.645,0.4a0.247,0.247,0,0,1,.05-0.152c-0.006.269-.1,0.239,0.2,0.252a2.2,2.2,0,0,1,.347,0,0.3,0.3,0,0,0,.1.354,0.535,0.535,0,0,1,.149-0.454l0.4,0.152v0.05H38.213a0.893,0.893,0,0,0,.1.455l-0.05.96h0.1a0.5,0.5,0,0,1,.3-0.253v0.051a0.539,0.539,0,0,1,.3.4h0.695c0.172-.114-0.059-0.2.347-0.253a0.505,0.505,0,0,0,.2.253,0.561,0.561,0,0,1,.4-0.455v0.051a0.539,0.539,0,0,1,.3.4h0.3a0.33,0.33,0,0,1,.05-0.2v0.2h3.672V15.586l0.149-.051V15.182h0.1a5.988,5.988,0,0,0-.1-1.717h0.4c0-.467.024-0.532,0-0.909A3.524,3.524,0,0,1,47,12.051a4.53,4.53,0,0,1,.6.606h0.248a0.8,0.8,0,0,1,.2.3A22.878,22.878,0,0,1,50.472,12.96Zm7.3,3.081a0.182,0.182,0,0,1,.05.1h-0.05v-0.1ZM18.412,17.4v0.152H18.164l-0.05-.1Zm-0.447.1a0.237,0.237,0,0,1,.149.051h-0.1l-0.05.051v-0.1Z" transform="translate(0 0.469)"/>
</svg>
