<svg xmlns="http://www.w3.org/2000/svg" width="40" height="40" viewBox="0 0 40 40">
  <defs>
    <style>
      .cls-1 {
        fill: #fff;
        fill-rule: evenodd;
      }
    </style>
  </defs>
  <path id="germ_sdkfz_221_s_pz_b_41_ico" class="cls-1" d="M23.137,11.788v0.164h0.1a2.125,2.125,0,0,1,0,.624h0.392a0.787,0.787,0,0,1,.425-0.033,9.2,9.2,0,0,1,1.373-.033v0.23H24.9v0.066H25.2a4.314,4.314,0,0,0,1.405.131c0.027-.107-0.016-0.05.065-0.1v0.1h0.327a0.489,0.489,0,0,0-.2-0.3l0.033-.164a0.994,0.994,0,0,0-.36-0.46,0.413,0.413,0,0,0,0-.361H26.5v0.066a0.572,0.572,0,0,0,.163.2,0.236,0.236,0,0,0,.131-0.164,0.222,0.222,0,0,1-.065-0.164h0.033v0.066a0.616,0.616,0,0,1,.1.164c0.094-.04.172-0.061,0.229,0.033H27.059a0.321,0.321,0,0,1-.163.1,1.047,1.047,0,0,1,.2.427,0.236,0.236,0,0,1,.261.066,0.126,0.126,0,0,0-.033.164c-0.095,0-.045-0.032-0.1,0a0.665,0.665,0,0,1,.1.3,2.929,2.929,0,0,0,.752.033h1.6a15.526,15.526,0,0,1,2.059.033L35.817,13l1.046-.033,0.033-.1a0.759,0.759,0,0,1,.425,0V13.5H36.9a0.871,0.871,0,0,0-.065-0.131H34.967l-4.771.066a2.263,2.263,0,0,1-.065.46H30.2a1.914,1.914,0,0,0,.294.066v0.033a0.89,0.89,0,0,0-.294.033l0.033,0.1h-0.1v0.164c-0.683.046-1.408,0-2.157,0a1.271,1.271,0,0,0,.065.23c0.113-.019.195-0.077,0.261,0.033a0.23,0.23,0,0,0-.163.2,1.28,1.28,0,0,1,.163.329H28.235V15.007a0.447,0.447,0,0,0-.229-0.3,0.637,0.637,0,0,1-.131.066l0.131,0.3H27.941V15.007a1.274,1.274,0,0,0-.229-0.3c0.046-.078.056-0.019,0.033-0.1a1,1,0,0,0-.1-0.2,1.311,1.311,0,0,1-.49.131,0.311,0.311,0,0,0-.1-0.1v0.033a0.8,0.8,0,0,1,.033.361H27.059c-0.048-.083-0.014-0.051-0.131-0.066v0.131h0.1V15.27a8.919,8.919,0,0,1,1.863.066c0.087,0.068.116,0.194,0.2,0.263l0.2,0.033a0.943,0.943,0,0,1,.523.361,4.479,4.479,0,0,0,.457,1.15,0.25,0.25,0,0,0-.033.164,1.684,1.684,0,0,0,1.144.526V16.124a16.389,16.389,0,0,1,2.745.033V15.894c-0.132-.05-0.112-0.079-0.1-0.2l0.1-.033c0.074,0,.12-0.007.131,0.164a2.131,2.131,0,0,0-.065.854c-0.126.594,0.074,1.513-.033,2.069a7.738,7.738,0,0,0,1.536.493V18.686h0.065V18.555h0.065V17.471H35.784a0.219,0.219,0,0,1-.131.033c0-.521,0-1.022,0-1.544h0.163v-0.1a0.441,0.441,0,0,1-.2-0.164l0.065-.2a0.513,0.513,0,0,1,.229-0.066c0.116,0.129.218,0.224,0.065,0.394l-0.1.033v0.756c0.029,0.366,0,.945,0,1.412v0.526a1.754,1.754,0,0,1,.1.821,2.582,2.582,0,0,1,.719.328c0.045-.1.087-0.214,0.131-0.328-0.081-.043-0.022.014-0.065-0.066,0.117-.055.078-0.1,0.065-0.3H36.209c-0.08.041,0.016,0.1-.1,0.066-0.083-.048-0.037.007-0.065-0.1,0.165-.109.086-0.445,0.261-0.558a2.617,2.617,0,0,1,1.9.164,1.16,1.16,0,0,1,.1.164H37.516v0.033a0.78,0.78,0,0,0-.425.525,2.846,2.846,0,0,1,.1.394c0.281-.1.283,0.135,0.261,0.427a0.148,0.148,0,0,1,.131.033,0.113,0.113,0,0,1-.033.066,1.763,1.763,0,0,1-.359.263h0.033c0.155,0.318.426,0.541,0.588,0.854h0.065a0.944,0.944,0,0,1,.294-0.952,0.805,0.805,0,0,1,.49-0.131c0.048,0.107.152,0.134,0.2,0.23a3,3,0,0,1,.065,1.314,1.242,1.242,0,0,0-.229.755h0.1v-0.1h0.1a2.381,2.381,0,0,0,.523,1.051H39.8a0.3,0.3,0,0,1,.2.328,1.015,1.015,0,0,0-.229.394l0.131,0.1a0.81,0.81,0,0,1,0,.591,0.774,0.774,0,0,1-.588.23,2.211,2.211,0,0,1-.523-0.526,1.088,1.088,0,0,1-.131.131c0-.125.032-0.09-0.131-0.1a1.579,1.579,0,0,1-.621.1,3.853,3.853,0,0,1-2.843,4.073,3.74,3.74,0,0,1-2.091-.1l-0.588-.2a3.733,3.733,0,0,1-2.059-3.186H30v0.033a12.869,12.869,0,0,1,.1,1.478H29.706l-0.065-1.511H20.392a3.6,3.6,0,0,1-1.6.164,24.1,24.1,0,0,0-4.542-.164,3.812,3.812,0,0,1-7.614-.066,2.717,2.717,0,0,1-.948-0.3v0.164a2,2,0,0,1,.033.46,6.408,6.408,0,0,1,.2,1.248H5.556V24.927H5.523V24.894c-0.09,0-.2.044-0.229,0.033l-0.033-.1a4.44,4.44,0,0,1-1.307-.558c-0.049.055-.024,0.033-0.065,0.033a1.148,1.148,0,0,1-.1-0.1c-0.049.055-.024,0.033-0.065,0.033a4.613,4.613,0,0,0-.784-0.427,0.945,0.945,0,0,1-.458-0.131,0.082,0.082,0,0,0-.065-0.1A1.946,1.946,0,0,0,1.6,23.219C1.28,23.732,1.3,24.214.523,24.3a1.038,1.038,0,0,1-.229-0.164,0.833,0.833,0,0,0-.1-0.2,0.685,0.685,0,0,0,.1-0.361A1.884,1.884,0,0,1,0,23.318V23.153l0.163-.23a3.761,3.761,0,0,0,.49-0.263,0.558,0.558,0,0,1,.1-0.3c0.033-.023.131-0.042,0.163-0.066a0.119,0.119,0,0,0,.033-0.066c-0.081-.043-0.022.014-0.065-0.066,0.031-.018.141-0.044,0.131-0.1A0.045,0.045,0,0,1,.98,22l0.1-.033-0.033-.1,0.131-.066a0.887,0.887,0,0,0,.065-0.23c0.021-.03.114-0.04,0.131-0.066l-0.033-.1c0.02-.031.114-0.041,0.131-0.066l-0.033-.1a2.159,2.159,0,0,1,.229-0.23c0-.033.031-0.227,0.033-0.23,0.02-.032.114-0.04,0.131-0.066A0.82,0.82,0,0,1,1.9,20.46a1.125,1.125,0,0,1,.131-0.033l-0.033-.1c0.02-.031.114-0.041,0.131-0.066l-0.033-.1c0.037-.064.167-0.164,0.2-0.23l-0.033-.066c0.021-.03.113-0.041,0.131-0.066l-0.033-.1c0.02-.031.114-0.04,0.131-0.066l-0.033-.1a2.01,2.01,0,0,1,.229-0.23l-0.033-.1c0.035-.051.157-0.046,0.2-0.1a3.369,3.369,0,0,1,1.405-.92,8.015,8.015,0,0,1-.621-1.38c0.808-.362,1.591-0.751,2.418-1.117a2.827,2.827,0,0,1,.915-0.427,1.5,1.5,0,0,1,.261.624v0.033c-0.064.014-.024-0.05-0.065,0a3.078,3.078,0,0,1,.359.723,3.891,3.891,0,0,0,.686-0.3v-0.1c0.078-.077.247-0.056,0.327-0.131,0.095-.09-0.006-0.121.163-0.164A1.449,1.449,0,0,0,9.706,15.7l0.033-.1a3.474,3.474,0,0,1,.784,0,1.955,1.955,0,0,0,.784-0.066c-0.106-.027-0.05.016-0.1-0.066h0.817v0.066c0.032,0.019.126,0.064,0.131,0.066h2.484a3.463,3.463,0,0,0,1.144-.066H15.131V15.467a2.139,2.139,0,0,0,.327-0.493c0.249-.357.535-0.728,0.784-1.084a1.418,1.418,0,0,1,.229-0.394H20.36a0.552,0.552,0,0,0-.033-0.263H20.261a2.96,2.96,0,0,1,.163-0.657c-0.074.013-.035,0.03-0.1,0a0.382,0.382,0,0,0,.065-0.1,3.088,3.088,0,0,0,.85-0.2,1.031,1.031,0,0,0,.359.033,0.349,0.349,0,0,0,.2-0.3H21.83V11.985H21.536a0.262,0.262,0,0,1-.229,0v-0.2c0.421,0,.688,0,1.078,0V11.723c-0.086-.112-0.107-0.285-0.2-0.394-0.06,0-.029.031-0.065-0.033H22.092a0.882,0.882,0,0,1,.033-0.3c0.017,0.133.007,0.134,0.131,0.164a0.452,0.452,0,0,1,.392-0.131v0.033H22.68a0.439,0.439,0,0,0-.163.263,1.9,1.9,0,0,0,.261.3l-0.1.033,0.033,0.1A1.473,1.473,0,0,0,23.137,11.788ZM25.523,15.4v0.164h0.033a0.572,0.572,0,0,1,.686-0.3V14.909h0.1V14.777a0.205,0.205,0,0,0-.163.066V14.35a0.118,0.118,0,0,0,.033-0.066H25.49a4.948,4.948,0,0,1-.719,0h-1.7v0.033a1.6,1.6,0,0,1,.261.3L23.954,15.2C24.623,15.2,24.838,15.395,25.523,15.4Zm5.948,0.755a5.4,5.4,0,0,0,.817.756,1.508,1.508,0,0,0,.458.427,1.974,1.974,0,0,1,.49-0.46,8.56,8.56,0,0,1,.719-0.69V16.157H31.471Zm-0.065.066v1.642a1.836,1.836,0,0,0,.588.164,3.032,3.032,0,0,0,.654-0.657Zm2.582,0a1.551,1.551,0,0,1-.327.3,8.554,8.554,0,0,1-.882.854v0.033h0.033a7.8,7.8,0,0,0,1.209,1.15V16.88A1.77,1.77,0,0,0,33.987,16.223ZM32.68,17.471c-0.164.249-.457,0.376-0.621,0.624,0.665,0.077,1.18.51,1.863,0.558V18.588A8.75,8.75,0,0,0,32.68,17.471Zm5.948,7.292a0.119,0.119,0,0,1,.033.066c-0.105.083-.15,0.217-0.261,0.3V25.058A1.045,1.045,0,0,0,38.628,24.763Zm-0.261.361a0.185,0.185,0,0,1-.1.2,0.093,0.093,0,0,1-.033.033V25.288A0.529,0.529,0,0,0,38.366,25.124Zm-0.163.23a0.119,0.119,0,0,1,.033.066c-0.106.083-.15,0.217-0.261,0.3V25.65A1.042,1.042,0,0,0,38.2,25.354Z"/>
</svg>
