<svg xmlns="http://www.w3.org/2000/svg" width="40" height="40" viewBox="0 0 40 40">
  <defs>
    <style>
      .cls-1 {
        fill: #fff;
        fill-rule: evenodd;
      }
    </style>
  </defs>
  <path id="Color_Fill_1" data-name="Color Fill 1" class="cls-1" d="M20.174,15.251a2.657,2.657,0,0,0,.646,1.207h3.528a2.175,2.175,0,0,0,1.044.1h2.584l6.36,0.05a6.521,6.521,0,0,0,2.733-.1c0.362-.142.588,0.114,0.944,0a3.9,3.9,0,0,0,.646-0.453c0.125,0.353.773,0.174,1.143,0.151a3.812,3.812,0,0,1,.2,1.257c-0.228.2-.123,0.358-0.6,0.352a0.816,0.816,0,0,0-.845.151c-0.18-.62-0.9-0.26-1.491-0.453a3.273,3.273,0,0,0-1.491-.151,24.1,24.1,0,0,1-4.074.05l-7.155.1v0.1a1.631,1.631,0,0,0-.05.251h0.1c0.339-.236.742,0.278,0.745,0.6a0.967,0.967,0,0,1-.7.4,1.68,1.68,0,0,1-1.043.1v0.05a3.1,3.1,0,0,1,.348,2.564,7.34,7.34,0,0,0-.348,1.006,0.238,0.238,0,0,1,.149.05c-0.695.018-1.163,0.774-1.838,1.006a3.127,3.127,0,0,1-3.926-2.162,10.1,10.1,0,0,0-4.422.1l-3.677.4c-0.763.177-1.613,0.111-2.435,0.3a11.97,11.97,0,0,1-2.435.3,0.89,0.89,0,0,1-.894,1.156,1.472,1.472,0,0,1-.845.2L3.031,23.8a2.394,2.394,0,0,0-.8.151,0.756,0.756,0,0,1,.3-0.654,1.156,1.156,0,0,0,.1-0.754A2.977,2.977,0,0,1,1.54,21.335a1.033,1.033,0,0,0,.5-0.05c-0.563-.158-0.462-0.824-0.944-1.006C0.808,20.087.313,20.14,0.05,19.927a0.182,0.182,0,0,1-.05-0.1,0.7,0.7,0,0,1,.2-0.05c0.6,0.409,1.228.107,1.59,0.855a0.239,0.239,0,0,0-.149.05,3.586,3.586,0,0,1,.348.4h0.1a0.863,0.863,0,0,0,.2-0.453,0.4,0.4,0,0,0-.3-0.352,2.654,2.654,0,0,0-.994-0.3v-0.2a2.464,2.464,0,0,1,1.64.754c-0.034.125-.117,0.093-0.05,0.151a1.115,1.115,0,0,0,.248.4h0.1c0.056-.144.009-0.093,0.149-0.151v-0.2h0.3v0.05a1.309,1.309,0,0,0-.149.4h0.1a4.12,4.12,0,0,0,.6.2,0.245,0.245,0,0,0-.05.251,0.32,0.32,0,0,0,.3,0v0.151l0.646-.05,0.05-.352H5.118v0.3l0.4-.05v-0.1a0.258,0.258,0,0,0,.05-0.151H5.814v0.2l3.627-.453v-0.3h0.2v0.251l0.547-.05V20.883a0.629,0.629,0,0,1,.5-0.2,2.28,2.28,0,0,1,1.093-.1,1.56,1.56,0,0,0,.149.251,6.178,6.178,0,0,1,1.59-.2c0.46-.107,1.074-0.144,1.54-0.251l0.8-.05a0.729,0.729,0,0,0,.1-0.151l0.8-.151c0-.207-0.082-0.191.2-0.2a2.218,2.218,0,0,1,.547-0.1V19.073h-0.05a0.38,0.38,0,0,1-.348.452,0.436,0.436,0,0,1-.149-0.2,0.672,0.672,0,0,1-.1-0.453,3.122,3.122,0,0,0-.5.05l-0.149.4h-0.05v-0.05a0.6,0.6,0,0,1,0-.4,3.329,3.329,0,0,0-.944.251c-0.006-.191.049-0.138-0.2-0.151a2.059,2.059,0,0,0-1.093-.1,19.474,19.474,0,0,0-3.13.151,1.357,1.357,0,0,0-.3-0.553,0.252,0.252,0,0,1-.149.05,0.721,0.721,0,0,1-.05-0.2l0.248-.1a0.992,0.992,0,0,1,0-.3,14.96,14.96,0,0,1,3.031-.05v-0.05h0.05a0.633,0.633,0,0,1,.3-0.754c0.363-.227.428,0.121,0.4-0.6h-0.2V15.905l0.447,0.05a0.272,0.272,0,0,1,.149-0.2c0.077-.036.007-0.007,0.149,0v0.151l0.944,0.05a0.456,0.456,0,0,1,.447-0.1v-0.1a0.571,0.571,0,0,0-.05-0.4,3.664,3.664,0,0,1,.348-0.151v0.05a0.615,0.615,0,0,0,.149.3,3.561,3.561,0,0,1,.994-0.151c0.591-.14,1.335-0.222,1.839-0.4a1.619,1.619,0,0,0,.4.05A0.532,0.532,0,0,0,20.174,15.251Zm19.379,2.162v-0.8H38.907a1.641,1.641,0,0,0-.1.754A2.624,2.624,0,0,0,39.553,17.413Zm-0.994-.05a2.418,2.418,0,0,0-.05-0.7,0.17,0.17,0,0,0-.1.05c-0.295.055-.361,0.129-0.348,0.5h0.05v0.05Zm-24.447.5h0.2v-0.4h-0.1v0.05A0.431,0.431,0,0,0,14.112,17.866Zm9.143-.05V17.564a6.375,6.375,0,0,0-1.689.05,1.914,1.914,0,0,1,.547.2h1.143Zm-6.261,1.056a0.178,0.178,0,0,0,.1.05A0.179,0.179,0,0,0,16.994,18.872Zm0,0.151a0.282,0.282,0,0,0,.149.3v-0.2h0.05v-0.05h-0.05A0.252,0.252,0,0,0,16.994,19.022Zm5.814,1.358a2.3,2.3,0,0,0-.1-0.553h-0.05v0.05a0.583,0.583,0,0,0-.1.151h-0.05c-0.01-.181.074-0.1-0.1-0.151a2.879,2.879,0,0,0-.348.5h0.745Zm-3.677-.3V19.927H18.783v0.1h-0.05v0.05h0.1A0.537,0.537,0,0,1,19.13,20.078Zm0.1-.1v0.1a1.311,1.311,0,0,1,.3.1v-0.05A1.832,1.832,0,0,0,19.23,19.978Zm-7.751.754a0.551,0.551,0,0,0,.1.151,0.386,0.386,0,0,0,.149-0.151H11.478Zm-0.895.05a0.251,0.251,0,0,1-.149.05,0.306,0.306,0,0,1-.1.1v0.1h0.05a0.427,0.427,0,0,1,.248-0.05,0.173,0.173,0,0,1,.05-0.1v-0.1h-0.1Zm0.447,0a1.415,1.415,0,0,1-.248.1v0.05H11.13a0.5,0.5,0,0,0,.248-0.151H11.031Zm11.23,0.1a0.427,0.427,0,0,1-.248.05v0.05h-0.05a0.173,0.173,0,0,0,.05.1c0.157,0.159.392,0.241,0.547,0.4l0.149-.05v-0.1A0.929,0.929,0,0,1,22.261,20.883Zm0.5,0v0.1h0.05A0.173,0.173,0,0,0,22.758,20.883Zm-20.323.05-0.05.251h0.1a0.85,0.85,0,0,0,.3.1v-0.05A0.837,0.837,0,0,1,2.435,20.933Zm16.994,0.1v0.1h0.05v-0.1h-0.05Zm3.18,0.05-0.05.151h0.149A0.191,0.191,0,0,0,22.609,21.084Zm-2.882.352a3.027,3.027,0,0,0-.6.4h-0.05v0.05h0.05a1.591,1.591,0,0,0,1.391.8,2.509,2.509,0,0,0,.05-0.7,0.183,0.183,0,0,1-.05-0.1A2.043,2.043,0,0,1,19.727,21.436Zm1.242,0.453-0.05.754a1.059,1.059,0,0,0,.348.05c0.4-.3,1.034-0.327,1.143-0.9a1.769,1.769,0,0,0-.7-0.3A1.477,1.477,0,0,1,20.969,21.888Z" transform="translate(0 0.516)"/>
</svg>
