<svg xmlns="http://www.w3.org/2000/svg" width="40" height="40" viewBox="0 0 40 40">
  <defs>
    <style>
      .cls-1 {
        fill: #fff;
        fill-rule: evenodd;
      }
    </style>
  </defs>
  <path id="germ_begleitpanzer_57_ico" class="cls-1" d="M17.751,13l0.312,0.913H17.951v0.152h0.534a0.837,0.837,0,0,0,.69.456,2.556,2.556,0,0,1,.045-0.587,0.621,0.621,0,0,1,.223-0.043,0.081,0.081,0,0,0,.045.022,0.39,0.39,0,0,0,.067.087v0.239h0.2v0.283c1.428,0.006,2.99-.062,4.454-0.065v0.065h0.067V14.63H24.209V14.7h0.067v0.065c4.315,0.042,8.779-.062,13.14-0.065V14.413l0.379-.022v0.261a0.843,0.843,0,0,0,.245.022,2.066,2.066,0,0,1,.512-0.065c0.434-.1.982-0.054,1.4-0.2v0.543a1.158,1.158,0,0,1,.022.457,12.607,12.607,0,0,0-2.361-.13,0.235,0.235,0,0,1-.178-0.043,2.223,2.223,0,0,0-.624.022h-0.4a6.1,6.1,0,0,0-1.136.043h-0.4a6.145,6.145,0,0,0-1.136.043h-0.6a5.478,5.478,0,0,0-.913.043c-0.244.052-.563-0.024-0.78,0.022H30.69a3.954,3.954,0,0,1-.646.022,5.523,5.523,0,0,0-.891.044c-0.237.05-.548-0.022-0.757,0.022H27.617c-0.209.044-.52-0.028-0.757,0.022-0.216.046-.535-0.03-0.779,0.022-0.209.044-.52-0.028-0.757,0.022-0.307.065-.753,0.032-1.047,0.065a0.329,0.329,0,0,0-.045.13H24.3v0.087H24.232v0.065l-1.96.043a1.244,1.244,0,0,1,.045.391H22.272v0.239a4.535,4.535,0,0,0-1.537.087c0.181,0.348.551,0.581,0.757,0.913a0.2,0.2,0,0,0-.2.043H21.96a6.086,6.086,0,0,0,.624,0l0.067-.087h0.423a12.89,12.89,0,0,0,1.782.13V17.609l0.6,0.044a0.186,0.186,0,0,1,.111-0.065,4.52,4.52,0,0,1,.6.152,1.713,1.713,0,0,1,.445.043l-0.022.044,0.067,0.022,0.267,0.022c0.222,0.059.48,0.1,0.69,0.174a0.494,0.494,0,0,1,.178,0,1.081,1.081,0,0,0,.2.152,1.361,1.361,0,0,1,.846-0.087v0.478h0.044a1.92,1.92,0,0,1,.6.087v0.065L29.866,18.8a0.269,0.269,0,0,1,.022-0.087H29.822V18.652a0.682,0.682,0,0,1,.267-0.022V18.587a0.119,0.119,0,0,1-.067-0.087l0.2-.152c0.067-.107-0.031-0.151.134-0.174a0.322,0.322,0,0,0,.245.109,0.1,0.1,0,0,1,.111-0.109,3.352,3.352,0,0,0,.8.544,2.762,2.762,0,0,0,.356.261l0.512,0.065a3.178,3.178,0,0,0,.668.13,0.752,0.752,0,0,1,.134-0.109,3.272,3.272,0,0,1,.423.043l0.022,0.065a0.185,0.185,0,0,1,.022.109,3.494,3.494,0,0,1,.4.087,2.8,2.8,0,0,0,.824-0.2,1.036,1.036,0,0,0,.29-0.065,0.757,0.757,0,0,1,.134-0.3,1.594,1.594,0,0,1,.757-0.043,0.663,0.663,0,0,1,.022-0.217l0.067,0.022v1.261a0.144,0.144,0,0,1,.022.087,0.077,0.077,0,0,0-.067,0l0.022,0.065c0.072,0.018.034-.011,0.067,0.043a0.5,0.5,0,0,0-.022.2L36.548,20.3a5.579,5.579,0,0,0-.535.957,1.507,1.507,0,0,1,.178.413c0.059,0.132.177,0.3,0.223,0.435a1.185,1.185,0,0,0,.022.2,0.314,0.314,0,0,1,.178.152,0.135,0.135,0,0,0-.044.044,0.584,0.584,0,0,0-.111-0.044c-0.015.091-.019,0.093-0.111,0.109l-0.022.37,0.067,0.022a0.658,0.658,0,0,0,.4-0.087,0.5,0.5,0,0,1,.067.174,0.838,0.838,0,0,1-.824.043,2.129,2.129,0,0,0-.156-0.565,3.912,3.912,0,0,0-.69.152h0.067v0.087h0.089a0.98,0.98,0,0,1-.134.565c-0.076.06-.106,0.035-0.111,0.174-0.034.024,0.019,0.043,0.022,0.065l-0.356.478c-0.053-.025-0.039-0.044-0.089-0.022a0.413,0.413,0,0,0-.134.065L34.566,24.2a1.115,1.115,0,0,0-.423.3,1.679,1.679,0,0,0-.2-0.065,0.321,0.321,0,0,0-.022.217c-0.165.054-.257,0.206-0.423,0.261-0.056-.085-0.034,0-0.111-0.022-0.033-.011-0.008-0.094-0.044-0.044L33.3,24.87a0.653,0.653,0,0,1,0,.2,1.278,1.278,0,0,1-.423.283,0.163,0.163,0,0,0-.178-0.065,0.345,0.345,0,0,0,0,.217,1.016,1.016,0,0,0-.4.283,1.129,1.129,0,0,0-.2-0.087v0.043a0.47,0.47,0,0,1-.067.2,0.9,0.9,0,0,1-.379.261,0.283,0.283,0,0,0-.156-0.065,1.684,1.684,0,0,1-.089.239,0.809,0.809,0,0,1-.445.217A0.269,0.269,0,0,0,30.78,26.5a0.062,0.062,0,0,1-.022.022c0,0.027-.022.2-0.022,0.2l-0.557.13a0.28,0.28,0,0,0-.111-0.13,0.077,0.077,0,0,0-.044.022,0.144,0.144,0,0,0-.022.087H29.933a0.1,0.1,0,0,1-.022.065,1.274,1.274,0,0,1-.557.065V26.891l-0.245.022v0.043H20.156c-3.913,0-8.026.1-11.826-.065v0.065l-0.512-.043a1.8,1.8,0,0,1-.134-0.2,0.182,0.182,0,0,1-.156.065v0.065a2.126,2.126,0,0,1-.557-0.174A0.234,0.234,0,0,0,6.949,26.5a0.152,0.152,0,0,0-.089-0.022,0.189,0.189,0,0,1-.156.065,2.151,2.151,0,0,1-.423-0.2,0.253,0.253,0,0,0-.045-0.2,0.115,0.115,0,0,0-.067-0.022,0.382,0.382,0,0,1-.134.109A2.022,2.022,0,0,0,5.568,26a0.378,0.378,0,0,0,0-.174A0.077,0.077,0,0,1,5.523,25.8a0.221,0.221,0,0,0-.178.087,1.121,1.121,0,0,1-.468-0.261,0.158,0.158,0,0,0-.067-0.152,0.266,0.266,0,0,1-.2.043,2.145,2.145,0,0,1-.423-0.2c0.006-.092.034-0.167-0.111-0.174-0.1.141-.267-0.039-0.4-0.087l-0.312-.022A2.533,2.533,0,0,1,2.116,24.2a0.714,0.714,0,0,1-.29-0.435,0.471,0.471,0,0,1,.134-0.3H1.938V23.435h-0.2a2.471,2.471,0,0,1-.312-0.217c-0.289-.178-0.58-0.331-0.869-0.5v0.37a2.324,2.324,0,0,1,.022.543c0.043,0.192.017,0.421,0.067,0.63l0.089,0.391H0.49c0.01-.242.036-0.574,0.067-0.826A0.537,0.537,0,0,0,.49,23.609l0.022-.935H0.468V22.652H0.445c-0.01.025-.026,0.1-0.045,0.043a0.087,0.087,0,0,1-.045-0.087,2.444,2.444,0,0,0,.178-0.435,3.146,3.146,0,0,1-.512-0.13L0,21.978c0.061-.067.033-0.114,0.156-0.131a0.379,0.379,0,0,0,.379.087V21.87a0.467,0.467,0,0,0-.022-0.326A0.145,0.145,0,0,1,.4,21.478c0.013-.031.061-0.092,0.067-0.109A1.239,1.239,0,0,1,.49,21.022c0.239-.362.7-0.191,0.735-0.739a0.559,0.559,0,0,1-.178-0.152,0.625,0.625,0,0,0,.134-0.3A0.109,0.109,0,0,1,1.114,19.8a0.87,0.87,0,0,1-.178-0.261,2.435,2.435,0,0,0,.2-0.457,0.59,0.59,0,0,0,.156-0.174H1.359a2.544,2.544,0,0,1,.267-0.543,0.414,0.414,0,0,0,.134-0.022v0.044l0.29,0.022A0.451,0.451,0,0,1,2.2,18.261a0.624,0.624,0,0,0,.111-0.239,0.852,0.852,0,0,1-.223-0.109V18H1.4V17.174h0.69v0.087a2.082,2.082,0,0,1,.356-0.152,0.47,0.47,0,0,1,.134.13,3.825,3.825,0,0,1,.98-0.022c0.1-.193.1-0.12,0.245-0.065H4.12c0.132,0.028.353-.012,0.512,0.022a9.933,9.933,0,0,0,1.759.044V17.37H6.481l0.022-.13H6.57a1.76,1.76,0,0,0,.267.043V17.3H6.815a1.615,1.615,0,0,1-.245.043V17.37H6.949a1.264,1.264,0,0,0,.312.109,2.115,2.115,0,0,0,.935.152h0.49l0.067-.087H9.176L9.243,17.63A2.386,2.386,0,0,0,10,17.587c-0.084,0-.078.01-0.111-0.043a1.11,1.11,0,0,0,.223-0.283c0.2-.271.437-0.527,0.646-0.8a0.977,0.977,0,0,0,.312-0.435,1.014,1.014,0,0,1-.022-0.391c0-.32-0.012-0.669-0.022-0.957h0.045v0.174h0.49V14.8a0.205,0.205,0,0,1-.089-0.065c-0.053.03-.013,0.037-0.067,0.022-0.038-.04.018-0.059-0.111-0.065V14.587a0.723,0.723,0,0,0,.267-0.13V14.391h0.134v-0.5h0.022V13.87a5.155,5.155,0,0,0,.958-0.2h0.6a0.453,0.453,0,0,1,.245.391H13.9a0.962,0.962,0,0,0,.044-0.413,7.156,7.156,0,0,1,1.225.022,0.118,0.118,0,0,0,.067.087,1.06,1.06,0,0,1,.846-0.087v0.043a0.109,0.109,0,0,1,.022.065L16.258,13.8l0.022-.109,0.067-.022a3.787,3.787,0,0,1,.913-0.022,0.824,0.824,0,0,1,.022-0.348A0.577,0.577,0,0,1,17.751,13Z"/>
</svg>
