<svg xmlns="http://www.w3.org/2000/svg" width="80" height="40" viewBox="0 0 80 40">
  <defs>
    <style>
      .cls-1 {
        fill: #fff;
        fill-rule: evenodd;
      }
    </style>
  </defs>
  <path id="Color_Fill_1" data-name="Color Fill 1" class="cls-1" d="M48.238,17.386a7.12,7.12,0,0,0,2.283-.1v0.2l-0.893.6a25.88,25.88,0,0,1,.992,6.442h-0.1v-0.2a5.844,5.844,0,0,1-.2-1.006c-0.115-.325-0.48-0.764-0.6-1.107-0.217-.643-0.249-1.351-0.4-1.912a5.424,5.424,0,0,0-.4-1.812,1.853,1.853,0,0,1-.5.3l0.1,0.2h-0.1a1.966,1.966,0,0,1-.4.2c0.182,0.391-.046,1.978.5,2.315,0.269-.228.132-0.078,0.6,0v0.6h-0.6v0.1h-0.1a13.019,13.019,0,0,1,.3,2.114h0.2v-0.3h0.3v0.3c0.75,0.035,1.332.37,2.283,0.4v0.5h5.161a4.282,4.282,0,0,0,.6.5l4.467,0.1v0.3l-4.169.1c0.028,0.678.195,1.076,0.2,1.912a2.019,2.019,0,0,0,1.489-.2h-1.29V26.646h5.062a6.545,6.545,0,0,0,.6.5,27.41,27.41,0,0,0,4.466.1v0.3a36.555,36.555,0,0,0-4.169.1,0.852,0.852,0,0,0,.1.5c0.082-.327-0.049-0.154.2-0.3v0.3a3.013,3.013,0,0,1,1.29,0l-0.2-.3a0.611,0.611,0,0,0,.2-0.2,1.835,1.835,0,0,1,1.092.4c0.38-.5,1.738-0.3,2.581-0.3a23.711,23.711,0,0,0,4.466-.1,12.412,12.412,0,0,0,1.29-.1,0.377,0.377,0,0,1-.3-0.2h0.2c0.811,0.806,2.865-.091,3.772.2a3.411,3.411,0,0,0,.6.4v-0.1a2.769,2.769,0,0,1,0-1.711c-0.028,2.388.759,3.943,0.794,6.14C75.111,35.773,66.276,34.9,57.767,34.9H9.926l-0.1-.906h-0.6l-0.2.7h-0.2v-0.7H8.04a3.922,3.922,0,0,1-.2.7,0.365,0.365,0,0,1-.1-0.2,0.531,0.531,0,0,1,0-.5c-0.57-.015-1.122.2-2.084,0.2a5.736,5.736,0,0,1-.6-1.812,2.06,2.06,0,0,0,.993-0.1,3.539,3.539,0,0,1-3.176-1.308v-0.7h-0.3c0.108-.48.371-0.733,0.5-1.309-1.138-.352-0.688-1.206-1.092-1.51H0V26.143a7.8,7.8,0,0,0,2.184-.1L3.077,28.76a2.98,2.98,0,0,1,.6.3l0.1-.3H8.437c0.863,0.328,4.91-.1,6.65-0.1,0.106,0.394.113,0.386,0.6,0.4a0.491,0.491,0,0,1,.1-0.3c0.3,0.174,1.152-.05,1.39.1a2.563,2.563,0,0,1,.1.4,1.216,1.216,0,0,1,.695,0v-0.4h0.1v-0.1h-0.1c-0.674-.524-3-0.216-4.069-0.2v-0.3a29.316,29.316,0,0,0,4.467-.1,5.572,5.572,0,0,0,.5-0.5h5.062a4.189,4.189,0,0,1,.1,1.208h-0.1v0.1a1.589,1.589,0,0,0-1.29.2h0.1v0.1a5.641,5.641,0,0,1,1.588-.1,13.23,13.23,0,0,0,.2-1.912,39.737,39.737,0,0,0-4.169-.1v-0.3a28.785,28.785,0,0,0,4.467-.1c0.168-.059.453-0.44,0.6-0.5h4.367l0.1-.6h0.3a14,14,0,0,0,.4,1.711h0.2v-0.4a0.882,0.882,0,0,1-.1-0.5h0.4l0.2-4.63c-0.288-1.367-.776-6.275-0.3-7.75h0.1v3.422c0.4,0.67-.1,2.082.3,2.718q0.05-1.862.1-3.724a3.9,3.9,0,0,1,.2-1.912v0.1h0.1c-0.41,1.217-.029,3.043-0.3,4.328a2.941,2.941,0,0,0,.1,1.409,24.329,24.329,0,0,1,.5-5.435h0.695a2.092,2.092,0,0,1,.993-0.1v-0.1a1.249,1.249,0,0,1,.1-1.107v0.1a0.721,0.721,0,0,0,.2.6c0.466-.428,1.283-0.4,1.787-0.805,0.32-.258.26-0.957,0.6-1.208a16.543,16.543,0,0,1,2.283-1.107c1.341-.709,2.782-1.522,4.07-2.315,0.659-.406,2.937-1.217,3.275-1.711a10.371,10.371,0,0,0,.695-1.61,9.248,9.248,0,0,1,.1-1.61,9.032,9.032,0,0,0,.695,3.422,10.762,10.762,0,0,0,1.886,1.308c1.37,1,2.673,2.1,4.07,3.12,0.878,0.64,1.7,1.473,2.581,2.114a6.173,6.173,0,0,1,.993.6c0.293,0.325.2,0.979,0.5,1.308a7.276,7.276,0,0,0,1.39.805c1.337,0.9,2.706,1.8,4.069,2.718,2.6,1.751,5.168,3.524,7.841,5.234,1.225,0.784,2.351,1.832,3.672,2.516v0.1h-0.2a12.514,12.514,0,0,0-1.886-1.208c-1.535-1.036-3.093-2.06-4.665-3.12-2.325-1.568-4.69-3.14-7.047-4.73-0.974-.657-1.951-1.532-2.978-2.114-0.5-.286-1.516-0.051-1.985-0.3-2.3-1.233-4.5-2.816-6.849-4.026v0.3a7.448,7.448,0,0,1,.6,2.013c0.321,0.984.74,2.061,0.993,3.12h-0.2a0.49,0.49,0,0,0-.1-0.3,0.491,0.491,0,0,1-.1.3v-0.2c-0.364-.549-0.182-1.374-0.5-2.013a19.521,19.521,0,0,0-1.985-2.315v0.1a9.937,9.937,0,0,1,.794,1.61,12.233,12.233,0,0,1,1.489,2.818h-0.2v-0.2a3.012,3.012,0,0,1-.6-1.208h-0.2v0.1a2.7,2.7,0,0,1,.695,1.308h-0.2v-0.2a4.433,4.433,0,0,1-.5-1.006h-0.2a2.2,2.2,0,0,1-.893.6,1.409,1.409,0,0,1,.5.1A2.191,2.191,0,0,0,48.238,17.386ZM46.948,6.013V6.919l0.4,0.3v-0.2C47.158,6.742,47.15,6.271,46.948,6.013Zm-0.4.3-0.3.805h0.1a0.356,0.356,0,0,1,.2-0.1v-0.5C46.674,6.359,46.615,6.465,46.551,6.315Zm0.1,0.805a7.89,7.89,0,0,1-.3,1.711h0.3a0.357,0.357,0,0,1,.2-0.1v-0.4C46.694,8.069,46.809,7.377,46.65,7.12Zm-0.3.1a17.627,17.627,0,0,0-1.787,2.416h0.2l1.489-.7A4.029,4.029,0,0,0,46.352,7.221Zm0.695,0v1.51a3.348,3.348,0,0,0,.993.6v-0.1C47.582,8.6,47.722,7.646,47.047,7.221Zm-1.489.4a6.255,6.255,0,0,1-1.687.906c-1.712,1.055-3.647,1.962-5.36,3.019-0.636.393-1.75,0.529-2.084,1.208a1.319,1.319,0,0,0-.3.805,3.693,3.693,0,0,0,1.191.3,6.733,6.733,0,0,1,1.489-.5c0.947-.393,2.118-0.841,3.077-1.208l1.092-.3L44.07,10.14h-0.3a8.355,8.355,0,0,1-2.283,1.007c-1.5.662-3.145,1.822-4.863,2.114v-0.1h0.1a8.025,8.025,0,0,1,1.687-.7c1.31-.583,2.75-1.329,4.069-1.912a4.012,4.012,0,0,0,1.985-1.107C44.752,9.028,45.709,8.056,45.558,7.623Zm2.084,0.1a14.126,14.126,0,0,0,.6,1.912,21.153,21.153,0,0,0,2.779,1.711,58.01,58.01,0,0,0,5.657,3.825v0.1h-0.3c-0.713-.9-2.459-1.665-3.474-2.315-1.523-.975-2.931-2.272-4.566-3.12v0.2l0.5,1.51A47.142,47.142,0,0,1,53.7,14.266c1.149,0.711,1.8,1.482,3.672,1.51v-0.2a9.148,9.148,0,0,0-.695-1.107c-1.928-1.5-3.885-2.891-5.856-4.328C49.834,9.422,48.835,8.15,47.643,7.724ZM46.849,8.932l-0.5.1-0.2,1.711h0.1c0.133-.124.356-0.184,0.5-0.3A3.694,3.694,0,0,0,46.849,8.932Zm0.3,0.1a12.014,12.014,0,0,0,.1,1.61c0.533,0.165.844,0.543,1.389,0.7v-0.1C47.833,10.154,48.6,9.871,47.146,9.032Zm-1.191,1.812,0.2-1.711h-0.1a9.88,9.88,0,0,1-1.588.7,8.575,8.575,0,0,0-1.191,1.912h0.1A6.456,6.456,0,0,1,45.955,10.844Zm0.695-.2a4.549,4.549,0,0,0-.6.3l-0.3,2.114h0.1v-0.1a2.861,2.861,0,0,0,.992-2.315h-0.2Zm0.6,0.2v1.107c0.982,0.675,1.394,2.048,2.382,2.717l-0.993-3.12A8.659,8.659,0,0,0,47.246,10.844ZM41.787,19.9h2.382v3.12a4.125,4.125,0,0,1,.893,0c-0.054-.459-0.159-0.4-0.2-0.906h0.4v-0.4c0.216-.127.332-0.3,0.5-0.2,0.341,0.262.065,0.392,0.4,0.6v-0.2a0.836,0.836,0,0,1,0-.6h-0.2a1,1,0,0,1-.6,0v-0.5h0.4a7.123,7.123,0,0,1,.4-1.308h0.1a1.517,1.517,0,0,0,.3,1.308v-0.5a1.984,1.984,0,0,0,.2-0.805,5.261,5.261,0,0,1-1.787-2.214c0.293,0.036.205,0.2,0.4-.1-0.393-.085-0.34.1-0.4-0.4,0.542-.823-0.292-1.249-0.4-2.013,0.9-.706,1.233-2.182,1.29-3.724-3.283.445-3.894,2.7-5.36,4.932A13.976,13.976,0,0,0,38.511,19l0.992,3.12a0.849,0.849,0,0,0,.5.1,2.183,2.183,0,0,1,1.191-.2l0.4,1.006a0.339,0.339,0,0,0,.2-0.1h0.1A13.781,13.781,0,0,1,41.787,19.9Zm5.261-8.454v0.2h0.1A0.346,0.346,0,0,0,47.047,11.448Zm-4.367.6a5.343,5.343,0,0,1-1.191.4c-1.38.574-2.952,1.012-4.367,1.61a25.664,25.664,0,0,0,1.39,4.63v-0.1A13.3,13.3,0,0,0,40.1,16.078c0.521-.851,1.237-1.683,1.787-2.516A4.95,4.95,0,0,0,42.68,12.052Zm3.672,0.4a7.24,7.24,0,0,1-.695,1.007,9.187,9.187,0,0,0-.3,2.617,0.365,0.365,0,0,0,.1-0.2A12.717,12.717,0,0,0,46.352,12.455Zm2.184,2.617c-0.076-1.066-.829-1.584-1.092-2.516h-0.1v1.208a3.078,3.078,0,0,1,.1,1.308h0.2A1.311,1.311,0,0,1,48.536,15.071Zm-1.787-2.416a28.615,28.615,0,0,0-.993,3.925h0.1v0.1h0.2a2.159,2.159,0,0,0,.794-1.61C46.671,14.683,47.082,13.192,46.749,12.656Zm0.2,0.7v1.711h0.2V14.166C47.047,14,47.051,13.523,46.948,13.36ZM37.221,20.1v0.4h0.1v-0.1a3.2,3.2,0,0,0,.993-1.812l-1.39-4.529a2.857,2.857,0,0,0-1.191-.4c-0.845.747-1.937,0.264-1.886,2.013a6.042,6.042,0,0,1,.1,1.107l1.092,4.026c0.082-.327-0.049-0.154.2-0.3v0.2a1.961,1.961,0,0,0,.1,1.409h0.1v-0.6a6.438,6.438,0,0,1-.1-1.309A6.838,6.838,0,0,1,37.221,20.1Zm8.139-6.24c-0.159.509-.526,0.7-0.695,1.208,0.167,0.128.23,0.275,0.4,0.4,0.1,0.025.038,0.079,0.1,0A3.011,3.011,0,0,0,45.36,13.864ZM33.648,16.883h-0.6a0.491,0.491,0,0,1-.1.3v-0.1a3.385,3.385,0,0,1-.1-1.409h0.1a0.609,0.609,0,0,0,.2.2,2.945,2.945,0,0,0-.1.906h0.6l0.1-.3a12.372,12.372,0,0,1,0-1.51h-0.1a9.247,9.247,0,0,1-1.489.2c0.1,0.659.213,2.417,0.695,2.718a1.318,1.318,0,0,1,.1-0.7v0.1c0.3,0.622-.3,1.843.3,2.617Zm14.094-1.711c0.171,0.089.127,0.089,0.3,0h-0.3Zm-15.186.3,0.3,0.1v0.1A0.377,0.377,0,0,1,32.556,15.474Zm0.695,0.6a0.378,0.378,0,0,1,.3.2h0.1v0.1A0.538,0.538,0,0,1,33.251,16.078Zm13.5,0c-0.212.3-.717,0.6-0.6,0.906,0.118,0.362.15,0.368,0.6,0.4A2,2,0,0,0,46.749,16.078Zm-1.489.1a1.081,1.081,0,0,0,0,.805A1.227,1.227,0,0,0,45.261,16.179Zm1.687,0a0.356,0.356,0,0,0,.2.1A0.357,0.357,0,0,0,46.948,16.179Zm-14.789.1c-0.038,2.07-.884,5.479-0.5,7.247a5.5,5.5,0,0,0,.2,1.51C32.118,22.848,33.326,18.044,32.159,16.279Zm17.965,0.3v0.2h0.1A0.346,0.346,0,0,0,50.124,16.581Zm-4.466.1-0.2.5h0.1a1.075,1.075,0,0,0,.2-0.5h-0.1Zm0.1,0.4-0.1.3h0.5v-0.1A1.485,1.485,0,0,0,45.757,17.084ZM34.342,21.815v-0.5a1.391,1.391,0,0,1,.4-0.1,0.356,0.356,0,0,0,.2.1,1.075,1.075,0,0,0,.1.6v-0.6c-0.514-.7-0.877-3.141-1.092-4.127h-0.1v0.2c0.336,0.538.11,3.628,0.1,4.529h0.1A0.5,0.5,0,0,1,34.342,21.815ZM45.36,17.487a1,1,0,0,0,.893.1v-0.1H45.36Zm1.092,0a0.287,0.287,0,0,0,.4,0h-0.4Zm0.5,0a1.44,1.44,0,0,0-.2.4,0.889,0.889,0,0,0,.3.3l0.1-.7h-0.2Zm1.092,0a2.354,2.354,0,0,0,1.787,0H48.04Zm-0.2.1v0.5a2.11,2.11,0,0,0,.695.1,1.067,1.067,0,0,0,.5-0.4H48.139A1.146,1.146,0,0,0,47.841,17.588Zm-14.194.1c-0.039,1.61-.776,3.3.1,4.529C33.76,21.323,33.98,18.219,33.648,17.688Zm11.812,0.1a5.083,5.083,0,0,0,1.389,1.51V18.8A6.847,6.847,0,0,1,45.459,17.789Zm0.3,0c0.221,0.287.575,0.416,0.794,0.7l0.3-.1v-0.1A1.144,1.144,0,0,0,45.757,17.789Zm2.978,0.4a0.86,0.86,0,0,1-.4.3v0.1h0.2a1.185,1.185,0,0,0,.4-0.4h-0.2Zm0.695,0v0.2h0.1A0.346,0.346,0,0,0,49.429,18.192Zm-1.588.1a0.357,0.357,0,0,0,.2.1A0.356,0.356,0,0,0,47.841,18.292Zm1.29,0.1a3.152,3.152,0,0,0,.3,1.107A1.843,1.843,0,0,0,49.132,18.393Zm0.4,0.1a0.657,0.657,0,0,0,.1.4A0.657,0.657,0,0,0,49.529,18.494Zm0.1,0.5a7.043,7.043,0,0,0,.6,2.818A7.043,7.043,0,0,0,49.628,19Zm-16.873.1c-0.013,2.684-.762,5.324-0.695,7.851h0.2v-0.1a2.56,2.56,0,0,1,.2-1.61l0.2-2.013C32.94,22.01,33.462,20.133,32.754,19.1Zm6.551,3.221a11.383,11.383,0,0,0-.893-3.221,5,5,0,0,0-1.092,1.711,4.956,4.956,0,0,1,1.39,1.61ZM47.246,19.1v0.2h0.1V19.2h0.1A0.356,0.356,0,0,0,47.246,19.1Zm0.2,3.925v-0.3a1.034,1.034,0,0,1-.6-0.1h0.6a0.491,0.491,0,0,0-.1-0.3,0.356,0.356,0,0,0-.2-0.1,0.5,0.5,0,0,0-.3-0.1v-0.5h0.6a7.128,7.128,0,0,0-.1-2.013,0.356,0.356,0,0,0-.2-0.1,19.316,19.316,0,0,1-.5,2.315l0.1,1.208h0.2C47.1,22.782,46.973,22.988,47.444,23.023ZM49.429,19.6a0.657,0.657,0,0,0,.1.4A0.658,0.658,0,0,0,49.429,19.6Zm0.1,0.5a5.061,5.061,0,0,0,.5,2.214v-0.3C49.71,21.515,49.867,20.58,49.529,20.1Zm-1.687.5a2.145,2.145,0,0,0,.1,1.007A2.144,2.144,0,0,0,47.841,20.607ZM37.221,22.62l1.29-.2v-0.1c-0.493-.388-0.779-1.043-1.29-1.409V22.62Zm-4.566,2.818h0.3v0.3h0.4a2.413,2.413,0,0,0,.1.805h0.2v-0.5c0.537-1.007-.174-4.024-0.4-5.033h-0.1v0.7a14.007,14.007,0,0,0-.5,4.026v-0.3Zm13.6-4.127a0.657,0.657,0,0,0,.1.4A0.657,0.657,0,0,0,46.253,21.312Zm3.97,0.6a0.657,0.657,0,0,0,.1.4A0.657,0.657,0,0,0,50.223,21.916Zm-9.925.3a2.27,2.27,0,0,1-.695.2v0.1h0.3c0.2-.14.6-0.157,0.794-0.3H40.3Zm7.94,0,0.3,2.919h0.2v-0.4C48.342,24.09,48.655,22.837,48.238,22.218Zm-14.293.1a1.582,1.582,0,0,0,.1.805A1.583,1.583,0,0,0,33.945,22.318Zm0.993,0.2v0.6h0.2v-0.6a1.9,1.9,0,0,0-.893-0.2v0.2a1.1,1.1,0,0,0-.1.6h0.1C34.26,22.489,34.216,22.506,34.938,22.52Zm12.9-.2v0.7h0.2a1.8,1.8,0,0,1,.1-0.7h-0.3Zm-8.635.1c-0.077.069-.222,0.132-0.3,0.2h0.1c0.156,0.125.051,0.065,0.2,0,0.245-.13.067,0.043,0.2-0.2h-0.2Zm1.886,0a0.526,0.526,0,0,0,.3.5v-0.1A2.525,2.525,0,0,0,41.092,22.419Zm-3.871.4v0.4h0.1c0.315-.466,1.194-0.137,1.489-0.6h-0.1v-0.1A7.646,7.646,0,0,1,37.221,22.821Zm2.978-.3a2.819,2.819,0,0,1-.5.2v0.2h0.4a0.435,0.435,0,0,1,.3-0.3v-0.1H40.2Zm-4.963.1v0.906h0.2v-0.4C35.366,23.022,35.307,22.721,35.236,22.62Zm5.459,0c0.082,0.327-.049.154,0.2,0.3v-0.3h-0.2Zm-1.29.1c-0.077.069-.221,0.132-0.3,0.2h0.4A0.346,0.346,0,0,0,39.4,22.721Zm0.992,0.1a0.357,0.357,0,0,0,.2.1A0.356,0.356,0,0,0,40.4,22.821Zm-3.176.5c0.037,0.64.1,0.847,0.1,1.711h0.2c0.439-.624,1.423-0.732,1.489-1.711a0.364,0.364,0,0,0,.1-0.2H37.916A1.446,1.446,0,0,1,37.221,23.325Zm1.985-.2v0.5h0.1v-0.1a0.723,0.723,0,0,0,.2-0.4h-0.3Zm0.893,0a2.183,2.183,0,0,0-.6.6h0.1c0.175-.252.42-0.352,0.6-0.6H40.1Zm0.695,0,0.1,0.3h0.1v-0.3h-0.2Zm0.4,0,0.4,1.107h0.1v-0.3a2.956,2.956,0,0,1-.2-0.805h-0.3Zm-2.382,2.919H39.9a1.289,1.289,0,0,1,.1-0.4c0.278,0.065.975,0.019,1.39,0.1a3.523,3.523,0,0,0,.3-0.6c-0.156-.261-0.293-1.067-0.5-1.51h-0.1a0.491,0.491,0,0,1-.1.3v-0.2a0.756,0.756,0,0,0-.695-0.5c-0.246.364-.789,0.541-0.993,0.906A5.252,5.252,0,0,0,38.809,26.042Zm9.33-1.51h-0.3v0.6h0.6a5.777,5.777,0,0,0-.3-1.912v1.308Zm-3.772-1.006v0.4h0.5v-0.4h-0.5Zm2.382,0v0.4h0.695v-0.4A1.371,1.371,0,0,1,46.749,23.526Zm-12.8.1a3.963,3.963,0,0,0,.1,1.61A3.963,3.963,0,0,0,33.945,23.627Zm1.29,0a0.357,0.357,0,0,0,.2.1A0.356,0.356,0,0,0,35.236,23.627Zm3.97,0.2-0.1.2C39.28,23.888,39.206,23.828,39.206,23.828Zm-4.07.1a0.658,0.658,0,0,0,.1.4A0.657,0.657,0,0,0,35.137,23.929Zm3.672,0.2a4.041,4.041,0,0,1-1.29,1.006v0.2h0.1C37.948,25.009,38.857,24.482,38.809,24.13Zm-7.543,2.315a1.661,1.661,0,0,1,.6.1c-0.18-.418-0.034-1.652-0.4-2.214Zm2.878-2.114v0.906h0.2a0.907,0.907,0,0,0,.2-0.7A1.483,1.483,0,0,0,34.144,24.331Zm4.863,0a0.491,0.491,0,0,0,.1.3v-0.3h-0.1Zm-3.871.1a1.075,1.075,0,0,0,.1.6A1.075,1.075,0,0,0,35.137,24.432Zm3.375,2.013c0.048-.689.27-1.137,0.3-1.912h-0.1a7.108,7.108,0,0,1-1.29,1.208c0.155,0.371.122,0.442,0.3,0.805A0.9,0.9,0,0,1,38.511,26.445Zm5.856-1.912a1.731,1.731,0,0,0,.1.6h0.1v-0.6h-0.2Zm0.3,0v0.6h0.2v-0.6h-0.2Zm2.382,0.6h0.4v-0.6a0.476,0.476,0,0,0-.3.1A0.881,0.881,0,0,0,47.047,25.136Zm31.96-.6h0.2v0.1A0.339,0.339,0,0,1,79.007,24.533Zm-28.189.3a0.491,0.491,0,0,0,.1.3v-0.3h-0.1Zm-6.154.805a0.519,0.519,0,0,0,.6,0h-0.6Zm6.948,0.906V25.64h-0.2v1.107h0.2c0.331-.171,1.016.219,1.29-0.2h-1.29ZM33.945,25.74a0.49,0.49,0,0,0,.1.3v-0.3h-0.1Zm10.819,0.1a0.519,0.519,0,0,0,.6,0h-0.6Zm-10.521.1c0.171,0.089.127,0.089,0.3,0h-0.3Zm10.72,0.1v0.2h0.2v-0.2h-0.2Zm0.3,0v0.2h0.1A0.346,0.346,0,0,0,45.261,26.042Zm-11.017.1c0.171,0.089.127,0.089,0.3,0h-0.3Zm0.2,0.2v0.2h0.1v-0.2h-0.1Zm-32.357.3c-0.029.879,0.156,1.794,0.794,2.013v-0.2C2.523,27.968,2.537,27.038,2.084,26.646Zm27.1,0.906v0.2a3.613,3.613,0,0,1,1.191,0v-0.1A4.024,4.024,0,0,0,29.181,27.552Zm48.735,0.4a0.356,0.356,0,0,0,.2.1A0.357,0.357,0,0,0,77.916,27.955Zm0.3,0c0.171,0.089.127,0.09,0.3,0h-0.3ZM7.543,32.484l-0.2,1.208h0.1c0.077-.069.221-0.132,0.3-0.2a0.609,0.609,0,0,1,0-.6,0.364,0.364,0,0,1,.1.2,0.684,0.684,0,0,1,.2.5h0.3v-0.2a1.5,1.5,0,0,0,.2-0.7,1.8,1.8,0,0,0-.6-0.1A0.662,0.662,0,0,0,7.543,32.484Zm1.588,1.107h0.4a0.283,0.283,0,0,1,.1-0.1,0.283,0.283,0,0,0-.1-0.1,0.88,0.88,0,0,0-.695-0.6v0.1A0.887,0.887,0,0,1,9.132,33.591Zm-0.4-.5-0.1.5h0.2A0.852,0.852,0,0,0,8.734,33.088Z" transform="translate(0 0.5)"/>
</svg>
