<?xml version="1.0" encoding="utf-8"?>
<!-- Generator: Adobe Illustrator 16.0.0, SVG Export Plug-In . SVG Version: 6.00 Build 0)  -->
<!DOCTYPE svg PUBLIC "-//W3C//DTD SVG 1.1//EN" "http://www.w3.org/Graphics/SVG/1.1/DTD/svg11.dtd">
<svg version="1.1" id="Layer_1" xmlns="http://www.w3.org/2000/svg" xmlns:xlink="http://www.w3.org/1999/xlink" x="0px" y="0px"
	 width="39.938px" height="40px" viewBox="0 0 39.938 40" enable-background="new 0 0 39.938 40" xml:space="preserve">
<path id="Color_Fill_1" fill="#FFFFFF" d="M10.206,14.538h0.2v-0.146l0.439,0.1c-0.056,0.337-0.09,0.678-0.1,1.019h0.049
	c0.072-0.052,0.156-0.086,0.244-0.1v-0.194c0.116-0.022,0.231-0.056,0.342-0.1c-0.023-0.046-0.023-0.101,0-0.146l0.587-0.048v-0.045
	c-0.149-0.171-0.266-0.368-0.342-0.582h0.049c0.092,0.042,0.036,0.022,0.147,0c-0.039,0.198,0.062,0.397,0.244,0.485l0.147-0.438
	c0.542-0.063,1.092-0.013,1.614,0.146c0.199,0.193,0.458,0.313,0.733,0.34h0.045c-0.026-0.093-0.08-0.042,0-0.1
	c0.07-0.1,0.105-0.219,0.101-0.34c-0.044-0.091-0.062-0.191-0.049-0.291c0.304-0.231,0.567-0.51,0.781-0.826
	c-0.149-0.174-0.188-0.418-0.1-0.63l0.636-0.049c0.096,0.267,0.096,0.559,0,0.825c-0.042,0.031-0.153,0.065-0.2,0.101
	c0.626-0.041,1.255,0.024,1.858,0.193h1.223c0.521,0.078,1.051,0.062,1.565-0.049c0.234,0.015,0.465,0.063,0.685,0.145l0.83-0.047
	v0.194c-1.435-0.028-2.87,0.021-4.3,0.146v0.243h-0.1c-0.263,0.112-0.547,0.163-0.831,0.146v0.388h-0.632v-0.05h-0.05
	c0.008-0.3,0.018-0.254-0.342-0.243c-0.091,0.044-0.192,0.061-0.293,0.049v0.049c0.072,0.021,0.14,0.055,0.2,0.1v0.049h-0.053
	c-0.053,0.081-0.15,0.121-0.245,0.1v0.34h0.045v0.05c0.252-0.001,0.501,0.049,0.733,0.146v-0.152c0.521-0.033,1.044-0.033,1.565,0
	c-0.083,0.152-0.027,0.343,0.125,0.426c0.007,0.004,0.015,0.008,0.022,0.011c0.373,0.046,0.749,0.062,1.125,0.049
	c0.395,0.086,0.691,0.142,1.026,0.194c0.18-0.211,0.473-0.289,0.733-0.194v0.582l0.293,0.048v0.146l2.445,0.049
	c0.271-0.066,0.553-0.082,0.83-0.049c0.749,0.168,1.601-0.076,2.2,0.146c0.205,0.075,0.487-0.101,0.734-0.05
	c0.979,0.206,2.447-0.235,3.032,0.194c1.185-0.141,2.379-0.174,3.569-0.1c0.041,0.156-0.023,0.073,0.101,0.146
	c0.563-0.112,1.14-0.146,1.712-0.101c0.353,0.086,0.713,0.135,1.076,0.146c0.362-0.116,0.747-0.15,1.125-0.101
	c0.311-0.01,0.621,0.008,0.929,0.05c0.396,0.122,0.809,0.175,1.222,0.153l-0.049,0.776h-0.051c-0.531-0.11-1.077-0.128-1.614-0.049
	l-3.813-0.049c-0.35-0.051-0.706,0-1.027,0.146c-0.128,0.02-0.094-0.084-0.147-0.1c-0.485-0.12-1.415,0.137-2.054,0
	c-1.229-0.19-2.474-0.256-3.716-0.194h-1.709c-0.715-0.079-1.435-0.096-2.152-0.049L21.649,17.5h-0.733
	c-0.413,0.176-0.838,0.322-1.271,0.438v0.049h0.493c0.244-0.256,1.565,0.222,1.858,0.1l0.049-0.146h0.538
	c0.134,0.091,0.283,0.156,0.439,0.194c0.09-0.076,0.188-0.142,0.293-0.194c0.249,0.025,0.478,0.147,0.637,0.341
	c0.315,0.102,0.646,0.151,0.978,0.145c0.174-0.057,0.355-0.09,0.538-0.1c0.1,0.037,0.186,0.104,0.244,0.194
	c0.161,0.036,0.328,0.036,0.489,0c1.1,0.223,2.678,0.215,2.737,1.455l-0.293,0.101c0.104,0.425,0.051,0.872-0.146,1.262
	c-0.198,0.214-0.43,0.395-0.686,0.534c-0.587,0.422-1.164,0.876-1.76,1.311c-0.358,0.328-0.772,0.59-1.223,0.775L23.116,24H7.565
	l-1.319-0.049c-0.704-0.271-1.364-0.648-1.956-1.116c-0.446-0.192-0.859-0.454-1.224-0.776c-0.059,0.059-0.126,0.107-0.199,0.146
	v-0.048c-0.364-0.269-0.43-0.956-0.875-1.116c-0.02,0.123,0.027,0.077-0.147,0.101c-0.451,0.222-0.544-0.611-0.782-0.776
	c-0.072,0.128-0.197,0.217-0.342,0.243c0.032-0.078,0.032-0.166,0-0.243c-0.194,0.121-0.441,0.121-0.636,0
	c-0.316-0.668,0.189-0.624,0.342-1.02c-0.013-0.08-0.013-0.162,0-0.243l0.391-0.193v-0.051c-0.07,0.006-0.141-0.012-0.199-0.049
	c-0.002-0.158-0.054-0.311-0.147-0.438h0.2c-0.027,0.1-0.009,0.205,0.049,0.291c0.038-0.005,0.073-0.021,0.1-0.049
	c0.124-0.071,0.056,0.011,0.101-0.146c-0.086-0.041-0.168-0.09-0.244-0.146c0.051,0,0.101-0.017,0.142-0.048
	c-0.082-0.055-0.136-0.145-0.146-0.242h0.1c0.04,0.156-0.023,0.074,0.101,0.146c0.33-0.112,0.678-0.162,1.026-0.146
	c0.09-0.091,0.188-0.172,0.293-0.243c-0.024,0.106-0.055,0.1,0,0.194C2.576,17.523,3.384,18,4.146,17.836
	c0.359,0.013,0.72-0.004,1.076-0.049c1.087-0.295,2.23-0.312,3.325-0.049v-0.047l-0.049-0.049h0.1
	c0.058,0.157,0.039,0.129,0.239,0.146c0.04-0.157-0.024-0.074,0.1-0.146c0.116,0.15,0.324,0.193,0.489,0.101
	c-0.175-0.21-0.292-0.46-0.342-0.728c-0.211-0.028-0.424-0.045-0.636-0.05c-0.388-0.484-0.611-1.08-0.637-1.7l0.049-0.145
	c0.625,0.005,1.247,0.07,1.858,0.193v-0.34h0.342c0.017-3.38,0.032-6.76,0.049-10.141V2.068C10.06,1.712,10.075,1.35,10.157,1
	L10.206,14.538z M11.38,13.229c0.196-0.005,0.394,0.012,0.587,0.049c0.063,0.152,0.164,0.285,0.293,0.388
	c-0.039,0.108-0.056,0.225-0.049,0.34c0.084,0.054,0.139,0.144,0.146,0.243h-0.1c-0.291-0.077-0.6-0.06-0.88,0.049
	c-0.023-0.326-0.115-0.217-0.142-0.297c-0.066-0.17,0.121-0.175,0.147-0.243v-0.528H11.38z M15.637,13.275
	c0.084,0.043,0.063,0.043,0.147,0H15.637z M19.06,13.907c0.027,0.026,0.063,0.044,0.101,0.049c-0.028-0.027-0.064-0.044-0.104-0.049
	H19.06z M16.713,14.198c0.155,0.071,0.334,0.071,0.489,0H16.71H16.713z M14.757,14.635v0.1h0.049
	c-0.005-0.037-0.023-0.073-0.052-0.1H14.757z M15.002,14.926c0,0.108-0.011,0.034,0.1,0.049v-0.049H15.002z M10.502,15.071
	c-0.075,0.143-0.167,0.107-0.245,0.243c0.073,0.061,0.156,0.11,0.245,0.146v0.049h0.049v-0.194c-0.128-0.02-0.064,0.035-0.1-0.101
	c0.127,0.013,0.118-0.006,0.048-0.142L10.502,15.071z M17.055,15.605c0.027,0.026,0.063,0.043,0.101,0.049
	c-0.028-0.027-0.064-0.044-0.104-0.049H17.055z M6.001,17.691c0.303,0.094,0.626,0.094,0.929,0H6.001z M0.622,19.492
	c-0.027,0.026-0.063,0.044-0.101,0.049v0.048c0.165,0.039,0.307,0.144,0.392,0.291c0.027-0.026,0.063-0.043,0.1-0.048v-0.1
	c-0.188-0.067-0.204-0.178-0.391-0.245V19.492z M1.698,20.846c0.04,0.071,0.119,0.111,0.199,0.101v-0.052
	C1.828,20.89,1.761,20.873,1.698,20.846z M27.418,21.137c-0.075,0.041-0.16,0.058-0.244,0.049c-0.025,0.063-0.042,0.128-0.049,0.194
	h0.1C27.332,21.253,27.437,21.266,27.418,21.137L27.418,21.137z M26.195,21.186c-0.109,0.109-0.243,0.193-0.391,0.243v0.101h0.049
	c0.135-0.139,0.303-0.24,0.489-0.291v-0.053H26.195L26.195,21.186z M26.684,21.429c-0.281,0.201-0.543,0.429-0.782,0.679h0.101
	c0.265-0.221,0.561-0.401,0.88-0.533v-0.1L26.684,21.429z M4.974,22.2c0.04,0.071,0.119,0.11,0.2,0.1v-0.047H5.12V22.2H4.974z
	 M22.337,22.544c-0.117,0.244-0.266,0.472-0.44,0.679h0.88v-0.048C22.58,23.005,22.429,22.787,22.337,22.544z M12.019,22.645
	c-0.056,0.223-0.175,0.424-0.342,0.582h0.782v-0.052c-0.198-0.135-0.247-0.421-0.444-0.534L12.019,22.645z M15.491,22.744
	c-0.072,0.176-0.171,0.34-0.293,0.484h0.636v-0.054c-0.133-0.132-0.249-0.278-0.348-0.437L15.491,22.744z M8.596,22.793
	c-0.071,0.162-0.171,0.31-0.293,0.438h0.68v-0.056c-0.119-0.14-0.25-0.27-0.391-0.388L8.596,22.793z M18.865,22.793
	c-0.062,0.156-0.144,0.303-0.244,0.438h0.636v-0.056c-0.121-0.14-0.254-0.27-0.396-0.388L18.865,22.793z"/>
</svg>
