<svg xmlns="http://www.w3.org/2000/svg" width="80" height="40" viewBox="0 0 80 40">
  <defs>
    <style>
      .cls-1 {
        fill: #fff;
        fill-rule: evenodd;
      }
    </style>
  </defs>
  <path id="Color_Fill_1" data-name="Color Fill 1" class="cls-1" d="M39.113,17.759h1.675c0-.406-0.1-1.295-0.1-1.295a0.5,0.5,0,0,1,.3-0.1v0.2a2.735,2.735,0,0,0-.1,1.2h0.788a9.525,9.525,0,0,0,.1,1.793h0.3a1.423,1.423,0,0,0,.1-0.4,1.591,1.591,0,0,1-.1-0.8h0.2c0.118-.077.474-0.119,0.591-0.2a0.869,0.869,0,0,0,.1-0.5,1.239,1.239,0,0,0-.394.1v-0.2c0.425-.118-0.045-0.026.2-0.4l0.591-.3v0.8c-0.319.127-.259,0.088-0.3,0.5h0.2c0.58-.3,1.637.465,2.759,0.1v0.2c-0.343.217-.221,1.343-0.2,1.892H46.7a4.83,4.83,0,0,0,.1,1.892,3,3,0,0,1,.1-1.295v1.295h1.675a1.444,1.444,0,0,1,.1-0.5H47.389v-0.2a0.632,0.632,0,0,0,.394-0.1,0.631,0.631,0,0,1-.394-0.1,1.5,1.5,0,0,0,1.182-.2,2.1,2.1,0,0,0-.69-0.1c-0.072.206-.259,0.085-0.493-0.1h-0.1v-0.1h0.2c0.16-.1.629-0.1,0.788-0.2-0.242-.172-0.553-0.392-0.788-0.6a0.385,0.385,0,0,0,.2-0.3,2.311,2.311,0,0,0,.985.1c-0.115.139-.434,0.31-0.3,0.4,0.475,0.385,1.325-.221,2.069,0,1.486,0.442,3.985.216,5.813,0.2v0.2H51.921v0.2h0.69a0.857,0.857,0,0,1,.788,0c0.374,0.583.019,1.956,0,2.689a11.21,11.21,0,0,0,3.054-.1c-0.151-.229-0.039-0.459-0.2-0.8a1.929,1.929,0,0,1-.493-0.6h1.478v-0.4a4.382,4.382,0,0,1-1.773-.1,13.079,13.079,0,0,0,3.941-.6,0.8,0.8,0,0,1,0-.4h0.1v0.5h1.872v0.2a0.511,0.511,0,0,1,.1.3,54.582,54.582,0,0,0,5.911.2v0.3c-1.294-.019-2.695.076-3.842,0.1a5.047,5.047,0,0,0-1.872.1h0.591v0.3a2.411,2.411,0,0,1-1.576.3v0.1a0.472,0.472,0,0,1,.2.5l2.364-.1v-0.1a1.591,1.591,0,0,1-.1-0.8l0.493,0.1v0.1h0.1l0.1,0.7h1.182l0.2-.9h0.394a1.9,1.9,0,0,0,1.773.7,6.28,6.28,0,0,1,2.463-.6v0.5c1.083,0.013,1.306-.465,2.069-0.7v0.1a0.508,0.508,0,0,0-.3.5h0.2c0.349-.213,1.23.019,1.576-0.2a0.632,0.632,0,0,1-.394-0.1c2.333,0.1,4.629.007,7,0v0.1a7.078,7.078,0,0,0-.493,1.792c-0.631,1.964-.824,5.286-2.463,6.274a7.968,7.968,0,0,1-3.448.7H71.626c-0.739.16-1.9-.087-2.759,0.1-2.8.606-6.045-.26-9.064,0.2a35.853,35.853,0,0,1-4.828.1H18.818c-0.912-2.961-7.593-1.146-10.345-1v0.4h-0.3a1.518,1.518,0,0,1-.2.6,0.336,0.336,0,0,1-.2-0.1,1.055,1.055,0,0,1-.3-0.8H6.8a1.579,1.579,0,0,0-.1.5H6.4l-0.1.5H6.01a4.977,4.977,0,0,0-.2-0.8,1.032,1.032,0,0,1-.493-0.4h0.1v-0.1h0.3a1.147,1.147,0,0,1,.69-1.1,0.8,0.8,0,0,0,.788.9l-0.1-1.1c-0.816-.013-2.338-0.418-2.857-0.1a1.03,1.03,0,0,1,.591.1,4.871,4.871,0,0,1,.1,1.892,1.172,1.172,0,0,1-.394.4c-1.059.673-1.554-1.412-1.576-2.29l0.3-.1c0.1-.069.394-0.128,0.493-0.2H2.956a35.1,35.1,0,0,1,0-5.776h0.1v0.1h0.1a1.829,1.829,0,0,0,0,1.1h0.1v-0.8a1.19,1.19,0,0,0,.887-0.5,1.015,1.015,0,0,0-.591-0.6,10,10,0,0,1-2.857,1A4.581,4.581,0,0,1,0,21.743l3.153-1.2a0.8,0.8,0,0,1,0-.4h0.3l1.281,3.286h5.714a3.684,3.684,0,0,1,.493-0.8c0.084,0.046.85-.189,1.379-0.2a4.236,4.236,0,0,0,1.478,1,1.544,1.544,0,0,0,.788.1v0.5a1.672,1.672,0,0,1,.69.3,1.415,1.415,0,0,1-.69-0.2v1.394c1.288,0.013,1.455-.2,2.759-0.2v-1.2h-0.1a0.425,0.425,0,0,1-.591.1c0.507-.046.672-0.126,0.69-0.7,1.151,0,2.074-.191,3.35-0.2a0.484,0.484,0,0,1,.1-0.3v0.3h0.394v-0.4H18.916v-0.2h0.3a3.981,3.981,0,0,0,2.069,0c0.1-.655.174-0.836,0.985-0.8l-0.1.5h0.3a2.565,2.565,0,0,1,.69-0.2,0.474,0.474,0,0,1-.3-0.1h0.3v-1h0.493v0.7l0.3-.1,0.3,0.5c0.369,0.206.576-.064,0.788,0.3h-0.1c-0.249.185-.805,0.119-1.084,0.3,0.176,0.052.684,0.524,0.3,0.6h0.887c0.021-.031,2.686-0.013,3.448,0-0.019-1.062.11-1.331,0.1-2.689a12.872,12.872,0,0,1,2.365.1v0.1h-0.1a5.617,5.617,0,0,1-2.168.1v0.5a19.214,19.214,0,0,0,2.562-.2,0.654,0.654,0,0,1,.3-0.6h-0.69c-0.092-.306-0.2-0.373-0.3-0.7,0.353-.042.248,0.047,0.394-0.2a1.1,1.1,0,0,1,0-.6H29.163v-0.1h0.1c0.448-.273,1.473-0.035,1.872-0.3v0.3a0.473,0.473,0,0,0,.3-0.1h0.1v-0.3H29.163v-0.2h2.463l0.2-.9h0.69v0.1h0.1l-0.1.5h0.2c0.347-.3.629,0.029,0.788-0.3a4.172,4.172,0,0,1-.1-1H33.99c0,0.555.025,0.684,0,1.1,0.32-.082.151,0.049,0.3-0.2a1.153,1.153,0,0,1-.2-0.3h0.2c0.323,0.561.826,0.386,1.084,0.8a1.7,1.7,0,0,0-1.182.3l0.3-.1a1.291,1.291,0,0,1-.1.8l-0.3-.1v0.3h0.493a1.77,1.77,0,0,1,.2-0.4,1.057,1.057,0,0,0,.591.1v0.1h-0.2c-0.279.434-1.107,0.191-1.379,0.6a1.371,1.371,0,0,0-.1.7,1.514,1.514,0,0,1,.788.1,0.858,0.858,0,0,0-.887.2,0.907,0.907,0,0,0,.493.3,1.542,1.542,0,0,0,.788.1l0.1,0.9H35.37a1.3,1.3,0,0,1,.1-0.7v0.7c0.32-.082.15,0.049,0.3-0.2a0.361,0.361,0,0,1-.1-0.2h0.591v-2.29c0.8,0,1.118-.164,1.773-0.2a1.06,1.06,0,0,1,.1-0.6v0.6h0.394v-0.7H38.03a7.387,7.387,0,0,1,0-.9h0.493a2.335,2.335,0,0,0-.2-1.394h0.3c-0.028-2.074-.163-5.338.394-6.971A10.108,10.108,0,0,1,39.113,8a1.048,1.048,0,0,0,.2,1c0.041-.357-0.046-0.251.2-0.4V8.7c0.11,0.147.206,0.3,0.1,0.4-0.073.087-.124,0.112-0.2,0.2a0.825,0.825,0,0,0-.3-0.2v0.2a13.2,13.2,0,0,1,0,1.992v6.473Zm-1.675.1a0.511,0.511,0,0,1,.1.3h-0.1v-0.3Zm-4.335.1h0.2v0.1H33.1v-0.1Zm5.025,0v0.5h0.394v-0.5H38.128Zm0.985,0a0.842,0.842,0,0,0,.1.5A0.841,0.841,0,0,0,39.113,17.959Zm0.2,0v0.5H39.8v-0.5H39.31Zm0.591,0v0.5H40.69v-0.5H39.9Zm0.985,0v0.5h0.69v-0.5h-0.69Zm-2.167.2a0.485,0.485,0,0,0,.1.3A0.484,0.484,0,0,0,38.719,18.158Zm-1.281.1a1.2,1.2,0,0,1,0,1v-1Zm1.675,0.4a1.3,1.3,0,0,0,.1.7A1.3,1.3,0,0,0,39.113,18.656Zm0.2,0v0.7H39.8v-0.7H39.31Zm0.591,0v0.7H40.69v-0.7H39.9Zm1.084,0.7h0.591v-0.7a1.966,1.966,0,0,0-.69.1A1.842,1.842,0,0,1,40.985,19.353Zm-5.714-.6a0.36,0.36,0,0,1,.1.2h-0.1v-0.2Zm3.448,0a0.842,0.842,0,0,0,.1.5A0.841,0.841,0,0,0,38.719,18.755Zm8.965,1.693h0.2v0.1A0.337,0.337,0,0,1,47.685,20.448Zm-15.961.3a1.142,1.142,0,0,0,.3.2v-0.2h-0.3Zm21.675,0.8v-0.5c-1.137-.01-1.618.2-2.562,0.2v0.2h0.2A6.213,6.213,0,0,0,53.4,21.544Zm-24.729.2a0.841,0.841,0,0,0,.1.5v-0.4h0.493v0.4h1.478v-0.5C29.921,21.744,29.572,21.742,28.67,21.743Zm2.365,0,0.1,0.5h0.1v-0.5h-0.2Zm0.3,0a0.841,0.841,0,0,0,.1.5A0.841,0.841,0,0,0,31.33,21.743Zm0.3,0v0.5h0.2c0.277-.136.654,0.158,0.887-0.2-0.243-.129-0.067.043-0.2-0.2a0.337,0.337,0,0,0,.2-0.1A3.837,3.837,0,0,1,31.626,21.743Zm1.182,0a0.354,0.354,0,0,0,.2.1A0.354,0.354,0,0,0,32.808,21.743Zm0.788,0a0.657,0.657,0,0,0,.69,0H33.6Zm0.788,0a0.354,0.354,0,0,0,.2.1A0.354,0.354,0,0,0,34.384,21.743Zm14.384,0a0.354,0.354,0,0,0,.2.1A0.354,0.354,0,0,0,48.769,21.743Zm2.167,0c0.169,0.088.126,0.088,0.3,0h-0.3Zm1.379,0.1v0.4h0.2v-0.5a1.264,1.264,0,0,0-.69.1h0.493Zm0.887,0v0.4h0.2v-0.5a1.514,1.514,0,0,0-.788.1H53.2Zm-29.458.1c0.082,0.323-.048.152,0.2,0.3v-0.2Zm12.512,0v0.2h0.1v-0.2h-0.1Zm14.581,0-0.1.3h0.2A0.485,0.485,0,0,0,50.837,21.942Zm-18.719.1a0.631,0.631,0,0,1,.394.1A0.632,0.632,0,0,1,32.118,22.042Zm0.69,0v0.2h0.3v-0.2h-0.3Zm19.8,0v0.2h0.1v-0.2h-0.1Zm-48.571.4v0.2h0.1v-0.2h-0.1Zm67.882,0a0.818,0.818,0,0,1,.493.1A0.817,0.817,0,0,1,71.921,22.44Zm0.493,0.1a0.818,0.818,0,0,1,.493.1A0.818,0.818,0,0,1,72.414,22.539Zm-15.566,1a2.614,2.614,0,0,0,1.675-.4c-1.084,0-1.051-.446-1.971-0.5v0.1A1.107,1.107,0,0,1,56.847,23.535Zm1.084-.8c0.028,0.259,0,.2.493,0.2a0.354,0.354,0,0,1,.2-0.1v-0.1h-0.69Zm-32.906.2c0.035,0.03.2,0.052,0.1,0.2C25.013,23.088,24.816,22.96,25.025,22.938Zm33.6,0v0.2C58.779,23.019,58.741,23.1,58.621,22.938Zm-45.419.8a1.753,1.753,0,0,1,.1.8h0.493v-0.1a0.5,0.5,0,0,1-.2-0.5v-0.1h0.2a0.83,0.83,0,0,0,.591.8v-1Zm4.335-.1a8.062,8.062,0,0,0,.1,1.892h0.3v-1.1h-0.3v-0.5a2.669,2.669,0,0,0,.788,0v0.5a0.336,0.336,0,0,0-.2.1H20.3v-0.1a0.546,0.546,0,0,1-.3-0.6h0.2c0.041,0.357-.046.251,0.2,0.4v0.1h0.1a1.708,1.708,0,0,1,.1-0.6H18.128A1.058,1.058,0,0,0,17.537,23.635Zm-13.3.9H4.828v-0.1a1.265,1.265,0,0,0-.69-0.7v0.1A1.331,1.331,0,0,1,4.236,24.531Zm0.887,0h0.3v-0.8H4.828v0.1A1.052,1.052,0,0,1,5.123,24.531Zm0.493-.8v0.8H8.177v-0.8H5.616Zm2.66,0v0.8h0.3v-0.8h-0.3Zm0.394,0v0.8H9.852a0.911,0.911,0,0,1,.394-0.7,0.281,0.281,0,0,0,.1.1l-0.3.6h0.493v-0.2a0.992,0.992,0,0,1,.1-0.6H8.67Zm15.271,0a0.354,0.354,0,0,0,.2.1A0.354,0.354,0,0,0,23.941,23.734Zm-0.3.3v0.5h1.872c0.227-.138-0.063-0.273.493-0.4v0.4h0.3v-0.8H24.434A1.36,1.36,0,0,1,23.645,24.033Zm2.759-.3v0.8h0.3v-0.8H26.4Zm0.394,0v0.8c0.545,0.025,1.655.146,1.872-.2-0.25-.147-0.2-0.211-0.2-0.6H26.8Zm-3.35.3a0.841,0.841,0,0,0,.1.5A0.842,0.842,0,0,0,23.448,24.033Zm-8.177.3a3.615,3.615,0,0,1,1.379.1A1.914,1.914,0,0,1,15.271,24.332Zm-12.217,1.1a0.473,0.473,0,0,0,.3-0.1,1.331,1.331,0,0,1-.1-0.7h-0.1v0.1A1.331,1.331,0,0,0,3.054,25.427Zm11.133-.7,0.1,0.3h0.1v-0.3h-0.2Zm-9.951.1v0.4a2.44,2.44,0,0,0,.985-0.3v-0.1H4.236Zm1.97,0.7v-0.3a5.9,5.9,0,0,1,1.97.2v-0.6H5.616v0.2c0.205,0.281-.1.24,0.2,0.4A0.659,0.659,0,0,0,6.207,25.527Zm2.069-.7v0.7h0.2v-0.1a1.089,1.089,0,0,0,.1-0.6h-0.3Zm0.394,0v0.6H9.458a1.517,1.517,0,0,1,.2-0.6H8.67Zm1.478,0a1.048,1.048,0,0,0-.2.6h0.1v0.1h0.2a1.259,1.259,0,0,1,.3-0.7H10.148Zm3.153,0a1.574,1.574,0,0,1-.1.7h0.2a6.12,6.12,0,0,1,.788,0v-0.1A1.23,1.23,0,0,0,13.3,24.83Zm4.926,0v0.7h2.266v-0.7H18.227Zm5.419,0.1v0.6h1.872v-0.7Zm2.66,0.6v-0.7H25.813v0.1a0.6,0.6,0,0,1,0,.6h0.493Zm0.1-.7v0.7h0.3v-0.7H26.4Zm0.394,0v0.7H28.67v-0.7H26.8Zm-6.8.1h0.2a0.84,0.84,0,0,1-.1.5A1.441,1.441,0,0,0,20,24.93Zm0.591,0v0.6h0.887l0.2-.6H20.591Zm2.857,0a0.841,0.841,0,0,0,.1.5A0.842,0.842,0,0,0,23.448,24.93Zm32.217,0.1a1.423,1.423,0,0,0-.1.4h0.1v0.1a0.337,0.337,0,0,0,.2-0.1,0.512,0.512,0,0,0,.1-0.3Zm-51.133.4c0.169,0.088.126,0.088,0.3,0h-0.3ZM7.586,29.51a0.485,0.485,0,0,0,.1.3v-0.1a0.36,0.36,0,0,0,.1-0.2h-0.2Zm0.788,0.9,0.493-.1v-0.7l-0.788-.1v0.2A1.052,1.052,0,0,1,8.374,30.407Zm0.985-.8v0.7h0.1a6.312,6.312,0,0,1,2.167-.2v-0.3Z"/>
</svg>
