<svg xmlns="http://www.w3.org/2000/svg" width="40" height="40" viewBox="0 0 40 40">
  <defs>
    <style>
      .cls-1 {
        fill: #fff;
        fill-rule: evenodd;
      }
    </style>
  </defs>
  <path id="Color_Fill_1" data-name="Color Fill 1" class="cls-1" d="M35.192,19.763a0.23,0.23,0,0,1,.048-0.143,0.421,0.421,0,0,0,.433.1v0.143h-1.25l-0.144.239a0.761,0.761,0,0,0-.24-0.048,4.3,4.3,0,0,0,.1,1.721,0.532,0.532,0,0,0-.337.1,5.958,5.958,0,0,0,.1.765c0.068,0.14.1-.037,0.144,0.239H33.125v0.191c0.156,0.04.074-.023,0.144,0.1a0.57,0.57,0,0,0-.144.287h0.048a1.425,1.425,0,0,1,1.154.191c0.054-.137.008-0.088,0.144-0.143,0.043,0.184.047,0.164,0.24,0.191V23.635a0.185,0.185,0,0,1-.1-0.143c0.359-.043.59-0.2,0.962-0.239V23.3a1.391,1.391,0,0,0,0,.574l0.721,0.1c0.05-.054-0.037-0.122.1-0.1a1.034,1.034,0,0,1,.192.191,0.3,0.3,0,0,1,.288-0.1l0.048,0.143,0.913,0.143a2.1,2.1,0,0,1,.481-0.239v0.048h0.048c-0.072.073-.169,0.118-0.24,0.191a5.444,5.444,0,0,1,.817.43A3.621,3.621,0,0,1,40,24.83a1.049,1.049,0,0,0-.337.574s0.139,0.063.1,0.1H39.712a6.234,6.234,0,0,0-.529.622,0.6,0.6,0,0,1,.192.526l-0.288.478a2.464,2.464,0,0,0-.673-0.1,2.984,2.984,0,0,0-.721,1.052,0.293,0.293,0,0,1,.1.1,0.282,0.282,0,0,0-.24.335,0.738,0.738,0,0,1-.048.43H37.308a1.8,1.8,0,0,1-.336.574l-0.192-.048a1.436,1.436,0,0,0-.288.287l-0.433.048a0.734,0.734,0,0,0-.048.191l-0.529.1a0.888,0.888,0,0,0-.048.191l-0.529.1a0.9,0.9,0,0,0-.048.191,2.7,2.7,0,0,1-.577.143l0.048,0.1H34.279a1.055,1.055,0,0,1-.529.143,0.23,0.23,0,0,1-.048.143,3.255,3.255,0,0,1-.481.143,0.371,0.371,0,0,1-.144.143c-0.124.1-.347,0.068-0.433,0.143a0.37,0.37,0,0,1-.144.143,1.4,1.4,0,0,1-.577.1V31.9a4.409,4.409,0,0,1-.673-0.1v0.143a3.948,3.948,0,0,1-.529-0.143c-0.134-.021-0.039.066-0.1,0.1a0.871,0.871,0,0,1-.529-0.1c-0.165-.029-0.086.066-0.144,0.1a0.883,0.883,0,0,1-.529-0.1h-0.1v0.1a0.874,0.874,0,0,1-.529-0.1c-0.165-.029-0.087.066-0.144,0.1a0.885,0.885,0,0,1-.529-0.1h-0.1v0.1a4.146,4.146,0,0,1-1.25-.143l-0.048.143a0.706,0.706,0,0,1-.577-0.143,0.525,0.525,0,0,1-.673,0,0.423,0.423,0,0,1-.625,0l-0.1.143a0.871,0.871,0,0,1-.481-0.1,1.874,1.874,0,0,1-.673.048v-0.1c-0.047-.049-0.048.048-0.048,0.048a0.673,0.673,0,0,1-.577.048,1.367,1.367,0,0,1-.721-0.1c-0.249.206-.346,0.151-0.625,0a1.646,1.646,0,0,0-.1.143,0.7,0.7,0,0,1-.577-0.143c-0.237.225-.357,0.143-0.625,0a0.42,0.42,0,0,1-.625,0,0.679,0.679,0,0,1-.385.143,1.5,1.5,0,0,1-.288-0.143,0.523,0.523,0,0,1-.673,0l-0.048.143a1.665,1.665,0,0,1-.625-0.1,0.444,0.444,0,0,1-.337.1,0.618,0.618,0,0,0-.337-0.1v0.1a0.883,0.883,0,0,1-.529-0.1,1.3,1.3,0,0,1-.433.1,2.138,2.138,0,0,0-.24-0.1h-0.1v0.1a2.2,2.2,0,0,1-.625-0.1l-0.048.143a2.487,2.487,0,0,1-.577-0.143l-0.048.143a4.034,4.034,0,0,1-.625-0.1c-0.08.058,0.018,0.086-.24,0.1a2,2,0,0,0-.289-0.143c-0.166.006-.069,0.108-0.144,0.143a5.238,5.238,0,0,1-.625-0.1c-0.08.058,0.018,0.086-.24,0.1-0.387-.328-0.343.095-0.673,0a0.784,0.784,0,0,0-.336-0.143c-0.095.04-.049,0.2-0.289,0.143-0.087-.021-0.251-0.114-0.385-0.143v0.048h0.048c0.092,0.037-.1.048-0.1,0.048a0.612,0.612,0,0,1-.529-0.1,0.709,0.709,0,0,1-.721,0v0.048H9.327c0.092,0.037-.1.048-0.1,0.048a1.745,1.745,0,0,1-.673-0.048c-0.018.125,0.036,0.063-.1,0.1a1.062,1.062,0,0,0-.529-0.191,0.291,0.291,0,0,1-.192.048c-0.117-.036-0.228-0.254-0.337-0.287a0.98,0.98,0,0,0-.192.048,0.723,0.723,0,0,1-.433-0.335c-0.129.14-.073,0.1-0.288,0.1-0.083-.122-0.2-0.174-0.288-0.287a0.509,0.509,0,0,1-.337.048c-0.209-.333-0.329-0.122-0.577-0.239A2.683,2.683,0,0,0,5,30.614l-0.24.048a1.937,1.937,0,0,1-.385-0.335,0.707,0.707,0,0,1-.337.048l-0.144-.191-0.481-.048a1.234,1.234,0,0,0-.144-0.191,0.314,0.314,0,0,0-.288,0A1.883,1.883,0,0,1,2.26,29.18a0.5,0.5,0,0,1-.1-0.287H2.019V28.8a1.646,1.646,0,0,1,0-.621h-0.1a0.246,0.246,0,0,1-.144.048A3.772,3.772,0,0,0,1.25,27.7l0.1-.335a3.146,3.146,0,0,1,.481-0.335c0.148-.049.137,0.053,0.24,0H2.115V26.981a3.172,3.172,0,0,1-.288-1.721c-0.222-.02-0.211-0.071-0.433-0.1-0.081.206-.084,0.242-0.385,0.239V25.356c0.156-.04.073,0.024,0.144-0.1h-0.1c-0.094.069-.285,0.075-0.385,0.143a0.367,0.367,0,0,1-.433.191V25.547H0.433a0.28,0.28,0,0,0,0-.191A0.719,0.719,0,0,1,0,24.782,2.366,2.366,0,0,0,.769,23.4c0.093-.387-0.247-0.812-0.144-1.052a0.287,0.287,0,0,1,.192-0.239,0.563,0.563,0,0,1,.529-0.048,0.523,0.523,0,0,0,.1.239V22.2a0.712,0.712,0,0,0,.24-0.287,0.7,0.7,0,0,1-.625-0.191c0.033-.048.062-0.191,0.1-0.239a1.033,1.033,0,0,1,.481-0.048,1.914,1.914,0,0,0,.385,0,2.266,2.266,0,0,1,0-.526c0.054-.137.008-0.088,0.144-0.143,0.418-.263,1.681.136,2.067,0.143a1.9,1.9,0,0,1,.529-0.1,5.653,5.653,0,0,0,2.6,0,2.487,2.487,0,0,0,.577.1,3.738,3.738,0,0,1,1.01,0V20.719l0.962,0.1v0.1a1.577,1.577,0,0,0-.048.669h0.192q0.024-.669.048-1.338L10.433,20a2,2,0,0,1,.1-0.574l0.385-.143a1.157,1.157,0,0,1,.288-0.478,0.937,0.937,0,0,1,.24-0.048,6.56,6.56,0,0,0,.529-1.578V16.656a15.984,15.984,0,0,0,.288-2.486,3.97,3.97,0,0,1-.721-0.191H9.231a0.5,0.5,0,0,1-.048.287,0.307,0.307,0,0,0-.048-0.191,0.23,0.23,0,0,1-.048.143,1.124,1.124,0,0,1-.817-0.478H8.413A0.23,0.23,0,0,0,8.365,13.6c-0.114.108-.017,0.052-0.192,0.048V13.453h0.1C8.712,13.79,9.56,13.215,10,13.071h1.01a5.715,5.715,0,0,1,2.163.143V13.023H12.981l-0.048-.143h0.24a0.721,0.721,0,0,1,.1-0.287h0.1a3.65,3.65,0,0,1,.144.382h-0.1a0.231,0.231,0,0,0-.048-0.143v0.143a0.414,0.414,0,0,1,.144.191,0.183,0.183,0,0,0-.144.1H13.7c0.028,0.011,0,.064.1,0.048,0.075-.014.152-0.207,0.24-0.239a5.739,5.739,0,0,1,.817-0.1V12.784a12.558,12.558,0,0,1,2.163.191l0.1-.621H17.26a2.626,2.626,0,0,0,.048.526,19.7,19.7,0,0,0,2.019,1.338h-0.24v0.143a12.79,12.79,0,0,0-1.827,1.147,0.527,0.527,0,0,1,0,.526H17.115V15.843H16.539V15.556h0.481a8.96,8.96,0,0,1-.24-1.338h-0.24v0.191h-0.1V14.361c-0.075-.085-0.116-0.2-0.192-0.287v0.382a1.016,1.016,0,0,1,.481.048H16.25a0.738,0.738,0,0,0,.144.287H16.25v0.574H14.423v-0.43a1.069,1.069,0,0,1-.769-0.382,0.174,0.174,0,0,1-.1.048v0.287a0.172,0.172,0,0,1,.048.1,0.8,0.8,0,0,1,.529.1,0.412,0.412,0,0,1,.048.239,0.521,0.521,0,0,0-.24.43,0.784,0.784,0,0,1,.048.669,6.763,6.763,0,0,0-.144,1.625H13.8c-0.07-.122.01-0.054-0.144-0.1v0.1a0.881,0.881,0,0,0-.048.43h0.048a1.8,1.8,0,0,1,.337-0.1c0.16-.12.228-0.339,0.337-0.382a0.481,0.481,0,0,0,.24.143V18.09a0.292,0.292,0,0,1-.1-0.1h0.048V17.947h0.1a2.013,2.013,0,0,0,.817.765,0.173,0.173,0,0,1,.1-0.048v0.048c-0.064.083-.083,0.077-0.048,0.143a8.68,8.68,0,0,0,1.106,1.052,1.131,1.131,0,0,0,.24.43l0.144-.048,0.24,0.287h-0.1a0.373,0.373,0,0,0-.289-0.191v0.048a0.923,0.923,0,0,1,.337.287c0.115-.055.083-0.1,0.192-0.048,0.06,0.056.158,0.1,0.1,0.143v0.048H17.5c0.093,0.037-.1.048-0.1,0.048-0.047-.012-0.018-0.037-0.048,0a0.9,0.9,0,0,1,.144.239h0.048V21.1a0.5,0.5,0,0,1,.1-0.239c0.047-.012.018-0.037,0.048,0a0.243,0.243,0,0,1,.048.143,0.556,0.556,0,0,0-.1.382c-0.062.118,0.021,0.033-.1,0.1-0.077-.107-0.079-0.1-0.144-0.1-0.148.044-.18,0.1-0.337,0.143v0.048a8.747,8.747,0,0,0,1.587.1V21.293h0.192a1.08,1.08,0,0,1,1.106-.239,1.583,1.583,0,0,0,.192.526,1,1,0,0,1,.24-0.1v0.143a2.112,2.112,0,0,1,.385,0c0.033-.037.063-0.107,0.1-0.143v0.143a0.669,0.669,0,0,0,.481-0.1v0.1h0.1a0.318,0.318,0,0,1,.144-0.335h2.4c0.06,0.091.119,0.235,0.192,0.335,0.107-.157.115,0.149,0.385,0a0.345,0.345,0,0,1,.144-0.143v0.143a3.112,3.112,0,0,1,.433,0c0.04-.209.091-0.233,0.337-0.239a2.742,2.742,0,0,1,1.394.048c0.071-.126.033-0.148,0.144-0.191a8.515,8.515,0,0,0,2.356.048c0.055-.017.724,0.19,1.01,0.191a2.543,2.543,0,0,0,.048-0.717,0.806,0.806,0,0,1,0-.669H29.856a0.752,0.752,0,0,1-.385.335,1.174,1.174,0,0,0-.962.048,5.049,5.049,0,0,1,0-.813V19.62a10.724,10.724,0,0,0,1.779.191,17.469,17.469,0,0,0,.144-4.063V7.717h0.048V19.572a0.231,0.231,0,0,0,.24-0.1c0.058-.027.773,0,0.913,0a0.8,0.8,0,0,1,.24-0.335c0.074-.034.006-0.006,0.144,0v0.191h0.433l0.1,0.191H32.6V7h0.048V19.62a6.779,6.779,0,0,0,2.308.1A0.418,0.418,0,0,0,35.192,19.763ZM13.221,12.832a0.23,0.23,0,0,0,.048.143V12.832H13.221Zm3.558,0a0.313,0.313,0,0,1,.192.048A0.312,0.312,0,0,1,16.779,12.832Zm-3.558.239a0.23,0.23,0,0,0,.048.143A0.231,0.231,0,0,0,13.221,13.071Zm1.01,0.048a1.533,1.533,0,0,1-.337.144V13.31c0.438,0.028.836,0.093,1.346,0.1V13.358a0.172,0.172,0,0,1-.048-0.1A5.306,5.306,0,0,0,14.231,13.119Zm3.461,0.191v0.1a0.88,0.88,0,0,0-.433.048,3,3,0,0,1,.817.1A0.913,0.913,0,0,0,17.692,13.31Zm-0.913.143v0.1h0.048A0.162,0.162,0,0,0,16.779,13.453Zm-0.24.191a0.194,0.194,0,0,0,.24,0h-0.24Zm0.1,0.1a0.186,0.186,0,0,0,.144.1v-0.1H16.635Zm0.625,0.382v1.243h0.048a9.174,9.174,0,0,1,1.683-1.052,0.289,0.289,0,0,1,0-.239c-0.168-.052-0.218-0.136-0.385-0.191-0.041.031-.151,0.064-0.192,0.1,0.181,0.007.169-.023,0.24,0.1H17.4A0.246,0.246,0,0,1,17.26,14.122Zm1.875-.1a0.311,0.311,0,0,1,.192.048A0.312,0.312,0,0,1,19.135,14.027Zm-6.731.191-0.048.669H12.4a4.158,4.158,0,0,0,.577-0.526H12.789Zm1.923,0.1a1.014,1.014,0,0,0,.1.335V14.314h-0.1Zm-2.019.908a2.3,2.3,0,0,0-.048,1.052C12.329,15.824,12.6,15.526,12.308,15.222Zm2.26,2.964a0.751,0.751,0,0,0,.385.335V18.472A1.583,1.583,0,0,0,14.567,18.186Zm-1.154.43-0.1.143C13.334,18.768,13.545,18.632,13.414,18.616Zm1.683,0c0.005,0.006.144,0.143,0.144,0.143A0.242,0.242,0,0,0,15.1,18.616ZM15.385,18.9l-0.048.1C15.42,18.931,15.385,18.9,15.385,18.9Zm0.433,0.239a0.7,0.7,0,0,1,.337.1v0.048h-0.1C15.993,19.226,15.885,19.2,15.817,19.142Zm0.337,0.143h0.1v0.048A0.166,0.166,0,0,1,16.154,19.285Zm0.1,0.048a0.332,0.332,0,0,1,.24.143h0.048v0.048h-0.1C16.381,19.443,16.311,19.413,16.25,19.333Zm18.99,0.1c0.122,0.07.054-.01,0.1,0.143h-0.1V19.428Zm-3.029.1a0.288,0.288,0,0,0,.337.191V19.667A0.676,0.676,0,0,0,32.212,19.524Zm-15.577.1a0.285,0.285,0,0,1,0,.287H16.587v-0.1A0.321,0.321,0,0,0,16.635,19.62Zm12.933,0.239H28.942a0.5,0.5,0,0,0-.1.239,1.589,1.589,0,0,0,.481.048,0.948,0.948,0,0,1,.192-0.1V20h0.048V19.859Zm3.269,0a2.94,2.94,0,0,0,1.442,0H32.837Zm0.481,0.574c0.04-.155-0.024-0.073.1-0.143a5.323,5.323,0,0,1,0,.717h-0.1V20.623H32.692a1.194,1.194,0,0,0-.048.382,4.027,4.027,0,0,1,0,.765l1.25-.048V20.05h-1.01v0.1a0.512,0.512,0,0,0,.192.239A0.417,0.417,0,0,0,33.317,20.432ZM32.212,20.1a0.325,0.325,0,0,0,.337,0H32.212Zm-1.731.669v0.669l0.625-.048c0.049-.407-0.035-0.946,0-1.2H30.817A1.269,1.269,0,0,1,30.481,20.767Zm1.731-.382a0.4,0.4,0,0,0,.385,0H32.212Zm0.24,0.239a0.558,0.558,0,0,0-.144.287h0.048a1.713,1.713,0,0,1,.24-0.239V20.623H32.452Zm-15.192.143a0.173,0.173,0,0,0,.1.048A0.175,0.175,0,0,0,17.26,20.767Zm15.289,0.1a0.4,0.4,0,0,0-.24.287,1.775,1.775,0,0,1,.1.287,0.172,0.172,0,0,0,.048-0.1A0.427,0.427,0,0,0,32.548,20.862ZM3.99,21.006v0.1H4.519v-0.1H3.99ZM7.981,21.2v0.43H8.269a0.293,0.293,0,0,0,.1.1v0.048H8.317a1.3,1.3,0,0,1-.192.143H8.99a6.31,6.31,0,0,1,.048-0.861,2.987,2.987,0,0,0-.817-0.048c-0.232.234-.3-0.126-0.625,0a24.266,24.266,0,0,1-2.837,0c-0.044.116-.051,0.076-0.1,0.191H4.808a1.578,1.578,0,0,1,.769,0h2.4Zm1.731-.1a0.285,0.285,0,0,1-.192-0.1v0.239a1.291,1.291,0,0,0,.144.335V21.532A0.881,0.881,0,0,0,9.712,21.1Zm-7.5,0a0.738,0.738,0,0,0,.048.382A1.125,1.125,0,0,1,2.308,21.1h-0.1Zm6.971,0a0.23,0.23,0,0,0,.048.143A0.23,0.23,0,0,0,9.183,21.1Zm8.029,0.048a0.861,0.861,0,0,1-.144.191v0.1h0.048C17.273,21.3,17.429,21.316,17.212,21.149ZM31.827,21.2a0.307,0.307,0,0,0,.048.191A0.308,0.308,0,0,0,31.827,21.2Zm0.721,0.143a0.163,0.163,0,0,1-.048.1l0.048,0.143H32.6A0.4,0.4,0,0,0,32.548,21.34Zm-11.875.048h0.1v0.048A0.164,0.164,0,0,1,20.673,21.388Zm4.086,0h0.1v0.048A0.165,0.165,0,0,1,24.76,21.388Zm2.308,0.048a0.173,0.173,0,0,0,.1.048A0.175,0.175,0,0,0,27.067,21.436Zm-25.433.143a0.4,0.4,0,0,0,.048.239,0.683,0.683,0,0,1,.048-0.239h-0.1Zm29.327,0.239v0.1H31.2V21.866A0.756,0.756,0,0,0,30.962,21.818Zm0.865,0-0.048.621a1.121,1.121,0,0,0,.385.191,0.61,0.61,0,0,1,.192-0.287l0.048-.526H32.356c-0.1.2-.243,0.124-0.481,0.1A0.163,0.163,0,0,0,31.827,21.818Zm-30.337,1v0.1H1.538v-0.1H1.49Zm31.346,0.191v0.048H32.789c-0.093.037,0.1,0.048,0.1,0.048A0.163,0.163,0,0,0,32.837,23.013ZM1.25,25.212c0.016,0.106-.05.052,0.048,0.1A0.164,0.164,0,0,0,1.25,25.212Zm-0.721.143a0.23,0.23,0,0,0,.048.143A0.23,0.23,0,0,0,.529,25.356Zm38.413,0.908c-0.042.108-.086,0.123-0.048,0.191,0,0,.063.138,0.1,0.1V26.5a0.173,0.173,0,0,0,.048-0.1c0.012-.046.038-0.018,0-0.048C38.976,26.242,39.059,26.327,38.942,26.264Zm-37.067.908c-0.072.078-.162,0.168-0.24,0.239a0.249,0.249,0,0,0,.144.239,0.326,0.326,0,0,0,.192.048V27.65A1.278,1.278,0,0,1,1.875,27.172ZM2.692,28.75H2.885V28.8H2.933v0.1l-0.144.048v0.048h0.1a0.245,0.245,0,0,0,.144.048v-0.1a0.91,0.91,0,0,0-.1-0.382,0.459,0.459,0,0,0-.144,0A0.191,0.191,0,0,0,2.692,28.75Zm1.971,0.191a0.186,0.186,0,0,0,.144.1A0.558,0.558,0,0,0,4.663,28.941Zm1.875,0.335a11.431,11.431,0,0,0-1.2-.1c-0.083.1-.206,0.135-0.288,0.239a2.189,2.189,0,0,0-.144.335,1.408,1.408,0,0,0,.288,0,1.08,1.08,0,0,0,.24-0.287l0.192,0.1-0.1.478H5.577a0.942,0.942,0,0,1,.192-0.048,0.573,0.573,0,0,1,.337-0.239,0.173,0.173,0,0,0,.1.048v0.048l-0.144.43H6.106a0.208,0.208,0,0,1,.24.048,0.56,0.56,0,0,1,.24-0.335A2.544,2.544,0,0,1,6.538,29.275Zm4.183-.1a2.784,2.784,0,0,1-.24,1.434,0.705,0.705,0,0,0-.24.478h0.048V31.14a0.364,0.364,0,0,1,.24,0c0.016-.27.032-0.377,0.337-0.382l0.048,0.382a0.557,0.557,0,0,1,.288,0V30.853a0.172,0.172,0,0,0,.048-0.1,0.312,0.312,0,0,1-.192-0.048,0.75,0.75,0,0,0,.385-0.048,2.5,2.5,0,0,1-.385-1.482H10.721Zm22.885,0.1v0.382a0.521,0.521,0,0,1,.192.239,0.311,0.311,0,0,1,.24-0.1l-0.1-.43a0.762,0.762,0,0,1,.24-0.048,0.7,0.7,0,0,0,.289.287,0.42,0.42,0,0,1,.192-0.143,0.494,0.494,0,0,1-.1-0.287A6.567,6.567,0,0,0,33.606,29.275Zm-18.317,0a2.447,2.447,0,0,1-.24,1.338,1.021,1.021,0,0,0-.337.526h0.1c0.085-.058.084,0,0.144-0.048a1.382,1.382,0,0,0,.1-0.382H15.24v0.048h0.048a1.622,1.622,0,0,0,.048.382h0.1c0.09-.041.035-0.023,0.144,0v-0.1a1.1,1.1,0,0,0,.1-0.335h0.192l0.1,0.43a0.364,0.364,0,0,1,.24,0L16.25,30.9a2.2,2.2,0,0,1-.817-1.625H15.289Zm20.529,0.191a0.4,0.4,0,0,0-.1.143H35.673v0.048h0.048a0.326,0.326,0,0,1,.192-0.048V29.562C35.872,29.527,35.859,29.5,35.817,29.467ZM19.952,31.092L20,30.709h0.192v0.048H20.24a0.615,0.615,0,0,0,.1.43,0.228,0.228,0,0,1,.24-0.1,0.926,0.926,0,0,0,0-.287c-0.126-.2-0.36-0.34-0.481-0.526s-0.1-.454-0.24-0.622a3.355,3.355,0,0,1-.288.956l0.1,0.574h0.048A0.228,0.228,0,0,1,19.952,31.092Zm15.1-1.434c-0.037.033-.107,0.063-0.144,0.1a0.521,0.521,0,0,1,.192.239,0.614,0.614,0,0,0,.24-0.191,0.37,0.37,0,0,0-.144-0.143C35.1,29.7,35.157,29.68,35.048,29.658ZM4.279,30.04a0.689,0.689,0,0,1,.24.048,0.641,0.641,0,0,1,.1-0.191,0.512,0.512,0,0,0-.24-0.1,0.173,0.173,0,0,1-.1.048V30.04ZM34.664,29.9a0.523,0.523,0,0,1-.288.048v0.1a0.907,0.907,0,0,1,.144.191,0.263,0.263,0,0,1,.288-0.048A1.309,1.309,0,0,0,34.664,29.9Zm-29.808.383c0.188,0,.216.024,0.288-0.1a0.452,0.452,0,0,0-.1-0.191,0.174,0.174,0,0,1-.1.048A0.981,0.981,0,0,0,4.856,30.279Zm19.471,0.43h0.24a0.387,0.387,0,0,0,.144.43c0.085-.058.084,0,0.144-0.048a1.1,1.1,0,0,0,.1-0.335,1.519,1.519,0,0,1-.529-0.717H24.375a7.632,7.632,0,0,0-.385,1.147h0.048a0.422,0.422,0,0,1,.192-0.1A0.694,0.694,0,0,0,24.327,30.709Zm9.856-.287-0.048-.239H33.99a0.412,0.412,0,0,0-.192.143,0.455,0.455,0,0,1,.144.191A0.992,0.992,0,0,1,34.183,30.423ZM5.577,30.279a0.5,0.5,0,0,0-.1.239,0.262,0.262,0,0,1,.24.048v-0.1A0.241,0.241,0,0,0,5.577,30.279Zm23.317,0.43,0.048,0.43a0.305,0.305,0,0,1,.288.048V31.14a1.826,1.826,0,0,1,.048-0.478,1.457,1.457,0,0,0-.385-0.335,3.108,3.108,0,0,0-.192.382h0.192ZM6.683,30.327v0.191h0.1V30.47C6.746,30.434,6.716,30.364,6.683,30.327Zm26.923,0.382-0.048-.287h-0.1a0.863,0.863,0,0,1-.144.191,0.164,0.164,0,0,0,.048.1c0.062,0.118-.021.033,0.1,0.1C33.532,30.683,33.451,30.751,33.606,30.709Zm-27.5-.143-0.1.191H6.058a0.363,0.363,0,0,1,.288,0v-0.1c-0.119-.062-0.033.02-0.1-0.1H6.106Zm5.385,0.191a2.632,2.632,0,0,0,.1.382,0.364,0.364,0,0,1,.24,0A1.378,1.378,0,0,0,11.49,30.757Zm17.115,0c-0.064.184-.173,0.2-0.24,0.382a0.226,0.226,0,0,1,.24.048V31.14A1.5,1.5,0,0,0,28.606,30.757Zm-21.875.048L6.635,31a0.251,0.251,0,0,1,.288.048A0.36,0.36,0,0,0,6.731,30.805Zm18.462,0.1a0.522,0.522,0,0,0,.1.239,0.166,0.166,0,0,1,.192,0v-0.1A1.457,1.457,0,0,1,25.192,30.9Zm4.327,0a1.2,1.2,0,0,0,.1.239,0.949,0.949,0,0,1,.192-0.048h0.048V31.044A1.808,1.808,0,0,0,29.519,30.9Zm-10.24.1v0.048H19.231c-0.092.037,0.1,0.048,0.1,0.048A0.162,0.162,0,0,0,19.279,31Zm1.587,0a0.182,0.182,0,0,0,.1.143A0.52,0.52,0,0,0,20.865,31Zm-11.058.382a0.388,0.388,0,0,1-.1.239h0.1A1.021,1.021,0,0,0,10,31.426Zm0.865,0.048a0.614,0.614,0,0,1-.192-0.048c-0.037.126-.058,0.114-0.1,0.239h0.048c0.1-.11.1-0.087,0.24-0.048V31.426Zm0.433-.048a1.022,1.022,0,0,1-.1.239h0.1a1.023,1.023,0,0,0,.192-0.191Zm0.673,0c-0.036.126-.058,0.114-0.1,0.239h0.048a1.24,1.24,0,0,0,.24-0.191A0.615,0.615,0,0,1,11.779,31.379Zm2.5,0a0.381,0.381,0,0,0,0,.191h0.1a0.945,0.945,0,0,1,.192-0.1V31.426Zm0.913,0.048L14.9,31.379v0.239h0.048c0.1-.11.1-0.087,0.24-0.048V31.426Zm0.337-.048a0.612,0.612,0,0,1,0,.239h0.048a1.237,1.237,0,0,0,.24-0.191Zm0.625,0a1.2,1.2,0,0,0,.1.239,1.637,1.637,0,0,0,.24-0.143H16.442V31.426Zm7.4,0v0.1c-0.216-.008-0.222-0.06-0.288.048h0.048V31.57a1.211,1.211,0,0,0,.24-0.1,0.172,0.172,0,0,0,.048-0.1H23.558Zm0.625,0v0.1c-0.181.007-.169-0.023-0.24,0.1H23.99a0.223,0.223,0,0,1,.24,0V31.379H24.183Zm0.625,0v0.1a0.4,0.4,0,0,0-.24.048h0.048V31.57a0.33,0.33,0,0,0,.24-0.143l0.048-.048h-0.1Zm0.721,0.143c-0.04-.155.024-0.073-0.1-0.143-0.069.12-.123,0.072-0.192,0.191h0.048A0.418,0.418,0,0,1,25.529,31.522Zm2.4-.143c-0.046.07-.172,0.1-0.1,0.143V31.57c0.152-.048.179,0.009,0.24-0.1l0.048-.048h-0.1A0.172,0.172,0,0,0,27.933,31.379Zm0.625,0a0.721,0.721,0,0,0-.1.191H28.51a0.489,0.489,0,0,0,.24-0.143Zm0.577,0-0.048.143h0.24V31.57h0.048V31.426h-0.1A0.246,0.246,0,0,0,29.135,31.379Zm0.625,0V31.57a0.271,0.271,0,0,1,.289.048,0.379,0.379,0,0,1,0-.191Zm0.625,0v0.143a0.821,0.821,0,0,1,.289.048V31.426Zm-13.558.048v0.191h0.048a0.186,0.186,0,0,1,.144-0.1V31.474Zm1.923,0L18.8,31.57a1.216,1.216,0,0,0,.24-0.1Zm0.673,0a0.23,0.23,0,0,0,.048.143,0.222,0.222,0,0,1,.24,0v-0.1Zm0.625,0c0.04,0.155-.024.073,0.1,0.143,0.041-.031.151-0.064,0.192-0.1Zm0.625,0a0.523,0.523,0,0,0,.1.143,0.223,0.223,0,0,1,.24,0v-0.1Zm0.673,0a0.23,0.23,0,0,0,.048.143c0.041-.031.151-0.064,0.192-0.1Zm4.712,0a0.326,0.326,0,0,1-.192.048v0.1h0.048a0.222,0.222,0,0,1,.24,0v-0.1Zm-13.7.048-0.048.143h0.048a0.4,0.4,0,0,0,.1-0.143h-0.1Z" transform="translate(0 0.516)"/>
</svg>
