<?xml version="1.0" encoding="utf-8"?>
<!-- Generator: Adobe Illustrator 16.0.0, SVG Export Plug-In . SVG Version: 6.00 Build 0)  -->
<!DOCTYPE svg PUBLIC "-//W3C//DTD SVG 1.1//EN" "http://www.w3.org/Graphics/SVG/1.1/DTD/svg11.dtd">
<svg version="1.1" id="Layer_1" xmlns="http://www.w3.org/2000/svg" xmlns:xlink="http://www.w3.org/1999/xlink" x="0px" y="0px"
	 width="40px" height="40px" viewBox="0 0 40 40" enable-background="new 0 0 40 40" xml:space="preserve">
<path id="Color_Fill_1" fill="#FFFFFF" d="M9.575,5.016c0.057,0.071,0.057,0.171,0,0.242V5.016z M8.8,14.678l0.629,0.048
	c0.041-0.158,0.058-0.321,0.049-0.483c-0.127,0-0.043,0.063-0.146-0.048c0.066-0.112,0.169-0.198,0.292-0.241
	c0.206-0.06,0.418-0.093,0.632-0.1v0.048c-0.041,0.025-0.075,0.059-0.1,0.1h0.049c0.042-0.031,0.153-0.065,0.194-0.1
	c-0.041-0.025-0.075-0.059-0.1-0.1h0.151c0.259,0.154,0.586,0.135,0.826-0.048c0.094-0.026,0.194,0.016,0.243,0.1h0.049
	c0.109,0-0.013-0.07,0.049-0.1c0.129-0.011,0.259-0.011,0.389,0c0,0.053,0.017,0.104,0.049,0.145c0.024-0.041,0.059-0.075,0.1-0.1
	c-0.001,0.053,0.017,0.104,0.049,0.145c0.118-0.178,0.17-0.08,0.389-0.145c0.006,0.181-0.059,0.118,0.146,0.145L12.69,14.33
	c0.14,0,0.239,0.107,0.486,0.145v0.251h0.1c0.049-0.066,0.117-0.117,0.194-0.145v0.145c0.331,0.031,0.447,0,0.729,0.048
	c0.053-0.237,0.17-0.454,0.34-0.628c0.091-0.043,0.192-0.06,0.292-0.048c0.035,0.107,0.13,0.183,0.243,0.193
	c0.172-0.056,0.355-0.072,0.535-0.048c0.01-0.068-0.04,0.019-0.049-0.048c-0.093-0.037,0.1-0.048,0.1-0.048
	c0.158,0.119,0.376,0.119,0.535,0h-0.059v-0.049c-0.237,0.04-0.505,0.018-0.778,0.048l0.049-0.338
	c-0.078-0.029-0.16-0.045-0.243-0.048c0.037,0.11,0.037,0.229,0,0.338h-0.1c0.013-0.276,0.085-0.385-0.1-0.435
	c-0.146,0.131-0.338,0.2-0.535,0.193l-0.146-0.531h0.049c0.3,0.195,0.692,0.176,0.972-0.048c0.1-0.079-0.034-0.056,0.1-0.1
	c0.389,0.281,0.575-0.04,0.972-0.1c0.469,0.275,1.019,0.377,1.555,0.29c0.063-0.022,0.3-0.181,0.34-0.193
	c0.215,0.024,0.428,0.073,0.632,0.145v-0.042h0.049v0.1c0.231,0.029,0.467-0.005,0.681-0.1v0.048h0.049
	c-0.066,0.269-0.1,0.544-0.1,0.821c0.444,0.083,0.2,0.5,0.292,0.821c0.129-0.007,0.259-0.007,0.389,0
	c0.1-0.131,0.235-0.231,0.389-0.29c0.004,0.115-0.014,0.229-0.049,0.338h0.438c0.471,0.088,0.955,0.054,1.409-0.1l0.149,0.246
	c0.646-0.04,1.295,0.06,1.9,0.29v-0.048h-0.053c-0.049-0.049,0.048-0.048,0.049-0.048v-0.049c0.453,0.267,0.99,0.353,1.504,0.241
	c-0.006,0.068,0.012,0.136,0.049,0.193c0-0.053,0.019-0.104,0.051-0.145c0.224,0.057,0.451,0.09,0.682,0.101
	c0.043,0.071,0.112,0.124,0.193,0.145c-0.02-0.11-0.045-0.052,0-0.145c0.352,0.587,1.586,0.592,2.674,0.579
	c0-0.152-0.082-0.064,0.049-0.145c0.09-0.051,0.189-0.085,0.292-0.1c-0.001,0.053,0.017,0.104,0.049,0.145
	c0.122-0.141,0.271-0.256,0.437-0.338c0.483,0.064,0.973,0.08,1.459,0.048c0.105,0.298,0.422,0.466,0.729,0.386
	c0.139,0.105,0.316,0.142,0.486,0.101c0.039-0.157-0.024-0.074,0.1-0.146c0.306,0.051,0.618,0.051,0.924,0
	c0.403,0.051,0.812,0.051,1.215,0c0.02,0.123-0.027,0.076,0.146,0.101c0.741-0.097,1.488-0.13,2.236-0.101
	c-0.023,0.046-0.023,0.1,0,0.146h0.049v-0.197c0.679,0.044,1.406,0.263,2.187,0.29v0.628c-0.249,0.013-0.225,0.091-0.243,0.101
	c-0.156,0.05-0.104-0.082-0.146-0.101c-0.191-0.033-0.388,0.02-0.535,0.146l-0.049,0.145c-0.153-0.068-0.319-0.102-0.486-0.1
	c-0.131,0.08-0.284,0.115-0.437,0.1v-0.1h-0.101v0.1c-0.275,0.043-0.558,0.026-0.825-0.048c-0.285-0.071-0.787,0.128-0.973,0.048
	v-0.1h-0.634v0.1c-0.354-0.045-0.712-0.062-1.069-0.048c-0.488,0.116-1.936-0.226-2.283-0.048c-0.078,0.039-0.264,0.215-0.341,0.242
	c-0.106,0.037-1.409-0.049-1.409-0.049h-0.146l-0.049-0.145c-0.212-0.023-0.427-0.008-0.633,0.048l-0.1-0.1
	c-0.644-0.104-1.303-0.021-1.9,0.241c-0.146,0.006-0.294-0.011-0.437-0.047c-0.054,0.01-0.2,0.131-0.243,0.145l-0.187-0.047
	l-0.05,0.145c-0.17-0.158-0.289,0.021-0.437,0.146c-0.116-0.062-0.09-0.101-0.243,0c0.12,0.063,0.033-0.021,0.1,0.1h-0.1
	c-0.042-0.03-0.094-0.048-0.146-0.048c0,0.053-0.017,0.104-0.05,0.145c0.001-0.052-0.016-0.104-0.049-0.145
	c-0.344,0.115-0.709,0.149-1.068,0.1v0.101h0.049v0.038c0.283-0.084,0.584-0.101,0.875-0.049c0,0.14-0.045,0.125,0.193,0.146
	c0.306-0.061,0.619-0.061,0.925,0c-0.001,0.053,0.017,0.104,0.049,0.146c0.31,0.004,0.619,0.037,0.923,0.1
	c0.16,0.035,0.322,0.051,0.486,0.048c0.131-0.12,0.311-0.174,0.486-0.146c0.186,0.045,0.352,0.145,0.534,0.193v-0.147
	c0.257,0,0.435,0.016,0.583,0v0.145c-0.036,0.058-0.053,0.125-0.049,0.193c0.35,0.084,0.691,0.196,1.021,0.338
	c0.006-0.192,0-0.151,0.291-0.146c0.064,0.088,0.114,0.187,0.146,0.291c0.027-0.027,0.044-0.063,0.049-0.101
	c0.092-0.144-0.066-0.173,0.243-0.192c0.027,0.025,0.063,0.043,0.101,0.047v0.146c0.467,0.118,0.889,0.37,1.215,0.726
	c0.037,0.041,0.037,0.104,0,0.145c-0.193,0.271-0.422,0.515-0.68,0.725h0.049v-0.046c0.037-0.093,0.049,0.101,0.049,0.101
	c-0.627,0.343-0.473,0.983-0.875,1.5c-0.321,0.33-0.68,0.623-1.069,0.869c-0.692,0.521-1.246,1.448-2.14,1.739
	c-0.675,0.104-1.361,0.12-2.041,0.048H6.124c-0.767-0.205-2.091-1.623-2.673-2.174c-0.21-0.346-0.492-0.643-0.826-0.87
	c-0.059,0.258-0.273,0.45-0.535,0.483c-0.116-0.184-0.214-0.377-0.292-0.58H1.75c0.036,0.242,0.019,0.489-0.049,0.725V21.73
	c-0.501-0.458-0.898-1.018-1.166-1.642l0.145,0.048v-0.145c-0.131,0.029-0.269,0.013-0.389-0.049v1.16h0.146v0.291H0.292l-0.1,0.725
	H0c0.012-0.196,0.045-0.391,0.1-0.58l-0.049-0.482c0.157-1.076-0.029-2.566,0.146-3.576c0.158-0.039,0.074,0.024,0.146-0.1
	c-0.052,0.001-0.104-0.016-0.146-0.048c0.472,0.04,0.947,0.006,1.409-0.101v0.146c0.614,0,1.088,0.13,1.6,0.146
	c0.125-0.816,0.142-1.645,0.049-2.464h1.994v-0.1c0.289-0.057,0.581-0.09,0.875-0.1c0.063,0.084,0.147,0.15,0.243,0.193
	c0.016-0.107-0.05-0.052,0.049-0.1C6.61,14.995,6.813,14.982,7,14.916c0.407,0.011,0.815-0.022,1.215-0.1
	c0.097-0.279,0.131-0.576,0.1-0.87c-0.116,0.016-0.233-0.001-0.34-0.048c0.1,0.013,0.201-0.004,0.292-0.048
	c0.027-0.027,0.044-0.062,0.049-0.1c-0.215-0.194-0.489-0.313-0.778-0.338c0.005,0.068-0.012,0.136-0.049,0.193v-0.183l-0.292-0.048
	v-0.1c0.206-0.258,0.278-0.599,0.194-0.918c0.145-1.428,0.178-2.866,0.1-4.3C7.407,7.494,7.424,6.921,7.54,6.365v5.751
	c0.069,0.366,0.102,0.738,0.1,1.111l0.146,0.048c0.548,0.08,1.104,0.08,1.652,0v-0.1c0.092-0.346,0.125-0.706,0.1-1.063
	c0.065-0.512,0.082-1.03,0.049-1.546v-3C9.526,6.971,9.543,6.37,9.636,5.779v4.686c-0.084,0.977,0.015,1.96,0.292,2.9h-0.1
	c-0.144,0.037-0.294,0.037-0.437,0c-0.091,0.051-0.173,0.116-0.243,0.193C8.7,13.849,8.778,13.984,8.8,14.678z M7.488,5.838
	c0.052,0.054,0.052,0.139,0,0.193V5.838L7.488,5.838z M18.278,13.278v0.1h0.049v-0.053h0.049c-0.027-0.027-0.063-0.044-0.101-0.048
	L18.278,13.278z M19.1,13.47c-0.037,0.208-0.037,0.42,0,0.628c-0.037,0.033-0.108,0.063-0.146,0.1
	c0.153,0.052,0.322,0.013,0.438-0.1c-0.126-0.186-0.145-0.425-0.049-0.628H19.1z M16.767,13.615v0.1h0.146v-0.099L16.767,13.615
	L16.767,13.615z M7.727,13.808h0.1v0.048C7.79,13.852,7.755,13.835,7.727,13.808L7.727,13.808z M10.789,13.808
	c0.017,0.014,0.1,0.025,0.049,0.1C10.784,13.881,10.687,13.816,10.789,13.808L10.789,13.808z M11.324,13.808v0.1h0.049v-0.051h0.049
	C11.396,13.831,11.361,13.813,11.324,13.808z M7.824,13.856h0.1v0.048C7.887,13.9,7.852,13.883,7.824,13.856L7.824,13.856z
	 M16.524,13.856c-0.011,0.129-0.011,0.258,0,0.387h0.243c0.027-0.026,0.062-0.043,0.1-0.048v-0.1
	c0.041-0.074,0.058-0.158,0.049-0.242h-0.391L16.524,13.856z M17.059,13.856l-0.049,0.387l0.49,0.048v-0.1
	c-0.159-0.1-0.05-0.168,0-0.338h-0.44L17.059,13.856z M9.914,13.956c0.027,0.026,0.063,0.043,0.1,0.048
	c-0.027-0.027-0.062-0.045-0.099-0.051L9.914,13.956z M14.58,14.584h0.194V14.34l-0.1-0.048v-0.049h-0.045v0.048
	c-0.043,0.09-0.06,0.19-0.048,0.29L14.58,14.584z M16.232,14.439c0.04,0.157-0.024,0.074,0.1,0.145v-0.051
	c-0.044-0.036-0.056-0.061-0.099-0.097L16.232,14.439z M16.524,14.439c0,0.052,0.017,0.104,0.049,0.145
	c0.001-0.053-0.016-0.105-0.048-0.148L16.524,14.439z M22.162,15.067v0.1c0.107-0.018,0.218,0.02,0.292,0.1
	c-0.054-0.199-0.054-0.195-0.291-0.203L22.162,15.067z M3.5,15.116c0.045,0.206,0.085,0.048,0,0.242h1.166
	c0.027-0.026,0.063-0.043,0.1-0.048l0.046-0.194H3.5z M4.861,15.116v0.19h0.048v-0.048c0.03-0.041,0.047-0.091,0.048-0.142H4.861
	L4.861,15.116z M3.5,15.696v0.29h0.923c0.043-0.06,0.077-0.125,0.1-0.193c-0.331-0.104-0.679-0.138-1.023-0.102V15.696z M3.5,16.034
	v0.241h0.971c0.025-0.041,0.059-0.076,0.1-0.101c-0.33-0.169-0.708-0.22-1.071-0.144V16.034z M3.5,16.324
	c0.046,0.212,0.1,0.087,0,0.242h1.069l0.1-0.146c-0.379-0.11-0.776-0.146-1.169-0.104V16.324z M3.5,16.614v0.241
	c0.353,0.063,0.712,0.08,1.069,0.047c0.063-0.083,0.098-0.185,0.1-0.289H4.617c-0.372,0.027-0.746,0.027-1.117-0.004V16.614z
	 M3.5,17.242c0.075,0.189,0.058,0.037,0,0.242h1.555v-0.053c-0.106-0.027-0.206-0.076-0.292-0.145c-0.063,0.119,0.021,0.033-0.1,0.1
	l0.049-0.145H3.5z M5.2,17.342v0.145h0.438v-0.151H5.2V17.342z M5.686,17.342c0,0.053,0.017,0.104,0.049,0.145
	c0.002-0.055-0.015-0.107-0.048-0.151L5.686,17.342z M5.786,17.342v0.145h0.192v-0.151H5.784L5.786,17.342z M6.126,17.342v0.145
	c0.793,0.076,1.593,0.061,2.382-0.047c-0.796,0.014-1.592-0.021-2.384-0.104L6.126,17.342z M0.731,17.486
	c0.04,0.158-0.024,0.074,0.1,0.146c0.074-0.063,0.125-0.147,0.146-0.241c-0.196-0.015-0.392,0.002-0.583,0.047v0.049h0.34H0.731z
	 M11.91,18.115l1.8,0.1v-0.154h-0.053v-0.045c-0.612-0.135-1.213-0.313-1.8-0.531H9.186l-0.632-0.047
	c-0.064,0.026,0.019,0.086-0.243,0.1c-0.745-0.07-1.495-0.055-2.236,0.048c0.331,0.049,0.656,0.13,0.972,0.241
	c0.367,0.058,1.036-0.051,1.458,0.048c0.792,0.187,1.05-0.353,1.75-0.192c0.63,0.135,1.576-0.259,1.653,0.426L11.91,18.115z
	 M5.2,17.527c0.138,0.069,0.299,0.069,0.437,0H5.2z M1.02,18.301h0.34v-0.1H1.312v-0.045c-0.101-0.021-0.199-0.056-0.292-0.1v0.24
	V18.301z M0.485,18.107c0.052,0.054,0.121,0.089,0.194,0.101C0.627,18.154,0.56,18.12,0.485,18.107L0.485,18.107z M0.922,18.107
	c-0.025,0.063-0.042,0.127-0.049,0.193h0.1v-0.193H0.922L0.922,18.107z M24.01,18.156c0.084,0.043,0.063,0.043,0.146,0H24.01z
	 M0.827,18.35c-0.006,0.066-0.022,0.131-0.049,0.192h0.194V18.35H0.827L0.827,18.35z M1.021,18.35v0.192h0.388v-0.048
	C1.378,18.452,1.36,18.401,1.36,18.35H1.021z M0.632,18.542c-0.04-0.157,0.024-0.074-0.1-0.146l-0.049,0.146H0.632z M28.384,18.441
	l-0.049,0.146c0.269,0.074,0.55,0.091,0.826,0.048c-0.231-0.052-0.5-0.132-0.777-0.188V18.441z M0.584,18.587
	c-0.158,0.04-0.074-0.024-0.146,0.101c0.041,0.042,0.075,0.092,0.1,0.145h0.045v-0.241L0.584,18.587z M0.778,18.587v0.242h0.194
	v-0.238H0.778V18.587z M1.021,18.587v0.242h0.437v-0.045c-0.036-0.058-0.053-0.126-0.049-0.193H1.021V18.587z M0.778,18.877v0.148
	h0.194v-0.145H0.778V18.877z M1.021,18.877v0.148c0.167,0.007,0.331,0.041,0.486,0.101v-0.052c-0.036-0.058-0.053-0.125-0.049-0.193
	H1.021V18.877z M0.778,19.167c0.121,0.061,0.254,0.095,0.389,0.101v-0.101H0.778z M0.438,19.215
	c0.005,0.066,0.022,0.132,0.049,0.193h0.1v-0.141L0.438,19.215z M0.73,19.314v0.101h0.242v-0.051
	c-0.078-0.029-0.16-0.046-0.243-0.048L0.73,19.314z M1.022,19.363c0.027,0.026,0.063,0.043,0.1,0.048
	C1.094,19.385,1.059,19.368,1.022,19.363L1.022,19.363z M0.779,19.463v0.193h0.193V19.46H0.778L0.779,19.463z M1.022,19.463v0.193
	c0.2,0.055,0.414,0.019,0.583-0.1c-0.19-0.055-0.386-0.087-0.584-0.097L1.022,19.463z M0.39,19.946h0.242l-0.049-0.29H0.535
	c-0.061,0.041-0.126,0.074-0.194,0.1c0.025,0.061,0.041,0.123,0.048,0.188L0.39,19.946z M0.827,19.705v0.193h0.048v0.048h0.1v-0.244
	H0.826L0.827,19.705z M1.021,19.946H1.7v-0.101H1.652c-0.02-0.095,0.075-0.035,0-0.1c-0.188-0.059-0.387-0.076-0.583-0.048
	c-0.029,0.079-0.045,0.161-0.048,0.245V19.946z M0.875,19.994c0.134,0.291,0.394,0.263,0.826,0.242
	c0.004-0.038,0.021-0.074,0.049-0.101v-0.1c-0.288-0.055-0.583-0.069-0.875-0.044V19.994z M1.7,20.816
	c-0.08,0.018-0.163,0.018-0.243,0H1.409v-0.051c0.067,0.004,0.134-0.014,0.191-0.05c0.008-0.146,0.025-0.291,0.049-0.435H1.021v0.1
	c0.163,0.335,0.395,0.631,0.68,0.87v-0.245C1.678,20.945,1.677,20.877,1.7,20.816z M1.165,20.479
	c0.147-0.021,0.298-0.005,0.437,0.047c-0.147,0.021-0.297,0.003-0.436-0.051L1.165,20.479z M1.265,20.671l0.144,0.045v0.048
	c-0.062-0.006-0.116-0.041-0.145-0.096L1.265,20.671z M1.508,20.864l0.146,0.048v0.048c-0.063-0.006-0.118-0.043-0.147-0.099
	L1.508,20.864z M31.885,20.864c-0.069,0.046-0.121,0.113-0.146,0.192c0.051,0.021,0.215-0.148,0.144-0.195L31.885,20.864z
	 M2.527,21.006c0.027,0.026,0.063,0.043,0.1,0.048C2.6,21.027,2.564,21.011,2.527,21.006z M2.333,21.105v0.101h0.049V21.15H2.43
	c-0.027-0.025-0.061-0.042-0.097-0.047V21.105z M2.187,21.154c0.016,0.106-0.05,0.052,0.049,0.1c0.012-0.02,0.029-0.036,0.049-0.048
	c-0.026-0.028-0.061-0.048-0.098-0.056V21.154z M1.75,21.348c0.056,0.072,0.121,0.137,0.194,0.192v-0.147H1.9v-0.048H1.75V21.348z
	 M5.15,22.747H4.666v0.048h0.048c0.107,0.112,0.241,0.195,0.389,0.242L5.15,22.747z M29.063,22.795
	c-0.029,0.078-0.045,0.159-0.049,0.242h0.101c0.079-0.088,0.181-0.154,0.292-0.193v-0.05c-0.112,0.029-0.23,0.029-0.342,0
	L29.063,22.795z M8.651,23.857c-0.084,0.18-0.199,0.343-0.34,0.482H9.04v-0.049C8.869,24.175,8.81,23.98,8.651,23.857z M12.1,23.905
	l-0.34,0.435h0.681v-0.049C12.315,24.174,12.201,24.045,12.1,23.905z M15.551,23.905c-0.086,0.151-0.184,0.297-0.292,0.435h0.632
	v-0.1c-0.142-0.092-0.206-0.234-0.338-0.335H15.551z M25.417,23.953c-0.088,0.135-0.186,0.264-0.292,0.386h0.632v-0.1
	c-0.104-0.104-0.218-0.2-0.338-0.286H25.417z M22.018,24.053l-0.244,0.29h0.535c-0.08-0.113-0.179-0.212-0.291-0.293V24.053z
	 M18.858,24.152l-0.146,0.193h0.34v-0.1c-0.059-0.043-0.125-0.076-0.194-0.1V24.152z"/>
</svg>
