<?xml version="1.0" encoding="utf-8"?>
<!-- Generator: Adobe Illustrator 16.0.0, SVG Export Plug-In . SVG Version: 6.00 Build 0)  -->
<!DOCTYPE svg PUBLIC "-//W3C//DTD SVG 1.1//EN" "http://www.w3.org/Graphics/SVG/1.1/DTD/svg11.dtd">
<svg version="1.1" id="Layer_1" xmlns="http://www.w3.org/2000/svg" xmlns:xlink="http://www.w3.org/1999/xlink" x="0px" y="0px"
	 width="40px" height="40px" viewBox="0 0 40 40" enable-background="new 0 0 40 40" xml:space="preserve">
<path id="germ_leopard_2k_ico" fill="#FFFFFF" d="M7.181,14.856c0.069-0.014,0.136-0.036,0.2-0.066h0.4
	c0.352-0.077,0.79-0.018,1.145-0.088c0-0.07-0.037-0.03,0.022-0.066c0.061,0.029,0.046,0,0.11-0.021v0.044
	c-0.018,0.011-0.033,0.026-0.044,0.044h0.11c0.078,0.025,0.161,0.033,0.242,0.022v-0.177c0.169,0.021,0.341-0.018,0.485-0.111
	c-0.045-0.1-0.037-0.216,0.022-0.309c0.095-0.015,0.173-0.084,0.2-0.177c0.031-0.062,0.046-0.131,0.044-0.2
	c-0.166-0.122-0.244-0.329-0.2-0.53c-0.127,0.002-0.254-0.004-0.38-0.02v0.066H9.383C9.329,13.029,9.233,12.804,9.1,12.6l-0.066-0.2
	c-0.044,0-0.058,0.005-0.088-0.066c-0.016-0.058-0.016-0.119,0-0.177c0.24-0.044,0.484-0.059,0.727-0.044
	c0.343,0.045,0.69,0.053,1.035,0.021c0.204-0.127,0.442-0.189,0.683-0.177c0.138,0.047,0.272,0.106,0.4,0.177h0.551
	c0.124,0.029,0.3,0.081,0.418,0.111h0.418c0.295,0.123,0.607,0.197,0.925,0.221v0.2h3.128c0.521,0.042,1.044,0.034,1.564-0.022
	c0.489-0.105,1,0.12,1.432-0.022v0.267c-1.949-0.006-4.077-0.021-6.123-0.022c0.021,0.095,0.036,0.19,0.044,0.287H14.1
	c-0.23,0.048-0.467,0.056-0.7,0.021c-0.4,0-0.672,0.13-1.057,0.133c0.041,0.291,0.1,0.579,0.176,0.862l0.675,0.128v-0.04
	c-0.044-0.028-0.082-0.065-0.11-0.11c0.109-0.072,0.179-0.229,0.286-0.287c0.09-0.045,0.172-0.104,0.242-0.177
	c0.046-0.084,0.116-0.154,0.2-0.2c0.095,0.083,0.176,0.18,0.242,0.287c-0.049,0.142-0.024,0.3,0.066,0.42
	c0.284,0.043,0.573,0.051,0.859,0.022c0.302-0.024,0.605-0.002,0.9,0.066c0.066,0.017,0.035-0.053,0.066-0.066h0.242
	c0.177,0.034,0.36,0.019,0.529-0.044c-0.081-0.015-0.06,0-0.088-0.066c0.032-0.066,0.104-0.102,0.176-0.088
	c0.079,0.027,0.16,0.049,0.242,0.066c0.035,0.049,0.064,0.101,0.088,0.155c0.101,0.069,0.212,0.122,0.33,0.155
	c0.057-0.276,0.079-0.558,0.066-0.84c0.023-0.023,0.039-0.055,0.044-0.088c0.201-0.152,0.448-0.23,0.7-0.221
	c0.016,0.185,0.069,0.365,0.154,0.53c-0.023,0-0.047,0.007-0.066,0.022c0.104,0.182,0.135,0.396,0.088,0.6
	c0.097,0.123,0.208,0.234,0.33,0.332v-0.115h0.132V14.7c0.009,0.005,0.017,0.013,0.022,0.022c0.017-0.002,0.032-0.01,0.044-0.022
	c0.03-0.108,0.038-0.221,0.022-0.331h0.33v0.2c0.065,0.018,0.132,0.025,0.2,0.022v-0.4h0.11v0.4c0.267,0,0.315-0.022,0.573-0.022
	V14.26c-0.057-0.027-0.109-0.064-0.154-0.11c0.027-0.094,0.019-0.209,0.044-0.309c0.075-0.059,0.168-0.09,0.264-0.088
	c0.117,0.064,0.173,0.203,0.132,0.331c-0.015,0.054,0.071,0.019,0.022,0.066c-0.117,0.106-0.168,0.267-0.132,0.42
	c0.067-0.008,0.136-0.001,0.2,0.022c-0.018,0.035-0.018,0.076,0,0.11c0.21,0.047,0.427,0.054,0.64,0.022
	c0.06,0.053,0.141,0.078,0.22,0.066c-0.008-0.029-0.008-0.059,0-0.088c0.03,0.025,0.071,0.034,0.11,0.022v0.066l0.924,0.2l0.4,0.021
	c0.145,0.065,0.305,0.088,0.462,0.066c-0.007,0.044-0.007,0.089,0,0.133c0.114,0.004,0.22,0.062,0.286,0.155
	c0.14,0.062,0.289,0.099,0.441,0.111c0.004-0.197,0.156-0.358,0.352-0.376c0.326,0.248,0.176,0.233,0.11,0.6
	c0.012,0.012,0.02,0.027,0.022,0.044c0.156,0.085,0.318,0.159,0.484,0.221c0.035-0.016,0.072-0.023,0.109-0.022
	c0.041,0.033,0.078,0.07,0.11,0.111h1.212c0.084,0.029,0.141,0.148,0.221,0.177h0.639c0.025-0.008,0.008-0.052,0.066-0.044
	c0.264,0.035,0.894,0.186,1.276,0.2h1.3c0.17,0.024,0.342,0.017,0.508-0.022c0.127-0.054,0.17-0.221,0.308-0.265h1.256
	c0.14-0.02,0.282-0.012,0.419,0.022c0.125,0.069,0.23,0.168,0.309,0.287c2.359,0,4.863,0.042,7.225,0.044v0.862h-4.689
	c-0.936-0.05-1.874-0.006-2.801,0.133h-0.922c-0.79,0-1.412-0.066-2.225-0.066h-0.793c-0.192,0.046-0.422,0.107-0.639,0.155
	l-1.229-0.03c-0.188,0.284-1.19,0.182-1.675,0.178l-0.899,0.221l-0.683,0.354c0.005,0.01,0.013,0.017,0.021,0.022
	c0.256,0.031,0.516,0.031,0.771,0c0.212,0.082,0.434,0.134,0.66,0.155l0.022-0.155l0.22,0.021c0.006,0.009,0.014,0.017,0.022,0.022
	c0,0.1-0.024,0.126,0.022,0.154c0.162,0.059,0.334,0.088,0.506,0.088v-0.043c-0.038-0.052-0.061-0.113-0.065-0.178
	c0.058-0.017,0.116-0.023,0.176-0.021c0.071,0.024,0.146,0.032,0.22,0.021c0.022,0.108,0.128,0.179,0.236,0.156
	c0.002,0,0.004,0,0.006-0.001c0.034,0.017,0,0,0.066,0v0.265l0.154,0.022c0,0.083-0.027,0.054,0.065,0.065
	c0.18,0.051,0.364,0.08,0.552,0.088c0.287,0.1,0.582,0.182,0.881,0.244v-0.043c-0.185-0.113-0.348-0.255-0.485-0.42
	c0.073-0.109,0.171-0.2,0.286-0.266c0.047,0.061,0.123,0.094,0.199,0.088c0.022-0.044,0.063-0.076,0.11-0.088
	c0.243,0.287,0.525,0.54,0.837,0.751c0.037-0.059,0.109-0.086,0.176-0.065c0.035,0.061,0.051,0.13,0.045,0.199
	c-0.031,0.037-0.039,0.088-0.022,0.133c0.089,0.045,0.187,0.068,0.286,0.066c0.263,0.1,0.623,0.184,0.837,0.243
	c0.168,0.047,0.368-0.101,0.485-0.044c0.015,0.068,0.037,0.136,0.065,0.199c0.104,0.045,0.218,0.061,0.33,0.045
	c0.013-0.035,0.021-0.072,0.022-0.11c-0.051-0.024-0.077-0.079-0.066-0.133c0.039-0.028,0.084-0.044,0.132-0.044
	c0.085-0.027,0.176-0.035,0.265-0.022c0.011,0.019,0.025,0.033,0.043,0.044c-0.002,0.018-0.01,0.032-0.021,0.045
	c-0.019,0.051-0.059,0.091-0.109,0.11V19.9c0.147,0.037,0.088,0.088,0.153,0.199v-0.027c0.136-0.092,0.241-0.221,0.302-0.372h0.066
	c-0.008,0.206,0,0.413,0.021,0.618c-0.139,0.024-0.242,0.146-0.242,0.287c0.263-0.021,0.5-0.168,0.486,0.244
	c-0.002,0.055,0.013,0.108,0.043,0.154c-0.043,0-0.006-0.023-0.043,0c0.012,0.012,0.019,0.027,0.021,0.044
	c-0.064,0-0.031-0.021-0.066,0c0,0.081-0.008,0.163-0.021,0.243c0.042,0.015,0.087,0.021,0.132,0.021
	c0.026-0.102,0.101-0.185,0.2-0.221c0.011,0.018,0.025,0.033,0.044,0.044c-0.046,0.14-0.12,0.269-0.22,0.376
	c-0.315,0.258-0.472-0.277-0.463-0.552h-0.619l0.065,0.552h-0.132v-0.556h-0.044c-0.019-0.015-0.042-0.022-0.065-0.022
	c-0.235,0.214-0.494,0.398-0.771,0.553c0.096,0.229,0.08,0.49-0.044,0.707c-0.062-0.029-0.136-0.012-0.177,0.044
	c0.03,0.048,0.053,0.1,0.066,0.155c-0.063,0.057-0.114,0.125-0.154,0.199l-0.285,0.243c-0.051-0.019-0.101-0.044-0.154-0.065
	c0.015,0.063-0.002,0.128-0.044,0.177c-0.101,0.129-0.3,0.169-0.419,0.286c-0.067-0.025-0.1-0.064-0.176-0.088
	c0.02,0.067,0.012,0.14-0.022,0.2c-0.146,0.087-0.285,0.183-0.418,0.287c-0.054-0.044-0.112-0.081-0.176-0.11v0.045
	c0.017,0.05,0.017,0.104,0,0.154c-0.136,0.124-0.292,0.222-0.464,0.287c-0.033-0.038-0.08-0.062-0.131-0.066
	c0.018,0.063,0.001,0.131-0.045,0.178c-0.121,0.125-0.273,0.216-0.44,0.265c-0.03-0.042-0.08-0.067-0.132-0.065
	c0.01,0.06,0.002,0.121-0.022,0.177c-0.118,0.117-0.3,0.168-0.419,0.287c-0.066-0.026-0.1-0.065-0.176-0.089
	c0.021,0.057,0.003,0.119-0.044,0.156c-0.146,0.09-0.313,0.135-0.485,0.133c-0.026-0.039-0.056-0.076-0.088-0.111h-0.021v0.02
	c-0.041,0.008-0.069,0.046-0.066,0.088C19.216,24.975,12.457,25,5.859,25v-0.066H5.815C5.777,24.9,5.78,24.9,5.749,24.912
	C5.708,24.92,5.68,24.958,5.683,25l-0.595-0.066c0.017-0.069,0-0.143-0.044-0.199c-0.05,0.068-0.136,0.104-0.22,0.088
	c-0.169-0.077-0.32-0.19-0.441-0.331c0.024-0.057,0.039-0.116,0.044-0.177H4.383c-0.034,0.049-0.094,0.074-0.154,0.065
	c-0.177-0.084-0.33-0.214-0.441-0.376c0.023-0.057,0.038-0.116,0.044-0.177H3.789c-0.032,0.052-0.094,0.079-0.154,0.065
	c-0.158-0.094-0.306-0.205-0.441-0.33c0.008-0.061,0.023-0.12,0.044-0.178H3.216v-0.02c-0.052,0.034-0.114,0.05-0.176,0.044
	c-0.173-0.091-0.323-0.22-0.44-0.376c0.017-0.05,0.024-0.103,0.022-0.155H2.6c-0.051,0.038-0.112,0.062-0.176,0.065
	C2.31,22.78,2.11,22.7,2,22.525c0.038-0.053,0.061-0.113,0.066-0.178H2.048c-0.057,0.02-0.119,0.02-0.176,0
	c-0.026-0.052-0.064-0.098-0.11-0.133v-0.021H1.74c0.023,0.238-0.151,0.449-0.389,0.473c-0.047,0.005-0.095,0.002-0.141-0.009
	C1.15,22.547,1.112,22.426,1.1,22.3H1.013c-0.003-0.015-0.011-0.029-0.022-0.04v-0.021h0.044c0.042-0.037,0.099-0.054,0.154-0.045
	c-0.006-0.051-0.006-0.104,0-0.154c0.108-0.031,0.117-0.076,0.11-0.221c0.007-0.014-0.02-0.168-0.022-0.266
	c0.05-0.016,0.102-0.023,0.154-0.021c0,0.06,0.007,0.119,0.022,0.177h0.265v-0.089H1.63v-0.111c-0.015-0.014-0.03-0.028-0.044-0.044
	c-0.031-0.003-0.062,0.005-0.088,0.022l-0.022-0.133H0.9l-0.085,1.769c-0.103,0.003-0.207-0.005-0.308-0.022v-0.022
	c0.056-0.111,0.093-0.231,0.11-0.354c0.092-0.281,0.149-0.623,0.22-0.949c0.021-0.143,0.006-0.286-0.044-0.42v-0.53
	c-0.024,0-0.047-0.009-0.066-0.023c-0.014-0.069-0.036-0.136-0.066-0.2v-0.02c-0.022-0.021-0.022,0.02-0.022,0.02
	c-0.038,0.152-0.045,0.31-0.022,0.465H0.529V20.8c-0.111-0.031-0.201-0.112-0.243-0.22c0.056-0.032,0.025,0,0.044-0.066
	C0.273,20.505,0.3,20.53,0.286,20.47c0.115-0.03,0.201-0.125,0.22-0.243c0.026-0.078,0.034-0.161,0.022-0.242
	c0.052-0.002,0.104-0.009,0.154-0.022v-0.045c-0.094-0.136-0.168-0.285-0.22-0.442V19.5c-0.024,0.011-0.046,0.025-0.066,0.044
	c0.044,0.097,0.066,0.202,0.066,0.31H0.419c-0.034,0.016,0,0-0.066,0l-0.044-0.31H0.242V19.5c-0.051-0.111-0.065-0.236-0.042-0.355
	c-0.061,0-0.048,0.025-0.066-0.066c0.04-0.152,0.04-0.313,0-0.464H0.066v-0.046C0.017,18.427-0.005,18.277,0,18.127h0.044
	c0.5-0.151,1.026-0.188,1.542-0.109l0.088-0.201H5.2l0.11,0.201h1.52c0.356-0.061,0.717-0.09,1.079-0.089v-0.022h-0.4v-0.022h3.833
	c0.01,0.063,0.094,0.05,0.22,0.044c0.112,0.052,0.23,0.089,0.352,0.11c0.205,0.125,0.418,0.236,0.639,0.332h0.859
	c0.019-0.027,0.034-0.057,0.044-0.088c-0.169-0.036-0.333-0.096-0.485-0.177c-0.217-0.09-0.42-0.109-0.639-0.2
	c-0.28-0.127-0.566-0.237-0.859-0.331c-0.07-0.015-0.143,0.002-0.2,0.044c-0.07,0.014-0.142-0.003-0.2-0.044h-0.038
	c-0.057,0.043-0.13,0.06-0.2,0.044l-0.022-0.066h-0.35c-0.253-0.058-0.517-0.058-0.771,0c-0.076,0.018-0.156,0.001-0.22-0.044
	c-0.067-0.026-0.046,0.022-0.066,0.044c-0.04,0.007-0.11-0.021-0.176-0.021c-0.115-0.061-0.248-0.077-0.374-0.044
	c-0.35-0.044-0.704-0.059-1.056-0.044c-0.019-0.027-0.034-0.057-0.044-0.088c-0.028-0.039-0.043-0.085-0.044-0.133l-0.374,0.066
	c-0.045-0.12-0.06-0.249-0.044-0.376c-0.336-0.166-0.654-0.367-0.947-0.6c-0.138-0.047-0.259-0.131-0.352-0.243
	c-0.071-0.205-0.104-0.42-0.095-0.637c0.123-0.171,0.281-0.314,0.463-0.42l0.22-0.044c0.063-0.08,0.163-0.122,0.264-0.11
	c-0.008-0.101,0.033-0.199,0.11-0.265l0.022-3.647v-1.3C6.958,9.43,6.965,9.213,7,9h0.026v0.022
	c0.036,0.152,0.043,0.309,0.022,0.464v1.149l0.022,3.956C7.146,14.657,7.187,14.755,7.181,14.856z"/>
</svg>
