<?xml version="1.0" encoding="utf-8"?>
<!-- Generator: Adobe Illustrator 16.0.0, SVG Export Plug-In . SVG Version: 6.00 Build 0)  -->
<!DOCTYPE svg PUBLIC "-//W3C//DTD SVG 1.1//EN" "http://www.w3.org/Graphics/SVG/1.1/DTD/svg11.dtd">
<svg version="1.1" id="Layer_1" xmlns="http://www.w3.org/2000/svg" xmlns:xlink="http://www.w3.org/1999/xlink" x="0px" y="0px"
	 width="39.969px" height="40px" viewBox="0 0 39.969 40" enable-background="new 0 0 39.969 40" xml:space="preserve">
<path id="Color_Fill_1" fill="#FFFFFF" d="M29.593,13.188v0.445l-4.12,0.049c0.069,0.062,0.134,0.128,0.193,0.2
	c-0.148,0.16-0.219,0.377-0.193,0.593l-1.939,0.049l0.582,0.988l0.388,0.148l0.388,1.186l2.57,0.4c0.441,0.1,2.15,0.084,2.182,0.1
	c0.566,0.217,1.15,0.383,1.746,0.494c0.568,0.128,1.5-0.036,1.793,0.049c0.227,0.066,0.659,0.313,1.019,0.4
	c0.418,0.1,0.938-0.115,1.212,0c0.34,0.195,0.724,0.299,1.115,0.3l0.145-0.346h0.63c-0.065-0.397-0.03-0.806,0.101-1.187
	l0.145-0.049l0.048,0.049c-0.189,1.375,1.054,5.426,1.939,6.077l0.146-0.1v-0.05l-0.049-0.148l-0.388-0.247l0.1-0.1l0.582,0.3
	l0.044,0.083l-0.048,0.3l-0.241,0.301l-0.631-0.148l-0.388,0.494c0.46,1.502-0.386,3.093-1.889,3.553
	c-0.538,0.164-1.112,0.166-1.65,0.004c-1.215-0.377-1.536-1.195-2.036-2.322c-0.969,0.46-1.869-0.225-2.764-0.246
	c-0.559,1.979-2.729,1.898-4.854,2.31c-2.533,0.5-5.992,0.3-8.97,0.3c-1.907,0.111-3.819,0.078-5.721-0.1
	c-1.544-0.264-3.133-0.094-4.024-0.988c-0.618-0.721-0.899-1.671-0.773-2.612l-0.921-0.1l0.048,0.399
	c-0.485,0.05-0.974,0.033-1.455-0.049c-0.032-0.185-0.016-0.375,0.049-0.551l-1.164,0.3c-0.085-0.085-0.151-0.188-0.194-0.3
	c0.243-0.075,0.2-0.092,0.194-0.4l-0.194-0.1l0.339-0.691l0.1,0.049c-0.013,0.109,0.024,0.219,0.1,0.3
	c-0.037-0.22-0.001-0.444,0.1-0.642h0.041c-0.07,0.295,0.001,0.605,0.194,0.84l0.485,0.147c-0.051-0.846-0.479-1.624-1.164-2.122
	c-0.073-0.154-0.09-0.328-0.048-0.494l-0.922-1.486l-0.1,0.049c0.1,0.199,0.142,0.177,0.048,0.346H1.469L1.13,18.52l0.145-0.05
	l0.145,0.247l0.1-0.1c-0.62-1.038-1.725-2.186-1.5-3.162c0.2-0.182,0.428-0.331,0.676-0.439c0.012-0.433-0.037-0.866-0.145-1.285
	c0.113-0.117,0.284-0.156,0.436-0.1c0.141,0.032,0.241,0.156,0.242,0.3L1.084,13.98l3.055-0.445l0.048-0.346h1.309v0.3
	c-0.371,0.041-0.745,0.041-1.115,0v0.3c-1.318-0.083-2.182,0.848-3.3,1.186v0.041h0.1c0.992,0.392,3.131-0.6,3.927-0.247l0.1,0.247
	c0.043,0.026,2.2-0.235,2.327-0.3c1.031,0.437,1.963,0.189,3.248,0.247l7.95,0.053v-0.2c-0.193,0.029-0.126,0.066-0.242-0.1
	l0.242-0.148c-0.336-0.17-0.028-0.4-0.291-0.593c-0.159,0.288-1.4,0.179-1.745,0.1l-0.049-0.148c-0.109-0.361-0.073-0.751,0.1-1.087
	c0.568-0.067,1.144-0.034,1.7,0.1v0.84h0.533v-0.049c-0.142-0.343-0.192-0.718-0.145-1.087c0.394-0.012,0.786,0.038,1.164,0.148
	v-0.889h-0.589v-0.247h0.582c-0.032-0.517-0.324-0.982-0.776-1.235l0.049-0.2l0.1-0.049h0.63V4.641
	c-0.104-0.708-0.072-1.429,0.094-2.125v7.559c0.608,0.034,2.055,2.253,2.279,2.816h0.049l0.049-0.642h0.145
	c-0.106,0.287-0.106,0.603,0,0.889L29.593,13.188z M20.139,12.052v0.2l0.339,0.2C20.435,12.272,20.309,12.124,20.139,12.052z
	 M20.139,12.793h0.436l-0.1-0.148l-0.339-0.2v0.346L20.139,12.793z M19.8,12.893c0.033,0.063,0.083,0.114,0.145,0.148l0.048-0.148
	H19.8L19.8,12.893z M20.139,12.893c0.104,0.162,0.297,0.242,0.485,0.2V13.04l-0.048-0.148L20.139,12.893L20.139,12.893z
	 M22.951,13.684c0.086,0.097,0.229,0.117,0.339,0.049L22.951,13.684z M23.824,13.684c0.338,0.145,0.717,0.163,1.066,0.049
	L23.824,13.684z M20.479,13.733L20.479,13.733z M1.084,14.176l-0.048,0.64l1.988-0.939L1.084,14.176z M18.975,13.976l0.1,0.2
	l0.145-0.049l-0.1-0.148h-0.145V13.976z M19.12,14.569L19.12,14.569z M19.12,14.816l0.049,0.249c0.288,0.02,0.43,0.04,0.533-0.148
	C19.504,14.914,19.308,14.88,19.12,14.816L19.12,14.816z M20.62,14.816l0.1,0.247h0.05v-0.247h-0.146H20.62z M23.529,15.063h0.242
	l-0.101-0.1l-0.101-0.148h-0.037v0.247L23.529,15.063z M3.896,14.916c0.204,0.143,0.475,0.143,0.679,0H3.896z M6.417,14.916
	c0.207,0.134,0.473,0.134,0.679,0H6.417z M20.525,14.916l0.101,0.1L20.525,14.916z M20.38,15.016l0.1,0.1L20.38,15.016z
	 M3.751,22.525v0.347l0.145-0.101v-0.047L3.751,22.525z M3.799,23.416l0.194,0.2c0.123,0.019,0.247-0.019,0.34-0.101L3.799,23.416z
	 M7.775,24.898l0.1,0.049L7.775,24.898z M8.551,25.046l-0.1,0.247l0.339,0.1l0.1-0.1v-0.148l-0.1-0.1L8.551,25.046L8.551,25.046z
	 M25.521,25.246l-0.34,0.691l1.649-0.246l-0.049-0.101c-0.192,0.007-0.14,0.072-0.388,0.101c-0.121-0.363-0.509-0.563-0.873-0.448
	V25.246z M10.636,25.346v0.247l0.1-0.049L10.636,25.346z M27.557,25.395l0.101,0.049L27.557,25.395z M11.848,25.643l0.1,0.1
	L11.848,25.643z M21.398,25.643l0.101,0.1L21.398,25.643z M11.46,25.691v0.246l0.1-0.1L11.46,25.691z M16.212,25.691l0.049,0.246
	h0.049c0.004-0.094-0.032-0.184-0.099-0.25L16.212,25.691z M21.012,25.691v0.246l0.1-0.1L21.012,25.691z"/>
</svg>
