<?xml version="1.0" encoding="utf-8"?>
<!-- Generator: Adobe Illustrator 16.0.0, SVG Export Plug-In . SVG Version: 6.00 Build 0)  -->
<!DOCTYPE svg PUBLIC "-//W3C//DTD SVG 1.1//EN" "http://www.w3.org/Graphics/SVG/1.1/DTD/svg11.dtd">
<svg version="1.1" id="Layer_1" xmlns="http://www.w3.org/2000/svg" xmlns:xlink="http://www.w3.org/1999/xlink" x="0px" y="0px"
	 width="39.969px" height="40px" viewBox="0 0 39.969 40" enable-background="new 0 0 39.969 40" xml:space="preserve">
<path id="germ_pzkpfw_iii_ausf_f_ico" fill="#FFFFFF" d="M19.324,9.925h0.442v0.056c0.018,0.024,0.027,0.053,0.028,0.083h0.524
	c0,0.243-0.052,0.32-0.055,0.556c0.128,0.161,0.213,0.353,0.248,0.556c-0.017-0.062,0.005-0.127,0.056-0.167
	c0.232-0.11,0.506-0.089,0.718,0.056v0.25c0.072,0.263,0.11,0.534,0.11,0.806h0.248v0.111l0.084,0.028
	c0.152,0.04,0.311,0.059,0.469,0.056c0.373,0.084,0.783,0.047,1.187,0.139c0.522,0.119,1.101,0.069,1.656,0.195
	c0.369,0.084,0.784,0.047,1.187,0.139c0.381,0.084,0.77,0.131,1.159,0.139c0.028,0.099,0.087,0.186,0.166,0.25
	c0.114,0.08,0.247,0.128,0.386,0.139v-0.055c-0.121-0.062-0.09-0.054-0.082-0.222h0.192c0.208,0.191,0.43,0.368,0.663,0.528h1.85
	c0.097-0.032,0.199-0.042,0.301-0.028c0.016,0.089,0.065,0.168,0.138,0.223c0.218,0.05,0.442,0.06,0.663,0.028
	c0.55,0,1.265-0.021,1.684,0.028c0.02,0.082,0.059,0.157,0.111,0.222c0.145,0.039,0.293,0.058,0.441,0.056
	c0.437,0.085,0.881,0.123,1.326,0.111l3.754,0.028v0.612c-0.801,0-1.617,0.028-2.375,0.028c-1.069-0.042-2.141,0.014-3.199,0.167
	c0.008,0.091-0.022,0.182-0.084,0.25c-0.229-0.015-0.459-0.015-0.689,0h-1.656c-0.1,0.205-0.091,0.264-0.414,0.25
	c-0.163-0.041-0.332-0.051-0.5-0.027h-1.184c0.009,0.219-0.107,0.423-0.3,0.527c-0.011-0.063-0.04-0.121-0.083-0.167
	c0.061-0.112,0.098-0.235,0.109-0.362H28.57c-0.061,0.043-0.125,0.08-0.192,0.111c-0.071,0.052-0.094,0.166-0.166,0.223l0.11,0.389
	h2.291c0.056,0.1,0.143,0.178,0.248,0.223c0.209-0.191,0.49-0.283,0.772-0.25l0.028,0.083c0.018,0.024,0.027,0.054,0.027,0.084
	h-0.026V16.4c-0.021-0.004-0.04-0.014-0.056-0.028c-0.061-0.071-0.019-0.085-0.138-0.111c-0.023,0.034-0.042,0.071-0.055,0.111
	c0.036,0.036,0.057,0.087,0.055,0.139h0.222l0.026,0.089c0.039,0.078,0.058,0.164,0.056,0.25h0.166
	c0.062,0.105,0.16,0.186,0.275,0.224c-0.02,0.159-0.001,0.321,0.055,0.473c0.552,0.038,1.105,0.038,1.656,0
	c0.184,0.019,0.369,0.019,0.553,0c0.221-0.008,0.442,0.001,0.662,0.028v0.25l-0.275-0.028v0.054
	c-0.079,0.031-0.164,0.041-0.248,0.028c-0.6-0.017-1.43-0.028-2.264-0.028v0.057c0.025,0.08,0.035,0.166,0.027,0.25l1.491,0.111
	v0.11c-0.036,0.126-0.046,0.259-0.028,0.39l0.663,0.032c0.015-0.159-0.087-0.337-0.055-0.417c-0.005-0.083,0.055-0.156,0.138-0.167
	c0.066-0.04,0.144-0.06,0.221-0.056c0.013,0.223,0.003,0.445-0.027,0.667c0.398,0.005,0.795,0.042,1.187,0.11
	c0.358,0.086,0.771,0,1.101,0.084c0.279,0.065,0.783-0.074,0.938,0c0.019,0.021,0.036,0.062,0.056,0.082
	c0.15-0.112,0.347-0.144,0.524-0.082l0.028,0.64c0.395,0.282,0.756,0.608,1.076,0.973c-0.079,0.078-0.152,0.161-0.221,0.25v0.056
	c0.193,0.067,0.365,0.182,0.5,0.334c0.014,0.266-0.031,0.453-0.3,0.445c-0.118,0.053-0.065-0.027-0.138-0.056
	c-0.239,0.008-0.474,0.065-0.69,0.167c0.076,0.093,0.024,0.1,0,0.223h0.028v0.028c0.054-0.019,0.112-0.019,0.166,0l0.055,0.25
	h-0.143v0.028c0.123,0.199,0.152,0.443,0.083,0.666h0.028c0.041-0.022,0.09-0.032,0.138-0.027l0.028,0.277h-0.168V23.3
	c0.043,0.219-0.02,0.444-0.166,0.612c0.112,0.014,0.113,0.006,0.139,0.111c-0.035,0.049-0.055,0.106-0.055,0.166
	c-0.061,0.001-0.119-0.02-0.166-0.056c-0.008,0.082-0.028,0.25-0.028,0.25c-0.006,0.116-0.083,0.216-0.193,0.25v-0.026h-0.026v0.028
	c-0.023,0.021-0.03,0.035-0.055,0.056c0.035,0.063,0.063,0.128,0.083,0.195c-0.046,0.049-0.083,0.105-0.11,0.167l-0.138-0.083
	c-0.063,0.214-0.229,0.381-0.442,0.445c0.042,0.033,0.063,0.086,0.056,0.139c-0.041,0.078-0.11,0.138-0.192,0.168
	c-0.013-0.041-0.031-0.078-0.056-0.111h-0.028v0.027c-0.043,0.031-0.08,0.068-0.111,0.111c-0.123,0.066-0.252,0.123-0.385,0.167
	l0.082,0.14c-0.076,0.01-0.145,0.05-0.192,0.11h-0.029v-0.03c-0.031-0.041-0.068-0.079-0.11-0.111
	c-0.178,0.094-0.346,0.205-0.5,0.334c0.028,0.031,0.06,0.08,0.084,0.111l-0.276,0.057c-0.007-0.051-0.025-0.098-0.056-0.14
	l-0.58,0.195v0.026c0.023,0.043,0.033,0.092,0.028,0.14c-0.075,0.013-0.148,0.031-0.221,0.056v-0.056
	c-0.019-0.024-0.028-0.054-0.028-0.084c-0.213,0.021-0.42,0.088-0.606,0.194c0.022,0.045,0.041,0.092,0.055,0.14h-0.052
	c-0.066,0.04-0.144,0.06-0.221,0.056c0-0.029-0.01-0.059-0.028-0.082c-0.024-0.019-0.054-0.028-0.083-0.029l-0.469,0.168
	c0.021,0.043,0.021,0.095,0,0.139c-0.067,0.043-0.143,0.07-0.222,0.083v-0.056c-0.018-0.024-0.027-0.054-0.028-0.084l-0.58,0.168
	v0.166h-0.026v0.029l-0.192,0.027c-0.006-0.057-0.037-0.107-0.084-0.139c-0.164,0.084-0.342,0.141-0.524,0.167
	c-0.023,0.063-0.056,0.126-0.083,0.194l-0.193,0.028c-0.007-0.012-0.016-0.021-0.027-0.028v-0.113l-0.553,0.057
	c-0.052,0.134-0.05,0.2-0.248,0.195c-0.006,0.012-0.016,0.021-0.027,0.027v-0.056c-0.021-0.033-0.031-0.072-0.028-0.11
	c-0.192,0.02-0.386,0.028-0.58,0.027V28h-0.247c-0.013-0.266-0.318-0.177-0.635-0.167v0.056c0.014,0.036,0.014,0.076,0,0.111h-0.221
	c-0.016-0.055-0.016-0.112,0-0.167h-0.635v0.056c0.014,0.036,0.014,0.076,0,0.111h-0.221c-0.015-0.055-0.015-0.112,0-0.167h-0.635
	V28h-0.249v-0.167h-0.607v0.028c0.017,0.045,0.017,0.094,0,0.139h-0.221v-0.167H26.28V28h-0.222v-0.167h-0.635V28H25.2v-0.167
	h-0.632v0.028c0.018,0.045,0.018,0.094,0,0.139H24.32c-0.001-0.057,0.008-0.113,0.027-0.167h-0.606V28h-0.249v-0.167h-0.635v0.028
	c0.017,0.045,0.017,0.094,0,0.139h-0.222v-0.167h-0.606v0.14c-0.081,0.021-0.164,0.031-0.248,0.027v-0.167h-0.608V28h-0.248v-0.167
	h-0.607V28h-0.249v-0.167h-0.607V28h-0.249v-0.167h-0.607V28h-0.248v-0.167H17.75V28H17.5v-0.167h-0.606V28h-0.248
	c-0.001-0.057,0.009-0.113,0.028-0.167h-0.635V28H15.79c-0.001-0.057,0.009-0.113,0.028-0.167h-0.635V28h-0.249
	c-0.001-0.057,0.009-0.113,0.028-0.167h-0.635V28h-0.248v-0.167h-0.608V28h-0.248c-0.001-0.057,0.009-0.113,0.028-0.167h-0.635V28
	h-0.249c-0.001-0.057,0.008-0.113,0.028-0.167H11.76V28h-0.249c0-0.057,0.009-0.113,0.028-0.167H10.9V28h-0.244v-0.167h-0.608V28
	H9.8v-0.111c-0.069-0.031-0.145-0.051-0.221-0.056c-0.132-0.05-0.273-0.069-0.414-0.056v0.056c-0.018,0.024-0.028,0.054-0.028,0.083
	c-0.085-0.005-0.169-0.023-0.248-0.057v-0.055c0.022-0.034,0.041-0.072,0.055-0.111c-0.172-0.099-0.358-0.174-0.552-0.221
	c-0.022,0.034-0.041,0.071-0.055,0.11c-0.062-0.034-0.126-0.062-0.193-0.083c0.016-0.055,0.016-0.112,0-0.167
	c-0.155-0.119-0.334-0.204-0.524-0.25c-0.007,0.05-0.025,0.098-0.055,0.14c-0.13-0.113-0.191-0.061-0.166-0.279
	c-0.158-0.102-0.337-0.168-0.524-0.194c-0.018,0.024-0.028,0.054-0.028,0.083c-0.093-0.008-0.18-0.047-0.247-0.111
	c0.029-0.041,0.047-0.089,0.055-0.139L6.1,26.332c-0.013,0.1-0.007,0.1-0.083,0.139c-0.046-0.043-0.104-0.071-0.166-0.083
	c0.012-0.063,0.012-0.13,0-0.194C5.697,26.102,5.53,26.036,5.355,26c-0.032,0.032-0.051,0.079-0.083,0.111
	C5.214,26.064,5.148,26.027,5.079,26c0.018-0.054,0.027-0.11,0.028-0.167c-0.2-0.049-0.319-0.171-0.524-0.222
	c-0.028,0.088-0.044,0.113-0.11,0.082c-0.072-0.002-0.137-0.045-0.166-0.11c0.029-0.03,0.049-0.069,0.055-0.11
	c-0.2-0.052-0.31-0.187-0.524-0.223l-0.055,0.111c-0.094-0.037-0.172-0.106-0.221-0.195c0.032-0.033,0.061-0.07,0.083-0.111
	c-0.197-0.084-0.37-0.219-0.5-0.389c-0.043,0.04-0.089,0.077-0.138,0.111c-0.02-0.065-0.058-0.123-0.11-0.168
	c0.032-0.053,0.059-0.109,0.083-0.166c-0.145-0.131-0.258-0.293-0.331-0.474C2.613,24.006,2.56,24.018,2.512,24
	c-0.048-0.064-0.077-0.142-0.083-0.223c0.1-0.027,0.1-0.018,0.11-0.139c-0.095-0.15-0.152-0.322-0.166-0.5H2.319
	c-0.183,0.156-0.424,0.228-0.663,0.195l-0.028-0.445l0.386-0.027c0.201-0.124,0.316-0.35,0.3-0.584
	c-0.138-0.235-0.197-0.509-0.166-0.779c0.055-0.086,0.133-0.155,0.226-0.198c0.024-0.018,0.053-0.027,0.083-0.028L2.4,20.77
	c-0.309-0.039-0.603-0.153-0.856-0.334c-0.078,0.119-0.222,0.175-0.359,0.14c-0.048-0.11-0.112-0.214-0.191-0.306
	c-0.045,0.063-0.047,0.084-0.11,0.057c-0.086-0.107-0.152-0.23-0.194-0.362c0.034-0.021,0.063-0.05,0.083-0.084
	C0.64,19.773,0.6,19.568,0.469,19.463v-0.027c-0.028-0.027-0.027,0.026-0.028,0.027H0.414c0.083,0.185,0.093,0.393,0.028,0.584
	H0.359c-0.004-0.242,0.014-0.484,0.055-0.723C0.242,19.135,0.102,18.919,0,18.686c0.132-0.053,0.253-0.129,0.359-0.224l0.828,0.195
	c0.18,0.148,0.375,0.278,0.58,0.389v-0.028c0.038-0.091,0.123-0.154,0.221-0.166c0.047,0.024,0.035,0.024,0.083,0
	c0.064-0.133,0.169-0.24,0.3-0.307c0.024,0.018,0.053,0.027,0.083,0.028c0.023-0.034,0.042-0.071,0.055-0.111
	c-0.126-0.022-0.114-0.05-0.11-0.194c-0.064-0.199-0.064-0.414,0-0.612h0.168v-0.166l0.359,0.028l0.028,0.332h0.027
	c0.182-0.08,0.383-0.108,0.58-0.084c0.225-0.051,0.446-0.115,0.663-0.194v-0.027c-0.111,0-0.151,0.015-0.193-0.056
	C3.982,17.296,3.972,17.096,4,16.9h2.239V16.85c0.129,0.006,0.259-0.004,0.386-0.028c0.049-0.062,0.105-0.118,0.166-0.167
	l0.248,0.027c0.144-0.056,0.292-0.102,0.442-0.139c0.041,0.074,0.019,0.086,0.083,0.111c0.025-0.03,0.053-0.059,0.083-0.083
	c0.043,0.032,0.089,0.06,0.138,0.083c0.066,0.1-0.022,0.109,0.193,0.111c0.186-0.266,1.044-0.11,1.522-0.11
	c1.184,0,2.065-0.101,3.23-0.111l0.193-0.334h1.656c0.168-0.386,0.3-0.769,0.469-1.168c0.057-0.134,0.176-0.3,0.221-0.445v-0.584
	c0-0.479,0-1.01-0.028-1.446h-0.086v-0.056c-0.023-0.053-0.023-0.113,0-0.167h0.083c0.045-0.085,0.064-0.182,0.055-0.278
	c-0.149-0.131-0.254-0.306-0.3-0.5c0.058-0.131,0.086-0.273,0.083-0.417c0.029-0.069,0.065-0.134,0.11-0.195v-0.222
	c0.112-0.084,0.175-0.22,0.166-0.361c-0.061-0.09-0.081-0.201-0.055-0.306h0.5c0.428-0.176,0.898-0.224,1.353-0.139
	c0.173-0.074,0.365-0.093,0.55-0.056c0.555,0,0.941,0.047,1.491,0.056L19.213,4.5V2.8c-0.024-0.267-0.015-0.535,0.028-0.8
	c0.011,0.007,0.021,0.017,0.028,0.028c0.046,0.201,0.056,0.408,0.028,0.612v1.529C19.3,6.08,19.3,8.06,19.324,9.925z"/>
</svg>
