<?xml version="1.0" encoding="utf-8"?>
<!-- Generator: Adobe Illustrator 16.0.0, SVG Export Plug-In . SVG Version: 6.00 Build 0)  -->
<!DOCTYPE svg PUBLIC "-//W3C//DTD SVG 1.1//EN" "http://www.w3.org/Graphics/SVG/1.1/DTD/svg11.dtd">
<svg version="1.1" id="Layer_1" xmlns="http://www.w3.org/2000/svg" xmlns:xlink="http://www.w3.org/1999/xlink" x="0px" y="0px"
	 width="40px" height="40px" viewBox="0 0 40 40" enable-background="new 0 0 40 40" xml:space="preserve">
<path id="germ_pzkpfw_iii_ausf_e_ico" fill="#FFFFFF" d="M19.3,8.916h0.468v0.063c0.02,0.027,0.031,0.06,0.031,0.094h0.53
	c-0.043,0.185-0.063,0.375-0.062,0.564c0.054,0.028,0.106,0.059,0.156,0.094c-0.015,0.152,0.017,0.306,0.093,0.439
	c0.015-0.212,0.12-0.2,0.344-0.188c0.113-0.02,0.229-0.02,0.343,0l0.03,0.063c0.11,0.345,0.163,0.705,0.156,1.066h0.25v0.125
	c0.105,0.053,0.225,0.075,0.342,0.063c0.441,0.099,0.891,0.151,1.342,0.157c0.932,0.214,2,0.164,2.931,0.376l0.812,0.063
	c0.432,0.062,0.853,0.188,1.246,0.376c0.219,0.224,0.459,0.425,0.717,0.6h1.029c0.037,0.037,0.068,0.079,0.094,0.125l0.966,0.063
	h0.873c0.489,0.129,0.996,0.171,1.5,0.126c0.468-0.026,0.937-0.005,1.399,0.063c0.396,0.087,0.822-0.008,1.186,0.063v0.404
	c-0.195,0.038-0.395,0.048-0.592,0.031c-0.186,0.032-0.374,0.042-0.562,0.031c-0.62,0.082-1.247,0.103-1.871,0.063l-1.028,0.031
	c-0.029,0.052-0.073,0.096-0.125,0.125h-1.53c-0.108,0.044-0.212,0.097-0.312,0.157h-1.216c-0.068,0.322-0.289,0.591-0.592,0.721
	c0.067,0.202,0.099,0.414,0.093,0.627h2.525c0.188-0.215,0.463-0.33,0.748-0.314c0.049,0.051,0.071,0.119,0.062,0.188
	c-0.049,0.039-0.016,0.021-0.062,0c-0.02-0.027-0.031-0.06-0.031-0.094h-0.124v0.063c-0.008,0.03-0.024,0.013,0,0.031
	c0.028,0.106,0.012,0.101,0.125,0.125c0.241,0.005,0.472,0.094,0.655,0.251c-0.067,0.068-0.111,0.156-0.125,0.251
	c0.109,0.142,0.063,0.351,0.187,0.533c0.538,0.072,1.081,0.083,1.621,0.03c0.136-0.026,0.275-0.016,0.405,0.031
	c0.068,0.009,0.138-0.014,0.188-0.063c0.132-0.04,0.275-0.004,0.373,0.094c0,0,0.193-0.031,0.249-0.031v0.221
	c-0.084,0.004-0.168-0.007-0.249-0.031v0.129c0.071,0.256,0.071,0.527,0,0.784h-0.093v0.125h0.062
	c0.277,0.058,0.561,0.079,0.843,0.063c0.962,0.117,1.933,0.16,2.901,0.128l0.031,0.659c0.387,0.275,0.751,0.58,1.092,0.91
	c-0.008,0.013-0.02,0.023-0.031,0.031c-0.051,0.108-0.125,0.205-0.219,0.282v0.03c0.206,0.079,0.389,0.208,0.53,0.376
	c-0.06,0.215-0.024,0.405-0.312,0.408c-0.287-0.047-0.582-0.003-0.842,0.125c0.034,0.068,0.045,0.146,0.03,0.221
	c0.05,0.028,0.101-0.031,0.156,0.063c0.04,0.055,0.062,0.12,0.062,0.188c-0.055,0.01-0.102,0.045-0.125,0.094
	c0.076,0.179,0.107,0.373,0.094,0.565c0.047,0.026,0.102,0.037,0.156,0.031v0.282c-0.055-0.001-0.107-0.012-0.156-0.031v0.031
	c0.037,0.221-0.02,0.448-0.156,0.627c0.057,0.008,0.109,0.029,0.156,0.063c-0.039,0.049-0.056,0.139-0.094,0.188
	c-0.049,0.026-0.107,0.026-0.156,0c-0.009,0.177-0.063,0.349-0.155,0.5c-0.071-0.013-0.034-0.029-0.093,0
	c-0.025,0.028-0.047,0.06-0.063,0.094c0.045,0.014,0.088,0.035,0.125,0.063c-0.008,0.012-0.018,0.023-0.031,0.031l-0.093,0.188
	c-0.082-0.024-0.073-0.038-0.155-0.063c-0.074,0.203-0.234,0.364-0.438,0.438c0.033,0.046,0.055,0.101,0.063,0.157
	c-0.063,0.039-0.117,0.094-0.156,0.156c-0.042-0.032-0.074-0.075-0.094-0.125c-0.043,0.018-0.529,0.346-0.529,0.346
	c0.044,0.025,0.068,0.074,0.062,0.125c-0.076,0.021-0.149,0.053-0.218,0.094c-0.03-0.105-0.012-0.1-0.125-0.125
	c-0.139,0.121-0.297,0.217-0.468,0.282l0.03,0.157c-0.075,0.008-0.148,0.029-0.218,0.063c-0.007-0.057-0.028-0.11-0.062-0.157
	l-0.561,0.188c-0.092,0.119,0.1,0.062-0.031,0.156c-0.055,0.041-0.12,0.063-0.188,0.063c-0.029-0.106-0.012-0.101-0.125-0.125
	c-0.143,0.087-0.302,0.142-0.468,0.157v0.191c-0.085,0.015-0.168,0.036-0.249,0.063c0.002-0.059-0.02-0.116-0.063-0.157
	c-0.168,0.085-0.346,0.148-0.529,0.188c0.018,0.094,0.063,0.101-0.031,0.158c-0.059,0.031-0.121,0.053-0.188,0.063
	c-0.028-0.105-0.012-0.1-0.125-0.125c-0.17,0.039-0.329,0.113-0.468,0.219c-0.007,0.033-0.017,0.064-0.03,0.094
	c-0.063,0.047-0.141,0.068-0.219,0.063c0.003-0.059-0.036-0.11-0.093-0.125c-0.2,0.129-0.53,0.037-0.562,0.345l-0.217,0.031
	c-0.039-0.136-0.076-0.132-0.25-0.125c-0.108,0.044-0.225,0.065-0.343,0.063v0.063c-0.02,0.027-0.03,0.06-0.03,0.094l-0.25,0.031
	v-0.161h-0.035c-0.184,0.048-0.375,0.059-0.562,0.031v0.156h-0.25v-0.156h-0.623v0.156h-0.25c0.001-0.053,0.012-0.106,0.031-0.156
	H28.87v0.156h-0.25v-0.156H28v0.156h-0.252v-0.156h-0.593v0.156h-0.249v-0.156h-0.624v0.156h-0.218v-0.156h-0.625v0.156h-0.248
	c0-0.053,0.012-0.106,0.031-0.156h-0.656c0.021,0.141-0.006,0.169-0.217,0.156v-0.156h-0.623v0.156h-0.22
	c-0.046-0.248-0.278-0.166-0.623-0.156v0.156h-0.25v-0.156h-0.623v0.156h-0.218v-0.156h-0.624v0.156H20.92v-0.156h-0.593v0.156
	h-0.25v-0.156h-0.623v0.156h-0.218c-0.046-0.248-0.278-0.166-0.624-0.156v0.156h-0.249v-0.156H17.74v0.156h-0.25
	c0.001-0.053,0.011-0.106,0.031-0.156H16.9v0.156h-0.251v-0.156h-0.624c0.01,0.052,0.01,0.105,0,0.156h-0.218v-0.156h-0.624v0.156
	h-0.249c0.001-0.053,0.011-0.106,0.031-0.156H14.31c0.02,0.141-0.006,0.169-0.218,0.156v-0.156h-0.624v0.156h-0.249
	c0.001-0.053,0.012-0.106,0.031-0.156H12.6v0.031c0.023,0.037,0.034,0.08,0.031,0.125h-0.254v-0.156h-0.623v0.156h-0.218
	c-0.008-0.041-0.059-0.143,0-0.156h-0.655v0.031c0.023,0.037,0.034,0.08,0.031,0.125h-0.249v-0.156h-0.624v0.156H9.821v-0.094
	c-0.088-0.038-0.184-0.06-0.281-0.063c-0.12-0.045-0.247-0.066-0.374-0.063l-0.031,0.156H9.072
	c-0.058-0.032-0.122-0.054-0.188-0.063v-0.031c0.035-0.046,0.065-0.1,0.031-0.125c-0.153-0.121-0.336-0.197-0.53-0.221
	c-0.021,0.04-0.054,0.072-0.094,0.095c-0.08-0.032-0.139-0.104-0.156-0.188c0.026-0.016,0.048-0.037,0.064-0.063
	c-0.219-0.055-0.379-0.19-0.592-0.251c-0.003,0.043-0.014,0.086-0.031,0.126c-0.023-0.004-0.045-0.014-0.062-0.031
	c-0.076,0.002-0.142-0.051-0.156-0.125c0.025-0.027,0.046-0.06,0.062-0.094C7.226,25.887,7.038,25.803,6.86,25.7
	c0.003,0.059-0.02,0.116-0.062,0.157c-0.052-0.049-0.117-0.082-0.187-0.095l0.031-0.188c-0.173-0.083-0.35-0.155-0.53-0.22
	c-0.049,0.086-0.028,0.078-0.156,0.094c-0.034-0.034-0.078-0.057-0.125-0.063c0.021-0.061,0.031-0.124,0.031-0.188
	c-0.185-0.063-0.363-0.147-0.53-0.251c0.003,0.059-0.02,0.115-0.062,0.156c-0.052-0.048-0.117-0.081-0.187-0.094
	c0.021-0.051,0.021-0.106,0-0.156c-0.147-0.119-0.317-0.205-0.5-0.252c0.002,0.059-0.037,0.111-0.094,0.125
	C4.415,24.689,4.35,24.636,4.3,24.57c0.025-0.028,0.046-0.061,0.062-0.094c-0.166-0.098-0.344-0.172-0.53-0.221
	c-0.022,0.039-0.055,0.072-0.094,0.094c-0.088-0.082-0.144-0.193-0.156-0.313c-0.156-0.112-0.302-0.238-0.436-0.376
	c-0.068,0.055-0.075,0.1-0.156,0.063c-0.048-0.047-0.09-0.1-0.125-0.156c0.067-0.006,0.12-0.059,0.125-0.125
	c-0.152-0.126-0.27-0.287-0.343-0.471c-0.05,0.026-0.102,0.048-0.156,0.063c-0.016-0.119-0.044-0.132-0.062-0.251
	c0.059,0.003,0.111-0.037,0.125-0.094c-0.106-0.172-0.17-0.365-0.187-0.565H2.338c-0.202,0.139-0.44,0.215-0.686,0.22v-0.188
	c-0.032-0.08-0.042-0.167-0.031-0.251h0.063c0.266-0.153,0.6,0,0.624-0.471c0.019-0.037-0.157-0.736-0.156-0.94
	c0.111-0.087,0.215-0.181,0.312-0.282c-0.056-0.14-0.078-0.29-0.064-0.439c-0.319-0.023-0.624-0.145-0.873-0.346
	c-0.025,0.137-0.035,0.123-0.187,0.125c-0.047,0.025-0.102,0.037-0.156,0.031c-0.039-0.115-0.116-0.215-0.218-0.282
	c-0.019,0.035-0.054,0.06-0.094,0.063c-0.031-0.13-0.095-0.25-0.186-0.348c0.034-0.046,0.055-0.1,0.062-0.156l-0.281-0.408
	c-0.06,0.017-0.027,0.051-0.062,0C0.306,18.193,0.17,17.951,0,17.732v-0.031h0.031c0.455-0.6,1.348,0.223,1.746,0.345
	c0.082-0.284,0.127-0.1,0.281-0.157c0.09-0.098,0.173-0.203,0.249-0.313v-0.031c0.043-0.021,0.131,0.019,0.187,0
	c0.026-0.05,0.047-0.103,0.062-0.157H2.4c-0.018-0.25-0.018-0.502,0-0.753h0.375c0.016,0.108,0.047,0.215,0.094,0.314
	c0.25-0.326,0.855-0.084,1.185-0.314c0.017-0.017,0.027-0.039,0.031-0.063c-0.114-0.198-0.147-0.433-0.094-0.655h2.244v-0.064
	l0.094,0.03l0.031-0.065c0.055-0.024,0.024,0.039,0.031,0.063l0.25-0.063c0.046-0.059,0.1-0.109,0.159-0.153l0.249,0.03
	c0.139-0.061,0.286-0.103,0.436-0.125c0.013,0.046,0.048,0.082,0.094,0.095c0.073-0.076,0.076-0.043,0.218-0.031v0.031h0.028
	c-0.014,0.045-0.035,0.087-0.062,0.125h0.094c0.534-0.375,1.253-0.005,2.058-0.125c0.931-0.105,1.87-0.137,2.806-0.095l0.187-0.344
	h1.684c0.127-0.578,0.512-1.093,0.686-1.632v-0.5c0-0.5,0-1.054-0.031-1.505h-0.095c-0.007-0.073-0.007-0.146,0-0.22h0.094v-0.065
	c0.032-0.079,0.042-0.166,0.031-0.251c-0.293-0.295-0.333-0.759-0.094-1.1v-0.22l0.156-0.094c0.02-0.19-0.001-0.383-0.062-0.564
	h0.53l0.031-0.157h1.309c0.194-0.048,0.395-0.059,0.592-0.031L19.2,8.916V1.769c-0.02-0.251-0.008-0.504,0.036-0.753
	c0.013,0.007,0.023,0.018,0.031,0.031c0.048,0.196,0.059,0.4,0.031,0.6v7.269H19.3z M34.327,17.792
	c-0.023-0.331,0.03-0.664,0.155-0.972h-0.156c-0.652,0.077-1.309,0.098-1.965,0.063c0.008,0.013,0.02,0.023,0.031,0.031
	c0.002,0.158,0.023,0.316,0.063,0.47c-0.072,0.065-0.117,0.155-0.125,0.251c0.133,0.026,0.27,0.037,0.404,0.031
	c0.481,0.107,1.082,0.07,1.592,0.129L34.327,17.792z M0.406,18.545c0.044,0.025,0.068,0.074,0.062,0.125
	c0,0.041,0.026,0.12,0.031,0.282c-0.037,0.037-0.079,0.068-0.125,0.094c0.003-0.088-0.018-0.175-0.062-0.251
	c0.091,0,0.043,0.03,0.094,0c0.027-0.059,0.015-0.023,0-0.094c-0.071,0.012-0.034,0.029-0.094,0c0.04-0.045,0.072-0.097,0.093-0.153
	L0.406,18.545z"/>
</svg>
