<?xml version="1.0" encoding="utf-8"?>
<!-- Generator: Adobe Illustrator 16.0.0, SVG Export Plug-In . SVG Version: 6.00 Build 0)  -->
<!DOCTYPE svg PUBLIC "-//W3C//DTD SVG 1.1//EN" "http://www.w3.org/Graphics/SVG/1.1/DTD/svg11.dtd">
<svg version="1.1" id="Layer_1" xmlns="http://www.w3.org/2000/svg" xmlns:xlink="http://www.w3.org/1999/xlink" x="0px" y="0px"
	 width="40px" height="40px" viewBox="0 0 40 40" enable-background="new 0 0 40 40" xml:space="preserve">
<path id="germ_sdkfz_6_2_flak36_ico" fill="#FFFFFF" d="M16.387,18.453h1.795v0.14c0.313,0.067,0.616,0.177,0.9,0.326
	c0.558,0.179,1.14,0.209,1.652,0.42v-3.31c0.053-0.101,0.136-0.182,0.236-0.233c0.379-0.23,2.061,0.08,2.6-0.093
	c-0.023-0.06-0.023-0.126,0-0.186c-0.248-0.048-0.207-0.231-0.188-0.513l0.142-0.047c0.074-0.04,0.163-0.04,0.236,0v-0.7
	c0.076-0.353,0.123-0.712,0.141-1.073c0.609,0.117,1.144,0.321,1.699,0.466c1.073,0.213,2.172,0.26,3.26,0.14
	c0.096,0.085,0.162,0.2,0.188,0.326c0.272,0.751,0.446,1.535,0.519,2.331H29.8c-0.061,0.194,0.017,0.404,0.189,0.513
	c0.681,0.176,1.376,0.285,2.077,0.326l4.201,0.513v-1.071c-0.035-0.056-0.053-0.122-0.048-0.187c0.052,0,0.102,0.016,0.142,0.047
	c0.031,0.041,0.047,0.09,0.048,0.14c-0.085,0.351-0.101,0.715-0.048,1.072l0.521,0.048c-0.001-0.051,0.017-0.101,0.048-0.141
	c0.135-0.05,0.281-0.066,0.424-0.047v0.047H37.4c-0.016,0.133-0.051,0.1,0,0.186c0.104,0.045,0.201,0.108,0.283,0.188
	c0.162,0.561,0.242,1.142,0.235,1.725c0.272,0.207,0.603,0.32,0.944,0.326l0.047-0.42c-0.098-0.065-0.214-0.098-0.331-0.093
	c0.003-0.11,0.019-0.22,0.047-0.326l0.142-0.047c0.389-0.093,0.793-0.093,1.182,0v0.093c0.025,0.025,0.041,0.058,0.047,0.094
	c-0.35-0.057-0.703,0.066-0.944,0.325c0.026,0.106,0.042,0.216,0.048,0.326c0.321,0.12,0.308,0.3,0.282,0.746
	c0.527,0.388,0.114,1.259-0.094,1.725h0.235v0.187c-0.112,0.02-0.224,0.051-0.33,0.093v0.42c0.152,0.039,0.072-0.022,0.142,0.093
	H39.2v0.238h-0.192v-0.236h-0.094v0.047c-0.03,0.04-0.047,0.089-0.047,0.14c0.516,0.646-0.01,1.989-0.331,2.424
	c-0.767,0.897-2.015,1.216-3.117,0.793c-0.872-0.401-1.465-1.235-1.558-2.19h-1.748c-0.498-0.107-1.014-0.107-1.512,0
	c-0.297,0.595-0.756,1.095-1.321,1.444c-0.86,0.271-1.747,0.442-2.646,0.513c-2.9,0.676-6.884,0.42-10.39,0.42
	c-1.859,0.126-3.727,0.063-5.573-0.186c-1.176-0.279-2.34-0.251-3.164-0.839c-0.395-0.351-0.689-0.802-0.85-1.306
	c-0.116-0.105-0.212-0.232-0.283-0.373c0.106-0.072,0.161-0.198,0.142-0.325H6.375c-0.066-0.096-0.099-0.21-0.094-0.325
	c-0.025-0.092-0.041-0.186-0.047-0.28H6.045v0.65H5.9v-0.047c0.058-0.181,0.074-0.372,0.047-0.56H5.856
	c-0.081,0.107-0.114,0.241-0.094,0.373c-0.007,0.203,0.008,0.406,0.047,0.606c-0.076,0.03-0.16,0.03-0.236,0
	c-0.153-0.06-0.125-0.043-0.142-0.233h0.047c0.077,0.1,0.081,0.141,0.189,0.094c0.03-0.041,0.047-0.09,0.047-0.141
	c-0.125-0.164-0.206-0.358-0.236-0.563c-0.511-0.112-1.037-0.143-1.558-0.09v-0.094c0.202-0.045,0.408-0.061,0.614-0.047
	c0.167-0.055,0.345-0.07,0.519-0.047v-0.423H3.967L3.92,22.602H5.1c0.151-0.052,0.313-0.068,0.472-0.047
	c-0.005-0.188,0.011-0.375,0.047-0.559c-0.115,0.021-0.23-0.036-0.283-0.141c0.306-0.422,0.654-0.813,1.039-1.166
	c0.318-0.074,0.622-0.2,0.9-0.373H2.786v-0.14H2.22c-0.071,1.034-0.047,2.247-0.047,3.357H0.756c0-1.037-0.062-2.292-0.142-3.357H0
	v-0.046c0.039-0.07,0.055-0.152,0.047-0.232h0.142l0.047-0.7H2.5v0.7c0.152,0.053,0.311,0.084,0.472,0.093
	c0.006-0.208,0.173-0.108,0.378-0.233c-0.175-0.27-0.175-0.616,0-0.886c0.223-0.099,0.464-0.146,0.708-0.14
	c0.68-0.16,1.382-0.208,2.078-0.141v-0.14H7.6c0.432,0.183,0.91,0.231,1.37,0.14c1.144-0.141,2.296-0.188,3.447-0.14
	c0.041-0.058,0.073-0.12,0.095-0.187c-0.167-0.04-0.34-0.057-0.512-0.047c-0.346,0.03-0.693,0.03-1.039,0
	c0.009-0.362-0.039-0.724-0.142-1.072h-0.76v0.327H9.776v-0.327c-0.316,0.025-0.128,0.053-0.283,0.14
	c-0.283-0.018-0.567-0.018-0.85,0v0.42c-0.056,0.055-0.12,0.103-0.189,0.141c-0.403,0.098-0.825,0.098-1.228,0
	c-0.041-0.058-0.072-0.121-0.094-0.188c-0.077-0.305-0.093-0.622-0.047-0.932c-0.303,0.025-0.608-0.006-0.9-0.093
	c-0.102-0.395-0.134-0.806-0.094-1.212h0.096c0.025,0.025,0.059,0.042,0.094,0.047v-0.374h0.142v0.788
	c-0.06,0.025-0.124,0.041-0.189,0.047c0.019-0.137,0.077-0.058-0.047-0.14v0.7c0.058,0.04,0.122,0.071,0.189,0.093
	c0.332-0.125,0.69-0.157,1.039-0.093v-0.42h0.094c0.026,0.025,0.059,0.041,0.094,0.047c-0.021-0.142-0.004-0.287,0.047-0.42
	c0.026,0.025,0.059,0.042,0.094,0.047v0.606c0.442-0.028,0.221,0.074,0.472,0.186c0.215,0.031,0.434-0.019,0.614-0.14
	c0.167,0,0.065,0.1,0.142,0.14h0.8c0.009-0.18,0.058-0.354,0.142-0.513H9.87c-0.063,0.062-0.148,0.096-0.236,0.093v-0.089
	c0.152-0.095,0.281-0.222,0.378-0.373c-0.236-0.246-0.3-0.873-0.708-0.932c-0.622,0.46-1.222-0.252-1.464-0.513
	c-0.018-0.317,0.031-0.635,0.142-0.932c0.2-0.12,0.406-0.229,0.618-0.327l0.236,0.047c0.177-0.03,0.351-0.077,0.519-0.14
	c0.12-0.086,0.247-0.165,0.378-0.233v-0.047H9.54v-0.326l2.078,0.047v0.185h-0.142c-0.071,0.273-0.333,0.452-0.614,0.419
	c-0.088-0.042-0.186-0.058-0.283-0.047v0.047c0.063,0.061,0.097,0.146,0.095,0.233h0.189c0,0.051,0.016,0.101,0.047,0.14
	c0.131,0.086,0.257,0.18,0.378,0.28l0.378,0.886c0.409-0.152,0.804-0.339,1.181-0.559c0.409-0.175,0.741-0.249,1.133-0.42
	c0.19-0.123,0.397-0.217,0.614-0.28c0.042,0.038,0.09,0.069,0.142,0.093l-0.047,0.233h0.095c0.293-0.184,0.611-0.325,0.945-0.42
	c0.409-0.231,0.833-0.434,1.271-0.605c-0.017-0.138-0.095-0.1,0.047-0.187c0.216-0.179,0.478-0.292,0.756-0.326
	c0.039,0.042,0.071,0.089,0.095,0.14c0.639-0.259,1.307-0.514,1.936-0.839c0.2-0.105,0.453-0.33,0.661-0.419
	c0.062-0.026,0.03,0.019,0.047,0.047c0.144,0.021,0.29,0.004,0.425-0.047c0.4-0.143,0.838-0.436,1.229-0.606
	c1.263-0.552,2.466-1.039,3.73-1.585c0.824-0.325,1.629-0.699,2.409-1.119c0.29-0.25,0.628-0.44,0.992-0.559
	c0.056,0.22,0.174,0.341,0.235,0.559c-0.932,0.216-1.824,0.577-2.645,1.072c-1.632,0.716-3.214,1.491-4.77,2.284
	c-0.371,0.135-0.733,0.291-1.086,0.466c-0.11,0.072-0.17,0.267-0.283,0.326c-0.529,0.153-1.037,0.373-1.511,0.653h0.047
	c0.096,0.085,0.208,0.149,0.331,0.188c-0.102,0.075-0.156,0.2-0.142,0.326c-0.352,0.059-0.67,0.241-0.9,0.513
	c0.051,0.05,0.084,0.115,0.095,0.186c0.137,0,0.066-0.045,0.142,0c0.063,0.084,0.111,0.179,0.142,0.28
	c0.629-0.301,1.276-0.566,1.936-0.793c0.038,0.106,0.069,0.215,0.095,0.326c-0.405,0.162-0.8,0.349-1.182,0.559
	c0.063,0.085,0.11,0.18,0.142,0.28c-0.348,0.117-0.681,0.273-0.992,0.466c0.059,0.104,0.106,0.213,0.142,0.326
	c0.134-0.015,0.1-0.049,0.189,0c-0.248,0.277,0.187,0.6,0.236,0.932c-0.081,0.131,0.024,0.2-0.047,0.326
	c-0.362,0.382-0.68,0.805-0.945,1.26c0.237-0.014,0.459,0.114,0.567,0.325c0.069,0.15,0.004,0.329-0.146,0.398
	c-0.058,0.026-0.122,0.034-0.185,0.022c-0.159-0.033-0.408-0.253-0.567-0.281c-0.081,0.025-0.16,0.057-0.236,0.094
	c-0.157-0.012-0.816-0.153-0.9-0.141c-0.199,0.067-0.405,0.114-0.614,0.141v0.093C16.417,18.252,16.386,18.352,16.387,18.453z
	 M10.673,13.324l-0.047,0.233H10.39c-0.111-0.2-0.459-0.05-0.567,0.047h0.094c0.137,0.168,0.316,0.296,0.519,0.373V13.93
	c0.194-0.16,0.34-0.37,0.425-0.606H10.673z M9.351,14.584c0-0.051-0.016-0.1-0.047-0.14v-0.047H9.162V14.21H9.115
	c-0.146,0.101-0.304,0.179-0.472,0.233C8.639,14.408,8.624,14.375,8.6,14.35v-0.093c0.163-0.056,0.309-0.152,0.425-0.28
	c-0.32-0.15-0.652-0.274-0.992-0.373v0.093c-0.068,0.2-0.052,0.419,0.047,0.605C8.428,14.608,8.907,14.714,9.351,14.584z
	 M25.359,16.821c0.357-0.09,0.736-0.022,1.039,0.186c0.146,0.769,0.178,1.554,0.095,2.331c0.455,0.109,0.22,0.301,0.472,0.466
	c0.057,0.035,0.123,0.052,0.189,0.048v-0.047H27.2c0.089-0.381,0.105-0.777,0.047-1.164h0.235c0.037,0.031,0.105,0.061,0.143,0.092
	H27.58c-0.041,0.031-0.091,0.047-0.143,0.048L27.3,19.852c0.052,0,0.102-0.017,0.142-0.048c0.025-0.024,0.042-0.058,0.048-0.093
	c-0.077-0.051-0.115-0.143-0.095-0.232c0.083-0.06,0.182-0.092,0.283-0.094c0.026,0.025,0.06,0.042,0.096,0.047v0.233l-0.236,0.14
	v0.047h1.181c0.121-0.049,0.249-0.08,0.378-0.093c0.153-0.169,0.252-0.38,0.283-0.606c-0.201-0.152-0.35-0.363-0.425-0.605h-0.099
	c-0.006,0.135-0.119,0.241-0.254,0.236c-0.01-0.001-0.02-0.002-0.029-0.003c0.004-0.081-0.013-0.161-0.047-0.233
	c0.111-0.081,0.193-0.195,0.235-0.326c-0.228-0.371-0.495-0.715-0.8-1.025c-0.387,0.034-0.76,0.162-1.086,0.373
	c-0.025-0.06-0.041-0.122-0.047-0.187c0.445-0.204,0.858-0.471,1.229-0.793c0.174-0.062,0.334-0.156,0.471-0.28v-0.28
	c0.098,0.02,0.193,0.051,0.283,0.093c0.101-0.165,0.249-0.295,0.426-0.373c-0.278-0.413-0.164-1.154-0.473-1.539
	c-0.072,0.039-0.154,0.055-0.236,0.047V14.07c0.072-0.009,0.139-0.042,0.189-0.093h-0.051V13.93
	c-0.557,0.172-1.254,0.151-1.842,0.28c-0.383-0.017-0.766,0.03-1.133,0.14C25.463,15.153,25.352,15.986,25.359,16.821z
	 M16.907,14.021c-0.16,0.143-0.444,0.139-0.614,0.28c-0.021,0.077-0.037,0.154-0.047,0.233c-0.228,0.125-0.465,0.234-0.708,0.326
	h0.425c0.402-0.152,0.783-0.355,1.133-0.606c-0.05-0.068-0.083-0.147-0.096-0.23h-0.093V14.021z M17.238,15.421
	c-0.136,0.114-0.298,0.194-0.472,0.233c-0.144,0.314-0.255,0.642-0.331,0.979c0.332,0.208,0.701,0.351,1.086,0.42
	c0.144-0.56,0.523-1.033,0.047-1.538c-0.051,0.05-0.118,0.083-0.189,0.093C17.383,15.52,17.323,15.441,17.238,15.421L17.238,15.421z
	 M20.874,19.384c0.081,0.002,0.161,0.018,0.235,0.048v-1.492h0.236v-0.047c-0.096-0.074-0.21-0.123-0.33-0.14v-0.187
	c0.864-0.211,1.762-0.259,2.645-0.14c0.014,0.082,0.066,0.151,0.142,0.187V17.24c-0.269-0.396-0.354-0.889-0.235-1.352h-2.551
	c-0.038,0.068-0.086,0.131-0.142,0.187V19.384z M29.091,17.384c0.153-0.039,0.072,0.023,0.142-0.093h-0.094
	c-0.24,0.144-0.438-0.118-0.426-0.42c0.101-0.102,0.167-0.232,0.189-0.373c-0.036-0.005-0.069-0.021-0.094-0.047h-0.096
	c-0.17,0.182-0.285,0.408-0.331,0.653c0.143,0.166,0.255,0.355,0.331,0.559h0.047v-0.05c0.039-0.059,0.07-0.121,0.096-0.187
	c0.123,0.035,0.112,0.056,0.235,0.093V17.384z M7.273,16.728v0.886c0.273,0.091,0.563,0.123,0.85,0.093v-0.094
	c-0.029-0.075-0.029-0.158,0-0.233c-0.209,0.014-0.419-0.019-0.614-0.096c-0.075-0.176-0.107-0.368-0.094-0.559H7.273V16.728z
	 M7.509,16.728c-0.014,0.176,0.019,0.353,0.094,0.513c0.2-0.056,0.6-0.092,0.85-0.14v-0.373H7.509z M18.371,19.059
	c-0.001,0.146-0.033,0.289-0.094,0.42c0.178,0.008,0.166-0.021,0.236,0.094h-0.048c-0.057,0.035-0.123,0.051-0.189,0.047v0.232
	c0.813,0.123,1.639,0.139,2.457,0.047v-0.233h-0.094C19.906,19.383,19.146,19.18,18.371,19.059z M0.756,20.316v1.26H0.8
	c0.145-0.16,0.322-0.287,0.519-0.373c0.032-0.295,0.048-0.59,0.047-0.887H0.756z M1.512,20.316C1.5,20.613,1.515,20.91,1.559,21.203
	l0.519,0.373v-1.26H1.511H1.512z M0.85,21.855h1.133v-0.232c-0.139-0.074-0.266-0.169-0.378-0.28c-0.119,0.062-0.26,0.062-0.378,0
	C1.025,21.442,0.884,21.634,0.85,21.855z M0.85,23.441h1.228v-1.445c-0.422-0.072-0.852-0.088-1.278-0.047
	c-0.038,0.137-0.054,0.278-0.047,0.42C0.857,22.716,0.891,23.081,0.85,23.441z"/>
</svg>
