<svg xmlns="http://www.w3.org/2000/svg" width="40" height="40" viewBox="0 0 40 40">
  <defs>
    <style>
      .cls-1 {
        fill: #fff;
        fill-rule: evenodd;
      }
    </style>
  </defs>
  <path id="germ_flakpanzer_38t_gepard_ico" class="cls-1" d="M15.8,9a0.112,0.112,0,0,1,.032.062H15.8V9Zm0.032,0.062a0.158,0.158,0,0,1,.032.093H15.829V9.062Zm0.032,0.093a0.158,0.158,0,0,1,.032.093H15.861V9.156Zm0.032,0.093a0.158,0.158,0,0,1,.032.093H15.893V9.249Zm0.032,0.093a0.158,0.158,0,0,1,.032.093H15.924V9.343Zm0.032,0.093a0.158,0.158,0,0,1,.032.093H15.956V9.436ZM15.987,9.53a0.158,0.158,0,0,1,.032.093H15.987V9.53Zm8.752,7.229v0.467a3.616,3.616,0,0,1-.727-0.062h-5.4v0.062a2.348,2.348,0,0,1,.19.561c0.107,0.284.238,0.59,0.348,0.873a1.062,1.062,0,0,0,.221.53,1.876,1.876,0,0,0,.474.156,6.347,6.347,0,0,0,1.485.374,2.2,2.2,0,0,0,.348-0.467,1.385,1.385,0,0,1-.063-0.218A0.406,0.406,0,0,0,21.738,19a0.406,0.406,0,0,0,.189.374v-0.9h0.19v1.87A1.447,1.447,0,0,0,23,20.218a0.47,0.47,0,0,1,.126.125H24.9a0.568,0.568,0,0,1,.095-0.093,1.259,1.259,0,0,1,.505.093h1.769V20.281A0.7,0.7,0,0,1,27.014,20a0.476,0.476,0,0,1-.126.062,0.469,0.469,0,0,1-.063-0.125,0.989,0.989,0,0,0,.253-0.28h0.063c0.343,0.7.378,0.71,1.517,0.686,0.029,0.017.6,0,.758,0V20.53h0.063a1.827,1.827,0,0,1,.411-0.062,0.372,0.372,0,0,1-.126-0.125h0.032a0.163,0.163,0,0,0,.095.031V20.218h0.095v0.093a0.549,0.549,0,0,0,.253,0,0.351,0.351,0,0,1,.221-0.187c0.128,0.111.218,0.06,0.221,0.312h0.19V20.53a6.863,6.863,0,0,1,1.927.094,1.169,1.169,0,0,0,.284.374,0.391,0.391,0,0,1,.348-0.093,1.014,1.014,0,0,1-.032.561,0.256,0.256,0,0,1,.095.249,0.267,0.267,0,0,0-.032.156,0.455,0.455,0,0,0,.253.093l0.19-.249a0.607,0.607,0,0,1,.284.156,1.045,1.045,0,0,1-.032.312,1.053,1.053,0,0,0,.316.031,0.236,0.236,0,0,1,.221-0.156,0.348,0.348,0,0,0,.284.093,0.238,0.238,0,0,1,0-.125,0.21,0.21,0,0,0,.158-0.031v0.094a0.112,0.112,0,0,0-.032.062,1.408,1.408,0,0,0,.474.031,2.693,2.693,0,0,1,.632-0.093l0.032,0.467L36.9,22.586a2.657,2.657,0,0,1,.885-0.062,12.771,12.771,0,0,0,1.3.249,0.333,0.333,0,0,1,.126-0.156V22.68a0.166,0.166,0,0,0-.063.187,3.241,3.241,0,0,0,.727.187,1.166,1.166,0,0,1,.095.218H39.526a3.4,3.4,0,0,0-.442.592,0.358,0.358,0,0,1,.284.062c-0.027.1-.062,0.084-0.032,0.156a0.908,0.908,0,0,0,.474.5,0.456,0.456,0,0,0,.063.561,0.162,0.162,0,0,0,.095.031L40,25.391a0.154,0.154,0,0,0-.095.031,2.584,2.584,0,0,0-.032.467,0.476,0.476,0,0,1,.095.281H39.842a1.3,1.3,0,0,1-.158.374c-0.023.1,0.054,0.088,0.063,0.125a0.527,0.527,0,0,1-.063.249H39.652a0.368,0.368,0,0,0-.095-0.062c-0.046.221-.236,0.216-0.284,0.436a0.157,0.157,0,0,1,.032.094,0.792,0.792,0,0,0-.6.436c0.008,0.03.025,0.012,0,.031a1.046,1.046,0,0,0-.126.125c-0.069-.057-0.042-0.1-0.126-0.062a0.9,0.9,0,0,0-.474.436,1.1,1.1,0,0,0-.19-0.062c-0.08.1-.277,0.121-0.347,0.218s0.084,0.093-.063.187c-0.124.085-.16-0.052-0.19,0l-0.379.218a0.258,0.258,0,0,1-.032.156,1.084,1.084,0,0,0-.095.093c-0.069-.057-0.042-0.1-0.126-0.062a2.921,2.921,0,0,0-.537.436,0.127,0.127,0,0,0-.126-0.062c-0.08.1-.277,0.121-0.348,0.218s0.084,0.093-.063.187c-0.124.085-.16-0.052-0.19,0l-0.379.218a0.258,0.258,0,0,1-.032.156,1.112,1.112,0,0,0-.095.094c-0.079-.054-0.051-0.078-0.126-0.062a1.112,1.112,0,0,0-.505.405,1.1,1.1,0,0,0-.19-0.094,2.751,2.751,0,0,1-.632.312,0.211,0.211,0,0,0-.063-0.125,0.956,0.956,0,0,1-.442.062c-0.058.114-.074,0.126-0.253,0.125V30.844H32.069c-0.057.114-.074,0.126-0.253,0.125V30.844H31.311c-0.036.129-.055,0.127-0.221,0.125V30.844H30.585c-0.057.114-.074,0.126-0.253,0.125V30.844H29.826c-0.038.136-.077,0.131-0.253,0.125V30.844H29.1c-0.057.114-.074,0.126-0.253,0.125V30.844H28.341c-0.058.114-.074,0.126-0.253,0.125V30.844H27.583c-0.036.129-.055,0.127-0.221,0.125V30.844H26.856c-0.058.114-.074,0.126-0.253,0.125V30.844H26.1c-0.036.129-.055,0.127-0.221,0.125-0.053-.175-0.282-0.137-0.506-0.125a0.209,0.209,0,0,1-.253.125V30.844H24.613c-0.038.136-.077,0.131-0.253,0.125V30.844H23.855c-0.036.129-.055,0.127-0.221,0.125V30.844H23.128c-0.058.114-.074,0.126-0.253,0.125V30.844H22.37c-0.036.129-.055,0.127-0.221,0.125V30.844H21.643c-0.058.114-.074,0.126-0.253,0.125V30.844H20.885v0.031H20.853v0.093H20.632V30.844H20.126c-0.036.129-.055,0.127-0.221,0.125V30.844H19.4c-0.058.114-.074,0.126-0.253,0.125V30.844H18.641c-0.036.129-.055,0.127-0.221,0.125-0.053-.175-0.282-0.137-0.506-0.125-0.058.114-.074,0.126-0.253,0.125V30.844H17.156v0.031H17.125v0.093H16.9V30.844H16.4c-0.036.129-.055,0.127-0.221,0.125V30.844H15.671v0.031H15.64v0.093H15.419V30.844H14.913c-0.036.129-.055,0.127-0.221,0.125V30.844H14.186a0.36,0.36,0,0,1-.253.125V30.844l-0.505-.062-0.063.125-0.19-.031V30.751c-0.215-.014-0.267-0.1-0.474-0.125a0.339,0.339,0,0,1-.063.093,0.215,0.215,0,0,0-.158-0.062l0.031-.156a0.9,0.9,0,0,1-.411-0.156,0.255,0.255,0,0,1-.158.093V30.408c-0.154-.048-0.08-0.055-0.126-0.187-0.169-.023-0.242-0.1-0.411-0.125l-0.063.094a0.181,0.181,0,0,1-.158-0.218,1.5,1.5,0,0,0-.411-0.125,0.337,0.337,0,0,1-.158.062,0.367,0.367,0,0,0-.095-0.062c0.011-.092.063-0.064-0.032-0.125A1.022,1.022,0,0,0,9.858,29.6c0.026-.1.053-0.108-0.063-0.156a0.93,0.93,0,0,0-.569-0.093c0-.134.045-0.11-0.032-0.156a1.4,1.4,0,0,0-.7-0.187c0.028-.07.056-0.08,0.032-0.125a1.936,1.936,0,0,0-.316-0.312c-0.126-.059-0.184.14-0.284-0.125a0.193,0.193,0,0,0,.063-0.062,0.481,0.481,0,0,0-.442-0.218A0.837,0.837,0,0,1,6.7,27.79,0.561,0.561,0,0,1,6.73,27.51a0.368,0.368,0,0,1,.379-0.28v0.031H7.141a0.106,0.106,0,0,1-.032.062,0.4,0.4,0,0,0-.19.374,0.112,0.112,0,0,1,.032.062,0.786,0.786,0,0,1,.158.125,1.606,1.606,0,0,0,.348-0.031l0.063-.187a2.066,2.066,0,0,0-.063-0.405H7.362c0-.073-0.027-0.3-0.032-0.312l-0.095-.062A0.893,0.893,0,0,0,7.3,26.669c-0.029-.019-0.342-0.24-0.348-0.249a1.086,1.086,0,0,0-.095-0.249L6.6,26.014c-0.049-.081-0.013-0.15-0.063-0.218a1.926,1.926,0,0,0-.253-0.125c-0.07-.071-0.065-0.236-0.126-0.312s-0.167-.039-0.221-0.093l-0.19-.374a0.247,0.247,0,0,1-.126,0,0.511,0.511,0,0,0-.253-0.374,0.747,0.747,0,0,1-.348.062c-0.107.511-.57,0.577-1.106,0.5-0.081-.124-0.24-0.194-0.316-0.312a1.063,1.063,0,0,0-.158-0.343,1.8,1.8,0,0,1-.664-0.312c0.1-.131.091-0.362,0.19-0.5,0.125-.173.41-0.2,0.537-0.374a0.2,0.2,0,0,1-.032-0.249,0.758,0.758,0,0,1,.284,0c0.024-.082.038-0.074,0.063-0.156a0.305,0.305,0,0,1-.063-0.187H3.7c-0.012.082,0.023,0.041-.063,0.062a0.419,0.419,0,0,0-.316-0.031C3.286,22.9,3.276,23.056,3,23.054c-0.155-.15-0.245,0-0.474.031a2.194,2.194,0,0,1-.442-0.28c-0.056-.088.019-0.233-0.032-0.343-0.026-.057-0.151-0.13-0.19-0.187a1.962,1.962,0,0,1-.348-0.935H1.232L1.2,20.81l-0.095-.062a5.748,5.748,0,0,1-.095-0.686H0.979v1.215H0.885a0.558,0.558,0,0,0-.126-0.343,0.479,0.479,0,0,1-.506.218V21.06A0.685,0.685,0,0,1,0,20.779H0.032V20.748a0.875,0.875,0,0,0,.79-0.062A0.151,0.151,0,0,1,.885,20.53V20.125a10.757,10.757,0,0,1,0-1.4,1.1,1.1,0,0,1,.19-0.093,3.016,3.016,0,0,0,.821,0,9.377,9.377,0,0,0,1.675.031H4.3A1.656,1.656,0,0,1,4.9,18.5a1.1,1.1,0,0,0-.063-0.436H5.276V18.13a1.3,1.3,0,0,1,.032.53H5.877V18.411A0.368,0.368,0,0,1,6.1,18.348v0.062a0.487,0.487,0,0,1,.032.249l0.664-.031V18.567a0.267,0.267,0,0,1-.032-0.156H6.635V18.224H6.509c-0.046-.146-0.117-0.162-0.316-0.156V17.476a1.126,1.126,0,0,1-.758-0.312,4.24,4.24,0,0,0,.032-1.371,1.67,1.67,0,0,1-.284-0.249L5.15,15.232a0.487,0.487,0,0,1,.221-0.249,1.918,1.918,0,0,1,.758-0.156v-0.5a7.125,7.125,0,0,1,1.264.156V13.892H8.626v0.062a1.2,1.2,0,0,0-.126.53H8.815V14.7H8.4a0.523,0.523,0,0,1-.032.187H8.468v0.125a0.619,0.619,0,0,1,.284.374,0.467,0.467,0,0,0-.158.436h-1.2a2.425,2.425,0,0,0,.442.717,0.946,0.946,0,0,0,.19.343H8.562a1.746,1.746,0,0,1,.664-0.031V16.635H8.942V16.51H8.784V16.448c0.36-.013.718-0.06,1.137-0.062a2.737,2.737,0,0,0-.19-0.686L9.352,14.173a2.149,2.149,0,0,1-.19-0.779H9.194v0.031A6.644,6.644,0,0,1,9.573,14.7a0.507,0.507,0,0,0,.221.467,2.381,2.381,0,0,1,.885-0.249,0.617,0.617,0,0,1,.221.249c0.233-.069.459-0.213,0.727-0.28l1.422-.187c0.181-.055.236-0.235,0.411-0.28,0.06,0.038.167,0,.253,0.031a2.909,2.909,0,0,1,.474.405,6.51,6.51,0,0,1,.885.654,10.6,10.6,0,0,0,.853,1.153H16.3V16.6c0.042-.035.106,0.087,0.126,0.093h0.284a0.865,0.865,0,0,0,.063.125h1.58V16.759a2.114,2.114,0,0,1-.189-0.592c-0.165-.488-0.314-1.019-0.506-1.527-0.389-1.032-.646-2.123-1.043-3.178-0.136-.363-0.234-0.767-0.379-1.153a2.625,2.625,0,0,1-.221-0.686h0.032l2.433,7.2h5.656A1.588,1.588,0,0,1,24.739,16.759ZM14.06,16.385a0.835,0.835,0,0,1,.379.093V16.385a7.439,7.439,0,0,1-.758-1.278,0.2,0.2,0,0,1-.126.062,0.484,0.484,0,0,1-.032-0.156c0.1-.026.048,0.015,0.095-0.062A0.794,0.794,0,0,0,13.46,14.8a0.373,0.373,0,0,0-.126.125,0.869,0.869,0,0,0-.032.53A1.359,1.359,0,0,1,14.06,16.385Zm-0.885-1.465a0.759,0.759,0,0,0-.348.125c-0.042.018-.049-0.059-0.063-0.062l-0.348.031a7.886,7.886,0,0,0-1.106.218c-0.335.14-.544,0.431-0.853,0.592v0.062a0.536,0.536,0,0,1,.158.187h0.063a1.8,1.8,0,0,1,1.453-.935,2.318,2.318,0,0,1,.7.062,0.167,0.167,0,0,1,.032-0.156h0.032v0.031a1.052,1.052,0,0,0,.095.156,0.193,0.193,0,0,0,.19.093A0.868,0.868,0,0,0,13.175,14.921Zm-2.717.374a1.262,1.262,0,0,1-.411.125,0.661,0.661,0,0,0-.032.218,0.589,0.589,0,0,0,0,.187v0.031a7.328,7.328,0,0,0,.632-0.467V15.357H10.616C10.57,15.278,10.577,15.3,10.458,15.295ZM7.8,16.884a2.3,2.3,0,0,0-.7-1,0.738,0.738,0,0,1,0-.28H6.951a0.484,0.484,0,0,0-.032.156,1.718,1.718,0,0,1,.032.561l0.095,0.062a1.632,1.632,0,0,1-.032.717H7.077V17.071a1.4,1.4,0,0,0,.063-0.218A1.519,1.519,0,0,0,7.8,16.884Zm4.455-.5c0.375,0,.521-0.006.885,0V16.261h0.032v0.031c0.066,0.087.047,0.1,0.284,0.094V16.323c-0.08-.064-0.1-0.158-0.19-0.218a0.253,0.253,0,0,0-.126-0.031,0.673,0.673,0,0,0-.632-0.374,1.352,1.352,0,0,0-1.453.686h0.126l0.063-.125c0.1,0.1-.009.117,0.221,0.125a2.483,2.483,0,0,1,.727,0c0.037-.083-0.028-0.056.063-0.094v0.094Zm-0.032-.654a0.12,0.12,0,0,1,.063.094H12.228V15.731Zm-0.379.031c0.08,0.045.036-.007,0.063,0.093H11.848V15.762Zm0.758,0a0.121,0.121,0,0,1,.063.093H12.607V15.762Zm-2.591.125c-0.032.11-.067,0.1-0.095,0.218l0.095,0.281h0.411V16.323C10.264,16.209,10.174,16.006,10.016,15.887Zm2.022,0c0.08,0.045.036-.007,0.063,0.094H12.038V15.887Zm0.379,0H12.48l-0.032.062H12.48a0.163,0.163,0,0,1-.095.031V15.949A0.112,0.112,0,0,0,12.417,15.887Zm-0.758.031c0.078,0.04.022-.013,0.063,0.062H11.69v0.031H11.659V15.918ZM12.8,15.949c0.011,0.009.063,0.016,0.032,0.062C12.793,16,12.729,15.956,12.8,15.949Zm-0.569.062c0.08,0.045.036-.007,0.063,0.094H12.228V16.011Zm-0.379.031c0.078,0.04.022-.013,0.063,0.062H11.88v0.031H11.848V16.043Zm-0.379.031h0.063v0.062H11.469V16.074Zm1.137,0c0.011,0.009.063,0.016,0.032,0.062C12.6,16.121,12.54,16.081,12.607,16.074Zm0.348,0a0.12,0.12,0,0,1,.063.093H12.954V16.074Zm-0.916.093a0.359,0.359,0,0,1,.063.093H12.006V16.23A0.113,0.113,0,0,0,12.038,16.167Zm0.348,0c0.08,0.045.036-.007,0.063,0.093H12.386V16.167Zm-0.727.031h0.063v0.062H11.659V16.2Zm1.106,0h0.063l-0.032.062h0.032a0.114,0.114,0,0,1-.063.031V16.2Zm3.254,1.122a11.647,11.647,0,0,1-.126,1.215h2.844a1.73,1.73,0,0,0,.221.623,0.252,0.252,0,0,0,.095-0.187,3.571,3.571,0,0,1-.284-0.966c-0.088-.266-0.212-0.546-0.284-0.841H16.809A0.9,0.9,0,0,1,16.019,17.32Zm-9,.561c0.026,0.222.144,0.493-.158,0.53v0.218a5,5,0,0,0,1.3.031L8.12,18.5a1.118,1.118,0,0,1-.442-0.436A1.8,1.8,0,0,0,7.014,17.881Zm7.8,0.405a1.133,1.133,0,0,1-.348-0.031,0.343,0.343,0,0,1-.221.218h0.032a1.3,1.3,0,0,0,.663.062V18.473a0.923,0.923,0,0,0,.063-0.467,0.149,0.149,0,0,1-.158-0.031v0.218A0.158,0.158,0,0,0,14.818,18.286Zm5.055,2.057a0.571,0.571,0,0,0,.284-0.093c0.12-.04.543,0.093,0.79,0.093V19.938a0.333,0.333,0,0,0,.316-0.062,14.959,14.959,0,0,1-1.9-.592v0.093c0.047,0.058.046,0.157,0.095,0.218a0.553,0.553,0,0,0,.126.031A1.415,1.415,0,0,1,19.874,20.343Zm-17.788,1a2.913,2.913,0,0,0,.6,1.247H2.717V22.555A1.38,1.38,0,0,0,3.191,21.9H3.16V21.87c-0.072.012-.034,0.029-0.095,0a0.461,0.461,0,0,1,0-.156A0.857,0.857,0,0,0,2.085,21.34Z" transform="translate(0 0.016)"/>
</svg>
