<svg xmlns="http://www.w3.org/2000/svg" width="40" height="40" viewBox="0 0 40 40">
  <defs>
    <style>
      .cls-1 {
        fill: #fff;
        fill-rule: evenodd;
      }
    </style>
  </defs>
  <path id="Color_Fill_1" data-name="Color Fill 1" class="cls-1" d="M8.194,19.455v-0.2H9.261v0.1a0.34,0.34,0,0,1,.048.2A1.623,1.623,0,0,0,9.7,19.5V17.82a7.607,7.607,0,0,0,.048-1.883v-5A7.882,7.882,0,0,1,9.794,9L9.842,19.455a0.549,0.549,0,0,1,.145.3L10.667,19.8a0.325,0.325,0,0,1,.048-0.2,0.325,0.325,0,0,0,.048.2,0.729,0.729,0,0,1,.1-0.347h0.194a0.244,0.244,0,0,1,.048-0.149,2.442,2.442,0,0,1,.97-0.05v0.1c-0.107-.026-0.1-0.056-0.194,0h0.049a0.544,0.544,0,0,0,.1.149v-0.05a0.18,0.18,0,0,0,.048-0.1c0.426,0.307,1.1-.014,1.6.149,0.042-.386.672-0.27,1.067-0.248,0.052,0.194.055,0.19,0.291,0.2a0.73,0.73,0,0,0,.436,0,10.972,10.972,0,0,0-.388-1.536,2.971,2.971,0,0,0-.146-1.041,1.253,1.253,0,0,0-.582-0.3,0.3,0.3,0,0,1-.194.1C14,16.2,13.53,16.225,13.527,15.441a4.223,4.223,0,0,1,0-.595,2.054,2.054,0,0,0,.194-0.446c-0.142.019-.061,0.081-0.145-0.05a5.829,5.829,0,0,0,.873-0.149v-0.05H14.158v-0.1L14.4,14c-0.019-.11-0.052-0.127,0-0.2a0.752,0.752,0,0,1,.388-0.05,6.243,6.243,0,0,0,.824,0,6.757,6.757,0,0,1,1.455-.3v0.05H17.018c-0.093.038,0.1,0.05,0.1,0.05v-0.05c0.049-.049.048,0.049,0.048,0.05a0.546,0.546,0,0,1,.049.3,0.165,0.165,0,0,0-.1.05,9.452,9.452,0,0,0,1.358.1V13.311a5.441,5.441,0,0,0,2.133.2,2.9,2.9,0,0,1,.63-0.149V13.113a2.763,2.763,0,0,1,1.309-.149,0.688,0.688,0,0,0,.776.248,0.174,0.174,0,0,1,.1-0.05v0.2a0.738,0.738,0,0,1,.388.05,0.807,0.807,0,0,0-.291.05v0.05h0.824a5.125,5.125,0,0,1,0,.941,2.152,2.152,0,0,1-.873.05l-0.049.644H23.079c-0.059.214-.111,0.25-0.388,0.248a0.725,0.725,0,0,1,.049-0.248H22.255v0.3a64.321,64.321,0,0,0,6.933,0v0.347H29.139a3.165,3.165,0,0,0-1.115,0,38.193,38.193,0,0,0-5.382,0v0.05h0.049a2.182,2.182,0,0,1,.533.446c-0.034.076-.006,0.007,0,0.149a0.165,0.165,0,0,0-.1.05c-0.256-.11-0.4-0.177-0.679-0.3a2.96,2.96,0,0,1-1.018,1.189,3.1,3.1,0,0,1,.194.347,0.622,0.622,0,0,1,.727-0.694l0.048,0.4h0.146v0.3h0.242l0.63,0.941a0.5,0.5,0,0,1,.291-0.1,1.154,1.154,0,0,1,.242.446,0.5,0.5,0,0,0,0,.4,0.243,0.243,0,0,1,.242,0,0.5,0.5,0,0,1,0,.4l0.291,0.05a0.575,0.575,0,0,1,.242-0.347,3.269,3.269,0,0,0,1.018.3,0.716,0.716,0,0,1,.582-0.743c0.149,0.111.4,0.122,0.533,0.248a0.757,0.757,0,0,0,.1.2l0.291-.05c0.293,0.1.93,0.067,1.406,0.2l0.921,0.3c0.128,0.07.255,0.291,0.388,0.347h0.679a6.44,6.44,0,0,1,.679.347,1.571,1.571,0,0,0,.582,0,1.685,1.685,0,0,1,1.115.5,2.622,2.622,0,0,1,2.23.2,1.192,1.192,0,0,0,.048.595,1.339,1.339,0,0,0,.339.248h0.291a0.46,0.46,0,0,1,.1.3c0.181,0.129.354,0,.436,0.248,0.032,0.1.048-.1,0.048-0.1a0.978,0.978,0,0,0,.1-0.5h0.339l0.048,0.545,0.776-.05c0.034-.061.97-1.239,0.97-1.239h0.582a6.921,6.921,0,0,1,.049,1.784h-0.1a0.365,0.365,0,0,0-.1-0.4,0.69,0.69,0,0,1-.291.4c0.244,0.083.019,0.082,0.194,0.2a1.736,1.736,0,0,0,.339.05l-0.291.842a1.431,1.431,0,0,1,.436.644,0.244,0.244,0,0,0,.145.05,1.45,1.45,0,0,0-.145.545,0.18,0.18,0,0,1,.048.1h0.145a0.193,0.193,0,0,1,.194-0.1V25.55H40v0.1a0.723,0.723,0,0,1-.194.1,0.752,0.752,0,0,1-.388.05l-0.194-.4a1.3,1.3,0,0,0-.727.644,1.494,1.494,0,0,1-.485,1.586c-0.4.3-.953,0.419-1.358,0.694a34.026,34.026,0,0,1-3.394,2.329,6.3,6.3,0,0,1-2.618.3H10.57A7.978,7.978,0,0,1,8.727,30.9a12.969,12.969,0,0,1-2.618-1.239C5.625,29.4,5.16,29.245,4.655,29.018c-0.218-.1-0.459-0.3-0.679-0.4l-0.436-.05a1.908,1.908,0,0,1-1.5-1.486,0.331,0.331,0,0,0,.242-0.149c-0.695-.108-0.258-1-1.406-0.991a6.642,6.642,0,0,0,.145,1.883H0.776v0.05c-0.049.049-.048-0.049-0.048-0.05-0.326-.512.141-2.46,0.242-2.775a0.411,0.411,0,0,1-.436-0.3H0.582v-0.05c0.171,0.05.16,0.105,0.339,0.149v-0.1a0.505,0.505,0,0,0-.1-0.545H0.873a0.174,0.174,0,0,0,.1.05c-0.036-.043-0.061-0.056-0.1-0.1h0.1a1.013,1.013,0,0,1,.388-0.248l-0.194-.446a1.438,1.438,0,0,0-.436,0,9.751,9.751,0,0,0-.339-1.189,0.211,0.211,0,0,1-.194.2v-0.05a1.455,1.455,0,0,0,.194-0.793c0.157-.041.074,0.024,0.145-0.1a2.321,2.321,0,0,1-.145-0.694c0.228-.053.286-0.107,0.291-0.4-0.4-.411-0.018-0.518-0.242-1.09H0.97a1.863,1.863,0,0,0,.485.248v0.149H1.212v0.1H1.261a1.4,1.4,0,0,1,.485-0.1,2.663,2.663,0,0,1,.1-0.4c0.161-.023.231,0.024,0.291-0.1a0.256,0.256,0,0,0,.048-0.149L3.1,18.96l-0.1-1.239c0.1-.223.346-0.419,0.436-0.644-0.613-.006-1.115-0.2-1.7-0.248V16.68c-0.707,0-1.262-.093-1.745-0.05V16.383H0.1c0.1,0.056,1.215-.043,1.648-0.05V16.185c0.983,0,1.83-.1,2.861-0.1h0.97c0.38,0.085.919,0.149,1.309,0.2a1.209,1.209,0,0,1-.048.545,0.255,0.255,0,0,1-.242.248,6.637,6.637,0,0,1-1.891.149,0.14,0.14,0,0,1-.048.05l-0.1.842c0.058,0.106.136-.028,0.194,0.248H5.479v0.1a0.381,0.381,0,0,1,0,.347H6.642v0.3c0.416,0.029.153,0.119,0.339,0.248l0.242-.05a1.2,1.2,0,0,0,.436.2c-0.007-2.33.048-4.783,0.048-7.185A17.25,17.25,0,0,1,7.758,9H7.806v9.117A8.553,8.553,0,0,1,7.9,19.5,0.87,0.87,0,0,1,8.194,19.455ZM21.43,13.113a0.753,0.753,0,0,0-.1.2h0.1a2.815,2.815,0,0,0,.436.1V13.261a0.165,0.165,0,0,1-.1-0.05,1.624,1.624,0,0,0,.776-0.1H21.43Zm1.842,0.248v0.1h0.049A0.17,0.17,0,0,0,23.273,13.36Zm-7.079.545a0.516,0.516,0,0,1-.291.05v0.1h0.242a0.834,0.834,0,0,0,.388-0.149H16.194Zm-0.776.1c-0.129.081-.372,0.059-0.485,0.149h0.049V14.2C15.228,14.139,15.558,14.217,15.418,14Zm7.515,0.3c0.083,0.044.062,0.044,0.146,0H22.933Zm0.242,0c0.083,0.044.062,0.044,0.145,0H23.176Zm0.291,0a0.139,0.139,0,0,0,.194,0H23.467Zm-2.618.842h0.145v0.3a0.347,0.347,0,0,0,.388-0.1,0.334,0.334,0,0,1-.242-0.149h0.049a0.834,0.834,0,0,0,.388-0.149H21.042c-0.07-.126.011-0.056-0.145-0.1V15H20.849v0.149ZM20.752,15H20.509v0.1l0.242,0.05V15Zm2.23,0.149-0.049.1C23.018,15.174,22.982,15.144,22.982,15.144Zm5.77,0.446a0.252,0.252,0,0,0,.291,0H28.752Zm-7.418.347V15.788H20.994v0.1Zm0.873-.149a1.039,1.039,0,0,0,.533.4A2.04,2.04,0,0,0,22.206,15.788Zm-0.873.4v-0.2H21.285c-0.108.163-.095-0.051-0.291,0.05a0.232,0.232,0,0,1,.145.05,0.5,0.5,0,0,0-.291.05H20.9A0.515,0.515,0,0,0,21.333,16.185Zm0.242,0.05a1.95,1.95,0,0,0-.194.793h0.146a6.1,6.1,0,0,1,.776-0.743A2.541,2.541,0,0,0,21.576,16.234Zm-1.5.5a0.478,0.478,0,0,0,.436,0H20.073Zm0.485,0a1.171,1.171,0,0,0,.049.2,0.436,0.436,0,0,1,.145-0.149V16.73H20.558Zm0.339,0c0.083,0.044.062,0.044,0.145,0H20.9Zm-17.358.446a0.174,0.174,0,0,0,.1.05A0.174,0.174,0,0,0,3.539,17.176Zm-0.048.1a0.562,0.562,0,0,1-.145.1v0.05H3.539a0.3,0.3,0,0,1,.1-0.1v-0.05H3.491Zm-0.242.2v0.2H3.3a0.436,0.436,0,0,1,.145-0.149v-0.05H3.248Zm1.5,0.941a0.191,0.191,0,0,0,.242,0H4.752Zm18.861,0.2-0.049.149C23.7,18.7,23.694,18.729,23.612,18.613Zm-14.5.694H8.339v0.1a2.276,2.276,0,0,1,.824.1v-0.05A0.257,0.257,0,0,1,9.115,19.306Zm2.036,0c-0.019.112-.045,0.054,0,0.149V19.5c0.141-.049.457-0.089,0.63-0.149v-0.05h-0.63Zm2.667,0a0.242,0.242,0,0,0,.049.149c0.153-.093.45-0.045,0.582-0.149h-0.63Zm0.727,0,0.048,0.2h0.049A0.2,0.2,0,0,0,14.546,19.306ZM1.018,19.9C1,19.97,1.087,19.973,1.115,20,1.149,19.947,1.032,19.916,1.018,19.9Zm37.188,2.725H38.4a0.907,0.907,0,0,1,.291-0.545c0.05-.1,0-0.225.049-0.3a0.629,0.629,0,0,1,.339-0.05,0.756,0.756,0,0,1,.1.2,0.532,0.532,0,0,0-.146.1h0.146v0.595h0.1v-1.09a1.374,1.374,0,0,0-.436-0.05,0.174,0.174,0,0,1-.1.05,2.735,2.735,0,0,1-.582.842A0.794,0.794,0,0,1,38.206,22.626ZM35.2,22.032a0.482,0.482,0,0,0,.242.149A0.482,0.482,0,0,0,35.2,22.032Zm-0.049.149v0.1a0.6,0.6,0,0,1,.194.05v-0.1Zm2.133,0.595a0.771,0.771,0,0,0,.485.1v-0.1H37.285Zm0.921,0v0.149a0.508,0.508,0,0,1-.242.1,0.3,0.3,0,0,0-.1-0.1v0.1h0.048a0.689,0.689,0,0,0,.339.149v-0.05a0.184,0.184,0,0,1-.145-0.1,0.5,0.5,0,0,0,.485-0.1A0.45,0.45,0,0,0,38.206,22.775ZM39.564,25a0.174,0.174,0,0,0,.1.05A0.174,0.174,0,0,0,39.564,25ZM7.273,28.275a3.12,3.12,0,0,0-1.309.149,0.174,0.174,0,0,0,.1.05,4.046,4.046,0,0,0,1.261.545v-0.05A1.168,1.168,0,0,1,7.273,28.275Zm4.412,0.545a1.9,1.9,0,0,1-.533,1.14h1.115V29.91A5.634,5.634,0,0,1,11.685,28.82Zm4.509,0a3.084,3.084,0,0,1-.533,1.14h1.067v-0.1A2.987,2.987,0,0,1,16.194,28.82Zm4.461,0a2.089,2.089,0,0,1-.533,1.14h1.164V29.91A6.682,6.682,0,0,1,20.655,28.82Zm4.461,0a1.657,1.657,0,0,1-.533,1.14H25.7V29.91a1.575,1.575,0,0,1-.485-1.09h-0.1Zm4.509,0a2.8,2.8,0,0,1-.533,1.14h1.115V29.91A3.336,3.336,0,0,1,29.624,28.82Z"/>
</svg>
