<svg xmlns="http://www.w3.org/2000/svg" width="80" height="40" viewBox="0 0 80 40">
  <defs>
    <style>
      .cls-1 {
        fill: #fff;
        fill-rule: evenodd;
      }
    </style>
  </defs>
  <path id="Color_Fill_1" data-name="Color Fill 1" class="cls-1" d="M43.636,13.008a2.245,2.245,0,0,0,.291.985,3.853,3.853,0,0,0-.194.689c0.157,0.926,1.374.736,2.424,0.689v1.182l0.291,0.1c0.18,0.112.694,0.081,0.873,0.2h-0.1a1.3,1.3,0,0,0-.388.1h0.1c0.795,0.809,3.523.507,5.527,0.492v-0.1a0.507,0.507,0,0,1-.1-0.3l-0.485.1v-0.1h0.1a0.489,0.489,0,0,1,.291-0.1,7.535,7.535,0,0,1-.388-2.364,1.9,1.9,0,0,1,1.648-.3,2.1,2.1,0,0,1,.1-0.985c0.014,0.371-.046.346,0.194,0.492a2.784,2.784,0,0,1,.485-1.083H54.5c0.293,0.36.751,0.338,0.873,0.886a1.713,1.713,0,0,0-.194.591H55.37a1.619,1.619,0,0,1,.388-1.28c0.094-.025.037-0.077,0.1,0a0.794,0.794,0,0,1,.582.394c0.146,0.237.13,0.676,0.291,0.886,0.316,0.2.959-.09,1.358,0.1,0.975,0.463,6.139.545,7.855,0.2v0.591h-0.1a5.034,5.034,0,0,0-2.23-.2l-5.139.2c-0.052,2.165.99,2.24,3.1,2.167a4.249,4.249,0,0,1,1.648-.1h4.17v0.3l-8.824.1v0.591h1.067v0.2a0.356,0.356,0,0,0-.1.2h-0.1v-0.3H59.055v0.2h-0.1v0.1h0.485V19.9c1.578-.007,3.326-0.006,4.752.1,0.1-.263.072-0.171,0.194-0.492,0.539,0.362,1.689.04,2.23,0.2v0.2a0.464,0.464,0,0,0-.291.1h0.485c0.078-.413.85-2.745,0.873-2.758v-0.1h0.1v2.068h0.873a2.145,2.145,0,0,1,.1.689h0.291V19.311H70.3a0.853,0.853,0,0,0,.291.591,3.517,3.517,0,0,1,.679.3h1.939c0.144-.42.048-0.409,0.776-0.394v0.1H73.7v0.3h0.194a6.754,6.754,0,0,0,1.648.1,18.067,18.067,0,0,0,3.588.2V20.1h0.582v0.492H80c-0.11.827-1.584,2.9-2.036,3.644a11.9,11.9,0,0,1-5.43,5.22c-3.28,1.4-8.613,1.182-13.188,1.182H17.552l-3.2-.1c-1.01.237-2.219,0.511-3.2,0.788l-0.97.1a5.8,5.8,0,0,1-2.036.492v0.1a0.846,0.846,0,0,1,.194.689,1.928,1.928,0,0,0-.97.3V32.8a4.715,4.715,0,0,1-.485-2.659,1.061,1.061,0,0,0,.291-0.2,0.331,0.331,0,0,1,.194.1c0.685,0.25.527,1.171,0.873,1.379,0.13-.121.347-0.18,0.485-0.3a4.13,4.13,0,0,0,.485-1.28h-3.3c-0.1.26-.779,2.393-0.873,2.462H3.685a10.556,10.556,0,0,1-.1-2.758H3.879V23.841H3.588V23.053H3.879c0-.9-0.181-1.211-0.194-2.068H3.976c0.021-.906.226-2.7-0.194-3.25a0.646,0.646,0,0,0-.388-0.1,14.738,14.738,0,0,1-2.715.985A4.784,4.784,0,0,1,0,16.75H0.194A16.97,16.97,0,0,1,3.1,15.667c0.85,1.205-.078,2.051,2.23,1.97,0.7-.437,2.2.1,3.1-0.1,0.85-.185,2.131.113,3.1-0.1a23.355,23.355,0,0,1,3.685-.2v0.394c-2.09-.023-4.148.087-6.109,0.2-0.791.044-2.337-.267-2.909,0.1a3.016,3.016,0,0,1,2.133,1.083,6.16,6.16,0,0,0,.291,1.773,0.647,0.647,0,0,0,.388.1v-0.3H9.212a16.227,16.227,0,0,1,2.133-.1c0.115,0.261-.087.177,0.194,0.3a1.053,1.053,0,0,1,.1-0.591,2.881,2.881,0,0,1,1.261-.1,1.7,1.7,0,0,0,.1.591h0.1V19.9c-0.934,0-1.426.007-2.23,0,0.039,0.223.089,0.107,0,.3a0.276,0.276,0,0,0-.1-0.1,2.563,2.563,0,0,1-.194-0.492h0.1a0.6,0.6,0,0,0,.194.2v-0.2a4.139,4.139,0,0,1-.291-1.182,3.244,3.244,0,0,1,1.552-.394s2.69-.288,3.2-0.3c0.08-.32-0.047-0.15.194-0.3a0.48,0.48,0,0,0,.1.3c0.141-.25-0.021-0.111.291-0.2v0.3a2.213,2.213,0,0,0,1.164.2,1.011,1.011,0,0,1,.679-0.394,1.322,1.322,0,0,0,1.454.394c1.106-.149,3.6.1,5.139-0.1-0.017-.612.092-0.9,0.1-1.674a66.924,66.924,0,0,0-7.467,0V15.667h0.1a4.681,4.681,0,0,0,2.133.2c1.85,0,4.716.022,5.624-.394a11.9,11.9,0,0,1,1.455-.1l0.194-.985a1.588,1.588,0,0,1,.776-0.3l0.1,0.3c0.2,0.354.035,0.866,0.388,1.083l-0.194-.886a6.071,6.071,0,0,1,1.067-.689v0.1a5.967,5.967,0,0,0,.679,1.083,0.339,0.339,0,0,1,.1-0.2V15.47h1.261a1.551,1.551,0,0,1,.388.492c0.282,0.454-.261,1.551-0.388,2.068h2.424a1.827,1.827,0,0,1,.1.591,1.427,1.427,0,0,1,0,.985H34.23v0.3h0.388v0.3H35.2L35.1,20h0.1a0.829,0.829,0,0,0-.485-0.1V19.8a2.134,2.134,0,0,1-.1-0.985,1.624,1.624,0,0,0,.582-0.1,2.06,2.06,0,0,1,0-1.182h0.1a0.48,0.48,0,0,0,.1.3v-0.2a1.034,1.034,0,0,0,.194-0.591c-0.239-.128-0.066.042-0.194-0.2,0.284,0.039.122,0.161,0.291-.1a8.175,8.175,0,0,0,.97-2.856A5.121,5.121,0,0,1,35.1,12.417,21.741,21.741,0,0,1,32,9.364a0.6,0.6,0,0,0,.194-0.2c-0.136-.02.039,0.081-0.1,0.1-0.075.189-.1-0.2-0.1-0.2H31.9V8.97h0.291a6.741,6.741,0,0,0,2.23.689v-0.2a7.156,7.156,0,0,1-.97-2.364h0.1V7.2c0.477,0.547,1.007,2.481,1.649,2.659a7.293,7.293,0,0,0,2.618.788c0.078-.414.1-0.176,0.291-0.394,0.033-.389.009-1.066,0-1.773a1.266,1.266,0,0,1,.776-0.2V9.167a1.251,1.251,0,0,0-.582.689h1.455V9.364h0.1a1.294,1.294,0,0,1,.388.591h-0.1v0.1a3.616,3.616,0,0,0-1.552.1,1.856,1.856,0,0,0,.388.3c0.08-.32-0.047-0.15.194-0.3v0.3a1.063,1.063,0,0,0-.291.2c0.354,0.344.772,2.218,0.97,2.364h2.812v-0.2c0.669-1.04-.3-4.835.291-5.811-0.013,1.057-.127,5.271.291,5.909A0.647,0.647,0,0,0,43.636,13.008ZM38.982,9.167a0.291,0.291,0,0,1,0,.394V9.167Zm-6.594.1,3.491,3.447v-0.2c-0.5-.569-0.864-2.357-1.455-2.659A5.349,5.349,0,0,0,32.388,9.265Zm2.618,0.689L36.752,13.5h0.194c0.059-.5.89-2.445,0.776-2.561C37.452,10.489,35.594,10.192,35.006,9.955Zm3.3,0.985v0.3a0.564,0.564,0,0,0-.388,0L37.042,13.6h1.745l0.194-1.97h0.1v0.2c0.168,0.274.114,0.82,0.291,1.083a0.49,0.49,0,0,0,.291.1v-0.2C39.207,12.173,39.383,10.96,38.3,10.939Zm17.455,1.477c0.046,0.21.092,0.1-.1,0.3v0.1h-0.1A1.328,1.328,0,0,1,55.758,12.417Zm-0.388.492a0.357,0.357,0,0,1,.1.2h-0.1v-0.2ZM55.952,13.5a0.911,0.911,0,0,0,.291.394A0.911,0.911,0,0,0,55.952,13.5Zm0.1,0.788a0.481,0.481,0,0,0-.1-0.3,0.49,0.49,0,0,0-.291-0.1v0.1h-0.1a0.339,0.339,0,0,0,.1.2A0.646,0.646,0,0,0,56.049,14.288Zm-28.606-.2a0.357,0.357,0,0,1,.1.2h-0.1v-0.2Zm0.1,0.2a0.357,0.357,0,0,1,.1.2h-0.1v-0.2Zm1.648,0.3h0.194C29.267,14.742,29.341,14.7,29.188,14.583Zm-2.327.1-0.194.394h0.1v-0.1a0.357,0.357,0,0,0,.1-0.2h0.1v-0.1h-0.1Zm0,0.788h0.485a0.481,0.481,0,0,0-.1-0.3,0.49,0.49,0,0,0-.291-0.1v0.1h-0.1v0.3ZM4.073,17.932c0.025,0.237,1.04,2.939,1.067,2.955H6.206v-0.2A8.828,8.828,0,0,1,5.139,18.03a0.619,0.619,0,0,0,.388-0.1H4.073ZM67.394,19.9V19.212h0.291c-0.007-.619-0.027-0.753,0-1.28h-0.1v0.2L67.006,19.9h0.388ZM58.57,18.227v0.3c0.315-.082.148,0.048,0.291-0.2h0.1v-0.1H58.57Zm0,0.394v0.3h0.291v-0.3H58.57Zm0.388,0v0.3h0.388v-0.3H58.958ZM4.17,20.886H4.752a0.339,0.339,0,0,1,.1-0.2,4.649,4.649,0,0,0-.679-1.773v1.97Zm46.255-1.576a1.324,1.324,0,0,0,1.067,0H50.424Zm0.1,0.3a0.962,0.962,0,0,0,.873,0H50.521Zm22.4,0.1h0.194v0.1A0.331,0.331,0,0,1,72.921,19.7Zm-56.242.2a0.385,0.385,0,0,0,.485,0H16.679Zm4.17,0a5.037,5.037,0,0,0,2.618,0H20.849Zm-4.17.3c0.08,0.32-.047.15,0.194,0.3V20.2H16.679Zm5.042,0.3V20.2H20.849v0.2h0.1A1.512,1.512,0,0,0,21.721,20.492Zm1.358-.3v0.2c0.347-.041.244,0.047,0.388-0.2H23.079Zm11.249,0a0.348,0.348,0,0,0,.194.1A0.348,0.348,0,0,0,34.327,20.2Zm-10.764.1a0.348,0.348,0,0,0,.194.1A0.348,0.348,0,0,0,23.564,20.3Zm-14.255.1H9.5v0.1A0.331,0.331,0,0,1,9.309,20.394ZM9.891,31.03a11.859,11.859,0,0,0,3.3-.689v-0.1H12.412a5.05,5.05,0,0,0-2.133-.3A2.213,2.213,0,0,0,9.891,31.03Z"/>
</svg>
