<svg xmlns="http://www.w3.org/2000/svg" width="39.938" height="40" viewBox="0 0 39.938 40">
  <defs>
    <style>
      .cls-1 {
        fill: #fff;
        fill-rule: evenodd;
      }
    </style>
  </defs>
  <path id="germ_pzkpfw_ii_ausf_h_ico" class="cls-1" d="M11.6,15.262c0.082,0.01.141,0.055,0.2,0.056a2.238,2.238,0,0,0,.486-0.226,1.051,1.051,0,0,1,.343.085v0.085a7.977,7.977,0,0,1,1.771,0l0.743-.028a5.883,5.883,0,0,0,1.543.2c0.448-.1.874-0.268,1.286-0.367,0.1-.024.258,0.06,0.4,0.028a3.747,3.747,0,0,1,1.543-.056,1.361,1.361,0,0,0,.571-0.056,1.116,1.116,0,0,1,.4.028,2.9,2.9,0,0,0,.971-0.056,0.974,0.974,0,0,1,.914.226,0.994,0.994,0,0,1,.057.565,1.345,1.345,0,0,1,.086.254h0.457c0.085-.04,0-0.107.114-0.085a0.711,0.711,0,0,1,.4.4,0.456,0.456,0,0,0,.114.339,10.486,10.486,0,0,0,1.343.056,0.526,0.526,0,0,1,.143.141l1,0.028c0.688,0,1.381.056,2.114,0.056l8.914,0.057,0.057-.085,0.743,0.028c0.169-.053.367-0.206,0.543-0.254h1.029V16.7h0.029a2.078,2.078,0,0,1-.029,1.1,4.206,4.206,0,0,1-1.057.028,1.772,1.772,0,0,0-.543-0.254l-0.714.028-0.028-.056H34.914l-6.286.028-3.143.085a1.074,1.074,0,0,1-.086.141l-1.486.085v0.593H23.771V18H23.514v0.028a2.571,2.571,0,0,1,.2.593,0.108,0.108,0,0,0-.086.056H24.6V18.511a0.527,0.527,0,0,1,.171-0.028,0.115,0.115,0,0,0,.114.056,0.44,0.44,0,0,0,.029-0.141H24.771V18.285h0.057a0.283,0.283,0,0,1,.228,0v0.056a0.575,0.575,0,0,1,.057.339h0.229a0.515,0.515,0,0,1,.314-0.254,1.384,1.384,0,0,0,.143.254c0.128,0.1.174-.079,0.2,0.2a1.966,1.966,0,0,1,.143.735l0.314-.028,0.086,0.169a0.9,0.9,0,0,1,.657.056,0.4,0.4,0,0,1,.029.113h0.086V19.98a0.968,0.968,0,0,1-.086.763c-0.318.014-.306,0.137-0.4,0.367H27a0.938,0.938,0,0,0,.4.056l0.143-.678L28.6,20.715a0.5,0.5,0,0,1,.2-0.48,0.937,0.937,0,0,1,.486-0.085l0.029-.2a0.834,0.834,0,0,1,.771-0.339L30.114,19.7a1.183,1.183,0,0,1,.029.48,0.807,0.807,0,0,1,.4.085l0.114,0.226H30.143a2.117,2.117,0,0,1-.029.424H30.029V21H29.8v0.4h0.029a0.194,0.194,0,0,1,.114-0.028V21.28H30a0.25,0.25,0,0,1,.143-0.028,0.513,0.513,0,0,0,.028.141h0.114l0.029-.339c0.093,0.023.044-.014,0.086,0.057a0.9,0.9,0,0,0-.057.339,4.518,4.518,0,0,1,1.4.254,1.5,1.5,0,0,0,.457.113,0.335,0.335,0,0,1,.171-0.085,1.454,1.454,0,0,1,.4.311,0.14,0.14,0,0,1,.143-0.028,0.227,0.227,0,0,1,.086.057,0.6,0.6,0,0,1-.057.141,3.507,3.507,0,0,1,1.314,1.272c-0.019.022-.037,0.063-0.057,0.085a1.069,1.069,0,0,1-.457.169,5.816,5.816,0,0,0-.857.48,0.715,0.715,0,0,1,.143.311c-0.011.076-.086,0.058-0.057,0.141a0.382,0.382,0,0,0,.2.028L33.2,24.953c-0.118.039-.157,0.016-0.171,0.17,0.191,0.064.214,0.1,0.2,0.367a0.614,0.614,0,0,0-.143.056,0.08,0.08,0,0,0,.029.028c0.128,0.084.175,0.027,0.171,0.254a0.144,0.144,0,0,0-.029.085H33.086c-0.022.074-.034,0.067-0.057,0.141a0.365,0.365,0,0,1,.171.113,0.855,0.855,0,0,0-.086.283c-0.108,0-.1-0.013-0.143.056H33a0.535,0.535,0,0,0,.143.085,1.193,1.193,0,0,1-.114.283c-0.068.059-.191-0.158-0.257,0.113a0.133,0.133,0,0,1,.057.141,0.84,0.84,0,0,1-.257.2v0.056c0.046,0.028.162,0.11,0.114,0.141l-0.114.2a1.046,1.046,0,0,0-.228-0.057,1.172,1.172,0,0,0-.314.48,0.19,0.19,0,0,1,.057.141,0.463,0.463,0,0,0-.2.141,0.468,0.468,0,0,0-.257-0.085,1.055,1.055,0,0,0-.4.4c0.032,0.042.06,0.086,0.029,0.113-0.049.045-.123,0.067-0.171,0.113a0.352,0.352,0,0,0-.229-0.113,0.5,0.5,0,0,0-.457.367c0.036,0.044.018,0.014,0,.056a0.3,0.3,0,0,1-.229.085c-0.03-.123-0.045-0.138-0.2-0.141-0.162.133-.395,0.067-0.4,0.367a0.1,0.1,0,0,1,.029.056l-0.257.085c-0.015-.144-0.038-0.167-0.2-0.169a0.947,0.947,0,0,0-.4.226,0.8,0.8,0,0,0,0,.169,0.572,0.572,0,0,0-.229.057,0.161,0.161,0,0,0-.143-0.17,0.452,0.452,0,0,0-.486.311c0.007,0.027.022,0.011,0,.028a0.6,0.6,0,0,1-.229.085c-0.027-.145-0.046-0.173-0.229-0.17-0.092.068-.253,0.071-0.343,0.141-0.025.021-.032,0.036-0.057,0.056l0.028,0.169L26.8,30.52l-0.029-.17H26.6a4.338,4.338,0,0,1-.429.17L26.2,30.689l-0.257.056a0.158,0.158,0,0,0-.086-0.169,0.63,0.63,0,0,0-.543.141,0.305,0.305,0,0,0,0,.141l-0.257.028c-0.025-.156-0.033-0.2-0.228-0.2a1.611,1.611,0,0,1-.4.085,0.6,0.6,0,0,0-.029.2L24.143,31V30.831a1.4,1.4,0,0,0-.572-0.056,0.37,0.37,0,0,0-.057.226H23.257V30.831a1.4,1.4,0,0,0-.571-0.056,0.37,0.37,0,0,0-.057.226H22.371V30.8H22.314a1.31,1.31,0,0,0-.514-0.028,0.37,0.37,0,0,0-.057.226H21.486V30.8H21.429a1.31,1.31,0,0,0-.514-0.028,0.37,0.37,0,0,0-.057.226H20.6V30.8a2.133,2.133,0,0,0-.571-0.028L20,30.859a0.189,0.189,0,0,0-.029.113H19.714V30.8a2.017,2.017,0,0,0-.543-0.028,0.1,0.1,0,0,1-.057.028c-0.008.181-.065,0.181-0.257,0.169V30.831a1.4,1.4,0,0,0-.571-0.056,0.1,0.1,0,0,1-.057.028v0.169H17.971V30.831a1.4,1.4,0,0,0-.571-0.056,0.323,0.323,0,0,0-.057.2H17.086V30.8H17.029a1.31,1.31,0,0,0-.514-0.028,0.323,0.323,0,0,0-.057.2H16.2V30.8a2.133,2.133,0,0,0-.571-0.028,0.323,0.323,0,0,0-.057.2H15.314V30.8a2.133,2.133,0,0,0-.571-0.028l-0.029.085a0.189,0.189,0,0,0-.029.113H14.429V30.8a2.134,2.134,0,0,0-.571-0.028,0.08,0.08,0,0,1-.029.028,0.235,0.235,0,0,1-.029.141,0.456,0.456,0,0,1-.229.028V30.831a1.5,1.5,0,0,0-.6-0.056,0.6,0.6,0,0,0-.028.2H12.686V30.831a1.4,1.4,0,0,0-.571-0.056,0.323,0.323,0,0,0-.057.2H11.8V30.831a1.4,1.4,0,0,0-.571-0.056,0.323,0.323,0,0,0-.057.2H10.914V30.831a1.4,1.4,0,0,0-.571-0.056c-0.075.161-.052,0.235-0.314,0.226V30.831a1.4,1.4,0,0,0-.571-0.056A0.567,0.567,0,0,1,9.343,31a1.3,1.3,0,0,0-.2-0.056c0.006-.187-0.015-0.224-0.2-0.226a0.821,0.821,0,0,0-.371-0.056,0.972,0.972,0,0,1-.114.2,0.382,0.382,0,0,0-.2-0.028V30.8H8.229A0.564,0.564,0,0,0,8.2,30.6a0.529,0.529,0,0,0-.171-0.028,0.7,0.7,0,0,0-.343-0.056,0.467,0.467,0,0,1-.143.2,1.323,1.323,0,0,0-.2-0.056c0.006-.187-0.015-0.224-0.2-0.226a0.75,0.75,0,0,0-.371-0.056l-0.029.085a0.144,0.144,0,0,0-.029.085l-0.257-.056c0.015-.126.056-0.169-0.057-0.226a0.9,0.9,0,0,0-.486-0.113l-0.086.17A0.98,0.98,0,0,0,5.6,30.265l0.029-.2a1.15,1.15,0,0,0-.6-0.141c-0.028.115-.034,0.13-0.171,0.141-0.022-.019-0.064-0.037-0.086-0.056-0.066-.119.049-0.164-0.114-0.226A0.889,0.889,0,0,0,4.2,29.672a0.3,0.3,0,0,0-.057.141,1.543,1.543,0,0,1-.229-0.057,0.712,0.712,0,0,1,0-.226,1.308,1.308,0,0,0-.543-0.2,0.159,0.159,0,0,1-.171.141,0.443,0.443,0,0,1-.143-0.113,0.329,0.329,0,0,0,.057-0.141,1.747,1.747,0,0,0-.543-0.226c-0.038.061-.079,0.1-0.114,0.169a0.385,0.385,0,0,1-.229-0.141,0.19,0.19,0,0,0,.057-0.141,0.87,0.87,0,0,0-.543-0.367,0.156,0.156,0,0,1-.114.085c-0.06-.077-0.144-0.114-0.2-0.2a0.191,0.191,0,0,0,.114-0.2A1.646,1.646,0,0,0,1.4,27.948c-0.055-.034-0.112-0.017-0.171-0.056,0.026-.069.031-0.045,0.057-0.113a1.684,1.684,0,0,1-.257-0.056,0.7,0.7,0,0,1-.143-0.254c0.117-.006.131,0,0.171-0.085A0.852,0.852,0,0,0,1,26.9,0.122,0.122,0,0,0,.886,26.79a0.194,0.194,0,0,0-.114-0.028l-0.029-.283H0.914A0.312,0.312,0,0,0,1,26.253a0.738,0.738,0,0,0,.057-0.4l-0.171-.085,0.086-.282a0.328,0.328,0,0,0,.257.028,2.411,2.411,0,0,0,.229-0.509H1.429a0.718,0.718,0,0,1-.943.2A0.662,0.662,0,0,0,.114,24.9,4,4,0,0,1,.057,23.71c0.057-.188.114-0.444,0.2-0.65a1.42,1.42,0,0,0,.229-0.735H0.457v0.028C0.435,22.408.429,22.3,0.429,22.3a0.189,0.189,0,0,0,.029-0.113,0.167,0.167,0,0,1-.171-0.113c0.082-.115,0-0.143-0.057-0.254A0.166,0.166,0,0,0,.4,21.7a0.411,0.411,0,0,0,0-.452l0.171-.028A3.491,3.491,0,0,1,.8,20.517c0.13-.388.19-0.772,0.343-1.13l0.2,0.056a1.089,1.089,0,0,1,.086-0.085l0.543-.028a0.41,0.41,0,0,0,.057-0.085,1.31,1.31,0,0,1,.514,0l0.514-.028a2.153,2.153,0,0,1,.286-0.2,5.457,5.457,0,0,0,.829.141c0.205-.05.457-0.122,0.657-0.17L4.971,19.02c0.022-.012.035-0.128,0.057-0.141H5.314a1.343,1.343,0,0,1,.571-0.056,0.691,0.691,0,0,0,.371.056c0.343-.074.739,0,1.114-0.085a1.492,1.492,0,0,0,.257-0.028l0.057-.113A4.837,4.837,0,0,1,8.371,18.6a2.011,2.011,0,0,1,.4.085V18.342H8.886v0.311l1.2-.085c0.032,0.117.05,0.115,0.2,0.113V18.511h0.029V18.483H10.4l0.371-1.78a1.775,1.775,0,0,0,.143-0.678L10.8,15.883a1.023,1.023,0,0,1-.343.056l-0.143-.169a1.182,1.182,0,0,1,.2-0.876c0.3-.227.706,0.236,0.943,0.283,0-1.627.029-3.273,0.029-4.86V8.706A2.751,2.751,0,0,1,11.514,8h0.029V8.028a1.511,1.511,0,0,1,.029.565v1.441Q11.586,12.648,11.6,15.262ZM0.4,22.354a0.143,0.143,0,0,1,.029.085H0.4V22.354Zm-0.029.085A0.1,0.1,0,0,1,.4,22.5H0.371V22.439ZM0.343,22.5a0.143,0.143,0,0,1,.029.085H0.343V22.5Zm-0.029.085a0.1,0.1,0,0,1,.029.056H0.314V22.58Z" transform="translate(-0.031 0.5)"/>
</svg>
