<?xml version="1.0" encoding="utf-8"?>
<!-- Generator: Adobe Illustrator 16.0.0, SVG Export Plug-In . SVG Version: 6.00 Build 0)  -->
<!DOCTYPE svg PUBLIC "-//W3C//DTD SVG 1.1//EN" "http://www.w3.org/Graphics/SVG/1.1/DTD/svg11.dtd">
<svg version="1.1" id="Layer_1" xmlns="http://www.w3.org/2000/svg" xmlns:xlink="http://www.w3.org/1999/xlink" x="0px" y="0px"
	 width="40px" height="40px" viewBox="0 0 40 40" enable-background="new 0 0 40 40" xml:space="preserve">
<path id="Color_Fill_1" fill="#FFFFFF" d="M9.982,12.535c-0.016-0.407,0.008-0.814,0.072-1.217H10.2c0.312-0.037,0.627-0.037,0.94,0
	l0.072,0.215c0.06,0.109,0.085,0.234,0.072,0.358H11.5V11.6h0.072v-0.068c0.344,0.021,0.688-0.028,1.013-0.143
	c0.335-0.511,0.39-1.157,0.145-1.718h0.434c0.1-0.605,0.025-1.227-0.217-1.79h0.145c0.037,0.058,0.086,0.107,0.145,0.143V7.881
	c-0.22-0.126-0.217-0.151-0.217-0.5c-0.339,0-0.678-0.024-1.013-0.072c-0.04-0.504,0.01-1.012,0.145-1.5
	c-0.3-0.01-0.235-0.124-0.217-0.573c-0.21-0.079-0.441-0.079-0.651,0V4.445h0.072V4.374c0.14,0.047,0.287,0.072,0.434,0.072V4.374
	c-0.064-0.136-0.064-0.293,0-0.429l0.145-0.072c1.042-0.476,2.208-0.601,3.327-0.358c0.02,0.217-0.005,0.437-0.072,0.644h0.51
	c0.018-0.129,0.067-0.252,0.145-0.358v0.072c0.173,0.2,0.061,0.246,0.434,0.286c0.135-0.064,0.286-0.089,0.434-0.072
	c0.075,0.664,0.099,1.332,0.072,2h0.651c0.243-0.012,0.487,0.013,0.723,0.072v1.5c1.382,0,2.446-0.139,3.905-0.143v-0.43
	c0.297,0.043,0.587,0.115,0.869,0.215h1.664c1.004,0.021,2.321,0.067,3.326,0v2c-0.9-0.06-2.085,0-3.183,0V9.6
	c0.269-0.038,0.542-0.014,0.8,0.072c-0.102-0.008-0.203,0.017-0.289,0.072c0.7-0.046,1.023,0.073,1.736,0.072v0.43
	c-1.672-0.021-4.043,0.208-6,0.215c0.017,0.6-0.828,0.47-1.591,0.43c-0.007-0.054-0.033-0.104-0.072-0.143v0.5h-0.518v1h-0.94v0.072
	h0.072c0.424,0.11,0.866,0.134,1.3,0.072v0.358h0.072c0.386-0.064,0.782-0.04,1.157,0.072c0.884,0.15,2.537,0.115,3.038,0.5
	c0.146,0.117-0.051,0.084,0.145,0.143c0.112-0.125,0.268-0.202,0.435-0.215c0.028,0.134,0.152,0.226,0.289,0.215
	c0.471-0.424,1.122-0.585,1.735-0.43c0.088,0.053,0.188,0.079,0.289,0.072c-0.027,0.21-0.117,0.09,0.072,0.215
	c0.059-0.102,0.173-0.158,0.289-0.143v0.215c0.225,0.1,0.404,0.277,0.506,0.5c0.366-0.102,0.758-0.05,1.086,0.144
	c0.213,0.169,0.407,0.361,0.578,0.572c0.59,0.382,1.221,0.694,1.881,0.932c0.095-0.178-0.03-0.049,0.146-0.144
	c-0.006,0.29-0.118,0.171,0.071,0.286c0.47,0.348,0.98,0.637,1.52,0.859V14.9c0.106-0.078,0.231-0.128,0.362-0.144
	c0.024,0.451,0.147,0.892,0.362,1.289c0.112,0.062,0.248,0.062,0.361,0v0.573c0.6,0.144,0.456,0.465,0.94,0.5
	c0.259-0.168,0.479-0.388,0.651-0.645c-0.141-0.062-0.228-0.205-0.218-0.357c0.321-0.13,0.669-0.179,1.013-0.144v0.072
	c0.104,0.031,0.201,0.079,0.289,0.143c-0.109,0.108-0.205,0.229-0.289,0.358c0.5,0.119,0.121,0.289,0.289,0.716
	c0.101,0.102,0.226,0.176,0.362,0.215c0.147,0.313,0.174,0.669,0.072,1c0.917,0.137,1.718,0.69,2.17,1.5
	c0.093-0.038,0.189-0.062,0.289-0.071c0.169,0.68,0.439,1.331,0.8,1.933h-0.146V21.77c-0.286-0.272-0.529-0.586-0.724-0.931h-0.071
	c0.045,2.3-1.508,3.581-3.039,4.725c-1.153,0.862-2.236,2.601-3.616,3.15c-0.992,0.399-3.4,0.144-4.7,0.144H10.922
	c-1.089,0.099-2.188,0.026-3.255-0.216c-0.726-0.329-1.35-0.848-1.808-1.5c-0.177-0.267-0.186-0.752-0.362-1
	c-0.153-0.091-0.328-0.141-0.506-0.143c-0.485-0.238-0.832-0.688-0.94-1.218c0.061-0.036,0.112-0.088,0.149-0.148l-0.579-0.286
	v0.353c0.053,0.086,0.079,0.186,0.072,0.287H3.327L3.4,24.275H3.255c-0.086-0.055-0.187-0.081-0.289-0.076l0.072-0.5L2.1,23.488
	c-0.053-0.26-0.079-0.523-0.075-0.789c0.055-0.066,0.104-0.139,0.145-0.215c-0.268-0.283-0.466-0.626-0.579-1H1.519
	c0.001,0.078-0.024,0.154-0.072,0.215c0.008-0.1-0.018-0.201-0.072-0.285v1.285c0.243,0.054,0.208-0.043,0.289,0.144
	c-0.45,0.226-0.244,1.021-0.217,1.646H1.23v-0.93c-0.41-0.117-0.682-0.506-0.651-0.931c0.398-0.087,0.675-0.451,0.651-0.858
	c-0.06-0.114-0.108-0.234-0.145-0.357c0.286-0.053,0.232-0.008,0.289-0.286c-0.463-0.451-0.424-1.87-0.144-2.649H1.085
	c-0.215,0.201-0.528,0.258-0.8,0.143c-0.078-0.205-0.103-0.426-0.072-0.644c1.2,0.043,0.828-0.655,0.8-1.86h0.144
	c0.063,0.046,0.139,0.07,0.217,0.071v-0.144c-0.103-0.057-0.16-0.17-0.145-0.286c0.088-0.054,0.163-0.127,0.217-0.215
	c-0.127-0.061-0.248-0.132-0.362-0.216V15.04c-0.144-0.121-0.32-0.196-0.506-0.216C0.335,14.611,0.227,14.269,0,14.037
	c0.212-1.354,0.025-1.01,0.94-1.86c0.856-0.026,1.641,0.053,1.953,0.859c0.031,0.218,0.079,0.433,0.145,0.644
	c0.174-0.247,0.431-0.424,0.723-0.5v-0.073l-0.434-0.072c0.008-0.095,0.008-0.191,0-0.286c0.292-0.239,0.538-0.53,0.723-0.859
	c0.055,0.007,0.106,0.033,0.145,0.072c0.09,0.3,0.342,0.522,0.651,0.573C5.19,12.271,5.582,12.076,6,11.962
	c0.278-0.052,0.59,0.23,0.8-0.072c0.155-1.066,0.179-2.148,0.072-3.221V0.221C6.766-0.852,6.79-1.934,6.944-3
	c-0.005,1.36,0,2.4,0,3.651l0.072,1.074c-0.22,1.807-0.22,3.634,0,5.441c0.048,0.499,0.048,1.001,0,1.5
	c0.164,1.137-0.13,2.475,0.072,3.508H7.45c0.325-0.276,0.922,0.069,1.374,0v-0.355C8.928,11.421,8.954,11.007,8.9,10.6V-3h0.142
	v14.819c0.06,0.109,0.085,0.234,0.072,0.358C9.346,12.405,9.657,12.533,9.982,12.535z M12.514,3.944l-0.072,0.143h0.072
	c0.011,0.1,0.072,0.072,0.072,0.072V3.944H12.514z M15.48,5.59c-0.189,0.063-0.382,0.11-0.579,0.143v0.072h0.217
	c0.254-0.018,0.5-0.091,0.723-0.215H15.48L15.48,5.59z M16.059,5.59c0.044,0.08,0.125,0.134,0.217,0.143V5.662h0.072V5.591
	L16.059,5.59L16.059,5.59z M13.166,6.163c0.002-0.123,0.026-0.244,0.072-0.358h-0.507c-0.105,0.182,0.016,0.081-0.217,0.143
	c-0.036-0.079-0.085-0.152-0.145-0.215v0.5h0.145C12.722,6.156,12.945,6.132,13.166,6.163L13.166,6.163z M16.421,5.877
	c-0.04,0.038-0.09,0.063-0.145,0.071V6.02h0.217V5.949h0.072C16.525,5.91,16.475,5.885,16.421,5.877L16.421,5.877z M12.443,7.452
	c0.196,0.107,0.368,0.253,0.506,0.429H12.8c-0.149-0.115-0.272-0.262-0.359-0.429H12.443z M22.063,8.452V8.168
	c-0.389,0.004-0.777,0.052-1.156,0.143v0.072h0.867c0.087,0.053,0.188,0.078,0.289,0.071V8.452z M21.991,9.311V9.1
	C21.46,9.051,20.925,9.075,20.4,9.172v0.072h0.07c0.497,0.121,1.013,0.144,1.52,0.069L21.991,9.311z M24.591,9.311
	c-1.474-0.009-2.35,0.206-3.834,0.215V9.6H20.9c0.418,0.262,2.912,0.079,3.617,0.072V9.6h0.071V9.313L24.591,9.311z M19.091,9.526
	c0.181,0.098,0.398,0.098,0.579,0H19.1H19.091z M17.644,10.385c0.04,0.039,0.09,0.064,0.145,0.072
	c-0.039-0.037-0.087-0.062-0.14-0.07L17.644,10.385z M20.465,10.457c0.124,0.063,0.092,0.063,0.217,0H20.47H20.465z M17.5,12.964
	c-0.009-0.201,0.042-0.4,0.145-0.573L17.5,11.318h-0.068v0.072c-0.065,0.133-0.09,0.283-0.072,0.43L17,11.747V11.6
	c0.105-0.145,0.157-0.321,0.145-0.5h-0.074c-0.209,0.206-0.315,0.495-0.289,0.787c0.291,0.072,0.434,0.207,0.723,0.286v0.147
	c-0.258-0.027-0.489,0.161-0.516,0.419c-0.005,0.051-0.002,0.104,0.01,0.153C17.161,12.943,17.33,12.967,17.5,12.964z
	 M17.717,11.246c-0.008,0.101,0.018,0.202,0.072,0.286c0.01-0.1-0.014-0.201-0.067-0.286H17.717z M10.484,11.532
	c-0.1-0.008-0.197-0.033-0.289-0.072v0.14c-0.1,0.211-0.072,0.46,0.072,0.644h0.072v-0.067c0.138-0.185,0.192-0.418,0.149-0.645
	H10.484z M10.773,11.532c-0.073,0.239-0.047,0.497,0.072,0.716h0.146c0.052-0.187,0.076-0.38,0.072-0.573v-0.143h-0.284H10.773z
	 M16.773,12.463c0.186-0.023,0.361-0.098,0.506-0.215c-0.153-0.121-0.324-0.217-0.506-0.286V12.463L16.773,12.463z M1.438,12.033
	c0.102-0.008,0.203,0.017,0.289,0.072c-0.099,0.007-0.196-0.019-0.28-0.071L1.438,12.033z M7.884,12.32
	c0.159,0.144,0.39,0.172,0.579,0.072L7.884,12.32z M4.05,12.392c-0.099,0.092-0.151,0.223-0.145,0.358
	c0.116,0.043,0.238,0.067,0.362,0.072v-0.144c0.051-0.111,0.009-0.01,0-0.215L4.05,12.392z M16.636,12.464
	c-0.019,0.147,0.006,0.297,0.072,0.43c0.02-0.147-0.005-0.297-0.071-0.431L16.636,12.464z M28.064,14.54
	c-0.023,0.1,0.101,0.1,0.146,0.143C28.26,14.605,28.085,14.561,28.064,14.54L28.064,14.54z M28.282,14.683v0.144l0.288,0.143
	C28.51,14.844,28.408,14.742,28.282,14.683L28.282,14.683z M2.17,14.826c-0.049,0.048-0.38,0.209-0.289,0.357
	C2.041,15.133,2.154,14.992,2.17,14.826z M33.418,16.9V16.47h-0.073c-0.146,0.093-0.229,0.258-0.217,0.431
	c0.329,0.086,0.461,0.264,0.8,0.357c0.008-0.055,0.033-0.104,0.072-0.143v-0.143h-0.148C33.717,16.908,33.566,16.883,33.418,16.9z
	 M1.518,21.699c0.147,0.264,0.173,0.576,0.072,0.859L1.518,21.699z M1.156,22.416c-0.045,0.08-0.126,0.134-0.217,0.143v0.072h0.218
	c0.029-0.165,0.067-0.08,0-0.217L1.156,22.416z M1.662,22.559c0.039,0.039,0.063,0.089,0.072,0.143h-0.07v-0.145L1.662,22.559z
	 M0.94,23.13c0.086,0.084,0.184,0.156,0.289,0.215v-0.146H1.157V23.13H0.94z M3.54,23.917c0.1,0.103,0.225,0.177,0.362,0.215
	c-0.083-0.12-0.213-0.198-0.358-0.215H3.54z M4.263,24.775c-0.023,0.2-0.076,0.148,0,0.286v0.144H4.34v-0.43H4.268H4.263z
	 M35.221,24.848c-0.466,0.27-0.983,0.44-1.519,0.5c0.078,0.306,0.078,0.625,0,0.932h0.146c0.412-0.549,0.928-1.011,1.519-1.36
	c-0.038-0.038-0.087-0.063-0.14-0.071H35.221z M10.628,25.277c0.059,0.102,0.173,0.158,0.289,0.144
	c0.152-0.091,0.573-0.05,0.723-0.144h-1.007H10.628z M12.436,25.277c-0.145,1.479-0.8,1.7-1.447,2.577h3.978v-0.071
	c-0.762-0.588-1.08-1.586-0.8-2.506h-1.726H12.436z M14.895,25.277c-0.055,0.187-0.08,0.38-0.072,0.573
	c0.149,0.101,0.326,0.151,0.506,0.144c0.244-0.068,0.435-0.258,0.506-0.5c-0.039-0.039-0.064-0.09-0.072-0.144H15.7v-0.073h-0.8
	H14.895z M21.55,25.277c-0.888-0.022-2.047-0.109-2.532,0.286c0.494,0.724-0.592,2-0.868,2.291h4.268v-0.071
	c-0.775-0.403-0.955-1.436-0.863-2.506H21.55z M22.273,25.277c-0.025,0.364-0.121,0.494,0.145,0.645
	c0.301,0.115,0.641-0.007,0.8-0.286c0.035-0.371-0.36-0.396-0.938-0.358H22.273z M27.047,25.277
	c-0.176,0.111-0.373,0.184-0.579,0.215c0.063,0.876-0.253,1.736-0.868,2.362h4.051v-0.071c-0.749-0.597-1.064-1.586-0.799-2.506
	h-1.8H27.047z M29.868,25.277l0.434,0.645h0.078V25.85c0.081-0.043,0.136-0.123,0.146-0.215c-0.108-0.256-0.379-0.404-0.652-0.357
	H29.868z M10.049,25.922v-0.215c-0.178,0.004-0.352,0.053-0.506,0.143v0.072H10.049z M29.507,25.707v0.285l0.293,0.072v-0.072
	c-0.12-0.092-0.166-0.192-0.288-0.285H29.507z M32.834,25.707c-0.091,0.059-0.188,0.106-0.289,0.143v0.072h0.145
	c0.092-0.059,0.188-0.106,0.289-0.143c-0.037-0.038-0.086-0.063-0.14-0.072H32.834z M18.223,25.779
	c-0.108,0.074-0.232,0.123-0.362,0.143v0.072h0.289c0.04-0.039,0.09-0.064,0.145-0.072v-0.143h-0.067H18.223z M25.602,25.779
	c-0.079,0.076-0.181,0.127-0.289,0.143v0.072h0.289c0.036-0.059,0.086-0.107,0.145-0.144c-0.038-0.038-0.087-0.063-0.141-0.071
	H25.602z M10.556,25.851c0.042,0.141,0.042,0.29,0,0.431c-0.2,0.429-0.869,0.354-1.085,0.787c0.074,0.133,0.124,0.278,0.145,0.43
	c0.08,0.035,0.153,0.084,0.217,0.143c0.704-0.086,1.281-0.6,1.447-1.289c-0.226-0.188-0.466-0.355-0.719-0.502L10.556,25.851z
	 M7.012,26.351c-0.038,0.091-0.063,0.188-0.072,0.286c0.287,0.282,0.973,1.129,1.447,0.932c0.208-0.08,0.133-0.013,0.217-0.216
	C8.68,27.248,8.73,27.127,8.752,27c-0.551-0.285-1.133-0.503-1.736-0.649H7.012z M15.837,26.494c-0.062,0.046-0.227,0.1-0.289,0.143
	c-0.276,0.09-0.283,0.145-0.289,0.5c0.207,0.224,0.496,0.353,0.8,0.357c0.125-0.268,0.175-0.564,0.145-0.858
	c-0.107-0.077-0.232-0.126-0.363-0.142H15.837z M17.067,26.494c-0.131,0.292-0.157,0.621-0.072,0.931
	c0.14,0.048,0.286,0.072,0.434,0.071c0.18-0.102,0.33-0.25,0.434-0.428c0.046-0.063,0.072-0.139,0.072-0.216
	c-0.06-0.063-0.108-0.136-0.145-0.215L17.067,26.494z M23.288,26.494c-0.134,0.092-0.38,0.115-0.506,0.215
	c-0.097,0.094-0.149,0.224-0.146,0.357c0.219,0.256,0.532,0.411,0.868,0.43c0.122-0.244,0.172-0.517,0.146-0.787
	c-0.039-0.039-0.064-0.089-0.072-0.143h-0.07v-0.072h-0.217H23.288z M24.518,26.494c-0.125,0.268-0.174,0.564-0.145,0.858
	c0.148,0.101,0.326,0.151,0.506,0.144c0.188-0.124,0.338-0.297,0.434-0.5h0.072c0.072-0.072-0.07-0.071-0.072-0.072
	c-0.012-0.154-0.135-0.275-0.289-0.286c-0.152-0.089-0.325-0.138-0.502-0.144H24.518z M31.824,26.494
	c-0.118,0.219-0.169,0.468-0.145,0.716c0.038,0.038,0.063,0.089,0.071,0.143l0.217,0.072c0.093,0.035,0.196,0.035,0.289,0
	c0.151-0.113,0.276-0.259,0.365-0.425c0.046-0.063,0.071-0.138,0.071-0.215c-0.059-0.064-0.107-0.137-0.145-0.215L31.824,26.494z
	 M30.739,26.566c0.039,0.038,0.09,0.063,0.145,0.071c-0.038-0.038-0.089-0.063-0.143-0.071H30.739z M30.16,26.709
	c-0.102,0.146-0.152,0.322-0.145,0.5c0.22,0.203,0.5,0.329,0.799,0.357c0.06-0.104,0.133-0.201,0.218-0.285v-0.143h-0.074
	c-0.092,0.102-0.239,0.131-0.362,0.072c-0.181-0.143-0.251-0.361-0.433-0.502H30.16z"/>
</svg>
