<svg xmlns="http://www.w3.org/2000/svg" width="40" height="40" viewBox="0 0 40 40">
  <defs>
    <style>
      .cls-1 {
        fill: #fff;
        fill-rule: evenodd;
      }
    </style>
  </defs>
  <path id="Color_Fill_1" data-name="Color Fill 1" class="cls-1" d="M4.936,10a0.143,0.143,0,0,1,0,.2V10Zm0.051,0.3a0.2,0.2,0,0,1,0,.249V10.3ZM24.02,14.577h5.5c0.914,0,1.761.056,2.6,0v0.8c-2.482-.139-5.437,0-8.092,0v2.239h0.051v-0.1a1.494,1.494,0,0,0,.153-0.5h0.1l1.679,0.2a1.788,1.788,0,0,0,.2-0.149,13.145,13.145,0,0,1,1.628.2,0.637,0.637,0,0,1,.865-0.448,0.185,0.185,0,0,1-.1.05l-0.407.2v0.05h0.153a0.238,0.238,0,0,0,.051.149,1.057,1.057,0,0,0,.407.2,0.316,0.316,0,0,1,.051-0.2v0.05a0.331,0.331,0,0,1,.051.2,1.581,1.581,0,0,1,1.578,1.045c1.907,0.077,3.839.1,5.954,0.1a31.291,31.291,0,0,0,3.562-.1v0.5c-1.314-.1-3.086-0.1-4.682-0.1a11.986,11.986,0,0,0-2.239.05c-0.711.158-1.877-.242-2.341,0.1h0.1a0.8,0.8,0,0,0,.662.348c0.05,0.251.13,0.251,0,.448,0.75,0.04.9,0.728,1.629,0.547a3.236,3.236,0,0,0,1.018.6c0-.153-0.059-0.122.051-0.249l0.1,0.05c0.078-.138-0.1-0.084.051-0.149a1.242,1.242,0,0,0,.712-0.647h0.051V20.1a0.523,0.523,0,0,1,.356.4c-0.178.134-.294,0.347-0.458,0.5a0.169,0.169,0,0,0,.051.1,0.277,0.277,0,0,0,.2.149c0.088-.066.082-0.086,0.153-0.05,0.077,0.1-.032.2,0.255,0.249a2.442,2.442,0,0,1,1.578-.3,1.245,1.245,0,0,0,.2.249,6.849,6.849,0,0,1,0,1.592,1.667,1.667,0,0,0-.2.448c-0.165.041-.078-0.024-0.153,0.1a1.553,1.553,0,0,1,.305.149,0.169,0.169,0,0,1-.051.1,0.511,0.511,0,0,0-.255.348c0.633,0.516.316,1.966-.051,2.488a3.939,3.939,0,0,1-1.832,1.045c-1.526.649-3.1,1.394-4.631,2.04-0.727.306-1.591,0.01-2.494,0.2a11.224,11.224,0,0,1-1.985.05H12.57c-0.933,0-1.944-.039-2.8-0.05a7.667,7.667,0,0,1-1.781-.05,9.239,9.239,0,0,1-2.036-1.244c-0.761-.47-1.566-0.828-2.29-1.343a6.013,6.013,0,0,1-1.12-1.493H2.494v0.05a2.073,2.073,0,0,0-.407.5,2.163,2.163,0,0,0-.2-0.647,0.176,0.176,0,0,0,.1-0.05l-0.153-.1c0,0.157.086,0.067-.051,0.149a0.564,0.564,0,0,1-.1-0.348,1.578,1.578,0,0,1-.662-0.149,0.178,0.178,0,0,1-.051-0.1,1.845,1.845,0,0,1,.814-0.1v-0.1c-0.117-.067-0.093-0.061-0.1-0.1a1.219,1.219,0,0,0,.407-0.448c-0.16-.079-0.51-0.084-0.712-0.149a0.646,0.646,0,0,0,.1-0.4c-0.145.016-.105,0.053-0.2,0a0.308,0.308,0,0,0,.1-0.1,2.406,2.406,0,0,1-.865-0.8c-0.234-.341.15-0.744,0.051-1.144C0.47,21.38.109,21.094,0,20.7a1.063,1.063,0,0,1,.458-0.2,1.714,1.714,0,0,0,.611.945,0.264,0.264,0,0,1,.153-0.05,5.442,5.442,0,0,0,.458.4,2.264,2.264,0,0,1,0,.547H2.087a2.359,2.359,0,0,0,0-.547h-0.1a0.2,0.2,0,0,1-.2.1l0.051-.3c0.317-.062.1-0.107,0.254-0.3l0.2,0.05c0.092-.033.2-0.148,0.305-0.2v-0.05a1.6,1.6,0,0,1-.305-0.249c0.126-.064.035,0.021,0.1-0.1a1.264,1.264,0,0,0-.153-0.4c0.314-.2.658-0.418,0.967-0.647a2.331,2.331,0,0,0,.1-0.249L3.461,19.5a4.673,4.673,0,0,0,.407-0.249,2.338,2.338,0,0,1,1.12-.647,1.517,1.517,0,0,0,.407.448c0.092-.066-0.023-0.082.2-0.1a0.263,0.263,0,0,1,.153-0.05,0.483,0.483,0,0,1-.1.249h0.1a0.259,0.259,0,0,1,.254-0.1c0.035,0.038.067,0.111,0.1,0.149a0.185,0.185,0,0,1,.1-0.05,2.459,2.459,0,0,0,.051-0.547c-0.337-1.573-.394-3.3-0.763-4.826a7.694,7.694,0,0,1-.2-1.94A8.066,8.066,0,0,0,5.6,13.682l0.356,2.488a14.769,14.769,0,0,1,.509,2.736,0.176,0.176,0,0,1,.1.05,0.583,0.583,0,0,1,.305-0.1,0.648,0.648,0,0,0,.56.4C7.837,18.706,8.51,19.2,8.8,19.2a0.33,0.33,0,0,0,.051-0.2,0.675,0.675,0,0,1-.1-0.547H8.8v-0.05c0.822,0.069,1.854-.011,2.748.05a0.238,0.238,0,0,0-.051-0.149,0.185,0.185,0,0,1-.1.05V18.11h0.1a0.169,0.169,0,0,0,.051.1c0.036-.358.437-0.273,0.814-0.249a0.449,0.449,0,0,1,.255-0.05V17.761l-0.458-.05-0.051-.1a1.733,1.733,0,0,0,.763-0.149c-0.165-.041-0.078.024-0.153-0.1H13.13v0.1c-0.126.064-.035-0.021-0.1,0.1h0.305v0.149a2.023,2.023,0,0,0-.458.05v0.1H13.69a0.562,0.562,0,0,1,.305-0.05c0-.14-0.034-0.16.2-0.2,0.118,0.2.116,0.033,0.305,0.149a0.25,0.25,0,0,0-.153.05l1.018-.05a0.292,0.292,0,0,1,.254-0.149v-0.2a1.1,1.1,0,0,1-.763-0.348,1.4,1.4,0,0,1-.153.5H14.657v-0.1a1.3,1.3,0,0,0,.051-1.045h-0.1c-0.086-.049-0.117-0.005-0.2-0.05a1.04,1.04,0,0,1-.407-0.9c-0.553.014-1.161,0-1.73,0H11.5a4.305,4.305,0,0,1-.611.3,2.176,2.176,0,0,0-.56.1h0.051a2.308,2.308,0,0,0,1.221-.05,0.5,0.5,0,0,1,.2.3,0.776,0.776,0,0,1-.2.1l-0.051-.1c-0.115-.171.081-0.16-0.2-0.2a1.716,1.716,0,0,1-1.374-.1,3.9,3.9,0,0,0-.1-0.746H9.517v-0.2H9.822c-0.029-.2.148-0.339,0.153-0.746a3.2,3.2,0,0,1,1.527.348l1.323,0.05a1.174,1.174,0,0,0,.509-0.5,22.515,22.515,0,0,1,2.392-.05,0.192,0.192,0,0,0,.2.149V13.881H15.573c-0.006-.378,0-0.638,0-1.094H16.59v1.095H16.234v0.249c1.285,0.132,3.121-.006,4.478,0v0.2H20.356v0.249h2.8V13.433a0.659,0.659,0,0,1,.2.05,7.473,7.473,0,0,0-.051,1.095H23.97V11.542a3.206,3.206,0,0,1,.051-1.194v4.229ZM5.038,10.6a0.258,0.258,0,0,1,0,.3V10.6Zm0.051,0.3a0.258,0.258,0,0,1,0,.3V10.9Zm0.051,0.3a0.786,0.786,0,0,1,.051.647Zm10.789,3.383v-0.2a14.947,14.947,0,0,1-2.6.1V14.328a1.068,1.068,0,0,0-.407.149v0.05h0.509A17.734,17.734,0,0,0,15.929,14.577Zm0.305,0H20.1V14.328H16.285A0.766,0.766,0,0,0,16.234,14.577Zm-2.8.8a0.151,0.151,0,0,0,.2,0h-0.2Zm1.985,0a2.117,2.117,0,0,0,0,.4c0.08,0.062.026,0.032,0.1,0a0.645,0.645,0,0,0,.051-0.348Zm0.305,0a1.489,1.489,0,0,1-.509,1.045,0.578,0.578,0,0,1,.1.249,1.031,1.031,0,0,0,.509.149,0.267,0.267,0,0,1,0-.2,1.075,1.075,0,0,0,.305,0v-0.05a0.749,0.749,0,0,1-.509-0.149h0.051a0.615,0.615,0,0,1,.509-0.1v0.05h0.051v-0.05h0.051v-0.05c-0.165-.041-0.078.024-0.153-0.1a2.217,2.217,0,0,1,.814.249H17v0.05a1.286,1.286,0,0,0-.509.149,1.047,1.047,0,0,1,.356.05,2.359,2.359,0,0,0,0,1.045H17.15v0.4c1.992,0,4.1-.019,6.005-0.05V16.816h-0.1a0.264,0.264,0,0,1-.153.05V16.517h0.2v-0.05a2.376,2.376,0,0,1-.1-0.846h0.153V15.373C20.72,15.375,17.988,15.52,15.725,15.373Zm7.634,3.085H22.748L22.8,19.005a1.667,1.667,0,0,0-.305.1,1.161,1.161,0,0,0,.814.149,1.039,1.039,0,0,1-.051.348,0.4,0.4,0,0,0,.255.1h0.051a0.436,0.436,0,0,1-.153-0.3h0.051a0.189,0.189,0,0,0,.1.149v-0.1a0.329,0.329,0,0,0,.051-0.2,0.547,0.547,0,0,1-.305-0.05,0.882,0.882,0,0,0,.305-0.05l0.051-.4a0.732,0.732,0,0,0-.2-0.05,0.205,0.205,0,0,1-.2.1v-0.1a1.2,1.2,0,0,1,.407-0.1,0.2,0.2,0,0,0,.153.1c0.073-.99.148-2.163,0.153-3.333H23.308v0.05a1.683,1.683,0,0,1,0,.846C23.282,17.017,23.359,17.777,23.359,18.458Zm-9.211-3.035v0.4h0.1a0.359,0.359,0,0,0,.153-0.348h0.051v-0.05H14.148ZM14.5,16.169h0.153v-0.2c-0.126-.064-0.035.021-0.1-0.1H14.5v0.3Zm-0.153-.249a0.268,0.268,0,0,0,0,.2H14.4v-0.2H14.351Zm0.916,0a0.521,0.521,0,0,0-.1.249h0.051a0.184,0.184,0,0,1,.1-0.05l0.051-.149Zm1.069,0.348c0.084,0.056.054,0.088,0.1,0h-0.1Zm-1.73,1.294c0.063,0.078.033,0.025,0,.1-0.011.02-.037,0.1-0.1,0.05Zm-1.018.9v0.149c0.314-.015.644,0,1.069,0V18.458H13.588Zm1.578,0a1.717,1.717,0,0,0,1.323.05H16.234A2.837,2.837,0,0,0,15.165,18.458Zm4.224,0.149V18.458c-0.486-.012-2.244-0.095-2.392.149h0.611A8.994,8.994,0,0,1,19.389,18.607Zm0.509-.149v0.149c0.865,0,1.5,0,2.341,0V18.458H19.9Zm-9.72.547v0.1c0.126,0.064.035-.021,0.1,0.1a0.178,0.178,0,0,0,.051-0.1c0.126-.064.035,0.021,0.1-0.1H10.178Zm4.173,0v0.249a1.629,1.629,0,0,0,.509-0.05v-0.05H14.809c-0.074-.127.011-0.056-0.153-0.1A0.562,0.562,0,0,0,14.351,19.005Zm0.662,0.05v0.2h0.916V19.005A7.2,7.2,0,0,0,15.013,19.055Zm3.257-.05v0.249h0.407a0.384,0.384,0,0,1,.255-0.2v-0.05H18.27Zm-6.718.05a0.545,0.545,0,0,0,.1.149v-0.05l0.1-.05v-0.05h-0.2Zm4.478,0.1v0.1H17v-0.1H16.031Zm1.12,0v0.1H17.2A0.169,0.169,0,0,0,17.15,19.154Zm0.814,0v0.1h0.153v-0.1H17.964Zm3.206,0v0.1h0.916v-0.1H21.171ZM5.445,19.2c0.084,0.055.054,0.088,0.1,0h-0.1Zm0.305,0.945A1.775,1.775,0,0,0,5.6,20.3H5.547v0.05H5.8a0.142,0.142,0,0,1,.051-0.05A0.544,0.544,0,0,0,5.751,20.149ZM5.394,20.4c0.02,0.13-.038.065,0.1,0.1a0.143,0.143,0,0,1,.051-0.05V20.4H5.394Zm-0.153.1a0.185,0.185,0,0,1-.1.05V20.6H5.293A0.169,0.169,0,0,0,5.242,20.5Zm27.481,0.05a6.5,6.5,0,0,0,1.374.9,0.178,0.178,0,0,0,.051-0.1H34.1A2.072,2.072,0,0,0,33.13,20.6v0.1l0.407,0.2v0.05H33.384A2.877,2.877,0,0,0,32.723,20.547Zm1.272,0.547c-0.017.069,0.072,0.072,0.1,0.1C34.132,21.141,34.009,21.11,33.995,21.095Zm2.7,0.149c-0.15.1-.42,0.092-0.56,0.2a2.278,2.278,0,0,1,.305.1l0.458-.1,0.051,0.149h0.407v-0.05a0.583,0.583,0,0,0-.255-0.249A0.822,0.822,0,0,0,36.692,21.244Zm-32.926.249a3.805,3.805,0,0,0-.56.5h0.1c0.049,0.013.019,0.039,0.051,0a1.456,1.456,0,0,0,.509-0.448A0.185,0.185,0,0,0,3.766,21.493Zm32.112,0a0.185,0.185,0,0,0,.1.05A0.185,0.185,0,0,0,35.878,21.493Zm-0.1.05a2.6,2.6,0,0,0-.051.746h0.051v-0.1a1.888,1.888,0,0,0,.305-0.547Zm0.254,0a0.185,0.185,0,0,0,.1.05A0.185,0.185,0,0,0,36.031,21.542Zm-1.527.05a3.248,3.248,0,0,1,.153.348h0.1v-0.2A0.924,0.924,0,0,0,34.5,21.592Zm1.018,0.1a0.238,0.238,0,0,0,.051.149A0.237,0.237,0,0,0,35.522,21.692Zm-0.661.2,0.051,0.149a0.175,0.175,0,0,0,.1-0.05,0.178,0.178,0,0,0,.051-0.1h-0.2Zm1.73,0a0.882,0.882,0,0,0-.305.05l0.1,0.2h0.1A0.52,0.52,0,0,0,36.59,21.891Zm-33.537.249c0.017,0.11-.053.054,0.051,0.1A0.169,0.169,0,0,0,3.053,22.139Zm34.1,0.945a2,2,0,0,1-1.069-.6v0.1H36.031v0.05l0.1-.05v0.05a1.447,1.447,0,0,0,.916.746l0.051-.149A0.25,0.25,0,0,0,37.15,23.085Zm-0.865,2.04a0.416,0.416,0,0,0-.1.149H36.132c-0.05.05,0.05,0.049,0.051,0.05l0.051,0.149h0.1v-0.1C36.416,25.249,36.381,25.209,36.285,25.124Zm-34.249.5v0.1H2.087v-0.1H2.036Zm0.2,0a0.691,0.691,0,0,0-.051.2H2.239a0.448,0.448,0,0,1,.153-0.149v-0.05H2.239Zm33.791,0.149a0.521,0.521,0,0,0-.1.249H35.98v0.05h0.1c0.039-.131.061-0.119,0.1-0.249h0.051v-0.05h-0.2Zm-33.995.1a0.237,0.237,0,0,0,.051.149V25.871H2.036Zm33.333,0.547a2,2,0,0,0,.356-0.1v-0.05c-0.122-.058-0.088-0.1-0.2-0.05l-0.153.05v0.149Zm-0.458-.149a0.785,0.785,0,0,0-.254.2,0.547,0.547,0,0,0,.254.1,0.512,0.512,0,0,0,.1-0.3h-0.1Zm-1.069.4a4.858,4.858,0,0,0-1.628.8c-0.384.155-.757,0.03-0.865,0.448a0.845,0.845,0,0,0-.1.3H31.3a4.7,4.7,0,0,1,.967-0.4c0.442-.189.933-0.459,1.374-0.647a1.522,1.522,0,0,0,.814-0.4,0.835,0.835,0,0,1-.509-0.348H33.893v0.1A0.251,0.251,0,0,0,33.842,26.667Zm-7.125-.05a1.884,1.884,0,0,1-.763.05v0.05c0.607,0.623-.048,1.734-0.305,2.139h2.443v-0.05c-0.66-.483-0.484-1.319-0.356-2.139A3.842,3.842,0,0,0,26.718,26.617Zm-19.9.05H5.9a0.537,0.537,0,0,0-.254.547,8.4,8.4,0,0,1,1.272.746,1.871,1.871,0,0,1-.051-0.8,0.836,0.836,0,0,0,.1-0.2H6.87Zm8.855,0.1a2.325,2.325,0,0,1-.407,2.089h2.544v-0.05a1.853,1.853,0,0,1-.407-2.04h-1.73Zm-10.382.149v0.1l0.153,0.05A0.257,0.257,0,0,0,5.293,26.915Zm5.649,0.8c-0.086.107-.288,0.14-0.356,0.249l-0.051.3a5.566,5.566,0,0,1-.407.6h2.392v-0.05a3.619,3.619,0,0,1-.509-0.945c-0.058-.064-0.192-0.086-0.255-0.149H10.942Zm10.382,0c-0.081.1-.295,0.15-0.356,0.249l-0.051.348c-0.094.182-.292,0.371-0.407,0.547H22.9v-0.05C22.154,28.213,22.934,27.681,21.323,27.711Z" transform="translate(0 0.016)"/>
</svg>
