<?xml version="1.0" encoding="utf-8"?>
<!-- Generator: Adobe Illustrator 16.0.0, SVG Export Plug-In . SVG Version: 6.00 Build 0)  -->
<!DOCTYPE svg PUBLIC "-//W3C//DTD SVG 1.1//EN" "http://www.w3.org/Graphics/SVG/1.1/DTD/svg11.dtd">
<svg version="1.1" id="Layer_1" xmlns="http://www.w3.org/2000/svg" xmlns:xlink="http://www.w3.org/1999/xlink" x="0px" y="0px"
	 width="39.969px" height="40px" viewBox="0 0 39.969 40" enable-background="new 0 0 39.969 40" xml:space="preserve">
<path id="germ_pzkpfw_vi_ausf_b_tiger_iih_kwk46_ico" fill="#FFFFFF" d="M3.835,17.845c0.778,0,1.613-0.021,2.424-0.022
	c0.042,0.101,0.102,0.194,0.176,0.273v0.021h0.132c0.333-0.288,0.792-0.383,1.212-0.251v0.022c0.115,0.146,0.268,0.256,0.441,0.32
	c0.278-0.026,0.558-0.034,0.837-0.023v-0.454H7.008c-0.346,0.034-0.694,0.018-1.036-0.046l0.066-0.16
	c-0.152-0.045-0.27-0.167-0.309-0.32c0.036-0.055,0.06-0.117,0.071-0.182h0.11C5.929,17.008,5.952,17,5.976,17
	c0.021-0.086,0.05-0.17,0.088-0.251c0-0.054-0.008-0.108-0.022-0.16c0.038-0.156,0.089-0.31,0.154-0.457l0.11-0.069l0.132-0.411
	c-0.079,0.013-0.155-0.037-0.176-0.114c0.065,0.015,0.132,0.023,0.2,0.023c0.031-0.064,0.068-0.125,0.11-0.183
	c0.07-0.025,0.146-0.033,0.22-0.023c-0.008-0.093,0.061-0.175,0.154-0.183c0.007,0,0.015,0,0.021,0
	c0.048-0.022,0.102-0.03,0.154-0.023c-0.022-0.083-0.014-0.172,0.022-0.251c0.011-0.049,0.043-0.091,0.088-0.114
	c0.081-0.045,0.173-0.061,0.264-0.046c0.029,0.041,0.084,0.053,0.11,0.091c0.016,0.084,0.054,0.163,0.11,0.228
	c0.236-0.071,0.481-0.109,0.727-0.114c0.221-0.055,0.505-0.081,0.727-0.137l0.264-0.023c0.019-0.04,0.041-0.077,0.066-0.113
	c0.093-0.026,0.189-0.042,0.286-0.046V14.51l0.264-0.023v0.091c0.191-0.023,0.236-0.119,0.441-0.137
	c0.294,0.349,0.369-0.063,0.6-0.183c0-0.231,0.061-0.274,0.066-0.48l1.432-0.023l0.022-0.114c0.028-0.012,0.058-0.02,0.088-0.023
	c0.012,0.012,0.027,0.02,0.044,0.023c0.195,0.148,0.45,0.19,0.683,0.114c0.137,0.037,0.279,0.044,0.419,0.023
	c0.021,0.09,0.028,0.182,0.022,0.274c-0.024,0.066-0.031,0.137-0.022,0.206c0.326,0.153,0.09,0.3,0.661,0.3
	c0.081,0.045,0.172,0.069,0.264,0.069c0.02-0.072,0.049-0.142,0.088-0.206c0.26,0.098,0.539,0.137,0.815,0.114v0.32l0.176-0.023
	c0.037,0.04,0.067,0.086,0.088,0.137l0.771,0.206c0.017-0.112,0.081-0.211,0.176-0.274c0.051-0.006,0.103-0.006,0.154,0
	c0.162,0.036,0.264,0.196,0.229,0.358c-0.002,0.01-0.005,0.02-0.009,0.03c-0.006,0.022-0.017,0.009,0,0.023
	c0.175,0.128,0.38,0.207,0.595,0.228v-0.07h0.066c-0.004,0.085,0.028,0.168,0.088,0.229c0.061,0.036,0.13,0.052,0.2,0.046v-0.206
	c0.206,0.009,0.326,0.053,0.529,0.046c0.077,0.193,0.256,0.326,0.463,0.343c0.201,0.05,0.41,0.066,0.617,0.046l0.836,0.023
	c0.177-0.017,0.354-0.017,0.529,0c0.02,0.028,0.034,0.059,0.045,0.091c-0.027,0.018-0.051,0.041-0.066,0.069h0.705
	c0.358,0.04,0.72,0.048,1.08,0.022c0.277,0.063,0.664-0.045,0.97,0.023c0.271,0.06,0.649-0.043,0.948,0.023
	c0.233,0.029,0.47,0.037,0.705,0.023h1.277c0,0.025,0.008,0.049,0.022,0.069c0.284,0.045,0.573,0.053,0.86,0.023h2.291
	c0.217,0.049,0.441,0.057,0.662,0.023h1.74l4.055,0.022c0.627,0.067,1.26,0.029,1.873-0.114c0.105,0.003,0.209,0.019,0.31,0.046
	c0.206-0.046,0.3-0.175,0.507-0.206c0.206,0.141,0.458,0.199,0.705,0.16c0.157,0.276,0.157,0.615,0,0.891h-0.51
	c-0.072,0.085-0.176,0.135-0.287,0.137c-0.219-0.153-0.483-0.226-0.749-0.206h-0.353c-0.746-0.085-1.498-0.101-2.248-0.046
	l-8.881,0.046v0.091c-1.877,0-3.777,0.006-5.664,0.091v0.023c0.051,0.036,0.047,0.037,0.045,0.069
	c-0.042,0.037-0.072,0.084-0.089,0.137c-0.435,0-0.956-0.023-1.477-0.023c-0.223-0.024-0.448,0-0.661,0.069
	c-0.069,0.138-0.187,0.246-0.331,0.3c-0.076-0.038-0.166-0.038-0.242,0c0.016-0.114-0.016-0.23-0.088-0.32
	c-0.017,0.015-0.049,0.03-0.066,0.046c-0.019,0.035-0.026,0.074-0.022,0.114c0.031,0.112,0.045,0.227,0.044,0.343
	c0.54,0,0.631-0.114,1.19-0.114h0.529c0.048,0.049,0.1,0.095,0.154,0.137c0.038,0.02,0.084,0.005,0.104-0.032
	c0.002-0.005,0.004-0.01,0.006-0.015c0.083-0.001,0.166,0.014,0.242,0.046v-0.121l0.176-0.023c0-0.025,0.008-0.049,0.022-0.069
	c0.263-0.043,0.528-0.05,0.793-0.022v0.137h0.022c0.078-0.027,0.16-0.035,0.242-0.023c0.119,0.136,0.254,0.258,0.399,0.365
	c0.068-0.006,0.136-0.021,0.2-0.046c0.143-0.01,0.287,0.013,0.419,0.069c0.21,0.092,0.3,0.319,0.485,0.411v-0.09
	c-0.015-0.021-0.022-0.045-0.022-0.069c0.024,0.001,0.048-0.008,0.065-0.023c0.154-0.244,0.041-0.267,0.464-0.251v0.069
	c0.024,0,0.048,0.008,0.065,0.023c0.068,0.109,0.092,0.24,0.066,0.365c-0.029,0.024-0.053,0.056-0.066,0.092H23.78v0.066h-0.089
	v0.046c0.018,0.027,0.024,0.06,0.022,0.091l0.64,0.023v0.113c-0.258-0.012-0.516-0.004-0.771,0.023v0.184
	c0.7-0.066,1.385,0.237,1.807,0.8c0.202,0.206,0.354,0.456,0.441,0.73c-0.037,0.071-0.061,0.148-0.066,0.229
	c0.043,0.07,0.072,0.147,0.088,0.228c-0.021,0.078-0.008,0.071-0.088,0.092c-0.019-0.016-0.042-0.023-0.065-0.023v0.046
	c0.014,0.083,0.014,0.168,0,0.251c-0.019,0.012-0.033,0.027-0.044,0.046c-0.157-0.048-0.321-0.071-0.485-0.069l-0.022,0.252
	c0.031,0.011,0.062,0.026,0.088,0.045c-0.02,0.043-0.027,0.091-0.021,0.138c-0.091,0.02-0.082-0.017-0.088,0.114
	c-0.064,0.092-0.117,0.193-0.154,0.3h0.066c-0.01,0.054-0.024,0.108-0.044,0.159h-0.067v-0.023H24.9v0.023
	c-0.091,0.073-0.172,0.157-0.242,0.25c-0.04,0.101,0.091,0.113-0.088,0.184c-0.014-0.025-0.038-0.043-0.066-0.046
	c-0.111,0.073-0.208,0.167-0.287,0.274h0.022c0.011,0.063-0.013,0.026-0.044,0.045c-0.018,0.033-0.053,0.051-0.088,0.047
	c-0.014-0.025-0.038-0.043-0.066-0.047c-0.111,0.064-0.215,0.141-0.309,0.229c-0.033,0.039,0.025,0.029-0.045,0.068
	c-0.02,0.025-0.042,0.048-0.065,0.07c-0.042-0.02-0.087-0.035-0.132-0.047c-0.097,0.083-0.209,0.146-0.331,0.184
	c0.007,0.064,0.022,0.047,0,0.091c-0.028,0.033-0.067,0.058-0.11,0.069c-0.017-0.033-0.052-0.051-0.088-0.047
	c-0.134,0.047-0.25,0.135-0.331,0.252c0.005,0.021,0.017,0.008,0,0.022c-0.04,0.035-0.085,0.065-0.132,0.091
	c-0.004-0.034-0.02-0.066-0.044-0.091c-0.106,0.098-0.235,0.168-0.375,0.206c0.007,0.064,0.022,0.047,0,0.091
	c-0.106,0.079-0.113-0.022-0.22,0c-0.102,0.033-0.197,0.079-0.287,0.138c-0.018,0.063-0.057,0.12-0.11,0.159
	c-0.09,0.017-0.048-0.055-0.088-0.069L21,24.902v0.091c-0.156-0.054-0.32-0.077-0.484-0.069c-0.059,0.012-0.088,0.118-0.201,0.069
	L20.3,24.925c-0.13-0.035-0.266-0.043-0.4-0.022c-0.025,0.095-0.039,0.093-0.154,0.091v-0.068H19.7
	c-0.113-0.042-0.233-0.058-0.353-0.046c-0.005,0.01-0.013,0.018-0.022,0.023v0.068h-0.151c-0.005-0.01-0.013-0.018-0.022-0.022
	v-0.069h-0.4v0.069c-0.066,0.008-0.133-0.019-0.176-0.069H18.16v0.069h-0.154v-0.069h-0.441v0.069c-0.06,0.008-0.121,0-0.176-0.023
	v-0.046H16.97v0.069c-0.06,0.008-0.12,0-0.176-0.023v-0.046h-0.419v0.069c-0.059-0.002-0.114-0.026-0.154-0.069h-0.4l-0.022,0.069
	H15.78c-0.134,0.032-0.1-0.05-0.132-0.069h-0.419v0.069h-0.155v-0.069h-0.4c-0.043,0.051-0.109,0.077-0.176,0.069v-0.069h-0.415
	v0.069c-0.168-0.009-0.083-0.032-0.155-0.069c-0.193-0.022-0.39,0.001-0.573,0.069v-0.069h-0.44v0.069
	c-0.192-0.07-0.397-0.094-0.6-0.069v0.046c-0.056,0.023-0.116,0.031-0.176,0.023v-0.069H11.7v0.069h-0.152v-0.069h-0.374
	c-0.068,0.038,0.013,0.059-0.154,0.069v-0.069h-0.4v0.069c-0.168-0.067-0.35-0.091-0.529-0.069
	c-0.067,0.038,0.013,0.061-0.154,0.069v-0.069h-0.4v0.069c-0.168-0.009-0.089-0.032-0.154-0.069h-0.4v0.069H8.837v-0.069h-0.4v0.069
	h-0.15v-0.069H7.89v0.069H7.736v-0.093H7.361v0.023H7.339v0.069h-0.11c-0.052-0.101-0.13-0.101-0.287-0.091
	c-0.033-0.02-0.072-0.027-0.11-0.023v0.021H6.81v0.069H6.656c0.002-0.031,0.01-0.062,0.021-0.091h-0.4
	c-0.016,0.059-0.077,0.093-0.136,0.076c-0.006-0.002-0.012-0.004-0.018-0.008L6.1,24.833c-0.113-0.046-0.232-0.077-0.353-0.091
	c-0.034,0.039-0.081,0.063-0.132,0.068c-0.017-0.016-0.049-0.029-0.066-0.045c0.015-0.021,0.022-0.045,0.022-0.069l-0.4-0.091
	c-0.007,0.041-0.045,0.071-0.088,0.068c-0.028-0.016-0.051-0.04-0.066-0.068c0.016-0.035,0,0,0-0.069
	c-0.09-0.024-0.178-0.054-0.264-0.091c-0.118-0.026-0.132,0.087-0.242,0c0.011-0.055,0.036-0.028-0.021-0.069
	c-0.091-0.065-0.198-0.104-0.309-0.114c-0.009,0.033-0.034,0.059-0.066,0.069c-0.014-0.015-0.042-0.03-0.059-0.046
	c-0.013-0.036-0.036-0.068-0.066-0.092c-0.122-0.086-0.271-0.126-0.419-0.113c-0.04-0.008-0.077-0.023-0.11-0.046
	c-0.008-0.032,0-0.066,0.022-0.091c-0.082-0.107-0.231-0.127-0.308-0.252c-0.027,0.02-0.056,0.035-0.088,0.045
	C3.065,23.702,3.011,23.675,3,23.646l0.044-0.092C3.03,23.536,2.813,23.288,2.8,23.28c-0.031,0.04-0.088,0.05-0.132,0.022
	c-0.028-0.045-0.065-0.084-0.11-0.113c-0.02,0.019-0.042,0.033-0.066,0.045c-0.002-0.017-0.01-0.033-0.022-0.045
	c0.014-0.031,0.036-0.057,0.064-0.073c0.039-0.07-0.056-0.075-0.044-0.138l0.044-0.022c-0.009-0.068-0.009-0.138,0-0.206L2.6,22.732
	c0.014-0.068,0.021-0.137,0.022-0.207h0.067c0.019-0.105,0.026-0.213,0.022-0.319c-0.022-0.082-0.059-0.159-0.11-0.228
	c-0.038-0.004-0.075-0.012-0.11-0.023c0.018-0.044,0.025-0.092,0.021-0.139c-0.085-0.207-0.2-0.237-0.507-0.229
	c-0.01,0.061-0.068,0.102-0.129,0.092c-0.001,0-0.002,0-0.003-0.001c-0.012-0.061-0.043-0.116-0.088-0.159
	c-0.208,0.156-0.429,0.293-0.661,0.41c-0.034,0.074-0.079,0.145-0.132,0.206c-0.033-0.023-0.07-0.04-0.11-0.046v-0.02
	c0.03-0.043,0.015-0.107,0.044-0.16c0.116-0.11,0.22-0.232,0.309-0.365c-0.11-0.125,0.016-0.146-0.022-0.3
	c-0.208-0.274-0.303-0.617-0.264-0.959c0.107-0.009,0.136-0.036,0.242-0.046l-0.022-0.32H1.146C1.1,19.959,1.1,19.966,1.058,19.946
	c-0.019-0.018-0.025-0.029-0.044-0.046c0.048-0.047,0.119-0.074,0.088-0.138c-0.006-0.101-0.078-0.185-0.176-0.206
	c-0.076-0.041-0.158-0.071-0.243-0.091c0.008,0.176,0,0.351-0.022,0.525c-0.028,0.003-0.053,0.021-0.066,0.046H0.573v-0.021
	C0.5,19.973,0.5,19.95,0.507,19.832c-0.035-0.143-0.042-0.289-0.022-0.434c-0.06-0.011-0.119-0.026-0.176-0.047v-0.045
	c-0.038-0.111-0.038-0.232,0-0.344c0.05-0.133,0.193-0.117,0.242-0.251H0.529C0.338,18.586,0.161,18.441,0,18.279
	c0.015-0.102,0.071-0.192,0.154-0.251c0.141,0.074,0.289,0.136,0.441,0.183c0.111,0.101,0.208,0.216,0.287,0.343
	c0.152-0.127,0.314-0.242,0.485-0.343h0.55v-0.095h0.044v0.091H2.05v-0.065c0.098-0.03,0.16-0.125,0.15-0.226h1.062v0.137
	c0.084,0.029,0.086,0.046,0.088,0.16h0.066c0.157-0.159,0.271-0.355,0.331-0.571c0.032-0.135,0.04-0.274,0.022-0.411v-1
	c0-1.25,0.013-2.556,0.022-3.768v-1.036c-0.018-0.137-0.01-0.276,0.022-0.411C3.82,13.292,3.828,15.568,3.835,17.845z"/>
</svg>
