<?xml version="1.0" encoding="utf-8"?>
<!-- Generator: Adobe Illustrator 16.0.0, SVG Export Plug-In . SVG Version: 6.00 Build 0)  -->
<!DOCTYPE svg PUBLIC "-//W3C//DTD SVG 1.1//EN" "http://www.w3.org/Graphics/SVG/1.1/DTD/svg11.dtd">
<svg version="1.1" id="Layer_1" xmlns="http://www.w3.org/2000/svg" xmlns:xlink="http://www.w3.org/1999/xlink" x="0px" y="0px"
	 width="39.938px" height="40px" viewBox="0 0 39.938 40" enable-background="new 0 0 39.938 40" xml:space="preserve">
<path id="Color_Fill_1" fill="#FFFFFF" d="M0.495,14.293h0.355v0.465c0.073,0.069,0.159,0.122,0.254,0.155
	c0.044-0.038,0.058-0.065,0.101-0.1c-0.144-0.288-0.179-0.618-0.101-0.93c0.081-0.031,0.167-0.049,0.254-0.052l0.101,0.155
	c0.098-0.039,0.198-0.072,0.3-0.1c0.255,0.112,0.537,0.147,0.812,0.1c0.029-0.092,0.127-0.144,0.22-0.115
	c0.012,0.004,0.023,0.009,0.035,0.015c1.313,0.303,2.671,0.373,4.01,0.207V13.88h0.563v0.206c0.325,0.022,0.651-0.011,0.965-0.1
	h5.174c-0.042,0.168,0.024,0.079-0.101,0.155v-0.055h-0.048v0.052c-0.032,0.045-0.051,0.1-0.051,0.155
	c0.609,0.095,1.231,0.061,1.827-0.1c-0.07,0.005-0.141-0.013-0.2-0.052c-0.102-0.57-0.272-1.125-0.508-1.653
	c-0.101-0.34,0.243-0.291,0.051-0.568c-0.216-0.127-0.46-0.198-0.711-0.207c-0.005-0.069-0.005-0.138,0-0.207
	c-0.077-0.049-0.164-0.083-0.254-0.1c-0.281-0.201-0.436-0.534-0.406-0.878c0.144-0.167-0.144-0.238,0-0.568l0.152-0.052
	c0.033-0.135,0.051-0.274,0.051-0.413c-0.115,0.021-0.055,0.047-0.152,0c0.027-0.027,0.045-0.063,0.052-0.1
	c0.223,0.016,0.35,0.083,0.456-0.1c-0.032-0.045-0.05-0.099-0.051-0.155c0.123-0.047,0.081-0.055,0.2-0.1
	c-0.001,0.056,0.018,0.11,0.051,0.155c0.179-0.163,0.421-0.239,0.66-0.207c0.069,0.228-0.063,0.238,0.254,0.258V9.18
	c-0.157-0.063-0.115-0.019-0.151-0.207h0.051V8.922c0.185,0.024,0.373,0.024,0.558,0l0.051-0.1c0.156-0.032,0.183,0.226,0.255,0.1
	c0.073-0.042,0.141-0.094,0.199-0.155c0.143,0.055,0.278,0.125,0.406,0.207c-0.042-0.063-0.042-0.145,0-0.207
	c0.384-0.096,0.774-0.165,1.168-0.207c-0.049,0.15-0.066,0.308-0.051,0.465h0.051v0.052c0.249,0.02,0.507,0,0.863,0v0.155
	c0.135-0.012,0.271-0.012,0.406,0c-0.001-0.056,0.017-0.11,0.051-0.155c-0.001,0.056,0.017,0.11,0.051,0.155
	c0.214-0.066,0.438-0.084,0.66-0.052l0.3-0.362c0.075,0.065,0.161,0.118,0.254,0.155c0.155-0.357,0.528-0.568,0.914-0.516V8.199
	c0.438-0.161,0.908-0.214,1.371-0.155c0.199,0.234,0.524,0.317,0.812,0.207c0.039,0.215,0.026,0.188,0.255,0.207
	c0.044-0.034,0.099-0.052,0.154-0.052v0.1c-0.102-0.001-0.204,0.017-0.3,0.052c-0.032,0.257-0.049,0.516-0.051,0.775H24v0.1h0.051
	c0.05,0.052-0.05,0.051-0.051,0.052c-0.277,0.098-0.576,0.116-0.863,0.052v0.1c-0.09,0.175-0.125,0.373-0.1,0.568
	c-0.148,0.053-0.31,0.053-0.457,0c0.028,0.083,0.028,0.174,0,0.258l-0.257-0.047c0.005-0.071,0.022-0.141,0.051-0.207h-0.508v0.052
	c0.05,0.079,0.05,0.18,0,0.258h4.111c0.299,0.077,0.609,0.094,0.914,0.052c0.716,0,1.356-0.033,2.031-0.052v0.31
	c-1.952-0.03-4.118,0-6.294,0v0.052c0.57,0.2,0.46,1.606,0.406,2.117c0.187,0.101,0.33,0.266,0.405,0.465
	c0.133-0.059,0.269-0.111,0.406-0.155c0.041,0.076,0.092,0.145,0.152,0.207l-0.051,0.155c-0.081-0.038-0.174-0.038-0.255,0
	c0.006,0.038,0.024,0.073,0.052,0.1c0.032,0.152,0.148,0.273,0.3,0.31c-0.029-0.106-0.011-0.219,0.051-0.31
	c0.1,0.142,0.161,0.148,0.254,0.052c0.033,0.044,0.068,0.162,0.101,0.207c0.101-0.116,0.263-0.156,0.405-0.101v0.207h0.101
	c0.296-0.029,0.586-0.099,0.862-0.207c0.358,0.168,0.638,0.47,0.965,0.62c0.521,0.074,1.047,0.107,1.573,0.1
	c0.664,0.261,1.368,0.401,2.081,0.413c0.006,0.193-0.061,0.126,0.152,0.155c0.637-0.288,1.331-0.429,2.03-0.413
	c0.167,0.57,0.253,1.162,0.254,1.757c0.182,0.058,0.354,0.145,0.508,0.258c0.701,0.181,1.413,0.318,2.132,0.412
	c0.041-0.064,0.074-0.134,0.101-0.207h0.151v-0.407h-0.1c-0.111,0.05-0.234,0.067-0.355,0.052c-0.162-0.746-0.196-1.515-0.1-2.272
	c0.183-0.045,0.37-0.063,0.558-0.052v0.1c0.04,0.309,0.057,0.619,0.051,0.93l0.101,0.052c0.095,0.35-0.16,1-0.051,1.446
	c0.074,0.161,0.108,0.339,0.1,0.516c0.055,0.001,0.108-0.018,0.152-0.052c0.162-0.217,0.283-0.462,0.354-0.723l0.559-0.053
	c-0.037,0.26-0.021,0.523,0.051,0.775c0.081,0.2,0.08,0.156,0.254,0.155c0.002,0.088,0.019,0.175,0.051,0.258
	c0.274,0.126,0.589,0.126,0.863,0c0.035,0.065,0.088,0.118,0.152,0.155c-0.056-0.001-0.109,0.018-0.152,0.052l1.227,0.26v-0.05
	c-0.031-0.044-0.05-0.096-0.051-0.15c-0.103,0.013-0.207-0.006-0.3-0.052c-0.306-0.11-0.379-0.399-0.711-0.517
	c-0.063,0.092-0.151,0.164-0.254,0.207c-0.003-0.096-0.038-0.187-0.101-0.258c0.109-0.141,0.195-0.298,0.254-0.465
	c0.134-0.158,0.287-0.297,0.457-0.414c0.319,0.046,0.643,0.063,0.965,0.053v1.756c0.097,0.037,0.144,0.146,0.105,0.244
	c-0.002,0.004-0.004,0.009-0.006,0.014c-0.173,0.352-0.326,0.714-0.457,1.084c0.028,0.105,0.062,0.209,0.1,0.311l-0.051,0.619
	c0.081,0.031,0.167,0.049,0.254,0.053c0.019-0.095,0.104-0.16,0.2-0.155v0.052h0.052v0.1l-0.2,0.155
	c-0.221,0.157-0.527,0.106-0.685-0.114c-0.009-0.013-0.018-0.026-0.026-0.041c-0.014,0.245-0.103,0.479-0.254,0.672
	c-0.072,0.021-0.14,0.055-0.199,0.1v0.311c-0.082,0.273-0.201,0.534-0.355,0.774c-0.59,0.593-1.276,1.082-2.03,1.446
	c-0.947,0.807-2.009,1.471-3.149,1.967c-0.689,0.098-1.388,0.115-2.081,0.052H8.871c-1.482-0.552-2.925-1.208-4.315-1.962
	c-0.543-0.242-2.139-0.611-2.284-1.136c-0.059-0.11-0.076-0.238-0.051-0.361c-0.054-0.264-0.221-0.49-0.457-0.62
	c-0.075,0.084-0.189,0.122-0.3,0.101c-0.041-0.046-0.075-0.099-0.1-0.155c-0.4,0.2-0.438,0.059-0.406,0.775
	c0.055,0.148,0.072,0.308,0.051,0.465h-0.3c-0.006-0.441,0.1-2.249,0.051-2.324c0.112-0.176,0.197-0.367,0.254-0.568
	c-0.146-0.031-0.252-0.16-0.254-0.31c0.122-0.03,0.229-0.104,0.3-0.207c-0.096-0.122-0.164-0.263-0.2-0.413
	c-0.091,0.012-0.183-0.007-0.263-0.053c0.027-0.027,0.045-0.063,0.051-0.1c0.052,0.057,0.124,0.092,0.2,0.1v-0.051
	c-0.386-0.717-0.676-1.48-0.863-2.272c0.434-0.289,0.698-0.771,0.711-1.291H0.648c-0.081,0.116-0.083,0.108-0.151,0.101
	c-0.516-0.249-0.533-0.593-0.508-1.395h0.354l0.051-7.385c-0.059-0.963-0.042-1.93,0.051-2.89
	C0.442,7.449,0.493,10.935,0.495,14.293z M20.952,8.457h0.558V8.406c-0.04-0.025-0.075-0.06-0.1-0.1h0.051V8.251
	c0.238,0.034,0.48,0.016,0.711-0.052c-0.352-0.066-0.71-0.084-1.066-0.052c-0.026,0.027-0.062,0.045-0.1,0.052v0.1
	C20.972,8.345,20.952,8.4,20.952,8.457z M15.571,9.025c0.085,0.058,0.055,0.091,0.101,0H15.571z M22.881,9.025
	c-0.055,0.076-0.089,0.165-0.1,0.258h0.051v0.052h0.1v-0.31H22.881z M13.998,9.18c0.042,0.168-0.025,0.079,0.1,0.155V9.18H13.998z
	 M22.526,9.387c0.088,0.045,0.065,0.046,0.152,0H22.526z M22.826,9.387c0.026,0.028,0.062,0.046,0.1,0.052
	c-0.026-0.027-0.06-0.045-0.096-0.052H22.826z M23.126,9.387c0.087,0.045,0.064,0.046,0.151,0h-0.141H23.126z M20.486,10.058v0.158
	h0.152v0.258c0.114,0.037,0.234,0.055,0.355,0.052v-0.055h0.051c-0.027-0.027-0.063-0.045-0.101-0.052
	c-0.043-0.033-0.097-0.051-0.151-0.052v-0.151h0.406v-0.209c-0.082-0.031-0.167-0.049-0.255-0.052
	c-0.134,0.083-0.292,0.119-0.448,0.103H20.486z M20.334,10.058v0.052c-0.032,0.053-0.11,0.011-0.051,0.052
	c0.026,0.027,0.062,0.045,0.1,0.052c0.004-0.055-0.01-0.109-0.04-0.156H20.334z M20.994,10.884h-0.347v0.052h0.052
	c0.093,0.051,0.194,0.085,0.3,0.1v-0.151L20.994,10.884z M22.466,10.984c0.081,0.128,0.208,0.22,0.354,0.258v-0.048
	c-0.05-0.07-0.119-0.124-0.199-0.155c-0.043-0.032-0.094-0.05-0.146-0.051L22.466,10.984z M20.689,11.084
	c-0.06,0.038-0.129,0.056-0.199,0.052v0.1c0.132,0.042,0.273,0.042,0.405,0c0.129-0.075,0.058,0.011,0.101-0.155
	c-0.096,0.036-0.2,0.04-0.297,0.01L20.689,11.084z M20.283,11.184c0.026,0.027,0.062,0.045,0.1,0.052
	c-0.025-0.022-0.058-0.037-0.091-0.042L20.283,11.184z M22.821,12.63v-1.126c-0.146-0.017-0.285-0.07-0.405-0.155v0.827
	c-0.05,0.098-0.05,0.213,0,0.31c0.062,0.043,0.129,0.077,0.2,0.1c0.063,0.042,0.139,0.061,0.215,0.054L22.821,12.63z M20.237,11.816
	c0,0.056,0.018,0.11,0.052,0.155c0.111-0.107,0.253-0.179,0.405-0.207c-0.321-0.048-0.649-0.031-0.964,0.052H20.237z M14.196,11.971
	c0.027,0.027,0.045,0.063,0.052,0.101h-0.046v-0.101H14.196z M23.744,13.416v0.1h0.1v-0.1H23.744z M1.358,13.932H1.158v0.1
	c0.146,0.058,0.094,0.009,0.151,0.155h0.048V13.932z M6.942,13.932v0.1h0.052v-0.1H6.942z M7.196,13.932v0.1h0.101v-0.049
	L7.196,13.932z M1.46,14.087v0.1h0.051v-0.1H1.46z M1.917,14.087c0.017,0.114-0.053,0.056,0.051,0.1
	C1.962,14.148,1.945,14.113,1.917,14.087L1.917,14.087z M2.217,14.087v0.1h0.3v-0.1h-0.1c-0.093,0.057-0.08,0.029-0.196-0.001
	L2.217,14.087z M10.846,14.242c0.001-0.056-0.018-0.11-0.051-0.155c-0.3,0.189-1.655-0.115-1.929,0.052H8.82l0.052,0.155h1.421
	c0.165-0.112,0.376-0.132,0.559-0.053L10.846,14.242z M11.046,14.087c0.042,0.168-0.025,0.079,0.1,0.155V14.19
	c0.091-0.123,0.006-0.033-0.092-0.104L11.046,14.087z M11.554,14.294l0.609-0.1v0.052c-0.038,0.006-0.073,0.024-0.101,0.052h0.101
	c0.135-0.009,0.271-0.009,0.405,0c0.047-0.125,0.055-0.082,0.101-0.207h-0.042c-0.352,0.077-0.715,0.077-1.066,0v0.207
	L11.554,14.294z M13.037,14.086c-0.059,0.054-0.094,0.128-0.101,0.207h0.101c0.006-0.065,0.043-0.123,0.1-0.155
	C13.11,14.11,13.075,14.092,13.037,14.086z M10.347,14.241c0.027,0.027,0.063,0.045,0.101,0.052
	c-0.028-0.028-0.065-0.046-0.104-0.052H10.347z M9.179,14.341c-0.138-0.019-0.277-0.001-0.406,0.052
	c0.143-0.013,0.286,0.022,0.406,0.1v-0.148V14.341z M11.006,14.341c-0.02,0.14-0.002,0.282,0.051,0.413v-0.358
	c0.121,0.017,0.244-0.001,0.355-0.052h-0.409L11.006,14.341z M13.747,14.341v0.1c0.205-0.015,0.409-0.048,0.608-0.1h-0.611H13.747z
	 M0.597,16.255v0.101h0.051C0.642,16.316,0.624,16.282,0.597,16.255z M38.871,16.616c-0.109,0.195-0.194,0.403-0.254,0.62
	c0.038,0.045,0.063,0.058,0.1,0.1c0.038-0.006,0.073-0.023,0.1-0.052c0.089-0.063,0.174-0.134,0.254-0.207
	c0.111-0.209-0.162-0.334,0.301-0.361v0.052h0.051v-0.151H38.871z M36.942,16.668l-0.404,0.048v0.101
	c-0.042,0.082-0.075,0.169-0.101,0.258h0.101c0.017-0.249,0.011-0.239,0.254-0.258c0.026,0.027,0.062,0.045,0.1,0.052
	c-0.006,0.072,0.013,0.145,0.051,0.206V16.668L36.942,16.668z M38.008,17.494c0.026,0.027,0.045,0.063,0.051,0.1h-0.051V17.494z
	 M37.094,17.594v0.1h0.1v-0.1H37.094z M37.957,17.594c0.032,0.045,0.051,0.1,0.051,0.155h-0.051v-0.151V17.594z M38.008,17.749h0.1
	v0.052c-0.037-0.004-0.072-0.021-0.1-0.048V17.749z M38.617,17.801c0.147-0.003,0.284,0.077,0.354,0.207h0.051v0.053h-0.1
	c-0.06-0.038-0.13-0.057-0.2-0.053c-0.045-0.063-0.081-0.131-0.105-0.203V17.801z M0.546,20.077
	c-0.056-0.001-0.108,0.018-0.152,0.052c0.041,0.025,0.075,0.06,0.101,0.1H0.394V20.18c-0.077-0.083-0.114-0.197-0.1-0.31h0.049
	v-0.054c0.15,0.019,0.1,0.1,0.2-0.053c-0.038-0.006-0.073-0.023-0.101-0.052c0.068-0.147,0.12-0.302,0.154-0.461
	c0.075,0.499,0.058,1.007-0.051,1.5C0.545,20.439,0.537,20.291,0.546,20.077z M0.901,21.109v0.361h0.052
	c0.026-0.027,0.062-0.045,0.1-0.052v-0.051C0.995,21.294,0.965,21.179,0.901,21.109z M1.054,21.626
	c-0.044,0.044-0.078,0.097-0.1,0.155h0.1c0.044-0.044,0.078-0.098,0.1-0.155H1.054z M7.348,23.382
	c-0.412-0.04-0.828,0.013-1.218,0.155v0.052h0.051l1.218,0.517V23.95C7.339,23.768,7.322,23.572,7.348,23.382z M11.866,24.002
	c-0.135,0.361-0.305,0.707-0.509,1.033h1.066v-0.053C12.18,24.692,11.991,24.36,11.866,24.002z M16.384,24.002
	c-0.143,0.4-0.382,0.678-0.508,1.033h1.065v-0.053C16.693,24.696,16.503,24.363,16.384,24.002z M20.851,24.002
	c-0.056,0.39-0.233,0.751-0.508,1.033h1.066v-0.1C21.184,24.649,20.996,24.336,20.851,24.002z M25.369,24.002
	c-0.079,0.382-0.254,0.737-0.509,1.033h1.066v-0.053C25.703,24.68,25.516,24.35,25.369,24.002z M29.887,24.002
	c-0.11,0.371-0.281,0.72-0.508,1.033h1.065v-0.053C30.209,24.687,30.021,24.355,29.887,24.002L29.887,24.002z"/>
</svg>
