<svg xmlns="http://www.w3.org/2000/svg" width="40" height="40" viewBox="0 0 40 40">
  <defs>
    <style>
      .cls-1 {
        fill: #fff;
        fill-rule: evenodd;
      }
    </style>
  </defs>
  <path id="germ_vsw_flak_41_ico" class="cls-1" d="M23.6,15.523V15.441H23.64v0.041a0.307,0.307,0,0,1,.064.165h0.064a2.246,2.246,0,0,0,.386.72,0.607,0.607,0,0,0,.128.247h3.041a4.443,4.443,0,0,1,1.006-.021,1.519,1.519,0,0,1,.792.123l0.021,0.062H30.6l9.358,0.062a1.858,1.858,0,0,1,.021.515,2.8,2.8,0,0,1-.685.02H37.859a4.059,4.059,0,0,1-.942.021H34.3a5.378,5.378,0,0,1-.942.021H30.75a6.647,6.647,0,0,1-1.178.021H29.144a2.336,2.336,0,0,1-.343.185H28.373a5.973,5.973,0,0,1-1.049-.02H24.839v0.041a1.669,1.669,0,0,1,.278.494,4.617,4.617,0,0,1,.535.967l-0.728.35v0.021h0.321c0.054-.107.132-0.025,0.235-0.082a1.238,1.238,0,0,0,.193-0.226,1.947,1.947,0,0,1,.578.185c0.37,0.135.758,0.225,1.113,0.35l0.214,0.021c0.116,0.032.268,0.124,0.385,0.144,0.074,0.013.02-.049,0.086-0.021a0.128,0.128,0,0,0,.086.082l0.45,0.144v0.041a0.209,0.209,0,0,0-.043.123,2.469,2.469,0,0,0-.642-0.1l0.021-.062a0.478,0.478,0,0,1-.15-0.041,1.14,1.14,0,0,1-.128.329h0.214a0.469,0.469,0,0,1,.214-0.021,1.7,1.7,0,0,0,.385.412c0.055-.106.156-0.033,0.278-0.021a0.394,0.394,0,0,0-.064-0.226l0.064-.021a0.124,0.124,0,0,1,.086,0,1.257,1.257,0,0,1,.043-0.247,1.875,1.875,0,0,1,.471-0.041,0.714,0.714,0,0,0,.15.1,0.667,0.667,0,0,1,0,.494h-0.15v0.062a0.61,0.61,0,0,0-.193.021,0.06,0.06,0,0,0,.021.021,1.939,1.939,0,0,0,.3.329,1.707,1.707,0,0,0,.321.1,1.733,1.733,0,0,1,.45.247l0.022,0.082a0.169,0.169,0,0,1,.107-0.021,1.494,1.494,0,0,1,.214.288,1.334,1.334,0,0,1,.407.926H30.428v0.1h0.086v0.041a0.281,0.281,0,0,1-.043.226c0.064,0.027.052-.02,0.064,0.082a0.073,0.073,0,0,0-.021.041c-0.093.016-.084,0.023-0.086,0.123a0.086,0.086,0,0,1,0,.165c-0.037.031-.028-0.024-0.064,0.041a0.384,0.384,0,0,0,.021.1c-0.031.052-.027,0.038-0.107,0.041-0.016.1-.025,0.148-0.043,0.247a0.231,0.231,0,0,1-.107.041c-0.034-.026-0.011-0.013-0.043,0a0.1,0.1,0,0,0-.021.062s0.062,0.027.043,0.041H30.086a0.1,0.1,0,0,1-.107.041c-0.034-.026-0.011-0.013-0.043,0a1.292,1.292,0,0,0-.107.144,0.555,0.555,0,0,1-.15.041c-0.024.033-.043,0.094-0.064,0.123-0.056-.016-0.051-0.025-0.107-0.041-0.067.081-.211,0.089-0.278,0.165s0.072,0.06-.021.1c-0.054.026-.077-0.027-0.15,0a0.418,0.418,0,0,0-.257.247,0.42,0.42,0,0,0-.45.144c0.005,0.02.017,0.008,0,.021a0.149,0.149,0,0,1-.086.021c-0.107-.1-0.324.1-0.385,0.185a0.5,0.5,0,0,0-.45.062c0.011,0.05.035,0.025-.021,0.062a0.112,0.112,0,0,1-.064.021,0.226,0.226,0,0,0-.043-0.062,0.919,0.919,0,0,1-.343.1v0.082a0.313,0.313,0,0,1-.086.021,0.508,0.508,0,0,0-.386.021v0.082a0.073,0.073,0,0,0-.043.021,0.223,0.223,0,0,1-.064-0.062,0.791,0.791,0,0,0-.364.082,0.135,0.135,0,0,0-.021.082,0.227,0.227,0,0,1-.128-0.062c-0.093-.009-0.233.04-0.364,0.041v0.082a1.431,1.431,0,0,0-.428-0.062,0.257,0.257,0,0,1-.171.062l-0.021-.062a1.117,1.117,0,0,0-.471.062l-0.021-.062a1.115,1.115,0,0,0-.471.062L23.9,25.918H23.533v0.062H23.426V25.918H23.041c-0.053.028,0.017,0.046-.107,0.062V25.918H22.548v0.062H22.441V25.918H22.056c-0.024.012,0.006,0.057-.043,0.062-0.076.007-.032-0.046-0.064-0.062H21.563v0.062H21.456V25.918H21.071v0.062c-0.124-.015-0.055-0.034-0.107-0.062H20.578v0.062a1.275,1.275,0,0,0-.407-0.062,0.3,0.3,0,0,1-.171.062l-0.021-.062a1.118,1.118,0,0,0-.471.062l-0.021-.062a1.117,1.117,0,0,0-.471.062l-0.021-.062H18.63c-0.031.015-.012,0.093-0.107,0.062L18.5,25.918H18.137c-0.026.013-.017,0.1-0.107,0.062l-0.021-.062H17.645v0.062c-0.143-.013-0.065-0.035-0.128-0.062a0.818,0.818,0,0,0-.471.062V25.918H16.66v0.062H16.553V25.918H16.167c-0.024.012,0.006,0.057-.043,0.062-0.076.007-.032-0.046-0.064-0.062H15.675v0.062H15.568V25.918H15.182v0.062c-0.124-.015-0.055-0.034-0.107-0.062H14.69v0.062c-0.124-.015-0.055-0.034-0.107-0.062H14.2v0.062a1.2,1.2,0,0,0-.407-0.062,0.257,0.257,0,0,1-.171.062L13.6,25.918a1.117,1.117,0,0,0-.471.062L13.1,25.918a1.117,1.117,0,0,0-.471.062l-0.021-.062H12.248c-0.026.013-.017,0.1-0.107,0.062l-0.021-.062H11.756v0.062c-0.143-.013-0.065-0.035-0.129-0.062a0.818,0.818,0,0,0-.471.062V25.918H10.771v0.062H10.664V25.918H10.278c-0.024.012,0.006,0.057-.043,0.062-0.076.007-.032-0.046-0.064-0.062H9.786v0.062H9.679V25.918H9.293v0.062c-0.124-.015-0.055-0.034-0.107-0.062H8.8v0.062a1.842,1.842,0,0,0-.514-0.1C8.244,25.9,8.3,25.924,8.18,25.938V25.856H8.158V25.835a1.418,1.418,0,0,0-.321-0.062c-0.015.016-.028,0.046-0.043,0.062-0.017-.014-0.048-0.027-0.064-0.041a0.135,0.135,0,0,1-.021-0.082,1.668,1.668,0,0,0-.343-0.082,0.545,0.545,0,0,1-.086.062,0.214,0.214,0,0,1-.043-0.1C7.11,25.574,7.022,25.524,6.9,25.506a0.091,0.091,0,0,1-.064.062c-0.017-.014-0.048-0.027-0.064-0.041a0.1,0.1,0,0,0,.021-0.062,2.169,2.169,0,0,1-.278-0.082,0.711,0.711,0,0,0-.193.041V25.341H6.274a0.627,0.627,0,0,0-.321-0.082,0.1,0.1,0,0,1-.021.062A0.148,0.148,0,0,0,5.846,25.3V25.218H5.824V25.2a2,2,0,0,1-.3-0.082,0.309,0.309,0,0,1-.107.041,0.277,0.277,0,0,1-.064-0.1l-0.3-.144c-0.062-.018-0.093.016-0.15,0A1.129,1.129,0,0,0,4.668,24.5c-0.076-.059-0.075.034-0.107-0.082a0.128,0.128,0,0,0-.107-0.206,2.7,2.7,0,0,1,0-.37H4.518V23.777l-0.471-.082V23.654H4.111a0.989,0.989,0,0,0,.407.082V23.695a0.45,0.45,0,0,0,.021-0.268,0.641,0.641,0,0,0,.107-0.1,0.109,0.109,0,0,0,0-.082c-0.028-.051.009-0.014-0.043-0.041a0.215,0.215,0,0,1-.193.062c-0.054-.03-0.024,0-0.043-0.062-0.015-.032,0,0,0-0.062,0.281-.064.1-0.145,0.193-0.247a0.078,0.078,0,0,0-.043-0.02,0.148,0.148,0,0,0-.086-0.021V22.768c-0.93.007-.879-0.646-1.113-1.338a1.726,1.726,0,0,0-.193-0.617A0.228,0.228,0,0,1,3,20.854a0.313,0.313,0,0,1-.021-0.1A0.146,0.146,0,0,0,3.1,20.669a0.718,0.718,0,0,1-.193-0.659H1.52v0.021H1.542a0.793,0.793,0,0,1,.257.309,0.752,0.752,0,0,1-.642.844,0.26,0.26,0,0,0-.128-0.144,2.164,2.164,0,0,1-.343-0.021,0.722,0.722,0,0,1-.493-0.782A0.722,0.722,0,0,0,.385,20.01H0.257A1.372,1.372,0,0,0,.3,19.784c-0.052-.019-0.034-0.022-0.086-0.041a0.3,0.3,0,0,1-.193.082H0V19.8a1.457,1.457,0,0,0,.214-0.1h0.15a0.166,0.166,0,0,0,.043-0.1,0.1,0.1,0,0,0,.021-0.062,1.608,1.608,0,0,0,.407-0.1v0.041a0.757,0.757,0,0,0-.257.1V19.6H0.942a1.151,1.151,0,0,0,.664.062,0.407,0.407,0,0,1,.043-0.185H1.67V19.5a0.351,0.351,0,0,0,.064.165,0.544,0.544,0,0,1,.021-0.185H1.8V19.66c0.54,0,1.237.009,1.692-.041,0.009,0.054.034,0.045,0.15,0.041V19.7a0.23,0.23,0,0,0-.214.041H4.39V19.66H4.5v0.082H5.4c0.061-.238.231-0.419,0.3-0.659A0.314,0.314,0,0,1,5.567,19a1.468,1.468,0,0,1,.278-0.617H5.974a0.112,0.112,0,0,0,.064.021l0.214-.432a0.141,0.141,0,0,1-.15-0.165,0.317,0.317,0,0,0,.171-0.165,0.078,0.078,0,0,0,.043.021v0.062a0.136,0.136,0,0,0-.043.1H6.317V17.808a0.478,0.478,0,0,0,.107-0.226,0.927,0.927,0,0,1-.385-0.206H6.06v-0.02a1.3,1.3,0,0,0,.407.144,1.661,1.661,0,0,0,.214-0.453,5.5,5.5,0,0,0,.364-0.741H7.024a0.624,0.624,0,0,1-.45.1,1.54,1.54,0,0,0-.236-0.123,1.036,1.036,0,0,1-.3-0.638A0.16,0.16,0,0,1,6.146,15.5a0.3,0.3,0,0,1,.128-0.021A2.078,2.078,0,0,1,6.4,15.214a0.818,0.818,0,0,1,.236-0.144,0.538,0.538,0,0,1,.878.247H7.537V15.3c0.025-.024.039-0.058,0.064-0.082a0.237,0.237,0,0,0,.193.123,0.079,0.079,0,0,1,.043-0.021V15.173a0.215,0.215,0,0,1-.021-0.123H7.859a3.062,3.062,0,0,0,.6.021v0.062c0.764,0,1.425.217,2.227,0.226a2.064,2.064,0,0,1-.043.247h0.128a1.28,1.28,0,0,1,1.456-.35,1.44,1.44,0,0,1,.257.123L12.591,15.5a0.493,0.493,0,0,1,.257.062c-0.077.009-.054-0.01-0.086,0.041h0.214V15.564a0.073,0.073,0,0,1-.021-0.041h0.086a0.35,0.35,0,0,1,.171-0.021V15.441a1.093,1.093,0,0,0,.407-0.165A1.853,1.853,0,0,0,14,15.194c0.142,0.084.48,0.054,0.642,0.123l0.236,0.165a0.446,0.446,0,0,0,.064.123H16.21a0.129,0.129,0,0,1,.021-0.082c0.009,0.074-.01.052,0.043,0.082V15.482a0.074,0.074,0,0,1-.021-0.041h0.214v0.041c-0.054.03-.043,0.044-0.043,0.123H16.7V15.523c0.469,0,.786.06,1.22,0.062V15.523a9.756,9.756,0,0,0,1.97-.6h0.9a1.925,1.925,0,0,1,.9-0.1V14.741c-0.17-.069-0.211-0.043-0.364-0.1-0.018.067,0.011,0.031-.043,0.062-0.016-.018-0.027-0.023-0.043-0.041a0.4,0.4,0,0,0,.043-0.082,1.339,1.339,0,0,1-.343-0.123,1.653,1.653,0,0,0-.535-0.123,0.5,0.5,0,0,0-.021-0.123,1.017,1.017,0,0,1,.535.185c0.272,0.108.456,0.1,0.685,0.185a0.528,0.528,0,0,0,.086.144h0.043a0.1,0.1,0,0,1,.021-0.062,0.3,0.3,0,0,0,.043.123h0.064c-0.009-.151.049-0.441,0.021-0.576C21.872,14.144,21.818,14.07,21.8,14h0.043v0.041a0.9,0.9,0,0,1,.128.329,0.742,0.742,0,0,1,.129.35,1.348,1.348,0,0,0,.107.1l-0.021.123a1.288,1.288,0,0,0,.128.309l0.064,0.021a0.794,0.794,0,0,1,0,.165c0.121,0.006,0,.038.086,0.082H23.6Zm-1.906-.967a0.1,0.1,0,0,1,.021.062H21.692V14.556Zm0.021,0.062a0.073,0.073,0,0,1,.021.041H21.713V14.618Zm-14.218.6H7.537v0.021A0.075,0.075,0,0,1,7.495,15.214Zm-3.4,4.117H4.133v0.021A0.074,0.074,0,0,1,4.09,19.331Zm-0.043.021H4.09v0.021A0.075,0.075,0,0,1,4.047,19.352Zm-0.064.021a0.106,0.106,0,0,1,.064.021A0.106,0.106,0,0,1,3.983,19.372Zm-0.043.021H3.983v0.021A0.075,0.075,0,0,1,3.94,19.393ZM3.9,19.413H3.94v0.021A0.075,0.075,0,0,1,3.9,19.413Zm-0.043.021H3.9v0.02A0.074,0.074,0,0,1,3.854,19.434Zm-0.043.02H3.854v0.021A0.074,0.074,0,0,1,3.812,19.455Zm-0.043.021H3.812V19.5A0.075,0.075,0,0,1,3.769,19.475ZM3.726,19.5H3.769v0.021A0.075,0.075,0,0,1,3.726,19.5Zm-0.064.021a0.106,0.106,0,0,1,.064.021A0.106,0.106,0,0,1,3.662,19.516Zm-0.043.021H3.662v0.021A0.075,0.075,0,0,1,3.619,19.537Zm-0.043.021H3.619v0.02A0.074,0.074,0,0,1,3.576,19.558Zm-0.043.02H3.576V19.6A0.074,0.074,0,0,1,3.533,19.578ZM3.49,19.6H3.533v0.021A0.075,0.075,0,0,1,3.49,19.6Zm-3.212.432a0.073,0.073,0,0,1,.021.041H0.278V20.031Z" transform="translate(0 0.016)"/>
</svg>
