<svg xmlns="http://www.w3.org/2000/svg" width="80" height="40" viewBox="0 0 80 40">
  <defs>
    <style>
      .cls-1 {
        fill: #fff;
        fill-rule: evenodd;
      }
    </style>
  </defs>
  <path id="germ_destroyer_class1934a_1944_ico" class="cls-1" d="M52.661,9.793a0.241,0.241,0,0,1,.151.051,7.69,7.69,0,0,0,.151,2.305,0.144,0.144,0,0,0,.05-0.051,0.4,0.4,0,0,0,0-.359h0.5a2.849,2.849,0,0,1-.2.973H54.88V12.662h0.05v0.051h0.05l-0.05.154a0.651,0.651,0,0,0-.706,0,2.232,2.232,0,0,0-1.211-.1l0.353,3.33h0.4c-0.044-.442-0.055-0.533.5-0.512a0.627,0.627,0,0,1,.151.512H54.88a0.25,0.25,0,0,1,.05-0.154v0.2H54.225a1.03,1.03,0,0,1,.1.461c-0.351.221-.768,0.123-0.858,0.615a13.98,13.98,0,0,1,0,2.049c0.527-.032.45,0.1,1.059,0.1V18.809a1.245,1.245,0,0,0-.4-0.051V17.835c-0.071-.011.02,0.042-0.051,0.051-0.039.1-.05-0.1-0.05-0.1,0.131-.083.1-0.167,0.1-0.359h1.261v1.332H54.729a1.924,1.924,0,0,0-.05.563c0.376,0.162.274,0.662,0.252,1.178h0.4v-0.82h0.3l0.05-.461h0.1c0.116,0.178.484,0.031,0.757,0.256a0.35,0.35,0,0,0-.05.2H57v0.307H57.15V19.731h1.664c0.048-.174.019-0.159,0.2-0.2v0.1c-0.124.066-.034-0.022-0.1,0.1a1.335,1.335,0,0,1,.605.051,0.688,0.688,0,0,0-.1.461h0.05a0.31,0.31,0,0,1,.1-0.1V20.4c-0.1,0-.014-0.052-0.1,0a1.6,1.6,0,0,0-.2,1.076h0.05V21.421a1.3,1.3,0,0,1,1.009-.2,0.206,0.206,0,0,1,.252.1,1.948,1.948,0,0,0-.05.2,0.5,0.5,0,0,0,.252.051v0.359a0.309,0.309,0,0,0-.1.1h0.757a0.144,0.144,0,0,1,.05-0.051v0.1H60.681V22.8h0.1a0.723,0.723,0,0,0,.555-0.1c0.019,0.134-.038.067,0.1,0.1a2.318,2.318,0,0,0,1.211,0V22.753H61.992A0.961,0.961,0,0,0,61.74,22.7a1.261,1.261,0,0,1-.05-0.563h0.2c0-.376.092-0.444,0.1-0.82a4.533,4.533,0,0,1,1.311.2,0.542,0.542,0,0,1,.151.359l2.169,0.051v0.1h-0.1c-0.051.036-.2,0.066-0.252,0.1a0.186,0.186,0,0,1,.05.1,2.71,2.71,0,0,1,1.059.512,11.6,11.6,0,0,0,1.211.154,0.534,0.534,0,0,1,.2.41h2.169V23.47l-2.119.051a1.938,1.938,0,0,0,.1.615l0.252-.051,0.05-.256h0.1a0.4,0.4,0,0,1,.353,0c0.014,0.133-.023.091,0.2,0.1a0.336,0.336,0,0,1,.2-0.051v0.051h-0.05c-0.1.04,0.1,0.051,0.1,0.051a0.336,0.336,0,0,1,.2-0.051,0.374,0.374,0,0,1,0,.307h0.2a1.4,1.4,0,0,1,.05-0.615v0.615a0.633,0.633,0,0,0,.656-0.154c-0.185-.035-0.138,0-0.2-0.154a0.488,0.488,0,0,0,.151-0.2c0.1,0.047,0,.011.05,0.1,0.17,0.094.219-.35,0.3-0.1a0.193,0.193,0,0,1,.151.2c0.7,0.029,1.01.1,1.765,0.1a0.946,0.946,0,0,1,.05-0.461,0.547,0.547,0,0,0,.05.307,0.336,0.336,0,0,1,.2-0.051,0.745,0.745,0,0,0,.05.256,0.783,0.783,0,0,1,.252-0.051v-0.2h0.2v0.154a0.192,0.192,0,0,1,.151.1l0.151-.051v-0.2c0.055-.15-0.079-0.682-0.05-0.871h0.1c0.136,0.227.421,0,.605-0.051V23.06h0.1a0.255,0.255,0,0,0,.151.051,0.784,0.784,0,0,0-.1-0.307h0.1c0.083,0.368.36,0.334,0.807,0.307v0.051a0.807,0.807,0,0,0-.656.1,1.121,1.121,0,0,1,.2.717c0.515,0.037.99,0,1.564,0a1.548,1.548,0,0,1,.05-0.666v0.615c0.686,0.005,1.279-.12,1.917-0.154a1.242,1.242,0,0,1,.05-0.564v0.564l0.757-.1a1.55,1.55,0,0,1,.05-0.666v0.666a0.293,0.293,0,0,0,.2,0,2.5,2.5,0,0,0,.353-1.844h0.05L80,22.036c-0.262.021-.162,1.143-0.151,1.588a12.735,12.735,0,0,1-.857,1.537,19.823,19.823,0,0,0-1.362,5.174H73.846a3.746,3.746,0,0,0-1.362-.051H68.953L55.99,30.232l-26.381.051-13.871.051c-0.132-.041-0.33-0.2-0.454-0.256l-1.715-.41a9.851,9.851,0,0,0-1.816.154l-1.665.051a11.62,11.62,0,0,1-2.421.307l-0.1.717a0.311,0.311,0,0,0-.1.1l-0.151-.051a0.814,0.814,0,0,0-.252-0.512v0.051c-0.051.051-.05-0.05-0.05-0.051a0.185,0.185,0,0,1-.05-0.1,1.01,1.01,0,0,0,.1-0.2H6.81a6.378,6.378,0,0,1-1.917-.1V29.976H4.842a4.435,4.435,0,0,1-.2-1.588H4.388a3.684,3.684,0,0,0-1.816.1c-0.213-.9-1.005-1.587-1.261-2.459l0.05-.359A2.454,2.454,0,0,0,.656,24.6c0.09-.1.093-0.041,0.05-0.154C0.6,24.014.274,23.707,0.151,23.265,0,23.285.088,23.349,0,23.214A0.394,0.394,0,0,1,.151,23.06v0.1a8.342,8.342,0,0,1,.858,1.69c0.452,0.021.83,0.989,1.211,1.076a0.766,0.766,0,0,1,.555-0.051l0.05-.2c-0.171.014-.281,0.044-0.3-0.256h0.1a0.336,0.336,0,0,1,.2-0.051,0.882,0.882,0,0,1,.05-0.307h0.05a1.093,1.093,0,0,0,.05.512V25.519a2.171,2.171,0,0,0,.454-0.973H3.38a0.622,0.622,0,0,1-.2.2v-0.1a2.044,2.044,0,0,0,.656-0.82h0.1v0.154a8.957,8.957,0,0,0-1.009,1.947H3.178a0.43,0.43,0,0,1,.151-0.358,1.1,1.1,0,0,1,.353.2,0.422,0.422,0,0,1,.4-0.1v0.051H4.035c-0.1.04,0.1,0.051,0.1,0.051a0.5,0.5,0,0,1,.454-0.1v0.256h0.1c0.021-.29.1-0.272,0.4-0.256v0.051H4.943c0.042,0.166-.025.078,0.1,0.154V25.826c0.1-.021.036,0.079,0.1,0a0.264,0.264,0,0,0,.05-0.154H5.6a0.806,0.806,0,0,1,.05-0.41v0.666h0.5a0.229,0.229,0,0,0-.1-0.2c0.089-.085.08,0.026,0.1-0.154h0.2v0.358h0.2a1.55,1.55,0,0,1,.05-0.666,0.673,0.673,0,0,0,.05.359,0.336,0.336,0,0,1,.2-0.051c-0.02-.2-0.1-0.206.05-0.307a0.582,0.582,0,0,1,.454,0v0.154a0.963,0.963,0,0,0-.05.461,5.435,5.435,0,0,0,1.463.051V25.775a0.463,0.463,0,0,1,.252-0.154,0.9,0.9,0,0,1,.454-0.154v0.461h0.2a1.549,1.549,0,0,1,.05-0.666v0.666h0.958a1.642,1.642,0,0,1,.1-0.768H10.088a3.928,3.928,0,0,0-1.463-.051v-0.1c0.646-.044,1.446-0.051,2.169-0.051a1.635,1.635,0,0,1,.252-0.461,7.147,7.147,0,0,0,1.311-.1V24.136a5.945,5.945,0,0,1,.857-0.461,7.566,7.566,0,0,0,.857,0V23.624a14.858,14.858,0,0,0-1.564-.051V23.419h2.169a0.984,0.984,0,0,1,.2-0.461,3.913,3.913,0,0,0,1.312-.154v0.2a4.407,4.407,0,0,1-.05.717h0.252a3.909,3.909,0,0,1,.757,0V23.265h-0.1a1.023,1.023,0,0,0-.605-0.1,0.176,0.176,0,0,0-.05-0.1c0.016-.1,0-0.335,0-0.563h1.16l0.05-.666a0.427,0.427,0,0,0,.2-0.154h0.1a0.623,0.623,0,0,0,.555.307l-0.05.1h0.05a0.374,0.374,0,0,1,.2.358L20.076,22.5c-0.029.571-.016,0.584,0.555,0.563a1.431,1.431,0,0,1,.3,0v-0.1a0.964,0.964,0,0,0,.05-0.461,8.648,8.648,0,0,0,1.564-.051V22.292a3.758,3.758,0,0,0-1.059.051v-0.1h1.059a3,3,0,0,1,.2-0.307,0.322,0.322,0,0,0,.252.1v0.154h0.2a0.25,0.25,0,0,1,.05-0.154,0.585,0.585,0,0,1,.151-0.1c0.02,0.2-.022.2,0.1,0.256V22.138c0.051-.051.05,0.05,0.05,0.051a0.562,0.562,0,0,1,.05.307h0.807v0.512h-0.05V22.958c-0.039-.1-0.05.1-0.05,0.1a0.186,0.186,0,0,1,.05.1c-0.451-.019-0.481.111-0.454,0.563h0.05a2.148,2.148,0,0,1,.605-0.051,0.244,0.244,0,0,0,0,.256,0.9,0.9,0,0,1,.656-0.1V23.88h0.05v0.051c-0.11.024-.088,0-0.1,0.051a0.734,0.734,0,0,0-.05.2h0.252a0.906,0.906,0,0,1,.1-0.512c0.042,0.166-.025.078,0.1,0.154a0.542,0.542,0,0,0,.1-0.307H25.624v0.051c-0.039.1-.05-0.1-0.05-0.1a1.043,1.043,0,0,0,.05-0.768,19.409,19.409,0,0,0-.353-2.715,6.171,6.171,0,0,1-.706-0.615,2.455,2.455,0,0,1,.706-0.051L25.12,18.091h0.1c0,1.866.549,4.135,0.656,6.25h0.605c-0.081.183-.218,0.165-0.605,0.154v0.051a4.87,4.87,0,0,1,.151.82,2.69,2.69,0,0,1,1.11,0v-0.1h-0.2V25.109a3.524,3.524,0,0,0-.605-0.051v-0.41a0.923,0.923,0,0,1,.857-0.1,0.334,0.334,0,0,1,.05-0.2c0.081,0.14-.008.042,0.151,0.051a0.25,0.25,0,0,0,.05.154l0.05-.1c0.256-.027.62,0.149,0.958,0.1a0.073,0.073,0,0,1,.1-0.051c0.067,0.029.121,0.271,0.353,0.154v-0.1a1.216,1.216,0,0,1,.252-0.1c0.149,0.279.4,0.175,0.757,0.154V24.033h0.353l0.1-.307h0.05v0.051c0.121,0.189-.041.2,0.353,0.2a0.255,0.255,0,0,0,.151.051,0.936,0.936,0,0,0,.1.564,3.473,3.473,0,0,0,1.312.051,0.153,0.153,0,0,1,.2.1h-0.05a2.539,2.539,0,0,1-.757.1,2.893,2.893,0,0,0-.454.2,1.167,1.167,0,0,1-.555-0.051,1.847,1.847,0,0,0-1.009.154,0.286,0.286,0,0,1,0,.2h0.857a9.112,9.112,0,0,1,1.009,0,10.445,10.445,0,0,1,1.816,0V24.29H31.677a1.3,1.3,0,0,1-.05-0.41,1.77,1.77,0,0,0,.3-0.615c0.119,0.267,1.273.218,1.715,0.2a3.1,3.1,0,0,1,.1-1.485v0.256H34.4a0.419,0.419,0,0,1,.151-0.461c0.184,0.186.479-.015,0.807,0.2-0.127.075-.092,0.064-0.1,0.256h0.858V21.984h0.1v0.154h1.059c0-.84.1-1.54,0.1-2.459h0.1v1.639c0.489,0.006.57-.007,0.908,0a2.812,2.812,0,0,0-.2-1.281,1.015,1.015,0,0,0,.2-0.256V19.321l0.555-.154a5.722,5.722,0,0,1,1.312-.461v0.1c0.063,0.1-.033.4,0.05,0.666a0.788,0.788,0,0,0,.3.359,2.921,2.921,0,0,0,.1,1.434,2.9,2.9,0,0,0,.1,1.434,1.569,1.569,0,0,1,1.11-.154,0.549,0.549,0,0,1,.1.256,0.361,0.361,0,0,0,0,.256h-0.05v0.051a0.363,0.363,0,0,0-.4.1,1.3,1.3,0,0,1,.05.359l0.151,0.051c0.2,0.46-.3.861-0.05,1.281a1.584,1.584,0,0,0,.3.41c0.153,0,.424.053,0.757,0.051v-0.1H42.623V25.109h-0.2c-0.02-.13.029-0.081-0.151-0.1a0.122,0.122,0,0,1-.2.051,0.44,0.44,0,0,1-.1-0.359,0.827,0.827,0,0,1,.858-0.154V24.392a0.633,0.633,0,0,0,.2-0.051c0.021,0.183-.024.129,0.1,0.2a3.549,3.549,0,0,1,1.463.1,0.847,0.847,0,0,1,.151-0.2,1.137,1.137,0,0,0,.807.154V24.033h0.4l0.1-.307c0.114,0.02.055,0.047,0.151,0a1.192,1.192,0,0,0,0-.717,1.7,1.7,0,0,0,.4-0.051l0.05-.512h0.05v0.512a13.637,13.637,0,0,0,1.362-.1V22.5h0.4a0.452,0.452,0,0,1,.151-0.154,0.766,0.766,0,0,1,.05-0.564c-0.243-.017-0.234-0.011-0.252-0.256a0.361,0.361,0,0,0,0-.256,2.451,2.451,0,0,1,.706-0.051,0.25,0.25,0,0,1,.05-0.154,0.255,0.255,0,0,1,.151-0.051,0.144,0.144,0,0,0,.05.051v0.154h0.2l-0.1-1.332a0.387,0.387,0,0,1-.3-0.307h0.05V19.526a1.029,1.029,0,0,0,.454-0.1l-0.05-.564c0.95-.1,1.722-0.62,2.673-0.717l0.05,0.871a1.518,1.518,0,0,1,.252.768,0.242,0.242,0,0,1,.151.051,0.242,0.242,0,0,0-.151.051,1.865,1.865,0,0,1,.1.768l0.252-.051a0.672,0.672,0,0,1,.05-0.358V20.6a0.241,0.241,0,0,0,.151-0.051c0.176-.275-0.1-0.85.05-1.178a5.736,5.736,0,0,0,.05-2.305c-0.044.038-.057,0.064-0.1,0.1V16.606a1.029,1.029,0,0,0-.05-0.717,1.776,1.776,0,0,0-.05-0.82l-0.2-2.305c-0.613-.007-0.873,0-1.311,0V12.713H51.6V12.662a4.656,4.656,0,0,0,1.261.051l-0.2-2.152h-0.1a0.181,0.181,0,0,1-.1.051V10.1A7.364,7.364,0,0,1,52.308,8a1.089,1.089,0,0,0,.1.666,0.2,0.2,0,0,1,.151-0.1C52.568,9.062,52.67,9.37,52.661,9.793Zm1.16,1.947h0.1v0.1h-0.1v-0.1Zm0.757,4.149a0.186,0.186,0,0,1,.05.1h-0.05v-0.1Zm-0.05.359a0.151,0.151,0,0,1,0,.2v-0.2Zm0.3,0a0.264,0.264,0,0,1,.05.154H54.83V16.247Zm-0.05.256a0.186,0.186,0,0,1,.05.1h-0.05V16.5Zm-1.664.82a1.142,1.142,0,0,1,0,.82v-0.82Zm-0.757.82h0.1v0.051A0.172,0.172,0,0,1,52.358,18.143ZM53.064,18.3a1.169,1.169,0,0,1,0,.768V18.3ZM25.322,18.6c0.056,0.085.089,0.055,0,.1V18.6Zm-1.362.307h0.1a0.311,0.311,0,0,1-.1.1v0.051h-0.05Zm0.2,0.154h0.1v0.051A0.172,0.172,0,0,1,24.161,19.065Zm0.252,0.2h0.1v0.051A0.172,0.172,0,0,1,24.414,19.27Zm28.6,0a1.169,1.169,0,0,1,0,.768V19.27Zm-6.86,3.381a0.186,0.186,0,0,1,.051.1H46.154v-0.1Zm-19.975.871a0.322,0.322,0,0,1-.2-0.051h0.1c0.065-.126-0.022-0.035.1-0.1v0.154Zm-0.353.051h0.1v0.051A0.172,0.172,0,0,1,25.826,23.572Zm0.252,0.051h0.1v0.051A0.172,0.172,0,0,1,26.078,23.624Zm0,0.359h0.1v0.1h-0.1v-0.1Zm0,0.154a0.186,0.186,0,0,1,.05.1h-0.05v-0.1Zm-22.194.307a0.264,0.264,0,0,1,.05.154H3.884V24.443Z" transform="translate(0 0.5)"/>
</svg>
