<?xml version="1.0" encoding="utf-8"?>
<!-- Generator: Adobe Illustrator 16.0.0, SVG Export Plug-In . SVG Version: 6.00 Build 0)  -->
<!DOCTYPE svg PUBLIC "-//W3C//DTD SVG 1.1//EN" "http://www.w3.org/Graphics/SVG/1.1/DTD/svg11.dtd">
<svg version="1.1" id="Layer_1" xmlns="http://www.w3.org/2000/svg" xmlns:xlink="http://www.w3.org/1999/xlink" x="0px" y="0px"
	 width="39.969px" height="40px" viewBox="0 0 39.969 40" enable-background="new 0 0 39.969 40" xml:space="preserve">
<path id="germ_pzkpfw_vi_ausf_b_tiger_iip_ico" fill="#FFFFFF" d="M12.181,14.579c0.014-0.072,0.021-0.146,0.019-0.219h0.07v-0.066
	h0.112c0.038-0.074,0.036-0.237,0.067-0.329h0.067v-0.2H14.1c0.019-0.121,0.026-0.156,0.178-0.153l0.022,0.11
	c0.069,0.001,0.137,0.016,0.2,0.044h1.026c0.008,0.161,0,0.322-0.022,0.482c0.124,0.089,0.23,0.2,0.312,0.329
	c0.176,0.077,0.366,0.115,0.558,0.11v-0.174H17.2v0.373c0.427,0.011,0.769,0.2,1.2,0.219c0.011-0.083,0.034-0.164,0.067-0.241
	c0.104-0.056,0.218-0.086,0.335-0.088c0.154,0.088,0.235,0.265,0.2,0.439c-0.006,0.021-0.017,0.008,0,0.022
	c0.1,0.066,0.279,0.044,0.379,0.11c0.247,0.27,0.514,0.519,0.8,0.746V16c-0.05-0.063-0.081-0.139-0.089-0.219
	c0.275-0.089,0.575-0.057,0.825,0.088c0.217,0.07,0.468,0.182,0.692,0.241h0.714c0.647,0,1.188-0.051,1.807-0.044v0.307
	l12.538,0.132h1.115c0.137-0.044,0.279-0.066,0.424-0.066v-0.084h0.134v0.088h0.022c0.088-0.028,0.177-0.05,0.268-0.066
	c0.132-0.099,0.284-0.167,0.446-0.2c0.236,0.136,0.513,0.183,0.78,0.132c0.166,0.271,0.158,0.614-0.021,0.877h-0.58
	c-0.057,0.056-0.139,0.08-0.199,0.132c-0.246-0.052-0.387-0.205-0.625-0.263h-0.373c-0.992-0.106-1.993-0.121-2.988-0.044
	c-0.572-0.042-1.147-0.035-1.719,0.022h-2.5c-0.713,0.151-1.699-0.09-2.453,0.022c-0.594,0.047-1.19,0.055-1.785,0.022l-2.477,0.044
	v0.285L21.6,17.386c-0.434,0.175-0.881,0.315-1.337,0.417c-0.05-0.045-0.13-0.063-0.178-0.11c0.057-0.059,0.089-0.137,0.089-0.219
	h-0.028c-0.241,0.264-0.563,0.439-0.915,0.5v0.395c0.067,0.001,0.135-0.006,0.2-0.022c0.158-0.12,0.03-0.183,0.357-0.175
	c0.119,0.022,0.242,0.015,0.357-0.022c0.167,0.044,0.34,0.059,0.513,0.044c0.078-0.033,0.161-0.055,0.245-0.066
	c-0.001,0.024,0.007,0.047,0.021,0.066c0.424-0.175,0.893-0.214,1.34-0.11c0.031,0.082,0.111,0.135,0.199,0.132
	c0.147-0.026,0.299-0.026,0.446,0v-0.128h0.134v-0.044c0.014-0.019,0.021-0.042,0.021-0.066h0.849v0.088h0.379
	c0.153,0.217,0.386,0.367,0.647,0.417c0.359-0.021,0.705,0.145,0.914,0.439c0.027,0.085,0.065,0.166,0.112,0.241
	c0.05-0.021,0.103-0.028,0.156-0.022v-0.065h-0.087c-0.033-0.054-0.056-0.113-0.067-0.175c-0.046-0.113-0.046-0.239,0-0.352
	c0.138-0.091,0.307-0.123,0.468-0.088c0.038,0.051,0.084,0.096,0.135,0.132v0.351c-0.085,0.096-0.209,0.145-0.336,0.133v0.064h0.135
	v0.131c0.035,0.014,0.074,0.021,0.111,0.022c0.114-0.046,0.239-0.054,0.357-0.022V19.4c-0.209-0.002-0.418,0.013-0.625,0.043
	c0.014,0.083-0.042,0.16-0.124,0.174c-0.003,0.001-0.007,0.002-0.01,0.002v0.021c0.392,0.053,0.771,0.18,1.114,0.373
	c0.223,0.082,0.438,0.177,0.647,0.285c0.165,0.112,0.337,0.016,0.335,0.307c-0.018,0.02-0.033,0.043-0.045,0.066
	c0.37,0.01,0.348,0.363,0.335,0.746c0.114,0.098,0.173,0.246,0.156,0.395c-0.053,0.002-0.105-0.005-0.156-0.021
	c0.007,0.159-0.015,0.2-0.178,0.2c-0.058-0.138-0.183-0.119-0.379-0.11c-0.013,0.012-0.028,0.02-0.045,0.021v0.089
	c0.029,0.114,0.029,0.235,0,0.351h0.089v0.022c-0.021,0.048-0.029,0.101-0.021,0.153c-0.059,0-0.052-0.028-0.09,0.043
	c-0.063,0.109-0.107,0.229-0.134,0.352c0.026,0.053,0.045,0.038,0.022,0.088c-0.011,0.039-0.025,0.075-0.045,0.109
	c-0.063-0.006-0.047-0.022-0.09,0c-0.107,0.094-0.199,0.205-0.268,0.33c0,0,0.064,0.028,0.045,0.043h-0.021l-0.067,0.089
	c-0.034-0.021-0.073-0.028-0.112-0.022c-0.101,0.052-0.197,0.11-0.29,0.176c-0.016,0.058-0.046,0.11-0.089,0.152
	c-0.02,0.018-0.043,0.033-0.066,0.044c-0.027-0.067-0.009-0.05-0.09-0.065c-0.117,0.083-0.244,0.15-0.379,0.199
	c0.008,0.063,0.023,0.045,0,0.088c-0.025,0.025-0.063,0.041-0.089,0.066c-0.052-0.016-0.093-0.074-0.11-0.044
	c-0.152,0.037-0.25,0.134-0.4,0.175c0,0.096,0.031,0.077-0.022,0.11c-0.026,0.024-0.063,0.04-0.089,0.065
	c-0.043-0.025-0.088-0.048-0.134-0.065c-0.118,0.093-0.255,0.161-0.399,0.2l0.021,0.109c-0.055,0.016-0.107,0.038-0.156,0.066
	c-0.027-0.068-0.008-0.051-0.089-0.066c-0.154,0.039-0.289,0.133-0.379,0.264h0.022v0.017c-0.086,0.011-0.095,0.031-0.179,0.044
	c-0.01-0.031-0.035-0.057-0.067-0.066c-0.12,0.08-0.257,0.133-0.399,0.154v0.11h-0.029V25.3c-0.155,0.011-0.312,0-0.558,0v0.11
	h-0.156c-0.006-0.039-0.031-0.072-0.066-0.088c-0.124,0.032-0.253,0.039-0.379,0.021v0.088h-0.156
	c-0.022-0.08-0.016-0.076-0.111-0.088c-0.102,0.029-0.207,0.037-0.313,0.022c-0.026,0.1-0.054,0.092-0.178,0.088v-0.086h-0.425
	v0.088c-0.053,0.001-0.104,0.009-0.156,0.022c0.002-0.042-0.015-0.082-0.045-0.11c-0.124,0.032-0.253,0.04-0.379,0.022
	c-0.005,0.008-0.013,0.016-0.022,0.021v0.066h-0.179v-0.088h-0.491v0.088h-0.156c-0.138-0.11-0.322-0.143-0.489-0.088
	c-0.022,0.1-0.019,0.092-0.178,0.088c-0.139-0.111-0.323-0.145-0.491-0.088v0.088h-0.158c-0.131-0.111-0.311-0.145-0.473-0.088
	c-0.027,0.1-0.054,0.092-0.178,0.088v-0.088h-0.465v0.088h-0.178c0.001-0.024-0.007-0.048-0.022-0.066
	c-0.139-0.035-0.283-0.043-0.424-0.021c-0.005,0.008-0.013,0.016-0.022,0.021v0.066h-0.179v-0.088h-0.469v0.088h-0.156
	c0.001-0.024-0.007-0.048-0.022-0.066c-0.139-0.035-0.283-0.043-0.424-0.021c-0.005,0.008-0.013,0.016-0.022,0.021v0.066h-0.157
	v-0.088h-0.468v0.088h-0.178c0.001-0.024-0.007-0.048-0.022-0.066c-0.146-0.036-0.297-0.043-0.446-0.021v0.021h-0.023v0.066h-0.179
	v-0.088h-0.491v0.088H13.5c0.001-0.024-0.007-0.048-0.022-0.066c-0.146-0.036-0.297-0.043-0.446-0.021v0.021h-0.026v0.066H12.85
	v-0.022h-0.022v-0.065H12.4v0.088h-0.152c0.001-0.024-0.007-0.048-0.022-0.066c-0.131-0.033-0.267-0.041-0.4-0.021v0.021H11.8v0.066
	h-0.155v-0.088H11.2v0.088h-0.135c-0.122-0.109-0.292-0.143-0.446-0.088v0.088h-0.178v-0.088H9.994v0.088H9.838
	c0.001-0.024-0.007-0.048-0.022-0.066c-0.139-0.035-0.283-0.043-0.424-0.021v0.088H9.236c-0.129-0.109-0.307-0.144-0.468-0.088
	v0.088H8.634C8.611,25.4,8.619,25.4,8.522,25.391c-0.101-0.029-0.208-0.037-0.312-0.022v0.022H8.187v0.065H8.031v-0.088H7.585v0.088
	H7.54c-0.072-0.055-0.156-0.093-0.245-0.11c-0.096,0.02-0.194,0.02-0.29,0c-0.027,0.101-0.054,0.092-0.178,0.088v-0.086
	c-0.151-0.014-0.301-0.043-0.446-0.089c-0.002,0.03-0.01,0.061-0.022,0.089c-0.043-0.016-0.088-0.022-0.134-0.022
	c0.002-0.047-0.024-0.091-0.067-0.11c-0.115-0.065-0.247-0.096-0.379-0.088c-0.041,0.021,0.02,0.041-0.089,0.066
	c-0.017-0.016-0.05-0.029-0.067-0.045c-0.025-0.035,0.021-0.047-0.045-0.088L5.22,24.93c-0.004,0.034-0.02,0.064-0.045,0.088
	c-0.033-0.022-0.072-0.037-0.112-0.043c0-0.038-0.008-0.076-0.022-0.11c-0.115-0.017-0.216-0.101-0.312-0.11
	c-0.071,0.027-0.146,0.043-0.223,0.044v-0.11c-0.151-0.063-0.308-0.115-0.468-0.153L4.016,24.6c-0.208-0.1-0.054-0.09-0.134-0.199
	c-0.12-0.06-0.232-0.133-0.335-0.219c-0.035,0.021-0.067,0.079-0.089,0.043c-0.12-0.1-0.031-0.105-0.067-0.199
	c-0.09-0.096-0.172-0.198-0.245-0.308c-0.057,0.02-0.118,0.027-0.178,0.022c-0.04-0.042-0.077-0.086-0.112-0.133
	c-0.042,0.035-0.046,0.041-0.089,0.022c-0.019-0.016-0.025-0.028-0.045-0.044V23.57c0.082-0.022,0.078-0.014,0.089-0.11
	c-0.024-0.175,0.016-0.353,0.112-0.5h0.066c0.056-0.26-0.02-0.53-0.2-0.724c-0.034-0.104-0.087-0.201-0.156-0.285H2.209
	l-0.022,0.109H2.075l-0.067-0.199c-0.206,0.199-0.529,0.258-0.759,0.438c-0.041,0.064-0.079,0.132-0.112,0.2
	c-0.061-0.052-0.01-0.016-0.112,0C1.009,22.457,1,22.41,1,22.364c0.148-0.138,0.269-0.301,0.357-0.482c-0.1-0.1-0.025-0.149,0-0.284
	c-0.132-0.17-0.244-0.354-0.335-0.549l0.022-0.46c0.106-0.004,0.208-0.042,0.29-0.11c-0.045-0.072-0.019-0.219-0.067-0.285
	c-0.042,0.035-0.046,0.041-0.089,0.022c-0.019-0.016-0.025-0.028-0.045-0.044c0.034-0.04,0.071-0.077,0.112-0.109
	c-0.018-0.104-0.083-0.194-0.178-0.241c-0.115-0.05-0.234-0.087-0.357-0.11v0.548c-0.028,0.003-0.053,0.02-0.067,0.044
	c-0.134-0.184-0.175-0.418-0.112-0.636c-0.3-0.101-0.285-0.11-0.268-0.5c0.142-0.056,0.261-0.157,0.337-0.29
	c-0.107-0.08-0.219-0.152-0.335-0.219c-0.076-0.016-0.151-0.038-0.223-0.066C0.018,18.566,0.003,18.535,0,18.5
	c0.056-0.075,0.053-0.213,0.112-0.285c0.02-0.011,0.043-0.017,0.066-0.015c0.069,0.041,0.145,0.07,0.223,0.088
	c0.233,0.074,0.431,0.229,0.558,0.438H1c0.17-0.14,0.358-0.258,0.558-0.351h0.58c0.018-0.071-0.011-0.034,0.045-0.066v0.066h0.093
	c0.045-0.078,0.106-0.146,0.178-0.2v-0.11h0.714l0.045-0.548c0.174-0.08,0.367-0.11,0.557-0.088V17.3h0.067v0.13h0.335
	c0.007-1.674,0.015-3.348,0.022-5.022v-1.36C4.167,10.866,4.175,10.68,4.216,10.5c0.007,2.31,0.015,4.62,0.022,6.93
	c0.058,0.027,0.111,0.064,0.156,0.11l0.045,0.767h0.045l0.022-0.044c0.019-0.032,0-0.106,0.022-0.154
	c0.118-0.078,0.264-0.101,0.4-0.066c0.181-0.061,0.373-0.075,0.56-0.043h0.535l0.045,0.066h0.825C6.91,18.039,6.933,18.017,6.96,18
	v-0.022H6.4l-0.02-0.066c0.081-0.085,0.135-0.192,0.156-0.307c-0.156-0.086-0.263-0.241-0.29-0.417
	c0.186-0.158,0.232-0.441,0.4-0.614c0.03,0.029,0.07,0.045,0.112,0.044c0.116-0.176,0.221-0.358,0.312-0.548
	c-0.066-0.023-0.127-0.061-0.178-0.11v-0.021h0.024c0.02-0.014,0.043-0.022,0.067-0.022c0.028,0.046,0.081,0.072,0.134,0.066
	c0.039-0.028,0.155-0.14,0.112-0.176c0.062-0.007,0.118-0.039,0.156-0.088c-0.018-0.033-0.026-0.072-0.022-0.11
	c0.172-0.035,0.244-0.089,0.468-0.131c0.059-0.209,0.251-0.354,0.469-0.351c-0.054-0.128-0.006-0.277,0.112-0.351
	c0.091-0.064,0.207-0.081,0.312-0.044c0.028,0.043,0.087,0.051,0.112,0.088c0.073,0.108-0.016,0.2,0.156,0.219
	c0.381-0.092,0.769-0.15,1.16-0.175c0.086-0.021,0.627-0.081,0.669-0.11l0.022-0.088l0.223-0.022c0.13-0.049,0.264-0.085,0.4-0.11
	C11.705,14.521,11.945,14.536,12.181,14.579z M10.039,18.373v-0.395H7.987V18c0.08,0.053,0.147,0.121,0.2,0.2
	c0.076-0.038,0.164-0.045,0.245-0.022v0.066H8.388c-0.042-0.023-0.093-0.023-0.134,0c0.016,0.049,0.061,0.084,0.112,0.088
	c0.186-0.016,0.374-0.008,0.558,0.022c0.103-0.023,0.207-0.038,0.312-0.044l0.022,0.066h0.781V18.373z"/>
</svg>
