<?xml version="1.0" encoding="utf-8"?>
<!-- Generator: Adobe Illustrator 16.0.0, SVG Export Plug-In . SVG Version: 6.00 Build 0)  -->
<!DOCTYPE svg PUBLIC "-//W3C//DTD SVG 1.1//EN" "http://www.w3.org/Graphics/SVG/1.1/DTD/svg11.dtd">
<svg version="1.1" id="Layer_1" xmlns="http://www.w3.org/2000/svg" xmlns:xlink="http://www.w3.org/1999/xlink" x="0px" y="0px"
	 width="39.969px" height="40px" viewBox="0 0 39.969 40" enable-background="new 0 0 39.969 40" xml:space="preserve">
<path id="germ_pzsfl_iva_dickermax_ico" fill="#FFFFFF" d="M14.637,13.749L16.12,14v-0.1h-0.189v-0.027
	c0.082-0.1,0.135-0.19,0.221-0.28h0.221v0.28H16.4c0.088-0.136,0.222-0.236,0.378-0.28c0.035,0.052,0.098,0.076,0.158,0.063
	c-0.014,0.118-0.046,0.233-0.095,0.342c-0.05-0.019-0.104-0.029-0.158-0.031v0.155c0.225,0.041,0.458,0.008,0.663-0.094
	c0,0.121-0.016,0.141,0.063,0.188c0.305,0.105,0.624,0.168,0.946,0.188l0.158,0.621c0.268,0.066,0.415,0.265,0.694,0.312v-0.217
	h0.031c0.463,0.083,0.917,0.208,1.357,0.373c0.057,0.105,0.089,0.222,0.095,0.342c0.601,0,1.28,0.031,1.925,0.031h0.788l0.098,0.125
	h0.82c0.035,0.038,0.066,0.08,0.095,0.124h2.366c0.078,0.045,0.152,0.097,0.221,0.154c0.24,0.101,1.118-0.033,1.419,0.031h1.325
	l2.681,0.031c0.547-0.039,1.096-0.029,1.64,0.031h1.101c0.846,0.051,1.694-0.013,2.524-0.188c0.506-0.122,1.025-0.174,1.545-0.154
	h0.41c0.271,0.316,0.377,0.744,0.285,1.15l-0.222,0.436c-0.763,0.074-1.531,0.011-2.271-0.187c-0.211-0.055-0.588,0.019-0.789-0.062
	l-0.063-0.094L34.6,17.295h-1.318c-0.535,0.059-1.073,0.069-1.609,0.031l-2.681,0.031H27.7c-0.231-0.009-0.464,0.002-0.694,0.031
	c-0.08,0.058-0.164,0.109-0.252,0.155h-2.338c-0.039,0.044-0.082,0.085-0.126,0.124H23.5l-0.095,0.124h-1.23v0.031h0.032
	c0.196,0.05,0.4,0.06,0.6,0.03v0.063c0.049,0.313,0.145,0.616,0.284,0.9c0.108-0.053,0.228-0.074,0.347-0.063
	c0.172,0.083,0.29,0.246,0.315,0.436l-0.158,0.279h0.063c0.122,0.083,0.312-0.013,0.473,0.063V19.6l0.758,0.155
	c0.079-0.036,0.164-0.057,0.252-0.062l0.094,0.187H25.3c0.019-0.17,0.058-0.19,0.252-0.187c0.073,0.006,0.147,0.006,0.222,0
	c0.034,0.086,0.076,0.17,0.125,0.248v-0.033c0.101-0.139,0.057-0.217,0.315-0.219c0.073,0.186,0.06,0.317,0.347,0.312v0.218
	c0.214,0.039,0.424,0.091,0.631,0.155h0.82c-0.02-0.556-0.272-0.269,0.158-0.685c0.061,0.039,0.215,0.05,0.284,0.094
	c0.034,0.089,0.045,0.186,0.032,0.279c0.006,0.105-0.004,0.211-0.032,0.312l0.883,0.093l0.063-0.093
	c0.212-0.036,0.43-0.015,0.631,0.062l0.5,0.188c0.123,0.115-0.01,0.211,0.221,0.249c-0.011,0.547-0.357,0.813-0.095,1.338
	c0.092,0,0.044-0.03,0.095,0s0.059,0.088,0.096,0.124c-0.047,0.119-0.059,0.248-0.033,0.373l0.158,0.031
	c0.088,0.092,0.133,0.215,0.127,0.342c-0.133,0.069-0.225,0.195-0.252,0.342c-0.033,0.08-0.055,0.164-0.063,0.249
	c0.1,0.026,0.048-0.015,0.095,0.062c-0.025,0.048-0.037,0.102-0.031,0.156c-0.042-0.012-0.086-0.012-0.127,0
	c-0.062,0.133-0.15,0.25-0.221,0.372c0.043,0.081,0.03,0.182-0.032,0.249l-0.095-0.062c-0.098,0.11-0.203,0.214-0.314,0.311
	l0.031,0.093c-0.02,0.039-0.1,0.08-0.126,0.125c-0.026-0.027-0.06-0.049-0.095-0.063c-0.098,0.073-0.203,0.137-0.314,0.188
	c-0.016,0.051-0.026,0.103-0.033,0.155c-0.021,0.026-0.1,0.035-0.125,0.062c-0.08-0.021-0.06-0.072-0.096-0.03
	c-0.133,0.047-0.261,0.109-0.379,0.187c0,0.09,0.03,0.043,0,0.094c-0.057,0.035-0.124,0.047-0.189,0.031
	c-0.119,0.074-0.246,0.137-0.379,0.187c0.008,0.1,0.068,0.075-0.031,0.124c-0.023,0.027-0.04,0.035-0.063,0.063
	c-0.079-0.021-0.059-0.074-0.095-0.031c-0.134,0.047-0.261,0.109-0.379,0.187c0,0.09,0.029,0.043,0,0.093
	c-0.057,0.036-0.125,0.047-0.189,0.031c-0.119,0.074-0.246,0.137-0.378,0.188c0.007,0.1,0.068,0.074-0.032,0.123
	c-0.141,0.086-0.074-0.026-0.221,0c-0.185,0.056-0.35,0.164-0.473,0.312c-0.152-0.055-0.316-0.065-0.473-0.031
	c-0.008,0.013-0.02,0.024-0.033,0.031v0.093c-0.229-0.01-0.432-0.061-0.726-0.062V27h-0.214v-0.093h-0.536V27H24.29v-0.093h-0.567
	V27H23.5v-0.093h-0.535V27h-0.189v-0.093h-0.441V27h-0.189v-0.093H21.7V27h-0.187v-0.093h-0.44V27h-0.19v-0.093h-0.441V27h-0.158
	v-0.093h-0.473V27h-0.158v-0.093h-0.442V27h-0.189v-0.093H18.58V27h-0.189v-0.093H17.95V27h-0.19v-0.093h-0.441V27h-0.19v-0.093
	h-0.441V27H16.5v-0.093h-0.443V27H15.9v-0.093h-0.474V27h-0.158v-0.093h-0.441V27h-0.19v-0.093H14.2V27h-0.194v-0.093h-0.441V27
	h-0.19v-0.093h-0.441V27h-0.189v-0.093H12.3V27h-0.186v-0.093h-0.442V27h-0.189v-0.093h-0.442V27h-0.158v-0.093
	C10.67,26.919,10.459,26.95,10.252,27v-0.093H9.811V27h-0.19v-0.093H9.18V27H8.991v-0.093H8.549V27H8.36v-0.093H7.918V27H7.729
	l0.032-0.093H7.287V27H7.1c0-0.148-0.189-0.109-0.41-0.093C6.646,27.011,6.639,27,6.5,27v-0.093
	c-0.293-0.005-0.376,0.019-0.631,0.03v-0.093H5.8c-0.162-0.094-0.356-0.116-0.536-0.062v-0.032H5.237v-0.093
	c-0.106-0.025-0.211-0.057-0.315-0.094c-0.108-0.021-0.142,0.047-0.315,0.031c0-0.035-0.011-0.068-0.033-0.096v-0.029
	c-0.121-0.014-0.23-0.078-0.315-0.093c-0.1-0.017-0.1,0.042-0.252,0.031c0-0.034-0.011-0.066-0.032-0.093
	c-0.172-0.098-0.374-0.13-0.568-0.094c0-0.033-0.011-0.066-0.032-0.093C3.202,26.065,3.022,26.021,2.839,26H2.808v-0.089
	C2.7,25.9,2.24,25.756,2.24,25.756H2.177l0.032-0.093c-0.132-0.097-0.258-0.201-0.379-0.312c-0.054,0.024-0.058,0.082-0.095,0.031
	c-0.171-0.121-0.129-0.4-0.315-0.56l-0.095,0.03v-0.062C1.272,24.587,1.23,24.379,1.2,24.169H1.1
	c0.01-0.223,0.052-0.442,0.126-0.653h-0.09L1.167,23.3H1.2c0.017,0.017,0.039,0.028,0.063,0.031
	c0.042-0.129,0.094-0.253,0.158-0.373c0.026-0.106-0.081-0.028-0.032-0.124c0.022-0.057,0.054-0.109,0.095-0.155H1.356
	c-0.028,0.021-0.061,0.031-0.095,0.031v-0.034H1.23c-0.007-0.142-0.05-0.279-0.126-0.4c-0.29-0.063-0.589-0.074-0.883-0.03
	c-0.03,0.057-0.097,0.083-0.158,0.062C0.029,22.216,0.008,22.12,0,22.023c0.142-0.109,0.26-0.245,0.347-0.4
	c0.015,0.113,0.008,0.113,0.095,0.154c0.118-0.051,0.225-0.125,0.315-0.217c-0.029-0.06-0.04-0.125-0.031-0.19H0.82
	c-0.011-0.327,0.007-0.7,0-1.089l0.38-0.063c0.032,0.256,0.141,0.454,0.158,0.746l0.189-0.031c-0.001-0.184-0.044-0.364-0.126-0.528
	c-0.058,0-0.028,0.028-0.063-0.031C1.297,20.259,1.285,20.124,1.325,20c0.291-0.026,0.577-0.089,0.852-0.188
	c0.267-0.073,0.518-0.066,0.757-0.154c-0.056-0.172-0.088-0.35-0.095-0.529c0.051-0.072,0.072-0.16,0.061-0.248
	C2.791,18.497,2.738,18.1,2.744,17.7c-0.051-0.019-0.104-0.029-0.158-0.031c-0.078-0.003-0.153-0.023-0.221-0.062
	c-0.028,0.111-0.14,0.18-0.252,0.154c-0.246-0.186-0.421-0.449-0.5-0.746c0.047-0.049,0.1-0.091,0.158-0.125
	c0.016-0.133,0.016-0.267,0-0.399h0.185c0.138-0.301,0.465-0.466,0.789-0.4c0.108,0.095,0.238,0.159,0.379,0.187
	c0.218-0.088,0.117-0.406,0.315-0.5c0.174-0.054,0.354-0.085,0.536-0.092c0.543-0.139,1.128-0.166,1.7-0.312
	c0.873-0.222,1.807-0.269,2.713-0.5c0.651-0.177,1.315-0.302,1.987-0.373c-0.056-0.568-0.067-1.141-0.032-1.711l0.189-0.156
	l0.315,0.031v0.373h-0.09V13.1c-0.063,0.422-0.074,0.85-0.031,1.275h0.063c0.388-0.133,0.791-0.216,1.2-0.249
	c0.415-0.115,0.88-0.148,1.325-0.28c0.347-0.155,0.72-0.24,1.1-0.249c0.008,0.013,0.019,0.023,0.032,0.031
	c0,0.116-0.038,0.076,0.095,0.093l0.031-9.954V1.058C14.52,0.706,14.531,0.348,14.606,0L14.637,13.749z"/>
</svg>
