<?xml version="1.0" encoding="utf-8"?>
<!-- Generator: Adobe Illustrator 16.0.0, SVG Export Plug-In . SVG Version: 6.00 Build 0)  -->
<!DOCTYPE svg PUBLIC "-//W3C//DTD SVG 1.1//EN" "http://www.w3.org/Graphics/SVG/1.1/DTD/svg11.dtd">
<svg version="1.1" id="Layer_1" xmlns="http://www.w3.org/2000/svg" xmlns:xlink="http://www.w3.org/1999/xlink" x="0px" y="0px"
	 width="39.969px" height="40px" viewBox="0 0 39.969 40" enable-background="new 0 0 39.969 40" xml:space="preserve">
<path id="germ_sturmpanzer_iv_brummbar_ico" fill="#FFFFFF" d="M15.201,10.875l0.15,0.03c-0.039,0.174,0.033,0.354,0.18,0.455
	c0.016-0.113,0.069-0.219,0.15-0.3c0.122-0.004,0.243-0.025,0.36-0.061v0.061h0.06c0.05-0.053,0.112-0.094,0.18-0.121
	c0.078,0.021,0.159,0.031,0.24,0.03c0.003,0.042,0.014,0.083,0.03,0.121c0.146-0.016,0.286,0.082,0.36-0.061
	c0.022-0.036,0.033-0.079,0.03-0.121c-0.07-0.022-0.132-0.064-0.18-0.121l0.18-0.03c0.032,0.033,0.075,0.054,0.12,0.061
	c0.03,0.122,0.02,0.25-0.03,0.364c0.094,0.018,0.185,0.048,0.27,0.091v-0.065h0.12l0.03,0.091c0.127-0.03,0.259-0.04,0.39-0.03
	c0.015,0.034,0.035,0.064,0.06,0.091c0.091,0.02,0.029-0.051,0.09-0.061c0.057-0.007,0.114,0.016,0.15,0.061
	c0.12,0.012,0.24,0.012,0.36,0c0.012,0.077-0.017,0.048,0.09,0.061c0.08-0.1,0.337,0.117,0.57,0c0.035-0.018,0.113-0.137,0.15-0.152
	c0.153-0.018,0.308,0.003,0.45,0.061c0.414,0.1,0.847,0.063,1.229,0.152l0.6,0.061l0.15,0.182c0.012,0.006,0.486,0.007,0.51,0
	c0.023-0.007-0.023-0.069,0.061-0.061c0.054,0.005,0.166,0.1,0.239,0.121c0.111-0.013,0.222-0.033,0.33-0.061
	c0.08,0.019,0.2,0.095,0.33,0.121c0.022-0.048,0.067-0.082,0.12-0.091c0.041,0.108,0.162,0.162,0.27,0.121h0.061v-0.09l-0.18-0.03
	l0.029-0.091c0.461,0.115,0.934,0.176,1.409,0.182v-0.272c-0.093-0.007-0.175-0.066-0.21-0.152c0.15-0.172,0.322-0.325,0.51-0.455
	c0.137,0.042,0.283,0.042,0.42,0v0.03c-0.084,0.128-0.061,0.361-0.149,0.485c-0.056,0.027-0.118,0.038-0.181,0.03
	c-0.002,0.173,0.008,0.345,0.03,0.516c0.151,0.065,0.317,0.086,0.479,0.061c0.414,0.094,0.836,0.155,1.26,0.182
	c-0.006,0.076,0.016,0.151,0.061,0.212c0.035,0.022,0.077,0.033,0.119,0.03c0.025-0.1-0.015-0.046,0.061-0.091
	c0.036,0.063,0.076,0.124,0.119,0.182c0.096-0.041,0.199-0.051,0.301-0.03c0.121,0.069,0.199,0.194,0.21,0.334
	c-0.032,0.033-0.054,0.075-0.06,0.121c0.095,0.177,0.257,0.308,0.449,0.364c0.248-0.064,0.508-0.053,0.75,0.03
	c0.326,0.061,0.641,0.173,0.93,0.334c0.159,0.164,0.33,0.316,0.51,0.455h1.83c0.034,0.079,0.064,0.161,0.09,0.243h3.058
	c0.047,0.016,0.101,0.105,0.15,0.121h0.714c0.123,0.465,0.152,0.949,0.09,1.426c-0.254,0.071-0.519,0.091-0.779,0.062
	c-0.293,0.16-0.632,0.214-0.96,0.151h-2.276c-0.088,0.353-1.014,0.224-1.439,0.212c-0.045,0.068-0.086,0.139-0.12,0.212h0.06
	c0.363,0.089,0.736,0.13,1.111,0.121c0.442,0.101,0.934,0.044,1.408,0.152c0.533,0.11,1.075,0.172,1.619,0.182
	c0.078-0.164,0.203-0.301,0.359-0.394l0.181,0.455l0.601,0.061v2.033l1.346,0.182c0.388,0.086,0.881-0.01,1.201,0.062
	c0.229,0.534,0.391,1.095,0.479,1.669c0.193,0.228,0.404,0.44,0.63,0.637c0.117,0.255,0.043,0.558-0.18,0.729l-0.09,0.029v0.971
	h-0.15l-0.029-0.879h-0.061c-0.143,0.004-0.285-0.018-0.42-0.062c-0.008,0.013-0.018,0.022-0.03,0.03v0.061
	c0.123,0.051,0.079,0.079,0.06,0.212c-0.041-0.003-0.082-0.013-0.119-0.03v0.152c0.158,0.068,0.156,0.061,0.149,0.334
	c-0.022,0.037-0.032,0.078-0.03,0.121h-0.119l-0.03,0.092c-0.224,0.308,0.11,0.561-0.149,0.788c-0.022,0.009-0.106,0.017-0.181,0.03
	c-0.04,0.143-0.124,0.271-0.24,0.364c0.036,0.064,0.047,0.14,0.03,0.212c-0.037,0.085-0.117,0.143-0.21,0.152
	c-0.193,0.018-0.374,0.104-0.511,0.242c0.043,0.068,0.031,0.158-0.029,0.213c-0.188,0.14-0.402,0.241-0.63,0.299
	c-0.411,0.187-0.824,0.414-1.259,0.607c-0.506,0.227-1.024,0.563-1.529,0.789s-1,0.428-1.5,0.667c-0.271,0.131-0.571-0.1-0.87,0
	c-0.246,0.086-0.515-0.1-0.81,0c-0.137,0.046-0.284,0.046-0.42,0c-0.209,0.032-0.42,0.052-0.631,0.062
	c-0.186-0.053-0.377-0.083-0.57-0.092v0.096c-0.314,0-0.453-0.088-0.81-0.092v0.092c-0.3,0-0.456-0.088-0.81-0.092
	c0,0.101-0.035,0.101-0.21,0.092c-0.185-0.095-0.396-0.127-0.601-0.092c0,0.101-0.035,0.101-0.209,0.092
	c-0.186-0.095-0.396-0.127-0.601-0.092c0,0.101-0.035,0.101-0.21,0.092c-0.166-0.115-0.371-0.159-0.57-0.121v0.121
	c-0.332,0-0.41-0.118-0.81-0.121v0.121c-0.132,0.012-0.263-0.032-0.36-0.121h-0.449v0.061c0.008,0.029,0.022,0.012,0,0.03
	c-0.066,0.029-0.139,0.04-0.211,0.03c-0.174-0.124-0.392-0.168-0.6-0.121v0.121c-0.121-0.002-0.236-0.045-0.33-0.121h-0.473v0.029
	c0.02,0.027,0.03,0.059,0.031,0.092c-0.133,0.012-0.263-0.032-0.36-0.121h-0.45v0.121c-0.123,0.012-0.244-0.033-0.33-0.121h-0.48
	v0.121c-0.3,0-0.434-0.133-0.78-0.152c-0.019,0.049-0.028,0.1-0.03,0.152c-0.136,0-0.265-0.056-0.36-0.152h-0.42
	c-0.007,0.012-0.018,0.022-0.03,0.03c0,0.088,0.029,0.042,0,0.091c-0.066,0.029-0.139,0.039-0.21,0.029
	c-0.146-0.154-0.367-0.213-0.57-0.151c-0.007,0.013-0.018,0.022-0.03,0.03c0.016,0.038,0.026,0.079,0.03,0.121h-0.24
	c-0.146-0.155-0.366-0.215-0.57-0.152v0.154h-0.24c-0.139-0.165-0.367-0.226-0.57-0.152v0.152h-0.24
	c-0.064-0.2-0.312-0.164-0.57-0.152v0.152c-0.071,0.01-0.144-0.001-0.21-0.03c-0.167-0.114-0.372-0.157-0.57-0.121
	c-0.007,0.013-0.018,0.022-0.03,0.03c0,0.088,0.029,0.042,0,0.091c-0.066,0.029-0.139,0.04-0.21,0.03
	c-0.14-0.165-0.367-0.226-0.57-0.152c-0.007,0.012-0.018,0.022-0.03,0.03c0.016,0.038,0.026,0.079,0.03,0.12h-0.24
	c-0.14-0.164-0.367-0.225-0.57-0.151v0.121c-0.078,0.022-0.159,0.033-0.24,0.03c-0.082-0.2-0.3-0.166-0.57-0.152v0.154h-0.24
	c-0.077-0.2-0.2-0.165-0.54-0.152c-0.019,0.049-0.028,0.1-0.03,0.152h-0.21c-0.14-0.165-0.367-0.226-0.57-0.152
	c-0.018,0.049-0.028,0.1-0.03,0.152h-0.21c-0.082-0.2-0.3-0.165-0.57-0.152c-0.018,0.049-0.028,0.1-0.03,0.152H9.804l-0.06-0.152
	c-0.169-0.02-0.34-0.029-0.51-0.03v0.183h-0.24c-0.03-0.078,0.012-0.063-0.06-0.121c-0.161-0.07-0.342-0.081-0.51-0.03v0.121
	l-0.27-0.03v-0.122c-0.164-0.073-0.379-0.112-0.57-0.182c-0.015,0.123-0.006,0.124-0.12,0.151c-0.046-0.024-0.098-0.035-0.15-0.029
	v-0.122c-0.18-0.112-0.387-0.176-0.6-0.183c0,0.033-0.01,0.065-0.03,0.092c-0.036,0.022-0.078,0.033-0.12,0.029
	c-0.036-0.021-0.078-0.032-0.12-0.029l-0.03-0.182c-0.178-0.051-0.358-0.092-0.54-0.121c-0.007,0.055-0.028,0.106-0.06,0.151
	c-0.056-0.039-0.158-0.049-0.21-0.091c-0.016-0.066-0.06-0.121-0.12-0.152c-0.146-0.079-0.314-0.111-0.48-0.091
	c-0.006,0.046-0.027,0.089-0.06,0.121c-0.053-0.039-0.155-0.051-0.207-0.091c-0.013-0.039-0.023-0.08-0.03-0.121
	c-0.178-0.085-0.373-0.127-0.57-0.121c0,0.079,0.039,0.068-0.06,0.121c-0.056-0.031-0.117-0.053-0.18-0.061
	c-0.006-0.063-0.039-0.117-0.09-0.152c-0.152-0.096-0.332-0.138-0.51-0.121c-0.006,0.046-0.027,0.088-0.06,0.121
	c-0.063-0.038-0.136-0.059-0.21-0.061v-0.152c-0.169-0.096-0.351-0.168-0.54-0.213c-0.035,0.037-0.055,0.086-0.09,0.121
	c-0.062-0.063-0.183-0.084-0.24-0.151c-0.04-0.225-0.185-0.417-0.39-0.517c-0.04,0.038-0.099,0.05-0.15,0.03
	c-0.22-0.178-0.075-0.769-0.448-0.784v0.03c-0.03,0.03-0.03-0.03-0.03-0.03c-0.209-0.273,0.12-0.578-0.09-0.88
	c-0.036-0.022-0.078-0.032-0.12-0.03v-0.397h0.09l0.03-0.062c0.063-0.145,0.104-0.298,0.12-0.455c-0.1-0.028-0.093-0.012-0.12-0.12
	c0.018-0.039,0.051-0.216,0.09-0.3c0.048,0.016,0.101,0.016,0.15,0c0.062-0.133,0.143-0.256,0.24-0.364
	c-0.026-0.078-0.036-0.161-0.03-0.243c0.023-0.1,0.108-0.173,0.21-0.182c0.036,0.021,0.078,0.032,0.12,0.029
	c0.103-0.118,0.225-0.22,0.36-0.3c-0.016-0.038-0.026-0.079-0.03-0.121c-0.038-0.03-0.058-0.13-0.09-0.151H1.258
	c-0.086,0.195-0.197,0.379-0.33,0.545H0.899v-0.029l-0.42-0.3c-0.108,0.013-0.217-0.021-0.3-0.091
	c-0.187-0.264-0.252-0.596-0.18-0.91h0.09c-0.024,0.152,0.02,0.308,0.12,0.425l1.56-0.83c0.021-0.103,0.05-0.203,0.09-0.3
	c-0.135-0.443-0.155-0.912-0.06-1.365c0.357-0.039,0.709,0.11,0.93,0.395c0.037,0.064,0.058,0.137,0.06,0.211
	c0.259,0.024,0.52,0.034,0.78,0.03c0.023-0.183,0.1-0.235,0.12-0.425c-0.26-0.08-0.462-0.285-0.54-0.546
	c-0.001-0.101-0.011-0.201-0.03-0.3c-0.175,0.061-0.365,0.061-0.54,0c-0.008-0.336,0.022-0.672,0.09-1
	c0.006-0.082-0.004-0.165-0.03-0.243l0.09-0.728c0.128-0.396,0.218-0.802,0.27-1.214c0.184-0.006,0.368,0.025,0.54,0.091
	c0.021,0.069,0.032,0.14,0.03,0.212c-0.037,0.118-0.047,0.242-0.03,0.364l0.15,0.03v-0.066c0.027-0.172,0.088-0.337,0.18-0.485
	c0.169-0.035,0.346-0.025,0.51,0.03c0.031,0.428-0.01,0.859-0.12,1.274c0.192,0.017,0.164,0.134,0.15,0.334
	c-0.02,0.026-0.03,0.059-0.03,0.091c0.137,0.012,0.271,0.053,0.39,0.121c0.274-0.232,0.651-0.302,0.99-0.182l-0.03-0.729
	c0.491,0.048,0.987,0.018,1.469-0.091c0.091-0.025,0.188,0.012,0.24,0.091h2.789c0.422,0,1.4,0.131,1.559-0.151
	c0.131-0.334,0.231-0.68,0.3-1.032c0.15,0,0.034-0.039,0.12-0.091h1.529c0.03-0.092,0.082-0.175,0.15-0.243
	c-0.053-0.059-0.084-0.133-0.09-0.212c0.075-0.091,0.134-0.194,0.174-0.304h-0.12c-0.238,0.044-0.482,0.044-0.72,0v-0.03
	c0.104-0.153,0.195-0.315,0.27-0.485c0.193-0.316,0.408-0.654,0.6-0.971c0.04-0.208,0.172-0.387,0.36-0.486
	c0.136-0.04,0.28-0.05,0.42-0.03V11.36c0.033,0,0.064-0.01,0.09-0.03h0.03c0.028-0.141,0.048-0.282,0.06-0.425
	c0.234-0.046,0.15-0.377,0.15-0.637V8.357c0.064-0.452,0.074-0.911,0.03-1.365V3.381c-0.044-0.455-0.034-0.913,0.03-1.365
	L15.201,10.875z M39.159,22.676c0.073,0.039,0.021-0.013,0.06,0.061h-0.06c-0.007,0.014-0.018,0.023-0.03,0.031L39.159,22.676z
	 M39.249,22.828c0.02,0.026,0.03,0.059,0.03,0.091h-0.061v-0.03C39.235,22.872,39.246,22.852,39.249,22.828z M39.159,22.889
	c0.034,0.051,0.053,0.032,0,0.062V22.889z M39.189,23.102c0.032-0.001,0.064,0.01,0.09,0.029c0.059,0.054,0.082,0.136,0.06,0.212
	v0.03l-0.06-0.03c-0.012,0.079,0.021,0.04-0.061,0.062C39.193,23.305,39.184,23.203,39.189,23.102z M39.489,23.891
	c-0.101,0.024-0.046-0.016-0.091,0.061c0,0.056,0.028,0.027-0.029,0.061c-0.026,0.02-0.058,0.03-0.09,0.03l-0.03-0.091
	c-0.026-0.13-0.036-0.262-0.03-0.395c0.049-0.018,0.1-0.027,0.15-0.029c0.045,0.046,0.086,0.097,0.12,0.151
	C39.512,23.748,39.512,23.821,39.489,23.891z"/>
</svg>
