<svg xmlns="http://www.w3.org/2000/svg" width="80" height="40" viewBox="0 0 80 40">
  <defs>
    <style>
      .cls-1 {
        fill: #fff;
        fill-rule: evenodd;
      }
    </style>
  </defs>
  <path id="germ_destroyer_class1934a_1940_ico" class="cls-1" d="M53.956,12.792c0.167,1.661.4,3.427,0.606,5.044h0.454c-0.021-.289-0.349-0.768.353-0.757a0.36,0.36,0,0,0,.2.1v0.454h-0.1a0.636,0.636,0,0,0-.151.05,0.257,0.257,0,0,1,.05.151,1.756,1.756,0,0,0,.656-0.05v0.2h-0.05c-0.1-.165-0.2-0.1-0.3,0-0.063-.119-0.027-0.1-0.2-0.1v0.1c-0.013.049-.039,0.019,0,0.05,0.106,0.064.4,0.035,0.5,0.1a1.931,1.931,0,0,0-1.363.4,0.325,0.325,0,0,1,.1.252c-0.132.019-.066-0.038-0.1,0.1a0.437,0.437,0,0,1,.05.252c0.128,0.02.08-.029,0.1,0.151-0.15.092,0.013,0.279,0.05,0.5-0.1,0-.014-0.052-0.1,0a0.34,0.34,0,0,1,.05.2h0.454V19.752h1.413l0.05-.5h0.1c0.337,0.227.494-.059,0.858,0.2a0.214,0.214,0,0,0-.1.252,9.421,9.421,0,0,0,2.322.05c0.048-.171.019-0.157,0.2-0.2v0.1c-0.132.019-.066-0.037-0.1,0.1h0.606v0.1a0.584,0.584,0,0,0-.1.454h0.05v-0.05a0.584,0.584,0,0,0,.1-0.151h0.05v0.1a0.415,0.415,0,0,0-.151.5h-0.2a1.785,1.785,0,0,1,0,.757h0.151a0.243,0.243,0,0,1,.05-0.151,2.755,2.755,0,0,1,1.06-.05,0.182,0.182,0,0,0,.1.05,0.359,0.359,0,0,0,.2.3,4.15,4.15,0,0,0-.1,1.261h0.1V22.173h1.11c0-.37.092-0.437,0.1-0.807a4.349,4.349,0,0,1,1.262.151,2.249,2.249,0,0,1,.252.4h1.363a2.137,2.137,0,0,0,.858.05v0.1a3.014,3.014,0,0,0-.858.05v0.05a2.324,2.324,0,0,1,1.565.605c0.356,0.175.984,0.015,1.211,0.151a0.22,0.22,0,0,1,.151.151,0.34,0.34,0,0,1,.1.252l2.221,0.05v0.1h-0.5a4.613,4.613,0,0,1-1.666.05v0.1a2.021,2.021,0,0,1,.1.5h0.2c0.1-.207.261-0.273,0.353-0.454a0.181,0.181,0,0,1,.05.1c0.1,0.083-.035.059,0.1,0.1a1.781,1.781,0,0,0,.757.05v0.05a0.575,0.575,0,0,0,0,.3h0.757a0.257,0.257,0,0,1,.151-0.05V24.09a0.244,0.244,0,0,1-.151-0.05,0.182,0.182,0,0,1-.05-0.1c0.159-.176.033-0.2,0.454-0.2,0,0,.01-0.2.05-0.1v0.1a0.662,0.662,0,0,0,.454.252,1.223,1.223,0,0,0,.5,0,0.653,0.653,0,0,1,.05-0.353,0.653,0.653,0,0,0,.05.353,0.8,0.8,0,0,0,.4.05,0.962,0.962,0,0,0,.757-0.2c0.007,0.19-.024.177,0.1,0.252a0.992,0.992,0,0,1,.2-0.05,0.34,0.34,0,0,0,.05-0.2h0.2c0.033,0.184.041,0.215,0.151,0.252,0.068-.04,1.61,0,2.019,0a1.5,1.5,0,0,1,.05-0.656V24.09l0.959-.05a1.5,1.5,0,0,1,.05-0.656,0.816,0.816,0,0,0,.1.656,6.736,6.736,0,0,1,1.615-.151c0.059-.258.234-0.486,0.3-0.706,0.105-.339-0.163-0.987.1-1.16v0.05H80c-0.2.625,0.083,1.871-.1,2.673l-0.757,5.6c-14.227.006-28.344-.05-42.549-0.05L16,30.344c-0.162-.051-0.4-0.244-0.555-0.3a11.7,11.7,0,0,0-1.413-.3,4.9,4.9,0,0,0-1.817.1l-2.322.1a4.921,4.921,0,0,1-2.019.252l-0.1.706a0.534,0.534,0,0,1-.252.1,4.535,4.535,0,0,0-.2-0.5l-0.151.05V30.294a0.182,0.182,0,0,0,.05-0.1,0.172,0.172,0,0,1-.1-0.051,9.835,9.835,0,0,1-2.019-.05,0.76,0.76,0,0,1-.1-0.2,2.55,2.55,0,0,1-.2-1.463,13.062,13.062,0,0,0-2.12.05L1.363,26.007c-0.047-.2.109-0.106,0.05-0.252-0.1-.416-0.388-0.7-0.5-1.11-0.148.02-.063,0.083-0.151-0.05A4.125,4.125,0,0,0,.2,23.283c-0.148.02-.063,0.082-0.151-0.05A0.391,0.391,0,0,1,.2,23.081v0.1c0.448,0.495.489,1.343,1.06,1.715-0.071.12-.086,0.029-0.05,0.151C1.29,25.4,1.639,25.7,1.666,25.906a10.425,10.425,0,0,1,1.211,0l0.05-.2c-0.171.014-.281,0.043-0.3-0.252h0.1a0.341,0.341,0,0,1,.2-0.05,0.856,0.856,0,0,1,.05-0.3h0.05a1.06,1.06,0,0,0,.05.5v-0.05a2.347,2.347,0,0,0,.5-1.009H3.533a0.8,0.8,0,0,1-.252.252V24.7a3.934,3.934,0,0,1,.808-0.807v0.05c-0.423.465-.695,1.659-1.06,1.967a0.436,0.436,0,0,0,.252.05,0.791,0.791,0,0,0,.05-0.252h0.4a0.782,0.782,0,0,1,.05-0.4,0.919,0.919,0,0,0,.05.454,2.443,2.443,0,0,1,.909-0.05,0.782,0.782,0,0,1,.05-0.4,0.919,0.919,0,0,0,.05.454,0.8,0.8,0,0,1,.4-0.05,0.391,0.391,0,0,0,0,.2H5.3v-0.05A0.258,0.258,0,0,0,5.35,25.7h0.4a0.783,0.783,0,0,1,.05-0.4v0.656h0.5a0.225,0.225,0,0,0-.1-0.2c0.089-.084.08,0.025,0.1-0.151h0.2v0.353h0.2a1.5,1.5,0,0,1,.05-0.656,0.653,0.653,0,0,0,.05.353,0.437,0.437,0,0,1,.252-0.05,1.345,1.345,0,0,0-.1-0.3h0.1a0.7,0.7,0,0,1,.5,0v0.1a0.468,0.468,0,0,0-.05.5,0.925,0.925,0,0,0,.3.05,1.5,1.5,0,0,1,.05-0.656v0.656h1.11V25.8a0.89,0.89,0,0,1,.2-0.151,1.181,1.181,0,0,1,.5-0.151v0.454a3.478,3.478,0,0,0,1.615-.1H10.953C10.942,25.6,11,25.529,11,25.2l-2.17-.05V25h2.221a0.515,0.515,0,0,1,.2-0.4c0.211-.109,1.1.009,1.262-0.3a0.365,0.365,0,0,1-.3-0.252,2.332,2.332,0,0,0,1.11-.3,0.9,0.9,0,0,0,.555-0.151H12.77v-0.1l2.221-.05c0.095-.668.912-0.4,1.514-0.605-0.017.453,0.057,0.433,0.05,0.857h0.959v-0.4l-0.454-.1a4.938,4.938,0,0,0,0-.757,1.28,1.28,0,0,0,.707-0.151v-0.05H17.01v-0.05a8.5,8.5,0,0,1,1.565,0,0.64,0.64,0,0,1,.05-0.2h0.05v0.05a0.594,0.594,0,0,1,.1.4h0.5a1.3,1.3,0,0,1,.1-0.454h0.051v0.05a0.583,0.583,0,0,1,.1.151,4.275,4.275,0,0,1,1.514.05,1.656,1.656,0,0,0-.707.05c0.175,0.091.081,0.064,0.151,0.2a2.493,2.493,0,0,1,.707-0.05,4.715,4.715,0,0,0,0,.757H21.047v0.5h0.606c0-.37.092-0.437,0.1-0.807a4.366,4.366,0,0,1,1.262.151,2.233,2.233,0,0,1,.252.4h1.514a1.676,1.676,0,0,0,.707.05v0.1a3.42,3.42,0,0,0-.959.05v0.05h1.211a0.23,0.23,0,0,1,.2.05H24.984v0.2h0.05a0.911,0.911,0,0,1,.656-0.1v0.05h0.05c0.01,0.182-.075.1,0.1,0.151a0.652,0.652,0,0,1,.353-0.3V23.586H26.044v-0.1a1.357,1.357,0,0,0,.05-0.958,13.559,13.559,0,0,1-.252-2.471,3.237,3.237,0,0,1-.808-0.656h0.1a1.374,1.374,0,0,1,.606-0.05l-0.1-1.21h0.1a8.034,8.034,0,0,0,.2,2.017l0.05,0.958c0.178,0.775.214,1.765,0.353,2.522a4.587,4.587,0,0,0,.05.756,0.618,0.618,0,0,1,.555.1H26.4a1.867,1.867,0,0,0,.151.908c0.3-.3,1.046.285,1.312-0.1h-0.4a0.722,0.722,0,0,0-.05-0.252c-0.082.045,0.006,0.053-.05,0.1-0.078.067-.043-0.088-0.05-0.1l-0.5.05v-0.05c0.044-.084.04-0.315,0.1-0.454,0.325,0,.1-0.074.3-0.151a1.7,1.7,0,0,1,.454.1c0.033-.043.067-0.159,0.1-0.2a0.244,0.244,0,0,0,.05.151,0.183,0.183,0,0,1,.1-0.05,0.243,0.243,0,0,0,.05.151c0.241-.257,1.81.04,2.473,0.05V24.04H30.89a0.273,0.273,0,0,1,.151-0.2v0.05c0.135,0.18.054,0.157,0.5,0.151a0.683,0.683,0,0,0,.05.555,4.149,4.149,0,0,0,1.514.05,0.244,0.244,0,0,1-.05.151,4.044,4.044,0,0,1-.908.1,1.828,1.828,0,0,0-.3.2,1.591,1.591,0,0,1-.5,0,1.8,1.8,0,0,0-.808.05c-0.034.039-.066,0.113-0.1,0.151V25.149a0.639,0.639,0,0,0-.2.05c0.191,0.27.344,0.209,0.909,0.2,0.048-.09.619,0.083,0.959,0V25.3a1.239,1.239,0,0,0,.707.1c0.159-.015.088-0.071,0.151-0.1a4.8,4.8,0,0,1,1.06.1V24.342H32.252a1.829,1.829,0,0,1,.3-1.059c0.134,0.3,1.3.259,1.716,0.252a3.208,3.208,0,0,1,.1-1.513v0.252h0.656l0.05-.5h0.1c0.331,0.231.444,0,.808,0.252a0.592,0.592,0,0,0-.1.252h0.908V22.022h0.1v0.151a9.022,9.022,0,0,1,1.06,0V21.568L37.5,21.417v-0.1c0.2,0,.227.025,0.3-0.1a0.742,0.742,0,0,1,.1-0.3H37.7V20.458a1.754,1.754,0,0,1,.606-0.1,0.562,0.562,0,0,1,0,.5,0.437,0.437,0,0,1-.252.05c0.045,0.2.111,0.181,0.151,0.4a3.573,3.573,0,0,0,.858-0.05V20.61a2.424,2.424,0,0,1-.1-0.555,0.449,0.449,0,0,1,.151-0.151c-0.048-.1-0.025.01-0.1-0.05a0.522,0.522,0,0,0,.05-0.5h0.1l1.817-.656a4.583,4.583,0,0,0,.1.958c0.041,0.1.211,0.12,0.252,0.2,0.032,0.064-.022.04-0.05,0.05a2.353,2.353,0,0,0,0,.706,10.653,10.653,0,0,1,.2,2.119h0.1a1.461,1.461,0,0,1,1.11-.151,0.308,0.308,0,0,0,.1.1,2.6,2.6,0,0,1-.05.4c-0.094.057-.361,0.042-0.454,0.1A3.474,3.474,0,0,1,42.448,25a3.22,3.22,0,0,1,.454.4,0.818,0.818,0,0,0,.656-0.1H43.407a0.638,0.638,0,0,0-.05-0.2l-0.151.05c-0.02-.128.029-0.08-0.151-0.1a0.546,0.546,0,0,1-.3.05,2.661,2.661,0,0,0,0-.4c0.108-.057.312-0.223,0.4-0.252,0.392-.126.132,0.291,0.656-0.1,0.021,0.181-.024.127,0.1,0.2a11.253,11.253,0,0,1,2.473.1V24.04h0.454v-0.2h0.2a2.9,2.9,0,0,0,.051-0.807h0.4a1.06,1.06,0,0,1,.05-0.5V22.98a9.938,9.938,0,0,0,1.413-.1V22.526h0.4c0.153-.35.07-0.4,0.2-0.706a0.431,0.431,0,0,1-.3-0.151,0.664,0.664,0,0,0,.05-0.4,1.506,1.506,0,0,0,.555,0,1.1,1.1,0,0,1,.4-0.2c0.044,0.208-.038.188,0.252,0.2v-0.1a3.15,3.15,0,0,1-.1-1.11c-0.051-.246-0.29-0.191-0.353-0.454a0.715,0.715,0,0,1,.2-0.05,0.182,0.182,0,0,0,.1.05,6.316,6.316,0,0,1-.1-0.958h0.051v-0.05l0.2,0.05V18.491a0.557,0.557,0,0,1-.05-0.353,13.274,13.274,0,0,1,2.069-.656,1.638,1.638,0,0,1,.656-0.1h0.1c-0.321.469,0.194,1.2,0.2,1.614a0.244,0.244,0,0,1,.151.05H53.5l0.2,2.219h0.05a1.525,1.525,0,0,1,.656-0.05,1.336,1.336,0,0,0-.1-0.555,3.125,3.125,0,0,0,.2-1.16,7.018,7.018,0,0,0-.252-1.362c-0.074-.073.1-0.046,0.1-0.05a3.123,3.123,0,0,0-.05-0.605,45.2,45.2,0,0,1-.5-4.691c-0.614-.007-0.873,0-1.312,0v-0.1H53.8l-0.2-2.118H53.5a0.183,0.183,0,0,1-.1.05V10.068A7.044,7.044,0,0,1,53.249,8V8.5a0.934,0.934,0,0,1,.05.454h0.1c-0.007-.2-0.027-0.276.1-0.353,0.016,1.261.391,2.253,0.4,3.884h0.1V11.833a0.143,0.143,0,0,1-.05-0.05c0.208-.011.274,0,0.555,0v0.1a2.589,2.589,0,0,0-.2.807h1.666v0.1a0.181,0.181,0,0,0-.05.1A6.927,6.927,0,0,0,53.956,12.792Zm0.454-1.412c0.056,0.084.089,0.054,0,.1v-0.1Zm0.353,0.4h0.1v0.05A0.173,0.173,0,0,1,54.763,11.783Zm0.959,5.6a0.258,0.258,0,0,1,.05.151h-0.05V17.382Zm0.3,0.1a0.147,0.147,0,0,1,0,.2v-0.2Zm-30.233,1.21h0.1v0.05A0.173,0.173,0,0,1,25.792,18.693Zm-1.413.2,0.152,0.05V19H24.48a0.182,0.182,0,0,1-.1.05V18.895Zm0.252,0.2h0.1v0.05A0.173,0.173,0,0,1,24.631,19.1Zm0.2,0.151,0.151,0.05v0.05A0.192,0.192,0,0,1,24.833,19.248ZM37.3,20.761a0.182,0.182,0,0,1,.05.1H37.3v-0.1Zm1.413,0a0.182,0.182,0,0,1,.05.1h-0.05v-0.1Zm-1.363.2a0.182,0.182,0,0,1,.05.1H37.35v-0.1Zm0.2,0.05a0.181,0.181,0,0,1,.05.1h-0.05v-0.1Zm9.287,1.412a0.182,0.182,0,0,1,.05.1h-0.05v-0.1ZM0,23.384H0.1C0.041,23.465.08,23.446,0,23.384Zm26.6,0a0.339,0.339,0,0,1,0,.353A0.491,0.491,0,0,1,26.6,23.384Zm-0.252.2h0.1v0.05A0.173,0.173,0,0,1,26.347,23.586Zm0.252,0.4a0.147,0.147,0,0,1,0,.2v-0.2Zm-22.562.5a0.436,0.436,0,0,1,.05.252h-0.1V24.7A0.34,0.34,0,0,0,4.038,24.493ZM1.615,25.3h0.1C1.656,25.382,1.695,25.362,1.615,25.3Z" transform="translate(0 0.5)"/>
</svg>
