<svg xmlns="http://www.w3.org/2000/svg" width="39.969" height="40" viewBox="0 0 39.969 40">
  <defs>
    <style>
      .cls-1 {
        fill: #fff;
        fill-rule: evenodd;
      }
    </style>
  </defs>
  <path id="germ_panzerjager_nashorn_ico" class="cls-1" d="M14.3,16.993a2.067,2.067,0,0,0,.223-0.066v0.022h0.022l-0.022.087H16.5V16.993a4.231,4.231,0,0,1-.49-1.028,0.16,0.16,0,0,1,.134-0.044,3.037,3.037,0,0,1,.468.831,0.83,0.83,0,0,0,.134.284h0.334a2.058,2.058,0,0,0-.067-0.59h0.022v0.022a7.5,7.5,0,0,1,.6,1.2,0.9,0.9,0,0,0,.134.284L22.116,18V16.6a1.483,1.483,0,0,1,.022-0.547V18a1.521,1.521,0,0,0,.49-0.044h1.648a20.818,20.818,0,0,0,2.272-.044v0.109h0.178v0.087c2.523,0,5.082.066,7.661,0.066l3.029,0.044a1.061,1.061,0,0,1,.089-0.088l0.958-.022c0.122-.032.277-0.129,0.4-0.153a0.182,0.182,0,0,1,.156.066l0.869,0.022v0.044a1.127,1.127,0,0,1,0,.875H39.042a1.029,1.029,0,0,1-.69-0.066,2.728,2.728,0,0,0-.579-0.044H37.483a4.228,4.228,0,0,0-1.136-.066l-8.04.087v0.262H28.129v0.437h-0.2V19.136h-0.2V18.874l-1,.022v0.088H26.481v0.066H22.628c0,0.192.039,0.274,0.044,0.437h0.111a1.328,1.328,0,0,1,.022.372H22.695a0.063,0.063,0,0,1-.022.022,0.157,0.157,0,0,1-.044.175,1.306,1.306,0,0,0-.49-0.022q0.011,0.612.022,1.225h0.668a0.435,0.435,0,0,1,.245-0.087,0.847,0.847,0,0,1,.178.087L24.1,21.28a0.8,0.8,0,0,1,.223.219,1.385,1.385,0,0,0-.022.175h0.067V21.651h0.022v0.022a0.436,0.436,0,0,1,.111.131,0.228,0.228,0,0,0-.067.153c0.4,0.1.7,0.395,1.091,0.5-0.01-.128-0.026-0.172.089-0.219A0.152,0.152,0,0,1,25.7,22.22a0.6,0.6,0,0,1,.111-0.328c0.174,0,.345-0.011.49-0.022v0.066a0.2,0.2,0,0,1,.156.066,0.587,0.587,0,0,1-.044.59,0.2,0.2,0,0,1-.111.022v0.066l-0.245-.022v0.022a0.079,0.079,0,0,1,.022.044c0.279,0.132.582,0.335,0.869,0.437a1.651,1.651,0,0,0,.4-0.022L27.372,23.2c0.006,0,.406.083,0.423,0.087l0.134-.022a0.324,0.324,0,0,1,.067.087,2.51,2.51,0,0,0,.29.131,1.382,1.382,0,0,0,.2,0,2.018,2.018,0,0,1,.134.328,5.57,5.57,0,0,1,.891,1.269,1.155,1.155,0,0,0-.356.066,0.48,0.48,0,0,1-.267-0.066H28.508v0.044a0.079,0.079,0,0,1,.022.044c0.1,0,.112,0,0.134.088a0.159,0.159,0,0,1,.045.131l-0.067.022v0.394h0.089v0.044a0.459,0.459,0,0,1,.022.219,0.52,0.52,0,0,0-.2.35h0.067a0.651,0.651,0,0,1-.089.328,0.176,0.176,0,0,0-.089,0,0.544,0.544,0,0,0-.134.219s0.064,0.029.045,0.044H28.33a2.661,2.661,0,0,1-.223.306c-0.05-.019-0.058-0.039-0.089-0.022a0.516,0.516,0,0,0-.156.109,0.085,0.085,0,0,1,.045.066,0.339,0.339,0,0,1-.223.066c0.007,0.053.023,0.073-.045,0.109a0.139,0.139,0,0,1-.178.022,0.281,0.281,0,0,1-.089.044v0.109a0.514,0.514,0,0,1-.156-0.022,1.156,1.156,0,0,0-.245.109c0.009,0.05.02,0.024,0,.066a0.152,0.152,0,0,1-.111.044,0.1,0.1,0,0,0-.022-0.066,0.6,0.6,0,0,1-.245.109c0.007,0.062.023,0.045,0,.087-0.108.073-.081-0.03-0.2,0-0.054.014-.107,0.069-0.178,0.088,0,0.089.036,0.052-.022,0.087-0.017.019-.028,0.025-0.045,0.044a0.428,0.428,0,0,0-.379.022v0.088H25.746V28.5l-0.134.022-0.022-.066-0.312.109c0,0.064.021,0.03,0,.066a0.234,0.234,0,0,1-.134.044,0.239,0.239,0,0,0-.045-0.066,0.92,0.92,0,0,1-.312.109v0.022a0.11,0.11,0,0,1,.022.066l-0.156.022c-0.023-.008-0.011-0.055-0.089-0.044a1.938,1.938,0,0,1-.267.044,0.119,0.119,0,0,1-.067.088,0.3,0.3,0,0,1-.156.022V28.869a3.231,3.231,0,0,1-.379.044v0.066H23.519V28.913h-0.29a0.37,0.37,0,0,1-.289.066L22.9,28.913H22.673c-0.006.057,0,.043-0.111,0.044a0.533,0.533,0,0,1-.334-0.044c-0.134,0-.225.066-0.4,0.066V28.913H21.6c-0.009.059-.055,0.048-0.178,0.044a0.359,0.359,0,0,1-.178.022V28.913H21.069c-0.01.06-.075,0.048-0.2,0.044a0.358,0.358,0,0,1-.178.022V28.913c-0.2,0-.356.062-0.579,0.066V28.913c-0.177.012-.368,0.063-0.579,0.066V28.913a3.088,3.088,0,0,1-.557.066c-0.018-.071.011-0.033-0.044-0.066a0.355,0.355,0,0,1-.356,0v0.066A2.86,2.86,0,0,1,18,28.913v0.066a4.7,4.7,0,0,1-.579-0.066v0.066c-0.246,0-.372-0.058-0.579-0.066v0.066c-0.232,0-.355-0.058-0.557-0.066v0.066c-0.24,0-.354-0.061-0.579-0.066v0.066c-0.23,0-.337-0.062-0.557-0.066-0.033.072-.043,0.069-0.2,0.066a0.624,0.624,0,0,0-.356-0.066v0.066c-0.25,0-.317-0.062-0.534-0.066-0.044.1-.123,0.071-0.312,0.066a0.223,0.223,0,0,0-.245-0.066v0.066c-0.243,0-.3-0.062-0.512-0.066-0.045.1-.143,0.071-0.334,0.066V28.913h-0.2c-0.031.069-.011,0.066-0.156,0.066a2.074,2.074,0,0,0-.223,0V28.913H11.915a0.476,0.476,0,0,1-.423.066V28.913H11.359v0.066c-0.157,0-.254,0-0.445,0V28.913a0.285,0.285,0,0,0-.089.022c-0.006.058-.018,0.046-0.134,0.044a1.321,1.321,0,0,0-.356,0,0.1,0.1,0,0,0-.022-0.066,2.094,2.094,0,0,1-.869.066V28.913H9.376v0.066H8.909V28.913H8.753v0.066c-0.271,0-.372-0.062-0.6-0.066v0.066c-0.258,0-.324-0.063-0.557-0.066v0.066H7.305l-0.022-.066a1.867,1.867,0,0,0-.468.066,0.615,0.615,0,0,1-.134-0.109l-0.267.022a1.034,1.034,0,0,0-.134-0.044v0.066l-0.2-.022V28.8a1.812,1.812,0,0,1-.445-0.109c-0.009.078,0.011,0.055-.045,0.088a0.332,0.332,0,0,1-.156-0.088,0.078,0.078,0,0,0,.022-0.044c-0.178-.011-0.283-0.077-0.468-0.087a0.1,0.1,0,0,1-.022.066,0.33,0.33,0,0,0-.178-0.044V28.563A0.11,0.11,0,0,0,4.811,28.5a1.785,1.785,0,0,1-.445-0.109v0.066a0.234,0.234,0,0,1-.156-0.044,0.146,0.146,0,0,1-.022-0.088,1.983,1.983,0,0,1-.4-0.109,0.1,0.1,0,0,1-.067.066,0.235,0.235,0,0,0-.134-0.044,0.072,0.072,0,0,0,0-.066l-0.245-.044V28.06l-0.156-.022c-0.022.008-.011,0.06-0.089,0.044a1.169,1.169,0,0,0-.29-0.087V27.906c-0.056-.013-0.113-0.06-0.156-0.066H2.606v0.044a0.267,0.267,0,0,1-.178-0.044c0-.086.05-0.057-0.045-0.088-0.042.039-.018,0.041-0.067,0.022a0.341,0.341,0,0,1-.2-0.219A0.238,0.238,0,0,1,2,27.6c-0.033-.047-0.077-0.065-0.111-0.109,0,0,.064-0.029.045-0.044H1.915l-0.022-.066a0.175,0.175,0,0,1-.2-0.131,0.085,0.085,0,0,0,.045-0.066,0.417,0.417,0,0,1-.156-0.066,0.11,0.11,0,0,1-.022-0.066,0.147,0.147,0,0,0,.022-0.087,0.292,0.292,0,0,0-.134-0.153A1.11,1.11,0,0,1,1.381,26.2c-0.06,0-.036.029-0.067-0.044a0.309,0.309,0,0,1,.022-0.241,0.975,0.975,0,0,0-.29.044,0.114,0.114,0,0,0,.067.109l0.022-.022v0.044a0.14,0.14,0,0,1,0,.131H1.069a0.508,0.508,0,0,0,.022.175,0.077,0.077,0,0,0-.045.022H1V26.376A0.233,0.233,0,0,1,.98,26.244a5.906,5.906,0,0,1-.735.022A0.343,0.343,0,0,1,.134,26a1.038,1.038,0,0,0,.156-0.2,1.662,1.662,0,0,1-.111-0.569A6.077,6.077,0,0,1,0,23.707l0.267-.022a0.359,0.359,0,0,1,.312-0.241l0.045,0.022a0.29,0.29,0,0,0-.156.262,0.079,0.079,0,0,1,.022.044,0.337,0.337,0,0,0,.089.044c-0.008-.164.012-0.2,0.178-0.2A0.626,0.626,0,0,1,1,23.576a0.908,0.908,0,0,0-.089-0.35A0.3,0.3,0,0,0,.757,23.2V23.139c0.084,0,.078.01,0.111-0.044a0.187,0.187,0,0,1-.134-0.131,4.5,4.5,0,0,1,.178-0.809,0.2,0.2,0,0,1,.111-0.022,0.191,0.191,0,0,0,.156.022,4.571,4.571,0,0,0,.2-0.744,0.124,0.124,0,0,1-.089-0.131,0.318,0.318,0,0,0,.045-0.153L1.47,21.1a6.859,6.859,0,0,1,.312-1.159,1.988,1.988,0,0,0,0-.5L1.648,19.42V19.377a0.254,0.254,0,0,0,.267-0.022,1.348,1.348,0,0,1,.312-0.7A3.38,3.38,0,0,1,3.073,18.5c0.62-.151,1.316-0.2,1.938-0.35a2.714,2.714,0,0,0,.757-0.131,0.143,0.143,0,0,0,.067-0.109c-0.076-.05-0.107-0.145-0.178-0.2a0.129,0.129,0,0,1-.111,0,0.146,0.146,0,0,1-.022-0.088c0.083-.089.1-0.23,0.178-0.328a1.828,1.828,0,0,1,.579-0.394,0.539,0.539,0,0,1,.022.175,0.11,0.11,0,0,1,.022.066,1.711,1.711,0,0,1,.4.066,3,3,0,0,1,.111-0.328,0.667,0.667,0,0,0-.512,0A0.187,0.187,0,0,1,6.3,16.774H5.9a0.725,0.725,0,0,0-.045.175,0.622,0.622,0,0,0-.4.087A1.525,1.525,0,0,0,5.345,16.4a0.3,0.3,0,0,1,.178-0.044,1.426,1.426,0,0,0,.78.175,2.343,2.343,0,0,1-.089-0.262,0.106,0.106,0,0,1,.111-0.044,2.448,2.448,0,0,1,.4.153,2.586,2.586,0,0,0,.646,0V16.315H7.461V16.38H7.906a0.539,0.539,0,0,0,.022-0.175H8v0.153H8.018a0.114,0.114,0,0,1,.111-0.066V16.227a1.409,1.409,0,0,0,.29-0.044c0,0.1.047,0.072,0.2,0.066a0.1,0.1,0,0,0,.067.066V16.38H8.842V16.337a0.964,0.964,0,0,1,0-.284H8.909L8.931,16.38a2.489,2.489,0,0,0,.668.044c0.018-.071-0.011-0.034.045-0.066v0.066H9.733V16.162c-0.069-.038-0.071,0-0.089-0.087a0.9,0.9,0,0,0,.089-0.219c0.033-.036.1-0.051,0.134-0.088l0.267,0.022v0.284H10.045a2.13,2.13,0,0,0-.044.35h0.445V16.337h0.067V16.293c0.087-.141-0.044-0.472.045-0.612a1.7,1.7,0,0,0,.044.722,3.065,3.065,0,0,0,.78.022V16.205h0.067v0.2L12,16.446V16.6H11.96a1.955,1.955,0,0,0-.379.022,0.72,0.72,0,0,0-.334.022,1.158,1.158,0,0,0-.178-0.044c0.043,0.192-.295.164-0.49,0.131v0.044H10.557V16.8h0.668a3.491,3.491,0,0,0,.045.481h0.624V17.19h0.134a0.448,0.448,0,0,0,.045-0.109h0.178V17.015l0.356,0.022V16.6a0.479,0.479,0,0,1-.111-0.131,1,1,0,0,0,.267-0.306,0.373,0.373,0,0,0,.29.087l-0.089.372c-0.108,0-.077.252-0.067,0.416,0.489,0,.882-0.043,1.336-0.044q0.011-2.154.022-4.309v-1.2A1.291,1.291,0,0,1,14.276,11C14.275,13,14.3,15.022,14.3,16.993ZM9.6,15.812H9.644l-0.022.066H9.6V15.812Zm6.993,0.109a0.412,0.412,0,0,1,.178.2H16.748V16.1A0.345,0.345,0,0,1,16.592,15.921Zm0.2,0.219a0.12,0.12,0,0,1,.067.087H16.837V16.205H16.815Zm0.067,0.087a1.5,1.5,0,0,1,.156.175v0.044H16.993V16.424A0.466,0.466,0,0,1,16.86,16.227Zm-8.085.7V16.862H9.087V16.752a4.6,4.6,0,0,1-.98.044c0,0.085.015,0.065-.111,0.066-0.033-.055-0.01-0.034-0.089-0.044A2.249,2.249,0,0,1,7.8,17.1a0.434,0.434,0,0,1-.111.022,0.164,0.164,0,0,1,.022.175H7.84a6.228,6.228,0,0,1,1-.153V16.971a0.078,0.078,0,0,0,.022-0.044H8.775Zm0.379-.175v0.109H9.22v0.066H9v0.2l0.735-.087V16.8H9.688A1.21,1.21,0,0,0,9.154,16.752ZM10,16.8c0,0.2-.008.341,0,0.525h0.044a0.152,0.152,0,0,1,.089-0.022,1.629,1.629,0,0,1,.022-0.372c0.024-.062.086-0.1,0.111-0.175H10.134C10.1,16.808,10.086,16.8,10,16.8Zm-2.606.569V17.277H7.305l0.022-.153a0.471,0.471,0,0,1,.29-0.044,0.209,0.209,0,0,1,.022-0.153H7.55a1.318,1.318,0,0,1-.245.044,0.211,0.211,0,0,1-.178.044,0.106,0.106,0,0,0-.111-0.044,3.134,3.134,0,0,1-.111.306c-0.063-.007-0.046-0.023-0.089,0a0.161,0.161,0,0,1,.022.153H6.993A1.116,1.116,0,0,1,7.394,17.365Zm1.648,0.022v0.088l0.423-.066V17.321H9.733a0.654,0.654,0,0,1,.022-0.153,0.32,0.32,0,0,0-.089-0.022,2.375,2.375,0,0,0-.713.241H9.042ZM7.394,17.5a3.065,3.065,0,0,0-.646.088v0.044a0.19,0.19,0,0,1,.022.131,0.115,0.115,0,0,0,.067.022c0.143-.1.4-0.088,0.535-0.2H7.394V17.5Zm31.336,0.7c-0.227.164-.282,0.031-0.267,0.459a0.367,0.367,0,0,0,.4.087,0.793,0.793,0,0,0,.022-0.5ZM39.2,18.218a1.165,1.165,0,0,0-.044.525l0.067,0.022a1.237,1.237,0,0,0,.468.022,0.548,0.548,0,0,1,.089-0.109,0.884,0.884,0,0,0-.067-0.459H39.2ZM21.537,19.289V19l-3.163.022v0.044a1.934,1.934,0,0,0,.111.219h3.051Zm-2.561.744a1.69,1.69,0,0,0,.334.744c0.4,0,.255.3,0.668,0.306a0.751,0.751,0,0,0,.356.066,0.186,0.186,0,0,0,.022-0.109H20.334V21.017c-0.1,0-.1.027-0.134-0.022l0.067-.022a1.473,1.473,0,0,1,.4-0.022,0.459,0.459,0,0,1,.089.306c0.407,0,.835,0,1.336,0V20.033H18.976Zm1.96,1.137a0.108,0.108,0,0,1,.067.022A0.108,0.108,0,0,1,20.935,21.17Z"/>
</svg>
