<svg xmlns="http://www.w3.org/2000/svg" width="39.969" height="40" viewBox="0 0 39.969 40">
  <defs>
    <style>
      .cls-1 {
        fill: #fff;
        fill-rule: evenodd;
      }
    </style>
  </defs>
  <path id="Color_Fill_1" data-name="Color Fill 1" class="cls-1" d="M37.947,16.363a1.325,1.325,0,0,1,.329.082c0.291,0.063.554-.226,0.657,0.164H38.891c-0.041.041,0.04,0.041,0.041,0.041,0.136,0.138.319,0.227,0.452,0.369,0.1-.028.076-0.1,0.123-0.041a1.553,1.553,0,0,1,.205.246,0.141,0.141,0,0,1-.041.082v0.041c-0.08.017-.03-0.063-0.082,0a5.667,5.667,0,0,1,.246.533,0.278,0.278,0,0,0,.164.041v0.41H39.877a4.351,4.351,0,0,1-.123.615l0.123,0.041a0.512,0.512,0,0,1-.37.41l0.041-.082H39.507c-0.1.191-.281,0.268-0.37,0.451a0.474,0.474,0,0,1,.082.123,0.879,0.879,0,0,1-.534.082,2.928,2.928,0,0,1-.37.205l0.041,0.2a1.379,1.379,0,0,0-.821.287c-0.062.1,0.051,0.1-.082,0.164a7.191,7.191,0,0,0-.821.328c0.054,0.071.071,0.066,0.041,0.123a4.044,4.044,0,0,0-.821.328,0.228,0.228,0,0,0,0,.164,3.2,3.2,0,0,0-.863.287c0.013,0.117.043,0.085,0,.164-0.24.216-.268,0.005-0.493,0.082-0.08.027-.229,0.158-0.328,0.205a0.242,0.242,0,0,1,0,.164,0.353,0.353,0,0,1-.452.082,2.61,2.61,0,0,1-.411.2l0.041,0.205a1.219,1.219,0,0,0-.288.123,0.2,0.2,0,0,0-.205-0.082c-0.125.028-.254,0.163-0.411,0.2,0.024,0.121.084,0.127-.041,0.205a0.291,0.291,0,0,1-.37,0,2.164,2.164,0,0,1-.452.205,0.587,0.587,0,0,0,.041.205,5.93,5.93,0,0,0-.945.164v0.123h0.041c0.041,0.041-.04.041-0.041,0.041-0.269.208-.333-0.027-0.452,0s-0.293.129-.452,0.164c0,0.166.067,0.1-.041,0.164-0.232.173-.267-0.035-0.493,0-0.106.016-.219,0.1-0.37,0.123a0.588,0.588,0,0,0,.041.205H28.747a0.926,0.926,0,0,1-.452-0.041l-0.37.123,0.041,0.164c-0.383.04-.51-0.016-0.944,0.041v0.164H26.941a0.43,0.43,0,0,1-.329.041,0.2,0.2,0,0,0-.041-0.123,0.916,0.916,0,0,1-.493.082v0.164a0.881,0.881,0,0,1-.287.041c-0.064.029-.006,0.005-0.123,0V25.549l-0.534.082V25.8l-0.37.041V25.8H24.723V25.672l-0.575.041v0.164l-0.329.041V25.877H23.778V25.754L23.2,25.8v0.164H22.875V25.918H22.834V25.8a4.855,4.855,0,0,1-.575.041V26h-0.37V25.836H21.273V26H20.945V25.959H20.9V25.836H20.329V26H20V25.836H19.425v0.041H19.384V26H19.055V25.836H18.481v0.041H18.439V26H18.111V25.836H17.536v0.041H17.495V26H17.166V25.836H16.55v0.123h-0.37c0-.119.04-0.057,0-0.123a1.363,1.363,0,0,0-.575-0.041,0.2,0.2,0,0,1-.041.123,0.278,0.278,0,0,1-.164.041,0.277,0.277,0,0,0-.164-0.041V25.754H14.7c-0.084.167-.15,0.174-0.411,0.164V25.754l-0.534-.041c-0.084.167-.15,0.174-0.411,0.164V25.713l-0.534-.041v0.082a0.6,0.6,0,0,1-.411.082V25.672l-0.534-.041v0.123H11.786a0.649,0.649,0,0,1-.328.041c-0.04-.189-0.034-0.172-0.328-0.164a3.464,3.464,0,0,0-.657.123,0.518,0.518,0,0,1,.041-0.164,4.328,4.328,0,0,0-.986.082V25.508l-0.493-.041V25.59H8.953a0.387,0.387,0,0,1-.37-0.041c0-.154-0.074-0.143-0.329-0.123a3.754,3.754,0,0,1-.575.082V25.344c-0.506,0-.55.11-0.986,0.082V25.262L6.2,25.221l-0.041.123a0.872,0.872,0,0,1-.452,0V25.18l-0.452-.041a0.791,0.791,0,0,1-.452.123c-0.03-.138.025-0.118-0.082-0.164a0.57,0.57,0,0,0-.534.082L3.86,25.139V24.975H3.778a1.469,1.469,0,0,0-.821.041,0.644,0.644,0,0,1-.041-0.205c-0.424,0-.553.066-0.945,0.041V24.688H1.889a0.543,0.543,0,0,0-.575,0c-0.411-.145-0.15-0.242-0.287-0.369a1.867,1.867,0,0,1-.78-0.656c0.133-.034.063,0.02,0.123-0.082a1.921,1.921,0,0,1-.205-0.574l-0.082.041V23.006a0.993,0.993,0,0,1-.041-0.451H0.082a0.21,0.21,0,0,0,.123.041,0.973,0.973,0,0,0,0-.7c0.086-.066.125-0.233,0.205-0.287H0.657a1.5,1.5,0,0,0,.287-0.287H0.986l-0.041-.2a3.607,3.607,0,0,0,.78-0.328c0.086-.116-0.041-0.1.082-0.164A0.956,0.956,0,0,1,2.094,20.5c0.177-.1.516-0.528,0.739-0.7,0.436-.329.754-0.859,1.191-1.189a2.906,2.906,0,0,0,1.027-1.107,1.453,1.453,0,0,1-.7-0.9c0.355-.093.66-0.366,0.986-0.451a0.471,0.471,0,0,1,.287.082,2.608,2.608,0,0,1,.329-0.082,0.794,0.794,0,0,0,.452.246,3.315,3.315,0,0,0,.329-0.328,0.235,0.235,0,0,1-.082-0.246A0.337,0.337,0,0,1,6.9,15.666V15.461l0.123-.041a2.229,2.229,0,0,1,.657-0.082c0.288-.089.637-0.147,0.986-0.246,0.988-.28,2.092-0.461,3.08-0.738,0.39-.11.745-0.063,1.15-0.164,1.3-.325,2.767-0.372,4.066-0.7l1.027-.123a7.554,7.554,0,0,1,3-.287h0.821a13.258,13.258,0,0,1,2.423.082h0.821a13.258,13.258,0,0,1,2.423.082h1.6c0.373,0.083.932-.053,1.355,0.041,0.825,0.184,1.805.1,2.628,0.287l1.109,0.082a2.574,2.574,0,0,1,.657.533c0.558,0.421,1.043.892,1.6,1.312a1.9,1.9,0,0,0,1.027.738,0.431,0.431,0,0,1,.493-0.041v0.164ZM20.288,14.189v0.246l1.766-.041V14.23h2.834a4.943,4.943,0,0,0,1.437-.082s0.889,0.082,1.068.082a1.448,1.448,0,0,1,0,.615h0.164V15.01H28.09V14.886h0.082a0.651,0.651,0,0,1,.329-0.041V15.01h0.534V14.886a5.5,5.5,0,0,1,.9-1.025V13.82a15.634,15.634,0,0,1-2.71-.082c-0.516-.111-1.178.059-1.643-0.041-0.516-.111-1.178.059-1.643-0.041l-2.505-.041a3.211,3.211,0,0,1-.821-0.041,0.611,0.611,0,0,1-.123.533A0.277,0.277,0,0,1,20.288,14.189Zm-7.6.9a7.116,7.116,0,0,0,1.191-.369c0.519-.134,1.158-0.006,1.684-0.123a5.375,5.375,0,0,0,1.232-.082,1.279,1.279,0,0,0,.246-0.451,7.859,7.859,0,0,0,3.121.369V14.189a1.454,1.454,0,0,1-.493-0.082,0.58,0.58,0,0,0-.082-0.492,6.108,6.108,0,0,1-1.52.246c-1.3.324-2.762,0.377-4.066,0.7a5.27,5.27,0,0,0-1.478.246A0.254,0.254,0,0,1,12.69,15.092Zm21.437-1.066a5.519,5.519,0,0,0,1.068.943A3.741,3.741,0,0,0,34.127,14.025Zm0.041,1.722a7.359,7.359,0,0,0,.9-0.041,0.644,0.644,0,0,1,.041.205l0.452,0.041,0.082-.123c-0.6-.394-1.408-1.516-2.094-1.681v0.123c0.318,0.2.134,0.9,0.123,1.394h0.041a0.363,0.363,0,0,1,.452-0.082v0.164Zm-13.922-.9v0.205h0.287V14.886h0.329c0.083,0.182.263,0.133,0.616,0.123,0.061-.153.159-0.133,0.37-0.123V15.01a0.866,0.866,0,0,0,.411-0.041H22.053V14.8Zm-0.082,0a0.533,0.533,0,0,0-.288.041,0.355,0.355,0,0,1,.288.123V14.845Zm2.752,0.123a0.57,0.57,0,0,0,.452,0H22.916Zm0.821,0a0.832,0.832,0,0,0,.575,0H23.737Zm1.109,0a0.49,0.49,0,0,0,.411,0H24.846Zm0.78,0a0.832,0.832,0,0,0,.575,0H25.626Zm1.4,0c0.071,0.036.052,0.036,0.123,0H27.023Zm8.214,0c0.017,0.03.246,0.246,0.246,0.246A0.667,0.667,0,0,0,35.236,14.969Zm-19.63.041a1,1,0,0,1-.452.041v0.041a0.148,0.148,0,0,1,.041.082H15.4a0.719,0.719,0,0,0,.37-0.164H15.606Zm0.534,0a0.12,0.12,0,0,0,.164,0H16.14Zm-2.259.369V15.215l0.329-.041L14.292,15.3l0.534-.041a0.587,0.587,0,0,1,.041-0.205H14.62a1.924,1.924,0,0,1-.411.041,5.374,5.374,0,0,0-.9.246l0.041,0.123H13.47A1.21,1.21,0,0,1,13.881,15.379Zm21.684-.123c0.017,0.03.246,0.246,0.246,0.246A0.669,0.669,0,0,0,35.565,15.256ZM7.187,15.42c-0.03.036-.052,0.046-0.082,0.082a0.317,0.317,0,0,0,.123.123V15.584A0.807,0.807,0,0,1,7.187,15.42Zm2.3,0a0.149,0.149,0,0,0,.082.041A0.148,0.148,0,0,0,9.487,15.42Zm-0.205.041c-0.182.121-.522,0.078-0.7,0.205H8.624a0.277,0.277,0,0,0,.164.041c0.172-.128.487-0.113,0.657-0.246H9.281Zm3.614,0a0.149,0.149,0,0,1-.082.041v0.041h0.123A0.141,0.141,0,0,0,12.9,15.461Zm23.039,0.123a1.062,1.062,0,0,0,.164.164A0.373,0.373,0,0,0,35.934,15.584ZM6.776,15.83a0.2,0.2,0,0,0,.041.123A0.2,0.2,0,0,0,6.776,15.83Zm0.37,0.943a1.263,1.263,0,0,1-.164.41c-0.124-.009-0.322-0.048-0.329-0.041-0.283.176-.444,0.464-0.7,0.656a3.6,3.6,0,0,0-.821.738H5.175c0.084-.077.143-0.065,0.287,0,0.118-.069.234-0.178,0.37-0.246a0.308,0.308,0,0,1,0-.2,1.2,1.2,0,0,0,.821-0.369,0.209,0.209,0,0,1-.041-0.123,0.42,0.42,0,0,0,.246-0.164,0.178,0.178,0,0,0,.246.041l0.37-.2L7.392,17.1H7.474a0.711,0.711,0,0,1,.452-0.082,0.489,0.489,0,0,0,.329-0.2,1.257,1.257,0,0,1-.164-0.451c-0.12.016-.051,0.067-0.123-0.041a0.365,0.365,0,0,1,0-.41,0.522,0.522,0,0,0,.164-0.041V15.83H8.008c-0.152.24-.539,0.378-0.657,0.615S7.449,16.722,7.146,16.773Zm-0.205-.9v0.082H6.982A0.14,0.14,0,0,0,6.94,15.871Zm29.322,0a1.062,1.062,0,0,0,.164.164A0.372,0.372,0,0,0,36.263,15.871Z" transform="translate(-0.031 0.5)"/>
</svg>
