<svg xmlns="http://www.w3.org/2000/svg" width="80" height="40" viewBox="0 0 80 40">
  <defs>
    <style>
      .cls-1 {
        fill: #fff;
        fill-rule: evenodd;
      }
    </style>
  </defs>
  <path id="Color_Fill_1" data-name="Color Fill 1" class="cls-1" d="M38.086,7.381a8.051,8.051,0,0,0,.1,2.286c0.254-.113.172,0.085,0.287-0.19-0.247-.143-0.2-0.285-0.191-0.667a1.76,1.76,0,0,1,.574-0.1,2.38,2.38,0,0,1,.1.762,0.828,0.828,0,0,0-.191.857H38.469v2.1h2.105V12.143a1.651,1.651,0,0,1-.861-0.19,1.138,1.138,0,0,1,.383-0.762,1.163,1.163,0,0,0,.383.381,0.97,0.97,0,0,1-.287.476h0.383a3.068,3.068,0,0,1,.191-0.571v0.476h0.287l0.1,0.476H42.01a0.49,0.49,0,0,0,.287.1V12.143h0.287a0.6,0.6,0,0,0,.191.476h-2.01V13h0.1v0.1c3.956,0.054,5.479,1.46,8.038,2.857,0.5,0.275,2.485,1.234,2.584,1.048a4.345,4.345,0,0,0,2.3,1.333v-0.1a6.39,6.39,0,0,1-.383-2.571l0.478,2.857c0.756,0.177,2.9,1.772,3.349,1.333a5.213,5.213,0,0,0,.383.476c0.073-.4.05-0.346,0.478-0.381a1.2,1.2,0,0,1-.1.381c-0.242.037-.151-0.055-0.191,0.286a0.8,0.8,0,0,1,.479.1c1.025,0.363.834,1.429,1.435,2.191V22.524l0.957,0.191V22.238a3.787,3.787,0,0,0,1.148-.1v0.19a1.375,1.375,0,0,1,.1.381,5.643,5.643,0,0,1,1.531-.476v0.1a2.86,2.86,0,0,0-.1,1.238h0.67a8.151,8.151,0,0,1,.191-1.143,12.707,12.707,0,0,1-.383-1.524,2.347,2.347,0,0,0,1.34-1.048,0.981,0.981,0,0,0,.957.1,0.792,0.792,0,0,0,.957.667c0.412,0.388,3.337.273,4.306,0.191V21.1a34.9,34.9,0,0,0-4.019,0l0.1,0.857h0.191a2.358,2.358,0,0,1,.574-0.1,6.531,6.531,0,0,0,.1,1.333H68.9a2.115,2.115,0,0,0,.287-1.429h0.191c0.672,0.619,1.314-.033,1.914-0.191,0.605,0.769,1.459-.2,2.105-0.1,0.083,0.014.531,0.26,0.67,0.286a1.406,1.406,0,0,0,.957-0.381l0.957,0.19a8.036,8.036,0,0,1,.957-0.286c0.55,0.847,2.336.929,3.062,1.048-0.188,1.316-1.365,2.38-1.914,3.429-0.77,1.469-.912,3.448-2.2,4.381-1.776,1.284-4.3,1.136-6.89,1.714-1.289.288-2.727-.076-3.923,0.191-0.986.219-2.29-.1-3.158,0.1H58.565c-0.839.181-2.1-.112-3.062,0.1a31.408,31.408,0,0,1-5.837.1,21.981,21.981,0,0,1-4.115-.1H42.871a29.224,29.224,0,0,0-5.55.1h-2.01c-2.218,0-5.385-.346-7.368.1H18.565c-0.511-.206-0.96-0.863-1.531-1.048H15.5a10,10,0,0,0-2.2.19l-2.105.1c-1.072.237-2.308,0.272-3.349,0.476A1.759,1.759,0,0,1,7.56,33H7.368A1.045,1.045,0,0,0,6.6,32.238a0.489,0.489,0,0,0-.287-0.1,0.46,0.46,0,0,1,.1-0.286v-0.1l0.574-.1-0.1-.857H7.177a1.3,1.3,0,0,0,.766.762v-0.1a1.836,1.836,0,0,0,.191-0.952H5.072v0.1a3.721,3.721,0,0,1,.1,1.524,5.145,5.145,0,0,1-1.435.1,5.85,5.85,0,0,1-.1-1.619,1.7,1.7,0,0,0,.383-0.19H2.584l-0.1-.191a21.465,21.465,0,0,1-1.053-4.476H0.1V25.381h0.1a2.615,2.615,0,0,0,1.148.1,5.764,5.764,0,0,0,.191-1.429,0.464,0.464,0,0,1-.287-0.1c0.347-.046.349-0.025,0.478-0.286-0.419-.467.391-0.616,0.191-1.333-0.219-.787-0.889-1.584-1.148-2.381H0.957a0.271,0.271,0,0,1,.1-0.1,6.882,6.882,0,0,0,1.053,2.476c0.54-.339,1.533-0.253,2.3-0.667a1.436,1.436,0,0,1,.861-0.476,1.489,1.489,0,0,1,.1.476h-0.1v0.1C4.6,21.8,2.216,22.489,2.392,22.9a0.834,0.834,0,0,0,.383.286c-0.124.053-.071,0-0.1,0.1l0.1,0.286h0.1c-0.008-.386-0.157-0.227.1-0.381v0.286A1.368,1.368,0,0,0,3.828,23.1S4.92,23.552,5.072,23v0.191c0.427,0.231.49,0.763,0.766,0.857,0.25,0.2.186,0.122,0.574,0.1V23.857H6.794v0.286H7.081V24.9h0.1c0.182-.089.112-0.036,0.383,0V23.952a0.62,0.62,0,0,1-.383-0.1,1.492,1.492,0,0,1,.766.1H7.656V24.9H7.847a0.329,0.329,0,0,1,.383,0c-0.018.411-.115,0.392,0.478,0.381a3.454,3.454,0,0,0-.191-1.429h1.34l0.1-1.333h0.861a1,1,0,0,0,.1.571V22.524c0.772,0,.974,0,1.723,0a0.459,0.459,0,0,0,.1.286V22.524c0.683-.044.563-0.324,1.244-0.381a0.779,0.779,0,0,0,.574.476c0.2-.461,2.084-0.686,2.488-0.571a5.231,5.231,0,0,1-.1-1.9h0.191v0.381h4.4V20.143h0.1v0.1a2.824,2.824,0,0,1,.1,1.524,0.464,0.464,0,0,1-.287-0.1,1.758,1.758,0,0,0,.1-0.857h-2.01v0.952a9.363,9.363,0,0,1,4.306.762c0.124-.235-0.041-0.065.191-0.191a1.345,1.345,0,0,1-.1-0.381l0.191,0.1v-0.1a0.344,0.344,0,0,1-.1-0.191,0.582,0.582,0,0,0,.191-0.191l0.383,0.1c-0.071-.083-0.12-0.107-0.191-0.191a1.219,1.219,0,0,1,.383.1v-0.1a0.381,0.381,0,0,1,.191-0.1c0.149,0.282.112,0,.383,0.19a0.328,0.328,0,0,0-.191.1c0.278-.006.133-0.092,0.287,0h0.1l-0.1.19h0.1v-0.1h0.1v0.1a1.567,1.567,0,0,1,0,1.429h0.383V22.9H26.22c0.489-.283.953,0.244,1.435,0.1,0.28-.086.088-0.272,0.479-0.191a1.607,1.607,0,0,0-.191.572,6.644,6.644,0,0,1,1.34.286,5.851,5.851,0,0,0-.1,1.619h0.383a1.452,1.452,0,0,0,.191-0.857,4.359,4.359,0,0,0,0-2.1A11.207,11.207,0,0,1,26.6,20.9a0.494,0.494,0,0,1,0-.476,0.329,0.329,0,0,0,.191-0.1,17.989,17.989,0,0,0,3.445,0c0.11,0.259.18,0.738,0.287,1.048a3.09,3.09,0,0,1,1.34.381,1.757,1.757,0,0,1,.1.857h0.287a2.615,2.615,0,0,1,.191-1.238,1.227,1.227,0,0,0,.1.667l0.191-2h-0.1c-0.116.212-.141,0.125-0.478,0.191l-0.1-.381a1.964,1.964,0,0,1,.766,0V19.1a3.745,3.745,0,0,0,3.732-3.524l-0.191-.381a21.5,21.5,0,0,1-.765-3.524l-3.924.952L31.1,10.143l3.828-.857C35.008,8.977,34.881,9.14,35.12,9V9.1a6.739,6.739,0,0,1,.479,2c0.236,0.829.532,1.837,0.765,2.667A3.843,3.843,0,0,0,36.651,15V14.9a3.649,3.649,0,0,0-.1-1.714c0.746,0,.865-0.031,1.723-0.1V12.9a7.821,7.821,0,0,1,0-2.476h-0.1v-0.1H37.895V7.381H37.512V7.19A1.269,1.269,0,0,1,38.278,7l0.287,0.381H38.086Zm16.842,1.9a0.342,0.342,0,0,1,.1.19h-0.1V9.286Zm0.1,0.19a0.381,0.381,0,0,1,0,.476V9.476Zm-16.938.381v0.19h0.191V9.857H38.086Zm17.033,0.1a0.381,0.381,0,0,1,0,.476V9.952Zm-2.871.286a0.485,0.485,0,0,1,.1.286h-0.1V10.238Zm2.966,0.191a0.381,0.381,0,0,1,0,.476V10.429Zm-19.33.19a0.344,0.344,0,0,1,.1.191h-0.1V10.619Zm16.459,0.1a0.277,0.277,0,0,1,0,.381V10.714Zm-16.364.1a0.344,0.344,0,0,1,.1.191h-0.1V10.81Zm19.33,0.1a0.277,0.277,0,0,1,0,.381V10.9ZM36.077,11a0.343,0.343,0,0,1,.1.191h-0.1V11Zm0.1,0.191a0.342,0.342,0,0,1,.1.191h-0.1V11.191Zm16.268,0a0.277,0.277,0,0,1,0,.381V11.191Zm-16.172.191a0.342,0.342,0,0,1,.1.19h-0.1v-0.19Zm19.139,0a0.277,0.277,0,0,1,0,.381V11.381Zm-19.043.19a0.343,0.343,0,0,1,.1.191h-0.1V11.571Zm16.172,0.1a0.381,0.381,0,0,1,0,.476V11.667Zm-16.077.1a0.342,0.342,0,0,1,.1.191h-0.1V11.762Zm19.043,0.1a0.277,0.277,0,0,1,0,.381V11.857Zm-18.947.1a0.342,0.342,0,0,1,.1.19h-0.1v-0.19Zm0.1,0.19a0.342,0.342,0,0,1,.1.19h-0.1v-0.19Zm15.981,0a0.381,0.381,0,0,1,0,.476V12.143Zm-15.885.19a0.343,0.343,0,0,1,.1.191h-0.1V12.333Zm18.852,0a0.277,0.277,0,0,1,0,.381V12.333Zm-17.129.286v0.572A1,1,0,0,0,39.139,13a0.343,0.343,0,0,0,.1-0.191h-0.1V12.619h-0.67Zm1.34,0V13.1h0.766a1.491,1.491,0,0,0,.1-0.476H39.809Zm12.919,0.1a0.277,0.277,0,0,1,0,.381V12.714Zm2.967,0a0.381,0.381,0,0,1,0,.476V12.714Zm-18.66.1a0.343,0.343,0,0,1,.1.191h-0.1V12.81Zm13.4,0.1a0.277,0.277,0,0,1,0,.381V12.9Zm2.392,0.286a0.381,0.381,0,0,1,0,.476V13.191Zm2.966,0a0.381,0.381,0,0,1,0,.476V13.191Zm-19.043.1a1.745,1.745,0,0,0,.191.762,2.756,2.756,0,0,1,.191-0.762H36.746Zm0.574,0a10.728,10.728,0,0,0-.191,2.381h0.1a4.776,4.776,0,0,0,1.053-1.714,0.464,0.464,0,0,1-.287-0.1,0.364,0.364,0,0,0,.287-0.19,1.508,1.508,0,0,0-.479-0.1V13.286H37.321Zm4.019,0a1.505,1.505,0,0,1,.383.476h-0.1v0.1a1.589,1.589,0,0,0-.766,0,1.738,1.738,0,0,0-.1.571c0.4,0.638.231,1.6,0.383,2.381a0.342,0.342,0,0,0,.1-0.191,17.769,17.769,0,0,0,2.105-3.333H41.34Zm9.187,0a0.277,0.277,0,0,1,0,.381V13.286ZM41.818,18.81a0.459,0.459,0,0,1,.1-0.286,0.489,0.489,0,0,1,.287-0.1,0.489,0.489,0,0,0,.287.1V18.81h0.383a1.737,1.737,0,0,0,.1-0.571,0.64,0.64,0,0,1-.1-0.381,1,1,0,0,1,.574-0.19,3.5,3.5,0,0,1,.1,1.048l1.148,0.1v0.572h0.1c0.689-.482,3.305-0.388,4.5-0.381V18.524a2.065,2.065,0,0,1,.67-0.1,1,1,0,0,1,.191.476h0.478a5.2,5.2,0,0,0,1.244,1.619,0.989,0.989,0,0,1,.287-0.571c0.242,0.479.988,0.413,1.722,0.381a3.866,3.866,0,0,0-.1-1.714c-0.851-.21-1.372-0.814-2.2-1.048a0.459,0.459,0,0,1-.1.286c-0.131-.822-1.46-1.095-2.105-1.428-1.934-1-3.847-2.1-5.837-3.048a16.1,16.1,0,0,1-1.723,2.952,5.518,5.518,0,0,0-.67.857A9.988,9.988,0,0,0,41.34,18.9h0.1A0.647,0.647,0,0,1,41.818,18.81Zm-3.349-5.238a0.459,0.459,0,0,0,.1.286v-0.1a0.343,0.343,0,0,0,.1-0.191H38.469Zm0,2.191h0.287c0.087-.231.1-0.151,0.191-0.381a1.476,1.476,0,0,0,.574.381,15.234,15.234,0,0,0,.574-1.9,1.76,1.76,0,0,0-.574-0.1,1.04,1.04,0,0,0-.574-0.1A3.221,3.221,0,0,0,38.469,15.762Zm14.45-2.1a0.381,0.381,0,0,1,0,.476V13.667Zm2.966,0a0.381,0.381,0,0,1,0,.476V13.667Zm-5.263.1a0.277,0.277,0,0,1,0,.381V13.762Zm-11.675,5.9h1.914v0.1a2.67,2.67,0,0,0-.1,1.238h0.67a29.871,29.871,0,0,0-.67-4.952c-0.154-.669.05-1.441-0.287-1.9v0.19C39.831,15.035,39.053,18.444,38.947,19.667Zm11.77-5.524a0.277,0.277,0,0,1,0,.381V14.143Zm2.3,0a0.381,0.381,0,0,1,0,.476V14.143Zm2.967,0a0.381,0.381,0,0,1,0,.476V14.143Zm-5.167.381a0.381,0.381,0,0,1,0,.476V14.524Zm5.263,0.1a0.381,0.381,0,0,1,0,.476V14.619ZM37.8,15.571h0.287a0.794,0.794,0,0,0,.1.476,0.939,0.939,0,0,0-.191-0.762,0.732,0.732,0,0,0,.287-0.571h-0.1a3.281,3.281,0,0,0-.957,1.81c0.431,0.7.1,2.013,0.574,2.667V19c0.507-.51.409-1.72,0.383-2.667a0.573,0.573,0,0,1-.479-0.381A0.639,0.639,0,0,0,37.8,15.571Zm15.311-.857a0.381,0.381,0,0,1,0,.476V14.714Zm-2.2.286a0.277,0.277,0,0,1,0,.381V15Zm-9.378.1h0.287a0.56,0.56,0,0,1,0,.381,0.489,0.489,0,0,1-.287.1V15.1Zm14.641,0a0.381,0.381,0,0,1,0,.476V15.1Zm-2.966.1a0.381,0.381,0,0,1,0,.476V15.191Zm-2.2.191a0.277,0.277,0,0,1,0,.381V15.381Zm-14.258.1a0.942,0.942,0,0,0,.191.571A0.546,0.546,0,0,0,36.746,15.476Zm19.521,0.1a0.381,0.381,0,0,1,0,.476V15.571Zm-5.167.191a0.381,0.381,0,0,1,0,.476V15.762Zm-12.632.1v1.714h0.1v-0.1a3.459,3.459,0,0,0,.766-1.619H38.469Zm17.895,0.19a0.381,0.381,0,0,1,0,.476V16.048Zm-19.809.191a0.459,0.459,0,0,0,.1.286A0.459,0.459,0,0,0,36.555,16.238Zm14.641,0a0.277,0.277,0,0,1,0,.381V16.238ZM39.234,17.571a3.791,3.791,0,0,1,.287-1.238h-0.1a2.662,2.662,0,0,0-.478,1.143A0.489,0.489,0,0,0,39.234,17.571Zm17.225-1.048a0.381,0.381,0,0,1,0,.476V16.524Zm-5.167.1a0.277,0.277,0,0,1,0,.381V16.619ZM36.555,21.191l1.053-.1a1.911,1.911,0,0,0-.1-0.667,1.626,1.626,0,0,1-.574.19l-0.1-.19a0.415,0.415,0,0,0,.287-0.286H36.842a0.491,0.491,0,0,1-.287.1v-0.1a0.343,0.343,0,0,0,.1-0.191,1.934,1.934,0,0,0,.191-0.286c0.347-.215.381,0.26,0.67-0.191-0.486-.723-0.251-2.056-0.766-2.762v0.1h-0.1C35.694,18.419,36.509,19.262,36.555,21.191Zm20-4.19a0.381,0.381,0,0,1,0,.476V17Zm0.1,0.476a0.381,0.381,0,0,1,0,.476V17.476Zm-17.512.191H38.756l-0.1.286a3.07,3.07,0,0,0-.191,1.714H38.66v-0.1A4.566,4.566,0,0,0,39.139,17.667Zm-3.254.19c-0.1.268-.241,0.13,0,0.286v-0.1C36,17.9,35.947,18,35.885,17.857Zm15.694,0a0.277,0.277,0,0,1,0,.381V17.857Zm5.168,0.1a0.381,0.381,0,0,1,0,.476V17.952Zm-5.072.286a0.381,0.381,0,0,1,0,.476V18.238Zm5.168,0.191a0.381,0.381,0,0,1,0,.476V18.429Zm-5.072.286a0.277,0.277,0,0,1,0,.381V18.714Zm2.2,0.1a3.763,3.763,0,0,0,.479,1.714,6.127,6.127,0,0,0,2.3.1,1.339,1.339,0,0,0,.1-0.381Zm2.967,0.1a0.277,0.277,0,0,1,0,.381V18.9Zm-18.756.762V19h-0.1v0.1a1.925,1.925,0,0,0-.287.572h0.383ZM51.866,19.1a0.381,0.381,0,0,1,0,.476V19.1Zm5.167,0.286a0.277,0.277,0,0,1,0,.381V19.381Zm-5.072.19a0.277,0.277,0,0,1,0,.381V19.571ZM37.7,19.762c0.006,0.632.017,0.757,0,1.333h0.383V21c-0.346-.453.021-0.664,0.1-1.238H37.7Zm2.392,0C40.124,19.9,40.67,21,40.67,21V19.762H40.1Zm-2.679.1a0.584,0.584,0,0,0-.191.381h0.1a0.827,0.827,0,0,0,.287-0.381H37.416Zm4.115,0.191a1.7,1.7,0,0,0,.191.857V20.143Zm0.287,0.1a1.226,1.226,0,0,0,.1.667A1.228,1.228,0,0,0,41.818,20.143Zm23.828,0.286v0.19h0.1A0.325,0.325,0,0,0,65.646,20.429Zm0.191,0.1a0.345,0.345,0,0,0,.191.1A0.346,0.346,0,0,0,65.837,20.524Zm-35.981.1h-2.01v0.1h0.1a5.082,5.082,0,0,0,2.01.286V20.9A0.485,0.485,0,0,1,29.857,20.619Zm2.584,0a0.277,0.277,0,0,1,0,.381V20.619Zm-15.311.191v1.143a13.871,13.871,0,0,0,2.01-.191V20.81h-2.01Zm10.813,0.476a4.367,4.367,0,0,0,2.105.857V21.952a0.8,0.8,0,0,0-.287-0.191Zm45.933,0.667,0.1,0.571h0.574c0.394-.307.656-0.223,0.67-0.952h-0.1A1.326,1.326,0,0,1,73.876,21.952Zm2.584-.381a1.36,1.36,0,0,1-1.148.1v0.571H75.5a1.3,1.3,0,0,0,1.053-.1,1.738,1.738,0,0,0,.1-0.572H76.459Zm0.287,0.857a2.908,2.908,0,0,0,1.435-.191,4,4,0,0,1-1.435-.667v0.857ZM71,21.952c-0.381.469-1.213,0.239-1.722,0.1v0.476h0.1v0.1a6.2,6.2,0,0,1,1.722-.1,1.737,1.737,0,0,0,.1-0.571H71Zm0.383,0v0.476l0.287,0.1a2.026,2.026,0,0,0,.957.1,0.325,0.325,0,0,1,.1-0.19,0.326,0.326,0,0,0-.1-0.191A8.13,8.13,0,0,0,71.388,21.952Zm1.914,0v0.286a1.444,1.444,0,0,0,.383.191V21.952H73.3Zm-1.148.286h0.191v0.1H72.153v-0.1Zm4.4,0.1a0.346,0.346,0,0,1-.191.1v0.1h0.287A0.326,0.326,0,0,0,76.555,22.333Zm-1.531.1c0.037,0.249-.071.125,0.191,0.19v-0.19H75.024Zm-11.962.1c-0.3.229-.846,0.24-1.148,0.476a0.484,0.484,0,0,0-.1.286,0.588,0.588,0,0,0,.383.191c0.486-.34,1.013-0.121,1.053-0.952H63.062Zm12.632,0.1a0.386,0.386,0,0,0,.478,0H75.694Zm-1.053.1a0.831,0.831,0,0,1-.478.1V23h0.191a1.271,1.271,0,0,1,.67-0.1v-0.1h-0.1v-0.1H74.641Zm-14.832.1v0.572a2.676,2.676,0,0,0,.861-0.191V22.9Zm12.727,0c-0.1.066-.383,0.123-0.478,0.191h0.574A0.326,0.326,0,0,0,72.536,22.81ZM16.651,23.1v0.191h0.191V23.1H16.651Zm0.383,2.286,0.574-.1V23.857h0.1a0.326,0.326,0,0,0,.1.191V23.667h0.287V23.191l-1.148-.1v0.191a0.566,0.566,0,0,1,.191.952H16.938C16.922,24.265,17.042,25.079,17.034,25.381Zm1.34-2.19v0.667a0.464,0.464,0,0,0,.287-0.1,0.485,0.485,0,0,0,.1-0.286c-0.068-.147-0.012-0.013,0-0.286H18.373Zm2.775,0a1.491,1.491,0,0,0-.1.476h0.1v0.1H21.34l0.1-.571H21.148Zm-11.2.1a0.614,0.614,0,0,0,.1.381A0.613,0.613,0,0,0,9.952,23.286Zm0.766,0a0.613,0.613,0,0,0,.1.381A0.613,0.613,0,0,0,10.718,23.286Zm0.191,0a0.459,0.459,0,0,0,.1.286V23.286h-0.1Zm0.67,0,0.1,0.381h0.1V23.286H11.579Zm9,0.952V23.762h0.287V23.286H20.1a1.007,1.007,0,0,0-.191.476,3.61,3.61,0,0,0,.1.952C20.034,24.228,20.07,24.242,20.574,24.238Zm42.584-.952c-0.359.31-1.055,0.276-1.435,0.571h0.766a1.455,1.455,0,0,1,.67-0.286C63.242,23.408,63.243,23.45,63.158,23.286Zm-3.254.381L60.1,24.048a0.826,0.826,0,0,0,.574-0.286H60.383A0.831,0.831,0,0,0,59.9,23.667ZM0,23.952a1.917,1.917,0,0,1,0,1.333V23.952Zm2.871,0a0.345,0.345,0,0,0,.191.1A0.345,0.345,0,0,0,2.871,23.952Zm6.124,0,0.1,0.286h0.1V23.952H9Zm0.766,0a3.11,3.11,0,0,0,.1,1.333A3.11,3.11,0,0,0,9.761,23.952Zm-0.191.191a2.544,2.544,0,0,0,.1,1.143A2.544,2.544,0,0,0,9.569,24.143Zm-3.158.286v0.286H6.6v0.1H6.7v-0.1a0.343,0.343,0,0,0,.1-0.191H6.7v-0.1H6.411Zm21.435,0.19a1.226,1.226,0,0,0,.1.667A1.229,1.229,0,0,0,27.847,24.619Zm-24.976.1V25.1H3.062V24.9C2.979,24.834,2.954,24.785,2.871,24.714Zm2.3,0.476H5.455V24.714h-0.1a0.345,0.345,0,0,1-.191.1v0.381ZM3.349,24.81a1.2,1.2,0,0,0,.1.381h0.1V25.1a0.484,0.484,0,0,0,.1-0.286H3.349Zm0.383,0v0.381H4.306a0.459,0.459,0,0,0-.1-0.286v-0.1H3.732Zm6.986,0a0.794,0.794,0,0,0,.1.476A0.794,0.794,0,0,0,10.718,24.81Zm-0.766.1a0.613,0.613,0,0,0,.1.381A0.613,0.613,0,0,0,9.952,24.9Zm0.957,0a0.613,0.613,0,0,0,.1.381A0.613,0.613,0,0,0,10.909,24.9ZM9.091,31.571a23.531,23.531,0,0,0,4.785-.476A5.377,5.377,0,0,0,15.5,30.9a54.963,54.963,0,0,0-6.22-.286V30.81A0.942,0.942,0,0,0,9.091,31.571Z"/>
</svg>
