<?xml version="1.0" encoding="utf-8"?>
<!-- Generator: Adobe Illustrator 16.0.0, SVG Export Plug-In . SVG Version: 6.00 Build 0)  -->
<!DOCTYPE svg PUBLIC "-//W3C//DTD SVG 1.1//EN" "http://www.w3.org/Graphics/SVG/1.1/DTD/svg11.dtd">
<svg version="1.1" id="Layer_1" xmlns="http://www.w3.org/2000/svg" xmlns:xlink="http://www.w3.org/1999/xlink" x="0px" y="0px"
	 width="39.938px" height="40px" viewBox="0 0 39.938 40" enable-background="new 0 0 39.938 40" xml:space="preserve">
<path id="Color_Fill_1" fill="#FFFFFF" d="M17.269,10.823c0.188,0.456,0.288,0.944,0.294,1.438c0.404,0.088,0.798,0.216,1.176,0.384
	v-0.288l1.811,0.192c-0.072,0.161-0.138,0.147,0,0.288c1.125,0.428,2.394,0.213,3.476,0.719c-0.018-0.122,0.019-0.245,0.101-0.336
	l0.686,0.527c1.067,0.294,2.101-0.13,3.231,0.144c3.188,0.775,8.06,0.386,11.899,0.383v0.575h-10.14
	c-1.648,0.308-3.318,0.484-4.994,0.527l-0.146,0.479l-0.101-0.049l-0.144-0.338l-0.101,0.145v0.336
	c0.695-0.103,1.404-0.02,2.057,0.24c-0.008-0.129,0.047-0.254,0.146-0.336l0.245,0.049l-0.049,0.1h-0.146l0.05,0.1
	c0.625,0.048,1.206,0.341,1.615,0.815l-0.199,0.101l0.049,0.191h0.832c0.433-0.185,0.915-0.22,1.371-0.1
	c0.111,0.041,0.2,0.129,0.245,0.24H30.39c-0.17,0.121-0.38,0.172-0.587,0.144l-0.049,0.623l2.448,0.192
	c0.182-0.198,0.421-0.332,0.685-0.384c0.05,0.27,0.083,0.542,0.1,0.815l1.273,1.39l-0.049,0.101l-0.539,0.239
	c0.229,0.514,0.264,1.093,0.1,1.63c-0.483,2.291-2.441,2.459-4.5,3.163c-2.282,0.781-4.88,0.671-8.028,0.671h-9.458
	c-1.486,0.115-2.98,0.067-4.455-0.144l-2.252-1.101c-1.277-0.638-2.717-1.006-3.28-2.349l-0.441,0.101c0-0.721,0.009-1.267,0-2.254
	H0.965c0.082,0.365,0.064,0.744-0.049,1.101H0.867v-1.119c-0.29,0.065-0.585,0.099-0.882,0.101c0.032-0.264,0.1-0.521,0.2-0.768
	c-0.348-0.2-0.166-0.5-0.1-0.863c0.275-0.014,0.521-0.18,0.636-0.431c-0.23,0.101-0.2,0.194-0.392,0.101l0.438-0.439
	c0.317-0.682,0.994-0.487,1.567-0.815c0.53-0.942,2.784-0.936,4.162-0.814c-0.024,0.079-0.076,0.147-0.147,0.192l1.126-0.101
	c-0.071-1.12,3.945-0.407,4.651-0.383l-0.049-0.101l0.1-0.335l-3.476-0.1v-0.037c0.122-0.889,0.155-1.788,0.1-2.684l3.966-0.479
	c0.041-0.474,0.14-0.94,0.294-1.39c1.151-0.008,2.256-0.048,3.428-0.048V5.838c-0.096-0.623-0.064-1.259,0.093-1.869v6.806
	L17.269,10.823z M17.269,12.405L17.269,12.405z M17.514,12.405l-0.049,0.1l0.392-0.048L17.514,12.405z M18.937,12.453
	c0.108,0.1,0.096,0.095,0.245,0.048L18.937,12.453z M19.281,12.501c0.208,0.117,0.452,0.153,0.686,0.1L19.281,12.501z
	 M20.063,12.601l0.245,0.1c-0.064-0.068-0.155-0.106-0.249-0.105L20.063,12.601z M7.673,16.239v0.1
	C7.72,16.251,7.717,16.325,7.673,16.239z M3.021,22.422v0.1C3.069,22.434,3.066,22.508,3.021,22.422z M3.221,22.521l-0.1,0.145h0.1
	l1.077,0.575c-0.255-0.327-0.797-0.416-1.081-0.724L3.221,22.521z M32.205,22.906l0.1,0.048L32.205,22.906z M4.686,23.189
	l0.151,0.047L4.686,23.189z M5.225,23.429l-0.146,0.14l1.566,0.623V23.62C6.165,23.625,5.687,23.561,5.225,23.429z M28.579,23.621
	l-0.344,0.1c0.02,0.244-0.015,0.49-0.1,0.719l1.812-0.526v-0.054c-0.212-0.012-0.425-0.012-0.637,0
	C29.183,23.581,29.004,23.588,28.579,23.621L28.579,23.621z M12.031,24.484l-0.101,0.1l0.2,0.1L12.031,24.484z M26.231,24.484v0.191
	l0.101-0.1L26.231,24.484z M22.559,24.532l0.101,0.192h0.1l0.049-0.101l-0.1-0.101h-0.152L22.559,24.532z M13.844,24.725l-0.2,0.287
	h0.394L13.844,24.725z M17.369,24.725l-0.147,0.287h0.441L17.369,24.725z M24.469,24.725l-0.2,0.287h0.393L24.469,24.725z
	 M10.269,24.771l-0.1,0.24h0.343l-0.146-0.143c-0.019-0.045-0.054-0.08-0.098-0.1L10.269,24.771z M20.937,24.77l-0.146,0.239h0.294
	v-0.046l-0.101-0.1L20.937,24.77z"/>
</svg>
