<svg xmlns="http://www.w3.org/2000/svg" width="80" height="40" viewBox="0 0 80 40">
  <defs>
    <style>
      .cls-1 {
        fill: #fff;
        fill-rule: evenodd;
      }
    </style>
  </defs>
  <path id="Color_Fill_1" data-name="Color Fill 1" class="cls-1" d="M63.793,25.124h0.565V24.473h0.283V24.1a3.138,3.138,0,0,1,1.225.558V24.566a2.225,2.225,0,0,1-.094-1.022,1.006,1.006,0,0,1,.471-0.186,16.231,16.231,0,0,0-.188,1.673h1.225c0.037-.235-0.055-0.147.283-0.186V24.38a0.8,0.8,0,0,1,.471.093c-0.337.039-.237-0.044-0.377,0.186,0.186,0.138-.053.133,0.283,0.186a0.308,0.308,0,0,1,0-.279h0.094c0.093,0.475.389,0.407,0.942,0.372l0.094-.279H68.975V24.566H68.787v0.093h0.094c0.181,0.072-.188.093-0.188,0.093-0.185-.211-0.034-0.132-0.283,0a0.592,0.592,0,0,0-.283-0.558V24.1h0.094a0.93,0.93,0,0,1,.66-0.279,1.19,1.19,0,0,1,0-.465,1.692,1.692,0,0,1,.66.465,0.47,0.47,0,0,1,.094.279,8.742,8.742,0,0,1,2.356.093v0.093H69.729a0.581,0.581,0,0,0,.188.465,0.615,0.615,0,0,0-.377.093h0.094a3.169,3.169,0,0,0,1.319.093,0.968,0.968,0,0,1,.094-0.558v0.558l4.617-.186a9.587,9.587,0,0,0,1.413.465,0.514,0.514,0,0,1,.377-0.279c0.078,0.3-.046.142,0.189,0.279,0.094-.263.054,0.164,0.283,0,0.168-.121-0.012-0.191.283-0.279a0.4,0.4,0,0,0,.377.372A1.8,1.8,0,0,1,80,24.752v0.093c-1.444,1.034-1.776,6.848-1.979,9.3l-0.942,1.023c-1.2.658-2.714,0.121-4.335,0.465-1.241.263-2.716-.1-4.052,0.186a17.6,17.6,0,0,1-3.11.093H15.077A30.641,30.641,0,0,0,11.5,34.885V34.606c-0.95,0-1.33.177-2.262,0.186v0.186c0.105,0.184.056,0.168,0,.372a0.558,0.558,0,0,0-.565,0c-0.026-.684-0.278-0.487-0.471-0.93,0.531-.36.279-1.041,0.848-1.208a0.266,0.266,0,0,0,.094.093l0.094,0.837H9.517l-0.094-.929a10.932,10.932,0,0,1-2.073-.558v0.186H7.444C7.661,33.012,7.9,33.132,8.1,33.3L7.915,35.163H5.559V34.978a5.374,5.374,0,0,1-.377-2.138H5.371a3.762,3.762,0,0,1,1.6,0V32.654a19.5,19.5,0,0,0-5.088-1.58C1.892,29.6,1.756,28.7,1.7,27.82H1.885c0.145,0.23.063,0.193,0.283,0.093a1.927,1.927,0,0,1-.66-1.3H0v-0.93c0.592,0,1.584-.229,1.7-0.186,0.295,0.431.242,1.18,0.565,1.58a1.033,1.033,0,0,0,.565.093,0.532,0.532,0,0,1,.377,0V26.983a0.907,0.907,0,0,1-.283-0.837H3.11c0.236,0.2.24,0.142,0.565,0.093,0.067,0.4.216,0.5,0.283,0.93,1.124,0,2.106-.006,3.015,0a0.446,0.446,0,0,1,.094-0.279v0.372c-0.233.12-.064-0.04-0.188,0.186H7.067c0.1-.273.209-0.36,0.377-0.279a0.791,0.791,0,0,1,.377.279c-0.163-1.011-.969-0.681-2.261-0.651V26.611H7.915V26.332a1.476,1.476,0,0,1,.754-0.372l-0.094.372a4.1,4.1,0,0,1,.848.279,0.77,0.77,0,0,1,.094-0.465v0.093c0.317,0.516.013,0.887,0.377,1.3a0.6,0.6,0,0,1,.094-0.372v0.279a1.206,1.206,0,0,1,.377.093V26.89h0.848v0.279h4.052c0.041-.411-0.08-0.384.283-0.465a0.847,0.847,0,0,0,.66,0,1.284,1.284,0,0,0,0,.465h1.6a4.251,4.251,0,0,1,.094-1.3,1.858,1.858,0,0,1,.377-0.186V25.589c-0.375-.011-0.294-0.01-0.283-0.558,0.666,0.018,3.277.127,3.487-.186h-1.6a4.362,4.362,0,0,1-1.6-.093H29.305c0.856,0,3.622-.228,4.146.093a2.187,2.187,0,0,0-1.508.186h1.6a0.571,0.571,0,0,1,.189-0.186v1.023h0.283a2.261,2.261,0,0,1,.471-1.487V22.614a27.008,27.008,0,0,1,.094-4.648H34.77c0.069,0.313-.058.267,0.188,0.372a13.6,13.6,0,0,1,3.11-1.394c0.114,0.207.139,0.122,0.471,0.186v0.186c-0.238.136-.146,0.041-0.188,0.372,2.006,1.132,3.957,2.395,5.936,3.625,0.786,0.488,1.612,1.4,2.638,1.58,0.431-.393,1.526-0.3,2.356-0.279V22.521a6.978,6.978,0,0,1-.565-1.58,34.474,34.474,0,0,1-1.413-3.9H47.114a0.973,0.973,0,0,1-.188,1.209V18.152a13.684,13.684,0,0,1,.094-1.487l0.188,0.093a0.977,0.977,0,0,1-.188-0.465,36.983,36.983,0,0,0,4.24-1.673,7.991,7.991,0,0,0,1.979-.744,22.822,22.822,0,0,1-1.225-4.369h0.094V9.414c0.324,0.095.962,0.348,1.413,0.465l2.073-.186V9.507a4.267,4.267,0,0,0,.283-1.115A15.935,15.935,0,0,0,56.82,3h0.188V3.93a2.738,2.738,0,0,1,0,1.3c0,0.019.4,1.049,0.471,1.208,0.469,1.069,1.043,2.269,1.508,3.346a9.128,9.128,0,0,0,.565,1.58c0.28,0.412.83,0.4,1.037,0.93-0.576.7,0.4,2.634,0.754,3.439,0.47,1.07,1.04,2.264,1.508,3.347a8.242,8.242,0,0,0,.471,1.394,4.9,4.9,0,0,1,.565.372V21.87C64.169,23.118,63.785,23.907,63.793,25.124ZM56.82,9.6c0.013-.769.2-3.355-0.094-3.811l-0.942,3.9h0.188A1.769,1.769,0,0,1,56.82,9.6Zm0.188-3.811v3.9L59.27,11.18V10.994a8.463,8.463,0,0,1-.754-1.859c-0.33-.768-0.8-1.655-1.131-2.417A2.894,2.894,0,0,0,57.008,5.789Zm-3.863,5.856h0.283a2.527,2.527,0,0,0,.66-0.651,1.8,1.8,0,0,1-.66-0.558h0.188a1.47,1.47,0,0,0,.754.558c0.354-.421,1.032-0.442,1.131-1.116a5.425,5.425,0,0,0-2.261.372,0.572,0.572,0,0,1,.188.186H53.239c-0.166-.233-0.4-0.325-0.565-0.558h0.189a0.379,0.379,0,0,0,.377.186V9.879a2.06,2.06,0,0,1-.66-0.186V9.786h0.094c0.181,0.072-.188.093-0.188,0.093A0.572,0.572,0,0,0,52.3,9.693V9.786A4.365,4.365,0,0,1,53.145,11.645Zm2.544-1.766v0.186h0.094V9.972h0.094A0.341,0.341,0,0,0,55.689,9.879Zm2.073,1.859V12.11h1.885V11.924a1.082,1.082,0,0,1-.188-0.465,12.037,12.037,0,0,1-2.45-1.58v1.952c0.067,0.144.012,0.013,0,.279H57.2V12.017c0.184-.039.068,0.143,0.188,0,0.081-.175.045-0.069,0-0.279h0.377Zm-1.7-1.766a4.587,4.587,0,0,1-.565.558,2.771,2.771,0,0,0-.094,1.394c-0.306.077-.144-0.046-0.283,0.186H55.5V12.017H55.406c-0.181-.072.188-0.093,0.188-0.093,0.213,0.235.23,0.152,0.565,0.093C56.247,11.462,56.625,10.286,56.066,9.972Zm-0.848.558a1.831,1.831,0,0,1-.754.558V11.18h0.094a1.245,1.245,0,0,0,.565.372V11.366l0.283-.837H55.218Zm-2.638.279a2.73,2.73,0,0,0,.377,1.115V11.831a0.333,0.333,0,0,0,.094-0.186A9.414,9.414,0,0,0,52.58,10.808Zm1.7,0.372a2.742,2.742,0,0,1-.942.651,0.317,0.317,0,0,0,.094.186,3.747,3.747,0,0,0,1.508.093,1.442,1.442,0,0,0,.094-0.465A3.347,3.347,0,0,1,54.276,11.18Zm2.073,0.372a0.97,0.97,0,0,0,.094.558A0.97,0.97,0,0,0,56.349,11.552Zm3.392,0.186a0.455,0.455,0,0,0,.471.372V12.017Zm-6.69.279a0.342,0.342,0,0,0,.188.093A0.341,0.341,0,0,0,53.051,12.017Zm0,0.186a4.186,4.186,0,0,0,.377,1.673A0.707,0.707,0,0,0,53.9,13.5a3.318,3.318,0,0,1-.565-1.208Zm0.471,0a4.562,4.562,0,0,0,.565,1.394,0.324,0.324,0,0,0,.188-0.093c0.32-.088.293-0.036,0.377-0.372a1.448,1.448,0,0,0,.188-0.93A2.449,2.449,0,0,1,53.522,12.2Zm1.6,0a5.1,5.1,0,0,0-.283,1.116h0.188c0.4-.324.956-0.162,1.037-0.837C55.833,12.4,55.4,12.3,55.124,12.2Zm2.356,0a1.086,1.086,0,0,1-.471.465L57.2,13.318a0.459,0.459,0,0,1,.283.093c-0.278.194,0.208,1.29,0.471,1.58V14.9a6.577,6.577,0,0,0,.471-2.7H58.327A1.059,1.059,0,0,1,57.479,12.2Zm1.225,0a8.335,8.335,0,0,0-.471,3.625,0.333,0.333,0,0,0,.094-0.186,10.944,10.944,0,0,0,.942-3.44A0.732,0.732,0,0,1,58.7,12.2Zm0.848,0c-0.2.878-1.368,3.785-.942,4.369V16.386a23.932,23.932,0,0,0,1.413-3.16,1.151,1.151,0,0,0-.283-0.93A0.342,0.342,0,0,0,59.552,12.2Zm0.471,0,0.094,0.465a0.334,0.334,0,0,0,.094-0.186C60.393,12.2,60.205,12.322,60.024,12.2Zm-3.863.465a1.164,1.164,0,0,0,.094.372h0.094V12.668H56.16Zm0.66,0.279a0.594,0.594,0,0,0,.094.372A0.594,0.594,0,0,0,56.82,12.947Zm-2.073.558a3.553,3.553,0,0,0,.66,2.975c0.083-.632.68-3.134,0.377-3.346A2.115,2.115,0,0,1,54.747,13.5Zm1.319-.279c-0.064,1.891-.992,3.6.094,4.927C56.173,17.212,56.423,13.782,56.066,13.225Zm0.283,0.093V17.13a4.07,4.07,0,0,0,.094,1.58V14.9A4.07,4.07,0,0,0,56.349,13.318ZM60.4,19.825c0.078-.3-0.046-0.142.188-0.279v0.093h0.094c-0.07.081-.119,0.1-0.188,0.186a0.993,0.993,0,0,1,.942.186,0.619,0.619,0,0,0-.094.372h0.283a0.308,0.308,0,0,1,0-.279h0.188a0.711,0.711,0,0,0,0,.372,4.948,4.948,0,0,0,1.225-.465,7.447,7.447,0,0,1-.848-2.045,35.989,35.989,0,0,1-1.979-4.648,0.334,0.334,0,0,0-.094.186A17.024,17.024,0,0,0,58.7,16.944a7.659,7.659,0,0,0,.66,1.394C59.642,18.974,59.513,19.766,60.4,19.825ZM56.82,13.6a28.08,28.08,0,0,0,.283,4.462l0.283,0.093V17.5C56.983,16.826,57.342,13.942,56.82,13.6Zm-2.544.093a0.616,0.616,0,0,0,.094.558h0.094l0.094-.558H54.276Zm3.11,2.789h0.377c0.062-1.061.019-2.227-.66-2.789v0.093A6.6,6.6,0,0,1,57.385,16.479Zm-3.3-2.6a2.058,2.058,0,0,0-.66.186,6.931,6.931,0,0,0,.565,1.859A4.26,4.26,0,0,0,54.087,13.876Zm-1.037.279a5.462,5.462,0,0,1-1.508.558c-1.349.55-2.892,1.051-4.24,1.673v0.093H47.4a7.694,7.694,0,0,0,1.79,1.394c1.215,0.888,2.267,2.1,3.581,2.882,0.166-2.062,1.87-4.546.471-6.507A0.341,0.341,0,0,0,53.051,14.155ZM54.37,14.9a7.427,7.427,0,0,1-.283,1.115,10.291,10.291,0,0,0,.848,3.439C55.041,17.762,55.707,15.948,54.37,14.9Zm3.675,0.93a3.616,3.616,0,0,0-.094.744h0.189A0.765,0.765,0,0,0,58.045,15.828Zm0.283,0.744c-0.12.378-.165,0.584-0.283,1.023h0.188C58.311,17.113,58.609,16.891,58.327,16.572Zm-10.93.186v0.186c1.875,1.154,3.312,3.074,5.277,4.09a7.972,7.972,0,0,0-1.979-1.58C49.572,18.626,48.62,17.484,47.4,16.758Zm6.5,0-1.036,4.183a8.125,8.125,0,0,1,1.6,1.209c0.059-.708.265-1.421,0.377-2.045A19.809,19.809,0,0,0,53.9,16.758Zm5.183,0.279a0.471,0.471,0,0,1,.094.279H59.081V17.037Zm-0.188,1.023a2.938,2.938,0,0,0-.283-0.93H58.516c-0.06.429-.215,0.581-0.283,1.023h0.094A1.032,1.032,0,0,1,58.893,18.059ZM56.16,22.893c0.038-2.418.124-4.069-.66-5.671H55.406V17.78c-0.917,1.34.081,3.849,0.377,5.113H56.16ZM52.3,22.614L52.58,21.22c-1.827-1.056-3.234-2.759-4.994-3.9V17.5a21.334,21.334,0,0,1,1.7,3.811,3.551,3.551,0,0,0,.471,1.3H52.3ZM58.61,17.5a0.369,0.369,0,0,1,0,.465V17.5ZM38.351,23.73h7.915l0.283-.744a16.645,16.645,0,0,1-1.885-1.208c-1.23-.766-2.443-1.371-3.675-2.138a11.282,11.282,0,0,0-2.733-1.673v0.093a4.359,4.359,0,0,1,.094,1.673v4Zm21.39-3.347a8.178,8.178,0,0,0-.66-2.231H58.987a1.964,1.964,0,0,0-1.037.558,2.2,2.2,0,0,0-.188,1.58,2.053,2.053,0,0,0,.66.093A1.218,1.218,0,0,1,59.27,20.2C59.3,20.439,59.268,20.38,59.741,20.383Zm-2.733-1.859V18.9H57.2A0.367,0.367,0,0,0,57.008,18.524Zm-0.66.744a2.194,2.194,0,0,0,.094,1.022A2.195,2.195,0,0,0,56.349,19.268Zm0.754,0a0.594,0.594,0,0,0,.094.372A0.6,0.6,0,0,0,57.1,19.268Zm0.188,1.115h0.377V20.29c-0.083-.13-0.1-0.521-0.188-0.651C57.431,19.993,57.348,20.031,57.291,20.383ZM62,19.825a0.334,0.334,0,0,1,.094.186H62V19.825Zm0.188,0.186a0.333,0.333,0,0,1,.094.186H62.191V20.011ZM62.945,20.2v0.186C63.1,20.273,63.06,20.344,62.945,20.2Zm-6.125.093v1.394h0.188v-1.3Zm-1.979.279-0.188,1.766a3.865,3.865,0,0,0,.848.558V22.521C55.156,22.007,55.3,20.97,54.841,20.569Zm-2.073.558a6.74,6.74,0,0,0,1.7,1.3A4.069,4.069,0,0,0,52.768,21.127Zm-0.094.279a3.668,3.668,0,0,1-.283,1.209,1.3,1.3,0,0,1,1.225.744,5.075,5.075,0,0,1,.377,1.487h0.094V23.358a7.807,7.807,0,0,1-.754-1.487A1.571,1.571,0,0,0,52.674,21.406Zm4.994,0.372a0.825,0.825,0,0,1-.471.093,6.036,6.036,0,0,0-.094,1.673,0.334,0.334,0,0,1,.094.186h0.754V23.637a4.7,4.7,0,0,0-.188-1.116,0.594,0.594,0,0,1-.094.372,1.339,1.339,0,0,0-.188-0.465A0.969,0.969,0,0,0,57.668,21.778Zm0.283,0.093a0.342,0.342,0,0,0,.189.093A0.341,0.341,0,0,0,57.951,21.87Zm-4.146.372c0.1,0.367.269,0.472,0.377,0.837h0.094A0.8,0.8,0,0,0,53.8,22.242Zm0.754,0.186v0.186a3.8,3.8,0,0,0,.754.465A3.628,3.628,0,0,0,54.558,22.428Zm-6.408,2.324c0.717,0.031.379,0.129,0.66,0.279H50.13a4.855,4.855,0,0,0-.754-2.045,4.329,4.329,0,0,0-1.7-.093V22.8H47.585v0.372A3.6,3.6,0,0,1,48.151,24.752Zm4.24-1.952a5.27,5.27,0,0,0-.377,1.487h0.094V24.194H52.2a2.981,2.981,0,0,1,.188-0.558,0.77,0.77,0,0,0,.094.465A4,4,0,0,0,52.391,22.8Zm2.073,0c0.05,0.221-.084.386,0.188,0.558,0.15-.087.292,0.09,0.471-0.186A3.077,3.077,0,0,1,54.464,22.8Zm-4.617.093c0.264,0.653.491,2.118,1.413,2.138a0.642,0.642,0,0,1,.377-0.093V24.752a10.577,10.577,0,0,0,.565-1.859H49.847Zm6.031,0.093v0.372c0.306-.077.144,0.046,0.283-0.186-0.089-.164-0.021,0,0-0.186H55.878Zm-2.733.093c0.095,0.374.272,0.558,0.377,0.93h0.094V23.637A3.315,3.315,0,0,0,53.145,23.079Zm-6.408.093-0.283.558h0.188V23.637A0.322,0.322,0,0,0,46.737,23.172Zm0.377,0.372V23.73h0.094A0.317,0.317,0,0,0,47.114,23.544Zm5.748,1.208,0.66-.093,0.094-.186a2.19,2.19,0,0,1-.66-0.929H52.862v1.208Zm3.109-1.208V23.73C56.123,23.619,56.087,23.691,55.972,23.544Zm-1.413.186a0.794,0.794,0,0,0,.754,0H54.558Zm-16.113.558a44.22,44.22,0,0,1,4.523-.093V23.916H38.351v0.093A0.47,0.47,0,0,1,38.445,24.287Zm4.617-.372v0.279h3.2V23.916h-3.2Zm4.146,0.279V23.916H46.832V24.1H46.737v0.093h0.471Zm0.377-.279V24.1H47.68A0.317,0.317,0,0,0,47.585,23.916Zm0.188,0a0.446,0.446,0,0,0,.094.279A0.445,0.445,0,0,0,47.774,23.916Zm6.6,0.279-0.188.558h0.283a2.228,2.228,0,0,1,.942-0.465V24.194H54.37Zm1.6,0.372V24.194H55.878a0.676,0.676,0,0,1-.377.186v0.186h0.471ZM38.445,24.38a1.672,1.672,0,0,0,.094.837A1.672,1.672,0,0,0,38.445,24.38Zm0.283,0.837a3.823,3.823,0,0,0,1.885-.279,1.812,1.812,0,0,0,.188-0.372c0.215,0.093.425,0.045,0.471,0.093a1.812,1.812,0,0,1,.188.372h0.565v0.186a16.317,16.317,0,0,0,3.581-.093,0.669,0.669,0,0,0,.283.186,5.575,5.575,0,0,0,.283-0.93H38.916A1.407,1.407,0,0,0,38.728,25.217Zm8.481-.465V24.38a2.26,2.26,0,0,0-.754.093,0.318,0.318,0,0,0,.094.186A1.262,1.262,0,0,0,47.209,24.752Zm16.4-.372a0.969,0.969,0,0,0,.094.558A0.969,0.969,0,0,0,63.6,24.38Zm6.973,0h0.189v0.093A0.325,0.325,0,0,1,70.577,24.38Zm-22.992.093a0.446,0.446,0,0,0,.094.279V24.473H47.585Zm22.992,0.186h0.189v0.093H70.577V24.659Zm-52.768.186H18a5.225,5.225,0,0,1-.188.93v-0.93Zm0.283,0H18.28v0.093A0.324,0.324,0,0,1,18.092,24.845Zm3.486,0v0.186h3.769a1.815,1.815,0,0,0,1.319-.186h-1.6A18.107,18.107,0,0,1,21.578,24.845Zm5.183,0v0.186h1.6V24.845h-1.6Zm1.7,0v0.186c0.657,0.019,3.183.127,3.392-.186h-1.6A12.681,12.681,0,0,1,28.457,24.845Zm47.02,0.186v0.558h0.377a0.6,0.6,0,0,1,.283-0.465,9.081,9.081,0,0,0-1.979-.186v0.186h0.377A2.039,2.039,0,0,1,75.477,25.031Zm-3.486,0c-0.175.106-.674,0.077-0.848,0.186a1.544,1.544,0,0,0,1.225-.186H71.991Zm0.848,0c0.162,0.082.121,0.083,0.283,0H72.839Zm-32.6.093c0.162,0.082.12,0.083,0.283,0H40.236Zm1.319,0a0.341,0.341,0,0,0,.188.093A0.341,0.341,0,0,0,41.555,25.124Zm29.211,0a0.341,0.341,0,0,0,.188.093A0.342,0.342,0,0,0,70.766,25.124Zm-52.674.093V25.4h0.094V25.217H18.092Zm2.638,0V25.4h0.754V25.217H20.73Zm0.848,0V25.4c0.641,0.019,3,.127,3.2-0.186H23.274A12.41,12.41,0,0,1,21.578,25.217Zm4.994,0V25.4h0.094A0.317,0.317,0,0,0,26.572,25.217Zm0.189,0V25.4h1.6V25.217h-1.6Zm1.7,0V25.4c0.657,0.019,3.183.127,3.392-.186h-1.6A12.681,12.681,0,0,1,28.457,25.217Zm3.486,0V25.4h1.6V25.217h-1.6Zm34.2,0c0.026,0.242,0,.183.471,0.186V25.217H66.148Zm0.565,0a0.477,0.477,0,0,0,.471.186V25.217H66.714Zm1.413,0a0.341,0.341,0,0,0,.189.093A0.342,0.342,0,0,0,68.127,25.217Zm6.407,0a0.379,0.379,0,0,0,.377.186c0.095-.064.377-0.12,0.471-0.186H74.535Zm1.7,0a0.407,0.407,0,0,0,.283.279c0.073-.063.21-0.122,0.283-0.186ZM53.9,25.31a2.112,2.112,0,0,1,0,.837h0.094V26.054a1.216,1.216,0,0,0,.094-0.651Zm9.894,0a0.5,0.5,0,0,0,.565,0H63.793Zm10.271,0a0.278,0.278,0,0,0,.377,0H74.064Zm1.979,0a0.356,0.356,0,0,0,.094.279C76.267,25.36,76.173,25.47,76.042,25.31Zm-37.6.093a0.342,0.342,0,0,0,.188.093A0.341,0.341,0,0,0,38.445,25.4Zm0.66,0a0.341,0.341,0,0,0,.189.093A0.341,0.341,0,0,0,39.1,25.4Zm0.283,0a1.517,1.517,0,0,0,1.131,0H39.388Zm2.073,0a0.794,0.794,0,0,0,.754,0H41.461Zm0.848,0a6.067,6.067,0,0,0,2.921,0H42.309Zm3.675,0v0.186h0.094A0.317,0.317,0,0,0,45.984,25.4Zm25.536,0a0.959,0.959,0,0,0,.848,0H71.519Zm-3.392.093a0.341,0.341,0,0,0,.189.093A0.342,0.342,0,0,0,68.127,25.5Zm6.973,0v0.186h0.283V25.5H75.1Zm-54.37.093v0.186h0.754V25.589H20.73Zm0.848,0v0.186h1.6V25.589h-1.6Zm1.7,0v0.186h1.508V25.682h0.094V25.589h-1.6Zm3.2,0c0.156,0.1.1,0.165,0.188,0H26.478Zm0.283,0v0.186h1.6V25.589h-1.6Zm1.7,0v0.186c0.657,0.019,3.183.127,3.392-.186H28.457Zm3.486,0v0.186h1.6V25.589h-1.6Zm34.77,0c0.162,0.082.12,0.083,0.283,0H66.714Zm6.219,0v0.093H72.839c-0.181.072,0.189,0.093,0.189,0.093A0.317,0.317,0,0,0,72.933,25.589Zm1.225,0a0.278,0.278,0,0,0,.377,0H74.158Zm0.471,0c0.162,0.082.12,0.083,0.283,0H74.629Zm-36.184.093a0.342,0.342,0,0,0,.188.093A0.342,0.342,0,0,0,38.445,25.682Zm0.754,0a0.959,0.959,0,0,0,.848,0H39.2Zm31.661,0v0.186h0.094V25.682H70.86Zm0.283,0v0.186h0.094V25.682H71.143Zm0.377,0v0.186a1.231,1.231,0,0,0,.848-0.186H71.519Zm-7.35.186v0.093H64.075c-0.132-.015.094,0.093,0.094,0.093h0.188C64.374,25.9,64.212,25.941,64.17,25.868Zm-30.436.093v0.186h0.188V26.054Zm4.711,0v0.186h0.188V25.961H38.445Zm0.754,0a0.8,0.8,0,0,0,.754.186V25.961H39.2Zm-37.5.279a1.784,1.784,0,0,0,.188.93H1.979V26.8C1.851,26.655,1.814,26.4,1.7,26.239Zm16.4,0.93c0.7,0,.837,0,1.508,0a2.854,2.854,0,0,0-.188-0.93,6.589,6.589,0,0,0-1.319.093v0.837Zm1.6,0h0.66a1.443,1.443,0,0,0,.094-0.465c-0.114-.165,0-0.163-0.094-0.279a0.447,0.447,0,0,0-.471-0.186A1.627,1.627,0,0,0,19.694,27.169Zm0.848,0a1.424,1.424,0,0,0,1.037-.279c0.011,0.36-.062.276,0.471,0.279V26.518H21.955a1.141,1.141,0,0,1-.377.372V26.7a0.705,0.705,0,0,0,.377-0.465H20.73a0.342,0.342,0,0,1-.189.093v0.837Zm3.11,0V26.7a1.473,1.473,0,0,0,.471-0.372,6.67,6.67,0,0,0-1.79-.093,0.572,0.572,0,0,1-.189.186c0.058,0.179.072,0.614,0.094,0.651A3.458,3.458,0,0,0,23.651,27.169Zm1.037-.93a2.525,2.525,0,0,1-.377.93h0.754a0.931,0.931,0,0,1,.471-0.558V26.8a1.142,1.142,0,0,0-.377.372h0.565V26.518c-0.132-.019.038,0.076-0.094,0.093-0.073.179-.094-0.186-0.094-0.186a0.334,0.334,0,0,0,.094-0.186H24.688Zm1.225,0.93H27.8V26.425a4.321,4.321,0,0,0-1.79-.186A3.019,3.019,0,0,0,25.913,27.169Zm1.979,0h1.79V26.332a5.892,5.892,0,0,0-1.6-.093A1.627,1.627,0,0,0,27.892,27.169Zm1.979,0.093c0.412,0,1.413-.093,1.413-0.093a1.3,1.3,0,0,1,.377.651V26.8c-0.061-.052-0.492-0.482-0.188-0.558H29.965A3.39,3.39,0,0,0,29.87,27.262Zm2.073-1.023v0.186a1.013,1.013,0,0,1,.565.744c0.079-.424.17-0.384,0.66-0.372a0.342,0.342,0,0,0,.189.093V26.332h0.094V26.239H31.944ZM3.2,26.425a2.376,2.376,0,0,1,.188.465H3.486V26.518Zm16.113,0.093c0.117,0.146.061,0.047,0,.186a1.142,1.142,0,0,1-.377.372A1.915,1.915,0,0,1,19.317,26.518Zm12.438,0,0.377,0.651H32.32V26.983c-0.064-.072-0.124-0.207-0.188-0.279A0.676,0.676,0,0,0,31.755,26.518Zm-7.821.093-0.188.558h0.283V26.983a0.621,0.621,0,0,0,.094-0.372H23.934Zm-15.265.93,0.565-.093c0.079-.42.1-0.326,0.188-0.744H9.234a0.868,0.868,0,0,1-.283.558c-0.127-.24-0.092-0.074-0.377-0.186v0.093A0.621,0.621,0,0,1,8.669,27.541ZM6.125,26.89H6.313v0.093A0.324,0.324,0,0,1,6.125,26.89Zm3.958,0a0.369,0.369,0,0,1,0,.465V26.89Zm-6.407.093v0.186H3.769V26.983H3.675Zm11.873,0v0.186h0.094V26.983H15.548Zm0.283,0v0.186h0.094V26.983H15.83Zm-13.475.372a0.341,0.341,0,0,0,.188.093A0.341,0.341,0,0,0,2.356,27.355Zm0.754,0-0.094.372a0.6,0.6,0,0,1,.471.186V27.448H3.392V27.355H3.11Zm0.848,0v0.372H4.429c0.078,0.3-.046.142,0.188,0.279V27.355H3.958Zm0.754,0v0.651H4.9a1.333,1.333,0,0,1,.188-0.651H4.711Zm1.037,0a1.322,1.322,0,0,0,1.037,0H5.748Zm5.465,0a0.642,0.642,0,0,0,.66,0h-0.66Zm0.754,0a0.278,0.278,0,0,0,.377,0H11.967Zm0.471,0a1.929,1.929,0,0,0,1.319,0H12.438Zm1.413,0a1.929,1.929,0,0,0,1.319,0H13.852Zm2.45,0a0.278,0.278,0,0,0,.377,0H16.3Zm0.471,0a1.321,1.321,0,0,0,1.037,0H16.773Zm1.6,0a0.341,0.341,0,0,0,.188.093A0.341,0.341,0,0,0,18.375,27.355Zm0.377,0a0.958,0.958,0,0,0,.848,0H18.752Zm0.942,0a0.794,0.794,0,0,0,.754,0H19.694Zm0.848,0a0.383,0.383,0,0,0,.471,0H20.542Zm0.66,0a0.959,0.959,0,0,0,.848,0H21.2Zm0.942,0a0.341,0.341,0,0,0,.189.093A0.342,0.342,0,0,0,22.144,27.355Zm0.377,0a1.516,1.516,0,0,0,1.131,0H22.521Zm1.7,0a0.341,0.341,0,0,0,.189.093A0.341,0.341,0,0,0,24.217,27.355Zm7.538,0a0.341,0.341,0,0,0,.189.093A0.342,0.342,0,0,0,31.755,27.355Zm-1.885.093a0.594,0.594,0,0,0,.094.372A0.594,0.594,0,0,0,29.87,27.448Zm-23.651.186c0.162,0.082.12,0.083,0.283,0H6.219Zm5.183,0a0.278,0.278,0,0,0,.377,0H11.4Zm0.565,0a0.278,0.278,0,0,0,.377,0H11.967Zm0.471,0a0.642,0.642,0,0,0,.66,0h-0.66Zm1.979,0a1.517,1.517,0,0,0,1.131,0H14.417Zm1.413,0a0.958,0.958,0,0,0,.848,0H15.83Zm0.942,0a1.321,1.321,0,0,0,1.037,0H16.773Zm1.319,0a0.341,0.341,0,0,0,.188.093A0.341,0.341,0,0,0,18.092,27.634Zm0.377,0a0.794,0.794,0,0,0,.754,0H18.469Zm1.225,0c0.162,0.082.12,0.083,0.283,0H19.694Zm0.565,0a0.341,0.341,0,0,0,.189.093A0.341,0.341,0,0,0,20.259,27.634Zm0.283,0c0.162,0.082.12,0.083,0.283,0H20.542Zm0.471,0a1.321,1.321,0,0,0,1.036,0H21.013Zm1.508,0a1.321,1.321,0,0,0,1.036,0H22.521Zm2.827,0a0.341,0.341,0,0,0,.188.093A0.341,0.341,0,0,0,25.348,27.634Zm0.942,0a0.342,0.342,0,0,0,.189.093A0.341,0.341,0,0,0,26.29,27.634Zm5.465,0c0.162,0.082.12,0.083,0.283,0H31.755Zm-28.08.093a0.445,0.445,0,0,0,.094.279A0.445,0.445,0,0,0,3.675,27.727ZM3.2,27.82v0.186H3.3V27.82H3.2Zm0.754,0v0.186H4.052A0.317,0.317,0,0,0,3.958,27.82Zm0.188,0v0.186H4.335V27.82H4.146Zm2.733,0v0.186H7.067V27.82H6.879Zm-1.413.093a0.341,0.341,0,0,0,.188.093A0.341,0.341,0,0,0,5.465,27.913Zm0.754,0a0.5,0.5,0,0,0,.565,0H6.219Zm1.225,0a0.341,0.341,0,0,0,.188.093A0.341,0.341,0,0,0,7.444,27.913Zm1.225,0a0.383,0.383,0,0,0,.471,0H8.669Zm2.827,0c0.162,0.082.12,0.083,0.283,0H11.5Zm0.471,0a0.278,0.278,0,0,0,.377,0H11.967Zm0.942,0a0.341,0.341,0,0,0,.188.093A0.342,0.342,0,0,0,12.909,27.913Zm0.283,0a0.5,0.5,0,0,0,.565,0H13.192Zm0.66,0a2.146,2.146,0,0,0,1.413,0H13.852Zm1.508,0a0.342,0.342,0,0,0,.189.093A0.341,0.341,0,0,0,15.359,27.913Zm0.565,0a0.794,0.794,0,0,0,.754,0H15.925Zm0.848,0a1.321,1.321,0,0,0,1.037,0H16.773Zm1.508,0a1.135,1.135,0,0,0,.942,0H18.28Zm2.638,0a0.794,0.794,0,0,0,.754,0H20.919Zm4.429,0a0.341,0.341,0,0,0,.188.093A0.341,0.341,0,0,0,25.348,27.913Zm6.5,0a0.383,0.383,0,0,0,.471,0H31.849ZM9.894,33.49l0.094,0.651a12.239,12.239,0,0,0,1.413.093V34.141A1.924,1.924,0,0,0,9.894,33.49Z" transform="translate(0 0.531)"/>
</svg>
