<?xml version="1.0" encoding="utf-8"?>
<!-- Generator: Adobe Illustrator 16.0.0, SVG Export Plug-In . SVG Version: 6.00 Build 0)  -->
<!DOCTYPE svg PUBLIC "-//W3C//DTD SVG 1.1//EN" "http://www.w3.org/Graphics/SVG/1.1/DTD/svg11.dtd">
<svg version="1.1" id="Layer_1" xmlns="http://www.w3.org/2000/svg" xmlns:xlink="http://www.w3.org/1999/xlink" x="0px" y="0px"
	 width="40px" height="40px" viewBox="0 0 40 40" enable-background="new 0 0 40 40" xml:space="preserve">
<path id="Color_Fill_1" fill="#FFFFFF" d="M16.829,12.272c0.309,0.043,0.624,0.026,0.927-0.049v0.147H18.1
	c0-0.053,0.017-0.105,0.049-0.147c0.095,0.03,0.193,0.046,0.293,0.049h0.049c-0.01,0.149,0.007,0.298,0.049,0.441
	c0.366,0,0.488,0.092,0.878,0.1c0.049-0.155-0.009-0.182,0.1-0.245v0.2l0.829,0.1v0.147c-0.435,0.01-0.918,0.048-1.415,0.049
	c-0.129,0.117-0.243,0.249-0.341,0.392c-0.061,0.077-0.031,0.025,0,0.1V13.6c0.204-0.064,0.416-0.098,0.629-0.1v1.078h0.341
	l0.049-0.294h0.732v0.046h0.048c-0.024,0.064-0.024,0.135,0,0.2c0.279,0.18,0.299-0.106,0.439-0.2l0.487-0.1v-1.125
	c0.84-0.128,1.693-0.145,2.537-0.049c0.075,0.041,0.16,0.058,0.244,0.049l0.049-0.49c0.396-0.115,0.812-0.149,1.221-0.1
	c0.139,0.062,0.287,0.096,0.439,0.1c-0.02,0.213-0.002,0.429,0.049,0.637c-0.017,0.474-0.033,0.947-0.049,1.421h0.049
	c0.024-0.041,0.059-0.075,0.1-0.1c0.107,0.244,0.146,0.009,0.341,0.146c0.039,0.103,0.088,0.201,0.146,0.294h1.513
	c0.417,0.278,1.278-0.025,1.854,0.1c0.793,0.089,1.593,0.105,2.39,0.049h4.634v0.245c-0.732,0.039-1.467,0.039-2.2,0l-3.562,0.049
	v0.2C33.989,15.7,37.131,15.7,40,15.7v0.637c-5.549-0.007-10.343,0.145-15.561,0.147c0.012,0.249-0.022,0.499-0.101,0.735
	l-0.146-0.1v0.049c0.146,0.281,0.128,0.619-0.049,0.882c0.494,0.029,0.976,0.163,1.414,0.392V18.4c-0.063-0.027-0.035,0-0.049-0.049
	V18.3l0.146,0.05c-0.01,0.199,0.021,0.215,0.341,0.199c0.241,0.082,0.505,0.064,0.731-0.049c0.053,0.191,0.057,0.188,0.293,0.2
	c0.316,0.101,0.646,0.151,0.977,0.147c0,0.053,0.017,0.104,0.049,0.146c0.004-0.038,0.021-0.073,0.049-0.1v0.244h-0.047
	c-0.027-0.063,0-0.035-0.049-0.049c-0.08,0.186-0.115,0.387-0.1,0.588h0.049c-0.002-0.056,0.016-0.111,0.051-0.154v0.146
	c0.127-0.037,0.258-0.055,0.391-0.049l-0.05-0.146h0.101v0.199h0.146c0.031-0.191,0.075-0.178,0.101-0.392h0.584v0.735h0.101
	c0.271,0.107,0.573,0.089,0.829-0.05v0.101c-0.152,0.135-0.227,0.337-0.2,0.539c0.251,0.08,0.462,0.256,0.585,0.49
	c-0.076,0.082-0.127,0.184-0.146,0.293c-0.271,0.084-0.533,0.199-0.779,0.344c0.119,0.189,0.17,0.414,0.146,0.637
	c0.047,0.719-0.393,1.381-1.074,1.617c-1.012,0.595-2.072,1.101-3.172,1.512H5.61c-0.503-0.197-0.977-0.461-1.41-0.784
	c-0.592-0.366-1.242-0.579-1.8-0.979c-0.277-0.19-0.524-0.422-0.732-0.687c-0.06-0.108,0.119-0.112,0-0.2
	c-0.271-0.089-0.532-0.203-0.78-0.343c0.004-0.038,0.021-0.073,0.049-0.1c0.157-0.121,0.289-0.271,0.39-0.441
	c-0.121-0.296-0.188-0.611-0.2-0.931H0.976c-0.04,0.117-0.089,0.232-0.146,0.343C0.536,21.344,0.252,21.246,0,21.091h0.049v-0.049
	c0.201,0.086,0.416,0.136,0.634,0.147v-0.101c-0.1-0.333-0.133-0.683-0.1-1.028H0.439c0.009-0.232,0.042-0.462,0.1-0.687
	c-0.114-0.368-0.196-0.745-0.244-1.127c0.183-0.085,0.385-0.12,0.585-0.101c0.621-0.157,1.267-0.191,1.9-0.1
	c0.527-0.123,1.071-0.157,1.61-0.1v0.1h1.561c0.038-0.049-0.059-0.113,0.049-0.1c0.305,0.063,0.616,0.096,0.927,0.1v-0.238h0.049
	v0.049c0.037,0.06,0.054,0.129,0.049,0.199h0.341c0.039-0.072,0.088-0.141,0.146-0.199c0.274,0.219,0.637,0.293,0.976,0.199h2.439
	v-0.248h0.585c0.04,0.158-0.024,0.074,0.1,0.146c0.006-0.063,0.044-0.118,0.1-0.146v0.146c0.249-0.033,0.094-0.087,0.293,0V17.71
	h0.146c0.033-0.57,0.016-1.143-0.051-1.71l-2.441-0.3c0-0.623,0-1.057,0-1.47h3.219v0.2c0.492,0.136,1.003,0.186,1.512,0.147v-0.149
	c0.335-0.078,0.68-0.111,1.024-0.1c0.332,0.17,0.7,0.254,1.073,0.245c0.119-0.066-0.034-0.134,0.293-0.147l-0.049-0.784
	c-0.597,0.077-1.203-0.008-1.756-0.245c-0.06-0.19-0.077-0.391-0.049-0.588h0.049v-0.047l1.171-0.1L16.2,12.37h0.488v-0.147
	c0.139-0.272,0.175-0.585,0.1-0.882V8.5h0.049v3.772H16.829z M18.929,13.546c0.084,0.043,0.062,0.044,0.146,0h-0.148H18.929z
	 M20.979,14.33c0.055,0.055,0.145,0.055,0.199,0H20.979z M14.878,14.43v0.147h0.439c0.021-0.056,0.056-0.106,0.1-0.147h-0.051
	v-0.051c-0.159,0.042-0.324,0.058-0.488,0.049V14.43z M20.829,14.577c0.053,0,0.104-0.017,0.146-0.049
	c-0.033-0.038-0.063-0.109-0.1-0.147v0.049c-0.03,0.042-0.046,0.093-0.046,0.145V14.577z M23.658,14.528
	c-0.079,0.049-0.311,0.047-0.391,0.1c0.254-0.034,0.512,0.018,0.732,0.147l0.049-0.245h-0.39L23.658,14.528z M21.658,14.577
	c0.055,0.055,0.145,0.055,0.199,0H21.658z M22.048,14.577c0.27,0.089,0.56,0.089,0.829,0H22.048L22.048,14.577z M25.8,14.869v0.1
	h0.05C25.844,14.931,25.827,14.896,25.8,14.869z M28.927,15.6v-0.143c-0.214,0-2.163,0.1-2.243,0.147
	C27.391,15.609,28.23,15.653,28.927,15.6z M10.976,17.857v0.199h0.049v-0.1c0.041-0.025,0.075-0.059,0.1-0.1H10.976z M11.269,17.857
	v0.199c0.053,0.001,0.104-0.017,0.146-0.049h0.049v-0.15h-0.2H11.269z M11.707,18c0.027,0.027,0.062,0.044,0.1,0.049
	C11.78,18.022,11.745,18.005,11.707,18z M11.951,18c0.019,0.124-0.028,0.077,0.146,0.1V18H11.951z M25.366,18.245
	c0.053-0.001,0.104,0.017,0.146,0.049c-0.053,0.002-0.104-0.015-0.146-0.045V18.245z M1.659,18.588c0.399,0.109,0.82,0.109,1.22,0
	H1.659z M2.927,18.588c0.448,0.117,0.918,0.117,1.366,0H2.927z M4.342,18.588c0.448,0.117,0.918,0.117,1.366,0H4.342L4.342,18.588z
	 M0.83,18.734v0.101h0.146v-0.047L0.83,18.734z M2.83,18.734v0.101h0.048v-0.101H2.83L2.83,18.734z M1.61,18.936
	c0.416,0.111,0.853,0.111,1.268,0H1.61z M2.927,18.936c0.448,0.117,0.918,0.117,1.366,0H2.927z M4.342,18.936
	c0.448,0.117,0.918,0.117,1.366,0H4.342L4.342,18.936z M0.879,18.984v0.1h0.145v-0.1H0.879L0.879,18.984z M1.562,19.131
	c0.432,0.115,0.885,0.115,1.317,0H1.562L1.562,19.131z M2.928,19.131c0.448,0.117,0.918,0.117,1.366,0H2.928L2.928,19.131z
	 M4.343,19.131c0.448,0.117,0.918,0.117,1.366,0H4.341H4.343z M0.88,19.18v0.147h0.144V19.18H0.878H0.88z M28,19.229
	c0.056,0.072,0.056,0.174,0,0.246V19.229z M1.512,19.329c0.171,0.074,0.366,0.074,0.537,0H1.512z M1.512,19.529
	c0.155,0.072,0.333,0.072,0.488,0H1.512z M1.512,19.676c0.154,0.072,0.333,0.072,0.488,0H1.512z M28.488,19.725v0.101h0.049
	c-0.004-0.04-0.021-0.078-0.049-0.106V19.725z M27.854,19.773c0.027,0.027,0.063,0.045,0.101,0.05
	c-0.026-0.029-0.062-0.049-0.101-0.056V19.773z M28,19.773l-0.049,0.147H28.2c-0.07-0.151,0.042-0.121-0.2-0.153V19.773z
	 M1.463,19.874c0.188,0.077,0.397,0.077,0.585,0H1.463z M28.292,19.874v0.101h0.049c-0.002-0.041-0.02-0.08-0.048-0.108
	L28.292,19.874z M1.414,20.074c0.286,0.092,0.592,0.092,0.878,0H1.414L1.414,20.074z M1.414,20.273c0.072,0.056,0.172,0.056,0.244,0
	H1.414L1.414,20.273z M29.805,20.273h-0.342v0.05h0.049c0.082,0.076,0.184,0.127,0.293,0.146v-0.2V20.273z M0.975,22.574h0.2
	l0.049-0.147c-0.064-0.026-0.131-0.042-0.2-0.049v0.049H0.976L0.975,22.574L0.975,22.574z M27.463,23.604v0.1h0.146v-0.065
	L27.463,23.604z M4.2,23.736c0.123,0.143,0.299,0.231,0.488,0.244v-0.049c-0.032-0.041-0.065-0.154-0.1-0.199
	C4.464,23.785,4.325,23.786,4.2,23.736z M26.493,23.98c-0.001,0.054,0.017,0.105,0.049,0.147c0.063-0.041,0.13-0.075,0.2-0.101
	V23.98h-0.254H26.493z M7.756,24.03c-0.073,0.261-0.188,0.51-0.341,0.735h0.731v-0.05C7.984,24.508,7.853,24.276,7.756,24.03z
	 M10.878,24.03c-0.068,0.264-0.184,0.513-0.341,0.735h0.732v-0.05C11.106,24.508,10.975,24.276,10.878,24.03z M14,24.03
	c-0.048,0.271-0.166,0.523-0.341,0.735h0.731v-0.05C14.228,24.508,14.097,24.276,14,24.03z M17.122,24.03
	c-0.049,0.271-0.166,0.522-0.341,0.735h0.732v-0.05C17.356,24.504,17.225,24.273,17.122,24.03z M20.244,24.03
	c-0.049,0.271-0.166,0.523-0.341,0.735h0.732v-0.05C20.478,24.504,20.347,24.273,20.244,24.03z M23.366,24.03
	c-0.049,0.271-0.167,0.522-0.341,0.735h0.731v-0.05C23.607,24.499,23.477,24.27,23.366,24.03z"/>
</svg>
