<svg xmlns="http://www.w3.org/2000/svg" width="39.938" height="40" viewBox="0 0 39.938 40">
  <defs>
    <style>
      .cls-1 {
        fill: #fff;
        fill-rule: evenodd;
      }
    </style>
  </defs>
  <path id="Color_Fill_1" data-name="Color Fill 1" class="cls-1" d="M17.332,15.854a3.894,3.894,0,0,1,.294,1.438,6.04,6.04,0,0,1,1.175.384V17.388l1.811,0.192c-0.072.161-.138,0.147,0,0.288,1.125,0.428,2.394.213,3.476,0.719a0.414,0.414,0,0,1,.1-0.336l0.686,0.527c1.067,0.294,2.1-.13,3.231.144,3.189,0.775,8.06.386,11.9,0.383V19.88H29.865a31.658,31.658,0,0,1-4.994.527l-0.147.479-0.1-.048L24.48,20.5l-0.1.144v0.336a3.984,3.984,0,0,1,2.056.24,0.405,0.405,0,0,1,.147-0.335l0.245,0.048-0.049.1H26.634l0.049,0.1a2.371,2.371,0,0,1,1.616.815l-0.2.1,0.049,0.192h0.832a2.118,2.118,0,0,1,1.371-.1,0.425,0.425,0,0,1,.245.24H30.453a0.816,0.816,0,0,1-.587.144l-0.049.623,2.448,0.192a1.256,1.256,0,0,1,.685-0.383,6.832,6.832,0,0,1,.1.815l1.273,1.39-0.049.1-0.539.24a2.338,2.338,0,0,1,.1,1.63c-0.484,2.291-2.442,2.458-4.5,3.163-2.283.781-4.88,0.671-8.029,0.671H11.848a20.372,20.372,0,0,1-4.455-.144l-2.252-1.1c-1.277-.638-2.716-1.006-3.28-2.349l-0.441.1c0-.72.008-1.266,0-2.253H1.028a2.1,2.1,0,0,1-.049,1.1H0.93V25.2a4.124,4.124,0,0,1-.881.1,2.973,2.973,0,0,1,.2-0.767c-0.348-.2-0.166-0.5-0.1-0.863a0.744,0.744,0,0,0,.636-0.431c-0.231.1-.2,0.194-0.392,0.1L0.832,22.9c0.317-.682.994-0.487,1.567-0.815,0.53-.943,2.784-0.936,4.162-0.815a0.339,0.339,0,0,1-.147.192l1.126-.1c-0.072-1.12,3.945-.407,4.651-0.383l-0.049-.1,0.1-.335-3.476-.1V20.407a13.558,13.558,0,0,0,.1-2.684l3.966-.479a5.842,5.842,0,0,1,.294-1.39c1.151-.008,2.256-0.048,3.427-0.048V10.869A4.673,4.673,0,0,1,16.646,9v6.806Zm0,1.582v0Zm0.245,0-0.049.1,0.392-.048ZM19,17.484c0.108,0.1.095,0.095,0.245,0.048Zm0.343,0.048a0.962,0.962,0,0,0,.686.1Zm0.783,0.1,0.245,0.1A0.338,0.338,0,0,0,20.122,17.627ZM7.736,21.27v0.1C7.783,21.282,7.78,21.356,7.736,21.27ZM3.084,27.453v0.1C3.132,27.465,3.129,27.539,3.084,27.453Zm0.2,0.1-0.1.144h0.1l1.077,0.575C4.106,27.945,3.564,27.856,3.28,27.549Zm28.984,0.384,0.1,0.048ZM4.749,28.22L4.9,28.268Zm0.539,0.24L5.141,28.6l1.567,0.623V28.651A4.974,4.974,0,0,1,5.288,28.46Zm23.354,0.192-0.343.1a1.68,1.68,0,0,1-.1.719l1.811-.527V28.891a5.747,5.747,0,0,0-.636,0C29.246,28.612,29.067,28.619,28.641,28.651Zm-16.548.863-0.1.1,0.2,0.1Zm14.2,0v0.192l0.1-.1Zm-3.672.048,0.1,0.192h0.1l0.049-.1-0.1-.1H22.619Zm-8.715.192-0.2.288H14.1Zm3.525,0-0.147.288h0.441Zm7.1,0-0.2.288h0.392Zm-14.2.048-0.1.24h0.343L10.428,29.9A0.185,0.185,0,0,0,10.331,29.8ZM21,29.8l-0.147.24h0.294V29.994l-0.1-.1Z" transform="translate(-0.063 -0.031)"/>
</svg>
