<?xml version="1.0" encoding="utf-8"?>
<!-- Generator: Adobe Illustrator 16.0.0, SVG Export Plug-In . SVG Version: 6.00 Build 0)  -->
<!DOCTYPE svg PUBLIC "-//W3C//DTD SVG 1.1//EN" "http://www.w3.org/Graphics/SVG/1.1/DTD/svg11.dtd">
<svg version="1.1" id="Layer_1" xmlns="http://www.w3.org/2000/svg" xmlns:xlink="http://www.w3.org/1999/xlink" x="0px" y="0px"
	 width="39.969px" height="40px" viewBox="0 0 39.969 40" enable-background="new 0 0 39.969 40" xml:space="preserve">
<path id="germ_pzkpfw_v_ausf_a_panther_ico" fill="#FFFFFF" d="M7.749,16.978h0.112v0.045c-0.062,0.029,0.019,0.3,0.2,0.29
	c0.02,0.014,0.043,0.022,0.067,0.022l0.022,0.224h0.069v-0.18c0.036-0.015,0.076-0.015,0.112,0c0.09,0.061,0,0.118,0.09,0.178V17.4
	c0.142,0.02,0.287,0.012,0.426-0.022c0,0.09-0.012,0.122,0.045,0.156c0.02-0.015,0.043-0.022,0.067-0.022
	c0.018-0.117,0.056-0.229,0.112-0.334c-0.031-0.002-0.061-0.01-0.09-0.021c0.026-0.064,0.041-0.132,0.045-0.2
	c-0.064,0.007-0.046,0.024-0.09,0c-0.012-0.012-0.02-0.027-0.022-0.044c0.154-0.247,0.268-0.517,0.336-0.8l-0.336-0.156v-0.048
	h0.045C9.062,15.965,9.177,15.997,9.295,16c0-0.024,0.007-0.048,0.022-0.067c0.02,0.014,0.043,0.022,0.067,0.022
	c0.014-0.1,0.05-0.121,0.067-0.223c-0.024,0-0.048-0.007-0.067-0.022c-0.012-0.012-0.02-0.027-0.022-0.044
	c0.069-0.139,0.108-0.291,0.112-0.446H9.63v-0.136c-0.101-0.027-0.188-0.091-0.246-0.178h0.067c0.029,0.029,0.07,0.046,0.112,0.045
	c0.013-0.161,0.05-0.319,0.112-0.468c0.052,0.013,0.104,0.02,0.157,0.022c-0.014-0.073-0.014-0.149,0-0.223
	c-0.093-0.017-0.081-0.012-0.09-0.111c0.058-0.126,0.096-0.262,0.112-0.4h0.09c0.05,0.023,0.103,0.039,0.157,0.045
	c0.008-0.076,0.023-0.15,0.045-0.223c0.119,0.008,0.239,0.008,0.358,0c0.018,0.033,0.041,0.063,0.067,0.089
	c0.103-0.055,0.222-0.071,0.336-0.045l0.112-0.379l0.134-0.111c0.056-0.123,0-0.308,0.045-0.4h-0.09V12.5h1.7v-0.067
	c0.077-0.038,0.116-0.064,0.134,0.067h1.68v0.245H14.58c-0.027,0.017-0.059,0.024-0.09,0.022v0.379
	c0.043,0.019,0.088,0.034,0.134,0.045c-0.003-0.031,0.005-0.063,0.022-0.089c-0.011,0.164,0.046,0.324,0.157,0.445
	c0.065,0.033,0.132,0.063,0.2,0.089l0.022,0.156h0.179v0.178h0.269c0.024-0.087,0.033-0.179,0.027-0.27h0.045
	c0.227,0.055,0.461,0.077,0.694,0.067c0.018-0.072-0.011-0.034,0.045-0.067c0.149,0.006,0.299-0.002,0.448-0.022v0.156h0.179v-0.02
	h0.022v-0.066l0.112,0.022V13.7c0.118,0.022,0.238,0.03,0.358,0.022V13.9c0.061,0,0.121,0.008,0.179,0.022
	c0-0.09-0.012-0.122,0.045-0.156c0.15,0.005,0.3-0.002,0.448-0.022v0.134H18.1c0.079-0.073,0.194-0.09,0.291-0.045V13.77
	c0.118,0.021,0.238,0.028,0.358,0.022v0.223c0.104-0.014,0.209-0.021,0.314-0.022V14.3H19.1v-0.062h0.3v0.178
	c0.159,0.014,0.317,0.044,0.47,0.089V14.3h0.04c0.162,0.1,0.4,0.071,0.56,0.156c0.188,0.137,0.39,0.256,0.601,0.356
	c0.282,0.037,0.561,0.104,0.828,0.2c0.016,0.097,0.055,0.188,0.112,0.268c0.362,0.068,0.733,0.083,1.101,0.044l1.926,0.021h0.984
	c0.611,0.059,1.226,0.066,1.838,0.022h0.515c0.237,0.029,0.478,0.036,0.717,0.022h1.39l3.763,0.045l3.271,0.022
	c0.205-0.052,0.415-0.089,0.627-0.111c0.064,0.015,0.133,0.021,0.199,0.022c0.152-0.035,0.309-0.119,0.448-0.156
	c0.095-0.016,0.192,0.009,0.269,0.067c0.269,0.021,0.537,0.029,0.807,0.022c0.1,0.186,0.236,0.8-0.045,0.913
	c-0.253,0.028-0.508,0.035-0.762,0.022c-0.241,0.063-0.498,0.031-0.717-0.089c-0.219-0.051-0.447,0.046-0.717-0.022
	c-0.475-0.072-0.954-0.095-1.434-0.067h-0.6c-0.61,0.058-1.225,0.066-1.837,0.022h-0.517c-0.618,0.059-1.24,0.066-1.859,0.022
	h-0.516c-0.237,0.029-0.477,0.036-0.717,0.022h-1.388L25.6,16.167c-0.605-0.044-1.212-0.037-1.814,0.022h-0.448
	c-0.456-0.028-0.913-0.013-1.366,0.045c-0.02,0.062-0.023,0.206-0.045,0.267c-0.3,0.127-0.68,0.139-0.986,0.267
	c-0.336,0.25-0.745,0.383-1.165,0.379v-0.125l-0.2,0.044v0.111h-0.023V17.2c0.415,0.007,0.887,0.1,1.321,0.111v-0.155
	c0.143-0.037,0.293-0.021,0.425,0.045c0.04,0.033,0.064,0.082,0.067,0.134c-0.019,0.011-0.033,0.026-0.045,0.044h0.045
	c0.249,0.078,0.518,0.07,0.762-0.022c0-0.106-0.01-0.124,0.066-0.156c0.05-0.021,0.104-0.029,0.158-0.022l0.021,0.067
	c0.017,0.026,0.023,0.058,0.021,0.089c0.253,0.031,0.501,0.09,0.739,0.179c0,0.023,0.007,0.047,0.022,0.066
	c0.094,0.028,0.193,0.035,0.291,0.021c0.024-0.049,0.004-0.109-0.045-0.134c-0.028-0.014-0.062-0.014-0.09,0l0.022-0.111
	l0.067-0.022c0.201,0.003,0.403-0.02,0.6-0.067h-0.688c-0.188,0.08-0.4,0.072-0.582-0.022c-0.02-0.042-0.027-0.088-0.021-0.134
	h0.021v-0.023c0.449,0.027,0.898,0.012,1.345-0.044c0.187-0.013,0.374-0.005,0.56,0.022c0.008,0.164,0.016,0.327,0.022,0.49h0.157
	v0.067c0.264,0.143,0.512,0.314,0.738,0.512c0.211-0.065,0.43-0.103,0.649-0.11v-0.135h0.022v-0.021h0.066
	c0.02-0.1,0.05-0.197,0.09-0.29c0.132-0.025,0.267-0.032,0.4-0.022c0.027-0.016,0.059-0.023,0.09-0.021v0.089h0.156
	c0.019,0.2,0.019,0.4,0,0.601h-0.153c0.021,0.08,0.067,0.15,0.134,0.199c-0.004,0.053-0.004,0.104,0,0.156
	c0.166,0.126,0.381,0.167,0.582,0.111c0.171,0.022,0.344,0.029,0.516,0.021v0.156h-0.022c-0.117-0.073-0.221,0.1-0.381,0.021
	c-0.169-0.033-0.343-0.041-0.515-0.021v0.044c0.027,0.064,0.051,0.132,0.066,0.2c0.035,0.032,0.072,0.062,0.112,0.089
	c0.03,0.077,0.046,0.161,0.045,0.245c0.036,0.014,0.073,0.021,0.112,0.021c0.133-0.061,0.281-0.076,0.425-0.045
	c0.031,0.028,0.062,0.058,0.09,0.09l0.56,0.026c0.264,0.063,0.572,0.122,0.807,0.2c0.128,0.043,0.515,0.199,0.515,0.199
	c0.041-0.033,0.078-0.07,0.112-0.11c0.064,0.03,0.113,0.087,0.134,0.155c-0.05,0.027-0.083,0.078-0.09,0.135
	c0.218,0.202,0.45,0.388,0.694,0.557c0.044,0.07,0.082,0.146,0.111,0.223c0.188,0.292,0.317,0.617,0.381,0.959l-0.045,0.379
	c-0.017,0.002-0.033,0.01-0.045,0.021c-0.276-0.081-0.541-0.201-0.783-0.355c0.002,0.053-0.006,0.105-0.022,0.156l-0.067,0.021
	c-0.024-0.023-0.056-0.039-0.09-0.044v0.022c0,0,0.109,0.457,0.112,0.512h-0.091c-0.005,0.009-0.012,0.016-0.021,0.021
	c-0.016,0.145-0.045,0.285-0.09,0.424c-0.006,0.088-0.006,0.178,0,0.267c-0.045-0.007-0.09-0.007-0.135,0
	c-0.064,0.142-0.193,0.274-0.245,0.399c-0.011,0.066-0.019,0.133-0.022,0.2l-0.066,0.022c-0.014-0.025-0.039-0.041-0.067-0.045
	c-0.101,0.151-0.286,0.238-0.381,0.38c-0.008,0.05-0.031,0.097-0.067,0.134c-0.08,0.036-0.072-0.051-0.179-0.021
	c-0.093,0.047-0.183,0.099-0.269,0.155c-0.061,0.087-0.127,0.169-0.2,0.245c-0.05-0.023-0.103-0.039-0.157-0.045
	c-0.094,0.051-0.191,0.096-0.291,0.134c-0.055,0.06-0.1,0.127-0.134,0.2c-0.056-0.033-0.116-0.056-0.179-0.066
	c-0.095,0.05-0.191,0.095-0.291,0.133c-0.056,0.06-0.101,0.127-0.135,0.201c-0.055-0.033-0.115-0.057-0.179-0.067
	c-0.094,0.051-0.191,0.096-0.291,0.134c-0.062,0.043-0.069,0.139-0.134,0.178c-0.02,0.015-0.043,0.022-0.067,0.022
	c-0.028-0.072-0.021-0.06-0.112-0.067c-0.174,0.105-0.354,0.203-0.537,0.29c-0.155-0.243-0.717,0.157-0.784,0.134
	c-0.015-0.02-0.022-0.043-0.022-0.066l-0.537,0.045c-0.059,0.046-0.127,0.076-0.201,0.089c-0.011-0.043-0.033-0.081-0.066-0.11
	l-0.493,0.021c-0.056,0.049-0.126,0.08-0.2,0.089c-0.021-0.076-0.009-0.069-0.09-0.089c-0.228-0.05-0.465-0.018-0.672,0.089
	c0-0.024-0.008-0.048-0.021-0.067c-0.248-0.068-0.514-0.044-0.744,0.068v-0.089c-0.178-0.034-0.36-0.034-0.539,0
	c-0.057,0.046-0.126,0.077-0.199,0.089v-0.089c-0.178-0.038-0.361-0.038-0.538,0C20.81,25.962,20.732,25.992,20.65,26v-0.089
	c-0.178-0.034-0.36-0.034-0.539,0c-0.058,0.046-0.126,0.077-0.2,0.089v-0.089c-0.163-0.032-0.33-0.032-0.493,0
	c-0.05,0.046-0.112,0.077-0.179,0.089v-0.089c-0.155-0.031-0.315-0.031-0.47,0c-0.052,0.042-0.113,0.073-0.179,0.089
	c0-0.024-0.007-0.048-0.022-0.066c-0.012-0.013-0.028-0.02-0.045-0.022c-0.204-0.044-0.417-0.013-0.6,0.089v-0.089
	c-0.155-0.031-0.314-0.031-0.47,0c-0.052,0.042-0.113,0.073-0.179,0.089c-0.023-0.082-0.015-0.078-0.112-0.089
	C16.971,25.867,16.77,25.899,16.6,26v-0.089c-0.155-0.031-0.315-0.031-0.47,0c-0.052,0.042-0.113,0.073-0.179,0.089
	c0-0.024-0.008-0.048-0.022-0.066c-0.013-0.013-0.028-0.02-0.045-0.022c-0.204-0.044-0.417-0.013-0.6,0.089v-0.089
	c-0.155-0.031-0.315-0.031-0.47,0c-0.052,0.042-0.113,0.073-0.179,0.089c-0.023-0.082-0.015-0.078-0.112-0.089
	c-0.191-0.043-0.392-0.011-0.56,0.089v-0.089c-0.155-0.031-0.315-0.031-0.47,0C13.437,25.955,13.371,25.986,13.3,26
	c0-0.024-0.007-0.048-0.022-0.066c-0.012-0.013-0.028-0.02-0.045-0.022c-0.204-0.044-0.417-0.013-0.6,0.089v-0.089
	c-0.155-0.031-0.314-0.031-0.47,0c-0.052,0.042-0.113,0.073-0.179,0.089c0-0.024-0.007-0.048-0.022-0.066
	C11.745,25.867,11.51,25.892,11.31,26v-0.089c-0.155-0.031-0.315-0.031-0.47,0c-0.052,0.042-0.113,0.073-0.179,0.089v-0.089
	c-0.162-0.038-0.331-0.038-0.493,0c-0.047,0.05-0.11,0.081-0.179,0.089v-0.089c-0.155-0.03-0.315-0.03-0.47,0
	c-0.058,0.047-0.126,0.077-0.2,0.089c0-0.066,0.027-0.077-0.09-0.089C9.038,25.867,8.837,25.898,8.669,26v-0.089
	c-0.163-0.034-0.331-0.034-0.493,0C8.125,25.953,8.064,25.983,8,26v-0.089H7.951C7.738,25.863,7.515,25.895,7.324,26
	c0-0.024-0.009-0.048-0.024-0.066c-0.124-0.037-0.254-0.044-0.381-0.022c-0.072-0.009-0.2-0.071-0.269-0.089
	c-0.148,0.02-0.299,0.02-0.448,0c0.016-0.027,0.024-0.059,0.022-0.09C6.077,25.67,5.935,25.596,5.8,25.51
	c-0.082-0.002-0.164-0.01-0.246-0.021c0.017-0.051,0.017-0.105,0-0.156c-0.154-0.042-0.24-0.182-0.38-0.223l-0.179,0.021
	c-0.036-0.052-0.052-0.115-0.045-0.178c-0.126-0.094-0.26-0.176-0.4-0.245L4.371,24.73c-0.044-0.161-0.16-0.293-0.314-0.356
	c-0.121-0.003-0.238-0.042-0.336-0.111C3.744,24.25,3.76,24.227,3.763,24.2c-0.136-0.075-0.271-0.232-0.4-0.29H3.2
	c-0.025-0.023-0.041-0.055-0.045-0.089c0.033-0.019,0.051-0.056,0.045-0.093c-0.11-0.171-0.254-0.316-0.423-0.429
	c-0.005-0.047-0.021-0.093-0.045-0.134h0.09c-0.016-0.094-0.046-0.184-0.09-0.268c0.018-0.088,0.025-0.177,0.022-0.267
	c-0.011-0.032-0.08-0.086-0.09-0.11c0.027-0.133,0.042-0.266,0.045-0.4L2.643,22.1v-0.021h0.022
	c0.037-0.123,0.053-0.251,0.045-0.379H2.441v-0.468c-0.128-0.115-0.228-0.261-0.291-0.422c-0.051,0.008-0.024,0.02-0.067,0
	C2.025,20.748,2,20.65,1.948,20.587c-0.154,0.038-0.313,0.045-0.47,0.022c-0.047-0.146-0.132-0.277-0.246-0.379
	c-0.065,0.047-0.144,0.07-0.224,0.066c-0.031-0.029-0.077-0.015-0.108-0.044c-0.038-0.106-0.108-0.2-0.2-0.267
	c-0.035,0.027-0.011,0.014-0.045,0c-0.155-0.168-0.188-0.426-0.341-0.58c0.039-0.057,0.056-0.036,0.045-0.09
	C0.205,19.074,0.083,18.813,0,18.537c0.085-0.054,0.161-0.121,0.224-0.2C0.108,18.28,0.026,18.173,0,18.047
	c0.034-0.02,0.073-0.027,0.112-0.021c0.085,0.104,0.192,0.188,0.314,0.244c0.079-0.072,0.208-0.139,0.291-0.199v-0.023H0.694
	c-0.047-0.191-0.194-0.334-0.246-0.512C0.5,17.536,0.551,17.528,0.6,17.512V17.49l-0.04-0.022c-0.142-0.058-0.298-0.074-0.448-0.044
	v-0.379c0.111-0.023,0.224-0.03,0.336-0.022c0.189,0.067,0.37,0.157,0.538,0.267c0.106,0.115,0.022,0.231,0.246,0.245
	c0.073-0.066,0.173-0.091,0.268-0.067v0.067h0.045c0.085,0.034,0.177,0.049,0.269,0.044V17.4c0.112,0.009,0.224,0.009,0.336,0v0.157
	h0.067v-0.178c0.036-0.015,0.076-0.015,0.112,0c0.036,0.053,0.059,0.114,0.067,0.178v-0.021c0.021-0.042,0.029-0.089,0.023-0.135
	c0.15-0.007,0.337,0.011,0.515,0.022v-0.066h0.2c0,0.024,0.008,0.048,0.022,0.067c0.126-0.014,0.254-0.014,0.381,0
	c0.032-0.03,0.07-0.053,0.112-0.067h0.024v0.022c0.035,0.045,0.059,0.099,0.067,0.156c0.034-0.019,0.073-0.026,0.112-0.022
	L3.83,17.356h0.045c0.067-0.043,0.151-0.051,0.225-0.022c0.028,0.024,0.059,0.047,0.09,0.067c0.069,0.106-0.055,0.138,0.09,0.178
	c0.061-0.034,0.13-0.05,0.2-0.044c0.017-0.036,0.032-0.073,0.045-0.111c0.067-0.044,0.232,0.013,0.291-0.022
	c0.019-0.034,0.026-0.073,0.022-0.111H4.9v0.134h0.05c0.029-0.055-0.01-0.015,0.045-0.045c0.009,0.056-0.013,0.035,0.067,0.045
	c0.052-0.049,0.017-0.026,0.112-0.022c0-0.025,0.01-0.05,0.026-0.069v-0.022c0.123-0.015,0.243-0.044,0.358-0.089
	c0.06-0.025,0.367,0.047,0.538,0.044c0.375-0.016,0.751,0.014,1.12,0.089c0.009,0.08-0.011,0.056,0.045,0.089v-0.111l0.179-0.022
	c0.028-0.08,0.087-0.156,0.112-0.223L7.53,16.978h0.09L7.66,12.5l-0.023-1.626c-0.015-0.245-0.008-0.491,0.022-0.735V8.49
	C7.646,8.326,7.653,8.162,7.682,8H7.7v0.735C7.745,8.94,7.752,9.151,7.722,9.359v1.626C7.732,12.982,7.742,14.98,7.749,16.978z
	 M15.185,13.1c0.028,0.04,0.028,0.094,0,0.134V13.1z M14.894,13.545h0.045v0.022c-0.017-0.001-0.033-0.008-0.045-0.02V13.545z"/>
</svg>
