<svg xmlns="http://www.w3.org/2000/svg" width="39.969" height="40" viewBox="0 0 39.969 40">
  <defs>
    <style>
      .cls-1 {
        fill: #fff;
        fill-rule: evenodd;
      }
    </style>
  </defs>
  <path id="germ_kv_2_754r_ico" class="cls-1" d="M26.7,10.18v0.225h0.176a1.345,1.345,0,0,1,.022.518,0.078,0.078,0,0,0-.044.113l0.11,0.09a0.536,0.536,0,0,1-.2.585V11.6H26.7v0.2c0.532,0,.706,0,1.235,0H28.66a1.3,1.3,0,0,1,.309.248,1.461,1.461,0,0,1,.419.36l-0.022.068c0.058,0.085.162,0.162,0.221,0.248a2.245,2.245,0,0,0,.2.338c0.042-.035.046-0.043,0.088-0.023a0.667,0.667,0,0,1,.154.068,0.78,0.78,0,0,0-.044.18,0.064,0.064,0,0,1,.022.023h0.066v-0.09a0.725,0.725,0,0,1,.221,0v0.09h1.942a1.642,1.642,0,0,1,.154.473c1.614,0.062,3.41.045,5.1,0.045h2.14a0.844,0.844,0,0,1,.309-0.045,7.24,7.24,0,0,1,.022,1.418,1.066,1.066,0,0,1-.309.022,3.312,3.312,0,0,0-.971-0.045H35.83a2.891,2.891,0,0,1-.2.54c-0.145.356-.238,0.721-0.375,1.058-0.327.8-.514,1.625-0.838,2.431A6.063,6.063,0,0,0,34,20.378h0.11V20.9l0.529-.023a0.42,0.42,0,0,1,.022.135h0.552c-0.009-.13.019-0.15,0.022-0.315H34.815c-0.054.028,0.011,0.065-.066,0.045a0.116,0.116,0,0,1-.022-0.068c0.1-.071.048-0.288,0.154-0.36a2.185,2.185,0,0,1,1.169,0c0.042,0.067.092,0.13,0.132,0.2H35.72a0.146,0.146,0,0,1-.088.022,1.6,1.6,0,0,1-.243.315,0.494,0.494,0,0,1,.022.158h0.243V20.783a0.334,0.334,0,0,1,.265-0.135,1.715,1.715,0,0,1,0,.36h0.044a2.5,2.5,0,0,0,.772.113v0.09a2.615,2.615,0,0,1,.883.5,0.077,0.077,0,0,1-.022.045,1.7,1.7,0,0,1-.485.518,1.5,1.5,0,0,0,.265.315c0.058,0.082.068,0.192,0.132,0.27a0.207,0.207,0,0,1,.2.158,3.883,3.883,0,0,1,.11.765h0.066a1.236,1.236,0,0,1,.044.338,0.106,0.106,0,0,0-.066.023c0.052,0.1-.046.075-0.044,0.158,0.006,0.227.123,0.466,0.132,0.72l0.243,0.067a0.313,0.313,0,0,1,.066.18,0.234,0.234,0,0,1-.154.068,0.122,0.122,0,0,1-.088,0l-0.022.225a0.226,0.226,0,0,1-.132,0c-0.126-.1-0.057-0.3-0.265-0.315v0.045a1.151,1.151,0,0,0,.132.7,0.274,0.274,0,0,1-.243.023c-0.054.016,0.008,0.079-.154,0.09l-0.022-.045a1.1,1.1,0,0,0-.132-0.563c-0.082.118-.152,0.219-0.243,0.36L36.867,25.8l-0.022.068a0.959,0.959,0,0,1-.132,0c-0.007,0-.307.266-0.309,0.27l0.022,0.068a1.267,1.267,0,0,1-.132.18,0.187,0.187,0,0,1-.11,0l-0.044.068-0.088-.023c-0.124.052-.222,0.223-0.353,0.293,0.017,0.039.058,0.041,0.022,0.068a0.4,0.4,0,0,1-.353.225,1.435,1.435,0,0,0-.287.225,0.885,0.885,0,0,1-.243.338,0.166,0.166,0,0,1-.176.022,0.953,0.953,0,0,0-.4.5,1.149,1.149,0,0,1-.331.113c-0.108.065-.2,0.2-0.309,0.27l0.044,0.068c-0.1.034-.112,0.128-0.2,0.157a0.889,0.889,0,0,1-.243-0.023,1.255,1.255,0,0,0-.132.09l-0.243.045v0.067a0.232,0.232,0,0,0-.154.068,0.1,0.1,0,0,1-.132-0.045,0.464,0.464,0,0,1-.11.023V28.865H31.969v0.068c-0.135.005-.145,0.04-0.287,0.045a0.11,0.11,0,0,0-.022-0.067,0.147,0.147,0,0,1-.088.023V28.865H31.087v0.068H30.954v0.045a0.464,0.464,0,0,1-.265-0.045V28.865H30.226v0.068c-0.134.005-.145,0.04-0.287,0.045a0.11,0.11,0,0,0-.022-0.067,0.147,0.147,0,0,1-.088.023V28.865H29.344v0.068a0.536,0.536,0,0,1-.287.045,0.108,0.108,0,0,0-.11-0.045V28.865a1.808,1.808,0,0,1-.508-0.022v0.022a0.116,0.116,0,0,1,.022.068c-0.134.005-.145,0.04-0.287,0.045a0.11,0.11,0,0,0-.022-0.067,0.147,0.147,0,0,1-.088.023V28.865H27.579v0.068H27.446v0.045a0.464,0.464,0,0,1-.265-0.045V28.865H26.718v0.068c-0.127.007-.146,0.041-0.287,0.045a0.11,0.11,0,0,0-.022-0.067,0.147,0.147,0,0,1-.088.023V28.865H25.836v0.068a0.536,0.536,0,0,1-.287.045,0.108,0.108,0,0,0-.11-0.045V28.865H24.953v0.068c-0.134.005-.145,0.04-0.287,0.045a0.11,0.11,0,0,0-.022-0.067,0.188,0.188,0,0,1-.11.023V28.865H24.071c0,0.075.015,0.071-.11,0.068a0.279,0.279,0,0,1-.287,0V28.865H23.21v0.068a0.536,0.536,0,0,1-.287.045,0.108,0.108,0,0,0-.11-0.045V28.865H22.328v0.068a0.536,0.536,0,0,1-.287.045,0.108,0.108,0,0,0-.11-0.045V28.865H21.445v0.068H21.313v0.045a0.5,0.5,0,0,1-.287-0.045V28.865H20.585v0.068a0.307,0.307,0,0,0-.155.045,0.515,0.515,0,0,1-.265-0.045V28.865H19.7v0.068a0.538,0.538,0,0,1-.287.045V28.933H19.283V28.865H18.82c0,0.075.015,0.071-.11,0.068a0.279,0.279,0,0,1-.287,0V28.865H17.937v0.068H17.8v0.045a0.5,0.5,0,0,1-.287-0.045V28.865H17.077v0.068a0.3,0.3,0,0,0-.154.045,0.551,0.551,0,0,1-.287-0.045V28.865H16.194v0.068a0.567,0.567,0,0,1-.309.045,0.108,0.108,0,0,0-.11-0.045V28.865H15.334v0.068a0.65,0.65,0,0,1-.309.045V28.933H14.892l0.022-.068H14.429c0,0.075.015,0.071-.11,0.068a0.312,0.312,0,0,1-.309,0V28.865H13.569v0.068a0.3,0.3,0,0,0-.155.045,0.551,0.551,0,0,1-.287-0.045V28.865H12.686c0,0.075.015,0.071-.11,0.068a0.312,0.312,0,0,1-.309,0V28.865H11.826v0.068a0.3,0.3,0,0,0-.154.045,0.551,0.551,0,0,1-.287-0.045V28.865H10.943v0.068a0.3,0.3,0,0,0-.154.045,0.551,0.551,0,0,1-.287-0.045V28.865H10.061v0.068a0.3,0.3,0,0,0-.154.045,0.551,0.551,0,0,1-.287-0.045V28.865H9.178c0,0.075.015,0.071-.11,0.068a0.312,0.312,0,0,1-.309,0V28.865H8.274v0.068a0.538,0.538,0,0,1-.287.045V28.933H7.854V28.865H7.81a5.3,5.3,0,0,0-.552-0.135,0.11,0.11,0,0,1-.022.067,0.64,0.64,0,0,1-.331-0.18H6.928c0.022-.023-0.022-0.022-0.022-0.023a1.306,1.306,0,0,0-.706-0.27c0-.034-0.009-0.039.022-0.045a0.837,0.837,0,0,0-.11-0.045c0.036-.21-0.536-0.288-0.662-0.315a0.989,0.989,0,0,0-.485-0.405H4.92v0.045A0.827,0.827,0,0,1,4.7,27.514V27.492c-0.055-.039-0.058-0.006-0.044-0.068V27.4l-0.11-.023a0.094,0.094,0,0,0,0-.09,1.706,1.706,0,0,0-.706-0.248c0-.031-0.011-0.043.022-0.045-0.023-.032-0.088-0.017-0.11-0.045l0.022-.067a1.914,1.914,0,0,0-.265-0.158,0.587,0.587,0,0,1-.154.045,0.845,0.845,0,0,0-.309-0.18l0.022-.067a0.44,0.44,0,0,1-.11-0.045,0.139,0.139,0,0,0-.022-0.113,1.232,1.232,0,0,0-.243-0.158,0.228,0.228,0,0,1-.132.023A1.378,1.378,0,0,1,2.493,26.1c-0.021-.019-0.066,0-0.088-0.023-0.053-.047-0.152-0.444-0.221-0.585s-0.178.031-.176-0.27c-0.153-.1-0.089-0.18-0.11-0.338H1.964L1.942,24.7l-0.132-.022a1.211,1.211,0,0,1-.11.855,0.108,0.108,0,0,1-.132-0.023H1.544a7.926,7.926,0,0,0-.022-0.9,1.1,1.1,0,0,0-.132-0.158,0.553,0.553,0,0,1,0-.293,1.033,1.033,0,0,1,.507-0.2v-0.09H1.964a1.068,1.068,0,0,1,.11-0.315c0.013-.034-0.122-0.088-0.066-0.18L2.1,23.35V23.327a0.394,0.394,0,0,0,.022-0.18c0.018-.073.089-0.092,0.11-0.18l-0.221-.023a0.493,0.493,0,0,1-.022-0.158,0.261,0.261,0,0,0,.044-0.067l0.2,0.067V22.449H2.25a0.123,0.123,0,0,0,.177-0.023,4.206,4.206,0,0,1-.574-0.585L0.64,20.6a2.543,2.543,0,0,1-.618-0.675,0.289,0.289,0,0,1,.11-0.158c0.166-.15.329-0.291,0.485-0.45L2.008,17.9a1.892,1.892,0,0,1,.552-0.518l1.236,1.283L4.06,18.892a2.565,2.565,0,0,0,.772.743,0.1,0.1,0,0,1,.132-0.068c0.075,0.021.069,0.009,0.088,0.09a0.248,0.248,0,0,1,.022.135H5.141a0.382,0.382,0,0,0,.11-0.18,0.363,0.363,0,0,1-.022-0.18H5.6V18.555a12.956,12.956,0,0,1,1.5-.045,0.736,0.736,0,0,1,.419.045v0.878H7.568V18.577a0.082,0.082,0,0,0,.022-0.045H7.722a1.034,1.034,0,0,1,.375,0c0.273-.055.8,0.016,0.971-0.023a0.606,0.606,0,0,1,.4.045,3.591,3.591,0,0,1,.022.878H9.531V18.555a12.956,12.956,0,0,1,1.5-.045,0.736,0.736,0,0,1,.419.045v0.878h0.088a0.11,0.11,0,0,0,.022.067,0.112,0.112,0,0,1,.066-0.023c0,0.081-.033.047,0.044,0.068h0.287a0.292,0.292,0,0,1,.331-0.113,5.035,5.035,0,0,1,1.368-.5V18.87h0.508v0.067a1.029,1.029,0,0,1,.221.09c0.16,0.048.3,0.03,0.441,0.09,0.229,0.094.5,0.248,0.728,0.315h0.53c0.458,0,.836-0.018,1.236-0.023a0.718,0.718,0,0,1,.022-0.225H17.275V18.937H15.863c-0.053-.071-0.146-0.11-0.2-0.18a4.881,4.881,0,0,0-.4-0.5H13.789V17.024H13.569a0.427,0.427,0,0,1-.221-0.405,1.069,1.069,0,0,1-.022-0.45,8.879,8.879,0,0,0,.022-1.08,0.564,0.564,0,0,0-.287-0.045,0.079,0.079,0,0,0-.044-0.023,2.5,2.5,0,0,1-.044-0.608A0.565,0.565,0,0,0,13.15,14.3a0.474,0.474,0,0,1-.11-0.18L12.863,14.1V13.985h0.11v-0.09c-0.343,0-.7.017-1.015,0.023V13.872a0.2,0.2,0,0,1-.022-0.113,0.54,0.54,0,0,1,.177-0.022,3.152,3.152,0,0,0,.816.022,0.078,0.078,0,0,1,.022-0.045,0.345,0.345,0,0,1-.022-0.158,1.253,1.253,0,0,1,.4-0.5l0.022-.405a0.845,0.845,0,0,0,.221-0.158h0.221V11.981a0.657,0.657,0,0,1,.265-0.09,0.249,0.249,0,0,0,.022-0.135,0.437,0.437,0,0,1-.177-0.338,2.124,2.124,0,0,1,.772-0.045,1.563,1.563,0,0,0,1.214.18l1.456,0.022,0.022-.112a1.574,1.574,0,0,1,.949-0.045c0.081,0.191.078,0.305,0.375,0.293a0.326,0.326,0,0,1,.11-0.293,1.9,1.9,0,0,1,.794-0.023,0.421,0.421,0,0,1,.155.18h0.971a1.028,1.028,0,0,1,.4-0.022,3.989,3.989,0,0,1,1.081.068c0.079,0.036.146,0.149,0.221,0.18h0.662v-0.18a0.517,0.517,0,0,1-.309-0.5,0.6,0.6,0,0,0,.11-0.54A0.083,0.083,0,0,0,22.9,10.54h0.044a0.235,0.235,0,0,1,.132-0.023V10.18h0.441l0.022-.067H24.4l0.022-.068c0.2-.108.413,0.145,0.64,0.045V10.045a0.489,0.489,0,0,1,.353.068h0.816l0.022,0.067H26.7Zm5.714,5.043a0.258,0.258,0,0,0,0,.113,0.111,0.111,0,0,0,.066.022,0.153,0.153,0,0,1,0,.113,0.674,0.674,0,0,1-.11.113,0.132,0.132,0,0,1,.088.135,0.185,0.185,0,0,1-.154.068,2.908,2.908,0,0,1-.243.788,0.539,0.539,0,0,1-.132.315H29.3c-0.073.154-.222-0.006-0.331,0.045a2.526,2.526,0,0,1-1.037.54c-0.06-.082-0.051-0.227-0.11-0.315l-0.2.067V17.114H27.49v0.293h0.132v0.135H27.49v1.643a0.106,0.106,0,0,0-.066.023,1.112,1.112,0,0,1,.022.428H27.91a2.374,2.374,0,0,1,.331-0.2H30.6c0.051-.024.1-0.129,0.155-0.158a2.355,2.355,0,0,1,.838-0.045,0.243,0.243,0,0,1,.066.157,0.624,0.624,0,0,0-.132.18c0.234,0,.329.065,0.574,0.068v-0.2h0.176a0.11,0.11,0,0,0,.022.067V19.478a1.374,1.374,0,0,1,.088-0.158h1.258l0.022,0.067a1.141,1.141,0,0,1,.022.743,1.258,1.258,0,0,1-.6.068V20.31a0.136,0.136,0,0,1,.044.045,0.288,0.288,0,0,1,.177-0.045c0.031,0.071.011,0.069,0.154,0.068,0.018-.073-0.011-0.034.044-0.068V20.4H33.69a0.064,0.064,0,0,0,.022.022,1.846,1.846,0,0,0,.066.27h0.044a2.313,2.313,0,0,1,.265-0.743c0.159-.393.268-0.795,0.419-1.171,0.345-.858.589-1.749,0.927-2.589,0.137-.341.2-0.691,0.353-1.013H32.543A0.125,0.125,0,0,1,32.41,15.223Zm-29.9,2.5a3.6,3.6,0,0,0-.552.608l0.794,0.788a0.805,0.805,0,0,0,.265.248,3.6,3.6,0,0,0,.552-0.608L2.78,17.969A0.805,0.805,0,0,0,2.515,17.722Zm-0.728.743-0.552.585L1.1,19.162l0.243,0.27,0.816,0.81,0.485-.518,0.2-.18L2.6,19.275Zm2.559,1.373V19.77H4.523V19.725a4.671,4.671,0,0,1-.75-0.765H3.751v0.022a3.524,3.524,0,0,0-.485.5,3.557,3.557,0,0,0-.485.5H2.846a1.338,1.338,0,0,1,1.015-.225A2.013,2.013,0,0,0,4.346,19.838Zm-3.42-.5a3.769,3.769,0,0,0-.574.63l0.794,0.788a0.806,0.806,0,0,0,.265.248,3.769,3.769,0,0,0,.574-0.63L1.191,19.59A0.806,0.806,0,0,0,.927,19.342Zm1.3,1.171-0.662.7,0.265,0.248a0.51,0.51,0,0,0,.2.18v-0.5C2.073,21.079,2.228,20.513,2.228,20.513Z" transform="translate(-0.031 0.5)"/>
</svg>
