<?xml version="1.0" encoding="utf-8"?>
<!-- Generator: Adobe Illustrator 16.0.0, SVG Export Plug-In . SVG Version: 6.00 Build 0)  -->
<!DOCTYPE svg PUBLIC "-//W3C//DTD SVG 1.1//EN" "http://www.w3.org/Graphics/SVG/1.1/DTD/svg11.dtd">
<svg version="1.1" id="Layer_1" xmlns="http://www.w3.org/2000/svg" xmlns:xlink="http://www.w3.org/1999/xlink" x="0px" y="0px"
	 width="40px" height="40px" viewBox="0 0 40 40" enable-background="new 0 0 40 40" xml:space="preserve">
<path id="Color_Fill_1" fill="#FFFFFF" d="M11.638,14.863l0.049-0.891h0.245v-0.4l1.125-0.149l0.049,0.545
	c0.318-0.031,2.93-0.044,2.934-0.05c0.087-0.109-0.03-0.154,0.1-0.1v0.149c0.233-0.074,0.488,0.006,0.636,0.2l-1.418,0.049
	c-0.044,0.277-0.574,0.242-1.027,0.2v0.346c0.4-0.016,0.523,0.057,1.271,0.05l0.049-0.346H15.7l0.388,0.05l-0.049,0.743h0.2
	l0.049-0.3l0.88,0.05v0.3h0.1l1.125,0.2v-0.593c0.999-0.056,2,0.012,2.983,0.2c0.151,0.178,0.225,0.41,0.2,0.643
	c1.109,0.037,2.195,0.325,3.178,0.842c0.885,0.379,2.294-0.568,3.423-0.2c1.823,0.449,3.714,0.55,5.575,0.3L40,16.793v0.644
	l-6.5,0.1c-1.521,0.123-3.547-0.228-4.743,0.1l-4.5,0.049c-1.224,0.363-2.489,0.563-3.765,0.595l0.049,0.1
	c0.527,0.006,1.734-0.222,1.907-0.147c0.518,0.22,2.657,1.365,3.227,0.742c0.152,0.09,0.349,0.123,0.44,0.199l-0.049,0.1l0.781-0.1
	l-0.1-0.148c0.3,0,0.309-0.029,0.391,0.199h0.147l-0.147,0.149c0.363,0.126,0.673,0.37,0.881,0.692
	c0.07,0.231-0.033,0.48-0.246,0.595c-0.43-0.017-0.182,0.805-0.439,1.188l-2.787,2.426c-0.917,0.39-4.7,0.1-6.015,0.1H5.086
	c-1.166-0.682-2.167-1.611-2.934-2.723h-0.2c-0.043,0.166-0.127,0.32-0.244,0.445h-0.2l-0.244-0.5H1.222l-0.049,0.594
	c0.071-0.719-0.012-1.444-0.244-2.129c-0.353-0.33-0.649-0.715-0.88-1.139c-0.092-0.424,0.059-0.863,0.391-1.141L0,15.853
	l0.049-0.05l0.1,0.05l0.391,1.833l1.418,0.049c1.733-0.053,3.468,0.048,5.183,0.301c0.825,0.148,1.662-0.426,2.641-0.149
	c0.621,0.36,1.339,0.517,2.054,0.446v-0.05c-0.744-0.114-1.468-0.331-2.152-0.645c-1.256-0.3-2.945,0.25-4.01-0.2
	c-0.808-0.34-1.637,0.442-1.809-0.5h0.1c0.022,0.277,0.018,0.315,0.244,0.4v-0.05c-0.03-0.365-0.229-0.694-0.538-0.891
	c0.188-0.139,0.297-0.36,0.293-0.594l-0.293,0.1v-0.248c0.677,0.05,1.354-0.089,1.956-0.4c0.072,0.241-0.015,0.151,0.244,0.2
	c0.406-0.148,0.841-0.199,1.271-0.148c0.117-0.453,0.167-0.919,0.147-1.386c-0.128-0.868-0.62-3.672-0.345-4.405l0.538,5.594h0.049
	L7.09,9.516l0.1,0.05c-0.024,1.881,0.172,3.759,0.587,5.594l0.1,0.05c0.735,0.036,1.472,0.002,2.2-0.1
	c0.143-0.083,0.261-0.203,0.342-0.347C10.816,14.868,11.229,14.901,11.638,14.863z M13.3,14.416v0.4
	c0.111-0.08,0.135-0.234,0.055-0.345C13.34,14.45,13.321,14.431,13.3,14.416z M13.593,14.564v0.152h0.245l-0.1-0.149h-0.144
	L13.593,14.564z M10.463,14.911l-0.049,0.248h0.2l0.046-0.143L10.463,14.911z M15.304,14.911v0.149l0.147,0.05v-0.194h-0.145
	L15.304,14.911z M0.489,17.98L0.2,18.427c0.112,0.661,0.459,1.259,0.978,1.683v-0.193C0.883,19.51,0.866,18.321,0.489,17.98z
	 M10.367,18.281l0.147,0.05L10.367,18.281z M26.8,19.316l-0.049,0.148l0.101-0.1L26.8,19.316z M1.271,21.199L1.271,21.199z
	 M4.059,22.486l0.147,0.147C4.173,22.571,4.122,22.52,4.059,22.486z M25.135,22.486v0.1l0.2-0.049L25.135,22.486z M7.287,23.427
	l-0.245,0.347h0.586l-0.2-0.2C7.409,23.503,7.355,23.447,7.287,23.427L7.287,23.427z M10.319,23.427l-0.245,0.347h0.538
	l-0.245-0.248L10.319,23.427z M13.351,23.427l-0.245,0.347h0.538L13.4,23.525L13.351,23.427z M21.957,23.477l-0.2,0.299h0.489
	l-0.146-0.15C22.082,23.553,22.027,23.496,21.957,23.477L21.957,23.477z M18.974,23.576l-0.147,0.199h0.391l-0.147-0.199h-0.1
	H18.974z M16.236,23.625l-0.1,0.148h0.244L16.236,23.625z"/>
</svg>
