<?xml version="1.0" encoding="utf-8"?>
<!-- Generator: Adobe Illustrator 16.0.0, SVG Export Plug-In . SVG Version: 6.00 Build 0)  -->
<!DOCTYPE svg PUBLIC "-//W3C//DTD SVG 1.1//EN" "http://www.w3.org/Graphics/SVG/1.1/DTD/svg11.dtd">
<svg version="1.1" id="Layer_1" xmlns="http://www.w3.org/2000/svg" xmlns:xlink="http://www.w3.org/1999/xlink" x="0px" y="0px"
	 width="40px" height="40px" viewBox="0 0 40 40" enable-background="new 0 0 40 40" xml:space="preserve">
<path id="germ_pzkpfw_e_100_ico" fill="#FFFFFF" d="M3.522,17.7h0.171c0.118-0.189,0.333-0.296,0.555-0.274
	c0.042,0.04,0.093,0.068,0.149,0.084c-0.016,0.064-0.009,0.132,0.021,0.19H6c0.229-0.028,0.46-0.014,0.683,0.042
	c0.039,0.022,0.71-0.058,0.854-0.021c0.086,0.022,0.4,0.218,0.3,0.274h1.128v0.021h0.021v0.063h1.473v-0.1H9.947
	c0.001-0.078-0.006-0.156-0.021-0.232c-0.256-0.072-0.525-0.094-0.79-0.063l-1.58-0.021v-0.085c-0.152-0.047-0.272-0.165-0.32-0.317
	c-0.039,0-0.019,0.021-0.043-0.021c-0.012-0.179,0.01-0.358,0.064-0.528h0.064c-0.009-0.086,0.022-0.172,0.085-0.232l-0.021-0.19
	c0.02-0.017,0.041-0.031,0.064-0.042C7.42,16.061,7.37,15.876,7.3,15.7c0-0.008,0.134-0.415,0.149-0.443
	c0.028-0.051,0.122-0.1,0.149-0.148c0.055-0.1,0.058-0.213,0.107-0.3h0.022v0.021c0.042,0.057,0.07,0.121,0.085,0.19h0.064
	l0.406-1.52h0.832c0.06-0.092,0.176-0.127,0.277-0.084c0.025,0.025,0.047,0.053,0.065,0.084c0.017,0.009,0.256-0.042,0.342-0.042
	c0.301-0.004,0.601,0.01,0.9,0.042c0.1-0.103,0.25-0.135,0.384-0.084c0.355-0.103,0.733-0.103,1.089,0
	c0.125,0.104,0.294,0.135,0.448,0.084h1.366c0.04-0.019,0.084-0.026,0.128-0.021c0.053-0.117,0.143-0.213,0.256-0.274
	c0.033,0.184,0.168,0.16,0.384,0.148c0.362,0.041,0.725,0.062,1.089,0.063c0.002-0.198,0.164-0.357,0.363-0.355
	c0.037,0,0.073,0.006,0.107,0.018l-0.064-0.19c0.068-0.044,0.126-0.102,0.171-0.169h0.021c0.086,0.387,0.2,0.377,0.683,0.359
	c0.262,0.471,0.324,0.437,1.046,0.422c0.114-0.301,0.28-0.58,0.491-0.823c0.187-0.054,0.385-0.062,0.576-0.021
	c0.021,0.034,0.051,0.063,0.085,0.084c-0.018,0.032-0.061,0.016-0.021,0.042c0.114,0.25,0.248,0.49,0.4,0.718h0.576
	c0.125-0.104,0.294-0.137,0.449-0.084c0.034,0.013,0.053,0.074,0.084,0.084h0.9c0.068,0.022,0.167,0.1,0.234,0.127
	c0.072,0.007,0.145,0.021,0.214,0.042c0.09,0.093,0.199,0.165,0.319,0.211v-0.037c-0.025-0.015-0.048-0.037-0.063-0.063
	c0.143-0.056,0.296-0.077,0.448-0.063c0.128,0.074,0.384-0.014,0.512,0.063c0.191,0.115,0.335,0.333,0.512,0.464
	c0.285,0.201,0.604,0.351,0.939,0.443c0.341,0.1,1.068,0.047,1.066,0.464c0.295,0.011,0.587,0.046,0.875,0.105L40,15.32v0.76
	l-5.7,0.021H32.4c-0.328-0.023-0.656-0.016-0.982,0.021h-4.545c-0.3,0.065-0.668,0.09-0.982,0.127v0.169l-0.213,0.127
	c-0.465,0.071-0.922,0.185-1.365,0.338c-0.266,0.177-0.522,0.367-0.769,0.57c-0.064,0.077-0.136,0.147-0.213,0.211h-0.192
	c-0.225,0.054-0.457,0.061-0.684,0.021l-0.021-0.063c0.085-0.048,0.152-0.122,0.192-0.211H22.6c-0.404,0.376-0.94,0.581-1.494,0.57
	v0.105h1.559v-0.044h0.256l0.021-0.127h0.106c0.086,0.013,0.174,0.005,0.257-0.021c0.297,0.048,0.6,0.055,0.899,0.021
	c0.03-0.033,0.06-0.069,0.085-0.106h0.47c0.027,0.037,0.042,0.081,0.043,0.127c0.2,0,0.371,0.009,0.491,0
	c0.075-0.029,0.154-0.043,0.234-0.042c0.02,0.023,0.041,0.044,0.064,0.063c0.133-0.045,0.27-0.073,0.408-0.084V17.7h0.384v0.232
	c0.183,0.048,0.362,0.111,0.534,0.19c0.314,0.127,0.629,0.166,0.939,0.3c0.208,0.105,0.408,0.225,0.6,0.359
	c0.178,0.138,0.418,0.162,0.619,0.063c-0.104-0.004-0.188-0.086-0.192-0.189c-0.024-0.082-0.031-0.168-0.021-0.253
	c0.051-0.024,0.102-0.052,0.148-0.084l0.021-0.148c0.096-0.094,0.235-0.126,0.363-0.084c0.018-0.014,0.041-0.021,0.063-0.021v0.063
	l0.128,0.021c0.033,0.153,0.033,0.311,0,0.464c-0.041,0.014-0.084,0.021-0.128,0.021V18.7l-0.171-0.021v0.042
	c0.068,0.057,0.102,0.146,0.085,0.232h-0.067v0.127h-0.171c-0.029,0.035-0.044,0.081-0.043,0.127
	c0.114,0.088,0.235,0.166,0.363,0.232c0.121-0.004,0.243,0.004,0.362,0.021c0.363,0.149,0.691,0.44,1.047,0.612
	c0.23-0.016,0.455,0.068,0.619,0.231c0.05,0.083,0.058,0.185,0.021,0.274c-0.058,0.08-0.106,0.164-0.149,0.253v0.718
	c-0.08,0.037-0.168,0.051-0.256,0.042c-0.049-0.171-0.063-0.351-0.043-0.528h-0.149v-0.107H30.5v0.085
	c-0.189,0.122-0.337,0.3-0.534,0.422c0.017,0.055,0.023,0.112,0.021,0.169h-0.104L29.84,21.9h0.021v0.021h0.063l-0.021,0.211h-0.043
	c-0.025-0.016-0.056-0.022-0.086-0.021c-0.054,0.096-0.069,0.209-0.043,0.315c-0.035,0.035-0.069,0.071-0.106,0.105
	c0.038,0.04,0.039,0.017,0.021,0.063c-0.008,0.063-0.063,0.11-0.127,0.106c-0.014-0.023-0.037-0.039-0.064-0.042
	c-0.066,0.062-0.125,0.133-0.171,0.211c0.03,0.017,0.047,0.05,0.043,0.084l-0.128,0.106c-0.036-0.033-0.08-0.055-0.129-0.063
	c-0.14,0.083-0.269,0.185-0.383,0.3h0.021v0.021c-0.058,0.01-0.115,0.023-0.171,0.041c-0.02-0.071-0.008-0.065-0.085-0.084
	c-0.058,0.038-0.124,0.061-0.192,0.063l0.021,0.127c-0.059,0.01-0.115,0.024-0.172,0.042c-0.02-0.072-0.008-0.066-0.084-0.084
	c-0.102,0.055-0.209,0.098-0.32,0.127c0.012,0.063,0.043,0.066-0.021,0.105c-0.027,0.029-0.07,0.038-0.106,0.021
	c-0.014-0.019-0.021-0.04-0.021-0.063c-0.101,0.012-0.154,0.048-0.257,0.063L27.32,23.8c-0.057,0.01-0.114,0.024-0.17,0.042
	c0.001-0.039-0.025-0.074-0.064-0.084c-0.104,0.065-0.22,0.109-0.341,0.127c0.012,0.063,0.043,0.065-0.021,0.105
	c-0.033,0.021-0.069,0.036-0.107,0.042c-0.01-0.042-0.043-0.074-0.085-0.084c-0.058,0.037-0.124,0.06-0.192,0.063
	c0,0.044,0.006,0.087,0.021,0.127c-0.055,0.021-0.113,0.029-0.172,0.021c-0.014-0.019-0.021-0.04-0.021-0.063
	c-0.134,0.023-0.263,0.066-0.384,0.127l0.021,0.106c-0.082,0.011-0.091,0.03-0.172,0.042c-0.002-0.029-0.01-0.058-0.021-0.084
	l-0.277,0.063c0.001,0.036,0.008,0.072,0.021,0.105h-0.043c-0.055,0.021-0.111,0.036-0.17,0.042
	c0.002-0.045-0.023-0.087-0.064-0.104c-0.125,0.031-0.256,0.039-0.385,0.021V24.5h-0.17v-0.084h-0.277V24.5h-0.171v-0.084h-0.406
	V24.5h-0.192v-0.084h-0.256V24.5h-0.191v-0.084h-0.406V24.5h-0.17v-0.084h-0.278V24.5h-0.171v-0.084H21.6V24.5h-0.17
	c0-0.023-0.007-0.045-0.021-0.063c-0.083-0.026-0.171-0.033-0.257-0.021V24.5h-0.191v-0.084h-0.385
	c-0.006,0.009-0.013,0.016-0.021,0.021V24.5h-0.171v-0.084h-0.277V24.5h-0.171v-0.084H19.53V24.5h-0.17v-0.084h-0.278V24.5H18.89
	v-0.084h-0.384c-0.005,0.009-0.012,0.016-0.021,0.021V24.5h-0.171v-0.084h-0.278V24.5h-0.17v-0.084H17.46V24.5h-0.171v-0.084h-0.277
	V24.5h-0.171c0-0.023-0.007-0.045-0.021-0.063c-0.125-0.033-0.256-0.04-0.384-0.021V24.5h-0.193v-0.084h-0.256
	c-0.005,0.009-0.012,0.016-0.021,0.021V24.5H15.8v-0.084h-0.41V24.5h-0.171v-0.084h-0.278V24.5h-0.17v-0.084h-0.406V24.5h-0.171
	c0-0.023-0.007-0.045-0.021-0.063c-0.083-0.026-0.17-0.033-0.256-0.021V24.5h-0.192v-0.084h-0.406V24.5h-0.171v-0.084h-0.277V24.5
	H12.7v-0.084h-0.405V24.5h-0.171v-0.084h-0.278V24.5h-0.192v-0.084h-0.405V24.5h-0.171v-0.084H10.8V24.5h-0.17v-0.084h-0.406V24.5
	h-0.171v-0.084H9.776V24.5H9.605c0-0.023-0.007-0.045-0.021-0.063c-0.125-0.033-0.256-0.04-0.384-0.021V24.5H9.007v-0.084H8.751
	v0.021H8.73V24.5H8.559v-0.084H8.154V24.5H7.983v-0.084H7.705V24.5h-0.17v-0.084l-0.47-0.042v0.084l-0.213-0.042v-0.043
	c0.024-0.042,0.013-0.038,0-0.084c-0.1-0.014-0.133-0.048-0.235-0.063c-0.02,0.071-0.008,0.065-0.085,0.084
	c-0.043-0.018-0.081-0.047-0.107-0.084c0.028-0.037,0.037-0.035,0.021-0.063C6.331,24.1,6.209,24.05,6.083,24.016
	C6.072,24.1,6.079,24.1,6,24.12c-0.041-0.021-0.078-0.049-0.107-0.084c0.018-0.026,0.032-0.055,0.043-0.084
	c-0.082-0.034-0.168-0.056-0.256-0.063c-0.018,0.026-0.032,0.055-0.043,0.084c-0.047-0.021-0.098-0.035-0.149-0.041
	c0.008-0.084,0.042-0.086-0.021-0.128c-0.094-0.065-0.205-0.103-0.32-0.104c-0.018,0.025-0.032,0.055-0.043,0.084
	c-0.045-0.016-0.088-0.037-0.128-0.063c-0.013-0.041-0.02-0.083-0.021-0.127c-0.1-0.012-0.137-0.047-0.235-0.063
	c-0.005,0.038-0.02,0.073-0.043,0.104c-0.057-0.023-0.108-0.059-0.149-0.104c0.028-0.037,0.037-0.034,0.021-0.063
	c-0.116-0.061-0.237-0.11-0.363-0.148c-0.011,0.087,0,0.087-0.085,0.105c-0.041-0.02-0.078-0.049-0.107-0.084
	c0.018-0.026,0.032-0.055,0.043-0.084c-0.089-0.038-0.182-0.066-0.277-0.084c-0.024,0.036-0.063,0.06-0.107,0.063
	c-0.048-0.045-0.1-0.088-0.153-0.127c0.025-0.025,0.046-0.054,0.064-0.084c-0.113-0.079-0.208-0.182-0.277-0.301L3.18,22.786
	c-0.027-0.047-0.048-0.097-0.064-0.148c0.028-0.038,0.05-0.081,0.064-0.127c-0.047-0.062-0.076-0.134-0.085-0.211
	c-0.043-0.001-0.087,0.007-0.128,0.021v-0.143c-0.011-0.011-0.019-0.026-0.021-0.042h0.042c0.019-0.014,0.041-0.021,0.064-0.021
	c-0.007-0.07-0.007-0.142,0-0.211c-0.089-0.049-0.168-0.113-0.235-0.19c-0.096,0.002-0.191-0.02-0.277-0.063
	c-0.02-0.055-0.02-0.115,0-0.17c-0.082-0.072-0.192-0.104-0.3-0.084v0.041c-0.05,0.23-0.058,0.468-0.021,0.701
	c-0.074,0.051-0.166,0.073-0.256,0.063c-0.011-0.018-0.025-0.031-0.043-0.042v-0.7H1.729v-0.232H1.708
	c-0.104,0.104-0.238,0.172-0.384,0.19V21.4H1.3c-0.043-0.361-0.181-0.704-0.4-0.994l0.043-0.381c0.078-0.001,0.149-0.04,0.192-0.104
	c-0.022-0.061-0.03-0.126-0.021-0.19c-0.1,0-0.13-0.019-0.277-0.021c-0.07-0.21-0.092-0.435-0.064-0.653
	C0.479,18.816,0.593,18.42,0,18.422v-0.316c0.244-0.026,0.488,0.059,0.662,0.232l0.192-0.106H1.2
	c0.08-0.026,0.157-0.122,0.235-0.148c0.102,0.016,0.207,0.001,0.3-0.042C1.666,18.024,1.702,18.052,1.671,18h0.015
	c0.003-0.045,0.04-0.081,0.085-0.084c0.243-0.021,0.487-0.007,0.726,0.042c0.021-0.034,0.05-0.063,0.085-0.084v-0.085h0.065V17.7
	h0.811c0-1.5,0.021-3.009,0.021-4.474v-1.241C3.456,11.823,3.463,11.659,3.5,11.5C3.507,13.566,3.515,15.633,3.522,17.7z"/>
</svg>
