<?xml version="1.0" encoding="utf-8"?>
<!-- Generator: Adobe Illustrator 16.0.0, SVG Export Plug-In . SVG Version: 6.00 Build 0)  -->
<!DOCTYPE svg PUBLIC "-//W3C//DTD SVG 1.1//EN" "http://www.w3.org/Graphics/SVG/1.1/DTD/svg11.dtd">
<svg version="1.1" id="Layer_1" xmlns="http://www.w3.org/2000/svg" xmlns:xlink="http://www.w3.org/1999/xlink" x="0px" y="0px"
	 width="40px" height="40px" viewBox="0 0 40 40" enable-background="new 0 0 40 40" xml:space="preserve">
<path id="germ_pzkpfw_maus_ico" fill="#FFFFFF" d="M40,14.95v0.773c-0.432,0.055-0.867,0.062-1.3,0.021h-2.88
	c-0.21,0.044-0.426,0.051-0.639,0.021h-1.621l-6.013,0.021c0.003,0.029-0.005,0.059-0.021,0.084v-0.064h-0.9
	c0,0.022-0.007,0.045-0.021,0.063v-0.083c-0.36,0-0.645,0.047-0.959,0.063c0.034,0.346,0.098,0.689,0.192,1.024
	c0.325,0.045,0.654,0.052,0.981,0.021c0.032-0.018,0.07-0.025,0.106-0.021c0.173,0.194,0.366,0.37,0.576,0.522
	c0.085,0.112,0.186,0.21,0.3,0.292h0.129v0.042c0.057,0.003,0.111-0.02,0.148-0.063c0.079,0.008,0.158,0.021,0.234,0.042
	c0.041-0.011,0.074-0.074,0.107-0.084c0,0,0.348-0.024,0.362-0.021c0.31,0.098,0.637,0.126,0.959,0.083
	c0.008-0.107,0.015-0.1,0.128-0.1v-0.129h0.064v0.23c0.055,0.016,0.113,0.023,0.17,0.021c0.129-0.014,0.259-0.007,0.385,0.021
	c0.029-0.133,0.021-0.271-0.021-0.4h0.086c0.086-0.042,0.18-0.064,0.276-0.063v0.042L30.9,17.54l0.384,0.084v0.063
	c0.243,0,0.276-0.095,0.532-0.1c0.194,0.156,0.401,0.296,0.619,0.418c0.186,0.173,0.393,0.32,0.617,0.439v-0.089
	c-0.021-0.082-0.029-0.167-0.021-0.251l0.085-0.063c0.033-0.015,0,0,0.064,0c0.006-0.264,0.107-0.308,0.404-0.292
	c0.025-0.016,0.055-0.023,0.085-0.021v0.084l0.129,0.021v0.042c0.057,0.141,0.057,0.298,0,0.439
	c-0.041,0.014-0.085,0.021-0.128,0.021v0.084h-0.09v0.041h0.064v0.125h-0.107c-0.021,0.047-0.049,0.089-0.085,0.125v0.042
	c0.061,0.039,0.106,0.098,0.128,0.167c0.095,0.077,0.195,0.146,0.3,0.209c0.412,0.271,0.81,0.535,1.216,0.815
	c0.195,0.159,0.402,0.306,0.617,0.438c0.028,0.293,0.093,0.581,0.192,0.857c0.002-0.029,0.009-0.058,0.021-0.084
	c0.127-0.022,0.256-0.036,0.385-0.042l0.043,0.229h0.021c0.083-0.024,0.169-0.038,0.256-0.042v0.042
	c0.058,0.087,0.08,0.19,0.063,0.293c-0.097,0.007-0.191,0.035-0.276,0.084c0.036,0.071,0.051,0.151,0.043,0.23
	c-0.146,0.042-0.298,0.056-0.448,0.042v0.042c0.014,0.019,0.021,0.04,0.021,0.063c-0.308,0.029-0.598,0.153-0.832,0.354
	c-0.146,0.088-0.34,0.079-0.342,0.313c-0.016,0.029-0.023,0.064-0.021,0.1c0.029,0.002,0.058,0.01,0.085,0.021
	c-0.023,0.089-0.037,0.181-0.043,0.272c-0.023-0.001-0.045,0.007-0.064,0.021c-0.119,0.162-0.219,0.337-0.299,0.522
	c-0.066,0.014-0.131,0.034-0.192,0.063c-0.028-0.027-0.067-0.043-0.107-0.041c-0.077,0.086-0.172,0.157-0.276,0.209l0.043,0.1
	c-0.029,0.002-0.059,0.01-0.086,0.021v0.063c-0.18,0.026-0.358,0.068-0.532,0.125l0.021,0.063c-0.051,0.012-0.104,0.004-0.148-0.021
	c-0.032,0.022-0.068,0.036-0.107,0.042c-0.01-0.042-0.043-0.074-0.085-0.084c-0.077,0.05-0.165,0.084-0.256,0.1
	c0.015,0.041,0.015,0.084,0,0.125h-0.063v0.063h-0.041c-0.019,0.014-0.375,0.101-0.49,0.146v0.021h0.021
	c0.041,0.016-0.043,0.021-0.043,0.021c-0.089,0.046-0.198,0.02-0.256-0.063c-0.108,0.03-0.21,0.08-0.3,0.146
	c0.016,0.025,0.023,0.055,0.021,0.084c-0.072,0.02-0.066,0.008-0.086,0.083c-0.181,0.026-0.359,0.068-0.533,0.125l0.021,0.063
	c-0.078,0.01-0.157,0.01-0.234,0c-0.027-0.033-0.066-0.053-0.108-0.055c-0.063,0.044-0.137,0.072-0.214,0.084
	c-0.028,0.092,0,0.133-0.127,0.146V25.4c-0.15,0.007-0.323,0.037-0.555,0.041V25.5c-0.133-0.009-0.104-0.05-0.234-0.063v-0.101
	h-0.338v0.101h-0.106V25.5H29.02v-0.063h-0.427V25.5h-0.106v-0.063h-0.129v-0.101h-0.299l-0.021,0.101h-0.105V25.5H27.8v-0.063H27.4
	V25.5h-0.108v-0.063h-0.106c-0.005-0.01-0.012-0.017-0.021-0.021v-0.083h-0.32v0.101h-0.106V25.5
	c-0.144-0.011-0.073-0.033-0.129-0.063H26.2V25.5c-0.13-0.01-0.101-0.052-0.235-0.063v-0.101H25.65v0.101h-0.129V25.5h-0.105v-0.063
	h-0.405V25.5c-0.133-0.009-0.104-0.05-0.235-0.063v-0.101h-0.34v0.101h-0.107V25.5h-0.105v-0.063H23.8V25.5h-0.11v-0.063h-0.129
	v-0.101h-0.3l-0.021,0.101h-0.106V25.5c-0.142-0.012-0.065-0.035-0.128-0.063H22.6V25.5h-0.104v-0.063h-0.106
	c-0.013-0.032-0.02-0.066-0.021-0.101h-0.32v0.101h-0.107V25.5c-0.143-0.012-0.064-0.035-0.127-0.063h-0.405V25.5H21.3v-0.063
	h-0.127v-0.101h-0.319v0.101c-0.134,0.009-0.105,0.05-0.235,0.063v-0.063h-0.405V25.5c-0.13-0.01-0.1-0.052-0.235-0.063v-0.101
	h-0.34v0.101h-0.107V25.5h-0.107v-0.063H19V25.5h-0.109v-0.063h-0.128v-0.101h-0.3l-0.021,0.101h-0.105V25.5H18.23v-0.063H17.8V25.5
	h-0.1v-0.063h-0.109c-0.012-0.032-0.019-0.066-0.021-0.101h-0.3v0.042c-0.014,0.019-0.021,0.041-0.021,0.063h-0.106V25.5
	c-0.143-0.012-0.065-0.035-0.128-0.063H16.61V25.5H16.5v-0.063h-0.125v-0.101h-0.32v0.101c-0.133,0.009-0.105,0.05-0.234,0.063
	v-0.063h-0.405V25.5c-0.13-0.01-0.1-0.052-0.235-0.063v-0.101H14.84v0.101h-0.106V25.5h-0.107v-0.063h-0.405
	c-0.063,0.027,0.014,0.049-0.128,0.063v-0.063h-0.107v-0.021h-0.021v-0.083h-0.3l-0.021,0.101h-0.106V25.5h-0.106v-0.063h-0.427
	V25.5H12.9v-0.063h-0.107V25.4c-0.014-0.019-0.021-0.041-0.021-0.063h-0.3l-0.021,0.101h-0.106V25.5
	c-0.143-0.012-0.064-0.035-0.128-0.063h-0.405V25.5h-0.106v-0.063H11.6c-0.012-0.032-0.02-0.066-0.021-0.101h-0.32v0.101
	c-0.129,0.01-0.1,0.052-0.234,0.063v-0.063h-0.407V25.5c-0.13-0.01-0.1-0.052-0.234-0.063v-0.101h-0.32v0.042
	c-0.014,0.019-0.021,0.041-0.021,0.063H9.936V25.5H9.829v-0.063H9.424V25.5H9.3v-0.063H9.19c-0.012-0.032-0.019-0.066-0.021-0.101
	H8.87v0.084c-0.042,0.015-0.084,0.021-0.128,0.021V25.5H8.635v-0.063H8.209V25.5H8.1v-0.063H8V25.4
	c-0.014-0.019-0.021-0.041-0.021-0.063H7.655v0.084c-0.127,0-0.129,0.035-0.256,0.042V25.4c-0.125-0.018-0.246-0.052-0.362-0.101
	c-0.09-0.021-0.053,0.072-0.149,0.021c-0.024-0.04-0.063-0.07-0.107-0.084V25.1c-0.125-0.015-0.2-0.064-0.32-0.084
	c0,0.023-0.007,0.045-0.021,0.063c-0.066,0.036-0.146,0.036-0.213,0c-0.043-0.034,0.015-0.024-0.043-0.042
	c-0.143-0.08-0.306-0.114-0.469-0.1v-0.064H5.672c-0.019-0.014-0.041-0.021-0.064-0.021v-0.125l-0.3-0.084l-0.043,0.084
	c-0.071,0.01-0.143,0.01-0.213,0v-0.063H5.011c-0.159-0.057-0.323-0.099-0.49-0.125c0.011-0.011,0.018-0.024,0.021-0.039
	l-0.107-0.021v-0.127c-0.22-0.021-0.354,0.013-0.554-0.021c-0.238-0.122-0.449-0.293-0.618-0.5c0.038-0.039,0.039-0.018,0.021-0.063
	c-0.018-0.047,0-0.023-0.064-0.043c-0.038,0.021,0,0-0.043,0c-0.046-0.084-0.043-0.146-0.085-0.229l-0.128,0.021
	c0-0.043-0.024-0.082-0.064-0.1v0.021H2.878c-0.17-0.256-0.415-0.453-0.7-0.564c-0.089-0.07-0.157-0.166-0.195-0.273v-0.255
	c-0.07-0.088-0.101-0.201-0.083-0.313c0.135-0.16,0.286-0.308,0.448-0.439c0.005-0.02,0.017-0.008,0-0.021L2.324,21.51
	c-0.067,0.027-0.142,0.035-0.213,0.021c-0.034-0.057-0.048-0.123-0.043-0.188c0.089-0.206,0.153-0.422,0.192-0.643
	c-0.031-0.04-0.06-0.081-0.085-0.125c-0.08-0.046-0.166-0.079-0.256-0.101c-0.07-0.043-0.015-0.084-0.043-0.125l-0.043,0.021
	c-0.07-0.07-0.1-0.119-0.149-0.167c-0.188-0.063-0.381-0.111-0.576-0.146c-0.337-0.137-0.626-0.369-0.832-0.67
	c-0.079-0.132-0.143-0.271-0.192-0.418c-0.219-0.752,0.107-1.556,0.789-1.943c0.167-0.083,0.348-0.14,0.533-0.167
	c0.1-0.047,0.209-0.076,0.32-0.084V16.7h0.108v0.063H2v0.067c0.195,0.061,0.396,0.103,0.6,0.125c0.029,0.037,0.1,0.051,0.128,0.084
	l-0.021,0.084C2.729,17.16,2.9,17.249,2.942,17.29l0.213,0.272c0.35,0.173,0.739,0.252,1.13,0.23
	c0.044-0.067,0.102-0.125,0.171-0.167h0.661c0.033,0.029,0.062,0.063,0.085,0.1c0.292,0.011,0.583,0.003,0.874-0.021
	c0.311,0.052,0.627,0.052,0.938,0l0.277,0.021c0.335,0,0.681-0.011,0.959,0c0.001-0.076-0.005-0.151-0.02-0.225
	c-0.039-0.023-0.075-0.052-0.107-0.084l-2.409-0.021v-0.084c-0.152-0.032-0.275-0.144-0.32-0.293
	c0.011-0.05,0.035-0.026-0.021-0.063c-0.028,0.052,0.009,0.014-0.043,0.042c-0.016-0.055-0.026-0.05-0.043-0.1
	c0.082-0.153,0.119-0.327,0.107-0.5h0.043v0.021c0.022,0.021,0.021-0.021,0.021-0.021c0.022-0.043-0.02-0.052,0-0.125
	c0.016-0.057,0.092-0.1,0.107-0.146c-0.017-0.027-0.031-0.055-0.043-0.084c0.052-0.096,0.075-0.205,0.064-0.313
	c-0.082-0.125-0.126-0.269-0.128-0.418c0.042-0.149,0.091-0.295,0.149-0.439l0.149-0.125c0.077-0.134-0.011-0.276,0.171-0.313
	c-0.003,0.068,0.02,0.136,0.064,0.188c0.019,0.014,0.041,0.021,0.064,0.021c0.064-0.371,0.165-0.735,0.3-1.086
	c0.019-0.166,0.062-0.328,0.128-0.481c0.29-0.042,0.583-0.049,0.874-0.021v-0.069H7.4c0.104-0.035,0.216-0.035,0.32,0v0.042
	l0.256-0.021c0.249-0.017,0.499-0.01,0.746,0.021c0.1,0.011,0.2,0.011,0.3,0c0.018-0.026,0.032-0.054,0.043-0.084
	c0.188,0.008,0.376-0.021,0.554-0.084c0.189-0.029,0.382,0,0.554,0.084h0.405c0.142,0.119,0.335,0.157,0.512,0.1h1.407
	c0.051-0.034,0.11-0.056,0.171-0.063c0.063-0.097,0.142-0.183,0.235-0.251c0.003,0.049,0.027,0.094,0.064,0.125
	c0.14,0.033,0.284,0.041,0.426,0.021h1.087c0.04-0.105,0.105-0.199,0.192-0.272c0.103-0.003,0.205-0.024,0.3-0.063
	c-0.037-0.04-0.061-0.088-0.072-0.141c0.07-0.05,0.128-0.114,0.171-0.188H15.1c0.081,0.4,0.208,0.395,0.7,0.376
	c0.012,0.012,0.027,0.019,0.043,0.021c0.119,0.476,0.461,0.453,1.066,0.439c0.012-0.011,0.026-0.019,0.043-0.021
	c0.105-0.326,0.28-0.625,0.512-0.878h0.576c0.03,0.039,0.066,0.073,0.107,0.1c-0.019,0.018-0.034,0.039-0.043,0.063
	c0.14,0.116,0.333,0.667,0.469,0.731h0.576c0.14-0.106,0.323-0.137,0.49-0.084c0.032,0.032,0.068,0.061,0.107,0.084h0.938
	c0.191,0.07,0.376,0.154,0.555,0.251c0.081,0.072,0.175,0.129,0.277,0.167v-0.036c-0.042-0.02-0.073-0.056-0.086-0.1
	c0.113-0.052,0.238-0.074,0.362-0.063c0.202,0.046,0.41,0.067,0.618,0.063c0.106,0.114,0.229,0.212,0.361,0.293
	c0.111,0.082,0.201,0.212,0.32,0.293c0.296,0.185,0.62,0.32,0.96,0.4c0.349,0.1,1.026,0.032,1.023,0.46l0.319,0.042
	c-0.023-0.269-0.072-0.535-0.148-0.794c-0.075-0.285-0.081-0.575-0.148-0.836c-0.147-0.56-0.135-1.112-0.277-1.671
	c-0.096-0.325-0.152-0.661-0.172-1h0.021v0.042c0.107,0.383,0.178,0.774,0.213,1.17l0.575,3.076c0.858,0.072,1.72,0.1,2.58,0.084
	h1.215c0.396,0.043,0.796,0.05,1.194,0.021h2.367C35.189,14.908,37.635,14.926,40,14.95z M25.075,15.95v0.15
	c-0.464,0.257-1.228,0.229-1.685,0.5c-0.225,0.134-0.43,0.3-0.64,0.46c-0.122,0.172-0.306,0.291-0.512,0.334
	c-0.239,0.047-0.481,0.068-0.726,0.063c-0.031-0.03-0.061-0.063-0.084-0.1c0.076-0.042,0.136-0.108,0.17-0.188h-0.021
	c-0.314,0.24-0.668,0.423-1.045,0.543v0.021h0.9c0.112-0.021,0.228-0.021,0.34,0c0.206-0.021,0.413-0.021,0.619,0v-0.088
	l0.148-0.021l-0.021-0.188c0.259-0.06,0.525-0.074,0.789-0.042c0.218,0.001,0.434-0.033,0.641-0.1
	c0.359-0.108,0.753-0.159,1.13-0.272c0.221-0.079,0.449-0.134,0.682-0.167l-0.171-0.982h-0.068c-0.143,0.055-0.294,0.082-0.446,0.08
	V15.95z"/>
</svg>
