<svg xmlns="http://www.w3.org/2000/svg" width="39.969" height="40" viewBox="0 0 39.969 40">
  <defs>
    <style>
      .cls-1 {
        fill: #fff;
        fill-rule: evenodd;
      }
    </style>
  </defs>
  <path id="germ_pzkpfw_v_ausf_d_panther_ico" class="cls-1" d="M7.534,19.666h0.09a0.436,0.436,0,0,0,.09.323c0.141,0.092.232,0.048,0.226,0.3H8.009V20.081c0.169-.005.172,0.032,0.362,0.023a1.47,1.47,0,0,0,.068-0.23,0.516,0.516,0,0,1-.317-0.323,0.273,0.273,0,0,0,.045-0.115,0.343,0.343,0,0,1,.091-0.046,0.968,0.968,0,0,0,.294.092c0.013-.112.051-0.165,0.068-0.277l0.113,0.023V19.182a0.119,0.119,0,0,0,.023-0.069,0.619,0.619,0,0,1-.339-0.253,0.493,0.493,0,0,1,.113-0.184,0.48,0.48,0,0,1,.271.046,0.66,0.66,0,0,1,.091-0.254,0.383,0.383,0,0,0,.136.046V18.329a0.084,0.084,0,0,0,.023-0.046c-0.083-.016-0.062,0-0.091-0.069a2.327,2.327,0,0,0,.226-0.922,0.131,0.131,0,0,0,.091,0,0.792,0.792,0,0,0,.068-0.184c-0.122-.009-0.117-0.031-0.113-0.161A1.371,1.371,0,0,0,9.3,16.578a0.786,0.786,0,0,0,.249-0.023A0.685,0.685,0,0,1,9.615,16.3a0.536,0.536,0,0,0,.249.023V16.278A0.242,0.242,0,0,0,9.91,16.14l0.226,0.046a1.073,1.073,0,0,1,.271-0.576v0.023c0.029,0.04.113,0.207,0.113,0.207a0.128,0.128,0,0,1-.045.092,0.28,0.28,0,0,0,.226.3c0-.239-0.087-0.624.226-0.622V15.356a1.154,1.154,0,0,0,.385-0.046,0.358,0.358,0,0,1,.249.046,2.171,2.171,0,0,0,.52-0.069,0.265,0.265,0,0,1,.226.069,2.05,2.05,0,0,0,.656-0.069,0.268,0.268,0,0,1,.226.069l0.294-.023,0.7,0.023V15.61h0.158a2.21,2.21,0,0,1,.091.784,0.688,0.688,0,0,1,.362.161h0.43a0.358,0.358,0,0,0,.045-0.138,0.2,0.2,0,0,1-.023-0.115,15.908,15.908,0,0,1,2.059.207l0.249-.276a0.065,0.065,0,0,1,.023.023,2.67,2.67,0,0,0,.294.23c0.025-.078.026-0.076,0.113-0.092a0.081,0.081,0,0,0,.045.023,3.56,3.56,0,0,1,.023.392,0.256,0.256,0,0,0,.158.046,0.351,0.351,0,0,0,.181.023,0.381,0.381,0,0,1,.068-0.115,5.22,5.22,0,0,0,1.177.346V17.062a0.254,0.254,0,0,0,.023-0.138,2.641,2.641,0,0,1,1.109.484l0.95,0.23a0.759,0.759,0,0,0,.09.277,0.922,0.922,0,0,0,.452.046l0.905,0.023,3.507,0.023,10.317,0.115a1.147,1.147,0,0,0,.611-0.092h0.5c0.026-.01-0.008-0.054.068-0.046a0.353,0.353,0,0,0,.113.046,3.676,3.676,0,0,0,.52-0.184,0.263,0.263,0,0,1,.226.069,6.587,6.587,0,0,0,.815.023c0.132,0.217.262,0.851-.068,0.968a5.841,5.841,0,0,1-.769.023,0.909,0.909,0,0,1-.068.069,2.154,2.154,0,0,1-.634-0.184l-0.2.023c-0.108-.021-0.318.011-0.452-0.023a1.74,1.74,0,0,1-.181-0.092l-2.308.023-8.62.092-2.964.023a8.583,8.583,0,0,0-1.81.069v0.23c-0.3.174-.737,0.174-1.063,0.323-0.152.069-.287,0.226-0.43,0.3a6.2,6.2,0,0,0-.611.138h0.023a7.168,7.168,0,0,0,1.086.115V19.85h0.385a0.3,0.3,0,0,1,.113.207,0.108,0.108,0,0,0-.068.023h0.023a1.071,1.071,0,0,0,.634.023V19.9a0.258,0.258,0,0,1,.158-0.046,0.358,0.358,0,0,1,.045.207,2.038,2.038,0,0,1,1,.161,0.331,0.331,0,0,1,.023.092h0.317V20.219a0.616,0.616,0,0,1-.158-0.069,1.542,1.542,0,0,0,.113-0.161H23.258a0.837,0.837,0,0,1-.611-0.046,0.2,0.2,0,0,1-.023-0.115,0.083,0.083,0,0,0,.023-0.046H22.76a1.1,1.1,0,0,1,.52,0,2.274,2.274,0,0,0,.679-0.023c0.212-.046.451,0.028,0.611,0v0.323a0.371,0.371,0,0,1,.023.184h0.158v0.069c0.306,0.1.511,0.45,0.792,0.576A1.693,1.693,0,0,1,25.95,21a2.347,2.347,0,0,0,.7.484c0.016-.081.028-0.057,0.045-0.138a0.108,0.108,0,0,0,.068-0.023,0.083,0.083,0,0,0,.023-0.046c-0.154-.006-0.081-0.059-0.158-0.115H26.516a0.408,0.408,0,0,1-.023-0.231,0.158,0.158,0,0,1-.023-0.092h0.09c0.049-.3.135-0.34,0.5-0.323a0.15,0.15,0,0,1,.09-0.023v0.092h0.158a2.955,2.955,0,0,1,0,.622H27.149V21.3l-0.226-.023V21.3a0.133,0.133,0,0,1,.09.115h0.068v0.207H26.787v0.023a3.931,3.931,0,0,1,.52.392c0.1,0.109,0,.191.2,0.207a0.6,0.6,0,0,1,.407-0.046c0.022,0.009.068,0.083,0.09,0.092a2.843,2.843,0,0,0,.928,0v0.115a3.415,3.415,0,0,1,.973.392V22.731c0.1,0.005.16-.035,0.2-0.023a0.1,0.1,0,0,1,.091.092,0.322,0.322,0,0,0-.113.161h0.023a3.036,3.036,0,0,0,.611.461,2.026,2.026,0,0,1,.679,1.659c-0.082.023-.162,0.1-0.226,0.115l-0.566-.046a0.387,0.387,0,0,1-.226-0.253c-0.074.067-.1,0.027-0.181,0v0.023a2.119,2.119,0,0,1,.113.53H30.226a0.063,0.063,0,0,1-.023.023,1.844,1.844,0,0,1-.091.461,2.489,2.489,0,0,0,0,.253,1.047,1.047,0,0,0-.453.668c-0.036-.052-0.037-0.048-0.068-0.046a1.929,1.929,0,0,0-.5.553,0.263,0.263,0,0,0-.136-0.069,3.294,3.294,0,0,1-.317.184,0.97,0.97,0,0,0-.158.253,0.43,0.43,0,0,0-.158-0.069c-0.094.075-.247,0.083-0.339,0.161a1.324,1.324,0,0,0-.113.184,0.428,0.428,0,0,0-.158-0.069,1.425,1.425,0,0,0-.453.346,0.427,0.427,0,0,0-.158-0.069,1.423,1.423,0,0,0-.453.346,0.428,0.428,0,0,0-.158-0.069c-0.11.088-.268,0.1-0.385,0.184a0.452,0.452,0,0,1-.181.138c-0.022-.118-0.094-0.1-0.226-0.092-0.1.065-.258,0.032-0.362,0.092a0.389,0.389,0,0,1-.2.138,0.112,0.112,0,0,0-.023-0.069,0.241,0.241,0,0,0-.136-0.023,2.244,2.244,0,0,1-.407.046,0.428,0.428,0,0,1-.2.092,0.113,0.113,0,0,0-.023-0.069,1.417,1.417,0,0,0-.543-0.023,0.191,0.191,0,0,1-.2.092,0.113,0.113,0,0,0-.023-0.069,1.349,1.349,0,0,0-.52-0.023,0.259,0.259,0,0,1-.226.092V28.908H22.285a0.444,0.444,0,0,1-.2.092,0.112,0.112,0,0,0-.023-0.069,1.348,1.348,0,0,0-.52-0.023,0.227,0.227,0,0,1-.2.092,0.063,0.063,0,0,0-.023-0.023V28.908H20.769a0.377,0.377,0,0,1-.2.092,0.113,0.113,0,0,0-.023-0.069,1.349,1.349,0,0,0-.52-0.023A0.241,0.241,0,0,1,19.8,29V28.908H19.321a0.445,0.445,0,0,1-.2.092V28.908H18.643a0.3,0.3,0,0,1-.181.092V28.908H17.986a0.377,0.377,0,0,1-.181.092,0.063,0.063,0,0,0-.023-0.023V28.908H17.308a0.3,0.3,0,0,1-.181.092,0.113,0.113,0,0,0-.023-0.069,1.143,1.143,0,0,0-.453-0.023,0.222,0.222,0,0,1-.181.092,0.517,0.517,0,0,0-.5-0.092,0.163,0.163,0,0,1-.181.092V28.908H15.317a0.377,0.377,0,0,1-.181.092,0.478,0.478,0,0,0-.475-0.092,0.227,0.227,0,0,1-.2.092V28.908H13.982A0.484,0.484,0,0,1,13.8,29a0.113,0.113,0,0,0-.023-0.069,1.143,1.143,0,0,0-.453-0.023,0.227,0.227,0,0,1-.2.092V28.908H12.647a0.378,0.378,0,0,1-.181.092,0.113,0.113,0,0,0-.023-0.069,1.142,1.142,0,0,0-.452-0.023,0.227,0.227,0,0,1-.2.092V28.908H11.312a0.377,0.377,0,0,1-.181.092,0.113,0.113,0,0,0-.023-0.069,1.143,1.143,0,0,0-.452-0.023,0.222,0.222,0,0,1-.181.092V28.977H10.453V28.908H9.977A0.336,0.336,0,0,1,9.8,29a0.113,0.113,0,0,0-.023-0.069,1.143,1.143,0,0,0-.452-0.023,0.227,0.227,0,0,1-.2.092V28.908H8.643a0.445,0.445,0,0,1-.2.092V28.908H7.964a0.445,0.445,0,0,1-.2.092V28.908H7.285a0.445,0.445,0,0,1-.2.092V28.908A2.325,2.325,0,0,1,6.4,28.816c-0.195-.047-0.345.119-0.43-0.023,0.028-.036.015-0.012,0-0.046a0.888,0.888,0,0,0-.611-0.231c-0.036-.08.011-0.092-0.023-0.161L4.955,28.1a0.286,0.286,0,0,0-.181.023,0.923,0.923,0,0,0-.091-0.069C4.7,28,4.724,28,4.706,27.963a2.061,2.061,0,0,0-.633-0.346c0.03-.04.039-0.037,0.023-0.069a0.874,0.874,0,0,0-.611-0.277L3.462,27.2a0.14,0.14,0,0,0,.045-0.046c-0.13-.081-0.252-0.23-0.385-0.3l-0.181-.023A0.16,0.16,0,0,1,2.9,26.741a0.093,0.093,0,0,0,.045-0.092,3.352,3.352,0,0,1-.43-0.484,0.158,0.158,0,0,1-.023-0.092H2.557a0.927,0.927,0,0,0-.091-0.253,1.786,1.786,0,0,0-.023-0.369L2.376,25.4a0.306,0.306,0,0,1,.068-0.138V24.575a0.914,0.914,0,0,0-.271-0.023,0.815,0.815,0,0,1-.339.184,0.265,0.265,0,0,1-.045-0.069c0.38-.094.4-0.227,0.385-0.715a0.861,0.861,0,0,1-.294-0.276A0.744,0.744,0,0,0,1.742,23.4h-0.5V23.376a4.03,4.03,0,0,1-.407-0.761c-0.259-.439-0.508-0.957-0.724-1.383C0.24,21.2.335,21.1,0.475,21.049,0.43,20.9.51,20.617,0.452,20.519a0.087,0.087,0,0,0-.068-0.046A0.6,0.6,0,0,0,0,20.449V20.058l0.5,0.023a0.7,0.7,0,0,0,.5.161V20.173H1.222v0.092l0.294,0.023V20.1a1.139,1.139,0,0,0,.362,0v0.184H1.946V20.081a0.742,0.742,0,0,1,.158,0v0.184H2.127V20.242A0.283,0.283,0,0,1,2.195,20.1a4.692,4.692,0,0,0,1.267-.023v0.161H3.484a0.151,0.151,0,0,1,.091-0.023V20.058H3.62a0.412,0.412,0,0,1,.2-0.023,0.159,0.159,0,0,0,.113.069v0.184a1.229,1.229,0,0,0,.294-0.069c0.094-.111.111-0.1,0.317-0.092a0.115,0.115,0,0,1,.113,0,0.472,0.472,0,0,1,.023-0.161H4.706v0.023a0.254,0.254,0,0,1,.023.138l0.2-.023V20.035h0.2V19.965a4.356,4.356,0,0,1,.475.161,1.567,1.567,0,0,0,.339-0.046,1.2,1.2,0,0,0,.362.046,2.247,2.247,0,0,1,.452-0.161l-0.023.069a0.649,0.649,0,0,1,.294.115V20.058a0.27,0.27,0,0,0,.181-0.092,0.618,0.618,0,0,0,.113-0.253c-0.056-.03-0.015.01-0.045-0.046H7.4L7.443,13.42V11.668A1.913,1.913,0,0,1,7.466,11Z"/>
</svg>
