<?xml version="1.0" encoding="utf-8"?>
<!-- Generator: Adobe Illustrator 16.0.0, SVG Export Plug-In . SVG Version: 6.00 Build 0)  -->
<!DOCTYPE svg PUBLIC "-//W3C//DTD SVG 1.1//EN" "http://www.w3.org/Graphics/SVG/1.1/DTD/svg11.dtd">
<svg version="1.1" id="Layer_1" xmlns="http://www.w3.org/2000/svg" xmlns:xlink="http://www.w3.org/1999/xlink" x="0px" y="0px"
	 width="40px" height="40px" viewBox="0 0 40 40" enable-background="new 0 0 40 40" xml:space="preserve">
<path id="germ_panzerjager_panther_ico" fill="#FFFFFF" d="M10.29,14.233h0.379v0.108c0.171-0.007,0.338-0.051,0.49-0.13
	c0.207-0.036,0.419-0.028,0.624,0.022c0.06-0.046,0.093-0.119,0.089-0.194c0.032-0.051,0.012-0.188,0.045-0.238
	c0.094-0.027,0.193-0.035,0.29-0.021c0.02,0.014,0.043,0.021,0.067,0.021c0,0.131-0.015,0.262-0.044,0.389h0.044
	c0.173,0.055,0.354,0.078,0.535,0.065c-0.008-0.089,0.007-0.178,0.045-0.259c0.006,0.087-0.001,0.174-0.022,0.259
	c0.114,0.023,0.08,0.068,0.2,0.087V14.3c0.018-0.034,0.033-0.07,0.044-0.108c-0.055-0.028-0.015,0.009-0.044-0.043
	c0.058-0.013,0.118-0.021,0.178-0.022c-0.011-0.066-0.026-0.131-0.045-0.195c0.624-0.006,1.141,0.14,1.737,0.151
	c0.035,0.059,0.05,0.127,0.044,0.195c-0.025,0.069-0.032,0.144-0.022,0.216h0.045c0.143,0.023,0.289,0.008,0.423-0.043
	c0.3,0.05,0.552,0.053,0.869,0.086l0.022-0.281c0.068-0.035,0.146-0.05,0.223-0.043c0.228,0.048,0.459,0.077,0.691,0.087v0.281
	h0.245c0.137-0.119,0.211-0.295,0.2-0.476L18,14.082v0.5l0.512-0.022c0.084-0.042,0.174-0.071,0.267-0.086
	c0.118,0.07,0.246,0.121,0.379,0.151c0.08,0.072,0.058,0.246,0.134,0.324h0.018c0.097,0.063,0.202,0.114,0.312,0.151
	c0.009,0.013-0.007,0.034,0.022,0.022l0.067-0.086l0.4-0.022c0.142,0.142,0.318,0.246,0.512,0.3c0.146,0.137,0.312,0.253,0.49,0.346
	v-0.108c-0.091-0.199-0.15-0.41-0.178-0.627c0.095-0.021,0.192-0.028,0.289-0.022c0.252,0.158,0.521,0.288,0.801,0.389
	c0.077,0.057,0.159,0.107,0.244,0.151h0.246c0.027,0.04,0.051,0.083,0.066,0.13c0.066,0.05,0.143,0.087,0.223,0.108
	c0.344,0.11,0.915,0.049,0.913,0.5h3.452c0.066,0.042,0.145,0.065,0.223,0.065v0.065l10.268,0.065
	c0.021-0.008,0.068-0.078,0.089-0.087h0.379v-0.11h0.134v0.086l0.313-0.022c0.117-0.087,0.244-0.159,0.379-0.216
	c0.094,0.016,0.18,0.062,0.245,0.13c0.237,0.023,0.475,0.031,0.713,0.021c0.098,0.279,0.105,0.581,0.022,0.864
	c-0.241,0.058-0.49,0.072-0.735,0.043c-0.265,0.275-0.464-0.079-0.824-0.087l-0.601-0.022c-0.03-0.013-0.076-0.095-0.11-0.108
	l-0.379,0.022h-1.026l-8.863,0.087v0.086c-0.077-0.029-0.163-0.012-0.224,0.043h-2.739v0.086c-0.23-0.008-0.518,0.043-0.713,0.022
	c-0.035,0.078-0.08,0.15-0.134,0.216c0.356,0.168,0.686,0.386,0.979,0.648c0.082,0.108,0.093,0.278,0.179,0.389
	c0.049-0.021,0.103-0.028,0.155-0.021c0.057-0.084,0.133-0.151,0.224-0.195v-0.062h0.067c0.033-0.033,0.063-0.069,0.088-0.108
	l0.022-0.022h-0.044c-0.04-0.041-0.1-0.058-0.156-0.043c-0.028-0.09-0.035-0.187-0.021-0.281c0.038-0.032,0.029,0.025,0.066-0.043
	c0.187-0.235,0.101-0.181,0.49-0.215v0.064h0.111v0.043c0.063,0.146,0.063,0.31,0,0.454c-0.076,0-0.152,0.014-0.223,0.043
	c0.012,0.012,0.02,0.026,0.021,0.043c0.05,0.027,0.102,0.049,0.156,0.064v0.065c0.145,0.168,0.357,0.263,0.579,0.259
	c0.119-0.039,0.249-0.023,0.355,0.043c0.195,0.064,0.382,0.152,0.558,0.26c0.069,0.121,0.193,0.202,0.334,0.216v0.087
	c0.088-0.006,0.169,0.047,0.199,0.13c0.027,0.054,0.043,0.112,0.045,0.173c-0.077,0.035-0.146,0.087-0.201,0.151
	c0.035,0.052,0.058,0.11,0.068,0.173h0.066v0.519c0.011,0.026,0.1,0.036,0.045,0.065c-0.046,0.07-0.063,0.156-0.045,0.238
	c0.057,0.089-0.047,0.172,0,0.346c0.05,0.125,0.087,0.256,0.111,0.389h-0.088v0.043c-0.041,0.164-0.057,0.332-0.045,0.5
	l-0.022,0.065c-0.036-0.013-0.075-0.013-0.111,0c-0.043,0.091-0.118,0.172-0.155,0.259c-0.045,0.107-0.012,0.18-0.045,0.259
	c-0.056-0.013-0.066-0.051-0.09-0.021c-0.149,0.144-0.283,0.304-0.4,0.476c-0.024-0.035-0.068-0.053-0.11-0.043
	c-0.086,0.056-0.175,0.106-0.267,0.151c-0.047,0.081-0.107,0.154-0.178,0.216c-0.037-0.057-0.018-0.053-0.068-0.043
	c-0.129,0.033-0.249,0.092-0.355,0.173c-0.072,0.074,0,0.119-0.134,0.151l-0.022-0.065c-0.133,0.042-0.26,0.101-0.379,0.173
	c-0.034,0.053-0.071,0.103-0.111,0.151c-0.02,0.015-0.043,0.021-0.066,0.022L25.145,23.7c-0.197,0.058-0.369,0.179-0.489,0.346
	c-0.03-0.027-0.07-0.042-0.111-0.043c-0.261,0.058-0.354,0.271-0.534,0.3c-0.006-0.045-0.043-0.081-0.089-0.086
	c-0.108,0.033-0.221,0.055-0.334,0.065c-0.088,0.065-0.186,0.116-0.29,0.151V24.35c-0.219,0.037-0.434,0.088-0.646,0.15v-0.086H22.2
	c-0.044,0.042-0.098,0.072-0.156,0.087c0.001-0.023-0.007-0.047-0.022-0.065c-0.138-0.034-0.281-0.041-0.422-0.021
	c-0.039,0.06-0.107,0.093-0.179,0.087v-0.087H21c-0.053,0.041-0.113,0.07-0.178,0.087v-0.087H20.78
	C20.582,24.4,20.385,24.43,20.2,24.5v-0.086h-0.445c-0.053,0.041-0.113,0.07-0.178,0.087c0-0.023-0.007-0.047-0.022-0.065
	c-0.146-0.035-0.297-0.043-0.445-0.021c-0.027,0.061-0.09,0.096-0.156,0.087c0-0.023-0.007-0.047-0.022-0.065
	c-0.146-0.035-0.297-0.043-0.446-0.021c-0.028,0.06-0.091,0.094-0.156,0.086c0.002-0.041-0.026-0.078-0.067-0.087
	c-0.19-0.021-0.382,0.009-0.557,0.087c0-0.023-0.007-0.047-0.022-0.064c-0.138-0.035-0.282-0.043-0.423-0.022
	c-0.042,0.056-0.108,0.087-0.178,0.087c0-0.023-0.007-0.047-0.022-0.064c-0.138-0.035-0.282-0.043-0.423-0.022
	C16.596,24.469,16.53,24.5,16.46,24.5v-0.086h-0.447c-0.053,0.041-0.114,0.07-0.178,0.087v-0.087H15.39
	c-0.051,0.044-0.112,0.074-0.178,0.087v-0.087h-0.446c-0.051,0.044-0.112,0.074-0.178,0.087v-0.087h-0.445
	c-0.042,0.044-0.096,0.074-0.156,0.087c-0.13-0.108-0.307-0.142-0.468-0.087c-0.039,0.06-0.107,0.093-0.178,0.087v-0.087H13.3
	c-0.197-0.021-0.396,0.009-0.579,0.087c0-0.023-0.007-0.047-0.022-0.065c-0.146-0.035-0.297-0.043-0.446-0.021
	c-0.039,0.06-0.107,0.093-0.178,0.087v-0.087H11.6c-0.042,0.044-0.097,0.074-0.156,0.087v-0.087H10.98
	c-0.042,0.044-0.096,0.074-0.156,0.087c0-0.023-0.007-0.047-0.022-0.065c-0.146-0.035-0.297-0.043-0.446-0.021
	c-0.033,0.066-0.106,0.102-0.178,0.087v-0.087H9.733c-0.051,0.044-0.112,0.073-0.178,0.086v-0.086H9.109
	c-0.053,0.041-0.113,0.07-0.178,0.086c0-0.023-0.007-0.047-0.022-0.064c-0.146-0.036-0.297-0.043-0.445-0.022
	c-0.039,0.06-0.107,0.093-0.179,0.087v-0.086H7.817c-0.048,0.048-0.11,0.078-0.178,0.086v-0.086H7.194
	c-0.053,0.041-0.113,0.07-0.178,0.086v-0.064l-0.045-0.022c-0.19-0.084-0.405-0.092-0.6-0.022v-0.084l-0.334-0.174
	c-0.06,0.004-0.119,0.012-0.178,0.022c0.004-0.038-0.003-0.075-0.022-0.108c-0.149-0.105-0.329-0.158-0.512-0.15v-0.023
	c0.025-0.013,0.042-0.037,0.045-0.064l-0.312-0.174c-0.082-0.005-0.164-0.005-0.245,0v-0.021c0.025-0.013,0.042-0.037,0.045-0.065
	c-0.104-0.071-0.216-0.129-0.334-0.173c-0.085-0.021-0.127,0.021-0.2,0c0.007-0.062,0.024-0.045,0-0.087
	c-0.146-0.111-0.329-0.166-0.512-0.151c0.015-0.034,0.015-0.073,0-0.107c-0.099-0.091-0.211-0.163-0.334-0.216
	c-0.06-0.003-0.119-0.01-0.178-0.021c-0.012-0.012-0.02-0.026-0.022-0.043c0.04-0.041,0.041-0.018,0.022-0.064
	c-0.076-0.216-0.34-0.308-0.4-0.52h0.062c0.024-0.225-0.023-0.451-0.134-0.648c-0.021,0-0.011,0.015-0.045-0.021
	c0.054-0.02,0.035-0.023,0.089-0.043c0.02,0.014,0.043,0.021,0.067,0.021v-0.043c0.029-0.081,0.015-0.172-0.039-0.238
	c-0.058,0.016-0.118,0.023-0.178,0.021v-0.173H2.673c0,0.125-0.015,0.144-0.111,0.173v-0.021c-0.055-0.029-0.083-0.092-0.067-0.151
	H2.183v-0.8c-0.041-0.1-0.147-0.225-0.2-0.324c-0.032-0.088-0.069-0.175-0.111-0.259H1.581v-0.022
	c-0.278-0.4-0.517-0.828-0.713-1.274c-0.175-0.22-0.311-0.469-0.4-0.735c0.03-0.047,0.053-0.098,0.067-0.151
	c0.042-0.033,0.087-0.062,0.134-0.087H0.69c0.023,0.014,0,0.047,0.022,0.022c0.081-0.008,0.146-0.07,0.156-0.151
	c-0.069-0.087-0.116-0.19-0.134-0.3c0.072-0.018,0.034,0.011,0.067-0.043l-0.067-0.022C0.493,16.842,0.244,16.833,0,16.87v-0.389
	c0.306-0.036,0.615-0.014,0.913,0.065C1,16.611,1.082,16.684,1.158,16.762l0.067-0.021c0.093,0.078-0.021,0.15,0.156,0.173
	c0.034-0.018,0.073-0.025,0.111-0.022c0.005-0.212-0.026-0.424-0.092-0.626c0.055-0.044,0.094-0.105,0.111-0.173
	c0.057-0.04,0.116-0.076,0.178-0.108c0.713-0.065,0.552,0.312,0.535,0.843h0.048c0.11-0.055,0.236-0.07,0.356-0.043
	c0.216-0.014,0.434,0,0.646,0.043c0.053,0.001,0.105-0.006,0.156-0.022c0.049,0.026,0.102,0.048,0.156,0.065
	c0.009-0.055,0.032-0.107,0.067-0.151c0.08-0.052,0.116-0.005,0.134-0.13h0.155v0.195h0.022c0.042-0.021,0.09-0.028,0.136-0.022
	l0.022-0.107h0.555c0-0.024,0.008-0.047,0.023-0.065v0.065c0.616,0.029,1.234,0.015,1.849-0.043v-0.216h0.066v0.216H6.7l0.022,0.151
	h0.049c-0.008-0.059-0.001-0.118,0.022-0.173v0.173L6.9,16.784c0.013,0.034,0.021,0.071,0.022,0.108h0.116
	c0.025-0.124,0.142-0.207,0.267-0.192c0.026,0.076,0.072,0.144,0.134,0.195c0.02-0.032,0.074-0.116,0.089-0.086
	c0.008,0.012,0.044,0.077,0,0.086h1.047v-0.219c0.135-0.062,0.256-0.149,0.356-0.259c-0.214-0.095-0.411-0.227-0.579-0.389
	c0.143-0.155,0.263-0.33,0.356-0.519c0.18-0.261,0.366-0.535,0.557-0.8c0.081-0.083,0.148-0.177,0.2-0.281
	c0.011-0.028,0.011-0.059,0-0.087h0.09v-0.108H10.2c0.007-1.138,0.015-2.276,0.022-3.415V9.889c-0.018-0.13-0.01-0.262,0.023-0.389
	C10.26,11.078,10.274,12.656,10.29,14.233z M2.762,21.388h0.044v0.022H2.784v0.021C2.772,21.42,2.764,21.404,2.762,21.388z"/>
</svg>
