<svg xmlns="http://www.w3.org/2000/svg" width="40" height="40" viewBox="0 0 40 40">
  <defs>
    <style>
      .cls-1 {
        fill: #fff;
        fill-rule: evenodd;
      }
    </style>
  </defs>
  <path id="Color_Fill_1" data-name="Color Fill 1" class="cls-1" d="M13.745,9.889a8.161,8.161,0,0,1,2.115.24c0.732,0.174,1.487.079,2.162,0.24a9.645,9.645,0,0,0,1.363.144v-0.1h0.047a0.667,0.667,0,0,1,.282.048,0.541,0.541,0,0,1,.141-0.1H19.9a3.4,3.4,0,0,1,.47.335l0.564-.048a2.273,2.273,0,0,0,.564.287v0.287H21.267v0.431h0.188V11.71H21.5v0.144a3.362,3.362,0,0,1-.611,0V11.662H21.22v-0.24H21.173a0.6,0.6,0,0,1-.376.144c-0.044-.039-0.081-0.008-0.141-0.048-0.077-.051-0.115-0.249-0.188-0.287h-4.56c-0.347.712-.576,0.157-0.846,0H14.215V12.86h0.141V13.1h0.188a0.532,0.532,0,0,1,.094-0.24c-0.006.294-.017,0.251,0.329,0.24a0.168,0.168,0,0,0,.094.048,1.655,1.655,0,0,1,.235,1.006H14.78c0,0.258.028,0.345,0.141,0.383,0.04,0,.041.023,0.188,0.048V14.393a3.14,3.14,0,0,1,1.88-.287l0.047-.767h0.376l0.047,0.767h1.316V13.818h0.094a1.8,1.8,0,0,0,.094.527H19.1V13.818H19.2v0.527h0.329V13.962a0.134,0.134,0,0,0,.047-0.048h0.141v0.431h0.235V13.914h0.188v0.431a4.938,4.938,0,0,1,1.363,0v-0.1a0.254,0.254,0,0,1,0-.24l0.235-.048a0.507,0.507,0,0,1,.094.287,0.174,0.174,0,0,0-.047.1h2.162l0.47-.91c1.129-.038,2.261-0.354,2.445.958,0.272,0.021.453-.046,0.846-0.048a1.063,1.063,0,0,0,1.128.287c0.07,0.051.2,0.042,0.282,0.1s0.076,0.242.141,0.287l0.8,0.048a7.165,7.165,0,0,1,1.175.335c0.556,0.249.694,0.9,1.457,0.91a1.074,1.074,0,0,1,.8-0.479,4.513,4.513,0,0,0,.658.623h1.974V15.878h0.423v0.575h0.094V15.878h0.329v4.408H36.639a1.167,1.167,0,0,0-.047-0.527v0.575h-0.47a2,2,0,0,1-.047-0.575H34.147v0.048H34.1l-0.047.479H33.771c-0.054-.317-0.123-0.4-0.517-0.383V19.855H33.207v0.1a5.13,5.13,0,0,0,.752.862c0.078,0.033.185-.034,0.282,0a1,1,0,0,0,0,.288c0.056,0.036.144,0.177,0.188,0.192l0.282-.1,0.094,0.144a2.507,2.507,0,0,0,.611.24l-0.047.144c0.354,0.046.59,0.327,0.893,0.383a0.6,0.6,0,0,1,.188-0.048c0.145,0.088.022,0.062,0.094,0.144V22.155a1.26,1.26,0,0,0,.188-0.239,0.755,0.755,0,0,1-.423-0.479h0.141l0.047-.288a0.94,0.94,0,0,1,.517-0.1,0.753,0.753,0,0,1,.329.1,1.04,1.04,0,0,1,.047.623,0.665,0.665,0,0,0-.47.24,0.862,0.862,0,0,0,.8.383v0.048a1.24,1.24,0,0,0-.564.048H37.25a4.679,4.679,0,0,1,.94.527,10.643,10.643,0,0,1,.141,2.108,0.659,0.659,0,0,1-.188.144v0.91a4.784,4.784,0,0,1-.235.766c-0.488,1.1-1.67,1.446-2.773,1.917a21.637,21.637,0,0,1-3.1,1.15,8.886,8.886,0,0,1-1.974.048H10.032c-0.87-.2-1.792-0.348-2.632-0.575a7.789,7.789,0,0,1-2.585-.767,2.53,2.53,0,0,1-.893-2.539,5.624,5.624,0,0,0,.423-1.054,10.314,10.314,0,0,0-1.316.144,1,1,0,0,0-.517.479A0.168,0.168,0,0,0,2.416,25.7a1.893,1.893,0,0,1-.188-0.431,2.4,2.4,0,0,0,.047-1.821c-0.155-.626-0.108-1.381-0.282-2.06A11.366,11.366,0,0,1,1.617,18.9a20.763,20.763,0,0,1,2.162-.287,7.012,7.012,0,0,1,.235,1.246H4.061v-0.1a0.328,0.328,0,0,1-.047-0.192h0.47a1.066,1.066,0,0,1,.423-0.575l1.081-.1a1.524,1.524,0,0,1,.235.287,1.928,1.928,0,0,0,.658.1L6.929,19.52a0.919,0.919,0,0,0,.376-0.1,0.312,0.312,0,0,1-.094-0.24H7.258V19.136a0.707,0.707,0,0,0,.705-0.192A0.557,0.557,0,0,1,7.869,18.8H8.292a0.493,0.493,0,0,0,.564.24c0.386-.23,1.055.146,1.41,0.048a8,8,0,0,0,2.679-1.533,2.547,2.547,0,0,0,.752-0.623V15.16H13.651c-0.014.367-.091,0.624-0.094,1.054H12.993V16.022h0.47A3.712,3.712,0,0,1,13.6,15.16c0.1-.455.006-0.975,0.094-1.389a11.458,11.458,0,0,0-.047-2.539Zm0.47,0.24v0.815h0.893a1.473,1.473,0,0,1,.282-0.287,0.914,0.914,0,0,1,.376.1c0.649-.054,1.484-0.048,2.209-0.048a6.955,6.955,0,0,0,1.786-.048,6.7,6.7,0,0,1-1.457-.192l-1.269-.1A13.353,13.353,0,0,0,14.215,10.129Zm1.6,0.623v0.1C15.889,10.791,15.871,10.828,15.814,10.752Zm0.423,0.192h3.62V10.752H17.318a4,4,0,0,0-1.034.048A0.247,0.247,0,0,0,16.237,10.944Zm4.184-.192,0.047,0.192a0.174,0.174,0,0,0,.047-0.1,0.29,0.29,0,0,0,.094-0.1H20.421Zm-0.188.1v0.1H20.28v-0.1H20.233Zm-5.218.479a0.285,0.285,0,0,1-.047.335Zm-0.094.335a0.59,0.59,0,0,1-.094.527Zm-0.141.527a0.285,0.285,0,0,1-.047.335Zm-0.094.335a0.285,0.285,0,0,1-.047.335Zm5.453,0.623a0.142,0.142,0,0,1,0,.192V13.147Zm0.094,0.479a0.174,0.174,0,0,1,.047.1H20.233v-0.1Zm1.5,0.431a0.224,0.224,0,0,0-.141.048,0.247,0.247,0,0,0-.047.144h0.094A0.3,0.3,0,0,0,21.737,14.058Zm-7.521.144v0.383a0.728,0.728,0,0,0,.235.048c0.081-.149.01-0.153,0.188-0.192V14.154Zm0.705,1.15H14.78v0.192H14.686c0.007-.3.019-0.207-0.141-0.383a1.46,1.46,0,0,0-.329,0v1.294h0.094c0.115-.144.31-0.188,0.423-0.335A1.744,1.744,0,0,0,14.921,15.351Zm-0.47.192a0.2,0.2,0,0,1,0,.24v-0.24Zm0.047,0.24a0.3,0.3,0,0,1,.188.048A0.3,0.3,0,0,1,14.5,15.783Zm0.188,0.048H14.78v0.048A0.16,0.16,0,0,1,14.686,15.831ZM11.16,19.568a0.384,0.384,0,0,1,.141-0.383c0.706-.568,2.011.428,2.821,0.479a0.9,0.9,0,0,0,.047-0.287,0.8,0.8,0,0,1-.235-0.24V19.088H13.98a0.39,0.39,0,0,1,.282-0.144l0.094-.671a1.183,1.183,0,0,1-.658-0.048V18.37H13.51l0.047-.527H13.6V17.795a0.6,0.6,0,0,0,.235,0V17.747c-0.168-.02-0.118.023-0.188-0.1a0.771,0.771,0,0,0,.047-0.383H13.651A6.634,6.634,0,0,1,11.63,18.8a1.913,1.913,0,0,0-1.034.575,0.627,0.627,0,0,1,.423,0C11.011,19.568,10.927,19.534,11.16,19.568Zm3.291-1.629L14.5,17.6H14.215a0.358,0.358,0,0,1-.094.287h0.094A0.4,0.4,0,0,0,14.45,17.939Zm-2.774,1.2a1.072,1.072,0,0,1-.329.1l-0.047.1h0.047c0.2-.127.639-0.011,0.846-0.144A2.605,2.605,0,0,0,11.677,19.136ZM12.57,19.28v0.192h0.047c0.068-.122-0.01-0.054.141-0.1,0.018,0.125-.035.063,0.094,0.1v-0.1A1.626,1.626,0,0,0,12.57,19.28Zm-1.269.287h0.282a0.616,0.616,0,0,1,.047-0.192H11.348v0.048H11.3v0.144Zm1.739-.192v0.1h0.094v-0.1H13.04Zm-8.979.719v0.192H4.156v-0.1C4.115,20.155,4.1,20.13,4.061,20.095ZM34.1,20.813c0,0.13-.062.077,0.094,0.144v-0.1Zm-26.325,7a0.915,0.915,0,0,1-.282.335v0.048H7.587a5.194,5.194,0,0,0,.987.24v-0.1C8.257,27.961,8.553,27.781,7.775,27.808Zm25.714,0-0.094.335h0.047a1.725,1.725,0,0,1,.705-0.287V27.808H33.489Z" transform="translate(0.016)"/>
</svg>
