<svg xmlns="http://www.w3.org/2000/svg" width="80" height="40" viewBox="0 0 80 40">
  <defs>
    <style>
      .cls-1 {
        fill: #fff;
        fill-rule: evenodd;
      }
    </style>
  </defs>
  <path id="Color_Fill_1" data-name="Color Fill 1" class="cls-1" d="M45.108,14.711l-0.082.95a4.9,4.9,0,0,0,1.524-.083c-0.1-.06-0.046.009-0.082-0.124,0.128-.05.093-0.015,0.123-0.165a0.2,0.2,0,0,1-.123-0.041c0.081-.015.275-0.217,0.33-0.083V15.041c-0.1-.06-0.047.009-0.082-0.124h0.33v0.124H46.921A2.8,2.8,0,0,1,47,15.5H46.88v0.165h0.082a0.148,0.148,0,0,1,.082-0.041v0.289H46.632V15.95a0.743,0.743,0,0,0,.041.372H46.55a3.4,3.4,0,0,0,.041.661H46.468V16.9a1.377,1.377,0,0,0,.041-0.579,0.2,0.2,0,0,1-.124-0.041c0.1-.061.083-0.088,0.082-0.248a4.28,4.28,0,0,0-1.483.083l-0.041.124a1.657,1.657,0,0,0,0,.826,1.026,1.026,0,0,0,.453.041v0.124a0.489,0.489,0,0,1-.165.165,0.236,0.236,0,0,0-.247-0.207v0.041a9.09,9.09,0,0,1,.453,1.86h0.288V18.678h0.247V17.893h0.494V17.727a0.252,0.252,0,0,0,.082-0.083h0.288V18.1H46.8a0.209,0.209,0,0,0-.124-0.041v0.289a0.2,0.2,0,0,1,.124.041,0.449,0.449,0,0,1,.041.248,1.4,1.4,0,0,1-.041.413h0.165A0.2,0.2,0,0,1,47,18.926V19.05h0.206V19.008a0.251,0.251,0,0,1-.082-0.083c0.117-.073.07-0.047,0.041-0.165a0.651,0.651,0,0,1,.329-0.041,4.608,4.608,0,0,0,.371.289,1.135,1.135,0,0,0-.041-0.372h0.659c0.005-.2.008-0.265-0.124-0.331-0.053-.059-0.048,0-0.124.041V18.265a0.441,0.441,0,0,1,.288-0.124v0.083a0.639,0.639,0,0,1,.124.413h1.03v0.248A2.027,2.027,0,0,0,50.3,18.76V9.091a2.236,2.236,0,0,1,.041-0.826V18.8h0.041V18.76a13.991,13.991,0,0,0,.041-2.273V10.413a14.023,14.023,0,0,1,.041-2.273v8.265c0,0.891-.116,2.87.206,3.388a0.992,0.992,0,0,1,.618,0c-0.385.575-.068,1.515-0.041,2.231,0.362,0,.636.005,1.154,0v0.207h0.124v0.083a0.28,0.28,0,0,1,.041.165c-0.134.034-.063-0.02-0.124,0.083a2.825,2.825,0,0,1,.206,1.033,1.447,1.447,0,0,1,.453.041,2.217,2.217,0,0,0-.041.62,5.606,5.606,0,0,1,.741-0.041V24.132a1.084,1.084,0,0,1,.041-0.62c0,0.3,0,.381,0,0.7h0.412a1.693,1.693,0,0,0-.041-0.62h0.123v0.041a1.158,1.158,0,0,0-.041.579h0.7a4.3,4.3,0,0,1,0-.744h0.041V23.76a1.6,1.6,0,0,1,0,.455h0.288a0.547,0.547,0,0,0,.082-0.331,0.226,0.226,0,0,1,.041-0.207,0.871,0.871,0,0,0,.041.454,0.65,0.65,0,0,0,.33.041,4.44,4.44,0,0,1,.494,0,3.453,3.453,0,0,1,.165-0.455,0.141,0.141,0,0,0,.041.083A0.347,0.347,0,0,1,56.56,23.6a0.637,0.637,0,0,0,.041.331,0.277,0.277,0,0,0,.165.041c0.06-.105-0.009-0.047.124-0.083l0.041-.207H56.766a0.276,0.276,0,0,0-.165-0.041c0.007-.186.052-0.191-0.041-0.248a2.939,2.939,0,0,0-.535-0.124c0-.237.008-0.248,0-0.455a0.638,0.638,0,0,0,.33-0.041,0.277,0.277,0,0,1-.33-0.207,0.157,0.157,0,0,0,.124-0.083,0.6,0.6,0,0,1-.124-0.578,0.2,0.2,0,0,0,.124-0.041c-0.134-.034-0.063.02-0.124-0.083a2.82,2.82,0,0,0,.33-0.083,3.976,3.976,0,0,0,1.318.124,3.425,3.425,0,0,0,.535-0.289V21.57a0.792,0.792,0,0,0-.124.165h0.082a0.32,0.32,0,0,1,.247-0.165v0.041a0.16,0.16,0,0,0-.082.124c0.148,0.017.1-.019,0.165,0.083a0.382,0.382,0,0,0-.165.124,0.226,0.226,0,0,1,.165,0,0.142,0.142,0,0,1-.041.083,0.21,0.21,0,0,1-.124.041,0.141,0.141,0,0,0-.041-0.083l-0.041.207c0.128-.019.17-0.059,0.247,0.124H58.455c-0.141.093-.132-0.066-0.165,0.165a0.531,0.531,0,0,0-.288.041L58.5,22.562a0.525,0.525,0,0,1-.041.165,0.581,0.581,0,0,0-.165-0.041c-0.015.165-.111,0.089,0,0.165,0.086,0.141.145,0.037,0.165,0.124L58.5,23.1a0.23,0.23,0,0,0-.247.124c0.155,0.006.145-.019,0.206,0.083a0.149,0.149,0,0,1,.041.083,0.242,0.242,0,0,0-.165,0,0.16,0.16,0,0,1,.082.124H58.332a0.813,0.813,0,0,0-.494-0.124l0.082,0.537a3.262,3.262,0,0,0,.618,0c0.1-.06.047,0.009,0.082-0.124a3,3,0,0,0-.041-0.331H58.7v0.041a0.953,0.953,0,0,0-.041.5h0.082V23.967a0.835,0.835,0,0,0,0-.578h0.123V23.43a0.566,0.566,0,0,0,.082.62c-0.016-.121-0.067-0.052.041-0.124a0.633,0.633,0,0,1,.371-0.083c0.054,0.179.021,0.237,0.288,0.248a1.466,1.466,0,0,1,.206-0.041,0.768,0.768,0,0,0,.041-0.372,1.68,1.68,0,0,1,0-.744h0.082V24.05H60.1a1.693,1.693,0,0,0-.041-0.62h0.124v0.041a1.158,1.158,0,0,0-.041.579h0.577a0.2,0.2,0,0,1,.041-0.124V24.05h0.33a0.2,0.2,0,0,1,.041-0.124,0.2,0.2,0,0,0,.041.124V23.926a1.163,1.163,0,0,1,0-.5,0.148,0.148,0,0,1,.082-0.041,4.371,4.371,0,0,1-.041.661h0.124a0.643,0.643,0,0,1,.041-0.331v0.289a0.259,0.259,0,0,0,.124-0.041,0.21,0.21,0,0,0,.041-0.124H61.5a0.2,0.2,0,0,1-.041.124V23.8a0.3,0.3,0,0,0,.082-0.165c0.036,0.031.046,0.052,0.082,0.083V23.388H61.545a0.762,0.762,0,0,1-.082.331,1.607,1.607,0,0,1,.041-0.372,0.2,0.2,0,0,0,.206-0.165c0.134,0.077.019,0.016,0.206,0.041A6.186,6.186,0,0,0,62,24.256h0.371V24.091a1.185,1.185,0,0,1,.33,0v0.165H62.9a1.435,1.435,0,0,0,.165-0.992c0.125-.071.112-0.181,0.247-0.248a1.318,1.318,0,0,1,1.153.041,3.146,3.146,0,0,0,.206.289c0.028,0.017.954,0,1.195,0V23.43H65.706a4.034,4.034,0,0,1-1.153,0v0.083h0.041c0.041,0.042-.041.041-0.041,0.041,0.032,0.028.092,0.054,0.124,0.083a0.251,0.251,0,0,0-.082.083,1,1,0,0,1,.288.578h0.577V24.38a0.582,0.582,0,0,0-.577.413,2.161,2.161,0,0,1,.206,1.24c0.328-.014.333-0.148,0.659-0.165a0.776,0.776,0,0,0-.165-0.62,0.586,0.586,0,0,0,.124-0.289l0.247-.207a3.041,3.041,0,0,1,.865.041,0.624,0.624,0,0,1,.082.661h0.124V25.62h0.082V25.455a0.382,0.382,0,0,0-.041-0.372H67.23v0.041c-0.126.173-.047,0.316,0.124,0.331a0.467,0.467,0,0,0,.33.083,0.756,0.756,0,0,1,.041-0.372,0.3,0.3,0,0,0,.082.331,0.434,0.434,0,0,1,.371-0.5c0.037,0,.206.14,0.288,0.165a0.535,0.535,0,0,1,.412,0,0.645,0.645,0,0,1,.041-0.331,3.111,3.111,0,0,0,.124.661h0.165c0.016-.108-0.031-0.054.082-0.083,0.016,0.108-.031.054,0.082,0.083V25.207a0.344,0.344,0,0,1-.206-0.041h0.206V24.917a0.434,0.434,0,0,1-.247-0.041,1.262,1.262,0,0,1,.288,0h0.041a2.214,2.214,0,0,0-.041.62h0.124a0.2,0.2,0,0,1,.041-0.124,0.58,0.58,0,0,1,.33-0.124V25a0.345,0.345,0,0,1-.206-0.041,0.7,0.7,0,0,0,.247-0.041,2.6,2.6,0,0,0,.041.537h0.082a0.356,0.356,0,0,1,.206-0.041V25.248a1.389,1.389,0,0,1,.288,0V25.083a0.265,0.265,0,0,1-.165-0.041h0.165V24.793a0.344,0.344,0,0,1-.206-0.041h0.288v0.041a1.715,1.715,0,0,0-.041.744H71.02a1.6,1.6,0,0,1,.041-0.372,0.2,0.2,0,0,1-.124-0.041h0.124V24.876a0.265,0.265,0,0,1-.165-0.041h0.247v0.041a0.854,0.854,0,0,0-.041.331h0.123a1.613,1.613,0,0,1,.041-0.372h0.082c-0.019.105,0,.434,0,0.661h0.082V25.413a1.444,1.444,0,0,1-.041-0.7h0.124c0.016-.108-0.031-0.054.082-0.083v0.5h0.082a0.446,0.446,0,0,1,.206,0,0.188,0.188,0,0,1,.041-0.165,0.426,0.426,0,0,1-.288-0.083c0.162-.061.139-0.181,0.082-0.331a2.581,2.581,0,0,1,.494-0.124,0.864,0.864,0,0,0,.618.083,4.713,4.713,0,0,1,1.318-.124,0.193,0.193,0,0,0,.206.083V24.256a1.784,1.784,0,0,1,.947.083H75.18v0.248a0.265,0.265,0,0,1,.165.041H75.18a0.2,0.2,0,0,0,.041.124,0.356,0.356,0,0,0,.206.041,0.957,0.957,0,0,0,.618-0.041c0.042-.215.036-0.47,0.082-0.661h0.041v0.331c0.029,0.064.005,0.006,0,.124h0.082a0.476,0.476,0,0,1,.124-0.083,0.839,0.839,0,0,0-.082-0.372,0.948,0.948,0,0,1,.371.083H76.416V24.5a0.265,0.265,0,0,1,.165.041H76.457c0.009,0.219.036,0.144,0.123,0.248a0.5,0.5,0,0,0-.082.165A1.351,1.351,0,0,0,76.91,25V24.835H76.7a0.835,0.835,0,0,1,.041-0.289,1.27,1.27,0,0,0,.453.041v0.372h0.082c0.041-.029.165-0.053,0.206-0.083a0.547,0.547,0,0,0,.041-0.289,2.015,2.015,0,0,0-.082-0.62H77.57c0,0.4,0,.6,0,0.951h0.082a0.21,0.21,0,0,1,.124-0.041,1.727,1.727,0,0,1,.041-0.909c0,0.376,0,.607,0,0.909l0.494-.041a0.738,0.738,0,0,1,.082-0.165v0.124h0.124a0.643,0.643,0,0,0-.041-0.331l-0.041.207H78.393V24.546a0.6,0.6,0,0,0,.124-0.372,0.2,0.2,0,0,1-.124-0.041h0.124V23.884a0.266,0.266,0,0,1-.165-0.041h0.206v0.041H78.6a0.379,0.379,0,0,0-.041.248s0.117,0.046.082,0.083a0.182,0.182,0,0,0-.082.207H78.6v0.041a0.149,0.149,0,0,0,.041-0.083c0.1-.118.037-0.4,0.124-0.537v0.909h0.247a5.869,5.869,0,0,1,.453-1.322,1.775,1.775,0,0,0-.041-0.7,9.577,9.577,0,0,0,0-1.446h0.124a0.2,0.2,0,0,0,0,.207s0.008-.162.041-0.083v0.083a0.141,0.141,0,0,1,.082.041H79.629l-0.041.083c-0.036-.031-0.046-0.052-0.082-0.083v0.165a4.758,4.758,0,0,1,0,.868c0,0.7.028,1.465,0.041,2.107h0.041c0.075-.184.2-0.1,0.412-0.083l-0.082.372H79.794c-0.064-.051-0.021-0.026-0.082,0a9.365,9.365,0,0,0-1.236,1.281c-0.3.393-.772,0.678-1.071,1.074-0.738.98-1.6,1.884-2.307,2.893-0.387.551-.72,1.166-1.071,1.735a2.218,2.218,0,0,1-.659.909,4.905,4.905,0,0,1-1.977.207c-0.93.019-2.011,0.041-3.007,0.041-2.671,0-5.464.041-8.2,0.041a26.093,26.093,0,0,0-4.449.083A3.661,3.661,0,0,1,55.2,34.38c-1.359.929-5.295,0.578-6.921,0.124a10.739,10.739,0,0,1-1.153-.289,2.115,2.115,0,0,0-.412-0.827,9.649,9.649,0,0,0-2.513-.083H12.564l-1.359-.5c-0.14-.018-0.393.082-0.618,0.083a0.515,0.515,0,0,1-.082.537,0.541,0.541,0,0,0-.165,0l-0.041.124a0.254,0.254,0,0,1-.206-0.041C9.78,33.367,9.948,33.2,10.01,32.934a1.433,1.433,0,0,1-.742-0.124,0.211,0.211,0,0,1-.041-0.124,0.14,0.14,0,0,0,.082-0.041l-1.73.124a0.2,0.2,0,0,0-.041-0.124,6.977,6.977,0,0,1-.041.744,0.645,0.645,0,0,1-.206.041,0.293,0.293,0,0,0-.165-0.083,2.316,2.316,0,0,1-.082-0.289,0.345,0.345,0,0,0,.124-0.248,6.483,6.483,0,0,1-.783-0.124V32.6c0.225-.124.647-0.225,0.783-0.331A2.821,2.821,0,0,1,7,31.653a0.345,0.345,0,0,1,.33.248l0.124-.041V31.653a0.807,0.807,0,0,1-.082-0.331H6.22L6.1,32.975H5.149V32.934a9.411,9.411,0,0,0-.247-1.57,3.1,3.1,0,0,0,1.153-.041A8.273,8.273,0,0,1,4.49,31.24c-0.315-.559-0.707-1.106-1.03-1.653-0.1-.173-0.091-0.409-0.206-0.579A1,1,0,0,0,2.8,28.967a0.21,0.21,0,0,1-.124.041,1.159,1.159,0,0,0,0-.95C2.612,27.886,2.5,27.929,2.43,27.769a11.836,11.836,0,0,0,0-2.314H2.266V25.372a0.81,0.81,0,0,0,.082-0.165H2.389a0.347,0.347,0,0,0,.041.207A2.94,2.94,0,0,0,2.389,24.5v0.331l-2.307.083a3.723,3.723,0,0,1-.041-0.992,0.724,0.724,0,0,1,0-.289A0.94,0.94,0,0,1,.7,23.554a7.911,7.911,0,0,1,1.689-.083,0.347,0.347,0,0,1,.041-0.207A14.344,14.344,0,0,0,2.8,27.727H2.842V26.818a6.951,6.951,0,0,1,1.73,0l-0.041.124H4.7c0.018-.2,1.633-0.131,2.06-0.124a0.649,0.649,0,0,1,.33-0.041,1.03,1.03,0,0,1,.206-0.289,0.618,0.618,0,0,0,.577,0,0.724,0.724,0,0,0,.206.62,0.91,0.91,0,0,0,.124.537,1.61,1.61,0,0,1,.041-0.661,0.877,0.877,0,0,1,.412-0.041,0.2,0.2,0,0,0,.041.124c-0.009-.22-0.078-0.246.082-0.289a2.331,2.331,0,0,0,.041.537c0.079,0.126.121-.054,0.165,0.207H9.1L9.063,27.19a0.88,0.88,0,0,1,.288-0.041,0.216,0.216,0,0,0,.124.207V27.314A0.721,0.721,0,0,1,9.6,26.984a0.729,0.729,0,0,1,.33,0v0.454c0.027,0.036.055,0.13,0.082,0.165a0.756,0.756,0,0,1,.041-0.372,0.756,0.756,0,0,0,.041.372c0-.222.012-0.256,0.206-0.289a0.245,0.245,0,0,0,.165.124,0.657,0.657,0,0,0,.082-0.5H10.5V26.9h0.124v0.041a0.345,0.345,0,0,0,0,.331,0.989,0.989,0,0,0,.33-0.62h-0.33V26.612a1.329,1.329,0,0,0-.041-0.413,0.9,0.9,0,0,0,.082-0.289A1.351,1.351,0,0,0,11,25.744a1.447,1.447,0,0,1-.124-0.124,1.93,1.93,0,0,1-1.153-.041c-0.327-.047-0.831.034-1.03,0-0.249-.042-0.663.056-0.783,0-0.1-.06-0.046.009-0.082-0.124a0.14,0.14,0,0,0,.082-0.041,11.048,11.048,0,0,0,2.142.041c0.451,0,.9.089,0.947-0.331h0.124a1.205,1.205,0,0,1,1.112-.826,3.734,3.734,0,0,0,.659.083,0.525,0.525,0,0,0,.041.165c0.477,0.013.862,0.179,1.318,0.207,0.2,0.316.444,0.7,0.618,1.033a3.966,3.966,0,0,1-.124.744,0.213,0.213,0,0,1,.082.041l-0.824.083v0.083h0.742a0.117,0.117,0,0,1,.041-0.041v0.289c0.076,0.126,0,.453.082,0.579V27.025h0.453V26.984a0.323,0.323,0,0,1-.165-0.289,0.533,0.533,0,0,0,.288-0.413c0.543,0,1.074-.035,1.565-0.041a3.2,3.2,0,0,1,0-.909,0.149,0.149,0,0,1,.041.083,2.135,2.135,0,0,1,.041.826H17.3c0.264-.33.786-0.438,1.03-0.785a0.76,0.76,0,0,1-.247-0.124,0.6,0.6,0,0,0,.371.041,3.627,3.627,0,0,0,.865-0.62c0.4-.281.8-0.506,1.195-0.785a3.483,3.483,0,0,1,.247-0.248V23.76H20.8V23.719c0.012-.026-0.013-0.019.041-0.041,0.072-.055.066-0.071,0.124-0.041a0.465,0.465,0,0,1,.041.248,0.116,0.116,0,0,0-.041.041H20.927c0.005-.139.045-0.1-0.041-0.207V23.76A20.229,20.229,0,0,0,19.2,25a1.879,1.879,0,0,0-.618.454c0.3,0.22.6,0.183,0.618,0.7,0.226-.015.467-0.041,0.741-0.041v0.207a1.1,1.1,0,0,1,.33.248,0.265,0.265,0,0,1,.206-0.083,3.2,3.2,0,0,1,.082-0.62,4.069,4.069,0,0,1,0-.661,0.266,0.266,0,0,1-.165-0.041h0.041c0.032-.028.092-0.054,0.124-0.083H20.35a0.463,0.463,0,0,1-.33.289L19.9,25a0.885,0.885,0,0,1,.288-0.041,1.157,1.157,0,0,0,.288-0.041c0.045,0.014.172,0.137,0.247,0.165V25c0.13-.233-0.155-0.817.124-0.992v0.165l2.472-.041,0.041-.454h0.33V23.76c0.009,0.026.023,0.271,0.041,0.372H24.1a0.437,0.437,0,0,1,.041-0.248v0.248H24.3V24.05a0.45,0.45,0,0,1-.041-0.248,0.637,0.637,0,0,1-.329-0.041h0.329l-0.041-.207c-0.178.005-.145,0.059-0.206-0.041a0.577,0.577,0,0,1,.288-0.124c0.046,0.119.007,0.076,0.124,0.124-0.073.134-.03,0.037,0,0.248h0.7V23.8a0.549,0.549,0,0,0-.041.289h0.577a1.007,1.007,0,0,1,.082-0.785,0.266,0.266,0,0,1-.165-0.041c0.147-.017.1,0.019,0.165-0.083a0.28,0.28,0,0,0,.041-0.165,0.343,0.343,0,0,1-.206-0.041h0.206V22.851a2.326,2.326,0,0,1-1.071-.207c0.155-.006.145,0.02,0.206-0.083a0.476,0.476,0,0,0,.082-0.124,0.2,0.2,0,0,1-.123-0.041h0.165v0.248h0.082a4.494,4.494,0,0,1-.124-0.909,2.245,2.245,0,0,0-.041-1.116h0.165v0.041a2.9,2.9,0,0,0-.041,1.074h0.659c0.008-.058-0.034.017-0.041-0.041-0.079-.032.082-0.041,0.082-0.041a0.142,0.142,0,0,0,.041.083,0.444,0.444,0,0,1,.33-0.413V21.281c-0.026-.042-0.089-0.008-0.041-0.041a0.957,0.957,0,0,1,.165-0.124,0.176,0.176,0,0,0-.041-0.165h0.206V20.826l-0.371-.041-0.082-.124a1.561,1.561,0,0,1,0-1.24,3.2,3.2,0,0,1,.865-0.041L26.9,19.5a1.574,1.574,0,0,1,.082.95,0.29,0.29,0,0,1,.206.248,0.432,0.432,0,0,0-.206.372l0.206,0.165c-0.036.062-.117,0.031-0.041,0.083l0.288,0.248a0.589,0.589,0,0,0-.041.165l1.277-.33V17.066h0.041v4.339h0.041a3.613,3.613,0,0,1,1.524-.207V21.24h0.041a4.883,4.883,0,0,1-1.236.868c0-.083.042-0.012,0-0.083a1.612,1.612,0,0,1-.659.041l-0.082.537c0.093-.017.045-0.038,0.124,0a0.754,0.754,0,0,1-.288.165,0.529,0.529,0,0,0-.453,0v1.57a1.4,1.4,0,0,1,.082.62h0.082l0.041-.207h0.041a1.6,1.6,0,0,0,.165.455,0.3,0.3,0,0,0-.247.372h0.124c0,0.4-.011.536,0,0.95a0.929,0.929,0,0,1,.618.165H28.548v0.041a1.629,1.629,0,0,1,.041.289,1.592,1.592,0,0,0-.165.331h0.659a4.161,4.161,0,0,1,0-.868,0.117,0.117,0,0,1,.041.041h0.041a2.607,2.607,0,0,0-.041.826h0.494c0-.6.08-0.954,0.082-1.529h0.082v0.165h0.536V25.826H30.4v0.661h0.206V25.826h0.041a0.593,0.593,0,0,0,.577.124,0.268,0.268,0,0,1,.041-0.165c0.022,0.224.142,1.449,0.165,1.488a0.277,0.277,0,0,0,.165.041,0.969,0.969,0,0,0,.124-0.331H31.638c-0.034.134,0.02,0.063-.082,0.124v-0.7a3.033,3.033,0,0,1,0-.951H31.514c-0.06.1-.052,0.076-0.206,0.083a1.066,1.066,0,0,1,.247-0.7c-0.148-.017-0.1.019-0.165-0.083a0.406,0.406,0,0,0,0-.331c-0.079.06-.09,0.126-0.165,0.083a0.674,0.674,0,0,1-.247-0.248,0.225,0.225,0,0,1,.165-0.124,0.563,0.563,0,0,1,.535-0.041V24.05a0.445,0.445,0,0,1-.206-0.372,0.118,0.118,0,0,0,.041-0.041l0.33-.041a0.764,0.764,0,0,1,.041.248,0.3,0.3,0,0,0-.082.165h0.041a1.676,1.676,0,0,1,.906-0.083V23.76H32.461V23.678a0.382,0.382,0,0,0,.165-0.124,0.238,0.238,0,0,1-.082-0.248H31.967V23.223a6.545,6.545,0,0,1,1.483-.083,0.2,0.2,0,0,1,.041-0.124v0.124H33.78v0.124a4.047,4.047,0,0,0-.906.207v0.041h0.041a0.532,0.532,0,0,0,.247.083c0.142,0.082-.048.141,0.165,0.165a0.278,0.278,0,0,1,.165-0.041V23.8a0.4,0.4,0,0,0-.206.124h0.783v0.165l3.09-.124a0.377,0.377,0,0,1,.288-0.289c0.141,0.058.636-.07,0.906,0a0.862,0.862,0,0,0,.412.083,0.261,0.261,0,0,1,.165-0.041,3.614,3.614,0,0,0,.536.165c-0.008-.547.082-0.9,0.082-1.488a1.958,1.958,0,0,1,.041-0.744V22.6H39.67V22.4h0.165a0.268,0.268,0,0,1,.041-0.165c0.034,0.134-.02.063,0.082,0.124,0.073-.1.044,0.011,0.247,0.041V22.107H39.835a0.2,0.2,0,0,1-.041.124V21.57a0.4,0.4,0,0,0-.206.083V21.57a0.116,0.116,0,0,0,.041-0.041l0.536-.041a0.643,0.643,0,0,1,.041-0.331v0.331h0.247V16.281a8.354,8.354,0,0,0-.123-2.149,2.12,2.12,0,0,1,.123-0.248,2.446,2.446,0,0,0-.082-1.24,2.431,2.431,0,0,0,.082-1.074,0.2,0.2,0,0,1-.123-0.041c0.083-.048.051-0.136,0.041-0.331h0.123a0.58,0.58,0,0,0,.082.331,0.348,0.348,0,0,1,.041-0.207c0.017,0.234.084,0.22,0.33,0.207-0.013-.077,0-0.271,0-0.454a0.88,0.88,0,0,0-.288-0.041,0.4,0.4,0,0,1-.041.289,1.484,1.484,0,0,1,.041-0.62,0.29,0.29,0,0,0,.082.289V10.95c-0.035-.078-0.02-0.03,0-0.124,0.109,0.049.074-.037,0.124,0.083H40.824c-0.034.035,0.075,0.076,0.082,0.083a0.831,0.831,0,0,0-.041-0.331A0.277,0.277,0,0,0,40.7,10.62v0.041h0.041c0.079,0.032-.082.041-0.082,0.041v-0.62H40.7a0.156,0.156,0,0,0,.165.124V10.124c-0.065-.12.078-0.2-0.124-0.248V9.917a0.166,0.166,0,0,1,.082.165H40.783v0.041H40.742L40.783,10c-0.107-.012-0.073.019-0.082-0.165,0,0-.161-0.008-0.082-0.041H40.7l0.041-.124H40.618a3.06,3.06,0,0,1,.206-1.2,8.36,8.36,0,0,1,.165,1.2c-0.134.034-.063-0.02-0.124,0.083,0.085,0.089-.014.3,0.082,0.455a1.254,1.254,0,0,1,.041-0.289H41.03v0.289c0.01,0.04.032,0.016,0,.041v0.041a0.321,0.321,0,0,0-.288,0,0.359,0.359,0,0,0-.041.207c0.074,0.055-.019.068,0.165,0.083a0.881,0.881,0,0,1,.082-0.289,0.73,0.73,0,0,0,.124.413H41.03a0.252,0.252,0,0,0-.082-0.083v0.372a2.909,2.909,0,0,1,.082,1.033,3.235,3.235,0,0,1,.371,0,0.253,0.253,0,0,1,.041-0.165,0.149,0.149,0,0,1,.041.083,0.677,0.677,0,0,0,.371.083v0.041l-0.659.124a0.537,0.537,0,0,1-.041.289,0.538,0.538,0,0,0-.041-0.289,0.149,0.149,0,0,1-.082.041V12.4c0.094,0.156-.014.548,0.082,0.7a0.2,0.2,0,0,1,.041-0.124V14.05a0.187,0.187,0,0,1,.165.041v0.083c-0.16,0-.145.111-0.124,0.372,0.01,0.04.032,0.016,0,.041a1.054,1.054,0,0,0,.33.165,2.518,2.518,0,0,1-.206-0.578h0.041v0.083a0.776,0.776,0,0,1,.165.413,2.294,2.294,0,0,1,1.318.124,1.5,1.5,0,0,1,.041.62,0.524,0.524,0,0,1,.165.041,0.437,0.437,0,0,1,.041-0.248v0.124a0.828,0.828,0,0,0,.288-0.041V15.248a0.352,0.352,0,0,1-.33-0.165l0.33-.041V14.752h-0.33a0.643,0.643,0,0,1-.041.33V14.711a2.967,2.967,0,0,0,.618-0.124l0.412,0.041V14.463a1.016,1.016,0,0,0-.288-0.165,6.6,6.6,0,0,0-.206-0.661A1.553,1.553,0,0,1,44,13.306a0.116,0.116,0,0,0,.041.041,18.58,18.58,0,0,1,0-1.983V7.149A9.379,9.379,0,0,1,44.078,5v7.893H44.12l0.041-.124L45.973,13.6v0.041H45.85a6.253,6.253,0,0,0-1.483-.7v0.083a0.3,0.3,0,0,1,.041.331h0.041l0.041-.124a1.969,1.969,0,0,1,.33.124,0.142,0.142,0,0,0-.082.041c0.24,0.009.032,0.025,0.206,0.124a0.251,0.251,0,0,1,.082-0.083V13.76a1.356,1.356,0,0,0-.371.165c0.039,0.073.009,0,0,.083a0.345,0.345,0,0,0-.124-0.083,1.312,1.312,0,0,1-.124.413H44.82a6.9,6.9,0,0,0,1.359-.289c-0.134-.077-0.074-0.194-0.041-0.331a0.281,0.281,0,0,1-.165-0.083,1.577,1.577,0,0,1,.288.083,0.694,0.694,0,0,0,.041.5,5.019,5.019,0,0,0-1.854.372v0.041A5.263,5.263,0,0,0,45.108,14.711Zm-4.367-4.421a0.16,0.16,0,0,1,.082.124H40.783V10.372A0.149,0.149,0,0,1,40.742,10.289Zm0,0.413a0.16,0.16,0,0,1,.082.124H40.783V10.785A0.149,0.149,0,0,1,40.742,10.7Zm0.33,0.041a0.659,0.659,0,0,1,0,.5v-0.5Zm-0.618.083a0.484,0.484,0,0,1,.082.207H40.453V10.826Zm0.412,0.248a0.149,0.149,0,0,1,.041.083H40.865V11.074Zm-0.165.041a0.149,0.149,0,0,1,.041.083H40.7V11.116Zm0.082,0.124c0.014,0.012.082,0.022,0.041,0.083C40.778,11.3,40.7,11.249,40.783,11.24Zm0.082,0.124a0.15,0.15,0,0,1,.041.083H40.865V11.364Zm0.247,0a0.659,0.659,0,0,1,0,.5v-0.5Zm-0.577.207v0.413a0.728,0.728,0,0,0,.412.083,1.042,1.042,0,0,0,.041-0.331c-0.127-.141-0.006-0.161-0.33-0.165a0.118,0.118,0,0,1-.041.041,0.756,0.756,0,0,1-.041.372A0.872,0.872,0,0,0,40.536,11.57Zm0.124,0.041a0.149,0.149,0,0,1,.041.083H40.659V11.612Zm0.082,0.124c0.1,0.06.046-.009,0.082,0.124C40.7,11.8,40.8,11.847,40.742,11.736Zm-0.082.165a0.15,0.15,0,0,1,.041.083H40.659V11.9Zm-0.041.207a1.2,1.2,0,0,0-.041.372h0.041v0.041a0.141,0.141,0,0,0,.082-0.041c0.1-.053.028,0.018,0.082-0.083-0.112-.066-0.034.007-0.041-0.124h0.082v0.083a1.046,1.046,0,0,1,.041.165c0.12,0,.057-0.04.124,0a0.15,0.15,0,0,0,.041-0.083c-0.036-.058-0.045-0.232-0.082-0.289A0.65,0.65,0,0,0,40.618,12.107Zm-0.041.455a1.363,1.363,0,0,0-.041.413,1.518,1.518,0,0,0,.453.041A1.363,1.363,0,0,0,41.03,12.6,1.518,1.518,0,0,0,40.577,12.562ZM41.195,12.6a0.747,0.747,0,0,1,0,.537V12.6Zm-0.906.041h0.082v0.041A0.14,0.14,0,0,1,40.288,12.645ZM40.7,12.727l0.124,0.041a0.116,0.116,0,0,1-.041.041v0.041A0.48,0.48,0,0,1,40.7,12.727Zm-0.618.041h0.082V12.81A0.141,0.141,0,0,1,40.082,12.769ZM40,12.81h0.082v0.041A0.14,0.14,0,0,1,40,12.81Zm0.659,0.041h0.082v0.041A0.141,0.141,0,0,1,40.659,12.851Zm3.5,0a1.344,1.344,0,0,0,.082.248V13.017a0.475,0.475,0,0,0,.082-0.124Zm-4.367.083h0.082v0.041A0.142,0.142,0,0,1,39.794,12.934Zm4.284,0a0.437,0.437,0,0,0,.041.248A0.437,0.437,0,0,0,44.078,12.934Zm-4.367.041h0.082v0.041A0.141,0.141,0,0,1,39.712,12.975Zm-0.082.041h0.082v0.041A0.141,0.141,0,0,1,39.629,13.017Zm-0.041.041c0.1,0.085.009,0.039,0.041,0.124C39.554,13.207,39.6,13.1,39.588,13.058Zm4.367,0c0.035,0.078.02,0.031,0,.124H43.914Zm-3.378.041a1.363,1.363,0,0,0-.041.413,1.518,1.518,0,0,0,.453.041,0.621,0.621,0,0,0,.082-0.413H40.989A0.877,0.877,0,0,0,40.577,13.1Zm0,0.041h0.082v0.041A0.141,0.141,0,0,1,40.577,13.141Zm3.79,0v0.083h0.041V13.141H44.367Zm-3.5.041h0.082v0.041A0.14,0.14,0,0,1,40.865,13.182Zm3.007,0c0.035,0.078.02,0.03,0,.124H43.831Zm-4.12.041a0.149,0.149,0,0,1,.041.083H39.753V13.223Zm4.367,0-0.041.083C44.15,13.248,44.12,13.223,44.12,13.223Zm-4.49.041a1.125,1.125,0,0,1,0,.7v-0.7Zm1.112,0h0.082v0.083H40.742V13.265Zm0.494,0a0.658,0.658,0,0,1,0,.5v-0.5Zm2.513,0.083a0.149,0.149,0,0,1,.041.083H43.749V13.347Zm-3.831.083a0.149,0.149,0,0,1,.041.083H39.918V13.43Zm4.779,0v0.083h0.041A0.142,0.142,0,0,0,44.7,13.43Zm-0.783.041a0.149,0.149,0,0,1-.082.041v0.041C43.878,13.536,44.025,13.506,43.914,13.471ZM44.49,13.6a0.148,0.148,0,0,0,.082.041A0.148,0.148,0,0,0,44.49,13.6Zm0.165,0v0.083h0.082V13.6H44.655Zm0.206,0-0.041.124H44.9V13.678a0.149,0.149,0,0,0,.041-0.083H44.861Zm-4.779.041a0.149,0.149,0,0,1,.041.083H40.082V13.636Zm0.494,0c-0.029.092-.03,0.394-0.041,0.413a1.118,1.118,0,0,0,.494.041c0.047-.065.079-0.014,0.082-0.248a0.358,0.358,0,0,1-.041-0.207C40.991,13.65,40.768,13.638,40.577,13.636Zm3.378,0A0.965,0.965,0,0,0,44,13.8V13.76a0.212,0.212,0,0,0,.041-0.124H43.955Zm-0.33.083c0.027,0.037.2,0.2,0.206,0.207,0.047,0.079,0,.23.041,0.289a0.294,0.294,0,0,0,.165.083V14.132c-0.093.017-.045,0.038-0.124,0,0.093-.1.045-0.014,0.041-0.165l0.082,0.041A1.145,1.145,0,0,0,43.625,13.719Zm0.741,0c-0.014.057,0.059,0.06,0.082,0.083C44.478,13.758,44.378,13.731,44.367,13.719Zm-3.707.041h0.082V13.8A0.141,0.141,0,0,1,40.659,13.76Zm0.165,0h0.082V13.8A0.141,0.141,0,0,1,40.824,13.76Zm3.872,0V13.8H44.655c-0.079.032,0.082,0.041,0.082,0.041A0.142,0.142,0,0,0,44.7,13.76Zm-3.955.041h0.082v0.083H40.742V13.8Zm-0.494.041a0.149,0.149,0,0,1,.041.083H40.247V13.843Zm0.371,0.083H40.7v0.041A0.14,0.14,0,0,1,40.618,13.926Zm0.618,0a0.148,0.148,0,0,1,.041.083H41.236V13.926Zm3.172,0,0.041,0.124H44.49A0.157,0.157,0,0,0,44.408,13.926Zm-3.5.041h0.082v0.041A0.141,0.141,0,0,1,40.906,13.967Zm3.172,0.372c0.162-.017.162,0.018,0.206-0.083a0.493,0.493,0,0,1-.123-0.248H44.12V14.05a0.148,0.148,0,0,0-.041.083,0.226,0.226,0,0,1,.124.165H44.161a0.252,0.252,0,0,0-.082-0.083v0.124ZM39.67,14.05a0.931,0.931,0,0,1,0,.62V14.05Zm6.674,0.041a0.149,0.149,0,0,1,.041.083H46.344V14.091Zm-5.232.124H40.536V14.3h0.041a1.4,1.4,0,0,0,.536.248V14.215Zm-0.577.165a8.057,8.057,0,0,1,.536.661h0.041V14.628A2.88,2.88,0,0,1,40.536,14.38Zm0,0.124v0.248L40.989,15A1.853,1.853,0,0,0,40.536,14.5Zm3.543,0.041v0.083h0.082V14.546H44.078Zm-2.843.165a3.622,3.622,0,0,1,.412.661h0.041V14.917Zm0.371,0.041a3.681,3.681,0,0,0,1.195.579V14.793H42.76V14.752H41.607Zm-0.412.041v0.331l0.412,0.248A2.047,2.047,0,0,0,41.195,14.793Zm3.3,0v0.083h0.041V14.793H44.49ZM44.614,15a1.252,1.252,0,0,1,.288.041v0.041c-0.18.033-.162,0.046-0.165,0.248a0.574,0.574,0,0,0,.247-0.083v0.041H44.943c-0.079.032,0.082,0.041,0.082,0.041V14.876a0.148,0.148,0,0,0,.041-0.083H44.573v0.083A0.211,0.211,0,0,1,44.614,15Zm-4.985-.165h0.165v0.041c-0.064.106-.016,0.391-0.082,0.5A1.315,1.315,0,0,0,39.629,14.835Zm0.906,6.653,1.689-.083c0.018-.574.153-1.075,0.124-1.612h0.124l0.082-.62c0.154,0,.1.05,0.124-0.124a2.04,2.04,0,0,0,0-.827,0.433,0.433,0,0,1-.247-0.041h0.247a0.833,0.833,0,0,1,.041-0.289H42.8v0.289a1.016,1.016,0,0,1,.041.537h0.082V18.512a0.82,0.82,0,0,1,.041-0.413,0.433,0.433,0,0,1-.082-0.124h0.124l0.124-.785H43.007a0.453,0.453,0,0,1-.206.207,1.268,1.268,0,0,0-.123-0.289H42.8a0.432,0.432,0,0,0,.33-0.041V16.984a1.31,1.31,0,0,0,.082-0.62c-0.758-.221-1.315-0.906-2.06-1.157a2.37,2.37,0,0,1-.041.909,2.5,2.5,0,0,0-.041-0.95,2.137,2.137,0,0,0-.536-0.331v6.653Zm3.872-6.529v0.083h0.041A0.141,0.141,0,0,0,44.408,14.959ZM41.854,15c0.08,0.262.285,0.406,0.371,0.661h0.041v-0.5A2.027,2.027,0,0,1,41.854,15Zm-0.082.041v0.413L42.183,15.7V15.62A5.575,5.575,0,0,1,41.771,15.041Zm2.719,0.041v0.165h0.124V15.083H44.49Zm-0.082.041a0.2,0.2,0,0,0,.041.124V15.124H44.408Zm1.771,0.041h0.082v0.041A0.142,0.142,0,0,1,46.179,15.165Zm-3.831.124v0.537a2.26,2.26,0,0,1,.494.248A2.935,2.935,0,0,0,42.348,15.289Zm0.082,0,0.412,0.661h0.041v-0.5Zm1.854,0a0.149,0.149,0,0,0,.082.041A0.147,0.147,0,0,0,44.284,15.289Zm0.206,0a0.149,0.149,0,0,0,.082.041A0.148,0.148,0,0,0,44.49,15.289Zm2.224,0.041a1.418,1.418,0,0,0,.041.331H46.8V15.5C46.77,15.46,46.742,15.366,46.715,15.331Zm0.124,0v0.124h0.124V15.331H46.838Zm-3.749.041a0.2,0.2,0,0,0,.041.124,1.267,1.267,0,0,0,.33.165V15.62a0.177,0.177,0,0,1-.165-0.165h0.041a0.367,0.367,0,0,0,.124.124V15.372A1.759,1.759,0,0,1,43.09,15.372Zm1.071,0a0.478,0.478,0,0,1,0,.248H44.2a0.327,0.327,0,0,1,.165-0.041V15.372H44.161Zm0.33,0a1.392,1.392,0,0,1,0,.289h0.124V15.372H44.49Zm0.247,0v0.083h0.124V15.372H44.737Zm0.206,0a1.485,1.485,0,0,0-.041.289h0.082A0.538,0.538,0,0,0,44.943,15.372Zm-5.191.041a0.659,0.659,0,0,1,0,.5v-0.5ZM44.737,15.5v0.165h0.124V15.5H44.737Zm-1.648.165v0.5l0.124,0.083V16.074a0.656,0.656,0,0,0,.041-0.331A0.553,0.553,0,0,1,43.09,15.661Zm1.277,0.083a0.7,0.7,0,0,0,.247.372,1.99,1.99,0,0,1-.124-0.372H44.367Zm0.742,0v0.248h0.082a0.159,0.159,0,0,1,.124-0.083c0.011,0.107-.019.073,0.165,0.083A0.21,0.21,0,0,1,45.6,15.95V15.744H45.561a0.159,0.159,0,0,1-.124.083C45.42,15.715,45.336,15.736,45.108,15.744Zm0.536,0V15.95h0.041a0.722,0.722,0,0,1,.33-0.165V15.744H45.644Zm0.535,0.165V15.744H46.138a0.721,0.721,0,0,1-.33.165V15.95h0.124A0.445,0.445,0,0,1,46.179,15.909Zm0.041-.165v0.165a0.2,0.2,0,0,0,.124-0.041h0.041V15.744H46.22Zm0.371,0a0.2,0.2,0,0,0,.041.124V15.744H46.591Zm-1.73.041c-0.134.034-.063-0.02-0.124,0.083a0.354,0.354,0,0,0,.124.165V15.785Zm0.041,0v0.248h0.041V15.95C44.992,15.851,44.981,15.86,44.9,15.785Zm-1.483.041v0.289H43.46a0.443,0.443,0,0,0,.123-0.289H43.419Zm1.936,0h0.082a0.118,0.118,0,0,1-.041.041C45.368,15.873,45.316,15.87,45.355,15.826Zm-5.561.165a0.574,0.574,0,0,1,0,.455V15.992Zm3.831,0.083-0.206.289h0.412V16.281A0.361,0.361,0,0,0,43.625,16.074Zm1.153,0L44.82,16.2h0.041V16.074H44.779Zm-0.412.041a0.271,0.271,0,0,1-.124.248h0.371V16.322Zm-0.206.124a0.148,0.148,0,0,0,.082.041A0.148,0.148,0,0,0,44.161,16.24Zm-0.824.165a2.948,2.948,0,0,1-.082.62H43.3a3.212,3.212,0,0,0,.535-0.62H43.337Zm0.906,0V16.57l0.371,0.289V16.405H44.243Zm0.412,0v0.248h0.082A0.411,0.411,0,0,0,44.655,16.405Zm0.165,0a0.2,0.2,0,0,0,.041.124V16.405H44.82Zm1.359,0.083a0.149,0.149,0,0,1,.041.083H46.179V16.488Zm0.659,0.041a0.121,0.121,0,0,1,0,.165V16.529Zm-7,.041a1.019,1.019,0,0,1,.124.124,1.753,1.753,0,0,0-.124.372A4.2,4.2,0,0,1,39.835,16.57Zm3.955,0-0.536.579H43.79a0.118,0.118,0,0,1,.041-0.041c-0.039-.132-0.036-0.152-0.082-0.289,0.1-.053.028,0.018,0.082-0.083C43.689,16.644,43.84,16.691,43.79,16.57Zm2.389,0.083a0.149,0.149,0,0,1,.041.083H46.179V16.653Zm-1.524.041V16.9l0.206,0.165a1.206,1.206,0,0,1-.082-0.372H44.655Zm-0.412.455h0.371V16.942a0.839,0.839,0,0,0-.371-0.207v0.083C44.336,16.882,44.268,16.97,44.243,17.149Zm2.1-.248h0.082v0.041A0.14,0.14,0,0,1,46.344,16.9Zm-1.689.248H44.82V17.107l-0.165-.124v0.165Zm-4.779,0a0.573,0.573,0,0,1,0,.454V17.149Zm3.378,0.041c-0.06.188-.059,0.475-0.124,0.661h0.041a0.225,0.225,0,0,1,.165-0.124v0.041a0.656,0.656,0,0,0-.206.207h0.535a0.761,0.761,0,0,0,.371.041V17.934A1.626,1.626,0,0,1,44,17.273H43.914a0.159,0.159,0,0,1-.124.083V17.314a0.16,0.16,0,0,0,.082-0.124H43.254Zm1.359,0H44.161v0.083a1.949,1.949,0,0,1,.453.289V17.19Zm0.041,0v0.083h0.206V17.19H44.655Zm-0.577.826h0.535V17.645l-0.535-.372v0.744Zm0.577-.7v0.248h0.206V17.314H44.655Zm-0.947.041H43.79a0.379,0.379,0,0,1-.247.207ZM44.9,17.4v0.372l0.123,0.083V17.727C44.969,17.643,44.962,17.479,44.9,17.4Zm-1.442.165h0.082c-0.016.026-.134,0.223-0.206,0.165Zm1.4,0.041H44.7v0.041h0.082a0.252,0.252,0,0,0,.082.083V17.6Zm-4.943.083a0.659,0.659,0,0,1,0,.5v-0.5Zm4.737,0.207h0.206V17.81l-0.206-.124v0.207ZM44.9,18.017h0.165V17.934l-0.123-.041a0.118,0.118,0,0,0-.041-0.041v0.165Zm-0.247-.083v0.083h0.206V17.934H44.655ZM43.09,18.1l-0.041.537c0.117-.013.085-0.044,0.165,0H43.172a1.362,1.362,0,0,0-.165.165h1.607V18.388a5.151,5.151,0,0,1-.7-0.331Zm1.524-.041H44.2v0.083h0.082a1.347,1.347,0,0,0,.33.207V18.058Zm0.041,0v0.124h0.206V18.058H44.655Zm0.247,0v0.455l0.329,0.165V18.6c-0.087-.129-0.074-0.369-0.165-0.5V18.058H44.9Zm1.648,0v0.289h0.082V18.306a0.248,0.248,0,0,1,0-.248H46.55Zm-3.213.083a0.266,0.266,0,0,1,.165.041A0.265,0.265,0,0,1,43.337,18.141Zm0.494,0h0.082a0.116,0.116,0,0,1-.041.041,1.291,1.291,0,0,1-.536.331V18.471h0.041C43.508,18.34,43.7,18.273,43.831,18.141Zm-3.872.083c0.073,0.122.055,0.391,0.124,0.5H39.918V18.678A1,1,0,0,0,39.959,18.223Zm4.7,0v0.165a0.882,0.882,0,0,1,.206.083V18.223H44.655Zm3.913,0.041h0.082v0.041A0.142,0.142,0,0,1,48.569,18.265Zm0.082,0.041h0.082v0.041A0.141,0.141,0,0,1,48.651,18.306Zm-5.4.207h0.082a0.117,0.117,0,0,1-.041.041C43.267,18.559,43.216,18.556,43.254,18.512Zm1.4,0V18.8h0.206V18.554A0.646,0.646,0,0,0,44.655,18.512ZM44.9,18.8l0.247-.041V18.719A0.852,0.852,0,0,0,44.9,18.6V18.8Zm3.007-.124v0.578H48.28V18.678H47.909Zm0.412,0v0.331l0.206-.041V18.8a0.211,0.211,0,0,1-.041-0.124H48.321Zm0.33,0.289h0.165V18.678H48.651A1.5,1.5,0,0,1,48.651,18.967Zm0.247-.289v0.289H49.31a0.835,0.835,0,0,1,.041-0.289H48.9Zm-1.977.124a0.343,0.343,0,0,1,.206.041,0.259,0.259,0,0,0-.206.083V18.8Zm-7,.041h0.165v0.083c-0.053.087-.028,0.327-0.082,0.413A1.319,1.319,0,0,0,39.918,18.843Zm3.09,0v0.331a2.22,2.22,0,0,0,.906-0.248V18.843H43.007Zm1.607,0H44.2v0.041h0.041a1.456,1.456,0,0,0,.371.207V18.843Zm0.041,0v0.248h0.206V18.843H44.655Zm0.247,0v0.248h0.165V18.843H44.9Zm-0.947.083a0.29,0.29,0,0,1-.206.124v0.041H44a0.74,0.74,0,0,0,.535,0C44.367,19.051,44.139,18.991,43.955,18.926Zm6.014,0a0.758,0.758,0,0,0-.041.248H50.01V19.132a0.359,0.359,0,0,0,.041-0.207H49.969Zm-1.071.083a0.411,0.411,0,0,0,.082.248V19.008H48.9Zm0.124,0v0.248H49.31V19.008H49.022ZM47.7,19.3V19.05H47.662v0.083a1.9,1.9,0,0,1-.206.124V19.3H47.7Zm0.659-.248a0.347,0.347,0,0,0,.041.207A0.347,0.347,0,0,0,48.363,19.05Zm0.082,0a0.347,0.347,0,0,0,.041.207A0.347,0.347,0,0,0,48.445,19.05Zm0.206,0a0.12,0.12,0,0,0,.165,0H48.651Zm1.071,0.041a0.2,0.2,0,0,0,.041.124c0.066-.113-0.007-0.034.124-0.041V19.05H49.846A0.21,0.21,0,0,1,49.722,19.091Zm-2.719,0a0.12,0.12,0,0,0,.165,0H47ZM47.25,19.3h0.165V19.256a1.951,1.951,0,0,0-.206-0.165v0.041A0.28,0.28,0,0,1,47.25,19.3Zm-2.183-.165H44.9v0.083h0.041a0.474,0.474,0,0,0,.123.083V19.132ZM44,19.422h0.165V19.174a0.2,0.2,0,0,0-.124.041A0.358,0.358,0,0,0,44,19.422Zm0.247-.248v0.248h0.165V19.174H44.243Zm0.206,0a0.12,0.12,0,0,0,.165,0H44.449Zm0.206,0V19.38H44.7V19.3l0.124-.041V19.215A0.524,0.524,0,0,1,44.655,19.174Zm-1.648.041v0.207H43.09a0.489,0.489,0,0,0,.165-0.165A0.751,0.751,0,0,0,43.007,19.215Zm4.9,0.083,0.041,0.331H48.28V19.3H47.909Zm1.318,0H49.022a0.2,0.2,0,0,1-.041.124,0.2,0.2,0,0,0-.041-0.124v0.248h0.082c0.038-.084.022,0.028,0.082-0.041l0.124-.041V19.3Zm0.041,0V19.38H49.31V19.339h0.041A0.149,0.149,0,0,0,49.269,19.3ZM49.392,19.5V19.38c0.148-.017.1,0.02,0.165-0.083H49.434a1.216,1.216,0,0,0-.165.207h0.124ZM49.8,19.3V19.38h0.041V19.3H49.8Zm-2.636.083H47v0.207h0.371l0.041-.248H47.25a1.05,1.05,0,0,1-.082.207V19.38Zm0.288-.041L47.5,19.587a0.344,0.344,0,0,1,.206.041,0.345,0.345,0,0,0-.206.041c0.157,0.078-.02.065,0.124,0.124,0.06,0.1.018,0.064,0.165,0.083a2.581,2.581,0,0,0-.082-0.537H47.662V19.38A0.645,0.645,0,0,0,47.456,19.339Zm0.906,0a0.348,0.348,0,0,0,.041.207A0.347,0.347,0,0,0,48.363,19.339Zm0.33,0.207h0.124V19.339H48.651v0.083A0.212,0.212,0,0,1,48.692,19.546Zm1.236-.083a0.2,0.2,0,0,0,.124-0.041l-0.124-.083v0.124Zm-6.715-.083a0.149,0.149,0,0,1-.082.041,0.148,0.148,0,0,0,.082.041,0.116,0.116,0,0,0,.041.041V19.38H43.213Zm-3.172.041a0.747,0.747,0,0,1,0,.537V19.422Zm4.614,0V19.5H44.7V19.422H44.655Zm5.891,0a0.531,0.531,0,0,0,0,.372h0.041V19.422H50.546ZM44,19.463a0.165,0.165,0,0,0,.165.083V19.463H44Zm0.247,0a0.413,0.413,0,0,0,.371,0H44.243Zm-1.195.041a0.148,0.148,0,0,0,.082.041A0.148,0.148,0,0,0,43.048,19.5Zm4.779,0a0.2,0.2,0,0,0,.041.124V19.5H47.827Zm2.1,0v0.289H50.01a0.731,0.731,0,0,1,.041-0.289H49.928Zm-5.273.041a0.2,0.2,0,0,0,.041.124A0.2,0.2,0,0,0,44.655,19.546Zm4.49,0c0.016,0.108-.031.054,0.082,0.083V19.546H49.145Zm0.124,0a0.451,0.451,0,0,1,0,.289h0.082V19.793a0.211,0.211,0,0,0,.041-0.124c-0.035-.078-0.02-0.03,0-0.124H49.269Zm-6.179.041-0.041.124h0.082A0.2,0.2,0,0,0,43.09,19.587Zm0.906,0v0.083c0.148-.017.1,0.02,0.165-0.083H44Zm0.247,0a0.242,0.242,0,0,0,.371,0H44.243Zm4.449,0c0.071,0.036.053,0.037,0.124,0H48.692Zm0.247,0a0.149,0.149,0,0,0,.082.041A0.148,0.148,0,0,0,48.939,19.587Zm-5.973.041v0.083h0.041A0.142,0.142,0,0,0,42.966,19.628Zm4.037,0v0.248h0.206V19.628H47Zm0.247,0v0.165h0.082a0.189,0.189,0,0,1,.041-0.165H47.25Zm0.577,0.041a0.346,0.346,0,0,0,.041.207A0.348,0.348,0,0,0,47.827,19.669Zm-3.666.289V19.711H44v0.083a0.667,0.667,0,0,1-.041.207H44A0.277,0.277,0,0,1,44.161,19.959Zm0.165-.248v0.248h0.288V19.711H44.325Zm-1.277.041L43.09,20h0.165V19.917a0.279,0.279,0,0,1-.041-0.165H43.048Zm1.607,0.207a0.345,0.345,0,0,0,.206-0.041,0.318,0.318,0,0,1-.206-0.165v0.207Zm2.142-.207v0.124h0.165V19.752H46.8Zm1.195,0v0.083h0.123V19.752H47.992Zm0.165,0v0.083H48.28V19.752H48.157Zm0.206,0v0.083H48.4A0.141,0.141,0,0,0,48.363,19.752Zm0.412,0v0.083h0.041V19.752H48.775Zm0.165,0v0.083H48.98A0.141,0.141,0,0,0,48.939,19.752Zm0.124,0v0.083h0.124V19.752H49.063Zm-3.46.041a0.156,0.156,0,0,0,.165.124V19.835H45.726V19.793H45.6Zm0.412,0.041v0.083h0.124V19.835H46.014Zm-1.112.041v0.083h0.206V19.876H44.9Zm-1.154.041c0.011,0.107-.019.073,0.165,0.083V19.959ZM40.082,20a0.747,0.747,0,0,1,0,.537V20Zm0.041,0.578a0.747,0.747,0,0,1,0,.537V20.579Zm-11,.744a1.258,1.258,0,0,1-.412.124V21.57a0.118,0.118,0,0,1,.041.041c0.176-.072.294-0.166,0.453-0.248A0.149,0.149,0,0,0,29.125,21.322Zm50.422,0h0.082v0.041A0.14,0.14,0,0,1,79.547,21.322ZM28.3,21.694a1.2,1.2,0,0,0,.33-0.083,0.524,0.524,0,0,1,.041-0.165H28.63a1.4,1.4,0,0,1-.33.124v0.124Zm13.017-.165v0.207l0.865-.041V21.612a0.211,0.211,0,0,0,.041-0.124C41.9,21.485,41.586,21.509,41.318,21.529Zm-1.483.041v0.207h0.577V21.529H40.206a0.268,0.268,0,0,1-.041.165V21.529Zm0.783,0.165h0.659V21.529a1.848,1.848,0,0,0-.742.041,0.2,0.2,0,0,1,.124.041A0.21,0.21,0,0,0,40.618,21.736ZM28.26,21.694c-0.034-.134.02-0.063-0.082-0.124-0.084.058-.247,0.064-0.329,0.124H28.26Zm13.059,0.083v0.248l0.824-.041a0.758,0.758,0,0,0,.041-0.248H42.1A1.987,1.987,0,0,1,41.318,21.777Zm-16.107.041c-0.019.2-.068,0.2-0.082,0.413h0.082V22.149a0.212,0.212,0,0,1-.041-0.124h0.041v0.083a0.211,0.211,0,0,1,.041.124,3.169,3.169,0,0,0,.577-0.041H25.87a0.581,0.581,0,0,1-.041-0.413H25.706a0.348,0.348,0,0,1-.041.207V21.777Zm2.183-.041V22.19a0.961,0.961,0,0,0,.783-0.124,0.86,0.86,0,0,0,.082-0.289,0.862,0.862,0,0,0-.412.041,0.2,0.2,0,0,1,.124.041H27.93A2.348,2.348,0,0,1,27.394,21.777Zm13.388,0.041v0.207h0.494V21.777Zm-15.654,0a0.2,0.2,0,0,0,.041.124V21.818H25.129Zm0.206,0a0.345,0.345,0,0,1,0,.331V21.818Zm3.131,0a0.149,0.149,0,0,0,.082.041A0.148,0.148,0,0,0,28.466,21.818Zm11.37,0v0.248h0.371V21.818H39.835Zm0.412,0v0.248h0.165V21.818H40.247Zm0.371,0a0.26,0.26,0,0,1-.082.207h0.206V21.818H40.618Zm-12.647.041a0.452,0.452,0,0,1,.206.083H28.136C28.016,22.032,27.983,21.914,27.971,21.86Zm51.411,0.165a0.593,0.593,0,0,0,.041.207H79.217V22.19C79.385,22.087,79.177,22.082,79.382,22.025Zm-38.805.083a0.379,0.379,0,0,0,0,.289,0.268,0.268,0,0,1,.041-0.165,0.525,0.525,0,0,0,.041.165,2.2,2.2,0,0,1,.618-0.041V22.066A5.266,5.266,0,0,0,40.577,22.107Zm0.783,0.248,0.783-.041a0.949,0.949,0,0,1,0-.248H41.318v0.041A0.448,0.448,0,0,1,41.359,22.355ZM29,22.107h0.082l-0.041.083-0.124.041Zm11.246,0V22.4h0.165V22.107H40.247Zm-12.853.124v0.331a0.582,0.582,0,0,0,.165.041,0.937,0.937,0,0,1,.453-0.331V22.231H27.394Zm1.442,0h0.082v0.041H28.877C28.849,22.278,28.8,22.275,28.836,22.231Zm-3.666.413h0.206a0.376,0.376,0,0,1,.041-0.331,0.3,0.3,0,0,0,.082.331A0.762,0.762,0,0,1,25.87,22.6V22.562a0.281,0.281,0,0,1-.041-0.289H25.747a0.538,0.538,0,0,1-.041.289V22.273H25.294a0.661,0.661,0,0,1-.082.248,0.437,0.437,0,0,0-.041-0.248v0.372Zm2.884-.372c-0.1.141-.27,0.189-0.371,0.331h0.288A0.554,0.554,0,0,0,28.054,22.273Zm-2.76.083a0.21,0.21,0,0,1,.041.124H25.294V22.355Zm3.378,0h0.082V22.4H28.713C28.684,22.4,28.633,22.4,28.672,22.355Zm-0.124.083H28.63l-0.041.083-0.124.041Zm11.04,0.207a0.644,0.644,0,0,0,.041.331,1.418,1.418,0,0,1,.041-0.331H39.588Zm-12.152.62h0.247a1.634,1.634,0,0,0-.041-0.5,0.753,0.753,0,0,1-.247.041,0.251,0.251,0,0,1-.082.083C27.342,23.081,27.388,23.064,27.436,23.265Zm-1.607-.413a0.537,0.537,0,0,0,.041.289A0.536,0.536,0,0,0,25.829,22.851Zm32.544,0.289h0.082v0.041A0.141,0.141,0,0,1,58.373,23.141Zm-30.937.165,0.082,0.744,0.124,0.041v0.041h0.041V23.306H27.436Zm5.191,0c0,0.083-.065.032,0,0.083-0.009.058,0.041,0.041,0.041,0.041C32.718,23.379,32.626,23.306,32.626,23.306Zm28.136,0.041h0.082c0,0.287,0,.333,0,0.62H60.8V23.926A5.251,5.251,0,0,1,60.762,23.347Zm-4.408.124a0.2,0.2,0,0,1,.124.041c-0.029.042-.053,0.165-0.082,0.207A0.7,0.7,0,0,0,56.354,23.471Zm4.943,0a0.166,0.166,0,0,1,0,.207V23.471Zm-58.95.041a0.347,0.347,0,0,0,.041.207A0.347,0.347,0,0,0,2.348,23.512Zm77.075,0-0.041.248h0.082A0.437,0.437,0,0,0,79.423,23.512Zm-54.995.041h0.082V23.6H24.428V23.554Zm30.937,0h0.082l-0.041.124H55.366V23.554Zm-2.678.083a1.26,1.26,0,0,0,.041.289h0.288V23.636H52.688ZM20.474,23.8h0.082v0.041A0.142,0.142,0,0,1,20.474,23.8Zm3.955,0a2.08,2.08,0,0,1,0,.331h0.165V23.8H24.428Zm0.247,0v0.331l0.329-.041V23.8H24.676Zm54.459,0.909h0.247a5.321,5.321,0,0,0,.082-0.62,0.2,0.2,0,0,1-.124-0.041h0.124V23.8H79.382v0.041a1.7,1.7,0,0,0-.206.7c-0.082,0-.012-0.042-0.082,0A0.278,0.278,0,0,1,79.135,24.711Zm-58.744-.868h0.082v0.041A0.142,0.142,0,0,1,20.391,23.843Zm36.087,0a0.2,0.2,0,0,0,.041.124A0.2,0.2,0,0,0,56.478,23.843Zm5.273,0v0.083h0.041A0.142,0.142,0,0,0,61.751,23.843Zm-41.565.083h0.082v0.041H20.185V23.926Zm-0.082.041h0.082v0.041H20.1V23.967Zm11.905,0c-0.016.094-.038,0.045,0,0.124a2.239,2.239,0,0,0,.865.041V24.091A1.4,1.4,0,0,0,32.008,23.967Zm1.936,0.124V23.967h-0.7V24.05h0.082A1.487,1.487,0,0,0,33.944,24.091Zm5.355-.124c-0.134.034-.063-0.02-0.124,0.083a0.149,0.149,0,0,1,.041.083H39.3V23.967Zm13.553,0.207h0.165V23.967H52.812V24.05A0.211,0.211,0,0,1,52.853,24.174Zm-15.777-.165a0.149,0.149,0,0,0,.082.041A0.148,0.148,0,0,0,37.075,24.008Zm2.266,0v0.207h0.041V24.132a0.212,0.212,0,0,0,.041-0.124H39.341Zm13.388,0a0.269,0.269,0,0,0,.041.165A0.269,0.269,0,0,0,52.729,24.008ZM19.9,24.05h0.082v0.041A0.142,0.142,0,0,1,19.9,24.05Zm15.9,0a1.626,1.626,0,0,0,.906,0H35.8Zm-15.983.041H19.9v0.041A0.141,0.141,0,0,1,19.815,24.091Zm14.665,0a0.277,0.277,0,0,0,.288,0H34.48Zm0.33,0a0.83,0.83,0,0,0,.577,0H34.81ZM36.952,24.3H37.2V24.256a0.279,0.279,0,0,1-.041-0.165H36.993A0.649,0.649,0,0,0,36.952,24.3Zm-17.219-.165h0.082v0.041A0.141,0.141,0,0,1,19.732,24.132Zm7.827,0a0.7,0.7,0,0,0,.041.248h0.082A0.226,0.226,0,0,0,27.559,24.132Zm5.685,0a1.116,1.116,0,0,0,.7,0h-0.7Zm2.224,0.041a0.2,0.2,0,0,1-.041.124V24.174H35.3v0.165a0.465,0.465,0,0,1,.206,0c0.028-.032.054-0.092,0.082-0.124,0.034,0.316.287,0.221,0.7,0.207v0.041H36v0.124h0.742V24.422H36.54a0.2,0.2,0,0,1-.041.124c-0.031-.3-0.181-0.222-0.577-0.207V24.3H36.5V24.132Zm1.071-.041V24.3H36.91V24.132H36.54Zm-11.946.083H24.428v0.207h0.577V24.174H24.676a1.039,1.039,0,0,1-.082.207V24.215Zm0.742-.041v0.248h0.082V24.174H25.335Zm0.124,0v0.248a0.2,0.2,0,0,0,.124-0.041,0.28,0.28,0,0,0,.041-0.165,0.117,0.117,0,0,1-.041-0.041H25.458Zm6.55,0a1.317,1.317,0,0,0,.783,0H32.008Zm2.389,0v0.165h0.165a0.157,0.157,0,0,1,.082-0.124V24.174H34.4Zm4.779,0c0.071,0.036.053,0.037,0.124,0H39.176Zm-19.65.041h0.082v0.041A0.141,0.141,0,0,1,19.526,24.215Zm1.936,0v0.248h0.659V24.215H21.462Zm0.7,0v0.248h0.082V24.215H22.163Zm0.124,0v0.248a5.358,5.358,0,0,0,1.359-.124h-0.33V24.215h-1.03Zm1.442,0V24.3h0.082V24.215H23.728Zm0.124,0V24.3h0.082V24.215H23.852Zm0.124,0a0.54,0.54,0,0,1,0,.207h0.082a0.593,0.593,0,0,1,.041-0.207H23.975Zm0.165,0v0.207H24.3V24.215H24.14Zm1.112,0a0.348,0.348,0,0,0,.041.207A0.347,0.347,0,0,0,25.252,24.215Zm6.509,0a0.437,0.437,0,0,0,.041.248A0.437,0.437,0,0,0,31.761,24.215Zm2.554,0.165a0.2,0.2,0,0,1-.123-0.041h0.123V24.215H34.068V24.3a1.362,1.362,0,0,1,.165.331h0.082V24.38Zm18.538-.165a0.12,0.12,0,0,0,.165,0H52.853Zm-33.409.041h0.082V24.3H19.444V24.256Zm1.4,0V24.5a0.748,0.748,0,0,1,.371.041,0.747,0.747,0,0,0-.371.041,0.486,0.486,0,0,1,.082.207h0.494V24.256H20.845Zm2.554,0c0.071,0.036.053,0.037,0.123,0H23.4Zm0.165,0c0.071,0.036.053,0.037,0.124,0H23.563Zm15.572,0.165H39.3V24.256a0.2,0.2,0,0,0-.124.041H39.135v0.124Zm-7.25-.124V24.38h0.041A0.142,0.142,0,0,0,31.885,24.3Zm0.124,0V24.5a2.221,2.221,0,0,0,.865-0.041,1.472,1.472,0,0,1-.618-0.041h0.618V24.3H32.008Zm1.236,0V24.38h0.7V24.3h-0.7Zm41.277,0.124A0.2,0.2,0,0,0,74.48,24.3a0.147,0.147,0,0,1-.082.041v0.083h0.124Zm0.041-.124L74.6,24.587h0.165A0.833,0.833,0,0,1,74.81,24.3H74.562Zm0.412,0.041a0.408,0.408,0,0,0,.082.331c-0.068.064-.056-0.031-0.082,0.083h0.165a0.268,0.268,0,0,0-.124-0.207h0.124V24.3H75.1A0.209,0.209,0,0,1,74.974,24.339Zm-55.736,0H19.32V24.38A0.141,0.141,0,0,1,19.238,24.339Zm4.49,0v0.083h0.082V24.339H23.728Zm0.124,0v0.083h0.082V24.339H23.852Zm12.688,0a0.165,0.165,0,0,0,.206,0H36.54Zm38.352,0a0.536,0.536,0,0,0,.041.289A0.537,0.537,0,0,0,74.892,24.339Zm-55.736.041h0.082v0.041A0.142,0.142,0,0,1,19.156,24.38Zm15.242,0v0.083c0.148-.017.1,0.019,0.165-0.083H34.4Zm0.906,0a0.12,0.12,0,0,0,.165,0H35.3Zm39.506,0a0.346,0.346,0,0,0,.041.207A0.346,0.346,0,0,0,74.81,24.38ZM27.6,24.422a1.793,1.793,0,0,0,.124.661h0.041V24.793c-0.041-.067-0.04-0.264-0.082-0.331A0.148,0.148,0,0,0,27.6,24.422Zm5.644,0V24.5h0.741V24.463a0.116,0.116,0,0,1-.041-0.041h-0.7Zm4.2,0c0.034,0.134-.02.063,0.082,0.124V24.422H37.446Zm36.416,0a2.25,2.25,0,0,1-.535.083v0.041h0.247c0.139-.084.415-0.031,0.536-0.124H73.862Zm2.637,0a0.265,0.265,0,0,1,.165.041A0.266,0.266,0,0,1,76.5,24.422Zm-57.549.041h0.082V24.5A0.141,0.141,0,0,1,18.95,24.463Zm5.808,0.248V24.463H24.511a0.649,0.649,0,0,0-.041.207h0.041C24.624,24.615,24.61,24.678,24.758,24.711Zm0.041-.248v0.248h0.247V24.463H24.8Zm0.453,0.165H25.088v0.083h0.206a0.437,0.437,0,0,0-.041-0.248v0.165Zm0.082-.165v0.248h0.082V24.463H25.335Zm0.124,0v0.248h0.124a0.7,0.7,0,0,1,.041-0.248H25.458Zm9.846,0v0.124h0.165V24.463H35.3Zm0.206,0a0.2,0.2,0,0,0,.041.124V24.463H35.51Zm0.082,0v0.083l0.165-.041V24.463H35.592Zm0.206,0a0.3,0.3,0,0,0,.165.083V24.463H35.8Zm3.3,0a0.165,0.165,0,0,0,.206,0H39.094Zm35.3,0.289h0.124a0.184,0.184,0,0,0-.082-0.165c0.072-.069.065,0.021,0.082-0.124H74.48a0.148,0.148,0,0,1-.082.041v0.248Zm3.914-.289h0.082V24.5A0.14,0.14,0,0,1,78.311,24.463ZM18.867,24.5H18.95v0.041A0.141,0.141,0,0,1,18.867,24.5Zm2.6,0L21.5,24.793l0.618-.041V24.5H21.462Zm0.7,0a0.411,0.411,0,0,0,.082.248V24.5H22.163Zm0.124,0v0.207a5.133,5.133,0,0,0,1.359.041V24.5H22.286Zm1.442,0v0.248h0.082V24.5H23.728Zm0.124,0c0,0.22.011,0.242,0,.413h0.082V24.5H23.852Zm0.124,0v0.372h0.082V24.835A0.521,0.521,0,0,0,23.975,24.5Zm0.165,0v0.124a0.119,0.119,0,0,0,.041-0.041,0.118,0.118,0,0,1,.041.041,0.212,0.212,0,0,0,.041-0.124H24.14Zm10.257,0v0.083H34.48V24.5H34.4Zm3.254,0c0.071,0.036.053,0.037,0.124,0H37.652Zm0.742,0a0.12,0.12,0,0,0,.165,0H38.393Zm0.453,0.124H38.97V24.5a0.118,0.118,0,0,0-.041.041,0.118,0.118,0,0,1-.041-0.041A0.212,0.212,0,0,0,38.847,24.628ZM72.915,24.5a3.163,3.163,0,0,1-.494.083v0.083h0.124c0.169-.123.57-0.044,0.742-0.165H72.915Zm0.865,0.041v0.165a0.434,0.434,0,0,1,.247.041c-0.161,0-.185-0.021-0.247.083,0.112,0.072.017,0,0,.165,0.259,0.009.306,0.044,0.33-.165a0.266,0.266,0,0,1-.165-0.041h0.165V24.5H74.068A0.544,0.544,0,0,1,73.78,24.546ZM74.15,24.5v0.289a0.2,0.2,0,0,1,.123.041H74.15v0.207h0.041A0.277,0.277,0,0,1,74.356,25V24.5H74.15Zm4.408,0L78.6,24.793h0.082V24.752a0.45,0.45,0,0,0,.041-0.248H78.641a0.2,0.2,0,0,1-.041.124A0.2,0.2,0,0,0,78.558,24.5Zm-59.773.041h0.082v0.041A0.141,0.141,0,0,1,18.785,24.546Zm13.306,0.041v0.124a1.472,1.472,0,0,1,.618.041,1.346,1.346,0,0,0-.577.041h0.742V24.546A6.087,6.087,0,0,0,32.091,24.587Zm1.154-.041v0.124a0.983,0.983,0,0,1,.453.041,0.863,0.863,0,0,0-.412.041h0.082a1.364,1.364,0,0,0,.577.041l0.041-.124a0.266,0.266,0,0,1-.165-0.041c0.148-.017.1,0.02,0.165-0.083H33.244Zm0.865,0v0.083H34.15V24.546H34.109Zm3.831,0.124H38.1c-0.034-.134.02-0.063-0.082-0.124-0.04.01-.016,0.032-0.041,0A0.21,0.21,0,0,0,37.94,24.669Zm1.071-.124v0.083H39.3V24.546H39.011Zm34.315,0.041v0.165a0.433,0.433,0,0,1,.247.041H73.327c0.022,0.205.081,0.066,0,.207h0.082a0.537,0.537,0,0,1,.329,0c0-.237-0.007-0.248,0-0.454H73.656A0.65,0.65,0,0,1,73.327,24.587Zm-59.32,0a0.149,0.149,0,0,1,.041.083H14.006V24.587Zm17.8,0a0.437,0.437,0,0,0,.041.248A0.437,0.437,0,0,0,31.8,24.587Zm5.644,0a0.149,0.149,0,0,0,.082.041A0.148,0.148,0,0,0,37.446,24.587Zm0.865,0a0.342,0.342,0,0,0,.33,0h-0.33Zm0.371,0a0.149,0.149,0,0,0,.082.041A0.148,0.148,0,0,0,38.682,24.587Zm33.9,0.083v0.248h0.041a0.557,0.557,0,0,1,.577.041,0.684,0.684,0,0,0,.082-0.372H73.244A1.833,1.833,0,0,1,72.585,24.669Zm3.708-.083c0.068,0.046.044,0.073,0.082,0H76.293Zm-57.714.041h0.082v0.041A0.14,0.14,0,0,1,18.579,24.628Zm16.643,0c-0.049.032-.2,0.05-0.247,0.083a0.581,0.581,0,0,0,.494-0.083H35.221Zm0.741,0v0.083H36A0.142,0.142,0,0,0,35.963,24.628Zm0.082,0a0.653,0.653,0,0,0,.494,0H36.045Zm0.536,0a0.12,0.12,0,0,0,.165,0H36.581Zm38.023,0v0.207h0.082a0.727,0.727,0,0,1,.082-0.207H74.6Zm0.206,0v0.083h0.041A0.142,0.142,0,0,0,74.81,24.628ZM18.5,24.669h0.082v0.041A0.14,0.14,0,0,1,18.5,24.669Zm15.613,0v0.083h0.082V24.669H34.109Zm0.165,0v0.083h0.041V24.669H34.274Zm0.124,0v0.083H34.48V24.669H34.4Zm0.165,0v0.083a0.739,0.739,0,0,0,.371-0.083H34.562ZM72.42,24.711a0.524,0.524,0,0,0,.041.165H72.5V24.835a0.212,0.212,0,0,0,.041-0.124H72.42Zm-54.13.041h0.082v0.041A0.142,0.142,0,0,1,18.29,24.752Zm6.426,0v0.083a0.637,0.637,0,0,0,.329-0.041A1.4,1.4,0,0,1,24.717,24.752Zm7.291,0v0.083h0.041A0.141,0.141,0,0,0,32.008,24.752Zm-13.8.041H18.29v0.041A0.142,0.142,0,0,1,18.208,24.793Zm5.52,0c0.034,0.134-.02.063,0.082,0.124V24.793H23.728Zm1.359,0.248c0.134-.034.063,0.02,0.124-0.083a0.354,0.354,0,0,0-.124-0.165A0.945,0.945,0,0,1,25.088,25.041Zm0.371-.248v0.248h0.082V24.835a0.117,0.117,0,0,0,.041-0.041H25.458Zm48.939,0v0.124h0.124V24.793H74.4Zm-53.429.041a0.6,0.6,0,0,1-.041.207c-0.036-.031-0.046-0.052-0.082-0.083v0.165h0.082L20.968,25a0.513,0.513,0,0,0,.453.124V24.835H20.968Zm0.535,0-0.041.248h0.082a1.28,1.28,0,0,0,.659,0l0.041-.248H22.2v0.041c-0.028.032-.054,0.092-0.082,0.124V24.835H21.5Zm0.824,0-0.041.248h0.041a5.84,5.84,0,0,1,1.359-.041V24.876A5.138,5.138,0,0,0,22.328,24.835Zm54.624,0v0.124h0.206V24.835H76.952ZM18,24.876h0.082v0.041A0.141,0.141,0,0,1,18,24.876Zm7,0a0.268,0.268,0,0,0,.041.165A0.267,0.267,0,0,0,25.005,24.876Zm-7.085.041H18v0.041A0.141,0.141,0,0,1,17.92,24.917Zm-0.082.041H17.92V25A0.141,0.141,0,0,1,17.837,24.959Zm4.614,0h0.082V25A0.141,0.141,0,0,1,22.451,24.959Zm2.884,0v0.083h0.082V24.959H25.335Zm49.063,0c0.071,0.036.053,0.037,0.124,0H74.4ZM23.975,25a0.148,0.148,0,0,0,.082.041A0.149,0.149,0,0,0,23.975,25Zm0.741,0a0.148,0.148,0,0,0,.082.041A0.149,0.149,0,0,0,24.717,25Zm0.124,0c0.071,0.036.053,0.037,0.124,0H24.84Zm-7.209.041h0.082v0.041H17.631V25.041Zm48.939,0,0.041,0.124h0.041A0.157,0.157,0,0,0,66.571,25.041Zm-49.022.041h0.082v0.041A0.141,0.141,0,0,1,17.549,25.083Zm-0.206.083h0.082v0.041A0.142,0.142,0,0,1,17.343,25.165Zm-0.082.041h0.082v0.041A0.14,0.14,0,0,1,17.261,25.207Zm50.134,0a0.345,0.345,0,0,1,.206.041A0.343,0.343,0,0,1,67.394,25.207Zm0.659,0a0.433,0.433,0,0,0-.082.248h0.041a0.318,0.318,0,0,0,.124-0.124,0.2,0.2,0,0,1-.124-0.041c0.134-.034.063,0.02,0.124-0.083H68.054Zm0.206,0v0.207H68.3V25.372C68.35,25.272,68.338,25.281,68.26,25.207Zm-50.34.041,0.165,0.041a0.148,0.148,0,0,1-.082.041v0.083A191.165,191.165,0,0,1,17.92,25.248Zm48.074,0v0.083h0.041A0.142,0.142,0,0,0,65.994,25.248Zm-48.939.041h0.082v0.041A0.142,0.142,0,0,1,17.055,25.289Zm51.535,0c0.008,0.058-.034-0.017-0.041.041-0.079.032,0.082,0.041,0.082,0.041V25.331h0.041A0.148,0.148,0,0,0,68.589,25.289Zm1.236,0a0.149,0.149,0,0,0,.082.041A0.149,0.149,0,0,0,69.825,25.289Zm-55.16.083h0.082v0.041H14.665V25.372ZM27.724,25.62h0.124l-0.041-.248a0.117,0.117,0,0,0-.041.041A0.358,0.358,0,0,0,27.724,25.62Zm-9.8-.207a0.121,0.121,0,0,1,0,.165V25.413Zm51.864,0c-0.032.028-.092,0.054-0.124,0.083a0.27,0.27,0,0,1,.206.083C69.939,25.488,69.854,25.469,69.784,25.413Zm0.742,0a0.268,0.268,0,0,0,.041.165A0.268,0.268,0,0,0,70.525,25.413Zm-5.52.041v0.083h0.041V25.455H65.005Zm-45.85.7a2.182,2.182,0,0,0-.082-0.331,1.4,1.4,0,0,0-.659-0.331c-0.232.321-.719,0.42-0.948,0.744h0.288A5.832,5.832,0,0,1,19.156,26.157Zm46.385-.62a0.266,0.266,0,0,1,.165.041A0.266,0.266,0,0,1,65.541,25.537Zm4.655,0c0.071,0.036.053,0.037,0.124,0H70.2Zm-59.979.041a0.391,0.391,0,0,0,.494.041V25.579H10.216Zm55.572,0v0.248H65.87l0.041-.207Zm-34.15.041V26.9H31.72V26.446C31.608,26.26,31.752,25.8,31.638,25.62Zm33.368,0a0.2,0.2,0,0,0,.041.124V25.62H65.005Zm1.03,0.041-0.041.124H66.2V25.744A0.553,0.553,0,0,1,66.035,25.661Zm-0.989.372V25.785H65.005v0.041a0.412,0.412,0,0,0-.123.207h0.165Zm-45.19.124a0.268,0.268,0,0,0,.041.165A0.267,0.267,0,0,0,19.856,26.157Zm7.951,0V26.24h0.041V26.157H27.806Zm-9.269.083v0.124h0.618V26.2H19.073A1.238,1.238,0,0,1,18.538,26.24Zm1.277,0.083V26.2H19.2v0.083h0.288A0.65,0.65,0,0,0,19.815,26.322Zm-1.442.041c-0.034-.134.02-0.063-0.082-0.124a6.979,6.979,0,0,1-1.071.124v0.041H18A0.762,0.762,0,0,1,18.373,26.364Zm0.041-.124c0.034,0.134-.02.063,0.082,0.124V26.24H18.414Zm-2.884.083v0.165h0.041a1,1,0,0,1,.453-0.041V26.322H15.53Zm0.535,0.124a1.883,1.883,0,0,0,.906-0.124H16.148c-0.046.069,0,.026-0.082,0v0.124Zm11.864-.083v0.083h0.041V26.364H27.93Zm3.543,0.041a0.279,0.279,0,0,1,0,.289V26.405Zm-3.625.041v0.083h0.041V26.446H27.848Zm2.636,0.083a0.991,0.991,0,0,0,.041.455A0.991,0.991,0,0,0,30.484,26.529Zm-2.389.165c0.009,0.058-.034-0.017-0.041.041-0.079.032,0.082,0.041,0.082,0.041A0.141,0.141,0,0,0,28.095,26.694Zm0.165,0a0.836,0.836,0,0,0,.041.289h0.041A0.29,0.29,0,0,0,28.26,26.694Zm3.172,0a0.219,0.219,0,0,1,0,.248V26.694Zm-21.5.083h0.165v0.041a1.135,1.135,0,0,0-.124.331A1.136,1.136,0,0,0,9.928,26.777Zm4.161,0a0.729,0.729,0,0,0,.124.289h0.041a0.7,0.7,0,0,1,.041-0.248h0.041v0.248h0.412V26.777H14.089Zm-9.928.041a0.149,0.149,0,0,0,.082.041A0.148,0.148,0,0,0,4.161,26.818Zm0.124,0a0.165,0.165,0,0,0,.206,0H4.284Zm23.769,0,0.041,0.124h0.041V26.818H28.054Zm0.329,0a0.268,0.268,0,0,0,.041.165A0.267,0.267,0,0,0,28.383,26.818Zm-25.829.95H2.719a2.456,2.456,0,0,0-.206-0.909Zm0.371-.909a2.427,2.427,0,0,0-.041.661H2.925A1.056,1.056,0,0,0,2.925,26.86Zm1.813,0v0.083a3.625,3.625,0,0,0,.7-0.041V26.86h-0.7Zm0.947,0a1.115,1.115,0,0,0,.659.083V26.86H5.685Zm0.7,0v0.083H6.756V26.86H6.385Zm8.033,0a0.266,0.266,0,0,1,.165.041A0.265,0.265,0,0,1,14.418,26.86ZM3.007,26.9v0.248H3.09V26.9H3.007Zm0.124,0v0.248H3.419V26.9H3.131Zm0.33,0v0.248H3.913V26.9H3.46Zm0.494,0A0.437,0.437,0,0,0,4,27.149a0.6,0.6,0,0,1,.041-0.207c0.138,0.009.1,0.089,0.165-.041H3.955Zm0.33,0v0.083A1.033,1.033,0,0,0,4.49,26.9H4.284Zm0.453,0.083L4.779,27.4H4.985a0.256,0.256,0,0,0,.247-0.041,0.2,0.2,0,0,1-.124-0.041,0.255,0.255,0,0,0,.124-0.289H5.191V26.984H4.737Zm1.442,0.579H6.385A0.267,0.267,0,0,1,6.426,27.4v0.165H6.88V27.438A0.433,0.433,0,0,1,6.632,27.4H6.88V27.273H6.756V26.984H6.385a0.389,0.389,0,0,1-.041.331,2.094,2.094,0,0,1,0-.331H5.932a0.439,0.439,0,0,0-.082.207,1.7,1.7,0,0,1,.247.372,0.452,0.452,0,0,1,.082-0.124v0.124Zm13.594-.124c0.241-.01.168-0.07,0.288,0l-0.041-.124-0.082.041V27.314a0.489,0.489,0,0,1-.165-0.331H19.732v0.248A0.358,0.358,0,0,1,19.773,27.438ZM4.037,27.025a0.2,0.2,0,0,0,.041.124A0.2,0.2,0,0,0,4.037,27.025Zm0.082,0a0.526,0.526,0,0,0,.041.165H4.2V27.025H4.119Zm0.165,0V27.19a0.344,0.344,0,0,1,.206.041H4.284V27.4H4.449a1.253,1.253,0,0,0,.082-0.331H4.573a0.3,0.3,0,0,0,.082.331V27.025H4.284Zm14.047,0.041v0.165a1.128,1.128,0,0,1,.247.124,0.343,0.343,0,0,0-.206.041h0.412a2.175,2.175,0,0,1,0-.331,0.886,0.886,0,0,0-.288-0.041A0.277,0.277,0,0,1,18.332,27.066Zm0.783,0.372V27.025H18.867a0.891,0.891,0,0,0-.041.289h0.041v0.041H18.826a0.21,0.21,0,0,0,.123.041A0.277,0.277,0,0,0,19.114,27.438Zm0.165-.413a0.2,0.2,0,0,0,.041.124A0.2,0.2,0,0,0,19.279,27.025Zm0.082,0c0.009,0.171,0,.193,0,0.413h0.247a0.754,0.754,0,0,1,.041-0.372,0.756,0.756,0,0,0,.041.372V27.025H19.609A1.178,1.178,0,0,1,19.362,27.025Zm8.857,0v0.083C28.285,27.058,28.269,27.09,28.218,27.025Zm2.76,0v0.124h0.247V27.025H30.978Zm-13.635.083v0.331h0.124a1.135,1.135,0,0,1,.041-0.372H17.467A0.209,0.209,0,0,1,17.343,27.107Zm0.206-.041v0.372h0.124l0.041-.372H17.549Zm0.535,0v0.083h0.041A0.141,0.141,0,0,0,18.084,27.066Zm11.7,0v0.083h0.082V27.066H29.784Zm0.124,0v0.083h0.124V27.066H29.907Zm0.288,0v0.083h0.124V27.066H30.2Zm0.577,0v0.083c0.147-.017.1,0.019,0.165-0.083H30.772Zm-16.025.289V27.107H14.336V27.19A0.474,0.474,0,0,0,14.748,27.355Zm1.03-.248a0.434,0.434,0,0,0,0,.248,0.745,0.745,0,0,0,.206.165V27.107H15.778Zm0.288,0c0,0.22.011,0.242,0,.413,0.432,0,.376-0.045.742-0.041a2.664,2.664,0,0,1,0-.372H16.066Zm0.783,0.372h0.165V27.107H16.849V27.19A1.871,1.871,0,0,1,16.849,27.479Zm0.453-.372H17.137V27.19a0.549,0.549,0,0,1,.041.289h0.041V27.438A0.489,0.489,0,0,0,17.3,27.107Zm0.783,0.083v0.083h0.041V27.19H18.084Zm1.195,0a0.347,0.347,0,0,0,.041.207A0.347,0.347,0,0,0,19.279,27.19Zm11.493,0v0.124h0.165V27.19H30.772Zm0.494,0a0.544,0.544,0,0,1-.288.041v0.083h0.288C31.283,27.22,31.3,27.269,31.267,27.19Zm-28.218.041v0.083H3.09V27.231H3.048Zm0.371,0H3.131v0.083a0.7,0.7,0,0,0,.288.124V27.231ZM3.5,27.4a0.374,0.374,0,0,0,.371-0.083,0.149,0.149,0,0,0,.041-0.083H3.46v0.041A0.211,0.211,0,0,1,3.5,27.4Zm0.453-.165v0.083H4.037V27.231H3.955Zm0.165,0a0.594,0.594,0,0,0,.041.207H4.2V27.231H4.119Zm25.623,0a0.328,0.328,0,0,1-.082.124h0.165l0.041-.124H29.743Zm0.165,0v0.083h0.206V27.231H29.907Zm0.247,0v0.083c0.148-.017.1,0.02,0.165-0.083H30.155Zm0.206,0v0.083H30.4A0.142,0.142,0,0,0,30.361,27.231Zm-2.307.041v0.083h0.123V27.273H28.054Zm0.165,0v0.083c0.148-.017.1,0.02,0.165-0.083H28.218Zm3.419,0v0.083h0.041V27.273H31.638Zm-28.63.083v0.083H3.048A0.142,0.142,0,0,0,3.007,27.355Zm11.74,0.207V27.4H14.542v0.041c0.035,0.078.019,0.03,0,.124h0.206ZM4.573,27.438a0.148,0.148,0,0,0,.082.041A0.149,0.149,0,0,0,4.573,27.438Zm0.536,0c0.071,0.036.053,0.037,0.124,0H5.108Zm-0.947.041L4.119,27.6H4.161V27.521H4.2V27.479H4.161Zm0.824,0a0.165,0.165,0,0,0,.165.083V27.521Zm0.783,0v0.083H5.808A0.142,0.142,0,0,0,5.767,27.479Zm-2.884.083v0.165H2.966A0.164,0.164,0,0,0,2.884,27.562Zm6.468,0v0.083H9.392A0.142,0.142,0,0,0,9.351,27.562ZM4.573,27.6a0.2,0.2,0,0,0,.041.124A0.2,0.2,0,0,0,4.573,27.6Zm1.565,0v0.083H6.3a0.149,0.149,0,0,1,.082-0.041V27.6H6.138Zm0.288,0a0.413,0.413,0,0,0,.371,0H6.426Zm1.03,4.3-0.041.413c0.13-.007.034,0.01,0.124,0.124A0.974,0.974,0,0,0,7.456,31.9Z" transform="translate(0 0.016)"/>
</svg>
