<?xml version="1.0" encoding="utf-8"?>
<!-- Generator: Adobe Illustrator 16.0.0, SVG Export Plug-In . SVG Version: 6.00 Build 0)  -->
<!DOCTYPE svg PUBLIC "-//W3C//DTD SVG 1.1//EN" "http://www.w3.org/Graphics/SVG/1.1/DTD/svg11.dtd">
<svg version="1.1" id="Layer_1" xmlns="http://www.w3.org/2000/svg" xmlns:xlink="http://www.w3.org/1999/xlink" x="0px" y="0px"
	 width="40px" height="40px" viewBox="0 0 40 40" enable-background="new 0 0 40 40" xml:space="preserve">
<path id="germ_pzsflk40_sturer_emil_ico" fill="#FFFFFF" d="M14.22,14.319l0.586,0.023c-0.021-0.152-0.021-0.306,0-0.458
	c0.042-0.025,0.079-0.057,0.113-0.092c0.073,0,0.316,0.023,0.316,0.023c0.063-0.042,0.117-0.096,0.158-0.16
	c0.051,0.058,0.123,0.091,0.2,0.092l-0.068,0.321h-0.111v0.344l1.037,0.088c0.092-0.046,0.191-0.077,0.293-0.092
	c0.087,0.17,0.136,0.2,0.406,0.183c0.173,0.114,0.537,0.066,0.721,0.183c0.176,0.196,0.373,0.373,0.586,0.527
	c-0.008,0.038-0.008,0.077,0,0.114c0.245,0.052,0.497,0.06,0.744,0.023c0.546,0,0.914,0.071,1.486,0.069
	c0.145,0.289,0.432,0.206,0.834,0.206h2.164c0.339,0.119,0.701,0.158,1.059,0.114l3.042,0.023l8.834,0.115
	c0.056-0.013,0.187-0.057,0.225-0.069h0.563c0.035-0.036,0.085-0.053,0.135-0.046c0.037,0.017,0.074,0.033,0.113,0.046
	c0.262-0.101,0.517-0.215,0.766-0.344c0.127-0.012,0.256,0.021,0.361,0.092h0.924c0.088,0.089,0.164,0.19,0.225,0.3
	c0.121,0.381,0.035,0.797-0.225,1.1h-0.946c-0.298,0.104-0.627,0.052-0.879-0.137c-0.069-0.031-0.175-0.114-0.248-0.137H36.8
	c-0.854-0.087-1.714-0.095-2.569-0.023l-10.275,0.114c-1.038,0.136-2.087,0.174-3.132,0.115c-0.266,0.232-0.632,0.311-0.969,0.206
	c-0.021,0.024-0.044,0.047-0.068,0.069c0.032,0.019,0.05,0.055,0.045,0.092c-0.058,0.02-0.096,0.076-0.09,0.137
	c0.063,0.031,0.055,0.032,0.068,0.115h-0.046c-0.02,0.015-0.043,0.023-0.068,0.023c-0.146,0.325-0.361,0.614-0.631,0.848
	c-0.045,0.123-0.162,0.206-0.293,0.206c-0.042,0.021-0.089,0.029-0.135,0.023c-0.031-0.131-0.084-0.255-0.158-0.367
	c-0.319,0.136-0.651,0.236-0.992,0.3v0.022c0.099,0.198,0.13,0.424,0.09,0.642c0.041,0.017,0.08,0.04,0.113,0.069
	c-0.079,0.047-0.116,0.141-0.09,0.229c0.051,0.017,0.104,0.024,0.158,0.023v-0.207h0.293v0.206h0.383
	c0.038-0.134,0.053-0.273,0.045-0.412h0.654c0.072-0.037,0.017-0.114,0.113-0.093c0.038,0.023,0.068,0.055,0.09,0.093l0.631-0.023
	v0.367c0.185,0.044,0.374,0.06,0.563,0.046c0.031-0.02,0.126-0.025,0.158-0.046c0.183-0.275,0.341-0.567,0.473-0.871
	c0.032-0.123,0.086-0.239,0.158-0.344h0.248c0.195-0.106,0.428-0.115,0.631-0.022l1.779,0.022c0.021,0.185,0.063,0.346,0.068,0.55
	h0.045c0.014-0.077,0.08-0.134,0.158-0.137c0.079,0.04,0.162,0.07,0.248,0.092l0.045,0.321c-0.055,0.024-0.221,0.058-0.27,0.092
	c-0.025,0.073-0.033,0.151-0.022,0.229h-0.114c0,0.024,0.008,0.049,0.022,0.068c0.129,0.05,0.269,0.066,0.405,0.046
	c-0.006-0.11,0.078-0.205,0.188-0.212c0.021-0.001,0.04,0.001,0.06,0.006c0,0.069,0.008,0.139,0.023,0.206h0.158
	c0.133,0.034,0.271,0.042,0.406,0.023l0.607,0.022c0.09-0.063,0.189-0.108,0.294-0.137c-0.004-0.109,0.011-0.218,0.045-0.321h-0.27
	c-0.026,0.044,0,0.028-0.045,0.023c-0.013-0.013-0.021-0.028-0.023-0.046c0.072-0.051,0.045-0.193,0.113-0.252
	c0.292-0.102,0.608-0.102,0.899,0l0.068,0.138c-0.078-0.025-0.163-0.008-0.225,0.046c0.047,0.173,0.047,0.354,0,0.527
	c0.072,0.05,0.162,0.066,0.248,0.046c0.307,0.056,0.621,0.048,0.924-0.023c0.219,0.329,0.546,0.572,0.924,0.688
	c-0.003,0.03-0.003,0.062,0,0.092c-0.064,0.106-0.171,0.182-0.293,0.206c-0.083-0.082-0.217-0.08-0.299,0.002
	c-0.006,0.007-0.012,0.014-0.018,0.021c0.019,0.012,0.034,0.027,0.045,0.045c-0.081,0.014-0.145,0.078-0.158,0.16
	c0.094,0.063,0.205,0.141,0.293,0.207c-0.021,0.059-0.021,0.123,0,0.183l0.226-0.069l0.022,0.184
	c-0.109,0.01-0.059,0.027-0.112,0.068c-0.034,0.025-0.022-0.036-0.022-0.046L28.574,21.4c0.004,0.047,0.012,0.093,0.023,0.138
	c0.034,0.069,0.18,0.071,0.157,0.206c-0.032,0.057-0.055,0.119-0.067,0.183c0.075-0.005,0.151,0.003,0.225,0.023
	c-0.013,0.052-0.021,0.106-0.023,0.159l-0.225-0.022c0.002,0.11,0.025,0.22,0.068,0.321c-0.069,0.063-0.123,0.142-0.158,0.229
	c0.076,0.002,0.148,0.035,0.199,0.092c-0.037,0.041-0.067,0.087-0.09,0.138c-0.078-0.041-0.162-0.071-0.248-0.093
	c0.037,0.116,0.021,0.242-0.045,0.345h-0.154c-0.012,0.024-0.027,0.047-0.045,0.069c0.006,0.009,0.014,0.017,0.023,0.022
	c0.037,0.053,0.084,0.099,0.135,0.138c-0.006,0.009-0.014,0.017-0.022,0.022c-0.029,0.039-0.062,0.053-0.091,0.092
	c-0.069-0.06-0.145-0.113-0.225-0.16c-0.006,0.091-0.037,0.179-0.09,0.252c-0.086,0.022-0.168,0.054-0.248,0.093
	c0.061,0.053,0.101,0.126,0.113,0.205c-0.043,0.027-0.088,0.051-0.135,0.069c-0.024-0.063-0.055-0.125-0.09-0.183
	c-0.174,0.061-0.329,0.163-0.451,0.3c0.056,0.044,0.088,0.111,0.09,0.183c-0.048,0.018-0.093,0.041-0.135,0.069
	c-0.013-0.092-0.072-0.171-0.158-0.206l0.023,0.046h-0.024c-0.109,0.101-0.279,0.144-0.384,0.252
	c0.056,0.055,0.088,0.128,0.091,0.206c-0.048,0.006-0.095,0.021-0.136,0.046c-0.016-0.075-0.073-0.116-0.067-0.137v-0.051H26.32
	c-0.145,0.057-0.281,0.134-0.405,0.229c0.04,0.056,0.071,0.117,0.09,0.183c-0.049,0.024-0.104,0.032-0.157,0.023
	c-0.076-0.087-0.011-0.134-0.136-0.16c-0.118,0.094-0.257,0.157-0.405,0.184c0.006,0.08,0.029,0.158,0.067,0.229H25.33
	c-0.039,0.029-0.086,0.045-0.135,0.046c-0.007-0.069-0.022-0.14-0.045-0.206H25.1c-0.176,0.029-0.34,0.109-0.473,0.229
	c0.021,0.05,0.029,0.105,0.023,0.16l-0.158,0.022c-0.003-0.068-0.011-0.138-0.023-0.206c-0.185-0.01-0.369,0.021-0.541,0.093
	c0.037,0.062,0.045,0.137,0.022,0.205H23.8c0.007-0.062-0.001-0.124-0.022-0.183c-0.17-0.041-0.346-0.049-0.519-0.022V25.5H23.1
	c0-0.069,0.008-0.139,0.022-0.206c-0.171-0.031-0.345-0.039-0.519-0.022L22.58,25.5h-0.135c-0.007-0.076-0.007-0.152,0-0.229h-0.519
	v0.205H21.77v-0.205h-0.519c0.004,0.068,0.004,0.137,0,0.205h-0.158v-0.022c0.022-0.06,0.022-0.124,0-0.183h-0.518v0.205h-0.158
	c0-0.062,0.008-0.123,0.023-0.183c-0.171-0.031-0.345-0.039-0.518-0.022v0.205h-0.159c-0.004-0.068-0.004-0.137,0-0.205h-0.518
	v0.205h-0.158v-0.022c0.01-0.061,0.01-0.122,0-0.183h-0.518c0.007,0.068,0.007,0.137,0,0.205h-0.158v-0.022
	c0.022-0.052,0.022-0.109,0-0.16c-0.164-0.04-0.333-0.048-0.5-0.022v0.045c-0.022,0.051-0.03,0.106-0.023,0.16h-0.153
	c0.006-0.061,0.006-0.121,0-0.183c-0.164-0.04-0.333-0.048-0.5-0.022v0.205h-0.153c-0.004-0.068-0.004-0.137,0-0.205h-0.519v0.205
	h-0.157v-0.022c0.016-0.06,0.016-0.123,0-0.183h-0.519c0.013,0.067,0.013,0.138,0,0.205H15.73c0.018-0.06,0.018-0.123,0-0.183
	c-0.164-0.04-0.333-0.048-0.5-0.022v0.045c-0.022,0.051-0.03,0.106-0.023,0.16h-0.153v-0.022c0.013-0.053,0.021-0.106,0.023-0.16
	c-0.171-0.031-0.345-0.039-0.518-0.022v0.205H14.4c-0.004-0.068-0.004-0.137,0-0.205h-0.518v0.205h-0.158v-0.022
	c0.016-0.06,0.016-0.123,0-0.183h-0.5v0.045c0,0.047-0.008,0.094-0.023,0.138c-0.042,0.021-0.089,0.028-0.135,0.022
	c0-0.062-0.007-0.123-0.022-0.183c-0.164-0.04-0.333-0.048-0.5-0.022l-0.022,0.205h-0.15v-0.022c0.02-0.059,0.028-0.121,0.023-0.183
	h-0.519v0.205h-0.158v-0.205H11.2v0.205h-0.158v-0.022c0.021-0.06,0.021-0.124,0-0.183h-0.5v0.183
	c-0.051,0.017-0.104,0.024-0.158,0.022v-0.183c-0.17-0.031-0.345-0.039-0.518-0.022v0.205H9.69v-0.022
	c0.02-0.059,0.028-0.121,0.023-0.183l-0.541-0.047v0.069c0.004,0.054,0.004,0.106,0,0.16c-0.053-0.001-0.106-0.009-0.158-0.022
	v-0.16c0.012-0.013,0.02-0.029,0.023-0.047L8.5,25.156v0.115c-0.019,0.034-0.027,0.074-0.023,0.113l-0.158-0.022v-0.046
	c0.024-0.057,0.033-0.121,0.023-0.183l-0.5-0.069L7.8,25.271c-0.052-0.014-0.104-0.021-0.158-0.023v-0.023
	C7.67,25.16,7.685,25.09,7.687,25.02C7.5,25,7.366,24.936,7.166,24.927l-0.023,0.206H7.1c-0.035-0.02-0.074-0.027-0.113-0.023
	L7.031,24.9l-0.068-0.023c-0.146-0.052-0.297-0.091-0.451-0.115c0,0.079-0.015,0.156-0.045,0.229
	c-0.043-0.016-0.089-0.023-0.135-0.023c0.013-0.067,0.021-0.137,0.023-0.206c-0.154-0.08-0.326-0.12-0.5-0.113L5.81,24.854H5.792
	c-0.042-0.023-0.087-0.039-0.135-0.045V24.79c0.04-0.061,0.055-0.134,0.043-0.206c-0.169-0.029-0.335-0.068-0.5-0.115
	c0.011,0.08-0.024,0.16-0.09,0.206c-0.045-0.019-0.083-0.05-0.11-0.091c0.029-0.057,0.045-0.12,0.048-0.184H5
	c-0.137-0.087-0.291-0.142-0.451-0.16v0.068c-0.041,0.029-0.072,0.068-0.09,0.115h-0.02V24.4c-0.056-0.016-0.099-0.06-0.113-0.115
	c0.051-0.043,0.09-0.098,0.113-0.16c-0.143-0.104-0.293-0.195-0.451-0.275c-0.035,0.055-0.093,0.089-0.158,0.092
	c-0.033-0.035-0.063-0.073-0.09-0.113V23.8c0.072-0.015,0.132-0.064,0.16-0.133c-0.065-0.17-0.184-0.314-0.338-0.412
	C3.513,23.283,3.457,23.299,3.4,23.3c0-0.062-0.008-0.123-0.023-0.183c0.067-0.003,0.134-0.011,0.2-0.023l-0.068-0.55L3.29,22.521
	v-0.045c0.015-0.021,0.03-0.072,0.045-0.093c0.042-0.021,0.089-0.028,0.135-0.022c0.039-0.019,0.012,0.035,0.068,0
	c0.019-0.037,0.034-0.076,0.045-0.115c-0.079-0.107-0.189-0.188-0.315-0.229c-0.174-0.004-0.348,0.011-0.518,0.045l0.023,0.047
	H2.749c-0.042,0.02-0.017,0.011-0.068,0v0.022H2.7c0.043,0.019-0.045,0.023-0.045,0.023v-0.023H2.637v0.023
	c0.006,0.021,0.018,0.009,0,0.022c-0.075,0.059-0.159,0.105-0.248,0.137c-0.131,0.045-0.245-0.037-0.338,0
	c0.016,0.037,0.016,0.078,0,0.114c-0.028-0.012-0.059-0.02-0.09-0.022c0.002-0.043-0.014-0.085-0.045-0.114
	c-0.019,0.021-0.042,0.036-0.068,0.046c0.001-0.047-0.006-0.094-0.023-0.138c0.065,0,0.031,0.022,0.068,0
	c0.012-0.013,0.021-0.028,0.023-0.046c-0.048-0.036-0.071-0.133-0.113-0.16h-0.5c0.004,0.107-0.028,0.213-0.09,0.3
	c-0.123,0.33-0.19,0.679-0.2,1.031H0.969c-0.202,0.025-0.406,0.025-0.608,0v-0.093h0.45l0.315-1.123h-0.45v-0.092h0.451
	c0.144-0.383,0.235-0.783,0.27-1.19H1.375V20.8H1.352c-0.001,0.057-0.016,0.112-0.045,0.16c-0.017-0.017-0.05-0.03-0.068-0.046
	c-0.013-0.013-0.021-0.029-0.023-0.046c0.023-0.043,0.039-0.089,0.045-0.138c-0.076-0.025-0.075-0.025-0.09-0.114
	c0.065-0.024,0.104-0.092,0.09-0.16c-0.301,0.036-0.607,0.013-0.9-0.069C0.232,20.388,0.106,20.35,0,20.275
	c0.124-0.342,0.214-0.694,0.27-1.053h0.068c0.147,0.049,0.298,0.087,0.451,0.113c0.034,0.043,0.063,0.089,0.09,0.137
	c0,0,0.377-0.022,0.428-0.022c0.013-0.141,0.043-0.278,0.09-0.412c0.077-0.04,0.162-0.063,0.248-0.069
	c0.06-0.199,0.028-0.287,0.09-0.48c0.026-0.081,0.087-0.17,0.113-0.252l0.045-0.275l0.09-0.046c0.076-0.206,0.121-0.423,0.135-0.642
	H2.1V17.3c-0.049,0.058-0.126,0.084-0.2,0.069c-0.064,0.024-0.131,0.04-0.2,0.046c-0.06-0.075-0.194-0.087-0.248-0.16
	c-0.214-0.31-0.26-0.705-0.122-1.055l0.27-0.229c0.084-0.151,0.234-0.253,0.406-0.274c0.257,0.128,0.529,0.221,0.811,0.274
	l0.023-0.115c0.172-0.167,0.323-0.353,0.45-0.556c0.058-0.035,0.118-0.065,0.18-0.092c0.089-0.063,0.16-0.166,0.248-0.229v-0.018
	c-0.107-0.012-0.126-0.022-0.135-0.137c0.04-0.15,0.063-0.304,0.068-0.458c0.14-0.127,0.333-0.179,0.518-0.137
	c0.101,0.105,0.177,0.23,0.225,0.367c-0.065,0.103-0.089,0.225-0.068,0.344c-0.029,0.095-0.163,0.08-0.135,0.183
	c0.042,0.079,0.114,0.137,0.2,0.16c0.14,0.197,0.336,0.349,0.563,0.435c0.145-0.052,0.297-0.083,0.451-0.092
	c0.308-0.092,0.625-0.154,0.946-0.183V15.35h0.432v-0.068c0.401-0.027,0.8-0.081,1.194-0.16v-0.207h0.136v0.069H8.18v0.092h0.045
	c0.081-0.026,0.164-0.041,0.248-0.046c0.335-0.092,0.7-0.112,1.059-0.206c0.527-0.138,1.093-0.177,1.645-0.321
	c0.375-0.113,0.76-0.19,1.149-0.229V8.5h0.022v0.023c0.036,0.15,0.043,0.305,0.023,0.458v1.146c0.015,1.375,0.03,2.75,0.045,4.124
	h0.045c0.194-0.073,0.403-0.096,0.608-0.069c0.009,0.058-0.013,0.036,0.068,0.046c0.27-0.022,0.541-0.022,0.811,0h-0.54v0.023h0.023
	c0.229,0.05,0.464,0.073,0.7,0.069l0.023-0.069c-0.039,0.004-0.079-0.003-0.113-0.023H14.2v0.023h0.02V14.319L14.22,14.319z"/>
</svg>
