<svg xmlns="http://www.w3.org/2000/svg" width="40" height="40" viewBox="0 0 40 40">
  <defs>
    <style>
      .cls-1 {
        fill: #fff;
        fill-rule: evenodd;
      }
    </style>
  </defs>
  <path id="Color_Fill_1" data-name="Color Fill 1" class="cls-1" d="M9.575,10a0.193,0.193,0,0,1,0,.242V10ZM8.8,19.662L9.429,19.71a1.579,1.579,0,0,0,.049-0.483c-0.127,0-.043.063-0.146-0.048a0.551,0.551,0,0,1,.292-0.241,2.56,2.56,0,0,1,.632-0.1v0.048a0.3,0.3,0,0,0-.1.1h0.049c0.042-.031.153-0.065,0.194-0.1a0.3,0.3,0,0,1-.1-0.1H10.45a0.741,0.741,0,0,0,.826-0.048,0.215,0.215,0,0,1,.243.1h0.049c0.109,0-.013-0.07.049-0.1a2.212,2.212,0,0,1,.389,0,0.232,0.232,0,0,0,.049.145,0.294,0.294,0,0,1,.1-0.1,0.232,0.232,0,0,0,.049.145c0.118-.178.17-0.08,0.389-0.145,0.006,0.181-.059.118,0.146,0.145l-0.049.386c0.14,0,.239.107,0.486,0.145V19.71h0.1a0.42,0.42,0,0,1,.194-0.145V19.71c0.331,0.031.447,0,.729,0.048a1.311,1.311,0,0,1,.34-0.628,0.53,0.53,0,0,1,.292-0.048,0.281,0.281,0,0,0,.243.193,1.217,1.217,0,0,1,.535-0.048c0.01-.068-0.04.019-0.049-0.048-0.093-.037.1-0.048,0.1-0.048a0.446,0.446,0,0,0,.535,0H16.136V19.082c-0.237.04-.505,0.018-0.778,0.048l0.049-.338a0.764,0.764,0,0,0-.243-0.048,0.527,0.527,0,0,1,0,.338h-0.1c0.013-.276.085-0.385-0.1-0.435a0.764,0.764,0,0,1-.535.193l-0.146-.531h0.049a0.83,0.83,0,0,0,.972-0.048c0.1-.079-0.034-0.056.1-0.1,0.389,0.281.575-.04,0.972-0.1a2.329,2.329,0,0,0,1.555.29c0.063-.022.3-0.181,0.34-0.193a2.846,2.846,0,0,1,.632.145V18.261h0.049v0.1a1.288,1.288,0,0,0,.681-0.1v0.048h0.049a3.477,3.477,0,0,0-.1.821c0.444,0.083.2,0.5,0.292,0.821a3.466,3.466,0,0,1,.389,0,0.887,0.887,0,0,1,.389-0.29,0.965,0.965,0,0,1-.049.338h0.438a2.779,2.779,0,0,0,1.409-.1L22.6,20.145a4.562,4.562,0,0,1,1.9.29V20.387H24.447c-0.048-.049.048-0.048,0.049-0.048V20.29A2.087,2.087,0,0,0,26,20.531a0.311,0.311,0,0,0,.049.193A0.233,0.233,0,0,1,26.1,20.58a3.37,3.37,0,0,0,.681.1,0.315,0.315,0,0,0,.194.145c-0.02-.11-0.045-0.052,0-0.145,0.351,0.587,1.586.592,2.673,0.58,0-.153-0.082-0.065.049-0.145a0.84,0.84,0,0,1,.292-0.1,0.232,0.232,0,0,0,.049.145,1.387,1.387,0,0,1,.437-0.338,7.445,7.445,0,0,0,1.458.048,0.611,0.611,0,0,0,.729.386,0.58,0.58,0,0,0,.486.1c0.04-.157-0.024-0.074.1-0.145a2.814,2.814,0,0,0,.924,0,4.934,4.934,0,0,0,1.215,0c0.019,0.122-.028.076,0.146,0.1a13.2,13.2,0,0,1,2.236-.1,0.161,0.161,0,0,0,0,.145h0.049V21.159c0.679,0.044,1.406.262,2.187,0.29v0.628c-0.249.012-.225,0.091-0.243,0.1-0.156.05-.105-0.082-0.146-0.1a0.652,0.652,0,0,0-.535.145l-0.049.145a1.158,1.158,0,0,0-.486-0.1,0.7,0.7,0,0,1-.437.1v-0.1h-0.1v0.1a1.967,1.967,0,0,1-.826-0.048c-0.285-.071-0.786.128-0.972,0.048v-0.1H35.577v0.1a6.442,6.442,0,0,0-1.069-.048c-0.489.116-1.936-.226-2.284-0.048-0.077.039-.263,0.215-0.34,0.242-0.107.037-1.41-.048-1.41-0.048H30.328l-0.049-.145a1.692,1.692,0,0,0-.632.048l-0.1-.1a3.372,3.372,0,0,0-1.9.242,1.543,1.543,0,0,1-.437-0.048c-0.054.01-.2,0.132-0.243,0.145L26.78,22.56l-0.049.145c-0.17-.158-0.289.02-0.437,0.145-0.116-.061-0.09-0.1-0.243,0,0.12,0.063.033-.021,0.1,0.1h-0.1a0.248,0.248,0,0,0-.146-0.048,0.233,0.233,0,0,1-.049.145,0.232,0.232,0,0,0-.049-0.145,2.362,2.362,0,0,1-1.069.1v0.1h0.049V23.14a1.9,1.9,0,0,1,.875-0.048c0,0.139-.045.125,0.194,0.145a2.371,2.371,0,0,1,.924,0,0.232,0.232,0,0,0,.049.145,4.98,4.98,0,0,1,.923.1,2.13,2.13,0,0,0,.486.048,0.58,0.58,0,0,1,.486-0.145c0.186,0.044.352,0.144,0.535,0.193V23.43c0.256,0,.435.016,0.583,0v0.145a0.325,0.325,0,0,0-.049.193,6.435,6.435,0,0,1,1.021.338c0.006-.192,0-0.151.292-0.145a0.994,0.994,0,0,1,.146.29,0.173,0.173,0,0,0,.049-0.1c0.091-.144-0.067-0.173.243-0.193a0.177,0.177,0,0,0,.1.048v0.145a2.474,2.474,0,0,1,1.215.725,0.108,0.108,0,0,1,0,.145,3.745,3.745,0,0,1-.68.725h0.049V25.7c0.038-.093.049,0.1,0.049,0.1-0.627.343-.472,0.984-0.875,1.5a5.875,5.875,0,0,1-1.069.87c-0.693.52-1.246,1.448-2.139,1.739a7.945,7.945,0,0,1-2.041.048H6.124c-0.767-.206-2.091-1.623-2.673-2.174a2.822,2.822,0,0,0-.826-0.87,0.629,0.629,0,0,1-.535.483,3.265,3.265,0,0,1-.292-0.58H1.75a1.72,1.72,0,0,1-.049.725V26.715A4.791,4.791,0,0,1,.535,25.073L0.68,25.121V24.976a0.575,0.575,0,0,1-.389-0.048v1.16H0.437v0.29H0.292l-0.1.725H0a2.655,2.655,0,0,1,.1-0.58l-0.049-.483c0.157-1.076-.029-2.566.146-3.575,0.158-.04.074,0.024,0.146-0.1a0.235,0.235,0,0,1-.146-0.048,4.591,4.591,0,0,0,1.409-.1v0.145c0.614,0,1.088.13,1.6,0.145a9.343,9.343,0,0,0,.049-2.464H5.249v-0.1a5.506,5.506,0,0,1,.875-0.1,0.626,0.626,0,0,0,.243.193c0.016-.107-0.05-0.052.049-0.1A1.064,1.064,0,0,0,7,19.9a5.61,5.61,0,0,0,1.215-.1,2.018,2.018,0,0,0,.1-0.87,0.633,0.633,0,0,1-.34-0.048,0.516,0.516,0,0,0,.292-0.048,0.174,0.174,0,0,0,.049-0.1,1.329,1.329,0,0,0-.778-0.338,0.311,0.311,0,0,1-.049.193V18.406l-0.292-.048v-0.1a1.044,1.044,0,0,0,.194-0.918,27.6,27.6,0,0,0,.1-4.3,4.809,4.809,0,0,1,.049-1.691V17.1a5.832,5.832,0,0,1,.1,1.111l0.146,0.048a5.723,5.723,0,0,0,1.652,0v-0.1a3.246,3.246,0,0,0,.1-1.063,8.161,8.161,0,0,0,.049-1.546v-3a6.969,6.969,0,0,1,.049-1.787v4.686a7.835,7.835,0,0,0,.292,2.9h-0.1a0.865,0.865,0,0,1-.437,0,0.971,0.971,0,0,0-.243.193C8.7,18.833,8.778,18.968,8.8,19.662Zm-1.312-8.84a0.14,0.14,0,0,1,0,.193V10.821Zm10.79,7.44v0.1h0.049V18.309h0.049A0.175,0.175,0,0,0,18.275,18.261ZM19.1,18.454a1.825,1.825,0,0,0,0,.628c-0.037.033-.108,0.063-0.146,0.1a0.428,0.428,0,0,0,.438-0.1,0.635,0.635,0,0,1-.049-0.628H19.1Zm-2.333.145v0.1h0.146V18.6H16.768Zm-9.04.193h0.1v0.048A0.167,0.167,0,0,1,7.728,18.792Zm3.062,0c0.017,0.014.1,0.025,0.049,0.1C10.784,18.865,10.687,18.8,10.79,18.792Zm0.535,0v0.1h0.049V18.841h0.049A0.175,0.175,0,0,0,11.324,18.792Zm-3.5.048h0.1v0.048A0.167,0.167,0,0,1,7.825,18.841Zm8.7,0a2.231,2.231,0,0,0,0,.387h0.243a0.175,0.175,0,0,1,.1-0.048v-0.1a0.415,0.415,0,0,0,.049-0.242H16.525Zm0.535,0-0.049.387L17.5,19.275v-0.1c-0.159-.1-0.05-0.168,0-0.338H17.06Zm-7.145.1a0.176,0.176,0,0,0,.1.048A0.176,0.176,0,0,0,9.915,18.937Zm4.666,0.628h0.194V19.324l-0.1-.048V19.227H14.629v0.048A0.52,0.52,0,0,0,14.581,19.565Zm1.652-.145c0.04,0.157-.024.074,0.1,0.145V19.517C16.288,19.481,16.276,19.456,16.233,19.42Zm0.292,0a0.233,0.233,0,0,0,.049.145A0.233,0.233,0,0,0,16.525,19.42Zm5.638,0.628v0.1a0.325,0.325,0,0,1,.292.1C22.4,20.052,22.4,20.056,22.163,20.048ZM3.5,20.1c0.045,0.206.085,0.048,0,.242H4.666a0.175,0.175,0,0,1,.1-0.048L4.812,20.1H3.5Zm1.361,0V20.29H4.909V20.242A0.245,0.245,0,0,0,4.957,20.1H4.86Zm-1.361.58v0.29H4.423a0.726,0.726,0,0,0,.1-0.193A2.539,2.539,0,0,0,3.5,20.676Zm0,0.338v0.241H4.471a0.3,0.3,0,0,1,.1-0.1A1.625,1.625,0,0,0,3.5,21.015Zm0,0.29c0.046,0.212.1,0.087,0,.242H4.569l0.1-.145A3.024,3.024,0,0,0,3.5,21.3Zm0,0.29v0.241a4,4,0,0,0,1.069.048,0.5,0.5,0,0,0,.1-0.29H4.617A7.113,7.113,0,0,1,3.5,21.594Zm0,0.628c0.075,0.19.058,0.037,0,.242H5.055V22.416a0.782,0.782,0,0,1-.292-0.145c-0.063.119,0.021,0.033-.1,0.1l0.049-.145H3.5Zm1.7,0.1v0.145H5.638V22.319H5.2Zm0.486,0a0.233,0.233,0,0,0,.049.145A0.233,0.233,0,0,0,5.687,22.319Zm0.1,0v0.145H5.978V22.319H5.784Zm0.34,0v0.145a10.347,10.347,0,0,0,2.382-.048A19.292,19.292,0,0,1,6.124,22.319Zm-5.395.145c0.04,0.157-.024.074,0.1,0.145a0.444,0.444,0,0,0,.146-0.242,1.926,1.926,0,0,0-.583.048v0.048h0.34Zm11.179,0.628,1.8,0.1V23.044H13.657V23a13.744,13.744,0,0,1-1.8-.531H9.186l-0.632-.048c-0.064.027,0.019,0.087-.243,0.1a9.646,9.646,0,0,0-2.236.048,5.2,5.2,0,0,1,.972.241c0.367,0.058,1.036-.051,1.458.048,0.792,0.186,1.05-.353,1.75-0.193C10.885,22.8,11.831,22.407,11.908,23.092ZM5.2,22.512a0.491,0.491,0,0,0,.437,0H5.2Zm-4.18.773h0.34v-0.1H1.312V23.14a1.3,1.3,0,0,1-.292-0.1v0.241Zm-0.535-.193a0.348,0.348,0,0,0,.194.1A0.348,0.348,0,0,0,.486,23.092Zm0.437,0a0.68,0.68,0,0,0-.049.193h0.1V23.092H0.923ZM24.01,23.14c0.084,0.043.062,0.043,0.146,0H24.01Zm-23.183.193a0.61,0.61,0,0,1-.049.193H0.972V23.333H0.826Zm0.194,0v0.193H1.409V23.478a0.246,0.246,0,0,1-.049-0.145H1.021Zm-0.389.193c-0.04-.157.024-0.074-0.1-0.145l-0.049.145H0.632Zm27.752-.1-0.049.145a1.965,1.965,0,0,0,.826.048C28.929,23.567,28.661,23.487,28.384,23.43Zm-27.8.145c-0.158.04-.074-0.024-0.146,0.1a0.559,0.559,0,0,1,.1.145H0.583V23.575Zm0.194,0v0.242H0.972V23.575H0.778Zm0.243,0v0.242H1.458V23.768a0.324,0.324,0,0,1-.049-0.193H1.021Zm-0.243.29V24.01H0.972V23.865H0.778Zm0.243,0V24.01a1.515,1.515,0,0,1,.486.1V24.058a0.325,0.325,0,0,1-.049-0.193H1.021Zm-0.243.29a0.952,0.952,0,0,0,.389.1v-0.1H0.778Zm-0.34.048a0.608,0.608,0,0,0,.049.193h0.1V24.251Zm0.292,0.1v0.1H0.972V24.348A0.77,0.77,0,0,0,.729,24.3Zm0.292,0.048a0.175,0.175,0,0,0,.1.048A0.176,0.176,0,0,0,1.021,24.348Zm-0.243.1v0.193H0.972V24.444H0.778Zm0.243,0v0.193a0.692,0.692,0,0,0,.583-0.1A2.624,2.624,0,0,0,1.021,24.444Zm-0.632.483H0.632l-0.049-.29H0.535a0.957,0.957,0,0,1-.194.1A0.68,0.68,0,0,1,.389,24.928Zm0.437-.241v0.193H0.875v0.048h0.1V24.686H0.826Zm0.194,0.241H1.7v-0.1H1.652c-0.02-.095.075-0.035,0-0.1a1.329,1.329,0,0,0-.583-0.048A0.754,0.754,0,0,0,1.021,24.928Zm-0.146.048c0.134,0.291.394,0.263,0.826,0.242a0.165,0.165,0,0,1,.049-0.1v-0.1A3.218,3.218,0,0,0,.875,24.976ZM1.7,25.8a0.55,0.55,0,0,1-.243,0H1.409V25.749A0.315,0.315,0,0,0,1.6,25.7a4.124,4.124,0,0,1,.049-0.435H1.021v0.1a2.647,2.647,0,0,0,.68.87V25.99A0.268,0.268,0,0,1,1.7,25.8Zm-0.535-.338a0.891,0.891,0,0,1,.437.048A0.89,0.89,0,0,1,1.166,25.459Zm0.1,0.193L1.409,25.7v0.048A0.185,0.185,0,0,1,1.264,25.652Zm0.243,0.193,0.146,0.048v0.048A0.185,0.185,0,0,1,1.507,25.845Zm30.377,0a0.359,0.359,0,0,0-.146.193C31.79,26.061,31.954,25.892,31.883,25.845ZM2.527,25.99a0.175,0.175,0,0,0,.1.048A0.176,0.176,0,0,0,2.527,25.99Zm-0.194.1v0.1H2.382V26.135H2.43A0.175,0.175,0,0,0,2.333,26.087Zm-0.146.048c0.016,0.107-.05.052,0.049,0.1a0.137,0.137,0,0,1,.049-0.048A0.175,0.175,0,0,0,2.187,26.135Zm-0.437.193a1.05,1.05,0,0,0,.194.193V26.377H1.9V26.329H1.75Zm3.4,1.4H4.666v0.048H4.714a0.924,0.924,0,0,0,.389.242Zm23.913,0.048a0.754,0.754,0,0,0-.049.242h0.1a0.719,0.719,0,0,1,.292-0.193V27.778A0.684,0.684,0,0,1,29.064,27.778ZM8.651,28.841a1.706,1.706,0,0,1-.34.483H9.04V29.275C8.869,29.159,8.81,28.964,8.651,28.841ZM12.1,28.889l-0.34.435h0.681V29.275A2.637,2.637,0,0,1,12.1,28.889Zm3.451,0a3.573,3.573,0,0,1-.292.435h0.632v-0.1C15.749,29.132,15.685,28.99,15.553,28.889Zm9.866,0.048a3.418,3.418,0,0,1-.292.386h0.632v-0.1A2.641,2.641,0,0,0,25.419,28.937Zm-3.4.1-0.243.29h0.535A1.249,1.249,0,0,0,22.017,29.034Zm-3.159.1-0.146.193h0.34v-0.1A0.731,0.731,0,0,0,18.858,29.13Z" transform="translate(0 0.016)"/>
</svg>
