<?xml version="1.0" encoding="utf-8"?>
<!-- Generator: Adobe Illustrator 16.0.0, SVG Export Plug-In . SVG Version: 6.00 Build 0)  -->
<!DOCTYPE svg PUBLIC "-//W3C//DTD SVG 1.1//EN" "http://www.w3.org/Graphics/SVG/1.1/DTD/svg11.dtd">
<svg version="1.1" id="Layer_1" xmlns="http://www.w3.org/2000/svg" xmlns:xlink="http://www.w3.org/1999/xlink" x="0px" y="0px"
	 width="39.969px" height="40px" viewBox="0 0 39.969 40" enable-background="new 0 0 39.969 40" xml:space="preserve">
<path id="germ_kv_1_kwk_40_ico" fill="#FFFFFF" d="M22.124,11.31h0.158v0.044c0.018,0.177,0.018,0.355,0,0.532l0.09,0.066
	c0.036,0.199-0.022,0.403-0.158,0.554h0.541c0.09,0.103,0.233,0.138,0.361,0.089c0.041,0.042,0.065,0.097,0.067,0.155
	c0.502-0.007,0.994,0.148,1.4,0.443c-0.023,0.024-0.031,0.058-0.023,0.089l0.067,0.018c0.089,0.091,0.171,0.187,0.248,0.288
	l0.093,0.181h1.2c0-0.024,0.009-0.047,0.022-0.066c0.133,0.065,0.283,0.089,0.43,0.066c-0.004,0.039,0.004,0.078,0.023,0.111
	c0.229,0.048,0.467,0.056,0.699,0.022h1.801c0.012,0.012,0.027,0.02,0.045,0.022c0.028,0.033,0.051,0.071,0.067,0.111
	c0.015,0.019,0.022,0.042,0.023,0.066l5.866,0.022c0.398,0.043,0.8,0.051,1.199,0.022c0.354,0.024,0.709,0.017,1.061-0.022h0.587
	c0.039-0.046,0.098-0.07,0.157-0.066c0.043,0.015,0,0.078,0.091,0.044c0.19-0.106,0.386-0.202,0.587-0.288
	c0.318,0.143,0.674,0.182,1.015,0.111c0.026,0.088,0.091,0.168,0.113,0.244c0.043,0.286,0.003,0.578-0.113,0.842h-0.934
	c-0.032,0.071-0.104,0.115-0.181,0.111c-0.229-0.433-1.682-0.332-2.393-0.332l-7.061,0.044l-0.023,0.111
	c-0.041,0.025-0.079,0.055-0.113,0.089h-2.5v0.022h-0.025c0.004,0.039-0.004,0.077-0.023,0.111c-0.057,0.022-0.119,0.03-0.18,0.022
	c-0.118-0.03-0.24-0.038-0.361-0.022h-0.925l-0.09,0.266c-0.033,0.034-0.063,0.071-0.091,0.111c-0.033,0.1,0.101,0.172,0.046,0.222
	c-0.157,0.284-0.403,0.509-0.7,0.642c0.004-0.039-0.004-0.078-0.023-0.111c-0.012,0.012-0.027,0.02-0.045,0.022v0.111
	c0.03,0.056,0.053,0.116,0.068,0.177h-0.428v0.044h1.691v0.089h1.105c0.01-0.124,0.104-0.225,0.226-0.244
	c0.292-0.029,0.587-0.037,0.88-0.022c0.075,0.094,0.137,0.198,0.182,0.31c0.077-0.003,0.154,0.012,0.226,0.044l0.361,0.6h0.97
	c0.106-0.047,0.222-0.069,0.338-0.066v0.066h1.2v0.532c0.054,0.001,0.106,0.009,0.158,0.022v0.089l0.541-0.044
	c0.103,0.03,0.209,0.052,0.315,0.066c0.006-0.04,0.021-0.078,0.045-0.111c0.013,0.012,0.028,0.02,0.045,0.022
	c-0.018,0.042-0.018,0.091,0,0.133c0.307,0.035,0.539,0.292,0.541,0.601c-0.051-0.01-0.023-0.021-0.067,0
	c-0.045,0.05-0.076,0.111-0.091,0.177c0.342,0.099,0.621,0.342,0.768,0.665c0.068,0.134,0.036,0.295,0.113,0.421
	c0.031,0.054,0.139,0.194,0.158,0.244c0.049,0.129-0.057,0.123,0,0.288c0.084,0.145,0.145,0.301,0.181,0.465h0.135v0.044
	c0.023,0.033,0.039,0.071,0.045,0.11c-0.071,0.021-0.124,0.082-0.135,0.156c0.046,0.111,0.062,0.234,0.045,0.354l0.132,0.104
	c-0.028,0.039-0.044,0.086-0.045,0.133c-0.131,0.062-0.268,0.113-0.406,0.155c-0.1-0.069-0.191-0.151-0.271-0.243
	c0.024,0.049,0.004,0.107-0.045,0.133c-0.026,0.033-0.057,0.063-0.091,0.089l-0.067-0.022c0,0-0.224,0.307-0.226,0.311
	c-0.006,0.061-0.021,0.12-0.045,0.177c-0.047,0.045-0.101,0.083-0.158,0.11l-0.09-0.021c-0.16,0.143-0.291,0.315-0.383,0.509
	c-0.018-0.013-0.033-0.026-0.045-0.044c-0.17,0.076-0.329,0.173-0.475,0.288l0.023,0.067c-0.038,0.051-0.084,0.096-0.136,0.133
	L31.369,23.6c-0.027-0.017-0.059-0.024-0.09-0.021c-0.106,0.046-0.217,0.165-0.338,0.221c0.009,0.065,0.037,0.028-0.023,0.067
	c-0.02,0.015-0.043,0.021-0.068,0.021c0,0.024-0.008,0.048-0.022,0.067c-0.085,0.039-0.179,0.055-0.271,0.044
	c-0.121,0.026-0.214,0.144-0.361,0.177c0.009,0.065,0.037,0.028-0.023,0.066c-0.02,0.014-0.043,0.021-0.068,0.021v0.066h-0.035
	c-0.08,0.023-0.166,0.023-0.248,0l-0.338,0.154v0.066c-0.063,0.032-0.123,0.069-0.18,0.111h-0.027c-0.045,0,0-0.034-0.045-0.044
	c-0.03,0.013-0.018,0.058-0.09,0.044c-0.008,0,0.01-0.037-0.023-0.044c-0.139,0.044-0.273,0.097-0.406,0.155l0.023,0.043
	c-0.073,0.036-0.148,0.066-0.227,0.09c-0.094-0.006-0.186-0.028-0.271-0.067c-0.193,0.013-0.385,0.058-0.563,0.134
	c-0.093,0.02-0.189-0.015-0.248-0.09c-0.2-0.033-0.405-0.002-0.587,0.09c-0.219-0.066-0.447-0.097-0.677-0.09
	c-0.07,0.072-0.172,0.106-0.271,0.09v-0.039H25.8v-0.045h-0.45c-0.072,0.069-0.172,0.102-0.271,0.09
	c-0.163-0.098-0.356-0.129-0.541-0.09c-0.08,0.071-0.187,0.104-0.293,0.09c-0.163-0.098-0.356-0.13-0.541-0.09
	c-0.07,0.072-0.172,0.105-0.271,0.09c-0.155-0.097-0.342-0.129-0.52-0.09c-0.114,0.074-0.256,0.091-0.385,0.045
	c-0.134-0.062-0.284-0.077-0.428-0.045c-0.243,0.075-0.503,0.075-0.746,0c-0.1,0.064-0.219,0.096-0.338,0.09v-0.045h-0.09v-0.045
	h-0.429c-0.086,0.059-0.188,0.09-0.293,0.09c-0.006-0.058,0.011-0.039-0.09-0.045c-0.225-0.06-0.462-0.044-0.677,0.045
	c0-0.024-0.008-0.048-0.023-0.066c-0.172-0.026-0.346-0.033-0.519-0.021c-0.016,0.006-0.116,0.082-0.135,0.088
	c-0.092,0.011-0.184-0.022-0.248-0.088h-0.339c-0.082,0.009-0.16,0.039-0.226,0.088c-0.093,0.013-0.187-0.003-0.271-0.043
	c-0.134-0.062-0.285-0.077-0.429-0.045c-0.072,0.07-0.172,0.104-0.271,0.09c0-0.024-0.008-0.048-0.023-0.066
	c-0.172-0.026-0.346-0.033-0.519-0.021c-0.073,0.068-0.172,0.101-0.271,0.088v-0.047c-0.176-0.049-0.359-0.064-0.541-0.043
	c-0.081,0.053-0.174,0.083-0.271,0.088c0-0.023-0.008-0.047-0.023-0.065c-0.179-0.026-0.36-0.034-0.541-0.022
	c-0.081,0.053-0.174,0.084-0.271,0.09c0-0.024-0.008-0.048-0.023-0.066c-0.144,0-0.287-0.007-0.429-0.021
	c-0.073,0.014-0.141,0.043-0.2,0.088c-0.1,0.016-0.202,0-0.293-0.043c-0.119-0.062-0.255-0.077-0.384-0.045
	c-0.08,0.088-0.202,0.122-0.316,0.09c-0.139-0.096-0.311-0.127-0.474-0.09c-0.092,0.082-0.217,0.115-0.338,0.09
	c-0.146-0.076-0.311-0.107-0.474-0.09c-0.006,0.059,0,0.045-0.113,0.045c-0.08,0.054-0.179,0.07-0.271,0.043
	c0.009-0.049,0.021-0.023,0-0.065c-0.134-0.024-0.271-0.032-0.406-0.022c-0.115,0.09-0.264,0.122-0.406,0.09
	c-0.107-0.087-0.249-0.12-0.383-0.09v0.045H9.896c-0.113,0.054-0.038,0.057-0.158,0c-0.045,0.034-0.102,0.05-0.158,0.043
	c0-0.023-0.008-0.047-0.023-0.065c-0.111-0.021-0.225-0.028-0.338-0.022v0.045H9.106c-0.112,0.043-0.058,0.063-0.18,0
	c-0.044,0.036-0.101,0.053-0.158,0.043c0-0.023-0.008-0.047-0.023-0.065c-0.111-0.021-0.225-0.029-0.338-0.022
	c-0.067,0.063-0.157,0.096-0.248,0.09c-0.047-0.01,0-0.054-0.068-0.045c-0.042,0.04-0.101,0.057-0.158,0.045
	c-0.085-0.079-0.203-0.112-0.316-0.09v0.045c-0.088,0.027-0.179,0.043-0.271,0.043c-0.022-0.008,0.007-0.059-0.068-0.043
	C7.23,24.965,7.176,24.98,7.12,24.98c0-0.023-0.008-0.047-0.023-0.065c-0.089-0.017-0.18-0.023-0.271-0.022
	c-0.073,0.068-0.172,0.102-0.271,0.09c-0.022-0.008-0.011-0.063-0.09-0.045c-0.041,0.042-0.101,0.059-0.158,0.045v-0.049H6.218
	v-0.045c-0.086-0.039-0.466,0.023-0.587,0c-0.03,0.014-0.018,0.06-0.09,0.045c-0.07-0.04-0.131-0.093-0.18-0.156
	c-0.169-0.076-0.356-0.106-0.541-0.088c-0.063-0.031-0.124-0.068-0.18-0.111c0.009-0.065,0.037-0.028-0.023-0.066
	c-0.184-0.158-0.52-0.078-0.587-0.199h0.022v-0.021c-0.031-0.002-0.061-0.01-0.09-0.021V24.2c-0.109-0.035-0.215-0.079-0.316-0.134
	c-0.033-0.008-0.033,0.043-0.045,0.045c-0.077-0.008-0.152-0.023-0.226-0.045V24c-0.121-0.025-0.217-0.16-0.338-0.2
	c-0.07-0.022-0.241,0.009-0.293-0.022c-0.057-0.021-0.11-0.051-0.158-0.088l0.023-0.066c-0.196-0.1-0.412-0.152-0.632-0.155
	c-0.037-0.08,0-0.044-0.113-0.089c-0.026-0.037,0.046-0.046-0.023-0.066c-0.038,0.035-0.084,0.058-0.135,0.066
	c0-0.055-0.016-0.108-0.045-0.154c-0.106-0.071-0.234-0.103-0.361-0.09c-0.085-0.133-0.113-0.181-0.2-0.31
	c-0.051,0.016-0.104,0.022-0.158,0.022l0.023-0.178c-0.11-0.033-0.207-0.104-0.271-0.2c-0.035-0.076-0.05-0.16-0.045-0.243
	c-0.036-0.092-0.108-0.164-0.2-0.201C0.477,22,0.498,21.954,0.533,21.921c0.003-0.046-0.022-0.091-0.064-0.11v0.021H0.443
	c-0.002-0.031-0.01-0.061-0.023-0.089H0.398v0.687c-0.016,0.019-0.029,0.051-0.045,0.07c-0.057,0.022-0.119,0.03-0.18,0.021
	c-0.011-0.045-0.026-0.09-0.045-0.133v-0.756c-0.027-0.105-0.119-0.199-0.135-0.31c0.027-0.223,0.229-0.381,0.451-0.354
	c-0.052-0.102-0.068-0.219-0.045-0.332c0.032-0.021,0.057-0.053,0.07-0.089h0.064V20.5c0.02-0.088,0.02-0.179,0-0.266
	c0.036-0.019,0.074-0.033,0.113-0.045c-0.015-0.041-0.022-0.085-0.023-0.129H0.398c-0.011-0.025-0.026-0.047-0.045-0.066v-0.021
	h0.022c0.068-0.061,0.157-0.093,0.248-0.09v-0.4h0.632c0.058-0.078,0.097-0.168,0.114-0.265l-0.835-0.509
	c0.084-0.186,0.009-0.027,0-0.266c0.122-0.146,0.221-0.311,0.293-0.487c0.118-0.189,0.264-0.388,0.384-0.576
	c0.049-0.168,0.152-0.316,0.293-0.421c0.125-0.033,0.256-0.041,0.384-0.022V16.87h0.181v0.066h0.765v-0.088h0.18v0.089h0.655
	c0.043-0.04,0.088-0.077,0.135-0.111h0.835c0.694-0.028,1.389,0.01,2.076,0.111l0.023-0.177c0.054-0.033,0.117-0.048,0.18-0.044
	c0.013,0.073,0.044,0.142,0.09,0.2c0.045-0.05,0.117-0.067,0.18-0.044v0.066h0.294V16.87h0.2v0.066h0.07l0.045-0.2h0.046
	c0.027-0.016,0.059-0.024,0.09-0.022c-0.003-0.105,0.012-0.21,0.045-0.31h0.226c0.087-0.027,0.18-0.035,0.271-0.022
	c0.07,0.096,0.102,0.214,0.09,0.332c0.019,0.034,0.027,0.073,0.023,0.111c0.059,0.018,0.113,0.048,0.158,0.089
	c-0.002-0.096,0.005-0.192,0.023-0.287h0.134v0.155h0.045c0.009-0.098,0.097-0.169,0.194-0.16c0.009,0.001,0.018,0.003,0.026,0.005
	c0.02,0.014,0.043,0.022,0.068,0.022c0-0.024,0.008-0.047,0.023-0.066c0.043-0.021,0.092-0.029,0.139-0.023
	c0.125,0.035,0.254,0.049,0.384,0.044c0.021,0.024,0.043,0.047,0.068,0.067h0.018v-0.022c0.321-0.091,0.262-0.36,0.248-0.753
	c0.258-0.061,0.526-0.076,0.79-0.044c0.042,0.113,0.058,0.234,0.045,0.354h0.045c-0.017-0.111-0.009-0.225,0.023-0.332
	c0.253-0.041,0.511-0.048,0.767-0.022c0.042,0.105,0.057,0.219,0.045,0.332h0.027v-0.023c0.023-0.032,0.019-0.1,0.045-0.133
	c0.043-0.032,0.089-0.062,0.135-0.089c0.271,0,0.579,0.021,0.88,0.022c0.021,0.077,0.081,0.136,0.158,0.155v-0.043
	c-0.015-0.02-0.022-0.043-0.022-0.067c0.127-0.008,0.255-0.008,0.383,0c0.05,0.059,0.088,0.127,0.113,0.2
	c-0.033,0.018-0.063,0.04-0.09,0.066c0.14,0.147,0.191,0.358,0.135,0.554c0.23-0.043,0.467-0.051,0.7-0.022
	c0.03-0.089,0.06-0.091,0.181-0.089l0.022,0.066c0.015,0.019,0.022,0.042,0.023,0.066h0.068v-0.176h0.226
	c0.085-0.314,0.069-0.647-0.045-0.953c-0.197-0.06-0.405-0.075-0.609-0.044h-1.739c-0.177-0.055-0.313-0.198-0.361-0.377V15.01
	c-0.061-0.107-0.077-0.234-0.045-0.354c-0.113-0.057-0.165-0.167-0.271-0.222c-0.154,0.045-0.316,0.053-0.474,0.022
	c-0.015-0.02-0.023-0.043-0.023-0.067h0.09V14.3c-0.31,0.013-0.618,0.042-0.925,0.089c-0.015-0.043-0.023-0.088-0.023-0.133
	c0.043-0.015,0.089-0.022,0.135-0.022c0.403-0.017,0.804-0.061,1.2-0.133c0.012-0.012,0.02-0.027,0.023-0.044
	c-0.068-0.05-0.049-0.029-0.045-0.111c0.107-0.109,0.056-0.351,0.316-0.377c0.001,0.038,0.009,0.076,0.023,0.111
	c0.136-0.056,0.258-0.139,0.361-0.244c-0.028-0.033-0.051-0.071-0.068-0.111c0.07-0.061,0.156-0.099,0.248-0.111
	c0.026-0.206,0.079-0.408,0.158-0.6c0.126-0.025,0.255-0.032,0.383-0.022l0.023-0.066c-0.069-0.086-0.123-0.184-0.158-0.288
	c0.009-0.011,0.016-0.024,0.019-0.038c0.336-0.051,0.677-0.059,1.015-0.022c0.121,0.086,0.234,0.183,0.338,0.288
	c0.2,0,0.393-0.014,0.564-0.022c0.057-0.264,0.469-0.2,0.79-0.2h1.827c0.126,0.086,0.276,0.132,0.429,0.133
	c0.052-0.244,0.288-0.211,0.587-0.2c-0.008-0.247,0.022-0.493,0.09-0.73c0.027-0.018,0.109-0.027,0.135-0.044
	c0.029-0.093,0.037-0.191,0.023-0.288c0.31,0,0.482-0.044,0.79-0.044h0.451v-0.048c0.083-0.013,0.168-0.005,0.248,0.022l0.587-0.022
	c0.026,0.011,0,0.037,0.068,0.044c0.256-0.014,0.514,0,0.767,0.044c0.113,0.048,0.293-0.033,0.384,0.022
	C22.125,11.188,22.133,11.25,22.124,11.31z"/>
</svg>
