<svg xmlns="http://www.w3.org/2000/svg" width="40" height="40" viewBox="0 0 40 40">
  <defs>
    <style>
      .cls-1 {
        fill: #fff;
        fill-rule: evenodd;
      }
    </style>
  </defs>
  <path id="Color_Fill_1" data-name="Color Fill 1" class="cls-1" d="M16.791,12.449h0.434V12.4a0.186,0.186,0,0,1-.1-0.144h0.048a1.523,1.523,0,0,0,1.3.144V11.92a7.036,7.036,0,0,0,.145-1.2,0.615,0.615,0,0,1-.193-0.048c0.114-.355-0.105-0.28-0.29-0.529a0.994,0.994,0,0,1,0-.626c0.119-.062.033,0.021,0.1-0.1,0.1,0.084.071,0.095,0.145,0.1a0.173,0.173,0,0,0,.048-0.1,0.234,0.234,0,0,1-.145-0.048,0.692,0.692,0,0,1,.338.1V9.417H18.577c-0.093-.037.1-0.048,0.1-0.048,0.084,0.064.078,0.083,0.145,0.048A2.537,2.537,0,0,1,19.2,8.791c0.188-.121.33,0.027,0.434-0.193a0.544,0.544,0,0,1,.1-0.337c0.066,0.029.459,0,.627,0.048a0.5,0.5,0,0,0-.1.289,1.133,1.133,0,0,1,.1.144c0.11,0.069.29-.013,0.386,0.048a2.068,2.068,0,0,1,.434.674,0.858,0.858,0,0,1,.531-0.1v0.1c-0.142-.017-0.1-0.1-0.193.048h0.048V9.562c0.109-.042.124-0.086,0.193-0.048a0.814,0.814,0,0,1,.1.529,1.891,1.891,0,0,1-.29.241,0.618,0.618,0,0,1,.1.385,0.247,0.247,0,0,1-.145.048,0.193,0.193,0,0,0-.193-0.1v0.048a5.83,5.83,0,0,1,.145,1.733,15.263,15.263,0,0,0,1.689.048V11.92H23.112v0.048c-0.037.093-.048-0.1-0.048-0.1,0.329-.327.024-1.189,0.145-1.733,0.1-.446.023-0.972,0.145-1.444a13.325,13.325,0,0,1,.579-1.781A1.286,1.286,0,0,1,24.512,6c0.139,0.288.357,0.571,0.482,0.866a15.326,15.326,0,0,1,.724,5.583h12.5a2.349,2.349,0,0,1,1.062.1,1.2,1.2,0,0,1,.531.529v0.193a0.611,0.611,0,0,1,.193.048,4.087,4.087,0,0,0-.145,1.733c0,1.366.177,3.112-.434,3.9-1.018,1.31-2.3,1.155-4.584,1.155H28.854a16.45,16.45,0,0,1-3.57-.1V20.39a8.644,8.644,0,0,0-.193,1.829c-0.274,1.186-.25,2.639-0.627,3.706a5.042,5.042,0,0,1-.048.674,7.137,7.137,0,0,0-.29-1.877c-0.181-.77-0.058-1.467-0.241-2.262a15.892,15.892,0,0,1-.338-3.032H21.809a3.555,3.555,0,0,0-.483,1.155c-0.064.281,0,.693-0.048,0.914v0.818L20.941,27.08a12.727,12.727,0,0,1,2.171.963c1.351,0.593,2.655,1.09,4,1.685,0.445,0.2,1.229.946,0.724,1.588-0.312.938-2.627,0.761-3.715,1.011-1.287.3-2.752,0.4-4.053,0.626a3.766,3.766,0,0,1-1.206-.193c-1.018-.238-2.073-0.207-3.04-0.433-0.8-.186-1.618-0.162-2.364-0.337a5.187,5.187,0,0,1-.772-0.1,2.021,2.021,0,0,1-.675-0.722,1.928,1.928,0,0,1,.193-1.011,3.761,3.761,0,0,1,1.544-.77c1.078-.469,2.2-1.021,3.281-1.492,0.532-.232,1.046-0.454,1.544-0.674l0.434-.144V26.6a5.7,5.7,0,0,1-.1-1.4c-0.264-1.2-.026-2.64-0.29-3.85V20.439a2.574,2.574,0,0,0-.338-0.77,1.15,1.15,0,0,0-.1-0.241H16.405a10.46,10.46,0,0,1-.241,2.262v0.529c-0.185.81-.2,1.757-0.386,2.551a11.431,11.431,0,0,1-.241,1.155,5.1,5.1,0,0,1-.048.674,6.924,6.924,0,0,0-.29-1.877c-0.207-.865-0.15-1.778-0.338-2.6-0.136-.593.045-1.7-0.241-2.118a1.643,1.643,0,0,1-.917.1H4.391c-1.684,0-3.037.013-3.715-.963C-0.3,17.731.454,15.14,0,13.267H0.145a2.534,2.534,0,0,1,.1-0.385c0.124-.085.213-0.269,0.338-0.337a3.022,3.022,0,0,1,1.206-.1h12.5V12.4a8.086,8.086,0,0,1,0-1.781,9.56,9.56,0,0,1,.724-3.706A1.367,1.367,0,0,1,15.585,6V6.048c0.841,0.846.851,2.536,1.158,3.947q0.024,0.914.048,1.829a0.987,0.987,0,0,1,.145.193H16.888a0.294,0.294,0,0,0-.1-0.1v0.529Zm3.04-3.8a0.174,0.174,0,0,1-.1.048V8.743C19.79,8.722,19.961,8.688,19.831,8.647Zm0.241,0a0.186,0.186,0,0,0,.145.1V8.7Zm1.255,0.77a0.174,0.174,0,0,0,.1.048A0.174,0.174,0,0,0,21.327,9.417Zm0.1,0.963v0.048H21.375c-0.093.037,0.1,0.048,0.1,0.048A0.165,0.165,0,0,0,21.423,10.38Zm1.592,1.588c0.023,0.1.046,0.05-.048,0.144V12.16H22.919A0.645,0.645,0,0,1,23.016,11.968Zm-6.08.048a0.263,0.263,0,0,1,.145.193H17.033V12.16H16.984Zm5.887,0.193c0.023,0.1.046,0.05-.048,0.144V12.4H22.726A0.644,0.644,0,0,1,22.823,12.209ZM16.454,19.38h1.592v-0.1H18a1.746,1.746,0,0,0-1.5-.385A1.579,1.579,0,0,0,16.454,19.38Zm7.093,0L23.5,18.947H23.45V18.9a2.476,2.476,0,0,0-1.544.385v0.1h1.64Z" transform="translate(0 0.531)"/>
</svg>
