<svg xmlns="http://www.w3.org/2000/svg" width="40" height="40" viewBox="0 0 40 40">
  <defs>
    <style>
      .cls-1 {
        fill: #fff;
        fill-rule: evenodd;
      }
    </style>
  </defs>
  <path id="Color_Fill_1" data-name="Color Fill 1" class="cls-1" d="M20.209,4.286V4.47c0.531,0.125,1.509.051,2.039,0.184A3.342,3.342,0,0,1,22.619,7.5a0.972,0.972,0,0,0-.51.138,1.456,1.456,0,0,1,.139.551,8.856,8.856,0,0,0,1.483-.138h8.2a47.565,47.565,0,0,1,4.959.092V7.824a0.7,0.7,0,0,1,.185-0.092V7.778a1.075,1.075,0,0,0,.185.414l0.927,0.322a2.976,2.976,0,0,1,1.715,3.124c-0.106.458-.345,0.821-0.417,1.241a2.443,2.443,0,0,1,.371,1.93A3.589,3.589,0,0,1,38.1,17.289a8.83,8.83,0,0,1-1.9.735,11.133,11.133,0,0,1-2.642.138H25.91c-0.531-.18-1.033-0.7-1.576-0.873h-0.6a1.919,1.919,0,0,0-1.437-.23,3.177,3.177,0,0,0-.046.873,5.042,5.042,0,0,0-.046,1.149c-0.166.758,0.034,1.693-.139,2.481-0.2.921-.077,2.025-0.278,2.941v0.551c-0.147.661-.071,1.4-0.232,2.114l-0.324,2.113a9.855,9.855,0,0,1,4.45.735,6.013,6.013,0,0,1,.834.689,2.068,2.068,0,0,1,.649,2.022c-0.432,1.721-1.883,1.9-3.662,2.3a3.721,3.721,0,0,1-1.854,0c-0.753-.371-0.72-1.337-1.02-2.159H20.579v0.276a0.367,0.367,0,0,0,0,.322l-0.417.138-0.139,2.849H19.977V36.4a2.273,2.273,0,0,1-.046-0.735,8.936,8.936,0,0,0-.185-2.068,0.989,0.989,0,0,1-.371-0.23,0.889,0.889,0,0,0,0-.459H19.328v0.046c-0.479.663-.08,1.528-0.927,2.022a3.51,3.51,0,0,1-1.947.046c-0.381-.093-0.666-0.037-1.02-0.138-1.277-.362-2.311-0.893-2.642-2.205a2.063,2.063,0,0,1,.7-2.022,9.2,9.2,0,0,1,.788-0.643,10.025,10.025,0,0,1,4.45-.735L18.4,27.214,18.077,24V23.4c-0.122-.548,0-1.183-0.139-1.792-0.1-.449.021-1-0.093-1.516a15.278,15.278,0,0,1-.139-2.986l-0.093-.046a1.344,1.344,0,0,0-1.251.184c-0.2.082-.5-0.033-0.742,0.046-0.54.174-1.041,0.7-1.576,0.873H8.992c-3.322,0-6.609.231-8.019-1.654L0.7,16.278a3.637,3.637,0,0,1-.6-2.527c0.089-.372.3-0.673,0.371-1.011a2.188,2.188,0,0,1-.371-1.1A2.739,2.739,0,0,1,1.437,8.7a5.224,5.224,0,0,1,.927-0.414,1.941,1.941,0,0,0,.371-0.092l0.139-.459H2.966a0.7,0.7,0,0,1,.093.414,46.34,46.34,0,0,1,4.82-.092h8.3a8.634,8.634,0,0,0,1.53.138l0.139-.643c-0.255.015-.433,0.042-0.51-0.138a2.225,2.225,0,0,1-.093-0.643c-0.021-.083-0.119-0.309-0.139-0.414a4.954,4.954,0,0,1,.417-1.516,2.336,2.336,0,0,1,.371-0.276,9.1,9.1,0,0,0,1.854-.092V4.286H19.7a0.331,0.331,0,0,1-.185.092,0.372,0.372,0,0,0-.417-0.23,1.783,1.783,0,0,1-1.344.23c-1.044-.228-2.425-0.064-3.43-0.322V3.965l1.993-.23h0.6a3.337,3.337,0,0,1,1.159-.092,7.606,7.606,0,0,0,1.112.23,1.6,1.6,0,0,1,.6-0.827,0.725,0.725,0,0,1,.371.046c0.432,0.142.362,0.606,0.7,0.781a2.512,2.512,0,0,1,1.576-.184,17.051,17.051,0,0,1,3.291.368V4.1H25.678a4.389,4.389,0,0,1-1.159.092,11.714,11.714,0,0,1-2.874.184c-0.162-.043-0.394-0.187-0.556-0.23A2,2,0,0,0,20.209,4.286ZM19.931,36.541c0.114,0.059.032-.02,0.093,0.092a0.259,0.259,0,0,1,.046.23L20.023,37a0.16,0.16,0,0,1-.093-0.046,0.6,0.6,0,0,1-.046-0.322A0.165,0.165,0,0,0,19.931,36.541Z"/>
</svg>
