<svg xmlns="http://www.w3.org/2000/svg" width="38" height="38" viewBox="0 0 38 38">
  <metadata><?xpacket begin="﻿" id="W5M0MpCehiHzreSzNTczkc9d"?>
<x:xmpmeta xmlns:x="adobe:ns:meta/" x:xmptk="Adobe XMP Core 5.6-c138 79.159824, 2016/09/14-01:09:01        ">
   <rdf:RDF xmlns:rdf="http://www.w3.org/1999/02/22-rdf-syntax-ns#">
      <rdf:Description rdf:about=""/>
   </rdf:RDF>
</x:xmpmeta>
                                                                                                    
                                                                                                    
                                                                                                    
                                                                                                    
                                                                                                    
                                                                                                    
                                                                                                    
                                                                                                    
                                                                                                    
                                                                                                    
                                                                                                    
                                                                                                    
                                                                                                    
                                                                                                    
                                                                                                    
                                                                                                    
                                                                                                    
                                                                                                    
                                                                                                    
                                                                                                    
                           
<?xpacket end="w"?></metadata>
<defs>
    <style>
      .cls-1 {
        fill: #fff;
        fill-rule: evenodd;
      }
    </style>
  </defs>
  <path class="cls-1" d="M32.25,32.406c-0.873-3.37-3.2-4.161-2.068-6.946-0.485.55-2.391,2.029-1.293,5.811C22.943,23.465,33.7,22.3,31.151,16.588c0.92,0.412,1.97.9,2.876,3.542,1.133,3.3-1.878,4.426-.42,6.19a1.7,1.7,0,0,0,2.908-1.582C36.677,25.15,39.1,30.549,32.25,32.406ZM28,34l0.4,0.264C25.979,35.1,24,36,24,36c-0.845-2.1-.978-5.128-0.98-8.69,0-5.505,6.017-8.587,6.017-19.93,0-2.221-1.091-3.575-3.073-3.4-0.633-.577-1.143-1.062-2.178-1.934A7.248,7.248,0,0,1,27.025,1c2.612-.037,4.431,2.1,4.973,4.9,0.457,2.365.858,5.362,1.256,8.287A20.079,20.079,0,0,0,30,13C29.994,23.231,20.168,26.378,28,34ZM24.637,5.5a0.8,0.8,0,0,1,.293,1.093l-0.6,1.039a0.8,0.8,0,0,1-.819.388l-0.674.6-0.4.693c-2.2,3.81-.536,8.928-2.536,12.392L11.55,36.2a1.6,1.6,0,0,1-2.186.586L1.792,32.1a1.6,1.6,0,0,1-.586-2.186L9.508,15.7c2-3.464,7.264-4.582,9.464-8.392l0.4-.693,0.181-.883a0.8,0.8,0,0,1-.073-0.9l0.6-1.039A0.8,0.8,0,0,1,21.173,3.5a0.4,0.4,0,0,1,.546-0.146l2.771,1.6A0.4,0.4,0,0,1,24.637,5.5ZM17.08,11.293c-2.975,3-4.194,1.434-6.329,4.8-0.344.468-1.817,3.926-1.817,3.926l10.235,0.012c2.334-4.221-1-6.206,2.9-12.364C19.72,8.439,18.941,9.414,17.08,11.293ZM21.5,3.979L19.846,5.424l4.5,0.508Z"/>
</svg>
