<?xml version="1.0" encoding="UTF-8" standalone="no"?>
<svg
   xmlns:dc="http://purl.org/dc/elements/1.1/"
   xmlns:cc="http://creativecommons.org/ns#"
   xmlns:rdf="http://www.w3.org/1999/02/22-rdf-syntax-ns#"
   xmlns:svg="http://www.w3.org/2000/svg"
   xmlns="http://www.w3.org/2000/svg"
   xmlns:sodipodi="http://sodipodi.sourceforge.net/DTD/sodipodi-0.dtd"
   xmlns:inkscape="http://www.inkscape.org/namespaces/inkscape"
   width="38"
   height="38"
   viewBox="0 0 38 38"
   version="1.1"
   id="svg7"
   sodipodi:docname="grenade_fougasse_icon.svg"
   inkscape:version="0.92.1 r15371">
  <metadata
     id="metadata11">
    <rdf:RDF>
      <cc:Work
         rdf:about="">
        <dc:format>image/svg+xml</dc:format>
        <dc:type
           rdf:resource="http://purl.org/dc/dcmitype/StillImage" />
        <dc:title></dc:title>
      </cc:Work>
    </rdf:RDF>
  </metadata>
  <sodipodi:namedview
     pagecolor="#ffffff"
     bordercolor="#666666"
     borderopacity="1"
     objecttolerance="10"
     gridtolerance="10"
     guidetolerance="10"
     inkscape:pageopacity="0"
     inkscape:pageshadow="2"
     inkscape:window-width="2767"
     inkscape:window-height="1859"
     id="namedview9"
     showgrid="false"
     inkscape:pagecheckerboard="true"
     inkscape:zoom="8.7830105"
     inkscape:cx="77.942782"
     inkscape:cy="-2.6061637"
     inkscape:window-x="192"
     inkscape:window-y="487"
     inkscape:window-maximized="0"
     inkscape:current-layer="svg7" />
  <defs
     id="defs4">
    <style
       id="style2">
      .cls-1 {
        fill: #fff;
        fill-rule: evenodd;
      }
    </style>
  </defs>
  <path
     inkscape:connector-curvature="0"
     id="kill_grenade"
     class="cls-1"
     d="M 22.52517,34.986865 A 10.538106,10.538106 0 0 1 15.739333,16.383643 H 29.311005 A 10.538106,10.538106 0 0 1 22.52517,34.986865 Z M 28.084437,7.7021381 h -1.326412 a 21.944362,21.944362 0 0 1 1.319584,6.8211819 h -11.1055 a 25.080866,25.080866 0 0 1 0.439656,-3.715064 5.933188,5.933188 0 0 0 -1.736304,0.610806 c 0.01736,0.205255 0.02853,0.412991 0.02853,0.623828 a 6.1973539,6.1973539 0 0 1 -5.184718,6.110539 28.608658,28.608658 0 0 0 -1.2352532,9.339438 1.2830023,1.2830023 0 0 1 -2.563524,0.0986 41.103202,41.103202 0 0 1 0.602124,-9.749329 6.1967337,6.1967337 0 1 1 5.2808342,-11.1637943 14.393314,14.393314 0 0 1 3.596623,-2.6968473 h 11.884362 a 1.8603223,1.8603223 0 1 1 0,3.7206447 z M 13.770491,12.770896 a 11.256191,11.256191 0 0 0 -2.31176,3.127202 4.3221489,4.3221489 0 0 0 2.31176,-3.127202 z M 5.1621609,12.04289 A 4.3351711,4.3351711 0 0 0 7.7325062,15.998555 21.75833,21.75833 0 0 1 11.349592,8.128772 4.3165679,4.3165679 0 0 0 5.1621609,12.04289 Z"
     style="fill:#ffffff;fill-rule:evenodd;stroke-width:0.62010741" />
</svg>
