<?xml version="1.0" encoding="UTF-8"?>
<svg id="Layer_1" data-name="Layer 1" xmlns="http://www.w3.org/2000/svg" width="128" height="128" xmlns:xlink="http://www.w3.org/1999/xlink" viewBox="0 0 128 128">
  <defs>
    <style>
      .cls-1 {
        fill: #444;
      }

      .cls-1, .cls-2, .cls-3, .cls-4, .cls-5, .cls-6, .cls-7, .cls-8, .cls-9, .cls-10, .cls-11, .cls-12, .cls-13, .cls-14, .cls-15, .cls-16, .cls-17, .cls-18, .cls-19, .cls-20, .cls-21, .cls-22, .cls-23, .cls-24, .cls-25, .cls-26, .cls-27 {
        fill-rule: evenodd;
        stroke-width: 0px;
      }

      .cls-2 {
        fill: url(#radial-gradient-6);
      }

      .cls-3 {
        fill: #262827;
      }

      .cls-4 {
        fill: #545555;
      }

      .cls-5 {
        fill: #3b3b3b;
      }

      .cls-6 {
        fill: #3a3a3a;
      }

      .cls-7 {
        fill: #9d9d9d;
      }

      .cls-8 {
        fill: #040404;
      }

      .cls-10 {
        fill: #adadad;
      }

      .cls-11 {
        fill: url(#radial-gradient-2);
      }

      .cls-12 {
        fill: url(#radial-gradient-8);
      }

      .cls-13 {
        fill: url(#radial-gradient);
      }

      .cls-14 {
        fill: #5c5c5c;
      }

      .cls-15 {
        fill: url(#radial-gradient-3);
      }

      .cls-16 {
        fill: #050505;
      }

      .cls-17 {
        fill: #252525;
      }

      .cls-18 {
        fill: #131313;
      }

      .cls-19 {
        fill: url(#radial-gradient-4);
      }

      .cls-20 {
        fill: url(#radial-gradient-7);
      }

      .cls-21 {
        fill: url(#radial-gradient-5);
      }

      .cls-22 {
        fill: #4c4c4c;
      }

      .cls-23 {
        fill: #2b2c2c;
      }

      .cls-24 {
        fill: #313333;
      }

      .cls-25 {
        fill: #5a5e5c;
      }

      .cls-26 {
        fill: #242424;
      }

      .cls-27 {
        fill: #8d8d8d;
      }
    </style>
    <radialGradient id="radial-gradient" cx="-624.61" cy="-260.01" fx="-624.61" fy="-260.01" r=".64" gradientTransform="translate(78080.8 -20999.25) rotate(-5.21) scale(127.47 -53.3)" gradientUnits="userSpaceOnUse">
      <stop offset="0" stop-color="#353736"/>
      <stop offset="1" stop-color="#171717"/>
    </radialGradient>
    <radialGradient id="radial-gradient-2" cx="-648.46" cy="-267.13" fx="-648.46" fy="-267.13" r=".64" gradientTransform="translate(-12898.69 -15880.46) rotate(-106.63) scale(29.27 -29.27)" gradientUnits="userSpaceOnUse">
      <stop offset="0" stop-color="#424242"/>
      <stop offset="1" stop-color="#131313"/>
    </radialGradient>
    <radialGradient id="radial-gradient-3" cx="-759.86" cy="-265.56" fx="-759.86" fy="-265.56" r=".64" gradientTransform="translate(-7362.7 -1232.8) rotate(-121.38) scale(4.33 -21.22) skewX(55.75)" gradientUnits="userSpaceOnUse">
      <stop offset="0" stop-color="#565656"/>
      <stop offset="1" stop-color="#2c2c2c"/>
    </radialGradient>
    <radialGradient id="radial-gradient-4" cx="-734.28" cy="-269.51" fx="-734.28" fy="-269.51" r=".64" gradientTransform="translate(-6873.3 -1633.06) rotate(-111.8) scale(5.67 -21.55)" xlink:href="#radial-gradient-3"/>
    <radialGradient id="radial-gradient-5" cx="58.39" cy="62.57" fx="58.39" fy="62.57" r="7.31" gradientUnits="userSpaceOnUse">
      <stop offset=".11" stop-color="#636765"/>
      <stop offset=".58" stop-color="#575a57"/>
      <stop offset="1" stop-color="#969794"/>
      <stop offset="1" stop-color="#070707"/>
    </radialGradient>
    <radialGradient id="radial-gradient-6" cx="29.72" cy="77.12" fx="29.72" fy="77.12" r="5.21" xlink:href="#radial-gradient-5"/>
    <radialGradient id="radial-gradient-7" cx="13.4" cy="49.49" fx="13.4" fy="49.49" r="5.21" xlink:href="#radial-gradient-5"/>
    <radialGradient id="radial-gradient-8" cx="102.46" cy="81.91" fx="102.46" fy="81.91" r="5.21" xlink:href="#radial-gradient-5"/>
  </defs>
  <path class="cls-9" d="m63.98,81.15l-.66.22-.38.11-.15.02h0c-2.49.15-3.8-.59-4.46-1.36l-2.15-1.72-10.03,3.38-1.38,2.04c-.18.26-.41.49-.68.66-2.68,1.72-5.84,3.2-9.72,4.33-.19.05-.38.08-.58.09-3.47.11-6.55-.9-8.8-4.46-.02-.04-.05-.07-.07-.11L5.12,48.68l-2.6-1.04c-1.09-.43-1.69-1.6-1.41-2.75l.67-2.7c.13-.53.44-.99.88-1.31l3.64-2.7.53-.2,1.6-.2.41.05,6.42,2.11,2.04-.84-.07-.07c-.71-.71-.89-1.81-.44-2.71l.67-1.35c.4-.8,1.21-1.29,2.1-1.29h4.04c.24,0,.47.03.7.11l42.42,13.25,11.41-3.81c.13-.04.27-.07.41-.09l4.72-.67c.34-.05.68-.02,1,.07l38.42,11.46c.67.2,1.22.69,1.49,1.33l2.58,6.07c.19.45.24.96.13,1.44l-1.23,5.39c-.06.26-.16.51-.31.73l-2.87,4.5-4.75,13.24c-.14.38-.37.71-.67.98-3.98,3.45-8.23,5.74-12.81,6.6-.44.09-.89.04-1.3-.13l-3.37-1.35c-.67-.26-1.18-.82-1.38-1.52l-3.05-10.37-21.64-8.74-.37.09v3.01c0,.9-.52,1.73-1.33,2.12l-7.83,3.75s-.23.11-.01,0Zm0,0h0,0Zm8.17-8.68c.08,0,.15,0,.23-.03l-.23.03Z"/>
  <path class="cls-13" d="m3.39,45.46l.67-2.7,4.04-2.7,6.78,2.22,4.72-1.55.62-2.02-1.35-1.35.67-1.35h4.04l43.14,13.48,12.13-4.04,4.72-.67,38.42,11.46,2.58,6.07-1.23,5.39-3.01,4.72-4.84,13.48c-3.64,3.15-7.51,5.28-11.7,6.07l-3.37-1.35-3.37-11.46-23.38-9.44-2.91.67v4.72l-8.09,4.04c-1.61.1-2.4-.18-2.7-.67l-3.37-2.7-12,4.04-1.82,2.7c-2.51,1.61-5.47,2.99-9.1,4.04-2.65.08-5.03-.65-6.74-3.37L6.76,46.81l-3.37-1.35Zm32.36,10.79l3.65,9.44,5.12-2.37.67-3.7-9.44-3.37Z"/>
  <path class="cls-8" d="m109.22,79.84l8.76-5.39L19.62,40.74l-7.68,2.53,40.29,15.29,8.27-2.63,39.66,13.3,3.8,8.66,5.27,1.94Z"/>
  <path class="cls-22" d="m101.81,73.77l-41.79-14.07-10.3-1.48,8.62-1.97h3.7l36.4,12.23,3.37,5.29Z"/>
  <path class="cls-3" d="m124.61,62.31l-1.23.28-50.12-15.25,5.63-1.87,4.72-.67,38.42,11.46,2.58,6.07Z"/>
  <path class="cls-18" d="m119.22,71.35l-1.24,3.1L19.62,40.74l.62-2.02-1.35-1.35,98.41,32.36,1.91,1.62Z"/>
  <path class="cls-25" d="m122.03,56.25l2.58,6.07-1.23,5.39-3.01,4.72-4.84,13.48c-3.9,3.2-7.8,5.03-11.7,6.07l1.35-6.74v-3.37l-2.7-2.02-.67-6.07-3.37-5.29,2.02-.78,3.29,5.1.75,4.33,4.04-3.37.67,1.35-2.02,3.37,2.02,1.35,8.76-5.39,1.35-3.37-2.02-1.35.67-1.35h3.37l1.35-6.07-1.67-4.72,1-1.35Z"/>
  <path class="cls-17" d="m105.18,85.23c4.36-1.6,8.88-4.52,13.48-8.04l-3.13,8.72c-3.9,3.2-7.8,5.03-11.7,6.07l1.35-6.74Z"/>
  <path class="cls-16" d="m28.42,76.4c-1-.34-1.83.51-1.69,2.05s1.17,3.03,2.18,3.37c1,.35,1.84-.5,1.7-2.05s-1.18-3.04-2.19-3.37Z"/>
  <path class="cls-16" d="m12.1,48.78c-1-.34-1.83.51-1.69,2.05s1.17,3.03,2.18,3.37c1,.35,1.84-.5,1.7-2.05s-1.18-3.04-2.19-3.37Z"/>
  <path class="cls-16" d="m101.18,81.23c-1.19-.26-2.19.66-2.06,2.2s1.35,2.95,2.55,3.22c1.19.27,2.21-.65,2.07-2.2s-1.35-2.96-2.56-3.22Z"/>
  <path class="cls-16" d="m56.53,61.63c-1.48-.49-2.72.65-2.53,2.77s1.71,4.2,3.21,4.7c1.49.51,2.74-.63,2.55-2.77s-1.72-4.21-3.22-4.71Z"/>
  <path class="cls-18" d="m13.5,50.18l12.13,23.59,4.04.67,4.72-6.74,5.09-2.06-3.74-9.4-20.9-6.74-1.35.67Z"/>
  <path class="cls-11" d="m13.5,50.18l12.13,23.59,4.04.67,1.4-2.01-9.61-20.8-6.62-2.14-1.35.67Z"/>
  <path class="cls-6" d="m25.64,73.77l2.02,1.35c.48.47,1.67.67,3.37.67l20.22-10.79v-3.37l-6.07-2.02-.67,3.7-10.11,4.39-4.72,6.74-4.04-.67Z"/>
  <path class="cls-23" d="m44.51,63.32l6.74,1.69v-3.37l-6.07-2.02-.67,3.7Z"/>
  <path class="cls-15" d="m32.84,81.61l-.46,2.28c.13,1.35,1.14,1.93,2.7,2.02,2.46-.65,5.04-1.78,7.75-3.37l1.82-2.7-7.3,2.7c-1.39.01-2.82-.61-4.3-2.02l-.21,1.1Z"/>
  <path class="cls-24" d="m53.27,74.45l6.07-1.98,2.02,5.35,1.59,1.23-1.09.02c-.85-.21-1.64-.6-2.33-1.14l-2.89-2.64-3.37-.84Z"/>
  <path class="cls-19" d="m59.34,72.42s2.9.81,4.04.67,7.41-2.7,7.41-2.7v4.88l-7.85,3.76-1.59-1.23-2.02-5.39Z"/>
  <path class="cls-5" d="m4.07,42.77l43.14,14.83c1.29.34,2.87.11,4.72-.67l6.19-2.7h3.25l3.71,1.35,35.39,12.13-2.02.78-36.4-12.23h-3.92l-6.86,2.7c-1.63.47-3.23.73-4.72.23L3.54,44.86l.52-2.1Z"/>
  <path class="cls-27" d="m49.23,58.26l8.88-4.04h3.25l3.71,1.35,35.39,12.13-2.02.78-36.4-12.23h-3.92l-8.88,2.02Z"/>
  <path class="cls-14" d="m4.07,42.77l4.04-2.7,47.18,15.5-6.07,2.69L4.07,42.77Z"/>
  <path class="cls-1" d="m18.9,37.37l.67-1.35,98.41,32.36-.67,1.35L18.9,37.37Z"/>
  <path class="cls-26" d="m23.61,36.02h-4.04l98.41,32.36h3.37L23.61,36.02Z"/>
  <path class="cls-7" d="m121.03,57.6l1-1.35-38.42-11.46-5.16.82-11.69,3.9v.67l11.26-3.99,4.69-.44,38.33,11.85Z"/>
  <path class="cls-4" d="m34.4,67.71l-8.76,6.07c.84.59,1.89,1.03,4.04.67l4.72-6.74Z"/>
  <path class="cls-9" d="m56.05,76.31c-.08.26-.37.41-.63.32l-5.36-1.71c-.26-.09-.41-.37-.32-.63.08-.27.37-.41.63-.33l5.36,1.71c.26.08.41.36.32.63Zm-5.68.96l-5.36-1.71c-.26-.08-.54.06-.63.33-.08.26.06.54.32.63l5.36,1.71c.26.09.54-.06.63-.32.08-.26-.06-.55-.32-.63Zm-5.36,1.59l-5.36-1.71c-.26-.08-.54.06-.63.33-.08.26.06.54.32.63l5.36,1.71c.26.09.54-.06.63-.32.08-.26-.06-.55-.32-.63Zm-5.36,1.6l-5.36-1.71c-.26-.08-.54.06-.63.33-.08.26.06.54.32.63l5.36,1.71c.26.09.54-.06.63-.32.08-.26-.06-.55-.32-.63Z"/>
  <path class="cls-21" d="m56.29,62.59c1.18.38,2.38,2.02,2.52,3.76s-.88,2.62-2.05,2.2c-1.16-.41-2.35-2.03-2.49-3.74s.87-2.59,2.01-2.22Z"/>
  <path class="cls-2" d="m28.28,77.13c.83.27,1.67,1.44,1.75,2.68s-.66,1.86-1.49,1.57c-.82-.29-1.65-1.44-1.73-2.66s.65-1.84,1.46-1.58Z"/>
  <path class="cls-20" d="m11.96,49.5c.83.27,1.67,1.44,1.75,2.68s-.66,1.86-1.49,1.57c-.82-.29-1.65-1.44-1.73-2.66s.65-1.84,1.46-1.58Z"/>
  <path class="cls-12" d="m100.9,81.92c.85.27,1.73,1.44,1.86,2.68s-.59,1.86-1.42,1.57c-.83-.29-1.71-1.44-1.83-2.66s.58-1.84,1.4-1.58Z"/>
  <path class="cls-10" d="m58.78,65.97c-.77-1.25-.99-1.19-1.64-2.1-.47-.65-.75-1.09-1.43-1.37,1.17-.19,3.09.5,3.08,3.48Z"/>
  <path class="cls-10" d="m27.86,77.06c.14-.04,1-.28,1.74.54.54.59.42,1.77.41,1.93-.46-.86-.51-.84-.92-1.52-.44-.72-.84-.72-1.23-.96Z"/>
  <path class="cls-10" d="m11.53,49.43c.14-.04,1-.28,1.74.54.54.59.42,1.77.41,1.93-.5-.94-.52-.85-.93-1.53-.44-.72-.84-.71-1.22-.95Z"/>
  <path class="cls-10" d="m100.48,81.86c.14-.04,1-.28,1.77.53.55.59.49,1.79.48,1.94-.77-.96-.93-.81-1.36-1.48-.47-.72-.49-.76-.89-1Z"/>
  <path class="cls-9" d="m92.31,77.24l-1.5-2.59c-.14-.24-.06-.55.18-.69.24-.13.55-.05.68.18l2.14,3.7-1.51-.61Zm-4.06-1.64l-1.45-2.52c-.14-.24-.06-.54.18-.68.24-.13.55-.05.68.18l2.09,3.63-1.51-.61Zm-4.06-1.64l-1.41-2.45c-.14-.24-.06-.54.18-.68.24-.13.55-.05.68.18l2.05,3.55-1.51-.61Zm-4.06-1.64l-1.37-2.37c-.14-.24-.06-.55.18-.68.24-.14.55-.05.68.18l2.01,3.48-1.51-.61Zm-4.06-1.64l-1.32-2.29c-.14-.24-.06-.55.18-.68.24-.14.55-.05.68.18l1.96,3.4-1.51-.61Z"/>
</svg>