<?xml version="1.0" encoding="UTF-8"?>
<svg id="Layer_1" data-name="Layer 1" xmlns="http://www.w3.org/2000/svg" width="128" height="128" xmlns:xlink="http://www.w3.org/1999/xlink" viewBox="0 0 128 128">
  <defs>
    <style>
      .cls-1 {
        fill: url(#linear-gradient-7);
      }

      .cls-1, .cls-2, .cls-3, .cls-4, .cls-5, .cls-6, .cls-7, .cls-8, .cls-9, .cls-10, .cls-11, .cls-12, .cls-13, .cls-14, .cls-15, .cls-16, .cls-17, .cls-18, .cls-19, .cls-20 {
        stroke-width: 0px;
      }

      .cls-1, .cls-2, .cls-3, .cls-4, .cls-5, .cls-6, .cls-7, .cls-8, .cls-9, .cls-10, .cls-11, .cls-12, .cls-13, .cls-15, .cls-16, .cls-17, .cls-18, .cls-19, .cls-20 {
        fill-rule: evenodd;
      }

      .cls-2 {
        fill: #090909;
      }

      .cls-4 {
        fill: url(#linear-gradient-3);
      }

      .cls-5 {
        fill: #707070;
      }

      .cls-6 {
        fill: #010201;
      }

      .cls-7 {
        fill: url(#radial-gradient);
      }

      .cls-8 {
        fill: url(#radial-gradient-3);
      }

      .cls-9 {
        fill: url(#linear-gradient);
      }

      .cls-10 {
        fill: url(#linear-gradient-2);
      }

      .cls-11 {
        fill: #232421;
      }

      .cls-12 {
        fill: url(#linear-gradient-5);
      }

      .cls-13 {
        fill: #3b3e3d;
      }

      .cls-14 {
        fill: url(#linear-gradient-8);
      }

      .cls-15 {
        fill: url(#radial-gradient-2);
        opacity: .83;
      }

      .cls-16 {
        fill: #999;
        opacity: .74;
      }

      .cls-17 {
        fill: #0e0e0e;
      }

      .cls-18 {
        fill: url(#linear-gradient-6);
      }

      .cls-19 {
        fill: url(#linear-gradient-4);
      }

      .cls-20 {
        fill: #525252;
      }
    </style>
    <radialGradient id="radial-gradient" cx="-611.4" cy="26.63" fx="-611.4" fy="26.63" r=".64" gradientTransform="translate(20759.56 9573.37) rotate(-.65) scale(33.68 -365.19)" gradientUnits="userSpaceOnUse">
      <stop offset="0" stop-color="#2a2c28"/>
      <stop offset=".41" stop-color="#393b37"/>
      <stop offset=".87" stop-color="#181917"/>
      <stop offset="1" stop-color="#0c0c0c"/>
    </radialGradient>
    <linearGradient id="linear-gradient" x1="-611.08" y1="23.28" x2="-610.44" y2="23.28" gradientTransform="translate(20472.18 1036.45) rotate(.5) scale(33.43 -33.43)" gradientUnits="userSpaceOnUse">
      <stop offset="0" stop-color="#090909"/>
      <stop offset=".08" stop-color="#3e413d"/>
      <stop offset=".13" stop-color="#1a1b19"/>
      <stop offset=".2" stop-color="#151614"/>
      <stop offset=".32" stop-color="#5d5f5c"/>
      <stop offset=".45" stop-color="#353635"/>
      <stop offset=".58" stop-color="#5d5e5b"/>
      <stop offset=".76" stop-color="#393b37"/>
      <stop offset=".87" stop-color="#181917"/>
      <stop offset="1" stop-color="#0c0c0c"/>
    </linearGradient>
    <linearGradient id="linear-gradient-2" x1="-615.89" y1="24.38" x2="-615.25" y2="24.38" gradientTransform="translate(28374.32 1376.19) rotate(.37) scale(46.01 -46.01)" xlink:href="#linear-gradient"/>
    <radialGradient id="radial-gradient-2" cx="-565.6" cy="24.85" fx="-565.6" fy="24.85" r=".64" gradientTransform="translate(5344.54 1505.81) rotate(1.57) scale(9.41 -51.57)" gradientUnits="userSpaceOnUse">
      <stop offset="0" stop-color="#353733"/>
      <stop offset="1" stop-color="#0e0e0e"/>
    </radialGradient>
    <linearGradient id="linear-gradient-3" x1="-602.54" y1="21.56" x2="-601.9" y2="21.56" gradientTransform="translate(13738.19 1029.27) rotate(2.13) scale(22.76 -22.76)" gradientUnits="userSpaceOnUse">
      <stop offset="0" stop-color="#0a0a0a"/>
      <stop offset=".51" stop-color="#484947"/>
      <stop offset=".76" stop-color="#393b37"/>
      <stop offset=".87" stop-color="#181917"/>
      <stop offset="1" stop-color="#0c0c0c"/>
    </linearGradient>
    <radialGradient id="radial-gradient-3" cx="-687.24" cy="33.84" fx="-687.24" fy="33.84" r=".64" gradientTransform="translate(-7019.61 -1262.22) rotate(-172.42) scale(10.46 -10.46)" gradientUnits="userSpaceOnUse">
      <stop offset="0" stop-color="#555"/>
      <stop offset="1" stop-color="#0a0a0a"/>
    </radialGradient>
    <linearGradient id="linear-gradient-4" x1="-607.67" y1="22.84" x2="-607.03" y2="22.84" gradientTransform="translate(17114.36 1096.21) rotate(1.22) scale(28.1 -28.1)" gradientUnits="userSpaceOnUse">
      <stop offset="0" stop-color="#090909"/>
      <stop offset=".08" stop-color="#3e413d"/>
      <stop offset=".13" stop-color="#1a1b19"/>
      <stop offset=".2" stop-color="#151614"/>
      <stop offset=".32" stop-color="#5d5f5c"/>
      <stop offset=".45" stop-color="#a4a5a4"/>
      <stop offset=".58" stop-color="#9d9e9b"/>
      <stop offset=".76" stop-color="#393b37"/>
      <stop offset=".87" stop-color="#181917"/>
      <stop offset="1" stop-color="#0c0c0c"/>
    </linearGradient>
    <linearGradient id="linear-gradient-5" x1="-628.58" y1="-6.61" x2="-627.94" y2="-6.61" gradientTransform="translate(2941.11 -10692.77) rotate(-74.36) scale(17.65 -17.65)" gradientUnits="userSpaceOnUse">
      <stop offset="0" stop-color="#000"/>
      <stop offset="1" stop-color="#565656"/>
    </linearGradient>
    <linearGradient id="linear-gradient-6" x1="-629.44" y1="67.57" x2="-628.55" y2="67.57" gradientTransform="translate(-3618.1 9395.09) rotate(105.29) scale(15.91 -15.91)" gradientUnits="userSpaceOnUse">
      <stop offset="0" stop-color="#313131"/>
      <stop offset=".57" stop-color="#171818"/>
      <stop offset="1" stop-color="#181818"/>
    </linearGradient>
    <linearGradient id="linear-gradient-7" x1="43.36" y1="88.52" x2="84.48" y2="88.65" gradientTransform="matrix(1,0,0,1,0,0)" xlink:href="#linear-gradient-4"/>
    <linearGradient id="linear-gradient-8" x1="49.67" y1="91.21" x2="78.86" y2="91.21" gradientUnits="userSpaceOnUse">
      <stop offset="0" stop-color="#202020" stop-opacity=".9"/>
      <stop offset=".5" stop-color="#000" stop-opacity=".9"/>
      <stop offset="1" stop-color="#181818" stop-opacity=".9"/>
    </linearGradient>
  </defs>
  <path class="cls-3" d="m43.58,29.87c.15.03.1.02-.07-.03-1.29-.39-2.46-1.12-3.46-2.11-2.04-2.02-3.38-5.25-3.38-9.16,0-1.12.11-2.21.31-3.29.11-.56.47-1.04.99-1.28l2.27-1.08c.4-.2.85-.23,1.28-.11l8.61,2.48c.01-.08.02-.16.03-.23l-.78-1.57c-.25-.5-.25-1.08,0-1.59l1.08-2.22c.17-.35.45-.62.79-.8l1.29-.67c.4-.2.86-.26,1.29-.15l35.71,9.54c.62.17,1.1.65,1.27,1.26.35,1.3.55,2.71.55,4.23,0,3.87-1.27,7.64-3.29,10.54-.53.77-1.56,1.56-2.9,2.24-2.23,1.14-5.38,2.02-7.72,2.29-.16.25-.34.48-.55.71.01.29.03.59.05.92.25,5.07.62,22.96.86,30.73.23.13.44.33.59.57.55.87.83,1.79.83,2.74v1.35c0,.35-.04.68-.11,1.02.06.07.12.13.17.21.6.88.9,1.81.9,2.77v1.36c0,.49-.08.98-.24,1.45.5.8.75,1.64.75,2.51v1.35c0,.65-.14,1.28-.42,1.9,0,.19,0,.39,0,.57.21.54.31,1.08.31,1.64v1.35c0,.69-.16,1.37-.48,2.02,0,.1-.01.19-.02.28.27.6.4,1.23.4,1.86v1.36c0,.83-.23,1.63-.68,2.39.19.51.28,1.04.28,1.57v1.35c0,1.11-.4,2.19-1.21,3.18-.23,1.27-.53,2.81-.8,4.11-.22,1.07-.44,2.17-.5,2.43-.07,2.62-1.79,5.06-5.06,6.58-1.79.83-4.07,1.38-6.75,1.54-.48.02-.97.04-1.47.04-1.92,0-3.65-.2-5.18-.56-1.92-.45-3.52-1.15-4.76-2.01-2.16-1.5-3.28-3.47-3.33-5.59-.06-.32-.39-1.92-.68-3.42-.2-1-.41-2.09-.58-3.06-.77-.92-1.2-1.91-1.27-2.93-.04-.25-.06-.5-.06-.75,0-.21.05-.84.05-.95,0-.53.09-1.04.27-1.54-.48-.74-.75-1.51-.81-2.28-.04-.26-.07-.51-.07-.77,0-.21.05-.84.05-.94,0-.68.15-1.34.46-1.98-.24-.52-.38-1.06-.42-1.6-.04-.25-.07-.5-.07-.76,0-.21.05-.84.05-.95,0-.63.13-1.24.39-1.83,0-.15,0-.28,0-.42-.21-.48-.33-.97-.37-1.46-.04-.26-.07-.51-.07-.77,0-.2.05-.83.05-.94,0-.83.23-1.63.68-2.4.05-.22.1-.46.16-.69-.07-.27-.11-.54-.13-.79-.04-.26-.06-.5-.06-.76,0-.21.05-.84.05-.95,0-.96.3-1.9.91-2.77.02-.03.04-.06.06-.09-.1-.32-.16-.66-.18-.99-.04-.25-.06-.5-.06-.75,0-.21.05-.83.05-.94,0-.95.28-1.88.84-2.74.32-.48.85-.78,1.43-.82.21-7.88.25-25.93.24-30.83-1.05-1.03-1.53-2.13-1.5-3.07v-4.29l-6.81-1.79Z"/>
  <path class="cls-7" d="m52.78,111.67c0-.23-1.48-6.97-1.64-9.07-.4-5.01-1.07-7.74-1.07-17.8,0-4.11,3.23-9.66,3.35-13.68.38-12.83.27-26.53.27-26.84,0-3.08,3.5-5.58,10.58-5.58s10.58,2.5,10.58,5.58c0,.32.83,14.78,1.19,28.18.1,3.77,2.42,9.02,2.42,12.83,0,10.14-.7,12.86-1.1,17.69-.15,1.88-1.62,8.47-1.62,8.69,0,3.6-4.4,6.52-11.48,6.52s-11.48-2.93-11.48-6.52Z"/>
  <path class="cls-9" d="m52.78,111.67c0-.23-1.48-6.97-1.64-9.07-.4-5.01-1.07-7.74-1.07-17.8,0-4.11,3.23-9.66,3.35-13.68.38-12.83.27-26.53.27-26.84,0-3.08,3.5-5.58,10.58-5.58s10.58,2.5,10.58,5.58c0,.32.83,14.78,1.19,28.18.1,3.77,2.42,9.02,2.42,12.83,0,10.14-.7,12.86-1.1,17.69-.15,1.88-1.62,8.47-1.62,8.69,0,3.6-4.4,6.52-11.48,6.52s-11.48-2.93-11.48-6.52Z"/>
  <path class="cls-10" d="m52.78,111.67c0-.23-1.48-6.97-1.64-9.07-.4-5.01-1.07-7.74-1.07-17.8,0-4.11,3.23-9.66,3.35-13.68.38-12.83.27-36.54.27-36.85,0-3.08,3.5-5.58,10.58-5.58s10.58,2.5,10.58,5.58c0,.32.83,24.79,1.19,38.19.1,3.77,2.42,9.02,2.42,12.83,0,10.14-.7,12.86-1.1,17.69-.15,1.88-1.62,8.47-1.62,8.69,0,3.6-4.4,6.52-11.48,6.52s-11.48-2.93-11.48-6.52Z"/>
  <path class="cls-15" d="m58.86,35.98c-.31-1.16-2.05,79.57-.83,81.29-3.34-1.14-5.25-3.22-5.25-5.59,0-.23-1.48-6.97-1.64-9.07-.4-5.01-1.07-7.74-1.07-17.8,0-4.11,2.33-9.66,2.45-13.68.38-12.83,1.16-36.54,1.16-36.85,0-.38,2.77.69,5.18,1.7Z"/>
  <path class="cls-2" d="m75.13,39.83c-2.05,1.7-6.45,3.02-10.87,2.74-4.2-.26-8.4-1.96-10.57-3.74,0-3.37-.01-5.55-.01-5.67,0-3.08,3.5-5.4,10.58-5.02,7.09.38,10.58,3.06,10.58,6.15,0,.12.12,2.24.28,5.55Z"/>
  <path class="cls-4" d="m76.31,35.95c.11,2.48-5.96,5.45-12.04,5.39-6.09-.06-12.17-3.14-12.07-5.39v-11.88c0-3.08,4.98-5.58,12.07-5.58s12.04,2.5,12.04,5.58v11.88Z"/>
  <path class="cls-8" d="m52.19,31.65v-4.51l20.6,5.83c.56,1.19,1.44,2.31,2.76,3.44-.13,2.6-7.23,3.98-12.44,0-3.57-2.74-7.67-5.18-10.92-4.76Z"/>
  <path class="cls-19" d="m77.63,99.07c-2.13,2.25-7.36,3.79-13.47,3.75-8-.07-14.49-2.85-14.49-6.22v-1.36c0-.61.21-1.2.61-1.76,1.79,2.53,7.33,4.41,13.88,4.47,6.55.05,12.09-1.74,13.88-4.24.4.56.61,1.15.61,1.76v1.36c0,.78-.35,1.54-.99,2.21.38.56.58,1.15.58,1.76v1.36c0,3.37-6.28,6.1-14.01,6.1s-14.01-2.74-14.01-6.11v-1.36c0-.61.21-1.2.59-1.76,1.73,2.52,7.09,4.35,13.42,4.36,6.3,0,11.63-1.8,13.39-4.3Zm-27.94-7.75v-1.36c0-.61.21-1.2.61-1.76,1.8,2.52,7.35,4.35,13.92,4.34,6.57,0,12.12-1.85,13.92-4.36.4.56.61,1.15.61,1.76v1.36c0,3.37-6.51,6.11-14.53,6.12-8.02,0-14.53-2.73-14.53-6.1Zm0-5.43v-1.36c0-.61.21-1.2.61-1.76,1.8,2.52,7.38,4.34,13.97,4.33,6.59,0,12.17-1.85,13.97-4.38.4.56.61,1.15.61,1.76v1.36c0,3.37-6.53,6.11-14.59,6.13-8.05,0-14.59-2.72-14.59-6.09Zm.7-5.58v-1.36c0-.61.21-1.21.59-1.76,1.73,2.53,7.07,4.41,13.39,4.45,6.32.05,11.67-1.74,13.39-4.24.38.56.59,1.15.59,1.76v1.37c0,3.37-6.27,6.05-13.98,5.99-7.72-.07-13.98-2.84-13.98-6.21Zm.78-5.54v-1.37c0-.61.19-1.2.55-1.75,1.62,2.54,6.63,4.46,12.56,4.55,5.93.1,10.94-1.67,12.56-4.16.36.56.55,1.16.55,1.77v1.36c0,3.37-5.88,6.02-13.11,5.9-7.24-.11-13.11-2.94-13.11-6.31Z"/>
  <path class="cls-12" d="m44.03,28.13c-3.27-1.01-5.58-4.68-5.58-9.55,0-1,.1-1.99.28-2.96l2.27-1.08,10.36,3.04c.27-.59.5-1.47.62-2.87l-1.01-2.04,1.08-2.22,1.29-.67,35.68,9.53c.24,6.76-1.74,12.33-7.21,15.8-1.35.86-6.52,1.26-6.52,1.26l-31.25-8.24h0Z"/>
  <path class="cls-5" d="m38.73,15.62l2.27-1.09,32.38,9.31-2.38,1-32.27-9.22Z"/>
  <path class="cls-5" d="m52.06,10.46l1.29-.67,35.71,9.54-2.06.6-34.95-9.46Z"/>
  <path class="cls-20" d="m52.06,10.46l-.93,2.22,34.8,9.38,1.07-2.14-34.95-9.46Z"/>
  <path class="cls-17" d="m51.13,12.81l1.18,2.16,34.66,8.99-1.04-1.91-34.8-9.25Z"/>
  <path class="cls-18" d="m75.53,36.43c.36.36-33.44-9.19-34.23-9.98-1.75-1.74-3.22-5.02-2.57-10.84l32.27,9.23c.57,3.93,2.88,9.95,4.54,11.59Z"/>
  <path class="cls-13" d="m86.93,19.93l2.12-.61c.31,1.14.48,2.41.48,3.75,0,3.49-1.14,6.9-2.97,9.52-1.67,2.4-10.4,4.69-11.96,3.54-2.3-1.71-3.78-4.92-3.78-8.91,0-.8.06-1.6.17-2.38.02-.11,2.38-1,2.38-1l1.53,1.44-1.28,2.1c.05,1.39.32,2.66.77,3.74l11.88-3.52c.38-1.17.62-2.41.69-3.67l-1.13-1.9,1.09-2.1Z"/>
  <path class="cls-16" d="m74.14,35.76c-2.06-1.81-3.65-4.89-3.65-8.67,0-.79.06-1.57.17-2.33l.28.07.61-.26c-.2,1.03-.31,2.18-.31,3.25,0,3.3,1.28,6.08,2.91,7.94Z"/>
  <path class="cls-1" d="m77.67,100.17c.07.26.09.56-.06.98-1.73,2.51-7.09,4.36-13.42,4.35-6.33,0-11.69-1.85-13.42-4.37-.26.38-.44.77-.52,1.17-.04-.2-.06-.39-.06-.59,0-.21.05-.83.05-.94,0-.61.21-1.2.59-1.76,1.73,2.52,7.09,4.35,13.42,4.36,6.33,0,11.69-1.82,13.42-4.34.12.31.19.64.01,1.14Zm.38-5.32c.08.26.09.56-.07.98-1.79,2.5-7.33,4.29-13.88,4.24-6.55-.05-12.09-1.92-13.88-4.45-.27.37-.45.76-.54,1.16-.04-.2-.07-.39-.07-.59,0-.21.05-.83.05-.94,0-.61.21-1.2.61-1.75,1.79,2.53,7.33,4.4,13.88,4.45,6.55.05,12.09-1.74,13.88-4.24.12.31.19.64.01,1.14Zm.09-5.52c.08.26.09.56-.07.98-1.8,2.53-7.35,4.37-13.92,4.36-6.56,0-12.12-1.83-13.92-4.34-.27.38-.45.77-.54,1.17-.04-.18-.07-.38-.07-.59s.05-.83.05-.94c0-.61.21-1.2.61-1.76,1.8,2.52,7.35,4.35,13.92,4.34,6.57,0,12.12-1.84,13.92-4.35.12.29.19.62.01,1.12Zm.12-5.46c.08.27.09.56-.07.98-1.8,2.53-7.38,4.37-13.97,4.38-6.59,0-12.17-1.81-13.97-4.33-.27.38-.45.77-.55,1.17-.04-.18-.07-.38-.07-.57,0-.21.05-.84.05-.95,0-.61.21-1.2.61-1.75,1.8,2.5,7.38,4.33,13.97,4.32,6.59,0,12.17-1.85,13.97-4.36.12.29.19.62.01,1.12Zm-.48-5.33c.07.26.09.56-.06.98-1.73,2.5-7.07,4.29-13.39,4.25-6.32-.05-11.67-1.94-13.39-4.47-.26.38-.44.77-.52,1.17-.04-.2-.06-.39-.06-.59,0-.21.05-.83.05-.94,0-.61.21-1.2.59-1.76,1.73,2.53,7.07,4.41,13.39,4.47,6.32.04,11.67-1.75,13.39-4.25.12.31.19.64.01,1.14Zm-.92-5.36c.07.27.08.57-.06.99-1.62,2.49-6.63,4.25-12.56,4.14-5.93-.09-10.94-2-12.56-4.54-.24.37-.41.76-.49,1.16-.04-.2-.06-.39-.06-.59,0-.21.05-.83.05-.94,0-.61.19-1.2.55-1.76,1.62,2.55,6.63,4.46,12.56,4.55,5.93.1,10.94-1.65,12.56-4.14.11.29.17.64.01,1.12Z"/>
  <path class="cls-14" d="m78.18,101.56c.04.2.06.39.06.59,0,3.37-6.28,6.1-14.01,6.1s-14.01-2.74-14.01-6.11c0-.2.02-.39.06-.59.68,3.1,6.67,5.52,13.94,5.53,7.28,0,13.27-2.41,13.94-5.51Zm.4-5.32c.04.2.07.39.07.59,0,3.37-6.49,6.07-14.49,6-8-.07-14.49-2.85-14.49-6.22,0-.2.02-.39.07-.59.7,3.1,6.9,5.57,14.42,5.64,7.53.05,13.72-2.32,14.42-5.41Zm.09-5.52c.04.2.07.39.07.59,0,3.37-6.51,6.11-14.53,6.12-8.02,0-14.53-2.73-14.53-6.1,0-.19.02-.39.07-.59.7,3.1,6.91,5.52,14.46,5.52,7.55,0,13.76-2.43,14.46-5.54Zm.12-5.46c.04.2.07.39.07.59,0,3.37-6.53,6.11-14.59,6.13-8.05,0-14.59-2.72-14.59-6.09,0-.2.02-.39.07-.59.7,3.1,6.94,5.51,14.52,5.5,7.58-.02,13.82-2.45,14.52-5.55Zm-.51-5.31c.04.18.06.38.06.59,0,3.37-6.27,6.05-13.98,5.99-7.72-.07-13.98-2.84-13.98-6.21,0-.19.02-.39.06-.59.68,3.1,6.65,5.57,13.92,5.63,7.27.07,13.24-2.31,13.92-5.4Zm-.95-5.36c.04.2.06.39.06.59,0,3.37-5.88,6.02-13.11,5.9-7.24-.11-13.11-2.94-13.11-6.31,0-.21.02-.4.06-.59.63,3.1,6.24,5.61,13.05,5.72,6.81.1,12.42-2.23,13.05-5.32Z"/>
  <path class="cls-11" d="m52.06,108.09c.2-.12.42-.16.65-.16,1.19,0,2.27,1.4,2.56,5.34.06.87.09,1.8.06,2.7-1.65-1.14-2.56-2.64-2.56-4.28,0-.11-.34-1.72-.71-3.6Z"/>
  <path class="cls-3" d="m59.49,117.7c-.08-.7-.12-1.4-.12-2.07,0-3.93,1.44-5.34,3.22-5.34s3.21,1.4,3.21,5.34c0,.83-.05,1.69-.17,2.55-.45.03-.91.04-1.37.04-1.77,0-3.36-.18-4.77-.51Z"/>
  <path class="cls-3" d="m59.49,117.7c-.08-.7-.12-1.4-.12-2.07,0-3.93,1.44-5.34,3.22-5.34s3.21,1.4,3.21,5.34c0,.83-.05,1.69-.17,2.55-.45.03-.91.04-1.37.04-1.72,0-3.29-.17-4.66-.49.49.02.85.18,2.45.25.21,0,1.21.05,2.56-.02.67-.04.69.04.87.05-.01-.07-.11-.12-.12-.19-.01-.13.83-7.58-3.17-7-3.04.44-2.29,6.7-2.29,6.84l-.4.04Z"/>
  <path class="cls-11" d="m61.47,118.06c-.08-.67-.12-1.35-.12-1.98,0-3.62,1.23-5.09,2.8-5.32.99.69,1.65,2.2,1.65,4.88,0,.83-.05,1.69-.17,2.55-.45.03-.91.04-1.37.04-.99,0-1.92-.05-2.79-.16Z"/>
  <path class="cls-6" d="m71.72,116.8c0-.98.04-1.98.14-2.91.44-3.94,1.75-5.35,3.17-5.35.47,0,.9.16,1.24.51-.29,1.44-.53,2.56-.53,2.65,0,2.07-1.45,3.91-4.02,5.1Z"/>
</svg>