<svg width="30" height="30"><path d="M 29 1 L 23 1 L 23 2 L 28 2 L 28 7 L 29 7 L 29 1 Z" fill="none" stroke-width="2" stroke="#000" stroke-opacity="0.33" stroke-linejoin="round" stroke-miterlimit="3"/><path d="M 1 29 L 7 29 L 7 28 L 2 28 L 2 23 L 1 23 L 1 29 Z" fill="none" stroke-width="2" stroke="#000" stroke-opacity="0.33" stroke-linejoin="round" stroke-miterlimit="3"/><path d="M 1 1 L 1 7 L 2 7 L 2 2 L 7 2 L 7 1 L 1 1 Z" fill="none" stroke-width="2" stroke="#000" stroke-opacity="0.33" stroke-linejoin="round" stroke-miterlimit="3"/><path d="M 29 29 L 29 23 L 28 23 L 28 28 L 23 28 L 23 29 L 29 29 Z" fill="none" stroke-width="2" stroke="#000" stroke-opacity="0.33" stroke-linejoin="round" stroke-miterlimit="3"/><g><path d="M 29 1 L 23 1 L 23 2 L 28 2 L 28 7 L 29 7 L 29 1 Z" fill="none" stroke="#000" stroke-opacity="0.33" stroke-linejoin="round" stroke-miterlimit="3"/><path d="M 1 29 L 7 29 L 7 28 L 2 28 L 2 23 L 1 23 L 1 29 Z" fill="none" stroke="#000" stroke-opacity="0.33" stroke-linejoin="round" stroke-miterlimit="3"/><path d="M 1 1 L 1 7 L 2 7 L 2 2 L 7 2 L 7 1 L 1 1 Z" fill="none" stroke="#000" stroke-opacity="0.33" stroke-linejoin="round" stroke-miterlimit="3"/><path d="M 29 29 L 29 23 L 28 23 L 28 28 L 23 28 L 23 29 L 29 29 Z" fill="none" stroke="#000" stroke-opacity="0.33" stroke-linejoin="round" stroke-miterlimit="3"/></g><g><path d="M 29 1 L 23 1 L 23 2 L 28 2 L 28 7 L 29 7 L 29 1 Z" fill="#FFF"/><path d="M 1 29 L 7 29 L 7 28 L 2 28 L 2 23 L 1 23 L 1 29 Z" fill="#FFF"/><path d="M 1 1 L 1 7 L 2 7 L 2 2 L 7 2 L 7 1 L 1 1 Z" fill="#FFF"/><path d="M 29 29 L 29 23 L 28 23 L 28 28 L 23 28 L 23 29 L 29 29 Z" fill="#FFF"/></g></svg>