<svg xmlns="http://www.w3.org/2000/svg" width="40" height="40" viewBox="0 0 40 40">
  <defs>
    <style>
      .cls-1 {
        fill: #fff;
        fill-rule: evenodd;
      }
    </style>
  </defs>
  <path id="Color_Fill_1" data-name="Color Fill 1" class="cls-1" d="M20.359,6.466a35.4,35.4,0,0,1,4.1.277,0.144,0.144,0,0,1-.08.04,2.3,2.3,0,0,1-.837.159A6.417,6.417,0,0,1,20.6,6.9a0.431,0.431,0,0,1-.279.2,0.142,0.142,0,0,1,.04.079,2.668,2.668,0,0,1,.4.04,1.7,1.7,0,0,0,.279.277h0.956a2.04,2.04,0,0,0,.279.079,0.848,0.848,0,0,1,.119.357,2.128,2.128,0,0,1,0,.951c-0.054.979-.3,1.673-0.358,2.536a3.536,3.536,0,0,0,.757-0.04h0.478a0.627,0.627,0,0,1,.478-0.2,0.916,0.916,0,0,0,.877.277,7.126,7.126,0,0,0,1.713.04V10.39h0.159V11.5a10.756,10.756,0,0,0,1.116.04v-1.11h0.159v1.11l5.14,0.119,2.231,0.04a7.973,7.973,0,0,1,1.474.04h1.594a1.914,1.914,0,0,1,1.713,1.308,2.439,2.439,0,0,1-1.036,2.219,7.943,7.943,0,0,1-1.036.713,19.83,19.83,0,0,1-3.227.951c-0.6.181-1.227,0.277-1.793,0.436a1.669,1.669,0,0,0-.518.119,0.768,0.768,0,0,0-.08.159,2.248,2.248,0,0,0-.876.2,3.816,3.816,0,0,0-1.634.277c-1.523.5-3.176,0.851-4.7,1.347-0.976.317-2.159,0.335-2.709,1.07a5.8,5.8,0,0,0-1.036,2.1l-0.2,2.655c-0.115.513-.035,1.107-0.159,1.665a9.6,9.6,0,0,0-.2,1.9L25.3,30.4c0.562,0.209,1.321.361,1.355,1.07,0.36,0.565-.425,1.346-0.677,1.506-1.4.887-5.237,1.935-5.538-.634h-0.2A13.174,13.174,0,0,1,20,35H19.96a10.682,10.682,0,0,1-.2-2.655H19.522a1.684,1.684,0,0,1-.4.872c-0.96,1.407-3.475.546-4.781-.04a2.826,2.826,0,0,1-.757-0.515c-0.033-.036-0.178-0.25-0.08-0.277h-0.12a2.139,2.139,0,0,1-.08-1.07,1.886,1.886,0,0,1,1.355-.912c0.89-.329,1.859-0.621,2.749-0.951,0.446-.165.9-0.28,1.315-0.436a1.4,1.4,0,0,0,.518-0.159V28.5a8.084,8.084,0,0,1-.159-1.625c-0.365-1.543-.058-3.7-0.637-5.033a5.327,5.327,0,0,0-1.315-1.823,3.688,3.688,0,0,0-.6-0.119C15.8,19.659,15,19.52,14.223,19.267c-1.251-.409-2.574-0.65-3.865-1.07A12.362,12.362,0,0,0,8.8,17.721a0.614,0.614,0,0,0-.239.119C8.3,17.792,7.978,17.664,7.689,17.6a0.5,0.5,0,0,0-.04-0.159A10.082,10.082,0,0,1,5.5,16.929c-0.646-.2-1.271-0.226-1.912-0.436A8.917,8.917,0,0,1,1.394,15.5a2.658,2.658,0,0,1-.677-0.515A3.779,3.779,0,0,1,.08,13.838c-0.4-1.332.852-2.106,1.992-2.1a13.349,13.349,0,0,0,.04-1.387h0.08v1.387l10.04-.2v-1.07a0.563,0.563,0,0,1,.159-0.04,4.16,4.16,0,0,1,.04,1.11,5.528,5.528,0,0,0,1-.04v-1.03a0.143,0.143,0,0,0,.04-0.079h0.12v0.079a2.755,2.755,0,0,1,.04,1.03l2.351-.04c0.216-.134.021-0.258,0.518-0.277a2.056,2.056,0,0,0,1.434.238,8.421,8.421,0,0,0-.319-1.7,8.6,8.6,0,0,1-.04-1.982,3.023,3.023,0,0,1,1.554-.277V7.338h0.239a1.443,1.443,0,0,0,.359-0.357H19.6a0.346,0.346,0,0,1-.2.04,0.27,0.27,0,0,0-.08-0.159,6.794,6.794,0,0,1-3.028.119,1.234,1.234,0,0,1-.8-0.2,0.112,0.112,0,0,0,.04-0.04c0.759-.051,1.6-0.2,2.47-0.2,0.206,0,1.306.059,1.355,0.04a0.438,0.438,0,0,1,.279-0.119,7.327,7.327,0,0,1,.04-1.308A0.627,0.627,0,0,1,20.08,5,1.825,1.825,0,0,1,20.359,6.466Z"/>
</svg>
