<svg xmlns="http://www.w3.org/2000/svg" width="40" height="40" viewBox="0 0 40 40">
  <defs>
    <style>
      .cls-1 {
        fill: #fff;
        fill-rule: evenodd;
      }
    </style>
  </defs>
  <path id="Color_Fill_1" data-name="Color Fill 1" class="cls-1" d="M20.279,6.8l0.04,0.4a1,1,0,0,0,.319.04V7.08h0.239V7.24c0.608-.022,1.528-0.146,1.554.44a2.174,2.174,0,0,1,0,.96c-0.012.991-.3,1.681-0.359,2.56a3.891,3.891,0,0,0,1.2,0,0.7,0.7,0,0,1,.478-0.24c0.469,0.465,1.721.329,2.59,0.36,0-.4.029-0.773,0.04-1.12h0.159v1.12H27.61c0-.4.029-0.773,0.04-1.12h0.159v1.12c0.742,0,1.694.039,2.43,0.08a13.5,13.5,0,0,1,1.873.04c0.626,0.139,1.415-.088,1.992.04,0.626,0.139,1.415-.088,1.992.04h1.992a2.328,2.328,0,0,1,1.673.84,2.2,2.2,0,0,1-.6,2.52c-1.145,1.153-2.4,1.231-4.143,1.76-0.86.261-1.807,0.482-2.709,0.68a0.509,0.509,0,0,1-.04.16l-0.916.2a0.174,0.174,0,0,0-.12-0.12,1.56,1.56,0,0,1-.438.12c-0.543.179-1.13,0.288-1.713,0.48-1.338.44-2.794,0.783-4.143,1.2-0.589.182-1.169,0.3-1.713,0.48l-0.4.08a5.4,5.4,0,0,0-1.514,2.56L21.076,25.6c-0.116.52-.033,1.112-0.159,1.68a7.727,7.727,0,0,0-.159,1.52c1.208,0.443,2.5.829,3.705,1.28a8.487,8.487,0,0,1,1.793.64,1.352,1.352,0,0,1,.319,1.68,0.143,0.143,0,0,0-.08-0.04c0.08,0.462-.983.827-1.394,1-0.656.276-2.363,0.92-3.347,0.56a1.825,1.825,0,0,1-1-.92,1.432,1.432,0,0,1-.279-0.68H20.239v0.04a1.66,1.66,0,0,1,0,.72,10.977,10.977,0,0,1-.2,1.92A0.145,0.145,0,0,1,20,34.92a2.415,2.415,0,0,1-.08-0.68,6.129,6.129,0,0,1-.12-1.92H19.562a2.052,2.052,0,0,1-2.629,1.64c-1.318-.339-3.254-0.654-3.626-1.92a1.265,1.265,0,0,1,.358-1.2,4.024,4.024,0,0,1,1.434-.6c0.889-.335,1.862-0.621,2.749-0.96a8.675,8.675,0,0,0,1.434-.48V28.48a8.008,8.008,0,0,1-.159-1.64c-0.327-1.486-.075-3.716-0.6-5a4.987,4.987,0,0,0-1.315-1.92L8.725,17.56c-0.049.124-.015,0.09-0.159,0.12-0.208-.14-0.6-0.086-0.8-0.24a0.308,0.308,0,0,0-.12-0.12,10.184,10.184,0,0,0-1.833-.44c-1.795-.549-4.152-0.823-5.139-2.16A3.884,3.884,0,0,1,.159,13.8c-0.529-1.469.748-2.21,1.952-2.28a4.48,4.48,0,0,1,.08-1.4l0.04,1.4c3.371,0.009,6.714-.172,10.04-0.2,0-.4.029-0.773,0.04-1.12h0.12c0.008,0.346.039,0.725,0.04,1.12h1c0-.4.029-0.773,0.04-1.12h0.12c0.008,0.346.039,0.725,0.04,1.12,0.471-.009,1.027-0.04,1.554-0.04H15.9a1.434,1.434,0,0,1,.6-0.32,2.069,2.069,0,0,0,1.474.24,9.005,9.005,0,0,0-.319-1.68,8.239,8.239,0,0,1-.04-2.04,2.6,2.6,0,0,1,1.554-.24V7.08H19.4V7.24h0.279a1.008,1.008,0,0,0,.04-0.32,0.348,0.348,0,0,0,.04-0.2h-0.08c-0.222.129-.226-0.108-0.438-0.08-0.152.02-.424,0.121-0.6,0.16a7.777,7.777,0,0,1-3.108-.2L15.5,6.52c0.271-.033.6-0.1,0.877-0.16l1.554-.04a13.864,13.864,0,0,0,1.474,0,0.534,0.534,0,0,1,.279-0.08c0-.448.077-0.652,0.08-1.08a0.6,0.6,0,0,1,.159-0.08c0.327-.223.383,0.256,0.359,0.56a0.662,0.662,0,0,1,.04.6,0.757,0.757,0,0,1,.319.08l1.315-.04a14.487,14.487,0,0,1,2.51.2V6.56c-0.578.07-1.279,0.151-1.872,0.28a5.625,5.625,0,0,1-1.952-.16,0.32,0.32,0,0,1-.239.16A0.2,0.2,0,0,0,20.279,6.8Z"/>
</svg>
