<svg xmlns="http://www.w3.org/2000/svg" width="40" height="40" viewBox="0 0 40 40">
  <defs>
    <style>
      .cls-1 {
        fill: #fff;
        fill-rule: evenodd;
      }
    </style>
  </defs>
  <path id="Color_Fill_1" data-name="Color Fill 1" class="cls-1" d="M20.351,6.138V6.405c0.5-.02,1.582-0.131,1.754.312a2.107,2.107,0,0,1,.131,1.158,11.473,11.473,0,0,1-.263,2.138,2.846,2.846,0,0,0-.044.846c0.457,0.3,1.488-.188,1.8-0.223a2.332,2.332,0,0,0,1.8.312,2.092,2.092,0,0,0,.833.045V9.879h0.175v1.113l5.789,0.134,2.588,0.045a8.42,8.42,0,0,1,1.579.045h0.965a2.58,2.58,0,0,1,2.281.757,2.2,2.2,0,0,1-.526,2.583c-1.081,1.21-2.742,1.372-4.518,1.915a10.356,10.356,0,0,1-2.368.579,0.218,0.218,0,0,1-.044.134,1.239,1.239,0,0,1-1.009.134c-0.362.1-.747,0.181-1.14,0.312-1.674.555-3.5,0.954-5.175,1.514-0.541.181-1.083,0.28-1.579,0.445a2.439,2.439,0,0,0-.57.134,5.643,5.643,0,0,0-1.491,2.583L21.14,24.8,20.746,28.72a9.351,9.351,0,0,1,1.93.668c1.084,0.409,2.847.71,3.684,1.336a4.007,4.007,0,0,1,.351.49,1.235,1.235,0,0,1-.175,1.113,0.126,0.126,0,0,0-.044-0.045c0.029,0.545-.8.775-1.272,0.98-1.3.568-3.449,1.276-4.386-.178a1.7,1.7,0,0,1-.351-0.846H20.263A10.931,10.931,0,0,1,20,35a26.86,26.86,0,0,1-.219-2.761H19.561a2.033,2.033,0,0,1-2.588,1.692c-1.365-.332-2.916-0.636-3.465-1.648a0.157,0.157,0,0,1-.088.045,1.585,1.585,0,0,1-.044-1.113c0.232-.693.95-0.772,1.623-1.024,0.938-.352,1.926-0.616,2.895-0.98a7.92,7.92,0,0,1,1.4-.49,8.642,8.642,0,0,0-.175-1.559c-0.144-.63-0.044-1.293-0.175-1.871l-0.219-2.984a5.641,5.641,0,0,0-1.491-2.583,2.4,2.4,0,0,0-.57-0.134c-0.653-.215-1.362-0.348-2.061-0.579-1.777-.587-3.706-1.022-5.482-1.6a0.555,0.555,0,0,0-.526.044c-0.251-.119-0.63-0.153-0.877-0.267V17.05A7.769,7.769,0,0,1,5.7,16.56a32.286,32.286,0,0,1-3.2-.846,7.032,7.032,0,0,1-1.1-.668A2.43,2.43,0,0,1,.877,14.69a3.812,3.812,0,0,1-.789-1.381c-0.374-1.322.876-2.093,2.018-2.093V9.79H2.193v1.292a0.229,0.229,0,0,1,.044.134l11.228-.223c0-.395.028-0.775,0.044-1.113H13.64c0.015,0.367,0,.672,0,1.113l2.369-.045,0.044-.178a0.749,0.749,0,0,1,.439-0.134,2.632,2.632,0,0,0,1.623.267l0.044-.134A4.843,4.843,0,0,1,18.07,9.7a7.123,7.123,0,0,1-.132-3.073,4.058,4.058,0,0,1,1.754-.223A0.828,0.828,0,0,1,19.781,6H19.649a1.907,1.907,0,0,1-.482-0.045c-0.726.176-3.025,0.363-3.6-.089a0.125,0.125,0,0,1-.044-0.045h0.088a2.225,2.225,0,0,1,.833-0.134A10.785,10.785,0,0,1,18.553,5.6H19.43a0.214,0.214,0,0,1,.219-0.089c-0.023-.658-0.132-1.431.439-1.514a1.668,1.668,0,0,1,.219.223,2.283,2.283,0,0,1,.044,1.292h0.263V5.6h0.921a11.03,11.03,0,0,1,2.149.089,2.131,2.131,0,0,1,.833.134H24.43A2.609,2.609,0,0,1,23.465,6a7.143,7.143,0,0,1-2.851-.045C20.52,6.1,20.552,6.124,20.351,6.138Z"/>
</svg>
