<svg xmlns="http://www.w3.org/2000/svg" width="40" height="40" viewBox="0 0 40 40">
  <defs>
    <style>
      .cls-1 {
        fill: #fff;
        fill-rule: evenodd;
      }
    </style>
  </defs>
  <path id="Color_Fill_1" data-name="Color Fill 1" class="cls-1" d="M20.273,5.627H20.39a2.031,2.031,0,0,1-.039.587c0.272,0,.331.077,0.624,0.078a12.224,12.224,0,0,1,3.509.2V6.527c-0.839.092-2.946,0.585-3.782,0.118a0.416,0.416,0,0,0-.2.157l-0.234-.039V6.88a0.622,0.622,0,0,1,.039.313H20.39a0.514,0.514,0,0,0,.273.039V7.115h0.195V7.232c0.572-.018,1.373-0.112,1.52.313A2.233,2.233,0,0,1,22.5,8.877c-0.044.8-.38,1.458-0.429,2.311L23,11.227a1.376,1.376,0,0,1,.39-1.1,0.515,0.515,0,0,1,.351-0.078,1.406,1.406,0,0,1,.507,1.214h2.105c0-.778.039-1.217,0.039-2H26.55c0,0.748,0,1.235,0,2.037,0.744,0,1.491.038,2.183,0.039a8.212,8.212,0,0,1,1.52.039c0.613,0.136,1.385-.086,1.949.039h0.936l1.637,0.039A7.163,7.163,0,0,1,36.1,11.5h1.949a2.271,2.271,0,0,1,1.754.9c0.532,1.016-.206,1.878-0.624,2.428-1,1.317-3.179,1.486-4.99,2a13.872,13.872,0,0,1-1.871.47,0.189,0.189,0,0,1-.039.117,2.684,2.684,0,0,1-.936.235,0.207,0.207,0,0,0-.195-0.078,11.349,11.349,0,0,0-1.131.313c-1.579.518-3.3,0.895-4.873,1.41-0.586.191-1.167,0.3-1.715,0.47a2.543,2.543,0,0,0-.624.157,5.6,5.6,0,0,0-1.481,2.467V22.82c-0.12.539-.024,1.167-0.156,1.762l-0.429,4.23a5.109,5.109,0,0,1,1.131.392c0.781,0.3,1.584.5,2.339,0.783a9.879,9.879,0,0,1,2.066.744,1.306,1.306,0,0,1,.468,1.292c-0.347,1.195-2.2,1.575-3.548,1.919a2.024,2.024,0,0,1-2.69-1.645H20.234v0.039a1.6,1.6,0,0,1,0,.744A10.314,10.314,0,0,1,20.039,35,0.141,0.141,0,0,1,20,34.922a2.15,2.15,0,0,1-.078-0.627,6.175,6.175,0,0,1-.117-2H19.532a2.024,2.024,0,0,1-2.69,1.645c-1.344-.332-3.212-0.736-3.548-1.919a1.308,1.308,0,0,1,.468-1.292,9.772,9.772,0,0,1,2.066-.744c0.757-.282,1.555-0.492,2.339-0.783a6.021,6.021,0,0,1,1.131-.392L18.947,25.4l-0.234-3.016a5.6,5.6,0,0,0-1.481-2.467,2.538,2.538,0,0,0-.624-0.157c-0.5-.154-1.026-0.258-1.559-0.431-1.865-.605-3.867-1.041-5.731-1.645a1.426,1.426,0,0,0-.585-0.117,0.279,0.279,0,0,1-.234.078,4.5,4.5,0,0,1-.78-0.235V17.3a11.068,11.068,0,0,1-1.871-.47c-1.734-.5-3.123-0.621-4.444-1.527a2.318,2.318,0,0,1-.546-0.392A4.6,4.6,0,0,1,.195,13.89c-0.635-1.552.658-2.258,1.91-2.389a13.707,13.707,0,0,0,.039-1.41H2.183v0.039A5.312,5.312,0,0,1,2.222,11.5l11.267-.2c0-.8.006-1.289,0-2.037h0.156l0.039,2H15.79a1.5,1.5,0,0,1,.39-1.136,0.515,0.515,0,0,1,.351-0.078,1.314,1.314,0,0,1,.507,1.175l0.936-.039a8.263,8.263,0,0,0-.39-1.841,4,4,0,0,1,.078-1.88,2.516,2.516,0,0,1,1.521-.235V7.115h0.195V7.232a1.507,1.507,0,0,0,.351-0.039V6.88a0.265,0.265,0,0,0,.039-0.157H19.415c-0.061-.032.021-0.124-0.117-0.117a6.778,6.778,0,0,0-.858.2H17.778a10.306,10.306,0,0,1-2.261-.235V6.527h0.039a2.363,2.363,0,0,1,.9-0.157,9.009,9.009,0,0,1,1.52-.078l0.312-.039a3.979,3.979,0,0,0,1.131.039V6.214h0.234V5.627h0.117V5.117l0.117-.039C20.2,4.836,20.3,5.245,20.273,5.627Z"/>
</svg>
