<svg xmlns="http://www.w3.org/2000/svg" width="40" height="40" viewBox="0 0 40 40">
  <defs>
    <style>
      .cls-1 {
        fill: #fff;
        fill-rule: evenodd;
      }
    </style>
  </defs>
  <path id="Color_Fill_1" data-name="Color Fill 1" class="cls-1" d="M20.279,7.061l0.04,0.4a1,1,0,0,0,.319.04V7.338h0.239V7.5c0.608-.022,1.528-0.145,1.554.436a2.134,2.134,0,0,1,0,.951c-0.012.982-.3,1.666-0.359,2.536a3.926,3.926,0,0,0,1.2,0,0.7,0.7,0,0,1,.478-0.238c0.469,0.461,1.721.326,2.59,0.357,0-.392.029-0.766,0.04-1.11h0.159v1.11H27.61c0-.392.029-0.766,0.04-1.11h0.159v1.11c0.742,0,1.694.039,2.43,0.079a13.643,13.643,0,0,1,1.873.04c0.626,0.138,1.415-.087,1.992.04,0.626,0.138,1.415-.087,1.992.04h1.992a2.335,2.335,0,0,1,1.673.832,2.171,2.171,0,0,1-.6,2.5c-1.145,1.143-2.4,1.22-4.143,1.744-0.86.259-1.807,0.477-2.709,0.674a0.5,0.5,0,0,1-.04.159l-0.916.2a0.173,0.173,0,0,0-.12-0.119,1.575,1.575,0,0,1-.438.119c-0.543.177-1.13,0.286-1.713,0.476-1.338.436-2.794,0.776-4.143,1.189-0.589.18-1.169,0.3-1.713,0.476l-0.4.079A5.344,5.344,0,0,0,21.315,22.6l-0.239,3.091c-0.116.515-.033,1.1-0.159,1.665a7.587,7.587,0,0,0-.159,1.506c1.208,0.439,2.5.821,3.705,1.268a8.536,8.536,0,0,1,1.793.634,1.331,1.331,0,0,1,.319,1.664,0.145,0.145,0,0,0-.08-0.04c0.08,0.458-.983.819-1.394,0.991-0.656.274-2.363,0.911-3.347,0.555a1.819,1.819,0,0,1-1-.911,1.412,1.412,0,0,1-.279-0.674H20.239v0.04a1.63,1.63,0,0,1,0,.713,10.779,10.779,0,0,1-.2,1.9A0.143,0.143,0,0,1,20,34.921a2.371,2.371,0,0,1-.08-0.674,6.017,6.017,0,0,1-.12-1.9H19.562a2.052,2.052,0,0,1-2.629,1.625c-1.318-.335-3.254-0.648-3.626-1.9a1.246,1.246,0,0,1,.358-1.189,4.044,4.044,0,0,1,1.434-.594c0.889-.331,1.862-0.615,2.749-0.951a8.723,8.723,0,0,0,1.434-.476V28.54a7.863,7.863,0,0,1-.159-1.625c-0.327-1.472-.075-3.681-0.6-4.954a4.941,4.941,0,0,0-1.315-1.9L8.725,17.721c-0.049.123-.015,0.09-0.159,0.119-0.208-.139-0.6-0.085-0.8-0.238a0.307,0.307,0,0,0-.12-0.119,10.261,10.261,0,0,0-1.833-.436C4.022,16.5,1.664,16.232.677,14.908A3.838,3.838,0,0,1,.159,14c-0.529-1.455.748-2.189,1.952-2.259a4.4,4.4,0,0,1,.08-1.387l0.04,1.387c3.371,0.009,6.714-.171,10.04-0.2,0-.392.029-0.766,0.04-1.11h0.12c0.008,0.343.039,0.718,0.04,1.11h1c0-.392.029-0.766,0.04-1.11h0.12c0.008,0.343.039,0.718,0.04,1.11,0.471-.009,1.027-0.04,1.554-0.04H15.9a1.438,1.438,0,0,1,.6-0.317,2.086,2.086,0,0,0,1.474.238,8.848,8.848,0,0,0-.319-1.664,8.088,8.088,0,0,1-.04-2.021A2.617,2.617,0,0,1,19.163,7.5V7.338H19.4V7.5h0.279a0.99,0.99,0,0,0,.04-0.317,0.342,0.342,0,0,0,.04-0.2h-0.08c-0.222.128-.226-0.107-0.438-0.079-0.152.02-.424,0.12-0.6,0.159a7.847,7.847,0,0,1-3.108-.2L15.5,6.783c0.408-.048.957-0.1,1.394-0.2h1.036a13.95,13.95,0,0,0,1.474,0,0.545,0.545,0,0,1,.239-0.079,6.581,6.581,0,0,1,.08-1.347A1.563,1.563,0,0,1,20.08,5a0.867,0.867,0,0,1,.239.238,2.3,2.3,0,0,1,.04,1.268,0.509,0.509,0,0,1,.279.079l1.315-.04a14.626,14.626,0,0,1,2.51.2V6.823c-0.578.069-1.279,0.15-1.872,0.277a5.676,5.676,0,0,1-1.952-.159A0.32,0.32,0,0,1,20.4,7.1,0.2,0.2,0,0,0,20.279,7.061Z"/>
</svg>
