<svg xmlns="http://www.w3.org/2000/svg" width="40" height="40" viewBox="0 0 40 40">
  <defs>
    <style>
      .cls-1 {
        fill: #fff;
        fill-rule: evenodd;
      }
    </style>
  </defs>
  <path id="Color_Fill_1" data-name="Color Fill 1" class="cls-1" d="M20.189,5.381l1.469,0.042a6.06,6.06,0,0,1,2.225.085,5.943,5.943,0,0,1,1.049.169V5.72H24.89a3.12,3.12,0,0,1-.965.127,28.029,28.029,0,0,1-3.694.085V6.059A19.733,19.733,0,0,1,22.5,6.1c0.063,0.094.2,0.166,0.252,0.254a4.283,4.283,0,0,1-.042,2.076H22.5V8.517c0.151,0.05.154,0.064,0.168,0.254a0.489,0.489,0,0,0-.084.127l-0.126-.042V9.11a1.535,1.535,0,0,0-.084.72,19.786,19.786,0,0,1,4.491.3c0.692,0.154,1.417.069,2.057,0.212l0.84,0.042c1.047,0.236,2.272.149,3.316,0.381l0.84,0.042c1.09,0.245,2.364.174,3.442,0.424a9.517,9.517,0,0,1,1.511.254,2.042,2.042,0,0,1,.8,2.966,5.484,5.484,0,0,1-2.854,1.992,2.12,2.12,0,0,1-1.427,1.78c-0.574.2-1.193,0.108-1.8,0.254-2.592.621-5.47,0.642-8.059,1.271l-1.385.169a1.921,1.921,0,0,1-.839.127c-0.193-.05-0.4-0.245-0.588-0.3a3.043,3.043,0,0,0-1.091.381v0.466a3.709,3.709,0,0,0-.084.932c-0.122.557-.036,1.174-0.168,1.78l-0.63,5.551c1.234,0.47,2.383,1.208,3.568,1.737a7.756,7.756,0,0,1,2.1,1.059c0.076,0.079.094,0.217,0.168,0.3a3.34,3.34,0,0,1-.042.8c-0.156.117-.251,0.318-0.42,0.424a13.629,13.629,0,0,1-2.476.72,13.34,13.34,0,0,1-2.183.636C21.164,33.91,20.7,33.412,20.4,32.8H20.315v0.085a0.218,0.218,0,0,1,.042.127H20.231a1.79,1.79,0,0,1-.126.678c-0.105.4-.01,0.942-0.084,1.314H19.979V34.661a3.545,3.545,0,0,1-.042-0.763,3.486,3.486,0,0,0-.294-1.1v0.042c-0.3.311-.828,1.6-1.175,1.695a3.856,3.856,0,0,0-.923-0.254C16.7,34,15.751,33.755,14.9,33.475a2.275,2.275,0,0,1-1.343-.636,1.411,1.411,0,0,1,0-1.1,36.241,36.241,0,0,1,4.155-2.161,4.68,4.68,0,0,0,1.595-.848,13.183,13.183,0,0,1-.252-2.161c-0.16-.716-0.082-1.514-0.252-2.288-0.116-.526-0.042-1.121-0.168-1.695a19.333,19.333,0,0,1-.252-2.5,2.363,2.363,0,0,0-1.049-.339,1.555,1.555,0,0,1-.881.3c-2.246-.483-4.694-0.564-6.925-1.1-0.669-.161-1.349-0.149-1.973-0.3-2.084-.494-3.938,0-4.365-2.246A4.721,4.721,0,0,1,.21,14.153a2.055,2.055,0,0,1,.756-2.585,5.746,5.746,0,0,1,1.385-.3c0.923-.218,2.04-0.159,2.98-0.381l0.8-.042C7.3,10.579,8.685,10.7,9.864,10.424l0.8-.042c0.657-.149,1.394-0.053,2.1-0.212a23.176,23.176,0,0,1,4.911-.339c0-.411-0.08-0.663-0.084-1.1H17.5a0.6,0.6,0,0,1-.294.127v-0.3a0.389,0.389,0,0,0,.168-0.127,3.917,3.917,0,0,1-.084-2.076c0.093-.063.164-0.206,0.252-0.254a8.371,8.371,0,0,1,2.225-.042V5.932a13.036,13.036,0,0,0-1.511,0,14.184,14.184,0,0,1-3.064-.212l-0.042-.127h0.084a3.88,3.88,0,0,1,1.091-.127,5.07,5.07,0,0,1,1.8-.042l1.721-.042V5.042h0.084a0.271,0.271,0,0,1,.252,0V5.381Z"/>
</svg>
