<svg xmlns="http://www.w3.org/2000/svg" width="40" height="40" viewBox="0 0 40 40">
  <defs>
    <style>
      .cls-1 {
        fill: #fff;
        fill-rule: evenodd;
      }
    </style>
  </defs>
  <path id="Color_Fill_1" data-name="Color Fill 1" class="cls-1" d="M24.24,11.523V11.3a5.777,5.777,0,0,1-1.614-.149l1.651-.112a0.668,0.668,0,0,1,.488-0.634,3.363,3.363,0,0,0,.488.634l1.538,0.112v0.037H26.717a6.11,6.11,0,0,1-1.538.112v0.224h0.3l0.037,0.112a4.264,4.264,0,0,1,.075,1.081,1.158,1.158,0,0,0,.338.261,2.389,2.389,0,0,0,.488.447,24.718,24.718,0,0,0,2.814.261c1.074,0.242,2.347.075,3.415,0.335,0.417,0.1.862,0.02,1.238,0.112,0.417,0.1.862,0.02,1.238,0.112,0.551,0.134,1.141.025,1.651,0.149,0.663,0.162,1.43.032,2.064,0.186a3.93,3.93,0,0,1,.75.074,1.338,1.338,0,0,1,.15,1.752,1.989,1.989,0,0,1-.563.447l-3.3.485V17.45l-3.264.485a0.241,0.241,0,0,0-.038-0.149,2.863,2.863,0,0,1-.9.149c-0.588.139-1.248,0.113-1.876,0.261-1.113.262-2.37,0.273-3.49,0.522H24.991a32.132,32.132,0,0,0-3.452.037,1.731,1.731,0,0,0-.338.559v2.46c0,2.14-.139,4.227-0.225,6.188h0.075a6.134,6.134,0,0,0,1.426.373c1.08,0.348,2.279.635,3.377,0.932a4.641,4.641,0,0,1,.113,2.46c-0.085.055-.146,0.18-0.225,0.224a10.338,10.338,0,0,1-1.914.149L20.6,32.36V31.987H20.563v0.037c-0.108.168-.08,0.469-0.188,0.708-0.061.137-.289,0.215-0.338,0.336A8.887,8.887,0,0,1,20,34a8.868,8.868,0,0,0-.038-1.044h-0.15c-0.134-.293-0.212-0.628-0.338-0.969H19.437V32.36c-0.95-.026-2.033-0.238-2.927-0.261a11.621,11.621,0,0,1-2.251-.186A1.485,1.485,0,0,1,14,31.54a7.238,7.238,0,0,1,.113-2.2,12.811,12.811,0,0,1,2.064-.6c0.92-.3,1.926-0.565,2.889-0.783V27.775a4.583,4.583,0,0,1-.113-1.081,0.545,0.545,0,0,1-.375,0l0.375-.037c0.012-1.775-.113-3.575-0.113-5.442a4.721,4.721,0,0,0-.3-2.423,5.149,5.149,0,0,0-1.463-.075H13.846a12.309,12.309,0,0,1-1.989-.3c-0.721-.168-1.462-0.14-2.139-0.3a17.582,17.582,0,0,1-2.289-.335c-0.016.134,0.018,0.094-.075,0.149a4.219,4.219,0,0,0-1.013-.149,19.1,19.1,0,0,0-2.176-.335V17.338l-3.3-.485a1.8,1.8,0,0,1-.488-0.41,1.424,1.424,0,0,1-.3-1.3c0.037-.107.134-0.213,0.188-0.335a6.718,6.718,0,0,1,2.552-.373,4.806,4.806,0,0,1,.038-1.267,6.887,6.887,0,0,0,.038,1.23H3.265a13.74,13.74,0,0,1,2.064-.186c0.648-.141,1.373-0.036,2.064-0.186,0.391-.085.839-0.017,1.276-0.112a8.807,8.807,0,0,1,1.726-.149v0.186h0.037a0.7,0.7,0,0,1,.338-0.037l0.038-.224a7.946,7.946,0,0,0,1.726-.149,8.224,8.224,0,0,0,1.088-.112,5.752,5.752,0,0,0,.863-0.708,2.587,2.587,0,0,1,.037-1.155,1.1,1.1,0,0,1,.338-0.037V11.3H14.784c-0.387-.23-1.214.128-1.538-0.149l1.651-.112a0.794,0.794,0,0,1,.375-0.6c0.336-.154.342,0.54,0.638,0.6a7.179,7.179,0,0,0,1.5.112v0.037H17.336A6.828,6.828,0,0,1,15.8,11.3v0.224h0.3L16.135,11.6a1.91,1.91,0,0,1,.075,1.156,2.143,2.143,0,0,0,.938.634,6.936,6.936,0,0,0,1.651.037V8.914a9.487,9.487,0,0,1,.263-2.945c-0.053-.008.015,0.031-0.038,0.037-0.029.072-.038-0.075-0.038-0.075a1.224,1.224,0,0,1,.788-0.559,0.842,0.842,0,0,0,0,.224H20a0.311,0.311,0,0,1,.038-0.186V5.6H20.15c0.034-.183.071-0.073,0.113-0.149C20.331,5.324,20.235,5.1,20.3,5a1.561,1.561,0,0,0,.075.447,0.317,0.317,0,0,1,.3.112A1.486,1.486,0,0,1,21.2,6.715V7.348a7.087,7.087,0,0,1,.038,1.342q-0.019,1.621-.038,3.243a9.089,9.089,0,0,0,.038,1.491h1.651a0.326,0.326,0,0,1,.188-0.037,2.085,2.085,0,0,0,.751-0.783A1.94,1.94,0,0,1,23.9,11.56,1.1,1.1,0,0,1,24.24,11.523ZM20,5.3a0.946,0.946,0,0,1,.188.075,0.688,0.688,0,0,1-.338-0.037A0.244,0.244,0,0,0,20,5.3Zm-9.606,8.424a0.688,0.688,0,0,1,.338.037A0.688,0.688,0,0,1,10.394,13.722Z"/>
</svg>
