<svg xmlns="http://www.w3.org/2000/svg" width="40" height="40" viewBox="0 0 40 40">
  <defs>
    <style>
      .cls-1 {
        fill: #fff;
        fill-rule: evenodd;
      }
    </style>
  </defs>
  <path id="Color_Fill_1" data-name="Color Fill 1" class="cls-1" d="M20.747,6.745a1.26,1.26,0,0,1,.29.042,13.056,13.056,0,0,1,.415,3.615,7.429,7.429,0,0,0,1.95.041,0.448,0.448,0,0,1,.249-0.041V10.319a1.1,1.1,0,0,1,0-.79A0.181,0.181,0,0,1,23.527,9.4a0.227,0.227,0,0,0,.124-0.166,0.368,0.368,0,0,1-.124-0.125,0.428,0.428,0,0,0,.166-0.208,0.163,0.163,0,0,1-.166-0.125,0.314,0.314,0,0,0,.166-0.208c-0.109,0-.081.032-0.166-0.083A0.356,0.356,0,0,0,23.734,8.2H23.693s-0.055.12-.083,0.083V8.241a0.253,0.253,0,0,1-.083-0.083,0.58,0.58,0,0,1,.29-0.166V7.825a0.606,0.606,0,0,1,.332-0.291V7.327H24.108a0.8,0.8,0,0,1-.539.042,9.807,9.807,0,0,1-1.494-.125l2.116-.125a0.646,0.646,0,0,1,.622-0.582c0.064,0.106.184,0.155,0.249,0.249l0.124,0.332h0.332c0.385,0.232,1.448-.07,1.826.166-0.8,0-1.46.058-2.116,0.042a0.6,0.6,0,0,1-.042.208,0.412,0.412,0,0,1,.373.457l0.207,0.042a0.455,0.455,0,0,0,.083.125V8.241H25.768c-0.071.063-.054-0.049-0.124,0.083h0.041a0.28,0.28,0,0,0,.207.083c0,0.728-.1,1.483-0.083,2.036h0.083a4.414,4.414,0,0,0,1.037.249c0.8,0.245,1.655.368,2.49,0.623,2.5,0.766,5.126,1.31,7.593,2.119,1.075,0.353,2.058.4,2.614,1.246a2.5,2.5,0,0,1,.249.54v0.332a1.665,1.665,0,0,1,.041,1.08A2.433,2.433,0,0,1,38.423,18.3l-0.747.042c-0.729.161-1.6,0-2.365,0.166a11.293,11.293,0,0,1-2.282.125l-0.083.083H32.365c-0.352.078-.854,0.044-1.2,0.125l-5.56.332a5.489,5.489,0,0,1-2.282-.54,1.773,1.773,0,0,0-1.12-.249,2.849,2.849,0,0,0-.664,1.454,1.736,1.736,0,0,1,.705.041,2.644,2.644,0,0,0-.747.042,8.761,8.761,0,0,1-.207,1.454q-0.042,1.454-.083,2.909c-0.093.43-.031,1.022-0.124,1.454v0.789l-0.332,3.532a0.843,0.843,0,0,0,.456.083L22.78,30.3c1.538,0.382,3.3.646,4.025,1.828a1.436,1.436,0,0,1-.29,1.62c-0.807.808-2.418,1.011-4.025,1v0.125a7.09,7.09,0,0,0-1.618.083,1.6,1.6,0,0,1-.788-0.083,10.358,10.358,0,0,1-2.614,0V34.751a6.8,6.8,0,0,1-3.735-.79,1.178,1.178,0,0,1-.664-1.163V32.382a2.176,2.176,0,0,1,1.037-1.039,9.771,9.771,0,0,1,5.021-1.2,0.371,0.371,0,0,1,.125-0.125C18.993,29.2,19.2,28.239,19,27.355c-0.123-.561-0.04-1.326-0.166-1.911V24.737c-0.111-.513.041-1.132-0.083-1.7-0.133-.611.059-1.393-0.083-2.036l-0.207-1.122a1.484,1.484,0,0,1-.622-0.041h0.581a2.194,2.194,0,0,0-.747-1.5,6.655,6.655,0,0,1-.871.166c-0.229.095-.5,0.282-0.747,0.374a6.894,6.894,0,0,1-3.319.166c-0.458-.112-0.961.017-1.369-0.083H10.664C10.1,18.835,9.39,18.93,8.838,18.8H8.216c-0.931-.211-2.06-0.022-2.988-0.249H4.647c-1.226-.278-2.876.041-3.734-0.582A2.639,2.639,0,0,1,.5,14.474a2.994,2.994,0,0,1,1.7-.831c0.828-.268,1.705-0.429,2.573-0.706a8.391,8.391,0,0,1,1.452-.415V10.485a2.231,2.231,0,0,1,.042-0.831v2.784a0.588,0.588,0,0,0,.166.042,3.7,3.7,0,0,1,1.037-.291c0.678-.209,1.444-0.406,2.116-0.623a6.142,6.142,0,0,1,1-.208c0.14,0.2.049,0.3,0.415,0.291,0.036-.027.13-0.056,0.166-0.083a0.149,0.149,0,0,0,.042-0.083,2.614,2.614,0,0,0,0-.332l2.946-.706,0.083-.623H14.149c-0.061-.091,0-0.046,0-0.166a0.181,0.181,0,0,0,.124-0.125A0.163,0.163,0,0,1,14.108,9.4,0.315,0.315,0,0,0,14.274,9.2c-0.109,0-.081.032-0.166-0.083a0.417,0.417,0,0,0,.207-0.249c-0.124.029-.139,0.051-0.207-0.083a0.315,0.315,0,0,0,.166-0.208c-0.109,0-.081.032-0.166-0.083a0.4,0.4,0,0,0,.249-0.332H14.315c-0.066.094-.068,0.087-0.125,0.083a0.253,0.253,0,0,1-.083-0.083,0.58,0.58,0,0,1,.29-0.166V7.825a0.7,0.7,0,0,0,.332-0.457H14.647a1.8,1.8,0,0,1-.539,0,10.374,10.374,0,0,1-1.452-.125l2.116-.125c0.141-.347.452-0.826,0.788-0.374a0.6,0.6,0,0,1,.207.374,16.587,16.587,0,0,1,2.2.166c-0.822,0-1.485.059-2.158,0.042V7.368a0.143,0.143,0,0,1,0,.166,2.24,2.24,0,0,1,.622.623V8.241H16.349c-0.071.063-.054-0.049-0.124,0.083h0.041c0.065,0.054.171,0.024,0.249,0.083a1.7,1.7,0,0,1,.041.748,3.476,3.476,0,0,0-.041.748l-0.166.5h0.207a7.072,7.072,0,0,0,1.992,0V9.571a3.308,3.308,0,0,0,.083-0.706,4.378,4.378,0,0,1,.581-1.62s0.018,0.165.041,0.083V7.285c0.113-.136.029-0.3,0.166-0.457a2.257,2.257,0,0,1,.29-0.083V6.7l0.125-.374c0.056-.083.242-0.132,0.291-0.208V5.873c-0.114-.018-0.092-0.14-0.083-0.374h0.041a0.348,0.348,0,0,0,.042.208V5.665A2.348,2.348,0,0,1,20.291,5V5.457c0.1,0.156-.032.481,0.083,0.665L20.5,6.163A0.789,0.789,0,0,1,20.747,6.745Z"/>
</svg>
