<svg xmlns="http://www.w3.org/2000/svg" width="39.938" height="40" viewBox="0 0 39.938 40">
  <defs>
    <style>
      .cls-1 {
        fill: #fff;
        fill-rule: evenodd;
      }
    </style>
  </defs>
  <path id="Color_Fill_1" data-name="Color Fill 1" class="cls-1" d="M23.027,11.432a3.761,3.761,0,0,1-.1-1.342c0.059-.229.208-0.327,0.259-0.568a5.486,5.486,0,0,1-1.6-.1l1.6-.1a7.693,7.693,0,0,1,.569-3.51c0.127-.2.278-0.655,0.518-0.568,0.9,0.608.979,2.606,0.983,4.077a4.06,4.06,0,0,1,1.5.155,2.716,2.716,0,0,0-1.5.206c0.43,0.3.2,1.259,0.155,1.755h0.1a2.674,2.674,0,0,0,.621.155c0.819,0.267,1.717.405,2.587,0.671,2.356,0.719,4.889,1.195,7.244,1.91,1.885,0.572,3.512.308,3.985,2.374a2.031,2.031,0,0,1-.259,1.239c-0.73,1.71-1.562,1.079-3.415,1.5-1.019.23-2.135,0.12-3.208,0.361A38.181,38.181,0,0,1,25.1,20.1a6.924,6.924,0,0,1-.414,2.477,3.074,3.074,0,0,0-.362,1.032H24.114c0.019-.7-0.579-1.356-0.621-2.271a0.547,0.547,0,0,1-.31-0.052h0.259l-0.052-.723H23.131V21.29H22.613a2.472,2.472,0,0,0,0-.826h0.518a0.35,0.35,0,0,0,.207.052V20.1a8.97,8.97,0,0,0-2.38.052,0.176,0.176,0,0,0,.052.1c0.1,0.059.37,0.043,0.466,0.1a1.673,1.673,0,0,0-.1.723,0.25,0.25,0,0,1,.155.052H20.906V21.91h0.673v0.1H21.527v0.052a2.35,2.35,0,0,0-.673-0.052c0.02,3.076-.436,6.067-0.466,9.084a17.537,17.537,0,0,1,2.38.413c0.86,0.211,1.735.222,2.536,0.413a6.516,6.516,0,0,1,2.225.516,1.665,1.665,0,0,1,.569,1.342,3.14,3.14,0,0,1-.724.981,7.435,7.435,0,0,1-1.863.258c-0.53.118-1.253,0.087-1.811,0.206H22.924a11.241,11.241,0,0,1-2.225.155,4.444,4.444,0,0,0-.414-1.239h-0.1L20.026,36H19.974V35.948a5.186,5.186,0,0,1-.155-1.806H19.664L19.25,35.329a1.721,1.721,0,0,1-.724.052,6.167,6.167,0,0,0-1.5-.1c-1.351-.3-3.995.035-4.709-0.826a1.285,1.285,0,0,1-.362-1.342,1.9,1.9,0,0,1,.828-0.877,7.44,7.44,0,0,1,1.242-.207c1.2-.288,2.58-0.381,3.777-0.671,0.433-.1,1.633-0.082,1.811-0.361-0.257-.423-0.017-1.954-0.155-2.581-0.129-.584-0.023-1.378-0.155-1.961V25.471l-0.311-5.11H18.629a5.039,5.039,0,0,0,.052.723,0.546,0.546,0,0,1,.31.052,1.091,1.091,0,0,1-.517-0.052,0.713,0.713,0,0,0,0-.774h0.517V20.1H16.662l-0.052.413,0.724-.052v0.723h0.414L17.7,20.465a0.547,0.547,0,0,1-.31-0.052H17.9v0.052a0.7,0.7,0,0,0,0,.774H17.335a1.108,1.108,0,0,1-.518.052V21.239a2.31,2.31,0,0,0,0-.671H16.611l-0.1.723a0.434,0.434,0,0,1,.259.052H16.507a6.271,6.271,0,0,1-.724,2.271c-0.048-.105-0.028.035-0.1-0.052a10.432,10.432,0,0,1-.724-2.323c-0.1-.41-0.032-0.838-0.155-1.187a16.135,16.135,0,0,1-3.208.052,19.376,19.376,0,0,1-4.243-.413c-1.07-.238-2.192-0.132-3.208-0.361-1.231-.277-2.885.025-3.519-0.826a3.853,3.853,0,0,1-.466-0.877,2.731,2.731,0,0,1,.259-2.168,2.5,2.5,0,0,1,1.449-.723,37.518,37.518,0,0,1,3.674-.981V11.587H5.589V13.7a12.52,12.52,0,0,0,2.846-.723c1.206-.393,2.466-0.553,3.622-0.929a13.44,13.44,0,0,0,2.432-.619,0.348,0.348,0,0,0,.052-0.207,7.325,7.325,0,0,1-.052-1.239A3.17,3.17,0,0,0,14.7,9.523a5.316,5.316,0,0,1-1.552-.1l1.552-.1a10.234,10.234,0,0,1,.518-3.406,0.931,0.931,0,0,1,.569-0.671c0.93,0.62.983,2.558,0.983,4.077a3.917,3.917,0,0,1,1.5.155,2.58,2.58,0,0,0-1.449.206c0.356,0.282.188,1.241,0.155,1.755l1.966-.052a15.818,15.818,0,0,1,.155-3.355c0.122-.558,0-1.155.1-1.652,0.151-.691-0.145-1.283.466-1.5a0.265,0.265,0,0,1,.155-0.052,0.431,0.431,0,0,1,.052-0.258c0.022,0.185-.024.13,0.1,0.206a4.816,4.816,0,0,1,0-.774h0.052V4.774a0.718,0.718,0,0,1,.621.413,5,5,0,0,1,.155,1.6,23.6,23.6,0,0,1,.207,4.542,6.486,6.486,0,0,0,1.708.052A0.562,0.562,0,0,0,23.027,11.432ZM7.607,18.658c0,0.14-.069.083,0.1,0.155v-0.1Zm24.787,0.155c-0.043-.168.025-0.079-0.1-0.155l-0.052.155h0.155Zm-17.646.723v0.1H14.8A0.177,0.177,0,0,0,14.748,19.536Zm3.467,0.877v0.723a0.335,0.335,0,0,1,.207.052,1.091,1.091,0,0,1-.517-0.052h0.259V20.465a0.916,0.916,0,0,1-.207-0.1,1.09,1.09,0,0,1,.518.052H18.215Zm2.743-.052v0.723H21.32V20.361H20.957Zm0.88,0.052a3.557,3.557,0,0,1-.052.723,0.434,0.434,0,0,1,.259.052,1.092,1.092,0,0,1-.518-0.052h0.207a3.549,3.549,0,0,1,.052-0.723,0.547,0.547,0,0,1-.311-0.052,1.24,1.24,0,0,1,.569.052H21.837Zm0.414,0.052v0.723a0.546,0.546,0,0,1,.31.052H22.1V21.187a1.358,1.358,0,0,0,.1-0.723,0.25,0.25,0,0,1-.155-0.052,1.09,1.09,0,0,1,.517.052h-0.31Zm-5.33.774h0.362l-0.052-.723a1.047,1.047,0,0,0-.362.052A2.331,2.331,0,0,1,16.921,21.239Zm5.8-.723v0.723h0.362V20.516H22.717Zm1.449,2.994a0.187,0.187,0,0,0,.1.052A0.187,0.187,0,0,0,24.166,23.51Z" transform="translate(-0.031)"/>
</svg>
