<svg xmlns="http://www.w3.org/2000/svg" width="40" height="40" viewBox="0 0 40 40">
  <defs>
    <style>
      .cls-1 {
        fill: #fff;
        fill-rule: evenodd;
      }
    </style>
  </defs>
  <path id="Color_Fill_1" data-name="Color Fill 1" class="cls-1" d="M18.329,3.256a0.65,0.65,0,0,1,.354.051,0.65,0.65,0,0,0-.354.051,1.1,1.1,0,0,1,.051.511h0.911A0.89,0.89,0,0,1,19.747,3.1,0.428,0.428,0,0,1,20.1,3a2.173,2.173,0,0,1,.456.409l0.152,0.46H21.57a1.742,1.742,0,0,1,.051-0.562H21.215V3.256H21.62A0.431,0.431,0,0,1,21.671,3V3.256a0.53,0.53,0,0,1,.3.051h-0.3V3.971a3.3,3.3,0,0,1-.911.051,12.868,12.868,0,0,0,.2,1.636l0.051,7.158h2.633V10.465H23.9a1.171,1.171,0,0,1,.354-1.023,1.071,1.071,0,0,1,.506-0.051V9.238a7.74,7.74,0,0,1-2.734-.1,9.853,9.853,0,0,1,2.734-.051,0.961,0.961,0,0,1,.456-0.92,0.257,0.257,0,0,1,.152-0.051,0.681,0.681,0,0,1,.3.307,1.267,1.267,0,0,1,.2.665,23.586,23.586,0,0,1,2.684,0V9.135H28.506a7.406,7.406,0,0,1-2.633.1V9.391H26.43a1.949,1.949,0,0,1,.3,1.074h0.253v2.352h8.051a21.266,21.266,0,0,1,4.557.2c0.079,0.122.243,0.234,0.3,0.358a2.07,2.07,0,0,1-.253,1.585,3.44,3.44,0,0,1-1.519.716c-0.6.256-1.272,0.562-1.873,0.818l-0.911.307a0.571,0.571,0,0,0-.1.256,3.008,3.008,0,0,1-.759.307c-0.042-.166.025-0.078-0.1-0.153a2.855,2.855,0,0,1-.81.307,19.2,19.2,0,0,1-2.228.869,0.432,0.432,0,0,0-.051-0.256,4.368,4.368,0,0,1-1.316.307c-1.08.3-2.327,0.528-3.392,0.818a19.658,19.658,0,0,0-.911,3.272,2.344,2.344,0,0,1-.405,1.227,4.1,4.1,0,0,0-.3-1.074c-0.212-.66-0.286-1.405-0.456-2.045-0.121-.456,0-1.015-0.405-1.176a9,9,0,0,0-2.785.051,2.17,2.17,0,0,0-.3.409l-0.051,3.988a19.674,19.674,0,0,1-.152,3.732c-0.125.589,0.01,1.216-.1,1.738V30.2c-0.141.656-.076,1.488-0.2,2.147h0.1a13.334,13.334,0,0,0,1.772.2c0.865,0.195,1.809.161,2.734,0.307a2.105,2.105,0,0,0,.962.1,0.778,0.778,0,0,1,.3-0.2,0.537,0.537,0,0,1,.1.307,2.437,2.437,0,0,1,.051.92c0,0.817-.129,1.468-0.152,2.2a0.611,0.611,0,0,1-.456.153,7.044,7.044,0,0,1-1.468.1c-0.469.1-1.037-.016-1.57,0.1a19.956,19.956,0,0,1-2.734.2,0.389,0.389,0,0,1-.2.256V36.847c-0.159-.033-0.222-0.118-0.355-0.153-0.509-.136-1.191,0-1.671-0.1H17.063l-3.342-.256a6.759,6.759,0,0,1-.2-3.528,0.789,0.789,0,0,1,.253-0.051c0.114,0.3,1.07.194,1.468,0.1l4.2-.511v-0.2c-0.272-.45-0.057-2.233-0.2-2.914a17.868,17.868,0,0,1-.152-1.892V26.314c-0.127-.595.09-1.438-0.051-2.1a9.212,9.212,0,0,1-.051-1.636c0-.9-0.015-1.886-0.051-2.71a3.666,3.666,0,0,1-.405-0.409c-0.827-.012-1.933-0.1-2.684-0.051a17.421,17.421,0,0,0-.911,3.272,2.048,2.048,0,0,1-.354,1.074,11.861,11.861,0,0,0-.506-1.892c-0.29-1.047-.207-2.152-0.911-2.761a2.935,2.935,0,0,1-1.316-.256l-3.241-.665v0.2h-0.1a3.837,3.837,0,0,0-1.063-.409c-0.613-.255-1.3-0.5-1.924-0.767a0.249,0.249,0,0,1-.051.153,5.218,5.218,0,0,1-.759-0.307v-0.2L3.949,16.6c-0.6-.257-1.272-0.561-1.873-0.818-1.216-.519-2.267-0.541-2.025-2.4a2.655,2.655,0,0,1,.506-0.46,17.7,17.7,0,0,1,3.949-.1v-0.1c0.228-.379-0.13-1.259.1-1.636v1.738h8.354V10.465h0.253a3.912,3.912,0,0,1,.2-0.971l0.152-.051a1.072,1.072,0,0,1,.506-0.051V9.238a7.448,7.448,0,0,1-2.684-.1,25.5,25.5,0,0,1,2.684-.1V8.982h0.051a0.775,0.775,0,0,1,.354-0.767,0.34,0.34,0,0,1,.253-0.1,0.87,0.87,0,0,1,.3.358,1.068,1.068,0,0,1,.152.614c0.84-.059,1.831,0,2.684,0v0.1H17.266a5.6,5.6,0,0,1-2.076.051V9.391a2.823,2.823,0,0,1,.608.051,2.323,2.323,0,0,1,.253,1.023H16.3v2.352h2.633a48.8,48.8,0,0,0,.051-4.959V5.965a13.012,13.012,0,0,0,.2-1.943H18.329V3.92a1.4,1.4,0,0,1-.051-0.614,0.65,0.65,0,0,1-.355-0.051h0.355A0.431,0.431,0,0,1,18.329,3V3.256Z"/>
</svg>
