<svg width="40" height="40" viewBox="0 0 40 40" fill="none" xmlns="http://www.w3.org/2000/svg">
<foreignObject x="0" y="0" width="0" height="0"><div xmlns="http://www.w3.org/1999/xhtml" style="backdrop-filter:blur(1.46px);clip-path:url(#bgblur_0_977_2346_clip_path);height:100%;width:100%"></div></foreignObject><g data-figma-bg-blur-radius="2.916">
<path d="M0 6C0 2.68629 2.68629 0 6 0H34C37.3137 0 40 2.68629 40 6V34C40 37.3137 37.3137 40 34 40H6C2.68629 40 0 37.3137 0 34V6Z" fill="white" fill-opacity="0.2"/>
</g>
<defs>
<clipPath id="bgblur_0_977_2346_clip_path" transform="translate(0 0)"><path d="M0 6C0 2.68629 2.68629 0 6 0H34C37.3137 0 40 2.68629 40 6V34C40 37.3137 37.3137 40 34 40H6C2.68629 40 0 37.3137 0 34V6Z"/>
</clipPath></defs>
</svg>
