<svg xmlns="http://www.w3.org/2000/svg" width="39.969" height="40" viewBox="0 0 39.969 40">
  <defs>
    <style>
      .cls-1 {
        fill: #fff;
        fill-rule: evenodd;
      }
    </style>
  </defs>
  <path id="Color_Fill_1" data-name="Color Fill 1" class="cls-1" d="M19.982,7.486a0.179,0.179,0,0,1,.111.037,0.178,0.178,0,0,0-.111.037c0.11,0.044.017,0.041,0,.187a1.8,1.8,0,0,0,.371.075c0,0.159.065,0.069,0.111,0.187a3.977,3.977,0,0,1,.148,1.233,13.942,13.942,0,0,1,.185,2.69l0.482-.037v0.037a2.755,2.755,0,0,0-.111.336,0.135,0.135,0,0,1-.037-0.075c-0.112-.135.016-0.189-0.3-0.187l0.037,0.673H21.8a4.065,4.065,0,0,1,.816-0.859V11.371a1.207,1.207,0,0,0,.519-0.037,15.1,15.1,0,0,0-2.113-.075V11.221a13.279,13.279,0,0,1,4.337,0v0.037c-0.585.063-1.48-.085-2.113,0.037v0.075h0.519c0,0.515.108,0.752,0.111,1.308h11.2a8.7,8.7,0,0,1,3.188.224,1.222,1.222,0,0,1,.482.261V16h0.037V14.77a1.031,1.031,0,0,1,1.075.261,3.265,3.265,0,0,1-.037,1.831,2.5,2.5,0,0,1-.371.448,37.982,37.982,0,0,1-4.708.075H32.808c-0.32-.109-0.76-0.567-1.075-0.673l-1.409.075H22.5a4.336,4.336,0,0,1-1.631-.075V17.2a3.063,3.063,0,0,1-.037.934,2.855,2.855,0,0,0,.111,1.233H20.908a0.408,0.408,0,0,0-.074-0.112v0.486l-0.259,9.974c0.7-.008,1.015,0,1.631,0a1.949,1.949,0,0,1,1,.112,3.176,3.176,0,0,1,.074,1.345h0.63a1.869,1.869,0,0,1-.037.71,0.355,0.355,0,0,0-.185.112H23.133a1.348,1.348,0,0,1-.037.56l-0.037-.56c-0.826,0-1.716.016-2.484,0.037a1.921,1.921,0,0,0-.037-0.747V33H19.388V32.029c-0.782-.011-1.682-0.036-2.521-0.037a0.9,0.9,0,0,1-.037.411,1.883,1.883,0,0,0-.037-0.411,0.653,0.653,0,0,1-.741-0.224,0.869,0.869,0,0,1-.037-0.6h0.63a4.236,4.236,0,0,1,.074-1.382,22.351,22.351,0,0,1,2.632-.075q-0.13-5.211-.259-10.422H19.055v0.037c-0.029.072-.037-0.075-0.037-0.075a1.372,1.372,0,0,0,.074-0.747c0-.637-0.029-1.169-0.037-1.793H19.018a1.06,1.06,0,0,1-.667.075H16.423c-2.686,0-5.512.045-8.082-.075a10.263,10.263,0,0,1-1.223.822H2.669a6.517,6.517,0,0,1-2.15-.112c-0.593-.389-0.6-1.743-0.408-2.578a1.664,1.664,0,0,1,1.075-.187A5.284,5.284,0,0,0,1.223,16V13.126c0.352-.1.6-0.354,1-0.448H16.052c0-.557.108-0.792,0.111-1.308a1.207,1.207,0,0,0,.519-0.037c-0.41-.142-1.841.059-2.113-0.112a13.279,13.279,0,0,1,4.337,0v0.037c-0.585.063-1.48-.085-2.113,0.037v0.075h0.519v0.448l0.816,0.859h0.927c0-.335.041-0.268,0.037-0.673H18.832v0.075a0.331,0.331,0,0,1,.111.112,0.2,0.2,0,0,0-.223.075V12.193a1.092,1.092,0,0,1-.074-0.3h0.222a0.487,0.487,0,0,0,.259.037,19.338,19.338,0,0,1,.334-4,2.086,2.086,0,0,1,.445-0.187V7.71A1.349,1.349,0,0,1,19.982,7V7.486Zm0.074-.149a0.191,0.191,0,0,1,.037.112H20.056V7.336Zm-2.632,5.342H17.98V12.641l-0.556-.523v0.56Zm5.079,0v-0.56H22.465l-0.519.56H22.5Zm-1.557-.486H21.02V12.23A0.127,0.127,0,0,1,20.945,12.193Zm-2,.075h0.074V12.3A0.127,0.127,0,0,1,18.944,12.267ZM20.871,12.3h0.074v0.037A0.127,0.127,0,0,1,20.871,12.3Zm-1.891,7.023a0.135,0.135,0,0,1,.037.075H18.981V19.328Zm1.965,0.037a0.135,0.135,0,0,1,.037.075H20.945V19.365Zm-2,.037a0.135,0.135,0,0,1,.037.075H18.944V19.4Zm2.039,0.037a0.144,0.144,0,0,1,.074.112H21.02V19.514A0.135,0.135,0,0,1,20.982,19.44Zm-2.113.075a0.135,0.135,0,0,1,.037.075H18.869V19.514Zm-0.037.075a0.135,0.135,0,0,1,.037.075H18.832V19.589Z"/>
</svg>
