<svg xmlns="http://www.w3.org/2000/svg" width="40" height="40" viewBox="0 0 40 40">
  <defs>
    <style>
      .cls-1 {
        fill: #fff;
        fill-rule: evenodd;
      }
    </style>
  </defs>
  <path id="Color_Fill_1" data-name="Color Fill 1" class="cls-1" d="M19.737,4h0.445V7.3a0.337,0.337,0,0,1,.2.041c1.224,0.391.939,2.935,0.93,4.562h0.121v0.611h2.548a1.124,1.124,0,0,1,.041-0.367H23.863c-0.024-.962-0.323-2.831.728-2.811V9.011a6.767,6.767,0,0,1-1.577-.041,2.222,2.222,0,0,1-.89-0.122H22.2a2.2,2.2,0,0,1,.768-0.041c0.5-.028,1.1-0.008,1.618,0A1.615,1.615,0,0,1,25.2,7.788h0.2a1.35,1.35,0,0,1,.607,1.018c0.506-.02,1.11,0,1.618,0a1.665,1.665,0,0,1,.809.081H28.392a5.388,5.388,0,0,1-2.386.081V9.336a2.259,2.259,0,0,1,.485.041,7.359,7.359,0,0,1,.283,2.77H26.613v0.367l9.3,0.041V10.64a2.074,2.074,0,0,1,.04-0.774c0,0.854.039,1.78,0.041,2.689h2.467a2.474,2.474,0,0,1,1.052.081,0.41,0.41,0,0,1,.283.285,3.118,3.118,0,0,1-.081,2.159,1.853,1.853,0,0,1-.445.693,4.975,4.975,0,0,1-1.375.489,30.387,30.387,0,0,1-3.236.855,0.586,0.586,0,0,1-.04.2l-1.052.244a0.728,0.728,0,0,0-.081-0.163,3.292,3.292,0,0,1-.809.2c-0.691.224-1.454,0.348-2.184,0.57a1.715,1.715,0,0,1-.849.163c-0.016.1,0.023,0.064-.121,0.082a8.807,8.807,0,0,1-1.9.489c-1.318.4-2.774,0.671-4.085,1.1-0.532.174-1.085,0.247-1.577,0.407a1.2,1.2,0,0,0-.607.163v0.9a9.65,9.65,0,0,0-.04,1.711c-0.1.474,0.073,1.146-.04,1.67-0.083.383,0.053,0.951-.04,1.385-0.178.824-.067,1.795-0.243,2.566l-0.162,1.385a2.123,2.123,0,0,0-.04.57,4.5,4.5,0,0,0,1.132.122c0.915,0.219,2,.143,2.912.367a5.512,5.512,0,0,1,1.335.2,1.248,1.248,0,0,1,.485.774,0.16,0.16,0,0,1-.081.2,0.584,0.584,0,0,1,.121.2,0.894,0.894,0,0,1-.2.652,1.292,1.292,0,0,1-.768.611l-1.9.041a4.045,4.045,0,0,1-1.335.163V34.022H21.8a8.217,8.217,0,0,1-1.416.081,2.682,2.682,0,0,0-.4.9,0.147,0.147,0,0,1-.041-0.081c-0.206-.319-0.123-0.808-0.647-0.815a5.19,5.19,0,0,0-1.173-.041c-0.42-.093-0.749.125-1.132,0.041-1.3-.285-3.342.176-3.721-1.059a1.023,1.023,0,0,1,.04-0.57,1.464,1.464,0,0,1,.162-0.774,1.885,1.885,0,0,1,1.254-.407c1.038-.232,2.239-0.173,3.276-0.407,0.409-.093.816,0,1.173-0.122l-0.364-2.648v-0.57a9.521,9.521,0,0,1-.121-1.833V24.857c-0.1-.474.072-1.146-0.04-1.67a14.912,14.912,0,0,1-.081-2.607,0.572,0.572,0,0,1-.243-0.163,0.526,0.526,0,0,1-.2.041c-0.291-.079-0.605-0.144-0.93-0.244-0.965-.3-2.04-0.5-2.993-0.815-1.154-.382-2.364-0.529-3.478-0.9-1.43-.472-2.948-0.573-4.328-1.1-0.03.161,0,.131-0.162,0.163-0.247-.166-0.7-0.1-0.93-0.285a0.35,0.35,0,0,0-.121-0.163,5.475,5.475,0,0,0-1.294-.326C1.81,16.1,0,16.534,0,13.7A3.362,3.362,0,0,1,.121,12.84L0.4,12.6c4.258-.105,8.606-0.079,12.9-0.082V12.147H13.145c-0.018-.767-0.116-2.573.364-2.77a0.858,0.858,0,0,1,.4-0.041V8.97H13.832a5.018,5.018,0,0,1-2.346-.122,17.962,17.962,0,0,1,2.427-.041,0.961,0.961,0,0,1,.809-1.018,1.482,1.482,0,0,1,.607,1.018,12.826,12.826,0,0,1,2.467.041,0.146,0.146,0,0,1-.081.041,8.076,8.076,0,0,1-2.386.122V9.336h0.4a5.384,5.384,0,0,1,.323,2.811H15.895v0.041a0.648,0.648,0,0,1,.04.326h2.548V11.9H18.6A14.448,14.448,0,0,1,18.766,8.2a2.292,2.292,0,0,1,.768-0.9h0.2V4Z"/>
</svg>
