<svg xmlns="http://www.w3.org/2000/svg" width="40" height="40" viewBox="0 0 40 40">
  <defs>
    <style>
      .cls-1 {
        fill: #fff;
        fill-rule: evenodd;
      }
    </style>
  </defs>
  <path id="Color_Fill_1" data-name="Color Fill 1" class="cls-1" d="M5.2,28.092a12.279,12.279,0,0,1,0-4.21,3.82,3.82,0,0,1,.533-1.053L6.2,22.434V19.276H6.333v2.96H6.4a11.108,11.108,0,0,1,.933-0.987c0.72-.94,1.614-1.692,2.333-2.632a6.833,6.833,0,0,0,.867-0.921H10.6a0.686,0.686,0,0,0,.067.395,17.8,17.8,0,0,1,2.4-2.3l3-3.026c0.7-.479,1.306-0.923,1.933-1.447l0.2-.066V9.276c0.308-.5-0.019-2.07.133-2.763l0.333-3.026a8.651,8.651,0,0,0,.4-2.632C19.518,0.561,19.452.022,20.2,0a0.242,0.242,0,0,0,.133.066,2.157,2.157,0,0,1,.6,1.25,19.3,19.3,0,0,0,.533,2.895L21.6,6.118a26.441,26.441,0,0,1,.2,5.132,6.8,6.8,0,0,1,1.533,1.184A37.6,37.6,0,0,1,27.8,16.513a11.862,11.862,0,0,0,1.6,1.579,0.685,0.685,0,0,1,.067-0.395c0.976,1.462,2.526,2.545,3.6,3.947a9.786,9.786,0,0,1,1.6,1.776c0.537,1.234.206,3.179,0.2,4.605a1.236,1.236,0,0,1-.4.066A17.77,17.77,0,0,0,31.2,26.711c-1.958-.829-3.985-1.774-5.933-2.632-0.691-.3-1.359-0.544-2-0.855a1.642,1.642,0,0,0-.733-0.2c-0.683.237-.6,1.312-0.6,2.237,0,2.092-.067,4.254-0.067,6.25,0,0.438-.142,2.422-0.067,2.5,1.224,1.81,4.136,2.528,3.467,5.987H25.133a5.129,5.129,0,0,0-.8-0.329c-0.705-.357-1.492-0.77-2.2-1.119a3.347,3.347,0,0,0-.933-0.329c-0.32.485-.147,1.222-0.733,1.447a1.153,1.153,0,0,1-.933.066,4.818,4.818,0,0,0-.4-0.395c-0.231-.321-0.1-0.888-0.333-1.184a19.852,19.852,0,0,1-3,1.382,1.788,1.788,0,0,1-1,.395,3.435,3.435,0,0,1,.133-2.171A7.546,7.546,0,0,1,17.2,35c0.452-.446,1.047-0.628,1.067-1.513a6.8,6.8,0,0,1-.067-1.579c-0.14-.64.091-1.581-0.067-2.3a18.959,18.959,0,0,1-.067-3.553c0-1.5.148-2.3-.6-3.092-2.887,1.092-5.678,2.39-8.533,3.618C7.964,27,6.331,28.013,5.2,28.092Z" transform="translate(0)"/>
</svg>
