<svg xmlns="http://www.w3.org/2000/svg" width="40" height="40" viewBox="0 0 40 40">
  <defs>
    <style>
      .cls-1 {
        fill: #fff;
        fill-rule: evenodd;
      }
    </style>
  </defs>
  <path id="Color_Fill_1" data-name="Color Fill 1" class="cls-1" d="M19.128,39.384L18.86,38.2a3.6,3.6,0,0,0-1.073.484c-0.43.211-.822,0.317-1.252,0.528A6.343,6.343,0,0,1,14.747,40V39.912a4.229,4.229,0,0,1,.179-2.2,4.563,4.563,0,0,1,1.386-1.8l0.581-.616a9.872,9.872,0,0,0,1.341-1.232v-0.7a14.514,14.514,0,0,1-.089-2.376,37.836,37.836,0,0,1-.09-5.28c0-.965.171-2.376-0.537-2.64a1.073,1.073,0,0,0-.8.264c-0.8.354-1.6,0.674-2.37,1.012-2.189.957-4.174,1.742-6.393,2.684a10.018,10.018,0,0,1-2.772,1.1V28.031a3.549,3.549,0,0,1-.089-1.012,9.18,9.18,0,0,1,.268-3.608,0.446,0.446,0,0,0,.4-0.572l0.4-.352V19.318H6.252v1.32A6.539,6.539,0,0,1,6.3,22.31H6.341a5.478,5.478,0,0,1,.76-0.748c0.663-.653,1.349-1.283,2.012-1.936l6.036-5.941a20.129,20.129,0,0,1,2.236-1.848,4.644,4.644,0,0,0,.8-0.572V9.593a18.642,18.642,0,0,0,.089-2.244c0.132-.589-0.008-1.268.134-1.892,0.272-1.194.319-2.487,0.626-3.564,0.213-.748.2-1.772,1.028-1.892A2.424,2.424,0,0,1,20.6.484a14.511,14.511,0,0,1,.671,2.992,37.159,37.159,0,0,1,.537,7.789,26.724,26.724,0,0,1,4.516,3.916c1.662,1.636,3.346,3.249,5.007,4.884,0.708,0.7,1.438,1.372,2.146,2.068a1.432,1.432,0,0,1,.76,1.1l0.134-.044a0.225,0.225,0,0,1,0,.176c0.18,0.1.187-.072,0.268,0.132,0.428,0.544.314,2.105,0.313,3.08-0.063.009,0.018-.036-0.045-0.044-0.035-.085-0.045.088-0.045,0.088a2.965,2.965,0,0,1-.045,1.5H34.553a4.726,4.726,0,0,0-.894-0.352c-0.564-.244-1.149-0.491-1.744-0.748-1.9-.82-3.653-1.563-5.544-2.376C25.6,24.309,24.809,23.978,24,23.63a4.884,4.884,0,0,0-1.52-.616c-0.759.82-.537,2.017-0.537,3.52,0,2.59-.177,5.036-0.179,7.525,0.525,0.341.846,0.952,1.341,1.32,1.252,0.931,2.6,2.315,2.146,4.621H25.119L21.14,38.152a1.86,1.86,0,0,1-.671,1.54C19.9,40.214,19.426,39.462,19.128,39.384Z"/>
</svg>
