<svg xmlns="http://www.w3.org/2000/svg" width="40" height="40" viewBox="0 0 40 40">
  <defs>
    <style>
      .cls-1 {
        fill: #fff;
        fill-rule: evenodd;
      }
    </style>
  </defs>
  <path id="Color_Fill_1" data-name="Color Fill 1" class="cls-1" d="M20.886,39.351H19.179l-0.328-1.169c-1.459.352-2.575,1.45-4.07,1.818-0.309-2.584.8-3.386,2.035-4.61,0.209-.207,1.378-1.155,1.444-1.3V33.117c-0.253-.418.053-1.278-0.066-1.818-0.149-.679.007-1.62-0.066-2.4-0.092-.985-0.066-2.221-0.066-3.312,0-1.038.215-2.48-.722-2.6a14.11,14.11,0,0,1-2.757,1.169c-1.679.731-3.391,1.458-5.12,2.208-0.98.425-1.989,0.853-3.02,1.3a3.929,3.929,0,0,1-1.116.455A1.875,1.875,0,0,1,5.2,27.208c-0.371-.568.055-3.591,0.328-4.026,0.162-.258.6-0.458,0.722-0.714V19.286H6.313v0.065a12.144,12.144,0,0,1,.066,2.922H6.444a9.668,9.668,0,0,1,1.313-1.3,25,25,0,0,1,2.494-2.4l4.924-4.935a17.744,17.744,0,0,1,2.035-1.688,3.384,3.384,0,0,0,.985-0.714V10.325c0.322-.54-0.086-1.658.066-2.338,0.14-.627-0.023-1.389.131-2.078,0.3-1.323.3-2.783,0.656-3.961,0.2-.664.161-1.652,0.788-1.883A0.718,0.718,0,0,1,20.23,0c1.575,2.422,1.554,7.294,1.575,11.234a16.206,16.206,0,0,1,3.479,2.922c1.455,1.44,2.943,2.846,4.4,4.286l4.661,4.48a6.238,6.238,0,0,1,.525,3.9,3.436,3.436,0,0,1-.131,1.234,0.337,0.337,0,0,1-.2.065,13.411,13.411,0,0,0-2.495-1.039c-1.838-.8-3.7-1.589-5.58-2.4l-2.56-1.1a4.626,4.626,0,0,0-1.444-.584,4.48,4.48,0,0,0-.525.844L22,25.13a49.861,49.861,0,0,0-.131,5.974,17.224,17.224,0,0,0-.066,2.922,4.024,4.024,0,0,0,.985.909l0.591,0.649a6.5,6.5,0,0,1,1.707,1.948,5.278,5.278,0,0,1,.131.844,3.158,3.158,0,0,1,0,1.623c-1.479-.311-2.614-1.42-4.07-1.818Z" transform="translate(-0.016)"/>
</svg>
