<svg xmlns="http://www.w3.org/2000/svg" width="40" height="40" viewBox="0 0 40 40">
  <defs>
    <style>
      .cls-1 {
        fill: #fff;
        fill-rule: evenodd;
      }
    </style>
  </defs>
  <path id="Color_Fill_1" data-name="Color Fill 1" class="cls-1" d="M20.912,6.028a0.575,0.575,0,0,1-.044.18h0.178a1.894,1.894,0,0,0,.133.766,0.521,0.521,0,0,1,.445.315,4.818,4.818,0,0,1,.267.992H21.713l0.223,1.037H21.8L21.98,10.4a0.693,0.693,0,0,1-.223.045V10.4H21.713V10.265H21.535L21.58,10.58c0.163,0.052.288,0.181,0.445,0.225H23.76c0.955,0,1.746.124,2.625,0.135q0.022-2.005.045-4.011h0.178q0.022,2.028.045,4.056h0.223V9.318A0.691,0.691,0,0,1,27.1,9.273v0.09a6.407,6.407,0,0,1,.044,1.623,1.988,1.988,0,0,0,.578.045V9.318a0.69,0.69,0,0,1,.223-0.045,6.951,6.951,0,0,1,.044,1.8l0.578,0.045v-1.8a0.69,0.69,0,0,1,.222-0.045,7.117,7.117,0,0,1,.044,1.848,1.989,1.989,0,0,0,.578.045V9.318a0.69,0.69,0,0,1,.222-0.045,7.473,7.473,0,0,1,.044,1.938h0.312v0.361h0.044a0.68,0.68,0,0,1,.667.045V11.3a7.369,7.369,0,0,1,1.557.135c0.572,0.126,1.174.021,1.691,0.135l1.735,0.09c0.517,0.115,1.119.008,1.691,0.135l1.068,0.18v0.361h0.089a0.216,0.216,0,0,1,.222-0.18V12.2H38.8v0.135a0.791,0.791,0,0,1,.4.09,1.8,1.8,0,0,1,.667,2.118,3.143,3.143,0,0,1-1.691,1.8,24.794,24.794,0,0,1-3.382.631c-2.49.64-5.208,0.806-7.7,1.442-1.821.465-3.447,0.362-4.761,1.352a2.938,2.938,0,0,0-.8.947q-0.044,1.307-.089,2.614c-0.208.979-.062,2.158-0.267,3.11v0.541c-0.139.644-.071,1.34-0.222,2.028a6.623,6.623,0,0,0-.178,1.4,14.382,14.382,0,0,1,2.714.451,2.621,2.621,0,0,1,1.691.676,1.733,1.733,0,0,1-1.424,2.7v0.135a8.343,8.343,0,0,0-1.78.045,1.7,1.7,0,0,1-.979.045c-0.42-.157-0.294-0.7-0.623-0.9-0.034.031-.1,0.059-0.133,0.09a8.609,8.609,0,0,0-.223,1.848h0.089s0.009-.176.044-0.09V35.5a0.213,0.213,0,0,1,.134.045H20.245c-0.045.031-.178,0.058-0.223,0.09a0.72,0.72,0,0,1,.044.361H19.933V35.594H19.711l-0.044-.09h0.178a4.523,4.523,0,0,0-.134-1.848c-0.033-.039-0.056-0.051-0.089-0.09a0.152,0.152,0,0,0-.089.045,1.668,1.668,0,0,1-.534.856,6.117,6.117,0,0,1-2.091-.18v0.135L16.2,34.378V34.242a1.741,1.741,0,0,1-1.468-2.614c0.578-.866,1.981-0.714,3.159-0.992a7.066,7.066,0,0,1,1.335-.225l-0.267-1.983c-0.172-.729-0.059-1.5-0.223-2.209V25.679c-0.181-.822-0.029-1.867-0.222-2.7V21.983c-0.052-.237.021-0.655-0.044-0.947a2.007,2.007,0,0,0-.712-1.172c-1.032-.779-2.163-0.875-3.6-1.262l-1.023-.135c-2.716-.708-5.468-0.8-8.187-1.532A21.519,21.519,0,0,1,1.691,16.3a3.171,3.171,0,0,1-1.6-1.848c-0.243-.8.122-1.917,0.712-2.028a0.642,0.642,0,0,1,.356-0.09A0.22,0.22,0,0,1,1.2,12.2a0.3,0.3,0,0,1,.178-0.045,0.243,0.243,0,0,0,.133.18V11.978l1.068-.18,6.674-.5a1.47,1.47,0,0,0,.089.27,0.929,0.929,0,0,1,.623-0.045l0.044-.316h0.311V9.318a0.69,0.69,0,0,1,.222-0.045v1.893h0.579a7.126,7.126,0,0,0,.044-1.848,0.69,0.69,0,0,1,.222-0.045v1.848l0.623-.045V9.318a0.691,0.691,0,0,1,.223-0.045v1.758a3.028,3.028,0,0,0,.623-0.045V9.318a0.691,0.691,0,0,1,.223-0.045v1.713H13.3a38.879,38.879,0,0,0,.045-4.056h0.178q0.022,1.1.045,2.208a10.943,10.943,0,0,0,.044,1.8h0.312a4.506,4.506,0,0,1,1.157-.09c1.1-.243,2.5.189,3.337-0.316v-0.27H18.287a0.22,0.22,0,0,1-.044.135,0.3,0.3,0,0,1-.178.045,0.838,0.838,0,0,1-.044-0.271A2.037,2.037,0,0,0,18.2,9.318H18.065l0.223-1.037c-0.159-.019-0.112.021-0.178-0.09A3.332,3.332,0,0,0,18.376,7.2a2.416,2.416,0,0,1,.445-0.225,1.614,1.614,0,0,0,.089-0.766h0.133V6.028a12.105,12.105,0,0,1-2.759-.135,3.475,3.475,0,0,1-.979-0.09h0.089a2.682,2.682,0,0,1,.756-0.09,14.879,14.879,0,0,1,2.981-.135C19.154,5,19.524,4.051,20.067,4a3.071,3.071,0,0,1,.8,1.577h1.6L24.605,5.8V5.848H24.561a3.608,3.608,0,0,1-.979.09A12.761,12.761,0,0,1,20.912,6.028Zm-1.29,29.3c0.113,0.066.05-.01,0.089,0.135H19.666V35.414A0.163,0.163,0,0,1,19.622,35.324Zm0.667,0a0.232,0.232,0,0,1,.044.135H20.289V35.324Z"/>
</svg>
