<svg xmlns="http://www.w3.org/2000/svg" width="40" height="40" viewBox="0 0 40 40">
  <defs>
    <style>
      .cls-1 {
        fill: #fff;
        fill-rule: evenodd;
      }
    </style>
  </defs>
  <path id="Color_Fill_1" data-name="Color Fill 1" class="cls-1" d="M21.174,6.389L21.48,6.439a3.071,3.071,0,0,1,.408,1.22H21.735l0.2,1.016c-0.166.042-.078-0.025-0.153,0.1a2.187,2.187,0,0,1,.2.966,0.8,0.8,0,0,1-.255.051V9.641H21.582V9.9l0.459,0.254H25.1c0.612,0.133,1.318.006,1.99,0.152,1.841,0.4,3.969.106,5.816,0.508,0.651,0.142,1.343.023,1.939,0.153H35.51c1.928,0.42,3.966-.138,4.439,1.779a2.109,2.109,0,0,1-.408,1.677c-0.94,1.4-1.675,1.123-3.469,1.575-2.856.721-5.972,0.908-8.826,1.626-1.462.368-3.142,0.281-4.286,0.965a3.565,3.565,0,0,0-1.378,1.27,2.638,2.638,0,0,0-.051.915l-0.1,2.287c-0.185.849-.009,1.8-0.2,2.693L20.765,29.41h0.1a3.957,3.957,0,0,0,.969.152c1.278,0.319,3.1.2,3.572,1.321,0.579,1.388-.745,2.178-1.786,2.49a7.284,7.284,0,0,1-1.02-.051,4.7,4.7,0,0,1-1.684.1,4.409,4.409,0,0,1-.306-0.407,1.845,1.845,0,0,0-.1-0.407,0.3,0.3,0,0,0-.2-0.051,1.029,1.029,0,0,0-.1.559,5,5,0,0,0-.153,1.321H20.1a0.245,0.245,0,0,1,.051-0.153v0.153a0.247,0.247,0,0,1,.153.051H20.255a0.345,0.345,0,0,1-.2.051V35h-0.1V34.543h-0.2l-0.051-.1h0.153a0.245,0.245,0,0,1,.051-0.153,0.245,0.245,0,0,0,.051.153v-0.3a6.026,6.026,0,0,1-.153-1.474,0.541,0.541,0,0,0-.255-0.1,1.231,1.231,0,0,1-.561.864,4.121,4.121,0,0,1-1.582-.1,5.18,5.18,0,0,1-1.072.051,0.734,0.734,0,0,1-.1-0.153c-0.231-.129-0.54-0.038-0.765-0.152a1.845,1.845,0,0,1-.918-2.033c0.436-1.421,3.137-1.334,4.694-1.626l-0.459-3.659c-0.2-.89-0.016-1.84-0.2-2.693l-0.1-2.287a2.643,2.643,0,0,0-.051-0.915,3.589,3.589,0,0,0-1.48-1.321c-1.127-.653-2.769-0.554-4.184-0.915-2.85-.727-5.975-0.9-8.827-1.626C2.13,15.537,1.4,15.824.459,14.418a2.082,2.082,0,0,1-.408-1.677c0.3-1.191,1.26-1.35,2.5-1.626l1.276-.051c0.612-.134,1.319-0.005,1.99-0.152,1.84-.4,3.977-0.1,5.816-0.508,0.658-.146,1.34-0.02,1.939-0.152h0.663a14.811,14.811,0,0,1,2.857-.1c0.634,0,1.282.093,1.327-.508h-0.1a0.193,0.193,0,0,1-.2.152,0.184,0.184,0,0,0-.1-0.051l0.2-1.067c-0.166-.042-0.078.025-0.153-0.1a2.058,2.058,0,0,0,.2-0.915c-0.166-.042-0.078.025-0.153-0.1A4.11,4.11,0,0,1,18.52,6.49a0.532,0.532,0,0,1,.306-0.1,2.526,2.526,0,0,1,.255-0.864,0.443,0.443,0,0,0-.255-0.051,5.84,5.84,0,0,1-2.5-.051,3.277,3.277,0,0,1-.969-0.1,17.4,17.4,0,0,1,3.776-.152A1.806,1.806,0,0,1,19.9,4.051,0.345,0.345,0,0,1,20.1,4a3.966,3.966,0,0,1,.765,1.169c0.851-.288,2.828.106,3.724,0.152V5.372H24.541a4.071,4.071,0,0,1-1.071.1,11.328,11.328,0,0,1-2.551,0,0.144,0.144,0,0,0,.051.051A7.729,7.729,0,0,0,21.174,6.389Zm-5.714,25a0.245,0.245,0,0,0,.051.152A0.245,0.245,0,0,0,15.459,31.392Zm9.031,0a1.065,1.065,0,0,0,.051.508A1.065,1.065,0,0,0,24.49,31.392Zm-8.826.661a0.185,0.185,0,0,0,.1.051A0.185,0.185,0,0,0,15.663,32.053Zm8.571,0a0.185,0.185,0,0,0,.1.051A0.185,0.185,0,0,0,24.235,32.053Zm-4.592,2.236h0.1v0.1h-0.1v-0.1Zm0.612,0h0.1v0.1h-0.1v-0.1Z" transform="translate(0 0.5)"/>
</svg>
