<svg xmlns="http://www.w3.org/2000/svg" width="40" height="40" viewBox="0 0 40 40">
  <defs>
    <style>
      .cls-1 {
        fill: #fff;
        fill-rule: evenodd;
      }
    </style>
  </defs>
  <path id="Color_Fill_1" data-name="Color Fill 1" class="cls-1" d="M20.927,5.361a7.888,7.888,0,0,0,.257.9C21.664,6.314,21.628,6.586,21.75,7a2.374,2.374,0,0,1,.129.538H21.75V7.564H21.725l0.232,0.974-0.18.051a5.968,5.968,0,0,1,.18.717,0.85,0.85,0,0,1,.026.307,0.237,0.237,0,0,1-.309-0.026,0.172,0.172,0,0,0,.026-0.1H21.57V9.742a1.673,1.673,0,0,0,.412.256l0.824,0.026H24.2a3.755,3.755,0,0,1,.721.026h0.335l9.833,0.794L36.4,10.921l1.673,0.154a2.176,2.176,0,0,1,1.879,1.64,2.082,2.082,0,0,1-.283,1.383,3.181,3.181,0,0,1-1.93,1.512c-0.529.158-1.059,0.119-1.6,0.256-1.673.428-3.5,0.508-5.174,0.948-0.426.112-.981,0.135-1.441,0.256-0.705.186-1.476,0.2-2.162,0.384-0.355.094-.674,0.063-1.03,0.154a24.3,24.3,0,0,0-3.012.692,3.617,3.617,0,0,0-1.776,1.512q-0.077,1.691-.154,3.382-0.116,1.473-.232,2.946L20.772,29.29a4.827,4.827,0,0,1,1.107.179c1.1,0.276,2.724.141,3.295,0.922a1.713,1.713,0,0,1-1.416,2.69v0.1H23.732V33.21l-0.669.051c-0.029-.086-0.029-0.085-0.129-0.1a1.889,1.889,0,0,1-.515.051c-0.309.066-.7,0.062-1,0.128a0.816,0.816,0,0,1-.386-0.026,1.333,1.333,0,0,1-.592-0.922,0.345,0.345,0,0,0-.206.128,1.867,1.867,0,0,0-.052.512,3.916,3.916,0,0,0-.026,1.255h0.129a0.811,0.811,0,0,1,0-.179h0.026v0.026a0.339,0.339,0,0,1,0,.231l-0.232.026a0.359,0.359,0,0,0-.026.1,1.008,1.008,0,0,1-.026.384H19.949a4.418,4.418,0,0,1-.026-0.487l-0.257-.026a0.561,0.561,0,0,1,0-.256,0.072,0.072,0,0,1,.026.026c0.074,0.126-.061.147,0.155,0.154q0.013-.435.026-0.871a3.773,3.773,0,0,1-.1-0.948l-0.232-.077a1.491,1.491,0,0,1-.515.922,1.342,1.342,0,0,1-.7-0.026l-0.515-.026a6.012,6.012,0,0,0-.875-0.1v0.1l-0.695-.051a0.4,0.4,0,0,1-.026-0.128,1.669,1.669,0,0,1-1-3.023c0.718-.444,2.112-0.409,3.037-0.64a4.267,4.267,0,0,0,.952-0.154,0.093,0.093,0,0,0,.026-0.051,2.22,2.22,0,0,1-.077-0.564C19.058,28.258,19.1,27.823,19,27.394c-0.183-.793-0.091-1.75-0.283-2.562-0.077-.326-0.006-0.67-0.077-0.974v-0.41c-0.082-.367-0.017-0.839-0.1-1.2l-0.1-2.459a2.931,2.931,0,0,0-.721-0.871,7.064,7.064,0,0,0-2.342-1c-0.517-.148-1.075-0.151-1.57-0.282-0.355-.094-0.674-0.062-1.03-0.154-1.133-.29-2.4-0.382-3.526-0.666-0.075-.019-0.228.008-0.36-0.026C8.384,16.66,7.8,16.61,7.31,16.48c-0.628-.166-1.281-0.175-1.879-0.333L4.839,16.07c-0.547-.14-1.177-0.192-1.725-0.333a9.564,9.564,0,0,1-1.261-.256A3.208,3.208,0,0,1,.129,13.739a2.194,2.194,0,0,1,.154-1.716,2.658,2.658,0,0,1,1.647-.948l0.978-.1,1.313-.077,7.233-.589h0.335c0.6-.134,1.328-0.038,1.931-0.179l0.669-.026a14.018,14.018,0,0,1,2.728-.077A1.423,1.423,0,0,0,18.4,9.716a0.473,0.473,0,0,0,.026-0.231H18.3a0.414,0.414,0,0,1-.077.2,0.377,0.377,0,0,0-.206-0.051c0-.241.225-0.977,0.18-1.05C18.1,8.523,18.077,8.575,18.07,8.41a3.037,3.037,0,0,0,.206-0.845c-0.1-.032-0.13-0.013-0.154-0.128,0.181-.268.1-0.738,0.283-1a0.966,0.966,0,0,1,.412-0.2c0.02-.327.226-0.587,0.232-0.871a4.144,4.144,0,0,0-.8.1,3.413,3.413,0,0,1-.9-0.051,15.842,15.842,0,0,1-2.008-.179V5.207h0.026a4.668,4.668,0,0,1,1.055-.1,13.941,13.941,0,0,1,2.729-.077c0.15-.4.408-1.149,0.927-1.153a2.554,2.554,0,0,1,.541.615c0.036,0.068.175,0.516,0.206,0.538h0.463A3.448,3.448,0,0,1,22.188,5a13.059,13.059,0,0,1,1.467.128,9.058,9.058,0,0,1,.952.1,0.093,0.093,0,0,1-.052.026,4.044,4.044,0,0,1-.824.077c-0.229.05-.535,0.052-0.772,0.1H22.471a1.277,1.277,0,0,1-.437.026A5.54,5.54,0,0,0,20.927,5.361Z"/>
</svg>
