<svg xmlns="http://www.w3.org/2000/svg" xmlns:xlink="http://www.w3.org/1999/xlink" width="39.955" height="40" viewBox="0 -230.695 1237 1238.39">
  <defs>
    <style>
      .cls-1 {
        fill: #fff;
        fill-rule: evenodd;
      }
    </style>
    <clipPath id="clip-path">
      <rect width="1237" height="777"/>
    </clipPath>
  </defs>
  <g clip-path="url(#clip-path)">
    <path id="Color_Fill_1" data-name="Color Fill 1" class="cls-1" d="M614,0h9V14c3.705,2.274,4.99,3.774,5,10-2.525,1.466-1.544.44-2,4h5v2c-7.976,3.9-1.924,9.915,1,14h-3c-1.418-.961-3.273-0.976-6-1v5c18.588-.21,65.241-2.057,76,6,13.365,10.008,3.865,64.7,2,78h322c59.36-.007,124.68-4.51,164,16,19.49,10.165,32.07,25.856,42,46,0.97,1.967,8.42,19.68,8,21-0.12.388-2.78,2.359-3,3-2.31,6.647.37,13.278-2,19-6.32,15.251-15.66,27.714-25,40-2.4,3.156-9.61,9.133-13,11h-4c0.87,6.059-18.48,11.137-25,14-24.41,10.724-51.18,16.111-88,16-5.19,15.96-21.72,27.581-36,35-9.16,4.76-19.94,9.876-31,13-21.1,5.961-52.506,2-77,2H728c-15.818,4.419-42.985,27.2-48,42q-2,17-4,34c-6.7,27.76-6.735,58.038-14,86-5.7,21.956-7.786,44.533-14,66-1.813,6.263-8.171,21.937-6,27,3.272,2.106,11.963,1,17,1h44c49.93-.014,121.807,4.387,136,38,8.235,19.5-8.711,43.237-19,51l-7,8c-10.187,6.909-25.016,13.107-37,17-30.868,10.026-81.481,6.16-121,6-6.613-11.19-13.773-23.563-20-35-2.8-5.142-3.943-13.226-9-16v1c-1.867,3.082.026,8.6-1,13-3.514,15.056-2.665,35.289-6,51-1.517,7.147,2.019,12.864,0,19h-1v-1c-3.088-5.159,1.42-11.347,0-18-4.2-19.686-.827-46.445-7-65h-2c-2,11.839-14.478,27.85-20,38-2.041,3.751-3.208,11.258-7,13H501c-5.661-3.542-31.617-3.309-40-6-34.543-11.09-57.051-28.979-65-62-4.641-19.282,17.522-31,29-36,42.734-18.615,107.948-16.155,170-16q0.5-1.5,1-3c-6.773-10.184-7.231-32.732-11-46-9.767-34.386-12.309-74.605-21-111-4.886-20.462-1.375-48.072-12-63-9.068-12.741-26.345-28.362-43-33H294c-21.668,0-48.5,3.179-67-2-17.965-5.029-34.739-13.035-48-23l-15-17c-1.346-1.9-2.166-6.8-4-8H132c-5.872-3.743-30.652-4.175-39-7-22.827-7.724-42.956-17.827-59-30-13.155-9.981-25.134-33.81-30-53-0.453-1.786-4-16-4-16,0.459-2.056,3.355-2.722,4-4v-6c1.725-5.811,4.727-13.768,8-19,10.179-16.274,27.384-30.189,46-38,41.438-17.386,107.372-13,166-13H536c-1.667-13.386-11.692-67.859,2-78,10.963-8.12,57.232-6.135,76-6V43l-9,1V43c9.134-5.5,3.7-8.785,1-15h5c-0.565-4.641-1.739-4.565-2-10C614.431,14.587,614.337,9.185,614,0Z"/>
  </g>
</svg>
