<svg xmlns="http://www.w3.org/2000/svg" xmlns:xlink="http://www.w3.org/1999/xlink" width="40.05" height="40" viewBox="0 -208.798 1125 1123.596">
  <defs>
    <style>
      .cls-1 {
        fill: #fff;
        fill-rule: evenodd;
      }
    </style>
    <clipPath id="clip-path">
      <rect width="1125" height="706"/>
    </clipPath>
  </defs>
  <g clip-path="url(#clip-path)">
    <path id="Color_Fill_1" data-name="Color Fill 1" class="cls-1" d="M558,0h9c0,13.454,3.634,15.416,3,26h4v1c-3.863,2.523-3.463,3.846-4,8a15.927,15.927,0,0,1,5,5h-5c-1.073-.752-0.946-0.6-3-1v5c13.332-.059,28.323,1,43,1h18c6.306,2.055,8.908,7.712,13,12,1.2,24.527-1.17,45.859-4,64H923c55.367-.007,115.77-3.6,154,13,17.72,7.7,34.2,25.264,42,43,1.62,3.683-.01,7.787,2,12l3,1c2.13,3.874-1.8,9.294-2,13-0.86,16.037-8.61,28.767-16,39-23.4,32.392-67.67,47.2-126,47-11.415,22.605-34.5,36.591-61,44-17.463,4.883-42.465,2-63,2H661c-13.449,4.222-36.549,23.92-42,36q-2.5,19-5,38c-6.138,26.058-6.306,53.6-13,80-3.924,15.474-5.615,31.367-10,47-2.716,9.684-6.546,20.275-8,31,57.509,5.73,111.37-4.176,155,15,20.03,8.8,34.572,21.908,22,48-1.4.207,0.4-.822-1-1-0.775-1.923-1,2-1,2,3.259,8.643-19.725,24.177-27,28-7.158,3.762-15.836,9.247-24,12-28.274,9.536-74.477,6.1-111,6-8.819-14.655-17.321-30.185-25-46h-3v1c2.837,4.5-.031,14.764-1,21-2.686,17.285-2.9,35.086-3,53h-3c0.172-16.205,1.589-35.529-2-52-1.5-6.885-4.24-16.055-2-23h-3v1c-7.466,8.2-12.287,22.613-18,32-2.268,3.726-3.076,11.192-7,13H459c-6.446-3.763-18.373-1.048-26-3-23.824-6.1-36.5-12.474-53-25-6.2-4.706-14.172-11.144-13-20-2,.029-0.282,1.023-2,0-8.929-9.581-3.3-29.507,3-37,3.241-3.853,9.24-5.581,14-8,44.212-22.464,100-10.317,160-17l-16-67q-7.5-45.495-15-91-2.5-19-5-38c-5.556-12.18-28.445-31.68-42-36H276c-19.9,0-45,3.28-63-1-19.085-4.539-35.538-10.891-49-21-5.707-4.286-11.835-12.181-16-18-1.083-1.514-1.444-5.169-3-6H117c-5.953-3.77-15.437-.761-23-3-22.831-6.759-51.307-18.26-65-32C17.062,242.022,8.887,227.107,4,208c-0.5-1.969-3.906-16.411-3-18,3.775-6.621,5.817-16.328,10-23,10.164-16.214,26.367-28.191,45-36,35.626-14.931,95.3-10,145-10H488c-2.115-13.569-12.122-62.794,3-73,8.522-5.752,53.082-4.018,67-4V39l-7,1V38c3.863-2.523,3.463-3.846,4-8a12.206,12.206,0,0,1-4-4h4C554.314,15.475,557.929,13.419,558,0Z"/>
  </g>
</svg>
