<svg xmlns="http://www.w3.org/2000/svg" xmlns:xlink="http://www.w3.org/1999/xlink" width="40.006" height="40" viewBox="0 -195.403 1216 1215.805">
  <defs>
    <style>
      .cls-1 {
        fill: #fff;
        fill-rule: evenodd;
      }
    </style>
    <clipPath id="clip-path">
      <rect width="1216" height="825"/>
    </clipPath>
  </defs>
  <g clip-path="url(#clip-path)">
    <path id="Color_Fill_1" data-name="Color Fill 1" class="cls-1" d="M806,151c1.276-30.008,1.394-69.355,0-102h6c-0.056,34.97.177,72.223,1,103l147,14V94c1.644-2.477,1.123-8.9,1-13h3c0,26.965.959,56.559,1,85l145,14,21,1c28.14,6.388,42.06,4.022,62,19,31.72,23.824,29.93,88.4-1,112-7.11,5.429-13.44,12.316-21,17-25.71,15.932-63.49,19.016-99,29-67.05,18.852-142.7,23.4-211,41-27.448,7.073-50.022,7.531-77,14-14.748,3.536-30.962,1.19-42,8-25.378,15.656-36.5,50.49-49,79-5.518,12.583-11.519,26.121-18,39-2.54,5.047-7.329,10.138-9,16q-1,13-2,26c-1.4,6.2-5.08,18.275-3,26,8.707,32.339,37.445,41.406,63,57,36.032,21.987,76.547,40.867,110,66,5.134,3.857,7.606,10.377,12,15,0.435,30.835-13.374,35.978-33,49-38.16,25.321-100.553,38.217-158,23l-18-31V762h-9c-1.609,8.191-4.809,16.719-9,23-1.883,2.823-6.451,5.871-8,9-2.385,4.819-.184,17.719-2,23h-1c-0.369-7.036.08-20.412-3-26l-5-4c-4.526-6.325-9.091-15.822-10-25h-9c0.68,24.059-3.353,27.043-11,41-3.2,5.838-4.311,12.7-11,15-10.169,8.181-36.268,6.37-54,6-48.36-1.009-82.955-17.841-112-38-8.041-5.581-31.436-25.332-20-42,6.052-17.4,30.174-25.793,45-35,27.893-17.323,57.876-33.788,86-51,17.507-10.715,35.535-17.393,46-35a71.723,71.723,0,0,0,7-17q-3-27-6-54c-1.221-2.977-5.312-7.2-7-10-3.436-5.708-4.268-11.774-7-18-1.379-3.142-4.62-6.858-6-10-14.158-32.232-30.742-85.353-64-97l-19-2c-19.512-4.621-39.6-5.016-59-10-83.421-21.429-175.343-27.053-257-50-13.76-3.867-26.28-3.805-40-8-37.978-11.613-71.4-29.18-86-64-15.035-35.846,3.014-73.4,25-88,24.158-16.043,65.558-10.659,99-18l22-1,253-24V49h6V151c14.4,0.155,30.163-1.187,43-4l21-1c12.907-2.872,29.146-3.43,41-6V124c-1.682-2.574-1-8.82-1-13-0.009-11.315-3.328-34.662,2-42,5.715-18.059,28.521-13.833,50-16V49h-2c-8.394,5.36-24.6-.405-36,2-10.522,2.221-25.28.134-36,0-25.655-.321-52.976.352-74-5a10.931,10.931,0,0,0-2-3c0.631-1.754.193-.971,1-2,1.12-2.873.174-1.842,3-3,9.1-6.288,26.613-2.3,39-5,34.362-7.478,81.795-4.494,118-3,2.3-6.819,11.523-15.046,17-19,2.034-1.468,6.58-2.07,8-4,1.842-2.5-.878-5.555,2-7h7c1.021,0.8.274,0.355,2,1V6c1.479,2.977,8.26,4.966,11,7,6.545,4.857,9.622,16.419,20,17,3.963-2.536,34.41-3.661,42-2,7.809,1.709,19.95-.981,29,1,26.076,5.707,57.191,3.19,82,9,1.225,2.281,1.638,2.251,2,6-14,8.6-28.821,2.126-47,6-9.726,2.073-24.02-1.34-35,1-15.791,3.365-52.931.925-68-2v1c1.5,1.552.777,1.838,3,3,7.84,4.691,25.35-1.272,34,2,23.844,9.019,15.31,54.276,15,85a2.834,2.834,0,0,1,1,1C736.147,142.263,771.057,150.424,806,151Z"/>
  </g>
</svg>
