<svg xmlns="http://www.w3.org/2000/svg" width="40" height="40" viewBox="0 0 40 40">
  <defs>
    <style>
      .cls-1 {
        fill: #fff;
        fill-rule: evenodd;
      }
    </style>
  </defs>
  <path id="Color_Fill_1" data-name="Color Fill 1" class="cls-1" d="M15.487,10.879h0.16v0.159h0.04a3.263,3.263,0,0,1,.842-0.079c0.677-.147,1.486-0.106,2.167-0.238a10.869,10.869,0,0,1,.6-3.377,1.477,1.477,0,0,1,.481-0.914,0.514,0.514,0,0,1,.522,0,11.356,11.356,0,0,1,1,4.29h0.08a3.015,3.015,0,0,0,.8.08,10.943,10.943,0,0,0,2.167.2V10.879h0.16a16.4,16.4,0,0,1,.16-3.456c0.105-.39.268-0.737,0.361-1.152H25a5.778,5.778,0,0,1-2.447-.079,2.239,2.239,0,0,1-.682-0.119,6.056,6.056,0,0,0,1.123-.119,10.606,10.606,0,0,1,2.126.04,1.618,1.618,0,0,1,.562-0.953c0.408-.182.46,0.885,0.843,0.953a2.276,2.276,0,0,1,.843-0.04,8.217,8.217,0,0,1,2.207.159v0.04l-1.364.2a6.528,6.528,0,0,1-1.765-.079v0.04a1.961,1.961,0,0,1,.12.437,13.518,13.518,0,0,1,.4,4.131h0.2l-0.04.4a8.1,8.1,0,0,1,1.524.159c0.583,0.127,1.186.041,1.725,0.159,0.837,0.182,1.767.064,2.568,0.238l0.883,0.04c0.945,0.209,2.063.112,3.009,0.318l0.843,0.04c0.749,0.168,2.149.342,2.287,1.033a1.667,1.667,0,0,0,0,.675,1.573,1.573,0,0,1-.642.675,6.149,6.149,0,0,1-1.725.914c-0.413.135-.784,0.144-1.2,0.278-1.662.533-3.44,0.807-5.135,1.351-1.568.5-3.263,0.944-4.895,1.311a7.813,7.813,0,0,1-.6,1.708h-0.04v-0.04c-0.2-.271-0.331-1.282-0.642-1.351a9.808,9.808,0,0,1-1.765.477,4.1,4.1,0,0,0-1.845,1.311c-0.392.562-.028,1.671-0.2,2.463-0.117.535,0.046,1.168-.08,1.748-0.089.409,0.019,0.9-.08,1.351l-0.241,2.384H20.9v0.04l3.531,0.834a4.7,4.7,0,0,0,1.2.278l0.08-.278h0.04v0.04c0.441,0.665-.178,2.778.12,3.416l-0.16.04V32.252a1.545,1.545,0,0,1-.04-0.636H25.6V31.7c-0.24.267-.421,1.049-0.843,1.073a5.228,5.228,0,0,1-1.284.2c-0.872.215-1.693,0.233-2.528,0.437-0.282.069-.56,0.036-0.8,0.119a1.3,1.3,0,0,1-.12.477H19.98V33.96c-0.083-.111-0.078-0.323-0.16-0.437a7.37,7.37,0,0,0-1.525-.238c-0.4-.106-0.987-0.1-1.525-0.238a8.694,8.694,0,0,0-1.725-.278,5.48,5.48,0,0,1-.642-1.152h-0.08v1.033a0.267,0.267,0,0,0-.04.159c0.056,0.008-.016-0.033.04-0.04,0.031-.076.04,0.079,0.04,0.079h-0.08a0.112,0.112,0,0,1-.04.04,10.169,10.169,0,0,1,0-3.5c0.137,0.167.033,0.274,0.361,0.278a3.93,3.93,0,0,1,.963-0.238c0.777-.234,1.667-0.4,2.447-0.636a3.61,3.61,0,0,0,1.083-.278,0.2,0.2,0,0,0,.04-0.119,8,8,0,0,1-.16-1.708c-0.247-1.128.012-2.5-.241-3.655-0.07-.322.019-0.76-0.04-1.033a10.173,10.173,0,0,0-.04-1.232c-0.395-1-2.549-1.821-3.852-1.986l-0.522,1.39h-0.04v-0.04c-0.258-.3-0.4-1.522-0.682-1.669a4.059,4.059,0,0,0-.923-0.238c-0.82-.266-1.71-0.4-2.568-0.675-1.842-.6-3.854-0.955-5.7-1.549a14.946,14.946,0,0,1-3.049-.914A7.084,7.084,0,0,1,0,13.938a1.984,1.984,0,0,0,.04-0.795,5,5,0,0,1,1.324-.755c0.433-.138.874-0.051,1.364-0.159l3.129-.318a7.1,7.1,0,0,1,.04-1.907h0.04v0.04a7.87,7.87,0,0,1,.04,1.867l6.9-.636-0.04-.4h0.2a13.294,13.294,0,0,1,.08-2.5q0.02-.377.04-0.755a8.274,8.274,0,0,0,.361-1.311,9.113,9.113,0,0,1-3.129-.238,6.244,6.244,0,0,0,1.083-.119,10.811,10.811,0,0,1,2.167.04A1.524,1.524,0,0,1,14.2,5.04c0.418-.186.445,0.891,0.842,0.953a2.413,2.413,0,0,1,.883-0.04c0.782,0,1.4.108,2.126,0.119V6.152l-1.324.2a6.522,6.522,0,0,1-1.765-.079V6.351C15.516,7.139,15.48,9.515,15.487,10.879Z"/>
</svg>
