<svg xmlns="http://www.w3.org/2000/svg" width="40" height="40" viewBox="0 0 40 40">
  <defs>
    <style>
      .cls-1 {
        fill: #fff;
        fill-rule: evenodd;
      }
    </style>
  </defs>
  <path id="Color_Fill_1" data-name="Color Fill 1" class="cls-1" d="M32.683,30.592a7.352,7.352,0,0,1-1.9-.436l-3.234-.748v-1.62H27.483v1.558a11.417,11.417,0,0,1-2.727-.685c-0.875-.277-1.78-0.309-2.6-0.623V30.9a12.93,12.93,0,0,0-.127,2.492,1.989,1.989,0,0,1,.317.374c0.784,0.767,1.627,1.474,2.41,2.243a5.023,5.023,0,0,1,1.2,1.246,6.13,6.13,0,0,1,.19,2.243H26.024a4.358,4.358,0,0,0-1.015-.249c-0.713-.227-1.57-0.457-2.283-0.685a3.528,3.528,0,0,1-.951-0.249,1.151,1.151,0,0,0-.254-0.436,0.793,0.793,0,0,1-.063.436,2.337,2.337,0,0,1-.951.062c-0.223.4-.219,1.235-0.444,1.62-0.473-.247-0.34-0.9-0.444-1.5a2.708,2.708,0,0,0-1.141-.125v-0.5H18.351v0.125a2.3,2.3,0,0,0-.127.374,5.429,5.429,0,0,0-1.4.374c-1,.317-1.979.519-2.98,0.748v-1.5c0.188-.291.126-0.732,0.317-1l0.634-.561,1.459-1.5c0.462-.454.92-0.933,1.4-1.371l0.254-.125V31.589a2.536,2.536,0,0,1-.063-1V28.037H17.781c-0.641.417-2.434,0.549-3.3,0.81-2.229.673-4.646,1.231-6.976,1.744a0.794,0.794,0,0,0-.063-0.436c0.008,0.251.034,0.341-.127,0.436C7.206,29.7,6.711,27.8,7.254,26.978l4.059-3.364V22.305a5.428,5.428,0,0,0,.127-0.872H11.5v0.872a2.59,2.59,0,0,1,.063,1.059h0.063a4.913,4.913,0,0,1,1.078-.872c0.251-.185.45-0.5,0.7-0.685a0.879,0.879,0,0,0,.317-0.187V20.561a1.85,1.85,0,0,0,.063-0.81h0.127v0.81a1.849,1.849,0,0,1,.063.81h0.063c0.393-.578,1.254-0.812,1.649-1.371a11.92,11.92,0,0,0,.888-2.056,15.827,15.827,0,0,0,.951-1.869L17.463,15.2c0.072-.47.1-1.111,0.19-1.558,0.052-.022.951-0.312,0.951-0.312V8.349a10.514,10.514,0,0,0,.254-1.931c0.155-.578.347-1.274,0.507-1.807A0.756,0.756,0,0,0,19.3,4.3a5.713,5.713,0,0,0,.634-1.308C20.193,2.125,19.6.648,20,0a4.247,4.247,0,0,0,.19,1.433c-0.219.039-.138,1.167-0.127,1.62a6.519,6.519,0,0,1,.7,2.056c0.7,2.248.625,5.234,0.634,8.224a3.957,3.957,0,0,1,.951.312,5.532,5.532,0,0,0,.127.81v1.62a24.352,24.352,0,0,0,1.141,2.305,13.829,13.829,0,0,0,.634,1.558,8.449,8.449,0,0,0,1.776,1.433V20.249c0.081-.131.044-0.494,0.127-0.623l0.127,1.994c0.768,0.494,1.331,1.32,2.156,1.745V21.994c0.09-.146.034-0.541,0.127-0.685,0.029,0.762.123,1.5,0.127,2.368a5.1,5.1,0,0,1,1.2,1c0.643,0.476,2.766,1.993,2.98,2.679C33.2,28.4,32.766,29.715,32.683,30.592ZM19.81,1.308c0.054,0.117.03,0.046,0,.187H19.746ZM21.839,35.7v0.125H21.9A0.213,0.213,0,0,0,21.839,35.7Zm-3.741.187v0.125h0.063V35.888H18.1Zm3.678,0.436v0.125h0.063A0.212,0.212,0,0,0,21.776,36.324Zm-3.615.125v0.125h0.063V36.449H18.161Zm0.063,0.561v0.125h0.063V37.009H18.224Zm0.063,0.5v0.125h0.063A0.212,0.212,0,0,0,18.288,37.508Z"/>
</svg>
