<svg xmlns="http://www.w3.org/2000/svg" viewBox="0 0 53.5 53.5">
  <defs></defs>
  <path d="M 44.527 5.75 C 44.793 5.75 45.047 5.856 45.235 6.043 L 47.456 8.266 C 47.847 8.656 47.847 9.29 47.456 9.68 L 40.244 16.891 C 42.267 19.655 43.462 23.063 43.462 26.75 C 43.462 30.437 42.266 33.844 40.244 36.608 L 47.457 43.821 C 47.848 44.211 47.848 44.844 47.457 45.235 L 45.236 47.457 C 45.048 47.645 44.794 47.75 44.528 47.75 C 44.263 47.75 44.008 47.645 43.82 47.457 L 36.608 40.244 C 33.844 42.267 30.436 43.463 26.748 43.463 C 23.061 43.463 19.654 42.268 16.891 40.245 L 9.68 47.457 C 9.492 47.645 9.237 47.75 8.972 47.75 C 8.707 47.75 8.452 47.645 8.265 47.457 L 6.043 45.236 C 5.653 44.845 5.653 44.211 6.043 43.821 L 13.253 36.61 C 11.23 33.846 10.035 30.438 10.035 26.75 C 10.035 23.062 11.23 19.653 13.253 16.889 L 6.044 9.68 C 5.654 9.289 5.654 8.655 6.044 8.265 L 8.266 6.043 C 8.453 5.856 8.708 5.75 8.973 5.75 C 9.238 5.75 9.493 5.856 9.681 6.043 L 16.891 13.253 C 19.654 11.231 23.062 10.037 26.748 10.036 C 30.436 10.036 33.844 11.232 36.608 13.254 L 43.819 6.043 L 43.894 5.977 C 44.072 5.831 44.296 5.75 44.527 5.75 Z" fill="white" stroke="#F50E00" stroke-width="2" stroke-linejoin="round" style="stroke-width: 2;"></path>
</svg>