<svg width="24" height="24" viewBox="0 0 24 24" fill="none" xmlns="http://www.w3.org/2000/svg">
<path d="M16.5479 18.7717C17.0982 19.7212 16.7781 20.9702 15.7374 21.34C14.5567 21.7698 13.286 22.0002 11.9552 22.0002C10.6343 22.0002 9.3635 21.7696 8.18271 21.3498C7.14199 20.98 6.82178 19.741 7.37217 18.7814L10.1837 13.9133C10.7041 14.2131 11.3047 14.383 11.9552 14.383C12.6056 14.383 13.2161 14.2131 13.7364 13.9133L16.5479 18.7717ZM11.9552 8.70624C13.136 8.70625 14.087 9.65569 14.087 10.8351C14.0869 12.0145 13.1359 12.964 11.9552 12.9641C10.7744 12.9641 9.82343 12.0045 9.82334 10.8351C9.82334 9.65568 10.7743 8.70624 11.9552 8.70624ZM4.7999 2.38886C5.64049 1.67918 6.88135 2.00937 7.43174 2.96893L10.2042 7.76679C9.1335 8.38651 8.4132 9.52556 8.41318 10.8449H8.43271V10.9045H2.84873C1.74816 10.9044 0.827602 10.0055 1.02744 8.9162C1.24759 7.68676 1.68827 6.47681 2.34873 5.32733C3.00912 4.17802 3.83938 3.19841 4.7999 2.38886ZM16.5685 2.95819C17.119 2.00893 18.3598 1.66951 19.2003 2.37909C20.1508 3.18866 20.9911 4.16823 21.6515 5.31757C22.3119 6.46704 22.7526 7.68676 22.9728 8.9162V8.89569C23.1729 9.98514 22.2522 10.8849 21.1515 10.885H15.5177V10.8254C15.5177 9.52611 14.817 8.39631 13.7765 7.77655L16.5685 2.95819Z" fill="white"/>
</svg>
