<svg xmlns="http://www.w3.org/2000/svg" viewBox="0 0 53.5 53.5">
  <defs>
    <linearGradient id="paint0_linear_2184_19183" x1="37.5417" y1="48.5417" x2="37.5417" y2="27.4583" gradientUnits="userSpaceOnUse" gradientTransform="matrix(1, 0, 0, 1, 34.237214, 43.942375)">
      <stop stop-color="#969696"></stop>
      <stop offset="0.251" stop-color="#BDBDBD"></stop>
      <stop offset="1" stop-color="#E0E0E0"></stop>
    </linearGradient>
    <linearGradient id="paint1_linear_2184_19183" x1="38" y1="48.5417" x2="38.0018" y2="27.4583" gradientUnits="userSpaceOnUse" gradientTransform="matrix(1, 0, 0, 1, 34.237214, 43.942375)">
      <stop stop-opacity="0.502"></stop>
      <stop offset="1" stop-opacity="0.502"></stop>
    </linearGradient>
    <linearGradient id="paint0_linear_2184_19170" x1="38.0198" y1="49.0168" x2="38.0198" y2="27.0172" gradientUnits="userSpaceOnUse">
      <stop stop-color="#B71513"></stop>
      <stop offset="0.251" stop-color="#B71513"></stop>
      <stop offset="1" stop-color="#E06F63"></stop>
    </linearGradient>
    <linearGradient id="paint1_linear_2184_19170" x1="38.0198" y1="49.0168" x2="38.0198" y2="27.0172" gradientUnits="userSpaceOnUse">
      <stop stop-opacity="0.502"></stop>
      <stop offset="1" stop-opacity="0.502"></stop>
    </linearGradient>
    <linearGradient id="paint2_linear_2184_19170" x1="38.0028" y1="45.8408" x2="38.0028" y2="27.0172" gradientUnits="userSpaceOnUse">
      <stop stop-color="#CF3D3C"></stop>
      <stop offset="0.829" stop-color="#FFBAAE"></stop>
      <stop offset="1" stop-color="#F5D2CC"></stop>
    </linearGradient>
    <clipPath id="clip0_2184_19170">
      <rect width="76" height="76" fill="white"></rect>
    </clipPath>
  </defs>
  <g clip-path="url(#clip0_2184_19170)" transform="matrix(1, 0, 0, 1, -11.248201, -11.2495)">
    <path d="M16.4326 46C18.7578 52.2667 23.7352 57.2441 30.002 59.5693V62.7432C22.0777 60.183 15.8179 53.9243 13.2578 46H16.4326ZM62.7461 46C60.186 53.9243 53.9262 60.183 46.002 62.7432V59.5693C52.2687 57.2441 57.2461 52.2667 59.5713 46H62.7461ZM30.002 16.4297C23.7351 18.7548 18.7579 23.7332 16.4326 30H13.2578C15.8179 22.0756 22.0776 15.816 30.002 13.2559V16.4297ZM46.002 13.2559C53.9263 15.816 60.186 22.0756 62.7461 30H59.5713C57.246 23.7332 52.2688 18.7548 46.002 16.4297V13.2559Z" fill="#FFD900"></path>
    <path d="M29.9982 59.5693C23.7315 57.2441 18.7541 52.2667 16.4289 46H13.2541C15.8141 53.9243 22.074 60.183 29.9982 62.7432V59.5693ZM62.7423 44C63.382 44 63.9831 44.3061 64.3595 44.8232C64.7358 45.3404 64.8423 46.0067 64.6457 46.6152C61.8879 55.1509 55.1487 61.8888 46.6134 64.6465C46.0048 64.8431 45.3386 64.7366 44.8214 64.3603C44.3043 63.984 43.9982 63.3828 43.9982 62.7432V59.5693C43.9982 58.7331 44.5189 57.9852 45.3029 57.6943C51.0232 55.5717 55.5699 51.025 57.6925 45.3047L57.7521 45.1602C58.0771 44.4571 58.7836 44 59.5675 44H62.7423ZM29.383 11.3525C29.9915 11.1559 30.6578 11.2624 31.175 11.6387C31.6921 12.0151 31.9982 12.6162 31.9982 13.2559V16.4297C31.9982 17.2659 31.4775 18.0138 30.6935 18.3047C24.9732 20.4272 20.4266 24.9747 18.3039 30.6953C18.013 31.4793 17.2651 32 16.4289 32H13.2541C12.6144 32 12.0133 31.6939 11.6369 31.1768C11.2606 30.6596 11.1541 29.9933 11.3507 29.3848C14.1084 20.8492 20.8474 14.1102 29.383 11.3525ZM44.8214 11.6387C45.3386 11.2624 46.0049 11.1559 46.6134 11.3525C55.149 14.1102 61.888 20.8492 64.6457 29.3848C64.8423 29.9933 64.7358 30.6596 64.3595 31.1768C63.9831 31.6939 63.382 32 62.7423 32H59.5675C58.7313 32 57.9834 31.4793 57.6925 30.6953C55.5698 24.9747 51.0232 20.4272 45.3029 18.3047C44.5189 18.0138 43.9982 17.2659 43.9982 16.4297V13.2559C43.9982 12.6162 44.3043 12.0151 44.8214 11.6387ZM29.9982 13.2559C22.0738 15.816 15.8142 22.0756 13.2541 30H16.4289C18.7541 23.7332 23.7313 18.7548 29.9982 16.4297V13.2559ZM45.9982 16.4297C52.2651 18.7548 57.2423 23.7332 59.5675 30H62.7423C60.1822 22.0756 53.9226 15.816 45.9982 13.2559V16.4297ZM31.9982 62.7432C31.9982 63.3828 31.6921 63.984 31.175 64.3603C30.6578 64.7366 29.9915 64.8431 29.383 64.6465C20.8477 61.8888 14.1084 55.1509 11.3507 46.6152C11.1541 46.0067 11.2606 45.3404 11.6369 44.8232C12.0133 44.3061 12.6144 44 13.2541 44H16.4289C17.2651 44 18.013 44.5207 18.3039 45.3047C20.4264 51.025 24.9731 55.5717 30.6935 57.6943C31.4775 57.9852 31.9982 58.7331 31.9982 59.5693V62.7432ZM45.9982 62.7432C53.9224 60.183 60.1822 53.9243 62.7423 46H59.5675C57.2423 52.2667 52.2649 57.2441 45.9982 59.5693V62.7432Z" fill="black"></path>
    <path fill-rule="evenodd" clip-rule="evenodd" d="M41.73 38.0008L48.7049 44.9757C48.895 45.1659 49.0017 45.4238 49.0017 45.6926C49.0017 45.9615 48.895 46.2194 48.7049 46.4096L46.4113 48.7032C46.2211 48.8932 45.9632 49 45.6943 49C45.4255 49 45.1676 48.8932 44.9774 48.7032L38.0025 41.7283L31.0276 48.7032C30.8374 48.8932 30.5795 49 30.3106 49C30.0417 49 29.7839 48.8932 29.5937 48.7032L27.2968 46.4096C27.1068 46.2194 27 45.9615 27 45.6926C27 45.4238 27.1068 45.1659 27.2968 44.9757L34.2717 38.0008L27.2968 31.0248C27.1068 30.8346 27 30.5767 27 30.3078C27 30.0389 27.1068 29.7811 27.2968 29.5909L29.5904 27.2973C29.7806 27.1072 30.0385 27.0004 30.3074 27.0004C30.5762 27.0004 30.8341 27.1072 31.0243 27.2973L38.0025 34.2722L44.9774 27.2973C45.0715 27.203 45.1833 27.1283 45.3063 27.0773C45.4293 27.0263 45.5612 27 45.6943 27C45.8275 27 45.9594 27.0263 46.0824 27.0773C46.2054 27.1283 46.3172 27.203 46.4113 27.2973L48.7082 29.5909C48.8982 29.7811 49.005 30.0389 49.005 30.3078C49.005 30.5767 48.8982 30.8346 48.7082 31.0248L41.73 38.0008Z" fill="url(#paint0_linear_2184_19170)" stroke="url(#paint1_linear_2184_19170)"></path>
    <path fill-rule="evenodd" clip-rule="evenodd" d="M48.2759 45.7186L41.301 38.7437L41.8871 38.1576L48.2759 44.5431C48.4426 44.7136 48.543 44.9379 48.5591 45.1758C48.5751 45.4137 48.5058 45.6495 48.3635 45.8408C48.3376 45.7978 48.3083 45.7569 48.2759 45.7186ZM48.7085 30.7663L46.4116 28.4684C46.3175 28.3742 46.2058 28.2994 46.0828 28.2484C45.9597 28.1974 45.8279 28.1711 45.6947 28.1711C45.5615 28.1711 45.4296 28.1974 45.3066 28.2484C45.1836 28.2994 45.0718 28.3742 44.9777 28.4684L38.0028 35.4455L31.0279 28.4706C30.8377 28.2805 30.5798 28.1737 30.311 28.1737C30.0421 28.1737 29.7842 28.2805 29.594 28.4706L27.2971 30.762C27.2644 30.8031 27.2351 30.8469 27.2096 30.8928C27.0673 30.7015 26.9979 30.4657 27.014 30.2279C27.03 29.99 27.1305 29.7656 27.2971 29.5952L29.5908 27.3016C29.781 27.1115 30.0388 27.0048 30.3077 27.0048C30.5766 27.0048 30.8345 27.1115 31.0247 27.3016L38.0028 34.2722L44.9777 27.2973C45.0718 27.203 45.1836 27.1283 45.3066 27.0773C45.4296 27.0263 45.5615 27 45.6947 27C45.8279 27 45.9597 27.0263 46.0828 27.0773C46.2058 27.1283 46.3175 27.203 46.4116 27.2973L48.7085 29.5909C48.8752 29.7613 48.9756 29.9857 48.9916 30.2235C49.0077 30.4614 48.9384 30.6972 48.7961 30.8885C48.7704 30.844 48.7411 30.8017 48.7085 30.762V30.7663ZM34.1217 38.1489L34.7078 38.735L27.7297 45.7186C27.6969 45.7597 27.6676 45.8035 27.6421 45.8494C27.4998 45.6581 27.4305 45.4223 27.4465 45.1844C27.4626 44.9466 27.563 44.7222 27.7297 44.5518L34.1217 38.1489Z" fill="url(#paint2_linear_2184_19170)"></path>
  </g>
</svg>