<svg xmlns="http://www.w3.org/2000/svg" viewBox="0 0 53.5 53.5">
  <defs>
    <clipPath id="clip0_2184_19144">
      <rect width="48" height="48" fill="white" transform="translate(14 14)"></rect>
    </clipPath>
  </defs>
  <g clip-path="url(#clip0_2184_19144)" transform="matrix(1, 0, 0, 1, -11.2484, -11.250051)">
    <path d="M32.9091 56.9687C26.16 55.1593 20.8407 49.84 19.0312 43.0909H20.5411C22.2749 49.0356 26.9643 53.7251 32.9091 55.4589V56.9687ZM56.9687 43.0909C55.1592 49.84 49.84 55.1593 43.0909 56.9687V55.4589C49.0356 53.7251 53.7251 49.0356 55.4589 43.0909H56.9687ZM43.0909 19.0313C49.84 20.8407 55.1592 26.16 56.9687 32.9091H55.4589C53.7251 26.9644 49.0356 22.2749 43.0909 20.5411V19.0313ZM19.0312 32.9091C20.8407 26.16 26.16 20.8407 32.9091 19.0313V20.5411C26.9643 22.2749 22.2749 26.9644 20.5411 32.9091H19.0312Z" stroke="black" stroke-opacity="0.15" stroke-width="2" stroke-miterlimit="3" stroke-linejoin="round"></path>
    <path d="M38.728 15.4546H37.2734V24.1818H38.728V15.4546Z" stroke="black" stroke-opacity="0.15" stroke-width="2" stroke-miterlimit="3" stroke-linejoin="round"></path>
    <path d="M38.728 51.8182H37.2734V60.5454H38.728V51.8182Z" stroke="black" stroke-opacity="0.15" stroke-width="2" stroke-miterlimit="3" stroke-linejoin="round"></path>
    <path d="M24.1804 37.2727H15.4531V38.7273H24.1804V37.2727Z" stroke="black" stroke-opacity="0.15" stroke-width="2" stroke-miterlimit="3" stroke-linejoin="round"></path>
    <path d="M60.5437 37.2727H51.8164V38.7273H60.5437V37.2727Z" stroke="black" stroke-opacity="0.15" stroke-width="2" stroke-miterlimit="3" stroke-linejoin="round"></path>
    <path d="M35.8164 38C35.8164 36.7956 36.7939 35.8182 37.9982 35.8182C39.2026 35.8182 40.18 36.7956 40.18 38C40.18 39.2044 39.2026 40.1818 37.9982 40.1818C36.7939 40.1818 35.8164 39.2044 35.8164 38Z" stroke="black" stroke-opacity="0.15" stroke-width="2" stroke-miterlimit="3" stroke-linejoin="round"></path>
    <path d="M32.9091 56.9687C26.16 55.1593 20.8407 49.84 19.0312 43.0909H20.5411C22.2749 49.0356 26.9643 53.7251 32.9091 55.4589V56.9687ZM56.9687 43.0909C55.1592 49.84 49.84 55.1593 43.0909 56.9687V55.4589C49.0356 53.7251 53.7251 49.0356 55.4589 43.0909H56.9687ZM43.0909 19.0313C49.84 20.8407 55.1592 26.16 56.9687 32.9091H55.4589C53.7251 26.9644 49.0356 22.2749 43.0909 20.5411V19.0313ZM19.0312 32.9091C20.8407 26.16 26.16 20.8407 32.9091 19.0313V20.5411C26.9643 22.2749 22.2749 26.9644 20.5411 32.9091H19.0312Z" stroke="black" stroke-opacity="0.15" stroke-miterlimit="3" stroke-linejoin="round"></path>
    <path d="M38.7241 15.4546H37.2695V24.1818H38.7241V15.4546Z" stroke="black" stroke-opacity="0.15" stroke-miterlimit="3" stroke-linejoin="round"></path>
    <path d="M38.7241 51.8182H37.2695V60.5455H38.7241V51.8182Z" stroke="black" stroke-opacity="0.15" stroke-miterlimit="3" stroke-linejoin="round"></path>
    <path d="M24.1804 37.2727H15.4531V38.7273H24.1804V37.2727Z" stroke="black" stroke-opacity="0.15" stroke-miterlimit="3" stroke-linejoin="round"></path>
    <path d="M60.5437 37.2727H51.8164V38.7273H60.5437V37.2727Z" stroke="black" stroke-opacity="0.15" stroke-miterlimit="3" stroke-linejoin="round"></path>
    <path d="M35.8164 38C35.8164 36.7957 36.7939 35.8182 37.9982 35.8182C39.2026 35.8182 40.18 36.7957 40.18 38C40.18 39.2044 39.2026 40.1818 37.9982 40.1818C36.7939 40.1818 35.8164 39.2044 35.8164 38Z" stroke="black" stroke-opacity="0.15" stroke-miterlimit="3" stroke-linejoin="round"></path>
    <path fill-rule="evenodd" clip-rule="evenodd" d="M32.9091 56.9687C26.16 55.1593 20.8407 49.84 19.0312 43.0909H20.5411C22.2749 49.0356 26.9643 53.7251 32.9091 55.4589V56.9687ZM56.9687 43.0909C55.1592 49.84 49.84 55.1593 43.0909 56.9687V55.4589C49.0356 53.7251 53.7251 49.0356 55.4589 43.0909H56.9687ZM43.0909 19.0313C49.84 20.8407 55.1592 26.16 56.9687 32.9091H55.4589C53.7251 26.9644 49.0356 22.2749 43.0909 20.5411V19.0313ZM19.0312 32.9091C20.8407 26.16 26.16 20.8407 32.9091 19.0313V20.5411C26.9643 22.2749 22.2749 26.9644 20.5411 32.9091H19.0312Z" fill="white"></path>
    <path d="M38.7241 15.4546H37.2695V24.1818H38.7241V15.4546Z" fill="white"></path>
    <path d="M38.7241 51.8182H37.2695V60.5455H38.7241V51.8182Z" fill="white"></path>
    <path d="M24.1804 37.2727H15.4531V38.7273H24.1804V37.2727Z" fill="white"></path>
    <path d="M60.5437 37.2727H51.8164V38.7273H60.5437V37.2727Z" fill="white"></path>
    <path d="M35.8164 38C35.8164 36.7957 36.7939 35.8182 37.9982 35.8182C39.2026 35.8182 40.18 36.7957 40.18 38C40.18 39.2044 39.2026 40.1818 37.9982 40.1818C36.7939 40.1818 35.8164 39.2044 35.8164 38Z" fill="white"></path>
  </g>
</svg>