<?xml version="1.0" encoding="UTF-8"?>
<svg id="Layer_2" data-name="Layer 2" xmlns="http://www.w3.org/2000/svg" viewBox="0 0 23 39">
  <defs>
    <style>
      .cls-1 {
        opacity: .5;
      }

      .cls-2 {
        opacity: .7;
      }

      .cls-3 {
        fill: #fff;
        stroke-width: 0px;
      }

      .cls-4 {
        opacity: .3;
      }

      .cls-5 {
        opacity: .6;
      }
    </style>
  </defs>
  <g id="Layer_1-2" data-name="Layer 1">
    <g class="cls-2">
      <g class="cls-4">
        <path class="cls-3" d="m11.5,26.1L.6,35.87c-.8.72-.8,1.88,0,2.6s2.1.72,2.9,0l8-7.17,8,7.17c.8.72,2.1.72,2.9,0s.8-1.88,0-2.6l-10.9-9.77Z"/>
      </g>
      <g class="cls-1">
        <path class="cls-3" d="m11.5,13.05L.6,22.82c-.8.72-.8,1.88,0,2.6.8.72,2.1.72,2.9,0l8-7.17,8,7.17c.8.72,2.1.72,2.9,0s.8-1.88,0-2.6l-10.9-9.77Z"/>
      </g>
      <g class="cls-5">
        <path class="cls-3" d="m11.5,0L.6,9.77c-.8.72-.8,1.88,0,2.6.8.72,2.1.72,2.9,0l8-7.17,8,7.17c.8.72,2.1.72,2.9,0s.8-1.88,0-2.6L11.5,0Z"/>
      </g>
    </g>
  </g>
</svg>