<?xml version="1.0" encoding="UTF-8"?>
<svg id="Layer_1" data-name="Layer 1" xmlns="http://www.w3.org/2000/svg" width="28" height="28" viewBox="0 0 28 28">
  <defs>
    <style>
      .cls-1 {
        fill: #ff4b38;
      }

      .cls-1, .cls-2 {
        fill-rule: evenodd;
        stroke-width: 0px;
      }

      .cls-2 {
        fill: #fff;
      }
    </style>
  </defs>
  <path class="cls-2" d="m19,12.56v7.73c0,.94-.75,1.71-1.67,1.71h-6.67c-.31,0-.61-.09-.86-.25l9.19-9.19Zm-3.56-3.56h-7.44v-2h3l.86-1h4.29l.86,1h.43l-2,2Zm-6.44,6.44v-5.44h5.44l-5.44,5.44Z"/>
  <path class="cls-1" d="m6.88,22.38c1.92,1.63,4.4,2.62,7.12,2.62,6.07,0,11-4.93,11-11,0-2.71-.98-5.2-2.62-7.12l-15.5,15.5ZM20.96,5.48c-1.9-1.55-4.32-2.48-6.96-2.48C7.93,3,3,7.93,3,14c0,2.64.93,5.06,2.48,6.96l15.48-15.48ZM14,1c7.17,0,13,5.83,13,13s-5.83,13-13,13S1,21.17,1,14,6.83,1,14,1Z"/>
</svg>