<svg id="Layer_1" data-name="Layer 1" xmlns="http://www.w3.org/2000/svg" xmlns:xlink="http://www.w3.org/1999/xlink" width="32" height="32" viewBox="0 0 32 32">
  <defs>
    <style>
      .cls-1 {
        opacity: 0.57;
        isolation: isolate;
      }

      .cls-2 {
        fill: url(#linear-gradient);
      }

      .cls-3 {
        fill: #4e89c4;
      }

      .cls-3, .cls-4, .cls-5, .cls-6 {
        fill-rule: evenodd;
      }

      .cls-4 {
        fill: #2f4963;
      }

      .cls-5 {
        fill: #757775;
      }

      .cls-6 {
        fill: #d3404a;
      }

      .cls-7 {
        fill: url(#linear-gradient-2);
      }
    </style>
    <linearGradient id="linear-gradient" x1="16" y1="6" x2="16" y2="30" gradientTransform="matrix(1, 0, 0, -1, 0, 34)" gradientUnits="userSpaceOnUse">
      <stop offset="0" stop-color="#d1d1d1"/>
      <stop offset="0.57561" stop-color="#ddd"/>
      <stop offset="0.77458" stop-color="#e7e7e7"/>
      <stop offset="1" stop-color="#ececec"/>
    </linearGradient>
    <linearGradient id="linear-gradient-2" x1="16" y1="6" x2="16" y2="30" gradientTransform="matrix(1, 0, 0, -1, 0, 34)" gradientUnits="userSpaceOnUse">
      <stop offset="0" stop-color="#e9e9e9"/>
      <stop offset="0.51707" stop-color="#ddd"/>
      <stop offset="0.79103" stop-color="#efefef"/>
      <stop offset="1" stop-color="#f7f7f7"/>
    </linearGradient>
  </defs>
  <g id="Layer_8" data-name="Layer 8">
    <path class="cls-1" d="M16,3A13,13,0,1,0,29,16,13,13,0,0,0,16,3Z"/>
  </g>
  <g id="Layer_1-2" data-name="Layer 1">
    <circle class="cls-2" cx="16" cy="16" r="12"/>
    <path class="cls-3" d="M16.14118,20.87059l1.92038.24538,2.962,5.44653a15.64836,15.64836,0,0,1-7.0652.98438c-.6875-.10938-.31127-3.441-.31127-3.441Z"/>
    <path class="cls-4" d="M14.07812,25.54688l.5,2a13.01062,13.01062,0,0,1-7.25-3.79688l6.98438-1.70833-.025-6.90817-3.2113-4.359L21.23438,5.5,25.25,9.0625l-10.0625,4.875,1.87426,10.22917Z"/>
    <path class="cls-3" d="M11.86162,11.94407l-.5044,1.75627L7.4375,12.85417l-.83333-.95834L8.32585,9.07307l5.95972-1.54086L14.18637,4.75l-.723-.11814c.04378-.00029,1.38693-.20833,1.43071-.20833,2.69652,0,3.9647.05882,6.12941,1.41176l-2.897,1.55017L18.686,9.23491Z"/>
    <path class="cls-5" d="M4.609,19.14874,7.18426,13.823l2.10316-1.35555-.301,1.64985L9.738,19.84784l2.55374,2.71128-1.05148,4.21735-.70886-.24091A11.85813,11.85813,0,0,1,4.609,19.14874Zm23.21458-3.113a11.91048,11.91048,0,0,1-.1514,1.80554L26.62475,20.3156,20.904,17.49089l-3.04981-2.82422,5.193-2.65627-.26244-5.6728A11.8392,11.8392,0,0,1,27.82353,16.03578Z"/>
    <path class="cls-6" d="M27.89583,15.95a11.86017,11.86017,0,0,1-6.34727,10.50687l1.201-3.84575-4.55113-5.67638.46116-1.91593L23.75,16.29167l3.46351-4.28127A11.84332,11.84332,0,0,1,27.89583,15.95ZM8.02083,7.75l3.63177,4.92189L10.90588,15.149,6.94473,16.92726l-.60044,5.77957A12.10423,12.10423,0,0,1,4.3905,15.902C4.47451,11.83922,5.84751,9.95825,8.02083,7.75Z"/>
    <path class="cls-7" d="M16,4.75A11.25,11.25,0,1,1,4.75,16,11.25,11.25,0,0,1,16,4.75M16,4A12,12,0,1,0,28,16,12,12,0,0,0,16,4Z"/>
  </g>
</svg>
