<svg xmlns="http://www.w3.org/2000/svg" xmlns:xlink="http://www.w3.org/1999/xlink" width="40.026" height="40" viewBox="0 -96.69 953 952.381">
  <defs>
    <style>
      .cls-1 {
        fill: #fff;
        fill-rule: evenodd;
      }
    </style>
    <clipPath id="clip-path">
      <rect width="953" height="759"/>
    </clipPath>
  </defs>
  <g clip-path="url(#clip-path)">
    <path id="Color_Fill_1" data-name="Color Fill 1" class="cls-1" d="M474,0h5V3c9.434,6.806,9.314,25.043,24,25,5.348-3.457,14.692-.515,22-2,15.557-3.161,36.892-.171,48,5l-1,3c-19.755,8.83-47.989,7.876-72,5v3c2.076,0.372,1.924.242,3,1,3.7,6.062,1.19,16.1,3,24,1.06,4.626.357,11.3,2,17l7,13c-2.706.6-5.392,1.426-6,2,2.323,2.412,4.047,6.316,5,10-7.426,4.118.794,6.677-1,12a11.568,11.568,0,0,1-3,2c1.229,2.877,2.121,5.6,5,7,2.077-2.736,4.373-3.7,9-4,7.471,7.206,5.328,16.991,5,31l47,4c1.963-7.929,8.621-15.12,19-15,2.106,2.955,5.908,5.023,8,8,1.37,1.949,2.156,8.669,4,10h11c5.524,3.468,30.433,4.938,39,5,1.966-9.37,2.043-23.663,2-36h2v33c2.3,1.321,1.527,2.159,3,4,4.151,2.557,10.366.724,16,2a306.612,306.612,0,0,0,43,6c-0.047-17.148.716-35.319,1-51h2v51a2.834,2.834,0,0,1,1,1c17.569-.211,46.127,4.012,62,8l24,2c50.083,11.868,123.5,1.49,138,49,6.292,20.616-7.825,37.785-17,47-28.458,28.579-66.373,32.01-114,44-9.473,2.385-45.929,11.806-54,9,0.133,4.026.543,5.468-2,7-5.989,3.8-27.72,5.987-36,7v-5c-17.915.827-41.273,6.649-58,11-15.041,3.912-28.9,3.071-44,7-20.486,5.328-42.177,9.94-62,16-23.431,7.163-35.748,5.125-49,23-1.391,1.877-5.082,3.762-6,6v77c-3.514,5.763-1.827,37.806-2,47-0.216,11.5-4.772,28.486-1,39,3.435,9.577,15.776,12.92,24,18,20.332,12.559,41.732,25.355,62,38,16.342,10.2,51.784,25.688,44,58-1.953,8.108-6.1,18.672-12,23-21.1,15.47-73.087,21.474-102,30-13.942,4.112-31.455,3.056-42,11-2.148,1.618-2.353,5.885-4,8-2.508-15.669-30.872-15.012-45-19-22.517-6.356-47.738-11.111-70-18-13.545-4.192-28.651-5.9-36-16-12.978-17.835-8.423-39.9,3-55,7.682-10.153,21.889-15.118,33-22,14.7-9.108,30.317-18.856,45-28,11.6-7.221,24.268-11.941,35-20,2.589-1.944,3.757-5.676,6-8,0.734-16.727,1.672-39.913-2-57-1.947-9.062.679-21.187-1-29V410c-7.512-5.617-11.613-14.86-20-20-13.353-8.184-38.6-9.023-55-14-19.892-6.037-42.668-9.566-64-15-11.524-2.935-21.432-2.044-33-5-14.493-3.7-31.291-7.673-47-9v5l-38-7c0.06-2.9.048-5.468-1-7-3.182,2.075-11.615.2-16-1-13.564-3.7-29.545-5.04-43-9l-23-4c-36.227-10.515-71.341-19.329-90-45-6.747-9.282-17.374-23-12-41,6.913-23.153,25.966-30.576,50-37l21-2c36.163-8.756,77.626-7.031,114-16,13.567-3.345,27.7-.824,40-5,1.095,6.384,6.7,5.453,14,5a21.509,21.509,0,0,0,1-7c11.671,0.125,38.278-2.6,48-6a326.709,326.709,0,0,0,2-37h2v33c2.542,1.455,1.128-.217,2,3,17.865,0.025,31.64-4.759,50-5,1.8-9.177,7.493-18.165,19-18,2.711,3.748,12.267,14.793,18,15,2.847-1.724,7.851-.093,12-1,14.444-3.158,34.035-.333,48-5-0.669-2.1-.761-8.6-1-9-1.883-2.166-2.222-1.2-3-5a17.224,17.224,0,0,0,4-7c-3.393-.946-3.111-0.385-4-4,1.738-1.819,2.871-4.606,4-7-2.542-1.287-2.872-1.1-4-4a17.522,17.522,0,0,0,4-8c-2.542-1.287-2.872-1.1-4-4a17.522,17.522,0,0,0,4-8,17.243,17.243,0,0,1-5-3c11.065-11.907,6.05-36.607,12-54h3V38h-1c-9.425,6.609-44.8,3.914-56,1-6.674-1.737-13.232-.526-16-6h1c1.3-2.468-.429-0.681,2-2,12.774-11.318,56.29-3.628,75-3C461.736,19.883,472.491,6.978,474,0Z"/>
  </g>
</svg>
