<svg xmlns="http://www.w3.org/2000/svg" width="40" height="40" viewBox="0 0 40 40">
  <defs>
    <style>
      .cls-1 {
        fill: #fff;
        fill-rule: evenodd;
      }
    </style>
  </defs>
  <path id="Color_Fill_1" data-name="Color Fill 1" class="cls-1" d="M21.692,17.468l3.44,0.056a16.82,16.82,0,0,1,.222-5.175,7.772,7.772,0,0,1,2.053-.056l0.055,0.167a9.548,9.548,0,0,1,.333,3.673,4.036,4.036,0,0,0-.111,1.391,2.479,2.479,0,0,0,.943.056H39.556a5.011,5.011,0,0,0,.055-1.335H39.556V16.188h0.111v1.391h0.166a1.981,1.981,0,0,1,.111.89,9.726,9.726,0,0,1-.111,2.56,11.6,11.6,0,0,0-1.72.334c-0.934.241-1.9,0.276-2.774,0.5-1.448.372-2.943,0.424-4.327,0.779-0.848.218-1.7,0.237-2.5,0.445a3.129,3.129,0,0,0-1.054.223c-0.357.588-.022,2.045-0.388,2.615a3.694,3.694,0,0,1-1.387.056l-0.277-2.337c-1.323.076-2.385,0.535-3.828,0.556,0,1.37-.154,2.59-0.166,3.9a5.625,5.625,0,0,0-.055,1.447,5.743,5.743,0,0,0,1.442.946c0.95,0.6,1.894,1.322,2.829,1.948a6.317,6.317,0,0,1,1.387.89v1.057a1.289,1.289,0,0,0-.111.389,0.867,0.867,0,0,1-.277.056,7.018,7.018,0,0,0-1.664-.556l-3.828-1.28a4.767,4.767,0,0,1-.222,1.781,5.254,5.254,0,0,1-.666.445v1.725H20.139V35.219H20.083a0.831,0.831,0,0,1-.111.5,0.721,0.721,0,0,0-.111-0.5A4.9,4.9,0,0,1,19.806,37V35.275c-0.867-.466-0.91-0.963-0.888-2.282a7.247,7.247,0,0,0-1.664.556c-0.842.316-1.654,0.465-2.5,0.779a3.777,3.777,0,0,1-1.664.445,0.748,0.748,0,0,1,0-.389c-0.14-.021-0.088.032-0.111-0.167a4.319,4.319,0,0,0,.055-0.946,13.658,13.658,0,0,0,1.387-.946c0.986-.626,1.935-1.256,2.885-1.892,0.464-.311,1.386-0.543,1.387-1.28a7.4,7.4,0,0,1-.111-1.836c-0.09-.982-0.167-2.061-0.166-3.116-1.442.023-2.5-.477-3.828-0.556l-0.277,2.337H12.927l-0.333-2.727a20.662,20.662,0,0,1-3.551-.668l-1.276-.167c-1.267-.329-2.718-0.459-3.994-0.779-0.85-.213-1.7-0.237-2.5-0.445a3.642,3.642,0,0,1-1.11-.223A1.684,1.684,0,0,1,.111,20.25a9.225,9.225,0,0,1,0-2.615c0.406-.174.3-0.88,0.277-1.447H0.444v1.391H12.372a16.15,16.15,0,0,1-.056-4.062,2.017,2.017,0,0,1,.333-1.224h1.942c0.716,1.262.339,3.531,0.333,5.231l3.44-.056V11.514a17.836,17.836,0,0,1,.111-3.394c0.16-.724-0.064-1.742.111-2.282A6.292,6.292,0,0,1,19.861,3c1.255,0.032,1.289,2.283,1.553,3.45a10.269,10.269,0,0,1,.166,1.5V9.01c0.122,0.521-.131,1.622.056,2.448a10.644,10.644,0,0,1,.055,2v4.007Z"/>
</svg>
