<svg xmlns="http://www.w3.org/2000/svg" width="40" height="40" viewBox="0 0 40 40">
  <defs>
    <style>
      .cls-1 {
        fill: #fff;
        fill-rule: evenodd;
      }
    </style>
  </defs>
  <path id="Color_Fill_1" data-name="Color Fill 1" class="cls-1" d="M10.289,11a0.261,0.261,0,0,1,.053.155H10.289V11Zm6.929,4.237c0.685,0,1.442.008,2.047,0.052l-0.053.258h2.152v0.207c-0.606-.02-2.012-0.157-2.257.207v0.517a0.448,0.448,0,0,0,0,.413,3.064,3.064,0,0,1,.473.465,1.7,1.7,0,0,1,1.155.258c0.282,0.077.709-.228,1.1-0.155V17.407H21.785c-0.1-.04.105-0.052,0.105-0.052v0.155c-0.162.1-.053,0.27,0,0.465h0.892a2.314,2.314,0,0,1,.21-0.31H22.835a0.576,0.576,0,0,0-.315-0.052V17.407h0.105a0.247,0.247,0,0,0,.052.155L22.625,17.2H21.89a0.646,0.646,0,0,1,.052-0.207H21.785c-0.044.168,0.026,0.079-.105,0.155-0.038-.183-0.064-0.128-0.105-0.31a1.107,1.107,0,0,1,.21-0.207v0.052h0.052c-0.021.117-.048,0.056,0,0.155a0.434,0.434,0,0,0,.105-0.155,0.181,0.181,0,0,1-.105-0.052,1,1,0,0,0,.367-0.155,0.675,0.675,0,0,1,.42.155H24.2c0.043-.168-0.026-0.079.105-0.155,0.043,0.394.634,0.282,1.05,0.258a2.932,2.932,0,0,0,1,.052c0.565,0.031,1.3.057,1.942,0.052v0.1H28.242a0.459,0.459,0,0,1-.262.052,2.26,2.26,0,0,0-1,0,23.29,23.29,0,0,0-2.73.1,1.406,1.406,0,0,1,0,.62H24.095V17.562H23.2a1.279,1.279,0,0,0-.053.413c0.189,0.01.109-.077,0.157,0.1l-0.157-.052a0.337,0.337,0,0,1-.157.31,0.594,0.594,0,0,1,.105.155c0.23-.068.223-0.023,0.473-0.1,0.163,0.253.41,0.422,0.577,0.672,0.393-.314,2.475.05,4.619,0.052V18.906h0.052a6.513,6.513,0,0,0,1.995,0v0.155a28.7,28.7,0,0,0,3.622.1H40v0.568H31.916c-0.7,0-2.648.309-3.15,0.052h-1a10.224,10.224,0,0,0-2.625.465c-0.079.072-.046-0.093-0.053-0.1-0.023-.006-0.735.052-0.735,0.052a0.739,0.739,0,0,0-.63-0.207l-0.157.258a1.322,1.322,0,0,1-.367-0.1l-0.158.465H23.15a0.842,0.842,0,0,0,.42.052,0.8,0.8,0,0,0,.052-0.258H23.78a1.512,1.512,0,0,0,.682.672c0.076-.131-0.011-0.058.157-0.1a0.2,0.2,0,0,0,.105.155,0.785,0.785,0,0,1,.21-0.672,0.911,0.911,0,0,1,.577,0,1.276,1.276,0,0,1,.052.413h0.367v0.258h0.053v0.052a3.926,3.926,0,0,1,1,.31c0.106,0.034.073-.13,0.21-0.052,0.3,0.08.45,0.335,0.84,0.465,0.314,0.1.675-.009,0.945,0.1a0.659,0.659,0,0,1,.052-0.362v0.31h0.157V21.8h0.157a0.338,0.338,0,0,1,0-.258c0.064-.16.02-0.117,0.21-0.155a0.46,0.46,0,0,0,.262.052l-0.052-.155h0.157v0.827h0.367a1.859,1.859,0,0,1,.42.517,0.767,0.767,0,0,0-.315.31c0.242,0.238.349,0.63,0.577,0.878-0.244.261-.237,0.971-0.472,1.292a4.1,4.1,0,0,1-1.312.827c-0.757.454-1.581,0.825-2.362,1.292a5,5,0,0,1-.735.465,8.2,8.2,0,0,1-2.257.052H18.74a11.6,11.6,0,0,0-2.362.052,1.991,1.991,0,0,1-.945.155c-1.035-.42-3.307-0.207-4.724-0.207H6.614a14.824,14.824,0,0,1-2.362-1.033,11.894,11.894,0,0,1-1.942-.827,3.888,3.888,0,0,1-.735-1.292,0.459,0.459,0,0,1-.63-0.052,0.8,0.8,0,0,1-.472.207,0.19,0.19,0,0,0-.1-0.052A1.8,1.8,0,0,1,0,23.815a0.357,0.357,0,0,0,.315-0.207A0.343,0.343,0,0,1,.1,23.556c0.17-.043.08,0.025,0.157-0.1a2.465,2.465,0,0,0,.21-0.878A0.689,0.689,0,0,1,.1,22.523H0.577a0.556,0.556,0,0,1,.367-0.413V22.058H0.682A6.411,6.411,0,0,1,.84,21.231a3.088,3.088,0,0,0-.1-0.568,0.612,0.612,0,0,1,.367-0.1V20.4H0.84V20.249a4.313,4.313,0,0,1,1.417-.155c0.158,0.084-.032.136,0.367,0.155,0-.313-0.01-0.36,0-0.62l1.155,0.31a0.8,0.8,0,0,1,.052.258,11.806,11.806,0,0,0,1.785-.207c0.2-.027.179,0.146,0.262,0.155,0.046,0.005.245-.05,0.367-0.052A0.248,0.248,0,0,1,6.3,19.939a0.271,0.271,0,0,1,.157-0.052,0.908,0.908,0,0,0,.1.207,4.748,4.748,0,0,1,1.365-.155,4.1,4.1,0,0,1,1.417.155c0.583,0.113,1.45.159,2.1,0.31,0.309,0.072.7-.125,0.84-0.052l0.053,0.155h0.63V20.456a0.99,0.99,0,0,0-1-.672V19.629a13.052,13.052,0,0,1-3.045,0c-0.169-.3-0.069-0.916-0.21-1.137a1.293,1.293,0,0,0-.577-0.052,9.76,9.76,0,0,1,.052-1.757A0.848,0.848,0,0,0,8.5,16.529a0.409,0.409,0,0,0,.262.207,1.517,1.517,0,0,0,.052.672c0.086-.452.886-0.331,1.417-0.31v-0.1a6.993,6.993,0,0,1,.053-1.24V12.6a3.814,3.814,0,0,1,.053-1.4v4.444a13.559,13.559,0,0,1,.053,1.447h0.157c0.1-.044.039-0.024,0.158,0a5.607,5.607,0,0,0,.1-2.067h0.473v0.052a8.708,8.708,0,0,0,.053,2.015h0.053a0.677,0.677,0,0,1,.577-0.517c0-1.159.053-2.481,0.053-3.72a3.975,3.975,0,0,1,.052-1.447,28.037,28.037,0,0,0,.158,5.322h0.105a0.3,0.3,0,0,1,.315-0.1c0.082,0.123.164,0.281,0.262,0.413,0.126-.456.717-0.3,0.892-0.568H13.6a0.646,0.646,0,0,1,.053-0.207,0.763,0.763,0,0,0,.472-0.155,4.34,4.34,0,0,1,2.152.052V16.012H16.011a0.176,0.176,0,0,0-.053-0.1c0.048-.125.056-0.082,0.1-0.207H16.011V15.651a3.835,3.835,0,0,1-.472-0.1V15.392H15.381l-0.1.362a0.181,0.181,0,0,1-.105-0.052,0.26,0.26,0,0,1-.053-0.155,0.682,0.682,0,0,0,.158-0.31,0.839,0.839,0,0,0,.262.052,1.786,1.786,0,0,0,.1-0.31,2.261,2.261,0,0,0,1.47.052,0.329,0.329,0,0,0,.053.207V12.292a3.2,3.2,0,0,1,.052-1.188v4.134Zm-0.157.207a0.191,0.191,0,0,0,.105.052A0.191,0.191,0,0,0,17.06,15.444Zm0.157,0a0.535,0.535,0,0,0,.473,0H17.218Zm-1.05.207v0.155H16.43V15.7A0.835,0.835,0,0,0,16.168,15.651Zm0.84,0.052v0.1h0.105V15.7H17.008Zm0.21,0a0.19,0.19,0,0,0,.105.052A0.19,0.19,0,0,0,17.218,15.7Zm1.522,0.62v-0.31a0.906,0.906,0,0,0-.525-0.155,0.427,0.427,0,0,1-.052.258V15.857a4.23,4.23,0,0,1-.472,0c-0.044-.168.026-0.079-0.105-0.155v0.052a0.743,0.743,0,0,0-.315.517,0.836,0.836,0,0,0,.263.052A7.677,7.677,0,0,1,18.74,16.322Zm-1.732-.155a0.675,0.675,0,0,0-.21.052V16.27l0.263,0.052v-0.1a0.442,0.442,0,0,0,.052-0.258H17.008v0.207Zm1.207,0.362c-0.226.132-.7,0.008-0.892,0.155h0.105a0.84,0.84,0,0,0,.787.1c0.085-.29.326,0.024,0.42-0.258h-0.42Zm0.053,0.207a0.191,0.191,0,0,0,.1.052A0.191,0.191,0,0,0,18.268,16.736Zm3.727,0.155a1.077,1.077,0,0,0,.735,0H21.995Zm-9.029.155c0.02,0.135-.039.068,0.105,0.1v-0.1H12.966ZM19.108,17.1a0.3,0.3,0,0,0,.315.1V17.149Zm4.462,0.31V17.1a0.7,0.7,0,0,0-.787.31H23.57Zm1.68-.1h0.84v0.052H26.037a1.93,1.93,0,0,1-.787.052V17.3Zm-15.171.052a0.247,0.247,0,0,0,.053.155V17.459a0.185,0.185,0,0,0,.053-0.1H10.079Zm12.966,1.189a0.646,0.646,0,0,0,.053.207H23.2A0.28,0.28,0,0,0,23.045,18.544ZM1.155,20.4v0.155H1.312V20.4H1.155Zm-0.315.31a0.248,0.248,0,0,0,.052.155A0.247,0.247,0,0,0,.84,20.714Zm13.176,0.31a0.155,0.155,0,0,0,.21,0h-0.21Zm15.591,0.517V21.8H29.5a0.461,0.461,0,0,1-.262.052v0.155a1.085,1.085,0,0,1,.577.052v-0.1a1.36,1.36,0,0,1-.052-0.413H29.606ZM0.052,22.575a1.52,1.52,0,0,1,0,.982C0.047,23.153.049,22.99,0.052,22.575ZM30.814,22.73a0.52,0.52,0,0,1,.262.31H30.971v-0.1A0.283,0.283,0,0,1,30.814,22.73Zm-30.131.362-0.052.1C0.721,23.122.682,23.091,0.682,23.091ZM1,23.556l0.052-.413H1v0.052a0.82,0.82,0,0,0-.367.362H1Zm-0.577.052c0.017,0.114-.054.056,0.052,0.1a0.27,0.27,0,0,0,.157.052V23.711Zm0.052,0.31H0.21a0.148,0.148,0,0,1-.052.052v0.1h0.1c0.143-.063.092-0.023,0.21,0.052V23.918Zm29.606,0.155c0,0.14-.07.083,0.105,0.155V24.073H30.079ZM0.525,24.28c0.09,0.046.067,0.046,0.157,0H0.525Zm29.606,0.1H29.974v0.1H29.921c-0.052.052,0.052,0.051,0.053,0.052,0.082,0.064.027,0.033,0.1,0A0.261,0.261,0,0,0,30.131,24.383Zm-0.367.31a0.723,0.723,0,0,0-.052.207h0.1l0.105-.155H29.869A0.19,0.19,0,0,0,29.764,24.693Zm-0.945.155h-0.21c-0.04.136-.063,0.123-0.1,0.258h0.052c0.091,0.068.084,0.089,0.157,0.052A0.379,0.379,0,0,0,28.819,24.848Zm0.158,0.1-0.053.31h0.262V25.21h0.052a0.8,0.8,0,0,1-.052-0.258h-0.21Zm0.525,0a0.4,0.4,0,0,0-.157.155H29.4v0.052a0.389,0.389,0,0,0,.21-0.207H29.5Zm-2.415.672a2.107,2.107,0,0,1-.105.827h0.105a6.53,6.53,0,0,1,1.785-.982V25.416l-0.577-.207A1.421,1.421,0,0,1,27.087,25.623Zm-14.908-.052a2.083,2.083,0,0,1-.577,1.55h1.417V27.07a1.6,1.6,0,0,1-.578-1.5A0.323,0.323,0,0,1,12.179,25.571Zm8.084,0.052h-1v0.052c0.3,0.445-.389,1.255-0.577,1.447H20.84V27.07A1.5,1.5,0,0,1,20.263,25.623ZM5.249,25.83a1.792,1.792,0,0,1-1.207.1v0.052H4.094a4.823,4.823,0,0,0,1.417.62V26.553C5.359,26.38,5.394,26.015,5.249,25.83Zm3.78,0.517H8.5a3.642,3.642,0,0,1-.525.775H9.5V27.07A1.034,1.034,0,0,1,9.029,26.347Zm6.562,0a1.625,1.625,0,0,1-.473.775H16.64V27.07a1.417,1.417,0,0,1-.525-0.723H15.591Zm8.346,0H23.412a1.126,1.126,0,0,1-.525.723v0.052h1.575V27.07A0.879,0.879,0,0,1,23.937,26.347Z" transform="translate(0 0.516)"/>
</svg>
