<?xml version="1.0" encoding="utf-8"?>
<!-- Generator: Adobe Illustrator 16.0.0, SVG Export Plug-In . SVG Version: 6.00 Build 0)  -->
<!DOCTYPE svg PUBLIC "-//W3C//DTD SVG 1.1//EN" "http://www.w3.org/Graphics/SVG/1.1/DTD/svg11.dtd">
<svg version="1.1" id="Layer_1" xmlns="http://www.w3.org/2000/svg" xmlns:xlink="http://www.w3.org/1999/xlink" x="0px" y="0px"
	 width="40px" height="40px" viewBox="0 0 40 40" enable-background="new 0 0 40 40" xml:space="preserve">
<path id="Color_Fill_1" fill="#FFFFFF" d="M0.319,5.016C0.405,5.038,0.36,5.003,0.4,5.069c-0.057,0.263-0.066,0.534-0.027,0.8v2.075
	L0.4,13.422v1.782c0.022,0.176,0.031,0.354,0.027,0.532H0.5v0.32c0.06,0.019,0.123,0.028,0.186,0.027v0.027h0.032v-0.24
	c0.018-0.023,0.027-0.051,0.027-0.08H0.9v-0.027h0.03c-0.004-0.223,0.014-0.446,0.053-0.665v-9.6h0.054v9.6
	c0.058,0.208,0.076,0.424,0.053,0.639c0.169-0.023,0.336-0.058,0.5-0.106c0.024-0.078,0.061-0.15,0.11-0.215h0.08v0.133h0.027
	v-0.052c0.086,0.001,0.169,0.029,0.239,0.08c0.277-0.028,0.552-0.073,0.824-0.133c0.073-0.021,0.165-0.094,0.239-0.107L3.4,15.391
	c0.224-0.032,0.445-0.076,0.664-0.133l0.319-0.027c0.102-0.062,0.209-0.115,0.319-0.16c0.251-0.065,0.4,0.062,0.664,0
	c0.092-0.022,0.256-0.057,0.346-0.08c0.405-0.13,0.839-0.14,1.249-0.027c0.024,0.037,0.029,0.149,0.053,0.186
	c0.297,0.048,0.6,0.058,0.9,0.027c0.441-0.049,0.885-0.076,1.329-0.08c0.013-0.072,0.032-0.143,0.057-0.212
	c-0.287-0.016-0.572-0.061-0.851-0.133c-0.483-0.113-0.983-0.1-1.435-0.213L6.06,14.433c-0.1-0.053-0.208-0.089-0.319-0.106
	c-0.06-0.199-0.149-0.388-0.266-0.559c-0.022-0.201,0.015-0.404,0.106-0.585c0.031-0.299,0.041-0.6,0.027-0.9
	c0.608-0.009,1.181-0.175,1.807-0.186l-0.027-0.213h0.08v-0.08h0.107c0.022,0.086-0.013,0.041,0.053,0.08v-0.031
	c0.027-0.026,0.026,0.026,0.027,0.027c0.018,0.021,0.035,0.059,0.053,0.08c0.222-0.007,0.444,0.002,0.664,0.027
	c0.736-0.176,1.868-0.157,2.738-0.346v-0.825c0.172-0.055,0.353-0.073,0.532-0.053c0.156,0.041,0.318,0.05,0.478,0.027
	c0.017-0.149,0.142-0.263,0.292-0.266c0.121-0.038,0.251-0.038,0.372,0c0.1,0.35,0.555,0.254,0.983,0.239
	c0.22,0.041,0.445,0.041,0.665,0c0.047-0.042,0.091-0.086,0.133-0.133c0.257-0.022,0.516-0.013,0.771,0.027
	c0.219,0.18,0.312,0.471,0.239,0.745h0.08c-0.012,0.128-0.044,0.128-0.053,0.266l1.621-0.027c0.12,0.061,0.245,0.115,0.372,0.16
	c0.329,0.017,0.657,0.053,0.983,0.106c0.032,0.012,0.483,0.343,0.505,0.372c0.015,0.075,0.042,0.147,0.08,0.213
	c0.241,0.141,0.523,0.197,0.8,0.16c0.209,0.047,0.425,0.056,0.639,0.027c0.404,0.055,0.814,0.073,1.223,0.053
	c0.01,0.05,0.055,0.084,0.105,0.08v0.104l7.442,0.107c0.146-0.082,0.312-0.119,0.478-0.107c0.07,0.121,0.098,0.262,0.08,0.4
	c-0.129,0.039-0.264,0.057-0.4,0.053c-0.184-0.108-0.4-0.146-0.61-0.106l-1.354,0.027l-5.635,0.08v0.106
	c-0.043,0.016-0.08,0.043-0.107,0.08c-0.09,0.036-0.311-0.059-0.451-0.027c-0.41,0.012-0.818,0.048-1.223,0.106
	c-0.075,0.049-0.146,0.102-0.213,0.16c-0.3,0.165-0.6,0.268-0.9,0.426c-0.142,0.074-0.31,0.207-0.452,0.266
	c-0.592,0.209-1.208,0.344-1.834,0.4l0.027,0.16c0.37,0.031,0.735,0.103,1.09,0.213h0.691v-0.268H19.8
	c0.039-0.017,0.37-0.186,0.372-0.186c0.294-0.018,0.617,0.122,0.9,0.106c-0.041-0.185-0.002-0.377,0.105-0.532
	c0.822-0.222,1.678-0.294,2.525-0.213l0.031,0.349c-0.055,0.005-0.104,0.035-0.133,0.08h0.08c0.014-0.014,0.032-0.024,0.053-0.027
	c0,0.077-0.026,0.037,0,0.08c0.093-0.035,0.193-0.044,0.291-0.027c0.053,0.145,0.071,0.299,0.054,0.452h0.346
	c0.001-0.196,0.159-0.354,0.354-0.354c0.023,0,0.047,0.002,0.07,0.007c0.197,0.102,0.416,0.157,0.639,0.16
	c0.486,0.125,1.048,0.162,1.541,0.266c0.064,0.004,0.127-0.004,0.187-0.027c0.247-0.026,0.497,0.021,0.718,0.133
	c0.02,0.032,0.029,0.069,0.027,0.106c-0.059,0.093-0.061,0.283-0.105,0.373c0.377,0.029,0.75,0.091,1.115,0.186
	c0.464,0.093,0.937,0.138,1.409,0.133c0.035,0.079-0.026,0.064,0.106,0.08c0.036,0.003,0.072,0.013,0.105,0.027
	c-0.024-0.121,0.055-0.239,0.176-0.264c0.003,0,0.007-0.001,0.01-0.002c0.043,0.016,0.08,0.043,0.106,0.08
	c0.038,0.074,0.056,0.156,0.054,0.239c0.512,0.029,1.019,0.109,1.515,0.239c0.368,0.088,0.754,0.041,1.09,0.16v-0.189
	c-0.016-0.242,0.083-0.479,0.267-0.638v-0.426c0-0.354,0.014-0.722,0.026-1.037c0.074-0.049,0.138-0.112,0.187-0.186
	c0.042,0.016,0.087,0.025,0.133,0.027c0.058,0.298,0.137,0.592,0.238,0.878c0.008,0.116-0.029,0.23-0.105,0.319l-0.08,1.011
	c0.113,0.037,0.111,0.088,0.105,0.239c-0.037,0.033-0.072,0.068-0.105,0.105h0.186c0.007,0.012,0.016,0.021,0.027,0.027v-0.346
	c-0.057-0.235-0.02-0.484,0.105-0.692c0.248-0.012,0.173-0.4,0.16-0.639c0.188-0.329-0.201-1.151,0.318-1.17
	c0.073,0.297,0.162,0.59,0.266,0.878c0.025,0.171-0.023,0.345-0.133,0.479l-0.053,0.958l0.053,0.027
	c0.028,0.095,0.037,0.194,0.027,0.293c-0.099,0.063-0.15,0.177-0.133,0.293h0.053c0.067,0.027,0.141,0.036,0.213,0.026
	c0.031-0.088,0.119-0.144,0.213-0.133c0.02,0.019,0.059,0.035,0.08,0.053c0.02,0.032,0.029,0.069,0.027,0.106l0.213,0.027v0.08
	l0.425,0.186v-2.928c-0.028-0.049-0.028-0.111,0-0.16h0.027v0.029c0.062,0.296,0.069,0.601,0.026,0.9
	c0.008,0.733,0.018,1.469,0.026,2.208l0.718,0.346v-1.86c0.043-0.174,0.052-0.354,0.027-0.532v-1.3h0.08
	c-0.028,1.186-0.051,2.537-0.053,3.724c0.699,0.265,1.42,0.633,2.072,0.959c0.349,0.026,0.655,0.24,0.801,0.559
	c-0.148,0.09-0.268,0.219-0.347,0.372c0.202,0.075,0.345,0.26,0.366,0.475c-0.158,0.211-0.3,0.434-0.425,0.665l-0.134,0.08v0.479
	c-0.025,0.059-0.035,0.123-0.026,0.187c-0.04,0.034-0.085,0.061-0.133,0.08c-0.022-0.032-0.041-0.068-0.054-0.106
	c-0.049-0.207-0.059-0.422-0.028-0.634c-0.039-0.021-0.075-0.048-0.106-0.08l-0.08,0.027c-0.008,0.222-0.018,0.442-0.027,0.665
	c-0.039,0.033-0.084,0.061-0.133,0.08v-0.032c-0.096-0.227-0.124-0.476-0.08-0.718c-0.069-0.033-0.133-0.078-0.186-0.133
	c-0.02,0.002-0.039,0.012-0.053,0.026c-0.258,0.209-0.467,0.472-0.611,0.771c-0.046-0.005-0.092,0.004-0.133,0.026
	c0.049,0.029,0.094,0.065,0.133,0.106c-0.049,0.183-0.075,0.37-0.08,0.56c-0.092,0.089-0.217,0.137-0.346,0.133
	c-0.029-0.029-0.066-0.047-0.105-0.054c-0.023-0.103-0.08-0.196-0.16-0.266c-0.267,0.368-1.346,0.835-1.354,1.356
	c0.088,0.275,0.115,0.565,0.08,0.852c-0.008,0.592-0.214,1.162-0.585,1.623c-0.42,0.604-1.043,1.037-1.754,1.224
	c-0.453,0.107-0.925,0.116-1.383,0.027c-1.073-0.282-2.619-1.31-2.764-2.474h-1.779c-0.186,1.014-0.862,1.871-1.807,2.287
	c-0.113,0.047-0.199,0.039-0.318,0.08c-0.496,0.174-1.028,0.21-1.543,0.106c-1.018-0.224-1.856-0.942-2.232-1.915
	c-0.098-0.176-0.17-0.363-0.213-0.559h-3.773v0.053c-0.094,0.226-0.173,0.457-0.239,0.691c-0.274,0.557-0.698,1.026-1.223,1.357
	c-0.27,0.148-0.555,0.265-0.851,0.346c-0.546,0.131-1.118,0.104-1.648-0.08c-1.105-0.315-1.931-1.235-2.126-2.367H10.5v0.026h-0.028
	c-0.08,0.401-0.273,0.771-0.558,1.063c-0.546,0.732-2.186,1.855-3.615,1.33c-0.336-0.109-0.658-0.262-0.957-0.451
	c-0.57-0.414-0.991-1.002-1.2-1.676c-0.047-0.246-0.074-0.495-0.08-0.746c-0.038-0.201-0.038-0.409,0-0.611
	c0.055-0.244,0.126-0.483,0.213-0.719c0.147-0.221,0.23-0.479,0.239-0.744c-0.054-0.034-0.099-0.08-0.133-0.133
	c-0.4,0.189-0.442,0.3-0.425,0.899c-0.02,0.032-0.029,0.069-0.027,0.107c-0.033,0.02-0.061,0.047-0.08,0.08H3.827V22.84
	c-0.079-0.064-0.11-0.169-0.08-0.266c-0.03-0.149-0.048-0.301-0.053-0.452H3.668v0.718C3.6,22.881,3.6,22.916,3.535,22.893
	c-0.101-0.215-0.129-0.459-0.08-0.691c-0.087-0.027-0.163-0.084-0.213-0.16c-0.02-0.328-0.011-0.657,0.027-0.984
	c0.073-0.031,0.307-0.063,0.372-0.105c-0.045-0.051-0.064-0.119-0.053-0.186c-0.292-0.041-0.572-0.141-0.824-0.293
	c-0.104,0.41-0.285,0.799-0.531,1.144c-0.112,0.035-0.229,0.054-0.346,0.053c-0.423,0.145-0.892,0.03-1.2-0.293
	c-0.105-0.036-0.191-0.112-0.239-0.213c-0.064-0.197-0.08-0.406-0.048-0.611v-1.517c0.073-0.101,0.196-0.151,0.319-0.133
	c0-0.644-0.078-1.062-0.08-1.729H0.08v-0.984H0v-0.106h0.186c0.026-0.113,0.035-0.23,0.027-0.346
	c0.086-0.022,0.041,0.013,0.08-0.053c-0.042-0.255-0.033-0.516,0.026-0.768v-5.59C0.375,8.823,0.384,8.315,0.346,7.81
	C0.346,6.887,0.378,5.894,0.319,5.016z M15.628,11.534c0.014,0.014,0.023,0.033,0.027,0.053h-0.027V11.534z M29.607,13.077V12.97
	c-0.028,0-0.057,0.009-0.08,0.027c-0.02,0.032-0.027,0.069-0.025,0.106h0.025C29.551,13.086,29.579,13.077,29.607,13.077z
	 M29.688,12.971v0.106h0.08l0.027-0.106H29.688z M29.502,13.21c0,0.029,0.009,0.057,0.025,0.08v0.026h0.08V13.21H29.5H29.502z
	 M29.688,13.21v0.106h0.106v-0.053c-0.015-0.015-0.023-0.033-0.026-0.053H29.688L29.688,13.21z M21.316,14.78v0.053h0.053
	c0.008-0.012,0.018-0.021,0.031-0.027v-0.027h-0.08L21.316,14.78z M35,15.551c-0.064,0.133-0.154,0.25-0.266,0.346
	c0.077,0.096,0.141,0.204,0.186,0.319h0.053v-0.24C35.012,15.838,35.021,15.693,35,15.551z M34.123,15.79
	c-0.072,0.091-0.135,0.189-0.186,0.293c0.066,0.09,0.12,0.188,0.16,0.293h0.025v-0.533c0.036-0.042,0.02-0.013,0.003-0.053H34.123z
	 M34.923,16.59c-0.033,0.069-0.078,0.133-0.133,0.186h0.133c0.032-0.059,0.032-0.129,0.001-0.188L34.923,16.59z M0.718,19.035
	l-0.159,0.027v2.021c0.014,0.015,0.023,0.033,0.027,0.053c0.237,0.168,0.485,0.32,0.744,0.452c-0.126-0.099-0.26-0.188-0.4-0.266
	c-0.079-0.083-0.15-0.172-0.213-0.267L0.718,19.035L0.718,19.035z M0.85,19.594c0,0.487,0.007,1.018,0.027,1.463
	c0.229,0.137,0.443,0.298,0.638,0.479c0.125,0.003,0.249-0.005,0.372-0.027c0.22-0.388,0.398-0.798,0.532-1.224
	C1.917,20.01,1.392,19.778,0.85,19.594z M39.65,19.779c-0.078,0.041-0.121,0.127-0.106,0.214c0.05,0.031,0.104,0.058,0.159,0.08
	c0.076-0.055,0.116-0.146,0.105-0.239L39.65,19.779z M2.578,20.366c-0.195,0.368-0.362,0.751-0.5,1.144H2.1
	c0.015-0.014,0.033-0.023,0.053-0.027c0.208-0.344,0.375-0.709,0.5-1.09L2.578,20.366z M3.508,21.402v-0.266H3.482
	c-0.026,0.043-0.063,0.08-0.106,0.106l0.053,0.159H3.508L3.508,21.402z M37.848,21.643c-0.1-0.053-0.209-0.08-0.32-0.08
	c-0.095,0.054-0.17,0.138-0.213,0.238c0.031,0.1,0.098,0.186,0.187,0.239c0.077,0.042,0.173,0.032,0.24-0.024
	C37.828,21.912,37.867,21.776,37.848,21.643z M20.465,23.479v0.451c0.273,0.042,0.554,0.033,0.824-0.027
	c-0.142-0.007-0.283-0.007-0.426,0c-0.039-0.138-0.049-0.283-0.026-0.426h-0.372V23.479z M21.475,23.479h-0.291v0.053l0.053,0.027
	c0.074,0.045,0.154,0.08,0.238,0.105V23.479z M28.575,23.479l-0.027,0.451H29v-0.025c-0.027-0.04-0.046-0.086-0.053-0.133h-0.11
	c-0.036-0.095-0.036-0.199,0-0.293H28.57H28.575z M29.375,23.479h-0.191v0.053c0.073,0.008,0.141,0.047,0.186,0.105v-0.16
	L29.375,23.479z M29.295,23.878v0.054h0.08v-0.027L29.295,23.878z"/>
</svg>
