<svg xmlns="http://www.w3.org/2000/svg" width="39.938" height="40" viewBox="0 0 39.938 40">
  <defs>
    <style>
      .cls-1 {
        fill: #fff;
        fill-rule: evenodd;
      }
    </style>
  </defs>
  <path id="Color_Fill_1" data-name="Color Fill 1" class="cls-1" d="M9.4,16.05c0.417,0,.5-0.021.787,0v0.6h0.2a2.446,2.446,0,0,1,.2.25c0.108-.087.119-0.157,0.246-0.1s0.091,0.009.148,0.15a1.458,1.458,0,0,1,0,.3,1.554,1.554,0,0,0,.935-0.1,1.159,1.159,0,0,1-.541-0.05,0.257,0.257,0,0,1-.049-0.15A3.963,3.963,0,0,1,12.4,16.9a0.177,0.177,0,0,1,.1-0.05v-0.1c0.281-.483.148-3.2,0.148-4.2a4.143,4.143,0,0,1,.049-1.45v5a0.859,0.859,0,0,0,.492.1c0.289-.305,1.555-0.04,1.968-0.25v0.1a0.194,0.194,0,0,0-.1.15,0.79,0.79,0,0,1,.246.25h0.049A1.536,1.536,0,0,1,15.5,16.1h0.1c0.045,0.306.065,0.413,0.443,0.4V16.45h0.049a0.725,0.725,0,0,0-.148-0.4c-0.072.126-.022,0.077-0.2,0.1v-0.2a0.406,0.406,0,0,0,.246-0.05c-0.419-.008-0.372-0.277-0.344-0.7h-0.2c-0.041.162,0.024,0.076-.1,0.15l0.049-.1H15.351a0.4,0.4,0,0,0-.246.1,0.244,0.244,0,0,0-.049-0.15c-0.038.034-.11,0.066-0.148,0.1-0.109.132-.043,0.171-0.148,0.2H14.711v0.05a0.439,0.439,0,0,1-.049-0.25h0.049V15.25c-0.176-.021-0.124.024-0.2-0.1l0.1,0.05V15.15c-0.067-.051.014-0.032,0.049-0.15-0.163-.053-0.22-0.044-0.394-0.1V14.85a1.379,1.379,0,0,0,.443-0.35c0.433,0.31.977-.012,1.525,0.05,0.195,0.022.093,0.1,0.2,0.15h1.378a0.876,0.876,0,0,0,.492.05c0.1-.071-0.051-0.119.1-0.15a3.473,3.473,0,0,0,.492.2H18.844c-0.246.151-.839-0.054-1.082,0.1,0.176,0.021.124-.024,0.2,0.1H17.712c-0.148.054-.478-0.08-0.836,0-0.249.055-.532,0.153-0.738,0.2a1.943,1.943,0,0,0,.1.35h0.2c0.409,0.259.939-.245,1.378-0.05l0.049,0.15a7.51,7.51,0,0,0,1.919.05V15.5h0.1v0.2H20.32v0.1H19.188v0.05c0.176,0.021.124-.024,0.2,0.1-0.446.043-.932,0.082-1.525,0.1V16.2a0.913,0.913,0,0,1-.344,0v0.05a0.167,0.167,0,0,1,.1.05H17.466v0.55a0.679,0.679,0,0,1,.3.1,0.424,0.424,0,0,1,.049-0.25,3.8,3.8,0,0,0,1.328.05V16.8a0.434,0.434,0,0,0,.049.35c0.452,0.414,1.277.432,1.722,0.85a0.257,0.257,0,0,0-.049.15,2.113,2.113,0,0,0,.492-0.05,0.8,0.8,0,0,0,.2-0.25,3.618,3.618,0,0,0,.394.1V17.9L21.8,17.85a0.279,0.279,0,0,0,0-.2,0.29,0.29,0,0,0,.2-0.1,2.979,2.979,0,0,0,1.23.7,0.586,0.586,0,0,1,.246-0.35,0.837,0.837,0,0,1,0-.5h-0.2a1.194,1.194,0,0,1,.049-0.55,2.592,2.592,0,0,0-.738-0.05,0.248,0.248,0,0,1-.148.05c-0.019-.131.037-0.066-0.1-0.1a0.327,0.327,0,0,1-.049.2c-0.024-.32-0.1-0.338-0.1-0.6a0.7,0.7,0,0,1-.246-0.05,2.683,2.683,0,0,0,0-.4,0.54,0.54,0,0,1,.344.15,0.425,0.425,0,0,0,.3-0.1h0.049l-0.148.25h0.3l0.049-.15c0.2-.093.231,0.131,0.394,0.15H24.9c0.058-.133-0.044-0.09.1-0.15v0.1a0.257,0.257,0,0,1,.049.15c1.328,0.018,2.866.131,4.182,0.1v0.2a9.449,9.449,0,0,0-2.558.1l-0.3-.05c-0.25.038-.995,0.024-1.378,0.1V16.9a0.476,0.476,0,0,1,.2.5H24.256v0.1a0.181,0.181,0,0,1,.049.1h-0.3a2.12,2.12,0,0,0,.246,1.3,1.679,1.679,0,0,1,.59.3,0.273,0.273,0,0,0-.148.2h0.049a1.7,1.7,0,0,1,.541-0.1,0.408,0.408,0,0,0,.3.25,1.045,1.045,0,0,0,.1-0.25h0.2v0.15h0.836V19.3h0.2v0.15A6.894,6.894,0,0,0,28,19.35c0.041,0.162-.024.076,0.1,0.15a1.719,1.719,0,0,1,.246-0.05,0.383,0.383,0,0,1,.148-0.15,0.248,0.248,0,0,1,.148-0.05V19.1h0.2v0.15H29.52V19.1h0.2v0.15a2.387,2.387,0,0,0,.836-0.15,0.67,0.67,0,0,0,.492.4,3.511,3.511,0,0,1,.394.05V19.4h0.2v0.15h1.279V19.4h0.2v0.15h1.279c0.1-.057-0.043-0.1.2-0.15v0.15h1.23V19.4c0.241,0.052.1,0.095,0.2,0.15h1.23V19.4h0.2v0.15h0.886a0.966,0.966,0,0,1,.2-0.2,2.469,2.469,0,0,0,1.476.3v0.6a2.246,2.246,0,0,0-.738.1H38.77c-0.264.078-1.576,0-2.411,0h-3.69a12.839,12.839,0,0,1-1.574,0l-0.689.15c-0.883-.13-1.942.028-2.608-0.1l-0.541.05a10.292,10.292,0,0,1-1.82-.1,1.357,1.357,0,0,1-.1.4c-0.309-.149-0.6.207-0.984-0.05a1.348,1.348,0,0,1-.344.2,2.3,2.3,0,0,1-.64-0.05c-0.167.047-.153,0.019-0.2,0.2-0.061.078-.032,0.026,0,0.1a1,1,0,0,0,.738.1,6.031,6.031,0,0,0,1.132.1,2.416,2.416,0,0,1,.394.4,1.351,1.351,0,0,0,.787-0.15,0.86,0.86,0,0,0,.787.2c0.059-.02.043-0.14,0.2-0.1a5.059,5.059,0,0,0,1.427.25V22.1l0.836,0.1a1.47,1.47,0,0,1-.1.4,1.134,1.134,0,0,1,.443.35,0.486,0.486,0,0,1-.2.25c-0.07.169,0.21,0.218,0.148,0.45a1.25,1.25,0,0,1-.3.35c-0.124.192,0.084,0.279-.049,0.45a2.81,2.81,0,0,0-.344.25V25a3.02,3.02,0,0,1-.394.9,5.4,5.4,0,0,1-1.378,1c-0.661.47-1.329,0.933-2.017,1.4a4.777,4.777,0,0,1-.787.55,5.341,5.341,0,0,1-1.722.1H4.969A3.229,3.229,0,0,1,3.542,27.8l-0.59-.55a1.5,1.5,0,0,0-1.181-.9V26.2H2.017V26.15a2.409,2.409,0,0,1-.689-0.75,0.167,0.167,0,0,0-.1.05c-0.119.045-.078,0.053-0.2,0.1-0.055-.078-0.158-0.2-0.2-0.15a0.835,0.835,0,0,1-.59.15,0.759,0.759,0,0,1-.2-0.6A0.181,0.181,0,0,0,.1,24.85a1.233,1.233,0,0,0,.394-0.2,3.063,3.063,0,0,0,.394.25V24.75a0.181,0.181,0,0,1-.049-0.1C0.2,24.42.179,24,.1,23.2a0.516,0.516,0,0,1-.049-0.3,2.3,2.3,0,0,1,.787-0.65V21h0.3V20.9a0.213,0.213,0,0,1,0-.2h-0.1a0.526,0.526,0,0,1-.3.05l-0.049-.1a0.561,0.561,0,0,1,.344-0.1c0.316,0.151,1.264-.285,1.673-0.1a7.059,7.059,0,0,0,2.558,0l0.59,0.05a7.581,7.581,0,0,1,2.8.2,5.7,5.7,0,0,0,2.165.25,8.714,8.714,0,0,1-2.312-.55l-0.836-.15c-0.2-.145.077-0.205-0.344-0.25a15.409,15.409,0,0,0-2.46-.3,10.783,10.783,0,0,1,.3-2.5,1.364,1.364,0,0,1-.984-0.65,0.336,0.336,0,0,0,.246-0.15l-0.1-.05a1.638,1.638,0,0,0-.64-0.1,0.181,0.181,0,0,1-.049-0.1H3.69V16.1a1.284,1.284,0,0,1,1.033.15c0.181,0.33-.065.626,0.443,0.65A0.784,0.784,0,0,1,5.9,16.75c0.552,0.123,1.533.23,2.263,0.3a6.1,6.1,0,0,0,0-1.75H8.512a7.231,7.231,0,0,0-.1.75h0.64A6.037,6.037,0,0,0,9,14.45a0.856,0.856,0,0,0,.2-0.9V11H9.25v3.4a0.535,0.535,0,0,1,.246.1A3.337,3.337,0,0,0,9.4,16.05ZM9.1,14.5a0.177,0.177,0,0,0,.1.05A0.177,0.177,0,0,0,9.1,14.5Zm0.148,0a0.177,0.177,0,0,0,.1.05A0.177,0.177,0,0,0,9.25,14.5Zm7.626,0.35a0.77,0.77,0,0,0,.59,0h-0.59Zm0.689,0a0.177,0.177,0,0,0,.1.05A0.177,0.177,0,0,0,17.565,14.85Zm-2.509.5a0.181,0.181,0,0,1,.049.1H15.055v-0.1Zm-0.2.1a0.314,0.314,0,0,1,.2.05A0.314,0.314,0,0,1,14.859,15.45Zm3.493,0.35a0.672,0.672,0,0,0,.541,0H18.352Zm0.64,0a0.177,0.177,0,0,0,.1.05A0.177,0.177,0,0,0,18.991,15.8Zm-2.312.15a0.176,0.176,0,0,0,.1.05A0.177,0.177,0,0,0,16.679,15.95Zm0.886,0a0.569,0.569,0,0,0,.148.1v-0.1H17.565ZM15.793,16a0.176,0.176,0,0,0,.1.05A0.177,0.177,0,0,0,15.793,16Zm6.494,0.1-0.1.15,0.2-.1A0.177,0.177,0,0,0,22.288,16.1Zm-5.215.5V16.25H17.023a4,4,0,0,1-.443-0.05v0.1a0.189,0.189,0,0,1,.148.2,0.272,0.272,0,0,0-.148.2h0.64V16.6H17.073Zm5.56-.1a1.089,1.089,0,0,0,.738,0H22.632Zm-0.246.1v0.1h0.148V16.6H22.386Zm1.378,0.15a0.526,0.526,0,0,1-.3.05v0.1h0.738V16.8h0.049V16.75H23.764Zm-13.579.1a0.7,0.7,0,0,0,.246.2V17a0.578,0.578,0,0,1-.1-0.15H10.185Zm2.165,0.25a0.244,0.244,0,0,0-.049-0.15,0.177,0.177,0,0,1-.1.05v0.1h0.148Zm3.985,0.05h0.148v-0.2h-0.1V17A0.257,0.257,0,0,0,16.335,17.15Zm7.085-.2v0.2h0.1V17a1.589,1.589,0,0,0,.689-0.05H23.419Zm2.608,0a4.63,4.63,0,0,1,.836.1A1.23,1.23,0,0,1,26.027,16.95ZM5.412,17v0.2H5.658A0.641,0.641,0,0,1,5.707,17h-0.3ZM5.9,17v0.25H6V17H5.9Zm19.09,0c0.041,0.162-.024.076,0.1,0.15V17h-0.1Zm-15.351.1c0.01,0.07-.04-0.02-0.049.05-0.095.039,0.1,0.05,0.1,0.05A0.172,0.172,0,0,0,9.643,17.1Zm13.924,0a0.327,0.327,0,0,0,.344,0H23.567Zm0.394,0a0.2,0.2,0,0,0,.246,0H23.961ZM5.9,17.3a1.091,1.091,0,0,0-.049.35h0.1C5.962,17.413,6.011,17.4,5.9,17.3Zm-0.541.2v0.1h0.3V17.5h-0.3Zm0,0.2L5.314,18h0.3V17.7H5.363Zm0.492,0a1.829,1.829,0,0,0-.049.35H5.9v-0.1C5.981,17.825,5.948,17.785,5.855,17.7Zm13.678,0.1a0.2,0.2,0,0,0,.246,0H19.533Zm0.64,0.1a0.281,0.281,0,0,0,.3.1V17.95Zm3.493,0.05-0.148.25h0.1C23.69,18.1,23.744,18.09,23.665,17.95Zm-3.1.05v0.1h0.049A0.172,0.172,0,0,0,20.566,18Zm0.148,0v0.1h0.049A0.172,0.172,0,0,0,20.713,18Zm1.427,0.05a0.179,0.179,0,0,0,.3.15A1.481,1.481,0,0,1,22.14,18.05ZM5.314,18.1a0.861,0.861,0,0,1-.049.3h0.3l0.049-.3h-0.3Zm0.492,0a0.993,0.993,0,0,0,0,.3v0.05H5.855V18.4A0.2,0.2,0,0,0,5.806,18.1Zm16.679,0.2c0.055,0.144.009,0.092,0.148,0.15a0.248,0.248,0,0,0,.148.05V18.4Zm-17.22.2a0.861,0.861,0,0,1-.049.3h0.3a0.928,0.928,0,0,0,.049-0.3h-0.3Zm0.492,0v0.25H5.806V18.7a0.342,0.342,0,0,0,.049-0.2h-0.1Zm-0.541.4v0.3H5.461a0.861,0.861,0,0,1,.049-0.3h-0.3Zm-0.049.4v0.2a0.887,0.887,0,0,0,.3.05V19.3h-0.3ZM1.279,20.7a0.4,0.4,0,0,0,.394,0H1.279Zm26.568,1.6a0.2,0.2,0,0,0,.2.1V22.35h0.049V22.3H27.848Zm1.378,0v0.1h0.049V22.3H29.225Zm-0.689.1v0.15c0.173,0.009.28,0.068,0.3,0.05a0.257,0.257,0,0,0,.049-0.15h-0.1A0.42,0.42,0,0,0,28.536,22.4Zm0.738,0.3c-0.02.113-.045,0.054,0,0.15a0.5,0.5,0,0,0,.3.25,0.3,0.3,0,0,1,.1-0.1V22.95A1.733,1.733,0,0,1,29.274,22.7ZM0.344,25a0.8,0.8,0,0,0-.049.25,0.762,0.762,0,0,0,.246.05A0.8,0.8,0,0,0,.59,25.05h-0.1A0.248,0.248,0,0,0,.344,25ZM2.8,25.65v0.1A5.221,5.221,0,0,1,3.936,26.8H3.985V26.7a0.871,0.871,0,0,0,.1-0.3A7.505,7.505,0,0,0,2.8,25.65Zm24.01,0.45c-0.076.1-.172,0.143-0.246,0.25h0.049a1.035,1.035,0,0,1,.3-0.2A0.177,0.177,0,0,0,26.814,26.1ZM7.577,27a1.473,1.473,0,0,1-.344-0.05,2.429,2.429,0,0,1-.443,1.2H8.02v-0.1A1.236,1.236,0,0,1,7.577,27Zm3.247-.05a1.725,1.725,0,0,1-.443,1.2h1.279V28.1c-0.453-.317-0.267-0.721-0.541-1.15A0.37,0.37,0,0,1,10.824,26.95Zm3.641,0a1.9,1.9,0,0,1-.492,1.2h1.279V28.1a4.245,4.245,0,0,1-.541-1.15A0.253,0.253,0,0,1,14.465,26.95Zm3.592,0a1.79,1.79,0,0,1-.492,1.2h1.279V28.1a5.479,5.479,0,0,1-.541-1.15A0.253,0.253,0,0,1,18.057,26.95Zm3.592,0a2.428,2.428,0,0,1-.443,1.2h1.23v-0.1a4.4,4.4,0,0,1-.541-1.1A0.253,0.253,0,0,1,21.648,26.95Zm3.592,0v0.2h0.1A0.489,0.489,0,0,1,25.584,27V26.95A0.921,0.921,0,0,1,25.24,26.95Z" transform="translate(-0.063 0.016)"/>
</svg>
