<?xml version="1.0" encoding="utf-8"?>
<!-- Generator: Adobe Illustrator 16.0.0, SVG Export Plug-In . SVG Version: 6.00 Build 0)  -->
<!DOCTYPE svg PUBLIC "-//W3C//DTD SVG 1.1//EN" "http://www.w3.org/Graphics/SVG/1.1/DTD/svg11.dtd">
<svg version="1.1" id="Layer_1" xmlns="http://www.w3.org/2000/svg" xmlns:xlink="http://www.w3.org/1999/xlink" x="0px" y="0px"
	 width="40px" height="40px" viewBox="0 0 40 40" enable-background="new 0 0 40 40" xml:space="preserve">
<path id="Color_Fill_1" fill="#FFFFFF" d="M10.161,13.431c0.436,0.03,0.9,0,1.437,0v-0.147h0.1c0.23-0.032,0.463-0.032,0.694,0
	v-0.053c-0.09-0.071-0.13-0.189-0.1-0.3c0.063-0.006,0.12-0.043,0.149-0.1l-0.2,0.05v-0.1c0.054,0,0.106-0.017,0.149-0.05
	c-0.24-0.254-0.3-0.63-0.149-0.946c0.038,0.005,0.073,0.022,0.1,0.05c0.051,0.127,0.068,0.265,0.05,0.4h0.248
	c0.015-0.114,0.067-0.219,0.149-0.3c0.601,0.16,1.233,0.16,1.834,0v0.149c0.692,0.053,1.388,0.069,2.082,0.05
	c0.005-0.069,0.022-0.136,0.05-0.2H16.8c0.034,0.183,0,0.136,0.149,0.2c0.113,0.028,0.229,0.045,0.347,0.05v0.05h-0.344
	c-0.2,0.121-0.694-0.024-0.892,0.1c0.187,0.007,0.174-0.023,0.248,0.1H16.06c-0.362,0.044-0.727,0.061-1.091,0.05
	c-0.075,0.076-0.143,0.159-0.2,0.249h0.1c0.15-0.088,0.327-0.124,0.5-0.1c0.045,0.07,0.095,0.137,0.149,0.2h1.933l0.05-0.2
	c0.049,0.046,0.052,0.157,0.1,0.2c0.155,0.026,0.306,0.077,0.446,0.149h-1.19v0.049c0.178,0.021,0.125-0.023,0.2,0.1h-0.2
	c-0.192,0.1-0.5-0.086-0.892,0c-0.339,0.066-0.671,0.167-0.991,0.3c0.02,0.199,0.02,0.4,0,0.6c-0.054-0.001-0.106,0.017-0.149,0.05
	c0.748-0.013,1.496,0.054,2.23,0.2c0.568,0.128,1.173,0.035,1.685,0.149c0.452,0.1,0.825-0.094,1.189,0
	c0.065,0.017,0.233,0.132,0.3,0.149c0.323,0.082,0.469-0.176,0.792-0.1c0.307,0.072,0.601,0.246,0.942,0.3
	c0.001-0.055-0.017-0.106-0.05-0.149c0,0-0.01,0.195-0.05,0.101v-0.1c-0.035-0.063-0.087-0.114-0.149-0.149v0.049h-0.05
	c0-0.224,0.101-0.168-0.149-0.2v-0.2h0.244v-0.1c-0.043-0.037-0.056-0.063-0.1-0.1c-0.045,0.041-0.095,0.075-0.149,0.1v-0.1
	c0.095,0.005,0.179-0.058,0.2-0.149h-0.794c-0.027,0.027-0.062,0.044-0.101,0.05v-0.05h0.051c-0.018-0.086,0-0.176,0.05-0.249h-0.2
	v0.2h-0.1v-0.102c-0.119-0.126-0.119-0.322,0-0.448c0.131-0.085,0.4-0.023,0.545-0.1v-0.1c0.18-0.026,0.363,0.028,0.5,0.149h1.783
	c0.006-0.069,0.022-0.136,0.05-0.2h0.05c0.061,0.44,0.712,0.322,1.189,0.3c0.335,0.115,0.691,0.149,1.041,0.1
	c0.807,0,1.537,0.037,2.281,0v0.05H28.1v0.149c-0.926-0.09-1.859-0.057-2.775,0.1c-0.15,0.018-0.303,0-0.446-0.05
	c-0.448-0.019-0.897,0.015-1.338,0.1v0.4h0.05v0.05h0.149v0.2c-0.081-0.011-0.16,0.029-0.2,0.1c-0.168,0.059-0.156-0.083-0.2-0.1
	H22.3v0.1h0.05c0.094,0.045,0.197,0.063,0.301,0.05v0.25H22.6c-0.004-0.037-0.021-0.072-0.049-0.1v0.448
	c0.184,0,0.381,0.069,0.4,0.05c0.043-0.037,0.056-0.063,0.1-0.1c0.235,0.194,0.54,0.285,0.844,0.248l0.148-0.049v0.1
	c0.15,0.05,0.143-0.122,0.2-0.1c0.094,0.074,0.194,0.142,0.3,0.199c0.403,0.02,0.803,0.086,1.189,0.2
	c0.037,0.06,0.055,0.13,0.051,0.2c0.611,0,1.287,0.025,1.636,0v-0.253h0.05v-0.05h2.528v0.248h0.05v0.051
	c0.475-0.053,1.548,0,2.43,0h4.609c0.627-0.049,1.256-0.049,1.883,0c0.34,0.088,0.691,0.121,1.041,0.1v0.7
	c-0.398-0.012-0.799,0.021-1.189,0.101c-0.104,0.008-0.206-0.01-0.301-0.051c-0.561-0.068-1.129-0.051-1.685,0.051
	c-0.118,0.009-0.236-0.008-0.347-0.051c-0.578-0.058-1.162-0.041-1.735,0.051c-0.118,0.009-0.236-0.008-0.347-0.051
	c-0.562-0.056-1.128-0.039-1.686,0.051l-0.693-0.051c-0.682-0.051-1.366,0-2.032,0.149H27.41c-0.097-0.08-0.223-0.116-0.348-0.101
	c-0.047,0.008-1.511,0.006-1.537,0c-0.074-0.051-0.158-0.085-0.248-0.1c-0.245,0.063-0.479,0.164-0.693,0.3h-0.3
	c0.036,0.061,0.054,0.13,0.049,0.2c-0.013,0.029-0.079,0.1-0.101,0.148c-0.094-0.047-0.205-0.047-0.299,0
	c-0.035-0.037-0.065-0.11-0.101-0.148l-0.05,0.148c-0.141,0.067-0.045-0.131-0.2-0.1c-0.151,0.1-0.321,0.168-0.5,0.2
	c-0.085-0.172-0.088-0.19-0.347-0.2c-0.133,0.158-0.306,0.279-0.5,0.35v0.05H23.2c0.417-0.13,0.854-0.18,1.289-0.149v0.051h0.05
	c-0.02,0.112-0.046,0.053,0,0.148c0.143,0.053,0.295,0.07,0.445,0.05c0.396-0.073,0.803-0.056,1.19,0.05
	c0.785,0.104,1.563,0.254,2.33,0.448c0.158,0.013,0.231-0.144,0.5-0.149c0.073,0.131,0.2,0.223,0.347,0.25
	c0-0.176,0.101-0.164,0.4-0.149c0.635,0.174,1.281,0.308,1.934,0.399c-0.009,0.254,0.092,0.229,0.445,0.2
	c0.072-0.127-0.011-0.056,0.149-0.1c0.296,0.374,0.667,0.681,1.09,0.899c0.31,0.104,0.608,0.237,0.892,0.4v0.3
	c0.342,0.296,0.707,0.563,1.09,0.8c0.036-0.112,0.053-0.23,0.051-0.349h0.199c0.043,0.163,0.06,0.332,0.051,0.5
	c-0.027,0.027-0.045,0.063-0.051,0.101c-0.574,0.367-0.5-0.023-0.793,0.05c-0.143,0.183-0.197,0.42-0.148,0.646h-0.608
	c-0.046,1.575-2.215,2.23-3.271,2.888c-0.588,0.46-1.238,0.83-1.934,1.101L16.6,25.98h-3.47c-0.595,0.039-1.192,0.021-1.784-0.049
	H6.493c-0.554-0.193-1.085-0.443-1.586-0.748C3.323,24.357,0.772,24.061,1.09,21.5H1.041c-0.13,0.07-0.291,0.05-0.4-0.05
	c-0.047,0.037-0.097,0.071-0.149,0.1c0.013-0.103-0.004-0.207-0.05-0.3v0.05c-0.083,0.24-0.117,0.494-0.1,0.747h-0.1v-0.05
	c-0.122-0.063-0.034,0.021-0.1-0.101c0.063-0.362,0.08-0.732,0.05-1.1h0.05v0.051c0.032,0.043,0.066,0.156,0.1,0.199
	c0-0.699,0-1.135,0-1.793h-0.1c0.015,0.1,0.015,0.201,0,0.3H0.2v-0.05c-0.028-0.045-0.045-0.096-0.05-0.148H0v-0.601h0.2v-0.05
	c-0.042-0.096-0.042-0.204,0-0.3v-0.05c1.115-0.065,2.215-0.283,3.271-0.647c0,0.215-0.108,0.144,0.1,0.2
	c0.359-0.077,0.724-0.127,1.09-0.149c0.67-0.222,1.378-0.307,2.082-0.249v0.149H6v0.05h0.05c0.407,0.09,0.824,0.123,1.239,0.1
	v-0.143c0.201-0.059,0.388-0.161,0.545-0.3C7.253,17.062,6.637,16.828,6,16.67l-0.5,0.05c-0.974,0.083-1.954,0.065-2.924-0.05
	c-0.334-0.076-0.8,0.105-0.991,0l-0.347-0.2c-0.024-0.173-0.075-0.341-0.149-0.5H1.14v-0.05h0.05c-0.005,0.07,0.012,0.141,0.05,0.2
	c0.11-0.177,0.26-0.033,0.4,0.05v-0.2c-0.184-0.272-0.165-0.928-0.3-1.1c-0.081-0.101-0.058,0.035-0.1-0.101
	c1.056,0,0.962-0.838,1.834-0.945c0.398,0.218,0.836,0.354,1.289,0.4c0.072-0.411,0.089-0.83,0.05-1.245H4.362
	c-0.049-0.05,0.049-0.049,0.05-0.05c0.027-0.027,0.062-0.044,0.1-0.05v1.352l0.446,0.05l0.1-0.349h0.05
	c0.041,0.162-0.024,0.076,0.1,0.149v-0.1c-0.041-0.025-0.075-0.059-0.1-0.1H5.2c0.361,0.058,0.729,0.058,1.09,0
	c0.144-2.188,0.177-4.382,0.1-6.573c-0.067-0.913-0.051-1.83,0.05-2.739c0.123-0.573-0.2-1.88,0.05-2.29v7.072
	c-0.048,1.511-0.014,3.023,0.1,4.531l0.694-0.05v0.199h0.05v0.05c0.212,0.041,0.428,0.058,0.644,0.05l-0.05,0.1H7.98v-0.05
	c0.035-0.063,0.086-0.115,0.149-0.15c0.027,0.026,0.063,0.044,0.1,0.05v-0.25h0.247v-1.642c-0.063-0.14-0.1,0.038-0.149-0.249h0.347
	c0.026,0.064,0.043,0.131,0.05,0.2c-0.278,0.125-0.162,1.2-0.149,1.593h0.1c0.043-0.032,0.096-0.049,0.149-0.05v-0.2h0.05v0.048
	c0.045,0.093,0.063,0.197,0.05,0.3c0.141,0,0.109-0.018,0.2,0.149H9.17v-0.5c0.156-0.854,0.19-1.726,0.1-2.589l0.05-6.274
	C9.237,3.756,9.253,2.888,9.368,2.031v8.465c-0.086,1.165-0.019,2.337,0.2,3.485v-0.05c0.066-0.227,0.083-0.466,0.05-0.7
	c0.118-0.139,0.272-0.243,0.446-0.3c0.063,0.035,0.114,0.086,0.149,0.149C10,13.194,10.12,13.179,10.161,13.431z M15.167,12.286
	c0.19,0.078,0.404,0.078,0.595,0H15.167z M15.861,12.286c0.027,0.027,0.063,0.044,0.1,0.05c-0.027-0.026-0.063-0.043-0.1-0.048
	V12.286z M12.491,12.336v0.1c0.069-0.005,0.136-0.022,0.2-0.05v-0.05H12.491z M12.441,12.685v0.1h0.1v-0.1H12.441z M15.911,12.985
	c0.207,0.081,0.437,0.081,0.644,0H15.911z M12.838,13.085v0.2l0.5,0.05c0.014,0.121,0.047,0.239,0.1,0.349h0.1
	c0.014-0.137,0.048-0.272,0.1-0.4C13.408,13.116,13.121,13.044,12.838,13.085z M20.719,13.185c0.038,0.034,0.111,0.065,0.149,0.1
	c-0.054-0.001-0.106,0.017-0.149,0.05h0.2v-0.104h-0.05v-0.05h-0.15V13.185z M15.069,13.235v0.1h0.05v-0.05h0.05
	c-0.027-0.029-0.063-0.048-0.101-0.054L15.069,13.235z M21.018,13.435v0.1h0.793v-0.104h-0.795L21.018,13.435z M9.865,13.485
	c-0.019,0.135-0.002,0.273,0.05,0.4c0.025-0.195,0.11-0.3-0.051-0.402L9.865,13.485z M13.583,13.685v0.1h0.049
	c-0.004-0.039-0.022-0.075-0.051-0.102L13.583,13.685z M14.525,13.685v0.146h0.248v-0.148h-0.25L14.525,13.685z M21.91,13.785
	c-0.004,0.118-0.02,0.235-0.051,0.349h0.101c0.247-0.032,0.497-0.032,0.744,0v-0.153c-0.249-0.025-0.501-0.008-0.744,0.05v-0.149
	h0.74c0.005-0.069,0.022-0.136,0.05-0.2h-0.5c-0.087,0.094-0.219,0.132-0.342,0.1L21.91,13.785z M24.634,13.931h0.942v0.1
	C25.26,14.093,24.931,14.058,24.634,13.931z M22.105,14.73c0.057,0.154,0.188,0.268,0.348,0.301v-0.2
	c-0.026-0.027-0.044-0.063-0.049-0.101h-0.301H22.105z M1.536,14.98c0.001,0.085,0.019,0.169,0.05,0.248h0.05v-0.151
	c-0.044-0.037-0.056-0.063-0.099-0.101L1.536,14.98z M1.736,14.98l0.05,0.199h0.05V14.98H1.736z M1.636,15.328l0.05,0.249h0.05
	c-0.012-0.091-0.046-0.177-0.1-0.251V15.328z M1.983,15.677l0.05,0.249h0.2v-0.1c-0.041-0.045-0.075-0.095-0.1-0.149H1.983z
	 M1.19,15.877h0.1v0.05h-0.1V15.877z M2.082,16.077c-0.003,0.093,0.059,0.177,0.149,0.2c0.093,0.045,0.197,0.063,0.3,0.05v-0.05
	c-0.082-0.051-0.15-0.119-0.2-0.2H2.082L2.082,16.077z M4.709,16.326c0.106,0.064,0.24,0.064,0.347,0H4.709z M5.304,16.326
	c0.027,0.027,0.062,0.045,0.1,0.05C5.376,16.347,5.34,16.328,5.3,16.322L5.304,16.326z M7.832,17.521
	c-0.036,0.112-0.053,0.23-0.05,0.349c0.038,0.005,0.073,0.022,0.1,0.05c0.038-0.005,0.073-0.022,0.1-0.05
	c0.045-0.093,0.063-0.197,0.05-0.3H7.98V17.52H7.831L7.832,17.521z M8.278,17.571c0.005,0.007,0.149,0.148,0.149,0.148
	c-0.024-0.071-0.079-0.127-0.149-0.153V17.571z M8.578,17.871v0.1c0.103,0.014,0.207-0.004,0.3-0.05
	c-0.104,0.001-0.206-0.019-0.303-0.056L8.578,17.871z M2.63,18.171c0.056,0.054,0.145,0.054,0.2,0H2.63z M29.544,18.371
	c0.044,0.041,0.095,0.074,0.149,0.1c-0.029-0.059-0.086-0.1-0.151-0.107L29.544,18.371z M1.192,18.471
	c0,0.055,0.017,0.106,0.05,0.149c0.035-0.063,0.086-0.114,0.149-0.149H1.19H1.192z M0.449,18.521c-0.043,0.031-0.156,0.066-0.2,0.1
	c0.156,0.054,0.328,0.016,0.446-0.1H0.446H0.449z M30.288,18.521c0.181,0.109,0.384,0.178,0.595,0.199v-0.1h-0.199
	c-0.124-0.064-0.26-0.102-0.398-0.109L30.288,18.521z M30.982,18.67v0.1h0.148v-0.05L30.982,18.67z M0.5,18.712
	c0.201,0.146,0.46,0.184,0.694,0.101v-0.101H0.5z M0.252,18.762c-0.013,0.104,0.004,0.207,0.05,0.301
	c0.012-0.104-0.006-0.209-0.054-0.302L0.252,18.762z M0.252,19.111v0.1H0.3c-0.005-0.039-0.023-0.074-0.052-0.102L0.252,19.111z
	 M0.103,19.511c0.027,0.027,0.044,0.063,0.05,0.101H0.1v-0.101H0.103z M0.153,19.611c0.054-0.001,0.106,0.017,0.149,0.05
	c-0.045,0.093-0.062,0.197-0.05,0.3h-0.1c0.044-0.113,0.043-0.24-0.003-0.354L0.153,19.611z M2.929,19.611v0.1h0.1v-0.1H2.929z
	 M0.153,20.011h0.1c-0.004,0.118,0.013,0.236,0.05,0.349H0.149c0.045-0.113,0.045-0.24,0-0.354L0.153,20.011z M0.103,20.359
	c0.027,0.027,0.044,0.063,0.05,0.1H0.1v-0.1H0.103z M0.203,20.409c0.061,0.106,0.095,0.226,0.1,0.349H0.149v-0.05
	c0.04-0.097,0.057-0.2,0.051-0.304L0.203,20.409z M0.103,20.758c0.027,0.027,0.044,0.063,0.05,0.1H0.1v-0.1H0.103z M0.153,21.059
	c0.058,0.074,0.125,0.142,0.2,0.199v-0.1c-0.062-0.046-0.131-0.082-0.204-0.106L0.153,21.059z M2.631,21.059
	c0,0.053,0.017,0.105,0.05,0.148c0-0.057-0.019-0.111-0.054-0.155L2.631,21.059z M1.888,21.559l-0.05,0.447
	c0.151-0.023,0.3-0.057,0.446-0.1c0.04-0.095,0.057-0.197,0.05-0.301c-0.143-0.056-0.298-0.074-0.45-0.056L1.888,21.559z
	 M1.888,22.105v0.101c0.041,0.024,0.075,0.06,0.1,0.101c0.038-0.006,0.074-0.023,0.1-0.051h0.1v-0.05
	c-0.092-0.058-0.196-0.095-0.304-0.108L1.888,22.105z M2.388,22.605l-0.3,0.25v0.05h0.05c0.121,0.171,0.297,0.294,0.5,0.349
	l0.149-0.447c-0.167,0.021-0.33-0.063-0.408-0.212L2.388,22.605z M2.834,22.906c-0.032,0.146-0.049,0.297-0.05,0.447
	c0.147,0.102,0.322,0.153,0.5,0.149h0.05v-0.05c-0.174-0.08-0.326-0.199-0.446-0.35c0.004-0.074-0.018-0.148-0.063-0.209
	L2.834,22.906z M5.164,23.906H4.907c-0.073-0.222-0.235-0.402-0.446-0.5v0.05C4.558,23.5,4.617,23.6,4.61,23.705
	c-0.034,0.038-0.065,0.111-0.1,0.148c-0.043,0.033-0.095,0.051-0.149,0.051c-0.131-0.152-0.281-0.287-0.446-0.4
	c-0.087,0.107-0.21,0.179-0.347,0.2c0.027,0.026,0.063,0.044,0.1,0.05c0.515,0.326,1.063,0.594,1.636,0.8v-0.1
	c-0.109-0.167-0.161-0.365-0.149-0.563L5.164,23.906z M31.335,23.458c-0.231,0.226-0.499,0.411-0.793,0.548
	c-0.116,0.008-0.233,0.025-0.347,0.051c-0.052,0.109-0.086,0.228-0.101,0.349h0.05c0.448-0.373,0.949-0.677,1.487-0.9v-0.05h-0.3
	L31.335,23.458z M13.144,24.006c-0.05,0.458-0.261,0.883-0.595,1.2h2.082v-0.075c-0.354-0.278-0.57-0.695-0.595-1.145h-0.901
	L13.144,24.006z M22.016,24.006c-0.065,0.453-0.273,0.873-0.595,1.2H22.8v-0.075c-0.34-0.234-0.58-1.079-0.793-1.141L22.016,24.006z
	 M8.683,24.506c-0.157,0.254-0.384,0.455-0.545,0.7h2.032v-0.075c-0.161-0.218-0.344-0.419-0.545-0.6
	c-0.311-0.078-0.634-0.094-0.951-0.044L8.683,24.506z M17.555,24.506c-0.165,0.236-0.387,0.458-0.545,0.7h2.032v-0.075
	c-0.682-0.468-0.142-0.665-1.495-0.644L17.555,24.506z M25.732,24.506c-0.151,0.254-0.354,0.475-0.594,0.646v0.051h2.081v-0.072
	c-0.23-0.184-0.431-0.402-0.595-0.646h-0.9L25.732,24.506z"/>
</svg>
