<?xml version="1.0" encoding="utf-8"?>
<!-- Generator: Adobe Illustrator 16.0.0, SVG Export Plug-In . SVG Version: 6.00 Build 0)  -->
<!DOCTYPE svg PUBLIC "-//W3C//DTD SVG 1.1//EN" "http://www.w3.org/Graphics/SVG/1.1/DTD/svg11.dtd">
<svg version="1.1" id="Layer_1" xmlns="http://www.w3.org/2000/svg" xmlns:xlink="http://www.w3.org/1999/xlink" x="0px" y="0px"
	 width="40px" height="40px" viewBox="0 0 40 40" enable-background="new 0 0 40 40" xml:space="preserve">
<path id="Color_Fill_1" fill="#FFFFFF" d="M16.929,11.781c-0.045-0.198-0.079-0.398-0.1-0.6h0.484l-0.048,0.6
	c0.824,0,1.22-0.033,1.935-0.05c0.083,0.31,0.356,0.53,0.677,0.547c0.188,0.159,0.44,0.214,0.678,0.149v-0.149h0.1
	c0.297-0.092,0.613-0.109,0.919-0.05c0.038,0.064,0.071,0.131,0.1,0.2l0.968-0.05c0.07,0.014,0.244,0.079,0.338,0.1v0.1
	c-0.424,0.031-0.805,0-1.306,0v0.249H21.62v0.05c-0.211-0.031-0.426-0.014-0.629,0.05c-0.047,0.11-0.063,0.23-0.048,0.348
	c0.099,0.114,0.165,0.252,0.192,0.4c0.081,0.068,0.191,0.087,0.29,0.05c0.048-0.149,0.152-0.274,0.29-0.348
	c0.14-0.06,0.296-0.06,0.435,0c0.094,0.222,0.143,0.459,0.146,0.7c0.212,0.019,0.422,0.052,0.629,0.1l0.101,0.2l0.435-0.149
	c0.175-0.035,0.354-0.052,0.532-0.05l0.145,0.2c0.301,0.12,0.574-0.265,0.678,0.4c-0.113,0.121-0.211,0.255-0.291,0.4h0.193
	c0.106,0.048,0.224,0.065,0.34,0.05v0.2l0.435,0.05v0.2c-0.1-0.013-0.2,0.005-0.29,0.05c0.584-0.007,1.166,0.043,1.74,0.149h8.318
	c0-0.054,0.017-0.106,0.049-0.149c0.443,0.1,0.902,0.117,1.354,0.05c1.167,0,1.986,0.057,3.047,0c0.102,0.082,0.184,0.184,0.242,0.3
	C39.994,16.18,40.01,16.29,40,16.4c-0.137,0.09-0.266,0.19-0.387,0.3c-0.403-0.145-0.838-0.18-1.258-0.1
	c-0.056,0.022,0.039,0.1-0.101,0.1c-0.998-0.086-2.002-0.086-3,0v-0.147h-7.976c-0.586,0.19-1.184,0.34-1.79,0.447
	c0.024,0.306,0.09,0.606,0.194,0.895h0.047c0.236-0.238,0.541-0.395,0.871-0.446v0.1c-0.121,0.073-0.088,0.062-0.1,0.248
	c0.271,0.056,0.547,0.072,0.822,0.05v0.2h0.29c0.092-0.161,0.252-0.271,0.435-0.3c-0.004,0.188,0.03,0.373,0.1,0.547
	c0.448,0.08,0.906,0.08,1.354,0c0.022-0.18,0.013-0.181,0.146-0.248c0.252-0.039,0.51,0.014,0.726,0.148v0.149h-0.338v0.3
	c0.886-0.098,1.683,0.541,1.78,1.427c0.006,0.055,0.01,0.109,0.01,0.165h-0.532c0.019,0.24-0.07,0.477-0.242,0.646v0.5
	c-0.053,0.295-0.15,0.58-0.29,0.845c-0.644,0.703-1.414,1.276-2.272,1.69c-0.74,0.635-1.571,1.154-2.468,1.541L24.668,25.5H8.755
	l-1.886-0.05C5.943,25,5.08,24.432,4.3,23.76c-0.28-0.279-0.588-0.529-0.919-0.746c-0.162,0.003-0.324,0.02-0.484,0.051
	l-0.048-0.101H2.9c0.094-0.024,0.178-0.076,0.242-0.149c-0.354-0.227-0.693-0.476-1.016-0.746c-0.13-0.004-0.26-0.021-0.387-0.049
	c-0.051-0.025-0.009-0.107-0.048-0.051c-0.489,0.326-0.929,0.063-0.774-0.6c0.3-0.123,0.528-0.064,0.532-0.447
	c-0.066-0.21-0.066-0.436,0-0.646H0.967L0.919,19.63H0.726c-0.043-0.183-0.125-0.353-0.242-0.5l0.048-0.2
	C0.362,18.65,0.009,18.966,0,18.284c0.054-0.055,0.089-0.124,0.1-0.2c0.169-0.066,0.35-0.101,0.532-0.1
	c0.303,0.158,0.664,0.158,0.967,0V17.8c0.093-0.033,0.191-0.05,0.29-0.05c0.011-0.021,0.028-0.037,0.048-0.05
	c0.058,0.216,0.118,0.209,0.387,0.2c0.137-0.062,0.285-0.096,0.435-0.101v0.149c0.068,0.005,0.136-0.013,0.193-0.051
	c-0.038-0.004-0.074-0.021-0.1-0.049c0.115-0.005,0.23,0.012,0.339,0.049V17.85c0.011-0.049,0.166-0.229,0.242-0.4h0.049
	c0.007,0.187-0.023,0.175,0.1,0.249c0.036,0.043,0.061,0.056,0.1,0.1c0.984-0.388,2.046-0.541,3.1-0.447
	c-0.01,0.09-0.045,0.176-0.1,0.249H7.11v-0.051c-0.068,0.006-0.136-0.012-0.193-0.049c-0.036-0.06-0.053-0.13-0.048-0.2l3.773-0.248
	c0.314,0.142,0.607,0.326,0.871,0.548c0.1,0.032,0.355-0.087,0.532-0.051c0.514,0.061,1.034,0.061,1.548,0
	c-0.115,0.017-0.233,0-0.34-0.049c0.116,0.016,0.233-0.001,0.339-0.05c-0.822-0.311-1.763-0.528-2.612-0.8
	c-0.43-0.032-0.845-0.169-1.209-0.4h0.144v-0.145c-0.307-0.075-0.579-0.251-0.774-0.5c0.107-0.647,0.285-1.281,0.532-1.889h0.1
	c0.401,0.05,0.805,0.067,1.209,0.05c0.23-0.183,0.473-0.35,0.726-0.5c0.071,0.126,0.1,0.1,0.29,0.1
	c0.054-0.278,0.07-0.563,0.048-0.845c0.071-0.293,0.087-0.596,0.048-0.895V9.494C12.054,9.196,12.07,8.893,12.14,8.6
	c0,1.584,0.038,3.419,0.048,4.772c0.184,0.045,0.377,0.009,0.532-0.1h0.1v0.1c0.183,0.08,0.381,0.114,0.58,0.1v-0.05h0.048
	c-0.05-0.211,0.004-0.434,0.145-0.6c0.007,0.419,0.093,0.291,0.1,0.646h0.527c0.043-0.061,0.077-0.128,0.1-0.2
	c-0.2-0.054-0.228-0.1-0.242-0.348c0.07-0.054,0.154-0.089,0.242-0.1V9.693c-0.056-0.397-0.041-0.801,0.045-1.193v4.275h0.1
	C15.065,12.048,15.992,11.674,16.929,11.781z M20.652,12.328c0.287,0.137,0.611,0.172,0.92,0.1v-0.1H20.652z M19.253,13.223h-0.196
	v-0.249c-0.053,0-0.104,0.017-0.145,0.05c-0.04,0.076-0.057,0.163-0.048,0.248c0.08,0.078,0.181,0.129,0.29,0.149
	c0.318-0.102,0.662-0.084,0.967,0.05v-0.249h0.387c0.047-0.212,0.063-0.43,0.049-0.646c-0.505-0.023-1.304,0.137-1.307,0.646
	L19.253,13.223z M20.607,12.577v0.6c0.084,0.063,0.185,0.098,0.289,0.1v-0.4c0.223-0.05,0.451-0.066,0.678-0.05v-0.251H20.6
	L20.607,12.577z M21.816,13.472c-0.119,0.096-0.174,0.25-0.146,0.4c0.126,0.038,0.257,0.055,0.388,0.05
	c0.032-0.114,0.047-0.233,0.041-0.352l-0.145-0.05c-0.041-0.031-0.09-0.048-0.141-0.049L21.816,13.472z M10.546,13.82v0.1l0.29,0.05
	l0.048-0.1c-0.109-0.036-0.225-0.054-0.34-0.051L10.546,13.82z M9.821,13.87v0.1h0.046c-0.004-0.038-0.021-0.074-0.048-0.102
	L9.821,13.87z M10.208,14.07c-0.04-0.161,0.024-0.076-0.1-0.149v0.1h-0.047v0.05h0.145L10.208,14.07z M39.616,15.86
	c-0.058,0.037-0.126,0.055-0.194,0.05c-0.098,0.128-0.148,0.286-0.145,0.447c0.062,0.075,0.146,0.127,0.242,0.149
	c0.073,0.042,0.158,0.059,0.241,0.05c0.114-0.122,0.183-0.28,0.193-0.447c-0.095-0.107-0.211-0.193-0.341-0.252L39.616,15.86z
	 M7.207,17.5c0.016,0.109-0.05,0.054,0.048,0.1C7.25,17.563,7.233,17.527,7.207,17.5z M7.594,17.5
	c0.051,0.082,0.148,0.121,0.242,0.1v-0.1C7.759,17.535,7.671,17.535,7.594,17.5z M8.078,17.5v0.1h0.29l0.048-0.1
	C8.308,17.545,8.186,17.545,8.078,17.5L8.078,17.5z M26.313,17.648l-0.047,0.101c0.082-0.073,0.047-0.103,0.047-0.103V17.648z
	 M6.772,17.85v0.1H6.82v-0.051h0.048c-0.026-0.027-0.06-0.047-0.097-0.054L6.772,17.85z M1.984,17.949
	c0.027,0.027,0.062,0.045,0.1,0.05c-0.026-0.029-0.062-0.049-0.101-0.056L1.984,17.949z M2.177,17.949
	c0.027,0.027,0.063,0.045,0.1,0.05c-0.026-0.029-0.061-0.049-0.1-0.056V17.949z M0.387,18.148c-0.137,0.084-0.213,0.241-0.193,0.4
	c0.09,0.09,0.211,0.144,0.339,0.149c0.043-0.042,0.078-0.093,0.1-0.149c0.04-0.076,0.057-0.162,0.048-0.248
	c-0.088-0.068-0.188-0.122-0.294-0.158V18.148z M29.311,18.396c0.027,0.027,0.063,0.045,0.101,0.051
	c-0.026-0.029-0.062-0.049-0.101-0.055V18.396z M1.5,19.934v0.1h0.048v-0.1H1.5z M1.21,21.523c-0.029,0.08-0.045,0.164-0.048,0.248
	c0.077,0.031,0.159,0.048,0.242,0.051c0.029-0.08,0.045-0.164,0.048-0.248h-0.1C1.311,21.542,1.261,21.524,1.21,21.523L1.21,21.523z
	 M3.967,22.324v0.1l0.145,0.051v-0.101L3.967,22.324z M5.418,23.169c-0.058,0.06-0.106,0.127-0.145,0.2H5.32l0.58,0.441v-0.201
	c-0.04-0.076-0.057-0.162-0.048-0.247c-0.133-0.09-0.28-0.157-0.435-0.198L5.418,23.169z M8.9,23.512
	c-0.049,0.396-0.199,0.772-0.435,1.094h0.048c0.608-0.098,1.229-0.098,1.838,0v-0.1c-0.291-0.246-0.451-0.613-0.435-0.994H8.9z
	 M12.963,23.512c-0.057,0.402-0.224,0.781-0.484,1.094h0.1c0.46-0.112,0.94-0.112,1.4,0v-0.049
	c-0.293-0.271-0.467-0.646-0.484-1.045H12.963z M16.542,23.512c-0.058,0.395-0.207,0.769-0.435,1.094h0.048
	c0.428-0.107,0.877-0.107,1.306,0v-0.1C16.932,24.225,17.338,23.505,16.542,23.512z M20.025,23.512
	c-0.049,0.396-0.199,0.772-0.435,1.094h0.048c0.444-0.115,0.91-0.115,1.354,0v-0.1c-0.291-0.246-0.451-0.613-0.436-0.994H20.025
	L20.025,23.512z M23.604,23.512c-0.057,0.402-0.224,0.781-0.483,1.094h0.1c0.429-0.112,0.878-0.112,1.306,0v-0.1
	c-0.287-0.248-0.447-0.613-0.435-0.994H23.6H23.604z M27.135,23.512l-0.048,0.248h0.101c0.068-0.1,0.172-0.17,0.289-0.199V23.51
	h-0.343L27.135,23.512z"/>
</svg>
