<svg xmlns="http://www.w3.org/2000/svg" width="40" height="40" viewBox="0 0 40 40">
  <defs>
    <style>
      .cls-1 {
        fill: #fff;
        fill-rule: evenodd;
      }
    </style>
  </defs>
  <path id="Color_Fill_1" data-name="Color Fill 1" class="cls-1" d="M4.9,18.366v-0.29H5a6.474,6.474,0,0,1,.68-0.193c-0.063-.027-0.036,0-0.049-0.048a1.183,1.183,0,0,1,.534-0.048v0.193L6.7,17.835a1.4,1.4,0,0,0,1.262,0,0.8,0.8,0,0,0,.534.145,9.747,9.747,0,0,0,.049-2.51v-5.5H8.592v7.965H8.641v0.048H8.786a0.232,0.232,0,0,1,.049-0.145,0.249,0.249,0,0,0,.146.048,0.6,0.6,0,0,1,0-.29,1,1,0,0,1,.291,0V17.448L9.709,17.4V10.11h0.1v0.048a8.011,8.011,0,0,0-.049,1.979l0.049,5.31a1.418,1.418,0,0,0,.874-0.1,0.665,0.665,0,0,0,.146-0.434,0.512,0.512,0,0,0-.34-0.193,0.574,0.574,0,0,1-.388.1V16.772h0.049a1.577,1.577,0,0,1,.291-0.193c-0.123-.071-0.075-0.021-0.1-0.193l0.291-.048c0.036-.241.113-0.286,0.388-0.29a2.921,2.921,0,0,0,.049,1.3,5.539,5.539,0,0,0,1.893-.048V16.917h1.165v0.048a0.636,0.636,0,0,0-.049.338h0.194c0.025-.184.068-0.2,0.1-0.386a1,1,0,0,0,.728-0.1H14.515V16.772a0.324,0.324,0,0,1-.049-0.193,0.52,0.52,0,0,0,.049-0.29,0.578,0.578,0,0,0-.486.145v-0.29h0.049c0.073,0.125.145,0.1,0.34,0.1V16.193c-0.233-.071-0.358-0.047-0.388-0.338a1.922,1.922,0,0,0-.582.048,1.578,1.578,0,0,1,.049.483,0.617,0.617,0,0,0-.194.048V15.855a0.174,0.174,0,0,0,.049-0.1,1.6,1.6,0,0,0,.68-0.048,0.173,0.173,0,0,0,.049-0.1,0.167,0.167,0,0,1-.1-0.048h0.291v0.048h-0.1v0.1h0.049c0.221,0.132.726,0.017,0.922,0.145,0.02-.173-0.023-0.121.1-0.193V15.71a0.246,0.246,0,0,1,.049.145,3.89,3.89,0,0,1,.922-0.1L16.262,15.9a8.035,8.035,0,0,0,1.942.048l0.049-.193a0.173,0.173,0,0,1,.049.1,1.492,1.492,0,0,1,.485.193h-0.34c-0.184.11-.643-0.016-0.825,0.1,0.174,0.02.122-.023,0.194,0.1H17.33c-0.311.185-1.273-.088-1.651,0.145l1.165,0.048v0.772a1.487,1.487,0,0,1,.34.048,1.5,1.5,0,0,0,.049.483,1.117,1.117,0,0,1,.291,0c-0.02-.276.047-0.357,0.049-0.772a13.1,13.1,0,0,0,1.5-.048,0.3,0.3,0,0,1-.1.241h0.1a1.343,1.343,0,0,1,.825-0.1,3.634,3.634,0,0,0,.049,1.014c0.486-.12,1.218.424,2.039,0.338v0.048h-0.1c-0.058.038-.234,0.058-0.291,0.1h0.1a2.606,2.606,0,0,0,1.311.241,2.227,2.227,0,0,1,0-.386h0.146a6.379,6.379,0,0,0,.971.145v-0.1c-0.123-.071-0.075-0.021-0.1-0.193h0.243V18.221a0.174,0.174,0,0,1-.049-0.1c-0.107.025-.1,0.055-0.194,0h0.1a0.4,0.4,0,0,0,.1-0.145H23.5a0.176,0.176,0,0,1-.1.048c-0.019-.122.028-0.076-0.146-0.1-0.047.012-.018,0.038-0.049,0a2.733,2.733,0,0,1-.1-0.531v0.048a1.025,1.025,0,0,0-.049.483H22.864A0.661,0.661,0,0,1,22.67,17.4a0.166,0.166,0,0,0,.1-0.048h-0.34v-0.29l0.582-.048a0.828,0.828,0,0,0,.388.145c0.04-.157-0.024-0.074.1-0.145V17.3a0.3,0.3,0,0,0-.1.1h0.146c0.021-.018.186-0.142,0.194-0.145a0.727,0.727,0,0,1,.485.145h1.651a0.85,0.85,0,0,1,.1-0.193v0.048a1.18,1.18,0,0,0,.1.241h1.019c0.394,0.263,2.526.1,3.2,0.1v0.193a17.787,17.787,0,0,0-3.2.1,8.584,8.584,0,0,0-1.165.1,0.881,0.881,0,0,1,.049.29h0.194v0.193H25.971c-0.069.34-.253,0.709-0.34,1.062H25.583a0.847,0.847,0,0,0-.485-0.145v0.048a8.1,8.1,0,0,1,1.165.386c0.3,0.08.882-.082,1.02,0H27.33a0.677,0.677,0,0,0-.049.193l2.087,0.048c0.04-.157-0.024-0.074.1-0.145v0.145h0.146V19.91a1.044,1.044,0,0,1,.34-0.29,13.357,13.357,0,0,1,2.233-.048c0.136,0.062-.037.1,0.243,0.145a2.217,2.217,0,0,0,0,.386c0.071-.023.68-0.1,0.68-0.1a2.409,2.409,0,0,0,1.214.1v-0.1a6,6,0,0,0,1.408.1v-0.1a10.763,10.763,0,0,0,1.359.1h0.1v-0.1h0.194v0.1a2.933,2.933,0,0,0,1.262-.1h0.146v0.1l0.291,0.048a0.208,0.208,0,0,1,.194-0.193,0.878,0.878,0,0,0,.728.193v0.772c-1.98-.009-4.69.047-7.039,0.048,0,0.929.049,2.02,0,2.8H33.01c0.094-.224.269-0.107,0.485-0.048-0.036-.042-0.061-0.054-0.1-0.1,0.12-.062.033,0.021,0.1-0.1a0.167,0.167,0,0,1-.1-0.048h0.146a0.527,0.527,0,0,0,.534.241c0.079,0.685.68,0.3,1.165,0.628a1.224,1.224,0,0,1,.194.338,0.6,0.6,0,0,1,.437,0,0.517,0.517,0,0,0,.388.386,0.415,0.415,0,0,1,.146-0.29,0.248,0.248,0,0,0,.146.048,0.672,0.672,0,0,1-.1.386,0.208,0.208,0,0,1-.194.193,0.512,0.512,0,0,1-.534-0.1,0.53,0.53,0,0,1-.194.29,3.111,3.111,0,0,0-.728-0.1v0.1a1.485,1.485,0,0,1,0,1.014H34.66c-0.223.744-1.681,1.284-2.33,1.69A12.771,12.771,0,0,1,29.612,29.9a6.5,6.5,0,0,1-1.6.048H9.515A7.784,7.784,0,0,1,7.476,29.9a6.32,6.32,0,0,1-1.214-.676c-0.961-.584-2.8-1.205-3.35-2.124a2.636,2.636,0,0,1-.194-1.5l-1.359.048V25.462h-0.1c-0.02.173,0.023,0.121-.1,0.193V25.462a1.3,1.3,0,0,0-.291.1V25.317a0.559,0.559,0,0,0,.1-0.145H0.922v0.048c-0.038.093-.049-0.1-0.049-0.1a6.068,6.068,0,0,0,.1-0.917,1.327,1.327,0,0,1-.534.145C0.32,24.225.128,24.128,0,24.014a2.426,2.426,0,0,1,.1-0.676l0.146-.048a0.478,0.478,0,0,1,.388,0,0.6,0.6,0,0,1,.291-0.483,5.309,5.309,0,0,1,.971-0.193V22.469c0.621-.031,1.26-0.3,1.8-0.29a2.409,2.409,0,0,0,.922-0.048,1.018,1.018,0,0,0,.194-0.193l1.019-.145c0,0.182.088,0.169,0.388,0.145a9.751,9.751,0,0,1,.971-0.145,0.258,0.258,0,0,0,.1.1,2.137,2.137,0,0,1,.583-0.145,2.234,2.234,0,0,1,.194.193c0.284,0.114.233-.231,0.583,0l-0.049-.145a0.288,0.288,0,0,0,.194-0.1c0.041,0.22.087,0.2,0.34,0.193a1.985,1.985,0,0,1,.437-0.1c-0.687-.247-1.472-0.432-2.087-0.724H4.9c0-.153.082-0.065-0.049-0.145a1.449,1.449,0,0,1-.728.048,15.213,15.213,0,0,1-2.379-.048,4.252,4.252,0,0,1-.194-2.269H1.748c0.066-.146-0.033-0.131.243-0.145a3.165,3.165,0,0,1,1.019-.1,9.735,9.735,0,0,1,1.456-.145c0.071-2.917.094-6.2,0.1-9.269h0.1V9.1a8.47,8.47,0,0,0,0,2.317v5.021c0,0.558.161,1.674,0.1,1.931H4.9Zm9.32-2.51a0.143,0.143,0,0,0,.194,0H14.223ZM14.175,16c0.083,0.043.062,0.043,0.146,0H14.175ZM10,16.869a0.174,0.174,0,0,1,.049.1H10v-0.1Zm-0.049.1a0.174,0.174,0,0,1,.049.1H9.951v-0.1Zm-0.049.1a0.245,0.245,0,0,1,.049.145H9.9V17.062Zm13.252,0.145-0.049.145h0.049a0.374,0.374,0,0,0,.146-0.145H23.155Zm-13.3.048a0.174,0.174,0,0,1,.049.1H9.854v-0.1Zm0.34,0.048a0.514,0.514,0,0,1,.291.048A0.514,0.514,0,0,1,10.194,17.3ZM9.9,17.352a0.408,0.408,0,0,1,.243.048A0.408,0.408,0,0,1,9.9,17.352Zm0.582,0h0.1V17.4A0.167,0.167,0,0,1,10.485,17.352ZM22.573,17.4a1.469,1.469,0,0,1-.485,1.014h-0.1V18.366A1.852,1.852,0,0,0,22.573,17.4ZM23.4,17.448c0.04,0.157-.024.074,0.1,0.145A0.183,0.183,0,0,0,23.4,17.448Zm2.087,0a0.176,0.176,0,0,0,.1.048A0.174,0.174,0,0,0,25.485,17.448Zm-1.942.241a1.21,1.21,0,0,0,.777,0H23.544Zm-0.243.1v0.1a0.617,0.617,0,0,0,.194-0.048V17.786H23.3Zm1.408,0.145a0.676,0.676,0,0,0,.534,0H24.709Zm-0.291.048a0.815,0.815,0,0,1-.049.29h0.1a1.218,1.218,0,0,1,.194-0.048V18.172c-0.174-.02-0.122.023-0.194-0.1,0.174-.02.122,0.023,0.194-0.1H24.418Zm2.621,0.193a2.193,2.193,0,0,1,.874.048A2.193,2.193,0,0,1,27.039,18.172Zm-3.4.386v0.434a3.242,3.242,0,0,0,1.117.29A0.291,0.291,0,0,0,25,19.09a0.411,0.411,0,0,1-.388-0.241,0.325,0.325,0,0,1-.049-0.193A7.272,7.272,0,0,1,23.641,18.559Zm-0.485.048a0.757,0.757,0,0,0-.049.241,1.226,1.226,0,0,0,.388.048,0.755,0.755,0,0,0,.049-0.241h-0.1A0.528,0.528,0,0,0,23.155,18.607Zm1.8,0.724a0.174,0.174,0,0,0,.1.048A0.176,0.176,0,0,0,24.952,19.331ZM1.8,20.683a0.311,0.311,0,0,0,.049.193A0.31,0.31,0,0,0,1.8,20.683Zm24.126,1.255h0.922a3.414,3.414,0,0,0,.243.241c0.188,0.055.09-.123,0.243-0.1a1.56,1.56,0,0,1,.291.241,3.259,3.259,0,0,0,.874.1c0.254,0.085,1.174.6,1.5,0.386a0.723,0.723,0,0,1-.243-0.145c0.894-.013,1.417.337,2.233,0.386,0.04-.157-0.024-0.074.1-0.145a0.69,0.69,0,0,0,.048.241,0.485,0.485,0,0,1,.388.048c0.042,0.036.055,0.061,0.1,0.1a1.811,1.811,0,0,0-.146.338,2.109,2.109,0,0,0,.34.048,13.532,13.532,0,0,0,.049-2.7H32.816c-0.136.082-.406-0.029-0.583,0.048a6.263,6.263,0,0,1-2.67-.048,4.656,4.656,0,0,0-.922.1H26.117c-0.437.12-.973,0.339-1.408,0.483a3.327,3.327,0,0,0-.971.29c0.6-.018,1.53-0.072,2.184-0.145v0.241Zm-2.379-.1c-0.038.033-.108,0.063-0.146,0.1h0.146c0.037-.033.108-0.063,0.146-0.1H23.544ZM7.718,21.89c0.019,0.126-.036.063,0.1,0.1V21.938Zm22.767,1.062a0.329,0.329,0,0,0,.291.145V23.048h0.048V23H30.631A0.249,0.249,0,0,0,30.485,22.952Zm1.553,0.338a0.609,0.609,0,0,1-.049.193,0.619,0.619,0,0,1,.194.048l0.048-.193A0.622,0.622,0,0,1,32.039,23.29Zm1.311,0.241a0.174,0.174,0,0,1,.049.1H33.35v-0.1Zm-0.291.193c0.081,0.054.052,0.085,0.1,0h-0.1ZM0.971,24.4v0.1H1.019V24.4H0.971Zm2.33,0v0.29H3.35C3.426,24.52,3.473,24.53,3.3,24.4Zm-2.233.531a0.343,0.343,0,0,0,.049.29A0.507,0.507,0,0,0,1.068,24.931Zm3.01,0.241a0.561,0.561,0,0,1-.146.1,0.325,0.325,0,0,0,.291.193A0.978,0.978,0,0,0,4.078,25.172Zm-3.107.1a0.183,0.183,0,0,0,.194.145v-0.1H1.117V25.269H0.971Zm2.621,0.579L3.883,25.9a1.231,1.231,0,0,1,.194-0.386c-0.121-.075-0.122-0.144-0.243-0.1A0.542,0.542,0,0,0,3.592,25.848Zm31.845-.434v0.1h0.1V25.462h0.049V25.414H35.437Zm-31.893.531v0.1h0.1c0.037-.033.108-0.063,0.146-0.1H3.544Zm0.049,0.531a0.236,0.236,0,0,0,.146-0.048,0.174,0.174,0,0,1-.049-0.1h-0.1v0.145Zm0.1,0.048a0.533,0.533,0,0,0,.388.483l0.1-.29A1.284,1.284,0,0,0,3.689,26.524ZM4.175,26.91a0.681,0.681,0,0,0-.049.193L4.32,27.152V27.1A0.415,0.415,0,0,0,4.175,26.91Zm1.359,0.048v0.048H5.485c-0.093.037,0.1,0.048,0.1,0.048V27.1H5.631A0.183,0.183,0,0,0,5.534,26.959Zm-0.194.1a2.154,2.154,0,0,1-.534.29,0.165,0.165,0,0,0,.049.1,0.422,0.422,0,0,0,.243.048A0.582,0.582,0,0,0,5.485,27.1ZM5.728,27.2a0.856,0.856,0,0,1-.583.386v0.048H5.194a3.274,3.274,0,0,0,1.214.676V28.262a1.631,1.631,0,0,1,0-.869A0.365,0.365,0,0,1,6.214,27.2C6.177,27.181,5.812,27.216,5.728,27.2Zm26.456,0.145c-0.062.081-.133,0.112-0.194,0.193h0.049a0.485,0.485,0,0,1,.243-0.145V27.345h-0.1Zm-16.99.531a1.089,1.089,0,0,0-.825.241c-0.446.158-.756-0.133-0.922,0.29l-0.388.724h0.049a9.949,9.949,0,0,1,2.524,0v-0.1A1.6,1.6,0,0,1,15.194,27.876Zm15.777,0.1a1.178,1.178,0,0,0-.243.29h0.1a1.593,1.593,0,0,1,.388-0.241V27.972H30.971Zm-11.456.1c-0.148.089-.533,0.005-0.68,0.1a1.835,1.835,0,0,0-.68.965H18.2a5.7,5.7,0,0,1,1.8,0v-0.1A2.691,2.691,0,0,1,19.515,28.069Zm-9.418.048H9.951a3.8,3.8,0,0,0-.631,1.014H9.369a2.277,2.277,0,0,1,1.165,0v-0.1A1.29,1.29,0,0,1,10.1,28.117Zm13.5,0H23.155a4.252,4.252,0,0,0-.68,1.014h0.049a3.174,3.174,0,0,1,1.5,0v-0.1A1.291,1.291,0,0,1,23.592,28.117Zm3.786,0a1.617,1.617,0,0,0-.874,1.014h0.1a2.4,2.4,0,0,1,1.214,0v-0.1A1.291,1.291,0,0,1,27.379,28.117Z" transform="translate(0 0.5)"/>
</svg>
