<?xml version="1.0" encoding="utf-8"?>
<!-- Generator: Adobe Illustrator 16.0.0, SVG Export Plug-In . SVG Version: 6.00 Build 0)  -->
<!DOCTYPE svg PUBLIC "-//W3C//DTD SVG 1.1//EN" "http://www.w3.org/Graphics/SVG/1.1/DTD/svg11.dtd">
<svg version="1.1" id="Layer_1" xmlns="http://www.w3.org/2000/svg" xmlns:xlink="http://www.w3.org/1999/xlink" x="0px" y="0px"
	 width="39.938px" height="40px" viewBox="0 0 39.938 40" enable-background="new 0 0 39.938 40" xml:space="preserve">
<path id="Color_Fill_1" fill="#FFFFFF" d="M9.337,13.066c0.417,0,0.5-0.021,0.787,0v0.6h0.2c0.071,0.079,0.139,0.162,0.199,0.25
	c0.108-0.087,0.119-0.157,0.246-0.1s0.091,0.009,0.148,0.15c0.01,0.1,0.01,0.2,0,0.3c0.314,0.064,0.641,0.029,0.935-0.1
	c-0.182,0.026-0.367,0.009-0.541-0.05c-0.031-0.044-0.049-0.096-0.049-0.15c0.354-0.065,0.716-0.082,1.074-0.05
	c0.027-0.027,0.063-0.044,0.1-0.05v-0.1c0.281-0.483,0.148-3.2,0.148-4.2c-0.069-0.482-0.053-0.973,0.049-1.45v5
	c0.15,0.082,0.321,0.116,0.492,0.1c0.289-0.305,1.555-0.04,1.968-0.25v0.1c-0.056,0.031-0.094,0.086-0.1,0.15
	c0.1,0.064,0.184,0.149,0.246,0.25h0.049c0.034-0.122,0.084-0.24,0.147-0.35h0.101c0.045,0.306,0.064,0.413,0.442,0.4v-0.05h0.049
	c-0.008-0.145-0.06-0.284-0.147-0.4c-0.072,0.126-0.022,0.077-0.2,0.1v-0.2c0.085,0.01,0.172-0.008,0.246-0.05
	c-0.419-0.008-0.372-0.277-0.344-0.7h-0.2c-0.041,0.162,0.024,0.076-0.1,0.15l0.049-0.1h-0.044c-0.091,0.004-0.178,0.04-0.246,0.1
	c0.001-0.054-0.017-0.107-0.049-0.15c-0.038,0.034-0.11,0.066-0.148,0.1c-0.109,0.132-0.043,0.171-0.147,0.2h-0.05v0.05
	c-0.04-0.077-0.058-0.164-0.049-0.25h0.049v-0.05c-0.176-0.021-0.124,0.024-0.199-0.1l0.1,0.05v-0.05
	c-0.067-0.051,0.014-0.032,0.049-0.15c-0.163-0.053-0.22-0.044-0.394-0.1v-0.05c0.17-0.085,0.32-0.204,0.442-0.35
	c0.434,0.31,0.978-0.012,1.525,0.05c0.195,0.022,0.093,0.1,0.2,0.15h1.378c0.155,0.063,0.326,0.081,0.492,0.05
	c0.1-0.071-0.052-0.119,0.1-0.15c0.158,0.079,0.323,0.146,0.492,0.2h-0.052c-0.246,0.151-0.84-0.054-1.082,0.1
	c0.176,0.021,0.124-0.024,0.199,0.1h-0.25c-0.147,0.054-0.478-0.08-0.836,0c-0.249,0.055-0.531,0.153-0.737,0.2
	c0.021,0.12,0.056,0.237,0.1,0.35h0.2c0.409,0.259,0.938-0.245,1.378-0.05l0.049,0.15c0.635,0.099,1.28,0.115,1.919,0.05v-0.2h0.1
	v0.2h0.437v0.1h-1.132v0.05c0.176,0.021,0.124-0.024,0.2,0.1c-0.446,0.043-0.933,0.082-1.525,0.1v0.15
	c-0.113,0.022-0.23,0.022-0.344,0v0.05c0.038,0.004,0.073,0.022,0.1,0.05h-0.153v0.55c0.106,0.009,0.21,0.043,0.301,0.1
	c-0.01-0.086,0.007-0.173,0.049-0.25c0.437,0.095,0.886,0.112,1.328,0.05v0.05c-0.034,0.119-0.017,0.246,0.049,0.35
	c0.452,0.414,1.277,0.432,1.722,0.85c-0.031,0.043-0.049,0.096-0.049,0.15c0.165,0.003,0.33-0.014,0.492-0.05
	c0.083-0.069,0.15-0.154,0.2-0.25c0.129,0.041,0.261,0.074,0.394,0.1v-0.05l-0.151-0.05c0.025-0.064,0.025-0.136,0-0.2
	c0.078-0.005,0.149-0.041,0.2-0.1c0.348,0.329,0.77,0.569,1.23,0.7c0.035-0.144,0.123-0.269,0.246-0.35
	c-0.051-0.163-0.051-0.337,0-0.5h-0.2c-0.027-0.185-0.01-0.373,0.049-0.55c-0.242-0.052-0.491-0.069-0.738-0.05
	c-0.042,0.032-0.094,0.05-0.147,0.05c-0.02-0.131,0.037-0.066-0.101-0.1c0.006,0.07-0.011,0.14-0.049,0.2
	c-0.023-0.32-0.1-0.338-0.1-0.6c-0.085-0.002-0.168-0.019-0.246-0.05c0.01-0.133,0.01-0.267,0-0.4
	c0.129,0.007,0.251,0.061,0.344,0.15c0.109,0.006,0.217-0.029,0.3-0.1h0.05l-0.148,0.25h0.3l0.049-0.15
	c0.2-0.093,0.231,0.131,0.395,0.15h1.668c0.058-0.133-0.044-0.09,0.1-0.15v0.1c0.032,0.043,0.049,0.096,0.049,0.15
	c1.328,0.018,2.866,0.131,4.183,0.1v0.2c-0.854-0.083-1.714-0.049-2.559,0.1l-0.3-0.05c-0.25,0.038-0.995,0.024-1.378,0.1v0.15
	c0.164,0.109,0.243,0.308,0.2,0.5h-0.939v0.1c0.026,0.027,0.044,0.062,0.05,0.1h-0.301c-0.059,0.448,0.027,0.904,0.246,1.3
	c0.215,0.06,0.415,0.162,0.59,0.3c-0.078,0.039-0.133,0.114-0.147,0.2h0.049c0.174-0.063,0.356-0.096,0.541-0.1
	c0.051,0.129,0.164,0.223,0.3,0.25c0.044-0.079,0.078-0.163,0.101-0.25h0.199v0.15h0.837v-0.15h0.199v0.15
	c0.362-0.005,0.725-0.038,1.081-0.1c0.041,0.162-0.023,0.076,0.101,0.15c0.08-0.023,0.162-0.04,0.246-0.05
	c0.034-0.063,0.085-0.115,0.147-0.15c0.043-0.032,0.095-0.05,0.148-0.05v-0.15h0.199v0.15h0.679v-0.15h0.2v0.15
	c0.285,0,0.568-0.05,0.836-0.15c0.086,0.207,0.271,0.357,0.491,0.4c0.133,0.009,0.264,0.026,0.395,0.05v-0.15h0.2v0.15h1.278v-0.15
	h0.2v0.15h1.279c0.1-0.057-0.043-0.1,0.2-0.15v0.15h1.229v-0.15c0.241,0.052,0.101,0.095,0.2,0.15h1.23v-0.15h0.199v0.15h0.887
	c0.056-0.076,0.123-0.144,0.199-0.2c0.449,0.251,0.965,0.356,1.477,0.3v0.6c-0.25-0.008-0.499,0.026-0.738,0.1h-0.514
	c-0.265,0.078-1.576,0-2.411,0h-3.69c-0.523,0.032-1.05,0.032-1.573,0l-0.689,0.149c-0.883-0.13-1.942,0.028-2.608-0.1l-0.541,0.05
	c-0.608,0.021-1.217-0.013-1.819-0.1c-0.013,0.138-0.047,0.272-0.101,0.399c-0.309-0.148-0.6,0.207-0.983-0.05
	c-0.104,0.083-0.221,0.151-0.344,0.2c-0.215,0.014-0.431-0.004-0.641-0.05c-0.167,0.047-0.153,0.019-0.2,0.2
	c-0.061,0.078-0.031,0.025,0,0.1c0.225,0.127,0.488,0.163,0.738,0.1c0.373,0.069,0.752,0.103,1.132,0.101
	c0.146,0.117,0.279,0.251,0.395,0.399c0.271,0.031,0.546-0.021,0.787-0.149c0.212,0.194,0.507,0.269,0.786,0.2
	c0.06-0.021,0.043-0.141,0.2-0.101c0.462,0.151,0.942,0.235,1.428,0.25v0.15l0.836,0.1c-0.015,0.138-0.049,0.272-0.101,0.4
	c0.175,0.077,0.327,0.198,0.443,0.35c-0.037,0.104-0.107,0.192-0.2,0.25c-0.07,0.169,0.21,0.218,0.148,0.45
	c-0.078,0.135-0.18,0.253-0.301,0.35c-0.124,0.192,0.084,0.279-0.049,0.45c-0.121,0.075-0.235,0.158-0.344,0.25v0.3
	c-0.081,0.32-0.215,0.624-0.395,0.9c-0.403,0.404-0.868,0.742-1.378,1c-0.66,0.47-1.329,0.934-2.017,1.4
	c-0.243,0.209-0.507,0.393-0.787,0.55c-0.564,0.126-1.146,0.16-1.722,0.1H4.906c-0.577-0.237-1.073-0.637-1.428-1.149l-0.59-0.551
	c-0.207-0.487-0.656-0.829-1.181-0.899v-0.15h0.246v-0.05c-0.281-0.198-0.516-0.453-0.689-0.75c-0.038,0.005-0.073,0.022-0.1,0.05
	c-0.119,0.045-0.078,0.054-0.2,0.101c-0.055-0.078-0.158-0.2-0.2-0.15c-0.171,0.123-0.381,0.176-0.59,0.15
	c-0.15-0.162-0.224-0.381-0.2-0.601c0.031-0.025,0.054-0.061,0.063-0.1c0.142-0.042,0.275-0.11,0.394-0.2
	c0.125,0.094,0.257,0.177,0.395,0.25v-0.15c-0.026-0.027-0.044-0.063-0.05-0.1c-0.639-0.23-0.659-0.65-0.738-1.45
	c-0.047-0.093-0.063-0.197-0.049-0.3c0.21-0.273,0.479-0.495,0.786-0.65v-1.25h0.301v-0.1c-0.033-0.063-0.033-0.138,0-0.2H0.975
	c-0.093,0.046-0.197,0.063-0.3,0.05l-0.049-0.1c0.101-0.07,0.222-0.105,0.344-0.1c0.316,0.15,1.264-0.285,1.673-0.101
	c0.846,0.156,1.713,0.156,2.559,0l0.59,0.05c0.938-0.108,1.887-0.04,2.8,0.2c0.699,0.222,1.434,0.307,2.165,0.25
	c-0.792-0.077-1.57-0.262-2.313-0.55l-0.836-0.15c-0.199-0.145,0.077-0.205-0.344-0.25c-0.811-0.166-1.633-0.266-2.46-0.3
	c0.002-0.842,0.103-1.681,0.3-2.5c-0.409-0.056-0.771-0.295-0.983-0.65c0.1-0.01,0.19-0.065,0.246-0.15l-0.101-0.05
	c-0.204-0.076-0.422-0.11-0.64-0.1c-0.026-0.027-0.044-0.063-0.049-0.1h0.05v-0.05c0.35-0.099,0.726-0.044,1.033,0.15
	c0.181,0.33-0.065,0.626,0.442,0.65c0.204-0.171,0.48-0.228,0.734-0.15c0.552,0.123,1.533,0.23,2.263,0.3
	c0.084-0.58,0.084-1.169,0-1.75h0.35c-0.047,0.248-0.08,0.499-0.101,0.75H8.99c0.054-0.533,0.036-1.071-0.053-1.6
	c0.236-0.235,0.314-0.586,0.2-0.9v-2.55h0.05v3.4c0.09,0.012,0.174,0.046,0.246,0.1C9.28,12.018,9.246,12.549,9.337,13.066z
	 M9.037,11.516c0.026,0.027,0.062,0.044,0.1,0.05C9.11,11.539,9.074,11.521,9.037,11.516z M9.185,11.516
	c0.027,0.027,0.063,0.044,0.101,0.05c-0.027-0.027-0.062-0.044-0.099-0.05H9.185z M16.811,11.866c0.189,0.078,0.401,0.078,0.59,0
	H16.811z M17.5,11.866c0.026,0.027,0.062,0.044,0.1,0.05c-0.026-0.027-0.061-0.044-0.098-0.05H17.5z M14.991,12.366
	c0.026,0.027,0.043,0.062,0.049,0.1h-0.048L14.991,12.366L14.991,12.366z M14.791,12.466c0.07-0.006,0.141,0.012,0.2,0.05
	c-0.069,0.005-0.138-0.012-0.195-0.05H14.791z M18.284,12.816c0.172,0.076,0.368,0.076,0.541,0h-0.536H18.284z M18.924,12.816
	c0.027,0.027,0.063,0.044,0.1,0.05c-0.025-0.026-0.06-0.044-0.096-0.05H18.924z M16.612,12.966c0.027,0.027,0.063,0.045,0.101,0.05
	c-0.026-0.026-0.06-0.044-0.096-0.05H16.612z M17.498,12.966c0.044,0.041,0.094,0.075,0.147,0.1v-0.1h-0.144H17.498z M15.73,13.016
	c0.027,0.027,0.063,0.044,0.101,0.05C15.803,13.039,15.768,13.021,15.73,13.016z M22.224,13.116l-0.1,0.15l0.2-0.1
	C22.297,13.139,22.263,13.122,22.224,13.116L22.224,13.116z M17.009,13.616v-0.35H16.96c-0.148-0.008-0.297-0.025-0.443-0.05v0.1
	c0.093,0.02,0.156,0.106,0.148,0.2c-0.079,0.039-0.134,0.113-0.148,0.2h0.641v-0.1H17.009L17.009,13.616z M22.569,13.516
	c0.239,0.086,0.5,0.086,0.738,0H22.569z M22.323,13.616v0.1h0.147v-0.1H22.323z M23.701,13.766c-0.094,0.046-0.197,0.063-0.301,0.05
	v0.1h0.738v-0.1h0.049v-0.05H23.701z M10.122,13.866c0.065,0.084,0.149,0.153,0.246,0.2v-0.05c-0.041-0.044-0.075-0.095-0.101-0.15
	H10.122z M12.287,14.116c0-0.054-0.017-0.107-0.049-0.15c-0.027,0.027-0.063,0.045-0.101,0.05v0.1H12.287L12.287,14.116z
	 M16.272,14.166h0.148v-0.2H16.32v0.05C16.288,14.06,16.272,14.112,16.272,14.166z M23.357,13.966v0.2h0.101v-0.15
	c0.23,0.034,0.466,0.017,0.688-0.05H23.357L23.357,13.966z M25.965,13.966c0.281,0.008,0.561,0.042,0.836,0.1
	C26.519,14.132,26.223,14.097,25.965,13.966L25.965,13.966z M5.349,14.016v0.2h0.246c0.006-0.069,0.022-0.136,0.049-0.2h-0.3H5.349z
	 M5.837,14.016v0.25h0.1v-0.25H5.837z M24.927,14.016c0.041,0.162-0.024,0.076,0.1,0.15v-0.15H24.927z M9.576,14.116
	c0.01,0.07-0.04-0.021-0.05,0.05c-0.095,0.039,0.101,0.05,0.101,0.05c-0.005-0.038-0.021-0.073-0.047-0.1H9.576z M23.5,14.116
	c0.105,0.065,0.238,0.065,0.344,0h-0.34H23.5z M23.894,14.116c0.072,0.056,0.174,0.056,0.246,0h-0.242H23.894z M5.837,14.316
	c-0.035,0.113-0.052,0.231-0.049,0.35h0.1C5.899,14.429,5.948,14.416,5.837,14.316z M5.296,14.516v0.1h0.3v-0.1H5.296z
	 M5.296,14.716l-0.045,0.3h0.3v-0.3H5.3H5.296z M5.788,14.716c-0.028,0.115-0.044,0.232-0.049,0.35h0.098v-0.1
	c0.081-0.125,0.048-0.165-0.045-0.25H5.788z M19.466,14.816c0.072,0.057,0.174,0.057,0.246,0H19.47H19.466z M20.106,14.916
	c0.07,0.092,0.189,0.131,0.301,0.1v-0.05L20.106,14.916z M23.599,14.966l-0.147,0.25h0.1c0.076-0.1,0.13-0.11,0.051-0.25H23.599z
	 M20.499,15.016v0.1h0.049c-0.004-0.038-0.02-0.073-0.045-0.1H20.499z M20.647,15.016v0.1h0.049c-0.004-0.038-0.02-0.073-0.046-0.1
	H20.647z M22.074,15.066c-0.011,0.098,0.061,0.187,0.158,0.197c0.052,0.005,0.104-0.012,0.142-0.047
	c-0.104-0.039-0.204-0.089-0.297-0.15H22.074z M5.251,15.116c0.001,0.102-0.016,0.204-0.049,0.3h0.3l0.049-0.3H5.251z M5.743,15.116
	c-0.016,0.099-0.016,0.2,0,0.3v0.05h0.049v-0.05c0.071-0.084,0.061-0.21-0.024-0.282C5.76,15.127,5.752,15.121,5.743,15.116z
	 M22.422,15.316c0.055,0.144,0.009,0.092,0.147,0.15c0.043,0.032,0.095,0.05,0.148,0.05v-0.1L22.422,15.316z M5.202,15.516
	c0.001,0.102-0.016,0.204-0.05,0.3h0.301c0.032-0.097,0.049-0.198,0.049-0.3H5.202z M5.694,15.516v0.25h0.05v-0.05
	c0.036-0.06,0.054-0.13,0.049-0.2H5.692H5.694z M5.153,15.916v0.3h0.245c-0.001-0.102,0.016-0.204,0.05-0.3H5.147H5.153z
	 M5.104,16.316v0.2c0.097,0.034,0.198,0.051,0.3,0.05v-0.25H5.104z M1.216,17.716c0.122,0.069,0.271,0.069,0.394,0H1.216z
	 M27.784,19.316c0.04,0.07,0.119,0.11,0.199,0.1v-0.05h0.05v-0.05H27.784L27.784,19.316z M29.162,19.316v0.1h0.049v-0.1H29.162z
	 M28.473,19.416v0.15c0.173,0.009,0.28,0.067,0.3,0.05c0.032-0.044,0.049-0.097,0.05-0.15h-0.101
	C28.646,19.424,28.559,19.406,28.473,19.416z M29.211,19.716c-0.021,0.113-0.045,0.054,0,0.15c0.062,0.12,0.17,0.21,0.3,0.25
	c0.025-0.041,0.06-0.075,0.1-0.101v-0.05C29.467,19.901,29.332,19.817,29.211,19.716z M0.281,22.016
	c-0.03,0.08-0.047,0.165-0.05,0.25c0.079,0.03,0.162,0.047,0.246,0.051c0.03-0.08,0.046-0.165,0.049-0.25h-0.1
	C0.385,22.034,0.334,22.017,0.281,22.016z M2.737,22.666v0.1c0.429,0.292,0.813,0.646,1.137,1.051h0.049v-0.101
	c0.052-0.093,0.085-0.194,0.1-0.3C3.619,23.124,3.189,22.873,2.737,22.666z M26.747,23.116c-0.076,0.1-0.172,0.143-0.246,0.25h0.049
	c0.088-0.084,0.189-0.151,0.3-0.2c-0.026-0.027-0.062-0.045-0.099-0.05H26.747z M7.514,24.016c-0.116-0.003-0.231-0.02-0.344-0.05
	c-0.038,0.433-0.19,0.847-0.443,1.2h1.23v-0.1C7.647,24.809,7.482,24.417,7.514,24.016z M10.761,23.966
	c0.012,0.442-0.146,0.872-0.443,1.2h1.279v-0.05c-0.453-0.317-0.267-0.722-0.541-1.15C10.962,24.007,10.855,24.007,10.761,23.966z
	 M14.402,23.966c-0.018,0.445-0.192,0.87-0.491,1.2h1.278v-0.05c-0.236-0.354-0.419-0.742-0.541-1.15
	C14.572,24.009,14.479,24.009,14.402,23.966z M17.994,23.966c-0.009,0.448-0.185,0.876-0.492,1.2h1.279v-0.05
	c-0.225-0.361-0.406-0.747-0.541-1.15C18.163,24.009,18.071,24.009,17.994,23.966z M21.586,23.966
	c-0.038,0.433-0.19,0.847-0.443,1.2h1.23v-0.1c-0.231-0.34-0.413-0.711-0.541-1.101C21.755,24.009,21.661,24.009,21.586,23.966
	L21.586,23.966z M25.178,23.966v0.2h0.1c0.064-0.073,0.149-0.125,0.243-0.15v-0.05C25.407,23.987,25.29,23.987,25.178,23.966
	L25.178,23.966z"/>
</svg>
