<svg xmlns="http://www.w3.org/2000/svg" width="40" height="40" viewBox="0 0 40 40">
  <defs>
    <style>
      .cls-1 {
        fill: #fff;
        fill-rule: evenodd;
      }
    </style>
  </defs>
  <path id="Color_Fill_1" data-name="Color Fill 1" class="cls-1" d="M9.186,16.935H9.38v0.2H9.818l0.049-.343a0.664,0.664,0,0,1,.535-0.2,0.175,0.175,0,0,0,.1.049,0.884,0.884,0,0,0,.146.2l0.049,0.392a2.419,2.419,0,0,0,1.264-.1H12V17.082H11.47a2.311,2.311,0,0,1-.243-0.441c0.03-.019.583-0.49,0.583-0.49a3.248,3.248,0,0,0,0-.392,2.535,2.535,0,0,1,.292.049l0.049-.049c0.088-.065.111-0.23,0.194-0.294l0.292-.1a6.811,6.811,0,0,0,0-.883V12.177a3.162,3.162,0,0,1,.049-1.128v4.316a6.214,6.214,0,0,1,1.8-.1,4.972,4.972,0,0,0,.486.245,0.177,0.177,0,0,0,.049-0.1,3.142,3.142,0,0,0-.389-0.441V14.826a0.544,0.544,0,0,1-.243,0,1.493,1.493,0,0,1-.049-0.638H14.192a0.629,0.629,0,0,1-.049.2,0.4,0.4,0,0,0-.292-0.147,0.713,0.713,0,0,1-.049.245H13.755v-0.1a0.252,0.252,0,0,0,.049-0.147H13.56a0.569,0.569,0,0,1,0,.294H13.512V14.482a0.276,0.276,0,0,1,0-.2,0.4,0.4,0,0,1-.243-0.049,0.166,0.166,0,0,0,.1-0.049,0.748,0.748,0,0,0-.292-0.2c-0.058.2-.021,0.335-0.243,0.392a0.7,0.7,0,0,1-.049-0.2,0.41,0.41,0,0,0,.146-0.343H13.22c0.1-.207.056-0.295,0.389-0.294a1.8,1.8,0,0,0,1.215.147,0.239,0.239,0,0,1,.049-0.147v0.294h2.284v0.2H14.97a0.33,0.33,0,0,1-.146.2v0.1a1.209,1.209,0,0,0,.146.147,3.521,3.521,0,0,0,.049.441,0.247,0.247,0,0,0,.146.049l-0.049-.147h0.729v0.1a0.427,0.427,0,0,0-.049.245h0.049v0.049a1.871,1.871,0,0,1,.535.1,0.41,0.41,0,0,0-.1.147,3.746,3.746,0,0,1,1.555.2,1.359,1.359,0,0,0,.292.343,11.384,11.384,0,0,0,1.41.049c0.519,0.117,1.076-.3,1.312.1H20.608c-0.1.063-2.077,0.005-2.479,0a0.973,0.973,0,0,1-.146.1l-0.049.245a1.8,1.8,0,0,0-.486.294c0.251,0.02.286,0.076,0.292,0.343,0,0-.14.064-0.1,0.1h0.049a0.5,0.5,0,0,0,.292.1V17.278h0.049a0.557,0.557,0,0,1,0-.245,1.892,1.892,0,0,1,.778-0.049v0.343a0.716,0.716,0,0,1,.292.294,8.575,8.575,0,0,0,1.7.539,1.393,1.393,0,0,1,.875-0.539,0.527,0.527,0,0,0,.243.2,0.3,0.3,0,0,1,.34-0.147c0.287,0.043.352,0.192,0.34,0.54a0.252,0.252,0,0,0-.049.147,0.677,0.677,0,0,0,.34.1,1.5,1.5,0,0,0,.243-0.147,1.858,1.858,0,0,1,.292-0.638,2.984,2.984,0,0,0,0-.54,2.6,2.6,0,0,0-.875-0.1,0.175,0.175,0,0,1-.1.049V17.033H22.5a0.3,0.3,0,0,1,.049-0.2H22.357v0.049a0.177,0.177,0,0,1,.049.1H22.26a1.012,1.012,0,0,1,0-.54h0.146a0.3,0.3,0,0,0,.1.1c-0.036.043-.061,0.055-0.1,0.1h0.146v-0.1a0.3,0.3,0,0,1-.1-0.1,0.689,0.689,0,0,0,.34-0.147,0.686,0.686,0,0,1,.486.147h1.6a0.265,0.265,0,0,1,.146-0.2c0.02,0.449.637,0.318,1.069,0.294a11.678,11.678,0,0,0,3.111.1v0.2H29.162a3.2,3.2,0,0,0-1.215-.049,17.356,17.356,0,0,0-2.965.2v0.147h0.146v0.2H24.253v0.2H23.961a5.924,5.924,0,0,0,0,1.619v0.049c0.221,0,1.392.082,1.41,0.1a0.351,0.351,0,0,0,.243.2c0.324-.195,2.024.241,2.625,0.049a1.153,1.153,0,0,0,.243-0.245H30.62l0.146,0.2a3.346,3.346,0,0,0,1.166.049H40v0.687c-1.949,0-4.052-.049-6.075-0.049a17.362,17.362,0,0,0-3.3.147,6.173,6.173,0,0,1-2.382-.147l-2.77.1-0.049.392H25.371c-0.029-.059-0.975.046-1.312-0.049a0.993,0.993,0,0,1-.68.441,1.066,1.066,0,0,0-.389,0,1.623,1.623,0,0,1-.389.2V21.3a0.727,0.727,0,0,1,.1.343c0.858,0,1.451-.049,2.187-0.049a0.454,0.454,0,0,0,.1.343V21.888c0.038-.041.1-0.143,0.194-0.245h0.1a0.354,0.354,0,0,0,.243.441,1.558,1.558,0,0,0,.632,0,19.6,19.6,0,0,0,2.868.245l0.146-.245H29.21v0.049a0.212,0.212,0,0,1,.146.147,1.018,1.018,0,0,0-.243.441,1.1,1.1,0,0,1,.632.834,0.944,0.944,0,0,0-.194.343H29.4v0.147l-0.437.294a10.38,10.38,0,0,1-.1,1.275,0.417,0.417,0,0,0,.243.049v0.147a1.319,1.319,0,0,1-.437-0.049c-0.21.6-1.507,1.257-2.041,1.619A10.033,10.033,0,0,1,24.4,28.9l-1.264.049H6.707A7.634,7.634,0,0,1,4.714,28.9,6.036,6.036,0,0,1,2.77,27.087,1.322,1.322,0,0,0,1.8,26.253a0.626,0.626,0,0,1,.049-0.2H1.9v0.049c0.038,0.094.049-.1,0.049-0.1a5.83,5.83,0,0,1-.68-0.736,0.24,0.24,0,0,1-.389.049S0.822,25.2.826,25.273c-0.272.1-.109,0.261-0.632,0.147a1.007,1.007,0,0,1-.146-0.588,2.411,2.411,0,0,0,.389-0.245,0.775,0.775,0,0,1,.437.245v-0.2a0.178,0.178,0,0,1-.049-0.1C0.157,24.279.123,23.553,0,22.771a2.945,2.945,0,0,1,.875-0.638V20.858h0.1a0.346,0.346,0,0,0,.194.1v-0.1a0.257,0.257,0,0,1,0-.245H1.118a0.3,0.3,0,0,1-.34.1,0.178,0.178,0,0,1-.049-0.1H0.778V20.564c0.553-.026,1.146-0.269,1.847-0.294a0.238,0.238,0,0,0,.049.147,0.325,0.325,0,0,0,.194.049,5.951,5.951,0,0,1,2.187-.245,13.382,13.382,0,0,1,3.888.294,4.289,4.289,0,0,0,1.944.343,8.314,8.314,0,0,1-2.333-.54c-0.272-.088-0.515-0.037-0.778-0.147a0.992,0.992,0,0,1-.146-0.2H7.339a1.083,1.083,0,0,1-.146-0.245H6.416a0.3,0.3,0,0,0-.1-0.1v-0.2c-0.389.024-.525,0.035-0.875,0.049a5.611,5.611,0,0,1-.049-1.471,1.7,1.7,0,0,0,.583-0.1V17.867a0.5,0.5,0,0,1-.34-0.1,3.6,3.6,0,0,0,.729.049,0.333,0.333,0,0,0,.049-0.2c-0.063-.027-0.036,0-0.049-0.049a5.156,5.156,0,0,1,1.652-.049V17.474a1.18,1.18,0,0,1-.34-0.588H7.728V16.837a0.883,0.883,0,0,0,.292.049,0.239,0.239,0,0,0-.049-0.147c-0.153-.128-0.283-0.045-0.34-0.294h0.1A0.418,0.418,0,0,1,7.971,16.4a3.739,3.739,0,0,0,.389.2,0.969,0.969,0,0,0,.437.441c0.071-.124.021-0.076,0.194-0.1,0-1.372.1-2.763,0.1-4.218A6.7,6.7,0,0,1,9.137,11C9.135,12.988,9.184,15.018,9.186,16.935Zm4.423-2.452a0.234,0.234,0,0,1,.146.049A0.234,0.234,0,0,1,13.609,14.482Zm0.826,0.49a0.691,0.691,0,0,1,.243.049l-0.049.147H14.484Zm1.409,0.343v0.2h0.1a0.487,0.487,0,0,0,.292-0.2H15.845Zm-3.985.54a0.237,0.237,0,0,0,.049.147,0.3,0.3,0,0,1,.1-0.1V15.856H11.859ZM22.6,16.738a1.2,1.2,0,0,0,.778,0H22.6Zm-12.151.491V16.886a0.5,0.5,0,0,0-.292-0.1,0.175,0.175,0,0,1-.1.049v0.294l0.146,0.049A0.417,0.417,0,0,0,10.45,17.229Zm13.755-.1V16.984a0.9,0.9,0,0,0-.583.1ZM7.971,17.082a1.057,1.057,0,0,0,.1.245H8.117V17.278a0.177,0.177,0,0,0,.049-0.1A0.647,0.647,0,0,1,7.971,17.082Zm8.8,0a0.239,0.239,0,0,0,.049.147,0.188,0.188,0,0,1,.146-0.1V17.082H16.768ZM26,17.18h0.923v0.049H26.877A1.083,1.083,0,0,1,26,17.18Zm-7.193.2v0.1L19,17.572A0.42,0.42,0,0,0,18.809,17.376Zm-12.2.441,0.049,0.442h0.1a1.041,1.041,0,0,1,.194-0.442H6.61Zm1.312,0.1v0.1H7.971A0.169,0.169,0,0,0,7.922,17.916Zm15.7,0a1.141,1.141,0,0,1-.34.294,2.232,2.232,0,0,0,.049.245,0.315,0.315,0,0,0-.243.147v0.1c0.159,0.042.192,0.1,0.34,0.147a0.28,0.28,0,0,1,.292-0.049V18.749C23.607,18.564,23.735,18.1,23.621,17.916Zm-17.983.343v0.2H5.881v-0.2H5.638Zm0,0.245v0.1a0.312,0.312,0,0,0,.194-0.049A0.611,0.611,0,0,1,5.638,18.5Zm0,0.2,0.049,0.147H5.735A0.186,0.186,0,0,0,5.638,18.7Zm18.08,0.147V18.9H23.67c-0.093.038,0.1,0.049,0.1,0.049A0.169,0.169,0,0,0,23.718,18.847ZM6.27,18.9a0.414,0.414,0,0,0,.049.245A0.414,0.414,0,0,0,6.27,18.9Zm0.389,0.245v0.2a1.152,1.152,0,0,0,.535-0.049A2.087,2.087,0,0,1,6.659,19.142Zm0,0.245a0.667,0.667,0,0,0,.535,0H6.659ZM2.187,20.466c-0.224.14-.655,0.049-0.875,0.2a4.82,4.82,0,0,0,1.069-.147V20.466H2.187Zm8.748,0.441c0.084,0.043.062,0.044,0.146,0H10.936Zm17.74,1.471v0.1c0.12,0.063.033-.021,0.1,0.1a7675732158519.306,7675732158519.306,0,0,0,.1-0.2H28.676ZM0.34,24.929a0.643,0.643,0,0,0,0,.245H0.583a0.169,0.169,0,0,1,.049-0.1v-0.1h-0.1A0.325,0.325,0,0,0,.34,24.929Zm2.43,0.638a4.376,4.376,0,0,0,1.118,1.079,1.9,1.9,0,0,1,.1-0.343H4.034c0.048-.05-0.048-0.048-0.049-0.049A2.557,2.557,0,0,0,2.77,25.567Zm23.864,0.54a3.124,3.124,0,0,0-.292.343h0.1a0.783,0.783,0,0,1,.389-0.245V26.155Zm-0.535.441v0.1h0.049A0.167,0.167,0,0,0,26.1,26.548Zm-0.778.294v0.245h0.1a1.528,1.528,0,0,1,.535-0.343V26.695h-0.1A0.555,0.555,0,0,1,25.322,26.842Zm-18.129,0a1.579,1.579,0,0,1-.486,1.275H7.922V28.068a1.351,1.351,0,0,1-.486-1.226H7.193Zm3.888,0H10.79v0.049c0.264,0.406-.293,1.015-0.437,1.226h1.166V28.068A1.38,1.38,0,0,1,11.081,26.842Zm3.354,0A1.815,1.815,0,0,1,14,28.117h1.166V28.068a1.445,1.445,0,0,1-.486-0.883c-0.038-.163.035-0.237,0-0.294A0.417,0.417,0,0,0,14.435,26.842Zm3.645,0a1.7,1.7,0,0,1-.486,1.275h1.215V28.068a1.275,1.275,0,0,1-.486-1.226H18.08Zm3.888,0H21.677v0.049c0.255,0.4-.291,1.012-0.437,1.226h1.166V28.068A1.38,1.38,0,0,1,21.968,26.842Z"/>
</svg>
