<svg xmlns="http://www.w3.org/2000/svg" width="40" height="40" viewBox="0 0 40 40">
  <defs>
    <style>
      .cls-1 {
        fill: #fff;
        fill-rule: evenodd;
      }
    </style>
  </defs>
  <path id="Color_Fill_1" data-name="Color Fill 1" class="cls-1" d="M16.618,18.58l0.049-.433a0.3,0.3,0,0,0-.2.144c-0.1.025-.121-0.089-0.294-0.1a0.231,0.231,0,0,1-.049.145V18.195a0.848,0.848,0,0,0-.294.048l0.049,0.144a0.321,0.321,0,0,1,.2.048H16.029v0.048a0.783,0.783,0,0,0-.245-0.048V18.243H15.539V17.954h-0.2a1.379,1.379,0,0,1-.1.385,0.169,0.169,0,0,1-.1-0.048A0.32,0.32,0,0,1,15.1,18.1a0.243,0.243,0,0,0,.1-0.289c0.32,0.011.4-.024,0.441-0.289a1.43,1.43,0,0,1,.49.144,3.817,3.817,0,0,0,1.029,0,0.23,0.23,0,0,1,.049-0.144V17.81h2.3a0.23,0.23,0,0,1-.049.144A9.156,9.156,0,0,1,17.3,18v0.144H17.157l0.049,0.241a1.25,1.25,0,0,0,.392.048,1.331,1.331,0,0,1,.833.048,3.924,3.924,0,0,1,.735.048c0.661,0,1.1-.009,1.814,0v0.1H19.853v0.048c0.121,0.062.033-.021,0.1,0.1H19.706c-0.141.069-.466-0.059-0.735,0a4.683,4.683,0,0,0-.882.289,4.7,4.7,0,0,1,0,.626h0.049a0.471,0.471,0,0,1,.49.1V19.543h0.686v0.289l0.441,0.1a0.754,0.754,0,0,1,.49-0.144,1,1,0,0,0,.294.337,5.3,5.3,0,0,1,.735.193,0.976,0.976,0,0,0,.147.433V20.7a0.414,0.414,0,0,1,.147-0.192,0.775,0.775,0,0,0,.245.241c0-.263.013-0.343,0.245-0.385a0.489,0.489,0,0,0,.294.241c-0.024-.14-0.06-0.088.049-0.193a0.4,0.4,0,0,1,.2-0.048,0.159,0.159,0,0,1,0-.144,0.169,0.169,0,0,1,.1.048,9.575,9.575,0,0,1,1.863,1.011v0.048H24.51a2.233,2.233,0,0,1-1.029.241l0.049,0.289a0.39,0.39,0,0,1,.147.1,0.525,0.525,0,0,1,.1-0.144c0.041,0.156-.024.073,0.1,0.144a1.193,1.193,0,0,1,.882.048,0.307,0.307,0,0,1,.049-0.193A2.764,2.764,0,0,0,26.029,22a10.122,10.122,0,0,0,3.235,0,0.746,0.746,0,0,0,.049-0.241,17.03,17.03,0,0,1,2.157,0,0.368,0.368,0,0,0,.2.241,7.236,7.236,0,0,0,2.255.1H40V22.72H31.863v0.1H29.118v-0.1H28.824l-2.745.048A6.56,6.56,0,0,0,25,23.057l-0.049.144c-0.064.028-.079-0.094-0.1-0.1-0.073-.009-0.07.092-0.1,0.1a0.334,0.334,0,0,1-.2-0.1,0.23,0.23,0,0,1-.049.145c-0.179-.165-0.12.055-0.245,0l-0.049-.145a0.556,0.556,0,0,1-.588-0.048V23.25a0.514,0.514,0,0,1,.049.289,1.1,1.1,0,0,1,.882.144,0.247,0.247,0,0,0,0,.241,2.465,2.465,0,0,0,.686.048v0.193H25.49a0.622,0.622,0,0,1,.441-0.289V24.26a3.881,3.881,0,0,0,1.029.048,12.4,12.4,0,0,0,1.471.1A3.27,3.27,0,0,1,29.8,25.416a2.924,2.924,0,0,1-.441.529A6.136,6.136,0,0,1,29.02,27l-0.294.144v0.289a2.54,2.54,0,0,1-.49.818,4.942,4.942,0,0,1-.931.578c-0.55.339-1.1,0.707-1.667,1.059a6.3,6.3,0,0,1-1.667.963,16.281,16.281,0,0,1-3.726,0H8.284a14.992,14.992,0,0,1-2.4,0A5.75,5.75,0,0,1,4.216,29.8c-1.1-.762-2.208-1.484-3.235-2.311a0.535,0.535,0,0,1-.588.192,0.788,0.788,0,0,1-.2-0.626A1.443,1.443,0,0,0,.49,26.86,4.229,4.229,0,0,1,0,25.175c0.724-.609.9-0.628,0.882-1.974H1.029V23.057A1.671,1.671,0,0,1,0,22.913a3.083,3.083,0,0,0,.98-0.144c-0.18-.033-0.134,0-0.2-0.145H1.127c0.125,0.261,1.584.034,1.912,0v0.048a0.3,0.3,0,0,0-.1.1,0.7,0.7,0,0,1,.343.144l1.569-.1H8.088a4.347,4.347,0,0,0,.686.144c0.063-.119-0.021-0.033.1-0.1V22.816a0.853,0.853,0,0,1-.441-0.144l0.147-.385a1.323,1.323,0,0,0-1.029-.53,1.189,1.189,0,0,1-.343-0.433C7.472,21,7.334,19.937,7.6,19.687a1.557,1.557,0,0,1,.49-0.144l0.147,0.048a2.107,2.107,0,0,0,.147.289l-0.049.337v0.048h0.1c0.106-.111.063,0.023,0.147-0.048,0.07-.1.031-0.268,0.1-0.385,0.146-.258.284-0.012,0.294-0.529-0.165-.054-0.162-0.055-0.2-0.241,0.336-.19.2-1.881,0.2-2.455V9.1H9.02v9.869a1.475,1.475,0,0,1,1.029.481,1.2,1.2,0,0,1,.049.337,2.284,2.284,0,0,0,.343.144V19.687a11.235,11.235,0,0,0,.1-2.311V11.5a9.659,9.659,0,0,1,.049-2.311c-0.007,3.617.05,7.316,0.147,10.783h0.1c0.051-.21.078-0.236,0.343-0.241a0.476,0.476,0,0,0,.441.241v-0.1c0.106-.157.087-0.418,0.2-0.578-0.011.448,0.179,0.463,0.637,0.433a0.185,0.185,0,0,0,.2.144,0.635,0.635,0,0,0,.147-0.337,7.937,7.937,0,0,0,.1-2.359q0.024-2.912.049-5.825A9.92,9.92,0,0,1,12.99,9c0,3.291-.036,6.706.049,9.917h0.049c0.152-.317.793,0.047,1.127-0.144H13.824v-0.1a13.961,13.961,0,0,0,2.206-.048v0.048c-0.124.071-.076,0.021-0.1,0.193a0.526,0.526,0,0,1,.2.241A0.882,0.882,0,0,1,16.618,18.58Zm2.3,0.048a0.793,0.793,0,0,0,.588,0H18.922Zm-2.353.1a0.231,0.231,0,0,0,.049.144V18.724H16.569ZM17.4,18.917a0.23,0.23,0,0,0,.049.145,1.206,1.206,0,0,0,.294.192V19.061H17.7V19.013h0.049a0.178,0.178,0,0,0-.1-0.048C17.6,18.968,17.559,18.941,17.4,18.917Zm0.735,0a0.177,0.177,0,0,0,.1.048A0.178,0.178,0,0,0,18.137,18.917Zm-1.569.193h0.245V19.061a1.271,1.271,0,0,0-.245-0.1v0.144Zm-3.529-.048V19.35h0.049V19.3A0.2,0.2,0,0,0,13.039,19.061Zm3.824,0.048a0.353,0.353,0,0,0,.2.1v-0.1h-0.2ZM9.02,19.3v0.337h0.1a0.3,0.3,0,0,1,.294,0V19.495a0.425,0.425,0,0,0-.2-0.144A0.335,0.335,0,0,0,9.02,19.3Zm8.774,0v0.1h0.1V19.3h-0.1Zm-0.539.337v0.1c0.175-.02.123,0.023,0.2-0.1h-0.2ZM19.9,19.976a0.317,0.317,0,0,0,.294.1h0.049V20.024A1.071,1.071,0,0,0,19.9,19.976Zm-11.471.1a0.173,0.173,0,0,1,.049.1H8.431v-0.1Zm-5.98,2.551h0.1v0.048A0.169,0.169,0,0,1,2.451,22.624Zm6.765,0.385a0.173,0.173,0,0,0,.245.048ZM28.529,24.6a2.778,2.778,0,0,0,1.029.963,0.179,0.179,0,0,1,.1-0.048v-0.1H29.608A1.613,1.613,0,0,0,28.529,24.6ZM29.8,25.512a0.173,0.173,0,0,1,.049.1H29.8v-0.1ZM0.49,27.149a0.744,0.744,0,0,0-.049.241,0.7,0.7,0,0,0,.2.048,0.178,0.178,0,0,1,.1-0.048V27.2A0.783,0.783,0,0,0,.49,27.149Zm2.6,0.866a10.453,10.453,0,0,0,1.863,1.348V29.219A0.41,0.41,0,0,1,4.9,28.978,5.361,5.361,0,0,0,3.088,28.015Zm5.686,1.059H7.843v0.048H7.794a2.187,2.187,0,0,1-.392.963H9.167v-0.1A1.1,1.1,0,0,1,8.775,29.074Zm2.892,0a1.973,1.973,0,0,1-.441,1.011h1.323v-0.1C12.1,29.669,12.415,29.065,11.667,29.074Zm3.774,0H15.049v0.048H15a2.009,2.009,0,0,1-.392.963h1.226v-0.1A1.146,1.146,0,0,1,15.441,29.074Zm2.892,0a1.723,1.723,0,0,1-.441,1.011h1.323v-0.1a1.146,1.146,0,0,1-.392-0.915h-0.49Zm3.382,0a1.722,1.722,0,0,1-.441,1.011H22.6V30.037a1.251,1.251,0,0,1-.441-0.963H21.716Zm3.333,0v0.241H25.1a1.038,1.038,0,0,1,.294-0.193V29.074H25.049Z" transform="translate(0 0.016)"/>
</svg>
