<svg xmlns="http://www.w3.org/2000/svg" width="40" height="40" viewBox="0 0 40 40">
  <defs>
    <style>
      .cls-1 {
        fill: #fff;
        fill-rule: evenodd;
      }
    </style>
  </defs>
  <path id="Color_Fill_1" data-name="Color Fill 1" class="cls-1" d="M10.8,15.9h0.589V15.75h0.147v-0.3h0.1c0.007,0.188-.023.176,0.1,0.25a1.92,1.92,0,0,1,1.031,0V11H12.81v0.05h0.049c-0.116.5,0.09,1.065,0,1.65a22.12,22.12,0,0,0,0,3h0.147a3.875,3.875,0,0,0,.147-0.4,0.216,0.216,0,0,1-.049-0.25c0.067-.174.112-0.154,0.344-0.15a1.952,1.952,0,0,0,.834-0.05,1.274,1.274,0,0,0,.344-0.1c0.489-.135.808,0.124,1.227,0V14.8a0.2,0.2,0,0,0-.1.2,1.447,1.447,0,0,0,.245.2,0.784,0.784,0,0,1,.344-0.35v0.1a0.439,0.439,0,0,1,.049.25,1.346,1.346,0,0,1,.442.1V15.2c-0.236-.017-0.227-0.011-0.245-0.25a0.182,0.182,0,0,0,.049-0.1H16.393V14.5H16.2a2.828,2.828,0,0,1-.1.4H15.951a2.977,2.977,0,0,1,.2-0.7l-0.491.05a0.3,0.3,0,0,1,0,.2V14.5H15.607V14.3H15.362V14a0.685,0.685,0,0,0-.2-0.05,1.539,1.539,0,0,1-.147.45H14.969V14.35a0.193,0.193,0,0,1-.1-0.15,0.53,0.53,0,0,0,.147-0.35h0.295c0.105-.24.055-0.3,0.393-0.3a2.067,2.067,0,0,0,1.227.15c0.041-.162-0.024-0.076.1-0.15a1.042,1.042,0,0,0,0,.3,7.3,7.3,0,0,1,2.258,0V14c-0.66.046-1.473,0.05-2.209,0.05,0.009,0.16.037,0.062-.049,0.2h0.343a1.887,1.887,0,0,0,.687-0.15v0.25a11.72,11.72,0,0,0,2.258,0v0.2c-0.65.027-1.436,0.049-2.159,0.05v0.15h-0.2a1.714,1.714,0,0,1,0,.85,4.022,4.022,0,0,0,.393.1v0.15a0.613,0.613,0,0,1,.2.05V15.8a1.8,1.8,0,0,1,.785-0.1v0.25h0.1c0.415,0.322.792-.13,1.08,0.15a2.137,2.137,0,0,1,.147.7c0.338-.077.123-0.038,0.442,0.1a0.279,0.279,0,0,1,0-.2l0.442,0.15a0.216,0.216,0,0,1,.147-0.15c0.071,0.127-.011.056,0.147,0.1,0.055-.168.056-0.166,0.245-0.2a0.19,0.19,0,0,0,.147.1,1.744,1.744,0,0,1,.147-0.15,1.019,1.019,0,0,1,.049-0.65H22.184l-0.049-.5a6.455,6.455,0,0,1-.736.05c-0.016-.005,0-0.084-0.245-0.1a0.888,0.888,0,0,1,0-.55H21.3c0.039,0.187-.047.155,0.147,0.2V14.9c-0.121-.065-0.034.021-0.1-0.1a0.506,0.506,0,0,0,.393-0.15c0.22-.079.211,0.128,0.393,0.15h1.718c0.041-.162-0.024-0.076.1-0.15A0.728,0.728,0,0,0,24,14.9c1.331,0.032,2.843.154,4.172,0.1v0.05h0.049V15.2a18.991,18.991,0,0,0-3.19.1c-0.348.079-.8-0.049-1.08,0.05a1.707,1.707,0,0,1,.147.55,0.615,0.615,0,0,0-.2.05c-0.006.187,0.059,0.122-.147,0.15V15.9H23.166V16a0.4,0.4,0,0,1,.245.05H23.362a0.9,0.9,0,0,1-.442.05V17c0.088,0.021.736,0.25,0.736,0.25a0.63,0.63,0,0,0,.147.25,1.348,1.348,0,0,0-.2.5h0.049v0.05h0.785a2,2,0,0,0,1.521.25,9.486,9.486,0,0,0,2.11.05,0.917,0.917,0,0,0,.245-0.25h1.816a2.059,2.059,0,0,1,.736.25H40v0.7c-2.664,0-5.5-.05-8.245-0.05-1.129,0-2.637.4-3.681,0-0.067-.026-0.831.05-1.031,0.05a20.568,20.568,0,0,0-2.4.05,2.372,2.372,0,0,0-.147.25,1.456,1.456,0,0,1-.638-0.05,1.157,1.157,0,0,0-.245.6,0.182,0.182,0,0,1,.049.1h0.982a1.6,1.6,0,0,0,.687.05,2.632,2.632,0,0,0,.883.95,1.077,1.077,0,0,0,.442-0.1,4.8,4.8,0,0,0,.589.15,1.672,1.672,0,0,0,.049-0.5h0.147v0.5l0.883,0.1c0.3-.492.957-0.232,1.472-0.2-0.042.3-.194,0.4-0.245,0.7a1.186,1.186,0,0,1,.54.75,2.623,2.623,0,0,0-.54,1H29.6a5.481,5.481,0,0,1,1.472-.25c0.623-.157,1.383-0.243,2.012-0.4l0.589-.05a2.129,2.129,0,0,1,.883-0.35L34.6,22.5a2.082,2.082,0,0,1,.147,1,0.64,0.64,0,0,1-.393.1,2.176,2.176,0,0,0-1.325,0c-1.209.31-2.541,0.435-3.779,0.7-0.576,1.23-2.038,1.848-3.092,2.6a6.043,6.043,0,0,1-1.472,1l-1.227.05H6.969a8.946,8.946,0,0,1-2.209-.05c-0.9-.27-1.821-1.681-2.356-2.4-0.152-.2-0.552-0.265-0.638-0.45H1.816V25l0.147,0.05L1.276,24.2a0.431,0.431,0,0,1-.294.15c-0.042-.058-0.1-0.145-0.147-0.2a0.5,0.5,0,0,1-.54.25,0.684,0.684,0,0,1-.245-0.7,0.734,0.734,0,0,1,.589-0.15L0.883,23.7V23.55a0.182,0.182,0,0,1-.049-0.1A1.059,1.059,0,0,1,.1,22.5V21.85C0.04,21.689,0,21.821,0,21.6c0.365-.121.465-0.5,0.834-0.6a5.06,5.06,0,0,1,.049-1.35,1.254,1.254,0,0,0,.245.1,0.34,0.34,0,0,1,.049-0.3H1.08a0.412,0.412,0,0,1-.344.1V19.4h0.1a6.742,6.742,0,0,1,1.816-.35c0.065,0.2.13,0.2,0.393,0.2,0.534-.355,1.6.007,2.258-0.2a7.831,7.831,0,0,1,2.061,0H7.951c0.365,0.1,1.35.571,1.62,0.1-0.056-.006-1.227-0.4-1.227-0.4v-0.2a2.362,2.362,0,0,1-1.325-.7,0.952,0.952,0,0,1-.589.1A0.141,0.141,0,0,0,6.38,17.9a3.708,3.708,0,0,1,.147-2.15,1.125,1.125,0,0,0,.54.1V15.6H7.656v0.1a0.258,0.258,0,0,1,.049.15H7.853c0.067-.019-0.009-0.012.049-0.05A1.133,1.133,0,0,0,8,15.65a2.116,2.116,0,0,1,.933.05V15.25a2.612,2.612,0,0,0,.049-0.95,15.133,15.133,0,0,1,.049-3.05v4.2c0.412-.139,1.1.4,1.571,0.45,0.1-1.535.049-3.282,0.049-4.9h0.1v4.7A0.342,0.342,0,0,1,10.8,15.9Zm5.5-1.7c0.041,0.162-.024.076,0.1,0.15v-0.1h0.049V14.2H16.295Zm-0.393.15c0.061,0.078.031,0.026,0,.1a0.326,0.326,0,0,1-.2.05V14.45A0.194,0.194,0,0,0,15.9,14.35Zm1.325,0.85a0.39,0.39,0,0,1,.294.15v-0.6h-0.2c-0.041.162,0.024,0.076-.1,0.15l0.049-.1H17.227c-0.05.068-.032-0.014-0.147-0.05v0.1H17.031V14.9c0.159,0.041.075-.024,0.147,0.1A0.342,0.342,0,0,1,17.227,15.2Zm-0.54-.35a0.176,0.176,0,0,0,.1.05A0.176,0.176,0,0,0,16.687,14.85Zm4.859,0.25a1.084,1.084,0,0,0,.736,0H21.546Zm-0.245.1v0.1h0.147V15.2H21.3Zm1.423,0.15a0.574,0.574,0,0,0,.491,0H22.724Zm-5.153.05a0.194,0.194,0,0,0,.245,0H17.571Zm4.761,0.25a2.02,2.02,0,0,0,.834-0.05,1.607,1.607,0,0,1-.834-0.1v0.15ZM23.9,15.5c0.041,0.162-.024.076,0.1,0.15V15.5H23.9Zm-14.871.1v0.45h0.1c-0.018-.148-0.1-0.1.049-0.2a0.418,0.418,0,0,0,.245.05V15.85A0.988,0.988,0,0,0,9.031,15.6Zm15.951,0a2.164,2.164,0,0,1,.883.05A2.166,2.166,0,0,1,24.982,15.6Zm-7.951.3a3.258,3.258,0,0,0,.491,0,0.193,0.193,0,0,0,.1-0.15h0.049V15.7H17.62a0.523,0.523,0,0,0-.294-0.05,1.814,1.814,0,0,1-.294.1V15.9Zm-10.012,0V16H7.067A0.172,0.172,0,0,0,7.018,15.9ZM18.16,16c0.084,0.044.063,0.044,0.147,0H18.16Zm4.466,0.1a0.536,0.536,0,0,0,.049.3A0.536,0.536,0,0,0,22.626,16.1Zm-2.258.3a0.245,0.245,0,0,0,.049.15V16.4H20.368Zm2.258,0.1-0.049.25h0.049V16.8h0.1V16.75C22.69,16.7,22.661,16.55,22.626,16.5Zm-0.393.25v0.1h0.049v-0.1H22.233Zm1.129,0.95v0.1h0.049V17.7H23.362ZM9.669,19.35a0.245,0.245,0,0,0,.049.15,0.758,0.758,0,0,0,.638.1A1.979,1.979,0,0,1,9.669,19.35Zm0.393,0a0.2,0.2,0,0,0,.2.1V19.4A0.615,0.615,0,0,1,10.061,19.35Zm-8.589.05c-0.042.032-.154,0.067-0.2,0.1H1.521c0.038-.034.11-0.066,0.147-0.1h-0.2ZM10.5,19.6a0.141,0.141,0,0,0,.2,0H10.5ZM28.614,21a0.176,0.176,0,0,1-.1.05V21.1h0.1a0.626,0.626,0,0,1,.589.05,1.141,1.141,0,0,0-.393.05l0.049,0.15a0.417,0.417,0,0,1,.295.05,1.079,1.079,0,0,1,.1-0.25c0.127,0.042.138,0.043,0.294,0.1l0.049-.2H29.252A1.454,1.454,0,0,0,28.614,21Zm5.693,1.4a0.488,0.488,0,0,1-.245.15V22.6h0.2a1.712,1.712,0,0,1,.245-0.15V22.4h-0.2Zm0.2,0.95a0.524,0.524,0,0,1-.295.05v0.05h0.1a0.206,0.206,0,0,0,.245.05h0.1A1.22,1.22,0,0,0,34.5,23.35Zm-34.16.45a0.8,0.8,0,0,0-.049.25,0.759,0.759,0,0,0,.245.05,0.718,0.718,0,0,0,.049-0.2A0.515,0.515,0,0,0,.344,23.8Zm2.4,0.7a9.112,9.112,0,0,1,1.08,1.1H3.877V25.55a0.77,0.77,0,0,0,.147-0.4A3.922,3.922,0,0,0,2.748,24.5ZM26.9,25.05a3.044,3.044,0,0,0-.245.35h0.1a0.672,0.672,0,0,1,.393-0.25V25.1Zm-1.276.75v0.25h0.049a1.662,1.662,0,0,1,.589-0.35V25.65A1.681,1.681,0,0,1,25.62,25.8Zm-18.356,0a1.848,1.848,0,0,1-.491,1.3H8V27.05a1.289,1.289,0,0,1-.491-1.25H7.264Zm3.681,0a1.884,1.884,0,0,1-.491,1.3h1.178V27.05a1.437,1.437,0,0,1-.442-1.25H10.945Zm3.632,0a1.785,1.785,0,0,1-.442,1.3h1.178V27.05a1.413,1.413,0,0,1-.442-1.25H14.577Zm3.681,0a1.82,1.82,0,0,1-.442,1.3h1.178V27.05a1.373,1.373,0,0,1-.442-0.7,2.682,2.682,0,0,0-.049-0.5A0.418,0.418,0,0,0,18.258,25.8Zm3.681,0a1.86,1.86,0,0,1-.442,1.3h1.178V27.05a1.452,1.452,0,0,1-.491-1.25H21.939Z" transform="translate(0 0.5)"/>
</svg>
