<svg xmlns="http://www.w3.org/2000/svg" width="40" height="40" viewBox="0 0 40 40">
  <defs>
    <style>
      .cls-1 {
        fill: #fff;
        fill-rule: evenodd;
      }
    </style>
  </defs>
  <path id="Color_Fill_1" data-name="Color Fill 1" class="cls-1" d="M16.929,14.281a5.108,5.108,0,0,1-.1-0.6h0.484l-0.048.6c0.824,0,1.22-.033,1.935-0.05a0.741,0.741,0,0,0,.677.547,0.743,0.743,0,0,0,.677.149V14.778h0.1a1.889,1.889,0,0,1,.919-0.05,1.372,1.372,0,0,1,.1.2l0.967-.05c0.071,0.014.245,0.079,0.339,0.1v0.1c-0.424.031-.805,0-1.306,0v0.249H21.62v0.05a1.405,1.405,0,0,0-.629.05,0.675,0.675,0,0,0-.048.348,0.848,0.848,0,0,1,.193.4,0.291,0.291,0,0,0,.29.05,0.6,0.6,0,0,1,.29-0.348,0.553,0.553,0,0,1,.435,0,1.863,1.863,0,0,1,.145.7,4.605,4.605,0,0,1,.629.1l0.1,0.2,0.435-.149a2.579,2.579,0,0,1,.532-0.05l0.145,0.2c0.3,0.12.574-.265,0.677,0.4a2,2,0,0,0-.29.4h0.193a0.625,0.625,0,0,0,.339.05v0.2l0.435,0.05v0.2a0.5,0.5,0,0,0-.29.05,9.046,9.046,0,0,1,1.741.149H35.26a0.245,0.245,0,0,1,.048-0.149,3.683,3.683,0,0,0,1.354.05c1.167,0,1.986.057,3.047,0a0.889,0.889,0,0,1,.242.3A0.673,0.673,0,0,1,40,18.9a3.248,3.248,0,0,0-.387.3,2.4,2.4,0,0,0-1.258-.1c-0.055.022,0.04,0.1-.1,0.1a17.541,17.541,0,0,0-3,0V19.053H27.279a13.268,13.268,0,0,1-1.79.447,3.489,3.489,0,0,0,.194.895h0.048a1.567,1.567,0,0,1,.871-0.447v0.1c-0.122.073-.088,0.062-0.1,0.248a2.907,2.907,0,0,0,.822.05v0.2h0.29a0.613,0.613,0,0,1,.435-0.3,1.378,1.378,0,0,0,.1.547,3.867,3.867,0,0,0,1.354,0c0.023-.18.013-0.181,0.145-0.248a1.059,1.059,0,0,1,.726.149v0.149H30.036v0.3a1.613,1.613,0,0,1,1.79,1.591H31.294a0.822,0.822,0,0,1-.242.646v0.5a2.923,2.923,0,0,1-.29.845,7.513,7.513,0,0,1-2.273,1.69,9.676,9.676,0,0,1-2.467,1.541L24.668,28H8.755l-1.886-.05A11.927,11.927,0,0,1,4.3,26.26a5.868,5.868,0,0,0-.919-0.746,2.862,2.862,0,0,0-.484.05l-0.048-.1H2.9a0.488,0.488,0,0,0,.242-0.149,10.027,10.027,0,0,1-1.016-.746,2.166,2.166,0,0,1-.387-0.05c-0.051-.025-0.009-0.107-0.048-0.05-0.489.326-.929,0.062-0.774-0.6,0.3-.123.528-0.064,0.532-0.447a1.077,1.077,0,0,1,0-.646H0.967l-0.048-.646H0.726a1.268,1.268,0,0,0-.242-0.5l0.048-.2c-0.17-.28-0.523.036-0.532-0.646a0.358,0.358,0,0,0,.1-0.2,1.45,1.45,0,0,1,.532-0.1,1.043,1.043,0,0,0,.967,0V20.3a0.865,0.865,0,0,1,.29-0.05,0.139,0.139,0,0,1,.048-0.05c0.058,0.216.118,0.209,0.387,0.2a1.155,1.155,0,0,1,.435-0.1v0.149a0.306,0.306,0,0,0,.193-0.05,0.164,0.164,0,0,1-.1-0.05,0.938,0.938,0,0,1,.339.05v-0.05c0.011-.048.166-0.229,0.242-0.4H3.482c0.007,0.187-.023.175,0.1,0.249,0.036,0.043.061,0.056,0.1,0.1a6.814,6.814,0,0,1,3.1-.447,0.5,0.5,0,0,1-.1.248H7.11v-0.05A0.306,0.306,0,0,1,6.917,20a0.343,0.343,0,0,1-.048-0.2l3.773-.248a3.788,3.788,0,0,1,.871.547c0.1,0.033.355-.086,0.532-0.05a6.684,6.684,0,0,0,1.548,0A0.611,0.611,0,0,1,13.253,20a0.611,0.611,0,0,0,.339-0.05c-0.822-.311-1.763-0.528-2.612-0.8a2.622,2.622,0,0,1-1.209-.4H9.915V18.605a1.41,1.41,0,0,1-.774-0.5,8.873,8.873,0,0,1,.532-1.889h0.1a7.359,7.359,0,0,0,1.209.05,6.508,6.508,0,0,1,.726-0.5c0.071,0.126.1,0.1,0.29,0.1a3.152,3.152,0,0,0,.048-0.845,2.455,2.455,0,0,0,.048-0.895V11.994A2.445,2.445,0,0,1,12.14,11.1c0,1.584.038,3.419,0.048,4.772a0.652,0.652,0,0,0,.532-0.1h0.1v0.1a1.22,1.22,0,0,0,.58.1v-0.05h0.048a0.687,0.687,0,0,1,.145-0.6c0.007,0.419.093,0.291,0.1,0.646H14.22a0.757,0.757,0,0,0,.1-0.2c-0.2-.054-0.228-0.1-0.242-0.348a0.5,0.5,0,0,1,.242-0.1V12.193A3.364,3.364,0,0,1,14.365,11v4.275h0.1A2.785,2.785,0,0,1,16.929,14.281Zm3.724,0.547a1.392,1.392,0,0,0,.919.1v-0.1H20.653Zm-1.4.895H19.057V15.474a0.23,0.23,0,0,0-.145.05,0.44,0.44,0,0,0-.048.248,0.56,0.56,0,0,0,.29.149,1.363,1.363,0,0,1,.967.05V15.722h0.387a2.308,2.308,0,0,0,.048-0.646C20.052,15.053,19.253,15.213,19.25,15.722Zm1.354-.646v0.6a0.5,0.5,0,0,0,.29.1v-0.4a2.325,2.325,0,0,1,.677-0.05V15.076H20.6Zm1.209,0.895a0.415,0.415,0,0,0-.145.4,1.179,1.179,0,0,0,.387.05A1.094,1.094,0,0,0,22.1,16.07l-0.145-.05A0.242,0.242,0,0,0,21.814,15.971Zm-11.27.348v0.1l0.29,0.05,0.048-.1A1.015,1.015,0,0,0,10.544,16.319Zm-0.725.05v0.1H9.867A0.172,0.172,0,0,0,9.819,16.368Zm0.387,0.2c-0.04-.161.024-0.076-0.1-0.149v0.1H10.061v0.05h0.145Zm29.408,1.79a0.319,0.319,0,0,1-.194.05,0.716,0.716,0,0,0-.145.447,0.443,0.443,0,0,0,.242.149,0.409,0.409,0,0,0,.242.05,0.717,0.717,0,0,0,.193-0.447A1,1,0,0,0,39.613,18.357ZM7.207,20c0.016,0.11-.05.054,0.048,0.1A0.172,0.172,0,0,0,7.207,20Zm0.387,0a0.226,0.226,0,0,0,.242.1V20A0.287,0.287,0,0,1,7.594,20Zm0.484,0v0.1h0.29L8.416,20A0.447,0.447,0,0,1,8.077,20Zm18.235,0.149-0.048.1C26.348,20.176,26.312,20.146,26.312,20.146Zm-19.541.2v0.1H6.82v-0.05H6.868A0.174,0.174,0,0,0,6.771,20.345Zm-4.788.1a0.173,0.173,0,0,0,.1.05A0.173,0.173,0,0,0,1.983,20.444Zm0.193,0a0.173,0.173,0,0,0,.1.05A0.173,0.173,0,0,0,2.177,20.444Zm-1.79.2a0.41,0.41,0,0,0-.193.4,0.512,0.512,0,0,0,.339.149,0.417,0.417,0,0,0,.1-0.149,0.44,0.44,0,0,0,.048-0.248A0.989,0.989,0,0,0,.387,20.643Zm28.924,0.248a0.172,0.172,0,0,0,.1.05A0.173,0.173,0,0,0,29.311,20.892ZM1.5,22.433v0.1H1.548v-0.1H1.5Zm-0.29,1.591a0.8,0.8,0,0,0-.048.248,0.739,0.739,0,0,0,.242.05,0.8,0.8,0,0,0,.048-0.248h-0.1A0.242,0.242,0,0,0,1.209,24.023Zm2.757,0.8v0.1l0.145,0.05v-0.1Zm1.451,0.845a0.875,0.875,0,0,0-.145.2H5.32L5.9,26.31v-0.2a0.44,0.44,0,0,1-.048-0.248A1.443,1.443,0,0,0,5.417,25.664ZM8.9,26.012a2.345,2.345,0,0,1-.435,1.094H8.513a5.749,5.749,0,0,1,1.838,0v-0.1a1.236,1.236,0,0,1-.435-0.994H8.9Zm4.063,0a2.189,2.189,0,0,1-.484,1.094h0.1a2.931,2.931,0,0,1,1.4,0v-0.05a1.505,1.505,0,0,1-.484-1.044H12.963Zm3.579,0a2.544,2.544,0,0,1-.435,1.094h0.048a2.677,2.677,0,0,1,1.306,0v-0.1C16.932,26.724,17.338,26.005,16.542,26.012Zm3.483,0a2.345,2.345,0,0,1-.435,1.094h0.048a2.689,2.689,0,0,1,1.354,0v-0.1a1.236,1.236,0,0,1-.435-0.994H20.024Zm3.579,0a2.189,2.189,0,0,1-.484,1.094h0.1a2.564,2.564,0,0,1,1.306,0v-0.1a1.259,1.259,0,0,1-.435-0.994H23.6Zm3.531,0-0.048.248h0.1a0.5,0.5,0,0,1,.29-0.2v-0.05H27.134Z" transform="translate(0 0.5)"/>
</svg>
