<?xml version="1.0" encoding="utf-8"?>
<!-- Generator: Adobe Illustrator 16.0.0, SVG Export Plug-In . SVG Version: 6.00 Build 0)  -->
<!DOCTYPE svg PUBLIC "-//W3C//DTD SVG 1.1//EN" "http://www.w3.org/Graphics/SVG/1.1/DTD/svg11.dtd">
<svg version="1.1" id="Layer_1" xmlns="http://www.w3.org/2000/svg" xmlns:xlink="http://www.w3.org/1999/xlink" x="0px" y="0px"
	 width="40px" height="40px" viewBox="0 0 40 40" enable-background="new 0 0 40 40" xml:space="preserve">
<path id="Color_Fill_1" fill="#FFFFFF" d="M0.927,15.125c0.114-0.005,0.228,0.009,0.337,0.042c-0.102,0.309-0.13,0.637-0.084,0.958
	C1.816,16.134,2.046,16.017,2.655,16L2.7,15.5c0.701-0.05,1.404-0.064,2.107-0.042v0.208l1.855-0.083v0.208
	c0.614-0.012,0.946-0.038,1.517-0.042c0.148-0.162,0.319-0.302,0.506-0.417h0.04v-0.04H8.388C7.991,15.17,7.581,15.1,7.166,15.084
	c-0.775-0.198-1.564-0.337-2.36-0.417c-0.038-0.334-0.159-0.693-0.211-1c-0.002-0.32,0.012-0.64,0.042-0.958
	c0.552-0.012,0.914-0.08,1.517-0.083v-0.209c0.032-0.004,0.062-0.019,0.084-0.042c0.07,0.014,0.142,0.014,0.211,0
	c0.056,0.2,0.166,0.182,0.422,0.167c0.278,0.061,0.565,0.061,0.843,0l2.234-0.083v-0.876c0.347-0.058,0.701-0.072,1.052-0.041h2.318
	c0.254-0.101,0.531-0.129,0.8-0.083c0.153,0.286,0.255,0.596,0.3,0.917c1.062,0.019,2.736-0.051,3.414,0.5
	c-0.036,0.078-0.02,0.031,0,0.125h0.042c0-0.132-0.071-0.056,0.042-0.125c0.023,0.022,0.052,0.037,0.084,0.042
	c0.006,0.24,0.064,0.279,0.295,0.292c0.3,0.183,1.64-0.025,2.065,0.125c0.066,0.023,0.129,0.142,0.21,0.167h2.867l5.311,0.083
	c0.157-0.078,0.33-0.121,0.506-0.125c0.035,0.136,0.05,0.277,0.042,0.417c-0.138,0.035-0.28,0.05-0.422,0.042
	c-0.274-0.135-0.584-0.179-0.885-0.125c-0.665,0-1.425,0.042-2.15,0.042l-3.33,0.042c-0.721-0.055-1.446,0.001-2.15,0.167
	l-1.686,0.083c-0.499,0.34-1.02,0.646-1.56,0.917v0.042c0.341,0.054,0.127,0.316,0.464,0.375c0.019-0.124,0.019-0.25,0-0.375
	c0.1-0.038,0.067-0.045,0.169-0.083c0.445-0.172,0.915-0.271,1.391-0.292l0.084,0.375c0.208-0.042,0.419-0.072,0.632-0.087
	c0.101,0.063,0.219,0.092,0.337,0.083c0,0.201-0.043,0.4-0.127,0.583c0.1,0.051,0.065,0.074,0.169,0.125
	c0.036,0,0.037-0.02,0.169-0.042v-0.332c0.113-0.144,0.282-0.234,0.464-0.25v-0.334c0.045,0,1.049-0.005,1.054,0
	c0.097,0.163,0.126,0.357,0.084,0.542c-0.05,0.147-0.063,0.304-0.042,0.458c0.482,0,0.811,0,1.264,0v-0.166h0.043
	c0.236,0.066,0.488,0.052,0.715-0.042v0.167h0.084v0.042h0.043c0.09-0.317,0.701-0.225,1.101-0.208
	c0.091,0.121,0.229,0.196,0.379,0.208c0.031,0.05,0.046,0.108,0.042,0.167h-0.046v0.042c-0.083-0.021-0.17-0.021-0.253,0v0.083
	h0.042c0.519,0.202,1.054,0.355,1.601,0.458c0.153,0.025,0.131-0.119,0.252-0.083c0.059,0.017,0.125,0.176,0.211,0.208
	c0.445,0.121,0.896,0.218,1.351,0.291c0.101,0.025,0.305,0.141,0.422,0.167l0.421-0.042c0.2,0.061,0.443,0.244,0.674,0.333
	c0-0.045,0.015-0.089,0.043-0.125c0.213,0.387,1.633,0.369,1.899,0.375c0.05,0.05,0.106,0.092,0.169,0.125v0.042h-0.045
	C32.33,17.975,32.4,17.982,32.54,18c0.204,0.086,0.416,0.155,0.632,0.208v-2.083h0.042c0,0.645,0.054,1.506,0.042,2.083
	c0.055,0.022,0.111,0.036,0.169,0.042c0.036-0.051,0.064-0.107,0.084-0.167c0.102,0.107,0.234,0.18,0.38,0.208V18.25
	c-0.121-0.047-0.078-0.007-0.127-0.125H33.8v-0.042l0.127,0.042v-0.042c-0.1-0.054-0.028,0.019-0.084-0.083
	c0.2-0.009,0.14-1.432,0.126-1.833h0.042v1.958c0.063,0.053,0.135,0.095,0.212,0.125c0.045-0.137,0.063-0.128,0.125-0.125h0.043
	c-0.045,0.039-0.088,0.081-0.127,0.125h0.047c0.072-0.055,0.067-0.072,0.125-0.042c0.095,0.058,0.168,0.209,0.254,0.25
	c0.193,0.092,0.084-0.13,0.211,0.042c0.199,0.109,0.086,0.251,0.125,0.333c0.211,0.138,0.438,0.25,0.675,0.333
	c0.356,0.184,0.719,0.4,1.1,0.583l0.042,0.583c0.164,0.035,0.313,0.123,0.422,0.25c0.122,0.08,0.293,0.041,0.422,0.125
	c0.367,0.23,0.747,0.439,1.139,0.625c-0.008-0.072,0.006-0.145,0.042-0.208v0.25h0.169c-0.028-0.149-0.083-0.117-0.042-0.208
	l0.042-0.125c0.314,0.078,0.089,0.03,0.379-0.042c0.026,0.091,0.069,0.175,0.127,0.25l0.126-0.042
	c-0.001-0.045,0.015-0.09,0.042-0.125c0.023,0.022,0.053,0.037,0.084,0.042c0.083,0.204,0.152,0.413,0.207,0.626
	c-0.163,0.1-0.1,0.168-0.084,0.417c-0.203,0.066-0.4,0.149-0.59,0.25c-0.289-0.435-0.708,0.041-0.969,0.042
	c-0.064-0.063-0.135-0.119-0.211-0.167c-0.026,0.047-0.073,0.077-0.127,0.083c-0.078-0.247-0.192-0.594-0.3-0.833l-0.464-0.125
	c0.038,0.122,0.038,0.253,0,0.375c-0.059,0.009,0.018-0.034-0.042-0.042c-0.032-0.08-0.042,0.083-0.042,0.083
	c0.049,0.105,0.049,0.228,0,0.333c-0.073,0.012-0.137,0.059-0.169,0.125c0.022,0.022,0.037,0.052,0.042,0.083h-0.164
	c-0.311-0.167-0.635-0.306-0.969-0.417c-0.021,0.086-0.049,0.169-0.084,0.25c-0.031,0.156,0.092,0.169,0.042,0.25l-0.042,0.083
	c-0.081-0.022-0.036-0.067-0.084,0c-0.248,0.073-0.43,0.286-0.464,0.542c-0.215-0.076-0.451,0.035-0.528,0.25
	c-0.01,0.027-0.016,0.055-0.02,0.083c-0.1-0.019-0.201-0.019-0.301,0c-0.107,0.04-0.209,0.097-0.3,0.167
	c0,0.121,0.041,0.059,0,0.125c-0.05,0.031-0.109,0.046-0.169,0.042c-0.027,0.003-0.057,0.003-0.084,0
	c-0.117,0.015-0.225,0.075-0.3,0.167c-0.088,0.118,0.042,0.1-0.084,0.167c-0.101,0.009-0.201,0.022-0.3,0.042
	c-0.16,0.037-0.281,0.17-0.301,0.333c-0.191-0.048-0.395-0.001-0.547,0.125c-0.101,0.121,0.108,0.091-0.084,0.208
	c-0.057,0.025-0.185-0.03-0.212,0c-0.168,0.061-0.294,0.201-0.337,0.375c-0.102,0.013-0.205-0.002-0.3-0.042l-0.3,0.208
	c0.015,0.055,0.015,0.112,0,0.167c-0.102,0.002-0.203-0.013-0.301-0.042c-0.072,0.09-0.18,0.118-0.252,0.208
	c-0.101,0.144,0.066,0.134-0.17,0.167c-0.207-0.051-0.424-0.051-0.632,0c-0.013,0.073-0.06,0.136-0.127,0.167
	c-0.1-0.094-0.015-0.046-0.169-0.042v-0.124h-0.382c0.004,0.079-0.05,0.149-0.126,0.167c-0.146-0.139-0.35-0.199-0.548-0.167
	c-0.013,0.073-0.06,0.136-0.126,0.167c-0.1-0.094-0.016-0.046-0.169-0.042v-0.125h-0.423c-0.004,0.058-0.019,0.114-0.041,0.167
	c-0.068-0.025-0.139-0.039-0.211-0.042v-0.125h-0.422c-0.012,0.073-0.059,0.136-0.125,0.167c-0.051-0.031-0.11-0.046-0.17-0.042
	v-0.125H26.3c-0.005,0.058-0.019,0.114-0.042,0.167c-0.067-0.025-0.139-0.039-0.211-0.042v-0.125h-0.42
	c0.004,0.079-0.05,0.149-0.127,0.167c-0.037-0.027-0.08-0.041-0.126-0.042v-0.125h-0.421c-0.013,0.073-0.061,0.136-0.127,0.167
	c-0.1-0.094-0.016-0.046-0.169-0.042v-0.125h-0.421c0.004,0.079-0.049,0.149-0.127,0.167c-0.036-0.027-0.08-0.042-0.127-0.042
	v-0.125h-0.42c-0.013,0.073-0.06,0.136-0.127,0.167c-0.051-0.031-0.109-0.046-0.168-0.042v-0.125h-0.423
	c0.004,0.079-0.05,0.149-0.127,0.167c-0.036-0.027-0.081-0.041-0.126-0.042v-0.125h-0.421c-0.013,0.073-0.06,0.136-0.126,0.167
	c-0.037-0.027-0.081-0.042-0.127-0.042v-0.125h-0.464c-0.005,0.058-0.019,0.114-0.042,0.167L21.2,25.958v-0.125h-0.42
	c-0.013,0.073-0.06,0.136-0.128,0.167c-0.036-0.027-0.08-0.041-0.125-0.042v-0.125h-0.464c-0.005,0.058-0.019,0.114-0.042,0.167
	c-0.068-0.025-0.139-0.039-0.211-0.042v-0.125h-0.421c-0.012,0.073-0.06,0.136-0.126,0.167c-0.037-0.027-0.082-0.042-0.127-0.042
	v-0.125h-0.464v0.125h-0.21v-0.125c-0.242,0.02-0.481,0.062-0.716,0.125v-0.125h-0.465v0.125h-0.21v-0.125
	c-0.242,0.021-0.481,0.063-0.716,0.125v-0.125H15.89v0.125h-0.21v-0.125h-0.464v0.125h-0.211v-0.125
	c-0.242,0.021-0.482,0.063-0.717,0.125v-0.125h-0.463v0.125h-0.211v-0.125c-0.242,0.021-0.481,0.063-0.716,0.125v-0.125
	c-0.228,0.022-0.453,0.064-0.674,0.125v-0.125c-0.229,0.012-0.456,0.054-0.674,0.125v-0.125c-0.242,0.021-0.481,0.063-0.716,0.125
	v-0.125c-0.229,0.019-0.454,0.06-0.674,0.125v-0.125c-0.242,0.021-0.482,0.063-0.717,0.125v-0.125
	c-0.228,0.022-0.453,0.064-0.674,0.125v-0.125c-0.229,0.019-0.455,0.06-0.674,0.125v-0.125l-0.506-0.042
	c-0.072,0.036,0.037,0.081-0.169,0.125c-0.05-0.049-0.092-0.105-0.126-0.167h0.04v-0.041c-0.236-0.034-0.261-0.137-0.506-0.167
	v0.083H6.744v-0.041c-0.163-0.149-0.022-0.108-0.084-0.208c-0.106-0.078-0.219-0.148-0.337-0.208
	c-0.057,0.053-0.139,0.069-0.211,0.042c-0.031-0.05-0.045-0.108-0.042-0.167l-0.3-0.208c-0.099,0.021-0.199,0.035-0.3,0.042
	c-0.044-0.183-0.167-0.336-0.337-0.417c-0.075,0.047-0.166,0.063-0.253,0.042c-0.089-0.261-0.366-0.407-0.632-0.333
	c-0.042-0.182-0.162-0.334-0.328-0.418c-0.095,0.038-0.198,0.053-0.3,0.042c-0.045-0.183-0.168-0.335-0.337-0.417
	c-0.067,0.035-0.138,0.063-0.211,0.083v-0.083c-0.023-0.234-0.146-0.446-0.337-0.583c-0.054-0.022-0.111-0.036-0.169-0.042
	c0.014-0.236,0-0.475-0.042-0.708c-0.054-0.118-0.091,0.032-0.126-0.208c-0.617,0-1.367-0.018-1.855,0c0.032-1.236,0-2.513,0-3.792
	H0.421c-0.001-0.224,0.013-0.446,0.042-0.667c-0.104-0.121-0.262-0.184-0.421-0.167C0.043,17.023,0,16.5,0,16.5
	c0.037-0.027,0.081-0.042,0.126-0.042c0.011-0.295,0.053-0.589,0.126-0.875V8.542C0.222,8.305,0.238,8.064,0.3,7.833v5.625
	c-0.069,0.708-0.055,1.421,0.042,2.125c0.087-2.029,0.041-4.235,0.042-6.333c0.095-1.081,0.095-2.169,0-3.25h0.08v8.833h0.084V6.375
	c0.039-0.107,0.039-0.226,0-0.333h0.084v8.792c0.231,0.389-0.128,1.04,0.211,1.25v-0.042c-0.107-0.179,0.082-0.545,0-0.833H0.759
	c-0.066-0.055,0.084-0.042,0.084-0.042v-3.709c-0.046-0.472-0.032-0.948,0.042-1.417C0.883,11.728,0.9,13.507,0.927,15.125z
	 M0.843,8C0.865,8.022,0.88,8.052,0.885,8.083H0.843V8z M28.915,13.5l-0.042,0.125h0.084C28.957,13.58,28.943,13.536,28.915,13.5z
	 M29.084,13.5c0.035,0.135-0.021,0.064,0.084,0.125V13.5H29.084L29.084,13.5z M28.873,13.75l0.042,0.125h0.042V13.75H28.873z
	 M29.084,13.75c0.035,0.135-0.021,0.064,0.084,0.125V13.75H29.084L29.084,13.75z M19.474,14.875
	c0.022,0.022,0.037,0.052,0.042,0.083h-0.043L19.474,14.875L19.474,14.875z M19.853,14.958h0.084V15
	C19.905,14.996,19.875,14.981,19.853,14.958z M20.953,15.041c-0.018,0.126-0.004,0.256,0.042,0.375c0.017-0.127,0-0.255-0.047-0.374
	L20.953,15.041z M16.232,15.666c0.137-0.034,0.064,0.02,0.127-0.083h-0.131v-0.416l-1.18,0.125v0.125
	c0.022,0.022,0.037,0.052,0.042,0.083c0.6,0.01,0.282,0.325,0.927,0.333c0.05-0.065,0.14-0.083,0.211-0.042v-0.124L16.232,15.666z
	 M21.121,15.416c-0.023,0.022-0.053,0.037-0.084,0.042V15.5h0.716v-0.042c-0.209-0.043-0.423-0.057-0.636-0.041L21.121,15.416z
	 M18.929,15.458c-0.086,0.039-0.149,0.116-0.169,0.208c0.1,0.051,0.065,0.074,0.169,0.125c0.041-0.107,0.069-0.219,0.084-0.333
	h-0.088H18.929z M20.994,15.791c0.135,0.075,0.303,0.059,0.421-0.042h-0.129c-0.048,0.044-0.122,0.044-0.169,0
	c0.104-0.001,0.205-0.03,0.295-0.083c-0.14,0.022-0.281,0.022-0.421,0v0.125H20.994z M21.668,15.791
	c0-0.045-0.014-0.089-0.042-0.125c-0.036,0.027-0.133,0.056-0.169,0.083h0.084c0.036,0.027,0.079,0.042,0.124,0.043L21.668,15.791z
	 M0.3,15.708c-0.005,0.059,0.01,0.117,0.042,0.167C0.347,15.816,0.332,15.757,0.3,15.708z M23.52,15.792
	c0.063,0.049,0.149,0.049,0.211,0H23.52z M33,17.917c0.045-0.001,0.09,0.015,0.126,0.042C33.08,17.959,33.036,17.944,33,17.917z
	 M32.958,17.959c0.022,0.022,0.037,0.052,0.042,0.083h-0.039v-0.084L32.958,17.959z M33.3,18c0.06-0.005,0.119,0.01,0.169,0.042
	C33.41,18.047,33.35,18.032,33.3,18z M34.227,18.292c-0.014,0.058,0.061,0.06,0.084,0.083C34.339,18.331,34.236,18.3,34.227,18.292
	L34.227,18.292z M37.22,20.792v0.042h-0.044c-0.081,0.032,0.084,0.042,0.084,0.042c-0.004-0.032-0.019-0.062-0.042-0.084H37.22z
	 M37.473,20.917V21h0.043c-0.006-0.031-0.021-0.061-0.045-0.083H37.473z M37.134,21c0.035,0.135-0.021,0.064,0.084,0.125V21H37.134z
	 M37.345,21.042v0.083l0.169,0.042v-0.084C37.455,21.09,37.395,21.074,37.345,21.042z M37.809,21.084l-0.041,0.125h0.041v-0.042
	C37.861,21.1,37.835,21.145,37.809,21.084L37.809,21.084z M39.2,21.167v0.083h0.042v-0.042h0.042
	C39.261,21.186,39.231,21.172,39.2,21.167z M39.622,21.25l-0.042,0.125h0.042v-0.083C39.631,21.251,39.654,21.275,39.622,21.25
	L39.622,21.25z M37.009,21.375v0.083l0.126-0.042v-0.041h-0.128H37.009z M36.882,21.458c-0.001,0.045,0.015,0.089,0.042,0.125
	C36.924,21.537,36.909,21.494,36.882,21.458L36.882,21.458z M39.2,21.458c0.069,0.046,0.045,0.074,0.084,0H39.2z M37.093,21.5v0.083
	c0.101,0.054,0.029-0.019,0.084,0.083h0.042v-0.124L37.093,21.5z M39.58,21.542v0.083h0.042v-0.042h0.042
	C39.641,21.561,39.611,21.547,39.58,21.542L39.58,21.542z M39.791,21.542c0.07,0.047,0.045,0.074,0.084,0h-0.086H39.791z
	 M36.967,21.584c-0.049,0.156-0.076,0.3-0.126,0.5h0.042v0.042h0.042c0.028-0.161,0.086-0.316,0.169-0.458
	c-0.049-0.018-0.093-0.047-0.129-0.085L36.967,21.584z M37.852,21.584v0.083h0.127v-0.084H37.85L37.852,21.584z M38.23,21.626
	c-0.036,0.035-0.064,0.077-0.084,0.125h0.043c0.022,0.022,0.052,0.037,0.084,0.042C38.277,21.734,38.263,21.675,38.23,21.626
	L38.23,21.626z M38.531,21.626c0.039,0.192,0.039,0.391,0,0.583h0.084c0.02-0.141,0.049-0.279,0.084-0.417
	c-0.045-0.046-0.074-0.104-0.084-0.167h-0.09L38.531,21.626z M38.025,21.668c-0.033,0.099-0.018,0.207,0.041,0.292
	c0.051,0.049,0.107,0.091,0.17,0.125V22c-0.101-0.093-0.137-0.23-0.217-0.333L38.025,21.668z M38.868,21.71
	c0.021,0.136,0.098,0.256,0.211,0.333c-0.038-0.131-0.114-0.246-0.218-0.335L38.868,21.71z M39.121,21.71
	c0.035,0.066,0.063,0.136,0.084,0.208c0.022-0.022,0.037-0.052,0.042-0.083c0.047-0.025,0.078-0.072,0.084-0.125h-0.216H39.121z
	 M2.95,21.833l0.042,0.25h0.127v-0.041h0.042v-0.209H2.95z M36.417,21.833c0.038,0.045,0.081,0.087,0.126,0.125
	C36.587,21.907,36.445,21.848,36.417,21.833z M36.717,21.833c0.006,0.054,0.037,0.101,0.084,0.125
	c-0.022-0.046-0.053-0.089-0.089-0.125H36.717z M38.316,21.833c0.041,0.106,0.09,0.2,0.127,0.292h0.043v-0.208L38.316,21.833z
	 M39.329,21.916l0.042,0.125h0.039c-0.006-0.053-0.037-0.1-0.084-0.124L39.329,21.916z M37.011,21.958l0.042,0.125h0.042v-0.041
	h0.042c-0.038-0.034-0.082-0.063-0.13-0.084H37.011z M39.119,21.958C39.141,21.98,39.17,21.994,39.2,22
	c-0.023-0.022-0.054-0.037-0.085-0.042H39.119z M38.693,22v0.167h0.084c0.01,0.018,0.024,0.032,0.041,0.042v-0.084
	C38.789,22.072,38.746,22.029,38.693,22z M39.705,22l0.042,0.125h0.042v-0.042h0.042v-0.041C39.712,22.041,39.814,22.075,39.705,22z
	 M35.49,22.042l-0.042,0.208h0.042v-0.083C35.527,22.1,35.527,22.113,35.49,22.042z M38.02,22.042
	c-0.027,0.085-0.012,0.179,0.041,0.25H38.1V22.25h0.043C38.115,22.173,38.074,22.103,38.02,22.042z M39.452,22.084v0.042H39.41
	c-0.081,0.032,0.084,0.042,0.084,0.042c0.01-0.018,0.024-0.031,0.042-0.042C39.514,22.104,39.484,22.088,39.452,22.084
	L39.452,22.084z M36.67,22.126c0.023,0.022,0.053,0.037,0.084,0.042C36.731,22.145,36.701,22.13,36.67,22.126L36.67,22.126z
	 M38.314,22.168v0.167h0.041v0.042h0.084v-0.044C38.32,22.262,38.457,22.261,38.314,22.168L38.314,22.168z M39.283,22.21
	l0.042,0.125h0.042c-0.004-0.054-0.035-0.102-0.083-0.127L39.283,22.21z M3.076,22.377c0.057,0.141,0.033,0.172,0.211,0.208
	c0.064-0.04,0.146-0.04,0.211,0c-0.108-0.122-0.259-0.197-0.421-0.21L3.076,22.377z M35.152,22.5l-0.041,0.083
	C35.184,22.525,35.152,22.5,35.152,22.5z M5.142,22.542c-0.038,0.034-0.08,0.062-0.126,0.083v0.083
	c0.068,0.042,0.126,0.099,0.169,0.167c0.032-0.004,0.062-0.02,0.084-0.042c0.073-0.012,0.136-0.058,0.169-0.125L5.142,22.542z
	 M3.542,22.709l-0.084,0.167h0.083l0.084-0.125L3.542,22.709z M4.849,22.709c-0.071,0.064-0.159,0.108-0.253,0.125v0.042h0.251
	c0.022-0.093,0.048-0.084,0-0.168L4.849,22.709z M33.384,22.792c-0.05,0.051-0.255,0.161-0.169,0.208v0.042
	c0.122-0.033,0.219-0.128,0.253-0.25H33.384L33.384,22.792z M3.669,22.834l-0.042,0.083c0.073-0.06,0.04-0.084,0.04-0.084
	L3.669,22.834z M5.65,22.834c-0.118,0.109-0.3,0.145-0.421,0.25c-0.055,0.047-0.075,0.156-0.126,0.208
	c0.004,0.032,0.019,0.061,0.042,0.083C5.202,23.459,5.299,23.506,5.4,23.5l0.169-0.25h0.037v0.042
	c0.102,0.016,0.174,0.105,0.169,0.208c-0.064,0.066-0.095,0.158-0.084,0.25c0.082,0.035,0.167,0.063,0.253,0.083
	c0.056-0.09,0.116-0.149,0.169-0.25l0.167,0.084v-0.084c0.077-0.126,0.12-0.27,0.126-0.417c-0.275-0.105-0.481-0.256-0.758-0.333
	L5.65,22.834z M34.313,22.834v0.083c0.044,0.039,0.086,0.081,0.125,0.125c0.074-0.069,0.16-0.126,0.254-0.167v-0.042h-0.381
	L34.313,22.834z M4.552,23v0.083c0.082,0.035,0.167,0.063,0.253,0.083c0.023-0.022,0.052-0.037,0.084-0.042v-0.041
	C4.81,23.057,4.631,23.027,4.552,23z M33.8,23.042c-0.05,0.05-0.092,0.105-0.126,0.167c0.057,0.043,0.1,0.102,0.126,0.167
	c0.106-0.039,0.207-0.095,0.295-0.167C33.895,22.989,34.042,23.158,33.8,23.042z M4,23.167c0.023,0.022,0.052,0.037,0.084,0.042
	C4.061,23.187,4.032,23.172,4,23.167z M4.253,23.375c-0.113-0.001-0.227-0.015-0.337-0.042v0.042h0.046
	c0.057,0.083,0.153,0.131,0.253,0.125c0.027-0.036,0.042-0.08,0.042-0.125H4.253z M33.253,23.375
	c-0.069,0.041-0.127,0.099-0.169,0.167h0.046c0.019,0.06,0.047,0.116,0.084,0.167c0.108-0.039,0.21-0.095,0.3-0.167
	c-0.072-0.074-0.16-0.132-0.258-0.167H33.253z M13.53,25.083l0.042-0.333h0.295v0.292c0.109,0.032,0.223,0.046,0.337,0.042
	l0.042-0.333H14.5l0.042,0.333h0.3c0.032-0.107,0.046-0.221,0.042-0.333h0.3c0,0.112,0.015,0.224,0.042,0.333h0.3V25
	c0.038-0.078,0.053-0.164,0.042-0.25h0.253v-0.083c-0.243-0.354-0.306-0.802-0.169-1.208h-0.309c-0.237,0.363-0.682,0.531-1.1,0.417
	c-0.094,0.119-0.288,0.14-0.379,0.25c-0.097,0.188-0.181,0.384-0.253,0.583c-0.085,0.133-0.246,0.239-0.337,0.375L13.53,25.083
	L13.53,25.083z M4.594,23.5L4.51,23.75c0.138,0.036,0.166,0.084,0.3,0.125v-0.042c0.022-0.022,0.037-0.052,0.042-0.083
	c-0.095-0.1-0.046-0.016-0.042-0.167C4.694,23.552,4.7,23.533,4.594,23.5z M32.876,23.958V23.75h-0.084
	c-0.042,0.003-0.084,0.003-0.126,0l-0.169,0.083l0.042,0.125c0.052,0.036,0.109,0.063,0.169,0.083
	C32.742,23.981,32.809,23.949,32.876,23.958L32.876,23.958z M31.695,23.791c-0.065,0.084-0.147,0.119-0.211,0.208h0.086
	c0.046-0.045,0.105-0.074,0.169-0.083c0.001-0.045-0.013-0.088-0.039-0.124L31.695,23.791z M5.184,23.833
	c-0.024,0.096-0.038,0.193-0.042,0.292c0.085,0.009,0.163,0.055,0.211,0.125c0.024-0.021,0.041-0.051,0.047-0.083
	c0.009-0.083,0.009-0.167,0-0.25C5.325,23.898,5.252,23.87,5.184,23.833z M9.23,25.083h0.338v-0.291
	c0.097-0.03,0.199-0.045,0.3-0.042l0.042,0.333h0.3V25c0.038-0.078,0.052-0.164,0.042-0.25h0.295
	c0.001,0.112,0.015,0.225,0.042,0.333h0.295V25c-0.202-0.178-0.348-0.408-0.421-0.667c-0.001-0.14-0.015-0.28-0.042-0.417
	c-0.094-0.041-0.198-0.056-0.3-0.042c-0.023,0.022-0.052,0.037-0.084,0.042c-0.061,0.105-0.093,0.257-0.169,0.375
	C9.599,24.504,9.381,24.774,9.23,25.083L9.23,25.083z M18.84,25.083l0.042-0.333h0.253v0.042h0.042v0.292h0.337
	c0-0.112,0.015-0.225,0.042-0.333h0.254l0.042,0.333h0.3c0.028-0.08,0.042-0.165,0.042-0.25c-0.202-0.28-0.319-0.613-0.337-0.958
	h-0.468c-0.178,0.097-0.348,0.208-0.506,0.333l-0.084,0.417c-0.064,0.155-0.232,0.237-0.3,0.417h0.042
	C18.636,25.084,18.739,25.098,18.84,25.083L18.84,25.083z M23.141,24.75c0,0.112,0.014,0.225,0.041,0.333h0.295l0.043-0.333h0.295
	v0.292c0.109,0.032,0.223,0.046,0.336,0.042l0.043-0.333h0.252v-0.043c-0.221-0.229-0.367-0.52-0.42-0.833h-0.379
	c-0.109,0.137-0.377,0.191-0.465,0.333c-0.067,0.177-0.123,0.358-0.168,0.542H23.141z M6.24,23.917
	c-0.001,0.045,0.014,0.089,0.042,0.125v-0.125H6.238H6.24z M27.146,25.084h0.295v-0.042h0.041V24.75h0.295
	c0.001,0.112,0.016,0.225,0.043,0.333h0.3c0.016-0.132,0.06-0.261,0.127-0.375c-0.263-0.171-0.331-0.556-0.548-0.667
	c-0.045,0.057-0.103,0.1-0.169,0.125c-0.091,0.32-0.22,0.629-0.386,0.917L27.146,25.084z M32.12,24.042
	c-0.063,0.052-0.135,0.095-0.211,0.125c0.055,0.123,0.1,0.215,0.211,0.167c0.165-0.045,0.162-0.048,0.169-0.25
	c-0.061,0.015-0.124-0.002-0.171-0.042H32.12z M5.776,24.167c-0.023,0.096-0.038,0.193-0.042,0.292
	c0.085,0.009,0.163,0.055,0.211,0.125c0.022-0.023,0.036-0.053,0.04-0.084C6.065,24.419,5.91,24.232,5.776,24.167L5.776,24.167z
	 M31.529,24.375c-0.084,0.054-0.156,0.125-0.211,0.208c0.056,0.044,0.1,0.101,0.125,0.167c0.318-0.15,0.332-0.225,0.084-0.375
	H31.529z M6.366,24.542l-0.084,0.25c0.104,0.028,0.206,0.071,0.3,0.125v-0.084C6.518,24.73,6.445,24.633,6.366,24.542L6.366,24.542z
	 M24.49,25.084h0.21v-0.042c-0.092-0.075-0.177-0.159-0.253-0.25v0.042C24.484,24.911,24.499,24.998,24.49,25.084L24.49,25.084z
	 M15.849,24.834v0.208c0.067,0.025,0.139,0.04,0.211,0.042v-0.042C15.983,24.979,15.912,24.909,15.849,24.834L15.849,24.834z
	 M31.064,24.876L31.021,25h0.043v-0.042C31.117,24.893,31.091,24.938,31.064,24.876L31.064,24.876z M22.805,24.959l-0.043,0.125
	H22.8V25h0.042c0.045-0.042-0.042-0.041-0.042-0.042L22.805,24.959z M28.451,25c0.025,0.047,0.072,0.078,0.126,0.083
	C28.539,25.049,28.497,25.021,28.451,25z M9.526,25.375c0.005,0.058,0.019,0.114,0.042,0.167c0.096-0.039,0.204-0.039,0.3,0
	c-0.022-0.054-0.037-0.109-0.042-0.167H9.526z M10.495,25.375H10.2v0.083c0.022,0.022,0.037,0.052,0.042,0.083
	c0.095-0.037,0.2-0.037,0.295,0c-0.021-0.053-0.033-0.109-0.037-0.166H10.495z M12.982,25.375v0.167h0.084
	c0.023-0.022,0.052-0.037,0.084-0.042v-0.125H12.982z M15.047,25.375l0.042,0.167h0.042v-0.167H15.047z M15.721,25.375
	c0.021,0.059,0.049,0.115,0.084,0.167C15.789,25.393,15.826,25.438,15.721,25.375L15.721,25.375z M18.081,25.375
	C18.045,25.41,18.018,25.453,18,25.5h0.084v0.042c0.043,0.041,0.042-0.041,0.042-0.042c0.027-0.036,0.042-0.08,0.042-0.125H18.081
	L18.081,25.375z M20.146,25.375c-0.053,0.034-0.11,0.063-0.169,0.083V25.5l0.253,0.042v-0.167h-0.082H20.146z M20.736,25.375
	c-0.065,0.157-0.051,0.121,0.169,0.167v-0.125L20.736,25.375z M22.759,25.375c-0.036,0.035-0.065,0.078-0.084,0.125
	c0.1,0.002,0.198,0.017,0.296,0.042c0.004-0.058,0.018-0.114,0.041-0.167h-0.251H22.759z M23.686,25.542v-0.167h-0.3
	c-0.022,0.053-0.036,0.109-0.042,0.167h0.042c0.097-0.042,0.206-0.042,0.302,0H23.686z M28.195,25.375V25.5
	c0.072,0.002,0.145,0.016,0.212,0.042v-0.167H28.2H28.195z M28.87,25.375V25.5h0.169v-0.083H29v-0.042h-0.127H28.87z M8.849,25.417
	c0.035,0.135-0.021,0.063,0.084,0.125c0.064-0.04,0.146-0.04,0.211,0v-0.125h-0.3H8.849z M10.914,25.417
	c0.035,0.135-0.021,0.063,0.084,0.125c0.064-0.04,0.146-0.04,0.211,0l-0.042-0.125h-0.25H10.914z M13.654,25.417
	c0.021,0.046,0.049,0.089,0.084,0.125c0.023-0.022,0.052-0.037,0.084-0.042v-0.083h-0.165H13.654z M14.37,25.417
	c0,0.045,0.014,0.089,0.042,0.125V25.5c0.022-0.022,0.037-0.052,0.042-0.083h-0.081H14.37z M15.34,25.417
	c0,0.045,0.015,0.089,0.042,0.125v-0.125h-0.039H15.34z M16.014,25.417c0,0.045,0.014,0.089,0.042,0.125v-0.084l0.042-0.042h-0.081
	L16.014,25.417z M16.436,25.417c0,0.045,0.014,0.089,0.042,0.125v-0.125h-0.04H16.436z M18.836,25.417h-0.164V25.5l0.169,0.042
	v-0.125H18.836z M19.342,25.417V25.5c0.032,0.004,0.062,0.02,0.084,0.042c0.1-0.054,0.029,0.019,0.084-0.083h0.042v-0.042h-0.205
	H19.342z M22.293,25.417l-0.211,0.042V25.5l0.218,0.042v-0.125H22.293z M24.357,25.417h-0.332v0.042h0.041
	c0.096,0.043,0.197,0.071,0.301,0.083v-0.125H24.357z M24.736,25.417V25.5c0.102,0.002,0.203,0.017,0.301,0.042v-0.084h0.042v-0.041
	h-0.337H24.736z M26.802,25.417V25.5c0.1,0.003,0.198,0.017,0.296,0.042V25.5c-0.082-0.066-0.187-0.097-0.291-0.083H26.802z
	 M27.729,25.417h-0.246v0.042h0.041c0.068,0.034,0.139,0.063,0.211,0.083v-0.125H27.729z M16.644,25.459
	c0.026,0.047,0.074,0.078,0.127,0.083v-0.084h-0.122L16.644,25.459z M26.344,25.5c0.023,0.022,0.053,0.037,0.084,0.042
	C26.405,25.52,26.376,25.505,26.344,25.5z"/>
</svg>
