<?xml version="1.0" encoding="utf-8"?>
<!-- Generator: Adobe Illustrator 16.0.0, SVG Export Plug-In . SVG Version: 6.00 Build 0)  -->
<!DOCTYPE svg PUBLIC "-//W3C//DTD SVG 1.1//EN" "http://www.w3.org/Graphics/SVG/1.1/DTD/svg11.dtd">
<svg version="1.1" id="Layer_1" xmlns="http://www.w3.org/2000/svg" xmlns:xlink="http://www.w3.org/1999/xlink" x="0px" y="0px"
	 width="40px" height="40px" viewBox="0 0 40 40" enable-background="new 0 0 40 40" xml:space="preserve">
<path id="Color_Fill_1" fill="#FFFFFF" d="M17.8,12.906h0.15v0.3h1.45c0.018-0.251,0.472-0.162,0.85-0.149V13.1
	c-0.221-0.059-0.457-0.022-0.65,0.101h1.5c0.221-0.093,0.463-0.128,0.7-0.101c0.038-0.727,0.038-1.455,0-2.182
	c-0.034-0.164,0.082-0.1,0.101-0.149l-0.051-0.4c-0.215-0.029-0.432-0.046-0.649-0.05v-0.2h0.05v-0.05l0.2,0.05v-0.14
	c0.118,0.003,0.235,0.02,0.35,0.05c0.041-0.161-0.024-0.076,0.101-0.149c0.194,0.118,0.428,0.154,0.649,0.1v0.446
	c-0.151,0.008-0.304-0.009-0.45-0.05c-0.05,0.298-0.033,0.603,0.051,0.894c-0.057,0.053-0.092,0.123-0.101,0.199h0.05
	c0.041-0.07,0.119-0.11,0.2-0.1c0.034,0.096,0.051,0.197,0.05,0.3h-0.1c-0.086,0.075-0.064-0.058-0.15,0.101
	c0.188,0.308-0.091,1.033,0.101,1.338c-0.005-0.201,0.011-0.402,0.05-0.6c0.4-0.043,0.379-0.3,0.35-0.744H22.7v0.646
	c0.142,0.009,0.271,0.082,0.35,0.199c0.081,0.309,0.132,0.625,0.15,0.942c-0.149-0.019-0.301-0.019-0.45,0H22.7
	c0.156,0.345,0.34,0.677,0.55,0.992c0.048-0.012,0.02-0.039,0.05,0c0.384,0.415,0.531,1.281,0.851,1.587
	c-0.045,0.12-0.053,0.079-0.101,0.2h0.101V16.23l0.149,0.051c0.435-0.023,0.869-0.007,1.3,0.05c0.051,0.021,0.101,0.229,0.15,0.101
	c0.037-0.061,0.055-0.131,0.05-0.201c0.216,0.025,0.412,0.133,0.55,0.301h0.4c0.059,0.017,0.2,0.134,0.25,0.148
	c0.532,0.164,1.282,0.09,1.8,0.2l0.601-0.05c1.322,0.334,2.688,0.469,4.05,0.4c0.124,0.167,0.226,0.351,0.3,0.545h0.05l0.05-0.248
	c-0.121,0.004-0.227-0.08-0.25-0.199c0.154-0.094,0.324-0.162,0.5-0.2c0.036,0.175,0.062,0.123,0.101,0.3
	c-0.091,0.06-0.161,0.146-0.2,0.248c0.222-0.021,0.445,0.012,0.65,0.1c-0.006,0.039-0.023,0.074-0.051,0.101
	c-0.096,0.024-0.183,0.076-0.25,0.149c0.035,0.135,0.018,0.277-0.05,0.399c-0.039,0.034-0.112,0.065-0.149,0.101h0.05
	c0.044,0.031,0.096,0.049,0.149,0.05c0.094-0.045,0.197-0.063,0.301-0.05c0.078-0.459,0.096-0.926,0.05-1.39h0.25
	c0.069,0.479,0.052,0.966-0.05,1.438c-0.188,0.147-0.342,0.334-0.45,0.546c0.073,0.05,0.088,0.159,0.149,0.2
	c0.13,0.012,0.252,0.063,0.351,0.148c-0.087-0.028-0.182-0.01-0.25,0.051c0.156,0.264,0.406,0.458,0.7,0.545V20.1h-0.25v0.149
	l1,0.05c0.058-0.017-0.063-0.1,0.05-0.1h0.05c0.009,0.037,0.025,0.07,0.05,0.1c0-0.949,0.788-1.117,1.601-0.992
	c0.117,0.154,0.343,0.239,0.449,0.4c0.057,0.152,0.124,0.302,0.2,0.445c0.027-0.026,0.063-0.044,0.101-0.049
	c-0.053-0.047-0.104-0.097-0.15-0.149c0.055-0.024,0.105-0.059,0.15-0.101c0.105-0.006,0.203,0.052,0.25,0.146
	c-0.104,0.061-0.189,0.146-0.25,0.248H38.8c0.036-0.111,0.134-0.189,0.25-0.2c0.065,0.122-0.021,0.034,0.101,0.101v-0.101
	c-0.041-0.024-0.076-0.06-0.101-0.1h0.05V19.9c0.147,0.02,0.063,0.08,0.15-0.051H39.2V19.8c-0.216,0-0.144,0.109-0.2-0.1
	c0.113-0.036,0.231-0.053,0.35-0.05c0.11,0.047,0.231,0.064,0.351,0.05v0.446c0.102,0.002,0.202,0.02,0.3,0.05
	c-0.042,0.315-0.016,0.534-0.05,0.794c-0.255,0.078-0.257-0.008-0.25,0.4c-0.053,0.073-0.087,0.158-0.101,0.247
	c-0.176,0.171-0.405,0.276-0.649,0.3c-0.144,0.054-0.298,0.071-0.45,0.051v-0.254h-1.75c-0.4,0.125-0.8,0.459-1.15,0.6V22.28
	c-0.026-0.027-0.044-0.063-0.05-0.101c0.084-0.104,0.151-0.222,0.2-0.347H35.7c-0.269,0.22-0.604,0.341-0.95,0.347
	c0.097,0.355,0.131,0.725,0.1,1.092c-0.148,0.997-0.786,1.854-1.699,2.281c-1.455,0.589-3.112-0.114-3.701-1.569
	c-0.11-0.274-0.178-0.565-0.199-0.86h-0.9v0.05H28.3v0.149c-1.159,0-2.128-0.1-3.2-0.1c-0.199-0.615-0.904-0.57-1.75-0.547v0.248
	c-0.289,0.098-0.596,0.133-0.899,0.1c-0.027-0.026-0.063-0.044-0.101-0.049v-0.301l-0.649-0.05l-0.05,0.149h-0.4v-0.146h-1.4v-0.05
	h0.05c0.1-0.038-0.1-0.05-0.1-0.05c-0.331,0.059-0.671-0.014-0.95-0.2c-0.03,1.163-1.211,1.644-1.95,2.133
	c-0.63,0.562-1.337,1.029-2.1,1.39c-0.643,0.117-1.298,0.15-1.95,0.1H9.2c-0.816,0.078-1.638,0.062-2.45-0.051
	c-0.837-0.355-1.613-0.841-2.3-1.438c-0.85-0.561-1.95-0.932-2-2.279c-0.436,0-0.87-0.033-1.3-0.101
	c-0.002,0.365-0.285,0.668-0.65,0.694V22.23c-0.344-0.129-0.552-0.48-0.5-0.844c0.074-0.104,0.125-0.222,0.15-0.347
	c0.119-0.092,0.255-0.159,0.4-0.2c0.139,0.192,0.308,0.361,0.5,0.5h0.2c0.009-0.09,0.044-0.176,0.1-0.248
	c-0.103,0.014-0.207-0.004-0.3-0.05H1.4c0.042-0.521-0.081-1.041-0.35-1.488v0.894C1.018,20.49,1,20.542,1,20.596H0.8
	c0-1.734-0.023-3.683,0.1-5.258c0.069,0.006,0.137,0.022,0.2,0.05v-0.05c-0.007-0.368,0.232-0.705,0.25-1.189
	c-0.435-0.096-0.843-0.283-1.2-0.549c0.2,0,0.225,0.025,0.3-0.1c-0.173-0.06-0.317-0.184-0.4-0.348
	c-0.003-0.182,0.013-0.365,0.05-0.545c0.217-0.195,0.51-0.285,0.8-0.248c0.235,0.174,0.367,0.453,0.35,0.744
	c-0.117,0.196-0.292,0.352-0.5,0.446v0.05h0.8c0.49-0.3,1.942,0.113,2.7-0.05c0.433-0.093,1.052,0.118,1.6,0
	c0.162-0.048,0.332-0.065,0.5-0.05c0.326,0.087,0.667,0.104,1,0.05c0.1-0.045,0.234-0.237,0.35-0.3C8.261,13.051,8.863,13,9.45,13.1
	L9.4,12.757H9.25c-0.023-0.3-0.1-0.475-0.1-0.843c0.13-0.036,0.265-0.053,0.4-0.05c0.095,0.253,0.129,0.524,0.1,0.794
	c0.552-0.059,0.983-0.2,1.5-0.248c0.17,0.086,0.361,0.121,0.55,0.1l0.05-0.148l1.05-0.051v0.2h0.05c0.393-0.222,0.813-0.39,1.25-0.5
	v0.101h-0.05c-0.2,0.147-0.554,0.143-0.75,0.3h0.15c0.272-0.17,0.58-0.272,0.9-0.3v0.05h-0.1c-0.281,0.206-0.777,0.18-1.05,0.399
	l1.3-0.05v0.347c-0.524-0.014-1.047,0.054-1.55,0.201c0.105,0.156,0.222,0.306,0.35,0.445h1.85c0.716-0.057,1.435-0.057,2.15,0
	l0.05-0.1c-0.056-0.03-0.093-0.086-0.1-0.149c0.19-0.135,0.271-0.378,0.2-0.6c-0.209-0.299-0.393-0.614-0.55-0.942l0.05-0.248
	c-0.305-0.764-0.655-1.51-1.05-2.232c-0.295-0.661-0.712-1.343-1.05-1.984c-0.783-1.484-1.48-3-2.25-4.464
	c-0.4-0.752-0.719-1.51-1.1-2.232c-0.098-0.281-0.232-0.548-0.4-0.794v0.05c-0.147,0.199-0.315,0.382-0.5,0.546V0.208
	c0.186-0.188,0.338-0.406,0.45-0.645c-0.308-0.465-0.559-0.964-0.75-1.488C9.776-2.926,9.257-3.968,8.75-5h0.1v0.05
	c0.327,0.497,0.596,1.029,0.8,1.587c0.655,1.244,1.236,2.556,1.9,3.819c1.545,2.94,2.945,5.967,4.5,8.928
	c0.247,0.47,0.46,1.019,0.75,1.488c0.131,0.213,0.446,0.53,0.5,0.646C17.585,11.928,17.757,12.407,17.8,12.906z M10.55,0.357
	c0.027,0.027,0.044,0.062,0.05,0.1h-0.05V0.357z M10.45,0.557c0.026,0.163-0.054,0.324-0.2,0.4V1H10.2V0.9h0.05
	c0.049-0.125,0.117-0.241,0.2-0.345V0.557z M10.15,1c0.043,0.093,0.024,0.037,0,0.149H10.1L10.15,1z M10.05,1.149
	c0.027,0.027,0.044,0.062,0.05,0.1h-0.05V1.149z M10,1.249c0.043,0.093,0.024,0.037,0,0.149H9.95L10,1.249z M9.9,1.4
	c0.027,0.027,0.044,0.062,0.05,0.1H9.9V1.4z M9.8,1.549c0.027,0.027,0.045,0.063,0.05,0.1H9.8V1.549z M9.75,1.649
	c0.043,0.093,0.024,0.037,0,0.149H9.7L9.75,1.649z M9.65,1.798c0.043,0.093,0.024,0.037,0,0.149H9.6L9.65,1.798z M9.55,1.947
	c0.027,0.027,0.045,0.062,0.05,0.1H9.55V1.947z M9.5,2.047c0.043,0.093,0.024,0.037,0,0.149H9.45L9.5,2.047z M9.4,2.196
	c0.043,0.093,0.024,0.037,0,0.148H9.35L9.4,2.196z M9.3,2.345c0.027,0.027,0.045,0.063,0.05,0.1H9.3V2.345z M9.25,2.445
	c0.043,0.093,0.024,0.037,0,0.149H9.2L9.25,2.445z M9.15,2.594c0.043,0.093,0.024,0.037,0,0.149H9.1L9.15,2.594z M9.05,2.743
	c0.027,0.027,0.045,0.062,0.05,0.1H9.05V2.743z M9,2.843C9.043,2.936,9.024,2.88,9,2.992H8.95L9,2.843z M8.9,2.992
	c0.043,0.093,0.024,0.037,0,0.149H8.85L8.9,2.992z M8.8,3.141c0.027,0.027,0.045,0.062,0.05,0.1H8.8V3.141z M8.75,3.241
	c0.043,0.093,0.024,0.037,0,0.149H8.7L8.75,3.241z M8.65,3.39c0.043,0.093,0.024,0.037,0,0.149H8.6L8.65,3.39z M8.55,3.539
	c0.027,0.027,0.045,0.062,0.05,0.1H8.55V3.539z M8.45,3.688c0.027,0.027,0.044,0.062,0.05,0.1H8.45V3.688z M8.4,3.788
	c0.043,0.093,0.024,0.037,0,0.149H8.35L8.4,3.788z M8.3,3.937c0.043,0.093,0.024,0.037,0,0.149H8.25L8.3,3.937z M8.2,4.086
	c0.027,0.027,0.044,0.063,0.05,0.1H8.2V4.086z M8.15,4.186c0.043,0.093,0.024,0.037,0,0.149H8.1L8.15,4.186z M8.05,4.335
	c0.043,0.093,0.024,0.037,0,0.149H8L8.05,4.335z M7.95,4.484C7.977,4.511,7.995,4.546,8,4.584H7.95V4.484z M7.9,4.584
	c0.043,0.093,0.024,0.037,0,0.149H7.85L7.9,4.584z M7.8,4.733c0.043,0.093,0.024,0.037,0,0.149H7.75L7.8,4.733z M7.7,4.882
	c0.027,0.027,0.044,0.063,0.05,0.1H7.7V4.882z M7.65,4.982c0.043,0.093,0.024,0.037,0,0.149H7.6L7.65,4.982z M7.55,5.131
	c0.043,0.093,0.024,0.037,0,0.149H7.5L7.55,5.131z M7.45,5.28c0.027,0.027,0.044,0.062,0.05,0.1H7.45V5.28z M7.4,5.38
	c0.043,0.093,0.024,0.037,0,0.149H7.35L7.4,5.38z M7.3,5.529c0.043,0.093,0.024,0.037,0,0.148H7.25L7.3,5.529z M7.2,5.678
	c0.027,0.027,0.044,0.063,0.05,0.1H7.2V5.678z M7.15,5.778c0.043,0.093,0.024,0.037,0,0.149H7.1L7.15,5.778z M7.05,5.927
	c0.043,0.093,0.024,0.037,0,0.149H7L7.05,5.927z M6.95,6.076C6.977,6.103,6.995,6.138,7,6.176H6.95V6.076z M6.85,6.225
	c0.027,0.027,0.044,0.062,0.05,0.1H6.85V6.225z M6.8,6.325c0.043,0.093,0.024,0.037,0,0.149H6.75L6.8,6.325z M6.7,6.474
	c0.027,0.027,0.044,0.062,0.05,0.1H6.7V6.474z M6.6,6.623c0.027,0.027,0.044,0.062,0.05,0.1H6.6V6.623z M6.55,6.723
	c0.043,0.093,0.024,0.037,0,0.149H6.5L6.55,6.723z M6.45,6.872c0.043,0.093,0.024,0.037,0,0.149H6.4L6.45,6.872z M6.35,7
	C6.377,7.027,6.395,7.062,6.4,7.1H6.35V7z M6.3,7.1c0.043,0.093,0.024,0.037,0,0.149H6.25L6.3,7.1z M6.2,7.249
	c0.043,0.093,0.024,0.037,0,0.149H6.15L6.2,7.249z M6.1,7.4c0.027,0.027,0.044,0.062,0.05,0.1H6.1V7.4z M6.05,7.5
	c0.043,0.093,0.024,0.037,0,0.149H6L6.05,7.5z M5.95,7.649c0.043,0.093,0.024,0.037,0,0.149H5.9L5.95,7.649z M5.85,7.798
	c0.027,0.027,0.044,0.063,0.05,0.1H5.85V7.8V7.798z M5.8,7.898c0.043,0.093,0.024,0.037,0,0.149H5.75L5.8,7.898z M5.7,8.047
	c0.043,0.093,0.024,0.037,0,0.149H5.65L5.7,8.047z M5.6,8.196c0.027,0.027,0.044,0.062,0.05,0.1H5.6V8.196z M5.55,8.296
	c0.043,0.093,0.024,0.037,0,0.149H5.5L5.55,8.296z M5.45,8.445c0.043,0.093,0.024,0.037,0,0.149H5.4L5.45,8.445z M5.35,8.594
	c0.027,0.027,0.044,0.063,0.05,0.1H5.35V8.594z M5.3,8.694c0.043,0.093,0.024,0.037,0,0.149H5.25L5.3,8.694z M5.2,8.843
	c0.043,0.093,0.024,0.037,0,0.149H5.15L5.2,8.843z M5.1,8.992c0.027,0.027,0.044,0.062,0.05,0.1H5.1V8.992z M5,9.136
	c0.027,0.027,0.044,0.063,0.05,0.1H5V9.136z M4.95,9.236c0.043,0.093,0.024,0.037,0,0.149H4.9L4.95,9.236z M4.85,9.385
	c0.043,0.093,0.024,0.037,0,0.149H4.8L4.85,9.385z M4.75,9.534c0.027,0.027,0.044,0.062,0.05,0.1H4.75V9.534z M4.7,9.634
	c0.043,0.093,0.024,0.037,0,0.149H4.65L4.7,9.634z M4.6,9.783c0.043,0.093,0.024,0.037,0,0.149H4.55L4.6,9.783z M4.5,9.932
	c0.027,0.027,0.044,0.062,0.05,0.1H4.5V9.932z M4.45,10.032c0.043,0.093,0.024,0.037,0,0.149H4.4L4.45,10.032z M4.35,10.181
	c0.043,0.093,0.024,0.037,0,0.149H4.3L4.35,10.181z M4.25,10.33c0.027,0.027,0.044,0.062,0.05,0.1H4.25V10.33z M4.2,10.43
	c0.043,0.093,0.024,0.037,0,0.149H4.15L4.2,10.43z M4.1,10.579c0.043,0.093,0.024,0.037,0,0.149H4.05L4.1,10.579z M4,10.723
	c0.027,0.027,0.044,0.062,0.05,0.1H4V10.723z M3.95,10.823c0.043,0.093,0.024,0.037,0,0.149H3.9L3.95,10.823z M3.85,10.972
	c0.043,0.092,0.024,0.037,0,0.149H3.8L3.85,10.972z M3.75,11.121c0.027,0.027,0.044,0.063,0.05,0.1H3.75V11.121z M3.7,11.221
	c0.043,0.094,0.024,0.037,0,0.149H3.65L3.7,11.221z M3.6,11.37c0.043,0.093,0.024,0.037,0,0.149H3.55L3.6,11.37z M3.5,11.52
	c0.027,0.026,0.044,0.062,0.05,0.1H3.5V11.52z M3.4,11.668c0.027,0.027,0.044,0.063,0.05,0.1H3.4V11.668z M3.35,11.768
	c0.043,0.094,0.024,0.037,0,0.149H3.3L3.35,11.768z M3.25,11.917c0.027,0.027,0.044,0.062,0.05,0.101H3.25V11.917z M3.15,12.066
	c0.027,0.027,0.044,0.062,0.05,0.1H3.15V12.066z M3.1,12.166c0.043,0.093,0.024,0.037,0,0.148H3.05L3.1,12.166z M3,12.311
	c0.043,0.092,0.024,0.037,0,0.148H2.95L3,12.311z M13.15,12.41c-0.074,0.052-0.16,0.086-0.25,0.1v0.051H13
	c0.075-0.053,0.16-0.087,0.25-0.101v-0.05H13.15z M2.9,12.46c0.027,0.027,0.044,0.063,0.05,0.101H2.9V12.46z M2.85,12.561
	c0.043,0.092,0.024,0.037,0,0.148H2.8L2.85,12.561z M2.75,12.709c0.043,0.093,0.024,0.037,0,0.148H2.7L2.75,12.709z M2.65,12.857
	c0.027,0.027,0.044,0.063,0.05,0.101H2.65V12.857z M2.6,12.958c0.043,0.093,0.024,0.037,0,0.149H2.55L2.6,12.958z M2.5,13.1
	c0.043,0.094,0.024,0.037,0,0.149H2.45L2.5,13.1z M10.25,13.4v-0.147c-0.84-0.162-1.708-0.075-2.5,0.248v0.05h3.65V13.5
	C11.021,13.434,10.636,13.399,10.25,13.4z M21.6,13.152c-0.037,0.043-0.063,0.056-0.1,0.1c0.074,0.066,0.126,0.152,0.15,0.248h0.1
	c0.003-0.117,0.02-0.233,0.05-0.348H21.6L21.6,13.152z M22.15,13.152v0.1h0.05c-0.005-0.037-0.022-0.072-0.05-0.098V13.152z
	 M21.3,13.202c-0.001,0.054,0.017,0.106,0.05,0.149c0.002-0.055-0.016-0.108-0.05-0.151V13.202z M2.4,13.252
	c0.027,0.027,0.044,0.063,0.05,0.1H2.4V13.252z M2.35,13.352c0.043,0.094,0.024,0.037,0,0.149H2.3L2.35,13.352z M21,15.882
	c0,0.054,0.018,0.106,0.05,0.149c0.044,0.031,0.097,0.049,0.15,0.05c0.276-0.24,0.954-0.239,1.1-0.601h-0.05
	c-0.005-0.037-0.022-0.072-0.05-0.1C21.842,15.635,21.432,15.807,21,15.882z M1.3,15.682v0.101h0.05
	c-0.005-0.038-0.023-0.073-0.05-0.099V15.682z M1.3,15.982v0.1h0.05v-0.1H1.3z M1.3,16.23c-0.014,0.103,0.004,0.207,0.05,0.3
	c0.014-0.104-0.004-0.208-0.05-0.302V16.23z M25.15,16.43c0.086,0.045,0.063,0.045,0.149,0H25.15z M25.4,16.43
	c0.027,0.027,0.063,0.045,0.1,0.051c-0.027-0.028-0.063-0.047-0.1-0.054V16.43z M34.35,18.611c0.086,0.045,0.064,0.045,0.15,0H34.35
	z M1.3,19.057c-0.014,0.102,0.004,0.207,0.05,0.299C1.364,19.254,1.346,19.148,1.3,19.057z M39.35,20.2v0.05H39.3
	C39.2,20.288,39.4,20.3,39.4,20.3C39.395,20.262,39.377,20.227,39.35,20.2z M39.7,20.3v0.5h0.05v-0.1
	c0.029-0.114,0.045-0.229,0.05-0.347L39.7,20.3z M0.85,20.449c0.027,0.026,0.062,0.044,0.1,0.05c-0.027-0.028-0.062-0.048-0.1-0.054
	V20.449z M2.15,20.85c0.259,0.087,0.541,0.087,0.8,0H2.15z M9.25,20.85c0.276,0.09,0.574,0.09,0.85,0H9.25z M11.2,20.85
	c0.426,0.113,0.874,0.113,1.3,0H11.2z M19.6,21.148c0.027,0.027,0.062,0.045,0.1,0.051c-0.026-0.031-0.061-0.052-0.1-0.061V21.148z
	 M34.6,21.35v-0.16H34.2v0.05c0.119,0.074,0.259,0.108,0.399,0.099V21.35z M36.35,21.299v0.1H36.4v-0.1H36.35z M36.55,21.499
	c-0.163-0.042-0.331-0.06-0.5-0.05c-0.081,0.176-0.147,0.359-0.2,0.546H35.9c0.244-0.188,0.605-0.117,0.649-0.509V21.499z
	 M0.5,21.438c-0.044,0.041-0.078,0.092-0.1,0.148c0,0.112-0.01,0.182,0.25,0.2c0.054-0.073,0.089-0.158,0.1-0.248
	C0.67,21.496,0.586,21.462,0.5,21.438z M35.25,21.686h-0.2v0.049c0.027,0.027,0.044,0.063,0.05,0.101h0.2
	c0.039-0.034,0.112-0.065,0.15-0.101c-0.073-0.065-0.126-0.151-0.15-0.247h-0.05v0.2V21.686z M34.6,21.686v-0.149
	c-0.054-0.001-0.106,0.017-0.149,0.05c0.06,0.117,0.145,0.221,0.25,0.3c0.096-0.024,0.183-0.075,0.25-0.149H35v-0.049h-0.4V21.686z
	 M1.2,21.686l-0.05,0.299h0.2v-0.299H1.2z M4.85,22.186L4.8,22.434c0.079,0.047,0.15,0.18,0.2,0.1
	c0.084-0.075,0.123-0.189,0.1-0.301c-0.076-0.041-0.164-0.06-0.25-0.051V22.186z M6.05,22.186h-0.2
	c-0.036,0.111-0.053,0.229-0.05,0.347H5.75v0.05h0.1c0.043-0.042,0.078-0.093,0.1-0.148c0.067-0.066,0.104-0.158,0.1-0.252V22.186z
	 M6.2,22.186c-0.001,0.053,0.017,0.105,0.05,0.148c0.194-0.061,0.396-0.094,0.6-0.1l0.05,0.145c0.258-0.084,0.529-0.117,0.8-0.1
	c0.027-0.027,0.044-0.063,0.05-0.101H6.2V22.186z M8.3,22.285c-0.096,0.29-0.163,0.59-0.2,0.893H7.9v-0.05H7.85v-0.153
	c-0.602-0.008-1.203,0.025-1.8,0.1c0.016-0.146-0.065-0.287-0.2-0.348c-0.043-0.031-0.096-0.049-0.15-0.05
	c-0.131,0.413-0.444,0.742-0.85,0.894c-0.162,0.001-0.319,0.053-0.45,0.148c0.636,0.2,1.026,0.832,1.65,1.042
	c-0.084-0.473,0.163-0.942,0.6-1.141c0.496-0.201,1.061,0.037,1.262,0.533c0.015,0.036,0.028,0.073,0.038,0.112h0.4
	c0.078-0.294,0.307-0.522,0.6-0.601L9,23.421c0.325-0.093,0.662-0.143,1-0.149l-0.25-0.893c-0.119,0.004-0.237-0.013-0.35-0.05
	l0.05-0.101H9.4c-0.293-0.076-0.6-0.093-0.9-0.05C8.46,22.25,8.381,22.29,8.3,22.28V22.285z M11.9,22.186v0.199
	c-0.099-0.016-0.201-0.016-0.3,0c-0.159,0.271-0.245,0.579-0.25,0.893l1,0.149c0.062,0.437,0.516,0.374,0.6,0.843h0.4
	c0.209-0.555,0.829-0.834,1.384-0.625c0.057,0.021,0.113,0.049,0.166,0.08c0.156,0.164,0.291,0.348,0.4,0.545
	c0.003,0.184,0.02,0.366,0.05,0.547c0.425-0.409,0.915-0.744,1.45-0.992v-0.155c-0.201-0.021-0.404-0.003-0.6,0.05V23.52
	c-0.146-0.103-0.327-0.139-0.5-0.101c0.018-0.587-0.292-0.308-0.4-0.601c0.085-0.127,0.064-0.297-0.05-0.399
	c-0.632-0.388-2.324-0.242-3.35-0.237V22.186z M5.7,22.234H5.5v0.051H5.45v0.1c0.064,0.023,0.135,0.023,0.2,0
	c0.034-0.045,0.051-0.1,0.05-0.154V22.234z M15.4,22.384l0.05,0.2h0.1v-0.155L15.4,22.384z M3.6,22.484v0.1
	c0.092,0.092,0.192,0.175,0.3,0.248v0.05c0.05,0.05,0.049-0.049,0.05-0.05c0.037-0.06,0.055-0.13,0.05-0.2L3.6,22.484z M3.15,22.534
	l0.05,0.143h0.05v-0.149h-0.1V22.534z M5.4,22.534c0.027,0.026,0.063,0.044,0.1,0.05c-0.026-0.029-0.062-0.049-0.1-0.057V22.534z
	 M4.45,22.684c-0.063,0.074-0.113,0.157-0.15,0.248c0.027,0.026,0.063,0.044,0.1,0.049c0.093-0.051,0.195-0.085,0.3-0.1l0.05-0.1
	c-0.041-0.025-0.075-0.06-0.1-0.1h-0.2V22.684z M5.45,22.684c0.086,0.043,0.064,0.043,0.15,0H5.45z M22.5,22.883h0.65v-0.199H23.05
	c-0.177,0.068-0.373,0.068-0.55,0V22.883z M3.3,22.833c0.031,0.056,0.087,0.094,0.15,0.101v-0.051L3.3,22.833z M5.45,23.033
	c0-0.055-0.017-0.106-0.05-0.149c-0.06-0.036-0.13-0.054-0.2-0.05v0.1c0.074,0.051,0.16,0.082,0.25,0.09V23.033z M15.7,22.934
	l0.05,0.148h0.1v-0.1H15.8c-0.026-0.029-0.061-0.05-0.1-0.058V22.934z M3.5,23.033v0.1l0.15,0.051v-0.101H3.6
	c-0.026-0.03-0.061-0.051-0.1-0.06V23.033z M5.2,23.281v-0.158c-0.062-0.043-0.129-0.076-0.2-0.1v0.199h0.05v0.051H5.2V23.281z
	 M3.85,23.182c-0.043,0.074-0.142,0.036-0.05,0.1c0.111-0.019,0.122-0.023,0.05-0.108V23.182z M16.05,23.182
	c0,0.137-0.058,0.106,0.15,0.148v-0.1L16.05,23.182z M4.7,23.23v0.149l0.1,0.05v0.051c0.05,0.049,0.049-0.049,0.05-0.051
	c0.032-0.043,0.049-0.095,0.05-0.148H4.85V23.23H4.7z M4.25,23.531v-0.2H4.2v-0.05c-0.038,0.005-0.073,0.022-0.1,0.05
	c-0.032,0.043-0.05,0.095-0.05,0.149H4.1v0.05L4.25,23.531L4.25,23.531z M4.4,23.283v0.236c0.069-0.006,0.137-0.021,0.2-0.05
	c-0.026-0.063-0.043-0.131-0.05-0.2H4.4V23.283z M16.55,23.432c0.055,0.082,0.154,0.122,0.25,0.101V23.47
	c-0.08-0.029-0.165-0.046-0.25-0.049V23.432z M17,23.432v0.101c0.179-0.021,0.126,0.022,0.2-0.101H17z M9.85,23.581
	c-0.043,0.032-0.157,0.065-0.2,0.101c0.126,0.066,0.261,0.116,0.4,0.148c0.062-0.078,0.032-0.025,0-0.1L10,23.57H9.85V23.581z
	 M11.3,23.581c-0.03,0.121-0.118,0.147-0.05,0.2l0.05,0.1h0.05v-0.05c0.091-0.065,0.192-0.116,0.3-0.149v-0.05L11.3,23.581z
	 M10.5,23.881c-0.003,0.117-0.02,0.234-0.05,0.348H10.3c0.005,0.378-0.081,0.752-0.25,1.09h1.25v-0.1
	c-0.197-0.176-0.307-0.43-0.3-0.693c0.046-0.074,0.064-0.162,0.05-0.248c-0.087-0.18-0.228-0.053-0.25-0.4h-0.3V23.881z M8,24.859
	l-0.25,0.445H8.6v-0.05C8.392,25.037,8.462,24.857,8,24.859z M13,24.859l-0.25,0.445h0.85v-0.1
	C13.482,24.984,13.25,24.851,13,24.859z"/>
</svg>
