<?xml version="1.0" encoding="utf-8"?>
<!-- Generator: Adobe Illustrator 16.0.0, SVG Export Plug-In . SVG Version: 6.00 Build 0)  -->
<!DOCTYPE svg PUBLIC "-//W3C//DTD SVG 1.1//EN" "http://www.w3.org/Graphics/SVG/1.1/DTD/svg11.dtd">
<svg version="1.1" id="Layer_1" xmlns="http://www.w3.org/2000/svg" xmlns:xlink="http://www.w3.org/1999/xlink" x="0px" y="0px"
	 width="39.969px" height="40px" viewBox="0 0 39.969 40" enable-background="new 0 0 39.969 40" xml:space="preserve">
<path id="Color_Fill_1" fill="#FFFFFF" d="M15.388,13.588h-0.2v-0.3h-0.2c-0.031,0.22-0.027,0.392-0.247,0.448
	c-0.03-0.08-0.046-0.164-0.049-0.249c0.103-0.086,0.157-0.215,0.148-0.348h0.345c0.038-0.117,0.107-0.221,0.2-0.3V9.26
	c-0.077-0.529-0.061-1.068,0.049-1.592v5.174c0.486,0.108,0.982,0.158,1.48,0.149c-0.001-0.054,0.017-0.106,0.049-0.149v0.3h2.466
	v0.2c-0.805-0.078-1.616-0.061-2.417,0.05c0.16,0.041,0.075-0.024,0.148,0.1h-0.045c-0.08,0.05-0.315,0.048-0.396,0.1
	c0.263,0.313,0.434,0.691,0.493,1.095c0.186,0.216,0.455,0.343,0.74,0.348c0.293,0.049,0.591,0.065,0.888,0.05v0.2
	c0.786-0.075,1.578,0.028,2.318,0.3v-0.2h0.147v0.246l0.148,0.051c0.087,0.063,0.191,0.099,0.3,0.1
	c-0.001-0.103,0.015-0.204,0.05-0.3h0.1c-0.014,0.333,0.012,0.4,0.345,0.4c0.116-0.15,0.305-0.227,0.493-0.199
	c0.254,0.471,0.143,0.813,0.838,0.799c0.439,0.08,0.888,0.098,1.332,0.051c1.094,0.156,2.202,0.173,3.3,0.05
	c0.011-0.101,0.064-0.192,0.147-0.249c0.736,0.109,1.484,0.109,2.221,0c0.007,0.188-0.023,0.175,0.1,0.249
	c0.829,0.155,1.677,0.189,2.516,0.101H39.9c0.049,0.229,0.065,0.465,0.049,0.699l-7.25,0.051h-1.823
	c-0.128,0.047-0.261,0.08-0.396,0.1c-0.625-0.051-1.608,0.063-2.219,0c-0.769-0.111-1.549-0.111-2.318,0H25.1l-2.021,0.1
	c-0.101,0.256-0.323,0.443-0.592,0.5v0.051h0.345c0.241-0.076,0.499-0.076,0.739,0v0.1c0.235-0.028,0.467-0.078,0.691-0.149
	c-0.023,0.047-0.023,0.103,0,0.149c0.13-0.034,0.266-0.034,0.396,0v-0.165l0.345,0.05c-0.006,0.068-0.021,0.137-0.049,0.2h0.049
	c0.232-0.106,0.496-0.124,0.74-0.05c0.171-0.02,0.587-0.049,0.938-0.051c0.032,0.097,0.049,0.198,0.049,0.301
	c0.047,0.109,0.064,0.229,0.049,0.348c0.268-0.012,0.259-0.055,0.443-0.05c0.047-0.169,0.02-0.155,0.2-0.2
	c0.013,0.154,0.085,0.297,0.2,0.4c-0.017-0.071,0.002-0.146,0.049-0.2c0.038,0.005,0.073,0.022,0.1,0.05
	c0.16,0.063,0.131,0.044,0.148,0.249c0.936,0.087,1.75,0.679,2.121,1.542c-0.219,0.206-0.493,0.345-0.789,0.4
	c-0.021,1.457-1.8,2.234-2.713,2.886c-0.376,0.33-0.791,0.612-1.237,0.84c-0.678,0.161-1.378,0.211-2.071,0.149H7.941l-1.283-0.049
	c-0.85-0.354-1.646-0.822-2.367-1.394c-0.318-0.2-0.671-0.282-0.986-0.5c-0.143-0.157-0.275-0.325-0.395-0.5
	c-0.245-0.075-0.466-0.213-0.641-0.399c-0.108-0.105-0.128-0.272-0.049-0.4c0.028-0.121,0.099-0.229,0.2-0.301
	c0.048-0.012,0.019-0.039,0.049,0c0.052,0.146,0.052,0.304,0,0.448c0.054,0.001,0.106-0.017,0.148-0.05
	c0.05-0.127,0.067-0.265,0.049-0.4c-0.02-0.227-0.087-0.447-0.2-0.646c-0.139,0.073-0.289,0.123-0.444,0.148
	c-0.247,0.139-0.326,0.518-0.592,0.647v-0.136c0.315-0.347,0.662-0.663,1.036-0.945v-0.05h-0.2c-0.257,0.069-0.525,0.087-0.789,0.05
	c-0.702,0.12-1.368-0.352-1.488-1.053c-0.028-0.163-0.024-0.329,0.011-0.49h0.1c0.671,0.089,1.351,0.089,2.022,0
	c-0.054,0-0.106-0.018-0.148-0.05c0.16-0.041,0.075,0.024,0.148-0.101c-0.032-0.043-0.049-0.095-0.049-0.148h0.048v-0.05
	c0.164,0.01,0.329,0.01,0.493,0v-0.05c-0.055-0.025-0.105-0.059-0.148-0.101c0.763-0.001,1.524-0.084,2.269-0.249
	c0.628-0.156,1.467,0.087,1.973-0.1c0.203-0.037,0.413-0.002,0.592,0.1l0.049-0.1c0.194-0.027,0.39,0.026,0.543,0.148
	c0.542,0.051,1.086,0.051,1.628,0c-0.048-0.384-0.014-0.773,0.1-1.144l-1.085-0.249v-0.246c0.146-0.293,0.214-0.618,0.2-0.945h0.044
	c0.234,0.097,0.489,0.131,0.74,0.1c0.019-0.273,0.123-0.534,0.296-0.746c0.091-0.033,0.175-0.084,0.247-0.149
	c0.017-0.663,0.033-1.327,0.049-1.99V5.931c-0.041-0.3-0.024-0.606,0.049-0.9c0,3.289,0.043,6.692,0.049,9.9h0.049v0.05
	c0.187-0.012,0.368,0.062,0.493,0.2v-0.2c-0.18-0.06-0.312-0.213-0.345-0.4c0.026-0.027,0.043-0.063,0.049-0.1H10.7
	c0.063,0.041,0.129,0.075,0.2,0.1c-0.054,0.141-0.014,0.301,0.1,0.4c0.027-0.027,0.062-0.044,0.1-0.05
	c0.099-0.271,0.116-0.565,0.049-0.846h0.444c0.209,0.369,0.614,0.582,1.036,0.547v-0.05h0.049v-0.051h-0.15v0.05h-0.05v-0.05
	c-0.035-0.077-0.006-0.007,0-0.149h0.148c0.5,0.41,1.526-0.419,2.072,0c-0.124,0.073-0.09,0.063-0.1,0.249
	c0.062,0.035,0.114,0.086,0.148,0.149c0.151-0.087,0.173,0.008,0.345,0.05c0.065-0.165,0.239-0.216,0.3-0.348v-0.9L15.388,13.588z
	 M16.522,13.088v0.1c0.065-0.017,0.134-0.017,0.2,0v-0.1H16.522z M15.437,13.588v0.8h0.543l0.1,0.448h0.049
	c0.315-0.167,0.547-0.456,0.641-0.8c-0.106-0.286-0.387-0.468-0.691-0.448c-0.005,0.069-0.022,0.137-0.049,0.2h-0.05v-0.05
	c-0.032-0.043-0.049-0.096-0.049-0.149L15.437,13.588L15.437,13.588z M11.537,14.334c-0.026,0.064-0.042,0.131-0.049,0.2
	c0.244,0.05,0.4,0.142,0.641,0.2v-0.05c-0.175-0.15-0.374-0.269-0.588-0.353L11.537,14.334z M16.716,14.334l-0.148,0.3h0.2
	c0.071-0.09,0.056-0.222-0.035-0.293c-0.004-0.003-0.008-0.006-0.013-0.009L16.716,14.334z M10.255,18.314
	c0.056,0.054,0.145,0.054,0.2,0H10.255z M10.748,18.314c0.305,0.096,0.632,0.096,0.937,0h-0.933H10.748z M20.119,18.314
	c0.105,0.064,0.239,0.064,0.345,0h-0.341H20.119z M20.611,18.314c0.09,0.063,0.211,0.063,0.301,0H20.611z M27.32,18.714v0.101h0.049
	v-0.101h-0.045H27.32z M1.13,18.914c0.118-0.016,0.237,0.002,0.345,0.05c-0.116,0.015-0.234-0.003-0.341-0.052L1.13,18.914z
	 M1.525,18.914c0.07-0.006,0.141,0.012,0.2,0.05c-0.069,0.005-0.138-0.014-0.196-0.052L1.525,18.914z M1.772,18.914h0.1v0.05
	c-0.037-0.006-0.071-0.024-0.096-0.052L1.772,18.914z M26.973,19.063c0.055,0.055,0.144,0.055,0.199,0H26.973z M2.065,19.163
	l0.148,0.448h0.056v-0.2c-0.052-0.074-0.086-0.159-0.1-0.249h-0.1L2.065,19.163z M2.213,19.663l0.049,0.149h0.056v-0.154h-0.1
	L2.213,19.663z M26.923,19.764c0.06,0.153,0.019,0.111,0.2,0.148v-0.05c-0.07-0.024-0.135-0.06-0.193-0.105L26.923,19.764z
	 M2.614,20.802v0.101h0.049v-0.101H2.614z M5.425,22.842h-0.2c-0.047,0.073-0.176,0.108-0.1,0.149
	c0.098,0.093,0.216,0.161,0.345,0.2L5.425,22.842z M21.011,22.842c-0.016,0.483-0.209,0.944-0.543,1.294h2.269v-0.05
	c-0.332-0.33-0.527-0.775-0.543-1.244H21.011z M26.239,22.842v0.2h0.049c0.052-0.067,0.121-0.118,0.2-0.149v-0.05L26.239,22.842
	L26.239,22.842z M14.254,22.893c0,0.135-0.065,0.08,0.1,0.148C14.348,22.978,14.311,22.922,14.254,22.893z M18.054,23.041
	c0.16-0.041,0.075,0.023,0.148-0.1H18.15v-0.051h-0.1v0.15H18.054z M23.282,23.041c0.159-0.041,0.075,0.023,0.147-0.1h-0.051v-0.051
	h-0.1v0.15H23.282z M8.288,22.941v0.1h0.1v-0.1H8.288z M10.409,22.941v0.1h0.1v-0.1H10.409z M14.009,22.991
	c0,0.054,0.017,0.106,0.049,0.149c0-0.055-0.018-0.107-0.051-0.149H14.009z M23.084,22.991c0,0.054,0.017,0.106,0.049,0.149v-0.149
	H23.084L23.084,22.991z M8.584,23.041v0.1h0.047c-0.004-0.037-0.022-0.072-0.049-0.1H8.584z M10.162,23.041v0.1h0.048v-0.1h-0.05
	H10.162z M17.856,23.041v0.1H17.9v-0.1H17.856L17.856,23.041z M7.4,23.389c0.041,0.162-0.024,0.076,0.1,0.149v-0.149H7.4z
	 M9.373,23.389c-0.099,0.275-0.25,0.528-0.444,0.746h0.935v-0.05c-0.19-0.213-0.355-0.446-0.493-0.696H9.373z M11.297,23.389
	c0.041,0.162-0.024,0.076,0.1,0.149c-0.006-0.063-0.045-0.12-0.102-0.149H11.297z M15.144,23.389l-0.049,0.149h0.146
	c-0.006-0.063-0.043-0.119-0.098-0.149H15.144z M18.991,23.389l-0.049,0.149h0.1c0-0.054-0.019-0.106-0.053-0.149H18.991z
	 M24.219,23.389l-0.049,0.149h0.1c0-0.054-0.019-0.106-0.053-0.149H24.219z M13.219,23.439c-0.096,0.251-0.229,0.486-0.394,0.699
	h0.888v-0.05C13.524,23.892,13.358,23.674,13.219,23.439L13.219,23.439z M17.066,23.439c-0.102,0.26-0.252,0.497-0.444,0.699h0.888
	v-0.05C17.322,23.904,17.245,23.631,17.066,23.439L17.066,23.439z M6.61,23.539c0,0.054,0.017,0.105,0.049,0.148v-0.148H6.61
	L6.61,23.539z M12.134,23.539c0,0.054,0.017,0.105,0.049,0.148C12.184,23.635,12.166,23.582,12.134,23.539L12.134,23.539z
	 M14.304,23.539c-0.001,0.054,0.016,0.105,0.049,0.148c0-0.054-0.019-0.106-0.053-0.148H14.304z M15.981,23.539
	c0,0.054,0.017,0.105,0.049,0.148C16.03,23.635,16.013,23.582,15.981,23.539L15.981,23.539z M18.151,23.539
	c0,0.054,0.017,0.105,0.049,0.148v-0.148H18.151L18.151,23.539z M23.379,23.539c0,0.054,0.017,0.105,0.049,0.148v-0.148H23.379z
	 M8.237,23.589c0.027,0.027,0.063,0.045,0.1,0.05C8.31,23.611,8.275,23.594,8.237,23.589L8.237,23.589z M10.456,23.589
	c0.027,0.027,0.062,0.045,0.1,0.05C10.529,23.611,10.494,23.594,10.456,23.589L10.456,23.589z M19.778,23.589
	c0.027,0.027,0.063,0.045,0.1,0.05C19.851,23.611,19.816,23.594,19.778,23.589L19.778,23.589z M25.006,23.589
	c0.027,0.027,0.063,0.045,0.1,0.05C25.079,23.611,25.044,23.594,25.006,23.589L25.006,23.589z M7.447,23.789
	c-0.03,0.08-0.046,0.164-0.049,0.249H7.5v-0.251H7.448L7.447,23.789z M11.294,23.789v0.249h0.049v-0.05
	c0.032-0.043,0.049-0.096,0.049-0.149L11.294,23.789z M15.141,23.789v0.1c-0.035,0.077-0.006,0.008,0,0.149
	c0.026-0.027,0.043-0.063,0.049-0.101c0.06-0.062,0.01-0.078-0.048-0.15L15.141,23.789z M18.988,23.789
	c-0.029,0.08-0.046,0.164-0.049,0.249h0.1c0.01-0.087-0.008-0.175-0.05-0.251L18.988,23.789z M24.216,23.789
	c-0.026,0.064-0.042,0.131-0.049,0.2h0.049v0.05h0.05v-0.252h-0.049L24.216,23.789z M7.743,23.839
	c-0.001,0.054,0.017,0.106,0.049,0.149v-0.151H7.744L7.743,23.839z M10.998,23.839c-0.001,0.054,0.017,0.106,0.049,0.149
	c0.002-0.055-0.015-0.107-0.047-0.151L10.998,23.839z M14.845,23.839c-0.001,0.054,0.016,0.106,0.049,0.149v-0.151h-0.048
	L14.845,23.839z M15.437,23.839c0,0.054,0.017,0.106,0.049,0.149v-0.151h-0.048L15.437,23.839z M19.284,23.839
	c-0.001,0.054,0.017,0.106,0.049,0.149v-0.151h-0.048L19.284,23.839z M24.512,23.839c0,0.054,0.017,0.106,0.049,0.149v-0.151h-0.047
	L24.512,23.839z M7.1,23.887c0.082,0.057,0.053,0.088,0.1,0H7.1z M11.588,23.887v0.101h0.052v-0.05h0.049
	c-0.026-0.027-0.061-0.045-0.098-0.051H11.588z M18.641,23.887c0.082,0.057,0.053,0.088,0.1,0H18.641z M23.869,23.887
	c0.082,0.057,0.053,0.088,0.1,0H23.869z"/>
</svg>
