<?xml version="1.0" encoding="utf-8"?>
<!-- Generator: Adobe Illustrator 16.0.0, SVG Export Plug-In . SVG Version: 6.00 Build 0)  -->
<!DOCTYPE svg PUBLIC "-//W3C//DTD SVG 1.1//EN" "http://www.w3.org/Graphics/SVG/1.1/DTD/svg11.dtd">
<svg version="1.1" id="Layer_1" xmlns="http://www.w3.org/2000/svg" xmlns:xlink="http://www.w3.org/1999/xlink" x="0px" y="0px"
	 width="40px" height="40px" viewBox="0 0 40 40" enable-background="new 0 0 40 40" xml:space="preserve">
<path id="Color_Fill_1" fill="#FFFFFF" d="M19.249,14.238v-0.247c-0.1,0.013-0.201-0.004-0.291-0.049H19.3v0.246h0.1
	c0.32,0.07,0.65,0.07,0.97,0c0.869,0,2.155-0.081,2.715,0c0.051-0.086,0.239-0.327,0.291-0.246c0.124,0.256,0.328,0.463,0.582,0.591
	c0.063-0.066,0.151-0.103,0.242-0.1v0.148l-0.291,0.101c0.026,0.026,0.062,0.043,0.1,0.049c0.237,0.147,0.501,0.249,0.776,0.3v0.046
	h-0.252c-0.119-0.084-0.25-0.152-0.389-0.2v0.049h0.049c0.244,0.187,0.504,0.351,0.775,0.493v-0.145h0.194v0.199h2.085v0.243
	c-0.641,0.009-1.377,0.048-2.085,0.05c-0.021,0.271-0.089,0.375-0.101,0.689l0.438,0.05v-0.2h0.049v-0.047
	c0.038,0.004,0.074,0.021,0.1,0.049c0.031,0.078,0.049,0.162,0.05,0.246c0.294-0.027,0.592,0.006,0.872,0.1
	c0.359-0.049,0.725-0.015,1.068,0.101c0.961,0.034,1.918,0.149,2.86,0.345c0.712,0.18,1.146-0.227,1.647,0l0.68-0.049
	c0.383,0.075,0.718,0.308,0.921,0.641h0.048v-0.299h0.485v0.147h0.194c0.063,0.357,0.08,0.722,0.047,1.084h-0.049
	c0.019-0.134,0.002-0.269-0.049-0.394c-0.037,0.135-0.086,0.267-0.145,0.394c0.068-0.006,0.137,0.012,0.193,0.049
	c-0.068-0.005-0.137,0.012-0.193,0.049c0.164,0.163,0.281,0.367,0.339,0.591c0.026-0.027,0.043-0.063,0.048-0.1
	c0.223-0.384,0.52-0.719,0.873-0.986v-0.39c0.766,0.026,0.925,0.524,1.745,0.542c0.116-0.432,0.522-0.721,0.97-0.689
	c0.279-0.102,0.578-0.137,0.873-0.101c0.38,0.255,0.613,0.677,0.63,1.133H40c-0.006,0.138-0.04,0.271-0.1,0.395
	c-0.176,0.009-0.101-0.073-0.146,0.1c0.414,0.449,0.017,1.243-0.1,1.726h-0.188l-0.049,0.492c-0.154,0.204-0.379,0.345-0.63,0.395
	c-0.091,0.044-0.191,0.061-0.291,0.049V21.63H36.9c-0.373,0.122-0.721,0.458-1.067,0.591v-0.049c-0.026-0.027-0.044-0.063-0.049-0.1
	c0.081-0.105,0.147-0.221,0.194-0.346h-0.052c-0.312,0.194-0.657,0.328-1.018,0.395c0.304,0.776,0.232,1.649-0.194,2.365
	c-1.267,2.067-5.046,1.574-5.042-1.28c-0.953,0.068-1.911,0.052-2.86-0.049v0.149h-1.164c-0.162-0.357-0.53-0.573-0.92-0.543
	c-0.27-0.072-0.553-0.09-0.828-0.048v0.3H23.8c-0.301,0.085-0.62,0.085-0.921,0v-0.3c-0.791,0.061-1.585,0.061-2.376,0
	c0.001-0.054-0.017-0.105-0.049-0.147c-0.321,0.091-0.667,0.016-0.921-0.2c-0.131,1.134-1.009,1.5-1.745,2.02
	c-0.667,0.612-1.418,1.127-2.23,1.528c-0.48,0.083-0.969,0.1-1.454,0.049H8.582l-1.067-0.049c-0.698-0.364-1.349-0.811-1.939-1.331
	C4.747,24.02,3.563,23.641,3.54,22.27c-0.305,0-1.261-0.101-1.261-0.101c-0.073,0.255-0.226,0.479-0.436,0.642
	c-0.058,0.036-0.125,0.053-0.194,0.049v-0.543c-0.812-0.442-0.495-0.881-0.1-1.43h0.1c0.146,0.264,0.39,0.459,0.679,0.542
	c-0.005-0.093,0.032-0.183,0.1-0.245H2.182v-0.101c0.115,0.016,0.233-0.001,0.339-0.049c-0.03-0.098-0.046-0.198-0.048-0.3
	c-0.278-0.182-0.413-0.516-0.339-0.838c-0.274-0.187-0.7-0.834-0.921-0.937H0.776c-0.111-0.143-0.263-0.247-0.436-0.3
	c0-0.993,0-1.686,0-2.661l1.939,0.345c0-0.71-0.02-1.134,0-1.676H2.23c-0.089,0.121-0.241,0.179-0.388,0.148v-0.627
	c0.152-0.008,0.303,0.027,0.436,0.1c0-0.053,0.016-0.105,0.048-0.148c-0.014,0.103,0.003,0.207,0.048,0.3v-0.055
	c0.031-0.043,0.048-0.095,0.048-0.147c0.157-0.041,0.074,0.023,0.145-0.101h-0.24V14.09h0.388l-0.048,0.148h1.018v-0.049l-1.5-0.591
	c-0.148-0.022-0.064,0.168-0.242,0.1v-0.1c-0.5-0.2-0.7,0.231-1.164-0.1c-0.036-0.06-0.053-0.13-0.048-0.2h0.045v-0.046
	c0.153,0.053,0.322,0.014,0.436-0.1c-0.156-0.04-0.304-0.107-0.436-0.2H0v-2.016h3.3l0.048,0.493
	c0.138,0.107,0.311,0.159,0.485,0.148v-0.1c-0.106-0.027-0.195-0.101-0.242-0.2c0.106-0.071,0.203-0.154,0.291-0.246
	c0.331,0.164,0.705,0.215,1.067,0.147v-0.2H5.43v-0.043c-0.156-0.115-0.34-0.185-0.533-0.2c0.001,0.053-0.016,0.105-0.048,0.148
	c-0.071-0.125,0.011-0.056-0.145-0.1v0.1c0.052,0,0.104,0.017,0.145,0.049H4.8v0.049l-0.145-0.046
	c-0.053-0.176-0.087-0.358-0.1-0.542C4.581,10.183,4.71,9.998,4.9,9.901c0.202-0.042,0.409,0.036,0.533,0.2
	c0.061-0.2,0.127-0.242,0.388-0.246c0.027,0.027,0.063,0.044,0.1,0.049v-0.3c0.037-0.06,0.053-0.13,0.048-0.2
	C5.892,9.375,5.81,9.358,5.727,9.355V9.216c0.095,0.029,0.196,0.029,0.291,0C6.078,9.118,6.186,9.06,6.3,9.063
	c0.331,0.095,0.674,0.145,1.018,0.148c0.086-0.046-0.02-0.2,0.291-0.148c0.783,0.147,1.583,0.181,2.376,0.1
	c0.172,0.268,0.5,0.806-0.1,0.838L9.837,9.952v0.1c0.361,0.262,0.314,0.919,0.824,0.937c0.547-0.062,1.098-0.079,1.648-0.049
	c0.429,0.108,0.867,0.175,1.309,0.2c0.098-0.009,0.195-0.026,0.291-0.049v-0.1c0.022-0.01,1.443,0.224,1.6,0.246
	c0.55,0.019,1.101,0.002,1.648-0.049c0.029,0.079,0.046,0.162,0.049,0.246c-0.982,0-1.831,0.095-2.715,0.1
	c0.005,0.069,0.021,0.136,0.049,0.2c-0.24,0.084-0.212,0.314-0.194,0.641H13.77v-0.2h-0.437v0.2h-0.581v-0.2h-0.243
	c0,0.153,0.063,0.3,0.049,0.394c-0.075,0.081-0.111,0.19-0.1,0.3c0.014,0.047,0.806,1.367,0.824,1.38h5.479V2.952
	c-0.041-0.313-0.023-0.63,0.051-0.936c0.016,4.057,0.032,8.115,0.049,12.173h0.1C19.074,14.132,19.041,14.192,19.249,14.238z
	 M4.9,10c-0.128,0.155-0.212,0.343-0.242,0.542h0.1c0.203,0.089,0.414,0.156,0.63,0.2v-0.1c-0.261-0.13-0.011-0.371-0.1-0.443
	C5.204,10.067,5.056,9.991,4.9,10z M5.579,10c-0.016,0.14-0.051,0.1,0,0.2c0.064,0.072,0.148,0.124,0.242,0.148v-0.053
	c0.04-0.075,0.057-0.161,0.048-0.246H5.818V10H5.576H5.579z M5.821,10.641v-0.149c-0.169-0.054-0.22-0.14-0.388-0.2v0.049
	c-0.037,0.06-0.053,0.13-0.048,0.2h0.1c0.101,0.06,0.216,0.094,0.333,0.099L5.821,10.641z M5.627,10.741
	c0.083,0.043,0.062,0.044,0.145,0H5.624H5.627z M10.475,11.135c0.054,0.052,0.14,0.052,0.194,0h-0.196H10.475z M11.251,11.135
	c0.219,0.083,0.46,0.083,0.679,0h-0.681H11.251z M11.542,11.48c0.256,0.131,0.555,0.149,0.824,0.049
	c-0.274-0.042-0.551-0.059-0.827-0.051L11.542,11.48z M13.191,11.529c0.154,0.073,0.332,0.073,0.485,0h-0.488H13.191z M4.17,12.957
	H3.83v0.049c0.135,0.182,0.32,0.318,0.533,0.394l0.048-0.3h0.195c0.058,0.037,0.126,0.053,0.194,0.049
	c0.014-0.12,0.048-0.236,0.1-0.345c0.1-0.023,0.198-0.057,0.291-0.1c-0.218-0.106-0.02-0.176-0.145-0.394
	c-0.252-0.07-0.517-0.087-0.776-0.049v-0.145h0.724c-0.011-0.166-0.08-0.321-0.194-0.441v0.148H4.218
	c0.001-0.054-0.016-0.105-0.048-0.148C4.174,12.155,4.171,12.453,4.17,12.957z M3.491,11.774v0.986h0.436v-0.986H3.491z
	 M12.073,12.168c0.097,0.138,0.178,0.287,0.242,0.444h0.049v-0.345c-0.027-0.027-0.044-0.063-0.049-0.1L12.073,12.168L12.073,12.168
	z M1.358,13.154c0,0.053,0.016,0.105,0.048,0.148c0.154-0.074,0.341,0.034,0.485-0.049c0.026-0.027,0.043-0.063,0.048-0.1
	L1.358,13.154L1.358,13.154z M2.619,13.154c0.089,0.078,0.187,0.145,0.291,0.2v-0.1c-0.041-0.025-0.075-0.059-0.1-0.1H2.619
	L2.619,13.154z M3.492,13.154c0.079,0.09,0.179,0.159,0.291,0.2l-0.145-0.2H3.492L3.492,13.154z M3.636,13.696v0.1
	c0.26,0.036,0.372,0.153,0.63,0.2v-0.1C4.079,13.771,3.861,13.702,3.636,13.696z M18.909,13.996c0.026,0.027,0.043,0.063,0.049,0.1
	h-0.049V13.996z M2.327,14.538c-0.009,0.117,0.007,0.235,0.048,0.345v-0.054c0.044-0.094,0.061-0.198,0.048-0.3h-0.1L2.327,14.538z
	 M2.375,15.475c-0.053,0.36-0.037,0.729,0.048,1.084c0.054-0.363,0.038-0.732-0.047-1.089L2.375,15.475z M25.018,16.46l-0.05-0.69
	h-0.047v0.101c-0.206,0.106-0.209,0.216-0.194,0.542h0.101c0.058,0.033,0.124,0.049,0.19,0.043V16.46z M21.717,15.918
	c-0.058,0.051-0.094,0.123-0.1,0.2h0.049v0.049c0.125-0.022,0.244-0.074,0.346-0.151c0.027-0.027,0.044-0.063,0.049-0.1h-0.049
	c-0.063,0.1-0.047,0.012-0.291,0L21.717,15.918z M22.105,15.918c0.082,0.043,0.062,0.044,0.145,0h-0.141H22.105z M34.323,17.594
	l0.1,0.301h0.05v-0.257L34.323,17.594z M2.371,18.432c-0.006,0.07,0.011,0.141,0.048,0.2c0.009-0.071-0.006-0.144-0.043-0.205
	L2.371,18.432z M2.129,18.975H1.648v0.041l0.485,0.444v-0.491L2.129,18.975z M33.5,20.201c-0.184,0.113-0.643-0.018-0.824,0.1
	l0.824,0.1c0.004-0.037,0.021-0.072,0.048-0.1C33.544,20.264,33.527,20.229,33.5,20.201z M39.415,20.645
	c0.026,0.027,0.062,0.045,0.101,0.049c-0.027-0.025-0.061-0.043-0.098-0.049H39.415z M3.342,20.793l-0.048,0.2h0.051
	c0.236-0.067,0.484-0.085,0.728-0.05l0.048-0.147H3.345L3.342,20.793z M10.76,20.793c-0.181,0.088-0.382,0.122-0.582,0.1v0.101
	h0.242c0.172-0.064,0.361-0.064,0.533,0l0.049-0.2h-0.238H10.76z M12.021,20.793l0.048,0.2h0.049c0.34-0.212,0.958,0.138,1.261-0.05
	L12.021,20.793z M19.439,20.793c0.219,0.082,0.46,0.082,0.679,0h-0.676H19.439z M34.857,21.286v-0.2h-0.53v0.049
	c0.151,0.118,0.343,0.172,0.534,0.15L34.857,21.286z M20.215,21.186c0.083,0.043,0.062,0.045,0.145,0h-0.142H20.215z M36.555,21.186
	v0.101h0.047v-0.101h-0.043H36.555z M36.748,21.386c-0.172-0.063-0.361-0.063-0.533,0c-0.053,0.126-0.094,0.345-0.146,0.493h0.05
	c0.281-0.047,0.52-0.233,0.634-0.495L36.748,21.386z M35.486,21.386v0.246c-0.129,0.058-0.086-0.044-0.145,0.101h0.194
	c0.037-0.034,0.108-0.065,0.146-0.101c-0.07-0.075-0.117-0.176-0.19-0.248L35.486,21.386z M34.857,21.686v-0.252h-0.101
	c-0.037,0.033-0.108,0.064-0.146,0.1c0.074,0.147,0.224,0.242,0.389,0.246c0.042-0.032,0.152-0.066,0.193-0.101h-0.332
	L34.857,21.686z M1.552,21.531L1.5,21.777c0.07,0.055,0.154,0.089,0.242,0.101c0.063-0.087,0.099-0.192,0.1-0.3H1.794v-0.047H1.552z
	 M2.279,22.073c0.157-0.041,0.074,0.024,0.145-0.101c-0.064-0.119,0.052-0.145-0.1-0.246v0.049
	C2.281,21.869,2.266,21.973,2.279,22.073L2.279,22.073z M5.867,22.273c-0.05,0.194-0.052,0.3,0.194,0.345l0.1-0.345H5.867z
	 M7.031,22.273H6.836v0.1c-0.04,0.075-0.057,0.161-0.048,0.246h0.048c0.067-0.051,0.117-0.121,0.145-0.2
	c0.032-0.043,0.049-0.095,0.049-0.147L7.031,22.273z M7.176,22.273c0,0.053,0.016,0.105,0.048,0.147
	c0.466-0.058,0.937-0.073,1.406-0.049c0.026-0.027,0.043-0.063,0.048-0.101h-1.5L7.176,22.273z M10.861,23.357
	c-0.001-0.313-0.084-0.618-0.242-0.888v-0.054h-0.292v-0.145c-0.355-0.057-0.718-0.039-1.067,0.049
	c-0.146,0.271-0.213,0.578-0.194,0.887h-0.29c0.042-0.061,0.042-0.14,0-0.2c-0.16,0.101-0.159,0.062-0.339-0.049
	c-0.112,0.219-0.058,0.075-0.242,0c-0.021,0.056-0.056,0.231-0.1,0.101c-0.04-0.044-0.09-0.078-0.145-0.101
	c-0.021,0.056-0.056,0.231-0.1,0.101c-0.042-0.037-0.055-0.063-0.1-0.101c-0.077,0.11-0.079,0.101-0.145,0.101
	c-0.042-0.037-0.055-0.063-0.1-0.101c-0.121,0.104-0.277,0.157-0.436,0.147c-0.039-0.127-0.125-0.234-0.242-0.299
	c-0.042-0.032-0.093-0.049-0.145-0.05c-0.135,0.417-0.458,0.745-0.873,0.888c-0.148,0.021-0.294,0.054-0.436,0.1h0.1
	c0.462,0.438,0.987,0.805,1.557,1.089c-0.125-0.538,0.211-1.075,0.749-1.199c0.169-0.039,0.346-0.034,0.512,0.017
	c0.45,0.151,0.4,0.656,0.97,0.689c0.184-0.39,0.521-0.494,0.679-0.887L10.861,23.357z M12.752,22.273v0.143h-0.34
	c-0.114,0.283-0.18,0.582-0.194,0.887c0.239,0.056,0.482,0.09,0.727,0.1c0.365,0.221,0.652,0.547,0.824,0.937h0.388
	c0.144-0.282,0.361-0.521,0.63-0.69c0.535-0.126,1.079,0.172,1.261,0.69c0.002,0.182,0.019,0.363,0.049,0.542
	c0.322-0.445,1.21-0.6,1.406-1.133c-0.109-0.035-0.224-0.052-0.339-0.049c-0.089,0.006-0.174,0.041-0.242,0.1
	c0.005-0.068,0.022-0.137,0.049-0.199c-0.133-0.061-0.263-0.127-0.388-0.201c-0.029,0.056-0.083,0.094-0.145,0.101
	c0-0.54-0.187-0.267-0.388-0.591c0.132-0.139,0.031-0.191,0-0.444c-0.239-0.012-0.472-0.08-0.679-0.2h-2.619V22.273z M6.691,22.473
	v-0.156H6.448v0.1H6.5c0.057,0.037,0.124,0.055,0.191,0.052V22.473z M16.146,22.473c0.02,0.071,0.074,0.127,0.145,0.148v-0.105
	h-0.049c-0.026-0.025-0.061-0.043-0.097-0.048L16.146,22.473z M5.046,22.673c-0.132-0.022-0.261-0.057-0.388-0.1v0.1
	c0.099,0.1,0.213,0.183,0.339,0.246v-0.058h0.045v-0.199L5.046,22.673z M6.404,22.573v0.1c0.074-0.067,0.055-0.028-0.004-0.106
	L6.404,22.573z M4.218,22.616v0.1h0.1v-0.1H4.218z M23.079,22.716v0.246h0.63v-0.246H23.079z M5.479,22.766
	c-0.081,0.067-0.147,0.15-0.194,0.245h0.291c0.037-0.034,0.108-0.064,0.145-0.1c0.026-0.027,0.043-0.063,0.048-0.101h-0.1
	c-0.057-0.035-0.123-0.052-0.19-0.048V22.766z M6.497,22.766c0.027,0.026,0.062,0.043,0.1,0.049
	c-0.026-0.027-0.06-0.045-0.097-0.052L6.497,22.766z M4.364,22.865l0.048,0.147h0.049v-0.052h0.048
	c-0.042-0.041-0.092-0.074-0.145-0.1V22.865z M6.449,23.111c0.001-0.055-0.017-0.107-0.049-0.15
	c-0.084-0.064-0.078-0.085-0.145-0.049c-0.026,0.027-0.043,0.063-0.048,0.1c0.071,0.053,0.154,0.086,0.241,0.096L6.449,23.111z
	 M16.437,22.963c0.006,0.063,0.043,0.119,0.1,0.148v0.049h0.049v-0.15h-0.053c-0.026-0.025-0.061-0.043-0.097-0.049L16.437,22.963z
	 M4.607,23.063c0,0.134-0.064,0.08,0.1,0.148v-0.053c-0.046-0.037-0.059-0.063-0.101-0.1L4.607,23.063z M6.062,23.063
	c-0.034,0.098-0.034,0.203,0,0.301h0.1v-0.057c0.026-0.028,0.043-0.063,0.048-0.101c-0.053-0.046-0.103-0.095-0.149-0.147
	L6.062,23.063z M4.85,23.263v0.044H4.8c-0.093,0.037,0.1,0.049,0.1,0.049v0.049h0.045v-0.148h-0.1L4.85,23.263z M5.723,23.263
	l0.047,0.24h0.145l-0.048-0.247H5.721L5.723,23.263z M16.729,23.263v0.101l0.194,0.049v-0.1h-0.05v-0.057h-0.146L16.729,23.263z
	 M5.139,23.307l-0.048,0.245h0.1v0.05c0.049,0.049,0.048-0.05,0.048-0.05C5.308,23.416,5.25,23.388,5.139,23.307z M5.43,23.355
	v0.246c0.067-0.006,0.132-0.022,0.194-0.05c-0.026-0.063-0.042-0.131-0.048-0.2H5.43V23.355z M17.309,23.602
	c0.174-0.021,0.122,0.022,0.194-0.101c-0.067-0.005-0.132-0.022-0.194-0.049V23.6V23.602z M17.842,23.453
	c-0.061,0.035-0.111,0.086-0.145,0.148h0.145l0.048-0.148H17.842z M10.521,23.652c0.1,0.101,0.243,0.146,0.339,0.246
	c0.038-0.004,0.074-0.021,0.1-0.049h0.049v-0.052c-0.056-0.029-0.093-0.085-0.1-0.147h-0.388V23.652z M12.072,23.898
	c0.168-0.049,0.331-0.116,0.485-0.199V23.65H12.17c-0.025,0.041-0.059,0.076-0.1,0.101v0.147H12.072z M11.393,23.898
	c-0.003,0.117-0.019,0.232-0.048,0.346H11.3v0.049h-0.148c0.064,0.363-0.023,0.738-0.242,1.035h1.26v-0.051
	c-0.264-0.255-0.357-0.639-0.242-0.986h-0.146c-0.098-0.218-0.056-0.38-0.388-0.395L11.393,23.898z M8.921,24.932
	c-0.066,0.141-0.147,0.272-0.242,0.395H9.5v-0.049c-0.105-0.088-0.174-0.211-0.194-0.346H8.921z M13.769,24.932
	c-0.042,0.143-0.107,0.275-0.194,0.395H14.4v-0.049C14.273,25.051,14.029,24.917,13.769,24.932L13.769,24.932z"/>
</svg>
