<svg xmlns="http://www.w3.org/2000/svg" width="40" height="40" viewBox="0 0 40 40">
  <defs>
    <style>
      .cls-1 {
        fill: #fff;
        fill-rule: evenodd;
      }
    </style>
  </defs>
  <path id="Color_Fill_1" data-name="Color Fill 1" class="cls-1" d="M12.981,8a0.147,0.147,0,0,1,0,.2V8Zm1.107,8.3h1.006a0.693,0.693,0,0,1,.3-0.755,0.364,0.364,0,0,0,.453.05,0.467,0.467,0,0,1-.4-0.1H16c0.15,0.327,1.266.09,1.409,0.151V15.5a0.74,0.74,0,0,1-.1-0.352h0.906c0.01-.07-0.041.02-0.05-0.05-0.1-.039.1-0.05,0.1-0.05A0.728,0.728,0,0,1,18.616,15a1.155,1.155,0,0,0,.3.352v-0.3h0.151V14.492a1.662,1.662,0,0,0,.352-0.5,1.013,1.013,0,0,0,.4-0.3h0.654c0.008,0.536.113,0.91,0.1,1.309a1.141,1.141,0,0,1,.654.5,10.743,10.743,0,0,0-.1,1.107h0.151a0.243,0.243,0,0,0,.05.151,3.8,3.8,0,0,0,.553.2c0.04-.339.223-0.326,0.6-0.3,0.419,0.257.9-.188,1.308-0.05a15.333,15.333,0,0,0,3.371.151,4.021,4.021,0,0,1,1.308,0c0.4,0.173.872-.205,1.207,0a0.675,0.675,0,0,1,.3.3,1.488,1.488,0,0,1,.906,0l0.2,0.352H31.9a4.7,4.7,0,0,0,1.66.05l4.075-.05a0.272,0.272,0,0,0,.151.2,2.362,2.362,0,0,0,1.107,0v0.4l-0.755-.05v0.1h0.1a0.436,0.436,0,0,1,.252-0.05v0.05h-0.1a0.879,0.879,0,0,1-.6-0.1,9.926,9.926,0,0,1-1.358,0c-0.79,0-.962.058-1.811,0.05v0.05c0.267,0.212.849,1.114,1.057,1.208h1.006a18.82,18.82,0,0,1,2.113-.05,0.272,0.272,0,0,0,.151.2,2.229,2.229,0,0,0,1.057,0v0.4l-0.755-.05v0.05H39.3a1.087,1.087,0,0,1,.352.05l-0.453.05c-0.224-.066-2.192-0.373-2.465,0-0.042.057-.05-0.05-0.05-0.05a1.163,1.163,0,0,0-.8-0.1c-0.539.122-1.13,0.066-1.711,0.2a19.35,19.35,0,0,1-2.968.352v0.252h0.1a5.205,5.205,0,0,1,1.912-.352,0.79,0.79,0,0,1,.05.252h-0.05v0.05a10.5,10.5,0,0,0-2.767.6c1.549,0,2.92-.1,4.377-0.1v0.05h0.05v0.151a2.271,2.271,0,0,1,.6.252c0.423,0.167,1.235-.136,1.509,0a0.439,0.439,0,0,1,.1.453h-0.05v0.05a0.988,0.988,0,0,0-.8.2c0.108,0.2-.292.515-0.151,0.6a8.159,8.159,0,0,0,1.157.956,0.752,0.752,0,0,1,.05.352H38.44a0.339,0.339,0,0,1,.2-0.05v0.05c-0.058.022-.236,0.058-0.1,0.1v0.05h0.05c0.078,0.036.007,0.006,0.151,0a3.649,3.649,0,0,0,.3.755v0.3a1.282,1.282,0,0,1,.252.3,0.518,0.518,0,0,1-.1.3q0.025,0.378.05,0.755a2.83,2.83,0,0,0-.6.05,3.26,3.26,0,0,1-.453.6,5.878,5.878,0,0,1-.3.755,7.957,7.957,0,0,1-2.013,1.258,12.606,12.606,0,0,1-2.767,1.51l-0.855.05a8.394,8.394,0,0,1-1.51.05H11.321a12.461,12.461,0,0,1-2.667-.05,9.359,9.359,0,0,1-2.667-1.208c-0.228-.138-0.477-0.164-0.7-0.3a3.709,3.709,0,0,0-1.057-.6,1.347,1.347,0,0,0-.5-0.654l0.05-.2a1.593,1.593,0,0,1-.1-1.007H2.164v-0.05a7.535,7.535,0,0,0,.453-2.013h-0.3a4.8,4.8,0,0,1-.906,0,0.815,0.815,0,0,1-.755.4A2.29,2.29,0,0,1,.3,24.91a0.173,0.173,0,0,0,.1-0.05H0.352V24.81C0.233,24.88.323,24.9,0.2,24.86a0.3,0.3,0,0,1-.05-0.4L0,24.508V24.357A3.359,3.359,0,0,0,.05,23.8c0.335-.159.526-0.483,0.855-0.6v0.05a0.614,0.614,0,0,0-.2.2,0.172,0.172,0,0,1,.1.05,7.791,7.791,0,0,1,1.61.151,2.769,2.769,0,0,1,.553-1.309,0.2,0.2,0,0,0,.2.1,7.036,7.036,0,0,0,.5-0.6,0.406,0.406,0,0,1,0-.352h0.1c0.09,0.057.312,0.032,0.4,0.1,0.152,0.114-.084.123,0.1,0.2,0.049,0.013.019,0.04,0.05,0,0.075-.045.27-0.167,0.2-0.2a0.922,0.922,0,0,0,.05-0.3c0.465,0.051.95-.2,1.358-0.1,0.042-.163-0.025-0.077.1-0.151a11.822,11.822,0,0,0,1.711,0h5.283a1.713,1.713,0,0,1,.05-0.4H10.465a0.2,0.2,0,0,0-.151-0.1v0.252H8.7c0-1.022.068-2.044,0-3.02,0.2,0,.226.025,0.3-0.1H8.855V17.411h0.1a3.669,3.669,0,0,1,1.359-.05,0.759,0.759,0,0,0,.1-0.2,4.3,4.3,0,0,1,0-.654h0.3a1.13,1.13,0,0,1,.3-0.554,2.02,2.02,0,0,0,1.006.151V13.838a1.646,1.646,0,0,1-.352-0.2,3.929,3.929,0,0,0-.6.151,2.415,2.415,0,0,0-.252-0.956,0.339,0.339,0,0,0-.2-0.05v0.2h-0.1a0.665,0.665,0,0,1-.1-0.4h0.1c0.106,0.171.045,0.108,0.3,0.1V12.63a2.423,2.423,0,0,1-.252-1.007,4.271,4.271,0,0,0,1.409-.4c-0.148.02-.063,0.082-0.151-0.05,0.156-.1.075-0.192,0.05-0.4a0.891,0.891,0,0,1-.2-0.1h0.05a0.256,0.256,0,0,1,.151-0.05v-0.3c0.111,0.026.1,0.057,0.2,0a3.565,3.565,0,0,0,.151-0.956,0.58,0.58,0,0,1,.352-0.1,4.981,4.981,0,0,0,1.358.151,11.378,11.378,0,0,1,.554,2.013,12.133,12.133,0,0,1,.654,2.667,3.941,3.941,0,0,1-1.51.906,1.077,1.077,0,0,1-.2-0.352h-0.05v0.1c0.18,0.231.165,0.621,0.352,0.856a1.137,1.137,0,0,1,.3.2A0.985,0.985,0,0,1,14.088,16.3Zm-2.113-5.838v0.1h0.1v-0.1h-0.1Zm0.553,3.372c0.042,0.163-.025.077,0.1,0.151A0.191,0.191,0,0,0,12.528,13.838Zm0,0.2c0,0.773,0,1.069,0,1.812a1.453,1.453,0,0,0,.453.05,3.187,3.187,0,0,1,.05-1.208l0.05,1.208h0.4a0.172,0.172,0,0,1,.05-0.1,5.122,5.122,0,0,0-.5-1.107,4.286,4.286,0,0,0-.2-0.6v-0.05h-0.3Zm6.742,0.453a1.166,1.166,0,0,0-.1.6,1.075,1.075,0,0,1,.05.5h0.05a3.39,3.39,0,0,0,.553-0.554A2.058,2.058,0,0,1,19.27,14.492Zm0.654,0.6a2.514,2.514,0,0,0-.7.755c0.419,0.078.324,0.26,0.453,0.453a0.181,0.181,0,0,1,.1-0.05,1.362,1.362,0,0,1-.1-0.7A3.079,3.079,0,0,0,19.925,15.1Zm-1.258.554a0.325,0.325,0,0,0,.05.2,0.638,0.638,0,0,1,.05-0.2h-0.1Zm1.107,0.7a0.533,0.533,0,0,0-.1.252h0.1v-0.05A0.147,0.147,0,0,0,19.774,16.355Zm0.151,0.05c0.02,0.127-.029.079,0.151,0.1v-0.05Zm0.956,0a0.181,0.181,0,0,1-.1.05v0.05C20.921,16.487,20.969,16.517,20.881,16.4Zm9.157,0.7a0.309,0.309,0,0,0-.1.2c0.034,0.039.066,0.112,0.1,0.151a2.08,2.08,0,0,1,.906-0.05v-0.05a0.886,0.886,0,0,0-.2-0.151A2.983,2.983,0,0,0,30.038,17.109Zm-0.352.1,0.05,0.2a283.379,283.379,0,0,0,.1-0.2H29.686ZM31.2,17.562a1.144,1.144,0,0,0,.755.05A4.172,4.172,0,0,0,31.2,17.562Zm5.434,0c-0.166.1-.59,0-0.755,0.1a5.78,5.78,0,0,0,1.56-.05v-0.05h-0.1A1.771,1.771,0,0,1,36.629,17.562Zm-3.824.05a6.188,6.188,0,0,0,1.811,0H32.805Zm-23.447.05a0.181,0.181,0,0,0,.1.05A0.182,0.182,0,0,0,9.358,17.663Zm0.5,0a0.579,0.579,0,0,0,.553.05ZM32,18.267v0.151l1.459-.252a0.533,0.533,0,0,1,.1.252l-0.151.05c-0.339.215-.985,0.07-1.308,0.3,0.559,0.051.484,0.438,1.107,0.453a9.236,9.236,0,0,0,2.214.05v-0.05c-0.431-.292-0.709-1.1-1.258-1.208A11.364,11.364,0,0,1,32,18.267Zm-0.151.2V18.317l-0.7.05-0.151.2h0.3A1.178,1.178,0,0,1,31.849,18.468Zm-1.308,0c0.087,0.044.064,0.045,0.151,0H30.541Zm-0.3.05,0.05,0.151h0.05v-0.1Zm1.409,0.3a0.418,0.418,0,0,0,.4.252,1.166,1.166,0,0,0,.5.1v-0.05A1.99,1.99,0,0,0,31.648,18.821Zm-0.906.151a0.636,0.636,0,0,1-.05.2c0.109,0.063.108,0.207,0.2,0.252h0.654a0.551,0.551,0,0,1,.1-0.151v-0.1H31.6v-0.05A5.029,5.029,0,0,0,30.742,18.972Zm1.107,0.4a1.7,1.7,0,0,0,.855,0,3.943,3.943,0,0,1-.855-0.151v0.151Zm1.006,0c0.087,0.044.064,0.045,0.151,0H32.855Zm4.88,0c-0.166.1-.59,0-0.755,0.1a9.054,9.054,0,0,0,1.61-.05v-0.05A6.648,6.648,0,0,1,37.736,19.374Zm-3.824.05a1.863,1.863,0,0,0,1.057,0H33.912Zm-2.918.906v0.3h0.05v-0.05a0.34,0.34,0,0,0,.05-0.2Zm-0.2.05c0.084,0.056.054,0.089,0.1,0h-0.1Zm4.729,1.812v0.151a1.76,1.76,0,0,0,.3.1v-0.05A2.454,2.454,0,0,1,35.522,22.193ZM0.5,22.948l0.3-.05v0.05H0.755A0.5,0.5,0,0,1,.5,23.1V22.948Zm0.4,0.1a0.638,0.638,0,0,1,.2.05v0.05h-0.1C0.969,23.1.943,23.092,0.906,23.048ZM1.157,23.1a0.181,0.181,0,0,1,.05.1H1.157V23.1Zm-0.151.252h0.1V23.4A0.172,0.172,0,0,1,1.006,23.35Zm-0.151.2-0.05.1C0.893,23.582.855,23.551,0.855,23.551Zm0.252,0v0.1a0.325,0.325,0,0,0,.2-0.05Zm-0.151.05a0.181,0.181,0,0,0,.1.05A0.181,0.181,0,0,0,.956,23.6Zm0.151,0.1c0.074,0.114.132,0.255,0.2,0.1Zm-0.855.05L0.2,23.9h0.05v-0.05c0.028-.036.073,0,0.05-0.1H0.252ZM0.1,24v0.1h0.05A0.172,0.172,0,0,0,.1,24Zm38.742,0.5h0.1v0.05A0.172,0.172,0,0,1,38.843,24.508Zm-38.692.05v0.1H0.2v-0.1H0.151Zm0.4,0.453a0.181,0.181,0,0,0,.1.05A0.181,0.181,0,0,0,.553,25.011Zm6.189,3.624a2.026,2.026,0,0,0-.6-0.05,0.549,0.549,0,0,1-.1.151v0.1A5.744,5.744,0,0,1,7.4,29.49V29.339a1.574,1.574,0,0,1-.151-0.906H7.195a0.559,0.559,0,0,1-.453,0v0.2Zm22.39-.2a2.413,2.413,0,0,1-.654,1.711h2.113v-0.05a1.951,1.951,0,0,1-.654-1.107,2.6,2.6,0,0,0-.05-0.554A1.216,1.216,0,0,1,29.132,28.433Zm5.233,0.05a2.85,2.85,0,0,1-.1.805h0.05a8.107,8.107,0,0,0,1.409-.855h-0.1A3.362,3.362,0,0,1,34.365,28.484Zm-22.742.6a2.029,2.029,0,0,1-.6,1.057h1.258v-0.05A4.522,4.522,0,0,1,11.623,29.088Zm4.377,0a2.482,2.482,0,0,1-.6,1.057h1.258v-0.05A3.709,3.709,0,0,1,16,29.088Zm8.7,0a2.482,2.482,0,0,1-.6,1.057h1.258v-0.05A2.436,2.436,0,0,1,24.7,29.088Zm-4.377.1a1.8,1.8,0,0,1-.553.956h1.208v-0.05C20.669,29.88,20.569,29.331,20.327,29.188Z" transform="translate(0 0.5)"/>
</svg>
