<?xml version="1.0" encoding="utf-8"?>
<!-- Generator: Adobe Illustrator 16.0.0, SVG Export Plug-In . SVG Version: 6.00 Build 0)  -->
<!DOCTYPE svg PUBLIC "-//W3C//DTD SVG 1.1//EN" "http://www.w3.org/Graphics/SVG/1.1/DTD/svg11.dtd">
<svg version="1.1" id="Layer_1" xmlns="http://www.w3.org/2000/svg" xmlns:xlink="http://www.w3.org/1999/xlink" x="0px" y="0px"
	 width="39.969px" height="40px" viewBox="0 0 39.969 40" enable-background="new 0 0 39.969 40" xml:space="preserve">
<path id="Color_Fill_1" fill="#FFFFFF" d="M21.395,15.028h1.817c-0.019-0.135-0.002-0.273,0.049-0.4v0.4h1.13v0.2
	c0.433,0.115,0.883,0.149,1.327,0.1h2.8c0.306,0.076,0.623,0.093,0.935,0.05h2.26c1.554,0,3.195,0.05,4.815,0.05
	c0.509,0.021,1.018,0.004,1.523-0.05l0.541,0.05c0.422-0.074,0.85-0.108,1.278-0.1c0.083,0.169,0.118,0.358,0.1,0.546
	c-0.085,0.063-0.188,0.098-0.295,0.1c-0.444,0.013-0.89-0.02-1.327-0.1c-0.853,0.051-2.084,0-3.1,0l-10.762,0.1
	c-0.055,0.092-0.088,0.194-0.101,0.3h-0.437v0.442c-0.77,0-1.454,0-2.113,0v0.1c0.152,0.179,0.226,0.413,0.2,0.646v0.101
	c-0.144,0-0.068-0.049-0.147,0c-0.074,0.107-0.131,0.25-0.199,0.348h0.199c0.619-0.111,1.255-0.095,1.867,0.05
	c0.245-0.027,0.492-0.027,0.737,0c0.108,0.093,0.253,0.13,0.393,0.101c0.164-0.473,0.433-0.375,1.032-0.349
	c0.027,0.027,0.063,0.045,0.1,0.05c0.082,0.153,0.117,0.327,0.101,0.5c-0.104,0.111-0.173,0.25-0.2,0.4
	c0.37-0.009,0.738,0.06,1.081,0.199c0.005-0.139,0.039-0.274,0.101-0.399c0.037,0.005,0.072,0.022,0.1,0.05
	c0.047,0.109,0.064,0.23,0.049,0.348c0.862-0.117,1.728,0.199,2.311,0.846c0.119,0.219,0.268,0.421,0.441,0.6v0.051h-0.057
	c-0.125,0.129-0.275,0.231-0.441,0.3c0.063,0.087,0.099,0.192,0.1,0.3h-0.051c-0.029-0.056-0.084-0.094-0.146-0.1
	c-0.057,0.092-0.207,0.175-0.246,0.248c-0.066,0.302-0.148,0.6-0.246,0.894c-0.355,0.38-0.77,0.699-1.229,0.944
	c-0.812,0.747-1.72,1.383-2.701,1.888c-0.663,0.127-1.342,0.156-2.014,0.087H9.748c-1.393,0.119-2.794,0.086-4.179-0.1
	c-0.672-0.303-1.313-0.669-1.916-1.094c-0.638-0.392-1.724-0.66-2.064-1.242c0.042-0.094,0.023-0.037,0-0.148
	c-0.166-0.075-0.3-0.242-0.442-0.3c-0.204-0.009-0.404-0.059-0.588-0.146c-0.504-0.509-0.676-1.261-0.442-1.938
	c0.185-0.2,0.4-0.368,0.639-0.5c0.053-0.074-0.053-0.116,0-0.2c0.069,0.09,0.186,0.129,0.295,0.1
	c-0.045-0.255-0.111-0.531-0.148-0.791c0.347,0.022,0.382-0.213,0.491-0.5c-0.053,0-0.105-0.018-0.147-0.051h0.049
	c0.027-0.027,0.063-0.045,0.1-0.05c0.068,0.128,0.147,0.2,0.246,0.149c0.078-0.045,0.148-0.043,0.246-0.101v-0.1
	c0.025-0.013,1.107-0.026,1.229,0c0.206,0.067,0.422,0.101,0.639,0.1c0.146-0.078,0.279-0.18,0.393-0.3H5.03
	c0.375-0.055,0.752-0.089,1.13-0.1v0.348c0.308-0.065,0.626-0.065,0.934,0v0.05h0.049c0.677-0.149,1.375-0.183,2.064-0.101
	c0.628,0.145,1.273,0.194,1.916,0.149v-0.2c-0.909,0-1.865-0.039-2.7-0.05v-0.239c-0.142-0.177-0.364-0.271-0.59-0.248
	c-0.21,0.044-0.425,0.061-0.639,0.05c-0.57,0.094-1.147,0.145-1.725,0.15c-0.006-0.068-0.022-0.136-0.049-0.2
	c-0.02,0.072-0.075,0.128-0.147,0.149v-0.2c0.064-0.131,0.045-0.289-0.049-0.4c0.173-0.1,0.182-0.008,0.2-0.3
	c0.109-0.304,0.176-0.622,0.2-0.944c0.142-0.667,0.356-1.317,0.639-1.938c0.386,0.093,0.786,0.11,1.179,0.05
	c0.012-0.021,0.029-0.038,0.049-0.05c-0.072-0.529,0.298-1.016,0.826-1.088c0.083-0.011,0.168-0.012,0.251-0.001
	c0.208,0.116,0.406,0.25,0.59,0.4c0.113,0.155,0.039,0.521,0.147,0.7c0.272-0.129,0.535-0.279,0.786-0.447
	c0.062-0.27,0.179-0.523,0.344-0.745c0.314-0.115,0.652-0.149,0.983-0.1c0.851,0,1.78,0.009,2.555,0.05
	c0.058,0.059,0.108,0.126,0.147,0.2c0.072,0.101,0.108,0.224,0.1,0.348h0.248c0.058,0.132-0.044,0.089,0.1,0.149
	c0.187,0.078,0.389,0.112,0.59,0.1v-0.1c0.03-0.131,0.03-0.268,0-0.4c0.063-0.068,0.153-0.104,0.246-0.1v0.05h0.049v-0.05
	c0.04-0.037,0.093-0.055,0.147-0.05c0.07-0.004,0.14,0.013,0.2,0.05v-0.1c0.333-0.552-0.235-2.981,0.1-3.528v2.633
	c-0.051,0.351-0.017,0.708,0.1,1.043c0.753,0.615,1.9,0.508,3.145,0.5c0.335,0.098,0.683,0.148,1.032,0.148
	c-0.22-0.043-0.403-0.193-0.491-0.399h0.1c0.379,0.31,0.813,0.547,1.277,0.7v0.14h-0.063l-0.541-0.248v0.1
	c0.483,0.235,0.88,0.618,1.13,1.093h-0.048c-0.06-0.154-0.019-0.112-0.2-0.149v0.05h-0.046
	C21.329,14.786,21.369,14.855,21.395,15.028z M12.254,13.239l-0.049-0.248h0.1c0.036,0.2,0,0.159,0.2,0.2
	c0.204-0.15,0.439-0.252,0.688-0.3v0.1h-0.1c-0.092,0.06-0.191,0.11-0.295,0.149c0.027,0.027,0.063,0.044,0.1,0.05
	c0.13,0.059,0.282,0.04,0.393-0.05c-0.054,0-0.106-0.017-0.148-0.05c0.05-0.127,0.161-0.22,0.295-0.248
	c0.129,0.032,0.264,0.032,0.393,0l0.049,0.2c0.165-0.082,0.031-0.094,0.2,0v-0.25c-0.026-0.027-0.044-0.063-0.049-0.1l-0.148-0.05
	c-0.305-0.076-0.622-0.093-0.934-0.05h-2.415c-0.119,0.189-0.218,0.391-0.295,0.6h0.393C11.165,13.308,11.715,13.324,12.254,13.239
	L12.254,13.239z M15.399,13.239h0.393v-0.3h-0.246C15.456,13.014,15.402,13.123,15.399,13.239L15.399,13.239z M15.939,12.939v0.248
	c0.242,0.052,0.49,0.068,0.737,0.05v-0.05c-0.261-0.062-0.445-0.18-0.736-0.245L15.939,12.939z M13.58,13.139
	c0.064,0.066,0.153,0.103,0.246,0.1c0.027-0.027,0.062-0.045,0.1-0.05v-0.05H13.58L13.58,13.139z M9.157,13.539l-0.049,0.149h0.1
	C9.208,13.634,9.191,13.581,9.157,13.539L9.157,13.539z M25.914,17.861c0.026,0.11,0.076,0.213,0.146,0.301l-0.049-0.301h-0.1
	H25.914z M3.801,18.011c0.027,0.027,0.063,0.045,0.1,0.05C3.875,18.033,3.84,18.016,3.801,18.011L3.801,18.011z M25.717,18.855
	c0.089,0.063,0.207,0.063,0.295,0H25.717L25.717,18.855z M0.803,19.204c0.054-0.001,0.105,0.017,0.147,0.05
	c-0.053,0-0.105-0.019-0.146-0.052L0.803,19.204z M0.264,21.141h0.147c0.339-0.251,0.596-0.598,0.737-0.994
	c-0.035-0.223-0.159-0.42-0.344-0.547C0.224,20.133,0.169,20.066,0.264,21.141z M1.296,20.991c-0.067,0.063-0.104,0.154-0.1,0.248
	c-0.026,0.027-0.043,0.062-0.049,0.1c0.084,0.002,0.167,0.019,0.246,0.05l0.049-0.3C1.387,21.068,1.336,21.034,1.296,20.991z
	 M0.854,21.491c0.021-0.104,0.055-0.204,0.1-0.3H0.903c-0.134,0.117-0.313,0.172-0.491,0.148l0.147,0.2L0.854,21.491z M4.245,22.684
	c-0.073,0.053-0.157,0.087-0.246,0.101v0.1l0.393,0.149v-0.301L4.245,22.684z M8.569,22.929c-0.055,0.404-0.225,0.784-0.491,1.093
	h2.26v-0.1c-0.248-0.326-0.431-0.697-0.54-1.093c-0.064,0.123,0.021,0.034-0.1,0.1c0.006-0.069-0.012-0.14-0.049-0.2
	c-0.261,0.363-0.272,0.06-0.491,0.101l-0.049,0.1C8.929,22.939,8.749,22.939,8.569,22.929z M15.891,22.729h-1.822v0.101
	c-0.062,0.196-0.111,0.397-0.147,0.6c-0.117,0.21-0.248,0.409-0.393,0.601h2.85v-0.101c-0.34-0.302-0.521-0.745-0.489-1.198
	L15.891,22.729z M20.117,22.729c-0.083,0.466-0.268,0.906-0.541,1.293h2.8v-0.051c-0.319-0.338-0.511-0.777-0.541-1.242h-1.72
	H20.117z"/>
</svg>
