<?xml version="1.0" encoding="UTF-8"?>
<svg id="armor" xmlns="http://www.w3.org/2000/svg" width="40" height="50" viewBox="0 0 40 50">
  <defs>
    <style>
      .cls-1 {
        fill: #fff;
        fill-rule: evenodd;
      }
    </style>
  </defs>
  <g id="armor_right">
    <path class="cls-1" d="M19.6,8.28c-.19.1-.36.24-.5.41-.5.62-.76,1.01-.76,1.01-.1.15-.17.31-.22.48l-1.46,5.47-3.52,11.12-.97,2.83c-.07.19-.1.39-.09.59l.09,2.79c-.12.82-.43,3.64.6,5.5,1.2,2.16,4.4,3.64,4.4,3.64.81.36,1.76,0,2.14-.79,0,0,.65-1.37,1.02-2.51.05-.14.09-.27.12-.41l3.5,1.59c.49.22,1.05.19,1.51-.08.46-.27.76-.76.79-1.29l.29-4.16c.05-.7-.36-1.36-1.02-1.63l-2-.81,1.01-5.13c.04-.21.04-.43,0-.65,0,0-1.09-5.26-1.67-9.63-.02-.14-.06-.29-.11-.42-.19-1.52-.35-2.84-.48-3.95.08-.06.16-.13.23-.2,2.31-2.5,2.83-4.09,9.4-6.52l4.2-1.38c.69-.23,1.15-.88,1.12-1.6s-.52-1.35-1.22-1.53c0,0-1.12-.43-7.49,1.22-3.9,1.01-6.89,3.62-8.58,5.47-.15.16-.26.35-.33.55Z"/>
  </g>
</svg>