<?xml version="1.0" encoding="UTF-8"?>
<svg id="armor" xmlns="http://www.w3.org/2000/svg" width="40" height="32" viewBox="0 0 40 32">
  <defs>
    <style>
      .cls-1 {
        opacity: .8;
      }

      .cls-1, .cls-2 {
        fill: #fff;
        fill-rule: evenodd;
      }

      .cls-2 {
        opacity: .8;
      }
    </style>
  </defs>
  <path class="cls-1" d="M29.33,27.83c.55,0,1.08-.21,1.48-.59l3.78-3.55c.49-.46.77-1.1.78-1.77l.17-12.2c.01-.96-.76-1.76-1.72-1.79-11.98-.31-21.32-1.45-28.56-3.49-.12-.04-.25-.05-.38-.05-.29,0-.58.1-.81.27-.34.25-.54.66-.54,1.08v12.76c0,.37.11.72.32,1.02l3.31,4.86c.46.68,1.19,1.12,2.01,1.21l19.93,2.21c.08,0,.16.01.24.01Z"/>
  <path class="cls-2" d="M33.82,8.06h-1.63c.9.02,1.62.77,1.6,1.67l-.17,12.2c0,.64-.28,1.25-.74,1.68l-3.78,3.55c-.22.21-.49.36-.77.46l.78.09c.6.07,1.19-.13,1.63-.54l3.78-3.55c.47-.44.73-1.05.74-1.68l.17-12.2c.01-.9-.7-1.64-1.6-1.67Z"/>
</svg>