<svg width="75" height="140" viewBox="0 0 75 140" fill="none" xmlns="http://www.w3.org/2000/svg">
<path fill-rule="evenodd" clip-rule="evenodd" d="M38.7917 85.5385C40.0348 85.5732 41.0279 86.5989 41.007 87.8395L40.889 96.295C40.882 97.0435 40.5626 97.7574 40.014 98.2702L37.389 100.731C36.8404 101.243 36.0973 101.486 35.3542 101.41L21.514 99.8781C20.6459 99.7811 19.8612 99.3098 19.3681 98.589L17.0695 95.2207C16.8056 94.8395 16.6667 94.3821 16.6667 93.9247V85.5247C16.6667 84.7415 16.8473 83.9375 17.4654 83.4801C18.0904 83.0088 18.9584 83.0989 19.8265 83.3276C25.1181 84.7276 31.6042 85.3514 38.7848 85.5385H38.7917ZM38.8056 84.9772C31.6806 84.79 25.2362 84.1732 19.9792 82.7871C18.9376 82.5098 17.889 82.4682 17.132 83.0366C16.3751 83.6049 16.1042 84.5682 16.1042 85.5316V93.9247C16.1042 94.4999 16.2779 95.0682 16.6042 95.5395L18.9029 98.9078C19.4862 99.7673 20.4237 100.329 21.4584 100.44L35.2987 101.971C36.2084 102.068 37.1181 101.77 37.7848 101.146L40.4098 98.6861C41.0695 98.0692 41.4515 97.2098 41.4654 96.3019L41.5834 87.8465C41.6043 86.294 40.3681 85.0118 38.8126 84.9702L38.8056 84.9772Z" fill="white"/>
</svg>
