<svg width="75" height="140" viewBox="0 0 75 140" fill="none" xmlns="http://www.w3.org/2000/svg">
<path fill-rule="evenodd" clip-rule="evenodd" d="M47.8612 66.5624L46.9029 66.5486L47.0973 66.2228C47.0973 66.2228 46.9793 65.6545 47.2362 64.8921C47.7501 63.3466 50.1737 48.2099 50.1737 48.2099C50.2362 47.8288 50.0973 47.4406 49.8056 47.1842L47.4654 45.1119L48.3404 44.0654C48.5556 43.809 48.6459 43.4763 48.5904 43.1436L48.5695 43.0189C48.6598 42.9911 48.7431 42.9565 48.8265 42.908L50.3959 41.9931C50.6181 41.8614 50.7848 41.6674 50.882 41.4248C50.882 41.4248 51.5418 39.7406 52.4793 38.1535C53.0279 37.2317 53.639 36.3169 54.2987 35.9426C54.9793 35.5545 55.507 35.3258 55.6737 35.2565L55.7084 35.2911C55.9029 35.2911 56.0904 35.2426 56.257 35.1525L57.2084 34.6258C57.5556 34.4317 57.7779 34.0783 57.7918 33.6832C57.8056 33.2882 57.6181 32.9139 57.2918 32.6921C57.2918 32.6921 54.5834 30.904 51.7501 31.6872C50.9376 31.9159 49.8612 32.5812 48.7779 33.4545C46.5209 35.2634 44.1459 37.8971 44.1459 37.8971C43.9931 38.0634 43.8959 38.2713 43.8681 38.4931L43.6737 39.8723L42.9515 40.0179C42.6737 40.0733 42.4307 40.2258 42.264 40.4545L41.4584 41.5288C41.3751 41.508 41.2848 41.4941 41.2015 41.4941L27.1251 41.2377L27.1529 40.4406C27.1598 40.1981 27.0904 39.9624 26.9515 39.7684C27.0418 39.6298 27.1112 39.4773 27.139 39.3109C27.139 39.3109 27.507 36.9337 28.264 35.4852C28.639 34.7644 29.3473 34.2862 29.8612 34.0159C30.0487 33.9189 30.5834 33.2466 30.3404 32.6228C30.1251 32.0684 29.132 31.5555 29.132 31.5555L25.9376 31.5971C25.8195 31.5971 25.7084 31.6179 25.5973 31.6525C25.5973 31.6525 23.0209 32.4218 21.6529 36.005C20.9931 37.7307 20.7084 39.1862 20.7362 39.9832C20.7431 40.1634 20.7918 40.3367 20.8751 40.4892L20.8334 40.5446C20.7015 40.7109 20.6181 40.905 20.5973 41.1129L20.3473 43.2268C20.3473 43.2753 20.3404 43.3307 20.3404 43.3793L18.7431 45.3753C18.6181 45.5278 18.5418 45.7149 18.507 45.909C18.507 45.909 17.132 54.7664 16.9237 60.1169C16.7709 64.1159 16.6181 71.4278 16.5487 74.803C16.5279 75.9119 17.0348 77.7416 19.007 78.2892C26.0556 80.0496 34.0001 80.9159 43.0279 80.701C44.882 80.4723 46.014 80.2436 46.014 80.2436C46.5626 80.1327 46.9515 79.6406 46.9237 79.0793L46.8404 77.1872H47.2779C47.2779 77.2288 47.2779 77.2634 47.2779 77.305V78.9684C47.2779 79.301 47.4237 79.6129 47.6737 79.8278C47.9237 80.0426 48.257 80.1396 48.5834 80.0911L55.8751 79.003C56.139 78.9614 56.382 78.8298 56.5556 78.6357C56.5556 78.6357 57.6945 77.3604 58.5209 75.406C59.257 73.6664 59.3473 71.2822 59.3612 70.7763L59.7015 68.6278C59.7501 68.3159 59.6668 68.004 59.4723 67.7545C59.4723 67.7545 58.3404 66.3268 57.9029 65.3911C57.4862 64.504 57.3959 62.7367 57.3959 62.7367C57.3751 62.4179 57.2154 62.1199 56.9654 61.9189C56.7084 61.7179 56.382 61.6416 56.0695 61.6971L48.8751 62.9723C48.3473 63.0694 47.9515 63.5199 47.9376 64.0604L47.8751 66.5694L47.8612 66.5624Z" fill="white"/>
</svg>
