<?xml version="1.0" encoding="UTF-8"?>
<svg id="armor" xmlns="http://www.w3.org/2000/svg" width="34" height="50" viewBox="0 0 34 50">
  <defs>
    <style>
      .cls-1 {
        fill: #fff;
        fill-rule: evenodd;
      }
    </style>
  </defs>
  <g id="armor_left">
    <path class="cls-1" d="M16.29,8.2c-2.15-2.76-4.97-4.53-8.49-5.29-.4-.09-.82-.02-1.18.19l-1.43.85c-.41.24-.7.66-.78,1.13-.08.47.05.96.36,1.33l3.23,3.81-.55.3c-.47.26-.79.73-.85,1.26l-.36,3.39-3.23,12.13-1.45,2.27c-.36.56-.34,1.29.05,1.83l3.05,4.24-2.68,1.6c-.71.43-.99,1.32-.65,2.08l1.95,4.27c.34.75,1.2,1.13,1.99.88l3.37-1.09,1.73,3.1c.23.41.62.7,1.07.8.25.06,1.15.01,2.46-.3,3.81-.91,12.53-3.62,16.08-5.49,1.14-.6,1.84-1.23,2.1-1.67l.24-.59.05-.53-.08-.47-.19-.43c-.65-1.06-1.25-3.68-1.25-3.68-.02-.08-.04-.15-.07-.22l-2.11-5.26-.03-.06-8.83-19.73c-.29-.66-.98-1.04-1.7-.95l-.99.13s-.08.01-.13.02l-.71.15Z"/>
  </g>
</svg>