<?xml version="1.0" encoding="UTF-8"?>
<svg id="armor" xmlns="http://www.w3.org/2000/svg" width="40" height="52" viewBox="0 0 40 52">
  <defs>
    <style>
      .cls-1 {
        fill: #fff;
        fill-rule: evenodd;
      }
    </style>
  </defs>
  <g id="armor_plate_front">
    <path class="cls-1" d="M1.04,41.93l1.63-26.41c.05-.87.37-1.7.9-2.39l6.8-8.84c.72-.93,1.85-1.45,3.02-1.39l17.31.94c1.23.07,2.33.8,2.86,1.92l4.49,9.44c.52,1.08.76,2.28.7,3.48h0c-.26,5.57-1.22,25.46-1.64,27.89-.38,2.15-1.82,3.14-3.21,3.58-1.21.38-2.35.29-2.4.28h-.02s-25.53-2.43-26.79-2.78c-3.79-1.04-3.69-5.13-3.65-5.67v-.05ZM39.56,18.73h0c.06-1.34-.2-2.67-.78-3.87l-4.49-9.44c-.66-1.39-2.02-2.3-3.56-2.38l-17.31-.94c-1.44-.08-2.83.56-3.71,1.7L2.92,12.64c-.63.82-1,1.81-1.06,2.84L.22,41.93c-.04.62-.12,5.31,4.25,6.52,1.26.35,26.96,2.8,26.96,2.8.1,0,1.36.11,2.71-.32,1.63-.51,3.33-1.69,3.77-4.21.43-2.44,1.39-22.4,1.65-27.98-.01.21,0,.18,0,0Z"/>
  </g>
</svg>