<svg width="75" height="140" viewBox="0 0 75 140" fill="none" xmlns="http://www.w3.org/2000/svg">
<g clip-path="url(#clip0_367_2075)">
<path opacity="0.5" fill-rule="evenodd" clip-rule="evenodd" d="M44.8819 26.3088C44.8055 26.3227 44.7292 26.3227 44.6458 26.3088C44.6319 26.6207 44.6111 26.9465 44.5694 27.2514C44.493 27.8059 44.3542 28.3118 44.1597 28.6168C43.9375 28.9702 42.7708 29.996 41.125 31.0564C39.6944 31.9782 37.993 32.5326 36.243 33.1286C35.0833 33.5237 33.6736 33.6623 32.6528 33.6207L31.7361 33.5653C31.8819 33.9187 32.2708 34.2306 32.9167 34.5356H32.9305C32.9305 34.5356 33.7569 35.0277 36.5139 34.4247C37.1944 34.2791 37.9514 34.0366 38.8125 33.7593C41.8611 32.7821 43.6805 31.1673 44.5278 30.1207C44.8542 29.7187 45.0347 29.4069 45.0694 29.2613C45.0625 29.0257 44.9653 26.9534 44.8889 26.295L44.8819 26.3088ZM7.22221 106.448C7.22221 106.448 7.25693 106.414 7.26388 106.393C7.28471 106.358 7.30554 106.317 7.32638 106.268L7.15971 106.123C7.11804 106.247 7.09721 106.338 7.08332 106.421L7.15971 106.442C7.15971 106.442 7.20138 106.442 7.21526 106.442L7.22221 106.448ZM52.7153 162.476L53.5417 162.338C53.1736 162.234 52.8264 162.123 52.5 161.998L51.8611 162.164L52.7222 162.476H52.7153ZM53.1875 169.996C53.4792 169.809 53.7569 169.622 54.0069 169.421C54.3958 169.123 54.7292 168.804 54.9792 168.471C54.0694 168.388 53.2569 168.229 52.5625 167.972C52.1528 168.014 51.7014 168.035 51.1944 168.028C51.5833 168.52 52.2222 169.22 53.1805 169.996H53.1875ZM52.9722 172.796C53.5139 172.741 54.0972 172.72 54.7153 172.741C54.4444 172.345 53.9583 171.791 53.118 171.112C52.618 171.403 52.0764 171.687 51.5278 171.971L52.9653 172.796H52.9722ZM52.6667 167.03C53.7292 166.905 54.4514 166.642 54.9861 166.281C54.2639 166.156 53.2639 165.948 52.4097 165.671L51.2569 165.997C51.5903 166.447 52.0694 166.78 52.6667 167.03ZM52.4375 164.708L54.5208 164.112L52.625 163.426L50.9167 163.71C51.2569 164.049 51.7708 164.458 52.4305 164.708H52.4375ZM51.4028 175.873C51.8889 175.894 52.368 175.936 52.8403 176.005L52.3264 175.707C51.993 175.748 51.6805 175.804 51.4097 175.873H51.4028ZM52.5139 174.757C53.0625 174.695 53.6667 174.653 54.3264 174.633L52.7778 173.745C52.25 173.815 51.7708 173.926 51.3264 174.078L52.5208 174.757H52.5139ZM16.3889 153.134L16.0555 153.154C16.4236 153.612 16.8333 154.014 17.2847 154.367L17.9792 154.076C17.4375 153.827 16.9028 153.515 16.3889 153.134ZM14.6597 165.844L13.8194 165.907L14.9097 166.316C14.8542 166.149 14.7708 165.99 14.6667 165.844H14.6597ZM16.6597 155.656H17.4861C17.375 155.58 17.2639 155.504 17.1528 155.428L16.6389 155.643L16.6597 155.656ZM16.8889 160.445C17.4375 160.231 17.9375 159.967 18.368 159.642C17.8125 159.392 17.2847 159.094 16.7986 158.734L16.0069 158.921C16.3264 159.517 16.625 160.016 16.8958 160.445H16.8889ZM17.0208 157.729L18 157.493L16.4097 156.578H16C16.2986 157.022 16.6458 157.403 17.0208 157.722V157.729ZM17.4028 162.982C17.368 162.878 17.2986 162.76 17.2153 162.629C17.0417 162.351 16.7986 162.005 16.5 161.547C16.1319 161.658 15.743 161.748 15.3333 161.825C15.6944 162.31 15.993 162.712 16.2292 163.058C16.625 163.065 17.0208 163.031 17.3958 162.982H17.4028ZM12.7569 164.687C12.6458 164.819 12.5347 164.957 12.4167 165.089L13.3264 165.02C13.1458 164.923 12.9583 164.812 12.7569 164.687ZM13.743 163.329C13.618 163.523 13.493 163.717 13.3542 163.911C13.9236 164.14 14.375 164.375 14.7361 164.639C15.0764 164.749 15.3958 164.812 15.7292 164.833L16.0694 164.805C15.5972 164.334 15.0903 163.98 14.5833 163.703C14.2986 163.606 14.0139 163.481 13.743 163.322V163.329ZM14.9514 162.857C14.7847 162.636 14.6042 162.393 14.4028 162.123C14.3403 162.247 14.2778 162.379 14.2153 162.504C14.4583 162.608 14.7014 162.726 14.9514 162.857ZM15.2917 159.558C15.1805 160.043 15.0417 160.508 14.8819 160.965C15.2639 160.903 15.6319 160.827 15.9792 160.737C15.7639 160.39 15.5347 160.002 15.2917 159.558ZM15.625 157.618C15.6042 157.77 15.5903 157.923 15.5694 158.075L15.9514 157.985C15.8403 157.867 15.7292 157.749 15.625 157.618ZM15.8125 154.277C15.8125 154.527 15.8055 154.762 15.7986 155.005L16.3333 154.776C16.1528 154.617 15.9792 154.45 15.8125 154.277ZM15.6944 151.089C15.7083 151.172 15.7222 151.262 15.7361 151.345C16.0417 151.65 16.3542 151.935 16.6736 152.191L17.6042 152.129L15.6875 151.089H15.6944ZM45.2708 23.2455C45.2083 23.294 45.0903 23.3702 44.9236 23.3702C44.8889 23.3702 44.8472 23.3564 44.8194 23.3286C44.7569 23.2801 44.743 23.197 44.7708 23.1277L45.0278 22.5593C44.868 22.393 44.7917 22.3237 44.75 22.2821C44.6944 22.2267 44.6805 22.192 44.6667 22.1435C44.6458 22.0742 44.6458 22.0049 44.6667 21.9356C44.9792 20.7781 45.7153 20.0712 46.2917 19.9534C46.5208 19.9049 46.7361 19.9395 46.9028 20.0574C47.0625 20.1682 47.2292 20.3554 47.25 20.6465C47.25 20.7158 47.25 20.7574 47.243 20.792C47.243 20.792 47.1597 20.9514 47.1319 20.9999C47.1042 21.0415 47.0625 21.0692 47.0208 21.0831C46.9722 21.09 46.7986 21.0069 46.7639 20.9791C46.7639 20.9791 46.6319 20.7088 46.6042 20.6673C46.5903 20.6465 46.5764 20.6257 46.5555 20.6187C46.5347 20.6118 46.4028 20.6465 46.3611 20.6673C46.1875 20.7574 46.0278 20.9445 45.8819 21.1524C45.6875 21.4366 45.5278 21.7692 45.4375 21.9702C45.6042 22.1574 45.6805 22.2405 45.7153 22.289C45.7917 22.3861 45.7917 22.4415 45.7917 22.5039C45.7917 22.5871 45.75 22.6702 45.75 22.6702C45.7361 22.691 45.3611 23.1554 45.2847 23.2455H45.2708ZM42.4028 7.99795C41.2153 7.30488 39.6805 6.52171 38.5278 6.48706C35.4375 6.39696 34.6111 7.15934 33.0764 7.61676C32.0278 7.92864 31.0139 8.44845 30.2847 9.07221C29.868 9.4326 29.5417 9.82072 29.375 10.2296L30.6805 10.7633C30.75 10.791 30.7986 10.8673 30.7847 10.9435C30.7708 11.0197 30.7153 11.0821 30.6319 11.089C30.0764 11.1514 29.7569 11.2831 29.5694 11.4564C29.3889 11.6227 29.3333 11.8168 29.2778 11.997C29.2222 12.1772 29.1667 12.3435 29.0486 12.4752C29.0139 12.898 28.7986 15.4277 28.7778 15.9405L29.2083 16.3702C29.243 16.4049 29.2639 16.4534 29.2569 16.5088C29.118 17.9227 28.9236 18.99 28.8958 19.1148L28.875 20.6465V20.6603C28.875 20.6603 28.5764 23.5781 28.8264 24.4653C29.0764 25.3663 29.0555 26.2257 29.5278 28.0277C29.7847 28.998 29.9444 29.9405 30.2292 30.7306C30.4305 31.2989 30.7014 31.7841 31.125 32.1376C31.5486 32.4841 32.118 32.6989 32.9375 32.7267C35.743 32.8237 39.5 30.9039 41.6667 29.4692C42.5764 28.8663 43.2083 28.3673 43.3542 28.1316C43.493 27.9029 43.5764 27.5356 43.6319 27.1336C43.7639 26.1356 43.7014 24.9296 43.7014 24.9296C43.7014 24.8603 43.7361 24.791 43.8055 24.7633C43.868 24.7356 43.9444 24.7494 43.993 24.798C43.993 24.798 44.625 25.4425 45.3333 24.8603C46.993 23.5019 46.9792 22.4831 47.2222 20.9237C47.3542 20.0435 47.2292 19.6415 46.8194 19.4336C46.5625 19.3019 46.2569 19.3435 46.118 19.3366C45.9305 19.3366 45.8055 19.2603 45.7986 19.0732C45.7986 18.9692 45.8819 18.8583 46.0764 18.796C46.2222 18.7475 46.4305 18.7128 46.5555 18.6851C46.5903 18.6781 46.618 18.6366 46.6458 18.595C46.7153 18.498 46.7639 18.3593 46.7778 18.2554C46.9097 17.389 47.618 15.8712 47.2708 13.7504L46.75 14.2772C46.6944 14.3326 46.6111 14.3465 46.5486 14.3049C46.4792 14.2702 46.4514 14.1871 46.4653 14.1178C46.6875 13.2098 46.8611 12.2673 46.4861 10.7633C45.9583 9.89003 45 9.37023 43.9861 8.85043L41.8819 8.83656C41.7986 8.83656 41.7292 8.76033 41.7014 8.71181C41.6667 8.64944 41.6528 8.55934 41.7708 8.43458C41.8194 8.37914 41.9097 8.31676 42.0139 8.25439C42.125 8.18508 42.2847 8.07419 42.3889 7.99795H42.4028ZM6.9861 99.0257L6.97221 98.9979L6.68749 100.266L6.56943 102.151L7.45832 103.475L8.68054 104.092C8.74304 103.974 8.79165 103.849 8.77776 103.697C8.77776 103.628 8.7361 103.551 8.68749 103.475C8.59026 103.323 8.44443 103.156 8.27776 102.976C7.81943 102.484 7.2361 101.895 7.06943 101.264C6.87499 100.523 6.88193 99.7742 6.97915 99.0187H6.9861V99.0257ZM57.8055 95.9277C58.1042 95.8861 59.0903 95.8376 61.8333 96.3851C65.2222 97.0574 66.9444 98.388 66.9653 98.4019C67.0764 98.4851 67.1389 98.6168 67.1458 98.7554C67.1458 98.894 67.0903 99.0257 66.9861 99.1158C66.9861 99.1158 66.9028 99.2613 66.9444 99.2613C67.0764 99.2613 67.3611 99.1158 67.3958 99.0534C67.4861 98.9009 67.6042 98.6791 67.7292 98.4088C68.2292 97.3415 68.8819 95.6158 68.9861 95.1999C70.1597 90.39 71.5972 85.8782 71.7014 80.8257C71.8264 74.3871 71.7014 67.8861 71.1389 61.4267C70.8055 57.6356 69.1875 54.9811 67.75 51.6336C67.2778 50.5385 66.5486 49.3118 66.1875 48.2514C65.5555 46.394 65.1736 44.1069 64.4722 42.0138C63.7847 39.9623 62.7917 38.1049 60.9236 37.0653C58 35.4366 53.7014 34.5009 50.5555 33.1633C49.8889 32.8791 49.2292 32.6712 48.6389 32.3663C48.0347 32.0544 47.5 31.6455 47.1042 30.9732C47.0764 30.9524 47.0347 30.9039 46.9722 30.8346C46.7778 30.6128 46.3333 30.0722 46.125 29.8158C45.868 30.2247 45.2778 31.1673 45.125 31.2989C43.3611 32.8999 42.5278 33.6207 39.1042 34.6326C34.2361 36.0742 32.0903 35.395 32.0903 35.395H32.0764C32.0417 35.3742 31.9236 35.291 31.7569 35.1247C31.2292 34.598 30.1042 33.2603 29.6805 31.7633C29.5347 32.0059 29.4028 32.3801 29.2708 32.6989C29.1805 32.9138 29.0833 33.1009 28.9861 33.2257C28.8889 33.3435 28.7847 33.4059 28.6805 33.4197C27.4792 33.5999 26.243 33.5029 25.0278 33.7108C22.7153 34.1059 20.0139 34.5356 18.5764 36.4415C17.9167 37.3079 17.243 38.1326 16.6042 38.9574C16.0486 39.6781 15.6319 40.6554 15.2083 41.6534C14.7778 42.6722 14.3333 43.7187 13.7361 44.5643C13.3403 45.1187 12.6944 47.0871 12.1458 49.0277C11.5972 50.9682 11.1458 52.8811 11.1667 53.3316C11.2569 55.1267 10.2639 61.0247 9.68054 62.7712C9.58332 63.0554 9.2986 63.4088 9.00693 63.7554C8.75693 64.0603 8.50693 64.3584 8.45138 64.6148C7.82638 67.6504 7.6111 71.3653 6.4236 74.3455C6.28471 74.692 5.86804 75.1148 5.45138 75.5376C5.06943 75.9187 4.68054 76.2999 4.5486 76.6257C4.4236 76.9514 4.4236 77.2633 4.43749 77.5613C4.45138 77.9009 4.47221 78.2197 4.37499 78.5178C4.29165 78.7742 4.06249 78.9405 3.81249 79.0653C3.62499 79.1623 3.43054 79.2316 3.32638 79.3633C3.05554 79.7237 3.02776 80.389 3.06943 81.1306C3.13888 82.3158 3.40971 83.695 3.38193 84.4712C3.32638 85.9544 2.70138 87.8811 2.36804 89.392H2.37499C4.06249 89.2881 6.20832 89.2811 8.70832 89.3643C8.87499 89.3643 9.03471 89.4682 9.10415 89.6207L9.62499 90.6603C9.65276 90.7158 9.66665 90.7712 9.6736 90.8267L9.70832 91.2287C9.74999 91.1455 9.79165 91.0485 9.84026 90.9376C10.0278 90.5079 10.0694 89.9118 10.125 89.3227C10.1805 88.692 10.25 88.0752 10.4722 87.6524C10.5069 87.5831 10.5764 87.4999 10.6805 87.4098C10.8819 87.2366 11.2083 87.0148 11.5764 86.7791C12.0347 86.4881 12.5555 86.1623 12.9514 85.8712C13.1944 85.691 13.3889 85.5247 13.4792 85.3791C13.7569 84.9286 13.5903 84.4712 13.5069 84.194C13.4722 84.0831 13.4514 83.9861 13.4514 83.9237L13.4653 83.8405L13.493 83.7782L13.5417 83.7296C13.5417 83.7296 13.625 83.6742 13.7083 83.6326C14.0347 83.4593 14.8264 83.092 15.1667 82.6831C16.0833 81.5881 17.1736 79.696 17.8542 78.2128C17.8542 77.8732 17.8472 75.489 18.4236 74.2069C18.868 73.2227 19.7292 67.394 19.6875 66.9158C19.5417 65.4534 19.5278 63.6861 19.4514 62.2791C19.4028 61.3989 19.368 53.0197 19.4167 52.3475L18.9097 49.298C18.868 49.0484 19.0347 48.8059 19.2917 48.7643C19.5417 48.7227 19.7847 48.889 19.8264 49.1455L20.2847 51.8762C20.2847 51.8762 20.3542 52.3544 20.3542 52.396C20.3542 52.7425 20.3333 61.2742 20.3819 62.2237C20.4583 63.6237 20.4722 65.3772 20.6111 66.8187C20.6736 67.4702 19.875 73.2366 19.2708 74.5811C18.75 75.7385 18.7778 77.9425 18.7847 78.2059C18.8055 78.5524 18.7569 78.9405 18.743 79.0722C18.6667 79.7306 18.4792 80.1603 18.2778 80.5554C18.0903 80.9227 17.8819 81.2554 17.75 81.7405C17.2569 83.5633 16.8403 87.1257 16.4514 89.2534C16.3958 89.5583 16.3403 89.8633 16.2847 90.1683C17.0069 91.0485 19.1667 93.4673 21.9167 94.4583C25.4444 95.7336 27.868 96.0178 37.0625 96.2395C45.8194 96.4544 53.0417 91.8524 53.6042 91.4851C53.8403 91.0554 54.1667 90.6465 54.4375 90.2098C54.7083 89.794 54.9305 89.3574 54.9653 88.8584C55.0764 87.2989 55.0278 82.3227 54.7292 78.9059C54.6042 77.4643 54.4375 76.2999 54.2153 75.8009C53.9583 75.2187 53.4444 70.8455 53.4653 70.2148C53.4861 69.6257 53.8264 68.8702 54.2639 68.0732C54.8819 66.9366 55.7083 65.696 56.0069 64.7118C55.9375 64.1296 55.8819 63.5475 55.7292 62.9791C54.8611 59.7564 53.5139 56.8316 53.493 56.7138C53.3542 55.9514 53.5 55.5702 53.6528 55.189C53.7847 54.8564 53.9097 54.5237 53.7847 53.8514C53.6805 53.3178 53.3958 52.8395 53.1042 52.3682C52.7986 51.8554 52.493 51.3425 52.3819 50.7742C52.368 50.691 52.4097 50.6148 52.4861 50.5871C52.5417 50.5663 52.6111 50.5732 52.6597 50.6148C52.6875 50.6148 52.743 50.6148 52.7708 50.6148L52.8333 50.6286L52.8819 50.6494L52.9236 50.6841L52.9583 50.7257C53.1042 50.9544 54.4722 53.089 54.6111 53.6781C54.7917 54.4336 54.6319 54.8148 54.4792 55.196C54.3472 55.5217 54.2222 55.8475 54.4028 56.492C54.625 57.289 57.0972 64.0673 57.5069 65.8415L58.9305 67.8376C58.9305 67.8376 58.9583 67.8861 58.9583 67.9138C59.0694 68.7108 58.993 69.5009 59 70.2702C59 70.998 59.0833 71.7118 59.5069 72.4049C59.5278 72.4395 59.5486 72.495 59.5694 72.5782C59.5972 72.7098 59.618 72.9178 59.625 73.1742C59.6597 73.9851 59.625 75.2603 59.5625 75.7178C59.4305 76.7435 59.3194 79.0445 59.3333 80.0841C59.3403 80.597 59.5486 81.3385 59.6875 82.0039C59.7847 82.4752 59.8542 82.9118 59.8125 83.2168C59.7778 83.4871 59.6319 83.6811 59.4653 83.8683C59.2708 84.09 59.0278 84.3118 59 84.7692C58.9653 85.3168 59.1736 85.6772 59.375 86.0306C59.5278 86.294 59.6736 86.5574 59.743 86.8623C59.9653 87.9088 59.8264 89.2395 59.5139 90.6118C59.0833 92.5108 58.3333 94.4999 57.8055 95.9623V95.9277ZM8.0486 105.665C8.12499 105.651 8.19443 105.631 8.26388 105.61C8.32638 105.589 8.38193 105.568 8.41665 105.527C8.47221 105.457 8.46526 105.367 8.45832 105.284C8.44443 105.187 8.41665 105.09 8.39582 104.993L6.9236 104.244C6.85415 104.21 6.79165 104.154 6.74999 104.092L5.70832 102.533C5.65276 102.449 5.62499 102.345 5.63193 102.248L5.76388 100.169C5.76388 100.169 5.76388 100.121 5.77082 100.1L5.84721 99.7603L5.75693 100.065C5.74304 100.1 5.72915 100.142 5.70832 100.176L5.01388 101.327L5.22915 102.616L6.18054 104.037L8.0486 105.658V105.665ZM49.9167 159.052C49.2569 158.72 48.7014 158.352 48.2917 158.054C48.5139 159.052 48.7986 160.452 48.8472 160.771C49.8958 167.231 49.7361 173.863 47.6528 180.115C47.1667 181.577 45.9236 183.102 45.3611 184.606C45.1042 185.299 44.993 185.999 45.1944 186.685C45.3958 187.364 45.9097 188.037 46.868 188.688C48.0972 188.667 49.6875 189.062 51.25 189.416C52.7986 189.769 54.3125 190.081 55.4028 189.887C55.743 189.825 55.8125 189.631 55.8889 189.506C55.9514 189.395 56.0278 189.326 56.1319 189.291C56.5208 189.187 56.8264 189.18 57.1111 189.152C57.5 189.111 57.8472 189.007 58.368 188.459C59.2083 187.579 59.4236 186.567 59.4305 185.514C59.4375 184.419 59.2222 183.282 59.1944 182.187C59.1944 182.125 59.2222 182.069 59.2708 182.042C59.3194 182.007 59.3819 182.007 59.4375 182.035L59.8125 182.222C59.8333 182.152 59.8542 182.069 59.875 181.965C59.9375 181.633 59.9722 181.147 59.9861 180.572C60.0417 178.313 59.8055 174.737 59.6875 173.808C59.5555 172.817 59.0417 171.881 58.9375 170.918C58.6667 168.45 59 160.965 59.6389 158.089C58.7014 158.54 56.8333 159.378 55.0417 159.759C55.4653 159.891 55.9167 159.995 56.375 160.085C56.5833 160.127 56.7361 160.314 56.743 160.529C56.743 160.743 56.6042 160.931 56.3958 160.986L54.1875 161.561C54.8333 161.707 55.5417 161.818 56.3264 161.894C56.5555 161.915 56.7361 162.109 56.743 162.338C56.75 162.566 56.5833 162.774 56.3542 162.809L54.4792 163.121L56.1736 163.738C56.3611 163.807 56.4861 163.987 56.4792 164.188C56.4722 164.389 56.3333 164.562 56.1458 164.618L54.1528 165.186C55.1875 165.415 56.0833 165.533 56.0833 165.533C56.25 165.553 56.3958 165.671 56.4583 165.831C56.5208 165.99 56.4861 166.17 56.375 166.295C55.9583 166.766 55.4375 167.196 54.6528 167.515C55.0139 167.556 55.3889 167.591 55.7847 167.605C55.9375 167.605 56.0764 167.688 56.1528 167.82C56.2361 167.944 56.25 168.104 56.1875 168.249C55.8958 168.949 55.3264 169.58 54.5833 170.162C54.3819 170.315 54.1736 170.467 53.9514 170.613C55.7361 172.124 55.9444 173.129 55.9514 173.163C55.9792 173.309 55.9444 173.454 55.8472 173.565C55.75 173.676 55.6111 173.732 55.4583 173.725C55.125 173.697 54.7986 173.683 54.4861 173.676L56.25 174.681C56.4305 174.785 56.5208 175 56.4653 175.201C56.4097 175.402 56.2292 175.547 56.0208 175.547C55.2847 175.547 54.5833 175.561 53.9444 175.596L55.993 176.76C56.1944 176.878 56.2847 177.128 56.1875 177.343C56.0972 177.557 55.8542 177.668 55.625 177.599C53.8055 177.044 51.9167 176.684 49.8125 176.837C49.6597 176.85 49.5139 176.781 49.4167 176.663C49.3194 176.545 49.2917 176.386 49.3333 176.241C49.4583 175.825 49.8264 175.464 50.4514 175.215C50.6389 175.139 50.8472 175.076 51.0764 175.014L50.0625 174.439C49.9167 174.355 49.8264 174.203 49.8264 174.03C49.8264 173.863 49.9236 173.711 50.0694 173.628C50.5139 173.392 51 173.198 51.5417 173.052L50.3194 172.352C50.1736 172.269 50.0833 172.11 50.0833 171.937C50.0833 171.763 50.1875 171.611 50.3403 171.535C51.0208 171.195 51.7014 170.848 52.3333 170.495C50.5555 169.005 49.8889 167.785 49.875 167.757C49.7986 167.612 49.7986 167.432 49.8889 167.293C49.9792 167.154 50.1389 167.071 50.3055 167.078C50.5555 167.092 50.7917 167.099 51.0139 167.106C50.6319 166.773 50.3264 166.378 50.118 165.921C50.0625 165.796 50.0625 165.657 50.118 165.533C50.1736 165.408 50.2847 165.318 50.4097 165.283L51.125 165.082C50.1597 164.444 49.6389 163.654 49.6319 163.647C49.5486 163.516 49.5347 163.349 49.5972 163.211C49.6597 163.065 49.7917 162.968 49.9444 162.941L50.8333 162.795L50.118 162.539C49.9305 162.469 49.8055 162.282 49.8125 162.081C49.8194 161.88 49.9653 161.707 50.1597 161.658L51.2153 161.381C50.5 160.931 49.9653 160.376 49.6111 159.732C49.4861 159.51 49.5694 159.226 49.7917 159.108C49.8264 159.087 49.8611 159.073 49.8958 159.066L49.9167 159.052ZM53.2222 159.981C53.2222 159.981 53.1042 159.953 53.0833 159.953C52.1528 159.919 51.2569 159.648 50.4653 159.309C50.8819 160.043 51.5833 160.605 52.5486 161.028L54.4583 160.529C54.0139 160.376 53.6042 160.196 53.2292 159.981H53.2222ZM53.3194 159.032C56 159.032 59.8194 156.952 59.8194 156.952C59.9028 156.911 59.993 156.89 60.0764 156.897C60.3542 156.384 60.743 155.816 61 155.282C61.1736 154.929 61.2986 154.596 61.2778 154.305C61.25 153.889 60.9514 153.39 60.6042 152.836C60.0347 151.942 59.3333 150.916 59.2222 149.848C59.1528 149.183 59.2847 148.615 59.4375 148.06C59.5833 147.541 59.743 147.042 59.743 146.487C59.743 145.323 59.118 141.649 58.7708 140.485C58.1805 138.51 57.9444 137.276 56.6597 135.807C56.6389 135.786 56.6319 135.765 56.625 135.738C56.5694 135.523 56.5903 135.003 56.6528 134.338C56.7917 132.854 57.125 130.623 57.0903 129.611C57.0903 129.403 56.1042 126.021 55.9722 125.64C55.9167 125.48 55.8125 125.328 55.6944 125.189C55.0903 125.938 54.0972 126.644 52.9375 127.254C51.0972 128.225 48.8403 128.945 47.0694 129.188C43.2083 129.715 39.5486 128.155 38.1805 127.386C38.2014 127.802 38.2153 128.204 38.2222 128.592C38.2222 128.911 38.1528 129.223 38.0764 129.528C38.0069 129.805 37.9375 130.089 37.9444 130.38C37.993 132.626 39.9097 137.082 41.1944 138.974C41.5903 139.556 43.1875 141.178 43.8333 141.92C43.9514 142.058 44.0417 142.162 44.0903 142.232C44.125 142.287 44.1458 142.329 44.1458 142.349C44.1944 142.564 44.1458 142.918 44.0555 143.313C43.9375 143.846 43.7569 144.463 43.7708 144.886C43.7986 145.912 44.2917 147.45 44.4167 148.58C44.6458 150.625 44.9375 152.655 45.0278 154.707C45.1458 155.067 45.5 155.386 45.9167 155.677C46.5486 156.114 47.3264 156.46 47.7222 156.717C47.8819 156.654 48.0764 156.682 48.2083 156.807C48.2083 156.807 50.5417 158.955 53.1667 159.032C53.2083 159.032 53.2569 159.032 53.2986 159.032H53.3125H53.3194ZM55.2639 124.718C55.0972 124.524 54.9583 124.323 54.9167 124.122C54.7778 123.491 54.8403 122.063 54.9167 120.767C53.8055 121.363 50.7708 122.902 47.7639 123.553C44.3611 124.295 40.118 123.706 37.6736 122.292L38.3889 126.437C39.3403 126.984 41.7847 128.225 44.993 128.363C48.3194 128.509 52.3055 127.13 54.1111 125.737C54.6736 125.3 55.0764 124.898 55.2569 124.711L55.2639 124.718ZM6.49304 96.0732L6.49999 96.094L7.81249 98.6168C8.16665 98.7276 8.50693 98.7554 8.78471 98.6237C8.97221 98.5336 9.12499 98.3673 9.2361 98.1108C9.39582 97.5702 9.13193 96.988 8.85415 96.4197C8.54165 95.7752 8.20138 95.1445 8.22915 94.6039C8.24304 94.389 8.32638 94.1603 8.44443 93.9316C8.59026 93.6336 8.79165 93.3286 8.91665 93.0306L8.74999 90.9861L8.39582 90.2722C6.59026 90.2168 4.9861 90.2098 3.60415 90.2514C3.61804 90.3069 3.62499 90.3623 3.63193 90.4247V90.4455C3.52776 92.7742 2.51388 95.5534 2.47915 97.7989C2.47915 98.194 2.56249 98.5682 2.65276 98.9217C2.74999 99.3098 2.84721 99.6841 2.85415 100.044C2.85415 100.412 2.77082 100.744 2.68749 101.084C2.61804 101.396 2.5486 101.708 2.58332 102.061C2.60415 102.283 2.76388 102.609 2.97915 102.976C3.51388 103.877 4.41665 105 4.84721 105.36C5.0486 105.527 5.64582 105.832 6.19443 106.081C6.19443 106.046 6.18054 106.005 6.16665 105.97C6.03471 105.541 5.74304 105.021 5.59026 104.827C5.55554 104.785 5.52776 104.737 5.50693 104.688C5.50693 104.688 5.45138 104.626 5.4236 104.598L4.38193 103.039C4.34721 102.983 4.31943 102.921 4.31249 102.858L4.05554 101.299C4.03471 101.188 4.05554 101.077 4.11804 100.987L4.86804 99.7395L5.35415 98.0623L5.47221 96.198L4.89582 95.2346C4.76388 95.0128 4.83332 94.7286 5.05554 94.6039C5.27776 94.4722 5.56249 94.5415 5.68749 94.7633L6.46526 96.0593L6.49304 96.0732ZM37.3889 120.968C39.6111 122.833 44.1667 123.179 46.5625 122.833C50.0555 122.334 54.1528 120.067 54.9375 119.617L54.993 119.582C55.0139 119.243 55.0278 118.938 55.0347 118.709C55.0625 117.531 55.0208 116.352 55.0278 115.181C54.4097 115.188 53.0972 115.181 53.0833 115.181C52.9653 115.16 52.8542 115.098 52.7847 115.001C52.7708 114.987 52.7153 114.842 52.6528 114.675C52.5833 114.481 52.5069 114.252 52.4792 114.155C52.2639 114.176 52.0625 114.197 51.9097 114.19C51.7847 114.19 50.8611 114.176 50.6528 113.22C50.5069 112.554 50.8472 112.125 51.2986 111.847C51.6736 111.619 52.125 111.501 52.375 111.452C53.2292 110.33 53.9444 109.387 54.4861 108.209C55.0694 106.947 55.1597 105.388 54.9514 104.459C54.9097 104.272 54.8542 104.113 54.7847 103.988C54.7292 103.884 54.6736 103.808 54.5972 103.773C54.493 103.718 54.375 103.718 54.2569 103.725C54.0625 103.739 53.8889 103.801 53.8403 103.822C53.4305 104.002 53.1667 104.238 52.8958 104.494C52.6111 104.771 52.3194 105.069 51.8889 105.36C51.2083 105.818 50.625 105.908 50.1597 105.832C49.6805 105.748 49.3194 105.478 49.0903 105.215C48.875 104.958 48.7847 104.695 48.7986 104.57C48.7986 104.529 48.8472 104.418 48.9305 104.265C49.2083 103.78 49.9305 102.706 50.4375 102.068C51.1111 101.223 51.375 101.105 53.0694 99.9405L54.2222 99.1504C53.3264 97.5148 53 95.1999 53.1597 93.2524C51.2222 94.3752 44.9028 97.6257 37.0208 97.4385C27.5833 97.2098 25.1042 96.8979 21.4861 95.588C18.7778 94.6108 16.868 92.6633 16.0139 91.6584C15.3819 95.394 14.8889 98.7207 13.6528 102.574C12.9792 104.667 13.1458 105.707 13.4444 106.892C13.6528 107.71 13.9167 108.59 14.0347 109.9C14.1805 111.563 13.743 113.615 13.8611 115.056C13.8819 115.334 14.0139 115.569 14.1528 115.805C14.3125 116.075 14.4722 116.345 14.5347 116.657C14.6805 117.434 14.5278 120.476 14.3403 122.41C14.2569 123.262 14.1597 123.9 14.0903 124.059C13.7083 124.905 13.6319 126.568 13.8333 127.469C13.9028 127.788 14.125 128.051 14.3333 128.329C14.5694 128.647 14.7917 128.98 14.8194 129.382C14.8472 129.833 14.6736 130.29 14.5139 130.775C14.3055 131.42 14.1458 132.12 14.7708 132.903C14.8055 132.944 14.8125 133 14.8055 133.048L13.243 139.265C13.2014 139.529 13.2847 139.771 13.4305 140.007C13.5903 140.27 13.8264 140.513 14.0764 140.748C14.3889 141.04 14.7222 141.317 14.9583 141.566C15.1389 141.753 15.2639 141.941 15.3055 142.107C15.3472 142.266 15.3333 142.495 15.2708 142.765C15.1875 143.126 15.0208 143.583 14.8264 144.061C14.5417 144.768 14.1944 145.551 13.9722 146.217C13.8333 146.64 13.743 147.007 13.7569 147.277C13.7778 147.631 13.9861 147.963 14.2569 148.261C14.6458 148.691 15.1597 149.038 15.4861 149.259C15.5972 149.197 15.7361 149.176 15.868 149.225C15.868 149.225 19.3333 150.438 22.0139 150.743C24.625 151.041 26.9722 150.153 26.9722 150.153C27.0833 150.112 27.2014 150.112 27.3055 150.153C28.2361 149.19 29.2778 148.435 29.7569 146.39C29.9305 145.655 29.9028 145.059 29.8542 144.477C29.8055 143.867 29.743 143.285 29.8542 142.599C29.9375 142.058 30.2083 141.663 30.4583 141.261C30.6875 140.901 30.8958 140.534 30.9028 140.014C30.9097 139.154 30.6528 138.683 30.4028 138.246C29.993 137.533 29.5833 136.902 30.1944 135.024C30.3055 134.677 30.4514 134.386 30.5833 134.095C30.8819 133.457 31.125 132.813 30.8264 131.538C30.7639 131.274 30.5764 131.066 30.4167 130.838C30.2222 130.567 30.0555 130.276 30.0972 129.895C30.0972 129.888 30.0972 129.874 30.0972 129.867C31.5903 124.163 33.4375 118.556 34.3333 112.728L33.7014 108.008L32 104.258C31.8472 104.134 31.1805 103.6 30.9375 103.309C30.868 103.226 30.8264 103.156 30.8125 103.108V103.059V103.018V102.976L30.8403 102.935C30.9792 102.72 31.2708 102.664 31.4792 102.803L32.625 103.565C32.6944 103.614 32.7569 103.683 32.7917 103.759L34.5694 107.675C34.5694 107.675 34.5972 107.738 34.6042 107.772C34.625 107.848 35.3958 111.265 35.4097 111.383V111.404C35.6597 113.116 36.2847 114.724 36.5903 116.429C36.8403 117.815 37.1319 119.374 37.3958 120.961L37.3889 120.968ZM65.5069 99.3168C65.5208 99.2821 65.618 99.0811 65.6875 99.0257L65.9167 98.8247C65.2222 98.4158 63.7986 97.7158 61.6528 97.293C59.9653 96.9603 58.9722 96.8633 58.4444 96.8356C58.4583 96.898 58.4305 97.0366 58.3611 97.0989C58.3472 97.1059 58.2917 97.1544 58.1875 97.2306C57.2083 97.9514 52.3403 101.521 51.868 101.867C51.3194 102.269 50.2222 103.967 49.8125 104.626C49.868 104.695 49.9375 104.764 50.0278 104.813C50.5139 105.083 51.0069 104.875 51.4375 104.563C51.9236 104.217 52.3403 103.739 52.618 103.524C53.4583 102.858 54.3889 102.609 55.0486 102.976C55.493 103.219 55.8333 103.752 55.9305 104.653C56.2778 107.703 54.8542 109.706 53.5833 111.425C53.2778 111.834 53.125 112.042 53.0208 112.159C52.8819 112.312 52.8055 112.333 52.6528 112.36C52.1111 112.464 51.8055 112.61 51.6528 112.769C51.5486 112.88 51.5417 112.998 51.5833 113.095C51.618 113.178 51.6875 113.241 51.743 113.268C51.7917 113.289 51.8958 113.289 52.0208 113.289C52.3958 113.275 52.9792 113.185 53.5278 113.067C54.4444 112.866 54.6875 112.589 54.9792 112.173C55.1944 111.868 55.4444 111.501 55.9583 111.043C56.1458 110.877 56.3819 110.413 56.4097 110.357C56.5417 110.101 56.5694 109.921 56.6042 109.734C56.6597 109.422 56.7222 109.11 57.1944 108.528C57.4375 108.23 57.7292 107.966 57.7917 107.918L57.8264 107.89C57.8264 107.89 58.4097 107.911 58.4444 107.945C58.4792 107.98 58.5 108.029 58.493 108.084C58.4722 108.354 58.4514 108.548 58.4514 108.548L58.4028 108.611C58.3403 108.666 57.9583 109.006 57.7153 109.387C57.5347 109.671 57.5278 109.858 57.4792 110.087C57.4305 110.357 57.3403 110.676 56.9653 111.238C56.3125 112.208 56.1805 112.083 54.2153 113.802C54.1875 113.83 54.1042 113.871 53.9792 113.906C53.8194 113.954 53.5694 114.01 53.2917 114.058L53.4514 114.273C53.7292 114.239 54.0069 114.266 54.2917 114.287C54.5833 114.308 54.868 114.336 55.1528 114.287C55.493 114.232 55.7778 113.982 56.0903 113.83C56.4097 113.677 56.7569 113.573 57.0486 113.372L58.2986 112.125C58.2986 112.125 58.3125 112.097 58.3264 112.048C58.368 111.917 58.4583 111.633 58.7361 110.946C58.743 110.926 58.7847 110.863 58.8472 110.78C59.0486 110.517 59.5347 109.914 59.8611 109.519C60.0069 109.345 60.118 109.214 60.1667 109.165C60.1667 109.165 60.4236 109.054 60.4514 109.041C60.5069 109.006 60.5833 109.006 60.6389 109.041C60.6875 109.075 60.7153 109.138 60.7083 109.2C60.7083 109.221 60.75 109.408 60.5972 109.664C60.0208 110.628 59.7708 111.002 59.6528 111.182C59.5903 111.279 59.5694 111.3 59.5486 111.348C59.3403 111.958 59.3403 111.958 59.1111 112.561C59.1111 112.575 59.1111 112.596 59.0417 112.672C58.9514 112.776 58.6597 113.081 57.6667 114.065C57.6528 114.079 57.6111 114.107 57.5347 114.148C57.4167 114.211 57.1944 114.322 56.9444 114.446C57.0208 114.46 57.0972 114.474 57.1667 114.481C57.4305 114.523 57.6805 114.571 57.9236 114.543C58.0278 114.53 58.1597 114.467 58.3125 114.391C58.5486 114.266 58.8125 114.1 59.0833 113.954C59.0833 113.927 59.0833 113.906 59.0833 113.892L59.0972 113.823L59.1389 113.76L59.7847 113.04C59.9583 112.845 60.1597 112.665 60.3125 112.45V112.43C60.4028 112.139 60.8125 110.704 60.8264 110.669C60.9514 110.385 61.618 109.394 61.9375 108.978C62.0347 108.846 62.118 108.77 62.1458 108.756C62.1805 108.736 62.4653 108.652 62.5208 108.68C62.5764 108.708 62.6389 108.999 62.6389 109.041C62.6389 109.054 62.6319 109.103 62.5972 109.186C62.5208 109.38 62.3125 109.872 62.118 110.253C61.743 110.995 61.7014 110.974 61.6736 111.037C61.6458 111.092 61.3611 112.194 61.2014 112.679C61.1528 112.839 61.0972 112.943 61.0764 112.97L60.5764 113.539C60.868 113.518 61.1528 113.49 61.4097 113.379C61.4653 113.358 61.618 113.213 61.8125 113.019C62.3055 112.541 63.0347 111.778 63.118 111.612C63.5278 110.808 64.6319 105.367 64.875 104.085C65.1736 102.519 65.1528 100.932 65.5 99.3861C65.5 99.3583 65.5139 99.3376 65.5347 99.3168H65.5069ZM37.3611 121.169C37.375 121.155 37.3819 121.142 37.3889 121.121C37.4028 121.079 37.4028 121.031 37.3889 120.996V121.031C37.4028 121.079 37.3889 121.128 37.3611 121.169ZM17.4375 165.394V165.408C17.368 165.54 17.243 165.637 17.0972 165.657C16.5903 165.747 16.1389 165.789 15.6944 165.768C15.868 166.149 15.9305 166.565 15.9167 167.037C15.9167 167.182 15.8333 167.321 15.7083 167.404C15.5833 167.487 15.4305 167.508 15.2847 167.452L11.5278 166.039H11.5069C10.7917 166.725 9.96526 167.425 8.99999 168.145C8.00693 168.887 6.47915 169.511 5.24999 170.315C4.46526 170.828 3.81249 171.41 3.53471 172.158C3.43054 172.443 3.09026 173.732 2.9236 174.577C2.88193 174.792 2.84721 174.972 2.83332 175.104V175.145C3.56943 175.36 4.45832 175.832 5.34721 176.289C6.24999 176.753 7.14582 177.197 7.84721 177.294C9.26388 177.495 10.9514 177.606 12.4375 177.384C13.4583 177.232 14.3333 176.871 15.1597 176.407C15.3125 176.317 15.5069 176.296 15.6944 176.282C15.8333 176.268 15.9792 176.261 16.0903 176.185C16.7014 175.797 17.1805 175.042 17.6458 174.265C18.1389 173.447 18.618 172.595 19.1875 172.061C19.2014 172.047 19.2153 172.041 19.2292 172.034C19.3403 171.985 19.4722 171.971 19.625 171.992C19.8055 172.02 20.0278 172.11 20.2569 172.221C20.5972 172.387 20.9653 172.609 21.2847 172.747C21.4653 172.831 21.618 172.886 21.7361 172.872C21.7778 172.872 21.8611 172.831 21.9722 172.768C22.2917 172.609 22.8055 172.304 23.3055 171.978C23.8055 171.659 24.2986 171.32 24.5764 171.098C24.6528 171.036 24.7153 170.987 24.743 170.952C24.8264 170.155 25.0694 169.324 25.125 168.534C25.5347 163.086 24.2986 158.449 25.6805 152.967C25.8542 152.274 26.0972 151.734 26.375 151.283C25.3819 151.54 23.6944 151.858 21.8889 151.65C19.7986 151.408 17.243 150.639 16.118 150.278L19.4514 152.087C19.6319 152.184 19.7292 152.392 19.6805 152.593C19.6389 152.794 19.4653 152.94 19.2569 152.953L17.9375 153.037C18.3958 153.279 18.868 153.473 19.3472 153.605C19.5347 153.653 19.6736 153.82 19.6875 154.021C19.7014 154.215 19.5903 154.402 19.4097 154.478L18.1597 155.005C18.5625 155.261 18.993 155.497 19.4305 155.712C19.625 155.809 19.7292 156.024 19.6805 156.232C19.6319 156.44 19.4444 156.592 19.2292 156.592H18.2569L19.4653 157.285C19.6319 157.382 19.7222 157.562 19.6944 157.749C19.6667 157.937 19.5278 158.089 19.3403 158.131L18.0208 158.443C18.4514 158.692 18.9097 158.893 19.3889 159.066C19.5347 159.122 19.6458 159.246 19.6805 159.399C19.7153 159.551 19.6667 159.718 19.5555 159.829C18.9653 160.418 18.243 160.882 17.3889 161.236C17.7708 161.804 18.0486 162.199 18.1944 162.504C18.4167 162.975 18.3958 163.315 18.1667 163.647C18.0972 163.751 17.9861 163.821 17.8611 163.842C17.5278 163.904 17.1805 163.945 16.8264 163.966C17.0833 164.375 17.25 164.687 17.4097 164.985C17.4792 165.11 17.4792 165.262 17.4236 165.394H17.4375Z" fill="white"/>
<path opacity="0.7" fill-rule="evenodd" clip-rule="evenodd" d="M30 14.8593C30.0347 14.4227 30.3403 12.3573 30.3403 12.3573C30.3542 12.3296 30.4097 12.191 30.4236 12.1633L30.9375 12.2187L31.5069 11.8237L31.75 11.491L31.8819 11.0821L31.868 10.4653C31.8472 9.7306 32.3055 9.06526 33 8.81575C33.1319 8.76724 33.2639 8.72565 33.3958 8.68407C34.8333 8.2613 35.6042 7.51971 38.493 7.60288C38.7986 7.60981 39.118 7.66526 39.4514 7.76922C40.0139 7.94248 40.4514 8.39298 40.6042 8.9613C40.6042 8.98209 40.6319 9.05833 40.6319 9.05833C40.6805 9.19001 41.1042 9.68902 41.125 9.70288C41.1597 9.7306 41.2014 9.7514 41.2361 9.77219L41.5764 9.89694L41.9792 9.94545L43.3819 9.95238C43.6319 9.95238 43.875 10.0078 44.0972 10.1187C44.4097 10.2643 44.6944 10.4375 44.9375 10.6455C45.2569 10.9227 45.4653 11.3039 45.5208 11.7266C45.625 12.5306 45.5208 13.1266 45.3958 13.688L45.3542 14.2563L45.4583 14.6514C45.4583 14.6514 46.0833 15.7603 46.0972 16.0445C46.118 16.3563 45.8819 17.2504 45.8055 17.3821C45.6875 17.5831 45.5278 17.7563 45.3403 17.895L45.0555 18.1029C45.0555 18.1029 45.0139 18.1445 44.993 18.1722C44.9167 18.2692 44.7292 19.094 44.7222 19.1979C44.6944 19.7177 44.6111 19.6484 44.375 19.9464C44.0555 20.3554 43.7639 20.8821 43.5833 21.5128L43.5208 22.0257L43.5764 22.3583C43.6597 22.8504 43.5208 23.3563 43.1944 23.7375L42.7778 24.2227L42.625 24.5692L42.5694 25.1029C42.5833 25.394 42.5972 26.0801 42.5278 26.7247C42.4792 27.1959 42.2361 27.6257 41.8611 27.9098C41.625 28.0831 41.3194 28.3049 41.0347 28.492C39.0208 29.8158 35.5694 31.6524 32.9653 31.5623L32.7639 31.5484C32.1528 31.486 31.6319 31.0979 31.3819 30.5435C31.3472 30.4672 31.3125 30.3841 31.2917 30.3217C31.0139 29.5593 30.868 28.6445 30.618 27.7088C30.1528 25.9484 30.1528 25.0752 29.9305 24.195C29.8889 24.0356 29.868 23.8692 29.875 23.7029L29.8889 23.3841C29.3889 22.8019 29.3264 21.9356 29.7917 21.2841C29.9028 21.1316 29.9722 20.9445 29.993 20.7435V20.6118L30.0139 19.3296C30.0139 19.2395 30.0208 19.1494 30.0417 19.0593C30.1111 18.6504 30.2569 17.7633 30.3611 16.6752V16.294L30.2986 16.0237L30.1458 15.7118C30.0139 15.4415 29.9583 15.1365 29.9792 14.8385L30 14.8593ZM10.75 63.1385C10.625 63.5197 10.2639 64.0187 9.88193 64.4831C9.88193 64.4831 9.83332 64.5455 9.82637 64.5524C9.65276 64.795 9.54165 65.0653 9.50693 65.3494L9.47221 65.3078C8.89582 68.3088 8.63193 71.8781 7.47915 74.7682C7.2986 75.2187 6.7986 75.794 6.25693 76.3415C6.20137 76.3969 6.12499 76.4732 6.05554 76.5425C5.74304 76.8682 5.56943 77.3049 5.58332 77.7554C5.58332 77.9425 5.58332 78.1227 5.56943 78.3029L5.45137 78.8365L5.25693 79.2524L5.07637 79.495L4.89582 79.6266C4.43054 79.9662 4.1736 80.5207 4.20832 81.0959C4.28471 82.3088 4.5486 83.7088 4.52082 84.5058C4.49999 85.0118 4.41665 85.5662 4.2986 86.1415C4.20137 86.6405 4.32637 87.1534 4.64582 87.5484C4.96526 87.9435 5.44443 88.1722 5.95832 88.1722C6.55554 88.1722 7.18749 88.186 7.84026 88.1999C8.50693 88.2138 9.11804 87.8464 9.40971 87.2504L10.0347 86.4672C10.2639 86.2801 10.5972 86.0514 10.9653 85.8157C11.1528 85.6979 11.868 85.2197 11.9653 85.1088C12.1944 84.8524 12.3472 84.5405 12.3958 84.2009C12.4167 84.0692 12.4167 83.5078 12.4305 83.4455C12.4444 83.3831 12.4653 83.3207 12.493 83.2583C12.5417 83.1405 12.618 83.0296 12.7083 82.9326C12.7292 82.9118 12.75 82.891 12.7708 82.8702L13.2361 82.5722C13.4167 82.4752 13.7917 82.2672 13.9236 82.191C14.118 82.0801 14.2917 81.9415 14.4305 81.7682C15.1528 80.8672 15.9653 79.4811 16.5625 78.2613C16.6667 78.0534 16.7222 77.8247 16.7361 77.589C16.7778 76.6256 16.8958 74.8167 17.3889 73.7148C17.75 72.9177 18.4792 67.588 18.5347 67.1791C18.5486 67.0613 18.5555 66.9365 18.5347 66.8187C18.4097 65.3771 18.3889 63.6791 18.3125 62.3138C18.2708 61.5029 18.2361 54.4266 18.2708 52.5484C18.2708 52.4445 18.2708 52.3405 18.25 52.2365L17.8125 49.6237L17.8403 48.8266L18.0833 48.286L18.5139 47.8771L19.0972 47.6554L19.7222 47.6761L20.2639 47.9187L20.6736 48.3484L20.9583 49.0969L21.4305 51.9177L21.4444 52.7702C21.4444 52.8534 21.4514 52.9435 21.4653 53.0266C21.4653 55.0989 21.4514 61.3365 21.493 62.1405C21.5694 63.5197 21.5833 65.2593 21.7222 66.687C21.7917 67.3801 20.9375 73.5831 20.2917 75.0177C19.8819 75.9326 19.8819 77.5821 19.9028 78.095C19.9028 78.1019 19.9028 78.1088 19.9028 78.1157C19.9236 78.5385 19.875 79.0098 19.8542 79.1761C19.7569 80.0078 19.5278 80.5554 19.2708 81.0474C19.118 81.3455 18.9375 81.6158 18.8264 82.0108C18.368 83.695 17.9861 86.8761 17.625 89.0039C17.5347 89.5375 17.7014 90.0781 18.0764 90.4662C19.0417 91.4712 20.5347 92.7326 22.2917 93.3633C25.7361 94.6108 28.1042 94.8603 37.0833 95.0751C44.3819 95.2484 50.5694 91.9494 52.4167 90.8544C52.6319 90.7296 52.8125 90.5563 52.9514 90.3484C53.125 90.092 53.3055 89.8356 53.4722 89.5722C53.5139 89.5029 53.5833 89.392 53.625 89.3157C53.75 89.094 53.8264 88.8445 53.8403 88.588C53.9375 86.9247 53.8819 82.2257 53.5972 78.9682C53.5347 78.2405 53.4028 77.3811 53.3264 76.9029C53.3264 76.688 53.2847 76.4732 53.1944 76.2583C52.9028 75.4959 52.3055 70.8177 52.3333 70.1385C52.3611 69.4177 52.7292 68.4752 53.2708 67.491C53.7222 66.6662 54.3194 65.786 54.6667 65.0167C54.7986 64.7326 54.8472 64.4138 54.8055 64.095C54.7639 63.8039 54.7153 63.5128 54.6389 63.2286C53.8333 60.2276 52.6597 57.4623 52.3611 56.7276C52.3125 56.4227 52.3055 56.1662 52.3125 55.9375L52.6319 54.6692C52.7153 54.3435 52.6944 53.9969 52.5833 53.6781C52.4861 53.4078 52.2986 53.1653 52.1389 52.9157C51.7847 52.3266 51.4514 51.7306 51.2986 51.0791V50.4969L51.4305 50.095L51.6944 49.7623L52.1042 49.5058L52.3958 49.4365C52.4444 49.4643 53.1389 49.1455 53.7014 49.8316C53.7222 49.8524 53.9305 50.1088 53.9305 50.1088C54.1736 50.4969 55.4514 52.5692 55.6875 53.3039L55.7917 54.4613L55.5417 55.487C55.4653 55.792 55.4792 56.1108 55.5764 56.4088C55.9722 57.6356 57.8472 62.8336 58.4861 65.0514C58.5417 65.2385 58.625 65.4118 58.7361 65.5712L59.8055 67.0682L60 67.4286C60 67.4286 60.1042 67.8167 60.1042 67.8237C60.2083 68.6415 60.1389 69.4455 60.1389 70.2286C60.1389 70.4989 60.1319 70.7761 60.1875 71.0464L60.4792 71.7811C60.4305 71.6979 60.3819 71.6078 60.3472 71.5108C60.3472 71.5108 60.7014 72.4326 60.7014 72.4395C60.7292 72.6058 60.75 72.8346 60.7569 73.091C60.7917 73.9643 60.75 75.3365 60.6875 75.8217C60.5625 76.8058 60.4514 79.0306 60.4722 80.0217C60.4792 80.4791 60.6736 81.1375 60.7986 81.7266C60.9167 82.288 60.9792 82.8148 60.9514 83.2029L60.7222 83.9653L60.6667 84.0415C60.3125 84.5544 60.2708 85.2128 60.5486 85.7672C60.6805 86.0237 60.7917 86.287 60.8542 86.5781C61.1042 87.7633 60.9722 89.2603 60.618 90.8128C60.4583 91.5197 60.25 92.2405 60.0347 92.9474C59.8889 93.4118 59.9514 93.9177 60.2014 94.3336C60.4514 94.7494 60.875 95.0405 61.3542 95.1237C61.5764 95.1653 61.8125 95.2068 62.0555 95.2554C63.4583 95.5326 64.6042 95.9207 65.5 96.295C65.9375 96.4821 66.4305 96.4752 66.8611 96.2811C67.2917 96.087 67.625 95.7197 67.7778 95.2692C67.8264 95.1167 67.868 94.992 67.8819 94.9088C69.0347 90.1821 70.4653 85.7534 70.5625 80.7771C70.6875 74.3801 70.5625 67.9138 70 61.4959C69.6805 57.8365 68.0833 55.286 66.6944 52.0494C66.2153 50.9266 65.4722 49.6653 65.1042 48.5841C64.4722 46.7266 64.0903 44.4395 63.3889 42.3464C62.7917 40.5722 61.9792 38.9227 60.368 38.0286C57.4792 36.4207 53.2222 35.4989 50.1111 34.1821C49.4236 33.891 48.7361 33.6692 48.118 33.3504C47.8055 33.191 47.5069 33.0108 47.2361 32.7959C46.5903 32.2969 45.6805 32.3247 45.0694 32.8583C43.6458 34.1058 42.5417 34.7851 39.4305 35.7068C36.1458 36.6771 34.0069 36.7464 32.868 36.6563L31.3611 36.2474C31.3611 36.2474 30.9236 35.8732 30.9167 35.8662C30.75 35.693 30.5347 35.4573 30.3055 35.1662C29.9305 34.7019 29.3403 34.4593 28.75 34.5425C27.5833 34.695 26.3958 34.6118 25.2222 34.8128C24.125 34.9999 22.9375 35.187 21.8472 35.5682C20.9167 35.887 20.0625 36.3445 19.4792 37.1138C18.8194 37.987 18.1389 38.8118 17.5 39.6365C16.993 40.288 16.6319 41.1752 16.25 42.0761C15.7986 43.1504 15.3264 44.2455 14.7014 45.1395C14.618 45.2573 14.5555 45.3821 14.5069 45.5138C14.4375 45.7078 13.6528 47.8286 13.2292 49.3187C12.8194 50.7742 12.3958 52.7148 12.3333 53.0059C12.3055 53.1306 12.2917 53.2623 12.2986 53.387C12.3333 55.4177 11.3472 61.3227 10.75 63.1108V63.1385ZM60.3542 107.855L60.5069 107.876C60.5069 107.876 60.5555 107.876 60.5833 107.876H60.6042H60.6458H60.5833L60.3542 107.848C59.9514 107.779 59.5903 107.571 59.3264 107.252L59.2222 107.128L58.993 106.954L58.7361 106.837L58.4167 106.76C57.6667 106.594 57.1319 105.942 57.0972 105.18C57.0903 104.965 57.0694 104.737 57.0417 104.515C56.9792 103.933 56.8264 103.468 56.6389 103.101L56.0486 102.304C55.7778 101.943 55.6667 101.486 55.7361 101.042C55.8055 100.599 56.0486 100.197 56.4097 99.9266C57.2222 99.3306 57.9722 98.7761 58.4653 98.4227C58.743 98.2147 59.0833 98.1039 59.4236 98.09H59.4653C59.5486 98.09 59.6319 98.09 59.7153 98.1039C60.1667 98.1662 60.7292 98.2633 61.4167 98.4019C61.9792 98.5128 62.4861 98.6445 62.9375 98.7831C63.7222 99.0256 64.2222 99.788 64.125 100.599C64 101.687 63.9305 102.789 63.7222 103.877C63.6389 104.3 63.4653 105.222 63.2639 106.261C63.1528 106.83 62.7569 107.301 62.2222 107.509L61.4861 107.8C61.2986 107.876 61.1042 107.918 60.9028 107.918H60.8611C60.8611 107.918 60.4305 107.869 60.368 107.855H60.3472H60.3542ZM15.6875 128.356C15.5625 128.107 14.8889 127.053 14.8542 126.741C14.7778 126.035 14.868 125.099 15.0972 124.551C15.1111 124.496 15.3611 123.47 15.4583 122.507C15.6528 120.518 15.7847 117.42 15.6528 116.505L15.4861 115.909C15.4028 115.708 15.2986 115.521 15.1875 115.334C15.0486 115.091 14.9722 114.814 14.9653 114.53C14.9305 113.143 15.2917 111.314 15.1597 109.796C15.0417 108.403 14.7639 107.474 14.5417 106.608C14.2847 105.596 14.1528 104.702 14.7292 102.914C15.4305 100.724 15.9028 98.7068 16.2847 96.6831C16.3889 96.1355 16.7569 95.6781 17.2708 95.4494C17.7847 95.2276 18.368 95.2623 18.8472 95.5534C19.5278 95.9692 20.2778 96.3504 21.1042 96.6415C23.7847 97.6118 25.8403 98.0623 30.5208 98.3256C30.8403 98.3464 31.1319 98.4504 31.3819 98.6167C31.6458 98.4712 31.9514 98.395 32.2639 98.4088C33.6319 98.4712 35.1944 98.5197 36.993 98.5613C42.2708 98.686 46.8819 97.3207 50.0208 96.0316C50.4861 95.8445 51.0069 95.8652 51.4514 96.094C51.8958 96.3227 52.2153 96.7385 52.3264 97.2237C52.3611 97.3623 52.3889 97.5009 52.4305 97.6326C52.618 98.3256 52.3472 99.0603 51.7569 99.4623C50.4653 100.356 50.1805 100.564 49.5486 101.361C49.0347 102.006 48.3055 103.094 47.9861 103.635L47.7569 104.12L47.6805 104.459V104.778L47.7708 105.145L47.9583 105.554L48.2014 105.901L48.993 106.58L49.4097 106.788L49.9653 106.94L50.5694 106.982L50.7153 106.961C51.3889 106.871 52.0555 107.183 52.4028 107.765C52.7569 108.347 52.7222 109.082 52.3333 109.63C52.2361 109.768 52.1319 109.9 52.0278 110.039C51.8403 110.288 51.5833 110.482 51.2917 110.6C51.1319 110.662 50.9722 110.739 50.8125 110.822C50.8125 110.822 50.2014 111.307 50.0069 111.529C49.2917 112.346 49.3264 113.857 50.2153 114.64C51.3472 115.639 53.9097 117.829 53.9097 117.829C53.9097 118.646 53.3055 119.111 52.8125 119.346C52.4792 119.513 51.3542 120.157 51.2292 120.213C49.7639 120.85 48.0139 121.474 46.3958 121.71C44.5764 121.973 41.3125 121.883 39.2014 120.809C38.7222 120.566 38.3889 120.116 38.2986 119.589C38.0903 118.411 37.8819 117.274 37.6944 116.235C37.5555 115.458 37.3472 114.696 37.1389 113.94C36.4167 113.511 36.1111 112.617 36.4375 111.827C36.5139 111.653 36.5417 111.459 36.5208 111.265C36.4375 110.842 35.8125 108.077 35.7222 107.668L35.5486 107.135L33.8542 103.413L33.5555 102.941L33.1389 102.567L32.2361 101.964L31.5486 101.687C31.4375 101.639 31.3333 101.583 31.2361 101.521C31.1805 101.548 31.1319 101.576 31.0764 101.597L30.3542 101.895L29.8403 102.408C29.9167 102.678 30.2569 103.787 31.1042 105.097C31.1458 105.166 31.1875 105.236 31.2222 105.312L32.493 108.098C32.5625 108.25 32.6111 108.41 32.6319 108.576L33.1528 112.478C33.1736 112.644 33.1736 112.811 33.1528 112.97C32.243 118.591 30.4722 124.011 29.0208 129.521C28.8055 129.95 28.875 130.235 29.0417 130.567L29.625 131.711C29.743 131.939 29.8055 132.189 29.8125 132.452L29.7639 133.021L29.5625 133.624C29.4097 133.956 29.25 134.289 29.125 134.677C28.743 135.855 28.7083 136.645 28.8055 137.248C28.9097 137.886 29.1597 138.337 29.4305 138.815C29.4792 138.898 29.5347 138.988 29.5833 139.099C29.8264 139.619 29.7847 140.222 29.4792 140.707C29.1597 141.22 28.8472 141.74 28.743 142.426C28.625 143.202 28.6875 143.874 28.743 144.56C28.7778 145.032 28.8125 145.524 28.6736 146.127C28.375 147.388 27.8125 148.109 27.2014 148.705C26.7986 149.1 26.4583 149.218 25.1597 149.467C24.3542 149.62 23.2917 149.738 22.1667 149.606C19.7986 149.336 16.7847 148.324 16.3264 148.164C15.8889 148.012 15.5347 147.693 15.3403 147.27C15.1458 146.854 15.1319 146.369 15.2986 145.94C15.4861 145.461 15.7083 144.948 15.9028 144.47C16.2778 143.535 16.6944 142.751 16.4097 141.83C16.243 141.289 15.7986 140.762 15.1389 140.159C14.6736 139.737 14.4792 139.099 14.6319 138.489L15.9028 133.416L15.9514 133.021C15.9514 133.021 15.6042 131.912 15.5903 131.842C15.5417 131.572 15.5555 131.295 15.6458 131.032C15.8194 130.477 15.9861 129.943 15.9792 129.424L15.7222 128.363L15.6875 128.356ZM55.3403 127.497L53.4236 128.294C51.4722 129.313 49.0972 130.068 47.2292 130.318C45.1319 130.602 43.0903 130.318 41.3958 129.86C40.8194 129.708 40.2014 129.86 39.7708 130.283C39.3403 130.699 39.1597 131.309 39.2986 131.891C39.7986 134.019 41.1875 136.95 42.1389 138.35C42.5208 138.912 44.0694 140.471 44.6875 141.185C45.0069 141.545 45.1597 141.857 45.243 142.162C45.4375 142.841 45.0486 143.971 44.9444 144.546C44.9167 144.699 44.8958 144.851 44.9028 145.011C44.9583 145.995 45.4167 147.423 45.5347 148.476C45.7292 150.209 45.9653 151.928 46.0903 153.667C46.1319 154.215 46.4305 154.707 46.8958 154.991C47.1528 155.15 47.4167 155.289 47.6597 155.421C47.75 155.469 47.8472 155.511 47.9444 155.539L48.5694 155.74C48.5694 155.74 49.1875 156.176 49.2639 156.232C49.8333 156.654 51.0694 157.396 52.4305 157.826C52.9167 157.978 53.8542 157.888 54.0347 157.867C55.8819 157.632 58.0208 156.634 58.8889 156.176C59.1667 156.031 59.3958 155.816 59.5555 155.545C59.6111 155.455 59.6597 155.372 59.7083 155.282C59.8472 154.624 59.8264 154.145 59.7292 153.743C59.7153 153.674 59.5903 153.411 59.5694 153.383C58.9236 152.371 58.1944 151.186 58.0694 149.994C57.9861 149.176 58.1319 148.469 58.3194 147.79C58.4375 147.367 58.5833 146.965 58.5903 146.508C58.5903 145.406 57.993 141.934 57.6667 140.832C57.1458 139.071 56.9653 137.955 55.8611 136.659L55.6319 136.32L55.493 135.966C55.4375 135.661 55.4375 135.038 55.5069 134.254C55.6319 132.958 55.9167 131.059 55.9444 130.013L55.3264 127.511L55.3403 127.497ZM22.5208 171.146L21.6042 171.417L20.7569 171.195C20.8055 171.216 20.8472 171.237 20.8958 171.257C20.9028 171.257 19.8264 170.897 19.8264 170.897H19.1944L18.7708 171.029L18.3472 171.32C17.743 171.923 17.2153 172.817 16.6875 173.69C16.5 174.002 16.3611 174.335 16.1736 174.591C15.9167 174.944 15.5347 175.187 15.1042 175.263L14.9792 175.284L14.5278 175.478C13.8472 175.852 13.125 176.157 12.2847 176.275C10.9028 176.476 9.33332 176.372 8.02082 176.185C7.41665 176.095 6.65276 175.693 5.87498 175.291C5.69443 175.201 5.51387 175.104 5.33332 175.014C4.6111 174.653 4.24304 173.829 4.45832 173.052C4.52082 172.824 4.57637 172.65 4.6111 172.567L4.99998 171.923C5.21526 171.68 5.56248 171.493 5.88887 171.278C7.13193 170.46 8.68749 169.823 9.69443 169.067C10.1736 168.707 10.625 168.353 11.0417 168C11.5139 167.605 12.1597 167.494 12.7361 167.709L14.8055 168.485L15.2708 168.603H15.6389L16 168.52L16.3403 168.346L16.625 168.097L16.8403 167.799L16.9792 167.459C17.1736 166.995 17.5625 166.635 18.0417 166.482H18.0625L18.5972 165.81L18.5486 165.713L18.5764 165.345C18.6111 164.937 18.7917 164.555 19.0764 164.271L19.125 164.223L19.3472 163.786L19.4653 163.135L19.4305 162.677C19.2778 162.06 19.4861 161.409 19.9792 160.986C20.0833 160.896 20.1875 160.799 20.2847 160.709L20.5972 160.307L20.9722 153.799C21.2917 153.071 22.0694 152.655 22.8542 152.808C23.6389 152.953 24.2083 153.626 24.2361 154.423C24.3194 156.939 24.2014 165.747 24 168.464C23.9722 168.866 23.9028 169.282 23.8194 169.691C23.7361 170.135 23.4722 170.53 23.0903 170.786C22.9653 170.869 22.8264 170.959 22.6944 171.042H22.6875C22.6875 171.042 22.5417 171.14 22.5208 171.16V171.146ZM58.868 180.136C58.868 180.136 58.9236 178.049 58.9444 177.176C59.0625 172.54 57.5694 167.965 57.5694 167.965C57.5694 167.965 57.9167 175.513 57.0694 177.835C56.6736 178.923 55.1389 178.625 55.1389 178.625C53.7569 178.216 52.3264 177.925 50.7778 177.925C50.0208 177.925 49.3542 178.424 49.1458 179.151C49.0208 179.595 48.8819 180.032 48.7361 180.475C48.243 181.951 46.993 183.483 46.4305 185.001C46.4583 184.932 46.4861 184.862 46.5278 184.8L46.2361 185.541L46.2153 185.937L46.2917 186.366L46.3819 186.616C46.6319 187.17 47.1528 187.544 47.7569 187.607C48.9028 187.725 50.2153 188.023 51.5069 188.321C52.4583 188.536 53.3889 188.785 54.1736 188.834C54.2083 188.834 54.3194 188.834 54.3194 188.834C54.6667 188.827 54.9861 188.709 55.2569 188.522L55.993 188.161C56.2222 188.113 56.4167 188.085 56.6042 188.064C57.1111 188.009 57.5625 187.732 57.8472 187.309L58.0903 186.838L58.2292 186.394C58.2917 186.103 58.3055 185.798 58.3125 185.493C58.3194 184.446 58.118 183.358 58.0764 182.305V181.702C58.243 181.341 58.8611 180.884 58.868 180.122V180.136Z" fill="white"/>
<path fill-rule="evenodd" clip-rule="evenodd" d="M62.4444 100.405L59.4792 99.7882L57.4236 101.299C57.4236 101.299 58.2639 102.145 58.4722 103.094C58.6875 104.037 58.7986 105.118 58.7986 105.118C58.7986 105.118 59.3542 105.049 59.8958 105.513C60.4375 105.977 60.6389 106.192 60.6389 106.192L60.868 106.234L61.6041 105.943C62.0833 104.099 62.3403 102.255 62.4444 100.419V100.405ZM50.7778 179.616C50.6458 180.08 50.5 180.545 50.3472 181.002C49.8472 182.499 48.5972 184.052 48.0208 185.583C47.9861 185.687 47.8889 185.77 47.9167 185.867C47.9167 185.881 47.9236 185.895 47.9305 185.909C49.1389 186.034 50.5208 186.346 51.8819 186.657C52.7361 186.852 53.5694 187.087 54.2708 187.129L54.3055 187.087L55.3958 186.554C55.7847 186.45 56.1111 186.408 56.4166 186.373C56.5972 186.103 56.5972 185.791 56.5972 185.486C56.6042 184.426 56.3889 183.317 56.3611 182.25L56.4444 181.473L56.7153 180.759L57.1597 180.143V180.115L57.1458 180.129L56.0069 180.427L54.7986 180.295C53.5278 179.907 52.2083 179.623 50.7778 179.623V179.616ZM20.2153 165.962C20.5417 166.399 18.9305 168.333 18.5555 168.09L18.3403 168.617L17.8889 169.248L17.2917 169.76L16.5903 170.114L15.8333 170.294H15.0555L14.2917 170.107L12.1319 169.296C11.6875 169.67 11.2153 170.045 10.7083 170.419C9.6736 171.188 8.09026 171.854 6.81943 172.692C6.57638 172.852 6.28471 172.928 6.20138 173.163C6.18054 173.226 6.14582 173.344 6.09721 173.503C6.27776 173.593 6.46526 173.69 6.64582 173.78C7.2361 174.085 7.79165 174.439 8.25693 174.501C9.4236 174.667 10.8125 174.771 12.0347 174.591C12.6944 174.494 13.25 174.245 13.7778 173.947L14.4861 173.642L14.7986 173.586C14.9583 173.371 15.0694 173.08 15.2292 172.81C15.8611 171.756 16.5278 170.689 17.2639 169.996L18.0139 169.483L18.9305 169.192H20.1042L21.5139 169.677L21.6042 169.719L21.7847 169.608C21.9097 169.525 22.0417 169.442 22.1597 169.365C22.2292 169.019 22.2917 168.665 22.3125 168.333C22.5139 165.678 22.9375 157.396 22.8611 154.943L22.6805 155.358L22.1667 156.017C22.0139 156.169 21.2639 162.137 21.0972 162.275L21.125 162.358L21.1944 163.218L20.9861 164.334L20.5278 165.242L20.2778 165.484L20.25 165.852L20.2083 165.969L20.2153 165.962ZM52.1944 118.979V118.924L52.1805 118.979H52.1944ZM17.0555 131.24C17.0347 131.198 17.0139 131.163 16.9861 131.129L17.0555 131.24ZM29.6667 106.012C27.5347 102.699 28.1944 101.86 28.2986 101.659C28.3472 101.562 28.4028 101.472 28.4653 101.375L29.3958 100.454L30.4305 100.031C25.5069 99.7535 23.3472 99.2684 20.5278 98.2495C19.5972 97.9099 18.7361 97.4802 17.9653 97.009C17.5625 99.0951 17.0833 101.174 16.3542 103.434C15.9236 104.771 16.0069 105.437 16.1944 106.192C16.4305 107.128 16.7292 108.14 16.8611 109.651C16.993 111.196 16.6389 113.067 16.6736 114.488C16.8403 114.772 16.993 115.063 17.1042 115.361L17.3194 116.124C17.4861 117.004 17.368 120.469 17.1597 122.673C17.0347 123.99 16.7847 124.96 16.6736 125.21C16.5278 125.536 16.5 126.118 16.5486 126.554L16.5972 126.624C16.875 126.998 17.125 127.386 17.3055 127.802L17.6458 129.181C17.6944 129.937 17.5 130.727 17.243 131.545L17.3542 131.725L17.5764 132.369L17.6458 133.049L17.5555 133.735L16.2569 138.905C16.5347 139.161 16.8125 139.397 17.0208 139.619L17.6667 140.464L18.0555 141.4L18.1667 142.336L18.0417 143.375C17.9305 143.853 17.7222 144.463 17.4653 145.101C17.2778 145.572 17.0555 146.078 16.868 146.556C17.2986 146.702 20.125 147.658 22.3472 147.915C24.243 148.13 25.9583 147.499 25.9792 147.492H26C26.4167 147.083 26.8055 146.591 27.0069 145.732C27.1042 145.33 27.0625 145.004 27.0417 144.685C26.9792 143.867 26.9167 143.077 27.0625 142.155C27.2083 141.22 27.5972 140.499 28.0417 139.799C28.0139 139.744 27.9792 139.702 27.9583 139.654C27.5833 139.009 27.2639 138.378 27.125 137.505C27 136.715 27.0069 135.675 27.5069 134.144C27.6597 133.686 27.8403 133.291 28.0208 132.903C28.0764 132.778 28.125 132.654 28.118 132.473L27.4305 131.122L27.2847 130.401V129.618L27.368 129.147C28.8055 123.664 30.5764 118.279 31.4792 112.686L30.9583 108.784L29.6875 105.998L29.6667 106.012ZM31.7292 20.6812V20.806C31.7222 20.8545 31.7153 20.903 31.7153 20.9446L31.6042 23.8C31.8333 24.6802 31.8264 25.5466 32.2917 27.307C32.5278 28.1872 32.6597 29.0535 32.9236 29.7812C32.9375 29.8159 32.9514 29.8575 32.9722 29.8921C33 29.8921 33.0347 29.8921 33.0555 29.8991C35.3472 29.9822 38.3542 28.2773 40.125 27.1129C40.3819 26.9466 40.6528 26.7456 40.8611 26.5862C40.9305 25.8654 40.8889 25.0822 40.8889 25.0822L40.9791 24.1743L41.3333 23.3495L41.9097 22.6703L41.8125 22.0951L41.9236 21.2149C42.1736 20.2792 42.5903 19.5169 43.0555 18.9278C43.0555 18.8792 43.0555 18.8307 43.0555 18.7822L43 18.7129L43.0555 18.7753C43.0694 18.4842 43.1319 18.2 43.2292 17.9228C43.3333 17.6387 43.4861 17.3684 43.6875 17.1258C43.7708 17.0218 43.868 16.9179 43.9722 16.8278L44.3472 16.5505C44.375 16.4327 44.4097 16.3149 44.4305 16.1901L44.4028 16.1693L43.8819 15.3654L43.6458 14.4367L43.7153 13.4594C43.8194 13.0297 43.9167 12.5862 43.8403 11.9763C43.7083 11.8585 43.5486 11.7753 43.375 11.6921H41.868L41.1597 11.5951L40.493 11.3456C40.493 11.3456 40.2014 11.1723 40.0278 11.0476H40.0417C39.8403 10.902 39.6389 10.708 39.4514 10.4654C39.2847 10.2505 39.1389 9.98717 39.0208 9.66836C39.0069 9.6337 39 9.60598 38.9861 9.57133C38.9722 9.52281 38.9583 9.48123 38.9444 9.43271C38.7639 9.37727 38.5903 9.34262 38.4236 9.34262C35.8333 9.26638 35.1528 9.97331 33.8611 10.3545C33.7569 10.3822 33.6528 10.4169 33.5486 10.4585L33.5694 11.3664L33.2639 12.3228L32.6805 13.106L31.875 13.6604L31.7708 13.6882C31.7361 14.1109 31.6944 14.5961 31.6597 15.0327L31.8958 15.5109L32.0486 16.1486V16.8139C31.9444 18.006 31.7847 18.9763 31.7083 19.4198L31.6944 20.7228L31.7292 20.6812ZM55.3889 49.2565C55.7153 49.7832 57.2014 52.306 57.368 53.0198L57.5069 54.6139L57.1875 55.9099C57.5833 57.1436 59.4653 62.3763 60.1111 64.601L61.243 66.1812L61.5903 66.8119L61.7778 67.505C61.9097 68.4337 61.8403 69.3486 61.8472 70.2357C61.8472 70.4644 61.8055 70.7 61.9375 70.9149L62.3542 71.9892C62.4028 72.2179 62.4444 72.5852 62.4653 73.0288C62.5069 73.9991 62.4514 75.5099 62.3819 76.0436C62.2639 76.9723 62.1597 79.0654 62.1805 80.001C62.1805 80.3753 62.368 80.909 62.4722 81.3941C62.6458 82.2327 62.7014 83.0159 62.6319 83.5565L62.2778 84.7208L62.0764 85.0119C62.2708 85.4 62.4305 85.7951 62.5278 86.2387C62.8194 87.6248 62.7014 89.3783 62.2916 91.1941C62.118 91.9495 61.9028 92.7119 61.6736 93.4604C61.9028 93.502 62.1458 93.5505 62.4028 93.5991C63.9444 93.904 65.2014 94.3268 66.1805 94.7426C66.2153 94.6456 66.2361 94.5763 66.25 94.5208C67.375 89.9189 68.7917 85.601 68.8819 80.7565C69.0069 74.4149 68.8819 68.0179 68.3264 61.6555C68.0208 58.1901 66.4653 55.7921 65.1528 52.7288C64.6528 51.5713 63.8958 50.2614 63.5139 49.1387C62.8819 47.2812 62.5 44.9872 61.7917 42.8941C61.3333 41.5288 60.7917 40.2119 59.5555 39.5189C56.7083 37.9387 52.5208 37.0515 49.4583 35.7486C48.7292 35.4367 48 35.201 47.3542 34.8614C46.9514 34.6535 46.5625 34.4179 46.2083 34.1337C44.618 35.5268 43.4028 36.303 39.9305 37.3357C36.2639 38.4238 33.8403 38.4585 32.5139 38.3268C31.6667 38.2436 30.1805 37.5436 29.5694 36.906C29.3958 36.7258 29.2014 36.4971 28.993 36.2337C27.8472 36.3862 26.6805 36.303 25.5278 36.4971C24.5208 36.6703 23.4236 36.8367 22.4305 37.1763C21.8264 37.3842 21.243 37.6406 20.8611 38.1396C20.1944 39.0129 19.5208 39.8446 18.875 40.6763C18.4514 41.2307 18.1667 41.9862 17.8472 42.7416C17.3472 43.9268 16.8194 45.1258 16.1319 46.1099C16.0625 46.2971 15.3055 48.3486 14.8958 49.7832C14.493 51.1971 14.0903 53.0822 14.0278 53.3664C14.0625 55.5149 13.0208 61.7594 12.3958 63.6515C12.2153 64.1852 11.7569 64.8921 11.2222 65.5436L11.1667 65.6129C10.5694 68.7179 10.2708 72.3981 9.08332 75.3783C8.84026 75.9812 8.21526 76.7921 7.47915 77.5198C7.43054 77.5684 7.3611 77.6377 7.2986 77.7C7.2986 77.9981 7.2986 78.2822 7.27082 78.5594L7.09721 79.3634L6.74999 80.1189L6.30554 80.701L5.93054 80.9783C6.00693 82.2535 6.27776 83.7228 6.24999 84.5476C6.22915 85.1367 6.13193 85.7812 5.99999 86.4535C6.6111 86.4535 7.24999 86.4674 7.91665 86.4812C7.94443 86.4258 7.97221 86.3703 7.99999 86.3149L8.84721 85.2614C9.12499 85.0188 9.57638 84.7 10.0903 84.3674C10.2778 84.2495 10.75 83.9446 10.75 83.9446C10.7361 83.806 10.7361 83.6604 10.75 83.5218C10.7708 83.1961 10.8472 82.8842 10.9722 82.5862C11.0972 82.2882 11.2778 82.004 11.5069 81.7614C11.5972 81.6644 11.6944 81.5743 11.8055 81.4842L12.4236 81.0891C12.5625 81.0198 13 80.7703 13.1458 80.6941C13.8055 79.8693 14.5347 78.608 15.0833 77.499C15.1319 76.3832 15.3125 74.2832 15.8819 73.008C16.2153 72.2664 16.8403 67.3317 16.8889 66.9505C16.7569 65.4951 16.7361 63.7693 16.6667 62.3901C16.625 61.5654 16.5903 54.406 16.625 52.507L16.1597 49.7278L16.2083 48.4179L16.7292 47.2743L17.6458 46.408L18.868 45.9436L20.1805 45.9921L21.3264 46.5119L22.1944 47.4268L22.6597 48.6466L23.1805 51.7585L23.1944 52.7357L23.2222 52.3614C23.2222 52.708 23.1944 61.101 23.25 62.0367C23.3264 63.3951 23.3333 65.1 23.4722 66.5139C23.5486 67.2832 22.6111 74.1169 21.9028 75.704C21.5972 76.3901 21.6458 77.6307 21.6597 78.0189C21.6875 78.5525 21.625 79.1555 21.6042 79.3634C21.4792 80.4585 21.1736 81.1723 20.8403 81.8238C20.7361 82.0248 20.5972 82.1911 20.5278 82.4545C20.0833 84.0971 19.7153 87.209 19.3611 89.2882C20.1805 90.1406 21.4375 91.2288 22.9305 91.7693C26.25 92.9684 28.5347 93.1694 37.1805 93.3842C44.0417 93.5505 49.8611 90.4387 51.6041 89.3991C51.7708 89.1565 51.9444 88.907 52.1041 88.6575C52.1319 88.6159 52.1736 88.5396 52.2014 88.4911C52.2916 86.8693 52.2361 82.2882 51.9653 79.1139C51.9097 78.4347 51.7847 77.6307 51.7153 77.1872C51.6805 76.9723 51.5903 76.6258 51.5417 76.404C51.1944 74.8515 50.6667 70.7486 50.6944 70.0832C50.7292 69.1614 51.1528 67.9416 51.8333 66.6872C52.2639 65.8971 52.8403 65.0654 53.1666 64.3307C53.1389 64.109 53.0972 63.8941 53.0416 63.6792C52.1458 60.3456 50.7778 57.3099 50.7569 57.1852C50.6458 56.5753 50.6389 56.0901 50.6736 55.6743L51.0278 54.2604C50.9653 54.0941 50.8264 53.9555 50.7292 53.7961C50.243 52.9921 49.8194 52.1674 49.6458 51.2664L49.6319 50.2198L49.9653 49.2634L50.5972 48.4733L51.4861 47.9258L52.2778 47.7317L53.0694 47.7525C53.0694 47.7525 54.0555 48.0297 54.0764 48.0367C54.2778 48.1337 54.4583 48.2377 54.6041 48.3486C54.618 48.3486 54.6389 48.3624 54.6528 48.3763C54.8403 48.5218 55 48.6674 55.125 48.8198C55.1389 48.8268 55.1528 48.8406 55.1667 48.8545C55.7778 49.5961 55.8055 49.8179 55.4444 49.2426L55.3889 49.2565ZM55.3889 49.2565C55.3889 49.2565 55.375 49.2357 55.375 49.2288C55.375 49.2357 55.3889 49.2426 55.3889 49.2565ZM38.2083 111.002C38.2778 111.508 38.2083 112.021 38.0139 112.478C38.2014 112.076 38.2917 111.591 38.2083 111.002ZM38.2083 111.002C38.4514 112.679 39.0694 114.259 39.368 115.937C39.5555 116.983 39.7708 118.12 39.9722 119.298C41.7847 120.22 44.5903 120.254 46.1528 120.033C48.3055 119.728 50.7153 118.64 52.2014 117.877V117.829L51.4305 117.545L50.618 116.803L50.1805 116.671L49.0278 115.909L48.3055 114.973L47.875 113.823L47.7847 112.679L48.0278 111.543L48.6597 110.441L49.7986 109.45C50.0764 109.276 50.368 109.138 50.6597 109.027C50.7569 108.895 50.8472 108.77 50.9444 108.646L50.625 108.687L49.6736 108.618L48.7917 108.375L48.0417 108.001L46.9305 107.052L46.4722 106.407L46.1458 105.7L45.9792 104.986V104.286L46.1319 103.579L46.4653 102.865C46.7847 102.304 47.625 101.05 48.2083 100.322C48.9444 99.3931 49.2639 99.1297 50.7778 98.0832C50.7361 97.9307 50.7014 97.7713 50.6597 97.6189C47.3541 98.9773 42.5 100.412 36.9444 100.28C35.1319 100.239 33.5625 100.19 32.1805 100.128L33.0208 100.467L34.1667 101.23L34.8542 101.84L35.3472 102.616L37.125 106.532L37.3542 107.232C37.3542 107.232 38.1319 110.683 38.1875 110.995V111.009V111.03L38.2083 111.002ZM53.3125 156.204C53.0903 156.218 53.125 156.266 53.3125 156.211V156.204ZM53.368 156.204H53.3264C55.0208 156.204 57.2639 155.109 58.1111 154.658C58.1597 154.582 58.2014 154.499 58.25 154.423L58.2083 154.354C57.4167 153.113 56.5555 151.63 56.4028 150.147C56.2917 149.093 56.4653 148.185 56.7014 147.312C56.7778 147.035 56.9097 146.771 56.9097 146.473C56.9097 145.468 56.3542 142.294 56.0555 141.289C55.6042 139.778 55.5139 138.794 54.5278 137.671L54.1319 137.089L53.8819 136.431C53.7916 136.07 53.7291 135.19 53.8403 134.067C53.9583 132.806 54.243 130.962 54.2708 129.944L54.2222 129.784C52.0972 130.893 49.5 131.711 47.4722 131.988C45.1319 132.307 42.8611 131.988 40.9722 131.489C41.4305 133.43 42.6944 136.105 43.5625 137.38C43.9236 137.914 45.3958 139.376 45.9861 140.049C46.2083 140.298 46.368 140.506 46.4514 140.631L46.9305 141.698L47.0278 142.613C47.0278 142.973 46.9583 143.431 46.8542 143.916L46.6389 144.886C46.6944 145.85 47.1528 147.229 47.2639 148.254C47.4583 150.008 47.7014 151.754 47.8264 153.508C48.0486 153.647 48.2847 153.771 48.5 153.889L49.3611 154.159L50.1528 154.693H50.1597C50.1597 154.693 51.6111 156.128 53.2847 156.176H53.3403C53.3403 156.176 53.375 156.176 53.3958 156.176L53.368 156.204Z" fill="white"/>
</g>
<defs>
<clipPath id="clip0_367_2075">
<rect width="75" height="140" fill="white"/>
</clipPath>
</defs>
</svg>
