<?xml version="1.0" encoding="UTF-8"?>
<svg id="armor" xmlns="http://www.w3.org/2000/svg" width="70" height="50" viewBox="0 0 70 50">
  <defs>
    <style>
      .cls-1 {
        fill: #fff;
        fill-rule: evenodd;
        opacity: .8;
      }
    </style>
  </defs>
  <g id="armor_bottom">
    <g>
      <path class="cls-1" d="M4.91,10.34s-1.7,2.89-1.96,4.05c-.26,1.15-.21,4.97-.21,4.97l1.52,3.04.55.3.1-12.35ZM61.48,8.05l-5.88,3.7c.87.12-5.81,1.81-9.57,2.12-2.41.2-3.51.75-3.51.75l-.51,14.67s10.89-.83,15.47-1.92c1.83-.44,5.15-2.78,5.15-2.78l.25-10.72-1.4-5.82ZM39.99,10.31l.27-4.16c-12.12.57-23.1-.57-32.6-3.93l-.89,5.12c.23.15.38.41.38.7v1.42c1.35.54,5.7,2.02,14.26,2.8,8.73.79,15.39.78,17.58.75l.12-1.92c.02-.31.21-.58.49-.71.13-.06.27-.08.41-.08ZM21.32,13.11c-10.79-.98-15.02-3.09-15.02-3.09v-1.97l-.6,1.8.05,17.65,10.4,17.01s.26.85,3.21,1.77c2.94.92,7.59.07,7.59.07l13.94-13.81.29-3.17s0-.07,0-.1l.51-14.67c.01-.31.19-.59.47-.72,0,0,.15-.08.46-.19l.05-.51-2.71-2.02-.17,2.69s-1.06.03-2.95.02c-3.18-.02-8.72-.15-15.5-.76Z"/>
      <path class="cls-1" d="M57.32,13.56l-.22.24c-.19.14-.74.44-1.62.71-1.93.58-6.4,1.58-9.26,1.81-.52.04-.97.1-1.33.17l-.35,10.14c3.46-.31,9.33-.91,12.36-1.63.95-.23,2.36-1.08,3.3-1.71l.21-9.15-.53-2.19-2.57,1.62ZM37.63,8.84v-.14c-10.24.27-19.66-.73-28.05-3.27l-.03,2.28c2.08.64,5.95,1.56,12.07,2.12,6.58.6,11.97.73,15.11.75l.91-1.74ZM8.19,24.7v2.11s9.98,16.31,9.98,16.31c.22.13.94.52,1.92.82,1.83.57,4.44.3,5.69.12l12.75-12.63.2-2.17v-.07s.04-1.13.04-1.13c-12.29-.52-22.08-1.08-30.57-3.35ZM8.17,17.11v3.65c7.67,2.22,17.47,2.84,30.73,3.33l.11-3.22c-12.17-.56-22.43-1.5-30.84-3.76ZM39.14,16.9l.02-.59c-.52,0-1.31.02-2.35.01-3.23-.02-8.84-.15-15.71-.77-.87-.08-1.7-.17-2.5-.26,5.85.81,12.68,1.3,20.53,1.61Z"/>
    </g>
  </g>
</svg>