<?xml version="1.0" encoding="UTF-8"?>
<svg id="armor" xmlns="http://www.w3.org/2000/svg" width="46" height="52" viewBox="0 0 46 52">
  <defs>
    <style>
      .cls-1 {
        fill: #fff;
        fill-rule: evenodd;
      }
    </style>
  </defs>
  <path class="cls-1" d="M27.99,38.01l-3.25,1.81c-.18.1-.33.23-.46.38-.06.01-.12.03-.18.04l-.76.23c-1.19-.08-6.23-.31-8.85-.23-1.04.03-2.92-.01-3.83-.06-.07-.28-.15-.61-.2-.91-.33-1.81-.59-4.18-.63-4.6-.08-3.75-.02-6.13.22-7.63.1-.6.16-1,.36-1.22.08-.08.14-.17.2-.27.3.32,1.36.52,1.84.52h.03c1.23-.01,2.93,0,5.11.08,5.49.19,8.83.81,9.73,1.08.73,2.39.96,3.42.84,4.8-.02.06-.05.14-.08.22-.15.43-.11.89.08,1.27-.03.08-.06.16-.09.24-.28.94-.19,2.92-.08,4.24ZM22.61,48.17c3.94-1.35,7.44-3.67,7.15-3.96.44.35.71.48,1.28.67.82.27,1.7.28,2.56-.14,1.67-.82,3.23-1.88,3.23-1.88.33-.23.57-.57.66-.96,0,0,.25-1,1.17-3.08.57-1.28,1.03-1.72,1.18-1.8l.05-.03c.15.01.3,0,.45-.03l1.51-.3c.18-.04.85-.18.98-.2h.05c.7-.15,1.25-.74,1.31-1.48l.14-1.81c-.03.33-.55-1.73-.57-2.5-.07-2.31.79-3.68.2-7.36-.15-.93-.42-1.93-.74-2.9.07-.06.13-.13.19-.2.3-.38.42-.87.33-1.35l-.21-1.03c-.09-.42-.33-.78-.66-1.01.03-.25,0-.51-.08-.75l-.38-1.06c-.24-.68-.89-1.12-1.61-1.08l-.56.03c-1.48-1.95-7.08-8.54-14.22-9.34-8.47-.95-12.65,1.52-15.18,3.82-.56.5-1.03.98-1.42,1.41l-.03.04-.65.75-.03.04c-.39.48-.68.89-.88,1.2l-.67.19c-.47.13-.86.47-1.06.92l-2.81,6.45c-.28.64-.12,1.38.39,1.85l1.06.98c.06.06.13.11.2.15l-.05.17c-.04.13-.06.25-.06.38-.08.11-.15.22-.21.35-.03.07-.06.14-.09.21-1.06,2.29-1.59,5.16-1.36,7.37.09.89.61,1.84,1.39,2.68.84.9,1.98,1.7,2.72,2.17l.84,9.44c.02.24.1.48.22.69,0,0,1.3,2.29,4.33,2.92,2.43.51,7.01.09,7.01.09.13-.01,2.81-.67,2.94-.71Z"/>
</svg>