<?xml version="1.0" encoding="UTF-8"?>
<svg id="armor" xmlns="http://www.w3.org/2000/svg" width="38" height="45" viewBox="0 0 38 45">
  <defs>
    <style>
      .cls-1 {
        fill: #fff;
        fill-rule: evenodd;
        opacity: .8;
      }
    </style>
  </defs>
  <path class="cls-1" d="M4.22,36.41c0-.16.05-.84.05-.84l1.39-23.53c.03-.55.24-1.08.59-1.52l5.42-6.66c.36-.45.91-.7,1.49-.68l15.19.42c.61.02,1.16.37,1.44.91l4.01,7.98c.42.83.62,1.75.59,2.68-.15,5.04-.67,21.61-1.03,23.78-.16.93-.74,1.61-1.41,2.1-.9.65-1.94.95-2.34,1.05-.05.01-.28.02-.36.02-2.28-.21-21.96-2.03-22.98-2.32-1.14-.33-1.65-1.19-1.87-2-.15-.54-.17-1.06-.16-1.38ZM29.01,43.91c.11,0,.65.03.99-.05.5-.12,1.84-.51,2.99-1.35,1.03-.74,1.88-1.82,2.13-3.25.37-2.19.9-18.92,1.05-24.02h0c.04-1.23-.23-2.45-.78-3.55l-4.01-7.98c-.57-1.14-1.72-1.87-2.99-1.9l-15.19-.42c-1.13-.03-2.22.47-2.93,1.35l-5.42,6.66c-.59.72-.93,1.61-.99,2.54l-1.42,24.03c-.02.27-.08,1.25.2,2.3.36,1.33,1.23,2.72,3.11,3.26,1.03.3,20.72,2.14,23.25,2.38Z"/>
</svg>