<?xml version="1.0" encoding="UTF-8"?>
<svg id="armor" xmlns="http://www.w3.org/2000/svg" width="22" height="26" viewBox="0 0 22 26">
  <defs>
    <style>
      .cls-1 {
        opacity: .7;
      }

      .cls-1, .cls-2 {
        fill: #fff;
        fill-rule: evenodd;
      }

      .cls-2 {
        opacity: .9;
      }
    </style>
  </defs>
  <path class="cls-2" d="M5.86,22.5c.12,0,.25-.01.37-.04l11.49-2.57c.7-.16,1.18-.79,1.13-1.5l-.84-14.45c-.02-.35-.19-.67-.47-.88-.21-.16-.47-.25-.73-.25-.08,0-.16,0-.24.02l-11.7,2.36c-.82.16-1.38.89-1.35,1.73l.63,13.95c.02.51.27.97.67,1.28.3.23.67.35,1.04.35h0Z"/>
  <path class="cls-1" d="M5.05,7.42c-.03-.77.5-1.45,1.26-1.6l11.47-2.3c-.07-.14-.17-.26-.3-.36-.25-.19-.57-.27-.88-.2l-11.7,2.36c-.76.15-1.29.83-1.25,1.6l.63,13.95c.02.47.25.91.62,1.19.36.28.82.38,1.27.3-.29-.28-.46-.66-.48-1.07l-.63-13.87Z"/>
</svg>