<svg width="75" height="140" viewBox="0 0 75 140" fill="none" xmlns="http://www.w3.org/2000/svg">
<path fill-rule="evenodd" clip-rule="evenodd" d="M38.5831 4.60218C40.0345 4.65069 42.028 5.59327 43.4933 6.4596C43.5276 6.48018 43.5881 6.52752 43.59 6.52894L43.965 6.87562L44.049 6.96546C44.3127 6.97244 44.5767 7.03424 44.8126 7.15198C46.1807 7.84505 47.4237 8.62201 48.1251 9.81409C48.2015 9.95263 48.2642 10.0982 48.3058 10.2575C48.4933 10.9921 48.5761 11.616 48.59 12.1774C48.8191 12.413 48.9864 12.7041 49.0558 13.0368C49.5974 15.6287 48.7985 17.4934 48.6388 18.526C49.0554 19.0735 49.2845 19.8842 49.0831 21.194C48.7845 23.1692 48.7084 24.4307 46.7433 26.1217C46.7919 26.5583 46.8404 27.3412 46.8751 28.0065C47.0696 28.1035 47.2155 28.2358 47.3058 28.319C47.4591 28.4652 48.1739 29.3382 48.3751 29.5875C48.5 29.7053 48.6043 29.8366 48.6945 29.9889C48.9584 30.4394 49.3471 30.6407 49.7638 30.8209C50.2428 31.0357 50.7636 31.2086 51.2843 31.4303C54.4856 32.7956 58.854 33.7661 61.8331 35.4225C64.1109 36.6839 65.403 38.902 66.2433 41.4039C66.9446 43.49 67.3263 45.784 67.9581 47.6344C68.3054 48.6532 69.0136 49.8319 69.465 50.8854C70.9858 54.4269 72.646 57.2477 73.0001 61.2535C73.5696 67.7752 73.6945 74.3454 73.5695 80.8532C73.4722 86.0511 72.0141 90.6949 70.8058 95.6364C70.6808 96.17 69.75 98.61 69.1945 99.6774C69.0348 99.9753 68.8886 100.204 68.7775 100.336C68.6178 100.523 68.3883 100.717 68.2286 100.807C67.9232 100.98 67.5273 101.071 67.0831 101.098C66.9512 102.207 66.8959 103.323 66.6876 104.431C66.4237 105.804 65.1945 111.605 64.757 112.464C64.7369 112.505 64.691 112.564 64.6876 112.568L64.6749 112.603C64.5775 112.726 64.5203 112.797 64.674 112.61C64.424 112.957 63.6459 113.844 63.0695 114.398C62.6323 114.814 62.2366 115.063 62.1183 115.119C61.5836 115.354 60.958 115.375 60.34 115.459C60.2846 115.472 60.2361 115.472 60.1876 115.472C60.1321 115.507 60.0763 115.541 60.0138 115.576C59.6457 115.77 59.2637 116.02 58.9581 116.166C58.8055 116.242 58.6593 116.297 58.5275 116.339C58.5135 116.345 58.4786 116.352 58.4786 116.352L58.1593 116.422C58.1386 116.428 58.1244 116.428 58.1036 116.428C57.7497 116.47 57.375 116.443 56.9933 116.381C56.9586 116.374 56.9235 116.366 56.8888 116.359C56.8888 117.17 56.9096 117.981 56.8888 118.792C56.8819 119.055 56.8678 119.416 56.84 119.825C56.833 119.956 56.8053 120.088 56.7706 120.213C56.7915 120.337 56.7981 120.47 56.7911 120.601C56.7217 121.668 56.625 122.902 56.7013 123.567L56.7365 123.609L57.1036 124.018C57.3675 124.344 57.5968 124.697 57.7218 125.064C57.8676 125.494 58.9307 129.355 58.9376 129.59C58.9541 130.096 58.8866 130.893 58.796 131.756C52.3963 133.096 44.8757 134.289 37.0968 134.79C36.5056 133.166 36.0806 131.562 36.0558 130.45C36.0489 130.062 36.1042 129.68 36.1945 129.306C36.2431 129.084 36.3331 128.869 36.3331 128.64C36.3331 128.183 36.3122 127.711 36.2775 127.219C36.2567 126.915 36.3194 126.616 36.4513 126.353L35.7501 122.264C35.7293 122.146 35.7286 122.028 35.7286 121.918C35.6385 121.751 35.569 121.564 35.5343 121.363C35.3746 120.421 35.2086 119.485 35.049 118.591C34.1462 122.382 33.0069 126.125 32.007 129.902L32.1388 130.089C32.3609 130.415 32.5349 130.761 32.6251 131.142C33.0857 133.132 32.6174 133.95 32.1837 134.994C24.5518 135.082 17.867 134.001 12.505 132.551C12.3439 131.886 12.4116 131.253 12.5695 130.643C12.6389 130.366 12.7362 130.103 12.8195 129.839C12.8542 129.749 12.8953 129.666 12.9161 129.583C12.8399 129.465 12.7571 129.361 12.674 129.251C12.3545 128.821 12.0898 128.363 11.9786 127.864C11.7149 126.699 11.8259 124.593 12.2911 123.422C12.3189 123.227 12.3959 122.701 12.4445 122.209C12.6181 120.448 12.7981 117.683 12.6661 116.976C12.6523 116.914 12.611 116.866 12.5763 116.81C12.5208 116.72 12.458 116.63 12.4025 116.533C12.1733 116.117 12.0135 115.68 11.9718 115.188C11.8538 113.753 12.2915 111.709 12.1456 110.046C12.0484 108.86 11.799 108.07 11.6115 107.336C11.2365 105.866 11.0135 104.577 11.8468 101.992C13.0968 98.1038 13.5623 94.7634 14.2081 90.9655C14.2429 90.7784 14.3609 90.0854 14.3956 89.8981C14.4512 89.5655 14.5138 89.2327 14.5763 88.8932C14.7082 88.2002 14.8399 87.3545 14.9718 86.4674C14.7634 86.7515 14.4029 87.1055 13.9308 87.445C13.4032 87.826 12.4728 88.4352 12.049 88.7125C12.0004 88.9412 11.9996 89.2118 11.9718 89.4821C11.9024 90.2791 11.7911 91.0835 11.5411 91.6657C11.3399 92.1366 11.2149 92.3449 11.09 92.5944C11.0067 92.7605 10.9023 92.8994 10.7843 93.0241C10.7912 93.2527 10.7494 93.4744 10.6661 93.6823C10.555 93.9594 10.403 94.244 10.2433 94.5211C10.2086 94.5766 10.1462 94.6668 10.1115 94.7291L10.1945 94.9225C10.3611 95.2829 10.562 95.6645 10.7286 96.0387C11.1175 96.9328 11.2707 97.834 11.0138 98.6657C10.9999 98.7141 10.9789 98.7695 10.9581 98.8248C10.6318 99.594 10.1387 100.045 9.58314 100.308C9.3402 100.419 9.08332 100.495 8.81263 100.537C8.8265 100.62 8.84066 100.696 8.86146 100.779C8.89618 100.911 9.01424 101.015 9.11146 101.126C9.37529 101.437 9.66662 101.729 9.8888 101.985C10.0971 102.234 10.264 102.47 10.3751 102.692C10.5071 102.948 10.5835 103.219 10.6251 103.621C10.6599 104.023 10.5623 104.321 10.5206 104.453C10.4651 104.647 10.3814 104.833 10.2843 105.006C10.319 105.18 10.3334 105.361 10.3195 105.534C10.3194 105.555 10.3126 105.582 10.3126 105.603C10.3099 105.615 10.1632 106.252 9.85365 106.705C9.5342 107.183 9.03463 107.357 8.8263 107.378C8.74309 107.509 8.65268 107.626 8.56947 107.716C8.54864 107.737 8.0694 108.188 7.38197 108.292C7.00003 108.305 6.67353 108.244 6.4513 108.174C6.28464 108.119 6.12448 108.043 5.97865 107.946C5.826 107.932 5.66633 107.883 5.52064 107.821C4.76372 107.495 3.93708 107.031 3.65931 106.802C3.13847 106.366 2.02096 105.02 1.37513 103.925C0.986295 103.267 0.770312 102.65 0.728648 102.262C0.680053 101.77 0.729218 101.32 0.819468 100.89C0.875024 100.62 0.98646 100.356 0.98646 100.065C0.979475 99.8366 0.902438 99.615 0.839976 99.3727C0.71498 98.8598 0.604524 98.3188 0.61146 97.7575C0.646183 95.7476 1.4513 93.3075 1.7013 91.1451C1.31944 91.0412 0.986106 90.7989 0.756968 90.4733C0.493139 90.0852 0.403121 89.6141 0.493296 89.1637C0.791886 87.7153 1.45133 85.8299 1.50697 84.3815C1.53474 83.4875 1.15321 81.7894 1.17396 80.5211C1.18785 79.5439 1.43058 78.7392 1.81947 78.2194C2.0278 77.963 2.33355 77.741 2.56263 77.5817C2.5557 77.5125 2.54896 77.4429 2.54896 77.3668C2.54206 76.9095 2.59677 76.4311 2.79115 75.9323C2.95781 75.4958 3.35389 74.9624 3.85365 74.4567C4.07587 74.228 4.31925 73.9988 4.52064 73.777L4.6808 73.6041C5.81961 70.735 5.99957 67.1518 6.60365 64.2272C6.69393 63.8044 6.96552 63.2839 7.3683 62.778C7.4863 62.6325 7.62521 62.4868 7.75013 62.3483C7.80558 62.2861 7.86792 62.2307 7.8888 62.1754C8.43047 60.5467 9.36765 55.078 9.28431 53.4147C9.25664 52.9015 9.7082 50.7112 10.3331 48.5075C10.9581 46.3106 11.7569 44.1069 12.2013 43.4762C12.7291 42.7416 13.0967 41.8126 13.4786 40.9186C13.9648 39.7681 14.4656 38.6527 15.1115 37.8141C15.7503 36.9894 16.4236 36.1715 17.0763 35.3053C18.7985 33.0321 21.9443 32.3313 24.7081 31.86C25.6872 31.6937 26.6803 31.7214 27.6593 31.6451C27.7704 31.3958 27.8962 31.1123 27.9865 30.9459C27.9931 30.9261 28.0184 30.8931 28.0206 30.8903L28.2433 30.5709C28.0628 29.9195 27.9231 29.2057 27.7286 28.485C27.2496 26.6973 27.2774 25.8448 27.0275 24.944C26.7636 23.9876 26.9721 21.0353 27.0138 20.5358L27.0343 19.0524C27.0343 18.9485 27.0418 18.8515 27.0626 18.7545C27.0626 18.7545 27.1877 18.0824 27.3126 17.0846C27.0557 16.7797 26.9093 16.3909 26.9093 15.9889C26.9094 15.6778 27.191 12.275 27.1945 12.233C27.2222 11.9213 27.3334 11.63 27.5138 11.3805C27.5416 11.3043 27.5832 11.1928 27.6388 11.068C27.4375 10.6799 27.3885 10.2156 27.5343 9.7721C27.7774 9.03052 28.2987 8.28198 29.0626 7.6305C29.9722 6.85444 31.2359 6.19635 32.5411 5.80823C34.2425 5.3023 35.1666 4.49825 38.5831 4.60218ZM56.215 68.3854C55.9929 68.7802 55.7635 69.1542 55.59 69.5075C55.4511 69.7916 55.3401 70.0415 55.3331 70.2633C55.3193 70.6445 55.5204 72.627 55.7218 73.9576C55.7982 74.4774 55.8615 74.8796 55.924 75.0182C56.1877 75.6075 56.4372 76.9933 56.59 78.7184C56.8955 82.2392 56.9374 87.3684 56.8263 88.9694C56.7638 89.7802 56.4444 90.5148 56.007 91.194C55.75 91.596 55.4439 91.9775 55.2286 92.3795C55.1734 92.476 55.1111 92.5721 55.0421 92.6549L55.0411 92.6491V92.6569L55.0421 92.6549C55.0691 92.8057 55.0764 92.9632 55.0558 93.1207C54.9169 94.3266 54.9995 95.7406 55.3536 96.9743L55.8956 96.5787C55.8194 96.2533 55.8266 95.914 55.9445 95.5885C56.4514 94.1608 57.25 92.1084 57.6945 90.1539C57.9375 89.066 58.0897 88.0264 57.9161 87.2018C57.8744 87.0009 57.7292 86.8623 57.632 86.6891C57.3126 86.1139 57.0765 85.4763 57.132 84.6032C57.1806 83.8477 57.4443 83.3413 57.7706 82.9254C57.8192 82.87 57.882 82.7867 57.9445 82.7174C57.9097 82.5166 57.8398 82.2743 57.7843 82.025C57.6315 81.325 57.4719 80.6035 57.465 80.0768C57.4511 78.9817 57.5693 76.5361 57.7081 75.4479C57.7567 75.046 57.7356 73.563 57.7286 73.0221C57.2634 72.1281 57.132 71.1991 57.132 70.2496C57.125 69.6883 57.1803 69.113 57.1456 68.5309L56.5831 67.7409C56.4582 67.9556 56.3399 68.1706 56.215 68.3854Z" fill="white"/>
</svg>
