<?xml version="1.0" encoding="UTF-8"?>
<svg id="armor" xmlns="http://www.w3.org/2000/svg" width="22" height="26" viewBox="0 0 22 26">
  <defs>
    <style>
      .cls-1 {
        fill: #fff;
        fill-rule: evenodd;
        opacity: .8;
      }
    </style>
  </defs>
  <path class="cls-1" d="M3.72,6.91c-.03-.73.47-1.38,1.19-1.52l11.7-2.36c.28-.06.58.01.81.19s.37.45.39.74l.84,14.45c.04.61-.38,1.16-.98,1.3l-11.49,2.57c-.44.1-.89,0-1.25-.28s-.57-.69-.59-1.13l-.63-13.95ZM1.93,6.99c.1,2.42.5,11.51.63,13.95.05.97.54,1.9,1.29,2.48.75.58,1.78.81,2.73.6,2.03-.44,9.49-2.11,11.49-2.56.7-.16,1.34-.57,1.77-1.14.43-.56.65-1.29.61-2.01-.14-2.5-.69-11.95-.84-14.45-.05-.8-.46-1.57-1.09-2.05-.62-.48-1.48-.68-2.26-.53-2.05.4-9.66,1.94-11.7,2.36-.76.16-1.46.59-1.93,1.19-.47.6-.72,1.38-.69,2.17Z"/>
</svg>