<svg width="75" height="140" viewBox="0 0 75 140" fill="none" xmlns="http://www.w3.org/2000/svg">
<g opacity="0.5">
<path d="M16.0137 91.6587C16.8679 92.6637 18.7781 94.6112 21.4863 95.5884C25.1042 96.8982 27.5835 97.2102 37.0205 97.4389C44.9025 97.6261 51.2227 94.3752 53.1602 93.2524C53.0004 95.1999 53.3268 97.5152 54.2227 99.1509L53.0693 99.9409C51.3753 101.105 51.1109 101.223 50.4375 102.068C49.9306 102.705 49.2085 103.78 48.9307 104.265C48.8476 104.417 48.7991 104.528 48.7988 104.57C48.7849 104.694 48.8748 104.958 49.0898 105.214C49.319 105.478 49.681 105.748 50.1602 105.832C50.6254 105.908 51.2083 105.817 51.8887 105.36C52.3192 105.069 52.6108 104.771 52.8955 104.494C53.1663 104.237 53.4303 104.002 53.8398 103.822C53.8884 103.801 54.0624 103.739 54.2568 103.725C54.3749 103.718 54.4935 103.717 54.5977 103.773C54.6739 103.808 54.7297 103.884 54.7852 103.988C54.8546 104.113 54.9095 104.272 54.9512 104.459C55.1595 105.388 55.0695 106.947 54.4863 108.208C53.9447 109.387 53.2292 110.33 52.375 111.453C52.1251 111.501 51.6738 111.619 51.2988 111.847C50.8476 112.124 50.5068 112.554 50.6523 113.219C50.8607 114.176 51.7852 114.19 51.9102 114.19C52.0629 114.197 52.2644 114.177 52.4795 114.156C52.5074 114.253 52.583 114.482 52.6523 114.675C52.7148 114.842 52.7713 114.987 52.7852 115C52.8545 115.097 52.9651 115.16 53.083 115.181C53.0969 115.181 54.4091 115.188 55.0273 115.181C55.0204 116.352 55.0629 117.53 55.0352 118.708C55.0282 118.937 55.014 119.243 54.9932 119.583L54.9375 119.617C54.1528 120.067 50.0556 122.333 46.5625 122.833C44.1667 123.179 39.6109 122.833 37.3887 120.968L37.3955 120.961C37.1316 119.374 36.8398 117.814 36.5898 116.428C36.2843 114.723 35.6601 113.116 35.4102 111.404V111.383C35.3963 111.265 34.6253 107.848 34.6045 107.772C34.5976 107.738 34.5704 107.678 34.5693 107.675L32.792 103.759C32.7573 103.683 32.6944 103.613 32.625 103.565L31.4795 102.803C31.2712 102.665 30.9787 102.72 30.8398 102.935L30.8125 102.976V103.108C30.8264 103.156 30.8681 103.226 30.9375 103.309C31.1807 103.6 31.8472 104.134 32 104.258L33.7012 108.008L34.333 112.728C33.4371 118.557 31.5907 124.164 30.0977 129.868V129.895C30.056 130.276 30.2225 130.567 30.417 130.837C30.5767 131.066 30.7637 131.274 30.8262 131.538C31.1248 132.813 30.8816 133.458 30.583 134.095C30.4555 134.377 30.3156 134.658 30.2061 134.99C24.4184 134.904 19.2201 134.159 14.7861 133.124L14.8057 133.048C14.8126 133 14.8052 132.944 14.7705 132.903C14.1457 132.12 14.3054 131.419 14.5137 130.775C14.6734 130.29 14.847 129.833 14.8193 129.382C14.7916 128.98 14.5691 128.647 14.333 128.329C14.1247 128.051 13.9024 127.788 13.833 127.469C13.6316 126.568 13.7079 124.905 14.0898 124.059C14.1593 123.9 14.2565 123.262 14.3398 122.41C14.5273 120.476 14.6808 117.435 14.5352 116.658C14.4727 116.346 14.3121 116.075 14.1523 115.805C14.0135 115.57 13.8822 115.333 13.8613 115.056C13.7433 113.615 14.181 111.563 14.0352 109.9C13.9171 108.59 13.6527 107.71 13.4443 106.892C13.1457 105.707 12.9787 104.667 13.6523 102.574C14.8883 98.7205 15.3818 95.3941 16.0137 91.6587Z" fill="white"/>
<path d="M55.6943 125.189C55.8123 125.328 55.9171 125.48 55.9727 125.639C56.1046 126.02 57.0898 129.403 57.0898 129.611C57.1095 130.183 57.0106 131.146 56.8965 132.143C51.4832 133.213 45.3744 134.148 39.0439 134.65C38.4293 133.07 37.9679 131.467 37.9443 130.38C37.9374 130.089 38.0067 129.805 38.0762 129.528C38.1525 129.223 38.2226 128.911 38.2227 128.592C38.2157 128.204 38.2015 127.802 38.1807 127.386C39.5488 128.156 43.2084 129.715 47.0693 129.188C48.8402 128.945 51.0972 128.225 52.9375 127.254C54.0972 126.644 55.0902 125.937 55.6943 125.189Z" fill="white"/>
<path d="M54.917 120.767C54.8406 122.063 54.7781 123.491 54.917 124.122C54.9586 124.322 55.0971 124.523 55.2637 124.717L55.2568 124.71C55.0763 124.898 54.6738 125.3 54.1113 125.737C52.3058 127.13 48.3195 128.509 44.9932 128.364C41.7849 128.225 39.3401 126.985 38.3887 126.437L37.6738 122.292C40.1183 123.706 44.3611 124.295 47.7637 123.553C50.7706 122.902 53.8059 121.363 54.917 120.767Z" fill="white"/>
<path d="M37.3887 120.996C37.4026 121.03 37.4026 121.079 37.3887 121.121C37.3817 121.141 37.3752 121.156 37.3613 121.169C37.3891 121.128 37.4025 121.079 37.3887 121.031V120.996Z" fill="white"/>
<path d="M58.4443 96.8354C58.9721 96.8632 59.965 96.9608 61.6523 97.2934C63.7982 97.7162 65.2225 98.4158 65.917 98.8247L65.6875 99.0259C65.6181 99.0814 65.5207 99.2822 65.5068 99.3169H65.5352C65.5143 99.3377 65.5 99.3585 65.5 99.3862C65.1528 100.932 65.1736 102.519 64.875 104.085C64.6318 105.368 63.5279 110.808 63.1182 111.612C63.0348 111.778 62.3056 112.541 61.8125 113.019C61.6185 113.213 61.4659 113.358 61.4102 113.379C61.1532 113.49 60.8678 113.518 60.5762 113.539L61.0762 112.97C61.097 112.942 61.1526 112.839 61.2012 112.679C61.3609 112.194 61.6461 111.092 61.6738 111.037C61.7016 110.974 61.7432 110.995 62.1182 110.253C62.3126 109.872 62.5213 109.38 62.5977 109.186C62.6323 109.103 62.6387 109.054 62.6387 109.041C62.6387 108.999 62.5761 108.708 62.5205 108.68C62.4644 108.653 62.1802 108.736 62.1455 108.756C62.1175 108.771 62.0344 108.847 61.9375 108.978C61.6181 109.394 60.9512 110.385 60.8262 110.669C60.8105 110.71 60.4028 112.138 60.3125 112.429V112.451C60.1598 112.665 59.9587 112.846 59.7852 113.04L59.1387 113.76L59.0977 113.823L59.083 113.892V113.955C58.8123 114.1 58.5485 114.266 58.3125 114.391C58.1598 114.467 58.028 114.53 57.9238 114.543C57.6809 114.571 57.4308 114.523 57.167 114.481C57.0975 114.474 57.0207 114.461 56.9443 114.447C57.1943 114.322 57.4171 114.21 57.5352 114.148C57.6112 114.107 57.6531 114.079 57.667 114.065C58.6598 113.081 58.9517 112.776 59.042 112.672C59.1114 112.596 59.1113 112.575 59.1113 112.561C59.3404 111.958 59.3405 111.958 59.5488 111.348C59.5696 111.3 59.5901 111.279 59.6523 111.182C59.7704 111.002 60.0213 110.628 60.5977 109.665C60.7504 109.408 60.708 109.22 60.708 109.2C60.7149 109.137 60.6872 109.075 60.6387 109.041C60.5831 109.006 60.5067 109.006 60.4512 109.041C60.423 109.055 60.1748 109.162 60.167 109.166C60.1184 109.214 60.0072 109.346 59.8613 109.519C59.5351 109.914 59.0492 110.516 58.8477 110.78C58.7852 110.863 58.7433 110.926 58.7363 110.947C58.4586 111.633 58.3678 111.917 58.3262 112.048C58.313 112.094 58.3001 112.122 58.2988 112.124L57.0488 113.373C56.7572 113.574 56.4093 113.677 56.0898 113.83C55.7775 113.982 55.4925 114.231 55.1523 114.287C54.8678 114.335 54.5834 114.307 54.292 114.287C54.0073 114.266 53.7289 114.238 53.4512 114.273L53.292 114.058C53.5696 114.01 53.8198 113.954 53.9795 113.906C54.1037 113.871 54.1867 113.83 54.2148 113.802C56.1799 112.084 56.3123 112.208 56.9648 111.238C57.3397 110.677 57.4309 110.358 57.4795 110.087C57.5281 109.859 57.5345 109.671 57.7148 109.387C57.9576 109.007 58.3391 108.667 58.4023 108.611L58.4512 108.548C58.4516 108.544 58.4726 108.352 58.4932 108.084C58.5001 108.029 58.479 107.98 58.4443 107.946C58.4096 107.911 57.8262 107.89 57.8262 107.89L57.792 107.917C57.7295 107.966 57.4374 108.23 57.1943 108.528C56.7222 109.11 56.66 109.422 56.6045 109.734C56.5698 109.921 56.5418 110.101 56.4102 110.357C56.3824 110.412 56.1455 110.877 55.958 111.043C55.4443 111.501 55.1947 111.868 54.9795 112.173C54.6878 112.589 54.444 112.866 53.5273 113.067C52.9788 113.185 52.3954 113.275 52.0205 113.289C51.8957 113.289 51.7918 113.289 51.7432 113.268C51.6876 113.24 51.6177 113.178 51.583 113.095C51.5414 112.998 51.5483 112.88 51.6523 112.769C51.8051 112.61 52.1109 112.464 52.6523 112.36C52.805 112.332 52.8818 112.312 53.0205 112.16C53.1247 112.042 53.2775 111.833 53.583 111.424C54.8538 109.706 56.2777 107.703 55.9307 104.654C55.8335 103.753 55.4932 103.219 55.0488 102.976C54.3891 102.609 53.4584 102.859 52.6182 103.524C52.3404 103.739 51.9235 104.216 51.4375 104.563C51.0069 104.875 50.5135 105.083 50.0273 104.813C49.9372 104.764 49.868 104.695 49.8125 104.625C50.2223 103.967 51.3195 102.27 51.8682 101.868C52.3404 101.521 57.208 97.952 58.1875 97.2309C58.2917 97.1547 58.3474 97.106 58.3613 97.0991C58.4307 97.0367 58.4582 96.8978 58.4443 96.8354Z" fill="white"/>
<path d="M7.32617 106.268C7.30534 106.317 7.28451 106.358 7.26367 106.393C7.25681 106.413 7.22439 106.447 7.22266 106.449L7.21484 106.442H7.16016L7.08301 106.42C7.0969 106.337 7.11853 106.247 7.16016 106.123L7.32617 106.268Z" fill="white"/>
<path d="M3.60449 90.2514C4.98628 90.2099 6.59023 90.2165 8.39551 90.272L8.75 90.9858L8.91699 93.0307C8.79204 93.3287 8.59016 93.6332 8.44434 93.9311C8.32628 94.1598 8.24338 94.3891 8.22949 94.604C8.20177 95.1445 8.54203 95.7749 8.85449 96.4194C9.13226 96.9877 9.39603 97.5702 9.23633 98.1108C9.1253 98.3671 8.97246 98.5334 8.78516 98.6235C8.50738 98.7552 8.16667 98.7276 7.8125 98.6167L6.5 96.0942L6.49316 96.0727L6.46484 96.0591L5.6875 94.7632C5.56249 94.5415 5.27786 94.4723 5.05566 94.604C4.83344 94.7287 4.76356 95.0131 4.89551 95.2348L5.47266 96.1977L5.35449 98.062L4.86816 99.7397L4.11816 100.987C4.05566 101.077 4.03483 101.188 4.05566 101.299L4.3125 102.858C4.31944 102.92 4.34712 102.983 4.38184 103.039L5.42383 104.598C5.45112 104.625 5.5047 104.686 5.50684 104.688C5.52764 104.736 5.5552 104.785 5.58984 104.827C5.74262 105.021 6.03505 105.54 6.16699 105.97C6.18086 106.005 6.19434 106.047 6.19434 106.082C5.64577 105.832 5.04909 105.526 4.84766 105.36C4.41712 104.999 3.51422 103.877 2.97949 102.976C2.76421 102.609 2.60384 102.283 2.58301 102.061C2.54837 101.708 2.6181 101.396 2.6875 101.084C2.77083 100.745 2.85449 100.412 2.85449 100.044C2.84754 99.684 2.74956 99.3095 2.65234 98.9214C2.56213 98.5681 2.47955 98.1941 2.47949 97.7993C2.51421 95.5539 3.52759 92.7744 3.63184 90.4458V90.4243C3.62491 90.3621 3.61833 90.3067 3.60449 90.2514Z" fill="white"/>
<path d="M5.77051 100.1C5.76365 100.121 5.76367 100.169 5.76367 100.169L5.63184 102.249C5.62492 102.345 5.6525 102.45 5.70801 102.533L6.75 104.092C6.79167 104.155 6.85446 104.21 6.92383 104.245L8.39551 104.993C8.41631 105.09 8.4441 105.187 8.45801 105.284C8.46495 105.367 8.47252 105.458 8.41699 105.527C8.38227 105.568 8.32617 105.589 8.26367 105.61C8.19435 105.631 8.12507 105.652 8.04883 105.666V105.659L6.18066 104.037L5.22949 102.616L5.01367 101.327L5.70801 100.176C5.72884 100.142 5.74295 100.1 5.75684 100.065L5.84766 99.7602L5.77051 100.1Z" fill="white"/>
<path d="M6.9834 99.019H6.97949C6.88231 99.7743 6.87495 100.523 7.06934 101.264C7.23597 101.895 7.81905 102.484 8.27734 102.976C8.444 103.156 8.59028 103.323 8.6875 103.475C8.73607 103.551 8.77728 103.627 8.77734 103.697C8.79123 103.849 8.74316 103.974 8.68066 104.092L7.45801 103.475L6.56934 102.152L6.6875 100.266L6.97266 98.9975L6.9834 99.019Z" fill="white"/>
<path d="M46.125 29.8159C46.3334 30.0724 46.7782 30.6127 46.9727 30.8345C47.0351 30.9037 47.0767 30.9524 47.1045 30.9731C47.5003 31.6453 48.0345 32.0548 48.6387 32.3667C49.2289 32.6716 49.889 32.8794 50.5557 33.1636C53.7015 34.5011 58.0003 35.4362 60.9238 37.0649C62.7919 38.1045 63.7852 39.9627 64.4727 42.0141C65.1739 44.1071 65.5556 46.3942 66.1875 48.2514C66.5486 49.3118 67.2778 50.5383 67.75 51.6333C69.1875 54.9807 70.8053 57.6354 71.1387 61.4263C71.7012 67.8857 71.8262 74.3871 71.7012 80.8257C71.597 85.878 70.1599 90.3899 68.9863 95.1997C68.8822 95.6155 68.2295 97.3413 67.7295 98.4087C67.6045 98.679 67.4858 98.9007 67.3955 99.0532C67.3607 99.1156 67.0763 99.2612 66.9443 99.2612C66.9029 99.261 66.9863 99.1157 66.9863 99.1157C67.0904 99.0256 67.1455 98.8939 67.1455 98.7554C67.1386 98.6167 67.076 98.485 66.9648 98.4018C66.9316 98.3784 65.2094 97.055 61.833 96.3852C59.1284 95.8454 58.1319 95.8842 57.8184 95.9253C58.3454 94.4665 59.0867 92.4949 59.5137 90.6118C59.8262 89.2395 59.9654 87.9083 59.7432 86.8618C59.6737 86.5571 59.5277 86.2939 59.375 86.0307C59.1736 85.6773 58.9653 85.3166 59 84.769C59.0278 84.312 59.2705 84.0902 59.4648 83.8686C59.6315 83.6815 59.7778 83.4866 59.8125 83.2163C59.854 82.9114 59.7847 82.4745 59.6875 82.0034C59.5486 81.3383 59.3401 80.5972 59.333 80.0845C59.3191 79.0449 59.4306 76.743 59.5625 75.7173C59.625 75.2595 59.6597 73.9849 59.625 73.1743C59.6181 72.9181 59.5971 72.7103 59.5693 72.5786C59.5485 72.4954 59.5277 72.4394 59.5068 72.4048C59.0833 71.7117 59 70.9977 59 70.27C58.9931 69.5008 59.0691 68.7105 58.958 67.9136C58.9579 67.8858 58.9307 67.8374 58.9307 67.8374L57.5068 65.8413C57.097 64.0667 54.6246 57.2887 54.4023 56.4917C54.2219 55.8474 54.3476 55.5215 54.4795 55.1958C54.6322 54.8147 54.7918 54.4334 54.6113 53.6782C54.4725 53.0892 53.1043 50.9556 52.958 50.7261L52.9238 50.6841L52.8818 50.6499L52.833 50.6284L52.7705 50.6147H52.6602C52.6116 50.5732 52.5419 50.5666 52.4863 50.5874C52.41 50.6151 52.3681 50.6908 52.3818 50.7739C52.4929 51.3422 52.7989 51.8558 53.1045 52.3686C53.396 52.8397 53.681 53.3177 53.7852 53.8511C53.9102 54.5233 53.7843 54.8563 53.6523 55.1889C53.4996 55.57 53.3544 55.9513 53.4932 56.7134C53.514 56.8312 54.8614 59.7562 55.7295 62.979C55.8822 63.5472 55.9374 64.1294 56.0068 64.7114C55.7082 65.6955 54.8817 66.9362 54.2637 68.0727C53.8263 68.8696 53.4858 69.6253 53.4648 70.2143C53.444 70.845 53.9579 75.2191 54.2148 75.8013C54.437 76.3003 54.6045 77.4643 54.7295 78.9057C55.0281 82.3223 55.0759 87.298 54.9648 88.8579C54.9301 89.3568 54.7083 89.7937 54.4375 90.2095C54.1667 90.646 53.8406 91.0553 53.6045 91.4848C53.042 91.8522 45.8194 96.4546 37.0625 96.2397C27.8684 96.018 25.4446 95.7336 21.917 94.4585C19.1674 93.4675 17.0077 91.0489 16.2852 90.1684C16.3407 89.8635 16.3956 89.5583 16.4512 89.2534C16.84 87.1258 17.257 83.5635 17.75 81.7407C17.8819 81.2556 18.0898 80.9225 18.2773 80.5552C18.4787 80.1601 18.6668 79.7302 18.7432 79.0718C18.7571 78.9397 18.806 78.5517 18.7852 78.2056C18.7782 77.9409 18.7501 75.7387 19.2705 74.5815C19.8746 73.2371 20.6737 67.471 20.6113 66.8188C20.4725 65.3774 20.4582 63.624 20.3818 62.2241C20.3332 61.2746 20.3545 52.7431 20.3545 52.396C20.3545 52.3551 20.2873 51.8914 20.2852 51.8764L19.8262 49.145C19.7843 48.889 19.5417 48.7228 19.292 48.7641C19.035 48.8057 18.8685 49.0488 18.9102 49.2983L19.417 52.3472C19.3684 53.0193 19.4026 61.3968 19.4512 62.2788C19.5276 63.6856 19.5417 65.4532 19.6875 66.9155C19.7292 67.3937 18.8683 73.2214 18.4238 74.2065C17.8477 75.4882 17.8545 77.8714 17.8545 78.2124C17.174 79.6955 16.0836 81.588 15.167 82.6831C14.8267 83.092 14.0344 83.459 13.708 83.6323C13.6261 83.6732 13.5447 83.7282 13.542 83.73L13.4932 83.7778L13.4648 83.8403L13.4512 83.9233C13.4512 83.9857 13.4721 84.083 13.5068 84.1938C13.5902 84.4711 13.7573 84.9289 13.4795 85.3794C13.3892 85.5249 13.1942 85.6914 12.9512 85.8716C12.5554 86.1626 12.0344 86.4878 11.5762 86.7788C11.2082 87.0144 10.8821 87.2364 10.6807 87.4097C10.5765 87.4998 10.5074 87.5835 10.4727 87.6528C10.2505 88.0756 10.1805 88.6921 10.125 89.3227C10.0694 89.9118 10.0273 90.5083 9.83984 90.938C9.79133 91.0486 9.74961 91.146 9.70801 91.229L9.67383 90.8266C9.66689 90.7713 9.65269 90.716 9.625 90.6606L9.10449 89.6206C9.03505 89.4681 8.87467 89.3647 8.70801 89.3647C6.20814 89.2816 4.06243 89.2881 2.375 89.3921H2.36816C2.7015 87.8812 3.32628 85.9543 3.38184 84.4712C3.40961 83.6949 3.13878 82.3155 3.06934 81.1304C3.0277 80.3891 3.05565 79.7242 3.32617 79.3638C3.43034 79.2321 3.625 79.162 3.8125 79.0649C4.06235 78.9402 4.2916 78.7743 4.375 78.5181C4.47222 78.22 4.45139 77.9006 4.4375 77.561C4.42362 77.2631 4.42387 76.9511 4.54883 76.6255C4.68085 76.2998 5.06936 75.9186 5.45117 75.5376C5.86784 75.1148 6.28494 74.6917 6.42383 74.3452C7.61122 71.3651 7.82619 67.6503 8.45117 64.6147C8.50672 64.3583 8.75685 64.0603 9.00684 63.7554C9.2985 63.4088 9.58344 63.0551 9.68066 62.771C10.264 61.0242 11.2573 55.1265 11.167 53.3315C11.1462 52.881 11.5969 50.9683 12.1455 49.0278C12.6941 47.0872 13.3405 45.1184 13.7363 44.5639C14.3333 43.7186 14.7776 42.6723 15.208 41.6538C15.6316 40.6558 16.0489 39.6783 16.6045 38.9575C17.2433 38.1329 17.9165 37.3081 18.5762 36.4419C20.0136 34.536 22.7149 34.1055 25.0273 33.7104C26.2426 33.5025 27.4793 33.5996 28.6807 33.4194C28.7847 33.4055 28.8892 33.3437 28.9863 33.2261C29.0836 33.1013 29.1802 32.9136 29.2705 32.6987C29.4024 32.3799 29.5348 32.0057 29.6807 31.7632C30.1042 33.2601 31.229 34.5977 31.7568 35.1245C31.9233 35.2906 32.0413 35.3741 32.0762 35.395H32.0898C32.0898 35.395 34.2364 36.0739 39.1045 34.6323C42.5277 33.6205 43.3613 32.9001 45.125 31.2993C45.2778 31.1676 45.868 30.2249 46.125 29.8159Z" fill="white"/>
<path d="M6.98633 99.0259L6.9834 99.019H6.98633V99.0259Z" fill="white"/>
<path d="M57.8057 95.9624V95.9272C57.8098 95.9267 57.814 95.9259 57.8184 95.9253C57.8139 95.9376 57.8101 95.9501 57.8057 95.9624Z" fill="white"/>
<path d="M44.8887 26.2954C44.965 26.9542 45.0624 29.0253 45.0693 29.2612C45.0346 29.4068 44.8537 29.7186 44.5273 30.1206C43.6801 31.1671 41.861 32.7821 38.8125 33.7593C37.9514 34.0365 37.1942 34.2788 36.5137 34.4243C33.7765 35.0229 32.9424 34.5425 32.9307 34.5356H32.917C32.2712 34.2307 31.8822 33.9184 31.7363 33.5649L32.6523 33.6206C33.6732 33.6622 35.0834 33.5235 36.2432 33.1284C37.9931 32.5324 39.6945 31.9779 41.125 31.0561C42.7708 29.9958 43.9379 28.9701 44.1602 28.6167C44.3545 28.3117 44.493 27.8057 44.5693 27.2514C44.611 26.9466 44.6316 26.6209 44.6455 26.3091C44.7288 26.3229 44.8055 26.3229 44.8818 26.3091L44.8887 26.2954Z" fill="white"/>
<path d="M38.5273 6.4868C39.68 6.52145 41.2149 7.30454 42.4023 7.99754H42.3887C42.2845 8.07378 42.1248 8.18507 42.0137 8.25438C41.9096 8.31668 41.8191 8.37868 41.7705 8.43407C41.6527 8.55857 41.6666 8.64905 41.7012 8.71141C41.7289 8.75991 41.7985 8.83635 41.8818 8.83641L43.9863 8.85008C45.0002 9.36988 45.9586 9.88992 46.4863 10.7632C46.8613 12.2671 46.6871 13.2097 46.4648 14.1177C46.451 14.187 46.4794 14.2705 46.5488 14.3052C46.6113 14.3465 46.6945 14.3322 46.75 14.2768L47.2705 13.7505C47.6177 15.8713 46.9093 17.389 46.7773 18.2554C46.7634 18.3593 46.7149 18.4982 46.6455 18.5952C46.6178 18.6366 46.5902 18.6781 46.5557 18.685C46.4307 18.7128 46.222 18.7479 46.0762 18.7964C45.8822 18.8587 45.7991 18.969 45.7988 19.0727C45.8058 19.2599 45.9307 19.3364 46.1182 19.3364C46.2571 19.3433 46.5625 19.3016 46.8193 19.4331C47.1974 19.625 47.3311 19.9823 47.2461 20.728C47.2468 20.7055 47.25 20.6786 47.25 20.646C47.229 20.3552 47.062 20.1679 46.9023 20.0571C46.7358 19.9396 46.5209 19.9052 46.292 19.9536C45.7156 20.0714 44.9795 20.7786 44.667 21.936C44.6463 22.0051 44.6463 22.074 44.667 22.1431C44.6809 22.1915 44.6946 22.2264 44.75 22.2817C44.7916 22.3233 44.8678 22.393 45.0273 22.5591L44.7705 23.1274C44.7427 23.1967 44.7569 23.2801 44.8193 23.3286C44.8471 23.3563 44.8891 23.3706 44.9238 23.3706C45.0901 23.3705 45.208 23.2941 45.2705 23.2456H45.2852C45.3617 23.1553 45.7347 22.6929 45.75 22.6704C45.75 22.6704 45.792 22.5866 45.792 22.5034C45.792 22.4412 45.791 22.3854 45.7148 22.2886C45.68 22.24 45.6036 22.1567 45.4375 21.9702C45.5277 21.7693 45.6875 21.4369 45.8818 21.1528C46.0277 20.9449 46.1877 20.7576 46.3613 20.6675C46.4031 20.6467 46.5348 20.6117 46.5557 20.6186C46.5765 20.6256 46.5906 20.6467 46.6045 20.6675C46.6323 20.7095 46.7599 20.9712 46.7637 20.979C46.7983 21.0066 46.9714 21.09 47.0205 21.0835C47.0622 21.0696 47.1041 21.0411 47.1318 20.9995C47.1552 20.9587 47.2167 20.8406 47.2363 20.8032C47.2313 20.8421 47.2288 20.8824 47.2227 20.9233C46.9796 22.4827 46.9927 23.5014 45.333 24.8598C44.633 25.4352 44.0078 24.8131 43.9932 24.7983C43.9446 24.7498 43.8681 24.7355 43.8057 24.7632C43.7364 24.7908 43.7013 24.86 43.7012 24.9292C43.7012 24.9292 43.7637 26.1353 43.6318 27.1333C43.5763 27.5351 43.4933 27.9026 43.3545 28.1313C43.2087 28.367 42.5766 28.8663 41.667 29.4692C39.5003 30.9039 35.7431 32.8241 32.9375 32.727C32.1181 32.6993 31.5486 32.4837 31.125 32.1372C30.7016 31.7838 30.4308 31.299 30.2295 30.7309C29.9448 29.9409 29.7843 28.9981 29.5273 28.0278C29.0551 26.2258 29.0762 25.3663 28.8262 24.4653C28.5777 23.5836 28.8714 20.696 28.875 20.6606V20.646L28.8955 19.1147C28.9233 18.99 29.118 17.9229 29.2568 16.5093C29.2638 16.4538 29.2427 16.4052 29.208 16.3706L28.7773 15.9409C28.7982 15.428 29.0141 12.8979 29.0488 12.4751C29.1668 12.3434 29.2218 12.1767 29.2773 11.9966C29.3329 11.8165 29.389 11.6228 29.5693 11.4565C29.7568 11.2833 30.0764 11.1517 30.6318 11.0893C30.7151 11.0824 30.7712 11.0199 30.7852 10.9438C30.799 10.8676 30.7501 10.7909 30.6807 10.7632L29.375 10.23C29.5417 9.82105 29.8685 9.43216 30.2852 9.07176C31.0142 8.44821 32.0278 7.9285 33.0762 7.61668C34.6108 7.15928 35.4374 6.39678 38.5273 6.4868Z" fill="white"/>
<path d="M47.2432 20.7925C47.2432 20.7925 47.2395 20.7971 47.2363 20.8032C47.2396 20.7777 47.2433 20.7527 47.2461 20.728C47.2453 20.7533 47.2468 20.7741 47.2432 20.7925Z" fill="white"/>
</g>
<g opacity="0.7">
<path d="M17.2703 95.4496C17.7842 95.2278 18.3683 95.262 18.8475 95.5531C19.528 95.9689 20.278 96.3499 21.1043 96.641C23.7848 97.6112 25.8401 98.0622 30.5203 98.3255C30.8397 98.3463 31.1317 98.4503 31.3817 98.6166C31.6454 98.4711 31.9511 98.3948 32.2635 98.4085C33.6315 98.4709 35.1944 98.5193 36.993 98.5609C42.2705 98.6856 46.8814 97.3207 50.0203 96.0316C50.4855 95.8445 51.0066 95.8655 51.451 96.0941C51.8954 96.3228 52.2149 96.7388 52.326 97.224C52.3607 97.3624 52.3889 97.5007 52.4305 97.6322C52.618 98.3252 52.3469 99.0603 51.7567 99.4623C50.4652 100.356 50.1806 100.565 49.5486 101.362C49.0349 102.006 48.3056 103.093 47.9861 103.634L47.7567 104.119L47.6805 104.459V104.778L47.7703 105.146L47.9578 105.554L48.201 105.901L48.993 106.58L49.41 106.788L49.9656 106.941L50.5692 106.982L50.7156 106.961C51.3891 106.871 52.056 107.183 52.4031 107.765C52.7573 108.347 52.7217 109.082 52.3328 109.629C52.2357 109.768 52.1322 109.9 52.0281 110.038C51.8407 110.288 51.5834 110.482 51.2918 110.6C51.1321 110.662 50.972 110.738 50.8123 110.822C50.8036 110.829 50.1997 111.308 50.0067 111.529C49.2915 112.347 49.3268 113.857 50.2156 114.64C51.3476 115.638 53.91 117.828 53.91 117.828C53.91 118.646 53.3054 119.11 52.8123 119.346C52.4793 119.512 51.3559 120.156 51.2293 120.212C49.764 120.85 48.0134 121.474 46.3953 121.709C44.5758 121.973 41.3119 121.883 39.201 120.809C38.722 120.566 38.389 120.116 38.2986 119.589C38.0903 118.411 37.8816 117.274 37.6942 116.235C37.5553 115.459 37.3468 114.696 37.1385 113.941C36.4164 113.511 36.111 112.617 36.4373 111.827C36.5137 111.653 36.5412 111.459 36.5203 111.265C36.4368 110.841 35.8129 108.078 35.7225 107.668L35.5486 107.134L33.8543 103.412L33.5555 102.942L33.1385 102.567L32.2361 101.964L31.5486 101.687C31.4376 101.638 31.3333 101.583 31.2361 101.521C31.1806 101.549 31.1315 101.576 31.076 101.597L30.3543 101.895L29.8406 102.408C29.917 102.678 30.2571 103.787 31.1043 105.097C31.1459 105.166 31.1878 105.236 31.2225 105.312L32.493 108.098C32.5624 108.25 32.6108 108.41 32.6317 108.577L33.1531 112.478C33.174 112.644 33.174 112.811 33.1531 112.97C32.2434 118.591 30.4717 124.011 29.0203 129.521C28.8053 129.95 28.8753 130.234 29.0418 130.567L29.6248 131.71C29.7429 131.939 29.8054 132.189 29.8123 132.452L29.7635 133.021L29.5623 133.623C29.4095 133.956 29.2498 134.289 29.1248 134.677C29.093 134.775 29.065 134.871 29.0379 134.964C24.1917 134.817 19.7791 134.212 15.907 133.376L15.951 133.021C15.951 133.021 15.6045 131.911 15.5906 131.842C15.5421 131.572 15.5551 131.295 15.6453 131.032C15.8189 130.477 15.9863 129.943 15.9793 129.423L15.7225 128.364L15.6873 128.356C15.5618 128.106 14.8892 127.053 14.8543 126.742C14.7779 126.035 14.8683 125.099 15.0975 124.551C15.1121 124.493 15.3607 123.469 15.4578 122.507C15.6522 120.518 15.785 117.421 15.6531 116.505L15.4861 115.909C15.4028 115.708 15.2984 115.52 15.1873 115.333C15.0485 115.091 14.9726 114.814 14.9656 114.53C14.9309 113.144 15.2918 111.314 15.16 109.796C15.0419 108.403 14.764 107.474 14.5418 106.608C14.2849 105.596 14.1529 104.702 14.7293 102.913C15.4306 100.723 15.903 98.7066 16.285 96.683C16.3891 96.1357 16.7567 95.6783 17.2703 95.4496Z" fill="white"/>
<path d="M55.326 127.511L55.9442 130.013C55.9283 130.611 55.8284 131.487 55.7225 132.37C50.9395 133.281 45.6582 134.074 40.1883 134.554C39.8113 133.636 39.4899 132.705 39.2986 131.891C39.1598 131.309 39.3398 130.698 39.7703 130.283C40.2008 129.86 40.819 129.708 41.3953 129.861C43.0898 130.318 45.1321 130.602 47.2293 130.318C49.0973 130.068 51.4723 129.313 53.4236 128.294L55.3406 127.496L55.326 127.511Z" fill="white"/>
<path d="M59.4656 98.0902C59.5488 98.0902 59.6324 98.09 59.7156 98.1039C60.167 98.1662 60.7295 98.2631 61.4168 98.4017C61.9791 98.5126 62.486 98.644 62.9373 98.7826C63.722 99.0251 64.222 99.7881 64.1248 100.599C63.9998 101.687 63.9308 102.789 63.7225 103.877C63.6391 104.3 63.4649 105.222 63.2635 106.261C63.1524 106.829 62.7571 107.301 62.2225 107.509L61.4861 107.8C61.2988 107.876 61.1044 107.917 60.9031 107.917H60.8611C60.8611 107.917 60.6819 107.894 60.5379 107.876H60.5828L60.3543 107.848C59.9515 107.779 59.5899 107.571 59.326 107.252L59.2225 107.127L58.993 106.954L58.7361 106.836L58.4168 106.76C57.6668 106.594 57.1322 105.942 57.0975 105.18C57.0905 104.965 57.0696 104.737 57.0418 104.515C56.9793 103.933 56.826 103.468 56.6385 103.101L56.0486 102.304C55.7778 101.944 55.6667 101.486 55.7361 101.042C55.8056 100.599 56.0489 100.196 56.41 99.9261C57.2223 99.3302 57.9727 98.7756 58.4656 98.4222C58.7433 98.2145 59.0836 98.104 59.4236 98.0902H59.4656Z" fill="white"/>
<path d="M60.5379 107.876H60.5067L60.3543 107.855H60.368C60.3901 107.86 60.4589 107.866 60.5379 107.876Z" fill="white"/>
<path d="M45.0692 32.8587C45.6803 32.3251 46.5903 32.2972 47.2361 32.7962C47.5069 33.011 47.8056 33.1906 48.118 33.35C48.736 33.6688 49.4236 33.8909 50.1111 34.182C53.2223 35.4988 57.4791 36.4207 60.368 38.0287C61.979 38.9226 62.7913 40.5719 63.3885 42.346C64.0899 44.4391 64.4724 46.7269 65.1043 48.5843C65.4724 49.6654 66.215 50.9266 66.6942 52.0492C68.083 55.2857 69.6803 57.8363 69.9998 61.4955C70.5623 67.9132 70.6873 74.3798 70.5623 80.7767C70.4651 85.7529 69.0344 90.1819 67.8817 94.9085C67.8678 94.9916 67.8267 95.1166 67.7781 95.2689C67.6254 95.7193 67.2916 96.0865 66.8611 96.2806C66.4306 96.4747 65.9373 96.4824 65.4998 96.2953C64.604 95.921 63.4583 95.5325 62.0555 95.2552C61.8125 95.2067 61.5765 95.165 61.3543 95.1234C60.8751 95.0402 60.451 94.7492 60.201 94.3334C59.9512 93.9176 59.8892 93.4118 60.035 92.9476C60.2502 92.2407 60.4583 91.5197 60.618 90.8128C60.9721 89.2605 61.1042 87.7636 60.8543 86.5785C60.7918 86.2874 60.6806 86.0234 60.5486 85.7669C60.271 85.2125 60.3127 84.5542 60.6668 84.0414L60.7225 83.9652L60.951 83.2025C60.9787 82.8145 60.9166 82.288 60.7986 81.7269C60.6737 81.1379 60.4795 80.4792 60.4725 80.0218C60.4516 79.0307 60.5623 76.8058 60.6873 75.8216C60.7498 75.3365 60.7914 73.9644 60.7567 73.0912C60.7497 72.8349 60.7287 72.6061 60.701 72.4398C60.701 72.4329 60.3557 71.5324 60.3475 71.5111C60.3822 71.6079 60.4308 71.6976 60.4793 71.7806L60.1873 71.0462C60.1318 70.7761 60.1385 70.499 60.1385 70.2289C60.1385 69.4457 60.2085 68.6414 60.1043 67.8236C60.104 67.8157 60.0036 67.4431 59.9998 67.4291L59.8055 67.0677L58.7361 65.5716C58.625 65.4122 58.5417 65.2382 58.4861 65.0511C57.8472 62.8332 55.9718 57.6352 55.576 56.4085C55.4789 56.1106 55.4655 55.7915 55.5418 55.4867L55.7918 54.4613L55.6873 53.3041C55.4512 52.5694 54.1735 50.4969 53.9305 50.1087C53.9274 50.1049 53.7217 49.852 53.701 49.8314C53.1385 49.1456 52.4439 49.4646 52.3953 49.4369L52.1043 49.5062L51.6942 49.7621L51.4305 50.0951L51.2986 50.4964V51.0794C51.4514 51.7306 51.7845 52.3265 52.1385 52.9154C52.2982 53.1648 52.4856 53.4078 52.5828 53.6781C52.6939 53.9969 52.715 54.3435 52.6317 54.6693L52.3123 55.9378C52.3054 56.1665 52.3126 56.4231 52.3611 56.7279C52.6599 57.463 53.833 60.2282 54.6385 63.2289C54.7149 63.513 54.7638 63.804 54.8055 64.0951C54.8471 64.4138 54.7987 64.7328 54.6668 65.0169C54.3196 65.7862 53.7217 66.6659 53.2703 67.4906C52.7288 68.4745 52.3607 69.4173 52.3328 70.138C52.3051 70.8172 52.9025 75.4952 53.1942 76.2582C53.2844 76.473 53.326 76.6879 53.326 76.9027C53.4024 77.3809 53.535 78.2404 53.5975 78.9681C53.8822 82.2255 53.9379 86.9249 53.8406 88.5882C53.8267 88.8446 53.7498 89.0941 53.6248 89.3158C53.5831 89.392 53.5141 89.5033 53.4725 89.5726C53.3059 89.8359 53.1245 90.0917 52.951 90.348C52.8122 90.5558 52.6319 90.7291 52.4168 90.8539C50.5696 91.9489 44.3814 95.2488 37.0828 95.0755C28.1043 94.8607 25.736 94.611 22.2918 93.3636C20.5349 92.7329 19.0413 91.4711 18.076 90.4662C17.7012 90.0782 17.5347 89.5377 17.6248 89.0042C17.9859 86.8767 18.3677 83.6953 18.826 82.0111C18.9371 81.6161 19.1176 81.3452 19.2703 81.0472C19.5273 80.5551 19.7571 80.0078 19.8543 79.1761C19.8751 79.0098 19.924 78.5383 19.9031 78.1156V78.0951C19.8823 77.5822 19.8822 75.9328 20.2918 75.0179C20.9376 73.5833 21.7919 67.3799 21.7225 66.6869C21.5836 65.2592 21.5694 63.5192 21.493 62.14C21.4513 61.3341 21.4656 55.0987 21.4656 53.0267C21.4518 52.9435 21.4442 52.853 21.4442 52.7699L21.4305 51.9173L20.9578 49.097L20.6736 48.348L20.2635 47.9183L19.7225 47.6761L19.0975 47.6556L18.5135 47.8773L18.0828 48.2865L17.8406 48.8265L17.8123 49.6234L18.2498 52.2367C18.2706 52.3405 18.2703 52.4443 18.2703 52.5482C18.2356 54.4264 18.2707 61.5029 18.3123 62.3138C18.3887 63.6791 18.41 65.3771 18.535 66.8187C18.5558 66.9365 18.5489 67.0613 18.535 67.1791C18.4794 67.588 17.7496 72.9182 17.3885 73.7152C16.8956 74.8172 16.7778 76.626 16.7361 77.5892C16.7222 77.8247 16.6664 78.0533 16.5623 78.2611C15.9651 79.4808 15.1527 80.8669 14.4305 81.7679C14.2916 81.9412 14.118 82.0799 13.9236 82.1908C13.7917 82.267 13.4167 82.4756 13.2361 82.5726L12.7703 82.8705C12.7496 82.8911 12.7285 82.9123 12.7078 82.933C12.6178 83.0299 12.5415 83.1406 12.493 83.2582C12.4652 83.3205 12.4444 83.3833 12.4305 83.4457C12.4167 83.5092 12.4161 84.0686 12.3953 84.2005C12.3467 84.54 12.1947 84.8523 11.9656 85.1087C11.8685 85.2196 11.1535 85.6977 10.9656 85.8158C10.5977 86.0514 10.2641 86.28 10.035 86.4671L9.40998 87.2503C9.11837 87.8463 8.50716 88.2133 7.84064 88.1996C7.18786 88.1857 6.55505 88.1722 5.95783 88.1722C5.44412 88.1721 4.96467 87.9431 4.64533 87.5482C4.32609 87.1532 4.20145 86.6398 4.29865 86.141C4.41662 85.566 4.49947 85.0119 4.52033 84.5062C4.5481 83.7092 4.28423 82.3089 4.20783 81.096C4.17311 80.5209 4.43017 79.9659 4.89533 79.6263L5.07599 79.4945L5.25666 79.2523L5.45099 78.8363L5.56916 78.3031C5.58305 78.1229 5.58283 77.9424 5.58283 77.7552C5.56897 77.3048 5.74301 76.8681 6.05548 76.5423C6.12492 76.473 6.20111 76.3966 6.25666 76.3412C6.79832 75.7936 7.29876 75.2184 7.47931 74.7679C8.63198 71.8779 8.89612 68.3088 9.47248 65.308L9.50666 65.349C9.54143 65.065 9.65246 64.7946 9.82599 64.5521C9.83294 64.5452 9.88166 64.4828 9.88166 64.4828C10.2636 64.0184 10.6248 63.5192 10.7498 63.138V63.1107C11.347 61.3226 12.3333 55.4178 12.2986 53.3871C12.2917 53.2625 12.3051 53.1308 12.3328 53.0062C12.3953 52.7151 12.8196 50.7741 13.2293 49.3187C13.6527 47.8295 14.4364 45.7102 14.5067 45.514C14.5553 45.3823 14.6177 45.2568 14.701 45.139C15.3259 44.2451 15.7985 43.1506 16.2498 42.0765C16.6318 41.1755 16.9929 40.2876 17.4998 39.6361C18.1387 38.8114 18.8196 37.9868 19.4793 37.1136C20.0626 36.3444 20.917 35.8865 21.8475 35.5677C22.9376 35.1866 24.1254 34.9999 25.2225 34.8128C26.396 34.6119 27.5833 34.6948 28.7498 34.5423C29.3401 34.4592 29.9305 34.702 30.3055 35.1664C30.5346 35.4574 30.7502 35.6933 30.9168 35.8666C30.9308 35.8795 31.3611 36.2474 31.3611 36.2474L32.868 36.6566C34.0069 36.7467 36.1458 36.6767 39.4305 35.7064C42.5413 34.7847 43.6457 34.106 45.0692 32.8587Z" fill="white"/>
<path d="M38.493 7.60288C38.7984 7.60981 39.1178 7.66502 39.451 7.7689C40.0135 7.94216 40.4515 8.39296 40.6043 8.96128C40.6043 8.98127 40.6296 9.05225 40.6317 9.05796C40.6801 9.18912 41.1009 9.68485 41.1248 9.70249C41.1595 9.73019 41.2014 9.75105 41.2361 9.77183L41.576 9.89683L41.9793 9.94565L43.3817 9.95249C43.6317 9.95249 43.8753 10.0076 44.0975 10.1185C44.4099 10.264 44.6943 10.438 44.9373 10.6458C45.2567 10.9231 45.4648 11.3042 45.5203 11.7269C45.6244 12.5307 45.5203 13.1265 45.3953 13.6878L45.3543 14.2562L45.4578 14.6517C45.4635 14.6618 46.0835 15.7613 46.0975 16.0443C46.1183 16.3562 45.8819 17.2505 45.8055 17.3822C45.6875 17.583 45.528 17.7563 45.3406 17.8949L45.0555 18.1029C45.0539 18.1044 45.0134 18.145 44.993 18.1722C44.9166 18.2695 44.7297 19.0924 44.7225 19.1976C44.6947 19.7174 44.6109 19.6486 44.3748 19.9466C44.0554 20.3555 43.7634 20.8825 43.5828 21.513L43.5203 22.0257L43.576 22.3587C43.6592 22.8507 43.5205 23.3566 43.1942 23.7376L42.7781 24.223L42.6248 24.5687L42.5692 25.1029C42.583 25.394 42.5976 26.0804 42.5281 26.725C42.4795 27.1961 42.236 27.6254 41.8611 27.9095C41.6251 28.0827 41.3196 28.3045 41.035 28.4916C39.0212 29.8153 35.5698 31.6518 32.9656 31.5619L32.7635 31.5482C32.1525 31.4857 31.6316 31.0976 31.3817 30.5433C31.347 30.4671 31.3126 30.3839 31.2918 30.3216C31.014 29.5593 30.868 28.644 30.618 27.7083C30.1528 25.9482 30.1527 25.0748 29.9305 24.1947C29.8889 24.0353 29.8679 23.8687 29.8748 23.7025L29.8885 23.3841C29.3886 22.802 29.3266 21.935 29.7918 21.2835C29.9027 21.1312 29.9722 20.9443 29.993 20.7435V20.6117L30.0135 19.3294C30.0135 19.2394 30.021 19.149 30.0418 19.0589C30.1113 18.6499 30.257 17.7629 30.3611 16.6751V16.2943L30.2986 16.0238L30.1453 15.7113C30.0136 15.4411 29.9585 15.136 29.9793 14.8382L29.9998 14.8597C30.0343 14.4266 30.3357 12.3909 30.3406 12.3578C30.3545 12.3301 30.4096 12.1915 30.4236 12.1634L30.9373 12.2191L31.5067 11.8236L31.7498 11.4906L31.8817 11.0824L31.868 10.4652C31.8472 9.7306 32.3055 9.06532 32.9998 8.81577C33.1316 8.76731 33.2635 8.72548 33.3953 8.68393C34.8328 8.26116 35.6041 7.51972 38.493 7.60288Z" fill="white"/>
</g>
<path d="M17.9648 97.0089C18.7355 97.4801 19.597 97.9095 20.5273 98.2491C23.3468 99.2679 25.5071 99.7531 30.4307 100.03L29.3955 100.453L28.4648 101.375C28.4024 101.472 28.3474 101.562 28.2988 101.659C28.1947 101.86 27.535 102.699 29.667 106.012L29.6875 105.998L30.958 108.784L31.4795 112.686C30.5767 118.279 28.8057 123.664 27.3682 129.147L27.2852 129.618V130.4L27.4307 131.122L28.1182 132.474C28.125 132.654 28.076 132.779 28.0205 132.903C27.84 133.291 27.6595 133.686 27.5068 134.144C27.421 134.407 27.3525 134.656 27.2939 134.891C23.7903 134.702 20.531 134.277 17.5586 133.71L17.6455 133.049L17.5762 132.369L17.3545 131.725L17.2432 131.545C17.5001 130.727 17.6941 129.936 17.6455 129.181L17.3057 127.802C17.1252 127.386 16.8753 126.998 16.5977 126.624L16.5488 126.555C16.5002 126.118 16.528 125.536 16.6738 125.21C16.7849 124.961 17.0352 123.99 17.1602 122.673C17.3684 120.469 17.4859 117.005 17.3193 116.124L17.1045 115.361C16.9934 115.064 16.8404 114.772 16.6738 114.488C16.6391 113.068 16.9933 111.196 16.8613 109.65C16.7294 108.14 16.4304 107.128 16.1943 106.192C16.0068 105.437 15.9239 104.771 16.3545 103.434C17.0836 101.174 17.5621 99.095 17.9648 97.0089Z" fill="white"/>
<path d="M54.2705 129.943C54.2518 130.629 54.1164 131.687 53.9941 132.691C50.217 133.369 46.1654 133.963 41.9814 134.385C41.5541 133.401 41.1806 132.37 40.9727 131.489C42.8614 131.988 45.1326 132.307 47.4727 131.988C49.5004 131.711 52.0978 130.893 54.2227 129.784L54.2705 129.943Z" fill="white"/>
<path d="M50.7773 98.0831C49.2637 99.1294 48.944 99.3928 48.208 100.321C47.6247 101.049 46.7843 102.304 46.4648 102.865L46.1318 103.579L45.9795 104.286V104.986L46.1455 105.7L46.4727 106.407L46.9307 107.052L48.042 108.001L48.792 108.375L49.6738 108.618L50.625 108.688L50.9443 108.646C50.8472 108.77 50.7572 108.895 50.6602 109.026C50.3686 109.137 50.0765 109.276 49.7988 109.449L48.6602 110.441L48.0273 111.542L47.7852 112.679L47.875 113.822L48.3057 114.974L49.0273 115.909L50.1807 116.671L50.6182 116.803L51.4307 117.545L52.2012 117.828V117.877C50.7151 118.639 48.3051 119.727 46.1523 120.032C44.5899 120.254 41.785 120.219 39.9727 119.298C39.7713 118.12 39.5557 116.983 39.3682 115.937C39.0882 114.364 38.5271 112.877 38.2578 111.316L38.208 111.002C38.2913 111.591 38.2012 112.077 38.0137 112.479C38.2081 112.021 38.2774 111.508 38.208 111.002L38.1875 111.029V110.995C38.1319 110.683 37.3545 107.232 37.3545 107.232L37.125 106.531L35.3477 102.615L34.8545 101.84L34.167 101.23L33.0205 100.467L32.1807 100.128C33.5626 100.19 35.1319 100.239 36.9443 100.28C42.4999 100.412 47.3546 98.9776 50.6602 97.6192C50.7017 97.7715 50.7357 97.9308 50.7773 98.0831Z" fill="white"/>
<path d="M52.1943 118.98H52.1807L52.1943 118.924V118.98Z" fill="white"/>
<path d="M62.4443 100.405V100.419C62.3402 102.256 62.0836 104.099 61.6045 105.942L60.8682 106.233L60.6387 106.192C60.6387 106.192 60.4372 105.977 59.8955 105.513C59.3595 105.053 58.8101 105.117 58.7988 105.118C58.7988 105.118 58.6879 104.036 58.4727 103.094C58.2655 102.15 57.4333 101.308 57.4238 101.299L59.4795 99.7882L62.4443 100.405Z" fill="white"/>
<path d="M46.208 34.1339C46.5622 34.418 46.9517 34.6535 47.3545 34.8614C48.0001 35.2009 48.7291 35.4364 49.458 35.7481C52.5205 37.0511 56.7084 37.9384 59.5557 39.5186C60.7917 40.2117 61.3337 41.5284 61.792 42.8936C62.5003 44.9867 62.8817 47.2813 63.5137 49.1388C63.8956 50.2614 64.6524 51.5713 65.1523 52.7286C66.4648 55.7919 68.0206 58.1901 68.3262 61.6554C68.8817 68.0176 69.0068 74.4145 68.8818 80.7559C68.7916 85.6004 67.375 89.9187 66.25 94.5206C66.2361 94.576 66.2153 94.6454 66.1807 94.7423C65.2015 94.3264 63.944 93.9037 62.4023 93.5987C62.1456 93.5502 61.9028 93.5016 61.6738 93.46C61.9029 92.7117 62.1184 91.9496 62.292 91.1944C62.7017 89.3786 62.819 87.6245 62.5273 86.2384C62.4301 85.7949 62.2706 85.3998 62.0762 85.0118L62.2773 84.7208L62.6318 83.5567C62.7013 83.0161 62.6463 82.2323 62.4727 81.3936C62.3685 80.9086 62.1807 80.3752 62.1807 80.0011C62.1598 79.0654 62.2638 76.9718 62.3818 76.0431C62.4513 75.509 62.5065 73.9984 62.4648 73.0284C62.444 72.5852 62.4031 72.218 62.3545 71.9893L61.9375 70.9151C61.8056 70.7003 61.8477 70.4642 61.8477 70.2354C61.8407 69.3484 61.9093 68.4336 61.7773 67.505L61.5898 66.8116L61.2432 66.1808L60.1113 64.6007C59.4655 62.376 57.5836 57.1445 57.1875 55.9102L57.5068 54.6134L57.3682 53.0196C57.2014 52.3056 55.715 49.7827 55.3887 49.2559L55.4443 49.2423C55.8054 49.8175 55.7779 49.596 55.167 48.8546C55.1531 48.8407 55.1389 48.8264 55.125 48.8194C55 48.667 54.8398 48.5215 54.6523 48.3761C54.6386 48.3624 54.6183 48.3489 54.6045 48.3487C54.4587 48.2378 54.2776 48.1333 54.0762 48.0362C54.0478 48.0272 53.0693 47.752 53.0693 47.752L52.2773 47.7315L51.4863 47.9259L50.5977 48.4737L49.9648 49.2638L49.6318 50.2198L49.6455 51.2667C49.8192 52.1676 50.2434 52.9921 50.7295 53.796C50.8267 53.9553 50.9649 54.0945 51.0273 54.2608L50.6738 55.6739C50.6391 56.0897 50.6458 56.575 50.7568 57.1847C50.7777 57.3094 52.1462 60.3452 53.042 63.6788C53.0975 63.8937 53.1392 64.1094 53.167 64.3311C52.8406 65.0657 52.2635 65.8976 51.833 66.6876C51.1526 67.9418 50.7291 69.1614 50.6943 70.0831C50.6666 70.7484 51.1948 74.8519 51.542 76.4044C51.5906 76.6262 51.6801 76.9729 51.7148 77.1876C51.7843 77.6311 51.9093 78.4345 51.9648 79.1134C52.2357 82.2876 52.2914 86.8695 52.2012 88.4913C52.1734 88.5397 52.1322 88.6158 52.1045 88.6573C51.9449 88.9067 51.7711 89.1561 51.6045 89.3985C49.8614 90.4381 44.0417 93.5502 37.1807 93.3839C28.535 93.169 26.25 92.9686 22.9307 91.7696C21.4377 91.2291 20.1808 90.1406 19.3613 89.2882C19.7155 87.209 20.0829 84.0968 20.5273 82.4542C20.5968 82.1909 20.7357 82.0243 20.8398 81.8233C21.1731 81.1719 21.4795 80.4583 21.6045 79.3634C21.6253 79.1554 21.6879 78.5523 21.6602 78.0186C21.6463 77.6305 21.597 76.3903 21.9023 75.7042C22.6107 74.1171 23.549 67.2831 23.4727 66.5138C23.3338 65.0999 23.3264 63.3946 23.25 62.0362C23.1945 61.0987 23.2227 52.7088 23.2227 52.3614L23.1943 52.7354L23.1807 51.7579L22.6602 48.6466L22.1943 47.4268L21.3262 46.5118L20.1807 45.9923L18.8682 45.9434L17.6455 46.4083L16.7295 47.2745L16.208 48.4181L16.1602 49.7276L16.625 52.5069C16.5903 54.4057 16.6253 61.5635 16.667 62.3897C16.7364 63.7689 16.7567 65.4949 16.8887 66.9503C16.8401 67.3315 16.2152 72.2663 15.8818 73.0079C15.3124 74.2832 15.1316 76.3833 15.083 77.4991C14.5344 78.608 13.8052 79.8697 13.1455 80.6944C12.9994 80.7709 12.5628 81.0195 12.4238 81.089L11.8057 81.4845C11.6946 81.5745 11.5971 81.6648 11.5068 81.7618C11.2779 82.0043 11.0976 82.2882 10.9727 82.586C10.8477 82.884 10.7709 83.1959 10.75 83.5216C10.7361 83.6601 10.7361 83.8058 10.75 83.9444C10.75 83.9444 10.2773 84.2494 10.0898 84.3673C9.57609 84.6999 9.12539 85.0193 8.84766 85.2618L8 86.3145C7.97222 86.37 7.94477 86.4261 7.91699 86.4815C7.25033 86.4677 6.61111 86.4532 6 86.4532C6.13189 85.7812 6.22914 85.1369 6.25 84.5479C6.27777 83.7233 6.00709 82.2537 5.93066 80.9786L6.30566 80.7013L6.75 80.1192L7.09766 79.3634L7.27051 78.5597C7.29828 78.2825 7.29883 77.9982 7.29883 77.7003C7.36133 77.6379 7.43088 77.5681 7.47949 77.5196C8.2155 76.792 8.83998 75.9809 9.08301 75.378C10.2705 72.3978 10.5698 68.7173 11.167 65.6124L11.2227 65.5431C11.7572 64.8918 12.215 64.185 12.3955 63.6515C13.0205 61.7594 14.0621 55.5148 14.0273 53.3663C14.0898 53.0822 14.4928 51.1971 14.8955 49.7833C15.3052 48.3486 16.0624 46.2966 16.1318 46.1095C16.8193 45.1253 17.3477 43.9264 17.8477 42.7413C18.167 41.986 18.4515 41.2302 18.875 40.6759C19.5208 39.8443 20.1947 39.0129 20.8613 38.1397C21.2433 37.6407 21.8265 37.3838 22.4307 37.1759C23.4235 36.8364 24.5206 36.6704 25.5273 36.4972C26.6801 36.3031 27.8473 36.386 28.9932 36.2335C29.2015 36.4969 29.3957 36.7261 29.5693 36.9063C30.1805 37.5439 31.6665 38.243 32.5137 38.3263C33.8401 38.4579 36.264 38.4241 39.9307 37.336C43.4027 36.3034 44.6179 35.5268 46.208 34.1339Z" fill="white"/>
<path d="M38.4238 9.34286C38.5904 9.34289 38.7639 9.3773 38.9443 9.4327C38.9582 9.48121 38.9724 9.52287 38.9863 9.57138C39.0001 9.60584 39.0067 9.63361 39.0205 9.66806C39.1385 9.9867 39.2846 10.2501 39.4512 10.4649C39.6387 10.7075 39.8406 10.9024 40.042 11.0479H40.0273C40.201 11.1727 40.4932 11.3458 40.4932 11.3458L41.1602 11.5948L41.8682 11.6925H43.375C43.5485 11.7756 43.7079 11.8589 43.8398 11.9766C43.9161 12.5863 43.819 13.0295 43.7148 13.4591L43.6455 14.4366L43.8818 15.3653L44.4023 16.169L44.4307 16.1905C44.4098 16.3151 44.3754 16.4332 44.3477 16.5509L43.9727 16.8272C43.8685 16.9173 43.7708 17.0221 43.6875 17.1261C43.4862 17.3686 43.3336 17.6389 43.2295 17.9229C43.1323 18.2001 43.0696 18.4844 43.0557 18.7755L43 18.713L43.0557 18.7823V18.9278C42.5904 19.5169 42.1738 20.2793 41.9238 21.2149L41.8125 22.0948L41.9102 22.67L41.333 23.3497L40.9795 24.1739L40.8887 25.0821C40.8887 25.0821 40.9308 25.8653 40.8613 26.586C40.6531 26.7454 40.3819 26.9461 40.125 27.1124C38.3542 28.2767 35.3473 29.9816 33.0557 29.8985C33.0349 29.8916 33.0003 29.8917 32.9727 29.8917C32.9519 29.8571 32.9377 29.8159 32.9238 29.7813C32.6599 29.0536 32.5281 28.1869 32.292 27.3067C31.8267 25.5464 31.8337 24.6801 31.6045 23.7999L31.7148 20.9444C31.7149 20.9029 31.7226 20.8542 31.7295 20.8058V20.6808L31.6943 20.7227L31.708 19.42C31.7844 18.9764 31.9447 18.0056 32.0488 16.8136V16.1485L31.8955 15.5108L31.6602 15.0323C31.6949 14.5959 31.7358 14.1111 31.7705 13.6886L31.875 13.6602L32.6807 13.1056L33.2637 12.3224L33.5693 11.3663L33.5488 10.4581C33.6529 10.4166 33.7573 10.3823 33.8613 10.3546C35.1529 9.97338 35.8337 9.26663 38.4238 9.34286Z" fill="white"/>
</svg>
