<?xml version="1.0" encoding="UTF-8"?>
<svg id="armor" xmlns="http://www.w3.org/2000/svg" width="38" height="45" viewBox="0 0 38 45">
  <defs>
    <style>
      .cls-1, .cls-2 {
        fill: #fff;
        fill-rule: evenodd;
      }

      .cls-2 {
        opacity: .7;
      }
    </style>
  </defs>
  <path class="cls-2" d="M29.11,42.42c.07,0,.25,0,.33-.02.42-.1,1.5-.42,2.42-1.08.84-.61,1.34-1.36,1.49-2.22.36-2.17.88-18.77,1.03-23.81.03-.96-.18-1.92-.61-2.78l-4.01-7.99c-.31-.61-.92-1-1.61-1.02,0,0-15.19-.42-15.19-.42-.67,0-1.25.28-1.65.76l-5.42,6.66c-.38.47-.6,1.03-.63,1.63l-1.39,23.53s-.05.68-.05.84c0,.35.01.88.17,1.44.3,1.11,1,1.85,2.01,2.14,1.05.3,20.78,2.12,23.02,2.33h.1Z"/>
  <path class="cls-1" d="M28.25,42.11c.62.06,1.02.1,1.15.11.03,0,.06,0,.09,0,.41-.09,3.54-.85,3.94-3.24.36-2.17.88-18.75,1.03-23.79.03-.94-.17-1.88-.6-2.72l-4.01-7.98c-.29-.57-.87-.94-1.51-.96h-1.63c.64.02,1.22.39,1.51.96l4.01,7.98c.42.84.63,1.78.6,2.72-.15,5.04-.67,21.62-1.03,23.79-.33,2-2.58,2.86-3.54,3.14Z"/>
</svg>