<?xml version="1.0" encoding="UTF-8"?>
<svg id="armor" xmlns="http://www.w3.org/2000/svg" width="34" height="50" viewBox="0 0 34 50">
  <defs>
    <style>
      .cls-1 {
        fill: #fff;
        fill-rule: evenodd;
        opacity: .8;
      }
    </style>
  </defs>
  <g id="armor_left">
    <path class="cls-1" d="M10.18,10.27l4.87-1.01c-1.92-2.48-4.44-4.08-7.59-4.75l-1.43.85,4.16,4.91ZM7.01,36.12l.02.03-4.21,2.51,1.95,4.27,4.57-1.48.81-.37-2.54-5.23-.6.26ZM9.87,42.23l1.94,3.47c1.09.24,19.92-5.37,18.91-7.03-.73-1.2-1.44-4.15-1.44-4.15l-2.11-5.26-8.83-19.73-.99.13-7.82,1.62-1.28.69-.38,3.52-3.33,12.5-1.58,2.48,3.57,4.96,3.76-1.66c.21-.09.46,0,.56.22.09.21,0,.46-.22.56l-2.23.98,2.66,5.46,2.17-.68c.22-.07.46.06.53.28.07.22-.05.46-.28.53l-3.59,1.12Z"/>
    <path class="cls-1" d="M15.66,42.31c2.93-.83,6.78-2.07,9.71-3.22.84-.33,1.73-.76,2.4-1.09-.39-1.11-.71-2.27-.83-2.71l-2.04-5.07-8.04-17.96-6.34,1.31-.23,2.18c-.01.12-.04.25-.07.37l-3.33,12.5c-.06.24-.17.48-.3.69l-.69,1.08,1.44,2,1.95-.86,1.12-.24,1.08.2.93.59.66.93.24,1.12-.2,1.08-.59.93-.84.59.63,1.3.16-.05,1.14-.12,1.05.31.86.69.55,1,.12,1.14-.32,1.05-.22.27Z"/>
  </g>
</svg>