<svg width="20" height="20" viewBox="0 0 20 20" fill="none" xmlns="http://www.w3.org/2000/svg">
<g clip-path="url(#clip0_273_8581)">
<path fill-rule="evenodd" clip-rule="evenodd" d="M10 0C15.5228 2.41411e-07 20 4.47715 20 10C20 15.5228 15.5228 20 10 20C4.47715 20 2.31089e-07 15.5228 0 10C2.41411e-07 4.47715 4.47715 -2.41411e-07 10 0Z" fill="white"/>
<path fill-rule="evenodd" clip-rule="evenodd" d="M10 1C14.9706 1 19 5.02944 19 10C19 14.9706 14.9706 19 10 19C5.02944 19 1 14.9706 1 10C1 5.02944 5.02944 1 10 1Z" fill="#191919"/>
<path d="M7.69777 14.0875H9.65777V7.43844L9.79777 6.62791L9.23777 7.27359L7.69777 8.35887L7.16577 7.65825L10.2458 5.32281H10.7498V14.0875H12.6678V15.1041H7.69777V14.0875Z" fill="white"/>
</g>
<defs>
<clipPath id="clip0_273_8581">
<rect width="20" height="20" fill="white"/>
</clipPath>
</defs>
</svg>
