<svg width="18" height="18" viewBox="0 0 18 18" fill="none" xmlns="http://www.w3.org/2000/svg">
<g clip-path="url(#clip0_273_8532)">
<path fill-rule="evenodd" clip-rule="evenodd" d="M9 0C13.9706 2.1727e-07 18 4.02944 18 9C18 13.9706 13.9706 18 9 18C4.02944 18 2.0798e-07 13.9706 0 9C2.1727e-07 4.02944 4.02944 -2.1727e-07 9 0Z" fill="white"/>
<path d="M9 0C13.9706 2.1727e-07 18 4.02944 18 9C18 13.9706 13.9706 18 9 18C4.02944 18 2.0798e-07 13.9706 0 9C2.1727e-07 4.02944 4.02944 -2.1727e-07 9 0ZM9 1C4.58172 1 1 4.58172 1 9L1.01074 9.41211C1.22523 13.6389 4.71994 17 9 17L9.41211 16.9893C13.6389 16.7748 17 13.2801 17 9C17 4.58172 13.4183 1 9 1Z" fill="black"/>
<path d="M9.00001 2.70001L10.4164 7.28361H15L11.2919 10.1164L12.7083 14.7L9.00001 11.8672L5.2918 14.7L6.70821 10.1164L3 7.28361H7.5836L9.00001 2.70001Z" fill="black"/>
</g>
<defs>
<clipPath id="clip0_273_8532">
<rect width="18" height="18" fill="white"/>
</clipPath>
</defs>
</svg>
