<svg id="guns_sights" data-name="guns sights" xmlns="http://www.w3.org/2000/svg" width="128" height="128" viewBox="0 0 128 128">
  <metadata><?xpacket begin="﻿" id="W5M0MpCehiHzreSzNTczkc9d"?>
<x:xmpmeta xmlns:x="adobe:ns:meta/" x:xmptk="Adobe XMP Core 5.6-c138 79.159824, 2016/09/14-01:09:01        ">
   <rdf:RDF xmlns:rdf="http://www.w3.org/1999/02/22-rdf-syntax-ns#">
      <rdf:Description rdf:about=""/>
   </rdf:RDF>
</x:xmpmeta>
                                                                                                    
                                                                                                    
                                                                                                    
                                                                                                    
                                                                                                    
                                                                                                    
                                                                                                    
                                                                                                    
                                                                                                    
                                                                                                    
                                                                                                    
                                                                                                    
                                                                                                    
                                                                                                    
                                                                                                    
                                                                                                    
                                                                                                    
                                                                                                    
                                                                                                    
                                                                                                    
                           
<?xpacket end="w"?></metadata>
<defs>
    <style>
      .cls-1 {
        fill: #e0e0e0;
        fill-rule: evenodd;
      }
    </style>
  </defs>
  <path class="cls-1" d="M64,116a52,52,0,1,1,52-52A52,52,0,0,1,64,116ZM99.69,52.014h-23.7V28.31a2.3,2.3,0,0,0-2.3-2.3H54.31a2.3,2.3,0,0,0-2.3,2.3v23.7H28.31a2.3,2.3,0,0,0-2.3,2.3V73.69a2.3,2.3,0,0,0,2.3,2.3h23.7v23.7a2.3,2.3,0,0,0,2.3,2.3H73.69a2.3,2.3,0,0,0,2.3-2.3v-23.7h23.7a2.3,2.3,0,0,0,2.3-2.3V54.31A2.3,2.3,0,0,0,99.69,52.014Z"/>
</svg>
