<svg width="18" height="18" viewBox="0 0 18 18" fill="none" xmlns="http://www.w3.org/2000/svg">
<g clip-path="url(#clip0_273_8536)">
<path fill-rule="evenodd" clip-rule="evenodd" d="M9 0C13.9706 2.1727e-07 18 4.02944 18 9C18 13.9706 13.9706 18 9 18C4.02944 18 2.0798e-07 13.9706 0 9C2.1727e-07 4.02944 4.02944 -2.1727e-07 9 0Z" fill="white"/>
<path d="M9 0C13.9706 2.1727e-07 18 4.02944 18 9C18 13.9706 13.9706 18 9 18C4.02944 18 2.0798e-07 13.9706 0 9C2.1727e-07 4.02944 4.02944 -2.1727e-07 9 0ZM9 1C4.58172 1 1 4.58172 1 9L1.01074 9.41211C1.22523 13.6389 4.71994 17 9 17L9.41211 16.9893C13.6389 16.7748 17 13.2801 17 9C17 4.58172 13.4183 1 9 1Z" fill="black"/>
<path d="M8.3122 13.1306C8.9562 13.1306 9.4882 12.9558 9.9082 12.6062C10.3282 12.2567 10.5382 11.7498 10.5382 11.0856C10.5382 10.4477 10.3282 9.9714 9.9082 9.65679C9.49754 9.34218 8.9282 9.18488 8.2002 9.18488L7.0242 9.25042V4.71484H11.3922V5.68488H8.0742V8.2935L8.6762 8.26728C9.6002 8.27602 10.3282 8.51634 10.8602 8.98825C11.3922 9.46016 11.6582 10.1374 11.6582 11.0201C11.6582 11.5095 11.5695 11.9464 11.3922 12.3309C11.2149 12.7067 10.9722 13.0213 10.6642 13.2748C10.3655 13.5282 10.0109 13.7205 9.6002 13.8515C9.18954 13.9826 8.75087 14.0482 8.2842 14.0482C7.8642 14.0482 7.50954 14.0263 7.2202 13.9826C6.93087 13.9389 6.6602 13.8734 6.4082 13.786L6.7022 12.8946C6.91687 12.9733 7.14554 13.0344 7.3882 13.0781C7.6402 13.1131 7.9482 13.1306 8.3122 13.1306Z" fill="black" fill-opacity="0.9"/>
</g>
<defs>
<clipPath id="clip0_273_8536">
<rect width="18" height="18" fill="white"/>
</clipPath>
</defs>
</svg>
