<?xml version="1.0" encoding="utf-8"?>
<!-- Generator: Adobe Illustrator 16.0.0, SVG Export Plug-In . SVG Version: 6.00 Build 0)  -->
<!DOCTYPE svg PUBLIC "-//W3C//DTD SVG 1.1//EN" "http://www.w3.org/Graphics/SVG/1.1/DTD/svg11.dtd">
<svg version="1.1" id="Layer_1" xmlns="http://www.w3.org/2000/svg" xmlns:xlink="http://www.w3.org/1999/xlink" x="0px" y="0px"
	 width="40px" height="40px" viewBox="0 0 40 40" enable-background="new 0 0 40 40" xml:space="preserve">
<path id="Color_Fill_1" fill="#FFFFFF" d="M31.863,13.914c2.199,0,4.5,0.079,6.617,0.049V14.5l-6.617,0.1
	c-0.008,0.456,0.026,0.911,0.1,1.361c0.357,0,0.418-0.161,0.784-0.146l0.047,0.485c0.194-0.034,0.394-0.034,0.588,0
	c0.093,0.284,0.207,0.561,0.343,0.826c0.614,0.409,1.717,0.2,2.601,0.194c0.021,0.154,0.07,0.302,0.147,0.437
	c0.487-0.071,0.982-0.071,1.471,0c0.997,0.237,1.785,1,2.057,1.989c-0.279,0.102-0.52,0.289-0.686,0.535
	c0.197,0.595,0.144,1.244-0.147,1.8c-0.12,0.14-0.251,0.271-0.392,0.389c-0.485,0.534-1.047,0.993-1.668,1.361
	c-0.551,0.394-1.049,0.944-1.617,1.312c-0.666,0.323-1.354,0.6-2.059,0.826L31.814,26.5H7.6c-1.031-0.267-2.045-0.592-3.039-0.973
	C3.674,25.332,2.816,25.02,2.01,24.6c-0.406-0.36-0.696-0.834-0.833-1.36c0.005-0.228-0.011-0.456-0.049-0.681
	C0.732,22.429,0.353,22.251,0,22.029l0.245-0.68c0.201-0.227,0.382-0.471,0.539-0.729c0.05-0.34,0.033-0.687-0.049-1.021
	c-0.017-0.407,0.017-0.815,0.1-1.215c-0.006-0.203-0.057-0.402-0.149-0.585c0.064-0.026,0.131-0.042,0.2-0.049
	c0.018,0.127,0.118,0.227,0.245,0.243c-0.045-0.26-0.028-0.526,0.049-0.778c-0.015,0.145,0.066,0.282,0.2,0.341
	c0.06-0.037,0.13-0.055,0.2-0.05v-0.143h0.1c0.463-0.09,0.921-0.203,1.373-0.34c0,0-0.047-0.121,0.049-0.146
	c0.084,0.026,0.167,0.06,0.245,0.1c0.25-0.045,0.496-0.11,0.735-0.194c0.751-0.291,1.519-0.534,2.3-0.729L6.52,16.49l1.078-0.1
	c0.041-0.158-0.024-0.074,0.1-0.146c0.114,0.009,0.229,0.009,0.343,0l0.049-0.292h0.586c0.406,0.067,0.82,0.067,1.225,0
	c0.805,0.013,1.608-0.052,2.4-0.194c0.041-0.074,0.058-0.159,0.049-0.243c-0.175-0.308-0.227-0.671-0.144-1.015v-2.87
	c1.074-0.123,2.158-0.139,3.235-0.049c0-0.292-0.017-0.584-0.049-0.875c0.508-0.004,1.016-0.038,1.52-0.1v-0.288
	c0.274-0.054,0.554-0.071,0.833-0.049c0.037,0.126,0.054,0.257,0.049,0.389h0.147v-0.146c0.793-0.126,1.599-0.16,2.4-0.1
	c0.151,0.092,0.317,0.157,0.49,0.194v-0.289c0.274-0.054,0.554-0.071,0.833-0.049c0.035,0.11,0.052,0.225,0.049,0.34
	c0.292,0.051,0.586,0.085,0.882,0.1v0.1c0.09,0.335,0.156,0.676,0.2,1.021c0.107-0.055,0.235-0.055,0.344,0
	c0.043,0.091,0.061,0.192,0.049,0.292c0.308,0.034,0.674,0.027,0.931,0.049v-0.34c0.226-0.049,0.456-0.065,0.687-0.049
	c0.051,0.01,0.1,0.026,0.146,0.049c0.044,0.091,0.061,0.192,0.049,0.292c0.523-0.021,1.048-0.004,1.568,0.049
	c0.22,0.037,0.5-0.073,0.638-0.049c0.29,0.058,0.586,0.091,0.882,0.1c0.053,0.238,0.172,0.457,0.344,0.632
	c0.579,0.336,1.441-0.28,1.715,0.486c0.018,0.028,0.105,0.225,0,0.243h0.883v0.34h0.734c0-2.165,0.131-4.526,0-6.414h0.101v6.414
	L31.863,13.914z M29.706,14.643v0.292h-1.029l0.05,0.437h0.293c0.018,0.145,0.018,0.292,0,0.437c0.255,0.081,0.518,0.13,0.785,0.146
	c-0.002-0.053,0.016-0.104,0.049-0.146c0.615-0.205,1.268-0.271,1.912-0.194v-1.021C31.152,14.636,30.393,14.643,29.706,14.643z
	 M12.5,15.469l0.049,0.34h0.1c0.647-0.114,1.304-0.163,1.961-0.146c0.115,0.253,0.194,0.308,0.588,0.292
	c0.695-0.108,1.398-0.157,2.102-0.145v-0.34h-0.045c-0.451,0.099-0.915,0.115-1.372,0.049L12.5,15.469z M1.471,17.8l0.245-0.049
	v-0.144c-0.078-0.029-0.161-0.047-0.245-0.049c-0.012,0.02-0.029,0.037-0.049,0.049C1.448,17.668,1.464,17.733,1.471,17.8z
	 M1.716,19.744c-0.01,0.084,0.007,0.169,0.049,0.243c0.009-0.084-0.008-0.168-0.049-0.241V19.744z M1.275,20.814
	c0.138,0.146,0.305,0.264,0.49,0.341V20.96c-0.027-0.027-0.044-0.062-0.049-0.101H1.667v-0.045H1.275z M36.766,22.855v0.101h0.049
	V22.9h0.049C36.836,22.875,36.801,22.86,36.766,22.855z M36.422,23.1c-0.043,0.059-0.076,0.124-0.1,0.193h0.049
	c0.036-0.06,0.087-0.109,0.146-0.146C36.492,23.122,36.458,23.105,36.422,23.1L36.422,23.1z M36.177,23.293
	c-0.091,0.09-0.173,0.188-0.245,0.292h0.049c0.082-0.098,0.182-0.18,0.293-0.243C36.248,23.316,36.214,23.299,36.177,23.293z
	 M9.216,23.973H8.922v0.101c0.098,0.136,0.18,0.282,0.245,0.437v-0.051C9.222,24.303,9.239,24.137,9.216,23.973z M9.853,23.973
	c-0.104,0.158-0.156,0.346-0.147,0.535h0.049v-0.049c0.104-0.145,0.172-0.311,0.2-0.486h-0.1H9.853z M15.686,23.973
	c0.047,0.192,0.131,0.374,0.245,0.535v-0.34c-0.034-0.038-0.064-0.107-0.1-0.146v-0.049H15.686L15.686,23.973z M16.47,23.973
	c-0.073,0.192-0.055,0.406,0.049,0.584c0.035-0.256,0.149-0.344,0.2-0.584C16.637,23.989,16.553,23.989,16.47,23.973L16.47,23.973z
	 M18.97,23.973c0.059,0.176,0.2,0.315,0.245,0.486c0.052,0.385-0.018,0.775-0.2,1.118h1.475v-0.101c-0.457-0.352-0.12-1.1,0-1.506
	h-0.147C19.887,24.026,19.427,24.027,18.97,23.973L18.97,23.973z M23.039,23.973h-0.294v0.101c0.097,0.136,0.179,0.282,0.245,0.437
	v-0.051C23.045,24.303,23.063,24.137,23.039,23.973z M23.676,23.973c-0.104,0.158-0.155,0.346-0.146,0.535h0.049v-0.049
	c0.104-0.145,0.172-0.311,0.199-0.486h-0.1H23.676z M29.509,23.973c0.053,0.19,0.136,0.371,0.245,0.535v-0.34
	c-0.033-0.038-0.064-0.107-0.1-0.146v-0.049H29.509L29.509,23.973z M30.538,23.973h-0.244c-0.035,0.11-0.052,0.225-0.049,0.34
	c0.04,0.074,0.058,0.159,0.049,0.244h0.049v-0.101C30.444,24.313,30.512,24.146,30.538,23.973L30.538,23.973z M32.793,23.973
	c0.095,0.155,0.177,0.318,0.245,0.486c-0.005,0.212,0.011,0.424,0.049,0.632c0.24-0.18,0.662-0.187,0.882-0.389
	C33.363,24.275,33.977,23.947,32.793,23.973L32.793,23.973z M12.254,24.073c0.23,0.476,0.23,1.03,0,1.506h1.177v-0.052
	c-0.272-0.443-0.291-0.996-0.049-1.457h-0.343c-0.248,0.118-0.536,0.118-0.784,0L12.254,24.073z M26.127,24.073
	c0.168,0.491,0.15,1.026-0.049,1.506h1.177v-0.052c-0.271-0.443-0.29-0.996-0.049-1.457h-0.343c-0.23,0.121-0.506,0.121-0.735,0
	L26.127,24.073z M6.421,24.559c-0.281,0.085-0.546,0.217-0.784,0.39c0.29,0.03,0.572,0.112,0.833,0.243v-0.246
	c-0.033-0.127-0.049-0.258-0.048-0.389L6.421,24.559z M9.121,25.094c-0.028,0.176-0.097,0.342-0.2,0.486h1.03v-0.1
	c-0.089-0.117-0.157-0.249-0.2-0.39c-0.095,0.147-0.269,0.224-0.441,0.194c-0.037-0.088-0.105-0.156-0.192-0.194L9.121,25.094z
	 M15.886,25.094c-0.044,0.171-0.111,0.334-0.2,0.486h1.029v-0.1c-0.096-0.112-0.165-0.246-0.2-0.39h-0.044v0.05
	c-0.249,0.224-0.36,0.106-0.589-0.05L15.886,25.094z M22.945,25.094c-0.029,0.176-0.098,0.342-0.2,0.486h1.028v-0.1
	c-0.089-0.117-0.156-0.249-0.199-0.39c-0.096,0.147-0.269,0.224-0.441,0.194c-0.036-0.087-0.105-0.156-0.191-0.194L22.945,25.094z
	 M29.71,25.094c-0.033,0.174-0.102,0.34-0.2,0.486h1.029v-0.1c-0.09-0.117-0.157-0.249-0.2-0.39h-0.045v0.05
	c-0.248,0.224-0.358,0.106-0.588-0.05L29.71,25.094z"/>
</svg>
