<svg xmlns="http://www.w3.org/2000/svg" xmlns:xlink="http://www.w3.org/1999/xlink" width="40" height="40" viewBox="0 0 40 40">
  <defs>
    <style>
      .cls-1 {
        fill: #fff;
        fill-rule: evenodd;
      }
    </style>
    <clipPath id="clip-path">
      <rect x="0.016" width="40" height="40"/>
    </clipPath>
  </defs>
  <g clip-path="url(#clip-path)">
    <path id="Color_Fill_1" data-name="Color Fill 1" class="cls-1" d="M16.886,17.988V17.644h0.681a0.906,0.906,0,0,1,.049.294,2.984,2.984,0,0,1,.487.2c0.239,0.057.882-.057,1.119,0a6.938,6.938,0,0,0,2.141.2,6.476,6.476,0,0,0,1.217.147,1.075,1.075,0,0,1,.779-0.147,0.6,0.6,0,0,0,.341.245V18.282h0.584v0.245h0.1a0.583,0.583,0,0,1,.681.245,2.557,2.557,0,0,1,.925,2.012l2.676,0.1a11.912,11.912,0,0,1,2.238.049h3.163a13.911,13.911,0,0,0,2.579.049l1.022,0.049a2.839,2.839,0,0,1,.73-0.1,3.777,3.777,0,0,0,.389-0.245,7.506,7.506,0,0,1,1.071.049v0.1a1.15,1.15,0,0,1,0,.933,5.02,5.02,0,0,1-2.092-.245l-8.662.1v0.049h0.1c0.2,0.268.921,0.777,0.73,1.227a0.909,0.909,0,0,1-.243.147c0.694,1.749-.782,2.406-1.752,3.092a8.233,8.233,0,0,1-1.363.982c-0.372.159-.692,0.188-1.07,0.344a10.225,10.225,0,0,1-1.411.54H5.985a14.579,14.579,0,0,1-2.141-.834A7.714,7.714,0,0,1,1.8,26.331a2.4,2.4,0,0,1-.584-1.08,2.712,2.712,0,0,0-.049-0.54,2.586,2.586,0,0,0-.633-0.344,7.338,7.338,0,0,1,.438-1.08H0.292C0.221,23.164.271,23.213,0.1,23.19a3.284,3.284,0,0,0-.049-1.227A0.238,0.238,0,0,1,0,22.11v-0.2c0.174-.059-0.039-0.117.243-0.147l0.049-.54H0.876v0.294a0.234,0.234,0,0,0,.146-0.049,1.037,1.037,0,0,1-.146-0.491,0.608,0.608,0,0,1,.243.147c0.1-.183-0.017-0.4.1-0.589v0.1a0.57,0.57,0,0,1,.1.147,0.264,0.264,0,0,0,.195-0.147c-0.12-.064-0.033.021-0.1-0.1a0.758,0.758,0,0,1,.243-0.049,2,2,0,0,0,.876-0.2c0.924-.262,1.825-0.424,2.725-0.638l0.1,0.442c0.662,0.006.758-.091,1.46-0.1a2.541,2.541,0,0,1,.1-0.393,21.1,21.1,0,0,1,2.287-.1,1.43,1.43,0,0,0,.049-0.442,0.252,0.252,0,0,0,.049-0.147l-1.46.1-0.049.147a5.374,5.374,0,0,1-1.022.147,2.575,2.575,0,0,1-1.168,0,0.333,0.333,0,0,1-.049-0.2,0.885,0.885,0,0,1,.292-0.049V18.822L5.5,18.773v-0.2c0.187-.068.262-0.045,0.292-0.294a2.258,2.258,0,0,1-.1-0.883c-0.193.075-.273,0.049-0.341-0.147A1.092,1.092,0,0,1,5.985,17.1a6.237,6.237,0,0,1,1.557-.1c0.442-.1.812,0.051,1.265-0.049a13.754,13.754,0,0,1,2.774-.245l0.146,1.963-1.946.2v0.294a0.536,0.536,0,0,1,.049.294,6.1,6.1,0,0,1,1.606-.049,0.484,0.484,0,0,1,.146.344c1.019,0,1.363-.021,2.19-0.049a4.547,4.547,0,0,1,1.07-1.031,1.317,1.317,0,0,0,.438-0.294V12h0.049v4.368a7.936,7.936,0,0,0,.049,2.012h0.1C15.907,17.843,16.118,17.956,16.886,17.988ZM5.45,17.252v0.1A0.4,0.4,0,0,0,5.693,17.3ZM5.6,18.577c-0.008.2,0,.095,0.195,0.049V18.577H5.6ZM7.64,19.018c-0.038.034-.109,0.064-0.146,0.1H7.689a0.138,0.138,0,0,1,.049-0.049A0.175,0.175,0,0,0,7.64,19.018Zm-0.584.049a0.325,0.325,0,0,0,.341,0H7.056Zm-1.363.049a0.41,0.41,0,0,0-.1.147H5.742a0.412,0.412,0,0,0,.1-0.147H5.693ZM1.411,20.785c0.04,0.159-.024.075,0.1,0.147a0.247,0.247,0,0,1,.146-0.049,0.239,0.239,0,0,0-.049-0.147A0.327,0.327,0,0,1,1.411,20.785Zm37.372,0.2a0.4,0.4,0,0,0-.243.442h0.049v0.049l0.292,0.049V21.472C38.768,21.289,38.89,21.086,38.784,20.982Zm0.341,0v0.54h0.535v-0.54H39.124ZM1.217,23.337c0.02,0.036.292,0.295,0.292,0.295A0.8,0.8,0,0,0,1.217,23.337Zm6.034,2.749c-0.158.041-.074-0.024-0.146,0.1,0.06,0.066.089,0.176,0.146,0.245V26.086Zm0.487,0-0.049.245H7.737v-0.1a0.568,0.568,0,0,0,.1-0.147h-0.1Zm4.428,0a1.357,1.357,0,0,0,.146.295V26.233A0.377,0.377,0,0,0,12.165,26.086Zm0.584,0a0.521,0.521,0,0,0,.049.295,1.309,1.309,0,0,1,.1-0.295H12.749Zm1.9,0a1.452,1.452,0,0,1,0,1.227h0.876v-0.1a1.1,1.1,0,0,1,0-1.129H14.647Zm2.822,0H17.275v0.049a0.76,0.76,0,0,0,.195.245V26.331A0.344,0.344,0,0,1,17.47,26.086Zm0.487,0a0.835,0.835,0,0,0-.1.295h0.049v-0.1C17.984,26.19,18,26.181,17.956,26.086Zm4.38,0a1.274,1.274,0,0,1,.1.245h0.049V26.184a0.177,0.177,0,0,1-.049-0.1h-0.1Zm0.584,0v0.344h0.049v-0.1a1.735,1.735,0,0,0,.146-0.245H22.92Zm2.433,0H24.818v0.049a5.722,5.722,0,0,1,.243.785,3.335,3.335,0,0,0,.584-0.294A0.609,0.609,0,0,1,25.353,26.086Zm-15.718.1a2.106,2.106,0,0,1-.049,1.129h0.827v-0.1a1.018,1.018,0,0,1-.049-1.031H9.635Zm10.219,0a2.091,2.091,0,0,1-.1,1.129h0.827v-0.1a1.2,1.2,0,0,1-.049-1.031H19.854Zm-14.7.147c-0.233.177-.617,0.124-0.876,0.295h0.1a4.64,4.64,0,0,0,.827.343v-0.1a0.6,0.6,0,0,1,.049-0.54h-0.1ZM7.2,26.969a1.9,1.9,0,0,1-.1.344h0.73V27.264c-0.078-.084-0.116-0.212-0.195-0.294A0.306,0.306,0,0,1,7.2,26.969Zm5.109,0a3.7,3.7,0,0,0-.146.344H12.9v-0.1a0.546,0.546,0,0,1-.146-0.245,0.638,0.638,0,0,1-.389.1A0.169,0.169,0,0,0,12.311,26.969Zm5.109,0a3.67,3.67,0,0,0-.146.344H18v-0.1a0.546,0.546,0,0,1-.146-0.245,0.432,0.432,0,0,1-.341.1A0.3,0.3,0,0,0,17.421,26.969Zm5.061,0a1.509,1.509,0,0,1-.146.344h0.779V27.264C23.037,27.18,23,27.052,22.92,26.969A0.306,0.306,0,0,1,22.482,26.969Z" transform="translate(0.016)"/>
  </g>
</svg>
