<svg xmlns="http://www.w3.org/2000/svg" width="39.969" height="40" viewBox="0 0 39.969 40">
  <defs>
    <style>
      .cls-1 {
        fill: #fff;
        fill-rule: evenodd;
      }
    </style>
  </defs>
  <path id="Color_Fill_1" data-name="Color Fill 1" class="cls-1" d="M15.665,15.535a0.848,0.848,0,0,1,.049-0.3,2.418,2.418,0,0,0,.69.05v0.248a4.845,4.845,0,0,0,.887.1,8.287,8.287,0,0,0,.591,1.487,13.856,13.856,0,0,0,1.97.545c0.883,0.3,2.11.7,3.2,0.991a3.881,3.881,0,0,1,.887,0c0.355,0.143.6,0.566,0.936,0.694V19.3a2.714,2.714,0,0,1-.493-0.5h0.049v-0.05a0.865,0.865,0,0,1,.2.1,3.787,3.787,0,0,1,.345.3,2.073,2.073,0,0,0,.246.595h1.33V16.228A3.748,3.748,0,0,1,26.6,14.89v4.858c2.555,0,5.174.149,7.783,0.149l3.1,0.05c0.1-.031.444-0.12,0.591-0.149l0.2,0.05c0.114-.028.28-0.215,0.394-0.248a10.843,10.843,0,0,1,1.182.05v0.1a1.489,1.489,0,0,1,.049.991l-0.148.05c-0.154.08-.549-0.075-0.837,0l-0.1.1h-0.1c-0.139-.022-0.353-0.282-0.493-0.3s-0.426.076-.542,0.05A1.188,1.188,0,0,0,37,20.491c-0.872.184-2.023-.152-2.956,0.05-0.871.188-2.023-.152-2.956,0.05a14.18,14.18,0,0,1-2.561.05l-1.921.1v1.338h0.1a1.187,1.187,0,0,1,.591-0.149v0.05H27.34a0.4,0.4,0,0,0,.148.4c0.522-.329.474,0.539,0.69,0.694a3.927,3.927,0,0,0,2.168.149,1.447,1.447,0,0,0,.1.4c1.31-.065,2.083.147,2.611,0.991a1.017,1.017,0,0,1,.3.694,0.865,0.865,0,0,0-.493.545c0.421,0.688-.367,1.62-0.591,1.884a10.275,10.275,0,0,1-1.823,1.438c-0.267.2-.513,0.51-0.788,0.694a9.766,9.766,0,0,1-1.724.644,9.41,9.41,0,0,1-1.281.5H6.256c-0.647-.155-1.313-0.443-1.921-0.644a9.962,9.962,0,0,1-2.66-.942,2.4,2.4,0,0,1-.69-1.14,3.3,3.3,0,0,0-.049-0.595C0.689,27.464.236,27.459,0,27.233c0.151-.213.159-0.522,0.3-0.744a3.1,3.1,0,0,0,.394-0.5A2.011,2.011,0,0,0,.64,25.2l0.049-.545a6.383,6.383,0,0,0-.1-1.041h0.2a0.631,0.631,0,0,0,.049.2h0.1c-0.014-.327.026-0.343,0-0.644H0.985v0.1a0.325,0.325,0,0,0,.3.149V23.267c1.358-.089,2.6-0.867,4.039-1.09a0.141,0.141,0,0,0,.049.05l0.049,0.3,0.936-.05V22.325H6.4v0.05a1.054,1.054,0,0,1,.345-0.05V22.078c1.285,0.011,2.392-.122,3.547-0.1v-0.4h0.148v0.347l1.773-.1c0.077,0.268.238,0.268,0.591,0.248a7.507,7.507,0,0,1,1.576-.149l0.049-.248H14.384v-0.05c-1.66.346-2.871-.38-4.039-0.694-0.3-.081-0.735,0-0.985-0.05V20.838a3.084,3.084,0,0,0,.049-0.595c0.04-.163.155-0.346,0.2-0.5l0.1-.843a5.094,5.094,0,0,0,.2-0.793,1.471,1.471,0,0,1,0-.644,5.778,5.778,0,0,0,.394-1.636,3.277,3.277,0,0,0,1.773-.3,4.629,4.629,0,0,0,.049-1.636V9.636A4.707,4.707,0,0,1,12.168,8v4.957a15.856,15.856,0,0,0,.049,2.627h0.1v-0.05c0.127-.08.07-0.168,0.2-0.248a5.589,5.589,0,0,1,.64,0v0.05H13.2c-0.006.214-.07,0.174,0.049,0.248a1.793,1.793,0,0,1,1.379-.2,2.351,2.351,0,0,1,.69-0.05A0.848,0.848,0,0,0,15.665,15.535Zm23.1,4.412a1.061,1.061,0,0,0-.345.1,0.913,0.913,0,0,0-.049.3,0.179,0.179,0,0,1,.049.1,1.891,1.891,0,0,1,.345.1V19.946Zm0.3,0v0.595h0.591V19.946H39.064ZM24.483,21.632h-0.2a0.56,0.56,0,0,1,0,.248,0.922,0.922,0,0,0,.493.248,3.972,3.972,0,0,1,.542-0.05v-0.3h1.232V20.739h-1.33a1.16,1.16,0,0,1-.542.793V21.483H24.631v-0.05a0.375,0.375,0,0,0,.2-0.248h-0.1A0.709,0.709,0,0,0,24.483,21.632ZM1.429,23.614v-0.2H1.33c-0.038.034-.11,0.065-0.148,0.1,0.034,0.038.065,0.111,0.1,0.149A0.25,0.25,0,0,1,1.429,23.614Zm0,1.685a0.322,0.322,0,0,0,.049.2A0.322,0.322,0,0,0,1.429,25.3Zm-0.345.892a0.959,0.959,0,0,0,.394.3v-0.2a0.3,0.3,0,0,1-.1-0.1h-0.3Zm29.655,1.735-0.049.1C30.776,27.957,30.739,27.927,30.739,27.927Zm-0.345.2a3.466,3.466,0,0,1-.394.4h0.1a1.45,1.45,0,0,1,.394-0.347A0.177,0.177,0,0,0,30.394,28.125Zm-22.118.744a0.416,0.416,0,0,0-.1.149,0.54,0.54,0,0,0-.049.3H8.177A1.01,1.01,0,0,0,8.276,28.869Zm4.828,0a1.421,1.421,0,0,0,.2.446v-0.05H13.35v-0.05A0.749,0.749,0,0,0,13.1,28.869Zm2.759,0a1.39,1.39,0,0,1,0,1.338h1.231v-0.05a1.275,1.275,0,0,1,0-1.239H15.911v-0.05H15.862Zm3.4,0.05a0.7,0.7,0,0,1-.246-0.05v0.1c0.09,0.1.111,0.287,0.2,0.4Zm0.542-.05a0.305,0.305,0,0,0-.1.2,0.432,0.432,0,0,0-.049.248H19.7v-0.1A0.317,0.317,0,0,0,19.8,28.869Zm5.468,0.05a1.367,1.367,0,0,0,.049.446H25.37a1.768,1.768,0,0,1,.148-0.5H25.468A0.33,0.33,0,0,1,25.271,28.918Zm-17.586,0h-0.2v0.1a0.447,0.447,0,0,1,.148.3H7.685v-0.4Zm6.059,0v0.4h0.049v-0.05a2.857,2.857,0,0,0,.2-0.347H13.744Zm10.887,0a3.826,3.826,0,0,1,.2.4h0.049v-0.2c-0.034-.038-0.064-0.111-0.1-0.149v-0.05H24.631Zm3.4,0h-0.64v0.05c0.236,0.2.1,0.713,0.3,0.843a2.226,2.226,0,0,0,.64-0.347A0.7,0.7,0,0,1,28.03,28.918Zm-17.783.05a1.724,1.724,0,0,1,0,1.239h0.936v-0.1a1.182,1.182,0,0,1,0-1.14h-0.3A1.153,1.153,0,0,1,10.246,28.968Zm11.576,0a1.635,1.635,0,0,1-.049,1.239h0.985v-0.05a1.178,1.178,0,0,1-.049-1.19H22.463A1.094,1.094,0,0,1,21.823,28.968Zm-16.453.446a0.942,0.942,0,0,0-.64.3,1.892,1.892,0,0,1,.69.2V29.761A0.66,0.66,0,0,1,5.369,29.414Zm2.266,0.4-0.148.4H8.325v-0.05a2.156,2.156,0,0,1-.2-0.347c-0.091.157-.14,0.155-0.394,0.149A0.543,0.543,0,0,0,7.635,29.81Zm5.616,0a0.847,0.847,0,0,1-.148.4h0.837v-0.1a1,1,0,0,1-.148-0.3C13.581,30.006,13.475,29.956,13.251,29.81Zm5.911,0a1.032,1.032,0,0,1-.148.4h0.837v-0.05A0.715,0.715,0,0,1,19.7,29.81a0.405,0.405,0,0,1-.394.149A0.44,0.44,0,0,0,19.163,29.81Zm6.158,0a0.348,0.348,0,0,1-.394.149,0.191,0.191,0,0,0-.148-0.1,1.913,1.913,0,0,1-.1.347h0.837v-0.05A2.164,2.164,0,0,1,25.32,29.81Z" transform="translate(0 0.5)"/>
</svg>
