<?xml version="1.0" encoding="utf-8"?>
<!-- Generator: Adobe Illustrator 16.0.0, SVG Export Plug-In . SVG Version: 6.00 Build 0)  -->
<!DOCTYPE svg PUBLIC "-//W3C//DTD SVG 1.1//EN" "http://www.w3.org/Graphics/SVG/1.1/DTD/svg11.dtd">
<svg version="1.1" id="Layer_1" xmlns="http://www.w3.org/2000/svg" xmlns:xlink="http://www.w3.org/1999/xlink" x="0px" y="0px"
	 width="40px" height="40px" viewBox="0 0 40 40" enable-background="new 0 0 40 40" xml:space="preserve">
<g>
	<g>
		<path id="Color_Fill_1" fill="#FFFFFF" d="M16.902,14.988v-0.344h0.681c0.032,0.095,0.049,0.194,0.049,0.294
			c0.168,0.052,0.331,0.119,0.487,0.2c0.239,0.057,0.882-0.057,1.119,0c0.699,0.178,1.421,0.245,2.141,0.2
			c0.4,0.087,0.808,0.137,1.217,0.147c0.232-0.146,0.51-0.199,0.779-0.147c0.08,0.12,0.201,0.207,0.341,0.245v-0.301H24.3v0.245
			H24.4c0.256-0.086,0.538,0.015,0.681,0.245c0.598,0.496,0.938,1.236,0.925,2.012l2.676,0.1c0.746-0.054,1.496-0.037,2.238,0.05
			h3.163c0.856,0.096,1.72,0.111,2.579,0.049l1.021,0.049c0.238-0.065,0.484-0.099,0.73-0.1c0.135-0.074,0.264-0.156,0.389-0.246
			c0.357-0.009,0.716,0.008,1.071,0.049v0.101c0.132,0.297,0.132,0.636,0,0.933c-0.707,0.067-1.42-0.016-2.092-0.244l-8.662,0.1
			v0.049h0.1c0.2,0.268,0.921,0.777,0.73,1.227c-0.073,0.063-0.155,0.111-0.243,0.147c0.693,1.749-0.782,2.406-1.752,3.092
			c-0.42,0.373-0.877,0.702-1.363,0.982c-0.372,0.159-0.691,0.188-1.07,0.344c-0.456,0.215-0.928,0.396-1.41,0.54H6.001
			c-0.734-0.221-1.45-0.5-2.141-0.834c-0.718-0.18-1.406-0.463-2.044-0.839c-0.285-0.304-0.486-0.676-0.584-1.08
			c0.002-0.181-0.015-0.362-0.049-0.54c-0.194-0.144-0.407-0.26-0.633-0.344c0.117-0.371,0.264-0.732,0.438-1.08h-0.68
			c-0.071-0.123-0.021-0.074-0.192-0.098c0.061-0.408,0.044-0.824-0.049-1.227c0,0.054-0.018,0.105-0.051,0.146V18.91
			c0.174-0.059-0.039-0.117,0.243-0.147l0.049-0.54h0.584v0.295c0.053,0,0.104-0.018,0.146-0.05
			c-0.089-0.148-0.139-0.317-0.146-0.491c0.091,0.029,0.175,0.08,0.243,0.147c0.1-0.183-0.017-0.399,0.1-0.589v0.1
			c0.041,0.044,0.075,0.094,0.1,0.147c0.085-0.015,0.158-0.069,0.195-0.147c-0.12-0.063-0.033,0.021-0.1-0.1
			c0.078-0.029,0.16-0.046,0.243-0.049c0.304,0.001,0.603-0.068,0.876-0.2c0.924-0.262,1.825-0.424,2.725-0.638l0.1,0.442
			c0.662,0.006,0.758-0.091,1.46-0.1c0.023-0.134,0.056-0.265,0.1-0.393c0.76-0.075,1.523-0.108,2.287-0.1
			c0.039-0.144,0.056-0.293,0.049-0.442c0.031-0.043,0.048-0.094,0.049-0.147l-1.46,0.1L7.81,16.155
			c-0.335,0.082-0.677,0.131-1.022,0.146c-0.384,0.09-0.784,0.09-1.168,0c-0.037-0.06-0.054-0.13-0.049-0.2
			c0.094-0.033,0.193-0.049,0.292-0.049v-0.23l-0.347-0.049v-0.2c0.187-0.068,0.262-0.045,0.292-0.294
			c-0.092-0.285-0.125-0.585-0.1-0.883c-0.193,0.075-0.273,0.049-0.341-0.147c0.191-0.113,0.412-0.165,0.634-0.149
			c0.513-0.099,1.036-0.132,1.557-0.1C8,13.9,8.37,14.051,8.823,13.951c0.914-0.176,1.843-0.258,2.774-0.245l0.146,1.963l-1.946,0.2
			v0.294c0.044,0.091,0.061,0.193,0.049,0.294c0.531-0.087,1.071-0.104,1.606-0.049c0.093,0.09,0.145,0.214,0.146,0.344
			c1.019,0,1.363-0.021,2.19-0.049c0.298-0.4,0.659-0.749,1.07-1.031c0.165-0.067,0.313-0.167,0.438-0.294V9h0.049v4.368
			c-0.069,0.67-0.052,1.346,0.049,2.012h0.1C15.923,14.843,16.134,14.956,16.902,14.988z M5.466,14.252v0.1
			c0.084,0.009,0.17-0.009,0.243-0.052L5.466,14.252z M5.616,15.577c-0.008,0.2,0,0.095,0.195,0.049v-0.049H5.616z M7.656,16.018
			c-0.038,0.034-0.109,0.064-0.146,0.1h0.195c0.012-0.021,0.029-0.037,0.049-0.049C7.728,16.042,7.693,16.024,7.656,16.018z
			 M7.072,16.067c0.104,0.064,0.236,0.064,0.341,0H7.072z M5.709,16.116c-0.044,0.041-0.078,0.091-0.1,0.146h0.149
			c0.044-0.041,0.078-0.091,0.1-0.146H5.709z M1.427,17.785c0.04,0.158-0.024,0.074,0.1,0.146c0.042-0.031,0.093-0.049,0.146-0.049
			c0-0.053-0.017-0.104-0.049-0.146C1.565,17.773,1.496,17.79,1.427,17.785z M38.799,17.984c-0.176,0.072-0.276,0.256-0.242,0.442
			h0.049v0.05l0.291,0.049v-0.053c-0.112-0.184,0.01-0.387-0.097-0.49L38.799,17.984z M39.141,17.984v0.541h0.534v-0.541H39.141z
			 M1.233,20.337c0.02,0.036,0.292,0.295,0.292,0.295C1.455,20.51,1.354,20.408,1.233,20.337z M7.267,23.086
			c-0.158,0.041-0.074-0.023-0.146,0.1c0.06,0.066,0.089,0.177,0.146,0.246V23.086z M7.754,23.086l-0.049,0.245h0.048V23.23
			c0.041-0.043,0.075-0.093,0.1-0.146h-0.1L7.754,23.086z M12.182,23.086c0.037,0.104,0.085,0.203,0.146,0.295v-0.148
			C12.294,23.171,12.243,23.12,12.182,23.086L12.182,23.086z M12.766,23.086c-0.013,0.102,0.004,0.203,0.049,0.295
			c0.021-0.102,0.055-0.201,0.1-0.295H12.766L12.766,23.086z M14.666,23.086c0.181,0.389,0.181,0.838,0,1.227h0.876v-0.1
			c-0.208-0.348-0.208-0.781,0-1.129h-0.879L14.666,23.086z M17.488,23.086h-0.197v0.049c0.047,0.095,0.114,0.178,0.195,0.245
			v-0.049c-0.03-0.079-0.03-0.166,0-0.245H17.488z M17.975,23.086c-0.052,0.092-0.085,0.191-0.1,0.295h0.049v-0.1
			c0.076-0.092,0.092-0.1,0.048-0.195H17.975z M22.355,23.086c0.041,0.078,0.074,0.16,0.1,0.245h0.049v-0.147
			c-0.026-0.027-0.044-0.063-0.049-0.1h-0.1V23.086z M22.939,23.086v0.344h0.049v-0.1c0.055-0.078,0.104-0.16,0.146-0.245h-0.198
			L22.939,23.086z M25.372,23.086h-0.538v0.049c0.1,0.256,0.181,0.518,0.243,0.785c0.204-0.078,0.399-0.177,0.584-0.294
			c-0.188-0.114-0.3-0.32-0.292-0.54H25.372z M9.654,23.186c0.087,0.374,0.07,0.765-0.049,1.129h0.827v-0.1
			c-0.203-0.309-0.221-0.703-0.049-1.031H9.651L9.654,23.186z M19.873,23.186c0.071,0.379,0.037,0.77-0.1,1.129H20.6v-0.1
			c-0.17-0.318-0.188-0.697-0.049-1.031H19.87L19.873,23.186z M5.173,23.333c-0.233,0.177-0.617,0.124-0.876,0.295h0.1
			c0.264,0.141,0.541,0.256,0.827,0.343v-0.1c-0.071-0.178-0.052-0.378,0.049-0.54h-0.1V23.333z M7.216,23.969
			c-0.022,0.117-0.056,0.232-0.1,0.344h0.73v-0.049C7.768,24.18,7.73,24.052,7.651,23.97c-0.119,0.12-0.313,0.12-0.433,0.001
			C7.217,23.971,7.217,23.97,7.216,23.969z M12.325,23.969c-0.055,0.112-0.104,0.227-0.146,0.344h0.737v-0.1
			c-0.069-0.067-0.12-0.152-0.146-0.245c-0.116,0.075-0.252,0.109-0.389,0.101c-0.006-0.039-0.025-0.073-0.054-0.1H12.325z
			 M17.434,23.969c-0.055,0.112-0.103,0.227-0.146,0.344h0.728v-0.1c-0.07-0.067-0.12-0.152-0.146-0.245
			c-0.094,0.081-0.218,0.117-0.341,0.101c-0.022-0.04-0.054-0.074-0.092-0.1H17.434z M22.495,23.969
			c-0.034,0.121-0.083,0.236-0.146,0.344h0.778v-0.049c-0.075-0.084-0.112-0.212-0.192-0.295c-0.117,0.121-0.312,0.123-0.432,0.006
			c-0.002-0.002-0.004-0.004-0.006-0.006H22.495z"/>
	</g>
</g>
</svg>
