<svg xmlns="http://www.w3.org/2000/svg" width="80" height="40" viewBox="0 0 80 40">
  <defs>
    <style>
      .cls-1 {
        fill: #fff;
        fill-rule: evenodd;
      }
    </style>
  </defs>
  <path id="Color_Fill_1" data-name="Color Fill 1" class="cls-1" d="M30.423,8.3a0.449,0.449,0,0,1,.094-0.28c0.239,0.4,1.384.371,1.878,0.186v0.28H32.3A7.316,7.316,0,0,0,30.7,8.4V8.957a0.456,0.456,0,0,0,.282-0.093c0.064-.072.123-0.208,0.188-0.28V8.677a0.473,0.473,0,0,1,.094.28c-0.35.136-.425,0.086-0.469,0.559a3.389,3.389,0,0,1,.282,1.3h0.282V10.262h0.188v0.652h0.657a14.633,14.633,0,0,0,.094,2.33l0.282,0.093a0.957,0.957,0,0,1-.188.745,2.587,2.587,0,0,1,.563.28c-0.51.336-.133,3.12,0.094,3.634l0.282-.093V17.717a0.456,0.456,0,0,1-.282-0.093,1.2,1.2,0,0,0,.376-0.093v0.652H33.8c-0.015-.693-0.265-4.1.094-4.659a21,21,0,0,0,.094,3.728h0.282V17.065c-0.277-.131-0.258-0.178-0.282-0.559a1.248,1.248,0,0,1,.751-0.186v0.839c-0.131.019,0.038-.077-0.094-0.093-0.073-.179-0.094.186-0.094,0.186H35.4a1.688,1.688,0,0,1-.094.839V17.717H34.93V17.624a0.336,0.336,0,0,0,.094-0.186,0.787,0.787,0,0,0,.282.186v-0.28H34.836V17.81c-0.275-.037-0.118-0.152-0.282.093a0.457,0.457,0,0,1,.282.093c-0.232.121-.064-0.04-0.188,0.186h0.657l0.094,1.4h0.094a1.5,1.5,0,0,1,.751-0.093v0.932H36.62V19.488c1.08,0,1.6,0,2.629,0,0.024-.58.174-0.668,0.188-1.3-0.131-.077-0.428-0.194-0.282-0.28,0.607-.368.874-0.036,1.409-0.373v0.839H40.47c-0.165-.283-0.2-0.279-0.657-0.28v0.186a2.874,2.874,0,0,1,.657.28v0.839a1.322,1.322,0,0,1,.47,0c-0.02-.312-0.2-0.224.094-0.373V18.928h0.094c0.175,0.579.744,0.508,1.5,0.466V18.835A1.42,1.42,0,0,1,43,18.649v0.093c0.065,0.094.121,0.373,0.188,0.466-0.016-.473-0.186-0.459.188-0.559a1.06,1.06,0,0,0,0,.746c0.416,0.048.337,0.132,0.751,0.186V18.928h0.188v0.652l1.972,0.093v0.559h0.188c0.346,0.2,1.091-.057,1.314.279,0.179,0.3-.051.669,0.094,0.932,0.137-.235.118-0.17,0.469-0.186a1.174,1.174,0,0,1-.094.373c-0.162-.073-0.173-0.245-0.282-0.093H47.887a13.115,13.115,0,0,1,.094,2.237h0.094V23.681c0.235-.358-0.136-0.7.188-0.932a0.448,0.448,0,0,0,.094.28,4.887,4.887,0,0,1,.188-0.745h0.094v0.279a1.467,1.467,0,0,0-.188,1.118l2.066-.093V23.122H50.61a1.853,1.853,0,0,0,.845.186,0.448,0.448,0,0,1,.094-0.279c0.167,0.243,0,.131.282,0.093,0.011,0.353-.093.256,0.376,0.279A3.044,3.044,0,0,0,52.3,22.47a1.989,1.989,0,0,1,.939.093,6.951,6.951,0,0,1-.845,0c0.061,1.049.329,2.206,0.469,3.355h0.563a8.28,8.28,0,0,1,.188-2.609H53.9a7.911,7.911,0,0,0,1.408.373h1.033c0.27,0.1.395,0.542,0.657,0.652h3.568V24.52H57.371v0.093h0.094a1.088,1.088,0,0,0,.282.186,1.608,1.608,0,0,0,.094.745,9.145,9.145,0,0,0,1.5-.466,0.849,0.849,0,0,0,1.033.279s0.332-.071.376-0.093V25.079l4.225-.28c1.534-.349,3.294.164,4.883-0.28,0.668-.186,2.184-0.156,3.1-0.373H73.9a3.109,3.109,0,0,0,.376-0.373c0.174-.093.058,0.139,0.094,0.186h1.127a20.983,20.983,0,0,1,3.85-.466,0.6,0.6,0,0,1,.094-0.373,0.6,0.6,0,0,0,.094.373,3.987,3.987,0,0,1,0-.932c-0.3-.077-0.144.046-0.282-0.186,0.413-.367.027-0.642,0.376-1.118v3.168c0.324,0.159.361,0.166,0.376,0.652-0.773.607-1.451,2.319-2.066,3.168a11.568,11.568,0,0,1-4.883,3.821,13.889,13.889,0,0,1-5.164.745H65.07a30.7,30.7,0,0,1-4.038.093H53.991C40.7,32.907,27.14,33,13.709,33a1.311,1.311,0,0,0-1.127-1.118c-0.75-.475-3.9.077-4.883,0.093a3.151,3.151,0,0,1-.094.745H7.418V32.534a0.963,0.963,0,0,1-.188-0.559H6.667V32.72a10.725,10.725,0,0,1-2.817.093,5.506,5.506,0,0,1-.657-2.33A0.986,0.986,0,0,1,3.756,30.3a1.976,1.976,0,0,0,1.408.186,13.648,13.648,0,0,1-3.1-.746c-0.425-.659-0.539-2.024-0.845-2.516-0.147.116-.048,0.06-0.188,0a1.046,1.046,0,0,0,.094-0.839c0.278,0.157,0,.095.376,0.093V26.29A1.647,1.647,0,0,1,.939,26.2H1.033A1.1,1.1,0,0,1,1.5,26.011a1.825,1.825,0,0,1-.188-1.118H1.6A1.2,1.2,0,0,1,1.69,24.24c0.039,0.334-.044.234,0.188,0.373,0.769-.471,2.073-0.3,3-0.559,1.8-.508,3.682-0.811,5.446-1.4a53.234,53.234,0,0,0,13.8-6.71,44.708,44.708,0,0,0,4.038-3.075c0.581-.511,1.128-0.542,1.127-1.678a4.591,4.591,0,0,0,.188-1.771L28.826,9.33V9.143h0.188a0.818,0.818,0,0,0,.47.093V8.864a0.266,0.266,0,0,0,.094-0.093h0.188a0.775,0.775,0,0,0,.094.466V9.143a5.844,5.844,0,0,0,0-.746H29.671a0.32,0.32,0,0,1-.094.186V8.118C29.9,7.744,29.6,7.416,29.859,7a2.009,2.009,0,0,1-.188,1.3h0.751Zm-0.188.839H30.61V8.957A3.465,3.465,0,0,1,30.423,8.4l-0.282.093V8.864A0.473,0.473,0,0,1,30.235,9.143Zm-1.6-.373a0.623,0.623,0,0,1,0,.652V8.771Zm3.662,0c0.353,0.112.371-.091,0.47,0.28H32.676A0.8,0.8,0,0,1,32.3,8.771Zm-2.629.559a0.363,0.363,0,0,0,.282.186V9.33H29.671Zm0.563,0v0.28h0.188V9.7h0.094V9.33H30.235Zm0.939,0.093c0.109,0.08.273,0.185,0.376,0.28H31.08Zm-1.5.186-0.094,2.05h0.094a1.364,1.364,0,0,0,.469-1.118,3.709,3.709,0,0,1-.188-0.932H29.671ZM30.329,9.8l0.094,1.025h0.094V10.728A1.976,1.976,0,0,0,30.61,9.8H30.329Zm0.47,1.118c0.341,1.07-.195,4.279.282,5.032a17.156,17.156,0,0,0-.094-3.448C30.858,11.917,31.154,11.244,30.8,10.914Zm-0.282.093a4.033,4.033,0,0,0,.188,1.771C30.728,12.262,30.842,11.213,30.516,11.007ZM28.732,22.283l0.751-.093a3.242,3.242,0,0,0,0,1.584,1.2,1.2,0,0,1,.094-0.652v0.745h1.6V23.215H31.08c-0.176.166-.074,0.172-0.282,0.093a0.465,0.465,0,0,1-.469-0.373,2.431,2.431,0,0,1-.188-1.4,1.847,1.847,0,0,1,.939.373,2.459,2.459,0,0,0-.094.932h0.188a1.946,1.946,0,0,1,.094-0.932l0.094,0.932a1.81,1.81,0,0,1,.563-0.093c0.051-.778.272-1.22,0.282-2.143H31.925a5.162,5.162,0,0,1,0,1.212c-0.178-.056-0.519-0.065-0.563-0.093-0.445-.733.175-2.257-0.282-2.982l0.094,2.982H30.986V20.606c-0.453-.737.11-2.321-0.094-3.262L30.235,11.38H30.141c-0.482.671-.683,0.376-0.657,1.677-0.354.576-.023,1.575-0.188,2.33-0.157.72-.007,1.594-0.188,2.423A22.975,22.975,0,0,0,28.732,22.283ZM12.207,25.452a3.2,3.2,0,0,1,0,1.025h4.6a0.818,0.818,0,0,0,.47.093l0.094-.839a0.407,0.407,0,0,0,.282-0.28,13.931,13.931,0,0,1-3.192-.093l3.662-.093a7.493,7.493,0,0,1,.657-0.652c0.5-.177.578,0.271,0.845-0.093a0.61,0.61,0,0,1-.376-0.093h0.47a0.448,0.448,0,0,0,.094.28,2.116,2.116,0,0,1,1.784-.28,0.574,0.574,0,0,1,.657-0.373,1.253,1.253,0,0,0,.657.093V23.308H20.939V23.122h0.188c0.542,0.355,2.311.034,2.911-.093a1.168,1.168,0,0,1,.094-0.373h0.188v0.186a0.57,0.57,0,0,0-.188.186l0.376,0.093a0.5,0.5,0,0,1,.188-0.559h0.094v0.093a1.026,1.026,0,0,1,.282.932,0.985,0.985,0,0,0-.657.093,0.61,0.61,0,0,1,.376.093,0.357,0.357,0,0,0-.282.186h0.188a1.793,1.793,0,0,1,.376-0.28v0.186H24.977a0.673,0.673,0,0,1-.376.186v0.093h0.563a1.407,1.407,0,0,1,.094-1.025c0.078,0.3-.046.142,0.188,0.279a0.318,0.318,0,0,1,.094-0.186v0.932h1.033V23.774l1.127-.093V23.4H27.23a6.488,6.488,0,0,1-.188-1.118h0.751a0.879,0.879,0,0,1,.563-0.652,0.475,0.475,0,0,0,.094.466L29.3,12.219H29.2c-0.822,1.168-2.993,2.5-4.225,3.355A56.97,56.97,0,0,1,8.732,23.308c-1.559.5-3.228,0.725-4.789,1.118-0.79.2-1.551,0.126-2.254,0.373L1.6,25.265H1.784c0.078-.3-0.046-0.142.188-0.279-0.034.275-.188,0.193,0.094,0.373a1.2,1.2,0,0,0,.657.093A0.4,0.4,0,0,1,3.1,25.079a5.784,5.784,0,0,0,2.911.373h6.2Zm20.188-11.09v0.466h0.188V14.735a0.626,0.626,0,0,0,.094-0.373H32.394Zm-1.033.28a24.472,24.472,0,0,0,.188,5.125,5,5,0,0,0,.188,1.491Zm0.376,1.211,0.094,3.075h0.188V17.9C31.71,17.392,32.05,16.34,31.737,15.853Zm1.127,1.4a1.467,1.467,0,0,1,.751.093A1.467,1.467,0,0,1,32.864,17.251ZM33.9,18.183c0.3-.077.143,0.046,0.282-0.186a1.863,1.863,0,0,1-.282-0.652v0.839Zm0.188-.839a0.448,0.448,0,0,0,.094.28V17.531a0.336,0.336,0,0,0,.094-0.186H34.085Zm0.47,0c0.078,0.3-.046.142,0.188,0.28v-0.28H34.554Zm-0.939.093a0.473,0.473,0,0,1,.094.279H33.521V17.624A0.336,0.336,0,0,0,33.615,17.437Zm-0.094.373c0.225,0.192.02,0.089,0.094,0.28C33.445,18.146,33.538,17.9,33.521,17.81Zm1.6,0c-0.031.173,0.068,0.116-.188,0.186V17.9A0.322,0.322,0,0,0,35.117,17.81Zm2.441,0.839c0.239,0.136.106-.02,0.188,0.28H37.653v0.093H37.559V18.649Zm-5.634,1.864a0.456,0.456,0,0,0,.282-0.093,2.791,2.791,0,0,1-.094-1.212l-0.282-.186v0.466A2.244,2.244,0,0,1,31.925,20.513Zm5.916-1.491a0.336,0.336,0,0,1,.094.186H37.84V19.022Zm-0.47.186a0.335,0.335,0,0,1,.094.186H37.371V19.208Zm6.573,1.025V19.767H43.85V19.674l-0.282.093a0.723,0.723,0,0,1,0,.466h0.376Zm0.094-.466a0.775,0.775,0,0,0,.094.466A0.777,0.777,0,0,0,44.038,19.767Zm0.376,0v0.466c0.232,0.121.064-.04,0.188,0.186a1.216,1.216,0,0,1,.563-0.093,0.336,0.336,0,0,0,.094-0.186,0.323,0.323,0,0,1-.188-0.093h0.47V20.14c-0.232.121-.064-0.04-0.188,0.186h0.282V19.767H44.413ZM0.094,23.029a12.1,12.1,0,0,1,1.6.093,0.448,0.448,0,0,1,.094-0.28v1.025c-0.064.072-.123,0.208-0.188,0.28-0.477-.272-1.313.1-1.6-0.373A1.464,1.464,0,0,0,.094,23.029ZM23,22.842a0.456,0.456,0,0,1,.282.093A0.457,0.457,0,0,1,23,22.842Zm0.376,0.093a0.791,0.791,0,0,1,.47.093A0.792,0.792,0,0,1,23.38,22.936Zm30.329,0a0.455,0.455,0,0,1,.282.093A0.457,0.457,0,0,1,53.709,22.936Zm-22.723.093a0.34,0.34,0,0,0,.188.093A0.339,0.339,0,0,0,30.986,23.029Zm0.751,0H31.362a2.321,2.321,0,0,0-.094.745h0.094v0.093h0.188V23.681A1.365,1.365,0,0,0,31.737,23.029Zm-3.193.373v0.28l0.376,0.093V23.4H28.545Zm26.761,0.093a0.79,0.79,0,0,1,.469.093A0.791,0.791,0,0,1,55.305,23.495Zm-3.474.093c0.036,0.244-.07.122,0.188,0.186,0.072-.064.209-0.122,0.282-0.186H51.831Zm27.606,0c-0.576.356-1.933,0.241-2.629,0.373v0.093h0.657a5.7,5.7,0,0,1,2.066-.28A0.318,0.318,0,0,0,79.437,23.588Zm-54.084.186a1.308,1.308,0,0,0-.094.373h0.188V23.774H25.352Zm24.883,0v0.186h0.282V23.774H50.235Zm-2.066.093a0.34,0.34,0,0,0,.188.093A0.339,0.339,0,0,0,48.169,23.867Zm0.47,0a1.7,1.7,0,0,0,1.221,0H48.639Zm3.474,0a0.339,0.339,0,0,0,.188.093A0.339,0.339,0,0,0,52.113,23.867Zm24.131,0.093a4.274,4.274,0,0,1-1.033.186V24.24h0.657a5.579,5.579,0,0,1,.845-0.186V23.961H76.244Zm2.723,0a1.024,1.024,0,0,1-.563.093V24.24h0.188a1.147,1.147,0,0,0,.563-0.28H78.967Zm0.282,0v0.186l0.282-.093V23.961H79.249Zm-28.92.093c0.036,0.244-.07.122,0.188,0.186V24.054H50.329Zm27.887,0c-0.335.2-1.005,0.071-1.315,0.28l1.409-.093A0.319,0.319,0,0,0,78.216,24.054Zm-26.009.093a0.448,0.448,0,0,0,.094.28A0.449,0.449,0,0,0,52.207,24.147Zm22.535,0v0.186a1.2,1.2,0,0,0,.376-0.093V24.147H74.742Zm-1.033.093c0.036,0.244-.07.122,0.188,0.186V24.24H73.709Zm2.817,0c-0.335.2-1.005,0.071-1.315,0.28a2.326,2.326,0,0,0,1.6-.28H76.526Zm2.723,0c-0.9.534-2.644-.028-3.474,0.559h0.094c0.252,0.136,2.954-.306,3.474-0.28l0.094-.28H79.249Zm-6.385.093a2.017,2.017,0,0,1-.939.093v0.186h0.47a4.734,4.734,0,0,1,1.127-.186V24.333H72.864Zm-22.629.093c0.162,0.082.12,0.083,0.282,0H50.235Zm24.695,0a0.339,0.339,0,0,1-.188.093v0.093h0.376V24.427H74.93Zm-4.038.093a1.024,1.024,0,0,1-.563.093V24.8h0.094a1.024,1.024,0,0,1,.563-0.093A0.318,0.318,0,0,0,70.892,24.52Zm0.282,0a0.636,0.636,0,0,0,.657,0H71.174Zm2.066,0.093c-0.34.2-1.021,0.056-1.315,0.28a2.732,2.732,0,0,0,1.6-.28H73.239Zm0.376,0a0.276,0.276,0,0,0,.376,0H73.615ZM22.347,26.57a3.294,3.294,0,0,1,.094-1.212,2.036,2.036,0,0,0-.657-0.093V24.706H21.6v0.373a3.348,3.348,0,0,1,.094,1.4h0.188A0.818,0.818,0,0,0,22.347,26.57Zm46.667-1.864a0.818,0.818,0,0,1-.469.093v0.186h0.094c0.314-.187.938-0.08,1.221-0.28H69.014Zm-0.939.093a2.02,2.02,0,0,1-.939.093v0.186h0.376a1.937,1.937,0,0,0,.845-0.28H68.075Zm3.286,0v0.186h0.469V24.8H71.362Zm3.38,0v0.186c0.336-.039.236,0.044,0.376-0.186H74.742Zm-1.127.093v0.186c0.336-.039.236,0.044,0.376-0.186H73.615Zm-4.225.093c-0.112.072-.452,0.111-0.563,0.186h0.939V25.079h0.094V24.986H69.39Zm-0.845.093v0.186h0.094V25.172h0.094A0.34,0.34,0,0,0,68.545,25.079Zm3,0a0.34,0.34,0,0,1-.188.093v0.093h0.188l0.094-.186H71.549Zm1.408,0a0.34,0.34,0,0,0,.188.093A0.339,0.339,0,0,0,72.958,25.079Zm-5.54.093c-0.072.064-.21,0.122-0.282,0.186h0.845V25.265h0.094V25.172H67.418Zm0.751,0a0.339,0.339,0,0,0,.188.093A0.34,0.34,0,0,0,68.169,25.172Zm2.535,0c-0.072.064-.21,0.122-0.282,0.186,0.353-.013.33,0.044,0.469-0.186H70.7Zm-67.793.186c0.161,0.082.12,0.083,0.282,0H2.911Zm66.009,0v0.186h0.188c0.112-.072.452-0.112,0.563-0.186H68.92Zm-66.948.186A1.2,1.2,0,0,1,1.6,25.452v0.373l0.376,0.093V25.545Zm58.4-.093v0.186h0.188V25.452H60.376Zm7.418,0c-0.132.082-.526,0.1-0.657,0.186a0.828,0.828,0,0,0,.845-0.186H67.793Zm0.751,0a0.339,0.339,0,0,0,.188.093A0.34,0.34,0,0,0,68.545,25.452Zm-1.784.093a0.34,0.34,0,0,1-.188.093v0.093h0.376V25.545H66.761Zm-64.6.466H2.911V25.918a0.473,0.473,0,0,1-.094-0.28H2.066v0.093A0.473,0.473,0,0,1,2.16,26.011ZM3,25.638v0.28a1.569,1.569,0,0,1,1.127.093c-0.522.009-.511,0.011-1.033,0v0.373a2.194,2.194,0,0,1,1.033-.093,0.508,0.508,0,0,1,.376.28c-0.3.077-.143-0.046-0.282,0.186,0.3,0.077.143-.046,0.282,0.186-0.237.152-.041,0,0,0.28-0.3.077-.143-0.046-0.282,0.186H4.507a0.723,0.723,0,0,0,.282-0.28,0.8,0.8,0,0,1-.094-0.466H5.728v0.093a0.789,0.789,0,0,0-.188.652c0.366,0,.422.046,0.563-0.186H5.822a0.265,0.265,0,0,1-.094.093v-0.28a2.24,2.24,0,0,1,.751.093V26.943H5.728V26.756A0.792,0.792,0,0,0,6.2,26.663H6.1V26.57a0.438,0.438,0,0,1-.563-0.093H6.2V26.2A30.983,30.983,0,0,0,3,25.638Zm3.38,0.373c0.546,0.063.812,0.245,1.408,0.279v0.373H7.887V26.57a2.435,2.435,0,0,1,.939.093A0.625,0.625,0,0,0,8.92,26.29c1.054,0,1.966.182,3.193,0.186V25.638H7.23a5.363,5.363,0,0,0-1.972.093,2.013,2.013,0,0,0,1.127,0v0.28Zm59.249-.373c0.036,0.236-.054.147,0.282,0.186V25.731h0.094V25.638H65.634Zm-1.033.093c-0.132.082-.526,0.1-0.657,0.186a0.828,0.828,0,0,0,.845-0.186H64.6Zm0.376,0a0.38,0.38,0,0,0,.469,0H64.977Zm-4.695.093c0.161,0.082.12,0.083,0.282,0H60.282Zm3.193,0c-0.112.072-.452,0.111-0.563,0.186h0.751a0.339,0.339,0,0,1,.188-0.093V25.824H63.474Zm-59.155.093H4.507v0.093A0.323,0.323,0,0,1,4.319,25.918Zm58.122,0v0.093H62.347c-0.181.072,0.188,0.093,0.188,0.093a0.34,0.34,0,0,1,.188-0.093V25.918H62.441Zm-1.221.093c-0.095.064-.376,0.12-0.47,0.186a3.751,3.751,0,0,0,1.5-.186H61.221ZM2.16,26.1l-0.094.28H2.254A0.449,0.449,0,0,0,2.16,26.1Zm0.188,0v0.28H3V26.1H2.347Zm57.84,0a0.276,0.276,0,0,0,.376,0H60.188ZM1.69,26.2v0.186H1.784A0.319,0.319,0,0,0,1.69,26.2Zm6.573,0H8.451V26.29H8.263V26.2Zm-1.784.186a0.339,0.339,0,0,0,.188.093A0.34,0.34,0,0,0,6.479,26.384Zm-3,.186c0.036,0.244-.07.122,0.188,0.186V26.57H3.474Zm0.282,0v0.186c0.336-.039.236,0.044,0.376-0.186H3.756Zm2.817,0c-0.072.064-.21,0.122-0.282,0.186C6.63,26.748,6.765,26.811,6.573,26.57Zm-4.131.093a0.34,0.34,0,0,0,.188.093A0.339,0.339,0,0,0,2.441,26.663Zm0.282,0c0.161,0.082.12,0.083,0.282,0H2.723Zm7.981,0V26.85c0.51-.024.7,0,1.315,0V26.663H10.7Zm1.5,0V26.85a1.629,1.629,0,0,0,1.127-.186H12.207Zm1.221,0V26.85c0.473-.145,1.648.077,2.066-0.186H13.427Zm2.16,0a3.531,3.531,0,0,0,1.69.186V26.756H17.183V26.663h-1.6Zm-8.639.093a1.2,1.2,0,0,0,.094.652A1.2,1.2,0,0,0,6.948,26.756ZM8.169,27.5V26.85a1.336,1.336,0,0,0-.376-0.093c-0.428.251-.626-0.05-0.657,0.652H7.324a0.6,0.6,0,0,1,.094-0.373,1.289,1.289,0,0,0,.376-0.093C7.89,27.264,7.842,27.4,8.169,27.5Zm0.376-.373H8.92V26.756a0.455,0.455,0,0,0-.282.093H8.545v0.28Zm13.427-.373a0.38,0.38,0,0,0,.469,0H21.972ZM1.315,26.85a0.448,0.448,0,0,0,.094.28V27.036A0.335,0.335,0,0,0,1.5,26.85H1.315Zm1.408,0c0.161,0.082.12,0.083,0.282,0H2.723Zm-0.657.093a0.34,0.34,0,0,0,.188.093A0.34,0.34,0,0,0,2.066,26.943Zm7.042,0v0.186a1.23,1.23,0,0,1,.469,0V26.943A1.326,1.326,0,0,1,9.108,26.943Zm2.347,0c-0.072.064-.209,0.122-0.282,0.186a1.987,1.987,0,0,0,.939-0.093A2.39,2.39,0,0,1,11.455,26.943Zm0.751,0v0.186a3.1,3.1,0,0,0,1.315-.093A4.46,4.46,0,0,1,12.207,26.943Zm1.408,0.093a0.95,0.95,0,0,0,.845,0H13.615Zm1.972,0a2.568,2.568,0,0,0,1.6,0h-1.6Zm6.385,0v0.186c0.336-.039.236,0.044,0.376-0.186H21.972Zm-20.563.186v0.186H1.5V27.222H1.408Zm0.657,0a0.94,0.94,0,0,0,1.127,0H2.066Zm1.221,0c0.161,0.082.12,0.083,0.282,0H3.286Zm0.469,0a1.087,1.087,0,0,0,.282.186V27.222H3.756Zm2.629,0c0.036,0.236-.055.147,0.282,0.186V27.222A0.316,0.316,0,0,1,6.385,27.222Zm2.723,0.093a0.379,0.379,0,0,0,.469,0H9.108Zm1.408,0a0.339,0.339,0,0,0,.188.093A0.34,0.34,0,0,0,10.516,27.315Zm0.282,0a0.377,0.377,0,0,0,.376.186V27.315H10.8Zm0.657,0V27.5h0.094V27.315H11.455Zm0.376,0V27.5l0.188-.093V27.5a0.336,0.336,0,0,0,.094-0.186H11.831Zm0.376,0V27.5a1.528,1.528,0,0,0,1.127-.186H12.207Zm1.221,0V27.5h0.094V27.315H13.427Zm0.188,0a1.013,1.013,0,0,0,.657.186V27.315H14.085A0.657,0.657,0,0,1,13.615,27.315Zm1.033,0V27.5h0.188V27.315H14.648Zm0.939,0V27.5a12.046,12.046,0,0,1,1.878,0V27.315H15.587Zm4.413,0V27.5h0.845V27.315H20Zm1.878,0a0.445,0.445,0,0,0,.47.186V27.315H21.878ZM7.7,31.043v0.466H7.793V31.323a0.473,0.473,0,0,0,.094-0.28H7.7ZM7.23,31.6l0.094-.466H7.23a4.179,4.179,0,0,0-.563.559H6.761A0.819,0.819,0,0,1,7.23,31.6Zm1.5-.373-0.094.28a4.006,4.006,0,0,0,1.972,0Zm-3.662.186a0.448,0.448,0,0,0,.094.279A0.448,0.448,0,0,0,5.07,31.416ZM6.2,31.7a0.339,0.339,0,0,0,.188.093A0.34,0.34,0,0,0,6.2,31.7Z"/>
</svg>
