<svg xmlns="http://www.w3.org/2000/svg" width="39.938" height="40" viewBox="0 0 39.938 40">
  <defs>
    <style>
      .cls-1 {
        fill: #fff;
        fill-rule: evenodd;
      }
    </style>
  </defs>
  <path id="it_as_42_metropolitana_ico" class="cls-1" d="M21.387,12.247a9.285,9.285,0,0,0-2.84.23V12.51H18.58a2.834,2.834,0,0,0,.735.1c0.459,0.1,1.015.126,1.47,0.23a5.508,5.508,0,0,0,.769.066,0.55,0.55,0,0,1,.167-0.164,0.4,0.4,0,0,1,.3,0,0.59,0.59,0,0,1,.134.361,3.913,3.913,0,0,0-.7.591h0.167a0.45,0.45,0,0,1,.234-0.033,0.157,0.157,0,0,0,.034.1,1.439,1.439,0,0,0,.568.033V13.56H22.423a0.172,0.172,0,0,1-.1.033,0.464,0.464,0,0,1,.033-0.164,1.354,1.354,0,0,0,.835-0.033v0.066a0.118,0.118,0,0,0-.033.066,0.425,0.425,0,0,1,.2,0v0.3a4.429,4.429,0,0,1,1.337.066h4.779l0.033-.394h0.033a0.172,0.172,0,0,0,.1.033v0.2c0.108,0.027.051-.016,0.1,0.066-0.108.027-.051-0.016-0.1,0.066h0.033a5.814,5.814,0,0,0,1.37-.033v0.427a10.313,10.313,0,0,1-1.27-.066l-5.079.033v0.263h0.5a0.237,0.237,0,0,0,.2.164c0.166-.227.946,0.065,1.069-0.263a4.1,4.1,0,0,0,1.671.164h0.635a0.826,0.826,0,0,1,.067.131,2.993,2.993,0,0,0,1.069.033c0.777,0,1.617,0,2.473,0V14.38h0.1l0.033,0.328h1.537v0.262H30.977V15a0.187,0.187,0,0,1,.067.2,0.093,0.093,0,0,0-.033.033,4.264,4.264,0,0,0-.568.066V15.234a0.6,0.6,0,0,0-.2.066,5.182,5.182,0,0,0-1.4-.1,0.492,0.492,0,0,1-.067.1H28.3a0.414,0.414,0,0,0-.134.328c-0.027.061,0.04,0.417,0.033,0.624a7.416,7.416,0,0,0,0,1.51h0.635l-0.2-.853a0.482,0.482,0,0,1,.134-0.033l0.033,0.1c0.149,0.2.11,0.565,0.267,0.755a0.63,0.63,0,0,0,.3.033V17.6a0.427,0.427,0,0,0,.167-0.1l1,0.066V17.5a0.218,0.218,0,0,0,.033-0.131,0.515,0.515,0,0,1-.468-0.427,0.606,0.606,0,0,0,.134-0.1,0.825,0.825,0,0,1,.969.46,0.6,0.6,0,0,0-.134.1h-0.4v0.131a0.99,0.99,0,0,0,.468.066,4.358,4.358,0,0,0,1.036.1,1.252,1.252,0,0,0,.034.3h0.067c0.028-.107-0.016-0.05.067-0.1,0.03,0.136.006,0.042,0.1,0.1v0.1a1.257,1.257,0,0,0,.835-0.131c-0.085-.048-0.038.007-0.067-0.1a2.5,2.5,0,0,0,.234-0.46,0.221,0.221,0,0,0,.2,0,0.341,0.341,0,0,1,.033-0.2c0.062,0,.03.031,0.067-0.033a0.118,0.118,0,0,0,.034-0.066H33.617a0.4,0.4,0,0,1-.1.066,0.905,0.905,0,0,1-.1-0.131,3.975,3.975,0,0,0-.468-0.066V16.94a0.535,0.535,0,0,1,.167-0.033,3.282,3.282,0,0,0,.6.033l1.871,0.3-0.067.3,0.167,0.033v0.1a0.359,0.359,0,0,0-.134.164,1.176,1.176,0,0,0-.3-0.066c0-.123.016-0.115-0.067-0.164V17.564H35.155v0.066a1.041,1.041,0,0,1,.033.2,2.59,2.59,0,0,0,.7.131v0.066H35.856a0.173,0.173,0,0,1-.1.033,2.256,2.256,0,0,0-.936-0.131V17.99H34.787v0.033a22.058,22.058,0,0,0,2.473.624l0.033-.262h0.033c0.074,0.05.225,0.048,0.3,0.1a0.473,0.473,0,0,0-.067.263,0.982,0.982,0,0,1,.6.131c0.03-.079.036-0.052,0.067-0.131-0.113-.031-0.1-0.013-0.134-0.131h0.067a1.588,1.588,0,0,1,.6.427,3.525,3.525,0,0,0,.835.1v0.033a1.146,1.146,0,0,1-.267.23,3.543,3.543,0,0,0-.535.033,1.423,1.423,0,0,1,.1.361H38.864V19.73a3.255,3.255,0,0,0-.134-0.361,0.531,0.531,0,0,0-.267-0.033,2.063,2.063,0,0,1-.4-0.164c-0.2-.1-0.381-0.008-0.6-0.131a5.747,5.747,0,0,0,.033,1.116,0.2,0.2,0,0,0-.067.066,4.579,4.579,0,0,1,1.537.656,0.587,0.587,0,0,1,.468.525,0.165,0.165,0,0,0-.033.1,0.607,0.607,0,0,1,.535.328,7.665,7.665,0,0,0-.568,1.444,0.947,0.947,0,0,1,.6.066c0.008,0.032.026,0.012,0,.033a2.274,2.274,0,0,1-1.036.066,7.981,7.981,0,0,0-1.2.46c-0.5.222-1,.346-1.5,0.558-0.278.116-.617,0.3-0.9,0.394H34.353a4.086,4.086,0,0,1-2.74,2.921,4.219,4.219,0,0,1-5.48-3.216H25.564a1.48,1.48,0,0,1-.067.722,0.8,0.8,0,0,1-.267.3H13.267a2.774,2.774,0,0,1-.969-0.033,1.638,1.638,0,0,1-.267-0.164A7.632,7.632,0,0,1,12,24.554H11.5v0.033H11.462a2.806,2.806,0,0,1-.5,1.313,4,4,0,0,1-3.007,2,3.653,3.653,0,0,1-1.47,0,4.2,4.2,0,0,1-3.308-3.544,1.063,1.063,0,0,1-.334-0.033v0.1c-0.327,0-.78-0.024-1,0a0.689,0.689,0,0,1-.267.328c-0.367.01-.686-0.194-0.535-0.558a2.063,2.063,0,0,0,.3-0.361,4.711,4.711,0,0,1-.368-1.214H0.936a0.859,0.859,0,0,1-.8.164,1.521,1.521,0,0,1-.1-0.3c0.118-.154.086-0.255,0.368-0.263v0.033H0.368a0.352,0.352,0,0,0-.167.361,0.448,0.448,0,0,0,.267.066A0.615,0.615,0,0,0,.9,22.29,1.061,1.061,0,0,0,.735,21.9a0.68,0.68,0,0,1-.668.164,5.519,5.519,0,0,1,0-1.149c0-.812-0.026-1.7.033-2.494H1.9l-0.033-.164H2.038a0.45,0.45,0,0,0,.234.033V18.22a0.64,0.64,0,0,1-.067-0.131H2.473a0.363,0.363,0,0,1,0-.164c0.553-.418,1.868-0.3,2.673-0.492l6.717-.952V16.317H11.8a0.172,0.172,0,0,1-.1.033,0.448,0.448,0,0,1-.1-0.262H11.562V16.054a0.179,0.179,0,0,0,.134-0.131,0.266,0.266,0,0,0,.167,0A2.134,2.134,0,0,1,12,15.332h-0.8a0.144,0.144,0,0,1-.1.1,0.157,0.157,0,0,0-.033-0.1,1.549,1.549,0,0,1-.668.033,0.593,0.593,0,0,1-.033-0.2,0.2,0.2,0,0,0,.067-0.066H7.352V14.84H8.889l0.033-.328h0.1L9.056,14.84c0.869,0.009,1.714,0,2.506,0a1.441,1.441,0,0,0,1.1-.2L14.4,14.61a0.76,0.76,0,0,0,.5-0.066c0-.008,0-0.061.033-0.033a4.328,4.328,0,0,0,1.337.263v-0.1h0.1a4.167,4.167,0,0,1,0-.853,0.358,0.358,0,0,1,.067-0.1,0.3,0.3,0,0,0,.2.1,0.359,0.359,0,0,1,.067-0.23,2,2,0,0,0-.535-0.427,3.377,3.377,0,0,0-1.236.131A0.489,0.489,0,0,1,14.8,12.9a0.691,0.691,0,0,0,.067-0.689,0.41,0.41,0,0,1,.3-0.1,0.492,0.492,0,0,1,.067.131,1.3,1.3,0,0,0,.1.591,2.691,2.691,0,0,0,.969.033,1.99,1.99,0,0,1,1.37,0,1.3,1.3,0,0,1,.334-0.3l0.134-.2a3.214,3.214,0,0,1,1.537-.361,2.05,2.05,0,0,1,.067-0.689l0.033,0.689c0.488,0.011,1.066.032,1.6,0.033,0.018-.294.066-0.671,0.067-1.05h0.067v0.656s0.052,0.668.067,0.755H21.521c-0.075-.092-0.025-0.027-0.167,0V12.346A0.166,0.166,0,0,0,21.387,12.247Zm-2.974.361c-0.1.14-.268,0.214-0.368,0.361l2.84,0.525A2.431,2.431,0,0,0,21.454,13a4.441,4.441,0,0,1-.969-0.131l-0.5-.033C19.5,12.725,18.924,12.674,18.413,12.608Zm-1.9.263-0.033.1a0.983,0.983,0,0,1,.468.394,5.272,5.272,0,0,0,.5-0.3V13.035Zm1.3,0.263a7.309,7.309,0,0,0-.5.558h0.334a7.575,7.575,0,0,1,.9-0.263c0.193-.048.448,0.018,0.6-0.033a0.122,0.122,0,0,0-.067-0.033A4.3,4.3,0,0,0,17.811,13.133Zm6.216,1.116H22.022v0.066a1.02,1.02,0,0,1,.167.131h1.8A0.59,0.59,0,0,0,24.027,14.249ZM24.127,15v0.525a0.624,0.624,0,0,1-.2.033l-0.033-.1a0.468,0.468,0,0,0,.1-0.459h-1a2.063,2.063,0,0,0,.1.788,0.531,0.531,0,0,0-.134.164,1.457,1.457,0,0,1,.4.131l-0.334.985H22.991a0.66,0.66,0,0,0-.134-0.066,3.89,3.89,0,0,1-.535.755h5.514V17.7a3.076,3.076,0,0,0-.067-1.411c-0.1.03-.2-0.049-0.2-0.23a0.1,0.1,0,0,1-.033-0.033,0.179,0.179,0,0,0,.134-0.131,0.445,0.445,0,0,0,.167,0,2.773,2.773,0,0,1,.1-0.591H27.5a5.194,5.194,0,0,1-.568,0A6.573,6.573,0,0,0,25,15.266a0.344,0.344,0,0,1-.067-0.164,0.783,0.783,0,0,0,.033-0.361c-0.622,0-1.333.032-2,.033v0.033h0.033a11.865,11.865,0,0,0,1.37.066,0.111,0.111,0,0,1-.033.066C24.278,15.022,24.257,15,24.127,15Zm-7.686-.2V15.2h0.067V15.168l0.234-.3Zm0.167,0.755h0.134v0.033H16.708c-0.064.025,0.067,0.033,0.067,0.033a0.363,0.363,0,0,0,.234.066l0.033-.23a1.632,1.632,0,0,0-.4-0.23Zm-3.576,2.2h3.743a0.3,0.3,0,0,1,.1-0.1V17.629H14.536a0.7,0.7,0,0,1-.434,0V17.236L13.7,17.2V17.17a0.117,0.117,0,0,0,.033-0.066h0.434V16.612h0.1v0.525h0.1V16.12h-0.5V16.087a1.5,1.5,0,0,0,0-.689c-0.508,0-1.057-.042-1.47-0.066a0.508,0.508,0,0,0-.2.394c0,0.076.033,0.521,0.033,0.755H12.3V16.448a1.252,1.252,0,0,1,.4-0.624,0.566,0.566,0,0,1,.434.033l0.2,0.23A6.6,6.6,0,0,1,13.033,17.761Zm1.537-.623a16.637,16.637,0,0,0,1.7.1,0.465,0.465,0,0,1-.033.164h0.468a6.159,6.159,0,0,1,1-.033c0.175-.052.391-0.157,0.568-0.23V17.1H18.246a7.9,7.9,0,0,0-1.4-.591,1.351,1.351,0,0,1-.535-0.2v-0.46h0.134v-0.1a1.148,1.148,0,0,1-.535-0.1,0.118,0.118,0,0,1-.033-0.066,0.852,0.852,0,0,1,.267-0.033,1.176,1.176,0,0,0,.3.066V15.4a17.963,17.963,0,0,1-1.9-.033v0.164A6.806,6.806,0,0,1,14.57,17.137Zm4.411-1.805c0.041,0.075.132,0.162,0.167,0.23,0.046,0.09.055,0.472,0.1,0.525h0.067a3.8,3.8,0,0,0,.768.3c0.321-.078.25-0.5,0.234-0.886a0.118,0.118,0,0,1-.034-0.066A3.353,3.353,0,0,0,18.981,15.332Zm-2.239.591h0.167v0.131a0.355,0.355,0,0,0,.2.066,0.122,0.122,0,0,0,.067.033v-0.3l-0.434-.066v0.131Zm0.6-.1a0.481,0.481,0,0,0-.067.328h0.067a0.571,0.571,0,0,0,.3-0.2,0.117,0.117,0,0,0,.033-0.066Zm1.3,0.952a1.448,1.448,0,0,0-.167-0.394h0.067a0.372,0.372,0,0,0,.267.263,2.7,2.7,0,0,1-.067-0.263,2.514,2.514,0,0,0-.9-0.361,2.86,2.86,0,0,1-.434.263v0.033A7.609,7.609,0,0,0,18.647,16.776Zm16.007,1.181,0.033-.262a3.6,3.6,0,0,1-.635-0.1,0.734,0.734,0,0,1-.434,0,0.465,0.465,0,0,1-.033.164Zm-0.936.3a3.434,3.434,0,0,1-.969.1v0.033h0.033a5.1,5.1,0,0,0,1.437.2,0.657,0.657,0,0,1,.2-0.2V18.351C34.164,18.335,34.01,18.258,33.718,18.253ZM1.37,24.127a0.357,0.357,0,0,0-.134.164,0.165,0.165,0,0,0-.033.1,0.392,0.392,0,0,0,.134.131,0.367,0.367,0,0,0,.2.033,0.661,0.661,0,0,0,.134-0.328C1.56,24.224,1.555,24.149,1.37,24.127Z" transform="translate(-0.031 0.5)"/>
</svg>
