<svg xmlns="http://www.w3.org/2000/svg" width="39.938" height="40" viewBox="0 0 39.938 40">
  <defs>
    <style>
      .cls-1 {
        fill: #fff;
        fill-rule: evenodd;
      }
    </style>
  </defs>
  <path id="Color_Fill_1" data-name="Color Fill 1" class="cls-1" d="M21.963,15.01V14.862H20.273a0.9,0.9,0,0,1-.1.444,0.914,0.914,0,0,0,.3.049v0.3H20.82a0.773,0.773,0,0,1,.05.247c-0.136.078-.125,0.044-0.149,0.247H20.571v0.444h8.3v-0.1a1.637,1.637,0,0,1-.2-0.789,0.241,0.241,0,0,1,.149.049,2.3,2.3,0,0,1,.248.839h0.4c0-.3.316-0.266,0.745-0.247a0.661,0.661,0,0,0,.348.049,0.7,0.7,0,0,0,.05-0.2,0.613,0.613,0,0,1-.5-0.395,0.707,0.707,0,0,1,.447-0.148c0.208,0.143.5,0.223,0.7,0.345a0.169,0.169,0,0,1-.05.1c-0.064.122,0.021,0.034-.1,0.1a0.791,0.791,0,0,1-.4.049v0.148h0.1a5.947,5.947,0,0,0,1.441.148,0.612,0.612,0,0,0,0,.3,0.418,0.418,0,0,1,.149-0.1c0.106,0.21.218,0.212,0.547,0.2a0.662,0.662,0,0,1,.348-0.049v-0.1a1.768,1.768,0,0,1,.149-0.543h0.248a0.685,0.685,0,0,1,.1-0.3H33.64a3.6,3.6,0,0,1-.646-0.1v-0.1c0.86,0.015,1.713.264,2.633,0.3a0.648,0.648,0,0,0-.05.3,0.383,0.383,0,0,1,.149.148c-0.126.072-.056-0.011-0.1,0.148H35.28v-0.2h-0.1V16.49c0.046,0.094.019,0.058,0,.2a1.07,1.07,0,0,1,.745.2h-0.3a1.637,1.637,0,0,0-.745-0.1,0.178,0.178,0,0,0-.05.1h0.1a8.04,8.04,0,0,0,2.335.592,0.338,0.338,0,0,1,.149-0.247,1.427,1.427,0,0,0,.248.1l-0.1.247a1.211,1.211,0,0,0,.745.049,0.194,0.194,0,0,1-.2-0.148h0.1a5.939,5.939,0,0,0,.7.444,4.193,4.193,0,0,1,.7.148,1.238,1.238,0,0,0-.248.2,2.16,2.16,0,0,0-.5,0,2.593,2.593,0,0,0,.1.395h-0.05V18.612a0.578,0.578,0,0,1-.1-0.395,5.789,5.789,0,0,0-1.292-.247,4.611,4.611,0,0,0-.05,1.135c0.593,0.059,1.993.644,1.988,1.283a0.467,0.467,0,0,1,.5.395,6.392,6.392,0,0,0-.547,1.382H40a0.237,0.237,0,0,1-.05.148,6.875,6.875,0,0,1-1.292.1c-0.519.21-1.088,0.405-1.64,0.641a4.24,4.24,0,0,1-2.633.691,4.193,4.193,0,0,1-3.18,3.109c-2.355.635-4.949-1.413-5.019-3.355h-0.6a2.136,2.136,0,0,1-.1.839c-0.644.358-2.847,0.148-3.826,0.148H12.273a1.452,1.452,0,0,1-.2-0.247,1.776,1.776,0,0,1-.05-0.74H11.478c-0.076,2.142-3,4.172-5.565,3.207A4.316,4.316,0,0,1,3.18,23.3H2.932a2.053,2.053,0,0,0-.05-0.839v0.888H1.888a0.519,0.519,0,0,1-.5.345,0.972,0.972,0,0,0-.2-0.1A0.749,0.749,0,0,1,1.043,23.1a0.7,0.7,0,0,0,.3-0.395L0.994,21.523a0.82,0.82,0,0,1-.8.148c-0.2-.194-0.11-0.324,0-0.543a0.3,0.3,0,0,1,.2,0h0.05a1.31,1.31,0,0,1-.248.2,0.87,0.87,0,0,0,.1.2,0.432,0.432,0,0,0,.248.049,1.11,1.11,0,0,0,.4-0.345,1.156,1.156,0,0,0-.2-0.444,0.633,0.633,0,0,1-.6.2,0.566,0.566,0,0,1-.1-0.345,3.44,3.44,0,0,0,0-1.184A14.168,14.168,0,0,0,.1,17.28H1.938v-0.1c0-.091-0.047-0.044.05-0.1a0.542,0.542,0,0,0,.3.049v-0.1a0.178,0.178,0,0,1-.05-0.1h0.3c-0.018-.146-0.1-0.1.05-0.2,0.563-.426,2.01-0.3,2.832-0.493,2.2-.519,4.846-0.52,6.957-0.987,0.129-.4.12-0.66,0.7-0.642a0.678,0.678,0,0,1,.248.3,3.892,3.892,0,0,1-.248,1.678h5.963V16.145c-0.491-.085-0.426-0.515-0.4-1.085H18.485a1.731,1.731,0,0,1-.05.543,0.17,0.17,0,0,1-.1-0.049,1.231,1.231,0,0,1-.1-0.691,11.674,11.674,0,0,1-1.59,0,0.871,0.871,0,0,1-.745-0.839,5.337,5.337,0,0,0,1.739-.1H17.093V13.875a1.176,1.176,0,0,1-.4-0.987,0.632,0.632,0,0,1-.2-0.049l0.05-.148h0.1a0.336,0.336,0,0,0,.248.1l-0.05-.592a0.141,0.141,0,0,0,.05-0.049h0.149v0.493h0.149c0.019-.129-0.037-0.065.1-0.1v-0.2h0.1a0.169,0.169,0,0,0,.05.1l-0.05.3a2.378,2.378,0,0,1,.7.049V12.74a0.2,0.2,0,0,1,.149-0.049,0.9,0.9,0,0,0,.894-0.1V12.543a0.191,0.191,0,0,1-.1-0.148l0.149-.049A0.837,0.837,0,0,1,19.031,12h0.2c0.063,0.126.094,0.089,0.248,0.049V12.3c-0.035.058,0.026,0.34,0,.444h0.5c0.221-.079.147,0.123,0.3,0.2h1.342a0.37,0.37,0,0,1,.2-0.2,0.623,0.623,0,0,1-.05.2,6.661,6.661,0,0,1,.646.2l3.677,0.1a12.084,12.084,0,0,1,2.733.049c-0.019.11-.038,0.376-0.05,0.395v0.049a4.962,4.962,0,0,0-1.888,0c-0.925.2-2.069-.136-2.932,0.049a4.655,4.655,0,0,0-1.292.1,5.071,5.071,0,0,1,1.54.148,8.348,8.348,0,0,0,1.143.049,1.364,1.364,0,0,1,.149.444c-0.116.144-.174,0.313-0.3,0.444a0.225,0.225,0,0,0-.3-0.1,17.664,17.664,0,0,1-1.988,0H22.162C22.057,14.921,22.205,14.955,21.963,15.01Zm-2.783-.049c-0.016.068,0.07,0.072,0.1,0.1C19.314,15.007,19.194,14.975,19.18,14.961Zm-0.2.592H19.13v-0.2h0.248a0.238,0.238,0,0,0-.05-0.148,1.156,1.156,0,0,0-.348-0.1v0.444ZM33.988,16v0.1a6.421,6.421,0,0,1,1.441.2v-0.1H35.28A3.249,3.249,0,0,0,33.988,16Zm0.745,0.543a2.875,2.875,0,0,1-1.093-.148v0.2h0.1a5.046,5.046,0,0,0,.944.247ZM12.87,16.49c0.01,0.069-.041-0.02-0.05.049-0.1.038,0.1,0.049,0.1,0.049A0.169,0.169,0,0,0,12.87,16.49Zm17.292,0.148c-0.038.034-.111,0.065-0.149,0.1,0.176,0.024.326,0.135,0.447,0.148a0.479,0.479,0,0,0,.249-0.148c0.045,0,.186.049,0.3,0.049a0.871,0.871,0,0,0,.1.2,3.1,3.1,0,0,0,.8,0c0.132-.057.1-0.095,0.248-0.148V16.786a1.658,1.658,0,0,0-.646-0.1A3.648,3.648,0,0,0,30.162,16.638Zm3.677,0.444a5.973,5.973,0,0,1-1.044.148V17.28a7.163,7.163,0,0,0,1.54.1l0.1-.148h-0.05V17.181Zm-2.485.1a0.573,0.573,0,0,0,.149.1A0.192,0.192,0,0,0,31.354,17.181Zm0.2,0.1c0.085,0.044.063,0.044,0.149,0H31.553Zm3.627,0.049-0.6-.049a0.742,0.742,0,0,0-.1.2h0.5a0.432,0.432,0,0,0,.248.049V17.477A0.251,0.251,0,0,1,35.18,17.329Zm-34.584.1c-0.02.112-.046,0.053,0,0.148a0.542,0.542,0,0,0,.3.049l0.05-.148A1.075,1.075,0,0,0,.6,17.428Zm0.646,0-0.05.148h0.4v-0.1A1.075,1.075,0,0,0,1.242,17.428Zm32.2,0.049a0.5,0.5,0,0,0,.6.049Zm2.286,0a0.551,0.551,0,0,0,.4.148V17.576A3.683,3.683,0,0,0,35.727,17.477Zm-1.441.1a0.575,0.575,0,0,1-.149.1v0.049a1.233,1.233,0,0,0,.745-0.1V17.576h-0.6Zm0.944,0.049c-0.1.09-.288,0.111-0.4,0.2h0.05a0.672,0.672,0,0,0,.5.1V17.872C35.321,17.8,35.292,17.691,35.23,17.625Zm0.248,0.049a0.188,0.188,0,0,0,.2.148,0.18,0.18,0,0,1,.1-0.049V17.724A0.917,0.917,0,0,0,35.478,17.674Zm1.193,0.1a3.98,3.98,0,0,1,.248.691,0.178,0.178,0,0,0,.05-0.1l0.248-.543h-0.05A0.885,0.885,0,0,1,36.671,17.773Zm0.646,0.987v0.247h0.05V18.957a0.331,0.331,0,0,0,.05-0.2h-0.1ZM0.547,20.339v0.1H0.6A0.169,0.169,0,0,0,.547,20.339ZM1.491,23c-0.038.034-.111,0.065-0.149,0.1a0.332,0.332,0,0,0-.1.247,0.9,0.9,0,0,1,.2.148,0.266,0.266,0,0,0,.2-0.2,0.25,0.25,0,0,0,.05-0.148A0.417,0.417,0,0,1,1.491,23Z" transform="translate(-0.063 0.516)"/>
</svg>
