<svg xmlns="http://www.w3.org/2000/svg" width="39.969" height="40" viewBox="0 0 39.969 40">
  <defs>
    <style>
      .cls-1 {
        fill: #fff;
        fill-rule: evenodd;
      }
    </style>
  </defs>
  <path id="it_ab_41_ico" class="cls-1" d="M23.5,10h0.308a0.76,0.76,0,0,1-.047.188L23.811,10.4h0.118c0.028,0.119.11,0.221,0.142,0.329a1.468,1.468,0,0,0,.047.353,0.121,0.121,0,0,0,.071.024,0.16,0.16,0,0,1,.142-0.07,0.284,0.284,0,0,1,.071.212c0.235-.028.675-0.1,0.852-0.094V11.2a0.3,0.3,0,0,1,.071.212H25.7a0.119,0.119,0,0,1,.071-0.071H25.8a0.39,0.39,0,0,1,.047.094,0.789,0.789,0,0,0,.521-0.047c0.023,0.015.028,0.081,0.047,0.094,0.082,0.057.793,0.078,0.947,0.118,0.226,0.059.464,0.021,0.663,0.071a0.851,0.851,0,0,0,.26-0.047,0.3,0.3,0,0,0,.26.094,0.161,0.161,0,0,0,.166-0.047,2.145,2.145,0,0,0,.923.376,0.205,0.205,0,0,1,.024.212,1.012,1.012,0,0,1,.284.188,2.714,2.714,0,0,0,.26.094c-0.01.5,0.456,0.353,0.97,0.353h2.935v0.141h5.539v0.329l-5.539.024v0.047a1.463,1.463,0,0,1,.237.235,0.278,0.278,0,0,1-.237.353v0.071H30.746a1.4,1.4,0,0,0-1.065.165,0.617,0.617,0,0,1,.047.329c-0.045.027-.565,0.3-0.568,0.306v0.094a0.513,0.513,0,0,1,.118.047,1.8,1.8,0,0,0-.071.188h2.13a0.417,0.417,0,0,1,.142.165,0.236,0.236,0,0,0,.047.282,0.254,0.254,0,0,1,.118.094,0.387,0.387,0,0,0,.047.353,0.526,0.526,0,0,1,.426.117,1.131,1.131,0,0,0,.095.212h0.663a0.508,0.508,0,0,0,.355.047H34.3v0.07l-2.083.024a1.279,1.279,0,0,1-.142.306c0.042,0.053.03,0.126,0.071,0.188a1.637,1.637,0,0,0,.166.117,0.132,0.132,0,0,0-.047.118,0.834,0.834,0,0,0,.355.47,0.218,0.218,0,0,0-.095.212c0.031,0.04.017,0.092,0.047,0.141a0.88,0.88,0,0,0,.142.094,0.622,0.622,0,0,0-.095.165,0.556,0.556,0,0,0,.213-0.023,1.086,1.086,0,0,0,.663.329,0.635,0.635,0,0,0,.024-0.282H33.468c-0.032.029-.085,0.043-0.118,0.071a0.158,0.158,0,0,0-.024.094H33.254V18h0.071v0.118A2.823,2.823,0,0,0,35.29,17.9v0.047a1.58,1.58,0,0,1,0,.729H35.266a1.224,1.224,0,0,0-.781-0.259v0.047H34.58c0.01,0.215.01,0.467,0,.682h0.047a0.121,0.121,0,0,1,.071-0.024,0.107,0.107,0,0,1,.024.117l0.237,0.071a0.563,0.563,0,0,1,.5-0.282,0.3,0.3,0,0,1,.024-0.094L35.905,19.1l-0.024.047a0.075,0.075,0,0,0,.024.07L36,19.406l0.024,0.353L36.379,19.9a0.676,0.676,0,0,1,.166-0.024,0.351,0.351,0,0,0,.284.165,0.38,0.38,0,0,0,.071.235h0.047v-1.9c-0.126-.042-0.106-0.134-0.095-0.259a0.357,0.357,0,0,1,.26-0.094,0.321,0.321,0,0,1,.142.235,1.141,1.141,0,0,0-.118.729v1.528a0.462,0.462,0,0,0,.331.188V20.84a1.459,1.459,0,0,0,.686.564,0.418,0.418,0,0,0,.024.141,2.152,2.152,0,0,0,.8.705V22.228a1.235,1.235,0,0,0,.142-0.282,0.558,0.558,0,0,0,.142-0.117H39.124a0.444,0.444,0,0,1-.26.094,0.814,0.814,0,0,1-.047-0.141,0.084,0.084,0,0,0,.024-0.047,0.728,0.728,0,0,1,.568-0.118,1.021,1.021,0,0,1,.237.682c-0.042.031-.055,0.088-0.095,0.117-0.08.059-.207,0.093-0.284,0.141V22.6a0.936,0.936,0,0,1,.284.376,0.544,0.544,0,0,1,.142,0,1.165,1.165,0,0,0,.071.423,0.124,0.124,0,0,0-.118.07,2.754,2.754,0,0,0-.26.823,0.9,0.9,0,0,0,.047.165,0.21,0.21,0,0,0-.142.118,0.08,0.08,0,0,0,.024.047,0.939,0.939,0,0,1,.686.4,0.264,0.264,0,0,1-.189.07,1.953,1.953,0,0,0-.615-0.212v0.047a0.194,0.194,0,0,0,.024.188,1.013,1.013,0,0,0-.26.165,0.537,0.537,0,0,1,0,.141,0.4,0.4,0,0,1-.142-0.023,0.4,0.4,0,0,1-.024.141,0.548,0.548,0,0,0-.5.423c-0.178,0-.266.047-0.521,0.047a2.666,2.666,0,0,1-.568,1.129,4.1,4.1,0,0,1-2.414,1.67,3.814,3.814,0,0,1-1.491.141c-0.305-.067-0.616-0.1-0.9-0.188a4.2,4.2,0,0,1-2.864-3.292H28.852v0.541H25.681a1.968,1.968,0,0,1-.639.4,4.307,4.307,0,0,1-3.006.376,5.178,5.178,0,0,1-1.065-.423,4.714,4.714,0,0,0-.5-0.353h-6.7a1.552,1.552,0,0,1-.095-0.541H13.254V25.5H13.231a3,3,0,0,1-.568,1.458,4.36,4.36,0,0,1-2.7,1.928,4.126,4.126,0,0,1-1.893-.047A4.149,4.149,0,0,1,5.4,26.86a2.8,2.8,0,0,1-.5-1.293H3.669a2.453,2.453,0,0,0-.852-0.353,0.6,0.6,0,0,1-.308-0.094,0.319,0.319,0,0,1-.142.071A0.229,0.229,0,0,0,2.13,25a0.29,0.29,0,0,0-.237.023,3.013,3.013,0,0,0-.024.8H1.822c-0.061.035-.087,0.017-0.118-0.047-0.114-.178.068-0.543-0.024-0.753l-0.118-.094a0.818,0.818,0,0,1,.047-0.541,0.171,0.171,0,0,1-.142-0.118,0.143,0.143,0,0,1-.047.047,5.229,5.229,0,0,0-.26-0.47c0.1-.013.107-0.01,0.118-0.117a0.752,0.752,0,0,1-.024-0.141c-0.032-.072-0.007-0.012-0.071-0.047l0.024-.071A2.275,2.275,0,0,1,.9,23.451L0.923,23A0.115,0.115,0,0,0,.994,22.98a0.158,0.158,0,0,0,.024-0.094H0.97c-0.031.031-.071,0.077-0.095,0.047a0.085,0.085,0,0,1-.024-0.047,0.333,0.333,0,0,0,.166-0.212A1.379,1.379,0,0,1,.8,22.3l-0.686.094V22.345a4.969,4.969,0,0,1-.095-0.8,0.9,0.9,0,0,1,.213-0.235C0.125,21.3.122,21.291,0.118,21.17a0.26,0.26,0,0,0,0-.235,0.2,0.2,0,0,0,.142-0.07,0.334,0.334,0,0,0-.118-0.118V20.511a1.347,1.347,0,0,0,.213-0.306c0.206-.291.446-0.591,0.639-0.893a1.514,1.514,0,0,1,.4-0.564c0.125-.077.227,0.06,0.355-0.023a0.472,0.472,0,0,1,.166-0.094,2.428,2.428,0,0,0,.994-0.047V18.536a0.119,0.119,0,0,1-.024-0.071A0.365,0.365,0,0,1,3.1,18.418a1.356,1.356,0,0,0,.592-0.188,0.094,0.094,0,0,1-.047-0.094H3.692a0.16,0.16,0,0,1,.118-0.047,0.226,0.226,0,0,0,.071.118A3.927,3.927,0,0,1,4.9,18.066V18.16l1.7-.235a0.685,0.685,0,0,0,.047-0.282,0.212,0.212,0,0,1-.095-0.259,0.29,0.29,0,0,1,.189-0.094,0.133,0.133,0,0,1,.095,0,0.438,0.438,0,0,1,.118.235,1.213,1.213,0,0,0-.095.141C6.994,17.72,6.9,17.8,7.006,17.83c0.077-.046.223,0,0.308-0.047a0.859,0.859,0,0,1,.118-0.165L8.426,17.5c0.366-.087.769-0.072,1.16-0.165A4.6,4.6,0,0,1,10.6,17.2v0.047a0.119,0.119,0,0,1,.024.07c0.2,0,.3-0.017.544-0.023v0.023H11.2v0.094l0.45-.047a0.383,0.383,0,0,1,.071-0.117,0.316,0.316,0,0,0,.331.07c0.021-.011.037-0.115,0.095-0.094a0.442,0.442,0,0,1,.071.094,0.544,0.544,0,0,0,.308-0.047,5.749,5.749,0,0,0,.8.047,0.714,0.714,0,0,1,.024-0.165,4.178,4.178,0,0,1,1.089-.023,0.587,0.587,0,0,1,.024.188,0.7,0.7,0,0,0,.331-0.094,0.393,0.393,0,0,0,.142.094,0.391,0.391,0,0,1,.071-0.094,0.115,0.115,0,0,0,.118.023h0.024c-0.017-.057-0.007-0.133-0.024-0.165-0.027-.068,0-0.043-0.071-0.071a1.2,1.2,0,0,0-.568-0.047H13.018V16.443H11.929V16.255h1.089V16.114a11.24,11.24,0,0,0,2.2-.047V16.02a0.253,0.253,0,0,0,.024-0.141H10.32a7.733,7.733,0,0,1-1.065.071c-0.208.044-.52-0.027-0.757,0.024a6.514,6.514,0,0,1-1.231.047V15.879H7.124V15.761H7.266V15.62a6.013,6.013,0,0,1,1.136.047c0.237,0.051.55-.021,0.757,0.024a8.217,8.217,0,0,1,1.16.071h1.444c1.217,0,2.49-.014,3.669-0.024a0.675,0.675,0,0,1,.047-0.188c0.159,0.032.009,0.009,0.189-.024a0.264,0.264,0,0,1,0-.118,0.273,0.273,0,0,0,.118-0.188c0.108-.013.095-0.038,0.213-0.047,0.2-.841,1.619-0.852,1.68.047h0.355V14.75a3.97,3.97,0,0,1,.757.141V14.68h1.42a0.9,0.9,0,0,0-.047-0.165,0.182,0.182,0,0,0,.166-0.165,1.555,1.555,0,0,1,.024-0.329c0.016-.027.094-0.041,0.118-0.071a0.165,0.165,0,0,1-.071-0.118c0.1-.07.01-0.049,0.047-0.141a0.747,0.747,0,0,1,.118-0.071L20.544,13.5l0.095-.071,0.095-.4c0.035-.108.118-0.262,0.142-0.376l-0.024-.141c0.01-.025.081-0.063,0.095-0.094a0.235,0.235,0,0,0,0-.212c0.02-.061.077-0.174,0.095-0.235l-0.047-.494a0.274,0.274,0,0,1,.166-0.047,3.6,3.6,0,0,1,.71-0.047l0.024-.118a0.512,0.512,0,0,1,.166-0.024,0.257,0.257,0,0,1,.142-0.024V11.105h0.26v0.118h0.213V11.105h0.237c0.013,0,.065-0.069.071-0.07a0.867,0.867,0,0,1,.237.07A0.716,0.716,0,0,1,23.5,10.4V10Z" transform="translate(-0.031 0.516)"/>
</svg>
