<svg xmlns="http://www.w3.org/2000/svg" width="40" height="40" viewBox="0 0 40 40">
  <defs>
    <style>
      .cls-1 {
        fill: #fff;
        fill-rule: evenodd;
      }
    </style>
  </defs>
  <path id="it_aubl_74_60_70m_ico" class="cls-1" d="M12.02,16.31a1.8,1.8,0,0,0-.158-0.6c-0.037-.1,0-0.265-0.023-0.344H12a1.829,1.829,0,0,1,.5.069v0.023H12.471a0.437,0.437,0,0,1-.2,0,1.2,1.2,0,0,0-.2.115,0.309,0.309,0,0,0-.023.161,0.586,0.586,0,0,0,.405.092l-0.023-.207a0.477,0.477,0,0,1,.315-0.115,2.21,2.21,0,0,1,.022-0.413h0.045a4.659,4.659,0,0,1,1.1-.023c0.168,0.4.136,0.456,0.72,0.436a1.007,1.007,0,0,1,.2-0.436h1.081a0.08,0.08,0,0,0,.045.023,1.538,1.538,0,0,1,.022.413H16a5.624,5.624,0,0,0,.36-0.436,1.175,1.175,0,0,1,.09.757H16.59c0-.364.041-0.7,0.045-1.01a1.9,1.9,0,0,1-.315-0.138,1.047,1.047,0,0,0-.428-0.321,1.492,1.492,0,0,0-.158.023,0.268,0.268,0,0,1-.045-0.161,0.083,0.083,0,0,0,.023-0.046h-0.18a3.141,3.141,0,0,1-.338,0c-0.029-.009-0.1-0.053-0.135-0.069V14.13a0.729,0.729,0,0,1,0,.367,0.237,0.237,0,0,1-.113.046,0.08,0.08,0,0,0-.045-0.023v-0.5l-0.068-.023-0.045-.184H14.767a0.278,0.278,0,0,1-.09.092V13.855a0.251,0.251,0,0,0,.113-0.115H14.676a0.709,0.709,0,0,0-.022-0.161,0.617,0.617,0,0,0,.293-0.092c0.018-.027.027-0.111,0.045-0.138a0.192,0.192,0,0,1,.113-0.023V13.167h0.067v0.069h0.383c0.024,0.116.068,0.1,0.248,0.092a1.253,1.253,0,0,1,.428,0,2.08,2.08,0,0,1,.563-0.092c0.026,0.011,0,.039.068,0.046h0.428a0.367,0.367,0,0,0,.157.092c0.025-.066,0-0.042.068-0.069v0.069a14.206,14.206,0,0,0,1.733.046c0.567-.006,1.1.022,1.666,0.023V13.58c-0.534,0-1.028,0-1.553.023v0.046h0.023a0.192,0.192,0,0,0,.113.023c0.029-.057-0.01-0.016.045-0.046v0.207H19.494a1.072,1.072,0,0,0-.473,0c-0.306-.01-0.7-0.005-1.013,0l-0.023.046a0.064,0.064,0,0,0-.022.023h0.293a2.349,2.349,0,0,1,.5-0.023,0.434,0.434,0,0,1,0,.3l-1.193-.023v0.115c-0.08.016-.056,0.028-0.135,0.046V14.176a1.364,1.364,0,0,0-.383-0.023v0.62H16.972a0.685,0.685,0,0,0-.045.275,0.527,0.527,0,0,1,.045.344h0.81v0.115a1.848,1.848,0,0,1,.54.207H18.3a1.236,1.236,0,0,0-.518-0.138V16.31l2.048,0.184a0.284,0.284,0,0,1,.248-0.275,0.081,0.081,0,0,0,.045.023,1.055,1.055,0,0,0,.067.138,0.576,0.576,0,0,0,.18-0.023v0.069a2.527,2.527,0,0,0,.383-0.092,0.256,0.256,0,0,1,.157.046h0.18a1.182,1.182,0,0,1,.36.206c0.048,0.032.083-.052,0.135,0.046a1.876,1.876,0,0,1-.023.207,1.569,1.569,0,0,0,.923.092,1.548,1.548,0,0,0,.855.115v0.115H23.41V17.32a5.673,5.673,0,0,1,1.283.092h0.945a4.7,4.7,0,0,0,.855.023c0.345,0,.728.023,1.1,0.023h0.428V17.412h0.338a0.3,0.3,0,0,1,.09-0.138,2,2,0,0,0,.72.023,17.157,17.157,0,0,0,1.936-.023v0.092a0.856,0.856,0,0,0,.383.046,1.064,1.064,0,0,0,.563.046l1.576,0.023c2.134,0,4.26.049,6.37,0.046v0.482c-2.087,0-4.193.046-6.28,0.046-0.574,0-1.2.012-1.733,0.023a3.542,3.542,0,0,0-.855.069,0.2,0.2,0,0,0-.023.115,15.053,15.053,0,0,0-1.643-.023,6.225,6.225,0,0,0-1.058.023c-0.015-.186-0.194-0.149-0.383-0.138a0.424,0.424,0,0,0-.315-0.046H26.764a7.053,7.053,0,0,0-.7.115l-0.653.023c-0.176.039-.449-0.022-0.653,0.023a5.254,5.254,0,0,1-1.351,0v0.138H23.028c0,0.161.009,0.278,0,.39H22.96V18.628H21.947a0.232,0.232,0,0,0-.022.23H21.9a0.138,0.138,0,0,0-.045-0.046c-0.017.092-.017,0.118-0.113,0.138a0.676,0.676,0,0,0-.315-0.23v0.046a0.572,0.572,0,0,1,.112.275,2.127,2.127,0,0,1-.473.183,0.347,0.347,0,0,1,.045.23,1.118,1.118,0,0,0,.855-0.3l0.067-.115h0.135c0.072-.023.153-0.094,0.225-0.115a3.1,3.1,0,0,1,1.846.3c0.053,0.034.106,0.137,0.158,0.161h0.225l0.022,0.069h0.293l0.023,0.092a0.449,0.449,0,0,0,.113,0,1.027,1.027,0,0,1,.27.459H25.324c-0.017.016-.05,0.03-0.068,0.046a1.662,1.662,0,0,0,.248.413,0.243,0.243,0,0,0,.18.046,0.266,0.266,0,0,0,.045-0.069,28.644,28.644,0,0,0,.09.046,0.157,0.157,0,0,0-.023.092,3.165,3.165,0,0,1,.788.23c0.479,0.161.938,0.229,1.418,0.39a3.349,3.349,0,0,0,.72.206,1.085,1.085,0,0,0,.045-0.551,0.607,0.607,0,0,1,.09-0.161,0.114,0.114,0,0,1,.068-0.023c0-.185-0.013-0.434,0-0.551h-0.09a3.391,3.391,0,0,0-.045.459,0.475,0.475,0,0,1-.158.023,6.133,6.133,0,0,1-.023-1.377,0.478,0.478,0,0,1,.158-0.023v0.046a1.716,1.716,0,0,1,.067.459l0.248,0.023a3.775,3.775,0,0,1-.023.482,2.3,2.3,0,0,1-.022.528,1.33,1.33,0,0,0-.113.092,0.5,0.5,0,0,0-.023.23,1.854,1.854,0,0,1,.743.023,1.346,1.346,0,0,1,.023.5,0.2,0.2,0,0,0-.023.115,1.3,1.3,0,0,0,.405.092,0.182,0.182,0,0,1,.135-0.069V21.657H30.118V21.5h0.067a0.948,0.948,0,0,0-.135-0.482c0.067-.116.022-0.31,0.09-0.413a1.29,1.29,0,0,1,1.058-.207v0.138H30.794v0.115H30.726a5.606,5.606,0,0,0,0,.688H30.7v0.023c-0.107.008-.118,0.035-0.225,0.046a0.59,0.59,0,0,1,0,.321h0.09a1.607,1.607,0,0,1,.09.275,2.652,2.652,0,0,1,.765.229,0.342,0.342,0,0,0-.113.161l-0.225.206a3.253,3.253,0,0,1-.315.367,11.734,11.734,0,0,0-1.216,1.216,1.49,1.49,0,0,0-.5.574,0.712,0.712,0,0,1,.113.551,0.527,0.527,0,0,1-.18.069,1.641,1.641,0,0,1-.63,0,2.269,2.269,0,0,1-.405.459H26.832a2.956,2.956,0,0,1-.248,1.147,3.3,3.3,0,0,1-2.026,1.836,2.608,2.608,0,0,1-1.373.138,4.632,4.632,0,0,1-.765-0.161,3.317,3.317,0,0,1-2.138-2.96H13.213a0.745,0.745,0,0,1-.068.3,1.543,1.543,0,0,1-.428.023V25.833H12.651v0.321H10.827a3.236,3.236,0,0,1-2.318,2.685,3.2,3.2,0,0,1-1.778.046,3.786,3.786,0,0,1-.81-0.344,3.521,3.521,0,0,1-1.373-1.606,4.992,4.992,0,0,1-.18-0.6,1.328,1.328,0,0,0-.045-0.3,1.543,1.543,0,0,0-.585-0.023c-0.062-.2-0.252-0.194-0.518-0.184L2.048,24.571H1.6a0.518,0.518,0,0,1-.18,0,0.239,0.239,0,0,1-.113-0.207,0.879,0.879,0,0,1,.135-0.436,7.594,7.594,0,0,1-.653-0.665l-0.045-.252H0.473a2.5,2.5,0,0,1,0-.665c0.088,0,.1.011,0.135-0.046H0.5a1.139,1.139,0,0,0-.405.023V22.277A3.491,3.491,0,0,1,0,21.657H0.023V21.634a1.622,1.622,0,0,0,.383-0.115A0.776,0.776,0,0,0,.45,21.313a2.417,2.417,0,0,1-.113-0.62,6.99,6.99,0,0,1-.248-1.4c0.281-.02.647-0.064,0.99-0.069a1.081,1.081,0,0,1,0-.183A0.233,0.233,0,0,1,1.216,19c0.094,0.207.046,0.222,0.36,0.206a1.91,1.91,0,0,1,.473-0.046c0.137-.031.338,0.021,0.54-0.023a4.182,4.182,0,0,1,.923-0.069A0.112,0.112,0,0,1,3.534,19a0.24,0.24,0,0,1,.135-0.023v0.069c0.66,0.011,1.139-.17,1.756-0.184a27.206,27.206,0,0,0,2.746-.184V18.536l0.068-.023a0.1,0.1,0,0,1,.09.023c0.049,0.073.009,0.11,0.113,0.138a0.88,0.88,0,0,1,.428.023V18.674H8.891c-0.006-.154,0-0.189.135-0.206a0.414,0.414,0,0,0,.068.092v0.115l0.968-.046a2.162,2.162,0,0,1,.383.23c0.3,0.185.616,0.289,0.923,0.459a1.462,1.462,0,0,0,.2.138h0.45v-0.23a1.259,1.259,0,0,1-.36-0.138,5.012,5.012,0,0,0-1.486-.459V18.582a0.052,0.052,0,0,0,0-.069,0.114,0.114,0,0,0-.068-0.023c-0.009.06,0.017,0.03-.045,0.046,0-.064.026-0.05-0.068-0.069-0.009.06,0.017,0.03-.045,0.046a0.128,0.128,0,0,0,0-.092,0.508,0.508,0,0,1-.2,0c-0.009.06,0.017,0.03-.045,0.046,0-.064.026-0.05-0.068-0.069-0.009.06,0.017,0.03-.045,0.046V18.422H9.612C9.655,18.4,9.567,18.4,9.567,18.4A0.114,0.114,0,0,0,9.5,18.376V18.4H9.522c0.043,0.018-.045.023-0.045,0.023-0.019-.062-0.014.01-0.045-0.046a0.083,0.083,0,0,1-.023-0.046,0.09,0.09,0,0,0,.068-0.092H9.454v0.023c-0.017.044-.023-0.046-0.023-0.046,0.056-.03.015,0.01,0.045-0.046a1.635,1.635,0,0,0-.45-0.023,0.081,0.081,0,0,0-.045-0.023l-0.113-.138V16.379C9.194,16.387,9.5,16.4,9.814,16.4V16.356a1.463,1.463,0,0,1,.09-0.482,1.409,1.409,0,0,1,.068-0.321,1.766,1.766,0,0,1,.27-0.046,0.946,0.946,0,0,0,.653.184,0.246,0.246,0,0,1,.045.115,0.54,0.54,0,0,0-.045.229,0.314,0.314,0,0,0,.09.023c0.03-.064.031-0.056,0.113-0.069a1.951,1.951,0,0,1,.067-0.252l0.023-4.062V10.482A1.332,1.332,0,0,1,11.21,10c0,1.548.023,3.146,0.023,4.727v1.01a0.871,0.871,0,0,1,.158.574h0.135a1.136,1.136,0,0,1,.18-0.3,0.076,0.076,0,0,1,.045.023A1.022,1.022,0,0,0,12.02,16.31Zm2.611-2.387a0.484,0.484,0,0,1-.113.275c-0.123.3,0.048,0.778-.36,0.78a0.081,0.081,0,0,0-.045-0.023V14.888a0.413,0.413,0,0,1,.045-0.3C14.285,14.349,14.5,14.18,14.631,13.924ZM9.837,18.467H9.882V18.49A0.076,0.076,0,0,1,9.837,18.467Z" transform="translate(0 0.5)"/>
</svg>
