<svg xmlns="http://www.w3.org/2000/svg" width="80" height="40" viewBox="0 0 80 40">
  <defs>
    <style>
      .cls-1 {
        fill: #fff;
        fill-rule: evenodd;
      }
    </style>
  </defs>
  <path id="Color_Fill_1" data-name="Color Fill 1" class="cls-1" d="M27.4,9.583l12.115,0.778a17.534,17.534,0,0,0,4.808.292v0.583c0.257,0.42.015,2.147,0,2.917h0.385c-0.053-.632-0.514-1.806-0.192-2.333l0.288,2.333h0.577c0.04-.46.176-0.667-0.192-0.875-0.037.254,0.071,0.127-.192,0.194a6,6,0,0,1-.192-2.139h0.1v1.847h0.385a0.721,0.721,0,0,1,.192-0.583c-0.237-.126-0.066.042-0.192-0.194l0.865-.1v0.681H45.769v0.1a0.352,0.352,0,0,1,.1.194H45.577v0.389a1.135,1.135,0,0,0,.769-0.389c0.148,0.568.508,0.238,0.673,0.778H47.4v0.681H46.923c-0.124.24,0.041,0.066-.192,0.194a0.345,0.345,0,0,0,.192.1,0.384,0.384,0,0,0,.385.194c-0.036.748-.095,1.5,0.385,1.75a0.786,0.786,0,0,1,0-.389,1.765,1.765,0,0,1,1.154.681h0.1v0.1H48.75a8.429,8.429,0,0,1-1.346.194V17.75h0.385c0.124-.24-0.041-0.066.192-0.194v0.1h-0.1c-0.185.075,0.192,0.1,0.192,0.1,0.149-.069.013-0.013,0.288,0-0.017.39-.188,0.321,0.288,0.389a0.474,0.474,0,0,1,.1-0.292v0.1a0.5,0.5,0,0,1,.1.292,8.667,8.667,0,0,0-1.346.194v0.292c0.3-.046.66-0.245,0.865,0.194a0.849,0.849,0,0,0-.1.486,2.251,2.251,0,0,0-.769.1,6.533,6.533,0,0,1,.192,1.556h0.769v0.1H48.269a6.039,6.039,0,0,0-.577.292,4.042,4.042,0,0,1,.192,1.361h0.577V22.611c-0.252,0-.188.075-0.385-0.194a1.975,1.975,0,0,1,.769-0.194,1.1,1.1,0,0,0,.865.194c0.062-1.235.073-1.3-1.154-1.264v-0.1c0.342-.217.215-1.4,0.192-1.944h0.673a0.539,0.539,0,0,1,0-.389c0.3,0.163.139,0.1,0.577,0a0.494,0.494,0,0,0,.577.389,1.505,1.505,0,0,0,.769.1v0.486h0.385c-0.035-.287-0.193-0.2.1-0.389a0.662,0.662,0,0,0,.481,0,1.174,1.174,0,0,0,.385.389,6.345,6.345,0,0,0,0,.681,4.247,4.247,0,0,1,1.25.194h2.981v0.194c-0.763.035-2.726-.105-3.269,0.292,0.7,0.5-.16,1.6,1.058,1.75v0.1h0.1V22.708a0.619,0.619,0,0,1-.481-0.292,3.143,3.143,0,0,1,1.25,0V21.444c3.13-.028,4.759.556,7.981,0.583a0.473,0.473,0,0,1-.1.292,12.268,12.268,0,0,0-2.885,0v0.194a0.781,0.781,0,0,0,.577.292c0.3-.272.974,0.211,1.731,0a37.385,37.385,0,0,1,5.962-.1V22.417h0.673c0.038,0.494,1.707.313,2.5,0.292a11.05,11.05,0,0,1,2.6,0c1.3-.034,3.457-0.1,5.192-0.1a6.522,6.522,0,0,1,.1-2.431C79.906,20.717,80,23,80,23a13.31,13.31,0,0,1-.769,1.167,28.542,28.542,0,0,0-1.538,3.5A9.048,9.048,0,0,0,76.731,30c-4.15-.257-9.18,0-13.654,0H19.135c-1.276-.281-2.74-0.079-4.135-0.389a42.927,42.927,0,0,0-6.827-.681v0.1c0.242,0.142.176,0.122,0.192,0.486l-0.288.1a2.092,2.092,0,0,1-1.538.1V28.931a0.329,0.329,0,0,0,.192-0.1H5.769v0.1a1.553,1.553,0,0,1,.1.778H5.673a5.27,5.27,0,0,1-2.692,0c-0.652-.219-0.519-1.174-0.481-2.042a0.352,0.352,0,0,0,.1-0.194l0.288-.1c0.429-.25,1.011.245,1.442,0a3.606,3.606,0,0,1-2.788-1.264c-0.073-2.07.144-3.088,0.1-5.542H0V19.5H1.827v4.278c1.049-.17,3.123.021,3.942-0.292,0.044-.087.03-0.07,0.1,0,0.345,0.457,1.646.3,2.692,0.292,0.188-.377.49-0.247,0.865-0.292v0.292h4.135a1.711,1.711,0,0,0,.288-0.389,11.15,11.15,0,0,0-2.981-.1V23a23.272,23.272,0,0,0,5.481-.486,9.26,9.26,0,0,1,2.4,0,2.381,2.381,0,0,1,.1,1.069H18.173v0.292a17.072,17.072,0,0,0,2.115-.1V22.319a1.2,1.2,0,0,0,.385-0.1v-0.1L17.4,21.931V21.736a22.382,22.382,0,0,0,2.885,0,3.172,3.172,0,0,1,1.346-.194c-0.028-.66.053-0.96,0.577-1.069,0.183,0.091.113,0.037,0.385,0v0.389h0.385V20.375c0.976-.017,1.386-0.646,1.923-0.389,0.193,0.26-.055.276,0.577,0.292a4.744,4.744,0,0,0,.288,1.944h0.1V21.736a3.233,3.233,0,0,0,.288-1.458,0.462,0.462,0,0,1-.288-0.1H26.25a2.03,2.03,0,0,1,0-.583H25.865v0.1a0.329,0.329,0,0,1,.192.1H25.769c-0.135-.086-0.539-0.105-0.673-0.194a0.85,0.85,0,0,1-.1-0.486c0.9-.247.521-0.89,0.962-1.556l-0.192,1.361h0.1v-0.1a3.233,3.233,0,0,0,.288-1.458h-0.1a0.335,0.335,0,0,1-.1.194V17.069a1.072,1.072,0,0,0,0-.583h0.1v0.194c0.067,0.1.124,0.389,0.192,0.486l0.192-1.361h-0.1a0.633,0.633,0,0,1-.1.389V15.708c0.062-.084.129-0.306,0.192-0.389a5.61,5.61,0,0,1,0,1.264h0.288l0.385-3.306h-0.1v0.194c-0.355.581-.1,1.678-0.481,2.236-0.126-1.9.675-3,.769-4.861H27.115a1.067,1.067,0,0,1-.192.292c-0.071-.085-0.121-0.11-0.192-0.194a0.744,0.744,0,0,0,.385-0.486c0.08,0.316-.047.149,0.192,0.292V10.167A2.022,2.022,0,0,1,27.4,9V9.583Zm16.635,0c0.244,0.142.108-.021,0.192,0.292H44.039V9.583Zm-16.635.1c0.039,0.667.063,1.029,0.673,1.167v0.1H27.789a0.488,0.488,0,0,0-.288-0.1,6.216,6.216,0,0,1,.1,1.069,1.237,1.237,0,0,1,.481,0,4.587,4.587,0,0,1,0,1.167,2.945,2.945,0,0,1,1.346.389l-1.346-.292V14.25c0.367,0.117.583,0.326,0.962,0.486v0.1c-0.783.02-.508,1.37-0.481,2.625a0.678,0.678,0,0,1,.673.778h-0.1v0.1l-0.577-.1v2.139c1.579-.009,4.739-0.41,5.961,0V19.111c-0.186-.223-0.129-0.031,0-0.292a1.282,1.282,0,0,1-.385-0.194c-0.02.136,0.079-.039,0.1,0.1,0.185,0.075-.192.1-0.192,0.1v-0.1a15.751,15.751,0,0,0-1.923-1.653,4.862,4.862,0,0,1-1.346-.972h0.192a19.5,19.5,0,0,0,3.75,2.625,3.37,3.37,0,0,1,1.827-.778c0.5,0.656.515,2.307,0.385,3.4l0.769-.1c0.027-.253,0-0.191.481-0.194a1.469,1.469,0,0,0,1.058.194c0.36-.592.084-2.329,0.288-2.917a0.461,0.461,0,0,1-.288-0.1c0.586-.135,1.605-0.892,2.115-0.681a2.522,2.522,0,0,1,.577,1.653c-0.317.056-.21,1.379-0.192,2.042h0.1v0.1a0.319,0.319,0,0,1,.288,0,1.262,1.262,0,0,0,.288.778V21.931a4.343,4.343,0,0,1,.1-1.264,0.42,0.42,0,0,0,.481-0.194c0.328-.085.208,0.5,0.769,0,0.174,0.192.1,0.183,0.481,0.194V19.5a1.348,1.348,0,0,0-.385-0.1,0.59,0.59,0,0,1-.192.194V19.4a4.413,4.413,0,0,0,0-.681h0.1a0.642,0.642,0,0,0,.385.1c0.027-.253,0-0.191.481-0.194a0.816,0.816,0,0,0,.673.194V18.431a1.347,1.347,0,0,0-.385-0.1,1.593,1.593,0,0,1-1.442-.292c0.252-.037.126,0.072,0.192-0.194h0.577V17.458c-0.513-.021-0.581-0.146-1.058-0.194a0.348,0.348,0,0,1,0,.389V17.458a0.5,0.5,0,0,1-.1-0.292,0.462,0.462,0,0,1-.288-0.1,1.2,1.2,0,0,0,.385-0.1l0.962-6.125H43.365c-0.654-.4-3.063-0.078-4.038-0.292-1.684-.369-3.589,0-5.385-0.389A34.952,34.952,0,0,0,27.4,9.681Zm-0.288.486a0.5,0.5,0,0,1,.1.292h-0.1V10.167Zm0.961,0.778,0.481,0.1v0.1H28.269C28.2,11.054,28.148,11.029,28.077,10.944Zm-1.538.1h0.192v0.1H26.539v-0.1Zm-0.192.1h0.192v0.1A0.329,0.329,0,0,1,26.346,11.139Zm0.481,0a0.5,0.5,0,0,1,.1.292h-0.1V11.139Zm1.731,0,0.481,0.1v0.1H28.75C28.679,11.249,28.629,11.224,28.558,11.139Zm15.577,0a44.348,44.348,0,0,1-.865,5.833l0.288,0.1a0.992,0.992,0,0,0,.577.194,13.439,13.439,0,0,0,.1-3.5C44.01,13.545,44.518,11.767,44.135,11.139Zm-17.981.1h0.192v0.1A0.328,0.328,0,0,1,26.154,11.236Zm-0.192.1h0.192v0.1h-0.1c-0.367.326-.931,0.287-1.058,0.875a6.3,6.3,0,0,1,.481,2.528C25.418,13.781,24.97,13,24.9,11.917A3.784,3.784,0,0,0,25.962,11.333Zm3.077,0,0.481,0.1v0.1H29.231C29.16,11.443,29.11,11.418,29.039,11.333Zm-2.308.1a0.5,0.5,0,0,1,.1.292h-0.1V11.431Zm2.788,0.1L30,11.625v0.1H29.712C29.64,11.638,29.59,11.613,29.519,11.528Zm-2.885.194a0.576,0.576,0,0,1-.1.681Zm3.365,0,0.481,0.1v0.1H30.192C30.121,11.832,30.071,11.807,30,11.722Zm15.1,0.1h0.192v0.1A0.329,0.329,0,0,1,45.1,11.819Zm-14.615.1,0.481,0.1v0.1H30.673C30.6,12.026,30.552,12,30.481,11.917Zm-5.288.194h0.192v0.1A0.328,0.328,0,0,1,25.192,12.111Zm5.769,0,0.481,0.1v0.1H31.154C31.083,12.221,31.033,12.2,30.962,12.111Zm-5.577.1h0.192v0.1A0.329,0.329,0,0,1,25.385,12.208Zm0.192,0.1a2.047,2.047,0,0,1,.481.194v0.1H25.865A3.428,3.428,0,0,1,25.577,12.306Zm5.865,0,0.481,0.1v0.1H31.635C31.563,12.415,31.514,12.39,31.442,12.306Zm-5,.1a0.5,0.5,0,0,1,.1.292h-0.1V12.4ZM27.5,12.5a0.634,0.634,0,0,0,.1.389A0.633,0.633,0,0,0,27.5,12.5Zm4.423,0L32.4,12.6v0.1H32.115C32.044,12.61,31.994,12.585,31.923,12.5Zm-5.865.1H26.25v0.1A0.328,0.328,0,0,1,26.058,12.6Zm1.154,0L26.923,15.9h0.192V15.028A5.608,5.608,0,0,0,27.212,12.6Zm18.365,0a0.346,0.346,0,0,0,.192.1A0.346,0.346,0,0,0,45.577,12.6Zm-19.327.1,0.288,0.1v0.1h-0.1v0.1A1.126,1.126,0,0,1,26.25,12.694Zm6.154,0a8.223,8.223,0,0,1,1.25.389v0.1H33.365C33.1,12.972,32.652,12.926,32.4,12.694Zm-5.865.194h0.192v0.1A0.328,0.328,0,0,1,26.539,12.889Zm-0.288.1a0.575,0.575,0,0,1-.1.681Zm7.4,0.194,0.481,0.1v0.1H33.846C33.775,13.29,33.725,13.265,33.654,13.181Zm-6.538,3.4H27.6a13.891,13.891,0,0,0-.1-3.208H27.4v0.681A11.537,11.537,0,0,0,27.115,16.583Zm7.019-3.208,0.481,0.1v0.1H34.327C34.256,13.485,34.206,13.46,34.135,13.375Zm-4.711.1a2.836,2.836,0,0,1,1.442.389H30.481C30.2,13.669,29.687,13.681,29.423,13.472Zm5.192,0.1,0.481,0.1v0.1H34.808C34.737,13.679,34.687,13.654,34.615,13.569Zm-8.558.1a0.5,0.5,0,0,1,.1.292h-0.1V13.667Zm9.038,0.1,0.481,0.1v0.1H35.289C35.217,13.874,35.167,13.849,35.1,13.764Zm-4.231.1a0.616,0.616,0,0,1,.385.1A0.616,0.616,0,0,1,30.865,13.861Zm14.038,0a0.352,0.352,0,0,1,.1.194H44.9V13.861Zm-18.942.1a0.5,0.5,0,0,1,.1.292h-0.1V13.958Zm5.288,0a2.836,2.836,0,0,1,1.442.389H32.308C32.025,14.155,31.514,14.167,31.25,13.958Zm4.327,0,0.481,0.1v0.1H35.769C35.7,14.068,35.648,14.043,35.577,13.958Zm0.481,0.194,0.481,0.1v0.1H36.25C36.179,14.263,36.129,14.238,36.058,14.153Zm-10.192.1a0.576,0.576,0,0,1-.1.681Zm18.462,2.042H45.1v-0.1a2.8,2.8,0,0,1-.192-1.847l0.385,2.625h0.192a1.666,1.666,0,0,1,.1-0.583,0.462,0.462,0,0,1-.288-0.1c0.312-.08.147,0.048,0.288-0.194a0.365,0.365,0,0,1-.288-0.194c0.472-.03.316-0.378,0.288-1.069-0.118-.13-0.175-0.348-0.288-0.486a0.825,0.825,0,0,0-.481-0.1,1.2,1.2,0,0,0-.288.1H44.327v1.944Zm-16.25-1.944a0.474,0.474,0,0,0,.1.292A0.474,0.474,0,0,0,28.077,14.347Zm4.615,0a2.836,2.836,0,0,1,1.442.389H33.75C33.468,14.544,32.956,14.556,32.692,14.347Zm3.846,0,0.481,0.1v0.1H36.731C36.66,14.457,36.61,14.432,36.539,14.347Zm0.481,0.194,0.481,0.1v0.1H37.212C37.14,14.651,37.09,14.626,37.019,14.542Zm-8.75.1v2.917h0.192V14.639H28.269Zm-0.192.1c-0.016.723-.226,2.315,0.1,2.819C28.189,16.832,28.4,15.24,28.077,14.736Zm6.058,0a2.836,2.836,0,0,1,1.442.389H35.192C34.91,14.932,34.4,14.945,34.135,14.736Zm3.365,0,0.481,0.1v0.1H37.692C37.621,14.846,37.571,14.821,37.5,14.736Zm-11.923.1a0.829,0.829,0,0,1,.192.778,0.87,0.87,0,0,1,.1.875C25.82,15.81,25.6,15.581,25.577,14.833Zm3.462,0a0.366,0.366,0,0,1,.288.194h0.1v0.1A0.521,0.521,0,0,1,29.039,14.833Zm-2.5.1v0.194h0.1A0.334,0.334,0,0,0,26.539,14.931Zm2.212,0,0.288,0.1v0.1A0.365,0.365,0,0,1,28.75,14.931Zm9.231,0,0.481,0.1v0.1H38.173C38.1,15.04,38.052,15.015,37.981,14.931Zm7.692,0v0.194h0.385v-0.1h0.1v-0.1H45.673Zm-16.635.194a0.365,0.365,0,0,1,.288.194h0.1v0.1A0.521,0.521,0,0,1,29.039,15.125Zm0.385,0,0.288,0.1v0.1A0.365,0.365,0,0,1,29.423,15.125Zm6.154,0a0.616,0.616,0,0,1,.385.1A0.616,0.616,0,0,1,35.577,15.125Zm2.885,0,1.731,0.583v0.1H39.9C39.5,15.5,38.827,15.468,38.462,15.125Zm-2.5.1a2.835,2.835,0,0,1,1.442.389H37.019C36.737,15.419,36.225,15.431,35.962,15.222Zm-6.25.1a0.366,0.366,0,0,1,.288.194h0.1v0.1A0.521,0.521,0,0,1,29.712,15.319Zm-0.288.1,0.288,0.1v0.1A0.365,0.365,0,0,1,29.423,15.417Zm-3.942.1a0.286,0.286,0,0,1,0,.389V15.514Zm4.231,0.1L30,15.708v0.1A0.366,0.366,0,0,1,29.712,15.611Zm0.385,0a0.984,0.984,0,0,1,.577.389h0.1v0.1H30.577C30.428,15.9,30.24,15.819,30.1,15.611Zm7.308,0A2.835,2.835,0,0,1,38.846,16H38.462C38.179,15.807,37.667,15.82,37.4,15.611Zm2.789,0.194,0.481,0.1V16H40.385C40.313,15.915,40.264,15.89,40.192,15.806Zm-14.808.1a0.5,0.5,0,0,1,.1.292h-0.1V15.9Zm4.712,0L30.385,16v0.1A0.365,0.365,0,0,1,30.1,15.9Zm8.75,0.1a2.836,2.836,0,0,1,1.442.389H39.9C39.621,16.2,39.11,16.209,38.846,16Zm1.827,0,0.481,0.1v0.1H40.865C40.794,16.11,40.744,16.085,40.673,16Zm-10.288.1,0.289,0.1v0.1A0.366,0.366,0,0,1,30.385,16.1Zm-5.1.1a0.5,0.5,0,0,1,.1.292h-0.1V16.194Zm0.865,0a0.394,0.394,0,0,1,0,.486V16.194Zm15,0,0.481,0.1v0.1H41.346C41.275,16.3,41.225,16.279,41.154,16.194Zm-10.481.1,0.288,0.1v0.1A0.365,0.365,0,0,1,30.673,16.292Zm9.615,0.1a3.848,3.848,0,0,1,1.827.486H41.731C41.346,16.614,40.647,16.674,40.289,16.389Zm1.346,0,0.481,0.1v0.1H41.827C41.756,16.5,41.706,16.474,41.635,16.389Zm3.462,0H44.423c0.025,0.242,0,.25,0,0.778h0.1V16.972a2.183,2.183,0,0,1,.288-0.292v0.1h0.1l-0.1.194h0.1c0.149-.069.013-0.012,0.289,0v-0.1A0.849,0.849,0,0,1,45.1,16.389Zm-19.9.1a0.286,0.286,0,0,1,0,.389V16.486Zm5.865,0.1,0.288,0.1v0.1A0.366,0.366,0,0,1,31.058,16.583Zm11.058,0,0.481,0.1v0.1H42.308C42.237,16.693,42.187,16.668,42.115,16.583Zm-16.539.1h0.192v0.1A0.329,0.329,0,0,1,25.577,16.681ZM26.25,17.75h0.385l0.1-1.069a0.461,0.461,0,0,0-.288.1,1.063,1.063,0,0,0-.1.583A0.662,0.662,0,0,0,26.25,17.75Zm0.962-1.069c0.037,0.246-.056.153,0.288,0.194V16.681H27.212Zm4.135,0.1,0.288,0.1v0.1A0.365,0.365,0,0,1,31.346,16.778Zm11.25,0,0.481,0.1v0.1H42.789C42.717,16.888,42.667,16.863,42.6,16.778Zm-17.5.1a0.286,0.286,0,0,1,0,.389V16.875Zm17.019,0a0.989,0.989,0,0,1,.673.194H42.4C42.33,17,42.189,16.942,42.115,16.875Zm-10.385.194,0.288,0.1v0.1A0.366,0.366,0,0,1,31.731,17.069ZM25,17.264a0.394,0.394,0,0,1,0,.486V17.264Zm7.019,0,0.288,0.1v0.1H32.115Zm0.288,0.194,0.288,0.1v0.1A0.366,0.366,0,0,1,32.308,17.458Zm12.019,0.389a0.648,0.648,0,0,0,.481-0.194,0.521,0.521,0,0,0,.577.194V17.556a2.293,2.293,0,0,1-.962,0A0.5,0.5,0,0,0,44.327,17.847Zm-1.058-.194a0.351,0.351,0,0,1,.1.194h-0.1V17.653Zm-18.365.1a0.286,0.286,0,0,1,0,.389V17.75Zm7.789,0,0.288,0.1v0.1A0.365,0.365,0,0,1,32.692,17.75Zm10.673,0.1a0.352,0.352,0,0,1,.1.194h-0.1V17.847Zm-17.212.1-0.1,1.069,0.385,0.1V18.625C26.622,18.312,26.368,18.131,26.154,17.944Zm6.827,0,0.288,0.1v0.1A0.366,0.366,0,0,1,32.981,17.944Zm-8.173.194a0.394,0.394,0,0,1,0,.486V18.139Zm3.269,0.1a1.79,1.79,0,0,0,.1.875A1.79,1.79,0,0,0,28.077,18.236Zm0.192,0c0.08,0.316-.047.149,0.192,0.292V18.236H28.269Zm5.1,0,0.288,0.1v0.1A0.366,0.366,0,0,1,33.365,18.236Zm-6.442.875H27.6V18.431a1.742,1.742,0,0,0-.577-0.1A2.464,2.464,0,0,0,26.923,19.111Zm6.731-.681,0.289,0.1v0.1A0.365,0.365,0,0,1,33.654,18.431Zm-8.942.194a0.286,0.286,0,0,1,0,.389V18.625Zm2.019,0a1.408,1.408,0,0,1-.1.486h0.192A0.822,0.822,0,0,0,26.731,18.625Zm1.538,0v1.847h0.1v-0.1A2.142,2.142,0,0,0,28.269,18.625Zm13.846,0.292a0.351,0.351,0,0,1,.1.194h-0.1V18.917Zm-17.5.1c0.158,0.241.247,0.571,0.385,0.778-0.37-.057-0.257.146-0.385-0.1A1.613,1.613,0,0,1,24.615,19.014Zm17.212,0.292a0.461,0.461,0,0,1,.288.1A0.463,0.463,0,0,1,41.827,19.306Zm2.885,0.1a3.23,3.23,0,0,0-.1.972h0.192A2.066,2.066,0,0,0,44.712,19.4Zm-0.385.1v1.167h0.192V19.5H44.327Zm-17.788.194-0.192,1.458H27.6a5.469,5.469,0,0,0-.1-1.556A3.129,3.129,0,0,1,26.539,19.694Zm1.538-.1a1.272,1.272,0,0,0,.1.681A1.272,1.272,0,0,0,28.077,19.6Zm15.481,0c0.083,0.183.046,0.072,0,.292h-0.1ZM25,19.792a3.671,3.671,0,0,1,.673.194v0.1H25.385C25.272,19.972,25.112,19.9,25,19.792Zm18.365,0.1a1.61,1.61,0,0,1,.288.583h-0.1a0.778,0.778,0,0,0-.865-0.292V19.986A1.233,1.233,0,0,0,43.365,19.889Zm-17.692.194h0.192v0.1H25.673v-0.1Zm2.4,0.292a0.474,0.474,0,0,0,.1.292A0.474,0.474,0,0,0,28.077,20.375Zm0.192,0.486c0.489,0.032,1.292.2,1.538-.194H28.654a0.53,0.53,0,0,0-.385,0,2.191,2.191,0,0,0-.192.972h0.1V21.444A1.063,1.063,0,0,0,28.269,20.861Zm-6.827-.194h0.192v0.1H21.442v-0.1Zm10.577,0v0.194h0.192V20.667H32.019Zm0.962,0c0.165,0.086.123,0.086,0.288,0H32.981Zm1.25,0.681h0.288V20.667H34.327a2.733,2.733,0,0,1-.577,0v0.194a0.452,0.452,0,0,1,0,.486h0.288l0.1-.389h0.1v0.389Zm-7.115,1.069a0.474,0.474,0,0,0,.1.292V22.417H27.6V21.347a4.3,4.3,0,0,0-1.25-.1v0.1h-0.1l-0.192.972A9.332,9.332,0,0,1,27.115,22.417Zm1.25-.875v0.194h0.1A0.334,0.334,0,0,0,28.365,21.542Zm0,0.292c-0.074.066-.215,0.127-0.289,0.194a3.378,3.378,0,0,1,1.346.389,1.278,1.278,0,0,1,0-.486A3.361,3.361,0,0,1,28.365,21.833Zm4.231,0.1v0.194h0.1v-0.1h0.1A0.346,0.346,0,0,0,32.6,21.931Zm-3.077.1v0.389h0.1v0.1a10.481,10.481,0,0,0,1.346-.1V22.028H29.519Zm1.538,0a0.634,0.634,0,0,0,.1.389A0.633,0.633,0,0,0,31.058,22.028Zm0.769,0a1.131,1.131,0,0,0,.481.778,1.039,1.039,0,0,1,.192-0.778H31.827Zm-7.211.292v0.486h1.058l0.1-.292A0.91,0.91,0,0,0,25,22.222,0.642,0.642,0,0,1,24.615,22.319Zm3.461,0.1v0.389a3.373,3.373,0,0,0,1.346-.292,6.6,6.6,0,0,1-.962-0.292A0.74,0.74,0,0,1,28.077,22.417Zm21.058,0.1c0.218,0.215.132,0.3,0.288,0.1h0.192v-0.1H49.135Zm6.346,0a0.591,0.591,0,0,0,.673.292v-0.1h0.1v-0.1A2.253,2.253,0,0,1,55.481,22.514Zm16.25,0h0.192v0.1A0.328,0.328,0,0,1,71.731,22.514Zm-44.423.194a0.346,0.346,0,0,0,.192.1A0.346,0.346,0,0,0,27.308,22.708Zm49.135,0V22.9c1.162,0.212,2.065-.247,3.365,0V22.708H76.442Zm-9.135.1V23c0.364-.081.6,0.145,0.769-0.194H67.308Zm4.038,0a0.279,0.279,0,0,0,.385,0H71.346Zm-17.115.1-0.1.292h0.1c0.074-.066.215-0.127,0.288-0.194Zm6.731,0c0.037,0.254-.071.127,0.192,0.194V22.9H60.962Zm0.673,0V23.1h0.288V22.9H61.635ZM49.423,23a0.345,0.345,0,0,0,.192.1A0.346,0.346,0,0,0,49.423,23Zm12.6,0a0.793,0.793,0,0,0,.769,0H62.019Zm2.019,0a0.279,0.279,0,0,0,.385,0H64.039Zm0.577,0c0.165,0.086.123,0.086,0.288,0H64.615Zm0.577,0a0.346,0.346,0,0,0,.192.1A0.345,0.345,0,0,0,65.192,23Zm0.962,0a0.346,0.346,0,0,0,.192.1A0.345,0.345,0,0,0,66.154,23Zm2.4,0a0.345,0.345,0,0,0,.192.1A0.346,0.346,0,0,0,68.558,23ZM24.9,23.1a0.793,0.793,0,0,0,.769,0H24.9Zm4.808,0a0.346,0.346,0,0,0,.192.1A0.345,0.345,0,0,0,29.712,23.1Zm2.115,0a0.383,0.383,0,0,0,.481,0H31.827Zm-30,.778a0.384,0.384,0,0,0,.385.194v-0.1A1.207,1.207,0,0,1,1.827,23.875Zm0.673,0v0.194H2.6A0.334,0.334,0,0,0,2.5,23.875Zm0.192,0v0.194C2.847,23.954,2.81,24.029,2.692,23.875Zm3.269,0a0.345,0.345,0,0,1-.192.1v0.1H6.058a1.455,1.455,0,0,1,.962.1V23.972A5.352,5.352,0,0,0,5.962,23.875Zm1.923,0c0.165,0.086.123,0.086,0.288,0H7.885Zm0.673,0-0.1.292H8.654A0.617,0.617,0,0,0,8.558,23.875Zm1.154,0a0.473,0.473,0,0,0,.1.292A0.473,0.473,0,0,0,9.712,23.875Zm0.385,0v0.194h0.289V23.875H10.1Zm0.481,0a0.383,0.383,0,0,0,.481,0H10.577Zm2.4,0c0.165,0.086.123,0.086,0.288,0H12.981Zm-9.9.1c0.165,0.086.123,0.086,0.288,0H3.077Zm1.442,0c0.165,0.086.123,0.086,0.288,0H4.519Zm4.808,0.1c0.165,0.086.123,0.086,0.288,0H9.327Zm2.6,0c0.165,0.086.123,0.086,0.288,0H11.923Zm0.673,0a0.346,0.346,0,0,0,.192.1A0.346,0.346,0,0,0,12.6,24.069Zm0.385,0a0.5,0.5,0,0,0,.577,0H12.981Zm6.731,0c0.165,0.086.123,0.086,0.288,0H19.712Zm-15.1,3.306v0.194h0.1A0.334,0.334,0,0,0,4.615,27.375Zm0,0.292a0.473,0.473,0,0,0,.1.292A0.473,0.473,0,0,0,4.615,27.667Zm0.1,1.069V28.056c-0.312.081-.147-0.048-0.288,0.194,0.332,0.2.151,0.264,0,.486H4.712Zm-0.288.194c0.165,0.086.123,0.086,0.288,0H4.423Z" transform="translate(0 0.5)"/>
</svg>
