<svg xmlns="http://www.w3.org/2000/svg" width="80" height="40" viewBox="0 0 80 40">
  <defs>
    <style>
      .cls-1 {
        fill: #fff;
        fill-rule: evenodd;
      }
    </style>
  </defs>
  <path id="Color_Fill_1" data-name="Color Fill 1" class="cls-1" d="M41.954,10.472a0.208,0.208,0,0,1,.129.043,1.771,1.771,0,0,0-.043.6c0.06,0.009-.017-0.035.043-0.043,0.033-.083.043,0.086,0.043,0.086A2.546,2.546,0,0,0,42.04,12.4c0.139,0.036.066-.021,0.129,0.086a1.172,1.172,0,0,1-.086.343,0.358,0.358,0,0,0-.043-0.214V15.1a1.856,1.856,0,0,1,.344,0V15.061a0.756,0.756,0,0,1,.043-0.343,0.155,0.155,0,0,1,.043.086,0.781,0.781,0,0,0,.043.257,0.917,0.917,0,0,0,.429.043V15.018a1.583,1.583,0,0,0,.73.086V14.932a2.151,2.151,0,0,1,.472.043V14.718H44.1V14.675a0.736,0.736,0,0,1-.558-0.129c0.31-.3-0.1-1.294.129-1.673a8.376,8.376,0,0,0,.043,1.716h0.3V14.332H43.886V13.86a4.209,4.209,0,0,0,.6-0.043V13.86c-0.109.063-.049-0.009-0.086,0.129a0.278,0.278,0,0,0-.172.043,0.281,0.281,0,0,1,.215.086,0.219,0.219,0,0,0-.043.129,0.278,0.278,0,0,0-.172.043,0.36,0.36,0,0,1,.215.043H44.316v0.3H44.187a1.015,1.015,0,0,0,.043.343l0.215-.043c0.056-.106-0.018-0.029.086-0.086V14.675a1.2,1.2,0,0,0,.387-0.086v0.043c-0.073.071-.141,0.143-0.215,0.214,0.063,0.011.379,0.105,0.558,0.172a1.373,1.373,0,0,1-.086.643,0.454,0.454,0,0,1,.258.043,0.464,0.464,0,0,1,.043.257,6.06,6.06,0,0,1,0,.858,0.261,0.261,0,0,1,.258,0H45.6v0.129H45.475a0.207,0.207,0,0,0,.043.129,0.155,0.155,0,0,1,.086-0.043v0.172a0.618,0.618,0,0,0-.472.686h0.258V17.677a1.463,1.463,0,0,0,.343-0.043V17.72a2.206,2.206,0,0,0-.172.172h0.258a5.719,5.719,0,0,1,0,.643h0.773a0.37,0.37,0,0,1,.129-0.257v0.257a0.208,0.208,0,0,1,.129.043l-0.859.043c0,0.019.086,0.686,0.086,0.686a1.181,1.181,0,0,1,.343.643H46.205a1.686,1.686,0,0,0,.043.515,0.358,0.358,0,0,1,.429.043,1.038,1.038,0,0,0-.043.472,0.622,0.622,0,0,0-.344.129c-0.281.321,0.045,1.228,0,1.458h0.344a0.29,0.29,0,0,1,.172-0.043V22.181h0.086a0.466,0.466,0,0,1,.258-0.043,0.6,0.6,0,0,1,0-.214c0.029,0,.605-0.02.644,0-0.014.124,0.159,0.161,0.386,0.172a2.151,2.151,0,0,1-.043.472h0.172V22.61l0.086-.043V22.61h0.043V22.481h0.129a1.534,1.534,0,0,0-.043-0.643,0.451,0.451,0,0,1-.043.257V21.752a0.147,0.147,0,0,0,.086-0.043H47.622v-0.3H47.15q-0.022-.515-0.043-1.029a0.783,0.783,0,0,0,.386-0.043,0.207,0.207,0,0,1-.129-0.043,0.162,0.162,0,0,0,.129-0.172h0.129l0.086,0.043c0.035-.069.1,0.1,0.172,0.129a1.041,1.041,0,0,1,.687.129,0.208,0.208,0,0,0-.129.043h0.129v0.257a6.332,6.332,0,0,1,1.975-.086c0.33,0.064.285-.188,0.6-0.129a6.64,6.64,0,0,0,.9.129v0.171a1.924,1.924,0,0,1,.816.386h0.73a11.208,11.208,0,0,0,1.975.043,6.132,6.132,0,0,0,1.117,0,0.147,0.147,0,0,0,.043.086,0.147,0.147,0,0,1-.043.086c-0.062.109,0.009,0.048-.129,0.086a2.609,2.609,0,0,0-.945,0l-2.577.043a5.976,5.976,0,0,1,.043.729,0.274,0.274,0,0,1,.215.257c-0.235.14,0,.466,0.043,0.6a15,15,0,0,1,1.5,0v0.129a0.457,0.457,0,0,0,.386.129l-0.043-.129a0.4,0.4,0,0,1,.343,0l-0.043.129h0.129V23.21a0.187,0.187,0,0,0,.129-0.129H55.652a2.344,2.344,0,0,0-.9-0.043,2.682,2.682,0,0,1-.086-0.858c0.219-.015.246-0.016,0.258-0.214l0.945-.086a0.541,0.541,0,0,1-.043.171h0.043a0.373,0.373,0,0,1,.215-0.043V21.966a0.219,0.219,0,0,1-.043-0.129l0.816-.086V21.88h0.258V21.752a2.334,2.334,0,0,1,.816.086c0.005,0.16-.052.1,0.129,0.129a0.869,0.869,0,0,1,.859,0,0.34,0.34,0,0,1-.086.129L59.6,22.181a2.126,2.126,0,0,0,.429.343h0.859a14.231,14.231,0,0,0,2.963.043v0.214l-3.693.086V22.91c0.109,0.131.1,0.113,0.043,0.214H60.59a1.648,1.648,0,0,1,1.031.086c0-.136-0.073-0.058.043-0.129,0.083-.058.227,0.009,0.343-0.043a0.655,0.655,0,0,0,.129-0.172,0.694,0.694,0,0,0,.558.043,0.476,0.476,0,0,0,.129.129,0.061,0.061,0,0,1-.043.086c-0.018.165,0.088,0.211,0.3,0.214a0.123,0.123,0,0,1,.043-0.043,1.441,1.441,0,0,0,0-.3c0.174,0,.6.1,0.644,0.086a0.247,0.247,0,0,1,.215-0.129,0.261,0.261,0,0,0,.215.129,1.146,1.146,0,0,1,.086-0.343c0,0.3-.033.348,0.3,0.343a0.546,0.546,0,0,1,.043-0.386,1.026,1.026,0,0,1,0,.386h0.3a0.291,0.291,0,0,0,.172.043c0.016,0.112-.032.056,0.086,0.086a1.708,1.708,0,0,1,.558-0.086V23.21a0.218,0.218,0,0,0-.043.129h0.172V23.167h0.215v0.172h0.086V23.124c0.276,0.007.588-.025,0.816,0,0,0.185-.094.123,0.086,0.172-0.014-.172-0.036-0.089.043-0.214a0.146,0.146,0,0,1,.086.043c0.162,0.1-.053.109,0.172,0.172l-0.043-.172,0.129-.043C67.5,23,67.4,23.053,67.375,23.038V22.781h0.172a1.46,1.46,0,0,1-.043.343h0.172a0.289,0.289,0,0,1,.172-0.043V23.3c0.168,0,.193.021,0.258-0.086a0.147,0.147,0,0,1-.086-0.043h0.172a0.316,0.316,0,0,0-.086-0.257h0.258a0.328,0.328,0,0,0,0,.257c0.121-.045.015-0.061,0.129,0V23.081A0.154,0.154,0,0,1,68.449,23a1.412,1.412,0,0,1,.429-0.043,0.155,0.155,0,0,0,.086.043v0.043a0.246,0.246,0,0,0-.086.257h0.086c0.039-.1.046-0.068,0.086-0.172-0.106-.056-0.029.018-0.086-0.086,0.139-.035.066,0.021,0.129-0.086l-0.386-.129V22.781h0.043V22.738a1.26,1.26,0,0,0,.429-0.086v0.086a0.147,0.147,0,0,0-.086.043,0.883,0.883,0,0,1,.258,0,0.321,0.321,0,0,0-.086.257h0.043a0.618,0.618,0,0,1,.73-0.215c0,0.217-.094.187,0.129,0.215a1.838,1.838,0,0,1,.73,0,2.8,2.8,0,0,0,1.245-.215H71.927V22.7A2.195,2.195,0,0,1,73,22.738a0.638,0.638,0,0,0-.558.129,0.155,0.155,0,0,1,.043.086h0.043a0.166,0.166,0,0,1,.129-0.086V22.91a0.262,0.262,0,0,0-.086.086h0.258a0.123,0.123,0,0,1-.043.043v0.043h0.043c0.083,0.033-.086.043-0.086,0.043-0.027.012-.02-0.013-0.043,0.043,0.193,0,.094-0.039.215,0.043V23.081s-0.168-.008-0.086-0.043h0.086a1.654,1.654,0,0,1,.816,0c0.018-.113.069-0.093,0.3-0.086,0,0.112-.056.038,0.043,0.129v0.043h0.043V23.081a0.219,0.219,0,0,0,.043-0.129,3.654,3.654,0,0,0,.429,0,0.922,0.922,0,0,1-.043-0.3h0.129a1.52,1.52,0,0,1-.043.472l0.429,0.043c-0.014-.174-0.086-0.169.129-0.214a0.123,0.123,0,0,0,.043.043l-0.043.172h0.6a0.881,0.881,0,0,0,.086-0.214,0.219,0.219,0,0,0,.043-0.129,0.887,0.887,0,0,1-.429-0.171,0.936,0.936,0,0,0,.386-0.129h0.129l0.043,0.129c0.17,0.074.427-.041,0.558,0.043a1.869,1.869,0,0,0-.558.043,0.752,0.752,0,0,0,.086.172,0.166,0.166,0,0,1,.129-0.086v0.043c-0.06.036-.2,0.089-0.129,0.129a0.219,0.219,0,0,0,.129.043,0.606,0.606,0,0,1,.515-0.086v0.086a0.219,0.219,0,0,0-.043.129h0.086a0.254,0.254,0,0,1,.086-0.257,0.207,0.207,0,0,0,.043.129,0.764,0.764,0,0,1,.558-0.086c0.012-.112,0-0.084.215-0.086V22.91a0.546,0.546,0,0,0-.172.043,0.147,0.147,0,0,0,.043.086v0.043a0.148,0.148,0,0,0,.086-0.043,0.5,0.5,0,0,0,.086-0.215,0.146,0.146,0,0,1-.086-0.043,0.207,0.207,0,0,0,.129-0.043,0.87,0.87,0,0,1-.429-0.043V22.652h0.043V22.61a2.268,2.268,0,0,1,1.073.043c-0.243,0-.464.015-0.6,0V22.7a2.986,2.986,0,0,1,.215.343c0-.16-0.052-0.1.129-0.129a0.122,0.122,0,0,1,.043-0.043l0.043,0.172h0.043a0.277,0.277,0,0,1,.043-0.172,0.277,0.277,0,0,0,.043.172,0.347,0.347,0,0,1,.344-0.086V23H78.755c-0.083.033,0.086,0.043,0.086,0.043A0.251,0.251,0,0,1,79.184,23c0.018-.154-0.02-0.108.086-0.172a0.453,0.453,0,0,0,.043.257,0.556,0.556,0,0,1,.043-0.3,0.452,0.452,0,0,0,.043.257V22.953a0.511,0.511,0,0,0,.129-0.257h0.043v0.129a0.511,0.511,0,0,0-.129.257h0.086a0.371,0.371,0,0,1,.215-0.043,5.7,5.7,0,0,1,.043-1.673v1.673h0.129A0.448,0.448,0,0,1,80,23.3a6.082,6.082,0,0,0-.687,1.33,10.89,10.89,0,0,0-1.073,2.187,11.88,11.88,0,0,0-.258,1.458,3.568,3.568,0,0,1,.344.643,7.752,7.752,0,0,1-1.975.043H9.748a4.818,4.818,0,0,0-1.116-.772c-0.2-.041-0.817.125-1.159,0.129v0.214H7.429A0.772,0.772,0,0,0,7.3,28.357a0.543,0.543,0,0,1-.043.171,0.233,0.233,0,0,0-.215.043V28.485A0.371,0.371,0,0,1,7,28.271a0.6,0.6,0,0,1-.386-0.129H6.656c0.089-.079.249-0.1,0.344-0.171H4.767a2.306,2.306,0,0,0-.859.043H4.724a1.941,1.941,0,0,1,.086.815,0.155,0.155,0,0,0-.043.086c-0.493.065-2.519,0.176-2.662-.172a5.1,5.1,0,0,1,0-1.63,0.643,0.643,0,0,1,.172-0.086,7.078,7.078,0,0,1,1.331-.043V26.941H3.135a3.7,3.7,0,0,0-.816-0.129A3.566,3.566,0,0,1,1.2,26.3c-0.768-.584-0.339-2.1-0.6-2.831H0.73a7.751,7.751,0,0,0,.086-1.415H0.043A1.583,1.583,0,0,1,0,21.58a3.08,3.08,0,0,0,.859-0.043v1.887a2.077,2.077,0,0,0,.043.515,0.359,0.359,0,0,1,.043-0.215c0.036,0.139-.021.066,0.086,0.129V23.81A0.289,0.289,0,0,1,.945,23.6H0.988v0.086a0.309,0.309,0,0,0,.215.172,0.219,0.219,0,0,0,.129.043,0.508,0.508,0,0,0-.172-0.343A2.356,2.356,0,0,1,1.417,23V22.953C1.46,22.91,1.46,22.995,1.46,23c0.048,0.085.026,0.078,0,.172a17.44,17.44,0,0,0,1.8.043V23.038L2.748,23V22.91a0.147,0.147,0,0,0,.086-0.043,1.7,1.7,0,0,0,.945-0.086V22.738L2.1,22.567a0.758,0.758,0,0,1-.086-0.429,0.5,0.5,0,0,1,.3-0.086,0.821,0.821,0,0,0,.215.3,2.086,2.086,0,0,1,.9-0.086,0.207,0.207,0,0,1,.043-0.129v0.043c0.067,0.049.015,0.083,0.258,0.086V22.138a0.208,0.208,0,0,1-.129-0.043H3.65a1.687,1.687,0,0,1,.687-0.043v0.172H4.423a0.244,0.244,0,0,1,.3.043,0.665,0.665,0,0,1,.043-0.343,0.72,0.72,0,0,1-.086.643,4.109,4.109,0,0,0-.859.257H3.951a0.677,0.677,0,0,1,.429.086V22.824A0.218,0.218,0,0,1,4.337,22.7H4.38v0.086a0.219,0.219,0,0,1,.043.129L5.153,23v0.043H5.11a0.2,0.2,0,0,1-.215.086c-0.2.123-.7-0.04-0.9,0.086H4.981V23.3H4.938a0.238,0.238,0,0,0-.386.086,2.132,2.132,0,0,1,.687,0c0-.136-0.061-0.08.086-0.129-0.017.1-.039,0.046,0,0.129l0.043-.129c0.227,0.183.234,0.073,0.429,0,0.016,0.112-.032.056,0.086,0.086a1.124,1.124,0,0,1,.472-0.129v0.043H6.4v0.129c1.678,0,3.424,0,4.981,0v0.086H11.337a0.449,0.449,0,0,1-.3.171,0.22,0.22,0,0,0-.129-0.043v0.043a0.208,0.208,0,0,1,.129.043,2.108,2.108,0,0,1-.945.043c0.056-.024.032,0,0.043-0.043-0.056-.106.018-0.029-0.086-0.086,0.006,0.252.043,0.221-.258,0.215-0.253.153-.739,0.012-0.988,0.171,0.539,0,1.117-.068,1.546-0.043a0.208,0.208,0,0,1,.043-0.129c0.036,0.139-.021.066,0.086,0.129a0.817,0.817,0,0,1,.687.086c0.014,0.08-.031.053,0.086,0.086a0.373,0.373,0,0,1,.215-0.043c0-.162.078-0.15,0.343-0.129,0-.183-0.012-0.175.258-0.172a0.207,0.207,0,0,1,.043-0.129v0.129l0.215,0.043c-0.066.1-.122,0.169,0.043,0.257,0-.143-0.029-0.134.215-0.129,0,0.136-.073.058,0.043,0.129a0.219,0.219,0,0,0,.129.043,2.557,2.557,0,0,0-.043-0.729h1.031v0.043a1.681,1.681,0,0,0-.043.686H13.87a1.681,1.681,0,0,1,.086-0.643,0.932,0.932,0,0,0,.086.643V24.025a0.289,0.289,0,0,0,.043-0.171H14.042V23.9C14.009,23.979,14,23.81,14,23.81l0.3-.043a0.207,0.207,0,0,1,.043-0.129,0.273,0.273,0,0,0,.344.3,1.249,1.249,0,0,0,.773.172V24.025a0.155,0.155,0,0,1-.043-0.086h0.258a0.207,0.207,0,0,1,.043-0.129v0.129h0.215v0.043a0.219,0.219,0,0,0-.043.129h0.129l0.043-.257a0.384,0.384,0,0,0,.3.086v0.172H16.49a0.207,0.207,0,0,1,.043-0.129,0.29,0.29,0,0,1,.172-0.043,0.24,0.24,0,0,0,.172,0,0.208,0.208,0,0,1,.043-0.129v0.129h0.172c0,0.125-.041.059,0,0.129a0.941,0.941,0,0,1,.387,0,0.452,0.452,0,0,1,.043-0.257c0,0.167-.021.193,0.086,0.257a0.785,0.785,0,0,1-.043-0.257h0.043v0.043c0.033,0.082.043-.086,0.043-0.086a0.147,0.147,0,0,1-.086-0.043c0.109-.063.086-0.091,0.086-0.257h0.258a1.067,1.067,0,0,1,0-.558h0.086c-0.006.173-.023,0.235,0.086,0.3V23.124a0.367,0.367,0,0,1,.129-0.172v0.129c0.162-.006.151,0.02,0.215-0.086a0.208,0.208,0,0,1-.129-0.043,2.419,2.419,0,0,1,.515.043V22.91a0.757,0.757,0,0,1,.086-0.472H18.637v0.086a0.346,0.346,0,0,1-.043.257c-0.015-.218-0.072-0.3.086-0.386,0.135-.084.191,0.088,0.215-0.214a0.147,0.147,0,0,0,.086-0.043c-1.18-.079-2.456-0.084-3.736-0.086V21.838l3.564-.043a4.381,4.381,0,0,1,1.417-.429V21.194h0.086a1.29,1.29,0,0,1,.945.043V21.194a0.261,0.261,0,0,1-.086-0.086h0.043V21.066l0.73-.086a0.866,0.866,0,0,0,.343.171,0.544,0.544,0,0,1,.043-0.171l0.73,0.129V21.28h0.387V21.237h0.043a1.176,1.176,0,0,0-.043-0.386H24.09c0.059-.149.1-0.132,0.3-0.129,0.052,0.106.076,0.066,0.129,0.172H24.477v0.043a1.179,1.179,0,0,1,.386.043,1.1,1.1,0,0,0,0,.515,2.271,2.271,0,0,1,.472.043,0.784,0.784,0,0,0,.043-0.257,4.176,4.176,0,0,0-.043-0.429h0.343v0.043a0.794,0.794,0,0,0-.043.386,7.679,7.679,0,0,0,1.031-.043c0.2-.023.6,0.094,0.687,0.043a0.264,0.264,0,0,1,.172-0.086c0.063,0.108.019,0.066,0.172,0.086v0.214h0.215V21.409a0.756,0.756,0,0,1,.043-0.343,0.147,0.147,0,0,1,.086.043,0.288,0.288,0,0,1,.043.172,5.547,5.547,0,0,1,.687.129c0.079-.052.232-0.082,0.3-0.129,0.006,0.161-.02.151,0.086,0.214a2.16,2.16,0,0,0,.988,0,0.207,0.207,0,0,1-.043.129,2.529,2.529,0,0,1-1.031.129,0.714,0.714,0,0,1-.129.429,0.163,0.163,0,0,1,.129.086c0.08-.013.281,0,0.472,0v-0.3H29.63a0.155,0.155,0,0,0,.086.043,1.233,1.233,0,0,0,.086.386H29.93c0.036,0.17-.042.147,0.172,0.172v-0.3h0.172V21.923A0.277,0.277,0,0,1,30.1,21.88h0.086a0.383,0.383,0,0,0,.086-0.3c-0.04-.082-0.016-0.05,0-0.172a0.712,0.712,0,0,1-.344-0.343,0.794,0.794,0,0,0,.043-0.386H29.93V20.637c-0.163-.022-0.181-0.06-0.343-0.086a4.548,4.548,0,0,1,0-.472,0.56,0.56,0,0,1-.215,0,2.881,2.881,0,0,0-.172-0.6,0.733,0.733,0,0,1,.687-0.343V19.093c0.043-.043.042,0.042,0.043,0.043,0.038-.047.005-0.1,0.043-0.172a0.775,0.775,0,0,0,.3-0.643,1.812,1.812,0,0,1,0-.472c-0.128,0-.157.013-0.172-0.215h0.129a1.277,1.277,0,0,1,.043-0.558v0.558a0.254,0.254,0,0,1,.172.086,0.207,0.207,0,0,1,.043-0.129v0.215H30.66a1.925,1.925,0,0,0-.043-0.772,0.207,0.207,0,0,1-.043.129V17.077a1.059,1.059,0,0,0-.086-0.3,0.263,0.263,0,0,1-.086.086V16.777h0.043V16.734h0.129a3.105,3.105,0,0,1,.043-1.158,0.453,0.453,0,0,0,.043.257,1.025,1.025,0,0,1,.043-0.472c-0.011.9,0.023,1.748,0.043,2.445a0.783,0.783,0,0,1,.387.043,1.668,1.668,0,0,0-.387.043v0.3c-0.139.035-.066-0.021-0.129,0.086,0.087,0.079.139,0.19,0.172,0.214a0.307,0.307,0,0,1,.172-0.086,0.454,0.454,0,0,1,.086.214l-0.129.043v0.043c-0.043.043-.043-0.042-0.043-0.043a0.4,0.4,0,0,0-.215-0.129,1.408,1.408,0,0,0-.043.429c0.232,0.162.05,0.286,0,.515h0.215l0.043-.215a0.678,0.678,0,0,1,.3-0.086,0.864,0.864,0,0,0,.387.3,0.144,0.144,0,0,1,0-.129H31.6v0.043c0.077,0.057-.02.071,0.172,0.086a1.663,1.663,0,0,1-.043.386H31.562c0,0.666-.083,1.271-0.086,2.016a4.39,4.39,0,0,0,.9-0.257c0.459-.148.913-0.169,1.331-0.343a6.356,6.356,0,0,0,.043-1.673,1.279,1.279,0,0,1,.129-0.944,2.841,2.841,0,0,1,.687-0.172V18.449l-0.043-.043h0.086a0.989,0.989,0,0,0,.6-0.172,0.148,0.148,0,0,1-.086-0.043,1.138,1.138,0,0,0,.644-0.172c0.076,0.052.075,0,.129,0.043a1.067,1.067,0,0,1,.215.643c0.053,0.181.327,0.261,0.172,0.515a0.276,0.276,0,0,0-.043-0.171v0.343a0.543,0.543,0,0,1,.172.043v0.043a0.546,0.546,0,0,0-.172.043c0.051,0.114-.039.077,0.086,0.129a0.624,0.624,0,0,1,.3-0.043v0.472l-0.258.043a1.059,1.059,0,0,0-.086.386,1.307,1.307,0,0,0,.386,0,0.263,0.263,0,0,0,.086.086,0.879,0.879,0,0,0-.086.429H36.8v0.129h0.043V21.108a0.674,0.674,0,0,0,.215.043,3.673,3.673,0,0,0,.258-0.515,0.558,0.558,0,0,1-.3-0.043H36.973V19.95c0.178-.039.305-0.126,0.515-0.171V19.607a1.181,1.181,0,0,1,.344-0.043h0.043l-0.129.257a0.782,0.782,0,0,1,.386.043,1.941,1.941,0,0,1,.043.772H37.832v0.086a0.4,0.4,0,0,1,.129.429h0.258a17.062,17.062,0,0,1,.043-3c0.01,0,.851-0.151.644-0.257,0.144-.045.34,0.08,0.429-0.129a0.171,0.171,0,0,1,.086-0.043v0.043H39.377c-0.082.033,0.086,0.043,0.086,0.043,0.068-.052.191-0.075,0.258-0.129a0.148,0.148,0,0,1-.086-0.043l0.215-.043-0.043.086H39.85a0.558,0.558,0,0,1,.515-0.172,0.632,0.632,0,0,0,.172.3,0.3,0.3,0,0,0-.043.171l0.086-.043-0.043.129a0.473,0.473,0,0,0,.172.343,0.208,0.208,0,0,0-.129.043c0.165,0.111.006,0.19,0.172,0.3a0.452,0.452,0,0,1,.043-0.257c0.015,0.205.017,0.331,0.043,0.558a0.359,0.359,0,0,1,.215.043H40.837v0.129h0.215v0.043c-0.439.278-.316,1.222-0.3,1.93h0.172v0.129H41.4a7.66,7.66,0,0,0,.086-1.2H41.353a3.923,3.923,0,0,1,.129-0.729,4.194,4.194,0,0,1,.6.043V17.077a2.429,2.429,0,0,0-.043-0.9,0.359,0.359,0,0,1-.043.214V16.348c-0.13-.214.046-0.731-0.086-0.944v0.172a0.277,0.277,0,0,1-.172-0.043c0.139-.036.066,0.021,0.129-0.086a0.672,0.672,0,0,0-.215-0.043V15.49a0.147,0.147,0,0,1,.086.043H41.567c0-.136.051-0.1-0.129-0.129v0.043a0.208,0.208,0,0,1,.129.043,1.308,1.308,0,0,1-.3-0.043V15.318H41.31a1.557,1.557,0,0,0,.644.043V15.318a0.47,0.47,0,0,1-.129-0.086c0.139-.036.066,0.021,0.129-0.086a0.208,0.208,0,0,1-.129-0.043h0.129l-0.043-2.831a3.351,3.351,0,0,1,.043-1.2,1.535,1.535,0,0,0,.043.643V10.643A0.751,0.751,0,0,1,41.911,10h0.043v0.472Zm0,0.043V10.6H42A0.147,0.147,0,0,0,41.954,10.515Zm0.086,1.973v0.086h0.043A0.147,0.147,0,0,0,42.04,12.488Zm2.576,1.544a0.208,0.208,0,0,1-.129-0.043,0.373,0.373,0,0,0,.129-0.171v0.214Zm0.043,0h0.086v0.043H44.659V14.032Zm-0.73.043c0.074,0.038.055,0.038,0.129,0H43.929Zm0.3,0a0.155,0.155,0,0,0,.086.043A0.155,0.155,0,0,0,44.23,14.075Zm0.344,0a1.228,1.228,0,0,1,.086.214H44.53V14.246A0.289,0.289,0,0,0,44.573,14.075Zm-0.644.086c0.074,0.038.055,0.038,0.129,0H43.929Zm0,0.086c0.074,0.038.055,0.038,0.129,0H43.929Zm-1.417.686a0.155,0.155,0,0,1,.043.086H42.512V14.932Zm-0.472.214v0.086h0.344V15.147H42.04Zm0.429,0v0.086h0.472V15.147H42.469Zm0.515,0v0.086h0.3V15.147h-0.3Zm0.344,0v0.086h0.343V15.147H43.328Zm-1.288.129v0.086h0.344V15.275H42.04Zm0.429,0v0.086h0.472V15.275H42.469Zm0.515,0v0.086h0.3V15.275h-0.3Zm0.344,0v0.086h0.343V15.275H43.328ZM42.04,15.4a0.276,0.276,0,0,0,.043.172A0.276,0.276,0,0,0,42.04,15.4Zm1.932,0H43.843v0.129a0.207,0.207,0,0,1-.129-0.043c0.106-.056.029,0.018,0.086-0.086H43.457a2.775,2.775,0,0,1-.945,0,0.253,0.253,0,0,0,.086.172H42.469V15.4H42.426V15.49a6.207,6.207,0,0,0-.043,1.973h0.043a0.344,0.344,0,0,1,.258-0.386,0.423,0.423,0,0,1,.387.043,1.518,1.518,0,0,0,.129.429,0.358,0.358,0,0,1,.043-0.214,0.452,0.452,0,0,0,.043.257,3.418,3.418,0,0,1,.773-0.043V17.506a0.394,0.394,0,0,1-.3-0.386c-0.037-.059-0.005-1.112,0-1.415H43.8V15.661c0.167,0,.193.021,0.258-0.086a0.277,0.277,0,0,1-.172-0.043C44,15.47,43.935,15.542,43.972,15.4Zm-1.159.043H42.9V15.49A0.147,0.147,0,0,1,42.813,15.447Zm0.687,0h0.086V15.49A0.147,0.147,0,0,1,43.5,15.447Zm-0.859.043h0.086v0.043A0.147,0.147,0,0,1,42.641,15.49Zm-0.6.129V16h0.086V15.619H42.04Zm-11.422.343a2.187,2.187,0,0,0,.043.858A2.187,2.187,0,0,0,30.617,15.962Zm15.158,0.815a0.172,0.172,0,0,1,0,.215V16.777Zm-15.158.086a0.208,0.208,0,0,0,.043.129V16.862H30.617ZM45.6,16.948a0.208,0.208,0,0,1,.129.043A0.208,0.208,0,0,1,45.6,16.948Zm0.215,0.043a0.207,0.207,0,0,1,.129.043A0.208,0.208,0,0,1,45.819,16.991Zm0,0.257a0.278,0.278,0,0,1-.172-0.043h0.129a0.276,0.276,0,0,1,.043-0.172v0.214Zm-15.373.215a0.154,0.154,0,0,1,.043.086H30.446V17.463Zm12.067,0v0.086h0.043V17.463H42.512Zm1.46,0.129v0.3h0.086v-0.3H43.972Zm-4.509.086a0.208,0.208,0,0,1,.129.043A0.208,0.208,0,0,1,39.463,17.677Zm-0.258.086h0.086v0.043A0.147,0.147,0,0,1,39.206,17.763Zm-0.215.086h0.086v0.043A0.147,0.147,0,0,1,38.991,17.849Zm-8.417.043v0.215H30.66V17.892H30.574ZM42.34,17.977v0.558H42.77a0.665,0.665,0,0,1,.043-0.343v0.343H43.2V18.492a1.154,1.154,0,0,0-.687-0.472A0.291,0.291,0,0,0,42.34,17.977Zm0.9,0.043H42.813v0.043l0.429,0.386V18.02Zm0.043,0a0.277,0.277,0,0,0,.043.172A0.277,0.277,0,0,0,43.285,18.02Zm0.086,0v0.215a0.277,0.277,0,0,1,.172.043,0.277,0.277,0,0,0-.172.043l0.3,0.043,0.043-.343H43.371Zm3.264,0.086H46.72v0.043A0.147,0.147,0,0,1,46.635,18.106Zm-11.379.043h0.086v0.043A0.147,0.147,0,0,1,35.255,18.149Zm-0.3.086a0.207,0.207,0,0,1,.129.043A0.208,0.208,0,0,1,34.954,18.235Zm-0.129.043h0.086v0.043A0.147,0.147,0,0,1,34.826,18.278Zm5.8,0h0.086v0.043A0.147,0.147,0,0,1,40.623,18.278Zm-6.012.086H34.7v0.043A0.147,0.147,0,0,1,34.611,18.363Zm8.76,0.043v0.129h0.3V18.406h-0.3Zm-1.031.214q0.021,0.536.043,1.072h0.859V19.264H43.07V19.178a0.677,0.677,0,0,1-.043-0.343h0.215V18.621h-0.9Zm0.945,0a1.275,1.275,0,0,0,.043.558A1.277,1.277,0,0,0,43.285,18.621Zm0.086,0v0.257l0.3-.043,0.043-.214H43.371Zm2.1,0c0.069,0.169.238,0.142,0.472,0.129V18.707a0.262,0.262,0,0,1-.086-0.086H45.475Zm-4.809.214a0.278,0.278,0,0,0,.043.172A0.277,0.277,0,0,0,40.666,18.835Zm2.877,0.043v0.129h0.129V18.878H43.543Zm-0.172.043c0.074,0.038.055,0.038,0.129,0H43.371Zm0,0.086a0.252,0.252,0,0,1,0,.172,0.219,0.219,0,0,0,.129.043V19.007H43.371Zm0.3,0.043c-0.139.035-.066-0.021-0.129,0.086a0.263,0.263,0,0,0,.172.086V19.178A0.219,0.219,0,0,1,43.672,19.05Zm-2.92.043a0.207,0.207,0,0,0,.043.129A0.207,0.207,0,0,0,40.752,19.093Zm-10.692.086L30.1,19.307h0.086V19.264Zm10.692,0.086v0.172h0.043V19.393a0.155,0.155,0,0,0,.043-0.086Zm2.533,0v0.429h0.086V19.479C43.341,19.435,43.316,19.307,43.285,19.264Zm-2.619.043v0.086h0.043V19.307H40.666Zm-10.692.172a0.278,0.278,0,0,0,.172-0.043,0.576,0.576,0,0,1-.172-0.086v0.129Zm0.215-.129a0.155,0.155,0,0,0,.086.043A0.155,0.155,0,0,0,30.188,19.35Zm13.355,0a1.189,1.189,0,0,1,.043.343h0.129V19.65a0.466,0.466,0,0,1,0-.3H43.543Zm1.975,0v0.129h0.215V19.35H45.518Zm0.3,0.129a0.208,0.208,0,0,0,.129-0.043A0.155,0.155,0,0,1,45.9,19.35H45.819v0.129Zm-2.4-.086c0.023,0.1.019,0.119,0.043,0.257H43.5V19.393H43.414Zm-13.441.129v0.086a0.542,0.542,0,0,0,.172-0.043V19.521H29.973Zm0.773,0c-0.139.036-.066-0.021-0.129,0.086H30.7V19.65h0.043V19.521Zm9.92,0.129a1.535,1.535,0,0,0,.043.643A1.535,1.535,0,0,0,40.666,19.65Zm5.539,0.257h0.172V19.865a0.626,0.626,0,0,1-.172-0.172v0.214Zm-3.693.129a1.066,1.066,0,0,0,.687,0H42.512Zm0.773,0c0.074,0.038.055,0.038,0.129,0H43.285Zm0.344,0a0.155,0.155,0,0,0,.086.043A0.155,0.155,0,0,0,43.629,20.036Zm-2.1,1.115c0.139,0.036.066-.021,0.129,0.086,0,0.153.068,0.185,0.43,0.172v-1.2l-0.558-.086v1.029Zm0.816-.944v1.158c0.139-.035.066,0.021,0.129-0.086,0,0-.168-0.008-0.086-0.043h0.086a0.588,0.588,0,0,1,.3-0.043,0.168,0.168,0,0,0,.129.172V21.323c0.1-.1.124-0.274,0.215-0.386,0.049,0.076.077,0.011,0.3,0V20.722a0.454,0.454,0,0,1-.258-0.043H43.5a2.5,2.5,0,0,1,.215-0.472H42.34Zm-1.675.129a2.187,2.187,0,0,0,.043.858A2.187,2.187,0,0,0,40.666,20.336Zm-4.38.214c-0.014.059,0.061,0.062,0.086,0.086C36.4,20.591,36.3,20.564,36.286,20.551ZM36.5,20.722a0.289,0.289,0,0,1-.172.043,1.582,1.582,0,0,0-.043.472h0.086a0.5,0.5,0,0,1,.129-0.086c-0.072-.127-0.044,0-0.043-0.171h0.086s0.008,0.168.043,0.086V20.98A0.223,0.223,0,0,0,36.5,20.722Zm-12.925.172a0.125,0.125,0,0,0,.172,0H23.575ZM27.7,21.066a0.359,0.359,0,0,1,.215.043A0.36,0.36,0,0,1,27.7,21.066Zm15.76,0.343V21.066H43.113l-0.172.343h0.515Zm0.129-.3v0.086h0.043V21.108H43.586ZM28,21.151a0.206,0.206,0,0,0,.043.129V21.151H28ZM46.033,21.28c-0.356.314-.41,0.124-0.386,0.858h0.086a1.379,1.379,0,0,0,.386.086V21.28H46.033Zm-21.256.043a1.534,1.534,0,0,0,.043.643A1.534,1.534,0,0,0,24.777,21.323Zm0.9,0v0.172h0.258V21.323H25.679Zm0.429,0.086a0.155,0.155,0,0,0,.086.043A0.154,0.154,0,0,0,26.108,21.409Zm0.344,0v0.086h0.043A0.147,0.147,0,0,0,26.452,21.409Zm0.343,0v0.086h0.043A0.147,0.147,0,0,0,26.8,21.409Zm0.343,0v0.086h0.043A0.147,0.147,0,0,0,27.139,21.409ZM43.2,21.452V21.58h0.258V21.452H43.2Zm-11.723.558a1.686,1.686,0,0,0,.043.515H31.6c-0.008-.2-0.048-0.245.043-0.3a1.041,1.041,0,0,1,.472-0.043c0.036,0.139-.021.066,0.086,0.129V22.181a5.853,5.853,0,0,1,.687,0,0.262,0.262,0,0,1,.086-0.086V21.752h0.3a0.524,0.524,0,0,1,.172-0.172V21.537H33.366A8.826,8.826,0,0,1,31.476,22.009Zm-6.613,0H24.348v0.3H23.36v0.257H23.7V22.438H23.79a1.236,1.236,0,0,1,.73-0.043,3.946,3.946,0,0,1,.6-0.6,0.29,0.29,0,0,1-.258-0.172v0.386ZM43.2,21.623v0.129h0.258V21.623H43.2Zm-6.871.043v0.257h0.043V21.838C36.43,21.734,36.432,21.731,36.329,21.666Zm0.129,0v0.3a0.717,0.717,0,0,1,.429.129v-0.3H36.93V21.752Zm-10.735.558c0.074,0.038.055,0.038,0.129,0H25.722Zm0.859,0c0.074,0.038.055,0.038,0.129,0H26.581Zm0.945,0a0.173,0.173,0,0,0,.215,0H27.526Zm0.258,0a0.227,0.227,0,0,0,.258,0H27.783Zm0.344,0a0.155,0.155,0,0,0,.086.043A0.155,0.155,0,0,0,28.127,22.224Zm26.581,0a1.664,1.664,0,0,0,.043.686A1.664,1.664,0,0,0,54.708,22.224Zm-51.616.043a0.155,0.155,0,0,0,.086.043A0.154,0.154,0,0,0,3.092,22.266Zm45.346,0a0.125,0.125,0,0,1,0,.171V22.266Zm31.218,0.171a0.155,0.155,0,0,1,.043.086H79.657V22.438Zm-47.45.043v0.086C32.275,22.516,32.259,22.549,32.206,22.481Zm-0.429.043a0.289,0.289,0,0,0,.3,0h-0.3Zm16.7,0V22.61h0.086V22.524H48.481Zm31.133,0a0.154,0.154,0,0,1,.043.086H79.614V22.524Zm-0.043.086a0.155,0.155,0,0,1,.043.086H79.571V22.61Zm-48.782.043a1.8,1.8,0,0,0,.043.729,0.617,0.617,0,0,1,.043-0.214H31V22.652H30.789Zm34.01,0h0.086V22.7A0.148,0.148,0,0,1,64.8,22.652Zm11.508,0.086h0.086v0.043A0.147,0.147,0,0,1,76.307,22.738Zm1.846,0a0.208,0.208,0,0,1,.129.043H78.154V22.738Zm-0.086.043h0.086a0.121,0.121,0,0,1-.043.043v0.043A0.154,0.154,0,0,1,78.068,22.781Zm-13.054.043a0.219,0.219,0,0,1,.043.129H65.013V22.824Zm7.171,0a0.155,0.155,0,0,0,.086.043A0.155,0.155,0,0,0,72.185,22.824Zm-6.742.043c0.015,0.013.086,0.022,0.043,0.086C65.438,22.932,65.352,22.876,65.443,22.867Zm0.3,0h0.086a0.122,0.122,0,0,1-.043.043C65.757,22.915,65.7,22.912,65.743,22.867Zm3.736,0.043c-0.05.169-.081,0.076,0.086,0.172V23C69.528,22.964,69.517,22.942,69.479,22.91Zm-50.971.429h0.258a0.672,0.672,0,0,0,.043-0.214,0.154,0.154,0,0,1-.043-0.086,0.285,0.285,0,0,0-.215,0H18.508A1.488,1.488,0,0,1,18.508,23.339ZM65.529,23h0.086v0.043A0.148,0.148,0,0,1,65.529,23Zm-0.086.043h0.086a0.122,0.122,0,0,1-.043.043v0.043A0.154,0.154,0,0,1,65.443,23.038Zm6.012,0.214a0.207,0.207,0,0,0-.043-0.129,0.154,0.154,0,0,0-.086-0.043,3.364,3.364,0,0,0-.386,0v0.043h0.086A0.435,0.435,0,0,0,71.455,23.253Zm0.43-.214a0.359,0.359,0,0,0-.215.043,0.271,0.271,0,0,1,.215.086V23.038Zm-68.535.043-0.043.129H3.349V23.167C3.4,23.1,3.377,23.145,3.349,23.081Zm0.129,0-0.043.129H3.478c0.048-.071,0-0.026.086,0V23.081H3.478Zm61.879,0a0.155,0.155,0,0,1,.043.086H65.357V23.081Zm5.239,0c0,0.1-.009.03,0.086,0.043V23.081H70.6Zm5.668,0v0.086h0.043A0.147,0.147,0,0,0,76.264,23.081ZM3.65,23.124c0,0.072.113,0.169,0.215,0H3.65Zm14.557,0a0.558,0.558,0,0,1,0,.214h0.215V23.253A0.3,0.3,0,0,0,18.207,23.124Zm52.9,0H71.2v0.043A0.147,0.147,0,0,1,71.111,23.124Zm5.024,0a0.155,0.155,0,0,0,.086.043A0.155,0.155,0,0,0,76.135,23.124Zm-4.938.043h0.086V23.21A0.147,0.147,0,0,1,71.2,23.167Zm2.362,0a0.154,0.154,0,0,0,.086.043A0.155,0.155,0,0,0,73.559,23.167Zm-6.012.043c0.017,0.112-.032.056,0.086,0.086V23.21H67.547Zm-65.615.043v0.086c0.128-.026.248,0.031,0.3-0.086H2.147A0.469,0.469,0,0,1,1.932,23.253Zm0.386,0a0.313,0.313,0,0,0,.344.086,0.155,0.155,0,0,0,.043-0.086H2.491A0.239,0.239,0,0,1,2.319,23.253Zm0.73,0.129V23.253H3.006V23.3c-0.144-.044-0.21-0.066-0.258.043H2.791A0.466,0.466,0,0,0,3.049,23.382Zm0.043-.129c0.036,0.139-.021.066,0.086,0.129V23.339C3.14,23.307,3.129,23.285,3.092,23.253Zm0.086,0a0.155,0.155,0,0,0,.086.043A0.155,0.155,0,0,0,3.178,23.253Zm0.129,0a0.155,0.155,0,0,0,.086.043A0.155,0.155,0,0,0,3.306,23.253Zm0.386,0c0.074,0.038.055,0.038,0.129,0H3.693Zm0.6,0.129V23.253H4.251V23.3a0.787,0.787,0,0,0-.258-0.043V23.3c0.071,0.048.026,0,0,.086h0.3Zm0.215,0a0.207,0.207,0,0,0-.043-0.129c-0.081.037-.032,0.02-0.129,0V23.3C4.414,23.353,4.317,23.366,4.509,23.382Zm0.558-.129a0.155,0.155,0,0,1,.043.086H5.067V23.253Zm12.925,0v0.086h0.086V23.253H17.993Zm42.34,0.129a0.208,0.208,0,0,0,.129-0.043l-0.129-.086v0.129Zm4.638-.129v0.086h0.043A0.147,0.147,0,0,0,64.971,23.253ZM46.248,23.3v0.086h0.3V23.3h-0.3Zm8.46,0-0.043.086C54.739,23.322,54.708,23.3,54.708,23.3Zm-51.186.043a0.289,0.289,0,0,0,.3,0h-0.3Zm-2.748.043a1.664,1.664,0,0,0,.043.686A1.664,1.664,0,0,0,.773,23.382Zm1.074,0.3V23.51H2.362V23.467a1.193,1.193,0,0,0-.644-0.086c-0.081.037-.032,0.02-0.129,0v0.386c0.037,0.081.02,0.032,0,.129a0.575,0.575,0,0,1,.172.086V23.939A0.171,0.171,0,0,1,1.846,23.9a1.176,1.176,0,0,0,.515.043,0.143,0.143,0,0,1,0-.129c0.094,0.078.057,0.132,0.172,0.086H2.576V23.853a0.745,0.745,0,0,0-.3-0.172,0.144,0.144,0,0,1,0,.129A0.582,0.582,0,0,0,1.846,23.682Zm11.809-.257H12.84a1.237,1.237,0,0,0-.043.386,0.332,0.332,0,0,0,.129.129c0.076-.032.42,0.081,0.687,0.086A2.118,2.118,0,0,0,13.655,23.424Zm-12.367.043v0.086H1.331A0.147,0.147,0,0,0,1.288,23.467Zm1.159,0c0.074,0.038.055,0.038,0.129,0H2.448Zm9.232,0a0.235,0.235,0,0,1,.043.257H11.68V23.467ZM0.687,23.51V23.6H0.73A0.147,0.147,0,0,0,.687,23.51Zm0.215,0a0.154,0.154,0,0,1,.043.086H0.9V23.51Zm11.208,0a0.218,0.218,0,0,1,.043.129H12.11V23.51Zm0.773,0h0.086v0.043H12.882V23.51Zm1.46,0.043a0.155,0.155,0,0,1,.043.086H14.343V23.553ZM3.349,23.6a0.207,0.207,0,0,0,.043.129A0.208,0.208,0,0,0,3.349,23.6Zm0.816,0a0.2,0.2,0,0,0,.215.086V23.6H4.165Zm0.344,0v0.086H4.552V23.6H4.509Zm0.129,0a0.207,0.207,0,0,0,.043.129V23.639L4.724,23.6H4.638Zm0.215,0v0.086H4.9A0.147,0.147,0,0,0,4.852,23.6Zm0.086,0v0.086H4.981V23.6H4.938Zm0.344,0v0.086H5.325A0.147,0.147,0,0,0,5.282,23.6Zm0.172,0a0.172,0.172,0,0,0,.172.086V23.6H5.454Zm0.429,0v0.086A1.079,1.079,0,0,0,6.1,23.6H5.883Zm0.472,0a0.126,0.126,0,0,0,.172,0H6.355Zm0.386,0a0.126,0.126,0,0,0,.172,0H6.742Zm0.429,0a0.839,0.839,0,0,0,.172.086V23.6H7.171Zm0.6,0H7.6v0.043a0.371,0.371,0,0,1,.043.215H7.729Zm0.344,0a0.452,0.452,0,0,0,.043.257L8.2,23.6H8.116Zm0.344,0a0.24,0.24,0,0,0,.129.257L8.631,23.6H8.459Zm0.429,0L8.932,23.81H9.018L9.061,23.6H8.889Zm0.429,0,0.043,0.172H9.447A0.543,0.543,0,0,1,9.49,23.6H9.318Zm0.215,0L9.49,23.81H9.576V23.6H9.533Zm0.344,0c-0.139.035-.066-0.021-0.129,0.086l0.129,0.043V23.6Zm0.086,0-0.043.172h0.086A0.277,0.277,0,0,0,9.962,23.6Zm0.215,0c0.074,0.038.055,0.038,0.129,0H10.177Zm0.215,0-0.043.129h0.043V23.682C10.445,23.615,10.419,23.66,10.392,23.6Zm0.086,0v0.086h0.129V23.639Zm0.3,0a0.155,0.155,0,0,0,.086.043A0.155,0.155,0,0,0,10.778,23.6Zm2.233,0H13.1v0.043H13.011V23.6Zm-4.981.043v0.086H8.073V23.639H8.03Zm0.644,0-0.043.3H8.717A0.555,0.555,0,0,0,8.674,23.639Zm0.429,0L9.061,23.9H9.1V23.853A0.172,0.172,0,0,0,9.1,23.639Zm0.129,0v0.215H9.318V23.768C9.289,23.734,9.262,23.672,9.232,23.639Zm0.429,0V23.81H9.748V23.725C9.71,23.693,9.7,23.671,9.662,23.639Zm-7,.043L2.705,23.81H2.748A0.163,0.163,0,0,0,2.662,23.682Zm5.153,0v0.086H7.858V23.682H7.815Zm0.129,0a0.452,0.452,0,0,0,.043.257A0.452,0.452,0,0,0,7.944,23.682Zm0.3,0a0.207,0.207,0,0,0,.043.129V23.682H8.245Zm0.129,0v0.086H8.417A0.147,0.147,0,0,0,8.374,23.682Zm0.429,0V23.9H8.889V23.81C8.86,23.777,8.833,23.715,8.8,23.682Zm4.337,0h0.172v0.043H13.269C13.177,23.745,13.225,23.765,13.14,23.682Zm-0.043.086h0.086V23.81H13.1V23.768Zm-7.858.043a0.155,0.155,0,0,0,.086.043A0.155,0.155,0,0,0,5.239,23.81Zm0.429,0v0.043H5.625C5.543,23.887,5.711,23.9,5.711,23.9v0.043H5.754V23.81H5.668Zm0.129,0c0.036,0.139-.021.066,0.086,0.129V23.81H5.8Zm1.546,0c0.036,0.139-.021.066,0.086,0.129A0.163,0.163,0,0,0,7.343,23.81Zm-4.681.043a0.5,0.5,0,0,0,.129.086V23.853H2.662Zm3.392,0a0.155,0.155,0,0,0,.086.043A0.154,0.154,0,0,0,6.055,23.853Zm0.429,0a0.155,0.155,0,0,0,.086.043A0.154,0.154,0,0,0,6.484,23.853Zm0.172,0v0.086H6.742V23.853H6.656Zm0.258,0v0.086H7V23.853H6.914Zm0.172,0v0.086H7.171V23.853H7.085Zm0.472,0V23.9H7.515C7.432,23.929,7.6,23.939,7.6,23.939A0.147,0.147,0,0,0,7.558,23.853Zm5.411,0h0.086V23.9H12.968V23.853Zm-8.03.043a0.155,0.155,0,0,0,.086.043A0.154,0.154,0,0,0,4.938,23.9Zm3.435,0a0.155,0.155,0,0,0,.086.043A0.154,0.154,0,0,0,8.374,23.9Zm9.4,0.043c0.074,0.038.055,0.038,0.129,0H17.778Zm-13.741.043,0.043,0.129H4.122V23.982H4.037Zm0.129,0v0.129h0.3V23.982h-0.3Zm0.344,0c0.036,0.139-.021.066,0.086,0.129,0.11-.1.041-0.023,0.258,0V23.982A2.26,2.26,0,0,1,4.509,23.982Zm0.386,0v0.129H5.067V23.982H4.9Zm0.386,0c0.036,0.139-.021.066,0.086,0.129V23.982H5.282Zm0.429,0c0.036,0.139-.021.066,0.086,0.129V23.982H5.711Zm0.6,0c0.036,0.139-.021.066,0.086,0.129V23.982H6.312Zm0.258,0v0.129H6.785l0.043-.129H6.57Zm2.1,0.129V23.982H8.417v0.043a0.262,0.262,0,0,1,.086.086H8.674Zm0.988-.086v0.086H9.7V24.025H9.662Zm0.859,0v0.086h0.043V24.025H10.521Zm0.258,0v0.086h0.086V24.025H10.778Zm4.852,0v0.086h0.043A0.146,0.146,0,0,0,15.631,24.025Zm2.061,0a0.208,0.208,0,0,0,.043.129V24.025H17.692Zm-4.852.043a0.155,0.155,0,0,0,.086.043A0.155,0.155,0,0,0,12.84,24.068Zm0.258,0c0.074,0.038.055,0.038,0.129,0H13.1ZM3.779,27.542a0.75,0.75,0,0,0-.258.214,0.371,0.371,0,0,0-.043.215H3.564c0.018-.154-0.02-0.108.086-0.172C3.737,27.744,3.942,27.762,3.779,27.542Zm74.2,1.244c0,0.116-.057.069,0.086,0.129V28.786H77.982Zm0.129,0,0.043,0.129H78.2V28.871h0.043V28.828H78.2A0.155,0.155,0,0,0,78.111,28.786Z" transform="translate(0 0.5)"/>
</svg>
