<svg xmlns="http://www.w3.org/2000/svg" width="80" height="40" viewBox="0 0 80 40">
  <defs>
    <style>
      .cls-1 {
        fill: #fff;
        fill-rule: evenodd;
      }
    </style>
  </defs>
  <path id="Color_Fill_1" data-name="Color Fill 1" class="cls-1" d="M25.119,21.775a2.9,2.9,0,0,0,.663,0,2.784,2.784,0,0,0,.19-0.569V21.111h0.853V20.732h0.19a0.537,0.537,0,0,0,.379.569,0.858,0.858,0,0,0,0,.663,3.593,3.593,0,0,1,1.517.19l-0.095.189a2.375,2.375,0,0,1-.758.095,1.255,1.255,0,0,0-.663-0.095V23.2h0.758a2.748,2.748,0,0,1,1.611-1.043L29.858,23.1H29.763V23.2a0.325,0.325,0,0,1-.19-0.095c-0.074-.113-0.113-0.456-0.19-0.569a7.43,7.43,0,0,1-1.8,1.327,1.707,1.707,0,0,1,.284,1.327,1.429,1.429,0,0,1-.379.19,1.8,1.8,0,0,0-.095-1.043v1.706a3.338,3.338,0,0,1,1.327,0V25.755h0.474a0.459,0.459,0,0,0,.095.284,2.851,2.851,0,0,0,1.137,0c-0.044-.832.117-0.991,0.948-0.948,0.3,0.323,1.344.14,1.8,0.284V25.092h0.474a0.691,0.691,0,0,0,.853.379,0.484,0.484,0,0,0,.095-0.284H34.218L34.123,24.9H34.5a3.282,3.282,0,0,1,1.232,0v0.189a2.966,2.966,0,0,0-.948.095l0.095,0.474a5.166,5.166,0,0,1,1.232.284c0.621,0.077,2.233.091,3.412,0.095V25.755a0.561,0.561,0,0,1,.379.19c-0.016-.728.217-0.88,0.948-0.853,0.454,0.507,1.836.057,2.37,0,0.1,0.371.108,0.364,0.569,0.379,0.148,0.118.048,0.061,0.19,0a0.341,0.341,0,0,0,.095-0.19A0.51,0.51,0,0,1,43.7,24.9a10.872,10.872,0,0,1,1.517,0V25h0.095v0.095a3.346,3.346,0,0,0-1.043.095,1.676,1.676,0,0,0,.19.379c0.859,0.551,3.337.479,4.739,0.474-0.078.308,0.047,0.145-.19,0.284-0.389-.249-3.3.024-3.507,0.379A33.971,33.971,0,0,0,49,26.8a1.6,1.6,0,0,1,.474-0.569,0.794,0.794,0,0,1-.19-0.284,0.324,0.324,0,0,0,.19-0.095,0.325,0.325,0,0,1-.19-0.095,0.325,0.325,0,0,0,.19-0.095c-0.7-.2-0.614-0.9-0.569-1.8a0.927,0.927,0,0,0,.569-0.474,19.134,19.134,0,0,1,.095-3.506,3.316,3.316,0,0,1,.284-0.284,5.326,5.326,0,0,0,1.043.095,0.578,0.578,0,0,0,.19.19,22.057,22.057,0,0,0,0,3.127h0.474a8.089,8.089,0,0,1,.095-1.137h0.379a1.125,1.125,0,0,0,.284,1.137V23.1h0.095V22.722a14.184,14.184,0,0,0,.095-2.938,3.119,3.119,0,0,1,.948-0.095V19.311h0.19c0.052,0.487.181,0.3,0.379,0.569,0.015,0.394-.216,2.162.095,2.654a11.025,11.025,0,0,1,.664-2.654c0.292-.964.316-1.948,0.663-2.843a5.062,5.062,0,0,1-.948-0.853,66.2,66.2,0,0,1,.948-7.961c0.163-.717.089-2.769,0.379-3.222-0.007,1.048.418,1.151,0.663,1.8H56.4a1.508,1.508,0,0,0-.474-0.474V6.9c0.448,0.738.349,3.365,0.569,4.454,0.15,0.74.217,2.551,0.379,3.412a3.641,3.641,0,0,1,.19,1.611,6.426,6.426,0,0,1-.569.663,4.072,4.072,0,0,0,0,1.9c-0.335.74,0.124,0.447,0,.853H56.3V21.4a2.448,2.448,0,0,1,1.232,0c-0.012-.409-0.135-0.333.095-0.474,0.123-.234-0.041-0.065.19-0.19a1.226,1.226,0,0,0,.095.663c0.163-.083.121-0.084,0.284,0H58.1a3.347,3.347,0,0,1-1.8.095c0.038,0.329.01,0.131,0.19,0.284,0.148,0.126-.19.095-0.19,0.095v0.948c0.37,0,.426.047,0.569-0.19a0.324,0.324,0,0,1-.19-0.095c0.234-.123.065,0.041,0.19-0.19-0.241-.138-0.107.021-0.19-0.284h0.095a0.909,0.909,0,0,0,.569.379v0.095H57.251c-0.14.187-.135-0.053-0.19,0.284a5.723,5.723,0,0,0,1.422-.284V23.48a1.6,1.6,0,0,0-1.137,1.232,2.3,2.3,0,0,1,.095,1.043,1.726,1.726,0,0,0,.853-0.095H57.63a6.426,6.426,0,0,1,.19-1.611,9.426,9.426,0,0,1,1.517.284,0.325,0.325,0,0,1,.095-0.19,0.325,0.325,0,0,0-.095-0.19c-0.153-.244-0.322-0.134-0.474-0.379a3.683,3.683,0,0,1,1.517.095H59.716a0.99,0.99,0,0,0,0,.569v0.095a1.041,1.041,0,0,1,.663,0V24.049c0.719,0.048.607,0.4,1.327,0.474l0.095-.284a0.654,0.654,0,0,1-.474-0.284,3.12,3.12,0,0,1,.948-0.095c0.154,0.1.605,0.091,0.758,0.189a4.75,4.75,0,0,0-1.043.095v0.19a0.483,0.483,0,0,1,.095.284,8.125,8.125,0,0,1,1.8.379h3.033v0.284c-1.263-.029-3.092-0.2-3.791.379l1.516,0.095a1.2,1.2,0,0,1,.474-0.284,0.711,0.711,0,0,0,1.137,0c0.589,0.321,1.447.037,1.99,0.379a0.832,0.832,0,0,0-.853.19,5.408,5.408,0,0,1,1.99.19V26.134H69.289c-0.182-.073.19-0.095,0.19-0.095a0.545,0.545,0,0,0,.569.19V25.944a0.317,0.317,0,0,0,.284,0V25.85a0.459,0.459,0,0,1-.284-0.095h0.284l0.095-.474h0.095V25.186h0.284v0.569h1.706A1.471,1.471,0,0,1,72.607,25a1.342,1.342,0,0,0,.19,1.137,10.267,10.267,0,0,1,2.844-.19,1.165,1.165,0,0,0,.474.284c0.106-.272.017-0.175,0.284-0.284l-0.095.284h0.379V25.944a0.459,0.459,0,0,1,.284.095,0.343,0.343,0,0,0-.095.19h0.379c0-.3-0.161-0.128.095-0.284,0.045,0.1.018,0.339,0.189,0.284,0.032-.01.078-0.256,0.19-0.19,0.045,0.1-.093.226,0.095,0.19,0.006,0,.107-0.268.19-0.19,0.166,0.159.018,0.174,0.379,0.19-0.008-.5-0.236-2.163.095-2.654v2.748c-0.075.209-.408,0.534-0.474,0.758-0.443,1.5,1.331,3.953,1.99,4.454v0.095H79.81c-0.79.685-2.837,0.656-4.076,0.948-2.534.6-5.421,0.362-8.057,0.948l-2.844.095c-1.165.256-2.853-.019-3.886,0.19a20.534,20.534,0,0,1-3.507.095h-34.6a29.266,29.266,0,0,1-6.161-.379l-3.128-.19c-1.4-.312-3.164-0.6-4.265-0.095C9.225,32.661,9,32.636,8.341,32.673v0.095c0.624-.03.812-0.012,0.853,0.569a0.342,0.342,0,0,0-.095.19H6.919a0.268,0.268,0,0,0-.095-0.095,2.6,2.6,0,0,1,.095-0.853H6.066a3.721,3.721,0,0,0-1.517-.095v0.19a3.971,3.971,0,0,1,1.611.095,1.026,1.026,0,0,1,.095.569,0.342,0.342,0,0,0-.095.19H2.844a0.342,0.342,0,0,0-.19-0.095,4.552,4.552,0,0,1-.284-2.18,1.053,1.053,0,0,1,.758-0.284,4.7,4.7,0,0,0,1.327.284V31.062H4.55c0.094-.1-0.093-0.094-0.095-0.095C3.5,30.386,2.118,30.736,1.517,29.83c-0.206-.311.037-0.863-0.19-1.232-0.2-.33-0.349.1-0.379-0.663H1.422l-0.095-.474a5.633,5.633,0,0,0,1.043-.474,0.612,0.612,0,0,0,.095.379V27.271c0.065-.073.124-0.211,0.19-0.284v0.095c0.065,0.073.124,0.211,0.19,0.284,0.231-.381.35-0.261,0.853-0.189V26.892c-0.489.039-1.093,0-1.8,0v0.284H1.517V26.8c0.522-.027,1.4,0,2.18,0V25.944a0.459,0.459,0,0,1,.284.095,0.684,0.684,0,0,0-.19.758H4.171a4.108,4.108,0,0,1,0-.758,0.483,0.483,0,0,1,.474-0.284V25.85a0.36,0.36,0,0,0-.284.19H4.645s0.041-.376.095-0.19v0.095a1.027,1.027,0,0,1,.095.569H4.739a0.563,0.563,0,0,0-.474-0.379v0.379a0.992,0.992,0,0,0,.569.189c0.009,0,2.049-.072,2.749-0.095V26.513a0.379,0.379,0,0,1-.19-0.379,2.558,2.558,0,0,0,.284-0.379c0.24,0.358,1.056.068,1.422,0.284a3.109,3.109,0,0,0-1.327.095,0.82,0.82,0,0,0-.095.474h0.19a0.821,0.821,0,0,1,.474-0.095c0,0.357.171,0.331,0.758,0.284a1.227,1.227,0,0,1,.095-0.663V26.8a6.63,6.63,0,0,0,1.706-.19c0.06-.016,1.191.189,1.611,0.19,0.628,0,1.371.12,1.611-.284H13.744c-0.4-.358-2.858-0.34-3.318-0.19V26.039c1.109,0.032,4.385-.021,4.739-0.569a0.639,0.639,0,0,0,.095-0.379H14.313V24.9c0.637-.033,1.362-0.253,1.611.189H15.829c-0.241.224-.269,0.018-0.379,0.284a0.582,0.582,0,0,0,.379.19,0.82,0.82,0,0,1,.474-0.095,0.459,0.459,0,0,1,.095-0.284,0.82,0.82,0,0,1,.474-0.095,0.459,0.459,0,0,0,.095.284,1.255,1.255,0,0,1,.663-0.095L17.725,25a0.484,0.484,0,0,1-.095-0.284,1.227,1.227,0,0,1-.663-0.095,2.228,2.228,0,0,1,1.517.095H18.389a0.82,0.82,0,0,1-.474.095v0.474c0.7-.007.822-0.173,1.517-0.189a0.413,0.413,0,0,0,.284.284,2.825,2.825,0,0,0,.095,1.232V25.85h0.284a11.836,11.836,0,0,0-.095-1.8h0.19a1.3,1.3,0,0,1,.379.095,1.435,1.435,0,0,1,.19-0.569,0.324,0.324,0,0,1,.19.095,4.371,4.371,0,0,1,.189,2.18,1.2,1.2,0,0,1,.379.095c-0.065.236-.224,0.176-0.095,0.284v0.095a1.3,1.3,0,0,1,.853,0V26.039a0.325,0.325,0,0,1-.19-0.095,0.613,0.613,0,0,0,.379-0.095,1.259,1.259,0,0,1-.379-1.327,0.9,0.9,0,0,0,.379-1.043l-0.853-.095L21.517,23.2h0.569a0.529,0.529,0,0,0,.379,0c-0.043-2.166.6-3.026,0.948-4.739,0.106-.52-0.7-1.254-0.379-1.8a10.044,10.044,0,0,0,.474,1.706c0.083-.07.107-0.119,0.19-0.189v0.284a8.732,8.732,0,0,0-.948,2.654h0.095a1.2,1.2,0,0,1,1.043.19,6.957,6.957,0,0,1,.095,1.9H24.36c0.032-1.829-.618-2.667-0.758-4.17H23.7A5.542,5.542,0,0,0,24.36,21.3V18.363a1.031,1.031,0,0,1-.379-0.474,3.33,3.33,0,0,0-.284.284V17.889a0.343,0.343,0,0,0,.095-0.19H23.7v0.19c-0.065.073-.124,0.212-0.19,0.284a23.763,23.763,0,0,1,.474-3.886l0.095-1.99c0.214-.934.222-2.066,0.474-3.127,0.207-.874.129-3.622,0.474-4.17,0.009,4.311,1.349,8.256,1.422,12.6C25.008,18.522,25.077,19.428,25.119,21.775ZM28.152,5.758H44.36c1.908,0,5.105-.41,6.256.474C45.349,6.652,39,6.516,33.27,6.516c-1.739,0-5.523.337-6.54-.379h0.189C27.249,5.927,27.84,5.983,28.152,5.758Zm-0.379.284a3.3,3.3,0,0,0,1.327.095c0.854,0,3.76.232,4.265-.095H27.773Zm5.687,0c0.478,0.3,2.913.095,3.7,0.095h9c0.741,0,2.959.189,3.412-.095H33.46ZM25.5,6.137a2.267,2.267,0,0,1,1.043.095A2.267,2.267,0,0,1,25.5,6.137Zm25.4,0c0.886-.013,4.025-0.239,4.55.095C54.564,6.245,51.425,6.471,50.9,6.137Zm-23.033.095c0.591,0.368,3.953.095,4.929,0.095H44.929c0.918,0,3.992.253,4.55-.095H27.867Zm-3.223.284c0.118,0.149.061,0.048,0,.19a0.842,0.842,0,0,1-.284.284A1.554,1.554,0,0,1,24.645,6.516ZM56.777,6.99a0.513,0.513,0,0,1,.379.284h0.095V7.369A0.713,0.713,0,0,1,56.777,6.99Zm-32.8.19c0.234,0.123.065-.041,0.19,0.19-0.461.327-.6,0.989-1.043,1.327-1.92,1.466-3.569,3.189-5.5,4.644-0.862.65-1.438,1.566-2.654,1.9V15.141A6,6,0,0,0,15.735,14a6.008,6.008,0,0,1,1.043-.758c0.781-.589,1.4-1.5,2.18-2.085,1.126-.851,2.1-1.8,3.223-2.654l0.569-.663A11.107,11.107,0,0,0,23.981,7.18Zm1.043,0c-0.013,1.273-.268,3.186.095,4.265a1.235,1.235,0,0,1,.474,0V10.781C25.033,9.852,25.616,8.074,25.024,7.18Zm30.616,0a18.415,18.415,0,0,1-.474,3.7l-0.095,1.706c-0.12.547-.472,1.988-0.19,2.464a18.5,18.5,0,0,1,.853-3.6V9.359A6.014,6.014,0,0,0,55.64,7.18Zm0.19,4.265a1.965,1.965,0,0,1,.569,0V10.971c-0.506-.84-0.047-2.885-0.569-3.7v4.17Zm-31-4.075c0.006,2.445-.7,4.683-0.758,7.2h0.19c0.13-1.752.663-2.923,0.663-5.118A5.708,5.708,0,0,0,24.834,7.369ZM57.346,7.464a0.713,0.713,0,0,1,.474.379h0.095V7.938A0.946,0.946,0,0,1,57.346,7.464Zm-34.123.284a12.2,12.2,0,0,1-2.559,2.18c-1.049.792-1.89,1.957-2.938,2.748a6.621,6.621,0,0,0-1.991,1.8h0.095a1.208,1.208,0,0,1,.663-0.569V14a1.884,1.884,0,0,0-.569.569h0.095a12.8,12.8,0,0,1,2.37-1.99c1.047-.79,1.89-1.957,2.938-2.748,0.623-.471,1.809-1.128,2.085-1.9H23.318A6.066,6.066,0,0,1,21.8,9.265c-1.058.8-1.952,1.838-3.033,2.654a6.6,6.6,0,0,1-1.517,1.327V13.15h0.095a6.067,6.067,0,0,1,1.517-1.327c1.058-.8,1.952-1.838,3.033-2.654a6.6,6.6,0,0,1,1.517-1.327V7.748h-0.19ZM58.01,8.033a0.713,0.713,0,0,1,.474.379h0.095V8.507A0.946,0.946,0,0,1,58.01,8.033ZM58.673,8.6a0.713,0.713,0,0,1,.474.379h0.095V9.075A0.946,0.946,0,0,1,58.673,8.6ZM59.337,9.17a0.713,0.713,0,0,1,.474.379h0.095V9.644A0.946,0.946,0,0,1,59.337,9.17ZM60,9.739a0.713,0.713,0,0,1,.474.379h0.095v0.095A0.946,0.946,0,0,1,60,9.739Zm0.663,0.569a0.713,0.713,0,0,1,.474.379h0.095v0.095A0.946,0.946,0,0,1,60.664,10.307Zm0.569,0.474a1.2,1.2,0,0,1,.663.569A1.2,1.2,0,0,1,61.232,10.781Zm-5.118.284a0.34,0.34,0,0,1,.095.189H56.114V11.065ZM61.9,11.35a0.713,0.713,0,0,1,.474.379h0.095v0.095A0.946,0.946,0,0,1,61.9,11.35Zm-36.777.189a24.067,24.067,0,0,0,1.043,4.36l-0.474-4.36H25.119Zm30.711,0a1.676,1.676,0,0,0,.19.379C55.98,11.579,56.064,11.68,55.829,11.539Zm0.284,0a2.545,2.545,0,0,0,.095,1.137A2.542,2.542,0,0,0,56.114,11.539Zm0.19,0a12.3,12.3,0,0,0,.284,2.748h0.095V13.435C56.388,12.94,56.665,11.955,56.3,11.539Zm6.256,0.379a0.713,0.713,0,0,1,.474.379h0.095v0.095A0.946,0.946,0,0,1,62.559,11.918Zm-6.73,2.274h0.284a3.865,3.865,0,0,0-.284-2.085v2.085Zm-31-1.99a7.832,7.832,0,0,1-.474,2.274h0.19c0.073-.065.211-0.124,0.284-0.19A3.751,3.751,0,0,0,24.834,12.2Zm0.284,3.506a1.658,1.658,0,0,0,.474-0.189v0.189h0.095V15.8H25.592c-0.344.244-.448,0.054-0.474,0.663a1.736,1.736,0,0,1,.758,1.137H25.782v-0.19a2.141,2.141,0,0,1-.569-0.758H25.119v0.758a4.25,4.25,0,0,1,0,1.232h0.095A3.92,3.92,0,0,1,26.256,17.6c-0.07-.083-0.119-0.107-0.19-0.19a0.458,0.458,0,0,0,.284-0.095c-0.728-1.1-.551-4.136-1.327-5.118Zm29.573,0.474a1.361,1.361,0,0,1,.474.095v0.095c-0.269-.03-0.2-0.1-0.379,0a2.121,2.121,0,0,0,.569.379c0.092,0.024.036,0.074,0.095,0,0.353-.494.276-3.521,0.284-4.549H55.64v0.19A19.856,19.856,0,0,0,54.692,16.183Zm8.531-3.7a0.713,0.713,0,0,1,.474.379h0.095v0.095A0.946,0.946,0,0,1,63.223,12.487Zm0.664,0.569a0.713,0.713,0,0,1,.474.379h0.095v0.095A0.946,0.946,0,0,1,63.886,13.056Zm-46.825.19h0.19V13.34H17.156a1.107,1.107,0,0,1-.664.569Zm39.147,0.284a1,1,0,0,0,.095.569A1,1,0,0,0,56.209,13.529Zm8.341,0.095a0.713,0.713,0,0,1,.474.379h0.095V14.1A0.945,0.945,0,0,1,64.55,13.624Zm0.663,0.569a0.713,0.713,0,0,1,.474.379h0.095v0.095A0.946,0.946,0,0,1,65.213,14.193Zm-40.853.379a4.063,4.063,0,0,0-.19,1.327,1.132,1.132,0,0,0,.569.284,8.1,8.1,0,0,1,.19-1.706Zm31.469-.095v0.284h0.379V14.477H55.829Zm0.853,0a0.458,0.458,0,0,0,.095.284V14.477H56.683Zm-32.607.19a1.245,1.245,0,0,0,0,.948A1.593,1.593,0,0,0,24.076,14.667Zm-0.569.095a0.459,0.459,0,0,1,.284.095H23.6a2.246,2.246,0,0,0-.853.474c-0.184.374,0.319,0.906,0.095,1.327a5.347,5.347,0,0,0-.379-1.422l0.189-.095C22.882,14.969,23.284,14.939,23.507,14.761Zm42.37,0a0.713,0.713,0,0,1,.474.379h0.095v0.095A0.946,0.946,0,0,1,65.877,14.761Zm0.569,0.474a1.2,1.2,0,0,1,.663.569A1.2,1.2,0,0,1,66.446,15.235Zm-51.754.095h0.19a0.268,0.268,0,0,1-.095.095,0.87,0.87,0,0,1-.569.474Zm8.057,0h0.19v0.095h-0.19V15.33Zm0.19,0.095h0.19V15.52A0.325,0.325,0,0,1,22.938,15.425Zm0.19,0.095h0.189v0.095A0.325,0.325,0,0,1,23.128,15.52Zm0.189,0.095h0.19v0.095A0.324,0.324,0,0,1,23.318,15.614Zm0.19,0.095H23.7V15.8A0.325,0.325,0,0,1,23.507,15.709Zm43.6,0.095a0.713,0.713,0,0,1,.474.379h0.095v0.095A0.946,0.946,0,0,1,67.109,15.8Zm-53.175.19h0.19a7.47,7.47,0,0,0-.758.853,0.951,0.951,0,0,1,.474.569H13.744a3.125,3.125,0,0,1-.569-0.758A1.793,1.793,0,0,0,13.934,15.994Zm10.142,0.095-0.284,1.327h0.19V17.32a1.415,1.415,0,0,0,.663-1.043ZM55.45,16.183a0.341,0.341,0,0,1,.095.189H55.45V16.183Zm1.043,0.095v0.569h0.095V16.657a0.517,0.517,0,0,0,.284-0.379A0.735,0.735,0,0,1,56.493,16.278Zm11.28,0.095a0.713,0.713,0,0,1,.474.379h0.095v0.095A0.946,0.946,0,0,1,67.773,16.372Zm-12.038.284a1,1,0,0,0,.095.569A1,1,0,0,0,55.735,16.657Zm-31.185.095-0.19.569h0.379V17.226a0.437,0.437,0,0,1,0-.474H24.55Zm-11.659.19c0.118,0.149.061,0.048,0,.19-0.02.038-.07,0.2-0.19,0.095Zm55.545,0a0.713,0.713,0,0,1,.474.379H69v0.095A0.946,0.946,0,0,1,68.436,16.941Zm-56.019.379h0.19a0.268,0.268,0,0,1-.095.095,0.87,0.87,0,0,1-.569.474Zm43.412,2.654a9.785,9.785,0,0,0-.095-2.654H55.64v0.095a18.046,18.046,0,0,0-.948,3.98h0.19V21.3c0.185-.04.068,0.146,0.19,0a7.975,7.975,0,0,0,.379-1.043c0.073-.065.212-0.124,0.284-0.19a0.458,0.458,0,0,1-.284-0.095h0.379ZM24.171,17.415a0.582,0.582,0,0,0-.19.379,0.517,0.517,0,0,1,.284.379H24.36a1.606,1.606,0,0,1,.095-0.569H24.55a0.989,0.989,0,0,0,.189.948v-0.19a1.557,1.557,0,0,1,0-.663A0.772,0.772,0,0,0,24.171,17.415ZM69.1,17.51a0.713,0.713,0,0,1,.474.379h0.095v0.095A0.946,0.946,0,0,1,69.1,17.51Zm-54.976.19a2.383,2.383,0,0,1,.948,1.043H14.976V18.647A2.073,2.073,0,0,1,14.123,17.7Zm-2.464.284h0.19a0.268,0.268,0,0,1-.095.095,0.871,0.871,0,0,1-.569.474Zm58.1,0.095a0.713,0.713,0,0,1,.474.379h0.095v0.095A0.946,0.946,0,0,1,69.763,18.078ZM10.9,18.647h0.19a0.268,0.268,0,0,1-.095.095,0.871,0.871,0,0,1-.569.474Zm59.526,0a0.713,0.713,0,0,1,.474.379H71v0.095A0.946,0.946,0,0,1,70.427,18.647Zm-45.877.095c-0.015.678-.3,1.808,0,2.274C24.566,20.36,24.875,19.246,24.55,18.742Zm-9.289.19a2.381,2.381,0,0,1,.948,1.043H16.114V19.879A2.074,2.074,0,0,1,15.261,18.931ZM71.09,19.216a0.713,0.713,0,0,1,.474.379h0.095V19.69A0.946,0.946,0,0,1,71.09,19.216Zm-61.043.19h0.19a0.872,0.872,0,0,1-.569.474ZM71.659,19.69a1.2,1.2,0,0,1,.663.569A1.2,1.2,0,0,1,71.659,19.69Zm-62.37.379h0.19a0.269,0.269,0,0,1-.095.095,0.87,0.87,0,0,1-.569.474Zm7.2,0.19a2.382,2.382,0,0,1,.948,1.043H17.346V21.206A2.074,2.074,0,0,1,16.493,20.258Zm55.829,0a0.713,0.713,0,0,1,.474.379h0.095v0.095A0.946,0.946,0,0,1,72.322,20.258Zm-63.791.474H8.72a0.269,0.269,0,0,1-.095.095,0.87,0.87,0,0,1-.569.474Zm16.114,0.095a5.086,5.086,0,0,0,0,1.706h0.095v-0.19C24.54,21.991,24.909,21.256,24.645,20.827Zm48.341,0a0.713,0.713,0,0,1,.474.379h0.095V21.3A0.946,0.946,0,0,1,72.986,20.827Zm-17.536.095-0.095.189C55.521,20.979,55.45,20.922,55.45,20.922Zm2.559,0H58.2v0.095A0.324,0.324,0,0,1,58.01,20.922Zm0,0.189H58.2v0.095A0.325,0.325,0,0,1,58.01,21.111Zm-2.749.095V21.4h0.095A0.324,0.324,0,0,0,55.261,21.206ZM7.773,21.4h0.19a0.269,0.269,0,0,1-.095.095,0.87,0.87,0,0,1-.569.474Zm65.877,0a0.713,0.713,0,0,1,.474.379h0.095v0.095A0.946,0.946,0,0,1,73.649,21.4Zm-55.924.19a2.382,2.382,0,0,1,.948,1.042H18.578V22.533A2.074,2.074,0,0,1,17.725,21.585Zm39.147,0h0.19V21.68A0.324,0.324,0,0,1,56.872,21.585Zm-0.379.095a0.459,0.459,0,0,1,.284.095A0.457,0.457,0,0,1,56.493,21.68Zm-2.18,1.137h0.379c-0.038-.215-0.087-0.1,0-0.284,0.163,0.084.121,0.084,0.284,0a0.459,0.459,0,0,1-.284-0.095h0.284V21.964a0.8,0.8,0,0,0,.474-0.095H54.5v0.19A1.382,1.382,0,0,0,54.313,22.817Zm-28.626-.853v0.19h0.19v-0.19h-0.19Zm48.626,0a0.713,0.713,0,0,1,.474.379h0.095v0.095A0.946,0.946,0,0,1,74.313,21.964Zm-67.3.095H7.2a0.269,0.269,0,0,1-.095.095,0.87,0.87,0,0,1-.569.474Zm18.2,1.137h0.663a6.981,6.981,0,0,1,0-.853H25.782V22.248a1.538,1.538,0,0,0-.569-0.095A1.619,1.619,0,0,0,25.213,23.2Zm2.18-1.043a0.953,0.953,0,0,0,.853,0H27.393Zm2.18,0.379c0.078,0.308-.046.145,0.19,0.284V22.533h-0.19Zm45.4,0a0.712,0.712,0,0,1,.474.379h0.095v0.095A0.946,0.946,0,0,1,74.976,22.533ZM58.2,22.627l0.095,0.284h0.095V22.627H58.2Zm-51.943.095h0.19a0.269,0.269,0,0,1-.095.095,0.87,0.87,0,0,1-.569.474Zm18.294,0-0.095.474h0.19A0.794,0.794,0,0,0,24.55,22.722Zm-5.593.19a2.073,2.073,0,0,1,.853.948H19.716V23.765A1.774,1.774,0,0,1,18.957,22.912Zm36.209,0a1.1,1.1,0,0,1,0,.853h0.663V22.912H55.166Zm2.18,0v0.379H58.1a0.459,0.459,0,0,0-.095-0.284A1.255,1.255,0,0,0,57.346,22.912Zm-3.128.095a0.793,0.793,0,0,0,.095.474A0.793,0.793,0,0,0,54.218,23.007ZM75.64,23.1a0.713,0.713,0,0,1,.474.379h0.095v0.095A0.946,0.946,0,0,1,75.64,23.1Zm-24.55.19a8.037,8.037,0,0,0,.095,2.464V25.186a1.362,1.362,0,0,1,.474.095V23.2Zm0.948-.095v2.559h0.379c0-1.155.09-1.52,0.095-2.559H52.038Zm-22.464.095h0.19v0.19h-0.19v-0.19ZM5.5,23.386h0.19a0.269,0.269,0,0,1-.095.095,0.87,0.87,0,0,1-.569.474ZM23.981,23.48c0,1.039-.008,1.149,0,2.464h0.19V25.186a5.394,5.394,0,0,0,.19-1.8H24.265A0.483,0.483,0,0,1,23.981,23.48Zm0.474-.095-0.095,1.8h0.19v0.095h0.095v-1.9h-0.19Zm1.422,0.095-0.758-.095V23.48a4.3,4.3,0,0,1,.095,1.706h0.095a0.828,0.828,0,0,0,.474-0.853C25.777,24.275,25.869,23.876,25.877,23.48Zm1.517,0V23.67h0.095V23.575h0.095A0.34,0.34,0,0,0,27.393,23.48Zm26.73,0.095v0.19h0.095v-0.19H54.123ZM0,23.67H1.517v0.948H0.095A3.116,3.116,0,0,1,0,23.67Zm76.3,0a0.713,0.713,0,0,1,.474.379h0.095v0.095A0.946,0.946,0,0,1,76.3,23.67Zm-22.275.19c0.016,0.536,0,1.144,0,1.9a0.318,0.318,0,0,1,.284,0V25.66a9.483,9.483,0,0,1,0-1.8H54.028Zm1.327,0v0.284c0.308,0.079.145-.046,0.284,0.19H55.355a0.8,0.8,0,0,0,.095.474,0.613,0.613,0,0,1,.095-0.379c0.039,0.339-.045.238,0.19,0.379V24.712a1.5,1.5,0,0,0,.095-0.758H55.64A0.484,0.484,0,0,0,55.355,23.86Zm-27.962.095a0.458,0.458,0,0,0,.095.284V23.954H27.393Zm-22.654.095h0.19a0.269,0.269,0,0,1-.095.095,0.951,0.951,0,0,1-.569.474V24.523H4.36Zm72.227,0.19a0.713,0.713,0,0,1,.474.379h0.095v0.095A0.946,0.946,0,0,1,76.967,24.239Zm-21.327.189a0.483,0.483,0,0,1,.095.284H55.64V24.428Zm21.9,0.284a0.713,0.713,0,0,1,.474.379H78.1v0.095A0.946,0.946,0,0,1,77.536,24.712Zm-73.649.095h0.19a0.269,0.269,0,0,1-.095.095,0.951,0.951,0,0,1-.569.474V25.281H3.507ZM54.408,24.9v0.189H54.5V24.9H54.408Zm0.379,0v0.379h0.095C54.88,24.945,55.019,25.117,54.787,24.9Zm0.663,0a0.758,0.758,0,0,0,0,.379h0.095A0.611,0.611,0,0,0,55.45,24.9Zm0.19,0a1.726,1.726,0,0,0,.095.853A1.726,1.726,0,0,0,55.64,24.9Zm-1.232.853h0.284V25H54.6v0.19l-0.19.095v0.474Zm20.853,0a0.793,0.793,0,0,1,.474.095,5.129,5.129,0,0,1-1.99-.095,4.89,4.89,0,0,0,1.422-.095A1.227,1.227,0,0,1,75.261,25v0.758Zm-49.668-.474a2.787,2.787,0,0,0-.379.474h0.095a0.324,0.324,0,0,0,.095.19,0.325,0.325,0,0,1,.379,0V25.281h-0.19Zm29.194,0.474h0.758V25.376H55.45c-0.18.427-.365,0.262-0.663,0.095v0.284ZM3.128,25.471h0.19v0.095H3.223a0.871,0.871,0,0,1-.569.474ZM39.621,25.85v0.19h0.095V25.85H39.621Zm12.417,0a1.855,1.855,0,0,0,.379.19V25.85H52.038Zm2.085,0v0.19c0.329-.1.447,0.074,0.569-0.19H54.123Zm0.664,0a0.789,0.789,0,0,0,.758,0H54.787Zm0.853,0v0.19h0.095V25.85H55.64Zm1.8,0a5.592,5.592,0,0,0,.853.19V25.85H57.441Zm6.066,0v0.19a0.728,0.728,0,0,1,.569,0V25.85H63.507Zm0.853,0a1.1,1.1,0,0,0,.284.19V25.85H64.36Zm0.948,0a4.294,4.294,0,0,0,.663.19V25.85H65.308Zm1.327,0a0.277,0.277,0,0,0,.379,0H66.635Zm4.171,0a2.8,2.8,0,0,0,1.706,0H70.806Zm-49.194.095a0.343,0.343,0,0,1,.095.19H21.611v-0.19Zm49.194,0.095v0.19a0.713,0.713,0,0,1,.474,0v-0.19H70.806Zm0.569,0v0.19a1.649,1.649,0,0,0,1.137-.19H71.374Zm-69.953.095h0.19v0.189H1.422V26.134Zm0.948,0h0.19v0.095H2.464A0.87,0.87,0,0,1,1.9,26.7Zm37.251,0-0.095.284c-0.494-.325-2.7-0.075-3.223,0v0.095a0.341,0.341,0,0,1,.095.189h0.284a27.01,27.01,0,0,0,2.938-.189c0.239-.139.146-0.042,0.19-0.379h-0.19Zm15.355,0v0.189c0.339-.039.238,0.045,0.379-0.189H54.976Zm2.465,0a1.233,1.233,0,0,0,1.137.095Zm5.971,0a0.343,0.343,0,0,1-.19.095v0.095h0.758V26.229h0.095V26.134H63.412Zm1.043,0v0.189H64.55A0.325,0.325,0,0,0,64.455,26.134Zm0.853,0a0.277,0.277,0,0,0,.379,0H65.308Zm-24.929.474V26.8h0.19V26.7h0.095V26.608H40.379Zm-38.673.284v0.19H1.8A0.324,0.324,0,0,0,1.706,26.892Zm2.085,0a0.367,0.367,0,0,0,.284.19v-0.19H3.791Zm4.455,0v0.19c0.335-.094.506,0,0.853-0.095V26.892H8.246Zm0.948,0v0.19H9.289A0.324,0.324,0,0,0,9.194,26.892Zm0.19,0v0.284a0.458,0.458,0,0,0-.284.095H9.194v0.095l0.19-.095v0.095c0.065-.073.124-0.212,0.19-0.284a0.842,0.842,0,0,0,.284.284,0.36,0.36,0,0,1,.19-0.284,0.458,0.458,0,0,0,.095.284c0.154-.1.605-0.091,0.758-0.189H10.142V26.892H9.384Zm0.853,0v0.19h0.569v-0.19H10.237Zm1.137,0v0.19h0.758v-0.19H11.374Zm0.853,0v0.19h0.19a1.472,1.472,0,0,0,.474-0.095A3.414,3.414,0,0,0,12.228,26.892Zm1.327,0a0.342,0.342,0,0,1-.19.095v0.095h0.379a0.269,0.269,0,0,1,.095-0.095V26.892H13.555Zm26.73,0c0.163,0.083.121,0.084,0.284,0H40.284Zm5.5,0a5.509,5.509,0,0,0,2.749,0H45.782Zm-37.725.284c0.2,0.227.09,0.02,0.284,0.095C8.4,27.1,8.149,27.194,8.057,27.177Zm0.569,0a0.342,0.342,0,0,0,.19.095A0.342,0.342,0,0,0,8.626,27.177Zm3.033,0a0.381,0.381,0,0,0,.474,0H11.659Zm1.706,0a0.789,0.789,0,0,0,.758,0H13.365Zm32.038,0a0.5,0.5,0,0,0,.569,0H45.4Zm1.611,0a0.342,0.342,0,0,0,.19.095A0.342,0.342,0,0,0,47.014,27.177Zm0.474,0a1.917,1.917,0,0,0,1.327,0H47.488ZM7.3,32.578a0.789,0.789,0,0,0,.758,0H7.3Zm2.085,0.284v0.19l0.284-.095V32.863H9.384Z" transform="translate(0 0.531)"/>
</svg>
