<?xml version="1.0" encoding="utf-8"?>
<!-- Generator: Adobe Illustrator 16.0.0, SVG Export Plug-In . SVG Version: 6.00 Build 0)  -->
<!DOCTYPE svg PUBLIC "-//W3C//DTD SVG 1.1//EN" "http://www.w3.org/Graphics/SVG/1.1/DTD/svg11.dtd">
<svg version="1.1" id="Layer_1" xmlns="http://www.w3.org/2000/svg" xmlns:xlink="http://www.w3.org/1999/xlink" x="0px" y="0px"
	 width="39.938px" height="40px" viewBox="0 0 39.938 40" enable-background="new 0 0 39.938 40" xml:space="preserve">
<path id="Color_Fill_1" fill="#FFFFFF" d="M15.209,15.893c0.235-0.033,0.463-0.113,0.667-0.236h3.242v-2.082h0.1
	c-0.012,0.988,0.921,1.4,1.287,2.082c0.588,0.011,1.11,0.421,1.621,0.095c0.206-0.3,0.206-0.694,0-0.994
	c0-0.144-0.017-0.286-0.048-0.426c-0.169-0.056-0.349-0.071-0.524-0.047c-0.071,0.049-0.152,0.082-0.238,0.095
	c-0.107-0.266-0.384-0.423-0.668-0.379c-0.052-0.48-0.209-0.9-0.237-1.42h0.048v-0.047c0.463,0.042,0.93,0.01,1.383-0.095v0.095
	c-0.303-0.013-0.606,0.003-0.906,0.047v0.047h1c0.378-0.047,0.747-0.143,1.101-0.284c0.022,0,0.958,0.251,1.1,0.284v-0.094
	c-0.078-0.24-0.041-0.501,0.1-0.71c0.301-0.027,0.606-0.125,0.953-0.142c0.028,0.313,0,0.816,0.048,1.183
	c0.445,0.032,0.891,0.032,1.335,0v0.188c-0.396-0.036-0.794-0.052-1.191-0.047v0.047c0.53,0.382,1.258,0.026,2,0.189
	c0.642,0.141,1.586-0.067,2.336,0.095c1.188,0.146,2.392,0.13,3.576-0.047c0.023-0.006,0.514,0.094,0.715,0.095
	c0.689,0,1.558-0.045,2.1,0v0.237c-1.771,0.139-3.774,0-5.721,0c-1.743,0-3.251,0.14-5.006,0.142
	c-0.169,0.158-0.299,0.352-0.381,0.568c0.09,0.094,0.206,0.16,0.334,0.189c0.023-0.181,0.066-0.2,0.1-0.379
	c0.345,0,1.284,0.176,1.383,0.142c0.197-0.17,0.469-0.225,0.715-0.142c0.274,0.215,0.529,0.453,0.764,0.709h0.763V14.9h-0.069
	c-0.239,0.156-0.54,0.191-0.81,0.095v0.047c0.214,0.171,0.471,0.806,0.668,0.899h3.1v0.188h0.382c0.105-0.136,0.2-0.279,0.283-0.43
	c-0.063-0.05-0.112-0.114-0.143-0.189h-0.1l-0.238,0.427h-0.043v-0.092c0.122-0.129,0.216-0.3,0.334-0.426
	c-0.148-0.148-0.203-0.367-0.144-0.568c0.4-0.232,0.094-0.344,0.858-0.33c0.025,0.06,0.041,0.123,0.048,0.188
	c-0.082,0.311-0.082,0.637,0,0.947c-0.07,0.086-0.175,0.138-0.286,0.142c-0.069-0.12-0.021-0.072-0.19-0.095v0.047
	c0.152,0.128,0.194,0.346,0.1,0.521h0.101c0.089-0.042,0.188-0.059,0.285-0.047v0.143h0.191c0.05,0.168,0.149,0.316,0.286,0.426
	c0.123-0.127,0.304-0.181,0.477-0.143c0.059,0.184,0.075,0.378,0.048,0.568c0.534,0,0.447,0.139,0.954,0.143v0.567
	c0.126,0.058,0.239,0.138,0.334,0.237c0.11-0.092,0.241-0.157,0.381-0.189c0.113,0.326-0.006,0.39,0.478,0.379v-0.049h0.048v-0.048
	c-0.131,0-0.261-0.016-0.388-0.047c-0.005-0.036-0.021-0.069-0.048-0.095L36,17.975c0.037-0.004,0.073-0.02,0.1-0.047
	c1.194,0.246,2.405,0.404,3.623,0.473c0.213,0.285,0.299,0.645,0.238,0.994c-0.099,0.067-0.216,0.101-0.334,0.096
	c-0.04-0.113-0.088-0.225-0.144-0.331h-0.056v0.047c-0.091,0.066-0.171,0.146-0.238,0.237c-0.1-0.063-0.216-0.096-0.334-0.096
	c-0.214,0.146-0.406,0.322-0.571,0.521c0.005,0.036,0.021,0.069,0.048,0.095c0.184,0.129,0.236,0.046,0.237,0.379
	c-0.025,0.026-0.042,0.06-0.048,0.095c-0.217,0.121-0.333,0.328-0.523,0.427c-0.434-0.018-0.868,0.03-1.287,0.142
	c-0.876,0.477-1.692,1.967-2.956,1.988c-0.093,1.104-0.848,2.041-1.907,2.365c-1.456,0.457-3.007-0.354-3.463-1.81
	c-0.057-0.181-0.095-0.367-0.113-0.556c-0.699,0-0.982,0.138-1.621,0.142c-0.255,1.525-1.698,2.555-3.224,2.3
	c-0.345-0.059-0.676-0.18-0.976-0.359c-0.508-0.336-0.905-0.814-1.141-1.376c-0.034-0.192-0.082-0.383-0.143-0.568
	c-0.296-0.075-0.604-0.091-0.906-0.047c-0.634,0.075-1.273,0.075-1.907,0v0.047h-0.047c-0.243,1.517-1.67,2.549-3.187,2.305
	c-0.32-0.052-0.63-0.158-0.913-0.316c-0.427-0.26-0.786-0.616-1.049-1.041c-0.163-0.31-0.142-0.744-0.334-1.041
	c-0.249-0.067-0.509-0.084-0.764-0.047c-0.15,0.147-0.369,0.202-0.571,0.142c-0.269,1.531-1.728,2.556-3.259,2.287
	c-0.445-0.078-0.864-0.262-1.224-0.536C6.629,24.565,6.335,24.159,6.15,23.7c-0.018-0.253-0.1-0.497-0.237-0.71
	c-0.274,0.1-0.568,0.132-0.858,0.095c-1.106,0.229-1.854-0.671-2.622-0.994c-0.006,0.065-0.021,0.13-0.048,0.189
	c-0.07,0-0.667-0.048-0.667-0.048c-0.116,0.109-0.214,0.237-0.286,0.38c-0.147-0.2-0.186-0.08-0.381,0
	c-0.07,0.028-0.02-0.118-0.143-0.048c-0.033,0.037-0.063,0.106-0.101,0.143c-0.029-0.053-0.082-0.089-0.143-0.095
	c-0.054,0.107-0.102,0.218-0.144,0.331c-0.023-0.026-0.039-0.059-0.044-0.094c-0.032-0.124-0.032-0.254,0-0.379H0.429v0.096
	c-0.027,0.075-0.077,0.141-0.143,0.188c-0.073-0.139-0.163-0.1-0.238-0.237C0.013,22.462-0.005,22.396,0,22.329h0.048
	c-0.001,0.052,0.017,0.102,0.048,0.142c0-0.147,0.034-0.293,0.1-0.426h0.042v0.096c-0.091,0.087-0.094,0.231-0.007,0.323
	c0.003,0.003,0.005,0.005,0.007,0.007c0.248-1.135,0.377-2.292,0.383-3.453H0.477v-0.096c0.094-0.022,0.167-0.096,0.191-0.189
	C0.54,18.465,0.46,18.177,0.43,17.881h0.047v-0.048c0.026,0.026,0.043,0.06,0.048,0.095c0.034,0.061,0.083,0.109,0.144,0.143v-0.047
	c-0.053-0.095-0.028-0.086,0-0.189c-0.052,0.001-0.103-0.016-0.144-0.047h0.048c0.071-0.085,0.175-0.137,0.285-0.143L0.81,17.5H0.91
	c0.041-0.03,0.091-0.047,0.143-0.047c0.002-0.08,0.018-0.16,0.047-0.235c0.093,0.053,0.188,0.101,0.286,0.142
	c0.12,0.201,0.186,0.43,0.191,0.664c0.047,0.598,0.226,1.179,0.523,1.699c0.044-0.051,0.092-0.099,0.144-0.142
	c0.039,0.153-0.023,0.071,0.1,0.142v-0.375c-0.19-0.48-0.256-1.001-0.191-1.514H2.1c0,0-0.063,0.137-0.1,0.095v-0.048
	c-0.026-0.025-0.043-0.059-0.048-0.095c0.03-0.041,0.063-0.149,0.1-0.188C2.046,17.664,2.064,17.73,2.1,17.786
	c0.012-0.02,0.028-0.036,0.048-0.047c0.089-0.243,0.105-0.505,0.048-0.757c-0.154-0.039-0.072,0.022-0.143-0.096
	c0.067-0.188,0.164-0.363,0.286-0.521c0.057-0.037,0.229-0.058,0.286-0.095c-0.138,0.004-0.267-0.069-0.334-0.189h0.1
	c0.09,0.088,0.209,0.139,0.334,0.143c0.058-0.057,0.121-0.104,0.191-0.143c0.07-0.1,0.026-0.232,0.1-0.331l0.238-0.142v-7.9
	L3.29,4.724C3.239,4.361,3.255,3.993,3.338,3.636v7.9c-0.093,1.324-0.076,2.653,0.048,3.975h1.286
	c0.062-0.116-0.021-0.032,0.1-0.095v0.095c0.057,0.168,0.073,0.347,0.048,0.521c0.402,0.002,0.803-0.046,1.192-0.142
	c0.591-0.003,1.181-0.051,1.764-0.143c0.007,0.193,0.043,0.152,0.334,0.143c-0.024-0.101-0.054-0.095,0-0.189v0.047
	c0.712,0.209,1.461,0.258,2.193,0.143c0.251-0.063,0.513-0.063,0.763,0c0.706,0,1.158-0.008,1.813,0
	c0.036,0.1,0.084,0.195,0.143,0.283c0.196-0.025,0.396,0.008,0.572,0.096v-0.093H13.4l0.049-0.284h1.049
	c0.076,0.129,0.043,0.119,0.237,0.143v-0.047h0.046c0.027-0.35,0.075-0.697,0.143-1.041l0.048-8.755V3.541
	c-0.049-0.347-0.033-0.7,0.047-1.041c0.112,1.812,0.128,3.628,0.048,5.442V14.9C15.155,15.224,15.202,15.558,15.209,15.893z
	 M20.453,12.628c0.027,0.026,0.063,0.043,0.1,0.047C20.526,12.649,20.49,12.632,20.453,12.628z M20.453,12.723
	c0.079,0.053,0.051,0.084,0.1,0H20.453z M19.213,15.657h1.1v-0.048c-0.42-0.399-0.774-0.863-1.049-1.374h-0.051V15.657
	L19.213,15.657z M3.194,15.8c-0.038,0.069-0.086,0.133-0.143,0.189v0.095H3.1c0.027-0.026,0.063-0.043,0.101-0.047
	C3.238,15.962,3.236,15.873,3.194,15.8z M1.812,17.549C1.878,17.545,1.945,17.563,2,17.6C1.934,17.604,1.867,17.586,1.812,17.549z
	 M1.764,17.6c0.025,0.026,0.043,0.06,0.048,0.096H1.764V17.6z M1.716,17.695c0.025,0.025,0.043,0.059,0.048,0.095H1.716v-0.099
	V17.695z M1.668,17.79c0.03,0.041,0.047,0.091,0.048,0.142H1.669v-0.146L1.668,17.79z M1.62,17.932
	c0.025,0.026,0.042,0.06,0.048,0.096H1.621v-0.1L1.62,17.932z M37.855,18.4c0.07,0.055,0.168,0.055,0.238,0H37.855z M38.141,18.447
	c0.07,0.055,0.168,0.055,0.238,0H38.141z M38.57,18.5c0.346,0.077,0.696,0.125,1.05,0.143v-0.1L38.57,18.5z M39.524,18.689v0.047
	h-0.048c-0.092,0.037,0.101,0.047,0.101,0.047c-0.006-0.038-0.024-0.072-0.054-0.098L39.524,18.689z M1.955,19.3
	C1.981,19.327,1.996,19.362,2,19.4H1.955V19.3z M37.855,20.057c-0.053,0.069-0.088,0.15-0.1,0.237
	c0.061,0.024,0.125,0.041,0.19,0.047c0.128-0.155,0.138-0.116,0.286-0.047V20.2L37.855,20.057z M2.336,20.2
	c0.014,0.083,0.067,0.153,0.143,0.188v-0.095C2.439,20.253,2.39,20.221,2.336,20.2z M37.568,20.342
	c-0.168,0.17-0.36,0.313-0.571,0.426v0.047h0.144c0.221-0.153,0.494-0.254,0.715-0.379v-0.047
	C37.758,20.391,37.66,20.375,37.568,20.342L37.568,20.342z M37.949,20.484L38,20.626h0.048
	C38.041,20.564,38.005,20.512,37.949,20.484L37.949,20.484z M2.193,20.72c0,0.052,0.017,0.102,0.049,0.143
	C2.241,20.811,2.225,20.761,2.193,20.72z M0.286,21.667c0.025,0.026,0.042,0.06,0.048,0.095H0.286V21.667z M0.238,21.762
	c0.026,0.025,0.043,0.06,0.049,0.096H0.238V21.762L0.238,21.762z M0.138,21.904c0.025,0.025,0.043,0.059,0.048,0.095H0.143V21.9
	L0.138,21.904z M2.238,22.046c-0.028,0.054-0.082,0.089-0.143,0.095v0.047h0.146c0.019-0.107,0.044-0.052,0-0.143L2.238,22.046z"/>
</svg>
