<svg xmlns="http://www.w3.org/2000/svg" width="80" height="40" viewBox="0 0 80 40">
  <defs>
    <style>
      .cls-1 {
        fill: #fff;
        fill-rule: evenodd;
      }
    </style>
  </defs>
  <path id="it_cruiser_capitani_romani_class_attilio_regolo_ico" class="cls-1" d="M53.778,10h0.078v1.222h0.026c0.059-.057.036-0.081,0.078-0.026,0.066,0.038.029-.006,0.052,0.078l-0.157.052v1.508a0.593,0.593,0,0,1,.052.416h0.052a0.452,0.452,0,0,1,.052-0.13,0.094,0.094,0,0,1,.026.052c0.065,0.034.018-.011,0.052,0.052H54.065c-0.038.066,0.006,0.029-.078,0.052a0.134,0.134,0,0,1-.078.026v0.338h0.209a1.4,1.4,0,0,0,0-.364h0.1v0.052a1.447,1.447,0,0,0,0,.312,0.17,0.17,0,0,1,.1.026c-0.442-.02-0.439.146-0.418,0.572,0.094-.011.066,0.012,0.1-0.052a0.594,0.594,0,0,0,.026-0.208H54.17v0.052c0.047,0.083-.025.109,0.026,0.234a0.389,0.389,0,0,0-.288.078v1.17h0.1a0.442,0.442,0,0,0,.052-0.208c-0.071-.042-0.022,0-0.026-0.078H54.17V15.28H54.2v0.026H54.118a0.415,0.415,0,0,0,.052.208c-0.4.036-.261,0.636-0.261,1.04V19.8h0.863c0.019-.092.032-0.064,0.052-0.156H54.693V19.441h0.131V18.609h1.359V18.114a1.209,1.209,0,0,1-.732-0.156,0.372,0.372,0,0,0,.314-0.052A3.492,3.492,0,0,1,55.739,17a0.141,0.141,0,0,0,.1-0.078H55.477V16.866a0.868,0.868,0,0,0-.026-0.494h0.288a5.868,5.868,0,0,1,.026-1.04c0.327,0,.46-0.117.758-0.13V15.02h0.052V15.2c0.116-.013.094-0.037,0.209-0.052V14.916a0.479,0.479,0,0,1,.157-0.026,0.177,0.177,0,0,1,.1-0.026,1.3,1.3,0,0,1-.026.286,3.526,3.526,0,0,1,1.046.26,3.77,3.77,0,0,1,.026.962h0.288V16.4a1.008,1.008,0,0,0-.052.52H58.013V16.97h0.078v0.936l-0.052-.026v0.026a0.465,0.465,0,0,0,.314.052v0.026H57.987v0.13H57.621V19H57.7a0.753,0.753,0,0,1-.052.208h0.131a1.4,1.4,0,0,1,.026-0.546v0.546h0.523v-0.13h0.026V19.051L58.719,19.1a1.082,1.082,0,0,1,.026-0.442V19.1c0.341,0.02.6,0.1,0.967,0.1V18.661h0.052v0.546a0.42,0.42,0,0,1,.183.182,3.152,3.152,0,0,1-.078.806,5.931,5.931,0,0,0,0,.65h0.5a1.32,1.32,0,0,1,.026-0.52v0.52h0.235V20.793A1.217,1.217,0,0,0,60.68,20.3a0.269,0.269,0,0,1-.209-0.39c0.212-.148.484-0.138,0.471,0.234l-0.052-.026v0.026a0.094,0.094,0,0,1,.026.052c-0.112,0-.048.046-0.131,0.078a0.134,0.134,0,0,1-.078.026l0.052,0.546h0.078v-0.52h0.052v0.026a1.238,1.238,0,0,0,0,.6,5.985,5.985,0,0,0-1.02.234v0.6a1.979,1.979,0,0,1,0,.676l0.5-.026V22.224a0.446,0.446,0,0,0,.157-0.182,0.765,0.765,0,0,0,.5.078c0.019-.092.032-0.064,0.052-0.156H60.915V21.522c-0.068-.007-0.046.012-0.052-0.1a0.655,0.655,0,0,0,.052-0.442h0.157V20.923a0.139,0.139,0,0,1-.052-0.156,0.156,0.156,0,0,1,.131-0.13,4.824,4.824,0,0,1,1.1-.156,0.2,0.2,0,0,0,.1.1,0.319,0.319,0,0,0-.1.182,1.509,1.509,0,0,0,.549.052,0.643,0.643,0,0,1,.261-0.312,0.42,0.42,0,0,0,.052.338,1.351,1.351,0,0,1,.784-0.026c0.187,0.054.291,0.254,0.5,0.312a6.2,6.2,0,0,0,1.386.026v0.13a4.551,4.551,0,0,0-1.307.052,0.748,0.748,0,0,0-.209.13,0.725,0.725,0,0,1,.131.442c-0.068.007-.046-0.012-0.052,0.1a0.127,0.127,0,0,0-.079.026,0.481,0.481,0,0,0-.026.234c0.038,0.016.136,0.065,0.052,0.1H64.68a0.487,0.487,0,0,1,.235-0.026v-0.39h0.157V21.912c-0.07-.053-0.1-0.1-0.052-0.13,0.013-.094.007-0.095,0.078-0.13a3.81,3.81,0,0,1,1.124-.182,0.318,0.318,0,0,0,.1.1l-0.052.13-0.131.052v0.026H66.51a0.636,0.636,0,0,0,.288.026c0.058-.118.143-0.2,0.209-0.312h0.026v0.026a0.811,0.811,0,0,0,.078.312,1.5,1.5,0,0,1,.732-0.026,3.625,3.625,0,0,1,.418.286,5.107,5.107,0,0,0,1.49.052V22.3H69.7a0.879,0.879,0,0,0-.366-0.026,1.905,1.905,0,0,0-1.072.182,0.414,0.414,0,0,0,.1.208L68.34,23a0.127,0.127,0,0,0-.079.026,0.481,0.481,0,0,0-.026.234c0.105,0.067,0,.131-0.026.234l0.183,0.026a0.928,0.928,0,0,1,.026-0.39,0.928,0.928,0,0,0,.026.39A0.285,0.285,0,0,1,68.6,23.5c0.083-.275.288-0.236,0.575-0.312,0.462-.122.98-0.233,1.438-0.338v0.078a0.667,0.667,0,0,0-.1.468,1.154,1.154,0,0,0,.366-0.052,1.387,1.387,0,0,0,.026-0.39,0.471,0.471,0,0,1-.1-0.078h0.261V22.9H71.007a0.2,0.2,0,0,0-.052.026c0.016,0.044.02,0.314,0.026,0.416a1.753,1.753,0,0,0,.6-0.052,2.123,2.123,0,0,0-.026-0.416,0.127,0.127,0,0,1-.079-0.026,0.552,0.552,0,0,1,.262.026c-0.085.021-.04-0.013-0.079,0.052a0.622,0.622,0,0,0,0,.364,7.8,7.8,0,0,0,.915,0,1.082,1.082,0,0,1,.026-0.442V23.29l0.288-.026V23.082h0.078a0.5,0.5,0,0,0,.052-0.312,0.206,0.206,0,0,0-.052-0.078h0.471v0.026a0.187,0.187,0,0,0-.052.208h0.079a0.373,0.373,0,0,1-.026.13h0.183A2.006,2.006,0,0,0,74.013,23a1.882,1.882,0,0,1,.5.026,1.434,1.434,0,0,1,.235-0.052,0.546,0.546,0,0,1,.026-0.26V23a1.015,1.015,0,0,1,.288-0.052V22.874a0.278,0.278,0,0,1-.157-0.026c0.1,0,.118.013,0.157-0.052a0.465,0.465,0,0,1,.314-0.052,0.209,0.209,0,0,0,0,.1,1.68,1.68,0,0,1,.392.13,0.214,0.214,0,0,1,.1-0.156v0.026c0.017,0.015.083,0.078,0.131,0.13a0.44,0.44,0,0,1,.34,0l0.026-.078c0.025-.017.481-0.019,0.523-0.026a0.772,0.772,0,0,1,.026-0.338,0.42,0.42,0,0,0,.052.338c0.05-.071.149,0,0.262,0.026a0.327,0.327,0,0,0,.026.1l0.078-.026V22.77H77.49v0.182h0.183l-0.026-.208H77.8v0.182h0.052a1.424,1.424,0,0,0,.706-0.026,1.322,1.322,0,0,1,.026-0.52V22.9a2.447,2.447,0,0,1,.445-0.052,0.928,0.928,0,0,1,.209-0.312,5.568,5.568,0,0,0,.445-1.144c-0.085-.021-0.04.013-0.079-0.052a5.038,5.038,0,0,0,.1-1.639H79.66v0.026H79.634V19.7H79.608V19.675l0.131-.078c0.025,0.482,0,1.175,0,1.742a0.127,0.127,0,0,1,.078.026,6.559,6.559,0,0,0-.026,1.092l0.078,0.026v0.234A0.843,0.843,0,0,1,80,23.03a5.8,5.8,0,0,0-.784,1.456,1.932,1.932,0,0,0-.157.26v4.837H78.98V29.272H78.954V29.3a2.647,2.647,0,0,1-1.856.364l-3.033.026H13.778a11.184,11.184,0,0,1-1.072-.468,12.548,12.548,0,0,0-1.8-.468l-1.046.026a6.755,6.755,0,0,0-1.778.026L6.9,28.83a4.1,4.1,0,0,1-2.013.182v0.026c0.154,0.178.151,0.679-.131,0.7A1.878,1.878,0,0,1,4.6,29.4H4.575a0.3,0.3,0,0,1-.078.234v0.026c-0.026.026-.026-0.026-0.026-0.026a1.1,1.1,0,0,1-.078-0.6l-0.471-.026A4.964,4.964,0,0,1,3.9,29.9a0.394,0.394,0,0,1-.1.052,1.565,1.565,0,0,1-.575.026,7.764,7.764,0,0,1-1.621-.052,1.311,1.311,0,0,1-.157-0.858c0-1.043.3-1.56,1.333-1.561v-0.13l-1.7-.208-0.026-.052a8.77,8.77,0,0,1-.314-1.43,0.933,0.933,0,0,0-.078-0.338C0.571,25.277.537,25.31,0.523,25.163A0.336,0.336,0,0,0,.5,24.8c-0.018-.084.03-0.243,0.026-0.364h-0.5A0.748,0.748,0,0,1,0,24.2a2.145,2.145,0,0,1,.575-0.026v-0.65c-0.087.005-.063,0.056-0.1-0.026a2.531,2.531,0,0,0,.157-1.482,1.184,1.184,0,0,1,.026-0.494v0.026A6.386,6.386,0,0,1,.68,22.8a2.336,2.336,0,0,0,.314,1.326A0.485,0.485,0,0,1,1.15,24.1,0.514,0.514,0,0,0,1.1,23.888h1.02a3.3,3.3,0,0,0,.157.312,0.274,0.274,0,0,0-.209.312,0.9,0.9,0,0,0,.366.234,2.572,2.572,0,0,1,.993-0.078,1.084,1.084,0,0,1,.026-0.442v0.338a0.178,0.178,0,0,0,.131-0.052c0.046,0.05.006,0.044,0.1,0.052a0.328,0.328,0,0,1-.026.1H4.392l-0.026-.156,0.1-.026c0.041-.066-0.01-0.206.026-0.26v0.26l0.261,0.026v0.1a0.093,0.093,0,0,0-.026.052h0.81V24.434H5.595a0.212,0.212,0,0,1,.183,0,0.7,0.7,0,0,1,0,.234h0.1a1.084,1.084,0,0,1,.026-0.442v0.442H5.987V24.434H6.039a0.228,0.228,0,0,1,.131-0.026,0.851,0.851,0,0,1,.026.26H6.379c0-.191-0.048-0.225-0.052-0.416H6.405a2.97,2.97,0,0,1,0,.416H6.484v-0.26a4.182,4.182,0,0,1,.915.026c0,0.1-.012.091,0.052,0.13a0.771,0.771,0,0,1,.026-0.338v0.312a0.664,0.664,0,0,1,.157.026,0.329,0.329,0,0,1-.026.1H8.366a0.99,0.99,0,0,1,.078-0.494,0.552,0.552,0,0,1,.444-0.052V24.3H8.967v-0.13H9.412c0.03,0.069.05,0.055,0.078,0.13a0.858,0.858,0,0,1,.026.364H9.595a1.121,1.121,0,0,1,0-.208,0.348,0.348,0,0,1,.183-0.026V24.46H9.8a0.649,0.649,0,0,0-.026.208h0.758a1.287,1.287,0,0,0,.052-0.442h0.026a0.543,0.543,0,0,0,.026.26V24.46a3.692,3.692,0,0,0,.183-0.494,2.715,2.715,0,0,0,.5.546l0.131,0.078-0.026.078h0.732a1.082,1.082,0,0,1,.026-0.442v0.442h0.471V24.616a0.123,0.123,0,0,1-.052-0.13H12.68V24.278a0.277,0.277,0,0,0-.131-0.052,1.3,1.3,0,0,1,.078-0.546l-0.157-.13a4.9,4.9,0,0,0-1.333-.026V23.368H11.19a1.516,1.516,0,0,0,.654,0,2.207,2.207,0,0,0,.784-0.052,1.643,1.643,0,0,0,.235-0.156l0.026-.078a1.76,1.76,0,0,1,.941-0.026,1.126,1.126,0,0,1,.026-0.338l0.052,0.026a0.764,0.764,0,0,0,.183.26,0.812,0.812,0,0,0,.6-0.052c-0.088-.029-0.087-0.029-0.1-0.13H14.562V22.8h0.026a0.143,0.143,0,0,1,.1-0.078,4.922,4.922,0,0,1,1.1.13,0.4,0.4,0,0,0,.131.156,0.442,0.442,0,0,0-.1.234h0.026a0.227,0.227,0,0,1,.131-0.026c-0.009.457-.007,0.448,0,0.832h0.81V23.6a0.684,0.684,0,0,1-.209-0.286c0.065-.034.018,0.011,0.052-0.052a0.174,0.174,0,0,1-.1-0.156H16.6V22.874H16.575V22.848H16.5v-0.13c-0.072-.011-0.058-0.087-0.052-0.234a0.18,0.18,0,0,0,.1-0.182,2.341,2.341,0,0,0-1.49-.182V21.99a5.878,5.878,0,0,0,1.359-.026,1.3,1.3,0,0,0,.418-0.286A7.408,7.408,0,0,1,17.7,21.6a0.2,0.2,0,0,0,.078.078V21.391a0.093,0.093,0,0,1-.026-0.052H17.83a0.407,0.407,0,0,0,.34.312,1.783,1.783,0,0,1,.418-0.052V21.548a0.361,0.361,0,0,1-.1-0.156,1.538,1.538,0,0,1,.183-0.1l1.072,0.182a0.647,0.647,0,0,0,.1.13,1.044,1.044,0,0,0-.078.208h0.157v0.468h0.026A0.094,0.094,0,0,1,20,22.25V22.2a3.667,3.667,0,0,1,0-.416v-1.43a0.127,0.127,0,0,1-.078-0.026c0.1-.01.056-0.07,0.1,0a0.127,0.127,0,0,1,.079.026H20.026V23.29h0.1l0.052-.234-0.026-.026c-0.019-.04-0.038,0-0.052-0.026s0.014-.267,0-0.286a1.2,1.2,0,0,0,.235-0.182,0.613,0.613,0,0,0,.34.052c0.185,0.044.221,0.149,0.209,0.39a0.069,0.069,0,0,0,.026.052,0.333,0.333,0,0,0-.1.026,0.649,0.649,0,0,1,.052.182,3.7,3.7,0,0,0,.628-0.026v0.1h0.078a2.051,2.051,0,0,1,.052-0.7v0.52h0.026a2.267,2.267,0,0,1,.6-0.052A3.724,3.724,0,0,1,23.085,23a1.4,1.4,0,0,0,.052-0.468h0.026v0.416h0.131c0.005,0.036-.021-0.01-0.026.026C23.218,23,23.32,23,23.32,23a0.227,0.227,0,0,1,.131-0.026c0.005,0.036-.021-0.011-0.026.026-0.05.02,0.052,0.026,0.052,0.026a0.436,0.436,0,0,1,.262,0V21.261a2.407,2.407,0,0,1,.052-0.728v2.5c0.22,0.009.477,0.025,0.732,0.026a0.326,0.326,0,0,0-.026-0.1h0.078V22.536c0.1,0,.092-0.07.078-0.234a0.093,0.093,0,0,0,.026-0.052h0.026v0.1h0.575v-0.1h0.026V22.3a0.554,0.554,0,0,1,.026.26,0.088,0.088,0,0,1,.078,0,2.833,2.833,0,0,0-.026.494,2.505,2.505,0,0,0,.6.026,0.372,0.372,0,0,0,.079-0.182,0.255,0.255,0,0,1-.131-0.1,1.589,1.589,0,0,0,.026-0.26,0.693,0.693,0,0,0,.235-0.182,1.233,1.233,0,0,1,.288.208,0.4,0.4,0,0,0,0,.286c-0.114.021-.1,0.029-0.1,0.156a0.3,0.3,0,0,1,.052.13h0.235c0-.4,0-0.638,0-1.014a4.215,4.215,0,0,0-1.1-.468v-0.26a0.166,0.166,0,0,1-.183-0.13,0.143,0.143,0,0,0,.078-0.1c-0.085-.021-0.04.013-0.078-0.052a0.1,0.1,0,0,0,.052-0.078,0.218,0.218,0,0,0,.078.052,1.357,1.357,0,0,1,.915-0.1V20.429a1.212,1.212,0,0,1,.6-0.078,0.838,0.838,0,0,1,.34-0.052V20.247a0.481,0.481,0,0,1-.026-0.234l0.235,0.026a0.849,0.849,0,0,1,.026.26l0.235,0.026v-0.1h0.079v0.1a1.405,1.405,0,0,0,.392.026v0.338h0.575V20.611l-0.444-.1V20.091a2.6,2.6,0,0,0,.6-0.6,0.391,0.391,0,0,1,.235,0v0.078h0.6v0.936H29.83a1.019,1.019,0,0,1-.392.1,9.507,9.507,0,0,1,.026.988h0.052a1.163,1.163,0,0,1,.026-0.468V21.6H29.83V21.131h0.052v0.026a1.681,1.681,0,0,0,0,.624h0.235v1.534h0.209V23.108l0.209-.026V22.8h0.052v-0.26c0-.413-0.046-0.875.34-0.91a0.257,0.257,0,0,1,.209,0,0.408,0.408,0,0,1,.026.13,0.175,0.175,0,0,1,.026.1,0.126,0.126,0,0,1-.078-0.026,0.093,0.093,0,0,1-.026-0.052,0.159,0.159,0,0,0,.052-0.052H31.111V21.7a0.45,0.45,0,0,0-.392.156v1.456a0.19,0.19,0,0,0,.209-0.052c-0.111-.037-0.11-0.086-0.1-0.234H30.85V23h0.078a3.07,3.07,0,0,1-.026-0.468h0.026V22.51a0.866,0.866,0,0,0,.314.026v0.026c-0.034.014-.019,0-0.026,0.026a0.228,0.228,0,0,0,.131.026,3.01,3.01,0,0,0,.131-1.4,0.409,0.409,0,0,1-.209-0.026,0.824,0.824,0,0,0,.261-0.026,0.1,0.1,0,0,0-.052-0.026c-0.043-.026-0.167-0.025-0.209-0.052h0.261c0.031-.16.089-0.168,0.288-0.156v0.13H32c0.1-.44.574-0.013,0.81,0a0.257,0.257,0,0,1,.052-0.156,0.378,0.378,0,0,0-.131.026v-0.1a0.986,0.986,0,0,0,.288,0,1.17,1.17,0,0,1,.026.338,0.225,0.225,0,0,0-.026.13h0.026V21.261a0.586,0.586,0,0,1,.262-0.338c0-1.509.079-2.517,0.078-3.979,0-.426,0-0.866,0-1.222a1.538,1.538,0,0,1,.026-0.572c0,1.289.021,2.872,0.078,4.187h0.078a2.079,2.079,0,0,0-.052-0.7,0.321,0.321,0,0,0,.288-0.052c-0.057-.012-0.045,0-0.052-0.026V18.531H33.726a1.61,1.61,0,0,1,.235-0.1A4.839,4.839,0,0,1,35.5,17.8c0.01,0.068-.02.034,0.052,0.052a0.109,0.109,0,0,0,.131-0.026c0.052-.069-0.015-0.074.157-0.078a1.213,1.213,0,0,1,.366-0.078,0.364,0.364,0,0,0,0,.13,0.167,0.167,0,0,1,.131.026,1.929,1.929,0,0,1,.1.806,0.23,0.23,0,0,1,.235.052c-0.036.005,0.011-.021-0.026-0.026-0.02-.05-0.026.052-0.026,0.052,0.056,0.058-.013.231,0.052,0.338a0.285,0.285,0,0,1,.052-0.078,5.783,5.783,0,0,1,.1,1.951h0.131a2.093,2.093,0,0,1,.157.338h0.052v-0.1a0.7,0.7,0,0,1-.026-0.312,0.37,0.37,0,0,1,.1-0.026,0.274,0.274,0,0,0,.209,0v0.1a0.124,0.124,0,0,0-.131,0,0.122,0.122,0,0,1,.052.13,0.768,0.768,0,0,0,.445-0.208,0.353,0.353,0,0,1,.288.078h0.5l0.052,0.156a0.552,0.552,0,0,1,.261.026l-0.261.026v0.052a0.551,0.551,0,0,1,.261.026,0.406,0.406,0,0,0-.209.026,1.41,1.41,0,0,0-.026.546,1.091,1.091,0,0,0-.575.234c0.089,0.129.064,0.366,0.157,0.494a0.487,0.487,0,0,0,.235.026c0.022-.084-0.013-0.04.052-0.078v0.078h0.1a0.563,0.563,0,0,1,.1-0.546,0.326,0.326,0,0,0,.026.1h0.026V22.068A0.2,0.2,0,0,1,38.9,21.99a0.327,0.327,0,0,0,.026.1h0.026V22.068c0.017-.022.035-0.082,0.052-0.1V21.99a1.174,1.174,0,0,0,.1.156,0.532,0.532,0,0,0-.052.39,0.733,0.733,0,0,0,.392-0.052L39.5,22.51a3.566,3.566,0,0,0,.392,0V22.12h0.288a2.824,2.824,0,0,0,.392-0.65H40.549a0.133,0.133,0,0,1-.078.026c-0.023-.182-0.154-0.313-0.183-0.468-0.012-.064,0-0.073.052-0.078l-0.078-.208a0.552,0.552,0,0,0,.235-0.156c0.064,0.094.127,0,.235-0.026a0.84,0.84,0,0,0,.131.286V20.819c0.026-.026.026,0.026,0.026,0.026a0.228,0.228,0,0,0,.157.156,2.644,2.644,0,0,1,.654-0.26c0.319-.14.773-0.335,1.15-0.494a4.393,4.393,0,0,1,.549-0.182,0.093,0.093,0,0,1,.026.052,0.113,0.113,0,0,0-.078.078h0.784a1.969,1.969,0,0,1,.706-0.026l1.569-.026a1.455,1.455,0,0,1,.6,0,0.175,0.175,0,0,1,.052.13,0.3,0.3,0,0,0-.052.078,9.961,9.961,0,0,0-2.275.39,10.656,10.656,0,0,0-1.229.234,2.77,2.77,0,0,0-.5.364c-0.37.26-.722,0.54-1.1,0.78a0.7,0.7,0,0,1,0,.312c0.577,0.026.9-.036,1.333,0a0.335,0.335,0,0,0,.079-0.208s-0.1-.005-0.052-0.026H43.32c0.038-.066.011-0.04,0.1-0.052v0.026H43.4c-0.05.02,0.052,0.026,0.052,0.026a1.353,1.353,0,0,1,.523-0.026,3,3,0,0,0,.209-0.52,14.2,14.2,0,0,0,1.569-.026v0.312H45.8a1.36,1.36,0,0,1,.6,0,0.7,0.7,0,0,0,.288-0.052h0.366v0.052l0.418-.026a2.107,2.107,0,0,1,0,.364h0.1c0.022,0.084-.013.04,0.052,0.078V22.042c-0.019-.04,0,0,0-0.078l0.261-.026V19c0.056-.035.094-0.072,0.157-0.1V19.1a0.281,0.281,0,0,1,.026.156h0.078c0-.131-0.026-0.572-0.026-0.572a0.393,0.393,0,0,1,.262-0.1,0.325,0.325,0,0,0-.079-0.13,5.743,5.743,0,0,1,2.51-.858V17.62c-0.072.042-.025,0-0.026,0.1h0.1V17.75h0.026a1.519,1.519,0,0,1,.078.832,1.361,1.361,0,0,1,.314.1V18.453a0.592,0.592,0,0,1-.052-0.416h0.261v0.416H51.477v2.887h0.157v0.52h0.444a1.4,1.4,0,0,1,.026-0.546V21.86l0.366-.026c0.026-.383.026-0.851,0.026-1.274H52.235a2,2,0,0,0-.052-0.754h0.34V19.571h0.235a0.387,0.387,0,0,1-.026.234h0.889V13.121l0.078-.026v-0.26a2.138,2.138,0,0,0,.078-0.884H53.595a0.217,0.217,0,0,1-.026.13v-0.13a0.572,0.572,0,0,0-.314.1,0.144,0.144,0,0,1,0-.1h-0.1V11.9h0.627C53.778,11.265,53.775,10.555,53.778,10Zm0.157,0.962a0.259,0.259,0,0,1,.078.13H53.882V11.04A0.1,0.1,0,0,0,53.935,10.962Zm0.078,1.977a0.408,0.408,0,0,1,.078.13H53.961V13.017C54.027,12.979,53.99,13.023,54.013,12.939ZM35.556,17.776a0.221,0.221,0,0,1,.131.026A0.219,0.219,0,0,1,35.556,17.776Zm-2.954.052c0.029,0.043.046,0.028,0,.052V17.828Zm0.1,0.1a0.141,0.141,0,0,1,.1.078h0.026v0.026A0.2,0.2,0,0,1,32.706,17.932Zm0.157,0.13a0.142,0.142,0,0,1,.1.078h0.026v0.026H32.941Zm0.157,0.13a0.141,0.141,0,0,1,.1.078H33.15V18.3A0.2,0.2,0,0,1,33.02,18.193Zm0.157,0.13a0.141,0.141,0,0,1,.1.078h0.026v0.026A0.2,0.2,0,0,1,33.177,18.323Zm-2.065,3.745c0.071,0.041.066,0.023,0.078,0.13H31.163v0.026L31.085,22.2A0.372,0.372,0,0,1,31.111,22.068Zm-5.2.442h0.052v0.026A0.09,0.09,0,0,1,25.909,22.51ZM30.3,23.03c0.063,0.054.006,0.025,0.026,0.078C30.279,23.124,30.306,23.055,30.3,23.03ZM2.275,24.2l0.078,0.026v0.026H2.3Zm0.68,0.312,0.157,0.052V24.59H3.033A0.933,0.933,0,0,1,2.954,24.512ZM3.111,24.59H3.163v0.026A0.09,0.09,0,0,1,3.111,24.59Zm0.052,0.026H3.216v0.026A0.09,0.09,0,0,1,3.163,24.616Zm2.824,3.225c-0.018.367-.049,0.613,0.34,0.6a2.9,2.9,0,0,0,.549.052,4.967,4.967,0,0,0,1.516-.052,1.249,1.249,0,0,0,.654-0.078H8.915a3.238,3.238,0,0,0-.863-0.156C7.569,28.086,7,28.039,6.51,27.919,6.326,27.875,6.144,27.9,5.987,27.841Z"/>
</svg>
