<svg xmlns="http://www.w3.org/2000/svg" width="40" height="40" viewBox="0 0 40 40">
  <defs>
    <style>
      .cls-1 {
        fill: #fff;
        fill-rule: evenodd;
      }
    </style>
  </defs>
  <path id="Color_Fill_1" data-name="Color Fill 1" class="cls-1" d="M4.341,18.317c0-.653,0-1.156,0-1.881a0.971,0.971,0,0,1,.341.049,6.758,6.758,0,0,0,0,1.832c1.125,0,2.078,0,3.268,0A2.614,2.614,0,0,1,8.2,17.178l0.2,0.1a1.98,1.98,0,0,0-.049.4,0.284,0.284,0,0,0,.146-0.05V17.574s0.576,0.1.732,0.1v-0.1a0.434,0.434,0,0,1-.049-0.248,0.757,0.757,0,0,1,.244-0.049,0.637,0.637,0,0,0,.341.049L9.8,15.4a2.222,2.222,0,0,1,.049-0.841c0,0.925.025,1.923,0.049,2.772a0.971,0.971,0,0,1,.341.05c0.04-.161-0.024-0.076.1-0.149v0.149h0.39l0.1-.2a3.611,3.611,0,0,0,1.512.2V16.931h0.146c0.02,0.13.078,0.107,0.341,0.1,0.071-.126-0.011-0.056.146-0.1v0.3a1.035,1.035,0,0,0,.341.05V17.03h0.2a4.1,4.1,0,0,1-.049-0.644,1.272,1.272,0,0,0-.878-0.247v0.148a1.713,1.713,0,0,0-.488.149,1.735,1.735,0,0,0-.2-0.693H12.2a0.723,0.723,0,0,0,.488.1v-0.1c-0.155-.106-0.034-0.171,0-0.4h0.146v0.1c0.083,0.091-.054.1,0.146,0.149l0.049-.149c-0.158-.041-0.075.024-0.146-0.1,0.372-.008.34-0.127,0.683-0.149v0.149c0.873,0.008,1.165,0,2,0a0.632,0.632,0,0,1,.049-0.2h0.049c0.009,0.245.009,0.272,0.244,0.3a0.892,0.892,0,0,0,.439.05,0.242,0.242,0,0,1,.049-0.148V15.5c1.237,0,2.481.095,3.8,0.1v0.149a10.808,10.808,0,0,0-2.78.1v0.1h0.1a0.325,0.325,0,0,1,.2-0.05v0.2c-0.386-.009-0.617.045-1.122,0.05v0.1a0.146,0.146,0,0,1,0,.2l-0.049-.3H16a0.189,0.189,0,0,1-.146.1v0.049a2.758,2.758,0,0,1,1.073.248v0.99c0.127,0.171.061,0.248-.049,0.4,0.455,0.053.737,0.2,1.122,0.247a0.241,0.241,0,0,0,.049.149v-0.05H18.1a3.4,3.4,0,0,1,.244-0.445,0.166,0.166,0,0,1,.1.05,2.366,2.366,0,0,1,.293.4h0.781a0.619,0.619,0,0,1,.585.05,0.312,0.312,0,0,0-.2.049h0.049a0.345,0.345,0,0,1,.2,0c0.278,0.163-.076.45,0.683,0.446a7.383,7.383,0,0,0,2.049.1c1.927,0.025,4.163.273,5.951,0.148V18.812H32v0.346h0.1a10.454,10.454,0,0,1,1.659,0c1.485,0,2.656-.071,3.951,0v-0.1a0.255,0.255,0,0,1-.049-0.148H37.9a0.787,0.787,0,0,1,.049.247H40V20c-6.532-.012-12.755.243-19.561,0.247-0.621,1.069-1.145.634-2.537,0.891v0.1a0.2,0.2,0,0,1,.2.1,5.29,5.29,0,0,0,1.512-.1,0.324,0.324,0,0,1,.049-0.2v0.2a1.35,1.35,0,0,1,.585.1,0.368,0.368,0,0,1,.1-0.3,0.167,0.167,0,0,1,.1.049,0.377,0.377,0,0,1,.146.149c0.45-.453.856-0.411,1.756-0.4,0.483,0.356.829,0.108,1.512,0.1v0.3a4.777,4.777,0,0,0,1.122.148c0.08-.074.171-0.166,0.244-0.247,0.525,0.127.464,0.469,0.927,0.5,0.019-.13-0.036-0.065.1-0.1,0.078,0.053.73,0.112,0.537,0.247h0.146a0.638,0.638,0,0,0,.341.05,0.323,0.323,0,0,1,.049-0.2v0.247a3.267,3.267,0,0,1,.537.1,0.634,0.634,0,0,1,.244-0.346,0.853,0.853,0,0,1,.537.3,0.254,0.254,0,0,1,.049.148c0.223,0.029.951,0.272,0.976,0.247A0.452,0.452,0,0,0,30,21.98h0.341a0.892,0.892,0,0,0,.39.5,0.633,0.633,0,0,1,.049-0.2h0.049c0,0.223-.015.229,0.146,0.3a0.394,0.394,0,0,0,.293.049,1.065,1.065,0,0,1,.2-0.248,0.415,0.415,0,0,1-.1-0.149c0.128,0,.062.044,0.146-0.1a0.83,0.83,0,0,1,.2.2c0.292,0.179.379-.139,0.634,0.05-0.115.126-.009,0.141-0.146,0.2a0.607,0.607,0,0,0-.585-0.149v0.1h0.049a0.631,0.631,0,0,0,.341.248,1.306,1.306,0,0,0,.488.049,2.259,2.259,0,0,1,.244-0.2,1.205,1.205,0,0,0-.39-0.049,0.77,0.77,0,0,1,.2-0.446,0.849,0.849,0,0,0,.049.3c0.871,0.024,1.6.358,2.488,0.4l0.049-.148a0.581,0.581,0,0,0,.1-0.446h0.634a3.077,3.077,0,0,1,.293.842H36.1a1.391,1.391,0,0,0-.244-0.1v0.148a0.378,0.378,0,0,1,.39.247H36.2a0.42,0.42,0,0,0-.2.149c0.221,0.016.2-.006,0.244,0.2a1.647,1.647,0,0,1-.927.346c-0.05.068-.031-0.014-0.146-0.05a2.209,2.209,0,0,1-.537.594,0.3,0.3,0,0,1,.1.2,0.319,0.319,0,0,0-.244,0l-0.244.2,0.049,0.247c-0.148-.023-0.153-0.1-0.2-0.049l-0.878.842a0.382,0.382,0,0,1,.049.247h-0.1c-0.084.039-.026-0.075-0.146,0a0.253,0.253,0,0,0-.146.248,2.65,2.65,0,0,1-.1,1.287H32.634V27.178a16.376,16.376,0,0,1-1.9.4,2.833,2.833,0,0,1-5.61-.149H23.463a3.014,3.014,0,0,1-1.8,2.327A2.885,2.885,0,0,1,17.8,27.426H16.781a2.821,2.821,0,0,1-5.61,0H10.2a2.885,2.885,0,0,1-4.683,1.832,3.208,3.208,0,0,1-.829-1.188l-0.146-.644H3.9c0.02,0.112.045,0.054,0,.149a0.326,0.326,0,0,0-.293-0.2V27.228a0.963,0.963,0,0,0-.78-0.4,3.789,3.789,0,0,1-.049.743H2.634V26.832H2.585v-0.05a0.312,0.312,0,0,1-.2-0.049,0.539,0.539,0,0,0,.049-0.446,2.619,2.619,0,0,0-1.366-.594V25.545a0.861,0.861,0,0,0,.439-0.891,1.151,1.151,0,0,0,.537-0.05H0.537L0.488,23.96l-0.244-.148a2.682,2.682,0,0,1,0-.644,1.368,1.368,0,0,0-.2-0.1A1.688,1.688,0,0,1,.1,22.277a0.483,0.483,0,0,0,.39-0.3,0.61,0.61,0,0,1-.1-0.545h0.1v0.049H0.537V21.337c0.6,0,1.188-.075,1.659-0.1V20.99H2.244V21.04a0.255,0.255,0,0,1,.049.148l0.537,0.05c0.016-.11-0.051-0.053.049-0.1a0.246,0.246,0,0,0,.146.049,0.882,0.882,0,0,1,.1-0.2,0.241,0.241,0,0,0,.049.148,0.534,0.534,0,0,1,.634-0.05c0.04-.012.155-0.136,0.2-0.148H5.512c0.106,0.039.187,0.208,0.293,0.247a1.65,1.65,0,0,1,.634.149,4.76,4.76,0,0,1,.585-0.149,0.642,0.642,0,0,1,.39.149,2.673,2.673,0,0,0,1.317-.2H8c-0.175-.257-1.388-0.154-1.8-0.247-0.743-.166-1.586-0.068-2.39-0.248a9.215,9.215,0,0,0-2.2-.3V20.1H1.561a0.325,0.325,0,0,1-.2.049V20H0.976c0-.537-0.015-1.12-0.049-1.584L2,18.366V18.02H2.1a13.561,13.561,0,0,1,0-2.376V10.3H2.146v0.05H2.2a7.891,7.891,0,0,0-.049,1.98v4.059A9.257,9.257,0,0,1,2.2,18.02c0.131,0.021.107,0.123,0.1,0.4H2.341a3.356,3.356,0,0,1,1.024-.1,0.788,0.788,0,0,0,.146-0.594c0.287-.2.146-1.41,0.146-1.881V11.634A4.725,4.725,0,0,1,3.707,10v7.129a4.236,4.236,0,0,1,.146,1.089A1.316,1.316,0,0,0,4.341,18.317Zm11.951-3.168a0.146,0.146,0,0,1,0,.2v-0.2Zm-3.219.545a0.141,0.141,0,0,0,.2,0h-0.2Zm0.293,0a0.667,0.667,0,0,0,.537,0H13.366Zm-0.537.05v0.149a0.234,0.234,0,0,0,.146-0.05h0.049v-0.05H12.976v-0.05H12.829Zm3.9,0.445a2.456,2.456,0,0,1,.976.05A2.453,2.453,0,0,1,16.732,16.188Zm-2.927.248c0.04,0.161-.024.076,0.1,0.149a0.3,0.3,0,0,1,.1-0.1V16.436H13.8Zm-0.146.049-0.049.149h0.049v-0.05C13.719,16.507,13.69,16.559,13.659,16.485Zm-9.219.05a0.378,0.378,0,0,1,0,.247h0.1V16.535h-0.1Zm9.561,0v0.1h0.1v-0.1H14Zm0.781,0.148v0.2h0.1A0.2,0.2,0,0,0,14.781,16.683Zm-0.829.594H14.2V16.931a0.985,0.985,0,0,1,.293,0v-0.2H13.854a0.914,0.914,0,0,0-.049.3C13.994,17.035,13.95,17,13.951,17.277Zm0.976,0.148c0.084,0.044.062,0.044,0.146,0H14.927Zm-6.244.347v0.3H8.732a1.106,1.106,0,0,1,.293-0.247V17.772H8.683ZM8.1,17.822v0.445H8.537V17.822H8.1Zm10.293,0.1v0.05c-0.151.085-.021,0.234,0.1,0.148S18.453,17.969,18.39,17.921Zm0.781,0.4-0.049.148h0.1A0.241,0.241,0,0,0,19.171,18.317ZM1.317,20.2H1.463a0.529,0.529,0,0,1,.1.247,0.3,0.3,0,0,0-.1.1,0.167,0.167,0,0,1-.1-0.05,0.386,0.386,0,0,1-.146-0.1Zm0,0.4h0.1v0.049h-0.1V20.594Zm19.024,0.544c0.011,0.075-.018.176,0.1,0.1h0.049v-0.05H20.439A0.175,0.175,0,0,0,20.342,21.139Zm-20.1,1.485a0.242,0.242,0,0,0,.049.149A0.241,0.241,0,0,0,.244,22.624ZM34.829,22.97l-1.707-.3v0.3h0.1a5.715,5.715,0,0,0,1.561.3A0.544,0.544,0,0,0,34.829,22.97ZM2.244,25.347L2.293,25.5H2.341A0.188,0.188,0,0,0,2.244,25.347Z" transform="translate(0 0.016)"/>
</svg>
