<?xml version="1.0" encoding="utf-8"?>
<!-- Generator: Adobe Illustrator 16.0.0, SVG Export Plug-In . SVG Version: 6.00 Build 0)  -->
<!DOCTYPE svg PUBLIC "-//W3C//DTD SVG 1.1//EN" "http://www.w3.org/Graphics/SVG/1.1/DTD/svg11.dtd">
<svg version="1.1" id="Layer_1" xmlns="http://www.w3.org/2000/svg" xmlns:xlink="http://www.w3.org/1999/xlink" x="0px" y="0px"
	 width="40px" height="40px" viewBox="0 0 40 40" enable-background="new 0 0 40 40" xml:space="preserve">
<path id="Color_Fill_1" fill="#FFFFFF" d="M12.6,13.161h0.288c0.062,0.119-0.021,0.033,0.1,0.1c-0.117,0.359-0.151,0.739-0.1,1.113
	h0.1c0.128,0.097,0.305,0.097,0.433,0v0.042h-0.056c-0.092,0.038,0.1,0.048,0.1,0.048c0.261-0.02,0.522,0.015,0.769,0.1
	c0.052-0.338,0.235-0.315,0.721-0.29c0.042-0.031,0.093-0.048,0.145-0.048c-0.005-0.103,0.051-0.198,0.144-0.242
	c-0.03,0.217,0.009,0.26,0.337,0.242c0.034-0.337,0.05-0.677,0.048-1.016c-0.157-0.14-0.336-0.254-0.529-0.339
	c-0.054,0.071-0.088,0.154-0.1,0.242c-0.052,0.001-0.103-0.016-0.144-0.048c-0.087-0.138,0.081-0.12-0.144-0.194
	c-0.051,0.053-0.119,0.088-0.192,0.1v-0.1c-0.04-0.074-0.057-0.158-0.048-0.242h-0.385v0.145c-0.124,0.043-0.255,0.059-0.385,0.048
	c-0.075-0.173-0.139-0.351-0.192-0.532h0.19c0.274,0.108,0.573,0.143,0.865,0.1c0.04-0.157-0.024-0.074,0.1-0.145v0.145
	c0.483-0.006,0.973-0.021,1.442,0c0-0.153-0.081-0.065,0.048-0.145c0.507,0.186,1.055,0.236,1.587,0.145
	c-0.01-0.084,0.007-0.168,0.048-0.242v0.194c0.091,0.046,0.188,0.08,0.288,0.1c0.163-0.096,0.342-0.161,0.529-0.194v0.194
	c0.062,0.007,0.116,0.044,0.144,0.1c0.191-0.027,0.386-0.027,0.577,0v0.145l-0.769,0.048v0.1c-0.073,0.142-0.137,0.287-0.192,0.436
	c0.029,0.188,0.094,0.369,0.192,0.532c0.041,0.272,0.057,0.548,0.048,0.823h0.143c-0.022-0.046-0.022-0.099,0-0.145h0.05
	c0,0.052,0.017,0.104,0.048,0.145c0-0.052,0.016-0.104,0.048-0.145c0.239,0.04,0.482,0.04,0.721,0v-0.065h-0.05
	c-0.093-0.037,0.1-0.048,0.1-0.048c0.483,0.144,0.986,0.209,1.49,0.194c0.003,0.12,0.038,0.236,0.1,0.339
	c0.063-0.016,0.13-0.016,0.192,0v-0.046c-0.119-0.063-0.033,0.021-0.1-0.1h0.047c0.336,0.237,0.753,0.324,1.154,0.242
	c0.237,0.122,0.51,0.157,0.77,0.1c-0.038-0.004-0.074-0.021-0.1-0.048h0.191l-0.049,0.1h0.049c0.627,0.026,1.244,0.157,1.826,0.387
	c0.047,0.316,0.307,0.558,0.625,0.581c0.391,0.286,0.904,0.341,1.347,0.145c0.324-0.046,0.654-0.012,0.962,0.1
	c0.455,0.1,1.021-0.251,1.49,0.048c-0.053-0.001-0.104,0.016-0.145,0.048c1.697-0.147,3.402-0.164,5.101-0.048l-0.048,0.1h0.048
	c0.338-0.262,1.317,0.061,1.971,0c0.241,0.031,0.485-0.039,0.673-0.194c0.154,0.08,0.314,0.145,0.481,0.194
	c0.068-0.042,0.133-0.09,0.192-0.145c0.459,0.092,0.926,0.141,1.394,0.145v-0.349c0.177-0.004,0.354,0.012,0.528,0.048
	c0.043,0.109,0.043,0.23,0,0.339H40v0.679c-0.422-0.027-0.846,0.021-1.25,0.145c0.053-0.001,0.103,0.016,0.145,0.048H38.8
	c-0.303,0.034-0.608,0.05-0.913,0.048c-0.063,0.15-0.162,0.283-0.287,0.387c0.08,0.142,0.051,0.021,0.047,0.242H37.5v-0.048h0.048
	c0.093-0.038-0.1-0.048-0.1-0.048v0.048H37.4c0.02,0.147,0.004,0.296-0.049,0.435v-0.047l-0.287-0.388
	c0.053-0.024,0.102-0.059,0.144-0.1c-0.152-0.001-0.288-0.099-0.337-0.242c0.033-0.075,0.006-0.006,0-0.146h-0.044
	c-0.104,0.139-0.261,0.227-0.433,0.242v0.049c0.051-0.001,0.102,0.016,0.144,0.047H36.49c-0.105,0.047-0.223,0.063-0.338,0.049
	c-0.106-0.082-0.176-0.205-0.191-0.34h-0.047c-0.006,0.066-0.021,0.133-0.048,0.193h-0.05c0.015-0.096,0.015-0.193,0-0.29h-0.1
	c0.02,0.142,0.079,0.062-0.048,0.146c-0.044-0.096-0.109-0.178-0.192-0.242l-0.144-0.048v0.05c0.119,0.063,0.033-0.021,0.101,0.1
	h-0.049c-0.041-0.031-0.092-0.047-0.144-0.048v-0.145c-0.128,0.018-0.257,0.018-0.386,0v0.048H34.9
	c0.041,0.031,0.092,0.048,0.144,0.048c0.001,0.052-0.017,0.104-0.048,0.146c-0.027,0.025-0.063,0.043-0.1,0.047
	c-0.156,0.045-0.319,0.062-0.481,0.049c-0.045-0.164-0.019-0.151-0.192-0.194c-0.057,0.128,0.043,0.087-0.1,0.146v0.048h-0.036
	v-0.043c-0.026-0.044-0.043-0.094-0.048-0.146h-0.1c0,0.133,0,0.057-0.101,0.194c-0.103-0.06-0.218-0.095-0.337-0.101
	c-0.04,0.044-0.09,0.078-0.145,0.101c-0.077-0.026-0.158-0.042-0.239-0.048c-0.156-0.04-0.074,0.023-0.144-0.1h0.047
	c0.049-0.05-0.047-0.049-0.047-0.049c-0.179,0.164-0.067-0.1-0.289,0c-0.034,0.061-0.084,0.11-0.144,0.145
	c0.001-0.052-0.017-0.103-0.048-0.145c-0.184,0.215-0.164-0.033-0.529,0c-0.463,0.049-0.931,0.049-1.395,0v0.047
	c0.034,0.078,0.034,0.165,0,0.242c-0.036,0.033-0.106,0.063-0.144,0.1c0.06,0.076,0.031,0.025,0,0.101
	c-0.026-0.026-0.062-0.044-0.1-0.048c0-0.135,0.056-0.1-0.144-0.145c-0.055,0.139-0.009,0.088-0.145,0.145
	c-0.001-0.038-0.015-0.075-0.039-0.104c0.036-0.043,0.061-0.056,0.1-0.101h-0.052v-0.045c-0.05,0.056-0.118,0.092-0.192,0.1V17.71
	H29.9c0.093-0.038-0.101-0.048-0.101-0.048c0.017,0.063,0.017,0.131,0,0.193c-0.099-0.023-0.195-0.057-0.288-0.1
	c0.063-0.006,0.116-0.045,0.145-0.1c-0.066-0.006-0.131-0.021-0.192-0.049c-0.004,0.039-0.021,0.074-0.048,0.101
	c0.033,0.121,0.113,0.09,0.048,0.146c-0.108,0.043-0.222,0.076-0.337,0.1c-0.095,0.072,0.027,0.068-0.145,0.1
	c-0.063,0.065-0.148,0.102-0.239,0.1c0-0.217-0.043-0.105,0.048-0.241c-0.092-0.168-0.248-0.29-0.434-0.339v0.044
	c0.156,0.04,0.074-0.024,0.145,0.1c-0.041,0.091-0.023,0.036,0,0.146c-0.038,0.004-0.073,0.021-0.1,0.048
	c-0.094-0.042-0.189-0.075-0.289-0.101c-0.035,0.088-0.104,0.157-0.191,0.194c0.057-0.212-0.044-0.435-0.24-0.532
	c-0.27-0.078-0.559-0.062-0.816,0.049c-0.463,0.137-0.988,0.26-1.442,0.387c-0.264-0.006-0.525,0.044-0.769,0.145h0.1
	c0.683,0.123,1.38,0.139,2.066,0.049v0.193c0.22,0.063,0.445,0.098,0.674,0.1c0.237-0.047,0.479-0.063,0.721-0.047
	c0.252,0.037,0.617,0.164,0.817,0.193c0.335,0.048,1.194-0.039,1.25,0c0.467,0.352,1.06,0.492,1.635,0.387
	c-0.019,0.467,0.116,0.926,0.385,1.307c-0.106,0.511-0.17,1.028-0.192,1.549c-0.184,0.121-0.405,0.173-0.625,0.145
	c-0.059-0.041-0.123-0.074-0.191-0.1l-0.145,0.531c-0.151,0-0.064-0.082-0.144,0.049c-0.034,0.166-0.118,0.318-0.239,0.436
	c-0.11,0.014-0.212,0.064-0.289,0.145h0.049c0.024-0.041,0.059-0.074,0.1-0.1v0.1h-0.048c-0.138,0.106-0.282,0.203-0.433,0.291
	c-0.061-0.029-0.126-0.045-0.192-0.049H29.9l0.048,0.101H29.9c-0.156,0.12-0.337,0.203-0.529,0.241v-0.055h0.048
	c0.093-0.037-0.101-0.048-0.101-0.048l0.057,0.148l-0.575,0.19v-0.049h0.048c0.092-0.037-0.1-0.048-0.1-0.048v0.048H28.7
	c0.026,0.094,0.079,0.041,0,0.1c-0.104,0.078-0.218,0.143-0.337,0.194c-0.186,0.044-0.112-0.139-0.191-0.048h-0.047
	c0.025,0.094,0.079,0.041,0,0.1c-0.118,0.101-0.318,0.133-0.434,0.242c-0.049-0.057-0.117-0.092-0.191-0.1v0.1
	c0.038,0.004,0.073,0.021,0.1,0.049c-0.231,0.035-0.457,0.101-0.673,0.193c0,0,0.188,0.01,0.101,0.048h-0.101
	c-0.206,0.116-0.437,0.183-0.673,0.194c-0.013,0.125,0.021,0.086-0.191,0.1c-0.162,0.035-0.33,0.018-0.481-0.048
	c-0.151,0.115-0.347,0.152-0.529,0.101c-0.052-0.022,0.017-0.129-0.144-0.101c-0.211,0.11-0.463,0.11-0.674,0
	c-0.156,0.101-0.346,0.136-0.528,0.101c-0.041-0.018,0.01-0.151-0.144-0.101v0.101c-0.184,0.035-0.373-0.001-0.529-0.101
	c-0.126-0.036-0.333,0.132-0.577,0.101h-0.101v-0.101h-0.144v0.101c-0.228,0.002-0.456-0.031-0.673-0.101v0.101
	c-0.229,0.002-0.455-0.031-0.673-0.101v0.101c-0.229,0.002-0.456-0.031-0.673-0.101v0.101c-0.228,0.002-0.456-0.031-0.673-0.101
	v0.101c-0.183,0.035-0.372-0.001-0.529-0.101c-0.126-0.036-0.332,0.132-0.577,0.101h-0.1v-0.101h-0.141v0.101
	c-0.228,0.002-0.456-0.031-0.673-0.101v0.101c-0.213,0.018-0.428-0.017-0.625-0.101c-0.177,0.095-0.379,0.13-0.577,0.101
	c-0.042-0.019,0.01-0.15-0.144-0.101v0.101c-0.228-0.006-0.453-0.04-0.673-0.101v0.101c-0.228-0.004-0.454-0.037-0.673-0.101v0.101
	c-0.167,0.032-0.341-0.004-0.481-0.101h-0.144c-0.087,0.056-0.187,0.089-0.289,0.101c-0.137-0.061-0.284-0.094-0.433-0.101v0.101
	c-0.228-0.004-0.454-0.037-0.673-0.101v0.101c-0.167,0.033-0.341-0.004-0.481-0.101h-0.143c-0.087,0.056-0.187,0.089-0.289,0.101
	c-0.137-0.061-0.284-0.094-0.433-0.101v0.101c-0.228-0.004-0.454-0.037-0.673-0.101v0.101c-0.198,0.02-0.397-0.016-0.577-0.101
	c-0.177,0.095-0.379,0.13-0.577,0.101c-0.042-0.019,0.01-0.149-0.144-0.101v0.101C9.258,25,9.043,24.967,8.846,24.882
	c-0.177,0.095-0.379,0.13-0.577,0.101v-0.101c-0.232,0.079-0.477,0.113-0.721,0.101C7.102,24.918,6.65,24.896,6.2,24.916v-0.045
	H6.154v-0.145H6.01C6,24.794,6.05,24.706,6.058,24.773c0.092,0.039-0.1,0.049-0.1,0.049l-0.481-0.29
	c0.024-0.063,0.024-0.132,0-0.194H5.433c0,0.153,0.081,0.064-0.048,0.145c-0.13-0.166-0.353-0.221-0.485-0.385
	c0.038-0.005,0.073-0.022,0.1-0.05H4.952V24c-0.04,0.043-0.089,0.078-0.144,0.1c-0.129-0.164-0.353-0.222-0.481-0.387
	c0.152,0,0.065,0.082,0.144-0.048c-0.494-0.039-0.931-0.333-1.154-0.774c-0.04,0.044-0.089,0.078-0.144,0.101l-0.385-0.435v-0.101
	l0.1,0.048c-0.342-0.461-0.766-0.854-1.25-1.161c-0.181,0.082-0.379,0.116-0.577,0.101c-0.077-0.1-0.126-0.216-0.144-0.34H0.865
	l0.048-0.1h0.049v0.048c0.045,0.099,0.134,0.171,0.24,0.194l0.048-0.145c-0.191-0.085-0.357-0.219-0.481-0.388L0,17.855
	c0.102-0.037,0.198-0.086,0.288-0.146H0v-0.146c2.081,0,3.979-0.049,6.154-0.049c1.122,0.067,2.246,0.051,3.365-0.048
	c0.146-0.018,0.294-0.001,0.433,0.048h1.058c0.04,0.044,0.073,0.093,0.1,0.146c0.107,0.06,0.081-0.081,0.144-0.101
	c0.119,0.082,0.249,0.146,0.385,0.194V17.71c-0.329-0.151-0.752-0.417-0.962-0.532L9.09,17.13h-2.4
	c-0.279-0.093-0.571-0.142-0.865-0.146c0-0.754,0-1,0-1.741c0.109-0.011,0.913-0.145,0.913-0.145
	c0.115-0.197,0.307-0.337,0.529-0.387c0.559-0.177,0.986,0.118,1.538-0.048c0.137-0.058,0.284-0.092,0.433-0.1v-0.147
	c0.732,0.016,1.238-0.077,1.49-0.048c0.057-0.128-0.043-0.087,0.1-0.145c0.292,0.037,0.589,0.002,0.865-0.1
	c0.025,0.041,0.059,0.075,0.1,0.1v-0.046h-0.062c-0.048-0.049,0.047-0.048,0.048-0.048c0.058-0.036,0.125-0.052,0.192-0.048
	c0.103,0.067,0.217,0.116,0.337,0.145v-1.31h0.144v-3c-0.032-0.534-0.016-1.069,0.048-1.6c-0.023-0.436,0.01-0.873,0.1-1.3V13.161z
	 M16.927,12.726c0.104,0.063,0.233,0.063,0.336,0h-0.34H16.927z M17.696,12.774v0.194h-0.581v0.048
	c-0.03,0.42-0.014,0.841,0.048,1.258c-0.031-0.339-0.015-0.681,0.048-1.016c0.162,0.024,0.327,0.007,0.481-0.048
	c0.1-0.137-0.048-0.116,0.1-0.194v0.242h0.288c-0.016-0.068,0.002-0.141,0.048-0.194c-0.119-0.063-0.033,0.021-0.1-0.1
	c0.045,0.023,0.099,0.023,0.144,0v-0.238c-0.225-0.033-0.455-0.017-0.673,0.048h0.192H17.696z M15.821,13.209v0.919l0.1,0.048v0.05
	h0.048c0-0.052,0.017-0.104,0.048-0.145v0.145l0.337,0.048l0.048-0.145c0.071-0.268,0.088-0.548,0.048-0.823
	c-0.119-0.063-0.033,0.021-0.1-0.1H16.3v1.02h-0.146c0.016-0.372,0.032-0.743,0.048-1.113c-0.09-0.088-0.21-0.14-0.336-0.145v0.048
	c0.076,0.038,0.13,0.11,0.144,0.194h-0.193L15.821,13.209z M16.638,12.967c0.03,0.12,0.079,0.234,0.144,0.339h-0.147v0.92h0.1
	c0.074,0.04,0.157,0.056,0.24,0.048c0.002-0.437,0.036-0.874,0.1-1.306h-0.44L16.638,12.967z M17.648,13.067
	c0.031,0.042,0.048,0.093,0.048,0.145h-0.052v-0.148L17.648,13.067z M17.985,13.067c0.026,0.027,0.043,0.063,0.048,0.1h-0.052v-0.1
	H17.985z M11.685,14.035h0.1v0.048c-0.039-0.004-0.075-0.022-0.102-0.051L11.685,14.035z M12.118,14.374
	c0.027,0.026,0.062,0.043,0.1,0.048c-0.027-0.028-0.063-0.046-0.103-0.051L12.118,14.374z M19.329,14.374h0.1v0.042
	c-0.039-0.002-0.075-0.019-0.102-0.045L19.329,14.374z M15.146,14.422c0.027,0.027,0.063,0.043,0.1,0.048
	c-0.027-0.029-0.063-0.048-0.102-0.054L15.146,14.422z M16.3,14.422c0.027,0.027,0.063,0.043,0.1,0.048
	c-0.026-0.029-0.062-0.048-0.1-0.054V14.422z M18.415,14.47v0.1l0.143,0.046c-0.019-0.071-0.074-0.127-0.144-0.148L18.415,14.47z
	 M21.252,15.002c0.083,0.043,0.061,0.043,0.145,0H21.25H21.252z M24.9,15.581c0.027,0.055,0.082,0.093,0.144,0.1
	C25.002,15.64,24.953,15.606,24.9,15.581z M25.141,15.775c0.042,0.041,0.09,0.075,0.144,0.1v-0.1h-0.14H25.141z M25.191,15.916
	c0.084,0.043,0.062,0.043,0.145,0H25.191z M31.057,16.4c0.027,0.027,0.063,0.043,0.101,0.048c-0.027-0.025-0.062-0.042-0.099-0.045
	L31.057,16.4z M34.038,16.4c0.026,0.027,0.062,0.043,0.101,0.048c-0.027-0.025-0.063-0.042-0.1-0.045L34.038,16.4z M5.048,17.416
	c0.068-0.006,0.135,0.012,0.192,0.048C5.172,17.47,5.105,17.453,5.048,17.416z M33.702,17.416v0.1h0.1v-0.048L33.702,17.416z
	 M28.702,17.464v0.101h0.048v-0.101H28.7H28.702z M28.846,17.464c0.027,0.026,0.063,0.044,0.1,0.048
	c-0.027-0.025-0.063-0.04-0.1-0.044V17.464z M34.566,17.464c-0.026,0.026-0.062,0.044-0.1,0.048v0.049h0.145
	c-0.005-0.035-0.021-0.067-0.045-0.093V17.464z M36.441,17.464c0.084,0.043,0.062,0.043,0.145,0H36.441z M37.691,17.464
	c0,0.108-0.01,0.034,0.101,0.048v-0.044h-0.101V17.464z M30.721,17.512h0.1v0.049c-0.037-0.004-0.072-0.02-0.1-0.045V17.512z
	 M31.441,17.512c0.115,0.1,0.011,0.047,0.049,0.146c-0.09,0.034-0.039-0.095-0.049-0.142V17.512z M8.7,17.564
	c0.027,0.025,0.062,0.043,0.1,0.047C8.773,17.586,8.738,17.568,8.7,17.564z M28.123,17.564c0.1,0.115,0.046,0.01,0.145,0.047
	c0.032-0.086-0.096-0.038-0.143-0.047H28.123z M29.323,17.564v0.052h-0.044c-0.092,0.036,0.1,0.048,0.1,0.048
	c-0.005-0.039-0.023-0.074-0.052-0.1H29.323z M36.102,17.564c0.08,0.054,0.051,0.086,0.101,0H36.102z M29.035,17.611
	c0.083,0.043,0.061,0.043,0.145,0h-0.141H29.035z M37.5,17.661c0.02,0.127-0.036,0.063,0.1,0.1V17.71L37.5,17.661z M0.481,17.709
	v0.1h0.048v-0.051h0.048C0.551,17.732,0.517,17.715,0.481,17.709L0.481,17.709z M28.846,17.709c0.018,0.127-0.035,0.063,0.1,0.1
	v-0.1H28.846z M36.105,17.809c0.084,0.043,0.062,0.043,0.145,0H36.105z M30.241,17.909h0.1v0.048h-0.1v-0.055V17.909z
	 M36.924,17.909h0.1v0.048c-0.039-0.006-0.074-0.024-0.101-0.055L36.924,17.909z M29.324,17.957h0.1v0.048
	c-0.037-0.006-0.072-0.024-0.097-0.053L29.324,17.957z M37.209,18.057c0.083,0.043,0.063,0.043,0.145,0h-0.142H37.209z
	 M37.257,18.157c0.027,0.026,0.063,0.043,0.101,0.048c-0.025-0.03-0.059-0.052-0.098-0.061L37.257,18.157z M32.157,19.757
	c0.026,0.027,0.043,0.063,0.048,0.101h-0.041v-0.101H32.157z M32.109,20.434v0.101h0.048v-0.118h-0.042L32.109,20.434z
	 M31.725,20.966c-0.029,0.077-0.08,0.144-0.145,0.194v0.048h0.048v0.048h0.048c0.053-0.092,0.072-0.199,0.055-0.304L31.725,20.966z
	 M31.243,21.111c0.08,0.054,0.051,0.086,0.1,0H31.243z M31.964,21.305c-0.026,0.111-0.043,0.225-0.048,0.34h0.048v-0.101
	c0.063-0.072,0.065-0.179,0.007-0.254L31.964,21.305z M31.676,21.404v0.101h0.049v-0.101h-0.041H31.676z M31.532,21.55v0.101h0.048
	V21.55h-0.041H31.532z M31.532,21.744c0.026,0.026,0.062,0.043,0.1,0.048c-0.022-0.032-0.056-0.056-0.093-0.065L31.532,21.744z
	 M31.003,22.421h0.101v0.048c-0.039-0.01-0.071-0.033-0.094-0.066L31.003,22.421z M28.07,23.244c0.117,0.013,0.231,0.047,0.337,0.1
	v-0.07c-0.089-0.091-0.14-0.211-0.144-0.338c0.037-0.004,0.072-0.021,0.1-0.049h0.1c0.037,0.102,0.086,0.199,0.145,0.29h0.047
	v-0.048c0.037-0.046,0.033-0.1,0.101-0.193c0.069,0.021,0.134,0.056,0.192,0.1v-0.148c-0.027-0.027-0.043-0.063-0.049-0.1
	c-0.288-0.125-0.612-0.142-0.912-0.049c-0.053,0.027-0.141,0.17-0.192,0.195c-0.131,0.022-0.259,0.057-0.385,0.1
	c-0.052,0.139-0.068,0.288-0.048,0.435c0.018,0.102,0.051,0.199,0.1,0.29h0.1v-0.1c-0.041-0.043-0.074-0.092-0.1-0.145
	c0.038-0.004,0.073-0.021,0.1-0.049c0.146,0.049,0.145,0.1,0.289,0.145v-0.045c-0.082-0.072-0.121-0.184-0.101-0.291
	c0.042-0.04,0.091-0.074,0.144-0.1c0.018,0.135,0.111,0.248,0.24,0.29v-0.101c-0.032-0.039-0.052-0.086-0.056-0.137L28.07,23.244z
	 M4.808,23.032c0.085,0.096,0.208,0.149,0.337,0.145c0.041-0.042,0.075-0.091,0.1-0.145H4.808z M24.039,24.193v0.193h0.145v-0.339
	c0.076-0.028,0.157-0.045,0.239-0.048c-0.016,0.115,0.001,0.232,0.048,0.339v-0.146h0.24v0.193h0.145
	c-0.084-0.277-0.214-0.539-0.385-0.773c-0.012-0.182-0.046-0.359-0.101-0.532c-0.027,0.026-0.063,0.044-0.101,0.048
	c-0.061,0.541-0.418,0.708-0.48,1.161h0.048C23.917,24.168,23.867,24.216,24.039,24.193z M20.962,24.387V24h0.192
	c0.05,0.206,0.223,0.36,0.433,0.387c-0.058-0.264-0.173-0.512-0.337-0.726c-0.018-0.181-0.051-0.358-0.1-0.532
	c0.043,0.414-0.166,0.814-0.529,1.016c0.016,0.154,0.154,0.265,0.307,0.248C20.939,24.392,20.951,24.39,20.962,24.387z M3.8,23.273
	c0.028,0.056,0.083,0.094,0.144,0.101v-0.052L3.8,23.273z M4.713,23.374v0.101H4.76v-0.101H4.713L4.713,23.374z M17.934,24.003
	c0.025,0.214,0.068,0.174,0.1,0.388h0.337c-0.018-0.305-0.137-0.594-0.337-0.824v0.101c-0.105,0.093-0.188,0.209-0.24,0.339h0.144
	L17.934,24.003z M5.24,23.71c0,0.108-0.01,0.034,0.1,0.048V23.71H5.24z M14.711,24.387H15.1l0.048-0.339
	c-0.081-0.125-0.177-0.239-0.288-0.339c-0.016,0.121-0.087,0.228-0.192,0.29C14.696,24.127,14.71,24.256,14.711,24.387
	L14.711,24.387z M27.163,23.758v0.194h0.048v-0.05C27.27,23.844,27.223,23.828,27.163,23.758L27.163,23.758z M11.442,24.387h0.337
	c0.078-0.186,0.078-0.395,0-0.58C11.581,23.936,11.456,24.15,11.442,24.387z M8.221,24.387h0.192v-0.193h0.24
	c0.022-0.112,0.022-0.228,0-0.34C8.454,23.979,8.302,24.166,8.221,24.387z M5.481,23.952c0.042,0.04,0.091,0.074,0.144,0.1
	C5.597,23.996,5.542,23.959,5.481,23.952z M17.693,24.387l0.048-0.339h-0.049c-0.086,0.111-0.204,0.196-0.337,0.242v0.101h0.337
	L17.693,24.387z M8.847,24.387h0.24v-0.048l-0.24-0.146v0.195V24.387z M14.424,24.193c-0.091,0.084-0.239,0.113-0.337,0.193h0.337
	c0.004-0.037,0.021-0.072,0.048-0.1C14.466,24.251,14.449,24.219,14.424,24.193L14.424,24.193z M12.116,24.293v0.1h0.144v-0.054
	L12.116,24.293z M15.337,24.293v0.1h0.1v-0.054L15.337,24.293z M23.462,24.293c-0.026,0.026-0.062,0.043-0.101,0.048v0.048h0.193
	v-0.1h-0.101L23.462,24.293z M11.01,24.341c0.027,0.026,0.063,0.044,0.1,0.048c-0.027-0.027-0.062-0.045-0.1-0.05V24.341z"/>
</svg>
