<svg xmlns="http://www.w3.org/2000/svg" width="80" height="40" viewBox="0 0 80 40">
  <defs>
    <style>
      .cls-1 {
        fill: #fff;
        fill-rule: evenodd;
      }
    </style>
  </defs>
  <path id="it_cruiser_montecuccoli_ico" class="cls-1" d="M32.456,9.946h0.1V9.972a1.522,1.522,0,0,0,0,.6,0.117,0.117,0,0,1,.1.026v0.052H32.637c-0.045-.035-0.042-0.045-0.078-0.026a4.265,4.265,0,0,0-.026.894,0.966,0.966,0,0,1,.129.158l-0.078-.026a7.208,7.208,0,0,0-.052,1.261,2.188,2.188,0,0,1,.233.21,0.483,0.483,0,0,1-.233.237,4.383,4.383,0,0,1,0,.657h0.078a0.659,0.659,0,0,0,0-.263H32.74a0.074,0.074,0,0,0,.026.026c-0.081.149,0.108,0.26-.233,0.263,0.01,0.146.005,0.376,0.026,0.552h0.1a0.188,0.188,0,0,1,.026-0.131,0.087,0.087,0,0,1-.052-0.026c0.064-.034.018,0.011,0.052-0.053-0.034-.015-0.019,0-0.026-0.026a0.153,0.153,0,0,1,.155,0,1.4,1.4,0,0,0-.052.236h0.1v0.079H32.559v0.394h1.294a2.1,2.1,0,0,0,.1.21,0.089,0.089,0,0,0,.052-0.026,0.613,0.613,0,0,0,.155-0.184,0.152,0.152,0,0,1-.052-0.158l0.078-.026a0.172,0.172,0,0,1,.1-0.026,0.307,0.307,0,0,1,.052.184,0.9,0.9,0,0,0-.129.552c-0.1.438-.074,0.925-0.181,1.393-0.2.861-.182,1.808-0.388,2.681a11.172,11.172,0,0,0-.336,2.5l-0.078.026a0.133,0.133,0,0,1-.129,0c0,0.084.031,0.063-.078,0.079v0.21H33.1V22.72h0.233V22.641h0.1c-0.01.059-.024,0.029,0,0.079,0.063,0.055.122,0.1,0.181,0.158a1.266,1.266,0,0,1,.492-0.079V22.693H44.206V22.273h1.372v0.105h1.6a3.385,3.385,0,0,0,.44-0.315,1.13,1.13,0,0,0,.336-0.184V20.827H47.933a0.475,0.475,0,0,1-.078.105,0.157,0.157,0,0,0-.052-0.105,0.106,0.106,0,0,0,.052-0.105h0.1a5.28,5.28,0,0,0-.026-0.92,0.319,0.319,0,0,0,.155,0V19.723H47.959V19.671a0.414,0.414,0,0,1,.155-0.105,0.427,0.427,0,0,0,0-.289h0.233c-0.011.092-.061,0.105,0.052,0.131a0.276,0.276,0,0,1,.078-0.053c0.017-.023.035-0.083,0.052-0.105v0.026c0.047,0.035-.012.043,0.1,0.053,0.2-.15.451-0.079,0.647-0.237a0.23,0.23,0,0,0,.026-0.131,0.1,0.1,0,0,1-.026-0.053H49.33a0.346,0.346,0,0,0,.026.184,5.56,5.56,0,0,1,1.294-.421V18.7h0.026a6.255,6.255,0,0,1,.181.867h0.078a0.507,0.507,0,0,0,.129.184H51.039a0.276,0.276,0,0,0-.155-0.026,0.275,0.275,0,0,0,.078.158,0.159,0.159,0,0,1,.052-0.053v0.105a0.724,0.724,0,0,0-.026.315h0.129a0.486,0.486,0,0,1,.026-0.237v0.237h0.1v0.026H51.194a0.258,0.258,0,0,1-.181.053c-0.009.476-.147,1.61,0.207,1.892a0.375,0.375,0,0,1,.181.079,0.1,0.1,0,0,0-.052.079h1.009A3.965,3.965,0,0,1,52.9,21.3c0.071-.105.137,0,0.207-0.105a0.251,0.251,0,0,1-.052-0.184,0.545,0.545,0,0,1,.181-0.026,1.292,1.292,0,0,1,.052.263c-0.076-.01-0.032-0.043-0.078.026h0.026a0.846,0.846,0,0,0,.362.026,0.358,0.358,0,0,1,0-.184,1.182,1.182,0,0,0,.129.079,1.057,1.057,0,0,0,.155-0.158,4.042,4.042,0,0,0,.052-0.894c0.061-.367.008-0.736,0.052-1.13a1.692,1.692,0,0,0,.052-0.683c-0.132-.381-0.669-0.559-0.673-1.078h-0.1a1.058,1.058,0,0,1,.1-0.21v-1.6C52.982,15.2,53.1,14.8,53.109,14.151c-0.1,0-.077.017-0.078-0.131a0.4,0.4,0,0,1-.207-0.026h0.207a0.412,0.412,0,0,1,.026-0.21v0.21a0.4,0.4,0,0,1,.207.026c-0.093.011-.065-0.012-0.1,0.053a3.888,3.888,0,0,0-.026.973,0.892,0.892,0,0,0,.233.158V14.966a0.306,0.306,0,0,1-.026-0.289,0.221,0.221,0,0,1,.129-0.026V14.7a1.387,1.387,0,0,1,.026.263,2.137,2.137,0,0,0-.052.683,7.59,7.59,0,0,0,.052,1.524h0.7V17.121a0.331,0.331,0,0,0-.207-0.079,1.039,1.039,0,0,1-.414.052V16.123L54.558,16.2a2.4,2.4,0,0,1-.052.867c0.1,0,.142-0.014.181,0.053-0.084.022-.04-0.013-0.078,0.053,0.1,0,.091-0.012.129,0.053a2.018,2.018,0,0,1,.026.473,6.475,6.475,0,0,1,.078,1.235,0.855,0.855,0,0,0,.311.026,1.048,1.048,0,0,0,.026-0.421h0.31V17.726h0.052a1.7,1.7,0,0,1,.647-0.026V17.516h0.259v0.026a0.286,0.286,0,0,0-.052.184,7.078,7.078,0,0,1,.673.289,1.373,1.373,0,0,1,.026.526,0.978,0.978,0,0,0,.336-0.079,1.093,1.093,0,0,1-.026.342h0.078a0.629,0.629,0,0,0,.026.21h-0.1c-0.014-.034,0-0.02-0.026-0.026-0.036.014-.234,0.06-0.155,0.105a0.776,0.776,0,0,0-.129,0,1.361,1.361,0,0,1,.1.5H58a0.55,0.55,0,0,1,.078-0.21H58.13l0.026,0.21h0.285a0.128,0.128,0,0,0-.026-0.079,0.246,0.246,0,0,1-.13-0.289A0.279,0.279,0,0,1,58.6,19.2a0.772,0.772,0,0,1,.026.237c-0.04.021-.151,0.048-0.155,0.053a0.149,0.149,0,0,1,0,.105h0.181v0.421a0.548,0.548,0,0,1-.181.026,0.222,0.222,0,0,1-.026.131V20.039a0.539,0.539,0,0,0-.311.105h0.026V20.17H58.13V20.2l-0.052-.026a0.248,0.248,0,0,1-.233.21,0.089,0.089,0,0,1,0,.079,1.56,1.56,0,0,0-.233.158c-0.024.031-.107,0.135-0.155,0.21H57.9c-0.012.311-.026,0.573-0.026,0.946H57.845V21.8a0.345,0.345,0,0,0-.44.394h0.052a4,4,0,0,0,.569,0V21.537l0.259-.026c0-.158,0-0.228,0-0.421h0.362c0,0.257-.017.222-0.026,0.421a17.078,17.078,0,0,1,2.174.158c0.129,0.033.259-.024,0.336,0,0.2,0.063.371,0.326,0.569,0.394a0.146,0.146,0,0,0,.1-0.026l0.1,0.053L63.8,22.115v0.131a6,6,0,0,0-2.1.131c-0.1.075-.17,0.006-0.207,0.158a2.017,2.017,0,0,1,.026.447h0.026v0.026L61.7,23.035v0.788h0.932V23.666h-0.44V22.615l0.414-.026c-0.012-.08-0.051-0.082-0.026-0.105a1.54,1.54,0,0,1,.958-0.105,0.2,0.2,0,0,0,.1.105,1.244,1.244,0,0,0-.1.131h0.414V22.562a0.161,0.161,0,0,1-.052-0.053,0.649,0.649,0,0,0,.129-0.105,5.132,5.132,0,0,0,.854.079,0.144,0.144,0,0,1,.052.131c-0.024.051-.079,0.085-0.052,0.105a0.882,0.882,0,0,0,.388.026l0.6,0.394a9.706,9.706,0,0,0,2.1.052,0.453,0.453,0,0,0,.026.158c-0.142.043-.114,0.212-0.1,0.394h0.129a1.432,1.432,0,0,1-.052-0.315H68.2a1.2,1.2,0,0,1-.052.315h0.181l0.026-.079A0.316,0.316,0,0,1,68.3,23.4h0.207l-0.026.315h0.052a0.14,0.14,0,0,1,.1-0.105c-0.009.078-.052,0.054,0.026,0.105a0.133,0.133,0,0,0,.129,0c0-.114-0.057-0.076.052-0.105a0.567,0.567,0,0,0,.052.131h0.052a0.956,0.956,0,0,1,.026-0.394,0.233,0.233,0,0,0,.052.237,0.338,0.338,0,0,1,.181-0.026V23.4l0.259-.026a0.575,0.575,0,0,1,.026.184h0.1v0.053a0.179,0.179,0,0,0-.026.105h0.6q0.013-.223.026-0.447h0.052a0.529,0.529,0,0,1,.414,0,0.668,0.668,0,0,1,.026.21,0.469,0.469,0,0,1,.233.053,0.2,0.2,0,0,1,.259-0.184v0.105h0.052a0.36,0.36,0,0,1,.311-0.053,0.172,0.172,0,0,1,.026-0.105c0,0.134-.007.184,0.052,0.21,0.186-.166.312,0.055,0.44,0.026V23.482a0.229,0.229,0,0,1,.181.053h0.052l0.026-.079a1.274,1.274,0,0,1,.181-0.026,0.129,0.129,0,0,0,.026.079,0.272,0.272,0,0,1,.207.026,0.218,0.218,0,0,1,.181-0.053v0.053H72.96a0.223,0.223,0,0,1,.181-0.053v0.053h0.052s-0.012-.044.1-0.053a0.486,0.486,0,0,1,.026-0.237c0,0.1-.012.092,0.052,0.131a0.412,0.412,0,0,1,.337-0.052c0,0.083.006,0.022,0.078,0.079h-0.1v0.079a0.118,0.118,0,0,1,.129.053c0.068,0.012.049-.044,0.078-0.053a0.124,0.124,0,0,1,.155.053,0.572,0.572,0,0,0,.155-0.053,1.713,1.713,0,0,1,0-.237h0.026a1.026,1.026,0,0,0,.259.053,0.306,0.306,0,0,0,0,.21l0.078,0.026c0.068-.114.121-0.011,0.181,0s0.059,0,.052-0.053a0.348,0.348,0,0,1,.233.053,1.249,1.249,0,0,1,.052-0.315v0.263c0.115,0.011.073,0.045,0.1,0.053,0.066,0.017.051-.045,0.078-0.053a0.4,0.4,0,0,1,.207.053l0.026-.053a1.882,1.882,0,0,1,.285,0V23.3a0.466,0.466,0,0,1,.155-0.026,0.128,0.128,0,0,1,.026-0.079,0.481,0.481,0,0,0,.1.21,1.524,1.524,0,0,1,.44-0.105,0.417,0.417,0,0,0,.311.184,0.717,0.717,0,0,1,.026-0.315,0.345,0.345,0,0,0,.026.184,0.135,0.135,0,0,1,.155,0,0.289,0.289,0,0,0-.026.158h0.129a0.536,0.536,0,0,0-.026-0.184h0.155V23.35a0.288,0.288,0,0,0-.026.158,4.578,4.578,0,0,0,.466-0.052,0.715,0.715,0,0,1,.026-0.315,1.267,1.267,0,0,0,.026.368,1.885,1.885,0,0,1,.388-0.026c0.058-.09-0.041-0.084.1-0.105-0.014.08-.013,0.093,0.078,0.131V23.377H78.4v0.158l0.155-.026a0.314,0.314,0,0,1,.078-0.236H78.68V23.3a0.125,0.125,0,0,0-.052.131,0.389,0.389,0,0,0,.1.053l0.026-.053a0.365,0.365,0,0,1,.052-0.158,0.258,0.258,0,0,1,.233-0.079,0.528,0.528,0,0,0,.155.079c-0.041.05-.049,0.054-0.026,0.105,0.032,0.082.01,0.059,0.1,0.079a0.282,0.282,0,0,0,.052-0.131,0.1,0.1,0,0,1-.026-0.053h0.052V23.3a0.49,0.49,0,0,0,.1.184,0.4,0.4,0,0,0,.207.026V23.456a1.577,1.577,0,0,0,.1-0.421,15.014,15.014,0,0,0,.129-2.287h0.026v0.026a3.958,3.958,0,0,1,0,.815V23.3a0.852,0.852,0,0,1,.078.263,2.68,2.68,0,0,0-.725.762,6.1,6.1,0,0,0-.8,1.235,6.764,6.764,0,0,0-.259,1.025c-0.145.618-.074,1.311-0.207,1.919a1.261,1.261,0,0,1-.207.841,3.139,3.139,0,0,1-1.32.079H9.447c-0.415-.1-0.857-0.284-1.268-0.394a3.07,3.07,0,0,0-.828.026V29.08a0.68,0.68,0,0,1,.026.6,0.131,0.131,0,0,1-.078.026,1.21,1.21,0,0,0-.233-0.42c-0.041.059-.042,0.055-0.078,0.052a1.215,1.215,0,0,1,0-.289,0.074,0.074,0,0,1-.026-0.026c-0.126-.015-0.185-0.06-0.311-0.079a0.128,0.128,0,0,1,.026-0.079,0.834,0.834,0,0,1,.259-0.131V28.712a0.467,0.467,0,0,0-.155-0.026,0.874,0.874,0,0,0-.259.158v0.92a0.179,0.179,0,0,0-.026.105,0.275,0.275,0,0,1-.181.079,5.28,5.28,0,0,1-1.242.026c-0.741,0-1.526.1-1.812-.368a2.634,2.634,0,0,1-.1-1.13,2.942,2.942,0,0,1,.052-0.6c0.048-.026.1-0.054,0.155-0.079V27.766H3.183a2.852,2.852,0,0,0-.7-0.131,4.854,4.854,0,0,1-1.579-.578,2.67,2.67,0,0,1-.6-1.209,1.423,1.423,0,0,0-.026-0.21v0.026a0.923,0.923,0,0,1-.078.079v0.026c0.017,0.027.056,0.005,0.026,0.026a0.2,0.2,0,0,1-.207.105A0.489,0.489,0,0,1,0,25.742,5.013,5.013,0,0,0,.311,24.4a0.156,0.156,0,0,1-.129,0,0.2,0.2,0,0,0,0-.158H0.233c0.04-.019,0,0,0.078,0a0.414,0.414,0,0,1,.026-0.21,2.814,2.814,0,0,0,.052.631H0.673V24.218H0.7a0.268,0.268,0,0,0,.129.079c-0.093.011-.065-0.012-0.1,0.053a0.135,0.135,0,0,0-.026.079,0.15,0.15,0,0,1,.129.053H0.7v0.184H0.906c0.021-.085-0.013-0.04.052-0.079a0.221,0.221,0,0,0,.129.026,0.8,0.8,0,0,1,.026-0.342v0.342a1.614,1.614,0,0,0,.544,0c0.066-.038.029,0.006,0.052-0.079a0.349,0.349,0,0,1,.026-0.263,1.486,1.486,0,0,0,.026.421,0.527,0.527,0,0,1,.129-0.053c0.007,0.068-.012.047,0.1,0.053a0.176,0.176,0,0,1,.181-0.131v0.026c-0.066.038-.029-0.006-0.052,0.079l0.155,0.026c0.043-.088,0-0.114.129-0.131v0.105a0.4,0.4,0,0,0,.129.026c0.023-.064.028-0.042,0.052-0.105a0.087,0.087,0,0,1-.052-0.026h0.1a0.1,0.1,0,0,0,.1.079V24.507a0.269,0.269,0,0,1-.155-0.026H2.743V24.323A0.214,0.214,0,0,1,2.614,24.3a0.61,0.61,0,0,1,.285.026H2.769v0.158H2.925a0.909,0.909,0,0,0,.026.21,5.235,5.235,0,0,0,.569.026,0.4,0.4,0,0,0,.052-0.105,0.288,0.288,0,0,1-.026-0.158H3.623a1.156,1.156,0,0,1,0-.21c0.045-.08.055-0.079,0.181-0.079v0.053a0.494,0.494,0,0,1,.026.236H3.908v0.079c-0.068.01-.034-0.02-0.052,0.052a0.334,0.334,0,0,0,.026.079,0.759,0.759,0,0,0,.44.052V24.533a0.27,0.27,0,0,1-.155-0.026H4.322V24.349a0.269,0.269,0,0,1-.155-0.026,0.684,0.684,0,0,1,.311.026H4.348v0.158H4.478V24.4a0.636,0.636,0,0,1,.207-0.026,0.771,0.771,0,0,1,.026.236,0.1,0.1,0,0,0-.052.079H4.71a0.131,0.131,0,0,0,.078.026l0.052-.079a0.159,0.159,0,0,1-.052-0.053H4.866c0.064,0.144.117,0.168,0.336,0.158a1.036,1.036,0,0,1,.026-0.421v0.421h0.7a1.154,1.154,0,0,1-.052-0.315c0.1,0,.142.014,0.181-0.053H5.9V24.349a0.684,0.684,0,0,1,.311.026c-0.1,0-.091-0.012-0.129.053a0.106,0.106,0,0,1,.052.105c0.226-.01.241-0.1,0.492-0.105a1.021,1.021,0,0,1,.026.289,0.7,0.7,0,0,0,.259.053,1.036,1.036,0,0,1,.026-0.421V24.77H7.143A0.281,0.281,0,0,0,7.2,24.638a0.926,0.926,0,0,1-.052-0.158,0.552,0.552,0,0,1,.492.026h-0.1a1.567,1.567,0,0,0,.026.184,0.24,0.24,0,0,0,.259.079,0.955,0.955,0,0,1,.026-0.394V24.77L8,24.743V24.638s-0.1-.005-0.052-0.026H8a0.169,0.169,0,0,1,.078-0.158v0.026c0.066,0.042.064,0.093,0.129,0.131a0.254,0.254,0,0,1,.078-0.184,0.481,0.481,0,0,0,.1.21,0.106,0.106,0,0,0-.052.105H8.386a0.473,0.473,0,0,0,.233.026V24.586a0.269,0.269,0,0,1-.155-0.026H8.619V24.428A0.214,0.214,0,0,1,8.489,24.4a0.388,0.388,0,0,1,.285.026H8.644v0.131a0.124,0.124,0,0,1,.078.026H8.644V24.77H8.7a0.276,0.276,0,0,0,.155.026V24.638a5.325,5.325,0,0,1,.621,0A0.486,0.486,0,0,1,9.5,24.4V24.8h0.7V24.743c-0.086-.051-0.083-0.095-0.078-0.236a0.837,0.837,0,0,1,.259-0.026,0.85,0.85,0,0,1-.052.315h0.207a0.619,0.619,0,0,0,.285.026l0.026-.079a0.268,0.268,0,0,1-.052-0.236,0.074,0.074,0,0,0,.026-0.026,0.918,0.918,0,0,0,.388-0.079v0.42h0.129V24.3a0.9,0.9,0,0,0-.285.026V24.165h0.026a0.351,0.351,0,0,0,.259,0,0.594,0.594,0,0,1,.155-0.552,0.221,0.221,0,0,1,.129-0.026V23.64c-0.1,0-.091-0.012-0.129.053a0.758,0.758,0,0,0-.078.473,8.424,8.424,0,0,0,1.682-.026,4.9,4.9,0,0,0,.6-0.394l0.492-.026a6.058,6.058,0,0,1,1.32-.131,0.261,0.261,0,0,0-.052-0.131,0.646,0.646,0,0,0,.129-0.105,2.04,2.04,0,0,1,.88.053,0.217,0.217,0,0,0,.078.053,0.673,0.673,0,0,0-.078.105h0.052a0.693,0.693,0,0,0,.311.026,2.142,2.142,0,0,1,.078.762h0.026A0.13,0.13,0,0,1,17,24.323v0.236a0.124,0.124,0,0,0-.078.026,0.568,0.568,0,0,0-.026.263h0.052a0.173,0.173,0,0,0,.1.026V24.717h0.052a0.811,0.811,0,0,1,.44,0c0-.538.017-1.021,0.026-1.34a1.052,1.052,0,0,1-.311-0.158H17a9.184,9.184,0,0,0-1.734-.026V23.035H15.3a1.161,1.161,0,0,0,.492.026,12.288,12.288,0,0,0,1.32-.026A1.108,1.108,0,0,0,17.5,22.93a2.414,2.414,0,0,1,.44-0.315c0.119-.037.334,0.016,0.518-0.026,0.6-.137,1.317-0.076,1.993-0.158a3.828,3.828,0,0,1-.026-0.394,1.151,1.151,0,0,1,.336-0.026,0.987,0.987,0,0,1,.026.289,0.29,0.29,0,0,1,0,.131l0.259,0.026v1.051H20.084v0.053a5.582,5.582,0,0,1,.026,1.314h0.207a1.357,1.357,0,0,1,.078-0.6v0.105h0.414a0.172,0.172,0,0,1,.026-0.105v0.184c0.21-.008.455-0.026,0.7-0.026V24.008H21.456a0.384,0.384,0,0,0,.026.131H21.43c-0.04.019,0,0-.078,0V24.086a0.743,0.743,0,0,0,.129-0.631h0.776V23.219H21.4V23.14l0.854-.026a0.449,0.449,0,0,1,.052-0.263,3.13,3.13,0,0,1,1.061-.158V22.72a0.579,0.579,0,0,0-.181.289,0.526,0.526,0,0,1,.388.052,0.148,0.148,0,0,0-.078.158,0.414,0.414,0,0,0,.285-0.053c0.043,0.046-.013.042,0.078,0.053V23.114H24.2v0.342h0.336V23.377a0.315,0.315,0,0,1,.207-0.105,0.62,0.62,0,0,1,.207.053v-0.6H24.872a0.172,0.172,0,0,1-.026.105V21.143a1.841,1.841,0,0,1,.026-0.657v2.208H24.95a0.715,0.715,0,0,1,.026-0.315,0.172,0.172,0,0,0,.026.105,0.224,0.224,0,0,1,.1-0.079c0.012,0.075.133,0.058,0.285,0.053a0.382,0.382,0,0,0-.026-0.131,0.887,0.887,0,0,1,.155-0.079c0,0.111.019,0.011,0.052,0.105a0.179,0.179,0,0,0-.026.105h0.388a7.448,7.448,0,0,0,.078.762,0.162,0.162,0,0,0,.129-0.053v0.079h-0.1a0.812,0.812,0,0,0,.026.184h0.1a2.711,2.711,0,0,1,.776.053,9.681,9.681,0,0,0,.129-0.973h0.466V22.483h0.026a0.168,0.168,0,0,1,.026-0.158h-0.6V22.3h0.6V22.194h0.1a0.41,0.41,0,0,0,.052-0.184,0.629,0.629,0,0,0,.543-0.158H27.745v0.026H27.719c-0.023-.133-0.028,0-0.052-0.131h-0.1l-0.026-.053c0.066-.038.029,0.006,0.052-0.079,0,0-.1-0.005-0.052-0.026H27.59c0.034-.065-0.011-0.018.052-0.053a0.406,0.406,0,0,0,.388.079c0.007-.141,0-0.177,0-0.342a0.088,0.088,0,0,0,.052-0.026,1.945,1.945,0,0,0,.362.026,0.277,0.277,0,0,1,.052.158,0.237,0.237,0,0,1,0,.184H28.78a7.379,7.379,0,0,1,.052-1.814,0.125,0.125,0,0,1-.078-0.026,0.1,0.1,0,0,0,.026-0.053c0.1-.04.161-0.193,0.285-0.263a0.223,0.223,0,0,0,.1.026,1.213,1.213,0,0,0,.1-0.105,0.85,0.85,0,0,0,.362-0.105c0.041-.048.011-0.131,0.052-0.184a0.719,0.719,0,0,1,.233-0.105,0.281,0.281,0,0,0,.1.131,1.23,1.23,0,0,1,.337-0.158V18.935H30.23V18.83h0.026v0.026c0.043,0.032-.01.047,0.129,0.052a1.768,1.768,0,0,0,.621-0.21c0.029,0.285.107,0.348,0.13,0.657h0.078v0.053a0.257,0.257,0,0,1-.052.237h0.1a1.353,1.353,0,0,1,.078.342h0.311a4.6,4.6,0,0,1,.129-0.657,0.166,0.166,0,0,1-.1-0.026h0.129a2.183,2.183,0,0,1,.1-0.473c0.07-.253.094-0.637,0.181-0.946a1.1,1.1,0,0,0,.078-0.71l0.1,0.026a13.828,13.828,0,0,0,.026-1.419,3.178,3.178,0,0,0-.569-0.105V15.7h0.026c0.05,0.02-.052.026-0.052,0.026V15.65H31.472a0.128,0.128,0,0,1-.026.079V15.65H31.369V15.571H31.5v-0.71H30.411a2.391,2.391,0,0,1-.026-0.631A4.174,4.174,0,0,1,31.5,14.2a0.337,0.337,0,0,0-.026-0.105H31.55v1.472c0.3,0,.458-0.008.725-0.026V15.255a0.165,0.165,0,0,1-.1-0.026,0.138,0.138,0,0,0,.129-0.052c0.045,0.048.005,0.047,0.1,0.052V15.1a0.266,0.266,0,0,1-.233-0.026H32.4V14.809H32.378a0.221,0.221,0,0,1-.129.026V14.7L32.4,14.73V14.677c-0.03-.058.011-0.119-0.026-0.184a7.977,7.977,0,0,0-.8-0.894,0.469,0.469,0,0,1,.155-0.026V13.6a0.124,0.124,0,0,0-.078.026,5.621,5.621,0,0,0,.751.762v-0.71a2.441,2.441,0,0,0-.078-0.552c0.238-.187,0-1.221.1-1.314V11.339a0.357,0.357,0,0,1-.181-0.053H32.43L32.4,9h0.052V9.788A0.2,0.2,0,0,1,32.456,9.946Zm-0.181,3.469h0.052v0.026A0.089,0.089,0,0,1,32.274,13.416Zm-0.31.105a0.124,0.124,0,0,1,.078.026A0.123,0.123,0,0,1,31.964,13.521Zm0.129,1.314a0.185,0.185,0,0,1,.026.21Zm-0.052.552a0.179,0.179,0,0,1,.052.131H32.041A0.374,0.374,0,0,0,32.041,15.387Zm-0.311.079a0.1,0.1,0,0,1,.026.053H31.731V15.466Zm0.414,1.656a0.1,0.1,0,0,1,.026.053H32.145V17.121Zm18.143,1.551H50.34V18.7A0.089,0.089,0,0,1,50.288,18.672Zm-0.181.026a0.459,0.459,0,0,1,.1.053C50.095,18.746,50.112,18.767,50.107,18.7Zm-19.515.026h0.052v0.026A0.088,0.088,0,0,1,30.592,18.725ZM49.9,18.751h0.052v0.026A0.088,0.088,0,0,1,49.9,18.751Zm-19.359.026h0.052V18.8A0.088,0.088,0,0,1,30.54,18.777ZM49.667,18.8h0.052V18.83A0.088,0.088,0,0,1,49.667,18.8Zm-18.609.026a0.1,0.1,0,0,1,.026.053H31.058V18.83Zm18.609,0.026h0.052v0.026A0.088,0.088,0,0,1,49.667,18.856Zm1.087,0h0.052v0.026A0.089,0.089,0,0,1,50.754,18.856Zm-1.294.026a0.124,0.124,0,0,1,.078.026A0.124,0.124,0,0,1,49.46,18.882ZM57.3,19.066h0.052v0.026A0.089,0.089,0,0,1,57.3,19.066Zm-27.667.026a0.1,0.1,0,0,1,.026.053H29.634V19.093Zm19.023,0.079a0.1,0.1,0,0,1,.026.052H48.657V19.172Zm-0.052.026a0.1,0.1,0,0,1,.026.053H48.606V19.2Zm-16.978.184a0.078,0.078,0,0,1,0,.105V19.382Zm-0.026.158a0.078,0.078,0,0,1,0,.105V19.539Zm-0.026.158a0.078,0.078,0,0,1,0,.105V19.7Zm-0.026.158a0.078,0.078,0,0,1,0,.105V19.855Zm26.761,0.368h0.052v0.026A0.089,0.089,0,0,1,58.311,20.223ZM27.9,21.879a0.1,0.1,0,0,1,.026.053H27.9V21.879Zm-0.155.026a0.1,0.1,0,0,1,.026.052H27.745V21.9Zm-2.148.289h0.052a0.167,0.167,0,0,1-.026.079,0.092,0.092,0,0,1-.052.026V22.273A0.135,0.135,0,0,0,25.6,22.194Zm-2.226.526a0.331,0.331,0,0,1,.181.026A0.33,0.33,0,0,1,23.371,22.72Zm2.64,0a0.136,0.136,0,0,1,.026.079H26.011V22.72Zm0.026,0.105a0.136,0.136,0,0,1,.026.079H26.037V22.825Zm0.026,0.131a0.1,0.1,0,0,1,.026.053H26.063V22.956Zm0.026,0.105a0.135,0.135,0,0,1,.026.079H26.089V23.061ZM26.14,23.3a0.1,0.1,0,0,1,.026.053H26.14V23.3Zm-14.6.394h0.052V23.8H11.543V23.692Zm0.052,0.263a0.189,0.189,0,0,1,.052.105H11.595V23.955Zm8.644,0.552a0.107,0.107,0,0,1,0,.131V24.507Zm-19.489.052a0.136,0.136,0,0,1,.026.079H0.751V24.559Z" transform="translate(0 0.5)"/>
</svg>
