<svg xmlns="http://www.w3.org/2000/svg" width="40" height="40" viewBox="0 0 40 40">
  <defs>
    <style>
      .cls-1 {
        fill: #fff;
        fill-rule: evenodd;
      }
    </style>
  </defs>
  <path id="it_c1_ariete_ico" class="cls-1" d="M12.766,17.247H13v0.109h0.086v0.065H13v1.154h0.215l-0.022.2h0.172a1.125,1.125,0,0,0,.086-0.283H13.52a0.083,0.083,0,0,0,.065.043,0.417,0.417,0,0,0,.021.2,1.344,1.344,0,0,1,.172-0.131,1.676,1.676,0,0,1,.581.174v-0.2h0.086a0.193,0.193,0,0,1,.065-0.065V18.487a0.15,0.15,0,0,1-.151-0.044h0.732V18.4c-0.015-.034,0,0,0-0.065a0.074,0.074,0,0,0,.043-0.022c0.053,0.013.064,0.051,0.086,0.022a0.369,0.369,0,0,0,.043-0.218H15.35a0.173,0.173,0,0,0,.065.218,0.578,0.578,0,0,0,.258.022,0.282,0.282,0,0,1,.064-0.152V17.312H15.651a0.484,0.484,0,0,0-.366-0.3,0.109,0.109,0,0,0-.065-0.022,0.431,0.431,0,0,1-.086.131v0.109H14.984a0.4,0.4,0,0,1-.022-0.131,0.775,0.775,0,0,0,.108-0.2H14.962a1.39,1.39,0,0,0-.323.109L14.6,16.79c-0.171,0-.2-0.027-0.366-0.022V16.79H14.209L14.23,16.9a1.685,1.685,0,0,0-.409.109,1.945,1.945,0,0,0-.043-0.392,0.722,0.722,0,0,1-.129-0.174A0.456,0.456,0,0,1,13.8,16.42a1.243,1.243,0,0,0,.667.109V16.441a0.456,0.456,0,0,1,.151-0.022,0.109,0.109,0,0,0,.065.022V16.376H14.79v0.109a6.162,6.162,0,0,0,.71-0.043V16.376h0.086v0.065a1.964,1.964,0,0,0,.624,0,0.078,0.078,0,0,1,0-.087,2,2,0,0,0,.6.087l0.021,0.065h0.194a0.312,0.312,0,0,0,.021-0.087c-0.055-.032-0.024,0-0.043-0.065h0.022a0.466,0.466,0,0,0,.344.065v0.087H17.4a1.57,1.57,0,0,1,.431.022,2.358,2.358,0,0,1,.065-0.239v0.022a0.346,0.346,0,0,1,.021.174,1.822,1.822,0,0,1,.366.044c0.039-.016.071-0.093,0.108-0.109a0.572,0.572,0,0,0,.3-0.043,0.064,0.064,0,0,1,0-.087,0.077,0.077,0,0,0,.043.022v0.174a2.573,2.573,0,0,0,.753.065v0.174H19.462a7.338,7.338,0,0,0-.775.022l-0.151.675a0.224,0.224,0,0,0-.129.022,1.218,1.218,0,0,1,.215.5V18.4l0.065,0.022V18.64H18.493l-0.021.152a3.3,3.3,0,0,1,.775.087V18.661h0.5a0.13,0.13,0,0,1,.151-0.131L19.914,18.6a0.112,0.112,0,0,1,.021.065,1.9,1.9,0,0,1,.431-0.065c0.059,0.019.1,0.116,0.151,0.131,0.095,0.028.534-.03,0.689,0v0.435l0.323,0.022V19.14h0.129v0.065l1.033,0.087a1.992,1.992,0,0,0,.452.087,2,2,0,0,1,.323-0.131,1.252,1.252,0,0,0,.086.131l0.818,0.065a1.324,1.324,0,0,1,.237.2c0.172,0.123.334,0.213,0.517,0.327a2.48,2.48,0,0,0,.3.261h0.5c0.036,0.012.094,0.071,0.129,0.087,0.1,0.045.161,0.014,0.194,0.131a15.079,15.079,0,0,1,2.885.087h2.5V20.424h2.3v0.131a3.383,3.383,0,0,1,.689.044H36.06V20.555h0.129c0.17,0,.266.038,0.409,0.044h2.756V20.272a1.329,1.329,0,0,1,.474.044,0.228,0.228,0,0,1,0,.326H40v0.675H39.7V21.4H39.5V21.317a0.282,0.282,0,0,0-.172.043h-2.82a0.862,0.862,0,0,1-.452.044,6.364,6.364,0,0,0-1.442-.044,3.51,3.51,0,0,1-.689.044v0.065c-1.151,0-2.225-.044-3.337-0.044H29.107a9.648,9.648,0,0,1-1.873.087c0,0.059.029,0.035-.043,0.065a3,3,0,0,1-1.076.2v0.065a2.821,2.821,0,0,0-.6.152,2.6,2.6,0,0,1-.323.022c-0.263.052-.568,0.134-0.84,0.2a0.062,0.062,0,0,0,.021.022,0.644,0.644,0,0,0,.28.022v0.065h0.064V22.253l0.9-.022a1.019,1.019,0,0,0,.388.043l0.043-.065a6.172,6.172,0,0,1,.754-0.022v0.3l0.56,0.044V22.6h0.064l0.022-.174c0.16,0.014.074,0.041,0.151,0.087a0.354,0.354,0,0,0,.258-0.022,0.347,0.347,0,0,0,.043.131,1.467,1.467,0,0,1,.624.022,0.132,0.132,0,0,0,.151.087,1.6,1.6,0,0,0,.5.065c0.031-.1.015-0.146,0.151-0.152,0.058,0.108.136,0.04,0.237,0.022a1.794,1.794,0,0,1,.064.174c0.252,0.008.435,0.026,0.6,0.044,0,0.069.009,0.068,0.129,0.065,0.052,0.03.07-.029,0.086-0.022a0.361,0.361,0,0,0,.366,0,0.387,0.387,0,0,0,.043.2,5.95,5.95,0,0,0,.861-0.065c0,0.071.084,0.134,0.108,0.239,0.029,0.133-.136.475-0.086,0.609L31.8,23.95v0.218l0.065,0.022c0.016,0.041-.043.189-0.043,0.283v0.892H31.776V24.843a1.537,1.537,0,0,0,.021-0.566H31.41a2.54,2.54,0,0,1-.56.479,0.637,0.637,0,0,1,.086.174c-0.09.017-.078,0.011-0.086,0.109,0.015,0.017.028,0.049,0.043,0.065,0.064,0.038.064-.019,0.108,0.044a1.092,1.092,0,0,1,.086.5,0.362,0.362,0,0,0-.129.022,0.79,0.79,0,0,1,0,.152l0.108,0.022v0.065a2.628,2.628,0,0,1-.172.457c-0.032-.024-0.066-0.045-0.086-0.022a0.315,0.315,0,0,0-.065.152c0.067,0.027.049,0.008,0.065,0.087a1.041,1.041,0,0,1-.366.348c-0.034-.049-0.035-0.046-0.065-0.044a0.124,0.124,0,0,0-.108.131c0.038,0.041.04,0.017,0.021,0.065a0.9,0.9,0,0,1-.409.2c-0.027-.07-0.019-0.057-0.108-0.065a0.2,0.2,0,0,0-.065.109,0.112,0.112,0,0,1,.021.065,2.62,2.62,0,0,1-.409.2c-0.025-.026-0.04-0.062-0.064-0.087a0.355,0.355,0,0,1-.129.065c0.026,0.071.049,0.1,0,.131a2.286,2.286,0,0,1-.387.218A0.469,0.469,0,0,0,28.7,27.8a0.251,0.251,0,0,0-.151.109A0.156,0.156,0,0,1,28.59,28a0.99,0.99,0,0,0-.387.2c-0.071-.028-0.058-0.059-0.129-0.087a0.349,0.349,0,0,1-.108.087,0.562,0.562,0,0,1,.043.109c-0.164.042-.264,0.162-0.431,0.2a0.085,0.085,0,0,0-.064-0.087,0.179,0.179,0,0,0-.108.131,0.111,0.111,0,0,1,.021.065c-0.162.041-.27,0.15-0.43,0.2-0.023-.085-0.025-0.083-0.129-0.087a0.077,0.077,0,0,1-.043.022,0.233,0.233,0,0,1-.064.152,1.285,1.285,0,0,1-.452.087l-0.022-.109a0.391,0.391,0,0,0-.129-0.022v0.044h0.021v0.022H26.114v0.065H25.641V28.869H25.6a0.139,0.139,0,0,0-.129,0v0.109h-0.5V28.869H24.93a0.139,0.139,0,0,0-.129,0v0.109h-0.5V28.869H24.263a0.111,0.111,0,0,0-.108,0v0.109h-0.5V28.869H23.617a0.139,0.139,0,0,0-.129,0v0.109h-0.5V28.869H22.949a0.139,0.139,0,0,0-.129,0v0.109h-0.5V28.869a0.338,0.338,0,0,0-.108-0.022,0.109,0.109,0,0,1-.065.022v0.109H21.679V28.869H21.636a0.139,0.139,0,0,0-.129,0v0.109H21.033V28.869H20.99a0.189,0.189,0,0,0-.151,0v0.109H20.366V28.869H20.323a0.139,0.139,0,0,0-.129,0v0.109H19.72V28.869H19.677a0.172,0.172,0,0,0-.151,0v0.109H19.053V28.869H19.01a0.139,0.139,0,0,0-.129,0v0.109H18.407V28.869H18.364a0.189,0.189,0,0,0-.151,0v0.109H17.74V28.869H17.7a0.139,0.139,0,0,0-.129,0v0.109H17.094V28.869H17.051a0.189,0.189,0,0,0-.151,0v0.109H16.426V28.869H16.383a0.139,0.139,0,0,0-.129,0v0.109H15.78V28.869H15.737a0.189,0.189,0,0,0-.151,0v0.109H15.113V28.869H15.07a0.139,0.139,0,0,0-.129,0v0.109H14.467V28.869H14.424a0.189,0.189,0,0,0-.151,0v0.109H13.8V28.869H13.757a0.139,0.139,0,0,0-.129,0v0.109H13.154V28.869H13.111a0.189,0.189,0,0,0-.151,0v0.109H12.487V28.869H12.444a0.139,0.139,0,0,0-.129,0v0.109H11.841V28.869H11.8a0.189,0.189,0,0,0-.151,0v0.109H11.173V28.869a0.392,0.392,0,0,0-.129-0.022,0.077,0.077,0,0,1-.043.022v0.109H10.527V28.869H10.484a0.189,0.189,0,0,0-.151,0v0.109H9.86V28.869H9.817a0.139,0.139,0,0,0-.129,0v0.109h-0.5V28.869a0.392,0.392,0,0,0-.129-0.022,0.077,0.077,0,0,1-.043.022v0.109h-0.5a0.315,0.315,0,0,1,.022-0.109H8.5c-0.084-.057-0.145.005-0.151,0.109H7.879V28.869H7.836a0.139,0.139,0,0,0-.129,0c-0.027.167-.312,0.118-0.5,0.109V28.913a0.749,0.749,0,0,0-.129-0.065,0.077,0.077,0,0,1-.043.022v0.109a4.733,4.733,0,0,1-.56-0.087c0.008-.087.043-0.088-0.022-0.131A0.307,0.307,0,0,0,6.308,28.7a0.24,0.24,0,0,1-.043.109,0.907,0.907,0,0,1-.388-0.3c0.039-.063.022-0.082-0.043-0.109C5.8,28.362,5.8,28.353,5.77,28.369a0.253,0.253,0,0,0-.043.065H5.684a1.531,1.531,0,0,1-.344-0.283,0.155,0.155,0,0,0,.043-0.087A0.807,0.807,0,0,0,5.231,28a0.085,0.085,0,0,1-.065.087,0.964,0.964,0,0,1-.344-0.3,0.111,0.111,0,0,0,.022-0.065,0.252,0.252,0,0,0-.129-0.065,0.118,0.118,0,0,1-.086.065A3.4,3.4,0,0,0,4.306,27.5a0.429,0.429,0,0,1,0-.152,0.641,0.641,0,0,0-.086-0.065,0.405,0.405,0,0,1-.108.065,1.03,1.03,0,0,1-.366-0.261,0.132,0.132,0,0,0,.043-0.043,0.236,0.236,0,0,1-.151-0.087c-0.037.017-.04,0.057-0.065,0.022A1.741,1.741,0,0,1,3.1,26.41l-0.646-.631a3.013,3.013,0,0,0-.409-0.435,0.106,0.106,0,0,1-.022.065,0.236,0.236,0,0,0-.065-0.174H1.916a0.736,0.736,0,0,1-.237.3,0.75,0.75,0,0,1-.28-0.022A0.806,0.806,0,0,1,1.227,25.1H1.27a0.109,0.109,0,0,1,.065-0.022c0.052,0.113.046,0.212,0.215,0.218a0.888,0.888,0,0,0,.022-0.435,0.949,0.949,0,0,0,.151-0.392l-0.581-.022a0.43,0.43,0,0,0-.108-0.065C1,24.357.981,24.288,0.947,24.255l-0.022-.283a0.342,0.342,0,0,1,.108-0.087V23.863c0.022-.022.021,0.021,0.022,0.022,0.1,0.108.053,0.273,0.258,0.283a0.266,0.266,0,0,0,.065-0.2,0.079,0.079,0,0,1-.022-0.044,0.326,0.326,0,0,1-.194-0.065c0.053-.065.014-0.016,0-0.109-0.033-.22-0.232-0.1-0.323-0.239A2.009,2.009,0,0,1,.818,22.8a0.1,0.1,0,0,1-.065-0.022,0.408,0.408,0,0,1-.022-0.2,0.8,0.8,0,0,0,.022-0.326H0.667V22.166H0.753V21.817a1.7,1.7,0,0,0-.474.022L0.3,21.926H0.28V21.9c-0.05,0-.037.019-0.086-0.022H0.258V21.817c-0.07-.018-0.033.011-0.065-0.043a0.114,0.114,0,0,0,0-.109c0.582-.045,1.188-0.02,1.959-0.022,0.018-.071-0.011-0.033.043-0.065v0.065c0.8,0,1.414-.022,2.282-0.022h0.6A0.45,0.45,0,0,1,5.4,21.535a1.265,1.265,0,0,0,.151.087H6.76a20.8,20.8,0,0,1,2.3.109c0.024-.09.038-0.088,0.151-0.087a1.239,1.239,0,0,0,.581.022l1.421-.022a2.929,2.929,0,0,0-.043.3l0.215,0.022a1.378,1.378,0,0,1,.021-0.283c0.07-.018.033,0.011,0.065-0.044-0.281-.075-0.49-0.329-0.754-0.414h-0.9v0.087H9.731v0.065h-0.3V21.317H9.365a0.106,0.106,0,0,0-.022-0.065,1.864,1.864,0,0,0-.667-0.022H6.911a0.077,0.077,0,0,0-.043-0.022V21.077H6.717v0.087H6.545a0.191,0.191,0,0,0-.237-0.109,0.207,0.207,0,0,1-.215.044V19.4l0.065-.022a1.246,1.246,0,0,1,.71.044V19.336a0.65,0.65,0,0,0,.151-0.022V19.249a0.291,0.291,0,0,1-.043-0.2,1.4,1.4,0,0,1,.3-0.2,2.357,2.357,0,0,1,.474,0c0.1-.012.267-0.047,0.366-0.065l0.172,0.022a0.863,0.863,0,0,1,.5-0.087c0.184,0.047.29,0.182,0.474,0.239A0.126,0.126,0,0,1,9.3,18.836a0.17,0.17,0,0,1,.172-0.022V18.574h2.454V18.531a0.2,0.2,0,0,1-.021-0.218,0.335,0.335,0,0,1,.151-0.044,0.271,0.271,0,0,1,.108.218c-0.027.025-.071,0.046-0.043,0.065a0.772,0.772,0,0,0,.323.022c0-.524,0-1.083,0-1.545a0.441,0.441,0,0,1,.108-0.044,0.183,0.183,0,0,1,.022-0.109v0.109h0.065L12.659,11H12.7v5.92A0.522,0.522,0,0,1,12.766,17.247Zm5.081-.435a0.508,0.508,0,0,1,0,.2H17.632a0.9,0.9,0,0,0-.366-0.022v0.022a0.619,0.619,0,0,1-.043.479h0.043a0.711,0.711,0,0,1,.5-0.087V17.356a0.216,0.216,0,0,1,0-.174A0.074,0.074,0,0,0,17.8,17.16a0.073,0.073,0,0,1,.043.022,0.084,0.084,0,0,1,.043.065,0.239,0.239,0,0,1,0,.152h0.194l-0.022-.174a0.389,0.389,0,0,1,.108-0.065,0.083,0.083,0,0,0,.065.043l0.086-.457a1.721,1.721,0,0,0-.6.044v0.022h0.129Zm-1.873.326H16.06V17.29a0.1,0.1,0,0,1,.065.022H15.974c0,0.316-.014.652-0.022,0.936a0.166,0.166,0,0,0,.129.022c-0.007-.136-0.049-0.146.086-0.152v0.022a0.216,0.216,0,0,0,0,.174h0.108a6.536,6.536,0,0,1,.064-1.175,0.334,0.334,0,0,0-.258-0.13c-0.034-.027-0.011-0.014-0.043,0A0.182,0.182,0,0,0,15.974,17.138Zm0.9,0V17.29a0.1,0.1,0,0,1,.065.022H16.792c0,0.314-.009.654-0.021,0.936a0.348,0.348,0,0,0,.194.065,0.96,0.96,0,0,0,.151,0,4.462,4.462,0,0,1,.108-1.328H17.029a0.518,0.518,0,0,1-.237.022,0.132,0.132,0,0,1-.043.043l0.022,0.065A0.335,0.335,0,0,0,16.878,17.138Zm-0.452,1.219h0.064a0.335,0.335,0,0,1,.065-0.152V17.312a0.171,0.171,0,0,1-.129-0.065C16.4,17.6,16.426,17.966,16.426,18.357Zm-16.319,3.4H0.151v0.022A0.073,0.073,0,0,1,.108,21.752ZM0,21.861a0.079,0.079,0,0,1,.022.044H0V21.861Z" transform="translate(0 0.016)"/>
</svg>
