<?xml version="1.0" encoding="utf-8"?>
<!-- Generator: Adobe Illustrator 16.0.0, SVG Export Plug-In . SVG Version: 6.00 Build 0)  -->
<!DOCTYPE svg PUBLIC "-//W3C//DTD SVG 1.1//EN" "http://www.w3.org/Graphics/SVG/1.1/DTD/svg11.dtd">
<svg version="1.1" id="Layer_1" xmlns="http://www.w3.org/2000/svg" xmlns:xlink="http://www.w3.org/1999/xlink" x="0px" y="0px"
	 width="40px" height="40px" viewBox="0 0 40 40" enable-background="new 0 0 40 40" xml:space="preserve">
<path id="it_centauro_mgs_120_ico" fill="#FFFFFF" d="M2.837,14.212c0.105,0,0.21-0.017,0.31-0.049v-0.122
	c-0.077-0.02-0.036,0.012-0.072-0.049c0.044-0.225,0.044-0.456,0-0.681c0.011-0.066,0.026-0.131,0.048-0.195v-1.1h0.31
	c-0.017,0.414,0,0.829,0.048,1.241c0.037,0.208-0.042,0.56,0,0.779H3.409v0.122c0.44,0.079,0.89,0.095,1.335,0.049
	c0.199-0.022,0.4-0.022,0.6,0c0.548,0.039,1.099,0.03,1.646-0.024v-0.507c-0.059-0.032-0.016,0.01-0.048-0.049
	c0.157-0.154,0.25-0.363,0.259-0.583c0.029-0.019,0.064-0.027,0.1-0.024c0.05,0.087,0.057,0.017,0.1,0.1
	c0.016,0.021,0.024,0.047,0.024,0.073c-0.095,0-0.074,0-0.072,0.146c0.023,0.054,0.031,0.112,0.024,0.17h0.157v-0.076
	c0.02-0.012,0.036-0.029,0.048-0.049c0.018,0.002,0.035,0.011,0.048,0.024c0.06,0.035,0.044,0.03,0.048,0.122
	c0.126,0.007,0.334,0,0.524,0c0.041-0.034,0.075-0.075,0.1-0.122c-0.076-0.045-0.115-0.132-0.1-0.219
	c0.028-0.044,0.07-0.08,0.119-0.1c0.09-0.026,0.188-0.008,0.262,0.049c0.057,0.005,0.114-0.003,0.167-0.023
	c0.131-0.021,0.384,0.015,0.524,0c0.009,0.062-0.014,0.038,0.072,0.049v-0.17c0.026,0,0.052,0.008,0.072,0.024
	c0.021,0.045,0.03,0.096,0.024,0.146H9.8l0.024-0.146H9.94c0.081,0.122,0.052,0,0.143,0.024c0.048,0.032,0.088,0.074,0.119,0.122
	c0.207,0.021,0.415,0.013,0.62-0.024v0.024H10.8c-0.046,0.019,0.048,0.024,0.048,0.024c0.202-0.096,0.435-0.105,0.644-0.024
	c0-0.074,0.007-0.147,0.024-0.219h0.572v-0.1h0.048c-0.021,0.081,0.022,0.165,0.1,0.195c0.091,0.035,0.188,0.051,0.286,0.049
	c0.019-0.125,0.053-0.248,0.1-0.365c-0.006,0.05,0.002,0.101,0.024,0.146v-0.02h0.024c0.063-0.288,0.079-0.583,0.048-0.876h-0.06
	c0.006,0.05-0.002,0.101-0.024,0.146c0.005-0.074-0.003-0.148-0.024-0.219c-0.161-0.108-0.359-0.144-0.548-0.1v0.1h-0.191v-0.17
	h-0.047c-0.037,0.02-0.078,0.029-0.119,0.024v-0.195h-0.1v-0.1c-0.049,0.001-0.097-0.007-0.143-0.024v0.075
	c0.056,0.121,0.037,0.263-0.048,0.365c-0.037,0.017,0,0-0.072,0c-0.026-0.17-0.018-0.344,0.024-0.511h-0.138
	c-0.084-0.029-0.174-0.037-0.262-0.024v0.024h-0.024l0.024,0.122c-0.169,0.039-0.336,0.087-0.5,0.146l-0.072-0.511
	c-0.07-0.045-0.121-0.115-0.143-0.195H10.3c0.191-0.015,0.382,0.028,0.548,0.122c0.213,0.028,0.43,0.028,0.644,0
	c0-0.026,0.008-0.052,0.024-0.073c0.068,0.1,0.138,0,0.238,0.024c0.439,0.005,0.878-0.028,1.311-0.1V5.5h0.048v3.82
	c0.038,0.16,0.046,0.325,0.024,0.487V11H13.4l0.024-0.073c-0.035-0.021-0.054-0.06-0.048-0.1H13.4
	c0.129,0.077,0.279,0.111,0.429,0.1c0.267,0.129,0.569,0.164,0.858,0.1v-0.076h0.1v0.073L15.741,11
	c0.217,0.063,0.441,0.097,0.668,0.1v0.17l-0.262-0.024v0.024h-0.033v0.049c1.118,0.084,2.24,0.109,3.361,0.073v0.17
	c-0.9,0-1.915,0.024-2.861,0.024c-0.021,0.079,0.012,0.037-0.048,0.073v-0.027h-0.022c0.005,0.042-0.004,0.085-0.024,0.122v-0.1
	c-0.57,0-1.1,0.027-1.645,0.023c-0.05,0.166-0.066,0.339-0.048,0.511H14.78c-0.138,0.001-0.275,0.026-0.405,0.073H14.4
	c0.403,0.057,0.811,0.065,1.216,0.024c0.127-0.02,0.257-0.011,0.381,0.024c0.062,0.313,0.078,0.632,0.048,0.949
	c0.012,0.056,0.021,0.113,0.024,0.17c0.027,0.053,0.061,0.102,0.1,0.146h-0.078c-0.004,0.057-0.012,0.114-0.024,0.17
	c0.243,0.181,1.01,0.15,1.025,0.462c0.463-0.01,1.063,0,1.6,0c0.206-0.034,0.415-0.034,0.62,0c0.123,0.063,0.316,0.5,0.477,0.584
	h2.789c0.188,0.043,0.381,0.052,0.572,0.024h1.43c0.42,0.009,0.838,0.074,1.24,0.195H26.6c0.611,0,1.262-0.019,1.836-0.024V14.65
	H31.7v0.365c0.046,0.016,0.095,0.024,0.143,0.024c0.015-0.044,0.062-0.069,0.105-0.055c0.005,0.001,0.009,0.003,0.014,0.006
	c0.459,0.051,0.921,0.067,1.383,0.049c1.595,0,2.88-0.019,4.267,0l-0.02-0.239h0.262l0.024,0.073
	c0.024,0.062,0.032,0.129,0.024,0.195H40v0.827c-2.1,0-3.9,0.024-5.936,0.024c-0.779,0-1.7,0.025-2.336,0
	c-0.006,0.01-0.015,0.018-0.024,0.024v0.073h-3.265c-0.643-0.139-1.303-0.173-1.955-0.1h-0.668
	c-0.213,0.053-0.478,0.141-0.691,0.195h-2.359c-0.068-0.005-0.135,0.012-0.191,0.049h-2.741c-0.139,0.223-0.354,0.4-0.5,0.607
	c-0.051,0.119-0.124,0.226-0.215,0.316h-1.859v0.341h0.191V17.5h0.691c0.034-0.012,0.07-0.088,0.1-0.1l0.191,0.023l0.024-0.049
	c0.035-0.006,0.308,0.049,0.429,0.049L18.9,17.2h0.048c-0.026,0.076-0.008,0.16,0.048,0.219c0.156-0.04,0.32-0.04,0.477,0v0.024
	c-0.02,0.012-0.036,0.029-0.048,0.049h0.119v-0.044c0.006-0.067,0.022-0.134,0.048-0.195c0.054-0.044,0.124-0.062,0.191-0.049
	c0.028,0.05,0.058,0.142,0.1,0.194c0.1-0.082,0.213-0.148,0.334-0.194c-0.014-0.039-0.022-0.081-0.024-0.122
	c0.586-0.156,1.203-0.156,1.788,0c0.101,0.034,0.5,0.17,0.5,0.17c0.18-0.166,0.432-0.229,0.668-0.17
	c0.037,0.02,0.078,0.028,0.119,0.023V17.4c0.412,0,0.691,0.1,1.073,0.1c0.118,0.024,0.237,0.041,0.358,0.049
	c0.023-0.045,0.068-0.072,0.119-0.072c0.024,0.07,0.091,0.119,0.166,0.121c0.043-0.048,0.05-0.067,0.101-0.049
	c0.067,0.03,0.075,0.067,0.144,0.1c0.053-0.1,0.092-0.061,0.166-0.023l0.072-0.023c0.037,0.037,0.07,0.078,0.1,0.121
	c0.166,0.026,0.335,0.026,0.5,0v0.049c0.07,0.048,0.154,0.073,0.238,0.073v-0.1h0.191v0.073c0.338,0.074,0.681,0.131,1.025,0.17
	c0.045-0.213,0.129-0.281,0.404-0.269c0.174,0.044,0.331,0.138,0.453,0.269c0.003,0.06,0.02,0.117,0.048,0.17
	c0.104,0.064,0.217,0.113,0.334,0.146c0.022-0.036,0.059-0.063,0.101-0.073c0.027,0,0.1,0.035,0.048,0.073
	c0.159,0.062,0.329,0.095,0.5,0.101c0.12-0.074,0.2-0.2,0.215-0.342h0.215v0.101h0.072v0.122c0.05,0.056,0.105,0.104,0.167,0.146
	c0.029,0.019,0.064,0.027,0.1,0.023v0.1c0.094,0.031,0.189,0.055,0.286,0.073v-0.134h0.072v0.146l0.548,0.072
	c0.008-0.063,0.057-0.112,0.119-0.122l0.1-0.584c0.035,0.003,0.068,0.011,0.1,0.024c-0.053,0.207-0.086,0.419-0.1,0.633h0.072
	c0.02,0.051,0.055,0.094,0.1,0.122c0.098,0.046,0.203,0.07,0.311,0.073v-0.073c0.018-0.003,0.035-0.011,0.048-0.024
	c0.114,0.047,0.234,0.08,0.356,0.101c0.006-0.011,0.015-0.019,0.024-0.024c-0.019-0.08,0.009-0.165,0.072-0.219
	c0.006,0.01,0.015,0.018,0.024,0.023c-0.027,0.079-0.044,0.16-0.049,0.243c0.266,0.072,0.537,0.121,0.811,0.146l0.023-0.073
	c0.063,0.012,0.127,0.02,0.191,0.023c0.037-0.021,0.077-0.038,0.119-0.049c0.309,0.168,0.649,0.268,1,0.293
	c0.092,0.027,0.189,0.035,0.285,0.023c0.166-0.129,0.297-0.296,0.382-0.487h0.524c0.021,0.219,0.029,0.438,0.023,0.657h0.048v-0.05
	h0.048v0.049h0.262c0.041,0.083,0.059,0.176,0.049,0.269h-0.079c-0.044,0.021-0.095,0.029-0.144,0.023v0.1h0.168
	c0.019,0.037,0.043,0.07,0.071,0.101c-0.003,0.019-0.011,0.036-0.024,0.049c-0.064,0.155-0.227,0.181-0.143,0.39
	c-0.16-0.015-0.322,0.002-0.477,0.049l-0.549,0.607c-0.369,0.377-0.727,0.768-1.1,1.145c-0.244,0.186-0.44,0.428-0.572,0.705
	c-0.159,0.045-0.296,0.15-0.381,0.293C32.744,23.09,32.68,23.039,32.609,23v0.02c0.076,0.115,0.102,0.256,0.072,0.39l-0.1,0.073
	c-0.023,0.25-0.031,0.502-0.023,0.754c-0.047,0.016-0.095,0.023-0.144,0.023v-0.047c-0.048-0.216-0.056-0.438-0.024-0.656h-0.043
	c-0.218,0.057-0.441,0.09-0.666,0.1l-1.145,0.389c0-0.092,0.023-0.066-0.1-0.072v0.049c-0.025,0.07-0.041,0.145-0.049,0.219
	l-0.215,0.56c-0.314,0.631-0.834,1.136-1.474,1.433l-0.62,0.194c-0.33,0.071-0.67,0.071-1,0c-0.891-0.128-1.669-0.669-2.1-1.46
	c-0.225-0.332-0.355-0.719-0.381-1.119h-1.74c-0.023,0.345-0.131,0.679-0.311,0.974c-0.348,0.696-0.955,1.229-1.691,1.483
	c-0.188,0.047-0.38,0.08-0.572,0.101c-0.316,0.057-0.641,0.049-0.954-0.024c-1.212-0.289-2.122-1.295-2.288-2.531H16
	c-0.145,1.174-0.982,2.145-2.122,2.459c-0.528,0.154-1.088,0.162-1.621,0.023c-1.132-0.336-1.957-1.311-2.1-2.482h-1v0.024H9.13
	c-0.02,0.319-0.118,0.628-0.286,0.899c-0.417,0.834-1.189,1.433-2.1,1.631c-1.074,0.162-2.153-0.256-2.837-1.101
	c-0.21-0.292-0.378-0.61-0.5-0.948c-0.024-0.172-0.058-0.344-0.1-0.512c-0.014-0.027-0.477-0.525-0.5-0.535H2.288
	c0.011,0.22,0.003,0.439-0.024,0.657H2.145v-0.045c-0.049-0.224-0.058-0.454-0.024-0.681H1.716v-0.074l0.238-0.023v-0.05
	c-0.063-0.063-0.089-0.155-0.072-0.243H1.716v-0.1h0.167v-0.561c-0.089-0.019-0.074,0.024-0.1-0.072
	c-0.062-0.084-0.08-0.193-0.048-0.292h0.029c0.01,0.087-0.011,0.061,0.048,0.1c0.033-0.032,0.05-0.078,0.047-0.125
	c-0.044-0.067-0.078-0.142-0.1-0.219c-0.041,0.053-0.101,0.089-0.167,0.101c-0.056-0.126-0.12-0.248-0.191-0.365
	c-0.02,0.035-0.06,0.055-0.1,0.049c-0.087-0.221-0.154-0.449-0.201-0.682c0.088-0.041,0.15-0.123,0.167-0.219
	c-0.014-0.019-0.041-0.132-0.072-0.195c-0.039,0.051-0.106,0.07-0.167,0.049c-0.062-0.137-0.161-0.256-0.286-0.34h0.021v-0.024
	c0.033,0.009,0.067,0.009,0.1,0c0.013-0.048,0.013-0.099,0-0.146h0.019c0.013,0.031,0,0.018,0.024,0.023
	c0.043-0.018,0.084-0.042,0.119-0.073C1.009,19.713,1,19.663,1,19.614H0.429v-0.101c-0.07,0.01-0.03,0.04-0.072-0.023
	C0.329,19.455,0.1,18.967,0.1,18.932c0.013-0.014,0.021-0.03,0.024-0.049c0.078,0.01,0.154-0.03,0.191-0.1
	c-0.14-0.064-0.3,0-0.31-0.219c0.047-0.053,0-0.4,0.048-0.535c0.042,0.031,0.092,0.048,0.143,0.049v-0.119
	c0.064-0.008,0.126-0.023,0.185-0.049L0.215,17.5h0.143v-0.076c0.336,0.014,0.673-0.021,1-0.1V17.4h0.859v-0.244
	c0.086-0.021,0.174-0.029,0.262-0.024C2.499,17.22,2.506,17.311,2.5,17.4h0.265v-0.025h0.024c-0.006-0.09,0.002-0.181,0.024-0.268
	c0.078,0.02,0.158,0.028,0.238,0.023c0.021,0.088,0.029,0.178,0.024,0.268c0.068-0.01,0.133-0.034,0.191-0.072
	c0.093-0.023,0.084,0.056,0.119,0.072c0,0,0.169-0.023,0.215-0.023c0-0.077-0.04-0.033,0.024-0.073
	c0.09,0.063,0.205,0.081,0.31,0.05c0.043-0.017,0.476-0.041,0.644-0.05c0-0.065,0.007-0.131,0.022-0.194h0.025v0.023
	c0.021,0.045,0.03,0.096,0.024,0.146L5.673,17.3l0.381,0.024c0.059-0.03,0.125-0.047,0.191-0.049V17.3
	c-0.042-0.005-0.083,0.004-0.119,0.024H6.15c0.125,0.023,0.253,0.031,0.381,0.023c0.419,0.048,0.843,0.048,1.263,0v-0.265H7.032
	c-0.014-0.034-0.029-0.068-0.048-0.101c-0.107-0.049-0.557-0.041-0.691-0.072L1.43,16.426l0.024-0.1
	c-0.33-0.057-0.666-0.073-1-0.049c-0.034-0.05-0.051-0.109-0.048-0.17c0.024-0.121,0.024-0.245,0-0.365
	c0.049-0.494,0.049-0.991,0-1.484c0.02-0.012,0.036-0.029,0.048-0.049c0.595,0.042,1.192,0.042,1.788,0v-0.143
	c0.208-0.077,0.155-0.264,0.143-0.535h0.046c0.013,0.013,0.03,0.021,0.048,0.024v-0.122c-0.033-0.186-0.024-0.377,0.024-0.56v-1.557
	C2.511,9.377,2.519,7.438,2.527,5.5h0.047v7.422c0.035,0.193,0.051,0.388,0.048,0.584c0.024,0.073,0.034-0.032,0.072,0.024v0.487
	C2.809,14.056,2.838,14.046,2.837,14.212z M16.162,11.8h0.048v0.024h-0.048V11.8z M16.567,11.8h0.048v0.024
	C16.597,11.822,16.58,11.813,16.567,11.8z M15.947,11.824c0.049-0.007,0.099,0.002,0.143,0.024c-0.048,0.007-0.098,0-0.142-0.021
	L15.947,11.824z M16.686,11.824c0.049-0.007,0.099,0.002,0.143,0.024c-0.048,0.007-0.098,0-0.142-0.021L16.686,11.824z
	 M16.877,11.873c0.03,0.044,0.03,0.102,0,0.146v-0.144V11.873z M15.9,12c0.325-0.037,0.654-0.028,0.977,0.024v0.024h-0.024
	c-0.308,0.048-0.62,0.056-0.93,0.024L15.9,12z M12.634,12.243c0.027,0.028,0.027,0.072,0,0.1V12.243z M12.61,12.511
	c0.031,0.053,0.031,0.118,0,0.17V12.511z M1.383,17.277c0.057-0.008,0.115,0.001,0.167,0.024
	C1.493,17.311,1.435,17.302,1.383,17.277z M3.433,17.277c0.049-0.006,0.099,0.002,0.143,0.024
	C3.527,17.309,3.477,17.301,3.433,17.277z M3.767,17.277c0.057-0.008,0.115,0.001,0.167,0.024
	C3.877,17.311,3.818,17.302,3.767,17.277L3.767,17.277z"/>
</svg>
