<?xml version="1.0" encoding="utf-8"?>
<!-- Generator: Adobe Illustrator 16.0.0, SVG Export Plug-In . SVG Version: 6.00 Build 0)  -->
<!DOCTYPE svg PUBLIC "-//W3C//DTD SVG 1.1//EN" "http://www.w3.org/Graphics/SVG/1.1/DTD/svg11.dtd">
<svg version="1.1" id="Layer_1" xmlns="http://www.w3.org/2000/svg" xmlns:xlink="http://www.w3.org/1999/xlink" x="0px" y="0px"
	 width="40px" height="40px" viewBox="0 0 40 40" enable-background="new 0 0 40 40" xml:space="preserve">
<path id="Color_Fill_1" fill="#FFFFFF" d="M1.047,6h0.082v4.589c-0.056,0.949,0,1.901,0.165,2.837
	c0.015-0.015,0.025-0.035,0.028-0.056c0.071-0.187,0.09-0.388,0.055-0.584c0-0.41,0.055-0.789,0.055-1.251V6.25h0.083v5.006
	c0,0.476,0.05,0.959,0.055,1.363v0.723c0.071,0.089,0.119,0.194,0.138,0.306h0.083v0.084h0.248l0.028-0.389
	c0.357-0.014,0.721,0,1.185,0v-0.835h0.357c-0.01,0.2,0,0.551,0,0.834c0.511,0,1.236-0.039,1.818-0.056V8.5
	c0.119-0.014,0.239-0.014,0.358,0v4.812l1.074-0.056v-0.164c0.039-0.014,0.076-0.033,0.11-0.056
	c-0.021-0.033-0.031-0.072-0.028-0.111c0.03,0,0.06,0.01,0.083,0.028c-0.022,0.033-0.022,0.077,0,0.111
	c0.021-0.003,0.04-0.013,0.055-0.028c0.022-0.043,0.042-0.089,0.056-0.136H7.107c-0.044,0.018-0.094,0.018-0.138,0
	c0.106-0.606,0.153-1.221,0.138-1.836H7.3v1.252h0.055c0.013,0.169,0.041,0.336,0.083,0.5V12.9H7.383v0.028
	c0.038,0.003,0.075,0.013,0.11,0.028c0.026,0.119,0.045,0.24,0.055,0.362c0.492,0,0.864,0.025,1.322,0
	c0.135-0.03,0.274-0.04,0.413-0.028c0.146,0.08,0.304,0.136,0.468,0.167c0.003-0.121-0.006-0.243-0.028-0.362H9.89
	c-0.027-0.1-0.045-0.202-0.055-0.306c0.021-0.003,0.041-0.013,0.055-0.028l0.248,0.084c0.012-0.121,0.002-0.244-0.027-0.362H9.917
	v-0.336c-0.261-0.079-0.174-1.2-0.165-1.641l0.331-0.306v-0.056h0.689c0.109-0.026,0.222-0.026,0.331,0
	c0.178,0.125,0.346,0.264,0.5,0.417v1.2c0.057-0.007,0.114,0.003,0.165,0.028c0.04,0.012,0.077,0.031,0.11,0.056
	c-0.043,0.076-0.063,0.163-0.055,0.25c-0.185,0.042-0.179,0.156-0.165,0.389h-0.17c-0.032,0.118-0.05,0.24-0.055,0.362
	c0.053,0.019,0.109,0.028,0.165,0.028c0.033,0.021,0.071,0.03,0.11,0.028v0.167h0.027v-0.032c0.023-0.042,0.033-0.091,0.028-0.139
	h0.11v0.028H11.9c-0.009,0.079-0.029,0.058,0,0.111c0.042,0.023,0.09,0.033,0.138,0.028V12.87c0.133-0.13,0.177-0.327,0.11-0.5
	c0.071-0.157,0.09-0.332,0.055-0.5c0-0.365,0.083-0.578,0.083-1V6.389h0.055v5.09c0.116,0.482,0.153,0.98,0.11,1.474l0.413,0.056
	v-0.195c0.202-0.02,0.405-0.02,0.606,0c0.035,0.062,0.063,0.127,0.083,0.195c0.061-0.065,0.108-0.157,0.165-0.223
	c0.192,0.026,0.386,0.035,0.579,0.028v0.334c0.138,0.02,0.279,0.011,0.413-0.028c-0.039,0.003-0.077-0.007-0.11-0.028
	c-0.195-0.187-0.288-0.456-0.248-0.723h0.165l-0.027-0.417c-0.252-0.141-0.402-0.412-0.386-0.7c-0.312,0.024-0.625,0.024-0.937,0
	c0.07-0.04,0.031,0.006,0.055-0.083l-0.413-0.028c0-0.16-0.047-0.385-0.027-0.5c0.032-0.07,0.042-0.148,0.027-0.223h0.468v0.032
	c-0.111,0-0.151-0.015-0.193,0.056c0.053,0.046,0.124,0.066,0.193,0.056c0,0,0.005-0.109,0.028-0.056v0.056
	c0.073,0.005,0.146,0.005,0.22,0c0-0.03,0.009-0.059,0.027-0.083c0.079-0.03,0.165-0.04,0.248-0.029v0.028h0.027v0.083l0.5,0.028
	c0.029-0.078,0.065-0.152,0.11-0.223L14.3,10.339c0.003,0.059-0.029,0.114-0.083,0.139v-0.056c0.025-0.052,0.034-0.11,0.027-0.167
	l0.275-0.028c0.017-0.044,0.026-0.091,0.028-0.139c0.17-0.004,0.338-0.032,0.5-0.083c0.204,0.011,0.407,0.039,0.606,0.083V10.2
	c0.094,0.049,0.178,0.115,0.248,0.195c0.024,0.018,0.053,0.028,0.083,0.028c-0.005,0.087,0.014,0.174,0.055,0.25
	c0.126,0.045,0.255,0.082,0.386,0.111c0.011-0.07-0.016-0.044,0.083-0.056l-0.028,0.056h0.02c0.09-0.053,0.196-0.073,0.3-0.056
	v0.028h-0.023c-0.053,0.022,0.055,0.028,0.055,0.028c0.263-0.062,0.537-0.062,0.8,0c0.747,0.071,1.568,0.045,2.342,0.056
	c0.144-0.385,0.404-0.715,0.744-0.946c-0.091,0.316-0.21,0.624-0.358,0.918h0.193v0.195h-0.3c-0.237,0.537-0.5,1.083-0.771,1.613
	c-0.156,0.254-0.286,0.524-0.386,0.806h0.331c0.057,0.395,0.231,0.763,0.5,1.057v-0.028c-0.017-0.048-0.006-0.101,0.027-0.139H20
	c0.365,0.297,0.752,0.566,1.157,0.806h0.276v0.195c1.088,0,2.022,0.056,3.084,0.056h1.791c0.407,0.092,0.965-0.071,1.405,0.028
	c0.567,0.08,1.142,0.08,1.708,0c0.06-0.181,0.188-0.331,0.357-0.417c0.19-0.046,0.387-0.055,0.58-0.028
	c0.496-0.019,0.992-0.009,1.488,0.028c0.086,0.171,0.209,0.323,0.357,0.445c0.51,0.083,1.028,0.102,1.543,0.056L37.8,15.54
	c0.007-0.012,0.017-0.021,0.028-0.028v-0.25h0.331l0.028,0.083c0.026,0.062,0.035,0.129,0.027,0.195L40,15.568V16.4
	c-1.932-0.006-3.712,0.084-5.7,0.083c-0.782-0.092-1.575-0.045-2.342,0.139c-0.021,0.033-0.03,0.072-0.026,0.111h-0.086v-0.081
	h-2.199c-0.045-0.015-0.121-0.1-0.166-0.111c-0.1-0.014-0.199-0.014-0.299,0l-1.268,0.028l-3.168,0.028
	c-0.778,0-1.441,0.056-2.176,0.056h-1.166c-0.139,0.087-0.269,0.19-0.385,0.306c-0.334,0.275-0.694,0.517-1.075,0.723
	c0.02,0.024,0.035,0.031,0.055,0.057c-0.174-0.026-0.353-0.017-0.523,0.027h1.267l0.027-0.084c0.199-0.082,0.418-0.111,0.633-0.082
	v-0.113h1.654l0.082,0.113h0.606c0.007-0.012,0.016-0.021,0.026-0.027v-0.085h0.248V17.6c0.291,0.023,0.577,0.079,0.854,0.168
	c0.134-0.039,0.273-0.058,0.413-0.057c0.044,0.124,0,0.15,0.139,0.167c0.121,0.082,0.35,0.054,0.467,0.14
	c-0.021,0.002-0.04,0.012-0.055,0.027c0.047,0.001,0.094,0.011,0.139,0.028v-0.03c-0.021-0.033-0.031-0.072-0.028-0.111
	c0.022-0.014,0.041-0.033,0.055-0.056h0.028V17.9c0.119,0.119,0.212,0.261,0.275,0.416c0.157-0.038,0.323-0.019,0.467,0.057V17.9
	h0.689v0.027c-0.055,0.061-0.076,0.145-0.055,0.223h0.027c0.035-0.068-0.013-0.019,0.055-0.056V18.4h-0.11v0.11h0.056
	c0.155,0.095,0.306-0.062,0.5,0.028l0.026,0.083l0.22,0.028l0.055,0.082l0.387,0.028c0.051,0.017,0.134,0.101,0.193,0.111
	c0.514,0.064,1.016,0.205,1.488,0.417v-0.078c-0.027-0.062-0.036-0.129-0.027-0.195c-0.084-0.004-0.168,0.006-0.248,0.028
	c-0.059-0.33-0.076-0.665-0.055-1c0.039-0.155,0.047-0.315,0.023-0.474h0.055c0.107-0.036,0.221-0.046,0.332-0.028
	c0.023,0.034,0.041,0.071,0.055,0.11c0.02,0.034,0.029,0.072,0.026,0.111H30.8l0.027,0.084c0.073,0.114,0.007,0.377,0.083,0.5
	c0.099,0.053,0.184,0.13,0.248,0.223c0.093,0.248,0.131,0.514,0.109,0.779h0.028v-0.055c0.024-0.021,0.031-0.035,0.056-0.056
	c0.442,0.253,0.951,0.369,1.459,0.334v0.083l0.221,0.027c0-0.029,0.01-0.059,0.027-0.082c0.052-0.025,0.109-0.035,0.166-0.028
	c0.266,0.086,0.55,0.104,0.825,0.056v0.139h0.028V19.8c0.302,0.038,0.598,0.114,0.882,0.224c0.59,0.181,1.2,0.271,1.763,0.444
	c0.182,0.052,0.365,0.089,0.551,0.111l0.056-0.084c0.14-0.039,0.289-0.019,0.413,0.056c-0.098,0.2-0.154,0.418-0.165,0.641
	c-0.431,0.013-0.825,0.243-1.048,0.611c-0.293,0.301-0.614,0.566-0.908,0.862l-0.5,0.528c-0.279,0.188-0.522,0.426-0.717,0.701
	c0.197-0.002,0.383,0.092,0.5,0.25c0.043,0.086,0.063,0.182,0.056,0.277c-0.063,0.022-0.12,0.061-0.165,0.111
	c0.02,0.204,0.01,0.41-0.027,0.611h-0.084c0.002-0.194-0.008-0.39-0.029-0.584l-0.164,0.028V25h-0.082v-0.059
	c-0.035-0.117-0.045-0.241-0.027-0.362l-0.882,0.056c-0.169,0.215-0.386,0.387-0.634,0.5c-0.203,0.031-0.395,0.117-0.551,0.25
	c-0.072,0.209-0.127,0.423-0.166,0.641c-0.159,0.401-0.393,0.77-0.688,1.084c-0.737,0.691-1.765,0.982-2.755,0.779
	c-0.344-0.096-0.668-0.246-0.964-0.445c-0.193-0.102-0.37-0.232-0.523-0.389c-0.244-0.275-0.474-0.563-0.688-0.861
	c-0.047-0.077-0.211-0.562-0.248-0.584h-1.928v0.027h-0.028c-0.045,0.335-0.179,0.652-0.386,0.918
	c-0.373,0.606-0.949,1.061-1.625,1.279c-0.192,0.063-0.332,0.035-0.551,0.083c-0.283,0.055-0.572,0.055-0.854,0
	c-1.244-0.251-2.201-1.247-2.4-2.5h-1.043c-0.199,1.097-0.964,2.007-2.011,2.392c-1.374,0.459-2.877-0.143-3.555-1.422
	c-0.186-0.293-0.299-0.627-0.331-0.974h-0.8c-0.368,1.167-1.282,2.08-2.449,2.448C7.246,28.129,6.109,27.801,5.344,27
	c-0.162-0.225-0.31-0.458-0.444-0.7c-0.204-0.337-0.317-0.72-0.331-1.112H4.49V25H4.435c-0.07,0.031-0.15,0.031-0.22,0v-0.059
	c0.074-0.107,0.084-0.246,0.028-0.362h0.165c0.06-0.026,0.126-0.036,0.192-0.028c0.052-0.115,0.052-0.246,0-0.361
	c-0.018,0.192-0.189,0.152-0.386,0.139c-0.018-0.008-0.251,0.025-0.386,0.027L3.8,24.023h0.084v-0.084l0.275-0.028
	c0.033-0.06,0.052-0.127,0.055-0.195H4.187c-0.197,0.166-0.42,0.298-0.661,0.39c-0.098-0.002-0.194,0.026-0.275,0.082v0.557H3.223
	v0.027H3.14v-0.555H2.948c0.003,0.214-0.006,0.428-0.028,0.641c-0.03,0-0.059-0.01-0.083-0.028c-0.087-0.146,0.053-0.44-0.028-0.612
	l-0.082-0.027l-0.083-0.25c0.041-0.042,0.078-0.089,0.11-0.139c0.15-0.033,0.292-0.1,0.413-0.195
	c-0.29-0.361-0.506-0.777-0.634-1.224c-0.034-0.27-0.15-0.522-0.333-0.723c-0.125-0.038-0.257-0.047-0.386-0.028l-0.028-0.723h0.197
	V20.88c-0.118-0.222-0.21-0.457-0.275-0.7c-0.284-0.695-0.514-1.411-0.689-2.142h0.248c-0.056-0.181,0.053-0.147,0.11-0.278
	c-0.048-0.104-0.113-0.197-0.193-0.278H1.24c0.169-0.142,0.366-0.246,0.579-0.306c0.013,0.049,0.031,0.095,0.055,0.139
	c0.124-0.067,0.252-0.123,0.386-0.167v-0.023c-0.211-0.007-0.216-0.078-0.441-0.084v-0.89H1.763c-0.13-0.08-0.563-0.045-0.663-0.11
	c-0.038-0.026-0.043-0.138-0.083-0.167c-0.071-0.02-0.144-0.029-0.217-0.028c-0.177-0.064-0.331-0.181-0.441-0.334
	c-0.13-0.238-0.179-0.511-0.139-0.779c0.047-0.105,0.074-0.218,0.08-0.333c-0.094-0.021-0.175-0.082-0.22-0.167
	c-0.064-0.17-0.082-0.354-0.052-0.533h0.743c0.034-0.165,0.11-0.318,0.22-0.445v-0.719c0-0.407,0.055-0.885,0.055-1.363L1.047,6
	L1.047,6z M12.947,10.45c-0.003,0.039,0.006,0.078,0.027,0.111c0.003-0.039-0.006-0.078-0.026-0.111H12.947z M13.2,10.812h0.083
	v-0.167c-0.068-0.036-0.019,0.012-0.055-0.056H13.2V10.812z M12.98,10.729c0,0.03,0.01,0.059,0.028,0.083v-0.084h-0.033
	L12.98,10.729z M15.762,10.729c0.04,0.032,0.098,0.032,0.138,0h-0.142H15.762z M16.671,10.757c0.015,0.015,0.034,0.025,0.055,0.028
	c-0.016-0.016-0.037-0.026-0.059-0.029L16.671,10.757z M16.891,10.757c0.015,0.015,0.034,0.025,0.055,0.028
	c-0.016-0.016-0.037-0.026-0.059-0.029L16.891,10.757z M16.368,11.119c-0.188-0.022-0.378,0.007-0.551,0.083
	c0.049,0.058,0.039,0.182,0.083,0.25c0.388-0.207,0.838-0.267,1.267-0.167v1.641c-0.081,0.022-0.165,0.032-0.248,0.028
	c-0.024-0.018-0.053-0.028-0.083-0.028c0.077,0.219-0.108,0.268-0.358,0.25v0.278c0.153,0.042,0.315,0.042,0.468,0
	c-0.021-0.003-0.04-0.013-0.055-0.028H17c0.012,0.078,0.117,0.062,0.276,0.056v0.056c0.008,0.129,0.008,0.259,0,0.389l0.992,0.195
	c0.133-0.26,0.122-0.688,0.275-0.946c0.434-0.728,0.961-1.434,1.35-2.2h-0.141c-0.308,0.065-0.625,0.075-0.937,0.028
	c-0.708-0.011-1.416,0.017-2.121,0.084l0.028-0.056h-0.028c-0.104,0.055-0.228,0.055-0.331,0v0.083L16.368,11.119z M12.98,11.008
	v0.111h0.05v-0.113h-0.055L12.98,11.008z M19.812,11.342c-0.277,0.344-0.5,0.729-0.661,1.14c0.015,0.015,0.025,0.035,0.028,0.056
	h0.055c0.043,0.024,0.095,0.024,0.138,0c0.235-0.368,0.404-0.774,0.5-1.2h-0.065L19.812,11.342z M3.255,12.148
	c0-0.03,0.01-0.059,0.028-0.083c0.088-0.031,0.182-0.041,0.275-0.028c0.023,0.034,0.042,0.071,0.055,0.111H3.251H3.255z
	 M3.255,12.315c0.12-0.018,0.242-0.008,0.358,0.028c-0.121,0.018-0.245,0.008-0.362-0.029L3.255,12.315z M1.216,12.927H1.35v0.167
	H1.212v-0.169L1.216,12.927z M1.6,13.037h0.136V13.2H1.6V13.037z M14.768,13.148c0.031,0.029,0.079,0.029,0.11,0H14.768z
	 M17.909,14.01c0.03,0,0.059,0.01,0.083,0.028c-0.031,0.001-0.062-0.009-0.086-0.028H17.909z M8.926,17.736v-0.082
	c-0.409-0.046-0.813-0.121-1.212-0.223c-0.588-0.149-1.2-0.174-1.763-0.306h-0.91c-0.821,0-1.806,0.084-2.534,0v0.028
	c0.113,0.193,0.161,0.417,0.138,0.64c0.081,0.055,0.118,0.137,0.193,0.195c0.448,0.122,0.917,0.15,1.377,0.082
	c1.244,0.066,2.492-0.008,3.719-0.223c0.175-0.046,0.977-0.049,1.074-0.111H8.926z M1.846,17.986c-0.174-0.022-0.35-0.022-0.523,0
	v0.084H1.35c0.299-0.061,0.605-0.078,0.909-0.057V17.9c-0.025-0.053-0.035-0.11-0.028-0.168h0.056v0.084
	c0.032-0.021,0.071-0.031,0.11-0.027l0.138,0.223h0.027L2.59,17.9H2.562v0.027c-0.021,0.053-0.028-0.056-0.028-0.056
	c0.074-0.229,0.064-0.478-0.028-0.7c-0.22-0.021-0.439,0.049-0.606,0.195c0.063,0.068,0.103,0.156,0.11,0.25
	C1.875,17.686,1.806,17.84,1.846,17.986z M18.623,17.709v0.057c0.266,0.04,0.538,0.031,0.8-0.029
	C19.176,17.73,18.9,17.71,18.623,17.709z M25.123,17.736c0.023,0.091-0.014,0.044,0.055,0.084v-0.084H25.123L25.123,17.736z
	 M25.206,17.736c0.008,0.049,0.039,0.09,0.083,0.111v-0.055C25.266,17.769,25.238,17.75,25.206,17.736L25.206,17.736z M2.313,18.043
	h0.139l0.028-0.057c-0.039-0.052-0.086-0.099-0.138-0.139v0.028C2.317,17.928,2.307,17.986,2.313,18.043L2.313,18.043z
	 M2.613,17.848v0.168h0.059c0.022-0.049,0.072-0.052,0.028-0.084c-0.031-0.08-0.005-0.051-0.083-0.084H2.613z M26.029,17.986
	c0.018,0.102,0.018,0.205,0,0.307H26.2v-0.055c-0.05-0.088-0.104-0.172-0.167-0.252H26.029z M25.12,18.016l0.032,0.084l0.22,0.028
	c0.021-0.044,0.062-0.075,0.11-0.083v-0.029h-0.358H25.12z M25.727,18.043v0.167h0.027v0.028l0.248,0.027v-0.027
	c-0.022-0.043-0.032-0.092-0.027-0.139h-0.052c-0.059-0.035-0.125-0.055-0.192-0.057H25.727z M25.426,18.1v0.056h0.027
	C25.45,18.135,25.441,18.115,25.426,18.1L25.426,18.1z M27.826,18.572c0.015,0.015,0.034,0.024,0.055,0.027
	c-0.016-0.016-0.035-0.025-0.057-0.029L27.826,18.572z M31.188,19.352c0.021-0.266-0.016-0.531-0.11-0.779
	c-0.04,0.048-0.163,0.066-0.193,0.111v0.527c-0.06,0.069-0.071,0.17-0.026,0.25c0.106-0.044,0.216-0.081,0.328-0.111L31.188,19.352z
	 M30.746,19.323c-0.127-0.042-0.266-0.032-0.387,0.028c0.143,0.119,0.316,0.197,0.5,0.223v-0.029h0.027
	c-0.078-0.049-0.131-0.131-0.143-0.223L30.746,19.323z M33.859,20.157l0.027-0.195c-0.154-0.031-0.311-0.04-0.468-0.028
	c-0.052,0.025-0.108,0.035-0.165,0.028v0.028h0.027c0.064,0.044,0.17,0.012,0.248,0.056c0.031,0.054,0.059,0.11,0.082,0.167
	c0.125,0.086,0.613-0.07,0.801,0.028l0.027,0.083c0.139-0.012,0.277-0.002,0.414,0.027c0.172,0.094,0.338,0.195,0.5,0.307
	l0.881,0.195c0-0.084,0.009-0.168,0.027-0.25c0.066,0.008,0.133-0.002,0.193-0.028L34.6,20.129c-0.189-0.09-0.396-0.137-0.605-0.139
	c-0.023,0.054-0.041,0.109-0.055,0.167h-0.082H33.859z M18.072,23.884h-0.414v0.556h0.662v-0.056
	c-0.133-0.155-0.12-0.45-0.248-0.612V23.884L18.072,23.884z M4.436,24.635v0.307h0.11v-0.307H4.436L4.436,24.635z M17.658,24.8v0.5
	h0.826v-0.387h-0.11C18.162,24.775,17.902,24.734,17.658,24.8z"/>
</svg>
