<svg xmlns="http://www.w3.org/2000/svg" width="40" height="40" viewBox="0 0 40 40">
  <defs>
    <style>
      .cls-1 {
        fill: #fff;
        fill-rule: evenodd;
      }
    </style>
  </defs>
  <path id="it_c1_ariete_preserie_ico" class="cls-1" d="M12.576,18.333V18.62h0.153a1.443,1.443,0,0,1,.087-0.375,0.3,0.3,0,0,1,.087-0.022l0.087,0.265a0.548,0.548,0,0,1,.218-0.177,0.812,0.812,0,0,0,.5.11,0.161,0.161,0,0,0,.044.177V18.333h0.087a0.2,0.2,0,0,1,.066-0.066V18.244a0.181,0.181,0,0,1-.153-0.044H14.5V18.09a0.34,0.34,0,0,1,.109-0.022,0.079,0.079,0,0,0,.044.022c0-.038.087-0.21,0.022-0.221H14.76a0.18,0.18,0,0,0,.066.2,0.653,0.653,0,0,0,.284.022,0.276,0.276,0,0,1,.022-0.155h0.044V17.029H15.087a0.507,0.507,0,0,0-.393-0.309,0.11,0.11,0,0,0-.066-0.022,0.828,0.828,0,0,0-.087.243H14.389a0.354,0.354,0,0,1-.022-0.11,0.522,0.522,0,0,0,.109-0.221,0.2,0.2,0,0,1-.087-0.066,0.757,0.757,0,0,1-.306,0V16.455H14.061a1.7,1.7,0,0,1-.458.044l0.022,0.11a1.709,1.709,0,0,0-.415.11,2.241,2.241,0,0,0-.044-0.375,0.631,0.631,0,0,1-.131-0.221,1.74,1.74,0,0,1,.48.111c0.084,0.017.41,0,.546,0l0.022-.155h0.109v0.133h0.022c0.059-.03.172,0.025,0.284,0a2.17,2.17,0,0,1,.655-0.088,4.885,4.885,0,0,0,.5.066l0.022-.066c-0.056-.032-0.025,0-0.044-0.066h0.022a0.67,0.67,0,0,0,.371.066,3.43,3.43,0,0,0,1.31.088V16.168a0.263,0.263,0,0,0,0-.177H17.4v0.2c0.3,0,.5.095,0.764,0.066v0.155l-0.218-.022-0.022.066-0.371-.022a6.252,6.252,0,0,1-1.135.022l-0.044.066h0.109a0.675,0.675,0,0,1,0,.2L15.852,16.7V16.72a0.419,0.419,0,0,1,.022.331,5.1,5.1,0,0,0,0,1.038H15.721a0.321,0.321,0,0,1-.022.11h1.135a2.41,2.41,0,0,0,.044-0.839c0.015-.017.029-0.049,0.044-0.066a3.338,3.338,0,0,1,1.114-.022v0.044a3.611,3.611,0,0,1,.022.883h0.066v0.133H17.991l-0.022.309,0.393,0.022,0.022-.11h0.109V18.31a1.335,1.335,0,0,1,.371-0.022V18.31h0.022v0.11c0.118-.012.231,0,0.393,0l0.022-.11a1.1,1.1,0,0,1,.371.11,0.249,0.249,0,0,1,.24-0.066,0.477,0.477,0,0,0,.2.133,1.4,1.4,0,0,1,.655,0v0.442l0.328,0.022V18.907h0.153c0,0.08.021,0.076,0.153,0.066a7.251,7.251,0,0,0,1.092.11,3.169,3.169,0,0,0,.437.221,0.238,0.238,0,0,1,.218-0.088,0.336,0.336,0,0,1,.044.088,0.5,0.5,0,0,1-.022.243c0.266,0.088.434,0.387,0.677,0.486h1.769a3.472,3.472,0,0,0,1.856.2,6.851,6.851,0,0,1,1.463.11h2.511v-0.11H33.8v0.133a3.753,3.753,0,0,1,.742.044h4.825V20.1H39.8c0.05,0.1.16,0.194,0.2,0.287v0.751H39.716v0.088H39.5V21.137H39.345v0.044H34.5a3.468,3.468,0,0,1-.7.044v0.066c-1.174,0-2.272-.044-3.406-0.044H28.865a15.518,15.518,0,0,1-2.948.088V21.4a0.248,0.248,0,0,0-.131.066,0.414,0.414,0,0,1,.022.2,2.64,2.64,0,0,0-.59.155,0.936,0.936,0,0,1-.328.022,1.39,1.39,0,0,0-.306.088c-0.217.061-.434,0.085-0.633,0.133H22.533v0.044h0.24l0.044,0.066h0.7c0.554,0,1.046.042,1.506,0.044l0.022-.11,0.066-.022a4,4,0,0,1,.568.044,0.474,0.474,0,0,1,.044-0.066,3.462,3.462,0,0,1,.786-0.044v0.353h0.022V22.4a1.934,1.934,0,0,1,.48.066c0.29,0.065.587,0.029,0.852,0.088l1.659,0.155a3.065,3.065,0,0,1,.524.331,1.489,1.489,0,0,1,.284.155c0.034-.021.066-0.08,0.087-0.044a0.679,0.679,0,0,0,.393.133,0.549,0.549,0,0,1,.655-0.265v0.044a0.114,0.114,0,0,0-.022.066,0.269,0.269,0,0,1,.2.331l-0.109.331a0.235,0.235,0,0,1,.153.2,0.821,0.821,0,0,0-.044.552H31.594V24.075a0.113,0.113,0,0,0,.022-0.066H31.55a7.776,7.776,0,0,0-.852.773,0.136,0.136,0,0,1,.044.044,0.467,0.467,0,0,0-.109.044L30.7,25.047a0.34,0.34,0,0,1,.109-0.022,3.6,3.6,0,0,1,.066.552H30.764v0.177l0.109,0.022V25.8a4.766,4.766,0,0,0-.153.508H30.677c-0.038-.029-0.035-0.038-0.066-0.022a0.427,0.427,0,0,0-.087.155,0.294,0.294,0,0,1,.087.044,1.758,1.758,0,0,1-.349.42,0.254,0.254,0,0,0-.131-0.066,0.494,0.494,0,0,0-.087.133,0.089,0.089,0,0,1,.044.088,0.912,0.912,0,0,0-.371.2,0.2,0.2,0,0,0-.131-0.066,0.1,0.1,0,0,0-.109.11,0.114,0.114,0,0,1,.022.066,4.316,4.316,0,0,1-.437.2A0.086,0.086,0,0,0,29,27.476a0.182,0.182,0,0,0-.109.133,0.114,0.114,0,0,1,.022.066,3.917,3.917,0,0,1-.437.2,0.086,0.086,0,0,0-.066-0.088,0.182,0.182,0,0,0-.109.133,0.113,0.113,0,0,1,.022.066,3.925,3.925,0,0,1-.437.2,0.086,0.086,0,0,0-.066-0.088,0.182,0.182,0,0,0-.109.133,0.113,0.113,0,0,1,.022.066,3.007,3.007,0,0,1-.437.2,0.151,0.151,0,0,0-.044-0.088,0.255,0.255,0,0,1-.109.044,0.221,0.221,0,0,1-.044.155,0.8,0.8,0,0,1-.393.2,0.106,0.106,0,0,0-.109-0.088,0.555,0.555,0,0,0-.087.066c0,0.012-.008.09-0.022,0.133l-0.5.066v-0.11H25.852a0.458,0.458,0,0,0-.044.11h-0.5v-0.11H25.131v0.11h-0.5v-0.11H24.454v0.11h-0.5v-0.11H23.777v0.11h-0.5v-0.11H23.1v0.11H22.6v-0.11H22.424v0.11h-0.5v-0.11H21.747v0.11h-0.5v-0.11H21.07v0.11H20.59V28.89a0.623,0.623,0,0,0-.2-0.022v0.11h-0.48v-0.11H19.738a0.348,0.348,0,0,0-.022.11h-0.48v-0.11H19.061v0.11h-0.5v-0.11H18.384v0.11h-0.5v-0.11H17.707v0.11h-0.48v-0.11h-0.2v0.11H16.55v-0.11H16.375v0.11h-0.5v-0.11H15.7v0.11H15.2v-0.11H15.022v0.11h-0.48V28.89a0.624,0.624,0,0,0-.2-0.022v0.11h-0.48v-0.11H13.69a0.351,0.351,0,0,0-.022.11h-0.48v-0.11H13.013v0.11h-0.5v-0.11H12.336v0.11h-0.5v-0.11H11.659v0.11h-0.48V28.89a0.623,0.623,0,0,0-.2-0.022v0.11H10.5v-0.11H10.328a0.348,0.348,0,0,0-.022.11H9.825v-0.11H9.651v0.11h-0.5v-0.11H8.974v0.11h-0.5v-0.11H8.3v0.11h-0.5v-0.11H7.62v0.11h-0.5v-0.11H6.943v0.088a1.852,1.852,0,0,1-.5.022V28.912a0.75,0.75,0,0,0-.175-0.044v0.044a0.113,0.113,0,0,0-.022.066,1.083,1.083,0,0,1-.568-0.11,0.133,0.133,0,0,0,0-.133L5.5,28.713a0.151,0.151,0,0,1-.044.088,1.209,1.209,0,0,1-.393-0.287c0.024-.032.046-0.067,0.022-0.088a0.461,0.461,0,0,0-.131-0.088c-0.021.075-.008,0.069-0.087,0.088a1.551,1.551,0,0,1-.349-0.287c0.029-.038.038-0.035,0.022-0.066a0.261,0.261,0,0,0-.087-0.088H4.41a0.3,0.3,0,0,1-.044.088H4.345V28.05l-0.371-.243A0.572,0.572,0,0,0,4.017,27.7a0.156,0.156,0,0,0-.131-0.066A0.384,0.384,0,0,1,3.8,27.7V27.675a1.036,1.036,0,0,1-.371-0.243,0.261,0.261,0,0,0,.044-0.11,0.322,0.322,0,0,0-.153-0.066,0.151,0.151,0,0,1-.044.088c-0.113-.114-0.283-0.17-0.393-0.287a0.133,0.133,0,0,0,.044-0.044H2.9a0.731,0.731,0,0,0-.24-0.088,1.056,1.056,0,0,1-.306-0.42l-0.2-.177c-0.171-.173-0.331-0.357-0.5-0.53a1.916,1.916,0,0,0-.524-0.508,0.076,0.076,0,0,1-.022.044V25.268a0.08,0.08,0,0,0,.022-0.044A0.254,0.254,0,0,0,1,25.157a0.686,0.686,0,0,1-.24.309,0.951,0.951,0,0,1-.306-0.044,0.947,0.947,0,0,1-.153-0.4A0.4,0.4,0,0,1,.437,25c0.039,0.122.043,0.208,0.2,0.221A0.717,0.717,0,0,0,.655,24.8c0.032-.145.138-0.241,0.175-0.42A0.933,0.933,0,0,1,.568,24.34a1.225,1.225,0,0,0-.415.044,2.589,2.589,0,0,0,0-.464c0-.012-0.054-0.012-0.044-0.044a1.088,1.088,0,0,0,.109-0.265,0.37,0.37,0,0,0,.328-0.133,0.113,0.113,0,0,1-.022-0.066H0.437V23.037C0.374,22.907.3,23,.306,22.772a0.249,0.249,0,0,0,.131-0.287,1.648,1.648,0,0,1-.153-0.243A0.567,0.567,0,0,1,0,21.734a0.4,0.4,0,0,1,.131-0.11A0.406,0.406,0,0,1,.437,21.6l0.109,0.133L0.59,21.955H0.7a1.159,1.159,0,0,0,.044-0.464,5.671,5.671,0,0,0,1.288-.066,0.133,0.133,0,0,1,.131.044A0.581,0.581,0,0,0,2.533,21.4a1.972,1.972,0,0,0,.524.044V21.4s0.254,0.044.328,0.044H3.952V21.4a1.332,1.332,0,0,0,.306.044,1.269,1.269,0,0,0,.153-0.088,0.448,0.448,0,0,1,.328.088A2.567,2.567,0,0,0,5.066,21.4a2.119,2.119,0,0,0,.611.044c0.762,0,1.769.024,2.642,0.022a0.427,0.427,0,0,1,.437-0.088,1.046,1.046,0,0,0,.655.088A0.162,0.162,0,0,1,9.52,21.38c0.022,0.081.014,0.078,0.109,0.088a0.614,0.614,0,0,1,.306,0V21.447H9.956a0.346,0.346,0,0,1,.022-0.177v0.044a0.3,0.3,0,0,1,.022.155,3.3,3.3,0,0,1,1.332.707l1.616-.022a3.3,3.3,0,0,0,1.157-.088H11.769c-0.046-.075-0.01-0.045-0.109-0.044V21.955a1.158,1.158,0,0,1-.306-0.177c-0.264-.163-0.544-0.257-0.808-0.42a3.175,3.175,0,0,0-.5-0.309H9.1v0.088H9.017V21.2H8.712V21.137H8.624V21.049H6.965a5.217,5.217,0,0,1-.873-0.022V19.106H8.515a1.829,1.829,0,0,0,.022-0.486,0.08,0.08,0,0,0,.022-0.044,0.8,0.8,0,0,0,.153-0.044c0.028,0.054-.009.015,0.044,0.044V18.465a0.242,0.242,0,0,1-.022-0.133h2.926a0.108,0.108,0,0,1,.022-0.066,0.187,0.187,0,0,1,.109-0.022c0.021-.52.014-1.045,0.022-1.546H12.14V11.442A1.2,1.2,0,0,1,12.162,11v4.969a4.385,4.385,0,0,0,.131,1.767V17.78H12.249a1.539,1.539,0,0,0,.022.552h0.306Z"/>
</svg>
