<svg xmlns="http://www.w3.org/2000/svg" width="79.969" height="40" viewBox="0 0 79.969 40">
  <defs>
    <style>
      .cls-1 {
        fill: #fff;
        fill-rule: evenodd;
      }
    </style>
  </defs>
  <path id="Color_Fill_1" data-name="Color Fill 1" class="cls-1" d="M49.533,12.771a47.153,47.153,0,0,1-.1,5.606H49.73a2.535,2.535,0,0,1,.2-0.984h0.1l0.2,0.984a0.337,0.337,0,0,0,.2-0.1h0.2a0.934,0.934,0,0,1,0-.689c0.249-.038.155,0.057,0.2-0.3-0.057-.265,0-0.16.2-0.394h-0.59a3.474,3.474,0,0,1,.1-1.082,3.748,3.748,0,0,0,.688.1,1.545,1.545,0,0,0,.1-0.492,1.737,1.737,0,0,1-.393-0.2H51.2V14.836c-0.311,0-.132.167-0.295-0.1l1.278-.2v0.984l-0.59-.1v0.3h0.885V16.9h-0.59V17h0.2c0.181,0.312.279,0.308,0.786,0.3V17.2h0.1V16.8h0.295V17.2a13.028,13.028,0,0,1,1.179.689,0.852,0.852,0,0,0-.1.492h0.295V17.885h0.1v0.1a2.814,2.814,0,0,1,.2.492,1.239,1.239,0,0,0-1.179.3,1.825,1.825,0,0,0,.393.689V18.967H54.84v0.2a1.066,1.066,0,0,0-.1.59H54.251a5.674,5.674,0,0,0-.1,1.574,7.643,7.643,0,0,0,1.966,0v0.2a1.557,1.557,0,0,0-.1.787h0.295a8.325,8.325,0,0,0,0-.984,2.464,2.464,0,0,1,.786-0.1,0.85,0.85,0,0,1,.491-0.1v0.3a7.5,7.5,0,0,1,2.162.393l2.457-.1v0.3h0.295a2.7,2.7,0,0,1,.1-0.885,14.613,14.613,0,0,1,3.44.689,13.749,13.749,0,0,1-2.948-.492V21.82H63v0.1h0.2c0.638,0.411,2.892.3,3.931,0.1,0.739-.143.776,0.4,1.474,0.3l3.931-.1a1.274,1.274,0,0,1,.1-0.689c-0.013.4-.053,0.538,0.2,0.689a6.5,6.5,0,0,1,1.867-.1,27.089,27.089,0,0,1,4.816-.3c0.068,0.1.126,0.393,0.2,0.492v-0.1a1.4,1.4,0,0,0,0-.984h0.1v0.1a2.675,2.675,0,0,1,.1,1.18,6.277,6.277,0,0,0-1.867,3.148c-0.258.962,0.312,2.377-.2,3.049-0.6.373-3.926,0.1-4.914,0.1H11.99a7.848,7.848,0,0,0-3.342-.492,1.989,1.989,0,0,1-.393.393,1.935,1.935,0,0,1-.1-0.393,1.444,1.444,0,0,0-.688-0.2V28.9c-0.9.021-2.7,0.229-3.243-.2a3.564,3.564,0,0,1-.1-1.475,1.545,1.545,0,0,1,.491-0.1,0.519,0.519,0,0,0,.59,0C1.893,27.115,1.5,25.1,1.572,21.82H0V20.836a5.866,5.866,0,0,0,1.671-.1v1.77a3.3,3.3,0,0,1,0,1.279,5.255,5.255,0,0,0,1.474.1v-0.1H1.769V23.393l6.093,0.2a1.038,1.038,0,0,1,.1-0.59v0.59c0.768-.011,1.078-0.007,1.867,0v0.3a1.037,1.037,0,0,0-.59.1h0.59c0.228-.535.511-1.565,1.081-1.77a0.634,0.634,0,0,0,.688.1V22.7a1.03,1.03,0,0,0,0,.787h1.671a0.824,0.824,0,0,1,.1-0.492v0.492h0.786V22.41c0.442,0,.215-0.089.491,0.1v-0.3h0.59c0.567,0.88,1.014.223,1.671,0.59a3.47,3.47,0,0,0-.688.2,1.37,1.37,0,0,0-.59-0.2v0.1a1.84,1.84,0,0,1,.295.492h0.2a0.636,0.636,0,0,1,.1-0.393v0.393a0.707,0.707,0,0,1,.59,0V23a0.337,0.337,0,0,1-.2-0.1,3.48,3.48,0,0,1,1.671.3A3.7,3.7,0,0,1,17,23v0.393c1.076,0,1.74-.067,2.752,0-0.039-.223-0.09-0.107,0-0.295,0.279,0.485,1.758.318,2.162,0-0.242-.127-0.067.042-0.2-0.2,1.324,0.008,1.807-.286,3.145-0.295a1.246,1.246,0,0,1,.1-0.393,6.568,6.568,0,0,0,1.179.2V22.8a0.475,0.475,0,0,1,.295.1,1.08,1.08,0,0,0-.295.787h0.295a0.663,0.663,0,0,1,.393-0.1V22.8a0.635,0.635,0,0,1-.393-0.1h0.491V23.59h0.885c0.035-.865.214-1.084-0.1-1.574-0.277-.167-1-0.025-1.278-0.2,1.329,0.007,1.754-.38,3.145-0.393v-0.3l1.278,0.1,0.1,1.082h0.2c0.02-.138-0.081.04-0.1-0.1-0.189-.076.2-0.1,0.2-0.1,0.262,0.443,1.2.1,1.573,0,0.027,0.256,0,.194.491,0.2a2.069,2.069,0,0,1,.1-0.984v0.885a24.965,24.965,0,0,0,3.047.1l0.1-.3a0.372,0.372,0,0,1-.295-0.393c0.408-.281-0.059-0.485.1-0.787a1.207,1.207,0,0,1,.59-0.1,3.221,3.221,0,0,0,.295-0.393c0.116,0.527.448,0.348,0.885,0.492v0.3a0.635,0.635,0,0,0,.393-0.1,0.992,0.992,0,0,1-.295-0.885h0.1v-0.1a1.11,1.11,0,0,1,1.081.1,0.664,0.664,0,0,1,.1.393,0.852,0.852,0,0,0-.1.492,0.475,0.475,0,0,0-.295.1,0.355,0.355,0,0,1,.1.2h0.491a0.824,0.824,0,0,1,.1-0.492c0.014,0.37-.046.346,0.2,0.492a9.14,9.14,0,0,1,2.162,0,1.414,1.414,0,0,0-.1-0.492h0.2v0.492a5.718,5.718,0,0,1,2.064.1V20.443a0.822,0.822,0,0,1-.688-0.2c0.639-.387-0.371-2-0.393-2.066a0.337,0.337,0,0,0,.2-0.1c-0.326-.2-0.185-0.022-0.2-0.393A9.191,9.191,0,0,0,45.5,16.9a2.349,2.349,0,0,0,.59.984h0.295c-0.055.5,1.3,2.141,1.671,2.754h0.1v-0.2a4.447,4.447,0,0,0,.2-0.688H47.961a2.978,2.978,0,0,0,0-1.377,4.148,4.148,0,0,0,.59-2.459,6.107,6.107,0,0,1-.688-1.967h0.2a6.981,6.981,0,0,0,.491,1.771h0.1a10.733,10.733,0,0,1,.491-2.754A8.446,8.446,0,0,1,49.435,11a1.274,1.274,0,0,0,.1.688,0.338,0.338,0,0,1,.1-0.2v0.3a0.859,0.859,0,0,0-.2.885h0.2a0.476,0.476,0,0,1,.1-0.3,0.582,0.582,0,0,0,.2.393H49.533Zm-0.59-1.082a0.475,0.475,0,0,1,.295.1h-0.2C48.974,11.8,48.851,11.792,48.944,11.689Zm-0.295.2h0.2v0.1A0.337,0.337,0,0,1,48.649,11.885Zm0.393,0h0.2l-0.1.2-0.295.1Zm-0.59.1h0.2v0.1A0.337,0.337,0,0,1,48.452,11.984Zm-0.2.1h0.2v0.1A0.337,0.337,0,0,1,48.256,12.082Zm-0.2.1h0.2v0.1A0.336,0.336,0,0,1,48.059,12.18Zm-0.2.1h0.2v0.1A0.337,0.337,0,0,1,47.862,12.279Zm0.688,0h0.2l-0.1.2-0.295.1Zm-0.885.1h0.2v0.1h-0.1a3.548,3.548,0,0,1-1.376.688v-0.1h0.1C46.811,12.769,47.349,12.682,47.666,12.377Zm1.573,0.1c0,1.407-.459,2.407-0.491,3.836h0.1v-0.2a1.765,1.765,0,0,0,.1-1.18C49.168,14.526,49.659,13.124,49.238,12.475Zm-1.179.2h0.2c-0.038.062-.319,0.53-0.491,0.393Zm-0.491.393h0.2c-0.038.062-.319,0.53-0.491,0.393Zm-1.376.1h0.2v0.1A0.337,0.337,0,0,1,46.192,13.164Zm-0.2.1h0.2v0.1h-0.1a5.46,5.46,0,0,1-1.966.984v-0.1h0.1C44.707,13.808,45.527,13.713,46,13.262Zm0.983,0.3h0.2l-0.1.2-0.295.1Zm1.474,0.2a0.475,0.475,0,0,1,.295.1A0.475,0.475,0,0,1,48.452,13.754Zm-0.295.1a0.475,0.475,0,0,1,.295.1A0.476,0.476,0,0,1,48.157,13.853Zm-1.671.1h0.2c-0.038.062-.319,0.53-0.491,0.394Zm1.572,0.2a0.74,0.74,0,0,1,.491.393h0.1v0.1A0.981,0.981,0,0,1,48.059,14.148Zm-4.128.2h0.2v0.1A0.337,0.337,0,0,1,43.931,14.344Zm-0.2.1h0.2v0.1h-0.1a6.1,6.1,0,0,1-2.162,1.082v-0.1h0.1C42.3,15.04,43.216,14.943,43.735,14.443Zm2.162,0h0.2l-0.1.2-0.295.1Zm3.342,0a1.275,1.275,0,0,0,.1.688A1.274,1.274,0,0,0,49.238,14.443Zm-3.833.393h0.2l-0.1.2-0.295.1Zm6,0.1v0.2H51.7v-0.1Zm-6.486.3h0.2l-0.1.2-0.295.1Zm4.226,0a5.36,5.36,0,0,0,.1,2.262h0.1V15.23h-0.2Zm-7.666.393h0.2v0.1h-0.2v-0.1Zm2.948,0h0.2c-0.038.062-.319,0.53-0.491,0.394Zm-3.145.1h0.2v0.1h-0.1A6.1,6.1,0,0,1,39.214,16.9V16.8h0.1C39.845,16.319,40.759,16.221,41.278,15.721Zm2.654,0.3h0.2c-0.038.062-.319,0.53-0.491,0.393Zm4.717,0.393c-0.079.8-.218,1.516-0.295,1.967h0.2V17.885A1.831,1.831,0,0,0,48.649,16.41Zm-5.307.1h0.2l-0.1.2-0.295.1Zm-4.324.393h0.2V17A0.337,0.337,0,0,1,39.017,16.9Zm3.833,0h0.2l-0.1.2-0.295.1Zm1.671,0a0.475,0.475,0,0,1,.295.1A0.475,0.475,0,0,1,44.521,16.9Zm-5.7.1h0.2v0.1h-0.1a6.1,6.1,0,0,1-2.162,1.082v-0.1h0.1C37.388,17.6,38.3,17.5,38.821,17Zm5.405,0h0.2v0.1A0.337,0.337,0,0,1,44.226,17Zm5.111,1.377A5.42,5.42,0,0,0,48.944,17h-0.1v0.59a2.858,2.858,0,0,0-.2.787h0.688Zm-5.6-1.18h0.2v0.1A0.337,0.337,0,0,1,43.735,17.2Zm-1.376.1h0.2l-0.1.2-0.295.1Zm-0.491.492c0.11,0.163.174,0.105,0,.2v-0.2Zm0.491,0.2a0.354,0.354,0,0,1,.1.2h-0.1v-0.2Zm0.393,0.1,0.295,0.1v0.1A0.374,0.374,0,0,1,42.752,18.082Zm-6.192.1h0.2v0.1A0.337,0.337,0,0,1,36.56,18.18Zm-0.2.1h0.2v0.1h-0.1A6.1,6.1,0,0,1,34.3,19.459v-0.1h0.1C34.931,18.876,35.845,18.779,36.364,18.279Zm6.585,0.1h0.2v0.1A0.337,0.337,0,0,1,42.948,18.377Zm5.307,0.1a3.093,3.093,0,0,1-.2,1.082h0.295l0.2-1.082H48.256Zm0.393,0a3.822,3.822,0,0,1-.2,1.082h0.393c0.115-.433.355-0.579,0.491-0.984Zm0.786,0.1v0.2h0.1A0.337,0.337,0,0,0,49.435,18.574Zm0,0.3a1.274,1.274,0,0,0,.1.689A1.275,1.275,0,0,0,49.435,18.869Zm-0.1.689v-0.59h-0.1v0.2a0.936,0.936,0,0,0-.295.393h0.393Zm-0.688-.393a0.5,0.5,0,0,1,.1.3h-0.1v-0.3Zm-14.545.3h0.2v0.1A0.337,0.337,0,0,1,34.1,19.459Zm-0.2.1h0.2v0.1H34c-0.446.387-.871,0.2-0.885,1.082a1.7,1.7,0,0,1,.2.59h-0.1v-0.1a2.785,2.785,0,0,0-.393-0.984,0.7,0.7,0,0,1-.393.2v-0.1h0.1C32.907,20,33.539,19.911,33.907,19.557Zm15.43,0.688v-0.3a1.243,1.243,0,0,0-.393.1c0.031-.279.1-0.2,0-0.393-0.157.268-.033-0.069-0.295,0.1-0.248.144-.152,0.043-0.2,0.393a1.646,1.646,0,0,0-.1.59h0.2c0.112-.175.176-0.025,0.688,0v-0.1h0.1l-0.1-.2h0.1c-0.076-.067-0.219-0.129-0.295-0.2h0.295Zm-0.1-.59v0.2h0.1v-0.2h-0.1Zm30.565,0a2.212,2.212,0,0,1,0,1.475V19.656Zm-30.958.393a0.355,0.355,0,0,1,.1.2h-0.1v-0.2Zm0.59,0v0.2h0.1A0.337,0.337,0,0,0,49.435,20.049Zm-0.688.2a0.5,0.5,0,0,1,.1.3h-0.2Zm-16.511.2h0.2v0.1A0.337,0.337,0,0,1,32.236,20.443Zm-0.2.1h0.2v0.1h-0.2v-0.1Zm-0.2.1h0.2v0.1A0.336,0.336,0,0,1,31.843,20.639Zm-0.2.1h0.2v0.1A0.337,0.337,0,0,1,31.646,20.738Zm-0.2.1h0.2v0.1A0.337,0.337,0,0,1,31.45,20.836Zm-0.2.1h0.2v0.1A0.337,0.337,0,0,1,31.253,20.934Zm-0.2.1h0.2v0.1A0.337,0.337,0,0,1,31.057,21.033Zm9.14,0.1h0.2v0.1A0.336,0.336,0,0,1,40.2,21.131Zm3.047,0h0.2v0.1A0.337,0.337,0,0,1,43.243,21.131Zm6,0.1a1.039,1.039,0,0,0,.1.59A1.038,1.038,0,0,0,49.238,21.23Zm-10.025.2v0.2h0.2v-0.2h-0.2Zm0.295,0v0.2h0.2v-0.2h-0.2Zm0.295,0v0.2h0.1v-0.2H39.8Zm0.983,0a0.52,0.52,0,0,0,.59,0h-0.59Zm1.179,0v0.2h0.1v-0.2h-0.1Zm0.491,0a0.287,0.287,0,0,0,.393,0H42.457Zm20.147,0a0.476,0.476,0,0,0,.1.3v-0.3H62.6Zm-23.391.3a0.394,0.394,0,0,0,.491,0H39.214Zm26.83,0.1a1.955,1.955,0,0,1,1.081.2A1.956,1.956,0,0,1,66.044,21.82Zm-6.585.1c-0.039.223-.09,0.107,0,0.3,0.144,0.248.123,0.18,0.491,0.2,0.255-.378.436-0.014,0.688-0.393h0.1v-0.1H59.46Zm18.673,0c-0.183.112-.7,0.081-0.885,0.2h0.983A0.338,0.338,0,0,0,78.133,21.918Zm0.295,0c0.073,0.331-.06.283,0.2,0.393,0.017-.469.207-0.324,0.885-0.3v-0.1H78.428Zm-1.769.1c-0.3.181-1.078,0.01-1.376,0.2h1.769v-0.1h0.1v-0.1H76.659Zm-65.749.1H11.4v0.2H11.3C11.218,22.248,10.993,22.18,10.909,22.115Zm63.98,0c-0.138.087-.551,0.107-0.688,0.2a1.025,1.025,0,0,0,.983-0.2H74.889Zm3.931,0v0.2h0.1v-0.2h-0.1Zm0.295,0a0.393,0.393,0,0,0,.393.2v-0.2H79.116Zm-15.037.1c-0.076.067-.219,0.129-0.295,0.2a4.975,4.975,0,0,1,.786,0v-0.1h0.1v-0.1h-0.59Zm0.688,0v0.2h0.295c0.3-.211.336,0.08,0.491-0.2A4.543,4.543,0,0,1,64.767,22.213Zm1.179,0v0.2h0.2v-0.1Zm0.688,0v0.2h0.1v-0.2h-0.1Zm0.2,0a0.354,0.354,0,0,0,.2.1A0.354,0.354,0,0,0,66.831,22.213Zm6.093,0c-0.076.067-.219,0.129-0.295,0.2h0.295l0.1-.2h-0.1Zm0.59,0a0.52,0.52,0,0,0,.59,0h-0.59Zm3.833,0a0.354,0.354,0,0,1-.2.1v0.1h0.295v-0.1h0.1A0.355,0.355,0,0,0,77.346,22.213Zm0.295,0a0.354,0.354,0,0,0,.2.1A0.354,0.354,0,0,0,77.641,22.213Zm0.295,0v0.2c0.352-.041.247,0.046,0.393-0.2H77.936Zm-63.194.1v0.2a1.737,1.737,0,0,0,.393-0.2H14.742Zm55.725,0v0.2h0.295v-0.2H70.467Zm0.393,0v0.2a4.672,4.672,0,0,0,1.671-.2H70.86Zm4.521,0c0,0.229.074,0.232,0.491,0.1v-0.1H75.381Zm0.786,0a1.054,1.054,0,0,0,.688.2v-0.1h0.1v-0.1H76.167Zm-65.258,1.18H11.5v-0.1a1.066,1.066,0,0,1-.1-0.59,0.905,0.905,0,0,0-.491-0.3,0.355,0.355,0,0,0-.2-0.1v0.2A2.4,2.4,0,0,1,10.909,23.492ZM30.958,22.41v0.2h0.1v-0.1h0.1A0.355,0.355,0,0,0,30.958,22.41Zm0.295,0a0.287,0.287,0,0,0,.393,0H31.253Zm0.491,0a0.354,0.354,0,0,0,.2.1A0.354,0.354,0,0,0,31.745,22.41Zm0.295,0c0.169,0.087.126,0.087,0.295,0H32.039Zm0.491,0a0.478,0.478,0,0,0,.688,0H32.531Zm1.081,0a0.287,0.287,0,0,0,.393,0H33.612Zm0.491,0a0.987,0.987,0,0,0,.884,0H34.1Zm1.081,0a2.481,2.481,0,0,0,1.278.1v-0.1H35.184Zm20.934,0.3c0.319-.081.15,0.048,0.295-0.2h-0.2v-0.1h-0.1v0.3Zm11.4-.3v0.2h0.1A0.337,0.337,0,0,0,67.518,22.41Zm0.393,0v0.2c0.242,0.127.067-.042,0.2,0.2a0.355,0.355,0,0,0,.1-0.2l0.393-.1v-0.1H67.912Zm1.179,0a0.987,0.987,0,0,0,.884,0H69.091Zm4.423,0v0.2a3.182,3.182,0,0,0,.59-0.2h-0.59Zm0.688,0a1.168,1.168,0,0,0,.983,0H74.2Zm-59.066.1a0.355,0.355,0,0,0,.2.1A0.354,0.354,0,0,0,15.135,22.508Zm44.226,0c0.04,0.258.158,0.213,0.688,0.2v-0.1A2.109,2.109,0,0,0,59.361,22.508Zm6.192,0c0.169,0.087.126,0.087,0.295,0H65.553Zm7.174,0a0.287,0.287,0,0,0,.393,0H72.727Zm-57.789.1a1.194,1.194,0,0,0-.295.885h0.2c0.076-.067.219-0.129,0.295-0.2a1.066,1.066,0,0,0,.1-0.59Zm15.233,0v0.2h0.295V22.7Zm0.393,0v0.2H30.86v-0.2H30.565Zm1.081,0a0.354,0.354,0,0,0,.2.1A0.354,0.354,0,0,0,31.646,22.607Zm0.491,0c0.038,0.257-.073.129,0.2,0.2v-0.2h-0.2Zm0.491,0v0.2a1.036,1.036,0,0,0,.59-0.1A1.669,1.669,0,0,1,32.629,22.607Zm23.882,0a0.4,0.4,0,0,0,.491,0H56.511Zm12.58,0a0.987,0.987,0,0,0,.884,0H69.091Zm-33.022.1c0.169,0.087.126,0.087,0.295,0H36.069Zm27.125,0a0.355,0.355,0,0,0,.2.1A0.355,0.355,0,0,0,63.194,22.7Zm2.457,0a0.355,0.355,0,0,0,.2.1A0.355,0.355,0,0,0,65.651,22.7Zm-55.037,1.18a0.475,0.475,0,0,0,.295-0.1c-0.159-.246-0.13-0.741-0.295-0.984v1.082Zm-0.2-.984a4.682,4.682,0,0,1-.491,1.18h0.295v-0.1l0.2,0.1v-0.1A1.363,1.363,0,0,0,10.418,22.9Zm4.914,0a1.038,1.038,0,0,0,.1.59A1.039,1.039,0,0,0,15.332,22.9Zm0.2,0.1v0.393h0.2V23.2C15.639,23.124,15.614,23.073,15.528,23Zm6.486,0.1v0.59a9.045,9.045,0,0,1,.983,0l0.1-.492A3.629,3.629,0,0,0,22.015,23.1Zm-3.735.1a0.823,0.823,0,0,1,.491.1A0.822,0.822,0,0,1,18.28,23.2Zm-16.315.3v0.2a5.614,5.614,0,0,0,2.162-.1C3.36,23.6,2.605,23.54,1.966,23.492Zm13.563,0c0.169,0.087.126,0.087,0.295,0H15.528Zm0.688,0a0.355,0.355,0,0,0,.2.1A0.355,0.355,0,0,0,16.216,23.492Zm-11.99.1a10.4,10.4,0,0,0,1.671.2v-0.2H4.226Zm1.867,0v0.2a4.113,4.113,0,0,0,1.671-.1Zm9.14,0a0.623,0.623,0,0,1-.1.492H15.43v-0.2c-0.07-.152-0.013-0.013,0-0.3h-0.2Zm-7.273.1a0.661,0.661,0,0,0,.688,0H7.961Zm1.081,0a0.661,0.661,0,0,0,.688,0H9.042Zm6.487,0a0.636,0.636,0,0,0,.1.393A0.636,0.636,0,0,0,15.528,23.689Zm-12.285.1a0.987,0.987,0,0,0,.885,0H3.243Zm0.983,0a2.249,2.249,0,0,0,1.671.1A8.427,8.427,0,0,0,4.226,23.787Zm17.69,0a0.354,0.354,0,0,0,.2.1A0.354,0.354,0,0,0,21.917,23.787Zm0.393,0a0.987,0.987,0,0,0,.884,0H22.31Zm3.342,0a0.287,0.287,0,0,0,.393,0H25.651Zm0.491,0a1.169,1.169,0,0,0,.983,0H26.143ZM6,23.885a0.987,0.987,0,0,0,.885,0H6Zm1.081,0a0.354,0.354,0,0,0,.2.1A0.355,0.355,0,0,0,7.076,23.885Zm0.393,0a0.287,0.287,0,0,0,.393,0H7.469Zm0.491,0a0.52,0.52,0,0,0,.59,0H7.961Zm6.88,0.1c0.038,0.257-.073.129,0.2,0.2v-0.2h-0.2Zm0.885,0a0.38,0.38,0,0,0,.295.2v-0.1h0.1v-0.1H15.725Zm0.491,0v0.2h0.1A0.338,0.338,0,0,0,16.216,23.984Zm5.7,0v0.2h0.2v-0.2h-0.2Zm0.393,0v0.2h0.2a0.7,0.7,0,0,0,.59-0.2H22.31Zm3.44,0v0.2h0.295v-0.2H25.749Zm0.491,0v0.2h0.2c0.076-.067.219-0.129,0.295-0.2H26.241Zm0.688,0a0.355,0.355,0,0,0,.2.1A0.354,0.354,0,0,0,26.929,23.984Zm-5.8.1a0.354,0.354,0,0,0,.2.1A0.354,0.354,0,0,0,21.13,24.082ZM5.405,27.23a0.394,0.394,0,0,0,.491,0H5.405Z"/>
</svg>
