<svg xmlns="http://www.w3.org/2000/svg" width="80" height="40" viewBox="0 0 80 40">
  <defs>
    <style>
      .cls-1 {
        fill: #fff;
        fill-rule: evenodd;
      }
    </style>
  </defs>
  <path id="it_destroyer_turbine_ico" class="cls-1" d="M54.194,14.122h0.3v0.1c0.021,0.037-.044.282-0.05,0.488h0.1v-0.2a0.242,0.242,0,0,1,.149.049c-0.16.1-.075,0.077,0,0.2h-0.3l-0.05.585a0.856,0.856,0,0,1-.3-0.049v0.244a6.756,6.756,0,0,1,.149,1.61h0.05a1.673,1.673,0,0,1,.695-0.049V17a0.907,0.907,0,0,1-.149-0.244c-0.131-.014-0.1-0.04-0.1-0.293a4.2,4.2,0,0,0,.347-0.293,2.235,2.235,0,0,0,.546.049c0.161,0.062.131,0.043,0.149,0.244-0.095.14,0,.437-0.1,0.634h0.248a3.032,3.032,0,0,1-.1.732c-0.482.291-.963,0.625-1.489,0.878,0.062,0.188.061,0.584,0.1,0.781,0.128,0.014.088-.023,0.1,0.2h1.687v0.829h0.695V19.683a1.205,1.205,0,0,1-.546-0.049h0.347v-0.2a0.324,0.324,0,0,1-.2-0.049h0.2l-0.05-.585c0.1,0,.014.05,0.1,0,0.152-.232.065-0.516,0.4-0.585,0.063,0.141-.056.1,0.149,0.146a0.337,0.337,0,0,1,.248-0.1,0.845,0.845,0,0,0,.1.244H57.469v0.2h0.149l-0.05.634a1.661,1.661,0,0,0,.5.049,0.286,0.286,0,0,1,.347.049h-0.3a0.234,0.234,0,0,0,.05.146,6.02,6.02,0,0,1,.744-0.049,2.738,2.738,0,0,0,.248-0.244,8.948,8.948,0,0,1,1.538,0L60.744,19h0.3l0.05,0.293h0.546v0.049a1.909,1.909,0,0,0-.149,1.22H60.744a10.906,10.906,0,0,0,.149,1.9c-0.1,0-.014-0.05-0.1,0q0.025,0.707.05,1.415h0.05a0.339,0.339,0,0,1,.2-0.049v0.2h0.3a1.864,1.864,0,0,1,.05-0.78v0.781h0.844V23.488a1.3,1.3,0,0,1,.248-0.1v0.293a0.338,0.338,0,0,0-.1.341h0.2a1.864,1.864,0,0,1,.05-0.78,0.99,0.99,0,0,0,.1.732,1.3,1.3,0,0,1,.992.049,0.234,0.234,0,0,1,.05-0.146c0.064,0.12-.021.033,0.1,0.1a1.72,1.72,0,0,1,.05-0.732v0.781h0.5a0.953,0.953,0,0,0,.1-0.683H64.417a0.852,0.852,0,0,1-.1-0.488H64.169c-0.041.158,0.024,0.075-.1,0.146-0.045-.247-0.053,0-0.1-0.244a0.738,0.738,0,0,1,0-.439,0.488,0.488,0,0,0,.347-0.244s-0.194-.009-0.1-0.049h0.1a0.667,0.667,0,0,1,.347-0.049v-0.2a0.9,0.9,0,0,1,.6.146l0.05,0.146,0.447,0.1c0.1,0.064.113,0.285,0.2,0.341h2.68v0.244h-2.63a3.869,3.869,0,0,1-.1,1.024h0.1V23.732a0.753,0.753,0,0,1,.6-0.439,1.351,1.351,0,0,0,1.092-.1,0.74,0.74,0,0,0,.4.146v0.341c-0.126.072-.1,0.1-0.1,0.293h0.1a2.048,2.048,0,0,1,.844-0.049,1.72,1.72,0,0,1,.05-0.732v0.732l2.432,0.049a0.875,0.875,0,0,1,.05-0.439,0.212,0.212,0,0,1,.2-0.2,0.139,0.139,0,0,1,.05-0.049,0.622,0.622,0,0,0,.05.341,0.878,0.878,0,0,0,.149-0.244c-0.015-.037-0.028-0.173-0.05-0.293h0.1a0.406,0.406,0,0,1,.347,0,1.331,1.331,0,0,0-.05.39l0.149,0.1a0.8,0.8,0,0,1-.1.244h0.4a1.576,1.576,0,0,1,.05-0.683v0.683H74a0.754,0.754,0,0,0,.05-0.244,0.243,0.243,0,0,1-.149-0.049l0.347-.049V23.244h0.05c0.124,0.105.126,0.075,0.3,0.049v0.293a0.416,0.416,0,0,0-.05.244,6.469,6.469,0,0,1,1.836.1,1.864,1.864,0,0,1,.05-0.78v0.781a9.551,9.551,0,0,0,1.141-.049,1.863,1.863,0,0,1,.05-0.78,1.1,1.1,0,0,0,.1.78v-0.1c0.069-.048.1,0.049,0.1,0.049a14.966,14.966,0,0,0,1.886.049V23.732a0.421,0.421,0,0,1-.248-0.049c0.187-.007.174,0.023,0.248-0.1a9.125,9.125,0,0,1,0-2,0.169,0.169,0,0,1-.149,0V21.439H79.7a2.233,2.233,0,0,0-.05-0.39L79.7,20.9a0.176,0.176,0,0,1,.05.1,21.269,21.269,0,0,1,0,2.878H80L79.653,28.8a15.989,15.989,0,0,1-.2,2.1,4.335,4.335,0,0,1-1.141.049,4.119,4.119,0,0,0-1.439-.049H59.156c-3.181,0-6.478-.046-9.578-0.049H46.253a9.554,9.554,0,0,1-1.687-.049H43.623a18.464,18.464,0,0,1-3.375-.049H31.663a14.016,14.016,0,0,0-2.531-.049H24.169c-1.4-.006-2.983-0.049-4.466-0.049a11.679,11.679,0,0,0-2.084.049H15.534l-2.481.1c-1.238-.274-2.319-0.7-3.474-0.976a3.361,3.361,0,0,0-.943.049,13.39,13.39,0,0,0-2.531.146C5.661,30.146,5.01,30,4.615,30.073a0.35,0.35,0,0,1-.1.39V30.415H4.467a1.238,1.238,0,0,1-.1.488l-0.149.049V30.9a0.966,0.966,0,0,1-.149-0.829,1.168,1.168,0,0,1-.695-0.2l0.05-.146a1.96,1.96,0,0,1,.645-0.146l-0.05-.439c0.141,0.016.1,0.052,0.2,0l0.2-.39H4.169a6.121,6.121,0,0,0-1.737-.244,4.583,4.583,0,0,0-.695.829H1.886a1.184,1.184,0,0,1,.794-0.293V29.1H2.73a3.293,3.293,0,0,1-.3,1.463A10.1,10.1,0,0,1,.1,30.61V28.659H1.191V28.317A2.528,2.528,0,0,1,.05,28.171a0.175,0.175,0,0,1-.05-0.1,4.475,4.475,0,0,0,.3-1.122c0.106-.343.285-0.764,0.4-1.073V25.39C0.7,24.8.609,24.333,0.6,23.732a0.178,0.178,0,0,1-.2,0c0.269-.287.021-0.981,0-1.658H0.5v0.049A3.111,3.111,0,0,0,.645,23.39a0.692,0.692,0,0,0,.149.439H0.744v0.049h0.05a0.637,0.637,0,0,1,.05.244c0.235,0.288.281,0.635,0.6,1.024a0.3,0.3,0,0,0-.1.1H1.489a1.314,1.314,0,0,1,.05.39c0.061,0.071.137,0.124,0.2,0.2a5.578,5.578,0,0,1,1.042,0,0.69,0.69,0,0,0-.05-0.244H2.978v0.049a0.325,0.325,0,0,0-.05.2h0.2V25.585h0.2v0.244a1.106,1.106,0,0,1,.893-0.1c0.13,0.075-.039.108,0.248,0.146a0.8,0.8,0,0,1,.05-0.829c0.017,0.43.52,0.318,0.943,0.293,0.076-.117.013-0.017,0.248,0a0.507,0.507,0,0,1,.05-0.293c0,0.19-.025.22,0.1,0.293,0.168-.077.678,0.028,0.844-0.049,0.041,0.158-.024.075,0.1,0.146V25.39a0.63,0.63,0,0,0,0-.439,1.533,1.533,0,0,1,.447,0,1.479,1.479,0,0,0,0,.488c0.245,0.058.26,0.133,0.248,0.439a3.067,3.067,0,0,0,.5-0.1c0.252-.045.9,0.1,1.39,0.1a1.863,1.863,0,0,1,.05-0.78v0.78H9.677v-0.1a0.175,0.175,0,0,1-.05-0.1c0.183,0.022.138-.038,0.3-0.146-0.118-.155-0.092-0.25-0.248-0.439h0.2V24.951c-0.446,0-.638,0-1.042,0v-0.1a18.99,18.99,0,0,0,2.035-.1v0.1a3.1,3.1,0,0,1-.2.439l0.992,0.049c0-.455-0.011-0.747,0-1.171H10.819V23.342h2.333L13.1,22.8h-2.63V22.561h2.68c0.136-.474.466-0.3,0.645-0.585a0.561,0.561,0,0,0,0-.439h0.149a0.319,0.319,0,0,0,0,.244,0.547,0.547,0,0,0,.3.049,0.435,0.435,0,0,1,.248-0.049v0.2c0.293-.006.368,0.014,0.4,0.2-0.13.019-.065-0.036-0.1,0.1a0.889,0.889,0,0,1,.4.049v0.049c-0.206.314,0.2,0.624-.4,0.634a0.533,0.533,0,0,1-.1.341h1.191a4.553,4.553,0,0,1,.844,0,0.745,0.745,0,0,1,.05-0.39,0.745,0.745,0,0,0,.05.39,0.527,0.527,0,0,1,.4,0v-0.1a20.261,20.261,0,0,1-.2-2.049c-0.283-1.217-.143-2.643-0.447-3.854-0.088-.352.006-1.055-0.1-1.219-0.051-.079-0.309-0.212-0.4-0.341h0.1a0.374,0.374,0,0,0,.248.2V15.634h0.248V15.1L16.526,15a2.636,2.636,0,0,1,.1-0.585c-0.117-.613-0.064-1.39-0.2-2-0.149-.675.058-1.4-0.149-2h0.1a19.481,19.481,0,0,0,.3,3.415v0.585c0.142,0.613.123,1.381,0.248,1.854a1.156,1.156,0,0,0-.149.488c0.162,0.752.062,1.586,0.248,2.39,0.136,0.589.051,1.264,0.2,1.9a11.491,11.491,0,0,1,.248,2.293h0.248V23.293h0.05a0.875,0.875,0,0,1,.05-0.439,0.435,0.435,0,0,1,.248-0.049l0.05,0.146a0.5,0.5,0,0,1,0,.39c0.264,0,.224.345,0.2,0.732a0.175,0.175,0,0,1,.05.1H17.568a3.78,3.78,0,0,0,.149,1.073h0.1a0.622,0.622,0,0,1,.05-0.341,1.72,1.72,0,0,1-.05.732c0.007-.2.027-0.267-0.1-0.341v0.049h-0.05a1.772,1.772,0,0,1,.05.537c0.382,0.01.6-.047,1.092-0.049V25.585a5.638,5.638,0,0,0,1.29-.049,0.421,0.421,0,0,0,.1-0.439,0.89,0.89,0,0,1,.3-0.244,0.521,0.521,0,0,1,.3-0.1v0.585c0.374,0.006.523,0.094,0.943,0.1a0.507,0.507,0,0,1,.05-0.293v0.293h0.248a0.566,0.566,0,0,0,.3-0.488H22.084a1.2,1.2,0,0,1-.05-0.39c-1.164,0-2.222-.233-3.424-0.244V24.171h3.524V23.927h-0.05a0.3,0.3,0,0,1-.1.1V23.781a1.124,1.124,0,0,0,.645-0.293V23.439h-0.2a4.35,4.35,0,0,0-.943-0.146c-0.723-.191-1.529-0.346-2.184-0.585a1.859,1.859,0,0,1-.992-0.439c0.15-.168.086-0.308,0.4-0.341a1.917,1.917,0,0,1,.546.293l0.6,0.1c0.311,0.1.714,0.241,1.042,0.341a19,19,0,0,0,4.467.39l0.05,0.537a11.525,11.525,0,0,1-2.73-.146v0.1a0.81,0.81,0,0,1,.1.488h0.2v0.146h0.2V24.024h0.3c0,0.227.2,0.174,0.546,0.146a1.477,1.477,0,0,1,.645,0,0.234,0.234,0,0,1,.05-0.146,2.135,2.135,0,0,1,.844-0.049,3.208,3.208,0,0,0,.1-1.024h1.092a0.853,0.853,0,0,1-.1-0.293l0.05-.146,0.248,0.049c0,0.114-.044.084,0.05,0.2V22.707a0.541,0.541,0,0,0,.149-0.244,0.171,0.171,0,0,1,.1.049,0.809,0.809,0,0,1,.2.439,8.412,8.412,0,0,0,1.34-.341v0.146h0.447V22.8a1.441,1.441,0,0,0-.1,1.171c-1.149-.033-1.428.309-1.39,1.463h0.2V25.2h0.05c0.091,0.143.079,0.077,0.248,0.049v0.2h0.943a0.4,0.4,0,0,1,.05-0.244v0.244h1.191a0.4,0.4,0,0,1,.05-0.244,0.311,0.311,0,0,0,.05.2,0.468,0.468,0,0,0,.248-0.341A5.587,5.587,0,0,1,29.727,25V24.756a7.889,7.889,0,0,0-1.39.049c-0.06-.255-0.114-0.136-0.149-0.341a0.406,0.406,0,0,0,.2-0.293c0.347,0.1.779-.154,1.34-0.049,0,0.163-.034.153,0.248,0.146a0.351,0.351,0,0,1,.248,0l0.05-.146a0.786,0.786,0,0,0,.248.049c0.021,0.131.123,0.107,0.4,0.1v-0.2h0.1a0.339,0.339,0,0,0,.2.049v0.146c0.2-.047.137-0.1,0.347-0.146a0.919,0.919,0,0,1,.149-0.585H30.223V23.049A16.559,16.559,0,0,1,33.648,23c1.612,0.053,3.1-.136,4.665-0.1,0.028,0.43.048,0.665,0.05,1.268l1.39-.049v-0.1a22.941,22.941,0,0,1-.447-2.683l-0.05-.683a1.646,1.646,0,0,1-.2-0.2c-0.051-.048.05-0.049,0.05-0.049V20.366c0.122,0.029.147,0.115,0.2,0.049a2.388,2.388,0,0,1,1.39-.488v0.049c-0.125.071-.091,0.061-0.1,0.244h0.05v0.049a4.335,4.335,0,0,1,.794-0.1c0.063-.141-0.056-0.1.149-0.146a0.181,0.181,0,0,1,.1-0.049v0.049h-0.05c-0.1.038,0.1,0.049,0.1,0.049a0.691,0.691,0,0,0,.2-0.049,0.167,0.167,0,0,0,.05.1,11.512,11.512,0,0,0,.3,2.78h0.1a0.667,0.667,0,0,1,.447-0.049V22.9c-0.133.139-.033,0.143,0,0.39a0.714,0.714,0,0,1-.2.049,0.682,0.682,0,0,1-.05-0.2,0.194,0.194,0,0,0,.1-0.2,1.537,1.537,0,0,0-.347.049v0.2a3.808,3.808,0,0,1,.1.878,1.867,1.867,0,0,0,.546.049,2.286,2.286,0,0,0,.893.049,2.489,2.489,0,0,1,.3-0.634h0.1a0.655,0.655,0,0,0,.844.537,2.839,2.839,0,0,1,1.092-.1l-0.05-.39h0.1v0.049a1.548,1.548,0,0,1,.05.293,0.545,0.545,0,0,0,.3.049,0.965,0.965,0,0,1,.6,0,1.128,1.128,0,0,0-.893-1.024,0.14,0.14,0,0,1-.05.049,1.173,1.173,0,0,1,.1.341h-0.2c0.009-.154,0-0.439,0-0.439a0.546,0.546,0,0,1,.3-0.049A2.942,2.942,0,0,1,47,23.2c0.206,0.272.133,0.7,0.6,0.732V23.781c-0.137-.021-0.11-0.164-0.1-0.439,0.126-.071.056,0.011,0.1-0.146h0.4c0,0.335.014,0.463,0,.732h0.1a1.372,1.372,0,0,0,.6.049,1.43,1.43,0,0,1,.05-0.634,0.311,0.311,0,0,0,.05.2V23.488a2.259,2.259,0,0,0,0-1.366,30.269,30.269,0,0,1-.4-3.415h0.2v0.439h0.1a2.407,2.407,0,0,1,1.538-.439v0.049h-0.3v0.293a1.47,1.47,0,0,0,.893-0.2A0.242,0.242,0,0,1,50.67,18.8l0.3-.049a0.161,0.161,0,0,0,0,.146c0.12-.044.079-0.052,0.2-0.1,0.019,0.128-.037.064,0.1,0.1a0.113,0.113,0,0,1,.149,0,3.839,3.839,0,0,1,.2,1.756c-0.1,0-.014-0.05-0.1,0a2.559,2.559,0,0,1,.1.878c0.071,0.281.175,0.65,0.248,0.927l0.05,0.976a1.509,1.509,0,0,0,.248.146c0.079,0.1.031,0.339,0.1,0.439a1.522,1.522,0,0,0,.645.049c-0.011-.565.009-1.194,0.05-1.756h0.5V20.61h-0.4v-0.1a2.028,2.028,0,0,0,.05-0.829h1.042c-0.2-1.876-.354-3.625-0.447-5.463h0.149v-0.1a2.582,2.582,0,0,0,0-.976A8.017,8.017,0,0,0,53.7,11c-0.156-.637-0.024-1.385-0.149-2h0.1V9.293a3.637,3.637,0,0,1,.05.878,8.024,8.024,0,0,1,.149,1.659c0.069,0.01-.02-0.04.05-0.049,0.038-.094.05,0.1,0.05,0.1,0.108,0.2-.075.685,0,1.024C54.048,13.364,54.142,13.817,54.194,14.122Zm0.794-.683h0.1v0.244h-0.05V13.634h-0.05A0.383,0.383,0,0,0,54.988,13.439Zm-0.844.2a1.356,1.356,0,0,1,.6.049A1.353,1.353,0,0,1,54.144,13.634ZM54.491,15.1V14.854h0.1a0.2,0.2,0,0,0,.05.244H54.491Zm-39.454-.2,0.149,0.049V15A0.189,0.189,0,0,1,15.037,14.9ZM15.385,15.2a0.268,0.268,0,0,1,.2.146h0.05V15.39A0.372,0.372,0,0,1,15.385,15.2Zm0.347,0.293a0.372,0.372,0,0,1,.248.2h0.05v0.049A0.493,0.493,0,0,1,15.732,15.488Zm40.844,3.171a0.247,0.247,0,0,1,.05.146h-0.05V18.659Zm1.588,0a0.141,0.141,0,0,1,0,.2v-0.2Zm-7.692.049h0.2v0.049H50.62C50.5,18.781,50.559,18.835,50.472,18.707Zm7.643,0.146a0.483,0.483,0,0,1,0,.439V18.854Zm3.474,0.732a0.243,0.243,0,0,1,.149.049c-0.056.1-.03,0.088,0,0.2H61.588V19.585Zm-20.744.341a0.421,0.421,0,0,1,.248.049A0.421,0.421,0,0,1,40.844,19.927Zm0.447,0a0.243,0.243,0,0,1,.149.049h-0.1c-0.085.043-.063,0.043-0.149,0A0.171,0.171,0,0,0,41.29,19.927ZM79.454,21h0.1v0.049A0.171,0.171,0,0,1,79.454,21Zm0,1.61a0.175,0.175,0,0,1,.05.1h-0.05v-0.1Zm-0.05.146a0.175,0.175,0,0,1,.05.1H79.4v-0.1Zm-0.05.146a0.176,0.176,0,0,1,.05.1h-0.05V22.9Zm-63.424.049a0.254,0.254,0,0,1,0,.293V22.951ZM60.844,23a0.175,0.175,0,0,1,.05.1h-0.05V23ZM79.4,23.1a0.421,0.421,0,0,1,.248.049A0.421,0.421,0,0,1,79.4,23.1Zm-35.087.146c0.126,0.071.056-.011,0.1,0.146h-0.1V23.244Zm34.74,0.488a0.175,0.175,0,0,1,.05.1h-0.05v-0.1ZM9.479,25.1h0.1v0.049H9.529V25.2A0.175,0.175,0,0,1,9.479,25.1Zm-0.943.634a0.175,0.175,0,0,1,.05.1H8.536v-0.1Z"/>
</svg>
