<svg xmlns="http://www.w3.org/2000/svg" width="79.969" height="40" viewBox="0 0 79.969 40">
  <defs>
    <style>
      .cls-1 {
        fill: #fff;
        fill-rule: evenodd;
      }
    </style>
  </defs>
  <path id="Color_Fill_1" data-name="Color Fill 1" class="cls-1" d="M50.4,10h0.087l0.043,0.265H50.483V10.31H50.44Zm0.868,3.23a0.905,0.905,0,0,0-.043.575c0.092,0.341.278,0.421,0.738,0.4V14.159a0.314,0.314,0,0,0-.217-0.177v-0.31h0.13a0.878,0.878,0,0,1,.174-0.354,2.162,2.162,0,0,0,.781,0,0.948,0.948,0,0,0,.043.443c0.037,0.029.136,0.059,0.174,0.088-0.246.018-.23,0.091-0.217,0.354h0.564l-0.043.62h0.087a0.272,0.272,0,0,1,.087-0.354v0.088c0.041,0.073.037,0.191,0.087,0.31h-0.26a0.281,0.281,0,0,0,.087.221h-0.3v0.265h0.521v0.089a0.469,0.469,0,0,0-.13.31h0.521V15.531h0.043V15.487a0.545,0.545,0,0,0,.174-0.044,0.847,0.847,0,0,0,0,.31h0.868a0.714,0.714,0,0,0,.087.266c0.036-.144-0.021-0.068.087-0.133v0.088c0.041,0.073.037,0.191,0.087,0.31H55.041v0.4H54.867v1.327h1.085V17.743H55.562V16.549l0.564-.044a0.663,0.663,0,0,1-.087-0.4,0.187,0.187,0,0,0,.087-0.177h0.26a0.663,0.663,0,0,1,.087.4,0.187,0.187,0,0,0-.087.177H56.56a0.124,0.124,0,0,0,.043.044,0.948,0.948,0,0,0,.043.442,0.841,0.841,0,0,1,.477-0.177V16.549l0.564-.133V16.5a1.061,1.061,0,0,0-.217.31,12.99,12.99,0,0,1,1.563.442v0.752H60.38V18.1a2.862,2.862,0,0,0,0,1.195V21.15a3.691,3.691,0,0,0,.13.487l-0.13.044V22.3h0.174v0.133H60.9a2.025,2.025,0,0,1,.043-0.8v0.8H61.2a1.887,1.887,0,0,1,.043-0.752,2.321,2.321,0,0,0,.043.664,4.93,4.93,0,0,0,1,.044,1.89,1.89,0,0,1,.043-0.752v0.752h0.174a1.268,1.268,0,0,1,.13-0.752c0.08,0.12.042,0.061,0.217,0.044a0.423,0.423,0,0,1-.043.354h0.174a1.538,1.538,0,0,1-.043.354h0.694V21.195a1.145,1.145,0,0,1-.13-0.487,0.859,0.859,0,0,0,.217-0.4,0.476,0.476,0,0,1,.26.044v0.088a3.258,3.258,0,0,1,.391-0.044c0.117,0.035.524,0.079,0.651,0.133s0.3,0.221.434,0.266h0.347a14.925,14.925,0,0,0,3.082.133v0.177a11.245,11.245,0,0,0-3.082.177,2.323,2.323,0,0,1,.477.619,0.208,0.208,0,0,0,.13-0.044,2.567,2.567,0,0,0,.174-0.31,0.207,0.207,0,0,1-.13-0.044,2.78,2.78,0,0,1,1,0,0.685,0.685,0,0,1,.087.133,1.1,1.1,0,0,0,.3-0.088,1.3,1.3,0,0,1,.043.752h0.174a0.156,0.156,0,0,1,.087-0.044V22.168c-0.066-.086-0.114-0.226-0.174-0.31H68.15a0.581,0.581,0,0,1,.043-0.31v0.31c0.282,0.019.616,0.044,0.955,0.044a0.823,0.823,0,0,1,.043-0.4v0.4h0.3a0.82,0.82,0,0,1,.043-0.4v0.4l0.738-.044a1.1,1.1,0,0,1,.043-0.664c0,0.294,0,.357,0,0.664h0.087V20.62H70.45l0.043,1.593h0.174V22.124a0.487,0.487,0,0,1-.043-0.265h0.13V20.664h0.087v1.195h0.043a0.258,0.258,0,0,1,.3-0.31V21.5h0.043v0.31a0.379,0.379,0,0,0-.087.354,0.854,0.854,0,0,0,.521-0.088,0.276,0.276,0,0,1-.174-0.044c0.1-.121.031-0.02,0-0.221a0.208,0.208,0,0,0,.13-0.044,0.171,0.171,0,0,1-.087-0.133A0.372,0.372,0,0,0,71.8,21.5a0.207,0.207,0,0,1-.13-0.044,0.723,0.723,0,0,0,.26-0.044c0.014,0.208.071,0.115,0.13,0.221l-0.043.177h0.26a0.82,0.82,0,0,1,.043-0.4v0.4a3.345,3.345,0,0,1,.911.088V21.858a1.644,1.644,0,0,1,.13-0.487v0.265h0.13a1.982,1.982,0,0,1,.174-0.265,0.315,0.315,0,0,0,.347.088,0.825,0.825,0,0,1-.087.4h0.261a3.993,3.993,0,0,1,.434,0,1.209,1.209,0,0,1,.043-0.531,0.636,0.636,0,0,0,.087.531,0.222,0.222,0,0,0,.217,0,1.209,1.209,0,0,1,.043-0.531,1.48,1.48,0,0,0,.043.619,0.168,0.168,0,0,1,.13-0.088,0.459,0.459,0,0,0,.26.221V20.708c0.03-.045.056-0.177,0.087-0.221V22.08H75.7a3.151,3.151,0,0,0,.043-0.841,3.256,3.256,0,0,0,.087-0.752h0.043V21.9a2.3,2.3,0,0,1,.564.044,1.613,1.613,0,0,1,.043-0.664,2.511,2.511,0,0,0,.043.708h0.087a1.752,1.752,0,0,1,.043-0.708,1.889,1.889,0,0,0,.043.752,0.219,0.219,0,0,0,.13.044,3.025,3.025,0,0,1,.564-0.044c0.129-.036.18-0.13,0.3-0.177,0.008,0.159-.064.092,0.087,0.133,0.053-.137.016-0.1,0.174-0.133a0.267,0.267,0,0,0,.087.088V20.4h0.087v1.46l0.13,0.088V20.752c0.044-.072.042-0.283,0.087-0.354v1.549l0.738-.088c0.139-.542.524-0.774,0.695-1.283a6.8,6.8,0,0,0,0-1.327c0.107-.325-0.092-0.95,0-1.018a0.216,0.216,0,0,1,.043-0.133,27.153,27.153,0,0,1,.043,3.673H80a2.837,2.837,0,0,1-.521,1.372c-0.139.32-.234,0.663-0.347,0.973-0.333.911-.482,1.916-0.738,2.876l-0.087.8a10.712,10.712,0,0,0-.3,2.08c-14.887-.006-29.995-0.044-44.927-0.044H12.762c-0.769-.212-1.538-0.664-2.344-0.885a6.031,6.031,0,0,0-1.736.044H6.9c-0.326.072-.889-0.067-1.259,0.044a6.415,6.415,0,0,1-1.476.177,2.823,2.823,0,0,0,.043.575H4.167l-0.13-.221H3.993c0.007,0.241,0,.332-0.174.4A0.37,0.37,0,0,1,3.6,30a0.5,0.5,0,0,1-.13-0.354A1.728,1.728,0,0,0,3.69,29.2a1.37,1.37,0,0,1-.868-0.31H2.908a2.512,2.512,0,0,1,.564-0.31,0.514,0.514,0,0,1-.087-0.133L3.516,28.5a1.546,1.546,0,0,1,.347-0.885h-0.3a2.115,2.115,0,0,0-.868-0.133,1.876,1.876,0,0,0-.391.575,0.416,0.416,0,0,1,.477.177A4.294,4.294,0,0,1,2.6,29.69a4.961,4.961,0,0,1-2.344.088,4.229,4.229,0,0,1,0-2.345,11.283,11.283,0,0,1,1.259.044c0.039-.107.046-0.07,0.087-0.177H1.215C0.971,27.153.516,27.29,0.3,27.124A0.229,0.229,0,0,1,.26,26.991,10.56,10.56,0,0,0,.738,25.4a0.328,0.328,0,0,1-.043-0.177,1.454,1.454,0,0,0,.174-0.487H1v-0.31h-0.3V24.336A0.336,0.336,0,0,0,.825,24.2a0.263,0.263,0,0,0,.087.177H1V24.292a3.761,3.761,0,0,1-.174-1.15,3.425,3.425,0,0,1-.738.265A0.969,0.969,0,0,1,.043,23.1a4.141,4.141,0,0,1,0-.442,4.179,4.179,0,0,0,.477-0.044,0.438,0.438,0,0,0,.26.221V22.566A11.74,11.74,0,0,1,.564,21.15a0.219,0.219,0,0,1,.13-0.044,12.04,12.04,0,0,0,.174,1.726H0.955a1.337,1.337,0,0,1,.825-0.044,0.125,0.125,0,0,1,.043-0.044v-0.31H1.649l-0.043-.088a2.354,2.354,0,0,1,.955-0.088V22.3a1.244,1.244,0,0,0-.043.443,0.466,0.466,0,0,1,.521.31c-0.062-.006-0.252.152-0.477,0.221C2.552,23.212,2.6,23.292,2.6,23.23c0.083-.034-0.087-0.044-0.087-0.044v0.133H2.6a1.978,1.978,0,0,0-.043.442A1.286,1.286,0,0,1,2,23.805v0.31a0.219,0.219,0,0,1,.217.044H2.127a0.153,0.153,0,0,1-.043.088A0.268,0.268,0,0,0,2,24.159v0.177H2.04v0.044H2a0.219,0.219,0,0,0,.13.044v0.133A0.207,0.207,0,0,0,2,24.6c0.283,0.021.249,0.121,0.564,0.133A1.13,1.13,0,0,0,2.6,24.381a0.161,0.161,0,0,1-.043-0.088H3.082v0.044a0.5,0.5,0,0,0,.043.354,2.163,2.163,0,0,1,.043-0.841,1.888,1.888,0,0,0,.043.752v-0.31H3.386a0.125,0.125,0,0,1,.043-0.044,3.231,3.231,0,0,1,0-.443H3.473v0.487H3.69v0.088a0.161,0.161,0,0,0-.043.088,5.463,5.463,0,0,0,.651.044,3.316,3.316,0,0,1,0-.664H4.341v0.664H4.6a1.751,1.751,0,0,1,.043-0.708v0.62h0.26c0.009,0.062-.036-0.018-0.043.044-0.083.034,0.087,0.044,0.087,0.044V24.381l0.434,0.044c0.009,0.062-.036-0.018-0.043.044-0.083.034,0.087,0.044,0.087,0.044V23.1H5.383V23.053H5.469v0.221a2.957,2.957,0,0,1,.087,1.106c0.141,0.037.066-.022,0.13,0.088-0.054.069-.028,0.023,0,0.088a0.155,0.155,0,0,1,.087-0.044V23.1a0.16,0.16,0,0,1-.043-0.088H5.817V23.54c0.165,0.281-.054.9,0.13,1.151,0-.06-0.043-0.354-0.043-0.354,0.031-.042.189-0.046,0.217-0.088l-0.043-.266H6.468v0.088a0.3,0.3,0,0,0-.043.177H6.511a0.219,0.219,0,0,0,.13.044,0.947,0.947,0,0,1,.043-0.442,0.86,0.86,0,0,0,.13.531,1.542,1.542,0,0,1-.043.31,0.37,0.37,0,0,0,.217.044,2.439,2.439,0,0,1,.043-0.929v0.929H7.379l0.043-.221A2.27,2.27,0,0,0,7.9,24.425a1.343,1.343,0,0,1,.043-0.575v0.575a1.3,1.3,0,0,1,.3.044,1.614,1.614,0,0,1,.043-0.664v0.664a1.491,1.491,0,0,0,.26.088V24.69H9.072V23.053H9.116v0.088a6.089,6.089,0,0,1,.043,1.549h0.26V23.009H9.506v1.637a2.044,2.044,0,0,0,.825-0.044c-0.268-.034-0.316-0.171-0.3-0.487a1.724,1.724,0,0,1,.391-0.265c0.1,0.165.212,0.016,0.347-.044a0.8,0.8,0,0,1,.26.575,0.577,0.577,0,0,0-.3.31H11.59a9.6,9.6,0,0,1,0-1.593,0.779,0.779,0,0,1-.174-0.133H11.069V22.035a2.312,2.312,0,0,1,.738-0.088,4.535,4.535,0,0,0,1.042.088,1.4,1.4,0,0,0,.217-0.354,22.559,22.559,0,0,0-3.039-.133V21.372a12.2,12.2,0,0,0,3-.133H13.37a3.7,3.7,0,0,0,.477-0.265,5.593,5.593,0,0,1,1.042-.088V20.8a0.464,0.464,0,0,1,.26-0.044,2.136,2.136,0,0,1,.087,1.283,20.2,20.2,0,0,1,2.344,0V21.9a5.117,5.117,0,0,1-.13-1.283c-0.114-.519-0.048-1.109-0.174-1.681a8.143,8.143,0,0,1-.174-1.681,0.539,0.539,0,0,1-.434-0.044h0.391q-0.022-.4-0.043-0.8c-0.531-.377-1.037-1.648-1.563-1.9V14.6H15.366V14.558a0.161,0.161,0,0,1-.043-0.088c0.22-.04,0-0.047.217-0.088a1.081,1.081,0,0,0,.521.575l-0.043.133c0.239,0.4.689,0.673,0.912,1.106h0.043V16.018a5.536,5.536,0,0,1-.13-1.283c-0.238-.988-0.208-3.051-0.477-4.248h0.174c-0.005.486,0.056,0.52,0.043,0.885a0.6,0.6,0,0,0,.174.044,1.754,1.754,0,0,1,.912.177v0.044H17.623v0.044c-0.16-.052-0.427-0.092-0.564-0.133,0,0.123.05,0.1-.13,0.133a0.219,0.219,0,0,0-.13-0.044,1.29,1.29,0,0,0-.13.575,9.441,9.441,0,0,1,.174,1.681c0.357,1.456.265,3.837,0.651,5.575a16.69,16.69,0,0,0,.26,2.522,0.564,0.564,0,0,0,.3.044c0.058-.136.114-0.437,0.174-0.619a0.16,0.16,0,0,1,.043.088l0.13,0.044c0.011,0.144-.016.372,0,0.4a0.432,0.432,0,0,0,.391.088,5.126,5.126,0,0,0,.043.929,3.675,3.675,0,0,0-.912.133,2.04,2.04,0,0,0-.043.575,0.16,0.16,0,0,1,.043.088,0.683,0.683,0,0,1,.347.088V23.186h0.087V24.6H18.275V23.938H18.188c-0.039.107-.046,0.07-0.087,0.177,0.081,0.135.045,0.4,0.13,0.531a0.674,0.674,0,0,0,.347.044c-0.019-.479,0-1.05,0-1.637h0.087v1.195H18.8l-0.043.442h0.13a3.963,3.963,0,0,0-.13-1.416,1.191,1.191,0,0,1,.3-0.354,0.3,0.3,0,0,0,.3.088V22.876h0.087a1.8,1.8,0,0,1,.738-0.044,0.707,0.707,0,0,1,.043.221c0.257,0,.292-0.012.521,0a0.15,0.15,0,0,1,0-.133,0.682,0.682,0,0,1,.26.088,0.208,0.208,0,0,0-.13.044H21.4a0.571,0.571,0,0,0-.043-0.177H21.53a0.219,0.219,0,0,0,.13.044v0.133h0.217c0.036-.144-0.021-0.068.087-0.133,0.076,0.134.091,0.133,0.3,0.133a0.475,0.475,0,0,1,.13-0.177c0.078-.163-0.156-0.3.217-0.31a0.79,0.79,0,0,0,.087.177c0.063-.113-0.009-0.05.13-0.088a1.161,1.161,0,0,1-.087.4h1.78a7.852,7.852,0,0,1,1.563,0v0.133l-1.519.088v1.106c0.25-.015.355,0,0.651,0,0.009,0.062-.036-0.018-0.043.044-0.083.034,0.087,0.044,0.087,0.044a0.285,0.285,0,0,1,.13-0.221,0.79,0.79,0,0,0,.391.044,0.821,0.821,0,0,1,.044-0.4,0.393,0.393,0,0,0,.087.4,0.6,0.6,0,0,1,.217-0.619,0.459,0.459,0,0,1,.3-0.088V22.655H26.218V22.566a7.991,7.991,0,0,0,.043-1.062c0.133-.082.476,0,0.608-0.088a1.527,1.527,0,0,1-.651-0.044,0.945,0.945,0,0,0,.651-0.088H26.218V21.239a3.9,3.9,0,0,0,1.085-.133V21.062a0.171,0.171,0,0,1-.087-0.133H27.3c0.288-.235.424,0.094,0.608,0.177a0.8,0.8,0,0,1,.261,0,0.148,0.148,0,0,0-.087.044,0.322,0.322,0,0,1,.217,0V21.106a1.109,1.109,0,0,1,.087-0.177H28.345a0.537,0.537,0,0,1-.391,0A0.217,0.217,0,0,1,28,20.8a0.674,0.674,0,0,0,.521.044v0.31h0.13a0.568,0.568,0,0,1-.043.177c-0.123-.014-0.09-0.047-0.174,0a0.124,0.124,0,0,0-.043.044c0.1-.018.047-0.041,0.13,0,0.016,0.083-.02.084,0.174,0.088V21.283h0.044v0.044c0.115,0.125.038,0.145,0.434,0.133V21.5a0.375,0.375,0,0,0,0,.354c0.036-.144-0.021-0.068.087-0.133a0.153,0.153,0,0,0,.044.088,0.855,0.855,0,0,0,0,.31H29.126a2.543,2.543,0,0,0,.043.531c-0.285.09-.322,0.305-0.3,0.708a5.616,5.616,0,0,1,0,.708h0.043V23.982a1.648,1.648,0,0,0,.26-0.442l-0.043-.31c0.322,0.039.592-1.159,0.912-1.239v0.044h0.043a4.019,4.019,0,0,0-.477.973h0.13V22.832a3.787,3.787,0,0,1,.868.088v0.133a0.838,0.838,0,0,0,.608-0.133v0.133h0.564a0.571,0.571,0,0,0-.043-0.177H31.9a0.219,0.219,0,0,0,.13.044v0.133a0.271,0.271,0,0,0,.217-0.133c0.094-.02.2,0.122,0.391,0.133,0.07-.18.027-0.459,0.3-0.487a0.914,0.914,0,0,1,.087.487h3.429v0.133l-3.3.265a1.186,1.186,0,0,0-.043.619c0.08,0.289.277,0.286,0.651,0.266l0.087-.531a2.251,2.251,0,0,1,.477-0.265v0.841l0.347-.044V24.159c0.365,0,.736.021,1.042,0.044-0.008-.234-0.077-0.255,0-0.31a0.152,0.152,0,0,1,.043-0.088v0.354h0.781v0.221h0.26c0.013,0.117.036,0.093,0.261,0.088l0.087-.221a1.926,1.926,0,0,0,.564.044,0.29,0.29,0,0,0,.043.177c0-.985.085-1.785,0.087-2.7h5.122a0.79,0.79,0,0,0,.087.177,4.844,4.844,0,0,1,1.432-1.239,0.328,0.328,0,0,0,.174.177,0.91,0.91,0,0,1,.434-0.044v-0.31A1.79,1.79,0,0,0,45.535,20a4.1,4.1,0,0,1-.174-1.062,13.357,13.357,0,0,1-.391-2.168,0.613,0.613,0,0,0,.217-0.044,0.9,0.9,0,0,0,.087.354,4.665,4.665,0,0,0,1.3-.8l-0.217-.354,0.174-.044a0.672,0.672,0,0,0,.13.442h0.044c0.005-.166-0.052-0.108.13-0.133a1.725,1.725,0,0,0,.911-0.487H47.271c-0.032-.039-0.055-0.05-0.087-0.088l0.738,0.088c0.094-.022.229-0.215,0.3-0.133a0.6,0.6,0,0,1,.174.31h0.044V15.664a3.326,3.326,0,0,1-.174-0.487A0.239,0.239,0,0,1,48.4,15V14.956h0.044V15a0.382,0.382,0,0,1,.13.177,3.479,3.479,0,0,0,.087,1.195c0.22,0.864.252,1.879,0.478,2.743a4.211,4.211,0,0,0,.174,1.062,0.725,0.725,0,0,0,.695.221,1.128,1.128,0,0,0,.043-0.354,0.16,0.16,0,0,1-.043-0.088h0.13V20.4h0.521V20.354H50.7l0.087-.4-0.13-.044c-0.056-.063-0.051,0-0.13.044V19.823a1.3,1.3,0,0,1,.3.044V19.779a1.576,1.576,0,0,0,.217-0.664,0.252,0.252,0,0,0-.174,0,2.046,2.046,0,0,1-.3.664V19.69a1.714,1.714,0,0,0,.174-1.151,0.207,0.207,0,0,0,.13-0.044,0.872,0.872,0,0,1-.087-0.177h0.087v0.044l0.087-.044v0.044A0.3,0.3,0,0,1,51,18.54h0.26c-0.036-.2-0.047-0.155-0.087-0.354a0.71,0.71,0,0,1-.3-0.177h0.043V17.965a1.04,1.04,0,0,1,.608,0V17.788a14.548,14.548,0,0,1-.3-1.814H51.177v0.265c0.11,0.065.087,0.094,0.087,0.265H51a16.56,16.56,0,0,0-.043-2.788,10.96,10.96,0,0,1-.3-2.08,0.207,0.207,0,0,1-.13-0.044c0.265-.187-0.189-0.952,0-1.283A8.022,8.022,0,0,0,50.7,11.46a0.16,0.16,0,0,0,.044-0.088,0.834,0.834,0,0,0,.13-0.221,0.276,0.276,0,0,1-.174-0.044,0.372,0.372,0,0,0,.3-0.133l0.043,0.354a1.237,1.237,0,0,0-.26.088,2.026,2.026,0,0,0,.087.354,1.538,1.538,0,0,1,.043-0.354,0.161,0.161,0,0,1,.043.088,1.3,1.3,0,0,1,.087.354c-0.231-.01-0.258-0.083-0.3.088,0.227,0.381.022,1.088,0.26,1.46C51.039,13.214,51.052,13.233,51.264,13.23Zm-1.042-2.035a0.477,0.477,0,0,1,.13.089H50.309a0.525,0.525,0,0,1-.477.133V11.327a0.343,0.343,0,0,0,.13-0.089A0.266,0.266,0,0,0,50.223,11.195Zm-33.6.266v0.31h0.043V11.681a0.494,0.494,0,0,0,.13-0.221H16.625Zm0.3,0v0.088h0.043A0.152,0.152,0,0,0,16.929,11.46Zm33.815,0.177a0.216,0.216,0,0,0,.043.133A0.217,0.217,0,0,0,50.743,11.637Zm-34.031.442a0.778,0.778,0,0,1,.391.044c-0.155.018-.109-0.021-0.174,0.088C16.874,12.173,16.769,12.126,16.712,12.08ZM51.047,12.3a0.276,0.276,0,0,1,.174.044,0.207,0.207,0,0,0-.13.044,0.269,0.269,0,0,1,0,.265,0.207,0.207,0,0,1,.13.044,0.451,0.451,0,0,1-.26-0.044A0.324,0.324,0,0,0,51.047,12.3ZM51,13.54a0.29,0.29,0,0,0,.043.177A0.291,0.291,0,0,0,51,13.54Zm0.521,2.434c0.006-.211.119-0.816,0.087-0.885a4.915,4.915,0,0,1-.26-0.442,0.85,0.85,0,0,0-.13-0.531,0.124,0.124,0,0,0-.043-0.044v0.664a5.67,5.67,0,0,1,.217,1.239h0.13ZM15.41,14.823a8.656,8.656,0,0,0,.26,1.062c-0.66.038-1.162,0.378-1.823,0.442V16.283H13.8c-0.024-.376-0.182-0.633-0.217-1.018C14.22,15.195,14.746,14.867,15.41,14.823Zm37.851,0.044-0.043.177H53.3A0.29,0.29,0,0,0,53.261,14.867Zm-1.519.221V15.4L52,15.354V15.133A0.781,0.781,0,0,0,51.742,15.089Zm0.347,0a1.448,1.448,0,0,0,.087.265C52.177,15.181,52.2,15.155,52.089,15.089Zm0.13,0c0.036,0.144-.021.068,0.087,0.133V15.089H52.219Zm0.26,0a0.929,0.929,0,0,1,0,.265H53V15.089H52.48Zm-0.26.177v0.088h0.087V15.266H52.219Zm-4.775.31a0.276,0.276,0,0,1,.174.044A0.277,0.277,0,0,1,47.444,15.575Zm3.733,0a0.583,0.583,0,0,0,.043.31A0.583,0.583,0,0,0,51.177,15.575Zm-4.124.088a0.761,0.761,0,0,1,.174.088,1.092,1.092,0,0,1-.434,0H46.88C46.917,15.724,47.017,15.693,47.054,15.664Zm-0.391.133H46.75v0.044A0.148,0.148,0,0,1,46.663,15.8Zm8.421,0.133-0.043.31h0.087A0.583,0.583,0,0,0,55.084,15.929Zm-8.942.133h0.087v0.044A0.147,0.147,0,0,1,46.142,16.062Zm5.9,2.035V16.858c-0.25-.033-0.285-0.141-0.521-0.177a2.143,2.143,0,0,0-.043-0.619H51.395v0.177a9.761,9.761,0,0,1,.347,1.814ZM46.012,16.15H46.1a0.266,0.266,0,0,1-.087.088,0.124,0.124,0,0,1-.043.044Zm9.159,0v0.088h0.043V16.15H55.171Zm-9.333.133c0.054,0.069.028,0.023,0,.088-0.018.025-.033,0.074-0.043,0.088C45.719,16.356,45.808,16.385,45.838,16.283Zm-0.217.31c0.037,0.083.021,0.033,0,.133H45.578Zm8.508,1.416h0.564V16.681a0.714,0.714,0,0,0-.521.133A3.291,3.291,0,0,0,54.129,18.009ZM45.491,16.77a0.161,0.161,0,0,1,.044.088H45.491V16.77Zm6.815,1.106h1.085V17.92a0.16,0.16,0,0,0-.043.088h0.13v-1.15H53.391a2.193,2.193,0,0,0-1.085,0,5.29,5.29,0,0,0-.043,1.372h0.043V17.876Zm1.3,0.133H54V16.814H53.652a2.487,2.487,0,0,0-.087.973A0.388,0.388,0,0,1,53.608,18.009Zm-36.636-.575a0.171,0.171,0,0,1,.087.133H17.016V17.522A0.161,0.161,0,0,1,16.972,17.434Zm34.856,0.31a0.16,0.16,0,0,1,.043.088H51.829V17.743Zm-0.391.044a0.161,0.161,0,0,1,.043.088H51.438V17.788Zm0.477,0a0.161,0.161,0,0,1,.043.088H51.915V17.788Zm-0.738.177v0.088c0.155,0.018.109-.021,0.174,0.088-0.011.043-.034,0.017,0,0.044a1.17,1.17,0,0,1,.174-0.133A2.258,2.258,0,0,1,51.177,17.965Zm0,0.133c-0.014.061,0.062,0.064,0.087,0.088C51.295,18.139,51.189,18.111,51.177,18.1Zm0.564,0.044V18.23h0.043V18.186h0.043A0.156,0.156,0,0,0,51.742,18.142Zm-0.3.044c0.075,0.039.055,0.039,0.13,0h-0.13Zm0.825,0.177a0.29,0.29,0,0,0,.043.177A0.29,0.29,0,0,0,52.263,18.363Zm-0.911.044-0.044.133h0.174A0.267,0.267,0,0,0,51.351,18.407Zm0.694,1.9a0.316,0.316,0,0,1,.26.088V19.071H52.263c-0.051.059-.223,0.078-0.26,0.133v0.974A0.229,0.229,0,0,1,52.046,20.31Zm-0.825-1.15v0.088h0.087V19.159H51.221Zm6.555,0.088v0.487h0.26V19.248h-0.26Zm0.391,0a1.078,1.078,0,0,0,.043.487A1.077,1.077,0,0,0,58.166,19.248Zm0.13,0v0.487h0.3V19.248H58.3Zm0.608,0v0.487h0.174V19.248H58.9Zm0.477,0v0.487H59.6V19.248H59.381Zm0.477,0v0.487h0.087a0.238,0.238,0,0,1,.174,0V19.248H59.859Zm-8.681.044c0.036,0.144-.021.068,0.087,0.133V19.292H51.177Zm0.391,0a0.7,0.7,0,0,0,.043.354A0.7,0.7,0,0,0,51.568,19.292Zm0.087,0v0.088h0.087V19.336Zm0.261,0a0.582,0.582,0,0,0,.043.31A0.583,0.583,0,0,0,51.915,19.292Zm-0.477.044-0.3,1.062h0.174c0.037-.1.084-0.052,0.174,0V20.266A3.328,3.328,0,0,0,51.438,19.336Zm-0.3.133a0.568,0.568,0,0,1-.043.177h0.087V19.6a0.228,0.228,0,0,0,.043-0.133H51.134Zm0.521,0.088v0.088H51.7V19.6h0.043A0.156,0.156,0,0,0,51.655,19.558Zm0.087,0.088V19.69H51.7c-0.084.034,0.087,0.044,0.087,0.044A0.152,0.152,0,0,0,51.742,19.646Zm-0.651.044-0.043.133h0.087V19.735l0.043-.044H51.091ZM51.7,19.779l0.043,0.133c-0.061.009,0.017-.036-0.043-0.044-0.034-.085-0.043.088-0.043,0.088h0.087c0.077-.042,0-0.01.087,0A0.239,0.239,0,0,0,51.7,19.779Zm-0.13.088v0.088h0.043A0.153,0.153,0,0,0,51.568,19.867ZM51,19.912l-0.043.133C51.086,19.988,51.077,20.015,51,19.912Zm-0.043.177-0.043.133H51V20.177a0.161,0.161,0,0,0,.043-0.088H50.96Zm0.434,0a0.161,0.161,0,0,1,.043.088H51.395V20.089Zm-0.043.088a0.161,0.161,0,0,1,.043.088H51.351V20.177Zm0.391,0v0.088h0.043A0.152,0.152,0,0,0,51.742,20.177Zm-0.868.088c0.036,0.144-.021.068,0.087,0.133V20.31H51V20.266h-0.13ZM49.7,20.8l0.347,0.044v-0.4H49.615v0.044A0.314,0.314,0,0,1,49.7,20.8Zm0.434-.354v0.4h0.174a0.216,0.216,0,0,1,.043-0.133c0.069,0.121.039,0.111,0.217,0.133l0.087-.4H50.136Zm0.955,0-0.087.4a0.329,0.329,0,0,0,.26-0.088c0.1,0.093-.014.082,0.217,0.088v-0.4H51.395A0.5,0.5,0,0,1,51.091,20.443Zm1.172,0a0.475,0.475,0,0,0,.043.265A0.475,0.475,0,0,0,52.263,20.443Zm-1.432.044-0.043.177h0.087a0.152,0.152,0,0,1,.043-0.088V20.487H50.83Zm0.391,0.044a0.161,0.161,0,0,1,.043.088H51.221V20.531Zm0.087,0a0.16,0.16,0,0,1,.044.088H51.308V20.531Zm18.1,0,0.13,0.044v0.088H69.452V20.62A0.161,0.161,0,0,1,69.409,20.531Zm-18.231.088a0.16,0.16,0,0,1,.043.088H51.177V20.62Zm0.087,0a0.16,0.16,0,0,1,.043.088H51.264V20.62Zm18.275,0.044a0.241,0.241,0,0,1,.13.177H69.626V20.8H69.582Zm-18.8.044c0.036,0.144-.021.068,0.087,0.133V20.708H50.743Zm1.172,0V20.8h0.043V20.708H51.915Zm-0.174.044v0.088h0.043A0.152,0.152,0,0,0,51.742,20.752ZM52.132,20.8a0.156,0.156,0,0,0,.087.044A0.155,0.155,0,0,0,52.132,20.8Zm27.607,0a3.236,3.236,0,0,0-.174,1.018h0.087c0.067-.031.006-0.006,0.13,0A2.716,2.716,0,0,0,79.74,20.8Zm-10.331.221c0.107,0.057.029-.019,0.087,0.088-0.037.083-.021,0.033,0,0.133H69.409V21.018Zm0.477,0.044a0.241,0.241,0,0,1,.13.177H69.973V21.195H69.93Zm9.593,0.265a2.534,2.534,0,0,0-.043.487h0.087A1.092,1.092,0,0,0,79.479,21.327Zm-7.64.177v0.088h0.043V21.5H71.839Zm-5.469.044h0.087v0.088H66.37V21.549Zm12.979,0.088a1.154,1.154,0,0,0-.087.221h0.043a0.155,0.155,0,0,1,.087-0.044A0.29,0.29,0,0,0,79.349,21.637Zm-52.263.088A0.156,0.156,0,0,1,27,21.77v0.044h0.13V21.77h0.043A0.155,0.155,0,0,0,27.086,21.726Zm-0.174.177a0.217,0.217,0,0,0,.043.133A0.216,0.216,0,0,0,26.913,21.9Zm0.174,0.088a1.49,1.49,0,0,0,.174.531,0.124,0.124,0,0,0,.043-0.044,0.3,0.3,0,0,0,.043-0.177,0.8,0.8,0,0,0-.087-0.4A0.173,0.173,0,0,1,27.086,21.991ZM77.873,21.9v0.088h0.043A0.151,0.151,0,0,0,77.873,21.9Zm-5.643.044H72.013v0.044a0.473,0.473,0,0,1,.13.088,0.358,0.358,0,0,0-.217.044,1.3,1.3,0,0,1,.3.044V21.947Zm-43.1.044V22.08H29.17V21.991H29.126Zm44.84,0.044a0.155,0.155,0,0,0,.087.044A0.156,0.156,0,0,0,73.966,22.035Zm0.912,0a0.155,0.155,0,0,0,.087.044A0.156,0.156,0,0,0,74.878,22.035Zm-31.861.044a0.948,0.948,0,0,0,.043.442C43.077,22.226,43.18,22.209,43.017,22.08Zm27.347,0.044v0.088h0.043V22.124H70.364Zm-43.451.443h0.174V22.522H27.13V22.478H27.086a2.154,2.154,0,0,1-.13-0.266H26.913v0.354ZM2.691,22.434a0.161,0.161,0,0,1,.043.088H2.691V22.434Zm0.13,0.177a0.161,0.161,0,0,1,.043.088H2.821V22.611Zm35.941,0a0.156,0.156,0,0,0,.087.044A0.156,0.156,0,0,0,38.763,22.611Zm2.431,0a0.156,0.156,0,0,0,.087.044A0.156,0.156,0,0,0,41.194,22.611Zm-11.763.044c0.054,0.069.028,0.022,0,.088a1.05,1.05,0,0,1-.391.487V23.142Zm3.646,0h0.13a0.513,0.513,0,0,1-.087.354Zm-30.125.133A0.161,0.161,0,0,1,3,22.876H2.952V22.788Zm19.707,0v0.221H22.7V22.965C22.754,22.858,22.742,22.867,22.659,22.788Zm-1.519.133h0.087v0.044A0.148,0.148,0,0,1,21.139,22.92Zm10.418,0h0.087v0.044A0.148,0.148,0,0,1,31.557,22.92Zm-1.78.044v0.088h0.13V23.009Zm1.563,0h0.087v0.044A0.148,0.148,0,0,1,31.34,22.965Zm-11.416.044a0.125,0.125,0,0,0,.174,0H19.924Zm10.2,0c0.075,0.039.055,0.039,0.13,0h-0.13Zm0.174,0a0.125,0.125,0,0,0,.174,0H30.3Zm-14.064.044c0.01,0.4.014,0.592,0,.929h0.043V23.894a2.594,2.594,0,0,0,.434-0.841h-0.3A0.238,0.238,0,0,1,16.234,23.053Zm0.912,1.593a2.023,2.023,0,0,1,.043-0.8v0.8h0.087V24.558a4.07,4.07,0,0,1,.087-1.372l0.043,0.619,0.217,0.044v-0.4a0.487,0.487,0,0,0,.043-0.265,1.62,1.62,0,0,0-.651-0.133l-0.477.973a0.778,0.778,0,0,1,.391.044,3.726,3.726,0,0,1,.087.575h0.13ZM16.321,23.1a0.161,0.161,0,0,1,.043.088H16.321V23.1ZM1,23.186v0.088a0.857,0.857,0,0,1,.3.4H1.346V23.319a0.161,0.161,0,0,0,.043-0.088,0.6,0.6,0,0,0-.174-0.044A0.3,0.3,0,0,1,1,23.186Zm0.521,0c-0.04.153-.058,0.2-0.087,0.31H1.476c0.067-.031.006-0.006,0.13,0V23.407a0.143,0.143,0,0,1-.13,0l0.043-.133c0.107-.057.03,0.019,0.087-0.088H1.519Zm14.759,0a0.161,0.161,0,0,1,.043.088H16.278V23.186Zm-14.628.088a0.217,0.217,0,0,0,.043.133V23.274H1.649Zm1.172,0a0.161,0.161,0,0,1,.043.088H2.821V23.274Zm21.617,0a2.85,2.85,0,0,0-.087,1.195h0.087a3.236,3.236,0,0,0,.087-1.195H24.438Zm-1.649.177a3.121,3.121,0,0,0,.043.31,0.425,0.425,0,0,0-.13.31,0.511,0.511,0,0,1,.087.133h0.043a0.583,0.583,0,0,1,.043-0.31,0.5,0.5,0,0,0,.13.531,1.143,1.143,0,0,0,.825-0.088l0.434,0.044V23.319Zm-21.7.4h0.13v0.8H1.3V24.558a1.147,1.147,0,0,0-.3-1.15,0.124,0.124,0,0,0-.043-0.044v0.265c0.1,0.155.029,0.5,0.13,0.664V23.85Zm0.695-.487v0.088H1.867V23.407ZM2.691,23.5a0.161,0.161,0,0,1,.043.088H2.691V23.5ZM1.78,23.54v0.088H1.823V23.584H1.867A0.156,0.156,0,0,0,1.78,23.54ZM18.969,24.69a2.6,2.6,0,0,0,1-.265,0.873,0.873,0,0,0,.087-0.177,0.78,0.78,0,0,0,.26.044,3.123,3.123,0,0,1-.043-0.752H19.013v0.044H18.969V24.69Zm2-1.151c0.036,0.144-.021.068,0.087,0.133a0.5,0.5,0,0,1,.13-0.088V23.54H20.966Zm1.649,0v0.088h0.043A0.153,0.153,0,0,0,22.615,23.54Zm0.087,0a0.376,0.376,0,0,0,.043.221A0.376,0.376,0,0,0,22.7,23.54Zm7.249,0.8a0.948,0.948,0,0,1,.043-0.443,0.468,0.468,0,0,0,.087.443,1.209,1.209,0,0,1,.043-0.531v0.531h0.564c0.06,0.136-.006.129,0.26,0.133a4.906,4.906,0,0,0,.043-0.619V23.805a0.322,0.322,0,0,1-.347-0.044,0.229,0.229,0,0,1-.043-0.133,0.268,0.268,0,0,0,.087-0.088h-1.3a0.337,0.337,0,0,1-.13.133,1.2,1.2,0,0,0-.217.354H29.6c-0.037.13-.086,0.184,0.043,0.266A0.565,0.565,0,0,0,29.951,24.336Zm1.346-.8a0.125,0.125,0,0,0,.174,0H31.3Zm1.693,0,0.043,0.221h0.043V23.54H32.99Zm-31.47.044a0.452,0.452,0,0,0-.087.177c0.041,0.078.01,0,0,.088H1.476c0.077-.042,0-0.01.087,0l-0.087-.133a0.39,0.39,0,0,0,.13-0.133H1.519Zm1.129,0a0.161,0.161,0,0,1,.043.088H2.648V23.584Zm-1,.088v0.088H1.693A0.152,0.152,0,0,0,1.649,23.673Zm14.628,0h0.087v0.044H16.278V23.673Zm-14.5.133a0.156,0.156,0,0,0,.087.044A0.156,0.156,0,0,0,1.78,23.805ZM20.358,23.85v0.265h0.261v0.354h0.087V24.425a3.741,3.741,0,0,0,.13-0.575H20.619A1.216,1.216,0,0,0,20.358,23.85Zm2.691-.044a0.161,0.161,0,0,1,.043.088H23.049V23.805ZM2.17,23.85H2.257v0.044A0.148,0.148,0,0,1,2.17,23.85Zm-1.042.044a0.7,0.7,0,0,0,.043.354A0.7,0.7,0,0,0,1.129,23.894Zm18.882,0H20.1v0.044A0.149,0.149,0,0,1,20.011,23.894Zm-2.431.8H17.8a0.97,0.97,0,0,0,.043-0.31c-0.049-.082-0.036-0.317-0.087-0.4a1.052,1.052,0,0,1-.087.62,1.094,1.094,0,0,0-.13-0.664v0.487A0.487,0.487,0,0,1,17.58,24.69Zm-6.945-.664v0.088h0.043V24.027H10.635Zm0.087,0v0.354h0.087C10.9,24.2,10.9,24.144,10.722,24.027Zm-0.434.044a0.52,0.52,0,0,0-.13.266l0.174,0.133v-0.4H10.288Zm-9.593.044a0.358,0.358,0,0,1,.217.044A0.357,0.357,0,0,1,.695,24.115Zm28.258,0.044-0.043.133H29A0.216,0.216,0,0,0,28.953,24.159Zm5.3,0a0.376,0.376,0,0,0,.043.221A0.376,0.376,0,0,0,34.249,24.159ZM5.469,24.2a0.29,0.29,0,0,0,.043.177A0.29,0.29,0,0,0,5.469,24.2Zm17.58,0a0.161,0.161,0,0,1,.043.089H23.049V24.2ZM2.17,24.248H2.257v0.088H2.17V24.248Zm-1.042.088a0.7,0.7,0,0,0,.043.354A0.7,0.7,0,0,0,1.129,24.336Zm9.246,0v0.088h0.043A0.153,0.153,0,0,0,10.374,24.336Zm18.492,0v0.088h0.043A0.153,0.153,0,0,0,28.866,24.336Zm-18.188.221a0.444,0.444,0,0,0-.3.088,0.857,0.857,0,0,1,.3.044V24.558ZM1.91,27.345A1.249,1.249,0,0,1,2,28.009a0.148,0.148,0,0,0-.087.044H2V28.009a1.5,1.5,0,0,0,.043-0.619ZM4.167,28.54h0.3A3.148,3.148,0,0,0,4.514,27.7a1.168,1.168,0,0,1-.391-0.044v0.088A2.044,2.044,0,0,1,4.167,28.54Zm0.912-.708a5.289,5.289,0,0,1,.043.619H5.165V28.5a1.918,1.918,0,0,1,.521.088,9.012,9.012,0,0,0,2.04-.044A3.017,3.017,0,0,0,8.812,28.5,5.315,5.315,0,0,1,7.6,28.23L6.9,28.142A7.992,7.992,0,0,0,5.079,27.832Zm-3.516.531A0.691,0.691,0,0,0,2.3,28.1H2.257a0.837,0.837,0,0,1-.651.177,0.475,0.475,0,0,0-.043-0.265v0.354Z" transform="translate(-0.031)"/>
</svg>
