<svg xmlns="http://www.w3.org/2000/svg" width="80" height="40" viewBox="0 0 80 40">
  <defs>
    <style>
      .cls-1 {
        fill: #fff;
        fill-rule: evenodd;
      }
    </style>
  </defs>
  <path id="Color_Fill_1" data-name="Color Fill 1" class="cls-1" d="M49.819,11a0.658,0.658,0,0,1,0,.681V11Zm3,7.881h0.871a4.123,4.123,0,0,1,0-.876H53.4V17.13l0.677-.1v0.389a8.715,8.715,0,0,0,.871-0.389c-0.006.283-.093,0.135,0,0.292a3.2,3.2,0,0,1,1.064.486,2.806,2.806,0,0,0,0,.584c-0.356.1-.34,0.064-0.387,0.486h1.741a0.818,0.818,0,0,1,.1-0.486c0,1.142,0,1.8,0,3.016l1.935-.1a9.186,9.186,0,0,0-.194-0.973c0.34-.3.164-0.605,0.774-0.681a1.523,1.523,0,0,0,.774.1,1.38,1.38,0,0,1,.1.389,1.059,1.059,0,0,0-.29.195,29.172,29.172,0,0,0,3.289.195V20.73H61.33a0.348,0.348,0,0,1-.194.1v0.1h0.1c0.3,0.46.869,0.419,1.644,0.389a5.336,5.336,0,0,1,1.935-.1l3.579-.1c1.476-.323,3.23.157,4.837-0.195,1.8-.393,4.659-0.158,6.578-0.292v0.195H77.291a5.8,5.8,0,0,1-2.128.1l-4.256.195v0.195h0.58c0.685-.436,1.863.126,2.9-0.1a3.173,3.173,0,0,1,1.258-.1c0.068,0.019.042,0.214,0.194,0.195,1-.131,2.748-0.33,4.16-0.389a17.147,17.147,0,0,1-1.064,2.53,17.615,17.615,0,0,0-.58,4.865c-14.643,0-29.695.1-44.5,0.1H14.22c-0.836-.222-1.872-0.654-2.709-0.876a2.938,2.938,0,0,0-1.161.1H8.029a13.887,13.887,0,0,1-2.9.292v0.681H5.03c-0.285-.243-0.126-0.122-0.484,0V28.027H4.256a3.331,3.331,0,0,1-.1.778h-0.1v0.1a4.931,4.931,0,0,1-2.225-.1,6.437,6.437,0,0,1-.1-1.751A15.852,15.852,0,0,1,3.1,26.178v-0.1H2.225c-0.1-.067-0.387-0.125-0.484-0.195a0.352,0.352,0,0,1-.1-0.195c0.548-.782.007-1.644-0.193-2.432,0.25-.027.172,0.045,0.193-0.389A8.06,8.06,0,0,1,.193,21.119H0.1a0.631,0.631,0,0,1-.1.389V20.924H0.1v-0.1l0.29,0.1a3.193,3.193,0,0,0,1.548,1.751v0.292a1.6,1.6,0,0,1,.967.1V22.87A0.846,0.846,0,0,0,3,22.384a3.249,3.249,0,0,0-1.161.1v-0.1a0.987,0.987,0,0,1,.29-0.486,2.08,2.08,0,0,0,1.354.1l-0.1-.486H3.869v0.486a1.219,1.219,0,0,1,.387.1,0.334,0.334,0,0,1-.1.195,0.492,0.492,0,0,1-.29.1V22.87H3.289v0.1a2.793,2.793,0,0,1,.193.486,0.49,0.49,0,0,0,.1-0.195,5.5,5.5,0,0,0,2.515.195c0.879-.4,1.694-0.2,2.9-0.195,0.637,0,2.461.23,2.709-.195H7.158v-0.1h4.45a2.1,2.1,0,0,0,.1-0.681h-0.1v-0.1l-0.193.1v-0.1a1.294,1.294,0,0,1-.1-0.681h0.967a1.536,1.536,0,0,0,.387-0.486H12.479a6.427,6.427,0,0,0-2.418-.1V20.73a15.823,15.823,0,0,0,3.192-.195c-0.177-.213-0.3-0.128-0.194-0.389a0.7,0.7,0,0,1,.774-0.195,0.648,0.648,0,0,1,.387-0.1,2.732,2.732,0,0,1,.29,1.654h0.58a4.83,4.83,0,0,0,.1-1.362,1.074,1.074,0,0,0-.1-1.168,1.581,1.581,0,0,1-.677,0l-0.1-.681h0.29l-0.484-2.724-1.451.195V15.573a2.258,2.258,0,0,1-.194-0.681L13.93,14.6a0.593,0.593,0,0,1,0-.584,0.65,0.65,0,0,1,.387-0.1l0.871,0.292V11.292h0.194a1.24,1.24,0,0,0,.1.389,46.568,46.568,0,0,1,5.9.292c1.061,0.229,2.445-.106,3.386.1,1.339,0.289,3.039-.166,4.256.1h5.8c2,0.432,5.12.1,7.352,0.1h3.869a21.394,21.394,0,0,1,3.869-.195,0.758,0.758,0,0,1,0-.389h0.1v0.1c0.117,0.184.089,0.567,0.194,0.778,0.346,0.7.895,1.448,1.258,2.14,0.213,0.405.25,0.912,0.387,1.168,0.054-.127,0-0.072.1-0.1a3.52,3.52,0,0,1,.677,1.362h-0.1v-0.1a8.138,8.138,0,0,0-.677-1.07v0.1a5.841,5.841,0,0,1,1.161,2.724h-0.1c-0.029-.912-0.559-1.292-0.774-2.043h-0.1v0.195a1.486,1.486,0,0,1,.29.778h-0.1V17.519a1.97,1.97,0,0,1-.29-0.584h-0.1a3.629,3.629,0,0,0-.387.876c0.066,0.075.127,0.217,0.194,0.292a0.472,0.472,0,0,1,.1-0.292c0.13,0.493.531,0.044,0.58,0.876a0.351,0.351,0,0,0-.1.195h0.484V18.687a1.831,1.831,0,0,1-.387-0.973h0.1v0.195A1.83,1.83,0,0,1,52.817,18.881Zm-35.5,2.627H17.7V21.9h7.158V21.314a1.634,1.634,0,0,1,.581.1,0.8,0.8,0,0,1,.1-0.681v0.1a2.874,2.874,0,0,1,.194.584c0.61-.388,1.37-0.123,1.741-0.389,0.167,0.136-.043.142,0.29,0.195,0.02-.136-0.08.039-0.1-0.1-0.186-.075.193-0.1,0.193-0.1v0.292a11.554,11.554,0,0,0,2.225.389l-0.1-1.265h-0.1a0.591,0.591,0,0,1-.194.195V20.438c0.386-.554.067-1.533,0-2.238a7.584,7.584,0,0,0,2.418-.292v0.778a3.151,3.151,0,0,1,.194,1.168,0.465,0.465,0,0,1,.29.1H32.31v0.292l1.354,1.07a0.767,0.767,0,0,0,.29-0.195v0.292a0.352,0.352,0,0,0-.1.195h-0.1a0.593,0.593,0,0,0-.193-0.195,0.594,0.594,0,0,1-.1.389h0.193c0.119-.309.3-0.151,0.581,0V20.632a0.592,0.592,0,0,1-.194-0.195,1.455,1.455,0,0,1,.387-0.195l0.1,0.681h-0.1a0.334,0.334,0,0,0-.1-0.195v0.292a3.727,3.727,0,0,0,.1.973,0.819,0.819,0,0,1,.1-0.486,0.818,0.818,0,0,0,.1.486,1.806,1.806,0,0,1,0-1.07v0.486h0.774l0.1-.292a0.722,0.722,0,0,1-.194-0.584,3.6,3.6,0,0,1,.484-0.584,9.71,9.71,0,0,1,1.064,0,1.38,1.38,0,0,1,.1.389c-0.17.135-.273,0.068-0.1,0.195,0.687,0.443,2.262.018,3.1,0.292v0.1H37.533c-0.075.066-.216,0.128-0.29,0.195a2.077,2.077,0,0,0,1.354.292,2.756,2.756,0,0,1,1.645-.195h4.547V20.827h0.871v0.584l1.548,0.1a13.07,13.07,0,0,1,.677-2.335,7.942,7.942,0,0,0-.194-2.432,1.217,1.217,0,0,0,.387-0.1c0-.308-0.138-0.182.194-0.292,0.054,0.127,0,.072.1,0.1,0.517-.207.248-0.445,0.58-0.876a0.632,0.632,0,0,0,.1.389,0.472,0.472,0,0,1,.1-0.292c0.04,0.348-.046.245,0.193,0.389,0.279-.287.3-0.269,0.581-0.1V13.043h-0.1a7.8,7.8,0,0,1-.677,2.627,1.082,1.082,0,0,0,0-.681,0.969,0.969,0,0,1-.194.584V15.184c0.118-.154.169-0.432,0.29-0.584a0.472,0.472,0,0,0,.1.292,7.253,7.253,0,0,1,.581-2.724h-0.29c-0.526.327-1.623-.053-2.322,0.1-2.035.437-4.834,0.1-7.062,0.1-8.469,0-16.568-.46-24.764-0.486V12.07c0.516,0.841.389,2.611,0.677,3.7,0.3,1.121.381,2.511,0.774,3.7a11.375,11.375,0,0,1,.774,1.849h-0.1V21.119a1.818,1.818,0,0,1-.387-0.876h-0.1v0.292A1.645,1.645,0,0,1,17.316,21.508Zm-2.031-9.34v2.043h0.193a0.276,0.276,0,0,0,.1.1,0.631,0.631,0,0,1,.1-0.389,1.458,1.458,0,0,0,.29,1.265,4.679,4.679,0,0,0-.387-1.751,0.819,0.819,0,0,1-.1.487A3.926,3.926,0,0,0,15.284,12.168ZM50.4,15.962c0.453-.058.55-0.212,0.967-0.292-0.143-1.11-.873-1.972-1.161-3.016h-0.1v0.194A14.217,14.217,0,0,1,50.4,15.962Zm-0.387-2.141a19.718,19.718,0,0,0,.484,5.157h0.1V18.3C50,17.305,50.625,14.783,50.012,13.822ZM14.8,18.005h0.58a14.064,14.064,0,0,0,.1-3.6h-0.1v0.1a0.658,0.658,0,0,0-.1.389c0.074,0.093.064,0.2,0.193,0.389h-0.29V14.5h-0.1c-0.144.162-.07,0.1-0.194,0.1H14.8V14.5l0.387-.1v-0.1c-0.463-.095-0.793-0.147-1.161-0.195v0.195A14.648,14.648,0,0,1,14.8,18.005Zm35.6-3.795a0.5,0.5,0,0,1,.1.292H50.4V14.211Zm-1.064.1V14.5h0.1A0.334,0.334,0,0,0,49.335,14.308Zm1.451,0.681h0.29v0.584h-0.29V14.989Zm-35.018.292,0.29,2.238a9.088,9.088,0,0,1,.484,1.07h0.1V18.3a12.491,12.491,0,0,1-.677-3.016H15.768ZM51.56,15.67v0.195h0.1A0.334,0.334,0,0,0,51.56,15.67Zm-2.709.389v0.195h0.1V16.06h-0.1Zm1.645,0,0.193,2.14h0.194V18.1a1.294,1.294,0,0,0,.1-0.681C50.5,17.037,50.917,16.348,50.5,16.06Zm-34.825.195a7.385,7.385,0,0,0-.1,1.946,0.492,0.492,0,0,0,.29.1l0.1-.292C15.7,17.572,15.941,16.682,15.671,16.254ZM52.624,17.13a6.382,6.382,0,0,1,.967,1.654H53.4v-0.1A4.15,4.15,0,0,1,52.624,17.13Zm-1.451.389a0.631,0.631,0,0,0,.1.389A0.631,0.631,0,0,0,51.173,17.519Zm-20.121.292a0.466,0.466,0,0,1,.29.1A0.466,0.466,0,0,1,31.052,17.811Zm-0.58.1h0.194v0.1A0.331,0.331,0,0,1,30.472,17.908Zm-13.93,3.6h0.484V21.314c0.39-.626-0.619-2.721-0.774-3.308h-0.1v0.486A10.389,10.389,0,0,1,16.542,21.508Zm34.631-3.5a0.348,0.348,0,0,0,.194.1A0.349,0.349,0,0,0,51.173,18.005Zm6.191,0a0.352,0.352,0,0,1,.1.195h-0.1V18.005ZM15.381,19.27c0.01,1.01-.124,1.832-0.194,2.724a3.374,3.374,0,0,0,.58.195V21.508h0.484a4.363,4.363,0,0,0-.29-2.043c-0.075-.066-0.216-0.128-0.29-0.195h0.29c-0.08-.316.047-0.149-0.194-0.292-0.149.069-.013,0.013-0.29,0v0.195a0.33,0.33,0,0,1,.193.1h-0.29Zm35.5-.292a12.157,12.157,0,0,1,0,1.459h0.194V18.978H50.883Zm-0.484.1a2.316,2.316,0,0,0,.194,1.168A1.2,1.2,0,0,0,50.4,19.076Zm-2.805,2.432a12.359,12.359,0,0,1,.484-2.14h-0.1v0.1a6.384,6.384,0,0,0-.677,2.043h0.29ZM32.6,19.951a0.466,0.466,0,0,1,.29.1A0.466,0.466,0,0,1,32.6,19.951Zm0.29,0.1a0.466,0.466,0,0,1,.29.1A0.466,0.466,0,0,1,32.89,20.049Zm0.29,0.1a0.466,0.466,0,0,1,.29.1A0.466,0.466,0,0,1,33.18,20.146Zm14.51,1.362h0.581l-0.194-1.362h-0.1ZM33.47,20.243a0.957,0.957,0,0,1,.58.195H33.664C33.592,20.353,33.542,20.328,33.47,20.243Zm17.219,0a12.646,12.646,0,0,0,0,1.265h0.194V21.022C50.785,20.863,50.79,20.4,50.689,20.243Zm0.29,0.292a0.472,0.472,0,0,0,.1.292V20.535h-0.1Zm-21.378.1a0.352,0.352,0,0,1,.1.195c-0.277.2-.393,0.487-0.677,0.681V21.314A2.278,2.278,0,0,0,29.6,20.632Zm3,0.973h0.677l0.194-.292h-0.1v-0.1a2.087,2.087,0,0,1-.967-0.584v0.292A1.439,1.439,0,0,1,32.6,21.605Zm1.451-.973a0.352,0.352,0,0,1,.1.195h-0.1V20.632Zm-0.1.195a0.5,0.5,0,0,1,.1.292h-0.1V20.827Zm17.025,0.1v0.195h0.1V20.924h-0.1Zm18.186,0.195a16.4,16.4,0,0,1-3.676.195v0.195h1.451c0.66-.4,2.529-0.007,3.386-0.292v-0.1H69.166Zm-51.27.1H18.09v0.1A0.331,0.331,0,0,1,17.9,21.216Zm58.235,0v0.1h-0.1c-0.186.075,0.193,0.1,0.193,0.1v-0.1h0.1A0.349,0.349,0,0,0,76.131,21.216Zm-12.092.1a0.759,0.759,0,0,0,1.161,0H64.039Zm8.706,0c0.166,0.086.124,0.086,0.29,0h-0.29Zm-11.221.1v0.195h0.871v-0.1h0.1v-0.1H61.524Zm8.319,0c-0.18.111-.692,0.08-0.871,0.195H70.23v-0.1h0.1v-0.1H69.843Zm-12.285.1c0.053,0.31,1.108.214,1.741,0.195v-0.1h0.1v-0.1H57.557Zm9.964,0c-0.083.063-.3,0.13-0.387,0.195a2.02,2.02,0,0,0,1.258-.195A5.473,5.473,0,0,1,67.521,21.508Zm1.064,0a0.349,0.349,0,0,0,.194.1A0.349,0.349,0,0,0,68.585,21.508Zm-22.926.1V21.8h0.194c0.1-.067.387-0.125,0.484-0.195H45.659Zm5.03,0V21.8h0.1V21.7h0.1A0.349,0.349,0,0,0,50.689,21.605Zm14.22,0c-0.18.111-.692,0.08-0.871,0.195a1.178,1.178,0,0,0,1.064-.195H64.909Zm0.484,0a0.348,0.348,0,0,0,.194.1A0.349,0.349,0,0,0,65.393,21.605Zm0.29,0a1.733,1.733,0,0,0,1.258,0H65.683Zm-4.063.1c-0.1.067-.387,0.125-0.484,0.195A1.363,1.363,0,0,0,62.3,21.7H61.62Zm-4.063.1a0.349,0.349,0,0,0,.194.1A0.348,0.348,0,0,0,57.557,21.8Zm0.677,0a0.349,0.349,0,0,0,.193.1A0.348,0.348,0,0,0,58.235,21.8Zm0.387,0a2.163,2.163,0,0,0,1.451,0H58.622Zm-57.944.1a0.352,0.352,0,0,1,.1.195h-0.1V21.9Zm33.47,0a1.118,1.118,0,0,1-.29.195v0.195h0.387V22.092h-0.1l0.1-.195h-0.1Zm11.511,0a0.349,0.349,0,0,0,.194.1A0.348,0.348,0,0,0,45.659,21.9Zm5.127,0v0.195h0.1A0.334,0.334,0,0,0,50.786,21.9Zm-32.89.1a1.126,1.126,0,0,0-.194.681c-0.12.152-.062,0.05,0,0.195,0.083,0.063.3,0.13,0.387,0.195-0.346.04-.243-0.046-0.387,0.195a0.622,0.622,0,0,1,.387.1,1.245,1.245,0,0,0-.677.1c0.293,0,2.422-.134,2.515-0.195a4.2,4.2,0,0,1-1.644-.292,0.5,0.5,0,0,1-.1-0.292,2.157,2.157,0,0,1,.29-0.681H17.9Zm0.967,0a0.281,0.281,0,0,0,.387,0H18.863Zm0.484,0a3.563,3.563,0,0,0,2.031,0H19.347Zm2.515,1.07c0.08,0.316-.047.149,0.193,0.292,0.327-.2,2.16-0.066,2.709-0.195-0.053-.187-0.159-0.083,0-0.195a1.24,1.24,0,0,1,.1-0.389h0.29v0.389h0.29V22.189H25.248a10.018,10.018,0,0,0-3.773-.1,9.425,9.425,0,0,0,2.9,0v0.195a2.87,2.87,0,0,0-1.258.195v0.1a1.559,1.559,0,0,1,1.258.195C23.272,22.77,23,23.057,21.862,23.065ZM41.693,23.26V22.968H41.016v0.195a4.182,4.182,0,0,1-2.128-.195,1.7,1.7,0,0,1,.1-0.973h-0.29v0.195a0.586,0.586,0,0,0,.1.778,0.991,0.991,0,0,0-.194.292h3.1Zm-1.935-1.265a0.348,0.348,0,0,0,.193.1A0.348,0.348,0,0,0,39.758,21.995Zm0.29,0a3.562,3.562,0,0,0,2.031,0H40.048Zm5.514,0.1c-0.726-.062-2.734-0.419-3.386,0,0.74-.016,2.383-0.239,2.9.1a5.083,5.083,0,0,0-1.451.292v0.1a3.445,3.445,0,0,1,1.451.1,10.332,10.332,0,0,0-2.612.486h0.1a4.953,4.953,0,0,0,1.935.1,3.684,3.684,0,0,0,.677-0.195,2.024,2.024,0,0,1-.967-0.1h1.064a1.752,1.752,0,0,1,.29-0.389V22.092Zm-44.788,0a0.352,0.352,0,0,1,.1.195h-0.1V22.092Zm34.438,0.486V22.287H35.018a1.89,1.89,0,0,0-.387-0.195v0.195A1.129,1.129,0,0,0,35.212,22.578Zm-18.573-.292,0.1,0.681h0.1c0.182-.084.072-0.046,0.29,0a0.631,0.631,0,0,1,.1-0.389,0.632,0.632,0,0,0,.1.389l0.1-.681h-0.1v-0.1A2.071,2.071,0,0,1,16.639,22.287Zm0.871-.1v0.195h0.1V22.189h-0.1Zm20.8,0.1v0.195h0.1A0.334,0.334,0,0,0,38.307,22.287Zm-37.34.1a0.351,0.351,0,0,1,.1.195h-0.1V22.384Zm2.322,0c0.08,0.316-.047.149,0.193,0.292V22.384H3.289Zm13.059,0a1.792,1.792,0,0,0-.1.584h0.194A1.031,1.031,0,0,0,16.348,22.384Zm-15.284.195a0.351,0.351,0,0,1,.1.195h-0.1V22.578Zm0.1,0.195a0.351,0.351,0,0,1,.1.195h-0.1V22.773Zm16.251,0v0.195h0.1A0.333,0.333,0,0,0,17.412,22.773Zm-14.9.195v0.195h0.1A0.334,0.334,0,0,0,2.515,22.968Zm-1.161.1a0.351,0.351,0,0,1,.1.195h-0.1V23.065Zm0.58,0,0.1,0.292h0.1V23.065H1.935Zm0.29,0V23.26H2.418V23.065H2.225Zm13.93,0a0.374,0.374,0,0,0,.29.195V23.065h-0.29Zm0.58,0V23.26h0.1A0.333,0.333,0,0,0,16.735,23.065Zm0.29,0V23.26h0.1A0.333,0.333,0,0,0,17.025,23.065Zm0.387,0V23.26C17.568,23.144,17.531,23.219,17.412,23.065Zm2.9,0V23.26a1.936,1.936,0,0,1,.677.1V23.162h0.1v-0.1H20.314Zm4.74,0V23.26c0.346-.041.243,0.046,0.387-0.195H25.054Zm-22.733.292c0.166,0.086.124,0.086,0.29,0H2.322Zm5.03,0c0.166,0.086.124,0.086,0.29,0H7.352Zm1.354,0a2.614,2.614,0,0,0,1.645,0H8.706Zm2.031,0a1.145,1.145,0,0,0,.967,0H10.738Zm5.417,0c0.166,0.086.124,0.086,0.29,0h-0.29Zm0.871,0a0.349,0.349,0,0,0,.194.1A0.348,0.348,0,0,0,17.025,23.357Zm-15.091.486a0.347,0.347,0,0,0,.193.1A0.349,0.349,0,0,0,1.935,23.843Zm-0.1.195v0.389h0.1C1.933,24.082,2.075,24.258,1.838,24.038Zm3.289,3.405H5.514V26.47a2.066,2.066,0,0,0-.677-0.1c-0.451-.065-0.9.64-1.161,1.07l0.677,0.1a0.276,0.276,0,0,1,.1-0.1,2.148,2.148,0,0,1,.193-0.973H4.837a1.021,1.021,0,0,1,.193.584A0.659,0.659,0,0,1,5.127,27.443ZM5.8,26.47v0.973c0.918,0.029,4.039.258,4.74-.195C8.993,27.156,7.433,26.61,5.8,26.47ZM3,28.027H3.386a0.472,0.472,0,0,0-.1-0.292c-0.182.084-.071,0.046-0.29,0v0.292Z" transform="translate(0 0.016)"/>
</svg>
