<svg xmlns="http://www.w3.org/2000/svg" width="80" height="40" viewBox="0 0 80 40">
  <defs>
    <style>
      .cls-1 {
        fill: #fff;
        fill-rule: evenodd;
      }
    </style>
  </defs>
  <path id="it_destroyer_dardo_ico" class="cls-1" d="M50.341,10h0.1a0.584,0.584,0,0,1,0,.253V10.3h-0.05V10.1A0.184,0.184,0,0,1,50.341,10Zm0.248,1.114a1.476,1.476,0,0,0,.347-0.051,0.581,0.581,0,0,1,0,.253,1.823,1.823,0,0,0-.248.1,13.819,13.819,0,0,1,.2,1.772c0.213-.037.183-0.185,0.248-0.051l0.1,0.051v0.051a1.412,1.412,0,0,0-.3.1c0.133,0.522.19,1.441,0.347,2.076a1.508,1.508,0,0,0,.2.911V15.418c0.275-.192-0.221-0.874,0-1.266v0.456h0.2a0.94,0.94,0,0,1,.05-0.456v0.456h0.5a1.574,1.574,0,0,0-.05-0.354h-0.1s-0.01.2-.05,0.1v-0.1a0.662,0.662,0,0,1-.347-0.506,1.169,1.169,0,0,0,.347-0.456,0.726,0.726,0,0,0,.744,0c0,0.3-.055.445,0.2,0.506l-0.1.051c-0.066.106-.073,0.384-0.149,0.506-0.073-.128-0.062-0.092-0.248-0.1l0.05,0.354c0.314,0,.394-0.009.645,0V14.557h0.05a0.8,0.8,0,0,1,.05-0.405,0.767,0.767,0,0,0,.149.658,0.248,0.248,0,0,1,.05-0.152,0.3,0.3,0,0,0,.1.2H53.317a0.739,0.739,0,0,0,.05.253H53.118v0.253h0.5v0.1a0.609,0.609,0,0,0-.149.3h0.546V15.519l0.2-.051c-0.005.338,0.151,0.326,0.6,0.3v0.1a1.253,1.253,0,0,0-.05.557H54.9a0.333,0.333,0,0,1,.05-0.2v0.2a0.237,0.237,0,0,1,.149.051H54.755v0.2H54.309c-0.051.065-.212,0.1-0.248,0.152v1.317H55.9V17.747H55.549V16.582a1.8,1.8,0,0,1,.546-0.051,0.77,0.77,0,0,1-.1-0.405,0.215,0.215,0,0,0,.1-0.2h0.248a0.769,0.769,0,0,1,.1.405,0.215,0.215,0,0,0-.1.2,0.237,0.237,0,0,1,.149.051,0.815,0.815,0,0,1,.05.405c0.258-.037.266-0.127,0.546-0.152V16.582h0.1l0.446-.152v0.1a1.637,1.637,0,0,0-.2.3,9.218,9.218,0,0,1,1.587.456v0.861h0.6v-0.1a0.367,0.367,0,0,1-.149-0.354,0.5,0.5,0,0,1,.5-0.253,0.619,0.619,0,0,1,.2.456c-0.1,0-.014-0.052-0.1,0a0.184,0.184,0,0,1,.05.1,0.163,0.163,0,0,0-.149,0c0.068,0.155-.007.147,0.3,0.152q0.025,1.671.05,3.342l0.149,0.051v0.1L60.31,21.7V22.3a0.621,0.621,0,0,1,.2.051l-0.05.152h0.6a2.735,2.735,0,0,1,1.339-.051,2.005,2.005,0,0,1,.05-0.81v0.81h0.149l0.05-.608a0.513,0.513,0,0,1,.3-0.1,0.143,0.143,0,0,1,.05-0.051V22a0.519,0.519,0,0,0-.1.456h0.248c0-.807-0.075-1.663-0.1-2.329h0.3c-0.016.708-.048,1.547-0.05,2.329h0.2a11.885,11.885,0,0,1,.1-2.177h0.347v0.2h0.1a5.041,5.041,0,0,0,.843.152c0.109,0.041.231,0.212,0.347,0.253a17.267,17.267,0,0,0,3.621.1v0.253c-0.7-.016-2.9-0.115-3.125.253,0.306,0.063.414,0.146,0.4,0.557L66.51,22a0.8,0.8,0,0,1,.1-0.405,0.168,0.168,0,0,1-.1-0.051,2.019,2.019,0,0,1,.893,0,2.729,2.729,0,0,1,.149.253,2.134,2.134,0,0,1,.347-0.152q-0.025.354-.05,0.709l0.4-.051A0.715,0.715,0,0,0,68.1,21.9l1.19,0.051a0.8,0.8,0,0,1,.05-0.405v0.405l1.091-.051a0.738,0.738,0,0,1,.05-0.658c0.007,0.191-.023.178,0.1,0.253a2.006,2.006,0,0,1,.05-0.81V21.9h0.05V21.848a0.457,0.457,0,0,1,.248-0.253,0.251,0.251,0,0,1,.149-0.051,5.533,5.533,0,0,1-.1.709h0.4a0.571,0.571,0,0,1,.149-0.1,1.938,1.938,0,0,1,0-.506,0.823,0.823,0,0,1,.4-0.152c0,0.144-.039.02,0.05,0.152h0.1a0.332,0.332,0,0,1,.05-0.2,1.413,1.413,0,0,0,.05.456c0.365,0.018.766,0.04,1.141,0.051a0.877,0.877,0,0,0-.05-0.3,4.43,4.43,0,0,0,.645-0.152,1.487,1.487,0,0,1-.1.456c0.083,0,.645-0.1.645-0.1a2.01,2.01,0,0,1,.248.253,9.029,9.029,0,0,0,1.29-.051V21.443a2.342,2.342,0,0,0,.05-0.911h0.1v0.1a3.929,3.929,0,0,0-.05,1.418h1.29A0.141,0.141,0,0,1,77.421,22a1.692,1.692,0,0,1,.05-0.709V22c0.192-.01.382-0.129,0.4-0.1,0.1,0.075-.028.072,0.149,0.1l0.05-.152a0.4,0.4,0,0,0,.3.152,2.124,2.124,0,0,0,.05-0.608,2.563,2.563,0,0,0,.1-0.962h0.1v0.051a4.085,4.085,0,0,0-.05,1.468l0.546-.051a10.468,10.468,0,0,1,.645-1.266c0.163-.441-0.163-2.206,0-2.38V18.2L79.9,18.253a18.381,18.381,0,0,0-.05,3.544H80a2.976,2.976,0,0,1-.5,1.266c-0.215.5-.381,1.068-0.546,1.57a46.91,46.91,0,0,0-.992,5.266H75.636a3.964,3.964,0,0,1-1.438.051H56.64c-13,0-26.2-.051-39.281-0.051H12.746c-0.822-.232-1.665-0.724-2.529-0.962l-1.736.051a38.371,38.371,0,0,0-4.513.253v0.709L3.571,30V29.9a2.635,2.635,0,0,1-.05-0.658,1.309,1.309,0,0,1-.645-0.354,0.581,0.581,0,0,0,.6-0.608,1.1,1.1,0,0,1,0-.355,1.852,1.852,0,0,1,.2-0.253h-0.1a2.371,2.371,0,0,0-.992-0.152,1.825,1.825,0,0,0-.347.557,0.467,0.467,0,0,1,.446.2,2.315,2.315,0,0,1-.3,1.519,1.555,1.555,0,0,1-.843.1A2.437,2.437,0,0,1,.1,29.747a5.6,5.6,0,0,1,.1-2.278H0.843a0.536,0.536,0,0,0,.6-0.051h0.05V27.367L0.2,27.215c0.012-.905.782-2.172,0.694-2.785A0.514,0.514,0,0,1,.6,24.38a0.277,0.277,0,0,0,.149-0.2,0.169,0.169,0,0,1-.1-0.051h0.2a6.953,6.953,0,0,0-.2-1.519,13.258,13.258,0,0,0-.2-1.468h0.2V21.19a2.085,2.085,0,0,0,.2,1.266c0.069,0.076-.09.045-0.1,0.051l0.05,0.608a3.417,3.417,0,0,0,.794.962,2.321,2.321,0,0,1,.05-0.911,7.325,7.325,0,0,0,.2,1.418,1.728,1.728,0,0,0,.794.1,1.113,1.113,0,0,0-.1-0.354h0.4a0.567,0.567,0,0,0,0,.354H3.174a2.007,2.007,0,0,1,.05-0.81v0.456H3.571V24.38a0.379,0.379,0,0,0-.1.3l0.893-.051a1.85,1.85,0,0,1,.05-0.759v0.759h0.3v-0.2H4.96v0.2H5.208v-0.2h0.3a3.745,3.745,0,0,1,.05-1.367l0.1,1.62h0.2c0-.341.076-0.246,0.2-0.4A0.29,0.29,0,0,0,6,24.025H6.4v0.051c-0.125.074-.077,0.022-0.1,0.2a1.631,1.631,0,0,1,.446.2,1.386,1.386,0,0,1,.05-0.608v0.81h0.6V24.532H7.44a2.424,2.424,0,0,0,.546-0.051,1.386,1.386,0,0,1,.05-0.608,0.729,0.729,0,0,0,.1.608,7.673,7.673,0,0,1,.4-2.127v2.329H8.779a7.211,7.211,0,0,1,.1-1.671,1.4,1.4,0,0,1,.992-0.354v0.051h0.05V22.76H9.87V22.81a0.579,0.579,0,0,0-.794.3c0.252,0.018.161,0.57,0.149,0.962a1.4,1.4,0,0,1,.05.608H9.523a0.727,0.727,0,0,0,.05-0.2,0.559,0.559,0,0,1-.05-0.3c0.173,0,.165-0.006.149-0.3a0.288,0.288,0,0,1,0-.2h0.347v0.1a0.664,0.664,0,0,0,.1.456,0.591,0.591,0,0,1,.4-0.354,1.817,1.817,0,0,1,.2.253,0.506,0.506,0,0,1,0,.405l-0.248.1v0.051h1.091a11.2,11.2,0,0,1,0-1.57,0.9,0.9,0,0,1-.2-0.152h-0.3V22.1a1.049,1.049,0,0,1,.347-0.051c0.386-.226,1.436.287,1.686-0.2H12.746a1.037,1.037,0,0,0-.744-0.1H9.919V21.494a8.913,8.913,0,0,0,2.827-.1H13.49c0.176-.058.344-0.246,0.546-0.3,0.321-.091.622-0.052,0.893-0.152,0-.169-0.034-0.159.248-0.152,0.072,0.129-.011.057,0.149,0.1v1.165h1.637l0.05-.608h0.149a0.99,0.99,0,0,1,0,.456c0.037,0.044.062,0.057,0.1,0.1a0.169,0.169,0,0,0,.1-0.051,0.627,0.627,0,0,0,.1-0.557,4.008,4.008,0,0,1-.1-0.962c-0.188-.8-0.074-3.076-0.744-3.139V17.241h0.4l-0.1-.861a9.654,9.654,0,0,1-1.339-1.721h0.05a5.962,5.962,0,0,0,1.24,1.418V15.671a4.4,4.4,0,0,1-.1-0.962c-0.193-.736-0.111-2.523-0.446-3.544-0.04-.122.053-0.5,0-0.658h0.149c0,0.456.049,0.525,0.05,0.911l0.4-.051v0.1a0.287,0.287,0,0,0,0,.2h-0.1a0.573,0.573,0,0,0-.149-0.1,0.284,0.284,0,0,1,0,.2l-0.1-.051v0.051a15.986,15.986,0,0,1,.2,2.127,0.855,0.855,0,0,0,.2.354c0.07,0.077-.091.044-0.1,0.051l0.05,0.709c0.17,0.763.066,1.611,0.248,2.43,0.132,0.594.054,1.27,0.2,1.924a14.983,14.983,0,0,1,.3,2.683H18a2.6,2.6,0,0,1,.149-0.608,0.6,0.6,0,0,1,.2.557,2.5,2.5,0,0,1,.446.1,2.183,2.183,0,0,0-.05.861,1.948,1.948,0,0,0-.893.2,1.1,1.1,0,0,0-.05.506,0.261,0.261,0,0,1,.05.152l0.3,0.051a1.54,1.54,0,0,1,.05-0.658,7.051,7.051,0,0,1,0,1.468h0.2l-0.05-.4H18.6l-0.05.4H18.7v-1.62h0.05c0.028,0.066,0,.037.05,0.051a2.176,2.176,0,0,1,1.339-.2v0.2a1.4,1.4,0,0,0,.446,0,0.313,0.313,0,0,1,.2-0.152,1.479,1.479,0,0,0,.546.152,0.653,0.653,0,0,0-.05-0.2h0.4v0.051h-0.1v0.1h0.05a0.25,0.25,0,0,0,.149.051,2.46,2.46,0,0,1,.149-0.557,0.25,0.25,0,0,1,.149-0.051c0.038,0.235-.044.238,0.248,0.253V22.608h0.2c0.059,0.134-.044.091,0.1,0.152a0.577,0.577,0,0,1,.149-0.1v0.253a0.347,0.347,0,0,0-.05.2c1.194,0,2.083,0,3.273,0v0.1H25.443a2.663,2.663,0,0,1-1.042.1V24.43a4.371,4.371,0,0,1,.843.051v-0.2h0.05a1.038,1.038,0,0,0,.5.051,0.942,0.942,0,0,1,.05-0.456,0.249,0.249,0,0,0,.05.152V23.975c0.1-.108.2-0.244,0.3-0.354h0.2V22.658h-0.2a3.52,3.52,0,0,0,.05-0.962,0.716,0.716,0,0,1-.3-0.2c0.122-.066.034,0.022,0.1-0.1a1.9,1.9,0,0,1-.248-1.114c0.424-.3,1.773-0.743,1.934.152a5.626,5.626,0,0,0-.248,1.063l0.149-.051c0.009,0.231,0,.255.2,0.3a5.638,5.638,0,0,1,2.133-.1v0.1H29.808a0.369,0.369,0,0,0,.149.354,0.517,0.517,0,0,0-.1.557c-0.187.007-.174-0.024-0.248,0.1a0.345,0.345,0,0,0-.1.253,0.388,0.388,0,0,0,.248.1,0.259,0.259,0,0,1,.149-0.3,3.484,3.484,0,0,0,.645.152l-0.05.1h0.05a0.25,0.25,0,0,0,.149.051,1.375,1.375,0,0,0,.347,0,0.391,0.391,0,0,1,.1-0.152,0.814,0.814,0,0,0,.6.152,0.653,0.653,0,0,0-.05-0.2h0.149a0.25,0.25,0,0,0,.149.051v0.152h0.149v-0.1a0.631,0.631,0,0,0,.149-0.506,0.237,0.237,0,0,1,.149.051,0.71,0.71,0,0,1,.049.253,0.692,0.692,0,0,1,.2-0.051V22.608a0.365,0.365,0,0,1,.446.354c-0.069.011,0.02-.042-0.05-0.051-0.038-.1-0.05.1-0.05,0.1a2.305,2.305,0,0,0,1.042.1H36.4v0.1H35.958a2.866,2.866,0,0,1-.694.051,11,11,0,0,1-2.182.2v0.354c-0.1,0-.014-0.052-0.1,0a0.564,0.564,0,0,1,0,.253,0.879,0.879,0,0,0,.794.253c-0.016-.379.03-0.568,0.3-0.658a0.328,0.328,0,0,1,.2-0.051v0.557H34.123c0.028,0.194.026,0.257,0.347,0.253a0.25,0.25,0,0,1,.149-0.051v-0.2h1.686v-0.3h-0.1c-0.085.016-.083,0.087-0.149-0.051a0.365,0.365,0,0,1-.1-0.2A2.195,2.195,0,0,1,36.6,23.57a3.528,3.528,0,0,0,1.091.1V22.709a1.305,1.305,0,0,0,.1-0.861,4.67,4.67,0,0,0,.893,0c0.515,0.019,1.986.008,2.777,0,0.492,0,1.148.051,1.488,0A0.248,0.248,0,0,0,43,22a11.3,11.3,0,0,1,1.339-1.266,1.1,1.1,0,0,0,.744.1v-0.3a1.173,1.173,0,0,0,.4-0.506,4.232,4.232,0,0,1-.149-1.063,13.853,13.853,0,0,0-.5-2.43c0.429-.053.638-0.543,1.041-0.456V16.025a0.2,0.2,0,0,1,.1-0.051,0.713,0.713,0,0,1,.546-0.1V15.823a0.2,0.2,0,0,1,.1-0.051,2.651,2.651,0,0,1,1.041-.051l-0.05.1h0.05a0.329,0.329,0,0,1,.2-0.051l-0.05.1h0.05a0.432,0.432,0,0,1,.347,0l-0.05.1h0.05a0.329,0.329,0,0,1,.2-0.051,7.589,7.589,0,0,1-.149-0.911h0.149a1.755,1.755,0,0,0,.149.152,2.183,2.183,0,0,0,.05,1.266c0.239,0.747.27,1.9,0.5,2.785,0.108,0.426,0,1.049.347,1.215h0.546V19.975h0.1v0.1a0.558,0.558,0,0,0-.05.3,2,2,0,0,0,.6.051,0.142,0.142,0,0,1,.05-0.051,2.718,2.718,0,0,1,.1-0.405c-0.168-.086-0.221-0.077-0.248-0.253a2.471,2.471,0,0,0,.248-1.57h0.3a2.616,2.616,0,0,0,0-.405L51.333,17.8v0.1a0.262,0.262,0,0,0-.05.152h0.2l-0.347-2.785a5.589,5.589,0,0,1-.2-1.468c-0.069-.01.02,0.042-0.05,0.051-0.038.1-.05-0.1-0.05-0.1a0.639,0.639,0,0,0-.1-0.557,0.989,0.989,0,0,0-.05-0.709l-0.05-.709a0.687,0.687,0,0,0-.149-0.1c-0.059-.136.112-0.055,0.1-0.2a2.2,2.2,0,0,1-.1-1.114Zm-33.875.962a0.514,0.514,0,0,1,.3.051,0.287,0.287,0,0,1-.2,0A0.169,0.169,0,0,1,16.714,12.076Zm34.321,0.861a0.237,0.237,0,0,1,.149.051A0.237,0.237,0,0,1,51.035,12.937Zm-35.66,1.468a0.3,0.3,0,0,1,.2.253h-0.05V14.608h-0.05A0.767,0.767,0,0,1,15.375,14.405ZM50.49,19.873a0.184,0.184,0,0,1,.05.1H50.49v-0.1Zm19.045,0.658a0.2,0.2,0,0,1,.1.152h-0.05V20.633A0.184,0.184,0,0,1,69.535,20.532Zm0.4,0.456a0.2,0.2,0,0,1,.1.152h-0.05V21.089A0.184,0.184,0,0,1,69.932,20.987ZM9.82,22.861a0.184,0.184,0,0,1,.05.1H9.82v-0.1Zm21.624,0.1h0.1v0.051A0.169,0.169,0,0,1,31.445,22.962Zm-29.907.1a0.184,0.184,0,0,1,.05.1H1.538v-0.1Zm8.283,0a0.207,0.207,0,0,1,0,.253V23.063Zm-0.05.253,0.149,0.051v0.051H9.771v-0.1Zm25.84,0.557a0.185,0.185,0,0,1,.05.1h-0.05v-0.1Z"/>
</svg>
