<svg xmlns="http://www.w3.org/2000/svg" width="40" height="40" viewBox="0 0 40 40">
  <defs>
    <style>
      .cls-1 {
        fill: #fff;
        fill-rule: evenodd;
      }
    </style>
  </defs>
  <path id="Color_Fill_1" data-name="Color Fill 1" class="cls-1" d="M26.812,11a7.33,7.33,0,0,0,1.015,0c-0.028.637,0.036,0.637,0.676,0.617,0.2-.121.638,0.076,0.87-0.047a5.49,5.49,0,0,1,1.932-.237V11h0.242v0.285a2.879,2.879,0,0,0,.821.095,2.391,2.391,0,0,0,.821.1v0.143a9.236,9.236,0,0,1,3.044.522A2.707,2.707,0,0,1,37,13.422a2.11,2.11,0,0,0,.29.807h0.58a2.6,2.6,0,0,0,1.353,0,2.337,2.337,0,0,1-.048,1.425,0.249,0.249,0,0,1-.145.047l-0.048-.142a1.273,1.273,0,0,1,.1-1.092l-1.739-.143V14.42c0.507,0.191.17,0.453,0.29,0.855a18.383,18.383,0,0,0,.676,1.71,1.778,1.778,0,0,1,.435.142V17.079a0.283,0.283,0,0,1-.193-0.238H38.7a0.175,0.175,0,0,0,.1.047c0.077,0.256.172,0.586,0.242,0.9l-0.048,1.33q0.121,1.638.242,3.277a0.529,0.529,0,0,1,.628.332,1.7,1.7,0,0,1,.145.76H39.9V23.443c-0.112-.173-0.069-0.507-0.193-0.665a0.33,0.33,0,0,1-.193.047,0.429,0.429,0,0,0,.145.19v1.092c-0.9,0-1.4.048-2.222,0.047v0.475a3.308,3.308,0,0,1-1.449.142,0.857,0.857,0,0,1-.145-0.238H35.8c-0.043.346-.206,0.539-0.242,0.9H34.734v0.047a2.525,2.525,0,0,1-.29,1.567,3.258,3.258,0,0,1-2.512,1.852,2.707,2.707,0,0,1-.966.047,3.4,3.4,0,0,1-2.85-3.04H27.681a2.378,2.378,0,0,0-.918-0.047,0.606,0.606,0,0,1-.048.332v-0.38a7.842,7.842,0,0,1-2.657-.237,10.091,10.091,0,0,0-1.159-.047v0.047a0.24,0.24,0,0,1,.048.142c-0.4-.009-0.489-0.135-0.918-0.142v0.142a1.074,1.074,0,0,1-.87.427,0.862,0.862,0,0,0-.821-0.332V25.533H19.807a0.491,0.491,0,0,1-.1-0.285c0.123-.07.1-0.1,0.1-0.285a4.606,4.606,0,0,0-1.208-.047,1.17,1.17,0,0,1-1.015.19,0.835,0.835,0,0,0-.241-0.19,5.146,5.146,0,0,0-.966.285c-0.782.229-1.544,0.356-2.319,0.522a3.223,3.223,0,0,1-2.8,3.23,2.753,2.753,0,0,1-.966-0.047,3.177,3.177,0,0,1-2.609-2.042A2.608,2.608,0,0,1,7.488,25.2H7.15a7.592,7.592,0,0,1-1.787,0,2.513,2.513,0,0,1-.338-0.38H0.531A1.117,1.117,0,0,1,.58,24.3c0.04,0.154-.024.072,0.1,0.142V24.3a0.171,0.171,0,0,1-.048-0.1H0.048V23.016a1.812,1.812,0,0,1,.386-0.142,3.94,3.94,0,0,1,0-.9h-0.1C0.143,21.859-.017,21.969,0,21.5H0.193a0.557,0.557,0,0,1,.1-0.285s0.063,0.137.1,0.1V21.259a0.316,0.316,0,0,0,.048-0.19,0.529,0.529,0,0,1-.242-0.238c-0.042.035-.055,0.06-0.1,0.1v-0.19a5.9,5.9,0,0,0,.145-0.617H0.1V19.834a0.236,0.236,0,0,0,.145-0.047A7.3,7.3,0,0,0,.29,17.934,0.28,0.28,0,0,1,.242,17.6h-0.1V17.7a1.057,1.057,0,0,0,.048.617H0.1V18.077a0.816,0.816,0,0,1,0-.712c0.118-.1.07,0.058,0.145-0.095-0.045-.09-0.018-0.056,0-0.19H1.014a1.519,1.519,0,0,1,.145-0.332L1.4,16.7V15.892H6.763V15.844A1.5,1.5,0,0,1,6.522,15.7c0.126-.084.065-0.079,0.048-0.285H6.522V15.369l-0.145.047V15.132H6.618a1.072,1.072,0,0,1,1.063-.522,0.136,0.136,0,0,0,.048.047V14.8H8.068l-0.048-.617H8.357v-0.1a0.423,0.423,0,0,1-.145-0.428,0.819,0.819,0,0,1,.725-0.19l-0.048-.332c0.446,0.1,1.166-.713,1.739-0.855a1.981,1.981,0,0,0,1.015-.143,4.938,4.938,0,0,0,.048-0.57,2.529,2.529,0,0,1,.966-0.048,1.33,1.33,0,0,0,.145.523c-0.121-.008-0.106.012-0.145,0.19h0.1V12.187a0.37,0.37,0,0,1,.145-0.142,0.528,0.528,0,0,1,.242,0c0.122,0.07.075,0.021,0.1,0.19-0.15.058-.109,0.018-0.145,0.19a1.5,1.5,0,0,0-.338,0,0.647,0.647,0,0,0-.1.522L12.8,12.9c0,0.651.961,0.453,1.594,0.428a1.338,1.338,0,0,0,.773.1,8.665,8.665,0,0,0,1.5.047c0.908,0,1.675.011,2.512,0v0.237l-3.913.047v0.1H14.783a0.228,0.228,0,0,1-.048.143V13.85a6.359,6.359,0,0,0-.773,0,0.522,0.522,0,0,1-.1.143,0.162,0.162,0,0,0,.048.095,2.3,2.3,0,0,0,1.691.19v0.1H14.589V14.42h0.048c0.667,0.647.348,0.738,1.739,0.712a1.9,1.9,0,0,0,.773,0v0.238H15.411v0.095a5.275,5.275,0,0,0,.338.427h7.1V15.749h0.918V15.7h0.048a0.573,0.573,0,0,1,.1-0.522,1.116,1.116,0,0,0,.048.522c0.231,0.137.76,0.01,0.966,0.143a0.573,0.573,0,0,1,.1-0.522v0.1a8.8,8.8,0,0,0,.1,1.662h0.773c0.081,0.157.02,0.2,0.193,0.237a2.117,2.117,0,0,1-.048,1H25.99v-0.19a0.824,0.824,0,0,0,.048-0.427c-0.062-.117.021-0.032-0.1-0.095,0.026,0.225-.048.563-0.048,0.95l0.048,2.422c-0.365.191-.3,0.233-0.29,0.855a0.727,0.727,0,0,1,.483.285,0.593,0.593,0,0,1,.048-0.19,1.586,1.586,0,0,1,.193.19V16.6a2.806,2.806,0,0,1,0-1c-0.027-.593-0.007-1.493,0-2.232H26.329v0.047c-0.037.091-.048-0.1-0.048-0.1a0.422,0.422,0,0,0,0-.38,5.332,5.332,0,0,0,.531-1.14,0.352,0.352,0,0,1-.048-0.475,0.162,0.162,0,0,0,.048.095V11ZM8.7,13.28c0.119,0.062.033-.02,0.1,0.1L8.6,13.422Zm17.536,0.143a0.171,0.171,0,0,1,.048.095H26.232V13.422Zm-17.826.332a0.227,0.227,0,0,0,.048.143,0.33,0.33,0,0,0,.193.047V13.9H8.7V13.755H8.406Zm5.024,0.1a0.245,0.245,0,0,0,.242.095l0.1-.047V13.85H13.43Zm1.691,0.095a0.171,0.171,0,0,1,.048.1H15.121v-0.1Zm-0.628.1a0.316,0.316,0,0,1,.193.047A0.316,0.316,0,0,1,14.493,14.04Zm0.676,0a0.316,0.316,0,0,1,.193.047A0.316,0.316,0,0,1,15.169,14.04Zm-1.4.047a4.187,4.187,0,0,0,.048,1.045A1.622,1.622,0,0,0,13.768,14.087Zm0.483,0h0.1v0.048H14.3v0.047A0.171,0.171,0,0,1,14.251,14.087Zm1.256,0h0.1v0.048A0.167,0.167,0,0,1,15.507,14.087Zm0.1,0.1a0.171,0.171,0,0,1,.048.095H15.6V14.182ZM13.14,14.7v0.1h0.048A0.162,0.162,0,0,0,13.14,14.7Zm13.14,0.522a0.171,0.171,0,0,1,.048.095H26.28V15.227Zm-18.6.047a0.676,0.676,0,0,0,.531.1v-0.1H7.681Zm6.039,0.143a1.836,1.836,0,0,0,.1.332V15.417h-0.1Zm-0.918.1a2.223,2.223,0,0,1-.29.38h0.145a1.1,1.1,0,0,1,.29-0.332V15.512H12.8Zm-4.976.38V15.749A0.41,0.41,0,0,0,8.068,15.7H7.633l-0.145.19H7.826ZM12.8,16.034V16.7h0.1a0.649,0.649,0,0,0,.338.047V16.034H12.8Zm0.676,0V16.7h0.1A0.951,0.951,0,0,0,13.478,16.034Zm-11.884.712H5.169A6.734,6.734,0,0,0,6.86,16.7a0.29,0.29,0,0,1-.1-0.19l-3.527.047a6.556,6.556,0,0,1-1.643-.047v0.238Zm10.387-.238c-0.019.108-.044,0.052,0,0.143V16.7h0.1a0.713,0.713,0,0,0,.1-0.19H11.981Zm0.628,0.238V16.509H12.416a0.855,0.855,0,0,0-.145.238h0.338Zm9.855,0V16.509H22.416a4.435,4.435,0,0,1-1.546.047H17.73a5.925,5.925,0,0,1-1.5-.047V16.6a3.786,3.786,0,0,0,1.739.143h4.493Zm0.193-.238-0.048.143h0.048C22.711,16.52,22.754,16.615,22.657,16.509Zm16.087,0.665v0.1h0.048A0.162,0.162,0,0,0,38.744,17.174Zm-38.6,3.752a0.2,0.2,0,0,1,.048.285ZM0.87,21.069a0.429,0.429,0,0,0,0,.285H0.918a0.974,0.974,0,0,0,.435-0.238H1.3V21.069A0.667,0.667,0,0,1,.87,21.069Zm5.121,0c0.022,0.281,1.094.034,1.3,0.38,0.118,0.191-.023.665,0.1,0.855l0.1-1.235H7.44A4.2,4.2,0,0,1,5.99,21.069Zm2.077,0a1.512,1.512,0,0,0,.29.617,2.274,2.274,0,0,1,1.063-.57V21.069A5.469,5.469,0,0,1,8.068,21.069Zm4.01,0a10.023,10.023,0,0,0,1.015.475,0.882,0.882,0,0,0,.193-0.475H13.237A2.378,2.378,0,0,1,12.077,21.069Zm1.884,0a0.949,0.949,0,0,0,.29.57V21.591a1.132,1.132,0,0,1-.048-0.522A0.384,0.384,0,0,1,13.961,21.069Zm1.981,0v0.095c0.166,0.028.2,0.1,0.29-.047Zm0.338,0a0.228,0.228,0,0,0,.048.142A0.228,0.228,0,0,0,16.28,21.069Zm0.145,0a1.362,1.362,0,0,0,1.111.238,1.588,1.588,0,0,1,.193-0.19H17.681V21.069c-0.311.1-.9-0.006-1.208,0.095A0.162,0.162,0,0,0,16.425,21.069Zm1.787,0.142a0.276,0.276,0,0,1,0,.19,1.689,1.689,0,0,1-.145.142,0.293,0.293,0,0,1,.1.095c-0.119.061-.033-0.02-0.1,0.095-0.136-.05-0.017-0.067-0.145,0v-0.19a0.661,0.661,0,0,1-.29-0.1l-1.014.047v0.048s0.192,0.021.1,0.047H16.667l-0.048.142c-0.456-.379-1.635-0.064-2.367-0.047,0.066,0.486.4,0.8,0.483,1.282h3.092V22.921h0.048a0.494,0.494,0,0,1,.048-0.285,0.249,0.249,0,0,1,.145-0.047,0.25,0.25,0,0,0,.145.047,11.925,11.925,0,0,1,.628-1.567h-0.1a1.63,1.63,0,0,1-.918,0v0.047h0.1A0.28,0.28,0,0,0,18.213,21.211Zm1.3-.142a4.941,4.941,0,0,0,.58,1.33l0.145,0.428h0.821a0.175,0.175,0,0,0,.1.047v-1.14a1.357,1.357,0,0,1,0-.665h-0.1A5.536,5.536,0,0,1,19.517,21.069Zm1.063,0.095a0.188,0.188,0,0,1,0,.238V21.164Zm-0.29.143h0.242v0.047a0.261,0.261,0,0,0-.145.19h-0.1V21.5a0.55,0.55,0,0,0,.1-0.142A0.166,0.166,0,0,1,20.29,21.306Zm0.435,0h0.242v0.047a0.261,0.261,0,0,0-.145.19H20.773C20.789,21.353,20.813,21.445,20.725,21.306Zm-10,.19a3.713,3.713,0,0,1-.58.048C9.672,21.672,8.721,21.935,8.6,22.4a2.359,2.359,0,0,1,.29.57,3.824,3.824,0,0,1,2.367-.522c0.243,0.057,1.256.427,1.256,0.427a1.434,1.434,0,0,0,.29-0.712A5.426,5.426,0,0,0,10.725,21.5Zm-2.754.19a0.857,0.857,0,0,0-.048.285H7.971a1.4,1.4,0,0,0,.193-0.238H8.116V21.686H7.971Zm5.314,0a0.187,0.187,0,0,0,.145.095V21.686H13.285Zm0.58,0a1.73,1.73,0,0,0-.048.522,1.386,1.386,0,0,1,.386.522,0.167,0.167,0,0,0,.1-0.047c0.122-.07.075-0.021,0.1-0.19a3.277,3.277,0,0,1-.386-0.807H13.865Zm4.928,0-0.29.665a1.008,1.008,0,0,1,.386.38,2.426,2.426,0,0,0,.1-1H18.937V21.686H18.792Zm0.58,0a1.548,1.548,0,0,0,0,.855c0.072,0.211.2,0.2,0.483,0.19a0.713,0.713,0,0,0,.1-0.19,2.452,2.452,0,0,1-.386-0.855H19.372Zm5.99,0a0.984,0.984,0,0,0,.048.475A0.982,0.982,0,0,0,25.362,21.686Zm0.87,0.427c-0.019.108-.044,0.051,0,0.142,0.063,0.117-.021.032,0.1,0.095V22.3h0.048V22.256A1.684,1.684,0,0,1,26.232,22.114Zm-0.242.047a2.114,2.114,0,0,0-.048.617h0.1V22.446A0.187,0.187,0,0,0,25.99,22.161Zm12.947,0a0.3,0.3,0,0,0,.048.19A0.3,0.3,0,0,0,38.937,22.161Zm-25.99.142a0.825,0.825,0,0,0-.048.332,0.494,0.494,0,0,0,.435.095l0.048-.095A1.875,1.875,0,0,0,12.947,22.3Zm12.415,0.047a0.494,0.494,0,0,0,.048.285A0.493,0.493,0,0,0,25.362,22.351ZM26.184,22.4a1,1,0,0,0-.048.332h0.048A0.517,0.517,0,0,0,26.184,22.4Zm-17.778.1a0.855,0.855,0,0,0-.145.237H8.406a0.175,0.175,0,0,1,.1-0.047v-0.19h-0.1Zm17.971,0.285v-0.19h-0.1a0.6,0.6,0,0,1-.048.19h0.145Zm-8.406-.1a0.8,0.8,0,0,0,.048.285h0.048l0.048-.237ZM7.1,22.731a0.843,0.843,0,0,1-.29.1v0.047h0.1a1.179,1.179,0,0,0,.242-0.142H7.1Zm30.773,0.142v0.095h0.048A0.162,0.162,0,0,0,37.874,22.873Zm-17.585.047a1.451,1.451,0,0,0,.87,0H20.29Zm18.309,0a0.175,0.175,0,0,0,.1.047A0.176,0.176,0,0,0,38.6,22.921ZM0.918,24.2v0.1a0.623,0.623,0,0,0,.193-0.048V24.2H0.918Zm0.628,0.047a0.593,0.593,0,0,1-.048.19H1.836V24.393a0.239,0.239,0,0,1-.048-0.142H1.546Zm0.725,0v0.19H5.024l0.1-.19H4.4a0.563,0.563,0,0,1-.531.095A5.485,5.485,0,0,0,2.271,24.251Zm11.691,0.19a0.175,0.175,0,0,0,.1.047A0.176,0.176,0,0,0,13.961,24.441Zm0.966,0.285c-0.433,0-.586-0.071-0.966-0.047l0.048,0.475a5.8,5.8,0,0,0,1.594-.38h0.048V24.441a1.146,1.146,0,0,0-.676.095A0.317,0.317,0,0,0,14.928,24.726Zm17.585-.285a0.517,0.517,0,0,0,.193.285C32.8,24.626,32.605,24.5,32.512,24.441Zm-2.271.095L30,24.868h0.145a0.476,0.476,0,0,1,.242-0.285V24.536H30.242Zm-3.865.807V24.868H25.942l-0.048.19-0.435.143a6.794,6.794,0,0,0-2.56.047h0.048V25.3c0.272-.084.811,0.113,1.111,0.047A11.363,11.363,0,0,1,26.377,25.343Zm1.5-.38a0.33,0.33,0,0,1-.193.047,0.769,0.769,0,0,1-.483.38l0.918,0.047a1.173,1.173,0,0,0,.048-0.38,0.171,0.171,0,0,0,.048-0.095H27.874ZM32.9,25.011L33,25.438h0.1V25.3A0.685,0.685,0,0,0,32.9,25.011Zm-10.87.095v0.1a1.654,1.654,0,0,1,.338,0v-0.1H22.029Zm0.628,0.047a1.844,1.844,0,0,0-.048.38h0.048v0.047h0.048v-0.1C22.649,25.38,22.727,25.271,22.657,25.153ZM33,25.96a2.666,2.666,0,0,1-.483,1H32.56a2.125,2.125,0,0,0,.531-1H33Zm-6.328.285a0.389,0.389,0,0,1,0,.38v-0.38ZM30.1,26.53v0.095h0.048V26.53H30.1Zm0.048,0.19c0.029,0.054.247,0.325,0.29,0.19A0.416,0.416,0,0,0,30.145,26.72Zm0.773,0.427V27.2H30.87c-0.093.037,0.1,0.047,0.1,0.047a1.49,1.49,0,0,0,1.063,0V27.2H31.981V27.148A1.9,1.9,0,0,1,30.918,27.148Z" transform="translate(0 0.016)"/>
</svg>
