<svg xmlns="http://www.w3.org/2000/svg" width="39.969" height="40" viewBox="0 0 39.969 40">
  <defs>
    <style>
      .cls-1 {
        fill: #fff;
        fill-rule: evenodd;
      }
    </style>
  </defs>
  <path id="it_fiat_6614_106sr_ico" class="cls-1" d="M2.972,20.092H3.1l0.062,0.671H3.313a0.113,0.113,0,0,1,.062-0.03v0.519H3.406a3.264,3.264,0,0,1,1.207-.214l0.372,0.03c0.426-.083.942,0,1.393-0.092,0.278-.059.614,0.007,0.929-0.061a9.621,9.621,0,0,1,1.548-.122,0.588,0.588,0,0,1,0-.183c0.028-.061.145-0.244,0.186-0.183a0.942,0.942,0,0,1,0,.275,0.887,0.887,0,0,0,.155,0,1.544,1.544,0,0,0,.4-0.4H9.628v0.03a1.914,1.914,0,0,1,.433.4,0.407,0.407,0,0,1-.062.122h0.619a1.314,1.314,0,0,1,.588-0.488c0,0.008.4,0.488,0.4,0.488h0.372a6.3,6.3,0,0,0,.681-0.61,1.536,1.536,0,0,1-.464-0.732,0.327,0.327,0,0,1,.186-0.061,0.271,0.271,0,0,0,.155.03c0.07-.1.178-0.143,0.248-0.244L12.91,19.3a2.52,2.52,0,0,0-.093.488l0.093,0.03a0.536,0.536,0,0,0,.372.061l0.062-.275c0.374-.22.364,0.026,0.65,0.091a2.08,2.08,0,0,1,.124-0.488,0.159,0.159,0,0,1,.093-0.03,394.44,394.44,0,0,0,.124.366l0.65-.031a0.146,0.146,0,0,0-.031-0.091,1.324,1.324,0,0,1-.526-0.519,0.773,0.773,0,0,0-.093-0.458,3.315,3.315,0,0,1-1.393.061,0.853,0.853,0,0,0-.4-0.061,4.914,4.914,0,0,1-.991.091c-0.087.032-.187,0.145-0.279,0.183a2.919,2.919,0,0,1-1.083.122V18.2H10.062V18.078H9.69V17.833H9.969V17.681a0.332,0.332,0,0,1,.155-0.061,4.287,4.287,0,0,0,.062-0.549h0.186a0.425,0.425,0,0,1,.186-0.214c0.467,0,.8.082,1.207,0.092a1.011,1.011,0,0,1,0-.214,0.361,0.361,0,0,1,.217-0.061,0.4,0.4,0,0,1,.062.244,0.871,0.871,0,0,1-.5.122,2.107,2.107,0,0,0-.991-0.061l-0.031.061H10.5v0.03a2.132,2.132,0,0,1,.774.122,2.18,2.18,0,0,0,.279.183c0.237,0.018.509,0.041,0.867,0.061a2.837,2.837,0,0,0,.743.03c0.032-.02.055-0.127,0.093-0.152a2.117,2.117,0,0,1,.433-0.153,0.322,0.322,0,0,1-.062-0.244c0.8,0.006,1.695.029,2.539,0.031V17.07h0.186V16.43h0.279V17.07c1.3,0.087,2.738.03,4.087,0.03V17.009h0.155V17.1h0.4v0.183H20.9v0.244c4.017,0,8.161.03,12.229,0.031v0.793c-5.711,0-11.5.048-17.09,0.03v0.03a0.5,0.5,0,0,1,.031.244c0,0.6-.414.509-0.588,0.824h0.031v0.03a2.244,2.244,0,0,1,.774-0.091V19.359a0.536,0.536,0,0,1-.155-0.092h0.062a0.5,0.5,0,0,1,.341,0,0.086,0.086,0,0,1-.031.03,0.6,0.6,0,0,1-.124.061V19.42a3.948,3.948,0,0,1,.712.03v0.092H17.8v0.366h0.062a2.542,2.542,0,0,1,1.362-.854,0.825,0.825,0,0,0,.681-0.4h0.279V18.535h0.433c0.029,0.1.012,0.095,0.124,0.122a0.982,0.982,0,0,1-.031.427l-0.093.03a0.69,0.69,0,0,0,.093.214,1.178,1.178,0,0,1-.093.244H19.907V19.329H19.876a6.97,6.97,0,0,1-1.393.58v0.153a0.563,0.563,0,0,1,.433.671,0.309,0.309,0,0,0-.155.122h4.427c0.044-.09.059-0.084,0.186-0.092v0.03c-0.076.04-.021-0.013-0.062,0.061h0.5V20.732h0.248v0.122c0.472-.092.68-0.484,1.207-0.61a1.837,1.837,0,0,1,.65.03c0.345,0.079.642,0.026,0.96,0.122a9.914,9.914,0,0,0,1.455.488,3.408,3.408,0,0,1,.248.488c-0.059.036-.037,0-0.031,0.061a0.93,0.93,0,0,0,.186.244v0.183a1.6,1.6,0,0,0,.65.03,0.944,0.944,0,0,0,.433-0.03v0.092a1.713,1.713,0,0,1,.65,0c0.136,0.044.118,0.115,0.248,0.152l0.8,0.092a9.4,9.4,0,0,0,1.858.275V22.411a4.638,4.638,0,0,1-.031-1.526,1.419,1.419,0,0,1,.4-0.03v0.061a1.365,1.365,0,0,1,.031.549H33.9a1.112,1.112,0,0,1,.031.336,1.743,1.743,0,0,0,0,.732,0.95,0.95,0,0,1,.217.03c0.036-.153.081-0.186,0.279-0.183a12.363,12.363,0,0,1,.031-1.4H34.83a0.872,0.872,0,0,1,.031.275,0.643,0.643,0,0,1,.031.305h0.124a6.125,6.125,0,0,0,.031,1.1c0.139,0,.17,0,0.217.092a2.441,2.441,0,0,0,.124.366L36.9,23.632V23.2c0.091,0,.433-0.061.433-0.061V23.2h0.34v0.7h0.031v0.03l0.155,0.03a2.842,2.842,0,0,0,.5-0.61,0.667,0.667,0,0,1-.031-0.641l0.248-.183a3.941,3.941,0,0,1,.4-0.031,0.2,0.2,0,0,0,.031-0.122h0.557a3.789,3.789,0,0,1-.031,1.007,2.154,2.154,0,0,0-.31,1.068c0.223,0.077.5,0.206,0.743,0.305l-0.34.275a0.087,0.087,0,0,0,.031.03,0.694,0.694,0,0,1,.31.427,2.926,2.926,0,0,1-.929.641c-0.462.3-.879,0.682-1.331,0.976,0.024,0.053.081,0.056,0.031,0.092a0.962,0.962,0,0,1-.34.4,0.635,0.635,0,0,0-.341.061c-0.173.123-.115,0.319-0.248,0.4a2.456,2.456,0,0,0-.774.4,0.2,0.2,0,0,0-.031.122h0.062a0.211,0.211,0,0,1,.124-0.03,0.473,0.473,0,0,1,.031.153,0.188,0.188,0,0,0-.062.061h0.217a0.176,0.176,0,0,1,.155-0.061c0.038,0.048.02,0.016,0,.061a0.359,0.359,0,0,1-.371.183,0.408,0.408,0,0,0-.248-0.091,1.1,1.1,0,0,0-.588.4v0.732a0.327,0.327,0,0,1-.186.061V29.979a1.459,1.459,0,0,1,0-.7H35.108v-0.03L34.4,29.124c-0.146.185-.394,0.287-0.557,0.458h-1.7a2.952,2.952,0,0,1-.372,1.312,3.7,3.7,0,0,1-7-1.129h-0.31v0.214H23.839v0.275h-0.4v0.092h-2.26V30.254H12.508A3.542,3.542,0,0,1,10,32.786a3.672,3.672,0,0,1-2.043.061,4.207,4.207,0,0,1-.836-0.336A4.127,4.127,0,0,1,5.759,31.23a4.536,4.536,0,0,1-.31-0.641,2.013,2.013,0,0,0-.124-0.4,0.82,0.82,0,0,1-.557-0.244,0.766,0.766,0,0,1-.372.183,2.081,2.081,0,0,1-.433-0.549l-0.279-.244c-0.222-.219-0.428-0.453-0.65-0.671a1.618,1.618,0,0,0-.5-0.488,3.2,3.2,0,0,1-.062.671H2.353V28.789c-0.082-.144.079-0.45,0-0.671a0.747,0.747,0,0,1-.093-0.153,1.3,1.3,0,0,0,.093-0.305c-0.056-.3-0.235-0.63-0.31-0.946a0.533,0.533,0,0,1-.186-0.03c0-.123.017-0.167-0.062-0.214a0.113,0.113,0,0,1-.062.03V26.317a1.247,1.247,0,0,1-.093-0.488,0.575,0.575,0,0,1-.619-0.152A1.182,1.182,0,0,1,.9,25.188L1.3,25.1a0.59,0.59,0,0,1,.124-0.4,2.11,2.11,0,0,1-.155-0.519,10.7,10.7,0,0,0-.433-1.19,3.047,3.047,0,0,0-.155-0.58,0.812,0.812,0,0,1-.65-0.458,0.329,0.329,0,0,1,0-.153,1.091,1.091,0,0,1,.836-0.336,0.34,0.34,0,0,1,.186-0.03V21.282H0.991a0.271,0.271,0,0,1-.155.03,1.025,1.025,0,0,1,.031-0.244,2.754,2.754,0,0,1,.867-0.244v0.061H2.167a2.581,2.581,0,0,1,.464-0.092L2.6,20.122c0.105-.029.1-0.012,0.124-0.122a2.79,2.79,0,0,1-.031-0.946c-0.081-.437.064-1.142-0.062-1.709C2.4,16.3,2.616,15.03,2.384,13.988c-0.073-.33,0-0.683-0.062-0.977-0.1-.462,0-1-0.093-1.434-0.1-.462,0-1-0.093-1.434V9.685C2,9.087,2.114,8.36,1.981,7.763a1.8,1.8,0,0,1,0-.763,7.612,7.612,0,0,0,.124,1.526c0.067,0.3,0,.621.062,0.885,0.1,0.439,0,.909.093,1.312V11.15c0.153,0.688.034,1.51,0.186,2.2l0.217,3.509c0.088,0.4.035,0.911,0.124,1.312v0.4A3.985,3.985,0,0,1,2.972,20.092Z"/>
</svg>
