<?xml version="1.0" encoding="utf-8"?>
<!-- Generator: Adobe Illustrator 16.0.0, SVG Export Plug-In . SVG Version: 6.00 Build 0)  -->
<!DOCTYPE svg PUBLIC "-//W3C//DTD SVG 1.1//EN" "http://www.w3.org/Graphics/SVG/1.1/DTD/svg11.dtd">
<svg version="1.1" id="Layer_1" xmlns="http://www.w3.org/2000/svg" xmlns:xlink="http://www.w3.org/1999/xlink" x="0px" y="0px"
	 width="40px" height="40px" viewBox="0 0 40 40" enable-background="new 0 0 40 40" xml:space="preserve">
<path id="Color_Fill_1" fill="#FFFFFF" d="M3.288,16.5H3.077v0.125H3.33V16.5c0.34-0.013,0.679-0.055,1.012-0.126
	c0.439-0.114,1.076,0.042,1.56-0.084H6.66c0.233-0.053,0.642-0.071,0.843-0.126c0.21-0.026,0.422-0.026,0.632,0
	c0.493,0.093,0.994-0.122,1.265-0.544c0.123,0.052,0.228,0.139,0.3,0.251c0.072-0.07,0.156-0.128,0.247-0.171
	c0.1,0.149,0.229,0.276,0.379,0.376l-0.084,0.126h0.211c0.148-0.233,0.371-0.409,0.632-0.5c0.042,0.084,0.12,0.145,0.211,0.167
	c0.069-0.093,0.072-0.126,0.169-0.084c0.136,0.128,0.242,0.291,0.379,0.418v-0.039c0.2-0.126,0.334-0.307,0.548-0.418V15.7h-0.674
	c-0.041,0.079-0.067,0.152-0.126,0.084c-0.031-0.05-0.045-0.108-0.042-0.167c0.103-0.121,0.216-0.233,0.337-0.335v0.167
	c-0.047,0.025-0.079,0.072-0.084,0.125h0.379c0.079,0.038,0.167,0.052,0.253,0.042l0.042-0.586l-0.337-0.167
	c0.026,0.134-0.062,0.264-0.196,0.29c-0.005,0.001-0.01,0.002-0.015,0.003c-0.093,0.04-0.195,0.055-0.295,0.042
	c-0.108-0.092-0.194-0.206-0.253-0.335h-0.127v-0.121h-0.506v0.042h-0.042c0.014,0.1-0.001,0.201-0.042,0.293
	c-0.121,0.045-0.251,0.059-0.379,0.042v-0.126h0.253v-0.5h-0.085c0.001,0.085-0.013,0.17-0.042,0.251
	c-0.074-0.054-0.162-0.083-0.253-0.084v-0.085h0.169c-0.012-0.168,0.002-0.337,0.042-0.5h0.042v0.042
	c0.021,0.08,0.064,0.153,0.126,0.209c0.092-0.137,0.126-0.036,0.3,0c0.014-0.114-0.001-0.229-0.042-0.335h-0.089
	c0.012-0.101,0.041-0.199,0.084-0.291c-0.067-0.036-0.138-0.063-0.211-0.084c0.026,0.182,0.012,0.368-0.042,0.544v-0.673h-0.084
	v0.042h-0.042v-0.042c-0.027-0.194-0.027-0.391,0-0.585c-0.068-0.025-0.139-0.04-0.211-0.042c-0.035,0.136,0.021,0.064-0.084,0.126
	c-0.102-0.079-0.15-0.208-0.126-0.335c0.094-0.268,0.123-0.555,0.084-0.836c0-0.677,0.025-1.5,0-2.049h13.992
	c0.041,1.066,0.055,2.351,0.043,3.178c-0.115,0.066-0.248,0.095-0.379,0.084c-0.668,0.125-1.345,0.195-2.023,0.209
	c-0.771,0.169-1.626,0.071-2.445,0.251c-0.903,0.181-1.82,0.278-2.74,0.293c0,0.932,0.787,1.04,0.59,2.133h0.464v0.125h0.084
	c0.317,0.075,0.646,0.089,0.969,0.042v0.126c1.546,0.121,3.1,0.079,4.637-0.126c0,0.192,0.135,0.149,0.422,0.126V16.08
	c0.115,0.01,0.229,0.038,0.336,0.084c0.291-0.211,0.602-0.393,0.928-0.544c0.668-0.073,1.344-0.002,1.98,0.209
	c0.143,0.058,0.319,0.2,0.465,0.251c0.263,0.091,0.465,0.08,0.715,0.167c0.1,0.145,0.184,0.299,0.254,0.46
	c-0.055,0.023-0.031,0-0.042,0.042c0.042,0.165,0.114,0.32,0.211,0.46l0.885,0.042c0.352-0.03,0.706-0.016,1.054,0.042
	c0.092,0.028,0.191,0.137,0.301,0.167l2.022,0.293v-0.042c-0.078-0.484-0.092-0.976-0.042-1.464
	c0.123-0.034,0.252-0.048,0.379-0.042c0.076,0.185,0.105,0.386,0.084,0.585c0.133,0.332,0.177,0.692,0.127,1.046h0.211
	c0.023,0.022,0.053,0.037,0.084,0.042c0.051-0.149,0.064-0.153,0.254-0.167l0.084,0.251c0.058,0.005,0.115,0.019,0.168,0.042
	c0.01-0.118,0.072-0.227,0.17-0.293c0.031,0.004,0.061,0.02,0.084,0.042c0.076,0.06,0.108,0.158,0.084,0.251
	c-0.027,0.037-0.042,0.08-0.043,0.126c0.33,0.039,0.517,0.2,0.844,0.251v-0.21c-0.283-0.12-0.271-0.344-0.254-0.753h-0.045
	c0.004,0.168-0.01,0.336-0.043,0.5H34.6c-0.084-0.525-0.098-1.06-0.041-1.589c0.123-0.034,0.25-0.048,0.379-0.042v0.084
	c0.053,0.176,0.068,0.362,0.041,0.544c0.046-0.001,0.09,0.014,0.127,0.042c0.04,0.092,0.055,0.193,0.041,0.293
	c-0.057,0.248-0.057,0.506,0,0.753c0.332,0.071,0.127,0.315,0.338,0.46c0.439,0.227,0.907,0.396,1.391,0.5v-0.416
	c0.4,0,0.373,0,0.8,0v0.711L37.85,19.3v-0.084c-0.082-0.172-0.082-0.372,0-0.544c-0.158-0.112-0.227-0.314-0.168-0.5
	c0.033-0.053,0.063-0.108,0.084-0.167c0.529-0.172,1.094-0.215,1.644-0.125V18h-0.421c-0.029,0.277-0.043,0.557-0.043,0.836
	c-0.045,0-0.09,0.014-0.127,0.042c-0.031,0.05-0.045,0.108-0.041,0.167c0.142,0.122,0.055,0.2,0,0.335
	c0.387,0.04,0.16,0.272,0.379,0.418c0.272,0.132,0.555,0.243,0.843,0.335v0.042h-0.041c-0.331,0.362-0.715,0.673-1.138,0.92
	c-0.778,0.571-1.492,1.274-2.276,1.841c-0.478,0.256-0.894,0.613-1.222,1.045c0.133,0.48,0.117,0.99-0.042,1.463
	c-0.036,0.027-0.081,0.042-0.126,0.043c-0.051-0.262-0.064-0.529-0.043-0.795h-0.043c-0.064-0.035-0.137-0.05-0.211-0.043v-0.037
	h-0.041c0.006,0.195-0.008,0.392-0.043,0.585h-0.127c-0.043-0.206-0.057-0.417-0.041-0.628h-0.211
	c-0.347,0.395-0.879,0.57-1.392,0.461c-0.261-0.066-0.533-0.081-0.8-0.043c-0.054,1.568-1.135,2.912-2.655,3.301
	c-0.655,0.203-1.353,0.231-2.022,0.084c-1.534-0.473-2.674-1.765-2.951-3.346H24.32v0.255h-0.506v0.42h-0.463v0.084h-0.591
	c-0.563,0.045-1.13,0.017-1.686-0.084h-7.46c-0.352,0.03-0.706,0.017-1.054-0.042c-0.135,0.467-0.398,0.887-0.759,1.213
	c-1.013,1.435-2.878,1.988-4.51,1.338c-0.776-0.354-1.424-0.938-1.855-1.673c-0.156-0.255-0.163-0.629-0.337-0.878
	c-0.066-0.043-0.2,0.006-0.3-0.042c-0.059-0.096-0.148-0.169-0.253-0.209c-0.111,0.134-0.127,0.1-0.337,0.084
	c-0.361-0.576-0.834-1.074-1.391-1.464V23.9c-0.116-0.148-0.28-0.252-0.464-0.293l-0.042,0.627
	c-0.054,0.021-0.111,0.036-0.169,0.041v-0.082L2.06,23.314c0.073-0.097,0.117-0.213,0.126-0.334
	c-0.022-0.066-0.173-0.235-0.211-0.334c-0.1-0.266-0.021-0.479-0.379-0.5v-0.17H1.138c0.042,0.121,0.042,0.254,0,0.375
	c-0.037,0.027-0.081,0.042-0.126,0.043v-1.129H0.8c-0.107-0.095-0.169-0.232-0.169-0.375c-0.035-0.095-0.063-0.191-0.083-0.291
	c0.15,0.004,0.298-0.039,0.421-0.125c0.352-0.541-0.364-2.199-0.506-2.8C0.231,17.652,0.043,17.479,0,17.251
	c0.27-0.323,0.161-0.461,0.759-0.46V16.08C0.91,16.063,0.865,16.1,0.927,16c0.232-0.986,0.303-2.002,0.211-3.011V5.5h0.084v8.907
	c0.046,0.388,0.06,0.78,0.042,1.171c0.044,0.066,0.102,0.123,0.169,0.167c-0.008,0.111-0.008,0.223,0,0.334
	c0.072,0.001,0.144,0.016,0.211,0.042c0.009-0.179,0.067-0.353,0.169-0.5l0.042-6.776C1.923,7.87,1.909,6.891,1.813,5.918h0.126
	V5.96C1.877,6.206,1.863,6.462,1.897,6.713v1.923l0.042,6.984c0.053,0.059,0.11,0.114,0.169,0.167c0.022,0.11,0.022,0.225,0,0.335
	c0.068-0.008,0.134,0.025,0.169,0.084c0.256,0.035,0.517,0.006,0.759-0.084C3.148,16.227,3.234,16.356,3.288,16.5z M10.2,12.526
	c-0.017,0.095-0.039,0.045,0,0.125c0.022,0.022,0.052,0.037,0.084,0.042C10.293,12.625,10.26,12.559,10.2,12.526z M21.328,13.07
	v0.084h0.59v-0.043h0.042v-0.042L21.328,13.07L21.328,13.07z M17.534,13.405c0.035,0.136-0.021,0.063,0.084,0.125v-0.043
	c0.022-0.023,0.037-0.053,0.042-0.084h-0.126V13.405z M10.834,14.492c-0.137,0.035-0.064-0.021-0.127,0.084l0.127,0.042V14.492
	L10.834,14.492z M13.742,15.663v0.209H13.7v0.042c-0.211-0.03-0.427-0.016-0.632,0.042c0.023,0.023,0.038,0.052,0.042,0.084
	c0.292,0.054,0.589,0.067,0.885,0.042c0.05-0.031,0.109-0.046,0.169-0.042v-0.127h0.464v-0.084c-0.031-0.05-0.046-0.108-0.042-0.167
	L13.742,15.663L13.742,15.663z M28.03,16.331v0.084h0.042C28.068,16.383,28.053,16.354,28.03,16.331z M25.543,16.749v0.167
	c0.32,0.057,0.646,0.071,0.969,0.042l-0.042-0.209H25.543L25.543,16.749z M27.313,16.749c0.086,0.191,0.127,0.221,0.422,0.209
	v-0.083C27.625,16.764,27.466,16.717,27.313,16.749z M34.984,17.293v0.084h0.041C35.021,17.345,35.007,17.315,34.984,17.293z
	 M33.214,17.793c0.001-0.045-0.015-0.09-0.042-0.125c-0.029,0.053-0.074,0.096-0.127,0.125H33.214z M4.552,17.793v0.084h0.042
	c-0.004-0.031-0.019-0.061-0.042-0.082V17.793z M33.762,17.793v0.084h0.127v-0.082h-0.127V17.793z M34.268,17.793v0.127h0.127
	v-0.125h-0.127V17.793z M38.188,18.793c0.064,0.16,0.064,0.34,0,0.5h0.127c0.02-0.273,0.115-0.24,0.127-0.544
	c-0.018-0.011-0.032-0.024-0.043-0.042c-0.053,0.061-0.13,0.095-0.211,0.093V18.793z M38.357,19.293
	c0.022,0.022,0.052,0.037,0.084,0.042c-0.024-0.021-0.055-0.032-0.086-0.035L38.357,19.293z"/>
</svg>
