<?xml version="1.0" encoding="utf-8"?>
<!-- Generator: Adobe Illustrator 16.0.0, SVG Export Plug-In . SVG Version: 6.00 Build 0)  -->
<!DOCTYPE svg PUBLIC "-//W3C//DTD SVG 1.1//EN" "http://www.w3.org/Graphics/SVG/1.1/DTD/svg11.dtd">
<svg version="1.1" id="Layer_1" xmlns="http://www.w3.org/2000/svg" xmlns:xlink="http://www.w3.org/1999/xlink" x="0px" y="0px"
	 width="40px" height="40px" viewBox="0 0 40 40" enable-background="new 0 0 40 40" xml:space="preserve">
<path id="Color_Fill_1" fill="#FFFFFF" d="M16.72,12.664V12.47h0.1v0.194h0.247v-0.1c-0.129-0.116-0.076-0.141-0.049-0.339
	c-0.149-0.021-0.287-0.089-0.394-0.194c0.038-0.004,0.073-0.021,0.1-0.048c-0.196,0.028-0.396,0.028-0.592,0v0.145
	c-0.168,0.033-0.333,0.081-0.493,0.145c-0.043-0.232-0.11-0.46-0.2-0.679c0.441,0.066,0.886,0.1,1.332,0.1l0.049-0.243h0.1V11.5
	h0.049c-0.025,0.062-0.042,0.127-0.049,0.194c0.546,0,0.755-0.062,1.233-0.049v-0.529c0.053-0.001,0.105,0.016,0.148,0.048
	c-0.06,0.173-0.06,0.361,0,0.534h0.148c0.041-0.157-0.024-0.074,0.1-0.146c0.607,0.184,1.246,0.234,1.874,0.146
	c-0.01-0.084,0.007-0.169,0.049-0.243c0.021,0.174-0.023,0.122,0.1,0.194c0.247,0.11,0.521,0.145,0.789,0.1v0.187l-2.219,0.1v0.049
	h0.049c0.116,0.01,0.231,0.026,0.345,0.049c-0.004,0.038-0.021,0.074-0.049,0.1c-0.179,0.032-0.361,0.048-0.543,0.048
	c-0.218,0.067-0.433,0.145-0.644,0.234v0.145c-0.293-0.056-0.59-0.089-0.888-0.1v0.1c0.252,0.013,0.501,0.062,0.74,0.145
	c-0.1,0.06-0.059,0.116-0.049,0.34c1.447,0.101,2.899,0.068,4.34-0.1c0.044,0.324,0.314,0.569,0.641,0.582
	c0.259,0.056,0.525,0.073,0.789,0.049c0.07,0.12,0.07,0.269,0,0.388c0.119,0.035,0.2,0.118,0.3,0.145h2.614
	c0.523,0.063,1.051,0.079,1.578,0.049h2.91v0.1c-0.196-0.03-0.395-0.046-0.592-0.049v0.1c0.201-0.057,0.419-0.02,0.592,0.1h-0.844
	c-0.502-0.114-1.021-0.131-1.529-0.049c-1.151-0.027-2.304,0.006-3.452,0.1c-0.523,0.111-1.156-0.134-1.48,0.145
	c0.024,0.159-0.056,0.315-0.2,0.388c-0.076-0.034-0.006-0.006-0.147,0c-0.184,0.194-0.349,0.405-0.493,0.631
	c-0.342-0.063-0.693,0.006-0.986,0.193c0.348-0.003,0.695-0.037,1.037-0.1c0.477-0.011,0.954,0.006,1.43,0.049v-0.1
	c-0.031-0.043-0.049-0.094-0.049-0.146h1.479l0.2,0.242c0.076,0.032,1.363,0.1,1.479,0.1l0.05,0.242
	c0.432-0.019,0.864,0.031,1.281,0.146c0.107,0.078,0.223,0.144,0.346,0.194c0.146-0.026,0.295-0.042,0.443-0.049v-0.05
	c0.018-0.037,0-0.033,0.2-0.049c0.326,0.414,1.188,0.086,1.578,0.145c0.218,0.05,0.432,0.115,0.641,0.193v-0.047
	c-0.122-0.063-0.034,0.021-0.1-0.101h0.049v-0.045c0.538,0.215,1.065,0.458,1.578,0.728l2.121,0.388
	c-0.007,0.136,0.028,0.271,0.1,0.388c0.524,0.199,1.071,0.33,1.628,0.389c0.025-0.079,0.042-0.16,0.049-0.242
	c0.424-0.023,0.836,0.135,1.135,0.436c-0.027,0.027-0.045,0.063-0.049,0.1h0.1c0.33-0.227,0.736-0.314,1.131-0.244
	c0.018,1.199-1.3,1.756-1.874,2.569c-0.231,0.378-0.532,0.706-0.888,0.97v0.05h0.049c0.138,0.078,0.216,0.23,0.199,0.388
	c-0.031,0.042-0.048,0.093-0.049,0.145c0.119,0.019,0.205,0.123,0.201,0.242c-0.155,0.051-0.27,0.181-0.301,0.34h-0.148v-0.291
	l-0.301-0.049v-0.145h-0.242c-0.374,0.515-0.946,0.849-1.578,0.921c-0.151,0.02-0.3,0.054-0.444,0.101
	c-0.114,0.169-0.214,0.348-0.3,0.533c-0.275,0.378-0.629,0.692-1.036,0.921c-1.208,0.544-2.628,0.272-3.552-0.679
	c-0.079-0.105-0.446-0.848-0.492-0.873h-2.266c-0.622,1.517-2.355,2.241-3.872,1.619c-0.146-0.06-0.284-0.131-0.419-0.212
	c-0.327-0.222-0.611-0.501-0.838-0.825l-0.3-0.582h-2.019c-0.613,1.51-2.333,2.236-3.843,1.624c-0.12-0.048-0.237-0.104-0.35-0.169
	c-0.393-0.252-0.728-0.582-0.986-0.971c-0.045-0.169-0.112-0.332-0.2-0.484h-2.118c-0.613,1.51-2.333,2.236-3.843,1.624
	c-0.12-0.048-0.237-0.104-0.35-0.169c-0.391-0.253-0.727-0.583-0.986-0.971c-0.048-0.168-0.115-0.331-0.2-0.484H6.116
	c-0.231-0.361-0.677-0.521-1.085-0.388c0.02,0.11,0.045,0.052,0,0.145c-0.06,0.037-0.13,0.054-0.2,0.05l-0.049,0.291h-0.1v-0.052
	c-0.041-0.073-0.058-0.158-0.049-0.241c-0.079,0.031-0.167,0.031-0.247,0c-0.07-0.039-0.11-0.115-0.1-0.195
	c0.053-0.044,0.103-0.093,0.148-0.146c-0.162-0.2-0.129-0.567-0.3-0.776L4,22.268c-0.071-0.115-0.027-0.234-0.1-0.34H3.8v-0.34
	l-0.2-0.049v-0.1c-0.212-0.166-0.381,0-0.444-0.34c0.249-0.163,0.412-0.429,0.444-0.725c-0.057-0.143-0.106-0.289-0.148-0.438
	c-0.065-0.036-0.132-0.07-0.2-0.1c-0.12-0.2,0.022-0.475-0.1-0.631c-0.571-0.09-1.151-0.105-1.726-0.048
	c-0.044-0.142-0.157-0.251-0.3-0.291c-0.065,0.065-0.154,0.103-0.247,0.1c-0.316-0.32-0.568-0.699-0.74-1.116
	c0.091-0.086,0.132-0.213,0.108-0.336C0.1,17.16,0.017,16.782,0,16.398c0.316-0.162,0.614-0.357,0.888-0.582l0.493-0.049l0.1-0.194
	c0.353-0.1,0.72-0.133,1.085-0.1c-0.001,0.099,0.015,0.198,0.049,0.291h0.048v-0.189c0.252,0.103,0.518,0.168,0.789,0.193
	c0.219-0.045,0.434-0.109,0.641-0.193c0.594-0.07,1.194-0.036,1.776,0.1v0.291c0.142,0.055,0.091,0.01,0.148,0.146h0.05v-0.149
	c2.017-0.178,4.042-0.242,6.067-0.194h1.825c0.17,0.076,0.356,0.111,0.543,0.101c-0.093-0.028-0.178-0.079-0.247-0.146h-2.368
	v-0.101c-0.066-0.11-0.046-0.253,0.049-0.34c-0.192,0-0.222,0.024-0.3-0.1c-0.251-0.52-0.418-1.077-0.493-1.649
	c0.09-0.054,0.197-0.071,0.3-0.049V9.026h0.2c0,1.49,0.007,3.118,0,4.462h0.049c0.147,0.013,0.292-0.041,0.395-0.146
	c-0.072-0.319-0.072-0.65,0-0.97V9.705h0.148v2.811h0.3v-0.774c0.097-0.033,0.198-0.049,0.3-0.048c0.083,0.496,0.1,1,0.049,1.5h0.1
	c0.074-0.052,0.158-0.086,0.247-0.1c0.06-0.117,0.126-0.23,0.2-0.339l0.049-1.019c0.065-0.531,0.082-1.066,0.049-1.6V6.989
	c-0.085-0.823-0.073-1.653,0.035-2.473c0.017,2.619,0.033,5.238,0.049,7.857c0.159,0.351,0.243,0.731,0.247,1.116h0.1
	c-0.009-0.156,0.067-0.305,0.2-0.388c0.115-0.008,0.23-0.008,0.345,0c-0.01-1.811,0.049-3.7,0.049-5.577
	c-0.072-0.711-0.057-1.428,0.046-2.135c0,2.577,0.042,5.261,0.049,7.76c0.15,0.048,0.147,0.1,0.3,0.146
	c0.005-0.067,0.022-0.132,0.049-0.194h0.1c0.005,0.067,0.022,0.132,0.049,0.194h0.049l-0.049-0.146h1.036
	c0.045-0.117,0.053-0.077,0.1-0.194c0.032-0.149,0.239-0.118,0.543-0.1v-0.046c-0.199,0.028-0.401,0.012-0.592-0.048
	C16.4,12.755,16.564,12.722,16.72,12.664z M12.676,11.791c0,0.053,0.017,0.104,0.049,0.146v-0.146H12.676z M12.676,11.985v0.1h0.049
	C12.721,12.047,12.704,12.012,12.676,11.985z M17.707,11.985v0.1h0.049v-0.1H17.707L17.707,11.985z M17.46,12.276
	c-0.043,0.041-0.078,0.091-0.1,0.146h0.049v0.049c0.046-0.051,0.096-0.1,0.148-0.146C17.53,12.299,17.497,12.282,17.46,12.276z
	 M17.213,12.325l-0.049,0.146h0.049v-0.05C17.275,12.345,17.245,12.397,17.213,12.325L17.213,12.325z M17.608,12.325l-0.049,0.146
	h0.1C17.659,12.417,17.642,12.366,17.608,12.325L17.608,12.325z M17.708,12.374v0.1h0.049C17.753,12.436,17.735,12.4,17.708,12.374
	L17.708,12.374z M12.233,12.714v0.1h0.049v-0.098h-0.05L12.233,12.714z M14.255,13.15v0.1H14.3
	C14.297,13.212,14.28,13.176,14.255,13.15L14.255,13.15z M12.923,13.25v0.1c0.103-0.023,0.204-0.057,0.3-0.1H12.923z M1.578,15.671
	c0.019,0.123-0.029,0.077,0.148,0.101v-0.056L1.578,15.671z M4.878,15.771c-0.231-0.033-0.467-0.017-0.691,0.049
	c0.102-0.002,0.204,0.015,0.3,0.049c-0.004,0.038-0.021,0.073-0.049,0.1c-0.05,0.034-0.2,0.063-0.247,0.1h0.347
	c0.029-0.111,0.143-0.178,0.255-0.148c0.034,0.008,0.064,0.025,0.09,0.049v-0.201L4.878,15.771z M23.23,15.916
	c0.086,0.043,0.063,0.043,0.148,0H23.23z M3.453,16.156c0.345,0.03,0.691,0.03,1.036,0h0.049v-0.049H3.6
	c-0.03-0.057-0.085-0.094-0.148-0.101L3.453,16.156L3.453,16.156z M6.853,16.01c-0.077,0.058-0.16,0.106-0.247,0.146h0.3
	c0.024-0.041,0.059-0.075,0.1-0.1V16.01h-0.15H6.853z M29.146,16.544c0.084,0.043,0.063,0.043,0.147,0h-0.146H29.146z
	 M31.464,16.835c0.056,0.053,0.144,0.053,0.2,0H31.464z M31.068,16.884c0.2,0.098,0.42,0.147,0.642,0.146V16.98h0.049v-0.049h-0.44
	c-0.074-0.04-0.16-0.057-0.245-0.049L31.068,16.884z M31.857,16.884v0.101h0.05v-0.101h-0.046H31.857z M34.324,17.66
	c0.073,0.052,0.158,0.086,0.246,0.1c-0.063-0.065-0.15-0.102-0.242-0.101L34.324,17.66z M34.624,17.709
	c0.027,0.026,0.063,0.044,0.101,0.049C34.697,17.73,34.662,17.713,34.624,17.709L34.624,17.709z M0.395,17.756
	c-0.084,0.053-0.139,0.143-0.148,0.242c0.168,0.38,0.465,0.689,0.838,0.873l0.1-0.145C0.956,18.376,0.691,18.051,0.395,17.756z
	 M34.822,17.756c0.027,0.026,0.063,0.043,0.1,0.048c-0.027-0.026-0.063-0.043-0.102-0.048H34.822z M35.266,17.95l0.493,0.049
	c0.026-0.062,0.042-0.128,0.05-0.194c-0.162-0.041-0.328-0.057-0.494-0.048v0.048h-0.049V17.95L35.266,17.95z M4.242,22.364
	c0.095,0.243,0.219,0.5,0.3,0.727h0.1v-0.048c-0.135-0.182-0.206-0.403-0.2-0.63L4.242,22.364z M36.252,22.8
	c0.027,0.026,0.063,0.044,0.1,0.05C36.324,22.822,36.289,22.805,36.252,22.8z M4.932,22.946c-0.043,0.06-0.077,0.124-0.1,0.194
	h0.051C4.94,23.023,4.983,23.055,4.932,22.946z M34.969,23.479c-0.059,0.039-0.238,0.059-0.3,0.101h0.345
	C35.011,23.541,34.995,23.506,34.969,23.479z"/>
</svg>
