<svg xmlns="http://www.w3.org/2000/svg" width="40" height="40" viewBox="0 0 40 40">
  <defs>
    <style>
      .cls-1 {
        fill: #fff;
        fill-rule: evenodd;
      }
    </style>
  </defs>
  <path id="it_l3_cc_ico" class="cls-1" d="M16.234,12.441V12.182c0.062-.024.04-0.028,0.1-0.052a4.311,4.311,0,0,0,.891.078c0.528,0.118,1,.123,1.552.233v0.182h0.229V12.7a0.367,0.367,0,0,1,.255.052,0.578,0.578,0,0,0,.051.181c0.088,0.058.247,0.042,0.331,0.1a0.5,0.5,0,0,0,.1.207,0.092,0.092,0,0,1,.051-0.026l0.051,0.233a0.163,0.163,0,0,0-.1.026,0.285,0.285,0,0,0,.1.156V13.66h0.026V13.634a3.027,3.027,0,0,1,.789-0.57c0.044,0.077-.022.076,0.051,0.13a2.851,2.851,0,0,0,.458.233c0.5,0.312,1.074.569,1.578,0.882a1.793,1.793,0,0,1,.611.363,1.98,1.98,0,0,1,.076.882,4.025,4.025,0,0,0,.865.052V15.527a10.574,10.574,0,0,1,1.883.026,0.156,0.156,0,0,1,0,.1c-0.029.075,0,.048-0.076,0.078a0.169,0.169,0,0,1-.1.026v0.1l0.713-.026V15.76a0.527,0.527,0,0,1,.229.052h0.865c0.284,0.066.586,0.058,0.891,0.156l3.74,0.026,4.5,0.052h1.374a1.134,1.134,0,0,1,.458-0.052c0.047,0.019.123,0.111,0.178,0.13H40v0.285a3.994,3.994,0,0,1-1.069.026,1.082,1.082,0,0,1-.84.078H35.8l-7.1.078c-0.021.007-.081,0.071-0.1,0.078H28.244a3.445,3.445,0,0,1-.891.078H26.947a0.6,0.6,0,0,1-.229.052V16.72l-0.713-.026a0.127,0.127,0,0,0,.025.078,0.2,0.2,0,0,1,.076.078,0.788,0.788,0,0,1-.076.467h-1.3c-0.047.118-.28,0.571-0.28,0.571a1.747,1.747,0,0,0,.611.259,0.824,0.824,0,0,1,.127.13L25.6,18.457a0.4,0.4,0,0,0,.076.1c0.045-.114.105-0.068,0.229-0.052v0.1a4.117,4.117,0,0,1,.458.1,2.264,2.264,0,0,0,.433-0.026,4.787,4.787,0,0,0,1.247-.026c0.271-.061.626,0.028,0.865-0.026,0.271-.061.626,0.028,0.865-0.026h0.458a6.346,6.346,0,0,0,1.247-.052h0.687a5.933,5.933,0,0,0,1.043-.052c0.271-.06.626,0.027,0.865-0.026a1.3,1.3,0,0,1,.458.026h0.432A4.044,4.044,0,0,1,36.285,19a0.859,0.859,0,0,1,.458.363,1.014,1.014,0,0,0-.255.259c-0.055-.033-0.085-0.076-0.127-0.052l-0.687.363a0.089,0.089,0,0,0,.025.052c0.029,0.026.14,0.149,0.153,0.156,0.036,0.02.04-.069,0.127,0.026a1.443,1.443,0,0,1,.026.337,1.552,1.552,0,0,0,.407.13,0.9,0.9,0,0,0,.127.363c0.065,0.083.1,0.006,0.127,0.156a0.636,0.636,0,0,0-.127.285,0.782,0.782,0,0,0,.076.13,0.265,0.265,0,0,1,.2.207,1.315,1.315,0,0,0-.025.337,0.323,0.323,0,0,1,.076.13,0.4,0.4,0,0,0-.254.389c0.245,0.168.056,0.31,0,.467a1.221,1.221,0,0,0,0,.233,1.949,1.949,0,0,0-.305.078,0.447,0.447,0,0,1-.076.13,2.28,2.28,0,0,1,.051.337,0.828,0.828,0,0,0-.305.207c-0.047.086,0.029,0.077-.051,0.13a1.054,1.054,0,0,1-.305-0.026,1.273,1.273,0,0,1-.178.363,1.658,1.658,0,0,0-.28.078,0.42,0.42,0,0,1-.127.13,0.432,0.432,0,0,0-.407-0.052,0.406,0.406,0,0,1-.153.311,0.642,0.642,0,0,0-.28.052,0.451,0.451,0,0,1-.127.13,0.631,0.631,0,0,0-.305-0.1c-0.024.027-.079,0.026-0.1,0.052-0.109.123,0,.268-0.2,0.311a0.463,0.463,0,0,0-.356.181c-0.4-.368-0.4.205-0.611,0.259a0.332,0.332,0,0,0-.331.181A0.507,0.507,0,0,0,31.756,26a0.5,0.5,0,0,1-.178.311,0.919,0.919,0,0,0-.2.026c-0.079.035-.1,0.117-0.178,0.155a1.145,1.145,0,0,0-.305-0.078,1.733,1.733,0,0,0-.28.337,0.463,0.463,0,0,0-.153,0,2.166,2.166,0,0,1-.28.182,0.387,0.387,0,0,0-.382-0.052,0.406,0.406,0,0,1-.153.311,0.641,0.641,0,0,0-.28.052,0.449,0.449,0,0,1-.127.13,0.428,0.428,0,0,0-.407-0.052,0.309,0.309,0,0,1-.2.311,0.363,0.363,0,0,0-.331.181,1.22,1.22,0,0,0-.484-0.1,0.414,0.414,0,0,1-.305.259,0.53,0.53,0,0,0-.458,0,0.376,0.376,0,0,0-.382-0.207,0.332,0.332,0,0,1-.28.207,0.483,0.483,0,0,0-.433,0,0.41,0.41,0,0,0-.382-0.207,0.379,0.379,0,0,1-.305.207,0.489,0.489,0,0,0-.433,0,0.377,0.377,0,0,0-.382-0.207,0.319,0.319,0,0,1-.28.207,0.483,0.483,0,0,0-.432,0,0.4,0.4,0,0,0-.382-0.207,0.339,0.339,0,0,1-.305.207,0.493,0.493,0,0,0-.433,0,0.368,0.368,0,0,0-.356-0.207,0.4,0.4,0,0,1-.305.207,0.421,0.421,0,0,0-.433.026,0.351,0.351,0,0,0-.382-0.233,0.381,0.381,0,0,1-.28.233c-0.111-.162-0.3-0.032-0.433,0a0.4,0.4,0,0,0-.382-0.233,0.446,0.446,0,0,1-.28.233c-0.116-.168-0.311-0.024-0.458,0a0.345,0.345,0,0,0-.356-0.233,0.461,0.461,0,0,1-.305.233c-0.113-.163-0.291-0.026-0.433,0a0.382,0.382,0,0,0-.382-0.233,0.4,0.4,0,0,1-.28.233,0.325,0.325,0,0,0-.305-0.078A0.139,0.139,0,0,1,17.1,28a0.351,0.351,0,0,0-.356-0.233,0.4,0.4,0,0,1-.305.233,0.269,0.269,0,0,0-.28-0.078,0.139,0.139,0,0,1-.153.078,0.372,0.372,0,0,0-.356-0.233,0.485,0.485,0,0,1-.305.233,0.4,0.4,0,0,0-.433,0,0.4,0.4,0,0,0-.407-0.207,0.319,0.319,0,0,1-.28.207,0.483,0.483,0,0,0-.433,0,0.344,0.344,0,0,0-.382-0.207,0.4,0.4,0,0,1-.28.207,0.483,0.483,0,0,0-.433,0,0.4,0.4,0,0,0-.407-0.207,0.319,0.319,0,0,1-.28.207,0.483,0.483,0,0,0-.433,0,0.344,0.344,0,0,0-.382-0.207,0.332,0.332,0,0,1-.28.207,0.483,0.483,0,0,0-.433,0,0.386,0.386,0,0,0-.382-0.207,0.4,0.4,0,0,1-.28.207,0.53,0.53,0,0,0-.458,0,0.462,0.462,0,0,0-.305-0.233,0.128,0.128,0,0,0-.076-0.026,0.3,0.3,0,0,1-.28.156,0.357,0.357,0,0,1-.076-0.078,1.382,1.382,0,0,1-.509-0.1l0.025-.078c-0.007-.017-0.04-0.053-0.051-0.078l-0.2-.026a0.358,0.358,0,0,1-.28.156,0.413,0.413,0,0,0-.382-0.1A0.672,0.672,0,0,0,6.9,27.326a1.447,1.447,0,0,0-.356.13,0.339,0.339,0,0,0-.407-0.078C6.08,27.271,6.008,27.2,5.954,27.092l-0.2-.026a0.317,0.317,0,0,1-.254.13,0.357,0.357,0,0,1-.076-0.078,0.716,0.716,0,0,0-.382-0.026c-0.048-.1-0.106-0.153-0.153-0.259a1.75,1.75,0,0,0-.509.1,0.409,0.409,0,0,0-.433-0.1,0.452,0.452,0,0,0-.178-0.259,0.432,0.432,0,0,0-.153-0.052,0.4,0.4,0,0,1-.305.156,0.378,0.378,0,0,0-.433-0.1A0.452,0.452,0,0,0,2.7,26.314c-0.167-.118-0.266.077-0.458,0.1a0.519,0.519,0,0,0-.458-0.13A1.694,1.694,0,0,0,1.629,26c-0.21-.026-0.3.039-0.509,0a0.569,0.569,0,0,0-.254-0.285,0.368,0.368,0,0,1-.178-0.026V25.433a0.177,0.177,0,0,0,.025-0.1C0.665,25.3.627,25.22,0.585,25.2c-0.144-.069-0.209.037-0.28-0.1A1.456,1.456,0,0,1,.28,24.888a1.753,1.753,0,0,1-.2-0.363A0.5,0.5,0,0,0,.229,24.11,0.314,0.314,0,0,1,0,23.825a0.86,0.86,0,0,0,.1-0.57A1.1,1.1,0,0,0,.407,23.1c0.02-.163-0.017-0.345,0-0.519A0.4,0.4,0,0,0,.585,22.5a1.331,1.331,0,0,0,0-.571L0.458,20.324a3.834,3.834,0,0,1-.382-0.441L0.051,18.457c0.32-.255.492-0.7,0.789-0.985l-0.025-.908H0.941a0.378,0.378,0,0,1,.025-0.13H0.738c-0.04.032-.013,0.017-0.051,0a0.094,0.094,0,0,1-.025-0.052,0.141,0.141,0,0,0,.076-0.1H0.662v-0.1c0.083-.021.039,0.013,0.076-0.052a0.1,0.1,0,0,1-.076-0.1H1.018l-0.025-.389H0.84a0.3,0.3,0,0,1-.051-0.182H1.323V15.242a0.775,0.775,0,0,1,.662,0c0.043,0.073.006,0.265,0.051,0.337,0.043-.075.037-0.073,0.153-0.078-0.008.05,0,.191,0,0.311H2.316a1.163,1.163,0,0,1,.051-0.389,0.84,0.84,0,0,1,.687-0.1v-0.1l0.153-.13h0.84a0.408,0.408,0,0,1,.1.13,0.177,0.177,0,0,1,.025.1c0.459-.019.732-0.128,0.712,0.389H4.962v0.1H5.344A0.9,0.9,0,0,1,5.369,15.6a1.194,1.194,0,0,0,.254-0.156l0.534,0.026a5.254,5.254,0,0,1,.789-0.026A0.418,0.418,0,0,0,7,15.527H7.125v0.052H9.033V15.527L9.211,15.5V15.449L9.72,15.475a5.662,5.662,0,0,1,.789-0.026,0.352,0.352,0,0,0,.178.078V15.6a0.122,0.122,0,0,1,.076.026c0.034,0.04.044,0.112,0.076,0.156V15.76a1.583,1.583,0,0,0,.025-0.181c0.021-.059.077-0.081,0.1-0.156a0.294,0.294,0,0,1-.076-0.233,0.937,0.937,0,0,0,.2-0.207H11.069a0.471,0.471,0,0,0-.2-0.13,2.44,2.44,0,0,0,.178-0.57,0.342,0.342,0,0,1-.051-0.259c0.046-.125.079-0.065,0.153-0.1a2.1,2.1,0,0,1,.331-0.6,0.686,0.686,0,0,0,.331-0.156,0.426,0.426,0,0,1-.229-0.207,0.157,0.157,0,0,1-.051.052V12.96a1.019,1.019,0,0,1,.305-0.467,1.155,1.155,0,0,0,.178.078v0.078h0.076a3.254,3.254,0,0,1,0-.6h0.051a1.105,1.105,0,0,1,.611.026h0.305c0.055,0.028.01,0.087,0.1,0.1Zm-4.784.6H11.5v0.026A0.086,0.086,0,0,1,11.45,13.037Z" transform="translate(0 -0.016)"/>
</svg>
