<?xml version="1.0" encoding="utf-8"?>
<!-- Generator: Adobe Illustrator 16.0.0, SVG Export Plug-In . SVG Version: 6.00 Build 0)  -->
<!DOCTYPE svg PUBLIC "-//W3C//DTD SVG 1.1//EN" "http://www.w3.org/Graphics/SVG/1.1/DTD/svg11.dtd">
<svg version="1.1" id="Layer_1" xmlns="http://www.w3.org/2000/svg" xmlns:xlink="http://www.w3.org/1999/xlink" x="0px" y="0px"
	 width="39.969px" height="40px" viewBox="0 0 39.969 40" enable-background="new 0 0 39.969 40" xml:space="preserve">
<path id="Color_Fill_1" fill="#FFFFFF" d="M12.277,15.236c0.25-0.018,0.49-0.099,0.7-0.235c-0.126,0.016-0.25-0.046-0.312-0.157
	c0.033-0.089,0.059-0.181,0.078-0.274h0.039v0.039c0.059,0.079-0.024,0.158,0.195,0.2c0.133-0.3,1.129-0.166,1.48-0.157v-0.121
	c0.147,0.064,0.312,0.078,0.467,0.039c-0.067,0.008-0.136-0.006-0.195-0.039c0.093,0.013,0.188-0.001,0.273-0.039l-0.312-0.274
	h-0.076l-0.078,0.235H14.38l0.039-0.274c-0.148-0.016-0.292-0.056-0.428-0.117c0.008,0.132-0.005,0.264-0.039,0.392h-0.039v-0.393
	h-0.044v-0.039c0.055,0.004,0.109-0.009,0.156-0.039c-0.142-0.02-0.286-0.02-0.428,0c0,0.149,0.039,0.107-0.156,0.117
	c-0.065,0.061-0.146,0.101-0.234,0.117v-0.078c-0.047-0.075,0-0.2-0.039-0.313c-0.056-0.064-0.108-0.131-0.156-0.2h0.039v-0.035
	c0.878,0.114,1.764,0.154,2.648,0.118c0-0.124-0.066-0.053,0.039-0.118c0.526,0.179,1.086,0.233,1.636,0.157v-0.236h0.039v0.039
	c0.099,0.202,0.33,0.302,0.545,0.235c0.072,0.042,0.162,0.042,0.234,0v0.157c-0.585-0.028-1.172-0.001-1.753,0.078h0.156v0.2
	c-0.361-0.014-0.793-0.038-1.207-0.039c0.011,0.158-0.002,0.316-0.039,0.47h0.234c0.09-0.1,0.133-0.068,0.273-0.039
	c0.217,0.108,0.465,0.135,0.7,0.078v0.039h-0.268v0.117H16.6l0.039-0.47c0.232-0.103,0.487-0.143,0.74-0.117l-0.039,0.392
	c-0.105,0.005-0.211-0.008-0.312-0.039v0.039c0.033,0.061,0.047,0.131,0.039,0.2h0.117c0.144,0.456,0.745,0.447,1.363,0.431v-0.399
	h0.234v-0.157h0.117V15.2c0.833,0.013,1.659,0.146,2.454,0.392l0.936-0.039v-1.218l3,0.039v1.371
	c-0.127,0.033-0.259,0.046-0.391,0.039c-0.402-0.041-0.808-0.027-1.207,0.039c-0.039,0.154-0.105,0.299-0.194,0.431
	c0.007,0.068,0.02,0.135,0.039,0.2c-0.028,0.009-0.054,0.022-0.078,0.039c0.026,0.062,0,0.005,0,0.116
	c0.21-0.02,0.415,0.069,0.545,0.236H25.4c1.063,0,2.076,0.04,3.117,0.116c0.025-0.075,0.039-0.155,0.039-0.235h2.18l0.039,0.2h0.078
	c0.232-0.106,0.492-0.134,0.74-0.077c0.039,0.029,0.066,0.07,0.078,0.116h7.166c0.358,0.073,0.725,0.101,1.09,0.078
	c0.026,0.208,0.026,0.419,0,0.627h-1.05c-0.075,0.044-0.153,0.084-0.233,0.118c-0.391,0.009-0.781-0.004-1.17-0.039
	c-0.226,0-0.535,0.064-0.699,0.039c-0.996-0.125-2.004-0.125-3,0c-0.414,0.072-1.801-0.18-2.101-0.039l-0.039,0.117
	c-0.288,0.039-0.581,0.012-0.856-0.078c-0.555,0-1.524-0.025-2.143,0.039c-0.086-0.039-0.178-0.066-0.273-0.078h-1.676
	c-0.41,0.076-0.828,0.115-1.246,0.117c-0.478-0.055-0.96-0.068-1.44-0.039c-0.067,0.088-0.146,0.167-0.233,0.234
	c-0.213,0.014-0.422,0.053-0.623,0.117c-0.031,0.023-0.045,0.129-0.078,0.157c-0.191,0.146-0.422,0.229-0.662,0.235
	c-0.043-0.088-0.139-0.137-0.234-0.117v0.156c0.075,0.027,0.154,0.04,0.234,0.039c0.273-0.001,0.548-0.027,0.818-0.077
	c0.207,0.13,0.43,0.234,0.661,0.313c0.41-0.154,0.851-0.209,1.285-0.158V18.8c-0.07,0.056-0.101,0.148-0.078,0.235
	c0.487,0.087,0.951,0.273,1.363,0.548c0.246,0.14,1.378-0.093,1.675,0c0.375,0.192,0.705,0.46,0.975,0.784
	c0.201,0.07,0.358,0.229,0.428,0.431c-0.087,0.132-0.191,0.251-0.313,0.353c-0.061,0.034-0.127,0.061-0.195,0.078
	c-0.024,0.033-0.038,0.074-0.039,0.117c0.199,0.443,0.227,0.945,0.078,1.409c-0.078,0.127-0.17,0.245-0.272,0.353
	c-0.372,0.447-0.877,0.762-1.44,0.9c-0.801,0.35-1.623,0.7-2.455,1.059c-0.311,0.161-0.637,0.293-0.974,0.392H7.058
	c-0.572,0.052-1.149,0.026-1.714-0.078c-0.366-0.176-0.706-0.399-1.013-0.666c-0.569-0.381-1.161-0.692-1.714-1.1
	c-0.227-0.189-0.436-0.399-0.623-0.628c-0.027-0.17-0.094-0.33-0.195-0.469h-0.23L1.141,22.4c-0.073-0.136-0.125-0.281-0.156-0.432
	c-0.039,0.055-0.093,0.096-0.156,0.118c-0.02-0.044-0.046-0.083-0.078-0.118c0.002,0.163,0.018,0.221-0.082,0.28
	c-0.054-0.052-0.083-0.125-0.078-0.2c0.085-0.385,0.03-0.788-0.156-1.136c-0.174-0.554-0.316-1.115-0.428-1.685
	c0.038-0.25,0.09-0.498,0.156-0.744c-0.08-0.111-0.12-0.247-0.116-0.385c0.122-0.093,0.276-0.135,0.428-0.117
	c0.05,0.061,0.089,0.128,0.117,0.201c0.022-0.023,0.036-0.053,0.039-0.084c0.112-0.113,0.269-0.171,0.428-0.156
	c0.743,0.154,1.504,0.193,2.259,0.117C5.239,17.975,7.164,18,9.082,18.139v-0.082H8.888v-0.039c0.248-0.015,0.353-0.1,0.584-0.117
	c0,0.147-0.047,0.101,0.117,0.117c0.438,0.018,0.87,0.098,1.285,0.235c-0.03,0.004-0.057,0.018-0.078,0.039h0.779v-0.039
	c-0.725-0.18-1.383-0.886-2.1-1.019c-0.044,0.132-0.044,0.13-0.195,0.156c-0.584-0.219-1.206-0.326-1.831-0.313
	c0.043-0.1,0.07-0.205,0.078-0.313c-0.068-0.162-0.107-0.334-0.117-0.51c0.078-0.322,0.3-0.73,0.389-1.058
	c0.032-0.087,0-0.185-0.078-0.235l0.117-0.392c0.05-0.021,0.103-0.034,0.156-0.039c0.637,0.185,1.288,0.316,1.947,0.392
	c-0.036,0.118-0.079,0.064-0.039,0.157c0.04,0.093-0.017,0.027,0.078,0.078c0.485,0.113,0.983,0.153,1.48,0.118v-0.315h0.078
	c-0.042,0.123-0.012,0.259,0.078,0.352c0.153,0.033,0.313-0.01,0.428-0.117c0.039-0.22,0.052-0.443,0.039-0.666
	c0.087-0.688,0.113-1.383,0.078-2.076L12.394,6.5h0.039v0.392l-0.234,6.385c-0.089,0.664-0.089,1.336,0,2l0.234-6.033
	c0.129-0.6-0.136-2.117,0.117-2.507C12.458,9.569,12.368,12.402,12.277,15.236z M15.469,13.983c0.176,0.065,0.37,0.065,0.545,0
	H15.469z M16.326,14.022c0.021,0.021,0.048,0.035,0.078,0.039C16.383,14.04,16.356,14.026,16.326,14.022L16.326,14.022z
	 M14.262,14.766c0.067,0.035,0.05,0.035,0.117,0H14.262L14.262,14.766z M15.508,14.766c0.021,0.021,0.049,0.035,0.078,0.039
	C15.565,14.784,15.538,14.771,15.508,14.766L15.508,14.766z M15.313,14.966v0.074h0.039v-0.078h-0.037L15.313,14.966z
	 M22.479,15.984v-0.2h-0.076c-0.355-0.089-0.723-0.128-1.09-0.117c-0.541-0.197-1.104-0.329-1.675-0.392
	c-0.247-0.034-0.499-0.021-0.74,0.039c0.47-0.038,0.943,0.002,1.4,0.118c0.025,0.062,0.065,0.115,0.117,0.157
	c0.101-0.037,0.205-0.063,0.313-0.078c0.356,0.126,0.982,0.232,1.362,0.354h0.234c0.091,0.051-0.032,0.077,0.157,0.116
	L22.479,15.984z M22.674,15.784v0.157l0.117,0.039c0.116,0.057,0.236-0.032,0.428,0.039c0.055,0.081,0.082,0.177,0.078,0.274h0.117
	c-0.018-0.173,0.079-0.218,0.078-0.47L22.674,15.784z M22.635,16.019c0.03,0.062,0.088,0.105,0.156,0.117V16.1h0.039
	c-0.021-0.021-0.049-0.035-0.078-0.039c-0.033-0.025-0.073-0.04-0.115-0.041L22.635,16.019z M22.988,16.1
	c0.059,0.049,0.124,0.089,0.195,0.118C23.121,16.108,23.146,16.117,22.988,16.1z M22.91,16.139c0.031,0.107,0.123,0.185,0.234,0.2
	v-0.084L22.91,16.139z M23.261,16.339v0.039h-0.04c-0.074,0.03,0.078,0.039,0.078,0.039c-0.002-0.032-0.016-0.062-0.039-0.084
	L23.261,16.339z M9.628,17l-0.039,0.078C9.657,17.023,9.628,17,9.628,17z M0.281,18.1c-0.064,0.076-0.092,0.176-0.078,0.274
	c0.029,0.004,0.057,0.018,0.078,0.039c0.029-0.005,0.057-0.021,0.077-0.043c0.1-0.058,0.078-0.083,0.078-0.235L0.281,18.1z
	 M9.589,18.135c0.067,0.034,0.05,0.035,0.117,0H9.589z M10.289,18.213v0.078c0.157,0.022,0.316,0.01,0.467-0.039L10.289,18.213z
	 M0.318,18.723c0-0.043-0.013-0.084-0.039-0.117c-0.021,0.021-0.048,0.034-0.078,0.039v0.078H0.32H0.318z M0.357,19.857
	c0.004-0.275,0.03-0.551,0.078-0.822c-0.126-0.033-0.06,0.02-0.117-0.078c0.044-0.023,0.074-0.067,0.079-0.117H0.358V18.8
	c-0.067,0.013-0.137-0.002-0.195-0.039v0.157c-0.051,0.234-0.037,0.479,0.039,0.705c0.18,0.635,0.447,1.207,0.623,1.92
	c0.097,0.046,0.206,0.06,0.312,0.039C1.011,21.55,1.078,21.6,1.021,21.5c0.121-0.048,0.088-0.016,0.117-0.157
	c-0.021-0.021-0.035-0.048-0.039-0.077H1.06c-0.047,0.045-0.099,0.084-0.156,0.116V21.27c0.059-0.471-0.023-0.946-0.235-1.369
	c-0.098-0.041-0.206-0.055-0.311-0.041L0.357,19.857z M1.057,20.132c-0.036,0.118-0.079,0.063-0.039,0.157
	c0,0,0.017,0.156,0.039,0.078v-0.038c0.046-0.057,0.047-0.138,0.003-0.196L1.057,20.132z M1.569,21.348
	c-0.034,0.032-0.061,0.072-0.078,0.116h0.078v-0.038C1.614,21.364,1.591,21.406,1.569,21.348z M28.911,21.386v0.078h0.039
	c-0.005-0.029-0.021-0.057-0.042-0.077L28.911,21.386z M26.225,23.186c-0.28,0.156-0.585,0.262-0.9,0.313
	c0,0.19-0.137,0.53-0.117,0.548c0.029,0.063,0.088,0.105,0.156,0.117v-0.035c0.023-0.116,0.037-0.234,0.039-0.354
	c0.062,0.067,0.093,0.17,0.156,0.235v-0.038c0.043-0.02,0.082-0.047,0.116-0.078c-0.05-0.061-0.089-0.128-0.116-0.201h0.116
	c0.055,0.091,0.137,0.161,0.234,0.201v-0.039h0.039c-0.053-0.112-0.053-0.242,0-0.354c0.061,0.065,0.101,0.146,0.116,0.234
	c0.021-0.021,0.035-0.048,0.039-0.077c0.101-0.058,0.045,0.009,0.078-0.118c-0.031-0.035-0.059-0.074-0.078-0.117h0.117
	c0.037,0.104,0.127,0.18,0.234,0.2c0.023-0.063,0.037-0.132,0.039-0.2c-0.041-0.061-0.041-0.139,0-0.199
	c0.021,0.021,0.034,0.048,0.039,0.077c0.042,0.043,0.069,0.098,0.078,0.157c0.045-0.034,0.113-0.078,0.156-0.117
	c-0.149-0.133-0.352-0.189-0.547-0.152L26.225,23.186z M27.824,23.617V23.7c0.056-0.05,0.045-0.019-0.008-0.08L27.824,23.617z
	 M3.754,23.656v0.078h0.032V23.7h0.039c-0.021-0.022-0.048-0.036-0.078-0.041L3.754,23.656z M3.864,23.7v0.077h0.039
	C3.899,23.748,3.885,23.721,3.864,23.7z M4.059,23.816c-0.016,0.088-0.036,0.041,0,0.117c0.034,0.024,0.075,0.038,0.117,0.039
	l0.039-0.119L4.059,23.816z M27.27,23.895c0.021,0.021,0.048,0.034,0.078,0.039C27.326,23.912,27.299,23.898,27.27,23.895z
	 M4.328,23.973l-0.039,0.116h0.042c0.05-0.02,0.106-0.02,0.156,0v-0.078L4.328,23.973z M22.559,24.717
	c0.01-0.244-0.073-0.482-0.233-0.666v0.078l-0.273,0.235c0.028,0.089,0.042,0.181,0.039,0.274h0.078V24.6
	c0.039-0.039,0.038,0.039,0.039,0.039c0.038-0.089,0.093-0.17,0.161-0.238c0.004,0.108,0.03,0.215,0.078,0.313h0.111V24.717z
	 M4.604,24.09l-0.039,0.2c0.067,0.03,0.072,0.101,0.117,0.039c0.025-0.034,0.039-0.075,0.039-0.117
	C4.685,24.169,4.646,24.129,4.604,24.09z M26.688,24.129v0.078h0.039C26.723,24.178,26.709,24.15,26.688,24.129z M19.288,24.402
	h0.117l0.039,0.313h0.078c0.021-0.021,0.048-0.034,0.078-0.039c0.018-0.05,0.018-0.106,0-0.157
	c-0.011-0.129-0.084-0.245-0.195-0.313c-0.156,0.09-0.259,0.251-0.273,0.432h0.078c0.044-0.062,0.074-0.015,0.077-0.238
	L19.288,24.402z M16.639,24.716c0.018-0.165-0.023-0.332-0.117-0.47h-0.039v0.039c-0.034,0.029-0.044,0.049-0.078,0.078
	c0.024,0.109,0.063,0.215,0.117,0.313v0.039L16.639,24.716L16.639,24.716z M13.523,24.716h0.156c0.022-0.077,0.022-0.158,0-0.235
	c-0.008-0.059-0.035-0.114-0.078-0.156v0.039c-0.073,0.016-0.123,0.082-0.117,0.156C13.517,24.58,13.53,24.648,13.523,24.716
	L13.523,24.716z M26.104,24.363v0.078h0.078v-0.077L26.104,24.363L26.104,24.363z M10.563,24.676h0.156
	c0.024-0.09,0.024-0.184,0-0.273l-0.195,0.117C10.544,24.57,10.558,24.623,10.563,24.676L10.563,24.676z M7.603,24.676h0.156
	l0.039-0.199H7.759C7.678,24.515,7.62,24.589,7.603,24.676L7.603,24.676z M16.25,24.477c-0.045,0.04-0.073,0.096-0.078,0.156h0.077
	c0.052-0.07,0.064,0.018,0.078-0.156H16.25L16.25,24.477z M21.82,24.711h0.156c-0.002-0.08,0.012-0.16,0.039-0.234h-0.08
	c-0.08,0.052-0.125,0.145-0.117,0.24L21.82,24.711z M13.368,24.511c-0.042,0.042-0.097,0.069-0.156,0.078v0.039h0.077
	c0.015-0.009,0.162-0.032,0.08-0.106L13.368,24.511z M18.938,24.55c-0.045,0.041-0.073,0.097-0.078,0.157h0.039
	c0.073-0.034,0.029-0.02,0.117,0v-0.146h-0.079L18.938,24.55z M16.056,24.707c0-0.043-0.013-0.084-0.039-0.117
	c-0.021,0.021-0.048,0.035-0.078,0.039v0.078H16.056z M25.557,24.59v0.078c0.064-0.037,0.049-0.007,0.002-0.068L25.557,24.59z
	 M13.056,24.629c-0.03,0.027-0.087,0.051-0.117,0.078h0.156c-0.006-0.026-0.02-0.051-0.039-0.068V24.629z M24.969,24.873
	c0.021,0.021,0.049,0.035,0.078,0.039C25.025,24.891,24.998,24.877,24.969,24.873z M24.385,25.107v0.078h0.045v-0.039h0.039
	c-0.021-0.021-0.049-0.034-0.078-0.039H24.385z M23.762,25.266c0.016,0.1-0.029,0.051,0.078,0.077V25.3L23.762,25.266z M6.469,25.3
	v0.078h0.043V25.3H6.469z M8.3,25.3v0.078h0.082v-0.035L8.3,25.3z M8.923,25.3v0.078h0.082v-0.035L8.923,25.3z M9.546,25.3v0.078
	h0.082v-0.035L9.546,25.3z M10.169,25.3v0.039h-0.034c-0.055-0.006,0.039,0.039,0.039,0.039h0.078
	C10.258,25.318,10.191,25.335,10.169,25.3z M10.792,25.3v0.039h-0.034c-0.075,0.03,0.078,0.039,0.078,0.039
	c-0.004-0.029-0.018-0.058-0.039-0.078H10.792z M11.376,25.3v0.078h0.083v-0.035L11.376,25.3z M11.999,25.3v0.078h0.078v-0.035
	L11.999,25.3z M12.622,25.3v0.039h-0.034c-0.055-0.006,0.039,0.039,0.039,0.039h0.078c0.007-0.06-0.06-0.043-0.078-0.078H12.622z
	 M13.245,25.3c0.015,0.101-0.029,0.052,0.078,0.078v-0.035L13.245,25.3z M13.829,25.3v0.078h0.078V25.3h-0.072H13.829z M14.452,25.3
	v0.078h0.078V25.3h-0.072H14.452z M15.075,25.3c0.015,0.101-0.029,0.052,0.078,0.078V25.3h-0.072H15.075z M15.698,25.3
	c0.015,0.101-0.029,0.052,0.078,0.078V25.3h-0.072H15.698z M16.321,25.3c0,0.056,0,0-0.039,0.039
	c-0.055-0.006,0.039,0.039,0.039,0.039h0.078c0.013-0.06-0.054-0.043-0.072-0.078H16.321z M16.944,25.3c0,0.056,0,0-0.039,0.039
	c-0.055-0.006,0.039,0.039,0.039,0.039h0.078c0.013-0.06-0.053-0.043-0.071-0.078H16.944z M17.567,25.3c0,0.056,0,0-0.039,0.039
	c-0.055-0.006,0.039,0.039,0.039,0.039h0.078c0.013-0.06-0.054-0.043-0.076-0.078H17.567z M18.151,25.3v0.078h0.117v-0.035
	L18.151,25.3z M18.774,25.3c0.015,0.101-0.029,0.052,0.078,0.078V25.3h-0.071H18.774z M19.397,25.3
	c0.015,0.101-0.029,0.052,0.078,0.078V25.3h-0.071H19.397z M20.02,25.3c0.015,0.101-0.029,0.052,0.078,0.078V25.3h-0.071H20.02z
	 M20.643,25.3c0,0.056,0,0-0.039,0.039c-0.055-0.006,0.039,0.039,0.039,0.039h0.086c0.006-0.06-0.06-0.043-0.078-0.078H20.643z
	 M21.266,25.3c0,0.056,0,0-0.039,0.039c-0.055-0.006,0.039,0.039,0.039,0.039h0.078c0.014-0.06-0.053-0.043-0.074-0.078H21.266z
	 M21.85,25.3v0.078h0.117v-0.035L21.85,25.3z M22.473,25.3v0.078h0.086V25.3H22.48H22.473z M23.096,25.3v0.078h0.078V25.3h-0.07
	H23.096z M7.672,25.339c0.021,0.021,0.049,0.034,0.078,0.039c-0.019-0.019-0.043-0.03-0.069-0.035L7.672,25.339z"/>
</svg>
