<svg xmlns="http://www.w3.org/2000/svg" width="39.969" height="40" viewBox="0 0 39.969 40">
  <defs>
    <style>
      .cls-1 {
        fill: #fff;
        fill-rule: evenodd;
      }
    </style>
  </defs>
  <path id="Color_Fill_1" data-name="Color Fill 1" class="cls-1" d="M19.515,9H19.9l-0.049.428c0.531,0.242.226,0.793,0.534,1a0.183,0.183,0,0,1,.194-0.143,0.936,0.936,0,0,0,1.019.238,0.188,0.188,0,0,1,.146-0.1,1.631,1.631,0,0,0,.194.333c0.078-.107.08-0.1,0.146-0.095a0.664,0.664,0,0,0,.291.143,0.183,0.183,0,0,1,.194-0.143v0.143a12.768,12.768,0,0,0,2.621.1c0.3,0.431,1.837.09,2.233,0.57a1.229,1.229,0,0,0,.777.713,0.441,0.441,0,0,0,0,.333,5.839,5.839,0,0,0,1.456.047h3.058V12.516h0.049v0.19L40,12.753v0.428H32.767v0.1c0.247,0.053.3,0.224,0.291,0.523a2.659,2.659,0,0,1-1.845.285h-3.4a1.76,1.76,0,0,1-.485.238,0.38,0.38,0,0,1,0,.332,0.911,0.911,0,0,0-.728.76,0.628,0.628,0,0,1,.194.047,1.8,1.8,0,0,1-1.311.19v0.1h0.049a3.007,3.007,0,0,1,1.117-.048,0.37,0.37,0,0,0,.194.19,1.085,1.085,0,0,0-.1.38,0.258,0.258,0,0,1,.194.19,0.684,0.684,0,0,0,0,.665,0.407,0.407,0,0,1,.194.143,0.727,0.727,0,0,1,.534-0.143v0.047h0.049c0.029,0.2.112,0.425,0.146,0.618l-0.146.855H27.476V18.74c0.109,0.076.1,0.078,0.1,0.143-0.085.149-.241,0.35-0.146,0.38a0.732,0.732,0,0,1,.049.238,0.184,0.184,0,0,0-.1.142h0.1c0.047-.09.077-0.172,0.146-0.095a0.92,0.92,0,0,1,.1.19,4.68,4.68,0,0,1,.777.19,0.707,0.707,0,0,0,.1-0.19,0.856,0.856,0,0,1-.485-0.285h0.049V19.405c0.194,0.086.394,0.209,0.583,0.285V18.977a1.4,1.4,0,0,1-.049-0.618,10.768,10.768,0,0,1,1.117-.047c0.011,0.412,0,.688,0,1.14a0.937,0.937,0,0,0,.777.19c0.1-.057,0-0.091.1-0.095a0.8,0.8,0,0,1,.1.285c0.183,0.007.171-.022,0.243,0.1a0.316,0.316,0,0,1,.049.19l3.641-.19c-0.016-.135-0.051-0.1,0-0.19a0.294,0.294,0,0,0,.1.095,0.3,0.3,0,0,1,.049-0.19,0.3,0.3,0,0,0,.049.19,0.292,0.292,0,0,1,.1-0.095c-0.01.159-.1,0.114,0.048,0.19a1.846,1.846,0,0,1,.922-0.238v0.048H35.922a1.013,1.013,0,0,1-.437.238v0.047c0.2-.006.266-0.026,0.34,0.095,0.034,0.073.006,0.006,0,.143h-0.34v0.19l1.456-.095a7.907,7.907,0,0,0-.437,1.235h0.146c0.2,0.274.609,0.364,0.825,0.618v0.143a4.773,4.773,0,0,1,.485.713,2.479,2.479,0,0,1-.146,1.853c-0.6,1.465-2.747,1.918-4.078,2.708-0.909.54-1.932,0.92-2.864,1.473a8.255,8.255,0,0,1-1.359.76,6.417,6.417,0,0,1-1.845.095H5.291c-1.805,0-3.134.077-4.175-.665a3.186,3.186,0,0,1-.68-3.943,3.28,3.28,0,0,1,.68-0.76,1.069,1.069,0,0,0,.437-0.333h-0.1a0.4,0.4,0,0,1-.34,0v-0.1a1.721,1.721,0,0,1,.291-0.9c0.125-.308.071-0.573,0.194-0.855,0.07-.161.28-0.331,0.34-0.475V21.4a1.508,1.508,0,0,1,.631-0.618V20.735H2.282l-0.825.238V19.785c0.438,0.026.939,0.132,1.408,0.19l-0.1-.9-0.243.048V18.977h0.34v-0.19H3.01a4.147,4.147,0,0,1,.34-0.713,2.932,2.932,0,0,1,.1-0.713,0.332,0.332,0,0,1,.291-0.095c0.063,0.2-.062.2,0.194,0.238a0.424,0.424,0,0,1,.194-0.38,4.251,4.251,0,0,1,1.019-.285,8.292,8.292,0,0,1,1.748-.523V16.6H6.942a0.782,0.782,0,0,1,.34-0.047l0.146-.19c0.059-.035.035,0.03,0.049,0.047a2.013,2.013,0,0,0,.728.095,1.775,1.775,0,0,1,.777.048,0.528,0.528,0,0,1,.146-0.19,1.951,1.951,0,0,0,.825-0.1c-0.123-.07-0.075-0.021-0.1-0.19a2.541,2.541,0,0,1,.777,0c-0.013.311,0.034,0.343,0.437,0.333a9.08,9.08,0,0,1,1.65-.1c-0.015-.114-0.051-0.158.1-0.238a0.832,0.832,0,0,1,.68.047,0.4,0.4,0,0,1-.146.19c0.385,0.025.709,0.092,1.165,0.1a0.958,0.958,0,0,1,.437-0.333,0.26,0.26,0,0,1-.146-0.19c0.135-.086.113-0.206,0.243-0.285v0.047H15.1V15.6a0.552,0.552,0,0,0,.1-0.238H8.641v-0.1h6.6a0.486,0.486,0,0,0-.1-0.38,0.254,0.254,0,0,0,.243-0.143,0.37,0.37,0,0,1-.194-0.333,0.238,0.238,0,0,0,.146-0.047,0.184,0.184,0,0,1-.1-0.143c0.141-.061.1,0.054,0.146-0.143a0.294,0.294,0,0,1-.1-0.1c0.165-.1.1-0.021,0.1-0.238h0.146V13.656l0.582-1.71a4.557,4.557,0,0,1,.146-1.093c0.282-.173.778,0.067,1.116-0.1l0.049-.143a0.865,0.865,0,0,1,.437-0.095c0-.151.019-0.148,0.291-0.143V10.52h0.291V10.378a1.079,1.079,0,0,0,.534-0.1c0.054,0.136.008,0.088,0.146,0.143v-0.1a5.245,5.245,0,0,0,.243-0.855h0.146V9Zm1.845,1.568a0.258,0.258,0,0,0,.146.19l0.049-.19H21.359Zm-5,.523a0.176,0.176,0,0,0,.1.047A0.176,0.176,0,0,0,16.359,11.091Zm-1.214,4.561A6.171,6.171,0,0,0,16.5,15.7h0.049V15.652H15.146Zm12.913,3.9a0.137,0.137,0,0,1,0,.19v-0.19Zm2.718,0.428-0.049.142h0.1A0.226,0.226,0,0,0,30.777,19.975Zm0.146,0.095a0.176,0.176,0,0,0,.1.047A0.177,0.177,0,0,0,30.922,20.07Zm4.029,0.38h0.291V20.26H35v0.047H34.952V20.45Zm-3.932.047V20.64l3.689-.143V20.45h0.049V20.308A30.4,30.4,0,0,0,31.019,20.5Zm-0.291,0v0.1h0.1V20.545h0.049V20.5H30.728Zm-28.2.428a0.962,0.962,0,0,0-.485.808H2.087V21.638A1.459,1.459,0,0,0,2.524,20.925ZM34.854,21.4a1.093,1.093,0,0,0,.728-0.238c-0.287-.047-0.559-0.2-0.68.095A0.239,0.239,0,0,0,34.854,21.4Zm-32.33-.238a1.026,1.026,0,0,1-.049.475,0.509,0.509,0,0,0-.049-0.285V21.4a0.5,0.5,0,0,0-.194.38c0.071,0.12.061,0.087,0.243,0.1a0.176,0.176,0,0,1,.1-0.047A2.1,2.1,0,0,0,2.524,21.163Zm33.252,0.142c0.017,0.11.115,0.124,0.34,0.143V21.4a0.294,0.294,0,0,1-.1-0.1H35.777ZM1.99,21.971l-0.049.142C2.082,22.053,2.072,22.082,1.99,21.971ZM1.748,22.3a3.3,3.3,0,0,0-.194,1.71c0.106-.06.319-0.111,0.437-0.19a5.517,5.517,0,0,1,.485-0.95c-0.152-.23.042-0.238-0.388-0.238A1.187,1.187,0,0,0,1.748,22.3Zm-0.437,1.52a0.405,0.405,0,0,0-.1.285v0.047a0.455,0.455,0,0,0,.194-0.285ZM1.8,24.014v0.095L1.99,24.156V24.061H1.942V24.014H1.8Zm0.777,0.808a0.227,0.227,0,0,0,.049.142,1.058,1.058,0,0,0,.485.047,0.136,0.136,0,0,1,.049-0.047,0.136,0.136,0,0,0-.049-0.047,0.161,0.161,0,0,0-.049-0.095c-0.081.1-.137,0.146-0.243,0.095H2.767l0.049-.095H2.573Zm0.874,0a0.227,0.227,0,0,0,.049.142A0.227,0.227,0,0,0,3.447,24.821ZM1.214,25.867H1.408a2.17,2.17,0,0,0,.583-0.713H1.942V25.106h-0.1A1.925,1.925,0,0,0,1.214,25.867ZM31.6,26.959V26.674a3.738,3.738,0,0,1-.534-0.285H30.437V26.294H30.146v0.047a1.923,1.923,0,0,1,.34,2.043h0.049a11.344,11.344,0,0,1,1.8-.9c0.616-.366,1.277-0.659,1.942-1A3.65,3.65,0,0,1,35,26.1V26.057l-0.437-.1a0.493,0.493,0,0,1-.291.285V26.2a0.24,0.24,0,0,1-.048-0.143,0.4,0.4,0,0,0,.048-0.238l-1.213.38a2.589,2.589,0,0,0-.1.285A1.527,1.527,0,0,1,31.6,26.959Zm-17.718-.665a0.2,0.2,0,0,0,.194.095V26.294H13.884Zm1.942,0c0.036,0.041.061,0.054,0.1,0.095l0.146-.047V26.294H15.825Zm3.35,0a2.3,2.3,0,0,1,.388,2c-0.127.33-.44,0.558-0.582,0.855h0.049a2.034,2.034,0,0,1,.777-0.047,8.322,8.322,0,0,1,2.136.047V29.05a0.81,0.81,0,0,1-.388-0.475,2.017,2.017,0,0,1,.194-2.281h-0.68A6.936,6.936,0,0,1,19.175,26.294Zm5.68,0a0.2,0.2,0,0,0,.194.095c0.037-.032.108-0.062,0.146-0.095h-0.34Zm1.942,0c0.036,0.041.061,0.054,0.1,0.095l0.146-.047V26.294H26.8Zm-19.223.855a1.888,1.888,0,0,1-.243.57c-0.053.138,0.258,0.365,0.194,0.523a1.291,1.291,0,0,1-1.116,0A0.866,0.866,0,0,0,6.6,27.72a0.589,0.589,0,0,0-.631-0.143,0.594,0.594,0,0,1-.34.57C5.559,28.068,5.6,28.1,5.534,28.1a2.62,2.62,0,0,1-.874.95V29.1h6.262v0.047h0.049V29.05a0.682,0.682,0,0,1-.291-0.333,1.962,1.962,0,0,1,.049-2.328H10a1.251,1.251,0,0,1-1.165.333A4.06,4.06,0,0,1,8.4,26.389H7.67a0.841,0.841,0,0,0-.146.19c0.033,0.037.064,0.106,0.1,0.142a0.321,0.321,0,0,1,.194.38A0.777,0.777,0,0,1,7.573,27.149Zm-6.65-.713a2.863,2.863,0,0,0,0,1h0.1V27.387a0.472,0.472,0,0,0,.1-0.428,4.273,4.273,0,0,1,0-.475,0.137,0.137,0,0,1-.049-0.048H0.922ZM1.214,28V28.1a1.259,1.259,0,0,0,.728.618,0.239,0.239,0,0,0,.049-0.142A1.719,1.719,0,0,0,1.214,28Zm3.5,0a1.469,1.469,0,0,0-.534.76,0.568,0.568,0,0,0,.34.095,1.027,1.027,0,0,0,.534-0.76A0.293,0.293,0,0,1,4.951,28H4.709Zm9.515,0.333a2.266,2.266,0,0,1-.485.76h2.476V29.05c-0.31-.228-0.293-0.705-0.825-0.713A2.587,2.587,0,0,1,14.223,28.337Zm10.971,0a2.338,2.338,0,0,1-.485.76h2.476v0.047h0.049V29.05c-0.4-.2-0.274-0.7-0.874-0.713A2.587,2.587,0,0,1,25.194,28.337ZM2.573,29.05c0.3,0.02.655,0.047,1.019,0.047v-0.19a3.666,3.666,0,0,0-.971-0.047v0.047H2.573V29.05Z" transform="translate(-0.031 0.516)"/>
</svg>
