<svg xmlns="http://www.w3.org/2000/svg" width="39.938" height="40" viewBox="0 0 39.938 40">
  <defs>
    <style>
      .cls-1 {
        fill: #fff;
        fill-rule: evenodd;
      }
    </style>
  </defs>
  <path id="Color_Fill_1" data-name="Color Fill 1" class="cls-1" d="M17.143,17.443v0.294H16.855L16.9,18.472a3.175,3.175,0,0,0,1.345.343V18.227h0.144v0.588l0.1-.049V18.129c0.883,0,1.5.138,2.257,0.147a7.018,7.018,0,0,0,0,.784c0.539,0.28,1.413.273,1.729,0.49L22.425,19.4c0.156,0.114.131,0.051,0.1,0.245a0.907,0.907,0,0,1,.432-0.2,0.441,0.441,0,0,1,.192.392l0.1,0.049h0.864l-0.048.49,4.37,0.2,0.144-.294H30.78v0.245a3,3,0,0,1,1.489,0h5.522l1.3,0.049a0.516,0.516,0,0,1-.192-0.245l0.432-.049c0.067,0.37.3,0.256,0.672,0.343l-0.048.686-11.333.147c-0.161.019-.737-0.1-1.056-0.1l-2.641.1h-1.1a14.436,14.436,0,0,1-1.489.735v0.049a5.638,5.638,0,0,1,1.441.245c0.111,0.013.9-.233,1.2-0.245l0.048,0.1v0.294a0.7,0.7,0,0,1,.768.392c0.01,0,1.742.186,2.449,0.2a1.971,1.971,0,0,0,1.008.882,1.7,1.7,0,0,0,.288.832l-0.768.2c0.565,1.878-1.554,2.424-2.641,2.987l-1.585.832L21.8,29,5.474,28.951a10.124,10.124,0,0,1-3.6-2.84l-0.864-.049a0.441,0.441,0,0,1,.048-0.343l-0.24-.147c-0.011.219,0.052,0.111-.048,0.245H0.624c0.308-1.629-1.165-2.979-.336-4.309H0.336a0.9,0.9,0,0,1,.528.245c0.212-.566,1.658-0.351,2.4-0.343a14.5,14.5,0,0,1,1.873.245c1.145,0.176,2.547-.132,3.746.049l-0.192-.147c0.662-.047,2.04.464,2.593,0.245l-1.729-.832c-0.249-.07-0.666.023-1.008-0.049-0.439-.092-1.119.058-1.3-0.294l0.432-2.644,2.161,0.392v0.294l1.537-.049a13.668,13.668,0,0,1,0-1.518V17h0.336l0.048,0.147c-0.123.271-.15,1.479,0.144,1.567L11.957,10H12v8.717a1.652,1.652,0,0,1,.72,0,1.126,1.126,0,0,0-.336-0.147V18.521a0.339,0.339,0,0,1,.192-0.343,0.245,0.245,0,0,0,.144.245c0.338-.6,1.978.155,1.777-0.539l-0.144-.049c-0.093.148-.01,0.079-0.192,0.147-0.072-.27,0-0.341-0.384-0.392l-0.048.392-0.1-.049V17.492l-0.24-.049a0.567,0.567,0,0,1-.48.294,0.893,0.893,0,0,0-.192-0.588l0.1-.1a11.065,11.065,0,0,0,2.641.1v-0.2c0.255,0.3,1.721.412,1.681,0h0.144a0.658,0.658,0,0,0,.768.245l-0.048.245H17.143Zm-2.737.245a0.352,0.352,0,0,0,.144.147Zm0.768,0v0.441l0.192,0.049,0.72,0.049a1.065,1.065,0,0,1,.1-0.539H15.174Zm-1.1.637,0.144,0.049Zm1.249,0,0.192,0.049Zm7.443,1.322a0.465,0.465,0,0,0,.24.2V19.794l-0.048-.147H22.761Zm1.1,0.343a0.172,0.172,0,0,0,.144.1C23.923,19.988,24.009,20.053,23.866,19.99ZM0.432,21.655a0.468,0.468,0,0,0-.1.245H0.384c0.113-.186-0.022-0.087.192-0.1ZM22.041,22c0.077,0.185.021,0.114,0.192,0.2A0.54,0.54,0,0,0,22.041,22ZM0.288,22.83L0.48,23.662Zm0.24,0.93L0.912,24.74l0.048-.2-0.192-.686Zm0.48,1.077-0.1.245H1.056Zm24.394,2.2-0.048.392,1.249-.539-0.336-.147A1.652,1.652,0,0,1,25.4,27.041ZM4.418,27.09l0.288,0.147C4.6,27.1,4.653,27.119,4.418,27.09Zm3.361,0.832-0.192.294H8.019l-0.192-.2Zm8.691,0-0.192.294h0.432l-0.192-.2Zm-5.81.049-0.192.245H10.9l-0.144-.147A0.185,0.185,0,0,0,10.66,27.972Zm2.881,0-0.144.245h0.384l-0.144-.147A0.185,0.185,0,0,0,13.541,27.972Zm5.81,0-0.192.245h0.432Zm2.881,0-0.144.245h0.384l-0.144-.147A0.184,0.184,0,0,0,22.233,27.972Z" transform="translate(-0.063 0.5)"/>
</svg>
