<?xml version="1.0" encoding="utf-8"?>
<!-- Generator: Adobe Illustrator 16.0.0, SVG Export Plug-In . SVG Version: 6.00 Build 0)  -->
<!DOCTYPE svg PUBLIC "-//W3C//DTD SVG 1.1//EN" "http://www.w3.org/Graphics/SVG/1.1/DTD/svg11.dtd">
<svg version="1.1" id="Layer_1" xmlns="http://www.w3.org/2000/svg" xmlns:xlink="http://www.w3.org/1999/xlink" x="0px" y="0px"
	 width="39.938px" height="40px" viewBox="0 0 39.938 40" enable-background="new 0 0 39.938 40" xml:space="preserve">
<path id="Color_Fill_1" fill="#FFFFFF" d="M17.08,13.943v0.294h-0.288l0.045,0.735c0.417,0.212,0.877,0.329,1.345,0.343v-0.588
	h0.145v0.588l0.1-0.049v-0.637c0.883,0,1.5,0.138,2.257,0.147c-0.015,0.261-0.015,0.523,0,0.784c0.539,0.28,1.413,0.273,1.729,0.49
	l-0.051-0.15c0.156,0.114,0.132,0.051,0.101,0.245c0.123-0.104,0.272-0.173,0.432-0.2c0.129,0.088,0.202,0.237,0.192,0.392
	l0.1,0.049h0.864l-0.048,0.49l4.37,0.2l0.144-0.294h2.201v0.245c0.488-0.125,1.001-0.125,1.489,0h5.521l1.3,0.049
	c-0.087-0.061-0.154-0.146-0.191-0.245l0.432-0.049c0.067,0.37,0.3,0.256,0.672,0.343l-0.048,0.686l-11.333,0.147
	c-0.161,0.019-0.736-0.101-1.056-0.101l-2.642,0.101h-1.1c-0.481,0.273-0.979,0.519-1.489,0.735v0.049
	c0.489,0.019,0.974,0.102,1.441,0.245c0.111,0.013,0.9-0.233,1.2-0.245l0.048,0.1v0.294c0.315-0.062,0.632,0.101,0.768,0.392
	c0.011,0,1.742,0.187,2.449,0.201c0.223,0.402,0.579,0.714,1.008,0.881c0.021,0.299,0.121,0.586,0.288,0.832l-0.768,0.201
	c0.564,1.877-1.555,2.424-2.642,2.986l-1.585,0.832L21.737,25.5L5.411,25.451c-1.401-0.659-2.634-1.631-3.601-2.84l-0.863-0.049
	c-0.032-0.117-0.015-0.24,0.048-0.344l-0.24-0.146c-0.011,0.219,0.052,0.111-0.048,0.244H0.561c0.309-1.629-1.165-2.979-0.336-4.309
	h0.048c0.198,0.021,0.385,0.107,0.528,0.245c0.212-0.565,1.658-0.351,2.4-0.343c0.629,0.041,1.254,0.123,1.873,0.245
	c1.145,0.176,2.547-0.132,3.745,0.049l-0.191-0.147c0.662-0.047,2.04,0.465,2.593,0.245L9.492,17.47
	c-0.249-0.069-0.666,0.023-1.009-0.049c-0.438-0.092-1.118,0.058-1.3-0.294l0.433-2.644l2.16,0.392v0.294l1.537-0.049
	c-0.027-0.506-0.027-1.013,0-1.518V13.5h0.336l0.049,0.147c-0.123,0.271-0.15,1.479,0.144,1.567L11.894,6.5h0.043v8.717
	c0.237-0.053,0.483-0.053,0.721,0c-0.104-0.067-0.217-0.116-0.337-0.147v-0.049c-0.015-0.144,0.062-0.281,0.192-0.343
	c-0.009,0.104,0.049,0.203,0.145,0.245c0.338-0.6,1.978,0.155,1.776-0.539l-0.144-0.049c-0.093,0.148-0.01,0.079-0.192,0.147
	c-0.072-0.27,0-0.341-0.384-0.392l-0.048,0.392l-0.101-0.049v-0.441l-0.239-0.049c-0.097,0.176-0.279,0.288-0.48,0.294
	c0.008-0.213-0.06-0.421-0.192-0.588l0.101-0.1c0.873,0.139,1.76,0.172,2.641,0.1v-0.2c0.255,0.3,1.722,0.412,1.682,0h0.144
	c0.17,0.247,0.486,0.348,0.769,0.245l-0.049,0.245H17.08V13.943z M14.343,14.188c0.032,0.062,0.082,0.113,0.144,0.147L14.343,14.188
	z M15.111,14.188v0.441l0.192,0.049l0.72,0.049c-0.014-0.185,0.021-0.371,0.101-0.539H15.111z M14.011,14.825l0.145,0.049
	L14.011,14.825z M15.26,14.825l0.192,0.049L15.26,14.825z M22.703,16.147c0.055,0.092,0.139,0.163,0.239,0.2v-0.053l-0.048-0.147
	h-0.196H22.703z M23.803,16.49c0.026,0.057,0.081,0.096,0.145,0.1C23.86,16.488,23.946,16.553,23.803,16.49z M0.369,18.155
	c-0.057,0.07-0.091,0.155-0.101,0.245h0.052c0.113-0.187-0.021-0.088,0.192-0.101L0.369,18.155z M21.978,18.5
	c0.077,0.186,0.021,0.114,0.192,0.2C22.124,18.617,22.059,18.549,21.978,18.5z M0.225,19.33l0.192,0.832L0.225,19.33z M0.465,20.26
	l0.384,0.98l0.048-0.2l-0.191-0.687L0.465,20.26z M0.945,21.337l-0.1,0.245h0.148L0.945,21.337z M25.339,23.537l-0.048,0.392
	l1.249-0.538l-0.336-0.147c-0.256,0.179-0.556,0.282-0.867,0.298L25.339,23.537z M4.355,23.59l0.288,0.147
	C4.537,23.6,4.59,23.619,4.355,23.59z M7.716,24.422l-0.192,0.294h0.433l-0.192-0.2L7.716,24.422z M16.407,24.422l-0.192,0.294
	h0.432l-0.191-0.2L16.407,24.422z M10.597,24.471l-0.191,0.245h0.432l-0.145-0.147c-0.018-0.043-0.053-0.077-0.096-0.096V24.471z
	 M13.478,24.471l-0.144,0.245h0.384l-0.144-0.147c-0.019-0.043-0.054-0.077-0.097-0.096V24.471z M19.288,24.471l-0.192,0.245h0.432
	L19.288,24.471z M22.169,24.471l-0.145,0.245h0.385l-0.145-0.147c-0.018-0.043-0.052-0.077-0.095-0.096L22.169,24.471z"/>
</svg>
