<?xml version="1.0" encoding="utf-8"?>
<!-- Generator: Adobe Illustrator 16.0.0, SVG Export Plug-In . SVG Version: 6.00 Build 0)  -->
<!DOCTYPE svg PUBLIC "-//W3C//DTD SVG 1.1//EN" "http://www.w3.org/Graphics/SVG/1.1/DTD/svg11.dtd">
<svg version="1.1" id="Layer_1" xmlns="http://www.w3.org/2000/svg" xmlns:xlink="http://www.w3.org/1999/xlink" x="0px" y="0px"
	 width="40px" height="40px" viewBox="0 0 40 40" enable-background="new 0 0 40 40" xml:space="preserve">
<path id="it_m4a4_sherman_ico" fill="#FFFFFF" d="M14.939,10.43l0.143,0.028v0.79c-0.081,0.176-0.11,0.372-0.086,0.564
	c0.324,0.07,0.662,0.009,0.941-0.169c-0.027-0.089-0.065-0.175-0.114-0.254c0.011-0.007,0.021-0.017,0.028-0.028
	c0.012,0.007,0.022,0.017,0.029,0.028c0.038,0.096,0.096,0.183,0.171,0.254c0.111-0.1,0.308-0.1,0.428-0.2
	c0.035-0.127,0.083-0.25,0.143-0.367c0.113-0.065,0.203-0.164,0.257-0.282c-0.032-0.012-0.061-0.031-0.085-0.056v-0.026h0.029
	c0.054-0.052,0.125-0.083,0.2-0.085v-0.112c0.076-0.011,0.152-0.011,0.228,0c-0.012,0.058-0.031,0.115-0.057,0.169
	c0.04,0.003,0.078,0.012,0.114,0.028c-0.009,0.042-0.028,0.081-0.057,0.113c0.406,0.058,0.818,0.067,1.226,0.028
	c0.093-0.025,0.188-0.042,0.283-0.053c0.008-0.368,0.209-0.135,0.485-0.226c0.068-0.058,0.146-0.105,0.228-0.141
	c0,0.174,0.049,0.193,0.057,0.367l0.713,0.056c0.021-0.112,0.095-0.208,0.2-0.254c0.034-0.021,0.075-0.031,0.114-0.028
	c0.291,0.329,0.262,0.3,0.885,0.282c0.097,0.062,0.203,0.11,0.313,0.141v-0.62c0.021-0.034,0.032-0.073,0.029-0.113l-0.371-0.028
	v-0.37c-0.271-0.145-0.585-0.185-0.884-0.113c-0.094-0.007-0.187,0.023-0.257,0.085c-0.019,0.024-0.029,0.055-0.029,0.085H20.1
	c-0.008-0.078-0.027-0.154-0.057-0.226h-1.112c-0.055,0.05-0.125,0.08-0.2,0.085V9.753h0.029c0.025-0.018,0.055-0.028,0.086-0.028
	V9.612h-0.058c-0.103-0.032-0.212-0.032-0.314,0V9.556c-0.026-0.053-0.036-0.111-0.028-0.169h-0.114V9.133h0.114
	c-0.002-0.104,0.007-0.208,0.028-0.31h0.143c0.208,0.039,0.423,0.029,0.627-0.028V8.682c0.126-0.051,0.264-0.07,0.4-0.056
	c0.067,0.168,0.071,0.183,0.371,0.169c0.167,0.042,0.342,0.051,0.512,0.028h1.312V8.682h0.029c0.13,0.043,0.271,0.043,0.399,0
	c0,0.173-0.01,0.148,0.2,0.141c0.023-0.083,0.033-0.168,0.029-0.254h0.142l0.029,0.338c0.535,0.104,1.082,0.132,1.625,0.085v0.085
	c1.523,0.006,3.171,0.054,4.7,0.056v0.254c-1.251,0-2.586,0.021-3.849,0.028V9.5c-0.04-0.003-0.078-0.013-0.114-0.028
	c0.009,0.068-0.001,0.137-0.029,0.2V9.5h-0.34c0.005,0.049-0.005,0.098-0.029,0.141c0-0.208-0.134-0.208-0.342-0.2v0.085h-1.54
	c-0.078,0.227-0.106,0.467-0.085,0.705h-0.056c-0.073,0.044-0.27,0.011-0.342,0.056c0.065,0.229,0.094,0.467,0.084,0.705
	c0.439,0,0.82,0.052,1.2,0.056c-0.003,0.061,0.031,0.116,0.087,0.141c0.055-0.074,0.137-0.125,0.228-0.141v0.338
	c0.147,0.051,0.3,0.079,0.456,0.085c0.255-0.314-0.09-1.183,0.484-1.184c0.145,0.288,0.214,0.608,0.2,0.931h0.085
	c0.12,0.089,0.218,0.205,0.285,0.338c0.018,0.146-0.013,0.294-0.085,0.423c0.06,0.255,0.188,0.49,0.371,0.677h0.2
	c0.176-0.043,0.357-0.052,0.537-0.026c-0.047-0.087-0.022-0.195,0.057-0.254c0.139-0.039,0.283-0.058,0.428-0.056
	c0.063-0.061,0.121-0.128,0.172-0.2c0.475,0.173,0.869,0.515,1.111,0.959c0.053,0.192,0.141,0.374,0.257,0.536
	c0.426,0.053,0.854,0.072,1.283,0.056v0.141l10.121,0.113v0.62c-0.664,0.075-1.334,0.084-2,0.028
	c-0.216,0.049-0.438,0.058-0.656,0.028H35.5l-5.788,0.085V14.8c-0.421,0.092-0.855,0.111-1.282,0.056
	c-0.016,0.015-0.036,0.025-0.058,0.028c-0.011,0.176-0.093,0.339-0.228,0.451c-0.133,0.068-0.281,0.098-0.429,0.085
	c-0.041-0.094-0.099-0.18-0.171-0.254c-0.088,0.082-0.227,0.114-0.314,0.2c0.092,0.1,0.144,0.4,0.201,0.423h0.883
	c0.076-0.113,0.207-0.178,0.343-0.169c0.206,0.148,0.462,0.208,0.713,0.169c0.03-0.053,0.069-0.101,0.114-0.141l0.826,0.085
	c-0.014,0.027-0.014,0.058,0,0.085h0.029v-0.029c0.08-0.122,0.23-0.179,0.371-0.141c0.063,0.029,0.131,0.048,0.2,0.056
	c0.013,0.153,0.042,0.304,0.085,0.451c0.221,0.072,0.451,0.11,0.684,0.113v-0.056l0.57,0.056v0.056
	c0.089,0.044,0.211,0.008,0.285,0.056c0.117,0.101,0.223,0.214,0.314,0.338c0.047,0.127,0.104,0.249,0.17,0.367
	c0.076,0.02,0.145,0.059,0.201,0.113c0.066,0.163,0.115,0.333,0.143,0.508h0.027c0.041-0.049,0.021-0.079,0.058-0.028
	c0.073,0.086,0.125,0.174,0.2,0.254c0.131-0.063,0.281-0.073,0.422-0.031c0.318,0.106,0.193,0.252,0.342,0.451
	c0.095,0.072,0.201,0.129,0.314,0.168c0.056,0.069,0.139,0.11,0.228,0.113c0.058-0.092,0.077-0.203,0.057-0.31
	c-0.101-0.012-0.188-0.076-0.228-0.169c0.039-0.047,0.088-0.086,0.143-0.113c0.121-0.072,0.26-0.111,0.4-0.113v0.141h0.084v0.17
	h-0.086c0,0.058-0.01,0.115-0.029,0.169c0.077-0.011,0.156-0.001,0.229,0.028c0.036,0.118,0.046,0.244,0.028,0.366l0.343-0.028
	c0.116-0.259,0.083-0.561-0.086-0.789c-0.057-0.042-0.097-0.102-0.115-0.17h0.029v-0.023l0.144-0.028
	c0.331,0.307,0.392,0.809,0.143,1.186h0.343c0.109,0.034,0.227,0.044,0.342,0.028v0.254c-0.324-0.027-0.65-0.008-0.969,0.056
	c0.017,0.063,0.11,0.42,0.113,0.423c0.129,0.065,0.254,0.141,0.371,0.227c0.144-0.104,0.31-0.173,0.484-0.201l0.029-0.199
	c0.275-0.164,0.595-0.234,0.912-0.2c0.072,0.249,0.072,0.513,0,0.763h-0.144c0.028,0.12,0.048,0.242,0.057,0.366
	c0.766-0.031,1.519,0.198,2.138,0.649c-0.146,0.168-0.279,0.348-0.399,0.535c0.204,0.186,0.361,0.418,0.456,0.678
	c-0.036,0.02-0.066,0.049-0.086,0.085c0.034,0.066,0.083,0.124,0.143,0.169c0.025-0.019,0.055-0.028,0.086-0.028
	c0.061,0.279,0.1,0.563,0.115,0.849h-0.027v0.027h-0.087l-0.028,0.254h0.113c-0.037,0.29-0.135,0.568-0.285,0.818l-0.143-0.027
	c-0.011,0.078-0.052,0.15-0.113,0.199c0.039,0.028,0.068,0.068,0.086,0.113c-0.189,0.221-0.41,0.41-0.656,0.564
	c-0.014-0.033-0.033-0.134-0.058-0.057c-0.06,0.034-0.116,0.072-0.171,0.113c0.023,0.044,0.023,0.097,0,0.141
	c-0.164,0.158-0.357,0.283-0.57,0.367c-0.031-0.081-0.004-0.052-0.086-0.085c-0.029,0.038-0.068,0.067-0.113,0.085
	c0.019,0.045,0.019,0.096,0,0.141l-0.514,0.367c-0.07-0.021-0.093-0.089-0.113-0.056c-0.082,0.001-0.146,0.067-0.145,0.149
	c0,0.006,0,0.013,0.001,0.02c0.027,0.05,0.007,0,0,0.056c-0.181,0.128-0.371,0.241-0.569,0.338c-0.02-0.021-0.037-0.063-0.058-0.085
	c-0.054,0.051-0.111,0.098-0.171,0.141c0.023,0.036,0.043,0.074,0.057,0.113c-0.244,0.075-0.377,0.295-0.627,0.367
	c-0.023-0.092,0.014-0.043-0.057-0.085c-0.036,0.047-0.078,0.065-0.114,0.113c-0.011,0.046-0.011,0.095,0,0.141
	c-0.223,0.121-0.464,0.207-0.713,0.255v-0.115h-0.056c-0.029,0.021-0.114,0.037-0.143,0.057c-0.018,0.045-0.047,0.085-0.086,0.113
	c-0.234,0.053-0.477,0.063-0.714,0.027v-0.111h-0.227c0,0.03-0.011,0.061-0.029,0.084c-0.243,0.056-0.494,0.065-0.741,0.029v-0.113
	h-0.228v0.113h-0.771c0.004-0.039,0.014-0.078,0.029-0.113h-0.257v0.113h-0.741v-0.113h-0.229v0.113h-0.77
	c0.004-0.039,0.014-0.078,0.029-0.113H29.65v0.113h-0.74v-0.113h-0.229v0.113h-0.742v-0.113h-0.228v0.113h-0.741v-0.113h-0.228
	v0.113H26v-0.113h-0.227v0.113h-0.741v-0.113H24.8v0.113h-0.737v-0.113h-0.228v0.113h-0.742v-0.113h-0.228v0.113h-0.741v-0.113H21.9
	v0.113h-0.745c-0.044-0.125-0.033-0.119-0.257-0.113c0.011,0.063,0.025,0.031,0,0.084c-0.244,0.056-0.495,0.065-0.741,0.029
	c0.003-0.039,0.013-0.078,0.029-0.113h-0.257c0.011,0.063,0.026,0.031,0,0.084c-0.243,0.056-0.495,0.065-0.741,0.029
	c0.003-0.039,0.013-0.078,0.029-0.113h-0.258c0.011,0.063,0.026,0.031,0,0.084c-0.243,0.056-0.494,0.065-0.741,0.029v-0.113H17.99
	v0.113h-0.741v-0.113h-0.228v0.113h-0.742v-0.113h-0.256v0.027c0.019,0.025,0.029,0.055,0.029,0.086H15.31v-0.113h-0.256v0.027
	c0.019,0.025,0.028,0.055,0.029,0.086h-0.742v-0.113h-0.257c0.011,0.063,0.026,0.031,0,0.084c-0.243,0.056-0.494,0.065-0.741,0.029
	c0.003-0.039,0.013-0.078,0.028-0.113h-0.256c0.011,0.063,0.026,0.031,0,0.084c-0.243,0.056-0.495,0.065-0.741,0.029v-0.113h-0.229
	v0.113H11.4v-0.113h-0.224v0.113h-0.741v-0.113h-0.228v0.113H9.465v-0.113H9.237v0.113H8.5v-0.113H8.268v0.113L7.47,27.8
	c0.014-0.036,0.014-0.076,0-0.112c-0.053-0.053-0.125-0.083-0.2-0.086c-0.279,0.011-0.552-0.079-0.77-0.254
	c0.021-0.045,0.021-0.096,0-0.141l-0.2-0.085c-0.012,0.101,0.013,0.071-0.057,0.112c-0.169-0.155-0.483-0.155-0.656-0.31
	c-0.1-0.091,0.055-0.129-0.114-0.2c-0.036-0.022-0.074-0.041-0.114-0.056c-0.005,0.043-0.026,0.083-0.057,0.113
	c-0.256-0.095-0.497-0.228-0.713-0.396c0.045-0.076,0.025-0.078-0.057-0.113c-0.042-0.031-0.087-0.059-0.114-0.027
	c-0.03,0.032-0.07,0.053-0.114,0.056c-0.248-0.076-0.473-0.212-0.656-0.395c0.016-0.015,0.026-0.035,0.029-0.056
	c-0.073-0.037-0.149-0.065-0.228-0.086c-0.032,0.082,0,0.053-0.086,0.086L2.68,25.518c0.093-0.256-0.132-0.177-0.285-0.141
	c-0.209-0.158-0.41-0.328-0.6-0.508c0.035-0.021,0.064-0.051,0.086-0.085c-0.035-0.05-0.073-0.097-0.114-0.142l-0.143,0.028
	c-0.152-0.234-0.268-0.491-0.342-0.761c0.1-0.02,0.078,0,0.114-0.085c-0.026-0.053-0.036-0.111-0.029-0.169H1.254
	C1.22,23.479,1.21,23.299,1.225,23.12c0.035-0.09,0.055-0.186,0.057-0.282c0.037,0.014,0.077,0.014,0.114,0
	c0.037-0.063,0.065-0.13,0.086-0.2c-0.1-0.026-0.089-0.011-0.114-0.112c0.149-0.196,0.283-0.403,0.4-0.62
	C1.839,21.93,1.861,22,1.882,21.965c0.073-0.045,0.124-0.117,0.143-0.199c-0.059-0.074-0.042-0.022,0-0.113
	C1.8,21.521,1.59,21.335,1.368,21.2l-0.257-0.085L1.14,21.03c-0.112-0.073-0.238-0.12-0.37-0.138l0.03-0.084l0.314-0.084V20.7
	c-0.117,0.019-0.228-0.056-0.257-0.169c0.031-0.031,0.051-0.07,0.057-0.113C0.6,20.334,0.302,20.201,0.03,20.023
	c-0.016-0.15,0.025-0.301,0.113-0.424c0.121-0.313,0.226-0.634,0.314-0.959L0,18.468v-0.085c0.023-0.035,0.042-0.073,0.057-0.113
	l0.485,0.17c0.058-0.158,0.134-0.311,0.228-0.451c0.137-0.301,0.206-0.601,0.342-0.874c0.459,0.074,0.897,0.248,1.283,0.508
	c0.004,0.076-0.005,0.153-0.029,0.226h0.029c0.049-0.042,0.108-0.071,0.171-0.085c-0.013-0.106-0.072-0.124,0.086-0.141
	c0.079-0.087,0.176-0.155,0.285-0.2c-0.028-0.063-0.038-0.132-0.029-0.199c0.359-0.051,0.721-0.078,1.083-0.086
	c0.012-0.059,0.031-0.115,0.057-0.169c-0.082-0.032-0.053,0-0.086-0.085c0.035-0.061,0.055-0.129,0.057-0.199
	c0.498-0.035,0.994-0.102,1.483-0.201l0.884-0.028l0.771-0.141c-0.015,0.184,0.106,0.35,0.285,0.395
	c0.5-0.592,1.25-0.916,2.024-0.874h0.371c0.227,0.063,0.446,0.148,0.656,0.254c0.07,0.097,0.17,0.167,0.285,0.2
	c0.254-0.149,0.535-0.245,0.827-0.282c0.281-0.091,0.626-0.247,0.912-0.31c0.145-0.032,0.561,0.057,0.8,0.056v0.085L12.66,15.81
	l-0.03,0.09c-0.067,0.181-0.078,0.377-0.029,0.564c0.443-0.077,0.88-0.181,1.311-0.31c-0.003,0.039-0.013,0.077-0.029,0.113h0.228
	c0.106,0.045,0.23,0.023,0.314-0.056c0.108-0.019,0.219,0.001,0.314,0.056c0.007-0.012,0.017-0.021,0.029-0.028
	c-0.121-0.093-0.176-0.247-0.143-0.396h0.342v-0.112c-0.432,0.006-0.984-0.093-1-0.508c-0.031-0.081-0.041-0.168-0.029-0.254
	c-0.136-0.012-0.271-0.041-0.4-0.085c-0.075,0.019-0.151,0.028-0.228,0.028c-0.314-0.043-0.584-0.246-0.713-0.536
	c0.019-0.271,0.107-0.534,0.257-0.761c0.142-0.102,0.295-0.187,0.456-0.254c0.172-0.13,0.336-0.271,0.49-0.422
	c0.025-0.024,0.032-0.093,0.057-0.113c0.06-0.008,0.118-0.027,0.171-0.056c0.072-0.314,0.091-0.638,0.057-0.959h0.627
	c0-0.462-0.055-0.851-0.057-1.354c0.149-0.043,0.126-0.18,0.114-0.367c0.096-0.549,0.115-1.109,0.057-1.664v-2.9
	C14.793,5.018,14.802,4.507,14.854,4c0.016,0.015,0.026,0.035,0.029,0.056c0.042,0.166,0.051,0.338,0.028,0.508V5.8
	C14.911,7.345,14.943,8.935,14.939,10.43z M24.52,9.697h0.057v0.028C24.555,9.723,24.535,9.714,24.52,9.7V9.697z M25.061,9.697
	h0.058v0.028c-0.021-0.002-0.042-0.011-0.058-0.025V9.697z M24.234,9.725c0.076-0.011,0.155-0.001,0.228,0.028
	C24.385,9.764,24.307,9.754,24.234,9.725z M25.175,9.725c0.077-0.011,0.155-0.001,0.228,0.028
	C25.326,9.764,25.247,9.754,25.175,9.725z M24.175,9.753h0.058v0.028c-0.021-0.003-0.041-0.013-0.056-0.028H24.175z M25.43,9.753
	h0.057c-0.032,0.047-0.01,0.035-0.055,0H25.43z M24.175,9.953h1.312v0.028c-0.016,0.015-0.025,0.035-0.028,0.056h-1.281V9.979
	c-0.028-0.063-0.038-0.132-0.028-0.2h0.028v0.169L24.175,9.953z M25.486,9.812c0.033,0.041,0.033,0.1,0,0.141V9.81V9.812z"/>
</svg>
