<svg xmlns="http://www.w3.org/2000/svg" width="79.75" height="40" viewBox="0 0 79.75 40">
  <defs>
    <style>
      .cls-1 {
        fill: #fff;
        fill-rule: evenodd;
      }
    </style>
  </defs>
  <path id="Color_Fill_1" data-name="Color Fill 1" class="cls-1" d="M45.747,8h0.345a3.81,3.81,0,0,1-.115.906H45.632c0,1.627,0,3.138,0,4.985H45.4V13.665c0.349-.533.13-2.171,0.115-2.946a2.506,2.506,0,0,0-.8-0.113,0.592,0.592,0,0,0-.345-0.113c0.04,0.8.227,1.663-.23,1.926-0.044-.3.085-0.148-0.23-0.227,0.023,0.744.018,0.905,0,1.7a0.561,0.561,0,0,0,.345-0.113c0.08-.114.148-0.453,0.23-0.566a1.394,1.394,0,0,0,.345.906H44.483a6.045,6.045,0,0,1-.115,2.379,2.252,2.252,0,0,0-.115-0.793H43.908c0.027,0.807.057,1.8,0,2.719h0.46a1.816,1.816,0,0,1,.115-1.246v0.113c0.2,0.179.364,0.4,0.575,0.566V18.99H45.4a5.825,5.825,0,0,1,.92-1.246V17.291a6.27,6.27,0,0,0,2.069-.227V16.951a0.973,0.973,0,0,1-.575-0.113h0.575v-0.68a0.973,0.973,0,0,1-.575-0.113h0.69l0.115-1.02a0.56,0.56,0,0,1-.345-0.113h0.115V14.8a10.719,10.719,0,0,0,1.149,0v0.34h-0.69v0.227a0.831,0.831,0,0,1,.23.68,1.507,1.507,0,0,1,.8.113h-0.8v0.68c1.249-.046,1.8-0.943,2.874-1.246V15.7H51.839a0.929,0.929,0,0,0-.345.906h0.575a5.1,5.1,0,0,1,.115-0.567l0.46,0.34V16.158a2.48,2.48,0,0,0-.69-0.68h0.23c0.111-.028.044-0.089,0.115,0,0.227,0.171.356,0.673,0.575,0.793,0.464,0.254,1.161.013,1.609,0.34l1.264,1.813,1.034,0.113c1.156,0.48,1.733,1.618,1.724,3.286h0.92a5.494,5.494,0,0,0-.345-1.7h0.46a2.051,2.051,0,0,0,.345.453v1.246l0.69-.113V21.37a1.3,1.3,0,0,1-.23-1.02c0.327,0,.045.089,0.345-0.113V20.69c0.373-.094.176,0.056,0.345-0.227-0.15-.063-0.085,0-0.115-0.113,0.137-.088.553-0.136,0.69-0.227h-0.46L60.69,18.2a1.742,1.742,0,0,1,.46-0.227c0.065,0.532.1,0.55,0.69,0.566a5.675,5.675,0,0,1,.575-1.473V16.951c0.225-.047.083,0.174,0.23,0,0.233-.186-0.081-0.132.23-0.227,0.269,0.031,2.407-.507,2.874.567a0.969,0.969,0,0,1,.115.566H65.747v-0.34a3.533,3.533,0,0,1-1.264.227V17.97H64.6a0.591,0.591,0,0,0,.345.113V17.97H64.828c-0.221-.088.23-0.113,0.23-0.113,0.3,0.321.349,0.179,0.69,0,0.014,0.451.012,0.353,0.69,0.34,0.531,0.346,2.066.08,2.644,0v0.227H65.632a1.006,1.006,0,0,1-.575.113V18.65a2.073,2.073,0,0,1,.115,1.02,0.621,0.621,0,0,1,.46.34,12.414,12.414,0,0,1,2.184-.453V20.35h0.919v0.793l2.184-.113a0.543,0.543,0,0,1,.115-0.34v0.34h0.345a0.937,0.937,0,0,1,.115-0.566V21.03h0.345a1.174,1.174,0,0,0,.23-0.68c-0.081-.175-0.015-0.015,0-0.34h0.575c-0.007.29-.084,0.218,0.345,0.34v0.113a0.75,0.75,0,0,0-.46.113h0.23a0.809,0.809,0,0,0,.345.113V20.576a1.841,1.841,0,0,1,1.035-.113,0.546,0.546,0,0,0,.575.227V20.576h0.115a1.735,1.735,0,0,1,.115-0.906,0.815,0.815,0,0,0,.23.906,0.489,0.489,0,0,1,.46,0,0.593,0.593,0,0,1,.69-0.567,0.826,0.826,0,0,0,.46.227c-0.063-.348-0.186-0.8.23-0.907v0.227a3.883,3.883,0,0,0-.23,1.02h0.345a0.937,0.937,0,0,1,.115-0.567,0.938,0.938,0,0,0,.115.567,0.918,0.918,0,0,1,.8-0.453c0.054,0.248,0,.2.115,0.227h0.115v0.113a0.573,0.573,0,0,0,.115-0.34c0.372-.543.281-1.527,0.69-2.04l-0.46,2.266h0.115v0.113a0.624,0.624,0,0,1,.575-0.113V17.631a11.665,11.665,0,0,1,0-2.719,0.963,0.963,0,0,0,.345.227,0.445,0.445,0,0,0-.23.227c0.381-.022-0.414,4.247,0,4.985,0.1,0.173.383-.062,0.345,0.34a11.251,11.251,0,0,1-.575,1.246s-1.681,5.5-3.1,6.345c-2.541,1.51-7.625.432-10.919,1.246-0.848.21-2.046-.063-2.759,0.113H58.851a27.06,27.06,0,0,1-4.943.113c-2.445.044-5.3,0.113-7.931,0.113-3.828,0-7.9-.108-11.609.227-2.284.206-5.059-.4-7.126,0.113H25.632c-1.8,0-4.167-.277-5.747.113a10.692,10.692,0,0,1-4.828-.453,18.964,18.964,0,0,0-6.207.227,2.426,2.426,0,0,1-.23.793A0.764,0.764,0,0,0,8.046,31a1.139,1.139,0,0,0-.46-0.567,1.261,1.261,0,0,1-.69.113v0.34H4.368V28.281a3.824,3.824,0,0,0,1.609-.113l-1.609-.113V27.828c-0.81-1.2-.356-5.257-0.345-6.911H0.23a7.349,7.349,0,0,1-.115-2.04A0.406,0.406,0,0,0,.23,18.65H0.345a27.663,27.663,0,0,0,3.678.113c0.1-.368-0.056-0.173.23-0.34v2.493c0.3,0.544-.326,2.243.115,2.946a3,3,0,0,1,.115-1.36v1.36h0.46V23.636a5.237,5.237,0,0,1-.575-2.266H4.483a5.442,5.442,0,0,0,.8,2.379,0.324,0.324,0,0,0,.115.113v-0.68a7.159,7.159,0,0,1-.115-1.36,2.5,2.5,0,0,1,.8-0.113,2.27,2.27,0,0,1,1.149,0,2.4,2.4,0,0,1,.115.793,2.71,2.71,0,0,0-.115,1.246h0.23a2.934,2.934,0,0,1,1.034-.34c0.737,0.207.232,0.414,1.149,0.453A3,3,0,0,1,9.77,22.5v1.36h1.839a3.331,3.331,0,0,1,.115-1.473,1.813,1.813,0,0,0,.23,1.473,3,3,0,0,1,.115-1.36v1.36h0.575a3.675,3.675,0,0,0,.115-1.133,1.871,1.871,0,0,0,1.264-.227c0.179,0.186-.087.154,0.23,0.227a0.543,0.543,0,0,1,.115-0.34,4.365,4.365,0,0,0,.115,1.473l2.069-.113v-1.02H16.207V22.163a0.6,0.6,0,0,0,.575-0.34,0.709,0.709,0,0,0,.46.227,1.605,1.605,0,0,0,.115.567h0.115c0.082-.954,1.184-0.736,2.184-0.68,0.089,0.077.256,0.148,0.345,0.227h0.115V22.5a27.222,27.222,0,0,1,2.989,0v1.133h0.345a3.331,3.331,0,0,1,.115-1.473v1.473h0.92V23.409A1.77,1.77,0,0,0,24.6,22.5a2.452,2.452,0,0,0,1.149-.113c-0.284-.147-0.078.049-0.23-0.227,0.349-.258.358-0.834,0.575-0.906a0.447,0.447,0,0,0,.23.453,1.588,1.588,0,0,1-.115-0.453,8.03,8.03,0,0,1,1.609.113c0.014,0.424-.139.277,0.345,0.34V21.37a4.275,4.275,0,0,0,.8-0.227,2.064,2.064,0,0,0,.115.566A3.071,3.071,0,0,0,30.46,21.6a0.562,0.562,0,0,1-.345-0.113h0.46c0.1-.368-0.056-0.173.23-0.34,0.413,0.74,1.591.605,2.759,0.566V21.03a3.537,3.537,0,0,1,1.035,0v0.68h0.345c0.028-1.551.669-2.072,0.69-3.852a4.673,4.673,0,0,1,2.184.227c-0.012-.675.1-0.834,0.115-1.7H37.7a2.16,2.16,0,0,0-1.034-.113V16.044c1.938,0.034,2.6-.633,4.368-0.793a15.9,15.9,0,0,0,.919,3.852h0.115a2.672,2.672,0,0,1,.115-1.246,1.585,1.585,0,0,0,.23,1.36c0.085-.1.145-0.128,0.23-0.227a0.445,0.445,0,0,1-.115-0.68,2.838,2.838,0,0,1,.575-0.567V15.478h0.23a0.783,0.783,0,0,0,.46.113c-0.011-.907-0.022-0.738,0-1.586h-0.46a0.575,0.575,0,0,1-.115.567c-0.024-.971-0.208-2.6.115-3.059,0.059,0.46.023,0.462,0.46,0.566-0.027-.865-0.024-0.753,0-1.586a0.687,0.687,0,0,1-.46,0,3.306,3.306,0,0,1,.23-1.133,1.261,1.261,0,0,1,.69-0.113,0.937,0.937,0,0,1,.115-0.566,1.258,1.258,0,0,1,0,.566,1.331,1.331,0,0,1-.345.227,2.829,2.829,0,0,1,.345.906l1.149,0.113A6.624,6.624,0,0,1,45.632,8c-0.015.456-.062,0.62,0.23,0.793V8.68A1.211,1.211,0,0,1,45.747,8Zm0.8,1.926a0.969,0.969,0,0,1,.115.566H46.552a0.875,0.875,0,0,0-.345-0.34C46.58,10.059,46.383,10.208,46.552,9.926Zm-3.1.227v0.227h0.345V10.153H43.448Zm0.46,0v0.227h0.345V10.153H43.908Zm-2.759.34c0.276,0.233.024,0.108,0.115,0.34C41.056,10.9,41.171,10.6,41.149,10.493Zm2.759,0a12.38,12.38,0,0,1,0,1.586h0.345C44.155,11.566,44.488,10.631,43.908,10.493Zm0.115,0.227a0.407,0.407,0,0,1,.115.227H44.023V10.719Zm-0.46.113a0.407,0.407,0,0,1,.115.227H43.563V10.833Zm0.23,3.059c-0.012-.909-0.02-0.845,0-1.7a0.561,0.561,0,0,0-.345.113,3.039,3.039,0,0,0-.115,1.36C43.54,13.815,43.281,13.852,43.793,13.892ZM43.908,14c0.025,0.744.019,0.788,0,1.586h0.46c-0.04-.234,0-0.925,0-1.473H44.253V14H43.908Zm-0.115,1.7h-0.46a4.593,4.593,0,0,0-.115,1.36,1.478,1.478,0,0,1,0,.793,2.485,2.485,0,0,1,.575.227V16.611A1.812,1.812,0,0,1,43.793,15.7Zm8.161,0a0.438,0.438,0,0,1,.23.34H52.069v0.113H51.954V16.044C51.855,15.831,51.9,15.961,51.954,15.7Zm1.954,1.133,0.115,0.34h0.115V16.951Zm11.264,0.227v0.227h0.115V17.064H65.172Zm-0.46.113V17.4h0.23V17.291Zm-34.023.34a1.273,1.273,0,0,1,.575.227,2.349,2.349,0,0,0-.8.113V17.631A0.4,0.4,0,0,0,30.69,17.517Zm33.1,0V17.97a1.827,1.827,0,0,0,.575.113l-0.115-.567h-0.46Zm-32.184.113a0.407,0.407,0,0,1,.115.227H31.609V17.631Zm47.586,0a0.328,0.328,0,0,1,0,.453V17.631Zm-48.621.34a0.408,0.408,0,0,1,.115.227H30.575V17.97Zm5.172,0.113V18.65h1.379V18.084H35.747ZM30.69,18.2a0.408,0.408,0,0,1,.115.227H30.69V18.2ZM42.759,18.31a0.865,0.865,0,0,1,0,.453h0.115c0.2-.107,0-0.025.23,0A0.614,0.614,0,0,0,42.759,18.31ZM30.8,18.537a0.407,0.407,0,0,1,.115.227H30.8V18.537Zm0.115,0.227a0.407,0.407,0,0,1,.115.227H30.92V18.764Zm4.828,0v0.793l1.379-.113c-0.061-.563-0.226-0.181,0-0.567A4.789,4.789,0,0,0,35.747,18.764Zm1.494,0.113a0.723,0.723,0,0,0,.115.453A0.724,0.724,0,0,0,37.241,18.877Zm41.149,0a1.639,1.639,0,0,1-.115,1.36A6.211,6.211,0,0,1,78.391,18.877Zm-46.667.113a4.139,4.139,0,0,1,0,2.379C31.7,20.594,31.726,19.972,31.724,18.99Zm45.287,0a0.573,0.573,0,0,1,.115.34H77.012V18.99ZM31.035,19.1a0.407,0.407,0,0,1,.115.227H31.035V19.1ZM74.368,19.33a1.331,1.331,0,0,1,0,1.133V19.33Zm-43.218.113a0.407,0.407,0,0,1,.115.227H31.149V19.443Zm40.115,0a0.328,0.328,0,0,1,0,.453V19.443Zm5.287,0.113a0.407,0.407,0,0,1,.115.227H76.552V19.557Zm-45.287.113a0.406,0.406,0,0,1,.115.227H31.264V19.67Zm39.54,0a0.328,0.328,0,0,1,0,.453V19.67Zm-20,.113c-0.038.157,0.163,0.165,0.23,0.227C51.115,19.889,50.836,19.817,50.8,19.783Zm-19.425.227a0.407,0.407,0,0,1,.115.227H31.379V20.01Zm32.759,0.34v1.133h1.379V21.37h0.115V20.123C64.973,20.159,64.87,20.329,64.138,20.35Zm-32.644-.113a0.407,0.407,0,0,1,.115.227H31.494V20.237ZM42.529,20.35a0.417,0.417,0,0,0,.23.113A0.415,0.415,0,0,0,42.529,20.35Zm19.31,0v0.227h0.115A0.386,0.386,0,0,0,61.839,20.35Zm0.23,0v0.227H62.3V20.35h-0.23Zm-24.6.113V20.69h0.115A0.387,0.387,0,0,0,37.471,20.463Zm23.678,0V20.69h0.115A0.386,0.386,0,0,0,61.149,20.463Zm0.46,0V20.69h0.115A0.386,0.386,0,0,0,61.609,20.463Zm0.8,0a0.417,0.417,0,0,0,.23.113A0.415,0.415,0,0,0,62.414,20.463Zm-1.954.113V20.8h0.115A0.387,0.387,0,0,0,60.46,20.576Zm12.873,0a0.445,0.445,0,0,0,.345.227A1.33,1.33,0,0,0,73.333,20.576Zm-5.517.113a0.724,0.724,0,0,0,.115.453A0.723,0.723,0,0,0,67.816,20.69ZM72.874,20.8a0.416,0.416,0,0,0,.23.113A0.415,0.415,0,0,0,72.874,20.8ZM62.3,20.916v0.227h0.115A0.386,0.386,0,0,0,62.3,20.916ZM20.8,22.163a0.75,0.75,0,0,1,.46.113A0.752,0.752,0,0,1,20.8,22.163Zm-15.632.566a0.407,0.407,0,0,1,.115.227H5.172V22.729Zm11.954,0a2.037,2.037,0,0,0,.115,1.02A2.037,2.037,0,0,0,17.126,22.729Zm8.966,0.793h0.69V22.729h-0.46A1.729,1.729,0,0,0,26.092,23.522Zm0.8,0a0.77,0.77,0,0,0,.69-0.227c0.191,0.2-.057.18,0.345,0.227V23.409a0.969,0.969,0,0,1-.115-0.566,0.4,0.4,0,0,1-.23-0.113c-0.373.08-.363,0.242-0.575,0H26.9v0.793Zm52.069-.567a0.407,0.407,0,0,1,.115.227H78.966V22.956Zm-64.483.113a0.407,0.407,0,0,1,.115.227H14.483V23.069Zm2.989,0.113v0.227h0.115V23.182H17.471Zm4.253,0a0.983,0.983,0,0,0,.92.227V23.182h-0.92Zm1.035,0v0.227h0.23V23.182h-0.23Zm4.483,0a0.407,0.407,0,0,1,.115.227H27.241V23.182ZM20.23,23.3a0.467,0.467,0,0,0,.575,0H20.23Zm-5.632.113a0.407,0.407,0,0,1,.115.227H14.6V23.409Zm2.874,0.113v0.227h0.115V23.522H17.471Zm2.759,0v0.227h0.46V23.636H20.8V23.522H20.23Zm1.609,0a0.784,0.784,0,0,0,.8,0h-0.8Zm0.92,0a0.417,0.417,0,0,0,.23.113A0.416,0.416,0,0,0,22.759,23.522Zm-5.058.113a1.614,1.614,0,0,0,1.264,0H17.7Zm60.92,0.34a0.756,0.756,0,0,1,.115.453h-0.23V24.2A0.407,0.407,0,0,0,78.621,23.975ZM6.437,28.168A2.351,2.351,0,0,0,6.552,29.3,2.351,2.351,0,0,0,6.437,28.168Zm1.379,0.113a2.473,2.473,0,0,0-.23.906H7.7V29.074A0.661,0.661,0,0,0,7.816,28.281Zm1.379,0a3.434,3.434,0,0,1-.345.793H9.08a16.818,16.818,0,0,0,4.138-.453A29.068,29.068,0,0,0,9.2,28.281Zm4.138,0.68c-0.922.53-3.991-.024-4.483,0.793H9.31c0.607-.367,3.328-0.3,4.138-0.453A0.542,0.542,0,0,0,13.333,28.961Zm-6.9,1.36a0.561,0.561,0,0,0,.345-0.113,0.989,0.989,0,0,1-.345-0.453V30.32Z" transform="translate(-0.125 0.5)"/>
</svg>
