<svg xmlns="http://www.w3.org/2000/svg" width="80" height="40" viewBox="0 0 80 40">
  <defs>
    <style>
      .cls-1 {
        fill: #fff;
        fill-rule: evenodd;
      }
    </style>
  </defs>
  <path id="it_mas_classe500_4_ico" class="cls-1" d="M21.079,9.133q0.091,3.038.182,6.077c0.025,0.055.154,0.1,0.182,0.159V15.5c0.062,0.192.125,0.4,0.208,0.61a5.668,5.668,0,0,1,.442,1.247,5.147,5.147,0,0,0,.936-0.133l0.182,0.026c0.361-.086.825-0.122,1.17-0.212a1.041,1.041,0,0,0,.65-0.186,1.049,1.049,0,0,0,.026-0.212,1.328,1.328,0,0,1,.338-0.637c0.55-.46,1.746-0.158,2.573-0.345h0.6c0.35-.081.8,0.009,1.2-0.08h0.572a10.992,10.992,0,0,1,1.248-.08h0.546c0.372-.084.753,0.04,1.169-0.053,0.154-.034.412,0.015,0.6-0.027,0.782-.174,1.82-0.007,2.521-0.159a1,1,0,0,1,.364-0.531,2.423,2.423,0,0,1,.884-0.08,9.186,9.186,0,0,1,2.053.027,1.865,1.865,0,0,1,.156.212L39.9,15.13h0.052a0.205,0.205,0,0,1,.182,0,7.373,7.373,0,0,1,.338,2.256h0.026l0.6-.292c0.085-.877.388-1.8,0.442-2.627a0.987,0.987,0,0,0,.182-0.053v-0.9a0.252,0.252,0,0,1-.156-0.265c0.064-.034.018,0.011,0.052-0.053a0.467,0.467,0,0,0-.156-0.027,1.185,1.185,0,0,1-.65-0.027v0.106H40.78V13.193a1.076,1.076,0,0,0-.52-0.053v0.186H40.234c-0.038-.067-0.011-0.041-0.1-0.053a0.13,0.13,0,0,1-.026.08c-0.031-.05,0-0.032-0.052-0.027a2.979,2.979,0,0,0-.078.345l-0.156-.027V13.591a0.5,0.5,0,0,0,.078-0.319c-0.434,0-.762.161-1.17,0.186a0.074,0.074,0,0,0-.026-0.027l0.026-.106c-0.036-.005.011,0.022-0.026,0.027-0.02.051-.026-0.053-0.026-0.053,0.066-.039.047-0.033,0.052-0.133a0.665,0.665,0,0,0-.078-0.106c-0.043-.054-0.03.019-0.052-0.053a4.523,4.523,0,0,1,1.17.106V12.981A0.267,0.267,0,0,0,40,12.875a1.156,1.156,0,0,1,.052-0.292v0.159H40.1c0.047,0.1-.082.079-0.026,0.133a0.385,0.385,0,0,0,.286,0v0.08H40.78V12.822h0.052a7.442,7.442,0,0,0,.78.027,1.283,1.283,0,0,0,.286.133,0.075,0.075,0,0,1,.026-0.027V12.928H41.845v-0.08h0.208v0.08a0.124,0.124,0,0,0-.078.027H42a1.373,1.373,0,0,0,.6.053,1.225,1.225,0,0,1,.078-0.159v0.026a0.227,0.227,0,0,0,.078.106,2.773,2.773,0,0,0,.91,0V13.14H43.613a1.592,1.592,0,0,0-.936.027,8.847,8.847,0,0,1-.988.027,2.114,2.114,0,0,1,.182.292,4.059,4.059,0,0,0-.026.929H41.9v0.159h0.156v0.053h-0.1a10.323,10.323,0,0,0,.156,1.831h0.026a7.025,7.025,0,0,1,.78-0.61l0.182-.106V15.13h0.052c0.04-.019,0,0,0.078,0a0.7,0.7,0,0,0,.078.451,3.452,3.452,0,0,1,.884-0.637A9.025,9.025,0,0,1,47.3,13.618V13.3a0.912,0.912,0,0,1-.39-0.027h0.052a0.693,0.693,0,0,1,.364-0.08c0.022-.086-0.013-0.04.052-0.08v0.08a1.42,1.42,0,0,0,.546-0.053,0.678,0.678,0,0,0,.468.053V13.22H47.8V13.3h-0.39l-0.026.292c0.425-.013.788-0.151,1.248-0.159V11.017a1.562,1.562,0,0,1,.078-0.876c0.038,0.864.026,2.191,0.026,3.264h0.208l0.1-.212a0.926,0.926,0,0,0,.468.08c0.021-.086-0.013-0.04.052-0.08a1.622,1.622,0,0,0,.156.823,0.62,0.62,0,0,1,.156.239,0.655,0.655,0,0,0-.026.451,0.866,0.866,0,0,0,.832.451,5.612,5.612,0,0,0-.026-0.637h0.052v0.027c0.106,0.153.094,0.435,0.208,0.584a1.117,1.117,0,0,0,.546.053,3.549,3.549,0,0,0,.026-0.5H51.54v0.027a1.541,1.541,0,0,1,.26.531,2.589,2.589,0,0,1,.832.239h0.026V15.5H52.632a0.3,0.3,0,0,1-.078.053l0.026,0.08a1.274,1.274,0,0,1,.52.08,3.261,3.261,0,0,1-.442-0.027,0.339,0.339,0,0,0,.026.106,0.176,0.176,0,0,0-.156.08,1.747,1.747,0,0,1,.13.372c0.094,0.232.219,0.517,0.312,0.743a6.285,6.285,0,0,0,.208.717L53.489,18l-0.026.106c0.006,0.026.208,0.557,0.208,0.557h1.611V17.943l4.7-.027v0.716c1,0,2.033-.025,2.989-0.026v-0.08h-0.1V18.421h0.416a0.674,0.674,0,0,0,.026-0.212h0.078v0.186a16.016,16.016,0,0,0,1.741.026,1.574,1.574,0,0,1,.52,0,0.293,0.293,0,0,0,.156-0.026l0.286,0.026a0.65,0.65,0,0,1,.39,0v0.053c-0.084.034-.068,0.023-0.078,0.133l4.185-.027V18.448a0.467,0.467,0,0,1,.156-0.027,0.763,0.763,0,0,0,.572.053,0.884,0.884,0,0,1,.364-0.212,0.3,0.3,0,0,1,.13.133,0.359,0.359,0,0,1,.026.186,0.392,0.392,0,0,1,.286.106,0.692,0.692,0,0,0,.13-0.106,2.466,2.466,0,0,1,.286,0v0.027h0.026v0.08l0.364-.027V18.58a0.413,0.413,0,0,1,.13-0.106,1.876,1.876,0,0,1,.91-0.027l1.274,0.027a3.1,3.1,0,0,0,1.144.026v0.186a0.1,0.1,0,0,0-.026.053H76.335a0.78,0.78,0,0,0-.494-0.08,6.263,6.263,0,0,0-1.092-.08l-0.026.212c0.221,0,.5.021,0.676,0.027a0.525,0.525,0,0,1,.26-0.053,2.212,2.212,0,0,0,.6.08v0.186a0.941,0.941,0,0,1-.286.026v0.08l1.481,0.053a2.418,2.418,0,0,1,.234-0.637c0.13-.312.184-0.613,0.312-0.929a7.207,7.207,0,0,0,.286-0.69c0.011-.041.007-0.826,0-0.849H78.233V16.033a3.044,3.044,0,0,0,.026-1.008V14.2c-0.037-.173.019-0.457-0.026-0.663a8.139,8.139,0,0,1-.078-1.513A0.155,0.155,0,0,1,78,11.972h0.052a0.235,0.235,0,0,1,.182-0.106l0.1,1.8v0.716c0.106,0.5.019,1.142,0.078,1.645h0.234a0.919,0.919,0,0,0-.026-0.345h0.13v-0.08H78.83v0.08h0.1a0.473,0.473,0,0,0,.026.4H78.882v0.345c0.01,0.023.081-.006,0.052,0.08a5.89,5.89,0,0,0,0,1.99c0.025,0.081-.043.077-0.052,0.106a0.866,0.866,0,0,0,.052.478,0.519,0.519,0,0,1,.39-0.133,0.727,0.727,0,0,1,.156.319h0.1V19.3a0.137,0.137,0,0,0-.026.08l0.39,0.026a0.162,0.162,0,0,0,.052.053,8.914,8.914,0,0,0-.65,1.884c-0.222.683-.429,1.4-0.6,2.017L78.7,24.419a1.333,1.333,0,0,1-.1.106V24.87H78.519V24.6H78.467a3.022,3.022,0,0,1-.65.5c-0.2.153-.347,0.4-0.546,0.557-0.222.171-.449,0.311-0.676,0.478a2.628,2.628,0,0,1-.234.212,16.436,16.436,0,0,1-3.717,1.274c-0.478.126-.995,0.081-1.456,0.186l-0.78.027c-0.764.17-1.673-.078-2.5,0.106h-0.6c-0.733.164-1.711-.032-2.443,0.133-0.194.044-.462-0.01-0.624,0.027-0.2.045-.48-0.012-0.65,0.027-0.435.1-.963-0.04-1.377,0.053l-1.456.026c-0.2.045-.518-0.026-0.754,0.026a13.841,13.841,0,0,1-1.585.08,9.164,9.164,0,0,0-.936.026H56.5a9.7,9.7,0,0,1-1.715.053H54.217c-0.418.093-.979-0.073-1.429,0.026-0.434.1-1.014-.077-1.482,0.027a6.489,6.489,0,0,1-1.221.026l-1.949.027V28.028c-0.545,0-1.1.026-1.611,0.027a5.78,5.78,0,0,0-1.066.026c-0.476.1-1.064-.071-1.508,0.027l-3.353.027c-2.03,0-4.086.051-6.16,0.053V27.524l-11.592-.133c-0.65.148-1.388,0.11-2.053,0.265-0.46.108-.967,0.072-1.456,0.186l-1.43.212c-0.1.01-.078-0.059-0.13-0.08-0.213-.086-0.455.039-0.65-0.053-0.033-.016.032-0.055-0.026-0.053A4.834,4.834,0,0,0,16.3,28c-0.488.113-1,.079-1.455,0.186l-0.624.053c-0.717.169-1.541,0.151-2.261,0.319l-1.04.106c-1.316.31-2.79,0.25-4.107,0.557-0.446.1-1.646,0.047-1.663,0.5a1.243,1.243,0,0,1,0,.743,0.652,0.652,0,0,0-.13.106A0.533,0.533,0,0,0,4.86,30.5c-0.02.083-.17,0.33-0.234,0.265A0.146,0.146,0,0,1,4.548,30.6a4.063,4.063,0,0,1,0-.637,1.6,1.6,0,0,1-.13-0.345l-0.494.027L3.249,31H2.6a5.8,5.8,0,0,0-1.352-.026q-0.013-1.659-.026-3.317A10.536,10.536,0,0,0,2.6,27.444a2.237,2.237,0,0,0,.676-0.106,2.46,2.46,0,0,0,.026-0.5c0.043-.182.139-0.392,0.182-0.557v-0.8c0.065-.309-0.046-0.746.026-1.088,0.065-.309-0.046-0.746.026-1.088a5.321,5.321,0,0,0,.026-0.9c0-.318.025-0.681,0.026-1.035H3.431a1.091,1.091,0,0,1,.052-0.584c-0.172-.113-0.3-0.3-0.468-0.425a1.619,1.619,0,0,1-.364-0.239l-0.442.159a0.182,0.182,0,0,0-.026.106c0.053,0.076.055,0.184,0.1,0.265a1.132,1.132,0,0,1,.26.4,0.388,0.388,0,0,1-.1.053,1.051,1.051,0,0,0-.858-0.159,1.81,1.81,0,0,1-.52.319l-0.052-.08c0.19-.228.348-1.013-0.052-1.115-0.131.1-.331,0.119-0.468,0.212a1.576,1.576,0,0,1-.312.319V20.571A0.632,0.632,0,0,1,0,20.385a2.013,2.013,0,0,1,.858-0.531V19.748H0.91c0.03-.015.438,0,0.572-0.027a1.338,1.338,0,0,0,.026-0.372,1.614,1.614,0,0,1-.052-0.425,1.559,1.559,0,0,1-.13-0.531l0.858-.08V18.262a0.161,0.161,0,0,1-.026-0.186,0.1,0.1,0,0,1,.026.053,0.18,0.18,0,0,1,.078.159l1.17-.133a1.342,1.342,0,0,1,.078-0.69c-0.1,0-.091.013-0.13-0.053a0.693,0.693,0,0,0,.1-0.133H3.639V17.094a0.8,0.8,0,0,1,.182-0.106v0.106c0.226,0,.459-0.012.65-0.027V13.538c-0.4,0-.8-0.018-1.144-0.027a10.287,10.287,0,0,1-1.3,0V12.477a1.777,1.777,0,0,1,0-.345,6.44,6.44,0,0,1,1.767-.053,3.179,3.179,0,0,0,.676,0,0.964,0.964,0,0,0-.052-0.372c0.093-.011.065,0.013,0.1-0.053A0.358,0.358,0,0,1,4.5,11.468a0.161,0.161,0,0,0,.052-0.053H4.6a0.413,0.413,0,0,1,.052.239,0.16,0.16,0,0,0-.052.053c0.1,0,.091-0.012.13,0.053H4.652v5.307c0.239,0,.378-0.044.572-0.053a1.121,1.121,0,0,1,.026-0.372,0.54,0.54,0,0,1,.052.08,0.58,0.58,0,0,1,.286.053H5.562a0.545,0.545,0,0,1-.26.027l0.026,0.823H5.276a1.45,1.45,0,0,0-.052-0.345H5.094V17.253H5.068a1.26,1.26,0,0,1-.39.743H4.756a5.087,5.087,0,0,1,1.092-.133c0.467-.106.986-0.073,1.481-0.186a1.887,1.887,0,0,1,.728-0.053H8.4a5.412,5.412,0,0,1,.546.345,1.331,1.331,0,0,1,.6-0.212,0.388,0.388,0,0,0,.026.133,0.47,0.47,0,0,0-.208.053,2.589,2.589,0,0,0,.468.345,0.633,0.633,0,0,1,.312-0.133,0.143,0.143,0,0,0,.078.106,3.038,3.038,0,0,1,1.014-.159c0.367-.084.8-0.017,1.2-0.106a6.935,6.935,0,0,1,1.4-.106,1.794,1.794,0,0,1,.234-0.663H13.593a4.256,4.256,0,0,1-.858.053,0.282,0.282,0,0,1-.052-0.159,0.1,0.1,0,0,0,.026-0.053h0.416a0.13,0.13,0,0,0-.026-0.08,0.922,0.922,0,0,0-.39-0.026,3.866,3.866,0,0,1-.91.026c-0.261.058-.643-0.039-0.936,0.027-0.209.046-.523-0.011-0.7,0.026a3.182,3.182,0,0,1-.6.053V16.829l0.7,0.026V16.829h0.026a0.492,0.492,0,0,1,.052-0.239H10.4V16.7a0.234,0.234,0,0,1,.026.133c1.223,0.006,2.331-.153,3.535-0.159V16.51c0.093-.011.065,0.012,0.1-0.053-0.117,0-.143,0-0.182-0.08a0.3,0.3,0,0,1-.026-0.159,5.779,5.779,0,0,0,1.014-.371,0.292,0.292,0,0,0,.026-0.159,4.317,4.317,0,0,1-.052-0.876,5.192,5.192,0,0,1-.26-0.9l0.078-.027c0.018-.013.728-0.133,0.728-0.133l0.026,0.08a1.7,1.7,0,0,0,.286.053c0.113,0.031.259-.035,0.338,0l0.052,0.106a1.2,1.2,0,0,0,.572.159l0.026,0.133a1.692,1.692,0,0,0,.52.265v0.133a1.1,1.1,0,0,1,.286.319,3.949,3.949,0,0,1,.754-0.265,6.683,6.683,0,0,0,.988.371,0.536,0.536,0,0,1,.39.186,1.28,1.28,0,0,1-.052.345H19.493l-0.026.319c-0.052,0-.007-0.027-0.052,0a0.137,0.137,0,0,1,.026.08c-0.052,0-.007-0.027-0.052,0a0.1,0.1,0,0,1,.026.053c-0.052,0-.007-0.027-0.052,0a0.1,0.1,0,0,1,.026.053c-0.052,0-.007-0.027-0.052,0a0.1,0.1,0,0,1,.026.053c-0.068,0-.051-0.021-0.1.053H19.233L19.259,16.3H19.233c-0.052.03-.047,0.016-0.1,0-0.007.069,0,.052-0.13,0.053a0.507,0.507,0,0,0-.1-0.053,1.109,1.109,0,0,1-.182-0.637,0.165,0.165,0,0,0-.1.027,1.539,1.539,0,0,0-.546.61,0.113,0.113,0,0,1,.1.106,0.984,0.984,0,0,0,.026.69,1.2,1.2,0,0,1-.13.08,1.109,1.109,0,0,1-.52.026v0.08H17.206a3.5,3.5,0,0,0-.286.425,1.653,1.653,0,0,0,.7-0.027l1.949-.106a1.4,1.4,0,0,1,.026-0.61c0.043-.076.171-0.117,0.208-0.186a2.034,2.034,0,0,0,.078-0.372c0.095-.291.19-0.606,0.312-0.9a2.243,2.243,0,0,0,.182-1.274,5.845,5.845,0,0,0-.832-1.964,4.888,4.888,0,0,1-.624-0.849,0.089,0.089,0,0,0,.052-0.027A16.119,16.119,0,0,0,21,11.627a24.46,24.46,0,0,0-.078-2.6A0.736,0.736,0,0,1,21.157,9a0.1,0.1,0,0,0,.078.053,0.094,0.094,0,0,1-.052.027A0.106,0.106,0,0,1,21.079,9.133ZM38.623,13.14a0.138,0.138,0,0,1,.026.08H38.623V13.14ZM18.116,17.174a0.182,0.182,0,0,1,0,.186V17.174ZM5.042,29.036A6.009,6.009,0,0,0,7.173,28.9c0.48-.115.98-0.079,1.43-0.186l0.832-.08c1.059-.251,2.243-0.2,3.3-0.451l0.624-.053c0.788-.187,1.681-0.157,2.469-0.345l1.248-.133c0.162-.087.351-0.184,0.546-0.265V27.364H15.231L3.873,27.47a0.459,0.459,0,0,0-.026-0.159H3.821v0.212a4.464,4.464,0,0,0,1.2.027v0.026A0.89,0.89,0,0,0,4.808,28,3.088,3.088,0,0,1,5.042,29.036Z"/>
</svg>
