<svg xmlns="http://www.w3.org/2000/svg" width="40" height="40" viewBox="0 0 40 40">
  <defs>
    <style>
      .cls-1 {
        fill: #fff;
        fill-rule: evenodd;
      }
    </style>
  </defs>
  <path id="Color_Fill_1" data-name="Color Fill 1" class="cls-1" d="M18.515,10.55V10.8H14.8a0.745,0.745,0,0,1-.149.25V10.9h-0.3a0.243,0.243,0,0,1-.05.15V10.9c-0.417-.036-1.159.048-1.782,0.05V11h-0.05v0.6c-0.043.029-.126-0.053-0.1,0.05a2.665,2.665,0,0,0,.2.25v0.95H12.228V13.2h-0.1V12.85a2.392,2.392,0,0,0-1.386,1v0.3h0.347v0.1h0.594l2.129-.05a1.584,1.584,0,0,1,.05-0.3l0.2-.05V12.6h-0.2l-0.05-.15,0.1,0.05V12.45a1.8,1.8,0,0,1,.05-0.6,1.111,1.111,0,0,0,.594-0.2,0.531,0.531,0,0,0,.2.45c0.29,0.213,1.781.28,2.228,0.45V12.6a1.536,1.536,0,0,0-.5.05l0.05,0.1h-0.05V12.8a0.169,0.169,0,0,1-.1-0.05,0.257,0.257,0,0,1-.049-0.15H14.505l-0.05.15a3.066,3.066,0,0,0-.049,1.15H15.05c0.009-.392.1-0.64,0.1-1.1h0.545c-0.047,1.1-.009,1.148,1.089,1.1v0.35h0.05a4.631,4.631,0,0,1,2.03.1,0.57,0.57,0,0,1,.05-0.35,0.289,0.289,0,0,1,.2,0,6.121,6.121,0,0,1,.4.5,0.985,0.985,0,0,1,.693.3c0.173,0.334.018,0.61,0.5,0.65,0.095-.146.146-0.11,0.247,0l0.05-.15c0.231-.109.275,0.113,0.346,0.15H22.97a2.658,2.658,0,0,1,.1-0.4h0.2V15.4l0.842-.05,0.05,1,2.228,0.05c0.182-.034.086-0.142,0.248-0.1,0.1,0.122-.061.073,0.1,0.15a5.847,5.847,0,0,1,1.634.05,6.6,6.6,0,0,1,1.188.1,16.613,16.613,0,0,0,3.02-.05V16.4a4.075,4.075,0,0,1,.594-0.65,1.744,1.744,0,0,1,.941,0,0.867,0.867,0,0,0,.743.8c0.258-.375,1.176.064,1.683-0.1,0.258-.084.534-0.366,0.792-0.45,0.678-.22,1.991.177,2.673-0.05V18.6H37.475c-0.339-.1-0.656-0.388-0.99-0.5H35.792c-0.6-.01-0.792-0.052-1.287-0.05a0.643,0.643,0,0,1-.842.5,1.924,1.924,0,0,0-.792-0.05,1.555,1.555,0,0,0-.247-0.35,0.256,0.256,0,0,1-.05-0.15c-1.9-.034-4.045.143-5.941,0.15,0,0.139.057,0.108-.149,0.15a7.573,7.573,0,0,0-2.079-.1c0.012,0.2-.061.122-0.049,0.4h-0.2l-0.05.55L22.03,19.1v0.1a0.531,0.531,0,0,1,.149.5h0.446a0.283,0.283,0,0,0,.3.1,0.642,0.642,0,0,1-.049.2H23.02V19.85a0.238,0.238,0,0,0,.148-0.05c-0.186-.069-0.2-0.149-0.2-0.4a0.528,0.528,0,0,1,.346-0.15,7.09,7.09,0,0,1,1.139-.05v0.3c0.723-.008,1.049-0.1,1.881-0.1a0.747,0.747,0,0,0,.693.1c0.019-.127-0.029-0.079.149-0.1a3.982,3.982,0,0,1,1.188-.1v0.2h1.188V19.4H30.3a4.88,4.88,0,0,0,1.535.1,0.59,0.59,0,0,0,.5.35c-0.114.207-.242,0.461,0.049,0.6a0.264,0.264,0,0,1,.3-0.1c0.142,0.056.091,0.009,0.149,0.15a0.257,0.257,0,0,1,.049.15,13.606,13.606,0,0,1,2.772.5,0.972,0.972,0,0,1,.792.3h-0.2a4.976,4.976,0,0,1-1.881-.25v0.05a0.559,0.559,0,0,1,.1.3,0.251,0.251,0,0,0,.149.05,0.342,0.342,0,0,1,.1-0.2,0.178,0.178,0,0,0,.1.05V21.7a0.569,0.569,0,0,0,.544-0.2,2.111,2.111,0,0,1,.792.25,1.246,1.246,0,0,0,.1.25h1.337a2.124,2.124,0,0,1-.5,1.6,1.437,1.437,0,0,1-.3.1,2.3,2.3,0,0,0-.149.35c0.382,0.065.794,0.109,0.792,0.6a0.362,0.362,0,0,0-.2.4h0.05V25.1a0.326,0.326,0,0,1,.248,0,0.257,0.257,0,0,1,.05.15h-0.1a0.776,0.776,0,0,1-.4.05,0.881,0.881,0,0,1-.148-0.2,0.339,0.339,0,0,1-.1-0.25,1.491,1.491,0,0,0-.347.05,0.875,0.875,0,0,1,0,.6c-0.038.034-.11,0.066-0.149,0.1,0.4,0.537-.168,1.508-0.4,1.8a4.4,4.4,0,0,1-1.436.8c-1,.528-2.062,1.21-3.119,1.65a7.74,7.74,0,0,1-2.376.1H5.3a12.76,12.76,0,0,1-1.931-.85C2.279,28.623-.38,28,0.05,26.15c0.06-.257.182-0.511,0.248-0.75C0.072,25.385.062,25.377,0,25.2a0.556,0.556,0,0,0,.4-0.45,1.05,1.05,0,0,1-.2-0.9H0.3a1.719,1.719,0,0,0,.05.4H0.4v-2.3a0.61,0.61,0,0,1,.05-0.55c0.148-.33.575-1.707,0.891-1.75v0.1a7.119,7.119,0,0,1,.1,1.7,2.145,2.145,0,0,0,.644.2V21.6a0.991,0.991,0,0,1-.3-0.3,0.169,0.169,0,0,0,.1-0.05L1.634,21.2a7.413,7.413,0,0,1-.049-1.35c0.38-.024.8,0,1.287,0V20c0.73,0.018,2,.164,2.277-0.3H2.921V18.9a4.272,4.272,0,0,1-1.04-.15c-0.015-.006-0.149-0.15-0.149-0.15-0.374-.035-0.925.1-1.337,0.1a1.085,1.085,0,0,1-.05-0.35,2.922,2.922,0,0,0,0-1.3A1.614,1.614,0,0,1,.842,17a1.189,1.189,0,0,0,.545.05A0.141,0.141,0,0,1,1.436,17V16.85L0.4,16.9a0.526,0.526,0,0,1-.1-0.3,11.141,11.141,0,0,0,.1-1.35,9.05,9.05,0,0,1,1.386-.05,0.871,0.871,0,0,0,.693-0.1,0.632,0.632,0,0,1,.05-0.15,0.425,0.425,0,0,1,.248-0.05,0.251,0.251,0,0,0,.149.05V14.7a1.417,1.417,0,0,1,.446-0.05,0.437,0.437,0,0,1,.05-0.25V14.35a4.822,4.822,0,0,0,1.04-.05,2.662,2.662,0,0,1,.1-0.4,0.515,0.515,0,0,1,.3-0.1,0.537,0.537,0,0,1,.248,0,1.045,1.045,0,0,0,.347.55,0.274,0.274,0,0,0,.2,0v-0.1C5.37,13.868,5.2,13.459,4.9,13.1l0.149-.4a0.331,0.331,0,0,1,.2-0.05,0.141,0.141,0,0,0,.05.05,0.419,0.419,0,0,0-.1.15,4.179,4.179,0,0,0,1.287.6,0.638,0.638,0,0,1,.05-0.2,0.141,0.141,0,0,1,.05.05,0.436,0.436,0,0,1,.05.25,12.187,12.187,0,0,0,1.832.1l-0.05-.3H9.554L9.7,13.55l0.2-.05c0.026,0.021.032,0.325,0.05,0.35a2.856,2.856,0,0,1,1.436-1.45,2.336,2.336,0,0,0,.693-0.4c0.02-.113.046-0.054,0-0.15-0.083-.28-0.442-0.221-0.792-0.2V11.6h-0.05V11.45H11.089c-0.066-.237-0.2-0.218-0.5-0.2A1.334,1.334,0,0,1,10,11.3a0.25,0.25,0,0,1-.3.2V11.4a0.273,0.273,0,0,1,.05-0.3H8.861a3.242,3.242,0,0,0-.446-0.05V10.8H8.267V10.55H8.416v-0.3a1.161,1.161,0,0,0,.792-0.2,1.007,1.007,0,0,1,.693.2h1.733a0.243,0.243,0,0,1,.05-0.15,0.481,0.481,0,0,0,.4,0c0.006,0.187-.06.122,0.149,0.15A0.344,0.344,0,0,1,12.376,10v0.05a0.611,0.611,0,0,0,.149.3,2.7,2.7,0,0,0,1.436.05C14.764,10.752,17.508,10.556,18.515,10.55ZM8.564,10.3v0.1a0.141,0.141,0,0,0,.05-0.05h0.05A0.178,0.178,0,0,0,8.564,10.3Zm0.248,0.25a0.638,0.638,0,0,0-.05-0.2,0.372,0.372,0,0,0-.2.2H8.812Zm-0.1-.15h0.05c0.024,0.138-.028.059-0.1,0.1Zm0.2,0.3a2.068,2.068,0,0,0,1.139,0H8.911Zm-0.347.1v0.15H8.812V10.8H8.564Zm5.5,0.3a0.317,0.317,0,0,1,.2.05A0.317,0.317,0,0,1,14.059,11.1Zm0.693,0a0.238,0.238,0,0,1,.149.05A0.238,0.238,0,0,1,14.753,11.1Zm-6.089.05h0.1V11.2h-0.1V11.15Zm5.2,0h0.1V11.2A0.169,0.169,0,0,1,13.861,11.15Zm1.188,0h0.1C15.09,11.23,15.128,11.211,15.05,11.15Zm-1.188.2h1.287V11.4H15.1A1.866,1.866,0,0,1,13.861,11.35Zm-4.257.2a0.238,0.238,0,0,1,.149.05,0.169,0.169,0,0,0-.1.05c0.23-.009.283-0.056,0.347,0.05C9.69,11.711,9.618,11.722,9.6,11.55Zm0.248,0h0.1V11.6h-0.1V11.55Zm3.911,1a0.182,0.182,0,0,1,.05.1h-0.05v-0.1Zm-0.05.1a0.147,0.147,0,0,1,0,.2v-0.2Zm-0.05.2a0.42,0.42,0,0,1,0,.4v-0.4ZM5.3,13.1c0.032,0.054.195,0.289,0.248,0.15A0.956,0.956,0,0,0,5.3,13.1Zm8.317,0.15a0.2,0.2,0,0,1,0,.25V13.25Zm-5,.4H8.96v-0.2a0.518,0.518,0,0,0,.3-0.05H8.663v0.05H8.614v0.2Zm5.05-.15a0.42,0.42,0,0,1,0,.4V13.5Zm0.05,0.4a0.257,0.257,0,0,1,.05.15h-0.05V13.9Zm-8.96.4H5V14.05a0.3,0.3,0,0,1-.1-0.1H4.851V14A0.289,0.289,0,0,0,4.752,14.3Zm9.01-.25a0.182,0.182,0,0,1,.05.1h-0.05v-0.1Zm5.2,0.05v0.2a0.7,0.7,0,0,0,.2.05,0.714,0.714,0,0,0,.049-0.2A0.771,0.771,0,0,0,18.96,14.1Zm-13.267.25v0.1h0.05v-0.1H5.693ZM1.782,15.4V16a0.684,0.684,0,0,1,.248,0V15.7h0.2v0.35H2.475v-0.7H2.426A1.479,1.479,0,0,1,1.782,15.4Zm0.743,0v0.65H2.871l-0.05-.7H2.772A0.425,0.425,0,0,1,2.525,15.4Zm0,0.85a1.178,1.178,0,0,0,.1.7,0.331,0.331,0,0,0,.2.05,3.808,3.808,0,0,1,.05-0.75H2.525Zm34.9,0.2c-0.126.1-.306,0.1-0.445,0.2l-0.3.35a2.458,2.458,0,0,0,.1.75c0.494,0.278,1.086.723,1.04-.4a1.946,1.946,0,0,0,0-.75,0.741,0.741,0,0,0-.2-0.1A0.332,0.332,0,0,0,37.426,16.45Zm0.941,0a0.42,0.42,0,0,0-.1.15,2.89,2.89,0,0,0-.05,1.4,3.683,3.683,0,0,0,1.386.1V18a2.413,2.413,0,0,1,0-1.55H38.366ZM2.723,17.6h0.2a0.469,0.469,0,0,0-.2-0.45V17.6Zm-0.941.3H2.129V17.85a0.428,0.428,0,0,0-.149-0.2,0.965,0.965,0,0,0-.2-0.1V17.9Zm0.049,0.15V18.3a0.193,0.193,0,0,1,.1.15H1.98v-0.3H2.03V18.1A0.623,0.623,0,0,1,1.832,18.05ZM28.069,19.4a0.144,0.144,0,0,0,.2,0h-0.2Zm-7.772.3v0.1h0.049A0.171,0.171,0,0,0,20.3,19.7Zm12.228,1.2a0.83,0.83,0,0,0,.742.3V21.15h0.05V21.1h-0.05c-0.072-.126-0.062-0.091-0.248-0.1A1.137,1.137,0,0,0,32.525,20.9Zm1.238,0.2a0.539,0.539,0,0,0,.248.2V21.2h0.049V21.15Zm0.05,0.25a0.573,0.573,0,0,0,.148.1v-0.1H33.812Zm1.98,0.35a0.444,0.444,0,0,0,.3.15V21.8Zm-33.366.55v0.2h0.05V22.5H2.624V22.25h-0.2ZM2.277,23.3a0.243,0.243,0,0,0,.05.15c0.1-.121.147-0.1,0.3-0.05V23.25Zm30.842,3.8c-0.258.346-.645,0.2-0.644,0.8h0.05a3.556,3.556,0,0,0,.99-0.55,0.792,0.792,0,0,1-.248-0.25H33.119Zm-29.257.35a1.334,1.334,0,0,1-.644-0.25c-0.113.178-.281,0.279-0.4,0.45a4.214,4.214,0,0,1,1.089.4V27.9A0.935,0.935,0,0,1,3.861,27.45Zm24.455,0.7a1.823,1.823,0,0,1-.346.7h0.792V28.8A4.056,4.056,0,0,1,28.317,28.15Zm-8.168.1a1.614,1.614,0,0,1-.3.6h0.693V28.8A3.407,3.407,0,0,1,20.149,28.25Zm-8.069.05a2.168,2.168,0,0,1-.3.55h0.644V28.8C12.285,28.658,12.218,28.444,12.079,28.3Zm12.129,0a2.168,2.168,0,0,1-.3.55H24.6V28.8C24.424,28.669,24.377,28.437,24.208,28.3Zm-16.139.05a1.539,1.539,0,0,1-.3.5H8.416V28.8A2.878,2.878,0,0,1,8.069,28.35Zm8.02,0a1.538,1.538,0,0,1-.3.5h0.693V28.8A3.56,3.56,0,0,0,16.089,28.35Z"/>
</svg>
