<?xml version="1.0" encoding="utf-8"?>
<!-- Generator: Adobe Illustrator 16.0.0, SVG Export Plug-In . SVG Version: 6.00 Build 0)  -->
<!DOCTYPE svg PUBLIC "-//W3C//DTD SVG 1.1//EN" "http://www.w3.org/Graphics/SVG/1.1/DTD/svg11.dtd">
<svg version="1.1" id="Layer_1" xmlns="http://www.w3.org/2000/svg" xmlns:xlink="http://www.w3.org/1999/xlink" x="0px" y="0px"
	 width="39.969px" height="40px" viewBox="0 0 39.969 40" enable-background="new 0 0 39.969 40" xml:space="preserve">
<path id="it_m18_hellcat_ico" fill="#FFFFFF" d="M10.489,12.187h0.093c-0.012,0.169-0.012,0.339,0,0.508h0.4v0.064
	c-0.074-0.01-0.149,0.001-0.217,0.032c-0.063,0.282-0.073,0.572-0.031,0.858h0.065c-0.005-0.275,0.083-0.543,0.248-0.763
	c0.487-0.121,0.988-0.174,1.489-0.159c0.304,0.044,0.613,0.009,0.9-0.1h-0.93c-0.037,0.023-0.08,0.035-0.124,0.032v-0.028
	c0.021-0.029,0.032-0.064,0.031-0.1h-0.31v-0.187h-0.125v-0.254h0.091l0.031-0.286c0.228,0.003,0.456-0.007,0.683-0.032
	c-0.002-0.036,0.009-0.071,0.031-0.1c0.11-0.037,0.227-0.048,0.341-0.032c0.033,0.156,0.07,0.136,0.31,0.127
	c0.525,0.073,1.056,0.083,1.583,0.032c0.004-0.043,0.014-0.086,0.031-0.127c0.121,0.038,0.251,0.038,0.372,0
	c0,0.159-0.016,0.132,0.186,0.127c0.022-0.072,0.033-0.146,0.031-0.222h0.101l0.031,0.318c0.172,0.048,0.35,0.069,0.528,0.064
	c0.295,0.067,0.601,0.079,0.9,0.032c0.584,0.094,1.177,0.127,1.769,0.1c0.812,0,1.601,0,2.389,0v0.224l-3.417,0.029v0.1h-0.095
	c0.001,0.036-0.01,0.071-0.031,0.1v-0.1h-0.274c0.001,0.036-0.009,0.071-0.031,0.1c-0.003-0.044-0.014-0.086-0.031-0.127
	c-0.413-0.047-1.11,0.056-1.614,0.063c-0.043,0.065-0.065,0.143-0.062,0.222c0.946,0.01,1.551,0.161,2.452,0.159v0.054
	c-0.054-0.006-0.108,0.005-0.155,0.032c0.122,0.131,0.198,0.298,0.217,0.477c0.087-0.142,0.235-0.235,0.4-0.254v0.477
	c0.105,0.012,0.209,0.033,0.31,0.064v-0.318h0.124c0.042,0.198,0.235,0.326,0.434,0.286c0.426,0.127,0.86,0.223,1.3,0.286
	c0.101,0.036,0.188,0.179,0.278,0.222c0.119,0.057,0.225,0.006,0.342,0.064c0.1,0.089,0.192,0.185,0.279,0.286
	c0.175,0.078,0.367,0.112,0.559,0.1c-0.001,0.055-0.012,0.108-0.031,0.159c3.363,0.289,6.741,0.384,10.116,0.286l3.972,0.032
	c0.039-0.036,0.081-0.069,0.124-0.1h0.718c0.326-0.082,0.699-0.205,1.023-0.286l1.4-0.032c0.057,0.183,0.219,0.318,0.279,0.477
	v0.667c-0.082,0.091-0.201,0.424-0.279,0.477h-1.4c-0.303-0.146-0.628-0.243-0.962-0.286h-0.744c-0.636-0.105-1.28-0.139-1.924-0.1
	l-6.89,0.032l-3.164,0.032c-0.101,0.037-0.301,0.12-0.4,0.159c-0.669,0.253-2.313,0.399-2.357,1.207
	c0.037,0.08,0.059,0.166,0.062,0.254h0.372c0.047-0.058,0.098-0.111,0.154-0.159c0.388,0.013,0.772,0.066,1.148,0.159v-0.123
	c0.121-0.136,0.285-0.226,0.465-0.254v0.377c0.158,0.013,0.316-0.009,0.465-0.064c0.061-0.03,0.017,0.048,0.031,0.064
	c0.078,0.019,0.162-0.006,0.217-0.064c0.248,0.102,0.51,0.166,0.776,0.191c0.245-0.323,0.62-0.521,1.024-0.54
	c0.117,0.04,0.254,0.182,0.371,0.222c0.141-0.012,0.282,0.023,0.4,0.101c0.07,0.355,0.102,0.717,0.094,1.08h0.03v-0.032
	c0.103-0.335,0.283-0.64,0.527-0.89c0.163-0.08,0.35-0.104,0.528-0.064c0.846,0.217,0.885,1.074,0.868,2.129
	c0.485,0.328,0.89,0.762,1.183,1.268c0.063,0.294,0.063,0.598,0,0.891c0.072-0.02,0.146-0.02,0.218,0v0.13h-0.033v0.032L30.566,22.1
	v0.191c-0.023,0.004-0.045,0.015-0.062,0.032c-0.023-0.004-0.046-0.015-0.062-0.032c-0.051-0.076-0.082-0.163-0.094-0.254h-0.063
	v0.286h-0.745c-0.136,0.231-0.21,0.494-0.217,0.763h-0.093c0.004,0.084-0.03,0.166-0.094,0.223
	c-0.051,0.063-0.035-0.022-0.062,0.063c0.017,0.018,0.027,0.04,0.03,0.063h-0.123v0.159c-0.096,0.114-0.199,0.221-0.311,0.318
	c-0.051,0.013-0.104,0.013-0.154,0c-0.066,0.188-0.199,0.347-0.373,0.444l-0.154-0.031c-0.079,0.037-0.135,0.228-0.217,0.285
	c-0.087,0.073-0.181,0.137-0.279,0.191c-0.046-0.029-0.102-0.041-0.155-0.031v0.031c-0.056,0.047-0.067,0.147-0.124,0.191
	c-0.131,0.072-0.256,0.158-0.372,0.254c-0.075-0.037-0.054-0.064-0.124-0.032c-0.054,0.052-0.072,0.14-0.123,0.191
	c-0.101,0.1-0.274,0.118-0.373,0.222c-0.076-0.02-0.092-0.075-0.123-0.031c-0.045,0.019-0.483,0.336-0.528,0.381
	c-0.038-0.028-0.08-0.05-0.124-0.064c-0.129,0.195-0.33,0.332-0.559,0.381c-0.131-0.13-0.248,0.049-0.4,0.1
	c-0.128,0.021-0.259-0.001-0.372-0.063c-0.189,0.104-0.409,0.139-0.621,0.101v-0.074c-0.222,0.066-0.452,0.101-0.683,0.1l-0.031-0.1
	c-0.1-0.034-0.4,0.107-0.559,0.1c-0.065-0.049-0.139-0.082-0.218-0.1c-0.185,0.083-0.388,0.117-0.59,0.1l-0.031-0.1
	c-0.213,0.057-0.432,0.091-0.651,0.1l-0.031-0.1c-0.211,0.068-0.431,0.102-0.652,0.1l-0.031-0.1c-0.219,0.075-0.451,0.109-0.683,0.1
	l-0.031-0.1c-0.219,0.077-0.451,0.111-0.683,0.1l-0.031-0.1c-0.218,0.079-0.451,0.113-0.683,0.1c-0.047-0.025-0.015-0.141-0.155-0.1
	l-0.062,0.1h-0.5c-0.047-0.025-0.015-0.141-0.155-0.1l-0.062,0.1h-0.466l-0.031-0.1c-0.219,0.075-0.451,0.109-0.683,0.1l-0.031-0.1
	c-0.22,0.075-0.451,0.109-0.683,0.1l-0.031-0.1c-0.219,0.077-0.451,0.111-0.683,0.1c-0.053-0.029-0.01-0.131-0.155-0.1
	c-0.167,0.103-0.367,0.139-0.559,0.1l-0.031-0.1c-0.219,0.077-0.451,0.111-0.683,0.1c-0.051-0.028-0.012-0.134-0.155-0.1
	c-0.158,0.096-0.345,0.132-0.527,0.1c-0.054-0.021-0.053-0.139-0.186-0.1l-0.062,0.1h-0.465l-0.031-0.1
	c-0.22,0.076-0.451,0.109-0.683,0.1c-0.048-0.025-0.037-0.148-0.186-0.1l-0.062,0.1h-0.466c-0.048-0.025-0.037-0.148-0.186-0.1
	l-0.062,0.1H9.403l-0.031-0.1c-0.219,0.077-0.451,0.111-0.683,0.1c-0.053-0.029-0.01-0.13-0.155-0.1
	c-0.167,0.103-0.367,0.139-0.559,0.1l-0.031-0.1c-0.219,0.077-0.451,0.111-0.683,0.1l-0.031-0.1
	c-0.22,0.072-0.454,0.094-0.683,0.063c-0.018-0.044-0.039-0.086-0.062-0.127c-0.204,0.055-0.419,0.044-0.616-0.032
	c0-0.1-0.006-0.126-0.186-0.127c-0.175,0.004-0.343-0.065-0.465-0.191c0.006-0.162-0.2-0.088-0.341-0.158
	c-0.097-0.033-0.19-0.076-0.279-0.127c-0.012-0.057-0.033-0.109-0.062-0.159H4.313c-0.117-0.041-0.237-0.149-0.372-0.19
	c0.022-0.051,0.022-0.109,0-0.16c-0.198-0.041-0.387-0.116-0.559-0.222c0.022-0.051,0.022-0.108,0-0.159
	c-0.196-0.011-0.383-0.089-0.528-0.222c-0.003-0.077-0.024-0.153-0.062-0.222H2.638c-0.117-0.051-0.215-0.188-0.341-0.254
	c0.025-0.039,0.025-0.089,0-0.127c-0.17-0.082-0.327-0.189-0.465-0.318v-0.191c-0.058-0.031-0.121-0.053-0.186-0.063
	c-0.031-0.024-0.033-0.138-0.063-0.154c-0.03-0.016-0.062,0.032-0.062,0.032c-0.11-0.016-0.209-0.072-0.279-0.159
	c-0.071-0.149-0.082-0.319-0.031-0.478c0.05-0.021,0.104-0.032,0.158-0.035v-0.127H1.334C1.289,22.484,1.24,22.516,1.21,22.48
	c-0.021-0.028-0.032-0.063-0.031-0.1c0.038-0.004,0.071-0.025,0.09-0.059H0.497V22.29c0.081-0.138,0.079-0.7,0.155-0.89
	c0.19-0.277,0.367-0.563,0.528-0.858H1.148v-0.026l-0.155,0.032c-0.02-0.134-0.062-0.265-0.124-0.386c-0.031,0-0.079,0.053-0.124,0
	c-0.014-0.063-0.014-0.128,0-0.191H0.528c-0.047-0.087-0.068-0.187-0.059-0.285c0.107-0.073,0.175-0.189,0.186-0.318
	c-0.075-0.106-0.049-0.336-0.124-0.445c-0.186-0.1-0.354-0.229-0.5-0.381C-0.03,18.4-0.041,18.244,0,18.096h0.031v-0.031h0.093
	c-0.01-0.051,0.016-0.103,0.062-0.127c-0.041-0.059-0.072-0.123-0.093-0.19c0.071-0.134,0.179-0.243,0.31-0.318
	c0.051,0.051,0.116,0.086,0.186,0.101c0.028-0.189,0.124-0.2,0.341-0.191c0.059-0.038,0.121-0.072,0.186-0.1
	c0.077-0.021,0.6,0,0.807,0v-0.101c0.17,0.03,0.337,0.072,0.5,0.127c0.239,0.01,0.478,0,0.714-0.032v-0.1
	c0.172-0.088,0.367-0.123,0.559-0.1c0.035-0.056,0.055-0.008,0.217,0v-0.335h0.276v0.418l1.831-0.254V16.73
	c0.179,0.024,0.079,0.053,0.155,0.1l1.3,0.032c0.031-0.044,0.074-0.08,0.124-0.1c0.049,0.154,0.07,0.316,0.062,0.478
	c0.107,0.035,0.225,0.011,0.31-0.064c-0.002-0.058-0.022-0.113-0.058-0.159c0.056-0.024,0.101-0.07,0.124-0.127
	c0.176,0.121,0.378,0.197,0.59,0.222c0.026-0.1-0.015-0.049,0.062-0.1c0,0.14-0.011,0.159,0.062,0.191v0.032h0.031l0.093-0.032
	l-0.031,0.064l0.125-0.028c0.087,0.038,0.081,0.155,0.186,0.127c0.125,0,0.25,0.011,0.372,0.032v0.126h0.652v-1.299H5.834
	c-0.111-0.086-0.237-0.151-0.372-0.191v0.127l-0.187-0.034c0.001-0.318,0.022-0.637,0.062-0.953c-0.115-0.025-0.222-0.08-0.31-0.159
	c0.167,0.016,0.279,0.084,0.341-0.064c0.065-0.23,0.117-0.464,0.155-0.7c-0.077-0.041-0.021,0.014-0.062-0.064
	c0.192-0.018,0.359-0.14,0.434-0.318c-0.042-0.092-0.073-0.188-0.093-0.286c0.04-0.017,0.082-0.028,0.124-0.032
	c0.185,0.144,0.427,0.19,0.652,0.127l0.091-0.569c0.099-0.096,0.235-0.142,0.372-0.127c0.291,0.093,0.596,0.127,0.9,0.1
	c0.099,0.158,0.225,0.298,0.372,0.413c0.238,0.089,0.496,0.111,0.745,0.064c-0.014-0.276-0.004-0.552,0.031-0.826h0.065
	c0.37-0.06,0.745-0.07,1.117-0.032c0-0.3,0.008-0.226,0-0.508h0.098c0-1.025,0.031-2.137,0.031-3.209
	c-0.041-0.486-0.041-0.975,0-1.461h0.031V9.46c0.056,0.25,0.066,0.509,0.031,0.763C10.458,10.876,10.486,11.575,10.489,12.187z
	 M17.189,12.632c0.084-0.012,0.17,0,0.248,0.032c-0.083,0.011-0.167,0-0.245-0.033L17.189,12.632z M17.965,12.632
	c0.084-0.012,0.17,0,0.248,0.032c-0.083,0.011-0.167-0.001-0.244-0.033L17.965,12.632z M12.317,12.664h0.062v0.032
	c-0.022-0.004-0.043-0.016-0.059-0.033L12.317,12.664z M18.275,12.696c0.036,0.046,0.036,0.112,0,0.159v-0.16V12.696z M10.269,12.76
	H9.185c-0.074,0.28-0.095,0.571-0.062,0.858h0.062c0.125-0.063,0.7,0.1,1.086,0.032v-0.256C10.32,13.185,10.32,12.968,10.269,12.76
	L10.269,12.76z M11.014,13.522h0.095v0.159l3.29,0.035v-0.89c-0.643-0.028-1.287,0.005-1.924,0.1h-0.528
	c-0.237,0.053-0.584,0.049-0.807,0.1c-0.035,0.058-0.076,0.112-0.124,0.159v0.349L11.014,13.522z M15.824,12.855v0.221h-0.055
	c-0.213,0.054-0.435,0.064-0.652,0.032v0.413h-0.248c-0.034,0.047-0.055,0.102-0.062,0.159c0.08,0.024,0.164,0.035,0.248,0.032
	v-0.127h0.838v0.131h0.026c0.068-0.034,0.148-0.034,0.217,0V13.14c0.025-0.016,0.047-0.038,0.063-0.063l0.093,0.032v0.317
	c0.073,0,0.745,0,0.745,0c0.034-0.03,0.065-0.064,0.093-0.1c0.024,0.003,0.046,0.015,0.062,0.032
	c0.057,0.048,0.108,0.101,0.155,0.159v0.159c0.228-0.015,0.457-0.004,0.683,0.032c0.042-0.189,0.072-0.38,0.093-0.572
	c-0.08-0.106-0.208-0.166-0.341-0.159c-0.165-0.031-0.333-0.042-0.5-0.032c-0.481-0.078-0.968-0.108-1.455-0.091L15.824,12.855z
	 M26.282,17.335c-0.237,0.102-0.449,0.253-0.621,0.445c-0.009,0.03-0.024,0.012,0,0.032c0.089,0.077,0.195,0.131,0.31,0.158v-0.287
	c0.078-0.047,0.15-0.1,0.217-0.16l0.4-0.1v-0.058h-0.056c-0.079-0.033-0.164-0.044-0.248-0.032L26.282,17.335z M28.482,17.875v0.127
	h0.093v0.159h-0.089v0.127h0.183v0.254h0.5v-0.063l-0.124-0.381c-0.211-0.334-0.637-0.457-0.993-0.287
	c-0.099,0.091-0.19,0.186-0.278,0.287v0.031c0.121,0.047,0.221,0.138,0.278,0.254c-0.063,0.041-0.116,0.096-0.155,0.159h0.248
	c0.008-0.013,0.019-0.024,0.031-0.032l0.031-0.254c-0.067-0.034-0.13-0.076-0.186-0.127c0.002-0.023,0.014-0.046,0.03-0.063
	c0.035-0.092,0.005-0.06,0.093-0.101c0.104-0.061,0.223-0.093,0.342-0.092L28.482,17.875z M26.993,18.193v0.349l0.278,0.101
	c0.03-0.137,0.041-0.275,0.031-0.414c-0.017-0.018-0.027-0.039-0.031-0.063h-0.025c-0.079,0.03-0.164,0.04-0.248,0.026
	L26.993,18.193z M26.932,18.193c-0.117,0-0.232,0.021-0.342,0.063v0.06c0.141,0.035,0.212,0.115,0.342,0.158v-0.283V18.193z
	 M28.109,18.955l-0.03-0.286h-0.31c-0.023,0.04-0.055,0.075-0.094,0.101v0.031c0.144,0.059,0.29,0.11,0.439,0.153L28.109,18.955z
	 M28.669,18.669v0.413c0.181,0.188,0.378,0.357,0.59,0.508v-0.158c-0.063-0.25-0.095-0.506-0.093-0.763H28.669z M29.32,19.908
	c-0.048,0.053-0.08,0.119-0.092,0.191c0.135,0.13,0.25,0.279,0.34,0.444c0.023,0.03,0.181,0.112,0.248,0.159
	c-0.027,0.028-0.049,0.063-0.062,0.1h0.187c0.078,0.033,0.164,0.044,0.248,0.032v-0.069c-0.086-0.097-0.16-0.203-0.217-0.318
	c-0.182-0.218-0.4-0.4-0.647-0.54L29.32,19.908z"/>
</svg>
