<svg xmlns="http://www.w3.org/2000/svg" width="40" height="40" viewBox="0 0 40 40">
  <defs>
    <style>
      .cls-1 {
        fill: #fff;
        fill-rule: evenodd;
      }
    </style>
  </defs>
  <path id="it_oto_r3_t20_fa_ico" class="cls-1" d="M18.067,11.981a2.518,2.518,0,0,1,.317,0c0.008-.162.1-0.146,0.271-0.134a0.159,0.159,0,0,0,.113.178V12.16h0.113a0.979,0.979,0,0,1-.068.29h0.362a0.622,0.622,0,0,1,.271-0.022,0.475,0.475,0,0,0,.43.29V12.651c0.447,0,.945.022,1.425,0.022a5.947,5.947,0,0,1,.995.022c0.158,0.031.382-.03,0.543,0v0.089c2.549,0.1,5.252.067,7.891,0.067a12.694,12.694,0,0,0,2.374-.022,1.965,1.965,0,0,1,.52,0L33.669,12.9a0.747,0.747,0,0,0,.407-0.134V13.3a1.481,1.481,0,0,0-.384-0.111,1.207,1.207,0,0,1-.814,0l-0.475.022H31.046a5.424,5.424,0,0,1-.972.022H28.242c-1.813,0-3.661.039-5.4,0.067v0.089a1.507,1.507,0,0,1-.407.022,2.511,2.511,0,0,0-.678,0c-0.626,0-1.285.016-1.877,0.022V13.32H19.853a1.193,1.193,0,0,1-.181.045c0.032,0.108.075,0.191-.023,0.268a0.3,0.3,0,0,1-.249.022v0.112a2.766,2.766,0,0,0-.656.245c-0.312.127-.615,0.185-0.927,0.312a1.308,1.308,0,0,1-.5.178c-0.02-.017-0.025-0.028-0.045-0.045a0.264,0.264,0,0,1-.068.045v0.022H17.23a1.041,1.041,0,0,1,.294.312,3.4,3.4,0,0,0,.136.736,1.109,1.109,0,0,0,.43.022v0.089h0.882a1.431,1.431,0,0,1,.226.558h0.746V15.595c0.088,0,.1.011,0.136-0.045h-0.09V15.416h2.284V15.349h0.52v0.067H25.1V15.55h-0.09v0.045h0.136V15.84h0.023V15.818a0.433,0.433,0,0,1,.249-0.223v0.647h0.271v-0.2H25.551V15.929c1.333-.034,2.824,0,4.228,0l-0.023.29a2.861,2.861,0,0,0,.746.022V16.2a0.807,0.807,0,0,1-.068-0.334,0.238,0.238,0,0,1,.136-0.045,0.778,0.778,0,0,1,.52-0.022,1.847,1.847,0,0,1,.136.535c0.1,0.341.216,0.689,0.294,1.026-0.072.02-.063,0.025-0.068,0.045a0.448,0.448,0,0,0,.09.045,0.228,0.228,0,0,0,.023.2,1.211,1.211,0,0,1,.678.245L33.33,18.45c0.772,0.4,1.574.742,2.306,1.182,0.188,0.113.4,0.155,0.588,0.268,0.385,0.231.829,0.39,1.221,0.625a2.4,2.4,0,0,0,.565.29,0.389,0.389,0,0,1,.045-0.111h0.023V20.68a0.333,0.333,0,0,1-.339-0.178A1.7,1.7,0,0,1,37.6,19.52h0.226V19.431h0.136v0.8H37.829V20.167H37.739a0.967,0.967,0,0,0,.068.335c0.078,0.03.181,0.144,0.249,0.045C38,20.513,38.008,20.48,38.01,20.39a0.3,0.3,0,0,0,.2-0.067,2.333,2.333,0,0,0,.068-0.357c0.041-.1.142-0.174,0.181-0.29-0.166-.219-0.036-0.228.023-0.379,0.238-.611.768-0.44,1.515-0.424V19.03H39.548a0.4,0.4,0,0,1-.045.245,0.154,0.154,0,0,1-.09.022c0,0.287.034,0.548,0.023,0.758a1.832,1.832,0,0,0-.7.022,0.241,0.241,0,0,0-.113.245,0.08,0.08,0,0,0-.023.045h0.158a0.116,0.116,0,0,0,.068.022v0.156a0.764,0.764,0,0,1-.2.045v0.134a0.417,0.417,0,0,1,.136-0.022,1.1,1.1,0,0,0,.113.156l0.136,0.491a1.367,1.367,0,0,1,.7.357A1.846,1.846,0,0,1,40,21.84v0.134a2.357,2.357,0,0,0-.588.4c-0.491.341-.986,0.668-1.47,1a1.2,1.2,0,0,0-.633.535,1,1,0,0,1,.023.312,0.3,0.3,0,0,1-.09.268,0.9,0.9,0,0,1-.882-0.067,3.336,3.336,0,0,1-.723.491c-0.245.17-.49,0.344-0.746,0.513a1.941,1.941,0,0,1-.181.156H32.832V25.5H32.787a1,1,0,0,0-.565.424,1.552,1.552,0,0,0-.045.379L32,26.926a3.463,3.463,0,0,1-1.425,1.628,3.965,3.965,0,0,1-.859.335,2.23,2.23,0,0,1-.927.067H28.491a5.093,5.093,0,0,1-.611-0.134,3.353,3.353,0,0,1-1.764-1.427,2.283,2.283,0,0,1-.43-1.115H12.052V26.3H12.029a2.268,2.268,0,0,1-.452,1.138,3.367,3.367,0,0,1-1.741,1.383,5.124,5.124,0,0,1-.611.134H8.932a2.131,2.131,0,0,1-.837-0.045,3.316,3.316,0,0,1-2.374-2.074,1.912,1.912,0,0,1-.181-0.714h-1.4V25.587H3.075a1.713,1.713,0,0,1-.633.089,0.774,0.774,0,0,1-.226-0.825,4.945,4.945,0,0,1-.611-0.446,6.927,6.927,0,0,1-.814-0.6V22.4H0.2V22.331H0.136A0.644,0.644,0,0,1,.09,22a0.648,0.648,0,0,0,.045-0.357C0.11,21.557.024,21.457,0,21.372v-0.6H0.7V20.524h0.09l0.045-.714a6.026,6.026,0,0,0,.927-0.357c0.581-.238,1.176-0.416,1.741-0.647,0.291-.119.568-0.171,0.859-0.29,1.2-.488,2.449-0.867,3.663-1.361,0.506-.206,1.037-0.368,1.56-0.58a2.91,2.91,0,0,1,1.176-.335V15.595h0.091a1.094,1.094,0,0,1,.317.647h1.7a1.561,1.561,0,0,1,.2-0.558h1.063V15.639a2.842,2.842,0,0,1-.5-0.2c-0.492-.2-1-0.361-1.447-0.58H11.735q0.011-1.249.023-2.5a6.128,6.128,0,0,0-.045-0.669c-0.015-.13.068-0.3,0.045-0.357H11.713V11.022c0.629-.01,1.345,0,2.035,0a2.839,2.839,0,0,1,.972.045h0.249a2.507,2.507,0,0,1,.633.045,3.014,3.014,0,0,1,.791.335,1.176,1.176,0,0,0,.452.268,4.406,4.406,0,0,1,1.176,0l0.023,0.067A0.408,0.408,0,0,1,18.067,11.981Z" transform="translate(0 0.016)"/>
</svg>
