<svg xmlns="http://www.w3.org/2000/svg" width="39.969" height="40" viewBox="0 0 39.969 40">
  <defs>
    <style>
      .cls-1 {
        fill: #fff;
        fill-rule: evenodd;
      }
    </style>
  </defs>
  <path id="it_oto_r3_106sr_ico" class="cls-1" d="M7.306,11.3v0.069a1.582,1.582,0,0,1,.827.255c0.033,0.021.082,0.1,0.115,0.116H8.731l1.149,0.069a1.574,1.574,0,0,1,.85-0.371,0.844,0.844,0,0,0,.437-0.07H11.1V11.116c1,0,2.069.022,3.1,0.023V11.3h0.276V11.116H14.8V11.3c1.726,0.091,3.488.07,5.284,0.023a0.113,0.113,0,0,1,.023-0.069,0.3,0.3,0,0,1,.161-0.023v0.023h0.023v0.069h0.391v0.232H20.31V11.9c4.633,0,9.289.018,13.9,0v1.019c-3.717-.013-7.472,0-11.235,0-1.174,0-2.441-.076-3.515.023-0.687.063-1.469-.1-2.114,0.023v0.07a0.119,0.119,0,0,1,.023.069,0.349,0.349,0,0,1-.138.046,2.353,2.353,0,0,0-.643-0.046H15.141a0.69,0.69,0,0,1-.322.023v0.046h0.023c0.095,0.073.242,0.072,0.345,0.139a1.952,1.952,0,0,0,.712.487,0.083,0.083,0,0,1,.046-0.023,0.888,0.888,0,0,0,.207.348c0.165,0.314.321,0.621,0.483,0.927a0.428,0.428,0,0,0,.276.347c0.17-.366.293-0.362,0.827-0.347V15.4h0.437a0.907,0.907,0,0,0,.528.162v0.162h0.919c0-.3.038-0.591,0.046-0.834h2.321V14.822h0.528v0.069h2.344a0.47,0.47,0,0,1-.023.162h0.069v0.255h0.023a0.424,0.424,0,0,1,.253-0.255v0.672h0.276V15.517H25.319V15.4c1.354-.035,2.87,0,4.3,0l-0.023.324h0.643a7.917,7.917,0,0,1-.069-0.927l0.46-.07a2.617,2.617,0,0,1,.161.556v0.185S31,15.59,30.879,15.61a0.464,0.464,0,0,1,.23.093,2.561,2.561,0,0,1,.184.672,1.06,1.06,0,0,1-.023.6c-0.021.037-.121,0.061-0.138,0.093l0.046,0.139H31.66c0.44,0.3.968,0.438,1.424,0.718,0.942,0.578,1.974,1.032,2.964,1.552,0.436,0.229.888,0.452,1.333,0.695a1.932,1.932,0,0,0,.6.3,0.359,0.359,0,0,1,.069-0.139c-0.53-.006-0.494-0.658-0.483-1.2h0.23V19.039h0.138V19.9H37.794V19.8H37.7a0.413,0.413,0,0,0,.138.394,0.238,0.238,0,0,0,.138.046V20.035h0.207a1.08,1.08,0,0,1,.253-0.695,2.22,2.22,0,0,1-.092-0.324A1.593,1.593,0,0,0,38.6,18.6a2.3,2.3,0,0,1,1.4-.116v0.139H39.541a0.388,0.388,0,0,1-.046.255,0.153,0.153,0,0,1-.092.023,3.315,3.315,0,0,1,0,.788c-0.2.121-.575-0.083-0.689,0.023a0.264,0.264,0,0,0-.115.255,0.119,0.119,0,0,0-.023.069h0.23V20.22a0.762,0.762,0,0,1-.207.046v0.116a0.419,0.419,0,0,1,.138-0.023c0.031,0.088.108,0.159,0.138,0.232,0.06,0.148.06,0.306,0.115,0.44a2.008,2.008,0,0,1,.528.209c0,0.073-.039.031,0.023,0.07A0.692,0.692,0,0,1,40,21.68a5.612,5.612,0,0,0-.712.51c-0.444.314-.889,0.627-1.333,0.927a1.34,1.34,0,0,0-.689.6,0.977,0.977,0,0,1,0,.556,0.462,0.462,0,0,1-.207.139,2.255,2.255,0,0,1-.735-0.162,4.708,4.708,0,0,0-.62.44c-0.182.129-.369,0.219-0.551,0.348a2.732,2.732,0,0,1-.528.394H32.717V25.34H32.694a2.573,2.573,0,0,1-.6.324,3.383,3.383,0,0,1-2.343,3.151,3.324,3.324,0,0,1-3.837-1.459,2.5,2.5,0,0,1-.459-1.181H11.58a2.29,2.29,0,0,1-.437,1.158,3.237,3.237,0,0,1-2.022,1.506,3.093,3.093,0,0,1-1.47.069,3.413,3.413,0,0,1-2.183-1.552,2.614,2.614,0,0,1-.482-1.367H3.561V25.432H2.55a1.947,1.947,0,0,1-.827.069,1.868,1.868,0,0,1-.115-0.811A9.771,9.771,0,0,1,.161,23.579V23.093H0.046V22.166H0.161V21.958H0.069c0-.107-0.061-0.308-0.046-0.348a2.74,2.74,0,0,0,.046-0.764c0-.1-0.056-0.368-0.046-0.394H0.069V20.2H0.161l0.046-.741C2.1,18.645,4.1,18.027,6,17.232c0.356-.15.7-0.222,1.057-0.371,0.635-.265,1.3-0.47,1.953-0.741a3.213,3.213,0,0,1,1.287-.394V15.054h0.092a1.452,1.452,0,0,1,.322.672h1.769V15.564A1.106,1.106,0,0,0,13,15.4h0.6a1.306,1.306,0,0,0-.115-0.371c-0.109-.33-0.157-0.625-0.276-0.95a0.957,0.957,0,0,1-.115-0.463,2.61,2.61,0,0,0,.391-0.139,0.085,0.085,0,0,1,.115.046l0.276-.046V13.317a0.119,0.119,0,0,0,.023-0.069H13.716v0.069a13.232,13.232,0,0,1-1.562-.046V13.2a7.018,7.018,0,0,0-1.057.116c-0.207.045-.447-0.056-0.62-0.023a1.682,1.682,0,0,1-.666.023c-0.2-.045-0.436-0.053-0.643-0.116a1.329,1.329,0,0,0-.735-0.116,3.817,3.817,0,0,1-1.126.371v0.069H6.548V12.738H6.387V12.552L6.02,12.529V12.321H6.043V12.3A0.3,0.3,0,0,0,6.3,12.228a0.157,0.157,0,0,1-.046-0.116A0.328,0.328,0,0,1,6.456,12a0.438,0.438,0,0,1,.092-0.232V11.3H6.755c0.137-.526,1.472-0.142,1.792-0.046A0.265,0.265,0,0,1,8.662,11L8.8,11.023a0.35,0.35,0,0,1,.046.093,0.139,0.139,0,0,1-.092.208c-0.1.06-.987-0.2-1.356-0.139a0.619,0.619,0,0,0-.46.093H6.916V11.3H7.306Z" transform="translate(-0.031)"/>
</svg>
