<svg xmlns="http://www.w3.org/2000/svg" width="40" height="40" viewBox="0 0 40 40">
  <defs>
    <style>
      .cls-1 {
        fill: #fff;
        fill-rule: evenodd;
      }
    </style>
  </defs>
  <path id="it_otomatic_ico" class="cls-1" d="M8.223,17.993H9.031a5.815,5.815,0,0,0-.048-0.706,0.259,0.259,0,0,0,.19-0.071,2.522,2.522,0,0,1-.214-0.424,6.167,6.167,0,0,1-.689-1.366l0.071-.353a5.976,5.976,0,0,0-.024-1.295H8.152v0.212H7.843V13.779H7.7c0-.349.024-0.742,0-1.083H7.819V12.249a0.412,0.412,0,0,1,.285,0A1.047,1.047,0,0,0,8.461,12.2a0.1,0.1,0,0,0,.1.047V12.084H8.223c-0.029-.058-0.042-0.036-0.071-0.094-0.019-.038-0.059-0.159-0.1-0.235l-0.048.024V11.755a1.018,1.018,0,0,0-.024-0.141,2.242,2.242,0,0,1-.166-0.188,0.253,0.253,0,0,0,.024-0.141A0.635,0.635,0,0,0,8.1,11.072c0.229-.156,1.333-0.6,1.331.071a1.816,1.816,0,0,1-.071.706,0.428,0.428,0,0,1-.261.235v0.165A0.269,0.269,0,0,1,9.269,12.2v0.047H9.317s-0.006-.038.1-0.047a1.559,1.559,0,0,1,.048.494,0.158,0.158,0,0,1,.024.094H9.364v0.141c-0.3.183-.249,0.4-0.238,0.871a2.993,2.993,0,0,1,.238.659c0.055,0.132.165,0.258,0.214,0.377,0.014,0.035-.058.006-0.048,0.071a1.6,1.6,0,0,0,.214.4,0.817,0.817,0,0,1,.19.024c0.182,0.325.4,0.634,0.594,0.942a5.43,5.43,0,0,0,.594.918h0.761c0.055-.028.1-0.1,0.143-0.118a3.129,3.129,0,0,1,.594-0.023V16.981h-0.1V16.91c0.141-.014.13-0.062,0.285-0.071a0.476,0.476,0,0,1,.1.141c-0.06.034-.027-0.005-0.047,0.071l0.1,0.023V16.981h0.1c-0.012-.338-0.157-0.727-0.166-1.13a2.35,2.35,0,0,1-.642-0.895c-0.061-.094-0.21-0.142-0.261-0.236l-0.024-.283a1.4,1.4,0,0,0,.143-0.753c0.066,0,.051.027,0.071-0.071a0.285,0.285,0,0,1-.024-0.447h1.188a0.941,0.941,0,0,0,1,.283,0.325,0.325,0,0,1,.357-0.118c0.01,0.147.024,0.318,0.024,0.494-0.105.081-.165,0.216-0.261,0.306V14.3h0.19l0.166-.353c0.093,0,.107.012,0.143-0.047,0.133-.177.15-0.439,0.285-0.612A1.647,1.647,0,0,0,15.52,13.1a0.405,0.405,0,0,1,.309-0.282l-0.024.541a0.951,0.951,0,0,0-.19.377c0.293,0.289.482,0.685,0.784,0.965,0,0.093-.054.13-0.047,0.188,0.063,0.035.044,0.05,0.047,0.141a9.071,9.071,0,0,0-.808.989,1.5,1.5,0,0,1,.238.871H15.71a3.709,3.709,0,0,0-.309-0.424H15.259a2.569,2.569,0,0,1-.309-0.683,0.149,0.149,0,0,1-.166-0.071c-0.087-.12-0.056-0.3-0.261-0.306v0.612a1.2,1.2,0,0,1,.261.024,9.037,9.037,0,0,1,.024.942c0.249,0,.428-0.046.713-0.047l0.071,0.588a3.106,3.106,0,0,1,.547.024c0.055,0.28.485,0.245,0.832,0.235a1.1,1.1,0,0,1,.523,0,1.3,1.3,0,0,0,.119-0.118,1.1,1.1,0,0,1,.57.047,0.491,0.491,0,0,1,.024-0.235,0.869,0.869,0,0,1,.357-0.024v0.024h0.024a3.183,3.183,0,0,1,.024.353H18.538v0.118a5.079,5.079,0,0,0,1.212.047,0.332,0.332,0,0,0,.048-0.071h0.666v0.071h0.4a1.124,1.124,0,0,1-.047-0.306,0.563,0.563,0,0,1,.261-0.071,0.329,0.329,0,0,1,.1.165,0.454,0.454,0,0,1-.048.212L22.7,17.97a6.588,6.588,0,0,0,.927.895,1.347,1.347,0,0,0,.4.377c0.016-.1.02-0.1,0.119-0.118a0.207,0.207,0,0,1,.071.141,1.1,1.1,0,0,0-.143.071l0.808,0.777L25.051,20.3h3.185a4.163,4.163,0,0,0,.808.047c0.764,0.164,1.661,0,2.424.165,0.205,0.044.411-.008,0.57,0.047V20.63h1.07V20.559a0.7,0.7,0,0,0,.071-0.094H34.3a0.066,0.066,0,0,0,.024.024v0.071h0.071v0.094L40,20.7v0.424l-5.609.047v0.094H34.32a0.113,0.113,0,0,1-.024.071,3.239,3.239,0,0,1-.832.024c-0.054.131-.083,0.029-0.143,0a1.313,1.313,0,0,1-.143-0.024,0.253,0.253,0,0,1-.071-0.141h-1.07a0.113,0.113,0,0,1-.024.071,2.065,2.065,0,0,1-.547.047c-0.239.051-.569,0.02-0.808,0.071h-0.4c-0.239.051-.569,0.02-0.808,0.071h-0.4c-0.244.052-.536-0.011-0.808,0.047a4.783,4.783,0,0,1-.856.024H25.668a2.629,2.629,0,0,1-.38.377c-0.234.232-.456,0.475-0.689,0.706l-0.38.424H23.6v0.141h2l0.143-.235a0.378,0.378,0,0,0,.119.024,0.647,0.647,0,0,1-.048.212c0.11,0.019.248,0.076,0.357,0.094a1.034,1.034,0,0,0,.309-0.047V23.29H26.6V23.2h0.047a0.664,0.664,0,0,0,.261.047v0.118l0.285,0.023,0.024-.212a0.357,0.357,0,0,1,.1-0.047,2.227,2.227,0,0,0,.38.047l0.047,0.071a0.128,0.128,0,0,0,.119-0.047,0.35,0.35,0,0,0,.071.118,0.086,0.086,0,0,1,.048-0.023c-0.008-.1-0.042-0.106.095-0.118a0.463,0.463,0,0,0,.1.047,0.256,0.256,0,0,0,.024.259,2.457,2.457,0,0,0,.832.188V23.173H29a0.692,0.692,0,0,1-.523.047,0.284,0.284,0,0,1-.1-0.212,0.4,0.4,0,0,1,.119-0.494,0.92,0.92,0,0,1,.689.071,0.421,0.421,0,0,0,.071.094,2.216,2.216,0,0,1-.024.424c-0.214.108-.179,0.207-0.166,0.518h0.024a0.3,0.3,0,0,1,.309-0.094,0.894,0.894,0,0,1,.166.141c0.152,0.208-.194.509,0.071,0.612V24.256a0.761,0.761,0,0,0,.1-0.141c0.032,0.017.065,0.058,0.1,0.071l0.071-.024,0.047,0.094h0.119a1.708,1.708,0,0,0,.166.165,0.522,0.522,0,0,0,.119,0L30.4,24.515a2.053,2.053,0,0,0,.452.212c0.022-.123.045-0.3,0.071-0.4a1.672,1.672,0,0,1,.666-0.071V24.35H31.349V24.42H31.278v0.4H31.04v0.047h0.024a0.162,0.162,0,0,0,.095.024,2.377,2.377,0,0,0,.38-0.141v0.071a0.347,0.347,0,0,1,.238,0,0.142,0.142,0,0,1,.119.094c0.11,0.135.007,0.4,0.238,0.424a0.314,0.314,0,0,1,.19-0.235,0.258,0.258,0,0,0,.048.071,0.526,0.526,0,0,1-.214.377,0.306,0.306,0,0,1-.262.024v0.447a0.355,0.355,0,0,1,.1.094,0.574,0.574,0,0,0-.1.306,0.557,0.557,0,0,0-.024-0.259c-0.135.166-.491,0.226-0.618,0.377-0.02.024,0.078,0.052-.024,0.118-0.02.015-.075,0.032-0.1,0.047a0.085,0.085,0,0,1,.024.047H31.3c0,0.217-.013.35-0.024,0.565a0.408,0.408,0,0,1-.143-0.023v0.094h0.048V27.41l0.047-.023V27.41h0.024a0.992,0.992,0,0,1-.238.494c-0.052.022-.09-0.021-0.143,0H30.85v0.047a0.318,0.318,0,0,1,.1.047,0.86,0.86,0,0,1-.451.4,0.093,0.093,0,0,0-.071-0.094v0.024a0.082,0.082,0,0,0-.048.024,0.234,0.234,0,0,1,.071.118,1.864,1.864,0,0,1-.475.188,0.28,0.28,0,0,0-.1-0.094v0.023H29.852L29.9,28.729c-0.187.041-.285,0.156-0.475,0.188L29.4,28.823H29.329l0.024,0.141a1.226,1.226,0,0,1-.451.188,0.28,0.28,0,0,0-.1-0.094v0.024H28.782l0.048,0.141a2.347,2.347,0,0,0-.475.212V29.388a0.12,0.12,0,0,1-.024-0.071H28.259l0.024,0.165a4.143,4.143,0,0,0-.475.188,0.154,0.154,0,0,0-.047-0.118,0.087,0.087,0,0,1-.048.023v0.047a0.459,0.459,0,0,1,.048.094,4.382,4.382,0,0,1-.5.188,0.367,0.367,0,0,1-.024-0.118,0.3,0.3,0,0,0-.1.024,0.11,0.11,0,0,1,0,.118,1.191,1.191,0,0,1-.523.047V29.835a0.116,0.116,0,0,0-.071.023,0.068,0.068,0,0,1,0,.094,1.307,1.307,0,0,1-.5.024V29.835H25.954v0.047a0.158,0.158,0,0,1,.024.094H25.455V29.835H25.383v0.141h-0.5V29.835H24.789v0.047a0.158,0.158,0,0,1,.024.094H24.29V29.835H24.219v0.141h-0.5V29.835H23.625v0.141h-0.5V29.835H23.054v0.141h-0.5V29.835h-0.1v0.141h-0.5V29.835H21.89v0.141h-0.5V29.835H21.319v0.141H20.8V29.835H20.725v0.141h-0.5V29.835H20.155v0.141H19.632V29.835H19.56v0.141h-0.5V29.835H18.99v0.141H18.467V29.835H18.4v0.141H17.9V29.835H17.825v0.141H17.3V29.835H17.231v0.141h-0.5V29.835H16.661v0.141H16.138V29.835H16.067v0.141h-0.5V29.835H15.5v0.141H14.973V29.835H14.9v0.141H14.4V29.835H14.332v0.141h-0.5V29.835h-0.1v0.141h-0.5V29.835H13.167v0.141h-0.5V29.835h-0.1v0.141h-0.5V29.835H12v0.141H11.5V29.835h-0.1v0.141h-0.5V29.835H10.838v0.141H10.315l0.024-.141h-0.1v0.141h-0.5V29.835H9.673v0.141H9.15V29.835H9.079v0.141H8.58V29.835H8.509l-0.024.141h-0.5l-0.024-.071a0.119,0.119,0,0,0,.024-0.071H7.914v0.141a2.475,2.475,0,0,1-.547-0.047,0.219,0.219,0,0,0,0-.141,0.082,0.082,0,0,0-.048.024,0.157,0.157,0,0,0-.024.094,0.808,0.808,0,0,1-.547-0.259,0.225,0.225,0,0,0,.071-0.094H6.774V29.529c-0.024-.023-0.024.023-0.024,0.024a0.211,0.211,0,0,0-.071.071A0.842,0.842,0,0,1,6.3,29.27a0.448,0.448,0,0,0,.071-0.094H6.322a0.288,0.288,0,0,1-.119.047,1.316,1.316,0,0,1-.357-0.33c0.046-.036.066-0.058,0.048-0.094V28.776c-0.072.023-.071,0.046-0.143,0.071a1.791,1.791,0,0,1-.333-0.353,0.145,0.145,0,0,0,.048-0.047h-0.1a1.021,1.021,0,0,1-.665-0.235,3.688,3.688,0,0,1-.832-0.824,1.318,1.318,0,0,0-.309-0.377h-0.4a0.363,0.363,0,0,1-.4.212A0.086,0.086,0,0,0,2.709,27.2a0.761,0.761,0,0,1-.19-0.4H2.567a0.121,0.121,0,0,1,.071-0.024,0.414,0.414,0,0,0,.048.094V26.845a0.566,0.566,0,0,0,.024-0.259,0.091,0.091,0,0,1-.048-0.071,0.842,0.842,0,0,1,.166-0.235,0.628,0.628,0,0,1,.357,0V26.21H2.424V25.621a0.187,0.187,0,0,0-.166-0.071V25.527H2.4a16.855,16.855,0,0,0,.024-1.789H2.353c-0.007-.061.011-0.042-0.1-0.047V23.667c0.107,0,.11.007,0.143-0.071a0.845,0.845,0,0,0,.024-0.353H3.232V23.173H3.684V23.126H3.827c0.068-.043.012-0.076,0.143-0.094L4.04,23.149a0.377,0.377,0,0,1,.119-0.024V23.031a0.516,0.516,0,0,1,.166-0.024,0.428,0.428,0,0,0,.261.071,0.313,0.313,0,0,1,.048.071c0.035-.011.127-0.067,0.143-0.071a4.807,4.807,0,0,1,.523.071c0.018-.062.028-0.056,0.048-0.118a0.084,0.084,0,0,1,.024.047,0.251,0.251,0,0,0,.143.047c0.028-.085.036-0.086,0.143-0.094a0.435,0.435,0,0,0,.475.141,1.357,1.357,0,0,1,.475,0V23.149H6.631V23.079l0.238,0.047a0.16,0.16,0,0,1,.119-0.047,0.784,0.784,0,0,0,.19.071,0.161,0.161,0,0,1,.071-0.118v0.118a1.335,1.335,0,0,1,.285-0.071,0.661,0.661,0,0,0,.238.094,1.218,1.218,0,0,1,.879-0.235c0.273-.046.763,0.016,1.117,0,0.557-.025,1.35.021,1.83,0.024a1.683,1.683,0,0,1,.357.165c0.009-.127.032-0.122,0.166-0.118a0.525,0.525,0,0,0,.309.094c0.008,0.117.115,0.077,0.285,0.071l0.024-.071c-0.074-.029-0.054-0.009-0.071-0.094l0.071-.023c0.127-.071.162,0.066,0.238,0.094l0.238-.024v0.071h0.048a2.791,2.791,0,0,0,.285,0v0.047h2.092V23.031H14.284a4.113,4.113,0,0,0-.784-0.659,2.281,2.281,0,0,0-.285-0.282H7.724c-0.066-.569-0.32-1.36-0.38-2.048H7.035c-0.04-.135-0.173-0.25-0.214-0.377a1.031,1.031,0,0,0,0-.188,4.754,4.754,0,0,0-.38-0.542c-0.435-.717-0.89-1.382-1.331-2.072-1.123-1.754-2.257-3.47-3.375-5.226-0.424-.667-0.876-1.324-1.307-2C0.295,9.426.117,9.229,0,9H0.048V9.024a5.026,5.026,0,0,1,.547.848c0.446,0.7.926,1.386,1.378,2.1,1.11,1.741,2.335,3.439,3.446,5.179,0.411,0.644.842,1.263,1.26,1.883a1.116,1.116,0,0,0,.523.565,0.688,0.688,0,0,0,.428-0.259,5.8,5.8,0,0,1-.665-1.059c-0.425-.667-0.876-1.324-1.307-2-1.11-1.741-2.282-3.451-3.4-5.2-0.283-.444-0.58-0.9-0.879-1.342A3.348,3.348,0,0,1,.9,9H0.951a4.168,4.168,0,0,0,.57.871c0.427,0.633.854,1.273,1.26,1.907,1.155,1.806,2.342,3.561,3.494,5.368C6.6,17.663,6.956,18.176,7.3,18.7a7.363,7.363,0,0,1,.452.636,3.432,3.432,0,0,0,.475-0.212v-1.13Zm23.2,6.757a0.085,0.085,0,0,1,.024.047H31.42V24.75Zm0.5,1.672a0.324,0.324,0,0,1,0,.259V26.422Zm0.024,0.259a0.157,0.157,0,0,1,0,.165V26.681Z" transform="translate(0 0.5)"/>
</svg>
