<?xml version="1.0" encoding="utf-8"?>
<!-- Generator: Adobe Illustrator 16.0.0, SVG Export Plug-In . SVG Version: 6.00 Build 0)  -->
<!DOCTYPE svg PUBLIC "-//W3C//DTD SVG 1.1//EN" "http://www.w3.org/Graphics/SVG/1.1/DTD/svg11.dtd">
<svg version="1.1" id="Layer_1" xmlns="http://www.w3.org/2000/svg" xmlns:xlink="http://www.w3.org/1999/xlink" x="0px" y="0px"
	 width="40px" height="40px" viewBox="0 0 40 40" enable-background="new 0 0 40 40" xml:space="preserve">
<path id="Color_Fill_1" fill="#FFFFFF" d="M7.94,13.858v0.11c-0.12,0.008-0.236,0.045-0.337,0.11
	c-0.026-0.165-0.077-0.325-0.15-0.475h0.225c0.279,0.086,0.576,0.099,0.861,0.037h1.049c0.028-0.071,0.107-0.105,0.178-0.077
	c0.003,0.001,0.006,0.002,0.009,0.004c0.042,0.009,0.153,0.1,0.187,0.11h0.974c0.018-0.063,0.043-0.125,0.075-0.183v0.146h0.225
	v0.037c-0.028,0.004-0.055,0.017-0.075,0.037h0.075c0.135-0.037,0.277-0.037,0.412,0v0.11c-0.488-0.027-0.978-0.002-1.461,0.073
	h0.15v0.146C10.1,14.026,9.982,14.012,9.775,14v0.037c0.032,0.131,0.032,0.269,0,0.4h-0.15C9.653,14.289,9.691,14.143,9.738,14
	H9.513c-0.045,0.027-0.098,0.04-0.15,0.037c0.008,0.123-0.004,0.246-0.037,0.365H9.4c0.459,0.064,0.922,0.101,1.386,0.11
	c0.33,0.147,0.688,0.222,1.049,0.219c0.131,0,0.237-0.08,0.3-0.073l0.112,0.073h0.6c0.067,0.026,0.15,0.158,0.225,0.183
	c0.486,0.052,0.978,0.04,1.461-0.037v-0.11h0.262c0.227,0.224,0.563,0.295,0.861,0.183c0.058,0.026,0.005,0,0.112,0
	c0.012,0.152-0.007,0.134,0.112,0.183c0.293,0.134,0.614,0.197,0.936,0.183c0.014,0.1-0.028,0.048,0.075,0.073l0.037,0.219
	c0.146,0.05,0.275,0.139,0.375,0.256l0.112-0.037v-0.032c-0.041,0-0.08-0.013-0.112-0.037c0.151-0.289,0.428-0.491,0.749-0.548
	c0.021,0.02,0.047,0.033,0.075,0.037V15.9H18.09v0.037c-0.064-0.006-0.129,0.006-0.187,0.037c-0.026-0.028-0.049-0.082-0.075-0.11
	l-0.037,0.219c0.216,0.007,0.431,0.044,0.637,0.11c0.686,0.062,1.375,0.062,2.06,0c0.176,0.007,0.352-0.005,0.524-0.037
	c0.14,0.068,0.297,0.093,0.45,0.073c0.124-0.033,0.218-0.149,0.337-0.183c0.305-0.085,0.448,0.1,0.824,0
	c0.549-0.053,1.102-0.041,1.648,0.037v-0.11h0.149v0.11c0.308,0.014,0.3,0.159,0.601,0.183c0.03-0.119-0.019-0.056,0.074-0.11
	c0,0.139-0.037,0.1,0.15,0.11c-0.021-0.059-0.021-0.124,0-0.183h0.037v0.037c0.072,0.111-0.045,0.142,0.225,0.146
	c0.112,0.006,0.225,0.006,0.337,0c0.005-0.05,0.017-0.1,0.037-0.146h0.038v0.04c0.046,0.065,0,0.064,0.038,0.11
	c0.075-0.008,0.15-0.008,0.226,0c0.014-0.1-0.028-0.048,0.074-0.073c0.301,0.106,0.623,0.131,0.936,0.073
	c0.031-0.119-0.018-0.056,0.076-0.11c0,0.122-0.025,0.114,0.187,0.11c0.2,0.013,0.4,0.013,0.601,0c-0.014-0.048-0.014-0.098,0-0.146
	h0.033v0.036c0.168,0.138,0.395,0.179,0.6,0.11c0.092-0.026,0.18-0.063,0.263-0.11v0.11c0.62-0.031,1.052,0.036,1.76,0.037
	c0.007-0.132-0.056-0.076,0.075-0.11c0,0.142,0.1,0.129,0.337,0.11c0.285-0.125,1.2,0.062,1.724-0.037
	c0.014-0.092-0.022-0.058,0.111-0.073c0.014,0.185,0.389,0.119,0.674,0.11c-0.013-0.048-0.013-0.098,0-0.146h0.075
	c0,0.15-0.062,0.139,0.149,0.146v-0.074c-0.041-0.072-0.021-0.066,0-0.146H33.9v0.037c0.031,0.057,0.031,0.126,0,0.183h0.6
	c-0.019-0.047-0.019-0.099,0-0.146h0.075c-0.018,0.047-0.018,0.099,0,0.146c0.073-0.021,0.151-0.021,0.225,0
	c0.015-0.1-0.028-0.048,0.075-0.073c0.016,0.1,0.061,0.079,0.262,0.073c0.2-0.013,0.4-0.013,0.6,0c-0.018-0.035-0.018-0.076,0-0.11
	h0.076c0,0.142,0.1,0.129,0.336,0.11c0.254,0.071,0.527,0.031,0.75-0.11l0.824,0.073v0.11c0.75,0,1.652-0.032,2.284,0v0.657
	c-0.764,0.029-1.529,0.017-2.292-0.037v0.11c-0.601,0.015-1.202-0.01-1.8-0.073v0.037h0.038c0.072,0.028-0.075,0.037-0.075,0.037
	c-0.085-0.065-0.194-0.091-0.3-0.073c0.015,0.107,0.061,0.046-0.037,0.11v-0.11h-0.26c0.013,0.048,0.013,0.098,0,0.146
	c-0.061-0.02-0.123-0.033-0.188-0.037c0-0.137-0.068-0.128-0.3-0.11c-0.101,0.089-0.008,0.035-0.149,0
	c0.01,0.081-0.019,0.161-0.076,0.219c-0.016-0.009-0.028-0.021-0.037-0.037c-0.023-0.058-0.037-0.12-0.037-0.183
	c-0.049,0.012-0.102,0.012-0.15,0v0.11c0.02,0.02,0.033,0.045,0.037,0.073h-0.074v-0.036c-0.055-0.069,0.047-0.112-0.149-0.146
	c-0.21,0.051-0.428,0.051-0.638,0v0.073c0.063,0.055,0.039,0.026,0.039,0.073c-0.06,0.045-0.02,0.023-0.076,0
	c-0.1-0.147,0.033-0.161-0.336-0.146v0.11c-0.041,0-0.08-0.013-0.112-0.037c0.03-0.018,0.056-0.043,0.075-0.073h-0.188
	c-0.048,0.09,0.017,0.025-0.075,0.073l0.037-0.073h-0.037c-0.369,0.075-0.75,0.087-1.123,0.037c0,0.116,0.063,0.049-0.037,0.11
	v-0.11h-0.375v0.036c0.031,0.018,0.057,0.043,0.075,0.073h-0.075c-0.11-0.188-0.276-0.081-0.449-0.037
	c-0.012-0.1-0.031-0.076-0.226-0.073c-0.11,0.025-0.226,0.025-0.337,0c-0.014,0.1,0.028,0.048-0.074,0.073
	c-0.119-0.088-0.271-0.115-0.412-0.073c0,0.116,0.063,0.049-0.037,0.11c0-0.04-0.014-0.079-0.039-0.11
	c-0.047,0.024-0.103,0.024-0.149,0v0.11c0.024,0.032,0.037,0.07,0.037,0.11h-0.036v-0.037c-0.082-0.112-0.01-0.144-0.188-0.183
	c0.013,0.1,0.041,0.076,0,0.146v-0.036c-0.023-0.032-0.036-0.07-0.036-0.11c-0.203-0.042-0.413-0.016-0.601,0.073h-0.074
	c-0.007-0.027-0.02-0.052-0.037-0.073c0,0.04-0.014,0.079-0.038,0.11c-0.21-0.098-0.444-0.136-0.675-0.11v0.037H27.9
	c0.012,0.1,0.039,0.076,0,0.146v-0.037c-0.024-0.031-0.037-0.07-0.037-0.11L27.3,17.073c0.021,0.059,0.021,0.124,0,0.183h-0.034
	v-0.037c-0.058-0.073,0.041-0.129-0.187-0.146c-0.007,0.131,0.056,0.076-0.075,0.11c0-0.137-0.068-0.128-0.3-0.11
	c0.019,0.034,0.019,0.075,0,0.11c-0.219-0.065-0.446-0.09-0.674-0.073c0,0.088-0.011,0.105-0.15,0.146V17.11h-0.749
	c-0.014,0.1,0.028,0.048-0.074,0.073c-0.012-0.1-0.031-0.076-0.226-0.073c-0.358,0.449-1.079,0.036-1.647,0.219
	c-0.461,0.062-0.927,0.062-1.387,0c-0.234-0.108-0.491-0.159-0.749-0.146c-1.079,0.157-2.171,0.194-3.258,0.11
	c0.007,0.063-0.005,0.127-0.037,0.183c-0.005-0.138,0.018-0.128-0.075-0.183c-0.073,0.021-0.151,0.021-0.225,0
	c-0.221,0.128-0.383,0.338-0.45,0.584c0.086,0.169,0.113,0.362,0.075,0.548h-1.535v0.109H17.9V17.84h1.611
	c-0.02,0.097-0.02,0.195,0,0.292h0.075c0.005-0.057,0.032-0.108,0.075-0.146c0.754,0,1.163,0.025,1.8,0V17.84
	c0.271-0.049,0.549-0.061,0.824-0.037v0.512c0.131,0.039,0.247,0.115,0.337,0.219h0.226c0.28,0.084,0.563,0.22,0.86,0.292
	c0.043-0.151,0.065-0.148,0.262-0.146c0.135,0.095,0.288,0.157,0.45,0.184v-0.146c-0.043-0.219-0.029-0.444,0.037-0.656
	c0.141-0.063,0.296-0.089,0.45-0.073v0.036c-0.122,0.03-0.058-0.018-0.112,0.074c0.023,0.03,0.05,0.114,0.075,0.146v-0.074
	c0.105-0.16,0.302-0.233,0.487-0.183v0.037c-0.053-0.004-0.105,0.009-0.15,0.037c0.08,0.046,0.136,0.127,0.15,0.219
	c0.107-0.047,0.229-0.047,0.336,0v0.037h-0.375v0.109h0.111v0.584c0.086-0.03,0.174-0.055,0.262-0.072
	c-0.031-0.208-0.018-0.42,0.037-0.621c0.006,0.209,0.031,0.416,0.076,0.621c0.07-0.012,0.138,0.037,0.148,0.109
	c0.002,0.012,0.002,0.023,0.001,0.036c-0.062,0.036-0.112,0.087-0.149,0.146h0.075c0.522-0.062,1.049-0.074,1.573-0.037v0.146
	c-0.15,0.273-0.252,0.569-0.301,0.877h0.076c0.109,0.079,0.252,0.094,0.375,0.037c0.004,0.051,0.016,0.1,0.037,0.146
	c0.191,0.047,0.379,0.108,0.562,0.183c0.164,0.024,0.194-0.138,0.412,0.037c0.06,0.153,0.136,0.3,0.225,0.438
	c0.147,0.396,0.211,0.818,0.187,1.241c-0.446,0.124-0.875,0.31-1.272,0.548c0,0-0.101,0.416-0.112,0.476H27.6v0.036
	c-0.018-0.021-0.029-0.046-0.037-0.072c-0.032,0.016-0.059,0.041-0.076,0.072c-0.057-0.071-0.135-0.123-0.225-0.146
	c-0.117,0.012-0.202,0.116-0.19,0.233c0.001,0.008,0.002,0.016,0.004,0.022c-0.399,0.054-0.776,0.218-1.086,0.476
	c-0.683,0.398-1.397,0.74-2.136,1.022H8.277c-0.437,0.022-0.875,0.011-1.311-0.037L7,24.854H6.966
	c-0.293,0.045-0.592-0.033-0.824-0.219C5.913,24.46,5.7,24.264,5.505,24.051c-0.485-0.258-0.917-0.604-1.273-1.023
	c-0.296-0.112-0.584-0.246-0.861-0.399v0.84H3.258v-0.915l-0.112-0.037c-0.033-0.023-0.072-0.035-0.112-0.035v1.168H2.959v0.037
	H2.921v-0.257c-0.045-0.302-0.045-0.61,0-0.913c0,0-0.029-0.13-0.037-0.146H2.809l0.037-1.242c-0.361,0.034-0.725,0.034-1.086,0
	c-0.026-0.2-0.077-0.396-0.15-0.585c-0.286,0.031-0.575,0.031-0.861,0v-0.292c0.122-0.03,0.057,0.019,0.112-0.073
	c-0.022-0.1,0-0.059,0.075-0.146H0.674C0.7,19.678,0.675,19.32,0.6,18.973l0.075,0.037v-0.037c-0.039-0.117-0.051-0.242-0.037-0.365
	c0.217-0.071,0.447-0.096,0.674-0.072V18.5c-0.375-0.009-0.75,0.004-1.124,0.037C0.165,18.418,0.097,18.313,0,18.242h0.112
	c0-0.522,0.049-1.271,0-1.571c0.125-0.326,0.176-0.675,0.15-1.023c0.264-0.017,0.585-0.036,0.9-0.037v-0.072
	c-0.078-0.114-0.064-0.294-0.15-0.4c-0.056-0.028-0.106-0.065-0.15-0.11c0.2-0.024,0.2-0.075,0.187-0.292
	c0.077-0.361,0.103-0.732,0.075-1.101v-2.664c-0.055-0.366-0.042-0.739,0.037-1.1L1.2,12.616c-0.04,0.731-0.015,1.465,0.075,2.192
	h0.036V14.7c-0.047-0.401-0.047-0.806,0-1.206c0-0.994,0.037-2.092,0.037-3.141C1.302,9.902,1.314,9.447,1.386,9v4.274
	c-0.064,0.553-0.013,1.112,0.15,1.644c-0.016-0.126,0.011-0.255,0.075-0.365c0.571-0.079,1.149-0.091,1.723-0.037H7.9V14.48h0.04
	c-0.032-0.213,0.008-0.432,0.112-0.621L7.94,13.858L7.94,13.858z M9.176,13.675c0.021,0.02,0.047,0.033,0.075,0.037
	C9.23,13.692,9.204,13.68,9.176,13.675L9.176,13.675z M9.513,13.858c0.042,0.039,0.107,0.039,0.15,0H9.513z M9.813,13.858
	c0.021,0.02,0.047,0.033,0.075,0.037C9.868,13.875,9.841,13.862,9.813,13.858z M9.064,14.37v-0.11
	c-0.078-0.074-0.167-0.135-0.264-0.182c-0.007,0.131,0.056,0.076-0.075,0.11l-0.037-0.037v0.073H8.652
	c0.004,0.028,0.017,0.053,0.037,0.073c0.133,0.117,0.316,0.159,0.487,0.11V14.37H9.064z M8.839,14.187h0.075v0.037
	C8.886,14.22,8.859,14.207,8.839,14.187z M27.828,16.16H27.9v0.073h-0.072V16.16z M34.045,16.2h0.075
	C34.075,16.255,34.1,16.241,34.045,16.2z M34.568,17.04v0.07h0.037c-0.003-0.028-0.016-0.053-0.037-0.073V17.04z M35.206,17.04v0.07
	h0.037c-0.004-0.028-0.017-0.053-0.037-0.073V17.04z M31.873,17.113l0.111,0.037v0.037h-0.111V17.11V17.113z M33.673,17.113
	l0.112,0.037v0.073h-0.077v-0.04c-0.021-0.02-0.034-0.045-0.038-0.073L33.673,17.113z M35.773,17.113l0.111,0.037v0.037h-0.042
	c-0.021,0.02-0.046,0.033-0.075,0.037V17.11L35.773,17.113z M25.661,17.15l0.112,0.037v0.073h-0.08v-0.041
	c-0.021-0.02-0.033-0.045-0.038-0.073L25.661,17.15z M17.421,17.369c0.02,0.02,0.033,0.045,0.037,0.073h-0.042v-0.077L17.421,17.369
	z M24.837,18.282c-0.001,0.04,0.013,0.078,0.037,0.11c0-0.042-0.015-0.082-0.042-0.113L24.837,18.282z M14.275,18.538v0.142
	l0.787-0.037v-0.109H14.27L14.275,18.538z M0.53,18.648H0.6c-0.045,0.052-0.016,0.041-0.076-0.004L0.53,18.648z M24.837,18.831
	c-0.015,0.099-0.001,0.2,0.037,0.292c0.013-0.101-0.001-0.203-0.042-0.296L24.837,18.831z M25.355,18.9l-0.037,0.109h0.076
	C25.395,18.971,25.381,18.932,25.355,18.9z M25.506,19.046c-0.016,0.108-0.092,0.047,0,0.11c0.049,0.117,0.033,0.1,0.188,0.109
	v-0.074C25.623,19.153,25.561,19.104,25.506,19.046z M0.9,20.178v0.073h0.111v-0.073H0.9z M1.087,20.178v0.073
	c0.089,0.012,0.18-0.001,0.262-0.037C1.263,20.193,1.175,20.182,1.087,20.178L1.087,20.178z M5.244,23.429
	c0.052,0.062,0.115,0.11,0.187,0.146V23.5H5.393C5.352,23.461,5.299,23.437,5.244,23.429L5.244,23.429z M13.559,24.379
	c0.132,0.025,0.266-0.032,0.337-0.146c0.028-0.043,0.042-0.094,0.038-0.146h0.15v0.292c0.115-0.006,0.229-0.031,0.337-0.072
	l0.037-0.22h0.15v0.292h0.225c0.016-0.042,0.042-0.08,0.075-0.109c-0.161-0.225-0.288-0.471-0.375-0.731
	c-0.114,0.067-0.341,0.038-0.449,0.11c-0.132,0.229-0.311,0.428-0.524,0.584L13.559,24.379L13.559,24.379z M5.619,23.612
	c-0.015,0.083-0.034,0.04,0,0.11c0.068,0.055,0.13,0.115,0.187,0.183h0.037v-0.037c0.053-0.028,0.083-0.087,0.075-0.146
	C5.813,23.701,5.711,23.664,5.619,23.612L5.619,23.612z M19.627,24.379c0-0.099,0.013-0.196,0.037-0.292h0.15
	c0.001,0.099,0.014,0.196,0.038,0.292h0.3c-0.035-0.254-0.111-0.501-0.225-0.73H19.85c-0.076,0.285-0.285,0.517-0.562,0.621
	c0.004,0.027,0.017,0.053,0.037,0.072C19.42,24.38,19.524,24.393,19.627,24.379L19.627,24.379z M22.249,24.342v-0.255H22.4v0.22
	l0.336,0.036V24.27c0.087-0.244-0.026-0.514-0.262-0.621c-0.109,0.254-0.291,0.471-0.523,0.621v0.037h0.037
	c0.081,0.034,0.171,0.047,0.259,0.036L22.249,24.342z M25.095,23.721c-0.033,0.03-0.071,0.055-0.112,0.073v0.073h0.037v-0.036
	c0.099-0.06,0.09-0.031,0.074-0.108L25.095,23.721z M16.706,24.379H17v-0.072c0.034-0.068,0.047-0.145,0.038-0.22h0.15
	c0.001,0.099,0.014,0.196,0.038,0.292h0.3v-0.072c-0.075-0.188-0.163-0.372-0.262-0.549h-0.035v0.037
	c-0.143,0.189-0.321,0.352-0.524,0.475L16.706,24.379L16.706,24.379z M5.994,23.979v0.071c0.054,0.017,0.104,0.041,0.15,0.073
	c-0.029-0.066-0.083-0.119-0.151-0.146L5.994,23.979z M10.975,24.379c0.106-0.053,0.231-0.053,0.337,0v-0.292
	c0.041,0.001,0.08-0.013,0.112-0.037c-0.03-0.019-0.056-0.043-0.075-0.073h-0.038c-0.074,0.135-0.193,0.238-0.337,0.293
	L10.975,24.379L10.975,24.379z M8.69,24.379c-0.026-0.121,0.016-0.248,0.11-0.329H8.764v-0.036
	c-0.163,0.074-0.304,0.188-0.412,0.329C8.466,24.328,8.581,24.34,8.69,24.379L8.69,24.379z M11.499,24.379
	c0.122-0.029,0.057,0.018,0.112-0.072c-0.058-0.028-0.1-0.083-0.111-0.146h-0.039v0.072C11.489,24.276,11.503,24.327,11.499,24.379
	L11.499,24.379z M8.877,24.232v0.146h0.037v-0.072c0.009-0.035,0.029-0.015,0-0.037v-0.037H8.877L8.877,24.232z M10.712,24.343
	c0.021,0.021,0.047,0.033,0.075,0.037C10.767,24.359,10.74,24.348,10.712,24.343z M14.57,24.891c0.042,0.039,0.108,0.039,0.15,0
	H14.57z M15.132,24.891c0.064,0.032,0.048,0.032,0.112,0H15.132L15.132,24.891z M15.656,24.891c0.042,0.039,0.107,0.039,0.15,0
	H15.656z M16.218,24.891c0.064,0.032,0.048,0.032,0.112,0H16.218L16.218,24.891z M16.742,24.891c0.064,0.032,0.048,0.032,0.112,0
	H16.742z M17.266,24.891c0.042,0.039,0.107,0.039,0.15,0H17.266z M17.828,24.891c0.064,0.032,0.048,0.032,0.112,0H17.828z
	 M18.352,24.891c0.064,0.032,0.048,0.032,0.112,0H18.352z M18.914,24.891c0.064,0.032,0.048,0.032,0.112,0H18.914z M19.438,24.891
	c0.064,0.032,0.048,0.032,0.112,0H19.438z M19.962,24.891c0.065,0.032,0.048,0.032,0.112,0H19.962L19.962,24.891z M20.523,24.891
	c0.064,0.032,0.049,0.032,0.112,0H20.523z M21.048,24.891c0.063,0.032,0.048,0.032,0.112,0H21.048L21.048,24.891z M21.609,24.891
	c0.021,0.021,0.047,0.033,0.076,0.037c-0.021-0.02-0.047-0.033-0.074-0.037H21.609z M22.134,24.891c0.064,0.032,0.048,0.032,0.112,0
	H22.134L22.134,24.891z M22.695,24.891c0.021,0.021,0.047,0.033,0.076,0.037c-0.02-0.02-0.045-0.032-0.071-0.037H22.695z
	 M23.221,24.891c0.063,0.032,0.047,0.032,0.111,0H23.221L23.221,24.891z"/>
</svg>
