<svg xmlns="http://www.w3.org/2000/svg" width="40" height="40" viewBox="0 0 40 40">
  <defs>
    <style>
      .cls-1 {
        fill: #fff;
        fill-rule: evenodd;
      }
    </style>
  </defs>
  <path id="it_p_26_40_ico" class="cls-1" d="M29.068,17.025A36.729,36.729,0,0,0,33.308,17v0.125a6.262,6.262,0,0,1,.971.075L40,17.225V17.95a4.088,4.088,0,0,1-1.022.025h-2.2a4.066,4.066,0,0,1-1,.025h-2.12a1.6,1.6,0,0,1-.358.075V18.2a37.37,37.37,0,0,0-4.24-.025V19.15L29.2,19.225V19.45h0.051v0.425a0.743,0.743,0,0,1,.2.125,0.3,0.3,0,0,0,.026.125H29.63l0.639,0.65H30.8a0.093,0.093,0,0,0,.051.025,0.528,0.528,0,0,1,.026.175h0.128a0.856,0.856,0,0,1,.92-0.275v0.175a3.549,3.549,0,0,0-.128.775H31.648l-0.409-.15a1.014,1.014,0,0,0-.332-0.3v0.025a0.339,0.339,0,0,1,.051.225l0.281,0.25a0.6,0.6,0,0,1,.026.225,5.537,5.537,0,0,0,1.584-.05h0.434A10.857,10.857,0,0,1,35.3,21.8a6.37,6.37,0,0,1,.817-0.05,6.054,6.054,0,0,1,.741.475,2.586,2.586,0,0,1,.92.525c-0.052.047-.076,0.129-0.128,0.175a1.792,1.792,0,0,0-.332.2c0.094,0.017.07,0,.1,0.075a0.492,0.492,0,0,1,.026.2h0.026a0.267,0.267,0,0,1,.153-0.1c0.025,0.076.05,0.075,0.077,0.15,0,0-.074.033-0.051,0.05h0.026a0.418,0.418,0,0,0,.153.05,0.167,0.167,0,0,1,.051.125l-0.179.1a0.085,0.085,0,0,0,.026.05c0.031,0.109.062,0.105,0.2,0.1a0.093,0.093,0,0,0,.051.025,0.449,0.449,0,0,1,.026.15,0.194,0.194,0,0,0-.1.15h0.025v0.025a0.862,0.862,0,0,1,.23-0.05v0.05c0.044,0.075,0,.08-0.026.15a0.179,0.179,0,0,1,.153.2H38.238c-0.03.019-.123,0.03-0.153,0.05a0.213,0.213,0,0,0-.026.125,0.355,0.355,0,0,1,.2.225,0.426,0.426,0,0,0-.179.2,0.4,0.4,0,0,1,.2.025,0.265,0.265,0,0,1,.026.15H38.238a1.286,1.286,0,0,1,.077.275l-0.255-.025V25.7a0.29,0.29,0,0,0-.051.125,0.166,0.166,0,0,1,.153.2,1.025,1.025,0,0,0-.23.1,0.29,0.29,0,0,0-.051.075h0.051a0.27,0.27,0,0,0,.153.05,0.944,0.944,0,0,1-.051.175h-0.1a0.389,0.389,0,0,1,.026.175c-0.031.077-.01,0.056-0.1,0.075a0.271,0.271,0,0,0-.179-0.075,0.374,0.374,0,0,0-.051.1,0.19,0.19,0,0,1,.077.25,0.785,0.785,0,0,1-.281-0.025,0.225,0.225,0,0,1-.077.075,0.073,0.073,0,0,0,.026.025,0.688,0.688,0,0,1,.128.175H37.471a0.264,0.264,0,0,1-.153.075c-0.068.11-.014,0.177-0.153,0.225V27.475l-0.128-.15-0.077.025V27.4a0.211,0.211,0,0,1,.026.225,0.476,0.476,0,0,1-.153.025,0.151,0.151,0,0,0-.153-0.075,0.556,0.556,0,0,0-.128.05,0.718,0.718,0,0,1,.077.225H36.577a0.831,0.831,0,0,1-.153.025,0.245,0.245,0,0,1-.179.15,0.183,0.183,0,0,0-.153-0.2c0.049,0.137,0,.226-0.179.225a0.171,0.171,0,0,0-.153-0.1,0.3,0.3,0,0,0-.1.1,0.454,0.454,0,0,1,.077.175H35.683a0.531,0.531,0,0,1-.153,0c-0.044.044-.087,0.1-0.128,0.15H35.351a0.577,0.577,0,0,0-.1-0.225,2.269,2.269,0,0,1-.485.2,0.811,0.811,0,0,1,.051.225H34.764c-0.061.03-.108-0.026-0.128,0a0.276,0.276,0,0,0-.077.125,0.153,0.153,0,0,1-.1,0c-0.072-.084-0.028-0.154-0.179-0.175a1.775,1.775,0,0,1-.409.175,0.713,0.713,0,0,1,.051.225,1.855,1.855,0,0,0-.2,0,0.194,0.194,0,0,1-.179.125l-0.077-.2a2.3,2.3,0,0,1-.485.175A0.642,0.642,0,0,1,33,29.25a0.133,0.133,0,0,1-.179,0,1.6,1.6,0,0,1-.179.175,0.374,0.374,0,0,0-.1-0.225,0.609,0.609,0,0,0-.46.3,0.213,0.213,0,0,1,.026.125,0.37,0.37,0,0,1-.2-0.025,0.13,0.13,0,0,1-.077.125,0.175,0.175,0,0,1-.1.025l-0.026-.2a1.856,1.856,0,0,0-.536.2,0.324,0.324,0,0,1,.026.175,0.172,0.172,0,0,1-.2-0.05,0.275,0.275,0,0,1-.255.125V29.775a2.133,2.133,0,0,0-.562-0.025v0.225H30.013c-0.021-.081.013-0.038-0.051-0.075a0.2,0.2,0,0,1-.2.1V29.775A2.133,2.133,0,0,0,29.2,29.75a0.706,0.706,0,0,0-.026.225,0.275,0.275,0,0,1-.179-0.075,0.219,0.219,0,0,1-.23.1V29.775A2.133,2.133,0,0,0,28.2,29.75v0.225H28.046c-0.021-.081.012-0.038-0.051-0.075a0.2,0.2,0,0,1-.2.1V29.775a2.133,2.133,0,0,0-.562-0.025,0.387,0.387,0,0,0-.026.125,0.166,0.166,0,0,1,.026.1,0.312,0.312,0,0,1-.2-0.075,0.219,0.219,0,0,1-.23.1V29.775a2.133,2.133,0,0,0-.562-0.025v0.225H26.079c-0.021-.081.012-0.038-0.051-0.075a0.2,0.2,0,0,1-.2.1V29.775a2.134,2.134,0,0,0-.562-0.025,0.706,0.706,0,0,0-.026.225,0.275,0.275,0,0,1-.179-0.075,0.219,0.219,0,0,1-.23.1V29.775a2.133,2.133,0,0,0-.562-0.025v0.225H24.112a0.119,0.119,0,0,0-.026-0.075,0.234,0.234,0,0,1-.23.1V29.775A2.134,2.134,0,0,0,23.3,29.75a0.072,0.072,0,0,1-.026.025,0.97,0.97,0,0,1,.026.2,0.284,0.284,0,0,1-.2-0.075,0.226,0.226,0,0,1-.2.1,0.072,0.072,0,0,0-.025-0.025,0.38,0.38,0,0,0-.026-0.2A1.422,1.422,0,0,0,22.3,29.75v0.225H22.146A0.119,0.119,0,0,0,22.12,29.9a0.234,0.234,0,0,1-.23.1V29.775a2.134,2.134,0,0,0-.562-0.025,0.072,0.072,0,0,1-.025.025,0.97,0.97,0,0,1,.025.2,0.284,0.284,0,0,1-.2-0.075,0.226,0.226,0,0,1-.2.1,0.806,0.806,0,0,1-.026-0.25H20.332v0.225H20.179a0.12,0.12,0,0,0-.025-0.075,0.235,0.235,0,0,1-.23.1V29.775a2.133,2.133,0,0,0-.562-0.025,0.072,0.072,0,0,1-.026.025,0.97,0.97,0,0,1,.026.2,0.284,0.284,0,0,1-.2-0.075,0.226,0.226,0,0,1-.2.1,0.072,0.072,0,0,0-.026-0.025,0.381,0.381,0,0,0-.025-0.2,1.422,1.422,0,0,0-.536-0.025v0.225H18.212a0.12,0.12,0,0,0-.026-0.075,0.235,0.235,0,0,1-.23.1V29.775a2.133,2.133,0,0,0-.562-0.025,0.35,0.35,0,0,0-.026.1,0.213,0.213,0,0,1,.026.125,0.284,0.284,0,0,1-.2-0.075,0.226,0.226,0,0,1-.2.1,0.8,0.8,0,0,1-.026-0.25H16.4v0.225H16.245A0.12,0.12,0,0,0,16.22,29.9a0.235,0.235,0,0,1-.23.1V29.775a2.133,2.133,0,0,0-.562-0.025,0.35,0.35,0,0,0-.025.1,0.213,0.213,0,0,1,.025.125,0.284,0.284,0,0,1-.2-0.075,0.226,0.226,0,0,1-.2.1,0.073,0.073,0,0,0-.026-0.025,0.381,0.381,0,0,0-.026-0.2,1.422,1.422,0,0,0-.536-0.025v0.225H14.278a0.12,0.12,0,0,0-.025-0.075,0.235,0.235,0,0,1-.23.1V29.775a2.133,2.133,0,0,0-.562-0.025,0.35,0.35,0,0,0-.026.1,0.213,0.213,0,0,1,.026.125,0.284,0.284,0,0,1-.2-0.075,0.226,0.226,0,0,1-.2.1,0.805,0.805,0,0,1-.026-0.25H12.465v0.225H12.312a0.12,0.12,0,0,0-.026-0.075,0.235,0.235,0,0,1-.23.1V29.775a2.133,2.133,0,0,0-.562-0.025,0.346,0.346,0,0,0-.026.1,0.213,0.213,0,0,1,.026.125,0.284,0.284,0,0,1-.2-0.075,0.226,0.226,0,0,1-.2.1V29.975H11.06a0.381,0.381,0,0,0-.026-0.2A1.422,1.422,0,0,0,10.5,29.75v0.225H10.345a0.12,0.12,0,0,0-.025-0.075,0.235,0.235,0,0,1-.23.1V29.775a2.133,2.133,0,0,0-.562-0.025,0.347,0.347,0,0,0-.026.1,0.213,0.213,0,0,1,.026.125,0.284,0.284,0,0,1-.2-0.075,0.226,0.226,0,0,1-.2.1,0.806,0.806,0,0,1-.026-0.25H8.531v0.225H8.378A0.119,0.119,0,0,0,8.352,29.9a0.235,0.235,0,0,1-.23.1V29.75a2.143,2.143,0,0,0-.536-0.025,0.479,0.479,0,0,0-.051.2L7.407,29.9a0.159,0.159,0,0,0-.026-0.1,0.17,0.17,0,0,1-.2.05A0.643,0.643,0,0,0,7.2,29.6l-0.46-.1a0.343,0.343,0,0,1-.051.175,0.132,0.132,0,0,1-.077.025,0.093,0.093,0,0,0-.051-0.025V29.6a0.477,0.477,0,0,1-.23.025v-0.05A0.264,0.264,0,0,0,6.386,29.4H6.36V29.375A1.458,1.458,0,0,0,5.926,29.3a0.248,0.248,0,0,1-.153.175,0.093,0.093,0,0,0-.051-0.025V29.375a0.477,0.477,0,0,1-.23.025V29.35a0.26,0.26,0,0,0,.077-0.175H5.517a1.383,1.383,0,0,0-.434-0.125,0.209,0.209,0,0,1-.153.2,0.093,0.093,0,0,0-.051-0.025c0-.094.031-0.061-0.077-0.075-0.058.063-.062,0.041-0.153,0.025v-0.05a0.26,0.26,0,0,0,.077-0.175,1.827,1.827,0,0,0-.46-0.1,0.413,0.413,0,0,1-.179.175A0.093,0.093,0,0,0,4.036,29V28.925a0.477,0.477,0,0,1-.23.025V28.9a0.26,0.26,0,0,0,.077-0.175,1.827,1.827,0,0,0-.46-0.1,0.317,0.317,0,0,1-.179.175,0.093,0.093,0,0,0-.051-0.025c0-.093.031-0.061-0.077-0.075-0.058.063-.062,0.041-0.153,0.025v-0.05A0.26,0.26,0,0,0,3.04,28.5c-0.184-.02-0.312-0.1-0.485-0.125a0.755,0.755,0,0,1-.077.175,0.088,0.088,0,0,1-.051-0.025c-0.16-.06-0.012-0.114-0.23-0.125a0.136,0.136,0,0,1-.153-0.05H2.069a0.576,0.576,0,0,0,.1-0.2,1.5,1.5,0,0,0-.46-0.325,0.518,0.518,0,0,1-.1.125H1.558a0.86,0.86,0,0,1-.051-0.15,0.09,0.09,0,0,0,.026-0.05c-0.121-.014-0.186.007-0.23-0.125a0.4,0.4,0,0,0,.179-0.175,1.758,1.758,0,0,1-.255-0.5l-0.2.075v-0.05a0.191,0.191,0,0,1,.026-0.2,0.274,0.274,0,0,0-.128-0.05l-0.026-.15,0.23-.025v-0.6A0.269,0.269,0,0,1,.945,25.9,0.09,0.09,0,0,1,.92,25.85a0.485,0.485,0,0,0,.051-0.1H1.047A0.929,0.929,0,0,1,1,25.45c0.117,0.016.139,0.056,0.255,0.075,0.048-.2.175-0.342,0.23-0.525A0.2,0.2,0,0,1,1.3,24.875c0.062-.036.145-0.083,0.2-0.125a0.183,0.183,0,0,1,0-.175,9.856,9.856,0,0,1-.817-0.9A0.993,0.993,0,0,1,.051,23.55,3.668,3.668,0,0,0,.2,22.475L0,22.45V22.4a0.841,0.841,0,0,1,.128-0.35,0.282,0.282,0,0,0,.153.025,0.386,0.386,0,0,1,.1-0.225c0.1-.2.07-0.648,0.153-0.875a4,4,0,0,0,.639.1v0.05a2.505,2.505,0,0,0-.1.45H1.2a0.132,0.132,0,0,1,.077-0.025l0.077-.425h0.1a1.447,1.447,0,0,0,.536.1l-0.1.6H1.941a0.262,0.262,0,0,1,.23-0.2A0.13,0.13,0,0,0,2.3,21.7a0.86,0.86,0,0,0,.051-0.15,0.687,0.687,0,0,1-.077-0.3,1.359,1.359,0,0,0,.383-0.075c0-.094-0.012-0.088.051-0.125a0.345,0.345,0,0,1,.179-0.025V21.1a0.613,0.613,0,0,0,.281-0.05l0.026-.075a1.355,1.355,0,0,0,.409-0.05l0.026-.1c0.03-.019.028,0.012,0.026,0.025a0.546,0.546,0,0,0,.307-0.025,0.565,0.565,0,0,0,.077-0.1A2.415,2.415,0,0,0,4.393,20.7a1.244,1.244,0,0,0,.077-0.1,1.794,1.794,0,0,0,.485,0,0.347,0.347,0,0,1,.077-0.1,0.262,0.262,0,0,0,.255.075,0.431,0.431,0,0,1,.077-0.125,0.093,0.093,0,0,0,.051.025c0.039,0.085.069,0.08,0.255,0.075A4.108,4.108,0,0,1,6.82,20.5V20.4a0.41,0.41,0,0,1,.128-0.025A0.619,0.619,0,0,0,7,20.5a1.353,1.353,0,0,1,.434-0.025V20.4a0.274,0.274,0,0,1,.128-0.05l0.051,0.1,0.46-.075a0.347,0.347,0,0,1-.026-0.1H8.123v-0.1H8.174A0.132,0.132,0,0,1,8.25,20.15v0.025H8.276V20.25a0.8,0.8,0,0,0,.179-0.025A2.5,2.5,0,0,0,8.633,19.9a2.424,2.424,0,0,0,.613-0.05c0.015,0,.068-0.073.077-0.075a0.967,0.967,0,0,0,.358.025,0.467,0.467,0,0,0,.051-0.075,1.172,1.172,0,0,0,.358.025c0.014,0,.069-0.073.077-0.075l0.153,0.05a1.244,1.244,0,0,0,.255-0.05v-0.05c0.075-.028.079,0.045,0.1,0.05,0.05,0.01.193-.024,0.281-0.025a0.45,0.45,0,0,1,.077-0.1,0.369,0.369,0,0,0,.332.05l0.077-.1,0.077,0.025v0.05a0.781,0.781,0,0,0,.383-0.1,0.263,0.263,0,0,0,.1.05c0.051-.033.165,0.011,0.23-0.025s0-.111.1-0.075a0.261,0.261,0,0,0,.1.05,2.029,2.029,0,0,0,.2-0.025c0.024-.016.052-0.1,0.077-0.125a0.093,0.093,0,0,0,.051.025c0.034,0.074-.025.06,0.1,0.075a0.894,0.894,0,0,1,.281-0.05v0.1h0.179a0.13,0.13,0,0,0,.077.125,1.824,1.824,0,0,0,.69-0.025,0.507,0.507,0,0,0,.051-0.125,4.932,4.932,0,0,0,.639-0.125v0.05a3.7,3.7,0,0,0,.46-0.025,0.306,0.306,0,0,0,.281.125l0.485-.025V19.375a0.154,0.154,0,0,0,.051-0.05,0.088,0.088,0,0,1,.051.025c0.063,0.03.039,0.044,0.1,0.075V19.35a3.418,3.418,0,0,0,1.073-.075H14.355a9.3,9.3,0,0,1,.485-1.3,0.126,0.126,0,0,1-.128-0.1h0.026c0.037-.063.065-0.037,0.1-0.1a0.1,0.1,0,0,1-.051-0.075,6.132,6.132,0,0,0,1.788-.7c0.043,0.072.037,0.07,0.153,0.075a0.278,0.278,0,0,1,0-.125,0.148,0.148,0,0,1,.153-0.05c0-.038.056-0.168,0.051-0.175-0.048-.07-0.06.02-0.077-0.125,0.044-.022.119-0.04,0.128-0.05a0.781,0.781,0,0,0,.077-0.15c-0.052-.038-0.057-0.114-0.1-0.15a0.589,0.589,0,0,1-.306-0.15,2.4,2.4,0,0,0,.2-0.5l0.307-.05a0.494,0.494,0,0,1,.179-0.4c0,0.1-.042.06,0.026,0.1a0.612,0.612,0,0,0,.281-0.05h0.971l3.4-.025a1.692,1.692,0,0,1,.025-0.35h0.1a1.072,1.072,0,0,1,.051.35c0.083-.021.039,0.012,0.077-0.05a0.815,0.815,0,0,1,.026-0.5c0.091-.01.064,0.012,0.1-0.05a0.409,0.409,0,0,0,0-.35,0.225,0.225,0,0,1-.128-0.025,1.069,1.069,0,0,0-.562-0.275,2.852,2.852,0,0,1-.69.175v0.075a0.842,0.842,0,0,1,.306.375H21.277a0.939,0.939,0,0,1-.485-0.725H20.766a0.412,0.412,0,0,1-.2.025,1.163,1.163,0,0,1-.1.2c-0.008-.129-0.022-0.141-0.153-0.15v0.05a0.228,0.228,0,0,0,.051.175,0.816,0.816,0,0,0-.255.025,1.514,1.514,0,0,0-.026.35H19.821L19.8,14.425a0.981,0.981,0,0,0,.077-0.475,1.577,1.577,0,0,0-.306-0.075,3.544,3.544,0,0,1,.051-0.475,1.3,1.3,0,0,1,.179-0.05V13.275h0.153c0-.073-0.025-0.035,0-0.075a1.183,1.183,0,0,1,.46-0.025,0.243,0.243,0,0,0-.051-0.125h0.051a0.34,0.34,0,0,0,.281-0.025,0.119,0.119,0,0,1,.026-0.075v0.075h0.128a1.988,1.988,0,0,1,.358-0.9c0.038-.028.078-0.052,0.1-0.025,0.166,0.078.3,0.194,0.46,0.275l-0.23.475a0.828,0.828,0,0,1-.026.275h0.179a1.742,1.742,0,0,0,.639.025l0.026,0.125a3.266,3.266,0,0,0,.843.025,1.9,1.9,0,0,0,.69.025,0.387,0.387,0,0,0,.026-0.125h0.255v0.1H24.24a0.586,0.586,0,0,1,.025-0.275V13.35h1.226V13.5H24.266v0.075L24.521,13.6v0.125a1.019,1.019,0,0,1-.332.05,0.353,0.353,0,0,1-.281.025,0.4,0.4,0,0,0-.358-0.05l-0.026.075c-0.076.036-.055-0.064-0.077-0.075h-0.23l-0.894.025a0.194,0.194,0,0,1-.1.125h0.026a1.416,1.416,0,0,0,.536.15,0.429,0.429,0,0,0,.1.25l-0.1-.025V14.35l-0.153.025v0.1a0.266,0.266,0,0,0-.026.15h0.613v0.05c0.051,0.082.023,0.246,0.077,0.325a0.811,0.811,0,0,0,.153.075c-0.009.109-.011,0.233,0.153,0.25a0.282,0.282,0,0,0,.153.025v0.075h0.051l0.868,0.15a0.109,0.109,0,0,1,.1-0.1V15.5a0.1,0.1,0,0,1,.051.1,1.143,1.143,0,0,1,.255-0.05,0.1,0.1,0,0,1,.051.1l0.434,0.05c0.037-.019.043-0.139,0.1-0.075a0.536,0.536,0,0,0,.1.1,1.231,1.231,0,0,0,.332.05,6.528,6.528,0,0,0,1.175.175c0.038-.06-0.032-0.059.051-0.1V15.9a0.491,0.491,0,0,1,.128.35,1.373,1.373,0,0,1,.919.55,1.172,1.172,0,0,0,.1.225h0.485c0-2.647.025-5.343,0.026-8.025h0.051v7.45A1.484,1.484,0,0,1,29.068,17.025ZM28.812,19.35a0.291,0.291,0,0,1,.153-0.2V18.175H28.557c-0.067.262-.321,0.415-0.358,0.625a0.514,0.514,0,0,1,.077.2,0.18,0.18,0,0,1,.179.05l-0.051.125H28.353l0.026,0.1H27.254v0.05h0.332A7.156,7.156,0,0,0,28.812,19.35Z" transform="translate(0 0.5)"/>
</svg>
