<?xml version="1.0" encoding="utf-8"?>
<!-- Generator: Adobe Illustrator 16.0.0, SVG Export Plug-In . SVG Version: 6.00 Build 0)  -->
<!DOCTYPE svg PUBLIC "-//W3C//DTD SVG 1.1//EN" "http://www.w3.org/Graphics/SVG/1.1/DTD/svg11.dtd">
<svg version="1.1" id="Layer_1" xmlns="http://www.w3.org/2000/svg" xmlns:xlink="http://www.w3.org/1999/xlink" x="0px" y="0px"
	 width="39.969px" height="40px" viewBox="0 0 39.969 40" enable-background="new 0 0 39.969 40" xml:space="preserve">
<path id="it_semovente_m41_75_32_ico" fill="#FFFFFF" d="M18.548,12.787l-0.032,0.383l2.777-0.256
	c0.016-0.194,0.081-0.38,0.191-0.541h0.101v-0.287h0.255v0.287c0.036-0.001,0.072,0.01,0.1,0.032
	c0.078,0.092,0.134,0.201,0.16,0.318h0.032v-0.032c0.171-0.125,0.368-0.212,0.575-0.255c0.018,0.017,0.04,0.028,0.064,0.032
	c0,0.173-0.013,0.259,0.1,0.287c0.059-0.08,0.135-0.146,0.223-0.191V12.6c0.018,0.017,0.029,0.04,0.032,0.063
	c-0.063,0-0.009-0.033-0.063,0c0.029,0.062,0.012,0.037,0,0.127h0.127c0.086-0.104,0.207-0.172,0.34-0.191
	c0.033,0.073,0.112,0.115,0.191,0.1c0.471-0.163,0.973-0.218,1.469-0.159c0.004-0.255-0.006-0.51-0.032-0.764h0.192V11.8h-0.033
	c-0.062,0.025,0.063,0.032,0.063,0.032c0.132-0.052,0.276-0.063,0.415-0.032v0.35h-0.031v0.032h-0.095l-0.032,0.35l0.415,0.032
	c0.088-0.154,0.222-0.277,0.384-0.35v0.35c0.272,0,0.531,0.021,0.766,0.032v0.1c0.309,0.061,0.1,0.399,0.255,0.604
	c-0.026,0.074-0.047,0.148-0.063,0.224c0.035,0.033,0.059,0.078,0.063,0.127c-0.063,0.026-0.104,0.09-0.101,0.159
	c0.137,0.1,0.174,0.523,0.319,0.637h4.47c0.059,0.029,0.125,0.04,0.19,0.032v0.159c2.571,0,5.171-0.032,7.534-0.101
	c0.085,0.344,0.106,0.7,0.064,1.052c-0.047,0.034-0.103,0.057-0.16,0.063c-0.178-0.044-0.361-0.055-0.543-0.032l-0.99-0.063
	l-0.447,0.032c-0.539-0.076-1.086-0.086-1.628-0.032h-3.826v0.1c-1.483,0.037-3.094,0.031-4.629,0.032
	c-0.071,0.263-0.124,0.53-0.16,0.8h0.101c0.016,0.026,0.037,0.048,0.063,0.063c-0.003,0.025-0.015,0.048-0.032,0.064
	c-0.041,0.07-0.074,0.146-0.1,0.223c0.024,0.004,0.047,0.016,0.064,0.032c0.061-0.038,0.125-0.071,0.19-0.1
	c0.009,0.125-0.019,0.146,0.063,0.19c0.24,0.104,0.474,0.222,0.701,0.351c0.037-0.048,0.099-0.072,0.159-0.063
	c0.018,0.068,0.064,0.127,0.128,0.158c0.029,0.021,0.064,0.033,0.101,0.032c0.014-0.046,0.036-0.089,0.063-0.127h0.032v0.026
	c0.038,0.078,0.108,0.136,0.192,0.16c0.211-0.04,0.427-0.04,0.638,0c0.268-0.003,0.535-0.024,0.8-0.064h0.67
	c0.41-0.086,0.893,0.029,1.342-0.064c0.824-0.151,1.67-0.141,2.489,0.032c0.558,0.229,1.083,0.528,1.563,0.892
	c-0.104,0.215-0.232,0.418-0.383,0.604c0.006,0.19,0.116,0.362,0.287,0.446c0.07-0.031,0.148-0.042,0.225-0.032
	c0.02,0.051,0.029,0.104,0.031,0.159l-0.16,0.127v0.031c0.117,0.025,0.221,0.094,0.287,0.191c0.051,0.082,0.014,0.299,0.064,0.381
	c0.087,0.07,0.124,0.025,0.16,0.16c-0.088,0.045-0.164,0.111-0.223,0.191c0.193,0.139-0.014,0.363-0.032,0.604l0.159,0.033
	c0.053,0.053,0.087,0.119,0.101,0.191c-0.099,0.025-0.194,0.059-0.287,0.1c0.053,0.033,0.078,0.098,0.064,0.158
	c-0.144,0.105-0.255,0.248-0.319,0.414c0.131,0.025,0.218,0.152,0.193,0.283c-0.001,0.002-0.001,0.002-0.002,0.004
	c-0.095,0.01-0.191,0.01-0.286,0l-0.032,0.16c-0.148,0.078-0.288,0.176-0.415,0.285c0.056,0.088,0.091,0.186,0.101,0.287
	c-0.063,0.021-0.127,0.033-0.191,0.033c-0.033-0.045-0.077-0.08-0.128-0.1c-0.124,0.176-0.327,0.283-0.543,0.287
	c0.014,0.096,0.003,0.195-0.032,0.287c-0.038,0.023-0.083,0.033-0.128,0.031l-0.101-0.127c-0.14,0.064-0.292,0.1-0.446,0.1
	c-0.159,0.104-0.308,0.221-0.447,0.35L34.159,23.9c-0.12,0.021-0.237,0.055-0.351,0.1c-0.105,0.086-0.201,0.184-0.287,0.287
	c-0.218,0.016-0.433,0.059-0.64,0.127c-0.046,0.08-0.1,0.154-0.159,0.223L32.595,24.6c-0.167,0.025-0.329,0.08-0.479,0.16
	c-0.046,0.078-0.101,0.152-0.16,0.223l-0.128-0.033c-0.154,0.023-0.305,0.066-0.447,0.127c-0.105,0.053-0.117,0.219-0.224,0.256
	c-0.14,0-0.278,0.012-0.415,0.031c-0.09,0.035-0.175,0.076-0.256,0.127l-0.031,0.16c-0.137,0.029-0.275,0.039-0.415,0.031
	c-0.171,0.055-0.358,0.25-0.511,0.287c-0.186-0.068-0.379-0.109-0.575-0.127c-0.104,0.072-0.226,0.115-0.351,0.127
	c-0.151-0.1-0.332-0.145-0.512-0.127c-0.105,0.07-0.226,0.113-0.351,0.127c-0.167-0.09-0.354-0.135-0.543-0.127
	c-0.054,0.008-0.107,0.02-0.16,0.033l-0.032,0.1c-0.164-0.023-0.324-0.066-0.479-0.127c-0.15-0.023-0.304,0.023-0.416,0.127
	c-0.155-0.012-0.308-0.055-0.446-0.127c-0.187,0.016-0.369,0.059-0.543,0.127c-0.03-0.008-0.192-0.117-0.224-0.127
	c-0.189-0.033-0.386,0.014-0.543,0.127c-0.154-0.016-0.307-0.059-0.446-0.127c-0.149-0.012-0.298,0.033-0.415,0.127
	c-0.156-0.012-0.309-0.055-0.447-0.127l-0.383,0.031l-0.032,0.1c-0.156-0.01-0.309-0.053-0.446-0.127
	c-0.161-0.027-0.325,0.02-0.447,0.127c-0.127-0.01-0.248-0.053-0.352-0.127c-0.189-0.018-0.381,0.027-0.543,0.127
	c-0.208-0.064-0.422-0.105-0.639-0.127c-0.101,0.078-0.224,0.123-0.351,0.127c-0.153-0.094-0.332-0.137-0.511-0.127
	c-0.044,0.01-0.159,0.107-0.224,0.127c-0.155-0.016-0.306-0.059-0.447-0.127c-0.147,0.004-0.291,0.047-0.415,0.127
	c-0.127-0.006-0.249-0.051-0.351-0.127c-0.161-0.01-0.321,0.002-0.479,0.033l-0.032,0.1c-0.021,0.01-0.477-0.1-0.639-0.1
	c-0.122,0.051-0.251,0.084-0.383,0.1c-0.207-0.105-0.442-0.141-0.67-0.1c-0.059,0.021-0.051,0.135-0.192,0.1
	c-0.217-0.107-0.462-0.141-0.7-0.1l-0.032,0.1c-0.138,0-0.272-0.045-0.383-0.127c-0.15-0.006-0.299,0.006-0.447,0.031l-0.064,0.1
	c-0.104,0-0.205-0.035-0.287-0.1c-0.237,0.002-0.472,0.037-0.7,0.1c-0.217-0.105-0.462-0.141-0.7-0.1
	c-0.051,0.021-0.044,0.154-0.192,0.1V25.9c-0.053-0.014-0.106-0.025-0.16-0.033c-0.237,0.004-0.472,0.037-0.7,0.102
	c-0.087-0.059-0.185-0.102-0.287-0.127c-0.121,0.004-0.533,0.139-0.575,0.127c-0.218-0.105-0.462-0.141-0.7-0.102
	c-0.052,0.021-0.058,0.145-0.192,0.102V25.9c-0.053-0.014-0.106-0.025-0.16-0.033c-0.237,0.004-0.472,0.037-0.7,0.102
	c-0.187-0.07-0.379-0.123-0.575-0.16c-0.114-0.01-0.118,0.107-0.223,0.1C7.66,25.9,7.318,25.662,7.127,25.621
	c-0.104,0.029-0.211,0.051-0.319,0.064c-0.05-0.02-0.169-0.164-0.223-0.191c-0.151-0.064-0.316-0.086-0.479-0.063
	c-0.036,0.01-0.012,0.074-0.1,0.063c-0.096-0.049-0.184-0.115-0.259-0.193l-0.478-0.102c-0.049,0.053-0.122,0.078-0.192,0.064
	C5.021,25.24,4.919,25.1,4.854,25.072c-0.151-0.063-0.316-0.086-0.479-0.063c-0.036,0.01-0.012,0.076-0.1,0.063
	c-0.093-0.051-0.179-0.115-0.255-0.189c-0.113-0.047-0.231-0.08-0.351-0.102c-0.102,0.041-0.21,0.063-0.319,0.064
	c-0.101-0.082-0.208-0.156-0.319-0.223c-0.161-0.02-0.323-0.01-0.479,0.031c-0.083-0.051-0.159-0.115-0.223-0.189
	c-0.224-0.084-0.469-0.096-0.7-0.033v-0.1c-0.18-0.078-0.351-0.174-0.511-0.287c-0.084-0.016-0.17-0.025-0.255-0.031
	c-0.108-0.293-0.326-0.533-0.607-0.67c0.02-0.275-0.035-0.553-0.16-0.799l-0.1-0.033c0.031-0.238,0.085-0.473,0.16-0.699
	c-0.029-0.088-0.038-0.18-0.027-0.27c0.19-0.252,0.341-0.531,0.447-0.828c0.287-0.082,0.543-0.248,0.734-0.479
	c0.146-0.076,0.518,0.012,0.734-0.1l0.1-0.127c0.168-0.068,0.333,0.123,0.447-0.064c0.017-0.117,0.006-0.236-0.032-0.35
	c-0.003-0.023-0.015-0.047-0.032-0.064c-0.105,0.07-0.226,0.113-0.351,0.127c-0.027-0.176-0.082-0.348-0.16-0.508
	c0.085,0.001,0.17-0.008,0.253-0.027c0.051-0.199,0.119-0.215,0.16-0.414H2.395v-0.031L1.469,19.25
	c-0.052-0.194-0.193-0.293-0.255-0.478c0.368-0.145,0.695-0.375,0.955-0.672c-0.041-0.063-0.096-0.118-0.16-0.159
	c-0.296,0.228-0.617,0.42-0.958,0.573c-0.106-0.107-0.15-0.274-0.255-0.382V18.1h0.035c0.334-0.171,0.636-0.396,0.894-0.669
	c-0.037-0.021-0.062-0.059-0.064-0.1c0.128-0.039,0.192-0.117,0.319-0.16c0.049,0.084,0.059,0.111,0.128,0.101
	c0.081-0.011,0.151-0.058,0.192-0.127c-0.059-0.069-0.123-0.133-0.192-0.191h-0.16c-0.047-0.061-0.09-0.124-0.128-0.19V16.7
	c0.108-0.043,0.206-0.108,0.287-0.19c0.057,0.052,0.122,0.094,0.192,0.127c-0.041,0.172-0.018,0.353,0.064,0.509h0.032
	c0.167-0.17,0.376-0.291,0.607-0.351c0.091,0.113,0.176,0.229,0.255,0.351c-0.003,0.024-0.014,0.047-0.032,0.063
	c-0.15,0.063-0.274,0.175-0.351,0.318c0.042,0.064,0.096,0.118,0.16,0.159c0.111-0.116,0.257-0.194,0.415-0.224
	c0.017,0.07,0.063,0.129,0.128,0.159v-0.982c0.085-0.007,0.17-0.007,0.255,0v-0.032h0.032c-0.054-0.281,0.016-0.573,0.192-0.8
	c0.24-0.016,0.477-0.069,0.7-0.159c-0.085,0.016-0.167-0.039-0.187-0.123c0.063-0.029,0.117-0.072,0.16-0.127
	c0.288-0.025,0.577-0.016,0.862,0.032c0.037,0.051,0.07,0.104,0.1,0.159c-0.051,0.021-0.152,0.069-0.1,0.1
	c0.337,0.07,0.685,0.07,1.022,0v-0.1c0.023-0.018,0.042-0.039,0.056-0.064h0.036v0.032c0.045,0.024,0.07,0.075,0.064,0.127H6.96
	v-0.255c0.073-0.022,0.148-0.032,0.224-0.029v-0.289c-0.228,0.061-0.465,0.082-0.7,0.064h0.061c0.161-0.12,0.442-0.101,0.607-0.224
	c0.071-0.506,0.082-1.019,0.032-1.528c0.047-0.034,0.102-0.057,0.16-0.063c0.111,0.513,0.133,1.04,0.064,1.56h0.031
	c0.062-0.026,0.126-0.048,0.192-0.063c-0.023-0.072-0.034-0.147-0.032-0.224c0.466,0.052,0.937,0.041,1.4-0.031V14.57H8.652
	c-0.166-0.045-0.34-0.057-0.511-0.032v-0.223l4.437,0.063c0.112-0.041,0.231-0.063,0.351-0.063c0.077,0.074,0.114,0.181,0.1,0.287
	c-0.049,0.013-0.087,0.051-0.1,0.1h0.255v-0.069c0.034-0.07,0.034-0.152,0-0.223h0.1c0.044,0.047,0.3,0.215,0.192,0.287
	c0.117,0.069,0.18-0.053,0.223,0.1c0.008,0.031,0.025,0.013,0,0.032c-0.052,0.073-0.134,0.12-0.223,0.128h0.032
	c0.059,0.065,0.132,0.125,0.192,0.19c0.223,0.012,0.447,0.012,0.67,0c-0.115-0.299,0.026-0.636,0.319-0.765v-0.035
	c-0.049-0.004-0.095-0.027-0.128-0.064v-0.064c0.118-0.045,0.194-0.16,0.191-0.286c-0.069-0.017-0.128-0.063-0.16-0.127
	c0.047-0.035,0.102-0.058,0.16-0.064v-0.157l1.884-0.16c0.026-0.029,0.047-0.063,0.064-0.1h0.191
	c0.055-0.092,0.119-0.177,0.192-0.255c0.073,0.019,0.147,0.03,0.223,0.032v-0.028c0.175-0.052,0.338-0.139,0.479-0.255
	c0.045-0.198,0.066-0.401,0.064-0.605c0.309-0.074,0.224-0.431,0.224-0.8V-0.841c-0.037-0.02-0.062-0.058-0.064-0.1
	c0.039-0.025,0.08-0.045,0.124-0.059c0.028,0.039,0.049,0.082,0.064,0.127c-0.091,0.299-0.113,0.614-0.064,0.923v12.068
	c0.096,0.014,0.179,0.073,0.223,0.159c0.051,0.166,0.084,0.336,0.1,0.509h0.1L18.548,12.787z"/>
</svg>
