<svg xmlns="http://www.w3.org/2000/svg" width="39.969" height="40" viewBox="0 0 39.969 40">
  <defs>
    <style>
      .cls-1 {
        fill: #fff;
        fill-rule: evenodd;
      }
    </style>
  </defs>
  <path id="it_semovente_m41_75_32_ico" class="cls-1" d="M18.579,19.787l-0.032.382,2.777-.255a1.1,1.1,0,0,1,.192-0.541h0.1V19.086h0.255v0.287a0.154,0.154,0,0,1,.1.032,0.748,0.748,0,0,1,.16.318h0.032V19.691a1.486,1.486,0,0,1,.575-0.255,0.116,0.116,0,0,0,.064.032c0,0.173-.012.259,0.1,0.287a0.64,0.64,0,0,1,.223-0.191V19.6a0.114,0.114,0,0,1,.032.064c-0.064,0-.009-0.033-0.064,0,0.03,0.061.012,0.037,0,.127h0.128A0.536,0.536,0,0,1,23.56,19.6a0.175,0.175,0,0,0,.192.1,3.293,3.293,0,0,1,1.468-.159,6.324,6.324,0,0,0-.032-0.764h0.192V18.8H25.347c-0.061.025,0.064,0.032,0.064,0.032a0.716,0.716,0,0,1,.415-0.032v0.35H25.794v0.032H25.7l-0.032.35,0.415,0.032a0.839,0.839,0,0,1,.383-0.35v0.35c0.273,0,.532.021,0.766,0.032v0.1c0.309,0.061.1,0.4,0.255,0.605a2.006,2.006,0,0,0-.064.223,0.2,0.2,0,0,1,.064.127,0.162,0.162,0,0,0-.1.159c0.136,0.1.174,0.523,0.319,0.637h4.469a0.347,0.347,0,0,0,.191.032v0.159c2.571,0,5.171-.032,7.534-0.1a2.906,2.906,0,0,1,.064,1.051,0.339,0.339,0,0,1-.16.064,1.484,1.484,0,0,0-.543-0.032l-0.99-.064-0.447.032a6.883,6.883,0,0,0-1.628-.032H32.37v0.1c-1.483.037-3.094,0.031-4.629,0.032a6.161,6.161,0,0,0-.16.8h0.1a0.194,0.194,0,0,0,.064.064,0.108,0.108,0,0,1-.032.064,1.147,1.147,0,0,0-.1.223,0.11,0.11,0,0,1,.064.032,1.532,1.532,0,0,1,.191-0.1c0.009,0.125-.018.145,0.064,0.191a7.4,7.4,0,0,1,.7.35,0.174,0.174,0,0,1,.16-0.064,0.243,0.243,0,0,0,.128.159,0.163,0.163,0,0,0,.1.032,0.426,0.426,0,0,1,.064-0.127h0.032V24.34a0.308,0.308,0,0,0,.192.159,1.748,1.748,0,0,1,.638,0,5.6,5.6,0,0,0,.8-0.064h0.67c0.41-.086.892,0.03,1.341-0.064a6.422,6.422,0,0,1,2.49.032,7.074,7.074,0,0,1,1.564.891,3.116,3.116,0,0,1-.383.605,0.511,0.511,0,0,0,.287.446,0.423,0.423,0,0,1,.224-0.032,0.5,0.5,0,0,1,.032.159l-0.16.127v0.032a0.464,0.464,0,0,1,.287.191c0.05,0.082.013,0.3,0.064,0.382,0.087,0.069.124,0.024,0.16,0.159a0.654,0.654,0,0,0-.223.191c0.194,0.14-.013.363-0.032,0.605l0.16,0.032a0.372,0.372,0,0,1,.1.191,1.889,1.889,0,0,0-.287.1,0.15,0.15,0,0,1,.064.159,0.927,0.927,0,0,0-.319.414,0.242,0.242,0,0,1,.192.287,1.371,1.371,0,0,1-.287,0l-0.032.159a2.233,2.233,0,0,0-.415.287,0.643,0.643,0,0,1,.1.287,0.588,0.588,0,0,1-.191.032,0.3,0.3,0,0,0-.128-0.1,0.674,0.674,0,0,1-.543.287,0.58,0.58,0,0,1-.032.287,0.216,0.216,0,0,1-.128.032l-0.1-.127a1.059,1.059,0,0,1-.447.1,3.435,3.435,0,0,0-.447.35L34.19,30.9a1.855,1.855,0,0,0-.351.1,2.209,2.209,0,0,0-.287.287,2.693,2.693,0,0,0-.639.127,1.4,1.4,0,0,1-.16.223L32.626,31.6a1.481,1.481,0,0,0-.479.159,1.491,1.491,0,0,1-.16.223l-0.128-.032a1.867,1.867,0,0,0-.447.127c-0.106.051-.118,0.217-0.224,0.255a2.883,2.883,0,0,0-.415.032,1.394,1.394,0,0,0-.255.127l-0.032.159a1.552,1.552,0,0,1-.415.032c-0.171.054-.358,0.25-0.511,0.287a2.2,2.2,0,0,0-.575-0.127,0.737,0.737,0,0,1-.351.127,0.792,0.792,0,0,0-.511-0.127,0.81,0.81,0,0,1-.351.127,1.044,1.044,0,0,0-.543-0.127,1.525,1.525,0,0,0-.16.032l-0.032.1a2.165,2.165,0,0,1-.479-0.127,0.5,0.5,0,0,0-.415.127,1.141,1.141,0,0,1-.447-0.127,1.946,1.946,0,0,0-.543.127c-0.03-.008-0.193-0.116-0.223-0.127a0.721,0.721,0,0,0-.543.127,1.335,1.335,0,0,1-.447-0.127,0.593,0.593,0,0,0-.415.127,1.144,1.144,0,0,1-.447-0.127l-0.383.032-0.032.1a1.123,1.123,0,0,1-.447-0.127,0.542,0.542,0,0,0-.447.127,0.7,0.7,0,0,1-.351-0.127,0.873,0.873,0,0,0-.543.127,3.149,3.149,0,0,0-.639-0.127,0.6,0.6,0,0,1-.351.127,0.875,0.875,0,0,0-.511-0.127c-0.044.009-.159,0.106-0.224,0.127a1.4,1.4,0,0,1-.447-0.127,0.8,0.8,0,0,0-.415.127,0.634,0.634,0,0,1-.351-0.127,1.927,1.927,0,0,0-.479.032l-0.032.1c-0.021.011-.477-0.1-0.639-0.1a1.361,1.361,0,0,1-.383.1,1.058,1.058,0,0,0-.67-0.1c-0.059.023-.051,0.135-0.192,0.1a1.147,1.147,0,0,0-.7-0.1l-0.032.1a0.648,0.648,0,0,1-.383-0.127,2.124,2.124,0,0,0-.447.032l-0.064.1a0.466,0.466,0,0,1-.287-0.1,2.667,2.667,0,0,0-.7.1,1.147,1.147,0,0,0-.7-0.1c-0.051.022-.044,0.153-0.192,0.1V32.9a1.36,1.36,0,0,0-.16-0.032,2.766,2.766,0,0,0-.7.1,0.915,0.915,0,0,0-.287-0.127c-0.121.005-.533,0.139-0.575,0.127a1.179,1.179,0,0,0-.7-0.1c-0.052.02-.058,0.144-0.192,0.1V32.9a1.366,1.366,0,0,0-.16-0.032,2.767,2.767,0,0,0-.7.1,3.41,3.41,0,0,0-.575-0.159c-0.114-.011-0.118.107-0.223,0.1-0.074-.008-0.416-0.246-0.607-0.287a2.353,2.353,0,0,1-.319.064c-0.05-.02-0.169-0.165-0.223-0.191a0.9,0.9,0,0,0-.479-0.064c-0.036.01-.012,0.074-0.1,0.064A1,1,0,0,1,5.778,32.3L5.3,32.2a0.213,0.213,0,0,1-.192.064c-0.056-.023-0.158-0.164-0.223-0.191a0.909,0.909,0,0,0-.479-0.064c-0.036.01-.012,0.077-0.1,0.064a1.183,1.183,0,0,1-.255-0.191,1.674,1.674,0,0,0-.351-0.1,0.943,0.943,0,0,1-.319.064,2.6,2.6,0,0,0-.319-0.223,1.269,1.269,0,0,0-.479.032,0.936,0.936,0,0,1-.223-0.191,1.14,1.14,0,0,0-.7-0.032v-0.1a2.838,2.838,0,0,1-.511-0.287,2.446,2.446,0,0,0-.255-0.032,1.211,1.211,0,0,0-.607-0.669,1.53,1.53,0,0,0-.16-0.8l-0.1-.032a3.827,3.827,0,0,1,.16-0.7A0.625,0.625,0,0,1,.16,28.543a3.1,3.1,0,0,0,.447-0.828,1.48,1.48,0,0,0,.734-0.478c0.146-.076.518,0.011,0.734-0.1l0.1-.127c0.168-.069.333,0.123,0.447-0.064a0.755,0.755,0,0,0-.032-0.35,0.109,0.109,0,0,0-.032-0.064,0.792,0.792,0,0,1-.351.127,1.805,1.805,0,0,0-.16-0.509A1.084,1.084,0,0,0,2.3,26.123c0.051-.2.119-0.215,0.16-0.414H2.426V25.677L1.5,26.25c-0.052-.195-0.193-0.294-0.255-0.478A2.477,2.477,0,0,0,2.2,25.1a0.53,0.53,0,0,0-.16-0.159,4.781,4.781,0,0,1-.958.573c-0.106-.107-0.15-0.274-0.255-0.382V25.1H0.862a3.281,3.281,0,0,0,.894-0.669,0.123,0.123,0,0,1-.064-0.1c0.128-.039.192-0.117,0.319-0.159,0.049,0.084.059,0.111,0.128,0.1a0.261,0.261,0,0,0,.192-0.127,1.7,1.7,0,0,0-.192-0.191H1.979a1.61,1.61,0,0,1-.128-0.191V23.7a0.852,0.852,0,0,0,.287-0.191,0.758,0.758,0,0,0,.192.127,0.729,0.729,0,0,0,.064.509H2.426a1.309,1.309,0,0,1,.607-0.35,4.186,4.186,0,0,1,.255.35,0.109,0.109,0,0,1-.032.064,0.7,0.7,0,0,0-.351.318,0.532,0.532,0,0,0,.16.159,0.771,0.771,0,0,1,.415-0.223,0.239,0.239,0,0,0,.128.159V23.639a1.7,1.7,0,0,1,.255,0V23.607H3.895a1,1,0,0,1,.192-0.8,2.261,2.261,0,0,0,.7-0.159A0.163,0.163,0,0,1,4.6,22.525a0.445,0.445,0,0,0,.16-0.127,3.424,3.424,0,0,1,.862.032,1.49,1.49,0,0,1,.1.159c-0.051.021-.152,0.07-0.1,0.1a2.515,2.515,0,0,0,1.022,0v-0.1A0.194,0.194,0,0,0,6.7,22.525H6.736v0.032a0.127,0.127,0,0,1,.064.127H6.991V22.429A0.689,0.689,0,0,1,7.215,22.4V22.111a2.124,2.124,0,0,1-.7.064H6.576c0.161-.12.442-0.1,0.607-0.223a6.53,6.53,0,0,0,.032-1.528,0.339,0.339,0,0,1,.16-0.064,4.556,4.556,0,0,1,.064,1.56H7.47a1.2,1.2,0,0,1,.192-0.064,0.683,0.683,0,0,1-.032-0.223,5.288,5.288,0,0,0,1.4-.032V21.57H8.683a1.256,1.256,0,0,0-.511-0.032V21.315l4.437,0.064a1.029,1.029,0,0,1,.351-0.064,0.338,0.338,0,0,1,.1.287,0.139,0.139,0,0,0-.1.1h0.255V21.633a0.256,0.256,0,0,0,0-.223h0.1c0.044,0.046.3,0.214,0.192,0.287,0.117,0.069.18-.053,0.223,0.1,0.008,0.031.025,0.012,0,.032a0.306,0.306,0,0,1-.223.127h0.032c0.059,0.066.132,0.125,0.192,0.191a6.487,6.487,0,0,0,.67,0,0.6,0.6,0,0,1,.319-0.764V21.347a0.189,0.189,0,0,1-.128-0.064V21.219a0.3,0.3,0,0,0,.191-0.287,0.24,0.24,0,0,1-.16-0.127,0.339,0.339,0,0,1,.16-0.064V20.583l1.884-.159a0.463,0.463,0,0,0,.064-0.1h0.191a1.494,1.494,0,0,1,.192-0.255,0.985,0.985,0,0,0,.223.032V20.073a1.358,1.358,0,0,0,.479-0.255,2.556,2.556,0,0,0,.064-0.605c0.309-.074.224-0.431,0.224-0.8V6.159a0.123,0.123,0,0,1-.064-0.1A0.483,0.483,0,0,1,18.164,6a0.481,0.481,0,0,1,.064.127,2.07,2.07,0,0,0-.064.923V19.118a0.3,0.3,0,0,1,.223.159,2.494,2.494,0,0,1,.1.509h0.1Z" transform="translate(-0.031 0.516)"/>
</svg>
