<svg xmlns="http://www.w3.org/2000/svg" width="39.938" height="40" viewBox="0 0 39.938 40">
  <defs>
    <style>
      .cls-1 {
        fill: #fff;
        fill-rule: evenodd;
      }
    </style>
  </defs>
  <path id="Color_Fill_1" data-name="Color Fill 1" class="cls-1" d="M23.777,13v0.248l0.242,0.2a2.366,2.366,0,0,1,1.6-.1l0.92,0.1,0.291,0.348c0.957,0.414,1.951-.26,2.518.2l0.678,0.794,6.78,0.2,2.276-.05v0.6a38.434,38.434,0,0,0-6.586.05l-2.276.149-0.1.546c0.133,0.3,1.68.433,1.889,0.447a0.791,0.791,0,0,1,.484-0.5v0.5h0.484c0.119,0.512.667,0.341,1.065,0.695A6.463,6.463,0,0,0,35.5,18.66l1.065,0.1c1.794,0.424,2.392.235,3.341,1.539-0.364,1.027.582,1.85-.436,3.177-0.617.8-2.082,1.208-3,1.688L33.027,27H11.719l-4.5-.05L2.76,25.262C0.993,24.557-.78,23.841.436,21.34l-0.242-.348A4.3,4.3,0,0,0,2.082,19.4H2.131a1.407,1.407,0,0,0,.194.3,4.207,4.207,0,0,0,1.889-.2,6.378,6.378,0,0,1,.1-1.291c0.848-.625,1.728.06,2.712-0.348a2.449,2.449,0,0,0,.339-0.348l3.68-.546c0.549-.111.943,0.441,1.792-0.05l0.048-.3c0.39-.039.613-0.055,0.581,0.248l2.76-.1c0.16-.105.068-0.33,0.484-0.248h0.1a0.539,0.539,0,0,1,.1.248l0.968,0.2v0.05l1.308-.05V16.723H17.918V16.575a11.6,11.6,0,0,1,1.4-2.383,2.757,2.757,0,0,1,1.211-.2,0.566,0.566,0,0,1-.048-0.348A3.49,3.49,0,0,0,21.84,13.3a4.324,4.324,0,0,1,1.453.2,0.571,0.571,0,0,0,.194-0.5h0.291Zm-2.034.447,0.145,0.05ZM10.7,17.22l-1.4.3,1.646-.248V17.22H10.7Zm-2.082.3-0.048.1,0.291-.05v-0.05H8.62Zm30.266,4.766,0.048,0.149a0.357,0.357,0,0,0,.291-0.1Zm-0.242.447,0.145,0.3,0.194-.2Zm-0.678.447a1.046,1.046,0,0,1-.63.248v0.05h0.775V23.326Zm-1.6.447-1.4.348a2.674,2.674,0,0,1-.339,1.341l2.518-1.341v-0.05Zm-32.881.844-0.339.149v0.05l2.373,0.844L5.085,24.468h-1.6Zm15.109,0a2.257,2.257,0,0,1-1.065,1.738v0.05l4.988-.05h-0.1A5.442,5.442,0,0,1,21.4,24.468H18.6Zm-8.136.149a2.95,2.95,0,0,1-1.017,1.638l4.891-.05h-0.1a4.876,4.876,0,0,1-1.017-1.589H10.46Zm16.32,0a2.244,2.244,0,0,1-1.065,1.589v0.05h4.891l-0.1-.149a2.367,2.367,0,0,1-.969-1.489H26.78Zm-13.317.05,0.048,0.3,0.145,0.05v-0.2Zm4.7,0.2-0.048.3H18.16l0.1-.05,0.048-.248H18.16Zm3.826,0.4c0,0.152-.047.07,0.048,0.2a0.357,0.357,0,0,0,.145.149V25.461Zm-12.155.149a0.5,0.5,0,0,0-.194.3l0.242-.1Zm24.358,0-0.145.2a0.5,0.5,0,0,0,.242-0.2h-0.1Zm-3.729.4a0.309,0.309,0,0,0,.291.248c-0.064-.19,0-0.1-0.145-0.2Zm-4.891.1-0.145.2v0.05h0.194l0.1-.248H25.569Zm-10.847.3h0Z" transform="translate(-0.031)"/>
</svg>
