<?xml version="1.0" encoding="utf-8"?>
<!-- Generator: Adobe Illustrator 16.0.0, SVG Export Plug-In . SVG Version: 6.00 Build 0)  -->
<!DOCTYPE svg PUBLIC "-//W3C//DTD SVG 1.1//EN" "http://www.w3.org/Graphics/SVG/1.1/DTD/svg11.dtd">
<svg version="1.1" id="Layer_1" xmlns="http://www.w3.org/2000/svg" xmlns:xlink="http://www.w3.org/1999/xlink" x="0px" y="0px"
	 width="40px" height="40px" viewBox="0 0 40 40" enable-background="new 0 0 40 40" xml:space="preserve">
<path id="Color_Fill_1" fill="#FFFFFF" d="M10.441,14.07h0.353c0.025,0.041,0.059,0.075,0.1,0.1
	c-0.064,0.304-0.081,0.616-0.05,0.925v0.049c0.15-0.012,0.263-0.142,0.252-0.292c0.142-0.038,0.267-0.124,0.353-0.243
	c0.164-0.036,0.332-0.052,0.5-0.049c0.027-0.027,0.044-0.062,0.05-0.1c-0.143-0.132-0.246-0.3-0.3-0.487h0.05
	c0.027,0.026,0.063,0.043,0.1,0.049c0.042,0.141,0.11,0.272,0.2,0.389h0.05v-0.049c0.046-0.163,0.154-0.302,0.3-0.389
	c0.457,0.017,0.912,0.065,1.362,0.146c0.193,0.1,0.379,0.214,0.555,0.341c0.098,0.027,0.202,0.027,0.3,0
	c0.089-0.215,0.124-0.45,0.1-0.682l0.2-0.1c0.058-0.11,0.108-0.224,0.151-0.341c0.161-0.098,0.297-0.231,0.4-0.389
	c-0.147-0.157-0.187-0.387-0.1-0.584l0.673-0.048v0.05h0.05c0.044,0.244,0.027,0.494-0.05,0.729
	c-0.039,0.033-0.113,0.064-0.151,0.101c0.612-0.054,1.229,0.013,1.816,0.195h1.211c0.52,0.086,1.051,0.07,1.564-0.049
	c0.256,0.025,0.51,0.074,0.756,0.146c0.254-0.003,0.506-0.02,0.758-0.049v0.195c-1.436-0.087-2.65,0.1-4.288,0.1v0.243l-0.151,0.049
	c-0.177,0.11-0.57,0.032-0.757,0.146c-0.048,0.107-0.065,0.225-0.05,0.341h-0.657v-0.297l-0.605,0.049v0.1
	c0.149,0.063,0.147,0.03,0.1,0.146c-0.136,0.056-0.217,0.195-0.2,0.341h-0.05v0.049h0.05c0.026,0.017,0.757,0.195,0.757,0.195
	c0.053-0.077,0.121-0.144,0.2-0.195c0.191-0.025,0.385,0.009,0.555,0.1l0.807-0.049v0.1c-0.043,0.076-0.043,0.168,0,0.243
	c0.062,0.043,0.129,0.077,0.2,0.1c0.402,0.042,0.807,0.058,1.211,0.049c0.282,0.081,0.568,0.146,0.857,0.195
	c0.042-0.06,0.076-0.126,0.1-0.195c0.231-0.062,0.475-0.062,0.706,0v0.572h0.199c0.101,0.219,0.369,0.157,0.808,0.146
	c0.417,0.066,0.84,0.083,1.261,0.049c0.185,0.021,0.371,0.021,0.555,0v-0.095c0.129-0.049,1.641,0.085,1.866,0.1h1.06
	c0.785,0.106,1.579,0.14,2.371,0.1h0.957v0.1l0.301-0.049l0.05,0.1c0.169-0.039,0.336-0.088,0.5-0.146l2.067,0.049h0.959
	c0.055,0.042,0.105,0.092,0.15,0.146c0.486-0.051,0.975-0.068,1.463-0.049h0.959c0.391,0.152,0.731-0.134,1.361,0
	c0.387-0.015,0.775,0.001,1.16,0.049c0.373,0.122,0.768,0.172,1.16,0.146v0.73l-4.389-0.049c-0.74-0.124-1.5-0.074-2.219,0.146
	c-0.622-0.33-1.934-0.008-2.773-0.146c-1.523-0.171-3.058-0.236-4.59-0.195c-1.957,0-5.214-0.354-6.306,0.389
	c0.708-0.016,1.416,0.019,2.119,0.1c0.242-0.091,0.498-0.141,0.757-0.146c0.113,0.03,0.289,0.175,0.4,0.194
	c0.19-0.086,0.396-0.136,0.604-0.146c0.232,0.069,0.47,0.3,0.706,0.39c0.403,0.055,0.813,0.037,1.211-0.049
	c0.105,0.032,0.194,0.102,0.252,0.195c0.162,0.053,0.338,0.053,0.5,0l0.1,0.1h0.455c0.68,0.019,1.334,0.258,1.865,0.682
	c0.177,0.146,0.285,0.357,0.301,0.584c-0.097,0.071-0.197,0.137-0.301,0.195c0.158,0.383,0.12,0.818-0.1,1.168
	c-0.322,0.335-0.697,0.614-1.11,0.828c-0.744,0.675-1.575,1.246-2.472,1.7c-0.631,0.126-1.276,0.16-1.917,0.101H10.542
	c-1.226,0.096-2.459,0.08-3.682-0.05h-0.5c-0.71-0.245-1.375-0.606-1.967-1.071c-0.462-0.195-0.889-0.465-1.266-0.797
	c-0.08,0.047-0.151,0.178-0.2,0.101c-0.358-0.251-0.427-0.921-0.859-1.07c-0.101,0.111-0.258,0.15-0.4,0.101
	c-0.161-0.153-0.313-0.316-0.454-0.487c-0.1-0.195,0.13-0.149-0.1-0.292c-0.076,0.129-0.205,0.219-0.354,0.244
	c0.033-0.078,0.033-0.166,0-0.244c-0.167,0.107-0.377,0.125-0.561,0.049c-0.13-0.13-0.202-0.307-0.2-0.49
	c0.266-0.195,0.433-0.498,0.454-0.828c0.142-0.021,0.278-0.07,0.4-0.146v-0.048H0.706C0.681,18.227,0.61,18.059,0.5,17.916h0.1
	c0.078,0.034,0.007,0.006,0.151,0v0.049c0,0-0.146,0.064-0.1,0.1h0.05c0.021,0.072,0.079,0.127,0.151,0.146V18.16
	c0.128-0.071,0.057,0.011,0.1-0.146c-0.087-0.05-0.278-0.1-0.1-0.146c0.05-0.089-0.074-0.031-0.1-0.05
	c-0.059-0.038,0.05-0.049,0.05-0.049c0.325-0.173,0.7-0.225,1.059-0.146l0.353-0.292c-0.011,0.163-0.109,0.117,0.05,0.195
	c0.338-0.345,1.425-0.042,2.018-0.146c0.318,0.031,0.639,0.031,0.958,0c0.707-0.188,1.44-0.254,2.169-0.195h0.863
	c0.19,0.088,0.396,0.137,0.605,0.146c0.029-0.052,0.063-0.101,0.1-0.146v0.146c0.186,0.025,0.376,0.009,0.555-0.049h-0.2
	c-0.017-0.224-0.085-0.44-0.2-0.633c-0.212-0.062-0.436-0.079-0.656-0.049c-0.135-0.491-0.829-1.225-0.605-1.7
	c0.074-0.124,0.107-0.1,0.3-0.1c0.542-0.022,1.085,0.027,1.614,0.146l-0.05-0.292h0.353l0.051-4.139h0.1v2.824
	c0.082,0.27,0.082,0.558,0,0.828c0.068,0.006,0.136,0.022,0.2,0.049V14.07H10.441z M11.45,12.901
	c0.186-0.003,0.372,0.013,0.555,0.049c0.159,0.177,0.264,0.397,0.3,0.633c-0.041,0.025-0.075,0.059-0.1,0.1
	c0.186,0.049,0.178,0.032,0.2,0.243h-0.05c-0.276-0.243-0.3-0.028-0.454,0.1c-0.075,0.062-0.047-0.082-0.05-0.1l-0.4,0.049
	c-0.025-0.326-0.12-0.216-0.151-0.292c-0.07-0.171,0.124-0.176,0.151-0.243L11.45,12.901L11.45,12.901z M15.687,12.95
	c0.057,0.05,0.143,0.05,0.2,0H15.687z M16.797,13.826c0.014,0.127,0,0.1,0.252,0.1c0.051-0.034,0.2-0.063,0.252-0.1H16.8H16.797z
	 M14.83,14.264c-0.001,0.053,0.017,0.104,0.05,0.146v-0.145L14.83,14.264L14.83,14.264z M15.082,14.556
	c0,0.109-0.011,0.034,0.1,0.049v-0.048L15.082,14.556L15.082,14.556z M10.593,15.092c0-0.053-0.018-0.104-0.051-0.146
	c-0.004,0.038-0.022,0.073-0.05,0.1v-0.148c0.072-0.019,0.129-0.075,0.151-0.146h-0.1c-0.069,0.071-0.156,0.122-0.252,0.146
	c0.027,0.027,0.045,0.062,0.051,0.1C10.421,15.04,10.506,15.072,10.593,15.092L10.593,15.092z M17.15,15.192v0.1h0.05v-0.1H17.15z
	 M6.05,17.286c0.296,0.091,0.612,0.091,0.908,0H6.053H6.05z M0.75,17.578c0.121,0.1,0.011,0.046,0.05,0.146
	c-0.085,0.027-0.034-0.102-0.043-0.148L0.75,17.578z M0.605,19.037v0.1c0.149,0.052,0.286,0.135,0.4,0.243v-0.051
	c0.021-0.012,0.038-0.028,0.05-0.049c-0.089-0.081-0.19-0.146-0.3-0.195C0.711,19.055,0.659,19.037,0.605,19.037z M1.715,20.303
	c0.046,0.096,0.146,0.154,0.252,0.146V20.4L1.715,20.303z M26.33,20.643c-0.126,0.122-0.283,0.206-0.454,0.243v0.101h0.101
	c0.129-0.127,0.284-0.227,0.453-0.293C26.402,20.667,26.367,20.649,26.33,20.643z M27.288,20.643
	c-0.054,0.071-0.089,0.155-0.101,0.243h0.051c0.088-0.081,0.189-0.147,0.3-0.194v-0.049H27.288L27.288,20.643z M26.788,20.886
	c-0.29,0.201-0.561,0.43-0.808,0.683h0.101c0.313-0.178,0.616-0.372,0.908-0.584L26.788,20.886z M5.145,21.616
	c-0.039,0.032-0.113,0.063-0.151,0.1h0.1c0.028,0.026,0.063,0.044,0.1,0.05C5.195,21.711,5.178,21.658,5.145,21.616z M22.4,21.958
	c-0.109,0.256-0.243,0.501-0.4,0.729h0.85v-0.047C22.668,22.436,22.517,22.205,22.4,21.958z M12.11,22.059
	c-0.088,0.235-0.225,0.451-0.4,0.633h0.8v-0.101c-0.157-0.16-0.293-0.341-0.404-0.536L12.11,22.059z M8.68,22.204
	c-0.109,0.157-0.209,0.319-0.3,0.487h0.699v-0.051C8.9,22.521,8.84,22.329,8.676,22.201L8.68,22.204z M15.54,22.204
	c-0.071,0.179-0.172,0.343-0.3,0.487h0.656v-0.051c-0.112-0.153-0.232-0.3-0.36-0.439L15.54,22.204z M18.97,22.204
	c-0.111,0.155-0.211,0.317-0.3,0.487h0.656v-0.101c-0.136-0.114-0.257-0.245-0.36-0.39L18.97,22.204z"/>
</svg>
