<svg xmlns="http://www.w3.org/2000/svg" width="40" height="40" viewBox="0 0 40 40">
  <defs>
    <style>
      .cls-1 {
        fill: #fff;
        fill-rule: evenodd;
      }
    </style>
  </defs>
  <path id="Color_Fill_1" data-name="Color Fill 1" class="cls-1" d="M3.619,18.256H3.765c0.04,0.159-.024.075,0.1,0.147A3.882,3.882,0,0,0,4.01,18.01a1.236,1.236,0,0,1-.1-0.688,1.717,1.717,0,0,1,.538.049c-0.024.143-.06,0.09,0.049,0.2V17.518a0.19,0.19,0,0,1,.147-0.049v0.049a0.178,0.178,0,0,0-.049.1H4.4a4.882,4.882,0,0,1-.1.639H4.4V18.108c0.424-.021.97,0.056,1.565,0.049a20.7,20.7,0,0,1,2.3,0,3.447,3.447,0,0,0,.2-0.442h0.1l0.049,0.393,0.244-.049V17.764h0.2A1.238,1.238,0,0,0,9.1,17.371S8.9,17.361,9,17.322H9.1c0.072-.124.022-0.076,0.2-0.1,0.063,0.121-.021.033,0.1,0.1a0.527,0.527,0,0,0-.1.393H9.34a5.288,5.288,0,0,1,1.956,0V17.568H11.149a2.13,2.13,0,0,0,.147-0.786,1.22,1.22,0,0,0-.391-0.049,2.168,2.168,0,0,1-.489.147c-0.009-.177.073-0.1-0.1-0.147a4.469,4.469,0,0,1-.489,0c0-.221-0.044-0.108.049-0.246a1.287,1.287,0,0,0-.538-0.344c-0.083.084-.119,0.2-0.2,0.295A0.249,0.249,0,0,0,9,16.388a0.745,0.745,0,0,1,.1-0.295L8.655,16a1.168,1.168,0,0,1-.049.393h-0.1a0.515,0.515,0,0,0-.1-0.491,0.527,0.527,0,0,0-.293-0.049V16c-0.224.032-.266,0.11-0.489,0.147a1.71,1.71,0,0,0-.2-0.688H7.726a1.742,1.742,0,0,0,.685.1,2.977,2.977,0,0,0,1.125-.1,4.151,4.151,0,0,1,.978.1V15.405a1.545,1.545,0,0,1,.489.147h0.587a9.672,9.672,0,0,1,1.809,0,2.58,2.58,0,0,0,.733.147c0.007-1.2,0-2.468,0-3.784a7.068,7.068,0,0,0-.049-1.818h0.1v5.6c0.664,0,1.57.105,1.956,0.049v0.2C15.538,15.96,14.932,16,14.181,16v0.049a1.289,1.289,0,0,1,0,.737,0.617,0.617,0,0,0,.2-0.049v0.1c0.033,0.061.057-.02,0.049,0.049a0.615,0.615,0,0,1-.147.147,4.02,4.02,0,0,0,.1.884c-0.014.033-.07-0.022-0.1,0.049V18.01h0.244a0.73,0.73,0,0,1,.636-0.147V17.813a1.014,1.014,0,0,1,0-.639h0.1a1.987,1.987,0,0,1,1.027,0v0.1a0.985,0.985,0,0,1,.147.639h0.538V18.3l1.858,0.1v0.1c-0.2,0-.117-0.08-0.2.049h0.2s1.217-.149,1.223-0.148c0.188,0.061.329,0.33,0.489,0.393,0.25,0.1.39-.2,0.44,0.246h0.587v0.147c0.743,0,1.569.1,2.347,0.049,0.261,0.414,1.5.26,2.152,0.246,0.22,0.119.174-.018,0.244-0.049H28.9v0.1c0.232,0.1.715-.175,1.027-0.049a7.934,7.934,0,0,0,2.592.049c0.191-.025.608,0.049,0.88,0.049,1.011,0,2.108.046,3.032,0.049V19.189c0.366-.021.582-0.014,0.636,0.295h1.663c0.047,0.018.2,0.179,0.245,0.2H40v0.59a3.461,3.461,0,0,0-1.222.049l-0.049.147H37.115c-0.052-.192-0.056-0.189-0.293-0.2v0.147H36.577V20.27H35.99l-0.1.147c-0.223.071-1.264-.116-1.663-0.049-0.351.059-1.109-.085-1.614,0a19.731,19.731,0,0,0-2.69.1,3.464,3.464,0,0,1-.978-0.1c-0.117.04,0.04,0.128-.244,0.147H26.6a1.7,1.7,0,0,0-.538-0.147v0.1h-2a1.365,1.365,0,0,0-.1.2l-1.223-.049c-0.942,0-2.5.136-2.787,0.639a5.111,5.111,0,0,1,.538.049c0.118-.166.014-0.215,0.293-0.246,0.079,0.13.037,0.12,0.147,0.1a1.106,1.106,0,0,0,.342-0.295H22.69l0.733,0.246,0.1-.147h0.636v0.295c0.485,0,.764.129,1.223,0.147,0.057-.218.12-0.244,0.391-0.246,0.084,0.079.2,0.073,0.293,0.147a1.759,1.759,0,0,1,.2.344,3.392,3.392,0,0,1,.929,0v0.147l0.44,0.049,0.049-.246h0.049a0.838,0.838,0,0,0,.049.295l0.489,0.1a0.334,0.334,0,0,1,.2-0.295,0.328,0.328,0,0,1,.2-0.049,0.725,0.725,0,0,1,.44.442c0.251,0.033.9,0.279,0.978,0.246a0.417,0.417,0,0,0,.342-0.344h0.391a1.482,1.482,0,0,0,.293.491h0.049V22.432c0.033-.038.064-0.11,0.1-0.147,0,0.221-.015.227,0.147,0.295a1.128,1.128,0,0,0,.342.1,6.845,6.845,0,0,1,.391-1.13v0.2a1.206,1.206,0,0,0-.1.442,0.82,0.82,0,0,0,.391.148,0.68,0.68,0,0,1,.391.049,0.19,0.19,0,0,0-.1.147h0.049V22.482a0.546,0.546,0,0,0,.2-0.344h0.049a0.839,0.839,0,0,0,.049.295c0.892,0.025,1.625.364,2.543,0.393V22.776a0.572,0.572,0,0,1-.1-0.147,0.511,0.511,0,0,0,.245-0.393h0.636V23.12l0.342,0.1,0.049,0.147H36.724a0.42,0.42,0,0,0-.2.147c0.191,0.031.187,0.034,0.244,0.2H36.724a1.865,1.865,0,0,1-.489.344,2.161,2.161,0,0,1-.538,0,1.209,1.209,0,0,0-.538.786c-0.122-.034-0.091-0.116-0.147-0.049l-0.293.246a0.3,0.3,0,0,1,.1.2,0.167,0.167,0,0,0-.1.049c-0.122-.034-0.091-0.116-0.147-0.049l-0.88.835c0.046,0.148.1,0.081,0.049,0.2-0.036.043-.062,0.055-0.1,0.1-0.159-.085-0.25-0.087-0.293.2a2.9,2.9,0,0,1-.1,1.327h-0.1V27.838a1.49,1.49,0,0,1-.049-0.639,6.85,6.85,0,0,0-1.907.442c-0.259.378-.343,0.932-0.636,1.327-0.938,1.265-3.019,1.188-4.205.246a3.248,3.248,0,0,1-.733-1.081,3.471,3.471,0,0,0-.2-0.688c-0.353.22-1.354-.112-1.614,0.049a4.105,4.105,0,0,0-.2.688,3.1,3.1,0,0,1-.831,1.13,3.058,3.058,0,0,1-4.205-.491,3.9,3.9,0,0,1-.44-0.884,2.68,2.68,0,0,0-.1-0.442,2.5,2.5,0,0,0-.978-0.049v0.049H17.017a2.9,2.9,0,0,1-3.961,2.26,3.09,3.09,0,0,1-1.565-1.573,4.751,4.751,0,0,0-.2-0.688,2.5,2.5,0,0,0-.978-0.049c-0.083,2.152-2.887,3.226-4.645,1.916a3.058,3.058,0,0,1-.831-1.032c-0.044-.1-0.213-0.86-0.244-0.884H3.961c0.019,0.144.08,0.062-.049,0.147a1.3,1.3,0,0,0-1.076-.737v0.737a0.235,0.235,0,0,1-.147-0.049,1.788,1.788,0,0,1-.049-0.737h-0.2V26.757a1.364,1.364,0,0,0,.049-0.442c-0.121-.068-1.412-0.724-1.418-0.737a0.886,0.886,0,0,0,.489-0.835H1.516V24.693H2.054V24.644H0.538l-0.049-.688c-0.031-.048-0.207-0.052-0.244-0.1a1.018,1.018,0,0,1,0-.688l-0.2-.1A1.692,1.692,0,0,1,.1,22.285,0.484,0.484,0,0,0,.489,21.99a0.6,0.6,0,0,1-.1-0.541c0.173-.034.1-0.075,0.147-0.1H1.907A1.644,1.644,0,0,1,2.249,21.2a0.319,0.319,0,0,1,.049-0.2v0.2a3.177,3.177,0,0,0,.782-0.1,0.238,0.238,0,0,1,.049-0.147,0.213,0.213,0,0,0,.147.147c0.406-.332.307,0.014,0.636-0.049,0.037-.007.2-0.137,0.245-0.147,0.024,0,1.386.016,1.467,0.049S5.8,21.172,5.868,21.2c0.1,0.046,1.565,0,1.565,0a4.174,4.174,0,0,0,1.418-.049c-1.641-.188-3.54-0.388-5.232-0.541a5.939,5.939,0,0,1-1.418.1,2,2,0,0,0-.685-0.147V19.533H1.467a0.23,0.23,0,0,1-.244.1,0.774,0.774,0,0,1-.049-0.246,0.765,0.765,0,0,1,.245-0.049,0.176,0.176,0,0,0,.1.049V18.6H1.467a0.319,0.319,0,0,1-.049.2l0.049-.442a7.867,7.867,0,0,0,1.809-.1,3.7,3.7,0,0,1,.147-0.934V12.26A9.587,9.587,0,0,1,3.472,10v7.125A4.338,4.338,0,0,1,3.619,18.256ZM13.007,16a0.774,0.774,0,0,0,.587,0H13.007Zm-2.836.1a1.438,1.438,0,0,0,.1.393,0.236,0.236,0,0,0-.147.049h0.1a0.169,0.169,0,0,0,.049.1,3.551,3.551,0,0,1,1.418.049c0.036,0.088-.114.344-0.1,0.639,0.013,0.229.087,0.224,0.1,0.491,0.878,0,1.384.142,2.3,0.147V17.715H13.839V17.568h0.147V16.88a3.329,3.329,0,0,0-.88.147c0-.156.07-0.092-0.1-0.147a4.47,4.47,0,0,1-.489,0c0-.221-0.044-0.108.049-0.246a1.289,1.289,0,0,0-.538-0.344,0.429,0.429,0,0,1-.293.295l-0.049-.148a0.351,0.351,0,0,0,.1-0.2l-0.44-.1a1.164,1.164,0,0,1-.049.393H11.2V16.093a3.261,3.261,0,0,0-.88.2v-0.2H10.171Zm2.69,0.147a1.438,1.438,0,0,0,.1.393,0.236,0.236,0,0,0-.147.049h0.1a0.169,0.169,0,0,0,.049.1,3.26,3.26,0,0,1,1.076,0,0.3,0.3,0,0,1,.1-0.1,1.427,1.427,0,0,1-.049-0.442H12.861Zm-1.271.491v0.1h0.049A0.168,0.168,0,0,0,11.589,16.732Zm2.69,0.147v0.1h0.049A0.168,0.168,0,0,0,14.279,16.88ZM8.9,17.813v0.246H9a0.761,0.761,0,0,0,.342-0.246H8.9Zm3.032,0.049a0.176,0.176,0,0,0,.1.049A0.176,0.176,0,0,0,11.932,17.862Zm0.293,0.049a0.506,0.506,0,0,0,.293.1v-0.1H12.225Zm0.391,0.049v0.1l0.636,0.049v-0.1A2.2,2.2,0,0,0,12.616,17.961ZM13.35,18.01v0.1l0.636,0.049v-0.1h-0.2A0.9,0.9,0,0,0,13.35,18.01Zm0.978,0.049-0.049.147h0.2v-0.1Zm-8.215.295a0.176,0.176,0,0,0,.1.049A0.176,0.176,0,0,0,6.112,18.354ZM16.968,18.4v0.1l1.516,0.1,0.049-.147H17.8A2.059,2.059,0,0,0,16.968,18.4Zm3.765,0.442c-0.02.111-.045,0.053,0,0.147v0.049a0.167,0.167,0,0,0,.1-0.049H20.88V18.944H20.831C20.768,18.822,20.852,18.91,20.734,18.845Zm16.235,0.737a0.176,0.176,0,0,0,.1.049A0.176,0.176,0,0,0,36.968,19.582Zm1.32,0.049a0.175,0.175,0,0,0,.1.049A0.176,0.176,0,0,0,38.289,19.631Zm0.245,0a0.175,0.175,0,0,0,.1.049A0.176,0.176,0,0,0,38.533,19.631Zm-37.311.1h0.1v0.049A0.167,0.167,0,0,1,1.222,19.73Zm35.99,0.541a0.176,0.176,0,0,0,.1.049A0.176,0.176,0,0,0,37.213,20.27Zm0.245,0c0.084,0.043.063,0.044,0.147,0H37.457Zm0.293,0a0.176,0.176,0,0,0,.1.049A0.176,0.176,0,0,0,37.751,20.27Zm0.245,0c0.084,0.043.063,0.044,0.147,0H38Zm0.293,0a0.176,0.176,0,0,0,.1.049A0.176,0.176,0,0,0,38.289,20.27Zm0.245,0a0.176,0.176,0,0,0,.1.049A0.176,0.176,0,0,0,38.533,20.27Zm-18.924.835a8.77,8.77,0,0,1-1.467.1v0.049a3.2,3.2,0,0,0,1.712-.1h-0.1A0.249,0.249,0,0,0,19.609,21.106Zm1.027,0a0.272,0.272,0,0,0,0,.2h0.049V21.253a0.178,0.178,0,0,0,.049-0.1Zm11.491,1.278a0.7,0.7,0,0,0-.049.2,0.344,0.344,0,0,1,.244.2l0.636,0.049a2.274,2.274,0,0,1,.245-0.2H33.154V22.58A5.44,5.44,0,0,1,32.127,22.383Zm-31.883.246a0.319,0.319,0,0,0,.049.2A0.319,0.319,0,0,0,.244,22.629Zm33.35,0.049v0.295c0.516,0.12,1.29.2,1.712,0.344a1.5,1.5,0,0,1,.049-0.344A8.634,8.634,0,0,1,33.594,22.678Zm-0.44.148v0.1H33.2v-0.1H33.154ZM2.3,25.332a0.2,0.2,0,0,0,.1.2A0.87,0.87,0,0,0,2.3,25.332Zm31.834,0.393a0.177,0.177,0,0,1,.049.1H34.132v-0.1Z" transform="translate(0 0.016)"/>
</svg>
