<?xml version="1.0" encoding="utf-8"?>
<!-- Generator: Adobe Illustrator 16.0.0, SVG Export Plug-In . SVG Version: 6.00 Build 0)  -->
<!DOCTYPE svg PUBLIC "-//W3C//DTD SVG 1.1//EN" "http://www.w3.org/Graphics/SVG/1.1/DTD/svg11.dtd">
<svg version="1.1" id="Layer_1" xmlns="http://www.w3.org/2000/svg" xmlns:xlink="http://www.w3.org/1999/xlink" x="0px" y="0px"
	 width="40px" height="40px" viewBox="0 0 40 40" enable-background="new 0 0 40 40" xml:space="preserve">
<path id="Color_Fill_1" fill="#FFFFFF" d="M3.619,14.272h0.146c0.04,0.159-0.024,0.075,0.1,0.147
	c0.055-0.128,0.104-0.259,0.145-0.393c-0.098-0.215-0.133-0.454-0.1-0.688c0.181-0.012,0.362,0.004,0.538,0.049
	c-0.024,0.144-0.06,0.09,0.049,0.2v-0.053c0.04-0.037,0.093-0.055,0.147-0.049v0.049c-0.027,0.027-0.044,0.062-0.049,0.1H4.4
	c-0.019,0.215-0.052,0.429-0.1,0.639h0.1v-0.149c0.424-0.021,0.97,0.056,1.565,0.049c0.766-0.042,1.534-0.042,2.3,0
	c0.077-0.143,0.144-0.29,0.2-0.442h0.1l0.049,0.393l0.244-0.049V13.78h0.2c0.035-0.128,0.049-0.261,0.042-0.394
	c0,0-0.2-0.01-0.1-0.049h0.1c0.072-0.124,0.022-0.076,0.2-0.1c0.063,0.121-0.021,0.033,0.1,0.1c-0.084,0.112-0.12,0.254-0.1,0.393
	h0.04c0.646-0.122,1.31-0.122,1.956,0v-0.147h-0.147c0.098-0.25,0.148-0.517,0.147-0.786c-0.127-0.037-0.259-0.054-0.391-0.049
	c-0.157,0.068-0.321,0.117-0.489,0.147c-0.009-0.177,0.073-0.1-0.1-0.147c-0.163,0.009-0.326,0.009-0.489,0
	c0-0.221-0.044-0.108,0.049-0.246c-0.147-0.158-0.333-0.276-0.538-0.344c-0.083,0.084-0.119,0.2-0.2,0.295
	c-0.04-0.03-0.088-0.048-0.138-0.05c0.012-0.104,0.046-0.205,0.1-0.295l-0.445-0.093c0.006,0.133-0.011,0.266-0.049,0.393h-0.1
	c0.054-0.17,0.016-0.356-0.1-0.491c-0.091-0.044-0.193-0.061-0.293-0.049v0.147c-0.224,0.032-0.266,0.11-0.489,0.147
	c-0.018-0.241-0.085-0.476-0.2-0.688h0.302c0.219,0.079,0.452,0.113,0.685,0.1c0.378,0.039,0.76,0.005,1.125-0.1
	c0.329-0.005,0.657,0.028,0.978,0.1v-0.154c0.17,0.021,0.335,0.071,0.489,0.147h0.587c0.602-0.056,1.208-0.056,1.809,0
	c0.236,0.084,0.483,0.134,0.733,0.147c0.007-1.2,0-2.468,0-3.784c0.062-0.606,0.046-1.217-0.049-1.818h0.1v5.6
	c0.664,0,1.57,0.105,1.956,0.049v0.2c-0.601,0.014-1.207,0.054-1.958,0.054v0.049c0.072,0.241,0.072,0.497,0,0.737
	c0.069-0.005,0.136-0.021,0.2-0.049v0.1c0.033,0.061,0.057-0.02,0.049,0.049c-0.041,0.057-0.09,0.107-0.147,0.147
	c0,0.298,0.034,0.594,0.1,0.884c-0.014,0.033-0.07-0.022-0.1,0.049v0.044h0.244c0.177-0.146,0.413-0.201,0.636-0.147v-0.05
	c-0.069-0.208-0.069-0.432,0-0.639h0.1c0.336-0.09,0.69-0.09,1.027,0v0.1c0.121,0.19,0.172,0.416,0.147,0.639h0.538v0.387l1.858,0.1
	v0.1c-0.2,0-0.117-0.08-0.2,0.049h0.2c0,0,1.217-0.149,1.223-0.148c0.188,0.061,0.329,0.33,0.489,0.393
	c0.25,0.1,0.391-0.2,0.439,0.246h0.588v0.147c0.742,0,1.568,0.1,2.347,0.049c0.261,0.414,1.5,0.26,2.151,0.246
	c0.221,0.119,0.175-0.018,0.244-0.049H28.9v0.1c0.231,0.1,0.715-0.175,1.026-0.049c0.855,0.158,1.731,0.175,2.593,0.049
	c0.19-0.025,0.607,0.049,0.879,0.049c1.012,0,2.108,0.046,3.033,0.049v-0.442c0.365-0.021,0.582-0.014,0.635,0.295h1.664
	c0.047,0.018,0.199,0.179,0.244,0.2H40v0.59c-0.407-0.057-0.82-0.04-1.223,0.049l-0.049,0.147h-1.613
	c-0.053-0.192-0.057-0.189-0.293-0.2v0.147h-0.245v-0.147H35.99l-0.1,0.147c-0.224,0.071-1.265-0.116-1.664-0.049
	c-0.351,0.059-1.108-0.085-1.613,0c-0.898-0.028-1.797,0.006-2.69,0.1c-0.329,0.013-0.658-0.02-0.978-0.1
	c-0.117,0.04,0.039,0.128-0.244,0.147H26.6c-0.17-0.079-0.352-0.128-0.537-0.147v0.1h-2c-0.039,0.064-0.072,0.131-0.101,0.2
	l-1.223-0.049c-0.942,0-2.5,0.137-2.787,0.639c0.18,0.008,0.359,0.023,0.538,0.05c0.117-0.166,0.014-0.216,0.293-0.246
	c0.078,0.13,0.037,0.12,0.146,0.1c0.133-0.073,0.25-0.174,0.342-0.295h1.418l0.733,0.246l0.101-0.147h0.636v0.295
	c0.485,0,0.764,0.13,1.223,0.147c0.058-0.218,0.12-0.244,0.392-0.246c0.084,0.079,0.199,0.073,0.293,0.147
	c0.079,0.106,0.146,0.222,0.199,0.344c0.309-0.043,0.621-0.043,0.93,0v0.146l0.439,0.05l0.049-0.246h0.049
	c-0.001,0.101,0.016,0.2,0.05,0.295l0.489,0.1c0.004-0.128,0.082-0.243,0.199-0.295c0.061-0.037,0.13-0.054,0.2-0.049
	c0.206,0.073,0.368,0.235,0.44,0.442c0.25,0.033,0.899,0.279,0.978,0.246c0.176-0.03,0.313-0.168,0.343-0.345h0.391
	c0.064,0.182,0.164,0.349,0.293,0.491h0.049v-0.056c0.033-0.038,0.064-0.11,0.1-0.147c0,0.221-0.015,0.227,0.147,0.295
	c0.108,0.052,0.224,0.086,0.342,0.101c0.097-0.388,0.228-0.766,0.392-1.13v0.199c-0.062,0.141-0.096,0.29-0.101,0.442
	c0.115,0.082,0.25,0.134,0.392,0.147c0.132-0.021,0.268-0.005,0.391,0.05c-0.056,0.029-0.094,0.084-0.1,0.146h0.049v-0.054
	c0.107-0.086,0.179-0.208,0.199-0.344h0.049c-0.001,0.1,0.016,0.2,0.05,0.295c0.892,0.025,1.625,0.363,2.543,0.393v-0.05
	c-0.041-0.044-0.075-0.093-0.101-0.147c0.141-0.084,0.23-0.23,0.245-0.393h0.636v0.884l0.343,0.101l0.049,0.146h-0.063
	c-0.08,0.027-0.15,0.079-0.201,0.147c0.191,0.03,0.188,0.034,0.244,0.2h-0.043c-0.145,0.14-0.309,0.256-0.49,0.344
	c-0.178,0.022-0.359,0.022-0.537,0c-0.279,0.178-0.475,0.461-0.538,0.785c-0.122-0.033-0.091-0.115-0.147-0.049l-0.293,0.246
	c0.059,0.052,0.094,0.123,0.1,0.2c-0.037,0.005-0.072,0.022-0.1,0.05c-0.121-0.035-0.091-0.117-0.146-0.05l-0.881,0.835
	c0.047,0.148,0.101,0.081,0.05,0.2c-0.036,0.043-0.062,0.056-0.101,0.101c-0.158-0.086-0.25-0.088-0.293,0.199
	c0.07,0.444,0.036,0.898-0.1,1.327h-0.1v-0.065c-0.063-0.207-0.08-0.424-0.049-0.639c-0.654,0.056-1.297,0.204-1.908,0.442
	c-0.258,0.378-0.342,0.932-0.635,1.327c-0.938,1.265-3.02,1.188-4.205,0.246c-0.315-0.308-0.564-0.676-0.733-1.082
	c-0.043-0.235-0.11-0.466-0.2-0.688c-0.354,0.221-1.354-0.111-1.613,0.049c-0.088,0.223-0.154,0.453-0.201,0.688
	c-0.187,0.435-0.471,0.821-0.83,1.13c-1.307,0.99-3.162,0.773-4.206-0.491c-0.184-0.274-0.331-0.571-0.44-0.884
	c-0.021-0.15-0.054-0.298-0.1-0.442c-0.319-0.081-0.652-0.097-0.978-0.049v0.049h-0.033c-0.235,1.585-1.71,2.678-3.295,2.442
	c-0.229-0.034-0.452-0.096-0.666-0.182c-0.699-0.313-1.256-0.873-1.565-1.573c-0.049-0.234-0.116-0.464-0.2-0.688
	c-0.319-0.08-0.652-0.098-0.978-0.049c-0.083,2.152-2.887,3.227-4.645,1.916c-0.349-0.279-0.633-0.631-0.831-1.032
	c-0.044-0.1-0.213-0.86-0.244-0.884H3.961c0.019,0.145,0.08,0.063-0.049,0.146c-0.201-0.42-0.611-0.701-1.076-0.736v0.736
	c-0.053,0.002-0.105-0.016-0.147-0.049c-0.067-0.239-0.084-0.49-0.049-0.736h-0.2v-0.049c0.041-0.145,0.057-0.293,0.049-0.442
	c-0.121-0.068-1.412-0.724-1.418-0.737c0.314-0.156,0.506-0.484,0.489-0.835H1.516v-0.05h0.538V20.66H0.538l-0.049-0.688
	c-0.031-0.049-0.207-0.053-0.244-0.101c-0.08-0.223-0.08-0.466,0-0.688l-0.2-0.1c-0.043-0.262-0.024-0.529,0.055-0.783
	c0.173-0.021,0.322-0.133,0.389-0.295c-0.119-0.153-0.156-0.355-0.1-0.541c0.173-0.033,0.1-0.074,0.147-0.1h1.371
	c0.108-0.063,0.223-0.113,0.342-0.149c-0.006-0.07,0.011-0.141,0.049-0.2v0.2c0.264-0.001,0.527-0.034,0.782-0.1
	c0-0.054,0.017-0.104,0.049-0.147c0.02,0.071,0.076,0.127,0.147,0.147c0.406-0.332,0.307,0.014,0.636-0.05
	c0.037-0.006,0.2-0.137,0.245-0.146c0.024,0,1.386,0.016,1.467,0.049s0.176,0.219,0.244,0.247c0.1,0.046,1.565,0,1.565,0
	c0.472,0.065,0.952,0.048,1.418-0.049c-1.641-0.188-3.54-0.388-5.232-0.541c-0.467,0.09-0.943,0.124-1.418,0.101
	c-0.218-0.09-0.45-0.139-0.685-0.147v-1.03H1.467c-0.052,0.082-0.149,0.121-0.244,0.1c-0.03-0.079-0.046-0.162-0.049-0.246
	c0.079-0.03,0.161-0.046,0.245-0.049c0.027,0.027,0.063,0.044,0.1,0.049v-0.787H1.467c0.006,0.07-0.011,0.141-0.049,0.2l0.049-0.442
	c0.605,0.036,1.212,0.003,1.809-0.1c0.009-0.316,0.058-0.63,0.147-0.934V8.276C3.35,7.523,3.367,6.765,3.472,6.016v7.125
	C3.57,13.51,3.62,13.89,3.619,14.272z M13.007,12.016c0.188,0.077,0.399,0.077,0.587,0H13.007z M10.171,12.116
	c0.015,0.135,0.048,0.267,0.1,0.393c-0.053,0-0.105,0.017-0.147,0.049h0.1c0.004,0.038,0.022,0.073,0.049,0.1
	c0.471-0.08,0.954-0.063,1.418,0.049c0.036,0.088-0.114,0.344-0.1,0.639c0.013,0.229,0.087,0.224,0.1,0.491
	c0.878,0,1.384,0.142,2.3,0.147v-0.253h-0.152v-0.147h0.147v-0.688c-0.298,0.009-0.594,0.059-0.88,0.147
	c0-0.156,0.07-0.092-0.1-0.147c-0.163,0.009-0.326,0.009-0.489,0c0-0.221-0.044-0.108,0.049-0.246
	c-0.147-0.158-0.333-0.276-0.538-0.344c-0.04,0.142-0.151,0.253-0.293,0.295l-0.049-0.148c0.054-0.054,0.089-0.125,0.1-0.2
	l-0.44-0.1c0.006,0.133-0.01,0.266-0.049,0.393H11.2v-0.437c-0.301,0.026-0.598,0.093-0.88,0.2v-0.2h-0.149V12.116z M12.861,12.263
	c0.015,0.135,0.048,0.268,0.1,0.394c-0.053-0.001-0.105,0.017-0.147,0.049h0.1c0.004,0.038,0.022,0.073,0.049,0.1
	c0.356-0.06,0.72-0.06,1.076,0c0.025-0.041,0.059-0.075,0.1-0.1c-0.04-0.144-0.056-0.293-0.049-0.442H12.861z M11.59,12.754v0.1
	h0.049c-0.003-0.04-0.021-0.078-0.05-0.106L11.59,12.754z M14.28,12.901v0.1h0.049c-0.004-0.04-0.021-0.077-0.05-0.105L14.28,12.901
	z M8.9,13.829v0.246H9c0.135-0.048,0.253-0.134,0.342-0.246H8.9z M11.932,13.878c0.027,0.027,0.062,0.044,0.1,0.049
	C12.005,13.9,11.97,13.883,11.932,13.878z M12.225,13.927c0.084,0.063,0.187,0.099,0.293,0.1v-0.1H12.225z M12.616,13.976v0.1
	l0.636,0.049v-0.1C13.043,13.978,12.829,13.962,12.616,13.976L12.616,13.976z M13.35,14.026v0.1l0.636,0.049v-0.1h-0.2
	C13.647,14.023,13.497,14.006,13.35,14.026z M14.328,14.075l-0.049,0.147h0.2v-0.1L14.328,14.075z M6.113,14.37
	c0.027,0.026,0.063,0.044,0.1,0.049C6.186,14.392,6.15,14.375,6.113,14.37L6.113,14.37z M16.968,14.416v0.1l1.516,0.1l0.049-0.147
	H17.8C17.529,14.395,17.246,14.377,16.968,14.416z M20.732,14.858c-0.02,0.111-0.045,0.053,0,0.147v0.049
	c0.039-0.004,0.074-0.021,0.101-0.049h0.047V14.96h-0.049c-0.063-0.122,0.021-0.034-0.097-0.099L20.732,14.858z M36.968,15.595
	c0.027,0.027,0.063,0.044,0.101,0.049c-0.027-0.026-0.063-0.042-0.101-0.046V15.595z M38.288,15.644
	c0.026,0.027,0.062,0.044,0.101,0.049c-0.027-0.025-0.063-0.042-0.1-0.046L38.288,15.644z M38.533,15.644
	c0.027,0.027,0.063,0.044,0.1,0.049c-0.027-0.025-0.063-0.042-0.1-0.046V15.644z M1.222,15.744h0.1v0.049
	c-0.038-0.004-0.073-0.021-0.1-0.047V15.744z M37.212,16.285c0.027,0.026,0.063,0.044,0.101,0.049
	C37.285,16.308,37.25,16.291,37.212,16.285L37.212,16.285z M37.457,16.285c0.084,0.043,0.063,0.044,0.146,0H37.457z M37.75,16.285
	c0.027,0.026,0.063,0.044,0.1,0.049C37.823,16.308,37.788,16.291,37.75,16.285L37.75,16.285z M37.995,16.285
	c0.084,0.043,0.063,0.044,0.147,0H38H37.995z M38.288,16.285c0.026,0.026,0.062,0.044,0.101,0.049
	C38.361,16.308,38.326,16.291,38.288,16.285L38.288,16.285z M38.533,16.285c0.027,0.026,0.063,0.044,0.1,0.049
	C38.605,16.308,38.57,16.291,38.533,16.285L38.533,16.285z M19.609,17.12c-0.485,0.074-0.976,0.107-1.467,0.1v0.05
	c0.569,0.123,1.161,0.088,1.712-0.101h-0.1c-0.042-0.03-0.093-0.047-0.145-0.047V17.12z M20.636,17.12
	c-0.025,0.063-0.025,0.136,0,0.2h0.05V17.27c0.025-0.027,0.043-0.063,0.049-0.101L20.636,17.12z M32.127,18.398
	c-0.025,0.063-0.043,0.131-0.049,0.199c0.109,0.023,0.199,0.098,0.244,0.2l0.636,0.05c0.077-0.073,0.159-0.14,0.245-0.201h-0.049
	v-0.051C32.807,18.563,32.463,18.498,32.127,18.398L32.127,18.398z M0.244,18.645c-0.006,0.07,0.011,0.141,0.049,0.199
	C0.299,18.773,0.282,18.704,0.244,18.645L0.244,18.645z M33.594,18.693v0.295c0.516,0.119,1.29,0.199,1.713,0.344
	c0.002-0.116,0.019-0.231,0.049-0.344C34.76,18.951,34.17,18.853,33.594,18.693L33.594,18.693z M33.154,18.841v0.101H33.2v-0.101
	H33.154z M2.3,21.348c-0.01,0.081,0.029,0.16,0.1,0.2C2.375,21.478,2.342,21.41,2.3,21.348z M34.134,21.741
	c0.026,0.026,0.044,0.062,0.05,0.1h-0.052v-0.1H34.134z"/>
</svg>
