<?xml version="1.0" encoding="utf-8"?>
<!-- Generator: Adobe Illustrator 16.0.0, SVG Export Plug-In . SVG Version: 6.00 Build 0)  -->
<!DOCTYPE svg PUBLIC "-//W3C//DTD SVG 1.1//EN" "http://www.w3.org/Graphics/SVG/1.1/DTD/svg11.dtd">
<svg version="1.1" id="Layer_1" xmlns="http://www.w3.org/2000/svg" xmlns:xlink="http://www.w3.org/1999/xlink" x="0px" y="0px"
	 width="39.938px" height="40px" viewBox="0 0 39.938 40" enable-background="new 0 0 39.938 40" xml:space="preserve">
<path id="Color_Fill_1" fill="#FFFFFF" d="M21.526,14.592h-0.239c0.008,0.141,0.058,0.276,0.144,0.388
	c0.57,0.091,1.15,0.108,1.725,0.049V14.98h0.049c-0.019-0.131-0.002-0.265,0.048-0.388c-0.019,0.131-0.002,0.265,0.048,0.388
	c0.345,0.085,0.703,0.102,1.054,0.049v0.194c0.488,0.103,0.988,0.136,1.485,0.1h2.73c0.876,0.088,1.757,0.105,2.636,0.049
	l6.993,0.044c0.688,0.131,1.199-0.371,1.677-0.048c0.056,0.171,0.072,0.354,0.048,0.533c-0.026,0.027-0.043,0.063-0.048,0.1h-0.815
	c-0.34-0.111-0.699-0.146-1.054-0.1c-0.812-0.085-1.629-0.101-2.443-0.048l-4.886,0.048c-0.975-0.07-1.954-0.036-2.922,0.1h-2.731
	c-0.175-0.018-0.352-0.018-0.526,0c-0.14,0.081-0.135,0.07-0.145,0.291h-0.431v0.436c-0.719,0-1.471,0-2.061,0
	c0.046,0.247,0.109,0.49,0.192,0.727c-0.146,0.129-0.273,0.275-0.383,0.436h0.239c0.604-0.109,1.223-0.092,1.819,0.049
	c0.271,0.022,0.543,0.022,0.814,0c-0.02,0.11-0.044,0.054,0,0.146c0.104-0.047,0.221-0.063,0.335-0.049
	c0.16-0.46,0.422-0.366,1.006-0.339c0.027,0.026,0.063,0.044,0.1,0.049c0.043,0.06,0.077,0.124,0.101,0.194
	c0.026,0.251-0.024,0.504-0.145,0.727c0.356,0.002,0.711,0.051,1.055,0.145c0.003-0.114,0.019-0.228,0.048-0.338h0.137
	c0.034,0.109,0.051,0.224,0.048,0.338c1.148-0.119,2.245,0.505,2.73,1.553h-0.048c-0.169,0.081-0.305,0.218-0.384,0.388
	c0.036,0.058,0.053,0.126,0.049,0.194h-0.049c-0.037-0.07-0.113-0.109-0.191-0.1c-0.464,1.521-1.405,1.907-2.539,2.715
	c-0.559,0.531-1.207,0.957-1.916,1.261c-1.318,0.176-2.651,0.209-3.977,0.1H8.069c-0.814,0.073-1.636,0.039-2.442-0.1
	c-0.645-0.269-1.255-0.61-1.82-1.019c-0.308-0.188-0.649-0.246-0.958-0.436c-0.108-0.067-0.269-0.237-0.383-0.291H2.221
	l-0.052-0.146c-0.155-0.167-0.354-0.285-0.575-0.34c0.022-0.063,0.022-0.131,0-0.193c-0.135-0.158-0.297-0.289-0.479-0.389H0.735
	c-0.651-0.477-0.906-1.328-0.623-2.085c0.192-0.181,0.401-0.343,0.623-0.485c0.053-0.09-0.054-0.1,0-0.193
	c0.084,0.094,0.214,0.133,0.335,0.1v-0.1H1.023v-0.048c-0.073,0.046-0.166,0.046-0.239,0c0.174-0.023,0.174-0.013,0.239-0.146
	c-0.092-0.145-0.142-0.313-0.144-0.484c0.273,0.011,0.391-0.045,0.383-0.437h0.145v-0.1c-0.125,0-0.042,0.063-0.145-0.05H1.31
	v-0.045l0.145,0.049v0.146c0.203-0.05,0.397-0.132,0.574-0.243c0.084-0.009,0.168,0.008,0.24,0.049
	c0.238,0.045,0.48-0.105,0.767-0.049c0.231,0.074,0.475,0.108,0.719,0.101c0.218-0.054,0.321-0.231,0.527-0.291h0.909
	c0.241-0.056,0.7-0.068,0.958-0.101v0.34c0.212-0.003,0.422-0.037,0.623-0.101v0.149c1.453-0.063,2.908-0.047,4.359,0.049v-0.146
	l-2.683-0.048c-0.118-0.382-0.138-0.555-0.672-0.533C7,17.435,6.216,17.516,5.43,17.55c0.038-0.093,0.038-0.198,0-0.291
	c-0.014,0.084-0.067,0.157-0.144,0.194v-0.291c0.052-0.087-0.087-0.155-0.049-0.291c0.058-0.057,0.122-0.105,0.192-0.145
	l0.139-0.922c0.17-0.727,0.395-1.439,0.672-2.133c0.393,0.094,0.8,0.11,1.199,0.049c-0.002-0.179,0.014-0.357,0.048-0.533
	c0.201-0.373,0.583-0.612,1.007-0.63l0.675,0.386c0.04,0.243,0.023,0.492-0.048,0.727h0.048c0.024-0.054,0.059-0.103,0.1-0.145
	c0,0.052,0.017,0.104,0.048,0.145c0.266-0.127,0.521-0.272,0.767-0.436c0.221-0.289,0-0.613,0.431-0.776
	c0.298-0.075,0.606-0.091,0.91-0.048c0.878-0.098,1.767-0.064,2.635,0.1c0.039,0.071,0.088,0.137,0.145,0.194v0.243l0.288,0.048
	l-0.049,0.145c0.239,0.03,0.479,0.046,0.72,0.048c0.004-0.038,0.021-0.073,0.048-0.1c-0.042-0.094-0.075-0.191-0.101-0.291
	c0.045-0.099,0.134-0.17,0.239-0.194c0.043,0.041,0.091,0.075,0.145,0.1l-0.101-0.145c0.127,0.022,0.257,0.022,0.383,0
	c0.068-0.269,0.084-0.549,0.049-0.824V9.646c-0.027-0.211-0.012-0.425,0.045-0.63c-0.087,1.229-0.054,2.463,0.1,3.685
	c0.415,0.1,0.738,0.349,1.2,0.485h2.399c0.188,0.077,0.38,0.142,0.575,0.194v-0.049c-0.204-0.061-0.377-0.201-0.479-0.388h0.144
	c0.142,0.168,0.355,0.259,0.575,0.242c0.046-0.05,0.048,0.049,0.048,0.049c0.073,0.083-0.056,0.063,0.101,0.145
	c0.22,0.055,0.409,0.194,0.526,0.388h-0.1c-0.157-0.117-0.336-0.2-0.527-0.242v0.1c0.503,0.225,0.91,0.619,1.15,1.115h-0.057V14.592
	z M10.556,12.556c-0.147,0.188-0.261,0.402-0.335,0.63h2.061v-0.049c-0.056-0.028-0.094-0.083-0.101-0.145h0.101
	c0.045,0.165,0.018,0.151,0.191,0.194c0.391-0.272,0.868-0.393,1.341-0.339l0.048,0.194c0.128-0.082,0.037-0.074,0.192-0.048v-0.244
	c-0.026-0.027-0.043-0.063-0.048-0.1c-1.144-0.152-2.3-0.183-3.45-0.094V12.556z M15.394,13.186h0.383v-0.291
	c-0.116,0.014-0.229,0.048-0.335,0.1C15.417,13.056,15.401,13.12,15.394,13.186z M13.143,12.944
	c-0.097,0.078-0.212,0.128-0.335,0.145v0.1h0.432v-0.052c-0.118-0.063-0.033,0.021-0.101-0.1
	C13.202,12.964,13.169,13.016,13.143,12.944L13.143,12.944z M15.921,12.944c0.107,0.342,0.143,0.256,0.671,0.242v0.049h0.048v-0.1
	C16.362,13.101,16.22,12.985,15.921,12.944L15.921,12.944z M13.521,13.138c0.116,0.067,0.254,0.084,0.383,0.048v-0.049h-0.378
	L13.521,13.138z M25.928,17.838c0.003,0.12,0.037,0.236,0.1,0.339c0.033-0.121-0.004-0.25-0.095-0.337L25.928,17.838z
	 M25.688,18.855c0.082,0.043,0.062,0.043,0.145,0h-0.139H25.688z M0.778,19.583c-0.229,0.099-0.404,0.294-0.479,0.533
	c-0.116,0.327-0.133,0.681-0.048,1.018h0.1c0.208-0.122,0.401-0.269,0.575-0.436c0.1-0.173,0.149-0.335,0.24-0.485
	c-0.104-0.2-0.185-0.411-0.24-0.63H0.783H0.778z M1.169,21.331c0.082,0.002,0.163,0.019,0.24,0.049v-0.243h0.045v-0.048
	c-0.075-0.007-0.145-0.042-0.192-0.1c-0.027,0.026-0.063,0.043-0.1,0.048v0.291L1.169,21.331z M0.879,21.186
	c-0.082,0.084-0.18,0.149-0.287,0.194c-0.07-0.123,0.01-0.055-0.144-0.1v0.048H0.4c0.057,0.132,0.193,0.211,0.335,0.193
	c0.027-0.026,0.063-0.044,0.101-0.049c0.042-0.1,0.09-0.197,0.144-0.291h-0.1V21.186z M4.089,22.686
	c-0.043,0.06-0.076,0.125-0.1,0.194c0.136,0.021,0.267,0.07,0.383,0.146v-0.289H4.328v-0.047H4.089V22.686z M9.502,22.928
	c-0.102-0.015-0.199-0.049-0.287-0.1H9.119v0.1c-0.191,0.01-0.384,0.01-0.575,0c-0.034,0.4-0.201,0.777-0.476,1.07h2.301v-0.049
	c-0.266-0.329-0.461-0.709-0.575-1.115c-0.063,0.12,0.021,0.033-0.101,0.1c-0.02-0.174,0.023-0.121-0.1-0.193v0.1l-0.1-0.049v0.145
	L9.502,22.928z M14.053,22.734c-0.043,0.464-0.227,0.904-0.527,1.261H16.4v-0.046c-0.356-0.299-0.552-0.748-0.526-1.213h-1.82
	V22.734z M20.089,22.734c-0.031,0.467-0.217,0.91-0.527,1.261h2.779v-0.046c-0.319-0.321-0.492-0.76-0.479-1.213h-1.772V22.734z"/>
</svg>
