<svg id="Layer_1" data-name="Layer 1" xmlns="http://www.w3.org/2000/svg" xmlns:xlink="http://www.w3.org/1999/xlink" width="24" height="24" viewBox="0 0 24 24">
  <defs>
    <style>
      .cls-1 {
        opacity: 0.26;
      }

      .cls-1, .cls-12, .cls-13, .cls-14, .cls-15, .cls-16, .cls-2, .cls-9 {
        isolation: isolate;
      }

      .cls-2 {
        opacity: 0.62;
      }

      .cls-12, .cls-13, .cls-14, .cls-15, .cls-16, .cls-17, .cls-3, .cls-4, .cls-5 {
        fill-rule: evenodd;
      }

      .cls-3 {
        fill: url(#radial-gradient);
      }

      .cls-4 {
        fill: url(#radial-gradient-2);
      }

      .cls-5 {
        fill: #fff;
      }

      .cls-6 {
        fill: url(#radial-gradient-3);
      }

      .cls-7 {
        fill: url(#radial-gradient-4);
      }

      .cls-8 {
        fill: url(#radial-gradient-5);
      }

      .cls-9 {
        opacity: 0.57;
        fill: url(#linear-gradient);
      }

      .cls-10 {
        fill: #263a46;
      }

      .cls-11 {
        fill: url(#linear-gradient-2);
      }

      .cls-12, .cls-13 {
        opacity: 0.16;
      }

      .cls-12 {
        fill: url(#linear-gradient-3);
      }

      .cls-13 {
        fill: url(#linear-gradient-4);
      }

      .cls-14 {
        opacity: 0.49;
        fill: url(#linear-gradient-5);
      }

      .cls-15 {
        opacity: 0.33;
        fill: url(#linear-gradient-6);
      }

      .cls-16 {
        fill: #5790ac;
        opacity: 0.64;
      }

      .cls-17 {
        fill: url(#linear-gradient-7);
      }
    </style>
    <radialGradient id="radial-gradient" cx="38.89692" cy="24.0279" r="11.6269" gradientTransform="matrix(0.9734, 0, 0, -1, -26.17424, 26)" gradientUnits="userSpaceOnUse">
      <stop offset="0" stop-color="#668fb0"/>
      <stop offset="1" stop-color="#293b47"/>
    </radialGradient>
    <radialGradient id="radial-gradient-2" cx="-8.25428" cy="15.95283" r="8.02676" gradientTransform="matrix(1, 0, 0, -1, 20.25424, 26)" gradientUnits="userSpaceOnUse">
      <stop offset="0" stop-color="#fff"/>
      <stop offset="0.14729" stop-color="#fbf6f6"/>
      <stop offset="0.16" stop-color="#faf5f5"/>
      <stop offset="0.25467" stop-color="#e8eef2"/>
      <stop offset="0.33" stop-color="#dfeaf0"/>
      <stop offset="0.5" stop-color="#bad2de"/>
      <stop offset="0.66" stop-color="#89b4cc"/>
      <stop offset="0.83" stop-color="#5a94b1"/>
      <stop offset="1" stop-color="#467993"/>
    </radialGradient>
    <radialGradient id="radial-gradient-3" cx="-13.13657" cy="21.45534" r="6.3774" gradientTransform="matrix(1, 0, 0, -1, 20.25424, 26)" gradientUnits="userSpaceOnUse">
      <stop offset="0" stop-color="#fff"/>
      <stop offset="0.21596" stop-color="#fff" stop-opacity="0.76266"/>
      <stop offset="0.6041" stop-color="#fff" stop-opacity="0.35634"/>
      <stop offset="0.87374" stop-color="#fff" stop-opacity="0.09981"/>
      <stop offset="1" stop-color="#fff" stop-opacity="0"/>
    </radialGradient>
    <radialGradient id="radial-gradient-4" cx="-19.18457" cy="21.45534" r="6.3774" gradientTransform="matrix(1, 0, 0, -1, 0, 26)" xlink:href="#radial-gradient-3"/>
    <radialGradient id="radial-gradient-5" cx="-11.9784" cy="16.00074" r="7.72642" gradientTransform="matrix(1, 0, 0, -1, 0, 26)" xlink:href="#radial-gradient-3"/>
    <linearGradient id="linear-gradient" x1="10.41834" y1="5.12407" x2="13.58879" y2="5.12407" gradientTransform="matrix(1, 0, 0, -1, 0, 26)" gradientUnits="userSpaceOnUse">
      <stop offset="0" stop-color="#082431"/>
      <stop offset="0.50244" stop-color="#75787a"/>
      <stop offset="0.59235" stop-color="#686e71"/>
      <stop offset="0.76022" stop-color="#445359"/>
      <stop offset="0.98637" stop-color="#0c2733"/>
      <stop offset="1" stop-color="#082431"/>
    </linearGradient>
    <linearGradient id="linear-gradient-2" x1="12.00352" y1="4.42223" x2="12.00352" y2="10.73877" gradientTransform="matrix(1, 0, 0, -1, 0, 26)" gradientUnits="userSpaceOnUse">
      <stop offset="0" stop-color="#263a46"/>
      <stop offset="0.59867" stop-color="#263a46" stop-opacity="0.36178"/>
      <stop offset="1" stop-color="#263a46" stop-opacity="0"/>
    </linearGradient>
    <linearGradient id="linear-gradient-3" x1="12.0135" y1="5.12407" x2="12.0135" y2="6.27243" gradientTransform="matrix(1, 0, 0, -1, 0, 26)" gradientUnits="userSpaceOnUse">
      <stop offset="0" stop-color="#fff"/>
      <stop offset="0.10214" stop-color="#faf7f2"/>
      <stop offset="0.293" stop-color="#eee1ce"/>
      <stop offset="0.55187" stop-color="#d9bf95"/>
      <stop offset="0.8656" stop-color="#be9047"/>
      <stop offset="1" stop-color="#b17a23"/>
    </linearGradient>
    <linearGradient id="linear-gradient-4" x1="12.0135" y1="6.52775" x2="12.0135" y2="7.67611" xlink:href="#linear-gradient-3"/>
    <linearGradient id="linear-gradient-5" x1="12.0135" y1="7.93138" x2="12.0135" y2="9.07974" gradientTransform="matrix(1, 0, 0, -1, 0, 26)" gradientUnits="userSpaceOnUse">
      <stop offset="0" stop-color="#fff"/>
      <stop offset="0.09299" stop-color="#f2f3f4"/>
      <stop offset="0.26674" stop-color="#ced4d6"/>
      <stop offset="0.5025" stop-color="#95a1a6"/>
      <stop offset="0.78791" stop-color="#475c65"/>
      <stop offset="1" stop-color="#082431"/>
    </linearGradient>
    <linearGradient id="linear-gradient-6" x1="12.00356" y1="9.39809" x2="12.00356" y2="11.1089" xlink:href="#linear-gradient-3"/>
    <linearGradient id="linear-gradient-7" x1="11.99133" y1="11.9864" x2="12.00909" y2="9.21208" gradientTransform="matrix(1, 0, 0, -1, 0, 26)" xlink:href="#radial-gradient"/>
  </defs>
  <g id="Layer_3" data-name="Layer 3">
    <path class="cls-1" d="M12.00384.72825A7.96828,7.96828,0,0,0,4.0657,8.70779a10.544,10.544,0,0,0,2.96594,6.742A8.45949,8.45949,0,0,1,8.37,17.41527v2.55a2.56852,2.56852,0,0,0,1.61349,2.37694,2.65925,2.65925,0,0,0,4.0395,0,2.56838,2.56838,0,0,0,1.61476-2.37694v-2.581a12.57241,12.57241,0,0,1,1.14584-1.66967c1.32927-1.76139,3.15074-4.17385,3.15074-7.0068A7.96418,7.96418,0,0,0,12.00384.72825Z"/>
    <path class="cls-2" d="M12.00384,1.38966A7.306,7.306,0,0,0,4.72711,8.70779,10.001,10.001,0,0,0,7.54844,15.037a7.60576,7.60576,0,0,1,1.483,2.28583v2.64241a1.91862,1.91862,0,0,0,1.36158,1.8221,1.98819,1.98819,0,0,0,3.22177,0,1.91862,1.91862,0,0,0,1.36151-1.82207V17.24537A10.49216,10.49216,0,0,1,16.2552,15.316c1.27373-1.68711,3.01768-3.99756,3.01768-6.60827A7.302,7.302,0,0,0,12.00384,1.38966Z"/>
    <g>
      <path class="cls-3" d="M12.0043,1.72035A6.95613,6.95613,0,0,1,18.942,8.69482l0,.01287c0,3.84687-3.96737,7.02321-4.36111,8.66049a3.98465,3.98465,0,0,1-2.5766,1.08254,4.15781,4.15781,0,0,1-2.62122-1.05589c-.4296-2.12047-4.32516-4.38382-4.32516-8.6872A6.95794,6.95794,0,0,1,11.98645,1.7204Z"/>
      <path class="cls-4" d="M12.00434,2.63011c4.20225,0,6.30293,3.13133,6.30293,6.558,0,3.39078-3.48629,6.11935-3.84427,7.56887a4.09809,4.09809,0,0,1-2.45866,1.02877,4.07042,4.07042,0,0,1-2.44113-1.02009C9.179,14.896,5.69265,12.98121,5.69265,9.1881,5.69266,5.76144,7.7934,2.63011,12.00434,2.63011Z"/>
      <polygon class="cls-5" points="8.28 10.843 10.309 7.46 11.661 9.49 13.015 7.46 15.72 10.843 13.32 4.753 11.661 7.126 9.984 4.807 8.28 10.843"/>
      <path class="cls-6" d="M7.00564,13.28645a8.02124,8.02124,0,0,1-.26443-3.46457A7.189,7.189,0,0,1,9.13649,6.43539c1.44707-1.23049,2.58107-1.92715,2.72982-3.70324A6.4812,6.4812,0,0,0,7.25152,4.8168C5.67028,6.87132,5.3065,9.80336,7.00564,13.28645Z"/>
      <path class="cls-7" d="M7.49577,13.28645a8.02124,8.02124,0,0,1-.26443-3.46457A7.189,7.189,0,0,1,9.62662,6.43539c1.44707-1.23048,2.581-1.92715,2.7298-3.70324A6.48118,6.48118,0,0,0,7.74163,4.8168C6.16041,6.87132,5.79662,9.80336,7.49577,13.28645Z"/>
      <path class="cls-8" d="M9.74191,17.0264a3.44465,3.44465,0,0,0,2.14985.76318c1.51083.11045,2.70611-1.57429,2.70611-1.57429s1.89584-2.66211,2.15794-3.10886A8.3201,8.3201,0,0,0,18.1643,9.08325a5.53257,5.53257,0,0,0-1.002-3.39226,8.0359,8.0359,0,0,1-.123,4.26425,10.73155,10.73155,0,0,1-3.816,5.74075A7.57011,7.57011,0,0,1,9.74191,17.0264Z"/>
      <g>
        <ellipse class="cls-9" cx="12.00356" cy="20.87593" rx="1.58523" ry="1.40367"/>
        <path class="cls-10" d="M10.97416,21.57777H13.033a1.61264,1.61264,0,0,0,1.61263-1.61266V15.92152l-.66029-.66029H10.02179l-.66028.66029v4.04356a1.61265,1.61265,0,0,0,1.61261,1.61269Z"/>
        <path class="cls-11" d="M9.88992,15.26123h4.22727v4.49125a1.82529,1.82529,0,0,1-1.82529,1.82529h-.57675a1.82529,1.82529,0,0,1-1.82529-1.82529h0V15.26123Z"/>
        <path class="cls-12" d="M12.01351,20.24978a3.928,3.928,0,0,1-2.10369-.52221c.09093.64213.99235,1.14836,2.10369,1.14836s2.01276-.50623,2.10368-1.14836A3.928,3.928,0,0,1,12.01351,20.24978Z"/>
        <path class="cls-13" d="M12.01351,18.8461a3.928,3.928,0,0,1-2.10369-.52221c.09093.64213.99235,1.14836,2.10369,1.14836s2.01276-.50623,2.10368-1.14836A3.928,3.928,0,0,1,12.01351,18.8461Z"/>
        <path class="cls-14" d="M12.01351,17.44247a3.92789,3.92789,0,0,1-2.10369-.52221c.09093.64213.99235,1.14836,2.10369,1.14836s2.01276-.50623,2.10368-1.14836A3.92788,3.92788,0,0,1,12.01351,17.44247Z"/>
        <path class="cls-15" d="M9.643,15.63493a2.68541,2.68541,0,0,0,2.37541.967,2.79626,2.79626,0,0,0,2.34581-.90655l-.41374-.23782a3.54278,3.54278,0,0,1-1.93207.50135,3.46474,3.46474,0,0,1-1.99416-.54314Z"/>
      </g>
      <path class="cls-16" d="M14.89147,15.05005c0,1.039-1.29457,1.88129-2.89151,1.88129s-2.89151-.84229-2.89151-1.88129S10.403,13.68973,12,13.68973,14.89147,14.01108,14.89147,15.05005Z"/>
      <path class="cls-17" d="M14.13859,15.36252c0,.76848-.9575,1.39145-2.13863,1.39145s-2.13862-.623-2.13862-1.39145S10.81883,14.3564,12,14.3564,14.13859,14.594,14.13859,15.36252Z"/>
    </g>
  </g>
</svg>
