<svg xmlns="http://www.w3.org/2000/svg" xmlns:xlink="http://www.w3.org/1999/xlink" width="24" height="24" viewBox="0 0 24 24">
  <defs>
    <style>
      .cls-1 {
        opacity: 0.52;
      }

      .cls-2 {
        fill: url(#linear-gradient);
      }

      .cls-3 {
        fill: #ccd98c;
      }

      .cls-14, .cls-4, .cls-7 {
        fill: #35350e;
      }

      .cls-5, .cls-6 {
        fill: #95a857;
      }

      .cls-5 {
        opacity: 0.35;
      }

      .cls-6 {
        opacity: 0.57;
      }

      .cls-7 {
        opacity: 0.29;
      }

      .cls-8 {
        fill: #84893d;
      }

      .cls-8, .cls-9 {
        opacity: 0.86;
      }

      .cls-9 {
        fill: #7b712a;
      }

      .cls-10 {
        fill: #cbe1e5;
      }

      .cls-11 {
        opacity: 0.48;
      }

      .cls-12 {
        fill: #302f0e;
      }

      .cls-13 {
        fill: #7a7e2c;
      }

      .cls-14 {
        opacity: 0.53;
      }

      .cls-15 {
        fill: url(#linear-gradient-2);
      }

      .cls-16 {
        fill: url(#linear-gradient-3);
      }

      .cls-17 {
        fill: #fff;
      }

      .cls-18 {
        fill-rule: evenodd;
        fill: url(#linear-gradient-4);
      }

      .cls-19 {
        fill: url(#linear-gradient-5);
      }

      .cls-20 {
        fill: url(#linear-gradient-6);
      }
    </style>
    <linearGradient id="linear-gradient" x1="4.36061" y1="10.24175" x2="21.48017" y2="20.90479" gradientUnits="userSpaceOnUse">
      <stop offset="0" stop-color="#575418"/>
      <stop offset="0.2878" stop-color="#575418"/>
      <stop offset="1" stop-color="#63601d"/>
    </linearGradient>
    <linearGradient id="linear-gradient-2" x1="5.5" y1="13.13043" x2="5.5" y2="19.78333" gradientUnits="userSpaceOnUse">
      <stop offset="0" stop-color="#dbcc5d"/>
      <stop offset="1" stop-color="#958e39"/>
    </linearGradient>
    <linearGradient id="linear-gradient-3" x1="18.5" y1="13.13043" x2="18.5" y2="19.78333" xlink:href="#linear-gradient-2"/>
    <linearGradient id="linear-gradient-4" x1="11.99457" y1="6.15217" x2="11.99457" y2="8.11412" gradientUnits="userSpaceOnUse">
      <stop offset="0" stop-color="#738535"/>
      <stop offset="1" stop-color="#90a34e"/>
    </linearGradient>
    <linearGradient id="linear-gradient-5" x1="16.5029" y1="7.12072" x2="19.7285" y2="9.12981" gradientUnits="userSpaceOnUse">
      <stop offset="0" stop-color="#575418"/>
      <stop offset="0.2878" stop-color="#5b5819"/>
      <stop offset="1" stop-color="#63601d"/>
    </linearGradient>
    <linearGradient id="linear-gradient-6" x1="12.71214" y1="7.12072" x2="15.93774" y2="9.12981" gradientTransform="matrix(-1, 0, 0, 1, 20.24728, 0)" xlink:href="#linear-gradient-5"/>
  </defs>
  <g id="Layer_3" data-name="Layer 3">
    <polygon class="cls-1" points="21.889 9.553 19.889 5.553 18.995 5 4.995 5 4.1 5.553 2.1 9.553 2 10 2 11 2 12 2 13 2 19 2 20 3 21 4 21 5 21 6 21 7 21 9 21 15 21 17 21 18 21 19 21 20 21 21 21 22 20 22 19 22 13 22 12 22 11 22 10 21.889 9.553"/>
    <rect class="cls-2" x="3" y="10" width="18" height="10"/>
    <rect class="cls-3" x="3" y="10" width="18" height="1"/>
    <rect class="cls-4" x="3" y="12" width="18" height="1"/>
    <rect class="cls-5" x="3" y="10" width="1" height="10"/>
    <rect class="cls-6" x="20" y="10" width="1" height="10"/>
  </g>
  <g id="Layer_7" data-name="Layer 7">
    <path class="cls-7" d="M12.94565,15h-1.8913L10,13.94565v-1.8913L11.05435,11h1.8913L14,12.05435v1.8913Z"/>
    <rect class="cls-8" x="9" y="15" width="6" height="1"/>
    <rect class="cls-9" x="9" y="17" width="6" height="3"/>
    <rect class="cls-10" x="11" y="12" width="2" height="2"/>
    <g class="cls-11">
      <rect class="cls-10" x="10" y="17" width="1" height="1"/>
      <rect class="cls-10" x="13" y="17" width="1" height="1"/>
    </g>
    <rect class="cls-10" x="18" y="10" width="1" height="2"/>
    <rect class="cls-10" x="5" y="10" width="1" height="2"/>
    <rect class="cls-12" x="11" y="14" width="2" height="1"/>
    <rect class="cls-13" x="3" y="19" width="18" height="1"/>
    <rect class="cls-14" x="4" y="12" width="3" height="8"/>
    <rect class="cls-15" x="5" y="13" width="1" height="6"/>
    <rect class="cls-14" x="17" y="12" width="3" height="8"/>
    <rect class="cls-16" x="18" y="13" width="1" height="6"/>
    <rect class="cls-12" x="5" y="19" width="1" height="1"/>
    <rect class="cls-12" x="18" y="19" width="1" height="1"/>
    <rect class="cls-17" x="5" y="10" width="1" height="1"/>
    <rect class="cls-17" x="18" y="10" width="1" height="1"/>
    <path class="cls-18" d="M4.99457,6h14l2,4h-18Z"/>
    <polygon class="cls-19" points="19 9.984 18 9.984 16.948 5.948 17.72 5.948 19 9.984"/>
    <polygon class="cls-20" points="5.038 9.984 6.038 9.984 7.09 5.948 6.318 5.948 5.038 9.984"/>
  </g>
</svg>
