<svg xmlns="http://www.w3.org/2000/svg" xmlns:xlink="http://www.w3.org/1999/xlink" width="24" height="24" viewBox="0 0 24 24">
  <defs>
    <style>
      .cls-1 {
        opacity: 0.26;
      }

      .cls-2 {
        opacity: 0.62;
      }

      .cls-12, .cls-13, .cls-14, .cls-15, .cls-16, .cls-17, .cls-3, .cls-4, .cls-5 {
        fill-rule: evenodd;
      }

      .cls-3 {
        fill: url(#radial-gradient);
      }

      .cls-4 {
        fill: url(#radial-gradient-2);
      }

      .cls-5 {
        fill: #fff;
      }

      .cls-6 {
        fill: url(#radial-gradient-3);
      }

      .cls-7 {
        fill: url(#radial-gradient-4);
      }

      .cls-8 {
        fill: url(#radial-gradient-5);
      }

      .cls-9 {
        fill: url(#linear-gradient);
      }

      .cls-10 {
        fill: #4a2905;
      }

      .cls-11 {
        fill: url(#linear-gradient-2);
      }

      .cls-12, .cls-13, .cls-14, .cls-15 {
        opacity: 0.33;
      }

      .cls-12 {
        fill: url(#linear-gradient-3);
      }

      .cls-13 {
        fill: url(#linear-gradient-4);
      }

      .cls-14 {
        fill: url(#linear-gradient-5);
      }

      .cls-15 {
        fill: url(#linear-gradient-6);
      }

      .cls-16 {
        fill: #d17a29;
        opacity: 0.64;
      }

      .cls-17 {
        fill: url(#linear-gradient-7);
      }
    </style>
    <radialGradient id="radial-gradient" cx="11.75779" cy="4.22399" r="8.78949" gradientTransform="translate(0.31915) scale(0.9734 1)" gradientUnits="userSpaceOnUse">
      <stop offset="0" stop-color="#8c6239"/>
      <stop offset="0.34401" stop-color="#896037"/>
      <stop offset="0.56046" stop-color="#815830"/>
      <stop offset="0.74166" stop-color="#724b24"/>
      <stop offset="0.9025" stop-color="#5e3913"/>
      <stop offset="1" stop-color="#4d2a05"/>
    </radialGradient>
    <radialGradient id="radial-gradient-2" cx="-8.2932" cy="10.32844" r="6.07092" gradientTransform="translate(20.28756)" gradientUnits="userSpaceOnUse">
      <stop offset="0" stop-color="#fff"/>
      <stop offset="0.06726" stop-color="#fffef6"/>
      <stop offset="0.16" stop-color="#fffbe2"/>
      <stop offset="0.21739" stop-color="#fff6c9"/>
      <stop offset="0.2871" stop-color="#fef2b1"/>
      <stop offset="0.33" stop-color="#fef0a8"/>
      <stop offset="0.5" stop-color="#edce50"/>
      <stop offset="0.65512" stop-color="#e3bc49"/>
      <stop offset="0.83" stop-color="#de981b"/>
      <stop offset="1" stop-color="#be8f07"/>
    </radialGradient>
    <radialGradient id="radial-gradient-3" cx="-11.97841" cy="6.16875" r="4.82107" gradientTransform="translate(20.28756)" gradientUnits="userSpaceOnUse">
      <stop offset="0" stop-color="#fff"/>
      <stop offset="0.21596" stop-color="#fff" stop-opacity="0.76266"/>
      <stop offset="0.6041" stop-color="#fff" stop-opacity="0.35634"/>
      <stop offset="0.87374" stop-color="#fff" stop-opacity="0.09981"/>
      <stop offset="1" stop-color="#fff" stop-opacity="0"/>
    </radialGradient>
    <radialGradient id="radial-gradient-4" cx="-11.60766" cy="6.16875" r="4.82107" xlink:href="#radial-gradient-3"/>
    <radialGradient id="radial-gradient-5" cx="-6.16007" cy="10.29222" r="5.84088" xlink:href="#radial-gradient-3"/>
    <linearGradient id="linear-gradient" x1="11.11315" y1="18.51457" x2="12.87587" y2="18.51457" gradientUnits="userSpaceOnUse">
      <stop offset="0" stop-color="#603813"/>
      <stop offset="0.5" stop-color="#aa792f"/>
      <stop offset="1" stop-color="#603813"/>
    </linearGradient>
    <linearGradient id="linear-gradient-2" x1="12.00272" y1="19.04513" x2="12.00272" y2="14.27007" gradientUnits="userSpaceOnUse">
      <stop offset="0" stop-color="#4d2a05"/>
      <stop offset="1" stop-color="#63695a"/>
    </linearGradient>
    <linearGradient id="linear-gradient-3" x1="12.01024" y1="18.51457" x2="12.01024" y2="17.64645" gradientUnits="userSpaceOnUse">
      <stop offset="0" stop-color="#fff"/>
      <stop offset="0.10214" stop-color="#faf7f2"/>
      <stop offset="0.293" stop-color="#eee1ce"/>
      <stop offset="0.55187" stop-color="#d9bf95"/>
      <stop offset="0.8656" stop-color="#be9047"/>
      <stop offset="1" stop-color="#b17a23"/>
    </linearGradient>
    <linearGradient id="linear-gradient-4" x1="12.01024" y1="17.45344" x2="12.01024" y2="16.58532" xlink:href="#linear-gradient-3"/>
    <linearGradient id="linear-gradient-5" x1="12.01024" y1="16.39232" x2="12.01024" y2="15.5242" xlink:href="#linear-gradient-3"/>
    <linearGradient id="linear-gradient-6" x1="12.00272" y1="15.28357" x2="12.00272" y2="13.99026" xlink:href="#linear-gradient-3"/>
    <linearGradient id="linear-gradient-7" x1="11.99347" y1="13.32691" x2="12.0069" y2="15.42419" gradientUnits="userSpaceOnUse">
      <stop offset="0" stop-color="#e09b34"/>
      <stop offset="1" stop-color="#4d2a05"/>
    </linearGradient>
  </defs>
  <g id="Layer_3" data-name="Layer 3">
    <path class="cls-1" d="M12.00293,3.28369A6.02372,6.02372,0,0,0,6.002,9.31592,7.97086,7.97086,0,0,0,8.24414,14.4126a6.3951,6.3951,0,0,1,1.01172,1.48584v1.92773a1.9417,1.9417,0,0,0,1.21973,1.79688,2.01029,2.01029,0,0,0,3.05371,0A1.94161,1.94161,0,0,0,14.75,17.82617V15.875a9.50483,9.50483,0,0,1,.86621-1.26221c1.00488-1.33154,2.38184-3.15527,2.38184-5.29687A6.02062,6.02062,0,0,0,12.00293,3.28369Z"/>
    <path class="cls-2" d="M12.00293,3.78369A5.52307,5.52307,0,0,0,6.502,9.31592a7.56041,7.56041,0,0,0,2.13282,4.78467,5.7496,5.7496,0,0,1,1.12109,1.728v1.99756a1.45041,1.45041,0,0,0,1.0293,1.37744,1.503,1.503,0,0,0,2.43554,0A1.45041,1.45041,0,0,0,14.25,17.82617V15.77a7.93171,7.93171,0,0,1,.9668-1.4585c.96289-1.27539,2.28125-3.022,2.28125-4.9956A5.52,5.52,0,0,0,12.00293,3.78369Z"/>
    <g>
      <path class="cls-3" d="M12.00328,4.03368a5.25857,5.25857,0,0,1,5.24464,5.28216c0,2.90809-2.99918,5.30928-3.29683,6.547a3.01226,3.01226,0,0,1-1.94781.81836,3.14313,3.14313,0,0,1-1.98154-.79821c-.32476-1.603-3.26966-3.314-3.26966-6.56719A5.25994,5.25994,0,0,1,12.00328,4.03368Z"/>
      <path class="cls-4" d="M12.00331,4.72142c3.17674,0,4.76477,2.36717,4.76477,4.95759,0,2.5633-2.6355,4.626-2.90612,5.72178a3.098,3.098,0,0,1-1.85865.77771,3.07711,3.07711,0,0,1-1.8454-.77115c-.29043-1.4134-2.926-2.86089-2.926-5.72834C7.23192,7.08859,8.82,4.72142,12.00331,4.72142Z"/>
      <polygon class="cls-5" points="9.188 10.93 10.722 8.373 11.744 9.907 12.767 8.373 14.812 10.93 12.998 6.326 11.744 8.12 10.476 6.367 9.188 10.93"/>
      <path class="cls-6" d="M8.22448,12.77721a6.0639,6.0639,0,0,1-.1999-2.61908A5.4347,5.4347,0,0,1,9.83532,7.59807c1.09393-.9302,1.95119-1.45685,2.06364-2.79951a4.89954,4.89954,0,0,0-3.4886,1.57592C7.215,7.92762,6.94,10.14413,8.22448,12.77721Z"/>
      <path class="cls-7" d="M8.595,12.77721a6.06374,6.06374,0,0,1-.1999-2.61908,5.4347,5.4347,0,0,1,1.81074-2.56006c1.09393-.9302,1.95118-1.45685,2.06363-2.79951A4.89953,4.89953,0,0,0,8.78086,6.37448C7.58552,7.92762,7.31051,10.14413,8.595,12.77721Z"/>
      <path class="cls-8" d="M10.293,15.60447a2.604,2.604,0,0,0,1.6252.57693c1.14213.0835,2.04572-1.1901,2.04572-1.1901s1.43318-2.01245,1.63132-2.35018A6.28966,6.28966,0,0,0,16.66,9.59975a4.18238,4.18238,0,0,0-.75745-2.56442,6.07484,6.07484,0,0,1-.093,3.22361,8.11269,8.11269,0,0,1-2.88477,4.33979A5.72266,5.72266,0,0,1,10.293,15.60447Z"/>
      <g>
        <ellipse class="cls-9" cx="12.00272" cy="18.51457" rx="1.19837" ry="1.06112"/>
        <path class="cls-10" d="M11.22453,19.04513h1.55638A1.2191,1.2191,0,0,0,14,17.826V14.76922l-.49915-.49915H10.50458l-.49915.49915V17.826A1.2191,1.2191,0,0,0,11.22453,19.04513Z"/>
        <path class="cls-11" d="M10.40489,14.27007h3.19565a0,0,0,0,1,0,0v3.39521a1.37985,1.37985,0,0,1-1.37985,1.37985h-.436a1.37985,1.37985,0,0,1-1.37985-1.37985V14.27007A0,0,0,0,1,10.40489,14.27007Z"/>
        <path class="cls-12" d="M12.01024,18.04122a2.96939,2.96939,0,0,1-1.59031-.39477c.06874.48543.75018.86812,1.59031.86812s1.52157-.38269,1.5903-.86812A2.96935,2.96935,0,0,1,12.01024,18.04122Z"/>
        <path class="cls-13" d="M12.01024,16.98009a2.9693,2.9693,0,0,1-1.59031-.39477c.06874.48543.75018.86812,1.59031.86812s1.52157-.38269,1.5903-.86812A2.96926,2.96926,0,0,1,12.01024,16.98009Z"/>
        <path class="cls-14" d="M12.01024,15.919a2.9693,2.9693,0,0,1-1.59031-.39477c.06874.48543.75018.86812,1.59031.86812s1.52157-.38269,1.5903-.86812A2.96926,2.96926,0,0,1,12.01024,15.919Z"/>
        <path class="cls-15" d="M10.21819,14.55257a2.03006,2.03006,0,0,0,1.79572.731,2.11386,2.11386,0,0,0,1.77334-.68532l-.31277-.17978a2.67823,2.67823,0,0,1-1.46057.379,2.61922,2.61922,0,0,1-1.50751-.41059Z"/>
      </g>
      <path class="cls-16" d="M14.18587,14.11042c0,.78545-.97865,1.42219-2.18587,1.42219s-2.18587-.63674-2.18587-1.42219S10.79278,13.08207,12,13.08207,14.18587,13.325,14.18587,14.11042Z"/>
      <path class="cls-17" d="M13.61672,14.34664c0,.58094-.72383,1.05188-1.61672,1.05188s-1.61672-.47094-1.61672-1.05188.72383-.76059,1.61672-.76059S13.61672,13.7657,13.61672,14.34664Z"/>
    </g>
  </g>
</svg>
