<svg xmlns="http://www.w3.org/2000/svg" xmlns:xlink="http://www.w3.org/1999/xlink" width="24" height="24" viewBox="0 0 24 24">
  <defs>
    <style>
      .cls-1 {
        opacity: 0.55;
      }

      .cls-11, .cls-2 {
        fill-rule: evenodd;
      }

      .cls-2 {
        fill: url(#linear-gradient);
      }

      .cls-3 {
        opacity: 0.42;
      }

      .cls-4 {
        fill: #fff;
      }

      .cls-5 {
        fill: url(#linear-gradient-2);
      }

      .cls-6 {
        fill: #0f415b;
      }

      .cls-7 {
        fill: none;
        stroke: #333;
        stroke-miterlimit: 10;
        stroke-width: 0.56342px;
      }

      .cls-8 {
        fill: url(#New_Gradient_Swatch);
      }

      .cls-9 {
        opacity: 0.76;
      }

      .cls-10 {
        fill: url(#linear-gradient-3);
      }

      .cls-11 {
        fill: url(#linear-gradient-4);
      }

      .cls-12 {
        opacity: 0.78;
      }

      .cls-13 {
        fill: #ffffa0;
      }
    </style>
    <linearGradient id="linear-gradient" x1="12.01323" y1="21.84652" x2="12.01323" y2="2.12428" gradientUnits="userSpaceOnUse">
      <stop offset="0" stop-color="#545454"/>
      <stop offset="0.09837" stop-color="#606060"/>
      <stop offset="0.19268" stop-color="#666"/>
      <stop offset="0.24907" stop-color="#797979"/>
      <stop offset="0.43715" stop-color="#b2b2b2"/>
      <stop offset="0.5983" stop-color="#dcdcdc"/>
      <stop offset="0.72444" stop-color="#f6f6f6"/>
      <stop offset="0.8" stop-color="#fff"/>
      <stop offset="1" stop-color="#fff"/>
    </linearGradient>
    <linearGradient id="linear-gradient-2" x1="12" y1="18.39916" x2="12" y2="5.60084" gradientUnits="userSpaceOnUse">
      <stop offset="0.25366" stop-color="#27869e"/>
      <stop offset="0.58114" stop-color="#1e6f8b"/>
      <stop offset="1" stop-color="#155675"/>
    </linearGradient>
    <linearGradient id="New_Gradient_Swatch" data-name="New Gradient Swatch" x1="12" y1="19.3913" x2="12" y2="4.6087" gradientUnits="userSpaceOnUse">
      <stop offset="0" stop-color="#fff"/>
      <stop offset="0.21596" stop-color="#fff" stop-opacity="0.76266"/>
      <stop offset="0.6041" stop-color="#fff" stop-opacity="0.35634"/>
      <stop offset="0.87374" stop-color="#fff" stop-opacity="0.09981"/>
      <stop offset="1" stop-color="#fff" stop-opacity="0"/>
    </linearGradient>
    <linearGradient id="linear-gradient-3" x1="11.60816" y1="5.65771" x2="11.60816" y2="17.70752" gradientUnits="userSpaceOnUse">
      <stop offset="0" stop-color="#002d4a"/>
      <stop offset="1"/>
    </linearGradient>
    <linearGradient id="linear-gradient-4" x1="11.6087" y1="17.20746" x2="11.6087" y2="6.15785" gradientUnits="userSpaceOnUse">
      <stop offset="0.16585" stop-color="#d4970a"/>
      <stop offset="0.21831" stop-color="#d79e14"/>
      <stop offset="0.58867" stop-color="#edcc53"/>
      <stop offset="0.85937" stop-color="#fae97a"/>
      <stop offset="1" stop-color="#fff489"/>
    </linearGradient>
  </defs>
  <g id="Layer_5" data-name="Layer 5">
    <path class="cls-1" d="M12.01367.98291l-9.97656,5.48V17.50781l9.97656,5.48,9.97559-5.48V6.46289Zm4.38086,11.01025A4.38135,4.38135,0,1,1,12.0127,7.6123,4.38655,4.38655,0,0,1,16.39453,11.99316Z"/>
    <path class="cls-2" d="M12.01318,2.12427,3.03735,7.05481V16.916l8.97583,4.93055,8.976-4.93055V7.05481Zm-.00048,15.2503A5.38126,5.38126,0,1,1,17.394,11.99335,5.38118,5.38118,0,0,1,12.0127,17.37457Z"/>
    <g class="cls-3">
      <path class="cls-4" d="M12.01318,2.69476l8.476,4.65589v9.26947l-8.476,4.65588L3.53735,16.62012V7.35065l8.47583-4.65589M12.0127,17.87457a5.88126,5.88126,0,1,0-5.88111-5.88122,5.8879,5.8879,0,0,0,5.88111,5.88122m.00048-15.7503L3.03735,7.05481V16.916l8.97583,4.93055,8.976-4.93055V7.05481l-8.976-4.93054Zm-.00048,15.2503A5.38126,5.38126,0,1,1,17.394,11.99335a5.38118,5.38118,0,0,1-5.38134,5.38122Z"/>
    </g>
  </g>
  <g id="Layer_3" data-name="Layer 3">
    <circle class="cls-5" cx="12" cy="12" r="6.39916"/>
    <path class="cls-6" d="M12,5.96306A6.03694,6.03694,0,1,1,5.96306,12,6.04374,6.04374,0,0,1,12,5.96306m0-.72444A6.76138,6.76138,0,1,0,18.76138,12,6.76141,6.76141,0,0,0,12,5.23862Z"/>
    <circle class="cls-7" cx="12" cy="12" r="6.76138"/>
    <path class="cls-8" d="M12,4.6087A7.3913,7.3913,0,1,0,19.39125,12,7.39122,7.39122,0,0,0,12,4.6087Zm0,14.11447a6.88736,6.88736,0,1,1,6.8873-6.88736A6.88735,6.88735,0,0,1,12,18.72317Z"/>
    <g class="cls-9">
      <path class="cls-10" d="M9.92773,17.70752a.50157.50157,0,0,1-.417-.22363L7.544,14.521a.50057.50057,0,0,1,.3916-.77588A2.4755,2.4755,0,0,0,8.5332,13.561a.50017.50017,0,0,1-.166-.62452L6.832,12.02686a.50006.50006,0,0,1-.18164-.67383l.12695-.22754a.49889.49889,0,0,1,.67871-.19385l.05762.03223a.53176.53176,0,0,1,.04785-.12256l.127-.23193a.4995.4995,0,0,1,.67773-.19874l.06934.0376a.47051.47051,0,0,1,.05371-.14355l.12793-.22754A.50044.50044,0,0,1,9.294,9.88428l.918.50634a.46048.46048,0,0,1-.00586-.07373V9.30859a.5025.5025,0,0,1,.12793-.33447,1.67382,1.67382,0,0,1,.64063-.44141V8.51855H10.6543a.50075.50075,0,0,1-.27637-.08349L9.7168,7.99561a.5.5,0,0,1,.27636-.91651h.70215a.49908.49908,0,0,1,.12891-.15722,1.52518,1.52518,0,0,1,.58789-.26758V6.15771a.49972.49972,0,0,1,.5-.5h.33008a.49972.49972,0,0,1,.5.5v.502a1.519,1.519,0,0,1,.59375.27344.51152.51152,0,0,1,.11718.146h.69825a.5.5,0,0,1,.252.93164l-.75293.43946a.49545.49545,0,0,1-.25195.06835l-.21973.00879a1.87378,1.87378,0,0,1,.44629.28125l.11328.08594a.50172.50172,0,0,1,.21094.4082V10.311a.50088.50088,0,0,1-.14258.35009.52668.52668,0,0,1,.07422.12012l.248.56494H14.584a.50123.50123,0,0,1,.44336.26807l.67774,1.2959a.5023.5023,0,0,1-.17285.65283,2.06661,2.06661,0,0,0,.59375.18164.50193.50193,0,0,1,.42382.77344l-1.91406,2.93261a.50083.50083,0,0,1-.415.22657l-4.28906.03027Zm-1.168-3.16309,1.43457,2.16114,3.75-.02637,1.38574-2.12207c-.35938-.13574-.7959-.34082-1.335-.6001a7.853,7.853,0,0,0-1.93848-.76465,10.21035,10.21035,0,0,0-1.86719.73584C9.60547,14.19385,9.13574,14.40381,8.75977,14.54443Zm1.00781-2.23095-.02539.05468.07226-.02929Zm1.07617-.79493c-.00293.01368-.00684.02735-.01074.04151l-.11328.37109a3.007,3.007,0,0,1,1.34179-.46582,2.88856,2.88856,0,0,1,1.126.3833c.02832.01367.05762.02735.08789.04151l-.17969-.40821h-.0791a.49971.49971,0,0,1-.5-.5V10.311a.50046.50046,0,0,1,.43262-.49561V9.5498a.48483.48483,0,0,0-.30469-.13232.50044.50044,0,0,1-.46582-.499V8.01855a.49868.49868,0,0,1,.21777-.41259,1.24244,1.24244,0,0,0-.1748-.02246.49927.49927,0,0,1-.14453-.02735.51345.51345,0,0,1-.14063.02735,1.526,1.526,0,0,0-.18261.0205.5004.5004,0,0,1,.2207.41455v.90723a.49927.49927,0,0,1-.457.49805.67148.67148,0,0,0-.31153.1084v.28906a.50034.50034,0,0,1,.43165.4956v.665a.50068.50068,0,0,1-.44336.49707Z"/>
    </g>
    <path class="cls-11" d="M8.81933,13.15071l.20017-.409L7.087,11.5969l.12672-.22753L9.1563,12.44221l.24913-.5357-1.40549-.82515.12673-.23184,2.05782,1.12179.16993-.5573-1.43-.864.12817-.22753,1.34644.74306.73874-.08352v-.6653h-.432v-1.008a1.17068,1.17068,0,0,1,.769-.383V8.01839H10.654l-.661-.43921H11.1378V7.31133a1.53711,1.53711,0,0,1,.77474-.22753v-.926h.32978v.926a1.5946,1.5946,0,0,1,.769.23041v.265h1.14051l-.75314.43921h-.72v.9a1.33114,1.33114,0,0,1,.77042.38449v1.008h-.432V10.982h.40609l.37873.864h.782l.67826,1.296c-1.7655-.4061-2.69-1.17076-3.20554-1.17652S9.95408,13.01822,8.81933,13.15071Zm7.3111,1.094-1.91381,2.93248-4.28846.03024-1.9671-2.96272c.74451-.03744,3.387-1.55093,4.09549-1.55237.89139,0,3.28762,1.55237,4.06956,1.55237Z"/>
    <g class="cls-12">
      <g>
        <path class="cls-13" d="M8.81934,13.1507c.05139-.006.10766-.02265.16088-.03229l-.11254-.06659Z"/>
        <path class="cls-13" d="M13.4231,10.982h-.406v.4h.406l.37878.864h.78186l.43481.83087c.08228.02143.15735.04535.24353.06519L14.58374,11.846h-.78186Z"/>
        <path class="cls-13" d="M12.24231,7.0838v.4a1.594,1.594,0,0,1,.76892.2304v.265h.45459l.686-.4H13.01123V7.31421A1.594,1.594,0,0,0,12.24231,7.0838Z"/>
        <path class="cls-13" d="M7.96106,14.24475l.23242.3501c.94275-.23529,3.21155-1.50116,3.86316-1.5025.82092,0,2.9032,1.30218,3.84021,1.51019l.23352-.35779H16.1261c-.78186,0-3.1781-1.55237-4.06946-1.55237C11.348,12.69379,8.70557,14.20728,7.96106,14.24475Z"/>
        <path class="cls-13" d="M11.47485,8.9256a1.17071,1.17071,0,0,0-.769.38305v.4a1.17077,1.17077,0,0,1,.769-.38306Z"/>
        <path class="cls-13" d="M13.4491,9.70288v-.4a1.33114,1.33114,0,0,0-.77039-.38452v.4A1.33151,1.33151,0,0,1,13.4491,9.70288Z"/>
        <polygon class="cls-13" points="9.391 11.939 10.185 12.371 10.354 11.814 10.251 11.752 10.185 11.971 8.127 10.849 8 11.081 9.406 11.906 9.391 11.939"/>
        <rect class="cls-13" x="11.9126" y="6.15784" width="0.32971" height="0.40002"/>
        <polygon class="cls-13" points="9.01 12.761 9.156 12.842 9.406 12.307 9.259 12.221 9.156 12.442 7.214 11.369 7.087 11.597 9.02 12.742 9.01 12.761"/>
        <polygon class="cls-13" points="10.347 11.437 10.399 11.466 11.138 11.382 11.138 10.982 10.399 11.066 9.053 10.322 8.924 10.55 10.354 11.414 10.347 11.437"/>
        <path class="cls-13" d="M11.13782,7.97919V7.7113a1.537,1.537,0,0,1,.77478-.22747v-.4a1.53714,1.53714,0,0,0-.77478.22754v.26782H9.99292l.60205.4Z"/>
      </g>
    </g>
  </g>
</svg>
