<svg xmlns="http://www.w3.org/2000/svg" xmlns:xlink="http://www.w3.org/1999/xlink" width="24" height="24" viewBox="0 0 24 24">
  <defs>
    <style>
      .cls-1 {
        opacity: 0.46;
      }

      .cls-2 {
        opacity: 0.81;
      }

      .cls-3 {
        fill-rule: evenodd;
        fill: url(#linear-gradient);
      }

      .cls-4 {
        fill: url(#linear-gradient-2);
      }

      .cls-5, .cls-6 {
        opacity: 0.88;
      }

      .cls-5 {
        fill: url(#linear-gradient-3);
      }

      .cls-6 {
        fill: #ffc78a;
      }

      .cls-7 {
        opacity: 0.71;
      }

      .cls-8 {
        fill: #322520;
      }
    </style>
    <linearGradient id="linear-gradient" x1="12" y1="1.47826" x2="12" y2="21.24785" gradientUnits="userSpaceOnUse">
      <stop offset="0" stop-color="#b6896a"/>
      <stop offset="0.09782" stop-color="#ae8466"/>
      <stop offset="0.24611" stop-color="#9a745c"/>
      <stop offset="0.42546" stop-color="#785c4a"/>
      <stop offset="0.57805" stop-color="#554339"/>
      <stop offset="0.79" stop-color="#674b3c"/>
      <stop offset="1" stop-color="#74513e"/>
    </linearGradient>
    <linearGradient id="linear-gradient-2" x1="12" y1="2.13043" x2="12" y2="19.80736" gradientUnits="userSpaceOnUse">
      <stop offset="0" stop-color="#e7e4a4"/>
      <stop offset="1" stop-color="#ab6c38"/>
    </linearGradient>
    <linearGradient id="linear-gradient-3" x1="12" y1="23" x2="12" y2="1" gradientUnits="userSpaceOnUse">
      <stop offset="0" stop-color="#ffc78a" stop-opacity="0"/>
      <stop offset="0.99756" stop-color="#ffc78a"/>
      <stop offset="1" stop-color="#ab6c38"/>
    </linearGradient>
  </defs>
  <g id="Layer_1" data-name="Layer 1">
    <path class="cls-1" d="M21.08691,14.78809a2.78809,2.78809,0,1,0,0-5.57618H20.5332A8.98358,8.98358,0,0,0,20.00684,7.957l.79882-.79932a2.31989,2.31989,0,0,0,.001-3.28222L20.125,3.19336a2.452,2.452,0,0,0-3.2832,0l-.78711.78809a9.00084,9.00084,0,0,0-1.2666-.53467V2.91309a2.78809,2.78809,0,0,0-5.57618,0v.53369a8.92119,8.92119,0,0,0-1.27929.54248L7.208,3.26514A2.29427,2.29427,0,0,0,5.5752,2.58936h-.001a2.29682,2.29682,0,0,0-1.63379.67578l-.67578.67627a2.31107,2.31107,0,0,0,0,3.26611l.73633.73584A8.97242,8.97242,0,0,0,3.4668,9.21191H2.91309a2.78809,2.78809,0,0,0,0,5.57618H3.4668a9.00264,9.00264,0,0,0,.52636,1.25439l-.78515.78467a2.32521,2.32521,0,0,0,0,3.28271l.68164.68164a2.37941,2.37941,0,0,0,3.2832,0l.77246-.77295a8.98337,8.98337,0,0,0,1.2666.53467v.53369a2.78809,2.78809,0,1,0,5.57618,0v-.53369a8.88284,8.88284,0,0,0,1.27929-.54248l.72461.72412a2.29427,2.29427,0,0,0,1.63281.67578h.001a2.29682,2.29682,0,0,0,1.63379-.67578l.67578-.67627a2.31107,2.31107,0,0,0,0-3.26611l-.73633-.73584a9.05652,9.05652,0,0,0,.53418-1.26855ZM15.42969,12A3.42969,3.42969,0,1,1,12,8.5708,3.43288,3.43288,0,0,1,15.42969,12Z"/>
    <path class="cls-2" d="M21.08691,9.58691h-.8291A8.5994,8.5994,0,0,0,19.5459,7.8877l.99512-.99512a1.94506,1.94506,0,0,0,0-2.752l-.68164-.68212a1.99222,1.99222,0,0,0-2.752,0l-.98437.98486a8.53158,8.53158,0,0,0-1.71-.72119V2.91309a2.41309,2.41309,0,0,0-4.82618,0v.80908a8.50525,8.50525,0,0,0-1.72265.729l-.92188-.9209a1.9371,1.9371,0,0,0-2.73633,0l-.67578.67627a1.935,1.935,0,0,0,0,2.73584l.93164.93164a8.66153,8.66153,0,0,0-.71972,1.71289h-.8291a2.41309,2.41309,0,0,0,0,4.82618h.8291A8.61165,8.61165,0,0,0,4.4541,16.1123l-.98047.98a1.94858,1.94858,0,0,0,0,2.75244l.68164.68164a1.948,1.948,0,0,0,2.752,0l.96972-.96973a8.49854,8.49854,0,0,0,1.71.72119v.80908a2.41309,2.41309,0,1,0,4.82618,0v-.80908a8.47975,8.47975,0,0,0,1.72265-.72949l.92188.92139a1.9371,1.9371,0,0,0,2.73633,0l.67578-.67627a1.935,1.935,0,0,0,0-2.73584l-.93164-.93213a8.65977,8.65977,0,0,0,.71972-1.7124h.8291a2.41309,2.41309,0,1,0,0-4.82618ZM15.80469,12A3.80469,3.80469,0,1,1,12,8.1958,3.80891,3.80891,0,0,1,15.80469,12Z"/>
  </g>
  <g id="Layer_3" data-name="Layer 3">
    <path class="cls-3" d="M21.0869,13.913H19.8752a8.13624,8.13624,0,0,1-.9619,2.2949l1.203,1.203a1.43465,1.43465,0,0,1,0,2.0291l-.6763.67631a1.43465,1.43465,0,0,1-2.0291,0l-1.1942-1.1942a7.98754,7.98754,0,0,1-2.3037.97259v1.19221a1.91305,1.91305,0,1,1-3.8261,0V19.8947a7.99015,7.99015,0,0,1-2.2908-.96409L6.554,20.1727a1.446,1.446,0,0,1-2.0451,0l-.6816-.6817a1.44587,1.44587,0,0,1,0-2.045l1.2509-1.251a8.13584,8.13584,0,0,1-.9535-2.282H2.913a1.913,1.913,0,0,1,0-3.826H4.1247a8.1372,8.1372,0,0,1,.962-2.2949L3.8836,6.5891a1.43483,1.43483,0,0,1,0-2.0291L4.56,3.8836a1.43486,1.43486,0,0,1,2.0291,0L7.7833,5.0778a7.99207,7.99207,0,0,1,2.3036-.9725V2.913a1.91305,1.91305,0,0,1,3.8261,0V4.1053a7.99,7.99,0,0,1,2.2909.96412l1.2571-1.2572a1.44614,1.44614,0,0,1,2.0451,0l.6817.68168a1.44605,1.44605,0,0,1,0,2.045L18.9217,7.805a8.13633,8.13633,0,0,1,.9535,2.282h1.2117a1.913,1.913,0,1,1,0,3.826ZM12,7.6956A4.30436,4.30436,0,1,0,16.3043,12,4.30447,4.30447,0,0,0,12,7.6956Z"/>
    <path class="cls-4" d="M12,1.5a1.41461,1.41461,0,0,1,1.413,1.413V4.49884l.38257.09247a7.50725,7.50725,0,0,1,2.14759.90466l.33593.20538.27832-.27838,1.25721-1.25726a.94629.94629,0,0,1,1.338,0l.68164.68176a.946.946,0,0,1,0,1.33789l-1.266,1.26612-.27686.27679.20227.33508a7.65091,7.65091,0,0,1,.89575,2.14179l.0929.38184h1.60461a1.413,1.413,0,1,1,0,2.826H19.4823l-.0929.38184a7.65425,7.65425,0,0,1-.90368,2.15387l-.20325.33539.27734.27734,1.203,1.203a.93474.93474,0,0,1,0,1.322l-.67652.67639a.93466.93466,0,0,1-1.3219-.00012l-1.19421-1.19416-.27893-.27893-.33618.20642a7.504,7.504,0,0,1-2.15955.91266l-.38257.09247v1.58575a1.413,1.413,0,1,1-2.82605,0V19.50116l-.38256-.09247A7.508,7.508,0,0,1,8.05688,18.504L7.721,18.29865l-.27832.27838L6.20044,19.81921a.94614.94614,0,0,1-1.338,0l-.68164-.68176a.94607.94607,0,0,1,0-1.338l1.251-1.25092.27686-.27679-.20227-.33514a7.65107,7.65107,0,0,1-.89575-2.14173l-.09278-.3819H2.913a1.413,1.413,0,0,1,0-2.826H4.5177l.0929-.38184a7.65075,7.65075,0,0,1,.90368-2.15387l.20325-.33539-.27734-.27734-1.20313-1.203a.936.936,0,0,1,0-1.322l.67664-.67645a.93474.93474,0,0,1,1.3219.00006L7.42981,5.4314l.27893.27893.33618-.20642a7.50618,7.50618,0,0,1,2.15943-.9126l.38256-.09247V2.913A1.41464,1.41464,0,0,1,12,1.5m0,15.30432A4.80435,4.80435,0,1,0,7.19556,12,4.80972,4.80972,0,0,0,12,16.80432M12,1a1.913,1.913,0,0,0-1.91309,1.913V4.10529a7.98972,7.98972,0,0,0-2.30358.97253L6.58911,3.88361a1.43476,1.43476,0,0,0-2.029,0L3.88354,4.56a1.43484,1.43484,0,0,0,0,2.02911l1.20313,1.203A8.13545,8.13545,0,0,0,4.12476,10.087H2.913a1.913,1.913,0,0,0,0,3.826h1.2118a8.13465,8.13465,0,0,0,.95349,2.282l-1.251,1.251a1.4459,1.4459,0,0,0,0,2.045l.68164.6817a1.446,1.446,0,0,0,2.045,0L7.79614,18.9306a7.98954,7.98954,0,0,0,2.29077.96411v1.1922a1.913,1.913,0,1,0,3.82605,0v-1.1922a7.98745,7.98745,0,0,0,2.30371-.97259l1.19422,1.19415a1.43447,1.43447,0,0,0,2.02905,0l.67639-.67627a1.4346,1.4346,0,0,0,0-2.02911l-1.203-1.203a8.13894,8.13894,0,0,0,.96191-2.29487h1.21167a1.913,1.913,0,1,0,0-3.826H19.87524a8.13818,8.13818,0,0,0-.95349-2.282l1.266-1.26611a1.446,1.446,0,0,0,0-2.045l-.68164-.68171a1.44611,1.44611,0,0,0-2.045,0L16.20386,5.0694a7.9902,7.9902,0,0,0-2.2909-.96411V2.913A1.913,1.913,0,0,0,12,1Zm0,15.30432A4.30435,4.30435,0,1,1,16.30432,12,4.30444,4.30444,0,0,1,12,16.30432Z"/>
    <path class="cls-5" d="M12,1.5a1.41461,1.41461,0,0,1,1.413,1.413V4.49884l.38257.09247a7.50725,7.50725,0,0,1,2.14759.90466l.33593.20538.27832-.27838,1.25721-1.25726a.94629.94629,0,0,1,1.338,0l.68164.68176a.946.946,0,0,1,0,1.33789l-1.266,1.26612-.27686.27679.20227.33508a7.65091,7.65091,0,0,1,.89575,2.14179l.0929.38184h1.60461a1.413,1.413,0,1,1,0,2.826H19.4823l-.0929.38184a7.65425,7.65425,0,0,1-.90368,2.15387l-.20325.33539.27734.27734,1.203,1.203a.93474.93474,0,0,1,0,1.322l-.67652.67639a.93466.93466,0,0,1-1.3219-.00012l-1.19421-1.19416-.27893-.27893-.33618.20642a7.504,7.504,0,0,1-2.15955.91266l-.38257.09247v1.58575a1.413,1.413,0,1,1-2.82605,0V19.50116l-.38256-.09247A7.508,7.508,0,0,1,8.05688,18.504L7.721,18.29865l-.27832.27838L6.20044,19.81921a.94614.94614,0,0,1-1.338,0l-.68164-.68176a.94607.94607,0,0,1,0-1.338l1.251-1.25092.27686-.27679-.20227-.33514a7.65107,7.65107,0,0,1-.89575-2.14173l-.09278-.3819H2.913a1.413,1.413,0,0,1,0-2.826H4.5177l.0929-.38184a7.65075,7.65075,0,0,1,.90368-2.15387l.20325-.33539-.27734-.27734-1.20313-1.203a.936.936,0,0,1,0-1.322l.67664-.67645a.93474.93474,0,0,1,1.3219.00006L7.42981,5.4314l.27893.27893.33618-.20642a7.50618,7.50618,0,0,1,2.15943-.9126l.38256-.09247V2.913A1.41464,1.41464,0,0,1,12,1.5m0,15.30432A4.80435,4.80435,0,1,0,7.19556,12,4.80972,4.80972,0,0,0,12,16.80432M12,1a1.913,1.913,0,0,0-1.91309,1.913V4.10529a7.98972,7.98972,0,0,0-2.30358.97253L6.58911,3.88361a1.43476,1.43476,0,0,0-2.029,0L3.88354,4.56a1.43484,1.43484,0,0,0,0,2.02911l1.20313,1.203A8.13545,8.13545,0,0,0,4.12476,10.087H2.913a1.913,1.913,0,0,0,0,3.826h1.2118a8.13465,8.13465,0,0,0,.95349,2.282l-1.251,1.251a1.4459,1.4459,0,0,0,0,2.045l.68164.6817a1.446,1.446,0,0,0,2.045,0L7.79614,18.9306a7.98954,7.98954,0,0,0,2.29077.96411v1.1922a1.913,1.913,0,1,0,3.82605,0v-1.1922a7.98745,7.98745,0,0,0,2.30371-.97259l1.19422,1.19415a1.43447,1.43447,0,0,0,2.02905,0l.67639-.67627a1.4346,1.4346,0,0,0,0-2.02911l-1.203-1.203a8.13894,8.13894,0,0,0,.96191-2.29487h1.21167a1.913,1.913,0,1,0,0-3.826H19.87524a8.13818,8.13818,0,0,0-.95349-2.282l1.266-1.26611a1.446,1.446,0,0,0,0-2.045l-.68164-.68171a1.44611,1.44611,0,0,0-2.045,0L16.20386,5.0694a7.9902,7.9902,0,0,0-2.2909-.96411V2.913A1.913,1.913,0,0,0,12,1Zm0,15.30432A4.30435,4.30435,0,1,1,16.30432,12,4.30444,4.30444,0,0,1,12,16.30432Z"/>
    <path class="cls-6" d="M16.738,11.65217a4.74312,4.74312,0,0,1-9.47594,0c-.014.14918-.045.29339-.045.44624a4.78292,4.78292,0,0,0,9.56584,0C16.78292,11.94556,16.752,11.80135,16.738,11.65217Z"/>
  </g>
  <g id="Layer_7" data-name="Layer 7">
    <g class="cls-7">
      <path class="cls-8" d="M12,18.875A6.875,6.875,0,1,1,18.875,12,6.88262,6.88262,0,0,1,12,18.875Zm0-13A6.125,6.125,0,1,0,18.125,12,6.13212,6.13212,0,0,0,12,5.875Z"/>
    </g>
  </g>
</svg>
