<svg xmlns="http://www.w3.org/2000/svg" xmlns:xlink="http://www.w3.org/1999/xlink" width="24" height="24" viewBox="0 0 24 24">
  <defs>
    <style>
      .cls-1 {
        opacity: 0.27;
      }

      .cls-10, .cls-2, .cls-6, .cls-7, .cls-8, .cls-9 {
        fill-rule: evenodd;
      }

      .cls-2 {
        fill: url(#linear-gradient);
      }

      .cls-3 {
        opacity: 0.47;
      }

      .cls-4 {
        fill: #f16654;
        opacity: 0.95;
      }

      .cls-5 {
        opacity: 0.33;
      }

      .cls-6 {
        fill: url(#linear-gradient-2);
      }

      .cls-7 {
        fill: #fff1b3;
        opacity: 0.71;
      }

      .cls-10, .cls-8 {
        fill: #ffc78a;
      }

      .cls-8 {
        opacity: 0.62;
      }

      .cls-9 {
        opacity: 0.4;
        fill: url(#linear-gradient-3);
      }

      .cls-10 {
        opacity: 0.36;
      }

      .cls-11 {
        fill: #6e210d;
        opacity: 0.56;
      }

      .cls-12 {
        fill: #deae6c;
      }
    </style>
    <linearGradient id="linear-gradient" x1="11.48652" y1="21.01478" x2="11.48652" y2="4.01478" gradientUnits="userSpaceOnUse">
      <stop offset="0" stop-color="#a52414"/>
      <stop offset="0.24402" stop-color="#b02b1a"/>
      <stop offset="1" stop-color="#d03f2c"/>
    </linearGradient>
    <linearGradient id="linear-gradient-2" x1="2.98657" y1="8.76477" x2="19.98657" y2="8.76477" gradientUnits="userSpaceOnUse">
      <stop offset="0" stop-color="#fde8a0" stop-opacity="0.6"/>
      <stop offset="0.19253" stop-color="#fdecaf" stop-opacity="0.66386"/>
      <stop offset="0.59979" stop-color="#fef5d6" stop-opacity="0.82638"/>
      <stop offset="1" stop-color="#fff"/>
    </linearGradient>
    <linearGradient id="linear-gradient-3" x1="12.68768" y1="5.52566" x2="12.32899" y2="4.25392" xlink:href="#linear-gradient-2"/>
  </defs>
  <g id="Layer_9" data-name="Layer 9">
    <path class="cls-1" d="M19.98657,3.01477H10.57239l-.293.29291L2.86475,10.72229a2.97943,2.97943,0,0,0-.87818,2.12036v.34424a2.97918,2.97918,0,0,0,.87818,2.1203L8.694,21.13647a2.97925,2.97925,0,0,0,2.12036.8783h.34436a2.97865,2.97865,0,0,0,2.12036-.87836l7.41468-7.41455.29284-.29284V3.01477ZM16.18616,8.02515a.21015.21015,0,0,1-.35877.1485.21047.21047,0,0,1,.00012-.29712.21011.21011,0,0,1,.35865.14862Z"/>
    <path class="cls-2" d="M11.15865,21.01478h-.34426a1.99866,1.99866,0,0,1-1.41326-.58539L3.57191,14.60017a1.99864,1.99864,0,0,1-.58539-1.41326v-.34426a1.99866,1.99866,0,0,1,.58539-1.41326l7.41461-7.41461h9v9l-7.41461,7.41461A1.99864,1.99864,0,0,1,11.15865,21.01478Zm5.67307-13.8453a1.21007,1.21007,0,1,0,0,1.7113A1.21018,1.21018,0,0,0,16.83172,7.16948Z"/>
    <g class="cls-3">
      <path d="M11.1582,21.51465h-.34375a2.48121,2.48121,0,0,1-1.7666-.73194l-5.8291-5.8291a2.51256,2.51256,0,0,1-.73242-1.7666v-.34424a2.48077,2.48077,0,0,1,.73242-1.76709l7.56055-7.561h9.707v9.707l-7.56055,7.561A2.48179,2.48179,0,0,1,11.1582,21.51465Zm.03516-17L3.92578,11.78271a1.48966,1.48966,0,0,0-.43945,1.06006V13.187a1.50629,1.50629,0,0,0,.43945,1.05908l5.8291,5.82959a1.488,1.488,0,0,0,1.05957.439h.34375a1.49028,1.49028,0,0,0,1.06055-.439l7.26758-7.26806v-8.293Zm4.7832,5.21973a1.70923,1.70923,0,1,1,1.209-.5A1.70437,1.70437,0,0,1,15.97656,9.73438Zm-.001-2.41895a.70972.70972,0,1,0,.50293.20752A.70715.70715,0,0,0,15.97559,7.31543Z"/>
    </g>
    <path class="cls-4" d="M18.98657,5.01477v7.58582l-7.12182,7.12176a.99216.99216,0,0,1-.70606.29242h-.34436a.992.992,0,0,1-.706-.29248L4.27905,13.89313a.9924.9924,0,0,1-.29248-.70624v-.34424a.99216.99216,0,0,1,.29248-.70618l7.12171-7.1217h7.58581m-3.0105,5.22046A2.21012,2.21012,0,1,0,14.41333,9.588a2.195,2.195,0,0,0,1.56274.64728m4.0105-6.22046h-9L3.5719,11.42938a1.99884,1.99884,0,0,0-.58533,1.41327v.34424a1.99884,1.99884,0,0,0,.58533,1.41327l5.82922,5.82922a1.99872,1.99872,0,0,0,1.41321.58539h.34436a1.99851,1.99851,0,0,0,1.41321-.58539l7.41467-7.41461v-9Zm-4.0105,5.22046a1.21009,1.21009,0,1,1,.8556-.35443,1.20655,1.20655,0,0,1-.8556.35443Z"/>
    <g class="cls-5">
      <path class="cls-6" d="M10.98657,4.01477,3.5719,11.42938a1.99834,1.99834,0,0,0-.58533,1.41327v.34424a1.98506,1.98506,0,0,0,.03247.32788,1.993,1.993,0,0,1,.55286-1.08539l7.41467-7.41461h9v-1Z"/>
    </g>
    <path class="cls-7" d="M16.86869,8.85263a1.26234,1.26234,0,0,1-1.78524,0,1.213,1.213,0,0,1-.2584-.40364,1.13968,1.13968,0,0,0,.32466.90016,1.16865,1.16865,0,0,0,1.65273,0,1.13948,1.13948,0,0,0,.32466-.9001A1.21391,1.21391,0,0,1,16.86869,8.85263Z"/>
    <path class="cls-8" d="M3.63477,14.3587a3.82786,3.82786,0,0,1,.1579-3,1.85044,1.85044,0,0,0-.81579,1.31579A1.88082,1.88082,0,0,0,3.63477,14.3587Z"/>
    <polygon class="cls-9" points="5.946 9.011 10.987 4.015 19.987 4.015 11.098 4.609 5.946 9.011"/>
    <path class="cls-10" d="M11.01017,20.56656a4.2644,4.2644,0,0,1-1.56994-.28015,2.05507,2.05507,0,0,0,1.56994.62256,2.05564,2.05564,0,0,0,1.57019-.62262A4.26447,4.26447,0,0,1,11.01017,20.56656Z"/>
  </g>
  <g id="Layer_4" data-name="Layer 4">
    <path class="cls-11" d="M14.47949,15.439l1.47949-1.48-.0205-1.17627-2.40039-2.40185-1.18457-.03223-1.36817,1.36719-1.377-2.7085L8.35352,10.26074l.998,1.96289-.88183-.88232L7.292,11.32178,5.8125,12.80225,5.833,13.978l2.40234,2.40429,1.17774.01905,1.36718-1.36866,1.38477,2.7212,1.25293-1.2544-.99805-1.9624.88184.88232Zm-1.78418-3.01318.25-.25,1.18848,1.18848-.25.25ZM9.06738,14.32666l-.25.24951L7.6377,13.39648l.25-.25Z"/>
    <path class="cls-12" d="M9.47427,9.84763l-.5104.5104,3.3335,6.5552.5103-.5104Zm.9022,4.108-2.1178-2.1178-.7621-.0125-1.1802,1.1803.0124.7621,2.1179,2.1178.7621.0125,1.1803-1.1803Zm-.6924.2805-.0051.1863-.7735.7736-.1784-.003-1.7058-1.7057-.0029-.1784.7735-.7736.1864-.005Zm5.0663-.9626-.0051.1864-.7735.7735-.1784-.0029-1.7058-1.7058-.0111-.1866.7735-.7735.1946.0031Zm.6925-.2804-2.1179-2.1178-.7703-.0208-1.1803,1.1803.0208.7704L13.513,14.923l.7621.0125,1.1803-1.1803Z"/>
  </g>
</svg>
