<svg xmlns="http://www.w3.org/2000/svg" xmlns:xlink="http://www.w3.org/1999/xlink" width="24" height="24" viewBox="0 0 24 24">
  <defs>
    <style>
      .cls-1 {
        opacity: 0.51;
      }

      .cls-2 {
        opacity: 0.06;
      }

      .cls-3 {
        opacity: 0.21;
      }

      .cls-4 {
        fill: #4a230d;
        opacity: 0.71;
      }

      .cls-5 {
        fill: url(#linear-gradient);
      }

      .cls-6 {
        fill: url(#linear-gradient-2);
      }

      .cls-51, .cls-7 {
        fill-rule: evenodd;
      }

      .cls-7 {
        fill: url(#linear-gradient-3);
      }

      .cls-8 {
        fill: url(#linear-gradient-4);
      }

      .cls-9 {
        fill: url(#linear-gradient-5);
      }

      .cls-10 {
        fill: url(#linear-gradient-6);
      }

      .cls-11 {
        fill: url(#linear-gradient-7);
      }

      .cls-12 {
        fill: url(#linear-gradient-8);
      }

      .cls-13 {
        fill: url(#linear-gradient-9);
      }

      .cls-14 {
        fill: url(#linear-gradient-10);
      }

      .cls-15 {
        fill: url(#linear-gradient-11);
      }

      .cls-16 {
        fill: url(#linear-gradient-12);
      }

      .cls-17 {
        fill: url(#linear-gradient-13);
      }

      .cls-18 {
        fill: url(#linear-gradient-14);
      }

      .cls-19 {
        fill: url(#linear-gradient-15);
      }

      .cls-20 {
        fill: url(#linear-gradient-16);
      }

      .cls-21 {
        fill: url(#linear-gradient-17);
      }

      .cls-22 {
        fill: url(#linear-gradient-18);
      }

      .cls-23 {
        fill: url(#linear-gradient-19);
      }

      .cls-24 {
        fill: url(#linear-gradient-20);
      }

      .cls-25 {
        fill: url(#linear-gradient-21);
      }

      .cls-26 {
        fill: url(#linear-gradient-22);
      }

      .cls-27 {
        fill: url(#linear-gradient-23);
      }

      .cls-28 {
        fill: url(#linear-gradient-24);
      }

      .cls-29 {
        opacity: 0.08;
      }

      .cls-30 {
        fill: #ff8752;
      }

      .cls-31 {
        fill: url(#linear-gradient-25);
      }

      .cls-32 {
        fill: url(#linear-gradient-26);
      }

      .cls-33 {
        fill: url(#linear-gradient-27);
      }

      .cls-34 {
        fill: url(#linear-gradient-28);
      }

      .cls-35 {
        fill: url(#linear-gradient-29);
      }

      .cls-36 {
        fill: url(#linear-gradient-30);
      }

      .cls-37 {
        fill: url(#linear-gradient-31);
      }

      .cls-38 {
        fill: url(#linear-gradient-32);
      }

      .cls-39 {
        fill: url(#linear-gradient-33);
      }

      .cls-40 {
        fill: url(#linear-gradient-34);
      }

      .cls-41 {
        fill: url(#linear-gradient-35);
      }

      .cls-42 {
        fill: url(#linear-gradient-36);
      }

      .cls-43 {
        fill: url(#linear-gradient-37);
      }

      .cls-44 {
        fill: url(#linear-gradient-38);
      }

      .cls-45 {
        fill: url(#linear-gradient-39);
      }

      .cls-46 {
        fill: url(#linear-gradient-40);
      }

      .cls-47 {
        fill: url(#linear-gradient-41);
      }

      .cls-48 {
        fill: url(#linear-gradient-42);
      }

      .cls-49 {
        fill: url(#linear-gradient-43);
      }

      .cls-50 {
        fill: url(#linear-gradient-44);
      }

      .cls-51 {
        fill: url(#linear-gradient-45);
      }
    </style>
    <linearGradient id="linear-gradient" x1="12" y1="15.45652" x2="12" y2="4.48254" gradientUnits="userSpaceOnUse">
      <stop offset="0" stop-color="#bd663a"/>
      <stop offset="0.49512" stop-color="#dfa54f"/>
      <stop offset="1" stop-color="#faf698"/>
    </linearGradient>
    <linearGradient id="linear-gradient-2" x1="12" y1="15.45652" x2="12" y2="4.48254" gradientUnits="userSpaceOnUse">
      <stop offset="0" stop-color="#bd663a"/>
      <stop offset="0.27561" stop-color="#dfa54f"/>
      <stop offset="0.51863" stop-color="#eac56c"/>
      <stop offset="0.83204" stop-color="#f5e88c"/>
      <stop offset="1" stop-color="#faf698"/>
    </linearGradient>
    <linearGradient id="linear-gradient-3" x1="12" y1="15.24457" x2="12" y2="6.0994" gradientUnits="userSpaceOnUse">
      <stop offset="0" stop-color="#e0a560"/>
      <stop offset="0.5" stop-color="#f6e399"/>
      <stop offset="1" stop-color="#fffdd0"/>
    </linearGradient>
    <linearGradient id="linear-gradient-4" x1="12" y1="12.84783" x2="12" y2="7.46539" gradientUnits="userSpaceOnUse">
      <stop offset="0" stop-color="#f0b856"/>
      <stop offset="0.5" stop-color="#ffffa0"/>
      <stop offset="1" stop-color="#fff"/>
    </linearGradient>
    <linearGradient id="linear-gradient-5" x1="13.1385" y1="17.80435" x2="13.1385" y2="4.03359" gradientUnits="userSpaceOnUse">
      <stop offset="0" stop-color="#5b2f25"/>
      <stop offset="0.49512" stop-color="#984f38"/>
      <stop offset="1" stop-color="#d37a55"/>
    </linearGradient>
    <linearGradient id="linear-gradient-6" x1="14.92245" y1="17.80435" x2="14.92245" y2="4.03359" xlink:href="#linear-gradient-5"/>
    <linearGradient id="linear-gradient-7" x1="16.47688" y1="17.80435" x2="16.47688" y2="4.03359" xlink:href="#linear-gradient-5"/>
    <linearGradient id="linear-gradient-8" x1="17.72461" y1="17.80435" x2="17.72461" y2="4.03359" xlink:href="#linear-gradient-5"/>
    <linearGradient id="linear-gradient-9" x1="18.64704" y1="17.80435" x2="18.64704" y2="4.03359" xlink:href="#linear-gradient-5"/>
    <linearGradient id="linear-gradient-10" x1="19.13564" y1="17.80435" x2="19.13564" y2="4.03359" xlink:href="#linear-gradient-5"/>
    <linearGradient id="linear-gradient-11" x1="18.80455" y1="17.80435" x2="18.80455" y2="4.03359" xlink:href="#linear-gradient-5"/>
    <linearGradient id="linear-gradient-12" x1="18.03988" y1="17.80435" x2="18.03988" y2="4.03359" xlink:href="#linear-gradient-5"/>
    <linearGradient id="linear-gradient-13" x1="19.12888" y1="17.80435" x2="19.12888" y2="4.03359" xlink:href="#linear-gradient-5"/>
    <linearGradient id="linear-gradient-14" x1="16.67065" y1="17.80435" x2="16.67065" y2="4.03359" xlink:href="#linear-gradient-5"/>
    <linearGradient id="linear-gradient-15" x1="10.86145" y1="17.80435" x2="10.86145" y2="4.03359" xlink:href="#linear-gradient-5"/>
    <linearGradient id="linear-gradient-16" x1="9.07755" y1="17.80435" x2="9.07755" y2="4.03359" xlink:href="#linear-gradient-5"/>
    <linearGradient id="linear-gradient-17" x1="7.52312" y1="17.80435" x2="7.52312" y2="4.03359" xlink:href="#linear-gradient-5"/>
    <linearGradient id="linear-gradient-18" x1="6.27533" y1="17.80435" x2="6.27533" y2="4.03359" xlink:href="#linear-gradient-5"/>
    <linearGradient id="linear-gradient-19" x1="5.35295" y1="17.80435" x2="5.35295" y2="4.03359" xlink:href="#linear-gradient-5"/>
    <linearGradient id="linear-gradient-20" x1="4.86436" y1="17.80435" x2="4.86436" y2="4.03359" xlink:href="#linear-gradient-5"/>
    <linearGradient id="linear-gradient-21" x1="4.87108" y1="17.80435" x2="4.87108" y2="4.03359" xlink:href="#linear-gradient-5"/>
    <linearGradient id="linear-gradient-22" x1="5.21672" y1="17.80435" x2="5.21672" y2="4.03359" xlink:href="#linear-gradient-5"/>
    <linearGradient id="linear-gradient-23" x1="6.03055" y1="17.80435" x2="6.03055" y2="4.03359" xlink:href="#linear-gradient-5"/>
    <linearGradient id="linear-gradient-24" x1="7.40275" y1="17.80435" x2="7.40275" y2="4.03359" xlink:href="#linear-gradient-5"/>
    <linearGradient id="linear-gradient-25" x1="13.13849" y1="18.77686" x2="13.13849" y2="17.29889" xlink:href="#linear-gradient-5"/>
    <linearGradient id="linear-gradient-26" x1="14.92244" y1="18.43591" x2="14.92244" y2="16.7085" xlink:href="#linear-gradient-5"/>
    <linearGradient id="linear-gradient-27" x1="16.47683" y1="17.65454" x2="16.47683" y2="15.73108" xlink:href="#linear-gradient-5"/>
    <linearGradient id="linear-gradient-28" x1="17.7246" y1="16.52155" x2="17.7246" y2="14.45728" xlink:href="#linear-gradient-5"/>
    <linearGradient id="linear-gradient-29" x1="18.64701" y1="14.97626" x2="18.64701" y2="12.91089" xlink:href="#linear-gradient-5"/>
    <linearGradient id="linear-gradient-30" x1="19.13566" y1="11.09308" x2="19.13566" y2="9.44385" xlink:href="#linear-gradient-5"/>
    <linearGradient id="linear-gradient-31" x1="18.80456" y1="9.12048" x2="18.80456" y2="7.84186" xlink:href="#linear-gradient-5"/>
    <linearGradient id="linear-gradient-32" x1="18.03986" y1="7.46057" x2="18.03986" y2="6.25464" xlink:href="#linear-gradient-5"/>
    <linearGradient id="linear-gradient-33" x1="19.1289" y1="13.06354" x2="19.1289" y2="11.14026" xlink:href="#linear-gradient-5"/>
    <linearGradient id="linear-gradient-34" x1="16.67065" y1="6.03833" x2="16.67065" y2="4.79169" xlink:href="#linear-gradient-5"/>
    <linearGradient id="linear-gradient-35" x1="10.86145" y1="18.77686" x2="10.86145" y2="17.29889" xlink:href="#linear-gradient-5"/>
    <linearGradient id="linear-gradient-36" x1="9.07756" y1="18.43591" x2="9.07756" y2="16.7085" xlink:href="#linear-gradient-5"/>
    <linearGradient id="linear-gradient-37" x1="7.52317" y1="17.65454" x2="7.52317" y2="15.73108" xlink:href="#linear-gradient-5"/>
    <linearGradient id="linear-gradient-38" x1="6.27532" y1="16.52155" x2="6.27532" y2="14.45728" xlink:href="#linear-gradient-5"/>
    <linearGradient id="linear-gradient-39" x1="5.35298" y1="14.97626" x2="5.35298" y2="12.91089" xlink:href="#linear-gradient-5"/>
    <linearGradient id="linear-gradient-40" x1="4.86434" y1="11.09308" x2="4.86434" y2="9.44385" xlink:href="#linear-gradient-5"/>
    <linearGradient id="linear-gradient-41" x1="4.87105" y1="13.06354" x2="4.87105" y2="11.14026" xlink:href="#linear-gradient-5"/>
    <linearGradient id="linear-gradient-42" x1="5.21671" y1="9.12469" x2="5.21671" y2="7.82941" xlink:href="#linear-gradient-5"/>
    <linearGradient id="linear-gradient-43" x1="6.03059" y1="7.43512" x2="6.03059" y2="6.15125" xlink:href="#linear-gradient-5"/>
    <linearGradient id="linear-gradient-44" x1="7.40277" y1="6.00824" x2="7.40277" y2="4.67859" xlink:href="#linear-gradient-5"/>
    <linearGradient id="linear-gradient-45" x1="12" y1="15.34239" x2="12" y2="7.16981" gradientUnits="userSpaceOnUse">
      <stop offset="0" stop-color="#b96232"/>
      <stop offset="0.5" stop-color="#e69f61"/>
      <stop offset="1" stop-color="#f7d586"/>
    </linearGradient>
  </defs>
  <g id="Layer_3" data-name="Layer 3">
    <circle class="cls-1" cx="12" cy="11.02197" r="6"/>
    <path class="cls-2" d="M22.99121,12.145a2.33188,2.33188,0,0,0-.332-1.34229,2.14876,2.14876,0,0,0,.24121-1.44238A2.20634,2.20634,0,0,0,22.21582,8.084a2.12505,2.12505,0,0,0-.16309-1.34082,2.21193,2.21193,0,0,0-1.02929-1.06494,2.11078,2.11078,0,0,0-.40528-1.01367,2.2386,2.2386,0,0,0-1.38964-.88623,2.09258,2.09258,0,0,0-.75879-.93994,2.23793,2.23793,0,0,0-1.63379-.37891.90329.90329,0,0,0-.26856-.16015,1.923,1.923,0,0,0-1.55371.03759,1.88979,1.88979,0,0,0-.92578,1.21827,3.50355,3.50355,0,0,0-.083,1.4956,1.00088,1.00088,0,0,0,.4668.70068.96728.96728,0,0,0,.33887.1294,1.62806,1.62806,0,0,0,1.30566,1.125,1.86989,1.86989,0,0,0,.39746.8501,1.58784,1.58784,0,0,0,.43262.33155,1.88732,1.88732,0,0,0,.167.83886,1.55459,1.55459,0,0,0,.373.46728,1.92487,1.92487,0,0,0-.06055.84912,1.75444,1.75444,0,0,0,.25391.60645,1.50365,1.50365,0,0,0-.23535.75,1.79939,1.79939,0,0,0,.0957.687,1.63264,1.63264,0,0,0-.459.65723,1.56476,1.56476,0,0,0-.0996.65966,1.98822,1.98822,0,0,0-.55274.47657,1.50837,1.50837,0,0,0-.292.647,1.37662,1.37662,0,0,0-.583.291,1.45,1.45,0,0,0-.44726.59228,1.54726,1.54726,0,0,0-.73926.18359,1.90937,1.90937,0,0,0-.56153.46485,1.56527,1.56527,0,0,0-.666-.04151,1.52448,1.52448,0,0,0-.76074.334,1.99111,1.99111,0,0,0-.37793.356,1.55744,1.55744,0,0,0-.31446-.3042,1.61628,1.61628,0,0,0-.80566-.38282,1.67945,1.67945,0,0,0-.68652.03956,1.913,1.913,0,0,0-.584-.478,1.48769,1.48769,0,0,0-.68847-.1709,1.24947,1.24947,0,0,0-.41211-.53662,1.55253,1.55253,0,0,0-.6543-.36817,1.67441,1.67441,0,0,0-.30957-.65918,1.97793,1.97793,0,0,0-.52735-.44336,1.53835,1.53835,0,0,0-.08984-.63378,1.60194,1.60194,0,0,0-.44336-.6587l-.02441-.02294a1.68984,1.68984,0,0,0,.0957-.65625,1.55941,1.55941,0,0,0-.24023-.78516,1.935,1.935,0,0,0,.27148-.68164,1.66223,1.66223,0,0,0-.08008-.751,1.78244,1.78244,0,0,0,.38574-.50732A1.82374,1.82374,0,0,0,7.04,8.20557,1.92766,1.92766,0,0,0,7.5459,7.7959,1.849,1.849,0,0,0,7.90527,6.98a1.83635,1.83635,0,0,0,.86719-.42139,1.67658,1.67658,0,0,0,.376-.56347,1.00228,1.00228,0,0,0,.77148-.79395A3.86307,3.86307,0,0,0,9.9248,3.71826,1.96688,1.96688,0,0,0,9.0498,2.354a1.75785,1.75785,0,0,0-1.52343-.08545q-.0249.00953-.04981.02051a2.04309,2.04309,0,0,0-1.67285.29737,2.19663,2.19663,0,0,0-.79883.97363,2.13289,2.13289,0,0,0-1.34179.84131,2.32843,2.32843,0,0,0-.44532,1.07275,2.18675,2.18675,0,0,0-1.0166,1.02734,2.38069,2.38069,0,0,0-.22754,1.41846,2.19435,2.19435,0,0,0-.86621,1.395,2.22934,2.22934,0,0,0,.23535,1.48584,2.34523,2.34523,0,0,0-.332,1.35889,2.20837,2.20837,0,0,0,.58985,1.3501,2.508,2.508,0,0,0-.10938.542,2.27625,2.27625,0,0,0,.14258.93164,2.22942,2.22942,0,0,0,.53906.83838A2.25762,2.25762,0,0,0,2.542,16.103a2.3818,2.3818,0,0,0,.03516.51416,2.03084,2.03084,0,0,0,.38769.9082,2.2572,2.2572,0,0,0,1.15528.82715,2.4597,2.4597,0,0,0,.78711,1.271,2.272,2.272,0,0,0,1.32031.48486,2.25287,2.25287,0,0,0,1.01269.97021,2.02457,2.02457,0,0,0,.93946.22168l.084-.00146a2.32547,2.32547,0,0,0,.46387-.063,2.54451,2.54451,0,0,0,.38281.334,2.20127,2.20127,0,0,0,.90332.34717,2.15161,2.15161,0,0,0,1.80762-.52A2.4607,2.4607,0,0,0,12,21.2251a2.0772,2.0772,0,0,0,.18066.17334,2.45554,2.45554,0,0,0,.86133.47168,2.27889,2.27889,0,0,0,.58106.07422,2.55558,2.55558,0,0,0,.38281-.02979,2.1808,2.1808,0,0,0,.88965-.34912,2.29319,2.29319,0,0,0,.375-.331,2.24974,2.24974,0,0,0,.46484.06445l.08789.00146a1.98356,1.98356,0,0,0,.92285-.21435,2.27712,2.27712,0,0,0,1.02735-.98145,2.49014,2.49014,0,0,0,1.38281-.53418,2.31991,2.31991,0,0,0,.71582-1.21777,2.23723,2.23723,0,0,0,1.14844-.80908,2.022,2.022,0,0,0,.40137-.917,2.30646,2.30646,0,0,0,.03417-.52294,2.43749,2.43749,0,0,0,.38379-.29346,2.25187,2.25187,0,0,0,.53321-.84424,2.29313,2.29313,0,0,0,.13379-.95215,2.36369,2.36369,0,0,0-.1084-.50244,2.24119,2.24119,0,0,0,.59179-1.36621Z"/>
    <path class="cls-3" d="M22.74121,12.13281a2.08194,2.08194,0,0,0-.37695-1.32226A1.95179,1.95179,0,0,0,22.65332,9.397a1.98991,1.98991,0,0,0-.71289-1.22314,1.93706,1.93706,0,0,0-.11621-1.32959,1.98,1.98,0,0,0-1.03613-1.00049,1.89039,1.89039,0,0,0-.374-1.03516,2.00542,2.00542,0,0,0-1.36718-.8081,1.87844,1.87844,0,0,0-.72461-.96,2.00846,2.00846,0,0,0-1.56934-.314l-.00293.001a.65434.65434,0,0,0-.27246-.19483,1.66877,1.66877,0,0,0-1.3457.02491,1.65444,1.65444,0,0,0-.80469,1.06884,3.26183,3.26183,0,0,0-.0752,1.38575.75056.75056,0,0,0,.75.63623,1.55654,1.55654,0,0,0,.45215.78222,1.54932,1.54932,0,0,0,.88574.35254,1.60044,1.60044,0,0,0,.3584.90431,1.40934,1.40934,0,0,0,.51172.34813,1.60731,1.60731,0,0,0,.126.87647,1.4047,1.4047,0,0,0,.44726.49756,1.634,1.634,0,0,0-.11328.88086,1.52628,1.52628,0,0,0,.31641.65332,1.33057,1.33057,0,0,0-.292.76953,1.53647,1.53647,0,0,0,.1455.74707.97441.97441,0,0,0-.124.104,1.39548,1.39548,0,0,0-.40137.56885,1.41162,1.41162,0,0,0-.06836.71289l.001.0127a.85791.85791,0,0,0-.12988.05468,1.71742,1.71742,0,0,0-.49121.41944,1.33328,1.33328,0,0,0-.26856.70312,1.25545,1.25545,0,0,0-.65137.27979,1.31468,1.31468,0,0,0-.43164.65332,1.32877,1.32877,0,0,0-.78613.14306,1.66036,1.66036,0,0,0-.50683.42627.69892.69892,0,0,0-.07032.1128c-.02246-.0083-.04394-.01514-.0664-.022a1.451,1.451,0,0,0-.668-.06543,1.30346,1.30346,0,0,0-.65235.29,1.88771,1.88771,0,0,0-.46972.49952c-.01856.02783-.03614.05712-.05469.0874-.01855-.03125-.03711-.061-.05566-.08985a1.76279,1.76279,0,0,0-.41993-.45849,1.37819,1.37819,0,0,0-.68359-.32617,1.50559,1.50559,0,0,0-.68359.0625c-.02246.00683-.0459.01416-.06934.02246a.82675.82675,0,0,0-.07617-.12061,1.66607,1.66607,0,0,0-.5166-.42773,1.293,1.293,0,0,0-.74121-.13526,1.17718,1.17718,0,0,0-.416-.6123,1.3385,1.3385,0,0,0-.69922-.34375,1.42575,1.42575,0,0,0-.2832-.70313,1.71478,1.71478,0,0,0-.48535-.40234.75183.75183,0,0,0-.11719-.04834,1.43746,1.43746,0,0,0-.06055-.70605,1.35122,1.35122,0,0,0-.38183-.5625,1.03091,1.03091,0,0,0-.15235-.1211,1.49345,1.49345,0,0,0,.14844-.73047,1.37072,1.37072,0,0,0-.29492-.7959,1.62344,1.62344,0,0,0,.32812-.709A1.48947,1.48947,0,0,0,6.21,9.43506,1.50213,1.50213,0,0,0,6.665,8.90527,1.6449,1.6449,0,0,0,6.7793,8.0542a1.58159,1.58159,0,0,0,.57031-.41309,1.66544,1.66544,0,0,0,.335-.88623,1.53387,1.53387,0,0,0,.91406-.376,1.5147,1.5147,0,0,0,.36914-.61133.75252.75252,0,0,0,.32129-.08789.74251.74251,0,0,0,.38477-.52442,3.62178,3.62178,0,0,0,.00488-1.39111,1.71239,1.71239,0,0,0-.752-1.19238,1.51431,1.51431,0,0,0-1.3125-.06934.5099.5099,0,0,0-.10547.0542l-.01953-.00586a1.822,1.822,0,0,0-1.54883.24463,2.012,2.012,0,0,0-.75781.98975,1.90349,1.90349,0,0,0-1.32129.76806,2.09274,2.09274,0,0,0-.41211,1.08985,1.94711,1.94711,0,0,0-1.02539.97265A2.17316,2.17316,0,0,0,2.24609,8.0332l-.03027.02a1.98534,1.98534,0,0,0-.86328,1.31006,2.00593,2.00593,0,0,0,.28418,1.44629A2.08971,2.08971,0,0,0,1.25977,12.144a1.99779,1.99779,0,0,0,.6289,1.30323,2.24218,2.24218,0,0,0-.14844.62109,2.03377,2.03377,0,0,0,.127.82666,1.98375,1.98375,0,0,0,.47656.74463,2.09026,2.09026,0,0,0,.459.32422,2.13323,2.13323,0,0,0,.02051.61084,1.793,1.793,0,0,0,.3418.80078A1.99837,1.99837,0,0,0,4.335,18.1499a2.14831,2.14831,0,0,0,.72363,1.27442,1.99942,1.99942,0,0,0,1.32618.43115,1.97769,1.97769,0,0,0,.96972,1.001,1.76976,1.76976,0,0,0,.82031.19384l.08008-.00146a2.069,2.069,0,0,0,.5586-.09619,2.16309,2.16309,0,0,0,.43945.41162,1.9475,1.9475,0,0,0,.79883.30566,2.086,2.086,0,0,0,.88965-.05517A2.10556,2.10556,0,0,0,12,20.83008a2.04218,2.04218,0,0,0,.34375.37842,2.1675,2.1675,0,0,0,.76172.41992,2.03288,2.03288,0,0,0,.51758.06592,2.23617,2.23617,0,0,0,.33984-.02637,1.9278,1.9278,0,0,0,.78809-.30664,2.054,2.054,0,0,0,.43261-.41113,2.02263,2.02263,0,0,0,.55567.09863l.084.00146a1.74383,1.74383,0,0,0,.81153-.18847,1.99165,1.99165,0,0,0,.97949-1.00537,2.17383,2.17383,0,0,0,1.375-.47217,2.07537,2.07537,0,0,0,.668-1.23438,1.97331,1.97331,0,0,0,1.167-.76074,1.78441,1.78441,0,0,0,.35156-.80713,2.02736,2.02736,0,0,0,.01758-.61621,2.14278,2.14278,0,0,0,.47266-.33545,1.9974,1.9974,0,0,0,.47168-.749,2.03659,2.03659,0,0,0,.12011-.84229,2.09619,2.09619,0,0,0-.14843-.58886,2.01039,2.01039,0,0,0,.63183-1.314ZM5.276,4.03217,5.27527,4.0321l.00012-.0028Z"/>
    <path class="cls-4" d="M22.49121,12.12061a1.80313,1.80313,0,0,0-.439-1.29993,1.76051,1.76051,0,0,0-.39942-2.55243,1.73677,1.73677,0,0,0-.05713-1.32294,1.75682,1.75682,0,0,0-1.04882-.93017l-.00355-.00049a1.69241,1.69241,0,0,0-.33337-1.062,1.758,1.758,0,0,0-1.207-.70606.48087.48087,0,0,0-.13916.0083,1.703,1.703,0,0,0-.688-1.0122,1.7507,1.7507,0,0,0-1.373-.271.49173.49173,0,0,0-.15332.06451.48176.48176,0,0,0-.26074-.27008A1.42591,1.42591,0,0,0,15.25,2.77783a1.40824,1.40824,0,0,0-.68359.91992A3.00208,3.00208,0,0,0,14.499,4.97412a.4998.4998,0,0,0,.49414.42432.51087.51087,0,0,0,.16114-.02637l.0476-.016a1.37814,1.37814,0,0,0,.384.85834.31988.31988,0,0,0,.02734.02392,1.34068,1.34068,0,0,0,.87793.30078c.03125,0,.06384-.00445.09558-.0061a1.39962,1.39962,0,0,0,.297.98657,1.29167,1.29167,0,0,0,.61279.35224,1.38843,1.38843,0,0,0,.061.92559,1.31829,1.31829,0,0,0,.54931.52307,1.39825,1.39825,0,0,0-.19189.91883,1.31663,1.31663,0,0,0,.40527.69678,1.19661,1.19661,0,0,0-.376.792,1.323,1.323,0,0,0,.22778.816,1.42344,1.42344,0,0,0-.28931.20648,1.15684,1.15684,0,0,0-.335.47217,1.20308,1.20308,0,0,0-.05371.59619,1.41087,1.41087,0,0,0,.04761.21911,1.652,1.652,0,0,0-.30347.09436,1.44543,1.44543,0,0,0-.415.35352,1.20985,1.20985,0,0,0-.22571.77551,1.18643,1.18643,0,0,0-.73913.2533,1.22676,1.22676,0,0,0-.40259.73767,1.19773,1.19773,0,0,0-.84643.07825,1.40364,1.40364,0,0,0-.42969.36035,1.75924,1.75924,0,0,0-.14453.29065,1.39862,1.39862,0,0,0-.2627-.11292,1.2373,1.2373,0,0,0-.55859-.05761,1.08551,1.08551,0,0,0-.544.24609,1.63711,1.63711,0,0,0-.40625.43408,2.756,2.756,0,0,0-.26367.528,2.77872,2.77872,0,0,0-.26367-.52942,1.57457,1.57457,0,0,0-.374-.40723,1.12958,1.12958,0,0,0-.56347-.26953,1.24352,1.24352,0,0,0-.56934.05517,1.40372,1.40372,0,0,0-.26477.11359,1.69974,1.69974,0,0,0-.14929-.2962,1.40282,1.40282,0,0,0-.43555-.36084,1.17845,1.17845,0,0,0-.80822-.07685,1.11544,1.11544,0,0,0-.40564-.71075,1.15779,1.15779,0,0,0-.76343-.30127,1.23173,1.23173,0,0,0-.23853-.76611,1.43535,1.43535,0,0,0-.41015-.3418,1.66945,1.66945,0,0,0-.29493-.0907,1.34608,1.34608,0,0,0,.04493-.20422,1.21357,1.21357,0,0,0-.04688-.59815,1.13526,1.13526,0,0,0-.32226-.46777,1.59365,1.59365,0,0,0-.31543-.20892,1.30827,1.30827,0,0,0,.2373-.81452,1.211,1.211,0,0,0-.37817-.80847,1.36159,1.36159,0,0,0,.41333-.73352,1.37311,1.37311,0,0,0-.20447-.85358,1.35549,1.35549,0,0,0,.54919-.54388,1.51891,1.51891,0,0,0,.0647-.91956,1.307,1.307,0,0,0,.6521-.39782,1.53559,1.53559,0,0,0,.29175-.99207c.045.00385.09375.01306.136.01306a1.27044,1.27044,0,0,0,.84375-.30908,1.42817,1.42817,0,0,0,.364-.711.48818.48818,0,0,0,.63891-.37835,3.38017,3.38017,0,0,0,.00489-1.29932,1.46587,1.46587,0,0,0-.62891-1.02051,1.27473,1.27473,0,0,0-1.10254-.05273.48433.48433,0,0,0-.15637.11651.48639.48639,0,0,0-.12292-.06183,1.56685,1.56685,0,0,0-1.34473.21289,1.81425,1.81425,0,0,0-.7157,1.03717A.56638.56638,0,0,0,5.25,4.0293a1.65177,1.65177,0,0,0-1.19043.67627A1.89737,1.89737,0,0,0,3.689,5.82166l-.00537.00061a1.73528,1.73528,0,0,0-1.03711.90722,1.98228,1.98228,0,0,0-.10766,1.45124.5045.5045,0,0,0-.18042.07806,1.76205,1.76205,0,0,0-.41016,2.56134,1.80975,1.80975,0,0,0-.43945,1.30829A1.77308,1.77308,0,0,0,2.196,13.38458c-.003.00556-.00866.00916-.01147.01483a1.93866,1.93866,0,0,0-.19531.68457,1.79334,1.79334,0,0,0,.11133.72217,1.73384,1.73384,0,0,0,.41406.65088,1.88933,1.88933,0,0,0,.56958.36286c-.00244.00964-.00916.0169-.011.02679a1.87956,1.87956,0,0,0-.0039.68506,1.54,1.54,0,0,0,.29589.69385,1.72586,1.72586,0,0,0,1.203.7091c.00012.01123-.00476.02124-.00379.0326A1.86863,1.86863,0,0,0,5.21,19.2251a1.82544,1.82544,0,0,0,1.1084.38232,1.80184,1.80184,0,0,0,.23547-.0199,1.71514,1.71514,0,0,0,.9159,1.04676,1.5188,1.5188,0,0,0,.70507.166c.02344,0,.04786-.00049.07227-.00146a1.82318,1.82318,0,0,0,.65845-.14734l.00464.01111a1.8978,1.8978,0,0,0,.48535.49609,1.686,1.686,0,0,0,.69433.26416,1.82005,1.82005,0,0,0,.27735.02149,1.92253,1.92253,0,0,0,.49511-.0669,1.88683,1.88683,0,0,0,.63282-.35937A2.00727,2.00727,0,0,0,12,20.33014a2.00919,2.00919,0,0,0,.50586.68841,1.90456,1.90456,0,0,0,.66309.36817,1.78685,1.78685,0,0,0,.4541.05762,1.93753,1.93753,0,0,0,.29687-.023,1.67421,1.67421,0,0,0,.68653-.26416,1.893,1.893,0,0,0,.48339-.49463l.005-.012a1.8325,1.8325,0,0,0,.65417.1482c.02539.001.04981.00146.07422.00146a1.50969,1.50969,0,0,0,.7002-.16211,1.72343,1.72343,0,0,0,.92236-1.04968,1.73506,1.73506,0,0,0,.23389.01941,1.87113,1.87113,0,0,0,1.14258-.40967,1.84848,1.84848,0,0,0,.61328-1.23095c.001-.01172-.004-.0221-.00391-.0337a1.72268,1.72268,0,0,0,1.19629-.69873,1.54722,1.54722,0,0,0,.30176-.69726,1.88941,1.88941,0,0,0-.00293-.69092c-.00183-.00989-.00855-.01709-.011-.02673a1.90191,1.90191,0,0,0,.57642-.36927,1.73578,1.73578,0,0,0,.41015-.6538,1.78122,1.78122,0,0,0,.10645-.73243,1.91116,1.91116,0,0,0-.19336-.665c-.00269-.00549-.00818-.009-.01111-.01434A1.7753,1.7753,0,0,0,22.49121,12.12061Zm-6.65527,6.21093a.4997.4997,0,0,0,.0896-.2.38826.38826,0,0,0,.32837-.03113.49555.49555,0,0,0-.2168.33118.48757.48757,0,0,0,.00293.05646l-.03516-.01837a.49171.49171,0,0,0-.27783-.0539A.46227.46227,0,0,0,15.83594,18.33154Zm1.71728-1.31042.01905.00036a.49027.49027,0,0,0,.25317-.0794.49549.49549,0,0,0-.05.26007c.0022.01806.01318.033.01709.0506l-.04346-.0091a.49847.49847,0,0,0-.333.05805A.48913.48913,0,0,0,17.55322,17.02112Zm.04932-1.9093.0166-.01856c.0166.03516.0332.0708.04981.10742.04394.09815.09082.20069.125.28565l-.126.16992a1.33075,1.33075,0,0,1-.05371-.189.79851.79851,0,0,1-.01074-.356Zm3.56738-2.4961a.7519.7519,0,0,1-.13379.08008c.02637-.16309.04785-.32617.06153-.47119.10156-.07031.22949-.1621.35839-.25977l.03516-.02685a1.07792,1.07792,0,0,1,.002.126A.795.795,0,0,1,21.16992,12.61572Zm-1.0647-3.09338a.49147.49147,0,0,0-.0935-.07672.4727.4727,0,0,0,.06811-.06806.49634.49634,0,0,0,.07642.05481A.49579.49579,0,0,0,20.10522,9.52234Zm-.96264.7926a.54222.54222,0,0,1-.24219-.24121l-.002-.01758c.04.01367.081.02832.123.04346.10059.03467.19922.07373.28223.1084.00879.05566.01563.123.02441.209A1.68929,1.68929,0,0,1,19.14258,10.31494ZM19.29,12.06543c-.00879.06055-.01856.12842-.03027.19922a2.11078,2.11078,0,0,1-.15528-.14844.466.466,0,0,1-.16211-.30615c.03028.021.06055.043.0918.06494C19.124,11.939,19.21387,12.00684,19.29,12.06543Zm.51367,1.70026a.50139.50139,0,0,0-.07812-.20221l-.0149-.0213a.488.488,0,0,0,.22132-.10767.49212.49212,0,0,0,.11487.19183l-.04.01282A.49519.49519,0,0,0,19.80371,13.76569Zm.54785-2.24274a.48067.48067,0,0,0-.09424.1087.48821.48821,0,0,0-.09912-.13629.2456.2456,0,0,0,.12879-.141.4967.4967,0,0,0,.09289.11444c.01.00781.02417.005.03443.012Zm.90723-1.30713a.92794.92794,0,0,1-.11231.11572l-.002-.01709c-.0166-.168-.03418-.334-.05566-.44775.082-.09668.18359-.2207.27734-.34815l.02539-.03417a.7043.7043,0,0,1,.03028.11962A.77011.77011,0,0,1,21.25879,10.21582ZM17.76465,6.8335c.10449-.02051.21-.03809.29883-.0503.04.0503.084.10742.12988.16895a1.5144,1.5144,0,0,1-.21875.00683c-.25391-.00439-.32617-.085-.3291-.08593l-.00977-.01319Q17.69873,6.84667,17.76465,6.8335Zm.82129,1.53271c.10644.00733.21191.01807.2998.0293.02539.05908.05371.12549.082.19726a1.45749,1.45749,0,0,1-.19726-.04785l-.01465-.00439c-.24024-.07032-.293-.169-.29395-.169l-.00586-.01465C18.49805,8.35938,18.542,8.3623,18.58594,8.36621Zm-.02344,5.31006c.06934.08447.13574.17236.19238.248l-.0791.18994a1.69868,1.69868,0,0,1-.11035-.18262.68208.68208,0,0,1-.0791-.23633.34636.34636,0,0,1-.00391-.1123C18.50879,13.61328,18.53613,13.645,18.5625,13.67627Zm.25391,2.051a.48234.48234,0,0,0,.01953-.25311c.01391-.00073.02783-.00085.042-.00293a.49075.49075,0,0,0,.23047-.10516.49544.49544,0,0,0,.01172.14813.46842.46842,0,0,0,.04614.07733l-.04517.00177A.48937.48937,0,0,0,18.81641,15.72723Zm1.7998-8.42254.0166-.03955a.68042.68042,0,0,1,.0586.10644.76912.76912,0,0,1,.00586.627,1.06169,1.06169,0,0,1-.082.14746c-.05859-.1587-.124-.3125-.17773-.43116C20.49414,7.59766,20.55957,7.4502,20.61621,7.30469ZM19.31934,5.49951c.00293-.01513.00586-.03027.00781-.04541a.73779.73779,0,0,1,.07812.0918.75883.75883,0,0,1,.125.6123.95675.95675,0,0,1-.05273.1626c-.08692-.14258-.17969-.27881-.25488-.38379C19.25586,5.811,19.291,5.65381,19.31934,5.49951Zm-1.71-1.43359a.75994.75994,0,0,1,.3164.53418,1.06092,1.06092,0,0,1,.002.17627c-.12793-.10547-.25976-.20362-.36425-.27832-.01075-.12891-.0293-.28662-.05176-.44434l-.00684-.0498A.708.708,0,0,1,17.60938,4.06592Zm-2.08106-.09473c.06641-.24365.16113-.29492.16016-.29541L15.7041,3.669c-.001.04394-.0039.08886-.00586.13476-.00586.10645-.01367.21338-.02246.30176-.05859.02637-.124.05517-.19433.08447A1.49252,1.49252,0,0,1,15.52832,3.97119Zm-.33984.89746.041.1034-.0039.01355-.03907-.11646Zm1.07714.61084c.04-.01465.082-.02929.125-.04345.09961-.03516.20118-.06739.28711-.0918.04688.04394.09864.09424.15332.14892a1.57782,1.57782,0,0,1-.21875.0376A.46631.46631,0,0,1,16.26562,5.47949Zm.20313,10.82764.01172-.00928c.00683.03711.01367.07569.01953.11426.01758.10693.0332.2168.04492.31152l-.16015.1211a1.53771,1.53771,0,0,1-.001-.21192C16.39551,16.415,16.44434,16.32422,16.46875,16.30713Zm-1.60059,1.2168a.70891.70891,0,0,1,.09961-.21729.40622.40622,0,0,1,.08106-.07471c-.00293.04-.00781.08058-.0127.12061-.01172.11084-.02734.22363-.041.31934-.05469.021-.11621.04394-.18067.06738A2.16713,2.16713,0,0,1,14.86816,17.52393Zm-1.7705.51953a.64959.64959,0,0,1,.15429-.17383c.00977-.00635.07617-.0459.10352-.06348-.01563.04346-.03125.08838-.04785.1333-.03223.08838-.06739.16993-.11524.27637l-.01074.00147c-.05664.00878-.12012.02-.19531.02587A1.51141,1.51141,0,0,1,13.09766,18.04346Zm.30078,1.04474-.0586.00891.00391-.39887ZM12,19.29315a.50065.50065,0,0,0-.09216-.069A.51587.51587,0,0,0,12,19.15723a.5006.5006,0,0,0,.092.06689A.49852.49852,0,0,0,12,19.29315Zm-1.44531.48908-.02832-.02979.02539-.166Zm.19336-1.9126a.6608.6608,0,0,1,.15429.17236,1.5713,1.5713,0,0,1,.11133.20166c-.05762-.00439-.12109-.01416-.206-.02783-.03614-.08105-.07813-.17432-.11621-.27881-.01563-.04346-.03125-.08642-.0459-.12793Zm-.36328.62549-.22791.10034c.00525-.01416.01453-.02576.01843-.04047Zm-4.873-4.78565a.6758.6758,0,0,1-.07617.22119,1.59087,1.59087,0,0,1-.11231.18409l-.04-.08643-.03808-.104c.05468-.07422.12011-.15918.18457-.23975.03027-.03467.05957-.06885.08886-.10205A.45144.45144,0,0,1,5.51172,13.70947ZM2.50684,12.07178a1.0034,1.0034,0,0,1,.00293-.1333c.01074.0083.02148.01709.0332.02539.12891.09814.25781.18994.35937.26074.01368.145.03516.30859.0625.47119a.67762.67762,0,0,1-.13281-.0791A.79543.79543,0,0,1,2.50684,12.07178ZM4.71,12.06543c.07617-.05908.167-.12744.25879-.19238l.08984-.06348a.46507.46507,0,0,1-.16308.30664c-.05078.05274-.10254.10254-.15528.14844C4.72852,12.19385,4.71875,12.126,4.71,12.06543Zm.1416-1.74707a1.65753,1.65753,0,0,1-.17968.09912c.00781-.07471.01464-.14648.02441-.20947.085-.03516.18555-.0752.29-.11133.03906-.01367.07715-.02734.11426-.04053A.53039.53039,0,0,1,4.85156,10.31836Zm-.96289-.917a.48771.48771,0,0,0,.07544-.04871.49057.49057,0,0,0,.05884.06445.4935.4935,0,0,0-.12817.10523.50092.50092,0,0,0-.063-.111A.4835.4835,0,0,0,3.88867,9.40137ZM3.713,11.35431a.49151.49151,0,0,0,.08094.112.4896.4896,0,0,0,.04785.029.48821.48821,0,0,0-.09912.13629.48067.48067,0,0,0-.09424-.1087l-.06275-.04218c.01026-.007.02442-.00421.03443-.012A.4967.4967,0,0,0,3.713,11.35431Zm.355,2.0802a.488.488,0,0,0,.22132.10767l-.0149.0213a.50139.50139,0,0,0-.07812.20221.49519.49519,0,0,0-.20313-.12653l-.04-.01282A.49212.49212,0,0,0,4.068,13.43451ZM5.53711,8.36865a.405.405,0,0,1-.291.19727l-.0166.00488a1.19685,1.19685,0,0,1-.14941.03467c.03613-.0918.07422-.18067.1084-.25733.07812-.00683.16894-.0122.26172-.01464.0332-.001.06542-.002.09765-.00245A.26994.26994,0,0,1,5.53711,8.36865Zm.85156-1.52588c-.02539.02832-.083.09229-.28515.09229a1.69589,1.69589,0,0,1-.22559-.01856c.05566-.07861.11328-.15429.165-.21972.07226.01611.1543.03613.23535.05859l.00586.00147c.04394.01171.08789.02392.12988.03613A.27556.27556,0,0,1,6.38867,6.84277ZM2.60645,9.48242l.02246.02881c.09668.13135.19921.25732.2832.355-.02344.12695-.041.2876-.05762.46631a.84275.84275,0,0,1-.10937-.11182A.78484.78484,0,0,1,2.582,9.582.604.604,0,0,1,2.60645,9.48242ZM4.876,15.51709a.482.482,0,0,0,.01391-.15259.49211.49211,0,0,0,.23218.10669c.01416.00208.02808.0022.042.00293a.48234.48234,0,0,0,.01953.25311.48937.48937,0,0,0-.30468-.134l-.04737-.00177A.5058.5058,0,0,0,4.876,15.51709Zm1.29858,1.425a.49027.49027,0,0,0,.25317.0794l.01905-.00036a.48824.48824,0,0,0,.13745.2807.50423.50423,0,0,0-.33325-.05817l-.04346.0091c.00391-.01758.01489-.03254.01709-.0506A.49549.49549,0,0,0,6.17456,16.94208Zm.03149-1.45673c.03516-.08545.08008-.18555.124-.28223.0166-.03759.03418-.0747.05176-.11083l.0039.00488c0,.001.05078.0708.002.35449a1.42545,1.42545,0,0,1-.05665.20117Zm1.54,2.61511a.38826.38826,0,0,0,.32837.03113.4997.4997,0,0,0,.0896.2.457.457,0,0,0,.10779.08362.49581.49581,0,0,0-.27673.05457L7.96,18.4881a.48757.48757,0,0,0,.00293-.05646A.49555.49555,0,0,0,7.74609,18.10046Zm1.28125-.79919a.66851.66851,0,0,1,.10254.21582q.03369.1128.05567.22266c-.06446-.02393-.126-.04688-.18067-.06787-.01367-.09766-.02929-.21338-.042-.32862-.00488-.03662-.00879-.07373-.01172-.11035A.332.332,0,0,1,9.02734,17.30127Zm-1.36523.24707-.14014.40955-.07373-.04529-.01294-.00867.21607-.36ZM7.5,16.40967c.00684-.03809.0127-.07569.01953-.11279l.01172.01025c.02441.01709.07324.10791.085.33642a1.37662,1.37662,0,0,1,0,.20069l-.16113-.12061C7.4668,16.62842,7.48242,16.51807,7.5,16.40967ZM7.75684,5.45508c-.02832.023-.09571.07666-.31055.03808a1.20559,1.20559,0,0,1-.21289-.05565c.0625-.06739.127-.13136.18555-.18751.06933.02686.14843.06006.22851.0957.04785.02149.09668.043.1416.06446A.17446.17446,0,0,1,7.75684,5.45508Zm.59863-1.73487a.88205.88205,0,0,1,.09765.2876,1.86293,1.86293,0,0,1,.03418.24805c-.04492-.02393-.08691-.04736-.126-.06934-.00586-.10058-.00781-.22558-.00684-.353C8.35449,3.79541,8.35449,3.75732,8.35547,3.72021Zm-2.06836.71143a.88974.88974,0,0,1,.3584-.605l.01758-.01221c-.00293.01953-.00684.03907-.01075.0586-.03222.17724-.05859.353-.07422.49072-.08886.06348-.19726.14355-.30273.22949A1.10512,1.10512,0,0,1,6.28711,4.43164Zm-1.42188.86572L4.86914,5.292c.02051.17871.04785.355.07324.49317-.0664.09277-.14941.2124-.22851.33789a.93667.93667,0,0,1-.02051-.103A.97322.97322,0,0,1,4.86523,5.29736ZM3.54688,7.165l.00878-.01856c.04786.16065.10157.3169.14746.43848-.05175.11133-.11621.25635-.1748.40576-.01074-.02441-.02051-.04883-.0293-.07373A1.00248,1.00248,0,0,1,3.54688,7.165Zm-.541,7.18164.03809.01611c.14843.0586.29589.11182.41308.15186l.18457.438a.919.919,0,0,1-.15332-.044.888.888,0,0,1-.28516-.17578.75929.75929,0,0,1-.16406-.272A.95439.95439,0,0,1,3.00586,14.34668Zm1.15234,2.27a.43967.43967,0,0,1-.05175-.08643l.05273.00684c.1582.019.31055.03662.44238.04541.07617.10205.17481.2334.27442.3623l.0039.0044a1.3034,1.3034,0,0,1-.1748-.00049A.75548.75548,0,0,1,4.1582,16.6167Zm1.6875,1.83838a.97027.97027,0,0,1-.09961-.106l.05469-.00781c.15723-.02344.31055-.05078.42969-.07373l.02246.0166.3291.24707.02246.019a.92406.92406,0,0,1-.16211.04737A.79035.79035,0,0,1,5.8457,18.45508Zm2.69336,1.269a.85056.85056,0,0,1-.3291.07568.5614.5614,0,0,1-.28808-.05712,1.04134,1.04134,0,0,1-.11817-.06788l.04785-.02246c.14453-.06543.28516-.1333.39453-.188.13184.05859.28418.11914.4375.17431A.69262.69262,0,0,1,8.53906,19.72412ZM10,19.18945l-.02893.027a.49023.49023,0,0,0-.25964-.29187c.01452.00116.03515.00562.04736.00562a.21484.21484,0,0,0,.042-.00342.48314.48314,0,0,0,.18579-.10346l.029.06147a.49327.49327,0,0,0,.17432.19451A.49733.49733,0,0,0,10,19.18945Zm.8457,1.06836a.90371.90371,0,0,1-.2666.16114.87332.87332,0,0,1-.3291.01709q-.06593-.01173-.12012-.02637l.03223-.02539c.11719-.09229.23535-.19971.37207-.32569l.02441-.022v.05664a3.16277,3.16277,0,0,0,.40332.04492A.92715.92715,0,0,1,10.8457,20.25781Zm2.91407.17676a.86347.86347,0,0,1-.30762-.00635.89019.89019,0,0,1-.29688-.16992.87794.87794,0,0,1-.11718-.12012,3.91508,3.91508,0,0,0,.456-.05273l.01563.01465c.09277.08447.21093.19189.32519.28222l.03516.02735A1.031,1.031,0,0,1,13.75977,20.43457Zm.05065-1.35541a.49378.49378,0,0,0,.174-.19439l.02429-.05249a.49291.49291,0,0,0,.19055.09448.21484.21484,0,0,0,.042.00342c.01221,0,.03284-.00446.04736-.00562a.49017.49017,0,0,0-.25964.29193L14,19.18945A.49881.49881,0,0,0,13.81042,19.07916Zm2.26087.66742a.57825.57825,0,0,1-.28516.05322.86281.86281,0,0,1-.335-.08007.66321.66321,0,0,1-.13672-.08057c.1543-.05566.30762-.11572.43946-.1748.10839.05419.24511.1206.38574.18359.01855.00928.03711.01807.05664.02637A1.09,1.09,0,0,1,16.07129,19.74658Zm2.11523-1.31836a.81085.81085,0,0,1-.61816.17139.9557.9557,0,0,1-.17285-.05029l.00586-.00489.36816-.27685c.11914.02246.27149.0498.42774.07324l.06152.00928A.65139.65139,0,0,1,18.18652,18.42822ZM19.834,16.626a.74974.74974,0,0,1-.55175.32373.91024.91024,0,0,1-.16309,0l.00488-.00489c.09961-.1289.19825-.25976.27442-.3623.127-.0083.28125-.02637.44238-.04541h.001l.05175-.00684A.5228.5228,0,0,1,19.834,16.626Zm1.12989-2.17432a.77368.77368,0,0,1-.16016.2749.89927.89927,0,0,1-.292.18213.87319.87319,0,0,1-.15332.04346l.18457-.4375c.11719-.04.26562-.09326.41308-.15186l.01075-.00439.02734-.01172A.8494.8494,0,0,1,20.96387,14.45166Z"/>
    <path class="cls-5" d="M13.80615,19.69354l-.14782-.139-.20984.032a3.42832,3.42832,0,0,1-.463.05261c-.33874.0166-.67736.03333-.67736.03333a1.60822,1.60822,0,0,0,.52209.96569,1.3884,1.3884,0,0,0,.46509.26477,1.33877,1.33877,0,0,0,.53967.0257,1.16878,1.16878,0,0,0,.48291-.18018,1.41119,1.41119,0,0,0,.35718-.3648s-.277-.19269-.52844-.39283C14.02039,19.89215,13.89575,19.77435,13.80615,19.69354Zm1.9646-.78241a8.42942,8.42942,0,0,1-1.27563.4621,1.59222,1.59222,0,0,0,.75915.80615,1.347,1.347,0,0,0,.51526.11975,1.05223,1.05223,0,0,0,.53125-.1087,1.23676,1.23676,0,0,0,.66785-.74976,5.75836,5.75836,0,0,1-.61511-.2445C16.05042,19.05988,15.77075,18.91113,15.77075,18.91113Zm1.8728-1.179s-.06518.05456-.16772.13067l-.3739.28162a3.774,3.774,0,0,1-.3905.25678l-.1814.111a1.643,1.643,0,0,0,.94458.57837,1.31267,1.31267,0,0,0,1.01343-.26386,1.35828,1.35828,0,0,0,.449-.9s-.34033-.03052-.66308-.0802C17.94922,17.79834,17.64355,17.73218,17.64355,17.73218Zm2.1377-1.69159c-.16211.01959-.31689.03778-.43921.04419l-.20361.00818s-.20093.27618-.40955.54589c-.22827.25318-.45679.50641-.45679.50641a1.59889,1.59889,0,0,0,1.05384.30237,1.229,1.229,0,0,0,.90869-.52185,1.06251,1.06251,0,0,0,.203-.47882,1.39958,1.39958,0,0,0-.00158-.50818S20.10229,16.00134,19.78125,16.04059Zm.99121-2.14264c-.30957.1228-.61658.21851-.61658.21851l-.07312.201c-.02221.06025-.04785.13062-.07544.20594-.03173.07348-.07043.14978-.10669.22717-.07385.15424-.1477.30853-.20324.42413a1.25724,1.25724,0,0,1-.10095.18787,1.54707,1.54707,0,0,0,1.09448.01282,1.39735,1.39735,0,0,0,.45349-.28339,1.24577,1.24577,0,0,0,.287-.46283,1.287,1.287,0,0,0,.08007-.51392,1.43154,1.43154,0,0,0-.14355-.49279S21.06714,13.77325,20.77246,13.898Zm.9-2.75391-.15589.1369c-.09863.08094-.23047.18549-.36243.285-.26379.20038-.527.37457-.527.37457a9.00006,9.00006,0,0,1-.22168,1.34918,1.58676,1.58676,0,0,0,1.06811-.27728,1.29078,1.29078,0,0,0,.51905-.91632A1.30425,1.30425,0,0,0,21.67249,11.144Zm-1.7887-3.43365s.15271.30615.26977.62829c.06653.15778.11646.3216.15479.44416l.06457.204a1.636,1.636,0,0,0,.78064-.784,1.27787,1.27787,0,0,0-.01513-1.05511,1.25539,1.25539,0,0,0-.75366-.65973s-.10865.32531-.23157.62811c-.05945.15143-.12537.3-.18006.41162C19.91943,7.63727,19.88379,7.71039,19.88379,7.71039Zm-.58252-.70374.1029.187a1.64648,1.64648,0,0,0,.61341-.92291,1.27152,1.27152,0,0,0-.21668-1.03039,1.24811,1.24811,0,0,0-.86511-.49793s-.04468.34033-.10742.6615c-.02966.16034-.06543.31873-.09766.4389l-.05261.19654s.20837.27026.3855.56268C19.1593,6.74347,19.23926,6.89453,19.30127,7.00665Zm-4.12524-2.17c.11-.03644.25708-.08374.39819-.14642a6.00644,6.00644,0,0,0,.56274-.25251l.025-.18975c.01489-.11133.028-.26575.03552-.41871.01782-.30529.01343-.59613.01343-.59613a.9214.9214,0,0,0-.72534-.01428.9299.9299,0,0,0-.43946.62207,2.47806,2.47806,0,0,0-.053,1.05731S15.06616,4.87354,15.176,4.83667Zm1.89111-.2674c.00854.12189.014.20319.014.20319a6.73777,6.73777,0,0,1,.547.40473c.13623.10229.26148.21765.356.30377l.158.14282a1.65833,1.65833,0,0,0,.28064-1.07434,1.26732,1.26732,0,0,0-.53992-.902,1.24409,1.24409,0,0,0-.98-.18561s.06861.33643.11389.66083C17.04041,4.28448,17.05884,4.44489,17.06714,4.56927Zm3.4873,5.14692.03638.21087c.02612.126.0415.29657.05884.467a4.57648,4.57648,0,0,1,.03442.46924c.00415.1283.00708.21381.00708.21381a1.618,1.618,0,0,0,.95777-.54834,1.26718,1.26718,0,0,0-.29163-1.85846s-.19019.28509-.38831.54468C20.77661,9.47607,20.55444,9.71619,20.55444,9.71619ZM10.55151,19.58655l-.20984-.032-.14782.139c-.0896.08081-.21424.19861-.34046.2973-.25146.20014-.52844.39283-.52844.39283a1.41119,1.41119,0,0,0,.35718.3648,1.16878,1.16878,0,0,0,.48291.18018,1.33877,1.33877,0,0,0,.53967-.0257,1.3867,1.3867,0,0,0,.465-.26477,1.60774,1.60774,0,0,0,.52221-.96569s-.33862-.01673-.67736-.03333A3.42832,3.42832,0,0,1,10.55151,19.58655Zm-2.32226-.67542s-.27967.14875-.58277.285a5.75836,5.75836,0,0,1-.61511.2445,1.23676,1.23676,0,0,0,.66785.74976,1.05223,1.05223,0,0,0,.53125.1087,1.347,1.347,0,0,0,.51526-.11975,1.59084,1.59084,0,0,0,.75891-.80615A8.43134,8.43134,0,0,1,8.22925,18.91113Zm-.94068-.50988a3.774,3.774,0,0,1-.3905-.25678l-.3739-.28162c-.10254-.07611-.16772-.13067-.16772-.13067s-.30567.06616-.63038.11438c-.32275.04968-.66308.0802-.66308.0802a1.35775,1.35775,0,0,0,.449.9,1.31267,1.31267,0,0,0,1.01343.26386A1.643,1.643,0,0,0,7.47,18.51227ZM5.271,16.63885c-.2085-.26971-.40943-.54589-.40943-.54589L4.658,16.08478c-.12232-.00641-.2771-.0246-.43921-.04419-.321-.03925-.65479-.10181-.65479-.10181a1.39958,1.39958,0,0,0-.00158.50818,1.06251,1.06251,0,0,0,.203.47882,1.229,1.229,0,0,0,.90869.52185,1.59889,1.59889,0,0,0,1.05384-.30237Zm-.86744-1.2763a1.25724,1.25724,0,0,1-.101-.18787c-.05554-.1156-.12939-.26989-.20324-.42413-.03626-.07739-.075-.15369-.10669-.22717-.02759-.07532-.05323-.14569-.07544-.20594l-.07312-.201s-.307-.09571-.61658-.21851c-.29468-.1247-.59546-.27551-.59546-.27551a1.43154,1.43154,0,0,0-.14355.49279,1.287,1.287,0,0,0,.08007.51392,1.24577,1.24577,0,0,0,.287.46283,1.39735,1.39735,0,0,0,.45349.28339A1.54707,1.54707,0,0,0,4.40356,15.36255Zm-.80908-2.07282a9.00006,9.00006,0,0,1-.22168-1.34918s-.26318-.17419-.527-.37457c-.132-.09955-.2638-.2041-.36243-.285l-.15589-.1369a1.30425,1.30425,0,0,0-.32019.95209,1.29078,1.29078,0,0,0,.51905.91632A1.58676,1.58676,0,0,0,3.59448,13.28973Zm-.28564-2.21264s.00293-.08551.00708-.21381a4.57648,4.57648,0,0,1,.03442-.46924c.01734-.17041.03272-.341.05884-.467l.03638-.21087S3.22339,9.47607,3.031,9.215c-.19825-.25959-.38831-.54468-.38831-.54468a1.26718,1.26718,0,0,0-.29163,1.85846A1.618,1.618,0,0,0,3.30884,11.07709ZM3.71826,8.931s.02857-.08484.07178-.21191c.04248-.12739.09839-.29761.16955-.46082.12757-.3338.28772-.64929.28772-.64929l-.07458-.19647c-.046-.12024-.10034-.28-.14856-.4422-.1001-.32489-.18567-.67279-.18567-.67279a1.23767,1.23767,0,0,0-.7467.65954,1.49066,1.49066,0,0,0-.06971,1.111A1.65064,1.65064,0,0,0,3.71826,8.931ZM4.72754,7.08716s.043-.07678.10718-.1922c.06445-.11511.14795-.27063.24585-.4151.18274-.29962.3938-.57459.3938-.57459l-.03956-.20959c-.02417-.12824-.04956-.29669-.06909-.467-.04223-.34137-.06665-.702-.06665-.702a1.15967,1.15967,0,0,0-.84338.48371,1.46554,1.46554,0,0,0-.25891,1.07556A1.762,1.762,0,0,0,4.72754,7.08716Zm3.15234-2.6081a5.387,5.387,0,0,0,.51819.29261,3.80264,3.80264,0,0,0,.36865.17309l.16956.07349a2.90707,2.90707,0,0,0,.00537-1.11652.98189.98189,0,0,0-.38232-.67614.78846.78846,0,0,0-.68592-.01911s-.01941.30615-.0188.62866c-.00073.1615.0033.32483.0116.44281Zm-1.7207.87049c.09375-.08618.21814-.20191.35229-.30329a6.463,6.463,0,0,1,.53785-.40063l.02417-.21338c.0144-.1308.04-.29889.071-.4682.05982-.3396.14234-.69092.14234-.69092a1.07856,1.07856,0,0,0-.93555.14936,1.37015,1.37015,0,0,0-.55737.925,1.904,1.904,0,0,0,.20849,1.14508S6.06519,5.43549,6.15918,5.34955Z"/>
    <path class="cls-6" d="M13.80615,19.69354l-.14782-.139-.20984.032a3.42832,3.42832,0,0,1-.463.05261c-.33874.0166-.67736.03333-.67736.03333a1.60822,1.60822,0,0,0,.52209.96569,1.3884,1.3884,0,0,0,.46509.26477,1.33877,1.33877,0,0,0,.53967.0257,1.16878,1.16878,0,0,0,.48291-.18018,1.41119,1.41119,0,0,0,.35718-.3648s-.277-.19269-.52844-.39283C14.02039,19.89215,13.89575,19.77435,13.80615,19.69354Zm1.9646-.78241a8.42942,8.42942,0,0,1-1.27563.4621,1.59222,1.59222,0,0,0,.75915.80615,1.347,1.347,0,0,0,.51526.11975,1.05223,1.05223,0,0,0,.53125-.1087,1.23676,1.23676,0,0,0,.66785-.74976,5.75836,5.75836,0,0,1-.61511-.2445C16.05042,19.05988,15.77075,18.91113,15.77075,18.91113Zm1.8728-1.179s-.06518.05456-.16772.13067l-.3739.28162a3.774,3.774,0,0,1-.3905.25678l-.1814.111a1.643,1.643,0,0,0,.94458.57837,1.31267,1.31267,0,0,0,1.01343-.26386,1.35828,1.35828,0,0,0,.449-.9s-.34033-.03052-.66308-.0802C17.94922,17.79834,17.64355,17.73218,17.64355,17.73218Zm2.1377-1.69159c-.16211.01959-.31689.03778-.43921.04419l-.20361.00818s-.20093.27618-.40955.54589c-.22827.25318-.45679.50641-.45679.50641a1.59889,1.59889,0,0,0,1.05384.30237,1.229,1.229,0,0,0,.90869-.52185,1.06251,1.06251,0,0,0,.203-.47882,1.39958,1.39958,0,0,0-.00158-.50818S20.10229,16.00134,19.78125,16.04059Zm.99121-2.14264c-.30957.1228-.61658.21851-.61658.21851l-.07312.201c-.02221.06025-.04785.13062-.07544.20594-.03173.07348-.07043.14978-.10669.22717-.07385.15424-.1477.30853-.20324.42413a1.25724,1.25724,0,0,1-.10095.18787,1.54707,1.54707,0,0,0,1.09448.01282,1.39735,1.39735,0,0,0,.45349-.28339,1.24577,1.24577,0,0,0,.287-.46283,1.287,1.287,0,0,0,.08007-.51392,1.43154,1.43154,0,0,0-.14355-.49279S21.06714,13.77325,20.77246,13.898Zm.9-2.75391-.15589.1369c-.09863.08094-.23047.18549-.36243.285-.26379.20038-.527.37457-.527.37457a9.00006,9.00006,0,0,1-.22168,1.34918,1.58676,1.58676,0,0,0,1.06811-.27728,1.29078,1.29078,0,0,0,.51905-.91632A1.30425,1.30425,0,0,0,21.67249,11.144Zm-1.7887-3.43365s.15271.30615.26977.62829c.06653.15778.11646.3216.15479.44416l.06457.204a1.636,1.636,0,0,0,.78064-.784,1.27787,1.27787,0,0,0-.01513-1.05511,1.25539,1.25539,0,0,0-.75366-.65973s-.10865.32531-.23157.62811c-.05945.15143-.12537.3-.18006.41162C19.91943,7.63727,19.88379,7.71039,19.88379,7.71039Zm-.58252-.70374.1029.187a1.64648,1.64648,0,0,0,.61341-.92291,1.27152,1.27152,0,0,0-.21668-1.03039,1.24811,1.24811,0,0,0-.86511-.49793s-.04468.34033-.10742.6615c-.02966.16034-.06543.31873-.09766.4389l-.05261.19654s.20837.27026.3855.56268C19.1593,6.74347,19.23926,6.89453,19.30127,7.00665Zm-4.12524-2.17c.11-.03644.25708-.08374.39819-.14642a6.00644,6.00644,0,0,0,.56274-.25251l.025-.18975c.01489-.11133.028-.26575.03552-.41871.01782-.30529.01343-.59613.01343-.59613a.9214.9214,0,0,0-.72534-.01428.9299.9299,0,0,0-.43946.62207,2.47806,2.47806,0,0,0-.053,1.05731S15.06616,4.87354,15.176,4.83667Zm1.89111-.2674c.00854.12189.014.20319.014.20319a6.73777,6.73777,0,0,1,.547.40473c.13623.10229.26148.21765.356.30377l.158.14282a1.65833,1.65833,0,0,0,.28064-1.07434,1.26732,1.26732,0,0,0-.53992-.902,1.24409,1.24409,0,0,0-.98-.18561s.06861.33643.11389.66083C17.04041,4.28448,17.05884,4.44489,17.06714,4.56927Zm3.4873,5.14692.03638.21087c.02612.126.0415.29657.05884.467a4.57648,4.57648,0,0,1,.03442.46924c.00415.1283.00708.21381.00708.21381a1.618,1.618,0,0,0,.95777-.54834,1.26718,1.26718,0,0,0-.29163-1.85846s-.19019.28509-.38831.54468C20.77661,9.47607,20.55444,9.71619,20.55444,9.71619ZM10.55151,19.58655l-.20984-.032-.14782.139c-.0896.08081-.21424.19861-.34046.2973-.25146.20014-.52844.39283-.52844.39283a1.41119,1.41119,0,0,0,.35718.3648,1.16878,1.16878,0,0,0,.48291.18018,1.33877,1.33877,0,0,0,.53967-.0257,1.3867,1.3867,0,0,0,.465-.26477,1.60774,1.60774,0,0,0,.52221-.96569s-.33862-.01673-.67736-.03333A3.42832,3.42832,0,0,1,10.55151,19.58655Zm-2.32226-.67542s-.27967.14875-.58277.285a5.75836,5.75836,0,0,1-.61511.2445,1.23676,1.23676,0,0,0,.66785.74976,1.05223,1.05223,0,0,0,.53125.1087,1.347,1.347,0,0,0,.51526-.11975,1.59084,1.59084,0,0,0,.75891-.80615A8.43134,8.43134,0,0,1,8.22925,18.91113Zm-.94068-.50988a3.774,3.774,0,0,1-.3905-.25678l-.3739-.28162c-.10254-.07611-.16772-.13067-.16772-.13067s-.30567.06616-.63038.11438c-.32275.04968-.66308.0802-.66308.0802a1.35775,1.35775,0,0,0,.449.9,1.31267,1.31267,0,0,0,1.01343.26386A1.643,1.643,0,0,0,7.47,18.51227ZM5.271,16.63885c-.2085-.26971-.40943-.54589-.40943-.54589L4.658,16.08478c-.12232-.00641-.2771-.0246-.43921-.04419-.321-.03925-.65479-.10181-.65479-.10181a1.39958,1.39958,0,0,0-.00158.50818,1.06251,1.06251,0,0,0,.203.47882,1.229,1.229,0,0,0,.90869.52185,1.59889,1.59889,0,0,0,1.05384-.30237Zm-.86744-1.2763a1.25724,1.25724,0,0,1-.101-.18787c-.05554-.1156-.12939-.26989-.20324-.42413-.03626-.07739-.075-.15369-.10669-.22717-.02759-.07532-.05323-.14569-.07544-.20594l-.07312-.201s-.307-.09571-.61658-.21851c-.29468-.1247-.59546-.27551-.59546-.27551a1.43154,1.43154,0,0,0-.14355.49279,1.287,1.287,0,0,0,.08007.51392,1.24577,1.24577,0,0,0,.287.46283,1.39735,1.39735,0,0,0,.45349.28339A1.54707,1.54707,0,0,0,4.40356,15.36255Zm-.80908-2.07282a9.00006,9.00006,0,0,1-.22168-1.34918s-.26318-.17419-.527-.37457c-.132-.09955-.2638-.2041-.36243-.285l-.15589-.1369a1.30425,1.30425,0,0,0-.32019.95209,1.29078,1.29078,0,0,0,.51905.91632A1.58676,1.58676,0,0,0,3.59448,13.28973Zm-.28564-2.21264s.00293-.08551.00708-.21381a4.57648,4.57648,0,0,1,.03442-.46924c.01734-.17041.03272-.341.05884-.467l.03638-.21087S3.22339,9.47607,3.031,9.215c-.19825-.25959-.38831-.54468-.38831-.54468a1.26718,1.26718,0,0,0-.29163,1.85846A1.618,1.618,0,0,0,3.30884,11.07709ZM3.71826,8.931s.02857-.08484.07178-.21191c.04248-.12739.09839-.29761.16955-.46082.12757-.3338.28772-.64929.28772-.64929l-.07458-.19647c-.046-.12024-.10034-.28-.14856-.4422-.1001-.32489-.18567-.67279-.18567-.67279a1.23767,1.23767,0,0,0-.7467.65954,1.49066,1.49066,0,0,0-.06971,1.111A1.65064,1.65064,0,0,0,3.71826,8.931ZM4.72754,7.08716s.043-.07678.10718-.1922c.06445-.11511.14795-.27063.24585-.4151.18274-.29962.3938-.57459.3938-.57459l-.03956-.20959c-.02417-.12824-.04956-.29669-.06909-.467-.04223-.34137-.06665-.702-.06665-.702a1.15967,1.15967,0,0,0-.84338.48371,1.46554,1.46554,0,0,0-.25891,1.07556A1.762,1.762,0,0,0,4.72754,7.08716Zm3.15234-2.6081a5.387,5.387,0,0,0,.51819.29261,3.80264,3.80264,0,0,0,.36865.17309l.16956.07349a2.90707,2.90707,0,0,0,.00537-1.11652.98189.98189,0,0,0-.38232-.67614.78846.78846,0,0,0-.68592-.01911s-.01941.30615-.0188.62866c-.00073.1615.0033.32483.0116.44281Zm-1.7207.87049c.09375-.08618.21814-.20191.35229-.30329a6.463,6.463,0,0,1,.53785-.40063l.02417-.21338c.0144-.1308.04-.29889.071-.4682.05982-.3396.14234-.69092.14234-.69092a1.07856,1.07856,0,0,0-.93555.14936,1.37015,1.37015,0,0,0-.55737.925,1.904,1.904,0,0,0,.20849,1.14508S6.06519,5.43549,6.15918,5.34955Z"/>
    <path class="cls-7" d="M12,6.02174a5,5,0,1,1-5,5A5,5,0,0,1,12,6.02174Z"/>
    <path class="cls-8" d="M12,16.48926A5.46753,5.46753,0,1,1,17.46777,11.022,5.47392,5.47392,0,0,1,12,16.48926ZM12,6.0542A4.96753,4.96753,0,1,0,16.96777,11.022,4.97337,4.97337,0,0,0,12,6.0542Z"/>
    <g>
      <path class="cls-9" d="M13.5333,18.66906l.0815-.1741c.0472-.1065.1091-.2373.1623-.3847.1083-.293.1909-.5786.1909-.5786a1.09808,1.09808,0,0,0-.3411-.1845.74042.74042,0,0,0-.3399-.0416.64767.64767,0,0,0-.3257.158,1.15188,1.15188,0,0,0-.2803.3031,2.61288,2.61288,0,0,0-.372,1.0102s.3073-.0154.6146-.0309a2.92618,2.92618,0,0,0,.4197-.0478Z"/>
      <path class="cls-10" d="M15.4463,18.01606s.055-.311.0866-.6096a5.33009,5.33009,0,0,0,.0362-.6028.9195.9195,0,0,0-.7163-.0362.89531.89531,0,0,0-.2764.2287,1.22126,1.22126,0,0,0-.1861.3779,2.66707,2.66707,0,0,0-.0989,1.0604A7.54527,7.54527,0,0,0,15.4463,18.01606Z"/>
      <path class="cls-11" d="M17.0733,16.94806s-.0306-.3179-.0803-.6179c-.0483-.3022-.1146-.5854-.1146-.5854a.83034.83034,0,0,0-.702.1561.88352.88352,0,0,0-.2916.707,2.50475,2.50475,0,0,0,.1789,1.0467l.1643-.1005a3.23465,3.23465,0,0,0,.354-.2326l.339-.2552C17.0141,16.99756,17.0733,16.94806,17.0733,16.94806Z"/>
      <path class="cls-12" d="M18.3577,15.56746l-.0645-.1792c-.0399-.1069-.1052-.2537-.1684-.3926-.128-.2809-.2685-.5384-.2685-.5384a1.14587,1.14587,0,0,0-.3766.1132.89631.89631,0,0,0-.2605.2211.96982.96982,0,0,0-.0976.7596,2.56588,2.56588,0,0,0,.4509.9704s.2072-.2294.4143-.4589C18.1723,15.81506,18.3577,15.56746,18.3577,15.56746Z"/>
      <path class="cls-13" d="M19.3145,13.84736s-.1756-.2551-.3639-.4863c-.2017-.2381-.4095-.4502-.4095-.4502a1.08953,1.08953,0,0,0-.324.2117.68653.68653,0,0,0-.2024.2788.73325.73325,0,0,0-.0236.3627,1.16575,1.16575,0,0,0,.1288.3949,2.66811,2.66811,0,0,0,.6883.8173,1.0537,1.0537,0,0,0,.0915-.1703l.1838-.3842c.0329-.0701.0684-.1391.0972-.2056l.0676-.1867Z"/>
      <path class="cls-14" d="M19.7498,9.85926a6.06119,6.06119,0,0,0-.5656-.2324c-.2871-.1042-.5664-.183-.5664-.183a.92664.92664,0,0,0-.2131.6936.94887.94887,0,0,0,.4729.6012,2.49943,2.49943,0,0,0,.996.3544l-.0065-.194a3.87222,3.87222,0,0,0-.0312-.4255c-.0157-.1545-.029-.3092-.0532-.4232Z"/>
      <path class="cls-15" d="M19.2267,7.94106l-.1891-.0289c-.1111-.0172-.2633-.0343-.4167-.0448-.3046-.024-.595-.0255-.595-.0255a.92881.92881,0,0,0-.0236.726.93732.93732,0,0,0,.6141.4524,2.47577,2.47577,0,0,0,1.0534.0768l-.0586-.1846a4.22875,4.22875,0,0,0-.1402-.4022A6.09352,6.09352,0,0,0,19.2267,7.94106Z"/>
      <path class="cls-16" d="M18.2724,6.25466l-.19.022c-.1117.0128-.2636.0368-.4141.0668-.3002.0571-.5811.1319-.5811.1319a.92805.92805,0,0,0,.1663.7081.93462.93462,0,0,0,.711.2754,2.47768,2.47768,0,0,0,1.0371-.206l-.1051-.1625c-.063-.0974-.1442-.2294-.2402-.3509C18.4781,6.486,18.2724,6.25466,18.2724,6.25466Z"/>
      <path class="cls-17" d="M19.8121,11.84116s-.244-.2002-.4886-.374c-.1223-.0878-.2445-.1703-.336-.2298l-.1609-.0971a.89008.89008,0,0,0-.3835.6163.92674.92674,0,0,0,.2996.7043,2.58191,2.58191,0,0,0,.8684.6027A8.0691,8.0691,0,0,0,19.8121,11.84116Z"/>
      <path class="cls-18" d="M16.8116,4.79166l-.1851.0482c-.1088.0282-.2558.0731-.4007.1238-.2894.0983-.5571.2114-.5571.2114a.92778.92778,0,0,0,.2632.678.93419.93419,0,0,0,.7424.1739,2.47721,2.47721,0,0,0,.9983-.3483l-.1267-.1463c-.0759-.0877-.1747-.2071-.2867-.3141A6.17037,6.17037,0,0,0,16.8116,4.79166Z"/>
      <path class="cls-19" d="M10.4667,18.66906l-.0815-.1741c-.0472-.1065-.1091-.2373-.1623-.3847-.1083-.293-.191-.5786-.191-.5786a1.0996,1.0996,0,0,1,.3412-.1845.74042.74042,0,0,1,.3399-.0416.64767.64767,0,0,1,.3257.158,1.15188,1.15188,0,0,1,.2803.3031,2.61288,2.61288,0,0,1,.372,1.0102s-.3073-.0154-.6146-.0309a2.92618,2.92618,0,0,1-.4197-.0478Z"/>
      <path class="cls-20" d="M8.5537,18.01606s-.055-.311-.0866-.6096a5.33009,5.33009,0,0,1-.0362-.6028.9195.9195,0,0,1,.7163-.0362.89531.89531,0,0,1,.2764.2287,1.22126,1.22126,0,0,1,.1861.3779,2.66707,2.66707,0,0,1,.0989,1.0604A7.54527,7.54527,0,0,1,8.5537,18.01606Z"/>
      <path class="cls-21" d="M6.9267,16.94806s.0306-.3179.0803-.6179c.0483-.3022.1146-.5854.1146-.5854a.83012.83012,0,0,1,.7019.1561.88357.88357,0,0,1,.2917.707,2.50636,2.50636,0,0,1-.1789,1.0467l-.1644-.1005a3.23424,3.23424,0,0,1-.3539-.2326l-.339-.2552C6.9859,16.99756,6.9267,16.94806,6.9267,16.94806Z"/>
      <path class="cls-22" d="M5.6422,15.56746l.0645-.1792c.04-.1069.1052-.2537.1685-.3926.128-.2809.2685-.5384.2685-.5384a1.14587,1.14587,0,0,1,.3766.1132.89761.89761,0,0,1,.2605.2211.96941.96941,0,0,1,.0975.7596,2.56554,2.56554,0,0,1-.4508.9704s-.2072-.2294-.4144-.4589C5.8277,15.81506,5.6422,15.56746,5.6422,15.56746Z"/>
      <path class="cls-23" d="M4.6855,13.84736s.1756-.2551.3639-.4863c.2017-.2381.4095-.4502.4095-.4502a1.08953,1.08953,0,0,1,.324.2117.68653.68653,0,0,1,.2024.2788.73209.73209,0,0,1,.0235.3627,1.16322,1.16322,0,0,1-.1287.3949,2.66811,2.66811,0,0,1-.6883.8173,1.0537,1.0537,0,0,1-.0915-.1703l-.1838-.3842c-.0329-.0701-.0684-.1391-.0973-.2056l-.0675-.1867Z"/>
      <path class="cls-24" d="M4.2502,9.85926a6.06119,6.06119,0,0,1,.5656-.2324c.2871-.1042.5664-.183.5664-.183a.92664.92664,0,0,1,.2131.6936.94887.94887,0,0,1-.4729.6012,2.49943,2.49943,0,0,1-.996.3544l.0064-.194a3.8995,3.8995,0,0,1,.0313-.4255c.0156-.1545.029-.3092.0532-.4232Z"/>
      <path class="cls-25" d="M4.1878,11.84116s.2441-.2002.4887-.374c.1223-.0878.2445-.1703.336-.2298l.1609-.0971a.89042.89042,0,0,1,.3835.6163.9271.9271,0,0,1-.2996.7043,2.58292,2.58292,0,0,1-.8684.6027A8.08183,8.08183,0,0,1,4.1878,11.84116Z"/>
      <path class="cls-26" d="M4.856,7.88306l.1802-.0216c.1058-.0128.2505-.0237.3959-.0275.289-.0109.5634.0011.5634.0011a1.08456,1.08456,0,0,1-.0158.7661.90436.90436,0,0,1-.604.4478,2.11137,2.11137,0,0,1-.9991.0312l.0651-.1918c.0386-.1153.0887-.2697.1536-.4172C4.7104,8.16876,4.856,7.88306,4.856,7.88306Z"/>
      <path class="cls-27" d="M5.8462,6.15126l.1783.0321c.1048.0187.247.0512.3876.0899.2806.0743.542.1664.542.1664a1.06571,1.06571,0,0,1-.1943.7381.83793.83793,0,0,1-.6861.2567,2.13519,2.13519,0,0,1-.9689-.2659l.1079-.1662c.0646-.0998.1483-.235.2453-.3585C5.6397,6.38516,5.8462,6.15126,5.8462,6.15126Z"/>
      <path class="cls-28" d="M7.3031,4.67856l.1723.0596c.1012.0348.2378.0891.372.1493.2682.1172.5151.2491.5151.2491a1.04111,1.04111,0,0,1-.2842.7019.81645.81645,0,0,1-.7105.1482,2.18828,2.18828,0,0,1-.9248-.4141l.1274-.1481c.0764-.0889.176-.21.2874-.3175C7.0697,4.87866,7.3031,4.67856,7.3031,4.67856Z"/>
    </g>
    <g class="cls-29">
      <g>
        <path class="cls-30" d="M13.5333,18.66906l.0815-.1741c.0472-.1065.1091-.2373.1623-.3847.1083-.293.1909-.5786.1909-.5786a1.09808,1.09808,0,0,0-.3411-.1845.74042.74042,0,0,0-.3399-.0416.64767.64767,0,0,0-.3257.158,1.15188,1.15188,0,0,0-.2803.3031,2.61288,2.61288,0,0,0-.372,1.0102s.3073-.0154.6146-.0309a2.92618,2.92618,0,0,0,.4197-.0478Z"/>
        <path class="cls-31" d="M13.366,17.54889a.70443.70443,0,0,1,.18884.03766.64531.64531,0,0,1,.11951.05084c-.03333.10492-.07972.2453-.13233.38794-.041.11359-.08764.21667-.12768.30548l-.02613.05835-.02478.053-.05529.00848-.08643.01331a1.96449,1.96449,0,0,1-.31067.03229l-.28857.01452a2.16728,2.16728,0,0,1,.26684-.60589.94553.94553,0,0,1,.2345-.25135.40553.40553,0,0,1,.20642-.1018.20639.20639,0,0,1,.03577-.00287m0-.25a.45659.45659,0,0,0-.079.00665.648.648,0,0,0-.32569.158,1.15159,1.15159,0,0,0-.28027.3031,2.61318,2.61318,0,0,0-.37207,1.0102s.30737-.01539.61462-.03089a2.93128,2.93128,0,0,0,.41968-.04779l.19007-.02911.08142-.17414c.04724-.10644.10913-.2373.16235-.3847.10828-.293.19092-.57855.19092-.57855a1.09792,1.09792,0,0,0-.34107-.18451.91.91,0,0,0-.261-.04828Z"/>
      </g>
      <g>
        <path class="cls-30" d="M15.4463,18.01606s.055-.311.0866-.6096a5.33009,5.33009,0,0,0,.0362-.6028.9195.9195,0,0,0-.7163-.0362.89531.89531,0,0,0-.2764.2287,1.22126,1.22126,0,0,0-.1861.3779,2.66707,2.66707,0,0,0-.0989,1.0604A7.54527,7.54527,0,0,0,15.4463,18.01606Z"/>
        <path class="cls-32" d="M15.11462,16.9585a.842.842,0,0,1,.20044.02868c-.00427.10907-.01294.25318-.03076.393-.01855.17621-.04565.35681-.06409.47155-.15747.06519-.47363.18134-.69409.25843a2.43687,2.43687,0,0,1,.10242-.66053.97847.97847,0,0,1,.14392-.29827.63666.63666,0,0,1,.19629-.16236.30934.30934,0,0,1,.14587-.03045m0-.25a.55623.55623,0,0,0-.26184.059.89583.89583,0,0,0-.27636.22869,1.22094,1.22094,0,0,0-.18616.37793,2.66783,2.66783,0,0,0-.09888,1.06037l.00476.00146a7.91606,7.91606,0,0,0,1.15015-.41986s.05505-.311.08667-.60962a5.33373,5.33373,0,0,0,.03613-.60278,1.41228,1.41228,0,0,0-.45447-.09515Z"/>
      </g>
      <g>
        <path class="cls-30" d="M17.0733,16.94806s-.0306-.3179-.0803-.6179c-.0483-.3022-.1146-.5854-.1146-.5854a.83034.83034,0,0,0-.702.1561.88352.88352,0,0,0-.2916.707,2.50475,2.50475,0,0,0,.1789,1.0467l.1643-.1005a3.23465,3.23465,0,0,0,.354-.2326l.339-.2552C17.0141,16.99756,17.0733,16.94806,17.0733,16.94806Z"/>
        <path class="cls-33" d="M16.67407,15.98108c.02185.105.0492.24506.07239.38989.02832.17151.05029.34894.0636.46619l-.03931.0293-.281.2116-.06726.051a1.70582,1.70582,0,0,1-.21863.147,2.071,2.071,0,0,1-.06946-.65521.66262.66262,0,0,1,.2135-.538.46242.46242,0,0,1,.32617-.10168m.007-.25a.70824.70824,0,0,0-.50464.1698.88358.88358,0,0,0-.29162.707,2.5043,2.5043,0,0,0,.179,1.04669l.16431-.10046a3.25237,3.25237,0,0,0,.354-.23261c.12329-.09283.24646-.18561.339-.25519.09314-.06872.15222-.11822.15222-.11822s-.03052-.31787-.0802-.61792c-.04834-.30219-.11462-.58539-.11462-.58539a1.53436,1.53436,0,0,0-.19739-.01367Z"/>
      </g>
      <g>
        <path class="cls-30" d="M18.3577,15.56746l-.0645-.1792c-.0399-.1069-.1052-.2537-.1684-.3926-.128-.2809-.2685-.5384-.2685-.5384a1.14587,1.14587,0,0,0-.3766.1132.89631.89631,0,0,0-.2605.2211.96982.96982,0,0,0-.0976.7596,2.56588,2.56588,0,0,0,.4509.9704s.2072-.2294.4143-.4589C18.1723,15.81506,18.3577,15.56746,18.3577,15.56746Z"/>
        <path class="cls-34" d="M17.7229,14.74066c.04932.096.11328.22455.17432.35858.06067.13324.12353.274.16089.3739l.01879.05249-.27563.36951-.19641.21747a2.102,2.102,0,0,1-.23694-.604.752.752,0,0,1,.04395-.55762.6425.6425,0,0,1,.1853-.15985.69256.69256,0,0,1,.12573-.05048m.13342-.28338a1.14548,1.14548,0,0,0-.37658.11315.89591.89591,0,0,0-.2605.22113.96984.96984,0,0,0-.09766.75959,2.56545,2.56545,0,0,0,.45093.9704s.20715-.22937.41431-.45887l.37085-.49524s-.02564-.07165-.06446-.1792c-.03991-.10687-.10522-.25366-.16845-.39257-.12793-.28089-.26844-.53839-.26844-.53839Z"/>
      </g>
      <g>
        <path class="cls-30" d="M19.3145,13.84736s-.1756-.2551-.3639-.4863c-.2017-.2381-.4095-.4502-.4095-.4502a1.08953,1.08953,0,0,0-.324.2117.68653.68653,0,0,0-.2024.2788.73325.73325,0,0,0-.0236.3627,1.16575,1.16575,0,0,0,.1288.3949,2.66811,2.66811,0,0,0,.6883.8173,1.0537,1.0537,0,0,0,.0915-.1703l.1838-.3842c.0329-.0701.0684-.1391.0972-.2056l.0676-.1867Z"/>
        <path class="cls-35" d="M18.49133,13.22137c.074.07947.17078.18592.26538.29761.108.13257.21167.27332.2782.36585l-.02173.05951-.02392.0661-.038.10632c-.01721.03967-.037.08038-.05712.12164l-.03626.07556-.12353.25831a2.24423,2.24423,0,0,1-.39185-.527.92737.92737,0,0,1-.10376-.315.49744.49744,0,0,1,.01172-.24591.47493.47493,0,0,1,.1427-.18432.64338.64338,0,0,1,.09814-.07862m.04981-.31048a1.09029,1.09029,0,0,0-.3241.21167.68742.68742,0,0,0-.20239.27881.73338.73338,0,0,0-.02356.36267,1.16534,1.16534,0,0,0,.12878.3949,2.6673,2.6673,0,0,0,.68836.81732,1.04889,1.04889,0,0,0,.09143-.17029c.05017-.1048.11706-.24451.18384-.38422.033-.07007.06836-.1391.09716-.20556l.06763-.18671.06616-.18213s-.17553-.25506-.36389-.48627c-.20166-.23809-.40942-.45019-.40942-.45019Z"/>
      </g>
      <g>
        <path class="cls-30" d="M19.7498,9.85926a6.06119,6.06119,0,0,0-.5656-.2324c-.2871-.1042-.5664-.183-.5664-.183a.92664.92664,0,0,0-.2131.6936.94887.94887,0,0,0,.4729.6012,2.49943,2.49943,0,0,0,.996.3544l-.0065-.194a3.87222,3.87222,0,0,0-.0312-.4255c-.0157-.1545-.029-.3092-.0532-.4232Z"/>
        <path class="cls-36" d="M18.72583,9.73712c.10242.03174.23816.07575.37671.126.16223.056.3208.123.42334.16858l.01233.07043c.01916.09046.03027.20868.04236.33063l.00708.07025c.01159.09693.021.194.02588.2829a2.14479,2.14479,0,0,1-.6034-.25928.71159.71159,0,0,1-.35754-.42169.60015.60015,0,0,1,.07324-.36786m-.108-.29327a.9266.9266,0,0,0-.21314.6936.94926.94926,0,0,0,.4729.6012,2.49949,2.49949,0,0,0,.9961.35443l-.00659-.194a3.8625,3.8625,0,0,0-.03113-.42548c-.01575-.15454-.02906-.3092-.05323-.42322l-.033-.1911a6.05648,6.05648,0,0,0-.56556-.23242c-.28711-.10419-.5664-.183-.5664-.183Z"/>
      </g>
      <g>
        <path class="cls-30" d="M19.2267,7.94106l-.1891-.0289c-.1111-.0172-.2633-.0343-.4167-.0448-.3046-.024-.595-.0255-.595-.0255a.92881.92881,0,0,0-.0236.726.93732.93732,0,0,0,.6141.4524,2.47577,2.47577,0,0,0,1.0534.0768l-.0586-.1846a4.22875,4.22875,0,0,0-.1402-.4022A6.09352,6.09352,0,0,0,19.2267,7.94106Z"/>
        <path class="cls-37" d="M18.20813,8.0957c.10693.00336.24939.00959.39563.02112.14563.00995.29016.02606.396.04248l.05822.00885c.04847.10486.12073.26886.18311.44031.03625.08508.06628.17248.09485.26184l-.02771.00018a2.04007,2.04007,0,0,1-.62207-.09027.70068.70068,0,0,1-.454-.31073.597.597,0,0,1-.024-.37378m-.18225-.25384a.929.929,0,0,0-.02356.726.93713.93713,0,0,0,.61414.45239,2.27417,2.27417,0,0,0,.69177.10022,2.831,2.831,0,0,0,.36157-.02343l-.05859-.18457a4.18731,4.18731,0,0,0-.14026-.40223,6.0943,6.0943,0,0,0-.24427-.56921l-.18908-.02887c-.11109-.01721-.26331-.0343-.41675-.0448-.30457-.024-.595-.02551-.595-.02551Z"/>
      </g>
      <g>
        <path class="cls-30" d="M18.2724,6.25466l-.19.022c-.1117.0128-.2636.0368-.4141.0668-.3002.0571-.5811.1319-.5811.1319a.92805.92805,0,0,0,.1663.7081.93462.93462,0,0,0,.711.2754,2.47768,2.47768,0,0,0,1.0371-.206l-.1051-.1625c-.063-.0974-.1442-.2294-.2402-.3509C18.4781,6.486,18.2724,6.25466,18.2724,6.25466Z"/>
        <path class="cls-38" d="M18.169,6.51831c.07409.08844.1864.22748.29113.37616.06006.07587.11353.15619.16.22827a2.1207,2.1207,0,0,1-.57764.08783l-.07361-.00165a.69741.69741,0,0,1-.51929-.18054.59782.59782,0,0,1-.1206-.35577c.10437-.025.24365-.05646.38818-.084.14307-.0285.28748-.05145.3938-.0636l.058-.00671m.10339-.26367-.18994.022c-.1117.01276-.26355.03681-.41407.06677-.30029.05713-.58117.1319-.58117.1319a.928.928,0,0,0,.16638.70813.93433.93433,0,0,0,.71094.27539q.03826.00174.07788.00171a2.53955,2.53955,0,0,0,.95923-.2077l-.10511-.16254c-.063-.09735-.14416-.22937-.24023-.35089a6.17887,6.17887,0,0,0-.38391-.4848Z"/>
      </g>
      <g>
        <path class="cls-30" d="M19.8121,11.84116s-.244-.2002-.4886-.374c-.1223-.0878-.2445-.1703-.336-.2298l-.1609-.0971a.89008.89008,0,0,0-.3835.6163.92674.92674,0,0,0,.2996.7043,2.58191,2.58191,0,0,0,.8684.6027A8.0691,8.0691,0,0,0,19.8121,11.84116Z"/>
        <path class="cls-39" d="M18.85876,11.45184c.088.05738.20337.13544.31995.21912.144.10229.28772.21405.37879.28625-.02051.16913-.07386.49988-.11817.74048a2.33584,2.33584,0,0,1-.51575-.40936.69374.69374,0,0,1-.23059-.5257.50378.50378,0,0,1,.16577-.31079m-.0321-.31158a.8901.8901,0,0,0-.38354.61627.92669.92669,0,0,0,.29956.70435,2.58154,2.58154,0,0,0,.8684.60266h.00025a8.10949,8.10949,0,0,0,.2008-1.22235s-.244-.20026-.48864-.374c-.12232-.08783-.24451-.17028-.33594-.22979l-.16089-.09711Z"/>
      </g>
      <g>
        <path class="cls-30" d="M16.8116,4.79166l-.1851.0482c-.1088.0282-.2558.0731-.4007.1238-.2894.0983-.5571.2114-.5571.2114a.92778.92778,0,0,0,.2632.678.93419.93419,0,0,0,.7424.1739,2.47721,2.47721,0,0,0,.9983-.3483l-.1267-.1463c-.0759-.0877-.1747-.2071-.2867-.3141A6.17037,6.17037,0,0,0,16.8116,4.79166Z"/>
        <path class="cls-40" d="M16.746,5.06708c.08557.07727.21607.19928.34058.332.06994.06689.13428.139.19043.204a2.05315,2.05315,0,0,1-.63318.17578,1.1996,1.1996,0,0,1-.14661.00952.60839.60839,0,0,1-.3927-.11609.59666.59666,0,0,1-.16894-.33551c.09985-.03918.23352-.08978.37292-.13708.1377-.04822.27735-.091.38086-.11786l.05664-.01471m.06568-.27539-.18519.04815c-.10876.0282-.25573.07312-.40063.12384-.28943.09827-.55713.21137-.55713.21137a.928.928,0,0,0,.26318.678.8542.8542,0,0,0,.56519.18524,1.45563,1.45563,0,0,0,.17725-.01135,2.47776,2.47776,0,0,0,.99829-.34833l-.12671-.1463c-.07593-.08771-.17468-.20709-.28674-.31409a6.16323,6.16323,0,0,0-.44751-.42657Z"/>
      </g>
      <g>
        <path class="cls-30" d="M10.4667,18.66906l-.0815-.1741c-.0472-.1065-.1091-.2373-.1623-.3847-.1083-.293-.191-.5786-.191-.5786a1.0996,1.0996,0,0,1,.3412-.1845.74042.74042,0,0,1,.3399-.0416.64767.64767,0,0,1,.3257.158,1.15188,1.15188,0,0,1,.2803.3031,2.61288,2.61288,0,0,1,.372,1.0102s-.3073-.0154-.6146-.0309a2.92618,2.92618,0,0,1-.4197-.0478Z"/>
        <path class="cls-41" d="M10.634,17.54889l.04163.00384a.43805.43805,0,0,1,.21728.114.90574.90574,0,0,1,.21753.23785,2.16676,2.16676,0,0,1,.26709.60639l-.30041-.015a1.925,1.925,0,0,1-.29883-.032l-.08362-.01288-.05823-.00891-.0227-.04871-.02808-.06268c-.04-.08881-.08667-.19189-.12829-.30725-.05237-.1416-.09851-.28143-.13172-.38611a.65109.65109,0,0,1,.12024-.05115.70289.70289,0,0,1,.18811-.03741m0-.25a.91.91,0,0,0-.261.04828,1.09975,1.09975,0,0,0-.34119.18451s.08276.28558.191.57855c.05322.1474.11511.27826.16235.3847l.08142.17414.19007.02911a2.93128,2.93128,0,0,0,.41968.04779c.30725.0155.61462.03089.61462.03089a2.61318,2.61318,0,0,0-.37207-1.0102,1.15159,1.15159,0,0,0-.28027-.3031.648.648,0,0,0-.32569-.158.45659.45659,0,0,0-.079-.00665Z"/>
      </g>
      <g>
        <path class="cls-30" d="M8.5537,18.01606s-.055-.311-.0866-.6096a5.33009,5.33009,0,0,1-.0362-.6028.9195.9195,0,0,1,.7163-.0362.89531.89531,0,0,1,.2764.2287,1.22126,1.22126,0,0,1,.1861.3779,2.66707,2.66707,0,0,1,.0989,1.0604A7.54527,7.54527,0,0,1,8.5537,18.01606Z"/>
        <path class="cls-42" d="M8.88538,16.9585a.30843.30843,0,0,1,.14062.02765.64267.64267,0,0,1,.19971.16278A.96877.96877,0,0,1,9.37,17.445a2.56031,2.56031,0,0,1,.10693.66314c-.229-.07782-.54126-.19207-.69714-.25653-.01844-.11517-.04566-.29724-.0647-.4768-.01746-.13684-.026-.2793-.03015-.38764a.842.842,0,0,1,.20044-.02868m0-.25a1.41228,1.41228,0,0,0-.45447.09515,5.33373,5.33373,0,0,0,.03613.60278c.03162.29865.08667.60962.08667.60962a7.91606,7.91606,0,0,0,1.15015.41986l.00476-.00146a2.66783,2.66783,0,0,0-.09888-1.06037,1.22094,1.22094,0,0,0-.18616-.37793.89583.89583,0,0,0-.27636-.22869.55623.55623,0,0,0-.26184-.059Z"/>
      </g>
      <g>
        <path class="cls-30" d="M6.9267,16.94806s.0306-.3179.0803-.6179c.0483-.3022.1146-.5854.1146-.5854a.83012.83012,0,0,1,.7019.1561.88357.88357,0,0,1,.2917.707,2.50636,2.50636,0,0,1-.1789,1.0467l-.1644-.1005a3.23424,3.23424,0,0,1-.3539-.2326l-.339-.2552C6.9859,16.99756,6.9267,16.94806,6.9267,16.94806Z"/>
        <path class="cls-43" d="M7.32593,15.98108a.48474.48474,0,0,1,.3518.12286.66648.66648,0,0,1,.18811.52149,2.05677,2.05677,0,0,1-.0697.65063,1.764,1.764,0,0,1-.22778-.15429l-.05811-.04371-.28283-.21295-.03748-.028c.01331-.11737.0354-.29523.06384-.46753.02308-.14411.0503-.28375.07215-.38855m-.007-.25a1.53436,1.53436,0,0,0-.19739.01367s-.06628.2832-.11462.58539c-.04968.3-.0802.61792-.0802.61792s.05908.0495.15222.11822c.09253.06958.2157.16236.339.25519a3.25189,3.25189,0,0,0,.35388.23261l.16443.10046a2.50639,2.50639,0,0,0,.179-1.04669.88367.88367,0,0,0-.29174-.707.70794.70794,0,0,0-.50452-.1698Z"/>
      </g>
      <g>
        <path class="cls-30" d="M5.6422,15.56746l.0645-.1792c.04-.1069.1052-.2537.1685-.3926.128-.2809.2685-.5384.2685-.5384a1.14587,1.14587,0,0,1,.3766.1132.89761.89761,0,0,1,.2605.2211.96941.96941,0,0,1,.0975.7596,2.56554,2.56554,0,0,1-.4508.9704s-.2072-.2294-.4144-.4589C5.8277,15.81506,5.6422,15.56746,5.6422,15.56746Z"/>
        <path class="cls-44" d="M6.2771,14.7406a.67032.67032,0,0,1,.12268.04889.63622.63622,0,0,1,.18347.15527.73555.73555,0,0,1,.05005.55652,2.12267,2.12267,0,0,1-.23865.61182l-.18139-.2002L5.923,15.52533,5.9408,15.476c.03833-.10254.10107-.24328.162-.37665.061-.13409.125-.26269.17432-.3587m-.13342-.28332s-.14051.2575-.26844.53839c-.06335.13891-.12854.2857-.16857.39257l-.06446.1792s.18555.24762.37085.49524l.41443.45887a2.5652,2.5652,0,0,0,.45081-.9704.96934.96934,0,0,0-.09754-.75959.89747.89747,0,0,0-.2605-.22113,1.14548,1.14548,0,0,0-.37658-.11315Z"/>
      </g>
      <g>
        <path class="cls-30" d="M4.6855,13.84736s.1756-.2551.3639-.4863c.2017-.2381.4095-.4502.4095-.4502a1.08953,1.08953,0,0,1,.324.2117.68653.68653,0,0,1,.2024.2788.73209.73209,0,0,1,.0235.3627,1.16322,1.16322,0,0,1-.1287.3949,2.66811,2.66811,0,0,1-.6883.8173,1.0537,1.0537,0,0,1-.0915-.1703l-.1838-.3842c-.0329-.0701-.0684-.1391-.0973-.2056l-.0675-.1867Z"/>
        <path class="cls-45" d="M5.50842,13.22162a.73362.73362,0,0,1,.10816.08752.45064.45064,0,0,1,.13537.1817.51061.51061,0,0,1,.0083.24592.91611.91611,0,0,1-.10241.3078,2.24738,2.24738,0,0,1-.39222.52771l-.12292-.2569-.03748-.07807c-.01989-.04107-.03955-.08142-.0509-.106l-.06763-.1872-.0216-.05932c.06616-.09217.16907-.23182.27514-.36213.0962-.11358.19385-.22107.26819-.301m-.04956-.31073s-.20776.2121-.40942.45019c-.18836.23121-.36389.48627-.36389.48627l.06616.18213.0675.18671c.02893.06646.06433.13549.09729.20556.06678.13971.13367.27942.18384.38422a1.04889,1.04889,0,0,0,.09143.17029,2.6673,2.6673,0,0,0,.68836-.81732,1.16231,1.16231,0,0,0,.12866-.3949.732.732,0,0,0-.02344-.36267.68742.68742,0,0,0-.20239-.27881,1.09029,1.09029,0,0,0-.3241-.21167Z"/>
      </g>
      <g>
        <path class="cls-30" d="M4.2502,9.85926a6.06119,6.06119,0,0,1,.5656-.2324c.2871-.1042.5664-.183.5664-.183a.92664.92664,0,0,1,.2131.6936.94887.94887,0,0,1-.4729.6012,2.49943,2.49943,0,0,1-.996.3544l.0064-.194a3.8995,3.8995,0,0,1,.0313-.4255c.0156-.1545.029-.3092.0532-.4232Z"/>
        <path class="cls-46" d="M5.27429,9.737a.581.581,0,0,1,.07617.34979.711.711,0,0,1-.36316.44147,2.13548,2.13548,0,0,1-.601.25775c.00489-.08728.01453-.18634.02649-.28729l.006-.061a3.42426,3.42426,0,0,1,.0448-.34491l.01062-.06109c.10291-.04566.26233-.113.42688-.16992.1366-.04956.27137-.0932.37317-.12482m.10791-.29315s-.27929.07879-.5664.183a6.05648,6.05648,0,0,0-.56556.23242l-.03295.1911c-.02417.114-.0376.26868-.05323.42322a3.89511,3.89511,0,0,0-.03125.42548l-.00647.194a2.49949,2.49949,0,0,0,.9961-.35443.94926.94926,0,0,0,.4729-.6012.9266.9266,0,0,0-.21314-.6936Z"/>
      </g>
      <g>
        <path class="cls-30" d="M4.1878,11.84116s.2441-.2002.4887-.374c.1223-.0878.2445-.1703.336-.2298l.1609-.0971a.89042.89042,0,0,1,.3835.6163.9271.9271,0,0,1-.2996.7043,2.58292,2.58292,0,0,1-.8684.6027A8.08183,8.08183,0,0,1,4.1878,11.84116Z"/>
        <path class="cls-47" d="M5.14111,11.45178a.50827.50827,0,0,1,.16614.319.6912.6912,0,0,1-.23132.51795,2.33467,2.33467,0,0,1-.51538.40893c-.04431-.24066-.09766-.57129-.11805-.74048.09107-.07232.23523-.1842.37989-.287.11853-.08515.23706-.1651.31872-.21845m.03223-.31152-.16089.09711c-.09143.05951-.21362.142-.33594.22979-.24463.17377-.48877.374-.48877.374a8.12631,8.12631,0,0,0,.20093,1.22235h.00025a2.58275,2.58275,0,0,0,.8684-.60266.92712.92712,0,0,0,.29956-.70435.89051.89051,0,0,0-.38354-.61627Z"/>
      </g>
      <g>
        <path class="cls-30" d="M4.856,7.88306l.1802-.0216c.1058-.0128.2505-.0237.3959-.0275.289-.0109.5634.0011.5634.0011a1.08456,1.08456,0,0,1-.0158.7661.90436.90436,0,0,1-.604.4478,2.11137,2.11137,0,0,1-.9991.0312l.0651-.1918c.0386-.1153.0887-.2697.1536-.4172C4.7104,8.16876,4.856,7.88306,4.856,7.88306Z"/>
        <path class="cls-48" d="M5.69067,8.07941c.03748,0,.07276.00024.105.00067a.7228.7228,0,0,1-.03723.40472.663.663,0,0,1-.45581.32508,1.64276,1.64276,0,0,1-.47253.06481q-.05914,0-.119-.00347c.03125-.09229.06909-.19965.11792-.31116.06494-.17059.141-.33765.192-.445l.04541-.00543c.09936-.012.23547-.02216.37512-.02582.087-.00329.17261-.00439.24914-.00439m0-.25c-.07946,0-.16833.00116-.25854.00457-.14539.00379-.29016.01465-.39588.02747L4.856,7.88306s-.14551.2857-.26062.58807c-.06494.14752-.115.30194-.15369.41724-.03894.11511-.06506.19177-.06506.19177a2.376,2.376,0,0,0,.45349.04455A1.88359,1.88359,0,0,0,5.37573,9.049a.90451.90451,0,0,0,.604-.44781,1.0848,1.0848,0,0,0,.01574-.76606s-.12976-.00567-.30481-.00567Z"/>
      </g>
      <g>
        <path class="cls-30" d="M5.8462,6.15126l.1783.0321c.1048.0187.247.0512.3876.0899.2806.0743.542.1664.542.1664a1.06571,1.06571,0,0,1-.1943.7381.83793.83793,0,0,1-.6861.2567,2.13519,2.13519,0,0,1-.9689-.2659l.1079-.1662c.0646-.0998.1483-.235.2453-.3585C5.6397,6.38516,5.8462,6.15126,5.8462,6.15126Z"/>
        <path class="cls-49" d="M5.94348,6.42279l.037.00665c.09875.01764.23279.0484.36767.08551.13172.03485.25916.0738.35511.10462a.7032.7032,0,0,1-.129.39068.60634.60634,0,0,1-.49622.1742H6.07373a1.71043,1.71043,0,0,1-.60193-.12274c.05225-.08136.1145-.17664.1908-.27417.099-.141.207-.27582.28088-.36475m-.09729-.27154s-.20654.23388-.38818.49261c-.097.12347-.18067.25873-.24536.35852l-.10779.1662a2.13469,2.13469,0,0,0,.96887.26587l.04211.00067a.82189.82189,0,0,0,.64393-.25739,1.06533,1.06533,0,0,0,.19433-.73809s-.26135-.09211-.542-.16639c-.14063-.03869-.28284-.07116-.38757-.0899l-.17835-.0321Z"/>
      </g>
      <g>
        <path class="cls-30" d="M7.3031,4.67856l.1723.0596c.1012.0348.2378.0891.372.1493.2682.1172.5151.2491.5151.2491a1.04111,1.04111,0,0,1-.2842.7019.81645.81645,0,0,1-.7105.1482,2.18828,2.18828,0,0,1-.9248-.4141l.1274-.1481c.0764-.0889.176-.21.2874-.3175C7.0697,4.87866,7.3031,4.67856,7.3031,4.67856Z"/>
        <path class="cls-50" d="M7.36,4.96283l.03418.01178c.09558.03284.22436.08417.35314.14191.129.05639.25306.11633.34485.16223a.67945.67945,0,0,1-.17431.36792.49517.49517,0,0,1-.33179.11157.96961.96961,0,0,1-.17944-.01855,1.75718,1.75718,0,0,1-.58875-.22c.06189-.07245.13538-.15735.22315-.24261.11364-.12238.2351-.23755.319-.31421M7.3031,4.67859s-.2334.20007-.44531.42834c-.11133.10755-.21094.22864-.28736.31751L6.443,5.57257a2.18808,2.18808,0,0,0,.92481.41406,1.183,1.183,0,0,0,.21826.02161.74056.74056,0,0,0,.49219-.1698,1.04116,1.04116,0,0,0,.2843-.7019s-.24695-.1319-.51514-.24909c-.13415-.06018-.27075-.1145-.37207-.14929L7.3031,4.67859Z"/>
      </g>
    </g>
  </g>
  <g id="Layer_11" data-name="Layer 11">
    <path class="cls-51" d="M16.8957,11.78907l-.1596.0569-.0087.5806-.5832.0004v.2862h.5355A4.98259,4.98259,0,0,1,14.187,15.576h-.5863l-.1436.2911a4.94522,4.94522,0,0,1-1.4939.2525c-.0199,0-.0383-.0056-.0581-.0059v-1.4011l1.6952.0046.0004-.5722-.2826-.0004v.2863h-1.413v-.5726l.2826-.2862h.283v-.2863h-.0004l.2826-.5726H13.883V12.427h-.5649v-.2863l.5652-1.1451h.5652l.0181-.1592a1.40356,1.40356,0,0,1,1.0943.0099l.018.1493h.5653l.4883.2515.0897.1553.2185-.0598C16.9339,11.49387,16.9156,11.64157,16.8957,11.78907Zm-9.3963,1.5406a2.68315,2.68315,0,0,1,.8837-.3294c.6451.0053,2.1086,1.1443,2.6738,1.1443l.0004.2863-.7772,1.3774A4.98572,4.98572,0,0,1,7.4994,13.32967ZM15.5992,7.98l-.0126.0611c.0084-.0356.0034-.0135-.0016.0066a.31609.31609,0,0,1-.25.2719l-2.7523.8762.0008-.005-.0851.0313c-.0932.0538.0237.0906-.0103.1776l-.0042.0553-.0661,1.5711c-.0199.1315.008.1539.1229.1911l.4723.2177c.1027.0197.2023.0913.2073.1694l-.0034.2065c-.0035.0561-.0237.0909-.0611.1037a.12117.12117,0,0,1-.0435.005H10.8225a.113.113,0,0,1-.1244-.1068v-.2463c-.0012-.0329.0252-.0634.024-.0526.0195-.0224.0451-.0398.021-.0174.0191-.0139.0351-.0244.0458-.0314.042-.0239.0798-.039.0371-.0189.0549-.0251.0897-.0375.0591-.0247l.0541-.0198h.0001l.002-.0007c.087-.0287.1691-.0503.034-.0105.1706-.0502.2771-.0754.1687-.0468.1371-.0352.2073-.0549.1497-.041.1428-.034.0484-.0557.1187-.0766.0996-.0301.1397-.0321.1195-.1999l.0003-.0274-.0042-.0186-.0608-1.5846a.43492.43492,0,0,0-.1786-.2046l-2.855-.8807v.6383a.63338.63338,0,0,1,.4032.1695l-.0034.2485h.6945v.1981H8.6857v.5748a1.34269,1.34269,0,0,1,.6756.2836v.5726H9.0787v1.1451h.2826l.2826.5725h.5652l.4918.9818a22.67621,22.67621,0,0,1-2.3174-.9749,3.32941,3.32941,0,0,0-.9763.4399,4.94574,4.94574,0,0,1-.3479-1.0866l.1768.1001.4296-.0328v-1.1451H7.3831V10.423a1.13248,1.13248,0,0,1,.653-.2828v-.5756H7.4234l-.1672-.0694c.0146-.0423.0242-.0869.04-.1287h.5941v-.2508a.69022.69022,0,0,1,.4224-.1672v-.7171a.70267.70267,0,0,1-.1146-.3692,4.99775,4.99775,0,0,1,.3967-.4161l1.5923-.0048-.0008-.4512h.1287l.0008.4508.9705-.0035c.1314.0027.2016-.0496.2077-.2124l-.0019-.5037a1.16736,1.16736,0,0,1,.2409-.5785c.0779-.0036.1513-.0232.2302-.0232.0902,0,.1744.0218.2634.0265a.81971.81971,0,0,1,.2508.5756l.0046.5017c-.0057.135.0332.2163.1981.214l.8124.0023v-.4488h.1287v.4492l1.6745.0031c.0135.0004.0251.0047.0388.0053.097.0892.1904.1795.2801.276A1.88228,1.88228,0,0,1,15.5992,7.98Zm-4.6618,3.422.0039-.0011-.0021.0007Z"/>
  </g>
</svg>
