<svg xmlns="http://www.w3.org/2000/svg" width="29" height="29" viewBox="0 0 29 29">
  <defs>
    <style>
      .cls-1 {
        fill: #fff;
        fill-rule: evenodd;
      }
    </style>
  </defs>
  <g id="Layer_5" data-name="Layer 5">
    <path class="cls-1" d="M14.5041,2.0091A11.52094,11.52094,0,0,0,16.7078,8.579c2.3456,3.2881,9.5208,5.0764,6.6232,9.4604-2.8978,4.3841-8.3099-1.5794-8.3099-1.5794a12.88561,12.88561,0,0,0,.7795,5.124C16.7502,23.7221,20.4508,26,20.4508,26H8.5492s3.7006-2.2779,4.6503-4.416a12.88667,12.88667,0,0,0,.7794-5.124s-5.4122,5.9635-8.3098,1.5794c-2.8977-4.384,4.2775-6.1723,6.6231-9.4604A11.52245,11.52245,0,0,0,14.496,2.0091"/>
  </g>
</svg>
