<svg xmlns="http://www.w3.org/2000/svg" xmlns:xlink="http://www.w3.org/1999/xlink" width="24" height="24" viewBox="0 0 24 24">
  <defs>
    <style>
      .cls-1 {
        opacity: 0.36;
        fill: url(#linear-gradient);
      }

      .cls-2 {
        fill: url(#linear-gradient-2);
      }

      .cls-3, .cls-4, .cls-7 {
        fill-rule: evenodd;
      }

      .cls-3 {
        fill: url(#linear-gradient-3);
      }

      .cls-4 {
        fill: url(#linear-gradient-4);
      }

      .cls-5 {
        fill: #6e210d;
        opacity: 0.39;
      }

      .cls-6 {
        opacity: 0.38;
      }

      .cls-7 {
        fill: url(#linear-gradient-5);
      }

      .cls-8 {
        fill: #ffffa0;
      }
    </style>
    <linearGradient id="linear-gradient" x1="12.47852" y1="23.50439" x2="12.47852" y2="1.52942" gradientUnits="userSpaceOnUse">
      <stop offset="0"/>
      <stop offset="0.2885" stop-color="#020202"/>
      <stop offset="0.39241" stop-color="#090909"/>
      <stop offset="0.46647" stop-color="#141414"/>
      <stop offset="0.52594" stop-color="#252525"/>
      <stop offset="0.55122" stop-color="#2f2f2f"/>
      <stop offset="1" stop-color="#2f2f2f"/>
    </linearGradient>
    <linearGradient id="linear-gradient-2" x1="12.47852" y1="23.00439" x2="12.47852" y2="2.01294" xlink:href="#linear-gradient"/>
    <linearGradient id="linear-gradient-3" x1="12.47826" y1="22.50435" x2="12.47826" y2="2.50435" gradientUnits="userSpaceOnUse">
      <stop offset="0" stop-color="#6e210d"/>
      <stop offset="1" stop-color="#ff8752"/>
    </linearGradient>
    <linearGradient id="linear-gradient-4" x1="12.47827" y1="12.96899" x2="12.47827" y2="2.50433" gradientUnits="userSpaceOnUse">
      <stop offset="0" stop-color="#fff" stop-opacity="0"/>
      <stop offset="0.00545" stop-color="#fff" stop-opacity="0.01109"/>
      <stop offset="0.12564" stop-color="#fffff7" stop-opacity="0.23977"/>
      <stop offset="0.24886" stop-color="#fffff1" stop-opacity="0.44249"/>
      <stop offset="0.37226" stop-color="#ffffeb" stop-opacity="0.61353"/>
      <stop offset="0.49601" stop-color="#ffffe7" stop-opacity="0.75316"/>
      <stop offset="0.62022" stop-color="#ffffe3" stop-opacity="0.86148"/>
      <stop offset="0.74503" stop-color="#ffffe1" stop-opacity="0.9386"/>
      <stop offset="0.87103" stop-color="#ffffdf" stop-opacity="0.98473"/>
      <stop offset="1" stop-color="#ffffdf"/>
    </linearGradient>
    <linearGradient id="linear-gradient-5" x1="12.25123" y1="8.19028" x2="12.25123" y2="15.97749" gradientUnits="userSpaceOnUse">
      <stop offset="0" stop-color="#ffe5a6"/>
      <stop offset="1" stop-color="#ffc849"/>
    </linearGradient>
  </defs>
  <g id="Layer_1" data-name="Layer 1">
    <path class="cls-1" d="M21.74023,11.85693l-8.499-9.99951a1.05014,1.05014,0,0,0-1.52441-.00049l-8.499,9.999a.99277.99277,0,0,0-.001,1.2959l8.499,9.99951a.9998.9998,0,0,0,1.52441.00049l8.499-9.999A.99277.99277,0,0,0,21.74023,11.85693Z"/>
    <path class="cls-2" d="M21.35938,12.18066l-8.5-10a.51628.51628,0,0,0-.76172,0l-8.5,10a.49861.49861,0,0,0,0,.64746l8.5,10a.49959.49959,0,0,0,.76172,0l8.5-10A.49864.49864,0,0,0,21.35938,12.18066Z"/>
  </g>
  <g id="Layer_5" data-name="Layer 5">
    <path class="cls-3" d="M12.47826,22.50435l-8.5-10,8.5-10,8.5,10Z"/>
    <polygon class="cls-4" points="4.103 12.651 4.373 12.969 12.478 3.434 20.583 12.969 20.854 12.651 20.854 12.651 20.978 12.504 12.478 2.504 3.978 12.504 4.103 12.651 4.103 12.651"/>
  </g>
  <g id="Layer_3" data-name="Layer 3">
    <path class="cls-5" d="M18.291,12.25l.00488-.00977a.62688.62688,0,0,0-.13574-.68066l-.4961-.49705a.62975.62975,0,0,0-.44238-.18313H16.375l-.86133-.43115a.62547.62547,0,0,0-.165-.05517.63508.63508,0,0,0-.05371-.16162l-.04785-.09473,1.46777-.00147a.62439.62439,0,0,0,.625-.63379L17.333,9.02a.62867.62867,0,0,0-.627-.61621l-2.32128.00683-.083-.167a.62135.62135,0,0,0-.55957-.34619h-.9375a.62536.62536,0,0,0-.55274-.332H10.76074a.6238.6238,0,0,0-.55371.33447.62064.62064,0,0,0-.50195.34326l-.99317,1.98731a.6081.6081,0,0,0-.05566.16308.623.623,0,0,0-.16211.05469l-.8623.43115H7.28223a.62978.62978,0,0,0-.44239.18313l-.498.498a.62738.62738,0,0,0-.13379.68213l.0039.00732a.616.616,0,0,0-.05175.24854v1.49121a.63063.63063,0,0,0,.0664.27978l.99414,1.98779a.621.621,0,0,0,.5586.34522H9.7666a.63.63,0,0,0,.53223-.29639.6226.6226,0,0,0,.02637-.6084l-.04493-.08935h3.94141l-.04492.08887a.62412.62412,0,0,0,.55859.90527h1.98828a.621.621,0,0,0,.5586-.34522l.99414-1.98681a.63793.63793,0,0,0,.0664-.28076V12.49854A.616.616,0,0,0,18.291,12.25Z"/>
    <path class="cls-6" d="M17.999,12.25a.40453.40453,0,0,0,.06543-.105.37726.37726,0,0,0-.08105-.40869l-.4961-.49707a.37586.37586,0,0,0-.26562-.10987h-.90527l-.91407-.45751a.37593.37593,0,0,0-.168-.03956h-.14454a.37682.37682,0,0,0-.01855-.28906l-.22852-.45605,1.87207-.002a.3743.3743,0,0,0,.375-.38037L17.083,9.02344a.37493.37493,0,0,0-.375-.36963h-.001l-2.47656.00732L14.07812,8.355a.3746.3746,0,0,0-.33593-.20752H12.625a.37568.37568,0,0,0-.373-.332H10.76074a.37568.37568,0,0,0-.373.332h-.124a.37426.37426,0,0,0-.335.20752l-.99414,1.98828a.37252.37252,0,0,0-.01953.28906h-.1416a.379.379,0,0,0-.168.03956l-.915.45751h-.4082a.37589.37589,0,0,0-.26563.10987l-.49707.49707a.37726.37726,0,0,0-.081.40869.40453.40453,0,0,0,.06543.105.374.374,0,0,0-.09375.24854v1.49121a.373.373,0,0,0,.04.168l.99414,1.9878a.37469.37469,0,0,0,.335.207H9.7666a.37431.37431,0,0,0,.335-.543l-.9541-1.9082V12.50488l.333.248a.37337.37337,0,0,0-.08887.24268v.99414a.373.373,0,0,0,.04.168l.49707.99366a.3747.3747,0,0,0,.335.207h3.97559a.37552.37552,0,0,0,.33594-.20752l.49609-.99365a.37908.37908,0,0,0,.03906-.16651l.00195-.99414a.37693.37693,0,0,0-.08593-.24023l.32812-.21875v1.36377l-.9541,1.9082a.37432.37432,0,0,0,.335.543h1.98828a.37469.37469,0,0,0,.335-.207l.99414-1.9878a.373.373,0,0,0,.04-.168V12.49854A.374.374,0,0,0,17.999,12.25Z"/>
    <path class="cls-7" d="M16.72355,15.97749H14.73582l.99384-1.988v-1.491h1.98773v1.491Zm-1.98658-3.479H9.76708l-.66787-.497H6.78506l.497-.497h.497l.99394-.497h6.461l.994.497h.99394l.49545.497H15.48251Zm-.00115-1.988H9.26963l.99389-1.988.49754,0v-.3323h1.491v.3323l1.48989,0,.25709.51424,2.70946-.008.00622.48154-2.47777.00224Zm-5.963,3.479.99384,1.988H7.7789l-.99384-1.988v-1.491H8.77279Zm5.96418-.994-.0013.994-.49684.994H10.26362l-.49689-.994.00035-.994Z"/>
    <g>
      <rect class="cls-8" x="10.76099" y="8.19031" width="1.49109" height="0.31"/>
      <polygon class="cls-8" points="10.264 8.833 10.761 8.833 10.761 8.523 10.264 8.523 9.27 10.51 9.425 10.51 10.264 8.833"/>
      <polygon class="cls-8" points="12.252 8.833 13.742 8.833 13.999 9.347 16.708 9.339 16.711 9.51 16.715 9.51 16.708 9.029 13.999 9.037 13.742 8.523 12.252 8.523 12.252 8.833"/>
      <polygon class="cls-8" points="7.282 11.815 7.779 11.815 8.773 11.318 15.234 11.318 16.228 11.815 17.222 11.815 17.408 12.002 17.717 12.002 17.222 11.505 16.228 11.505 15.234 11.008 8.773 11.008 7.779 11.505 7.282 11.505 6.785 12.002 7.095 12.002 7.282 11.815"/>
      <polygon class="cls-8" points="14.581 10.51 14.736 10.51 14.392 9.822 14.237 9.823 14.581 10.51"/>
      <rect class="cls-8" x="15.72974" y="12.49854" width="1.98767" height="0.31"/>
      <polygon class="cls-8" points="8.773 14.299 9.612 15.977 9.767 15.977 8.773 13.99 8.773 14.299"/>
      <polygon class="cls-8" points="14.891 15.977 15.73 14.299 15.73 13.99 14.736 15.977 14.891 15.977"/>
      <rect class="cls-8" x="6.78503" y="12.49854" width="1.98767" height="0.31"/>
      <polygon class="cls-8" points="14.737 13.306 14.737 12.996 9.767 12.996 9.767 13.99 9.767 13.99 9.767 13.306 14.737 13.306"/>
    </g>
  </g>
</svg>
