<svg xmlns="http://www.w3.org/2000/svg" xmlns:xlink="http://www.w3.org/1999/xlink" width="36" height="36" viewBox="0 0 36 36">
  <defs>
    <style>
      .cls-1 {
        opacity: 0.73;
      }

      .cls-2, .cls-4, .cls-5, .cls-6 {
        fill-rule: evenodd;
      }

      .cls-2 {
        fill: url(#linear-gradient);
      }

      .cls-3 {
        opacity: 0.93;
        fill: url(#linear-gradient-2);
      }

      .cls-4, .cls-5 {
        opacity: 0.57;
      }

      .cls-4 {
        fill: url(#linear-gradient-3);
      }

      .cls-5 {
        fill: url(#linear-gradient-4);
      }

      .cls-6 {
        fill: #fff;
      }
    </style>
    <linearGradient id="linear-gradient" x1="1" y1="16.50005" x2="31.9999" y2="16.50005" gradientUnits="userSpaceOnUse">
      <stop offset="0" stop-color="#855a27"/>
      <stop offset="1" stop-color="#feed90"/>
    </linearGradient>
    <linearGradient id="linear-gradient-2" x1="10.02544" y1="31.79452" x2="19.53173" y2="2.73088" gradientUnits="userSpaceOnUse">
      <stop offset="0" stop-color="#a57b40"/>
      <stop offset="0.30136" stop-color="#f2c47b"/>
      <stop offset="0.34738" stop-color="#f4ce7d"/>
      <stop offset="0.52096" stop-color="#fcf282"/>
      <stop offset="0.61424" stop-color="#ffff84"/>
      <stop offset="0.95121" stop-color="#fffff7"/>
    </linearGradient>
    <linearGradient id="linear-gradient-3" x1="12.57054" y1="12.6974" x2="16.61402" y2="16.61044" gradientUnits="userSpaceOnUse">
      <stop offset="0" stop-color="#855a27" stop-opacity="0"/>
      <stop offset="1" stop-color="#caac50"/>
    </linearGradient>
    <linearGradient id="linear-gradient-4" x1="13.75593" y1="22.57453" x2="19.10375" y2="1.96583" gradientUnits="userSpaceOnUse">
      <stop offset="0.00488" stop-color="#fcec8d" stop-opacity="0"/>
      <stop offset="1" stop-color="#feef98"/>
    </linearGradient>
  </defs>
  <g id="Layer_7" data-name="Layer 7">
    <polygon class="cls-1" points="32 0 23 0 22.293 0.293 0.293 22.293 0 23 0 32 1.707 32.707 32.707 1.707 32 0"/>
    <path class="cls-2" d="M23,1h8.9999L1,32.0001V23Z"/>
    <path class="cls-3" d="M29.58569,2,2,29.58594V23.41418L23.41418,2h6.17151m2.41419-1H23L1,23v9.00012L31.99988,1Z"/>
    <path class="cls-4" d="M23,1h8.9999L1,32.0001V23Z"/>
    <path class="cls-5" d="M23,1h8.9999L1,32.0001V23Z"/>
    <polygon class="cls-6" points="23 1 23 2 31.011 2.011 32 1 23 1"/>
  </g>
</svg>
