<svg xmlns="http://www.w3.org/2000/svg" xmlns:xlink="http://www.w3.org/1999/xlink" width="39.963" height="40" viewBox="0 -46.9 865 865.801">
  <defs>
    <style>
      .cls-1 {
        fill: #fff;
        fill-rule: evenodd;
      }
    </style>
    <clipPath id="clip-path">
      <rect width="865" height="772"/>
    </clipPath>
  </defs>
  <g clip-path="url(#clip-path)">
    <path id="Color_Fill_1" data-name="Color Fill 1" class="cls-1" d="M453,42c34.274-2.942,77.154-4.616,110,2v3h-2c-5.7,3.983-14.741,1.227-23,3-26.565,5.7-58.619.8-85,0v2c1.554,1.608-.718.568,1,2,2.876,1.791,12.141,2.3,15,3,1.907,7.575,6.555,15.505,9,23,8.691,26.643,10.607,59.663,11,93l98,8V130h5c-0.637,15.781-.979,34.677-1,52,17.766-.281,40.877,1.451,57,5,18.378,4.046,38.574,1.148,56,5l21,1c22.285,5.015,49.154,2.726,71,8,20.354,4.914,55.324,6.785,55,31,3.076,0.938,8.624,1.847,10,5,12.587,18.8-11.217,45.953-20,52-24.378,16.785-55.914,20.355-91,30-9.1,2.5-16.67,1.59-26,4-15.328,3.959-33.2,8.786-50,10v3c-6.029.142-11.107,2.618-16,3-2.94.229-1.755-2.691-6-2-27.448,4.467-58.116,10.152-85,17-16.423,4.183-37.8,2.321-50,11-14.021,9.975-17.077,33.8-23,52-7.267,22.332-9.308,50.981-15,76q-1.5,18.5-3,37l-10,69h1v1c10.887,0.548,21.538,5.113,31,8,22.019,6.718,44.326,10.224,65,17,13.946,4.571,28.429,5.345,39,13,6.356,4.6,14.046,17.668,9,30-11.312,27.646-82.42,21.429-116,29-14.855,3.35-39.044-2.162-46,7-4.116,5.667-2.932,15.268-5,23-3.915,14.635-6.657,32.11-12,45h-1v-1c-11.148-15-9.337-49.119-17-68-9.88-5.054-21.472-1.786-36-5-23.415-5.18-50.691-3.8-74-9-23.814-5.311-46.746-1.2-53-24-6.358-23.176,17.081-30.5,31-35,25.168-8.143,53.138-14.262,79-22,11.009-3.294,26.252-2.844,35-9,0.752-1.073.6-.946,1-3-6.431-10.4-4.512-43.173-8-58-3.273-13.913-1.461-29.949-5-45-3.856-16.4-3.579-34.9-8-52-3.223-12.461-7.2-25.681-11-37-4.84-14.429-7.846-31.093-19-39-7.476-5.3-17.643-4.221-28-7-20.449-5.486-42.66-6.411-64-12a306.727,306.727,0,0,0-65-10v-3c-17.472-.752-44.681-7.426-61-12-13.966-3.914-26.84-3.071-41-7C46.477,302.756-9.988,291.733,2,235c8.3-2.342,10.554-1.661,10-13,5.843-3.694,11.3-9.091,18-12,19.208-8.341,43.433-9.933,68-13l1-46h2v21c2.926,4.534,1.133,18.374,1,25,56.3-3.281,112.168-14.34,170-15,0.058-17.327-.293-36.217-1-52h5v51l98-8c-0.8-32.036,3.4-64.241,11-89,2.632-8.58,3.664-23.306,11-27,2.835-2.44,10.031-1.723,14-3-0.34-2.422-.327-0.883,0-4h-6c-4.993,3.3-12.78.483-20,2-21.326,4.482-65.322-.884-84-5V44h2c6.677-4.338,19.014-1.068,28-3,24.3-5.224,56.8-.977,80,1,2.1-12.07,6.292-36.308,17-40,1.919-1.772,3.136-1.9,7-2C446.59,12.392,448.7,21.77,453,42Z"/>
  </g>
</svg>
