<svg xmlns="http://www.w3.org/2000/svg" xmlns:xlink="http://www.w3.org/1999/xlink" width="39.995" height="40" viewBox="0 -86.559 950 950.119">
  <defs>
    <style>
      .cls-1 {
        fill: #fff;
        fill-rule: evenodd;
      }
    </style>
    <clipPath id="clip-path">
      <rect width="950" height="777"/>
    </clipPath>
  </defs>
  <g clip-path="url(#clip-path)">
    <path id="Color_Fill_1" data-name="Color Fill 1" class="cls-1" d="M581,142c-0.535-22.988-.017-64.779,12-74,2.1-1.273,7.924-.686,10-2,0.877-1.295.894-2.467,1-5-19.348,1.066-41.535,3.254-60-1-6.473-1.491-13.5.207-18-3,24.335-2.731,51.93-2.99,79-3,0.492-13.73,7.564-35.923,22-36,1.021,0.8.274,0.355,2,1,6.178,9.9,13.2,19.547,14,35,18.881-.3,41.584-2.822,59,1,7.485,1.643,15.076-.78,20,3-12.544.861-28.251,2.259-41,5-12.6,2.708-25.833-1.561-37-2v5a2.832,2.832,0,0,1,1,1h11c1.938,6.227,6.147,12.115,8,19,4.833,17.953,3.437,47.253,3,63,10.546,0,23.428.9,33,3,13.466,2.948,27.62.291,40,3,17.386,3.8,35.773.447,52,4h13c20.525,4.551,45.415,1.486,66,6,23.358,5.122,67.1-5.528,67,22h6q0.5,1.5,1,3c6.047,6.79,4.733,27.646,2,37-6.4,21.894-17.647,40.634-39,47-9.688,2.888-18.191,1.493-28,4-14.448,3.693-33.769,7.959-48,8-3.429.01-13.844,3.942-18,5-14.951,3.806-30.131,4.472-44,8-11.893,3.025-22.194,1.972-34,5-35.279,9.048-74.707,12.008-110,21-27.706,7.059-56.414,8.234-83,15-12.41,3.158-22.684,3.316-32,8,0.148,18.431,1.59,43.362-2,60-1.68,7.787.411,18.46-1,25v18c-2.194,10.1-.841,24-3,34q-2,34-4,68l-7,70c12.637,2.494,26.225,8.062,38,12,27.175,9.088,54.791,15.257,81,24,14.824,4.945,35.361,5.2,37,23,9,14.439-9.689,31.3-17,35-13.253,6.709-32.926,2.277-50,6-32.639,7.117-70.473,3.535-100,10-5.523,9.909-6.849,29.951-7,44h-1v-1c-4.854-6.427-3.632-28.878-6-41-12.151-6.667-27.206-2.42-43-6-23.382-5.3-56.9-1.847-83-8-11.781-2.777-21.738.36-30-5-6.782-4.4-11.69-13.209-14-22-7-26.653,22.049-29.788,38-35,24.932-8.146,52.193-15.67,77-24,11.4-3.83,32.568-5.512,41-12,1.142-1.69,1.066-4.9,1-8-2.972-4.865-.56-12.448-2-19-3.893-17.708-.923-38.286-5-57-2.671-12.258-1.321-28.592-4-41V482c-2.285-10.554.553-23.2-2-35-2.918-13.486,1.254-29.951-2-45-3.392-15.69-1.918-37.317-2-54-23.96-12.775-66.411-11.885-98-20-71.421-18.349-149.52-22.851-221-41-20.5-5.2-41.507-6.056-61-11l-20-3c-16.466-6.765-26.13-20.317-33-37-3.124-7.585-8.041-22.291-5-35l4-13a21.507,21.507,0,0,1,7-1v-8c5.962-3.845,10.943-8.936,19-11l75-5c20.272-4.428,44.722-1.6,65-6h14c12-2.617,25.832-.127,39-3,17.7-3.862,40.149-4.574,59-5-0.627-23.571-.518-48.317,5-66,1.668-5.345,2.425-13.909,7-16h10V66c0.877-1.295.894-2.467,1-5-19.348,1.066-41.535,3.254-60-1-6.473-1.491-13.5.207-18-3,24.335-2.731,51.93-2.99,79-3,0.464-13.943,7.333-35.931,22-36,7.355,9.858,15.186,19.324,16,36,18.916-.3,41.5-2.84,59,1,7.485,1.642,15.076-.78,20,3l-41,5c-12.6,2.708-25.832-1.561-37-2v5a2.832,2.832,0,0,1,1,1h10c11.34,18.281,11.893,44.667,12,75,23.357,0.278,50.225-1.42,71-6v-2c3.945-6.769.939-23.038,3-32,6.011-26.136,8.7-53.342,17-76,3.059-8.352,3.68-19,10-24,3.438-2.838,7.256-1.61,11,0,13.906,25.54,17.252,58.684,25,91,2.072,8.641.677,39.838,6,43,4.309,2.981,10.478.6,17,2C544.718,141.379,563.721,141.991,581,142Z"/>
  </g>
</svg>
