<svg xmlns="http://www.w3.org/2000/svg" xmlns:xlink="http://www.w3.org/1999/xlink" width="40.001" height="40" viewBox="0 -69.986 1105 1104.972">
  <defs>
    <style>
      .cls-1 {
        fill: #fff;
        fill-rule: evenodd;
      }
    </style>
    <clipPath id="clip-path">
      <rect width="1105" height="965"/>
    </clipPath>
  </defs>
  <g clip-path="url(#clip-path)">
    <path id="Color_Fill_1" data-name="Color Fill 1" class="cls-1" d="M991,701c-0.1-8.759-.656-23.229,2-31h1v20c1.644,2.477,1.123,8.9,1,13,22.5,9.415,46.73,17.764,69,27,5.27,2.187,10.42,2.048,15,5,3.8,2.452,7.28,7.3,11,10,2.83,2.046,7.09,3.161,9,6,15.36,22.8-8.55,71.165-17,85-3.96,6.491-6.07,16.721-13,20-6.3-3.8-16.92-1.141-25-3-18.65-4.29-39.22-2.5-59-7-21.078-4.791-45.9-4.182-67-9l-17-1c-18.719-4.246-39.063-2.513-59-7-14.232-3.2-31.684-5.209-47-6-1.862,3.157-3.968,6.68-5,11-2.194,9.183,1.476,21.05-3,28,0.312-9.528-1.466-37.162-7-40-2.187-1.364-5.623-.25-9-1-16.6-3.688-35.14-1.139-53-5-22.531-4.87-78.19-10.884-94,0-12.846,8.844-16.54,28.9-17,50h-3c-1.532,7.508-4.816,16.083-8,23h7c7.151,4.278,19.81-.006,29,2,15.092,3.294,33.641,1.842,48,5,6.347,1.4,12.6-.885,17,2-37.377-.314-72.123,7.645-110,8a2.834,2.834,0,0,1-1,1c0.263,18.129-8.6,33.789-16,45-2.313,3.5-5.268,11.316-9,13H543c-10.891-16.824-24.56-32.246-26-59-10.822-.055-25.54-0.454-37-3-13.106-2.912-27.97-.3-40-3-8.71-1.953-27.777.941-34-3,32.467-.513,66.542-6.839,100-8q-2-11.5-4-23h-5v-2c-4.238-7.054-.449-18.084-3-27-1.677-5.861-7.432-15.657-12-19-12.806-9.372-35.743-10.325-55-6l-104,9c-5.691,10.5-2.971,31.833-8,39a136.165,136.165,0,0,0-4-35l-3-1c-1.758-1-8.987-.954-13,0-13.023,3.1-27.89,1.669-42,5-39.779,9.389-86.737,5.623-126,16l-34,3c-13.17,3.055-29.551,3.653-43,6-4.186.731-15.669,2.126-17,1C20.036,841.877,7.233,811.49,2,791c-2.6-10.176-2.654-32,2-39,9.544-14.363,28.748-18.9,46-26,23.978-9.873,49.249-17.759,74-28,77.3-31.986,158.806-59.128,236-91,40.448-16.7,85.942-26.156,115-54V506c4.806-3.02,8.815-6.026,16-7,0.261-12.555,5.031-14.587,8-22V378c4.32-19.93-1.188-45.575,3-65V293c2.755-12.7-.016-27.134,3-41,4.646-21.358,5.839-49.434,6-73-47.5.413-91.671-13.153-139-14-0.334-3.811-3.259-15.313-5-19l2-3-3-2c-2.63-4.591-2.079-12.458-1-18,13.3-7.313,33.644-4.066,51-8,16.472-3.734,34.471-2.071,52-6a265.264,265.264,0,0,1,52-6,372.708,372.708,0,0,1,11-73c2.975-11.689,1.332-23.335,12-27,3.1-2.456,9.268-2.151,15-2,2.46,2.357,7.046,3.19,9,6,7.9,11.363,8.8,44.709,13,62q1.5,16.5,3,33c1.453,2.218,29.594,2.747,35,4,37.6,8.716,80.627,7.09,118,15,1.708,2.725,2.536,2.5,3,7,4.012,6.2-3.289,11.68-5,15-0.883,1.714,1.362.8,2,1,1.141,6.737-2.163,16.51-5,20-6.76,4.081-18.289,1.04-27,3-26.23,5.9-56.757,4.153-83,10-8.67,1.932-21.255-1.295-28,3-1.142,1.69-1.066,4.9-1,8,3.5,5.761.345,15.4,2,23,3.33,15.285.407,32.468,4,49,4.307,19.819.584,44.5,5,65,2.294,10.653-1.025,24.6,1,34,3.529,16.385-2.26,36.864,1,52v66c0.741,2.186,4.047,4.748,5,7l3,15c5.3,1.018,14.09,3.739,16,8v47c7.826,4.909,13.829,13,22,18,5.263,3.222,10.911,3.468,17,6,16.749,6.965,34.462,12.712,52,20,49.575,20.6,101.452,37.131,152,58,26.641,11,54.569,19.667,82,31C965.231,691.64,977.869,699.057,991,701Z"/>
  </g>
</svg>
