<svg xmlns="http://www.w3.org/2000/svg" width="40" height="40" viewBox="0 0 40 40">
  <defs>
    <style>
      .cls-1 {
        fill: #fff;
        fill-rule: evenodd;
      }
    </style>
  </defs>
  <path id="Color_Fill_1" data-name="Color Fill 1" class="cls-1" d="M20.873,5.782h0.086a0.819,0.819,0,0,1,.029-0.365Q21,5.7,21.016,5.979H20.9a4.116,4.116,0,0,0,.057.9,0.883,0.883,0,0,1,.2.084V7.018H21.1a0.9,0.9,0,0,0-.172-0.084V7.411a0.3,0.3,0,0,1,.029.168h0.029V7.523a3.757,3.757,0,0,0,.4-0.954c0.068-.153.205-0.347,0.257-0.505V5.7a2.4,2.4,0,0,1,.086-0.954h0.057a0.32,0.32,0,0,1,.057.2,2.821,2.821,0,0,1-.172,1.516c-0.219.568-.515,1.185-0.686,1.768q0.028,1.01.057,2.021a0.933,0.933,0,0,1,.372.505,1.725,1.725,0,0,0-.229.674c0.092,0.062.138,0.2,0.229,0.253a0.593,0.593,0,0,1,.257.112,1.27,1.27,0,0,1,.086.309,2.067,2.067,0,0,0,.258.337c0.569,0.748,1.231,1.432,1.8,2.189,0.267,0.354.585,0.678,0.858,1.039a2.4,2.4,0,0,1,.315.337v1.235H24.964v0.028a11.082,11.082,0,0,0-1.43-.449,11.57,11.57,0,0,0-1.774-.561v1.067a2.84,2.84,0,0,0,.429.533c0.342,0.465.693,0.917,1.03,1.376a1.942,1.942,0,0,0,.429.561l0.086-.253h0.029v0.028c0.135,0.153.053,0.5,0.172,0.674s0.305,0.333.429,0.505c0.3,0.418.583,0.82,0.887,1.235a5.862,5.862,0,0,1,.515.674h0.029V22.147a2.507,2.507,0,0,0,.114-0.365,0.1,0.1,0,0,1,.029.056,5.224,5.224,0,0,1,.114,1.179h0.057c0.135-.154.314-0.089,0.315-0.393a2.053,2.053,0,0,1,.2-1.291v0.028a2.655,2.655,0,0,1,.172,1.46l0.372,0.2V22.456a2.3,2.3,0,0,0,.029-0.449c0.017-.064.067-0.143,0.086-0.225H27.31v0.028a2.939,2.939,0,0,1,.114,1.375,0.225,0.225,0,0,1,.172.281,3.794,3.794,0,0,1,.029.674l0.057,0.028c0.019,0.093-.046.056-0.057,0.084v0.87c0.332,0.258.454,0.771,0.8,1.01v-1.01a1.129,1.129,0,0,1,.114-0.786H28.6v0.056a7.042,7.042,0,0,1,.086,2.133,2.508,2.508,0,0,1,.4.533c0.258,0.352.572,0.688,0.83,1.039a4.1,4.1,0,0,0,.458.618c-0.021.065-.1,0.117-0.057,0.14l0.143,0.2c0.045-.027.086-0.1,0.114-0.056a1.064,1.064,0,0,1,.4.73,0.187,0.187,0,0,0-.114.028h0.114a2.126,2.126,0,0,1-.286,1.039,1.925,1.925,0,0,1-.143.393H30.2a2.227,2.227,0,0,1-.6.028c-0.365.054-.847-0.025-1.23,0.056-0.366.078-.8-0.029-1.2,0.056-0.16.034-.434-0.014-0.629,0.028-0.944.2-2.06-.032-3,0.168-0.371.079-.893,0-1.259,0.056a1.917,1.917,0,0,0-.658.056c0.058,0.038.667,0.688,0.687,0.73v0.477l-0.315,2.667a3.061,3.061,0,0,0-.4.926l-0.687.028a4.308,4.308,0,0,0-.029-1.095,18.178,18.178,0,0,1-.343,2.3l-0.544.028v0.281h-0.2a4.16,4.16,0,0,1-.143.561,0.74,0.74,0,0,1,.258.393l-0.057.028V38.99l-0.057-.028V38.99a1.654,1.654,0,0,0-.172.786H19.386a4.084,4.084,0,0,1-.029-1.095c-0.063-.066-0.055-0.18-0.114-0.253a1.258,1.258,0,0,1-.172-0.084L19.1,38.26a0.259,0.259,0,0,0,.086-0.281H19.014V37.7l-0.572-.056a10.381,10.381,0,0,0-.257-1.488,2.862,2.862,0,0,0-.114-0.814v1.123l-0.687-.028a3,3,0,0,0-.4-0.954l-0.029-.393c-0.125-.521-0.072-1.1-0.2-1.656a2.627,2.627,0,0,1-.057-1.039,3.265,3.265,0,0,1,.658-0.758V31.607l-4.005-.2a0.986,0.986,0,0,0-.029-0.421v0.421L10,31.27a6.725,6.725,0,0,0-1.573-.056A8.484,8.484,0,0,1,8,29.754a0.187,0.187,0,0,0,.114-0.028H8a1.5,1.5,0,0,1,.4-0.758c0.045,0.027.086,0.1,0.114,0.056A0.5,0.5,0,0,0,8.687,28.8,0.123,0.123,0,0,1,8.6,28.716,2.742,2.742,0,0,0,9.058,28.1c0.216-.3.462-0.591,0.687-0.9a4.033,4.033,0,0,0,.544-0.674v-1.4a1.25,1.25,0,0,1,.086-0.786H10.46a2.847,2.847,0,0,0,.143.533,0.366,0.366,0,0,1-.057.253v1.039h0.029V26.105a8.325,8.325,0,0,0,.772-0.982v-0.87a6.471,6.471,0,0,1,.029-0.982,1.3,1.3,0,0,0,.172-1.095,2.667,2.667,0,0,0,.114-0.393,0.1,0.1,0,0,1,.029.056,2.96,2.96,0,0,1,.114,1.179h0.029c0.152-.132.343-0.1,0.343-0.393H12.119a0.4,0.4,0,0,1,.057-0.225,3.7,3.7,0,0,1,.029-0.814l0.143-.253h0.057c0.035,0.108.114,0.195,0.143,0.309a5.384,5.384,0,0,1,0,1.179c0.145,0.044.225,0.148,0.372,0.2V22.99a4.4,4.4,0,0,0,.029-0.954l0.086-.253a0.081,0.081,0,0,1,.029.028,1.462,1.462,0,0,1,.114.842h0.029V22.625a3.589,3.589,0,0,0,.372-0.505c0.26-.356.535-0.7,0.8-1.067a7.233,7.233,0,0,0,.715-0.9c0.072-.168.041-0.441,0.114-0.618a0.1,0.1,0,0,1,.029.056,0.476,0.476,0,0,1,.086.224,0.1,0.1,0,0,0,.029-0.056,2.058,2.058,0,0,0,.4-0.533c0.283-.394.594-0.779,0.887-1.179a4,4,0,0,0,.515-0.646V16.281a2.249,2.249,0,0,0-.629.2c-0.583.2-1.164,0.329-1.716,0.533-0.123.046-.772,0.225-0.772,0.225a5.2,5.2,0,0,1-.029-1.263,3.817,3.817,0,0,0,.687-0.842c0.5-.652,1.075-1.248,1.573-1.909,0.224-.3.487-0.566,0.715-0.87a1.154,1.154,0,0,0,.172-0.168v-0.7c0.147-.218.142-0.522,0.286-0.73a1.073,1.073,0,0,0,.486-0.926,5.2,5.2,0,0,0,.057-1.263L18.1,5.951l-0.143-.028V5.614c0.053-.086,0-0.308.057-0.393a1.348,1.348,0,0,0,.029.477H18.1V5.558A2.8,2.8,0,0,0,18.156,4.8L17.9,4.856V4.8h0.029a0.424,0.424,0,0,0,.229-0.168,11.01,11.01,0,0,0,.172-1.375,18.359,18.359,0,0,1,.6-1.965A9.336,9.336,0,0,0,19.471,0,0.1,0.1,0,0,1,19.5.056a4.8,4.8,0,0,1,.458,1.095,10.136,10.136,0,0,1,.858,3.537L21.073,4.8V4.856H21.016A0.273,0.273,0,0,0,20.845,4.8,4.17,4.17,0,0,0,20.873,5.782ZM14.036,17.4a0.1,0.1,0,0,1,.029.056H14.036V17.4Zm10.9,0a0.1,0.1,0,0,1,.029.056H24.935V17.4ZM17.412,29.586a6.134,6.134,0,0,0,.029,1.431A6.134,6.134,0,0,0,17.412,29.586ZM21.531,29.7v1.207a1.224,1.224,0,0,0,.029.477V30.175A1.224,1.224,0,0,0,21.531,29.7Zm-13.1,1.628a0.142,0.142,0,0,1,.029.084H8.429V31.326Zm11.042,8.618A0.1,0.1,0,0,1,19.5,40H19.471V39.944Z" transform="translate(0.516)"/>
</svg>
