<svg xmlns="http://www.w3.org/2000/svg" width="40" height="40" viewBox="0 0 40 40">
  <defs>
    <style>
      .cls-1 {
        fill: #fff;
        fill-rule: evenodd;
      }
    </style>
  </defs>
  <path id="Color_Fill_1" data-name="Color Fill 1" class="cls-1" d="M21.407,6.855H21.291a0.141,0.141,0,0,0-.029-0.087V6.855a2.957,2.957,0,0,1,.029.61c0.067,0.289.066,0.616,0.145,0.93,0.351,1.4.341,3.011,0.783,4.328,0.083,0.246.249,0.473,0.348,0.7a21.133,21.133,0,0,0,2.379,3.573c0.275,0.391.586,0.766,0.87,1.162a2.793,2.793,0,0,1,.319.378v0.93H26.079a3.655,3.655,0,0,0-.9-0.407c-0.527-.232-1.055-0.523-1.6-0.755v0.2a2.018,2.018,0,0,1,.058.378,3.013,3.013,0,0,0,.261.668,2.781,2.781,0,0,0,.609.523c0.362,0.271.646,0.652,1.016,0.93a6.511,6.511,0,0,1,.551.552,0.305,0.305,0,0,0,.2.116,0.311,0.311,0,0,1,.116-0.145v0.029a2.372,2.372,0,0,1,.087.378,2.939,2.939,0,0,0,.435.349c0.445,0.337.776,0.85,1.248,1.162a1.8,1.8,0,0,1,.087-0.494,0.1,0.1,0,0,1,.029.058,1.217,1.217,0,0,1,.087.639,0.585,0.585,0,0,0,.261.174,0.53,0.53,0,0,0,.029-0.174H28.6V23.559h0.058V22.832c0.024-.081.086-0.146,0.116-0.232h0.029v0.029a2.031,2.031,0,0,1,.145,1.162,1.735,1.735,0,0,0,.29.145V23.21l0.087-.262a0.105,0.105,0,0,1,.029.058,5.729,5.729,0,0,1,.087,1.075,0.7,0.7,0,0,0,.116.058,1.656,1.656,0,0,1,.029.639,4.48,4.48,0,0,1,.406.378c0.6,0.452,1.064,1.1,1.683,1.511v-0.29a0.8,0.8,0,0,1,.116-0.7v0.058a2.4,2.4,0,0,1,.087,1.133c0.212,0.14.354,0.374,0.551,0.523a8.384,8.384,0,0,1,.841.755,3.382,3.382,0,0,0,.464.465V25.97l0.087-.261h0.058v0.058a1.157,1.157,0,0,1,.087.639C33.989,26.736,34,27.162,34,27.538c0,1.664,0,3.325-.029,4.88a1.546,1.546,0,0,1-.435-0.087,0.451,0.451,0,0,0-.029-0.232v0.232a9.036,9.036,0,0,1-1.335-.262c-0.691-.179-1.4-0.207-2.06-0.378-0.939-.242-1.931-0.288-2.843-0.523-0.286-.074-0.526-0.043-0.812-0.116-0.447-.115-0.941-0.138-1.422-0.261a4.01,4.01,0,0,0-.783-0.145v0.7l5.02,4.967a11.691,11.691,0,0,1-.784,1.423,3.832,3.832,0,0,0-.29.378c-0.043.1,0.02,0.244-.029,0.32v-0.32l-0.522-.058a0.7,0.7,0,0,1-.029.32,0.356,0.356,0,0,0-.058-0.32A1.093,1.093,0,0,0,27.094,38a0.7,0.7,0,0,1-.029.32A0.7,0.7,0,0,0,27.036,38a2.986,2.986,0,0,0-.784-0.087c-0.5-.11-1.1-0.093-1.6-0.2l-0.522-.029a2.246,2.246,0,0,1-.29-0.784c-0.121-.331-0.29-0.733-0.377-1.075a1.27,1.27,0,0,1,.058-0.494q0.015-.465.029-0.93H23.525v0.029a3.071,3.071,0,0,0-.116.959c-0.066.3,0.047,0.739-.029,1.075-0.083.369-.091,0.883-0.174,1.249a5.274,5.274,0,0,1-1.828,0,0.454,0.454,0,0,1-.087-0.378,2.411,2.411,0,0,1-.058-0.639,6.216,6.216,0,0,1-.058-1.191H21.088q-0.029.929-.058,1.859a0.583,0.583,0,0,1-.493.378c0,0.131.1,0.337,0.087,0.349a0.319,0.319,0,0,0-.116.319l-0.087.581A5.993,5.993,0,0,1,20.015,40H19.986V39.971a2.911,2.911,0,0,1-.435-1.133l-0.058-.668-0.116-.087c-0.022-.076.083-0.212,0.087-0.349H19.347c-0.132-.128-0.25-0.245-0.377-0.378q-0.029-.93-0.058-1.859H18.825a6.849,6.849,0,0,1-.087,1.481,4.65,4.65,0,0,1-.087.726,16.887,16.887,0,0,1-1.828.029l-0.029-.087a1.937,1.937,0,0,1-.087-0.7,22.853,22.853,0,0,0-.232-2.556H16.446v0.465a1.8,1.8,0,0,1,.029.494,3.193,3.193,0,0,1-.377,1.714,1.083,1.083,0,0,1-.232.581L12.935,38a0.7,0.7,0,0,1-.029.32V38a2.548,2.548,0,0,0-.522.058,0.7,0.7,0,0,1-.029.32v-0.32l-0.522.058a0.7,0.7,0,0,1-.029.32,3.586,3.586,0,0,0-.754-1.481,3.281,3.281,0,0,0-.319-0.61,10.067,10.067,0,0,1,1.19-1.191l2.524-2.527,1.306-1.278v-0.7a7.079,7.079,0,0,0-1.567.291l-0.493.058c-0.75.195-1.6,0.271-2.35,0.465-0.386.1-.774,0.109-1.132,0.2-0.09.024-.284-0.017-0.319,0a7.274,7.274,0,0,1-1.248.29c-0.284.073-.559,0.054-0.812,0.145a0.53,0.53,0,0,1-.029.261V32.1c-0.609.034-1.165,0.3-1.77,0.32,0-1.429,0-2.765,0-4.3a11.7,11.7,0,0,1,.087-2.411H6.174v0.058a1.566,1.566,0,0,1,.087.813v2.033H6.29a1.937,1.937,0,0,1,.464-0.436l0.7-.726a3.477,3.477,0,0,0,.667-0.581V25.882a0.926,0.926,0,0,0,.087-0.2,0.082,0.082,0,0,1,.029.029,1.909,1.909,0,0,1,.087.959H8.35A2.409,2.409,0,0,1,8.9,26.173c0.347-.262.611-0.667,0.958-0.929a3.224,3.224,0,0,0,.551-0.465V24.256c0.241-.311.039-1.022,0.261-1.307v0.029a2,2,0,0,1,.087.959h0.058a0.34,0.34,0,0,0,.232-0.29,1.939,1.939,0,0,1,.145-1.046,0.1,0.1,0,0,1,.029.058,2.2,2.2,0,0,1,.116,1.133,0.406,0.406,0,0,0,.116.029,0.553,0.553,0,0,0,.174-0.465,1.762,1.762,0,0,0,.087-0.407,0.105,0.105,0,0,1,.029.058c0.085,0.1.041,0.319,0.116,0.436a4.332,4.332,0,0,1,.841-0.755l0.29-.32a3.071,3.071,0,0,0,.522-0.436,3.846,3.846,0,0,0,.087-0.407H13.66a0.4,0.4,0,0,0,.087.2V21.7l2.379-2.179a6.617,6.617,0,0,0,.319-1.22H16.388a3.732,3.732,0,0,1-.958.436,10.286,10.286,0,0,1-1.567.726v-0.9a4.907,4.907,0,0,0,.435-0.61c0.327-.456.682-0.9,1.016-1.365,1.1-1.536,2.126-2.615,2.7-4.735l0.2-1.452c0.223-.921.28-1.952,0.493-2.876,0.089-.386-0.013-0.757.058-1.075V5.926q0.1-1.234.2-2.469A16.889,16.889,0,0,1,19.986,0a0.083,0.083,0,0,1,.029.029,3.984,3.984,0,0,1,.493,1.336,17.49,17.49,0,0,1,.754,5.345,0.112,0.112,0,0,1,.058.087l0.087-.029V6.855Zm-2.815,0a0.14,0.14,0,0,1,.029-0.087,0.224,0.224,0,0,1,.087.087H18.593ZM32.172,32.3a0.1,0.1,0,0,1,.029.058H32.172V32.3Zm1.451,0.232a0.149,0.149,0,0,1,.029.087H33.594V32.593A0.105,0.105,0,0,0,33.623,32.535Zm-27.246.029c0.01,0.009.058,0.015,0.029,0.058C6.374,32.608,6.316,32.57,6.377,32.563Z" transform="translate(-0.016)"/>
</svg>
