<svg xmlns="http://www.w3.org/2000/svg" width="40" height="40" viewBox="0 0 40 40">
  <defs>
    <style>
      .cls-1 {
        fill: #fff;
        fill-rule: evenodd;
      }
    </style>
  </defs>
  <path id="Color_Fill_1" data-name="Color Fill 1" class="cls-1" d="M21.285,7.173h0.13a0.339,0.339,0,0,1,.033-0.194V7.237h-0.13l0.1,1.325v4.265h0.033v0.032a1.332,1.332,0,0,1,.879.323,5.931,5.931,0,0,1,.2,1.906l-0.032.485a13.632,13.632,0,0,0,.748,1.551c0.279,0.63.578,1.236,0.846,1.842a3.461,3.461,0,0,0,.228.582,6.427,6.427,0,0,0,1.009.808A2.643,2.643,0,0,0,26,20.9v-0.84a0.588,0.588,0,0,0,.163-0.291h0.065a0.919,0.919,0,0,0,.13.291V20.9c0.2,0.092.21,0.211,0.2,0.517,0.441,0.288.811,0.684,1.237,1a0.84,0.84,0,0,0,.423.323,0.932,0.932,0,0,0,.2-0.937,0.431,0.431,0,0,0,.13-0.291h0.1a1.087,1.087,0,0,0,.13.291v0.84c0.27,0.08.21,0.466,0.2,0.808a6.429,6.429,0,0,1,.879.743c0.661,0.495,1.234,1.1,1.887,1.583a2.815,2.815,0,0,1,1.139,1.163,7.5,7.5,0,0,1-.032,2.714,4.722,4.722,0,0,0-.163.614h-0.13a2.425,2.425,0,0,0-.033-0.9v0.9H32.447a3.4,3.4,0,0,0-.814-0.194c-0.678-.205-1.4-0.3-2.115-0.517-1.263-.382-2.617-0.625-3.872-1-0.359-.108-0.683-0.118-1.041-0.226-0.542-.163-1.123-0.248-1.692-0.42a3.385,3.385,0,0,0-.748-0.194c0,1.842-.093,3.6-0.1,5.363a7.2,7.2,0,0,1,.976.969c0.624,0.619,1.264,1.222,1.887,1.842a3.353,3.353,0,0,1,1.139,1.422,7.457,7.457,0,0,1,.1,1.906,0.464,0.464,0,0,1-.13.032A4.488,4.488,0,0,0,25.028,39c-0.676-.219-1.441-0.4-2.115-0.614a3.656,3.656,0,0,1-1.172-.355,0.786,0.786,0,0,1-.065-0.388h-0.13l-0.033.485a2.022,2.022,0,0,1-.553.032,0.838,0.838,0,0,1-.456,0,3.009,3.009,0,0,0-.033.808H20.439V38.288H20.407V38.32a3.5,3.5,0,0,0-.1,1.034,3.772,3.772,0,0,1-.325.646,1.315,1.315,0,0,0-.26-0.582c-0.1-.317-0.023-0.845-0.1-1.131H19.593a0.415,0.415,0,0,1-.032.226c0.017-.268.01-0.361-0.26-0.355a2.206,2.206,0,0,1-.781,0l-0.065-.517c-0.08-.042-0.022.014-0.065-0.065H18.357v0.162a0.752,0.752,0,0,0-.065.355,5.084,5.084,0,0,0-1.041.291c-0.69.224-1.359,0.293-2.05,0.517a6.308,6.308,0,0,1-1.334.355,6.376,6.376,0,0,1,.163-2.2,3.586,3.586,0,0,1,.911-1.034l1.887-1.874a8.342,8.342,0,0,0,1.139-1.131,11.112,11.112,0,0,1-.065-1.616c0-1.212-.067-2.422-0.065-3.683a5.916,5.916,0,0,0-1.139.291c-0.643.2-1.313,0.286-1.92,0.485-0.355.116-.684,0.117-1.041,0.226-1.23.375-2.471,0.542-3.775,0.937-0.5.153-1.061,0.227-1.594,0.388a3.536,3.536,0,0,1-1.009.226V30.242H7.325a7.462,7.462,0,0,0-.293-1.357A0.981,0.981,0,0,0,7.1,28.627a2.935,2.935,0,0,1,.358-2.2,1.73,1.73,0,0,1,.293-0.194c0.223-.166.42-0.377,0.651-0.549,0.558-.416,1.036-0.973,1.594-1.389a9.393,9.393,0,0,0,1.041-.84V22.746c0.313-.092.243-0.541,0.228-0.937a0.705,0.705,0,0,0,.13-0.291h0.065v0.032a1.854,1.854,0,0,1,.163,1.1,1.18,1.18,0,0,1,.2.162V22.779c0.427-.259.746-0.676,1.139-0.969a3.024,3.024,0,0,0,.488-0.355v-0.42a0.906,0.906,0,0,0,.228-0.969,0.7,0.7,0,0,0,.13-0.291h0.065v0.065A1.937,1.937,0,0,1,14,20.9h0.1a2.364,2.364,0,0,1,.586-0.485c0.251-.187.464-0.46,0.716-0.646a1.481,1.481,0,0,0,.293-0.194,1.009,1.009,0,0,0,.065-0.226c0.164-.369.347-0.738,0.521-1.131,0.268-.607.568-1.211,0.846-1.842a6.488,6.488,0,0,0,.39-0.775V14.443a12.172,12.172,0,0,1,.163-1.292,2.293,2.293,0,0,1,.911-0.291,51.385,51.385,0,0,1,.13-5.622,0.345,0.345,0,0,1-.2-0.032h0.2A10.84,10.84,0,0,1,19.17,4.75c0.1-.347.1-0.637,0.228-0.969,0.164-.442.427-0.951,0.553-1.389V1.874A7.208,7.208,0,0,1,19.984.291,1.214,1.214,0,0,1,20.016,0c0.048,0.492.032,1.1,0.032,1.648V2.359c0.08,0.252.254,0.557,0.358,0.808a17.329,17.329,0,0,1,.521,1.939A8.493,8.493,0,0,1,21.285,7.173Z" transform="translate(0)"/>
</svg>
