<svg xmlns="http://www.w3.org/2000/svg" width="40" height="40" viewBox="0 0 40 40">
  <defs>
    <style>
      .cls-1 {
        fill: #fff;
        fill-rule: evenodd;
      }
    </style>
  </defs>
  <path id="Color_Fill_1" data-name="Color Fill 1" class="cls-1" d="M20.509,3.349a0.626,0.626,0,0,1,.381.129c0.338,0.566.1,1.532,0.254,2.254,0.441,2.013,0,4.721.445,6.763l0.064,1.8a4.405,4.405,0,0,0,.445.58c0.452,0.688.914,1.386,1.335,2.061,0.508,0.815,1.036,1.6,1.526,2.383a8.56,8.56,0,0,0,.827,1.417,14.4,14.4,0,0,0,1.653,1.417l0.7,0.773c1.032,0.789,1.918,1.757,2.861,2.641v1.417H30.936a5.345,5.345,0,0,0-1.907.129,16.424,16.424,0,0,1-4.069.515,14.67,14.67,0,0,0-3.433.064c0.17,0.97-.2,3.471.127,3.994a1.557,1.557,0,0,1,.064-0.709v0.064a17.508,17.508,0,0,1,1.59,2.705,10.461,10.461,0,0,1,1.4,2.319h0.127a2.02,2.02,0,0,1,.127-1.1V35.1c0.319,0.5-.021,3.194-0.127,3.672H24.705a5.688,5.688,0,0,0-1.4-.966,21.263,21.263,0,0,0-2.035-1.417,0.844,0.844,0,0,0-.064-0.451,0.314,0.314,0,0,1-.064.193,0.887,0.887,0,0,0-.763-0.129,4.317,4.317,0,0,1-.254.9C20.049,37.756,20.412,39.35,20,40a7.41,7.41,0,0,0-.191-1.546l0.127-1.739c-0.03-.073-0.22-0.165-0.254-0.258a2.871,2.871,0,0,0-.064-0.386,1.523,1.523,0,0,0-.7-0.065c-0.311.922-2.907,1.979-3.688,2.963-0.075-.952-0.475-2.927-0.127-3.994h0.064a3.1,3.1,0,0,0,.127,1.1V36.006h0.064a21.175,21.175,0,0,1,1.462-2.383c0.32-.512.508-1.033,0.827-1.546a6.4,6.4,0,0,0,.89-1.353l-0.064-.58V27.633H13.96a35.436,35.436,0,0,0-4.832-.773,1.012,1.012,0,0,1-.064.515c0-.689-0.016-1.336,0-1.868,0.8-.54,1.346-1.422,2.1-2,0.878-.671,1.555-1.6,2.416-2.254a3.857,3.857,0,0,0,.827-0.709c0.692-.969,1.213-2.014,1.844-3.027,0.491-.788,1.019-1.568,1.526-2.383A7.025,7.025,0,0,0,18.41,14.3V13.462a4.832,4.832,0,0,1,.127-1.031V11.143c0.2-.928-0.082-2.048.127-3.027l0.445-4.7,0.7-.064A3.9,3.9,0,0,1,20,2.512h0.064a1.29,1.29,0,0,0,.318.837V1.288c-0.089-.013.026,0.053-0.064,0.064-0.049.124-.064-0.129-0.064-0.129,0.278-.19.02-0.932,0.191-1.224C20.433,1.21,20.5,1.933,20.509,3.349Zm-2.1,27.762a2.139,2.139,0,0,0,.064.9A2.139,2.139,0,0,0,18.41,31.111Zm3.116,0.966a1.188,1.188,0,0,0,.064.58A1.188,1.188,0,0,0,21.526,32.077Zm-3.052.258a0.544,0.544,0,0,0,.064.322A0.545,0.545,0,0,0,18.474,32.335Zm3.116,0.387c-0.021.089,0.09,0.093,0.127,0.129C21.761,32.782,21.607,32.741,21.59,32.721Zm-0.127.322a0.844,0.844,0,0,0,.064.451A0.843,0.843,0,0,0,21.462,33.044Zm-2.925.064a1.011,1.011,0,0,0,.064.515A1.012,1.012,0,0,0,18.538,33.108ZM21.4,33.752a1.012,1.012,0,0,0,.064.515A1.011,1.011,0,0,0,21.4,33.752Zm-2.8.129a1.012,1.012,0,0,0,.064.515A1.012,1.012,0,0,0,18.6,33.881Zm2.734,0.644a1.012,1.012,0,0,0,.064.515A1.012,1.012,0,0,0,21.335,34.525Zm-2.671.129a1.012,1.012,0,0,0,.064.515A1.011,1.011,0,0,0,18.665,34.654Zm2.607,0.58a1.011,1.011,0,0,0,.064.515A1.012,1.012,0,0,0,21.272,35.234Zm-2.543.193a0.843,0.843,0,0,0,.064.451A0.844,0.844,0,0,0,18.728,35.427Z" transform="translate(-0.031)"/>
</svg>
