<svg xmlns="http://www.w3.org/2000/svg" width="40" height="40" viewBox="0 0 40 40">
  <defs>
    <style>
      .cls-1 {
        fill: #fff;
        fill-rule: evenodd;
      }
    </style>
  </defs>
  <path id="Color_Fill_1" data-name="Color Fill 1" class="cls-1" d="M20.535,8.113h0.188a0.3,0.3,0,0,1-.063.189c-0.035-.082,0-0.047-0.063-0.063a2.808,2.808,0,0,0-.063,1.069c0,0.909.027,2.057,0,2.767,0.238,0.007.172-.062,0.188,0.252,0.1,0.158.083,0.474,0.188,0.629a3.706,3.706,0,0,0,.565.126A7.5,7.5,0,0,1,21.6,15.6a3.778,3.778,0,0,0-.126,1.635,5.456,5.456,0,0,0,.565.88c0.472,0.772.861,1.581,1.317,2.327,1.1,1.791,1.918,3.677,3.011,5.472C27.031,27,28,28.107,28,29.623H21.539v1.384c0.159,0.3.506,0.642,0.69,0.943,0.512,0.835.869,1.68,1.38,2.516,0.5,0.817,1.072,1.629,1.506,2.516h0.063a0.722,0.722,0,0,1,.126-0.5V36.6a5.851,5.851,0,0,1-.126,2.516c-1.031-.625-1.972-1.45-2.948-2.138a1.738,1.738,0,0,1-1.066-.943,2.125,2.125,0,0,1-.188-0.692H20.1a8.867,8.867,0,0,1-.5,1.95,3.232,3.232,0,0,0,.125.943A9.024,9.024,0,0,0,19.594,40H19.469V38.239a7.526,7.526,0,0,1,0-.943,9.067,9.067,0,0,1-.5-1.95H18.089v0.126a1.792,1.792,0,0,0-.188.818,6.487,6.487,0,0,0-1.192.881c-0.606.428-1.209,0.778-1.819,1.2a3.462,3.462,0,0,1-1,.692,5.786,5.786,0,0,1-.126-2.579h0.063a1.159,1.159,0,0,0,.125.5V36.855a8.164,8.164,0,0,0,1.192-2.013c0.644-1.044,1.222-2.141,1.882-3.208,0.121-.2.4-0.44,0.5-0.629V29.623H11.063a3.587,3.587,0,0,1,.878-2.39c0.648-1.06,1.187-2.174,1.819-3.207,0.921-1.506,1.591-3.083,2.509-4.591a13.628,13.628,0,0,0,1.317-2.2,3.806,3.806,0,0,0-.125-1.635,8.054,8.054,0,0,1,.125-2.579h0.565V12.956h0.063l0.126-.943H18.4a0.226,0.226,0,0,0,.125.063V11.887a25.451,25.451,0,0,1,0-3.082L18.59,4.151C18.967,2.6,19.461,1.974,19.469,0h0.126V1.635C20.661,2.782,20.527,5.866,20.535,8.113ZM18.4,12.138a0.227,0.227,0,0,0,.125.063A0.226,0.226,0,0,0,18.4,12.138Zm2.133,0a0.226,0.226,0,0,0,.125.063A0.225,0.225,0,0,0,20.535,12.138Z" transform="translate(0.469)"/>
</svg>
