<svg xmlns="http://www.w3.org/2000/svg" width="40" height="40" viewBox="0 0 40 40">
  <defs>
    <style>
      .cls-1 {
        fill: #fff;
        fill-rule: evenodd;
      }
    </style>
  </defs>
  <path id="Color_Fill_1" data-name="Color Fill 1" class="cls-1" d="M21.321,14.727H22.2v0.129a4.347,4.347,0,0,1,.126,2.7l-0.189.707a6.141,6.141,0,0,0,1.95,3.408,3.252,3.252,0,0,0,.881.9,0.548,0.548,0,0,1,.063-0.321v0.129a6.864,6.864,0,0,1,1.447,1.608c0.439,0.595,1.058,1.061,1.509,1.672a18.584,18.584,0,0,1,1.761,1.865,4.44,4.44,0,0,1,0,2.894c-1.494-.305-3.128-1.046-4.78-1.543H22.076a14.12,14.12,0,0,1-.063,3.215c-0.106.483,0.038,1.074-.314,1.286a1.315,1.315,0,0,1-.629.064,0.387,0.387,0,0,0,0,.257c0.21,0.272.6,0.383,0.818,0.643,0.662,0.8,1.355,1.578,2.075,2.315a10.131,10.131,0,0,1,1.132,1.158V40H24.969a4.642,4.642,0,0,0-1.132-.322c-0.881-.3-1.891-0.6-2.767-0.9a2.346,2.346,0,0,1-.692-0.193c-0.056-.09-0.068-0.361-0.126-0.45a2.266,2.266,0,0,1-.314,1.351V39.421c-0.225-.388-0.061-1.017-0.315-1.35V38.65a5.016,5.016,0,0,0-1.321.386c-0.612.2-1.144,0.243-1.761,0.45a10.019,10.019,0,0,1-1.7.514,5.971,5.971,0,0,1,.063-2.122,3.993,3.993,0,0,1,1.069-1.157c0.654-.683,1.226-1.446,1.887-2.122a2.413,2.413,0,0,0,1.069-1.158H18.239l-0.063-.193c-0.473-.733-0.318-3.152-0.315-4.373h-2.83c-1.678.53-3.311,1.232-4.843,1.543a6.942,6.942,0,0,1-.063-2.572c0.272-.841,1.156-1.283,1.635-1.929,0.675-.911,1.6-1.613,2.264-2.508a5.066,5.066,0,0,1,1.006-1.158,0.693,0.693,0,0,0,.063.386V22.572h0.063a1.639,1.639,0,0,1,.126-0.321s0.012,0.251.063,0.129V22.251A6.664,6.664,0,0,0,17.8,18.457a1.678,1.678,0,0,0-.126-0.836,4.581,4.581,0,0,1,.126-2.83,1.859,1.859,0,0,1,.818-0.064,14.519,14.519,0,0,1,.252-1.8c0.175-.66-0.064-1.595.063-2.187,0.238-1.106-.107-2.354.126-3.408,0.124-.562.1-1.189,0.252-1.8,0.17-.67.473-1.429,0.629-2.058V0H20V0.064a1.238,1.238,0,0,1,0,.643A21.778,21.778,0,0,0,20.063,3.6c0.034,0.112.212,0.339,0.252,0.45a24.975,24.975,0,0,1,.566,2.894c0.163,0.739.04,1.544,0.189,2.251v3.473A8.584,8.584,0,0,1,21.321,14.727Z"/>
</svg>
