<svg xmlns="http://www.w3.org/2000/svg" width="40" height="40" viewBox="0 0 40 40">
  <defs>
    <style>
      .cls-1 {
        fill: #fff;
        fill-rule: evenodd;
      }
    </style>
  </defs>
  <path id="Color_Fill_1" data-name="Color Fill 1" class="cls-1" d="M31.877,31.166H31.569V30.982H31.323a0.792,0.792,0,0,1-.062.429V30.982l-8.374.245v1.779c1.26,0.815,2.254,2.228,3.448,3.129a4.554,4.554,0,0,1,1.416,1.35c-0.316.468-.194,1.444-0.493,1.9V38.957a36.173,36.173,0,0,0-4.126.245c-0.2.023-.163-0.1-0.246-0.123H21.655c-0.135-.4-0.489-0.611-0.616-1.043H20.978v1.718c-0.155.09-.1,0.027-0.123,0.245H18.145c0.044-.328-0.059-1.343-0.062-1.963H18.022V38.1c-0.771.791-.179,1.021-1.909,0.982a2.314,2.314,0,0,1-1.17.061l-3.2-.184a0.791,0.791,0,0,1-.062.429,20.214,20.214,0,0,0-.37-2.086c1.294-.834,2.23-2.21,3.448-3.129a11.188,11.188,0,0,0,1.355-1.1V31.227L7.8,30.982a0.791,0.791,0,0,1-.062.429V30.982c-0.316.044-.227,0.14-0.554,0.184V31.1H7.123a64.91,64.91,0,0,1,0-7.117H7.246a0.923,0.923,0,0,1,.123.245,3.149,3.149,0,0,1,.123,1.411c0,0.93.007,1.777,0,2.822H7.554a10.141,10.141,0,0,1,2.032-1.779,36.324,36.324,0,0,0,3.571-3.436L15,21.472V20.491a12.353,12.353,0,0,0,.246-2.024A13.061,13.061,0,0,1,16.668,14.6c0.128-.194.343-0.44,0.431-0.614a1.671,1.671,0,0,1,.123-0.491V13.436H17.53a1.063,1.063,0,0,0,.369.123V13.129a5.253,5.253,0,0,0,.123-2.086,24.393,24.393,0,0,1,.123-4.785c0.134-.6-0.3-0.989,0-1.472a1.114,1.114,0,0,0,.062.552,2.155,2.155,0,0,1,.062-0.675A0.4,0.4,0,0,1,18.022,4.6h0.061a0.506,0.506,0,0,0,.185-0.491,7.324,7.324,0,0,0,.308-1.534A19.652,19.652,0,0,1,19.5,0a0.221,0.221,0,0,1,.062.123,11.544,11.544,0,0,1,1.047,3.129,4.334,4.334,0,0,0,.369,1.411c-0.258.009-.2,0.107-0.185,0.491,0.042,0.047.081,0.137,0.123,0.184a0.824,0.824,0,0,1,0-.552l0.061,0.736a0.443,0.443,0,0,0-.123.368,33.7,33.7,0,0,1,.123,5.337c0,0.713-.136,2.051.308,2.331a0.727,0.727,0,0,1,.493-0.123A15.851,15.851,0,0,1,24,21.411a8.571,8.571,0,0,1,1.847,1.9l0.924,0.859a30.467,30.467,0,0,0,3.14,2.822,13.337,13.337,0,0,0,1.663,1.472V26.5a5.2,5.2,0,0,1,.246-2.515V23.926h0.061v1.043a4.776,4.776,0,0,1,.062,1.718C31.938,28.166,31.982,29.787,31.877,31.166Z" transform="translate(0.5)"/>
</svg>
