<svg xmlns="http://www.w3.org/2000/svg" width="80" height="40" viewBox="0 0 80 40">
  <defs>
    <style>
      .cls-1 {
        fill: #fff;
        fill-rule: evenodd;
      }
    </style>
  </defs>
  <path id="Color_Fill_1" data-name="Color Fill 1" class="cls-1" d="M28.207,4.072L33.213,5.63c3.938,1.2,7.91,1.579,12.419,2.338L49.1,8.261,51.5,7.189a5.31,5.31,0,0,0,.289,2.533l5.2,3.994c4.721,3.418,9.6,6.386,14.729,9.45,2.468,1.475,5.044,3.338,8.087,3.6q0.048-1.413.1-2.825H80v3.6l-1.059,1.656c-0.7,2.033.016,4.266-1.444,5.456-3.742,3.047-12.478,2.144-19.061,2.143H16.847c-2.167-.5-3.76-1.62-6.546-1.364L9.723,36.61c-1.876.043-4.14,0.115-5.391-.585a6.927,6.927,0,0,1,.193-2.533L5.2,33.59c-1.568-.86-3.411-1.422-3.851-3.312V29.6l0.578-.1c-0.6-.08-0.66-0.081-0.674-0.779H1.925V25.6L0,25.5l0.1-1.169,2.022-.1v3.215c4.7-2.221,8-5.132,11.745-8.183l3.081-2.825,0.578-1.754,4.139-5.163,3.658-4.481c1.276-.865,1.939-0.659,2.7-2.046l0.193,0.1V4.072Zm-0.289-.585L26.859,4.851,26.57,6.41l-5.68,6.819-2.118,2.728-1.829.682L15.5,18.2,9.338,23.459c-1.989,1.475-4.428,2.366-6.45,3.9a76.324,76.324,0,0,0,15.885-4.774l5.295-2.533L23.2,16.054c1.146,0.682,1.851,1.531,3.562,1.754,0.126-4.209,1.914-7.589,1.155-12.372V3.487Zm23.3,5.943-0.1-1.851c-5.876,2.792-17.731-2.253-23.008-3.41V5.241a11.521,11.521,0,0,1,.192,4.774c4.145,0.024,8.5.737,12.708,0.1ZM26.474,4.851l-0.866.292L25.9,5.533l0.674-.682h-0.1Zm0.1,0.195-0.481.585,0.385,0.39Zm-1.155.195L19.543,12.45c-0.55.715-1.963,2-1.348,2.63L25.8,5.728ZM25.9,5.825l-7.509,9.45,0.289,0.39,0.385-.292,7.317-9.158v-0.1Zm2.5,4.384c0.183,3.765.367,8.189,1.444,11.3,1.387,0.506,3.914,3.1,5.295,2.63,0.674-1.646,2.6-2.427,2.6-4.092a1.122,1.122,0,0,1,.289-0.487,3.275,3.275,0,0,1,2.118,0,2.585,2.585,0,0,1,0,.974h6.931a0.786,0.786,0,0,1,.193-0.974,2.832,2.832,0,0,1,2.022,0,10.452,10.452,0,0,0,.193,1.364h0.1l0.1-.1,0.866-4.092,0.674-7.209-6.161.487C39.8,10.821,33.851,10.232,28.4,10.209Zm23.1-.487,1.54,6.43h0.481l0.1,1.072h-0.1l-0.867.1,0.1,0.195,6.739,3.215c3.7,1.622,7.483,2.812,11.456,4.189,1.28,0.444,5.856,2.269,7.124,1.851a29.234,29.234,0,0,1-6.065-3.215c-4.41-2.634-8.712-5.067-12.8-7.989Zm0,0.974c0.015,1.151-.083,4.13.578,4.774l0.674,0.195ZM27.918,17.613V11.378l-1.059,6.527h0.1C27.152,17.536,27.362,17.582,27.918,17.613Zm23.1-4.871-0.289,2.923h0.1C50.968,14.917,51.392,13.632,51.023,12.742ZM28.5,13.327l0.1,0.779ZM51.5,13.814v1.753l0.193-.1ZM28.592,14.3v0.39h0.1ZM28.4,17.613h0.481L28.4,14.593v3.02ZM17.714,14.885l-0.481,1.267h0.1V15.957l0.77-.682Zm33.309,0.39v0Zm-32.828.1-0.866.974C18,16.085,18.761,15.922,18.195,15.373Zm32.732,0.39-0.289,1.364H50.83Zm0.578,0v0.682h0.289V15.762H51.5Zm0.963,0H51.889l0.1,0.682h0.385V16.249Zm0.1,0,0.1,0.682C52.734,15.9,52.928,16.032,52.563,15.762Zm0.289,0.39-0.1.39C52.955,16.321,52.916,16.44,52.852,16.152Zm-29.458.292,0.77,3.507,2.022-1.072L25.8,18.393Zm29.362,0.195v0Zm0.193,0v0Zm-2.407.585L49.579,22l0.385,0.682h0.1C50.126,21.4,51.227,17.829,50.542,17.224Zm0.481,0.1c-0.331,1.595-1.364,5.412-.385,6.43,0.273-1.441,1.617-3.448.866-5.358v0.585l-0.385-.1A2.2,2.2,0,0,0,51.023,17.321Zm-26.089.195,1.444,1.266,0.289-.1V18Zm26.57,0L51.6,18.2ZM54.007,22v0.779h0.77l-0.1,2.63,0.963,0.1a2.9,2.9,0,0,1,.481,1.267c-0.468.144-.294-0.031-0.385,0.487h0.77l0.1-1.656c3.2,0.225,4.6.977,7.99,0.974a0.921,0.921,0,0,1-.1-0.682l0.192,0.1v0.585h1.348l-0.1-.39,0.193,0.1v0.682l1.733-.1V26.576l-0.1-.682,0.289,0.292,0.481-1.851c-4.079-.669-8.891-3.355-12.515-4.968-1.233-.549-2.381-1.62-3.851-1.851v0.1a21.579,21.579,0,0,1,.866,4.287L54.777,22h-0.77ZM27.052,17.711v0Zm0.385,0v0Zm0.193,0,0.1,0.195C27.685,17.815,27.8,17.84,27.629,17.711Zm0.77,0,0.1,0.195C28.455,17.815,28.573,17.84,28.4,17.711Zm0.481,0.1v0ZM27.341,18l0.193,0.1Zm0.289,0,0.192,0.1Zm0.77,0L28.5,18.2C28.455,18.107,28.573,18.132,28.4,18Zm-1.637.1,0.193,0.1Zm2.022,0.292-0.385.195c-0.037,1.489-.512,2.038,0,3.215l-0.1-1.169a3.114,3.114,0,0,1,1.252.585C29.487,20.5,29.307,18.7,28.785,18.393Zm23.394,0v0.292l0.1-.292h-0.1Zm-25.126.195a1.1,1.1,0,0,0-.192.682l0.674,0.487V18.782A0.653,0.653,0,0,0,27.052,18.587ZM52.274,18.88l0.1,0.487Zm-25.9.1L24.26,20.244c0.308,1.193.424,4.506,1.829,4.579l0.193-.974h0.1l-0.1.974h0.192C26.557,23.69,27.17,19.8,26.378,18.977Zm0.481,0.487L27.052,21.8l0.385-1.948Zm25.415,0.39v0Zm0.1,0.292,0.1,0.877Zm-28.4.1c-3.338,2.507-10.439,4.581-14.922,5.943L2.984,27.55a138.732,138.732,0,0,0,22.142-1.656V24.725Zm3.466,0.39v0Zm24.741,0v0.292l0.1-.292h-0.1Zm-12.034.1,3.658,3.9a15.235,15.235,0,0,0,3.273-3.9H40.144Zm-12.8.292-0.1.779h0.1V21.023Zm25.319,0.1a1.008,1.008,0,0,0,.193.779Zm-24.067.1v1.364l1.444,0.779a2.474,2.474,0,0,0-.481-1.461Zm0.481,0,0.192,0.195-0.1-.195h-0.1Zm11.167,0a48.03,48.03,0,0,1,0,5.943h0.674l0.674,0.1,2.118-2.338-1.348-1.364Zm11.937,0,0.1,0.682h0.1V21.8Zm-14.633.195-2.5,3.02,2.6,1.072Zm9.338,5.65V21.607L43.9,24.822l1.829,1.851,0.193,0.39h0.963Zm4.525-5.456v0Zm-23.3.1,0.1,0.585Zm23.2,0.195c-0.246,1.359-.6,1.866-0.193,3.117h0.1ZM52.178,22a2.215,2.215,0,0,0,.289,1.267A1.868,1.868,0,0,0,52.178,22Zm0.674,0,0.193,0.292Zm0.289,0,0.193,0.779h0.481l0.1-.779h-0.77Zm-23.2.1,0.289,1.364,4.14,1.559,0.193-.195-0.1-.195A18.993,18.993,0,0,1,29.94,22.095Zm22.72,0v0.682c0.2-.191.1-0.037,0.193-0.39Zm-3.081.292,0.1,2.923C49.749,24.133,50.157,23.141,49.579,22.387Zm-22.527.292,0.1,1.169A1.466,1.466,0,0,0,27.052,22.679Zm0.385,0.1-0.1.585h0.1V22.777Zm0.77,0.1q0.048,0.877.1,1.754h0.1A3.539,3.539,0,0,0,28.207,22.874Zm0.866,3.41H30.9v-0.1l-0.77-2.63-1.54-.682v0.487ZM50.06,23.361l-0.481,3.41h0.1l0.77-2.825Zm2.118,0,0.1,1.267Zm0.578,0v0.877l0.481-.1V23.361H52.756Zm-25.319.195a4.012,4.012,0,0,0-.193,1.559h0.193V23.556Zm-0.674.195-0.1.682h0.1V23.751Zm3.562,0,0.77,2.533h2.118l0.866-1.072ZM50.445,25.8h0.674l0.1-.195-0.578-1.267h-0.1l-0.866,2.825,1.348,0.195,0.1-.487H50.542ZM68.64,24.433l-0.578,2.436c2.062-.406,6.176.863,8.568-0.1Zm-41.877.1-0.192.584h0.289Zm24.645,0.195v1.364l0.1-.195A1.307,1.307,0,0,0,51.408,24.725Zm-23.2.1a2.4,2.4,0,0,0,.192,1.461l-0.1-.39A1.271,1.271,0,0,0,28.207,24.822Zm6.45,0-0.192.195,0.1,0.195,2.6,0.682Zm-6.065.1,0.1,0.487Zm7.124,0.1,0.192,0.1Zm7.99,0-1.829,2.143v0.1c0.834,0,1.919-.318,2.214-0.1V26.868l-0.481-.39v-0.1l0.578,0.195,0.1,0.585a3.536,3.536,0,0,1,1.444-.1l-1.636-1.656A0.532,0.532,0,0,0,43.706,25.017Zm9.916,0,0.193,0.1Zm0.481,0.1L54.2,25.6Zm-17.906.1,0.385,0.195Zm17.425,0c0.118,0.535-.129.651,0.289,0.877V25.212H53.622Zm-19.35.1-0.289.39c0.39,0.2.3,0.261,0.289,0.585h0.481l0.1-.682,0.289,0.1-0.1.585H36.1v-0.39Zm-9.049.1v0.487c0.331,0.089.169-.1,0.289,0.292l0.193-.1,0.385-.682H25.223Zm11.456,0,0.963,0.39Zm-10.59.195-0.385.779,0.385,0.195V25.6Zm2.5,0.195,0.1,0.487h0.1Zm5.295,0.1-0.1.195,0.1,0.1,0.193-.195v-0.1H33.887Zm16.751,0v0.585h0.481V25.894H50.638Zm-25.319.1-0.1.292C25.355,26.075,25.4,26.231,25.319,25.991Zm0.963,0,0.1,1.072Zm10.108,0v0.292l0.77-.1Zm15.981,0,0.193,0.1Zm-28.5,2.728h0.866l0.1-1.072H24.26V27.063a0.838,0.838,0,0,0,.867-0.974l-4.428.779v0.487l3.081-.39v0.195Q23.827,27.94,23.875,28.719Zm4.717-2.241a0.342,0.342,0,0,0,.193.292l-0.1-.292h-0.1Zm2.6,0,0.385,0.974,0.1-.195,0.578-.779H31.191Zm1.155,0h0Zm-4.043.1-0.1.487H28.4Zm0.578,0v0Zm0.289,0,0.1,0.779h1.155a0.99,0.99,0,0,1,.866-0.195L31.1,26.576H29.17Zm21.372,0a0.441,0.441,0,0,0,.578.1ZM11.264,27.648l-0.289.779c1.395,0.156,2.4-.34,3.177.1l0.1-.877c1.072,1,5.028-.306,6.065-0.195l0.289-.584C17.577,27.14,14.6,27.626,11.264,27.648Zm17.425-.779a0.345,0.345,0,0,0,.289.195Zm33.021,0.1a2.882,2.882,0,0,0,2.118.1Zm17.232,0,0.289,0.1Zm0.385,0,0.289,0.1Zm-4.525.1h0Zm1.059,0h0Zm-4.236.1,0.193,0.1Zm0.674,0,0.193,0.1Zm-51.793.1-0.1.195H20.6Zm55.547,0c0.243,0.159.016,0.1,0.289,0H76.053Zm0.481,0c0.261,0.26.209,0.184,0.481,0H76.534Zm0.963,0v0.195C77.591,27.283,77.585,27.431,77.5,27.258Zm0.674,0,0.1,0.195,0.1-.195H78.171Zm-14.826.1,0.385,0.1Zm11.167,0,0.385,0.1Zm0.674,0,0.193,0.1ZM10.3,28.719V28.232a0.821,0.821,0,0,0,.77-0.584H2.118v0.39L2.31,28.719H10.3Zm4.043-.39a5.418,5.418,0,0,0,1.54.39V28.33h-1.54Zm1.733,0v0.39h0.866c0.134-.195,1.064.087,1.733-0.195Zm-13.959.1v0Zm11.071,0h0Zm-10.975.682,0.193,0.1Zm0.289,0h0Zm1.155,0V29.3C3.752,29.134,3.746,29.282,3.658,29.109Zm0.866,0h0Zm2.022,0,0.193,0.1Zm0.289,0h0Zm0.77,0,0.289,0.1Zm2.022,0,0.289,0.1Zm5.391,0,0.385,0.1Zm8.279,0,0.193,0.1Zm0.385,0a0.345,0.345,0,0,0,.289.195A0.345,0.345,0,0,0,23.682,29.109Zm0.481,0c0.243,0.159.016,0.1,0.289,0H24.164Zm0.385,0,0.289,0.1ZM1.54,29.791v0.39H1.925v-0.39H1.54ZM1.829,30.57l0.193,0.1Zm3.466,3.02,0.866,0.292ZM6.45,33.883l1.155,0.877a1.454,1.454,0,0,1-.578,1.461,1.36,1.36,0,0,0,1.059-.779l-0.1-.585A2.759,2.759,0,0,0,6.45,33.883Z" transform="translate(0 0.031)"/>
</svg>
