<svg xmlns="http://www.w3.org/2000/svg" width="80" height="40" viewBox="0 0 80 40">
  <defs>
    <style>
      .cls-1 {
        fill: #fff;
        fill-rule: evenodd;
      }
    </style>
  </defs>
  <path id="jp_abtei_pr1_ico" class="cls-1" d="M51.548,3h0.18V18.352a8.039,8.039,0,0,1,.09,2.438c0,1.529.133,2.707,0.135,4.29a1.139,1.139,0,0,0,.765-0.09h-0.09s0.076-.352.135-0.587c0.054-.214-0.035-1.062,0-1.129s0.085,0.04.135-.181c-0.114-.017-0.071.026-0.09-0.136,0.14-.055.1-0.017,0.135-0.181-0.114-.018-0.071.026-0.09-0.136,0.14-.055.1-0.017,0.135-0.181-0.063-.009.018,0.037-0.045,0.045-0.035.087-.045-0.09-0.045-0.09,0.332-.187.143-0.835,0.405-1.084a3.137,3.137,0,0,1,1.035-.226,8.833,8.833,0,0,1,4.457.226,5.423,5.423,0,0,0,.45,1.355,16.2,16.2,0,0,1,2.7.045v0.136H60.6v0.045c0.08,0.085.083,0.036,0.045,0.136a3.293,3.293,0,0,1-1.441,0l-0.045.813c0.026,0.132.275,1.115,0.27,1.129a0.179,0.179,0,0,0-.09.09h1.125c0.066,0.115.1,0.091,0.27,0.09,0.029,0.5.268,0.853,0.315,1.355h0.18V26.344a0.475,0.475,0,0,1,.225-0.09,0.377,0.377,0,0,1,.09.135,0.23,0.23,0,0,1,.045.136c0.146-.037.069,0.022,0.135-0.09a3.841,3.841,0,0,0,.045-1.039c0.125,0,.1.052,0.135-0.135-0.118-.017-0.059.034-0.09-0.09,0.125,0,.1.052,0.135-0.136-0.063-.009.018,0.037-0.045,0.045-0.035.087-.045-0.09-0.045-0.09,0.129-.051.083-0.008,0.135-0.136-0.118-.017-0.059.034-0.09-0.09,0.125,0,.1.052,0.135-0.135-0.063-.009.018,0.037-0.045,0.045-0.035.087-.045-0.09-0.045-0.09a1.972,1.972,0,0,0,.36-0.813,6.461,6.461,0,0,1,2.071-.136c1.6,0,3.32.019,4.862,0.09l0.09,0.406h0.135v0.181h0.225v0.316l2.476,0.045v0.316h-0.09a0.594,0.594,0,0,0-.315-0.045v0.181h0.18l0.045,0.136a0.236,0.236,0,0,1,0,.226H69.826v0.361a0.217,0.217,0,0,0-.135.045,0.392,0.392,0,0,1,.045.226c0.106,0.046.166,0.095,0.27,0.135a4.637,4.637,0,0,1,2.251.09,0.387,0.387,0,0,0,.45.181c0.255-.28,1.2-0.05,1.351-0.271a1.532,1.532,0,0,1-.36-0.045,0.833,0.833,0,0,1-.045-0.271,0.47,0.47,0,0,1,.27-0.09,1.688,1.688,0,0,1,.855,0l0.045,0.135a0.235,0.235,0,0,1,0,.226,0.486,0.486,0,0,0-.36.136h0.18c0.18,0.09.182-.052,0.315-0.09a10.273,10.273,0,0,1,1.17.045c0.218,0,1.107-.035,1.216,0,0.068,0.022.156,0.163,0.225,0.181a1.118,1.118,0,0,1,.405-0.045v0.09h0.45v-0.5a0.275,0.275,0,0,0,.09-0.09h0.045v0.045a0.549,0.549,0,0,1,.135.542h0.36V26.344a0.475,0.475,0,0,1,.225-0.09,0.377,0.377,0,0,1,.09.135,0.23,0.23,0,0,1,.045.136H79.73a0.76,0.76,0,0,1,.135.361,0.2,0.2,0,0,0-.135.135c0.243,0.017.233,0.061,0.225,0.316a0.493,0.493,0,0,0-.405.406,4.762,4.762,0,0,0-.18,1.309c-0.225,1.014-.087,2.254-0.315,3.3l-0.045.768a4.947,4.947,0,0,1-2.161,2.98c-1.627,1.009-4.377.858-7.023,0.858H2.791V36.684H3.016V36.5a2.642,2.642,0,0,1-2.971-2.89A3.729,3.729,0,0,1,.18,31.988c0.375-.561,1.917-0.376,2.836-0.361V31.311H2.881V30.995H3.016l-0.09-.9a4.561,4.561,0,0,0,.09-0.858H2.881V28.918H3.016V28.2H2.881V27.879H3.016V26.886H3.331v0.993H3.467V28.2H3.331v0.723a0.891,0.891,0,0,0,.72-0.136c-0.14-.055-0.1-0.017-0.135-0.181a0.609,0.609,0,0,1,.405-0.181V27.2l-0.135-.09c-0.048-.186.1-0.114,0.135-0.181V25.576c-0.034-.079-0.135.009-0.135-0.136v-0.09a9.938,9.938,0,0,0,.09-3.3,9.89,9.89,0,0,0,0-2.258h0.18a6.8,6.8,0,0,0,.09,1.671c0.037,0.129,0,.156-0.09.181,0,0,.079.464,0.09,0.5a6.768,6.768,0,0,0,.72,1.174c0.573,0.938,1,1.906,1.576,2.845a6.081,6.081,0,0,1,.81,1.4h0.09V27.112a12.631,12.631,0,0,1,0-1.9H7.878c-0.014.787-.141,2.919,0.27,3.206H10.31V28.376h0.045a2.089,2.089,0,0,1-.315-0.5h0.135a1.373,1.373,0,0,1,.045-0.316h0.09a0.594,0.594,0,0,1,.315-0.045l0.045,0.136a0.792,0.792,0,0,1-.045.722,2.723,2.723,0,0,0,1.036.045V28.15h0.18v0.181a3.1,3.1,0,0,0,.5.09V25.215h0.135v3.206H13.6V28.2h-0.18V28.1H13.6a1.659,1.659,0,0,0-.09-0.316h0.585A2.266,2.266,0,0,0,14,28.1h0.18V28.2H14v0.226c1.16,0,1.908,0,3.151,0V25.215h0.135v3.206h1.125v-1.49h-0.09v0.09a0.349,0.349,0,0,1-.135.136v-0.09a1.316,1.316,0,0,0,0-.768h0.09v0.09c0.031,0.035.059,0.1,0.09,0.136V26.479a7.248,7.248,0,0,0,.18-2.438V18.352h0.135V8.825h0.09V8.78h0.045v9.572h0.135c0,3.414.087,6.76,0.09,10.069a1.545,1.545,0,0,1,.45-0.09v0.09a1.1,1.1,0,0,0,.54-0.045V28.2a0.422,0.422,0,0,1-.135-0.451,1.125,1.125,0,0,1,.36-0.045v0.045H20.3c0.014,0.218.107,0.152,0,.226a3.453,3.453,0,0,0-.135.406h0.09a6.775,6.775,0,0,0,1.711.045V26.389H21.925a1.692,1.692,0,0,1-.945.045L20.934,26.3a0.275,0.275,0,0,0,.09-0.09H19.854a0.3,0.3,0,0,0-.18-0.045v-0.09c0.937,0.009,1.461-.058,2.3-0.045V25.215h0.18v0.768h0.09a1.441,1.441,0,0,0,.225.045l0.045-.5h0.135a3.664,3.664,0,0,1,.225-0.858,3.774,3.774,0,0,1,1.261-.271,10.019,10.019,0,0,1,4.277.271c0,0.546.262,0.879,0.27,1.264,0.114,0.018.071-.026,0.09,0.135-0.118.017-.059-0.034-0.09,0.09,0.113,0.1.119,0,.135,0.226-0.118.017-.059-0.034-0.09,0.09,0.113,0.1.119,0,.135,0.226A4.349,4.349,0,0,0,28.9,28.15h0.09a0.486,0.486,0,0,0,.27.045l0.045-.135a0.231,0.231,0,0,1-.045-0.136h0.27V27.97a0.52,0.52,0,0,0-.09.135h0.09a0.874,0.874,0,0,0,.36.09V28.1a1.554,1.554,0,0,0,.18-0.677,2.047,2.047,0,0,1-.72-0.316,0.7,0.7,0,0,1,.225-0.045,0.677,0.677,0,0,0,.63.045c0.074-.69.429-1.24,0.5-1.942a0.789,0.789,0,0,0,.5-0.09,8.56,8.56,0,0,1,1.621.045,2.69,2.69,0,0,0,.09-1.309,13.19,13.19,0,0,1,0-1.942h0.135v3.251h0.09a0.389,0.389,0,0,0,.225.045v-0.5H33.225l-0.045-.451h0.045V24.177a14.847,14.847,0,0,0,2.521.045V21.874h0.135v2.348h1.846a0.871,0.871,0,0,1,.855-0.677V21.874h0.135v3.251h0.09a2.409,2.409,0,0,0,.9.045h2.251a3.8,3.8,0,0,1,0-.632,1.261,1.261,0,0,1-.27-0.181,9.85,9.85,0,0,1,.765-1.716c0.388-.882.715-1.745,1.125-2.574,0.18-.363.289-1.222,0.72-1.309a0.321,0.321,0,0,0,.18.09,0.572,0.572,0,0,1,.045-0.181,0.273,0.273,0,0,0,.27,0A0.49,0.49,0,0,0,44.84,18.4h0.225v0.09a0.391,0.391,0,0,1,.045.226h2.341V18.442h0.5V18.036a1.366,1.366,0,0,0,.36-0.136,2.256,2.256,0,0,0,1.351.136,0.127,0.127,0,0,1,.045-0.045V17.855h1.035v0.723a0.218,0.218,0,0,0-.135.045,0.163,0.163,0,0,1,.045.09h0.27l0.09,2.529a4.192,4.192,0,0,0-.045,1.535h0.36a14.93,14.93,0,0,0,.135-3.161V18.352a4.814,4.814,0,0,0,.09-1.49V3ZM3.331,31.311v0.316a1.531,1.531,0,0,1,.36.045l0.045,0.135a3.4,3.4,0,0,1,.045,1.219,29.37,29.37,0,0,1-.045,3.251,0.66,0.66,0,0,0-.405.406h0.63V31.4C3.666,31.4,3.6,31.328,3.331,31.311Zm1.035,2.845a4,4,0,0,0,.99-0.136c0.091-.061.126-0.286,0.27-0.181a0.627,0.627,0,0,0,.315.226c0.332-.44.385-1.5,0.72-2.032L6.8,32.078c0.181,0.415.374,0.926,0.54,1.354l0.18,0.542H7.923a1.065,1.065,0,0,0,.585.181A2.13,2.13,0,0,0,7.2,31.717a5.836,5.836,0,0,0-.765-0.09,3.543,3.543,0,0,0-1.846.045,1.309,1.309,0,0,0-.18.587A7.816,7.816,0,0,0,4.367,34.155Zm2.386-1.445a5.247,5.247,0,0,0-.675,1.4h0.99A0.613,0.613,0,0,0,7.2,33.659,2.292,2.292,0,0,0,6.753,32.711ZM4.367,34.426a15.057,15.057,0,0,0,.09,1.9,0.863,0.863,0,0,0,.675.316,3.474,3.474,0,0,0,1.261.045c1.821,0,2.156-.393,2.116-2.258-0.423.009-.537,0.172-0.99,0.181a7.656,7.656,0,0,1-.765,1.942,0.154,0.154,0,0,1-.09-0.045c-0.442-.339-0.369-1.756-0.765-1.987a0.438,0.438,0,0,1-.36.226A3.136,3.136,0,0,0,4.367,34.426Zm1.711,0.045a2.414,2.414,0,0,0,.765,1.4,4.028,4.028,0,0,0,.36-1.264,0.4,0.4,0,0,1-.135-0.136H6.078Z" transform="translate(0 0.016)"/>
</svg>
