<svg xmlns="http://www.w3.org/2000/svg" width="80" height="40" viewBox="0 0 80 40">
  <defs>
    <style>
      .cls-1 {
        fill: #fff;
        fill-rule: evenodd;
      }
    </style>
  </defs>
  <path id="Color_Fill_1" data-name="Color Fill 1" class="cls-1" d="M49.727,7.755c0.227,2.493.419,4.583,0.6,6.921,0.322,0.081.152-.048,0.3,0.195-0.123.153-.064,0.05,0,0.2a1.093,1.093,0,0,0,.6.1c0.067-.07.213-0.141,0.4-0.293a0.573,0.573,0,0,0,.2.39c-0.128.181-.161,0.513-0.3,0.682-0.184-.287-0.21-0.147-0.6-0.1a8.3,8.3,0,0,1,0,.877,1.391,1.391,0,0,0,1.092.2v-0.1h0.1v0.195h-0.1a1.6,1.6,0,0,1-.893.487V17.4h0.1a1.194,1.194,0,0,1,.6-0.292v-0.1a5.39,5.39,0,0,0-1.191.293V17.7a3.632,3.632,0,0,1-.1.975c-0.263.989,0.174,2.54-.1,3.119h0.2a1.412,1.412,0,0,1-.3.39l0.1,0.292h0.2V22.278c0.3,0.269.377,0.11,0.794,0a1.483,1.483,0,0,1,.2.682h-0.4a8.269,8.269,0,0,1-.3.877v-0.78h-0.5a4.334,4.334,0,0,0-.1,1.267h0.2a1.38,1.38,0,0,1,.695-0.292c-0.055-.187-0.163-0.083,0-0.2,0.085-.224.193-0.36,0.3-0.585h0.3l0.1,0.585H53c0.129-.24-0.043-0.066.2-0.195-0.074-.085-0.125-0.11-0.2-0.195a1.013,1.013,0,0,0,.3-0.487v0.487h0.5c-0.177.756-.806,1.592-0.2,2.437a0.676,0.676,0,0,0,.5.195,0.321,0.321,0,0,1,0-.292h0.3a1.217,1.217,0,0,1,.1-0.39H53.6V24.325c0.293,0.056.308,0.2,0.5-.1a0.65,0.65,0,0,1-.4-0.1,6.763,6.763,0,0,1,2.581.292,1.566,1.566,0,0,0-.794.1l0.992,0.1c-0.073-.085-0.125-0.11-0.2-0.195,0.978,0,1.339.463,2.084,0.487,0.814,0.026,2.17-.006,3.275,0V25.2c-0.7-.016-2.2-0.208-2.68.1a2.766,2.766,0,0,0,.794,0l-0.1.195h0.1c0.36-.146,2.106.141,2.878,0v0.1a0.6,0.6,0,0,0-.2.195c1.264,0.122,2.769.287,4.367,0.292v0.2H66.7v0.1a22.259,22.259,0,0,0-3.672.1v0.1h0.1a5.027,5.027,0,0,0,1.886.1l3.375-.1c2.9-.041,7.633-0.239,11.216-0.292v0.292l-0.695-.1v0.1h0.1c0.208,0.124.786,0.067,0.993,0.195-1.3.844-.711,3.457-1.092,5.166C76.949,33.033,74.153,33,70.968,33H9.628a4.672,4.672,0,0,0-.794-0.877l-1.588.1,0.1,0.292h-0.4V32.22c-0.9-.012-0.274.2-0.893,0.487a3.473,3.473,0,0,1-1.985-.1,2,2,0,0,1-.3-1.072,2.417,2.417,0,0,0,.3-0.292c-0.974.037-1.991,0.06-2.382-.487a3.562,3.562,0,0,1-.2-1.852h-0.5V28.419h0.3v-0.2a0.492,0.492,0,0,0,.1-0.292,1.305,1.305,0,0,0,.695-0.1h-0.4a6.943,6.943,0,0,0-.5-2.144,2.79,2.79,0,0,1-1.092.2v-0.2A1.039,1.039,0,0,1,0,25.1a3.521,3.521,0,0,0,1.39-.292,4.134,4.134,0,0,0,.2,1.365,0.342,0.342,0,0,0,.2-0.1,5.4,5.4,0,0,0,1.886-1.072l0.3,0.1a0.36,0.36,0,0,1-.2.1,1.194,1.194,0,0,1-.6.292c0.055,0.187.163,0.084,0,.195-0.485.348-1.436,0.294-1.588,0.975a3.328,3.328,0,0,1,.2.877H4.268a5.631,5.631,0,0,0,2.084.1c1.257,0,2.757,0,4.268,0a4.479,4.479,0,0,0,1.687-.1c-1.114-.025-2.42-0.095-3.672-0.1V27.152a24.518,24.518,0,0,0,3.375,0A6.613,6.613,0,0,1,14,26.664v0.1a0.485,0.485,0,0,0-.3.1H14c0.162-.1.634-0.094,0.794-0.195a1.567,1.567,0,0,1-.794-0.1,3.734,3.734,0,0,0,1.687,0,1.566,1.566,0,0,1-.794-0.1h0.2a2.928,2.928,0,0,1,1.489,0c-0.355.041-.25-0.046-0.4,0.2h0.5a3.382,3.382,0,0,1-.1,1.072h0.5V27.444h0.3a5.39,5.39,0,0,1,.1-1.17h-0.1c-0.6.288-2.429-.084-3.573-0.1v-0.2c1.293,0.027,3.629.126,4.367-.39-0.245-.126-0.068.042-0.2-0.2a5.189,5.189,0,0,0,2.68-.1,1.215,1.215,0,0,1-.794,0,6.938,6.938,0,0,1,1.787-.1v0.1a0.486,0.486,0,0,0-.3.1h0.5v0.975a0.812,0.812,0,0,0-.893.293h0.4a1.092,1.092,0,0,1,.6-0.1,9.669,9.669,0,0,1,.1-1.852,0.485,0.485,0,0,1-.3-0.1c0.355-.469-0.091-1.182.2-1.657,0.033,0.662.1,0.623,0.1,1.365h0.3V23.838h0.5a8.218,8.218,0,0,0,.3,1.56l0.2-1.657c-0.474-.133-0.411-0.21-0.5-0.585,0.4-.037.214-0.262,0.4,0,0.2,0.239-.122.142,0.2,0.293V22.473a5.435,5.435,0,0,0-1.787.2v-0.2a3.361,3.361,0,0,0,1.687-.39c-0.365-.1-0.349-0.064-0.4-0.487a0.832,0.832,0,0,1-.1-0.487,0.485,0.485,0,0,1,.3.1,3.492,3.492,0,0,1,.1.682h0.1V20.621h0.1v-0.1a0.519,0.519,0,0,1-.5-0.292c0.291,0.038.124,0.159,0.3-.1a1.841,1.841,0,0,0-.4-0.78,1.409,1.409,0,0,1-.2.975c0.045-.865.4-1.723-0.1-2.339-0.171.086-.127,0.087-0.3,0,0.322-.124.261-0.086,0.3-0.487a4.993,4.993,0,0,1-.4-1.17,17.585,17.585,0,0,0-3.375,1.56,1.817,1.817,0,0,1-1.29.487h0.2c0.8-.7,4.075-1.66,4.467-2.339a13.254,13.254,0,0,1-.5-1.267,5.819,5.819,0,0,1,1.588-.1c0.015-1.241.268-2.982-.1-3.8h0.2v0.2c0.268,0.418.194,3.634,0.2,4.289a10.385,10.385,0,0,0,2.68-.78c1.821-.6,3.538-0.866,5.36-1.462a18.883,18.883,0,0,1,3.97-1.17v0.1a14.416,14.416,0,0,0-2.878.877c-1.683.552-3.371,0.941-4.963,1.462-1.092.357-3.183,0.548-3.97,1.17a0.648,0.648,0,0,0-.1.39,2.228,2.228,0,0,1,.2,1.56h0.1a6.983,6.983,0,0,1,1.886-.487c1.137-.362,2.342-0.587,3.573-0.975a10.4,10.4,0,0,1,2.481-.682v0.1a17.458,17.458,0,0,0-3.474.975c-1.479.475-2.974,0.633-4.367,1.17a0.582,0.582,0,0,1,0,.585l-0.1-.585h-0.1v0.195c0.138,0.2.154,0.585,0.3,0.78a0.621,0.621,0,0,1,.1-0.39,1.5,1.5,0,0,0,0,.682,0.332,0.332,0,0,1,.1-0.195,1.962,1.962,0,0,0,.4,1.365,1.716,1.716,0,0,1,.2-1.072v-0.1h0.1v0.1c0.475,0.378.426,1.076,0.4,1.95h-0.1v-0.1c-0.106-.233.179-1.027-0.2-1.267v-0.1h-0.1v0.195a6.5,6.5,0,0,0-.1,1.56,26.6,26.6,0,0,0-.4,5.459h0.2a0.773,0.773,0,0,1,.1-0.682,0.466,0.466,0,0,0,.1.293,0.621,0.621,0,0,1,.1-0.39,0.621,0.621,0,0,0,.1.39V25.982a17.862,17.862,0,0,0,3.474-.1c-1.128-.044-2.5-0.1-3.772-0.1V25.495l3.871-.1c0.458-.171,1.682-0.81,2.382-0.39a1.674,1.674,0,0,0-1.092.2h0.3c0.415-.248,1.274-0.034,1.687-0.293a1.84,1.84,0,0,1-.893-0.1,11.6,11.6,0,0,1,1.886.195v0.975h-0.6v0.1h0.1a0.512,0.512,0,0,0,.3.1c0.26-.2.193-0.124,0.6-0.1V25.4h0.4a1.007,1.007,0,0,0,.2-0.585c0.5-.817-0.082-2.874.3-3.412a0.4,0.4,0,0,1,.4-0.195,0.679,0.679,0,0,0,.4.1,1.714,1.714,0,0,1,.2-0.39V21.3h0.6a1.058,1.058,0,0,1,.2-0.487v0.195c0.383,0.47.032,0.956,0.3,1.462a0.467,0.467,0,0,1,.1-0.292v0.1c0.261,0.422-.2,1.493.1,1.949a1.9,1.9,0,0,1,.5.293,3.336,3.336,0,0,0,.2,1.17,3.721,3.721,0,0,1,.1-1.559,9.593,9.593,0,0,0,0,2.632h0.2V26.469c-0.252-.142-0.112.021-0.2-0.292,1.369,0.029,3.553.217,4.367-.39-0.245-.126-0.068.042-0.2-0.195h0.1a13.065,13.065,0,0,0,2.581.1c0.038-.255-0.074-0.128.2-0.195,0.2-.1.756-0.143,1.092-0.292v0.585a6.258,6.258,0,0,0-.2.975h0.2V26.079a6.27,6.27,0,0,0,.2-0.975c-0.259-.027-0.2,0-0.2-0.487,0.613-.989-0.321-3.763.3-4.289a0.36,0.36,0,0,1,.2-0.1,6.6,6.6,0,0,1,1.588,0,1.086,1.086,0,0,1,.3.195c-0.339.516-.056,2.969,0,3.607h0.1v-0.2a4.094,4.094,0,0,0,.5-1.755,3.094,3.094,0,0,1-.5-0.292c0.248-.164.132-0.236,0.1-0.682a1.062,1.062,0,0,1,.5-0.195c0.138,0.171.069,0.275,0.2,0.1,0.557-.707.378-3.06,0.4-3.9h-0.2a0.68,0.68,0,0,0-.4-0.1v0.1h0.1c0.191,0.076-.2.1-0.2,0.1a1.023,1.023,0,0,1-.2-0.487c0.252-.408.035-1.251,0.3-1.657a3.85,3.85,0,0,1-.2,1.852h0.794a6.019,6.019,0,0,0-.2-2.339,0.465,0.465,0,0,1-.1.292c0.095-1.32,0-2.63,0-4.094-0.93.117-3.964,1.384-4.566,1.072,1.609-.169,2.941-1.009,4.566-1.17l0.1-2.632h-0.1c-0.891.593-2.289,0.62-3.375,0.975-1.914.624-4.035,1.2-5.955,1.852a10.758,10.758,0,0,1-2.978.682L48.933,7.949a0.817,0.817,0,0,1,.2-0.78c0.165-.109.211,0.093,0.4-0.195-0.225.039-.108,0.09-0.3,0,0.546-.346.075-0.766,0.4-0.975V6.78a1.487,1.487,0,0,1,.1.877,0.555,0.555,0,0,1,.4,0v0.1h-0.4Zm-0.2-.487h-0.4V7.462a0.648,0.648,0,0,0-.1.39h0.2c0.163-.2.116,0.068,0.2-0.195A0.648,0.648,0,0,0,49.529,7.267Zm-0.4.195a0.35,0.35,0,0,1,.1.195h-0.1V7.462Zm0.993,0.292a2.149,2.149,0,0,1,.5.195v0.1h-0.2A3.472,3.472,0,0,1,50.124,7.755Zm-0.993.195a12.949,12.949,0,0,0-.2,2.534c0.282-.031.205-0.1,0.4,0a3.168,3.168,0,0,0-.3.682,0.332,0.332,0,0,0-.1-0.2v0.292c0.355,0.6-.158,3.862.3,4.581a24.112,24.112,0,0,1,.2-4.289,1.407,1.407,0,0,0-.1-1.17c-0.064-.123.185-0.155,0.2-0.2a6.5,6.5,0,0,0-.1-1.949,0.8,0.8,0,0,1-.1.487A0.7,0.7,0,0,0,49.132,7.949Zm1.489,0.1,0.3,0.1v0.1A0.377,0.377,0,0,1,50.62,8.047Zm0.3,0.195,0.3,0.1v0.1A0.377,0.377,0,0,1,50.918,8.242Zm-1.092.195a3.737,3.737,0,0,1,.5,2.242Zm1.39,0a2.152,2.152,0,0,1,.5.195v0.1h-0.2A3.472,3.472,0,0,1,51.216,8.437Zm-1.985.292a0.8,0.8,0,0,1,0,.78V8.729Zm2.481,0,0.3,0.1v0.1A0.377,0.377,0,0,1,51.712,8.729Zm0.3,0.195,0.3,0.1v0.1A0.377,0.377,0,0,1,52.01,8.924Zm0.3,0.195a2.15,2.15,0,0,1,.5.195v0.1h-0.2A3.473,3.473,0,0,1,52.308,9.119Zm0.5,0.292,0.3,0.1v0.1A0.377,0.377,0,0,1,52.8,9.412Zm-3.672.1a0.8,0.8,0,0,1,0,.78V9.509Zm3.97,0.1,0.3,0.1V9.8A0.377,0.377,0,0,1,53.1,9.607ZM53.4,9.8h0.2V9.9A0.342,0.342,0,0,1,53.4,9.8Zm0.2,0.1L53.9,10v0.1A0.378,0.378,0,0,1,53.6,9.9Zm0.3,0.195,0.3,0.1v0.1A0.377,0.377,0,0,1,53.9,10.094Zm0.3,0.195,0.3,0.1v0.1A0.378,0.378,0,0,1,54.194,10.289Zm0.3,0.2h0.2v0.1A0.342,0.342,0,0,1,54.491,10.484Zm0.2,0.1,0.3,0.1v0.1A0.378,0.378,0,0,1,54.69,10.581Zm-5.757.1v0.195h0.1A0.332,0.332,0,0,0,48.933,10.679Zm1.489,0a0.281,0.281,0,0,1,0,.39v-0.39Zm-0.695.1a0.467,0.467,0,0,0,.1.292V10.776h-0.1Zm5.261,0,0.3,0.1v0.1A0.377,0.377,0,0,1,54.988,10.776Zm0.3,0.195,0.3,0.1v0.1A0.377,0.377,0,0,1,55.285,10.971Zm-4.764.1a0.281,0.281,0,0,1,0,.39v-0.39Zm-1.39.1a0.35,0.35,0,0,1,.1.195h-0.1V11.166Zm0.6,0v0.195h0.1V11.166h-0.1Zm5.856,0h0.2v0.1A0.342,0.342,0,0,1,55.583,11.166Zm0.2,0.1,0.3,0.1v0.1A0.378,0.378,0,0,1,55.782,11.264Zm-6.551.1a0.349,0.349,0,0,1,.1.195h-0.1V11.361Zm1.389,0.1a0.281,0.281,0,0,1,0,.39v-0.39Zm5.459,0,0.3,0.1v0.1A0.377,0.377,0,0,1,56.079,11.459Zm-19.95.195a0.651,0.651,0,0,1,.4.1,1.5,1.5,0,0,1-.993.1A1,1,0,0,0,36.129,11.653Zm20.248,0a2.152,2.152,0,0,1,.5.2v0.1h-0.2A3.455,3.455,0,0,1,56.377,11.653Zm-6.551.1v0.195h0.1V11.751h-0.1Zm0.3,0.1h0.2v0.1A0.342,0.342,0,0,1,50.124,11.848Zm0.6,0a0.492,0.492,0,0,1,.1.292c0.469,0.115.726,0.359,1.191,0.487v0.1h-0.3a1.752,1.752,0,0,0-.794-0.39,0.466,0.466,0,0,1-.1.293c-0.058-.544-0.21-0.415-0.5-0.682C50.725,11.954,50.559,12.105,50.72,11.848Zm-6.849.1a0.65,0.65,0,0,1,.4.1c-0.7.09-1.916,0.789-2.481,0.487A5.24,5.24,0,0,0,43.871,11.946Zm13,0,0.3,0.1v0.1A0.377,0.377,0,0,1,56.873,11.946Zm-7.345.2-0.3,4.776h0.2a3.18,3.18,0,0,0,.2-1.267C49.233,14.968,50.049,12.969,49.529,12.141Zm0.3,0a11.9,11.9,0,0,0,.1,2.534,1.012,1.012,0,0,1,.1-0.585c0.014,0.367-.047.343,0.2,0.487v-0.1C49.859,13.881,50.222,12.689,49.826,12.141Zm7.345,0,0.3,0.1v0.1A0.377,0.377,0,0,1,57.171,12.141Zm0.3,0.195a2.154,2.154,0,0,1,.5.2v0.1h-0.2A3.486,3.486,0,0,1,57.469,12.336Zm-16.079.293a0.65,0.65,0,0,1,.4.1c-0.7.09-1.916,0.79-2.481,0.487A5.241,5.241,0,0,0,41.39,12.628Zm9.529,0a1.931,1.931,0,0,1,.3,1.462Zm7.047,0,0.3,0.1v0.1A0.377,0.377,0,0,1,57.965,12.628Zm-5.955.1h0.2v0.1A0.342,0.342,0,0,1,52.01,12.726Zm-3.275.1a0.646,0.646,0,0,1,0,.682V12.823Zm1.489,0a0.652,0.652,0,0,1,.2.487h-0.1V13.116A0.492,0.492,0,0,1,50.223,12.823Zm1.985,0h0.2v0.1A0.342,0.342,0,0,1,52.208,12.823Zm6.055,0,0.3,0.1v0.1A0.378,0.378,0,0,1,58.263,12.823Zm-5.856.1h0.2v0.1A0.342,0.342,0,0,1,52.407,12.921Zm0.2,0.1h0.2v0.1A0.342,0.342,0,0,1,52.606,13.018Zm5.955,0h0.2v0.1A0.343,0.343,0,0,1,58.561,13.018Zm-5.757.1H53v0.1A0.342,0.342,0,0,1,52.8,13.116Zm5.955,0,0.3,0.1v0.1A0.378,0.378,0,0,1,58.759,13.116Zm-5.757.1h0.2v0.1H53v-0.1Zm-14.094.1a0.65,0.65,0,0,1,.4.1c-0.7.09-1.916,0.79-2.481,0.487A5.241,5.241,0,0,0,38.908,13.311Zm11.514,0a0.349,0.349,0,0,1,.1.195h-0.1V13.311Zm2.779,0h0.2v0.1A0.342,0.342,0,0,1,53.2,13.311Zm5.856,0,0.3,0.1v0.1A0.377,0.377,0,0,1,59.057,13.311Zm-9.926.1a0.492,0.492,0,0,1,.1.293h-0.1V13.408Zm4.268,0h0.2v0.1A0.342,0.342,0,0,1,53.4,13.408Zm-4.764.1a0.8,0.8,0,0,1,0,.78v-0.78Zm1.886,0a0.652,0.652,0,0,1,.2.487h-0.1V13.8A0.492,0.492,0,0,1,50.521,13.505Zm3.077,0h0.2v0.1A0.342,0.342,0,0,1,53.6,13.505Zm5.757,0,0.3,0.1v0.1A0.378,0.378,0,0,1,59.355,13.505Zm-5.558.1a10.893,10.893,0,0,1,1.687.682v0.1h-0.3C54.806,14.042,54.168,13.953,53.8,13.6Zm5.856,0.1h0.2v0.1A0.342,0.342,0,0,1,59.653,13.7Zm0.2,0.1,0.3,0.1v0.1A0.378,0.378,0,0,1,59.851,13.8Zm-23.424.2a0.649,0.649,0,0,1,.4.1c-0.7.09-1.916,0.789-2.481,0.487A5.241,5.241,0,0,0,36.427,13.993Zm14.293,0a0.35,0.35,0,0,1,.1.195h-0.1V13.993Zm9.429,0,0.3,0.1v0.1A0.377,0.377,0,0,1,60.149,13.993Zm-8.834.1a0.281,0.281,0,0,1,0,.39V14.09Zm-0.5.1a0.35,0.35,0,0,1,.1.2h-0.1v-0.2Zm9.628,0,0.3,0.1v0.1A0.378,0.378,0,0,1,60.447,14.188Zm-11.911.1a0.8,0.8,0,0,1,0,.78v-0.78Zm2.382,0.1a0.652,0.652,0,0,1,.2.487h-0.1V14.675A0.492,0.492,0,0,1,50.918,14.383Zm4.566,0h0.2v0.1A0.342,0.342,0,0,1,55.484,14.383Zm5.261,0h0.2v0.1A0.342,0.342,0,0,1,60.744,14.383Zm-9.33.1a0.281,0.281,0,0,1,0,.39V14.48Zm4.268,0h0.2v0.1A0.342,0.342,0,0,1,55.682,14.48Zm5.261,0,0.3,0.1v0.1A0.378,0.378,0,0,1,60.943,14.48Zm-5.062.1h0.2v0.1A0.342,0.342,0,0,1,55.881,14.578Zm-21.935.1a0.649,0.649,0,0,1,.4.1c-0.7.09-1.916,0.789-2.481,0.487A5.241,5.241,0,0,0,33.945,14.675Zm22.134,0h0.2v0.1A0.342,0.342,0,0,1,56.079,14.675Zm5.161,0,0.3,0.1v0.1A0.377,0.377,0,0,1,61.241,14.675ZM22.63,17.794a0.485,0.485,0,0,0,.3-0.1c0.4-.594.3-2.184,0.3-2.924h-1.29v0.1a0.536,0.536,0,0,1,.4.293h-0.2a0.6,0.6,0,0,0-.2-0.2V15.26A6.868,6.868,0,0,1,22.63,17.794Zm33.648-3.022h0.2v0.1A0.342,0.342,0,0,1,56.278,14.773Zm-34.839.1h0.2v0.1h-0.1a0.714,0.714,0,0,1-.4.2v-0.1h0.1C21.314,14.98,21.366,14.955,21.439,14.87Zm27.3,0a0.281,0.281,0,0,1,0,.39V14.87Zm2.382,0a0.35,0.35,0,0,1,.1.2h-0.1v-0.2Zm5.36,0h0.2v0.1A0.342,0.342,0,0,1,56.476,14.87Zm5.062,0,0.3,0.1v0.1A0.377,0.377,0,0,1,61.539,14.87Zm-4.864.1h0.2v0.1A0.342,0.342,0,0,1,56.675,14.968Zm0.2,0.1h0.2v0.1A0.342,0.342,0,0,1,56.873,15.065Zm4.963,0h0.2v0.1A0.342,0.342,0,0,1,61.836,15.065Zm-40.893.1h0.2v0.1h-0.1a1.192,1.192,0,0,1-.6.292v-0.1h0.1C20.662,15.343,20.827,15.276,20.943,15.163Zm36.129,0a10.892,10.892,0,0,1,1.687.682v0.1h-0.3C58.081,15.6,57.443,15.513,57.072,15.163Zm4.963,0,0.3,0.1v0.1A0.377,0.377,0,0,1,62.035,15.163Zm-13.4.1a0.281,0.281,0,0,1,0,.39V15.26Zm13.7,0.1,0.3,0.1v0.1A0.377,0.377,0,0,1,62.333,15.357Zm-42.084.195h0.2v0.1h-0.1a0.714,0.714,0,0,1-.4.195v-0.1h0.1C20.123,15.662,20.175,15.637,20.248,15.552Zm2.481,0h0.2C22.81,15.709,22.887,15.672,22.73,15.552Zm39.9,0h0.2v0.1A0.342,0.342,0,0,1,62.63,15.552Zm-10.918.1a0.443,0.443,0,0,1,0,.487h-0.1v-0.2A0.491,0.491,0,0,0,51.712,15.65Zm11.117,0,0.3,0.1v0.1A0.377,0.377,0,0,1,62.829,15.65Zm-39.9.1h0.2v0.1A0.342,0.342,0,0,1,22.928,15.747Zm26.8,0a5.391,5.391,0,0,0,.1,1.17h0.2V16.04A3.465,3.465,0,0,1,49.727,15.747Zm0.794,0c-0.011.379,0.093,0.112-.1,0.39h0.2a0.36,0.36,0,0,1,.2-0.1A2.42,2.42,0,0,0,50.521,15.747Zm-30.769.1h0.2v0.1h-0.1a1.193,1.193,0,0,1-.6.293v-0.1h0.1C19.471,16.025,19.636,15.958,19.752,15.845Zm2.978,0h0.2v0.1A0.342,0.342,0,0,1,22.73,15.845Zm40.4,0,0.3,0.1v0.1A0.377,0.377,0,0,1,63.127,15.845Zm-40.6.1h0.2v0.1h-0.2v-0.1Zm36.228,0h0.2v0.1A0.342,0.342,0,0,1,58.759,15.942Zm-36.427.1h0.2v0.1A0.342,0.342,0,0,1,22.333,16.04Zm29.479,0a1.4,1.4,0,0,1,.2.78h-0.1v-0.2A0.453,0.453,0,0,1,51.811,16.04Zm7.146,0h0.2v0.1A0.342,0.342,0,0,1,58.958,16.04Zm4.467,0h0.2v0.1A0.342,0.342,0,0,1,63.424,16.04Zm-4.268.1h0.2v0.1A0.342,0.342,0,0,1,59.156,16.137Zm4.466,0,0.3,0.1v0.1A0.377,0.377,0,0,1,63.623,16.137Zm-44.566.1h0.2v0.1h-0.1a1.191,1.191,0,0,1-.6.292v-0.1h0.1C18.776,16.415,18.942,16.348,19.057,16.235Zm40.3,0h0.2v0.1A0.342,0.342,0,0,1,59.355,16.235Zm0.2,0.1h0.2v0.1A0.342,0.342,0,0,1,59.553,16.332Zm4.367,0a2.153,2.153,0,0,1,.5.2v0.1h-0.2A3.456,3.456,0,0,1,63.921,16.332Zm-4.169.1h0.2v0.1A0.342,0.342,0,0,1,59.752,16.43Zm0.2,0.1h0.2v0.1A0.342,0.342,0,0,1,59.95,16.527Zm-41.588.1h0.2v0.1h-0.1a0.713,0.713,0,0,1-.4.2v-0.1h0.1C18.237,16.735,18.289,16.71,18.362,16.625Zm41.787,0h0.2v0.1A0.342,0.342,0,0,1,60.149,16.625Zm4.268,0,0.3,0.1v0.1A0.377,0.377,0,0,1,64.417,16.625Zm-4.069.1a10.9,10.9,0,0,1,1.687.682v0.1h-0.3C61.357,17.161,60.719,17.072,60.347,16.722Zm-37.022.1a3.774,3.774,0,0,0-.1.78h0.2A1.488,1.488,0,0,0,23.325,16.82Zm41.39,0h0.2v0.1A0.342,0.342,0,0,1,64.715,16.82Zm-46.849.1h0.2v0.1h-0.1a1.193,1.193,0,0,1-.6.293v-0.1h0.1C17.585,17.1,17.751,17.03,17.866,16.917Zm47.047,0,0.3,0.1v0.1A0.377,0.377,0,0,1,64.913,16.917Zm-41.389.1a0.8,0.8,0,0,0,.1.487A0.8,0.8,0,0,0,23.524,17.014Zm41.687,0.1,0.3,0.1v0.1A0.378,0.378,0,0,1,65.211,17.112Zm-16.576.1a0.377,0.377,0,0,1,.3.195h0.1v0.1A0.536,0.536,0,0,1,48.635,17.209Zm0.6,0c0.006,0.513-.336,1.92,0,2.437l0.4-1.755a0.377,0.377,0,0,1-.3-0.195c0.408,0.009.377,0.161,0.4-.39h-0.2A0.511,0.511,0,0,0,49.231,17.209Zm-32.06.1h0.2v0.1h-0.1a0.714,0.714,0,0,1-.4.2V17.5h0.1C17.046,17.417,17.1,17.392,17.171,17.307Zm48.338,0h0.2v0.1A0.342,0.342,0,0,1,65.509,17.307Zm0.2,0.1,0.3,0.1v0.1A0.377,0.377,0,0,1,65.707,17.4Zm-14.789.1h0.2v0.1A0.342,0.342,0,0,1,50.918,17.5Zm11.117,0h0.2v0.1A0.342,0.342,0,0,1,62.035,17.5Zm-45.36.1h0.2v0.1A0.342,0.342,0,0,1,16.675,17.6Zm34.045,0h0.2v0.1A0.342,0.342,0,0,1,50.72,17.6Zm11.514,0h0.2v0.1A0.342,0.342,0,0,1,62.233,17.6Zm3.772,0,0.3,0.1v0.1A0.377,0.377,0,0,1,66.005,17.6Zm-49.529.1h0.2v0.1h-0.1a0.714,0.714,0,0,1-.4.2v-0.1h0.1C16.351,17.807,16.4,17.782,16.476,17.7Zm6.749,0a2.554,2.554,0,0,0,.1,2.339C23.4,19.555,23.669,17.977,23.226,17.7Zm0.3,0a1.71,1.71,0,0,0,.2.39C23.681,17.738,23.769,17.841,23.524,17.7Zm26.8,0a0.361,0.361,0,0,0,.2.1A0.36,0.36,0,0,0,50.323,17.7Zm12.109,0h0.2v0.1A0.343,0.343,0,0,1,62.432,17.7Zm0.2,0.1h0.2v0.1h-0.2v-0.1Zm3.672,0h0.2v0.1A0.342,0.342,0,0,1,66.3,17.794Zm-43.573.1a0.956,0.956,0,0,0,.2.585C22.931,18.1,22.977,18.038,22.73,17.892Zm27.3,3.022c0.016-.767.255-2.482-0.1-3.022a17.51,17.51,0,0,1-.794,3.119h0.1A1.966,1.966,0,0,1,50.025,20.913Zm0.3-3.022a1.748,1.748,0,0,0,.1.877,3.719,3.719,0,0,1,.1-0.877h-0.2Zm12.506,0h0.2v0.1A0.342,0.342,0,0,1,62.829,17.892Zm3.672,0,0.3,0.1v0.1A0.377,0.377,0,0,1,66.5,17.892Zm-50.521.1h0.2v0.1h-0.1a1.193,1.193,0,0,1-.6.293v-0.1h0.1C15.7,18.169,15.865,18.1,15.98,17.989Zm47.047,0h0.2v0.1A0.342,0.342,0,0,1,63.027,17.989Zm-41.092.1a0.485,0.485,0,0,1,.3.1h-0.2a9.585,9.585,0,0,1-2.978,1.072h0.2C19.953,18.666,21.261,18.7,21.936,18.087Zm41.29,0h0.2v0.1A0.342,0.342,0,0,1,63.226,18.087Zm3.573,0,0.3,0.1v0.1A0.378,0.378,0,0,1,66.8,18.087ZM24.417,20.329a5.084,5.084,0,0,0-.2-0.78,0.832,0.832,0,0,1-.3.2v-0.2a9.671,9.671,0,0,1-.3-1.365h-0.1v2.047h0.2A1.278,1.278,0,0,0,24.417,20.329Zm39.007-2.144h0.2v0.1A0.342,0.342,0,0,1,63.424,18.184Zm0.2,0.1a12.483,12.483,0,0,1,1.886.78v0.1h-0.3C64.778,18.772,64.045,18.68,63.623,18.282Zm3.474,0h0.2v0.1A0.342,0.342,0,0,1,67.1,18.282Zm-51.811.1h0.2v0.1h-0.1a0.713,0.713,0,0,1-.4.2v-0.1h0.1C15.16,18.489,15.212,18.464,15.285,18.379Zm52.01,0,0.3,0.1v0.1A0.377,0.377,0,0,1,67.3,18.379Zm-50.025.1h0.2v0.1A0.342,0.342,0,0,1,17.271,18.477Zm-0.2.1h0.2v0.1A0.342,0.342,0,0,1,17.072,18.574Zm50.521,0a2.147,2.147,0,0,1,.5.195v0.1h-0.2A3.47,3.47,0,0,1,67.593,18.574Zm-52.8.1h0.2v0.1h-0.1a1.193,1.193,0,0,1-.6.292v-0.1h0.1C14.508,18.852,14.674,18.785,14.789,18.672Zm2.084,0h0.2v0.1A0.342,0.342,0,0,1,16.873,18.672Zm-0.2.1h0.2v0.1A0.342,0.342,0,0,1,16.675,18.769Zm-0.2.1h0.2v0.1A0.342,0.342,0,0,1,16.476,18.866Zm51.613,0,0.3,0.1v0.1A0.378,0.378,0,0,1,68.089,18.866Zm-51.811.1h0.2v0.1A0.342,0.342,0,0,1,16.278,18.964Zm-2.184.1h0.2a0.279,0.279,0,0,1-.1.1,1.192,1.192,0,0,1-.6.293v-0.1h0.1C13.814,19.242,13.979,19.175,14.094,19.061Zm1.886,0a0.485,0.485,0,0,1,.3.1h-0.2a16.047,16.047,0,0,1-3.871,1.755h0.2C13.367,20.062,15.051,19.944,15.98,19.061Zm52.407,0h0.2v0.1A0.342,0.342,0,0,1,68.387,19.061Zm-2.878.1h0.2v0.1A0.342,0.342,0,0,1,65.509,19.159Zm3.077,0,0.3,0.1v0.1A0.378,0.378,0,0,1,68.586,19.159Zm-2.878.1h0.2v0.1A0.342,0.342,0,0,1,65.707,19.256Zm-46.948.1a0.486,0.486,0,0,1,.3.1h-0.2c-0.171.086-.127,0.087-0.3,0A0.342,0.342,0,0,0,18.759,19.354Zm47.146,0h0.2v0.1A0.342,0.342,0,0,1,65.906,19.354Zm2.978,0,0.3,0.1v0.1A0.377,0.377,0,0,1,68.883,19.354Zm-55.484.1h0.2a0.279,0.279,0,0,1-.1.1,0.714,0.714,0,0,1-.4.2v-0.1h0.1C13.275,19.561,13.326,19.536,13.4,19.451Zm36.923,0a3.721,3.721,0,0,0,.1,1.56A3.721,3.721,0,0,0,50.323,19.451Zm15.782,0h0.2v0.1A0.342,0.342,0,0,1,66.1,19.451Zm-47.841.1a0.486,0.486,0,0,1,.3.1h-0.2c-0.171.086-.127,0.087-0.3,0A0.342,0.342,0,0,0,18.263,19.549Zm48.04,0h0.2v0.1A0.342,0.342,0,0,1,66.3,19.549Zm2.878,0h0.2v0.1A0.342,0.342,0,0,1,69.181,19.549Zm-2.68.1h0.2v0.1A0.342,0.342,0,0,1,66.5,19.646Zm2.878,0,0.3,0.1v0.1A0.378,0.378,0,0,1,69.38,19.646Zm-56.476.1h0.2a0.28,0.28,0,0,1-.1.1,1.194,1.194,0,0,1-.6.292v-0.1h0.1C12.623,19.924,12.788,19.857,12.9,19.744Zm4.864,0a0.485,0.485,0,0,1,.3.1h-0.2a9.589,9.589,0,0,1-2.978,1.072h0.2C15.784,20.323,17.092,20.358,17.767,19.744Zm48.933,0h0.2v0.1A0.342,0.342,0,0,1,66.7,19.744Zm-42.68.1a0.491,0.491,0,0,1,.1.292h-0.1V19.841Zm42.879,0h0.2v0.1A0.342,0.342,0,0,1,66.9,19.841Zm2.779,0,0.3,0.1v0.1A0.377,0.377,0,0,1,69.677,19.841Zm-2.581.1a10.9,10.9,0,0,1,1.687.682v0.1h-0.3C68.106,20.378,67.468,20.289,67.1,19.939Zm2.878,0.1h0.2v0.1A0.342,0.342,0,0,1,69.975,20.036Zm-57.767.1h0.2a0.278,0.278,0,0,1-.1.1,0.714,0.714,0,0,1-.4.195v-0.1h0.1C12.083,20.244,12.135,20.219,12.208,20.134Zm57.965,0,0.3,0.1v0.1A0.377,0.377,0,0,1,70.174,20.134Zm-45.558.1c-0.069.735-.775,3.583-0.2,4.484C24.439,23.8,25,20.833,24.615,20.231Zm45.856,0.1a2.152,2.152,0,0,1,.5.2v0.1h-0.2A3.47,3.47,0,0,1,70.472,20.329Zm-58.759.1h0.2a0.28,0.28,0,0,1-.1.1,1.194,1.194,0,0,1-.6.292v-0.1h0.1C11.432,20.606,11.6,20.539,11.712,20.426Zm12.605,0-0.2.585h0.1v-0.1h0.1l0.2-.487h-0.2Zm-0.794.195a2.855,2.855,0,0,0,.1,1.267C23.665,21.439,23.894,20.849,23.524,20.621Zm47.444,0,0.3,0.1v0.1A0.378,0.378,0,0,1,70.968,20.621Zm-2.184.1h0.2v0.1A0.342,0.342,0,0,1,68.784,20.718Zm-57.767.1h0.2a0.28,0.28,0,0,1-.1.1,1.193,1.193,0,0,1-.6.292v-0.1h0.1C10.737,21,10.9,20.929,11.017,20.816Zm57.965,0h0.2v0.1A0.342,0.342,0,0,1,68.983,20.816Zm2.283,0h0.2v0.1A0.342,0.342,0,0,1,71.266,20.816Zm-2.084.1h0.2v0.1A0.342,0.342,0,0,1,69.181,20.913Zm2.283,0,0.3,0.1v0.1A0.377,0.377,0,0,1,71.464,20.913Zm-59.454.1h0.2a0.278,0.278,0,0,1-.1.1,8.173,8.173,0,0,1-1.787.877,18.647,18.647,0,0,1-3.375,1.657v-0.1h0.1C8.3,22.433,10.811,22.152,12.01,21.011Zm2.581,0a0.485,0.485,0,0,1,.3.1h-0.2c-0.171.086-.127,0.087-0.3,0A0.342,0.342,0,0,0,14.591,21.011Zm54.789,0h0.2v0.1A0.342,0.342,0,0,1,69.38,21.011Zm0.2,0.1h0.2v0.1A0.342,0.342,0,0,1,69.578,21.108Zm2.184,0,0.3,0.1v0.1A0.377,0.377,0,0,1,71.762,21.108Zm-61.439.1h0.2a0.279,0.279,0,0,1-.1.1,0.713,0.713,0,0,1-.4.2V21.4h0.1C10.2,21.316,10.249,21.291,10.323,21.206Zm3.772,0a0.486,0.486,0,0,1,.3.1h-0.2c-0.171.086-.127,0.087-0.3,0A0.342,0.342,0,0,0,14.094,21.206Zm55.682,0h0.2v0.1A0.342,0.342,0,0,1,69.777,21.206Zm0.2,0.1h0.2v0.1A0.342,0.342,0,0,1,69.975,21.3Zm2.084,0h0.2v0.1A0.342,0.342,0,0,1,72.06,21.3ZM13.6,21.4a0.486,0.486,0,0,1,.3.1H13.7a3.427,3.427,0,0,1-1.985.682h0.2C12.354,21.8,13.167,21.791,13.6,21.4Zm34.541,0a0.4,0.4,0,0,0,.4.2l0.1-.2A0.613,0.613,0,0,1,48.139,21.4Zm0.992,0a0.4,0.4,0,0,0,.4.2V21.5A1.274,1.274,0,0,1,49.132,21.4Zm21.042,0h0.2v0.1A0.342,0.342,0,0,1,70.174,21.4Zm2.084,0,0.3,0.1v0.1A0.377,0.377,0,0,1,72.258,21.4Zm-62.432.1h0.2a0.28,0.28,0,0,1-.1.1,1.194,1.194,0,0,1-.6.292v-0.1h0.1C9.546,21.679,9.711,21.611,9.826,21.5Zm39.9,0c0.171,0.086.127,0.087,0.3,0h-0.3Zm20.645,0a10.893,10.893,0,0,1,1.687.682v0.1h-0.3C71.382,21.937,70.743,21.849,70.372,21.5Zm-21.34.1v0.195h0.1A0.332,0.332,0,0,0,49.032,21.6Zm23.524,0,0.3,0.1v0.1A0.377,0.377,0,0,1,72.556,21.6Zm0.3,0.195h0.2v0.1A0.342,0.342,0,0,1,72.854,21.791Zm-63.722.1h0.2a0.28,0.28,0,0,1-.1.1,1.194,1.194,0,0,1-.6.292v-0.1h0.1C8.851,22.068,9.016,22,9.132,21.888Zm14.988,0a0.8,0.8,0,0,0,.1.487l0.1-.487h-0.2Zm48.933,0,0.3,0.1v0.1A0.377,0.377,0,0,1,73.052,21.888Zm-23.921.975h0.4a0.467,0.467,0,0,1,.1-0.292c0.082,0.316-.049.149,0.2,0.292V22.376a0.649,0.649,0,0,0,.1-0.39,3.918,3.918,0,0,0-.893.1v0.293A0.909,0.909,0,0,1,49.132,22.863Zm-26.5-.78a0.485,0.485,0,0,1,.3.1A0.485,0.485,0,0,1,22.63,22.083Zm50.72,0,0.3,0.1v0.1A0.377,0.377,0,0,1,73.35,22.083Zm-24.516.1-0.2.682h0.2V22.376C48.957,22.223,48.9,22.326,48.834,22.181Zm-40.4.1h0.2a0.28,0.28,0,0,1-.1.1,0.714,0.714,0,0,1-.4.195v-0.1h0.1C8.312,22.388,8.363,22.363,8.437,22.278Zm2.978,0a0.485,0.485,0,0,1,.3.1h-0.2c-0.171.086-.127,0.087-0.3,0A0.342,0.342,0,0,0,11.414,22.278Zm38.114,0h0.2v0.195h-0.2V22.278Zm22.531,0h0.2v0.1A0.342,0.342,0,0,1,72.06,22.278Zm1.588,0h0.2v0.1A0.342,0.342,0,0,1,73.648,22.278Zm-24.417.1h0.2v0.1A0.343,0.343,0,0,1,49.231,22.376Zm23.027,0h0.2v0.1A0.343,0.343,0,0,1,72.258,22.376Zm1.588,0,0.3,0.1v0.1A0.378,0.378,0,0,1,73.846,22.376Zm-62.928.1a0.486,0.486,0,0,1,.3.1h-0.2c-0.171.086-.127,0.087-0.3,0A0.342,0.342,0,0,0,10.918,22.473Zm61.538,0h0.2v0.1A0.342,0.342,0,0,1,72.457,22.473Zm-64.516.1h0.2a0.28,0.28,0,0,1-.1.1,1.194,1.194,0,0,1-.6.292v-0.1h0.1C7.66,22.751,7.825,22.684,7.94,22.57Zm64.715,0h0.2v0.1A0.342,0.342,0,0,1,72.655,22.57Zm1.489,0,0.3,0.1v0.1A0.377,0.377,0,0,1,74.144,22.57Zm-63.722.1a0.485,0.485,0,0,1,.3.1h-0.2a6.689,6.689,0,0,1-2.481.877h0.2C8.808,23.158,9.869,23.17,10.422,22.668Zm25.807,0v0.195h0.1A0.332,0.332,0,0,0,36.228,22.668Zm36.625,0h0.2v0.1A0.342,0.342,0,0,1,72.854,22.668Zm0.2,0.1h0.2v0.1A0.342,0.342,0,0,1,73.052,22.765Zm1.39,0h0.2v0.1A0.342,0.342,0,0,1,74.442,22.765Zm-1.191.1h0.2v0.1A0.342,0.342,0,0,1,73.251,22.863Zm1.39,0,0.3,0.1v0.1A0.377,0.377,0,0,1,74.64,22.863Zm-67.395.1h0.2a0.28,0.28,0,0,1-.1.1,0.714,0.714,0,0,1-.4.195v-0.1h0.1C7.121,23.07,7.172,23.045,7.246,22.96Zm15.186,0.487V22.96h0.2v0.487h0.1v0.1h-0.6v-0.1h0.3Zm51.017-.487h0.2v0.1A0.342,0.342,0,0,1,73.449,22.96Zm-24.913.1-0.2.975h0.1a0.371,0.371,0,0,1,.2-0.292v0.195a1.131,1.131,0,0,0-.2.292h0.5v-0.1a0.486,0.486,0,0,1-.3-0.1c0.267-.122.11-0.054,0.2-0.39h-0.1v0.1c-0.077.187-.1-0.2-0.1-0.2a0.457,0.457,0,0,0,.2-0.487h-0.3Zm0.5,1.17h0.5c0.068-.243.234-0.181,0.1-0.292l0.2-.877H49.132c-0.175.092,0,.021-0.2,0v0.1A2.961,2.961,0,0,1,49.032,24.227Zm24.615-1.17h0.2v0.1A0.342,0.342,0,0,1,73.648,23.058Zm1.29,0a2.147,2.147,0,0,1,.5.195v0.1h-0.2A3.485,3.485,0,0,1,74.938,23.058Zm-25.012.1a4.237,4.237,0,0,0-.1.877h0.2V23.155h-0.1Zm23.921,0a10.9,10.9,0,0,1,1.687.682v0.1h-0.3C74.856,23.594,74.217,23.506,73.846,23.155Zm-67.1.1h0.2a0.279,0.279,0,0,1-.1.1,1.194,1.194,0,0,1-.6.292v-0.1h0.1C6.469,23.433,6.634,23.366,6.749,23.253Zm68.685,0.1,0.3,0.1v0.1A0.377,0.377,0,0,1,75.434,23.35Zm-51.811.195a6.3,6.3,0,0,0-.1,1.462h0.2A3.43,3.43,0,0,0,23.623,23.545Zm52.109,0h0.2v0.1A0.342,0.342,0,0,1,75.732,23.545Zm-69.677.1h0.2a0.28,0.28,0,0,1-.1.1,1.194,1.194,0,0,1-.6.292v-0.1h0.1C5.774,23.823,5.939,23.756,6.055,23.643Zm0.695,0h0.2v0.1A0.342,0.342,0,0,1,6.749,23.643Zm69.181,0,0.3,0.1v0.1A0.377,0.377,0,0,1,75.931,23.643Zm-69.38.1h0.2v0.1A0.342,0.342,0,0,1,6.551,23.74Zm1.191,0a0.485,0.485,0,0,1,.3.1h-0.2c-0.171.086-.127,0.087-0.3,0A0.342,0.342,0,0,0,7.742,23.74Zm16.377,0v2.144h0.2V24.91C24.163,24.659,24.278,23.989,24.119,23.74Zm-17.767.1h0.2v0.1A0.342,0.342,0,0,1,6.352,23.838Zm69.876,0,0.3,0.1v0.1A0.377,0.377,0,0,1,76.228,23.838Zm-70.074.1h0.2v0.1A0.342,0.342,0,0,1,6.154,23.935Zm1.092,0a0.485,0.485,0,0,1,.3.1h-0.2c-0.171.086-.127,0.087-0.3,0A0.342,0.342,0,0,0,7.246,23.935Zm68.288,0h0.2v0.1A0.342,0.342,0,0,1,75.534,23.935Zm-70.174.1h0.2a0.28,0.28,0,0,1-.1.1,0.714,0.714,0,0,1-.4.195v-0.1h0.1C5.235,24.143,5.286,24.118,5.36,24.033Zm0.6,0h0.2v0.1A0.342,0.342,0,0,1,5.955,24.033Zm43.176,0h0.2v0.1A0.342,0.342,0,0,1,49.132,24.033Zm26.6,0h0.2v0.1A0.342,0.342,0,0,1,75.732,24.033Zm0.794,0h0.2v0.1A0.342,0.342,0,0,1,76.526,24.033Zm-70.769.1h0.2v0.1A0.342,0.342,0,0,1,5.757,24.13Zm0.993,0a0.485,0.485,0,0,1,.3.1h-0.2a6.689,6.689,0,0,1-2.481.877h0.2C5.136,24.621,6.2,24.633,6.749,24.13Zm69.181,0h0.2v0.1A0.342,0.342,0,0,1,75.931,24.13Zm0.794,0,0.3,0.1v0.1A0.377,0.377,0,0,1,76.725,24.13Zm-71.166.1h0.2v0.1A0.342,0.342,0,0,1,5.558,24.227Zm70.571,0h0.2v0.1A0.342,0.342,0,0,1,76.129,24.227Zm-71.265.1h0.2v0.1A0.342,0.342,0,0,1,4.864,24.325Zm0.5,0h0.2v0.1A0.342,0.342,0,0,1,5.36,24.325Zm44.467,0a1.051,1.051,0,0,0,0,.682,0.35,0.35,0,0,0,.1-0.195A0.328,0.328,0,0,0,49.826,24.325Zm4.963,0a0.533,0.533,0,0,0,.6,0h-0.6Zm2.581,0c0.035,0.029.2,0.051,0.1,0.2C57.358,24.472,57.16,24.347,57.37,24.325Zm18.958,0h0.2v0.1A0.342,0.342,0,0,1,76.328,24.325Zm0.695,0,0.3,0.1v0.1A0.378,0.378,0,0,1,77.022,24.325Zm-72.357.1h0.2a0.28,0.28,0,0,1-.1.1,0.714,0.714,0,0,1-.4.195v-0.1h0.1C4.54,24.532,4.592,24.507,4.665,24.422Zm0.5,0h0.2v0.1A0.342,0.342,0,0,1,5.161,24.422Zm71.365,0h0.2v0.1A0.342,0.342,0,0,1,76.526,24.422Zm-71.563.1h0.2v0.1A0.342,0.342,0,0,1,4.963,24.52Zm43.275,0a1.941,1.941,0,0,0-.1,1.17h0.1v-0.1A1.328,1.328,0,0,0,48.238,24.52Zm28.486,0h0.2v0.1A0.342,0.342,0,0,1,76.725,24.52Zm0.6,0h0.2v0.1A0.342,0.342,0,0,1,77.32,24.52Zm-72.556.1h0.2a0.278,0.278,0,0,1-.1.1,1.507,1.507,0,0,1-.893.39l-0.1-.2h0.1v-0.1h0.2l-0.1.195h0.1C4.338,24.852,4.6,24.775,4.764,24.617Zm27.99,0h0.2v0.1h-0.1a0.872,0.872,0,0,1-.5.1v-0.1A0.649,0.649,0,0,0,32.754,24.617Zm44.169,0h0.2v0.1A0.342,0.342,0,0,1,76.923,24.617Zm0.6,0,0.3,0.1v0.1A0.378,0.378,0,0,1,77.519,24.617Zm-73.35.1h0.2v0.1h-0.2v-0.1Zm72.953,0h0.2v0.1A0.342,0.342,0,0,1,77.122,24.715Zm-53.8.1a1.012,1.012,0,0,0,.1.585A1.013,1.013,0,0,0,23.325,24.812Zm13.1,0a0.294,0.294,0,0,0,.4,0h-0.4Zm40.893,0a2.076,2.076,0,0,1,.794.292v-0.1l-0.1-.1h0.2v0.1h0.1l-0.1.2a2.246,2.246,0,0,1,1.191.487v0.1h-0.2C78.7,25.338,77.81,25.276,77.32,24.812Zm0.5,0h0.2v0.1A0.342,0.342,0,0,1,77.816,24.812Zm-56.079.195c0.035,0.029.2,0.051,0.1,0.2C21.726,25.155,21.527,25.029,21.737,25.007Zm-17.668.2a0.485,0.485,0,0,1,.3.1h-0.2c-0.171.086-.127,0.087-0.3,0A0.342,0.342,0,0,0,4.069,25.2Zm54.392,0a1.093,1.093,0,0,1-.6.1v0.1a2.891,2.891,0,0,1,.1,1.267,4.57,4.57,0,0,0,1.29.1c0.076-.066.221-0.128,0.3-0.195a1.566,1.566,0,0,1-.794-0.1,1.777,1.777,0,0,1-.1-0.877h0.1v-0.1a0.844,0.844,0,0,0,.5-0.1A5.178,5.178,0,0,1,58.462,25.2Zm-10.422.877V25.3h-0.1v0.195a3.609,3.609,0,0,0-.2.585h0.3ZM59.95,25.3a1.042,1.042,0,0,1,.695.195h-0.4C60.172,25.428,60.027,25.367,59.95,25.3Zm-56.377.1a0.485,0.485,0,0,1,.3.1h-0.2c-0.171.086-.127,0.087-0.3,0A0.342,0.342,0,0,0,3.573,25.4Zm33.052,0.682h0.3l0.1-.585a1.847,1.847,0,0,0-.6-0.1v0.1C36.679,25.638,36.626,25.7,36.625,26.079Zm7.146-.682a0.486,0.486,0,0,1,.3.1h-0.1a0.872,0.872,0,0,1-.5.1v-0.1A0.485,0.485,0,0,0,43.772,25.4Zm1.489,0a0.678,0.678,0,0,1-.4.1v0.1h0.2v0.1a0.342,0.342,0,0,0,.2-0.1C45.384,25.439,45.324,25.542,45.261,25.4Zm-26.2.1a0.533,0.533,0,0,0,.6,0h-0.6Zm14.69,0V25.69h0.1A0.332,0.332,0,0,0,33.747,25.495Zm27,0.1a0.679,0.679,0,0,0,.695,0H60.744Zm-18.064.1a0.36,0.36,0,0,1-.2.1v0.1h0.2c0.139-.086.557-0.106,0.695-0.2H42.68Zm36.725,0.1c0.245,0.126.068-.042,0.2,0.195h0.1c0.1,0.1-.1.1-0.1,0.1v0.1H79.5A1.217,1.217,0,0,0,79.4,25.787Zm-31.166.1v0.195h0.1A0.332,0.332,0,0,0,48.238,25.885Zm-0.3.292a1.362,1.362,0,0,0-.1.39l0.4,0.1v-0.2h-0.1A0.371,0.371,0,0,0,47.94,26.177Zm0.3,0.1a0.387,0.387,0,0,0,.2.292l0.3,0.1,0.1-.39h-0.6Zm-10.223.195,0.1,0.292c0.63-.362,1.944.181,2.879-0.1v-0.1H40.6A7.058,7.058,0,0,0,38.015,26.469Zm40.2,0c0.038,0.255-.074.128,0.2,0.2v-0.1h0.1v-0.1h-0.3Zm0.4,0v0.2h0.2v-0.2h-0.2Zm-65.806.1a0.349,0.349,0,0,1,.1.195H12.8V26.567Zm61.34,0a0.533,0.533,0,0,0,.6,0h-0.6Zm0.695,0c0.171,0.086.127,0.087,0.3,0h-0.3Zm-30.074.1a0.294,0.294,0,0,0,.4,0h-0.4Zm25.608,0a0.36,0.36,0,0,0,.2.1A0.359,0.359,0,0,0,70.372,26.664Zm0.993,0v0.195h0.2V26.664h-0.2Zm4.169,0a0.533,0.533,0,0,0,.6,0h-0.6Zm1.985,0a0.294,0.294,0,0,0,.4,0h-0.4Zm-56.476.1c0.171,0.086.127,0.087,0.3,0h-0.3Zm42.481,0a0.678,0.678,0,0,0,.695,0H63.524Zm1.29,0c0.171,0.086.127,0.087,0.3,0h-0.3Zm1.787,0.1v0.2h0.1A0.332,0.332,0,0,0,66.6,26.859Zm-45.558.1c0.171,0.086.127,0.087,0.3,0h-0.3Zm3.672,0a0.294,0.294,0,0,0,.4,0h-0.4Zm2.68,0a0.533,0.533,0,0,0,.6,0h-0.6Zm9.926,0a0.36,0.36,0,0,0,.2.1A0.36,0.36,0,0,0,37.32,26.957Zm21.141,0a0.36,0.36,0,0,0,.2.1A0.36,0.36,0,0,0,58.462,26.957Zm5.161,0a0.679,0.679,0,0,0,.695,0H63.623Zm1.29,0c0.171,0.086.127,0.087,0.3,0h-0.3Zm1.092,0a0.294,0.294,0,0,0,.4,0h-0.4Zm-64.119.682a0.36,0.36,0,0,0,.2.1A0.36,0.36,0,0,0,1.886,27.639Zm0.3,0v0.195h0.1V27.639h-0.1Zm0.5,0c0.165,0.109.106,0.172,0.2,0H2.68Zm4.665,0.1v0.195h0.2V27.737h-0.2Zm0.4,0v0.195h0.3V27.737h-0.3Zm2.779,0c0.171,0.086.127,0.087,0.3,0h-0.3Zm0.4,0a0.36,0.36,0,0,0,.2.1A0.359,0.359,0,0,0,10.918,27.737Zm0.893,0a0.294,0.294,0,0,0,.4,0h-0.4Zm-8.834.1a2.5,2.5,0,0,0,1.588,0H2.978Zm2.481,0a1.014,1.014,0,0,0,.893,0H5.459Zm1.489,0a0.36,0.36,0,0,0,.2.1A0.36,0.36,0,0,0,6.948,27.834Zm3.573,0.1c0.171,0.086.127,0.087,0.3,0h-0.3Zm0.695,0a0.36,0.36,0,0,0,.2.1A0.36,0.36,0,0,0,11.216,27.931Zm0.5,0a0.294,0.294,0,0,0,.4,0h-0.4Zm4.069,0c0.171,0.086.127,0.087,0.3,0h-0.3Zm0.695,0a0.533,0.533,0,0,0,.6,0h-0.6Zm-15.385.585v0.293h0.3v-0.1H1.29v-0.1h0.1A0.512,0.512,0,0,0,1.092,28.516Zm5.459,3.412h0.4v-0.39h-0.2a0.512,0.512,0,0,0-.3-0.1v0.2A0.492,0.492,0,0,1,6.551,31.928Z" transform="translate(0 0.484)"/>
</svg>
