<svg xmlns="http://www.w3.org/2000/svg" width="80" height="40" viewBox="0 0 80 40">
  <defs>
    <style>
      .cls-1 {
        fill: #fff;
        fill-rule: evenodd;
      }
    </style>
  </defs>
  <path id="Color_Fill_1" data-name="Color Fill 1" class="cls-1" d="M35.066,13.231a30.22,30.22,0,0,1,.287,3.124,0.467,0.467,0,0,0,.287-0.095,0.48,0.48,0,0,0,.1-0.284,1.382,1.382,0,0,1-.192-0.663h0.1V15.5a1.994,1.994,0,0,1,.287.947h0.1a1.307,1.307,0,0,1,.192-0.663V16.26a1.616,1.616,0,0,0-.192.568l-0.575.095,0.1,0.947H35.258a10.8,10.8,0,0,0,.671,3.408c0.281-.442.63-0.029,0.767-0.473a2.752,2.752,0,0,1-.192-0.947c0.134-.02-0.039.078,0.1,0.095,0.074,0.182.1-.189,0.1-0.189a1.016,1.016,0,0,1-.1-0.568h0.1V19.1a2.483,2.483,0,0,0,1.341-.189,0.625,0.625,0,0,1-.383-0.095,10.653,10.653,0,0,0,1.15.095,3.9,3.9,0,0,0,.383,1.42,18.39,18.39,0,0,1,.192,2.178h0.192a1.308,1.308,0,0,1,0-.473H40.24V21.941h-0.1a2.455,2.455,0,0,0-.1-0.947H39.569V20.8a4.22,4.22,0,0,0,1.245,0,5.717,5.717,0,0,1,.287-0.663,0.454,0.454,0,0,0,.1.284V20.331c0.162-.161.233-0.393,0.383-0.568-0.028.508-.065,0.731,0.479,0.852a3.06,3.06,0,0,1-.287.852c0.53-.038.623-0.177,1.245-0.189V21.183a0.831,0.831,0,0,1,0-.663h-0.1a0.454,0.454,0,0,1-.1.284l-0.1-.568h0.1c0.062-.07.138,0.033,0.1-0.095-0.128-.383-0.494-0.68-0.1-0.947,0.221-.141.652-0.135,0.862-0.284a0.364,0.364,0,0,1-.287-0.189h0.192a0.687,0.687,0,0,0,.383.189V18.627a0.673,0.673,0,0,1-.192-0.379h0.1v0.095a1.125,1.125,0,0,1,.288.568,3.03,3.03,0,0,1,1.341-.473c0.26,0.742.194,0.743,0.479,1.42l0.671,0.379a1.968,1.968,0,0,1,.1-0.947,1.055,1.055,0,0,0,.192.379,0.583,0.583,0,0,0-.192.189h0.958a4.825,4.825,0,0,1-.192.757L47.9,20.71V19.953h0.287c0-1.635,0-2.862,0-4.355H48.1V15.5a1.117,1.117,0,0,0-.575,0V15.219h0.671V14.935a35.773,35.773,0,0,1-7.281-.757C40,13.9,38.722,14.206,38.036,13.7a18.137,18.137,0,0,1,3.641.568,34.6,34.6,0,0,0,6.611.473,0.606,0.606,0,0,1,.1-0.379,1.348,1.348,0,0,0,.1.473,3.6,3.6,0,0,1,1.246.095c-0.2.324-.082,0.27,0,0.757h-0.1V15.5c-0.118-.127-0.175-0.339-0.287-0.473L49.15,16.639h0.479v0.379h0.383c-0.022-.361-0.036-0.209-0.192-0.379-0.132-.144.173-0.082,0.192-0.095l-0.1-.473h0.766a1.049,1.049,0,0,0,.575.095v0.757a1.368,1.368,0,0,0,.383.095,0.371,0.371,0,0,1,.287-0.189c0.037,0.248-.071.124,0.192,0.189V16.923h0.1a1.212,1.212,0,0,0,.1.663,0.988,0.988,0,0,1,.1-0.568v0.568a2.608,2.608,0,0,0,1.341-.189c-0.018.324,0.172,0.088,0.479,0.284a0.478,0.478,0,0,1,.1.284,0.517,0.517,0,0,0-.287.568h0.287a1.684,1.684,0,0,1-.287.663,2.284,2.284,0,0,0,.192,1.515,1.2,1.2,0,0,1-.1.568c0.043,0.441.1,1.127,0.1,1.894,0.639,0.022,2.421.208,2.683-.189H56.431c-0.5-.3-1.593.035-2.108-0.284l2.3-.095A5.476,5.476,0,0,0,57.2,22.13a2.186,2.186,0,0,0,.383.095,11.717,11.717,0,0,0,2.4-.095H59.305V21.278h0.1V21.183a5.953,5.953,0,0,1,2.108,0c0.278,0.034.62-.149,0.766-0.095,0.13,0.048.41,0.418,0.575,0.473,0.751,0.251,1.715-.183,2.3.189a5.142,5.142,0,0,0-2.587.284,0.624,0.624,0,0,1,.383.095,0.466,0.466,0,0,0-.287.095,3.419,3.419,0,0,0,.958-0.189,3,3,0,0,1,1.15.189c0.3,0.036.475-.138,0.671-0.095,0.235,0.051.513,0.4,0.766,0.473h2.108v0.189H66.3c-0.147.128-.413,0.166-0.575,0.284,3.155-.119,6.711-0.047,9.581-0.663a17.625,17.625,0,0,1,3.641-.189,0.81,0.81,0,0,0-.479.095,1.024,1.024,0,0,1,.766.189,0.455,0.455,0,0,1,.1-0.284,0.65,0.65,0,0,0,.479.189A1.037,1.037,0,0,1,80,22.13V22.6c-0.883.52-.451,1.542-0.766,2.651a3.732,3.732,0,0,1-1.916,2.367c-1.53.632-4.331,0.284-6.323,0.284H9.485C9.13,27.277,8.592,27.3,7.569,27.337a2.07,2.07,0,0,1-1.246.189c0.067,0.282.119,0.317-.192,0.473a6.812,6.812,0,0,0-.575-0.757c0.375-.1.368-0.108,0.383-0.568A4.977,4.977,0,0,1,4.5,26.391V26.58c0.5-.014.584-0.05,0.671,0.379a1.5,1.5,0,0,1-.383.757,3.8,3.8,0,0,1-1.533.095,1.709,1.709,0,0,0-.287-0.379L2.874,26.3a3.307,3.307,0,0,1,1.246.189,9.56,9.56,0,0,0-3.066-.663,7.338,7.338,0,0,1-.192-2.746,2.265,2.265,0,0,1,.1-1.136v1.61L15.9,23.172c0.02-.133-0.079.038-0.1-0.095C15.624,23,16,22.982,16,22.982a1.28,1.28,0,0,0,1.15.095c-0.732-.062-1.619-0.187-2.587-0.189V22.7h2.108c0.255-.076.53-0.418,0.766-0.473,0.321-.075.989,0.2,1.245,0.095V22.13c0.687-.262.871,0.5,1.533,0.095a0.468,0.468,0,0,1-.287-0.095h0.383l0.1,1.041h0.575L20.79,22.036a15.643,15.643,0,0,1-2.587-.284l2.3-.095a1.766,1.766,0,0,1,1.15-.379,2.566,2.566,0,0,1,.1-0.852,2.429,2.429,0,0,0,.767.095,0.454,0.454,0,0,1,.1-0.284V20.8h-0.1a0.7,0.7,0,0,0-.767-0.189v0.757h0.1c0.2-.21,1.811-0.559,2.108.095a1.482,1.482,0,0,1,.1.757H23.761v0.189h-0.1v0.095h0.479V22.225a3.4,3.4,0,0,1,.958-0.189v0.379a1.951,1.951,0,0,1,.671.095V22.13a0.582,0.582,0,0,1-.192-0.189l1.245-.095v0.189c-0.378.038-.378-0.042-0.479,0.189h0.1V22.32a1.518,1.518,0,0,1,.479-0.095,0.454,0.454,0,0,0,.1.284V22.414a0.812,0.812,0,0,0,.1-0.473l2.108-.095,0.1-.284c-0.824-.081-1.642-0.275-2.4-0.379a2.845,2.845,0,0,1,.1-0.663,1.368,1.368,0,0,1,.383-0.095l0.1,0.284a0.479,0.479,0,0,1,.1.284h1.15V20.8c0.653-.279,1.347.183,2.012,0.189a0.581,0.581,0,0,0,.192.189l-0.1.284a2.318,2.318,0,0,0-1.437.284h0.1a0.838,0.838,0,0,0,.479.095,9.7,9.7,0,0,1,1.533,0,2.85,2.85,0,0,0-.1-0.663h0.287V20.8a1.125,1.125,0,0,1,.575-0.284c0.17,0.352.306,0.262,0.671,0.189a1.2,1.2,0,0,1,.383-0.852H32.958a1.4,1.4,0,0,0-.862-0.189c-0.1.154-.092,0.6-0.192,0.757a1.777,1.777,0,0,0-.192-0.947,2.217,2.217,0,0,1-1.341-.284l-3.832-1.041c0.013,0.381.052,0.518-.192,0.663V18.343a0.633,0.633,0,0,1-.1-0.379h0.1V17.87c0.482,0.147,1.682-.079,2.108.189a2.889,2.889,0,0,0-1.246.095c1.11,0.059,1.888.481,2.778,0.568l-0.1.189h0.1a0.652,0.652,0,0,1,.383-0.095l-0.1.189h0.1a0.282,0.282,0,0,1,.383,0,0.329,0.329,0,0,0-.192.095h0.192a0.282,0.282,0,0,1,.383,0,0.33,0.33,0,0,0-.192.095h0.192a0.282,0.282,0,0,1,.383,0,0.33,0.33,0,0,0-.192.095h0.192a0.492,0.492,0,0,1,.287-0.095V19.29a0.329,0.329,0,0,0-.192.095H31.9A0.454,0.454,0,0,1,32,19.1c0.18,0.081.071,0.045,0.287,0V19.29a0.583,0.583,0,0,0-.192.189,16.086,16.086,0,0,0,2.587.568c0.35-.7-0.093-2.829,0-3.6-0.224.007-.165,0.084-0.383-0.095h0.192l0.1-.189a0.459,0.459,0,0,1-.383-0.473h0.1a0.582,0.582,0,0,0,.192.189l0.1-.379h0.1v0.284a0.479,0.479,0,0,0-.1.284h0.1a0.37,0.37,0,0,1,.288-0.189,0.784,0.784,0,0,0,.1.473,4.78,4.78,0,0,0-.1-1.894,3.782,3.782,0,0,1-.192,1.042h-0.1V15.124a2.363,2.363,0,0,0,.288-1.231,2.022,2.022,0,0,0-.575-0.379l0.1-.189H34.4a0.347,0.347,0,0,1,.192-0.095c0.209,0.089.285,0.135,0.383-.095a4.153,4.153,0,0,1-1.916-.284h0.1c0.071-.083.121-0.107,0.192-0.189a1.539,1.539,0,0,1,.575.189s-0.375.018-.192,0.095h0.192a0.346,0.346,0,0,0,.192.095c-0.071-.082-0.121-0.107-0.192-0.189l1.054,0.189a1.62,1.62,0,0,1,0-1.041,1.864,1.864,0,0,0,.192,1.041c0.755,0.473,2.138.163,2.874,0.663a5.194,5.194,0,0,1-1.245-.189,1.5,1.5,0,0,1-.192.568c0.015-.426.12-0.438-0.1-0.568A3.188,3.188,0,0,0,35.066,13.231Zm-2.2-.284h0.192v0.095h-0.1C32.892,13.054,32.772,13.046,32.862,12.947Zm-0.287.189h0.192l-0.1.189-0.287.095Zm1.533,0.095L34.4,13.325V13.42A0.364,0.364,0,0,1,34.108,13.231ZM46.85,13.325c0.244,0.138.108-.021,0.192,0.284H46.85V13.325Zm-14.659.095a0.373,0.373,0,0,1,.287.379h-0.1A2.576,2.576,0,0,0,32,13.515,0.329,0.329,0,0,0,32.192,13.42Zm2.779,0H34.587v0.095h0.192a0.581,0.581,0,0,0,.192.189V13.42Zm-3.258.189A0.467,0.467,0,0,1,32,13.7H31.808a0.561,0.561,0,0,1-.671.189h0.192C31.442,13.785,31.6,13.719,31.713,13.61ZM46.946,13.7a0.34,0.34,0,0,1,.1.189h-0.1V13.7Zm0.1,0.189a0.34,0.34,0,0,1,.1.189h-0.1V13.894Zm-16.192.095a0.467,0.467,0,0,1,.287.095H30.946a0.337,0.337,0,0,1-.479.095h0.192C30.73,14.1,30.779,14.071,30.85,13.988Zm4.407,0,0.287,0.095v0.095A0.364,0.364,0,0,1,35.258,13.988Zm13.126,0h0.287v0.757H48.479V14.272A0.479,0.479,0,0,1,48.383,13.988Zm-15.617.095a0.719,0.719,0,0,1,.383.473h-0.1V14.462h-0.1A1.418,1.418,0,0,1,32.767,14.083Zm3.736,0a0.961,0.961,0,0,1,0,.757v0.095c-0.084-.07-0.108-0.119-0.192-0.189A1.479,1.479,0,0,0,36.5,14.083Zm-0.958.095,0.287,0.095v0.095A0.364,0.364,0,0,1,35.545,14.178Zm11.593,0a0.34,0.34,0,0,1,.1.189h-0.1V14.178Zm-16.958.095a0.467,0.467,0,0,1,.287.095H30.275c-0.165.083-.122,0.084-0.287,0A0.329,0.329,0,0,0,30.18,14.272Zm5.653,0.095,0.288,0.095v0.095A0.364,0.364,0,0,1,35.832,14.367Zm-6.132.095a0.467,0.467,0,0,1,.287.095H29.8a0.337,0.337,0,0,1-.479.095h0.192C29.58,14.568,29.63,14.544,29.7,14.462Zm17.533,0a0.34,0.34,0,0,1,.1.189h-0.1V14.462Zm-11.114.095h0.192v0.095A0.329,0.329,0,0,1,36.12,14.556Zm5.653,0a0.341,0.341,0,0,1,.1.189h-0.1V14.556Zm-6.228.095c0.311,0.078.146-.046,0.287,0.189A0.364,0.364,0,0,1,35.545,14.651Zm-6.515.095a0.467,0.467,0,0,1,.287.095H29.126c-0.165.083-.122,0.084-0.287,0A0.329,0.329,0,0,0,29.03,14.746Zm6.323,0a0.479,0.479,0,0,1,.1.284h-0.1V14.746Zm6.515,0a3.356,3.356,0,0,1,.287.284v0.189h-0.1V15.124A0.674,0.674,0,0,1,41.868,14.746Zm-8.431.095a0.953,0.953,0,0,1,.479.568h-0.1A2.116,2.116,0,0,1,33.437,14.84Zm3.162,0,0.287,0.095V15.03A0.364,0.364,0,0,1,36.6,14.84Zm-8.048.095a0.466,0.466,0,0,1,.287.095H28.647c-0.165.083-.122,0.084-0.287,0A0.33,0.33,0,0,0,28.551,14.935Zm7.761,0a0.828,0.828,0,0,1-.1.852Zm11.114,0a0.479,0.479,0,0,1,.1.284h-0.1V14.935Zm1.15,0a0.606,0.606,0,0,0,.1.379A0.606,0.606,0,0,0,48.575,14.935Zm0.192,0a0.454,0.454,0,0,0,.1.284,0.715,0.715,0,0,0,.287-0.284H48.767Zm-13.317.095a0.479,0.479,0,0,1,.1.284h-0.1V15.03Zm1.437,0a2.064,2.064,0,0,1,.479.189v0.095H37.174A3.372,3.372,0,0,1,36.886,15.03Zm12.838,0a3.728,3.728,0,0,1,.671.189v0.095H50.108C50,15.2,49.836,15.14,49.725,15.03Zm-21.653.095a0.467,0.467,0,0,1,.287.095H28.168c-0.165.083-.122,0.084-0.288,0A0.33,0.33,0,0,0,28.072,15.124Zm14.084,0.095a0.341,0.341,0,0,1,.1.189h-0.1V15.219Zm-14.563.095a0.466,0.466,0,0,1,.287.095H27.689a0.479,0.479,0,0,1-.575.095h0.192C27.379,15.438,27.519,15.379,27.593,15.314Zm9.772,0,0.287,0.095V15.5A0.364,0.364,0,0,1,37.365,15.314Zm13.03,0a3.727,3.727,0,0,1,.671.189V15.6H50.778C50.666,15.489,50.507,15.424,50.4,15.314Zm-8.144.095a0.34,0.34,0,0,1,.1.189h-0.1V15.408Zm6.323,0V15.6h0.1V15.5h0.1A0.347,0.347,0,0,0,48.575,15.408ZM37.653,15.5a2.065,2.065,0,0,1,.479.189v0.095H37.94A3.371,3.371,0,0,1,37.653,15.5Zm9.964,0a0.479,0.479,0,0,1,.1.284h-0.1V15.5Zm-20.79.095a0.467,0.467,0,0,1,.288.095H26.922a0.479,0.479,0,0,1-.575.095h0.192C26.613,15.722,26.753,15.663,26.826,15.6Zm15.521,0a0.34,0.34,0,0,1,.1.189h-0.1V15.6Zm5.94,0v0.189h0.192V15.6H48.287Zm2.779,0,0.479,0.095v0.095H51.258C51.187,15.7,51.137,15.68,51.066,15.6Zm-2.779,2.462h0.383v-1.42a0.468,0.468,0,0,1-.287-0.095,1.187,1.187,0,0,0,.287-0.568,0.454,0.454,0,0,0,.1.284V15.692H48.575c-0.044.2,0.025,0.176-.1,0.284,0,0-.087-0.215-0.192-0.095V17.4A4.2,4.2,0,0,1,48.287,18.059Zm1.437-2.367a0.341,0.341,0,0,1,.1.189h-0.1V15.692Zm-11.593.095a2.064,2.064,0,0,1,.479.189v0.095H38.419A3.372,3.372,0,0,1,38.132,15.787Zm4.311,0a0.34,0.34,0,0,1,.1.189h-0.1V15.787Zm5.27,0a0.479,0.479,0,0,1,.1.284h-0.1V15.787Zm3.832,0a3.727,3.727,0,0,1,.671.189v0.095H51.928C51.816,15.962,51.656,15.9,51.545,15.787Zm-25.485.095a0.467,0.467,0,0,1,.287.095H26.156a0.929,0.929,0,0,1-.862.189h0.192C25.636,16.05,25.911,16,26.06,15.882Zm23.761,0a0.34,0.34,0,0,1,.1.189h-0.1V15.882Zm2.491,0a3.157,3.157,0,0,0,1.437.663v0.095H53.461a1.218,1.218,0,0,0-1.054-.189v0.284a1.1,1.1,0,0,1,.192.284H52.407a0.347,0.347,0,0,0-.192-0.095c0.005-.275.092-0.132,0-0.284-0.15.118-.049,0.061-0.192,0A0.675,0.675,0,0,0,52.311,15.882Zm-17.15.095a1.453,1.453,0,0,0,.1.757A1.455,1.455,0,0,0,35.162,15.976Zm7.377,0a3.314,3.314,0,0,1,.287.284V16.45h-0.1V16.355A0.673,0.673,0,0,1,42.539,15.976Zm-3.928.095a2.065,2.065,0,0,1,.479.189v0.095H38.9A3.356,3.356,0,0,1,38.611,16.071Zm9.2,0a0.479,0.479,0,0,1,.1.284h-0.1V16.071Zm-22.8.189a0.467,0.467,0,0,1,.287.095A0.467,0.467,0,0,1,25.006,16.26Zm-0.287.095a0.466,0.466,0,0,1,.287.095A0.466,0.466,0,0,1,24.719,16.355Zm11.018,0a0.652,0.652,0,0,1-.383.095c0.132,0.291-.013.275,0.575,0.284V16.544C35.845,16.474,35.82,16.425,35.737,16.355Zm3.353,0a2.07,2.07,0,0,1,.479.189v0.095H39.377A3.387,3.387,0,0,1,39.09,16.355Zm8.814,0a0.48,0.48,0,0,1,.1.284H47.9V16.355Zm-23.473.095a0.467,0.467,0,0,1,.287.095A0.467,0.467,0,0,1,24.431,16.45Zm9.677,0H34.3v0.095A0.329,0.329,0,0,1,34.108,16.45Zm8.719,0a0.34,0.34,0,0,1,.1.189h-0.1V16.45Zm-18.683.095a0.466,0.466,0,0,1,.287.095H24.24a0.993,0.993,0,0,1-.958.189A1.65,1.65,0,0,0,24.144,16.544Zm9.677,0a0.466,0.466,0,0,1,.287.095H33.916c-0.165.083-.123,0.084-0.288,0A0.331,0.331,0,0,0,33.82,16.544ZM34.3,16.639c0.045,0.2.091,0.1-.1,0.284v0.095h-0.1A1.262,1.262,0,0,1,34.3,16.639Zm5.27,0h0.192v0.095A0.329,0.329,0,0,1,39.569,16.639Zm3.353,0a0.34,0.34,0,0,1,.1.189h-0.1V16.639Zm5.078,0a0.479,0.479,0,0,1,.1.284H48V16.639Zm5.749,0a0.467,0.467,0,0,1,.287.095A0.467,0.467,0,0,1,53.749,16.639Zm-20.311.095h0.192v0.095A0.33,0.33,0,0,1,33.437,16.734Zm6.323,0a2.069,2.069,0,0,1,.479.189v0.095H40.048A3.372,3.372,0,0,1,39.761,16.734Zm14.275,0a0.466,0.466,0,0,1,.287.095A0.466,0.466,0,0,1,54.036,16.734Zm-20.79.095h0.192v0.095A0.33,0.33,0,0,1,33.246,16.828Zm9.773,0a0.34,0.34,0,0,1,.1.189h-0.1V16.828Zm6.036,0c0,0.91-.252,1.527-0.287,2.367h0.192V19.006a4.228,4.228,0,0,1,.287-1.041,2.856,2.856,0,0,0,.1.663h0.1a2.686,2.686,0,0,1,.383-1.515H49.246V17.018C49.162,16.948,49.137,16.9,49.054,16.828Zm5.269,0a4.832,4.832,0,0,1,2.012.663H55.952C55.511,17.169,54.723,17.192,54.323,16.828Zm-31.329.095a0.466,0.466,0,0,1,.287.095A0.468,0.468,0,0,1,22.994,16.923Zm9.964,0a0.466,0.466,0,0,1,.287.095H33.054c-0.165.083-.123,0.084-0.287,0A0.331,0.331,0,0,0,32.958,16.923Zm-10.251.095a0.467,0.467,0,0,1,.287.095A0.467,0.467,0,0,1,22.707,17.018Zm12.455,0a3.188,3.188,0,0,0,.1.757h0.1V17.018H35.162Zm5.078,0a2.944,2.944,0,0,1,.671.284V17.4H40.719A4.013,4.013,0,0,1,40.24,17.018Zm2.874,0a0.34,0.34,0,0,1,.1.189h-0.1V17.018Zm-20.79,1.8a1.389,1.389,0,0,0-.479.095V18.343a2,2,0,0,0,.1-0.947h-0.1a1.492,1.492,0,0,1-1.15.284h0.192a3.973,3.973,0,0,1,1.82-.568v0.095c-0.818.078-.726,0.639-0.671,1.515h0.192c-0.008-.384-0.157-0.226.1-0.379v0.473Zm10.251-1.7h0.192v0.095A0.33,0.33,0,0,1,32.575,17.112Zm2.3,0a1.253,1.253,0,0,1,0,.663h0.192V17.207Zm16.1,0v0.473h0.192V17.112H50.97Zm0.287,0V17.4h0.383V17.112H51.258Zm-18.874.095h0.192V17.3A0.33,0.33,0,0,1,32.383,17.207Zm1.437,0c0.045,0.2.091,0.1-.1,0.284v0.095h-0.1A1.263,1.263,0,0,1,33.82,17.207Zm9.389,0a3.342,3.342,0,0,1,.287.284v0.189H43.4V17.586A0.673,0.673,0,0,1,43.21,17.207ZM32.1,17.3a0.467,0.467,0,0,1,.287.095H32.192c-0.165.084-.122,0.084-0.287,0H32.1V17.3ZM40.91,17.4H41.1v0.095A0.329,0.329,0,0,1,40.91,17.4Zm-9.2.095H31.9v0.095A0.329,0.329,0,0,1,31.713,17.491Zm9.389,0a2.069,2.069,0,0,1,.479.189v0.095H41.389A3.356,3.356,0,0,1,41.1,17.491Zm15.234,0a0.467,0.467,0,0,1,.288.095A0.467,0.467,0,0,1,56.335,17.491Zm-24.814.095h0.192v0.095A0.329,0.329,0,0,1,31.521,17.586Zm25.1,0a0.466,0.466,0,0,1,.287.095A0.466,0.466,0,0,1,56.623,17.586Zm-25.389.095a0.467,0.467,0,0,1,.288.095H31.329c-0.165.084-.122,0.084-0.287,0A0.329,0.329,0,0,0,31.234,17.681Zm12.264,0a0.339,0.339,0,0,1,.1.189H43.5V17.681Zm13.413,0a2.3,2.3,0,0,1,1.245.379H57.773C57.542,17.888,57.136,17.858,56.91,17.681Zm-36.5.095a0.467,0.467,0,0,1,.287.095A0.466,0.466,0,0,1,20.407,17.775Zm21.174,0h0.192V17.87A0.329,0.329,0,0,1,41.581,17.775ZM20.12,17.87a0.466,0.466,0,0,1,.287.095A0.466,0.466,0,0,1,20.12,17.87Zm8.623,0h2.3v0.095h-0.1a0.764,0.764,0,0,1-.767.189h0.192a0.346,0.346,0,0,1,.192-0.095V17.965A4.651,4.651,0,0,1,28.743,17.87Zm4.5,0c0.045,0.2.091,0.1-.1,0.284v0.095h-0.1A1.265,1.265,0,0,1,33.246,17.87Zm8.527,0h0.192v0.095A0.329,0.329,0,0,1,41.773,17.87Zm1.82,0a0.34,0.34,0,0,1,.1.189h-0.1V17.87Zm-23.76.095a0.467,0.467,0,0,1,.288.095A0.467,0.467,0,0,1,19.832,17.965ZM34.97,19.1h0.287l-0.1-1.136a0.467,0.467,0,0,0-.288.095A2.27,2.27,0,0,1,34.97,19.1Zm6.994-1.136a3.918,3.918,0,0,1,.862.379v0.095H42.635A5.206,5.206,0,0,1,41.964,17.965Zm7.569,0a0.87,0.87,0,0,0,.288.947V18.059Zm-29.988.095a0.467,0.467,0,0,1,.287.095A0.467,0.467,0,0,1,19.545,18.059Zm24.144,0a0.339,0.339,0,0,1,.1.189h-0.1V18.059Zm14.467,0a1.612,1.612,0,0,1,.958.284H58.731C58.579,18.228,58.3,18.178,58.156,18.059Zm-38.9.095a0.467,0.467,0,0,1,.287.095A0.466,0.466,0,0,1,19.258,18.154ZM48.287,19.1h0.287l0.1-.947H48.383A3.081,3.081,0,0,0,48.287,19.1ZM18.97,18.249a0.466,0.466,0,0,1,.287.095A0.466,0.466,0,0,1,18.97,18.249Zm11.018,0H30.18v0.095A0.33,0.33,0,0,1,29.988,18.249Zm1.15,0a0.719,0.719,0,0,1,.383.473h-0.1V18.627h-0.1A1.421,1.421,0,0,1,31.138,18.249Zm-12.551.095a0.624,0.624,0,0,1,.383.095c-0.561.082-1.36,0.628-1.82,0.379A3.206,3.206,0,0,0,18.587,18.343Zm11.21,0h0.192v0.095A0.33,0.33,0,0,1,29.8,18.343Zm29.317,0a1,1,0,0,1,.671.189H59.4C59.327,18.468,59.187,18.408,59.114,18.343Zm-29.6.095a0.467,0.467,0,0,1,.287.095A0.467,0.467,0,0,1,29.509,18.438Zm3.258,0c0.045,0.2.091,0.1-.1,0.284v0.095h-0.1A1.263,1.263,0,0,1,32.767,18.438Zm10.06,0h0.192v0.095A0.33,0.33,0,0,1,42.826,18.438Zm0.192,0.095H43.21v0.095A0.329,0.329,0,0,1,43.018,18.533Zm16.766,0a1,1,0,0,1,.671.189H60.072C60,18.657,59.858,18.6,59.784,18.533Zm-16.575.095H43.4v0.095A0.329,0.329,0,0,1,43.21,18.627Zm17.246,0.095a2.5,2.5,0,0,1,.862.189,1.92,1.92,0,0,0,.192.757h-0.1V19.574c-0.074-.182-0.1.189-0.1,0.189,0.236,0.123.065-.041,0.192,0.189h-0.1a0.347,0.347,0,0,0-.192-0.095,1.6,1.6,0,0,0-.1-0.852C60.948,18.884,60.622,18.852,60.455,18.722Zm-43.593.189a0.467,0.467,0,0,1,.287.095A0.466,0.466,0,0,1,16.862,18.911Zm5.461,0a0.377,0.377,0,0,1,0,.473V18.911Zm-5.844.095a0.625,0.625,0,0,1,.383.095,2.147,2.147,0,0,1-1.246.189A1.649,1.649,0,0,0,16.479,19.006Zm30.659,0a0.479,0.479,0,0,1,.1.284l-0.287.189V19.29A0.366,0.366,0,0,0,47.138,19.006Zm-25.293.568a1.891,1.891,0,0,1,.575,0,1.016,1.016,0,0,1,.1.568h-0.1V19.669H21.844a0.988,0.988,0,0,1-.1.568,2.238,2.238,0,0,1,.1-1.041v0.379ZM34.97,19.2a5.241,5.241,0,0,0,0,.852,0.837,0.837,0,0,0,.479.095,2.412,2.412,0,0,0-.192-0.947H34.97Zm3.641,0a0.454,0.454,0,0,0,.1.284A0.455,0.455,0,0,0,38.611,19.2Zm10.635,0,0.1,0.757h0.1V19.29Zm-33.916.189a0.467,0.467,0,0,1,.287.095A0.467,0.467,0,0,1,15.329,19.385Zm-0.383.095a0.624,0.624,0,0,1,.383.095,1.439,1.439,0,0,1-.958.095A0.957,0.957,0,0,0,14.946,19.479Zm23.761,0.189a0.454,0.454,0,0,0,.1.284A0.454,0.454,0,0,0,38.707,19.669Zm-24.719.095a0.625,0.625,0,0,1,.383.095,0.886,0.886,0,0,1-.671,0A0.466,0.466,0,0,0,13.988,19.763Zm47.042,0a0.274,0.274,0,0,1,0,.379V19.763Zm-47.712.189a0.625,0.625,0,0,1,.383.095,1.439,1.439,0,0,1-.958.095A0.958,0.958,0,0,0,13.317,19.953Zm20.5,0.473h0.671a1.191,1.191,0,0,0,.1.379h0.1V20.237l-0.862-.189v0.379Zm-21.461-.189a0.624,0.624,0,0,1,.383.095,0.885,0.885,0,0,1-.671,0A0.468,0.468,0,0,0,12.359,20.237Zm22.611,0c0.165,0.083.122,0.084,0.287,0H34.97Zm12.072,0v0.189a0.44,0.44,0,0,1,.383.095V20.331h-0.1V20.237H47.042Zm14.467,0a0.942,0.942,0,0,1,0,.852A3.942,3.942,0,0,1,61.509,20.237Zm-25.772.095a0.339,0.339,0,0,1,.1.189h-0.1V20.331Zm0.958,0v0.189h0.1A0.323,0.323,0,0,0,36.695,20.331Zm-25.006.095a0.625,0.625,0,0,1,.383.095,0.886,0.886,0,0,1-.671,0A0.466,0.466,0,0,0,11.689,20.426Zm49.246,0c0.17,0.178.177,0.075,0.1,0.284V20.9h-0.1V20.426Zm-49.916.189a0.624,0.624,0,0,1,.383.095,1.749,1.749,0,0,1-1.054.095A1.346,1.346,0,0,0,11.018,20.615ZM30.755,20.71a0.479,0.479,0,0,1,.1.284h-0.1V20.71ZM32.287,20.8v0.189h0.1A0.323,0.323,0,0,0,32.287,20.8Zm0.575,0v0.189h0.1A0.323,0.323,0,0,0,32.862,20.8Zm-22.9.095a0.624,0.624,0,0,1,.383.095,1.75,1.75,0,0,1-1.054.095A1.347,1.347,0,0,0,9.964,20.9Zm33.054,0v0.189h0.1A0.324,0.324,0,0,0,43.018,20.9Zm5.94,0.095c0.107,0.272.017,0.174,0.287,0.284a0.347,0.347,0,0,0,.192.095V21.089H49.246A0.492,0.492,0,0,0,48.958,20.994ZM8.91,21.183a0.625,0.625,0,0,1,.383.095,2.825,2.825,0,0,1-1.437.189A2.408,2.408,0,0,0,8.91,21.183Zm36.311,0a2.233,2.233,0,0,0,.671.189A0.821,0.821,0,0,0,45.222,21.183ZM0,21.278H0.958v0.568H0V21.278Zm46.371,0.568V21.468a7.683,7.683,0,0,0-1.341-.095c-0.119.148-.061,0.048,0,0.189a2.509,2.509,0,0,0,.862,0C46.1,21.628,45.829,21.783,46.371,21.846Zm-20.024-.473a0.633,0.633,0,0,1,.1.379H26.252V21.562A0.34,0.34,0,0,0,26.347,21.373Zm9.581,0.095c-0.007.221,0.253,0.48,0.671,0.189A5.4,5.4,0,0,0,35.928,21.468Zm-28.455.095a0.625,0.625,0,0,1,.383.095A0.624,0.624,0,0,1,7.473,21.562Zm-0.383.095a0.624,0.624,0,0,1,.383.095c-0.63.084-1.77,0.682-2.3,0.379A4.413,4.413,0,0,0,7.09,21.657Zm32.287,0.095c0.311,0.078.146-.046,0.288,0.189h-0.1C39.5,21.858,39.448,21.834,39.377,21.752Zm-13.317.284a1.418,1.418,0,0,0-.192.379H26.06c0.02-.133-0.079.038-0.1-0.095-0.184-.073.192-0.095,0.192-0.095V22.32h0.1C26.138,22.069,26.337,22.15,26.06,22.036Zm1.15,0c0.079,0.307-.047.145,0.192,0.284a7.468,7.468,0,0,0,1.054-.095V22.13C27.887,22.074,27.675,22.091,27.21,22.036Zm4.024,0a0.348,0.348,0,0,0,.192.095A0.346,0.346,0,0,0,31.234,22.036ZM60.072,22.13a0.454,0.454,0,0,0,.1.284V22.13h-0.1Zm2.4,0-0.1.757h0.192V22.13h-0.1ZM4.79,22.225a0.624,0.624,0,0,1,.383.095A0.625,0.625,0,0,1,4.79,22.225Zm18.3,0a0.282,0.282,0,0,0,.383,0H23.09Zm5.461,0a0.512,0.512,0,0,0,.575,0H28.551Zm-24.24.095a0.81,0.81,0,0,1,.479.095c-0.531.049-1.212,0.433-1.629,0.189A2.32,2.32,0,0,0,4.311,22.32Zm73.2,0c-0.766.456-2.311-.093-3.066,0.379a10.366,10.366,0,0,0,3.449-.379H77.509Zm0.479,0a0.282,0.282,0,0,0,.383,0H77.988Zm0.479,0.095c-0.1.066-.383,0.122-0.479,0.189h0.575A0.324,0.324,0,0,0,78.467,22.414Zm0.192,0V22.6h0.1V22.509h0.1A0.347,0.347,0,0,0,78.659,22.414Zm-18.491.095a1.212,1.212,0,0,0,.1.663A1.214,1.214,0,0,0,60.168,22.509ZM77.509,22.6a0.282,0.282,0,0,0,.383,0H77.509ZM2.683,22.7a0.81,0.81,0,0,1,.479.095c-0.621.053-1.619,0.565-2.108,0.284A3.745,3.745,0,0,0,2.683,22.7Zm73.293,0c0.165,0.083.123,0.084,0.287,0H75.976Zm-3.449.095a0.348,0.348,0,0,0,.192.095A0.347,0.347,0,0,0,72.527,22.793Zm-1.533.095v0.189a3.776,3.776,0,0,0,.671-0.189H70.994Zm0.766,0c0.165,0.083.122,0.084,0.287,0H71.761Zm1.725,0a0.347,0.347,0,0,0,.192.095A0.346,0.346,0,0,0,73.485,22.888ZM43.4,22.982v0.189h0.1V22.982H43.4Zm25.677,0c-0.339.2-1.2-.018-1.533,0.189a12.961,12.961,0,0,0,3.353-.189h-1.82Zm-2.587.095v0.189a3.776,3.776,0,0,0,.671-0.189H66.491Zm4.695,0a0.388,0.388,0,0,0,.479,0H71.186Zm-8.814.095v0.189h0.192V23.172H62.371Zm0.766,0a0.606,0.606,0,0,0,.1.379,1.191,1.191,0,0,1,.1-0.379H63.138Zm2.491,0a0.652,0.652,0,0,0,.671,0H65.629Zm3.737,0c-0.135.084-.537,0.1-0.671,0.189h0.958V23.266Zm0.383,0a0.282,0.282,0,0,0,.383,0H69.749Zm0.479,0c0.165,0.083.122,0.084,0.287,0H70.228Zm-56.24.095v0.189h0.287V23.266H13.988Zm0.383,0a0.282,0.282,0,0,0,.383,0H14.371Zm0.766,0c0.165,0.083.122,0.084,0.287,0H15.138Zm0.671,0a0.346,0.346,0,0,0,.192.095A0.347,0.347,0,0,0,15.808,23.266Zm1.054,0a0.346,0.346,0,0,0,.192.095A0.347,0.347,0,0,0,16.862,23.266Zm2.587,0a6.588,6.588,0,0,0,1.533.189V23.266H19.449Zm36.407,0a1.54,1.54,0,0,0,1.15,0h-1.15Zm3.449,0a0.388,0.388,0,0,0,.479,0H59.305Zm0.575,0c0.165,0.083.122,0.084,0.288,0H59.88Zm7.186,0v0.189l0.287-.095V23.266H67.066Zm0.479,0a0.282,0.282,0,0,0,.383,0H67.545Zm0.575,0a0.282,0.282,0,0,0,.383,0H68.12Zm-56.814.095a4.849,4.849,0,0,0,2.491,0H11.305Zm54.611,0a0.282,0.282,0,0,0,.383,0H65.916Zm-59.305.095c0.031,0.209-.1.1,0.1,0.189A0.347,0.347,0,0,1,6.9,23.55V23.456H6.611Zm0.383,0a0.282,0.282,0,0,0,.383,0H6.994Zm0.575,0a2.865,2.865,0,0,0,1.725,0H7.569Zm1.82,0c0.165,0.083.122,0.084,0.287,0H9.389Zm5.174,0c-0.135.084-.537,0.1-0.671,0.189H14.85V23.55Zm0.575,0c0.165,0.083.122,0.084,0.287,0H15.138Zm1.725,0c0.165,0.083.122,0.084,0.287,0H16.862Zm38.994,0a0.346,0.346,0,0,0,.192.095A0.347,0.347,0,0,0,55.856,23.456Zm-52.5.095V23.74a7.655,7.655,0,0,0,1.341-.189H3.353Zm1.437,0a2.178,2.178,0,0,0,1.437,0H4.79Zm6.515,0a2.4,2.4,0,0,0,1.533,0H11.305Zm2.108,0a0.282,0.282,0,0,0,.383,0H13.413Zm-12.455.095a4.34,4.34,0,0,0,2.3,0h-2.3Zm6.036,0c-0.1.066-.383,0.122-0.479,0.189a0.7,0.7,0,0,0,.766-0.189H6.994Zm0.671,0a0.806,0.806,0,0,0,.766,0H7.665Zm1.341,0c0.165,0.083.122,0.084,0.287,0H9.006Zm-5.269.095c-0.316.189-1.124,0-1.437,0.189a7.649,7.649,0,0,0,2.108-.095H4.5V23.74A4.149,4.149,0,0,1,3.737,23.74Zm1.246,0c0.165,0.084.122,0.084,0.287,0H4.982Zm0.383,0a0.388,0.388,0,0,0,.479,0H5.365Zm0.671,0c0.165,0.084.122,0.084,0.287,0H6.036Zm0.575,3.408V26.769H6.132v0.095A0.884,0.884,0,0,0,6.611,27.148Zm0.383,0,1.341,0.095V27.148a2.083,2.083,0,0,0-.671-0.095,4.378,4.378,0,0,0-.671-0.189v0.284Z"/>
</svg>
