<svg xmlns="http://www.w3.org/2000/svg" width="80" height="40" viewBox="0 0 80 40">
  <defs>
    <style>
      .cls-1 {
        fill: #fff;
        fill-rule: evenodd;
      }
    </style>
  </defs>
  <path id="Color_Fill_1" data-name="Color Fill 1" class="cls-1" d="M22.4,12c0.123,0.158.161,0.146,0.093,0.273v0.091H22.4V12Zm12.6,10.727H36.5a1.663,1.663,0,0,1,.28-1.091c0.152-.091.6-0.087,0.747-0.182H37.153a2.7,2.7,0,0,0-.093-0.636,1.621,1.621,0,0,1,.56.091c0-.448-0.031-0.468.373-0.545a0.339,0.339,0,0,0,.187.091v0.364h0.467v0.636a0.616,0.616,0,0,0-.373.091,2.287,2.287,0,0,1,1.027.091c0.06,0.078.125,0.286,0.187,0.364a0.339,0.339,0,0,1,.187-0.091c0.013-.342-0.044-0.32.187-0.455v0.273h0.373c0.095-.264.3-0.392,0.373-0.636L40.42,18.546l1.774-.091a1.187,1.187,0,0,1,0-.636h0.093c-0.008.529,0.019,0.622,0.56,0.636a3.046,3.046,0,0,1,1.214-.091,3.72,3.72,0,0,1,.28,1.364,13.9,13.9,0,0,1,4.014,1.091,7.521,7.521,0,0,0,1.307,1V21.546a2.371,2.371,0,0,1-1.027-1.364,0.322,0.322,0,0,0,.187-0.091H48.728V20H48.541v0.091h0.093c0.18,0.07-.187.091-0.187,0.091a1.573,1.573,0,0,1-.187-0.909,0.8,0.8,0,0,0,.467-0.091,1.036,1.036,0,0,1-.093-1,0.564,0.564,0,0,0-.373,0c-0.081-.067-0.105-0.114-0.187-0.182a1.257,1.257,0,0,0,.093-0.364h0.467c0.026-.8.254-2.878-0.28-3.182a1.724,1.724,0,0,1-1.214,0l1.4-.091V14.273a2.415,2.415,0,0,1-.187-1.545h0.093v0.182a7.067,7.067,0,0,1,.747,1.636c0.6,0.05,1.165.179,1.96,0.182a0.539,0.539,0,0,0,0,.455L57.97,17c3.34,0.914,6.736,1.14,10.175,2,1.539,0.385,3.2.5,4.854,0.909a25.158,25.158,0,0,0,3.827.727v0.273c-0.246.069-.223,0.109-0.467,0.182V21a0.819,0.819,0,0,0,.28-0.273A19.631,19.631,0,0,1,72.812,20c-1.65-.419-3.318-0.5-4.854-0.909-0.851-.225-1.557-0.143-2.427-0.364l-9.615-2.091-4.854-1.364v0.545a14.876,14.876,0,0,1,2.147,1.455,48.845,48.845,0,0,0,4.761,2.546,1.149,1.149,0,0,1,.093-0.636V20a0.459,0.459,0,0,1,.28.091,0.918,0.918,0,0,0,.28.455V20.455a1.469,1.469,0,0,1,0-.909,14.709,14.709,0,0,1,2.334-.091A3.477,3.477,0,0,1,61.89,20l2.054,0.091-0.093.273,0.84,0.182v0.182A1.241,1.241,0,0,0,63.2,22.091h0.934V21.909a1.179,1.179,0,0,1-.187-0.818c0.666-.074,1.272-0.251,1.4.455a9.784,9.784,0,0,0,1.774,0v0.182H66.464V22c0.786,0.024,3.494,0,3.734-.364h-0.56V21.546h0.187a0.361,0.361,0,0,1,.28-0.182c-0.017.311,0.168,0.085,0.467,0.273-0.3.075-.143-0.045-0.28,0.182h0.467c0.5-.294,1.3-0.041,1.96-0.182,1.146-.244,2.688-0.235,3.641-0.545v0.091a0.564,0.564,0,0,0-.187.182h0.56a29.542,29.542,0,0,1,3.081-.091c-0.043-.516-0.258-2.287.093-2.818v2.909H79.72a2.887,2.887,0,0,1-1.213.091v0.273H78.6V21.636a3.465,3.465,0,0,0,1.027.091H79.72c0.073-.043.174-0.29,0.28-0.364v0.545c-1.381.4-.478,1.87-0.84,3.273a3.7,3.7,0,0,1-2.334,2.455c-1.767.518-4.458,0.182-6.534,0.182H12.7c-0.143-.644-0.468-0.683-1.307-0.636a0.262,0.262,0,0,1-.093.091,0.681,0.681,0,0,1,0,.546H11.109V27.636a0.463,0.463,0,0,1,0-.455H9.242a3.009,3.009,0,0,1-1.587.182v0.364H7.468a0.262,0.262,0,0,1-.093.091,1.129,1.129,0,0,1,.093-0.364,1.892,1.892,0,0,1-.747-0.182V27.182L7,27.091A0.642,0.642,0,0,1,7.375,27a0.588,0.588,0,0,1,0-.454c0.121-.224-0.04-0.062.187-0.182v0.091A0.963,0.963,0,0,1,7.655,27H8.028a2.225,2.225,0,0,0,.093-0.727A3.935,3.935,0,0,0,7,26.182a3.792,3.792,0,0,0-1.867-.091c0.529,0.038.5,0.186,0.467,0.727a3.082,3.082,0,0,0-.187.818,4.73,4.73,0,0,1-1.307.091,0.339,0.339,0,0,0-.187-0.091L3.547,26.091H3.641V26a1.743,1.743,0,0,0,.84-0.091,10.237,10.237,0,0,1-2.24-.182V25.546a2.9,2.9,0,0,1,.187-2.273,0.564,0.564,0,0,0,.28.636A0.432,0.432,0,0,1,2.8,23.636v0.273h0.84a12.072,12.072,0,0,1,3.547-.273,4.549,4.549,0,0,0,1.68-.091c-0.93.012-4.3,0.249-4.854-.091h4.2a2.265,2.265,0,0,0,1.494-.182,0.459,0.459,0,0,1-.28-0.091h0.56a0.432,0.432,0,0,1,.093-0.273v0.182l0.28,0.091v0.091a1.623,1.623,0,0,0-.56.091v0.091h1.4a0.666,0.666,0,0,1,.467,0V23.273A0.351,0.351,0,0,1,11.482,23h0.093a1.009,1.009,0,0,0,1.213.454,0.34,0.34,0,0,1,.187-0.091V23.273a0.459,0.459,0,0,1-.28-0.091h0.467a1.929,1.929,0,0,1,.187-0.636h0.093a4.874,4.874,0,0,1,.093.636,13.249,13.249,0,0,0,2.894.273,0.261,0.261,0,0,1,.093-0.091,2.561,2.561,0,0,1-.093-0.818l-1.494-.727,0.84-.182V21.364l2.054-.091a4.61,4.61,0,0,1,.934-0.545,19.924,19.924,0,0,1,2.334.091,2.007,2.007,0,0,0,.187,1,1.7,1.7,0,0,1,1.027-1.182c-0.009-1.615-.179-3.22-0.187-5a0.645,0.645,0,0,0,.653-0.364A2.884,2.884,0,0,1,22.59,14H22.5a2.025,2.025,0,0,1-.933.818V14.727h0.093c0.635-.9.866-0.667,0.84-2.364H22.59c-0.025.76,0.14,1.469,0.84,1.546,0.679,0.4,2.435.076,3.361,0.273,1.894,0.4,4.224.048,6.161,0.455,0.816,0.171,1.914-.056,2.614.091,1.007,0.211,2.758-.388,3.547.091a34.831,34.831,0,0,1-6.721-.182l-3.267-.091a33.309,33.309,0,0,0-5.881-.455v0.091a5.841,5.841,0,0,1,1.12,1.455c0.5,0.681,1.177,1.319,1.68,2A8.56,8.56,0,0,0,28.1,20.091c-0.08.137-.266,0.067-0.093,0.182a5.959,5.959,0,0,0,1.587,1.546V21.455a1.176,1.176,0,0,1-.653-0.545h0.187a1.125,1.125,0,0,0,.373.364A0.346,0.346,0,0,1,29.685,21v0.182c0.14,0.218-.115.216,0.187,0.364a0.77,0.77,0,0,0,.84.273,0.448,0.448,0,0,1,.653-0.182,1.647,1.647,0,0,0,.28.273,3.164,3.164,0,0,1,1.12,0l0.093,0.273c0.749,0.336,1.454-.312,2.054.091A0.77,0.77,0,0,1,35.006,22.727ZM22.59,13.455a0.433,0.433,0,0,0,.093.273A0.433,0.433,0,0,0,22.59,13.455Zm0.187,0.273v0.182C22.927,13.8,22.891,13.871,22.777,13.727ZM22.684,14a0.576,0.576,0,0,0,.093.364A0.576,0.576,0,0,0,22.684,14Zm0.187,0a1.819,1.819,0,0,0,0,1,0.745,0.745,0,0,1,.093-0.454,1.778,1.778,0,0,0,0,.818,0.433,0.433,0,0,1,.093-0.273L23.151,16a4.358,4.358,0,0,0,.84.546c0.882,0.648,1.569,1.587,2.52,2.182-0.7-1.123-1.66-2.125-2.427-3.182A3.738,3.738,0,0,0,22.871,14Zm25.951,0.182v0.182h0.093V14.182H48.822Zm-2.707.091,0.84,0.182v0.182c-0.675.067-2.1,0.462-2.707,0h0.093C44.757,14.331,45.633,14.567,46.114,14.273ZM50.6,14.364h0.187v0.091A0.322,0.322,0,0,1,50.6,14.364Zm-10.735.182c0.681-.028,1.891-0.143,2.147.273H41.82c-0.508.361-1.765,0.149-2.427,0.091L39.3,14.727h0.187C39.567,14.668,39.78,14.606,39.86,14.546Zm5.134,0a1.725,1.725,0,0,0,1.214,0H44.994Zm3.827,0v0.182H49.1V14.636Zm1.774,0h0.187v0.091A0.324,0.324,0,0,1,50.6,14.546Zm-8.308.091a4.6,4.6,0,0,1,1.774.091C43.49,14.752,42.5,14.955,42.287,14.636Zm-2.334.091a2.152,2.152,0,0,0,1.4,0h-1.4Zm-18.576.091h0.187v0.091H21.47a1.335,1.335,0,0,1-.747.636Zm27.631,0.636h0.373V15.273a1.05,1.05,0,0,1-.187-0.455H49.008v0.636Zm0.28-.636,0.187,0.545h0.093V14.909Zm0.373,0a1.108,1.108,0,0,0,.654.455V15H50.222V14.909Zm1.307,0h-0.56v0.091H50.6a1.844,1.844,0,0,0,.373.182V14.818ZM50.408,15v0.273c0.226,0.082.148,0.1,0.373,0.182,0.121-.224-0.04-0.062.187-0.182V15.182Zm-0.747.546h0.28V15.182H49.755V15.091H49.662v0.455Zm0.373-.182v0.182h0.187V15.364H50.035Zm-27.164.091v0.182h0.093A0.31,0.31,0,0,0,22.871,15.455Zm-2.334.091h0.187a1.125,1.125,0,0,1-.373.364A1.2,1.2,0,0,1,20.537,15.546Zm2.147,0c-0.646.6-.5,0.907-0.467,2.091,0.252,0.409.02,1.241,0.28,1.636C22.529,18.071,23.256,16.341,22.684,15.546Zm-2.8.454c0.3,0.075.143-.045,0.28,0.182-0.662.5-1.024,1.3-2.054,1.455V17.455c0.25-.169.331-0.464,0.56-0.636A12.972,12.972,0,0,0,19.883,16Zm31.365,1.636c0.077-.295-0.046-0.139.187-0.273a0.484,0.484,0,0,0,.28.091V17.182l-0.467.091V17.182h0.093A1.39,1.39,0,0,1,52.089,17c-0.077.3,0.046,0.139-.187,0.273V17.182H51.809v0.364h0.373v0.545l1.307,0.182a0.433,0.433,0,0,1-.093.273,4.918,4.918,0,0,0-1.12,0c-0.145-.088.023-0.133-0.28-0.182v0.182A0.41,0.41,0,0,1,52,19h0.28V18.636h1.214v0.636c0.711,0.047,1.49.047,1.867,0.091V20a5.633,5.633,0,0,1-1.12.454v0.091H54.7c0.566,0.425.8-.19,1.307-0.091a3.441,3.441,0,0,0,.933.182v0.455H57.13V21h0.093a4.633,4.633,0,0,1-.093-0.909h0.093V20a1.387,1.387,0,0,0,.747-0.091,6.162,6.162,0,0,1-1.96-1c-1.074-.637-2.144-1.064-3.174-1.727a4.029,4.029,0,0,0-1.96-1.091c-0.072.062-.208,0.119-0.28,0.182a0.963,0.963,0,0,0-.093.546,3.077,3.077,0,0,1,.187.818h0.56ZM24.177,23.455c0.611,0.021,2.271.192,2.52-.182a1.463,1.463,0,0,0-.56-0.182c-0.378-.22-1.147-0.044-1.494-0.273H24.551V22.727h1.96V22.273H26.7a4.708,4.708,0,0,1,2.24-.091,1.007,1.007,0,0,0,.467.727l-0.093.273a2.1,2.1,0,0,0-1.213.273h0.373a5.028,5.028,0,0,1,1.4-.091,5.419,5.419,0,0,0-.093-1,1.49,1.49,0,0,0-.467.273c-0.222-.915-1.277-1.183-1.587-2h0.093a0.819,0.819,0,0,0,.28.273c-0.413-.689-1.058-1.095-1.494-1.727h0.187a0.563,0.563,0,0,0,.187.182,3.712,3.712,0,0,0-1.027-.909c-0.019.127,0.077-.037,0.093,0.091,0.18,0.07-.187.091-0.187,0.091a1.279,1.279,0,0,0-.56-0.364,25.3,25.3,0,0,0-2.054-2.091v0.455a4.438,4.438,0,0,0,.28,1.818l0.467,3.273c0.05,0.153.331,0.681,0.373,0.818Zm24.551-5.818h0.467V17.455c-0.227-.36-0.091-1.05-0.467-1.273C48.77,16.413,48.732,17.137,48.728,17.636Zm0.467-1.364a2.27,2.27,0,0,0,.467,1.364V16.364A1.5,1.5,0,0,0,49.195,16.273Zm-29.685.182c-0.2.247-.469,0.368-0.653,0.636H18.95A2.513,2.513,0,0,0,19.51,16.455Zm32.3,0.182v0.273c-0.42-.028-0.464.059-0.56-0.091H51.155V16.727h0.373A0.483,0.483,0,0,1,51.809,16.636Zm-1.96.091v0.727h0.187a0.826,0.826,0,0,0,.467.091V17.455a1,1,0,0,1-.187-0.727H49.848ZM22.871,20.909V20.455h0.093V20.364a0.323,0.323,0,0,1,.187.091c0.254,0.395.121,1.149,0.467,1.455V22h0.093V21.727l-0.747-4.818H22.871v0.727c-0.468.734-.242,2.545-0.467,3.273h0.467ZM17.83,17.727c0.116,0.142.06,0.046,0,.182a1.306,1.306,0,0,1-.653.455V18.273H17.27C17.434,18.045,17.665,17.955,17.83,17.727Zm25.111,0.364a1.238,1.238,0,0,1,.653.091,1.658,1.658,0,0,1-1.027,0A0.615,0.615,0,0,0,42.941,18.091Zm7,0.909h0.747L50.6,18.182a1.055,1.055,0,0,1-.747-0.091v0.273A1.71,1.71,0,0,1,49.942,19Zm-0.56-.818v0.091H49.288c-0.18.07,0.187,0.091,0.187,0.091A0.31,0.31,0,0,0,49.382,18.182Zm1.4,0v0.364h0.187V18.273Zm-9.895.091a2.57,2.57,0,0,1,1.12.091A2.569,2.569,0,0,1,40.887,18.273ZM49.662,19V18.636a6.054,6.054,0,0,0-.934-0.364V19h0.093C49.111,18.678,49.293,18.909,49.662,19ZM16.99,18.364h0.187l-0.093.182a3.772,3.772,0,0,1-.747.454V18.909h0.093C16.594,18.681,16.825,18.591,16.99,18.364Zm23.711,0h0.187v0.091A0.322,0.322,0,0,1,40.7,18.364Zm-14.936.273a5.546,5.546,0,0,1,1.867,1.909H27.538C27.069,19.863,26.06,19.438,25.764,18.636Zm24.364,0.091a0.325,0.325,0,0,1,.093.182H50.128V18.727ZM16.149,19h0.187l-0.093.182-0.28.091Zm28,0.182a0.745,0.745,0,0,0,.093.455A0.745,0.745,0,0,0,44.154,19.182Zm-28.378.091h0.187l-0.093.182a3.765,3.765,0,0,1-.747.455V19.818h0.093C15.381,19.59,15.611,19.5,15.776,19.273Zm34.632,1.364a0.717,0.717,0,0,0-.187-0.364,2.745,2.745,0,0,0,.187-0.545H50.222a1.362,1.362,0,0,0-.187.818h0.093v0.091h0.28Zm-26.884-.818a0.576,0.576,0,0,0,.093.364A0.576,0.576,0,0,0,23.524,19.818Zm25.858,0a0.34,0.34,0,0,0,.187.091A0.34,0.34,0,0,0,49.382,19.818Zm-34.446.091h0.187l-0.093.182-0.28.091ZM0.093,21.455L0,20.364A4.353,4.353,0,0,0,1.867,20l0.467,3.273H2.24V23.182a7.271,7.271,0,0,1-.373-2H1.774A3.927,3.927,0,0,1,.093,21.455Zm14.469-1.273h0.187l-0.093.182a3.771,3.771,0,0,1-.747.455V20.727H14C14.167,20.5,14.4,20.41,14.562,20.182Zm39.673,0c0.007,0.2-.02.064,0.187,0.091V20.182H54.236Zm0.933,0a0.325,0.325,0,0,1,.093.182H55.169V20.182Zm7.281,0a1.122,1.122,0,0,1-.747.182v0.182h0.654l0.747-.273V20.182H62.45Zm-34.259.091a2.887,2.887,0,0,1,.747.546v0.091A1.445,1.445,0,0,1,28.191,20.273Zm-4.574.091a0.745,0.745,0,0,0,.093.455A0.745,0.745,0,0,0,23.617,20.364Zm39.487,0a0.34,0.34,0,0,0,.187.091A0.34,0.34,0,0,0,63.1,20.364Zm-0.187.091c-0.072.062-.208,0.119-0.28,0.182h0.373A0.31,0.31,0,0,0,62.917,20.455Zm-39.953.091v0.364h0.187V20.546H22.964Zm31.272,0.091v0.091H54.142c-0.18.07,0.187,0.091,0.187,0.091A0.309,0.309,0,0,0,54.236,20.636Zm4.2,0v0.182h0.187V20.636H58.436Zm3.361,0v0.182h0.187V20.636H61.8Zm-11.762.091a0.278,0.278,0,0,0,.373,0H50.035Zm12.6,0a1.967,1.967,0,0,1-1.027.182V21H61.8a1.84,1.84,0,0,0,.653.091C62.612,20.863,62.685,20.944,62.637,20.727Zm-48.915.091h0.187L13.816,21l-0.28.091Zm14.469,0a2.834,2.834,0,0,0,.747.909,1.354,1.354,0,0,1-.187-0.364h0.093a0.948,0.948,0,0,0,.56.545V21.818C28.849,21.468,28.712,21.178,28.191,20.818Zm-4.481.091a0.938,0.938,0,0,0,.093.545A0.938,0.938,0,0,0,23.711,20.909Zm26.324,0v0.182c0.334-.038.235,0.043,0.373-0.182H50.035Zm8.4,0v0.182a4.256,4.256,0,0,0,1.4-.091H59.93V20.909H58.436Zm-45.087.182h0.187l-0.093.182a3.765,3.765,0,0,1-.747.455V21.636h0.093C12.954,21.409,13.184,21.319,13.349,21.091Zm36.686,0.182v0.546c0.321,0.106.335,0.252,0.653,0.364V22.091c-0.246-.346-0.042-0.334,0-0.818H50.035ZM51.9,21.364v0.182c0.334-.038.235,0.043,0.373-0.182H51.9Zm-35.286.091a1.787,1.787,0,0,0,1.4.364V21.727A12.861,12.861,0,0,0,16.616,21.455Zm58.81,0c-0.2.116-.74,0.062-0.933,0.182h1.12V21.546h0.093V21.455h-0.28Zm2.987,0.273V21.455h-2.52v0.182h0.093C76.557,21.27,77.922,21.656,78.413,21.727ZM23.8,21.546a0.576,0.576,0,0,0,.093.364A0.576,0.576,0,0,0,23.8,21.546Zm18.67,0a3.93,3.93,0,0,0-.093.818h0.187A1.616,1.616,0,0,0,42.474,21.546Zm31.645,0c-0.622.36-1.877-.045-2.427,0.364l2.52-.182A0.309,0.309,0,0,0,74.119,21.546Zm-57.69.091a0.429,0.429,0,0,0,.56.182Zm26.418,0a0.433,0.433,0,0,0,.093.273A0.432,0.432,0,0,0,42.847,21.636Zm7.468,0H50.5v0.091A0.323,0.323,0,0,1,50.315,21.636Zm25.858,0v0.182c0.678,0,1.331-.027,1.774,0V21.636h-1.12A2.006,2.006,0,0,1,76.173,21.636Zm-63.664.091H12.7l-0.093.182L12.322,22Zm17.176,0a0.361,0.361,0,0,0,.28.182V21.818Zm13.442,0v0.727h0.187V22.091C43.253,22.013,43.189,21.805,43.127,21.727Zm22.31,0v0.364h0.653a0.819,0.819,0,0,1,.28-0.273V21.727H65.438Zm9.242,0a0.961,0.961,0,0,0,.84,0h-0.84Zm0.933,0c0.16,0.08.119,0.081,0.28,0h-0.28Zm-4.574.091c-0.152.091-.6,0.087-0.747,0.182a0.994,0.994,0,0,0,.933-0.182H71.039Zm2.334,0a0.961,0.961,0,0,0,.84,0h-0.84Zm-55.729.091c0.192,0.218.089,0.019,0.28,0.091C17.98,21.835,17.733,21.926,17.643,21.909Zm3.454,0c0.155,0.1.1,0.161,0.187,0H21.1Zm28.938,0.273a0.459,0.459,0,0,0,.28-0.091l-0.28-.182v0.273Zm19.79-.273v0.182L70.2,22V21.909H69.825Zm2.614,0a0.8,0.8,0,0,0,.747,0H72.439ZM12.135,22h0.187l-0.093.182a3.773,3.773,0,0,1-.747.455V22.546h0.093C11.74,22.318,11.97,22.228,12.135,22ZM36.78,22l-0.093.273H36.78V22.091h0.093V22H36.78Zm31.645,0c-0.072.062-.208,0.119-0.28,0.182,0.351-.013.328,0.043,0.467-0.182H68.425Zm0.56,0a0.278,0.278,0,0,0,.373,0H68.985Zm-51.9.091c0.114,0.282.035,0.206,0.373,0.273a4.291,4.291,0,0,1,.56-0.091H18.11V22.182H17.456A0.642,0.642,0,0,0,17.083,22.091Zm50.5,0c0.16,0.08.119,0.081,0.28,0h-0.28Zm2.8,0v0.182h0.28a0.34,0.34,0,0,1,.187-0.091V22.091H70.385Zm-50.6.091a2.393,2.393,0,0,0,1.494.182V22.182H19.79Zm23.9,0a0.459,0.459,0,0,0-.28.091,0.325,0.325,0,0,1,.093.182h0.187V22.182Zm20.07,0c-0.111.071-.45,0.109-0.56,0.182h0.653c0.072-.062.208-0.119,0.28-0.182H63.757Zm5.414,0a0.339,0.339,0,0,1-.187.091v0.091h0.373V22.182H69.172Zm0.654,0c0.16,0.08.119,0.081,0.28,0h-0.28Zm-26.044.091v0.182a1.007,1.007,0,0,0,.56-0.091Zm6.441,0a0.278,0.278,0,0,0,.373,0H50.222Zm17.363,0v0.182a1.665,1.665,0,0,0,.373-0.182H67.585Zm0.467,0a0.34,0.34,0,0,0,.187.091A0.34,0.34,0,0,0,68.051,22.273Zm0.373,0c0.161,0.08.119,0.081,0.28,0h-0.28Zm-36.313.091v1a1.347,1.347,0,0,0,.373.091,3.375,3.375,0,0,0,1.027-.182,5.99,5.99,0,0,1-1.214-.091,1.257,1.257,0,0,1-.093-0.364c0.087-.173.035-0.106,0-0.364h0.187a0.994,0.994,0,0,0,.187.273C32.484,22.393,32.518,22.408,32.112,22.364Zm-0.187.091a0.938,0.938,0,0,0,.093.546A0.938,0.938,0,0,0,31.925,22.455Zm31.272,0a0.383,0.383,0,0,0,.467,0H63.2Zm-51.9.182h0.187a0.709,0.709,0,0,0,0,.364H11.3V22.636Zm25.111,0.273a4.353,4.353,0,0,1-1.4.182l-0.093.364H36.5l0.093-.364h0.093V23Zm0.373,0-0.093.455H36.78a0.951,0.951,0,0,0,.187-0.455H36.78Zm-23.711.364v0.182l0.28-.091V23.273h-0.28Zm-10.082.273a0.325,0.325,0,0,1,.093.182H2.987V23.546Zm0.187,0H3.361v0.091A0.324,0.324,0,0,1,3.174,23.546Zm6.161,0a0.278,0.278,0,0,0,.373,0H9.335Zm0.467,0a0.643,0.643,0,0,0,.653,0H9.8Zm1.12,0c0.161,0.08.119,0.081,0.28,0h-0.28Zm0.373,0a0.278,0.278,0,0,0,.373,0H11.3Zm0.747,0a0.34,0.34,0,0,0,.187.091A0.339,0.339,0,0,0,12.042,23.546Zm2.52,0a0.34,0.34,0,0,0,.187.091A0.339,0.339,0,0,0,14.562,23.546Zm1.214,0a0.34,0.34,0,0,0,.187.091A0.34,0.34,0,0,0,15.776,23.546Zm0.56,0a0.34,0.34,0,0,0,.187.091A0.34,0.34,0,0,0,16.336,23.546Zm7.841,0a5.049,5.049,0,0,0,2.52,0h-2.52Zm10.735,0a0.505,0.505,0,0,0,.56,0h-0.56Zm0.653,0a0.278,0.278,0,0,0,.373,0H35.566Zm0.56,0c0.161,0.08.119,0.081,0.28,0h-0.28ZM4.2,23.727v0.182a7.029,7.029,0,0,0,1.587-.091H5.881V23.727H4.2Zm2.054,0v0.182H6.348A0.309,0.309,0,0,0,6.254,23.727Zm0.28,0v0.182a3.22,3.22,0,0,1,1.307,0V23.727H6.534Zm1.494,0c0.031,0.2-.1.1,0.093,0.182A0.309,0.309,0,0,0,8.028,23.727Zm0.28,0v0.182H8.495a0.758,0.758,0,0,1,.373-0.091V23.727H8.308Zm1.027,0v0.182a1.672,1.672,0,0,0,.373-0.182H9.335Zm0.56,0a0.673,0.673,0,0,0,.373.182V23.727H9.895Zm1.214,0v0.182H11.2V23.727H11.109Zm0.187,0c0.138,0.1.285,0.19,0.373,0.091h0.093V23.727H11.3Zm0.654,0c0.16,0.08.119,0.081,0.28,0h-0.28Zm3.827,0c0.192,0.218.089,0.019,0.28,0.091C16.113,23.653,15.866,23.744,15.776,23.727Zm0.56,0v0.182h0.093V23.818h0.093A0.34,0.34,0,0,0,16.336,23.727Zm8.028,0a6.1,6.1,0,0,0,1.4.182V23.727h-1.4Zm1.587,0a0.775,0.775,0,0,0,.747.091V23.727H25.951Zm9.055,0c0.155,0.1.1,0.161,0.187,0H35.006Zm1.12,0a0.34,0.34,0,0,0,.187.091A0.339,0.339,0,0,0,36.126,23.727ZM4.574,26c0.161,0.08.119,0.081,0.28,0H4.574Zm3.921,0.273v0.636c0.839,0.032,2.393.211,2.614-.273H11.015V26.546Zm2.894,0.273c0.026,0.235-.044.161,0.373,0.182V26.636A1.212,1.212,0,0,1,11.389,26.546Z" transform="translate(0 0.031)"/>
</svg>
