<svg xmlns="http://www.w3.org/2000/svg" width="80" height="40" viewBox="0 0 80 40">
  <defs>
    <style>
      .cls-1 {
        fill: #fff;
        fill-rule: evenodd;
      }
    </style>
  </defs>
  <path id="Color_Fill_1" data-name="Color Fill 1" class="cls-1" d="M52.14,13.348h0.387c0.046,0.482.17,0.524,0.194,1.076a0.946,0.946,0,0,1-.484-0.2v0.1c0.063,0.084.129,0.308,0.194,0.391,0.125-.241-0.041-0.067.193-0.2a1.946,1.946,0,0,0,.29,1.076h-0.1a0.374,0.374,0,0,0-.29-0.2V15.7a5.455,5.455,0,0,1,.1,1.174h0.29c0.016-.431-0.033-0.488.194-0.587,0.125,0.241-.041.067,0.194,0.2v-0.1a1.428,1.428,0,0,1-.387-0.489,0.331,0.331,0,0,1,0-.293c0.187,0.06.423,0.058,0.484,0.1a0.354,0.354,0,0,1,.1.2,0.62,0.62,0,0,0-.387.1h0.1a0.849,0.849,0,0,0,.677,0v0.293a1.217,1.217,0,0,0-.387.1,2.021,2.021,0,0,1,.29.783h-0.1c-0.125-.241.041-0.067-0.193-0.2v0.2a10.279,10.279,0,0,1,.677,3.033h0.774a3.989,3.989,0,0,0-.194-1.37c0.322-.054.214-0.753,0.194-1.37a0.854,0.854,0,0,0,.1-0.489h0.387v0.2a0.5,0.5,0,0,1,.1.293h1.161a3.255,3.255,0,0,1,.1.978,0.593,0.593,0,0,0-.194.2l0.774,0.1V18.141h0.193l0.1,0.587a3.527,3.527,0,0,0,.677-0.2V17.359h0.194v0.1h0.1a2.205,2.205,0,0,0-.194,1.272h0.387a0.637,0.637,0,0,1,.1-0.391,25,25,0,0,0,.194,2.837H59.4v0.489h0.677l0.1-.293a0.378,0.378,0,0,1-.194-0.293,2.334,2.334,0,0,1,.677-0.2,2.038,2.038,0,0,0,.871.293,1.027,1.027,0,0,0-.871.294,0.354,0.354,0,0,1,.1.2,5.461,5.461,0,0,1,.871,0v0.1a1.239,1.239,0,0,0-.677.1,0.855,0.855,0,0,0-.1.489H62.2a3.84,3.84,0,0,0-.1-0.88h0.29v0.2a1.308,1.308,0,0,0-.1.685,14.635,14.635,0,0,1,1.645,0,3.891,3.891,0,0,1,.1-1.174c0.4-.041.853-0.232,1.257-0.293,0.805-.123,1.189.242,1.935,0a0.819,0.819,0,0,0,.29.489c0.541,0.173,1.913-.034,2.418.293H68.2a1.725,1.725,0,0,0-.29.391,0.5,0.5,0,0,1,.1.293c0.646,0.006,1.209-.056,1.741-0.1,0,0.309-.164.131,0.1,0.294a1.516,1.516,0,0,0,.774.1v-0.2a1.753,1.753,0,0,0-.58-0.1,0.348,0.348,0,0,1-.194.1v-0.2c0.613,0,.768.018,1.258,0a1.28,1.28,0,0,1,.1-0.685V22.25a1.011,1.011,0,0,1,.58.1c-0.364.014-.34-0.046-0.484,0.2h0.484a1.174,1.174,0,0,0,.58-0.294h-0.58v-0.1a2.287,2.287,0,0,1,1.064.1c-0.346.041-.243-0.046-0.387,0.2h0.387c0.075-.067.216-0.128,0.29-0.2a1.057,1.057,0,0,1-.29-0.2,2.289,2.289,0,0,1,1.064.1,0.464,0.464,0,0,0-.29.1,5.828,5.828,0,0,1,2.709.1v-0.2a0.464,0.464,0,0,1-.29-0.1,0.464,0.464,0,0,0,.29-0.1,2.059,2.059,0,0,0-.677-0.1,0.963,0.963,0,0,1-.871,0c0.737-.019,1.927-0.475,2.515-0.1a2.263,2.263,0,0,0-.774.1v0.2a0.62,0.62,0,0,1,.387.1,0.62,0.62,0,0,0-.387.1c0.377,0,.435.049,0.58-0.2a0.33,0.33,0,0,1-.193-0.1h0.677a0.58,0.58,0,0,0-.194-0.391h0.774v0.587h0.194a4.744,4.744,0,0,1,1.161-.2,2.1,2.1,0,0,1,.387-0.391v0.1a0.666,0.666,0,0,1,.1.391c-1.9,1.189-1.019,5.494-3.386,6.554-1.377.617-3.965,0.294-5.8,0.294H12.963c-0.949-1.48-4.813-1.131-6.675-.783a1.279,1.279,0,0,1-.1.685v-0.2a1.671,1.671,0,0,1-.484-0.783c0.37-.279.178-0.644,0.193-1.174l-1.741-.1v0.1a3.343,3.343,0,0,1,0,1.663,6.681,6.681,0,0,1-1.838.1v-0.1h-0.1l-0.29-1.663h0.1v-0.1a3.718,3.718,0,0,0,1.548-.1A17.481,17.481,0,0,1,0,26.163V25.674A2.569,2.569,0,0,0,.193,24.4a1.623,1.623,0,0,1,.58-0.294,1.168,1.168,0,0,0,1.064.2V24.011a0.815,0.815,0,0,1-.774-0.1H1.838c-0.06-.933-0.189-1.231-0.193-2.25H0.29V20.88c0.432,0,1.548-.1,1.548-0.1,0.311,0.492.107,2.456,0.1,3.13a3.139,3.139,0,0,1,1.354.1,0.819,0.819,0,0,0-.58.2,1.163,1.163,0,0,0-.774-0.2v0.2h0.1a5.6,5.6,0,0,0,2.225,0c-0.239-.127-0.066.042-0.193-0.2h0.58a0.348,0.348,0,0,0,.193.1v0.1a0.465,0.465,0,0,0-.29.1H4.933V23.815a4.16,4.16,0,0,0-1.258.1v-0.2H5.224a1.417,1.417,0,0,1,.1-0.489h0.1c0.014,0.368-.046.344,0.193,0.489V23.13a8.521,8.521,0,0,0-1.451.1,4.521,4.521,0,0,1,.1-0.489,3.083,3.083,0,0,0,1.451.1,1.249,1.249,0,0,0-.1-0.391H5.9a0.926,0.926,0,0,0,.193.489,5.279,5.279,0,0,1-.387.783,2.853,2.853,0,0,1,1.258.1H6.385v0.293h0.58a3.448,3.448,0,0,0,.193-0.783,5.991,5.991,0,0,1,1.548.489v0.293H9V23.815a0.465,0.465,0,0,1-.29-0.1l1.161-.1v0.489h0.194a6.048,6.048,0,0,0,.1-1.272l0.194,0.1-0.1-.293h0.1v0.1a4.845,4.845,0,0,1,.387.293,1.559,1.559,0,0,0-.29.685h0.58a18.037,18.037,0,0,1,2.805,0,0.476,0.476,0,0,0-.1-0.294c-0.408-.347-1.455.005-1.935-0.293l2.322-.1a2.291,2.291,0,0,1,.871-0.587,21.978,21.978,0,0,1,2.805.293v0.978h0.677c-0.025-.568-0.169-0.674-0.194-1.272a1.213,1.213,0,0,1,.387.1c-0.038.287-.158,0.123,0.1,0.293a2.264,2.264,0,0,0,.871-0.391c-0.441-.082-0.4-0.176-0.387-0.685h0.1v-0.1a5.812,5.812,0,0,1-2.031-.293c0.886,0.005,1.754-.061,2.515-0.1a2.627,2.627,0,0,1,.194-0.587,17.732,17.732,0,0,0,3.289.2v0.1h-0.1a3.443,3.443,0,0,1,0,1.369,1.918,1.918,0,0,0-1.161.294h0.194a2.886,2.886,0,0,0,1.258.1c0-.326-0.066-0.307.484-0.293v0.1h0.1a2.079,2.079,0,0,1,.1-0.978v0.391h0.484c0.011-2.26.382-3.861,0-5.674h0.1v0.1a7.475,7.475,0,0,1,.484,1.957,15.868,15.868,0,0,1,.871,3.619,7.593,7.593,0,0,0,1.741.489,1.5,1.5,0,0,1,.1-1.272v0.1c0.244,0.327.062,0.907,0.58,1.174-0.026-.351-0.187-0.355.1-0.489v0.587h-0.29c0.026,0.672,0,1,0,1.761,0.512-.027,1.355,0,2.128,0v-0.2h-0.1v-0.1a4.645,4.645,0,0,0-1.838,0l-0.1-.587a1.955,1.955,0,0,1,.774,0V22.935a5.971,5.971,0,0,0,.967-0.391H32.6a1.51,1.51,0,0,1,.193.88h1.451a1.4,1.4,0,0,0,.1-0.391,4.739,4.739,0,0,1-.29-0.783h0.1a0.866,0.866,0,0,0,.29.294V21.859a0.666,0.666,0,0,1-.1-0.391h0.194v0.1h0.1a0.8,0.8,0,0,1-.29-0.587h0.677a1.723,1.723,0,0,0,.1.587,0.743,0.743,0,0,1,.484-0.391,0.849,0.849,0,0,1-.29-0.978h0.774a2.479,2.479,0,0,1,.1.783,0.524,0.524,0,0,0-.387.293c0.346,0.041.243-.046,0.387,0.2,0.085,0.137.1,0.549,0.193,0.685a0.83,0.83,0,0,0,.484.1v0.1h0.1V22.054a0.7,0.7,0,0,1-.193-0.391h0.1a0.523,0.523,0,0,0,.387.391V21.761c-0.135-.02.039,0.08-0.1,0.1-0.075.188-.1-0.2-0.1-0.2a9.1,9.1,0,0,0,.1-2.25h0.1v-0.1a4.687,4.687,0,0,0,1.645-.489c0.118,0.241.171,0.151,0.29,0.391-0.135.02,0.039-.08-0.1-0.1-0.075-.188-0.1.2-0.1,0.2,0.371,0.239.364,1.608,0.387,2.152a5.348,5.348,0,0,1,1.645,0,1.042,1.042,0,0,1-.1.587c-0.014-.368.046-0.344-0.194-0.489a0.826,0.826,0,0,1-.1.489V21.565h-0.58v0.2c0.261,0.191.379,0.251,0.193,0.391a1.044,1.044,0,0,0-.193.489,4.454,4.454,0,0,1,0,.685h0.193a3.706,3.706,0,0,0,2.128.293v-0.2H42.08V23.13H41.886c-0.43-.278-1.319-0.1-1.741-0.391,0.709-.011,1.1,0,1.935,0V21.957h0.194c0.592-.522,2.571.05,3.386,0.2v0.587h0.1a0.386,0.386,0,0,1,.387-0.2c0.287,0.4.768,0.229,1.451,0.2,0.073-.257.116-0.233,0.194-0.489a4.562,4.562,0,0,1-1.064,0c-0.239-.127-0.066.042-0.194-0.2a3.839,3.839,0,0,1,1.161-.2,20.724,20.724,0,0,1-.1-2.641H47.5v0.1c-0.075.188-.1-0.2-0.1-0.2a0.354,0.354,0,0,0,.1-0.2,4.353,4.353,0,0,0,1.258-.489v-0.2c-0.322.038-.274,0.1-0.29-0.391h0.194a0.849,0.849,0,0,0,.677,0c-0.038.287-.158,0.123,0.1,0.294a2.49,2.49,0,0,1,.774-0.391,1.533,1.533,0,0,0,.1.783c0.125-.241-0.041-0.067.194-0.2v0.2a0.594,0.594,0,0,0-.194.2c0.253,0.037.127-.073,0.194,0.2a4.32,4.32,0,0,1,.193,1.272l1.741,0.391a23.531,23.531,0,0,0-.1-3.62,1.534,1.534,0,0,1-.1.783A47.272,47.272,0,0,0,51.753,11h0.1v0.2A5.293,5.293,0,0,1,52.14,13.348Zm-0.677-.978a0.62,0.62,0,0,1,.387.1,0.875,0.875,0,0,1-.677,0A0.465,0.465,0,0,0,51.463,12.37Zm0.677,0h0.193v0.1A0.331,0.331,0,0,1,52.14,12.37Zm0.193,0.1h0.194v0.1A0.331,0.331,0,0,1,52.334,12.467Zm-1.451.1a0.465,0.465,0,0,1,.29.1A0.463,0.463,0,0,1,50.883,12.565Zm1.645,0h0.194v0.1A0.33,0.33,0,0,1,52.527,12.565Zm-2.031.1a0.62,0.62,0,0,1,.387.1A0.619,0.619,0,0,1,50.5,12.663Zm2.225,0h0.193v0.1A0.33,0.33,0,0,1,52.721,12.663Zm-2.515.1a0.464,0.464,0,0,1,.29.1A0.465,0.465,0,0,1,50.206,12.761Zm1.354,0a0.465,0.465,0,0,1,.29.1A0.465,0.465,0,0,1,51.56,12.761Zm0.677,0a1.054,1.054,0,0,1,.484.2h-0.1C52.408,12.974,52.425,13.015,52.237,12.761Zm0.677,0h0.194v0.1A0.331,0.331,0,0,1,52.914,12.761Zm-3.1.1a0.62,0.62,0,0,1,.387.1,0.875,0.875,0,0,1-.677,0A0.465,0.465,0,0,0,49.819,12.859Zm1.354,0a0.62,0.62,0,0,1,.387.1A0.62,0.62,0,0,1,51.173,12.859Zm1.935,0H53.3v0.1A0.33,0.33,0,0,1,53.108,12.859Zm-2.322.1a0.62,0.62,0,0,1,.387.1A0.619,0.619,0,0,1,50.786,12.957Zm1.935,0h0.193v0.1A0.33,0.33,0,0,1,52.721,12.957Zm0.58,0h0.194v0.1A0.33,0.33,0,0,1,53.3,12.957Zm-4.16.1a0.62,0.62,0,0,1,.387.1A0.619,0.619,0,0,1,49.142,13.054Zm1.258,0a0.62,0.62,0,0,1,.387.1A0.62,0.62,0,0,1,50.4,13.054Zm2.515,0a0.465,0.465,0,0,1,.29.1A0.465,0.465,0,0,1,52.914,13.054Zm0.581,0,0.29,0.1v0.1h-0.1a0.49,0.49,0,0,1-.29.1v-0.1h0.194Zm-4.74.1a0.62,0.62,0,0,1,.387.1,0.875,0.875,0,0,1-.677,0A0.465,0.465,0,0,0,48.755,13.152Zm1.258,0a0.619,0.619,0,0,1,.387.1A0.619,0.619,0,0,1,50.012,13.152Zm3.192,0H53.4v0.1A0.33,0.33,0,0,1,53.2,13.152Zm-3.579.1a0.62,0.62,0,0,1,.387.1A0.62,0.62,0,0,1,49.625,13.25Zm3.192,0h0.194v0.1A0.33,0.33,0,0,1,52.817,13.25Zm0.967,0c0.39,0.1.581,0.282,0.967,0.391v0.1h-0.29C54.142,13.5,53.8,13.557,53.785,13.25Zm-5.707.1a0.619,0.619,0,0,1,.387.1A0.62,0.62,0,0,1,48.077,13.348Zm1.161,0a0.619,0.619,0,0,1,.387.1A0.62,0.62,0,0,1,49.238,13.348Zm-1.548.1a0.62,0.62,0,0,1,.387.1,0.875,0.875,0,0,1-.677,0A0.465,0.465,0,0,0,47.69,13.446Zm1.161,0a0.619,0.619,0,0,1,.387.1A0.62,0.62,0,0,1,48.851,13.446Zm4.256,0,0.29,0.1v0.1H53.2Zm-4.643.1a0.62,0.62,0,0,1,.387.1A0.62,0.62,0,0,1,48.464,13.544Zm-1.451.1a0.619,0.619,0,0,1,.387.1A0.619,0.619,0,0,1,47.013,13.641Zm0.967,0a0.8,0.8,0,0,1,.484.1,1.292,1.292,0,0,1-.871,0A0.62,0.62,0,0,0,47.981,13.641Zm-1.354.1a0.619,0.619,0,0,1,.387.1A0.62,0.62,0,0,1,46.626,13.739Zm6.868,0,0.29,0.1v0.1A0.368,0.368,0,0,1,53.495,13.739Zm1.258,0h0.194v0.1A0.33,0.33,0,0,1,54.752,13.739Zm-8.513.1a0.62,0.62,0,0,1,.387.1A0.62,0.62,0,0,1,46.239,13.837Zm0.967,0a0.619,0.619,0,0,1,.387.1A0.62,0.62,0,0,1,47.207,13.837Zm7.739,0a1.64,1.64,0,0,1,.871.293H55.623v0.1A1.261,1.261,0,0,1,54.946,13.837Zm-9.093.1a0.619,0.619,0,0,1,.387.1A0.619,0.619,0,0,1,45.853,13.935Zm0.871,0a0.8,0.8,0,0,1,.484.1A0.8,0.8,0,0,1,46.723,13.935Zm-1.258.1a0.62,0.62,0,0,1,.387.1A0.62,0.62,0,0,1,45.466,14.033Zm0.871,0a0.62,0.62,0,0,1,.387.1A0.619,0.619,0,0,1,46.336,14.033Zm7.545,0,0.29,0.1v0.1A0.368,0.368,0,0,1,53.882,14.033Zm-8.9.1a0.8,0.8,0,0,1,.484.1A0.8,0.8,0,0,1,44.982,14.13Zm0.967,0a0.62,0.62,0,0,1,.387.1A0.62,0.62,0,0,1,45.949,14.13Zm9.867,0a0.464,0.464,0,0,1,.29.1A0.464,0.464,0,0,1,55.816,14.13Zm-11.221.1a0.62,0.62,0,0,1,.387.1A0.62,0.62,0,0,1,44.595,14.228Zm0.871,0a0.8,0.8,0,0,1,.484.1A0.8,0.8,0,0,1,45.466,14.228Zm6.288,0h0.194v0.1A0.331,0.331,0,0,1,51.753,14.228Zm3.869,0h0.194v0.1A0.331,0.331,0,0,1,55.623,14.228Zm0.484,0H56.3v0.1A0.331,0.331,0,0,1,56.106,14.228Zm-11.9.1a0.619,0.619,0,0,1,.387.1A0.619,0.619,0,0,1,44.208,14.326Zm0.871,0a0.619,0.619,0,0,1,.387.1A0.619,0.619,0,0,1,45.079,14.326Zm9.19,0,0.29,0.1v0.1A0.368,0.368,0,0,1,54.268,14.326Zm1.548,0H56.01v0.1A0.331,0.331,0,0,1,55.816,14.326Zm0.484,0a0.465,0.465,0,0,1,.29.1A0.465,0.465,0,0,1,56.3,14.326Zm-12.479.1a1.34,1.34,0,0,1,.774.2H44.111C44.037,14.553,43.9,14.491,43.821,14.424Zm0.774,0a0.8,0.8,0,0,1,.484.1A0.8,0.8,0,0,1,44.595,14.424Zm11.415,0H56.2v0.1A0.33,0.33,0,0,1,56.01,14.424Zm0.58,0a0.465,0.465,0,0,1,.29.1A0.464,0.464,0,0,1,56.59,14.424Zm-13.253.1a0.619,0.619,0,0,1,.387.1A0.619,0.619,0,0,1,43.337,14.522Zm12.866,0H56.4v0.1A0.33,0.33,0,0,1,56.2,14.522Zm0.677,0a0.464,0.464,0,0,1,.29.1A0.464,0.464,0,0,1,56.88,14.522Zm-13.93.1a1,1,0,0,1,.677.2H43.241C43.166,14.749,43.025,14.687,42.95,14.62Zm0.774,0a0.619,0.619,0,0,1,.387.1A0.62,0.62,0,0,1,43.724,14.62Zm10.931,0,0.29,0.1v0.1A0.368,0.368,0,0,1,54.655,14.62Zm1.741,0H56.59v0.1A0.331,0.331,0,0,1,56.4,14.62Zm0.774,0a0.464,0.464,0,0,1,.29.1A0.465,0.465,0,0,1,57.171,14.62Zm-14.7.1a1,1,0,0,1,.677.2H42.757C42.682,14.846,42.541,14.785,42.467,14.717Zm14.123,0h0.194v0.1A0.33,0.33,0,0,1,56.59,14.717Zm0.871,0a0.465,0.465,0,0,1,.29.1A0.465,0.465,0,0,1,57.461,14.717Zm-15.478.1a1.1,1.1,0,0,1,.774.2l-1.064.1-0.1-.2A0.62,0.62,0,0,0,41.983,14.815Zm10.351,0v0.2h0.1v-0.2h-0.1Zm2.612,0,0.29,0.1v0.1A0.368,0.368,0,0,1,54.946,14.815Zm1.838,0h0.193v0.1A0.329,0.329,0,0,1,56.784,14.815Zm0.967,0a0.465,0.465,0,0,1,.29.1A0.464,0.464,0,0,1,57.751,14.815Zm-0.774.1h0.194v0.1A0.33,0.33,0,0,1,56.977,14.913Zm1.064,0a0.464,0.464,0,0,1,.29.1A0.464,0.464,0,0,1,58.041,14.913Zm-16.929.1a1.626,1.626,0,0,1,.58.1v0.1l-3.869.685c-0.559.067-1.206,0.371-1.645,0A22.71,22.71,0,0,0,41.113,15.011Zm16.058,0h0.194v0.1H57.171v-0.1Zm1.161,0a0.464,0.464,0,0,1,.29.1A0.465,0.465,0,0,1,58.331,15.011Zm-3,.1,0.29,0.1v0.1A0.368,0.368,0,0,1,55.333,15.109Zm2.031,0h0.193v0.1A0.33,0.33,0,0,1,57.364,15.109Zm1.258,0a0.465,0.465,0,0,1,.29.1A0.465,0.465,0,0,1,58.622,15.109Zm-6.384.1a3.6,3.6,0,0,0,.194,1.663A3.784,3.784,0,0,0,52.237,15.207Zm5.32,0h0.194v0.1A0.33,0.33,0,0,1,57.557,15.207Zm1.354,0a0.465,0.465,0,0,1,.29.1A0.464,0.464,0,0,1,58.912,15.207Zm-1.161.1h0.194v0.1A0.33,0.33,0,0,1,57.751,15.3Zm1.451,0a0.464,0.464,0,0,1,.29.1A0.464,0.464,0,0,1,59.2,15.3Zm-3.482.1,0.29,0.1v0.1A0.368,0.368,0,0,1,55.72,15.4Zm2.225,0h0.193v0.1A0.331,0.331,0,0,1,57.944,15.4Zm1.548,0a0.464,0.464,0,0,1,.29.1A0.465,0.465,0,0,1,59.492,15.4Zm-1.354.1h0.194v0.1A0.33,0.33,0,0,1,58.138,15.5Zm1.645,0a0.465,0.465,0,0,1,.29.1A0.465,0.465,0,0,1,59.782,15.5Zm-1.451.1h0.194v0.1A0.33,0.33,0,0,1,58.331,15.6Zm1.741,0a0.465,0.465,0,0,1,.29.1A0.464,0.464,0,0,1,60.073,15.6Zm-3.966.1,0.29,0.1v0.1A0.368,0.368,0,0,1,56.106,15.7Zm2.418,0h0.194v0.1A0.331,0.331,0,0,1,58.525,15.7Zm1.838,0a0.464,0.464,0,0,1,.29.1A0.465,0.465,0,0,1,60.363,15.7Zm-1.645.1h0.193v0.1A0.33,0.33,0,0,1,58.718,15.794Zm1.935,0a1.6,1.6,0,0,1,.967.293H61.233C61.081,15.968,60.8,15.916,60.653,15.794Zm-1.741.1h0.194v0.1A0.33,0.33,0,0,1,58.912,15.891Zm-23.41.1a3.712,3.712,0,0,1,.871.1v0.1H35.889C35.806,16.121,35.585,16.054,35.5,15.989Zm20.991,0,0.29,0.1v0.1A0.368,0.368,0,0,1,56.493,15.989Zm2.612,0H59.3v0.1A0.33,0.33,0,0,1,59.105,15.989Zm-24.184.1a1.239,1.239,0,0,1,.871.2A1.429,1.429,0,0,1,34.921,16.087Zm24.377,0h0.193v0.1A0.331,0.331,0,0,1,59.3,16.087Zm2.322,0a0.463,0.463,0,0,1,.29.1A0.465,0.465,0,0,1,61.62,16.087Zm-27.376.1a1.563,1.563,0,0,1,.967.2,2.927,2.927,0,0,1-1.741-.1A1.487,1.487,0,0,0,34.244,16.185Zm25.248,0a4.939,4.939,0,0,1,1.064.489v0.1H60.363A6.618,6.618,0,0,1,59.492,16.185Zm2.418,0a1,1,0,0,1,.677.2H62.2C62.126,16.314,61.985,16.252,61.911,16.185Zm-5.03.1h0.194v0.1A0.33,0.33,0,0,1,56.88,16.283Zm-24.184.1a1.24,1.24,0,0,1,.677.1A1.24,1.24,0,0,1,32.7,16.38Zm29.891,0a0.464,0.464,0,0,1,.29.1A0.464,0.464,0,0,1,62.588,16.38Zm-30.665.1a1.485,1.485,0,0,1,.774.1A1.487,1.487,0,0,1,31.923,16.478Zm1.451,0a1.24,1.24,0,0,1,.677.1,0.635,0.635,0,0,1-.484,0A0.331,0.331,0,0,1,33.374,16.478Zm23.8,0,0.29,0.1v0.1A0.368,0.368,0,0,1,57.171,16.478Zm5.707,0a1,1,0,0,1,.677.2H63.168C63.094,16.607,62.952,16.546,62.878,16.478Zm-31.826.1a1.486,1.486,0,0,1,.774.1A1.486,1.486,0,0,1,31.052,16.576Zm1.741,0a1.01,1.01,0,0,1,.58.1A1.011,1.011,0,0,1,32.793,16.576Zm-2.709.1a2.014,2.014,0,0,1,.967.1A2.013,2.013,0,0,1,30.085,16.674Zm1.935,0a1.241,1.241,0,0,1,.677.1A1.24,1.24,0,0,1,32.019,16.674Zm1.354,0h0.194v0.1A0.33,0.33,0,0,1,33.374,16.674Zm30.181,0a1,1,0,0,1,.677.2H63.845C63.771,16.8,63.629,16.741,63.555,16.674Zm-34.438.1a2.012,2.012,0,0,1,.967.1A2.012,2.012,0,0,1,29.117,16.772Zm2.225,0a1.24,1.24,0,0,1,.677.1A1.24,1.24,0,0,1,31.342,16.772Zm1.741,0a0.464,0.464,0,0,1,.29.1H33.18c-0.166.086-.124,0.087-0.29,0A0.33,0.33,0,0,0,33.083,16.772Zm24.474,0,0.29,0.1v0.1A0.368,0.368,0,0,1,57.557,16.772Zm3,0H60.75v0.1A0.33,0.33,0,0,1,60.556,16.772Zm-32.7.1a2.853,2.853,0,0,1,1.258.1c-0.869.011-3.32,0.448-3.869,0.1A8.94,8.94,0,0,0,27.86,16.87Zm2.805,0a1.239,1.239,0,0,1,.677.1A1.24,1.24,0,0,1,30.665,16.87Zm30.085,0h0.194v0.1A0.331,0.331,0,0,1,60.75,16.87Zm3.483,0a1,1,0,0,1,.677.2H64.522C64.448,17,64.307,16.937,64.232,16.87Zm-34.341.1a1.486,1.486,0,0,1,.774.1A1.485,1.485,0,0,1,29.891,16.967Zm2.805,0H32.89v0.1A0.331,0.331,0,0,1,32.7,16.967Zm28.247,0h0.193v0.1A0.331,0.331,0,0,1,60.943,16.967Zm-36.372.1h0.194v0.1A0.33,0.33,0,0,1,24.571,17.065Zm4.643,0a1.241,1.241,0,0,1,.677.1A1.24,1.24,0,0,1,29.214,17.065Zm3.192,0a0.465,0.465,0,0,1,.29.1H32.5c-0.166.086-.124,0.087-0.29,0A0.33,0.33,0,0,0,32.406,17.065Zm20.411,1.37h0.29v-1.37H52.624v0.2A3.181,3.181,0,0,1,52.817,18.435Zm0.387-1.37a3.244,3.244,0,0,0,.1,1.37,3.8,3.8,0,0,1,.1-1.272A0.348,0.348,0,0,0,53.2,17.065Zm4.74,0,0.29,0.1v0.1A0.368,0.368,0,0,1,57.944,17.065Zm3.192,0H61.33v0.1A0.33,0.33,0,0,1,61.137,17.065Zm3.773,0a0.62,0.62,0,0,1,.387.1A0.619,0.619,0,0,1,64.909,17.065Zm-40.532.1h0.193v0.1A0.33,0.33,0,0,1,24.377,17.163Zm3.966,0a1.745,1.745,0,0,1,.871.1A1.744,1.744,0,0,1,28.343,17.163Zm25.441,0a0.379,0.379,0,0,1,.193.293h-0.1v-0.1A0.354,0.354,0,0,1,53.785,17.163Zm7.545,0h0.194v0.1A0.33,0.33,0,0,1,61.33,17.163Zm3.966,0a0.465,0.465,0,0,1,.29.1A0.465,0.465,0,0,1,65.3,17.163Zm-41.112.1h0.194v0.1A0.331,0.331,0,0,1,24.184,17.261Zm0.967,0c0.2,0.117.563,0.238,0.774,0.391a0.565,0.565,0,0,1-.387,0A0.419,0.419,0,0,1,25.151,17.261Zm2.418,0a1.485,1.485,0,0,1,.774.1A1.487,1.487,0,0,1,27.57,17.261Zm4.45,0h0.194v0.1A0.331,0.331,0,0,1,32.019,17.261Zm29.5,0h0.193v0.1A0.331,0.331,0,0,1,61.524,17.261Zm4.063,0a0.619,0.619,0,0,1,.387.1A0.62,0.62,0,0,1,65.587,17.261Zm-41.693.1a1.215,1.215,0,0,1,.387.1v0.1H24.087C24.015,17.469,23.965,17.444,23.894,17.359Zm2.9,0a1.487,1.487,0,0,1,.774.1A1.485,1.485,0,0,1,26.8,17.359Zm4.933,0a0.465,0.465,0,0,1,.29.1A0.465,0.465,0,0,1,31.729,17.359Zm29.988,0h0.194v0.1A0.33,0.33,0,0,1,61.717,17.359Zm4.256,0a0.619,0.619,0,0,1,.387.1A0.619,0.619,0,0,1,65.973,17.359Zm-42.273.1h0.194v0.1A0.33,0.33,0,0,1,23.7,17.457Zm2.225,0a1.745,1.745,0,0,1,.871.1A1.744,1.744,0,0,1,25.925,17.457Zm5.611,0h0.193v0.1A0.33,0.33,0,0,1,31.536,17.457ZM53.4,18.435a0.465,0.465,0,0,0,.29-0.1c-0.144-.226-0.138-0.666-0.29-0.881v0.978Zm0.58-.978a0.354,0.354,0,0,1,.1.2h-0.1v-0.2Zm7.932,0H62.1v0.1A0.33,0.33,0,0,1,61.911,17.457Zm4.45,0a1,1,0,0,1,.677.2H66.651C66.576,17.586,66.435,17.524,66.36,17.457Zm-42.95.1a0.464,0.464,0,0,1,.29.1H23.507c-0.166.086-.124,0.087-0.29,0A0.33,0.33,0,0,0,23.41,17.554Zm1.161,0a0.464,0.464,0,0,1,.29.1A0.464,0.464,0,0,1,24.571,17.554Zm6.675,0a0.464,0.464,0,0,1,.29.1H31.342c-0.166.086-.124,0.087-0.29,0A0.33,0.33,0,0,0,31.246,17.554Zm30.859,0H62.3v0.1A0.33,0.33,0,0,1,62.1,17.554Zm-38.307.1H23.99v0.1h-0.1C23.827,17.763,23.706,17.755,23.8,17.652Zm25.828,0h0.194v0.1A0.331,0.331,0,0,1,49.625,17.652Zm4.45,0a0.378,0.378,0,0,1,.193.293h-0.1v-0.1A0.354,0.354,0,0,1,54.075,17.652Zm4.643,0c0.337,0.134.3,0.223,0.29,0.685h-0.1A1.09,1.09,0,0,0,58.718,17.652Zm3.579,0h0.193v0.1A0.33,0.33,0,0,1,62.3,17.652Zm4.74,0a0.619,0.619,0,0,1,.387.1A0.619,0.619,0,0,1,67.038,17.652Zm-44.111.1a0.465,0.465,0,0,1,.29.1H23.023c-0.166.086-.124,0.087-0.29,0A0.33,0.33,0,0,0,22.926,17.75Zm7.932,0h0.194v0.1A0.33,0.33,0,0,1,30.859,17.75Zm31.632,0h0.193v0.1A0.33,0.33,0,0,1,62.491,17.75Zm4.934,0a0.62,0.62,0,0,1,.387.1A0.62,0.62,0,0,1,67.424,17.75Zm-36.856.1a0.464,0.464,0,0,1,.29.1H30.665c-0.166.086-.124,0.087-0.29,0A0.33,0.33,0,0,0,30.568,17.848Zm32.116,0h0.194v0.1A0.33,0.33,0,0,1,62.684,17.848Zm5.127,0a0.619,0.619,0,0,1,.387.1A0.62,0.62,0,0,1,67.811,17.848Zm-45.369.1a0.464,0.464,0,0,1,.29.1H22.539c-0.166.086-.124,0.087-0.29,0A0.331,0.331,0,0,0,22.443,17.946Zm0.967,0H23.6v0.1A0.331,0.331,0,0,1,23.41,17.946Zm30.859,0a0.354,0.354,0,0,1,.1.2h-0.1v-0.2Zm8.609,0a2.057,2.057,0,0,1,.484.2v0.1H63.168A3.44,3.44,0,0,1,62.878,17.946Zm5.32,0a0.619,0.619,0,0,1,.387.1A0.62,0.62,0,0,1,68.2,17.946Zm-42.273.1a0.729,0.729,0,0,1,.484.391h0.1v0.1A0.969,0.969,0,0,1,25.925,18.044Zm4.256,0h0.193v0.1A0.331,0.331,0,0,1,30.181,18.044Zm38.4,0a0.62,0.62,0,0,1,.387.1A0.62,0.62,0,0,1,68.585,18.044Zm-46.626.1a0.465,0.465,0,0,1,.29.1H22.056c-0.166.086-.124,0.087-0.29,0A0.33,0.33,0,0,0,21.959,18.141Zm1.161,0h0.193v0.1h-0.1C23.15,18.252,23.028,18.244,23.12,18.141Zm6.772,0a0.465,0.465,0,0,1,.29.1H29.988c-0.166.086-.124,0.087-0.29,0A0.33,0.33,0,0,0,29.891,18.141Zm24.474,0a0.354,0.354,0,0,1,.1.2h-0.1v-0.2Zm14.607,0a0.62,0.62,0,0,1,.387.1A0.619,0.619,0,0,1,68.972,18.141Zm-5.611.1h0.194v0.1A0.33,0.33,0,0,1,63.362,18.239Zm6,0a0.62,0.62,0,0,1,.387.1A0.62,0.62,0,0,1,69.359,18.239Zm-47.884.1a0.463,0.463,0,0,1,.29.1A0.465,0.465,0,0,1,21.475,18.337Zm1.354,0h0.194v0.1h-0.1C22.859,18.448,22.738,18.44,22.83,18.337Zm6.675,0H29.7v0.1A0.331,0.331,0,0,1,29.5,18.337Zm24.958,0a0.378,0.378,0,0,1,.194.293h-0.1v-0.1A0.354,0.354,0,0,1,54.462,18.337Zm9.093,0h0.194v0.1A0.331,0.331,0,0,1,63.555,18.337Zm6.191,0a1.428,1.428,0,0,1,.871.2A1.429,1.429,0,0,1,69.746,18.337Zm-48.561.1a0.465,0.465,0,0,1,.29.1A0.465,0.465,0,0,1,21.185,18.435Zm8.029,0a0.465,0.465,0,0,1,.29.1H29.311c-0.166.086-.124,0.087-0.29,0A0.331,0.331,0,0,0,29.214,18.435Zm18.67,0a0.465,0.465,0,0,1,.29.1A0.465,0.465,0,0,1,47.884,18.435Zm10.738,0a0.354,0.354,0,0,1,.1.2h-0.1v-0.2Zm5.127,0h0.194v0.1A0.331,0.331,0,0,1,63.749,18.435Zm-42.854.1a0.465,0.465,0,0,1,.29.1H20.992c-0.166.086-.124,0.087-0.29,0A0.33,0.33,0,0,0,20.895,18.533Zm1.645,0h0.194v0.1h-0.1C22.569,18.643,22.448,18.636,22.539,18.533Zm41.4,0h0.193v0.1A0.33,0.33,0,0,1,63.942,18.533Zm6.675,0a0.62,0.62,0,0,1,.387.1A0.619,0.619,0,0,1,70.617,18.533Zm-41.79.1h0.194v0.1A0.33,0.33,0,0,1,28.827,18.63Zm9.19,0a1.01,1.01,0,0,1,.58.1l-0.967.2v-0.1h0.1C37.8,18.759,37.943,18.7,38.017,18.63Zm9.577,0h0.194v0.1A0.33,0.33,0,0,1,47.594,18.63ZM53.108,20.2a3.1,3.1,0,0,0-.1-0.978H53.2V20.2h0.871V20.1c-0.23-.345-0.151-1.02-0.387-1.369a2.321,2.321,0,0,0-1.064-.1v0.2a4.441,4.441,0,0,0-.1,1.37h0.58Zm1.548-1.565a0.354,0.354,0,0,1,.1.2h-0.1v-0.2Zm9.48,0h0.194v0.1A0.33,0.33,0,0,1,64.135,18.63Zm6.868,0a1.429,1.429,0,0,1,.871.2A1.428,1.428,0,0,1,71,18.63Zm-50.592.1a0.464,0.464,0,0,1,.29.1A0.465,0.465,0,0,1,20.411,18.728Zm1.838,0h0.194v0.1h-0.1C22.279,18.839,22.158,18.831,22.249,18.728Zm6.288,0a0.464,0.464,0,0,1,.29.1H28.634c-0.166.086-.124,0.087-0.29,0A0.331,0.331,0,0,0,28.537,18.728Zm35.792,0h0.194v0.1A0.331,0.331,0,0,1,64.329,18.728Zm-44.208.1a0.465,0.465,0,0,1,.29.1A0.465,0.465,0,0,1,20.121,18.826Zm30.181,0a0.637,0.637,0,0,0,.1.391A0.637,0.637,0,0,0,50.3,18.826Zm14.22,0a2.057,2.057,0,0,1,.484.2v0.1H64.813A3.442,3.442,0,0,1,64.522,18.826Zm7.352,0a1.429,1.429,0,0,1,.871.2A1.428,1.428,0,0,1,71.874,18.826Zm-52.043.1a0.465,0.465,0,0,1,.29.1A0.464,0.464,0,0,1,19.831,18.924Zm2.128,0h0.194v0.1h-0.1a0.347,0.347,0,0,1-.193.1Zm3.386,1.663h0.387v-0.1c-0.274-.412-0.2-1.163-0.484-1.565Zm1.548-1.663a0.969,0.969,0,0,1,.58.489,2.929,2.929,0,0,1,.194,2.054A4.487,4.487,0,0,0,26.892,18.924Zm1.258,0h0.194v0.1A0.33,0.33,0,0,1,28.15,18.924Zm-8.609.1a0.464,0.464,0,0,1,.29.1A0.464,0.464,0,0,1,19.541,19.022Zm5.32,1.565h0.387v-0.2a8.763,8.763,0,0,1-.194-1.37h-0.1v1.272A0.5,0.5,0,0,0,24.861,20.587Zm3-1.565a0.464,0.464,0,0,1,.29.1H27.957c-0.166.086-.124,0.087-0.29,0A0.33,0.33,0,0,0,27.86,19.022Zm44.885,0a0.8,0.8,0,0,1,.484.1A0.8,0.8,0,0,1,72.745,19.022Zm-53.495.1a0.464,0.464,0,0,1,.29.1A0.465,0.465,0,0,1,19.25,19.12Zm2.418,0h0.193v0.1A0.331,0.331,0,0,1,21.669,19.12Zm43.337,0H65.2v0.1A0.331,0.331,0,0,1,65.006,19.12Zm8.222,0a0.62,0.62,0,0,1,.387.1A0.62,0.62,0,0,1,73.229,19.12Zm6.288,0c0.314,0.081.148-.048,0.29,0.2A0.368,0.368,0,0,1,79.516,19.12Zm-60.556.1a0.465,0.465,0,0,1,.29.1A0.465,0.465,0,0,1,18.96,19.217Zm2.515,0h0.194v0.1h-0.1C21.505,19.328,21.384,19.32,21.475,19.217Zm6,0h0.194v0.1A0.33,0.33,0,0,1,27.473,19.217Zm37.727,0h0.194v0.1A0.33,0.33,0,0,1,65.2,19.217Zm8.416,0a0.8,0.8,0,0,1,.484.1A0.8,0.8,0,0,1,73.616,19.217Zm-54.946.1a0.465,0.465,0,0,1,.29.1A0.464,0.464,0,0,1,18.67,19.315Zm46.723,0h0.194v0.1H65.393v-0.1Zm8.706,0a0.8,0.8,0,0,1,.484.1A0.8,0.8,0,0,1,74.1,19.315Zm-55.719.1a0.464,0.464,0,0,1,.29.1A0.464,0.464,0,0,1,18.38,19.413Zm2.805,0h0.194v0.1A0.33,0.33,0,0,1,21.185,19.413Zm44.4,0H65.78v0.1A0.33,0.33,0,0,1,65.587,19.413Zm9,0a0.8,0.8,0,0,1,.484.1A0.8,0.8,0,0,1,74.583,19.413Zm-56.59.1a0.62,0.62,0,0,1,.387.1A0.62,0.62,0,0,1,17.993,19.511Zm3,0h0.194v0.1A0.331,0.331,0,0,1,20.992,19.511Zm44.788,0h0.194v0.1A0.331,0.331,0,0,1,65.78,19.511Zm9.287,0a0.8,0.8,0,0,1,.484.1A0.8,0.8,0,0,1,75.067,19.511Zm-57.364.1a0.465,0.465,0,0,1,.29.1A0.465,0.465,0,0,1,17.7,19.609Zm3.1,0h0.193v0.1h-0.1v0.1A0.354,0.354,0,0,1,20.8,19.609Zm13.93,0c0.108,0.162.171,0.1,0,.2v-0.2Zm31.246,0a2.059,2.059,0,0,1,.484.2v0.1H66.264A3.442,3.442,0,0,1,65.973,19.609Zm9.577,0a0.8,0.8,0,0,1,.484.1A0.8,0.8,0,0,1,75.55,19.609Zm-58.138.1a0.465,0.465,0,0,1,.29.1A0.464,0.464,0,0,1,17.412,19.707Zm58.622,0a1.011,1.011,0,0,1,.58.1A1.01,1.01,0,0,1,76.034,19.707Zm-59.008.1a0.62,0.62,0,0,1,.387.1A0.619,0.619,0,0,1,17.025,19.8Zm59.589,0a0.8,0.8,0,0,1,.484.1A0.8,0.8,0,0,1,76.614,19.8Zm-59.879.1a0.464,0.464,0,0,1,.29.1A0.465,0.465,0,0,1,16.735,19.9Zm17.993,0h0.194a4.471,4.471,0,0,1-.194.783V19.9Zm42.37,0a0.8,0.8,0,0,1,.484.1A0.8,0.8,0,0,1,77.1,19.9Zm-60.75.1a0.62,0.62,0,0,1,.387.1A0.62,0.62,0,0,1,16.348,20Zm61.233,0a1.01,1.01,0,0,1,.58.1A1.011,1.011,0,0,1,77.582,20Zm-61.524.1a0.464,0.464,0,0,1,.29.1A0.465,0.465,0,0,1,16.058,20.1Zm62.1,0a1.908,1.908,0,0,1,1.064.2A1.908,1.908,0,0,1,78.162,20.1Zm-62.491.1a0.619,0.619,0,0,1,.387.1A0.62,0.62,0,0,1,15.671,20.2Zm-0.387.1a0.619,0.619,0,0,1,.387.1A0.619,0.619,0,0,1,15.284,20.294Zm63.942,0H79.42v0.1A0.331,0.331,0,0,1,79.226,20.294Zm-64.329.1a0.62,0.62,0,0,1,.387.1A0.62,0.62,0,0,1,14.9,20.391Zm6,0a0.354,0.354,0,0,1,.1.2h-0.1v-0.2Zm29.794,0,0.194,1.663a2,2,0,0,0,1.258.685v-0.2a3.156,3.156,0,0,0,.193-1.663Zm1.838,0v0.293l1.645,0.391a3.01,3.01,0,0,0-.1-0.685H52.527Zm1.741,0,0.1,0.783,0.484,0.1,0.1-.783A2.059,2.059,0,0,0,54.268,20.391Zm-39.758.1a0.619,0.619,0,0,1,.387.1A0.62,0.62,0,0,1,14.51,20.489Zm-0.387.1a0.62,0.62,0,0,1,.387.1A0.62,0.62,0,0,1,14.123,20.587Zm-0.387.1a0.619,0.619,0,0,1,.387.1A0.619,0.619,0,0,1,13.736,20.685Zm11.125,0a7.756,7.756,0,0,0-.1,1.957,0.347,0.347,0,0,0,.194.1V21.565a0.354,0.354,0,0,1-.1-0.2h0.29v0.2a1.309,1.309,0,0,0-.1.685h0.1v-0.1a2.119,2.119,0,0,0,.1-1.37h-0.1v-0.1h-0.29Zm0.581,1.174h0.29v0.978h0.29a7.958,7.958,0,0,0-.29-2.152h-0.29v0.1h-0.1A5.555,5.555,0,0,1,25.441,21.859Zm54.075-1.174a0.5,0.5,0,0,1,.1.294h-0.1V20.685Zm-66.264.1a0.8,0.8,0,0,1,.484.1,1.292,1.292,0,0,1-.871,0A0.619,0.619,0,0,0,13.253,20.783Zm37.243,0a1.042,1.042,0,0,0,.1.587A1.043,1.043,0,0,0,50.5,20.783Zm-48.755.1a3.542,3.542,0,0,0,.1,1.467A3.542,3.542,0,0,0,1.741,20.88Zm50.786,0a3.325,3.325,0,0,0,.194,1.761l0.1-1.663Zm-40.048.1a0.62,0.62,0,0,1,.387.1A0.62,0.62,0,0,1,12.479,20.978Zm-0.484.1a0.8,0.8,0,0,1,.484.1A0.8,0.8,0,0,1,12,21.076Zm24.667,0a1.069,1.069,0,0,1,.1.587h-0.1v-0.1A1.081,1.081,0,0,1,36.663,21.076ZM53.882,23.62a9.615,9.615,0,0,0-.484-1.174h0.29a4.2,4.2,0,0,0,.871.489V22.446l-0.29-1.076a4.117,4.117,0,0,0-1.354-.293v0.1h0.1a7.654,7.654,0,0,0,.1,2.054A1.178,1.178,0,0,0,53.882,23.62Zm25.441-2.543a0.355,0.355,0,0,1,.1.2h-0.1v-0.2Zm-67.811.1a0.8,0.8,0,0,1,.484.1A0.8,0.8,0,0,1,11.512,21.174Zm23.12,0c0.2,0.235.092,0.021,0.29,0.1C34.98,21.094,34.725,21.192,34.631,21.174Zm25.925,0a0.347,0.347,0,0,0,.194.1A0.348,0.348,0,0,0,60.556,21.174Zm-49.528.1a0.8,0.8,0,0,1,.484.1A0.8,0.8,0,0,1,11.028,21.272Zm68.2,0a0.355,0.355,0,0,1,.1.2h-0.1v-0.2Zm-68.682.1a0.8,0.8,0,0,1,.484.1A0.8,0.8,0,0,1,10.544,21.37Zm44.3,0.1a1.218,1.218,0,0,1-.387-0.1v0.391c0.2,0.322.162,0.884,0.387,1.174C54.846,22.25,54.831,22.07,54.849,21.467Zm-44.885,0a1.01,1.01,0,0,1,.58.1,1.766,1.766,0,0,1-1.064,0A0.8,0.8,0,0,0,9.964,21.467Zm33.954,0.1h0.193v0.1A0.33,0.33,0,0,1,43.918,21.565Zm-35.018.1a1.011,1.011,0,0,1,.58.1A1.01,1.01,0,0,1,8.9,21.663Zm30.568,0a0.637,0.637,0,0,0,.1.391A0.638,0.638,0,0,0,39.468,21.663Zm11.124,0V22.25a1.991,1.991,0,0,0,.58.294v-0.1A1.064,1.064,0,0,1,50.593,21.663Zm27.086,0c0.051,0.486.19,0.157,0,.489h0.387v-0.2a0.33,0.33,0,0,1-.194-0.1c0.239-.127.066,0.042,0.194-0.2H77.678Zm-69.359.1a1.011,1.011,0,0,1,.58.1A1.011,1.011,0,0,1,8.319,21.761Zm19.54,0v0.2h0.1v-0.2h-0.1ZM59.2,22.348H60.46V21.859a4.326,4.326,0,0,0-1.258-.1v0.1h-0.1ZM7.739,21.859a1.011,1.011,0,0,1,.58.1A1.011,1.011,0,0,1,7.739,21.859Zm-0.677.1a1.241,1.241,0,0,1,.677.1c-0.612.028-1.556,0.4-2.031,0.1A2.776,2.776,0,0,0,7.062,21.957Zm2.322,0H9.77v0.1a2.719,2.719,0,0,0-.387.587V21.957Zm18.089,0a0.7,0.7,0,0,1,.194.391h-0.29v-0.1A0.5,0.5,0,0,0,27.473,21.957Zm6,0h0.387v0.1a2.718,2.718,0,0,0-.387.587V21.957Zm40.435,0a1.745,1.745,0,0,1,.871.1A1.744,1.744,0,0,1,73.906,21.957Zm-58.428.1a0.354,0.354,0,0,1,.1.2h-0.1v-0.2Zm61.717,0c0.23,0.22.034,0.107,0.387,0.1v-0.1H77.195Zm-72.261.2a1.487,1.487,0,0,1,.774.1A1.485,1.485,0,0,1,4.933,22.25Zm4.74,0a0.533,0.533,0,0,1,.29.391h-0.1a0.276,0.276,0,0,0-.1-0.1Zm0.29,0a0.533,0.533,0,0,1,.29.391h-0.1a0.276,0.276,0,0,0-.1-0.1Zm-5.8.1a1.486,1.486,0,0,1,.774.1A1.486,1.486,0,0,1,4.16,22.348Zm20.895,0v0.2h0.1A0.336,0.336,0,0,0,25.054,22.348Zm5.127,0h0.193v0.1A0.33,0.33,0,0,1,30.181,22.348Zm0.484,0a0.465,0.465,0,0,1,.29.1A0.464,0.464,0,0,1,30.665,22.348Zm3.192,0a0.534,0.534,0,0,1,.29.391h-0.1v-0.1h-0.1Zm3.192,0a0.348,0.348,0,0,0,.193.1A0.347,0.347,0,0,0,37.05,22.348Zm9.964,0h0.194v0.1A0.33,0.33,0,0,1,47.013,22.348Zm0.387,0h0.194v0.1A0.33,0.33,0,0,1,47.4,22.348Zm-44.111.1a1.744,1.744,0,0,1,.871.1A1.745,1.745,0,0,1,3.289,22.446Zm57.171,0H59.2v0.2a0.582,0.582,0,0,1,.484,0c0.027,0.253-.045.174,0.387,0.2v-0.1a0.465,0.465,0,0,1-.29-0.1,1.374,1.374,0,0,1,.677.2V22.446Zm0.58,0v0.2h0.774v-0.2H61.04Zm0.871,0v0.2H62.2v-0.2h-0.29Zm0.387,0v0.2h1.064v-0.2H62.3Zm1.161,0v0.2h0.1A0.336,0.336,0,0,0,63.458,22.446Zm0.387,0v0.2a1.745,1.745,0,0,0,.871-0.1A3.72,3.72,0,0,1,63.845,22.446Zm4.16,0a0.348,0.348,0,0,1-.193.1v0.1h1.257c0.075-.067.216-0.128,0.29-0.2H68Zm-65.683.1a2.013,2.013,0,0,1,.967.1A2.014,2.014,0,0,1,2.322,22.544Zm25.248,0a0.423,0.423,0,0,0,.29.293v-0.2Zm44.885,0v0.2a3.1,3.1,0,0,0,.58-0.2h-0.58Zm-70.327.1H2.322v0.1A0.33,0.33,0,0,1,2.128,22.641Zm49.045,0a0.347,0.347,0,0,0,.194.1A0.348,0.348,0,0,0,51.173,22.641Zm1.258,0,0.1,0.293h0.1v-0.2Zm19.057,0v0.2l0.29-.1v-0.1h-0.29Zm0.387,0a0.347,0.347,0,0,0,.194.1A0.348,0.348,0,0,0,71.874,22.641Zm0.29,0a0.348,0.348,0,0,0,.194.1A0.348,0.348,0,0,0,72.164,22.641Zm-11.124.1a0.8,0.8,0,0,0,.774,0H61.04Zm0.871,0c0.166,0.086.124,0.087,0.29,0h-0.29Zm0.387,0a1.326,1.326,0,0,0,1.064,0H62.3Zm1.548,0a1.326,1.326,0,0,0,1.064,0H63.845Zm3.773,0a2.5,2.5,0,0,0,1.258.1v-0.1H67.618Zm2.128,0a0.507,0.507,0,0,0,.58,0h-0.58Zm-35.212.1v0.587a0.465,0.465,0,0,1,.29.1h-0.29V24.3h0.193v-0.1a1.3,1.3,0,0,0,.1-1.369h-0.29ZM44.4,23.62a10.171,10.171,0,0,0,2.031-.2V22.935h-0.1a5.655,5.655,0,0,1-1.935.391V23.62ZM2.128,23.033a0.354,0.354,0,0,1,.1.2h-0.1v-0.2Zm52.334,0c0.114,0.259-.087.176,0.194,0.294V23.033H54.462Zm0.387,0a3.372,3.372,0,0,0,.1.783h0.1a2.018,2.018,0,0,0,0-.783H54.849Zm-44.5.1v0.2h0.1A0.337,0.337,0,0,0,10.351,23.13ZM46.82,23.424v0.2h0.1A0.336,0.336,0,0,0,46.82,23.424Zm7.836,0a1.043,1.043,0,0,0-.194.489,0.354,0.354,0,0,1,.1.2h0.1v-0.1l0.193-.1A2.475,2.475,0,0,0,54.655,23.424Zm-52.237.1a0.354,0.354,0,0,1,.1.2h-0.1v-0.2Zm31.729,0.685,0.1-.587a3.154,3.154,0,0,0-1.354.293,0.84,0.84,0,0,1-.387.293v0.1h0.58A2.323,2.323,0,0,1,34.148,24.207ZM5.03,23.815v0.2C5.186,23.895,5.149,23.97,5.03,23.815Zm0.677,0v0.293h0.58V23.815H5.707Zm2.225,0v0.2H8.126v-0.2H7.932Zm1.161,0a0.32,0.32,0,0,0,.29.293A0.5,0.5,0,0,0,9.093,23.815ZM11.028,24.3V23.815a1.377,1.377,0,0,0-.484.1,0.277,0.277,0,0,0,.1.1c0.075,0.067.216,0.128,0.29,0.2a0.62,0.62,0,0,0-.387.1h0.484Zm0.194,0a0.8,0.8,0,0,0,.484-0.1,0.62,0.62,0,0,1-.387-0.1,1.441,1.441,0,0,1,1.064,0V23.815a8.8,8.8,0,0,1-1.064,0A1.553,1.553,0,0,0,11.221,24.3Zm1.548-.489c0.07,0.4.048,0.435,0.387,0.489a0.33,0.33,0,0,1,0-.293,3.1,3.1,0,0,1,.58.2,0.465,0.465,0,0,0-.29.1h0.677v-0.1h-0.1v-0.1h-0.29V23.815A5.654,5.654,0,0,1,12.769,23.815Zm5.611,0H17.8v0.2H17.7v0.1a0.62,0.62,0,0,1,.387.1,0.331,0.331,0,0,0-.194.1h0.29A2.028,2.028,0,0,0,18.38,23.815Zm-12.963.1v0.2H5.611v-0.2H5.417Zm-1.838.1H3.773C3.658,24.168,3.732,24.131,3.579,24.011Zm13.446,0.1c-0.083.063-.3,0.131-0.387,0.2,0.377,0,.435.049,0.58-0.2H17.025Zm0.29,0v0.2H17.7v-0.1h-0.1v-0.1h-0.29Zm-11.608.1a0.507,0.507,0,0,0,.58,0H5.707Zm0.677,0a0.507,0.507,0,0,0,.58,0H6.385Zm2.322,0a0.347,0.347,0,0,0,.193.1A0.348,0.348,0,0,0,8.706,24.207Zm0.387,0a0.347,0.347,0,0,0,.193.1A0.348,0.348,0,0,0,9.093,24.207Zm0.484,0a0.347,0.347,0,0,0,.193.1A0.348,0.348,0,0,0,9.577,24.207Zm0.29,0a0.347,0.347,0,0,0,.194.1A0.349,0.349,0,0,0,9.867,24.207Zm2.418,0a0.347,0.347,0,0,0,.193.1A0.348,0.348,0,0,0,12.285,24.207ZM7.158,27.63V26.848l-0.967-.1v0.1a1.716,1.716,0,0,0,.29.783A4.276,4.276,0,0,0,7.158,27.63Zm0.58-.685v0.587a7.508,7.508,0,0,0,2.9-.1C9.673,27.323,8.835,26.987,7.739,26.946Z"/>
</svg>
