<svg xmlns="http://www.w3.org/2000/svg" width="80" height="40" viewBox="0 0 80 40">
  <defs>
    <style>
      .cls-1 {
        fill: #fff;
        fill-rule: evenodd;
      }
    </style>
  </defs>
  <path id="Color_Fill_1" data-name="Color Fill 1" class="cls-1" d="M46,12.661a2.9,2.9,0,0,0,1.218-.092,0.644,0.644,0,0,1-.375-0.183,0.459,0.459,0,0,0,.281-0.092,0.459,0.459,0,0,1-.281-0.092,0.459,0.459,0,0,0,.281-0.092c-0.38.016-.317,0.108-0.562-0.092,0.236-.149.041,0,0-0.275a0.8,0.8,0,0,1,.656-0.275v0.184a0.539,0.539,0,0,1,0,.55h0.375a0.341,0.341,0,0,1,.187-0.092v0.184a0.8,0.8,0,0,0-.468.092c0.238,0.133.106-.02,0.187,0.275H47.4a0.312,0.312,0,0,0-.094-0.183,1.777,1.777,0,0,1-.187.917c0-.5.071-0.564-0.281-0.642a7.9,7.9,0,0,0,.094,1.743h0.281V13.853H47.119a0.312,0.312,0,0,1-.094.184V13.762a1.784,1.784,0,0,0,.187-0.367h0.094a5.059,5.059,0,0,0,.187,1.468H47.4a0.614,0.614,0,0,0-.468-0.275v0.183a0.33,0.33,0,0,1,.094.184c0.082-.068.106-0.116,0.187-0.184-0.057.54-.106,0.839,0.656,0.826a1.615,1.615,0,0,1,.187-0.367V15.6h1.312V15.413a0.4,0.4,0,0,1-.281-0.275,0.9,0.9,0,0,1-.843.275v-0.55l0.749,0.092a5.061,5.061,0,0,1,.094-1.1,2.762,2.762,0,0,1,.843-0.092v0.184a0.781,0.781,0,0,0-.094.459l-0.656.459v0.092h0.094v0.092a1.138,1.138,0,0,1,.937,0c-0.02-.307-0.2-0.22.094-0.367a0.919,0.919,0,0,1,.468.55,3.684,3.684,0,0,1-1.124-.092v0.183c0.315,0.121.272,0.141,0.281,0.551-0.673.011-.96-0.089-1.78-0.092v0.092c0.814,0.644,1.088,2.109,2.154,2.477a0.349,0.349,0,0,1,.187-0.275,5.365,5.365,0,0,0-.281-0.734H50.4a0.485,0.485,0,0,1,.281-0.092,0.948,0.948,0,0,1,.187.642h0.562l0.094,0.734a1.006,1.006,0,0,0,.562-0.092A0.323,0.323,0,0,1,51.9,18.44a0.567,0.567,0,0,0,.187-0.183,0.323,0.323,0,0,1-.187-0.092,3.4,3.4,0,0,1,1.686.367,1.006,1.006,0,0,0-.562.092h0.094c0.094,0.064.375,0.118,0.468,0.183H53.49a1.874,1.874,0,0,1-.375.092,0.329,0.329,0,0,1,.094.183c0.285-.025.476-0.005,0.937,0,0.078-.3-0.046-0.14.187-0.275a0.548,0.548,0,0,0,.562.367,0.547,0.547,0,0,0,0,.55,0.484,0.484,0,0,1,.281-0.092c0,1.335.009,2.585,0,3.945h1.218V23.395H56.3V23.3H55.925V23.028a1.424,1.424,0,0,1,.375-0.183c0.145-.065.013-0.012,0.281,0V22.752c-0.231-.119-0.064.039-0.187-0.184,0.185-.136-0.052-0.131.281-0.183a6.672,6.672,0,0,0,.656.367c0.19,0.15-.066.107,0.187,0.183a1.044,1.044,0,0,1,.468,0,1.274,1.274,0,0,0,.094-0.367,0.329,0.329,0,0,1-.094-0.183c0.781-.014,1.428-0.031,1.405-1.1a0.609,0.609,0,0,1-.094-0.367h0.094V20.826a10.472,10.472,0,0,0,2.342-.184v0.55L61.546,21.1v0.092c0.692,0.639.955,0.08,1.593,0.459H61.827l0.094,0.642,1.874,0.092a2.715,2.715,0,0,1,.094,1.193,3.138,3.138,0,0,0,1.218-.092l0.187-.092V23.3H64.356V21.651a1.78,1.78,0,0,1,1.03-.459v0.092a0.459,0.459,0,0,0-.281.092H65.48l0.187-.55h0.281a1.293,1.293,0,0,0,.094.459c0.141-.079.069-0.261,0.187-0.092,0.417,0.249.3-.1,0.749,0.092l0.468,0.55h3.934v0.183H67.635a1.811,1.811,0,0,0,.281,1.376,1.142,1.142,0,0,1,.094-0.367c-0.269-.1-0.173-0.016-0.281-0.275a2.057,2.057,0,0,1,.656-0.092,15.414,15.414,0,0,0,3-.092c2.471-.286,6.187-0.416,8.431-0.826a4.04,4.04,0,0,1,.094-1.651,11.932,11.932,0,0,1,0,2.569A12.885,12.885,0,0,0,77,28.716H76.44c-0.491.3-4.548,0.275-5.527,0.275H57.049v0.092H56.956a1.4,1.4,0,0,1-.094.734,0.825,0.825,0,0,1-.468.092,2,2,0,0,1-1.218-.092,2.6,2.6,0,0,1-.094-0.826c-13.384-.006-27.121.09-40.656,0.092a1.335,1.335,0,0,0-.937-0.734c-0.457.27-1.435,0-2.061,0.092-1.033.151-2.41,0.164-3.279,0.367-0.511.12-.867-0.158-1.03,0.092a0.941,0.941,0,0,0-.187.55c-0.4-.052-0.171-0.118-0.375-0.275l-0.375.092V28.9a0.329,0.329,0,0,0,.094-0.184A0.373,0.373,0,0,1,5.9,28.532c0.713-.259-0.143-0.691.656-0.917a8.165,8.165,0,0,0,.562.734,1.5,1.5,0,0,1,.468-0.092l-0.094-.918H6.745a3.452,3.452,0,0,0-1.311-.183,0.263,0.263,0,0,1-.094.092A3.273,3.273,0,0,1,5.152,28.9a2.04,2.04,0,0,1-.937.092l-0.094-.275a2.607,2.607,0,0,1-.187-1.651H3.56a4.921,4.921,0,0,0-1.874-.092,14.943,14.943,0,0,0-.094-2.844,0.459,0.459,0,0,0,.281-0.092,1.648,1.648,0,0,1-.187-1.284L0,22.844v-1.1a8.349,8.349,0,0,0,1.874-.183c-0.07,1.454-.4,2.544,1.218,2.477a2.977,2.977,0,0,1,2.248.092,0.718,0.718,0,0,0,0,.459c0.069,0.08.118,0.1,0.187,0.183A1.68,1.68,0,0,1,6.089,24.5v0.275H6.464c0.112-.312-0.1-0.275.281-0.367a0.313,0.313,0,0,0,.094.183V24.312a0.462,0.462,0,0,1-.094-0.275,0.459,0.459,0,0,1,.281.092,5.733,5.733,0,0,0,.468.459,0.459,0.459,0,0,0-.281.092H7.307a0.483,0.483,0,0,0,.281.092V24.4a3.71,3.71,0,0,0,.843-0.092V24.5a1.923,1.923,0,0,0-.656.092v0.183H7.963a1.264,1.264,0,0,1,.656-0.092,3.021,3.021,0,0,1,0-.642H9.368l0.187,0.55H9.742c0.085-.554-0.016-0.569.749-0.55v0.092c-0.2.259,0.093,0.221-.187,0.367a0.983,0.983,0,0,1-.187,0,1.062,1.062,0,0,0-.187.275H10.3c0.127-.3.11,0.032,0.375-0.092a0.329,0.329,0,0,0,.094-0.183c-0.122-.051-0.069,0-0.094-0.092a0.362,0.362,0,0,1,.281-0.184,0.566,0.566,0,0,0,.187.184c-0.131.218-.159,0.053-0.094,0.275a1.033,1.033,0,0,0,.562.092c0.276-.281.3-0.069,0.749,0V24.587a0.462,0.462,0,0,1-.094-0.275,1.1,1.1,0,0,1,.562-0.275c0.091,0.411.031,0.578,0.468,0.642,0.226,0.125.232,0.13,0.375-.092h0.094V24.5H13.583c-0.082.13,0.074,0.227-.187,0.183V24.587A0.328,0.328,0,0,1,13.3,24.4c0.38-.152.312-0.587,0.281-1.1l-3.747-.092V23.028a14.532,14.532,0,0,0,3,0h1.031c0.1-.057.174-0.4,0.281-0.459h0.749a2.551,2.551,0,0,1,.187-0.275c-0.006.267-.09,0.127,0,0.275a0.263,0.263,0,0,1,.094-0.092,1.274,1.274,0,0,0,.094-0.367h0.375v0.459a1.18,1.18,0,0,1,.937.092,3.287,3.287,0,0,0,.281.275,6.654,6.654,0,0,0,0,1.56h-1.03v0.092h0.094v0.092a4.323,4.323,0,0,0,1.218.092,5.1,5.1,0,0,0-.187-0.917,7.251,7.251,0,0,1,1.592.275,7.485,7.485,0,0,0-1.124.092v0.55h1.124c-0.078-.3.046-0.14-0.187-0.275a0.5,0.5,0,0,1-.562,0,0.672,0.672,0,0,0,.749-0.275,4.734,4.734,0,0,1,.375-1.1v0.092h0.094a1.277,1.277,0,0,0-.094.367,0.764,0.764,0,0,1,.375,0V23.395a0.609,0.609,0,0,1-.094-0.367l0.281-.092V22.844h0.094v0.092a0.639,0.639,0,0,1,.375.55,1.511,1.511,0,0,0,.749.092V23.395H20.8V23.3c-0.313.019-.225,0.2-0.375-0.092a1.624,1.624,0,0,0,.187-1.193H16.862V21.835H20.8l0.468-.55c0.532-.241.427,0.28,0.749-0.184,0.141,0.079.069,0.261,0.187,0.092a0.61,0.61,0,0,0,.094-0.367,0.459,0.459,0,0,1,.281.092c0.225,0.309.028,0.4,0.562,0.459V21.284a0.459,0.459,0,0,1-.281-0.092h0.375a3.685,3.685,0,0,1,.656.459v1.468a0.75,0.75,0,0,1,.187.367,0.641,0.641,0,0,0,.375.092c-0.065-.325-0.166-0.224-0.187-0.275a3.207,3.207,0,0,1,.094-0.918h1.03a2.31,2.31,0,0,1,1.405,0c0.063-.416.2-0.43,0.281-0.826a4.378,4.378,0,0,1-1.873-.183h1.967V21.193a3.273,3.273,0,0,1,1.5-.092,1.594,1.594,0,0,1,0,.642,0.975,0.975,0,0,1,.656.275l-0.094.367c0.182-.03.69,0,1.124,0v0.275h0.281a0.947,0.947,0,0,1,.187.55,0.65,0.65,0,0,0-.187.367h0.937a1.545,1.545,0,0,1,.187-1.009H31.475V22.2h0.187a0.438,0.438,0,0,0,.094.275,2.832,2.832,0,0,0-.562-1.376,4.23,4.23,0,0,1,.843-0.092A9.043,9.043,0,0,0,31.944,20a1.763,1.763,0,0,0,.468-0.092A0.34,0.34,0,0,0,32.6,20v0.092a0.839,0.839,0,0,0-.094.918h0.562V20.642h0.187V21.1a1.192,1.192,0,0,0-.094.642,1.205,1.205,0,0,0-.375.092,4.56,4.56,0,0,0,.281.826c0.147-.341.29-0.278,0.749-0.275v0.367h0.656l0.094-.367a0.328,0.328,0,0,1,.094.183,0.849,0.849,0,0,0,.656.184V23.3a2.765,2.765,0,0,1,.749.183,16.3,16.3,0,0,0-.562-4.312c0.6-.082.8-0.385,1.405-0.459a10.929,10.929,0,0,1,.843,1.009s0.057,1.189.094,1.376h0.094V19.725c0.375-.574-0.007-3.691-0.094-3.945a1.317,1.317,0,0,1,.656-0.367,0.974,0.974,0,0,1,.281.642,2.052,2.052,0,0,0-.094,1.376h0.094a8.646,8.646,0,0,1,1.874-.459,33.888,33.888,0,0,0,4.215-1.651c0.995-.484,1.822-0.273,1.78-1.835a0.5,0.5,0,0,1-.281-0.367h0.094a0.567,0.567,0,0,0,.187.183v-0.55a2.2,2.2,0,0,1-.749,0,0.323,0.323,0,0,1-.187-0.092c0.513-.656.01-2.07,0.187-2.661H46v0.092A8.81,8.81,0,0,1,46,12.661Zm-0.843-1.009H45.34v0.092A0.324,0.324,0,0,1,45.152,11.651Zm0.468,0h0.187v0.092A0.323,0.323,0,0,1,45.621,11.651Zm1.311,1.376a0.33,0.33,0,0,1,.094.184H46.932V13.028Zm0.562,0.734a0.328,0.328,0,0,1,.094.184H47.494V13.762Zm-0.562.275a0.462,0.462,0,0,1,.094.275H46.932V14.037Zm-8.337,3.486c-0.007,1.191.181,2.181,0.187,3.578a2.762,2.762,0,0,0,.843.092,4.142,4.142,0,0,1,1.686-.183,2.774,2.774,0,0,1,.281,1.56H41.5a0.312,0.312,0,0,0-.094-0.183v0.367l0.468,0.092v-1.1a2.382,2.382,0,0,1,.843.275,0.438,0.438,0,0,1,.094-0.275V22.11H42.061a1.866,1.866,0,0,1-.094.734h0.562V22.752c-0.238-.134-0.106.02-0.187-0.275,0.558,0.066.513,0.306,1.124,0.367V22.752a0.609,0.609,0,0,1-.094-0.367h0.281a9.062,9.062,0,0,1,.281-1.376,0.484,0.484,0,0,1,.281-0.092,2.758,2.758,0,0,0,.749.183V20.642a3.122,3.122,0,0,1-.187-1.835c0.559-.068.758-0.3,1.311-0.367,0.191,0.3.57,0.542,0.749,0.826a1.782,1.782,0,0,0,.094.642c0.023-1.352.059-4.616-.375-5.229A6,6,0,0,1,44.4,15.688,17.656,17.656,0,0,1,38.595,17.523Zm8.9-2.661a0.328,0.328,0,0,1,.094.184H47.494V14.862Zm-0.656.092c0.029,0.434.075,0.582,0.375,0.642V15.5A4.706,4.706,0,0,0,46.838,14.954Zm0.749,0.092a0.355,0.355,0,0,1,.187.275H47.682V15.229A0.329,0.329,0,0,1,47.588,15.046Zm0.187,0.275a0.329,0.329,0,0,1,.094.184H47.775V15.321Zm1.874,0.092V15.6C49.8,15.487,49.763,15.558,49.649,15.413ZM38.408,15.6V15.78C38.558,15.671,38.522,15.742,38.408,15.6Zm-0.281.092-0.094.184C38.2,15.743,38.127,15.688,38.127,15.688Zm8.806,0.092v1.1h0.094a1.086,1.086,0,0,1,.281-0.184c0.114,0.226.166,0.142,0.281,0.367-0.335.038-.236-0.043-0.375,0.183h0.843V17.156C47.679,16.765,47.593,15.876,46.932,15.78Zm0.562,0,0.656,1.468h0.094V16.973a3.933,3.933,0,0,1-.375-1.193H47.494ZM48.9,15.872a0.264,0.264,0,0,1,0,.367V15.872Zm0.375,0.092c0.081,0.173.044,0.068,0,.275H49.18Zm0.656,3.119H49.649a7.5,7.5,0,0,1-.187-0.734c0.3-.076.143,0.045,0.281-0.184a5.566,5.566,0,0,1-1.5-2.018H48.15V16.33c0.121,0.17.152,0.483,0.281,0.642,0.153,0.186.109-.064,0.187,0.183a0.446,0.446,0,0,0,0,.642,11.609,11.609,0,0,0,1.218,1.743H49.93V19.083Zm3-2.844a0.33,0.33,0,0,1,.094.184H52.927V16.238Zm-3.934.092c0.116,0.144.06,0.047,0,.183-0.121.226,0.04,0.062-.187,0.183V16.606A1.062,1.062,0,0,0,48.993,16.33Zm-1.593.092a0.329,0.329,0,0,1,.094.183H47.4V16.422Zm5.527,0.642a0.463,0.463,0,0,1,.094.275H52.927V17.064Zm-4.777.275H47.119a5.178,5.178,0,0,0-.094,1.468,0.329,0.329,0,0,1,.094.183h1.593V18.807A5.687,5.687,0,0,1,48.15,17.339ZM48.9,17.431a0.363,0.363,0,0,1,0,.459V17.431Zm4.028,0a0.462,0.462,0,0,1,.094.275H52.927V17.431Zm-2.248.275V17.89h0.094A0.313,0.313,0,0,0,50.679,17.706ZM38.408,17.8a1.165,1.165,0,0,0,.094.642A1.166,1.166,0,0,0,38.408,17.8Zm9.461,0c0.081,0.173.044,0.068,0,.275H47.775Zm5.059,0a0.264,0.264,0,0,1,0,.367V17.8Zm-14.239.183h0.187v0.183H38.689V17.982Zm10.211,0a0.329,0.329,0,0,1,.094.183H48.9V17.982Zm-1.405.275c0.08,0.173.044,0.068,0,.275H47.4Zm1.218,0.092,0.375,1.1a1.033,1.033,0,0,0,.562.092V19.45A13.273,13.273,0,0,0,48.712,18.349Zm-10.3.367a2.593,2.593,0,0,1,0,.734H38.5C38.552,19.1,38.713,18.9,38.408,18.716Zm-0.281.092V19.45h0.187V19.266A0.946,0.946,0,0,0,38.127,18.807Zm8.9,0.275a17.535,17.535,0,0,1,.094,1.927c0.187-.022.543-0.041,1.031-0.092a5.549,5.549,0,0,1,.094,1.56l0.656-.092V22.2a2.17,2.17,0,0,0,.094-1.193l-0.375-.092a10.438,10.438,0,0,0-.281-1.1L48.056,20V19.817a1.132,1.132,0,0,0,.375-0.367,1.344,1.344,0,0,0,.375.092,0.437,0.437,0,0,0-.094-0.275,0.565,0.565,0,0,1-.187.183V19.266a0.567,0.567,0,0,0,.187-0.184H47.026Zm-14.239.275a0.462,0.462,0,0,1,.094.275H32.787V19.358Zm5.34,0.183a2.774,2.774,0,0,0,0,.826c0.121,0.226-.04.062,0.187,0.183A1.233,1.233,0,0,0,38.127,19.541Zm0.281,0v0.183H38.5V19.541H38.408Zm10.023,0.092c0.069,0.08.118,0.1,0.187,0.184l0.281-.092V19.633H48.431Zm0.656,0a1.389,1.389,0,0,0,.75.184V19.633h-0.75Zm-10.679.184a4.757,4.757,0,0,1,0,1.284h0.281V21.009C38.5,20.686,38.732,20.026,38.408,19.817ZM46.838,20a2.393,2.393,0,0,0,.187,1.009A1.5,1.5,0,0,0,46.838,20Zm0.937,0.183c0.08,0.173.044,0.068,0,.275H47.682Zm-9.742.459V21.1h0.281V20.642H38.033Zm9.368,0c0.08,0.173.044,0.068,0,.275H47.307Zm0.843,0.275a0.615,0.615,0,0,1,.375.092A0.614,0.614,0,0,1,48.244,20.917ZM40,21.835a0.459,0.459,0,0,0-.281.092,0.329,0.329,0,0,1,.094.183,1.607,1.607,0,0,1,1.03.459,0.834,0.834,0,0,0-.843.184h0.187a8.621,8.621,0,0,0,1.124,0V21.468a0.609,0.609,0,0,1-.094-0.367H41.03a2.333,2.333,0,0,1-1.124.184v0.092A0.781,0.781,0,0,1,40,21.835Zm4.028-.734a9.683,9.683,0,0,1-.094,1.376c0.464-.014.435-0.011,0.937,0l0.094-.275a1.922,1.922,0,0,0,.094-0.917H44.871A2.328,2.328,0,0,0,44.028,21.1Zm3.466,1.376h0.562V21.1l-0.843.092a1.276,1.276,0,0,0-.094.367A1.868,1.868,0,0,1,47.494,22.477Zm12.084-1.284a2.254,2.254,0,0,0-.094.734h0.187A1.4,1.4,0,0,0,59.579,21.193ZM28.2,21.284a0.34,0.34,0,0,0,.187.092A0.341,0.341,0,0,0,28.2,21.284Zm9.836,0V21.56h0.281V21.284H38.033Zm0.375,0V21.56h0.281V21.284H38.408Zm0.468,0v0.734l0.656,0.092V21.927a1.061,1.061,0,0,1-.094-0.642H38.876Zm20.984,0c0.161,0.081.12,0.081,0.281,0H59.86Zm-31.288.459a1.5,1.5,0,0,0-.656,0l-0.187.092c0.1,0.283,0,.379.187,0.459v0.092h0.094V22.294a0.628,0.628,0,0,0,.094-0.275H28.2a0.438,0.438,0,0,0,.094.275c0.211-.258.148,0.121,0.281-0.184A0.5,0.5,0,0,0,28.571,21.743Zm9.742-.092a0.459,0.459,0,0,0-.281.092,1.192,1.192,0,0,0-.094.642,2.375,2.375,0,0,0,.375.459A6.979,6.979,0,0,1,38.314,21.651Zm0.094,0v0.367c0.3-.076.143,0.045,0.281-0.183C38.5,21.7,38.741,21.7,38.408,21.651Zm21.358,0.275a0.438,0.438,0,0,0,.094.275v0.092h0.281V21.927H59.766ZM71.85,22.661v0.275c2.491-.124,5.036-0.638,7.963-0.734V21.927C76.967,22.014,74.442,22.558,71.85,22.661Zm-28.1-.459v0.184h0.094V22.2H43.747Zm13.021,0a0.459,0.459,0,0,1,.281.092A0.459,0.459,0,0,1,56.768,22.2Zm0.281,0.092h0.187v0.092A0.323,0.323,0,0,1,57.049,22.294Zm22.482,0c0.078,0.3-.046.14,0.187,0.275V22.477a0.329,0.329,0,0,0,.094-0.183H79.532Zm-63.794.092a0.459,0.459,0,0,1,.281.092A0.459,0.459,0,0,1,15.738,22.385Zm63.045,0c-0.672.419-2.51-.022-3.279,0.459a15.087,15.087,0,0,0,2.9-.184c0.539-.093.811,0.128,1.03-0.275A2.92,2.92,0,0,1,78.782,22.385Zm-46,.183v0.184h0.094A0.313,0.313,0,0,0,32.787,22.569Zm5.621,0v0.275h0.375V22.569H38.408Zm10.4,0a0.438,0.438,0,0,0,.094.275A0.438,0.438,0,0,0,48.806,22.569Zm-9.836.092v0.184a1.207,1.207,0,0,0,.375-0.092V22.661H38.97Zm32.412,0.275c-0.078-.3.046-0.14-0.187-0.275-0.55.337-1.848,0.1-2.342,0.184v0.183h1.405A6.476,6.476,0,0,1,71.382,22.936Zm3.185-.092v0.183H74.66A0.312,0.312,0,0,0,74.567,22.844Zm-32.88.092-0.094.275h0.281V23.028Zm31.663,0v0.183H74.1V22.936A1.08,1.08,0,0,1,73.349,22.936Zm-47.869.092v0.183h0.094A0.313,0.313,0,0,0,25.48,23.028Zm3.56,0.459h0.281V23.028H28.853v0.092A0.365,0.365,0,0,1,29.04,23.486Zm0.468-.459v0.459h0.468V23.3H29.883l0.094-.184H29.883A0.641,0.641,0,0,0,29.508,23.028Zm13.583,0v0.183c0.335-.038.236,0.043,0.375-0.183H43.091Zm0.562,0c0.156,0.1.1,0.162,0.187,0H43.653Zm18.173,0v0.459H62.3V23.028H61.827Zm0.656,0v0.459h0.656V23.028H62.482Zm0.843,0v0.459H63.7V23.028H63.326Zm7.963,0a8.264,8.264,0,0,1-2.436.183v0.184h0.281a6.749,6.749,0,0,1,2.248-.092A0.438,0.438,0,0,0,71.288,23.028Zm-27.26.092a0.341,0.341,0,0,0,.187.092A0.34,0.34,0,0,0,44.028,23.119Zm27.822,0a0.5,0.5,0,0,0,.562,0H71.85Zm-40.656.092h0.187V23.3A0.323,0.323,0,0,1,31.194,23.211Zm24.169,0H55.55V23.3H55.363V23.211Zm0.281,0h0.187V23.3A0.324,0.324,0,0,1,55.644,23.211Zm7.775,0h0.187V23.3H63.419V23.211ZM25.48,23.3v0.183h0.281V23.3H25.48Zm41.967,0c0.156,0.1.1,0.162,0.187,0H67.447Zm-34.567.092v0.183h0.187V23.395H32.881Zm2.061,0v0.183c0.335-.038.236,0.043,0.375-0.183H34.941Zm6.464,0v0.183h0.468V23.395H41.405Zm0.562,0a0.665,0.665,0,0,0,.656.183V23.395H41.967Zm1.405,0c0.036,0.232-.054.145,0.281,0.183a0.34,0.34,0,0,1,.187-0.092V23.395A0.72,0.72,0,0,1,43.372,23.395Zm0.656,0v0.183h0.094V23.395H44.028Zm1.03,0c0.027,0.243.077,0.192,0.562,0.183V23.486A2.533,2.533,0,0,0,45.059,23.395Zm2.623,0v0.183c0.335-.038.236,0.043,0.375-0.183A0.741,0.741,0,0,1,47.682,23.395Zm0.562,0v0.183h0.281V23.395H48.244Zm-14.614.092a0.34,0.34,0,0,0,.187.092A0.34,0.34,0,0,0,33.63,23.486Zm4.777,0c0.161,0.081.12,0.082,0.281,0H38.408Zm1.686,0c0.161,0.081.12,0.082,0.281,0H40.094Zm0.749,0c0.161,0.081.12,0.082,0.281,0H40.843Zm2.061,0a0.34,0.34,0,0,0,.187.092A0.34,0.34,0,0,0,42.9,23.486Zm-39.438.55a0.584,0.584,0,0,0,.094.367,1.143,1.143,0,0,1,.094-0.367H3.466Zm0.281,0a0.278,0.278,0,0,0,.375,0H3.747Zm0.468,0a0.339,0.339,0,0,0,.187.092A0.341,0.341,0,0,0,4.215,24.037Zm3.56,0H7.963v0.092H7.775V24.037Zm4.028,0h0.187v0.092H11.8V24.037Zm-9.742.092c0.078,0.3-.046.14,0.187,0.275L2.155,24.22H2.248A0.34,0.34,0,0,0,2.061,24.128ZM1.78,24.22a0.755,0.755,0,0,0,.094.459A0.755,0.755,0,0,0,1.78,24.22Zm15.738,0.092L17.8,24.4V24.5H17.518V24.312ZM6.183,24.4H6.37V24.5A0.323,0.323,0,0,1,6.183,24.4Zm5.621,0h0.187V24.5A0.323,0.323,0,0,1,11.8,24.4Zm-8.337.183a0.544,0.544,0,0,0,.562.183,0.263,0.263,0,0,1,.094-0.092V24.587A2.926,2.926,0,0,1,3.466,24.587Zm4.5,2.844v0.826c0.973,0.029,4.145.272,4.871-.184Z"/>
</svg>
