<svg xmlns="http://www.w3.org/2000/svg" width="80" height="40" viewBox="0 0 80 40">
  <defs>
    <style>
      .cls-1 {
        fill: #fff;
        fill-rule: evenodd;
      }
    </style>
  </defs>
  <path id="Color_Fill_1" data-name="Color Fill 1" class="cls-1" d="M53.435,10a0.361,0.361,0,0,1,.218.044A0.361,0.361,0,0,1,53.435,10Zm0.349,2.48h0.524l0.044,0.93a0.255,0.255,0,0,1-.175,0,0.242,0.242,0,0,1-.131-0.177H54V13.41a0.209,0.209,0,0,1,.131.044A0.21,0.21,0,0,0,54,13.5l0.131,0.044c0.04,0.044-.088.029-0.087,0.089a4.209,4.209,0,0,0,.087.576,15.332,15.332,0,0,0,.524,2.3,0.153,0.153,0,0,1,.044-0.089v0.133a1.2,1.2,0,0,0,.087.664c0.154,0.6.217,1.183,0.393,1.683-0.061.009,0.018-.036-0.044-0.044-0.034-.085-0.044.089-0.044,0.089a1.037,1.037,0,0,1,.087.31H56.1c0.008-.885-0.085-1.265-0.087-2.082h0.262V16.6a1.247,1.247,0,0,1,.393-0.044,1.261,1.261,0,0,0,.306.576,4.779,4.779,0,0,1,.961.044,2.706,2.706,0,0,1-.044,1.019c-0.036-.144.021-0.068-0.087-0.133v0.089a0.267,0.267,0,0,0,.175.089,1.338,1.338,0,0,1,.044-0.576c0,0.173-.022.2,0.087,0.266V17.751a0.3,0.3,0,0,1-.044-0.177l0.481,0.044v0.044c-0.111.065-.088,0.094-0.087,0.266a0.21,0.21,0,0,1,.131.044H58.46v0.266h1.18a2.225,2.225,0,0,1,.175-0.177V18.1a0.318,0.318,0,0,0-.087.177h0.131c-0.007-.247-0.041-0.245-0.044-0.4a0.715,0.715,0,0,0,.218-0.354H60.12v0.044a0.92,0.92,0,0,0-.175.753,0.907,0.907,0,0,1,.437.044H59.989c0,0.419,0,.6,0,0.974a0.907,0.907,0,0,1,.437.044H59.989a8,8,0,0,0-.044,1.417,0.754,0.754,0,0,0,.218-0.089c0.036,0.144-.021.068,0.087,0.133,0.054,0,.493.044,0.743,0.044V20.807c-0.181-.02-0.147-0.014-0.218-0.133h0.087a0.221,0.221,0,0,0,.131.044,0.732,0.732,0,0,1,.218-0.31,0.833,0.833,0,0,0,.218.044,0.29,0.29,0,0,1,.131.221h0.306v0.044H61.824c-0.081.05-.313,0.037-0.393,0.089a0.161,0.161,0,0,1,.044.089h1.092v0.354l-0.131.044a2.955,2.955,0,0,1-.917.266,2.4,2.4,0,0,0-.044.664,1.07,1.07,0,0,0,.568-0.044v0.4h0.349a0.944,0.944,0,0,1,.044-0.443v0.443h1.223a1.072,1.072,0,0,1,.044-0.487v0.487h0.218a1.073,1.073,0,0,1,.044-0.487v0.487h0.306a1.036,1.036,0,0,1,0-.443c0.11,0.032.152,0.012,0.262,0.044V22.135a3.183,3.183,0,0,1,.175-0.4,0.921,0.921,0,0,1,.437-0.044v0.044h0.044a2.191,2.191,0,0,0,.044.62,14,14,0,0,0,.087-1.417H65.276c-0.057.109,0.019,0.03-.087,0.089V20.807h0.087a0.281,0.281,0,0,0,.262,0v0.221H65.451a0.153,0.153,0,0,0-.044-0.089v0.487c0.042,0.091-.012.537,0.044,0.709a0.36,0.36,0,0,0,.175-0.089l0.044,0.31c-0.126.05-.08,0.008-0.131,0.133H65.494c-0.045-.028-0.009-0.1-0.044-0.044a0.227,0.227,0,0,0-.044.133c0.346,0,.554,0,0.961,0v-0.31l-0.524-.044a6.949,6.949,0,0,1,0-1.373h0.087s0.154,0,.306,0V20.718a2.725,2.725,0,0,0,1.092-.088,0.907,0.907,0,0,1-.437-0.044,3.944,3.944,0,0,0,1.092-.044,0.288,0.288,0,0,0,.044.177,0.216,0.216,0,0,1,.044-0.133,0.152,0.152,0,0,0,.044.089,0.216,0.216,0,0,1,.044-0.133v0.133a1.565,1.565,0,0,0,.393-0.044c0.089,0.072-.031.052,0.087,0.088a0.472,0.472,0,0,1,.262,0c0.036-.144-0.021-0.068.087-0.133a0.9,0.9,0,0,0,.219.443c0.078,0,.363.133,0.524,0.177a8.975,8.975,0,0,0,2.1.044v0.133c-0.589-.021-1.893-0.15-1.966.354a3.44,3.44,0,0,1,.131.443,3.3,3.3,0,0,1-.481.221V22.49a7.939,7.939,0,0,0,.874.044V22.4h0.175a0.964,0.964,0,0,0,.044-0.31s-0.171-.009-0.087-0.044h0.087V21.958a0.324,0.324,0,0,0,.262.089,0.266,0.266,0,0,1,.524,0c-0.111.064-.049-0.01-0.087,0.133,0.075,0.035.08,0.116,0.131,0.044s0-.078.044-0.133A0.293,0.293,0,0,1,71.7,22v0.089c0.074,0.081-.036.12,0.219,0.133,0.045-.03.693-0.191,0.786-0.221,0.059-.183.084-0.194,0.437-0.177V21.87a0.268,0.268,0,0,0-.087.088c0.253,0.03.539-.044,0.7,0a0.767,0.767,0,0,1,.131.133l0.481-.044a1.2,1.2,0,0,1,.044-0.531,0.547,0.547,0,0,0,.087.487,0.291,0.291,0,0,0,.175.044V22c-0.058-.077-0.076-0.071-0.044-0.133a0.467,0.467,0,0,1,.262-0.044c0.083,0.041.051,0.017,0.175,0a0.15,0.15,0,0,0,0,.133,0.55,0.55,0,0,1,.175.044V21.914a0.513,0.513,0,0,1-.087-0.133h0.481l-0.044.089h0.218a1.072,1.072,0,0,1,.044-0.487v0.531h0.175a1.073,1.073,0,0,1,.044-0.487v0.487h0.306a0.824,0.824,0,0,0,.044-0.266,0.4,0.4,0,0,1-.131-0.266h0.087a0.373,0.373,0,0,1,.218-0.044l-0.044.531a1.42,1.42,0,0,0,.437.044,1.472,1.472,0,0,1,.044-0.62V21.87H77.16a1.338,1.338,0,0,1,.044-0.576V21.87l0.743-.089a1.471,1.471,0,0,1,.044-0.62v0.62h0.131a1.473,1.473,0,0,1,.044-0.62,0.822,0.822,0,0,0,.087.62,1.5,1.5,0,0,1,.393-0.089V21.515l0.393-.044a0.817,0.817,0,0,1,.044-0.4,0.289,0.289,0,0,0,.044.177V21.161a2.425,2.425,0,0,0,.306-0.8h0.044V20.5a2.167,2.167,0,0,0-.306.886c-0.087,0-.012-0.045-0.087,0a1.68,1.68,0,0,1,.262.266,1.338,1.338,0,0,1,.044-0.576,1.336,1.336,0,0,0,.044.576,1.336,1.336,0,0,1,.044-0.576V21.6a0.209,0.209,0,0,0,.131-0.044,6.066,6.066,0,0,0,.044-1.55,2.775,2.775,0,0,1,.044-1.019v2.347L80,21.294v0.044a1.443,1.443,0,0,0-.044.354,1.155,1.155,0,0,1-.306.31,0.14,0.14,0,0,0,0,.177,1.67,1.67,0,0,0-.35.4c-0.342.8-.289,1.786-0.568,2.657a5.255,5.255,0,0,1-2.01,2.835c-1.1.683-3.54,0.4-5.243,0.4H13.064c-0.691-1.072-3.788-.767-5.156-0.4l-1.442.089a1.937,1.937,0,0,1-.175.753,0.762,0.762,0,0,1-.35.044c-0.149-.177-0.125-0.517-0.262-0.709a1.155,1.155,0,0,1-.087.443H5.549V28.424a0.485,0.485,0,0,0,.044-0.266,1.394,1.394,0,0,1-.918-0.177H4.762c0.2-.186.6-0.143,0.83-0.31a0.987,0.987,0,0,1,0-.8A0.868,0.868,0,0,0,5.9,26.83C6.047,27,6.058,27.319,6.2,27.494a0.889,0.889,0,0,1,.087-0.354,0.16,0.16,0,0,1,.044.088,1.391,1.391,0,0,0,.218.443,1.054,1.054,0,0,1,.393-0.088,7.768,7.768,0,0,0,.044-0.841L3.67,26.254v0.089a0.934,0.934,0,0,1,.612.443,2.035,2.035,0,0,1-.393,1.462,2.77,2.77,0,0,1-1.4.044c-0.068-.089-0.2-0.132-0.262-0.221a4.053,4.053,0,0,1-.306-1.55,1.1,1.1,0,0,0,.218-0.177h1.18V26.21C2.214,26.2,1.153,25.957,0,25.944a10.823,10.823,0,0,1,.131-1.993,0.337,0.337,0,0,0,.175-0.177,1.99,1.99,0,0,0,.481.133c0.069-.1.153-0.159,0.218-0.266a1.248,1.248,0,0,0,.393.044c0.036,0.144-.021.068,0.087,0.133a0.486,0.486,0,0,1,.087-0.133,0.289,0.289,0,0,0,.044.177,0.191,0.191,0,0,1,.131-0.133c0.057,0.109-.019.03,0.087,0.089a13.652,13.652,0,0,0-.175-2.347v0.443L0.131,22l-0.044-.886a5.223,5.223,0,0,1,1.486-.088c0.05,0.082.036,0.317,0.087,0.4A2.525,2.525,0,0,0,1.617,20.9H1.7v0.487a3.377,3.377,0,0,1,.087,1.063H1.835a0.153,0.153,0,0,1,.044-0.089V22.49a2.853,2.853,0,0,0,.044,1.2A0.641,0.641,0,0,0,2.316,23.6a0.232,0.232,0,0,0,.131.222c0.176-.277.48,0.034,0.743-0.089v0.177H3.626a4.635,4.635,0,0,0-.044-1.24H3.714v0.044a5.258,5.258,0,0,0,.175,1.2H4.194a1.2,1.2,0,0,1,.044-0.532v0.532H5.724a1.2,1.2,0,0,1,.044-0.532v0.532a2.027,2.027,0,0,1,.524-0.044,7.446,7.446,0,0,0-.044-1.9H6.379V22a3.727,3.727,0,0,0,.262,1.86,0.943,0.943,0,0,1,.044-0.443,1.405,1.405,0,0,0,.044.443,0.7,0.7,0,0,1,.262.044,1.2,1.2,0,0,1,.044-0.532v0.532H7.165l-0.044-.354H7.3a0.954,0.954,0,0,1,.087-0.31A0.8,0.8,0,0,1,7.777,23.2a0.156,0.156,0,0,0,.087.044V22.578a4.755,4.755,0,0,1-.655-0.133c-0.139-.017-0.06.1-0.131,0.133H6.685A0.476,0.476,0,0,0,6.6,22.312a0.257,0.257,0,0,0,.087-0.177l0.35-.044,0.087,0.133a0.611,0.611,0,0,0,.568-0.177c0.044-.044.043,0.044,0.044,0.044,0.086,0.119.128,0.012,0.175-.044s0.044,0.089.044,0.089H8.345V22.091a0.391,0.391,0,0,1-.131-0.133,2.127,2.127,0,0,1,.612-0.044,0.125,0.125,0,0,0,.044.044c0,0.089-.045.013,0,0.089a0.462,0.462,0,0,1,.218,0H9.132c-0.032.039-.055,0.05-0.087,0.089a0.313,0.313,0,0,1,.35.177c-0.069.048-.072,0.134-0.131,0.177-0.169.125-.245-0.038-0.306,0.221,0.172,0.166.044,0.527,0.218,0.8a1.461,1.461,0,0,1,.087-0.487v0.266a0.62,0.62,0,0,1,.218.044,0.763,0.763,0,0,1,.568-0.93c-0.036.144,0.021,0.068-.087,0.133-0.024-.058,0-0.033-0.044-0.044a0.917,0.917,0,0,0-.306.841H9.7a0.374,0.374,0,0,1,.218-0.044v0.62h0.175l0.044-.443a0.267,0.267,0,0,0,.175.088v0.266l0.087-.044c0.073,0.126-.073.125,0.087,0.177,0.05-.079.078-0.011,0.306,0,0-.715,0-1.17,0-1.86-0.146.017-.124,0.044-0.131-0.177h0.087c0.1,0.159.132,0.052,0.262,0v0.221c-0.221.015-.143,0.377-0.131,0.709a2.748,2.748,0,0,1,.218.974h0.044a0.158,0.158,0,0,1,.087-0.044,2.291,2.291,0,0,1,.044-0.886v0.886c0.142,0.037.067-.022,0.131,0.089a0.161,0.161,0,0,0-.044.088h0.131a0.491,0.491,0,0,1,.044-0.4,0.289,0.289,0,0,0,.044.177c-0.017-.268,0-0.4,0-0.709h0.393a1.687,1.687,0,0,1,.349.93h0.262v-0.4H12.452v-0.4h0.524a1.373,1.373,0,0,1-.087.8h0.35l0.044-.443a0.621,0.621,0,0,0,.218-0.044v0.487h0.262V23.685H13.632a3.074,3.074,0,0,1,.131-0.664,5.9,5.9,0,0,0-2.01-.177V22.711l2.1-.044a0.925,0.925,0,0,0,.437-0.221c0.05,0.071-.043.046,0.044,0.089a0.566,0.566,0,0,1,.044-0.177H14.331V22.4c-0.034.085-.044-0.088-0.044-0.088A0.725,0.725,0,0,0,14.549,22h0.044V22.18a1,1,0,0,0,.481-0.044,0.149,0.149,0,0,1-.087-0.044,3.585,3.585,0,0,0,.35.089c0.009-.062-0.036.018-0.044-0.044-0.084-.034.087-0.044,0.087-0.044a0.24,0.24,0,0,1,.175,0c0.009,0.062-.036-0.018-0.044.044C15.427,22.17,15.6,22.18,15.6,22.18A0.571,0.571,0,0,1,15.642,22a1.7,1.7,0,0,1,.306.089,0.279,0.279,0,0,0-.175.044h0.044a0.8,0.8,0,0,0,.393.044,0.217,0.217,0,0,1,.044-0.133,0.467,0.467,0,0,0,.262.044c0.017,0.112-.025.07,0.131,0.089,0.036-.144-0.021-0.068.087-0.133,0,0.161.042,0.152,0.306,0.133,0.133-.074.166,0.011,0.262,0.089V22.135a1.158,1.158,0,0,1,.524.089v0.044H17.783a0.221,0.221,0,0,1-.131.044c-0.064-.137-0.111-0.131-0.306-0.133v0.089h0.087a0.954,0.954,0,0,0,.481.133V22.312a0.228,0.228,0,0,1-.044-0.133,1.247,1.247,0,0,1,.393-0.044V21.958h0.087a0.281,0.281,0,0,0,.262,0v0.177c-0.215.014-.144,0.172-0.131,0.487h0.044a1.131,1.131,0,0,1,.786-0.133V22.357c0.164-.006.154,0.021,0.218-0.088a0.449,0.449,0,0,1-.481-0.443c0.053-.121.02-0.077-0.044-0.177h0.131V21.427a9.015,9.015,0,0,0-1.966-.177V21.117a5.392,5.392,0,0,0,2.491-.221,0.216,0.216,0,0,0,.044.133,0.924,0.924,0,0,1,.131-0.354c-0.114-.017-0.057.033-0.087-0.089l0.131,0.044a0.22,0.22,0,0,0-.044-0.177H20.8V20.5c-0.176-.006-0.239-0.024-0.306.089h0.175a0.549,0.549,0,0,1,.306-0.044c0.03-.034.057-0.1,0.087-0.133,0.239,0.147.811-.061,1.049,0.089a1.031,1.031,0,0,0-.481.044,6.11,6.11,0,0,1,1.223.089c-0.142.037-.067-0.022-0.131,0.088a0.827,0.827,0,0,1,.524.177l-0.131.044a1.668,1.668,0,0,1,0,1.152,2.6,2.6,0,0,0-1.223.266h0.175V22.49l1.005,0.089a0.907,0.907,0,0,0-.044-0.31h0.218c0.028-.02.134-0.016,0.218-0.044a0.817,0.817,0,0,0,.044.4,1.607,1.607,0,0,1,.044-0.664v0.31h0.131V22h0.524V21.781a0.571,0.571,0,0,1,.349-0.089v0.044H24.6V21.072c-0.146.017-.124,0.044-0.131-0.177h0.087c0.1,0.159.132,0.052,0.262,0v0.221c-0.222.018-.141,0.786-0.131,1.152H24.73V22.18a1.642,1.642,0,0,0,.175-0.664,1.262,1.262,0,0,1,.35-0.177v0.354h0.218a10.407,10.407,0,0,0-.044-1.816,2.539,2.539,0,0,0,.044-1.152c-0.065-.426.1-1.13,0.044-1.417a5.505,5.505,0,0,1-.175-0.753H25.21V16.333a0.279,0.279,0,0,1-.175-0.044H25.21a0.985,0.985,0,0,0-.087-0.443h0.131A2.152,2.152,0,0,1,25.3,15a7.593,7.593,0,0,0,.393,2.657c0.129,0.429.094,0.778,0.218,1.2,0.313,1.055.528,1.991,0.743,3.056a1.162,1.162,0,0,1,.83.354V21.737h0.393a1.4,1.4,0,0,0-.087-0.753h0.218a0.157,0.157,0,0,0,.087.044,0.823,0.823,0,0,0,.131.266,1.2,1.2,0,0,0-.131.443H28.4v0.576a0.69,0.69,0,0,0-.262.354H28.094a0.5,0.5,0,0,0-.087-0.177,0.171,0.171,0,0,0,.087-0.133,0.366,0.366,0,0,0,.131.089V22.357H28.138a0.373,0.373,0,0,0-.218-0.044v0.31c0.275,0,.084.206,0.044,0.487h0.175a3.135,3.135,0,0,1,.044.841H28.4a0.942,0.942,0,0,1,.044-0.443v0.443h2.1V23.818a1.4,1.4,0,0,0-.437-0.133,5.6,5.6,0,0,0-1.486-.044,1.089,1.089,0,0,1-.087-0.31,0.589,0.589,0,0,1,.568-0.31c0.053,0.137.016,0.1,0.175,0.133l-0.044-.531,0.218-.044c0.009,0.062-.036-0.018-0.044.044-0.084.034,0.087,0.044,0.087,0.044a1.019,1.019,0,0,1,.83-0.354,0.329,0.329,0,0,0-.087-0.266h2.141v0.177h0.087c0.131,0.076.14,0,.262-0.044v0.133a0.16,0.16,0,0,0-.044.088h0.175q0.022,0.377.044,0.753h1V23.021c-0.215-.168-0.37-0.431-0.568-0.62V22.312a0.126,0.126,0,0,0,.044-0.044h0.087a8.075,8.075,0,0,0,.655.62,1.288,1.288,0,0,0,0,.266h0.83V23.2H34.866a1.614,1.614,0,0,1-.7.177L34.211,24h0.612V23.951h0.044a4.816,4.816,0,0,0,.175-0.974,0.569,0.569,0,0,1-.262-0.177c0.038-.083.021-0.033,0-0.133a0.125,0.125,0,0,0-.044.044,1.678,1.678,0,0,0-.087.266H34.56a1.735,1.735,0,0,1-.175-1.019,0.125,0.125,0,0,0,.044-0.044c0.038,0.033.049,0.056,0.087,0.089a1.413,1.413,0,0,1,.131-1.019v0.133H34.91v-0.4H34.691a0.473,0.473,0,0,1,.044-0.266v0.221H34.91q0.022-.465.044-0.93H34.866a0.217,0.217,0,0,1-.044.133V19.7a0.417,0.417,0,0,0,.131-0.443,0.62,0.62,0,0,0-.218.044V19.124h0.044V19.079h0.044c0.005,0.166-.053.108,0.131,0.133a0.644,0.644,0,0,0-.044-0.221h0.131v0.044a0.3,0.3,0,0,0-.044.177c0.142-.037.067,0.022,0.131-0.089a0.269,0.269,0,0,1-.087-0.088h0.087v0.044c0.171,0.249-.084.292-0.131,0.576a3.024,3.024,0,0,1,0,1.019h0.087a0.216,0.216,0,0,1,.044-0.133,1.952,1.952,0,0,0,.044.576h0.044a1.2,1.2,0,0,1,.044-0.531V20.9H35.74L35.7,20.674c-0.286.005-.243-0.393-0.218-0.8a0.192,0.192,0,0,0,.131-0.133h0.044c0.036,0.144-.021.068,0.087,0.133,0.117-.185.122-0.091,0.218,0l0.131-.089a2.617,2.617,0,0,1,.087.841c-0.126.049-.142,0.033-0.175,0.133a0.228,0.228,0,0,0-.044.133h0.349a0.581,0.581,0,0,1,.044-0.31V20.9h0.262a0.581,0.581,0,0,1,.044-0.31,2.17,2.17,0,0,0,.393,1.151h0.044V21.648a4.546,4.546,0,0,1,0-.487h0.044v0.044a1.921,1.921,0,0,0,.044.487,0.542,0.542,0,0,0,.131-0.443,0.268,0.268,0,0,1-.087-0.089,0.669,0.669,0,0,0,.349-0.044,11.21,11.21,0,0,1-.306-2.17h0.087a0.376,0.376,0,0,0,.044.221,0.376,0.376,0,0,1,.044-0.221,4.336,4.336,0,0,0,1.136-.31,3.7,3.7,0,0,1,.481-0.133l0.131,0.044a0.834,0.834,0,0,0,.087.709c0.043,0.069-.064.043-0.087,0.044,0,0.044.04,0.164,0.044,0.266h0.131l-0.044-.31c0.139,0,.105.053,0.131-0.133H39.367v0.044c-0.044.044-.043-0.044-0.044-0.044a0.3,0.3,0,0,1-.044-0.177,0.161,0.161,0,0,0,.044-0.089H39.41V18.9a7.349,7.349,0,0,1,.262,2.037H39.76V20.9a0.368,0.368,0,0,0,.175-0.266l0.131,0.044a0.376,0.376,0,0,0,.044.221V20.851c0.03-.034.057-0.1,0.087-0.133a1.091,1.091,0,0,0,.262.133c-0.032.039-.055,0.05-0.087,0.089a1.569,1.569,0,0,1,.786.044H40.677v0.221a2.483,2.483,0,0,0,.7.044v0.443a0.962,0.962,0,0,0-1.092.93h0.044a0.408,0.408,0,0,1,.481-0.266c0.053,0.137.016,0.1,0.175,0.133A0.507,0.507,0,0,1,41.071,22a0.209,0.209,0,0,1-.131-0.044h0.087a0.22,0.22,0,0,1,.131-0.044c0,0.089-.045.012,0,0.089a0.157,0.157,0,0,1,.087-0.044V21.914a0.15,0.15,0,0,1-.087-0.044,0.813,0.813,0,0,0,.306,0c-0.024-.085-0.072-0.038,0-0.089a1.583,1.583,0,0,1,.568-0.177V21.427a0.149,0.149,0,0,1-.087-0.044,9.354,9.354,0,0,1,2.185.044H43.08V21.6c0.344-.009.776-0.087,1-0.088a3.167,3.167,0,0,0,.306.088,0.216,0.216,0,0,1,.044-0.133v0.266H44.61V22.49c0.87,0,1.26,0,2.053,0v0.044H46.576a7.326,7.326,0,0,1-1.922.354c-0.04.107-.047,0.07-0.087,0.177a0.249,0.249,0,0,1,0,.177,0.56,0.56,0,0,0-.306.044,2.964,2.964,0,0,0,2.053-.221l0.087-.31a0.661,0.661,0,0,1,.262-0.088,0.981,0.981,0,0,0,.044-0.177,1.865,1.865,0,0,1,.481-0.044c0.036-.015.118-0.1,0.175-0.133a2.633,2.633,0,0,1,.131-0.443H46.838v0.044c-0.044.044-.043-0.044-0.044-0.044H46.75V21.825a4.5,4.5,0,0,1,1.311-.443v-0.31a3.942,3.942,0,0,1-.087-1.019,10.286,10.286,0,0,1-.218-1.417h0.087s0.057,0.128.087,0.089V18.681a0.384,0.384,0,0,1,.262-0.133V18.326c-0.1.018-.047,0.041-0.131,0H48.1s0.057-.128.087-0.088v0.044c0.03,0.045.056,0.177,0.087,0.221a1.266,1.266,0,0,1,.655-0.266c0.052-.117-0.039-0.079.087-0.133a1.081,1.081,0,0,0,.175.044V17.883a0.678,0.678,0,0,0-.218-0.044C49.013,18,49.066,18,49.066,18.061V18.1a0.877,0.877,0,0,1-.218-0.044,0.808,0.808,0,0,1-.087-0.576h0.175v0.177l0.612-.044V17.441a1.012,1.012,0,0,1,.393.177v0.044c-0.124-.014-0.09-0.047-0.175,0,0.11,0.062.016,0,.044,0.177H49.94c0.083-.078.217-0.1,0.306-0.177a0.9,0.9,0,0,1-.35-0.133,1.151,1.151,0,0,0,.612.044c0.057,0.109-.019.03,0.087,0.089-0.081.135-.083,0.173,0.044,0.31-0.163.067-.073,0.308-0.044,0.443h0.044c0.009-.182,0-0.2.131-0.266v0.044a0.659,0.659,0,0,1,.087.31c-0.114-.036-0.177-0.019-0.262-0.044v0.133a0.3,0.3,0,0,0,.262-0.044v0.532a2.6,2.6,0,0,1,.044.62l2.622,0.62V15.846a3.1,3.1,0,0,0,.044-1.107c0-.928-0.023-1.718-0.044-2.613h0.131a0.124,0.124,0,0,0-.044-0.044,1.448,1.448,0,0,0-.044-0.487c-0.061-.009.018,0.036-0.044,0.044-0.034.085-.044-0.089-0.044-0.089a0.149,0.149,0,0,0,.087-0.044,1.439,1.439,0,0,1-.131-0.974C53.467,11.178,53.759,11.746,53.785,12.48Zm-0.612-.8a0.227,0.227,0,0,1,.044.133H53.129V11.772A0.161,0.161,0,0,0,53.173,11.683Zm-0.131.133h0.087V11.86A0.15,0.15,0,0,1,53.042,11.816Zm0.175,0,0.131,0.044a0.156,0.156,0,0,1-.087.044,0.124,0.124,0,0,1-.044.044V11.816Zm0.175,0.044a0.55,0.55,0,0,1,.218.177H53.523c-0.087-.05-0.079-0.026-0.175,0A0.566,0.566,0,0,1,53.392,11.86Zm0.218,0.576a9.418,9.418,0,0,0,.044,1.107H53.96V13.455a0.833,0.833,0,0,1-.175-0.266,1.129,1.129,0,0,0-.044-0.753H53.61Zm0.262,0.089a0.816,0.816,0,0,0,.087.576V12.525H53.872Zm-0.131.8h0.087V13.41H53.741V13.322Zm-0.087.31V15.8a2.4,2.4,0,0,0,.044.886c0.03-.157.072-0.095,0.087-0.133a0.669,0.669,0,0,0-.044-0.354c0.064-.113-0.01-0.05.131-0.089a0.153,0.153,0,0,0,.044.089,0.761,0.761,0,0,0-.087.354H53.96V13.632H53.654Zm0.35,1.2a0.209,0.209,0,0,1,.131.044H54v0.266a0.209,0.209,0,0,1,.131.044H54v0.266a0.209,0.209,0,0,1,.131.044H54v0.266a0.208,0.208,0,0,1,.131.044H54v0.266a0.209,0.209,0,0,1,.131.044H54v0.576h0.568a8.413,8.413,0,0,0-.393-1.9A2.756,2.756,0,0,0,54,13.942v0.886Zm0.568,1.151a0.161,0.161,0,0,1,.044.089H54.571V15.979ZM54.615,16.2a0.161,0.161,0,0,1,.044.088H54.615V16.2ZM54.7,16.643a0.159,0.159,0,0,1,.044.088H54.7V16.643ZM53.96,19.566a5.569,5.569,0,0,0,0-.576h0.218v0.044a0.85,0.85,0,0,0,0,.531h0.175v-0.31H55.1a10.026,10.026,0,0,0-.481-2.3,0.79,0.79,0,0,1-.175-0.133,3.527,3.527,0,0,0-.7.044L53.7,17a2.135,2.135,0,0,0-.044.8v2.037h0.087C53.758,19.631,53.782,19.6,53.96,19.566Zm0.786-2.746a0.227,0.227,0,0,1,.044.133H54.746V16.821Zm-29.973.089h0.087l-0.044.133H24.773V16.909Zm0.175,0.133h0.087v0.044A0.15,0.15,0,0,1,24.948,17.042Zm29.842,0a0.227,0.227,0,0,1,.044.133H54.79V17.042Zm-29.667.133H25.21v0.044A0.148,0.148,0,0,1,25.123,17.175Zm29.71,0.089a0.227,0.227,0,0,1,.044.133H54.833V17.263ZM25.3,17.308h0.087v0.044A0.149,0.149,0,0,1,25.3,17.308Zm29.579,0.177a0.228,0.228,0,0,1,.044.133H54.877V17.485Zm-4.544.044h0.087v0.044A0.149,0.149,0,0,1,50.333,17.529Zm8.039,0.133v0.089h0.044A0.153,0.153,0,0,0,58.373,17.662Zm-3.452.044a0.228,0.228,0,0,1,.044.133H54.921V17.706ZM25.6,19.921h0.481a3.513,3.513,0,0,0-.218-0.93c-0.118-.425-0.12-0.811-0.262-1.2H25.56V18.5A7.2,7.2,0,0,1,25.6,19.921Zm23.812-2.081a0.211,0.211,0,0,0,0,.221,0.29,0.29,0,0,1,.044-0.177,0.216,0.216,0,0,0,.044.133,0.157,0.157,0,0,1,.087-0.044V17.839A0.335,0.335,0,0,1,49.416,17.839Zm5.549,0.088a0.228,0.228,0,0,1,.044.133H54.965V17.928Zm3.058,0.044v0.221h0.044c0.034-.03.1-0.058,0.131-0.089-0.151-.046-0.1,0-0.087-0.133H58.023Zm-9.437.044a0.619,0.619,0,0,1,.218.044V18.1H48.717C48.683,18.075,48.619,18.047,48.586,18.016Zm-0.087.044h0.087a0.625,0.625,0,0,0,0,.221H48.542V18.194A0.227,0.227,0,0,1,48.5,18.061Zm9.874,0V18.1H58.329c-0.084.034,0.087,0.044,0.087,0.044A0.153,0.153,0,0,0,58.373,18.061ZM48.367,18.1h0.087v0.044H48.367V18.1Zm0.219,0h0.087v0.044H48.586V18.1Zm-0.306.044h0.087l-0.044.089h0.044a0.221,0.221,0,0,1-.131.044Zm6.729,0a0.228,0.228,0,0,1,.044.133H55.008V18.149Zm-6.641.044h0.087v0.044A0.15,0.15,0,0,1,48.367,18.194Zm-9.7.133a0.551,0.551,0,0,1,.175.044v0.044H38.755C38.722,18.376,38.7,18.365,38.667,18.326Zm-0.349.044a0.633,0.633,0,0,1,.437.089,1.962,1.962,0,0,1-.524-0.044A0.149,0.149,0,0,0,38.318,18.371Zm0.568,0h0.087v0.044A0.148,0.148,0,0,1,38.886,18.371Zm16.166,0a0.228,0.228,0,0,1,.044.133H55.052V18.371ZM58.5,18.415v0.4h0.044a0.685,0.685,0,0,0,.087-0.4H58.5Zm0.175,0v0.31h0.175v-0.31H58.678Zm0.218,0v0.31h0.087v-0.31H58.9Zm0.131,0a0.817,0.817,0,0,0,.044.4A0.818,0.818,0,0,0,59.028,18.415Zm0.087,0v0.4h0.044v0.044H59.29V18.415H59.115Zm0.218,0v0.354h0.131V18.415H59.334Zm0.175,0a0.694,0.694,0,0,0,.044.354A0.7,0.7,0,0,0,59.509,18.415Zm0.087,0a0.7,0.7,0,0,0,.044.354A0.694,0.694,0,0,0,59.6,18.415Zm0.087,0a0.581,0.581,0,0,0,.044.31A0.581,0.581,0,0,0,59.683,18.415Zm0.131,0a0.944,0.944,0,0,0,.044.443A0.944,0.944,0,0,0,59.814,18.415Zm0.087,0a0.944,0.944,0,0,0,.044.443A0.944,0.944,0,0,0,59.9,18.415Zm-21.8.044h0.087V18.5A0.148,0.148,0,0,1,38.1,18.459Zm0.262,0c0.015,0.013.087,0.023,0.044,0.089C38.357,18.526,38.269,18.469,38.362,18.459Zm0.087,0a0.21,0.21,0,0,1,.131.044A0.21,0.21,0,0,1,38.449,18.459Zm-0.481.044a0.21,0.21,0,0,1,.131.044,0.762,0.762,0,0,1-.219.133l0.044-.089H37.881C37.913,18.554,37.936,18.542,37.968,18.5Zm0.175,0.044a0.21,0.21,0,0,1,.131.044A0.21,0.21,0,0,1,38.143,18.548Zm0.262,0a0.227,0.227,0,0,1,.044.133H38.405V18.548Zm-0.612.044h0.087v0.044A0.149,0.149,0,0,1,37.794,18.592Zm0.262,0h0.087v0.044H38.056V18.592Zm17.04,0a0.229,0.229,0,0,1,.044.133H55.1V18.592Zm-17.389.044,0.175,0.044v0.044H37.75Zm12.889,0c0.036,0.144-.021.068,0.087,0.133V18.636H50.6Zm-12.933.044c-0.014.082,0.032,0.055-.087,0.088V18.725h0.087V18.681ZM50.6,18.814a0.713,0.713,0,0,0,.087.266C50.684,18.907,50.7,18.88,50.6,18.814Zm3.364,0c0.167,0.025.162-.047,0.218,0.133H54.134A0.375,0.375,0,0,1,53.96,18.814Zm-16.734.044a0.209,0.209,0,0,1,.131.044A0.209,0.209,0,0,1,37.226,18.858Zm-2.4.177H34.91v0.044H34.823V19.035Zm20.361,0a0.161,0.161,0,0,1,.044.088H55.183V19.035Zm-4.544.133a0.891,0.891,0,0,0,.087.487A0.548,0.548,0,0,0,50.639,19.168ZM35,19.256c0.036,0.144-.021.068,0.087,0.133V19.345a0.16,0.16,0,0,0,.044-0.089H35Zm-0.219.044a0.161,0.161,0,0,1,.044.089H34.779V19.3Zm19.661,0v0.266h0.306V19.345A0.926,0.926,0,0,0,54.44,19.3Zm1.092,0.044c0.075,0.039.056,0.039,0.131,0H55.533Zm-20.71.044H34.91v0.044A0.149,0.149,0,0,1,34.823,19.389Zm-14.112.133a0.18,0.18,0,0,1,0,.222V19.522Zm47.537,0.044a0.131,0.131,0,0,1,0,.177V19.566Zm-28.88.044a0.21,0.21,0,0,0-.131.044,2.4,2.4,0,0,1,.131.974h0.087V20.585H39.5A4.582,4.582,0,0,1,39.367,19.611Zm14.9,0a0.157,0.157,0,0,0,.087.044A0.157,0.157,0,0,0,54.265,19.611Zm0.175,0v0.221h0.306V19.788a0.3,0.3,0,0,1-.044-0.177H54.44Zm-17,.089v0.089h0.044A0.152,0.152,0,0,0,37.444,19.7Zm-16.69.133a0.18,0.18,0,0,1,0,.221V19.832Zm29.929,0a0.822,0.822,0,0,0,.087.354v-0.31Zm-15.9.044a0.3,0.3,0,0,1,0,.31v-0.31Zm20.71,0.93L56.1,20.939V19.877H55.314v0.088A2.53,2.53,0,0,1,55.489,20.807Zm12.714-.93a0.18,0.18,0,0,1,0,.221V19.877Zm-17.258.044c-0.034,1.463-.04,2.562,1.486,2.524a4.809,4.809,0,0,1,.044-0.886,0.677,0.677,0,0,1,.218-0.044,0.52,0.52,0,0,1,.131.266,1.1,1.1,0,0,0-.087.664,1.506,1.506,0,0,0,.481.044,0.523,0.523,0,0,0,.087-0.221c0.038,0.033.049,0.056,0.087,0.088V22.268a0.234,0.234,0,0,1,0-.221,0.161,0.161,0,0,1,.044.089,0.471,0.471,0,0,1-.044.354c-0.038-.033-0.049-0.056-0.087-0.089V22.49c0.091,0.125-.044.107,0.087,0.177a0.391,0.391,0,0,0,.131.133V22.135a11.516,11.516,0,0,1,0-1.639ZM25.6,19.965v1.727h0.131a3.473,3.473,0,0,0,0,.576H26.04V22.18a0.363,0.363,0,0,1-.131-0.4l0.131-.044a0.374,0.374,0,0,1,.218-0.044,1.978,1.978,0,0,0,.175.266,0.221,0.221,0,0,1,.131-0.044l-0.437-1.949H25.6Zm9.437,0.044a0.622,0.622,0,0,1,0,.487V20.009Zm2.447,0V20.1h0.044V20.009H37.488Zm16.3,0c0.009,0.062-.036-0.018-0.044.044-0.084.034,0.087,0.044,0.087,0.044A0.152,0.152,0,0,0,53.785,20.009Zm0.131,0v0.4H54a3.992,3.992,0,0,0,1.4.354l-0.087-.576A2.511,2.511,0,0,0,53.916,20.009Zm25.647,0a0.228,0.228,0,0,1,.044.133H79.563V20.009Zm-25.909.354h0.175V20.142a0.21,0.21,0,0,0-.131.044A0.3,0.3,0,0,0,53.654,20.364Zm25.866-.221a0.233,0.233,0,0,1,0,.221H79.476V20.231A0.161,0.161,0,0,0,79.519,20.142ZM20.8,20.187c0.076,0.087.09,0.1,0,.221V20.187Zm13.938,0a0.237,0.237,0,0,1,0,.266V20.187Zm33.424,0a0.388,0.388,0,0,1,.044.221H68.16V20.364A0.249,0.249,0,0,1,68.16,20.187Zm-17.433.089a0.215,0.215,0,0,0,.044.133A0.215,0.215,0,0,0,50.726,20.275Zm17.346,0.089c0.037,0.083.021,0.033,0,.133H68.028Zm-17.346.089a2.3,2.3,0,0,0,.087.576A0.726,0.726,0,0,0,50.726,20.452ZM19.967,20.5v0.089h0.35V20.541h0.044V20.5H19.967Zm0.437,0v0.089h0.044V20.5H20.4Zm0.7,0a0.313,0.313,0,0,0,.481,0H21.1Zm32.551,0.221h0.175V20.585a0.547,0.547,0,0,1-.175-0.044v0.177Zm-30.759-.133a0.279,0.279,0,0,1,.175.044A0.28,0.28,0,0,1,22.895,20.585Zm38.405,0a0.126,0.126,0,0,0,.175,0H61.3Zm-38.23.044a0.209,0.209,0,0,1,.131.044,0.161,0.161,0,0,0-.044.088H23.026Zm30.847,0a2.094,2.094,0,0,0,0,.531H53.654v0.354a0.455,0.455,0,0,1,.262.044H53.654v0.177a0.455,0.455,0,0,1,.262.044H53.7v0.133c1.268-.03,1.384.687,1.355,1.949H55.1a2.375,2.375,0,0,0,.568-0.4,5.412,5.412,0,0,0,.218-0.531c-0.157-.009-0.091.066-0.131-0.089a0.262,0.262,0,0,0-.044-0.221l0.087,0.044c-0.168-.541-0.157-1.173-0.35-1.683Zm13.5,0v0.088H67.81V20.674h0.044V20.629H67.417Zm0.481,0v0.088h0.044A0.152,0.152,0,0,0,67.9,20.629Zm-28.487.044,0.044,0.576h0.087V20.984A0.653,0.653,0,0,0,39.41,20.674Zm22.72,0h0.087v0.044A0.149,0.149,0,0,1,62.13,20.674Zm0.131,0a0.209,0.209,0,0,1,.131.044A0.209,0.209,0,0,1,62.261,20.674Zm6.816,0a0.161,0.161,0,0,1,.044.088H69.077V20.674Zm-49.372.044a0.161,0.161,0,0,1,.044.089H19.705V20.718Zm14.943,0a0.237,0.237,0,0,1,0,.266V20.718Zm0.35,0v0.4h0.087v-0.4H35Zm30.89,0c-0.014.082,0.032,0.055-.087,0.089V20.762A0.149,0.149,0,0,0,65.888,20.718Zm0.087,0h0.087v0.044A0.148,0.148,0,0,1,65.975,20.718Zm-12.321.044V20.9h0.175V20.762H53.654Zm12.627,0a0.156,0.156,0,0,0,.087.044A0.157,0.157,0,0,0,66.281,20.762Zm-46.619.044a0.161,0.161,0,0,1,.044.089H19.661V20.807Zm15.6,0.133v0.177h0.087a0.239,0.239,0,0,1,.175-0.133V20.939H35.259Zm0.918,0a0.509,0.509,0,0,0,.131.089V20.939H36.177Zm0.175,0v0.177h0.262V20.939H36.352Zm17.3,0v0.177h0.175V20.939H53.654Zm12.015,0h0.087v0.044A0.15,0.15,0,0,1,65.669,20.939Zm-46.139.089a0.157,0.157,0,0,0,.087.044A0.156,0.156,0,0,0,19.53,21.028Zm20.841,0.044v0.177h0.175a1.143,1.143,0,0,0,.087-0.221H40.2v0.044h0.175Zm15.685,0.044-0.524-.088v0.088c0.248,0.4.086,1.119,0.349,1.506a0.153,0.153,0,0,1,.044-0.089c0.036,0.144-.021.068,0.087,0.133V22.578a0.469,0.469,0,0,0,0-.354L56.1,22.268A5.43,5.43,0,0,1,56.057,21.117Zm-19.006-.044a0.161,0.161,0,0,1,.044.088H37.051V21.072Zm2.665,0a0.216,0.216,0,0,0,.044.133c0.068-.131.051,0,0.175-0.089A0.872,0.872,0,0,0,39.716,21.072Zm11.1,0a0.374,0.374,0,0,0,.044.221A0.375,0.375,0,0,0,50.814,21.072Zm-35.478.044a0.18,0.18,0,0,1,0,.222V21.117ZM36.4,21.161v0.8h0.087a0.872,0.872,0,0,0,.612,0l-0.131-.044,0.044-.221a4.962,4.962,0,0,0-.393-0.532H36.4Zm0.961,0.044v0.4h0.262l-0.044-.4H37.357Zm13.457,0.177a1.2,1.2,0,0,0,.087.531,0.7,0.7,0,0,0,.524.531V22.4C50.9,22.212,51.078,21.772,50.814,21.382Zm9.525,0.044a0.762,0.762,0,0,1-.044.266h0.044l0.481-.133v0.089h0.087a0.452,0.452,0,0,1,.131-0.089v0.266a0.9,0.9,0,0,0,0,.531c-0.008.025-.075-0.01-0.087,0.221h0.087V22.534a1.484,1.484,0,0,0,.175-0.974l-0.131-.044A0.983,0.983,0,0,0,60.339,21.427Zm-18.525,0a0.209,0.209,0,0,1,.131.044A0.21,0.21,0,0,1,41.813,21.427Zm0.262,0V21.6h0.961V21.427H42.075Zm-26.7.044a0.18,0.18,0,0,1,0,.221V21.471Zm26.346,0h0.087v0.044A0.15,0.15,0,0,1,41.726,21.471Zm18.438,0a0.605,0.605,0,0,0-.131.266h0.044a0.157,0.157,0,0,1,.087-0.044,0.7,0.7,0,0,0,.044-0.221H60.164Zm-18.569.044a0.209,0.209,0,0,1,.131.044A0.209,0.209,0,0,1,41.595,21.515Zm37.313,0a0.216,0.216,0,0,0,.044.133,0.157,0.157,0,0,1,.087-0.044V21.559Zm-37.4.044h0.087V21.6A0.148,0.148,0,0,1,41.507,21.559Zm18.394,0a0.216,0.216,0,0,0,.044.133V21.559H59.9Zm5.549,0a0.229,0.229,0,0,1,.044.133H65.451V21.559ZM11.229,21.6a0.21,0.21,0,0,1,.131.044,1.753,1.753,0,0,0,.044.974H11.316V22.534A5.779,5.779,0,0,1,11.229,21.6Zm30.235,0a0.161,0.161,0,0,1,.044.089H41.464V21.6Zm23.768,0a0.18,0.18,0,0,1,0,.221V21.6Zm-24.817.133a0.215,0.215,0,0,0,.044.133V21.737H40.415Zm25.079,0a0.229,0.229,0,0,1,.044.133H65.494V21.737Zm-50.027.044a0.279,0.279,0,0,1-.044.266A0.757,0.757,0,0,1,15.467,21.781Zm12.059,0v0.487h0.262a0.581,0.581,0,0,1,.044-0.31,0.374,0.374,0,0,0,.044.222v-0.4h-0.35Zm0.568,0v0.4l0.131,0.089V21.781H28.094Zm0.218,0a1.072,1.072,0,0,0,.044.487A1.073,1.073,0,0,0,28.312,21.781Zm12.976,0.044h0.087V21.87A0.15,0.15,0,0,1,41.289,21.825ZM65.538,21.87a0.131,0.131,0,0,1,0,.177V21.87ZM14.418,22a0.16,0.16,0,0,1,.044.089H14.418V22Zm41.551,0a0.161,0.161,0,0,1,.044.089H55.969V22Zm-16.21.044a2.015,2.015,0,0,0,.044.8,0.441,0.441,0,0,0,.218.266V22.224A0.358,0.358,0,0,0,39.76,22.047Zm-25.385.044a0.16,0.16,0,0,1,.044.089H14.375V22.091Zm3.976,0a1.078,1.078,0,0,0,0,.4,0.209,0.209,0,0,0-.131.044,0.312,0.312,0,0,1,0,.221h0.044a0.817,0.817,0,0,0,.131-0.664H18.351Zm6.161,0v0.177H24.6V22.091H24.511Zm5.636,0h0.087v0.044A0.148,0.148,0,0,1,30.148,22.091Zm0.218,0v0.177h0.568V22.091H30.366Zm0.612,0v0.177h0.35V22.091h-0.35Zm0.393,0v0.177h0.262V22.091H31.371Zm0.306,0v0.177l0.655-.044V22.091H31.677Zm24.249,0a0.227,0.227,0,0,1,.044.133H55.926V22.091ZM70.65,22.357h0.262a0.724,0.724,0,0,1,.044-0.266,1.362,1.362,0,0,1-.306,0v0.266Zm1.966-.266c-0.034.03-.1,0.058-0.131,0.089h0.131c0.034-.03.1-0.058,0.131-0.089H72.616Zm-42.6.044H30.1V22.18A0.149,0.149,0,0,1,30.016,22.135Zm-0.087.044h0.087v0.044A0.149,0.149,0,0,1,29.929,22.18Zm23.725,0v0.177h0.087V22.268C53.7,22.235,53.692,22.212,53.654,22.18ZM29.8,22.224h0.087v0.044A0.15,0.15,0,0,1,29.8,22.224Zm26.084,0a0.16,0.16,0,0,1,.044.089H55.882V22.224Zm-26.171.044c0.111,0.064.049-.01,0.087,0.133H29.754Zm-6.16.044v0.31h0.131v-0.31H23.55Zm0.961,0v0.31H24.6v-0.31H24.511Zm0.175,0.31h0.131V22.357H24.73V22.312H24.686v0.31Zm1.049-.31v0.31H26.04v-0.31H25.735Zm30.1,0a0.16,0.16,0,0,1,.044.088H55.838V22.312Zm10.574,0v0.266a1.3,1.3,0,0,0,.7-0.133Zm-10.442.044a0.161,0.161,0,0,1,.044.089H55.969V22.357Zm4.85,0.221V22.357H60.732a0.871,0.871,0,0,1-.393.133v0.044h0.044A0.921,0.921,0,0,0,60.819,22.578Zm-34.56.044h0.218a0.215,0.215,0,0,0-.044-0.133,0.31,0.31,0,0,0-.175-0.089v0.221ZM53.566,22.4a0.216,0.216,0,0,0,.044.133A0.216,0.216,0,0,0,53.566,22.4Zm0.087,0v0.133h0.175V22.49a0.161,0.161,0,0,1-.044-0.089H53.654Zm12.015,0a0.227,0.227,0,0,1,.044.133H65.669V22.4Zm-47.93,1.284a0.514,0.514,0,0,0-.524.133h0.218a0.571,0.571,0,0,1,.306-0.044c-0.016.131-.088,0.092,0.044,0.177,0.005-.176,0-0.138.262-0.133C18.067,23.254,18,23.047,18,22.49l-0.262-.044V22.49A1.963,1.963,0,0,1,17.739,23.685Zm22.895-1.24a0.157,0.157,0,0,0,.087.044A0.157,0.157,0,0,0,40.634,22.445Zm15.292,0a0.16,0.16,0,0,1,.044.089H55.926V22.445ZM1.879,22.49a0.228,0.228,0,0,1,.044.133H1.879V22.49Zm27.7,0h0.087v0.044A0.148,0.148,0,0,1,29.58,22.49Zm-0.087.044H29.58v0.044A0.149,0.149,0,0,1,29.492,22.534Zm-21.54.044A0.855,0.855,0,0,0,8,23.287c0.042,0.011.017,0.035,0.044,0a0.228,0.228,0,0,0,.044-0.133C7.975,23.1,8.053,23.173,8,23.065a0.518,0.518,0,0,0,.175-0.487A0.6,0.6,0,0,1,7.952,22.578Zm0.262,0.31c0.142-.037.067,0.022,0.131-0.089A0.452,0.452,0,0,1,8.3,22.578a0.16,0.16,0,0,0-.044.089A0.424,0.424,0,0,0,8.214,22.888Zm5.986-.31a0.157,0.157,0,0,0,.087.044A0.157,0.157,0,0,0,14.2,22.578Zm39.367,0a0.7,0.7,0,0,0,.044.354A0.7,0.7,0,0,0,53.566,22.578Zm0.087,0v0.177h0.218a0.216,0.216,0,0,0-.044-0.133A0.291,0.291,0,0,0,53.654,22.578Zm-51.731.044a2.2,2.2,0,0,1,.306.8H2.185v0.044H2.141C2.1,23.142,1.955,22.961,1.922,22.622Zm6.117,0a0.3,0.3,0,0,1,.044.177H8.039V22.755C8,22.672,8.019,22.723,8.039,22.622Zm3.321,0.044h0.087l-0.044.266H11.36V22.667Zm22.021,0.044h0.087v0.221a0.124,0.124,0,0,1-.044-0.044,0.125,0.125,0,0,0-.044.044C33.286,22.8,33.318,22.845,33.381,22.711Zm22.283,0a0.228,0.228,0,0,1,.044.133H55.664V22.711Zm-47.712.044A0.161,0.161,0,0,1,8,22.844H7.952V22.755Zm0.961,0.266a5.668,5.668,0,0,1-.7.044V23.11c0.031,0.068.006,0.006,0,.133a1.368,1.368,0,0,1,.306,0v0.443a0.388,0.388,0,0,1,.044.221H8.826a1.073,1.073,0,0,1,.044-0.487,1.073,1.073,0,0,0,.044.487V23.863a1.726,1.726,0,0,0,.044-0.974l-0.044-.133H8.869v0.133A0.228,0.228,0,0,1,8.913,23.021ZM40.284,23.2a5.509,5.509,0,0,1,1.092.177,2.251,2.251,0,0,0,.874-0.089,0.215,0.215,0,0,0-.044-0.133,3.62,3.62,0,0,0-1.879-.177,0.289,0.289,0,0,0-.044-0.177v0.4Zm13.37-.4v0.133a0.279,0.279,0,0,1,.175.044H53.654v0.177a0.456,0.456,0,0,1,.262.044H53.654v0.177a4.637,4.637,0,0,1,.481.044,0.939,0.939,0,0,1-.044-0.443A1.024,1.024,0,0,0,53.654,22.8Zm-43.648.044a0.1,0.1,0,0,1,.044.133C9.94,22.891,10.045,22.911,10.006,22.844Zm45.614,0a0.161,0.161,0,0,1,.044.089H55.62V22.844Zm-44.173.044a0.311,0.311,0,0,1-.044.354A1.528,1.528,0,0,1,11.447,22.888Zm44.129,0.044a0.161,0.161,0,0,1,.044.089H55.576V22.932ZM6.2,22.977a0.131,0.131,0,0,1,0,.177V22.977Zm0.131,0.886H6.51V23.774c-0.125-.2-0.044-0.6-0.175-0.8v0.886Zm4.369-.886a0.13,0.13,0,0,1,0,.177V22.977Zm42.862,0a0.289,0.289,0,0,0,.044.177A0.289,0.289,0,0,0,53.566,22.977Zm2.141,0a0.161,0.161,0,0,1,.044.089H55.707V22.977Zm-52.037.93H3.845V23.818c-0.125-.2-0.044-0.6-0.175-0.8v0.886Zm4.457-.886a0.289,0.289,0,0,0,.044.177A0.289,0.289,0,0,0,8.127,23.021Zm47.406,0a0.228,0.228,0,0,1,.044.133H55.533V23.021Zm-44.653.93h0.175V23.863c-0.125-.2-0.044-0.6-0.175-0.8v0.886Zm44.784-.886a0.161,0.161,0,0,1,.044.088H55.664V23.065Zm-44.173.044a0.4,0.4,0,0,1-.044.4Zm17.389,0c0.075,0.039.056,0.039,0.131,0H28.88Zm24.6,0a0.374,0.374,0,0,0,.044.221A0.375,0.375,0,0,0,53.479,23.11Zm-47.318.044a0.228,0.228,0,0,1,.044.133H6.161V23.154Zm4.5,0a0.131,0.131,0,0,1,0,.177V23.154Zm44.828,0a0.161,0.161,0,0,1,.044.089H55.489V23.154Zm0.131,0a0.229,0.229,0,0,1,.044.133H55.62V23.154Zm-2.053.044a0.216,0.216,0,0,0,.044.133V23.2H53.566Zm-45,.044H8.651v0.044A0.149,0.149,0,0,1,8.564,23.242Zm46.881,0a0.161,0.161,0,0,1,.044.089H55.445V23.242Zm-47.318.044v0.089H8.17A0.153,0.153,0,0,0,8.127,23.287Zm0.131,0c0.075,0.039.056,0.039,0.131,0H8.258Zm47.318,0a0.161,0.161,0,0,1,.044.089H55.576V23.287Zm-49.459.044a0.228,0.228,0,0,1,.044.133H6.117V23.331Zm4.5,0a0.227,0.227,0,0,1,.044.133H10.617V23.331ZM55.4,23.375a0.18,0.18,0,0,1,0,.221V23.375Zm0.131,0a0.228,0.228,0,0,1,.044.133H55.533V23.375ZM8.345,23.42v0.089C8.415,23.456,8.4,23.49,8.345,23.42Zm24.511,0.487a0.559,0.559,0,0,0-.306.044c0.535,0,.787-0.044,1.267-0.044a1.662,1.662,0,0,0,.044-0.487,8.416,8.416,0,0,0-.918.133c-0.039.107-.047,0.071-0.087,0.177A0.251,0.251,0,0,1,32.856,23.907ZM2.185,23.464c0.108,0.057.03-.019,0.087,0.088H2.228V23.6H2.185V23.464Zm3.889,0.044a0.228,0.228,0,0,1,.044.133H6.073V23.508Zm4.5,0a0.228,0.228,0,0,1,.044.133H10.574V23.508Zm-2.228.044c0.018,0.175-.019.175,0.087,0.222l0.044-.222H8.345Zm-2.316.089a0.131,0.131,0,0,1,0,.177V23.641Zm3.626,0.044c0.036,0.144-.021.068,0.087,0.133C9.745,23.659,9.786,23.775,9.656,23.685Zm0.874,0a0.229,0.229,0,0,1,.044.133H10.53V23.685ZM1,23.73v0.089H1.049V23.73H1Zm0.131,0c0.064,0.05.133,0.092,0.175,0.044H1.354V23.73H1.136Zm0.786,0v0.089c0.156-.018.11,0.021,0.175-0.089H1.922Zm0.218,0v0.089a0.547,0.547,0,0,0,.175-0.044V23.73H2.141Zm11.666,0.221h0.35V23.863l-0.131-.044a0.507,0.507,0,0,0-.218-0.089v0.221ZM2.49,23.774c0.1,0.1.015,0.048,0.175,0.044V23.774H2.49Zm0.218,0a0.126,0.126,0,0,0,.175,0H2.709Zm14.462,0.177V23.774a1.839,1.839,0,0,0-.655.133v0.044h0.655Zm-8.826-.088a0.157,0.157,0,0,0,.087.044A0.156,0.156,0,0,0,8.345,23.863Zm1.354,0a0.157,0.157,0,0,0,.087.044A0.156,0.156,0,0,0,9.7,23.863Zm1.4,0v0.088h0.044V23.863H11.1Zm6.335,0v0.088h0.044V23.863H17.433Zm0.568,0v0.088h0.044V23.863H18ZM7.777,26.874a0.723,0.723,0,0,0,.131.62c0.426,0.28,1.882.009,2.578,0V27.45H10.442V27.406Z" transform="translate(0 0.516)"/>
</svg>
