<svg xmlns="http://www.w3.org/2000/svg" width="80" height="40" viewBox="0 0 80 40">
  <defs>
    <style>
      .cls-1 {
        fill: #fff;
        fill-rule: evenodd;
      }
    </style>
  </defs>
  <path id="Color_Fill_1" data-name="Color Fill 1" class="cls-1" d="M5.891,28.1L3.705,27.82v0.095c0.451,0.3.283,1.357,0.1,1.9l-1.52-.095L1.9,27.82l0.475-.095-1.52-.284A8.676,8.676,0,0,0,0,23.46l0.19-.095h0.1a10.1,10.1,0,0,0,.76,1.706c-0.237.113-.093-0.061-0.19,0.19H1.14V24.692H2.66c-0.046-1.116-.42-1.414-0.475-2.464a2.4,2.4,0,0,1-1.615,0l-0.19-.853,0.1-.095a2.7,2.7,0,0,0,1.71-.379,4.612,4.612,0,0,1,.38,2.085,81.49,81.49,0,0,0,13.777-3.318l6.746-2.275c-0.3-1.134.773-1.6,1.235-2.37h0.095l0.19,1.8L40.1,14.36l10.261-2.18,0.1-.569a1.389,1.389,0,0,0,1.71,0l-0.38-1.517L52.067,10a3.486,3.486,0,0,0,.57,1.8l6.176,2.275c6.454,2.488,13.437,3.723,21,5.308l0.095-.948H80c0.025,2.967-1.069,9.065-2.66,10.237-1.768,1.3-4.645.29-7.316,0.853-3.433.723-8.394,0.379-12.447,0.379H16.057l-3.8-.948L5.7,29.337,5.511,30a2.841,2.841,0,0,0-.665-0.095,0.807,0.807,0,0,0-.38-0.758c0.364-.341.252-0.816,0.76-1.043l0.285,0.758h0.38V28.1ZM51.877,12.085l-0.475.19,0.095,0.19,0.76,0.474V12.559A0.553,0.553,0,0,0,51.877,12.085ZM53.3,14.834l-0.57.095,1.045,2.938a0.464,0.464,0,0,1,.475-0.19l0.095,0.19-0.19.853a2.78,2.78,0,0,0,1.52.095l-0.19-.284a0.688,0.688,0,0,0,.665-0.19q0.048-.758.095-1.517l-3.9-4.645c0.111,0.859.25,0.617,0.285,1.232l0.57-.095Zm-2.185-2.559,0.095,1.9,0.19-.095V12.465Zm15.107,9.289V21h1.33l0.285,0.663h3.23v0.284h-1.71l-1.33.19v0.095c3.8-.021,7.19-0.855,10.641-1.137v0.948h0.095l1.045-2.464c-10.163-1.191-18.376-4.806-26.888-7.3,1.363,1.867,6.263,6.24,6.081,8.626a4.993,4.993,0,0,1,1.33.189c0.082-.247-0.038-0.331.19-0.189l-0.19-.284c0.538,0.048.15,0.155,0.57-.19a1.661,1.661,0,0,0,1.71.379,2.566,2.566,0,0,1-.76.284c0.477,0.143.392,0.176,0.38,0.758a1.071,1.071,0,0,0-.855.19c0.165,0.511.581,0.439,1.235,0.379l3.515-.19c-0.72-.025-0.644-0.075-0.57-0.663h0.665ZM50.736,12.37l0.19,1.611Zm-0.38.095L41.71,14.455V14.55c3.024,0.59,5.756,2.274,9.121,2.844V16.256Zm1.33,0.284-0.1.948a1.257,1.257,0,0,1,.665-0.284A0.926,0.926,0,0,0,51.687,12.749ZM51.972,13.6l-0.38.474a1.078,1.078,0,0,0,.38,1.138V13.6Zm0.285,0q-0.047.853-.1,1.706h0.38Zm-0.95.758c0,0.29-.091.133,0.1,0.379ZM25.178,23.839l3.23-.095,0.38-.663,1.235-.095c0.116,0.72.429,0.5,0.855,0.948l-0.19.284-0.475.095,2,0.095c0.087,0.346,0,.194.19,0.379-0.119-1.212,5.7-.605,6.746-0.569l-0.095-.284-0.475-.758h-0.1l-0.095.663H38.29a2.017,2.017,0,0,1,.19-1.422h1.425V22.133a6.309,6.309,0,0,1-1.235-.284,2.734,2.734,0,0,0,2-.474,6.371,6.371,0,0,0,3.705,0,0.723,0.723,0,0,1,.19.569l0.475-.095V21.374c-0.218-.5-4.137-6.811-4.181-6.825l-10.641,1.9c-1.03,2.676-3.238,4.338-5.036,6.256v1.137Zm16.247-9.194c0.872,2.015,1.9,4.473,3.42,5.877l-0.19-.853a1.447,1.447,0,0,0,.57-0.379A2.257,2.257,0,0,1,45.891,19l0.285,0.474c0.025-.5-0.022-0.457.285-0.663l0.475-.19a0.944,0.944,0,0,0,.665.474l0.285,2.275h0.095l0.19-.095V20.806h3.135a2.916,2.916,0,0,1-1.71-2.749,1.28,1.28,0,0,0,1.14,0V18.91a0.849,0.849,0,0,1-.475-0.19L50.356,19h0.665l-0.19-1.422H50.546l-5.986-1.706Zm9.881,0.284,0.1,1.137Zm0.285,0.19v2.464h0.285V16.161A0.8,0.8,0,0,0,51.591,15.119Zm0.76,0.664v0Zm-0.285.095q0.048,0.9.095,1.8A3.431,3.431,0,0,0,52.067,15.877Zm-28.028.095-0.665.664,0.665,0.189,0.19-.189Zm28.694,0v0Zm-0.38.095v0Zm0.19,0.095,0.095,0.474Zm-27.934.948,0.475,5.4,0.57-.569c1.83-.883,3.415-3.709,4.371-5.5Zm27.743-.664v0Zm0.475,0.095v0.379h0.095Zm-29.549.19v0.284l0.19,0.19,0.57-.19Zm29.074,0.095v0Zm0.665,0.095c-0.109.72-.142,2.7,0.475,3.033,0.038-.31-0.018-0.158.285-0.19a1.45,1.45,0,0,1-.38-1.043C53.718,18.49,53.348,17.387,53.017,16.919Zm-0.38.095,0.095,0.664Zm3.9,0.095-0.19,1.706h0.38V17.3Zm-32.4.095-0.76.284,0.38,3.033,0.095-.284a4.081,4.081,0,0,1,.285-2.37c-0.47-.077-0.283.063-0.475-0.284l0.665,0.095Zm32.684,2.18,1.9,0.284-0.475-.474-1.33-1.611Zm-35.63,4.929a3.664,3.664,0,0,1,0-1.8,1.676,1.676,0,0,0,1.71-.284,0.555,0.555,0,0,0,.665.379V21.943l-0.475-4.265h-0.1l-4.941,1.611v0.095l1.71,4.834Zm30.4-6.54,0.1,1.043h0.095A1.336,1.336,0,0,0,51.591,17.773Zm0.285,2.749h0.76c-0.006-.737.029-2.444-0.475-2.749l-0.19.095Q51.924,19.194,51.877,20.521Zm0.76-2.749v0.284l0.095-.284H52.637ZM23.943,21h0.665l-0.38-3.128C24.232,19.494,23.98,19.716,23.943,21Zm28.694-2.844v0.284l0.095-.284H52.637Zm0,0.379v0Zm3.42,0.19v0Zm-9.406.095,0.285,0.095Zm5.986,0V19.1l0.095-.284H52.637Zm0.95,0L53.682,19l0.095-.189h-0.19Zm0.57,0c0.266,0.175.013,0.068,0.38,0.095Zm2.185,0.095v0Zm0.285,0v0.284l0.095-.284H56.627Zm-3.04.189,0.19,0.284,0.095-.284H53.587Zm-8.076.095c0.223,0.2-.011.042,0.285,0.095V19.194H45.511Zm4.846,0,0.38,1.043,0.475,0.19-0.19-1.232H50.356Zm2.28,0,0.19,0.19A0.361,0.361,0,0,0,52.637,19.194Zm-7.316.095-0.1.19,0.19-.19H45.321Zm6.271,0,0.1,1.232A2.568,2.568,0,0,0,51.591,19.289ZM6.176,25.166h0.57l0.1-1.043a1.542,1.542,0,0,1-1.14-.19c0.737,0.05,1.252.063,1.52-.379,0.64,0.21.31,0.2,0.95,0.379l-0.1.19-0.38.095v0.095h0.57v0.474l0.57-.379,0.285,0.569-0.38.095h0.19v0.19l0.285-.095V24.123a17.028,17.028,0,0,1,3.61.474V24.123l0.95,0.095-0.1.663,0.76-.474a0.487,0.487,0,0,0,.285.379c-0.188.343-.28,0.267,0.095,0.379V24.123l0.855-.095c-0.551.014-.582-0.059-0.665-0.19a2.155,2.155,0,0,0,1.71-.379c0.192,0.379.262,0.525,0.665,0.379l-0.285.379,0.76-.095v1.043l0.38-.095V24.976c-0.373-.277-0.206-0.078,0-0.474,0.532,0.086.4-.182,1.425-0.19l-1.805-4.929a80.054,80.054,0,0,1-15.2,3.791l0.57,1.517h1.14l0.1,0.569,0.38-.095a2.786,2.786,0,0,1,.665-0.758,2.352,2.352,0,0,0,.475.758h0.1l0.1-.853v0.853Zm46.556-5.592v0Zm0.19,0.19v0.284l0.095-.284H52.922Zm-0.19.095v0Zm2.755,0.663h0.475V19.858l-0.665.095A0.948,0.948,0,0,1,55.487,20.521Zm0.76-.663-0.19.663h0.285l0.19-.095V19.858H56.247Zm-3.04.284v0.379l0.285-.095Zm26.508,0-0.76,1.8H79.24c0.215-.23.115-0.1,0.475-0.19V20.142Zm-32.3.19v0Zm3.9,0.758h-2.85a3.219,3.219,0,0,0,.76,1.043,4,4,0,0,0,2.09-.284V21.09Zm-27.458.095v1.422c0.165-.3.34-0.224,0.95-0.189l-0.1-1.232H23.848Zm35.059,0v0.379l0.19-.379h-0.19Zm0.665,0v0.379h0.19C59.676,21.218,59.766,21.37,59.572,21.185Zm0.38,0v0.379h0.095Zm0.285,0c0.1,0.464.013,0.146,0.285,0.379V21.185H60.238Zm1.14,0a0.7,0.7,0,0,0,.38.379h0.095V21.185H61.378Zm0.57,0v0.379l0.19-.379h-0.19Zm15.3,0.284v0.758l1.235-.19V21.28H78.385Zm-0.76.095-0.665.095v0.284l1.33-.284Zm-24.133.095v0.663h0.57l0.57-.284V21.943Zm6.556,0.758,0.475-.095L59,22.133h0.285a1.215,1.215,0,0,1,.19-0.379H59l-0.19.095Zm0.95-.664,0.095,0.19,0.095-.19h-0.19Zm15.3,0-0.855.19v0.19l1.33-.284ZM41.9,22.417V21.848H41.14l-0.095.19,0.095,0.284Zm1.045-.569v0.284l1.045,0.095V21.848H42.945Zm5.606,0a0.5,0.5,0,0,0,.38.379Zm11.877,0.095-0.19.095S60.633,22,60.428,21.943Zm13.207,0-0.95.19v0.474h0.095a1.623,1.623,0,0,1,1.425-.284V21.943h-0.57Zm-33.539.19v0Zm0.19,0c0.128,0.254.22,0.277,0.285,0H40.285Zm7.7,0,0.19,0.095Zm23.753,0a1.345,1.345,0,0,0-.285.284h0.095l1.045-.19Zm-1.045.095-0.665.19v0.095h0.665l0.665-.19Zm-27.743.095V22.7h0.38V22.322h-0.38Zm0.475,0v0.284l0.38-.189V22.322H43.42Zm1.52,0L45.036,22.7h0.095C45.044,22.355,45.134,22.508,44.941,22.322Zm14.537,0h0Zm9.691,0-0.57.19v0.095h0.665l0.57-.189Zm-25.178.095L43.9,22.7C44.026,22.5,44.069,22.65,43.991,22.417Zm24.038,0c0.216,0.2.1,0.158,0.38,0.095Zm-5.131.189-0.1.569a4.226,4.226,0,0,1,1.615,0V22.512Zm1.615-.095L64.608,22.8l0.95-.19Zm1.235,0a0.4,0.4,0,0,0,.57.095Zm-6.366.095h0Zm0.855,0L60.523,22.7Zm1.14,0h0Zm9.691,0-0.475.19,0.285,0.095a0.985,0.985,0,0,0,.475-0.284H71.069Zm-1.14.095v0.284l0.38-.19V22.7h-0.38Zm-17.007.474,0.19,0.095Zm-1.615.948a0.684,0.684,0,0,0-.19-0.663,2.545,2.545,0,0,0-2,0h0.19A2.968,2.968,0,0,0,51.306,24.123ZM39.24,23.365c0.219,0.486.056,0.842,0.76,0.853l0.095-.19L40,23.839Zm12.922,0v0.379h0.19C52.265,23.4,52.355,23.55,52.162,23.365Zm0.475,0.095v0.19C52.729,23.484,52.723,23.628,52.637,23.46Zm-31.069.379v0.379h0.1Zm-18.812.095,0.19,0.758h0.1Zm22.518,0.095a0.361,0.361,0,0,0,.19.19h2.85Zm11.686,0-0.095.19h0.19Zm-29.739.095-0.19.095L7.6,24.313l-0.1-.19H7.221Zm8.551,0v1.043h0.1l0.19-.095A1.016,1.016,0,0,0,15.772,24.123Zm1.14,1.043V24.218h-0.19l-0.38-.095-0.095.095V24.6c0.339,0.048.3-.085,0.475,0.379a0.334,0.334,0,0,0-.285.19h0.475ZM7.031,24.5a1.135,1.135,0,0,0,1.14.095Zm3.23,0a3.112,3.112,0,0,0,2.09.095Zm8.646,0a0.508,0.508,0,0,0,.855,0H18.907Zm1.045,0a0.491,0.491,0,0,0,.665.095Zm0.855,0c0.215,0.2.1,0.158,0.38,0.095Zm4.656,0v0Zm0.19,0a0.845,0.845,0,0,0,.95.095Zm1.045,0a1.51,1.51,0,0,0,1.615,0H26.7Zm3.326,0,0.095,0.189C30.079,24.6,30.195,24.628,30.024,24.5Zm0.38,0a2.167,2.167,0,0,0,1.615.095Zm8.646,0-1.805.284v0.095h0.19v0.19H39.05V24.5Zm0.38,0,0.095,0.474,0.1-.19,0.19-.284H39.43Zm-36.58.284v0.379h0.1Zm6.461,0L9.5,24.882Zm0.285,0,0.19,0.095Zm3.515,0,0.19,0.095Zm1.805,0,0.19,0.095Zm0.285,0,0.19,0.095Zm0.285,0,0.19,0.095Zm1.52,0,0.19,0.095Zm0.285,0,0.19,0.095Zm-16.057.095,0.19,0.379,0.19-.379H1.235Zm0.475,0,0.38,0.19C1.9,24.875,2.055,24.973,1.71,24.882Zm0.475,0,0.19,0.379,0.19-.379H2.185Zm0.475,0v0.284l0.1-.284H2.66Zm0.665,0v0Zm0.285,0c0.223,0.2-.011.042,0.285,0.095V24.882H3.61Zm6.746,0v0.379l0.1-.284,0.19-.095H10.356Zm22.233,0-0.095.19,0.38,0.095V24.882H32.589Zm0.76,0-0.1.19,1.235,0.095V25.071Zm-30.214.095v0Zm5.131,0v0.284l0.285-.284H8.266Zm31.449,0-0.1.284H40V25.166H39.81ZM9.5,25.071l-0.1.19,0.475-.095Zm5.606,0,0.38,0.095Zm2,0c0.207,0.176.017,0.072,0.475,0.095ZM2.565,27.725h0Zm3.9,0.474-0.095.474,0.095,0.19,3.8-.19Z"/>
</svg>
