<svg xmlns="http://www.w3.org/2000/svg" width="80" height="40" viewBox="0 0 80 40">
  <defs>
    <style>
      .cls-1 {
        fill: #fff;
        fill-rule: evenodd;
      }
    </style>
  </defs>
  <path id="Color_Fill_1" data-name="Color Fill 1" class="cls-1" d="M54.489,12.728h0.578l0.1,1.223H54.777a0.448,0.448,0,0,0-.1-0.282v0.094a0.473,0.473,0,0,0-.1.282c0.276,0.044.214,0.483,0.193,1.035a21.642,21.642,0,0,1,.578,3.292,0.634,0.634,0,0,1,.385.094H55.451V19.03h0.481a15.607,15.607,0,0,1,.193-1.6,0.414,0.414,0,0,1-.289-0.282h0.1a0.5,0.5,0,0,0,.289.094l0.1-.564a1.057,1.057,0,0,1-.289-0.188h0.289a0.542,0.542,0,0,1,0-.376V16.02a0.331,0.331,0,0,1,.192.094,0.623,0.623,0,0,1,.1.376,0.514,0.514,0,0,0,0,.752,0.534,0.534,0,0,1,.193-0.564c0.681-.542,1.34.18,1.637,0.282a4.518,4.518,0,0,1,.963.094c-0.312.078-.147-0.046-0.289,0.188h0.1c0.236,0.191.14-.115,0.289,0.188a0.526,0.526,0,0,1-.1.658h0.193l1.733,0.282v1.223a1.04,1.04,0,0,0-.481.846h0.289l-0.1,1.223a48.08,48.08,0,0,1,4.813-.094V20.629h0.1V20.535a10.9,10.9,0,0,1,3.466-.188,0.985,0.985,0,0,1,.193.47c0.809,0.031,1.758.092,2.7,0.094V21.1H70.469a0.5,0.5,0,0,1-.289.094v0.282c3.158,0.028,5.8-.625,8.857-0.658-0.015-.724-0.2-2.276.1-2.728-0.009,1.258,0,1.462,0,2.634A1.01,1.01,0,0,1,80,21.757c-1.009.726-.713,2.255-1.155,3.574a4.741,4.741,0,0,1-2.6,2.728c-1.321.553-3.248-.085-4.91,0.282a26.227,26.227,0,0,1-4.91.094H13.285A8.856,8.856,0,0,0,11.36,27.5a18.119,18.119,0,0,0-4.428.47l-1.444.094C5.1,28.3,5.683,28.806,4.813,29a1.4,1.4,0,0,0-.289-0.282V28.059a1.583,1.583,0,0,1-.289-0.282,1.912,1.912,0,0,0,.385-1.129,3.819,3.819,0,0,1-.866-0.094v0.188a1.312,1.312,0,0,1-.193,1.129,3.266,3.266,0,0,1-1.348.094l-0.1-.282a1.116,1.116,0,0,1,.1-1.317H1.54a2.8,2.8,0,0,0-1.252-.188A6,6,0,0,1,.1,23.827c-0.068-.145-0.012-0.013,0-0.282h0.1V23.451l0.193,0.094V23.451h-0.1c-0.1-.1.095-0.093,0.1-0.094a4.166,4.166,0,0,1,1.637-.094,0.6,0.6,0,0,1,.1-0.376v0.376c0.835,0,1.067-.015,1.829,0A0.96,0.96,0,0,0,3.658,22.6H3.851c0.1,0.175.2,0.36,0.289,0.564H4.428a1.17,1.17,0,0,1-.1.376H4.525a2.3,2.3,0,0,1,.77,0V22.98H5.487l0.1,0.564a1.361,1.361,0,0,1,.578.188,1.323,1.323,0,0,1,.1-0.47H6.45c0.017,0.407.085,0.444,0.193,0.47a8.194,8.194,0,0,0,3.081,0,2.8,2.8,0,0,1,.1-0.658H10.4a0.27,0.27,0,0,0,.1.094,1.63,1.63,0,0,0,0,.658h0.1V23.733a0.736,0.736,0,0,1,.289-0.282,1.167,1.167,0,0,0,.1.376,0.333,0.333,0,0,0,.193-0.094A4.163,4.163,0,0,0,11.36,22.7a12.2,12.2,0,0,1-2.214-.282,19.776,19.776,0,0,1,2.792-.094V22.228c-0.068-.145-0.012-0.013,0-0.282a0.364,0.364,0,0,0,.193-0.282c0.292,0.191.285,0.223,0.578,0,0.175,0.263.259,0.186,0.481,0,0.127,0.193-.072.127,0.193,0.188,0.02-.132-0.079.038-0.1-0.094-0.185-.073.193-0.094,0.193-0.094a14.374,14.374,0,0,0,2.214.376,6.936,6.936,0,0,1-.1,1.411,5.274,5.274,0,0,0-1.251.188,0.349,0.349,0,0,0,.192.094,2,2,0,0,0,1.059.094c0.28-.061,1.531.2,2.022-0.188a1.707,1.707,0,0,1-1.348-.282,2.5,2.5,0,0,1-.1-1.129c1.026-.409,1.45-0.2,2.407-0.564,0.02,0.132-.079-0.038-0.1.094-0.185.073,0.193,0.094,0.193,0.094V21.663a0.4,0.4,0,0,0,.385.188V21.663H19.35a1.4,1.4,0,0,0,1.444.658,5.37,5.37,0,0,0,2.022.094l-0.1-.752H23.2a1.45,1.45,0,0,1,.1.47c-0.245.137-.109-0.021-0.192,0.282h0.963a33.837,33.837,0,0,1,.289-5.361c0.075-.6-0.472-0.837-0.1-1.411l1.155,6.772H25.7a2.676,2.676,0,0,0-.193-0.752h0.578l-0.1.752h1.059V22.228a3.3,3.3,0,0,1-.289-0.47c0.581,0,.6-0.085.578-0.658-0.243-.138-0.149-0.041-0.193-0.376h0.1V20.629h0.193v0.188c0.068,0.145.012,0.013,0,.282,0.3,0,.129-0.159.289,0.094-0.361.163-.217,0.1-0.192,0.564a1.559,1.559,0,0,1,.578.188c-0.52.184-.411,1.173-0.385,1.881h0.193c0.153-.253,1.268-0.025,1.829,0l0.1-.188a3.238,3.238,0,0,0-.963-0.094,1.3,1.3,0,0,0-.674-0.094,1.853,1.853,0,0,1,.1-0.658,0.77,0.77,0,0,0,.481,0,0.638,0.638,0,0,1,.289-0.564s2.563-.413,2.792-0.188a2.106,2.106,0,0,0,.481.376c-0.16.273-.1,0.039-0.1,0.47h0.481V22.792a0.889,0.889,0,0,1-.385-0.282c0.3,0,.129.159,0.289-0.094a0.473,0.473,0,0,1-.1-0.282,5.765,5.765,0,0,1,2.214-.188V21.663a0.822,0.822,0,0,1-.481-0.094,0.67,0.67,0,0,0,.193-0.752h0.674V20.629a0.784,0.784,0,0,1-.193-0.752l0.289-.094a0.85,0.85,0,0,1,.481-0.094,3.028,3.028,0,0,1,.1.941,0.366,0.366,0,0,0-.289.188h0.77a1.3,1.3,0,0,0,.674.094c-0.019-.6-0.477-1.658-0.289-1.975a1.844,1.844,0,0,1,.866-0.188V18.465a2.313,2.313,0,0,0,.963.094,0.448,0.448,0,0,0,.1.282,0.581,0.581,0,0,1,.192-0.188v0.282a4.21,4.21,0,0,0,.385,1.975l0.1-.282c0.518,0.194,1.437.235,1.637,0.376a0.479,0.479,0,0,0-.289.47h0.1a8.956,8.956,0,0,1,2.984-.282c0.191,0.16.294,0.743,0.481,0.846h2.118V21.287h0.1V21.193a1.527,1.527,0,0,0,.77-0.094,6.162,6.162,0,0,1-2.214-.47,16.337,16.337,0,0,1,2.31.376,7.838,7.838,0,0,1,.1-1.975H47.172v0.094h-0.1V18.748h0.193a0.32,0.32,0,0,0,.1.188c0.228-.722.794-0.132,1.059-1.129,0.227,0.06.092,0.139,0.193,0.188,0.345,0.168.541-.539,0.963-0.094a3.392,3.392,0,0,1,.289,1.317c1.006,0.216,2.174.8,3.177,0.658,0.037,0.238-.056.148,0.289,0.188a0.35,0.35,0,0,0,.193.094V19.876H53.141a3.569,3.569,0,0,1,.1-0.847h0.385c0-2.139.691-4.65,0.385-6.584,0.252-.036.126,0.07,0.193-0.188A5.283,5.283,0,0,1,53.911,10a2.077,2.077,0,0,0,.481,1.5,1.059,1.059,0,0,0-.192.564,5.4,5.4,0,0,0,.289,1.129v-0.47Zm-1.444-.753h0.193v0.094A0.332,0.332,0,0,1,53.045,11.975Zm0.193,0.094,0.385,0.094v0.094A0.384,0.384,0,0,1,53.237,12.069Zm0.385,0.188h0.193v0.094A0.333,0.333,0,0,1,53.622,12.257Zm0.193,0.094h0.192v0.094A0.332,0.332,0,0,1,53.815,12.352ZM54.1,14.421h0.385a3.264,3.264,0,0,0-.289-1.6Zm-0.193,2.634h0.481a7.162,7.162,0,0,0,.1-1.975h0.1v1.975h0.289l-0.289-2.446a1.407,1.407,0,0,1-.481-0.094v0.564A5.291,5.291,0,0,0,53.911,17.055Zm4.428-1.411a0.336,0.336,0,0,1,.1.188h-0.1V15.644Zm0,0.282a0.621,0.621,0,0,1,0,.658V15.926Zm-4.428,1.223L53.718,19.03h1.637V18.842c-0.066-.073-0.126-0.21-0.192-0.282a0.6,0.6,0,0,1-.1.376,10.986,10.986,0,0,1-.193-1.787H53.911ZM24.26,19.594h0.481a4.764,4.764,0,0,0-.385-2.163Zm-0.289-1.411h0.193v0.094A0.332,0.332,0,0,1,23.971,18.183Zm32.058,0.282a1.43,1.43,0,0,0,.1.753A1.429,1.429,0,0,0,56.029,18.465Zm-18.869.094a0.473,0.473,0,0,1,.289.094A0.473,0.473,0,0,1,37.16,18.559Zm10.2,0.753a0.448,0.448,0,0,0,.1.282A0.448,0.448,0,0,0,47.365,19.312ZM51.7,21.663H53.43V21.475c-0.218.038-.1,0.086-0.289,0a0.8,0.8,0,0,1-.1-0.47,0.48,0.48,0,0,0,0-.47,0.822,0.822,0,0,0,.481-0.094,3.164,3.164,0,0,0-1.348-.188c-0.037-.238.056-0.149-0.289-0.188a9.8,9.8,0,0,0-1.925-.564v0.47a2.136,2.136,0,0,1,.192.658,4.93,4.93,0,0,1,1.155,0v0.094H51.119c-0.071.082-.121,0.106-0.193,0.188a0.736,0.736,0,0,0,.289.282,1.064,1.064,0,0,1,.578-0.094v0.188A0.624,0.624,0,0,0,51.7,21.663ZM24.26,19.688q-0.048,1.364-.1,2.728h0.1V22.228a7.048,7.048,0,0,0,.193-0.941h0.385c0.14,0.239-.021.106,0.289,0.188l-0.289-1.787H24.26Zm23.2,0.094a1.29,1.29,0,0,0,.192.658A0.96,0.96,0,0,0,47.461,19.782Zm20.89,0.094a0.338,0.338,0,0,1,.1.188h-0.1V19.876Zm-12.226.752V20.347a1.232,1.232,0,0,1-.578-0.376,4.772,4.772,0,0,0-1.829.188v0.094h0.289c0.144-.157.07-0.1,0.193-0.094h0.1l-0.1.188h0.1C54.441,20.269,55.5,20.617,56.125,20.629Zm-0.289-.658a0.35,0.35,0,0,0,.193.094A0.35,0.35,0,0,0,55.836,19.97Zm-3.851.282h0.193v0.094A0.332,0.332,0,0,1,51.986,20.253Zm-50.253.094a0.473,0.473,0,0,1,.1.282h-0.1V20.347Zm40.722,0a2.07,2.07,0,0,1,.963.094A2.07,2.07,0,0,1,42.455,20.347Zm9.242,0a0.473,0.473,0,0,1,.289.094H51.793c-0.166.083-.123,0.084-0.289,0A0.331,0.331,0,0,0,51.7,20.347Zm-9.819.094a0.82,0.82,0,0,1,.481.094A0.822,0.822,0,0,1,41.877,20.441Zm1.637,0a1.526,1.526,0,0,1,.77.094A1.527,1.527,0,0,1,43.514,20.441Zm10.108,0v0.188a0.633,0.633,0,0,0,.385-0.094Zm-12.13.094a0.633,0.633,0,0,1,.385.094A0.633,0.633,0,0,1,41.492,20.535Zm2.792,0a1.272,1.272,0,0,1,.674.094A1.272,1.272,0,0,1,44.284,20.535Zm7.028,0H51.5v0.094A0.332,0.332,0,0,1,51.312,20.535ZM41.3,20.629h0.193v0.094A0.333,0.333,0,0,1,41.3,20.629Zm-39.47.094a0.926,0.926,0,0,1,0,.846V20.723Zm39.278,0H41.3v0.094A0.332,0.332,0,0,1,41.107,20.723Zm-0.193.094h0.193v0.094A0.332,0.332,0,0,1,40.915,20.817Zm20.313,0.094H61.42l-0.1.282h-0.1V20.911Zm17.329,0-6.45.658v0.188c1.45-.429,3.589-0.126,5.391-0.564,0.659-.16,1.234.206,1.54-0.282H78.556Zm0.578,0V21.1A0.633,0.633,0,0,0,79.519,21ZM40.144,21l0.1,0.188c-0.306.141-.307-0.226-0.385,0.188h0.1v0.094a1.465,1.465,0,0,1,.385-0.188c0.037,0.246-.072.123,0.193,0.188V21.287a0.333,0.333,0,0,1-.193-0.094c0.238-.122.066,0.04,0.193-0.188H40.144Zm-9.819.094a2.353,2.353,0,0,1,1.059.094A2.352,2.352,0,0,1,30.325,21.1Zm-0.674.094a1.036,1.036,0,0,1,.578.094A1.036,1.036,0,0,1,29.651,21.193Zm1.829,0a1.793,1.793,0,0,1,.867.094A1.794,1.794,0,0,1,31.48,21.193Zm5.006,0a0.448,0.448,0,0,0,.1.282A0.448,0.448,0,0,0,36.486,21.193Zm42.647,0a0.448,0.448,0,0,1-.1.282,7.806,7.806,0,0,0-3.466.188,0.336,0.336,0,0,1,.1.188c0.6-.39,2.865-0.287,3.947-0.282V21.193H79.134Zm-49.868.094a0.633,0.633,0,0,1,.385.094A0.633,0.633,0,0,1,29.266,21.287Zm3.081,0a1.273,1.273,0,0,1,.674.094A1.273,1.273,0,0,1,32.347,21.287Zm28.881,0a0.337,0.337,0,0,1,.1.188h-0.1V21.287Zm-48.135.094a0.337,0.337,0,0,1,.1.188h-0.1V21.381Zm15.788,0a0.473,0.473,0,0,1,.289.094A0.471,0.471,0,0,1,28.881,21.381Zm4.14,0a1.037,1.037,0,0,1,.578.094A1.036,1.036,0,0,1,33.021,21.381Zm-4.332.094h0.193v0.094H28.688V21.475Zm5.006,0a1.037,1.037,0,0,1,.578.094A1.036,1.036,0,0,1,33.694,21.475Zm19.928,0c0.027,0.243-.045.167,0.385,0.188V21.475H53.622Zm0.578,0v0.188h0.578V21.569h0.1V21.475H54.2Zm0.866,0c0.037,0.246-.072.123,0.192,0.188V21.475H55.066Zm0.385,0v0.188h0.578V21.475H55.451Zm-53.526.094a1.577,1.577,0,0,1,0,1.129,2.589,2.589,0,0,0-.193-1.035A0.333,0.333,0,0,0,1.925,21.569Zm26.474,0a0.472,0.472,0,0,1,.289.094A0.472,0.472,0,0,1,28.4,21.569Zm13.285,1.505V22.7l-1.54-.094V22.04l0.481-.094V21.852h0.1V21.569a0.821,0.821,0,0,0-.481.094,0.658,0.658,0,0,0-.578.846A5.1,5.1,0,0,0,41.685,23.074ZM71.24,21.569a2.1,2.1,0,0,1-.963.094v0.188H71.24a0.98,0.98,0,0,0,.481-0.282H71.24Zm3.851,0c0.007,0.21-.021.067,0.192,0.094V21.569H75.09Zm-46.883.094H28.4v0.094H28.207V21.663Zm7.605,0c0.08,0.305-.047.144,0.193,0.282A0.357,0.357,0,0,0,35.812,21.663Zm38.8,0c-0.083.061-.3,0.126-0.385,0.188h0.481A0.32,0.32,0,0,0,74.609,21.663Zm-38.123.094v0.188h0.1V21.757h-0.1Zm26.763,0v0.188h0.866V21.757H63.249Zm1.444,0v0.188h0.193V21.757H64.693Zm0.674,0v0.188h0.481V21.757H65.367Zm7.8,0v0.188h0.192a0.453,0.453,0,0,1,.481,0V21.757H73.165Zm2.792,0a0.394,0.394,0,0,0,.481,0H75.957ZM15.5,21.852h0.193v0.094A0.332,0.332,0,0,1,15.5,21.852Zm9.627,0v0.564h0.192V22.322C25.252,22.227,25.2,21.946,25.126,21.852Zm26.57,0a3.621,3.621,0,0,1-.578.47h0.1a0.388,0.388,0,0,0,.385.188c0.31-.432,1.425.058,1.733-0.376H51.7V22.04a6.276,6.276,0,0,0,1.733-.094V21.852H51.7Zm1.829,0V22.04h0.481V21.852H53.526Zm0.77,0a0.68,0.68,0,0,0,.963,0H54.3Zm1.155,0V22.04h0.578V21.852H55.451Zm16.655,0a0.661,0.661,0,0,0,.674,0H72.106Zm-1.733.094a3.65,3.65,0,0,1-.578.188v0.094h0.1a1.064,1.064,0,0,0,.578.094,2.3,2.3,0,0,0,1.155-.376A11.092,11.092,0,0,1,70.373,21.946Zm3.851,0a0.35,0.35,0,0,0,.193.094A0.35,0.35,0,0,0,74.224,21.946Zm-10.3.094a1.3,1.3,0,0,1-.674.094v0.188h0.866V22.134Zm0.578,0c0.08,0.305-.047.144,0.192,0.282V22.04H64.5Zm0.866,0-0.1.282H67.1V22.228h0.1V22.134H66.811A3.564,3.564,0,0,0,65.367,22.04Zm6.931,0v0.188a1.37,1.37,0,0,0,.77-0.188H72.3Zm0.867,0a0.35,0.35,0,0,0,.192.094A0.35,0.35,0,0,0,73.165,22.04Zm-70.181.094a0.366,0.366,0,0,1,.289.188h0.1v0.094A0.519,0.519,0,0,1,2.984,22.134ZM46.4,22.792V22.134H46.209c-0.491.386-1.788,0.019-2.118,0.564,0.117,0.167,0,.165.1,0.282a0.85,0.85,0,0,0,.481.094A4.094,4.094,0,0,1,46.4,22.792Zm7.124-.658v0.188h0.193V22.134H53.526Zm0.674,0v0.188h1.059V22.134H54.2Zm1.252,0v0.188c0.345-.039.242,0.044,0.385-0.188H55.451Zm7.124,0c-0.1.065-.385,0.121-0.481,0.188a8.325,8.325,0,0,1,.963,0V22.134H62.575Zm2.407,0v0.188h0.1V22.134h-0.1Zm-18.291.094c0.08,0.305-.047.144,0.193,0.282V22.322h0.1V22.228H46.691Zm-43.321.188L3.658,22.51V22.6A0.366,0.366,0,0,1,3.369,22.416Zm18,0.094a5.364,5.364,0,0,1-1.251.282V22.98a1.6,1.6,0,0,1,.193.564l-0.481.094v0.094c0.431,0.044.74,0.058,1.059,0.094V23.262a0.624,0.624,0,0,1-.1-0.376A2.274,2.274,0,0,1,21.95,22.7a0.4,0.4,0,0,0,.481-0.188H21.372Zm11.649,0.658v0.564a9.792,9.792,0,0,1,1.829.094V23.168a0.623,0.623,0,0,0,.1-0.376,5.328,5.328,0,0,0-2.022.094,3.824,3.824,0,0,1,1.54.094h-0.1A2.182,2.182,0,0,1,33.021,23.168ZM5.776,22.98H5.969a0.56,0.56,0,0,0,0,.47H5.68V23.356A0.623,0.623,0,0,0,5.776,22.98ZM32.25,23.827h0.578l0.1-.564a3,3,0,0,0-.674.094v0.47Zm-29.17-.282c0.037,0.238-.056.148,0.289,0.188V23.639Zm0.578,0v0.188H3.947V23.545H3.658Zm7.8,0v0.188h0.193V23.545H11.456Zm-11.167.094a0.394,0.394,0,0,0,.481,0H0.289Zm0.578,0a0.818,0.818,0,0,0,.77,0H0.866Zm1.059,0a0.35,0.35,0,0,0,.193.094A0.35,0.35,0,0,0,1.925,23.639Zm3.562,0a0.286,0.286,0,0,0,.385,0H5.487Zm4.428,0.094a0.286,0.286,0,0,0,.385,0H9.916ZM5.872,27.5V26.931h-0.1V26.837L4.91,26.743v0.094h0.1A1.009,1.009,0,0,0,5.872,27.5Zm0.481-.564a1.448,1.448,0,0,0-.1.47,8.06,8.06,0,0,0,2.118.094c0.294-.174,1.056-0.01,1.348-0.188Z" transform="translate(0 0.5)"/>
</svg>
