<svg xmlns="http://www.w3.org/2000/svg" width="80" height="40" viewBox="0 0 80 40">
  <defs>
    <style>
      .cls-1 {
        fill: #fff;
        fill-rule: evenodd;
      }
    </style>
  </defs>
  <path id="Color_Fill_1" data-name="Color Fill 1" class="cls-1" d="M52.608,9.677c0.168,0.043.079-.026,0.155,0.1-0.289.129-.07,1.148-0.052,1.563h0.1c0.068-.175.08-0.151,0.311-0.156a0.815,0.815,0,0,1-.052.469,1.3,1.3,0,0,1-.259-0.1c-0.035-.04-0.068-0.116-0.1-0.156a3.364,3.364,0,0,0,.1,1.2V12.074h0.466v1.042H52.816v0.1a0.746,0.746,0,0,1,.362.1,0.149,0.149,0,0,1-.052.052,0.338,0.338,0,0,1-.259.156v0.208a0.333,0.333,0,0,1,.207.052H52.867l0.052,1.146H52.764l0.362,6.774h0.363c0-.954.059-1.288,0.052-2.241H53.23c-0.005-.27-0.165-0.226-0.207-0.573a0.771,0.771,0,0,0,.1-0.365H54.11a0.923,0.923,0,0,1,.1-0.521,1.437,1.437,0,0,0,.311.313,0.321,0.321,0,0,0-.1.209H55.3a0.147,0.147,0,0,0,.052.052l0.1,0.521a0.565,0.565,0,0,0-.155.1h0.828a2.668,2.668,0,0,0,.932.052c0.494,0.028,1.008.107,1.553,0.1-0.025.593,0,1.149,0,1.824H58.149c0,0.772,0,1.422,0,2.084l-0.466.052v1.824c0.867,0,1.542-.1,2.278-0.052a2.808,2.808,0,0,1,.052-0.521c-0.641,0-1.214,0-1.916.052l-0.052-.156a0.614,0.614,0,0,1,0-.469,0.937,0.937,0,0,1,.414,0c0.035-.016.132-0.148,0.155-0.156,0.177-.063.157,0.078,0.207,0.1a5.129,5.129,0,0,0,.673,0h0.155v-0.1c0.067-.082.052,0.1,0.052,0.1h0.311a6.14,6.14,0,0,1,1.916,0v-0.1H61.515V23.8a0.8,0.8,0,0,0,.414-0.052,1.388,1.388,0,0,0,.207-0.365,0.249,0.249,0,0,1-.155-0.052,0.667,0.667,0,0,1,.362.052H62.188v0.156a0.249,0.249,0,0,1,.155.052,0.284,0.284,0,0,0,.1.365v0.052H62.5V23.851a0.249,0.249,0,0,1,.155.052,0.189,0.189,0,0,0-.052.1h0.88c0-.151-0.05-0.072,0-0.156a1.152,1.152,0,0,1,.88-0.313c0.005,0.369.1,0.45,0.1,0.834l-1.605.052a0.959,0.959,0,0,0-.052.313H62.447v0.052c0.2,0.127.084,0.07,0.052,0.365,0.734,0.025,1.887.058,2.123-.417a3.673,3.673,0,0,0,.207-0.73,0.179,0.179,0,0,0,.052.1l0.311-1.042c-0.315,0-.213.047-0.362-0.1a0.347,0.347,0,0,1-.363,0,0.25,0.25,0,0,0,.155-0.052c-0.268,0-.727.052-1.191,0.052v-0.1h0.414A0.253,0.253,0,0,1,63.9,22.7v0.156c0.195-.007.182,0.025,0.259-0.1-0.224-.134.087-0.618-0.052-0.938-0.024-.054-0.238-0.045-0.1-0.1V21.663a2.548,2.548,0,0,0,1.4.1c0.077,0,.04.069,0.1,0.1h0.57a7.4,7.4,0,0,0,1.087-.052,0.615,0.615,0,0,1,0-.469h0.1A1.1,1.1,0,0,1,67.78,21.3l0.052-.521h0.1a4.784,4.784,0,0,0,1.139.1c0.093,0.224.207,0.4,0.311,0.625,0.909,0.007,2.184.1,3,.052v0.208a11.742,11.742,0,0,0-2.589.052,37.155,37.155,0,0,0,6.421-.156v0.156a1.533,1.533,0,0,1,.673.052H76.479v0.417A1.083,1.083,0,0,1,77,22.34H76.479a0.553,0.553,0,0,0,.052.313V22.5l0.259,0.052a0.253,0.253,0,0,0,.052.156V22.5L77.1,22.548V22.7c0.594,0.046.438-.15,0.414-0.886h0.052v0.938H78.5V22.392a1.688,1.688,0,0,1-.725-0.052H78.5V21.923a1.535,1.535,0,0,1-.673-0.052c0.813,0.009,1.229-.007,1.916,0,0-.493,0-0.706,0-1.146a0.249,0.249,0,0,1-.155-0.052H79.534V20.62h0.207a2.952,2.952,0,0,1,0-.469V20.1L79.9,20.151a10,10,0,0,0-.052,2.605c0.168,0.043.079-.025,0.155,0.1l-0.414,1.876c-0.5,1.517-1.355,4.2-2.641,4.846-1.116.565-4.356,0.365-6.058,0.365H17.553c-1.425-.318-3.057-0.355-4.453-0.677a4.229,4.229,0,0,0-1.45.052L8.8,29.375a6.45,6.45,0,0,1-1.45.208,1.056,1.056,0,0,1-.052.365l-0.155-.1a0.337,0.337,0,0,1-.466.1,0.694,0.694,0,0,1-.052-0.365A2.762,2.762,0,0,1,5.9,29.427v-0.1a3.371,3.371,0,0,1,.725-0.209,0.917,0.917,0,0,1,.259-0.834L4.764,28.02v0.1a0.514,0.514,0,0,1,.621.469c-0.136.184-.138,0.479-0.259,0.677a3.21,3.21,0,0,1-.518.521A1.231,1.231,0,0,1,3.78,29.74a1.38,1.38,0,0,1-.518-1.615,0.7,0.7,0,0,1,.518-0.156,0.755,0.755,0,0,0,.725,0H4.246c-0.579-.349-2.383-0.067-2.9-0.469a8.766,8.766,0,0,1-.052-2.136c-0.132-.076-0.058.011-0.1-0.156H1.4a0.837,0.837,0,0,0-.1-0.417c0.217-.008.168-0.091,0.155-0.417L1.036,23.9h0.1a1.425,1.425,0,0,1,.414,1.3,0.611,0.611,0,0,0,.466-0.1c0.086,0.092-.026.083,0.155,0.1a2.2,2.2,0,0,1,.052-0.886v0.886H3c0-.68-0.09-1.2-0.1-1.824H2.641v-0.1H2.848L2.8,22.444l-2.123.208-0.1-1.2,2.071-.261c0.011-.073-0.043.021-0.052-0.052-0.1-.04.1-0.052,0.1-0.052v0.365a6.675,6.675,0,0,1,.207,1.72H2.951V23.122c0.04-.1.052,0.1,0.052,0.1H2.951v0.052H3V23.226c0.04-.1.052,0.1,0.052,0.1a5.466,5.466,0,0,0,.155,1.876H3.262a2.2,2.2,0,0,1,.052-0.886v0.886H3.935V25.154a0.247,0.247,0,0,1-.1-0.261l0.1,0.052a1.968,1.968,0,0,1-.155-0.365H3.832a0.308,0.308,0,0,0,.259.209c0.02-.132-0.03-0.082.155-0.1,0,0.1-.053.015,0,0.1,0.117-.115.071-0.163,0.155-0.052l0.1,0.052V24.737c0.015-.033-0.016-0.024.052-0.052v0.052c0.044,0.1.025,0.039,0,.156,0.131,0.02.082-.03,0.1,0.156L4.557,25V25.05c0.044,0.1.025,0.038,0,.156h0.57a2.037,2.037,0,0,1,.052-0.834v0.834H5.385a2.2,2.2,0,0,1,.052-0.886v0.886H6.162a2.037,2.037,0,0,1,.052-0.834V25.1a4.876,4.876,0,0,0,1.036.1A2.037,2.037,0,0,1,7.3,24.372v0.834H7.508c0.006-.638-0.052-0.925-0.052-1.459H7.715v0.365H8.078v0.1a1.231,1.231,0,0,0,.621-0.1v0.156H8.078a0.338,0.338,0,0,1-.052.208c-0.043-.169.025-0.08-0.1-0.156v0.208c-0.064.082-.033,0.027,0,0.1a0.264,0.264,0,0,0,.155.052,0.338,0.338,0,0,1,.052-0.208,2.005,2.005,0,0,0,.155.73,2.037,2.037,0,0,1,.052-0.834v0.834l1.036,0.052a2.2,2.2,0,0,1,.052-0.886V25.05A0.249,0.249,0,0,0,9.579,25c0.088-.147.013-0.532,0.1-0.677-0.02.91,0.1,0.443,0.362,0.834H9.994v0.052h0.052a0.187,0.187,0,0,0,.1.052v-0.1a6.346,6.346,0,0,1,0-.782,0.6,0.6,0,0,1,.311-0.156V25.31H11.5a2.357,2.357,0,0,1,.052-0.938V25.31h0.207a2.518,2.518,0,0,1,.052-0.99v0.99c0.168-.043.079,0.026,0.155-0.1a0.188,0.188,0,0,1-.052-0.1h0.052a3.59,3.59,0,0,0,1.243,0,0.282,0.282,0,0,0,.155.208c0.022-.187-0.024-0.131.1-0.208V25.31h0.155a2.2,2.2,0,0,1,.052-0.886v0.365a0.412,0.412,0,0,1,.207,0,0.663,0.663,0,0,1,.052-0.417,0.615,0.615,0,0,1,0,.417c0.22-.015.254-0.075,0.207,0.156,0.136,0.02.068-.039,0.1,0.1L14.136,25V25.05a0.365,0.365,0,0,1,0,.261h0.777a2.357,2.357,0,0,1,.052-0.938,2.357,2.357,0,0,0,.052.938V24.372a0.6,0.6,0,0,1,.311-0.156c-0.005.422-.1,0.617-0.1,1.094h0.414l0.1-.156a0.2,0.2,0,0,1-.1-0.156l0.1,0.052-0.052-.156c-0.045.039-.058,0.066-0.1,0.1V24.685a3.051,3.051,0,0,0,.207-0.261,0.186,0.186,0,0,0,.1.052,0.437,0.437,0,0,0-.1.156h0.052a0.186,0.186,0,0,1,.1-0.052A0.664,0.664,0,0,1,16,24.372h0.052a0.956,0.956,0,0,0,.207.417h0.052a0.252,0.252,0,0,1,.052-0.156v0.1a0.341,0.341,0,0,1,0,.313H16.311a0.253,0.253,0,0,0-.052-0.156V25.05a0.292,0.292,0,0,1,0,.208,2.33,2.33,0,0,0,.673.052V23.382a0.555,0.555,0,0,0,.207-0.365,0.723,0.723,0,0,1-.1-0.573c0.562-.016,1.195,0,1.968,0V22.236l-2.951-.1V21.975a18.434,18.434,0,0,0,3-.052,3.54,3.54,0,0,1,.414-0.625,4.779,4.779,0,0,1,1.139-.1l0.052,0.521a2.9,2.9,0,0,1,.621.052,2.756,2.756,0,0,0,.1.417c-0.142.049-.447,0.1-0.621,0.156v0.052h0.052a2.38,2.38,0,0,0,1.45-.1v0.156H22.68c-0.01-.342.011-0.514,0.363-0.521v0.052h0.052c-0.018.374-.067,0.453,0.259,0.469l-0.052-1.3a0.8,0.8,0,0,1-.362,0,0.188,0.188,0,0,1-.052-0.1,0.147,0.147,0,0,0,.052-0.052l0.311,0.052a7.8,7.8,0,0,0-.1-1.563c-0.147.017-.107,0.055-0.207,0a0.188,0.188,0,0,1-.052-0.1,0.147,0.147,0,0,0,.052-0.052c0.264,0.008.237-.1,0.207-0.469a0.568,0.568,0,0,1-.052-0.313c-0.117.021-.056,0.048-0.155,0a0.267,0.267,0,0,1-.052-0.156h0.207q-0.1-1.641-.207-3.283a6.711,6.711,0,0,1-.1-0.99,8.635,8.635,0,0,0,0-.99h0.052v0.052a2.606,2.606,0,0,1,.1.834,0.689,0.689,0,0,1,.362,0v0.052a2.493,2.493,0,0,0-.362.052v0.365c0.279,0.469.024,2.108,0.207,2.762a0.377,0.377,0,0,0,.155.156,2.039,2.039,0,0,0-.1.521c0.092,0.416,0,.927.1,1.407a16.9,16.9,0,0,1,.259,3.127,0.25,0.25,0,0,1,.155.052,1.8,1.8,0,0,0,.052.938c-0.061.029-.111-0.054-0.1,0.052v0.052h0.052a0.186,0.186,0,0,0,.1.052c0.011-.073-0.043.021-0.052-0.052-0.1-.04.1-0.052,0.1-0.052a0.187,0.187,0,0,0,.1.052,0.186,0.186,0,0,1-.1.052,0.478,0.478,0,0,0-.207.521c0.176,0.3.021,0.833,0.207,1.094a0.815,0.815,0,0,0,.414.052c0.084-.131,0-0.023.155,0a2.2,2.2,0,0,1,.052-0.886v0.886l2.123,0.052a1.437,1.437,0,0,1,.1-0.521,3.174,3.174,0,0,0-.88-0.052,4.042,4.042,0,0,1-1.139,0c-0.011-.216,0-0.244,0-0.521a0.2,0.2,0,0,0,.155-0.1c0.369,0.174.239-.039,0.518-0.1a0.386,0.386,0,0,1,.155.1,0.968,0.968,0,0,0,.621-0.1,10.117,10.117,0,0,0,2.434.1,1.274,1.274,0,0,0,.1-0.365,18.494,18.494,0,0,1-3.78-.156,1.79,1.79,0,0,1-.984-0.156c2.145,0.141,4.5.2,6.731,0.209l0.052-.834h0.984v0.052h-0.1c-0.084.052-.331,0.05-0.414,0.1a2.235,2.235,0,0,1,.673.052V22.7a1.636,1.636,0,0,1,0-.469c0.082-.05.155-0.189,0.207-0.1a1.672,1.672,0,0,1,.052.886h0.673a1.1,1.1,0,0,0,.518.052,0.253,0.253,0,0,1,.052-0.156,0.946,0.946,0,0,0,.207-0.938h0.828V21.61a0.172,0.172,0,0,1-.155,0,0.547,0.547,0,0,1-.052-0.521c0.081-.241.248-0.226,0.57-0.208a3.662,3.662,0,0,1-.207,1.094h0.828v0.834h0.052V22.757a1.441,1.441,0,0,1,.155-0.573V22.132h0.052v0.1a1.173,1.173,0,0,1,.052.73c0.447,0,.631-0.136,1.036-0.156A33.381,33.381,0,0,1,36.5,19.37l0.052-.1a0.148,0.148,0,0,1,.052.052l0.1,0.052c-0.05.1-.025-0.01-0.1,0.052,0.085,0.13.059,0.48,0.155,0.625a0.338,0.338,0,0,1,.052-0.208,0.274,0.274,0,0,0,.207-0.052,0.556,0.556,0,0,0,.466.1,0.438,0.438,0,0,1,.052-0.261v0.208a2.447,2.447,0,0,0,.725-0.052,0.552,0.552,0,0,0,.052.313,0.253,0.253,0,0,1,.052-0.156,2.143,2.143,0,0,0,0,.99,0.956,0.956,0,0,1,.052-0.469v0.1a0.69,0.69,0,0,1,.207.1,15.7,15.7,0,0,0,.155,2.605,0.3,0.3,0,0,1,.207,0,0.189,0.189,0,0,1,.052.1h-0.1c-0.089.079-.067-0.061-0.155,0.1,0.053,0.135-.038.548,0.052,0.834,0.051,0.161.185,0.4,0.259,0.573h0.1a0.956,0.956,0,0,1,.052-0.469,0.955,0.955,0,0,0,.052.469v-1.2h0.88V23.643a0.57,0.57,0,0,1,0-.365,3.69,3.69,0,0,1-1.036-.052,3.255,3.255,0,0,0-.052-0.938,9.569,9.569,0,0,0,2.175.052v-0.1a0.887,0.887,0,0,0-.57-0.1c-0.047-.126-0.055-0.083-0.1-0.208a1.4,1.4,0,0,0,.207-0.365,1.231,1.231,0,0,0,.57-0.052c0.059-.1.043-0.373,0.1-0.469a2.806,2.806,0,0,0,1.087.052c0.251,0.444.167,0.683,0.777,0.677a11.156,11.156,0,0,0,2.589.052v0.208h-0.1a1.593,1.593,0,0,0-.777,0c-0.708.005-1.433,0.033-2.071,0.052V22.34a7.221,7.221,0,0,0,1.553-.052v0.834c0.164,0,.235-0.063.259,0.208a3.826,3.826,0,0,0-.052,1.407h0.311a1.431,1.431,0,0,1,.363-0.677c0.46-.305,1.185-0.047,1.191-0.834a2.217,2.217,0,0,1-.052-0.886,0.249,0.249,0,0,1-.155-0.052H46.55c0-.531-0.051-0.711-0.052-1.251a0.25,0.25,0,0,1-.155-0.052H46.5q-0.026-.808-0.052-1.615H46.5c0.076,0.131.065,0.1,0.259,0.1,0.057-.275.016-0.31,0.362-0.313a0.273,0.273,0,0,1,.311,0,1.661,1.661,0,0,0-.518.1l-0.1.208h0.259a1.248,1.248,0,0,1,.57-0.052V19.109a0.333,0.333,0,0,1-.207-0.052,1.594,1.594,0,0,1,.88.1l-0.621-.052v0.313a2.687,2.687,0,0,0,1.243-.156,3.112,3.112,0,0,0,.1.938A0.338,0.338,0,0,1,49.087,20v0.834a0.326,0.326,0,0,1,.259.052,7.2,7.2,0,0,0,.052,2.032,9.509,9.509,0,0,0,1.036.052c0-.3-0.019-0.61,0-0.782h0.1c0.015,0.138.043,0.109,0.311,0.1a6.842,6.842,0,0,1,.984,0,0.888,0.888,0,0,1,.052-0.313l0.155,0.052a0.82,0.82,0,0,1,.052.261h0.828a9.557,9.557,0,0,0-.155-1.98c-0.008-.036.053-0.3,0.052-0.417a5.1,5.1,0,0,0-.155-1.355,5.6,5.6,0,0,0,.052-0.886c-0.038-.1-0.1-0.99-0.1-0.99a15.1,15.1,0,0,1-.052-1.72c0.141-.653-0.486-1.855.1-1.928l-0.1-2.5A3.211,3.211,0,0,1,52.5,9h0.052ZM52.764,10.3c0.128,0.068.035-.022,0.1,0.1a0.825,0.825,0,0,1,.052.261c-0.035.037-.111,0.075-0.207,0.156V10.668A0.313,0.313,0,0,0,52.764,10.3Zm0.569,3.075H53.54v0.052c-0.131.076-.08,0.023-0.1,0.208H53.8V13.69H53.7a0.368,0.368,0,0,1-.362.052V13.377Zm-0.673.052v0.1h0.052A0.179,0.179,0,0,0,52.66,13.429Zm0.414,0.261a0.334,0.334,0,0,1,.207.052A0.332,0.332,0,0,1,53.074,13.69Zm0.311,0.1h0.1v0.052A0.177,0.177,0,0,1,53.385,13.794Zm-0.155.1h0.1V13.95A0.177,0.177,0,0,1,53.23,13.9Zm-0.155.1h0.1v0.052h-0.1V14Zm-0.155.1h0.1v0.052A0.177,0.177,0,0,1,52.919,14.107Zm-30.343.052h0.1v0.052A0.176,0.176,0,0,1,22.576,14.159Zm30.136,0.261v0.1h0.052v-0.1H52.712ZM23.3,17.442h0.1v0.052A0.177,0.177,0,0,1,23.3,17.442Zm25.062,1.668a0.667,0.667,0,0,1,.362.052,1.569,1.569,0,0,0-.362.052v-0.1Zm-1.761.1h0.1v0.052A0.177,0.177,0,0,1,46.6,19.213Zm-9.217.313,0.57,0.052v0.1H37.8C37.7,19.607,37.493,19.6,37.385,19.526Zm-0.155.052a0.249,0.249,0,0,1,.155.052h-0.1a0.37,0.37,0,0,1-.207.1v-0.1A0.25,0.25,0,0,0,37.23,19.578Zm0.777,0.052a0.249,0.249,0,0,1,.155.052A0.249,0.249,0,0,1,38.007,19.63Zm16.777,0,0.052,0.834H55.3V19.63H54.783Zm1.761,0v0.261h0.207V20a0.578,0.578,0,0,0,0,.469h0.621V19.891h0.155V19.63H56.544Zm1.139,0v0.521H57.89l0.052-.521H57.683Zm0.362,0v0.313H58.1a0.263,0.263,0,0,1,.155-0.052V19.63H58.045Zm0.311,0v0.521h0.1V19.63h-0.1Zm-21.437.052h0.1v0.052h-0.1V19.682Zm1.036,0a0.189,0.189,0,0,1,.052.1H37.955v-0.1Zm-1.139.052h0.1v0.052A0.178,0.178,0,0,1,36.816,19.735ZM22.939,20h0.1v0.469h-0.1V20Zm15.327,0.156v0.1h0.052A0.179,0.179,0,0,0,38.265,20.151Zm17.139,0a0.553,0.553,0,0,0,.052.313A0.552,0.552,0,0,0,55.4,20.151Zm1.036,0v0.313h0.052V20.412C56.573,20.281,56.538,20.24,56.44,20.151Zm-19.676.156a0.955,0.955,0,0,0,.052.469A0.955,0.955,0,0,0,36.764,20.308Zm12.22,0a0.438,0.438,0,0,0,.052.261A0.438,0.438,0,0,0,48.984,20.308Zm30.6,0.156h0.1v0.052A0.176,0.176,0,0,1,79.586,20.464Zm-30.6.156a0.338,0.338,0,0,0,.052.209A0.338,0.338,0,0,0,48.984,20.62Zm0.155,0.313a0.186,0.186,0,0,0,.1.052A0.186,0.186,0,0,0,49.139,20.933Zm-0.1.1a0.956,0.956,0,0,0,.052.469A0.956,0.956,0,0,0,49.036,21.037Zm-12.22.052a0.814,0.814,0,0,0,.052.417A0.813,0.813,0,0,0,36.816,21.089Zm1.553,0.052a0.44,0.44,0,0,0,.052.261A0.438,0.438,0,0,0,38.369,21.141Zm41.269,0.052a0.188,0.188,0,0,1,.052.1H79.638v-0.1Zm-0.052.1a0.188,0.188,0,0,1,.052.1H79.586V21.3Zm-41.217.156a0.439,0.439,0,0,0,.052.261A0.438,0.438,0,0,0,38.369,21.454Zm41.113,0a0.189,0.189,0,0,1,.052.1H79.482v-0.1Zm-0.052.1a0.188,0.188,0,0,1,.052.1H79.43v-0.1Zm-30.395.052a0.438,0.438,0,0,0,.052.261A0.44,0.44,0,0,0,49.036,21.61Zm30.343,0.052a0.188,0.188,0,0,1,.052.1H79.379v-0.1Zm-42.511.156a0.812,0.812,0,0,0,.052.417A0.812,0.812,0,0,0,36.867,21.819Zm1.553,0a0.438,0.438,0,0,0,.052.261A0.437,0.437,0,0,0,38.421,21.819Zm14.706,0v0.469h0.155a0.386,0.386,0,0,0-.1-0.313c0.168-.043.079,0.025,0.155-0.1H53.282V21.819H53.126Zm11.081,0.052a7.268,7.268,0,0,1,0,.834h0.466V21.871H64.207Zm0.518,0V22.7h0.57V22.288h-0.1s-0.01.2-.052,0.1v-0.1a0.249,0.249,0,0,1-.155-0.052h0.207a0.253,0.253,0,0,1,.052-0.156,0.253,0.253,0,0,0,.052.156V22.079c-0.048-.1-0.02-0.061,0-0.208h-0.57Zm0.621,0a2.313,2.313,0,0,0,.052.834H65.45V21.871h-0.1Zm4.091,0v0.417h0.1c0.3-.221.866-0.1,1.191-0.313a0.189,0.189,0,0,0,.052-0.1H69.437ZM71.2,22.288h0.621l0.052-.417H70.835v0.1a0.374,0.374,0,0,1,.414.1A0.353,0.353,0,0,0,71.2,22.288Zm1.76,0V21.871H71.922v0.052c0.252,0.147-.061.278,0.207,0.365,0.014-.136,0-0.1.259-0.1A1.007,1.007,0,0,1,72.958,22.288Zm0.052-.417v0.417h0.155V21.871H73.01Zm0.207,0v0.417h1.036V21.871H73.217Zm1.087,0v0.417h0.88V21.871H74.3Zm0.932,0v0.417h0.1V21.871h-0.1Zm0.155,0v0.417h0.518V21.871H75.392Zm0.725,0.417h0.155a0.814,0.814,0,0,0-.052-0.417A1.829,1.829,0,0,0,76.117,22.288Zm0.207-.417v0.417h0.1V21.871h-0.1ZM65.5,21.923v0.26h0.57v-0.26H65.5Zm0.621,0V22.34c0.225-.012.487,0,0.828,0V21.923H66.123Zm0.88,0V22.34h0.1V21.923H67Zm0.155,0v0.834a2.114,2.114,0,0,0,.621.052,0.814,0.814,0,0,0,.414.052V22.6C67.634,22.438,67.921,21.925,67.159,21.923Zm11.392,0v0.365h0.1a3.715,3.715,0,0,0,1.087.052V21.923C79.2,21.918,79.163,21.916,78.55,21.923Zm-25.113.052a0.552,0.552,0,0,0,.052.313A0.553,0.553,0,0,0,53.437,21.975Zm25.735,0.052c0.018,0.016.1,0.027,0.052,0.1C79.166,22.106,79.062,22.039,79.172,22.027Zm-30.084.052v0.1h0.052A0.179,0.179,0,0,0,49.087,22.079Zm29.981,0.1h0.1v0.052h-0.1V22.184Zm-58.46.052a0.186,0.186,0,0,0,.1.052A0.186,0.186,0,0,0,20.608,22.236Zm28.479,0a0.552,0.552,0,0,0,.052.313A0.554,0.554,0,0,0,49.087,22.236Zm15.689,0a0.189,0.189,0,0,1,.052.1H64.777v-0.1Zm-26.356.052v0.1h0.052A0.179,0.179,0,0,0,38.421,22.288ZM50.485,22.34v0.313h0.1a0.351,0.351,0,0,1,.052-0.313H50.485ZM51.159,22.7h0.311V22.34H51.107v0.1A0.454,0.454,0,0,1,51.159,22.7Zm0.362-.365V22.7H51.78V22.6a0.453,0.453,0,0,0,.052-0.261H51.521Zm0.57,0.365h0.88l-0.052-.365H52.091v0.052C52.2,22.461,52.106,22.443,52.091,22.7Zm1.087-.365v0.313h0.155a1.074,1.074,0,0,1,0-.313H53.178Zm17.968,0-0.052.417h0.673a1.316,1.316,0,0,0,.052-0.417H71.146Zm0.829,0v0.313h0.052v-0.1c0.063-.092,0-0.091.052-0.156A0.187,0.187,0,0,0,71.974,22.34Zm0.777,0c0.123,0.117.018,0.057,0.207,0.052V22.34H72.751Zm0.259,0a0.664,0.664,0,0,0,.052.209h0.1V22.5c-0.044-.1-0.025-0.039,0-0.156H73.01Zm1.243,0a2.627,2.627,0,0,0-1.036.052,1.679,1.679,0,0,1,.57.1H73.735a4.775,4.775,0,0,0-.518.052h0.052a4.161,4.161,0,0,0,.828.156c0.061-.138-0.046-0.093.1-0.156a0.179,0.179,0,0,0,.052.1v-0.1A0.293,0.293,0,0,1,74.252,22.34Zm0.052,0v0.209h0.052a1.624,1.624,0,0,1,.829.052V22.34H74.3Zm0.932,0V22.6h0.1V22.34h-0.1Zm0.155,0V22.6c0.215,0.011.242,0,.518,0V22.34H75.392Zm0.725,0a0.888,0.888,0,0,0,.052.313H76.22V22.6a0.453,0.453,0,0,0,.052-0.261H76.117Zm0.207,0V22.6h0.1V22.34h-0.1Zm-36.557.052a1.117,1.117,0,0,0,.1.365C39.877,22.547,39.9,22.472,39.767,22.392Zm0.155,0v0.365h0.57V22.392h-0.57Zm0.621,0v0.365h0.932v-0.1a0.613,0.613,0,0,1-.1-0.261H40.544Zm2.485,0a1.59,1.59,0,0,1-.052.365h0.828V22.392H43.029Zm0.828,0v0.365h0.621V22.392H43.858Zm7.042,0a0.661,0.661,0,0,0,.052.208H51V22.5C50.958,22.458,50.945,22.431,50.9,22.392Zm14.188,0a0.267,0.267,0,0,1,.052.156H65.087V22.392Zm1.036,0V22.7a7.178,7.178,0,0,0,.828.052V22.392H66.123Zm0.88,0v0.365h0.1V22.392H67Zm11.547,0L78.6,22.757h0.1a0.258,0.258,0,0,1,.259-0.208V22.6a0.267,0.267,0,0,0-.052.156c0.185-.022.13,0.025,0.207-0.1a0.177,0.177,0,0,1-.1-0.052,4.105,4.105,0,0,0,.725.156V22.392C79.232,22.391,79.019,22.393,78.55,22.392ZM39.4,22.444l-0.052.208H39.4a0.788,0.788,0,0,0,.1-0.208H39.4Zm0.155,0a0.664,0.664,0,0,1-.052.208H39.56C39.608,22.576,39.71,22.588,39.56,22.444Zm11.184,0v0.1H50.8A0.179,0.179,0,0,0,50.744,22.444Zm2.693,0a0.338,0.338,0,0,0,.052.208A0.338,0.338,0,0,0,53.437,22.444Zm20.453,0L74.1,22.5a0.186,0.186,0,0,1-.1.052V22.6H73.942Zm5.023,0h0.1V22.5h-0.1V22.444ZM17.295,22.5v0.26a0.943,0.943,0,0,0,.311.052V22.5H17.295Zm0.363,0v0.313A12.776,12.776,0,0,0,19,22.861V22.5H17.657Zm3.159,0v0.365h0.466V22.5H20.816Zm0.518,0v0.365H21.8V22.5H21.333Zm0.518,0v0.365h0.155a1.055,1.055,0,0,1,.052-0.365H21.851Zm0.725,0a0.583,0.583,0,0,1,0,.365h0.1V22.5h-0.1Zm0.518,0v0.365H23.4a1.59,1.59,0,0,0-.052-0.365H23.094Zm15.379,0a0.338,0.338,0,0,0,.052.208A0.338,0.338,0,0,0,38.473,22.5Zm35.314,0h0.1v0.052A0.178,0.178,0,0,1,73.786,22.5Zm-53.126.052v0.313h0.1V22.548h-0.1Zm1.605,0a1.086,1.086,0,0,1,0,.313h0.1V22.809h0.052a0.175,0.175,0,0,1,0-.156c-0.136-.02-0.068.039-0.1-0.1H22.265Zm14.654,0a0.813,0.813,0,0,0,.052.417A0.814,0.814,0,0,0,36.919,22.548Zm28.117,0a0.189,0.189,0,0,1,.052.1H65.036v-0.1Zm7.819,0L72.906,22.7h0.052V22.548h-0.1ZM49.087,22.6a0.437,0.437,0,0,0,.052.261A0.439,0.439,0,0,0,49.087,22.6Zm1.709,0a0.186,0.186,0,0,0,.1.052A0.186,0.186,0,0,0,50.8,22.6Zm22.214,0v0.156h0.155V22.6H73.01Zm-50.848.052v0.1h0.052A0.179,0.179,0,0,0,22.162,22.653Zm51.055,0v0.1h0.414V22.7H73.579V22.653A0.924,0.924,0,0,1,73.217,22.653Zm1.346,0c-0.044.034-.163,0.07-0.207,0.1H74.77l0.052-.1A0.313,0.313,0,0,1,74.563,22.653ZM75.029,22.7c0.089,0.046.066,0.046,0.155,0H75.029Zm0.362,0a0.517,0.517,0,0,0,.466,0H75.392Zm-36.919.052a2.625,2.625,0,0,0,.052.573h0.052A2.205,2.205,0,0,0,38.473,22.757Zm12.634,0v0.156h0.362V22.757H51.107Zm0.414,0v0.156H51.78l0.052-.1H51.78V22.757H51.521Zm0.57,0v0.1h0.155c0.073-.046.29-0.056,0.362-0.1H52.091Zm1.087,0v0.417h0.1l0.052-.417H53.178Zm5.851,0.521a3.921,3.921,0,0,1,1.657,0,16.97,16.97,0,0,1-2.641.052l0.932-.052a1.1,1.1,0,0,1,.052-0.521v0.521Zm-19.78-.469a0.552,0.552,0,0,0,.052.313A0.554,0.554,0,0,0,39.249,22.809Zm0.57,0a0.553,0.553,0,0,0,.052.313A0.553,0.553,0,0,0,39.819,22.809Zm0.1,0v0.313h0.57V22.809h-0.57Zm0.621,0V23.07h0.932V22.809H40.544Zm0.984,0V23.07h0.207a0.179,0.179,0,0,1,.052-0.1v-0.1h-0.1A0.263,0.263,0,0,0,41.528,22.809Zm1.346,0V23.07h0.932V22.809H42.874Zm1.605,0.313V22.809h-0.57a0.822,0.822,0,0,0-.052.261A2.115,2.115,0,0,0,44.479,23.122Zm20.039-.313a2.7,2.7,0,0,0,.414.1v-0.1H64.518Zm0.725,0H64.984v0.1a0.736,0.736,0,0,1,.259.052V22.809Zm-29.773.208a0.254,0.254,0,0,0-.052-0.156v0.1h-0.1v0.052h0.155Zm-14.136-.052v0.313H21.8V22.913H21.7A0.682,0.682,0,0,1,21.333,22.965Zm0.518,0.313H22.68V22.913a1.176,1.176,0,0,1-.777,0A0.693,0.693,0,0,0,21.851,23.278Zm1.243-.365v0.365H23.4V22.913H23.094ZM33.4,23.07c0.185-.022.13,0.025,0.207-0.1L33.4,22.913V23.07Zm9.424,0a0.253,0.253,0,0,0-.052-0.156,0.815,0.815,0,0,1-.414.052v0.1h0.466Zm20.039-.156a1.991,1.991,0,0,1,.466.052v0.052H62.861v-0.1Zm-45.1.052v0.313H19V22.965H17.761Zm1.294,0.313h0.57a0.253,0.253,0,0,0-.052-0.156,1.08,1.08,0,0,0-.362,0c-0.029-.01-0.108-0.129-0.155-0.156v0.313Zm1.191,0h0.362V22.965a1.033,1.033,0,0,0-.362.052A0.735,0.735,0,0,1,20.246,23.278Zm0.414-.313v0.313h0.1V22.965h-0.1Zm0.155,0v0.313h0.466V22.965H20.816Zm41.631,0a1.559,1.559,0,0,1,.363.052V23.07A0.362,0.362,0,0,1,62.447,22.965Zm2.485,0a0.186,0.186,0,0,0,.1.052A0.186,0.186,0,0,0,64.932,22.965Zm-20.3.052h0.1V23.07A0.178,0.178,0,0,1,44.634,23.017Zm17.45,0a1.559,1.559,0,0,1,.362.052v0.052A0.362,0.362,0,0,1,62.084,23.017Zm-0.362.052a1.569,1.569,0,0,1,.362.052v0.052A0.362,0.362,0,0,1,61.722,23.07ZM0.1,23.122l0.155,0.052a0.335,0.335,0,0,1-.155.208V23.33c-0.045-.039-0.058-0.066-0.1-0.1V23.174A0.178,0.178,0,0,0,.1,23.122Zm2.589,0H2.8v0.052A0.178,0.178,0,0,1,2.693,23.122Zm34.019,0-0.052.313h0.1V23.122H36.712Zm24.6,0a1.215,1.215,0,0,1,.414.052v0.052H61.411C61.373,23.18,61.346,23.167,61.307,23.122Zm3.521,0a0.267,0.267,0,0,1,.052.156H64.829V23.122Zm-4.142.052a2.025,2.025,0,0,1,.621.052v0.052H60.841C60.8,23.242,60.726,23.21,60.686,23.174Zm-16.155.052a8.152,8.152,0,0,0,.052,1.511h0.1V23.382c-0.037-.081-0.007-0.007,0-0.156H44.531Zm-7.56.052a0.252,0.252,0,0,0,.052.156A0.254,0.254,0,0,0,36.971,23.278Zm8.026,0a0.333,0.333,0,0,1,.207.052A0.333,0.333,0,0,1,45,23.278Zm19.78,0a0.189,0.189,0,0,1,.052.1H64.777v-0.1ZM3.055,23.33a0.188,0.188,0,0,1,.052.1H3.055v-0.1Zm42.46,0a0.544,0.544,0,0,1,.311.052A0.542,0.542,0,0,1,45.515,23.33Zm-45.1.052a0.2,0.2,0,0,1,.155.1H0.621v0.052A0.28,0.28,0,0,1,.414,23.382Zm16.621,0a2.514,2.514,0,0,0,.052.99A2.518,2.518,0,0,0,17.036,23.382Zm29.152,0a0.667,0.667,0,0,1,.362.052A0.665,0.665,0,0,1,46.188,23.382Zm18.537,0.052a0.188,0.188,0,0,1,.052.1H64.725v-0.1Zm-61.566.052a0.188,0.188,0,0,1,.052.1H3.159v-0.1Zm20.039,0v0.1h0.259v-0.1H23.2Zm5.489,0a0.665,0.665,0,0,1,.362.052C28.81,23.556,28.808,23.629,28.686,23.486Zm36.5,0a9,9,0,0,1-.362,1.2H64.88V24.633A0.937,0.937,0,0,0,65.191,23.486Zm-29.514.573V24.32h0.155a4.329,4.329,0,0,0,0,.573h0.155a1.437,1.437,0,0,1,.052-0.469h0.052a0.956,0.956,0,0,0,.052.469c0.282-.4.678-0.364,0.673-1.094a0.453,0.453,0,0,1-.052-0.261h-0.1a0.658,0.658,0,0,1-.363.417A0.984,0.984,0,0,1,35.676,24.06Zm1.294-.521a0.252,0.252,0,0,0,.052.156V23.539H36.971Zm1.553,0a0.253,0.253,0,0,0,.052.156V23.539H38.524Zm26.149,0a0.21,0.21,0,0,1,0,.261V23.539ZM3.21,23.591a0.188,0.188,0,0,1,.052.1H3.21v-0.1Zm-2.485.052a0.39,0.39,0,0,1,.259.208H1.036V23.9A0.518,0.518,0,0,1,.725,23.643Zm22.524,0a0.207,0.207,0,0,0,.207.1V23.695Zm-19.987.052a0.2,0.2,0,0,1,.1.156H3.314V23.8A0.188,0.188,0,0,1,3.262,23.695ZM29,23.747a2.759,2.759,0,0,0,.1.417,0.45,0.45,0,0,1,.207-0.156c0.018,0.263.441,0.17,0.828,0.156V24.007L30.55,23.8V23.747H29Zm9.527,0a0.253,0.253,0,0,0,.052.156V23.747H38.524ZM0.57,23.8a0.253,0.253,0,0,1-.052.156,0.186,0.186,0,0,0-.1-0.052V23.8H0.57Zm22.68,0v1.3a0.227,0.227,0,0,1,.155.156h0.1V24.945a5.3,5.3,0,0,0-.052-1.146H23.249Zm41.476,0a0.153,0.153,0,0,1,0,.208V23.8Zm-61.359.052a0.188,0.188,0,0,1,.052.1H3.366v-0.1ZM63.534,23.9v0.1h0.777V23.955A2.753,2.753,0,0,0,63.534,23.9Zm-60.117.052a0.188,0.188,0,0,1,.052.1H3.417v-0.1Zm42.977,0.782a6.84,6.84,0,0,0,.207-0.782,1.718,1.718,0,0,0-1.139.521,0.613,0.613,0,0,0-.1.261h1.036Zm2.848-.73a3.326,3.326,0,0,0,0,.73h0.518a0.813,0.813,0,0,1,.052-0.417,0.813,0.813,0,0,0,.052.417,0.679,0.679,0,0,1,.052-0.365v0.365h0.207a0.338,0.338,0,0,0-.052-0.208A0.7,0.7,0,0,0,49.243,24.007Zm1.139,0H50.019V24.06a3.722,3.722,0,0,1,.363.677v-0.73ZM3.469,24.06a0.2,0.2,0,0,1,.1.156H3.521V24.164A0.188,0.188,0,0,1,3.469,24.06Zm26.718,0v0.1a1.845,1.845,0,0,0,.777-0.052Zm5.126,0a1.253,1.253,0,0,0,.052.573,3.879,3.879,0,0,1,.1-0.573H35.314Zm1.709,0v0.313a2.329,2.329,0,0,0-.57.521h0.414A0.965,0.965,0,0,0,37.023,24.06Zm1.553,0a0.554,0.554,0,0,0,.052.313A0.552,0.552,0,0,0,38.576,24.06Zm-7.456.052v0.417l-0.311.052v0.573l0.88-.052c-0.012-.112-0.065-0.649-0.052-0.677a0.533,0.533,0,0,0,.207-0.313H31.12Zm0.984,0a5.047,5.047,0,0,1,0,.938h0.1V25c0.035-.04.068-0.116,0.1-0.156V25l0.57-.052a1.1,1.1,0,0,1,.052-0.521v0.521a1.57,1.57,0,0,0,.362-0.052V24.372a0.2,0.2,0,0,1-.1-0.156l0.1,0.052V24.112H32.1Zm1.294,0v0.782h0.207V24.112H33.4Zm-7.2.052a0.613,0.613,0,0,0,.518,0H26.2Zm0.673,0a1.277,1.277,0,0,0,.829,0H26.874Zm0.88,0a0.207,0.207,0,0,0,.259,0H27.754Zm0.362,0c0.089,0.046.066,0.046,0.155,0H28.117Zm0.363,0a0.186,0.186,0,0,0,.1.052A0.186,0.186,0,0,0,28.479,24.164Zm-24.906.052a0.188,0.188,0,0,1,.052.1H3.573v-0.1Zm3.987,0.99H7.715a1.267,1.267,0,0,1,.1-0.573,0.2,0.2,0,0,1-.155-0.1c0.164,0,.07.088,0.155-0.052a0.353,0.353,0,0,0,.052-0.208l-0.259.052v0.1A1.9,1.9,0,0,0,7.56,25.206Zm41.683-.938a0.277,0.277,0,0,1,0,.313V24.268ZM3.625,24.32a1.818,1.818,0,0,1,.155.156v0.1H3.728V24.529A0.373,0.373,0,0,1,3.625,24.32Zm0.414,0a0.188,0.188,0,0,1,.052.1H4.039v-0.1Zm8.751,0a0.188,0.188,0,0,1,.052.1H12.79v-0.1Zm-0.259.052a0.188,0.188,0,0,1,.052.1H12.531v-0.1Zm-4.919.052a0.188,0.188,0,0,1,.052.1H7.612v-0.1Zm16.673,0a0.189,0.189,0,0,1,.052.1H24.285v-0.1Zm14.395,0,0.1,0.469h0.1V24.841C38.8,24.726,38.771,24.538,38.68,24.424Zm-22.628.052a0.249,0.249,0,0,1,.155.052A0.249,0.249,0,0,1,16.052,24.476Zm16.1,0a0.266,0.266,0,0,1,.052.156H32.155V24.476Zm-15.948.052c0.058,0.086.092,0.056,0,.1v-0.1Zm19.21,0v0.1h0.052v-0.1H35.418Zm-5.955.1v0.261H29.1v0.052c0.187,0.1.122,0.116,0.1,0.365l1.45-.1V24.581Zm1.243-.052a1.253,1.253,0,0,0,.052.573A1.253,1.253,0,0,0,30.706,24.581Zm-20.349.052a1.407,1.407,0,0,0,.052.625A1.406,1.406,0,0,0,10.356,24.633Zm5.333,0-0.052.156h0.052V24.737C15.754,24.655,15.723,24.71,15.689,24.633Zm0.207,0v0.1h0.052v-0.1H15.9Zm0.1,0a0.171,0.171,0,0,0,.155.156A0.268,0.268,0,0,0,16,24.633Zm16.207,0.052a0.273,0.273,0,0,1,0,.261H32.155V24.789A0.188,0.188,0,0,0,32.207,24.685Zm3.159,0a0.338,0.338,0,0,0,.052.208A0.338,0.338,0,0,0,35.366,24.685Zm-22.576.1a0.188,0.188,0,0,1,.052.1H12.79v-0.1Zm-0.259.052a0.188,0.188,0,0,1,.052.1H12.531v-0.1Zm1.191,0c-0.017.151,0,.077,0.155,0.052A0.7,0.7,0,0,1,13.722,24.841Zm0.207,0v0.1a0.172,0.172,0,0,1,.155,0A0.2,0.2,0,0,0,13.929,24.841Zm-1.968.052h0.1v0.052A0.177,0.177,0,0,1,11.961,24.893Zm3.832,0a0.186,0.186,0,0,0,.1.052A0.186,0.186,0,0,0,15.793,24.893Zm0.311,0a0.186,0.186,0,0,0,.1.052A0.186,0.186,0,0,0,16.1,24.893Zm8.181,0a0.189,0.189,0,0,1,.052.1H24.285v-0.1ZM13.774,25a0.186,0.186,0,0,0,.1.052A0.186,0.186,0,0,0,13.774,25Zm0.207,0a0.186,0.186,0,0,0,.1.052A0.186,0.186,0,0,0,13.981,25Zm-6.162.052c0.043,0.169-.025.08,0.1,0.156V25.05h-0.1Zm0.155,0v0.156H8.129V25.05H7.974Zm-3.625.1a0.186,0.186,0,0,0,.1.052A0.186,0.186,0,0,0,4.35,25.154Zm9.32,0a0.253,0.253,0,0,0,.052.156A0.254,0.254,0,0,0,13.67,25.154Zm2.175,0-0.052.156h0.155V25.258a0.177,0.177,0,0,1-.1-0.052,0.177,0.177,0,0,0,.1-0.052h-0.1Zm0.155,0a0.186,0.186,0,0,0,.1.052c-0.038.045-.065,0.059-0.1,0.1h0.207V25.258A0.78,0.78,0,0,0,16,25.154Zm-2.071.052v0.1h0.155V25.258Zm-0.155.052a0.186,0.186,0,0,0,.1.052A0.186,0.186,0,0,0,13.774,25.258ZM7.146,28.333a3.933,3.933,0,0,0,.311.677V28.958a0.972,0.972,0,0,0,.052-0.469A1.272,1.272,0,0,0,7.146,28.333Zm0.984,0.156v0.417a1.344,1.344,0,0,0,.673.1,8.942,8.942,0,0,0,2.33-.052Z" transform="translate(0 0.5)"/>
</svg>
