<svg xmlns="http://www.w3.org/2000/svg" width="80" height="40" viewBox="0 0 80 40">
  <defs>
    <style>
      .cls-1 {
        fill: #fff;
        fill-rule: evenodd;
      }
    </style>
  </defs>
  <path id="Color_Fill_1" data-name="Color Fill 1" class="cls-1" d="M64.929,20.844h0.095c0.912,0.042.6,0.46,1.137,0.656h2.085v0.094l0.095,0.094a3.719,3.719,0,0,0-1.8.188h-0.19l0.095,0.281,2.18-.094a0.359,0.359,0,0,0,.19-0.187L69,20.656l0.19,0.094L69.1,22.063a49.941,49.941,0,0,0,10.142-.937l0.284-1.781,0.379,0.094A4.139,4.139,0,0,0,80,21.969c-1.856,1.619-1.637,4.932-3.128,6.938h-52.8L13.27,28.813l-2.844-.844-5.4.281L4.834,29,4.55,28.813a1.6,1.6,0,0,0-.758-0.75V27.969c0.582-.2.495-0.355,0.664-0.937l0.19,0.094a0.706,0.706,0,0,0,.758.563H5.687V27.125L3.6,26.844l-0.19,1.594-0.19.094a1.906,1.906,0,0,1-1.611-.281l-0.284-1.5h0.19l0.758-.187L0,26.281l0.664-2.625H1.9V23.563L1.611,22.438l-1.137.094V22.25l-0.095-.562L1.8,21.5,1.9,22.625,13.46,21.406l0.095,1.031a4.94,4.94,0,0,1,2.938.281l0.095-.469,0.189,0.094c0.01,0.332.29,0.715,0.948,0.375L18.1,22.813c0.057-.277-0.1-0.1.19-0.281V22.344a0.832,0.832,0,0,1-.758-0.188c0.883-.061,1.759-0.438,1.8.656h0.379l0.095-.187a1.336,1.336,0,0,0-.284-0.281,3.464,3.464,0,0,0,.379-0.375l1.137,0.188,0.474-2.719-0.095-2.719a0.69,0.69,0,0,0,.663-0.188l0.19-.656H22.37v1.313a38.952,38.952,0,0,0,8.152-1.031l21.327-3.375c-0.056-.589-0.264-0.844.095-1.031,0.177,0.239-.012.136,0.284,0.094V11l0.19,0.094v0.844a0.524,0.524,0,0,0-.474.563c2.42,2.307,6.236,3.828,9.194,5.531l3.886,2.063ZM51.564,12.969l-0.474.094,0.095,0.188h0.19l0.284,0.094,0.284-.375H51.564Zm-0.948.187,0.474,0.75ZM27.3,23.375H28.72l-0.19-.281-0.758-.562L28.72,23c0.014-.723.519-0.4,0.569-1.312l-0.758-.094v-0.75H29.1l0.19-.656,0.379,0.094a0.711,0.711,0,0,1,.19.563h0.379V19.531h0.284l0.095,0.094,0.095,1.125,0.095-1.031H30.9v4.5h1.9V24.125a7.111,7.111,0,0,0-1.8-.281V23.375h0.189c1.647-.9,1.711-0.808,3.792-0.937l0.095,0.938,1.9,0.094v0.094a3.481,3.481,0,0,0-2.18.563h2.559V22.719a1.41,1.41,0,0,1-.853-1.406l0.948,0.094c0.1-.467-0.033-0.314.379-0.469,0.209,0.541.3,0.439,0.948,0.375l-0.095-1.406a2.37,2.37,0,0,1,1.8-.844l0.19,0.188c-0.174.86-.17,3.05,0.663,3.938,0.254-.309.235-0.247,0.663-0.187V22.438c0.851-.159,2.42-0.262,3.223-0.375L45.4,23h1.706V22.906a1.375,1.375,0,0,1,.095-1.125h0.379c0.134-1.179.019-2.23,0.474-2.906l1.137-.094V18.688l-0.284-.75,0.379,0.094,0.284-.187v0.469h0.853c0.054,1,.359,1.674.379,3,0.419,0.012.651,0.171,0.758-.094,0.817-1.8-.47-3.147-0.758-4.406a10.876,10.876,0,0,1,0-3l-0.474-.562c-4.176,1.24-8.647,1.548-13.175,2.438a67.394,67.394,0,0,1-11.564,1.5c-0.3,1.339-2.877,5.69-2.37,6.375,0.533-.985,1.884-1.261,3.7-1.219l0.19,0.375A0.677,0.677,0,0,1,27.3,23.375ZM52.133,13.25l0.095,0.656h0.379ZM51,13.344l0.284,0.375A0.51,0.51,0,0,0,51,13.344Zm0.853,0,0.19,0.188A0.359,0.359,0,0,0,51.848,13.344ZM55.261,17v0.563a2.085,2.085,0,0,1,1.232.281l-0.095.938c0.159-.243-0.066-0.389.474-0.469v0.469l1.138-.094V18.594l-0.664-.656-4.834-4.5L54.787,17h0.474Zm-3.6-3.469a1.849,1.849,0,0,0,.19,1.031h0.095l0.095-.75Zm9,8.719a5.684,5.684,0,0,1,1.611,0l0.095-1.5h0.095l0.095,0.469c0.406-.355,1.684-0.252,2.18-0.469l0.095-.281L64.739,20c-4.13-1.523-8.158-4.2-11.754-6.469,1.492,1.94,3.858,3.175,5.213,5.25l0.095-1.406,0.19,2.063c0.418,0.014.216-.09,0.474,0.281-0.176.589,0.179,0.726,0.379,1.219,1.172-.044.748-0.006,2.18,0a1.177,1.177,0,0,1-.284.563l-0.569.281V22.25ZM45.972,13.906L46.161,14Zm5.308,0,0.474,0.844ZM45.4,14l0.284,0.094Zm-0.474.094,0.284,0.094Zm6.161,0,0.19,0.188Zm1.611,0,0.19,0.75-0.379.187,0.095,0.563,0.663,0.094c-0.233.183-.038,0.053-0.284,0.094,0.3,0.382.538-.126,0.663,0.375-0.692.5,0.518,1.869,0.853,2.719H54.6A6.567,6.567,0,0,0,52.7,14.094Zm-8.341.094,0.379,0.094Zm-0.569.094h0Zm7.109,0-0.095.094L51.28,14.75Zm-7.678.094L30.616,16.438,40,15.031l3.7-.656H43.223Zm7.583,0.281c-0.009,1.312.209,3.12,0.948,3.75C51.84,16.644,52.076,15.324,50.806,14.656Zm1.232,1.594a0.359,0.359,0,0,0,.19.188Zm-22.085.188h0Zm-0.663.094h0Zm22.749,0,0.095,0.188,0.095-.188h-0.19Zm-23.507.094h0Zm-0.569.094,0.284,0.094Zm-6.351.187,0.569,0.375C22,16.9,22.118,16.982,21.611,16.906ZM52.986,17l0.19,0.563H53.27V17.188Zm-31.469.094,0.19,0.938V17.094h-0.19Zm30.521,0v1.031l0.284-.469Zm0.19,0,0.19,0.188A0.359,0.359,0,0,0,52.228,17.094Zm-27.867.188-1.517.188,0.19,4.125Zm0.284,0c-0.339,1.88-1.575,3.473-1.611,5.344h0.095L25.4,17.281H24.645Zm-2.749.094,0.095,1.406h0.095a3.42,3.42,0,0,0,0-1.406H21.9Zm0.474,0,0.189,1.031C22.623,17.834,22.77,17.607,22.37,17.375Zm30.332,0a0.814,0.814,0,0,0,.19.656v0.188h0.095Zm0.663,0.094a4.929,4.929,0,0,1,.095,1.969l0.095,0.094H54.6V19.438Zm-0.948,1.125,0.095-.844-0.19.094-0.379.75h0.474Zm3.7-.656v0.281l0.095-.281H56.114Zm-33.839.188-0.19,1.688h0.379ZM52.7,18.219v0.375h0.284l-0.095-.281Zm-3.318.188v0Zm3.886,0,0.19,0.469h0.095Zm-1.327.281c-0.035.872,0.139,0.769,0.095,1.313l0.19-.094-0.095-.656,0.19,0.094c0.29,0,.133-0.09.379,0.094l-0.284.094H53.27l-0.19-.844H51.943Zm4.076,0.094,0.19,0.094Zm-7.583.094,0.19,0.094Zm-0.284.094,0.19,0.094Zm-25.5.188,0.095,0.656Zm33.27,0,0.095,0.469h0.095Zm-16.019.094,0.19,0.094Zm-18.294.094-0.284,2.531h0.379A5.455,5.455,0,0,0,21.611,19.344Zm18.01,0,0.19,0.094Zm-0.284.094,0.19,0.094Zm12.512,0.281v0Zm0.569,0L52.7,19.906A0.34,0.34,0,0,0,52.417,19.719Zm-4.55.188,0.095,0.563ZM22.085,20a2.523,2.523,0,0,0,.284,1.594L22.465,20H22.085Zm29.763,0v0Zm0,0.375a1.536,1.536,0,0,0,.095,1.125h0.095A1.5,1.5,0,0,0,51.848,20.375Zm0.474,0,0.095,1.219,1.327,0.281-0.284-1.5H52.322Zm1.327,0,0.19,0.844Zm-31.09.188c-0.039.557-.076,0.832,0.284,1.031Zm7.867,0v0Zm8.531,0v0Zm13.175,0.094v0Zm6.825,0v0Zm20.474,0.188v0Zm-28.91.094v0Zm-21.611.094c0.179,0.256.025,0.049,0.379,0.188Zm1.611,0v0Zm28.815,0v0Zm-7.2.094v0Zm10.616,0,0.19,0.094Zm-14.787.094,0.095,0.469Zm31.374,0,0.19,0.094Zm-50.427.094V21.5C29,21.336,29,21.479,28.91,21.313Zm1.137,0-0.095.188h0.19Zm0.19,0v0Zm0.284,0a0.359,0.359,0,0,0,.19.188Zm28.815,0,0.284,0.094Zm1.422,0,0.19,0.094Zm0.284,0,0.284,0.094Zm1.422,0,0.095,0.938ZM78.2,21.406L78.483,21.5Zm0.379,0,0.19,0.094Zm0.284,0L79.052,21.5ZM36.872,21.5c0.215,0.194.1,0.156,0.379,0.094Zm1.043,0L38.2,21.688A0.34,0.34,0,0,0,37.915,21.5Zm13.649,0.094L50.806,21.5l0.379,0.188,0.19,0.469,0.19-.094V21.594ZM77.251,21.5l0.284,0.094Zm0.379,0h0Zm1.706,0-0.095.188h0.379Zm-65.972.094-5.213.656a2.833,2.833,0,0,0,1.517,1.406l-0.379-.75c0.407-.124.16-0.355,0.474-0.75v1.031a1.159,1.159,0,0,1,.758.469h1.327a0.648,0.648,0,0,1,.095-0.375,4.787,4.787,0,0,1-1.9-.281c1.731,0.009,2.1-.6,3.412-0.656Zm63.128,0h0Zm-24.739.094,0.095,0.563,0.19-.562H51.754Zm2.275,0-0.095.188a0.625,0.625,0,0,0,.474-0.187H54.028Zm5.119,0V22.25a1.4,1.4,0,0,1,.948,0V21.875L60,21.688H59.147Zm16.588,0h0Zm2.37,0-0.474.188v0.094l0.853-.187Zm0.474,0v0.188C78.671,21.711,78.665,21.854,78.578,21.688Zm0.284,0,0.189,0.094Zm-41.991.094c0.215,0.194.1,0.156,0.379,0.094Zm15.261,0v0Zm0.19,0c0.209,0.2.184,0.186,0.474,0.094Zm22.559,0,0.379,0.094Zm0.474,0,0.284,0.094Zm1.9,0-0.758.188v0.094h0.474a1.2,1.2,0,0,0,.569-0.281H77.251Zm-3.033.094L74.5,21.969Zm0.379,0,0.189,0.094Zm-1.422.094h0Zm2.559,0,0.19,0.094Zm0.379,0L76.4,22.063ZM43.7,22.063h0Zm0.663,0c0.228,0.19.108,0.109,0.569,0.094Zm7.773,0v0Zm0.19,0,0.19,0.094Zm0.284,0L52.7,22.25l0.095-.187h-0.19Zm0.853,0v0Zm18.768,0,0.284,0.094Zm2.559,0h0ZM7.773,23.656l0.095-1.5-5.877.656v0.094l0.284,0.75c1.418,0.031,1.64-.408,2.559-0.75V23l-0.853.656C5.753,23.666,6.431,23.651,7.773,23.656Zm35.355-1.5,0.284,0.094Zm28.057,0h0Zm2.749,0,0.19,0.094Zm0.284,0,0.19,0.094Zm-35.829.094-0.19.094v0.281l0.379,0.094C38.523,22.343,38.583,22.438,38.389,22.25Zm4.36,0,0.19,0.094Zm26.351,0h0Zm0.948,0,0.284,0.094Zm0.474,0,0.284,0.094Zm2.938,0,0.19,0.094Zm-54.5.094c-0.013.478-.26,0.15,0.095,0.469h0.095V22.344h-0.19Zm1.422,0a0.875,0.875,0,0,0,.664.187A0.694,0.694,0,0,0,20.379,22.344Zm46.066,0,0.19,0.094Zm0.284,0h0Zm0.948,0,0.19,0.094Zm4.455,0,0.284,0.094Zm-50.616.094v0.375h0.095Zm4.076,0,0.474,0.188Zm0.663,0c0.228,0.19.108,0.109,0.569,0.094V22.438H26.256Zm7.109,0c0.138,0.227.349,0.2,0.569,0H33.365Zm0.853,0-0.19.094v0.094l0.569-.094Zm6.54,0,0.19,1.125,0.19,0.094Zm11.09,0a0.7,0.7,0,0,0,.095.656Zm0.663,0a0.34,0.34,0,0,0,.284.188A0.34,0.34,0,0,0,52.512,22.438Zm0.379,0v0Zm0.19,0v0Zm0.284,0a0.34,0.34,0,0,0,.284.188Zm5.782,0,0.19,0.094Zm1.611,0h0Zm1.706,0h0Zm-54.408.094v0.281l0.095-.281H8.057Zm7.2,0,0.19,0.094Zm6.54,0-0.095.281C21.9,22.6,21.816,22.777,21.8,22.531Zm3.223,0,0.284,0.094Zm7.867,0,0.19,0.094Zm35.355,0-0.095.188C68.347,22.637,68.257,22.721,68.246,22.531Zm0.853,0,0.19,0.094Zm0.284,0h0Zm0.663,0,0.19,0.094Zm-45.4.094,0.19,0.094Zm41.422,0h0Zm-6.919.094,0.284,0.094Zm0.379,0,0.19,0.094Zm1.137,0h0Zm1.8,0h0Zm-46.73.094v0.844a0.473,0.473,0,0,0,.474-0.281A2.188,2.188,0,0,1,15.735,22.813Zm-7.393.094,0.095,0.469,0.284-.094-0.284-.375H8.341Zm20.474,0a1.422,1.422,0,0,0,.474,1.219V23.094ZM46.73,23.188l-1.611.375v0.094a3.908,3.908,0,0,0,2.18-.375V23.188H46.73Zm-38.483.094v0.375H8.341Zm32.986,0,0.095,0.375,1.706-.094A6.1,6.1,0,0,1,41.232,23.281Zm-39.242.094v0Zm5.877,0v0Zm0.19,0v0Zm0.758,0c0.119,0.283,0,.112.19,0.281Zm0.948,0a0.34,0.34,0,0,0,.284.188Zm40.095,0.094c0.215,0.194.1,0.156,0.379,0.094Zm-21.9.188-1.043.375v0.094l0.095,0.094,1.517-.094V23.656H27.962Zm-27.2.188h0Zm0.758,0v0.375L1.8,24.313H1.9V23.844H1.517Zm0.474,0a0.548,0.548,0,0,0,.379.469A0.714,0.714,0,0,0,1.991,23.844Zm1.327,0H2.37v0.094l0.095,0.375H2.559a0.554,0.554,0,0,1,.758,0V23.844Zm0.095,0L3.7,23.938Zm0.758,0h0Zm0.664,0h0Zm1.043,0h0Zm1.611,0,0.19,0.094Zm0.758,0,0.19,0.094Zm0.569,0L9,23.938Zm1.611,0h0Zm5.308,0,0.379,0.094Zm8.152,0v0.375h0.379l0.758-.094A4.149,4.149,0,0,0,23.886,23.844Zm25.972,0,0.379,0.094Zm-26.73.094c0.127,0.251.22,0.274,0.284,0H23.128Zm-22.37.188c0.258,0.255.3,0.193,0.569,0H0.758Zm2.654,0L3.7,24.219Zm0.758,0h0Zm0.758,0a0.431,0.431,0,0,0,.474.094Zm1.137,0,0.095,0.188C6.121,24.226,6.237,24.249,6.066,24.125Zm0.569,0v0Zm1.137,0v0Zm0.474,0,0.19,0.094Zm0.664,0L9.1,24.219Zm3.128,0,0.19,0.094Zm2.654,0h0Zm35.166,0,0.379,0.094Zm-43.7,3.094V27.5l0.19,0.188a4.961,4.961,0,0,0,2.464-.094Z"/>
</svg>
