<svg xmlns="http://www.w3.org/2000/svg" width="79.938" height="40" viewBox="0 0 79.938 40">
  <defs>
    <style>
      .cls-1 {
        fill: #fff;
        fill-rule: evenodd;
      }
    </style>
  </defs>
  <path id="Color_Fill_1" data-name="Color Fill 1" class="cls-1" d="M0,20.771l1.639-.188c-0.066,1.247.251,3.193,1.253,3.39H3.566a1.355,1.355,0,0,0,.193-0.848c0.94,0,1.924.055,2.217,0.094V23.126L5.3,21.9l0.1-.094a2.055,2.055,0,0,1,.675,1.318c1.609,0.017,2.521.166,4.337,0.188V22.843h0.578l0.1,0.471V22.561l-0.771.094h-0.1L10.6,22a12.606,12.606,0,0,0,1.349-.282l-2.506-.094-0.1-.188c1.239-.279,2.249.016,2.988-0.659l1.06-.094v0.471h0.578l0.1,0.282-0.578.377h1.06L14.94,17l-0.578-2.072h0.1l0.675,0.377V15.121c0.265-.542.009-1.909,0.193-2.166V12.767a0.363,0.363,0,0,1,.193.188,2.279,2.279,0,0,1,.1,1.224L53.108,10.7a3.476,3.476,0,0,1,.1-1.413c-0.3-.046-0.063.106-0.289-0.094,0.251-.082.337,0.038,0.193-0.188L53.59,9.188c-0.829,1.03.851,2.5,1.542,3.2l6.651,7.063c0.591,0.721,1.781,2.573,3.181,2.072l-0.482-.094,0.1-.471c0.774-.1.439-0.365,1.542-0.377,0.744,0.678,1.75.368,2.988,0.659l-0.193.282c0.579,0,2.107-.093,2.217-0.377,0.377,0.429,4.959.295,5.88,0.094,0.7-.152,1.94.272,2.313-0.188a3.286,3.286,0,0,0,.482-1.318c0.019,1.421.321,2.183-.1,2.825-1.2.618-.566,2.561-0.964,3.955a4.349,4.349,0,0,1-2.988,3.013l-7.325.283-14.361.094H14.554l-3.566-.753-6.458.282L4.241,30l-1.157-.659V29.058a1,1,0,0,0,.771-0.942c0.511,0.213.38,0.524,0.867,0.753V27.834l-1.735-.282a1.8,1.8,0,0,1-.867,1.789l-0.578.094-0.578-.377a3.209,3.209,0,0,1-.193-1.789L2.12,27.457l-1.831-.471c0-.973.193-3.861,0.193-3.861a1.465,1.465,0,0,1,1.253.094,3.516,3.516,0,0,1-.193-1.6h-0.1L0,21.713V20.771ZM42.121,21.9l2.41-.094a0.731,0.731,0,0,1-.578-0.188l0.1-.377a7.01,7.01,0,0,1,1.735-.377l0.193,0.565h2.6v0.283H46.072V21.9h1.542a0.96,0.96,0,0,1-.289.942l1.735,0.094a12.34,12.34,0,0,1-.675-3.955l0.386-.282,0.771-.188v0.094l-0.289.094,0.289-.094L49.735,18.7a26.928,26.928,0,0,0,3.47-7.722c-2.089,1.059-5.661.519-8.289,0.942l-17.928,1.7c-1.73.279-7.772,0.062-8.1,1.318l18.024,3.861c1.4,0.154,2.128-1.066,2.8-1.036,0.275-.122.058-0.142,0.386-0.094-0.179,1.14.518,3.581,0.771,4.8l0.386,0.282h0.867V21.9ZM53.687,11.354a32.019,32.019,0,0,0,1.157,3.578c-0.529.2,0.085,3.258,0.482,3.955a3.218,3.218,0,0,1,1.542-.565,1.105,1.105,0,0,1,.1.942l1.253,0.282q-0.048.753-.1,1.507h4.627l-0.675-.659Zm-0.578.659-1.253,3.861,0.482,4.144,0.289-.094C52.658,17.913,53.759,13.653,53.108,12.014Zm-34.6,2.26-1.639.283L18.6,14.839l0.193-.565H18.506Zm34.988,0.188v0.283l0.1-.283h-0.1Zm-37.687.094,0.1,0.659a0.363,0.363,0,0,0,.193.188l0.771,0.282,0.1-1.036h-0.1ZM54.072,14.65a0.363,0.363,0,0,1-.193.188l0.289,0.188Zm-36.819.188a1.3,1.3,0,0,0,0,1.036l0.771,0.283,0.386-1.13Zm15.518,6.874a1.057,1.057,0,0,1,.771,0V21.148H34.7l0.1,0.282c-0.135.393-.167,0.465,0.193,0.659a11.422,11.422,0,0,1,.482-3.108h0.1l0.386,0.283c-0.537,1.115.375,2.208,0.482,3.484l0.964-.094-0.578-3.39c-0.532-.8-2.881-0.782-3.952-1.036l-10.12-2.26c-0.741-.206-3.767-1-4.048-0.659l-0.482,1.036L32.1,21.619a1.2,1.2,0,0,1,.1-0.659l0.578,0.188v0.565Zm21.4-6.592v0Zm-39.422.188,0.289,0.942h0.1C15.142,15.612,15.12,15.557,14.747,15.309ZM15.9,15.686l0.1,1.6,0.482,0.094,0.289-1.413Zm-0.578.283,0.1,0.753h0.1V16.157Zm1.735,0.188-0.289,1.318,0.482,0.188,0.193-.282,0.386-.848ZM51.566,16.44l-0.867,1.7c0.885,0.136,1.118,2.552,1.253,3.673h0.482l0.1-.283C51.7,20.349,52.454,17.638,51.566,16.44Zm-33.446.094-0.482,1.224,12.916,3.673Zm-2.8.377-0.1.188C15.372,16.941,15.382,17.114,15.325,16.91ZM16.1,17.57l0.193,0.848,0.1-.753Zm0.578,0.188a7.859,7.859,0,0,0-.289,2.166h0.1l0.771-1.978Zm37.4,0c-0.07.742-.1,0.677,0.193,0.942Zm-38.554.094v0Zm1.349,3.955c0.343,0.008,1.092.127,0.867-.188a0.557,0.557,0,0,1-.482-0.094l0.1-.377h0.578V20.677l1.157,0.094,0.193,0.565,2.6,0.094v0.094l-2.506.188v0.094l10.313-.377L17.446,18.04C17.009,20.061,16.727,19.591,16.868,21.807Zm22.361-3.579,0.193,0.094Zm11.374,0-0.1.188C50.649,18.26,50.659,18.432,50.6,18.229Zm-11.663.094,0.193,0.094Zm-0.289.094,0.193,0.094Zm11.277,0,0.193,0.094Zm-11.952.188v0.188C38.07,18.629,38.064,18.773,37.976,18.605Zm-0.289.094v0.188C37.781,18.724,37.775,18.867,37.687,18.7Zm11.277,0-0.193.094v0.094C49.009,18.758,49.006,18.9,48.964,18.7Zm4.627,0c-0.071.584-.24,0.97,0.193,1.224Zm0.482,0.094a0.345,0.345,0,0,0,.289.188A0.345,0.345,0,0,0,54.072,18.794Zm2.7,0V19.17h0.1Zm-2.506.282-0.1.282C54.37,19.144,54.28,19.323,54.265,19.076Zm-39.036.188-0.385,1.789h0.771A5.2,5.2,0,0,0,15.229,19.265Zm38.843,0.282v0.377h0.386V19.547H54.072Zm-0.675.471,0.386,0.094Zm0.675,0,0.289,0.094ZM16.1,20.112l-0.1.659h0.1V20.112ZM35.47,20.206l-0.1.471C35.581,20.469,35.564,20.495,35.47,20.206Zm16.964,0.188c-0.017.72,0.043,0.636,0.289,0.848Zm0.386,0-0.193.094a0.7,0.7,0,0,0,.193.565h0.1Zm0.289,0-0.1.659A0.478,0.478,0,0,0,53.108,20.395ZM53.4,20.489l0.1,0.565h0.1l0.1-.565H53.4Zm0.771,0.094c0.078,0.466-.064.28,0.289,0.471V20.771Zm-18.8.188-0.1.377,0.289,0.094V20.771H35.374Zm18.313,0v0.282l0.1-.282h-0.1Zm25.928,0.094-0.1.282C79.72,20.933,79.63,21.112,79.615,20.866Zm-45.687.471,0.1,0.282h0.1C34,21.334,34.122,21.506,33.928,21.336Zm24.386,0a10.87,10.87,0,0,0,5.012.094Zm-0.289.094c0.219,0.2.1,0.157,0.386,0.094Zm8.482,0a3.377,3.377,0,0,0,2.217,0H66.506Zm12.723,0-0.1.188,0.578-.094V21.431H79.229Zm-2.313.094-0.1.188,1.06-.188H76.916Zm1.06,0h0Zm-4.819.094-0.385.094v0.094h0.578V21.619H73.157Zm0.386,0a1.09,1.09,0,0,0,.964,0H73.542Zm1.06,0h0Zm1.157,0h0Zm-42.12.094v0Zm0.289,0V22h0.193C34,21.711,34.122,21.883,33.928,21.713Zm24.1,0,0.1,1.883c0.131-.562.394-0.267,0.675-0.659V22.372L60.819,22Zm6.458,0v0Zm0.289,0,0.193,0.094Zm1.735,0L66.8,21.807Zm3.181,0L69.2,21.9h0.578V21.713h-0.1Zm0.482,0c0.226,0.2-.011.042,0.289,0.094V21.713H70.169Zm1.06,0h0Zm-46.072.094-0.193.377,0.578,0.942h2.313V23.031L27.374,22l0.482,0.094C27.413,21.668,26.023,21.774,25.157,21.807Zm3.663,0-0.867.094c0.463,0.906.93,1.2,0.964,2.166H29.2l0.1-.565a0.976,0.976,0,0,0,1.253-.659c-0.407.176-.1,0.294-0.482,0.094a0.832,0.832,0,0,1,.482-0.659l0.386,0.094A2.759,2.759,0,0,0,28.819,21.807Zm1.735,0,0.771,0.282Zm2.7,0L33.06,21.9S33.461,21.862,33.253,21.807Zm27.47,0a1.37,1.37,0,0,0,1.349.282l0.482,1.224h1.639l0.193-.565C63.22,21.962,62.488,22,60.723,21.807Zm3.47,0H63.325l0.868,0.565V21.807Zm15.132,0L78.843,22V22.09h0.385A0.582,0.582,0,0,1,79.711,22C79.522,21.8,79.675,21.9,79.325,21.807Zm-57.639.377,1.928-.283L21.2,22a3.144,3.144,0,0,0-.578,1.507h0.386C21.2,22.724,21.649,23.3,21.687,22.184Zm2.988-.283,0.1,0.188C24.73,22,24.848,22.026,24.675,21.9Zm7.229,0L32.193,22Zm0.578,0L32.675,22Zm44.723,0L76.819,22V22.09L77.88,22Zm0.771,0a0.615,0.615,0,0,0,.771.094ZM20.723,22l-0.1.659,0.289-.188,0.1-.471H20.723Zm2.988,0-0.193.094S23.919,22.05,23.711,22ZM23.9,22v0Zm0.289,0,0.386,0.094Zm9.349,0,0.193,0.094ZM65.06,22v0.377h0.1Zm1.349,0L66.6,22.09Zm8.578,0h0Zm0.771,0h0ZM22.94,22.09l0.385,0.094Zm29.108,0,0.386,0.094Zm12.627,0,0.193,0.282,0.1-.282H64.675Zm-41.928.094-0.1.188h0.193Zm38.458,0,0.386,0.094Zm6.94,0,0.193,0.094Zm-46.265.094v0Zm0.193,0,0.289,0.094Zm38.169,0-0.193.094S60.449,22.333,60.241,22.278Zm0.386,0v0.188C60.721,22.3,60.714,22.446,60.627,22.278Zm-0.867.094v0Zm-0.578.094v0.188C59.275,22.49,59.269,22.634,59.181,22.466Zm5.4,0,0.193,0.094Zm-23.9.094v0Zm23.807,0.094-0.1.471a0.827,0.827,0,0,0,.289-0.377Zm-62.651.188c-0.026.662,0.02,0.925,0.482,1.13Zm29.2,0.188-0.193.471h0.386l0.1-.471H31.036Zm-30.265.094L0.964,23.22Zm27.181,0v0.942c0.409-.176.447-0.047,0.386-0.471l0.1-.188H28.241Zm3.566,0a0.345,0.345,0,0,0,.289.188A0.345,0.345,0,0,0,31.518,23.126Zm5.3,0v0Zm0.193,0c0.171,0.2.16,0.172,0.482,0.094Zm3.759,0c0.213,0.2.187,0.186,0.482,0.094Zm0.578,0,0.289,0.188Zm0.482,0c0.22,0.144.117,0.172,0.386,0.094ZM64.289,23.22l0.193,0.094ZM25.446,24.256l2.313-.188,0.1-.753h-0.1l-2.313.377v0.565ZM1.349,23.5L1.542,23.6Zm3.373,0L4.916,23.6Zm0.964,0L5.88,23.6Zm1.349,0v0ZM7.807,23.6h0Zm1.831,0h0Zm10.988,0c0.192,0.352.008,0.2,0.482,0.283V23.785A0.665,0.665,0,0,0,20.627,23.6Zm0.867,0.188,0.193,0.094Zm7.9,0h0Zm28.626,0.659a1.526,1.526,0,0,0,1.349-.282,2.28,2.28,0,0,1-1.349-.377v0.659Zm4.723-.659a0.834,0.834,0,0,0-.289.471,1.585,1.585,0,0,0,.867-0.377V23.785H62.747Zm-62.072.094v0Zm3.47,0,0.289,0.094Zm0.482,0,0.289,0.094Zm1.06,0,0.1,0.188C5.742,23.98,5.86,24,5.687,23.879Zm0.675,0v0Zm0.675,0v0Zm0.386,0v0Zm14.361,0v0.377h0.964V23.879H21.783Zm-12.145.094,0.193,0.094Zm0.482,0,0.289,0.094Zm0.771,0,0.193,0.188A0.363,0.363,0,0,0,10.892,23.973Zm9.735,0,0.193,0.283C20.7,23.971,20.821,24.143,20.627,23.973Zm39.036,0.188v0Zm-57.157,3.3,0.386,0.094Zm2.8,0.565,0.1,0.753a8.093,8.093,0,0,0,3.277-.094Z" transform="translate(0 0.5)"/>
</svg>
