<svg xmlns="http://www.w3.org/2000/svg" width="80" height="40" viewBox="0 0 80 40">
  <defs>
    <style>
      .cls-1 {
        fill: #fff;
        fill-rule: evenodd;
      }
    </style>
  </defs>
  <path id="Color_Fill_1" data-name="Color Fill 1" class="cls-1" d="M48.551,10.3h1.14L49.6,10.013l-0.38-.287,0.19-.383h0.475V9.917h0.38c-0.234.187-.038,0.054-0.285,0.1a1.862,1.862,0,0,1,.38.479c-0.706.357-.337,1.361-0.475,2.013l0.38,0.1V12.025l0.665,0.1,0.095-1.15h0.665a2.272,2.272,0,0,1-.57,1.246,2.059,2.059,0,0,0,1.045-.287l0.475,0.383a1.41,1.41,0,0,1-.855.192,1.1,1.1,0,0,1,.38.767,1.22,1.22,0,0,0-.855.287,3.366,3.366,0,0,0,.57,1.629c-0.635.214-.169,3.009,0.095,3.738h0.38l0.1-1.15c-0.2-.194-0.13-0.1-0.19-0.479l1.045-.1V17.1c-0.247-.083-0.332.039-0.19-0.192H53.4a1.766,1.766,0,0,0,1.235.479v0.288h-0.19l0.095,0.383h0.475V17.871l0.19-5.558c-0.03,1.222-.467,4.727.19,5.462l0.285,0.288c0.514-.384.48-0.1,1.235,0v0.863c0.169-.343-0.05-0.113.285-0.288a1.828,1.828,0,0,0,.285.671c-0.2.188-.1,0.036-0.19,0.383l0.57,0.1a9.689,9.689,0,0,0,0,2.2,5.439,5.439,0,0,0,1.615.1l0.285,1.246a1.443,1.443,0,0,1,.285-0.383l0.095,0.383-0.095-.671a1.535,1.535,0,0,0,.57-0.383,1.106,1.106,0,0,0,0,1.054,7.852,7.852,0,0,1,3.04-.192V22.663l1.9,0.192a5.108,5.108,0,0,1,.285-1.725,5.725,5.725,0,0,1,1.9.192c0.174,0.247.021-.05,0.285,0.1a0.989,0.989,0,0,1,.19-0.767,1.037,1.037,0,0,0,.57-0.1l0.095,0.287-0.095.479c-0.5-.03-0.2-0.244-0.475.192a3.153,3.153,0,0,1,1.71.192l-2.185.192-0.095.287,0.19,0.575L79.525,21.7l0.1-.192,0.19-2.4h0.095q0.048,1.773.095,3.546c-0.233.947-1.271,2.034-1.615,3.162L77.72,30.138H66.508L66.318,31l-1.235-.1V30.233H26.6c-6.195,0-12.381-.488-17.672,0l0.1,0.575c-0.413-.084-0.159-0.1-0.57.192V30.233l-1.14-.1-0.38.767a3.69,3.69,0,0,1-2-.287,7.156,7.156,0,0,1-.19-2.2H6.366l-4.941-.383v-0.1a7.294,7.294,0,0,0,0-3.738H1.9c-0.064-.961-0.164-1.015-0.19-2.3l-1.615.1L0,21.033l0.1-.1,1.71-.192L2.185,24.1a15.814,15.814,0,0,0,3.991-.383V24.1c1.743,0.026,8.069.037,8.456-.288,0.139,0.458-.089.215,0.38,0.288,0.227-.375,2.521-0.135,3.515-0.1l0.095-.863-0.19.1c-0.1-.111-2.051-0.223-1.9-0.479l2.47-.1V22.279a2.825,2.825,0,0,1,1.615.288c-0.027.475,0.444,1.2,0.38,1.438,0.755-.273,1.246.115,1.9,0V22.183H24.7l0.19-.383V21.7a2.408,2.408,0,0,1-1.52-.192c1.353,0,1.621-.355,2.85-0.383a1.157,1.157,0,0,1,.475,1.054l2.375,0.1,0.1-1.437h0.1v1.438h0.76V21.8h0.855v0.479h0.665a3.008,3.008,0,0,0,.38-1.15c0.853,0,.609-0.08.95-0.383l0.38,0.1a1.353,1.353,0,0,0-.285.288h0.95a1.582,1.582,0,0,1,.19,1.054h0.57l0.19-2.683,0.19,0.1q-0.048.767-.095,1.533l0.76-.479a2.3,2.3,0,0,1,.76-2.3c0.125,0.267.279,0.046,0.665,0a21.536,21.536,0,0,1,.1-3.258c0.8,0.7,2.494-.415,3.23-0.767l4.181-1.917c1.177-.7,2.029-2.081,3.705-2.2a4.539,4.539,0,0,0-.38-1.15h0.095a1.354,1.354,0,0,0,.285.287V8.671a0.7,0.7,0,0,1-.285-0.287c0.326-.485.329-0.442,0.76-0.192v0.1A6.521,6.521,0,0,0,48.551,10.3ZM48.266,8.192c0.087,0.35,0,.2.19,0.383C48.335,8.27,48.485,8.356,48.266,8.192Zm0.285,0V8.575l0.19-.192ZM47.791,10.3l-3.42,2.492,0.1,0.192h0.095l2.945-1.629a2.6,2.6,0,0,0,1.52.767A3.2,3.2,0,0,0,47.791,10.3Zm0.38,0,0.095,0.287h0.095A0.337,0.337,0,0,0,48.171,10.3Zm1.52,1.821V10.492l-1.14.1,0.665,1.533h0.475Zm-2.28-.575-2.755,1.725,0.855,1.15,2.375-.383Zm0.19,0.1,0.475,2.3h0.38l1.14-.288v-0.1A9.045,9.045,0,0,0,47.6,11.642Zm0.95,0.575,0.855,0.767-0.285-.767h-0.57Zm0.76,0c0.157,0.346.026,0.225,0.38,0.383V12.217h-0.38Zm1.615,0.192a0.363,0.363,0,0,0,.19.192Zm-1.33.383v0Zm0.38,0a0.393,0.393,0,0,0,.57.1Zm0.665,0c0.16,0.238.057,0.112,0.285,0H50.641Zm0.475,0,0.19,0.192A0.363,0.363,0,0,0,51.116,12.792Zm-7.031.1L39.715,15C40.752,14.773,44.39,13.373,44.086,12.888Zm5.606,0.383c0.223,0.361.035,0.253,0.38,0.287Zm1.615,0-0.095.192,0.19-.192h-0.1Zm-7.221.192A10.74,10.74,0,0,1,40.19,15v0.1l4.846-.575-0.19-.192A1.136,1.136,0,0,0,44.086,13.463Zm6.271,0.287-0.19.958h0.38V13.75h-0.19Zm-0.475.1v0.479h0.095l0.1-.479h-0.19Zm-0.38.1-1.425.383,0.57,3.546h0.285l0.19-.1C49.279,16.547,50.161,14.99,49.5,13.942Zm-2.09.479-1.235.287a11.081,11.081,0,0,0,2.28,3.354l-0.57-3.642H47.411ZM45.7,14.8l0.38,0.479Zm-0.76.1a59.649,59.649,0,0,1-7.506,1.054c0.132,2.019.176,4.978,1.33,6.038a2.1,2.1,0,0,0,1.52-.767,0.91,0.91,0,0,1-.19-0.479h0.38a1.437,1.437,0,0,0,.855.863,0.727,0.727,0,0,1,.76-0.863,11.186,11.186,0,0,0,1.33,1.342c0.194-.431.323-0.411,0.95-0.383l0.285,0.288,0.095-.671a2.5,2.5,0,0,0,2.09.575c-0.344-1.9-.839-3.495.665-4.025l-0.38-.383-1.9-2.588H44.941Zm5.606,0.958V14.9h-0.38l-0.19.192-0.19.767h0.76Zm0.665-.479c-0.013.821-.063,3.205,0.475,3.546V18.35Zm-1.52.671,0.095,0.287h0.38V16.05H49.691Zm0.665,0,0.1,0.287h0.095A0.337,0.337,0,0,0,50.356,16.05Zm0.57,0,0.095,0.575Zm-0.38,2.2V16.529l-0.95.1-0.38,1.629h1.33Zm0.38-1.437,0.095,1.533Zm-13.587.767a2.553,2.553,0,0,0,.19,1.342h0.095Zm17.2,0.575v0.383h0.475V18.158H54.537Zm0.95,0-0.095.383h0.475V18.158h-0.38Zm0.76,0-0.095.383h0.38V18.158H56.247Zm0.38,0v0.383h0.095Zm-8.266.1v0.287l0.1-.287h-0.1Zm2.755,0,0.095,0.671Zm-2,.192c0.184,0.29.019,0.155,0.38,0.288V18.446h-0.38Zm0.475,0v0.288h0.665V18.446H49.6Zm0.76,0v0.288h0.19A0.337,0.337,0,0,0,50.356,18.446Zm0.57,0,0.095,0.479Zm3.61,0.192c0.19,0.358.008,0.2,0.475,0.288V18.638H54.537Zm0.855,0,0.095,0.288h0.38V18.638H55.392Zm0.76,0c0.187,0.357-.041.157,0.38,0.288V18.638h-0.38Zm0.475,0v0.288l0.095-.288H56.627Zm-6.271.288,0.19,0.1Zm0.19,1.246-0.095-1.054c-0.814-.078-1.32-0.277-1.52.383l0.855,0.1C49.818,20.051,49.753,20.2,50.546,20.171Zm-1.71-.479,0.095,0.671Zm0.95,0.671a3.468,3.468,0,0,0,.76.192A0.825,0.825,0,0,0,49.786,20.363Zm0,0.287a0.482,0.482,0,0,0,.76,0h-0.76Zm0.76,1.246V21.033a3.714,3.714,0,0,1-1.615-.192V21.8h0.285A1.851,1.851,0,0,0,50.546,21.9Zm-15.3.287h0.665L35.82,21.129l-0.475.383Zm2.85-.671L38.29,21.8Zm2.09,0.1-0.475.383C39.846,21.935,40.46,21.73,40.19,21.608Zm4.656,0v0.383l0.57-.1Zm-3.23.1,0.19,0.1Zm0.855,0-0.19.288,0.285,0.1Zm0.285,0-0.095.383C42.857,21.87,42.819,21.988,42.755,21.7Zm36.865,0-0.1.383,0.19-.383H79.62Zm-36.675.1v0.287h0.19Zm23.753,0,0.19,0.1Zm12.447,0-0.95.192v0.192h0.57a0.636,0.636,0,0,0,.57-0.383h-0.19Zm-12.637.1-0.095.383C66.61,22.062,66.572,22.179,66.508,21.9Zm-0.19.1-0.475.1a2.077,2.077,0,0,1,.475.575V21.992Zm11.306,0a0.677,0.677,0,0,0-.475.383l0.95-.1V21.992H77.625Zm-28.409.1a0.341,0.341,0,0,0,.285.192A0.341,0.341,0,0,0,49.216,22.088Zm0.475,0a0.71,0.71,0,0,0,.855.1Zm17.1,0,0.1,0.671A0.624,0.624,0,0,0,66.793,22.088Zm9.976,0-0.19.1v0.192h0.475V22.088H76.77Zm-1.045.1-0.855.1v0.288h0.475l1.045-.288Zm3.515,0-1.045.192v0.383l1.045-.287,0.095-.288H79.24Zm0.19,0v0.383l0.095-.192h0.19V22.183H79.43Zm-45.321.1v0Zm1.71,0-0.285.1v0.1c0.347-.087.194,0,0.38-0.192H35.82Zm22.043,0v0Zm0.285,0a0.34,0.34,0,0,0,.285.192A0.34,0.34,0,0,0,58.147,22.279Zm0.38,0a0.487,0.487,0,0,0,.665.1Zm0.76,0v0Zm-31.544.1a0.593,0.593,0,0,0,.76.1Zm0.95,0-0.095.192c0.287-.121.114,0,0.285-0.192h-0.19Zm0.665,0,0.285,0.192A0.341,0.341,0,0,0,29.359,22.375Zm0.475,0,0.095,0.192C29.889,22.478,30,22.5,29.834,22.375Zm1.14,0a1.812,1.812,0,0,0,.57.192A0.566,0.566,0,0,0,30.974,22.375Zm18.242,0-0.1.288H49.5V22.375H49.216Zm0.475,0a0.71,0.71,0,0,0,.855.1Zm16.817,0-0.095.383C66.61,22.541,66.572,22.659,66.508,22.375Zm7.221,0-0.19.288,1.235-.1A1.517,1.517,0,0,0,73.729,22.375Zm3.9,0-0.475.192v0.1L78,22.758l0.1-.287v-0.1H77.625Zm-4.846.1-0.19.192,0.57,0.1,0.285-.192Zm-14.917.1v0.287l0.095-.287H57.862Zm0.285,0,0.285,0.1Zm0.38,0a0.478,0.478,0,0,0,.475.287V22.567H58.527Zm13.112,0,0.19,0.287,0.38-.192v-0.1h-0.57Zm0.665,0,0.19,0.1Zm-43.325.1V22.95l0.095-.287H28.979Zm0.285,0c0.169,0.343-.05.113,0.285,0.287l-0.19-.287H29.264Zm0.285,0,0.19,0.192Zm0.285,0V22.95h0.19A0.337,0.337,0,0,0,29.834,22.663Zm5.8,0-0.1.192c0.347-.087.194,0,0.38-0.192H35.63Zm23.658,0v0Zm11.306,0-0.855.1v0.288H70.4a0.555,0.555,0,0,0,.475-0.383H70.594Zm0.38,0c0.183,0.29.019,0.155,0.38,0.287v-0.1Zm4.846,0,0.19,0.1Zm-48.076.1a0.593,0.593,0,0,0,.76.1Zm0.855,0V22.95C28.691,22.783,28.685,22.929,28.6,22.758Zm45.986,0-1.045.192a1.088,1.088,0,0,0,1.14-.192H74.584Zm0.285,0h0Zm-1.9.192-0.095.192,0.57-.1Zm-53.492.1,0.19,0.1Zm52.447,0a0.341,0.341,0,0,0,.285.192A0.341,0.341,0,0,0,71.924,23.046Zm-52.162.1v0.383h0.19Zm0.76,0-0.475.1v0.671A1.564,1.564,0,0,0,20.523,23.142Zm50.451,0c0.216,0.2.1,0.16,0.38,0.1Zm-7.886.1-0.19.383,0.285-.1Zm0.19,0c0.187,0.357-.041.157,0.38,0.287V23.238h-0.38Zm6.461,0a0.526,0.526,0,0,0,.665.1Zm-50.166.1V24h0.1Zm41.805,0v0.287a2.572,2.572,0,0,1,.475-0.192Zm0.665,0c0.128,0.257.22,0.28,0.285,0H62.043Zm-2.28.1-0.19.1a0.341,0.341,0,0,0,.285.192V23.429H59.763Zm-40,.192V24h0.19C19.866,23.654,19.956,23.808,19.763,23.621Zm43.515,0a0.686,0.686,0,0,0,.475.288A0.478,0.478,0,0,0,63.278,23.621Zm-1.235.1c0.128,0.257.22,0.28,0.285,0H62.043Zm-2.47.1V24.2L59.953,24Zm-48.171.1v0Zm-5.8.1h0ZM16.342,24.2v0.288h0.475V24.2H16.342Zm5.891,0v0.288H22.9L22.8,24.2h-0.57Zm-19.858.1c0.269,0.212.4,0.261,0.665,0H2.375Zm0.855,0a0.34,0.34,0,0,0,.285.192A0.34,0.34,0,0,0,3.23,24.292Zm0.38,0L3.8,24.483A0.363,0.363,0,0,0,3.61,24.292Zm2.755,0a1.125,1.125,0,0,0,1.14.1Zm1.235,0a1.125,1.125,0,0,0,1.14.1Zm1.235,0a0.593,0.593,0,0,0,.76.1Zm2.755,0a0.659,0.659,0,0,0,.95,0h-0.95Zm1.045,0a0.974,0.974,0,0,0,1.235.1Zm3.325,0a0.34,0.34,0,0,0,.285.192A0.34,0.34,0,0,0,15.962,24.292Zm-14.252.1-0.1.1,0.19,0.192L2,24.483v-0.1H1.71Zm3.9,0.1h0Zm10.736,0.1c0.258,0.26.3,0.2,0.57,0h-0.57Zm5.891,0-0.1.288v0.1H22.8V24.579h-0.57Zm-19.572.1v0.287h0.1l0.285-.192Zm0.57,0a0.7,0.7,0,0,0,.285.287V24.675H3.23Zm0.38,0v0.192C3.7,24.7,3.7,24.846,3.61,24.675Zm1.425,0v0Zm1.33,0v0.287h1.14V24.675H6.366Zm1.235,0v0.287H8.646l0.1-.287H7.6Zm1.235,0v0.287l0.76-.1Zm2.755,0v0.287h0.95V24.675h-0.95Zm1.045,0a0.9,0.9,0,0,0,1.235,0H12.637Zm2.28,0v0Zm1.045,0c0.128,0.257.22,0.28,0.285,0H15.962Zm-13.777.1v0Zm2.09,0,0.19,0.1Zm9.976,0v0.192C14.345,24.8,14.339,24.941,14.252,24.771Zm-12.542.1c0.16,0.238.057,0.112,0.285,0H1.71Zm4.941,3.546,0.855,0.479-0.19.863h0.1l1.045-.192V28.6Zm2.28,1.054H9.406V28.7l-0.57-.1v0.1Zm0.855,0c1.1,0.04,2.7.323,3.705-.1H13.3c-0.672-.612-2.464-0.486-3.515-0.671v0.767Z" transform="translate(0 0.484)"/>
</svg>
