<?xml version="1.0" encoding="utf-8"?>
<!-- Generator: Adobe Illustrator 16.0.0, SVG Export Plug-In . SVG Version: 6.00 Build 0)  -->
<!DOCTYPE svg PUBLIC "-//W3C//DTD SVG 1.1//EN" "http://www.w3.org/Graphics/SVG/1.1/DTD/svg11.dtd">
<svg version="1.1" id="Layer_1" xmlns="http://www.w3.org/2000/svg" xmlns:xlink="http://www.w3.org/1999/xlink" x="0px" y="0px"
	 width="80px" height="40px" viewBox="0 0 80 40" enable-background="new 0 0 80 40" xml:space="preserve">
<path id="Color_Fill_1" fill="#FFFFFF" d="M45.773,6c0.123,0.15,0.123,0.366,0,0.516V6z M45.879,6.826
	c0.115,0.295,0.149,0.616,0.1,0.93v0.1h-0.1V6.826z M44.725,7.342c0.147,0.051,0.289,0.121,0.42,0.207h-0.42V7.342L44.725,7.342z
	 M46.193,7.342H46.4v0.1C46.322,7.432,46.25,7.397,46.193,7.342L46.193,7.342z M45.459,7.652h0.21v0.1h-0.101v0.1
	C45.512,7.799,45.475,7.729,45.459,7.652L45.459,7.652z M44.934,7.859h0.211v0.1C45.064,7.95,44.991,7.915,44.934,7.859z
	 M45.879,8.066h0.21V9.1h-0.101V8.892C45.969,8.615,45.932,8.339,45.879,8.066z M41.784,8.166h0.21v0.1h-0.1v0.1
	c-0.057-0.053-0.095-0.122-0.109-0.197L41.784,8.166z M46.508,8.682h0.21v0.207h-0.21V8.685V8.682z M46.193,8.889H46.4V9.1h-0.211
	V8.892L46.193,8.889z M46.508,9.405h-0.314c0.051,0.348,0.016,0.703-0.104,1.033c0-0.575-0.026-0.71,0-1.136
	c0.161-0.012,0.312-0.086,0.42-0.207L46.508,9.405L46.508,9.405z M27.717,17.98h0.63c-0.013-0.145,0.022-0.289,0.1-0.412v0.723h-0.1
	c-0.155-0.264-0.223-0.207-0.63-0.207v1.549h0.42c-0.014-0.145,0.021-0.29,0.1-0.412v0.412h0.315
	c-0.02-0.179,0.017-0.359,0.105-0.516c-0.034,0.246,0.002,0.496,0.105,0.723c0.217-0.318,0.58-0.047,1.155,0v-3.2
	c0.91-0.089,1.829-0.056,2.73,0.1c-0.014-0.416-0.057-0.565,0.21-0.723v2.272l1.05,0.93l0.63-0.1
	c0.062,0.646,0.239,1.275,0.525,1.859V20.77c0.111-0.297,0.146-0.616,0.1-0.93c0.353-0.051,0.713-0.016,1.05,0.1
	c-0.329-0.112-0.693-0.032-0.945,0.207h0.105c0.302-0.109,0.626-0.144,0.945-0.1c-0.046-0.313-0.012-0.633,0.1-0.93
	c-0.113,0.324-0.032,0.686,0.21,0.93c1.149,0.143,2.31,0.176,3.465,0.1v-0.513l-0.84-0.1c0-0.278-0.034-0.556-0.1-0.826H40.1
	c-0.008-0.382,0.027-0.763,0.105-1.136h0.1c0.215,0.147,0.474,0.22,0.735,0.205V18.7h0.735v0.207c0.102,0.194,0.102,0.426,0,0.62
	c-0.328-0.014-0.653,0.058-0.945,0.207c-0.065,0.09-0.101,0.198-0.1,0.31h0.1c-0.003-0.112,0.033-0.221,0.1-0.31v0.31
	c0.311,0.012,0.612-0.101,0.84-0.31v0.31c-0.064,0.09-0.1,0.198-0.1,0.31h0.314c0.09-1.066,0.057-2.141-0.1-3.2H42.2v0.1
	c-0.308,0.469-0.119,1.9-0.104,2.582c0.77-0.044,0.609-0.3,1.154-0.1l0.1-0.62c0.055,0.056,0.09,0.128,0.101,0.206h0.21
	c-0.171,0.199-0.248,0.463-0.21,0.723c0.483,0.102,0.978,0.136,1.47,0.1c0.209-0.021,0.42-0.021,0.63,0
	c0.421-0.307,0.626-0.831,0.525-1.343c0.337-1.595,0.478-3.225,0.42-4.854c0.013,0.145-0.022,0.29-0.101,0.413
	c-0.008-0.326-0.217-0.614-0.524-0.723c0.147,0.013,0.294-0.022,0.42-0.1c0.087-0.157,0.124-0.337,0.104-0.516h-0.516
	c0.027,0.212-0.009,0.428-0.105,0.62V12.92c0.182,0.021,0.365-0.014,0.525-0.1c-0.182,0.021-0.364-0.014-0.525-0.1H46.3
	c-0.039-0.28-0.003-0.565,0.104-0.826v1.026h0.631v-0.826h-0.316v-0.31l1.155-0.207v0.516H47.77
	c-0.196-0.106-0.41-0.177-0.631-0.207v1.034c0.216,0.028,0.435-0.006,0.631-0.1h-0.525V12.4l1.256-0.2v0.516l-0.63-0.1
	c0.026,0.352,0.097,0.699,0.21,1.033c-0.182-0.021-0.364,0.014-0.525,0.1c0.16,0.362,0.16,0.774,0,1.136v-0.62h-0.84
	c-0.013,0.827-0.516,3.123-0.21,3.615c-0.022-0.179,0.013-0.358,0.101-0.516v0.723h1.154v-0.725c-0.387,0.056-0.783,0.022-1.154-0.1
	c1.393,0.017,1.644,0,2.939,0c-0.156-0.29-0.264-0.604-0.314-0.93h0.314v-1.139h1.575v-0.62c-0.274,0-0.093,0.134-0.315-0.1
	c0.377-0.245,0.075-0.484,0.631-0.62c0.099,0.44,0.133,0.893,0.1,1.343c0.363,0.076,0.742,0.001,1.05-0.207
	c0.153-0.143,0.101,0.186,0.104,0.207c0.134,0.064,0.039-0.065,0.101-0.1c0.242,0.051,0.487,0.084,0.735,0.1
	c-0.002-0.111,0.033-0.221,0.1-0.31v0.1c0.379,0.377,0.127,0.94,0.84,1.033v-0.1h-0.1c-0.2-0.08,0.21-0.1,0.21-0.1
	c0.149,0.257,0.176,0.244,0.42,0.1c-0.341-0.086-0.16,0.051-0.315-0.207c0.4-0.012,0.288,0.1,0.315-0.413
	c-0.035-0.146,0.002-0.299,0.101-0.413v2.892H55.2c0.407-0.146,0.853-0.146,1.26,0v-0.619h-0.082v-0.1
	c-0.534,0.035-0.726,0.172-0.944-0.207c0.221-0.078,0.433-0.182,0.629-0.31c0.066,0.09,0.102,0.199,0.101,0.31
	c0.559-0.118,1.14-0.084,1.68,0.1c-0.456-0.066-0.923-0.032-1.364,0.1h0.1c0.257,0.21,0.152-0.126,0.314,0.207h-0.305v0.516h3.045
	v1.55c0.212-0.091,0.457-0.052,0.631,0.1v0.31c0.112-0.002,0.223,0.033,0.314,0.101c-0.055,0.057-0.09,0.129-0.1,0.207h0.314
	c-0.027-0.212,0.009-0.429,0.105-0.62v0.62h1.47c-0.214-0.881-0.495-1.744-0.841-2.582h0.421c0.37,0.217,1.114-0.1,1.575,0.101
	c0.383,0.327,0.807,0.605,1.26,0.825c0.882,0.22,1.969-0.2,2.625,0.206c-0.842-0.021-1.684,0.012-2.52,0.1v0.414
	c0.111,0.299,0.182,0.611,0.209,0.93h1.995v-0.399l0.525-0.1c-0.015-0.279,0.019-0.559,0.1-0.826
	c0.057,0.056,0.093,0.128,0.105,0.207c0.087,0.157,0.123,0.337,0.104,0.517c0.389-0.042,0.78-0.008,1.155,0.1
	c-0.034,0.294-0.11,0.214,0,0.412c0.159-0.281,0.293-0.075,0.944,0c0.052-0.179,0.122-0.352,0.211-0.517
	c0.154,0.261,0.046,0.16,0.42,0.207v-0.1h0.105c-0.055-0.228-0.119-0.2,0-0.413c0.092-0.065,0.201-0.101,0.314-0.1v0.1h0.105
	c-0.012,0.143-0.048,0.282-0.105,0.413c0.249-0.011,0.498,0.023,0.734,0.1c-0.013-0.145,0.022-0.29,0.101-0.413v0.413h0.524v-0.413
	h0.42v0.311c0.45-0.1,0.916-0.1,1.365,0c0.146-0.317-0.014-0.301,0.631-0.311c0.233,0.336,0.223,0.1,0.629,0
	c-0.002-0.111,0.033-0.221,0.101-0.31v0.516h0.101v-0.1c0.834,0.192,1.703,0.157,2.52-0.101c-0.027-0.212,0.009-0.428,0.105-0.619
	c0,0.399-0.053,0.465,0.209,0.619c-0.012-0.145,0.025-0.291,0.105-0.412c-0.021,0.178,0.017,0.359,0.105,0.516
	c0.057-0.055,0.131-0.09,0.209-0.1c0.002-0.178,0.036-0.353,0.101-0.518h0.122v0.207c-0.067,0.09-0.104,0.198-0.105,0.311
	c0.424-0.101,0.291-0.215,0.735-0.311c0.045,0.118,0.117,0.225,0.21,0.311c-0.557,0.636-0.6,1.75-0.945,2.582
	c-0.584,1.399-1.062,2.865-1.68,4.338c-0.318,0.584-0.566,1.205-0.734,1.85H13.228c-0.85-1.266-3.328-0.962-5.459-0.93
	c-0.232,0.098-0.485,0.133-0.735,0.1c0.027,0.24,0.027,0.482,0,0.723L6.509,28c-0.012-0.063,0-0.93,0-0.93
	c-0.14-0.061-0.252-0.171-0.315-0.311c0.414-0.164,0.288-0.221,0.21-0.619l0.63-0.101l0.1,0.413h0.1v-0.52h-0.1v-0.1
	c-0.827-0.018-2.812-0.549-3.255-0.311c0.575,0.033,0.626,0.137,0.63,0.724c-0.208,0.3-0.194,0.853-0.42,1.136
	c-0.617,0.158-1.259,0.191-1.89,0.1l-0.1-0.31c-0.303-0.458-0.45-1.001-0.42-1.549h0.1v-0.101c0.541,0.027,1.467,0.127,1.68-0.207
	H2.835C1.96,24.996,1.03,24.854,0.1,24.9c-0.1-1.107-0.231-2.469,0.32-3.2v0.62h0.315c-0.031-0.171-0.031-0.346,0-0.516
	c1.308,0,2.345,0,3.99,0c0.012,0.194-0.065,0.384-0.21,0.516h0.314c0.235-0.1,0.5-0.1,0.735,0C5.49,22.036,5.62,21.738,5.879,21.6
	V21.7c0.093,0.192,0.128,0.407,0.1,0.62H6.3v-1.034h1.05c0.016,0.511,0.013,0.479,0,1.032h0.734c-0.029-0.211,0.006-0.428,0.1-0.619
	v0.619c0.238-0.031,0.459-0.141,0.63-0.31c-0.166-0.718-0.131-1.469,0.1-2.169c0.01,0.893,0,1.453,0,2.479h0.325v-0.205
	c0.085-0.158,0.12-0.339,0.1-0.518h0.1v0.1h0.1V21.6c0.085,0.158,0.12,0.339,0.1,0.518c0.054,0.057,0.089,0.129,0.1,0.206h0.315
	v-1.037h0.945c-0.012-0.146,0.025-0.291,0.105-0.413v1.445h1.155c-0.127-0.824-0.094-1.666,0.1-2.479c0.043,0.725,0,1.526,0,2.479
	c0.245-0.024,0.491-0.024,0.735,0c0.01-0.222,0.083-0.437,0.21-0.619c0.272,0.029,0.186-0.049,0.21,0.412
	c0.189,0.138-0.048,0.171,0.42,0.207v-1.032h0.945c-0.012-0.146,0.025-0.291,0.105-0.413v1.238c0.145,0.012,0.287,0.045,0.42,0.101
	v-0.101c0.06-0.052,0.132-0.086,0.21-0.1V21.7h0.525l-0.105,0.62h0.42V20.77c-0.318,0.046-0.643,0.012-0.945-0.1
	c1.159-0.006,2.119-0.1,3.57-0.1c0.029-0.268-0.049-0.184,0.42-0.207c0.417-0.236,0.918-0.273,1.365-0.1
	c0.075,0.232,0.11,0.477,0.104,0.723h-0.497c-0.233,0.207-0.351,0.516-0.315,0.826c0.056,0.056,0.093,0.128,0.105,0.207h1.26
	c0-0.113,0.036-0.222,0.105-0.311v0.311c0.413-0.087,0.841,0.028,1.155,0.31v-0.423c-0.172-0.111-0.256-0.317-0.21-0.516h0.105
	c0.053,0.084,0.125,0.154,0.21,0.205c-0.126-0.221-0.198-0.469-0.21-0.723H23.1v-0.311c-0.284,0-0.169,0.138-0.315-0.207H23.1
	v-0.412c-0.113,0.003-0.224-0.032-0.315-0.1c0.699-0.043,1.4-0.043,2.1,0v-0.1l-0.315-0.1c-0.326,0.001-0.649-0.07-0.945-0.207
	c0.868-0.021,1.238-0.262,1.68,0c0.012-0.143,0.047-0.283,0.105-0.414c0.167,0.219,0.382,0.396,0.63,0.517v0.101
	c-0.341,0.084-0.16-0.052-0.315,0.207h1.365c0.092-0.066,0.202-0.102,0.315-0.101c0.015-3.787,0.077-5.866,0.105-9.3h0.21v2.685
	C27.947,13.51,27.729,17.044,27.717,17.98z M46.3,11.681c-0.181,0.021-0.364-0.014-0.524-0.1h0.42
	c-0.047-0.313-0.013-0.634,0.1-0.93C46.395,10.987,46.396,11.344,46.3,11.681z M30.552,10.751h0.21v0.1h-0.21V10.751z
	 M26.982,10.958V12.3h-2.31v-1.239C25.434,10.924,26.211,10.89,26.982,10.958z M46.825,11.888c0.058,0.054,0.131,0.089,0.21,0.1
	C46.977,11.933,46.903,11.897,46.825,11.888L46.825,11.888z M47.35,12.508v0.207c0.377-0.043,0.264,0.049,0.42-0.207H47.35z
	 M46.51,13.024v0.516h0.42v-0.517L46.51,13.024L46.51,13.024z M27.822,13.85c0.131,0.186,0.131,0.434,0,0.62V13.85z M47.035,13.85
	c0.058,0.054,0.131,0.089,0.21,0.1C47.188,13.896,47.113,13.86,47.035,13.85L47.035,13.85z M27.927,14.573
	c0.131,0.186,0.131,0.434,0,0.62V14.573z M53.648,14.573h0.211v0.1C53.779,14.664,53.705,14.629,53.648,14.573L53.648,14.573z
	 M47.665,14.883c0.257,0.66,0.292,1.385,0.101,2.066L47.665,14.883z M28.032,15.3c0.137,0.222,0.137,0.502,0,0.723V15.3z
	 M45.775,15.4c0.181-0.021,0.363,0.014,0.524,0.1c-0.181,0.021-0.364-0.014-0.526-0.1H45.775z M28.137,16.123
	c0.13,0.186,0.13,0.434,0,0.62V16.123z M51.863,16.33v0.516h0.945v-0.517L51.863,16.33L51.863,16.33z M53.02,16.33v0.516h0.42
	c-0.031-0.171-0.031-0.346,0-0.516H53.02z M53.544,16.33v0.31h0.315v0.1h-0.101c-0.2,0.08,0.21,0.1,0.21,0.1v-0.511h-0.42
	L53.544,16.33z M54.488,16.43h-0.315v0.1h0.101l-0.101,0.31h0.101c0.117-0.171,0.01-0.064,0.209,0v-0.408L54.488,16.43z
	 M45.775,16.53c0.181-0.021,0.363,0.014,0.524,0.1c-0.181,0.023-0.364-0.01-0.526-0.095L45.775,16.53z M54.699,16.53
	c0.087,0.335-0.051,0.158,0.21,0.31v-0.31H54.699L54.699,16.53z M28.242,16.84c0.137,0.222,0.137,0.502,0,0.723v-0.717V16.84z
	 M32.542,16.84c-0.047,0.313-0.012,0.634,0.1,0.93c0.047-0.311,0.014-0.629-0.096-0.924L32.542,16.84z M79.366,16.84
	c0.056,0.056,0.093,0.129,0.104,0.207H79.37v-0.202L79.366,16.84z M41.781,17.253c0.066,0.089,0.104,0.198,0.105,0.31h-0.102v-0.31
	H41.781z M42.201,17.253c0.065,0.09,0.101,0.199,0.1,0.31H42.2L42.201,17.253L42.201,17.253z M47.975,17.353v0.62h1.575v-0.508
	c-0.517-0.106-1.045-0.141-1.571-0.103L47.975,17.353z M79.262,17.453c0.109,0.115,0.109,0.297,0,0.413v-0.401V17.453z
	 M32.546,19.117c0.145-0.011,0.286-0.045,0.42-0.1c-0.012,0.145,0.025,0.29,0.105,0.412c0.011-0.143,0.044-0.281,0.1-0.412h0.1
	c-0.012,0.145,0.025,0.29,0.105,0.412v-0.416c-0.128-0.148-0.269-0.287-0.42-0.412c-0.162-0.074-0.014-0.014-0.315,0
	c0.035-0.246,0-0.496-0.1-0.724v1.239H32.546z M55.118,17.878c-0.001,0.112,0.036,0.222,0.104,0.31
	C55.224,18.076,55.188,17.967,55.118,17.878L55.118,17.878z M58.688,18.188v-0.31h-2.1v0.101h0.105v0.1
	C57.35,18.204,58.021,18.241,58.688,18.188z M58.788,17.878v0.31h0.735v-0.31h-0.73H58.788z M79.16,18.085
	c0.057,0.056,0.093,0.128,0.105,0.207H79.16V18.085z M46.193,19.427c0.406,0.005,0.807-0.103,1.156-0.31v0.93h0.524v-0.723h-0.315
	c0.045-0.61,0.246-0.543,0.315-1.137H46.4c-0.085,0.303-0.12,0.617-0.105,0.931C46.229,19.207,46.193,19.316,46.193,19.427z
	 M28.451,18.395c0.137,0.221,0.137,0.501,0,0.723V18.395z M57.532,19.323h1.05v0.723h0.525c0.184-0.532,0.289-1.089,0.314-1.651
	c-0.597-0.023-1.194,0.01-1.785,0.1v0.1h-0.1v0.723L57.532,19.323z M79.159,18.395c0.067,0.089,0.104,0.197,0.104,0.31H79.16
	L79.159,18.395L79.159,18.395z M33.91,19.323c0.058,0.054,0.131,0.089,0.21,0.1C34.063,19.369,33.989,19.334,33.91,19.323
	L33.91,19.323z M43.674,19.423h0.21v0.101c-0.078-0.009-0.151-0.043-0.209-0.097L43.674,19.423z M47.034,19.423
	c-0.029,0.212,0.005,0.429,0.1,0.62c0.028-0.211-0.007-0.425-0.1-0.616V19.423z M37.27,19.732h0.21v0.101h-0.21V19.732L37.27,19.732
	z M37.48,19.833h0.21v0.101c-0.078-0.008-0.152-0.041-0.21-0.094V19.833z M59.842,19.833c-0.058,0.054-0.131,0.089-0.21,0.101v0.1
	h0.315c-0.014-0.074-0.05-0.142-0.104-0.193L59.842,19.833z M9.028,19.934c0.055,0.057,0.09,0.129,0.1,0.207h-0.1v-0.197V19.934z
	 M12.598,19.934c0.056,0.055,0.093,0.128,0.105,0.207H12.6v-0.197L12.598,19.934z M37.69,19.934h0.21v0.1
	c-0.078-0.006-0.151-0.037-0.21-0.09V19.934z M42.1,19.934c-0.012,0.145,0.024,0.29,0.104,0.412c0.01-0.142-0.026-0.282-0.104-0.402
	V19.934z M42.309,19.934c0.154,0.119,0.371,0.119,0.525,0h-0.523H42.309z M22.572,20.243c0.067,0.089,0.104,0.198,0.105,0.31h-0.105
	V20.243L22.572,20.243z M12.703,20.553c0.11,0.116,0.11,0.297,0,0.413v-0.403V20.553z M16.588,20.76v1.549h0.63
	c-0.047-0.26,0.03-0.527,0.21-0.723c-0.6-0.021-0.642-0.105-0.63-0.723h0.21v0.527l0.735,0.1c-0.05,0.098-0.05,0.213,0,0.31
	c0.455,0.011,0.309,0.157,0.945,0.207c0.106-0.142,0.252-0.25,0.42-0.31V21.6c-0.376-0.043-0.264,0.049-0.42-0.205
	c0.129-0.09,0.271-0.16,0.42-0.207c0,0.326-0.178,0.139,0.1,0.31c0.013-0.132,0.092-0.249,0.21-0.31v-0.101
	c-0.481-0.12-0.974-0.188-1.47-0.207c-0.44-0.134-0.904-0.171-1.36-0.11V20.76z M12.493,20.859c0.11,0.116,0.11,0.298,0,0.414v-0.4
	V20.859z M19.212,20.859c0.119,0.109,0.301,0.109,0.42,0H19.212z M22.467,20.859c0.067,0.09,0.104,0.199,0.105,0.311h-0.105V20.859z
	 M35.067,21.17c-0.101,0.373-0.171,0.752-0.21,1.137c0.562-0.011,0.53-0.02,1.05,0V21.7c0.336,0.007,0.4,0.075,0.42-0.517h-1.26
	V21.17z M36.432,22.307c0.314-0.02,0.63-0.02,0.945,0c-0.029-0.213,0.006-0.429,0.1-0.621v0.621h1.365V21.6h0.1
	c0.126,0.076,0.273,0.111,0.42,0.101v0.62h0.1v-0.1c0.019-0.207,0.019-0.414,0-0.621c0.153-0.094,0.265-0.24,0.315-0.412
	c-1.119-0.116-2.25-0.083-3.36,0.1c0.022,0.344,0.026,0.688,0.013,1.031L36.432,22.307z M12.808,21.286
	c0.122,0.15,0.122,0.365,0,0.516V21.286z M43.464,22.318h0.42v-0.205c0.065-0.09,0.101-0.199,0.101-0.311
	c0.685-0.017,1.176-0.138,1.89-0.207v-0.31h-2.409v0.207c0.117,0.062,0.195,0.179,0.21,0.31C43.4,21.832,43.468,21.8,43.464,22.318
	L43.464,22.318z M45.984,21.286V21.6c0.582,0.043,0.757,0.301,1.05-0.205h0.1v-0.101h-1.149V21.286z M47.35,21.286
	c-0.029,0.356,0.043,0.716,0.209,1.032C47.676,21.962,47.597,21.569,47.35,21.286z M8.609,21.386c0.054,0.057,0.089,0.129,0.1,0.206
	h-0.1v-0.201V21.386z M22.362,21.386c0.11,0.116,0.11,0.298,0,0.413v-0.408V21.386z M12.6,21.6c0.122,0.15,0.122,0.367,0,0.518V21.6
	z M36.537,21.6c0.054,0.057,0.089,0.129,0.1,0.207h-0.1V21.6z M47.666,21.6c-0.035,0.246-0.001,0.496,0.1,0.724
	c0.035-0.246,0-0.497-0.102-0.724H47.666z M6.509,21.8v0.207c0.209,0.03,0.421,0.03,0.63,0C7.244,21.855,6.569,21.828,6.509,21.8z
	 M8.504,21.8c0.055,0.057,0.089,0.13,0.1,0.207H8.5V21.8H8.504z M10.289,21.8c0.064,0.116,0.182,0.194,0.315,0.207v-0.1L10.289,21.8
	z M10.709,21.8v0.207h0.1v-0.1h0.105C10.858,21.852,10.787,21.813,10.709,21.8z M14.593,21.8c-0.058,0.055-0.131,0.09-0.21,0.101V22
	H14.7c0.025-0.041,0.059-0.075,0.1-0.1C14.743,21.846,14.671,21.811,14.593,21.8z M43.674,21.8c0.055,0.057,0.09,0.13,0.1,0.207
	h-0.1V21.8z M0.839,21.9v0.207h0.1c-0.01-0.076-0.045-0.146-0.099-0.201L0.839,21.9z M1.049,21.9
	c-0.013,0.145,0.022,0.289,0.1,0.412c0.012-0.143-0.022-0.285-0.099-0.406L1.049,21.9z M1.259,21.9
	c-0.013,0.145,0.022,0.289,0.1,0.412c0.012-0.143-0.022-0.285-0.099-0.406L1.259,21.9z M1.574,21.9
	c-0.013,0.145,0.022,0.289,0.1,0.412c0.012-0.143-0.022-0.285-0.099-0.406L1.574,21.9z M1.784,21.9
	c-0.013,0.145,0.022,0.289,0.1,0.412c0.012-0.143-0.022-0.285-0.099-0.406L1.784,21.9z M1.994,21.9v0.412H2.2v-0.406H1.995
	L1.994,21.9z M2.414,21.9v0.412h0.21v-0.406H2.415L2.414,21.9z M2.729,21.9v0.412l0.63-0.1v-0.311H2.73L2.729,21.9z M3.464,21.9
	c0.087,0.334-0.051,0.158,0.21,0.31V21.9H3.464L3.464,21.9z M3.884,21.9v0.412h0.21v-0.406H3.885L3.884,21.9z M36.745,21.9
	c0.056,0.056,0.093,0.128,0.105,0.207h-0.105v-0.201V21.9z M6.509,22.107v0.205h0.525c0.025-0.041,0.059-0.074,0.1-0.1v-0.1
	c-0.207,0.029-0.417,0.029-0.625,0V22.107z M10.289,22.107c0.151,0.187,0.397,0.268,0.63,0.205v-0.199h-0.105
	c-0.169,0.064-0.356,0.064-0.525,0V22.107z M14.489,22.107v0.205h0.1c-0.011-0.075-0.046-0.146-0.101-0.199L14.489,22.107z
	 M22.258,22.107v0.205h0.21v-0.199h-0.21V22.107z M36.011,22.207c0.181,0.091,0.134,0.092,0.315,0H36.011z M7.664,25.934l0.1,0.621
	c0.645,0.082,3.359,0.331,3.884,0L7.664,25.934z"/>
</svg>
