<svg xmlns="http://www.w3.org/2000/svg" width="80" height="40" viewBox="0 0 80 40">
  <defs>
    <style>
      .cls-1 {
        fill: #fff;
        fill-rule: evenodd;
      }
    </style>
  </defs>
  <path id="jp_karotei_type4_ico" class="cls-1" d="M46.437,8.141H46.89l-0.041.122c0.16,0,.185-0.02.247,0.082H46.519c-0.034-.132.02-0.062-0.082-0.122V8.915h0.082a0.418,0.418,0,0,0,.206-0.122,0.773,0.773,0,0,0,.041-0.285h0.082V8.549a0.813,0.813,0,0,1,.041.326,0.347,0.347,0,0,1,.206.041,5.25,5.25,0,0,1-.658.122v3.586a11.193,11.193,0,0,0,.041,1.875H46.355v0.856a22.389,22.389,0,0,0,3.249-.611l0.041,0.163H49.522a7.4,7.4,0,0,1,0,1.793h0.165a0.4,0.4,0,0,1,.329-0.285V15.8h0.206v0.122H50.3a6.142,6.142,0,0,0,1.727-.163v0.652c-0.613-.008-1.087-0.192-1.727-0.2a0.612,0.612,0,0,0-.082.163,0.207,0.207,0,0,0-.041.122,17.572,17.572,0,0,0,2.015.2,0.933,0.933,0,0,0-.041.285,4.277,4.277,0,0,0,.617.978c0.448,0.71.834,1.46,1.275,2.16a2.042,2.042,0,0,0,.782,1.06v0.163h0.7l0.041-.244a2.389,2.389,0,0,1,.658-0.041,1.63,1.63,0,0,0,.658.041l-0.041-1.508a1.967,1.967,0,0,1-.082-0.448,7.389,7.389,0,0,0,.041-1.793,0.416,0.416,0,0,1-.082-0.244h0.288v0.041h0.041a0.339,0.339,0,0,1-.123.122v0.489a5.665,5.665,0,0,0,.123,1.386c0.048,0.138-.069.128-0.082,0.163l0.041,1.141h0.041V20.408a11.129,11.129,0,0,0,.329-2,24.086,24.086,0,0,0,.535-5.583h0.041v0.041c0.271,0.412-.012,1.864-0.041,2.364-0.127,2.187-.594,4.028-0.864,6.072h0.206c0.067-.216.194-0.256,0.494-0.244a3.95,3.95,0,0,1-.041-0.652h0.9a1.4,1.4,0,0,1,.082.489h0.329V20.774c0.374,0,.61-0.066.9-0.082-0.024-.358-0.041-0.806-0.041-1.223H59.64V19.389a0.89,0.89,0,0,1,.288-0.041,12.748,12.748,0,0,1,.37-1.263c0.123-.535-0.082-1.074.041-1.549H60.3a8.779,8.779,0,0,1-2.3,0V16.455a1.339,1.339,0,0,1-.041-0.57,1.743,1.743,0,0,1,.74-0.082,1.361,1.361,0,0,1,.617-0.041,15.142,15.142,0,0,0,1.851,0V15.6h0.165v0.163a21.277,21.277,0,0,0,3.208.163v0.2l-2.591.082v0.326H60.71c0.034,0.871.143,2.74,0.823,2.853V19.43H61.244a5.545,5.545,0,0,0,.082,1.1,1.761,1.761,0,0,0,.9.163v0.122h0.493v0.163l1.111-.041a0.311,0.311,0,0,0,.329.2L64.123,19.47a4.141,4.141,0,0,1-.082-0.53,5.886,5.886,0,0,0,.041-1.752A0.823,0.823,0,0,1,64,16.9h0.247a0.636,0.636,0,0,1,.041.2,1.276,1.276,0,0,0-.082.815,8.667,8.667,0,0,0,.041,1.019,0.537,0.537,0,0,1,.123.081,2.137,2.137,0,0,0-.123.326c0.005,0.306.036,0.733,0.041,1.1h0.041a1.129,1.129,0,0,1,.494-0.041v0.082a0.42,0.42,0,0,0-.082.408l0.658-.041V20.448c-0.058-.008.017,0.034-0.041,0.041-0.032.078-.041-0.082-0.041-0.082h0.206a0.211,0.211,0,0,1,.123-0.041L65.6,17.922a5.859,5.859,0,0,1-.041-0.978,0.159,0.159,0,0,1,.123-0.081V16.9a3.95,3.95,0,0,1,.041,1.386c0.006,0.856.086,1.761,0.082,2.73a0.848,0.848,0,0,0,.206.082V20.978h0.658V20.856l0.247-.041v-0.2a1.806,1.806,0,0,1,.535.041v0.041H67.373A0.768,0.768,0,0,0,67,20.652v0.163a5.971,5.971,0,0,0,1.686-.041v0.163c0.171,0,.576.041,0.576,0.041a1.015,1.015,0,0,0-.041-0.693H69.47a2.468,2.468,0,0,0-.082-1.386h1.686v0.082a2.016,2.016,0,0,0-.082,1.06,1.511,1.511,0,0,1,.494.244c0.231,0.249.028,0.518,0.535,0.53v-0.2a0.588,0.588,0,0,1,.165-0.041,2.29,2.29,0,0,0,.576-0.041c0.074,0.026-.019.081,0.164,0.122a0.359,0.359,0,0,1,.206-0.041,0.5,0.5,0,0,1,.617-0.285,2.032,2.032,0,0,1,.74-0.041c0.441-.009.98-0.045,1.481-0.041,0.219-1.041.859-1.985,1.152-2.975a11.142,11.142,0,0,0,.041-2.445c0-1.805.006-3.959-.082-5.5a1.023,1.023,0,0,1,.37-0.082,0.424,0.424,0,0,1,.082.245,1.4,1.4,0,0,0-.082.367h0.493V9.934H77.9V9.975c0.166-.005.225-0.022,0.288,0.081H77.573c0-.152.05-0.1-0.123-0.122v0.693l0.329-.041V10.5a0.534,0.534,0,0,0,.041-0.285h0.123a1.565,1.565,0,0,0,.041.367,0.346,0.346,0,0,1,.206.041c-0.275.019-.413,0.115-0.74,0.122,0,3.313,0,6.449,0,9.7h0.082c0.038,0.013.378,0.019,0.494,0.041a0.988,0.988,0,0,0,.165.408,6.272,6.272,0,0,0,1.563.041v0.041a1.833,1.833,0,0,0-.165.448h0.082A0.657,0.657,0,0,1,80,21.386v0.448H79.918c-0.158.091-.454-0.032-0.658,0.041a3.192,3.192,0,0,0-.329.285c-0.139.072-.124-0.049-0.206,0.081a3.562,3.562,0,0,0-.411.856,8.6,8.6,0,0,0-.946,1.956h0.123l-0.041.2a3.142,3.142,0,0,0-1.357,1.223,2.5,2.5,0,0,1-.411.285l-0.288.326a9.436,9.436,0,0,1-1.851,1.141,20.172,20.172,0,0,1-3.373.9c-0.775.18-1.608,0.12-2.345,0.285L67,29.455c-0.638.14-1.419,0.1-2.057,0.245l-3.907.081c-2.184.016-4.535,0.041-6.787,0.041H50.015a11.528,11.528,0,0,1-2.139-.041l-13.82-.122a13.384,13.384,0,0,0-2.468-.041L27.8,29.536H25.83c-0.728-.155-1.688.124-2.468-0.041a23.6,23.6,0,0,0-2.386-.041,7.5,7.5,0,0,0-2.18.163c-0.73.163-1.492,0.091-2.18,0.245-0.613.137-1.244,0.083-1.81,0.2a2.457,2.457,0,0,1-.576-0.081,18.885,18.885,0,0,0-2.3.326c-0.759.173-1.554,0.122-2.262,0.285l-1.316.122c-0.615.141-1.321,0.075-1.974,0.244-0.189.049-.367,0.154-0.576,0.2v0.163a0.8,0.8,0,0,1,.041.611H5.676a0.784,0.784,0,0,0-.165-0.122,0.65,0.65,0,0,1-.288.367,5.584,5.584,0,0,0,0-.9,0.761,0.761,0,0,0-.247-0.041A4.315,4.315,0,0,1,3.7,31.37V31.044c-0.011-.024.038-1.513,0.041-1.834-0.572-.021-1.33-0.105-1.851-0.122v0.081a0.511,0.511,0,0,1,.123.244,4.629,4.629,0,0,0,1.193.122v0.245a3.464,3.464,0,0,0-.165.937A12.224,12.224,0,0,0,2.632,33l-2.591-.041C0.042,31.875,0,30.717,0,29.577H0.041V29.536A3.485,3.485,0,0,0,1.6,29.088a6.749,6.749,0,0,1,0-1.549v-3.5a11.109,11.109,0,0,1,0-1.467,3.091,3.091,0,0,0-1.193.408c-0.06.031-.046,0.062-0.082,0a0.262,0.262,0,0,1-.123-0.326,5.739,5.739,0,0,0,.9-0.489A0.444,0.444,0,0,1,.9,21.671a0.558,0.558,0,0,0,.617.53A0.149,0.149,0,0,1,1.6,22.16V22.038H1.892V22.16l0.7-.082V21.712a10.723,10.723,0,0,1-.165-1.3,0.907,0.907,0,0,1-.74-0.041H1.769a0.992,0.992,0,0,1,.411-0.082L2.139,20.2H2.18a1.183,1.183,0,0,1,.206-0.082v-0.2c0.717,0.021,1.389-.076,2.139-0.082V19.674H4.771V19.8l1.851-.122V19.511H6.869v0.122l1.892-.163V19.348H8.967V19.47l1.234-.122h0.494a2.156,2.156,0,0,1,.535-0.122,13.03,13.03,0,0,1,.082,1.426h0.082l5.923-8.069a0.437,0.437,0,0,1-.041-0.245h0.617v0.285a2.211,2.211,0,0,1,.576.774V13.357a2.269,2.269,0,0,0,.165-1.345c0.721,0,3.043-.057,3.249.367,0.109,0.173-.053.52,0.041,0.734a6.2,6.2,0,0,1,.123,1.1H22.17l0.041-.489H22.087V13.6h0.206a10.157,10.157,0,0,1,.082-3.179A5.083,5.083,0,0,1,22.54,9a11.815,11.815,0,0,0,.165,2.282q-0.021,1.161-.041,2.323h0.165v0.122H22.7l0.041,0.489a0.673,0.673,0,0,1,.206-0.082l0.041,0.122a0.868,0.868,0,0,1,.37.163c-0.1.068-.041,0.007,0,0.122a0.9,0.9,0,0,0-.494.245c-0.06-.1.009-0.046-0.123-0.082l-0.041.489c0.133,0.034.063-.02,0.123,0.082H22.663a17.393,17.393,0,0,1-.082,3.586,3.8,3.8,0,0,1-.082,1.019L22.211,17.27a7.443,7.443,0,0,1,.082-2H22.087V15.191h0.123L22.17,14.7H22.046v0.082a1.507,1.507,0,0,0-.041.734c-0.032.216-.059,0.72-0.123,1.06a0.5,0.5,0,0,0-.493.448c0.1,0.06.075,0.051,0.082,0.2l-1.111-.041c-0.034.132,0.02,0.062-.082,0.122V17.188H20.154a0.238,0.238,0,0,0,0-.163,0.28,0.28,0,0,0-.165-0.041,1.426,1.426,0,0,1-.535.041,2.8,2.8,0,0,1-1.6-.326v0.244q0.062,2.649.123,5.3h0.411a1.768,1.768,0,0,0-.082-0.652h0.453V21.63H18.8a1.121,1.121,0,0,0-.082.611l0.658-.041a1.768,1.768,0,0,0-.082-0.652h0.494V21.63a1.339,1.339,0,0,0-.041.571h0.576V22.038a0.7,0.7,0,0,1,.329-0.082,1.554,1.554,0,0,0,1.069,0,0.831,0.831,0,0,1,.082.2l2.386-.082c0.095-.056-0.027-0.112.206-0.163,0.109,0.244,1.794.12,2.221,0.081l-0.041-2.16H26.118v-0.53a7.038,7.038,0,0,0,.864-0.041,26.438,26.438,0,0,0-.123-3.342,0.585,0.585,0,0,1,.165-0.041,2.534,2.534,0,0,0,1.316-.041l1.028,0.041,2.221-.041V14.621a4.275,4.275,0,0,0,.288-0.611H31.589v0.122a3.363,3.363,0,0,1-.453-0.2l-0.9.041c-0.124-.012-0.079-0.063-0.123-0.082l-1.522.082V13.928H28.545a0.2,0.2,0,0,1,.041-0.163h-1.6a1.883,1.883,0,0,1-.288.081V13.765a0.263,0.263,0,0,1,0-.245h0.041a3.321,3.321,0,0,0,1.316.082c1.1,0,2.32-.034,3.167-0.041a1.161,1.161,0,0,0,.123-0.652h0.041a2.086,2.086,0,0,0,.041.611c0.307-.1.875-0.021,1.193-0.082v-0.53a5.314,5.314,0,0,1-.288-1.019l0.782-.326,0.247,0.652a3.264,3.264,0,0,0,.164.815,0.359,0.359,0,0,1,.206-0.041V12.868h0.123a0.4,0.4,0,0,0,.082.245,1.6,1.6,0,0,1,.658-0.041,1.993,1.993,0,0,1,1.275.285,0.434,0.434,0,0,1,.082.285c-0.127.13-.246,0.277-0.37,0.408-0.319,0-.462,0-0.782,0v0.163H33.974v-0.2H33.4v0.122c-0.455,0-.689-0.119-1.193-0.122l-0.123.367a3,3,0,0,1,.617.082v0.163H32.535v1.345a11.325,11.325,0,0,1,.37,1.345c0.256,0.01.3,0.075,0.576,0.081v0.122h-0.37a1.749,1.749,0,0,1-.165.285v1.223h0.082a3.121,3.121,0,0,1,1.111-.041l2.18-.082a4.759,4.759,0,0,1,.864,0,0.206,0.206,0,0,1,.041.122l0.987-.041v0.53l-0.411.041c0,0.719.011,1.5,0.041,2.16h0.041c0.206-.072,1.2.135,1.645,0.041,0.394-.085,1,0.07,1.44-0.041a1.651,1.651,0,0,0,.247-0.163,1.015,1.015,0,0,1,.329.122,11.424,11.424,0,0,0,1.275-.041V21.345H42.653a2.521,2.521,0,0,1,.041-0.53,2.731,2.731,0,0,1,.74-0.041v0.081a0.711,0.711,0,0,1,.082.489H43.352V21.63l0.9-.041V21.06l0.288-.2h0.617V19.022H44.915a6.977,6.977,0,0,0,0-1.467h0.247V17.229l0.411-.285V16.9H45.162l-0.041-.122a1.939,1.939,0,0,1,0-1.386H45.2a2.137,2.137,0,0,1,.823-0.041l0.041-1.63H45.861a0.738,0.738,0,0,1-.041-0.245l0.123-.041a0.211,0.211,0,0,1,.123-0.041q0.041-2.017.082-4.034a4.518,4.518,0,0,0,0-1.712,0.477,0.477,0,0,1-.288.081,0.738,0.738,0,0,1-.041-0.245,0.451,0.451,0,0,0,.123-0.082l0.206,0.041a1.288,1.288,0,0,0-.041-0.367A0.547,0.547,0,0,1,46.437,7a0.424,0.424,0,0,1,.082.245c-0.1.053-.028-0.017-0.082,0.082,0.134,0.034.063-.02,0.123,0.082A0.931,0.931,0,0,0,46.437,8.141ZM46.56,8.386a0.163,0.163,0,0,1,0,.2v-0.2ZM46.6,8.671a0.118,0.118,0,0,1,0,.163V8.671Zm-15.26,2.608a0.816,0.816,0,0,1,0,.571V11.279Zm-0.041.733h0.123a1.232,1.232,0,0,1-.041.285,0.147,0.147,0,0,1-.041-0.082A0.35,0.35,0,0,1,31.3,12.013Zm0,0.285a0.147,0.147,0,0,1,.041.082H31.3V12.3Zm-0.041.082a0.147,0.147,0,0,1,.041.082H31.26V12.379Zm-0.041.082a0.146,0.146,0,0,1,.041.081H31.219V12.461Zm-0.041.122a0.146,0.146,0,0,1,.041.082H31.177V12.583Zm-0.041.082a0.147,0.147,0,0,1,.041.082H31.136V12.665Zm-0.041.082a0.146,0.146,0,0,1,.041.082H31.1V12.746Zm-0.082.2a0.147,0.147,0,0,1,.041.082H31.013V12.95Zm-0.041.082a0.147,0.147,0,0,1,.041.082H30.972V13.031Zm-0.041.082a0.146,0.146,0,0,1,.041.082H30.931V13.113Zm-0.041.122a0.147,0.147,0,0,1,.041.082H30.89V13.235Zm-0.041.082a0.147,0.147,0,0,1,.041.082H30.848V13.317Zm-0.041.082a0.146,0.146,0,0,1,.041.082H30.807V13.4ZM16.658,16.7l0.041-.53a0.477,0.477,0,0,1,.288-0.081V15.925h0.329V14.132a1.171,1.171,0,0,0,0-.652L14.972,16.7h1.686Zm30.4-1.019-0.041.53a2.483,2.483,0,0,0,.823-0.041c-0.007.183-.052,0.188,0.041,0.244a3.536,3.536,0,0,0,1.275.041V15.232H49.111A10.219,10.219,0,0,1,47.054,15.68Zm0.658-.041a0.163,0.163,0,0,1,0,.2v-0.2Zm-16,.489H31.589v-0.2l-2.962.041a1.435,1.435,0,0,0-.082.652,1.34,1.34,0,0,1,.041.57,0.433,0.433,0,0,0,.247.082,2.486,2.486,0,0,1,.9-0.041l1.933-.041c0.052-.465.265-0.809,0.288-1.3l-0.247.041v0.2Zm16.041-.244a0.163,0.163,0,0,1,0,.2v-0.2Zm-20.73.122c0.009,0.386.04,0.824,0.041,1.263a1.04,1.04,0,0,0,.329.041,2.647,2.647,0,0,1,.987-0.041V17.188a3.07,3.07,0,0,0,.041-1.141H28.339A3.664,3.664,0,0,0,27.023,16.006ZM16.494,18.044a0.338,0.338,0,0,1,.041-0.2v0.2H16.7V17.107H16.617a0.339,0.339,0,0,1-.041.2v-0.2l-1.974.041a4.924,4.924,0,0,1-.617.9H14.56A12.846,12.846,0,0,0,16.494,18.044Zm12.134,1.182a0.557,0.557,0,0,0,.329-0.122l2.674-.041V17.84a1.7,1.7,0,0,1-.165-0.326H31.1V17.392c0.166,0.006.225,0.022,0.288-.081a0.116,0.116,0,0,0,.041-0.041H30.437a12.851,12.851,0,0,1-1.851.122v0.774A2.822,2.822,0,0,1,28.627,19.226ZM16.535,17.31a0.158,0.158,0,0,1,.082.122c-0.032.049-.049,0.2-0.082,0.244V17.31Zm10.53,0.081,0.041,1.793h0.041c0.027-.017,1.234-0.082,1.234-0.082a0.364,0.364,0,0,0,.123.122V18.737a3.689,3.689,0,0,1-.041-1.345H28.381A3.166,3.166,0,0,0,27.064,17.392Zm49.069,2.853a1.836,1.836,0,0,0,.658-0.081v0.244H76.751a1.755,1.755,0,0,0-.7-0.041v0.081H76.01v0.041h0.041a1.629,1.629,0,0,0,.658.041v0.244H76.422V20.9H77a0.773,0.773,0,0,1,.165-0.408V17.636H77.121v0.041a4.288,4.288,0,0,0-.37.978A7.644,7.644,0,0,0,76.134,20.245ZM14.6,18.614c0,0.191-.041.774-0.041,0.774a2.073,2.073,0,0,0,.535.407c0.444,0.322.861,0.688,1.316,1.019a1.17,1.17,0,0,0,.74.448,0.77,0.77,0,0,1,.37-0.041l-0.041-2.649C16.584,18.581,15.562,18.613,14.6,18.614ZM9.789,19.878A1.189,1.189,0,0,1,9.378,20a1.21,1.21,0,0,1-.041.163l-0.082-.041c0.02,0.118.051,0.075-.041,0.163a0.306,0.306,0,0,0-.082.041,0.147,0.147,0,0,1,.041.081L9.09,20.367v0.041a0.207,0.207,0,0,1,.041.122l-0.082-.041V20.53a2.466,2.466,0,0,1,.041.407,1.226,1.226,0,0,0,.37.57,5.75,5.75,0,0,0,1.4-.081,0.391,0.391,0,0,1,.123-0.2l-0.041-.9A1.22,1.22,0,0,0,9.789,19.878ZM8.8,20a4.23,4.23,0,0,0-1.4.122,0.24,0.24,0,0,0-.123.2,0.139,0.139,0,0,0-.123,0,2.5,2.5,0,0,0-.165.407,2.072,2.072,0,0,1,0,.448,0.754,0.754,0,0,0,.617.53,5.219,5.219,0,0,1,1.316-.122V21.508A5.409,5.409,0,0,1,8.8,20Zm-3.99.285L4.853,21.06H4.936a0.2,0.2,0,0,1,.041-0.122c-0.021.448,0.062,0.935,0.576,0.937l1.234-.122a7.753,7.753,0,0,0-.123-1.589H6.211A6.174,6.174,0,0,1,4.812,20.285Zm-2.1.163,0.123,1.63a0.258,0.258,0,0,0,.288-0.122,0.158,0.158,0,0,1-.082-0.122H3.085c0.228,0.354,1.115.128,1.6,0.082L4.566,20.326C3.844,20.323,3.4,20.444,2.715,20.448Zm2.509-.081H5.306v0.041H5.265a0.149,0.149,0,0,1-.082.041Zm-3.62.041,0.123,0.041v0.041A0.156,0.156,0,0,1,1.6,20.408Zm-0.123.041a0.525,0.525,0,0,1,.165.041,0.149,0.149,0,0,1-.082.041,0.405,0.405,0,0,1-.247.081H1.275V20.571A0.71,0.71,0,0,0,1.481,20.448Zm3.661,0a0.146,0.146,0,0,1,.041.082H5.141V20.448Zm-0.082.122a0.147,0.147,0,0,1,.041.082H5.059V20.571Zm-3.907.082H1.234l-0.041.122a0.622,0.622,0,0,1-.165.081A0.668,0.668,0,0,1,1.152,20.652Zm3.866,0a0.147,0.147,0,0,1,.041.081H5.018V20.652ZM3,20.734a0.147,0.147,0,0,1,.041.082H3V20.734Zm1.974,0.041a0.147,0.147,0,0,1,.041.081H4.977V20.774Zm-2.015.041A0.147,0.147,0,0,1,3,20.9H2.961V20.815ZM0.946,20.9C1.038,21.011.959,21,.9,21.182H0.864V21.06A0.29,0.29,0,0,0,.946,20.9ZM2.92,20.937a0.207,0.207,0,0,1,.041.122H2.92V20.937ZM2.879,21.1a0.336,0.336,0,0,1,0,.326V21.1Zm-2.057.122a0.56,0.56,0,0,1,0,.448V21.223Zm2.1,0.285a0.207,0.207,0,0,1,.041.122H2.92V21.508ZM2.961,21.63A0.207,0.207,0,0,1,3,21.752H2.961V21.63ZM3,21.752a0.146,0.146,0,0,1,.041.081H3V21.752ZM4.072,29.21v1.63H4.113a3.378,3.378,0,0,1,1.069-.163,3.061,3.061,0,0,1-.206-1.263,0.483,0.483,0,0,1,.247-0.122,1.39,1.39,0,0,1,.452,1.3,10.522,10.522,0,0,0,2.838-.245l2.3-.244c0.611-.139,1.279-0.1,1.933-0.244a9.5,9.5,0,0,1,1.522-.2,0.159,0.159,0,0,1,.123-0.082V29.332Z"/>
</svg>
