<?xml version="1.0" encoding="utf-8"?>
<!-- Generator: Adobe Illustrator 16.0.0, SVG Export Plug-In . SVG Version: 6.00 Build 0)  -->
<!DOCTYPE svg PUBLIC "-//W3C//DTD SVG 1.1//EN" "http://www.w3.org/Graphics/SVG/1.1/DTD/svg11.dtd">
<svg version="1.1" id="Layer_1" xmlns="http://www.w3.org/2000/svg" xmlns:xlink="http://www.w3.org/1999/xlink" x="0px" y="0px"
	 width="40px" height="40px" viewBox="0 0 40 40" enable-background="new 0 0 40 40" xml:space="preserve">
<path id="Color_Fill_1" fill="#FFFFFF" d="M6.708,6.5C6.755,7.143,6.846,7.781,6.98,8.411c0.111,0.467,0.1,0.955,0.2,1.394
	l0.045,0.472c0.12,0.5,0.131,1.075,0.249,1.574c0.1,0.423,0.086,0.86,0.181,1.259c-0.01,0.166,0.029,0.33,0.113,0.472
	c0.02-0.014,0.043-0.022,0.068-0.022c0.036,0.037,0.059,0.084,0.068,0.135c-0.008,0.017-0.027,0-0.023,0.045
	c0.013,0.013,0.1,0.3,0.023,0.292v0.023l0.068,0.023c-0.02,0.027-0.035,0.058-0.045,0.09L8,14.19c-0.042,0.094,0,0.087-0.045,0.18
	c0.074,0.186,0.097,0.387,0.068,0.585L7.592,15c-0.078-0.225-0.109-0.463-0.092-0.7c-0.025-0.011-0.048-0.026-0.068-0.045
	c0.027-0.056,0.042-0.118,0.045-0.18c-0.063-0.124-0.094-0.261-0.091-0.4c0.034-0.041,0.083-0.065,0.136-0.067
	c0.001-0.438-0.052-0.875-0.159-1.3c-0.113-0.474-0.1-0.966-0.2-1.417c-0.089-0.375-0.046-0.727-0.136-1.1
	c-0.251-1.048-0.279-2.206-0.5-3.26C6.585,6.511,6.646,6.5,6.708,6.5z M16.385,13.246c0,0.024,0.008,0.048,0.023,0.067
	c0.002-0.017,0.01-0.033,0.023-0.045l0.023,0.2c0.106,0.003,0.212-0.004,0.317-0.023c0.017,0.055,0.039,0.108,0.068,0.157
	c0.159-0.015,0.319-0.007,0.476,0.023h1.315l0.023-0.157h0.067l0.023,0.157l0.385,0.023v0.067l-1.043,0.022v0.045h0.023
	c0.05,0.024,0.109,0.024,0.159,0V13.9h-0.046c-0.12-0.021-0.243-0.021-0.363,0c-0.354,0-0.635,0.038-0.952,0.045
	c0.027,0.106,0.014,0.139-0.136,0.135v0.337c-0.16-0.012-0.321,0.003-0.476,0.045c0.002,0.017,0.011,0.033,0.023,0.045
	c0.132-0.005,0.263,0.018,0.385,0.067c-0.037,0.026,0.066,0.022,0.068,0.023V14.55c-0.023-0.033-0.039-0.071-0.045-0.112h0.045
	v-0.023c0.023-0.022,0.022,0.022,0.023,0.023c0.042,0.042,0.066,0.098,0.068,0.157c0.32-0.007,0.64,0.023,0.952,0.09V14.19
	c0.28-0.165,0.608-0.228,0.929-0.18c0.054,0.289,0.069,0.584,0.045,0.877h0.023v0.023c0.245-0.004,0.489,0.026,0.725,0.09
	c0.007,0.128,0.022,0.256,0.045,0.382c0.166,0.064,0.347,0.08,0.521,0.045v-0.18c0.093-0.085,0.214-0.134,0.34-0.135
	c0.027,0.017,0.059,0.025,0.091,0.023l-0.023,0.337c0.153,0.049,0.315,0.065,0.476,0.045c0.258-0.284,0.617-0.454,1-0.472
	c0.043,0.062,0.148,0.095,0.182,0.157c0.053,0.1,0.008,0.265,0.068,0.36c0.08,0.027,0.165,0.035,0.248,0.023
	c0.218-0.2,0.512,0.208,0.793,0.045h-0.159v-0.046h0.431v0.067h0.59c0.018-0.028,0.032-0.059,0.045-0.09
	c0.097-0.032,0.203-0.024,0.295,0.023c0.05,0.082,0.081,0.174,0.09,0.27c0.018,0.027,0.025,0.058,0.023,0.09
	c0.207,0.005,0.412,0.036,0.612,0.09h2.13c0.285,0.092,0.645,0.428,0.93,0.562H30.1c0.38-0.329,0.898-0.447,1.383-0.314h0.59
	c0.145,0.093,0.281,0.198,0.408,0.314h0.431c0.018,0.029,0.032,0.059,0.045,0.09h5.935c0.031,0.036,0.07,0.066,0.112,0.09
	c0.049-0.026,0.104-0.042,0.159-0.045c0.129,0.054,0.271,0.069,0.408,0.045c0.068-0.03-0.016-0.053,0.136-0.066v0.066h0.249
	c0.035,0.201,0.043,0.405,0.023,0.607c-0.09,0.021-0.182,0.029-0.272,0.023v0.066c-0.054-0.002-0.108,0.006-0.159,0.023
	c0-0.146-0.128-0.1-0.316-0.09c0,0.023-0.009,0.048-0.023,0.066c-0.148-0.047-0.31-0.039-0.453,0.023h-5.779
	c-0.225,0.134-0.493,0.174-0.748,0.111h-2.107c-0.172,0.039-0.35,0.039-0.521,0h-1.359v0.067c-0.314,0.007-0.584,0.066-0.907,0.045
	l0.022,0.181c-0.207,0.012-0.412,0.05-0.611,0.111l-0.885,0.135c-0.383,0.109-0.779,0.17-1.178,0.181v0.112
	c0.18,0.009,0.365,0.009,0.545,0v0.023c-0.028,0.057-0.044,0.117-0.045,0.18h0.112c0.101-0.224,0.326-0.168,0.636-0.156v0.27
	l3.036,0.428v-0.024c-0.015-0.02-0.022-0.043-0.022-0.067c0.107,0.004,0.215-0.012,0.316-0.045
	c-0.037,0.006-0.072-0.013-0.091-0.045c0.095-0.033,0.194-0.049,0.295-0.045c0.032,0.046,0.048,0.102,0.045,0.157
	c0.089-0.022,0.181-0.038,0.272-0.046c0.176,0.244,0.472,0.374,0.771,0.338v-0.022h0.023c0.007-0.146,0-0.354,0.2-0.36
	c0.07,0.039,0.107,0.121,0.09,0.201c-0.018,0.072-0.025,0.148-0.022,0.225h0.05c0.041,0.02,0.089,0.028,0.135,0.023
	c-0.003-0.096,0.021-0.189,0.068-0.271c0.051-0.022,0.105-0.029,0.159-0.022c0.013,0.012,0.028,0.02,0.045,0.022
	c0.018,0.058,0.025,0.119,0.022,0.18c-0.013,0.044-0.021,0.089-0.022,0.136h0.022v0.022c0.102,0.034,0.211,0.042,0.316,0.022
	c-0.045-0.003-0.086-0.026-0.113-0.063c0.177-0.059,0.31-0.252,0.477-0.292c0.148,0.001,0.295,0.032,0.432,0.09
	c0.127,0.029,0.252-0.1,0.385-0.067c0.043,0.031,0.082,0.068,0.113,0.112c0.041,0.026,0.262,0.021,0.316,0.046
	c-0.002,0.017-0.011,0.032-0.023,0.045c-0.029,0.027-0.08,0.041-0.113,0.066h0.045c0.08,0.199,0.104,0.418,0.068,0.63
	c-0.074,0.048-0.16,0.071-0.248,0.067c-0.028-0.041-0.068-0.072-0.113-0.09v0.045h-0.022c-0.022,0.022,0.022,0.021,0.022,0.022
	c0.295,0.179,0.606,0.329,0.93,0.45c-0.012,0.096-0.043,0.187-0.091,0.27c-0.21,0.139-0.439,0.244-0.681,0.315
	c-0.438,0.19-0.899,0.419-1.336,0.63c0,0.783-0.93,1.465-1.406,1.821c-0.123,0.092-0.217,0.245-0.34,0.337
	c-0.519,0.389-0.93,0.838-1.5,1.191c-0.072,0.045-0.149,0.143-0.227,0.181c-0.104,0.025-0.21,0.04-0.316,0.045
	c-0.404,0.075-0.814,0.106-1.225,0.09H6.527c-0.505-0.159-0.98-0.401-1.405-0.719c-0.478-0.3-0.959-0.584-1.428-0.877
	c-0.561-0.263-1.056-0.646-1.45-1.124h0.068c0.005,0.01,0.014,0.018,0.023,0.023c-0.036-0.046-0.06-0.1-0.068-0.158H2.176
	c-0.005-0.04-0.021-0.078-0.045-0.111v0.045c-0.066,0.021-0.105,0.089-0.091,0.157l-0.227,0.045v-0.142
	c-0.034-0.005-0.066-0.02-0.091-0.045c-0.017,0.003-0.033,0.011-0.045,0.023c-0.036,0.08-0.1,0.145-0.181,0.18
	c-0.083,0.045-0.182,0.054-0.272,0.023c0,0.067-0.008,0.135-0.023,0.199L0.974,23.07v-0.043c-0.053-0.283-0.053-0.572,0-0.854
	L0.929,21.25H0.884c-0.012-0.124,0.012-0.249,0.068-0.359c-0.021-0.027-0.037-0.058-0.045-0.091l0.045-0.022
	c0.043-0.107,0.052-0.226,0.023-0.338H0.861v-0.27c-0.064-0.04-0.119-0.094-0.161-0.156H0.5c-0.035-0.378-0.095-0.754-0.181-1.123
	c0-0.191-0.031-0.381-0.091-0.563c-0.1-0.057-0.18-0.144-0.228-0.248h0.023c0.126-0.121,0.283-0.207,0.453-0.247
	c-0.047-0.048-0.064-0.116-0.045-0.181c0.048-0.031,0.103-0.053,0.159-0.066c0.041,0.037,0.086,0.066,0.136,0.09
	c0.1-0.012,0.199-0.035,0.295-0.066c0.166,0.02,0.333,0.027,0.5,0.021c0.1-0.047,0.208-0.076,0.317-0.09
	c0.049,0.1,0.1,0.1,0.249,0.09c0.082-0.05,0.177-0.073,0.272-0.066c0.502,0.079,1.011,0.102,1.518,0.066l-0.023,0.18
	c0.435-0.061,0.875-0.082,1.314-0.066c0.05,0.014,0.137,0.076,0.181,0.09c0.229,0.005,0.457-0.018,0.68-0.066
	c0.209,0.05,0.414,0.117,0.612,0.199h2.22c0,0.024,0.008,0.048,0.023,0.067c0.254,0.053,0.515,0.061,0.771,0.022h1.972v0.293H11.9
	c0.011,0.019,0.027,0.034,0.045,0.045v0.067H12.1V18.3c0.028-0.017,0.051-0.039,0.068-0.067c0.009,0.006,0.018,0.014,0.023,0.022
	c0.048,0.064,0.065,0.147,0.045,0.226c-0.091-0.014-0.184-0.006-0.272,0.022c0.401-0.015,0.803,0.008,1.2,0.067
	c0.093,0.027,0.193,0.011,0.272-0.045h-0.042c-0.033,0.025-0.08,0.025-0.113,0c0.025,0,0.049-0.008,0.068-0.022
	c-0.089,0.022-0.183,0.022-0.272,0c0.017-0.003,0.033-0.011,0.045-0.022c-0.229-0.055-0.45-0.138-0.657-0.248
	c-0.278-0.113-0.537-0.155-0.816-0.27c-0.2-0.083-0.447-0.199-0.657-0.27l-1.5-0.023L7.52,17.648c-0.4,0.027-0.803,0.013-1.2-0.045
	c-0.136-0.008-0.272-0.008-0.408,0L5.19,17.585c-0.288-0.081-0.569-0.187-0.839-0.315c-0.022-0.031,0-0.115-0.023-0.156L4.237,17.09
	v-0.199h0.092v-0.745H4.306v-0.022H4.238c0-0.099,0.015-0.198,0.045-0.292c0.001-0.099-0.015-0.198-0.045-0.292
	c0.009-0.048,0.024-0.096,0.045-0.14c0.119-0.03,0.24-0.045,0.363-0.045c0.244,0.081,0.872,0,1.269,0.067l0.2-0.023
	c0.037,0.018,0.074,0.033,0.113,0.045c0.038,0.026,0.037-0.062,0.045-0.067c0.078-0.05,0.048,0.057,0.113-0.045
	c-0.019-0.042-0.011-0.017,0-0.067c0.017,0.002,0.033,0.01,0.045,0.022c0.015,0.019,0.03,0.071,0.045,0.09
	c0.125-0.071,0.423,0.016,0.544-0.045c-0.017-0.002-0.033-0.011-0.045-0.023c0.108,0,0.217-0.005,0.325-0.017
	c0.014-0.061,0.056-0.111,0.113-0.135h0.179c0.019,0.033,0.042,0.063,0.068,0.09c0.432-0.227,0.934-0.283,1.405-0.157l-0.023,0.067
	h0.34v-0.113H9.9v0.112c0.073,0.007,0.146-0.018,0.2-0.067h0.37c0.354,0,0.575,0.045,0.929,0.045v-0.112h0.045v0.112
	c0.032,0.003,0.063,0.011,0.091,0.023c0.021-0.23,0.146-0.437,0.34-0.563c0.083,0,0.167,0.007,0.249,0.023
	c0.077,0.032,0.143,0.151,0.227,0.18c0.232,0.028,0.467,0.028,0.7,0v-0.09c0.028-0.056,0.043-0.118,0.045-0.18h0.068
	c0.077,0.408,0.288,0.309,0.748,0.292c0.122,0.04,0.254,0.023,0.363-0.045c0.049,0.001,0.097,0.017,0.136,0.045l0.023,0.112h0.045
	V14.91c0.051-0.054,0.068-0.13,0.045-0.2h0.116l0.091,0.112c0.046-0.017,0.086-0.049,0.113-0.09h-0.022v-0.025
	c-0.057,0.016-0.118-0.002-0.159-0.045c0.312,0.001,0.623-0.029,0.929-0.09c-0.092,0.018-0.185-0.028-0.227-0.112h0.023v-0.023
	h0.068c0,0.024,0.008,0.048,0.023,0.067c0.164,0.042,0.333,0.049,0.5,0.023c0.054,0.036,0.116,0.059,0.181,0.067
	c-0.005-0.076-0.021-0.152-0.045-0.225c0.063-0.025,0.123-0.055,0.181-0.09h-0.16v-0.2h-0.363v0.157h-0.045v-0.158H15.66V14.01
	c-0.019-0.011-0.034-0.026-0.045-0.045l-0.068,0.023c-0.011,0.039-0.026,0.077-0.045,0.112c-0.011-0.025-0.026-0.048-0.045-0.068
	c-0.02,0.14-0.11,0.165-0.136,0.315l-0.159,0.023c0.013-0.124,0.044-0.245,0.091-0.36c-0.033-0.024-0.072-0.04-0.113-0.045
	c-0.027,0.017-0.059,0.025-0.091,0.023v-0.045c0.059-0.04,0.031-0.037,0.023-0.135l-0.2,0.023v0.157
	c0.044-0.004,0.088,0.003,0.128,0.022c-0.077,0.008-0.153,0.023-0.227,0.045V14.01c-0.061-0.149-0.084-0.311-0.068-0.472
	c0.091-0.006,0.183,0.001,0.272,0.023v-0.068c0.024,0,0.048,0.008,0.068,0.023c0.015,0.017,0.03,0.05,0.045,0.067
	c0.013-0.012,0.028-0.02,0.045-0.022v-0.113c0.111,0.029,0.226,0.044,0.34,0.045v0.067c0.249,0,0.459-0.034,0.657-0.045l0.023-0.225
	l0.045,0.023v-0.022h-0.019c-0.022-0.023,0.022-0.022,0.023-0.023C16.261,13.245,16.324,13.238,16.385,13.246z M14.844,13.718
	c0.061,0.015,0.125-0.013,0.156-0.068c-0.016-0.028-0.04-0.052-0.068-0.068c-0.035-0.019-0.074-0.026-0.113-0.022v0.022
	c0.025,0,0.049,0.008,0.068,0.023c-0.073,0.019-0.035-0.011-0.068,0.045C14.834,13.669,14.843,13.693,14.844,13.718z M17.244,13.74
	c0.182,0.061,0.376,0.076,0.566,0.045V13.74h-0.563H17.244z M17.901,13.74v0.045h0.068V13.74H17.901L17.901,13.74z M15.839,13.897
	v0.067h0.295V13.9h-0.293L15.839,13.897z M15.476,14.122c0.046-0.006,0.094,0.002,0.136,0.023c-0.045,0.005-0.091-0.002-0.133-0.022
	L15.476,14.122z M18.72,14.19l-0.023,0.067h0.023v-0.022C18.748,14.2,18.734,14.223,18.72,14.19z M18.743,14.89v-0.475
	c-0.025-0.014-0.042-0.039-0.045-0.067h-0.024V14.5c-0.039,0.116-0.062,0.237-0.068,0.36h0.045c0.027,0.019,0.059,0.028,0.091,0.027
	L18.743,14.89z M11.876,14.755c0.073,0.03,0.149,0.053,0.227,0.067V14.8c-0.019-0.011-0.034-0.026-0.045-0.045H11.876L11.876,14.755
	z M16.137,14.755c-0.009,0.068-0.001,0.136,0.023,0.2c0.009-0.069,0.001-0.139-0.024-0.203L16.137,14.755z M16.205,14.755v0.2h0.091
	v-0.2H16.2H16.205z M16.477,14.755c-0.009,0.068-0.001,0.136,0.023,0.2l0.045-0.2H16.477L16.477,14.755z M17.701,14.755V14.8h0.023
	v-0.025h0.023c-0.013-0.013-0.029-0.021-0.047-0.023L17.701,14.755z M15.911,14.778v0.18h0.159v-0.18h-0.161H15.911z M17.586,14.8
	c-0.004,0.04,0.004,0.079,0.023,0.113C17.613,14.874,17.605,14.834,17.586,14.8z M11.83,15.07c0.006-0.084-0.009-0.169-0.045-0.247
	c-0.016,0.089-0.016,0.181,0,0.27h0.159v-0.026H11.83V15.07z M18.788,14.935v0.045c0.152-0.008,0.305,0.007,0.453,0.045v-0.048
	c-0.153,0.008-0.305-0.007-0.453-0.045V14.935z M17.7,15.025c0.012,0.012,0.028,0.021,0.045,0.023
	c-0.012-0.013-0.028-0.022-0.045-0.026V15.025z M21.779,15.182c-0.096,0.065-0.147,0.177-0.137,0.292l0.045,0.023
	c0.1,0.046,0.209,0.062,0.317,0.045c0.006-0.01,0.014-0.018,0.022-0.023c0.008-0.082,0.008-0.165,0-0.247
	c-0.072-0.026-0.16-0.061-0.248-0.093V15.182z M7.411,15.2l-0.023,0.067h0.068c0.05-0.01,0.098-0.033,0.136-0.067H7.411z
	 M7.751,15.223c0.012,0.012,0.028,0.02,0.045,0.022C7.784,15.233,7.768,15.226,7.751,15.223L7.751,15.223z M7.842,15.223
	c0.013,0.012,0.028,0.02,0.045,0.022C7.874,15.233,7.858,15.226,7.842,15.223L7.842,15.223z M4.329,15.493
	c-0.031,0.029-0.047,0.07-0.045,0.112h0.022v0.023h0.023C4.336,15.583,4.336,15.539,4.329,15.493L4.329,15.493z M24.271,15.673
	c0.005,0.077,0.02,0.152,0.045,0.225c0.004-0.031,0.012-0.062,0.023-0.09c0.032,0.011,0.063,0.026,0.092,0.045
	c-0.012,0.054-0.037,0.028,0.022,0.067v-0.156c-0.013-0.012-0.021-0.028-0.022-0.045C24.385,15.688,24.328,15.671,24.271,15.673
	L24.271,15.673z M4.306,15.718c-0.006,0.046,0.002,0.094,0.023,0.135C4.334,15.807,4.327,15.76,4.306,15.718L4.306,15.718z
	 M1.428,17.743v0.045H1.45C1.448,17.771,1.44,17.755,1.428,17.743z M1.473,17.743v0.045H1.5C1.497,17.771,1.487,17.754,1.473,17.743
	z M1.518,17.743v0.045h0.046v-0.045H1.518z M1.586,17.743v0.045h0.023C1.606,17.771,1.599,17.755,1.586,17.743z M1.631,17.743v0.045
	c0.081-0.009,0.057,0.011,0.091-0.045C1.692,17.751,1.662,17.751,1.631,17.743L1.631,17.743z M1.948,17.743v0.045h0.024
	C1.97,17.771,1.961,17.755,1.948,17.743L1.948,17.743z M2.016,17.743c0,0.032-0.019-0.009-0.023,0.022
	c-0.044,0.018,0.045,0.023,0.045,0.023C2.037,17.771,2.029,17.756,2.016,17.743L2.016,17.743z M2.216,17.743v0.045h0.028
	c-0.002-0.017-0.011-0.033-0.023-0.045H2.216z M2.261,17.743v0.045h0.028v-0.045H2.266H2.261z M2.374,17.743v0.045H2.4
	c-0.001-0.017-0.008-0.032-0.02-0.045H2.374z M2.419,17.743v0.045H2.47v-0.045H2.425H2.419z M2.532,17.743v0.045
	c0.03-0.008,0.061-0.008,0.091,0v-0.045H2.538H2.532z M2.645,17.743v0.045h0.029v-0.045H2.652H2.645z M2.69,17.743v0.045h0.03
	c-0.002-0.017-0.009-0.032-0.02-0.045H2.69z M2.758,17.743v0.045h0.03c-0.002-0.017-0.011-0.033-0.023-0.045H2.758z M2.803,17.743
	v0.045h0.03v-0.045H2.81H2.803z M2.916,17.743v0.045h0.03v-0.045H2.924H2.916z M2.961,17.743v0.045h0.031v-0.045H2.969H2.961z
	 M3.006,17.743v0.045C3.1,17.777,3.071,17.8,3.1,17.743H3.014H3.006z M3.119,17.743v0.045h0.099v-0.022H3.2v-0.022H3.127H3.119z
	 M3.232,17.743v0.045h0.031v-0.045H3.241H3.232z M3.277,17.743v0.045h0.032v-0.045H3.286H3.277z M3.39,17.743v0.045h0.032v-0.045
	H3.4H3.39z M0.49,17.99c-0.119,0.039-0.24,0.068-0.363,0.09l0.023,0.066c0.052,0.041,0.115,0.064,0.181,0.067
	c0.065-0.071,0.142-0.132,0.227-0.18C0.542,18.016,0.522,18.001,0.5,17.99H0.49z M11.618,18.372v0.067
	c0.061-0.008,0.124,0,0.181,0.023c-0.061-0.008-0.124,0-0.181,0.023h0.295c0-0.024-0.008-0.049-0.023-0.067v-0.024L11.618,18.372z
	 M24.037,18.552c0.02-0.073-0.012-0.034,0.045-0.067c0.086,0.035,0.18,0.051,0.271,0.046c0.012-0.019,0.027-0.034,0.045-0.046
	v-0.022h-0.354c-0.236,0.144-0.967-0.101-1.199,0.045L24.037,18.552z M12.51,18.484c0.144-0.021,0.291-0.013,0.431,0.023
	C12.797,18.529,12.651,18.521,12.51,18.484z M13.62,18.6c-0.019-0.072,0.011-0.033-0.045-0.066v0.045
	c-0.01,0.005-0.018,0.013-0.023,0.021H13.62z M28.984,19.186c0.014,0.012,0.029,0.02,0.045,0.021
	c-0.012-0.013-0.026-0.021-0.043-0.025L28.984,19.186z M32.906,19.477c0.037,0.025,0.023,0.041,0.045,0H32.906L32.906,19.477z
	 M32.634,20.063c0.038,0.04,0.084,0.071,0.136,0.09V20.1h0.023v-0.019c-0.054,0.01-0.109,0.002-0.158-0.022L32.634,20.063z
	 M1.2,20.576c-0.015,0.035-0.015,0.076,0,0.111c0.02,0.044,0.065,0.07,0.113,0.067v-0.022C1.278,20.679,1.241,20.626,1.2,20.576z
	 M1.245,20.775c-0.023,0.078-0.035,0.051,0.045,0.068v-0.021c-0.018-0.017-0.024-0.028-0.044-0.046L1.245,20.775z M0.905,21.113
	v0.047h0.024v-0.045H0.907L0.905,21.113z M1.653,21.383v0.157h0.024c0.012-0.013,0.028-0.021,0.045-0.022V21.5
	c-0.011-0.045-0.035-0.084-0.068-0.115L1.653,21.383z M31.613,22.104c-0.028,0.049-0.051,0.102-0.068,0.156h0.023v-0.043
	c0.023-0.021,0.047-0.043,0.068-0.066c-0.002-0.02-0.009-0.037-0.021-0.051L31.613,22.104z M1.7,22.285v0.135
	c0.036,0.014,0.074,0.021,0.113,0.023v-0.158H1.7z M1.224,22.622h0.113c-0.021-0.093-0.051-0.184-0.091-0.271H1.224V22.622z
	 M31.162,22.8l-0.113,0.136l0.159-0.112C31.195,22.811,31.18,22.803,31.162,22.8z M30.301,22.867
	c-0.139,0.133-0.299,0.239-0.476,0.314c0.002,0.018,0.011,0.033,0.022,0.045c0.027,0.049,0.082,0.076,0.137,0.067
	c0.166-0.09,0.313-0.212,0.431-0.36c-0.034-0.027-0.073-0.049-0.115-0.064L30.301,22.867z M30.006,23.002
	c-0.03,0.033-0.069,0.057-0.113,0.066v0.023h0.045c0.029-0.037,0.063-0.052,0.092-0.09H30.006z M3.74,23.227v-0.09H3.671
	c-0.01,0.044-0.034,0.083-0.068,0.112V23.3c0.156,0.044,0.297,0.13,0.408,0.247h0.023v-0.025c0.025-0.014,0.042-0.039,0.045-0.067
	c-0.087-0.109-0.206-0.188-0.34-0.226L3.74,23.227z M5.213,23.137H4.465v0.022c0.098,0.057,0.183,0.133,0.249,0.225
	c0.038-0.067,0.109-0.109,0.186-0.11l0.113,0.067c-0.06,0.062-0.1,0.141-0.113,0.226c0.123,0.123,0.256,0.235,0.4,0.334v-0.09
	c-0.094-0.211-0.125-0.444-0.088-0.672L5.213,23.137z M2.765,23.271c0.041,0.053,0.096,0.092,0.159,0.112
	c-0.046-0.046-0.1-0.083-0.159-0.11V23.271z M29.643,23.3c-0.344,0.116-0.619,0.38-0.748,0.72c-0.084,0.113-0.139,0.244-0.158,0.383
	h0.022c0.154-0.114,0.292-0.248,0.408-0.4c-0.054-0.054-0.099-0.114-0.136-0.18c0.045-0.029,0.084-0.066,0.113-0.112h0.022v0.022
	c0.063,0.051,0.13,0.096,0.2,0.136c0.156-0.11,0.295-0.245,0.408-0.4C29.727,23.416,29.682,23.359,29.643,23.3z M30.55,23.345
	c-0.028,0.054-0.077,0.095-0.136,0.112v0.021h0.045c0.033-0.05,0.08-0.089,0.137-0.111c-0.013-0.014-0.028-0.022-0.046-0.026V23.345
	z M29.234,23.5c-0.057,0.04-0.109,0.085-0.158,0.135H29.1c0.045-0.056,0.114-0.078,0.159-0.135H29.234z M8.335,23.611
	c0.002,0.412-0.17,0.805-0.476,1.08h0.3l0.023-0.248h0.181c-0.001,0.084,0.006,0.166,0.023,0.248h0.566l0.023-0.248H9.11v-0.022
	c-0.252-0.237-0.446-0.529-0.567-0.854L8.335,23.611z M4.21,23.611c-0.009,0.052-0.021,0.024,0,0.068
	c0.017,0.012,0.1,0.04,0.159,0.067c-0.033-0.063-0.088-0.111-0.154-0.136H4.21z M11.847,23.611c-0.074,0.367-0.173,0.727-0.295,1.08
	h0.589l0.023-0.248h0.159l0.023,0.248H12.9v-0.023c-0.498-0.141-0.875-0.549-0.975-1.057h-0.072H11.847z M3.4,23.68
	c0.045,0.041,0.1,0.072,0.159,0.09C3.516,23.724,3.461,23.692,3.4,23.68z M15.32,24.691l0.023-0.248H15.5
	c0.02,0.082,0.028,0.164,0.023,0.248h0.589V24.6c-0.237-0.108-0.446-0.27-0.612-0.472c-0.038-0.115-0.083-0.228-0.136-0.337
	c-0.039,0.344-0.199,0.664-0.453,0.9H15.32z M29.915,23.9c-0.049,0.034-0.088,0.08-0.113,0.135
	C29.86,24.013,29.903,23.961,29.915,23.9z M4.057,24.08c0.045,0.042,0.1,0.072,0.159,0.09c-0.043-0.044-0.098-0.074-0.159-0.087
	V24.08z M21.87,24.439l0.022,0.248c0.197,0.036,0.4,0.021,0.59-0.045c-0.238-0.047-0.45-0.184-0.59-0.383H21.87l-0.068,0.18H21.87z
	 M25.07,24.688h0.589l0.022-0.136c-0.152-0.049-0.281-0.153-0.363-0.292h-0.026v0.022c-0.026,0.058-0.05,0.118-0.067,0.18
	c-0.08,0.055-0.136,0.136-0.16,0.229L25.07,24.688z M18.724,24.688h0.589v-0.041h-0.027c-0.088-0.069-0.22-0.071-0.317-0.136
	c-0.072-0.087-0.156-0.162-0.249-0.225c-0.019,0.134-0.019,0.271,0,0.405L18.724,24.688z M29.3,24.443
	c-0.04,0.056-0.1,0.078-0.136,0.135h0.045l0.113-0.135H29.3z M4.711,24.488c0.045,0.042,0.1,0.072,0.159,0.09
	c-0.042-0.045-0.096-0.076-0.156-0.09H4.711z M9.176,24.688H9.36v-0.02l-0.2-0.18V24.6c0.015,0.028,0.021,0.061,0.018,0.092
	L9.176,24.688z M21.686,24.688V24.6h-0.02l-0.045,0.067H21.6v0.022h0.092L21.686,24.688z M18.513,24.688
	c0-0.023-0.008-0.047-0.023-0.066v0.023h-0.02l-0.023,0.045h0.068L18.513,24.688z M25.855,24.643v0.045
	c0.039,0.005,0.079-0.004,0.113-0.022L25.855,24.643z M5.391,24.891c0.031,0.037,0.07,0.067,0.113,0.09
	c-0.027-0.039-0.065-0.07-0.11-0.088L5.391,24.891z M28.643,24.98c-0.035,0.045-0.078,0.063-0.113,0.112h0.023
	c0.04-0.037,0.086-0.067,0.137-0.09c-0.013-0.011-0.027-0.018-0.043-0.021L28.643,24.98z M26.854,25.002
	c-0.027,0.018-0.109,0.027-0.137,0.045c0.113,0.017,0.23,0.009,0.34-0.023c-0.066-0.013-0.133-0.019-0.201-0.019L26.854,25.002z
	 M6.1,25.275c0.056,0.037,0.117,0.068,0.181,0.09C6.234,25.313,6.169,25.281,6.1,25.275z M27.834,25.365
	c-0.012,0.012-0.027,0.02-0.045,0.021v0.023h0.041c0.023-0.016,0.091-0.029,0.113-0.045H27.83H27.834z M7,25.455
	c0.049,0.029,0.11,0.029,0.159,0H7z M7.816,25.455c0.049,0.029,0.11,0.029,0.159,0H7.819H7.816z M8.655,25.455
	c0.049,0.029,0.11,0.029,0.159,0H8.657H8.655z M9.494,25.455c0.049,0.029,0.11,0.029,0.159,0H9.5H9.494z M10.31,25.455
	c0.057,0.03,0.125,0.03,0.181,0h-0.179H10.31z M11.148,25.455c0.057,0.03,0.125,0.03,0.181,0H11.15H11.148z M11.987,25.455
	c0.049,0.029,0.11,0.029,0.159,0h-0.157H11.987z M12.803,25.455c0.056,0.03,0.125,0.03,0.181,0H12.8H12.803z M13.642,25.455
	c0.056,0.03,0.125,0.03,0.181,0H13.642L13.642,25.455z M14.458,25.455c0.063,0.031,0.137,0.031,0.2,0H14.458z M15.296,25.455
	c0.057,0.03,0.125,0.03,0.181,0H15.3H15.296z M16.135,25.455c0.057,0.03,0.125,0.03,0.181,0h-0.18H16.135z M16.951,25.455
	c0.063,0.031,0.137,0.031,0.2,0H16.951z M17.79,25.455c0.063,0.031,0.137,0.031,0.2,0H17.79z M18.628,25.455
	c0.057,0.03,0.125,0.03,0.181,0H18.628L18.628,25.455z M19.444,25.455c0.063,0.031,0.137,0.031,0.2,0H19.444z M20.282,25.455
	c0.063,0.031,0.137,0.031,0.2,0H20.282z M21.12,25.455c0.063,0.031,0.137,0.031,0.2,0H21.12z M21.958,25.455
	c0.063,0.031,0.137,0.031,0.2,0H21.958z M22.773,25.455c0.063,0.031,0.137,0.031,0.201,0H22.773z M23.611,25.455
	c0.064,0.031,0.138,0.031,0.201,0H23.611z M24.451,25.455c0.063,0.031,0.137,0.031,0.199,0H24.451z M25.289,25.455
	c0.057,0.03,0.125,0.03,0.182,0h-0.179H25.289z M26.127,25.455c0.057,0.03,0.125,0.03,0.182,0H26.13H26.127z M26.943,25.455
	c0.063,0.031,0.137,0.031,0.199,0H26.943z"/>
</svg>
