<?xml version="1.0" encoding="utf-8"?>
<!-- Generator: Adobe Illustrator 16.0.0, SVG Export Plug-In . SVG Version: 6.00 Build 0)  -->
<!DOCTYPE svg PUBLIC "-//W3C//DTD SVG 1.1//EN" "http://www.w3.org/Graphics/SVG/1.1/DTD/svg11.dtd">
<svg version="1.1" id="Layer_1" xmlns="http://www.w3.org/2000/svg" xmlns:xlink="http://www.w3.org/1999/xlink" x="0px" y="0px"
	 width="39.969px" height="40px" viewBox="0 0 39.969 40" enable-background="new 0 0 39.969 40" xml:space="preserve">
<path id="Color_Fill_1" fill="#FFFFFF" d="M19.269,12.479c0.04,0.154-0.023,0.073,0.1,0.143c0.042-0.031,0.092-0.048,0.144-0.048
	v0.142c3.534,0,7.325,0.333,10.66-0.047v0.808c-0.611,0.005-1.222-0.042-1.825-0.142l-2.641,0.047c-2.132,0-4.467,0.042-6.435,0.19
	v0.144l-0.816,0.047v0.101c0.341,0.2,0.106,0.537,0.288,0.899c0.116,0.11,0.17,0.27,0.144,0.427c0.141-0.039,0.291-0.039,0.432,0
	l-0.051-0.145h0.34v0.142h0.528c0.021,0.115,0.054,0.226,0.1,0.333l0.1-0.047c0,0.222,0.016,0.445,0.048,0.665
	c0.205-0.114,0.439-0.163,0.672-0.142c0.11,0.2,0.129,0.465,0.24,0.618c0.313-0.585,1.528-0.438,2.113-0.428v-0.1
	c-0.241-0.128-0.434-0.123-0.441-0.47c-0.098-0.37,0.122-0.749,0.492-0.847c0.012-0.003,0.023-0.006,0.036-0.009
	c0.479-0.3,0.7,0.478,1.151,0.285v-0.1l0.336,0.1c0.092-0.047,0.188-0.081,0.289-0.1h0.047c0.052,0.019,0.023,0.125,0.193,0.1
	c0.314-0.167,0.654-0.279,1.008-0.332c0.171,0.073,0.309,0.209,0.383,0.38c0.129,0.249,0.164,0.536,0.101,0.808
	c-0.19-0.009-0.365,0.106-0.432,0.285h0.864c0.074-0.059,0.023-0.03,0.1,0c0.128,0.117,0.273,0.213,0.432,0.285v-0.24h0.1
	c0.356-0.254,1.537,0.037,2.113,0.047v-0.284c0.214,0.019,0.424,0.067,0.625,0.142c0.069-0.237,0.053-0.263,0.479-0.237
	c0.294,0.096,0.604,0.128,0.912,0.095c0.136-0.281,0.153-0.606,0.048-0.9l0.145-0.047c0.162-0.087,0.353-0.104,0.527-0.047
	c0.109,0.098,0.179,0.233,0.191,0.38c-0.176,0.183-0.293,0.415-0.336,0.665c0.208,0.195,0.387,0.419,0.528,0.665
	c0.354,0.228,0.722,0.434,1.101,0.618c0.185-0.072,0.391-0.072,0.576,0c0.063,0.086,0.111,0.183,0.144,0.285
	c0.101,0.083,0.274-0.188,0.384,0.189c-0.026,0.027-0.043,0.063-0.048,0.101c0.193-0.004,0.382,0.063,0.528,0.189
	c0.035-0.225,0.083-0.446,0.144-0.665c-0.092-0.023-0.175-0.073-0.239-0.143v-0.104l0.1-0.047c0.146-0.087,0.311-0.136,0.479-0.143
	c0.058,0.169,0.058,0.353,0,0.523h0.24c-0.006,0.066,0.011,0.133,0.048,0.189V16.66h0.288v1.234l0.288-0.047
	c0.076,0.208,0.19,0.401,0.336,0.569c0.039-0.067,0.115-0.104,0.191-0.095c0.175,0.104,0.297,0.275,0.337,0.475
	c-0.077,0.053-0.116,0.146-0.101,0.237c0.467,0.29,0.848,0.7,1.101,1.188c-0.152,0-0.065-0.08-0.144,0.047
	c0.397,0.255,0.715,0.618,0.914,1.047c-0.139,0.075-0.283,0.139-0.432,0.189c-0.079-0.084-0.145-0.18-0.192-0.285h-0.048
	c0.027,0.515-0.038,1.029-0.191,1.521c-0.566,1.086-2.045,1.593-3.073,2.233c-1.112,0.869-2.363,1.546-3.7,2H13.558
	c-0.977,0.078-1.959,0.047-2.929-0.096c-0.884-0.306-1.711-0.755-2.449-1.33c-0.47-0.294-0.923-0.515-1.393-0.808
	c-0.447-0.375-0.95-0.679-1.489-0.9c-0.213-0.024-0.428,0.008-0.624,0.095l-0.432-0.047c-0.112-0.135-0.164-0.309-0.143-0.482h0.1
	v0.048c0.03,0.041,0.047,0.091,0.048,0.142c0.151,0.022,0.304-0.012,0.432-0.095c0.062-0.088,0.078-0.25,0.144-0.333
	c0.025,0.053,0.059,0.101,0.1,0.143c-0.093-0.156-0.252-0.261-0.432-0.285h0.04c0.106-0.047,0.223-0.063,0.338-0.047
	c-0.136-0.496-0.153-1.018-0.048-1.521c0.048-0.135,0.248-0.342,0.286-0.476c-0.036-0.155-0.052-0.314-0.048-0.475l0.24-0.333H5.251
	v-0.047l-0.96,0.476c-0.15,0.184-0.177,0.447-0.336,0.617v-0.048c-0.157-0.129-0.302-0.272-0.432-0.428
	c0.314-0.28,0.504-0.673,0.528-1.093c0.058-0.123,0.106-0.25,0.144-0.381c-0.253-0.201-0.527-0.375-0.816-0.521v0.047
	c0.326,0.475,0.01,1.938,0,2.708h-0.1c-0.049-0.493-0.016-0.991,0.1-1.473c0.063-0.499-0.003-1.007-0.192-1.474
	c-0.022-0.4,0.078-0.798,0.288-1.14H3.234c-0.041,0.108-0.106,0.206-0.192,0.285c-0.362,0.071-0.733,0.087-1.1,0.047
	c-0.279,0.056-0.689,0.117-0.96,0.144c-0.167,0.027-0.338-0.009-0.48-0.101c-0.384-0.324-0.551-0.836-0.433-1.324l0.288-0.189
	c0.151-0.271-0.016-0.5,0.288-0.618c0.294-0.109,0.618-0.109,0.912,0l-0.048-0.475c0.979,0,1.508-0.139,2.5-0.142
	c-0.029-0.317-0.013-0.637,0.048-0.95c-0.052,0.001-0.103-0.016-0.144-0.047c0.181-0.083,0.1-0.027,0.1-0.238h0.134v-2.043h0.192
	c-0.04-0.243-0.004-0.491,0.1-0.713c0.042-0.03,0.092-0.047,0.144-0.047l0.048,0.142c0.054,0.152,0.071,0.315,0.048,0.475h0.332
	v0.143h3.313c-0.006-0.128,0.01-0.257,0.048-0.38c0.02,0.012,0.036,0.028,0.048,0.048c0.046,0.104,0.063,0.219,0.048,0.332h0.625
	l0.048-0.1c0.172-0.521,0.269-1.063,0.288-1.611l0.432,0.047v0.285c0.3,0.033,0.481,0.147,0.768,0.19
	c0.049-0.175,0.032-0.167,0.24-0.19c0.089,0.051,0.187,0.085,0.288,0.101V9.771h0.1v0.76c0.11,0.063,0.056,0.073,0.048,0.285
	c0.388,0.052,0.762,0.181,1.1,0.38v-0.28c0.478,0.065,0.959,0.099,1.441,0.1v0.142c0.052,0,0.103-0.016,0.144-0.047
	c0.051-0.122,0.159-0.21,0.288-0.237l0.048,0.143c0.036,0.057,0.052,0.123,0.048,0.19h0.145c-0.061-0.396-0.044-0.799,0.048-1.188
	v1.188c0.099,0.067,0.217,0.1,0.336,0.095v-0.058c-0.156-0.039-0.073,0.023-0.144-0.1h0.192c-0.08-0.468-0.242-0.919-0.48-1.33
	c-0.262-0.575-0.454-1.088-0.72-1.663c-0.234-0.282-0.369-0.633-0.384-1c0.139-0.099,0.309-0.147,0.48-0.135
	c1.235,1.256,2.39,2.589,3.457,3.991c0.237,0.314,0.446,0.649,0.624,1l0.141,0.425h0.768C18.975,12.482,19.123,12.499,19.269,12.479
	z M9.769,10.722c0.254,0.13,0.531,0.21,0.816,0.237C10.335,10.817,10.056,10.735,9.769,10.722z M11.306,11.102
	c0.083,0.042,0.061,0.042,0.144,0h-0.148H11.306z M4.487,11.149v0.475h0.1v-0.38c-0.05-0.035-0.062-0.06-0.104-0.095H4.487z
	 M9.817,11.149c0.054,0.05,0.138,0.05,0.192,0H9.813H9.817z M10.057,11.197c0.07,0.055,0.169,0.055,0.24,0H10.057z M10.345,11.244
	c0.054,0.05,0.138,0.05,0.192,0h-0.196H10.345z M9.769,11.529c0.071,0.053,0.169,0.053,0.24,0H9.769z M10.153,11.577
	c0.087,0.059,0.201,0.059,0.288,0h-0.292H10.153z M12.746,11.672v0.1c0.13,0.018,0.262,0.001,0.384-0.048
	c-0.131-0.002-0.261-0.02-0.388-0.052H12.746z M3.958,15.092c-0.037,0.032-0.107,0.063-0.144,0.095h0.189
	c-0.005-0.036-0.021-0.07-0.048-0.095H3.958z M19.372,15.092v0.095h0.1v-0.095h-0.103H19.372z M19.516,15.092v0.095h0.048v-0.095
	h-0.051H19.516z M24.605,15.33c0.001-0.052-0.016-0.103-0.047-0.143c-0.078-0.039-0.158-0.071-0.24-0.095v0.095
	c0.063,0.095,0.171,0.15,0.285,0.143H24.605z M25.374,15.33h0.192c0.041-0.076,0.074-0.155,0.1-0.238h-0.055
	c-0.077,0.039-0.158,0.071-0.24,0.095v0.143H25.374z M24.895,15.14c-0.02,0.108-0.045,0.052,0,0.142
	c0.069,0.12,0.021,0.073,0.191,0.1c0.025-0.061,0.041-0.125,0.048-0.19c-0.077-0.03-0.159-0.048-0.243-0.052H24.895z M24.318,15.425
	l-0.049,0.238h0.049c0.057-0.035,0.125-0.052,0.191-0.047c0.043-0.058,0.076-0.122,0.1-0.19h-0.295L24.318,15.425z M25.663,15.425
	h-0.294v0.048c0.082,0.105,0.203,0.173,0.336,0.19v-0.096c-0.03-0.041-0.046-0.091-0.046-0.142H25.663z M30.896,15.948v0.142
	c0.193,0.006,0.264,0.026,0.336-0.095h-0.195c-0.042-0.031-0.092-0.048-0.145-0.048L30.896,15.948z M25.902,16.09v0.1h0.049
	c-0.005-0.039-0.023-0.074-0.053-0.1H25.902z M30.225,16.09c0,0.052,0.017,0.103,0.049,0.143c0.09,0.042,0.189,0.059,0.287,0.047
	l0.049-0.144c-0.127-0.036-0.258-0.052-0.389-0.047H30.225z M32.338,16.328v0.188h0.048V16.47c0.026-0.027,0.044-0.062,0.048-0.1
	L32.338,16.328z M36.275,17.468c-0.016,0.066,0.068,0.069,0.101,0.095c0.024-0.047-0.091-0.081-0.106-0.096L36.275,17.468z
	 M35.124,17.848v0.101h0.045v-0.101h-0.05H35.124z M37.045,17.991v0.095h0.336v-0.049h-0.053V17.99H37.04L37.045,17.991z
	 M35.652,18.275c0.115,0.005,0.229-0.012,0.337-0.047c-0.027-0.025-0.063-0.042-0.101-0.047c-0.035-0.041-0.06-0.054-0.1-0.1
	c-0.038,0.004-0.073,0.02-0.1,0.047c-0.029,0.043-0.045,0.094-0.043,0.146H35.652z M5.497,18.323v-0.19H4.869v0.049h0.1
	c0.177,0.152,0.394,0.251,0.624,0.284c0.062-0.116-0.021-0.032,0.1-0.095v-0.049H5.491L5.497,18.323z M16.497,18.323
	c0.07,0.056,0.169,0.056,0.24,0H16.497z M5.395,20.27c-0.152,0.151-0.238,0.356-0.24,0.57h0.048c0.012-0.02,0.028-0.035,0.048-0.047
	c0.08-0.166,0.162-0.337,0.24-0.523h-0.1H5.395z M34.495,24.309c0.004,0.112-0.013,0.225-0.048,0.332h0.1
	c0.348-0.308,1.689-0.723,1.777-1.141H36.27v-0.047h-0.101c-0.339,0.517-0.5,0.079-0.815,0.285l-0.049,0.189
	C35.129,24.197,34.814,24.344,34.495,24.309z M24.411,23.738c-0.001,0.051,0.017,0.102,0.048,0.142v-0.047
	c0.025-0.026,0.043-0.06,0.048-0.095h-0.1H24.411z M8.132,23.786c-0.138,0.12-0.376,0.127-0.528,0.237h0.1
	c0.454,0.354,0.956,0.641,1.489,0.855v-0.1c-0.054-0.154-0.087-0.313-0.1-0.476C8.432,24.316,8.538,23.956,8.132,23.786z
	 M14.278,24.309c0.012,1.02-0.515,1.158-0.816,1.758h0.048c0.573-0.092,1.157-0.092,1.729,0v-0.1
	c-0.546-0.371-0.856-1.004-0.816-1.663h-0.144L14.278,24.309z M19.416,24.546c-0.077,0.59-0.367,1.13-0.816,1.521h0.1
	c0.521-0.12,1.063-0.12,1.585,0v-0.101c-0.371-0.227-0.645-0.583-0.768-1C19.494,24.824,19.461,24.684,19.416,24.546L19.416,24.546z
	 M29.452,24.546c-0.024,0.837-0.56,1.009-0.816,1.521h0.101c0.521-0.12,1.063-0.12,1.584,0v-0.051
	c-0.383-0.287-0.667-0.685-0.815-1.14C29.496,24.765,29.479,24.654,29.452,24.546L29.452,24.546z M24.41,24.646
	c-0.02,0.754-0.53,0.93-0.768,1.425h0.047c0.521-0.124,1.064-0.124,1.586,0v-0.101c-0.582-0.218-0.59-1.148-0.864-1.33L24.41,24.646
	z"/>
</svg>
