<?xml version="1.0" encoding="utf-8"?>
<!-- Generator: Adobe Illustrator 16.0.0, SVG Export Plug-In . SVG Version: 6.00 Build 0)  -->
<!DOCTYPE svg PUBLIC "-//W3C//DTD SVG 1.1//EN" "http://www.w3.org/Graphics/SVG/1.1/DTD/svg11.dtd">
<svg version="1.1" id="Layer_1" xmlns="http://www.w3.org/2000/svg" xmlns:xlink="http://www.w3.org/1999/xlink" x="0px" y="0px"
	 width="40px" height="40px" viewBox="0 0 40 40" enable-background="new 0 0 40 40" xml:space="preserve">
<path id="Color_Fill_1" fill="#FFFFFF" d="M10.244,12.984h0.781c0.089,0.092,0.141,0.213,0.146,0.341h-0.2v0.049h0.049v0.049
	c0.577-0.125,1.167-0.174,1.756-0.146V13.13h0.146c-0.004-0.378,0.045-0.755,0.146-1.119V9.676
	c-0.069-0.469-0.052-0.947,0.049-1.411c-0.006,1.361,0,2.7,0.1,3.989h0.049v-0.049l0.146-0.389h1.317v0.146
	c0.506,0.024,1.014-0.009,1.512-0.1v-0.386c0.212-0.006,0.425,0.011,0.634,0.049v0.1c-0.061,0.073-0.11,0.155-0.146,0.243
	c0.363,0.072,0.58,0.271,0.878,0.341c-0.074-0.335-0.107-0.679-0.1-1.022v-0.052l0.1,0.049v-0.049
	c0.032-0.042,0.049-0.093,0.049-0.146h-0.583c-0.035-0.11-0.052-0.226-0.049-0.341c-0.631-0.081-1.269-0.081-1.9,0V10.6
	c0.047-0.075,0.081-0.157,0.1-0.243h-0.151c-0.006,0.067-0.022,0.133-0.049,0.195h-0.1c-0.069-0.117-0.104-0.252-0.1-0.389
	c0.068-0.041,0.106-0.116,0.1-0.195h0.146c0.025,0.041,0.059,0.075,0.1,0.1c-0.036,0.042-0.061,0.055-0.1,0.1h0.15v-0.1
	c-0.041-0.025-0.075-0.059-0.1-0.1c0.138-0.023,0.27-0.073,0.39-0.146c0.191-0.015,0.38,0.037,0.537,0.146
	c0.425,0.063,0.858,0.029,1.268-0.1c0.154-0.026,0.312,0.01,0.439,0.1c0.014-0.085,0.068-0.158,0.146-0.195
	c0.021,0.45,0.683,0.315,1.122,0.292c0.329,0.113,0.68,0.147,1.024,0.1c0.841,0,1.601,0.017,2.341,0v0.195
	c-1.658,0-2.931,0.1-4.438,0.1c-0.045,0.191-0.062,0.388-0.049,0.584c0.254,0.3,0.046,1.46,0.293,1.849v-0.1
	c0.429-0.3-0.124-0.556,0.829-0.535V12.3h0.049c-0.06,0.108-0.109,0.222-0.146,0.34c0.256,0.133,0.541,0.2,0.829,0.195v-0.192
	c0.041-0.025,0.075-0.059,0.1-0.1L20,12.595l0.049,0.243c0.252,0,1.035,0.106,1.073,0.1c0.19-0.115,0.413-0.166,0.634-0.146
	l0.044,0.143c0.019,0.164,0.003,0.33-0.049,0.487c0.391,0.2,0.835,0.269,1.269,0.195c0.342,0.583,0.83,1.069,1.414,1.411
	c1.169,0.269,2.373,0.35,3.566,0.242h1.073c1.215,0.129,2.439,0.146,3.657,0.049c0.571,0.048,1.146,0.014,1.707-0.1
	c0.08-0.031,1.479,0.049,1.756,0.049l3.801-0.049v0.924c-3.229,0-6.342-0.048-9.801-0.049h-3.17c-0.508,0.139-1.23,0.3-1.756,0.438
	h-0.877c-0.256,0.105-0.422,0.466-0.684,0.584c-0.491,0.035-0.98,0.101-1.463,0.194c0.43,0.01,0.583,0.049,1.023,0.049v0.195
	c0.256,0.066,1.256,0.687,1.317,0.633c0.041-0.062,0.074-0.127,0.101-0.195h0.146V17.85c-0.053,0-0.104-0.018-0.146-0.05
	c0.147-0.021,0.299-0.004,0.438,0.05h-0.147l0.049,0.485c0.158,0.06,0.322,0.108,0.488,0.146c0.047-0.134,0.132-0.252,0.243-0.34
	l0.488,0.049c0.098,0.16,0.147,0.346,0.146,0.535c0.179,0.021,0.359,0.021,0.537,0h0.049v-0.049
	c-0.107-0.113-0.056-0.038-0.049-0.242c0.073-0.063,0.156-0.111,0.244-0.146c0.079-0.049,0.313-0.047,0.391-0.1
	c-0.133,0.018-0.268,0.001-0.391-0.05h0.342c-0.002-0.053,0.016-0.104,0.049-0.146c0.042-0.031,0.093-0.049,0.146-0.049
	c0.165,0.586,0.446,1.131,0.829,1.604h0.634v0.195l-0.438,0.049v0.049c0.142,0.183,0.227,0.403,0.244,0.634h-0.684v0.049
	c0.096,0.233,0.096,0.496,0,0.729c-0.152,0.636-0.557,1.181-1.122,1.508c-0.775,0.765-1.626,1.448-2.537,2.043
	c-0.88,0.192-1.786,0.242-2.683,0.146H10.927c-2.163,0-4.551,0.147-6.2-0.39c-1.435-0.533-2.723-1.4-3.756-2.529
	c-0.027,0.026-0.063,0.044-0.1,0.049c-0.03,0.212-0.071,0.22-0.286,0.244c-0.099-0.105-0.151-0.245-0.146-0.389
	c-0.132-0.023-0.263-0.057-0.39-0.101L0,21.741c0.125-0.05,0.217-0.16,0.244-0.292c0.181-0.029,0.161-0.065,0.341-0.1
	c-0.008-0.406,0.008-0.813,0.049-1.217c-0.146-0.051-0.269-0.154-0.341-0.292c0.207-0.37,0.259-0.808,0.146-1.216h-0.1
	c-0.01,0.068,0.04-0.02,0.049,0.049c0.094,0.038-0.1,0.049-0.1,0.049v-0.484c0.027-0.027,0.044-0.063,0.049-0.101
	c0.376-0.146,0.728-0.624,0.976-0.681c-0.01,0.089-0.044,0.173-0.1,0.243h0.2c0.161-0.177,0.396-0.268,0.634-0.243
	c0.084,0.15,0.01,0.155,0.2,0.195c0.06-0.037,0.13-0.055,0.2-0.049c-0.024-0.216,0.07-0.22,0.39-0.195
	c0.086,0.148,0.1,0.146,0.341,0.146c0-0.141-0.047-0.067,0-0.146c0.118-0.07,0.253-0.105,0.39-0.1c0.09,0.162,0,0.168,0.244,0.194
	c0.088-0.208,0.322-0.313,0.537-0.243c0.019,0.094,0.105,0.156,0.2,0.146c0.066-0.122,0.208-0.182,0.341-0.146v-0.141
	c0.724,0,1.174-0.075,1.707-0.049c0.005-0.067,0.022-0.133,0.049-0.195h0.1l0.049,0.1c0.019,0.174,0.107,0.331,0.244,0.438
	c0.13-0.245,0.428-0.11,0.634-0.049v-0.05c-0.09-0.092-0.142-0.213-0.146-0.342c0.428,0,0.6,0,0.976,0
	c0.118,0.156,0.248,0.303,0.39,0.438c0.092-0.042,0.036-0.023,0.146,0v-0.146c0.253-0.043,0.514,0.01,0.732,0.146
	c0.249-0.173,0.58-0.173,0.829,0c0.095-0.176,0.291-0.273,0.488-0.243c0.041,0.032,0.033,0.135,0.146,0.1l0.049-0.146H12.1
	l0.1,0.146h0.439l0.049,0.101c0.085-0.021,0.168-0.056,0.244-0.101c0.12-0.063,0.033,0.021,0.1-0.1
	c-0.403-0.236-0.739-0.57-0.976-0.973c-0.916,0.021-2.815,0.163-3.024-0.486h-0.2V16.1h-2c-0.043-0.06-0.077-0.125-0.1-0.195
	c0.053-0.273,0.053-0.554,0-0.827c0.086-0.488,0.052-0.989-0.1-1.46H6.78l-0.049-0.243H6.683c0.005,0.068-0.012,0.137-0.049,0.195
	v-0.246c0.815,0,1.351-0.023,2.244,0v0.1c-0.052,0.14-0.069,0.291-0.049,0.438h0.244c0.125-0.171,0.239-0.35,0.341-0.535H9.22V13.13
	c0.204-0.124,0.443-0.176,0.68-0.146c0.001-0.278,0.035-0.556,0.1-0.827L9.9,8.7C9.816,8.137,9.816,7.563,9.9,7
	C9.89,8.994,10.085,11.336,10.244,12.984z M15.317,10.26c0.253,0.086,0.528,0.086,0.781,0H15.317L15.317,10.26z M18.976,10.746H19.9
	v0.049h-0.046c-0.287,0.075-0.585,0.092-0.878,0.049v-0.1V10.746z M13.8,11.962c0.148,0.021,0.299,0.004,0.439-0.049h-0.727v0.049
	h-0.049c-0.004,0.167-0.038,0.331-0.1,0.486c0.076,0.009,0.147,0.044,0.2,0.1c0.038-0.004,0.073-0.021,0.1-0.049
	c0.089-0.068,0.128-0.184,0.1-0.292C13.8,12.131,13.813,12.045,13.8,11.962z M19.849,12.643c-0.02,0.11-0.045,0.053,0,0.146
	c0.027,0.027,0.062,0.044,0.1,0.049v-0.195H19.849z M21.459,12.886c-0.043,0.041-0.092,0.075-0.146,0.1v0.1
	c0.092,0.089,0.214,0.141,0.342,0.146c0.004-0.038,0.021-0.073,0.049-0.1c-0.004-0.038-0.021-0.073-0.049-0.1
	c-0.022-0.087-0.102-0.147-0.191-0.146L21.459,12.886z M8.829,14.005V14.3h0.1v-0.051c0.065-0.063,0.102-0.151,0.1-0.243
	L8.829,14.005L8.829,14.005z M8.829,14.394v0.584h0.147v-0.583L8.829,14.394L8.829,14.394z M8.829,15.124v0.438h0.1v-0.438H8.829z
	 M39.414,15.465c-0.06,0.104-0.094,0.221-0.1,0.34c0.072,0.039,0.141,0.088,0.199,0.146c0.038-0.005,0.074-0.022,0.101-0.049
	c0.186-0.061,0.19-0.1,0.2-0.34C39.695,15.487,39.555,15.453,39.414,15.465L39.414,15.465z M6.683,17.216
	c0.029,0.056,0.083,0.093,0.146,0.101C6.786,17.275,6.737,17.241,6.683,17.216z M10.883,17.266c0.056,0.054,0.145,0.054,0.2,0
	H10.883z M5.176,17.314v0.1c0.11-0.043,0.231-0.043,0.341,0v-0.1H5.171H5.176z M6.152,17.363c0.084,0.043,0.062,0.043,0.146,0H6.146
	H6.152z M22.98,17.412c0.078,0.041,0.16,0.074,0.244,0.1v-0.1h-0.248H22.98z M24.493,17.85h0.1V17.9h-0.1V17.85L24.493,17.85z
	 M27.078,18.191h0.1v0.049h-0.1v-0.051V18.191z M26.979,18.24h0.1c-0.051,0.08-0.119,0.146-0.2,0.195
	c0.021-0.071,0.055-0.138,0.099-0.197L26.979,18.24z M25.855,18.289c-0.076,0.081-0.127,0.183-0.146,0.292
	c0.182,0,0.356,0.069,0.488,0.194v-0.344c-0.06-0.035-0.11-0.086-0.146-0.146h-0.2L25.855,18.289z M27.466,18.338v0.146h0.144
	v-0.149h-0.146L27.466,18.338z M26.783,18.484c0.026,0.027,0.044,0.063,0.049,0.1h-0.051v-0.1H26.783z M27.466,18.584v0.243
	l0.244,0.049l-0.049-0.292h-0.2H27.466z M26.686,18.633c0.027,0.027,0.045,0.063,0.049,0.1h-0.051v-0.1H26.686z M25.759,18.682
	c0.084,0.043,0.062,0.043,0.146,0h-0.149H25.759z M0.585,22.032v0.1h0.147v-0.051L0.585,22.032z M2.731,22.032
	c-0.058,0.073-0.125,0.139-0.2,0.194c0.012,0.021,0.028,0.037,0.049,0.049c0.193,0.24,0.445,0.425,0.732,0.535
	c0.087-0.136,0.154-0.283,0.2-0.438C3.2,22.3,3.038,22.112,2.731,22.032L2.731,22.032z M5.024,22.908
	c-0.05,0.268-0.167,0.52-0.341,0.729c0.253,0.021,0.501,0.088,0.732,0.195v-0.101C5.192,23.545,5.257,23.084,5.024,22.908z
	 M8.439,23.008c-0.04,0.401-0.211,0.777-0.488,1.07h1.025v-0.051c-0.231-0.311-0.412-0.656-0.537-1.022V23.008z M11.756,23.008
	c-0.028,0.395-0.182,0.77-0.439,1.07h0.976v-0.051c-0.138-0.126-0.253-0.273-0.341-0.438c-0.015-0.208-0.082-0.409-0.196-0.584
	V23.008z M15.122,23.008c-0.072,0.392-0.24,0.759-0.488,1.07h0.976v-0.1c-0.211-0.298-0.376-0.626-0.488-0.974V23.008z
	 M18.439,23.008C18.407,23.4,18.254,23.774,18,24.076h0.976v-0.1c-0.424-0.177-0.276-0.795-0.537-0.972V23.008z M21.805,23.008
	c-0.059,0.396-0.229,0.766-0.488,1.07h1.513v-0.1c-0.286-0.241-0.448-0.6-0.438-0.974H21.8L21.805,23.008z M25.366,23.008v0.1h0.1
	v-0.054h0.05v-0.049h-0.149V23.008z"/>
</svg>
