<svg xmlns="http://www.w3.org/2000/svg" width="40" height="40" viewBox="0 0 40 40">
  <defs>
    <style>
      .cls-1 {
        fill: #fff;
        fill-rule: evenodd;
      }
    </style>
  </defs>
  <path id="Color_Fill_1" data-name="Color Fill 1" class="cls-1" d="M12.2,16.857c0.966,0,1.447.118,2.238,0.114A0.28,0.28,0,0,1,14.49,16.8v0.171h0.28a0.618,0.618,0,0,0,.168-0.4,2.16,2.16,0,0,1-.112-0.343h0.9a1.189,1.189,0,0,0-.056.514,0.728,0.728,0,0,0,.392.057,1.984,1.984,0,0,0,.056.457,4.041,4.041,0,0,1,.727.4c0-.24-0.115-1.135-0.112-1.143h0.112a2.311,2.311,0,0,0,.056-0.457h-0.28V15.771l-0.5-.171c-0.116.011-.444,0.249-0.5,0.229l-0.056-.171c-0.266-.117-0.684.081-0.9-0.057a0.208,0.208,0,0,1-.056-0.114c0.138-.074.038,0.024,0.112-0.114H14.49V15.6H14.378a2.128,2.128,0,0,0-.112-0.4c0.144-.092.079-0.194,0.224-0.286a0.247,0.247,0,0,0,.168.171v0.057c-0.177,0-.075-0.1-0.168.057h0.224a0.341,0.341,0,0,0-.112-0.229,0.972,0.972,0,0,0,.392-0.171,0.913,0.913,0,0,1,.559.171h1.4c0.016-.149,0-0.112.28-0.114,0.081,0.145-.012.064,0.168,0.114,0.046-.185-0.027-0.087.112-0.171,0.071,0.3.189,0.3,0.559,0.286,0.171,0.062.441-.056,0.727,0a19.841,19.841,0,0,0,3.524.114v0.171c-0.729-.008-2.657-0.14-2.965.229a4.457,4.457,0,0,0-1.734-.114,1.918,1.918,0,0,0-.056.571H17.231v0.057a2.291,2.291,0,0,1,.056.914l0.9,0.114-0.056.514a0.741,0.741,0,0,1,.28.286L18.8,18a2.587,2.587,0,0,0,1.566.286c0,0.232-.092.136,0.056,0.229a4.027,4.027,0,0,0,.5.171V18.629l-0.056-.057h0.112A7.242,7.242,0,0,0,22.6,18.8a0.223,0.223,0,0,1,.168-0.229c0.086-.04.008-0.007,0.168,0v0.171c-0.063.084-.117,0.174-0.056,0.229a2.438,2.438,0,0,0,.28.343c0.084-.1.041-0.058,0.112-0.057h0.056c-0.044.1-.147,0.105-0.056,0.171a0.691,0.691,0,0,0,.224.229V19.6H23.441c-0.055-.058.055-0.056,0.056-0.057V19.486h0.112C24.1,20.263,25.861,20,27.077,20l9.734,0.057V19.829a7.769,7.769,0,0,0,1.678,0v0.228L39.776,20a0.7,0.7,0,0,1,.224.514,0.99,0.99,0,0,1-.224.171c-0.263.159-1.017-.075-1.231,0.057a0.3,0.3,0,0,0-.056.171,7.763,7.763,0,0,0-1.678,0V20.686c-2.029-.006-4.157.055-6.1,0.057-2.372,0-4.958-.037-6.937.171-0.222.817-.858,0.464-0.9,1.086h0.112a2.143,2.143,0,0,0,.671.114,0.246,0.246,0,0,1,.168-0.171V22c0.123,0.145.038,0.175,0.28,0.229a0.2,0.2,0,0,1,.112-0.057v0.172a0.267,0.267,0,0,0-.168.057,1.7,1.7,0,0,0,.448-0.057,0.489,0.489,0,0,1,.168-0.229,0.371,0.371,0,0,0,.224.057v0.286c0.725,0,1.018.058,1.79,0.057v0.229a3.1,3.1,0,0,1,.839.171,0.2,0.2,0,0,0,.056.114,1.436,1.436,0,0,0-.112.514,1.7,1.7,0,0,0,.783.286,4.576,4.576,0,0,0,.28.8,1.787,1.787,0,0,1-.559.171,1.07,1.07,0,0,0,.224.171v0.057H28.14a1.882,1.882,0,0,0-.336.457,0.266,0.266,0,0,1,.168.057,0.91,0.91,0,0,0,.056.857,1.036,1.036,0,0,0-.336.8c-0.293-.044-0.962.855-1.175,0.629-0.077.111-.086,0.244-0.168,0.343-0.25-.207-0.957.482-1.231,0.686-0.143.106-.457,0.1-0.615,0.229a0.984,0.984,0,0,1-.168.229c-0.325-.137-0.369.162-0.615,0.4-0.049.047-.109-0.114-0.112-0.114a0.853,0.853,0,0,1-.392.057c-0.054.032-.133,0.061-0.224,0.114v0.114a6.9,6.9,0,0,1-.9,0h-8.5a21.177,21.177,0,0,1-3.245,0c-0.693-.146-2.947.222-3.357-0.057,0.2-.024.141,0.027,0.224-0.114H6.993c-0.5.347-1.326-.509-1.734-0.857a0.353,0.353,0,0,1-.224,0,0.207,0.207,0,0,0,.056-0.114,10.451,10.451,0,0,1-2.462-1.714l-0.168.057a0.267,0.267,0,0,0-.168-0.343,3.5,3.5,0,0,0-.559-0.057V26.629H1.79c0.182-.195.261,0.027,0.336-0.229-0.207-.1.043-0.141-0.168-0.229-0.127.184-.322,0.266-0.448,0.457H1.455a1.391,1.391,0,0,1-.336-0.857,1.243,1.243,0,0,0,.839-0.114C1.88,25.645,1.981,25.7,1.9,25.714c-0.043.11-.056-0.114-0.056-0.114H1.9V25.543a0.544,0.544,0,0,1-.336-0.114c0.005,0,.161-0.075.112-0.114H1.622c-0.1-.374-0.357-0.369-0.839-0.343V24.514H0.671A0.281,0.281,0,0,0,.5,24.457a1.986,1.986,0,0,1-.056.457H0.392V24.743a0.392,0.392,0,0,0,.056-0.229H0.392V24.457A0.768,0.768,0,0,1,0,24.343a0.356,0.356,0,0,0,.224-0.057,0.8,0.8,0,0,1,0-.571,4.531,4.531,0,0,0,.727-0.229,0.221,0.221,0,0,1-.112-0.171H0.9c0.088,0.145.147,0.225,0.28,0.171a0.818,0.818,0,0,0,.839-0.743,1.516,1.516,0,0,0,.839-0.229,0.319,0.319,0,0,0,.28.057c0.012-.08-0.046.023-0.056-0.057-0.108-.044.112-0.057,0.112-0.057a2.359,2.359,0,0,1,.671-0.114c0.012-.08-0.046.023-0.056-0.057-0.108-.044.112-0.057,0.112-0.057,0.1,0.168.089,0.09,0.28,0.057V22.229a0.19,0.19,0,0,1-.112-0.057,1.328,1.328,0,0,0,.951-0.057H5.371c0.019-.021-0.044-0.18.056-0.114a5.181,5.181,0,0,0,1.79-.171s1.324-.007,1.343,0c0.065,0.023.091,0.18,0.28,0.114,0.024-.008.13-0.159,0.168-0.172a3.835,3.835,0,0,1,1.007.172s0.219-.055.224-0.057V21.771c0.026-.012,1.063.114,1.063,0.114V21.657h0.056V21.6a2.594,2.594,0,0,0-.727-0.857,4.288,4.288,0,0,0-1.566-.057H4.923A1.217,1.217,0,0,0,4.531,20a0.3,0.3,0,0,1-.056.286V20H4.308V19.829H4.531A0.216,0.216,0,0,1,4.7,19.714C4.651,19.628,4.54,19.672,4.643,19.6a0.281,0.281,0,0,1,.168-0.057c0.046-.186-0.027-0.087.112-0.171,0.012,0.08-.046-0.023-0.056.057-0.108.044,0.112,0.057,0.112,0.057V19.371a1.285,1.285,0,0,1-.112-0.686,1.361,1.361,0,0,0,.559-0.457,10.881,10.881,0,0,0,1.231,0,0.682,0.682,0,0,0,.336.343,1.166,1.166,0,0,0,.5-0.286H7.273V18H7.385a1.49,1.49,0,0,1,.671-0.057c-0.01-1.821.056-3.807,0.056-5.714a8.811,8.811,0,0,1,.056-2.171c0,2.623.052,5.353,0.056,7.886H9.51a1.066,1.066,0,0,1,.056.343c-0.182.047-.085-0.028-0.168,0.114H10.35a6.573,6.573,0,0,1,1.51-.514V17.829a0.312,0.312,0,0,1-.336-0.172,0.3,0.3,0,0,1-.056-0.171c0.747-.567.615-1.278,0.615-2.571V10H12.14C12.138,12.288,12.193,14.656,12.2,16.857Zm6.49-1.2H18.8v0.057A0.191,0.191,0,0,1,18.685,15.657Zm0.9,0h0.112v0.057A0.191,0.191,0,0,1,19.58,15.657Zm-0.9.172a2.463,2.463,0,0,1,1.007.057A2.463,2.463,0,0,1,18.685,15.829Zm-4.755.914a1,1,0,0,1,.5.057A1,1,0,0,1,13.93,16.743Zm-1.734.229v0.686h0.112V17.6c0.092-.156.082-0.495,0.168-0.629H12.2Zm-0.168.057a3.229,3.229,0,0,1-.112.457h0.112V17.143C12.1,17.053,12.064,17.114,12.028,17.029Zm27.524,3.028a0.471,0.471,0,0,0-.224.457,1.009,1.009,0,0,1,.224.171,0.16,0.16,0,0,0,.056-0.057c0.213-.072.219-0.116,0.224-0.4Zm-17.846,2h0.168a0.375,0.375,0,0,1,.056-0.228v0.228h0.28V21.886a1.107,1.107,0,0,0,.392-0.057,0.2,0.2,0,0,0-.112-0.057,1.362,1.362,0,0,0-.783,0H21.65A0.915,0.915,0,0,1,21.706,22.057ZM0.559,23.714L0.5,23.886H0.559V23.829C0.629,23.739.6,23.8,0.559,23.714Zm-0.224.057L0.28,24H0.392V23.771H0.336Zm27.357,1.886a1.343,1.343,0,0,0,.112.514A0.666,0.666,0,0,0,27.692,25.657Zm-26.462.286v0.228a0.346,0.346,0,0,1,.112.114H1.4V26.229a0.272,0.272,0,0,0,.112-0.286H1.231ZM27.692,26.4l-0.168.514H27.58V26.857A0.459,0.459,0,0,0,27.692,26.4Zm-25.231.286c0.006,0.008.168,0.171,0.168,0.171A0.286,0.286,0,0,0,2.462,26.686Zm24.9,0.343a0.736,0.736,0,0,1-.336.343v0.057h0.112A0.482,0.482,0,0,0,27.357,27.029Zm-24.224.229a0.2,0.2,0,0,0,.112.057A0.2,0.2,0,0,0,3.133,27.257Zm0.671,0a0.755,0.755,0,0,0,.392.229V27.429A1.089,1.089,0,0,0,3.8,27.257Zm-0.112.057c-0.022.13-.051,0.062,0,0.171a1.178,1.178,0,0,0,.336.229V27.6c0.053-.1.012,0,0-0.114l-0.168.057a0.2,0.2,0,0,0,0-.171l-0.168.057,0.056-.114H3.692Zm0.5,0a0.392,0.392,0,0,0,.28.171V27.371Zm-0.783.114v0.114a3.127,3.127,0,0,0,.5.229V27.714ZM4.7,27.486v0.171a1.054,1.054,0,0,0,.448.229,0.528,0.528,0,0,1,.168-0.229V27.6H5.035A0.573,0.573,0,0,0,4.7,27.486Zm20.923,0a0.533,0.533,0,0,1-.224.171v0.057h0.056c0.088,0.071.029,0.037,0.112,0a1.187,1.187,0,0,0,.28-0.114V27.486H25.622Zm0.783,0.057V27.6H26.35c-0.107.044,0.112,0.057,0.112,0.057V27.6h0.056A0.2,0.2,0,0,0,26.406,27.543Zm0.336,0a1.489,1.489,0,0,1-.392.229v0.057h0.112A0.528,0.528,0,0,0,26.741,27.543Zm-17.678.114a1.679,1.679,0,0,1-.839,1.429H8.28a0.318,0.318,0,0,0,.336.114,0.36,0.36,0,0,1,.168-0.4v0.057a0.7,0.7,0,0,0,.168.343c0.106-.143.162-0.031,0.448,0V28.857H9.455V28.8H9.566a0.5,0.5,0,0,0,.168.4,0.454,0.454,0,0,1,.112-0.171A1.64,1.64,0,0,1,9.4,27.6Zm3.86,0a1.684,1.684,0,0,1-.5,1.2c0.178,0,.135-0.069.168,0.172a0.3,0.3,0,0,1,.056.171,0.814,0.814,0,0,1,.5,0,0.36,0.36,0,0,1,.168-0.4v0.114a0.5,0.5,0,0,1,.056.286,0.615,0.615,0,0,1,.5,0V29.086a1.617,1.617,0,0,1-.5-1.486ZM16.336,29.2a1.706,1.706,0,0,0,.559-0.114V28.857h0.056V28.8h0.112v0.229a0.3,0.3,0,0,1,.056.171h0.336a0.489,0.489,0,0,0,.168-0.4,1.516,1.516,0,0,1-.28-1.2l-0.5.057v0.057H16.783C16.77,28.454,16.36,28.5,16.336,29.2Zm4.252-1.486a10,10,0,0,1-.5,1.486h0.5a1.174,1.174,0,0,1,.056-0.4h0.112c0,0.426.137,0.429,0.559,0.4a0.36,0.36,0,0,1,.168-0.4v0.114a0.5,0.5,0,0,1,.056.286h0.336V29.143a1.784,1.784,0,0,1-.615-0.972,0.778,0.778,0,0,0-.112-0.571A1.273,1.273,0,0,1,20.587,27.714ZM4.531,27.657c0.063,0.164.01,0.105,0.168,0.172,0.1,0.05.072,0.051,0.168,0A1.675,1.675,0,0,1,4.531,27.657Zm19.916,0.057a1.925,1.925,0,0,1-.112.8h0.112c0.083-.087.2-0.141,0.28-0.229a0.518,0.518,0,0,1-.168-0.343h0.056V27.886a0.9,0.9,0,0,1,.28.286,0.551,0.551,0,0,0,.392-0.343,0.587,0.587,0,0,0-.5-0.172A0.6,0.6,0,0,1,24.448,27.714Zm1.287,0a0.217,0.217,0,0,1-.168.114v0.057h0.112a0.4,0.4,0,0,1,.224-0.114V27.714H25.734ZM4.42,27.771a0.371,0.371,0,0,1-.224.057v0.057H4.308a2.191,2.191,0,0,1,.28.286H4.643A0.217,0.217,0,0,1,4.755,28a0.2,0.2,0,0,0-.112-0.057A2.382,2.382,0,0,0,4.42,27.771Zm21.65,0-0.056.114C26.112,27.806,26.07,27.771,26.07,27.771Zm-20.7.057a0.343,0.343,0,0,0,0,.228v0.057H5.427V27.829H5.371Zm20.476,0L25.79,28h0.056C25.875,27.831,25.956,27.959,25.846,27.829Zm-21.762.057V28l0.392,0.229V28.114A1.51,1.51,0,0,1,4.084,27.886Zm21.93,0.057a0.826,0.826,0,0,1-.336.228v0.057H25.79A1.177,1.177,0,0,1,26.126,28,0.2,0.2,0,0,0,26.014,27.943Zm-20.867.114v0.114a1.675,1.675,0,0,1,.336.172A0.744,0.744,0,0,0,5.147,28.057Zm20.084,0a0.556,0.556,0,0,1-.28.172v0.057h0.112C25.193,28.157,25.253,28.206,25.231,28.057Zm-20.2.114a0.437,0.437,0,0,0-.168.172H4.923c0.083,0.087.2,0.141,0.28,0.229a0.19,0.19,0,0,0,.112-0.057A0.346,0.346,0,0,0,5.427,28.4Zm20.2,0.057-0.056.114C25.272,28.263,25.231,28.229,25.231,28.229Zm-20.587.114a1.876,1.876,0,0,0,.5.343V28.571A3.127,3.127,0,0,0,4.643,28.343Zm20.7,0a2.549,2.549,0,0,0-.28.286h0.056a0.755,0.755,0,0,1,.392-0.229V28.343H25.343Zm-0.727.114a0.94,0.94,0,0,0-.28.286h0.056a0.826,0.826,0,0,1,.336-0.229A0.2,0.2,0,0,0,24.615,28.457Zm0,0.171-0.056.114C24.657,28.663,24.615,28.629,24.615,28.629Zm-19.133.057a0.744,0.744,0,0,0,.336.286A0.565,0.565,0,0,0,5.483,28.686Zm19.3,0a0.96,0.96,0,0,1-.392.229v0.057h0.168a1.429,1.429,0,0,0,.28-0.286H24.783ZM5.315,28.8a1.044,1.044,0,0,0,.5.343V29.086A1.865,1.865,0,0,0,5.315,28.8Zm7.1,0.4V28.914H12.308a2.347,2.347,0,0,0-.28.229H11.972V29.2h0.112C12.2,29.051,12.152,29.163,12.42,29.2Zm3.692-.229-0.056.114C16.154,29.006,16.112,28.971,16.112,28.971Zm1.678,0.114c-0.018.079,0.079,0.083,0.112,0.114C17.941,29.139,17.806,29.1,17.79,29.086Zm6.322,0a0.96,0.96,0,0,1-.392.229v0.114h0.056A0.668,0.668,0,0,0,24.112,29.086ZM5.986,29.2a0.217,0.217,0,0,0,.112.171,0.436,0.436,0,0,0,.448.114A1.655,1.655,0,0,1,5.986,29.2ZM8,29.257v0.114H8.112V29.257H8Zm0.336,0v0.114H8.5V29.257H8.336Zm0.448,0v0.114H8.9V29.257H8.783Zm0.336,0v0.114H9.287V29.257H9.119Zm0.392,0v0.114a0.7,0.7,0,0,0,.224-0.057V29.257H9.51Zm0.392,0v0.114H10.07V29.257H9.9Zm1.9,0c0.016,0.148-.026.1,0.224,0.114V29.257H11.8Zm0.447,0v0.114h0.056A0.2,0.2,0,0,0,12.252,29.257Zm0.28,0v0.114h0.28V29.257h-0.28Zm0.727,0v0.114h0.336V29.257H13.259Zm0.783,0v0.114H14.21V29.314Zm1.734,0a0.2,0.2,0,0,1-.112.057v0.057h0.28V29.257H15.776Zm0.448,0v0.114h0.5V29.257h-0.5Zm0.783,0v0.114h0.447V29.257H17.007Zm0.727,0v0.114a0.851,0.851,0,0,0,.447-0.057A2.16,2.16,0,0,0,17.734,29.257Zm2.294,0v0.114h0.448V29.257H20.028Zm0.727,0v0.114H21.2V29.257H20.755Zm0.783,0a0.387,0.387,0,0,0,.392.114V29.257H21.539Zm-1.9.057a0.2,0.2,0,0,0,.112.057A0.2,0.2,0,0,0,19.636,29.314Zm-12.084.114c0.1,0.05.071,0.051,0.168,0H7.552Zm0.392,0c0.1,0.05.071,0.051,0.168,0H7.944Zm0.392,0c0.1,0.05.071,0.051,0.168,0H8.336Zm0.336,0a0.161,0.161,0,0,0,.224,0H8.671Zm0.448,0c0.1,0.05.071,0.051,0.168,0H9.119Zm0.336,0a0.161,0.161,0,0,0,.224,0H9.455Zm0.448,0c0.1,0.05.071,0.051,0.168,0H9.9Zm0.336,0c0.1,0.05.072,0.051,0.168,0H10.238Zm1.231,0a0.2,0.2,0,0,0,.112.057A0.2,0.2,0,0,0,11.469,29.429Zm0.28,0a0.221,0.221,0,0,0,.28,0h-0.28Zm0.727,0a0.291,0.291,0,0,0,.336,0H12.476Zm0.783,0a0.291,0.291,0,0,0,.336,0H13.259Zm0.727,0a0.291,0.291,0,0,0,.336,0H13.986Zm1.455,0a0.457,0.457,0,0,0,.447,0H15.441Zm0.783,0a0.457,0.457,0,0,0,.447,0H16.224Zm0.783,0a0.457,0.457,0,0,0,.447,0H17.007Zm0.671,0a0.653,0.653,0,0,0,.559,0H17.678Zm1.734,0a0.37,0.37,0,0,0,.392,0H19.413Zm0.615,0a0.457,0.457,0,0,0,.448,0H20.028Zm0.783,0a0.457,0.457,0,0,0,.448,0H20.811Zm0.783,0a0.37,0.37,0,0,0,.392,0H21.594Zm1.846,0a1.094,1.094,0,0,1-.224.114V29.6h0.112C23.427,29.48,23.439,29.516,23.441,29.429Zm-16.727.114a0.556,0.556,0,0,0,.5.114V29.543h-0.5Zm0.783,0c0.024,0.157.188,0.126,0.5,0.114V29.6H8.056V29.543H7.832A1.582,1.582,0,0,1,7.5,29.543Zm0.783,0v0.114h0.5V29.6H8.839V29.543H8.615A1.582,1.582,0,0,1,8.28,29.543Zm0.783,0v0.114h0.5V29.6H9.622V29.543H9.4A1.582,1.582,0,0,1,9.063,29.543Zm0.783,0v0.114h0.5V29.543H10.182A1.582,1.582,0,0,1,9.846,29.543Zm0.727,0v0.114h0.559V29.543h-0.28A0.6,0.6,0,0,1,10.573,29.543Zm0.783,0v0.114h0.559V29.543h-0.28A0.6,0.6,0,0,1,11.357,29.543Zm0.783,0v0.114H12.7V29.543H12.14Zm0.783,0v0.114h0.559V29.543H13.147A0.306,0.306,0,0,1,12.923,29.543Zm0.783,0v0.114h0.559V29.543H13.93A0.306,0.306,0,0,1,13.706,29.543Zm0.783,0c0.025,0.161.238,0.127,0.559,0.114V29.543H14.49Zm0.783,0v0.114h0.559V29.6A3.957,3.957,0,0,0,15.273,29.543Zm0.783,0c0.025,0.161.238,0.127,0.559,0.114V29.543H16.168C16.069,29.6,16.167,29.555,16.056,29.543Zm0.839,0c0.024,0.154.139,0.125,0.448,0.114V29.543H16.9Zm0.727,0c0.024,0.157.188,0.126,0.5,0.114V29.543h-0.5Zm0.727,0v0.114h0.559V29.543H18.35Zm0.783,0v0.114h0.559V29.543H19.133Zm0.783,0v0.114h0.5V29.543h-0.5Zm0.727,0a0.654,0.654,0,0,0,.559.114V29.543H20.643Zm0.783,0a0.654,0.654,0,0,0,.559.114V29.543H21.427Zm0.783,0a0.654,0.654,0,0,0,.559.114V29.543H22.21Zm0.783,0c0.115,0.137.053,0.012,0.168,0.057C23.195,29.5,23.047,29.553,22.993,29.543Zm-15.608.171c0.027,0.167.338,0.127,0.671,0.114V29.771A2.253,2.253,0,0,0,7.385,29.714Zm0.783,0c0.027,0.167.338,0.127,0.671,0.114V29.771A2.253,2.253,0,0,0,8.168,29.714Zm0.839,0c0.023,0.15.09,0.124,0.392,0.114,0.043-.039.125-0.075,0.168-0.114H9.007Zm0.783,0c0.025,0.161.238,0.127,0.559,0.114V29.714H9.79Zm0.727,0c0.027,0.167.338,0.127,0.671,0.114V29.771A2.253,2.253,0,0,0,10.518,29.714Zm0.783,0c0.027,0.167.338,0.127,0.671,0.114V29.771A2.253,2.253,0,0,0,11.3,29.714Zm0.839,0a0.2,0.2,0,0,1-.112.057v0.057h0.727V29.771H12.7V29.714H12.14Zm0.783,0c0.023,0.15.09,0.124,0.392,0.114,0.043-.039.125-0.075,0.168-0.114H12.923Zm0.783,0c0.025,0.161.238,0.127,0.559,0.114V29.714H13.706Zm0.727,0c0.026,0.164.288,0.127,0.615,0.114V29.714H14.434Zm0.783,0c0.026,0.164.288,0.127,0.615,0.114V29.714H15.217Zm0.783,0c0.023,0.15.09,0.124,0.392,0.114,0.048-.037.176-0.077,0.224-0.114H16Zm0.839,0a0.2,0.2,0,0,1-.112.057v0.057H17.4V29.771A1.806,1.806,0,0,0,16.839,29.714Zm0.727,0c0.026,0.164.288,0.127,0.615,0.114V29.714H17.566Zm0.783,0a0.2,0.2,0,0,1-.112.057v0.057h0.727V29.714H18.35Zm0.783,0c0.023,0.15.09,0.124,0.392,0.114,0.048-.037.176-0.077,0.224-0.114H19.133Zm0.783,0v0.114h0.559V29.714H19.916Zm0.783,0a0.2,0.2,0,0,1-.112.057v0.057h0.671V29.714H20.7Zm0.783,0a0.2,0.2,0,0,1-.112.057v0.057h0.671V29.714H21.483Zm0.783,0c0.016,0.151.046,0.12,0.336,0.114,0.048-.037.176-0.077,0.224-0.114H22.266Z" transform="translate(0 0.016)"/>
</svg>
