<svg xmlns="http://www.w3.org/2000/svg" width="40" height="40" viewBox="0 0 40 40">
  <defs>
    <style>
      .cls-1 {
        fill: #fff;
        fill-rule: evenodd;
      }
    </style>
  </defs>
  <path id="Color_Fill_1" data-name="Color Fill 1" class="cls-1" d="M24.248,16.52a9.666,9.666,0,0,1,1.957.1h8.353c0.039-.159-0.023-0.075.1-0.146a6.318,6.318,0,0,0,1.671.049c0.865,0,1.805,0,2.243-.049l0.477,0.049a1.9,1.9,0,0,1,.859-0.293,5.859,5.859,0,0,1,.048,1.514,0.857,0.857,0,0,1-.286.049,2.712,2.712,0,0,0-1.48-.293,18.636,18.636,0,0,0-3.628.049V17.4H26.3a10.253,10.253,0,0,1-2.052.1v0.147a0.717,0.717,0,0,1-.43.1c-0.242.15-.963,0.071-1.241,0.2a4.987,4.987,0,0,1,.048.977h0.668v0.049h0.048V18.718h0.191c0.041-.235,0-0.36.286-0.391a0.376,0.376,0,0,0,.382.146v0.147a1.052,1.052,0,0,1,.382.2v0.1h0.239a2.642,2.642,0,0,1,.62.244,1.178,1.178,0,0,0,.764.537,0.489,0.489,0,0,1,.573-0.146,5.168,5.168,0,0,0,.334.684,0.68,0.68,0,0,0,.239-0.342c-0.137-.055-0.088-0.008-0.143-0.146L27.59,19.6a0.331,0.331,0,0,1,0,.244,0.388,0.388,0,0,1-.1.146h0.191v0.147l0.286,0.049V19.842a0.648,0.648,0,0,1-.143-0.391V19.4a0.162,0.162,0,0,1,.1.049c0.447,0.459.04,0.857-.1,1.221H28.64a2.1,2.1,0,0,1,.334,0v0.2l-1.1.049v0.049h0.1a8.189,8.189,0,0,0,1.48.831l0.62-.1A2.1,2.1,0,0,1,31.6,23.066a0.852,0.852,0,0,0-.43.049,3.518,3.518,0,0,1,.573,1.221,5.968,5.968,0,0,0-.573,1.075,4.809,4.809,0,0,1-1.432,1.026,16.609,16.609,0,0,1-2,1.368,5.19,5.19,0,0,1-1.862.146H7.971a18,18,0,0,1-2.339-.928c-0.694-.3-1.363-0.471-2.053-0.782-0.187-.084-0.411-0.384-0.573-0.44a2.112,2.112,0,0,1-.382.244V25.655a0.728,0.728,0,0,1-.382-0.293,4.806,4.806,0,0,1,.382-1.612,0.971,0.971,0,0,1-.573-0.733H1.862a0.658,0.658,0,0,0-.525-0.488c0.019,0.111.044,0.053,0,.147A1.762,1.762,0,0,1,1,22.138a0.156,0.156,0,0,0,.143,0c-0.043-.2-0.019-0.155.1-0.293A1.109,1.109,0,0,1,.764,21.7a3.629,3.629,0,0,1-.668.977H0.048V22.626H0V22.578a5.986,5.986,0,0,0,.764-1.221A0.443,0.443,0,0,1,.573,21.21a0.662,0.662,0,0,1,.191-0.049,0.294,0.294,0,0,0,.1.1v-0.1a1.443,1.443,0,0,0,.1-0.391c0.18-.007.168,0.023,0.239-0.1a0.189,0.189,0,0,1-.1-0.146,0.481,0.481,0,0,1,.382-0.2,1.487,1.487,0,0,1-.239-0.977H1.384a0.775,0.775,0,0,0,.048.391v-0.2H1.718V19.256a0.623,0.623,0,0,1,.525-0.244,6.575,6.575,0,0,1,1.337-.1c0.99-.287,3.1,0,4.582,0,0.11-.237.215-0.26,0.573-0.244a7.84,7.84,0,0,0,1.623.244,0.851,0.851,0,0,1,.907-0.2v-0.1c-0.37-.533.073-0.77-0.955-0.733a4.228,4.228,0,0,0-1-.049c-0.839-.185-1.9-0.035-2.721-0.2a6.5,6.5,0,0,0-.143-0.879A2.974,2.974,0,0,0,5.3,16.716v-0.1a1.582,1.582,0,0,1,0-.537H5.776c0.048,0.358.2,0.312,0.668,0.293a2.26,2.26,0,0,0,.048-0.635,0.942,0.942,0,0,1,.191-0.977H6.3a0.866,0.866,0,0,0-.43-0.049,1.413,1.413,0,0,1,.143-0.44,0.317,0.317,0,0,1,.191-0.049v0.244H6.444V14.175a0.856,0.856,0,0,1,.286-0.049l0.048,0.342,4.105-.049c0-.55,0-0.833,0-1.368H10.644A1.074,1.074,0,0,1,10.6,12.71c-0.172-.026-0.309-0.128-0.43-0.147a1.813,1.813,0,0,0-.621.2,1,1,0,0,0-.955-0.2,2,2,0,0,1-.382-0.049,0.739,0.739,0,0,1-.1-0.44c0.019-.052.075,0.018,0.1-0.244a1.087,1.087,0,0,0,.621,0l0.048-.147a0.968,0.968,0,0,1,.573.147c0.7,0.028,1.424-.04,2,0v-0.2h0.1c0.09,0.625.785,0.209,1.337,0.342a17.276,17.276,0,0,0,3.819.147v0.2a22.862,22.862,0,0,0-3.819.1,3.7,3.7,0,0,0-1.241.1c-0.061.1-.033,0.387-0.1,0.489-0.057.038-.23,0.059-0.286,0.1a6.074,6.074,0,0,1,0,1.221h0.048c0.108-.235.124-0.025,0.334-0.146,0.042-.024.418-0.512,0.477-0.586v0.2h3.532a0.211,0.211,0,0,1,.143-0.147V13.1l3.58-.293,0.048,0.928a0.69,0.69,0,0,1,.382.049v0.049H19.427v0.2a0.9,0.9,0,0,1,.334.342,1.391,1.391,0,0,0-.62.049,0.253,0.253,0,0,0-.048.147,0.433,0.433,0,0,1,.1.2,0.54,0.54,0,0,0,.191.1V14.713a0.606,0.606,0,0,1,.334.049,3.478,3.478,0,0,0,.811.537,0.5,0.5,0,0,1,.43-0.342,3.484,3.484,0,0,1-.286.586l0.668,0.049a2.217,2.217,0,0,1,.1-0.733h0.1a0.657,0.657,0,0,1,.1.391,4.6,4.6,0,0,1,.907.293V11h0.048v0.049a2.859,2.859,0,0,1,.048,1.026v2.54a5.966,5.966,0,0,0,0,.977,1.427,1.427,0,0,0,1.527.684A0.523,0.523,0,0,1,24.248,16.52Zm-15.8-4.592c0.009,0.148.019,0.033-.1,0.146H8.544A0.186,0.186,0,0,0,8.449,11.928ZM8.64,12.221a1.612,1.612,0,0,0,.955,0H8.64Zm-0.286.1v0.146H8.544V12.319H8.353Zm5.107,0.146a0.178,0.178,0,0,1,.048.1H13.461v-0.1Zm-0.43.1h0.1v0.049A0.163,0.163,0,0,1,13.031,12.563Zm0.477,0h0.1v0.049A0.162,0.162,0,0,1,13.508,12.563Zm0.334,0.1a0.253,0.253,0,0,1,.048.147H13.843V12.661Zm-1.05.147a2.667,2.667,0,0,1,1.05.049A2.669,2.669,0,0,1,12.792,12.808ZM16.8,13.785V13.638a6.363,6.363,0,0,0,1.623.147l0.048-.147a1.821,1.821,0,0,1,.668.049,1.687,1.687,0,0,0,.143-0.147l-0.048-.146c-1.019.329-2.5-.011-3.485,0.342v0.049H16.8Zm2.912-.1a0.606,0.606,0,0,1,.334.049A0.6,0.6,0,0,1,19.714,13.687Zm-7.971.684,0.048,0.44a0.227,0.227,0,0,0,.143-0.049,0.335,0.335,0,0,0,.048-0.2,0.335,0.335,0,0,1-.048-0.2H11.742Zm3.866,0H12.22v0.1a0.178,0.178,0,0,1,.048.1c-0.171.02-.12-0.023-0.191,0.1,0.071,0.1,0,.065-0.048.2h0.048a2.934,2.934,0,0,1,1.1-.049c0.836,0,1.492-.008,2.387,0A1.442,1.442,0,0,0,15.609,14.371Zm0.239,0v0.44a4.113,4.113,0,0,0,.573,0v-0.44H15.847Zm0.907,0v0.391a3.633,3.633,0,0,0,1,.049v-0.1c-0.017-.018-0.211-0.319-0.048-0.342H16.754Zm1.384,0.293V14.81a8.069,8.069,0,0,0,.907.049V14.371a2.241,2.241,0,0,0-.907.049c0.235,0,.246-0.016.286,0.2H18.377v0.049H18.138Zm-10.453,0v0.1a8.311,8.311,0,0,0,2.053-.049Zm2.1,0.049a1.5,1.5,0,0,0,.907,0H9.785Zm-4.105.049a0.228,0.228,0,0,1,.143.049A0.227,0.227,0,0,1,5.68,14.762Zm-0.143.049a0.228,0.228,0,0,1,.143.049,0.438,0.438,0,0,0-.239.244V15.055C5.381,14.938,5.468,14.925,5.537,14.81Zm0.286,0,0.143,0.049v0.1H5.919Zm0.143,0.147a0.145,0.145,0,0,1,0,.2v-0.2Zm0.191,0.049c0.2,0.169-.034.339-0.286,0.342V15.3c0.033-.038.063-0.109,0.1-0.147,0,0,.021.194,0.048,0.1V15.2A0.266,0.266,0,0,0,6.158,15.006Zm-0.668.1a0.189,0.189,0,0,1,.1.147H5.537V15.2A0.177,0.177,0,0,1,5.489,15.1Zm0.239,0.1h0.1V15.25A0.162,0.162,0,0,1,5.728,15.2Zm33.89,1.466a1.593,1.593,0,0,0-.382.049v0.537H39.189V17.3h0.1a0.383,0.383,0,0,0,.286.049A1.656,1.656,0,0,0,39.618,16.667ZM21.575,18.572h0.573v0.1a0.253,0.253,0,0,0-.048.147,2.4,2.4,0,0,1,.382.1,3.486,3.486,0,0,0,.048-0.928H22.482a0.874,0.874,0,0,1-.716.342,1.422,1.422,0,0,1-.1-0.244,0.821,0.821,0,0,0-.239.147A0.519,0.519,0,0,1,21.575,18.572Zm-10.31.2v0.1h0.1c0.048-.034.191-0.063,0.239-0.1H11.265Zm-8.258.244v0.1a1.813,1.813,0,0,0,.764-0.049ZM2.53,19.06a0.232,0.232,0,0,0,.334,0H2.53Zm1.289,0a0.137,0.137,0,0,0,.191,0H3.819Zm0.668,0a0.171,0.171,0,0,0,.1.049A0.171,0.171,0,0,0,4.487,19.06Zm1.957,0a0.248,0.248,0,0,0,.286,0H6.444Zm18.425,0.049a0.474,0.474,0,0,0,.239.146v-0.1Zm-22.816.1a0.358,0.358,0,0,0-.143.342H1.957V19.6A0.178,0.178,0,0,0,2,19.5a0.411,0.411,0,0,0,.143-0.293h-0.1Zm24.725,0.782-0.048-.244a0.856,0.856,0,0,0-.286-0.049,0.171,0.171,0,0,1-.1.049c-0.029.12-.112,0.145-0.048,0.2A1,1,0,0,0,26.778,19.989Zm-25.3.049,0.048,0.146,0.143-.1V20.037H1.48Zm26.253,1.026a0.393,0.393,0,0,0,.286.342c0.109-.116.068-0.072,0.239-0.049A1.218,1.218,0,0,0,27.733,21.063ZM1.193,21.7V21.552a0.3,0.3,0,0,1-.1-0.1H1a0.659,0.659,0,0,1-.1.2Zm27.351-.2v0.1a0.857,0.857,0,0,0,.239.146,0.507,0.507,0,0,0,.286.049V21.747A3.109,3.109,0,0,0,28.544,21.5Zm-26.921.928c-0.016.068,0.068,0.071,0.1,0.1C1.752,22.477,1.636,22.446,1.623,22.431ZM2.434,25.02c-0.082.181-.1,0.373,0.239,0.391V25.362A0.71,0.71,0,0,1,2.53,25.02h-0.1ZM5.06,25.7a0.24,0.24,0,0,0,.048.147l1.718,0.733a3.032,3.032,0,0,1,.143-0.977H5.68A1.713,1.713,0,0,1,5.06,25.7Zm4.105-.1a0.185,0.185,0,0,0,.143.1v-0.1H9.165Zm1.909,0v0.049H11.026c-0.092.038,0.1,0.049,0.1,0.049a0.137,0.137,0,0,1,.048-0.049A0.171,0.171,0,0,0,11.074,25.606Zm2.291,0a1.875,1.875,0,0,1,0,1.417h1.05v-0.1a1.315,1.315,0,0,1,0-1.319h-1.05Zm3.246,0a0.185,0.185,0,0,0,.143.1V25.655Zm1.862,0v0.1h0.1a0.137,0.137,0,0,1,.048-0.049V25.606H18.473Zm2.339,0.049a1.663,1.663,0,0,1-.048,1.368h1v-0.1a1.412,1.412,0,0,1-.048-1.27H20.812Zm3.2,0a0.171,0.171,0,0,0,.1.049A0.171,0.171,0,0,0,24.01,25.655Zm1.814,0a0.171,0.171,0,0,0,.1.049A0.171,0.171,0,0,0,25.823,25.655Zm2.434,0.1,0.048,0.537a3.18,3.18,0,0,0,.859-0.488V25.753H28.831A1.783,1.783,0,0,1,28.258,25.753Zm-18.9.537a1.6,1.6,0,0,1-.239.733h2.1V26.974a5.963,5.963,0,0,1-.239-0.635,4.405,4.405,0,0,0-.716-0.2l-0.048.146c-0.146.068-.1-0.156-0.239-0.146a1.256,1.256,0,0,0-.143.146A3.134,3.134,0,0,1,9.356,26.29Zm9.069,0c-0.172-.015-0.356.029-0.477,0-0.054-.013-0.111-0.192-0.239-0.146-0.062.022,0.02,0.163-.143,0.146-0.066-.054,0-0.159-0.143-0.146a1.275,1.275,0,0,0-.143.146,1.084,1.084,0,0,0-.477.049,5.815,5.815,0,0,0-.239.684h2.1V26.974A1.035,1.035,0,0,1,18.425,26.29Zm5.68,0a1.9,1.9,0,0,1-.191.733h2.1V26.974a1.093,1.093,0,0,1-.239-0.684,4.061,4.061,0,0,1-.477,0,0.457,0.457,0,0,0-.239-0.146c-0.064.038,0.021,0.182-.143,0.146-0.078-.017.009-0.162-0.143-0.146a1.316,1.316,0,0,0-.143.146A3.455,3.455,0,0,1,24.105,26.29Z" transform="translate(0 0.531)"/>
</svg>
