<?xml version="1.0" encoding="utf-8"?>
<!-- Generator: Adobe Illustrator 16.0.0, SVG Export Plug-In . SVG Version: 6.00 Build 0)  -->
<!DOCTYPE svg PUBLIC "-//W3C//DTD SVG 1.1//EN" "http://www.w3.org/Graphics/SVG/1.1/DTD/svg11.dtd">
<svg version="1.1" id="Layer_1" xmlns="http://www.w3.org/2000/svg" xmlns:xlink="http://www.w3.org/1999/xlink" x="0px" y="0px"
	 width="40px" height="40px" viewBox="0 0 40 40" enable-background="new 0 0 40 40" xml:space="preserve">
<path id="Color_Fill_1" fill="#FFFFFF" d="M12.2,12.873c0.966,0,1.447,0.118,2.238,0.114c-0.002-0.061,0.017-0.121,0.052-0.171
	v0.171h0.28c0.103-0.108,0.162-0.25,0.168-0.4c-0.047-0.111-0.084-0.226-0.112-0.343h0.9c-0.056,0.165-0.075,0.34-0.056,0.514
	c0.123,0.055,0.259,0.075,0.392,0.057c0.001,0.154,0.02,0.307,0.056,0.457c0.255,0.108,0.499,0.242,0.727,0.4
	c0-0.24-0.115-1.135-0.112-1.143h0.112c0.034-0.15,0.053-0.303,0.056-0.457h-0.28v-0.285l-0.5-0.171
	c-0.116,0.011-0.444,0.249-0.5,0.229l-0.056-0.171c-0.266-0.117-0.684,0.081-0.9-0.057c-0.03-0.031-0.05-0.071-0.056-0.114
	c0.138-0.074,0.038,0.024,0.112-0.114H14.49v0.227h-0.112c-0.024-0.137-0.062-0.271-0.112-0.4c0.144-0.092,0.079-0.194,0.224-0.286
	c0.022,0.083,0.086,0.147,0.168,0.171v0.057c-0.177,0-0.075-0.1-0.168,0.057h0.224c-0.006-0.088-0.046-0.17-0.112-0.229
	c0.142-0.027,0.275-0.085,0.392-0.171c0.2-0.006,0.396,0.054,0.559,0.171h1.4c0.016-0.149,0-0.112,0.28-0.114
	c0.081,0.145-0.012,0.064,0.168,0.114c0.046-0.185-0.027-0.087,0.112-0.171c0.071,0.3,0.189,0.3,0.559,0.286
	c0.171,0.062,0.441-0.056,0.727,0c1.169,0.143,2.349,0.181,3.524,0.114v0.171c-0.729-0.008-2.657-0.14-2.965,0.229
	c-0.565-0.151-1.154-0.19-1.734-0.114c-0.047,0.187-0.066,0.379-0.056,0.571h-0.337v0.057c0.08,0.298,0.099,0.609,0.056,0.914
	l0.9,0.114l-0.056,0.514c0.118,0.068,0.215,0.167,0.28,0.286l0.389,0.059c0.479,0.257,1.027,0.357,1.566,0.286
	c0,0.232-0.092,0.136,0.056,0.229c0.163,0.067,0.33,0.125,0.5,0.171v-0.057l-0.056-0.057h0.112c0.529,0.137,1.074,0.214,1.621,0.228
	c-0.006-0.107,0.064-0.203,0.168-0.229c0.086-0.04,0.008-0.007,0.168,0v0.171c-0.063,0.084-0.117,0.174-0.056,0.229
	c0.083,0.123,0.177,0.238,0.28,0.343c0.084-0.1,0.041-0.058,0.111-0.057h0.057c-0.044,0.1-0.146,0.105-0.057,0.171
	c0.057,0.093,0.133,0.171,0.225,0.229v-0.057h-0.055c-0.056-0.058,0.055-0.056,0.056-0.057v-0.057h0.112
	c0.49,0.777,2.252,0.514,3.468,0.514l9.733,0.057v-0.229c0.559,0.061,1.121,0.061,1.679,0v0.229l1.286-0.057
	C39.919,16.148,40,16.335,40,16.53c-0.066,0.067-0.142,0.124-0.225,0.171c-0.262,0.158-1.017-0.075-1.23,0.057
	c-0.035,0.05-0.055,0.109-0.056,0.171c-0.558-0.061-1.12-0.061-1.679,0v-0.227c-2.028-0.006-4.156,0.055-6.1,0.057
	c-2.372,0-4.958-0.036-6.938,0.171c-0.222,0.817-0.857,0.465-0.899,1.086h0.112c0.216,0.074,0.442,0.112,0.671,0.114
	c0.022-0.082,0.086-0.147,0.168-0.171v0.057c0.123,0.146,0.038,0.176,0.28,0.229c0.029-0.03,0.068-0.051,0.111-0.058v0.172
	c-0.061,0-0.12,0.02-0.168,0.058c0.151,0.001,0.303-0.019,0.448-0.058c0.032-0.091,0.091-0.17,0.168-0.229
	c0.066,0.043,0.146,0.063,0.224,0.057v0.287c0.726,0,1.019,0.058,1.791,0.057v0.229c0.285,0.018,0.568,0.076,0.838,0.172
	c0.006,0.043,0.025,0.082,0.057,0.113c-0.068,0.163-0.107,0.338-0.112,0.514c0.233,0.159,0.503,0.258,0.783,0.286
	c0.068,0.274,0.162,0.543,0.28,0.8c-0.176,0.088-0.365,0.146-0.56,0.172c0.067,0.066,0.143,0.123,0.224,0.17v0.058h-0.049
	c-0.135,0.135-0.248,0.288-0.336,0.457c0.061-0.001,0.119,0.02,0.168,0.058c-0.127,0.276-0.105,0.598,0.055,0.856
	c-0.223,0.204-0.346,0.497-0.336,0.8c-0.293-0.044-0.961,0.855-1.174,0.629c-0.078,0.111-0.086,0.244-0.168,0.344
	c-0.25-0.207-0.957,0.481-1.231,0.686c-0.144,0.105-0.457,0.1-0.615,0.229c-0.044,0.084-0.101,0.162-0.168,0.229
	c-0.325-0.138-0.369,0.162-0.615,0.399c-0.049,0.047-0.108-0.113-0.112-0.113c-0.124,0.049-0.258,0.068-0.392,0.057
	c-0.054,0.032-0.133,0.061-0.224,0.114v0.114c-0.3,0.02-0.601,0.02-0.9,0h-8.5c-1.08,0.082-2.165,0.082-3.245,0
	C9.654,25.756,7.4,26.124,6.99,25.845c0.2-0.023,0.141,0.027,0.224-0.114H6.993c-0.5,0.348-1.326-0.508-1.734-0.856
	c-0.072,0.024-0.151,0.024-0.224,0c0.03-0.031,0.05-0.071,0.056-0.114c-0.898-0.449-1.728-1.027-2.462-1.714l-0.168,0.058
	c0.049-0.14-0.023-0.292-0.162-0.342c-0.002,0-0.004-0.001-0.006-0.002c-0.185-0.033-0.372-0.053-0.559-0.057v-0.059H1.79
	c0.182-0.194,0.261,0.027,0.336-0.229c-0.207-0.1,0.043-0.141-0.168-0.229c-0.127,0.184-0.322,0.266-0.448,0.457H1.455
	c-0.206-0.24-0.325-0.542-0.336-0.857c0.284,0.062,0.581,0.021,0.839-0.114C1.88,21.661,1.981,21.716,1.9,21.73
	c-0.043,0.109-0.056-0.114-0.056-0.114H1.9v-0.058c-0.122,0.001-0.24-0.039-0.336-0.113c0.005,0,0.161-0.075,0.112-0.114H1.622
	c-0.1-0.374-0.357-0.369-0.839-0.343V20.53H0.671c-0.049-0.038-0.109-0.058-0.171-0.058c-0.001,0.154-0.02,0.308-0.056,0.457H0.392
	v-0.171c0.042-0.068,0.061-0.148,0.056-0.229H0.392v-0.058C0.253,20.471,0.118,20.432,0,20.359c0.079,0.006,0.158-0.014,0.224-0.058
	c-0.07-0.184-0.07-0.387,0-0.571c0.248-0.055,0.491-0.132,0.727-0.229c-0.063-0.035-0.105-0.1-0.112-0.171H0.9
	c0.088,0.146,0.147,0.226,0.28,0.171c0.432,0.013,0.799-0.313,0.839-0.743c0.296,0.007,0.587-0.072,0.839-0.229
	c0.079,0.062,0.183,0.083,0.28,0.057c0.012-0.08-0.046,0.022-0.056-0.057c-0.108-0.044,0.112-0.058,0.112-0.058
	c0.217-0.07,0.443-0.108,0.671-0.113c0.012-0.08-0.046,0.022-0.056-0.058c-0.108-0.044,0.112-0.057,0.112-0.057
	c0.1,0.168,0.089,0.09,0.28,0.057v-0.057c-0.043-0.006-0.083-0.026-0.112-0.058c0.313,0.1,0.652,0.08,0.951-0.057h0.331
	c0.019-0.021-0.044-0.18,0.056-0.113c0.603,0.047,1.208-0.011,1.79-0.172c0,0,1.324-0.007,1.343,0
	c0.065,0.023,0.091,0.18,0.28,0.114c0.024-0.008,0.13-0.159,0.168-0.172c0.342,0.013,0.681,0.069,1.007,0.172
	c0,0,0.219-0.055,0.224-0.058v-0.115c0.026-0.012,1.063,0.113,1.063,0.113v-0.228h0.056v-0.057
	c-0.177-0.335-0.425-0.628-0.727-0.857c-0.514-0.114-1.045-0.134-1.566-0.057H4.923c-0.051-0.266-0.188-0.507-0.392-0.686
	c0.032,0.099,0.011,0.207-0.056,0.286v-0.286H4.308v-0.171h0.223c0.033-0.064,0.097-0.107,0.169-0.115
	c-0.049-0.086-0.16-0.042-0.057-0.114c0.048-0.037,0.107-0.057,0.168-0.057c0.046-0.186-0.027-0.087,0.112-0.171
	c0.012,0.08-0.046-0.022-0.056,0.057c-0.108,0.044,0.112,0.057,0.112,0.057v-0.115c-0.1-0.214-0.138-0.451-0.112-0.686
	c0.224-0.1,0.417-0.257,0.559-0.457c0.41,0.023,0.821,0.023,1.231,0c0.066,0.151,0.186,0.273,0.336,0.343
	c0.188-0.052,0.36-0.15,0.5-0.286h-0.22v-0.285h0.112c0.217-0.07,0.446-0.089,0.671-0.057c-0.01-1.821,0.056-3.807,0.056-5.714
	C8.041,7.521,8.06,6.792,8.168,6.074c0,2.623,0.052,5.353,0.056,7.886H9.51c0.038,0.11,0.057,0.227,0.056,0.343
	c-0.182,0.047-0.085-0.028-0.168,0.114h0.952c0.48-0.232,0.988-0.404,1.51-0.514v-0.058c-0.138,0.025-0.275-0.045-0.336-0.172
	c-0.036-0.05-0.055-0.109-0.056-0.171c0.747-0.567,0.615-1.278,0.615-2.571V6.016h0.057C12.138,8.304,12.193,10.672,12.2,12.873z
	 M18.69,11.673h0.11v0.057c-0.043-0.005-0.084-0.025-0.115-0.057H18.69z M19.59,11.673h0.112v0.057
	c-0.046-0.003-0.09-0.024-0.122-0.057H19.59z M18.69,11.845c0.336-0.05,0.679-0.031,1.007,0.057
	c-0.338,0.051-0.683,0.032-1.012-0.057H18.69z M13.935,12.759c0.169-0.023,0.341-0.004,0.5,0.057
	c-0.17,0.025-0.344,0.005-0.505-0.057H13.935z M12.201,12.988v0.686h0.112v-0.058c0.092-0.156,0.082-0.495,0.168-0.629H12.2
	L12.201,12.988z M12.033,13.045c-0.026,0.155-0.064,0.308-0.112,0.457h0.112v-0.343c0.067-0.09,0.031-0.029-0.005-0.114H12.033z
	 M39.557,16.073c-0.157,0.095-0.244,0.273-0.224,0.457c0.082,0.046,0.157,0.104,0.224,0.171c0.023-0.014,0.043-0.033,0.057-0.057
	c0.213-0.072,0.219-0.117,0.224-0.4L39.557,16.073z M21.711,18.073h0.168c-0.006-0.08,0.014-0.16,0.057-0.229v0.229h0.279v-0.171
	c0.133,0.004,0.266-0.015,0.393-0.058c-0.031-0.03-0.07-0.05-0.112-0.057c-0.255-0.077-0.528-0.077-0.783,0H21.65
	c0.033,0.091,0.053,0.188,0.056,0.285H21.711z M0.559,19.73L0.5,19.902h0.059v-0.058C0.629,19.755,0.6,19.816,0.559,19.73z
	 M0.335,19.787L0.28,20.016h0.112v-0.229H0.335L0.335,19.787z M27.691,21.673c0.004,0.177,0.042,0.352,0.113,0.515
	C27.839,22.008,27.799,21.822,27.691,21.673z M1.23,21.959v0.229c0.046,0.028,0.084,0.067,0.112,0.113H1.4v-0.056
	c0.093-0.063,0.137-0.177,0.112-0.286H1.23L1.23,21.959z M27.691,22.416l-0.168,0.514h0.057v-0.057
	C27.698,22.753,27.742,22.577,27.691,22.416z M2.461,22.702c0.006,0.008,0.168,0.171,0.168,0.171
	C2.601,22.795,2.54,22.732,2.461,22.702L2.461,22.702z M27.361,23.045c-0.07,0.148-0.189,0.27-0.336,0.343v0.058h0.111
	c0.137-0.088,0.219-0.238,0.221-0.4H27.361z M3.137,23.273c0.03,0.031,0.069,0.051,0.112,0.058
	c-0.031-0.032-0.072-0.052-0.116-0.058H3.137z M3.808,23.273c0.104,0.115,0.241,0.195,0.392,0.229v-0.058
	c-0.121-0.084-0.257-0.143-0.4-0.172H3.808z M3.696,23.331c-0.022,0.13-0.051,0.062,0,0.171c0.098,0.096,0.212,0.173,0.336,0.229
	v-0.114c0.053-0.101,0.012,0,0-0.114l-0.168,0.057c0.025-0.054,0.025-0.116,0-0.171l-0.168,0.058l0.056-0.114h-0.06H3.696z
	 M4.196,23.331c0.064,0.095,0.167,0.157,0.28,0.171v-0.115L4.196,23.331z M3.413,23.445v0.113c0.16,0.092,0.327,0.168,0.5,0.229
	V23.73L3.413,23.445z M4.7,23.502v0.171c0.128,0.111,0.282,0.19,0.448,0.229c0.034-0.091,0.092-0.17,0.168-0.229v-0.057H5.035
	C4.938,23.543,4.821,23.504,4.7,23.502z M25.623,23.502c-0.059,0.076-0.135,0.135-0.225,0.171v0.058h0.057
	c0.088,0.07,0.029,0.037,0.111,0c0.099-0.026,0.192-0.064,0.281-0.114v-0.114H25.623L25.623,23.502z M26.406,23.559v0.058H26.35
	c-0.106,0.044,0.112,0.057,0.112,0.057v-0.057h0.056C26.488,23.586,26.448,23.565,26.406,23.559z M26.742,23.559
	c-0.118,0.096-0.25,0.174-0.393,0.229v0.057h0.112C26.589,23.79,26.689,23.688,26.742,23.559L26.742,23.559z M9.064,23.673
	c-0.009,0.591-0.327,1.134-0.839,1.429H8.28c0.078,0.104,0.211,0.148,0.336,0.114c-0.04-0.155,0.029-0.319,0.168-0.399v0.057
	c0.023,0.128,0.081,0.246,0.168,0.343c0.106-0.143,0.162-0.03,0.448,0v-0.343h0.055v-0.057h0.111
	c-0.008,0.151,0.054,0.299,0.168,0.399c0.024-0.064,0.062-0.123,0.112-0.171c-0.37-0.377-0.536-0.908-0.446-1.429L9.064,23.673z
	 M12.924,23.673c0.001,0.451-0.179,0.884-0.5,1.2c0.178,0,0.135-0.069,0.168,0.172c0.036,0.05,0.056,0.109,0.056,0.171
	c0.163-0.052,0.337-0.052,0.5,0c-0.04-0.155,0.029-0.319,0.168-0.399v0.113c0.047,0.088,0.066,0.188,0.056,0.286
	c0.159-0.071,0.341-0.071,0.5,0v-0.114c-0.412-0.375-0.601-0.938-0.5-1.485L12.924,23.673z M16.336,25.216
	c0.191-0.007,0.38-0.045,0.559-0.114v-0.229h0.056v-0.057h0.112v0.229c0.036,0.05,0.055,0.109,0.056,0.171h0.336
	c0.115-0.1,0.177-0.247,0.168-0.399c-0.259-0.343-0.361-0.779-0.28-1.2l-0.5,0.057v0.058h-0.06
	C16.77,24.47,16.36,24.516,16.336,25.216z M20.588,23.73c-0.127,0.508-0.294,1.004-0.5,1.485h0.5
	c-0.004-0.136,0.015-0.271,0.057-0.399h0.111c0,0.426,0.137,0.429,0.559,0.399c-0.039-0.155,0.029-0.319,0.168-0.399v0.113
	c0.047,0.088,0.066,0.188,0.057,0.286h0.336v-0.057c-0.307-0.247-0.523-0.589-0.615-0.972c0.038-0.198-0.002-0.402-0.111-0.571
	C20.973,23.696,20.78,23.735,20.588,23.73L20.588,23.73z M4.531,23.673c0.063,0.164,0.01,0.104,0.168,0.172
	c0.1,0.05,0.072,0.052,0.168,0C4.749,23.801,4.636,23.742,4.531,23.673z M24.447,23.73c0.02,0.271-0.019,0.544-0.112,0.8h0.112
	c0.083-0.087,0.199-0.142,0.279-0.229c-0.098-0.088-0.157-0.211-0.168-0.343h0.057v-0.056c0.113,0.072,0.209,0.17,0.279,0.285
	c0.18-0.041,0.328-0.17,0.393-0.343c-0.13-0.134-0.315-0.197-0.5-0.172C24.682,23.725,24.564,23.744,24.447,23.73L24.447,23.73z
	 M25.734,23.73c-0.034,0.063-0.097,0.105-0.168,0.113V23.9h0.111c0.061-0.061,0.139-0.101,0.225-0.113V23.73H25.734z M4.42,23.787
	c-0.066,0.042-0.145,0.063-0.224,0.057V23.9h0.112c0.102,0.087,0.195,0.183,0.28,0.287h0.055c0.006-0.072,0.048-0.137,0.112-0.172
	c-0.03-0.03-0.069-0.051-0.112-0.057C4.572,23.897,4.498,23.84,4.42,23.787z M26.07,23.787L26.014,23.9
	C26.111,23.822,26.07,23.787,26.07,23.787z M5.37,23.844c-0.026,0.074-0.026,0.154,0,0.229v0.057h0.057v-0.284L5.37,23.844
	L5.37,23.844z M25.846,23.844l-0.056,0.172h0.056C25.875,23.848,25.956,23.975,25.846,23.844L25.846,23.844z M4.084,23.9v0.115
	l0.392,0.229V24.13c-0.142-0.056-0.273-0.133-0.392-0.228V23.9z M26.014,23.958c-0.091,0.103-0.207,0.181-0.336,0.228v0.058h0.112
	c0.099-0.095,0.212-0.171,0.336-0.228C26.096,23.985,26.057,23.965,26.014,23.958L26.014,23.958z M5.147,24.072v0.113
	c0.118,0.045,0.231,0.103,0.336,0.172C5.402,24.231,5.285,24.132,5.147,24.072L5.147,24.072z M25.23,24.072
	c-0.073,0.084-0.171,0.145-0.279,0.172v0.057h0.111C25.193,24.173,25.253,24.223,25.23,24.072L25.23,24.072z M5.031,24.186
	c-0.071,0.041-0.129,0.101-0.168,0.172h0.06c0.083,0.088,0.2,0.142,0.28,0.229c0.042-0.006,0.082-0.026,0.112-0.057
	c0.046-0.029,0.084-0.068,0.112-0.114L5.031,24.186z M25.23,24.243l-0.056,0.114c0.097-0.078,0.056-0.112,0.056-0.112V24.243z
	 M4.644,24.357c0.147,0.141,0.316,0.256,0.5,0.343v-0.113c-0.16-0.091-0.328-0.167-0.501-0.228L4.644,24.357z M25.344,24.357
	c-0.101,0.088-0.193,0.184-0.279,0.285h0.056c0.104-0.114,0.241-0.194,0.392-0.229v-0.055h-0.169L25.344,24.357z M24.617,24.471
	c-0.113,0.074-0.209,0.172-0.28,0.286h0.056c0.092-0.103,0.207-0.182,0.336-0.229c-0.031-0.029-0.07-0.049-0.113-0.055
	L24.617,24.471z M24.617,24.643l-0.057,0.113c0.097-0.077,0.055-0.111,0.055-0.111L24.617,24.643z M5.484,24.699
	c0.081,0.127,0.198,0.227,0.336,0.285c-0.069-0.135-0.191-0.237-0.337-0.282L5.484,24.699z M24.784,24.699
	c-0.11,0.106-0.245,0.185-0.392,0.229v0.057h0.168c0.105-0.081,0.2-0.178,0.279-0.285H24.784L24.784,24.699z M5.315,24.816
	c0.129,0.161,0.303,0.28,0.5,0.343v-0.058C5.664,24.981,5.496,24.885,5.315,24.816z M12.415,25.216V24.93h-0.107
	c-0.099,0.069-0.193,0.146-0.28,0.229h-0.056v0.057h0.112c0.116-0.149,0.068-0.037,0.336,0H12.415z M16.107,24.986l-0.056,0.115
	c0.103-0.08,0.061-0.115,0.061-0.115H16.107z M17.785,25.102c-0.018,0.078,0.079,0.082,0.112,0.113
	c0.044-0.06-0.091-0.099-0.107-0.113H17.785z M24.107,25.102c-0.111,0.105-0.245,0.185-0.393,0.229v0.113h0.057
	c0.152-0.066,0.273-0.189,0.34-0.342H24.107z M5.986,25.216c0.007,0.072,0.049,0.137,0.112,0.171
	c0.115,0.121,0.289,0.165,0.448,0.114C6.343,25.442,6.153,25.346,5.986,25.216z M8,25.273v0.113h0.112v-0.113H8z M8.336,25.273
	v0.113H8.5v-0.113H8.336z M8.784,25.273v0.113H8.9v-0.113H8.784L8.784,25.273z M9.12,25.273v0.113h0.167v-0.113H9.12L9.12,25.273z
	 M9.512,25.273v0.113c0.077-0.006,0.153-0.025,0.224-0.057v-0.057H9.51H9.512z M9.904,25.273v0.113h0.166v-0.113H9.9H9.904z
	 M11.804,25.273c0.016,0.147-0.026,0.1,0.224,0.113v-0.113H11.8H11.804z M12.251,25.273v0.113h0.056
	C12.302,25.344,12.282,25.305,12.251,25.273L12.251,25.273z M12.531,25.273v0.113h0.28v-0.113H12.531z M13.258,25.273v0.113h0.336
	v-0.113H13.258L13.258,25.273z M14.041,25.273v0.113h0.169V25.33L14.041,25.273z M15.775,25.273c-0.03,0.03-0.069,0.05-0.112,0.057
	v0.057h0.28v-0.113H15.775L15.775,25.273z M16.223,25.273v0.113h0.5v-0.113H16.223z M17.006,25.273v0.113h0.447v-0.113H17.006
	L17.006,25.273z M17.733,25.273v0.113c0.151,0.021,0.306,0.002,0.447-0.057C18.034,25.295,17.884,25.276,17.733,25.273
	L17.733,25.273z M20.027,25.273v0.113h0.448v-0.113H20.027L20.027,25.273z M20.754,25.273v0.113H21.2v-0.113H20.754L20.754,25.273z
	 M21.537,25.273c0.098,0.109,0.25,0.153,0.393,0.113v-0.113h-0.391H21.537z M19.637,25.33c0.03,0.03,0.069,0.051,0.112,0.057
	c-0.03-0.03-0.07-0.051-0.113-0.057H19.637z M7.553,25.443c0.1,0.051,0.071,0.052,0.168,0H7.553L7.553,25.443z M7.945,25.443
	c0.1,0.051,0.071,0.052,0.168,0H7.945L7.945,25.443z M8.337,25.443c0.1,0.051,0.071,0.052,0.168,0H8.337L8.337,25.443z
	 M8.673,25.443c0.063,0.061,0.162,0.061,0.224,0H8.671H8.673z M9.121,25.443c0.1,0.051,0.071,0.052,0.168,0h-0.17H9.121z
	 M9.457,25.443c0.063,0.061,0.162,0.061,0.224,0H9.455H9.457z M9.905,25.443c0.1,0.051,0.071,0.052,0.168,0H9.9H9.905z
	 M10.241,25.443c0.1,0.051,0.072,0.052,0.168,0h-0.171H10.241z M11.472,25.443c0.03,0.031,0.069,0.051,0.112,0.058
	c-0.031-0.03-0.071-0.05-0.115-0.056L11.472,25.443z M11.752,25.443c0.082,0.067,0.199,0.067,0.28,0H11.752z M12.479,25.443
	c0.101,0.072,0.235,0.072,0.336,0h-0.339H12.479z M13.262,25.443c0.101,0.072,0.235,0.072,0.336,0h-0.339H13.262z M13.989,25.443
	c0.101,0.072,0.235,0.072,0.336,0h-0.339H13.989z M15.444,25.443c0.139,0.078,0.308,0.078,0.447,0h-0.45H15.444z M16.227,25.443
	c0.139,0.078,0.308,0.078,0.447,0h-0.45H16.227z M17.01,25.443c0.139,0.078,0.309,0.078,0.447,0h-0.45H17.01z M17.681,25.443
	c0.177,0.084,0.382,0.084,0.559,0h-0.563H17.681z M19.415,25.443c0.12,0.076,0.272,0.076,0.392,0h-0.394H19.415z M20.03,25.443
	c0.139,0.079,0.309,0.079,0.448,0h-0.45H20.03z M20.813,25.443c0.14,0.079,0.31,0.079,0.448,0h-0.45H20.813z M21.596,25.443
	c0.12,0.076,0.272,0.076,0.393,0h-0.395H21.596z M23.441,25.443c-0.069,0.047-0.145,0.086-0.224,0.115v0.058h0.112
	c0.097-0.12,0.109-0.084,0.111-0.171V25.443z M6.715,25.559c0.138,0.117,0.325,0.159,0.5,0.113v-0.113H6.715L6.715,25.559z
	 M7.498,25.559c0.024,0.156,0.188,0.125,0.5,0.113v-0.056h0.058v-0.058H7.832c-0.11,0.012-0.222,0.012-0.332,0H7.498z M8.281,25.559
	v0.113h0.5v-0.056h0.058v-0.058H8.615C8.504,25.57,8.392,25.57,8.281,25.559L8.281,25.559z M9.064,25.559v0.113h0.5v-0.056h0.058
	v-0.058H9.4C9.288,25.571,9.175,25.571,9.064,25.559L9.064,25.559z M9.847,25.559v0.113h0.5v-0.113h-0.165
	C10.07,25.57,9.958,25.57,9.847,25.559L9.847,25.559z M10.574,25.559v0.113h0.559v-0.113h-0.28
	C10.761,25.581,10.665,25.581,10.574,25.559L10.574,25.559z M11.357,25.559v0.113h0.559v-0.113h-0.28
	C11.544,25.581,11.449,25.581,11.357,25.559L11.357,25.559z M12.14,25.559v0.113h0.56v-0.113H12.14L12.14,25.559z M12.923,25.559
	v0.113h0.559v-0.113h-0.335C13.075,25.588,12.995,25.588,12.923,25.559L12.923,25.559z M13.706,25.559v0.113h0.559v-0.113H13.93
	C13.858,25.588,13.778,25.588,13.706,25.559L13.706,25.559z M14.489,25.559c0.025,0.16,0.238,0.127,0.559,0.113v-0.113H14.489
	L14.489,25.559z M15.272,25.559v0.113h0.559v-0.056C15.646,25.584,15.46,25.564,15.272,25.559L15.272,25.559z M16.055,25.559
	c0.025,0.16,0.238,0.127,0.559,0.113v-0.113h-0.446C16.069,25.616,16.167,25.571,16.055,25.559L16.055,25.559z M16.894,25.559
	c0.024,0.153,0.139,0.125,0.448,0.113v-0.113H16.9H16.894z M17.621,25.559c0.024,0.156,0.188,0.125,0.5,0.113v-0.113H17.621
	L17.621,25.559z M18.348,25.559v0.113h0.559v-0.113H18.35H18.348z M19.131,25.559v0.113h0.559v-0.113h-0.557H19.131z M19.914,25.559
	v0.113h0.5v-0.113H19.914L19.914,25.559z M20.641,25.559c0.159,0.121,0.365,0.163,0.56,0.113v-0.113h-0.558H20.641z M21.424,25.559
	c0.159,0.121,0.365,0.163,0.559,0.113v-0.113h-0.556H21.424z M22.207,25.559c0.159,0.121,0.365,0.163,0.559,0.113v-0.113H22.21
	H22.207z M22.99,25.559c0.115,0.137,0.053,0.012,0.168,0.057c0.037-0.1-0.111-0.047-0.165-0.057H22.99z M7.382,25.729
	c0.027,0.168,0.338,0.127,0.671,0.114v-0.056c-0.218-0.053-0.443-0.071-0.668-0.057L7.382,25.729z M8.165,25.729
	c0.027,0.168,0.338,0.127,0.671,0.114v-0.056c-0.219-0.053-0.444-0.071-0.668-0.057L8.165,25.729z M9.004,25.729
	c0.023,0.15,0.09,0.125,0.392,0.114c0.043-0.039,0.125-0.075,0.168-0.114H9.007H9.004z M9.787,25.729
	c0.025,0.162,0.238,0.127,0.559,0.114V25.73H9.79L9.787,25.729z M10.514,25.729c0.027,0.168,0.338,0.127,0.671,0.114v-0.056
	c-0.218-0.053-0.443-0.071-0.667-0.057L10.514,25.729z M11.297,25.729c0.027,0.168,0.338,0.127,0.671,0.114v-0.056
	c-0.218-0.053-0.443-0.071-0.668-0.057L11.297,25.729z M12.136,25.729c-0.03,0.031-0.069,0.051-0.112,0.058v0.057h0.727v-0.056H12.7
	V25.73h-0.56L12.136,25.729z M12.919,25.729c0.023,0.15,0.09,0.125,0.392,0.114c0.043-0.039,0.125-0.075,0.168-0.114h-0.556H12.919z
	 M13.702,25.729c0.025,0.162,0.238,0.127,0.559,0.114V25.73h-0.555L13.702,25.729z M14.429,25.729
	c0.026,0.164,0.288,0.127,0.615,0.114V25.73h-0.61L14.429,25.729z M15.212,25.729c0.026,0.164,0.288,0.127,0.615,0.114V25.73h-0.61
	L15.212,25.729z M15.995,25.729c0.023,0.15,0.09,0.125,0.392,0.114c0.048-0.036,0.176-0.077,0.224-0.114H16H15.995z M16.834,25.729
	c-0.03,0.031-0.069,0.051-0.112,0.058v0.057H17.4v-0.056c-0.183-0.049-0.372-0.067-0.561-0.057L16.834,25.729z M17.561,25.729
	c0.026,0.164,0.288,0.127,0.615,0.114V25.73h-0.61L17.561,25.729z M18.344,25.729c-0.03,0.031-0.069,0.051-0.112,0.058v0.057h0.727
	V25.73H18.35L18.344,25.729z M19.127,25.729c0.023,0.15,0.09,0.125,0.392,0.114c0.048-0.036,0.176-0.077,0.224-0.114h-0.61H19.127z
	 M19.91,25.729v0.114h0.559V25.73h-0.553L19.91,25.729z M20.693,25.729c-0.031,0.031-0.07,0.051-0.112,0.058v0.057h0.671V25.73H20.7
	L20.693,25.729z M21.477,25.729c-0.031,0.031-0.07,0.051-0.112,0.058v0.057h0.671V25.73h-0.553L21.477,25.729z M22.259,25.729
	c0.017,0.151,0.046,0.121,0.337,0.114c0.047-0.036,0.176-0.077,0.223-0.114h-0.553H22.259z"/>
</svg>
