<?xml version="1.0" encoding="utf-8"?>
<!-- Generator: Adobe Illustrator 16.0.0, SVG Export Plug-In . SVG Version: 6.00 Build 0)  -->
<!DOCTYPE svg PUBLIC "-//W3C//DTD SVG 1.1//EN" "http://www.w3.org/Graphics/SVG/1.1/DTD/svg11.dtd">
<svg version="1.1" id="Layer_1" xmlns="http://www.w3.org/2000/svg" xmlns:xlink="http://www.w3.org/1999/xlink" x="0px" y="0px"
	 width="40px" height="40px" viewBox="0 0 40 40" enable-background="new 0 0 40 40" xml:space="preserve">
<path id="Color_Fill_1" fill="#FFFFFF" d="M7.518,3.016c0.044,0.046,0.044,0.12,0,0.166V3.016z M7.476,3.64
	c0.104,0.395,0.104,0.811,0,1.206V3.64z M10.9,13.416h0.253v0.042h0.042l0.042,0.291l0.3,0.042c-0.016-0.18-0.016-0.361,0-0.541
	c0.062-0.1,0.053-0.076,0.211-0.083c0.004,0.032,0.019,0.061,0.042,0.083c-0.051,0.221-0.037,0.452,0.042,0.665h0.549
	c0.277,0.066,0.563,0.08,0.845,0.042c0.562,0,1.016,0.045,1.605,0.042v-0.836c0.489-0.015,1.307-0.109,1.478,0.208
	c-0.043,0.216,0.002,0.441,0.127,0.624c0.064-0.035,0.138-0.049,0.211-0.042v0.163h-0.216v0.042
	c0.133,0.195,0.165,0.442,0.084,0.665h0.042c0.021-0.034,0.05-0.063,0.084-0.083v0.208c-0.032,0.004-0.062,0.019-0.084,0.042
	c0.152,0.008,0.088-0.063,0.127,0.083c-0.1,0.054-0.029-0.019-0.085,0.083c0.192,0.016,0.218,0.039,0.253,0.207
	c-0.032,0.005-0.062,0.02-0.085,0.043H16.9c0.042-0.125,0.172-0.197,0.3-0.166v0.086c-0.027,0.036-0.042,0.08-0.042,0.125
	l-0.085-0.042v0.042c0.036,0.064,0.036,0.143,0,0.208H16.98l0.042-0.083H16.98c-0.094,0.041-0.198,0.055-0.3,0.042
	c-0.022,0.053-0.037,0.108-0.042,0.166c0.022,0.022,0.037,0.052,0.042,0.083h0.338c0.053-0.034,0.11-0.063,0.169-0.083
	c-0.022-0.054-0.036-0.108-0.042-0.166c0.1-0.012,0.2-0.012,0.3,0c0.084,0.11-0.035,0.11,0.211,0.125
	c0.22-0.063,0.45-0.077,0.676-0.042v0.083c-0.059,0.147-0.059,0.311,0,0.458h0.042v-0.043c0.094-0.149,0.139-0.324,0.127-0.5h0.169
	c0.324,0.121,0.668,0.178,1.014,0.166c-0.023,0.31-0.073,0.434-0.084,0.748c0.629,0.094,1.263,0.148,1.9,0.166v0.127h0.084
	c0.459,0.328,1.424,0.09,1.857,0.373c0.031,0.051,0.047,0.108,0.043,0.166c1.113-0.071,2.231-0.029,3.336,0.125l0.423-0.041
	l1.394,0.041c0.646,0.064,1.297,0.064,1.943,0l2.07,0.043c0.328-0.051,0.666-0.008,0.971,0.125c0-0.045,0.014-0.09,0.042-0.125
	v0.082c0.083,0.07,0.192,0.1,0.3,0.084c0.449-0.064,0.904-0.064,1.352,0h1.226c0.562,0.064,1.126,0.092,1.69,0.082
	c0.42,0.073,0.852,0.059,1.267-0.041h-0.131v-0.248h0.254l0.169,0.332c0.072,0,0.145,0.014,0.211,0.041v0.541
	c-0.037,0.078-0.053,0.164-0.042,0.25c-0.138,0.035-0.28,0.049-0.422,0.041c-0.528-0.182-1.093-0.238-1.647-0.166
	c-1.367,0-2.8-0.109-4.224-0.125c0.001,0.046-0.015,0.09-0.042,0.125c-0.253-0.022-0.508-0.022-0.76,0l-2.239-0.041
	c-0.044-0.019-0.209-0.151-0.253-0.166c-0.458-0.157-1.35,0.152-1.943,0c-0.687-0.082-1.38-0.097-2.07-0.043
	c-1-0.016-2.26-0.1-3.209-0.041v0.041h0.041c0.082,0.033-0.084,0.043-0.084,0.043c-0.158-0.071-0.332-0.102-0.506-0.088
	c-0.029,0.1-0.057,0.033-0.084,0.082c-0.051,0.092,0.123,0.19-0.041,0.291v-0.037c-0.111-0.161-0.015-0.233-0.301-0.25v0.043
	c0.031,0.049,0.046,0.107,0.042,0.166h-0.125v-0.166h-0.718v0.041c0.031,0.051,0.046,0.108,0.042,0.166
	c-0.142-0.02-0.286-0.006-0.422,0.041c2.108-0.017,4.22,0.488,6.04,0.541v0.125c0.77,0.074,1.474,0.467,1.943,1.082
	c0.233,0.135,0.402,0.36,0.465,0.623c-0.225,0.144-0.377,0.391-0.592,0.541c-0.213,0.151-0.447,0.215-0.634,0.375
	c0.038,0.064,0.066,0.135,0.085,0.207c-0.344,0.33-0.615,0.727-0.8,1.166c-0.032-0.005-0.062-0.02-0.084-0.043
	c-0.095-0.052-0.196-0.094-0.3-0.125c-0.105,0.095-0.239,0.152-0.381,0.166c0.023,0.053,0.037,0.109,0.043,0.166
	c-0.311,0.084-0.589,0.258-0.801,0.5c-0.082-0.021-0.17-0.021-0.254,0c-0.039,0.063-0.055,0.137-0.041,0.209
	c-0.127-0.018-0.248,0.05-0.301,0.166c-0.035-0.037-0.079-0.065-0.127-0.084c-0.044,0.057-0.103,0.1-0.169,0.125l0.042,0.125
	c-0.121,0.035-0.236,0.091-0.338,0.166c-0.068-0.113,0-0.039-0.169-0.041c-0.038,0.033-0.081,0.062-0.127,0.082l0.042,0.084H24.5
	c-0.225,0.025-0.451,0.025-0.676,0l-0.042,0.125c-0.204-0.072-0.418-0.113-0.634-0.125l-0.043,0.125
	c-0.203-0.072-0.417-0.115-0.633-0.125l-0.043,0.125c-0.086,0.023-0.445-0.119-0.676-0.125c0.02,0.039,0.02,0.085,0,0.125
	c-0.135-0.051-0.279-0.065-0.422-0.043c-0.012-0.109-0.035-0.086-0.253-0.082c-0.228,0.106-0.491,0.106-0.718,0v0.041H20.4
	c0.081,0.032-0.084,0.043-0.084,0.043c-0.156,0.014-0.371-0.076-0.676-0.084v0.043h0.042c0.081,0.031-0.084,0.041-0.084,0.041
	c-0.172-0.006-0.342-0.034-0.507-0.082c-0.094,0.019-0.181,0.062-0.253,0.125c-0.109-0.033-0.224-0.048-0.338-0.043V24.85
	c-0.139-0.018-0.278,0.029-0.38,0.125c-0.201-0.082-0.417-0.125-0.634-0.125l-0.042,0.125c-0.22-0.135-0.498-0.135-0.718,0
	c-0.208-0.124-0.468-0.124-0.676,0c-0.191-0.109-0.415-0.154-0.634-0.125l-0.042,0.125c-0.205-0.07-0.418-0.112-0.634-0.125
	c-0.063,0.032,0.022,0.142-0.127,0.125v-0.084l-0.3,0.043c-0.051-0.088-0.16-0.124-0.253-0.084l-0.085,0.125
	c-0.189-0.074-0.389-0.116-0.591-0.125L13.3,24.975c-0.57-0.117-1.157-0.132-1.732-0.041c-0.012-0.11-0.035-0.088-0.253-0.084
	c-0.138,0.224-0.527-0.107-0.8,0.125v-0.084l-0.3,0.043c-0.076-0.057-0.162-0.1-0.253-0.125c-0.036,0.059-0.079,0.115-0.127,0.166
	C9.631,24.9,9.417,24.858,9.201,24.85c-0.056,0.025-0.033,0.143-0.169,0.125c-0.171-0.084-0.359-0.127-0.549-0.125
	c-0.04,0.061-0.099,0.104-0.169,0.125v-0.084l-0.3,0.043L7.972,24.85c-0.093-0.036-0.2-0.002-0.253,0.084l-0.3-0.043
	C7.372,24.93,7.31,24.945,7.25,24.934c-0.052-0.088-0.151-0.138-0.253-0.125v0.125c-0.22-0.041-0.433-0.111-0.634-0.209
	c-0.131-0.035-0.132,0.121-0.211,0.043H6.125c-0.018-0.082,0.065-0.031,0-0.084c-0.166-0.031-0.306-0.139-0.38-0.291l-0.169,0.084
	c-0.091-0.143-0.206-0.27-0.338-0.375c-0.234,0.014-0.452-0.119-0.549-0.332l-0.211,0.041c-0.083-0.138-0.185-0.264-0.3-0.375
	l-0.211,0.043c-0.111-0.069-0.182-0.315-0.3-0.375H3.421c-0.037-0.095-0.094-0.18-0.169-0.25c-0.125,0.026-0.131,0.084-0.211-0.041
	c0.017-0.01,0.032-0.024,0.042-0.041c-0.291-0.025-0.163-0.184-0.338-0.291H2.534c-0.151-0.131-0.256-0.307-0.3-0.5L2.15,22.021
	c-0.032,0.098-0.09,0.184-0.169,0.25L1.516,21.73c0.07-0.063,0.043-0.03,0.042-0.084c-0.004-0.031-0.019-0.061-0.042-0.082
	c-0.163,0.107-0.332,0.205-0.507,0.291c-0.022-0.023-0.037-0.053-0.042-0.084c0.071-0.088,0.128-0.186,0.169-0.291
	c-0.132,0.046-0.278,0.014-0.38-0.082H0.8v-0.043c0.119,0.045,0.253,0.012,0.338-0.082c0.125-0.154,0.2-0.344,0.211-0.541
	l-0.676-0.084c-0.073-0.146-0.024-0.252-0.166-0.291c-0.026,0.047-0.073,0.078-0.127,0.084c-0.057-0.479-0.33-0.838-0.38-1.33
	l0.211-0.043c-0.086-0.054-0.135-0.15-0.127-0.252h0.085c0.454-0.123,0.924-0.18,1.394-0.166c-0.031-0.034-0.053-0.045-0.085-0.08
	c0.839,0.037,1.127-0.125,2.154-0.125v-0.416c1.525,0,3.145-0.041,4.731-0.043v0.33h0.042c0.423-0.027,0.847-0.014,1.267,0.041
	v-0.241c-0.365-0.011-0.725-0.095-1.056-0.249c-0.665-0.217-1.332-0.35-1.943-0.582c-0.212-0.001-0.424-0.016-0.634-0.042
	l-0.084-0.166C5.857,17.016,5.7,17.049,5.618,16.99c-0.081-0.341-0.095-0.694-0.042-1.04h0.168c-0.009-0.08,0-0.207,0-0.457h1.014
	v0.374h0.169c-0.011-0.097-0.011-0.194,0-0.291c0.037-0.027,0.082-0.041,0.127-0.041c0.018-0.447,0.075-0.893,0.169-1.331v-1.5
	c0.092-0.417-0.062-1.028,0.042-1.5c0.079-0.593,0.107-1.191,0.085-1.788l0.042-1.871C7.351,7.254,7.365,6.958,7.434,6.672
	c0,0.585-0.031,1.224-0.042,1.747C7.419,8.905,7.405,9.392,7.35,9.875c-0.116,0.522,0.063,1.193-0.042,1.664
	c-0.116,0.522,0.062,1.193-0.042,1.663c-0.059,0.776-0.045,1.556,0.042,2.329h0.168l-0.042,0.332
	c0.465-0.012,0.93,0.002,1.394,0.041l0.845,0.043c0.118,0.063,0.247,0.105,0.38,0.125v-0.039c-0.066-0.158-0.094-0.329-0.084-0.5
	c-0.045,0-0.09-0.015-0.127-0.042c0.071-0.088,0.128-0.187,0.169-0.291c0.229-0.04,0.455-0.097,0.676-0.166V14.91
	c-0.149,0.053-0.307,0.081-0.465,0.083l-0.042-0.125c-0.148-0.105-0.325-0.163-0.507-0.166c0-0.485-0.018-0.712-0.042-1.206
	c0.56,0,0.7-0.078,1.225-0.083v-8.11c-0.031-0.236-0.017-0.476,0.044-0.707V13.416z M7.434,5.137c0.074,0.454,0.074,0.917,0,1.372
	V5.137z M12.418,14.116c0.49,0.073,0.988,0.073,1.478,0H12.418z M14.107,14.282c-0.582,0-1.212,0.018-1.732,0.042
	c-0.023,0.091-0.085,0.167-0.169,0.208c0-0.045-0.014-0.089-0.042-0.125c-0.005,0.057-0.019,0.113-0.042,0.166
	c-0.04-0.021-0.087-0.021-0.127,0c0.104,0.18,0.104,0.401,0,0.581c-0.067,0.025-0.126,0.068-0.169,0.125
	c0.137,0.035,0.065-0.02,0.127,0.084h-0.126v0.213l0.253-0.041v0.166c0.335-0.074,0.661-0.187,0.971-0.333v-0.252h0.422
	c0.035-0.136-0.021-0.064,0.085-0.125c0.055,0.091,0.148,0.151,0.253,0.166c0.055-0.148,0.1-0.156,0.3-0.166
	c0,0.045,0.015,0.089,0.042,0.125c0.115-0.134,0.292-0.196,0.465-0.166v0.416c-0.1,0.054-0.029-0.019-0.085,0.083H14.7
	c0.013-0.418,0.056-0.836,0.127-1.248H14.15c-0.004-0.032-0.019-0.061-0.042-0.083v0.168L14.107,14.282z M12.037,14.407v0.083h0.043
	c-0.006-0.029-0.021-0.055-0.042-0.074L12.037,14.407z M10.263,14.823c0.023,0.022,0.053,0.037,0.085,0.042
	c-0.023-0.021-0.053-0.035-0.084-0.038L10.263,14.823z M9.963,14.906h0.084v0.042c-0.029-0.005-0.057-0.018-0.079-0.038
	L9.963,14.906z M16.721,15.654c0.086-0.01,0.174,0.004,0.253,0.043c-0.084,0.011-0.17-0.002-0.247-0.038L16.721,15.654z
	 M16.679,15.697c0.022,0.022,0.037,0.051,0.042,0.082h-0.037V15.7L16.679,15.697z M6.167,17.156
	c0.023,0.021,0.052,0.037,0.084,0.042C6.228,17.176,6.199,17.16,6.167,17.156z M20.781,18.616c-0.102,0.002-0.202,0.017-0.3,0.042
	v0.041h0.253v0.037h0.041v-0.12H20.781z M0.3,18.861c0.073,0.037,0.054,0.037,0.127,0H0.3z M0.38,18.943
	c-0.033,0.029-0.094,0.056-0.127,0.084h0.169v-0.041h0.043C0.442,18.963,0.412,18.949,0.38,18.943z M1.1,20.109l-0.042,0.125h0.209
	v-0.043h0.042c-0.023-0.021-0.052-0.037-0.084-0.041C1.188,20.124,1.145,20.109,1.1,20.109z M1.4,20.732v0.084h0.036v-0.084H1.394
	H1.4z M1.865,21.939h0.12c0-0.045-0.015-0.088-0.042-0.123c-0.037-0.027-0.081-0.042-0.127-0.043v0.043
	c0.027,0.035,0.042,0.078,0.043,0.123H1.865z M26.609,22.479c0.023,0.023,0.054,0.038,0.086,0.043
	C26.672,22.498,26.643,22.483,26.609,22.479z M26.779,22.816c0.004,0.057,0.019,0.113,0.041,0.166
	c0.081-0.049,0.166-0.092,0.254-0.125v-0.041c-0.031-0.004-0.062-0.02-0.084-0.041L26.779,22.816z M26.525,22.898
	c0,0.115,0,0.153,0.17,0.209v-0.047h0.041v-0.045L26.525,22.898z M5.491,22.941H5.322c-0.036,0.051-0.064,0.106-0.084,0.166
	c0.052,0.035,0.109,0.063,0.169,0.082v-0.045c0.056-0.055,0.086-0.129,0.084-0.207V22.941z M26.357,23.148H26.23l0.041,0.209h0.043
	c0.059-0.069,0.13-0.126,0.211-0.166c-0.048-0.055-0.09-0.113-0.125-0.176h-0.043v0.125V23.148z M18.757,24.148
	c0.059,0.005,0.115,0.02,0.169,0.041c0-0.287,0.06-0.42,0.38-0.416l0.042,0.125c0.053,0.072,0.083,0.16,0.084,0.25H19.6
	c-0.039-0.375-0.319-0.418-0.38-0.789h-0.593c0.011-0.086-0.003-0.173-0.042-0.25c0.002,0.232-0.056,0.461-0.169,0.664
	c0.165,0,0.19-0.021,0.253,0.084c0.052,0.086,0.081,0.185,0.085,0.285L18.757,24.148z M4.438,23.148
	c0,0.113-0.056,0.067,0.084,0.125v-0.088h0.04v-0.041H4.435L4.438,23.148z M4.776,23.148c-0.05,0.052-0.255,0.162-0.169,0.209
	c0.055,0.055,0.127,0.136,0.169,0.082c0.124-0.131,0.133-0.197-0.003-0.295L4.776,23.148z M25.385,23.186v0.084l0.17-0.043v-0.041
	H25.385z M25.934,23.27c0.047,0.076,0.104,0.146,0.17,0.207c0.022-0.021,0.052-0.037,0.084-0.041v-0.125
	c-0.096-0.021-0.117-0.018-0.252-0.041H25.934z M4.941,23.352c-0.032,0.109-0.051,0.101-0.084,0.209h0.085v0.041
	c0.043,0.041,0.042-0.041,0.042-0.041c0.052-0.037,0.109-0.064,0.169-0.084v-0.041c-0.073-0.019-0.144-0.047-0.211-0.082
	L4.941,23.352z M25.807,23.477c-0.045,0-0.09,0.015-0.127,0.043c0.035,0.051,0.063,0.107,0.084,0.166
	c0.112-0.062,0.131-0.029,0.17-0.125h0.041c-0.004-0.032-0.019-0.062-0.041-0.084l-0.043-0.125h-0.082v0.125H25.807z M8.87,24.143
	h0.169c0.076-0.242,0.09-0.5,0.042-0.748c-0.369-0.102-0.759,0.072-0.929,0.416c0.02,0.112,0.047,0.224,0.084,0.332h0.127
	c0.044-0.266,0.076-0.386,0.422-0.373v0.082C8.837,23.94,8.867,24.041,8.87,24.143z M12.165,24.184h0.169l0.085-0.416h0.3
	l0.042,0.125c0.053,0.089,0.082,0.189,0.084,0.291h0.165c-0.025-0.324-0.2-0.472-0.253-0.789h-0.846l-0.127,0.373
	c0.17-0.006,0.231-0.022,0.3,0.084C12.143,23.951,12.171,24.067,12.165,24.184z M15.544,23.395
	c-0.063,0.258-0.091,0.523-0.084,0.789h0.169l0.085-0.416h0.169v-0.041c-0.084-0.094-0.143-0.209-0.169-0.332H15.544z
	 M22.133,23.395c-0.063,0.258-0.091,0.523-0.084,0.789h0.042c0.028-0.026,0.101-0.014,0.127-0.041l0.084-0.332
	c0.068-0.033,0.139-0.062,0.212-0.084c-0.127-0.063-0.207-0.191-0.212-0.332H22.133z M5.233,23.477
	c-0.182,0.284-0.169,0.073,0.042,0.334h0.047l0.084-0.25c-0.052-0.036-0.108-0.064-0.168-0.084H5.233z M25.55,23.643
	c-0.058-0.004-0.115-0.019-0.169-0.041v0.041c0.068,0.042,0.127,0.099,0.169,0.166l0.127-0.041v-0.082
	c-0.032-0.054-0.058-0.11-0.077-0.17h-0.045v0.125L25.55,23.643z M5.444,23.686c-0.021,0.215,0.057,0.121,0.084,0.25
	c0.141-0.104,0.032-0.18-0.079-0.25H5.444z M25.296,23.686c-0.019,0.112-0.047,0.224-0.084,0.332h0.042
	c0.063-0.063,0.148-0.1,0.211-0.166h-0.037c-0.012-0.072-0.061-0.135-0.128-0.166H25.296z M8.485,24.186
	c0.17,0.01,0.211,0.063,0.3-0.084c-0.029-0.041-0.054-0.166-0.084-0.207c-0.051-0.031-0.11-0.047-0.169-0.043v0.084
	c-0.038,0.076-0.053,0.163-0.042,0.248L8.485,24.186z M9.161,24.186c0.084,0.012,0.169,0.012,0.253,0v-0.084
	c-0.092-0.054-0.154-0.146-0.169-0.25H9.208v0.041c-0.041,0.092-0.055,0.192-0.042,0.291L9.161,24.186z M11.78,24.145l0.3,0.041
	c0-0.104-0.028-0.204-0.08-0.293c-0.051-0.031-0.11-0.045-0.169-0.041v0.082c-0.037,0.063-0.053,0.137-0.046,0.209L11.78,24.145z
	 M12.456,24.145c0.086-0.002,0.172,0.012,0.253,0.041v-0.293c-0.067-0.025-0.139-0.039-0.211-0.041v0.041H12.46v0.25L12.456,24.145z
	 M16.004,24.145c0.025-0.135-0.063-0.264-0.196-0.289c-0.005-0.001-0.01-0.002-0.015-0.002c-0.03,0.094-0.044,0.191-0.042,0.291
	h-0.038v0.041h0.042c0.079-0.038,0.167-0.053,0.253-0.043L16.004,24.145z M18.412,23.854l-0.042,0.332
	c0.117,0.031,0.24-0.02,0.3-0.125c-0.027-0.035-0.056-0.131-0.084-0.166c-0.051-0.031-0.11-0.046-0.17-0.043L18.412,23.854z
	 M19.088,23.854c-0.026,0.078-0.056,0.254-0.084,0.332h0.253c0.03-0.094,0.044-0.191,0.042-0.291
	c-0.066-0.025-0.136-0.039-0.207-0.043L19.088,23.854z M22.383,23.854c-0.029,0.094-0.044,0.191-0.042,0.291h0.084
	c0.065,0.033,0.138,0.048,0.212,0.041v-0.043c-0.039-0.077-0.053-0.164-0.043-0.25c-0.066-0.023-0.137-0.038-0.207-0.041
	L22.383,23.854z M5.614,23.936c0,0.006,0.127,0.125,0.127,0.125c-0.021-0.058-0.066-0.104-0.123-0.125H5.614z M8.064,23.979
	c-0.08,0.123-0.21,0.189,0,0.207c0.042-0.063,0.044-0.145,0.004-0.209L8.064,23.979z M11.654,24.186l0.046-0.209h-0.042v0.039
	h-0.042c-0.036,0.051-0.064,0.107-0.084,0.166h0.127L11.654,24.186z M22.678,23.979c0.021,0.072,0.049,0.142,0.084,0.207
	c0.054-0.028,0.098-0.072,0.127-0.125h-0.037c-0.047-0.045-0.105-0.075-0.17-0.084L22.678,23.979z M15.29,24.016
	c-0.042,0.145-0.064,0.094,0.085,0.125C15.37,24.088,15.338,24.041,15.29,24.016z M21.964,24.182
	c-0.005-0.057-0.019-0.113-0.042-0.166c-0.068,0.041-0.127,0.099-0.169,0.166H21.964z M18.289,24.182
	c0-0.045-0.014-0.089-0.042-0.125V24.1H18.2l-0.042,0.082h0.127H18.289z M7.518,24.432c-0.043,0.058-0.102,0.102-0.169,0.125h0.338
	v-0.082H7.645v-0.041H7.518V24.432z M8.152,24.432c0.008,0.127,0.016,0.029-0.084,0.125h0.337v-0.082
	c-0.081-0.027-0.167-0.041-0.253-0.041V24.432z M8.828,24.432v0.125h0.253v-0.082H9.039v-0.041H8.828V24.432z M9.546,24.432v0.125
	h0.211v-0.041c-0.034-0.021-0.063-0.049-0.084-0.082H9.546V24.432z M11.531,24.557c-0.035-0.135,0.021-0.063-0.085-0.125
	c0.008,0.127,0.017,0.029-0.085,0.125h0.169H11.531z M11.658,24.432c0.035,0.135-0.021,0.064,0.084,0.125v-0.041
	c-0.036-0.029-0.047-0.051-0.084-0.082V24.432z M12.249,24.557v-0.123h-0.126v0.082H12.08v0.043h0.169V24.557z M12.925,24.557
	v-0.123h-0.169c0.056,0.123-0.041,0.102,0.169,0.125V24.557z M13.432,24.557c0.151-0.017,0.106,0.021,0.169-0.082l-0.169-0.043
	V24.557z M14.784,24.432v0.125h0.169v-0.123h-0.169V24.432z M15.671,24.557v-0.123h-0.212v0.043
	c0.022,0.021,0.037,0.051,0.042,0.082h0.169L15.671,24.557z M16.178,24.432v0.125h0.169v-0.082H16.3v-0.041h-0.123L16.178,24.432z
	 M18.163,24.557v-0.123h-0.127v0.043h0.042v0.039h-0.042c0.037,0.027,0.081,0.043,0.127,0.043V24.557z M18.247,24.432l0.042,0.125
	h0.042c-0.006-0.053-0.037-0.098-0.084-0.123V24.432z M18.712,24.432v0.125h0.169v-0.123h-0.169V24.432z M19.6,24.559v-0.125h-0.212
	v0.082h-0.043v0.043H19.6L19.6,24.559z M21.416,24.434v0.125h0.211v-0.084C21.559,24.45,21.487,24.436,21.416,24.434L21.416,24.434z
	 M22.092,24.434v0.125H22.3v-0.043C22.245,24.46,22.169,24.43,22.092,24.434L22.092,24.434z M22.811,24.434l-0.043,0.125h0.17
	v-0.084h-0.045c-0.022-0.021-0.052-0.036-0.084-0.041H22.811z M9.294,24.477c0.016,0.104-0.025,0.065,0.127,0.082v-0.043
	L9.294,24.477z M11.026,24.477v0.039h-0.044c-0.081,0.032,0.085,0.043,0.085,0.043c-0.004-0.032-0.02-0.062-0.043-0.084
	L11.026,24.477z M12.335,24.477v0.082c0.065-0.05,0.05-0.018-0.001-0.084L12.335,24.477z M13.011,24.477v0.082h0.042
	c-0.004-0.031-0.02-0.062-0.043-0.084L13.011,24.477z M15.926,24.477c-0.033,0.027-0.094,0.055-0.127,0.082h0.169
	c-0.004-0.031-0.02-0.062-0.044-0.084L15.926,24.477z M19.77,24.477c0.016,0.104-0.024,0.065,0.127,0.082v-0.043L19.77,24.477z
	 M20.023,24.477v0.082h0.211v-0.043c-0.068-0.025-0.14-0.039-0.213-0.041L20.023,24.477z M23.318,24.477v0.082h0.041
	c-0.004-0.031-0.02-0.062-0.043-0.084L23.318,24.477z M7.772,24.516c0.062,0.049,0.149,0.049,0.211,0H7.772z M8.532,24.516
	c0.047,0.045,0.121,0.045,0.169,0H8.532z M9.799,24.516c0.023,0.023,0.052,0.037,0.084,0.043C9.86,24.535,9.832,24.521,9.799,24.516
	L9.799,24.516z M11.108,24.516c0.048,0.045,0.121,0.045,0.169,0H11.108L11.108,24.516z M11.784,24.516
	c0.048,0.045,0.121,0.045,0.169,0H11.784L11.784,24.516z M12.502,24.516c0.073,0.037,0.054,0.037,0.127,0H12.5H12.502z
	 M13.136,24.516c0.063,0.049,0.149,0.049,0.211,0H13.136z M15.121,24.516c0.062,0.049,0.149,0.049,0.211,0H15.121z M16.43,24.516
	c0.062,0.049,0.149,0.049,0.211,0H16.43L16.43,24.516z M17.824,24.516c0.073,0.037,0.054,0.037,0.127,0H17.824L17.824,24.516z
	 M18.542,24.516c0.023,0.023,0.052,0.037,0.084,0.043C18.604,24.535,18.574,24.521,18.542,24.516L18.542,24.516z M19.091,24.516
	c0.023,0.023,0.052,0.037,0.084,0.043C19.152,24.535,19.124,24.521,19.091,24.516L19.091,24.516z M21.837,24.516
	c0.023,0.023,0.054,0.037,0.085,0.043C21.898,24.535,21.869,24.521,21.837,24.516z"/>
</svg>
