<svg xmlns="http://www.w3.org/2000/svg" width="80" height="40" viewBox="0 0 80 40">
  <defs>
    <style>
      .cls-1 {
        fill: #fff;
        fill-rule: evenodd;
      }
    </style>
  </defs>
  <path id="Color_Fill_1" data-name="Color Fill 1" class="cls-1" d="M41.834,8.986a0.215,0.215,0,0,1,.134.045,0.323,0.323,0,0,1-.224.181c-0.006.811,0.1,1.519,0.134,2.166,0.118,0.013.094,0.037,0.09,0.271l1.611-.045V11.468c-0.484-.089-0.79-0.167-0.761-0.812a0.318,0.318,0,0,1-.134-0.226,0.809,0.809,0,0,0,.179-0.135L43,10.339v0.045l-0.224.045v0.045a0.286,0.286,0,0,1,.179.045H42.908c-0.079.055-.078,0-0.134,0.045a0.273,0.273,0,0,1,.09.09h0.045c0.046-.029.009-0.1,0.045-0.045a1.723,1.723,0,0,1,.268.406,0.293,0.293,0,0,1,.045-0.181,0.231,0.231,0,0,0,.179.271v-0.09a0.985,0.985,0,0,0,.09-0.361H43.49c-0.124.109-.009,0.043-0.179,0a0.22,0.22,0,0,1-.045.135,0.293,0.293,0,0,0-.045-0.181,0.22,0.22,0,0,1-.045.135,0.7,0.7,0,0,0-.089-0.316c-0.039.033-.05,0.057-0.089,0.09V10.385c0.091-.074-0.032-0.053.089-0.09a0.379,0.379,0,0,0,.224.271,0.479,0.479,0,0,1,.045-0.271v0.271a0.27,0.27,0,0,1,.179.045V10.385H43.49a0.22,0.22,0,0,1-.045.135,0.71,0.71,0,0,0-.269-0.451,0.518,0.518,0,0,1,.492.271,1.305,1.305,0,0,1,.09.226c-0.142,0-.06-0.076-0.134.045H43.579v0.045c0.183,0.006.143,0.041,0.134,0.316a0.494,0.494,0,0,0-.045.271,2.379,2.379,0,0,1-.537-0.135v0.045h0.09a0.965,0.965,0,0,0,.671.226,1.506,1.506,0,0,1,.179-0.5,0.162,0.162,0,0,1,.045.09,0.847,0.847,0,0,1,.134.5H44.206v0.045a0.346,0.346,0,0,0-.447.09h1.029c0.035,0.031.1,0.059,0.134,0.09a4.779,4.779,0,0,0-.09,1.128H43.758a1.39,1.39,0,0,1-.4,0l0.358,1.715H44.43c0.011-.335.043-0.368,0.045-0.767,0.145-.1.327-0.221,0.447,0a1.745,1.745,0,0,1,0,.5,1.588,1.588,0,0,1,.179.451H43.758v0.09a2.759,2.759,0,0,0,.268.857,2.225,2.225,0,0,1,.134-0.181,0.219,0.219,0,0,0,.045.135s0.009-.176.045-0.09v0.09a0.242,0.242,0,0,1,.179.135H44.251a0.384,0.384,0,0,1-.224.045,3.946,3.946,0,0,0,.224,1.083c0.174,0.627.242,1.269,0.4,1.85A4.54,4.54,0,0,0,44.922,20a2.882,2.882,0,0,1,.045-1.083c0.037,0.146-.022.069,0.09,0.135v-0.18c-0.013-.034-0.025-0.16-0.045-0.271H46.4a1.076,1.076,0,0,0-.045-0.361h0.134a0.4,0.4,0,0,0-.089-0.316,0.287,0.287,0,0,0,.179-0.045c-0.31-.248.12-0.382-0.358-0.406a0.227,0.227,0,0,1-.134.045V17.379l0.447,0.045V17.289h0.179v0.135H46.89v0.271H46.8c-0.077.069-.058-0.053-0.134,0.09a0.164,0.164,0,0,0-.045.09h0.045a0.171,0.171,0,0,1,.089-0.135,0.638,0.638,0,0,0,0,.316h0.179c0.066-.114.02-0.07,0.179-0.09a0.219,0.219,0,0,0,.045.135,0.538,0.538,0,0,1,.134-0.316V11.6a15.506,15.506,0,0,1,.045-2.482,8.862,8.862,0,0,0,.045,2.076,9.624,9.624,0,0,1,.045-2.211c-0.01,3.164-.062,6.81.134,9.612h0.492a0.293,0.293,0,0,1,.045-0.18c0.019,0.161-.021.113,0.09,0.18V18.372a2.052,2.052,0,0,1,0-.316H48.009a1.561,1.561,0,0,0-.134-0.135h0.09c0.069-.173.211-0.149,0.447-0.135a0.127,0.127,0,0,1,.045-0.045V18.1h-0.09a0.226,0.226,0,0,0-.134-0.045,1.713,1.713,0,0,1,0,.632h1.655c-0.054.13-.083,0.238,0.045,0.316v-0.09a7.805,7.805,0,0,0,.045-1.9V12.1a7.808,7.808,0,0,1,.045-1.9c0,1.807.045,3.684,0.045,5.551a18.613,18.613,0,0,0,.045,3.114h0.045c-0.015-.489.257-0.435,0.716-0.406v0.09a1.043,1.043,0,0,1,0,.632H50.694l0.045,0.406c0.131,0.067.345,0.121,0.492,0.181,0.054,0.514.044,1.176,0.045,1.76v0.587a1.878,1.878,0,0,1,.358.677H52.3a1.8,1.8,0,0,1-.089.677c0.248,0.051.2,0.3,0.179,0.587a5.788,5.788,0,0,1-.045,1.534h0.94a1.142,1.142,0,0,0,.045-0.361c-0.157-.091.025-0.022-0.045-0.226-0.026-.075-0.155-0.2-0.179-0.271a3.764,3.764,0,0,1,.09-1.309c0.136-.021.14-0.089,0.179-0.045a3.039,3.039,0,0,1,.045,1.128h0.045v-0.09a2.751,2.751,0,0,0,.224-1.083,0.372,0.372,0,0,1-.224-0.045l0.134-.406,0.134,0.045a0.585,0.585,0,0,0,.134.361l0.269-.993h0.09v0.045a0.174,0.174,0,0,1,.09.135,3.091,3.091,0,0,0-.358,1.444c0.142,0,.084-0.064.134,0.09a0.8,0.8,0,0,0,.045.587,0.163,0.163,0,0,0,.045-0.09,0.651,0.651,0,0,0,.134-0.316h0.09v0.09a0.487,0.487,0,0,0-.09.316h0.224a0.88,0.88,0,0,1,.224-0.361H54.81l-0.179.361H54.9a0.633,0.633,0,0,1,.224-0.361h0.045l-0.179.361H55.3a0.54,0.54,0,0,1,.269-0.361v0.09a0.95,0.95,0,0,0-.179.271H55.66a1.137,1.137,0,0,1,.313-0.361v0.135a0.49,0.49,0,0,0-.179.226h0.179c0.057-.235.151-0.241,0.447-0.226,0,0.387-.029.752-0.045,1.083H56.6a2.878,2.878,0,0,1,.045-1.083l0.045,1.083h0.179V24.464h0.09v0.993l0.671-.045a3.176,3.176,0,0,0,.045-0.857H57.494V24.1h0.94v0.406l-0.134.045v0.812h0.716a6.165,6.165,0,0,1,0-1.444H59.15V23.471h1.387c0.019-.461.041-0.93,0.045-1.354h0.045v0.045c0.035,0.054.054,0.217,0.09,0.271a1,1,0,0,1,.492-0.226,0.982,0.982,0,0,1,.224-0.451,1.42,1.42,0,0,0,.492.226,1.12,1.12,0,0,1,.761-0.316V21.35H62.6a0.384,0.384,0,0,0-.224-0.045V20.989H63a1,1,0,0,1,.134-0.451h0.045v0.587a0.287,0.287,0,0,1,.179.045H63.177a1.975,1.975,0,0,1-.045.587H63.087a0.6,0.6,0,0,0-.179-0.451V21.35a0.844,0.844,0,0,0-.045.406,1.029,1.029,0,0,0,.134.361,0.948,0.948,0,0,0,.447.045V22.3l2.327,0.045v0.18a10.086,10.086,0,0,0-2.819.135v0.09H63c0.066,0.168.174,0.147,0.4,0.135a1.7,1.7,0,0,0,.224.587h1.611V23.7c0.1-.018.049-0.041,0.134,0a2.063,2.063,0,0,1,.045.812c-0.182.1-.187,0.088-0.179,0.451l1.924-.135A3.021,3.021,0,0,1,67.2,23.7V24.78h0.313V23.742h0.09V24.78H67.7a2.2,2.2,0,0,1,.85-0.09,1.607,1.607,0,0,0-.045-0.5h0.4a2.094,2.094,0,0,0,.358.045c0.009,0.063-.037-0.018-0.045.045-0.086.035,0.09,0.045,0.09,0.045,0.04-.109.048-0.072,0.09-0.18H69.128V24.1a0.318,0.318,0,0,0,.09-0.316,0.428,0.428,0,0,0,.224-0.135,0.911,0.911,0,0,1,.358.09c0-.176-0.022-0.2.089-0.271V24.1a0.153,0.153,0,0,1,.09.045L70.2,24.1a1.357,1.357,0,0,1,.045-0.587V24.1h0.09a0.625,0.625,0,0,0,.537.09c0.009,0.063-.037-0.018-0.045.045-0.086.035,0.09,0.045,0.09,0.045a0.423,0.423,0,0,1,.4-0.045,0.779,0.779,0,0,0-.09-0.5h0.447v0.045a0.971,0.971,0,0,0-.045.451,2.1,2.1,0,0,1,.761,0v-0.09c0.129-.214-0.042-0.735.09-0.948v0.993h0.09a0.353,0.353,0,0,1,.179-0.045,2.135,2.135,0,0,1,.134-0.9v0.722l0.85,0.09c-0.033-.039-0.056-0.051-0.09-0.09a0.188,0.188,0,0,1,.134.09c0.027,0.013.393-.092,0.447-0.09,0.012-.117-0.021-0.08.179-0.09a0.161,0.161,0,0,0,.089.045c0.009-.063-0.037.018-0.045-0.045-0.086-.035.09-0.045,0.09-0.045a0.274,0.274,0,0,0,.09.09V23.877c0.013-.029-0.014-0.021.045-0.045v0.045H74.72V23.832c0.013-.029-0.014-0.021.045-0.045a0.262,0.262,0,0,0,.269,0,0.215,0.215,0,0,1-.134-0.045h0.134a0.482,0.482,0,0,0-.09-0.361h0.179a1.087,1.087,0,0,1,.045-0.5v0.5h0.224v0.045a0.24,0.24,0,0,0,0,.271V23.652a2.21,2.21,0,0,1,.134-0.722v0.722c0.133,0.053.02,0.049,0,.226a0.464,0.464,0,0,0,.269-0.045,0.275,0.275,0,0,0,.09-0.09,0.21,0.21,0,0,1-.224-0.09h0.089a1.549,1.549,0,0,1,.761.09,11.737,11.737,0,0,0,1.342-.135V22.569a0.565,0.565,0,0,0-.179.045v-0.09c0.206-.014.266-0.073,0.358,0.09H77.9v0.5h0.134a1.4,1.4,0,0,1,.09-0.587V23.11a0.215,0.215,0,0,1,.134.045H78.121v0.406l1.119-.135,0.045-.5a0.215,0.215,0,0,1-.134-0.045h0.134l0.045-.541a0.215,0.215,0,0,1-.134-0.045h0.179c0-.842.179-1.516,0.179-2.437a8.441,8.441,0,0,1,0-.9V18.913l0.134,0.045a5.181,5.181,0,0,0-.045,1.309V22.93c0.126,0.02.1,0.192,0.089,0.451H80v0.135c-1.362.955-1.48,3.5-1.924,5.37-0.17.717,0.02,2.31-.716,2.392a3.005,3.005,0,0,1-.716.045,14.679,14.679,0,0,1-2.729.045H64.877V31.91H64.832v0.045c-0.474.021-1.045,0.013-1.521,0a2.056,2.056,0,0,1-.045-0.587c-9.52-.007-19.093.09-28.68,0.09H26.219a23.807,23.807,0,0,1-5.817-.406c-0.438-.118-0.8-0.064-1.253-0.18a9.051,9.051,0,0,0-3.535-.181c-0.59.131-1.345-.074-1.879,0.045-0.866.192-1.81-.142-2.506,0.181-0.454.21-1.425-.2-1.655,0.18a1.422,1.422,0,0,1,.134.677H9.664a0.972,0.972,0,0,0-.179-0.18c0,0.223.015,0.232-.179,0.271a0.161,0.161,0,0,0-.089-0.045c-0.082-.178-0.2-0.391-0.268-0.587V31.007l-0.313-.09c-0.044-.041-0.044-0.137-0.089-0.181l0.089-.226a2.418,2.418,0,0,0,.447-0.226,0.787,0.787,0,0,1,0-.632,3.55,3.55,0,0,0,.4-0.09,1.063,1.063,0,0,1,.268.722,2.7,2.7,0,0,0,.582.045V29.608l-2.819-.226a2.549,2.549,0,0,0-1.119,0,2.256,2.256,0,0,1,.984.135,0.163,0.163,0,0,1,.045.09,4.982,4.982,0,0,1-.4,1.986,3.51,3.51,0,0,1-1.3.045,5.824,5.824,0,0,1-.716-2.121,0.35,0.35,0,0,1,.313-0.181,2.851,2.851,0,0,1,.85.045v-0.09H5.682a12.161,12.161,0,0,0-2.013-.135C3.2,28.335,3.244,26.927,3,25.908a1.7,1.7,0,0,1-.045-0.948,0.3,0.3,0,0,1,.179-0.045,0.187,0.187,0,0,1,.089-0.18,5.7,5.7,0,0,0-.134-1.128A1.062,1.062,0,0,1,2.6,23.561H2.729a0.334,0.334,0,0,0-.089-0.271H2.864v0.045c-0.113.066-.082,0.057-0.089,0.226H3.043c-0.006-.426-0.123-0.7-0.134-1.128l-2.729.361C0.176,22.233.01,21.84,0,21.26H0.045V21.215c0.888-.05,1.678-0.334,2.6-0.361A0.219,0.219,0,0,0,2.6,20.718c-0.07.056-.023,0.029-0.089,0,0.1-.061.082-0.055,0.089-0.09a0.6,0.6,0,0,0-.089-0.18H2.6A0.3,0.3,0,0,1,2.774,20.4v0.09c-0.123.073-.043,0-0.045,0.181H2.819l0.045-.045v0.09H2.729a10.535,10.535,0,0,0,.358,2.121c0.136,0.323.378,0.642,0.537,0.948,0.191,0.367.187,0.907,0.761,0.9a3.781,3.781,0,0,1,.984-0.135L8.456,24.1V24.69a0.393,0.393,0,0,1,.045.226H8.591c0.006-.17-0.021-0.159.089-0.226v0.226H8.993A0.589,0.589,0,0,1,9.038,24.6v0.9a1.673,1.673,0,0,1,.537,0v-0.18H9.441V25.1H9.933l-0.045.632h1.3V24.69h0.089v1.038h0.313a3.018,3.018,0,0,1,.045-1.128v1.128h0.4a0.832,0.832,0,0,0,.045-0.271H12.3c0.006-.189.078-0.147,0.358-0.135V25.276c-0.145-.037-0.068.022-0.134-0.09h0.313v0.09a0.216,0.216,0,0,0-.134.045,2.156,2.156,0,0,1,.492,0v0.09a0.214,0.214,0,0,0-.134.045h0.224v0.226h0.537a2.6,2.6,0,0,1,.045-0.993,1.42,1.42,0,0,0,.134.993,0.575,0.575,0,0,1,.045-0.181h0.134c0-.476-0.085-0.694-0.089-1.128h0.94a1.318,1.318,0,0,1,.045.406H15.034v0.045H14.9v0.857h1.521a2.742,2.742,0,0,1,.045-1.038v1.038h0.313a2.88,2.88,0,0,1,.045-1.083v1.083a2.155,2.155,0,0,0,1.208-.135c-0.062-.07-0.06-0.1.089-0.135V25.1H17.673V24.915a1.133,1.133,0,0,0,.492-0.451V24.6c0.248-.017.126-0.083,0.268,0a0.293,0.293,0,0,1,.045-0.18,2.259,2.259,0,0,0,.4.632,1.459,1.459,0,0,1-.447.045V25.5a2.448,2.448,0,0,0,.4.181,1.246,1.246,0,0,0-.045-0.406h0.224c0-.444.016-0.742,0-1.128h1.342V23.607H20.4v0.045a19.817,19.817,0,0,1,.045,1.986,4.512,4.512,0,0,0,1.208.045A2.281,2.281,0,0,1,21.7,24.69v0.722h0.134a2.715,2.715,0,0,0-.045-0.767c0.271-.022.685,0,1.074,0V24.69a1.786,1.786,0,0,0-.045.722h0.224v0.045a0.393,0.393,0,0,0-.045.226h0.134c0-.714,0-1.261,0-2.031h0.089v0.5h1.3a1.339,1.339,0,0,0,0,.722c0-.176-0.022-0.2.09-0.271v0.9h0.045a0.4,0.4,0,0,1,.492,0V25.1H24.7V24.915a0.675,0.675,0,0,0,.447-0.406,1.727,1.727,0,0,1,.269.09,1.12,1.12,0,0,1,.313.271h0.134V25.1H25.414a4.722,4.722,0,0,0,.089.541c0.406,0.028.916,0.045,1.387,0.045a2.6,2.6,0,0,1,.045-0.993v0.587h0.448a1.773,1.773,0,0,0-.09-0.541c0.11-.055.069-0.08,0.179-0.135,0.065,0.115-.01.051,0.134,0.09a1.167,1.167,0,0,0-.09-0.857,0.934,0.934,0,0,0,.09-0.677H27.427a0.576,0.576,0,0,1,.045-0.181h0.045c0.037,0.147-.022.069,0.09,0.135,0-.342-0.02-0.667.358-0.677L27.83,19.816a3.879,3.879,0,0,1,.895-0.135H28.77v0.045a1.607,1.607,0,0,0-.626.135,0.307,0.307,0,0,0-.045.18c0.366,0.555.243,1.73,0.626,2.256V21.531H28.546V21.125c0.307-.009.463-0.013,0.761,0v0.406H29.128a0.705,0.705,0,0,0,.045.361V21.756h0.537a0.956,0.956,0,0,1,.045-0.451,0.956,0.956,0,0,0,.045.451,1.088,1.088,0,0,1,.045-0.5,1.858,1.858,0,0,0,1.074.09l0.089-.09H31.1v0.09h0.582c0.962,0,1.157.012,2.148,0v-0.5c-0.208-.05-0.228-0.1-0.224-0.361a0.513,0.513,0,0,1,.313-0.09,0.6,0.6,0,0,1,.09.361h0.134a1.191,1.191,0,0,0,.626.542,0.161,0.161,0,0,1,.09-0.045,0.381,0.381,0,0,0,.045.271h1.835a0.674,0.674,0,0,0,.313.135,1.433,1.433,0,0,0,0,.677c-0.145.037-.068-0.022-0.134,0.09H37.36V21.486a0.513,0.513,0,0,1,.313-0.09,3.757,3.757,0,0,0,.4.045v0.09a0.34,0.34,0,0,0-.313,0,2.34,2.34,0,0,0-.045.9h0.045a2.322,2.322,0,0,1,.045-0.9v0.9h0.268a2.322,2.322,0,0,1,.045-0.9c0,0.427.028,0.851,0.045,1.218H38.21v-0.09c0.252-.407-0.122-2.111.134-2.527v2.256a1.133,1.133,0,0,1,.134.451c-0.015.053-.193,0.169-0.224,0.226a1.2,1.2,0,0,0-.045.5h0.626c0,0.8.087,1.32,0.09,2.121h0.805a6,6,0,0,1,.045-1.083h0.045v1.083h2.1V25.637a3.661,3.661,0,0,1-.09-0.993h0.134a5.778,5.778,0,0,1,.045-0.722h0.269v-0.09a0.9,0.9,0,0,1-.269-0.271l0.313-.135V21.305A0.317,0.317,0,0,0,42.6,21.26a0.287,0.287,0,0,1-.179-0.045H42.64v-0.9a1.943,1.943,0,0,1-.224-0.271h0.045a0.549,0.549,0,0,0,.179.181V19.771h-0.4v0.045a0.246,0.246,0,0,1,.134.181H42.327a0.382,0.382,0,0,0-.4-0.226V19.59h0.582V14.22a2.305,2.305,0,0,0-.358-0.451,8.768,8.768,0,0,0-.537-0.9,2.237,2.237,0,0,1-.313-0.135V11.648h0.313V9.211a0.338,0.338,0,0,1-.179-0.226h0.134a0.576,0.576,0,0,1,.045-0.181,0.727,0.727,0,0,1-.716-0.587,0.925,0.925,0,0,1,.089-0.812A1.625,1.625,0,0,1,41.79,7a2.787,2.787,0,0,1,.671.587,0.893,0.893,0,0,1-.313,1.128l-0.4.135C41.859,8.916,41.8,8.84,41.834,8.986ZM41.656,8.67V7.226a0.153,0.153,0,0,1-.09-0.045,1.041,1.041,0,0,0-.626.5,1.039,1.039,0,0,0,.4.993h0.313Zm0.089,0c0.58,0.011.737-.358,0.716-0.948a0.971,0.971,0,0,0-.671-0.542A5.692,5.692,0,0,0,41.745,8.67Zm1.432,1.489a0.386,0.386,0,0,1,.09.316H43.222a0.127,0.127,0,0,0-.045-0.045,0.494,0.494,0,0,0-.089-0.135A0.376,0.376,0,0,0,43.177,10.159ZM43.4,10.2a0.245,0.245,0,0,0,.179.135A0.853,0.853,0,0,0,43.4,10.2Zm0.224,0.18v0.09h0.045A0.155,0.155,0,0,0,43.624,10.385Zm0,0.316a2.419,2.419,0,0,0-.134.451h0.09A0.723,0.723,0,0,0,43.624,10.7Zm-0.671.045a1.288,1.288,0,0,0,.045.316,0.16,0.16,0,0,0,.089.045V11.061c-0.11-.058-0.03.019-0.089-0.09l0.134,0.045A0.8,0.8,0,0,0,42.953,10.746Zm0.4,0a0.24,0.24,0,0,1,0,.271V10.746Zm-1.611.9h0.134a1.5,1.5,0,0,0-.134-0.587v0.587Zm1.969-.451a0.215,0.215,0,0,1,.134.045A0.215,0.215,0,0,1,43.714,11.2Zm-2.327.542V12.6h0.224V11.738H41.387Zm0.805,0.677V12.6c0.389,0,.447.006,0.94,0V11.738a2.552,2.552,0,0,0-1.163.09,0.984,0.984,0,0,0,.313.5,0.153,0.153,0,0,0-.09.045,0.39,0.39,0,0,1,.4.09H42.55A0.7,0.7,0,0,0,42.192,12.415ZM43.222,12.6h0.134V12.144H43.4V12.19a0.431,0.431,0,0,1,.134.18,0.318,0.318,0,0,0-.134.226h0.492v-0.09a0.541,0.541,0,0,1-.134-0.271l0.09,0.045V12.1c-0.244.032-.341,0.1-0.4,0-0.236-.077-0.114-0.178-0.224-0.361V12.6Zm0.671-.857a2.018,2.018,0,0,0,.09.812V12.144a0.755,0.755,0,0,0,.268-0.045v0.09a0.842,0.842,0,0,0-.045.406h0.582V11.738H43.893Zm-2.148.045v0.5H41.79a0.161,0.161,0,0,1,.089-0.045l0.045-.226a0.215,0.215,0,0,1-.134-0.045h0.134V11.783H41.745Zm1.969,0.361a0.164,0.164,0,0,1,.045.09H43.714v-0.09Zm-0.179.045a0.163,0.163,0,0,1,.045.09H43.535V12.19Zm-0.94.271a0.163,0.163,0,0,1,.045.09H42.6V12.46Zm-0.85.045V12.6h0.134V12.551Zm0.224,0.045a0.161,0.161,0,0,0,.09.045A0.162,0.162,0,0,0,41.969,12.551Zm-0.268.271L41.79,13h0.045a0.575,0.575,0,0,1,.045-0.18H41.7Zm0.313,0a1.2,1.2,0,0,0-.045.406c0.136,0.277.35,0.488,0.492,0.767h0.045V12.821H42.013Zm0.537,0a5.051,5.051,0,0,0,.045,1.354H42.64V12.821H42.55Zm0.313,1.715h0.4a6.139,6.139,0,0,0-.4-1.715v1.715ZM43,12.821a4.57,4.57,0,0,0,.179.948h0.045V13.634C43.086,13.419,43.144,13.026,43,12.821Zm0.626,0.316,0.045-.226h0.09a0.269,0.269,0,0,1,0,.181A0.227,0.227,0,0,1,43.624,13.137Zm-0.4.722a1.935,1.935,0,0,0,.134.677H43.4v-0.09C43.3,14.3,43.326,14.006,43.222,13.859Zm-0.671.5v0.271h0.09A0.26,0.26,0,0,0,42.55,14.356Zm0,0.316v1.986h0.09V14.672H42.55Zm0.313,0.045v1.9h0.85l-0.4-1.9H42.864Zm0.537,0a7.517,7.517,0,0,0,.4,1.9h0.045v-0.09C43.536,16.048,43.73,15.173,43.4,14.717ZM42.55,16.7V19.59h0.09V16.7H42.55Zm0.313,0.045a13.232,13.232,0,0,0,.045,2.572,1.546,1.546,0,0,0,1.3.271,0.815,0.815,0,0,0,.134-0.226,2.392,2.392,0,0,1-.134-0.632,15.53,15.53,0,0,1-.447-1.986H42.864Zm0.94,0a0.8,0.8,0,0,0,.09.181C43.874,16.766,43.914,16.814,43.8,16.747Zm0.09,0.226a11.323,11.323,0,0,0,.492,2.256A12.128,12.128,0,0,0,43.893,16.973ZM46,17.966a0.69,0.69,0,0,1,.358.045A0.688,0.688,0,0,1,46,17.966ZM47.427,18.6a3.444,3.444,0,0,0-.09-0.632,0.163,0.163,0,0,0-.045.09,1.826,1.826,0,0,0-.134.541h0.269Zm0.4-.632a0.163,0.163,0,0,1,.045.09H47.83v-0.09Zm-0.671.181v0.09H47.2A0.155,0.155,0,0,0,47.159,18.146Zm0.716,0a0.469,0.469,0,0,1,.269.045A0.469,0.469,0,0,1,47.875,18.146Zm-0.984.09V18.6a0.215,0.215,0,0,0,.134-0.045,1.7,1.7,0,0,0,.09-0.271c-0.2-.023-0.161-0.064-0.358-0.09v0.045H46.89Zm0.537,0.045v0.09h0.045v-0.09H47.427Zm-0.313.09v0.09h0.045v-0.09H47.114Zm1.119,0.406v0.406h0.626V18.778H48.233Zm0.671,0a0.829,0.829,0,0,0,.045.406A0.828,0.828,0,0,0,48.9,18.778Zm0.09,0v0.406h0.224V18.778H48.993Zm0.268,0a0.829,0.829,0,0,0,.045.406A0.829,0.829,0,0,0,49.262,18.778Zm0.09,0a0.829,0.829,0,0,0,.045.406A0.829,0.829,0,0,0,49.351,18.778Zm0.179,0v0.406h0.179V18.778H49.53Zm0.582,0.135V19h0.045A0.155,0.155,0,0,0,50.112,18.913Zm-5.145.226v0.316h0.09V19.139h-0.09Zm5.548,0.135a0.328,0.328,0,0,1-.268-0.09v0.5h0.09l0.09-.135A0.471,0.471,0,0,0,50.515,19.274Zm-7.606-.045a0.175,0.175,0,0,1,.09.135H42.953V19.32A0.163,0.163,0,0,1,42.908,19.229Zm5.28,0v0.451h0.671V19.229H48.188Zm0.716,0a0.956,0.956,0,0,0,.045.451A0.956,0.956,0,0,0,48.9,19.229Zm0.09,0v0.451h0.224V19.229H48.993Zm0.268,0a0.958,0.958,0,0,0,.045.451A0.956,0.956,0,0,0,49.262,19.229Zm0.09,0a0.958,0.958,0,0,0,.045.451A0.958,0.958,0,0,0,49.351,19.229Zm0.179,0v0.451h0.179V19.229H49.53Zm-5.145.045v0.09H44.43v-0.09H44.385Zm6.175,0a0.219,0.219,0,0,0,.045.135V19.274H50.559Zm-5.593.226v0.316h0.09V19.5h-0.09Zm-2.058,1.579h0.224V20.9h0.09v0.18a3.912,3.912,0,0,0,.761-0.045c-0.018-.132-0.073-0.057.045-0.135v0.18a2.332,2.332,0,0,0,.671.135,7.613,7.613,0,0,0-.269-1.309,1.122,1.122,0,0,1-.224-0.18H43.132a0.716,0.716,0,0,1-.224.226v1.128Zm2.058-.857h0.179V19.951l-0.179-.045v0.316Zm-16.957-.271v0.09h0.045A0.154,0.154,0,0,0,28.009,19.951Zm17.226,0a7.334,7.334,0,0,1,.045.993h0.179v0.045c-0.113.066-.082,0.057-0.089,0.226h0.582a1.068,1.068,0,0,0-.179-1.083A1.017,1.017,0,0,0,45.235,19.951ZM27.92,20a1.088,1.088,0,0,0,.045.5A1.088,1.088,0,0,0,27.92,20Zm16.6,0a1.947,1.947,0,0,0,.269.948V20.9a2.031,2.031,0,0,1-.179-0.857Zm-16.465.135v0.09H28.1v-0.09H28.054Zm16.913,0.135a0.13,0.13,0,0,0,.179,0H44.966Zm2.685,0v0.451h0.492V20.267H47.651Zm0.761,0v0.451h0.447V20.267H48.412Zm0.761,0v0.451H49.62V20.267H49.172Zm0.94,0v0.451a0.372,0.372,0,0,0,.224-0.045,0.3,0.3,0,0,1-.179-0.09l0.358-.045V20.267h-0.4Zm0.716,0v0.451h0.179V20.267H50.828ZM28.054,21.486h0.268a4.116,4.116,0,0,0-.313-1.173Q28.031,20.9,28.054,21.486ZM28.1,20.312V20.4h0.045v-0.09H28.1ZM33.96,21.35h0.313V21.305l-0.313-.271V21.35Zm8.68,0H42.461a4.76,4.76,0,0,0-.089,1.67h0.045a0.655,0.655,0,0,1,.045-0.226c0.13,0,.062.044,0.134,0A4.017,4.017,0,0,0,42.64,21.35Zm-12.8.045v0.361h1.074V21.4H29.843Zm1.253,0v0.361c0.507,0,1.15-.023,1.521,0V21.4H31.1Zm1.566,0a0.706,0.706,0,0,0,.045.361A0.705,0.705,0,0,0,32.662,21.4Zm0.09,0v0.361h1.074V21.4H32.752Zm1.208,0a0.705,0.705,0,0,0,.045.361V21.621a0.625,0.625,0,0,0,.447-0.135A0.9,0.9,0,0,0,33.96,21.4ZM79.374,22.93h0.179a4.136,4.136,0,0,0-.045-1.489C79.512,21.98,79.413,22.431,79.374,22.93Zm-41.969-.5h0.269V21.486H37.45A3.543,3.543,0,0,0,37.4,22.433Zm-9.351-.857L28.1,22.433h0.492V22.388a2.671,2.671,0,0,1-.224-0.812H28.054Zm6.04,0.09a0.16,0.16,0,0,0,.089.045A0.16,0.16,0,0,0,34.094,21.666Zm2.729,0a0.16,0.16,0,0,0,.089.045A0.161,0.161,0,0,0,36.823,21.666Zm24.609,0.226a0.161,0.161,0,0,0,.089.045A0.16,0.16,0,0,0,61.432,21.892Zm0,0.135a0.161,0.161,0,0,0,.089.045A0.16,0.16,0,0,0,61.432,22.027Zm1.208,0.18a0.293,0.293,0,0,0-.045-0.18,0.632,0.632,0,0,1-.09.271H62.64c0.035-.031.1-0.059,0.134-0.09H62.64Zm-1.253-.09a0.162,0.162,0,0,0,.09.045A0.161,0.161,0,0,0,61.387,22.117ZM61.7,22.163a0.162,0.162,0,0,0,.09.045A0.161,0.161,0,0,0,61.7,22.163Zm1.476,0.045V22.3H63.4v-0.09A0.579,0.579,0,0,1,63.177,22.208Zm-11.857.587h0.134a1.329,1.329,0,0,0-.089-0.451,0.163,0.163,0,0,0-.045.09,2.183,2.183,0,0,0,0,1.038V22.794Zm9.754-.316H60.761l-0.045.135a1.625,1.625,0,0,0,.268.857h0.09V22.478Zm17.092,0.09h0.09v0.045A0.153,0.153,0,0,1,78.166,22.569Zm-17,.09a2.993,2.993,0,0,0-.045.812h0.09A2.044,2.044,0,0,0,61.163,22.659Zm0.09,0v0.812h0.671V22.93A0.7,0.7,0,0,0,61.253,22.659Zm0.761,0.135v0.09h0.045A0.156,0.156,0,0,0,62.013,22.794Zm0.09,0a0.219,0.219,0,0,0,.045.135c0.078,0.06.072,0.078,0.134,0.045a0.231,0.231,0,0,0,.045-0.135A0.7,0.7,0,0,0,62.1,22.794Zm-59.016.18a7.427,7.427,0,0,0,.313,1.9,0.161,0.161,0,0,1,.089-0.045c0.019-.162-0.021-0.113.089-0.18,0.034,0.031.1,0.059,0.134,0.09-0.145.037-.068-0.022-0.134,0.09H3.624a1.027,1.027,0,0,1,.313-0.09v-0.09C3.54,24.2,3.5,23.4,3.087,22.975ZM61.969,23.02v0.451h0.09A0.6,0.6,0,0,0,61.969,23.02ZM62.1,23.11v0.135a0.753,0.753,0,0,1,.269.045V23.155Zm15.571,0a0.215,0.215,0,0,1,.134.045A0.215,0.215,0,0,1,77.673,23.11ZM42.6,23.381V23.246a0.28,0.28,0,0,1-.224-0.09v0.271h0.045A0.3,0.3,0,0,1,42.6,23.381Zm35.347-.226v0.451h0.09V23.155h-0.09Zm1.387,0a0.38,0.38,0,0,0,.045.226A0.38,0.38,0,0,0,79.329,23.155Zm-25.593.18a0.161,0.161,0,0,0,.09.045A0.161,0.161,0,0,0,53.736,23.336Zm-2.282.045v0.09h0.626v-0.09H51.454Zm10.649,0v0.09h0.179v-0.09A0.244,0.244,0,0,1,62.1,23.381Zm0.224,0v0.09c0.16-.019.113,0.021,0.179-0.09H62.327Zm13.244,0.361a0.215,0.215,0,0,1,.134.045A0.215,0.215,0,0,1,75.571,23.742Zm-0.224.09a0.161,0.161,0,0,0,.089.045A0.16,0.16,0,0,0,75.347,23.832Zm-47.875.045a0.182,0.182,0,0,1,0,.226V23.877Zm47.338,0a0.161,0.161,0,0,1-.089.045v0.045h0.134A0.154,0.154,0,0,0,74.81,23.877Zm0.134,0a0.161,0.161,0,0,0,.09.045A0.161,0.161,0,0,0,74.944,23.877Zm-1.029.045H74v0.045A0.153,0.153,0,0,1,73.915,23.922Zm-20.09.09a4.086,4.086,0,0,0-.134.542,0.7,0.7,0,0,0,.224.045v-0.09a0.4,0.4,0,0,1-.134-0.135A0.227,0.227,0,0,0,53.826,24.013Zm19.105,0c-0.006.158-.027,0.088,0.134,0.09v-0.09H72.931Zm-53.6.181v0.09h0.045v-0.09H19.329Zm0.134,0v0.09c0.16-.019.113,0.021,0.179-0.09H19.463Zm0.313,0v0.09h0.268v-0.09H19.776Zm0.358,0v0.09h0.045v-0.09H20.134Zm3.221,0v0.09H23.4v-0.09H23.356Zm0.134,0v0.09h0.269v-0.09H23.49Zm0.4,0v0.09c0.16-.019.113,0.021,0.179-0.09H23.893Zm0.268,0v0.09h0.045v-0.09H24.161Zm44.7,0.09a0.705,0.705,0,0,0,.045.361A0.706,0.706,0,0,0,68.859,24.283Zm1.79,0c0.077,0.04.057,0.04,0.134,0H70.649Zm1.029,0a0.16,0.16,0,0,0,.089.045A0.161,0.161,0,0,0,71.678,24.283ZM7.2,24.419l0.045,0.767H7.472V24.915H8.1l-0.045-.587Zm62.953-.045a0.294,0.294,0,0,0,.045.181A0.294,0.294,0,0,0,70.157,24.374Zm0.09,0c0.037,0.146-.022.069,0.09,0.135V24.374h-0.09Zm0.447,0v0.09h0.134v-0.09H70.694Zm0.358,0.045a0.161,0.161,0,0,0,.09.045A0.16,0.16,0,0,0,71.051,24.419ZM6,24.6l0.089,0.767H6.174a1.768,1.768,0,0,1,.045-0.722v0.677l0.671-.045L6.8,24.509Zm47.472-.045a0.161,0.161,0,0,0,.089.045A0.16,0.16,0,0,0,53.468,24.554Zm-48.68.9L5.1,25.5c0.053-.018-0.055-0.087.045-0.09,0.065,0,.051.033,0.045,0.09l0.492-.09V25.186a1.776,1.776,0,0,1-.089-0.541L4.7,24.78v0.226A1.337,1.337,0,0,1,4.787,25.457ZM3.221,24.78v0.09H3.266V24.78H3.221Zm0.94,0.045L4.3,25.231H4.34A2.013,2.013,0,0,1,4.3,24.825H4.161Zm10.067,0V25.5h0.09V24.825h-0.09ZM3.937,24.87a0.385,0.385,0,0,1-.224.045,0.127,0.127,0,0,1-.045.045c0.052,0.244.164,0.39,0.224,0.632a2.492,2.492,0,0,0,.313.09v-0.09H3.982V25.547A0.468,0.468,0,0,0,4.251,25.5a0.163,0.163,0,0,0,.045-0.09A1.79,1.79,0,0,0,3.937,24.87Zm20.537,0.09a1.221,1.221,0,0,0,.045.541A1.221,1.221,0,0,0,24.474,24.96ZM3.4,25.005a0.847,0.847,0,0,0,.089.451V25.005H3.4Zm15.884,0a0.293,0.293,0,0,0,.045.18,0.575,0.575,0,0,1,.045-0.18h-0.09Zm0.179,0a0.214,0.214,0,0,0,0,.226A0.3,0.3,0,0,0,19.463,25.005Zm0.134,0a0.969,0.969,0,0,1-.09.226h0.448V25.186A0.328,0.328,0,0,0,19.6,25.005ZM20,25.231a0.214,0.214,0,0,0,.134-0.045,0.323,0.323,0,0,1-.09-0.18H19.955V25.1A0.231,0.231,0,0,1,20,25.231Zm0.134-.226V25.1h0.045v-0.09H20.134Zm3.221,0a0.381,0.381,0,0,0,.045.226l0.045-.226h-0.09Zm0.313,0a1.172,1.172,0,0,0-.09.226h0.447V25.186c-0.03-.035-0.059-0.1-0.089-0.135A0.482,0.482,0,0,0,23.669,25.005Zm0.358,0a0.974,0.974,0,0,0,.089.226h0.045v-0.09A0.348,0.348,0,0,0,24.027,25.005Zm0.134,0,0.045,0.135h0.045V25.005H24.161Zm-20.582.767H3.758c0.024-.161,0,0,0.134-0.09-0.1-.132-0.163-0.285-0.268-0.406,0,0,.178-0.02.089-0.045H3.669l-0.045-.181H3.579v0.722ZM23.49,25.1l-0.045.135H23.49V25.186C23.546,25.115,23.519,25.163,23.49,25.1Zm3.982,0.135c0.077,0.04.057,0.04,0.134,0H27.472Zm25.951,0a1.074,1.074,0,0,0,.045.361A2.781,2.781,0,0,1,54,25.547V25.231H53.423Zm0.626,0v0.316h0.179V25.231H54.049Zm0.269,0v0.316h0.447a0.976,0.976,0,0,0,.045-0.316H54.318Zm0.582,0a0.914,0.914,0,0,0,.045.316,4.861,4.861,0,0,1,1.3-.045,0.833,0.833,0,0,0,.045-0.271H54.9Zm-16.152.045v0.406h0.09V25.276h-0.09Zm-19.329.406h0.448V25.366h-0.4A0.979,0.979,0,0,0,19.418,25.682Zm4.7-.316H23.49v0.09a0.886,0.886,0,0,0-.089.18H23.49a1.743,1.743,0,0,0,.716.045v-0.09A0.306,0.306,0,0,1,24.116,25.366Zm0.045,0L24.206,25.5h0.045V25.366H24.161Zm-0.805.045V25.5H23.4v-0.09H23.356ZM6.219,25.5v0.226H6.89a0.127,0.127,0,0,1,.045-0.045V25.547A5.982,5.982,0,0,0,6.219,25.5Zm1.163-.045c-0.033.039-.056,0.051-0.089,0.09a0.323,0.323,0,0,1,.089.18H7.472V25.457H7.383Zm17.4,0c0,0.13-.042.117,0.179,0.135V25.5a0.129,0.129,0,0,1-.045-0.045H24.788Zm13.468,0.226h0.134V25.457H38.345V25.5H38.3A0.643,0.643,0,0,0,38.255,25.682ZM6.085,25.5a0.8,0.8,0,0,0,.089.181V25.5H6.085ZM8.77,25.727H8.9v-0.18H8.859a0.161,0.161,0,0,1-.089.045v0.135Zm5.459-.18c0.037,0.146-.022.069,0.09,0.135v-0.09ZM4.3,25.592a0.161,0.161,0,0,0,.089.045A0.161,0.161,0,0,0,4.3,25.592Zm1.432,0a1.073,1.073,0,0,0-.492.09v0.09H5.682a0.128,0.128,0,0,1,.045-0.045V25.592Zm2.327,0.135c-0.037-.146.022-0.069-0.089-0.135a0.161,0.161,0,0,1-.089.045v0.09H8.054ZM8.1,25.592v0.09H8.143V25.637H8.188A0.161,0.161,0,0,0,8.1,25.592Zm0.94,0a0.219,0.219,0,0,0,.045.135V25.592H9.038Zm15.57,0v0.09h0.045v-0.09H24.609Zm-17.092.045v0.09H7.562v-0.09H7.517Zm-2.6.045v0.09A0.563,0.563,0,0,0,5.1,25.727V25.682A0.343,0.343,0,0,1,4.922,25.682Zm6,4.016v0.587h0.492l0.09,0.135h0.85a12.456,12.456,0,0,0,2.237-.09,6.367,6.367,0,0,0,1.521-.045C14.356,30.263,12.743,29.726,10.917,29.7Z" transform="translate(0 0.516)"/>
</svg>
