<?xml version="1.0" encoding="utf-8"?>
<!-- Generator: Adobe Illustrator 16.0.0, SVG Export Plug-In . SVG Version: 6.00 Build 0)  -->
<!DOCTYPE svg PUBLIC "-//W3C//DTD SVG 1.1//EN" "http://www.w3.org/Graphics/SVG/1.1/DTD/svg11.dtd">
<svg version="1.1" id="Layer_1" xmlns="http://www.w3.org/2000/svg" xmlns:xlink="http://www.w3.org/1999/xlink" x="0px" y="0px"
	 width="40px" height="40px" viewBox="0 0 40 40" enable-background="new 0 0 40 40" xml:space="preserve">
<path id="Color_Fill_1" fill="#FFFFFF" d="M8.519,15.411c-0.001-0.156,0.017-0.311,0.052-0.462h0.052v0.205
	c0.043,0.078,0.061,0.168,0.052,0.257c0.31-0.075,0.635-0.058,0.935,0.051l0.1,0.154c0.571,0.052,1.147,0.034,1.714-0.052
	c0.084-0.521,0.206-1.036,0.364-1.54h0.156v-0.514c0.168-0.043,0.079,0.025,0.156-0.1H12v0.049h-0.052V13.2
	c-0.066-0.216-0.084-0.444-0.052-0.667c-0.125-0.079-0.231-0.185-0.312-0.308h0.1c0.052,0.083,0.124,0.154,0.208,0.205v-0.408
	c-0.065-0.09-0.1-0.197-0.1-0.308c0.915,0.1,2.03-0.026,2.805,0V11.56c0.091-0.064,0.2-0.099,0.312-0.1
	c0.054,0.133,0.171,0.23,0.312,0.257c0.062,0.036,0.387,0.021,0.623,0.051v-0.516c-0.116-0.084-0.156-0.088-0.1-0.205
	c0.021-0.058,0.055-0.111,0.1-0.154c0.146,0.044,0.273,0.134,0.364,0.257c0.216-0.138,0.481-0.174,0.727-0.1v-0.208h0.156V11.2
	c0.078,0.093,0.191,0.149,0.312,0.154v-0.307c0.08,0.005,0.154,0.041,0.208,0.1c0.104-0.334,0.174-0.678,0.208-1.027
	c0.445-0.085,0.901-0.102,1.351-0.051c0.078,0.123,0.07,0.352,0.156,0.462c0.128-0.136,0.068,0,0.312,0.051v-0.1
	c-0.164-0.339-0.269-0.704-0.312-1.078h0.052v0.051c0.191,0.35,0.314,0.733,0.364,1.129H20v0.257
	c0.27,0.014,0.479,0.243,0.468,0.513c0.712-0.032,1.425,0.001,2.13,0.1h6.286c0.985,0.098,1.979,0.081,2.961-0.051v0.411h-0.1
	c-0.171-0.041-0.345-0.057-0.521-0.051c-0.847-0.066-1.698-0.066-2.545,0h-6.131c-0.678,0.178-1.377,0.265-2.078,0.257v0.411
	c-0.295-0.002-0.59,0.015-0.883,0.051c0.038,0.221,0.038,0.446,0,0.667c-0.546,0.117-1.109,0.134-1.662,0.051v-0.048H17.87
	c0.092-0.224,0.054-0.48-0.1-0.667c-0.162-0.077-0.345-0.095-0.519-0.051v0.924h0.312v0.1c-0.022,0.06,0,0.515-0.052,0.667
	c0.559,0.107,0.272,0.772,0.883,0.822c0.171-0.1,0.37,0.1,0.623,0c0.087-0.034-0.011-0.169,0.156-0.154
	c0.049,0.055,0.101,0.106,0.156,0.154c0.119,0,0.422-0.053,0.623-0.051v0.154c0.277-0.04,0.561-0.022,0.831,0.051
	c0.4,0.141,0.254,0.456,0.831,0.461c0.043-0.167-0.025-0.078,0.1-0.153v0.153h1.195l0.052-0.153h4.675
	c-0.037,0.082-0.037,0.175,0,0.257c0.05-0.046,0.108-0.226,0.156-0.257c0.185-0.117,0.616,0.047,0.778-0.051
	c0.064-0.199,0.082-0.409,0.053-0.616c-0.063-0.166-0.063-0.348,0-0.513c0.195,0.055,0.386,0.124,0.57,0.205
	c0.101,0.022,0.533-0.051,0.728-0.051c0.755-0.067,1.515,0.02,2.233,0.257c0.145,0.058,0.316-0.013,0.416,0.051h-0.206
	c-0.007,0.071-0.024,0.14-0.052,0.205h0.778v0.051c-0.05,0.112-0.067,0.236-0.052,0.359c0.563,0,1.175,0.016,1.662,0.051v0.206
	c0.207-0.057,0.428-0.039,0.623,0.051l0.052,0.154c0.04,0.188,0.021,0.386-0.052,0.564v0.051c0.037-0.006,0.072-0.023,0.1-0.051
	c0.08-0.077,0.149-0.163,0.208-0.257c0.045,0.038,0.06,0.065,0.101,0.1v-0.61h0.207c0.032,0.238,0.05,0.479,0.053,0.72l0.26,0.051
	c0.023,0.171,0.146,0.313,0.313,0.358c0.137-0.352,0.514-0.549,0.883-0.461c0.115-0.047,0.24-0.064,0.363-0.051v0.051h0.06v0.719
	l0.1-0.051v0.051c0.04,0.061,0.063,0.247,0.101,0.308c0.184,0.061,0.379,0.078,0.57,0.052v-0.052
	c-0.03-0.047-0.045-0.103-0.041-0.159h1.039v1.644c0.156,0.054,0.285,0.163,0.364,0.308h-0.055c-0.007,0.038-0.024,0.073-0.052,0.1
	c-0.025-0.04-0.061-0.074-0.101-0.1v0.051c0.087,0.077,0.054,0.037,0.052,0.101c-0.078,0.094-0.164,0.18-0.26,0.257v0.1
	c0.214,0.065,0.255,0.135,0.26,0.411c-0.182,0.198-0.292,0.451-0.312,0.72c-0.181,0.223-0.337,0.463-0.468,0.719
	c-0.02,0.217,0.035,0.434,0.156,0.615c0.021,0.656-0.268,1.283-0.779,1.694c-0.732,0.377-1.498,0.687-2.286,0.925
	c-1.161,0.574-2.358,1.071-3.584,1.488h-7.74c-0.938,0.08-3.978,0.01-4.939,0.01h-8.675c-0.4-0.17-0.818-0.29-1.247-0.358
	c-0.728-0.239-1.557-0.531-2.286-0.771C7.311,24.94,6.945,24.82,6.6,24.652c-0.332-0.249-0.583-0.588-0.727-0.977
	c0.005-0.328-0.028-0.654-0.1-0.975c-0.132,0.059-0.284,0.059-0.416,0c-0.042-0.082-0.076-0.168-0.1-0.258H5.3
	c0.223,0.047,0.453,0.047,0.675,0v-0.051c-0.131-0.071-0.211-0.209-0.208-0.358l-0.883-0.205v-0.566
	c0.247-0.12,0.447-0.317,0.571-0.563H5.61c-0.006-0.73-0.11-1.456-0.31-2.158c-0.018,0.135-0.125,0.24-0.26,0.257v-0.154
	c0.064-0.09,0.1-0.197,0.1-0.308c-0.038-0.006-0.073-0.023-0.1-0.051c-0.149,0.066-0.29,0.153-0.416,0.257v-0.1
	c0.212-0.054,0.361-0.244,0.364-0.463c-0.066-0.288-0.084-0.586-0.053-0.881c0.426-0.194,0.31-0.985,0.883-1.13
	c0.003-0.121,0.021-0.241,0.052-0.358H5.195v0.051c-0.052,0.051-0.051-0.051-0.052-0.051c-0.08-0.302-0.098-0.616-0.052-0.924
	c0.035-0.04,0.068-0.115,0.1-0.154c0.289-0.091,0.584-0.159,0.883-0.205c0.027-0.027,0.045-0.062,0.052-0.1
	c-0.207-0.342-0.381-0.703-0.519-1.078c-0.483-0.777-0.906-1.611-1.4-2.413c-0.972-1.571-1.82-3.232-2.805-4.826
	C0.846,5.162,0.376,4.354,0,3.5h0.052v0.051c0.556,0.796,1.042,1.638,1.455,2.516c1.159,1.867,2.268,3.833,3.429,5.7
	c0.417,0.897,0.94,1.742,1.558,2.516C6.93,13.959,7.457,13.779,8,13.768c0.049,0.133,0.083,0.271,0.1,0.411l-1.4,0.513
	c0.013,0.021,0.03,0.039,0.052,0.051c0.038,0.045,0.065,0.058,0.1,0.1c0.18-0.142,0.396-0.23,0.623-0.257
	C7.576,14.787,7.721,14.963,7.9,15.1c-0.003,0.088,0.015,0.177,0.052,0.257L8.519,15.411z M19.376,10.893h0.312v-0.205
	c-0.083-0.031-0.171-0.048-0.26-0.051v0.101C19.395,10.782,19.377,10.837,19.376,10.893L19.376,10.893z M15.948,11.355
	c0.005,0.175,0.039,0.349,0.1,0.513H16.1v-0.154c-0.032-0.1-0.049-0.203-0.052-0.308C16.021,11.379,15.986,11.361,15.948,11.355z
	 M10.805,11.56c0.17,0.078,0.314,0.202,0.416,0.359h-0.1c-0.049-0.075-0.149-0.244-0.208-0.154L10.7,11.92v-0.1
	C10.858,11.7,10.814,11.75,10.805,11.56z M11.221,11.919c0.155,0.054,0.285,0.164,0.364,0.308
	C11.43,12.174,11.3,12.064,11.221,11.919L11.221,11.919z M14.6,13.357c0.347,0.031,0.697,0.014,1.039-0.051
	c-0.064-0.164-0.098-0.337-0.1-0.513c0.09-0.015,0.168-0.072,0.208-0.154c0.06-0.183,0.094-0.373,0.1-0.565h-0.159
	c0.001,0.11-0.034,0.219-0.1,0.308c-0.035-0.315-0.157-0.328-0.52-0.308c-0.078,0.109-0.165,0.212-0.26,0.308
	c-0.025-0.04-0.06-0.074-0.1-0.1V13.2C14.569,13.278,14.643,13.192,14.6,13.357z M12.416,13.2v0.154h0.312v-0.048
	c-0.041-0.025-0.075-0.06-0.1-0.1h-0.212V13.2z M14.338,13.354V13.2h-1.61v0.051h0.052v0.051c0.515,0.087,1.038,0.105,1.558,0.055
	V13.354z M17.4,13.409v0.1h0.052C17.446,13.471,17.428,13.436,17.4,13.409z M6.39,14.9c-0.189,0.072-0.365,0.176-0.519,0.308h0.051
	c0.2,0.191,0.431,0.22,0.571,0.358c0-0.279-0.018-0.507,0-0.667H6.39z M29.195,14.9c0.027,0.027,0.063,0.044,0.1,0.051
	C29.268,14.924,29.232,14.906,29.195,14.9z M7.533,15.054c-0.043,0.063-0.077,0.132-0.1,0.205c0.053,0.077,0.087,0.165,0.1,0.257
	h0.051v-0.054c0.15-0.086,0.145-0.074,0.156-0.308c-0.064-0.045-0.134-0.079-0.208-0.104L7.533,15.054z M7.325,15.362
	c-0.017,0.122,0.001,0.246,0.052,0.358c0.018-0.123-0.001-0.249-0.052-0.362V15.362z M35.117,15.67c0.047,0.041,0.1,0.075,0.156,0.1
	c-0.014,0.105,0.004,0.213,0.052,0.309v-0.051c0.038-0.062,0.057-0.133,0.052-0.205c-0.041-0.046-0.074-0.098-0.1-0.154h-0.16V15.67
	z M36.675,16.748l0.261-0.051c0.03-0.542,0.42-0.28,0.674-0.154v0.154H37.4V16.9c0.121,0.013,0.242,0.013,0.363,0v-0.616
	c-0.226-0.032-0.456-0.015-0.675,0.051c-0.214,0.031-0.382,0.198-0.414,0.411V16.748z M35.948,16.389
	c0.083,0.109,0.189,0.197,0.312,0.258v-0.101c-0.086-0.083-0.194-0.138-0.312-0.16V16.389z M35.48,16.439
	c0.027,0.027,0.062,0.045,0.1,0.052c-0.027-0.027-0.062-0.046-0.1-0.054V16.439z M37.455,17c0.089,0.045,0.066,0.046,0.156,0H37.455
	z M37.715,17.051v0.1h0.053c-0.008-0.037-0.025-0.07-0.054-0.097L37.715,17.051z M38.702,17.15v0.16l0.675-0.052
	c0.03,0.396-0.004,0.796-0.1,1.181l0.26,0.205v-1.488H38.7L38.702,17.15z M38.494,17.613h-0.26v0.057h0.052v0.051l0.208,0.101
	v-0.203V17.613z M5.039,17.973c0.089,0.001,0.177,0.018,0.26,0.051v-0.148c-0.053-0.07-0.125-0.124-0.208-0.154
	c-0.013-0.021-0.03-0.038-0.052-0.051v0.309V17.973z M38.025,17.715c0.007,0.008,0.156,0.154,0.156,0.154
	c-0.027-0.069-0.085-0.123-0.156-0.148V17.715z M37.662,17.869c0.027,0.026,0.063,0.045,0.1,0.051
	c-0.027-0.024-0.063-0.04-0.1-0.045V17.869z M38.234,17.869c0.006,0.007,0.156,0.154,0.156,0.154
	c-0.029-0.07-0.086-0.124-0.156-0.148V17.869z M5.091,18.177c0.027,0.026,0.063,0.045,0.1,0.052c-0.028-0.025-0.063-0.041-0.1-0.045
	V18.177z M39.221,18.639c-0.017,0.071,0.074,0.075,0.1,0.101c0.041-0.046-0.086-0.078-0.1-0.095V18.639z M39.377,18.739
	c0.006,0.007,0.156,0.153,0.156,0.153c-0.029-0.068-0.086-0.121-0.156-0.145V18.739z M39.477,19.304
	c0.024-0.065,0.024-0.139,0-0.204c-0.078-0.079-0.165-0.148-0.26-0.205v0.315h-0.048c-0.051,0.052,0.051,0.051,0.052,0.051
	l0.053,0.101c0.066-0.026,0.137-0.043,0.207-0.049L39.477,19.304z M39.633,18.945c-0.017,0.07,0.074,0.074,0.1,0.1
	c0.045-0.045-0.082-0.076-0.097-0.092L39.633,18.945z M5.195,22.29c0.027,0.026,0.046,0.062,0.052,0.101H5.195V22.29z
	 M36.156,23.574c-0.111,0.086-0.233,0.155-0.364,0.205v0.051h0.101c0.125-0.092,0.266-0.162,0.416-0.205v-0.051H36.156z
	 M7.273,23.882c0-0.056-0.018-0.11-0.052-0.153c-0.045-0.033-0.1-0.051-0.156-0.052v0.052H7.013l0.052,0.1
	C7.131,23.855,7.201,23.874,7.273,23.882z M8.26,23.934v-0.205H8.208v-0.053H8.1c-0.043,0.063-0.077,0.133-0.1,0.205h0.052
	C8.114,23.92,8.187,23.938,8.26,23.934z M9.611,23.833L9.04,23.732c-0.085,0.238-0.25,0.438-0.468,0.565v0.052h0.051l1.195,0.41
	v-0.1c-0.159-0.246-0.232-0.538-0.208-0.83L9.611,23.833z M7.585,23.833c-0.027,0.065-0.045,0.135-0.052,0.205
	c0.038,0.006,0.073,0.023,0.1,0.051c0.038-0.006,0.073-0.023,0.1-0.051c0.027-0.027,0.045-0.062,0.052-0.101
	c-0.062-0.045-0.129-0.082-0.201-0.107L7.585,23.833z M14.806,23.884c-0.197,0.405-0.676,0.586-1.091,0.411
	c-0.089,0.338-0.249,0.652-0.467,0.924h2.182v-0.054c-0.459-0.329-0.315-0.883-0.625-1.283L14.806,23.884z M18.962,24.346
	c-0.083,0.324-0.243,0.624-0.467,0.873h2.233v-0.054c-0.263-0.407-0.488-0.836-0.674-1.283c-0.154,0.468-0.529,0.483-1.093,0.462
	L18.962,24.346z M35.17,23.884c-0.008,0.094-0.043,0.183-0.1,0.257h0.052c0.146-0.111,0.376-0.141,0.521-0.257H35.17L35.17,23.884z
	 M25.092,24.191c-0.032,0.058-0.091,0.095-0.156,0.101c-0.211,0.109-0.463,0.109-0.675,0c-0.074,0.343-0.235,0.661-0.467,0.924h1.87
	v-0.051c-0.244-0.29-0.438-0.62-0.573-0.976L25.092,24.191z M30.027,24.191c-0.23,0.201-0.561,0.24-0.832,0.101
	c-0.073,0.354-0.255,0.677-0.52,0.924H30.6v-0.051c-0.25-0.286-0.445-0.616-0.574-0.976L30.027,24.191z M34.127,24.292l-0.052,0.257
	h0.055c0.099-0.063,0.203-0.113,0.312-0.154v-0.051c-0.105,0.002-0.211-0.016-0.312-0.052H34.127z"/>
</svg>
