<?xml version="1.0" encoding="utf-8"?>
<!-- Generator: Adobe Illustrator 16.0.0, SVG Export Plug-In . SVG Version: 6.00 Build 0)  -->
<!DOCTYPE svg PUBLIC "-//W3C//DTD SVG 1.1//EN" "http://www.w3.org/Graphics/SVG/1.1/DTD/svg11.dtd">
<svg version="1.1" id="Layer_1" xmlns="http://www.w3.org/2000/svg" xmlns:xlink="http://www.w3.org/1999/xlink" x="0px" y="0px"
	 width="40px" height="40px" viewBox="0 0 40 40" enable-background="new 0 0 40 40" xml:space="preserve">
<path id="jp_st_b1_ico" fill="#FFFFFF" d="M10.068,13.227H9.977v-0.181h0.091v-0.2c0.2,0.009,0.321-0.016,0.523-0.022V12.75
	c0.078-0.039,0.164-0.054,0.25-0.046c0.025,0.033,0.041,0.073,0.046,0.114c0.5,0,0.927,0.022,1.432,0.023V12.75h0.023
	c0.079,0.066,0.194,0.066,0.273,0c0,0.114-0.012,0.094,0.136,0.091c0.017-0.051,0.024-0.105,0.023-0.159h0.068v0.136
	c0.075,0.125,0.226,0.182,0.364,0.136c0.248,0.04,0.5,0.048,0.75,0.023c0.483,0.05,0.969,0.073,1.455,0.068
	c0.522,0.047,1.144,0.023,1.7,0.023c-0.007,0.205-0.015,0.41-0.023,0.614h0.091v0.8h0.159c0.035,0.114,0.097,0.217,0.182,0.3
	c-0.009-0.062,0-0.125,0.023-0.182c0,0.13,0.015,0.259,0.045,0.386h0.091c0.224-0.047,0.454-0.063,0.682-0.046l1.523-0.023v0.068
	l0.916,0.038c0.024-0.123,0.054-0.245,0.091-0.364c0.027-0.017,0.06-0.025,0.092-0.023c0.011,0.025,0.025,0.048,0.045,0.068
	c-0.021,0.105-0.021,0.213,0,0.318c0.215,0.073,0.515,0.007,0.75,0.091c0.115,0.126,0.254,0.228,0.408,0.3
	c0.103-0.137,0.296-0.166,0.433-0.063c0.017,0.012,0.031,0.025,0.045,0.041c0.022,0.086,0.052,0.17,0.091,0.25
	c0.119,0.074,0.25,0.127,0.387,0.159l0.199,0.023l0.023,0.068c0.125,0.053,0.254,0.099,0.386,0.136
	c0.136,0.011,0.264,0.067,0.364,0.159c0.021,0.042,0.021,0.093,0,0.136h0.477c0.361,0.05,0.729,0.058,1.092,0.022
	c0.965,0,1.899,0.048,2.799,0.023v-0.25c0.131,0.017,0.059,0.038,0.114,0.068h2v-0.071h0.091c0.021,0.089,0.029,0.181,0.023,0.272
	l0.341-0.022v0.091l7.974,0.045v-0.068h0.932c0.037,0.217,0.045,0.439,0.023,0.659c-0.316,0.05-0.638,0.058-0.955,0.023
	c-0.16-0.063-0.333-0.078-0.5-0.045h-1.455l-6.023,0.023V17.2H31c-0.139-0.02-0.279-0.003-0.409,0.046
	c-0.571-0.083-1.151-0.099-1.727-0.046c-0.101,0-0.362,0.055-0.386,0.046V17.2c-0.178-0.053-0.363-0.068-0.547-0.045
	c-0.497,0.063-1,0.079-1.5,0.045l-2.317,0.023v0.045c0.021,0.051,0.021,0.108,0,0.159c-0.149,0.089-0.286,0.196-0.409,0.318
	c-0.246,0.095-0.514,0.118-0.773,0.067c-0.006,0.134-0.199,0.17-0.227,0.342c0.136-0.02,0.273-0.02,0.409,0
	c0.046-0.19,0.294-0.147,0.522-0.137c0.025-0.037,0.07-0.055,0.114-0.045c0.149,0.158,0.352,0.255,0.567,0.273
	c0.02-0.129,0.092-0.245,0.201-0.318c0.027,0.02,0.059,0.034,0.09,0.047c-0.039,0.108-0.055,0.225-0.045,0.34
	c0.006,0.01,0.014,0.018,0.023,0.023c0.156,0.036,0.316,0.051,0.477,0.045c-0.008-0.111,0.072-0.211,0.183-0.227
	c0.013,0.012,0.028,0.021,0.046,0.022v0.159c-0.018,0.027-0.025,0.059-0.023,0.091h0.2v-0.064h0.2v0.182h0.03
	c0.071-0.04,0.133-0.094,0.182-0.159c0.034-0.05,0.033-0.152,0.068-0.199c0.239-0.053,0.485-0.061,0.727-0.023
	c-0.013,0.193-0.021,0.434-0.022,0.659h-0.131l-0.068,0.317c0.111,0.014,0.163,0.053,0.273,0.068
	c0.046-0.238,0.277-0.395,0.516-0.348c0.01,0.002,0.02,0.004,0.029,0.007c0.172,0.2,0.356,0.253,0.199,0.614h0.433
	c0.034-0.02,0.074-0.027,0.114-0.023v-0.05c0.057-0.121,0.088-0.253,0.09-0.386h0.75v0.045c-0.002,0.084,0.006,0.168,0.023,0.25
	H28.8V19.5c0.29,0.09,0.565,0.219,0.818,0.386c0.112,0.026,0.216,0.081,0.3,0.159c0.015,0.02,0.023,0.043,0.023,0.068
	c-0.143,0.16-0.236,0.357-0.273,0.568c0.176,0.076,0.297,0.241,0.318,0.432c-0.076,0.024-0.075,0.025-0.092,0.113
	c0.055,0.064,0.057,0.188,0.114,0.25c-0.028,0.051-0.087,0.021-0.067,0.137c0.035,0.071,0.058,0.148,0.067,0.227
	c-0.041,0.059-0.079,0.119-0.114,0.182c-0.029,0.101,0,0.215-0.022,0.25c-0.112,0.078-0.179,0.205-0.183,0.342
	c-0.15,0.058-0.271,0.172-0.34,0.318c-0.162-0.08-0.227,0.135-0.342,0.158c-0.121,0.01-0.238,0.049-0.341,0.114
	c-0.067,0.046-0.222,0.033-0.3,0.091l-0.023,0.091c-0.102,0.004-0.201,0.02-0.3,0.046l-0.091,0.113
	c-0.094,0.047-0.241-0.087-0.301,0.114c-0.16,0.005-0.314,0.07-0.432,0.182H27.2c-0.031-0.061-0.11-0.034-0.183,0
	c-0.033,0.036-0.063,0.073-0.091,0.114c-0.053-0.006-0.106-0.006-0.159,0c-0.068,0.024-0.136,0.055-0.199,0.091l-0.023,0.068
	c-0.046,0.021-0.061-0.039-0.091-0.046c-0.062,0.021-0.127,0.072-0.2,0.092v0.068c-0.137-0.003-0.271,0.037-0.386,0.113v0.045
	c-0.084,0.002-0.167,0.01-0.25,0.023c-0.036,0.033-0.066,0.072-0.091,0.113c-0.146-0.001-0.285,0.057-0.387,0.16
	c-0.06,0.023-0.048-0.056-0.091-0.045c-0.043,0.01-0.132,0.071-0.2,0.09V24.8c-0.148,0.019-0.293,0.057-0.432,0.114
	c-0.105-0.014-0.213-0.014-0.318,0l-0.022,0.068c-0.058,0.029-0.226-0.073-0.341-0.047c-0.042,0.024-0.088,0.04-0.137,0.047
	c-0.083-0.046-0.18-0.063-0.272-0.047c-0.025,0.011,0.008,0.057-0.068,0.047c-0.072-0.029-0.149-0.045-0.227-0.047
	c-0.204,0.029-0.411,0.029-0.614,0c-0.094-0.009-0.188,0.007-0.273,0.047c-0.102-0.034-0.209-0.05-0.317-0.047l-0.022,0.047
	c-0.049-0.006-0.096-0.021-0.137-0.047c-0.114,0.008-0.229,0.023-0.341,0.047L21.3,24.909c-0.103,0.008-0.204,0.03-0.3,0.067
	l-0.091-0.045c-0.103-0.01-0.206,0.006-0.3,0.045c-0.061,0.008-0.043-0.037-0.068-0.045c-0.086-0.018-0.175-0.001-0.25,0.045
	c-0.05,0.004-0.099-0.013-0.136-0.045c-0.115,0.004-0.229,0.019-0.341,0.045c-0.364-0.082-0.852,0.039-1.182-0.045
	c-0.114,0.008-0.229,0.022-0.341,0.045l-0.023-0.067c-0.087,0.007-0.171,0.03-0.25,0.067c-0.048-0.005-0.094-0.021-0.136-0.045
	c-0.114,0.008-0.229,0.022-0.341,0.045l-0.023-0.067c-0.103,0.007-0.204,0.03-0.3,0.067l-0.091-0.045
	c-0.102-0.01-0.205,0.006-0.3,0.045c-0.101-0.039-0.21-0.055-0.318-0.045v0.045h-0.054c-0.095-0.039-0.198-0.055-0.3-0.045
	c-0.038,0.031-0.087,0.047-0.136,0.045v-0.045c-0.094-0.018-0.19-0.002-0.273,0.047H15.7c-0.087-0.035-0.18-0.051-0.273-0.047
	c-0.042,0.024-0.088,0.04-0.136,0.047c-0.367-0.082-0.853,0.039-1.182-0.047c-0.115,0.006-0.229,0.021-0.341,0.047l-0.023-0.047
	c-0.086-0.014-0.174,0.003-0.25,0.047c-0.048-0.006-0.095-0.021-0.136-0.047c-0.102-0.01-0.205,0.007-0.3,0.047h-0.036L13,24.932
	c-0.086-0.017-0.175,0-0.25,0.047h-0.068l-0.068-0.047c-0.114,0.001-0.228,0.009-0.341,0.023l-0.023-0.023
	c-0.086-0.017-0.175,0-0.25,0.047c-0.081,0.034-0.216-0.066-0.341-0.047c-0.048,0.031-0.103,0.047-0.159,0.047
	c-0.074-0.047-0.164-0.064-0.25-0.047c-0.027,0.01-0.008,0.051-0.068,0.047c-0.025,0-0.1-0.043-0.136-0.047
	c-0.111-0.01-0.226,0.067-0.3,0.047l-0.023-0.068c-0.087,0.007-0.171,0.03-0.25,0.068c-0.048-0.006-0.095-0.021-0.136-0.047
	c-0.114,0.008-0.229,0.023-0.341,0.047L9.973,24.91c0,0-0.225,0.013-0.25,0.023v0.045c-0.068,0.029-0.218-0.073-0.341-0.045
	c-0.037,0.018-0.075,0.033-0.114,0.045H9.25v-0.023l-0.023-0.023c-0.086-0.017-0.175,0-0.25,0.047
	c-0.081,0.034-0.216-0.066-0.341-0.047c-0.188,0.028-0.379,0.028-0.568,0c-0.102-0.009-0.205,0.007-0.3,0.047
	c-0.064,0.008-0.018-0.033-0.045-0.047c-0.094-0.018-0.19-0.001-0.273,0.047c-0.048-0.006-0.095-0.021-0.136-0.047
	C7.19,24.9,7.042,25.008,6.973,24.979L6.95,24.91c-0.114-0.008-0.228-0.008-0.341,0c-0.042-0.039-0.086-0.076-0.132-0.11
	c-0.091-0.019-0.184-0.027-0.277-0.026l-0.023-0.092c-0.085-0.039-0.179-0.054-0.273-0.045c-0.032-0.013-0.1-0.113-0.136-0.136
	c-0.076-0.044-0.164-0.06-0.25-0.046c-0.051-0.076-0.12-0.139-0.2-0.182L5.2,24.3c-0.032-0.018-0.078-0.112-0.114-0.136
	c-0.07-0.046-0.207-0.027-0.273-0.068c0.013-0.029,0.013-0.062,0-0.091c-0.051-0.034-0.104-0.063-0.159-0.091L4.54,23.938v-0.052
	c-0.057-0.05-0.118-0.096-0.182-0.136c-0.056-0.029-0.121-0.038-0.182-0.023c-0.051-0.064-0.143-0.258-0.273-0.158
	c-0.068-0.075-0.144-0.143-0.227-0.2L3.5,23.341c0.013-0.028,0.013-0.062,0-0.091c-0.051-0.033-0.104-0.064-0.159-0.091
	l-0.114,0.022C3.215,23.175,3.2,23.1,3.182,23.091c-0.098-0.077-0.217-0.124-0.341-0.136v-0.091c-0.065-0.043-0.1-0.116-0.159-0.159
	c-0.035,0.021-0.079,0.021-0.114,0C2.555,22.641,2.532,22.58,2.5,22.523L1.591,22.5c-0.32-0.479,0.078-0.581,0.614-0.568v-0.046
	L2,21.546L1.614,21.5c-0.004-0.129,0.003-0.258,0.023-0.386L1.5,21l-0.2-0.046c-0.019-0.026-0.026-0.06-0.023-0.091
	c0.042-0.156,0.05-0.318,0.023-0.478c-0.255,0.058-0.519-0.052-0.659-0.272c-0.2-0.252,0.1-0.413,0.159-0.523v-0.199H0.75
	c0,0.092,0.012,0.123-0.045,0.158v-0.185H0.614c-0.034-0.126-0.049-0.256-0.045-0.386c0.025-0.015,0.042-0.04,0.045-0.068H0.591
	c-0.122,0.067-0.251,0.121-0.386,0.158c0.002-0.042-0.026-0.08-0.068-0.09C0.095,19.008,0.049,19.031,0,19.046V19
	c0.056-0.016,0.109-0.039,0.159-0.068l-0.045-0.091c0.242-0.058,0.466-0.253,0.7-0.317l0.136,0.022
	c0.172-0.071,0.339-0.155,0.5-0.25c0.035-0.038,0.059-0.085,0.068-0.136H1.455v-0.069c0.088-0.028,0.18-0.043,0.273-0.045
	c0.002-0.031,0.01-0.062,0.023-0.091c-0.1-0.012-0.118-0.018-0.136-0.114c0.093-0.077,0.127-0.204,0.085-0.317
	c0.322-0.059,0.649-0.082,0.977-0.068c0.015,0.02,0.023,0.043,0.023,0.068h1.277c-0.065,0.117-0.082,0.256-0.045,0.386
	c0.052,0.041,0.116,0.064,0.182,0.067v-0.112h0.521c0.042-0.2,0.235-0.171,0.477-0.159l0.023,0.068
	c0.017,0.027,0.025,0.059,0.023,0.091H5.3v-0.046c0.304-0.012,0.608,0.004,0.909,0.045v-0.09c0.21-0.074,0.434-0.1,0.655-0.073
	c0.031,0.046,0.047,0.103,0.045,0.159H7.3v-0.041c0.229-0.024,0.459-0.009,0.682,0.045V17.75c0.145-0.048,0.298-0.064,0.45-0.05
	c0.032,0.046,0.047,0.103,0.045,0.159h0.159v-0.041c0.16-0.03,0.326-0.015,0.477,0.045h0.5l0.023-0.114
	c0.229-0.058,0.466-0.073,0.7-0.046c0.032,0.047,0.048,0.103,0.046,0.159h0.636l0.023-0.136c0.142-0.027,0.288-0.035,0.432-0.023
	c0.022,0.079,0.101,0.129,0.182,0.113c0.171-0.043,0.351-0.043,0.522,0c0.02,0.028,0.035,0.059,0.045,0.092
	c0.022,0.05,0.03,0.104,0.023,0.158l0.977,0.046v-0.066c-0.205-0.135-0.283-0.429-0.477-0.568c-0.353-0.195-0.738-0.325-1.136-0.386
	L11,17.046c-0.082-0.018-0.67-0.141-0.682-0.136l-0.023,0.068l-1.227-0.136c-0.018-0.1-0.026-0.181-0.045-0.25
	c-0.175-0.08-0.336-0.187-0.477-0.318c0.012-0.012,0.021-0.028,0.023-0.045c0.059-0.02,0.12-0.029,0.181-0.029
	c0.187,0.052,0.386,0.044,0.568-0.023C9.37,16.128,9.409,16.067,9.432,16H9.364c-0.064,0.055-0.144,0.086-0.227,0.091L9.068,16
	c0.214-0.158,0.1-0.28,0.523-0.273c0.012-0.014,0.028-0.023,0.045-0.027c0.044-0.078,0.035-0.125,0.068-0.182
	c0.021-0.013,0.044-0.02,0.069-0.018c0.298,0.111,0.624,0.127,0.932,0.046c0.154-0.04,0.319-0.016,0.455,0.068
	c-0.019,0.011-0.035,0.026-0.046,0.045h0.114v-0.3c0.229,0.043,0.466,0.019,0.682-0.068c-0.36-0.322-0.701-0.663-1.023-1.023
	c-0.981-0.742-1.769-1.713-2.75-2.455c-0.255-0.193-0.45-0.489-0.7-0.682c-0.452-0.342-0.82-0.772-1.273-1.114l-0.2-0.227
	c-0.182-0.138-0.324-0.321-0.5-0.455C5.314,9.246,5.181,9.132,5.068,9h0.046c0.097,0.117,0.212,0.218,0.341,0.3
	c0.3,0.23,0.554,0.539,0.864,0.773c0.14,0.105,0.246,0.281,0.386,0.386C7.413,10.99,8,11.669,8.7,12.2
	c0.3,0.23,0.554,0.539,0.864,0.773c0.142,0.17,0.311,0.316,0.5,0.432v-0.178H10.068z M14.523,13.25
	c-0.019,0.074,0.011,0.035-0.045,0.068V13.3h-0.023c0.004,0.04-0.004,0.08-0.023,0.114V13.3H14.2
	c0.002,0.032-0.006,0.064-0.023,0.091V13.3c-0.44-0.016-0.881,0.007-1.318,0.068v0.477h0.273c0.043,0.033,0.082,0.071,0.114,0.114
	c0.065,0.206,0.081,0.423,0.046,0.636h-0.133v0.25h0.068v0.068c0.152-0.007,0.304,0.001,0.455,0.023c0,0.1,0,0.125,0.068,0.159
	c0.109-0.041,0.226-0.056,0.341-0.045v-0.027h0.023v-0.3c0.069-0.099,0.163-0.177,0.273-0.227c-0.054-0.109-0.026-0.241,0.068-0.318
	c0.12-0.02,0.242-0.028,0.364-0.022c0.433-0.099,0.88-0.114,1.318-0.045c0.092,0.085,0.193,0.161,0.3,0.227v-0.36h0.25
	c-0.016-0.241-0.044-0.487-0.045-0.773L14.523,13.25z M13.932,13.45c0.046-0.006,0.094,0.002,0.136,0.023
	c-0.046,0.007-0.093,0.001-0.136-0.018V13.45z M14.568,13.45c0.047-0.006,0.094,0.002,0.136,0.023
	c-0.046,0.007-0.094,0.001-0.136-0.018V13.45z M14.75,13.5c0.027,0.033,0.027,0.081,0,0.114V13.5z M13.864,13.614h0.886v0.022
	h-0.023C14.44,13.686,14.147,13.678,13.864,13.614z M1.25,20.977c0.012,0.013,0.021,0.028,0.023,0.045H1.25V20.977z M1.2,21.068
	c0.012,0.012,0.02,0.027,0.023,0.045H1.2V21.068z M1.177,21.159C1.188,21.17,1.196,21.185,1.2,21.2H1.182v-0.041H1.177z
	 M1.154,21.227c0.015,0.02,0.023,0.044,0.023,0.068H1.159v-0.068H1.154z M1.131,21.363c0.031,0.063,0.031,0.137,0,0.199V21.363z"/>
</svg>
