<?xml version="1.0" encoding="utf-8"?>
<!-- Generator: Adobe Illustrator 16.0.0, SVG Export Plug-In . SVG Version: 6.00 Build 0)  -->
<!DOCTYPE svg PUBLIC "-//W3C//DTD SVG 1.1//EN" "http://www.w3.org/Graphics/SVG/1.1/DTD/svg11.dtd">
<svg version="1.1" id="Layer_1" xmlns="http://www.w3.org/2000/svg" xmlns:xlink="http://www.w3.org/1999/xlink" x="0px" y="0px"
	 width="39.969px" height="40px" viewBox="0 0 39.969 40" enable-background="new 0 0 39.969 40" xml:space="preserve">
<path id="jp_type_87_ico" fill="#FFFFFF" d="M13.029,13.023c0.007-0.261-0.115-0.508-0.328-0.66c-0.028-0.042-0.028-0.097,0-0.138
	c-0.108-0.2-0.249-0.4-0.356-0.6c-0.49-0.939-0.858-1.935-1.342-2.859c-0.14-0.268-0.254-0.544-0.383-0.8l-0.051-0.194
	c-0.067-0.071-0.243-0.058-0.3-0.137v-0.88c0.044-0.075-0.063-1.059,0.027-1.32h-0.087c0.025-0.239,0.034-0.479,0.027-0.719h0.333
	v0.44c0.253-0.017,0.503-0.072,0.739-0.165c0.372-0.078,0.74-0.179,1.1-0.3v0.084c0.128,0.003,0.244,0.077,0.3,0.192
	c0.13,0.24,0.13,0.53,0,0.77c-0.093,0.061-0.194,0.106-0.3,0.137c-0.023,0.089,0.014,0.042-0.055,0.082
	c-0.265-0.158-0.567-0.243-0.876-0.247v0.055l0.465,0.11c0.037,0.208,0.046,0.421,0.027,0.632c0.015,0.082,0.024,0.164,0.027,0.247
	c-0.089,0.023-0.042-0.013-0.082,0.055c0.27,0.241,0.385,0.61,0.3,0.962c-0.067,0.036-0.143,0.055-0.219,0.055v1.072
	c0.088,0.27,0.3,0.541,0.411,0.8c0.177,0.511,0.446,0.985,0.794,1.4l0.356,0.412h0.739v-0.11h-0.144v-0.053
	c-0.001-0.147,0.008-0.294,0.027-0.439c0-0.521,0.072-0.926,0.082-1.375c-0.198-0.279-0.258-0.633-0.164-0.962
	c0.135-0.093,0.247-0.215,0.329-0.357c0.08-0.028,0.162-0.047,0.246-0.055c0.109-0.122,0.252-0.208,0.411-0.247V7.8h0.52v0.11h0.438
	v0.192l0.11,0.027c0.08-0.369,0.238-0.716,0.465-1.017c0.049,0.007,0.096,0.026,0.137,0.055c0.414,0.427,0.246,2.219,0.246,3.079
	c0,0.4-0.062,0.975-0.411,0.99c-0.08-0.313-0.347-0.542-0.438-0.825V9.834h-0.054v0.11h-0.164c-0.065,0.49-0.019,0.988,0.137,1.457
	h0.082v0.11h0.137c0.157,0.137,0.23,0.346,0.192,0.55h0.055c0.02-0.1,0.034-0.068,0.055-0.165h0.11v0.11l3.121,0.055v-0.245
	c0.402-0.052,0.809-0.024,1.2,0.082c0.131,0.247,0.42,0.363,0.685,0.275l-0.027,0.55c0.118,0.105,0.246,0.197,0.384,0.275V12.94
	c0.049-0.207,0.058-0.421,0.026-0.632c0.435-0.067,0.877-0.076,1.313-0.027c0.477,0.107,0.967,0.135,1.451,0.082
	c0.002-0.065,0.011-0.13,0.027-0.193l0.09-0.027c0.154-0.067,0.332-0.046,0.465,0.055c0.01,0.07,0.039,0.137,0.082,0.193
	c-0.012-0.147-0.003-0.295,0.027-0.44l0.082,0.027v0.275h0.109c0.074-0.114,0.104-0.251,0.082-0.385
	c0.016-0.015,0.024-0.034,0.027-0.055h0.025c0.123,0.046,0.252,0.074,0.383,0.082l0.055,0.192h0.055v-0.384h-0.192
	c0.002-0.13,0.021-0.26,0.056-0.385h0.629c0.031,0.07,0.051,0.144,0.056,0.22c0.024,0.051,0.034,0.108,0.026,0.165h-0.19
	c0,0.4,0.017,0.823,0.026,1.182c0.074,0.043,0.16,0.063,0.246,0.055c0.162-0.042,0.332-0.042,0.493,0
	c-0.001,0.03,0.009,0.059,0.027,0.083c0.34,0.009,0.679,0.046,1.013,0.11c0.426-0.023,0.854,0.033,1.26,0.165l2.025,0.192
	l0.333,0.962h0.521c0.509,0.05,1.021,0.059,1.533,0.027c0.807,0,1.356,0.028,2.107,0.027c0.342-0.069,0.692-0.087,1.04-0.055
	c0.077,0.034,0.161,0.053,0.246,0.055c-0.008-0.075-0.026-0.149-0.056-0.22c0.61,0,0.981,0,1.533,0c0.273-0.026,0.549-0.026,0.821,0
	c0.057,0.253,0.065,0.514,0.026,0.77c-0.793-0.053-1.588-0.063-2.381-0.027c0.026-0.071,0.045-0.145,0.055-0.22
	c-0.085,0.002-0.168,0.021-0.246,0.055c-0.238,0.042-0.483,0.022-0.712-0.055h-0.959c-0.354,0.044-0.712,0.053-1.068,0.027
	l-2.3,0.027c0.087,0.679,0.55,1.242,0.656,1.924c-0.17,0.311-0.415,0.575-0.711,0.77c-0.081,0.018-0.164,0.026-0.246,0.027
	c-0.243,0.061-0.5,0.113-0.768,0.191c-0.418,0.127-0.876,0.188-1.313,0.33c-0.274,0.105-0.56,0.179-0.849,0.221l0.026,0.412
	c0.569,0,1.169-0.006,1.615,0.027v0.109h0.3l0.027-0.159c0.168-0.056,0.346-0.073,0.521-0.055c0.111,0.1,0.165,0.007,0.164,0.247
	h0.356l0.026,0.082c0.115,0.062,0.523,0.008,0.657,0.055v0.081l1.04,0.082v0.33h0.026c0.092-0.097,0.227-0.139,0.356-0.11
	c0.171,0.079,0.278,0.252,0.274,0.44c0.197,0.043,0.398,0.062,0.6,0.055v0.027h-0.021c-0.053,0.021,0.056,0.026,0.056,0.026
	c0.177-0.064,0.371-0.064,0.548,0c0.035,0.095,0.091,0.18,0.164,0.248c-0.02-0.076,0.015-0.154,0.082-0.192
	c-0.021,0.101-0.013,0.205,0.027,0.3c0.057-0.039,0.123-0.059,0.191-0.055c0,0.087-0.033,0.065,0.082,0.082
	c0.155,0.1,0.457,0.051,0.6,0.164c-0.026,0.053-0.026,0.113,0,0.166c0.177,0.088,0.334,0.209,0.466,0.356v0.138
	c-0.038,0.084-0.106,0.152-0.192,0.191c-0.193,0.033-0.392,0.015-0.574-0.055c-0.107,0.168-0.182,0.354-0.22,0.55
	c0.095,0.104,0.169,0.226,0.22,0.356c0.022,0.031,0.119,0.056,0.137,0.082v0.056c-0.004,0.093,0.006,0.185,0.027,0.274
	c0.04,0.063,0.076,0.126,0.109,0.192c0.025,0.163-0.145,0.245,0.027,0.44c-0.131,0.162-0.189,0.37-0.164,0.576h-0.107
	c-0.123,0.273-0.289,0.523-0.492,0.742c-0.222-0.07-0.257,0.107-0.384,0.192c-0.101,0.011-0.201,0.029-0.3,0.055
	c-0.039,0.021-0.1,0.12-0.137,0.138c-0.112-0.005-0.225,0.014-0.328,0.055c-0.015,0.038-0.033,0.075-0.055,0.109
	c-0.035-0.016-0.072-0.025-0.11-0.027c-0.14,0.033-0.265,0.111-0.356,0.221c-0.097-0.049-0.213-0.039-0.3,0.027l-0.026,0.109
	c-0.093,0-0.185,0.009-0.274,0.027c-0.063,0.059-0.138,0.105-0.22,0.137c-0.127-0.032-0.258,0.04-0.299,0.165
	c-0.181,0.001-0.352,0.081-0.466,0.22l-0.164-0.026c-0.242,0.112-0.472,0.25-0.684,0.411c-0.066-0.031-0.048-0.055-0.11-0.026
	c-0.078,0.005-0.148,0.046-0.191,0.11c-0.057,0.045,0.019,0.031-0.056,0.055c-0.152-0.006-0.297,0.066-0.383,0.193
	c-0.039,0.022-0.117-0.051-0.192-0.027c-0.088,0.055-0.17,0.119-0.246,0.191c-0.049,0.025-0.166-0.043-0.246-0.026
	c-0.098,0.042-0.197,0.079-0.299,0.11l-0.027-0.056c-0.275-0.012-0.551,0.007-0.821,0.056c-0.112-0.049-0.234-0.067-0.356-0.056
	v0.056h-0.088c-0.094-0.042-0.197-0.061-0.3-0.056c-0.061,0.028-0.125,0.048-0.192,0.056l-0.026-0.056
	c-0.104-0.017-0.209,0.003-0.3,0.056c-0.164-0.019-0.328-0.027-0.493-0.027v0.027h-0.056l-0.026-0.056
	c-0.104-0.017-0.209,0.003-0.3,0.056h-0.059v-0.021c-0.174-0.033-0.4,0.049-0.494,0.027l-0.026-0.055
	c-0.104-0.018-0.21,0.002-0.3,0.055h-0.057v-0.027c-0.173-0.032-0.399,0.049-0.492,0.027c-0.092-0.051-0.197-0.07-0.301-0.055
	c-0.033,0.01-0.01,0.059-0.082,0.055c-0.104-0.041-0.216-0.059-0.328-0.055c-0.05,0.028-0.105,0.047-0.164,0.055
	c-0.084-0.045-0.179-0.063-0.273-0.055c-0.031,0.027-0.068,0.047-0.109,0.055c-0.017,0-0.142-0.051-0.164-0.055
	c-0.134-0.021-0.263,0.084-0.356,0.055c-0.065-0.043-0.142-0.063-0.22-0.055c-0.1,0.008-0.059,0.058-0.137,0.055
	c-0.097-0.033-0.197-0.051-0.3-0.055c-0.235,0.037-0.476,0.037-0.712,0c-0.112-0.008-0.225,0.011-0.329,0.055
	c-0.073,0.009-0.05-0.045-0.082-0.055c-0.103-0.018-0.209,0.002-0.3,0.055c-0.164-0.019-0.328-0.027-0.493-0.027v0.027h-0.058
	l-0.027-0.055c-0.121-0.01-0.243,0.009-0.355,0.055c-0.105-0.041-0.217-0.059-0.33-0.055c-0.05,0.028-0.105,0.047-0.164,0.055
	c-0.083-0.045-0.179-0.063-0.273-0.055c-0.022,0.014-0.041,0.032-0.055,0.055h-0.027c-0.039,0,0.011-0.021-0.027-0.027
	c-0.178-0.033-0.359,0.055-0.493,0.028l-0.027-0.056c-0.121-0.01-0.243,0.01-0.356,0.056l-0.137-0.056
	c-0.103-0.007-0.206,0.012-0.3,0.056c-0.073,0.01-0.05-0.044-0.082-0.056c-0.104-0.016-0.209,0.004-0.3,0.056h-0.057v-0.028
	c-0.173-0.032-0.4,0.049-0.493,0.027l-0.027-0.055c-0.104-0.018-0.209,0.002-0.3,0.055c-0.067-0.008-0.132-0.026-0.192-0.055
	c-0.103-0.008-0.206,0.011-0.3,0.055h-0.085v-0.055c-0.104-0.023-0.212-0.004-0.3,0.056c-0.086,0.038-0.247-0.087-0.383-0.056
	c-0.061,0.029-0.125,0.047-0.192,0.056c-0.427-0.101-0.988,0.043-1.4-0.056c-0.12,0.012-0.239,0.03-0.356,0.056l-0.027-0.056
	c-0.103-0.016-0.209,0.004-0.3,0.056h-0.053v-0.028c-0.172-0.032-0.4,0.049-0.493,0.027c-0.434-0.101-0.989,0.045-1.4-0.055
	c-0.155-0.039-0.269,0.1-0.383,0.055v-0.055c-0.104-0.023-0.212-0.003-0.3,0.056c-0.086,0.036-0.247-0.085-0.383-0.056
	c-0.061,0.029-0.125,0.047-0.192,0.056l-0.027-0.056c-0.095-0.02-0.194,0.001-0.274,0.056h-0.08l-0.11-0.056
	c-0.111-0.028-0.326,0.055-0.383,0.027l-0.027-0.082c-0.08-0.026-0.163-0.045-0.246-0.055c-0.041,0.027-0.088,0.047-0.137,0.055
	l-0.028-0.083c-0.044-0.021-0.09-0.039-0.137-0.055c-0.095-0.042-0.2-0.051-0.3-0.027c-0.107-0.11-0.2-0.226-0.356-0.138
	c-0.076-0.046-0.333-0.313-0.465-0.192c-0.064-0.091-0.148-0.166-0.246-0.22c-0.032,0.023-0.071,0.033-0.11,0.027
	c-0.034-0.048-0.071-0.094-0.11-0.138c-0.075-0.046-0.27-0.038-0.331-0.083c-0.042-0.029-0.058-0.132-0.11-0.164
	c-0.08-0.023-0.163-0.033-0.246-0.029v-0.053c-0.105-0.115-0.256-0.176-0.411-0.166c-0.048-0.094-0.125-0.172-0.219-0.22
	l-0.137,0.027c-0.05-0.077-0.116-0.142-0.192-0.192C6,25.148,5.845,25.139,5.689,25.146c-0.034-0.014-0.067-0.084-0.027-0.109
	C5.539,24.973,5.444,24.97,5.333,24.9c-0.222-0.142-0.37-0.395-0.575-0.551c-0.294-0.224-0.568-0.472-0.821-0.742l-0.383,0.082
	c0.041,0.178-0.011,0.364-0.137,0.496c-0.097,0.063-0.213,0.093-0.329,0.082c-0.017-0.044-0.025-0.09-0.027-0.138
	c0.13,0.007,0.251-0.071,0.3-0.192c-0.116-0.148-0.173-0.334-0.161-0.521c0.057-0.055,0.103-0.12,0.137-0.191
	c-0.116,0.031-0.236-0.038-0.267-0.154c-0.003-0.013-0.006-0.025-0.007-0.038c0.1-0.063-0.015-0.286-0.082-0.357
	c-0.031,0.029-0.079,0.029-0.11,0H2.844c-0.037-0.435-0.138-0.86-0.3-1.265c-0.009-0.102-0.027-0.202-0.055-0.301
	c-0.054-0.041-0.092-0.1-0.11-0.164c-0.079,0.025-0.163,0.034-0.246,0.027H2.105v-0.033c0.139-0.033,0.258-0.122,0.329-0.246H0.079
	v-1.377l-0.082-0.027c0.004-0.129,0.022-0.258,0.054-0.383c0.659,0,1.376,0.021,2,0.027c0.032-0.228,0.049-0.289,0.329-0.275
	c0.147,0.063,0.312,0.073,0.465,0.027c0.029-0.037,0.067-0.066,0.11-0.084c0-0.3,0.039-0.432,0.027-0.742c1.029,0,2.134,0,3.2,0
	c0,0.154,0.027,0.801,0.027,0.801c0.39,0.059,0.787,0.059,1.177,0c0.006-0.084,0.025-0.166,0.057-0.244l1.013-0.027
	c0.057,0.063,0.121,0.119,0.192,0.165c0.324,0.05,0.654,0.011,0.958-0.11h0.9v0.11h0.027v0.022c0.031-0.012,0.059-0.031,0.082-0.055
	c0.015,0.078,0.083,0.135,0.164,0.137c0.31-0.101,0.64-0.119,0.958-0.055c0.029,0.06,0.078,0.107,0.137,0.138
	c0.174-0.077,0.374-0.077,0.548,0v-0.11c0.217-0.039,0.438-0.048,0.657-0.027v-0.027h0.027l0.055-0.412h0.164l0.082,0.439
	c0.173-0.014,0.347-0.014,0.52,0v-0.027h0.032l0.055-0.412h0.164v0.027h0.027l0.027,0.356c0.032,0.032,0.069,0.061,0.109,0.083
	c0.04-0.068,0.012-0.042,0.11-0.055v0.055c0.02,0.033,0.029,0.071,0.027,0.11c0.065-0.032,0.122-0.079,0.164-0.138h0.493
	c0.193,0.152,0.447,0.204,0.684,0.138h1.78c0.006,0.011,0.016,0.021,0.027,0.026v0.082h0.11v0.082h0.137v-0.19
	c0.107,0,0.123,0.014,0.164-0.056c-0.236-0.07-0.465-0.162-0.684-0.274c-0.272-0.116-0.52-0.161-0.794-0.275
	c-0.255-0.105-0.557-0.274-0.821-0.356h-2.269v0.137h-0.11v-0.055c-0.018-0.091-0.018-0.185,0-0.275h-0.276v-0.577
	c-0.306,0-0.638-0.008-0.9-0.026c-0.059-0.051-0.114-0.106-0.164-0.166c-0.073-0.145,0.06-0.447-0.027-0.6
	c-0.034-0.02-0.063-0.049-0.082-0.083h0.082c0.022-0.277-0.006-0.557-0.082-0.825h0.082v-0.747c-0.016-0.033-0.107,0.01-0.082-0.082
	c0.038-0.014,0.067-0.044,0.082-0.082c0.033-0.216-0.1-0.551-0.055-0.632c0.213,0.002,0.425-0.026,0.63-0.082h-0.141
	c-0.137-0.063-0.287-0.091-0.438-0.082v-0.057h0.548V13.49c-0.222-0.25-0.422-0.518-0.6-0.8c-0.435-0.6-0.928-1.156-1.369-1.759
	c-0.241-0.33-0.552-0.632-0.794-0.962c-0.883-1.206-1.829-2.34-2.71-3.546c-0.562-0.762-1.194-1.48-1.755-2.252
	C5.004,3.865,4.737,3.523,4.514,3.154h0.082c0.187,0.284,0.397,0.552,0.63,0.8c0.58,0.792,1.232,1.525,1.807,2.309
	C7.249,6.645,7.526,6.989,7.854,7.28V7.195c-0.293-0.309-0.55-0.65-0.767-1.017C6.603,5.5,6.069,4.855,5.582,4.171
	C5.251,3.823,4.966,3.435,4.733,3.016h0.055c0.178,0.258,0.37,0.505,0.575,0.742c0.4,0.54,0.819,1.058,1.2,1.595
	c1.424,1.982,2.972,3.867,4.408,5.828c0.4,0.541,0.819,1.058,1.2,1.595c0.157,0.218,0.339,0.394,0.493,0.6
	c0.021,0.058,0.048,0.113,0.082,0.165h0.547c0.033-0.059,0.052-0.125,0.055-0.192C13.263,13.239,13.315,13.025,13.029,13.023z
	 M11.829,13.683c0.039,0.078,0.039,0.169,0,0.247V13.683z M12.075,14.453h0.324v-0.637h-0.383v0.028
	c0.065,0.196,0.083,0.404,0.053,0.608L12.075,14.453z M12.513,13.821v0.632h0.438c0.018-0.39-0.037-0.65-0.443-0.637L12.513,13.821z
	 M11.856,13.959h0.055v0.027h-0.06v-0.028L11.856,13.959z M11.801,13.986h0.055c0,0.062-0.009,0.052,0.055,0.11
	c-0.014,0.048-0.032,0.094-0.055,0.137c-0.038-0.077-0.059-0.162-0.059-0.248L11.801,13.986z M12.069,14.562v0.742h0.33v-0.742
	H12.069z M12.507,14.562v0.742h0.438v-0.742H12.507L12.507,14.562z M13.054,14.562v0.742h0.192v-0.742h-0.19H13.054z M12.068,15.387
	v0.742h0.331v-0.742H12.068L12.068,15.387z M12.506,15.387v0.742h0.438v-0.742h-0.436H12.506z M13.053,15.387v0.742h0.116v-0.027
	h0.027c0.015-0.222,0.053-0.438,0.055-0.715h-0.195H13.053z M12.069,16.216c-0.006,0.202,0.013,0.403,0.055,0.601
	c0.084,0.051,0.177,0.088,0.274,0.109v-0.71H12.069z M12.507,16.216c0.023,0.239,0.015,0.479-0.027,0.716h0.465v-0.716H12.507
	L12.507,16.216z M37.449,22.594h-0.137c-0.006-0.011-0.016-0.02-0.026-0.027c-0.032-0.299-0.126-0.589-0.274-0.852
	c-0.063-0.066-0.118-0.141-0.164-0.22h0.027c0.293,0.302,0.492,0.683,0.575,1.095L37.449,22.594z"/>
</svg>
