<svg xmlns="http://www.w3.org/2000/svg" width="39.969" height="40" viewBox="0 0 39.969 40">
  <defs>
    <style>
      .cls-1 {
        fill: #fff;
        fill-rule: evenodd;
      }
    </style>
  </defs>
  <path id="jp_type_5_chi_ri_ico" class="cls-1" d="M14.974,15.349h0.207v-0.07H15.5v0.07a0.472,0.472,0,0,0,.23-0.093c0.072-.019.065,0.039,0.092,0.046a0.2,0.2,0,0,0,.161-0.046,0.923,0.923,0,0,1,.207.046v-0.07a0.24,0.24,0,0,1,.138-0.047v0.023h0.023a0.712,0.712,0,0,0,.092.256v0.326H16.331a3.211,3.211,0,0,0,.046.721h0.046a0.407,0.407,0,0,1,.3-0.512,0.5,0.5,0,0,1,.414.14,0.648,0.648,0,0,1-.023.442h0.092v0.093h0.069a0.47,0.47,0,0,0,.092.186,0.759,0.759,0,0,0,.322.07,0.336,0.336,0,0,1,.023-0.116,2.446,2.446,0,0,0,.575.116,0.4,0.4,0,0,0,.023.14,0.151,0.151,0,0,1,.161,0V17l0.115,0.023c0.007-.106.01-0.11,0.092-0.14a0.686,0.686,0,0,1,.506.14c0.012,0.019.047,0.1,0,.116L19.3,17.163c0.025,0.023-.042.037,0.023,0.07a0.893,0.893,0,0,1,.184.046v-0.07h0.046a1.042,1.042,0,0,1,.529.093,0.2,0.2,0,0,1,.023.116,14.019,14.019,0,0,1,2.231.372,3.4,3.4,0,0,1,.9.186,1.02,1.02,0,0,1,.069.3h1.4a1.433,1.433,0,0,1,.529-0.023c0.434,0,.73-0.049,1.15-0.047a1.934,1.934,0,0,1,.138.14v0.6a0.46,0.46,0,0,0-.138.14h0.552a8.06,8.06,0,0,0,1.1.047,14.205,14.205,0,0,0,2.645.093h3.427a10.241,10.241,0,0,1,1.955.07h1.2c0.921,0,1.847-.023,2.737-0.023v0.558c-2.818,0-5.5.047-8.3,0.047H28.361a0.328,0.328,0,0,1-.046.07H27.786a8.1,8.1,0,0,1-1.5.07v0.442H26.245a4.128,4.128,0,0,0-.759,0H23.669v0.023a0.947,0.947,0,0,1,.069.326,1.869,1.869,0,0,0-.713.349,0.374,0.374,0,0,1,.046.3c-0.087,0-.081-0.011-0.115.047h3.5a0.461,0.461,0,0,1,.483,0c0.038-.1.054-0.09,0.138-0.047a0.156,0.156,0,0,1,.138-0.07,0.3,0.3,0,0,0,.023.093c0.179,0,.061.059,0.184,0.116a2.019,2.019,0,0,0,.253.046c0.268,0.09.562,0.189,0.851,0.256a0.416,0.416,0,0,0,.046.093c0.132-.089.129,0.028,0.23,0.07l0.276,0.023c0.063,0.023.1,0.091,0.161,0.116V22.14a0.827,0.827,0,0,1,.23.046,0.32,0.32,0,0,0,.276.233l0.023-.07a1.185,1.185,0,0,1,.345.116l0.8,0.023c1.152,0.009,2.351.063,3.565,0.07v0.3c-1.177,0-2.334.065-3.45,0.07-0.088.235-.239,0-0.23,0.488H30.753a2.226,2.226,0,0,1-.368.023l-0.023.046a0.248,0.248,0,0,1-.138-0.046c-0.353-.045-0.725.015-0.966,0l-0.023.186h0.046a0.851,0.851,0,0,1,.414,0c0.31,0.01.591,0.023,0.92,0.023,1.262,0,2.271.025,3.45,0.023v0.116H32.847V23.93a6.4,6.4,0,0,1,1.518.093,1.445,1.445,0,0,0,.46.512,0.065,0.065,0,0,1-.023.023,1.179,1.179,0,0,1-.345.279c0.026,0.044.1,0.077,0.115,0.116,0.032,0.067-.061.163,0.115,0.209a1.48,1.48,0,0,0,.184.4l-0.023.233,0.069,0.046a0.678,0.678,0,0,0-.046.163,0.374,0.374,0,0,0,.069.07v0.256H34.871a0.561,0.561,0,0,1-.092.4c0.01,0.042.058,0.033,0.046,0.093a0.533,0.533,0,0,1-.184.209c-0.042.053-.027,0.131-0.069,0.186l-0.069.023a1.424,1.424,0,0,0-.069.209c-0.032.051-.1,0.084-0.138,0.139-0.04-.018-0.042-0.061-0.069-0.023a0.947,0.947,0,0,0-.3.256,1.331,1.331,0,0,1-.023.4,0.151,0.151,0,0,1-.115,0,0.479,0.479,0,0,1-.115-0.279,0.655,0.655,0,0,1-.276.163c0,0.074.039,0.031-.023,0.07-0.034.035-.081,0.057-0.115,0.093-0.057-.016-0.043-0.055-0.069-0.023-0.12.03-.189,0.1-0.3,0.139,0.009,0.068.038,0.029-.023,0.07a0.773,0.773,0,0,1-.253.07,1.371,1.371,0,0,0-.207.116,0.73,0.73,0,0,1-.023.093c-0.024.019-.437,0.167-0.506,0.186,0.009,0.053.021,0.025,0,.07-0.039.037-.1,0.055-0.138,0.093-0.055-.033-0.013-0.04-0.069-0.023a0.5,0.5,0,0,0-.276.209,4.44,4.44,0,0,1-.506.186c0,0.073.039,0.031-.023,0.07a0.393,0.393,0,0,1-.161.093c-0.013-.03,0-0.017-0.023-0.023-0.12.03-.189,0.1-0.3,0.14,0.009,0.068.038,0.029-.023,0.07a1.342,1.342,0,0,1-.529.093v0.07l-0.23.023V29.93H29.258a1.326,1.326,0,0,1-.621-0.023v0.07a1.716,1.716,0,0,0-.552-0.047,0.347,0.347,0,0,1-.253.047V29.93c-0.2-.088-0.395.089-0.6,0s-0.385.083-.575,0H26.291v0.047c-0.192.083-.358-0.141-0.575-0.047v0.047H25.509V29.93H25.141v0.047c-0.178.077-.343-0.138-0.552-0.047v0.047H24.382V29.93a0.981,0.981,0,0,0-.46.047,0.981,0.981,0,0,0-.46-0.047,0.238,0.238,0,0,1-.207.047V29.93c-0.2-.086-0.371.089-0.575,0s-0.374.123-.552,0.047V29.93a0.884,0.884,0,0,0-.437.047H21.553V29.93H21.208v0.047a0.426,0.426,0,0,1-.276-0.047,2.893,2.893,0,0,1-.483.047V29.93H20.081c-0.01.064-.077,0.052-0.207,0.047a0.775,0.775,0,0,0-.345-0.07v0.07A1.608,1.608,0,0,0,19,29.93a0.346,0.346,0,0,1-.253.047V29.93c-0.191-.083-0.361.083-0.552,0H17.849v0.047a3.281,3.281,0,0,1-.575-0.07v0.07a1.587,1.587,0,0,0-.529-0.047,0.3,0.3,0,0,1-.23.047V29.93c-0.2-.085-0.385.083-0.575,0s-0.36.084-.552,0H15.043v0.047c-0.192.083-.358-0.141-0.575-0.047v0.047H14.261V29.93H13.916v0.047c-0.192.083-.358-0.141-0.575-0.047v0.047H13.134V29.93a0.629,0.629,0,0,0-.368.047,0.269,0.269,0,0,1-.207-0.047H12.214v0.047a0.5,0.5,0,0,1-.3-0.047,1.453,1.453,0,0,1-.46.047V29.93H11.087c-0.01.064-.077,0.052-0.207,0.047a0.775,0.775,0,0,0-.345-0.07v0.07a1.608,1.608,0,0,0-.529-0.047,0.346,0.346,0,0,1-.253.047V29.93c-0.191-.083-0.361.083-0.552,0H8.856v0.047a3.281,3.281,0,0,1-.575-0.07v0.07a1.624,1.624,0,0,0-.529-0.047,0.3,0.3,0,0,1-.23.047V29.93c-0.195-.085-0.385.083-0.575,0s-0.36.085-.552,0a4.047,4.047,0,0,0-.575.023,0.313,0.313,0,0,1-.046-0.07,3.324,3.324,0,0,0-.552-0.14c0-.074.039-0.031-0.023-0.07a0.881,0.881,0,0,0-.23-0.139l-0.092.023A0.462,0.462,0,0,1,4.715,29.4a2.329,2.329,0,0,0-.483-0.186l0.023-.046H4.232A0.877,0.877,0,0,0,4,29.023l-0.115.023a0.914,0.914,0,0,1-.23-0.209,0.874,0.874,0,0,0-.207-0.093c-0.014,0-.012.055-0.046,0.047a3.078,3.078,0,0,1-.414-0.3c-0.057.016-.043,0.055-0.069,0.023a0.51,0.51,0,0,1-.207-0.14,1.008,1.008,0,0,0-.46-0.186,0.69,0.69,0,0,0-.437-0.279c-0.07-.058,0-0.077-0.023-0.14a1.606,1.606,0,0,0-.3-0.256,1.12,1.12,0,0,1-.161-0.558H1.265V26.907a0.871,0.871,0,0,1,0-.4,0.864,0.864,0,0,1-.023-0.4l0.069-.023A1.385,1.385,0,0,0,1.4,25.837a0.623,0.623,0,0,1,0-.186,1.934,1.934,0,0,0,.276-0.326H1.656a3.052,3.052,0,0,0-1.081-.07V25.233C0.6,25.184.591,25.048,0.621,25a2.2,2.2,0,0,1,.506-0.558V24.419c-0.79-.05-0.657-1.069-0.644-1.907H0.368v-0.07c-0.254-.007-0.3-0.138-0.3-0.4A0.727,0.727,0,0,1,.023,21.6V21.233H0.069c0.112-.263-0.151-0.565.253-0.581a2.322,2.322,0,0,1,1.242.093,3.8,3.8,0,0,1,.023,1.14H1.633V21.512a3.423,3.423,0,0,0,.621-0.023A0.328,0.328,0,0,1,2.3,21.3a0.154,0.154,0,0,1,.092-0.023c0.127,0.192.178,0.029,0.368,0V21.3H2.783l0.023,0.186a0.423,0.423,0,0,0,.3-0.093H3.013v-0.07H3.105V21.3H3.128V21.209H3.5a0.3,0.3,0,0,1-.023.093H3.657V21.209a0.308,0.308,0,0,0,.253-0.093,0.079,0.079,0,0,1-.046-0.023,2.3,2.3,0,0,0,.437.093V20.861H4.37V20.744H4.485v0.116H4.554v0.326l1.288,0.07v-0.14H5.911V21H6.026v0.116H6.1v0.163c0.641,0.005,1.085-.11,1.7-0.116,0.02-1.2.023-2.665,0.023-3.977H7.867a6.631,6.631,0,0,1,1.127-.139c0.9-.211,1.923-0.164,2.829-0.372,0.318-.073.651-0.048,0.943-0.116a0.4,0.4,0,0,0,.322-0.093V15.791H12.973a0.918,0.918,0,0,1,.138-0.581,0.154,0.154,0,0,1,.092-0.023,0.248,0.248,0,0,1,.046.116,0.923,0.923,0,0,1,.207-0.046,0.212,0.212,0,0,0,.161.046,0.143,0.143,0,0,1,.092-0.046,0.379,0.379,0,0,1,.092.093h0.667V15.3a5,5,0,0,0,.046-1.349V11.233A4.881,4.881,0,0,1,14.537,10a0.084,0.084,0,0,1,.023.046,1.125,1.125,0,0,1,.023.419v4.861a0.84,0.84,0,0,0,.253.023l0.023-.07a0.561,0.561,0,0,1,.069-0.233V15.07A0.916,0.916,0,0,1,14.974,15.349ZM7.982,20.837c0.006,0.142.041,0.153,0.046,0.3,0.1,0,.14-0.054.207-0.047l-0.023.047a1.147,1.147,0,0,0,.437.07,0.138,0.138,0,0,0,0,.093,0.154,0.154,0,0,0,.092.023V21.4a0.329,0.329,0,0,0-.115.023v0.023H8.81a7.662,7.662,0,0,0,.943,0,3.258,3.258,0,0,0,1.058,0L11.2,21.465c0.424,0,.853-0.014,1.219,0V20.837H7.982Z" transform="translate(-0.031)"/>
</svg>
