<?xml version="1.0" encoding="utf-8"?>
<!-- Generator: Adobe Illustrator 16.0.0, SVG Export Plug-In . SVG Version: 6.00 Build 0)  -->
<!DOCTYPE svg PUBLIC "-//W3C//DTD SVG 1.1//EN" "http://www.w3.org/Graphics/SVG/1.1/DTD/svg11.dtd">
<svg version="1.1" id="Layer_1" xmlns="http://www.w3.org/2000/svg" xmlns:xlink="http://www.w3.org/1999/xlink" x="0px" y="0px"
	 width="39.969px" height="40px" viewBox="0 0 39.969 40" enable-background="new 0 0 39.969 40" xml:space="preserve">
<path id="jp_type_3_chi_nu_ico" fill="#FFFFFF" d="M21.169,7.156l-0.069,0.7h1.524c0.133-0.058,0.283-0.058,0.416,0
	c0.032,0.048,0.048,0.105,0.046,0.163c-0.01,0.005-0.018,0.013-0.023,0.023h0.647c0.035-0.06,0.069-0.049,0.162-0.046
	c0.24,0.065,0.492,0.082,0.739,0.046c0.371-0.016,0.742,0.007,1.108,0.07v0.186L25.65,8.321c-0.029,0.031-0.072,0.048-0.115,0.047
	v0.07h-0.046c-0.124,0.059-0.257,0.098-0.394,0.116V8.46c-0.111,0-0.072,0.014-0.207,0.023v0.07h-1.594v-0.07h-0.462v0.07h-0.276
	v-0.07l-0.832,0.023c-0.024,0.043-0.04,0.091-0.045,0.14c0.403,0.285,0.774,0.613,1.107,0.978c0.056,0.362,0.056,0.731,0,1.094
	c-0.034,0.077-0.091,0.142-0.162,0.186c-0.301-0.001-0.602,0.014-0.9,0.047c-0.035,0.137-0.05,0.278-0.045,0.419
	c0.05,0.128,0.08,0.263,0.092,0.4c0.055,0.097,0.117,0.19,0.185,0.279v0.279c0.013,0.021,0.112,0.051,0.045,0.088h0.231
	c0.116-0.057,0.252-0.057,0.369,0v0.093c0.077,0,0.154-0.008,0.23-0.023c0.104,0.072,0.222,0.12,0.346,0.14v-0.07
	c0.193,0,0.238,0.009,0.393,0v0.047c0.018,0.028,0.025,0.06,0.023,0.093c0.059,0.032,0.12,0.056,0.186,0.07
	c0.027-0.042,0.068-0.075,0.115-0.093c0.006,0.054,0.042,0.099,0.092,0.117c0.107,0.075,0.5,0.064,0.647,0.14
	c-0.039,0.082-0.07,0.168-0.092,0.256c0.056,0.038,0.067,0.1,0.115,0.14c0.172,0.134,0.362,0.22,0.53,0.349l0.182,0.233h2.96
	c0.337,0.055,0.682,0.047,1.016-0.023c0.143-0.021,0.288,0.004,0.416,0.07h1.271c0.283,0.033,0.568,0.041,0.854,0.023l1.2,0.023
	h0.624c0.4,0.087,0.934-0.07,1.363,0.023c0.394,0.085,0.917-0.068,1.339,0.023c0.307,0.036,0.616,0.044,0.924,0.023l1.455,0.023
	c0.173-0.044,0.353-0.061,0.53-0.047c0.018-0.068,0.049-0.131,0.093-0.186v0.047c0.022,0.044,0.054,0.084,0.092,0.116
	c0.035,0.019,0.075,0.027,0.115,0.023v-0.23h0.022c0.1,0.095,0.208,0.181,0.323,0.256v0.722c-0.12,0.078-0.235,0.164-0.346,0.256
	v-0.234l-0.162,0.023c-0.011,0.056-0.025,0.11-0.046,0.163h-0.043c0-0.273-0.324-0.2-0.577-0.186
	c-0.153-0.063-0.322-0.08-0.485-0.047l-1.338,0.024l-5.543,0.093c0.03,0.202,0.022,0.407-0.023,0.605
	c-0.149,0.448-0.686,0.361-1.27,0.349c-0.073,0.03-0.151,0.046-0.23,0.047c-0.101,0.049,0.022,0.1-0.162,0.093
	c-0.023-0.086-0.016-0.082-0.116-0.093c-0.024,0.014-0.872-0.022-1.062-0.022h-2.959c-0.028,0.212-0.172,0.328-0.207,0.535
	c0.073,0.049,0.143,0.104,0.207,0.163c-0.076,0.062-0.111,0.16-0.092,0.256l-0.115,0.023v0.023c0.066,0.13,0.105,0.272,0.115,0.419
	h-0.343v0.023c0.017,0.028,0.025,0.06,0.022,0.093h0.971c0.236,0.08,0.467,0.173,0.693,0.279c0.231,0.049,0.451,0.145,0.646,0.279
	c0.034-0.024,0.074-0.041,0.115-0.047c0.048,0.056,0.086,0.118,0.115,0.186c-0.029,0.041-0.046,0.09-0.047,0.141l0.162,0.115
	l0.277-0.022c0.287,0.011,0.574-0.013,0.855-0.07c0.44-0.024,0.883,0.007,1.315,0.093c0.034-0.009,0.065-0.025,0.093-0.047
	c0.105-0.01,0.09,0.061,0.185,0.047c0.325-0.078,0.661-0.095,0.993-0.047c0.074,0.241,0.098,0.495,0.068,0.745
	c-0.023,0.109-0.102,0.198-0.208,0.233v0.023h0.577c0.034-0.06,0.01-0.037,0.092-0.048v-0.069c0.041-0.029,0.09-0.046,0.139-0.047
	l0.023-0.115c-0.175,0.048-0.355-0.055-0.404-0.23c-0.006-0.022-0.01-0.046-0.012-0.07c0.013-0.013,0.021-0.029,0.023-0.047
	c0.132-0.055,0.272-0.086,0.416-0.093c-0.028-0.075-0.066-0.146-0.115-0.21c-0.029-0.139-0.029-0.281,0-0.419
	c0.159-0.284,0.482-0.435,0.803-0.372v1.188h-0.32l-0.023,0.141h0.044c0.021,0.015,0.044,0.023,0.069,0.023v0.186
	c0.059,0.041,0.107,0.098,0.139,0.163c0.123,0.014,0.246,0.021,0.37,0.022c0.607-0.058,1.214,0.126,1.687,0.513v0.047
	c-0.135,0.144-0.23,0.32-0.277,0.512c-0.073,0-0.031-0.04-0.069,0.022c-0.054,0.052-0.093,0.116-0.114,0.187
	c0.086,0.121,0.195,0.224,0.322,0.3c0.023,0.002,0.046,0.002,0.069,0l0.139,0.233c-0.087,0-0.081-0.011-0.114,0.047
	c0.075,0.142,0.137,0.289,0.185,0.442c0.044,0.022,0.083,0.055,0.114,0.093c0.033,0.064,0.049,0.137,0.047,0.209l-0.115-0.022
	c0.006,0.009,0.014,0.017,0.023,0.022c-0.002,0.086,0.006,0.172,0.022,0.256c-0.027,0.098-0.035,0.199-0.022,0.3h0.068
	c-0.012,0.096-0.035,0.189-0.068,0.279h-0.023c-0.027-0.027-0.059-0.051-0.092-0.07c-0.026,0.258-0.158,0.325-0.186,0.535
	c0.025,0.025,0.041,0.059,0.047,0.094c-0.058,0.053-0.105,0.115-0.14,0.186h-0.022c0.003-0.044-0.026-0.083-0.068-0.094
	c-0.131,0.136-0.246,0.283-0.346,0.442c0.028,0.037,0.015,0.013,0,0.047c-0.047,0.06-0.112,0.101-0.186,0.116
	c-0.002-0.032-0.01-0.063-0.023-0.093c-0.142,0.071-0.25,0.182-0.393,0.256c0.006,0.054,0.006,0.108,0,0.163l-0.186,0.116
	c0.002-0.044-0.014-0.086-0.045-0.116v0.023c-0.156,0.051-0.287,0.158-0.369,0.299c-0.002,0.023-0.002,0.047,0,0.07
	c-0.047,0.059-0.116,0.081-0.162,0.141h-0.024c0.003-0.044-0.026-0.083-0.069-0.094v0.023c-0.147,0.043-0.272,0.143-0.346,0.279
	c-0.023,0.039,0,0.053-0.023,0.093c-0.035,0.056-0.096,0.091-0.161,0.093c-0.017-0.029-0.04-0.053-0.069-0.07
	c-0.109,0.104-0.234,0.19-0.37,0.256c0.014,0.047,0.014,0.095,0,0.141c-0.052,0.058-0.115,0.105-0.185,0.141
	c-0.001-0.04-0.009-0.08-0.023-0.117c-0.183,0.055-0.328,0.193-0.393,0.373c0.021,0.041,0.005,0,0,0.047L31.1,26.143
	c0-0.039-0.008-0.078-0.022-0.115c-0.181,0.058-0.325,0.195-0.394,0.373c0.022,0.041,0.006,0,0,0.047
	c-0.063,0.024-0.117,0.064-0.162,0.115H30.5c-0.006-0.041-0.021-0.081-0.046-0.115c-0.122,0.086-0.254,0.156-0.394,0.21
	c-0.025,0.057-0.057,0.11-0.092,0.163c-0.062,0.041-0.133,0.065-0.208,0.07c0.008-0.039,0.008-0.078,0-0.117
	c-0.184,0.016-0.363,0.063-0.53,0.141c-0.016,0.021-0.023,0.045-0.023,0.07H28.93v-0.038c0.016-0.021,0.023-0.045,0.023-0.07h-0.531
	c-0.066,0.11-0.201,0.159-0.322,0.116l0.022-0.116H27.59c-0.012,0.013-0.028,0.021-0.046,0.022c-0.005,0.01-0.014,0.018-0.022,0.023
	v0.07h-0.277v-0.023c0.025-0.025,0.041-0.058,0.046-0.093h-0.554c-0.025,0.034-0.041,0.074-0.047,0.116h-0.277v-0.023
	c0.025-0.025,0.041-0.058,0.046-0.093h-0.554c-0.025,0.034-0.041,0.074-0.047,0.116h-0.276v-0.023
	c0.019-0.029,0.034-0.061,0.046-0.093h-0.559c-0.024,0.034-0.04,0.074-0.045,0.116H24.75v-0.046c0.015-0.021,0.023-0.045,0.023-0.07
	H24.27c-0.059,0.108-0.186,0.157-0.301,0.116v-0.046c0.016-0.021,0.023-0.045,0.023-0.07h-0.489
	c-0.024,0.034-0.04,0.074-0.046,0.116h-0.232l0.023-0.116h-0.484c-0.024,0.034-0.041,0.074-0.046,0.116h-0.255v-0.023
	c0.025-0.025,0.041-0.058,0.046-0.093h-0.485c-0.024,0.034-0.04,0.074-0.045,0.116h-0.254v-0.023
	c0.017-0.027,0.024-0.061,0.022-0.093h-0.485c-0.052,0.118-0.1,0.126-0.277,0.116v-0.046c0.016-0.021,0.023-0.045,0.023-0.07h-0.484
	c-0.025,0.034-0.041,0.074-0.046,0.116h-0.231l0.023-0.116h-0.485c-0.025,0.034-0.041,0.074-0.046,0.116h-0.254v-0.046
	c0.015-0.021,0.023-0.045,0.023-0.07h-0.485c-0.025,0.034-0.041,0.074-0.046,0.116h-0.254v-0.046
	c0.015-0.021,0.023-0.045,0.023-0.07H18.26c-0.025,0.034-0.041,0.074-0.046,0.116H17.96v-0.046c0.015-0.021,0.023-0.045,0.023-0.07
	h-0.485c-0.025,0.034-0.041,0.074-0.046,0.116h-0.254v-0.023c0.017-0.027,0.025-0.061,0.023-0.093h-0.485
	c-0.025,0.034-0.041,0.074-0.046,0.116h-0.254v-0.023c0.017-0.027,0.025-0.061,0.023-0.093h-0.49
	c-0.024,0.034-0.041,0.074-0.046,0.116h-0.226l0.022-0.116h-0.485c-0.025,0.034-0.041,0.074-0.046,0.116h-0.255v-0.023
	c0.025-0.025,0.041-0.058,0.046-0.093h-0.484c-0.025,0.034-0.041,0.074-0.046,0.116h-0.255v-0.023
	c0.025-0.025,0.041-0.058,0.046-0.093h-0.484c-0.025,0.034-0.041,0.074-0.046,0.116h-0.255v-0.023
	c0.019-0.029,0.034-0.061,0.046-0.093h-0.484c-0.025,0.034-0.041,0.074-0.046,0.116h-0.255v-0.023
	c0.018-0.027,0.025-0.061,0.023-0.093h-0.485c-0.049,0.124-0.1,0.126-0.277,0.116v-0.046c0.015-0.021,0.023-0.045,0.023-0.07
	c-0.177-0.009-0.355-0.001-0.531,0.022v0.023h-0.022v0.07h-0.278v-0.023c0.025-0.025,0.041-0.058,0.046-0.093h-0.553
	c-0.076,0.112-0.218,0.16-0.346,0.116v-0.023c0.025-0.025,0.041-0.058,0.046-0.093H9.807c-0.025,0.034-0.041,0.074-0.046,0.116
	H9.484l0.023-0.116H8.953c-0.025,0.034-0.041,0.074-0.046,0.116H8.63v-0.046c0.015-0.021,0.023-0.045,0.023-0.07H8.098
	c-0.025,0.034-0.041,0.074-0.046,0.116H7.775v-0.023c0.025-0.025,0.041-0.058,0.046-0.093H7.269
	c-0.013,0.013-0.029,0.021-0.046,0.022v0.023H7.198v0.07H6.921v-0.023c0.026-0.025,0.042-0.058,0.048-0.093H6.736
	c-0.153-0.055-0.323-0.037-0.462,0.047c-0.06-0.019-0.115-0.05-0.162-0.093c0.026-0.015,0.043-0.041,0.046-0.07H6.135v-0.023
	c-0.165-0.044-0.327-0.098-0.485-0.162c-0.025,0.04-0.068,0.066-0.115,0.07c-0.057-0.051-0.153-0.064-0.208-0.117
	c0.037-0.018,0.062-0.052,0.069-0.092c-0.2-0.027-0.311-0.152-0.508-0.187c-0.025,0.04-0.068,0.065-0.115,0.069
	c-0.057-0.049-0.153-0.063-0.208-0.115c0.037-0.018,0.063-0.053,0.069-0.094c-0.194-0.026-0.315-0.152-0.508-0.186
	c-0.025,0.04-0.068,0.066-0.115,0.07c-0.071-0.035-0.141-0.074-0.208-0.116c0.037-0.02,0.061-0.056,0.066-0.096
	c-0.15-0.052-0.297-0.114-0.439-0.187c-0.144-0.031-0.183,0.158-0.393-0.046c0.028-0.017,0.052-0.041,0.069-0.069
	c-0.14-0.082-0.287-0.152-0.439-0.211c-0.128-0.026-0.219,0.159-0.393-0.047c0.028-0.018,0.052-0.041,0.069-0.07l-0.462-0.209
	c-0.126-0.019-0.2,0.154-0.37-0.047c0.037-0.019,0.063-0.053,0.069-0.094c-0.159-0.099-0.33-0.177-0.508-0.232
	c-0.014,0.025-0.04,0.043-0.069,0.047c-0.052-0.064-0.097-0.135-0.134-0.209c0.066-0.026,0.043,0,0.069-0.07l-0.253-0.232
	c-0.01-0.041-0.025-0.08-0.046-0.116C0.59,23.985,0.542,23.97,0.5,23.943c-0.042-0.053-0.08-0.106-0.115-0.163v-0.024h0.023
	c0.02-0.015,0.044-0.022,0.069-0.023c-0.023-0.16-0.1-0.274-0.115-0.465c-0.07-0.045-0.058-0.063-0.139-0.052l-0.046-0.278h0.046
	c0.02,0.014,0.044,0.022,0.069,0.022c0.019-0.186,0.019-0.373,0-0.56c-0.07-0.031-0.062,0.017-0.069-0.115
	c0.037-0.047,0.061-0.104,0.069-0.163h0.023c0.025,0.025,0.057,0.042,0.092,0.047c0.04-0.199,0.063-0.401,0.069-0.604h0.07v-0.07
	h0.07c0.066-0.314,0.089-0.635,0.069-0.955c-0.07-0.074-0.158-0.13-0.254-0.163l-0.069,0.256c-0.011-0.011-0.02-0.026-0.023-0.042
	c-0.05-0.064-0.022-0.18-0.07-0.256c-0.038-0.018-0.076-0.033-0.115-0.047c-0.02-0.115-0.02-0.233,0-0.35
	c-0.035,0.022-0.08,0.022-0.115,0c-0.022-0.051-0.03-0.107-0.023-0.162c0.019-0.248,0.019-0.498,0-0.745
	c0.024-0.069,0.1-0.128,0.139-0.21c-0.087,0-0.081,0.011-0.115-0.047c0.147-0.01,0.131-0.059,0.277-0.07
	c0.018,0.037,0.052,0.063,0.092,0.07c0.007-0.096,0.07-0.178,0.16-0.209c0.03,0.03,0.072,0.048,0.115,0.047v-0.35
	c0.137-0.016,0.27-0.055,0.393-0.115c0.082-0.022,0.092,0.069,0.162,0.045l0.023-0.069c0.123-0.007,0.247-0.007,0.37,0
	c0-0.095-0.013-0.127,0.046-0.163c-0.006,0.292,0.265,0.223,0.531,0.209c0.146-0.092,0.5,0.005,0.693-0.116
	c0.058,0.009,0.053,0.046,0.092,0.023c0.019-0.021,0.034-0.044,0.046-0.07c0.314,0.096,0.647,0.112,0.97,0.047h0.37
	c0.018-0.034,0.041-0.065,0.069-0.093c0.085-0.025,0.092,0.053,0.139,0.023c0.03-0.047,0.083-0.074,0.139-0.07
	c0.201,0.098,0.427,0.131,0.647,0.093H5.65c0.07-0.043,0.019-0.114,0.115-0.093c0.051,0.029,0.105,0.053,0.162,0.07v-0.141h0.042
	c0.018,0.049,0.041,0.096,0.069,0.141c0.154,0.008,0.309,0,0.462-0.023c0.042-0.043,0.089-0.082,0.139-0.117
	c0.083,0.091,0.211,0.127,0.33,0.094v-0.069h0.483v-0.093c0.072,0.015,0.069,0.047,0.069,0.047c0.044,0.016,0.351-0.088,0.462-0.094
	c0-0.025,0.008-0.049,0.023-0.069v-0.024c0.223-0.024,0.446-0.032,0.67-0.023c0.028-0.111,0.084-0.214,0.162-0.299
	c0.112,0.068,0.228,0.13,0.346,0.186c0.255,0.191,0.018,0.284,0.554,0.279c0.142-0.047,0.293-0.055,0.439-0.023
	c0.091-0.023,0.184-0.039,0.277-0.047c0.052,0.018,0.107,0.025,0.162,0.023c0.105-0.033,0.213-0.057,0.323-0.07
	c-0.003-0.063,0.022-0.123,0.069-0.163c-0.1-0.071-0.053-0.1,0-0.186c-0.063-0.037-0.058-0.021-0.069-0.116l0.069-0.047
	c-0.046-0.031-0.073-0.084-0.069-0.14l0.069-0.023c0.061-0.021,0.123-0.036,0.185-0.047v-0.02h-0.462v-0.377h-0.092
	c-0.047-0.15-0.063-0.309-0.046-0.466c-0.061-0.031-0.097-0.095-0.092-0.163l0.046-0.023c0.009-0.034-0.044-0.034-0.046-0.047
	c-0.012-0.062,0.039-0.049,0.046-0.093c-0.031-0.02-0.049-0.056-0.046-0.093c0.006-0.024,0.083-0.109,0.092-0.14v-0.745h-0.047
	c-0.007-0.013-0.046-0.093-0.046-0.093c-0.013-0.059,0.043-0.048,0.046-0.07c0.009-0.059-0.042-0.047-0.046-0.07
	c-0.011-0.06,0.04-0.045,0.046-0.07c0.014-0.058-0.055-0.012,0-0.14c0.013-0.165,0.036-0.328,0.069-0.489
	c0.035-0.019,0.075-0.027,0.115-0.023v-0.325c0.199,0.004,0.396-0.036,0.577-0.116c0.052-0.386,0.06-0.776,0.023-1.164v-3.05
	c0.025-0.025,0.041-0.058,0.046-0.093h0.023c0.034,0.512,0.042,1.025,0.023,1.537v2.747l5.335-1.094v-0.094h0.231
	c0-0.146,0.006-0.178,0-0.3l-0.139-0.023c-0.029-0.052-0.052-0.106-0.069-0.163c0.045-0.068,0.062-0.152,0.046-0.233
	c-0.07-0.044-0.132-0.1-0.185-0.163c0.065-0.139,0.104-0.289,0.115-0.442h0.139v-0.07c0.03-0.018,0.056-0.043,0.074-0.073h0.046
	c0.028,0.09,0.114,0.148,0.208,0.14c0.167-0.035,0.34-0.035,0.508,0v0.07h0.37v-0.089c0.121-0.025,0.246-0.033,0.369-0.023
	c0.039,0.124,0.009,0.121,0.208,0.116c0.001-0.125,0.017-0.25,0.046-0.372c0.017,0.002,0.034,0.01,0.046,0.023
	c0.035,0.113,0.05,0.231,0.046,0.349h1.409v-0.07c0.051-0.023,0.106-0.04,0.162-0.047c0.1,0.11,0.187-0.019,0.301,0
	c0.051,0.024,0.105,0.04,0.162,0.047c0.014-0.056,0.046-0.105,0.092-0.14c0.018,0.002,0.033,0.01,0.045,0.023
	c0.053,0.025,0.081,0.083,0.07,0.14h0.139c0,0.138,0.1,0.346,0.092,0.419c-0.047,0.093-0.123,0.1-0.162,0.186
	c-0.031,0.088-0.014,0.185,0.046,0.256c-0.034,0.026-0.041,0.1-0.069,0.117c-0.045,0.01-0.092,0.018-0.139,0.023
	c-0.021,0.051-0.03,0.107-0.023,0.163c0.021,0.043,0.029,0.092,0.023,0.14h0.23v0.093h0.07c0.016-0.082,0.027-0.058,0.045-0.14
	h0.115v-0.54c-0.02-0.021-0.035-0.044-0.046-0.07c0.022-0.051,0.054-0.099,0.092-0.14c0.093-0.256-0.081-0.476,0.185-0.582
	c0.309-0.084,0.629-0.116,0.947-0.093v-0.046c0.045-0.238,0.06-0.48,0.047-0.722c0.015-0.078,0.007-0.159-0.023-0.233
	c-0.067-0.109-0.163-0.198-0.277-0.256c-0.107-0.082-0.191-0.221-0.3-0.3c-0.22-0.136-0.415-0.31-0.577-0.512
	c0.026-0.015,0.043-0.041,0.047-0.07H21.4v0.091h-0.068v-0.14h-0.439v0.07h-0.139v-0.07h-0.277c0,0.117,0.007,0.233,0.023,0.349
	l-0.369-0.023l-0.069,0.652h-0.047c-0.056-0.033-0.12-0.049-0.185-0.047l0.069-0.722c-0.366-0.017-0.62-0.118-0.6,0.373h-0.023
	c-0.128,0.035-0.262,0.042-0.393,0.023c-0.069-0.332-0.229-0.638-0.462-0.885V8.203h0.023c0.267-0.043,0.539-0.051,0.808-0.023
	c0.04,0.088,0.056,0.184,0.046,0.279l0.185,0.023V8.436c-0.058-0.034-0.042-0.029-0.046-0.116h0.069V8.227
	c-0.151-0.054-0.233-0.218-0.185-0.372c0.056-0.09,0.149-0.149,0.254-0.163c0.05,0.107,0.089,0.123,0.254,0.116
	c0.195,0.052,0.398,0.068,0.6,0.047c-0.004-0.04,0.003-0.081,0.023-0.116v0.116c0.025,0,0.049-0.008,0.069-0.023
	c0.1-0.173-0.014-0.623,0.092-0.792c0.021-0.016,0.046-0.024,0.072-0.024C20.834,7.098,20.999,7.146,21.169,7.156z M12.463,17.493
	v0.116h0.231v-0.047c0.015-0.006,0.639,0,0.716,0V17.4c0.064-0.025,0.126-0.057,0.185-0.093c0.059,0.008,0.11,0.042,0.139,0.093
	h0.624v-0.093c-0.122-0.025-0.246-0.033-0.37-0.023v-0.368h-2.4v0.023h0.021c0.067,0.025,0.137,0.041,0.208,0.047
	c0.014,0.038,0.022,0.077,0.023,0.116l-0.071,0.014c0.013,0.021,0.064,0.056,0.069,0.07c-0.019,0.045-0.035,0.092-0.046,0.14
	c0.086,0.098,0.223,0.134,0.346,0.093C12.227,17.497,12.349,17.524,12.463,17.493z"/>
</svg>
