<svg xmlns="http://www.w3.org/2000/svg" width="39.969" height="40" viewBox="0 0 39.969 40">
  <defs>
    <style>
      .cls-1 {
        fill: #fff;
        fill-rule: evenodd;
      }
    </style>
  </defs>
  <path id="Color_Fill_1" data-name="Color Fill 1" class="cls-1" d="M19.143,12.442v0.2a1.47,1.47,0,0,1,.343.05,1,1,0,0,1,.147.5,2.2,2.2,0,0,1-.392.348l0.049,0.149a0.5,0.5,0,0,1,.343.249v0.249a1.069,1.069,0,0,1-.2.249,0.5,0.5,0,0,1-.294.1V14.68c-0.391.03-.175,0.1-0.343,0.2H17.332c-0.03,1.31-.046,2.6-0.049,3.779l-2.5.149v0.149a6.693,6.693,0,0,1-1.371-.05,1.191,1.191,0,0,1-.049.4H13.317v-0.05c-0.038-.059-0.059-0.239-0.1-0.3v0.3H13.072a4.109,4.109,0,0,0-.1.7,54.3,54.3,0,0,0,6.61.05,0.792,0.792,0,0,1,.049.249,1.379,1.379,0,0,1,.441-0.149c0.127,0.075.1,0.149,0.1,0.348a0.339,0.339,0,0,1,.049.2H20.073v0.3a1.931,1.931,0,0,1,.539.4h0.2c0.042-.333.193-0.677,0.245-0.994C21.109,20.006,21,19.033,21,18.558h0.2V18.309a0.492,0.492,0,0,0,.245-0.2,6.469,6.469,0,0,0,.049-0.845,0.481,0.481,0,0,1-.294-0.1c0.191,0,.22.025,0.294-0.1l0.2-.447a0.452,0.452,0,0,1-.2-0.348,1.657,1.657,0,0,1,.881-0.547,1.092,1.092,0,0,0,1.028.149,19.119,19.119,0,0,1,3.084.05v0.2a2.2,2.2,0,0,1-.294.3,0.475,0.475,0,0,1,.147.448l2.5,0.05v0.249a1.164,1.164,0,0,1,.294.249V16.072c0.013-.018.092-1.265,0.1-1.492a0.589,0.589,0,0,1,.441-0.149,9.575,9.575,0,0,0,1.909.149c1.2,0.267,2.616.083,3.819,0.348a4.2,4.2,0,0,1,1.371.149,0.589,0.589,0,0,1,.1.249,0.4,0.4,0,0,0-.245.05l0.441-.05v0.1h-0.1a1.269,1.269,0,0,0-.245.2c0.088,0.119.1,0.33,0.2,0.447,0.126-.087.17,0.027,0.2,0.2a0.506,0.506,0,0,0,.049.6l0.294,1.044c0.116,0.2.462,0.286,0.588,0.5l0.2,0.7h0.881a0.664,0.664,0,0,0,.588-0.05,1.862,1.862,0,0,0,.049-0.547h-0.1a1.119,1.119,0,0,1-.1.5,0.894,0.894,0,0,1-.441.05,1.812,1.812,0,0,1-.294-1.094l0.147-.05a0.764,0.764,0,0,1,.392-0.05,0.436,0.436,0,0,0,.392.4V17.812a4.943,4.943,0,0,1-.637-0.3,0.765,0.765,0,0,0-.147-0.2,1.959,1.959,0,0,1-.049.447,0.536,0.536,0,0,0-.147.1,1.9,1.9,0,0,0-.392-0.05,0.9,0.9,0,0,0-.147-0.2,5.883,5.883,0,0,1,0-1.293,2.755,2.755,0,0,0,.489-0.1,0.975,0.975,0,0,1-.049-0.249,2.778,2.778,0,0,0-1.077-.05,0.453,0.453,0,0,1-.49.1h0.1a2.24,2.24,0,0,1,1.763-.2,1.943,1.943,0,0,1,.783.945,0.559,0.559,0,0,1-.343.1,1.58,1.58,0,0,0-.294-0.2v0.249c0.236,0.163-.078.259,0.049,0.5a1.873,1.873,0,0,1,.685.447,1.36,1.36,0,0,1-.147,1.293,2.564,2.564,0,0,1-1.371.1,1.1,1.1,0,0,1-.294-0.3v0.05a1.733,1.733,0,0,0-.147.149,1.824,1.824,0,0,0,.2.8,0.628,0.628,0,0,1,.392,0,0.712,0.712,0,0,1,.049.2,2.28,2.28,0,0,0,.049,1.243,0.42,0.42,0,0,0-.294.149,0.878,0.878,0,0,1,.294.348l-0.147.05a0.981,0.981,0,0,0,.049.448c-0.058.264-.163,0.324-0.2,0.547h0.049a0.171,0.171,0,0,1,.049-0.1v0.646c-0.157.044-.136,0.056-0.147,0.1,0.019,0.13-.036.065,0.1,0.1a0.263,0.263,0,0,1,.245.05,1.983,1.983,0,0,1,.049.8H38.58a0.768,0.768,0,0,1-.392.448,0.141,0.141,0,0,1-.2,0c0.121-.064.033,0.021,0.1-0.1a1.111,1.111,0,0,0-.686-0.4l-0.049.5a1.264,1.264,0,0,0-.686.348c0.075,0.06-.1.265-0.245,0.3v-0.1c0.065-.086.085-0.08,0.049-0.149a1.56,1.56,0,0,0-1.126.05,0.339,0.339,0,0,0-.049.2c0.359,0.567-.29,2.006-0.49,2.238a2.8,2.8,0,0,1-4.994-1.641l-0.588-.1v1.243H29.18c-0.024-.364-0.049-0.811-0.049-1.243a6.871,6.871,0,0,0-.832-0.1,1.645,1.645,0,0,0-.049.5H27.809v0.249h1.126a0.712,0.712,0,0,1,.049.2,12.134,12.134,0,0,1-2.791.05H20.025a0.455,0.455,0,0,1-.441.2,1.65,1.65,0,0,1,0-.945H19.339a2.6,2.6,0,0,1-.441.945,0.312,0.312,0,0,1,.2.05,3.3,3.3,0,0,1-.881.2,0.236,0.236,0,0,1-.1-0.249,0.256,0.256,0,0,1-.049-0.149h0.049v-0.05l0.294-.05V26.812H18.066l0.049-.4H17.723V26.265H17.381a2.785,2.785,0,0,1-4.211,2.287,3.24,3.24,0,0,1-.93-0.945,2.51,2.51,0,0,0-.392-0.845,1.142,1.142,0,0,0-.588.2,0.731,0.731,0,0,0-.636-0.2,2.779,2.779,0,0,1-3.77,1.989,3.009,3.009,0,0,1-1.714-2.536H5.092a0.312,0.312,0,0,1-.294,0V27.26H4.7v-0.4a1.523,1.523,0,0,0,.049-0.646H4.7v0.05a1.224,1.224,0,0,0-.049.547H4.308a1.015,1.015,0,0,1-.049.348c-0.1,0-.014-0.051-0.1,0H4.211c0.058,0.039.236,0.059,0.294,0.1a2.021,2.021,0,0,1-.832-0.05,0.34,0.34,0,0,0,.343-0.1c-0.1,0-.014.051-0.1,0a0.546,0.546,0,0,1-.049-0.3H3.476v-0.05a0.507,0.507,0,0,0,0-.447,0.639,0.639,0,0,0-.343-0.05v-0.05H3.084v0.3h-0.2V26.265H2.105v0.1a0.9,0.9,0,0,1,0,.845l-0.392-.05c-0.037-.131-0.059-0.119-0.1-0.249a1.11,1.11,0,0,0,.147-0.8l-0.783-.1v-0.1A2.443,2.443,0,0,1,.93,24.972a0.558,0.558,0,0,1,.343-0.1c0.271-.163.362,0.093,0.392-0.3a3.767,3.767,0,0,0-1.224.2,0.919,0.919,0,0,1-.049.448,0.365,0.365,0,0,0-.1-0.4,0.441,0.441,0,0,1-.1.448V24.724a0.766,0.766,0,0,0,.2-0.547H0.343a0.564,0.564,0,0,1-.147.1v-0.1a6.252,6.252,0,0,1-.049-2.039h0.1a3.222,3.222,0,0,0,1.224.05,0.531,0.531,0,0,1,.049-0.3v0.3a2.019,2.019,0,0,0,.832-0.05H2.2v-0.6H2.448c-0.01-.34,0-0.613,0-1.044H2.35a0.523,0.523,0,0,1-.294.05V20c1.608,0.04,3.724.087,5.63-.05a3.463,3.463,0,0,0-.1-0.7H7.442a0.531,0.531,0,0,0-.049-0.3V19.3H7.246V18.956l-1.42-.05a0.638,0.638,0,0,1-.049.2H5.728V18.856L4.5,18.807l-0.049.149c-0.229-.055-0.647.027-0.93-0.05a1.619,1.619,0,0,0-.636-0.2V18.459H2.742c-0.041.161,0.024,0.076-.1,0.149V17.961a3.562,3.562,0,0,1,.1-1.691v0.05c0.056,0.093.04,0.356,0.1,0.448,0.018-.477.028-0.916,0.049-1.392h-0.2a5.2,5.2,0,0,1,.1-0.8,0.694,0.694,0,0,0-.245.05v-0.2h0.1a0.913,0.913,0,0,0,.245.149V13.934a1.941,1.941,0,0,1,0-.895,8.66,8.66,0,0,0,1.665-1.293H5.141A0.422,0.422,0,0,1,5.19,11.5v0.249H9.547V11.6a1.729,1.729,0,0,0,.147-0.149c0.092,0.043.036,0.024,0.147,0a1.758,1.758,0,0,1,.1.3h0.832a0.426,0.426,0,0,1,.294-0.348,1.672,1.672,0,0,0,.147.348h2.2l-0.049.5h0.343l0.1-.249,0.1,0.05v-0.05c-0.061-.078-0.031-0.025,0-0.1a0.269,0.269,0,0,1,.147-0.2v-0.05c0.1-.021.035,0.076,0.1,0a0.353,0.353,0,0,1,.343-0.3l-0.049.1h0.049V11.4c0.1-.082-0.034-0.058.1-0.1v0.05h0.049V11.3H14.59c-0.049-.05.048-0.049,0.049-0.05a0.352,0.352,0,0,1,.392-0.2,0.423,0.423,0,0,1,.441.1l0.245-.05a6.541,6.541,0,0,1,.783.547c0.072,0.087.287,0.565,0.343,0.6H18.8C18.862,12.433,18.9,12.438,19.143,12.442Zm-4.113-1.293a0.194,0.194,0,0,0,.245,0H15.031Zm-0.2.05c0.084,0.044.063,0.044,0.147,0H14.835Zm-0.147.05a0.175,0.175,0,0,0,.1.05A0.176,0.176,0,0,0,14.688,11.249ZM9.694,11.4h0.1v0.05A0.167,0.167,0,0,1,9.694,11.4ZM14,11.8l-0.049.1C14.039,11.825,14,11.8,14,11.8ZM2.84,14.729l-0.049.3h0.1A0.531,0.531,0,0,0,2.84,14.729Zm19.388,1.044c-0.064.065-.343,0.242-0.245,0.3a0.326,0.326,0,0,0,.2.05C22.363,15.954,22.5,15.959,22.228,15.774Zm4.064,0.2v0.1h0.147v-0.1H26.291Zm-4.5.149v0.05H21.738c-0.094.039,0.1,0.05,0.1,0.05A0.172,0.172,0,0,0,21.787,16.122Zm-0.2.149V16.42l0.1,0.05v0.05h0.049V16.37a0.181,0.181,0,0,1-.049-0.1h-0.1Zm17.332,0.249a0.7,0.7,0,0,0,.1.4A0.493,0.493,0,0,0,38.923,16.519Zm-36.083.4a0.653,0.653,0,0,0,.049.348A0.653,0.653,0,0,0,2.84,16.917Zm23.3,0v0.1h0.245v-0.1H26.144Zm0,0.4V18.26a0.234,0.234,0,0,0,.147-0.05,2.135,2.135,0,0,0,.049-0.845H26.291v-0.05H26.144Zm0.245,0.05v0.945c-0.286.05-.259,0.078-0.245,0.5a2.881,2.881,0,0,1,.049.945h0.049V19.7a0.181,0.181,0,0,0,.049-0.1,0.3,0.3,0,0,1-.1-0.1,0.514,0.514,0,0,1,.343-0.2v0.1c-0.087.093-.091,0.039-0.049,0.149V19.6a0.168,0.168,0,0,0,.1-0.05,2.42,2.42,0,0,0,.294-0.3,0.45,0.45,0,0,1-.147-0.3c-0.111.02-.053,0.046-0.147,0a0.18,0.18,0,0,1-.049-0.1h0.049v-0.05c0.155,0,.066.084,0.147-0.05l0.2-.348c-0.159-.041-0.075.024-0.147-0.1H26.83a2.448,2.448,0,0,1,1.958-.05V17.713a0.262,0.262,0,0,0,0-.249,0.3,0.3,0,0,1-.1-0.1h-2.3Zm-5.092.945c0.084,0.044.063,0.044,0.147,0H21.3Zm0,0.1v0.149h0.2C21.428,18.41,21.541,18.438,21.3,18.409Zm6.9,0.547v0.3a0.658,0.658,0,0,1,.587.2V19.105a0.181,0.181,0,0,0,.049-0.1H28.788v-0.05H28.2Zm0.93,0.05a0.243,0.243,0,0,0,.049.149V19.006H29.131Zm-9.155,1.144v0.1h0.1v-0.1h-0.1ZM21.1,21.442a2.834,2.834,0,0,1,.1-0.5h0.294c-0.021-.118,0-0.484,0-0.746H21.2v0.1a5.058,5.058,0,0,0-.049.7,2.1,2.1,0,0,1-.294.448H21.1Zm17.136-1.094a5.928,5.928,0,0,1,.049.7h0.1v-0.7H38.238Zm-11.7.6H26.1a3.654,3.654,0,0,1,0,.447,1.785,1.785,0,0,0,.538.05,4.385,4.385,0,0,0-.049-0.746H26.536v0.249ZM21,20.845a0.243,0.243,0,0,0,.049.149V20.845H21Zm-0.734.348a0.494,0.494,0,0,0,.343.249Zm-0.147.646a1.581,1.581,0,0,1-.049.4h0.734c0.228-.3.776-0.069,0.93-0.3H21.493A3.183,3.183,0,0,0,20.122,21.84ZM0.343,23.133v0.1H0.392v-0.1H0.343ZM0,23.182a1.251,1.251,0,0,1,0,.8v-0.8Zm0.343,0.8v0.1H0.392A0.171,0.171,0,0,0,.343,23.978Zm37.846,0v0.1h0.2a0.176,0.176,0,0,1,.1-0.05v-0.05H38.189Zm0,0.447v0.1c0.129,0.038.117,0.059,0.245,0.1v-0.05h0.049v-0.05H38.433A0.569,0.569,0,0,0,38.189,24.425Zm-14.345.05v0.1h0.1v-0.1h-0.1Zm0.343,0a0.234,0.234,0,0,0-.147.05h0.049v0.05l0.1,0.05V24.475Zm5.092,0.2v0.2H30.11a1.864,1.864,0,0,0,.147-0.3H30.208v-0.1H29.914v0.249H29.572V24.475h-0.1a0.637,0.637,0,0,1-.049.2H29.278Zm5.826-.2H34.859v0.05a1.048,1.048,0,0,1,.2.3,1.5,1.5,0,0,0,.538-0.149H35.055v-0.05A0.256,0.256,0,0,0,35.1,24.475Zm-10.771.05v0.1h0.049A0.171,0.171,0,0,0,24.333,24.525Zm-23.892.05-0.1.149a1.092,1.092,0,0,0,.343-0.149H0.441Zm24.529,0c0.122,0.122.095,0.062,0.245,0.05C25.214,24.624,25,24.576,24.969,24.575Zm11.505,0-0.049.3h0.245v-0.1a0.256,0.256,0,0,0,.049-0.149h-0.1A0.247,0.247,0,0,0,36.475,24.575Zm-7.491.1a0.637,0.637,0,0,1-.049.2h0.147a0.176,0.176,0,0,1,.1-0.05V24.674h-0.2Zm7.882,0.05c0,0.134-.065.08,0.1,0.149A0.189,0.189,0,0,0,36.867,24.724Zm-0.685.05v0.1H36.23v-0.1H36.181Zm-10.967.2c-0.159.041-.075-0.024-0.147,0.1a0.39,0.39,0,0,1-.049.4h0.147v-0.1A0.8,0.8,0,0,0,25.214,24.972Zm3.28,0.249v0.2l0.685,0.1v-0.2A3.942,3.942,0,0,0,28.495,25.221Zm0.783,0.1a0.3,0.3,0,0,0,0,.2,1.333,1.333,0,0,0,.588.1,0.171,0.171,0,0,1,.049-0.1v-0.1H29.865V25.37Zm2.007,0.249c0.081,0.055.052,0.088,0.1,0h-0.1Zm2.5,0a0.66,0.66,0,0,0,.2.348v-0.3H33.929v-0.05H33.782Zm-12.534.994v0.2h3.427V26.017a3.628,3.628,0,0,0-1.175.1,0.783,0.783,0,0,1-.049.4A9.11,9.11,0,0,1,21.249,26.564Zm3.574-.5a0.653,0.653,0,0,0,.049.348A0.653,0.653,0,0,0,24.823,26.066Zm0.147,0v0.7h2.3V26.514H25.312a3.627,3.627,0,0,0-.1-0.448H24.969Zm-14.3.4,0.294-.05v-0.1a0.515,0.515,0,0,0-.245-0.1v0.1A0.256,0.256,0,0,0,10.673,26.464Zm1.175-.249H11.7a0.3,0.3,0,0,1-.1.1v0.1h0.1a0.248,0.248,0,0,0,.147.05v-0.05H11.9A0.712,0.712,0,0,1,11.848,26.216ZM9.2,26.564a0.723,0.723,0,0,0-.049-0.249H9.106v0.05a0.357,0.357,0,0,0-.1.2H9.2Zm-2.546-.2a0.728,0.728,0,0,0,.1.348H6.805v-0.05a0.339,0.339,0,0,0,.049-0.2,0.18,0.18,0,0,1-.049-0.1H6.659Zm6.707,0.2h0.2v-0.1a0.737,0.737,0,0,0-.2-0.1v0.2Zm20.514-.2a2.642,2.642,0,0,1-.1.4h0.1v-0.05C33.984,26.608,34.035,26.458,33.88,26.365Zm-2.5.2a0.611,0.611,0,0,1-.2-0.05v0.05a1.747,1.747,0,0,0,.147.149v0.05h0.049v-0.2Zm-28.494,0a0.312,0.312,0,0,1,.2.05A0.313,0.313,0,0,1,2.889,26.564Zm17.087,0v0.2h0.979v-0.2H19.976Zm-12.632.7a0.243,0.243,0,0,0-.049-0.149,0.328,0.328,0,0,0-.245-0.1v0.1A0.57,0.57,0,0,0,7.344,27.26Zm1.175,0H8.666a0.9,0.9,0,0,0,.147-0.249H8.666a0.567,0.567,0,0,1-.147.1V27.26Zm5.532,0A0.242,0.242,0,0,0,14,27.111a0.328,0.328,0,0,0-.245-0.1v0.1A0.571,0.571,0,0,0,14.051,27.26Zm1.175,0h0.147a0.9,0.9,0,0,0,.147-0.249H15.373a0.566,0.566,0,0,1-.147.1V27.26Zm16.4-.149v0.1a1.228,1.228,0,0,1,.245.2h0.1v-0.1A1.506,1.506,0,0,0,31.628,27.111Zm1.811,0a0.644,0.644,0,0,0-.2.249v0.05a0.481,0.481,0,0,0,.343-0.3H33.439ZM7.882,27.26a0.566,0.566,0,0,1-.147.1v0.05H7.785a0.523,0.523,0,0,0,.294.05l0.049-.1A1.25,1.25,0,0,0,7.882,27.26Zm6.708,0a0.569,0.569,0,0,1-.147.1v0.05h0.049a0.523,0.523,0,0,0,.294.05l0.049-.1Zm17.772,0.2a0.35,0.35,0,0,0,.343.149,0.416,0.416,0,0,0,.1-0.149H32.362Z" transform="translate(0 0.016)"/>
</svg>
