<svg xmlns="http://www.w3.org/2000/svg" width="39.969" height="40" viewBox="0 0 39.969 40">
  <defs>
    <style>
      .cls-1 {
        fill: #fff;
        fill-rule: evenodd;
      }
    </style>
  </defs>
  <path id="jp_type_95_so_ki_ico" class="cls-1" d="M25.912,13.3c3.188,0,6.455.019,9.721,0v-0.16l0.319,0.032V13.049a0.154,0.154,0,0,1,.1.032c0.088,0.137.024,0.248,0.223,0.288V13.72H36.143v0.032H36.112a0.828,0.828,0,0,1-.064.288H35.984c-0.013-.181-0.065-0.17-0.255-0.16-0.041.079,0.014,0.022-.064,0.064v-0.16H35.347V13.72l-4.367.032v0.064H31.2a0.311,0.311,0,0,0,.255,0,0.622,0.622,0,0,1,.064.288H31.458a1.771,1.771,0,0,1-.8.1,9.352,9.352,0,0,0-2.741-.128V14.3c-0.566.04-1.142,0-1.753,0-0.24.535-.6,1.061-0.861,1.6h2.869v0.064a7.179,7.179,0,0,1,.446,1.47c0.235,0.7.425,1.438,0.669,2.173a4.1,4.1,0,0,1,.287.927h0.128a7.391,7.391,0,0,0,.414,1.342,2.11,2.11,0,0,0,.159.831,6.363,6.363,0,0,0,1.5.032V22.668a0.248,0.248,0,0,1-.223-0.128,2.223,2.223,0,0,1,.032-0.831,0.544,0.544,0,0,1,.574-0.128c0.069-.1.081-0.024,0.223,0v1.086H32.255v0.064h5.673a3.537,3.537,0,0,1,1.179.415v1.534a0.816,0.816,0,0,1,.223.192,0.316,0.316,0,0,0-.032.192c0.122,0.2.323,0.193,0.383,0.32a0.678,0.678,0,0,1,0,.416c0.007,0.035.052,0.1,0.064,0.16a0.416,0.416,0,0,1,.191.128,0.594,0.594,0,0,1,.032.288,0.658,0.658,0,0,0-.159.128,0.951,0.951,0,0,1,.1.671l-0.159.064-0.064.288c0.015,0.087.1,0.066,0.064,0.16a1.046,1.046,0,0,1-.127.256,0.336,0.336,0,0,0-.191.032c-0.049.047-.079,0.113-0.127,0.16a1.38,1.38,0,0,1,.032.224c-0.056.08-.135,0.112-0.191,0.192a1.146,1.146,0,0,0-.223-0.032l-0.159.192,0.032,0.16a0.769,0.769,0,0,0-.159.1l-0.287-.032c-0.024.009-.089,0.077-0.127,0.1a0.36,0.36,0,0,1,0,.16,0.548,0.548,0,0,1-.223.128,0.235,0.235,0,0,0-.191-0.064,0.5,0.5,0,0,0-.128.16,0.179,0.179,0,0,0,0,.128,1.5,1.5,0,0,0-.159.1c-0.208.063-.246-0.124-0.414,0.1a0.35,0.35,0,0,0,0,.16,2.457,2.457,0,0,1-.255.1c-0.06-.05-0.066-0.06-0.127-0.032a0.475,0.475,0,0,0-.223.256,0.505,0.505,0,0,1-.446.1,0.284,0.284,0,0,1-.1.1l0.032,0.16a1.24,1.24,0,0,1-.287.1,0.228,0.228,0,0,0-.128-0.064c-0.049.065-.112,0.091-0.159,0.16-0.014.021-.011,0.1-0.032,0.16a0.552,0.552,0,0,0-.159.1,0.251,0.251,0,0,0-.191-0.032,0.22,0.22,0,0,0-.159.1c-0.068.1,0.026,0.109-.064,0.16-0.047.049-.112,0.079-0.159,0.128a0.658,0.658,0,0,0-.191-0.1c-0.047.066-.154,0.094-0.191,0.16s0.087,0.09-.064.16a0.608,0.608,0,0,1-.383,0,3.765,3.765,0,0,1-.446.352c-0.118.016-.068-0.1-0.127-0.128H32.988a0.336,0.336,0,0,1-.382.16c-0.041-.166-0.108-0.17-0.319-0.16a0.337,0.337,0,0,1-.383.16c-0.066-.139-0.1-0.165-0.319-0.16a0.371,0.371,0,0,1-.1.064v0.1H31.2c-0.066-.139-0.1-0.165-0.319-0.16a0.337,0.337,0,0,1-.383.16c-0.07-.148-0.123-0.168-0.351-0.16a0.34,0.34,0,0,0-.064.16H29.769v-0.1a0.562,0.562,0,0,0-.319-0.064,0.114,0.114,0,0,1-.064.032v0.128H29.068c-0.04-.166-0.108-0.17-0.319-0.16a0.311,0.311,0,0,1-.383.16c-0.04-.166-0.108-0.17-0.319-0.16a0.114,0.114,0,0,1-.064.032v0.128H27.665c-0.044-.157-0.11-0.169-0.319-0.16a0.114,0.114,0,0,1-.064.032,0.091,0.091,0,0,1-.032.032v0.1H26.964c-0.07-.148-0.123-0.168-0.351-0.16a0.114,0.114,0,0,1-.064.032c-0.032.163-.132,0.14-0.319,0.128-0.041-.166-0.108-0.17-0.319-0.16a0.368,0.368,0,0,1-.414.16v-0.1a0.562,0.562,0,0,0-.319-0.064,0.115,0.115,0,0,1-.064.032c-0.031.163-.132,0.14-0.319,0.128-0.044-.157-0.11-0.169-0.319-0.16a0.337,0.337,0,0,1-.383.16c-0.07-.148-0.123-0.168-0.351-0.16a0.114,0.114,0,0,1-.064.032v0.128H23.363c-0.046-.149-0.118-0.166-0.319-0.16a0.371,0.371,0,0,1-.1.064v0.1H22.661c-0.07-.148-0.123-0.168-0.351-0.16a0.115,0.115,0,0,1-.064.032c-0.032.163-.132,0.14-0.319,0.128-0.041-.166-0.108-0.17-0.319-0.16a0.337,0.337,0,0,1-.383.16c-0.07-.148-0.123-0.168-0.351-0.16a0.115,0.115,0,0,1-.064.032c-0.031.163-.132,0.14-0.319,0.128-0.041-.166-0.108-0.17-0.319-0.16a0.337,0.337,0,0,1-.383.16c-0.07-.148-0.123-0.168-0.351-0.16a0.339,0.339,0,0,0-.064.16H19.06c-0.04-.166-0.108-0.17-0.319-0.16a0.336,0.336,0,0,1-.382.16c-0.07-.148-0.123-0.168-0.351-0.16a0.338,0.338,0,0,0-.064.16H17.626c-0.04-.166-0.108-0.17-0.319-0.16a0.115,0.115,0,0,1-.064.032c-0.031.163-.132,0.14-0.319,0.128-0.07-.148-0.123-0.168-0.351-0.16a0.114,0.114,0,0,1-.064.032c-0.032.163-.132,0.14-0.319,0.128-0.04-.166-0.108-0.17-0.319-0.16a0.337,0.337,0,0,1-.383.16c-0.07-.148-0.123-0.168-0.351-0.16a0.339,0.339,0,0,0-.064.16H14.757c-0.04-.166-0.108-0.17-0.319-0.16a0.371,0.371,0,0,1-.1.064v0.1H14.056c-0.07-.148-0.123-0.168-0.351-0.16a0.339,0.339,0,0,0-.064.16H13.323c-0.04-.166-0.108-0.17-0.319-0.16a0.115,0.115,0,0,1-.064.032c-0.031.163-.132,0.14-0.319,0.128-0.04-.166-0.108-0.17-0.319-0.16a0.337,0.337,0,0,1-.383.16c-0.04-.166-0.108-0.17-0.319-0.16a0.337,0.337,0,0,1-.383.16c-0.04-.166-0.108-0.17-0.319-0.16a0.114,0.114,0,0,1-.064.032c-0.032.163-.132,0.14-0.319,0.128-0.044-.157-0.11-0.169-0.319-0.16a0.337,0.337,0,0,1-.382.16c-0.044-.157-0.11-0.169-0.319-0.16a0.337,0.337,0,0,1-.382.16C9.075,31.8,9.008,31.8,8.8,31.808a0.337,0.337,0,0,1-.382.16c-0.066-.139-0.1-0.165-0.319-0.16a0.115,0.115,0,0,1-.064.032,0.173,0.173,0,0,1-.1.128c-0.06-.044-0.188-0.014-0.255-0.064-0.118-.088.047-0.158-0.223-0.192a0.345,0.345,0,0,0-.191-0.032,0.139,0.139,0,0,1-.1.1,4.4,4.4,0,0,1-.892-0.351,1.471,1.471,0,0,1-.1-0.224l-0.255-.032-0.1.16-0.191-.064c-0.026-.074-0.064-0.171-0.1-0.256l-0.287-.032a0.185,0.185,0,0,1-.159.128A0.163,0.163,0,0,0,5,31.073a0.584,0.584,0,0,0-.159-0.256,0.876,0.876,0,0,0-.51.032,0.269,0.269,0,0,0-.255-0.256,0.275,0.275,0,0,0-.159-0.032,0.428,0.428,0,0,1-.064.128l-0.255-.1A0.544,0.544,0,0,0,3.57,30.4a1.584,1.584,0,0,1-.223-0.064,0.361,0.361,0,0,1-.382.064,0.179,0.179,0,0,0-.1-0.192,0.341,0.341,0,0,0-.223-0.064,0.174,0.174,0,0,1-.191.1,0.374,0.374,0,0,0-.159-0.064c-0.006-.146,0-0.161-0.127-0.192a0.823,0.823,0,0,0-.446-0.032,0.546,0.546,0,0,0-.414-0.415,0.166,0.166,0,0,1-.159,0,0.716,0.716,0,0,1-.127-0.192,0.347,0.347,0,0,0,.032-0.192,0.94,0.94,0,0,0-.159-0.128A1.113,1.113,0,0,0,.733,29c-0.06-.057-0.1-0.135-0.159-0.192a1.3,1.3,0,0,0,.1-0.256,0.929,0.929,0,0,0-.127-0.192,0.252,0.252,0,0,0-.127-0.032,0.751,0.751,0,0,1-.064-0.288,0.262,0.262,0,0,0,.127-0.192A1.283,1.283,0,0,1,.287,27.27c0.185-.045.228-0.15,0.223-0.383C0.368,26.8.453,26.722,0.478,26.535a0.316,0.316,0,0,0,.191-0.064,0.627,0.627,0,0,0,.064-0.383l0.159-.224a0.28,0.28,0,0,0,.351-0.256,0.115,0.115,0,0,1-.032-0.064,0.732,0.732,0,0,0,.223-0.192,0.541,0.541,0,0,0,.191.064l0.223-.16a0.58,0.58,0,0,1,0-.1,0.46,0.46,0,0,1,.319-0.128c0.051,0.072.052,0.067,0.1,0.064a0.115,0.115,0,0,0,.032-0.064c0.016-.047-0.027-0.369,0-0.511A20.721,20.721,0,0,1,.287,23.467a0.663,0.663,0,0,1,0-.192l1.084-.384,0.988-.16V22.7a0.639,0.639,0,0,1-.223-0.032v-0.1a1.113,1.113,0,0,1-.542-0.064H2.135a1.106,1.106,0,0,1,0-.352,1.772,1.772,0,0,0-.861-0.288,2.109,2.109,0,0,1-.478.064C0.561,22,.223,22.2.032,22.221A0.8,0.8,0,0,1,0,21.965a3.05,3.05,0,0,0,.064-0.447,3.748,3.748,0,0,1,1.116-.32H1.657l0.127-.16c0.1-.056.231-0.034,0.319-0.1a0.163,0.163,0,0,0,.032-0.1,0.284,0.284,0,0,1,0-.224c0.486,0.012.915,0,1.434,0a3.767,3.767,0,0,0,.892-0.032,2.346,2.346,0,0,0,.988-0.1,4.754,4.754,0,0,1-1.211-.767,1.111,1.111,0,0,1-.064-0.288c-0.155-.009-0.167-0.018-0.191-0.16a1.621,1.621,0,0,0,.032-0.607V17.2a0.414,0.414,0,0,1-.191-0.256H3.857V16.916a10.619,10.619,0,0,0,1.116.032,0.707,0.707,0,0,1,.351-0.1,0.615,0.615,0,0,0,.1.1v-4.41a0.115,0.115,0,0,0,.032-0.064,4.269,4.269,0,0,1,1.626-.1c1.278,0,2.409-.076,2.837.767a4.192,4.192,0,0,1,.159,1.662v1.118h0.223v0.256c0.125-.031.174-0.047,0.191,0.128a0.158,0.158,0,0,0-.128.16L10.518,19.5h3.634a4.887,4.887,0,0,1,.956-0.064V19.025l-0.637-.032q0.016-.479.032-0.959a10.136,10.136,0,0,1-2.869-.192c-0.483-.325-0.545-1.871-0.733-2.557a5.072,5.072,0,0,0-.446-1.023,0.734,0.734,0,0,1-.1-0.319,1.63,1.63,0,0,1,.988-0.32,1.664,1.664,0,0,1,.319.8,1.149,1.149,0,0,0-.542.479,1.33,1.33,0,0,1,.1.415c0.129,0.461.223,1.009,0.351,1.47a1.233,1.233,0,0,0,.255.735,0.163,0.163,0,0,0,.1.032v-0.1a0.576,0.576,0,0,1,.159-0.1,2.069,2.069,0,0,1,.606-0.1,5.742,5.742,0,0,1,1.626-.224,3.18,3.18,0,0,1,.064.543h-2.39v0.032h0.032a1.674,1.674,0,0,0,.414.032,11.045,11.045,0,0,0,2.327-.032c0.043-.173.143-0.276,0.191-0.447H14.98V17.2h0.032l-0.223.447h1.434c-0.028-.489-0.255-0.878-0.287-1.374-0.324,0-.539.061-0.893,0.064a0.349,0.349,0,0,0-.064-0.1,0.109,0.109,0,0,1,.032-0.064,2.976,2.976,0,0,1,1.594-.511,1.653,1.653,0,0,1-.191-0.383,0.347,0.347,0,0,1,.319-0.16,0.565,0.565,0,0,1,.1.128,0.545,0.545,0,0,1-.032.383c0.164,0.031.195,0.052,0.191,0.256-0.232.127-.538,0.21-0.8,0.32a6.308,6.308,0,0,0,.383,1.438,2.044,2.044,0,0,0,.7.224v-2.94a5.6,5.6,0,0,0-.765-0.671,1.194,1.194,0,0,1-1.371.352,1.387,1.387,0,0,1-.733-1.406l-0.861-.064a0.7,0.7,0,0,0-.223-0.128v0.224a1.559,1.559,0,0,0,0,.351,3.226,3.226,0,0,1-.86.032,1.024,1.024,0,0,0-.351-0.351,0.23,0.23,0,0,1,0-.288H11.761V12.634h0.223V12.123h0.191a0.8,0.8,0,0,0,.032-0.256h0.1a1.748,1.748,0,0,1,.223-1.438c-0.029-.078-0.034-0.051-0.064-0.128a1.114,1.114,0,0,1,.191-0.064,0.387,0.387,0,0,0,.446,0,1.453,1.453,0,0,0,.255-0.1l0.064-.128,1.307-.032v0.16h0.287V9.566L16.7,9.534a0.949,0.949,0,0,1-.159.607,2.333,2.333,0,0,1,.478.128V10.205a3.406,3.406,0,0,1-.159-0.639h0.064V9.6a4.362,4.362,0,0,1,.191.767,9.473,9.473,0,0,1,1.02.575c0.334,0.2.686,0.308,1.02,0.511a4.264,4.264,0,0,0,.924.511,5.386,5.386,0,0,1,.255-1.31,2.4,2.4,0,0,1,.127-0.639,1.824,1.824,0,0,0,.924.128v0.032H21.355c-0.061.025,0.064,0.032,0.064,0.032a2.235,2.235,0,0,1,.765.288,10.9,10.9,0,0,1-.191-2.4,1.171,1.171,0,0,1,1.052.192c0.688,0.294,1.421.576,2.072,0.8a5.72,5.72,0,0,0,.223.831l0.032,0.447c0.139,0.5.243,0.973,0.351,1.47a1.848,1.848,0,0,1-.064.32C25.718,12.518,25.877,12.905,25.912,13.3ZM15.426,10.589h0.159v0.575H15.426v0.128H15.139v0.1H14.853v-0.1l-0.574.032v0.16H13.641V11.9l0.1,0.032a2.782,2.782,0,0,0,.988.032h2.55a2.694,2.694,0,0,0-.191-1.278,2.59,2.59,0,0,0-1.689-.256v0.064A0.163,0.163,0,0,1,15.426,10.589Zm2.008,1.406a1.651,1.651,0,0,1,1.02.671c0.189,0.26.141,0.539,0.606,0.543a5.96,5.96,0,0,1,.8-0.1c0.01-.255.091-0.44,0.1-0.735h-0.1V12.186l-2.677-1.47V10.78A4.359,4.359,0,0,1,17.434,11.995Zm4.908-.543c-0.156.465-.08,1.213-0.255,1.694,0.216,0.026.5,0.088,0.765,0.1V13.177a6.28,6.28,0,0,1-.446-1.694ZM6.088,12.73a6.336,6.336,0,0,1-.032,1.119H5.769v2.525H5.8a2.053,2.053,0,0,1,.446-0.064c0.041-.018.1-0.1,0.159-0.128V16.149a0.707,0.707,0,0,1-.542-0.32A3.117,3.117,0,0,0,6.12,15c0.22-.665.4-1.424,0.669-2.077a1.408,1.408,0,0,1,.606.064v0.064a1.786,1.786,0,0,0-.191.575,1.2,1.2,0,0,1,.574.7c0.3,0.483.671,0.961,0.988,1.438a3.684,3.684,0,0,0,.319.543H9.657c0.009-.9.3-2.523-0.159-3.164C9.055,12.532,7.163,12.721,6.088,12.73Zm1.052,1.119c-0.154.415-.236,0.837-0.382,1.278-0.07.21-.2,0.489-0.255,0.7l0.032,0.224-0.127.256H6.693a3,3,0,0,1,.606,0H8.861V16.245A2.241,2.241,0,0,1,8.51,15.7c-0.24-.361-0.534-0.72-0.765-1.087A1.384,1.384,0,0,0,7.139,13.848ZM6.183,19.5V19.76a2.09,2.09,0,0,1-.574.032c-0.01.417,0.018,0.785,0.478,0.767a2.374,2.374,0,0,1,.669-0.032,9.227,9.227,0,0,1,1.147-.1l0.032,0.416H7.968a5.08,5.08,0,0,1,.637-0.479c0.187-.137.355-0.342,0.542-0.479a0.744,0.744,0,0,0,.51-0.383H6.183Zm-0.1,11.888H6.151v0.032A0.109,0.109,0,0,1,6.088,31.393Zm0.1,0.032H6.247v0.032A0.109,0.109,0,0,1,6.183,31.425Z"/>
</svg>
