<?xml version="1.0" encoding="utf-8"?>
<!-- Generator: Adobe Illustrator 16.0.0, SVG Export Plug-In . SVG Version: 6.00 Build 0)  -->
<!DOCTYPE svg PUBLIC "-//W3C//DTD SVG 1.1//EN" "http://www.w3.org/Graphics/SVG/1.1/DTD/svg11.dtd">
<svg version="1.1" id="Layer_1" xmlns="http://www.w3.org/2000/svg" xmlns:xlink="http://www.w3.org/1999/xlink" x="0px" y="0px"
	 width="40px" height="40px" viewBox="0 0 40 40" enable-background="new 0 0 40 40" xml:space="preserve">
<path id="jp_type_5_ho_ri_prototype_ico" fill="#FFFFFF" d="M9.259,12.243h3.472c0.438,0.077,0.889,0.027,1.3-0.142
	c0.038,0.027,0.071,0.059,0.1,0.095c0.075-0.015,0.148-0.039,0.217-0.071c0.05,0.019,0.099,0.043,0.145,0.071
	c0.016-0.058,0.051-0.108,0.1-0.143c0.054,0.044,0.11,0.083,0.169,0.119c0.13-0.117,0.139,0,0.313,0.024
	c0.014-0.039,0.039-0.072,0.072-0.095c0.229,0.097,0.475,0.146,0.723,0.142v-0.072h0.241c0.042,0.2,0.179,0.372,0.217,0.593h0.844
	v-0.142h1.688c0.306-0.026,0.614-0.01,0.916,0.047c0.211,0.071,0.402,0.194,0.555,0.356c0.073,0.143,0.162,0.277,0.265,0.4h0.651
	c0.142,0.035,0.289,0.043,0.435,0.024l0.963,0.024c0.188,0.04,0.481-0.023,0.7,0.024c0.632,0.134,1.442-0.039,2.073,0.095h0.675
	c0.412,0.087,0.976-0.042,1.4,0.047c0.28,0.033,0.563,0.041,0.844,0.024l1.037,0.024h1.157c0.408,0.045,0.82,0.053,1.229,0.024
	l2.039,0.026l2.821,0.047c0.578-0.044,1.159-0.037,1.736,0.024c0.193,0.026,0.391,0.01,0.578-0.047h0.916v0.83
	c-0.313,0.024-0.629,0.009-0.939-0.047l-1.52,0.024c-0.426-0.031-0.854-0.022-1.277,0.024h-0.432
	c-0.506-0.038-1.014-0.03-1.519,0.024H33.73c-0.506-0.039-1.014-0.03-1.519,0.024l-3.905,0.024l-6.68,0.237v0.024
	c0.098,0.125,0.164,0.271,0.193,0.427c0.295-0.05,0.594-0.066,0.892-0.047c0.032,0.058,0.048,0.124,0.048,0.19
	c0.402-0.062,0.794,0.166,0.94,0.546h0.048V15.9h0.242v0.142h0.048c0.137,0.083,0.331,0.06,0.458,0.142
	c0.328,0.27,0.485,0.696,0.41,1.115c0.16,0,0.3,0.014,0.434,0.024v-1.948h0.072v1.945c0.166-0.008,0.293-0.008,0.458,0v0.071
	l1.3-0.024c0.09-0.104,0.233-0.142,0.362-0.095v0.071h0.048c0.021,0.016,0.046,0.024,0.072,0.024
	c0.014-0.039,0.039-0.071,0.072-0.095c0.059,0.014,0.071,0.056,0.1,0.024c0.036-0.043,0.089-0.068,0.145-0.071
	c0.015,0.038,0.023,0.078,0.024,0.119h0.12c0.03,0.042,0.047,0.091,0.048,0.142c0.442,0.051,0.774,0.357,1.229,0.4v-0.044
	c0.016-0.021,0.024-0.045,0.024-0.07c0.079-0.016,0.16-0.023,0.241-0.024c0.03,0.05,0.063,0.097,0.1,0.142
	c0.166,0.009,0.325,0.066,0.458,0.166c0.056-0.039,0.125-0.057,0.193-0.048c0.056,0.04,0.104,0.087,0.145,0.142
	c0.042,0.031,0.093,0.047,0.146,0.048c0.031-0.067,0.096-0.112,0.169-0.119v0.19c0.263,0.112,0.541,0.172,0.819,0.284
	c0.124,0.067,0.253,0.123,0.387,0.166c0.08,0.013,0.047-0.036,0.072-0.047c0.096-0.012,0.192-0.012,0.289,0l0.066,0.215l0.266,0.024
	v-0.143h0.071c0.021,0.046,0.036,0.094,0.048,0.143c0.357-0.037,0.842-0.04,1.085-0.096V18.7h0.072
	c0.007,0.065,0.022,0.129,0.048,0.19c0.086-0.016,0.168-0.049,0.241-0.096c0.115-0.17,0.189-0.365,0.217-0.568
	c0.233,0.036,0.437,0.176,0.556,0.379c-0.012,0.035-0.027,0.066-0.049,0.096c0.078,0.02,0.037-0.012,0.072,0.047
	c0.023,0.045,0.023,0.098,0,0.143c-0.113,0.021-0.205,0.104-0.241,0.213h0.024c0.021,0.025,0.046,0.049,0.072,0.07
	c0.121-0.054,0.255-0.07,0.386-0.047v0.143h-0.19v0.095h0.193V19.5c-0.423,0-0.831-0.046-1.301-0.047V19.6
	c0.324,0.071,0.615,0.252,0.916,0.332h0.893l0.771-0.023c0.271,0.053,0.548,0.061,0.82,0.023c0.191-0.034,0.387-0.042,0.579-0.023
	V20.1c-0.409,0.027-0.921,0.047-1.399,0.047v0.047h1.229c0.12,0.021,0.241,0.029,0.362,0.024c0.113,0.026,0.277,0.071,0.386,0.095
	l0.265-0.023c0.125,0.027,0.246,0.066,0.362,0.119c0.03,0.052,0.056,0.107,0.072,0.166c0.075,0.056,0.155,0.104,0.241,0.142
	c0.191,0.045,0.352,0.177,0.434,0.356c-0.163,0.17-0.334,0.339-0.506,0.5c-0.006,0.063-0.006,0.127,0,0.189
	c0.011,0.08,0.068,0.145,0.145,0.166c0.049,0.096,0.059,0.207,0.024,0.309c0.106,0.011,0.125,0.017,0.146,0.119
	c-0.053,0.025-0.095,0.066-0.121,0.119c0.025,0.06,0.033,0.125,0.024,0.189c0.026,0,0.052,0.008,0.072,0.023
	c-0.011,0.016-0.101,0.356-0.101,0.356c0.031,0.044,0.057,0.091,0.072,0.142c-0.105,0.01-0.193,0.086-0.217,0.19l0.072,0.024
	c-0.024,0.072-0.065,0.137-0.12,0.189c-0.022,0.014-0.047,0.021-0.072,0.024c-0.015,0.032-0.065,0.093-0.071,0.118
	c-0.021,0.086,0.053,0.121,0.023,0.166c-0.045,0.021-0.096,0.03-0.145,0.024c-0.053,0.155-0.117,0.307-0.193,0.451
	c-0.035,0.011-0.069,0.027-0.1,0.048c0.004,0.27-0.012,0.54-0.049,0.807c-0.053,0.047-0.129,0.057-0.193,0.024
	c-0.021-0.253-0.029-0.506-0.023-0.759h-0.02c-0.166,0.162-0.4,0.158-0.58,0.332c0.02,0.012,0.037,0.027,0.049,0.047
	c-0.082,0.02-0.156,0.061-0.217,0.119c-0.057-0.033-0.014-0.04-0.072-0.024c-0.129,0.032-0.186,0.107-0.313,0.142
	c0,0.069,0.022,0.033,0,0.072c-0.055,0.053-0.121,0.094-0.193,0.118c-0.014,0-0.012-0.056-0.049-0.047
	c-0.117,0.054-0.23,0.118-0.338,0.19c0.011,0.068,0.041,0.029-0.023,0.07c-0.048,0.045-0.105,0.077-0.169,0.096
	c0,0-0.032-0.068-0.048-0.047v0.023l-0.313,0.166c0,0.075,0.041,0.032-0.024,0.071c-0.178,0.093-0.363,0.171-0.555,0.237
	c0,0.068,0.023,0.032,0,0.07c-0.059,0.035-0.115,0.075-0.169,0.119c-0.03-0.021-0.064-0.037-0.1-0.047
	c-0.099,0.072-0.204,0.136-0.313,0.189c0.016,0.021,0.024,0.046,0.024,0.071c-0.17,0.023-0.334,0.08-0.481,0.166
	c-0.072,0.101-0.174,0.175-0.289,0.213c-0.031,0.032-0.024-0.044-0.121-0.024c-0.109,0.037-0.223,0.062-0.338,0.072v0.07
	l-0.265,0.023v-0.079h-0.41v0.071H33.08v-0.071h-0.434v0.071h-0.241v-0.071h-0.435v0.071h-0.24v-0.071H31.3v0.071h-0.245v-0.071
	h-0.434v0.071H30.38v-0.071h-0.435v0.071h-0.264v-0.071h-0.387v0.071h-0.24v-0.071h-0.41v0.071H28.4v-0.071h-0.41v0.071h-0.238
	v-0.071h-0.41v0.071H27.1v-0.071h-0.385v0.071h-0.24v-0.071h-0.41v0.071h-0.241v-0.071h-0.41v0.071h-0.241v-0.071h-0.41v0.071h-0.24
	v-0.071h-0.41v0.071H23.87v-0.071h-0.386v0.071h-0.266c0-0.105-0.216-0.08-0.386-0.071v0.071h-0.241v-0.071h-0.41v0.071h-0.24
	v-0.071h-0.41v0.071H21.29v-0.071h-0.41v0.071h-0.241v-0.071h-0.386v0.071h-0.265v-0.071H19.6v0.071h-0.239v-0.071h-0.41v0.071
	H18.71v-0.071H18.3v0.071h-0.241v-0.071h-0.41v0.071h-0.241v-0.071H17c0,0.114-0.073,0.077-0.241,0.071v-0.071h-0.388v0.071H16.13
	v-0.071h-0.41v0.071h-0.241v-0.071h-0.41v0.071h-0.241v-0.071h-0.41v0.071h-0.241v-0.071h-0.41c0,0.114-0.074,0.077-0.241,0.071
	v-0.071H13.14v0.071H12.9v-0.071h-0.41v0.071h-0.242v-0.071h-0.41v0.071H11.6v-0.071h-0.41v0.071h-0.244v-0.071h-0.41v0.071H10.3
	v-0.071H9.91v0.071H9.668v-0.071H9.259v0.071H9.017v-0.071H8.608v0.071H8.366v-0.071H7.957v0.071H7.715v-0.071H7.306v0.071H7.065
	v-0.071h-0.41c-0.063,0.046-0.142,0.063-0.217,0.047c-0.15-0.087-0.313-0.151-0.482-0.19c0,0.02-0.008,0.037-0.024,0.047
	c-0.067-0.025-0.132-0.057-0.193-0.095V26.62c-0.183-0.098-0.377-0.169-0.579-0.213c0-0.069,0.023-0.033,0-0.071
	c-0.088-0.08-0.228-0.107-0.313-0.189c-0.057,0.032-0.014,0.039-0.072,0.023L4.581,26.1c0.01-0.054,0.022-0.025,0-0.07
	C4.41,25.92,4.223,25.84,4.026,25.792c0-0.075,0.041-0.032-0.024-0.071c-0.17-0.109-0.358-0.189-0.555-0.236l0.024-0.071
	c-0.116-0.03-0.224-0.087-0.313-0.166c-0.06,0.017-0.045,0.056-0.072,0.024c-0.12-0.057-0.227-0.137-0.313-0.237
	c-0.192-0.118-0.277-0.062-0.482-0.19c0.039,0.123,0.012,0.258-0.072,0.356c-0.045,0.022-0.099,0.022-0.145,0v-0.05
	c-0.032-0.182-0.048-0.366-0.049-0.551L1.9,24.628c-0.032-0.046-0.124-0.076-0.145-0.119l0.024-0.095
	c-0.039-0.1-0.2-0.157-0.241-0.285c-0.07,0-0.033,0.023-0.072,0c-0.123-0.193-0.197-0.413-0.217-0.641
	c-0.071,0.009-0.03,0.039-0.072-0.024c-0.031-0.148-0.031-0.302,0-0.451c-0.037-0.123-0.053-0.251-0.048-0.38
	c0.028-0.037,0.062-0.068,0.1-0.095c0.071-0.147,0.105-0.311,0.1-0.474c0.044-0.039,0.079-0.088,0.1-0.143
	c0.07,0,0.033,0.023,0.072,0c0.042-0.035,0.069-0.087,0.072-0.142C1.051,21.721,0.524,21.713,0,21.757V21.4
	c0.348-0.288,0.671-0.605,0.964-0.949C1.138,20.363,1.257,20.193,1.278,20c0.025-0.068,0.033-0.141,0.022-0.212l-0.434-0.024
	l0.024-0.07c-0.13,0-0.15-0.008-0.169-0.119C0.789,19.391,0.806,19.192,0.772,19c0.1-0.57,0.1-1.229,0.217-1.779
	c-0.059-0.031-0.016,0.01-0.048-0.047c0.126-0.096,0.24-0.207,0.338-0.332c0.089,0.047,0.193,0.056,0.289,0.024l0.41-4.626h7.208
	V8.779C9.143,8.187,9.151,7.591,9.21,7c0.013,0.013,0.021,0.029,0.024,0.047c0.034,0.131,0.042,0.267,0.024,0.4v4.792L9.259,12.243z
	"/>
</svg>
