<svg xmlns="http://www.w3.org/2000/svg" width="80" height="40" viewBox="0 0 80 40">
  <defs>
    <style>
      .cls-1 {
        fill: #fff;
        fill-rule: evenodd;
      }
    </style>
  </defs>
  <path id="jp_type_11_pt_15_ico" class="cls-1" d="M39.364,15.707h0.205c0.024-.748.041-1.634,0.041-2.447a2.76,2.76,0,0,1,.041-1v2.572a6.1,6.1,0,0,1,.041.954c-0.261.179-.267,0.063-0.246,0.539h0.492A6.108,6.108,0,0,0,40.1,15a0.2,0.2,0,0,1-.123-0.041H39.938V14.836H39.815V14.753h0.123V14.587h0.082c0.023,0.268.161,0.267,0.452,0.249a2.78,2.78,0,0,1,.41-0.166v0.415c0.051,0.065.026,0.021,0,.083-0.053.1,0.018,0.028-.082,0.083a1.164,1.164,0,0,0-.575-0.166c0,0.353.071,0.374,0.082,0.747h0.9v0.415a1.3,1.3,0,0,1,.944.332H41.991c0.021,0.316.041,0.706,0.041,1.079h0.123v0.5a0.2,0.2,0,0,0-.123.041,1.263,1.263,0,0,0-.041.539l1.765,0.29a1.375,1.375,0,0,0,.616.332V19.4H44.33a0.319,0.319,0,0,0-.123.125,2.268,2.268,0,0,0,0,1.079,0.469,0.469,0,0,1,.246,0,0.118,0.118,0,0,1-.041.041c-0.1.055-.121-0.044-0.205,0.083a1.864,1.864,0,0,0-.041.705v1.7a0.2,0.2,0,0,0,.123-0.041,2.305,2.305,0,0,0,.123-1.244h0.616v0.581a0.2,0.2,0,0,0,.123-0.041,1.188,1.188,0,0,0,.369-0.83l1.765-.083q0.021-.871.041-1.742h0.082v1.742a3.069,3.069,0,0,0,1.149-.125,0.192,0.192,0,0,1-.205-0.083,0.434,0.434,0,0,0,.493-0.415,0.335,0.335,0,0,1,.123-0.332H48.476V20.477a1.768,1.768,0,0,0,1.273-.373,1.463,1.463,0,0,0,.123-0.207H49.749l-0.041-.373a0.454,0.454,0,0,1,.328-0.125,1.65,1.65,0,0,0,.369-0.041c0.049,0.08.178,0.351,0.205,0.373a1.615,1.615,0,0,1,.41.207,0.434,0.434,0,0,0-.082.249h0.246a0.384,0.384,0,0,0,.123-0.207c-0.1-.054-0.028.018-0.082-0.083,0.124-.041.123-0.082,0.246-0.124a1.1,1.1,0,0,0,.411.124v0.041a0.362,0.362,0,0,0-.041.207,1.874,1.874,0,0,0,.452.041v0.124a3.53,3.53,0,0,1,.821.083,8.616,8.616,0,0,0,1.313,0c1.007,0,2.1,0,3.038-.042v0.332c-1-.04-2.141-0.041-3.2-0.041a5.669,5.669,0,0,0-1.149,0c-0.177.119-.073,0.087-0.411,0.083,0.017,0.094.038,0.045,0,.125a4.062,4.062,0,0,1-.944.083v0.041c0.427,0.007.247,0.08,0.451,0.207l0.821,0.041-0.041.249h0.862l0.041-.29,3.284-.207v0.083a1.309,1.309,0,0,0-.164.373h2.093a7.093,7.093,0,0,1,.123-1.825c0.041,0.492.079,1.667,0.369,1.825h1.149v-0.29H60.626V20.975h0.7v0.166H61.2v0.29h1.026c0.034-.556.119-1.093,0.123-1.7h0.082v1.286h0.041a1.842,1.842,0,0,1,.739-0.042v0.166H63.089v0.29L64.4,21.473V21.141H64.279V20.975h0.739v0.166H64.895v0.332h0.287V21.39c0.258-.435-0.083-1.372.205-1.784a16.547,16.547,0,0,1,0,1.867,3.284,3.284,0,0,0,.9-0.125V21.39a0.252,0.252,0,0,0-.082.083H66.29a0.441,0.441,0,0,0,.246.041V21.431a0.45,0.45,0,0,1-.123-0.083,2.889,2.889,0,0,0,.821.166,1.48,1.48,0,0,0-.041-0.456h0.164V20.892H67.44A0.275,0.275,0,0,1,67.6,20.85a0.117,0.117,0,0,0,.041.041v0.041H67.44v0.125h0.821l0.041-.125a0.34,0.34,0,0,1-.205-0.041h0.041A0.275,0.275,0,0,1,68.3,20.85a0.18,0.18,0,0,0,.123.124,6.042,6.042,0,0,1,.164-1.369,12.4,12.4,0,0,1,0,1.369h0.451V21.1c0.19-.022.106-0.066,0.205-0.125a1.082,1.082,0,0,0,.246.125,3.705,3.705,0,0,0,.7-0.083,1.9,1.9,0,0,1,.041.539h0.657a0.581,0.581,0,0,0-.082-0.249h0.41V21.39c-0.1.061-.063,0.018-0.082,0.166h0.41c0.038-.644.22-1.234,0.246-1.95h0.041v0.042h0.041a7.8,7.8,0,0,0,0,1.7l0.246,0.042v-0.5a0.213,0.213,0,0,1-.041-0.124h0.41l-0.082.622h0.739a4.1,4.1,0,0,0-.041-0.581h0.451a2.547,2.547,0,0,0-.082.622,0.7,0.7,0,0,1,.575.083,0.253,0.253,0,0,0-.082.083h0.37a8.816,8.816,0,0,0,.369-0.913c0.085-.293-0.011-0.719.082-1a0.64,0.64,0,0,0,.205.041,23.656,23.656,0,0,1,0-2.447c0.081-.046.074-0.025,0.164,0a5.085,5.085,0,0,0-.041,1.244V21.6l1.437,0.041V21.473a0.576,0.576,0,0,1,.164-0.041v0.041h0.041v0.166a16.249,16.249,0,0,0,2.668.041V21.348H79.59V21.68h0.041v0.041a1.112,1.112,0,0,1,.369.042v0.083c-0.8.443-1.521,1.739-2.134,2.447-0.954,1.1-1.968,2.222-2.832,3.4a9.074,9.074,0,0,1-3.94,3.4c-1.674.6-4.711,0.373-6.937,0.373H18.1c-0.883.2-1.908,0.232-2.791,0.415A1.137,1.137,0,0,1,14.9,31.8a7.131,7.131,0,0,0-1.19.166c-1.286.306-2.736,0.318-4.023,0.622l-1.437.166a1.288,1.288,0,0,1-.164.207,5.426,5.426,0,0,1-.985.124V32.963H6.9c0,0.132.049,0.1-.123,0.124l0.082,0.871A0.577,0.577,0,0,1,6.691,34a0.938,0.938,0,0,1-.123-0.871H6.485a0.539,0.539,0,0,1-.287.041,0.487,0.487,0,0,1-.082-0.415L6.4,32.673a0.994,0.994,0,0,1-.082-0.415H6.075a0.437,0.437,0,0,1-.082-0.249c-0.051-.065-0.026-0.021,0-0.083,0.054-.139.063-0.12,0.246-0.124a0.208,0.208,0,0,1,.123-0.041,1.613,1.613,0,0,0-.082-0.29,4.767,4.767,0,0,0-1.272-.041v0.083a9.177,9.177,0,0,0-.493,1.825h-0.9V31.47H3.2V31.428H3.161c0.01-1.5-.425-2.862-0.452-4.355a4.677,4.677,0,0,0-2.422-.5V26.409H0.041L0,26.284a0.291,0.291,0,0,0,0-.207L2.134,26.16V24.418a4.1,4.1,0,0,1-1.026-.581,3.057,3.057,0,0,0,.041-1.12H2.011a6.8,6.8,0,0,0,.041,1.2H2.175a0.629,0.629,0,0,1,.369-0.083,0.921,0.921,0,0,1,.082-0.456H2.381V23.3H2.627c0-.543-0.117-1.185-0.082-1.576H2.668c0.051,0.345.061,1.355,0.41,1.535,0.061-.105.087-0.083,0.246-0.083V23.007c-0.143,0-.136-0.005-0.123-0.249a0.15,0.15,0,0,1-.041-0.083c0.143,0,.136-0.005.123-0.249A0.213,0.213,0,0,1,3.243,22.3H3.284a0.352,0.352,0,0,0,.205.041,5.656,5.656,0,0,1,.616,1H4.228v0.207a1.285,1.285,0,0,0,.246.249,0.352,0.352,0,0,0,.205.041V23.588H4.556V23.381H5.3v0.207H5.131V23.8h0.78c0-.678-0.014-1.418-0.041-2.033H5.911a1.381,1.381,0,0,0,.493,0l0.164-.207a3.733,3.733,0,0,1,.78.041,0.547,0.547,0,0,0,.164-0.083V21.473H6.444a1.189,1.189,0,0,1-.493,0C5.891,21.3,5.932,21.3,5.623,21.307a2.744,2.744,0,0,0-1.272-.124l-3.161.041V20.975l3.078,0.042h1.19a1.831,1.831,0,0,1,.9-0.125A0.763,0.763,0,0,1,6.4,20.519v0.29a1.428,1.428,0,0,1,.41-0.083,0.369,0.369,0,0,0-.082-0.29l0.534-.083a0.366,0.366,0,0,0,.123.124l-0.041.207a1,1,0,0,0,.369.083,2.2,2.2,0,0,0-.082-0.332c0.418,0.031.288-.389,0.657-0.456a0.557,0.557,0,0,1,.657.415,0.484,0.484,0,0,0-.082.373,2.367,2.367,0,0,1,.739.29,3.285,3.285,0,0,1,.575.041H10.015a4.065,4.065,0,0,0,.082,1.244,0.274,0.274,0,0,0,.164.042V22.8l-1.56.041V23.63a4.044,4.044,0,0,1,.575.125l1.355-.042a5.957,5.957,0,0,1,.041-1.991,5.6,5.6,0,0,0,.041,1.037,6.581,6.581,0,0,1,.41.954,16,16,0,0,0,1.97-.083l0.082-.581a0.374,0.374,0,0,1-.328-0.249,0.282,0.282,0,0,1-.041-0.166c-0.508,0-.99.06-1.4,0.083a0.653,0.653,0,0,0-.287-0.373c0.147-.017.1,0.02,0.164-0.083a0.766,0.766,0,0,1-.082-0.581h0.123a0.918,0.918,0,0,1,.082-0.415,0.637,0.637,0,0,1,.205-0.041,0.957,0.957,0,0,0,.78,0l0.041-.249a0.618,0.618,0,0,1,.164-0.083,0.353,0.353,0,0,1,.205-0.041V20.643h0.082v0.083a0.319,0.319,0,0,0,.123.125,0.634,0.634,0,0,1,.328.041,0.2,0.2,0,0,1,.041-0.124v0.207a0.745,0.745,0,0,1-.246.042v0.166l-0.246-.042v0.166h2.75a1.228,1.228,0,0,0,.082-0.5,0.151,0.151,0,0,1-.041-0.083h1.231v0.083a0.282,0.282,0,0,0,.123.5V21.1h0.41v0.207h0.041a0.265,0.265,0,0,1,.246,0V21.058c0.185-.308-0.105-1.022.082-1.327v1.286h0.657V20.477a0.963,0.963,0,0,0-.328.041c-0.037-.1-0.044-0.066-0.082-0.166a0.166,0.166,0,0,0,.082-0.166,0.2,0.2,0,0,1-.123-0.041c0.133-.034.063,0.02,0.123-0.083-0.029-.054-0.1-0.09,0-0.124a0.2,0.2,0,0,1,.041-0.124,0.44,0.44,0,0,0,.246.041,0.2,0.2,0,0,1,.041-0.124,0.415,0.415,0,0,0,.164.207,2.067,2.067,0,0,0,0-.705h0.123l0.041-.249a0.263,0.263,0,0,1-.164-0.041h0.082a0.426,0.426,0,0,1,.328,0v0.29a3.942,3.942,0,0,0,.369.166,2.58,2.58,0,0,1,.616-0.041,11.758,11.758,0,0,1,2.134-.166V18.154H22a2.06,2.06,0,0,1-.082-1.41,7.15,7.15,0,0,1,1.847-.041h4.023a0.148,0.148,0,0,0,.082.041v0.083a2.526,2.526,0,0,1-.041,1.244,0.433,0.433,0,0,1-.205.083v0.207h1.437V18.279h0.7a0.2,0.2,0,0,0,.205.083V18.154H29.759l0.041-1.41a0.457,0.457,0,0,0,.205,0,0.319,0.319,0,0,1,.123-0.124,1.225,1.225,0,0,0,.534.041V16.578a4.322,4.322,0,0,1-.451-0.954c-0.377-.741-0.742-1.519-1.108-2.281H28.651a4.979,4.979,0,0,1-.041,1.327H28.527a4.386,4.386,0,0,1-.082-1.535H28.24V13.052H28.4c0.016-.165.081-0.167-0.041-0.249a0.807,0.807,0,0,1-.164.083V12.513H28.24a0.353,0.353,0,0,0,.205.041,3.838,3.838,0,0,0-.7-1.991c-0.37-.844-0.725-1.61-1.108-2.406a0.251,0.251,0,0,1-.164.083l-0.041-.622a0.2,0.2,0,0,0,.082-0.207H26.352a0.993,0.993,0,0,1-.287.29,0.2,0.2,0,0,0-.041-0.124,1.315,1.315,0,0,1-.41.332V7.825a2.127,2.127,0,0,1,.9-0.539V6.83h0.123V7.286h0.246a1.516,1.516,0,0,0,.657.539V7.908H27.5a0.673,0.673,0,0,0-.369-0.249V7.742a0.226,0.226,0,0,1,.123.166H27.214a0.86,0.86,0,0,0-.575-0.5,0.931,0.931,0,0,0,.616,1.079c0.034-.135-0.02-0.063.082-0.124V8.489H27.5V8.572H27.419c-0.139.1-.24,0.035-0.287,0.249a1.056,1.056,0,0,1,.246.539h0.287V9.194h0.082V9.36h0.164V9.443a1.335,1.335,0,0,0-.41.124,2.124,2.124,0,0,1,.41.913h0.246V10.19h0.493a1.633,1.633,0,0,0,.041.373,1.449,1.449,0,0,0-.575.249c0.163,0.181.2,0.487,0.369,0.664,0.077-.074.032-0.077,0.123-0.041a4.09,4.09,0,0,1,.041.456,6.221,6.221,0,0,0,.616,1.162h1.272A0.275,0.275,0,0,1,30.7,13.01V12.8h-0.7v-0.83h0.7c-0.059-.409-0.383-0.346-0.9-0.332v-0.29a6.678,6.678,0,0,1,2.134.124v0.083a4.533,4.533,0,0,1-.657.083c-0.037.167-.091,0.149-0.123,0.332h0.164V12.8c0.143,0,.136.005,0.123,0.249h0.123v-0.29h0.164v0.29h0.164V12.886h0.082v0.166h0.369v0.124l-1.149.249v0.5h0.041a0.753,0.753,0,0,1,.369-0.041v0.166a3.147,3.147,0,0,0,.821-0.166v0.456H32.386a1.243,1.243,0,0,0-.78-0.166V14.3h0.205v0.332a2.257,2.257,0,0,0-.616.124v3.319a0.554,0.554,0,0,1,.041.29h0.41a0.117,0.117,0,0,1,.041-0.041,5.625,5.625,0,0,1,.411-1.784,0.2,0.2,0,0,1-.123-0.041H32.1V16.163L32.714,16.2V16.163h0.041a0.767,0.767,0,0,1-.041-0.249H32.55a0.962,0.962,0,0,0-.205-0.29,0.454,0.454,0,0,1-.041-0.249,0.622,0.622,0,0,0,.287-0.207h0.575v0.664H32.919a0.553,0.553,0,0,0-.082.332,0.361,0.361,0,0,1,.041.207,0.117,0.117,0,0,0-.041.041,0.719,0.719,0,0,0-.534.041v0.042a1.073,1.073,0,0,0,.246.083,9.551,9.551,0,0,1,1.19-.125c0.088-.038.185-0.209,0.287-0.249a1.03,1.03,0,0,1,.944.249h0.534V16.37a1.324,1.324,0,0,1-.205-0.747,1.412,1.412,0,0,1,.493-0.083,1.3,1.3,0,0,1,.78,0,1.617,1.617,0,0,1,.616.622,0.116,0.116,0,0,0,.041-0.041,0.474,0.474,0,0,0,.205-0.456l0.205-.042a1.628,1.628,0,0,1,.205-0.747v0.041h0.041a2.112,2.112,0,0,0-.164.705H37.8a0.208,0.208,0,0,0,.123.042v0.249H37.8v0.373h0.082a3.585,3.585,0,0,0,1.313.041Q39.22,11.165,39.241,6h0.082v9.333A0.776,0.776,0,0,1,39.364,15.707ZM25.983,7.742c0.019,0.089.039,0.043-.041,0.124V7.908H25.9A0.555,0.555,0,0,1,25.983,7.742Zm1.19,0.539a0.429,0.429,0,0,1,.246.041A0.429,0.429,0,0,1,27.173,8.281Zm4.6,4.48a0.631,0.631,0,0,1,.328.042A0.631,0.631,0,0,1,31.77,12.762ZM14.982,31.594a0.532,0.532,0,0,1,.041-0.166H11.329a3.606,3.606,0,0,1-.944.125,11.026,11.026,0,0,1-2.175.29c-0.065.2-.188,0.378-0.246,0.622a6.679,6.679,0,0,0,2.093-.207Z"/>
</svg>
