<svg xmlns="http://www.w3.org/2000/svg" width="40" height="40" viewBox="0 0 40 40">
  <defs>
    <style>
      .cls-1 {
        fill: #fff;
        fill-rule: evenodd;
      }
    </style>
  </defs>
  <path id="jp_type_97_kai_ico" class="cls-1" d="M25.484,12.344l-0.023.185a1.721,1.721,0,0,0-.461.023,0.53,0.53,0,0,0-.092.371c0.179,0.025.241,0.031,0.23,0.255a4.044,4.044,0,0,1,1.06.255,0.334,0.334,0,0,1,.023-0.116,2.75,2.75,0,0,0,.346.023,0.676,0.676,0,0,0,.115.139,0.843,0.843,0,0,0,.254-0.023c0.055,0.018.165,0.141,0.253,0.069,0.046,0.036.1,0.032,0.161,0.069a0.842,0.842,0,0,1,.069.139l0.207,0.046a0.954,0.954,0,0,0,.161.162,2.9,2.9,0,0,1,.461.185v0.579h0.184V14.637a0.206,0.206,0,0,0,.069-0.069,0.064,0.064,0,0,1,.023.023,0.118,0.118,0,0,1,.069.116h1.728V14.637a0.243,0.243,0,0,1,.115-0.046,0.248,0.248,0,0,1,.046.116h0.991a0.112,0.112,0,0,1,.023-0.069,0.155,0.155,0,0,1,.115-0.046,0.247,0.247,0,0,1,.046.116H31.82v0.209h0.046a2.314,2.314,0,0,0,.737.046l1.567,0.023c1.821,0,3.679.069,5.484,0.069v0.533c-2.566-.005-5.211.071-7.765,0.116V16a1.589,1.589,0,0,0-.369.232c-0.192.122-.383,0.2-0.576,0.324a1.6,1.6,0,0,1-.254.185H28.249v0.672a0.2,0.2,0,0,0-.138.069,0.191,0.191,0,0,1,0,.209h0.115a0.762,0.762,0,0,1,.092-0.093,0.755,0.755,0,0,0,.53.093,0.2,0.2,0,0,1,.138-0.093,0.556,0.556,0,0,1,.092.093h0.277c0.117,0.037.238,0.127,0.369,0.162a0.146,0.146,0,0,1,.046-0.116,1,1,0,0,1,.576.3s-0.067.03-.046,0.046h0.023a2.62,2.62,0,0,0,.346.139c0.087,0.055.164,0.171,0.254,0.232a0.949,0.949,0,0,1-.092.209H30.9a0.3,0.3,0,0,1,.161-0.023,0.4,0.4,0,0,1,.069.232,0.319,0.319,0,0,0-.069.394l1.083,0.116v0.046a0.2,0.2,0,0,1-.023.208H32.9a10.145,10.145,0,0,1,1.244-.046,7.225,7.225,0,0,1,1.359-.07H36.06a2.706,2.706,0,0,1,.783-0.023,1.6,1.6,0,0,1,.576,1h0.092l0.023-.232h0.438V20.2h0.069v0.07h0.069v0.371a0.3,0.3,0,0,1,.161.07,0.3,0.3,0,0,1,.207-0.162,0.264,0.264,0,0,0,.069.046,0.155,0.155,0,0,0,0,.139c0.043-.041.018-0.043,0.069-0.023a0.522,0.522,0,0,1,.184.162c0.043-.041.018-0.043,0.069-0.023,0.071,0.028.052,0.009,0.069,0.093a0.118,0.118,0,0,0-.023.07,0.625,0.625,0,0,1,.161.093v0.023a0.5,0.5,0,0,0-.115.046,0.142,0.142,0,0,0,.046.046,0.6,0.6,0,0,1,.254.046,0.7,0.7,0,0,1,.023.255,0.155,0.155,0,0,0,.161.093,0.31,0.31,0,0,0,.092-0.023,0.516,0.516,0,0,0,.115.232,0.08,0.08,0,0,1-.023.046c-0.02.015-.072,0.031-0.092,0.046a0.084,0.084,0,0,1,.023.046c0.165,0.011.256,0.041,0.254,0.232a0.223,0.223,0,0,0-.069.255,0.775,0.775,0,0,1,.138.046,1.363,1.363,0,0,1,.092.3H39.908a0.118,0.118,0,0,0-.069-0.023v0.093c0.23,0.106.147,0.172,0.069,0.324V23.3c-0.012.024-.125,0.052-0.069,0.069a0.118,0.118,0,0,0,.115.07,1.04,1.04,0,0,1-.092.3l-0.115-.069v0.046a0.914,0.914,0,0,0,.069.3,0.6,0.6,0,0,1-.184.185c-0.068.043-.072-0.037-0.092,0.093,0.052,0.037.048,0.038,0.046,0.07l-0.138.232a0.679,0.679,0,0,0-.115-0.093v0.023c-0.071.088,0,.206-0.069,0.3a0.314,0.314,0,0,1-.277.023,0.859,0.859,0,0,0-.046.232,0.942,0.942,0,0,1-.207.139V25.2a0.456,0.456,0,0,1-.046-0.093H38.664v0.023c-0.1.058-.119,0.211-0.207,0.255-0.145.073-.193-0.045-0.23,0.139a0.319,0.319,0,0,0,.023.093c-0.1.033-.132,0.1-0.23,0.139V25.734a0.455,0.455,0,0,1-.046-0.093,1,1,0,0,0-.461.417,0.421,0.421,0,0,1,0,.093,0.613,0.613,0,0,1-.23.162,0.334,0.334,0,0,0-.023-0.116H37.212c-0.095.133-.31,0.246-0.438,0.394,0.021,0.07.047,0.038,0.023,0.093a0.615,0.615,0,0,1-.23.162,0.335,0.335,0,0,0-.023-0.116H36.5a3.818,3.818,0,0,1-.438.348,0.448,0.448,0,0,1,.023.162c-0.1.033-.132,0.1-0.23,0.139-0.011-.084-0.006-0.084-0.069-0.116-0.1.14-.325,0.187-0.415,0.324a0.655,0.655,0,0,1-.046.185,0.36,0.36,0,0,1-.184.139,0.121,0.121,0,0,0-.069-0.116,0.975,0.975,0,0,0-.438.463c0.029,0.036.015,0.012,0,.046a0.491,0.491,0,0,1-.207.139V28.421c-0.015-.02-0.031-0.073-0.046-0.093a2.308,2.308,0,0,0-.507.348,0.46,0.46,0,0,0-.023.093,0.817,0.817,0,0,1-.277.093,0.246,0.246,0,0,0-.023-0.139,1.031,1.031,0,0,1-.553.093,0.566,0.566,0,0,0-.046.162h-0.3V28.931a0.157,0.157,0,0,0,.023-0.093H32.1a0.243,0.243,0,0,0-.046.139h-0.3V28.954a0.273,0.273,0,0,0,.046-0.116H31.2c-0.047.147-.1,0.149-0.346,0.139V28.954a0.272,0.272,0,0,0,.046-0.116H30.323l-0.046.069a0.175,0.175,0,0,1-.023.046,0.691,0.691,0,0,1-.3.023V28.954A0.157,0.157,0,0,0,30,28.838H29.424c-0.07.138-.127,0.149-0.346,0.139V28.931a0.156,0.156,0,0,0,.023-0.093H28.525a0.243,0.243,0,0,0-.046.139h-0.3V28.931a0.166,0.166,0,0,0,.046-0.093h-0.6c-0.047.147-.1,0.149-0.346,0.139V28.954a0.273,0.273,0,0,0,.046-0.116H26.751l-0.046.069a0.172,0.172,0,0,1-.023.046,0.691,0.691,0,0,1-.3.023V28.954a0.157,0.157,0,0,0,.046-0.116H25.853c-0.07.138-.127,0.149-0.346,0.139V28.931a0.157,0.157,0,0,0,.023-0.093H24.954a0.244,0.244,0,0,0-.046.139h-0.3V28.954a0.273,0.273,0,0,0,.046-0.116H24.078a0.089,0.089,0,0,1-.069.046c0,0.067.022,0.032,0,.07a0.691,0.691,0,0,1-.3.023V28.954a0.274,0.274,0,0,0,.046-0.116H23.18l-0.046.069H23.111l0.023,0.046H23.111a0.691,0.691,0,0,1-.3.023V28.954a0.157,0.157,0,0,0,.046-0.116H22.281a0.244,0.244,0,0,0-.046.139h-0.3V28.931a0.166,0.166,0,0,0,.046-0.093h-0.6a0.142,0.142,0,0,1-.046.046c0,0.067.022,0.032,0,.07a0.691,0.691,0,0,1-.3.023V28.954a0.273,0.273,0,0,0,.046-0.116H20.507a0.089,0.089,0,0,1-.069.046c0,0.067.022,0.032,0,.07a0.691,0.691,0,0,1-.3.023V28.954a0.157,0.157,0,0,0,.046-0.116H19.608c-0.073.143-.143,0.149-0.369,0.139V28.954a0.157,0.157,0,0,0,.046-0.116H18.71a0.243,0.243,0,0,0-.046.139h-0.3V28.931a0.166,0.166,0,0,0,.046-0.093h-0.6a0.142,0.142,0,0,1-.046.046c0,0.067.022,0.032,0,.07a0.691,0.691,0,0,1-.3.023V28.954a0.272,0.272,0,0,0,.046-0.116H16.936l-0.046.069a0.175,0.175,0,0,1-.023.046,0.691,0.691,0,0,1-.3.023V28.954a0.157,0.157,0,0,0,.046-0.116H16.037c-0.07.138-.127,0.149-0.346,0.139V28.931a0.156,0.156,0,0,0,.023-0.093H15.138a0.243,0.243,0,0,0-.046.139h-0.3V28.954a0.273,0.273,0,0,0,.046-0.116h-0.6c-0.047.147-.1,0.149-0.346,0.139V28.954a0.273,0.273,0,0,0,.046-0.116H13.364l-0.046.069H13.295c-0.01.045,0.035,0.017,0,.046a0.691,0.691,0,0,1-.3.023V28.954a0.157,0.157,0,0,0,.046-0.116H12.465c-0.07.138-.127,0.149-0.346,0.139V28.931a0.157,0.157,0,0,0,.023-0.093H11.567a0.244,0.244,0,0,0-.046.139h-0.3V28.931a0.166,0.166,0,0,0,.046-0.093h-0.6c-0.047.147-.1,0.149-0.346,0.139V28.954a0.274,0.274,0,0,0,.046-0.116H9.793l-0.046.069H9.724c-0.01.045,0.035,0.017,0,.046a0.691,0.691,0,0,1-.3.023V28.954a0.157,0.157,0,0,0,.046-0.116H8.894c-0.073.143-.143,0.149-0.369,0.139V28.954a0.157,0.157,0,0,0,.046-0.116H8c-0.07.138-.127,0.149-0.346,0.139V28.931A0.166,0.166,0,0,0,7.7,28.838H7.373A1.779,1.779,0,0,0,7.1,28.792a0.283,0.283,0,0,1-.115.139,0.677,0.677,0,0,1-.253-0.116A0.221,0.221,0,0,0,6.8,28.722a4.109,4.109,0,0,1-.553-0.209,0.16,0.16,0,0,1-.138.046,0.512,0.512,0,0,1-.23-0.116,0.1,0.1,0,0,0,.092-0.093,1.3,1.3,0,0,0-.53-0.232,1.042,1.042,0,0,0-.115.069c-0.064-.059-0.168-0.079-0.23-0.139a0.118,0.118,0,0,0,.069-0.116c-0.2-.05-0.319-0.2-0.53-0.232a0.192,0.192,0,0,1-.138.07,1.582,1.582,0,0,1-.207-0.139,0.1,0.1,0,0,0,.069-0.069H4.378V27.541a1.344,1.344,0,0,1-.507-0.255,0.221,0.221,0,0,1-.161.07,0.513,0.513,0,0,1-.23-0.116H3.5l0.069-.093a1.8,1.8,0,0,1-.484-0.255,0.157,0.157,0,0,0-.138.093A0.493,0.493,0,0,1,2.7,26.822a0.127,0.127,0,0,0,.069-0.093A3.409,3.409,0,0,0,2.212,26.5a0.15,0.15,0,0,1-.115.069c-0.064-.059-0.168-0.079-0.23-0.139H1.912a0.205,0.205,0,0,1,.069-0.069,0.083,0.083,0,0,0-.046-0.023,0.962,0.962,0,0,0-.553-0.278c-0.037.052-.038,0.049-0.069,0.046A0.754,0.754,0,0,1,1.106,25.9,0.115,0.115,0,0,0,1.221,25.8a1.1,1.1,0,0,1-.369-0.417,0.418,0.418,0,0,1-.161-0.023,1.026,1.026,0,0,1-.138-0.255c0.09,0,.1.011,0.138-0.046a2.394,2.394,0,0,1-.184-0.533,0.306,0.306,0,0,0-.138-0.046,0.662,0.662,0,0,1-.069-0.3H0.323a0.2,0.2,0,0,0,.115.023l0.023-.6c-0.095-.056-0.112-0.031-0.115-0.185,0.039-.051.051-0.135,0.092-0.185a0.23,0.23,0,0,0,.115.07A1.452,1.452,0,0,1,.76,22.745a0.461,0.461,0,0,1-.046-0.209,0.566,0.566,0,0,1-.138-0.093C0.554,22.376.6,21.678,0.6,21.517a0.481,0.481,0,0,1-.23-0.278A0.358,0.358,0,0,0,.6,20.8H0.461V20.73H0.714l0.023-.07a0.394,0.394,0,0,1-.046-0.255,0.532,0.532,0,0,1,.207,0c0-.124.007-0.144,0.115-0.162a0.357,0.357,0,0,0,.207.046V19.965H1.175a2.453,2.453,0,0,1-.668.116,1.77,1.77,0,0,1-.046-0.788H0V19.224l1.29-.046a0.079,0.079,0,0,1,.023-0.046,1.616,1.616,0,0,1-.023-0.3H1.382V18.807H1.406V18.691L6.359,18.6a2.059,2.059,0,0,0,.253.116c0.035-.106.024-0.151,0.161-0.162a0.568,0.568,0,0,0,.069.07,0.936,0.936,0,0,1,.138-0.046c0.062-.043.023-0.13,0.115-0.093a0.721,0.721,0,0,0,.53.023l0.046-.07a0.528,0.528,0,0,1,.138.046,2.121,2.121,0,0,0,.6-0.07,0.243,0.243,0,0,1,.046-0.232c0.138,0.219.668-.073,0.922,0a0.941,0.941,0,0,0,.553.046,1.586,1.586,0,0,1,.484-0.069l0.023,0.069c0.113,0.056.137-.1,0.253-0.046a1.821,1.821,0,0,0,.829-0.046,3.992,3.992,0,0,1,.254-0.579,1.8,1.8,0,0,0,.277.116,1.722,1.722,0,0,1,.392.394c0.328,0,.59-0.082.968-0.093V17.88h0.046a1.618,1.618,0,0,0,.853-0.139,4.7,4.7,0,0,1,1.037-.069v0.116h0.046a2.3,2.3,0,0,0,.392,0,5.762,5.762,0,0,1,1.267-.093l0.092-.7H14.378a0.245,0.245,0,0,1-.046-0.116H14.217v-0.51H14.194V16.351H14.124V16.282a0.174,0.174,0,0,1-.115-0.093,0.126,0.126,0,0,0,.069-0.093c-0.114-.073.028-0.049-0.046-0.162A0.442,0.442,0,0,1,13.8,15.7H12.12V15.61c-0.128,0-.158-0.006-0.253,0V15.7a2.29,2.29,0,0,1-.53-0.139c-0.009-.048.021-0.053-0.046-0.093l-0.138-.046V15.193A4.625,4.625,0,0,0,11.8,15.1h0.461V15.054a1.851,1.851,0,0,1,.415.046,1.993,1.993,0,0,0,.622-0.046,2.689,2.689,0,0,1,.461.046V15.054c-0.061-.1.021-0.126,0.046-0.185V14.66a1.726,1.726,0,0,1,.23-0.162,0.174,0.174,0,0,0-.023-0.116l0.115-.069a0.35,0.35,0,0,0,0-.162,0.614,0.614,0,0,0,.092-0.44h0.115l0.023-.116c1.49-.156,2.9-0.357,4.493-0.371V13.154H19.1V12.784H18.94a2.275,2.275,0,0,1-.092-0.208,0.267,0.267,0,0,0,.069-0.255,0.443,0.443,0,0,1-.207-0.232,0.531,0.531,0,0,0,.115-0.463h0.161V11.533a0.23,0.23,0,0,1,.138-0.093,0.291,0.291,0,0,0,.207.185c0.154-.159.142,0.009,0.323,0a0.575,0.575,0,0,1,.184-0.07,4.8,4.8,0,0,0,1.728.116c0.025-.092.033-0.309,0.069-0.417a0.079,0.079,0,0,1,.046.023,0.772,0.772,0,0,1,.023.324,0.6,0.6,0,0,0,.3.046V11.556h0.369a0.112,0.112,0,0,0,.023.07,0.555,0.555,0,0,0,.253.023,0.424,0.424,0,0,0,.207.023,0.407,0.407,0,0,1,.115-0.139,0.469,0.469,0,0,0,.276.093c0.029-.039.063-0.054,0.092-0.093a0.392,0.392,0,0,0,.23.069,0.187,0.187,0,0,1,.184-0.162,1.1,1.1,0,0,0,.069.162c0.081,0.09.136-.035,0.161,0.139a0.62,0.62,0,0,0-.023.162,2.487,2.487,0,0,1,.115.232c-0.074.058-.137,0.145-0.207,0.209,0,0.112.087,0.263,0.069,0.278a0.457,0.457,0,0,0-.069.162H23.71a0.652,0.652,0,0,0,0,.348h0.138V12.969a0.577,0.577,0,0,1,.184-0.023q0.011-.2.023-0.394a0.524,0.524,0,0,1,.392-0.255,7.311,7.311,0,0,1,.023-1.274A0.419,0.419,0,0,1,24.608,11l0.023,0.069c0.112,0.19-.074,1.022.023,1.181a0.062,0.062,0,0,0,.092,0l0.069,0.116A0.679,0.679,0,0,1,25,12.321,1.88,1.88,0,0,0,25.484,12.344Z"/>
</svg>
