<?xml version="1.0" encoding="utf-8"?>
<!-- Generator: Adobe Illustrator 16.0.0, SVG Export Plug-In . SVG Version: 6.00 Build 0)  -->
<!DOCTYPE svg PUBLIC "-//W3C//DTD SVG 1.1//EN" "http://www.w3.org/Graphics/SVG/1.1/DTD/svg11.dtd">
<svg version="1.1" id="Layer_1" xmlns="http://www.w3.org/2000/svg" xmlns:xlink="http://www.w3.org/1999/xlink" x="0px" y="0px"
	 width="40px" height="40px" viewBox="0 0 40 40" enable-background="new 0 0 40 40" xml:space="preserve">
<path id="jp_type_93_ico" fill="#FFFFFF" d="M6.354,6.987h2.1c0.355-0.021,0.711-0.011,1.064,0.031
	c0.355,0.04,0.715,0.019,1.064-0.063h-0.097c-0.313-0.107-0.64-0.17-0.97-0.189l0.031-0.283c0.04-0.017,0.082-0.027,0.125-0.032
	c0.273,0.089,0.558,0.142,0.845,0.157c0.486,0.129,1.015,0.15,1.534,0.283c0.17,0.067,0.35,0.11,0.532,0.126V6.956
	c0.016-0.191,0.047-0.38,0.094-0.566l2.5,0.472v0.157h0.25c0.126,0.396,0.168,0.813,0.125,1.227c0.094,0.048,0.178,0.112,0.25,0.189
	c-0.017,0.072-0.027,0.146-0.031,0.22l0.72,0.126c-0.066,0.181-0.162,0.35-0.282,0.5c0.152-0.008,0.303,0.024,0.438,0.094
	c-0.026,0.048-0.037,0.103-0.031,0.157c-0.214,0.156-0.386,0.362-0.5,0.6l0.38,0.066v0.157c-0.022,0.032-0.04,0.126-0.063,0.157
	c-0.076,0.138-0.183,0.257-0.313,0.346c-0.227,0.374-0.551,0.679-0.939,0.881v-0.034h-0.031c0.026,0.164-0.086,0.317-0.25,0.343
	c-0.011,0.001-0.021,0.002-0.032,0.003c-0.434-0.144-0.89-0.208-1.346-0.189c-0.012-0.079,0.018-0.05-0.094-0.063
	c-0.141-0.052-0.288-0.084-0.438-0.094v0.912h-0.031v0.032c-0.116-0.008-0.231,0.002-0.344,0.031
	c0.076,0.319,0.108,0.647,0.094,0.975h0.062v-0.471h0.219v0.22c0.379,0.09,0.771,0.111,1.158,0.063
	c0.03-0.107,0.012-0.1,0.125-0.126c0.239,0.162,0.538,0.208,0.814,0.126c0.019,0.036,0.054,0.059,0.094,0.063
	c0.033-0.116,0.13-0.202,0.25-0.22c0.281,0.088,0.509,0.295,0.626,0.566c-0.3,0.217,0.156,1.717,0,2.076v0.601l0.157-0.031
	c0-0.3,0.177-0.27,0.47-0.252c0.539-0.08,1.083-0.112,1.628-0.094c0.016-0.283,0.016-0.566,0-0.85
	c-0.012-0.027-0.1,0.006-0.063-0.094h0.062v-0.854c0.24-0.621,0.512-1.229,0.814-1.823c0.01-0.073,0.01-0.147,0-0.22
	c0.037-0.037,0.079-0.069,0.125-0.094c0.121-0.234,0.225-0.476,0.313-0.724l-0.031-0.126c0.058-0.05,0.102-0.116,0.125-0.189
	c-0.034,0.001-0.067-0.01-0.094-0.031h-0.031v-0.032c0.064,0.005,0.129-0.005,0.188-0.031l0.125-0.22h0.376
	c0.195-0.049,0.397-0.059,0.595-0.031c0.566,0,0.92,0.113,1.44,0.126c0.034-0.046,0.056-0.1,0.063-0.157h0.092v0.157h0.031v0.032
	c0.097,0.001,0.193,0.023,0.281,0.063c-0.111,0.013-0.078-0.015-0.125,0.063h0.031l0.971,0.157c0.113-0.029,0.229-0.04,0.344-0.032
	c0.076,0.038,0.148,0.08,0.22,0.126l0.437,0.03c0.457,0.111,1.012,0.142,1.471,0.252c0.322,0.01,0.64,0.074,0.939,0.189
	c0.129,0.175,0.205,0.383,0.219,0.6h0.063c-0.032-0.091-0.032-0.191,0-0.283l0.031,0.283c0.034,0,0.067,0.011,0.094,0.032
	c-0.063,0.301-0.063,0.612,0,0.912c0.151,0.624,0.19,1.353,0.344,1.982c0.028,0.297,0.081,0.592,0.157,0.881
	c0.1,0,0.042-0.054,0.094,0.03c0.037,0.221,0.111,0.434,0.219,0.63c0.063-0.071,0.156-0.106,0.25-0.095v-0.098l0.377,0.031
	c-0.001-0.034,0.01-0.067,0.031-0.094v0.031c0.02,0.027,0.03,0.06,0.03,0.094c0.268,0.05,0.542-0.047,0.72-0.252
	c0.05-0.074,0.071-0.162,0.062-0.25c-0.177,0.018-0.355,0.018-0.532,0c-0.184-0.427-0.27-0.889-0.25-1.353
	c-0.007-0.3-0.047-0.589,0.219-0.629c0.143-0.046,0.296-0.046,0.438,0c0.022,0.078,0.075,0.172,0.094,0.252v0.601
	c0.022,0.059,0.171,0.154,0.188,0.22c-0.027,0.061-0.049,0.124-0.063,0.188c0.096,0.352,0.085,0.724-0.03,1.069
	c-0.053,0.081-0.162,0.134-0.22,0.22c1.216,0.119,2.383,0.381,3.537,0.535c-0.007-0.105-0.067-0.076,0.03-0.126
	c0.002,0.054,0.012,0.106,0.031,0.157c0.527,0.059,1.051,0.152,1.565,0.283V17.46c0.042-0.032,0.074-0.076,0.094-0.125l0.22-0.031
	c0.18,0.152,0.319,0.347,0.406,0.565c0.277,0.032,0.551,0.096,0.814,0.189c0.57,0.161,1.123,0.221,1.628,0.409
	c0.274,0.016,0.528,0.154,0.688,0.378c0.125,0.294,0.22,0.599,0.282,0.912h-0.093v0.283h0.125v0.031l-0.094,0.031v0.408
	c-0.067,0.201-0.074,0.477-0.125,0.693h0.406L39,20.697h0.094c0.049-0.143,0.111-0.279,0.188-0.408l-0.315-3.491
	c-0.133-0.615-0.029-1.301-0.156-1.888c-0.021-0.377-0.042-0.755-0.063-1.132c-0.076-0.348-0.011-0.748-0.095-1.132
	c-0.262-1.2-0.084-2.575-0.344-3.774c-0.01-0.251-0.021-0.503-0.031-0.755c-0.234-1.077-0.079-2.32-0.313-3.4
	c-0.111-0.513,0.031-1.075-0.125-1.541H37.9v0.35c0.087,0.456,0.129,0.92,0.125,1.384c0.189,0.862,0.093,1.871,0.281,2.736
	c0.012,0.23,0.021,0.461,0.031,0.692l0.376,3.774c0.021,0.346,0.042,0.692,0.063,1.038c0.164,0.749,0.086,1.64,0.25,2.39
	c0.01,0.23,0.021,0.462,0.031,0.692c0.116,0.535,0.031,1.128,0.156,1.7c0.07,0.318,0.018,0.684,0.094,1.038
	c0.084,0.435,0.126,0.878,0.125,1.322c0.105,0.123,0.221,0.238,0.344,0.346l0.063,0.912h0.095c0,0.145-0.154,0.43,0.03,0.439
	c0.062,0-0.063,0.031-0.063,0.031c-0.101,0.029-0.175,0.115-0.188,0.221h-0.122c0.013,0.211-0.009,0.424-0.063,0.629
	c-0.151,0.445-0.598,0.723-1.064,0.66c-0.124-0.035-0.243-0.119-0.376-0.156v0.063c0.094,0.283,0.115,0.586,0.063,0.881
	c-0.033,0.762-0.295,1.496-0.75,2.107c-0.428,0.59-1.014,1.047-1.69,1.32c-0.888,0.297-1.851,0.273-2.723-0.063
	c-1.724-0.641-2.722-2.445-2.347-4.246h-0.596c-0.008,0.012-0.018,0.023-0.031,0.031c0.009,0.199-0.002,0.4-0.031,0.6L29.891,24.1
	c-0.486,0.068-0.98,0.078-1.471,0.031l-3.85-0.064c-0.48,0.018-1.067,0.031-1.601,0.031h-0.778
	c-0.466,0.076-0.939,0.086-1.408,0.031c-0.394-0.059-0.792-0.08-1.189-0.063h-0.94c-0.027,0.008-0.122,0.088-0.156,0.094
	c-0.161,0.025-0.5-0.031-0.72-0.031h-6.166c-0.087,0.074-0.197,0.119-0.313,0.125c-0.064-0.127-0.148-0.244-0.25-0.346
	c-0.208-0.109-0.429-0.193-0.657-0.252v0.189c0.051,0.195,0.062,0.398,0.031,0.6c-0.034,0.461-0.162,0.91-0.376,1.32
	c-0.502,1.066-1.457,1.852-2.6,2.139l-0.469,0.033c-0.438,0.074-0.886,0.053-1.315-0.063c-1.405-0.395-2.477-1.533-2.783-2.959
	c-0.085-0.371-0.106-0.754-0.063-1.133c0.044-0.131,0.066-0.27,0.063-0.408c-0.361-0.166-0.739-0.291-1.127-0.377
	c-0.146,0.176-0.367,0.27-0.595,0.252c-0.009-0.242,0.002-0.482,0.031-0.723c-0.056-0.174-0.056-0.361,0-0.535
	c0.07-0.088,0.246-0.029,0.313-0.127c-0.104-0.033-0.199-0.086-0.282-0.156c-0.009,0.182-0.163,0.322-0.344,0.314v0.125H0.814
	c0.004-0.045-0.007-0.09-0.031-0.127c-0.049,0.039-0.016,0.021-0.063,0c0.095-0.125,0.129-0.285,0.094-0.439
	c-0.122-0.035-0.237-0.088-0.344-0.156v0.629c-0.061,0.426-0.082,0.857-0.063,1.289c-0.146,0.82-0.209,1.652-0.188,2.484H0
	c-0.017-0.611,0.035-1.225,0.156-1.824c0.106-0.48,0.021-0.891,0.125-1.354c0.134-0.426,0.166-0.879,0.094-1.32H0.344
	c0,0.117,0.015,0.111-0.063,0.156v-0.188H0.219c0.019-0.125,0.029-0.252,0.031-0.377c0.04,0.016,0.085,0.016,0.125,0
	c-0.008-0.129,0.014-0.258,0.063-0.377H0.376c-0.027,0.02-0.06,0.029-0.094,0.029v-0.029h0.031c0.027-0.021,0.06-0.033,0.094-0.033
	l0.031-0.66H0.219v-0.44h0.219c0-0.465-0.039-0.822-0.031-1.199H0.219c0-0.248-0.055-0.312-0.063-0.535l0.282-0.031v-0.279H0.344
	v0.094H0.25c-0.065-0.092-0.098-0.202-0.094-0.314c0.056-0.044,0.12-0.076,0.188-0.094v0.094h0.094v-0.157H0.5
	c0,0.118-0.015,0.111,0.063,0.157c0.033-0.042-0.006-0.088,0.094-0.063v0.063c0.279,0.049,0.563,0.06,0.845,0.031
	c0.021-0.061,0.031-0.125,0.031-0.189c-0.048-0.399-0.037-0.804,0.031-1.199c0.507-0.031,0.852-0.271,1.408-0.283
	C2.969,15.391,2.979,15.277,3,15.166c0.269-0.047,0.542-0.058,0.814-0.031c0.021,0.121,0.063,0.238,0.125,0.346v-0.032
	c0.204-0.273,0.393-0.558,0.568-0.85c0.077-0.093,0.274-0.024,0.344-0.126H4.757v-0.094H4.664l-0.031-0.22H4.444v0.095H4.225v0.063
	c-0.04,0.133-0.051,0.271-0.031,0.409H4.006c0-0.535,0-0.72,0-1.258h0.188c-0.005,0.158,0.005,0.316,0.031,0.472
	c0.221,0.009,0.191,0.081,0.407,0.094l0.031-0.22h0.188c-0.05-0.382-0.007-0.771,0.125-1.132c-0.064,0.008-0.13-0.002-0.188-0.031
	c-0.062-0.417-0.073-0.839-0.031-1.258c0.079-0.064,0.134-0.153,0.156-0.252H3.036c-0.05-0.216-0.071-0.438-0.063-0.66
	c-0.066-0.311-0.077-0.63-0.031-0.944l0.031-2.422C3.715,6.968,4.475,6.937,5.227,7.02c0.329-0.071,0.667-0.082,1-0.031
	c0-2.626,0.03-5.319,0.031-7.989h0.064v2.829c0.066,0.469,0.077,0.944,0.031,1.415L6.354,6.987L6.354,6.987z M39.969,22.021
	C39.988,22.049,40,22.082,40,22.115h-0.031V22.021z"/>
</svg>
