<svg xmlns="http://www.w3.org/2000/svg" width="40" height="40" viewBox="0 0 40 40">
  <defs>
    <style>
      .cls-1 {
        fill: #fff;
        fill-rule: evenodd;
      }
    </style>
  </defs>
  <path id="jp_type_93_ico" class="cls-1" d="M6.354,12.989h2.1a5.942,5.942,0,0,1,1.064.031,3.116,3.116,0,0,0,1.064-.063H10.485a3.648,3.648,0,0,0-.97-0.189l0.031-.283a0.445,0.445,0,0,1,.125-0.032,3.283,3.283,0,0,0,.845.157c0.486,0.129,1.015.15,1.534,0.283a1.875,1.875,0,0,0,.532.126V12.958a3.441,3.441,0,0,1,.094-0.566l2.5,0.472v0.157h0.25a3.014,3.014,0,0,1,.125,1.227,0.933,0.933,0,0,1,.25.189,1.146,1.146,0,0,0-.031.22l0.72,0.126a1.78,1.78,0,0,1-.282.5,0.851,0.851,0,0,1,.438.094,0.274,0.274,0,0,0-.031.157,1.6,1.6,0,0,0-.5.6L16.495,16.2v0.157c-0.022.032-.04,0.126-0.063,0.157a1,1,0,0,1-.313.346,2.382,2.382,0,0,1-.939.881V17.707H15.149a0.3,0.3,0,0,1-.282.346,3.789,3.789,0,0,0-1.346-.189c-0.012-.079.018-0.05-0.094-0.063a1.545,1.545,0,0,0-.438-0.094v0.912H12.958v0.032a1.1,1.1,0,0,0-.344.031,3.53,3.53,0,0,1,.094.975H12.77V19.186h0.219v0.22a3.256,3.256,0,0,0,1.158.063c0.03-.107.012-0.1,0.125-0.126a0.962,0.962,0,0,0,.814.126,0.121,0.121,0,0,0,.094.063,0.308,0.308,0,0,1,.25-0.22,1.012,1.012,0,0,1,.626.566c-0.3.218,0.156,1.718,0,2.076v0.6l0.157-.031c0-.3.177-0.27,0.47-0.252a8.99,8.99,0,0,1,1.628-.094,7.414,7.414,0,0,0,0-.849c-0.012-.027-0.1.006-0.063-0.094H18.31V20.381a19.587,19.587,0,0,1,.814-1.824,0.814,0.814,0,0,0,0-.22,0.548,0.548,0,0,1,.125-0.094,5.872,5.872,0,0,0,.313-0.724l-0.031-.126a0.411,0.411,0,0,0,.125-0.189,0.151,0.151,0,0,1-.094-0.031H19.531V17.141a0.386,0.386,0,0,0,.188-0.031l0.125-.22h0.376a1.564,1.564,0,0,1,.595-0.031c0.566,0,.919.113,1.44,0.126a0.334,0.334,0,0,0,.063-0.157H22.41v0.157h0.031v0.032a0.719,0.719,0,0,1,.282.063c-0.112.013-.079-0.015-0.125,0.063h0.031L23.6,17.3a1.1,1.1,0,0,1,.344-0.032,2.306,2.306,0,0,1,.219.126L24.6,17.424c0.457,0.111,1.011.142,1.471,0.252a2.887,2.887,0,0,1,.939.189,1.147,1.147,0,0,1,.219.6h0.063a0.427,0.427,0,0,1,0-.283l0.031,0.283a0.151,0.151,0,0,1,.094.032,2.194,2.194,0,0,0,0,.912c0.152,0.624.191,1.353,0.344,1.982a5.549,5.549,0,0,0,.157.881c0.1,0,.042-0.053.094,0.031a1.958,1.958,0,0,0,.219.629,0.288,0.288,0,0,1,.25-0.094V22.74l0.376,0.031a0.152,0.152,0,0,1,.031-0.094v0.031a0.162,0.162,0,0,1,.031.094,0.766,0.766,0,0,0,.72-0.252A0.373,0.373,0,0,0,29.7,22.3a2.6,2.6,0,0,1-.532,0,3.08,3.08,0,0,1-.25-1.352c-0.007-.3-0.047-0.589.219-0.629a0.714,0.714,0,0,1,.438,0c0.023,0.078.075,0.172,0.094,0.252v0.6c0.022,0.059.171,0.155,0.188,0.22a0.983,0.983,0,0,0-.063.189,1.841,1.841,0,0,1-.031,1.069c-0.052.081-.161,0.134-0.219,0.22,1.216,0.119,2.383.381,3.537,0.535-0.007-.105-0.067-0.076.031-0.126a0.456,0.456,0,0,0,.031.157,11.647,11.647,0,0,1,1.565.283V23.463a0.3,0.3,0,0,0,.094-0.126l0.219-.031a1.441,1.441,0,0,1,.407.566,3.7,3.7,0,0,1,.814.189c0.571,0.161,1.123.221,1.628,0.409a0.914,0.914,0,0,1,.689.378,4.693,4.693,0,0,1,.282.912H38.748v0.283h0.125v0.031l-0.094.031v0.409c-0.067.2-.074,0.476-0.125,0.692h0.407L39,26.7h0.094a2.182,2.182,0,0,1,.188-0.409L38.967,22.8c-0.133-.615-0.029-1.3-0.157-1.887q-0.031-.566-0.063-1.132c-0.076-.348-0.01-0.748-0.094-1.132-0.262-1.2-.084-2.575-0.344-3.774q-0.016-.377-0.031-0.755c-0.235-1.077-.08-2.32-0.313-3.4-0.111-.513.031-1.075-0.125-1.541H37.9V9.529a7.04,7.04,0,0,1,.125,1.384c0.19,0.862.093,1.871,0.282,2.736q0.016,0.346.031,0.692l0.376,3.774q0.031,0.519.063,1.038c0.165,0.749.086,1.639,0.25,2.39q0.016,0.346.031,0.692c0.117,0.535.032,1.128,0.157,1.7,0.07,0.318.017,0.684,0.094,1.038a6.929,6.929,0,0,1,.125,1.321,3.1,3.1,0,0,0,.344.346l0.063,0.912h0.094c0,0.145-.154.43,0.031,0.44,0.061,0-.063.032-0.063,0.032a0.26,0.26,0,0,0-.188.22H39.593a1.986,1.986,0,0,1-.063.629,0.986,0.986,0,0,1-1.064.66c-0.124-.035-0.243-0.119-0.376-0.157v0.063a1.8,1.8,0,0,1,.063.881,3.814,3.814,0,0,1-.751,2.107,3.875,3.875,0,0,1-1.69,1.321,4.021,4.021,0,0,1-2.723-.063,3.722,3.722,0,0,1-2.347-4.246H30.047a0.089,0.089,0,0,1-.031.031,3.192,3.192,0,0,1-.031.6l-0.094.031a6.2,6.2,0,0,1-1.471.031l-3.85-.063c-0.48.016-1.067,0.031-1.6,0.031H22.191a5.1,5.1,0,0,1-1.408.031,6.208,6.208,0,0,0-1.189-.063H18.654c-0.027.008-.122,0.089-0.156,0.094-0.161.025-.5-0.032-0.72-0.032H11.612a0.525,0.525,0,0,1-.313.126,1.336,1.336,0,0,0-.25-0.346,3.1,3.1,0,0,0-.657-0.252v0.189a1.485,1.485,0,0,1,.031.6,3.4,3.4,0,0,1-.376,1.321,3.935,3.935,0,0,1-2.6,2.139l-0.469.032a3.067,3.067,0,0,1-1.315-.063A3.928,3.928,0,0,1,2.88,30.918a3.368,3.368,0,0,1-.063-1.132,1.2,1.2,0,0,0,.063-0.409A5.609,5.609,0,0,0,1.753,29a0.7,0.7,0,0,1-.595.252,4.646,4.646,0,0,1,.031-0.723,0.867,0.867,0,0,1,0-.535c0.07-.087.246-0.029,0.313-0.126a0.831,0.831,0,0,1-.282-0.157,0.333,0.333,0,0,1-.344.315V28.15H0.814a0.2,0.2,0,0,0-.031-0.126c-0.049.039-.016,0.02-0.063,0a0.537,0.537,0,0,0,.094-0.44,1.336,1.336,0,0,1-.344-0.157v0.629a6.9,6.9,0,0,0-.063,1.29A12.338,12.338,0,0,0,.219,31.83H0a8.092,8.092,0,0,1,.156-1.824c0.106-.481.021-0.891,0.125-1.353a2.861,2.861,0,0,0,.094-1.321H0.344c0,0.118.015,0.111-.063,0.157V27.3H0.219A3.066,3.066,0,0,0,.25,26.923a0.171,0.171,0,0,0,.125,0,0.857,0.857,0,0,1,.063-0.377H0.376a0.159,0.159,0,0,1-.094.031V26.546H0.313a0.158,0.158,0,0,1,.094-0.032l0.031-.66H0.219v-0.44H0.438c0-.465-0.039-0.823-0.031-1.2H0.219c0-.248-0.055-0.311-0.063-0.535l0.282-.031V23.369H0.344v0.094H0.25a0.516,0.516,0,0,1-.094-0.315,0.528,0.528,0,0,1,.188-0.094v0.094H0.438V22.991H0.5c0,0.118-.015.111,0.063,0.157,0.033-.042-0.006-0.088.094-0.063v0.063a3.093,3.093,0,0,0,.845.031,0.578,0.578,0,0,0,.031-0.189,4.185,4.185,0,0,1,.031-1.2c0.507-.031.852-0.27,1.408-0.283A1.585,1.585,0,0,1,3,21.167a3.047,3.047,0,0,1,.814-0.031,1.018,1.018,0,0,0,.125.346V21.45A10.163,10.163,0,0,0,4.507,20.6c0.077-.093.274-0.024,0.344-0.126H4.757V20.381H4.664l-0.031-.22H4.444v0.094H4.225v0.063a0.953,0.953,0,0,0-.031.409H4.006c0-.535,0-0.719,0-1.258H4.194a2.383,2.383,0,0,0,.031.472c0.221,0.009.191,0.081,0.407,0.094l0.031-.22H4.851a2.394,2.394,0,0,1,.125-1.132,0.329,0.329,0,0,1-.188-0.031,5.113,5.113,0,0,1-.031-1.258,0.457,0.457,0,0,0,.156-0.252H3.036a2.5,2.5,0,0,1-.063-0.66,2.666,2.666,0,0,1-.031-0.944l0.031-2.422a7.452,7.452,0,0,1,2.254-.094,2.749,2.749,0,0,1,1-.031c0-2.626.03-5.319,0.031-7.989H6.322V7.831a5.952,5.952,0,0,1,.031,1.415v3.743ZM39.969,28.024a0.161,0.161,0,0,1,.031.094H39.969V28.024Z" transform="translate(0 0.516)"/>
</svg>
