<?xml version="1.0" encoding="utf-8"?>
<!-- Generator: Adobe Illustrator 16.0.0, SVG Export Plug-In . SVG Version: 6.00 Build 0)  -->
<!DOCTYPE svg PUBLIC "-//W3C//DTD SVG 1.1//EN" "http://www.w3.org/Graphics/SVG/1.1/DTD/svg11.dtd">
<svg version="1.1" id="Layer_1" xmlns="http://www.w3.org/2000/svg" xmlns:xlink="http://www.w3.org/1999/xlink" x="0px" y="0px"
	 width="39.969px" height="40px" viewBox="0 0 39.969 40" enable-background="new 0 0 39.969 40" xml:space="preserve">
<path id="jp_type_4_chi_to_late_ico" fill="#FFFFFF" d="M20.568,12.354c0.044,0.022,0.09,0.038,0.138,0.047
	c0.021-0.033,0.054-0.057,0.091-0.07c0.036,0.015,0.051,0.1,0.092,0.117l0.228,0.022c0.215,0.061,0.491,0.101,0.707,0.163
	c0.202,0.012,0.401,0.05,0.593,0.116h0.023l0.049,0.35c0.83,0,1.544-0.046,2.348-0.047c0.285-0.056,0.578-0.064,0.866-0.022
	c0.187,0.209,0.248,0.502,0.159,0.769c-0.055,0.029-0.096,0.08-0.113,0.14h0.547c0.363,0.041,0.729,0.057,1.094,0.047
	c0.938,0.121,1.883,0.152,2.826,0.093h3.465c0.661-0.042,1.325-0.019,1.982,0.07h1.3c1.009,0,2.031-0.023,3.008-0.023v0.606
	c-2.876,0-5.62,0.047-8.479,0.047h-3.693c-0.011,0-0.052,0.063-0.067,0.07l-2.101,0.07V15.4h-0.043c-0.25-0.028-0.502-0.028-0.752,0
	h-1.937l0.045,0.373c-0.259,0.068-0.505,0.178-0.729,0.326h-0.457V16.2h2.256l0.273,0.419c0.027-0.018,0.051-0.042,0.068-0.07
	c0.03,0.03,0.07,0.047,0.113,0.047c0.004,0.055,0.012,0.109,0.023,0.163c0.082,0.17,0.26-0.03,0.273,0.279h-0.021v0.023
	c0.149,0.004,0.291,0.072,0.388,0.186c0.017,0.018,0.091,0.139,0.022,0.163h0.301c0.158-0.026,0.32-0.026,0.479,0
	c0.374-0.002,0.747,0.021,1.117,0.07v0.163c-0.157,0.085-0.325,0.147-0.5,0.187v-0.095h-0.029c-0.414,0.117-0.848,0.149-1.275,0.093
	v0.022c0.059,0.051,0.105,0.115,0.137,0.187c-0.066,0.03-0.066,0.014-0.046,0.069c0.157,0.5,0.758,0.35,1.367,0.35h3.92
	c0.118,0.037,0.241,0.061,0.365,0.07c0.2,0.09,0.405,0.168,0.614,0.232c0.039,0.1,0.112,0.182,0.205,0.233
	c0.229,0.241,0.408,0.526,0.524,0.838c-0.231,0.071-0.399,0.258-0.638,0.326c-0.005,0.087-0.021,0.173-0.047,0.256l0.068,0.022
	c0.035,0.139,0.027,0.285-0.023,0.42c0.101,0.025,0.108,0.045,0.115,0.162c-0.057,0.014-0.105,0.047-0.138,0.094
	c-0.044,0.199-0.066,0.402-0.067,0.605c-0.059,0.023-0.12,0.039-0.183,0.046c-0.083,0.196-0.198,0.378-0.342,0.536
	c-0.063,0.03-0.132-0.057-0.16-0.023c-0.128,0.043-0.123,0.15-0.114,0.326c-0.122,0.254-0.177,0.535-0.158,0.815
	c-0.037,0.015-0.078,0.015-0.114,0c-0.093-0.196-0.116-0.417-0.068-0.629c-0.033-0.045-0.063-0.091-0.091-0.14h-0.021v0.022
	c-0.156,0.076-0.211,0.255-0.365,0.326H29.85l-0.229,0.163c-0.02,0.06-0.051,0.115-0.092,0.163
	c-0.087,0.042-0.179,0.072-0.273,0.093c-0.082,0.045-0.158,0.1-0.229,0.163v0.093c-0.063,0.053-0.132,0.1-0.204,0.141
	c-0.032,0.001-0.063-0.007-0.091-0.023c-0.006,0-0.271,0.183-0.274,0.186c-0.005,0.039-0.013,0.078-0.022,0.116
	c-0.197,0.083-0.381,0.193-0.547,0.326c-0.006,0.017-0.014,0.032-0.023,0.047c-0.262,0.196-0.555,0.346-0.866,0.442l-0.524-0.023
	l-0.022,0.07c-0.19,0.111-0.435-0.174-0.661-0.07l-0.023,0.07c-0.118,0.03-0.244,0.004-0.342-0.07
	c-0.126-0.026-0.258-0.001-0.365,0.07c-0.242,0.111-0.399-0.191-0.66-0.07l-0.023,0.07c-0.133,0.027-0.271,0.002-0.387-0.07h-0.272
	l-0.022,0.07c-0.119,0.03-0.245,0.004-0.342-0.07c-0.127-0.028-0.259-0.003-0.365,0.07c-0.111,0.026-0.229,0.001-0.319-0.07
	l-0.274,0.023c-0.121,0.055-0.256,0.071-0.387,0.047v-0.044c-0.117-0.04-0.243-0.048-0.365-0.023l-0.022,0.07
	c-0.118,0.03-0.245,0.005-0.343-0.07h-0.316l-0.023,0.07c-0.125,0.028-0.258,0.003-0.364-0.07h-0.319l-0.023,0.07h-0.3l-0.023-0.07
	h-0.339l-0.023,0.07h-0.3v-0.047c-0.118-0.04-0.244-0.048-0.365-0.023l-0.023,0.07c-0.192,0.112-0.43-0.167-0.661-0.07
	c-0.09,0.071-0.208,0.097-0.319,0.07c-0.113-0.077-0.254-0.103-0.387-0.07l-0.023,0.07c-0.119,0.028-0.244,0.002-0.342-0.07
	l-0.228,0.023c-0.026-0.02-0.059-0.028-0.091-0.023l-0.023,0.07c-0.126,0.028-0.259,0.003-0.365-0.07h-0.3l-0.023,0.07
	c-0.119,0.03-0.245,0.005-0.342-0.07h-0.332l-0.023,0.07c-0.241,0.114-0.4-0.191-0.661-0.07l-0.023,0.07
	c-0.178,0.014-0.356-0.011-0.524-0.07c-0.14,0.074-0.3,0.099-0.456,0.07c-0.114-0.075-0.254-0.101-0.388-0.07l-0.023,0.07
	c-0.188,0.11-0.431-0.177-0.661-0.07l-0.023,0.07c-0.19,0.11-0.435-0.174-0.661-0.07l-0.023,0.07
	c-0.119,0.03-0.245,0.005-0.342-0.07c-0.006,0-0.342,0-0.342,0l-0.023,0.07c-0.111,0.027-0.229,0.002-0.319-0.07h-0.34l-0.023,0.07
	c-0.119,0.03-0.245,0.005-0.342-0.07H9.906l-0.023,0.07c-0.19,0.11-0.435-0.174-0.661-0.07l-0.023,0.07h-0.3l-0.046-0.07H8.511
	l-0.023,0.07c-0.243,0.112-0.4-0.19-0.661-0.07l-0.023,0.07c-0.19,0.11-0.434-0.174-0.661-0.07l-0.023,0.07
	c-0.187,0.108-0.429-0.166-0.661-0.07l-0.046,0.07c-0.177,0.004-0.354-0.02-0.524-0.07c-0.119,0.063-0.254,0.087-0.387,0.07
	c-0.141-0.063-0.286-0.117-0.433-0.163c-0.106-0.004-0.209-0.037-0.3-0.093c-0.01-0.034-0.022-0.066-0.036-0.099
	c-0.079-0.048-0.163-0.087-0.251-0.115l-0.113,0.026c-0.071-0.023-0.14-0.055-0.205-0.093c-0.093-0.095-0.2-0.174-0.319-0.232
	l-0.137,0.022c-0.193-0.054-0.321-0.271-0.524-0.326l-0.115,0.023c-0.071-0.024-0.14-0.056-0.205-0.093
	c-0.033-0.051-0.071-0.098-0.114-0.141c-0.066-0.035-0.135-0.066-0.205-0.093L2.408,23.6c-0.145-0.08-0.282-0.174-0.41-0.278
	c-0.075-0.019-0.152-0.025-0.229-0.021c-0.093-0.038-0.172-0.103-0.228-0.186c-0.122-0.064-0.252-0.111-0.387-0.14
	c-0.18-0.18-0.333-0.383-0.456-0.605c-0.021-0.023-0.07,0-0.091-0.023c-0.06-0.115-0.083-0.245-0.068-0.373
	c-0.008-0.117-0.024-0.234-0.046-0.35L0.425,21.6c0.01-0.275,0.08-0.546,0.205-0.791c-0.01-0.178-0.057-0.351-0.137-0.509v-0.75
	H0.469v0.023H0.448c-0.026,0.061-0.054,0.211-0.068,0.233c-0.02,0.014-0.043,0.021-0.068,0.022
	c-0.012-0.012-0.027-0.021-0.043-0.022v-0.141c0.119-0.14,0.198-0.309,0.228-0.489H0.469c-0.081,0.027-0.167,0.035-0.251,0.023
	c0,0.024-0.008,0.05-0.023,0.069V19.2H0.129v-0.4h0.068c0-0.024,0.007-0.05,0.022-0.069V18.8h0.091V18.9h0.091V18.8h0.091v-0.577
	c-0.167-0.14-0.32-0.296-0.456-0.466c-0.077-0.21-0.077-0.441,0-0.652c0.285-0.214,0.532-0.474,0.732-0.769h0.112
	c0.019,0.076-0.011,0.036,0.046,0.07v-0.163H2.18c0.354-0.1,0.64-0.31,0.98-0.4v0.046c0.04,0.054,0.063,0.119,0.068,0.186
	c-0.05,0.012-0.092,0.046-0.114,0.093c0.024,0.035,0.04,0.074,0.046,0.116h0.023c0.05-0.04,0.133-0.052,0.182-0.093
	c0.035-0.137,0.042-0.279,0.023-0.419h0.068V16.2h0.091c0.019-0.072,0.058-0.137,0.114-0.186c-0.077-0.031-0.094-0.018-0.114-0.117
	c0.033-0.025,0.073-0.041,0.114-0.046v-0.097h0.137c0-0.074-0.039-0.031,0.023-0.07c0.425,0.106,0.865,0.137,1.3,0.093l-0.023-0.07
	c0.054-0.002,0.104-0.027,0.137-0.07c0.027,0.042,0.057,0.081,0.091,0.116H5.302v0.023h0.16c0.058-0.1,0.2-0.01,0.319,0v0.07h0.228
	v-0.07h0.16v-0.045h0.16v0.047h0.683v-0.07c0.112-0.015,0.165-0.069,0.228,0.047H7.217v0.023h0.3c0.14-0.1,1.184-0.306,1.231,0.023
	l-0.091,0.047v0.022c0.173,0.008,0.091,0.032,0.16,0.07h1.482v0.093H10.02v0.14c0.029,0.012,0.06,0.02,0.091,0.023
	c0.219-0.038,0.442-0.038,0.661,0v-0.162c-0.068-0.025-0.114-0.09-0.114-0.163c0.011-0.03,0.011-0.063,0-0.093h-0.455V15.5h-0.092
	v-0.025h-0.022v-0.35h-0.046c-0.013-0.022-0.045-0.09-0.046-0.093c0.031-0.075,0.031-0.159,0-0.233
	c0.014-0.026,0.081-0.09,0.091-0.116c0.037-0.227,0.014-0.46-0.068-0.675c0.005-0.086-0.002-0.172-0.023-0.256
	c0.014-0.026,0.081-0.091,0.091-0.117c0.037-0.095-0.022-0.23,0.023-0.3c0.027-0.017,0.059-0.025,0.091-0.023v-0.283h0.046
	c0.248-0.096,0.51-0.151,0.775-0.163v-2.352c-0.026-0.412-0.018-0.824,0.023-1.234c0.013,0.013,0.021,0.029,0.023,0.047
	c0.047,0.324,0.055,0.652,0.023,0.978v2.539h0.046c0.11-0.038,0.225-0.062,0.342-0.07c0.278-0.077,0.586-0.1,0.889-0.186
	c0.543-0.15,1.12-0.194,1.687-0.349c0.356-0.112,0.722-0.192,1.093-0.239v-0.07h0.182c0-0.134,0-0.14,0-0.256h-0.114
	c-0.021-0.107-0.021-0.218,0-0.326c-0.076-0.026-0.135-0.087-0.16-0.163c0.073-0.092,0.106-0.209,0.091-0.326h0.091
	c0.011-0.044,0.034-0.085,0.068-0.117c0.044,0.032,0.083,0.071,0.114,0.117c0.064,0.002,0.127-0.014,0.182-0.047
	c0.044,0.038,0.103,0.055,0.16,0.047c0.026-0.007,0.008-0.054,0.068-0.047c0.036,0.025,0.066,0.057,0.091,0.093h0.3V10.84h0.3v0.07
	h0.16v-0.047c0.025-0.075,0.034-0.155,0.023-0.233h0.064c-0.002,0.094,0.005,0.188,0.023,0.28h1.117
	c0.151-0.088,0.334-0.105,0.5-0.047v-0.07c0.019-0.012,0.034-0.028,0.046-0.047c0.018,0.002,0.034,0.01,0.046,0.023l0.068,0.024
	v0.07h0.09c0.017,0.127,0.047,0.252,0.091,0.373c-0.217,0.142-0.117,0.171-0.114,0.326c-0.011,0.078-0.083,0.132-0.16,0.121
	c-0.007-0.001-0.015-0.002-0.021-0.005l0.023,0.256h0.182V12h0.068l0.023-0.117h0.091c-0.012-0.336,0.019-0.672,0.091-1
	c0.27-0.097,0.556-0.145,0.843-0.14c0.035-0.208,0.043-0.419,0.023-0.629c0.029-0.075,0.029-0.158,0-0.233
	c-0.332-0.239-0.637-0.512-0.912-0.815C18.914,9.05,18.938,9.027,18.955,9c0.009,0.006,0.018,0.014,0.023,0.023
	c0.345,0.257,0.665,0.546,0.957,0.862c0.044,0.286,0.044,0.577,0,0.862c-0.005,0.053-0.041,0.099-0.091,0.117
	c-0.232,0.086-0.484,0.11-0.729,0.07c-0.019,0.034-0.042,0.065-0.068,0.093c-0.014,0.231,0.025,0.462,0.114,0.675
	c0.018,0.035,0.1,0.078,0.114,0.116c0.063,0.155-0.051,0.232,0.091,0.3c0.048-0.006,0.095-0.021,0.137-0.047
	c0.095,0.002,0.188,0.026,0.273,0.07c0.046,0.038-0.016,0.027,0.046,0.047c0.054,0.008,0.109,0,0.159-0.023l0.068,0.093
	c0.167,0.021,0.336,0.013,0.5-0.023C20.563,12.273,20.568,12.313,20.568,12.354z M3.73,15.661h0.045v0.023
	C3.758,15.682,3.742,15.673,3.73,15.661z M11.457,15.778c-0.006,0.054-0.006,0.109,0,0.163c-0.1,0.042-0.157,0.149-0.137,0.256
	h0.319V16.15c0.123,0.002,0.245,0.018,0.365,0.047V16.01h0.023v0.023c0.02,0.055,0.042,0.109,0.068,0.163h1.231V16.1h-0.388v-0.3
	L11.457,15.778z"/>
</svg>
