<svg xmlns="http://www.w3.org/2000/svg" width="39.969" height="40" viewBox="0 0 39.969 40">
  <defs>
    <style>
      .cls-1 {
        fill: #fff;
        fill-rule: evenodd;
      }
    </style>
  </defs>
  <path id="Color_Fill_1" data-name="Color Fill 1" class="cls-1" d="M14.818,17.132c0.04,0.162-.024.076,0.1,0.149v-0.2h0.145v0.4c0.128,0.038.116,0.06,0.242,0.1,0.061-.205.127-0.244,0.387-0.249a0.563,0.563,0,0,0,.484.1,0.779,0.779,0,0,1,.339-0.349v0.15a5.7,5.7,0,0,0,1.356,0v0.1a0.193,0.193,0,0,0-.1.149l0.291,0.249v-0.4H18.45v-0.3a1.014,1.014,0,0,0-.339-0.05,0.245,0.245,0,0,0-.339.05c-0.07-.112-0.02-0.093-0.194-0.1V16.783a2.953,2.953,0,0,0-.63.05c-0.014-.129.022-0.088-0.194-0.1a0.6,0.6,0,0,1,.048-0.548,0.3,0.3,0,0,1,.1.1c0.074,0.085-.057.064,0.1,0.149v-0.05h0.048v-0.05a0.3,0.3,0,0,1-.1-0.1l0.29-.05v-0.1a0.6,0.6,0,0,1,.484.15h1.5a0.891,0.891,0,0,1,.1-0.2v0.05a1.244,1.244,0,0,0,.1.249h0.968a2.922,2.922,0,0,0,.968.05c0.562,0.053,1.3.055,1.937,0.05v0.15a17.916,17.916,0,0,0-2.906.1,3.848,3.848,0,0,0-.968.05h0.63v0.15l-0.678.05v0.249c0.315-.022.688-0.049,1.065-0.05v0.349l1.162-.05v0.05H21.5a0.242,0.242,0,0,1-.145.05,5.832,5.832,0,0,0,.049,1.1h0.048v-0.05c0.154-.092.151-0.141,0.145-0.4h0.775a2.081,2.081,0,0,0,.145.6,4.609,4.609,0,0,0,1.114.05c-0.123-.073-0.055.011-0.1-0.15a0.731,0.731,0,0,1,.291-0.1,0.754,0.754,0,0,0,.484,0,3.409,3.409,0,0,0,.581.3l0.1-.05c0.063,0.053.538,0.439,0.387,0.5h1.114l0.194,0.249,1.937,0.1a0.935,0.935,0,0,1,.533-0.15,1.768,1.768,0,0,0,.726.1,3.963,3.963,0,0,0,.339-0.3,2.332,2.332,0,0,1,.63-0.15,7.162,7.162,0,0,1,1.453.1c0.131,0.053.255,0.251,0.387,0.3a1.765,1.765,0,0,0,.775-0.05c0.032,0.013.125,0.143,0.145,0.15a1.8,1.8,0,0,0,.775-0.15,1.485,1.485,0,0,0,.726.05,0.55,0.55,0,0,1,.339-0.1,4.945,4.945,0,0,1,.484.249l0.775-.149a12.267,12.267,0,0,1,1.695.1,1.581,1.581,0,0,0,.63.1,2.423,2.423,0,0,0,.968.05v0.648l-1.5.1v0.15a0.278,0.278,0,0,0-.194,0,1.715,1.715,0,0,0-.145.15,0.574,0.574,0,0,0-.387-0.2,0.721,0.721,0,0,1-.194.349c-0.047.013-.018,0.039-0.048,0-0.056-.058-0.089-0.141-0.145-0.2a2.628,2.628,0,0,1-1.017.2,2.646,2.646,0,0,0-.194-0.3,2.921,2.921,0,0,0-.581.349,2.882,2.882,0,0,1-1.453-.1,0.245,0.245,0,0,0-.048-0.15v0.05a0.576,0.576,0,0,0-.1.149H33.947v-0.05a0.585,0.585,0,0,0-.291-0.249,2.239,2.239,0,0,1-1.356.6,0.633,0.633,0,0,0-.678-0.249l-0.1.2H31.477c-0.02-.178.023-0.125-0.1-0.2a1.081,1.081,0,0,1-.581.3v-0.2l-0.145-.05a0.689,0.689,0,0,0-.291,0,0.785,0.785,0,0,1-.242-0.249c-0.051-.049-0.023.162-0.145,0.1l-0.048-.15a0.859,0.859,0,0,0-.387,0,2.265,2.265,0,0,1-1.065.4v-0.5a1.234,1.234,0,0,0-.387.15H27.022c-0.143.033-.479,0.119-0.581,0.149H25.182c-0.249.077-.739,0.223-0.968,0.3l-0.339-.05a0.675,0.675,0,0,0-.1.15c-0.106.057-.262,0-0.339,0.05h0.1c0.071,0.126.061,0.091,0.242,0.1,0.047,0.012.018,0.039,0.049,0a0.259,0.259,0,0,0,.048-0.149H24.6a0.554,0.554,0,0,0,.194.5v0.05h0.048v-0.2h0.436c0.071,0.186.045,0.226,0.291,0.249a0.95,0.95,0,0,0,.823-0.1,0.245,0.245,0,0,0,.048.149c0.025-.2.01-0.2,0.194-0.249,0.225,0.543,1.913.276,2.712,0.4a0.653,0.653,0,0,1,.049-0.449,0.328,0.328,0,0,0,.048.2V21.818a0.984,0.984,0,0,0,.242-0.1c0.072,0.048-.025.172,0.145,0.149,0.134-.122.164-0.173,0.339-0.05-0.157.041-.074-0.024-0.145,0.1,0.122,0.019.076-.029,0.1,0.149H30.17v0.05a0.23,0.23,0,0,0-.145.05c0.157,0.041.074-.024,0.145,0.1a0.164,0.164,0,0,0-.1.05,2.9,2.9,0,0,1,1.114.4,6.27,6.27,0,0,1,.92,1.795c-0.32.012-.469,0.093-0.823,0.1C31.262,26.5,28.46,26.819,27.07,27.4a9.074,9.074,0,0,1-1.162.449l-2.131.05H10.8a18.96,18.96,0,0,1-3.535-.05H6.828A5.35,5.35,0,0,1,5.375,26.9a14.679,14.679,0,0,1-2.47-1.795H2.179l-0.048.249a0.724,0.724,0,0,1-.436.1,5.5,5.5,0,0,0-.436-1.147,3.718,3.718,0,0,0-.484-0.05,1.125,1.125,0,0,0-.533-0.3,14.76,14.76,0,0,1-.194-2.243,1.424,1.424,0,0,0,.194-0.4H0.194v0.05a0.579,0.579,0,0,0-.1.15H0.048v-0.2a0.8,0.8,0,0,0,0-.5C1.4,20.763,3,20.707,4.358,20.771a25,25,0,0,1,2.954.1v0.149a1.719,1.719,0,0,0,.339.15,0.892,0.892,0,0,1,.1-0.2,0.733,0.733,0,0,0,.048.249H7.845c0.02-.178-0.023-0.125.1-0.2a0.329,0.329,0,0,0,.048.2c0.231-.257.4,0.023,0.533,0a8.919,8.919,0,0,0,2.325,0,5.341,5.341,0,0,1-2.034-.2c-0.227-.1-0.545-0.3-0.823-0.4-0.767-.26-1.536-0.413-2.228-0.7a1.046,1.046,0,0,1-.1.4H5.617a13.271,13.271,0,0,1-.1-1.346,0.739,0.739,0,0,0,.194-0.3c0.716,0,2.173.007,2.373-.5a10.883,10.883,0,0,1-.048-2.642,1.014,1.014,0,0,1,.339-0.05,10.567,10.567,0,0,0,.1,2.542c0.075,0.132.188,0.109,0.387,0.1v-0.3c0.03-.013.365-0.2,0.387-0.05V11H9.3v0.1a7.176,7.176,0,0,1,.048,1.795c0,1.028.037,2.141,0.048,3.091a7.57,7.57,0,0,0,.048,1.795,4.14,4.14,0,0,1,1.647,0,0.538,0.538,0,0,0,.145.349,6.532,6.532,0,0,0,1.985,0c0.109-.03.338-0.173,0.436-0.2a9.11,9.11,0,0,1,1.695.3V17.98a2.334,2.334,0,0,1-.872-0.9,0.856,0.856,0,0,1,.194-0.15C14.665,17.132,14.579,17.1,14.818,17.132Zm2.276-.648a1.059,1.059,0,0,0,.726,0H17.094Zm-0.242.1v0.1c0.173-.021.122,0.024,0.194-0.1H16.852Zm0.775,0.2a0.173,0.173,0,0,0,.1.05A0.174,0.174,0,0,0,17.627,16.783Zm2.664,0.149a1.974,1.974,0,0,1,.823.05,4.865,4.865,0,0,1-.775,0H20.291v-0.05Zm1.937,0.1h0.1v0.05A0.164,0.164,0,0,1,22.228,17.032Zm-0.1.05h0.1v0.05A0.166,0.166,0,0,1,22.131,17.082Zm-2.954.05c0.083,0.044.062,0.044,0.145,0H19.177Zm2.518,0.2c0.123,0.073.055-.011,0.1,0.149l-0.339.3A3.166,3.166,0,0,1,21.695,17.331Zm-2.663.149v0.5l0.145,0.05a1.142,1.142,0,0,0,.533.05v0.349l0.339,0.05V18.129l-0.436-.149a0.991,0.991,0,0,0,0-.449,4.755,4.755,0,0,0-.775-0.1v0.05h0.194Zm-3.245.1v0.2h0.048C15.835,17.6,15.906,17.694,15.787,17.581Zm-0.29.2v0.1h0.145v-0.1H15.5Zm-6.538.05v0.3H9.153a0.3,0.3,0,0,1,.1-0.1v-0.2H8.959Zm0.436,0,0.048,0.249H9.685a4.084,4.084,0,0,0,1.356.05v-0.3H9.395Zm5.617,0.5c0.083,0.044.062,0.044,0.145,0H15.012Zm-6.392.9v0.1H8.668v-0.1H8.62Zm-0.242.748v0.449l0.242,0.05a3.9,3.9,0,0,1,.048-0.6H8.62C8.549,20,8.559,19.965,8.378,19.974Zm0,0.548,0.048,0.15a0.165,0.165,0,0,0,.1-0.05H8.571v-0.05H8.523v-0.05H8.378ZM10.9,21.17a1.009,1.009,0,0,0,.63.1v-0.1H11.477A0.882,0.882,0,0,1,10.9,21.17Zm0.872,0v0.1h0.339v-0.1A0.447,0.447,0,0,1,11.768,21.17Zm0.533,0a0.563,0.563,0,0,0,.484.1v-0.1H12.736A1.472,1.472,0,0,1,12.3,21.17Zm1.065,0.249v0.1h0.1v-0.1h-0.1Zm0.145,0a0.318,0.318,0,0,0,.339,0H13.511Zm10.024,0.2c0.064,0.168.075,0.144,0.291,0.149v-0.1Zm1.4,0.2-0.049.149h0.1c0.058-.039.233-0.06,0.291-0.1A1.7,1.7,0,0,0,24.94,21.818Zm4.939,0a0.173,0.173,0,0,0,.1.05A0.173,0.173,0,0,0,29.879,21.818Zm0,0.149v0.1h0.1v-0.1h-0.1Zm0.145,0v0.1h0.048v-0.1H30.024Zm-3.39.15v0.1h0.048v-0.05h0.048A0.173,0.173,0,0,0,26.634,22.117Zm3.245,0a0.174,0.174,0,0,0,.1.05A0.174,0.174,0,0,0,29.879,22.117Zm-29.2,1.845a0.4,0.4,0,0,0,.291.2v-0.05A0.561,0.561,0,0,0,.678,23.962Zm0.387,0.05a0.192,0.192,0,0,0,.194.1v-0.05A0.6,0.6,0,0,1,1.065,24.012ZM1.6,24.361a3.113,3.113,0,0,0,.291.6,1.116,1.116,0,0,0,.194-0.3Zm25.375,1.894a1.337,1.337,0,0,1-.194.6h0.1c0.6-.465,1.8-0.465,2.373-0.947-0.327-.162-0.469-0.518-0.775-0.648C28.426,26.026,27.816,26.281,26.973,26.255Zm-21.889-.3a3.156,3.156,0,0,0,.823.6v-0.2a0.442,0.442,0,0,1-.048-0.249,0.333,0.333,0,0,1-.242-0.15H5.085Zm3.632,0.3A2.061,2.061,0,0,1,8.232,27.3H8.281a7.1,7.1,0,0,1,1.84-.05V27.2a1.325,1.325,0,0,1-.484-0.947H8.717Zm3.777,0a1.708,1.708,0,0,1-.484,1h1.743V27.2a1.359,1.359,0,0,1-.484-0.947H12.494Zm7.022,0a1.555,1.555,0,0,1-.484,1h1.84V27.2a1.765,1.765,0,0,1-.533-0.947H19.516Zm3.68,0a1.4,1.4,0,0,1-.484,1H24.6V27.2a1.2,1.2,0,0,1-.484-0.947H23.2Zm-6.828.2a1.606,1.606,0,0,1-.436.8H16.9V27.2A1.727,1.727,0,0,1,16.368,26.455Z" transform="translate(-0.031 0.516)"/>
</svg>
