<svg xmlns="http://www.w3.org/2000/svg" width="39.938" height="40" viewBox="0 0 39.938 40">
  <defs>
    <style>
      .cls-1 {
        fill: #fff;
        fill-rule: evenodd;
      }
    </style>
  </defs>
  <path id="Color_Fill_1" data-name="Color Fill 1" class="cls-1" d="M8.819,18.579a9.428,9.428,0,0,1,1.705.05,1.476,1.476,0,0,1,.049.449,0.853,0.853,0,0,0-.195.1h0.1a3,3,0,0,0,1.169,0c0.04-.162-0.024-0.076.1-0.15,0,0.145-.047.069,0,0.15a0.244,0.244,0,0,0,.146.05,1.578,1.578,0,0,0,.78-0.1,3.226,3.226,0,0,0,.1-0.848,0.232,0.232,0,0,1-.146-0.05h0.195V18.08a0.984,0.984,0,0,0,.731-0.1,1.6,1.6,0,0,1,.1-1.047,0.631,0.631,0,0,1,.341-0.05,3.189,3.189,0,0,1,.974.05h0.049a0.172,0.172,0,0,1-.049.1,0.382,0.382,0,0,0-.146.15,2.372,2.372,0,0,1,.195.748,1.079,1.079,0,0,0-.146.15,0.575,0.575,0,0,1,.341.2,0.232,0.232,0,0,0-.146.05,1.477,1.477,0,0,1,.1.4,1.152,1.152,0,0,1,.536.15v-0.15c-0.2-.121-0.041-0.316,0-0.5a0.233,0.233,0,0,1-.146-0.05,1.126,1.126,0,0,0,1.218-.947c-0.117-.076-0.017-0.013,0-0.249a5.9,5.9,0,0,0-1.169-.15v-0.15a1.621,1.621,0,0,0-.39.05v-0.05H15.25a0.231,0.231,0,0,1,.049-0.2H15.1c-0.04.162,0.024,0.076-.1,0.149a2.554,2.554,0,0,1-.1-0.349c0.123-.073.075-0.022,0.1-0.2,0.326,0,.665-0.2.78-0.15v0.1a3.484,3.484,0,0,0,1.949-.1c0.042,0.388.675,0.271,1.072,0.249,0.361,0.26,2.427.105,3.07,0.1v0.2a12.639,12.639,0,0,0-2.923.05,4.176,4.176,0,0,0-1.023.05h0.292v0.15l-0.487.05v0.2a4.514,4.514,0,0,1,.974-0.1c0,0.414,0,.533,0,0.947h-0.1a0.789,0.789,0,0,1-.731,0v-0.5a1.764,1.764,0,0,0-.585-0.1c-0.12.064-.033-0.021-0.1,0.1,0.251,0.146.942,0.943,1.218,0.848a0.641,0.641,0,0,0,.39-0.349,2.1,2.1,0,0,0,.633.249,2.192,2.192,0,0,1,.1.848H19.294v0.2h0.1c0.07,0.087.078-.041,0.146-0.1v0.15l0.536,0.05c0.046-.08.39-0.8,0.39-0.8h2.728v0.05a1.616,1.616,0,0,0-.487,1.1,12.187,12.187,0,0,0,2.192.249,3.8,3.8,0,0,0,1.657.3v0.1a0.576,0.576,0,0,0-.1.15h1.51a2.871,2.871,0,0,0,1.072.05l2.631-.05a2.682,2.682,0,0,1,1.072.2h6.236a4.155,4.155,0,0,0,1.023.1v0.648a4.077,4.077,0,0,0-1.023.1H32.741a5.558,5.558,0,0,1-1.9.149,17.288,17.288,0,0,0-3.362.1H26.212v0.1H25.53c-0.186.061-.4,0.286-0.585,0.349a8.151,8.151,0,0,1-1.9,0v0.1h0.049a0.245,0.245,0,0,0,.146.05c0.7-.4,2.164.352,3.069,0.05a1.205,1.205,0,0,0,.049.4,1.8,1.8,0,0,1,.536.15,13.576,13.576,0,0,0,2.728.1,5.2,5.2,0,0,1,.682.249,1.025,1.025,0,0,1,.049-0.349,0.42,0.42,0,0,0,.487,0v0.15a0.684,0.684,0,0,1,.244.05v0.05H30.84l-0.049.4a2.967,2.967,0,0,1,1.072,1.6,2.448,2.448,0,0,1-.682.2c0,1.921-1.584,2.117-2.875,2.693a16.093,16.093,0,0,1-1.9.9l-1.315.05H9.452a6.491,6.491,0,0,1-2.1-.149,11.284,11.284,0,0,1-1.705-1.047c-0.513-.322-1.063-0.5-1.559-0.848-0.62-.433-0.682-1.28-1.754-1.3l0.146,0.947H2.241v-1H2.192a1.511,1.511,0,0,1-.536,0,1.645,1.645,0,0,1-.1-0.748,0.181,0.181,0,0,1-.049-0.1H1.218a1,1,0,0,1-.828.05H0.585c-0.04-.162.024-0.076-0.1-0.15a0.317,0.317,0,0,1-.244.15,0.758,0.758,0,0,1-.1-0.2,1.554,1.554,0,0,0-.1-1.147,1.915,1.915,0,0,1,.049-0.6l-0.049-.3A1.2,1.2,0,0,0,.341,21.77H1.51a0.889,0.889,0,0,0,.1.2,0.443,0.443,0,0,1,.633-0.05c0.036-.2,0-0.16.195-0.2a1.361,1.361,0,0,0,.341.05c0.123,0.073.089,0.063,0.1,0.249H3.021c0.051-.217.077-0.244,0.341-0.249a1.974,1.974,0,0,1,1.267,0,2.833,2.833,0,0,0,.877-0.05,18.117,18.117,0,0,1,1.9.05c0.08,0.274.393,0.22,0.731,0.2a0.726,0.726,0,0,0,.438.2v-0.15H8.331V21.571a14.373,14.373,0,0,1-2.144-.249H3.508a0.14,0.14,0,0,0-.049-0.05,0.9,0.9,0,0,0-.146-0.648,1.209,1.209,0,0,0,.146-0.947c-0.123-.019-0.077.029-0.1-0.15,0.123-.073.075-0.022,0.1-0.2,1.309,0.055,2.8.049,4.19,0.05v-0.05A1.271,1.271,0,0,1,7.6,18.479c-0.022-.544-0.034-1.428-0.049-1.895H7.893a7.5,7.5,0,0,0,.146,2.742v-0.05a0.381,0.381,0,0,1,.146-0.15v0.05H8.234c-0.022-.4.008-0.592,0.39-0.6-0.008-1.744.058-3.745,0-5.485A8.68,8.68,0,0,1,8.672,11C8.666,13.506,8.809,16.168,8.819,18.579ZM15.1,16.136c0.038,0.034.109,0.065,0.146,0.1a0.232,0.232,0,0,0-.146.05H15.3v-0.1a0.139,0.139,0,0,1-.049-0.05H15.1Zm0.244,0.249a1.071,1.071,0,0,0,.731,0H15.347ZM7.7,16.734v0.1H7.747v-0.1H7.7Zm8.721,1.446h0.439a0.58,0.58,0,0,0-.1-0.4,2.55,2.55,0,0,0-.438.548h0.1V18.18Zm0.487-.4c-0.015.339,0.014,0.5,0.292,0.548l-0.049-.548H16.906Zm0.341,0a1.977,1.977,0,0,0,.049.449,1.322,1.322,0,0,0,.585.1,0.181,0.181,0,0,0,.049-0.1A3.664,3.664,0,0,0,17.247,17.781Zm-0.78.449v0.2h0.049a0.34,0.34,0,0,1,.244-0.15V18.23H16.468Zm3.8,0.249h0.1v0.05A0.165,0.165,0,0,1,20.268,18.479Zm-11.937.748H8.526V18.679h-0.1A1.034,1.034,0,0,0,8.331,19.227Zm1.121-.2a0.327,0.327,0,0,0,.049.2V18.978H9.744v0.2l0.195,0.05c0-.229.155-0.178,0.487-0.149a0.859,0.859,0,0,0,.1-0.3,4.518,4.518,0,0,0-1.657-.1v0.1c0.055,0.093.04,0.357,0.1,0.449C9.013,18.972,9.166,19.009,9.452,19.028Zm6.626-.3a0.425,0.425,0,0,0,.049.249A0.426,0.426,0,0,0,16.078,18.729Zm-7.016.349v0.149H9.4V19.078H9.062Zm6.139,0.05c-0.016.069,0.069,0.072,0.1,0.1C15.333,19.174,15.214,19.142,15.2,19.127Zm-5.164.05a0.174,0.174,0,0,0,.1.05A0.174,0.174,0,0,0,10.037,19.177Zm-4.872.4v0.349H5.749v-0.4H5.7A1.156,1.156,0,0,1,5.164,19.576Zm-1.462,0v0.349H4.434V19.576H3.7Zm0.78,0v0.349H5.116V19.576H4.482Zm1.315,0v0.349H6.382V19.576H5.8ZM6.48,19.925H7.065V19.576H6.431v0.05A0.551,0.551,0,0,1,6.48,19.925Zm0.633-.349v0.549H7.7v-0.1c-0.108-.117-0.056-0.039-0.049-0.249H7.454v-0.1a0.606,0.606,0,0,0,.195-0.05v-0.05H7.113Zm-3.41.449v0.1H4.385a0.139,0.139,0,0,1,.049-0.05v-0.05H3.7Zm0.78,0v0.1H5.067a0.139,0.139,0,0,1,.049-0.05v-0.05H4.482Zm0.682,0v0.1H5.749v-0.1H5.164Zm0.633,0a0.758,0.758,0,0,0,.585.1v-0.1H5.8Zm0.633,0a0.758,0.758,0,0,0,.585.1,0.139,0.139,0,0,1,.049-0.05v-0.05H6.431ZM1.315,22.019c0.084,0.044.062,0.044,0.146,0H1.315Zm7.308,0v0.2h0.1v-0.2h-0.1Zm0.146,0v0.15a0.166,0.166,0,0,1,.1.05c0.788-.1,2.046.052,3.167-0.05,0.548-.05,1.218.156,1.316-0.05H11.3A9.126,9.126,0,0,0,8.77,22.019Zm-8.283.7-0.049.15h0.1A0.245,0.245,0,0,0,.487,22.717Zm-0.049.2a0.175,0.175,0,0,0,.1.05A0.175,0.175,0,0,0,.438,22.917Zm-0.049.4H0.536v-0.2C0.391,23.183.418,23.068,0.39,23.316Zm0.146,0.249v-0.2H0.487v0.05H0.438l-0.049.15H0.536Zm-0.146.05v0.15H0.536v-0.15H0.39Zm0,0.349v0.1H0.585v-0.05H0.536v-0.05H0.39Zm0.049,0.349H0.585a0.643,0.643,0,0,0-.049-0.2h-0.1v0.2Zm0.146,0.2v-0.15a0.606,0.606,0,0,0-.195.05v0.1H0.585ZM1.657,25.46H1.851a0.643,0.643,0,0,0-.049-0.2,0.166,0.166,0,0,0-.1.05A0.258,0.258,0,0,0,1.657,25.46Zm4.287,1.446a1.6,1.6,0,0,0,.731.449v-0.15A1.462,1.462,0,0,0,5.944,26.906ZM9.6,27.255a1.452,1.452,0,0,1-.39.8h2.339V28a0.985,0.985,0,0,1-.39-0.748H9.6Zm4.482,0a1.763,1.763,0,0,1-.39.8h2.193V28a3.15,3.15,0,0,1-.39-0.748H14.08Zm4.385,0c-0.124.319-.335,0.558-0.438,0.848h0.049a8.817,8.817,0,0,1,2.387,0V28a4.806,4.806,0,0,1-.438-0.748H18.465Zm4.531,0a2.47,2.47,0,0,1-.438.848h2.29V28a6.076,6.076,0,0,1-.438-0.748H23Zm4.385,0-0.049.249h0.1c0.128-.116.353-0.138,0.487-0.249H27.381Z" transform="translate(-0.063 0.031)"/>
</svg>
