<?xml version="1.0" encoding="utf-8"?>
<!-- Generator: Adobe Illustrator 16.0.0, SVG Export Plug-In . SVG Version: 6.00 Build 0)  -->
<!DOCTYPE svg PUBLIC "-//W3C//DTD SVG 1.1//EN" "http://www.w3.org/Graphics/SVG/1.1/DTD/svg11.dtd">
<svg version="1.1" id="Layer_1" xmlns="http://www.w3.org/2000/svg" xmlns:xlink="http://www.w3.org/1999/xlink" x="0px" y="0px"
	 width="40px" height="40px" viewBox="0 0 40 40" enable-background="new 0 0 40 40" xml:space="preserve">
<path id="jp_type_5_na_to_ico" fill="#FFFFFF" d="M40,11.366v0.792c-0.235,0.017-0.472-0.006-0.7-0.066h-5.161
	c-0.563-0.041-1.128-0.029-1.688,0.033c-0.332,0.071-0.769-0.029-1.06,0.033c-0.688,0.148-1.678-0.112-2.352,0.033L24.9,12.224
	c-0.46,0.079-0.925,0.123-1.392,0.132c-0.329,0.071-0.726-0.015-1.093,0.066c-0.557,0.102-1.123,0.146-1.689,0.132
	c-0.056,0.241-0.183,0.459-0.364,0.627c0.074,0.052,0.101,0.148,0.066,0.231h0.563v0.066h-0.628v0.033h-0.033v0.033h0.993
	c0.178-0.014,0.355-0.002,0.529,0.033c0.448,0.037,0.892,0.114,1.326,0.231c0.146,0.04,0.459-0.029,0.529,0
	c0.315,0.166,0.68,0.212,1.025,0.132c0.096,0.078,0.166,0.182,0.201,0.3C24.871,14.266,25,14.27,25,14.27
	c0.074,0.029,0.153,0.04,0.232,0.033c0.15,0.06,0.332,0.244,0.5,0.3c0.244,0.024,0.492,0.002,0.729-0.066
	c0.736-0.006,1.469-0.094,2.186-0.264c0.078-0.012,0.159-0.001,0.231,0.033c0.106-0.011,0.208-0.045,0.3-0.1
	c0.087,0.021,0.176,0.032,0.266,0.033v0.165c0.024,0.039,0.035,0.085,0.033,0.132c-1.042,0.035-2.081,0.123-3.113,0.264
	l-0.629,0.033c-0.292,0.133-0.536,0.352-0.7,0.627c0.045,0.239,0.056,0.483,0.032,0.726c0.094,0.101,0.229,0.15,0.365,0.132
	c0.164,0.03,0.332,0.041,0.5,0.033c0.371,0.065,0.748,0.099,1.125,0.1c0.115-0.051,0.242-0.063,0.364-0.033h0.431
	c0.603,0.167,1.229,0.235,1.854,0.2l0.5-0.033c0.135,0.025,0.484,0.087,0.662,0.132h0.5c0.29,0.067,0.699,0.03,0.992,0.1h0.432
	v-0.071h0.033c0.574,0.088,1.527,0.192,2.252,0.231c0.064,0.1,0.214,0.2,0.265,0.3l0.033,0.231c0.144,0.205,0.378,0.328,0.629,0.33
	l0.53,1.155l0.3,0.231c0.028,0.12,0.1,0.227,0.2,0.299c0.059,0.043,0.128,0.066,0.199,0.066c-0.018,0.173,0.018,0.348,0.101,0.5
	h-0.048c-0.043-0.066-0.1-0.123-0.166-0.165c-0.02,0.123-0.044,0.109-0.066,0.231c0.107,0.121,0.176,0.27,0.2,0.429
	c-0.03,0.027-0.063,0.05-0.101,0.065c0.045,0.092,0.133,0.153,0.232,0.166c0.062,0.106,0.117,0.217,0.166,0.33l0.1-0.033
	c0.094,0.123,0.171,0.258,0.232,0.4c0.09,0.187-0.091,0.221,0,0.399c0.036,0.018,0.07,0.04,0.1,0.065l-0.032,0.265
	c0.06,0.062,0.084,0.147,0.065,0.231c-0.029,0.025-0.063,0.048-0.1,0.065c-0.088,0.162,0.016,0.644-0.066,0.825
	c-0.024-0.004-0.048-0.016-0.065-0.033c-0.029-0.046-0.036-0.186-0.066-0.23c-0.077,0.119-0.266,0.142-0.331,0.264l0.033,0.1
	c-0.08,0.086-0.169,0.163-0.266,0.231c-0.109,0.067-0.172-0.025-0.264,0.032c-0.094,0.059-0.158,0.207-0.266,0.265
	c-0.055,0.011-0.111,0.011-0.166,0c-0.182,0.112-0.35,0.247-0.5,0.399c-0.05-0.027-0.025-0.094-0.066-0.033
	c-0.105,0.056-0.195,0.135-0.265,0.231c-0.193,0.103-0.394,0.19-0.601,0.265c-0.153,0.185-0.364,0.313-0.6,0.362v0.033h0.042
	c0.064,0.026-0.065,0.033-0.065,0.033c-0.1,0.067-0.213,0.113-0.331,0.132c-0.098,0.078-0.187,0.167-0.265,0.264
	c-0.177,0.103-0.366,0.181-0.563,0.231l0.032,0.065h-0.032c-0.183,0.181-0.392,0.101-0.601,0.265v0.043
	c-0.072,0.042-0.15,0.076-0.231,0.1c-0.166-0.022-0.334-0.022-0.5,0v0.066c-0.269,0.123-0.433-0.179-0.7-0.066v0.066
	c-0.125,0.028-0.257,0.005-0.363-0.066H30.53v0.066c-0.269,0.123-0.433-0.181-0.7-0.066v0.066c-0.124,0.027-0.254,0.003-0.36-0.066
	h-0.331v0.066c-0.268,0.123-0.433-0.181-0.699-0.066v0.066c-0.124,0.027-0.254,0.003-0.359-0.066
	c-0.268-0.123-0.434,0.181-0.7,0.066v-0.066h-0.327v0.066c-0.273,0.125-0.451-0.187-0.729-0.066v0.066
	c-0.26,0.118-0.426-0.185-0.7-0.066v0.066H25.4c-0.145-0.067-0.307-0.091-0.465-0.066v0.066c-0.232-0.016-0.467-0.016-0.699,0
	c-0.233-0.016-0.467-0.016-0.7,0c-0.126,0.028-0.257,0.005-0.364-0.066h-0.324v0.066c-0.269,0.123-0.433-0.181-0.699-0.066v0.066
	c-0.269,0.123-0.434-0.181-0.7-0.066v0.066c-0.269,0.123-0.433-0.181-0.7-0.066c-0.078,0.052-0.172,0.075-0.265,0.066
	c-0.133-0.067-0.284-0.091-0.431-0.066v0.066c-0.268,0.123-0.433-0.181-0.7-0.066v0.066c-0.268,0.123-0.433-0.181-0.7-0.066v0.066
	c-0.274,0.125-0.452-0.187-0.729-0.066v0.066c-0.26,0.118-0.425-0.185-0.7-0.066v0.066c-0.26,0.118-0.425-0.185-0.7-0.066v0.066
	h-0.198c-0.145-0.069-0.307-0.092-0.464-0.066v0.066c-0.263,0.12-0.43-0.181-0.7-0.066v0.066c-0.18,0.023-0.362,0.001-0.53-0.066
	c-0.178,0-0.119,0.045-0.166,0.066c-0.263,0.12-0.43-0.181-0.7-0.066c-0.039,0.017,0,0.058-0.1,0.066
	c-0.194-0.062-0.397-0.084-0.6-0.066v0.066c-0.169,0.026-0.343,0.004-0.5-0.066h-0.2v0.066c-0.12,0.023-0.243-0.001-0.345-0.066
	c-0.137-0.026-0.279-0.003-0.4,0.066c-0.206-0.053-0.417-0.075-0.629-0.066v0.066c-0.268,0.123-0.433-0.181-0.7-0.066
	c-0.107,0.07-0.239,0.094-0.364,0.066c-0.095-0.067-0.213-0.092-0.327-0.066v0.066c-0.268,0.123-0.433-0.179-0.7-0.066v0.066
	c-0.268,0.123-0.433-0.179-0.7-0.066v0.066c-0.147,0.026-0.298,0.003-0.43-0.066c-0.236-0.036-0.3,0.112-0.5,0.066
	C7.2,26.43,7.1,26.345,7.02,26.318c-0.208,0.006-0.414-0.039-0.6-0.131c-0.024-0.068-0.071-0.127-0.132-0.166
	c-0.063-0.026-0.132-0.038-0.2-0.032c-0.183-0.101-0.359-0.21-0.53-0.33c-0.114,0.003-0.227-0.02-0.331-0.066
	c-0.074-0.093-0.164-0.171-0.265-0.23L4.83,25.395c-0.164-0.097-0.319-0.207-0.464-0.33c-0.067-0.006-0.134-0.006-0.2,0
	c-0.063-0.02-0.275-0.131-0.2-0.199c-0.104-0.077-0.234-0.113-0.364-0.1c-0.108-0.066-0.209-0.144-0.3-0.231
	c-0.116-0.05-0.239-0.083-0.364-0.101c-0.149-0.115-0.284-0.25-0.4-0.399c-0.11-0.034-0.212-0.091-0.3-0.165
	c-0.055-0.172-0.122-0.338-0.2-0.5c-0.054,0.012-0.109-0.016-0.132-0.066c-0.075-0.314-0.119-0.635-0.132-0.957
	c0.078-0.154,0.113-0.327,0.1-0.5H1.325c0,0.391,0,0.737,0,1.188H1.159l0.1-1.188H0.43v-0.94h-0.1c0-0.239,0.013-0.33,0-0.528h0.1
	v-0.264H0.4c-0.099,0.095-0.227,0.152-0.364,0.164L0,19.552h0.43c-0.014-0.048-0.036-0.093-0.066-0.132c0,0,0.066-0.374,0.066-0.5
	c-0.341-0.118-0.248-0.484-0.23-0.919c0.293-0.152,0.248-0.295,0.232-0.726c-0.062-0.07,0.024-0.6-0.066-0.792
	c0.039-0.046,0.062-0.105,0.064-0.166h-0.1c0.006-0.111-0.022-0.486,0-0.528c0.03-0.058,0.152-0.06,0.1-0.231
	c-0.042-0.062-0.076-0.129-0.1-0.2c0.286-0.104,0.592-0.138,0.894-0.1H10.4v-1.75h1.192v-0.063
	c-0.051-0.194-0.062-0.396-0.033-0.594c0.335-0.083,0.683-0.105,1.027-0.066H14.9v-0.033h0.033v-0.033H14.9
	c-0.079-0.077-0.195-0.103-0.3-0.066c-0.518,0.041-1.038,0.041-1.556,0v-2.047h2.02l0.033-0.264h0.5v0.1h0.166v-0.1h0.364v0.1h0.1
	v-0.166h0.1c0-0.3,0.671-0.213,1.06-0.2V9.584h0.662c0.036-0.015,0.015-0.09,0.132-0.066c0.071,0.014,0,0.051,0.033,0.066h0.762
	c0.115,0.163,0.301,0.261,0.5,0.264c0.115,0.048,0.258,0.19,0.364,0.231h1.12v0.065c0.509,0.032,1.019,0.009,1.522-0.066
	c0.184,0.22,0.257,0.511,0.201,0.792l-0.201,0.165v0.033h0.067c0.361,0.059,0.728,0.081,1.093,0.066
	c0.317,0.068,0.7-0.015,1.061,0.066c0.426,0.077,0.858,0.11,1.291,0.1h1.258c0.55,0.062,1.104,0.073,1.656,0.033l2.715,0.033
	c0.344-0.008,0.688,0.015,1.027,0.066H39.3C39.528,11.371,39.765,11.349,40,11.366z"/>
</svg>
