<?xml version="1.0" encoding="utf-8"?>
<!-- Generator: Adobe Illustrator 16.0.0, SVG Export Plug-In . SVG Version: 6.00 Build 0)  -->
<!DOCTYPE svg PUBLIC "-//W3C//DTD SVG 1.1//EN" "http://www.w3.org/Graphics/SVG/1.1/DTD/svg11.dtd">
<svg version="1.1" id="Layer_1" xmlns="http://www.w3.org/2000/svg" xmlns:xlink="http://www.w3.org/1999/xlink" x="0px" y="0px"
	 width="39.969px" height="40px" viewBox="0 0 39.969 40" enable-background="new 0 0 39.969 40" xml:space="preserve">
<path id="Color_Fill_1" fill="#FFFFFF" d="M1.415,10.516c0.031,0.042,0.048,0.093,0.048,0.145H1.415V10.516z M1.463,15.403
	c0.277,0.02,0.555-0.014,0.819-0.1v-0.045H1.8V15.21c-0.126-0.18-0.105-0.424,0.048-0.581h4.193c0.027,0.026,0.063,0.043,0.1,0.048
	c-0.057,0.19,0,0.397,0.145,0.532c0.012,0.02,0.028,0.036,0.048,0.048c0-0.05,0.015-0.1,0.045-0.141v0.242
	c0.161-0.014,0.322-0.014,0.482,0c0.013-0.087,0.047-0.171,0.1-0.242c0.004,0.038,0.021,0.073,0.048,0.1
	c-0.022-0.248-0.067-0.343,0.145-0.387c0.409,0.229,0.889,0.296,1.345,0.187v-0.048c-0.1,0.012-0.2-0.006-0.289-0.052
	c0.8,0.014,1.985-0.578,1.976-1.306h-0.1c-0.187-0.059-0.384-0.076-0.578-0.048l0.048-0.1H9.222v-0.188L8.74,13.322l0.048-0.194
	H8.644c0,0.052-0.016,0.104-0.048,0.145v-0.047c-0.09-0.109-0.109-0.26-0.048-0.387c0.149-0.009,0.296-0.043,0.434-0.1
	c0.093-0.019,0.188,0.021,0.241,0.1h1.4c0-0.052,0.016-0.104,0.048-0.145v0.048c0.047,0.14,0.192,0.223,0.337,0.194
	c-0.009-0.083,0.007-0.168,0.048-0.242c0.061,0.437,2.43,0.309,2.892,0.29v0.145c-0.66-0.049-1.323-0.033-1.979,0.048
	c-0.273-0.017-0.549-0.001-0.819,0.048h0.145v0.145h-0.193v0.1c0.033,0.127,0.033,0.26,0,0.387
	c-0.187,0.059-0.384,0.076-0.578,0.048v0.387h-0.29c-0.199,0.172-0.377,0.367-0.53,0.581h0.048c0.17-0.066,0.359-0.066,0.53,0
	v-0.534h1.253v0.1c0.257,0.358,0.012,0.694,0.289,0.919v-0.052c0.203-0.061,0.417-0.077,0.627-0.048v0.194
	c0.536,0.002,1.069,0.067,1.59,0.194c0.038,0.062,0.071,0.127,0.1,0.194c0.214-0.019,0.429,0.016,0.627,0.1
	c0.044,0.135,0.128,0.253,0.241,0.339c0.163,0.018,0.327,0.001,0.482-0.048c0.642-0.017,1.249,0.044,1.928,0.048
	c0.04-0.157-0.024-0.074,0.1-0.146c0.059,0.15,0.018,0.109,0.193,0.146c0.04-0.157-0.024-0.074,0.1-0.146
	c0.129,0.432,0.4,0.221,0.482,0.29c0.214,0.177,0.086,0.348,0.53,0.339c0.523,0.104,1.056,0.153,1.59,0.146
	c1.336,0.245,2.701,0.278,4.048,0.1c1.008,0.132,2.028,0.132,3.036,0c0.7,0.337,2.667,0.194,3.952,0.194h8.519v0.677
	c-3.761,0-7.711,0-11.711,0v0.037H28.21c0.028,0.184-0.007,0.372-0.101,0.532c-0.041,0.031-0.092,0.048-0.145,0.048
	c-0.025-0.054-0.059-0.103-0.1-0.145c0.056-0.156,0.09-0.319,0.1-0.484c-0.172,0.032-0.336,0.098-0.482,0.194
	c-0.1,0.01-0.399-0.048-0.578-0.048c-0.74,0.038-1.482,0.004-2.217-0.1v0.1c-0.102,0.211-0.119,0.454-0.047,0.677
	c-0.084,0.063-0.186,0.098-0.289,0.101c-0.036-0.126-0.053-0.257-0.049-0.387c-0.057-0.057-0.105-0.123-0.145-0.194
	c0.177-0.089,0.212,0,0.24-0.242c-2.227-0.053-4.454,0.109-6.65,0.484c-0.037,0.193-0.035,0.249-0.241,0.29
	c-0.513-0.378-1.176-0.486-1.783-0.29c0.086,0.129,0.136,0.279,0.145,0.435c-0.125,0.103-0.275,0.17-0.434,0.194l-0.1-0.29
	l-0.145,0.101c0.107,0.139,0.126,0.326,0.048,0.483h-0.53v0.142h0.1c0.189,0.049,0.388,0.049,0.578,0
	c0.031-0.042,0.048-0.092,0.048-0.145c1.032,0.01,1.983-0.031,2.7-0.1c0.086,0.018,0.168,0.052,0.241,0.1h0.145v-0.1l0.434,0.047
	c0.009-0.035,0.025-0.069,0.048-0.1v0.146l0.485,0.052v0.048c-0.092,0.044-0.149,0.14-0.145,0.242h0.1
	c0.006-0.075,0.042-0.146,0.1-0.194c0.082,0.045,0.149,0.112,0.193,0.194h0.334c0,0.157,0.024,0.108,0.145,0.242h0.1
	c-0.01-0.362,0.072-0.4,0.434-0.388c0.25,0.091,0.508,0.156,0.771,0.194c0.02,0.127,0.076,0.101,0.336,0.101
	C22.37,19.71,22.92,19.762,23.398,20v-0.677h0.145c0.007,0.329,0.089,0.382,0.1,0.726c0.363,0.027,0.721,0.109,1.061,0.242
	c0.031,0.042,0.048,0.093,0.048,0.145c0.014,0.242,0.014,0.484,0,0.727c-0.229,0.385-0.423,0.789-0.578,1.21
	c0.071,0.317,0.088,0.646,0.048,0.968c-0.227,0.357-0.566,0.629-0.964,0.774c-0.675,0.496-1.402,0.918-2.169,1.258
	c-0.59,0.095-1.189,0.11-1.783,0.048H8.162c-1.107,0.094-2.221,0.077-3.325-0.048c-0.551-0.212-1.083-0.472-1.59-0.774
	c-0.633-0.173-1.202-0.525-1.639-1.016c-0.17-0.531-0.205-1.098-0.1-1.645h-0.19c-0.069,0.174-0.186,0.324-0.337,0.435H0.933v-0.049
	c0.235-0.224,0.431-0.485,0.578-0.774c-0.125-0.506-0.158-1.03-0.1-1.548h0.486v-0.049c-0.109-0.053-0.168-0.172-0.145-0.29
	c0.157-0.04,0.32-0.056,0.482-0.046c0.315-0.076,0.643-0.093,0.964-0.048c0.819,0.049,1.641,0.032,2.458-0.053v-0.145
	c-1.856,0-3.662,0-5.349-0.048v-0.101c0.038-0.004,0.073-0.021,0.1-0.048c-0.112,0.013-0.225,0.013-0.337,0
	c-0.073-0.283-0.091-0.579-0.053-0.869c0-0.7-0.177-2.585,0.289-2.758c0.333-0.145,0.705-0.18,1.06-0.1
	c-0.007-0.622,0.077-1.389,0.049-1.932c-0.052-0.418-0.052-0.84,0-1.258c-0.043-0.5-0.027-1.003,0.048-1.5V15.403z M10.957,12.503
	c0.051,0.055,0.051,0.14,0,0.194V12.5V12.503z M8.74,12.89c-0.027,0.026-0.063,0.043-0.1,0.048v0.048h0.148
	c-0.004-0.038-0.021-0.072-0.048-0.099V12.89z M8.84,13.084c0.186,0.076,0.393,0.076,0.578,0H8.836H8.84z M10.816,13.184
	c0.071,0.056,0.17,0.056,0.241,0h-0.245H10.816z M9.804,13.377c-0.037,0.033-0.108,0.064-0.145,0.1
	c0.152,0.052,0.32,0.013,0.434-0.1H9.8H9.804z M10.669,13.416c-0.005,0.067-0.021,0.132-0.048,0.194h0.1
	c0.094-0.103,0.209-0.185,0.337-0.242L10.669,13.416z M11.488,13.416c0.226-0.033,0.457-0.017,0.675,0.048
	C11.937,13.497,11.706,13.481,11.488,13.416L11.488,13.416z M0.355,15.597c-0.042,0.041-0.092,0.074-0.145,0.1v0.1h0.048
	c0.079-0.048,0.146-0.114,0.193-0.194h-0.1L0.355,15.597z M14.475,16.516c-0.04-0.157,0.024-0.074-0.1-0.145l-0.045,0.145H14.475z
	 M39.15,17.29v0.436h0.1V17.29H39.15z M39.391,17.29v0.484h0.101v-0.048c0.052-0.139,0.067-0.289,0.048-0.436H39.391z
	 M39.777,17.774V17.29h-0.101v0.436h-0.045v0.048H39.777z M38.139,17.339v0.387h0.1v-0.387H38.139z M38.379,17.339v0.387h0.1v-0.387
	H38.379z M38.62,17.339c-0.007,0.131,0.01,0.262,0.048,0.387h0.048v-0.049c0.046-0.106,0.063-0.224,0.048-0.339L38.62,17.339
	L38.62,17.339z M38.909,17.339v0.387h0.1v-0.387H38.909z M24.258,18.21v0.1h0.1v-0.1H24.258z M27.969,18.306l0.049,0.145h0.051
	v-0.048h0.049v-0.048h-0.049C28.042,18.328,28.007,18.311,27.969,18.306z M15.15,18.406c-0.005,0.053,0.012,0.105,0.048,0.145
	c0.071-0.122,0.018-0.064-0.048-0.148V18.406z M17.56,18.506c-0.024,0.063-0.024,0.132,0,0.194h0.048v-0.056
	c0.022-0.103,0.045-0.05-0.049-0.145L17.56,18.506z M0.114,19.038c0.016,0.106-0.05,0.052,0.048,0.1
	c-0.003-0.04-0.02-0.077-0.048-0.105V19.038z M19.535,19.616c0.019,0.122-0.028,0.075,0.145,0.1v-0.055L19.535,19.616z
	 M1.896,19.664c-0.024,0.063-0.024,0.132,0,0.193h0.049v-0.051c0.024-0.104,0.046-0.051-0.048-0.146L1.896,19.664z M20.065,19.764
	h0.1v0.101h-0.051L20.065,19.764z M23.535,19.764c-0.01,0.084,0.008,0.168,0.048,0.242c0.011-0.086-0.006-0.172-0.048-0.248V19.764z
	 M22.135,19.958c0.09,0.089,0.227,0.108,0.338,0.048L22.135,19.958z M24.448,20.441v0.049h-0.046
	c-0.092,0.037,0.101,0.048,0.101,0.048c-0.005-0.04-0.022-0.076-0.052-0.103L24.448,20.441z M22.665,20.49
	c0.027,0.026,0.063,0.043,0.101,0.048c-0.025-0.028-0.06-0.047-0.097-0.054L22.665,20.49z M22.811,20.538
	c0.06,0.04,0.125,0.074,0.192,0.1v-0.1h-0.19H22.811z M23.051,20.538v0.1h0.193v-0.057h-0.046v-0.049h-0.146L23.051,20.538z
	 M1.318,20.916c0.051,0.055,0.051,0.14,0,0.193V20.916z M24.402,21.116v0.1h0.049C24.447,21.178,24.43,21.143,24.402,21.116z
	 M1.993,21.357h0.145v-0.196h-0.1v0.048c-0.03,0.043-0.046,0.094-0.045,0.146V21.357z M1.415,22.371c0.054,0.071,0.054,0.17,0,0.242
	V22.371z M2.523,23.436H2.234v0.049h0.048v0.048c0.109,0.042,0.124,0.086,0.193,0.048C2.506,23.538,2.522,23.487,2.523,23.436
	L2.523,23.436z M2.716,23.536c-0.025,0.062-0.042,0.127-0.048,0.194l0.289,0.1v-0.201c-0.071-0.053-0.154-0.086-0.241-0.097V23.536z
	 M3.102,23.636c0.038,0.07,0.114,0.11,0.193,0.101v-0.06L3.102,23.636z M4.259,23.878c-0.254-0.05-0.512-0.083-0.771-0.101
	c-0.101,0.038-0.198,0.087-0.289,0.146c0.027,0.026,0.062,0.044,0.1,0.048c0.311,0.201,0.653,0.349,1.012,0.437v-0.101
	c-0.053-0.139-0.072-0.288-0.053-0.436L4.259,23.878z M22.331,23.777c-0.243,0.162-0.554,0.086-0.578,0.484h0.048
	c0.174-0.207,0.533-0.242,0.723-0.435h-0.049v-0.054H22.33L22.331,23.777z M13.753,24.02c0.017,0.303-0.087,0.598-0.289,0.823h0.867
	V24.79c-0.189-0.255-0.306-0.556-0.337-0.871c-0.063,0.064-0.151,0.1-0.242,0.097L13.753,24.02z M16.645,23.92
	c-0.117,0.049-0.193,0.163-0.193,0.29c-0.108,0.204-0.205,0.414-0.289,0.629h0.819V24.79c-0.162-0.27-0.276-0.565-0.338-0.874
	L16.645,23.92z M19.199,23.968c-0.161,0.252-0.244,0.63-0.386,0.871h0.819V24.79c-0.253-0.19-0.368-0.516-0.289-0.823L19.199,23.968
	L19.199,23.968z M11.344,24.307c-0.021,0.199-0.105,0.386-0.241,0.532h0.578V24.79C11.548,24.645,11.434,24.481,11.344,24.307
	L11.344,24.307z M6.621,24.355c-0.032,0.181-0.116,0.349-0.241,0.483h0.529V24.79C6.788,24.669,6.738,24.479,6.621,24.355
	L6.621,24.355z M8.982,24.355c-0.032,0.181-0.116,0.349-0.241,0.483h0.528V24.79C9.162,24.652,9.065,24.508,8.982,24.355
	L8.982,24.355z"/>
</svg>
