<?xml version="1.0" encoding="utf-8"?>
<!-- Generator: Adobe Illustrator 16.0.0, SVG Export Plug-In . SVG Version: 6.00 Build 0)  -->
<!DOCTYPE svg PUBLIC "-//W3C//DTD SVG 1.1//EN" "http://www.w3.org/Graphics/SVG/1.1/DTD/svg11.dtd">
<svg version="1.1" id="Layer_1" xmlns="http://www.w3.org/2000/svg" xmlns:xlink="http://www.w3.org/1999/xlink" x="0px" y="0px"
	 width="40px" height="40px" viewBox="0 0 40 40" enable-background="new 0 0 40 40" xml:space="preserve">
<path id="Color_Fill_1" fill="#FFFFFF" d="M0.066,7H0.11C0.084,7.036,0.1,7.027,0.066,7z M0.22,7.155
	c0.07,0.039,0.125,0.102,0.154,0.177H0.353C0.3,7.28,0.255,7.22,0.22,7.155z M1.32,7.332c0.079,0.045,0.141,0.116,0.176,0.2H1.477
	V7.51C1.406,7.471,1.352,7.408,1.322,7.333L1.32,7.332z M7.865,14.893V14.8c-0.134,0.006-0.268-0.001-0.4-0.022v-0.04
	c-0.049-0.218-0.057-0.444-0.022-0.665c-0.232-0.204-0.439-0.435-0.617-0.688c-0.226-0.3-0.542-0.537-0.771-0.843
	c-0.146-0.194-0.383-0.338-0.529-0.532c-0.649-0.864-1.509-1.551-2.16-2.417l-0.22-0.2c-0.278-0.37-0.625-0.671-0.9-1.042
	c-0.178-0.147-0.334-0.319-0.463-0.51h0.024C1.882,7.957,2.013,8.024,2.093,8.13c0.261,0.347,0.625,0.612,0.882,0.954
	c0.185,0.246,0.41,0.441,0.6,0.687l0.304,0.289c0.119,0.179,0.26,0.343,0.419,0.488c0.089,0.056,0.171,0.123,0.242,0.2
	c0.524,0.7,1.2,1.255,1.719,1.951c0.339,0.452,0.853,0.787,1.168,1.264c0.029-0.008,0.06-0.008,0.088,0V13.94
	c0.055-0.026,0.116-0.034,0.176-0.022c0.141,0.055,0.295,0.063,0.441,0.022c0.468,0.058,0.941,0.065,1.41,0.022
	c0.11-0.013,0.221-0.013,0.331,0c0.168-0.02,0.337-0.027,0.507-0.022v0.377c0.041,0.106,0.063,0.219,0.066,0.333
	c-0.058,0.009-0.048,0.035-0.044,0.155H10.05v0.067l1.014-0.022v-0.178c0.033-0.028,0.07-0.051,0.11-0.067v0.022
	c0.035,0.033,0.064,0.07,0.088,0.111c0.008-0.05,0.031-0.096,0.066-0.133c0.053,0.026,0.038,0.045,0.088,0.022
	c0.058-0.016,0.111-0.047,0.154-0.089l0.13,0.045c0.027,0.096,0.072,0.186,0.132,0.266c0.144-0.035,0.294-0.042,0.441-0.022
	l0.948-0.022c0.033-0.063,0.087-0.11,0.154-0.133V14.65c-0.309,0.014-0.621-0.061-0.617-0.355h0.22
	c0.09-0.168,0.209-0.318,0.353-0.443c0.017-0.027,0.024-0.058,0.022-0.089c-0.043-0.034-0.061-0.054-0.044-0.089
	c0.102-0.12,0.221-0.225,0.353-0.31l0.11,0.021l0.22-0.244c-0.011-0.059-0.018-0.118-0.022-0.177l0.11-0.022v0.022h0.02v0.022
	c-0.038,0.001-0.075,0.008-0.11,0.022l0.022,0.066c0.135-0.147,0.292-0.274,0.463-0.377c0.299-0.112,0.633,0.023,0.771,0.311
	c0.037-0.01,0.068-0.034,0.088-0.067c0.014-0.019,0.022-0.042,0.022-0.066h0.2c-0.009-0.185-0.002-0.37,0.022-0.554h-0.063
	c-0.044,0.035-0.098,0.058-0.154,0.066c-0.002-0.017-0.01-0.032-0.022-0.044c0.027-0.032,0.056-0.062,0.088-0.089h-0.639v0.2h-0.066
	v-0.2h-0.309v-0.2c-0.251-0.007-0.503,0.016-0.749,0.067v-0.044h0.066v-0.089l-0.264,0.021v-0.021h-0.022v-0.177h-0.089v-0.2h0.088
	v-0.244c0.227,0.007,0.382-0.019,0.617-0.022v-0.111c0.094-0.021,0.19-0.028,0.286-0.022c0.028,0.039,0.043,0.085,0.044,0.133
	c0.711,0.061,1.426,0.061,2.138,0v-0.133h0.088c0,0.093,0.023,0.184,0.066,0.266c0.116,0.024,0.235,0.031,0.353,0.022
	c0.041,0.02,0.086,0.027,0.132,0.022c0.009,0.058-0.016,0.029,0.044,0.044c0.009-0.056-0.013-0.035,0.066-0.044
	c-0.01,0.021-0.01,0.045,0,0.066H17.3v-0.066h0.088c0.008,0.058-0.016,0.029,0.044,0.044c0.008-0.058-0.016-0.029,0.044-0.044
	c0.002,0.028,0.019,0.053,0.044,0.066v-0.066c0.186,0,0.371,0.021,0.551,0.066c0.269,0.06,0.618-0.03,0.86,0.022h0.837
	c0.573,0,1.132,0,1.7,0v0.2c-0.956,0-1.953,0.021-2.931,0.022V11.9c-0.03-0.002-0.06-0.01-0.088-0.022
	c0.005,0.045-0.002,0.092-0.022,0.133V11.9H18.16c0.004,0.039-0.003,0.077-0.022,0.111v-0.133c-0.2-0.008-0.281,0.021-0.507,0.022
	c0-0.024-0.007-0.047-0.022-0.066V11.9c-0.065-0.021-0.135-0.021-0.2,0c0.01-0.021,0.01-0.045,0-0.066h-0.021V11.9
	c-0.047-0.004-0.092-0.019-0.132-0.044c-0.009,0.056,0.013,0.035-0.066,0.044c-0.009-0.058,0.016-0.029-0.044-0.044
	c-0.009,0.056,0.013,0.035-0.066,0.044c0.01-0.021,0.01-0.045,0-0.066h-0.022v0.022h-0.022l0.044,0.066
	c-0.082-0.012-0.164-0.004-0.242,0.022c0.089,0.011,0.09,0,0.11,0.089h0.507v0.177c-0.321,0-0.553,0.043-0.837,0.044
	c0,0.161,0.006,0.316,0,0.421l-0.309-0.022v0.022c0.051,0.108,0.109,0.211,0.176,0.31c0.18,0.105,0.373,0.187,0.573,0.244V13.3
	c-0.099-0.017-0.196-0.047-0.287-0.089v0.044h-0.022v0.022c0.503,0.219,0.871,0.665,0.992,1.2c0.139,0.006,0.172,0.042,0.331,0.044
	v0.311h0.992c0.174,0.042,0.351,0.072,0.529,0.089c0.014-0.118,0.021-0.236,0.022-0.355h0.617c-0.099,0.146-0.159,0.313-0.176,0.488
	H20.1c0.282,0.04,0.548,0.155,0.771,0.333c-0.036-0.022-0.066-0.053-0.088-0.089c0.043-0.019,0.086-0.033,0.132-0.044
	c0.058,0.024,0.263-0.01,0.375,0.022c0.167,0.044,0.329,0.103,0.485,0.177c0.048,0.025,0.105,0.093,0.154,0.111
	c0.146,0.056,0.256,0.055,0.375,0.111c0.053-0.168,0.135-0.326,0.241-0.466c0.073-0.014,0.147-0.014,0.22,0
	c0.069,0.159,0.092,0.3,0.154,0.488c0.334,0.056,0.629,0.249,0.814,0.532c0.113,0.094,0.217,0.198,0.31,0.311
	c0.399-0.02,0.799,0.01,1.19,0.089l0.507,0.022c0.336,0.073,0.718,0.086,1.014,0.155l2.535,0.022h5.354l0.022-0.133
	c1.108,0.072,2.22,0.072,3.328,0c0.005,0.009,0.013,0.017,0.022,0.022v0.067h0.219v-0.05h0.992c0.161-0.037,0.328-0.029,0.485,0.022
	c0.11,0.054,0.202,0.139,0.265,0.244L40,17.31c-0.168,0.6-1.34,0.325-1.982,0.31c0,0.024-0.008,0.048-0.022,0.067
	c-0.026,0.016-0.058,0.023-0.088,0.021c-0.292-0.044-0.589-0.051-0.882-0.021c-0.778,0-1.617-0.033-2.358,0.021v-0.044
	c-0.017-0.026-0.024-0.058-0.022-0.089h-5.334l-2.556,0.021c-0.049,0.021-0.106,0.106-0.153,0.133
	c-0.066,0.012-0.133,0.02-0.201,0.022c-0.066,0.022-0.135,0.104-0.199,0.133c-0.307,0.118-0.625,0.208-0.948,0.267
	c-0.159-0.025-0.323,0.006-0.463,0.089c-0.004,0.066-0.004,0.134,0,0.2h0.022c0.105-0.104,0.26-0.139,0.399-0.09
	c0.005,0.01,0.013,0.018,0.022,0.022c-0.02,0.046-0.041,0.09-0.066,0.133h0.109c0.239,0.044,0.486,0.014,0.705-0.089
	c0.102,0.083,0.19,0.18,0.265,0.288c-0.009,0.111-0.001,0.224,0.022,0.333c0.119,0.096,0.254,0.172,0.399,0.222
	c0.042-0.054,0.109-0.079,0.177-0.067c0.154,0.018,0.311,0.01,0.463-0.021c0.115,0.117,0.26,0.201,0.418,0.244V19.2
	c0.113-0.042,0.234-0.058,0.354-0.044c0.26-0.058,0.527-0.072,0.793-0.045v0.045c0.029,0.101,0.037,0.206,0.021,0.31h0.529
	c0.045,0.197,0.053,0.4,0.021,0.601c-0.043,0.091-0.072,0.188-0.088,0.287c0.123,0.029,0.25,0.045,0.375,0.045
	c0.268,0.058,0.518,0.18,0.728,0.354c0.015,0.02,0.022,0.043,0.022,0.067c0.12,0.025,0.233,0.079,0.33,0.154
	c0.543,0.283,0.913,0.813,0.992,1.42c-0.176,0.099-0.346,0.21-0.507,0.332v0.888c-0.063,0.085-0.108,0.184-0.132,0.288
	c-0.049-0.01-0.057-0.024-0.088,0H31.1c0.037,0.045,0.026-0.017,0.045,0.043c-0.101,0.109-0.108,0.281-0.201,0.4
	c-0.115,0.101-0.241,0.189-0.375,0.266h0.021c0.021,0.022-0.021,0.022-0.021,0.022c-0.012,0.013-0.027,0.02-0.045,0.022
	c0.01-0.049,0.024-0.057,0-0.09l-0.021,0.045c-0.01,0.036-0.018,0.073-0.021,0.111c-0.181,0.104-0.377,0.23-0.573,0.332
	l-0.177,0.022c-0.204,0.157-0.436,0.278-0.683,0.354c0.009-0.064,0.036-0.027-0.022-0.065c0,0.03,0.019-0.009,0.022,0.022
	C29.089,25.4,29,25.4,29,25.4v-0.02h-0.02c0,0.031,0.019-0.009,0.022,0.021c0.042,0.018-0.044,0.022-0.044,0.022
	c-0.041-0.019-0.016-0.011-0.066,0v0.022h0.022v0.022h0.022v-0.021c0.006-0.015-0.008-0.011,0.021-0.022
	c0.012,0.012,0.027,0.02,0.044,0.022c-0.012,0.012-0.027,0.019-0.044,0.021c-0.212,0.13-0.442,0.227-0.684,0.288h-0.022v-0.021
	c0.017-0.002,0.032-0.01,0.044-0.022l-0.088,0.022c0.023,0.021,0.045,0.043,0.066,0.066l-0.066-0.021
	c0,0.031,0.018-0.01,0.021,0.021c0.043,0.018-0.043,0.022-0.043,0.022c-0.02-0.019-0.043-0.033-0.066-0.044V25.8
	c0.039,0.031,0.063,0.015,0.021,0.044c-0.228,0.15-0.481,0.256-0.748,0.311c0,0.031,0.018-0.01,0.021,0.021
	c0.042,0.018-0.044,0.022-0.044,0.022c-0.22,0.142-0.468,0.232-0.728,0.266c0,0.031,0.019-0.009,0.022,0.022
	c0.042,0.017-0.044,0.021-0.044,0.021c-0.041-0.019-0.016-0.011-0.066,0v0.021h0.022v0.022H26.6v-0.018
	c0.006-0.015-0.007-0.011,0.022-0.022c0.012,0.012,0.027,0.02,0.044,0.022c-0.012,0.012-0.027,0.02-0.044,0.022
	c-0.19,0.124-0.399,0.221-0.617,0.287l-0.2-0.044v0.022l0.11,0.021v0.022h-0.086c-0.038-0.021-0.028-0.021-0.065,0
	c0.023-0.001,0.047,0.007,0.065,0.022c-0.166,0.015-0.329,0.052-0.485,0.11H6.854c-0.207-0.058-0.461-0.06-0.683-0.133
	c-0.218-0.085-0.431-0.182-0.639-0.288L5.267,26.49l0.022-0.045c-0.252-0.034-0.493-0.125-0.705-0.266
	c0.018-0.011,0.033-0.025,0.044-0.044H4.606v-0.022c-0.017,0.002-0.032,0.01-0.044,0.021H4.54v0.022c0.05-0.009,0.024-0.021,0.066,0
	H4.584c-0.019,0.015-0.042,0.021-0.066,0.022c-0.117-0.07-0.243-0.122-0.375-0.156C3.9,25.916,3.619,25.777,3.372,25.67
	c-0.078-0.017-0.152-0.047-0.22-0.089C3.17,25.58,3.187,25.572,3.2,25.559l-0.088,0.022c0-0.044,0.023-0.006,0-0.044
	c-0.138-0.003-0.271-0.051-0.379-0.137c-0.373-0.107-0.714-0.306-0.992-0.576c0.018-0.012,0.033-0.026,0.044-0.044l-0.044-0.022
	c0.01,0.021,0.01,0.046,0,0.067H1.7c-0.153-0.103-0.294-0.222-0.419-0.355c-0.059-0.085-0.068-0.194-0.022-0.288H1.234
	c-0.002,0.018-0.01,0.033-0.022,0.045c0.01-0.029,0.01-0.061,0-0.09c-0.011,0.018-0.026,0.033-0.044,0.045
	c-0.055-0.205-0.122-0.404-0.2-0.601c-0.027-0.126,0.077-0.115,0-0.222c-0.002,0.027-0.019,0.053-0.044,0.066
	c-0.012-0.1-0.068-0.189-0.154-0.244l0.066-0.021c0.048-0.021,0.102-0.029,0.154-0.021c0.017-0.051,0.025-0.104,0.022-0.156
	c-0.035-0.033-0.084-0.049-0.132-0.043c-0.025,0.067-0.083,0.117-0.154,0.133v-0.041c-0.033-0.07-0.033-0.152,0-0.223
	c0.104-0.141,0.2-0.289,0.286-0.442c-0.137-0.03-0.1-0.283-0.088-0.444c-0.027-0.019-0.057-0.033-0.088-0.044V21.9
	c-0.131,0.16-0.249,0.33-0.353,0.51c-0.047,0.041-0.091,0.086-0.132,0.133c-0.029,0.141-0.081,0.276-0.154,0.4
	c-0.063,0.023-0.132,0.031-0.2,0.021c0.083-0.415,0.293-0.795,0.6-1.087c-0.01-0.028-0.01-0.06,0-0.089
	c0.158-0.136,0.26-0.325,0.287-0.532c-0.023,0.001-0.047-0.007-0.066-0.022c-0.075-0.02-0.139-0.068-0.179-0.135
	c0.06-0.037,0.168-0.074,0.22-0.11c-0.044-0.03-0.069-0.081-0.066-0.134c0.032-0.018,0.062-0.04,0.088-0.066
	c-0.031,0.002-0.062-0.006-0.088-0.021c-0.033-0.03-0.056-0.068-0.066-0.111c0.049-0.027,0.101-0.051,0.154-0.067V20.57L0.507,20.5
	c-0.024-0.085-0.06-0.166-0.107-0.241c-0.016-0.224,0.083-0.441,0.264-0.575c-0.074-0.025-0.073-0.025-0.088-0.111
	c0.034-0.14,0.086-0.273,0.154-0.4c-0.072-0.018-0.034,0.012-0.066-0.044h0.019v-0.022c0.062,0.004,0.124-0.012,0.177-0.043
	c0.043-0.033-0.012-0.032,0.066-0.045c-0.009,0.051-0.02,0.024,0,0.067c0.113,0.006,0.225,0.028,0.331,0.067l0.022-0.067H1.3v-0.022
	c-0.069-0.002-0.133-0.035-0.176-0.09c0.157-0.043,0.312-0.095,0.463-0.154c-0.113-0.049-0.139-0.071-0.132-0.244h0.154
	c0.041-0.106,0.056-0.221,0.044-0.333c0.465-0.003,0.929-0.04,1.388-0.111v0.09h0.088V18.2h0.023
	c-0.013-0.065-0.045-0.069,0.022-0.111c0.416-0.073,0.841-0.073,1.256,0c0.075,0.179,0.134,0.364,0.176,0.554
	c0.024,0.012,0.046,0.026,0.066,0.045c0.072,0,0.143-0.023,0.2-0.066c0.161-0.027,0.327-0.02,0.485,0.021l0.705-0.021l0.264,0.044
	c0.345-0.034,0.692-0.026,1.036,0.022H7.78c0.012-0.024,0.027-0.047,0.044-0.066h0.485c0.019,0,0.2,0.066,0.2,0.066
	c0.012-0.024,0.026-0.047,0.044-0.066c0.229-0.026,0.462-0.004,0.683,0.066c0.386-0.084,0.786-0.076,1.168,0.021V18.8
	c0.039,0.028,0.084,0.044,0.132,0.044c0.141-0.078,0.306-0.104,0.464-0.07l0.022-0.11c0.179-0.051,0.366-0.065,0.551-0.044
	c0.048,0.022,0.101,0.037,0.154,0.044c0.025,0.162,0.242,0.121,0.419,0.11c0.026,0.018,0.057,0.024,0.088,0.022
	c0.089,0.064,0.205,0.081,0.308,0.044v-0.088c0.072-0.018,0.034,0.012,0.066-0.044c-0.014-0.02-0.022-0.043-0.022-0.067
	c-0.064-0.035-0.124-0.08-0.176-0.133c-0.2-0.128-0.436-0.25-0.639-0.355c-0.528-0.193-1.091-0.277-1.653-0.243v0.067H10.05
	c0-0.025-0.007-0.049-0.022-0.067c-0.364-0.049-0.732-0.071-1.1-0.066c-0.839-0.183-1.821,0.041-2.667-0.133v-0.178
	C6.233,17.356,6.226,17.178,6.237,17c-0.037-0.242-0.044-0.488-0.022-0.732H6.193v0.022c0.001,0.067-0.006,0.135-0.022,0.2
	c0.001-0.245,0.016-0.489,0.044-0.732c0.028-0.14-0.004-0.285-0.088-0.4v-0.021h0.022c0.018-0.031,0.053-0.048,0.088-0.044
	l-0.022-0.2h1.058v-0.022c-0.237-0.188-0.452-0.404-0.639-0.643l-0.044-0.2l-0.132-0.111c-0.212-0.284-0.47-0.515-0.683-0.8
	c-0.193-0.257-0.49-0.453-0.683-0.709c-0.2-0.273-0.482-0.486-0.683-0.754c-0.653-0.868-1.506-1.568-2.16-2.439l-0.2-0.177
	c-0.313-0.416-0.7-0.758-1.014-1.175c-0.236-0.2-0.444-0.431-0.617-0.687h0.023c0.053,0.081,0.143,0.126,0.2,0.2
	c0.238,0.316,0.534,0.571,0.771,0.887l0.264,0.244c0.23,0.306,0.546,0.542,0.771,0.843c0.186,0.242,0.386,0.471,0.6,0.687
	l0.264,0.222c0.476,0.631,1.07,1.145,1.543,1.774c0.193,0.257,0.49,0.453,0.683,0.71c0.2,0.273,0.482,0.486,0.683,0.754
	c0.115,0.182,0.256,0.346,0.419,0.488c0.11,0.055,0.213,0.123,0.309,0.2c0.15,0.208,0.32,0.401,0.507,0.576
	c0.123-0.076,0.272-0.101,0.413-0.067L7.865,14.893z M1.565,7.6c0.096,0.057,0.173,0.142,0.22,0.244H1.763V7.82
	C1.676,7.769,1.606,7.692,1.565,7.6z M13.6,11.435v0.044h0.044v-0.022h0.022v-0.022H13.6z M13.6,11.612h0.176v-0.133h-0.024
	c0.002,0.042-0.025,0.079-0.066,0.089v-0.022c0.028-0.033,0.05-0.071,0.066-0.111h-0.044v0.022
	c-0.017,0.033-0.039,0.063-0.066,0.089v-0.023c-0.022-0.022-0.022,0.022-0.022,0.022C13.606,11.564,13.6,11.588,13.6,11.612z
	 M16.443,11.501c0.028,0.018,0.057,0.033,0.088,0.044V11.5h-0.09L16.443,11.501z M17.038,11.545c0.037,0.025,0.024,0.039,0.044,0
	h-0.046H17.038z M16.443,11.567c0.025,0.023,0.063,0.023,0.088,0h-0.09H16.443z M13.6,11.811v0.133l0.176-0.022v-0.11L13.6,11.811
	L13.6,11.811z M18.074,11.833c0.024,0.023,0.063,0.023,0.088,0h-0.09H18.074z M18.427,11.833c0.012,0.012,0.027,0.02,0.044,0.022
	c-0.013-0.012-0.03-0.02-0.047-0.021L18.427,11.833z M18.027,12.055c0.024,0,0.047,0.007,0.066,0.022
	C18.069,12.077,18.046,12.069,18.027,12.055L18.027,12.055z M18.49,12.055h0.044v0.022C18.517,12.075,18.502,12.067,18.49,12.055z
	 M17.89,12.077c0.038-0.004,0.076,0.003,0.11,0.022c-0.035,0.002-0.069-0.005-0.1-0.021L17.89,12.077z M18.573,12.077
	c0.038-0.004,0.076,0.003,0.11,0.022c-0.036,0.003-0.072-0.004-0.104-0.021L18.573,12.077z M14.518,12.099
	c0.009,0.056-0.013,0.035,0.066,0.044V12.1h-0.061L14.518,12.099z M17.802,12.099h0.044v0.022c-0.015-0.003-0.029-0.01-0.039-0.021
	L17.802,12.099z M18.728,12.099h0.044v0.022c-0.015-0.003-0.028-0.01-0.039-0.021L18.728,12.099z M17.78,12.121
	c0.024,0.025,0.024,0.064,0,0.089V12.121L17.78,12.121z M18.772,12.143c0.014,0.019,0.022,0.042,0.022,0.066h-0.017v-0.065
	L18.772,12.143z M15.378,12.165c-0.017,0.015-0.049,0.029-0.066,0.044h0.044c0.034,0.028,0.011,0.014,0.044,0
	c0.054-0.029,0.015,0.01,0.044-0.044h-0.061H15.378z M15.158,12.209c0.012,0.012,0.027,0.02,0.044,0.022
	c-0.011-0.01-0.024-0.017-0.039-0.02L15.158,12.209z M17.781,12.253H18.8v0.022c-0.012,0.012-0.019,0.027-0.022,0.044h-0.97
	L17.781,12.253z M9.631,14.871V14.8h-1.3v0.022c0.012,0.012,0.02,0.027,0.022,0.044c0.198,0.034,0.4,0.042,0.6,0.022
	C9.176,14.841,9.406,14.835,9.631,14.871z M7.931,14.849v0.044h0.047v-0.044H7.934H7.931z M9.672,14.849
	c0.038,0.02,0.028,0.02,0.066,0H9.675H9.672z M9.872,14.849c0.047,0.029,0.106,0.029,0.154,0H9.872L9.872,14.849z M39.359,16.822
	c-0.061,0.078-0.127,0.152-0.199,0.222c-0.027,0.096-0.02,0.198,0.021,0.288c0.053,0.171,0.225,0.275,0.4,0.244
	c0.062-0.079,0.128-0.153,0.2-0.222c0.007-0.104,0.007-0.208,0-0.311c-0.096-0.139-0.253-0.221-0.421-0.22L39.359,16.822z
	 M3.284,18.087c0.032,0.026,0.078,0.026,0.11,0H3.284z M3.218,18.109v0.021H3.2c-0.042,0.018,0.044,0.021,0.044,0.021
	C3.241,18.136,3.231,18.12,3.218,18.109z M4.298,18.109c-0.007,0.06,0.012,0.039,0.066,0H4.3H4.298z M4.254,18.176V18.2H4.231
	c-0.042,0.017,0.044,0.022,0.044,0.022C4.273,18.204,4.266,18.188,4.254,18.176L4.254,18.176z M4.298,18.176v0.044h0.066v-0.045H4.3
	L4.298,18.176z M4.43,18.22c-0.041,0.025-0.077,0.056-0.11,0.089l0.066,0.178H4.43c0.036-0.037,0.06-0.083,0.07-0.133
	C4.469,18.318,4.457,18.254,4.43,18.22z M4.121,18.264v0.111h0.022V18.4c0.073-0.01,0.093-0.006,0.176-0.022V18.33
	c-0.013-0.02-0.02-0.043-0.019-0.066H4.121z M24.529,18.264c-0.162,0.064-0.334,0.102-0.508,0.111V18.4
	c0.068-0.01,0.137-0.002,0.201,0.021c0.014,0.02,0.028,0.07,0.043,0.089c0.082-0.057,0.074-0.015,0.176,0v-0.048
	c-0.064,0.01-0.027,0.036-0.065-0.021c0.052-0.069,0.12-0.123,0.2-0.155v-0.022H24.529z M24.882,18.4
	c-0.028,0.033-0.05,0.07-0.065,0.11h0.309c0.014-0.035,0.036-0.065,0.066-0.089V18.4H24.882z M4.122,18.443v0.045h0.043v-0.025
	L4.122,18.443z M4.322,18.466v0.044h0.02v-0.047H4.32L4.322,18.466z M25.922,18.488c0.106,0.077,0.196,0.175,0.264,0.287
	c0.039,0.121-0.049,0.144,0.022,0.201v-0.025c0.023-0.064,0.031-0.133,0.022-0.2c-0.057-0.133-0.174-0.231-0.313-0.265
	L25.922,18.488z M3.822,18.577c0.012,0.012,0.028,0.02,0.044,0.022c-0.014-0.016-0.033-0.024-0.053-0.025L3.822,18.577z M3.636,18.6
	c0.038,0.021,0.028,0.021,0.066,0H3.636z M3.283,18.645c-0.01,0.066-0.002,0.136,0.022,0.199c0.01-0.068,0.003-0.139-0.021-0.203
	L3.283,18.645z M3.415,18.844H3.5V18.73l-0.066-0.022v-0.022H3.416v0.154L3.415,18.844z M4.23,18.689
	c0.012,0.012,0.027,0.02,0.044,0.021c-0.011-0.014-0.026-0.021-0.043-0.025L4.23,18.689z M11.106,18.689
	c-0.012,0.027-0.019,0.059-0.022,0.088h0.046c0.002-0.03,0.01-0.061,0.022-0.088H11.106L11.106,18.689z M11.216,18.711v0.066h0.331
	v-0.07h-0.329L11.216,18.711z M11.635,18.732v0.045h0.022V18.73h-0.021L11.635,18.732z M4.01,18.844h0.067v-0.092H4.055
	c-0.012,0.012-0.027,0.02-0.044,0.021v0.066L4.01,18.844z M4.23,18.844H4.3v-0.07H4.253v-0.021H4.231v0.088L4.23,18.844z
	 M26.029,18.822v0.133h0.045V18.93c0.025-0.062,0.004-0.074-0.047-0.111L26.029,18.822z M28.52,19.288
	c0.053-0.001,0.104-0.009,0.154-0.022V19.15h0.021v-0.021h-0.42v0.021c0.082-0.001,0.163,0.006,0.242,0.022v0.111L28.52,19.288z
	 M27.92,19.177v0.244h0.044c0.083-0.052,0.126-0.147,0.11-0.244h-0.151H27.92z M28.273,19.177v0.155H28.3v-0.025
	c0.021-0.042,0.028-0.088,0.022-0.134h-0.047L28.273,19.177z M27.59,19.621c-0.015,0.068-0.033,0.1-0.044,0.177
	c0.032,0.019,0.062,0.04,0.088,0.066c0.101-0.048,0.079-0.062,0.177-0.022c-0.056-0.173,0.022-0.23-0.219-0.226L27.59,19.621z
	 M29.177,19.843h0.089v-0.138h-0.111v0.044c0.018,0.026,0.026,0.058,0.025,0.089L29.177,19.843z M27.811,19.865
	c0.001,0.037,0.009,0.075,0.022,0.111h0.022v-0.027c0.006-0.049,0.015-0.049-0.043-0.09L27.811,19.865z M29.266,19.998H29.18
	c-0.006,0.009-0.014,0.017-0.022,0.021c-0.001,0.107-0.024,0.213-0.066,0.311h0.044V20.3c0.078-0.083,0.125-0.192,0.133-0.307
	L29.266,19.998z M28.891,20.131c-0.029,0.082-0.018,0.059,0.021,0.133h0.021v-0.027c0.023-0.032,0.039-0.07,0.045-0.11h-0.02
	c-0.036,0.056-0.001,0.01-0.066,0L28.891,20.131z M29,20.438c0,0.023,0.008,0.047,0.021,0.065v-0.044
	C29.02,20.445,29.032,20.449,29,20.438z M29.419,20.438c0.067,0.061,0.151,0.1,0.242,0.11V20.5h-0.019v-0.02L29.419,20.438z
	 M1.168,22.5L1.1,22.676h0.046C1.168,22.62,1.176,22.56,1.168,22.5z M31.229,23.01c-0.006,0.046,0.002,0.092,0.022,0.133
	C31.257,23.098,31.25,23.051,31.229,23.01L31.229,23.01z M0.97,23.43c0.019,0.043,0.01,0.016,0,0.067H0.948L0.97,23.43z
	 M1.83,23.541c0.012,0.012,0.027,0.02,0.044,0.021C1.862,23.551,1.846,23.543,1.83,23.541L1.83,23.541z M31.053,23.918
	c-0.007,0.031,0.031,0.032,0.045,0.044C31.111,23.939,31.059,23.925,31.053,23.918L31.053,23.918z M1.984,23.962v0.067l0.066,0.044
	C2.044,24.028,2.02,23.988,1.984,23.962L1.984,23.962z M1.191,24.229c0.012,0.012,0.02,0.027,0.022,0.043H1.19L1.191,24.229
	L1.191,24.229z M29.818,24.982c-0.023,0.023-0.055,0.039-0.088,0.043c0.013,0.012,0.027,0.02,0.045,0.022v0.022H29.8v-0.021
	c0.007-0.014-0.007-0.01,0.022-0.021v0.021h0.018v-0.021c0.001-0.018,0.009-0.033,0.021-0.045H29.818L29.818,24.982z M16.4,25.027
	c-0.075,0.15-0.081,0.344-0.154,0.51c-0.045,0.1-0.144,0.183-0.2,0.288h0.463c0.056-0.022,0.117-0.03,0.176-0.022v-0.021
	c-0.133-0.228-0.18-0.495-0.132-0.754H16.4z M23.673,25.027l-0.022,0.066c-0.1,0.012-0.197,0.042-0.287,0.09
	c-0.049,0.113-0.085,0.232-0.109,0.354l-0.176,0.267h0.264c0.197,0.045,0.402,0.045,0.6,0v-0.023
	c-0.142-0.225-0.196-0.492-0.153-0.754h-0.11H23.673z M20.081,25.094c-0.049,0.021-0.094,0.052-0.132,0.09
	c-0.049,0.113-0.086,0.232-0.11,0.354c-0.044,0.101-0.138,0.173-0.176,0.288h0.11c0.167-0.04,0.34-0.04,0.507,0V25.8
	c-0.085-0.229-0.153-0.466-0.203-0.707L20.081,25.094z M26.869,25.139v0.043l0.066-0.021v-0.021h-0.07H26.869z M27.045,25.139
	c-0.044,0.028-0.082,0.066-0.109,0.11H27c0.05-0.044,0.111-0.075,0.176-0.089v-0.021h-0.135H27.045z M29,25.426h0.044v0.022
	C29.027,25.445,29.012,25.438,29,25.426z M12.758,25.448c-0.037,0.133-0.105,0.255-0.2,0.354h0.22
	c0.041,0.02,0.087,0.027,0.132,0.022v-0.044c-0.04-0.115-0.09-0.227-0.15-0.333H12.758z M9.166,25.736l-0.044,0.089H9.19
	c0.012-0.013,0.027-0.022,0.044-0.025v-0.019H9.212c-0.028-0.055,0.01-0.016-0.044-0.045H9.166z M3.877,25.825
	c0,0.05,0,0.016,0.044,0.022v-0.022H3.879H3.877z M9.144,25.936v-0.066H9.08l-0.022,0.044c-0.009,0.005-0.017,0.013-0.022,0.022
	h0.11H9.144z M12.802,25.869v0.066h0.176v-0.021c-0.012-0.012-0.02-0.027-0.022-0.044H12.8L12.802,25.869z M16.042,25.869v0.066
	h0.419v-0.066h-0.417H16.042z M19.722,25.936v-0.066h-0.13v0.044c-0.009,0.005-0.017,0.013-0.022,0.022h0.154H19.722z
	 M20.097,25.869v0.066h0.22v-0.045c-0.071-0.018-0.144-0.025-0.217-0.021H20.097z M23.359,25.869v0.066h0.42v-0.066h-0.418H23.359z
	 M27.436,26.091c-0.012,0.013-0.027,0.02-0.043,0.022c0.012,0.012,0.027,0.02,0.043,0.021v0.022h0.024v-0.022
	c0.006-0.014-0.007-0.01,0.022-0.021v0.021H27.5c-0.013-0.023-0.035-0.039-0.063-0.044H27.436z M26.665,26.512h0.044v0.022
	c-0.016-0.003-0.031-0.011-0.042-0.022H26.665z M6.037,26.734l-0.022,0.043c0.04-0.03,0.024-0.043,0.024-0.043H6.037z M6.72,26.889
	c0.012,0.012,0.027,0.02,0.044,0.022c-0.012-0.012-0.026-0.02-0.042-0.022H6.72z M6.81,26.911c-0.012,0.012-0.027,0.02-0.044,0.022
	v0.021H6.81c0.017-0.016,0.049-0.029,0.066-0.044H6.81z M7.559,26.934c0.055,0.029,0.121,0.029,0.176,0H7.559z M8.418,26.934
	c0.055,0.029,0.121,0.029,0.176,0H8.418L8.418,26.934z M9.3,26.934c0.055,0.029,0.122,0.029,0.176,0H9.3z M10.16,26.934
	c0.055,0.029,0.121,0.029,0.176,0H10.16z M11.041,26.934c0.047,0.028,0.107,0.028,0.154,0H11.041z M11.901,26.934
	c0.047,0.028,0.107,0.028,0.154,0H11.901L11.901,26.934z M12.761,26.934c0.047,0.028,0.106,0.028,0.154,0H12.76H12.761z
	 M13.643,26.934c0.04,0.027,0.092,0.027,0.132,0H13.643L13.643,26.934z M14.503,26.934c0.04,0.027,0.092,0.027,0.132,0H14.5H14.503z
	 M15.384,26.934c0.032,0.025,0.078,0.025,0.11,0H15.384z M16.244,26.934c0.032,0.025,0.078,0.025,0.11,0H16.244z M17.104,26.934
	c0.032,0.025,0.078,0.025,0.11,0H17.1H17.104z M17.986,26.934c0.025,0.023,0.063,0.023,0.088,0h-0.09H17.986z M18.846,26.934
	c0.024,0.023,0.063,0.023,0.088,0h-0.091H18.846z M19.727,26.934c0.038,0.02,0.028,0.02,0.066,0h-0.068H19.727z M20.587,26.934
	c0.038,0.02,0.028,0.02,0.065,0h-0.068H20.587z M21.447,26.934c0.037,0.02,0.027,0.02,0.066,0h-0.07H21.447z M22.329,26.934
	c0.012,0.012,0.027,0.02,0.044,0.021c-0.014-0.012-0.03-0.02-0.048-0.021H22.329z M23.189,26.934
	c0.012,0.012,0.027,0.02,0.043,0.021c-0.013-0.012-0.029-0.02-0.047-0.021H23.189z"/>
</svg>
