<svg xmlns="http://www.w3.org/2000/svg" width="40" height="40" viewBox="0 0 40 40">
  <defs>
    <style>
      .cls-1 {
        fill: #fff;
        fill-rule: evenodd;
      }
    </style>
  </defs>
  <path id="jp_type_94_ico" class="cls-1" d="M11.715,12.441a3.651,3.651,0,0,1-.219.63,4.373,4.373,0,0,0-.188,1.291h0.125v0.472a3.8,3.8,0,0,0,1.284.126,0.664,0.664,0,0,0,.47-0.063,0.489,0.489,0,0,1,.031-0.157c0.024,0.131.016,0.114,0.157,0.126v0.095a1.949,1.949,0,0,0,.627.063,1.66,1.66,0,0,1,.438,0,5.844,5.844,0,0,1,1.222-.031h3.352a1.969,1.969,0,0,0,.752-0.158,0.821,0.821,0,0,0,.157.063,0.556,0.556,0,0,1,.063-0.126v0.063a0.213,0.213,0,0,1,.031.126H20.11a0.5,0.5,0,0,1-.157.441V15.276c-0.226.016-.37-0.069-0.72-0.063-0.639.011-1.3,0.061-1.973,0.063v0.063c0.08,0.046.063,0.067,0.063,0.189a0.247,0.247,0,0,0-.094.063,1.36,1.36,0,0,0-.533,0,6.236,6.236,0,0,0-1.6-.063,1.155,1.155,0,0,0-.219.157,4.482,4.482,0,0,0-1.222-.063,0.454,0.454,0,0,1-.031.158h0.313a1.562,1.562,0,0,1,.6-0.032,6.965,6.965,0,0,1,1.472.126,0.331,0.331,0,0,1,.063.189,0.114,0.114,0,0,0-.031.063,1.051,1.051,0,0,1-.219,0c-0.044-.155-0.149-0.138-0.344-0.126,0.012,0.071.029,0.034,0,.095a1.8,1.8,0,0,0-.564-0.063,7.177,7.177,0,0,0-1.879-.095V15.906H13V15.811a2.972,2.972,0,0,0-.752.063c0.043,0.144.086,0.316,0.125,0.441l-0.031.315a0.405,0.405,0,0,1,.094.158h0.157v0.095h0.282v0.063a0.417,0.417,0,0,0-.094.252,0.242,0.242,0,0,1,.219.157,0.491,0.491,0,0,0-.282.315h0.031c0.114,0.085.3,0.107,0.407,0.189a0.973,0.973,0,0,0,.125.661,0.162,0.162,0,0,0,.157,0v0.189c-0.1.026-.048-0.015-0.094,0.063l0.188,0.283c0.051,0.154-.111.224,0.157,0.252a2.624,2.624,0,0,0,.689.095c0.441,0.117,1.029.24,1.5,0.346a0.608,0.608,0,0,0,.313-0.063,0.162,0.162,0,0,1,.031.095c0.258,0.02.6,0.2,0.721-.031-0.061-.049-0.087-0.077-0.063-0.126,0.076-.048.25,0.021,0.345-0.032,0.063-.035-0.028-0.063.125-0.094v0.032h0.031l-0.031.157H17.51v0.252a2.047,2.047,0,0,0,.564.031V18.929c0.826,0,1.82.061,2.725,0.063,0,0.472,0,.994-0.031,1.417h0.157l0.407-1.165H21.049a4.248,4.248,0,0,1,0-1.228c0.049-.225-0.048-0.481,0-0.693,0.076-.336-0.032-0.711.031-0.945l-0.031-.567c0.137-.626.02-1.311,0.094-1.953h0.376a3.22,3.22,0,0,1,.031.819,0.715,0.715,0,0,0-.031.283,6.512,6.512,0,0,1,.219,1.354h0.439a1.407,1.407,0,0,1-.063-0.347c0-.006.122-0.088,0.125-0.095v-0.5h0.376c0,0.574.006,1.208-.031,1.732H22.71V16.756a0.15,0.15,0,0,0,.094-0.032,0.676,0.676,0,0,0,.031-0.315,1.672,1.672,0,0,1-.063-0.819,4.12,4.12,0,0,1,.094-0.976,8.121,8.121,0,0,0,.031-1.165l0.783-.189,0.031-.913h0.063a5.766,5.766,0,0,1,.877.031c0.08,0.046.035-.007,0.063,0.094a1.244,1.244,0,0,0-.031.5h0.063a2.132,2.132,0,0,1,1.378,0,15.511,15.511,0,0,0,3.414.378,0.282,0.282,0,0,1,.125.22c-0.148.042-.136,0.124-0.125,0.315h0.031V13.858c0.02-.027.042-0.1,0.063-0.126-0.011.224-.054,0.225,0.188,0.22,0.005,1.128-.12,2.2-0.125,3.276a10.64,10.64,0,0,1,2.443.189c0.414,0.094.846,0.041,1.222,0.126l2.475,0.221a8.413,8.413,0,0,0,1.378.189,0.153,0.153,0,0,1,.031-0.095,0.159,0.159,0,0,1,.094-0.032,0.666,0.666,0,0,0,.313.032,0.5,0.5,0,0,1,.031.157,1.68,1.68,0,0,1,.407.063v0.063a2.893,2.893,0,0,1,.063.945h0.063a0.791,0.791,0,0,1,.345.031q-0.016.772-.031,1.543H38.309a7.265,7.265,0,0,0,.031.85,5.119,5.119,0,0,1,1.19,1.2H39.5a0.756,0.756,0,0,1-.345.032,0.537,0.537,0,0,0-.188-0.063V22.74c0.164,0.23.112,0.687,0.5,0.693a1.218,1.218,0,0,0,.376.063V23.087h0.094c0,0.375.061,0.582,0.063,0.976a1.208,1.208,0,0,1-.532.063,0.412,0.412,0,0,0-.219-0.032,1.049,1.049,0,0,1-.376.535,0.243,0.243,0,0,1-.313,0v0.315a1.484,1.484,0,0,1-.094.756,3,3,0,0,1-.971,1.606,4.026,4.026,0,0,1-1.034.567,2.335,2.335,0,0,1-1.1.095,5.79,5.79,0,0,1-.814-0.126,3.148,3.148,0,0,1-1.942-2.173,4.444,4.444,0,0,1-.031-1.228,0.562,0.562,0,0,1-.125-0.094c-0.073.013-.231-0.018-0.282,0s-0.1.137-.157,0.157H31.1V24.63H30.728V24.5a1.794,1.794,0,0,1-.345-0.063,6.349,6.349,0,0,1-1.1.567L23.4,24.882l-1.754-.032a1.027,1.027,0,0,1-.783-0.126,1.188,1.188,0,0,0-.439-0.787V23.685H19.577v0.032a2.717,2.717,0,0,1,.125,2.11,2.908,2.908,0,0,1-2.349,2.079,2.515,2.515,0,0,1-1.065.032,3.257,3.257,0,0,1-2.1-1.512c-0.153-.253-0.2-0.761-0.345-0.976a0.339,0.339,0,0,0-.188-0.031l-0.031.441H13.5V25.575H12.937l-0.031.284H12.811q-0.016-.236-0.031-0.473H12.717a0.269,0.269,0,0,1-.157.032,2.911,2.911,0,0,1-2.287,2.488,3.168,3.168,0,0,1-1.754-.063,3.043,3.043,0,0,1-1.973-2.929H6.484a4.636,4.636,0,0,0-1.5-.157,0.461,0.461,0,0,1-.188.095c-0.044-.1-0.016-0.1-0.219-0.095-0.254-.145-0.882.432-1.1-0.095a0.853,0.853,0,0,1,0-.535c0.041-.078-0.013-0.021.063-0.063a0.257,0.257,0,0,1,.251.063,1.306,1.306,0,0,1,0-.5,0.951,0.951,0,0,0,.157-0.063V23.181a8.7,8.7,0,0,0,.031-1.606H3.821V21.26H4.009A2.776,2.776,0,0,1,4.072,20.6a1.378,1.378,0,0,1-.532-0.126H2.193l-1.128-.032a0.755,0.755,0,0,1-.376.063A3.208,3.208,0,0,0,0,20.409V20.032H0.282l0.031-.095a0.161,0.161,0,0,0,.031-0.095A0.78,0.78,0,0,1,.188,19.78H0.219a0.211,0.211,0,0,1,.125-0.031C0.355,19.77.4,19.986,0.407,20a3.452,3.452,0,0,0,.783.032,2.154,2.154,0,0,0,.783.031L3.79,20.095v0.284a0.489,0.489,0,0,0,.157.031V20.221a2,2,0,0,0,.282,0V20.095H4.573V20.063H4.6a4.373,4.373,0,0,1,.47-1.291V17.89H4.761V17.858A0.114,0.114,0,0,0,4.792,17.8a0.9,0.9,0,0,1,.282-0.032,3.048,3.048,0,0,0,.031-1.008H5.294v0.063a2.844,2.844,0,0,0,0,.945c0.452-.013.9,0.061,1.472,0.063a0.475,0.475,0,0,1,.063.126H5.92V17.921H5.889v0.315a0.861,0.861,0,0,0-.031.378,0.671,0.671,0,0,0,.219.032,2.834,2.834,0,0,1,.6-0.032,3.5,3.5,0,0,0,.6-0.157,13.735,13.735,0,0,0,1.378-1.134,5.462,5.462,0,0,0,.94-0.346,1.237,1.237,0,0,1-.908-0.5,0.956,0.956,0,0,1-.752.189c-0.064-.085-0.186-0.107-0.251-0.189a0.933,0.933,0,0,0-.063-0.157H7.3a0.466,0.466,0,0,1-.251,0l0.031-1.008c0.076-.028.05-0.034,0.125-0.063,0.046,0.08-.007.036,0.094,0.063l0.031-.315a0.2,0.2,0,0,1-.157-0.22,0.441,0.441,0,0,0,.188-0.409c-0.114,0-.108-0.03-0.094-0.22a1.194,1.194,0,0,0-.031-0.661H7.3v0.063a0.587,0.587,0,0,1,.031.284,0.183,0.183,0,0,1,.125,0,1.087,1.087,0,0,1,.094.095,9.232,9.232,0,0,0-.031,1.921H7.58a0.606,0.606,0,0,1,.532-0.409,2.581,2.581,0,0,0-.031-0.976c0.1-.026.048,0.015,0.094-0.063-0.1-.039-0.071-0.012-0.094-0.126,0.146-.106.1-0.336,0.251-0.441a0.606,0.606,0,0,1,.125-0.063,0.484,0.484,0,0,0,.251.22,0.922,0.922,0,0,1,.689-0.22,0.153,0.153,0,0,0,.031.095,0.159,0.159,0,0,1,.094-0.031v0.095l-0.313.031-0.063.094H9.773a0.527,0.527,0,0,0,.251-0.409c0.2-.341.192-1.55,0.564-1.638A3.973,3.973,0,0,0,11.715,12.441Zm18.011,1.165a0.114,0.114,0,0,1,.031.063,0.119,0.119,0,0,0-.094.063H29.632V13.669A0.342,0.342,0,0,0,29.726,13.606Zm-19.765.787V14.236a4.559,4.559,0,0,1-1.284,0v0.158H8.739A6.449,6.449,0,0,0,9.961,14.394ZM9.3,14.772H9.836V14.488H9.773a0.836,0.836,0,0,0-.532.031A0.418,0.418,0,0,1,9.3,14.772Zm12.435,2.016v0.346H21.645c-0.007.366,0,.679,0,1.1a0.811,0.811,0,0,0,.031.41,0.647,0.647,0,0,0-.063.441c0.151,0.311.271,0.913,0.439,1.323h0.094q0.016-.771.031-1.543a6.512,6.512,0,0,1,.031-1.165,3.445,3.445,0,0,0-.094-0.693h0.063V16.819H22.114A0.847,0.847,0,0,0,21.738,16.787ZM4.98,16.882c0.113,0.037.115,0.047,0.125,0.189a1.858,1.858,0,0,0-.251.031,0.192,0.192,0,0,0-.031-0.126A0.542,0.542,0,0,0,4.98,16.882Zm-0.313.189a0.135,0.135,0,0,1,.125.126,0.471,0.471,0,0,1-.125.063,0.21,0.21,0,0,1-.125.032c0.028-.127,0,0-0.031-0.126H4.542C4.579,17.129,4.631,17.107,4.667,17.071Zm1.19,2.142H5.7c0-.491-0.055-0.865-0.063-1.323H5.262a4,4,0,0,0,.219,1.48,2.413,2.413,0,0,0,.219.724,2.176,2.176,0,0,0,.814.032,2.633,2.633,0,0,0,.94.031L9.71,20.189V19.15H9.585V19.087a0.419,0.419,0,0,1-.031-0.221,10.658,10.658,0,0,1,.94-0.535,2.509,2.509,0,0,1-.031-0.661,0.412,0.412,0,0,1,.251-0.063,0.121,0.121,0,0,0,.094.063V17.48H10.713V17.2H10.681a0.112,0.112,0,0,1-.063.032V17.134a3.714,3.714,0,0,0-2.1.441,9.263,9.263,0,0,1-1.159,1.008,5.113,5.113,0,0,1-.814.189,5.749,5.749,0,0,0-.658.031A0.956,0.956,0,0,0,5.857,19.213Zm-1.5-1.953a0.137,0.137,0,0,1,.094.095H4.479v0.032H4.448c-0.056.038-.055,0-0.094,0.032H4.385v0.031H4.354a0.21,0.21,0,0,1-.125.032c0.028-.127,0,0-0.031-0.126H4.229C4.265,17.318,4.318,17.3,4.354,17.26Zm-0.313.189c0.09,0.035.058,0.006,0.094,0.095H4.166v0.032H4.135c-0.056.038-.055,0-0.094,0.032H4.072v0.031H4.041a0.211,0.211,0,0,1-.125.032c0.028-.127,0,0-0.031-0.126H3.915C3.952,17.507,4,17.485,4.041,17.449Zm-0.313.189a0.136,0.136,0,0,1,.094.095H3.853v0.032H3.821c-0.056.038-.055,0-0.094,0.032H3.759v0.031H3.727a0.211,0.211,0,0,1-.125.032,0.449,0.449,0,0,1-.031-0.126A0.542,0.542,0,0,0,3.727,17.638Zm-0.313.189a0.136,0.136,0,0,1,.094.095H3.54v0.032H3.508c-0.056.038-.055,0-0.094,0.031H3.446v0.031H3.414a0.21,0.21,0,0,1-.125.032,0.447,0.447,0,0,1-.031-0.126A0.542,0.542,0,0,0,3.414,17.827Zm1.535,0.095a0.113,0.113,0,0,1,.031.063H4.949V17.921ZM3.1,18.016a0.279,0.279,0,0,1,.125.126,0.191,0.191,0,0,1-.125.032H3.132V18.2H3.1c-0.054.042-.05,0.054-0.094,0.032a0.126,0.126,0,0,1-.063-0.126A0.537,0.537,0,0,0,3.1,18.016Zm9.24,1.2a6.415,6.415,0,0,1,.689-0.031V19.118a0.757,0.757,0,0,0-.063-0.409,0.837,0.837,0,0,1-.376-0.032,0.114,0.114,0,0,1-.031-0.063h0.031V18.583a0.382,0.382,0,0,0,.345-0.063,0.669,0.669,0,0,0-.282-0.473A3.754,3.754,0,0,0,12.341,19.213Zm-7.424-1.1a0.114,0.114,0,0,1,.031.063H4.918V18.11Zm-2.193.126H2.85l0.031,0.126c-0.091,0-.044-0.03-0.094,0H2.819v0.031H2.788c-0.023.027-.039,0.036-0.063,0.063a0.107,0.107,0,0,1-.063-0.032A0.36,0.36,0,0,1,2.6,18.3,0.213,0.213,0,0,0,2.725,18.236Zm-0.313.189H2.506a0.474,0.474,0,0,1,.063.126c-0.091,0-.044-0.03-0.094,0,0.008,0.03.025,0.012,0,.031s-0.039.036-.063,0.063a0.107,0.107,0,0,1-.063-0.032,0.36,0.36,0,0,1-.063-0.126A0.214,0.214,0,0,0,2.412,18.425ZM2.1,18.614H2.193a0.474,0.474,0,0,1,.063.126c-0.091,0-.043-0.03-0.094,0,0.008,0.03.025,0.012,0,.031s-0.039.036-.063,0.063A0.106,0.106,0,0,1,2.036,18.8a0.126,0.126,0,0,1-.063-0.126A0.214,0.214,0,0,0,2.1,18.614ZM1.785,18.8H1.879l0.031,0.063c0.008,0.03.025,0.012,0,.032a0.234,0.234,0,0,0-.063.031c0.008,0.03.025,0.012,0,.032a0.211,0.211,0,0,1-.157.063L1.66,18.866A0.213,0.213,0,0,0,1.785,18.8Zm-0.313.189a0.151,0.151,0,0,1,.094.031,0.161,0.161,0,0,1,.031.095l-0.063-.031v0.031c0.008,0.03.025,0.012,0,.032a0.211,0.211,0,0,1-.157.063l-0.031-.157A0.213,0.213,0,0,0,1.472,18.992Zm3.32,0.063a0.114,0.114,0,0,1,.031.063H4.792V19.055Zm-3.634.126a0.151,0.151,0,0,1,.094.031,0.161,0.161,0,0,1,.031.095l-0.063-.031v0.031c0.008,0.03.025,0.012,0,.032a0.211,0.211,0,0,1-.157.063,0.5,0.5,0,0,1-.031-0.157A0.214,0.214,0,0,0,1.159,19.181Zm-0.313.189A0.151,0.151,0,0,1,.94,19.4a0.161,0.161,0,0,1,.031.095c-0.1-.011,0,0.009-0.094.032V19.5H0.846v0.032c0.008,0.03.025,0.012,0,.032a0.159,0.159,0,0,1-.094.031A0.5,0.5,0,0,1,.72,19.433,0.214,0.214,0,0,0,.846,19.37ZM4.73,19.433a0.113,0.113,0,0,1,.031.063H4.73V19.433ZM0.5,19.559H0.626a0.447,0.447,0,0,1,.031.126,0.731,0.731,0,0,0-.125.032c0.008,0.03.025,0.012,0,.032a0.159,0.159,0,0,1-.094.031,0.5,0.5,0,0,1-.031-0.157A0.119,0.119,0,0,0,.5,19.559Zm15.975,0.756V20.158a0.551,0.551,0,0,0-.313-0.063c-0.028,0-.346-0.064-0.47-0.095H15.349c-0.487-.112-1.121-0.071-1.6-0.189l-0.908-.032a2.951,2.951,0,0,0-.94-0.22v0.063c0.094,0.1.268,0.588,0.345,0.63ZM4.135,21.984L4.1,23.654a2.141,2.141,0,0,1,.157.189A0.96,0.96,0,0,1,4.7,23.591v0.031H4.73v0.063a0.6,0.6,0,0,0-.407.347c-0.008.03-.025,0.012,0,0.031a0.135,0.135,0,0,0,.125.126,0.5,0.5,0,0,0,.251.032V23.874a0.293,0.293,0,0,1,.251-0.095,0.55,0.55,0,0,0,.439.032A3.743,3.743,0,0,0,5.67,23.15a0.528,0.528,0,0,1-.188-0.032,0.491,0.491,0,0,1-.031.252V23.118l-0.282-.031V22.268l-0.376-.032-0.031-.189-0.094-.032A1.319,1.319,0,0,0,4.135,21.984Z"/>
</svg>
