<?xml version="1.0" encoding="utf-8"?>
<!-- Generator: Adobe Illustrator 16.0.0, SVG Export Plug-In . SVG Version: 6.00 Build 0)  -->
<!DOCTYPE svg PUBLIC "-//W3C//DTD SVG 1.1//EN" "http://www.w3.org/Graphics/SVG/1.1/DTD/svg11.dtd">
<svg version="1.1" id="Layer_1" xmlns="http://www.w3.org/2000/svg" xmlns:xlink="http://www.w3.org/1999/xlink" x="0px" y="0px"
	 width="40px" height="40px" viewBox="0 0 40 40" enable-background="new 0 0 40 40" xml:space="preserve">
<path id="jp_type_3_ho_ni_iii_ico" fill="#FFFFFF" d="M16,10.3c0.403,0.086,0.817,0.109,1.227,0.068
	c0.045-0.013,0.079-0.077,0.116-0.09h0.648c0.025,0.028,0.048,0.059,0.069,0.09c0.195-0.016,0.388-0.046,0.579-0.09
	c0.028,0.065,0.091,0.109,0.162,0.113c0.031-0.06,0.041-0.07,0.093-0.045c0.048,0.035,0.095,0.073,0.139,0.113v-0.024
	c0.015-0.02,0.022-0.043,0.023-0.068c-0.024-0.066-0.043-0.134-0.056-0.203h0.046v0.135c0.021,0.042,0.029,0.089,0.023,0.135h0.093
	l-0.023-0.18h0.208c0.014,0.036,0.021,0.074,0.023,0.113c-0.041,0.042-0.043,0.018-0.023,0.068c0.144,0.036,0.293,0.043,0.44,0.023
	v-0.09c0.17,0.033,0.347,0.018,0.509-0.045h-0.134V10.3h0.185c-0.018-0.051-0.025-0.104-0.023-0.158h0.162l-0.023,0.135h0.208
	c0-0.069,0.016-0.138,0.046-0.2c0.395-0.089,0.803-0.096,1.2-0.022c0.02,0.027,0.035,0.058,0.046,0.09
	c0.021,0.042,0.029,0.089,0.023,0.135h0.88l0.046,0.068c0.048-0.019,0.094-0.042,0.139-0.068c0.061,0.015,0.059,0.061,0.069,0.135
	c0.04-0.031,0.089-0.046,0.139-0.045c0.041,0.038,0.088,0.068,0.14,0.09l-0.019-0.296h0.046v0.18
	c0.018,0.027,0.025,0.059,0.023,0.09c0.324-0.014,0.65,0.001,0.972,0.045c0.036,0.273,0.114,0.54,0.231,0.789
	c0.047,0.052,0.117,0.078,0.186,0.068c0.029-0.032,0.076-0.042,0.116-0.023c0.125,0.297,0.218,0.607,0.278,0.924h0.185
	c-0.048-0.448-0.126-0.893-0.231-1.33h0.068c0.304,0.346,0.639,0.663,1,0.947c0.111,0.163,0.274,0.282,0.463,0.338
	c0.028,0.017,0.061,0.024,0.094,0.022v0.113l2.152,0.045v-0.067h0.348v0.068l9.328,0.18v-0.069h0.579
	c0.024-0.03,0.057-0.054,0.093-0.068c0-0.091-0.013-0.123,0.047-0.158v0.026c0.07,0.082,0.033,0.143,0.185,0.158
	c0.013,0.012,0.028,0.021,0.046,0.023v-0.227h0.069c0.039,0.077,0.095,0.145,0.161,0.2L40,12.508v0.811
	c-0.2,0.051-0.227,0.23-0.417,0.27v-0.225h-0.022c-0.044,0.023-0.091,0.038-0.14,0.045l-0.069,0.158h-0.045
	c0-0.312-0.367-0.238-0.672-0.225v-0.068c-2.465,0.007-4.935,0.13-7.431,0.135c0.035,0.225,0.027,0.454-0.022,0.676
	c-0.107,0.136-0.231,0.258-0.371,0.361h-1.158c-0.012,0.008-0.299,0.088-0.323,0.09v-0.067l-0.3-0.022l-0.094,0.248
	c-0.043,0.023-0.09,0.039-0.139,0.045c-0.013-0.013-0.028-0.021-0.046-0.023c-0.022-0.096-0.062-0.188-0.116-0.27h-1.181v0.09
	c-0.265,0.017-0.44,0.108-0.741,0.113c-0.033,0.174-0.123,0.333-0.255,0.451v-0.023c-0.112-0.115-0.179-0.268-0.185-0.428h-0.463
	v0.045c0.119,0.263,0.219,0.534,0.299,0.811c-0.027,0.082-0.05,0.164-0.068,0.248c0.076-0.026,0.152-0.049,0.23-0.068
	c0.051,0.046,0.117,0.07,0.186,0.068v0.09c0.131,0.03,0.268-0.004,0.37-0.09c0.233,0.086,0.474,0.153,0.718,0.2
	c0.03-0.076,0.036-0.065,0.139-0.068c0.145,0.056,0.284,0.123,0.418,0.2c0.039,0.067-0.021,0.066,0.045,0.113
	c0.193,0.072,0.367,0.188,0.51,0.338c-0.029,0.034-0.053,0.072-0.069,0.113c0.083-0.017,0.17,0.009,0.231,0.068
	c0.039,0.132,0.047,0.271,0.022,0.406c0.036,0.164,0.083,0.319,0.116,0.473h0.417c0.369-0.04,0.741-0.047,1.11-0.023
	c0.365-0.076,0.856,0.06,1.25-0.023c0.323-0.036,0.648-0.044,0.973-0.023l1.5-0.022c0.139,0.274,0.226,0.573,0.255,0.879h0.099
	v0.045c-0.016,0.02-0.023,0.044-0.023,0.068h0.046c0.017-0.086,0.098-0.145,0.185-0.135v-0.178c0.143-0.045,0.292-0.061,0.44-0.045
	c0.019-0.073-0.011-0.034,0.046-0.068v0.068h0.094v0.345h0.092v0.045c-0.051,0.035-0.047,0.037-0.045,0.068v0.022
	c0.074-0.055,0.162-0.086,0.254-0.09c0.059,0.105,0.128,0.204,0.209,0.293c0.047-0.034,0.104-0.05,0.162-0.046
	c0.071,0.019,0.136,0.059,0.185,0.113c0.006,0.022,0.019,0.01,0,0.023c-0.021,0.019-0.044,0.033-0.069,0.045l0.023,0.068
	c0.084-0.05,0.192-0.031,0.255,0.045c0.025,0.064,0.025,0.136,0,0.199c0.054,0.059,0.129,0.091,0.208,0.091v-0.026h0.023v0.023
	c0.059,0.066,0.105,0.143,0.139,0.225c-0.049-0.003-0.095,0.023-0.116,0.068h0.022c0.121,0.072,0.215,0.021,0.232,0.199
	c-0.07,0.062-0.098,0.159-0.07,0.248c0.055,0.004,0.104,0.027,0.14,0.068l0.069,0.248c-0.043-0.023-0.096-0.023-0.139,0
	c0.09,0.063,0.148,0.161,0.162,0.27c-0.066,0.07-0.115,0.155-0.139,0.248c0.019,0.033,0.056,0.051,0.093,0.045
	c-0.001,0.105-0.034,0.207-0.093,0.293c-0.03-0.029-0.07-0.073-0.094-0.045c-0.017,0.027-0.024,0.059-0.022,0.09
	c0.065,0.045,0.102,0.122,0.093,0.201c-0.072,0.045-0.088,0.119-0.162,0.157c-0.038,0.011-0.076,0.019-0.115,0.023
	c0.031,0.04,0.055,0.085,0.068,0.135c-0.058,0.063-0.111,0.13-0.162,0.2v-0.016c-0.027-0.026-0.059-0.049-0.093-0.067
	c-0.003,0.028-0.021,0.055-0.046,0.067c0.019,0.082,0.019,0.167,0,0.248c-0.092,0.011-0.186,0.011-0.278,0
	c-0.012,0.019-0.027,0.034-0.046,0.045c0.016,0.044,0.023,0.09,0.023,0.136c-0.056,0.068-0.127,0.122-0.209,0.157
	c-0.005-0.041-0.021-0.079-0.045-0.112c-0.058,0.078-0.119,0.153-0.186,0.225v0.023c-0.124,0.077-0.224-0.068-0.232,0.18
	c0.022,0.04,0.006,0,0,0.045L35.232,23.1c-0.001-0.04-0.01-0.079-0.024-0.115h-0.046c-0.079,0.109-0.342,0.199-0.393,0.293
	c-0.052,0.093,0.072,0.1-0.023,0.158c-0.035,0.059-0.094,0.1-0.162,0.112c-0.019-0.028-0.034-0.058-0.046-0.09
	c-0.171,0.078-0.321,0.193-0.44,0.338l0.023,0.113c-0.055,0.061-0.128,0.101-0.208,0.112c-0.015-0.02-0.022-0.043-0.022-0.067
	h-0.072c-0.152,0.085-0.28,0.21-0.369,0.36c-0.003,0.031-0.011,0.063-0.023,0.091c-0.058,0.04-0.111,0.085-0.162,0.135h-0.022
	c0.003-0.048-0.024-0.093-0.069-0.113c-0.175,0.085-0.314,0.229-0.395,0.406c0,0.042,0.022,0.021-0.022,0.045
	c-0.046,0.063-0.11,0.111-0.185,0.136c-0.001-0.039-0.009-0.078-0.023-0.113c-0.203,0.068-0.365,0.226-0.439,0.428
	c0.021,0.04,0.004,0,0,0.045l-0.209,0.135v-0.109c-0.172,0.068-0.336,0.158-0.485,0.27c-0.015,0.036-0.022,0.074-0.022,0.113
	c-0.082,0.033-0.168,0.057-0.256,0.068v-0.113h-0.047c-0.158,0.073-0.334,0.104-0.509,0.09c-0.02,0.043-0.035,0.088-0.046,0.135
	h-0.256l0.023-0.135H29.77c-0.067,0.128-0.112,0.145-0.324,0.135l0.022-0.135l-0.579,0.045v0.09h-0.277v-0.045
	c0.015-0.02,0.022-0.043,0.022-0.068H28.1c-0.024,0.033-0.041,0.072-0.045,0.113h-0.277v-0.021c0.02-0.028,0.035-0.059,0.047-0.09
	H27.27c-0.025,0.032-0.041,0.071-0.047,0.112h-0.279v-0.022c0.025-0.024,0.041-0.057,0.047-0.09h-0.555
	c-0.025,0.032-0.041,0.071-0.047,0.112h-0.255l0.023-0.112h-0.532c-0.013,0.012-0.029,0.02-0.046,0.022
	c-0.024,0.122-0.134,0.101-0.278,0.09v-0.046c0.016-0.02,0.023-0.043,0.023-0.068h-0.532c-0.024,0.033-0.041,0.072-0.046,0.113
	h-0.278v-0.021c0.019-0.028,0.034-0.059,0.046-0.09h-0.556c-0.024,0.032-0.041,0.071-0.046,0.112h-0.278v-0.022
	c0.024-0.024,0.041-0.057,0.046-0.09h-0.555c-0.025,0.032-0.041,0.071-0.046,0.112h-0.255l0.023-0.112h-0.533
	c-0.012,0.012-0.028,0.02-0.045,0.022v0.09h-0.278v-0.046c0.015-0.02,0.022-0.043,0.022-0.068h-0.531
	c-0.025,0.033-0.041,0.072-0.047,0.113h-0.278v-0.021c0.019-0.028,0.034-0.059,0.046-0.09h-0.555
	c-0.025,0.032-0.041,0.071-0.047,0.112h-0.277v-0.022c0.024-0.024,0.041-0.057,0.046-0.09h-0.555
	c-0.025,0.032-0.041,0.071-0.046,0.112h-0.255l0.023-0.112H19c-0.013,0.012-0.029,0.02-0.046,0.022v0.09h-0.273v-0.046
	c0.015-0.02,0.023-0.043,0.023-0.068h-0.533c-0.025,0.033-0.041,0.072-0.046,0.113h-0.278v-0.021
	c0.019-0.028,0.034-0.059,0.046-0.09h-0.555c-0.025,0.032-0.041,0.071-0.046,0.112h-0.278v-0.022
	c0.024-0.024,0.041-0.057,0.046-0.09H16.5c-0.025,0.032-0.041,0.071-0.046,0.112H16.2l0.023-0.112h-0.529
	c-0.012,0.012-0.028,0.02-0.046,0.022v0.09H15.37v-0.046c0.015-0.02,0.023-0.043,0.023-0.068h-0.532
	c-0.025,0.033-0.041,0.072-0.046,0.113h-0.278v-0.021c0.019-0.028,0.034-0.059,0.046-0.09h-0.555
	c-0.025,0.032-0.041,0.071-0.046,0.112H13.7v-0.022c0.024-0.024,0.041-0.057,0.046-0.09h-0.552
	c-0.025,0.032-0.041,0.071-0.046,0.112h-0.254l0.023-0.112h-0.533c-0.012,0.012-0.028,0.02-0.046,0.022
	c-0.025,0.122-0.134,0.101-0.278,0.09v-0.046c0.015-0.02,0.023-0.043,0.023-0.068h-0.532c-0.025,0.033-0.041,0.072-0.046,0.113
	h-0.278v-0.021c0.019-0.028,0.034-0.059,0.046-0.09h-0.555c-0.025,0.032-0.041,0.071-0.046,0.112h-0.278v-0.022
	c0.025-0.024,0.041-0.057,0.046-0.09H9.884c-0.025,0.032-0.041,0.071-0.046,0.112H9.56v-0.022c0.025-0.024,0.041-0.057,0.046-0.09
	H9.051C9.024,25.881,9.007,25.92,9,25.962H8.75l0.023-0.112H8.241c-0.013,0.012-0.029,0.02-0.046,0.022v0.09H7.917v-0.046
	c0.015-0.02,0.023-0.043,0.023-0.068H7.407c-0.025,0.033-0.041,0.072-0.046,0.113H7.083v-0.021c0.019-0.028,0.034-0.059,0.046-0.09
	H6.921c-0.113-0.031-0.229-0.047-0.347-0.046c-0.048,0.08-0.03,0.101-0.139,0.113L6.227,25.85v-0.023
	c0.024-0.024,0.041-0.057,0.046-0.09c-0.178-0.08-0.365-0.141-0.556-0.18c-0.019,0.072,0.011,0.034-0.046,0.067
	c-0.064-0.058-0.171-0.077-0.231-0.14c0.045-0.01,0.082-0.045,0.093-0.09c-0.176-0.092-0.363-0.159-0.556-0.201l-0.023,0.068
	C4.863,25.23,4.777,25.186,4.7,25.128c0.042-0.017,0.075-0.049,0.093-0.09c-0.168-0.042-0.326-0.118-0.463-0.226
	c-0.052,0.021-0.099,0.052-0.139,0.09c-0.064-0.057-0.169-0.076-0.231-0.135h0.021C3.998,24.74,4.022,24.717,4.05,24.7v-0.023
	c-0.168-0.041-0.326-0.118-0.463-0.225c-0.052,0.021-0.099,0.052-0.139,0.09c-0.063-0.058-0.168-0.077-0.23-0.135h0.023
	c0.017-0.028,0.041-0.052,0.069-0.068v-0.022c-0.168-0.042-0.327-0.118-0.463-0.226c-0.052,0.021-0.099,0.052-0.139,0.091
	c-0.064-0.058-0.169-0.078-0.231-0.136H2.5c0.017-0.028,0.041-0.052,0.069-0.067v-0.022C2.4,23.914,2.243,23.838,2.106,23.73
	c-0.058,0.031-0.121,0.055-0.185,0.068c-0.051-0.047-0.134-0.066-0.185-0.115h0.023c0.017-0.027,0.041-0.051,0.069-0.067v-0.021
	c-0.173-0.052-0.332-0.146-0.463-0.27c-0.053,0.025-0.107,0.048-0.162,0.067l-0.185-0.199c0.043,0.002,0.083-0.026,0.093-0.068
	H1.088c-0.097-0.15-0.222-0.281-0.37-0.383c-0.03-0.012-0.063-0.012-0.093,0C0.6,22.634,0.54,22.593,0.509,22.491
	c0.087,0,0.081,0.011,0.116-0.045c-0.1-0.139-0.156-0.304-0.162-0.474c-0.042-0.025-0.091-0.033-0.139-0.022l-0.046-0.267
	c0.03,0.011,0.063,0.011,0.093,0c0.054-0.174,0.07-0.359,0.046-0.541C0.353,21.126,0.306,21.07,0.3,21.004
	c0.042-0.054,0.049-0.15,0.093-0.2c0.03,0.03,0.07,0.074,0.093,0.046c0.064-0.121,0.111-0.25,0.139-0.384
	c0.006-0.015,0.066-0.058,0.069-0.067c0.029-0.084-0.143-0.123-0.023-0.2c-0.071-0.067-0.115-0.021-0.139-0.142
	c0.042-0.253,0.05-0.51,0.023-0.766c-0.106-0.065-0.182-0.171-0.208-0.293c0.174-0.072,0.2-0.128,0.185-0.383H0.417V18.57h0.231
	c0.002-0.018,0.011-0.033,0.023-0.045c-0.023-0.081-0.039-0.165-0.046-0.249c0.107-0.002,0.205-0.063,0.255-0.158
	c0.086,0.018,0.171,0.041,0.255,0.068v-0.316H1.088c-0.206,0.083-0.426,0.121-0.648,0.113v-0.045
	c-0.042-0.177-0.05-0.361-0.023-0.541L0,17.421v-0.045h0.023v-0.023l0.394-0.045L0.44,17.24c0.101-0.015,0.203-0.007,0.3,0.023
	l0.46-0.045c0-0.117,0-0.2,0-0.361c0.025,0,0.049-0.008,0.069-0.023c0.017-0.027,0.025-0.059,0.023-0.09
	c1.444-0.009,3.257-0.046,4.745-0.113l0.023,0.135h0.028c0.013-0.012,0.029-0.021,0.046-0.023c0.012-0.115,0.031-0.133,0.162-0.135
	c0.054,0.055,0.057,0.031,0.162,0.023c0.01-0.059,0.057-0.104,0.116-0.113c0.154,0.102,0.354,0.102,0.509,0
	c0.04-0.006,0.081,0.002,0.116,0.023c0.178,0.019,0.359,0.003,0.532-0.045c-0.026-0.078-0.008-0.164,0.046-0.225l0.046,0.09
	c0,0,0.443-0.036,0.486-0.045c0.114-0.026,0.23-0.041,0.347-0.045c0.021,0.024,0.044,0.047,0.069,0.068
	c0.311,0.002,0.621-0.028,0.926-0.09v0.068c0.257-0.012,0.55-0.043,0.9-0.045c0.089-0.193,0.189-0.381,0.3-0.563
	c0.097,0.052,0.197,0.097,0.3,0.135c0.113,0.085,0.208,0.192,0.278,0.315c0.054,0.004,0.108,0.012,0.162,0.023
	c0.056-0.019,0.11-0.041,0.162-0.068l0.162,0.022c0.111-0.078,0.237-0.132,0.37-0.158c0.008-0.198,0.04-0.395,0.093-0.586v-2.029
	c-0.044-0.571-0.037-1.144,0.023-1.713c-0.019-0.406-0.011-0.812,0.023-1.217l0.023,4.98c0.047,0.184,0.07,0.373,0.069,0.563
	c0.163,0.03,0.331,0.014,0.486-0.045c0.024-0.072,0.087-0.125,0.162-0.135c0.017-0.68,0.352-1.392,0.417-2.073
	c-0.044-0.011-0.085-0.035-0.116-0.068c0.02-0.33,0.082-0.655,0.185-0.969c0.063-0.026,0.125-0.056,0.185-0.09
	c0.03-0.338,0.1-0.671,0.208-0.992c0.041-0.149-0.007-0.29,0.046-0.451c0.097-0.254,0.16-0.519,0.185-0.789
	c0.395,0.018,0.791-0.005,1.181-0.068c-0.002-0.09,0.005-0.181,0.023-0.27h0.463C15.986,10.111,16.006,10.205,16,10.3z"/>
</svg>
