<svg xmlns="http://www.w3.org/2000/svg" width="40" height="40" viewBox="0 0 40 40">
  <defs>
    <style>
      .cls-1 {
        fill: #fff;
        fill-rule: evenodd;
      }
    </style>
  </defs>
  <path id="jp_type_89b_i_go_otsu_ico" class="cls-1" d="M30.522,11.578H30.43l-0.023.115a0.572,0.572,0,0,1-.183.023c0,0.19-.022.479-0.023,0.832h0.252v0.092a13.87,13.87,0,0,1,1.721.046l0.459-.023c0.338,0.073.663-.014,0.964,0.046a2.529,2.529,0,0,0,.092.555,2.253,2.253,0,0,0,.207.092,1.008,1.008,0,0,0,0,.67l4.085,0.023a1.41,1.41,0,0,1,.023.531,0.357,0.357,0,0,1-.115.023,4.191,4.191,0,0,0-1.148,0v0.6h-2.41a1.164,1.164,0,0,0-.206.416,0.252,0.252,0,0,1,.023.139,0.144,0.144,0,0,1,.115.046,0.162,0.162,0,0,1-.184.139v0.023a1.659,1.659,0,0,1,.092.485H33.483v0.023a0.083,0.083,0,0,1,.023.046,2,2,0,0,1,.23.046,0.973,0.973,0,0,1,.252-0.023,0.243,0.243,0,0,1,.046.139,0.13,0.13,0,0,1,0,.092h0.092c0.027-.083.035-0.084,0.138-0.092a1.361,1.361,0,0,0,.9.046,2.394,2.394,0,0,1,.023.416,1.89,1.89,0,0,1,.252.231v0.3l-0.207.023v0.162c0.1,0,.547-0.048.551-0.046a1.753,1.753,0,0,0,.551.046,3.444,3.444,0,0,1,.436-0.046c0.022,0.009-.021.034,0.023,0.046a4.6,4.6,0,0,1,1.01.093,0.431,0.431,0,0,1,.023.208,1.542,1.542,0,0,1-.688.254V18.325A0.491,0.491,0,0,1,37.04,18.3v0.046H36.9v0.069H35.25a0.4,0.4,0,0,0-.069.277,0.9,0.9,0,0,1,0,.139,1.13,1.13,0,0,0,.115.069c0.071,0.117-.132.317,0.207,0.323a2.58,2.58,0,0,1,.643-0.069c0.2-.047.434-0.116,0.62-0.162l1.744,0.069v0.809a1.694,1.694,0,0,0-.069.531,2.617,2.617,0,0,1,.115.347,0.931,0.931,0,0,0,.23.139A1.325,1.325,0,0,1,38.9,20.8V20.82a0.361,0.361,0,0,1,.161.185c-0.041.012-.134,0.049-0.092,0.069a1.566,1.566,0,0,1,.321.139,0.9,0.9,0,0,1,.023.3,1.117,1.117,0,0,0,.161.208c0.038-.05.065-0.071,0.115-0.046a0.369,0.369,0,0,1,.115.231,0.263,0.263,0,0,1-.138,0v0.023a0.432,0.432,0,0,1,.275.37,0.453,0.453,0,0,0,0,.393h0.138L40,22.969a0.388,0.388,0,0,1-.138-0.023v0.115a0.272,0.272,0,0,1,.138.254,0.379,0.379,0,0,0-.184.347,0.667,0.667,0,0,0-.046.115c0.092,0.018.118,0.017,0.138,0.116l-0.069.185L39.7,24.032v0.092a0.326,0.326,0,0,1,.069.231l-0.275.162a0.9,0.9,0,0,1-.138.208v0.023a0.138,0.138,0,0,1,.115.092,0.59,0.59,0,0,1-.184.162c-0.035-.045-0.056-0.064-0.092-0.046a0.735,0.735,0,0,1-.069.323,0.726,0.726,0,0,1-.3.046,1.976,1.976,0,0,1-.184.139c0.041,0.06.091,0.077,0.069,0.139a0.865,0.865,0,0,1-.115.116,0.264,0.264,0,0,0-.138-0.069,1,1,0,0,0-.184.254,0.712,0.712,0,0,1-.161.023,1.934,1.934,0,0,0-.184.162,0.516,0.516,0,0,1,.092.139,0.292,0.292,0,0,0-.161.139H37.843V26.343c-0.035-.034-0.057-0.081-0.092-0.116V26.25l-0.551.462c0.041,0.06.091,0.077,0.069,0.139a0.2,0.2,0,0,1-.161.092,0.762,0.762,0,0,1-.092-0.092v0.023c-0.212.108-.361,0.3-0.574,0.416,0.027,0.028.139,0.089,0.092,0.116a0.405,0.405,0,0,1-.184.139l-0.069-.116H36.259v0.023c-0.2.12-.362,0.3-0.574,0.416a1.177,1.177,0,0,0,.092.092,0.079,0.079,0,0,1-.023.046,0.435,0.435,0,0,1-.183.116,0.112,0.112,0,0,0-.115-0.093,5.3,5.3,0,0,1-.574.439,0.193,0.193,0,0,1,.069.139c-0.092.029-.119,0.084-0.206,0.116a0.5,0.5,0,0,0-.046-0.116,2.855,2.855,0,0,1-.8.231v0.139h-0.23a0.4,0.4,0,0,1,.023-0.139H32.955V29h-0.23V28.838H31.991V29h-0.23a0.467,0.467,0,0,1,.023-0.162H31.027v0.023A0.252,0.252,0,0,1,31.05,29H30.82a0.467,0.467,0,0,1,.023-0.162H30.086v0.023a0.252,0.252,0,0,1,.023.139H29.857a0.467,0.467,0,0,1,.023-0.162H29.122v0.023a0.252,0.252,0,0,1,.023.139H28.916a0.467,0.467,0,0,1,.023-0.162H28.181v0.023A0.252,0.252,0,0,1,28.2,29H27.952a0.467,0.467,0,0,1,.023-0.162H27.217v0.023A0.252,0.252,0,0,1,27.24,29h-0.23a0.469,0.469,0,0,1,.023-0.162H26.277v0.023A0.252,0.252,0,0,1,26.3,29H26.047a0.469,0.469,0,0,1,.023-0.162H25.313v0.023a0.252,0.252,0,0,1,.023.139H25.106a0.467,0.467,0,0,1,.023-0.162H24.372v0.023a0.252,0.252,0,0,1,.023.139H24.142a0.469,0.469,0,0,1,.023-0.162H23.408v0.023a0.252,0.252,0,0,1,.023.139H23.2a0.469,0.469,0,0,1,.023-0.162H22.467v0.023A0.252,0.252,0,0,1,22.49,29H22.238a0.467,0.467,0,0,1,.023-0.162H21.5v0.023a0.252,0.252,0,0,1,.023.139H21.3a0.467,0.467,0,0,1,.023-0.162H20.562v0.023a0.251,0.251,0,0,1,.023.139H20.333a0.467,0.467,0,0,1,.023-0.162H19.6v0.023a0.252,0.252,0,0,1,.023.139H19.392a0.467,0.467,0,0,1,.023-0.162H18.658v0.023A0.252,0.252,0,0,1,18.68,29H18.428a0.469,0.469,0,0,1,.023-0.162H17.694v0.023a0.252,0.252,0,0,1,.023.139H17.487a0.469,0.469,0,0,1,.023-0.162H16.753v0.023a0.252,0.252,0,0,1,.023.139H16.523a0.467,0.467,0,0,1,.023-0.162H15.789v0.023a0.252,0.252,0,0,1,.023.139H15.582a0.467,0.467,0,0,1,.023-0.162H14.848v0.023a0.252,0.252,0,0,1,.023.139H14.619a0.469,0.469,0,0,1,.023-0.162H13.907V29H13.678a0.467,0.467,0,0,1,.023-0.162H12.943v0.023a0.252,0.252,0,0,1,.023.139H12.714a0.467,0.467,0,0,1,.023-0.162H12V29l-0.229-.023a0.47,0.47,0,0,0-.023-0.162,1.828,1.828,0,0,1-.643-0.162l-0.023.139-0.23-.046a0.5,0.5,0,0,1,.046-0.162,2.928,2.928,0,0,1-.711-0.208c0,0.105,0,.116-0.092.139a0.245,0.245,0,0,0-.161-0.046,0.5,0.5,0,0,1,.046-0.162,2.538,2.538,0,0,1-.734-0.231,0.112,0.112,0,0,1-.046.162C9.146,28.188,9.05,28.174,9,28.122a0.433,0.433,0,0,0,.069-0.116L8.33,27.729a0.157,0.157,0,0,1-.092.139,0.89,0.89,0,0,0-.207-0.092L8.1,27.637a0.078,0.078,0,0,1-.046-0.023,1.012,1.012,0,0,1-.229.046,0.772,0.772,0,0,0-.459-0.3,0.138,0.138,0,0,1-.092.116c-0.06-.056-0.15-0.08-0.207-0.139a0.126,0.126,0,0,0,.069-0.092H7.114a0.346,0.346,0,0,1-.3.023A0.742,0.742,0,0,0,6.563,26.8a0.257,0.257,0,0,1-.138.046,0.52,0.52,0,0,1-.161-0.185,0.172,0.172,0,0,0,.115-0.092A0.232,0.232,0,0,1,6.1,26.458,0.333,0.333,0,0,1,6.127,26.2a0.09,0.09,0,0,0-.069-0.092,2.361,2.361,0,0,0-.551-0.069A9.5,9.5,0,0,1,4.223,25.7,7.294,7.294,0,0,1,.734,23.131,3.086,3.086,0,0,1,0,21.814a0.239,0.239,0,0,1,.138-0.046,0.206,0.206,0,0,1,.092.208C0.172,22,.134,22,0.092,22.022a0.084,0.084,0,0,1,.023.046h0.6a1.183,1.183,0,0,0,.367.508V22.553a0.374,0.374,0,0,0,.161-0.323H1.308V22.161H1.17V22.114H1.354c0.008,0.13.015,0.182,0.161,0.185a0.94,0.94,0,0,0,.551-0.046c0.236-.058.483,0,0.734-0.069a1.681,1.681,0,0,1,.528-0.069,0.222,0.222,0,0,1,.046-0.162v0.023c0.059,0.084.013,0.109,0.161,0.116a0.149,0.149,0,0,1,.138,0v0.069c0.563-.007,1.17-0.15,1.744-0.162V21.606H5.622v0.3c0.5,0,.748-0.063,1.17-0.092a0.138,0.138,0,0,1,.161-0.139c0.113,0.136.208-.03,0.39-0.092a0.344,0.344,0,0,0,.3-0.092,4.451,4.451,0,0,0,.9-0.555A0.451,0.451,0,0,1,8.33,20.4a0.589,0.589,0,0,1,.184-0.162,0.494,0.494,0,0,1,.3-0.069l-0.046-.947c0.573,0,1.21.026,1.744-.023a5.215,5.215,0,0,0,1.079-.046c0.016-.005.573-0.323,0.574-0.323,0.072-.088-0.037-0.091.115-0.116a0.361,0.361,0,0,0,.115.069c0.014-.116.032-0.118,0.161-0.116,0.036,0.029.012,0.015,0.046,0,0.025-.038-0.022-0.049.046-0.092A0.5,0.5,0,0,1,12.9,18.51c0.023,0.085.015,0.081,0.115,0.093a5.728,5.728,0,0,1,1.079-.231,1.775,1.775,0,0,0,.069-0.185l0.482-.092a0.706,0.706,0,0,0,.023.162h0.023a0.441,0.441,0,0,1,.229-0.046,0.336,0.336,0,0,0-.023-0.116h0.138a1.591,1.591,0,0,0,.6-0.139v0.092l0.321-.069V17.932a0.2,0.2,0,0,1-.023-0.116h0.046a1.145,1.145,0,0,1,.413-0.092l0.046,0.162a1.727,1.727,0,0,1,.184-0.046,0.5,0.5,0,0,1,.046-0.116,0.763,0.763,0,0,1,.115.069,3.682,3.682,0,0,0,.574-0.092c0.065-.03.085-0.107,0.161-0.139a0.608,0.608,0,0,0,.482,0c0.024-.076.1-0.1,0.115-0.162a1.956,1.956,0,0,1,0-.323c0.444-.158.947-0.172,1.423-0.3a2.149,2.149,0,0,1,.849-0.139,0.882,0.882,0,0,0,.115.3c0.226-.063.5-0.067,0.734-0.139,0.064-.019.136-0.075,0.207-0.092h0.229c0.163-.041.4-0.136,0.551-0.162,0.107-.019.068,0.051,0.115,0.069a0.655,0.655,0,0,0,.161,0,0.377,0.377,0,0,1,.069-0.115,0.838,0.838,0,0,0,.734-0.069,0.282,0.282,0,0,1,.115.093H23.8a0.639,0.639,0,0,1,.023-0.208H22.261a1.035,1.035,0,0,0-.413-0.023V16.245a1.5,1.5,0,0,0,.092-0.393,5.259,5.259,0,0,0,.23-0.994,7,7,0,0,1-1.492-.116,0.311,0.311,0,0,1-.046.092,0.894,0.894,0,0,1-.643-0.347,0.115,0.115,0,0,1,.023-0.139,1.989,1.989,0,0,1,.551-0.069,1.632,1.632,0,0,1,.643,0,1.43,1.43,0,0,0,.643-0.046,1.681,1.681,0,0,1,.367.046,1.631,1.631,0,0,1,.229-0.531l0.069-.416a4.492,4.492,0,0,0,.184-0.786c0.175,0,.333-0.025.459-0.023a0.484,0.484,0,0,0,.161.023,0.314,0.314,0,0,1,.161-0.023,2.715,2.715,0,0,0,.964.023c0.17-.035.587,0.063,0.689,0.023a0.157,0.157,0,0,0,.023-0.092H25.4c0-.33-0.027-0.574,0-0.832H25.221c-0.051-.107,0-0.134-0.161-0.139V11.485h0.023a0.782,0.782,0,0,1,.115-0.347,4.112,4.112,0,0,1,1.652-.116c0.814,0,1.237.023,2.157,0.023a6.5,6.5,0,0,1,1.239.046,0.424,0.424,0,0,1,.252.37A0.2,0.2,0,0,1,30.522,11.578ZM4.8,23.8a10.792,10.792,0,0,0-.023-1.317l-0.666.092c-0.033.245-.17,0.47-0.207,0.693a6.754,6.754,0,0,0,.161,1.2,3.613,3.613,0,0,1,.5.162,1.758,1.758,0,0,0,.252-0.555A0.947,0.947,0,0,1,4.727,23.8H4.8ZM3.121,22.692c-0.241.146-.988,0.036-1.216,0.185a0.118,0.118,0,0,0-.023.069,2.423,2.423,0,0,1,.069.716c0.191,0.123.345,0.309,0.528,0.439,0.155,0.11.32,0.174,0.482,0.277a1.258,1.258,0,0,0,.321.208,0.379,0.379,0,0,0,.138-0.046,0.849,0.849,0,0,1,.321.046,0.5,0.5,0,0,0,.023-0.162c-0.136-.226-0.025-0.867-0.138-1.132-0.088-.207-0.3-0.389-0.413-0.6H3.121Zm1.538,0.855H4.7L4.727,23.8H4.7V23.755A0.805,0.805,0,0,1,4.659,23.547Z" transform="translate(0 -0.016)"/>
</svg>
