<svg xmlns="http://www.w3.org/2000/svg" width="80" height="40" viewBox="0 0 80 40">
  <defs>
    <style>
      .cls-1 {
        fill: #fff;
        fill-rule: evenodd;
      }
    </style>
  </defs>
  <path id="jp_type_t1_1941_ico" class="cls-1" d="M43.528,10.175a1.406,1.406,0,0,1,0-.29,0.263,0.263,0,0,1-.164-0.041,0.855,0.855,0,0,1,.41.041H43.61v0.29h0.164v0.041a0.511,0.511,0,0,1-.328.29,9.21,9.21,0,0,0,.451,1.741,0.116,0.116,0,0,0,.041-0.041,1.389,1.389,0,0,0,.041-0.58h0.369v0.083c-0.232.142,0.012,0.5,0.041,0.663H44.185l-0.205.249a20.124,20.124,0,0,0,.574,2.777,8.111,8.111,0,0,1,.369,1.575c0.774,0,.952.052,1.723,0.041v0.331c-0.661,0-.956.04-1.6,0.041v0.083a5.851,5.851,0,0,1,.328,1.119h0.985v0.124H46.031V18.8h0.205a0.441,0.441,0,0,0,.246.041V18.713h0.779a2.834,2.834,0,0,0-.041-0.787h0.205a2.4,2.4,0,0,1,.656-0.124,9.723,9.723,0,0,1,1.928-.414,0.323,0.323,0,0,0,0,.166,0.64,0.64,0,0,0,.205-0.166,0.354,0.354,0,0,1,.164.083,0.56,0.56,0,0,1,.041.5,0.352,0.352,0,0,0-.246.124c0.283,0.347.06,0.848,0.738,0.829a0.274,0.274,0,0,0,.164.041,0.117,0.117,0,0,1,.041-0.041V18.8l-0.451-.041a1.136,1.136,0,0,1-.205-0.29H50.5a1.352,1.352,0,0,1,1.272-.373v0.041a0.512,0.512,0,0,0-.287.539H51.282l-0.041.249h0.082a3.48,3.48,0,0,0,.944.083,10.213,10.213,0,0,0,1.6.166c0.086,0.192.3,0.428,0.41,0.622l0.082,0.5c0.206,0.688.291,1.382,0.451,2.114h0.41a0.752,0.752,0,0,1,.369-0.041V22.235H55.467V22.152a2.761,2.761,0,0,1,.82-0.041,0.73,0.73,0,0,1-.082.207h0.656a3.579,3.579,0,0,1,.862-0.041,12.608,12.608,0,0,1,2.626-.124,4.38,4.38,0,0,1,1.19.041,0.734,0.734,0,0,0-.451.083h0.041a1.164,1.164,0,0,0,.615,0l1.6-.041a0.358,0.358,0,0,1,.123-0.249c0.006,0.156-.019.146,0.082,0.207a0.274,0.274,0,0,0,.164.041c-0.029.146-.05,0.1-0.082,0.249,1.156,0,2.3-.043,3.364-0.042V22.36c-0.029-.064-0.005-0.006,0-0.124h0.164V21.9a0.576,0.576,0,0,1,.164-0.041,1.21,1.21,0,0,1,.041.373l0.205,0.041c0.019,0.119.211,0.092,0.451,0.083a2.478,2.478,0,0,0,1.108,0V22.235h0.9c-0.021-.723-0.074-1.56.451-1.741a0.708,0.708,0,0,1,.41-0.124l-0.082.912-0.287.041v0.87a3,3,0,0,0,.82.041V22.36l0.821-.041V22.235a0.161,0.161,0,0,1-.082-0.124,0.628,0.628,0,0,1,.451-0.207,0.442,0.442,0,0,1,.082.207,2.617,2.617,0,0,0,.738-0.083,0.289,0.289,0,0,1,.041-0.29c0.006,0.182-.014.207,0.082,0.249a0.366,0.366,0,0,1,.369-0.124,0.357,0.357,0,0,0,.246.249,0.272,0.272,0,0,1,.328-0.207,0.147,0.147,0,0,0,.082.041,0.929,0.929,0,0,1,.164.249,0.366,0.366,0,0,0-.123.124h1.682V21.987h0.369v0.332c0.5,0,.9,0,1.436,0v-0.87h0.287v0.829h0.205a0.318,0.318,0,0,1,.328-0.249v0.083a0.3,0.3,0,0,0-.082.166h0.246V22.194a0.3,0.3,0,0,1-.082-0.166h0.123a0.483,0.483,0,0,0,.533.249l0.041-.249h0.205a0.9,0.9,0,0,0,.164.539H79.959a4.969,4.969,0,0,0-.492.415,11.222,11.222,0,0,0-.985,2.114,13.553,13.553,0,0,0-.821,1.823,0.215,0.215,0,0,1,.205.207l-0.451.083a6.023,6.023,0,0,1-1.19,1.616c-2.491,3.334-9.879,3.067-15.713,3.067-4.7,0-9.43.083-14.195,0.083l-4.267-.041a13.16,13.16,0,0,1-2.462-.041l-9.19-.083a9.2,9.2,0,0,0-1.682-.041l-2.585-.041H24.78c-0.726-.156-1.684.126-2.462-0.041-0.608-.131-1.432.1-2.092-0.041a8.076,8.076,0,0,0-3.118.166c-0.5.119-1.022,0.051-1.477,0.207a0.2,0.2,0,0,0-.041-0.124,11.767,11.767,0,0,1-2.01.29c-1.635.4-3.626,0.361-5.128,0.87-0.62.21-2.087-.015-2.215,0.456a1.324,1.324,0,0,1,.164.87l-0.205-.041-0.164-.29a0.947,0.947,0,0,1-.328.083l-0.041-.124A1.17,1.17,0,0,1,5.7,33.467a6.739,6.739,0,0,0-.9,0,0.481,0.481,0,0,1-.082-0.29c0.232-.118.61-0.146,0.862-0.249l0.041-.083A1.272,1.272,0,0,1,5.5,31.726,0.726,0.726,0,0,1,5.662,31.6c0.256-.134.623,0.524,0.533,0.87a3.383,3.383,0,0,0-.123.373,3.568,3.568,0,0,1,.779.041V32.555a4.206,4.206,0,0,1-.164-1.243l-3.856-.124V30.773H2.667a0.943,0.943,0,0,0,.123.539,2.714,2.714,0,0,0,1.026.041,0.275,0.275,0,0,1,.164-0.041v0.083L2.256,34.917,0.123,35,0,31.477a12.369,12.369,0,0,0,2.379-.415v-0.29H2.174v-0.58H2.379V26.836H1.928V26.5l-1.272-.7c0-.307-0.078-0.409-0.082-0.746a0.614,0.614,0,0,1,.164-0.083v0.166a2.212,2.212,0,0,0,1.313-.207,2.533,2.533,0,0,1,0-.746c-0.123-.59-0.026-1.27-0.164-1.906L1.313,15.812C1.2,15.792,1.222,15.6,1.231,15.356a1.188,1.188,0,0,0,0-.249H1.477v0.042H1.518a0.571,0.571,0,0,0,.041.29,12.086,12.086,0,0,0,.082,1.616L1.805,19.21a29.549,29.549,0,0,1,1.723,3.523c0.209,0.424.4,0.879,0.574,1.285a1.382,1.382,0,0,0,.328.7,1.534,1.534,0,0,0,.821.083V24.763H5.292A0.591,0.591,0,0,1,5.251,24.6H5.128a8.435,8.435,0,0,1-.082-1.7,0.366,0.366,0,0,0,.123-0.166l0.41-.041,0.041-.124H5.744c0.122,0.005.056,0.072,0.205,0.083a2,2,0,0,1,.41-0.083s-0.01.057,0.123,0.083c0-.157-0.041-0.114.164-0.124,0.06,0.1.052,0.076,0.205,0.083A0.258,0.258,0,0,1,7.138,22.4a0.31,0.31,0,0,0,.328.207,0.53,0.53,0,0,1,.041-0.166A0.263,0.263,0,0,1,7.344,22.4l0.451-.041,0.041,0.124a0.963,0.963,0,0,0,.451.083V22.443H8.451v0.124H9.108a3.657,3.657,0,0,0,.082.456l0.123,0.041v0.249l0.123,0.041a11,11,0,0,1,.041,1.2c0.384,0.017.746,0,1.149,0a2.1,2.1,0,0,1-.082-0.29h0.205a0.358,0.358,0,0,1,.123-0.249c0.012,0.355.359,0.271,0.7,0.249a2.593,2.593,0,0,1,.944-0.041l1.682-.124a0.649,0.649,0,0,0,.041.331,11.8,11.8,0,0,1,2.01-.083l0.041-.124a1.1,1.1,0,0,1-.246-0.787l-1.723.041a1.735,1.735,0,0,1-.533.207,2.455,2.455,0,0,0-.985,0,4.035,4.035,0,0,0-.533-0.953H12.226c-0.042.026-.008,0.09-0.041,0.041a1.151,1.151,0,0,1-.082-0.7h0.041V22.028c0.1,0.072.066,0.1,0.164,0.083,0.317-.231.069-1.017,0.7-1.036V20.868a0.526,0.526,0,0,1-.533-0.456c0.176-.079.063-0.106,0.164-0.249a1.009,1.009,0,0,1,.739-0.124,7.79,7.79,0,0,1,1.969.041v0.041h0.041v0.124h0.123v0.249a1.064,1.064,0,0,1-.41.207,0.441,0.441,0,0,1-.287,0,0.8,0.8,0,0,1-.205.29H14.031a0.252,0.252,0,0,1-.082.083L13.99,21.2h0.533a8.112,8.112,0,0,1,1.887-.083c0.044-.162.047-0.159,0.246-0.166V20.909c0.041-.041.041,0.041,0.041,0.041a4.118,4.118,0,0,0,1.846.083V20.619l0.123-.041a0.227,0.227,0,0,1,.164,0l0.041,0.415h0.164c0.075-.152.1-0.168,0.328-0.166,0.079,0.16.122,0.173,0.369,0.166,0.06-.041.208,0.007,0.287-0.041,0.126-.077.033-0.149,0.287-0.166v-0.5l2.462-.207v0.787h0.082a7.11,7.11,0,0,1,1.559-.083,0.2,0.2,0,0,1,.041-0.124,0.441,0.441,0,0,1,.246-0.041,0.232,0.232,0,0,0,.246.166c0.234-.146.7,0.081,0.985-0.041a8.313,8.313,0,0,1,1.108-.041,15.613,15.613,0,0,1,2.3-.124c-0.024-2.131-.254-3.585,1.682-3.813L30.851,18.63H30.769a1.839,1.839,0,0,1-.451.083l-0.041.124a6.545,6.545,0,0,0-.041,1.616,2.514,2.514,0,0,0,.985.083,0.44,0.44,0,0,1,.246-0.041l0.041-.415,0.205-.041c0.138,0.311.037,0.477,0.533,0.456a4.342,4.342,0,0,1,1.026-.042,8.027,8.027,0,0,1,1.477-.083h0.615a0.944,0.944,0,0,1,.41-0.207c0.065,0.12.191,0.153,0.246,0.249a2.28,2.28,0,0,1,.123.995,6.181,6.181,0,0,0,1.108-.249,0.6,0.6,0,0,1,.041-0.207l0.492-.083v0.124a0.2,0.2,0,0,0,.123-0.041,1.461,1.461,0,0,0,.41-0.332c0.3-.222.628-0.429,0.944-0.622l0.451-.166V18.547H39.467V18.423c0.133-.034.063,0.02,0.123-0.083a0.22,0.22,0,0,1-.123-0.249c0.144-.434-0.052-2.09.123-2.362a1.681,1.681,0,0,1,.492-0.539h1.395a1.31,1.31,0,0,1,.41-0.083l0.041,0.124c0.1,0.045.588,0.1,0.7,0.124,0-1.519.4-3.139,0.533-4.6h0.123a6.335,6.335,0,0,0-.287-1.16c-0.194-.636-0.281-1.306-0.451-1.906-0.344-1.213-.507-2.559-0.862-3.606L41.969,4a1.9,1.9,0,0,0,.164.58l-0.041.29c0.057,0.275.173,0.609,0.246,0.87,0.268,0.952.384,1.912,0.656,2.818a7.093,7.093,0,0,0,.369,1.575A0.274,0.274,0,0,0,43.528,10.175Zm0.328,6.8h0.861a10.909,10.909,0,0,0-.533-2.279A8.594,8.594,0,0,0,43.61,12.7a0.753,0.753,0,0,0,.041-0.249,4.721,4.721,0,0,0-.328-1.409v0.041a4.338,4.338,0,0,0-.123,1.119c-0.127.574-.068,1.2-0.205,1.824a7.51,7.51,0,0,0-.164,1.451c0.233,0.062.3,0.166,0.492,0.207C43.348,16.106,43.773,16.371,43.856,16.972ZM43.487,12.7a0.2,0.2,0,0,1,.123.041A0.2,0.2,0,0,1,43.487,12.7ZM8.328,31.353c0.12,0.38.124,0.909,0.205,1.285H8.862a5.625,5.625,0,0,1,1.436-.207c1.2-.288,2.574-0.3,3.774-0.58a6.6,6.6,0,0,0,1.477-.207,0.48,0.48,0,0,0,.082-0.124H14.646a9.432,9.432,0,0,0-1.723-.041c-0.477-.1-1.153.073-1.682-0.041a8.028,8.028,0,0,0-1.395-.041C9.378,31.391,8.85,31.352,8.328,31.353Z" transform="translate(0 0.5)"/>
</svg>
