<svg xmlns="http://www.w3.org/2000/svg" width="39.969" height="40" viewBox="0 0 39.969 40">
  <defs>
    <style>
      .cls-1 {
        fill: #fff;
        fill-rule: evenodd;
      }
    </style>
  </defs>
  <path id="jp_type_2_ho_i_ico" class="cls-1" d="M13,18.7a3.058,3.058,0,0,1,.452.1,0.347,0.347,0,0,1,.025.1,0.451,0.451,0,0,0-.1.075H13.4a0.229,0.229,0,0,1,.075.125c-0.056.041-.075,0.043-0.05,0.1a1.676,1.676,0,0,0,.753.175,0.207,0.207,0,0,0,.025.125,4.5,4.5,0,0,1,1.029-.05v-0.2a0.322,0.322,0,0,0,.226-0.1,0.587,0.587,0,0,1,.15.1h1.28a0.072,0.072,0,0,1,.025-0.025l0.05-.474h0.05c0.022,0.173.089,0.3,0.1,0.5a4.28,4.28,0,0,0,1.1-.05H18.093V18.7H14.454V18.6c-0.109-.026-0.123-0.04-0.126-0.175a0.905,0.905,0,0,0,.05-0.374c-0.1-.033-0.1-0.066-0.1-0.2a0.854,0.854,0,0,1,.1-0.424,0.128,0.128,0,0,1,.075-0.025l0.025-.225a0.857,0.857,0,0,1-.2-0.025,0.819,0.819,0,0,1-.025-0.249,1.659,1.659,0,0,0,.075-0.4,1.993,1.993,0,0,1,.226,0v-0.2a0.121,0.121,0,0,1-.1-0.125,2.459,2.459,0,0,0,.025-0.4,0.869,0.869,0,0,1,.176-0.2,2.791,2.791,0,0,1,.05-0.424,0.218,0.218,0,0,1,.126-0.025v-0.1h0.05a5.5,5.5,0,0,1,1.129-.3c0.449-.145.931-0.221,1.405-0.374a3.867,3.867,0,0,1,.853-0.249c0-.207,0-0.272,0-0.474H18.118a0.473,0.473,0,0,1-.1-0.2,0.223,0.223,0,0,0,.075-0.224,0.263,0.263,0,0,0-.151-0.05,1.209,1.209,0,0,1,.05-0.574,1,1,0,0,1,.326-0.2,0.177,0.177,0,0,0,.176.15c0.161-.145.158,0.057,0.351,0a0.773,0.773,0,0,1,.1-0.075c0.095-.015.108,0.1,0.151,0.125h0.427v-0.1H19.95v0.1h0.075a3.1,3.1,0,0,0-.452-1H20.5a0.647,0.647,0,0,1,.05.324h0.176V11.87c-0.052-.094.03-0.111,0.05-0.224a0.327,0.327,0,0,1-.2-0.424,0.411,0.411,0,0,1,.276-0.175,0.246,0.246,0,0,0,.3.125,1.845,1.845,0,0,0,.678.05,0.321,0.321,0,0,1,.025-0.175v0.175h0.1l0.075-.948h0.025a1.565,1.565,0,0,0,.6.175q-0.025.386-.05,0.773a18.874,18.874,0,0,1,1.957,0c0.128,0.052.185-.035,0.251,0.075a0.148,0.148,0,0,1,0,.15h0.251a1.945,1.945,0,0,1,.477-0.025,3.255,3.255,0,0,1,.527,0,5.3,5.3,0,0,1,1.1,0,3.039,3.039,0,0,0,.6.075,0.328,0.328,0,0,1,.05.2,0.089,0.089,0,0,0-.025.05,0.43,0.43,0,0,0-.2.15,1.69,1.69,0,0,1-.5.1l-0.025-.125H27.051a0.176,0.176,0,0,1-.176.05V12H25.069V11.92h-0.5v0.1H24.241v-0.1l-0.928.025a0.314,0.314,0,0,1-.025.1h0.276a3.268,3.268,0,0,1,.878,1.072v0.374a1.132,1.132,0,0,0,.1.075v0.2a0.46,0.46,0,0,0,.4.424l0.025,0.374a0.07,0.07,0,0,1,.025.025,4.178,4.178,0,0,1,.652.1,2.029,2.029,0,0,0,.2-0.075,0.461,0.461,0,0,0,.3.2,0.091,0.091,0,0,0,.05.025v-0.05a0.126,0.126,0,0,0,.025-0.075,1.333,1.333,0,0,1,.251.05c0.143,0.026.136-.084,0.226-0.05,0.1,0.067.01,0.084,0.151,0.1a1.149,1.149,0,0,0,.4.1,0.147,0.147,0,0,1,.126-0.075,0.176,0.176,0,0,0,.2.125,0.49,0.49,0,0,0,.251.05v0.1h0.05a0.17,0.17,0,0,1,.1-0.025v0.1h0.1v0.025h0.025a0.4,0.4,0,0,0-.05.249,0.455,0.455,0,0,1,.477.225,0.441,0.441,0,0,0,.05.175h2.409v0.075h0.1a0.747,0.747,0,0,0,.226.524l-0.276.524h1v0.1c0.1,0.02.152,0.076,0.251,0.1h0.878c0.244,0.052.6-.034,0.878,0.025a8.806,8.806,0,0,0,1.807.025v0.7c-1.139-.062-2.468.047-3.714,0.05,0,0.07.017,0.08-.1,0.1v0.1H28.808a3.885,3.885,0,0,0,.125.5,0.165,0.165,0,0,1,.126.05,0.531,0.531,0,0,0-.1.15c-0.022.016-.079,0.033-0.1,0.05a0.588,0.588,0,0,1,.075.224,4.5,4.5,0,0,1-.6.05v0.05h1.355a2.451,2.451,0,0,0,.552.2,4.659,4.659,0,0,0,.954.349c0.021,0.081-.012.038,0.05,0.075a0.169,0.169,0,0,1,.1-0.025,0.57,0.57,0,0,0,.151.125,0.53,0.53,0,0,0-.025.274,0.227,0.227,0,0,1,.2.15,0.621,0.621,0,0,1,.025.349h0.452a2.139,2.139,0,0,1,.653,0,4.529,4.529,0,0,1,.979,0,3.077,3.077,0,0,0,.6.075,0.328,0.328,0,0,1,.05.2,0.09,0.09,0,0,0-.025.05,0.431,0.431,0,0,0-.2.15,1.687,1.687,0,0,1-.5.1V21.247h-0.05a1.135,1.135,0,0,0-.176,0v0.075H31.945v0.05H31.97a1.974,1.974,0,0,0,.7.025h1.656a0.631,0.631,0,0,1,.3-0.1v0.1h1.681c0.07-.031-0.019-0.053.125-0.075V21.247h0.05a0.17,0.17,0,0,1,.1-0.025,0.354,0.354,0,0,1,.025-0.125,0.435,0.435,0,0,1-.452-0.249,0.168,0.168,0,0,1-.025-0.1,0.843,0.843,0,0,1,.5-0.175,0.779,0.779,0,0,1-.1-0.673,0.767,0.767,0,0,1,.878-0.449,5.676,5.676,0,0,1,.025,1.322,1.35,1.35,0,0,1-.376.025c0,0.235.043,0.1,0.126,0.2a0.382,0.382,0,0,0-.025.175,0.51,0.51,0,0,1,.125.15h0.126V21.4A3.917,3.917,0,0,1,39,21.571c0.13,0.054.28,0.177,0.4,0.224l0.075-.025c0.075,0.039.119,0.149,0.2,0.2a3.738,3.738,0,0,0-.326.623,0.306,0.306,0,0,0-.226.249,1.969,1.969,0,0,0,.427.324V23.142c0.069-.012.03,0.014,0.05,0.05a0.884,0.884,0,0,1,.125.224,0.275,0.275,0,0,0-.125.05,1.394,1.394,0,0,1,.151.175,0.58,0.58,0,0,0,.1.349,0.17,0.17,0,0,0,.1.025l0.05,0.3-0.126-.025v0.174a0.635,0.635,0,0,1-.025.424,0.522,0.522,0,0,0,.125.05,0.591,0.591,0,0,1-.1.324,0.137,0.137,0,0,0-.1-0.075,0.871,0.871,0,0,1-.226.5,0.7,0.7,0,0,1,.05.15l-0.126.224a0.191,0.191,0,0,0-.125-0.05,1.662,1.662,0,0,0-.126.2c-0.1.125-.25,0.02-0.276,0.249,0.043,0.1-.1.173-0.2,0.2a0.314,0.314,0,0,0-.025-0.1H38.67a0.819,0.819,0,0,0-.4.4c0,0.046.024,0.022-.025,0.05a0.351,0.351,0,0,1-.176.125,0.1,0.1,0,0,0-.075-0.1v0.025a2.973,2.973,0,0,0-.4.249,0.738,0.738,0,0,1,0,.15,0.248,0.248,0,0,1-.2.125,0.287,0.287,0,0,1-.05-0.075,0.707,0.707,0,0,0-.452.4c0.031,0.039.016,0.013,0,.05l-0.2.15a0.358,0.358,0,0,0-.025-0.125h-0.05a0.819,0.819,0,0,0-.4.4c0,0.046.024,0.022-.025,0.05a0.351,0.351,0,0,1-.176.125V28.529a0.193,0.193,0,0,0-.075-0.075,1.064,1.064,0,0,0-.4.349c-0.031.061,0.018,0.034,0,.075a0.693,0.693,0,0,1-.226.175,0.354,0.354,0,0,0-.025-0.125,0.707,0.707,0,0,0-.452.4c0.031,0.039.016,0.013,0,.05l-0.2.15c-0.012-.09-0.007-0.091-0.075-0.125a1.255,1.255,0,0,0-.5.424l-0.251.05V29.751H33.777a1.406,1.406,0,0,1-.552.1c-0.08.133-.118,0.13-0.376,0.125V29.95a0.179,0.179,0,0,0,.05-0.1H32.271a0.264,0.264,0,0,0-.05.125H31.895V29.95a0.177,0.177,0,0,0,.05-0.1H31.317a0.263,0.263,0,0,0-.05.125h-0.3l0.025-.125H30.364a0.263,0.263,0,0,0-.05.125h-0.3l0.025-.125h-0.6c-0.085.129-.115,0.129-0.376,0.125v-0.05a0.127,0.127,0,0,0,.025-0.075h-0.6c-0.08.133-.118,0.13-0.376,0.125V29.95a0.177,0.177,0,0,0,.05-0.1h-0.6a0.264,0.264,0,0,0-.05.125H27.227l0.025-.125H26.7a0.151,0.151,0,0,1-.05.05v0.075H26.374v-0.05A0.127,0.127,0,0,0,26.4,29.85H25.847c-0.048.142-.092,0.13-0.326,0.125V29.95a0.177,0.177,0,0,0,.05-0.1H25.019a0.264,0.264,0,0,0-.05.125H24.693l0.025-.125H24.166a0.264,0.264,0,0,0-.05.125H23.839v-0.05a0.127,0.127,0,0,0,.025-0.075H23.312c-0.076.151-.053,0.131-0.326,0.125V29.95a0.177,0.177,0,0,0,.05-0.1H22.459c-0.048.142-.092,0.13-0.326,0.125V29.95a0.168,0.168,0,0,0,.025-0.1H21.606a0.264,0.264,0,0,0-.05.125H21.28L21.3,29.85H20.753a0.264,0.264,0,0,0-.05.125H20.4V29.95a0.177,0.177,0,0,0,.05-0.1H19.875c-0.076.151-.053,0.131-0.326,0.125v-0.05a0.127,0.127,0,0,0,.025-0.075H19.021a0.264,0.264,0,0,0-.05.125H18.7l0.025-.125H18.168a0.264,0.264,0,0,0-.05.125H17.842l0.025-.125H17.315a0.264,0.264,0,0,0-.05.125H16.989V29.95a0.167,0.167,0,0,0,.025-0.1H16.487a0.264,0.264,0,0,0-.05.125H16.161l0.025-.125H15.634a0.264,0.264,0,0,0-.05.125H15.307v-0.05a0.127,0.127,0,0,0,.025-0.075H14.78c-0.04.143-.079,0.132-0.3,0.125L14.5,29.85H13.952a0.264,0.264,0,0,0-.05.125H13.626v-0.05a0.127,0.127,0,0,0,.025-0.075H13.1c-0.085.129-.115,0.129-0.376,0.125v-0.05a0.127,0.127,0,0,0,.025-0.075H12.12a0.264,0.264,0,0,0-.05.125H11.744V29.95a0.177,0.177,0,0,0,.05-0.1H11.167c-0.08.133-.118,0.13-0.376,0.125v-0.05a0.127,0.127,0,0,0,.025-0.075H10.188a0.509,0.509,0,0,0-.05.125h-0.3l0.025-.125H9.235a0.263,0.263,0,0,0-.05.125H8.858V29.95a0.178,0.178,0,0,0,.05-0.1H8.281c-0.085.129-.115,0.129-0.376,0.125v-0.05A0.127,0.127,0,0,0,7.93,29.85a1.423,1.423,0,0,0-.6,0c-0.062.03-.039,0.044-0.1,0.075-0.074-.05-0.2-0.047-0.276-0.1a0.136,0.136,0,0,0,.075-0.1,2.989,2.989,0,0,0-.627-0.2V29.6a0.415,0.415,0,0,1-.3-0.15,0.224,0.224,0,0,0,.075-0.075c-0.178-.044-0.36-0.2-0.527-0.224a0.156,0.156,0,0,0-.125.075,0.6,0.6,0,0,1-.3-0.1V29.1A0.136,0.136,0,0,0,5.295,29a2.829,2.829,0,0,0-.627-0.2,0.274,0.274,0,0,1-.05.075,0.722,0.722,0,0,1-.251-0.15,0.223,0.223,0,0,0,.075-0.075H4.417a1.316,1.316,0,0,0-.577-0.225,0.164,0.164,0,0,1-.125.075c-0.062-.054-0.166-0.068-0.226-0.125a0.136,0.136,0,0,0,.075-0.1c-0.187-.043-0.354-0.194-0.527-0.224-0.138-.024-0.2.164-0.427-0.05a0.136,0.136,0,0,0,.1-0.075,1.759,1.759,0,0,0-.627-0.224,0.109,0.109,0,0,1-.075.075,1.184,1.184,0,0,1-.251-0.15,0.109,0.109,0,0,0,.075-0.075,2.812,2.812,0,0,0-.452-0.274c-0.1-.032-0.146.063-0.176,0.025a0.708,0.708,0,0,1-.2-0.2,0.1,0.1,0,0,0,.1-0.075,1.072,1.072,0,0,1-.351-0.424c-0.1.006-.114,0.047-0.151-0.025a0.882,0.882,0,0,1-.125-0.224A0.362,0.362,0,0,0,.6,26.334a2.313,2.313,0,0,0-.226-0.549,0.171,0.171,0,0,0-.1-0.025,1.087,1.087,0,0,1-.025-0.274V25.461l0.125,0.025a3.24,3.24,0,0,0,0-.623,0.135,0.135,0,0,1-.1-0.075,1.136,1.136,0,0,0,.1-0.249,0.268,0.268,0,0,0,.125.05,2.883,2.883,0,0,0,.075-0.673H0.652V23.84c0.276-.054.185-0.723,0.176-1.047a0.56,0.56,0,0,0-.3-0.2l-0.075.274H0.427V22.843a1.743,1.743,0,0,1-.075-0.274C0.265,22.4.2,22.579,0.2,22.195c0-.026.013-0.045,0.025-0.125H0.2c-0.039.048-.062,0.069-0.1,0.05a0.21,0.21,0,0,1-.05-0.2,3.551,3.551,0,0,0,0-.823A0.837,0.837,0,0,0,.2,20.848H0.075V20.8c0.173-.008.149-0.065,0.326-0.075a0.1,0.1,0,0,0,.1.075,0.234,0.234,0,0,1,.2-0.224,0.219,0.219,0,0,0,.125.025V20.224a0.635,0.635,0,0,0,.452-0.15c0.067,0.032.108,0.072,0.176,0.1v-0.1l0.4,0.025V20.075H1.882c0-.1-0.014-0.136.05-0.175a0.383,0.383,0,0,0,.05.2,3.409,3.409,0,0,0,.954-0.025H3.287L3.312,20l0.125,0.025C3.5,20,3.418,19.97,3.563,19.95l0.025,0.075A11.424,11.424,0,0,0,4.893,20a2.03,2.03,0,0,0,.2-0.125c0.026-.008.123,0.044,0.176,0.05a0.12,0.12,0,0,1,.025-0.075,0.17,0.17,0,0,1,.1-0.025A1.26,1.26,0,0,0,6.55,19.8a0.731,0.731,0,0,0,.2.1c0-.1-0.012-0.112.05-0.15,0.066,0.144.13,0.16,0.351,0.15a0.613,0.613,0,0,1,.276-0.025l0.1-.125a0.452,0.452,0,0,0,.4.1l0.025-.075H8.482v-0.1H8.557a0.12,0.12,0,0,0,.025.075c0.128-.1.383-0.044,0.5-0.125l0.025-.1A2.544,2.544,0,0,1,9.887,19.5c0.031-.133.1-0.264,0.125-0.349a1.615,1.615,0,0,1,.477.249l0.2,0.274h0.427a0.837,0.837,0,0,1,.477-0.025,1.826,1.826,0,0,1,.3-0.05,0.5,0.5,0,0,0,.176.025,1.7,1.7,0,0,1,.376-0.075,0.817,0.817,0,0,1,.075-0.2c-0.061-.056-0.065-0.005-0.075-0.125a0.223,0.223,0,0,0,.075-0.075c-0.069-.04-0.063-0.022-0.075-0.125a0.223,0.223,0,0,0,.075-0.075c-0.069-.04-0.063-0.022-0.075-0.125a0.446,0.446,0,0,1,.251-0.05,0.265,0.265,0,0,1,.2-0.075V11.072A5.232,5.232,0,0,1,12.949,10a0.09,0.09,0,0,1,.025.05A1.793,1.793,0,0,1,13,10.7v8Zm8.883-6.758a2.914,2.914,0,0,0,.025.4,2.971,2.971,0,0,1-.4-0.025,0.623,0.623,0,0,0-.025.2,0.127,0.127,0,0,0-.025.075h0.477a0.335,0.335,0,0,1,.125-0.125,0.291,0.291,0,0,1,.125.075,0.284,0.284,0,0,0,.2-0.075,2.487,2.487,0,0,1,.251.075,0.15,0.15,0,0,1,.176-0.15,0.765,0.765,0,0,0,.075.15l0.125,0.025v0.025l0.151,0.4v0.05a0.394,0.394,0,0,0-.075.125H22.961v0.05a0.344,0.344,0,0,0,.05.3,1.339,1.339,0,0,0-.1.125H22.76a0.37,0.37,0,0,0-.025.224,0.532,0.532,0,0,1,.025.249,0.574,0.574,0,0,1,.3.1l0.979,0.175V14.264h0.151V13.816c-0.037-.066-0.11-0.028-0.075-0.125a0.691,0.691,0,0,0,.176-0.524,2.841,2.841,0,0,1-.2-0.324,4.57,4.57,0,0,0-.577-0.648H23.036a0.5,0.5,0,0,1,.025-0.175H22.936v0.1H22.861V11.945H22.334v0.1H22.183v-0.1h-0.3Z" transform="translate(-0.031)"/>
</svg>
