<?xml version="1.0" encoding="utf-8"?>
<!-- Generator: Adobe Illustrator 16.0.0, SVG Export Plug-In . SVG Version: 6.00 Build 0)  -->
<!DOCTYPE svg PUBLIC "-//W3C//DTD SVG 1.1//EN" "http://www.w3.org/Graphics/SVG/1.1/DTD/svg11.dtd">
<svg version="1.1" id="Layer_1" xmlns="http://www.w3.org/2000/svg" xmlns:xlink="http://www.w3.org/1999/xlink" x="0px" y="0px"
	 width="40px" height="40px" viewBox="0 0 40 40" enable-background="new 0 0 40 40" xml:space="preserve">
<path id="jp_type_61_ico" fill="#FFFFFF" d="M1.146,6.5c0.012,0.013,0.021,0.029,0.023,0.046H1.146V6.5z M1.467,6.848
	c0.109,0.066,0.197,0.163,0.252,0.278H1.7V7.1C1.599,7.042,1.518,6.954,1.467,6.848z M0,7.034c0.041,0.007,0.075,0.033,0.092,0.07
	c0.01,0.005,0.018,0.014,0.023,0.023C0.064,7.115,0.022,7.081,0,7.034z M7.175,12.81c0.009-0.085,0.009-0.17,0-0.255h0.16
	c0.081,0.027,0.167,0.035,0.252,0.023v-0.093H7.84c-0.002,0.032-0.01,0.063-0.023,0.093H9.33v-0.093h0.252
	c-0.003,0.032-0.01,0.063-0.023,0.093h0.275c0.05-0.022,0.105-0.03,0.16-0.023c0.024,0.122,0.032,0.247,0.023,0.371
	c0.039,0.104,0.054,0.215,0.046,0.325c-0.061,0.007-0.048,0.019-0.046,0.139c-0.062-0.013-0.126-0.005-0.183,0.023h0.023
	c0.18,0.043,0.367,0.051,0.55,0.023c0-0.087,0.016-0.173,0.046-0.255c0.037-0.014,0.076-0.022,0.115-0.023v0.023h0.022
	c0.007,0.142,0.009,0.243,0.16,0.255c0.24-0.061,0.49-0.069,0.733-0.023c0.027-0.138,0.035-0.278,0.023-0.418
	c0.022-0.051,0.03-0.107,0.023-0.162H11.6c0.007,0.186,0.015,0.371,0.023,0.557c0.037,0.014,0.076,0.021,0.115,0.023
	c0.197-0.046,0.4-0.054,0.6-0.023c0.002-0.018,0.011-0.034,0.023-0.046V13.3c-0.167-0.05-0.286-0.197-0.3-0.371h0.206
	c0.084-0.169,0.236-0.255,0.321-0.418l0.069,0.023v-0.07c-0.046-0.031-0.072-0.083-0.069-0.139c0.256-0.177,0.494-0.378,0.711-0.6
	l-0.023-0.162c0.052-0.016,0.106-0.024,0.161-0.023c0.081-0.073,0.157-0.15,0.229-0.232c0.206-0.074,0.428-0.089,0.642-0.046
	c0.041,0.039,0.087,0.07,0.138,0.093c0.061,0.091,0.13,0.176,0.206,0.255c0.036-0.02,0.08-0.02,0.115,0
	c0.019-0.113,0.025-0.157,0.16-0.162c0.036,0.016,0,0,0.069,0v-0.563c-0.01-0.005-0.018-0.013-0.023-0.022
	c-0.082,0.036-0.167,0.067-0.252,0.093l-0.023-0.046c0.019-0.012,0.034-0.027,0.046-0.046h-0.326
	c-0.089,0.028-0.183,0.036-0.275,0.022v0.209H14.1v-0.21h-0.3v-0.209c-0.161,0-0.706,0.038-0.734,0.023
	c0.058-0.034,0.026,0.005,0.046-0.07c-0.051-0.017-0.105-0.024-0.16-0.023c-0.035,0.019-0.075,0.027-0.115,0.023v-0.162h-0.023
	v-0.023h-0.069v-0.209h0.069l0.023-0.232c0.217,0.01,0.37-0.018,0.6-0.023V9.887c0.086-0.04,0.181-0.056,0.275-0.046
	c0.029,0.041,0.045,0.089,0.046,0.139c0.661,0,1.39,0.022,2.086,0.023c0.018-0.061,0.025-0.123,0.023-0.186h0.115L16,10.073
	c0.064,0.032,0.135,0.047,0.206,0.046c0.207,0.129,0.773-0.081,1.009,0.023c0.412,0.103,0.839,0.134,1.261,0.093
	c0.77,0,1.537,0,2.292,0v0.209h-2.911v0.093c-0.032-0.002-0.063-0.01-0.092-0.023c0.004,0.04-0.004,0.081-0.023,0.116v-0.117H17.49
	c0.006,0.048-0.002,0.096-0.023,0.139v-0.139c-0.428-0.024-0.858-0.009-1.284,0.046v0.023c0.093,0.012,0.094,0,0.115,0.093h0.5
	v0.162c-0.337,0-0.567,0.045-0.871,0.046c-0.003,0.11,0.012,0.22,0.046,0.325c-0.092-0.014-0.187-0.006-0.275,0.023
	c0.077,0.083,0.116,0.339,0.183,0.394c0.048,0.04,0.128,0.011,0.183,0.046c0.023,0.035,0.039,0.075,0.046,0.116
	c0.048,0.028,0.093,0.059,0.137,0.093c0.03,0.055-0.052,0.046,0,0.093c0.052,0.047,0.16,0.066,0.229,0.116
	c0.306,0.226,0.543,0.531,0.688,0.882h0.115c0.012,0.112,0.061,0.218,0.137,0.3v-0.159c0.061-0.009,0.122-0.009,0.183,0
	c0.031,0.105,0.039,0.216,0.023,0.325c0.26,0,0.521,0.015,0.779,0.046c0.217,0.067,0.439,0.114,0.665,0.139v-0.371h0.6v0.093
	c-0.169,0.048-0.172,0.168-0.16,0.395c0.16,0.02,0.311,0.084,0.435,0.186c0.067,0.028,0.066-0.027,0.115,0
	c0.049,0.027-0.009,0.042,0.115,0.046c0.207,0.152,0.479,0.179,0.711,0.07l0.206,0.07v0.023c0.043,0.043,0.081,0.089,0.115,0.139
	l0.046,0.228h0.115c0.167-0.085,0.344-0.147,0.526-0.186c0.004-0.075,0.027-0.147,0.069-0.209c0.073-0.026,0.151-0.034,0.229-0.023
	l0.045,0.232c0.43,0.086,0.813,0.325,1.078,0.673c0.027,0.029,0.133,0.229,0.138,0.231l2.45,0.097
	c0.629,0.084,1.267,0.099,1.899,0.046h0.527c0.235,0.029,0.474,0.037,0.711,0.022h5.5v-0.093h3.438
	c0.019,0.075-0.012,0.035,0.045,0.07c0.134-0.042,0.274-0.058,0.414-0.046c0,0,1.115-0.011,1.215,0.023
	c0.246,0.098,0.366,0.377,0.269,0.624c-0.039,0.098-0.109,0.18-0.2,0.235c-0.157,0.068-0.33,0.092-0.5,0.07
	c-0.413,0.015-0.826,0-1.238-0.046v0.07h-3.437V16.2h-3.69c-0.603-0.047-1.209-0.039-1.811,0.023h-3.049
	c-0.064,0.034-0.135,0.057-0.206,0.07c0.009,0.063,0.001,0.127-0.022,0.186c0.01-0.066-0.007-0.133-0.047-0.186l-1.191,0.441
	c-0.207,0.012-0.41,0.059-0.601,0.139h0.023c0.027,0.018,0.06,0.025,0.092,0.023v0.093h0.022c0.139-0.055,0.289-0.071,0.436-0.05
	c0.006,0.01,0.014,0.018,0.023,0.023v0.046c-0.051,0.025-0.091,0.065-0.115,0.116h0.023c0.134,0.035,0.274,0.043,0.412,0.023
	c0.086,0.008,0.174-0.101,0.321-0.116c0.098,0.069,0.189,0.147,0.274,0.231c0.023,0.132,0.016,0.267-0.022,0.395
	c0.238,0.236,0.269,0.033,0.526,0.093c0.049,0.035,0.103,0.059,0.16,0.07c0.041-0.038,0.088-0.069,0.139-0.093
	c0.104,0.028,0.199,0.084,0.275,0.162c0.086,0.01,0.162,0.063,0.205,0.139c0.009,0.059,0.033,0.115,0.069,0.162
	c0.117-0.07,0.256-0.095,0.39-0.07v-0.277h0.898v0.232c0.207-0.012,0.414-0.004,0.619,0.023v0.51
	c-0.06,0.118-0.105,0.242-0.139,0.371c0.344,0.027,0.664,0.185,0.895,0.44c0.148,0.071,0.302,0.134,0.458,0.185
	c0.271,0.158,0.505,0.372,0.688,0.627c0.17,0.212,0.295,0.457,0.366,0.719c-0.243,0.14-0.466,0.312-0.665,0.51
	c0.041,0.111,0.049,0.232,0.023,0.348c-0.032,0,0.009-0.019-0.023-0.022c-0.018-0.045-0.023,0.046-0.023,0.046
	c0.03,0.258-0.026,0.519-0.159,0.742c-0.067-0.01-0.029-0.038-0.069,0.023c-0.023,0.143-0.106,0.27-0.229,0.348
	c-0.17,0.174-0.362,0.322-0.573,0.44c-0.097,0.037-0.188,0.084-0.274,0.14c-0.033-0.011-0.064-0.025-0.093-0.047
	c-0.154,0.19-0.364,0.328-0.6,0.395c-0.012-0.019-0.027-0.035-0.046-0.046c-0.158,0.175-0.354,0.31-0.573,0.394
	c-0.028-0.02-0.06-0.035-0.093-0.046c0.01,0.052,0.021,0.025,0,0.07c-0.179,0.161-0.402,0.267-0.641,0.3
	c-0.143,0.156-0.325,0.269-0.527,0.325c-0.437,0.295-0.928,0.499-1.444,0.6c-0.019-0.075,0.011-0.034-0.046-0.069v0.069h-0.684
	c-0.019-0.075,0.012-0.034-0.045-0.069v0.069H23.5c0-0.024-0.008-0.05-0.023-0.069c-0.225,0.095-0.472,0.119-0.711,0.069
	c0-0.024-0.008-0.05-0.022-0.069c-0.225,0.095-0.473,0.119-0.711,0.069c0-0.024-0.008-0.05-0.023-0.069
	c-0.231,0.111-0.501,0.111-0.733,0v0.069h-0.69c-0.019-0.075,0.011-0.034-0.046-0.069v0.069h-0.688c0-0.024-0.008-0.05-0.023-0.069
	c-0.225,0.095-0.473,0.119-0.711,0.069c0-0.024-0.008-0.05-0.023-0.069c-0.145,0.084-0.317,0.109-0.481,0.069
	c-0.291,0-0.557,0.009-0.94,0c-0.019-0.075,0.011-0.034-0.046-0.069v0.069H16.94c-0.019-0.075,0.011-0.034-0.046-0.069v0.069h-0.688
	c0-0.024-0.008-0.05-0.023-0.069c-0.225,0.095-0.473,0.119-0.711,0.069c0-0.024-0.008-0.05-0.023-0.069
	c-0.129,0.082-0.288,0.107-0.436,0.069c-0.324,0-0.619,0.007-0.986,0c-0.019-0.075,0.011-0.034-0.046-0.069v0.069H13.3
	c0-0.024-0.007-0.05-0.023-0.069c-0.224,0.095-0.472,0.119-0.711,0.069c0-0.024-0.008-0.05-0.023-0.069
	c-0.225,0.095-0.472,0.119-0.711,0.069c0-0.024-0.008-0.05-0.023-0.069c-0.232,0.111-0.502,0.111-0.734,0v0.069h-0.691
	c-0.019-0.075,0.011-0.034-0.046-0.069v0.069H9.65c0-0.024-0.008-0.05-0.023-0.069c-0.225,0.095-0.472,0.119-0.711,0.069
	c0-0.024-0.008-0.05-0.023-0.069C8.668,25.495,8.42,25.52,8.182,25.47c0-0.024-0.008-0.05-0.023-0.069
	c-0.224,0.1-0.473,0.123-0.711,0.069c-0.207-0.013-0.413-0.013-0.619,0c-0.13,0.013-0.262,0.005-0.39-0.022
	c-0.149-0.064-0.302-0.118-0.458-0.162c0-0.025-0.008-0.05-0.023-0.07C5.712,25.177,5.484,25.066,5.3,24.9
	c-0.255-0.027-0.495-0.132-0.688-0.301v0.047h-0.05v-0.028c-0.216-0.063-0.42-0.165-0.6-0.3c-0.038,0.008-0.077,0.008-0.115,0
	c-0.063-0.027-0.515-0.224-0.55-0.256v-0.069c-0.053,0.008-0.107,0.008-0.16,0c-0.156-0.099-0.324-0.177-0.5-0.232v-0.094H2.613
	c-0.134,0.025-0.271-0.019-0.367-0.116c-0.363-0.115-0.667-0.365-0.848-0.699c0.012-0.014,0.021-0.029,0.023-0.047
	c-0.03,0.009-0.062,0.009-0.092,0c-0.159-0.203-0.233-0.461-0.206-0.719c-0.06-0.121-0.098-0.252-0.114-0.386v0.046H0.94V21.7
	c-0.105,0.026-0.212,0.042-0.321,0.046c-0.086-0.123-0.103-0.28-0.046-0.418h0.069c0.011,0.084,0.006,0.084,0.069,0.115
	c0.03,0.012,0.063,0.012,0.092,0c0.025-0.033,0.041-0.073,0.046-0.115c-0.012-0.013-0.021-0.029-0.023-0.046
	c-0.07,0.01-0.141,0.002-0.206-0.023c-0.012-0.015-0.02-0.032-0.02-0.051c0.042-0.026,0.081-0.058,0.115-0.093
	c0.151,0.031,0.307,0.031,0.458,0c0.044-0.063,0.075-0.135,0.092-0.209H1.238c-0.138,0.003-0.276-0.005-0.413-0.023v-0.556H0.8
	l-0.436,0.487c-0.069,0.179-0.115,0.366-0.138,0.557H0.183v-0.023c-0.077-0.031-0.066-0.037-0.069-0.14
	c0.1-0.14,0.112-0.323,0.206-0.464c0.213-0.215,0.405-0.449,0.573-0.7h0.07V19.77H0.894C0.842,19.7,0.76,19.678,0.711,19.607
	c0.059-0.032,0.107-0.08,0.138-0.14c-0.013-0.034-0.046-0.19-0.069-0.3c-0.222-0.016-0.371-0.059-0.6-0.07
	c0.019-0.081,0.05-0.159,0.092-0.231L0.41,18.24H0.39v-0.024c-0.031-0.003-0.062-0.011-0.09-0.024
	c0.003,0.056-0.023,0.108-0.069,0.14v-0.022c0.05-0.223,0.088-0.447,0.115-0.674c0.091,0.03,0.191,0.003,0.254-0.068
	c0.186,0.156,0.422,0.238,0.665,0.231v-0.022h0.019c0.002-0.032,0.01-0.064,0.023-0.094c-0.064,0.013-0.125-0.029-0.138-0.093
	l0.046-0.022c0.069-0.005,0.138-0.005,0.206,0c0.02-0.037,0.035-0.076,0.046-0.116c-0.109-0.021-0.1-0.06-0.092-0.187
	c0.013-0.012,0.022-0.028,0.025-0.046c0.223,0.007,0.244-0.071,0.229-0.3c0.423,0.029,0.847-0.002,1.261-0.093
	c0.019,0.075-0.011,0.034,0.046,0.069c0.024-0.124,0.126-0.218,0.252-0.231c0.283-0.028,0.567-0.021,0.848,0.022
	c0.027,0.027,0.05,0.06,0.069,0.094c0.03,0.082,0.03,0.172,0,0.255L3.92,17.1c0.041,0.028,0.079,0.06,0.115,0.094
	c0.067-0.046,0.149-0.063,0.229-0.047c-0.1,0.084-0.2,0.049-0.206,0.232C4.067,17.4,4.065,17.451,4.08,17.5h0.046v-0.143
	l0.413-0.023c0.029-0.033,0.06-0.063,0.092-0.093H5.02c0.039,0.021,0.07,0.054,0.092,0.093c0.077,0.021,0.159-0.006,0.206-0.07
	c0.224-0.002,0.447,0.021,0.665,0.07c0.021-0.039,0.053-0.071,0.092-0.093h0.39c0.033,0.029,0.063,0.06,0.092,0.093
	c0.282,0.025,0.566,0.025,0.848,0c0.029-0.033,0.062-0.064,0.095-0.093c0.152-0.029,0.31-0.021,0.458,0.022l0.023,0.07
	c0.123,0.068,0.181-0.076,0.229-0.093c0.16-0.03,0.325-0.022,0.481,0.022l0.023,0.07c0.117,0.063,0.18-0.076,0.229-0.093
	c0.152-0.029,0.31-0.021,0.458,0.022l0.023,0.07h0.433V17.5c0.235-0.005,0.427-0.068,0.711-0.07v-0.119
	c0.034-0.019,0.065-0.042,0.092-0.069c0.153-0.007,0.306,0.001,0.458,0.022l0.023,0.07c0.017,0.027,0.025,0.061,0.023,0.093
	c0.363,0,0.58,0.075,0.848,0.07V17.45c-0.023-0.038-0.022-0.148-0.046-0.187c-0.41-0.322-0.876-0.566-1.375-0.719l-3.622-0.139
	v-0.371H6.923c-0.02-0.015-0.044-0.023-0.069-0.023v0.348H5.822v-0.7c-0.034-0.01-0.06-0.036-0.069-0.07H5.731
	c0.011,0.078,0.003,0.158-0.023,0.232c-0.006-0.237,0.025-0.473,0.092-0.7c0.01-0.063,0.001-0.127-0.023-0.186
	c0.003-0.17-0.004-0.341-0.023-0.51c-0.009-0.035,0.083-0.062,0.046-0.139c-0.024-0.05-0.053,0.018-0.069-0.116
	c0.074-0.019,0.035,0.011,0.069-0.046c-0.088-0.025-0.09-0.04-0.092-0.155c0.045-0.133,0.183-0.213,0.321-0.186
	c0.281,0.045,0.567,0.045,0.848,0v-0.046c-0.294-0.205-0.538-0.475-0.711-0.789c-0.135-0.158-0.289-0.299-0.458-0.418
	c-0.231-0.248-0.476-0.481-0.734-0.7L4.63,11.465c-0.718-0.549-1.274-1.281-1.994-1.833c-0.193-0.147-0.31-0.408-0.5-0.557
	C1.875,8.867,1.63,8.642,1.4,8.4L1.148,8.122c-0.191-0.135-0.36-0.299-0.5-0.487h0.04c0.182,0.232,0.398,0.435,0.642,0.6l0.275,0.3
	c0.359,0.274,0.642,0.611,1.009,0.882c0.108,0.108,0.208,0.225,0.3,0.348c0.137,0.133,0.282,0.257,0.436,0.371l0.344,0.371
	c0.203,0.157,0.394,0.327,0.573,0.51l0.203,0.239c0.349,0.277,0.678,0.578,0.986,0.9c0.192,0.207,0.399,0.401,0.619,0.58L6.212,12.9
	c0.096,0.029,0.188,0.068,0.275,0.116c0.117,0.088,0.38,0.441,0.481,0.487h0.5V13.46c-0.07-0.059-0.162-0.084-0.252-0.07
	c-0.02-0.056-0.042-0.11-0.069-0.162c-0.042-0.008-0.037,0.014-0.046-0.07c0-0.182-0.085-0.353-0.229-0.464
	c-0.341-0.351-0.665-0.718-1.009-1.067c-0.336-0.327-0.65-0.675-0.94-1.044l-0.252-0.232c-0.197-0.196-0.381-0.405-0.55-0.626
	C4.008,9.608,3.887,9.5,3.759,9.4C3.513,9.145,3.283,8.873,3.071,8.588l-0.321-0.3c-0.2-0.266-0.443-0.476-0.642-0.742
	C1.984,7.448,1.876,7.332,1.788,7.2h0.023c0.125,0.151,0.263,0.291,0.413,0.418c0.221,0.235,0.421,0.484,0.642,0.719l0.5,0.487
	c0.153,0.2,0.382,0.333,0.527,0.534c0.151,0.212,0.318,0.413,0.5,0.6l0.3,0.278c0.354,0.435,0.737,0.846,1.146,1.23
	c0.172,0.175,0.333,0.361,0.481,0.557l0.413,0.394C6.824,12.601,6.982,12.741,7.175,12.81z M0.321,7.335
	C0.44,7.413,0.548,7.506,0.642,7.613v0.022C0.509,7.567,0.398,7.463,0.321,7.335z M17.765,10.629
	c0.012,0.013,0.02,0.029,0.023,0.046h-0.023V10.629z M17.398,10.675h0.046V10.7c-0.017-0.003-0.032-0.012-0.044-0.024L17.398,10.675
	z M17.811,10.675h0.046V10.7h-0.046V10.675L17.811,10.675z M17.169,10.698c0.055-0.008,0.11,0,0.16,0.022
	c-0.054,0.008-0.11,0.001-0.16-0.021V10.698z M17.902,10.698c0.055-0.008,0.11,0,0.16,0.022c-0.055,0.009-0.111,0.001-0.162-0.021
	L17.902,10.698z M17.123,10.721h0.046v0.023h-0.023v0.023c-0.012-0.012-0.02-0.028-0.023-0.045V10.721z M18.109,10.744
	c0.028,0.042,0.028,0.097,0,0.139V10.744L18.109,10.744z M17.1,10.767c0.027,0.034,0.027,0.082,0,0.116v-0.114V10.767z
	 M17.123,10.883h0.986v0.046c-0.329,0.035-0.661,0.02-0.986-0.044V10.883z M14.281,10.999h0.046v0.023
	C14.31,11.02,14.293,11.012,14.281,10.999L14.281,10.999z"/>
</svg>
