<?xml version="1.0" encoding="utf-8"?>
<!-- Generator: Adobe Illustrator 16.0.0, SVG Export Plug-In . SVG Version: 6.00 Build 0)  -->
<!DOCTYPE svg PUBLIC "-//W3C//DTD SVG 1.1//EN" "http://www.w3.org/Graphics/SVG/1.1/DTD/svg11.dtd">
<svg version="1.1" id="Layer_1" xmlns="http://www.w3.org/2000/svg" xmlns:xlink="http://www.w3.org/1999/xlink" x="0px" y="0px"
	 width="39.969px" height="40px" viewBox="0 0 39.969 40" enable-background="new 0 0 39.969 40" xml:space="preserve">
<path id="jp_type_3_chi_nu_75cm_type_5_ico" fill="#FFFFFF" d="M17.183,8.516c0.165,0.02,0.287,0.092,0.455,0.117
	c-0.002,0.203-0.017,0.405-0.046,0.606c0.545-0.042,1.093-0.034,1.637,0.022c0.019,0.036,0.027,0.077,0.023,0.117c0.38,0,0.64,0,1,0
	c0.136-0.011,0.273-0.011,0.409,0c0.261-0.016,0.522,0.016,0.772,0.093c0.02,0.036,0.027,0.077,0.023,0.117
	C21.3,9.7,21.122,9.779,20.934,9.822v-0.07h-0.18v0.07h-1.342v-0.07h-0.364v0.07h-0.227v-0.07l-0.7,0.023
	c-0.021,0.037-0.036,0.076-0.046,0.117c0.354,0.246,0.674,0.536,0.955,0.863c0.026,0.326,0.019,0.654-0.023,0.979
	c-0.265,0.113-0.555,0.153-0.841,0.117c-0.061,0.114-0.084,0.245-0.068,0.373c0.042,0.121,0.073,0.246,0.091,0.373
	c0.027,0.064,0.113,0.13,0.136,0.187c-0.007,0.11,0.009,0.221,0.046,0.326h0.182c0.101-0.048,0.218-0.048,0.318,0
	c0,0.025,0.008,0.05,0.023,0.07c0.035,0.02,0.075,0.027,0.114,0.023c0.014-0.026,0.039-0.044,0.068-0.047
	c0.071,0.141,0.178,0.104,0.3,0.07c0.064-0.003,0.127,0.014,0.182,0.047c0.041-0.006,0.049-0.034,0.114-0.047v0.023h0.023v0.093
	c0.09,0.024,0.184,0.024,0.273,0c0.024,0.091,0.026,0.09,0.136,0.093l1.455,0.3l0.047,0.28h1.299
	c0.215-0.062,0.439-0.078,0.66-0.047c0.5,0,0.863-0.048,1.343-0.047c0.063,0.059,0.125,0.121,0.182,0.186v0.63
	c-0.077,0.05-0.145,0.114-0.2,0.187h0.273c0.112,0.021,0.227,0.029,0.341,0.023c0.313,0.069,0.69,0,1.022,0.07
	c1.003,0.134,2.016,0.173,3.024,0.117c3.56,0,6.949,0.113,10.438,0.117v0.63c-3.117-0.007-6.053,0.117-9.164,0.117h-3.932
	c-0.018,0.03-0.032,0.061-0.045,0.093l-2.3,0.163v0.093h-2.569v0.023c0.061,0.156,0.092,0.322,0.09,0.49l-0.772,0.326v0.07h-0.271
	v0.07c0.752-0.017,1.492,0.178,2.139,0.56c-0.03,0.058-0.047,0.122-0.046,0.187c0.356,0.1,0.735,0.1,1.092,0
	c0.114-0.014,0.229-0.006,0.341,0.022c0.309,0.071,0.672,0,0.91,0.048c0.283-0.072,0.578-0.08,0.864-0.023
	c0.095,0.203,0.119,0.434,0.067,0.652c-0.016,0.074-0.066,0.135-0.136,0.164v0.022h0.455c0.046-0.083,0.14-0.095,0.183-0.187h0.022
	v-0.019c-0.171,0.014-0.321-0.11-0.341-0.28c0.042-0.024,0.381-0.154,0.387-0.162c-0.121-0.133-0.165-0.318-0.113-0.49
	c0.137-0.24,0.408-0.371,0.682-0.326v1h-0.024v0.021c-0.084,0.006-0.169-0.002-0.25-0.022v0.14c0.177,0.067,0,0.332,0.5,0.326
	c0.136-0.039,0.279-0.03,0.409,0.023c0.178,0.023,0.352,0.063,0.523,0.117c0.1,0.041,0.205,0.143,0.3,0.187l0.067-0.023
	c0.043,0.023,0.069,0.107,0.114,0.14v0.048c-0.094,0.118-0.162,0.254-0.2,0.399c-0.08,0.051-0.144,0.123-0.182,0.211h0.023
	c0.053,0.095,0.121,0.182,0.199,0.256c0.1,0.05,0.063-0.062,0.114,0.023c0.046,0.042,0.07,0.102,0.067,0.163
	c-0.017,0.017-0.051,0.031-0.067,0.047c0.078,0.11,0.126,0.239,0.138,0.373c0.057,0.101,0.139-0.019,0.158,0.257h-0.095
	c0.022,0.148,0.015,0.299-0.022,0.443c0.041,0.016,0.08,0.039,0.113,0.07c-0.041,0.056-0.048,0.154-0.091,0.209
	c-0.04-0.03-0.037-0.039-0.068-0.022c-0.021,0.068-0.036,0.139-0.046,0.21c-0.041,0.036-0.079,0.075-0.113,0.117
	c-0.056,0.169,0.077,0.159-0.092,0.326v-0.025c-0.019-0.021-0.042-0.036-0.068-0.047c-0.127,0.1-0.23,0.227-0.299,0.373h0.028
	c0.011,0.064-0.013,0.027-0.046,0.047c-0.029,0.039-0.063,0.055-0.091,0.094c-0.029-0.035-0.069-0.061-0.114-0.07
	c-0.124,0.063-0.221,0.17-0.273,0.3c0.006,0.022,0.019,0.009,0,0.022c-0.033,0.035-0.08,0.059-0.113,0.094
	c-0.188-0.079-0.2,0.035-0.387,0.14c0.006,0.048-0.002,0.097-0.023,0.14c-0.04,0.039-0.086,0.07-0.137,0.094
	c-0.003-0.032-0.011-0.064-0.023-0.094c-0.111,0.062-0.218,0.132-0.318,0.211c-0.082,0.109,0.068,0.156-0.158,0.232
	c-0.07-0.109-0.353,0.091-0.364,0.232c0.021,0.041,0.005,0,0,0.048c-0.034,0.041-0.083,0.067-0.136,0.069
	c-0.016-0.018-0.03-0.052-0.047-0.069c-0.078,0.079-0.188,0.112-0.272,0.187c-0.067,0.059-0.015,0.131-0.067,0.163
	c-0.036,0.049-0.083,0.089-0.137,0.117c-0.009-0.084,0.012-0.06-0.045-0.093c-0.075,0.08-0.2,0.109-0.273,0.187
	c-0.072,0.078,0.025,0.166-0.158,0.233c-0.006,0.01-0.014,0.018-0.023,0.023c-0.002-0.033-0.01-0.064-0.023-0.094
	c-0.137,0.049-0.262,0.129-0.363,0.233c-0.028,0.041,0,0.041-0.023,0.069c-0.061,0.037-0.129,0.061-0.199,0.07
	c-0.01-0.084,0.01-0.059-0.047-0.093c-0.092,0.063-0.3,0.024-0.387,0.093h-0.025v0.07h-0.224c0.003-0.032,0.011-0.063,0.022-0.094
	h-0.459c-0.012,0.013-0.027,0.021-0.045,0.023v0.07H23.46v-0.044c0.013-0.013,0.021-0.029,0.022-0.048h-0.455
	c-0.058,0.092-0.171,0.13-0.272,0.094v-0.046c0.013-0.013,0.021-0.029,0.022-0.048h-0.454c-0.059,0.092-0.172,0.13-0.273,0.094
	v-0.023c0.015-0.02,0.022-0.045,0.023-0.07h-0.455c-0.006,0.01-0.014,0.018-0.023,0.023v0.07h-0.226
	c0.002-0.032,0.01-0.063,0.023-0.094h-0.457c-0.012,0.014-0.028,0.021-0.045,0.023v0.07h-0.228v-0.046
	c0.013-0.013,0.021-0.029,0.022-0.048h-0.433c-0.012,0.014-0.028,0.021-0.046,0.023v0.07h-0.2v-0.046
	c0.013-0.013,0.021-0.029,0.023-0.048h-0.413c-0.006,0.01-0.014,0.018-0.023,0.023v0.07h-0.2c0.002-0.032,0.01-0.063,0.023-0.094
	h-0.414c-0.049,0.088-0.155,0.127-0.25,0.094v-0.023c0.015-0.02,0.023-0.045,0.023-0.07h-0.407c-0.006,0.01-0.014,0.018-0.023,0.023
	v0.07h-0.2v-0.046c0.012-0.013,0.021-0.029,0.023-0.048h-0.417c-0.051,0.096-0.045,0.101-0.227,0.094
	c0.003-0.032,0.01-0.063,0.023-0.094h-0.41c-0.05,0.088-0.155,0.127-0.25,0.094v-0.023c0.015-0.02,0.022-0.045,0.023-0.07h-0.41
	c-0.053,0.101-0.059,0.101-0.25,0.094v-0.023c0.015-0.02,0.023-0.045,0.023-0.07h-0.405c-0.006,0.01-0.014,0.018-0.023,0.023v0.07
	h-0.2v-0.094h-0.418c-0.005,0.01-0.014,0.018-0.023,0.023v0.07h-0.2v-0.094h-0.414c-0.005,0.01-0.013,0.018-0.023,0.023v0.07h-0.2
	c0.002-0.032,0.01-0.063,0.023-0.094h-0.437v0.023h-0.022v0.07h-0.2c0.002-0.032,0.01-0.063,0.023-0.094h-0.437v0.023h-0.023v0.07
	h-0.2v-0.046c0.013-0.013,0.021-0.029,0.023-0.048h-0.414v0.023h-0.023v0.07h-0.2v-0.046c0.013-0.013,0.021-0.029,0.023-0.048H12.09
	c-0.041,0.084-0.139,0.125-0.227,0.094v-0.094h-0.387c-0.11,0.052,0,0.09-0.25,0.094v-0.023c0.015-0.02,0.023-0.045,0.023-0.07
	h-0.41v0.023h-0.023v0.07h-0.2v-0.046c0.012-0.013,0.021-0.029,0.023-0.048h-0.414v0.023h-0.023v0.07h-0.2
	c0.003-0.032,0.01-0.063,0.023-0.094H9.588c-0.054,0.101-0.075,0.101-0.273,0.094v-0.023c0.015-0.02,0.023-0.045,0.023-0.07H8.883
	c-0.067,0.078-0.172,0.113-0.273,0.094v-0.023c0.015-0.02,0.023-0.045,0.023-0.07H8.178c-0.067,0.078-0.172,0.113-0.273,0.094
	v-0.046c0.013-0.013,0.021-0.029,0.023-0.048H7.469c-0.012,0.013-0.028,0.021-0.045,0.023v0.07H7.2v-0.046
	c0.012-0.013,0.021-0.029,0.023-0.048H6.746v0.023H6.723v0.07H6.469v-0.023c0.019-0.021,0.034-0.045,0.045-0.07H6.041
	c-0.058,0.092-0.171,0.13-0.273,0.094v-0.023c0.015-0.02,0.023-0.045,0.023-0.07l-0.433-0.022c-0.049,0.017-0.029,0.079-0.114,0.07
	c-0.057-0.015-0.11-0.038-0.159-0.07c0.03-0.04,0.039-0.037,0.023-0.069c-0.12-0.09-0.261-0.146-0.409-0.164
	c-0.026,0.006-0.042,0.063-0.068,0.07l-0.182-0.097v-0.021c0.025-0.014,0.042-0.041,0.045-0.07c-0.138-0.03-0.263-0.146-0.387-0.162
	c-0.088-0.012-0.073,0.063-0.138,0.047c-0.064-0.006-0.122-0.04-0.157-0.094c0.025-0.016,0.042-0.041,0.045-0.07
	c-0.133-0.045-0.263-0.099-0.388-0.163c-0.08-0.021-0.195,0.155-0.3-0.047c0.019-0.013,0.034-0.028,0.045-0.047H3.198
	c-0.115-0.074-0.237-0.137-0.364-0.187c-0.112,0.012-0.212,0.121-0.3-0.047c0.019-0.012,0.034-0.027,0.045-0.047H2.561
	c-0.209-0.116-0.443-0.18-0.682-0.188V24c0.028-0.018,0.051-0.041,0.068-0.07c-0.131-0.033-0.244-0.134-0.364-0.162
	c-0.041-0.021-0.09-0.004-0.109,0.037c-0.002,0.004-0.003,0.008-0.005,0.012c-0.081-0.003-0.159-0.027-0.227-0.07v-0.03
	c0.028-0.017,0.051-0.041,0.068-0.069c-0.109-0.076-0.223-0.145-0.341-0.205c-0.09-0.025-0.1,0.064-0.136,0.022
	c-0.055-0.036-0.101-0.084-0.136-0.14c0.035-0.009,0.062-0.035,0.072-0.07c-0.09-0.131-0.206-0.242-0.341-0.326v0.023
	c-0.023,0.023-0.021-0.023-0.023-0.023c-0.045-0.053-0.077-0.117-0.091-0.186h0.064c-0.011-0.16-0.065-0.314-0.159-0.444
	c-0.018-0.005-0.035-0.013-0.05-0.022c-0.032-0.065-0.047-0.138-0.045-0.211h0.095c0.016-0.146,0.023-0.295,0.023-0.442
	c-0.034-0.019-0.064-0.042-0.091-0.07c0.035-0.057,0.059-0.12,0.068-0.187h0.05c0,0,0.03,0.066,0.045,0.047v-0.024
	c0.065-0.18,0.104-0.368,0.114-0.56c0.025,0,0.049-0.008,0.068-0.023c0.089-0.246,0.112-0.512,0.068-0.77
	c-0.06-0.073-0.138-0.13-0.227-0.163c-0.002,0.072-0.018,0.144-0.045,0.21H0.269v-0.023c-0.022-0.061-0.039-0.122-0.05-0.186
	c-0.035-0.028-0.073-0.052-0.114-0.07v-0.3c-0.1,0.021-0.119,0.011-0.114-0.14c0.017-0.21,0.017-0.421,0-0.631
	c0.05-0.054,0.089-0.117,0.114-0.187c-0.033,0.001-0.065-0.01-0.091-0.03c0.068-0.017,0.135-0.04,0.2-0.069
	c0.03,0.03,0.068,0.075,0.091,0.047c0.041-0.048,0.072-0.103,0.091-0.163l0.159,0.047v-0.3l0.273-0.023l0.023-0.069
	c0.041-0.008,0.083,0,0.118,0.022c0.059,0,0.041-0.038,0.068-0.047l0.3,0.022v-0.166h0.042c-0.006,0.047,0.002,0.096,0.023,0.14
	c0.035,0.019,0.075,0.027,0.114,0.022c0.327,0.014,0.654-0.002,0.978-0.047c0.041-0.021-0.02-0.045,0.091-0.07l0.023,0.07
	c0.09-0.037,0.262,0.047,0.455,0c0.245-0.058,0.64-0.06,0.75-0.093c0.025-0.04,0.067-0.065,0.114-0.069
	c0.217,0.105,0.463,0.138,0.7,0.092c0.049-0.049,0.113-0.081,0.182-0.092c0.033,0.006,0.065,0.055,0.114,0.069
	c0-0.088-0.011-0.082,0.045-0.116c0.012,0.05,0.045,0.093,0.091,0.116c0.083-0.052,0.264,0.03,0.364-0.022
	c0.02-0.033,0.043-0.064,0.068-0.094c0.091,0.053,0.195,0.077,0.3,0.07C5.92,17.74,6.06,17.716,6.2,17.723v-0.07
	C6.28,17.67,6.268,17.7,6.268,17.7c0.029,0.01,0.277-0.067,0.387-0.07c0-0.025,0.008-0.05,0.023-0.069
	c0.184-0.058,0.378-0.073,0.568-0.045C7.254,17.42,7.294,17.33,7.36,17.26c0.097,0.061,0.197,0.115,0.3,0.163
	c0.049,0.081,0.102,0.158,0.159,0.233h0.359c0.114-0.055,0.245-0.063,0.364-0.023c0.161-0.009,0.387-0.054,0.569-0.07
	c0.001-0.054,0.026-0.105,0.068-0.14c-0.037-0.018-0.062-0.053-0.068-0.093l0.068-0.047c-0.018-0.022-0.042-0.039-0.068-0.047
	c-0.024-0.069,0.04-0.07,0.045-0.093c-0.004-0.042-0.02-0.083-0.045-0.117c0.065-0.027,0.132-0.05,0.2-0.07v-0.022h-0.36v-0.326
	H8.86v-0.023H8.838v-0.35H8.792c-0.008-0.015-0.045-0.093-0.045-0.093l0.045-0.21c0-0.021-0.06-0.012-0.045-0.07
	c0.005-0.021,0.082-0.088,0.091-0.117c0.046-0.245,0.015-0.498-0.091-0.723c0.019-0.061,0.034-0.124,0.045-0.187
	c0-0.022-0.059-0.011-0.045-0.07c0-0.018,0.084-0.1,0.091-0.117c0.002-0.109,0.01-0.218,0.023-0.326
	c0.027-0.018,0.059-0.025,0.091-0.023v-0.283c0.169-0.014,0.337-0.044,0.5-0.093v-3.588c0.012-0.013,0.021-0.029,0.023-0.047H9.52
	c0.03,0.442,0.038,0.885,0.023,1.328v2.285l4.434-0.933v-0.07h0.182v-0.14h0.046c-0.013-0.047-0.028-0.094-0.046-0.14h-0.09
	c-0.018-0.034-0.041-0.065-0.068-0.093c0.033-0.089,0.041-0.186,0.023-0.28h-0.092c-0.022-0.044-0.038-0.091-0.046-0.14
	c0,0,0.065-0.059,0.068-0.07l0.023-0.257h0.114v-0.07c0.028-0.018,0.052-0.042,0.068-0.07c0.053,0.064,0.122,0.112,0.2,0.14
	c0.103-0.036,0.209-0.06,0.318-0.07c0.028-0.016,0.014,0.014,0.023,0.023c0.114,0.074,0.251,0.107,0.387,0.093
	c0-0.025,0.008-0.05,0.023-0.07c0.103-0.031,0.212-0.039,0.318-0.023c-0.002,0.032-0.01,0.063-0.023,0.093h0.164
	c0.02-0.075,0.039-0.239,0.068-0.327c0.009,0.005,0.017,0.014,0.023,0.023c0.03,0.097,0.045,0.198,0.046,0.3h1.183
	c0.015-0.042,0.039-0.082,0.068-0.117c0.058,0.042,0.128,0.067,0.2,0.07c0.017-0.037,0.051-0.063,0.091-0.07
	c0.03,0.046,0.082,0.073,0.137,0.07c0.025-0.05,0.056-0.097,0.091-0.14c0.009,0.006,0.017,0.014,0.023,0.023
	c0.045,0.021,0.072,0.067,0.068,0.117h0.114c-0.001,0.102,0.015,0.203,0.046,0.3l0.045,0.022c-0.008,0.049-0.023,0.096-0.045,0.14
	h-0.089v0.047c-0.024,0.054-0.015,0.117,0.023,0.163c0,0.057-0.016,0.114-0.046,0.163c-0.122,0-0.141,0.007-0.159,0.117
	c0.038,0.045,0.055,0.104,0.045,0.163h0.182v0.07h0.068v-0.036c0.015-0.021,0.023-0.045,0.023-0.07h0.114
	c-0.086-0.382-0.021-0.784,0.182-1.119c0.248-0.089,0.514-0.113,0.773-0.07l0.023-0.07c0.043-0.27,0.051-0.544,0.023-0.816
	c-0.291-0.303-0.61-0.576-0.955-0.816v-0.14h-0.091v0.094h-0.046l-0.023-0.14h-0.363v0.07h-0.114v-0.07h-0.228l0.023,0.3
	c-0.1-0.011-0.2-0.011-0.3,0c-0.009,0.184-0.047,0.364-0.114,0.536c-0.05-0.024-0.104-0.04-0.159-0.047l0.068-0.606
	c-0.09-0.009-0.18-0.023-0.268-0.043c-0.079,0.032-0.155,0.072-0.227,0.117c0.011,0.078,0.003,0.158-0.023,0.233
	c-0.1,0.043-0.209,0.06-0.318,0.047c-0.035-0.151-0.081-0.298-0.136-0.443c-0.11-0.104-0.196-0.232-0.25-0.373l0.704,0.019
	c0.02,0.076,0.027,0.155,0.023,0.233h0.114c0.007-0.071,0.022-0.142,0.046-0.21c-0.104-0.042-0.167-0.146-0.159-0.257
	c0.031-0.103,0.121-0.176,0.227-0.188c0.142,0.11,0.328,0.146,0.5,0.093c0.068,0.042,0.148,0.059,0.227,0.047
	c-0.006-0.048,0.002-0.096,0.023-0.14c0,0.091-0.011,0.1,0.046,0.14V9.122C17.162,8.923,17.184,8.72,17.183,8.516z M10.383,17.424
	v0.117h0.023c0.253-0.055,0.514-0.071,0.773-0.047v-0.163c0.057-0.013,0.111-0.036,0.159-0.07c0.042,0.015,0.082,0.039,0.114,0.07
	h0.523v-0.07h-0.317v-0.327h-2v0.023h0.021c0.059,0.021,0.12,0.036,0.182,0.047l0.023,0.07c-0.051,0.037-0.048,0.038-0.045,0.07
	c0.026,0.024,0.042,0.058,0.045,0.093L9.816,17.26v0.023h0.022C9.996,17.398,10.19,17.448,10.383,17.424L10.383,17.424z"/>
</svg>
