<svg xmlns="http://www.w3.org/2000/svg" width="40" height="40" viewBox="0 0 40 40">
  <defs>
    <style>
      .cls-1 {
        fill: #fff;
        fill-rule: evenodd;
      }
    </style>
  </defs>
  <path id="Color_Fill_1" data-name="Color Fill 1" class="cls-1" d="M24.067,11.059a11.729,11.729,0,0,1,.117-1.33c0.014-.122-0.09-0.073-0.078-0.2a8.87,8.87,0,0,1,.156-0.9,0.249,0.249,0,0,0-.078-0.2A3.009,3.009,0,0,1,24.263,7.3a1.77,1.77,0,0,1,.509-0.039V7.146a16.555,16.555,0,0,1-2.426-.235V6.833c0.545-.018,1.131-0.117,1.722-0.117a6.4,6.4,0,0,0,.783.039,0.962,0.962,0,0,1,.7-0.743l0.274,0.2a1.818,1.818,0,0,0,.313.548,1.792,1.792,0,0,1,.7-0.039,10.121,10.121,0,0,1,1.722.157V6.911H28.528a6.734,6.734,0,0,1-2.348.235V7.263h0.47a0.95,0.95,0,0,1,.078.274,3.893,3.893,0,0,1-.039,1.135c0.189,0.75.043,1.642,0.235,2.661,0.869,0.27,1.937.224,2.817,0.431L30.6,11.842c1.814,0.436,3.7.657,5.478,1.135,0.874,0.235,1.8.3,2.622,0.548a3.383,3.383,0,0,1,.822.235,2.545,2.545,0,0,1,.47.548c0.058,2.461-2.531,2-4.5,2.5-1.113.285-2.373,0.392-3.483,0.7-0.363.1-.829,0.118-1.057,0.2l-2.387.117c-0.536.121-1.193-.01-1.761,0.117-0.351.079-.777-0.011-1.174,0.078-1.3.293-2.834,0.061-4.148,0.313l-0.039.117c-0.276.4,0.018,1.954-.117,2.583-0.127.59,0.055,1.339-.078,1.957-0.095.439,0.026,0.963-.078,1.448-0.095.438,0.027,0.961-.078,1.448-0.14.649-.117,1.446-0.2,2.113l6.3,1.6a1.12,1.12,0,0,1,.039,1.6,5.946,5.946,0,0,1-1.8.235c-0.486.107-1.035,0.04-1.565,0.157a16.229,16.229,0,0,1-3.4.235,8.312,8.312,0,0,1-.274,1.6c-0.093.363-.084,0.763-0.157,1.017H20V34.421c-0.027-.059,0-0.225-0.039-0.391a16.965,16.965,0,0,1-.391-2.191,11.405,11.405,0,0,1-2.622-.157c-0.53-.117-1.079-0.05-1.565-0.157L14.6,31.486c-0.587-.131-1.351-0.134-1.878-0.274A1.767,1.767,0,0,1,12.6,29.8a10.793,10.793,0,0,1,2.191-.665c0.916-.3,1.9-0.452,2.857-0.743A9.725,9.725,0,0,1,19.137,28L18.9,25.068v-0.7c-0.093-.43-0.024-1.016-0.117-1.448L18.667,19.2a0.713,0.713,0,0,1-.352-0.039h0.352a3.177,3.177,0,0,0-.078-0.783l-0.117-.039a4.486,4.486,0,0,0-1.1-.078c-0.926-.207-2.049-0.017-2.974-0.235H13.815c-1.1-.249-2.421-0.014-3.522-0.274l-1.174-.039c-1.633-.459-3.7-0.586-5.439-1.056-1.459-.395-2.724-0.08-3.444-1.291A1.225,1.225,0,0,1,.08,14.307c0.239-.8,1.324-0.757,2.152-0.978,1-.266,2.059-0.339,3.091-0.626,0.473-.131,1.01-0.17,1.526-0.313a8.41,8.41,0,0,1,1.487-.313V10.316H8.415v1.722l0.822-.156a1.265,1.265,0,0,0,.313.2A0.374,0.374,0,0,1,9.98,11.8a3.31,3.31,0,0,1,.861-0.117,11.361,11.361,0,0,1,2.231-.313,1.021,1.021,0,0,0,.078-0.509c-0.045-.055.175-1,0.117-1.252-0.137-.1.064-0.17,0.039-0.352-0.129-.108.033-0.163,0-0.391a1.1,1.1,0,0,0,.039-0.391,2.363,2.363,0,0,1,.039-1.213h0.47V7.146a11.086,11.086,0,0,1-2.387-.235l-0.039-.078a11.132,11.132,0,0,1,2.544-.039,0.792,0.792,0,0,1,.665-0.783,1.66,1.66,0,0,1,.548.743,8.43,8.43,0,0,1,2.465.117V6.95c-0.762.027-1.5,0.188-2.387,0.2V7.263h0.47l0.039,0.117A2.252,2.252,0,0,1,15.85,8.4c-0.016.716,0.143,1.7,0.117,2.661a14.538,14.538,0,0,0,2.544-.039,1.131,1.131,0,0,0,.039-0.352,8.6,8.6,0,0,0,.078-1.487c0.285-1.281.05-3.714,1.487-3.639a2.378,2.378,0,0,0,.509.235c0.034,0.027.232,0.309,0.235,0.313a15.144,15.144,0,0,1,.626,4.891L21.6,11.02a1.86,1.86,0,0,0,.7.039h1.761Z"/>
</svg>
