<svg xmlns="http://www.w3.org/2000/svg" xmlns:xlink="http://www.w3.org/1999/xlink" width="39.96" height="40" viewBox="0 -93.572 1132 1133.144">
  <defs>
    <style>
      .cls-1 {
        fill: #fff;
        fill-rule: evenodd;
      }
    </style>
    <clipPath id="clip-path">
      <rect width="1132" height="946"/>
    </clipPath>
  </defs>
  <g clip-path="url(#clip-path)">
    <path id="Color_Fill_1" data-name="Color Fill 1" class="cls-1" d="M596,51c0.5,6.085,5.763,30.292,9,32h19q1,63.993,2,128c0,14.04,2.795,47.126-1,55h38c0.42-12.925.868-30.523,11-34,4-3.73,9.9-2.594,16-2,1.839,2.363,5.38,3.589,7,6,4.591,6.832,5.021,20.148,5,31,9.593,0.38,26.322,4.559,30-2,0.745-1.216.137-.992,0-4h3c-0.2,3.916-.378,2.64,0,6,3.541,0.618,3.729,2.255,6,3h15c14.409,3.141,32.587.879,47,4l31,1c13.991,3.047,32,.972,46,4h17c8.346,1.822,19.052-.164,29,2l66,5V234c0-5.927-1.523-16.986,1-21v73c18.29-.178,40.12.344,57,4h16c18.74,4.1,42.28,2.571,59,7,10.9,16.612,8.52,49.374-8,60,2.82,6.563,1.59,13.892-1,20-25.41,13.514-55.5,19.64-83,31-29.14,12.038-60.01,20.663-90,33-13.459,5.537-29.054,12.661-43,17-14.5,4.511-27.378,4.857-42,9-40.55,11.488-83.867,18.534-125,31-31.761,9.625-63.925,15.721-95,26-10.016,3.313-25.931,12.705-38,9v9c-3.848,6.368.1,19.385,0,27-0.082,6.063-1.923,9.272-3,14q-0.5,16.5-1,33-7.5,92.49-15,185h2c6.21,3.844,40.814,1,51,1H769q0.5,1,1,2c7.8,10.125.68,32.2-2,41v40H575c-0.318,8.278-3.1,8.543-5,13q-1.5,24-3,48h-2c-0.042-4.5-2.339-7.1-2-10,0.23-1.962,2.049-30.9-1-38-1.78-4.145-4.6-5.9-5-13H364V845c-4.742-15.668-4.237-22.8-3-41,9.887-5.047,40.617-2,55-2H549c1.021-.8.274-0.355,2-1V789c-3.494-5.77-.34-15.4-2-23-3.211-14.705-.547-31.18-4-47-3.233-14.809-1.762-33.061-5-48V658c-2.89-13.29.018-30.08-3-44-2.011-9.276.722-26.037-2-35-3.517-11.584-2.537-31-3-46h-1c-4.312,2.833-31.259-5.988-37-8-33.762-11.835-71.348-19.036-107-30l-28-6c-31.353-9.623-65.628-16.015-97-25-10.884-3.117-20.09-2.33-31-6-10.937-3.679-23.575-9.587-34-14-31.409-13.3-64.265-22.32-95-35-19.107-7.883-38.7-13.458-57-21l-27-9c-3.156-2.218-6.334-11.765-5-18,0.046-.215,2.246-3.463,2-4-1.894-4.131-8.726-7.429-11-12-6.207-12.477-3-33.389,0-45,16.451-10.074,40.008-5.221,62-10H82c14-3.062,31.143.252,46-3,9.32-2.04,20.552.288,31-2,9.911-2.171,21.848.443,33-2,33.309-7.3,73.674-.742,107-8h15c19.387-4.257,42.651-.779,62-5,9.509-2.075,17.034,2.293,21-5,0.933-1.9.379-1.169,0-4h3v6c8.146,1.351,19.116.162,30,0-0.151-13.207,1.022-31.581,11-35,4-3.73,9.9-2.594,16-2,1.839,2.363,5.38,3.589,7,6,4.439,6.606,5,19.559,5,30h37c-0.076-63.869,1.918-122.8,2-183h20c0.685-5.215,3.559-9.5,5-14,1.716-5.359,1.245-11.269,3-16H525c-4.775-2.927-12.687-.592-19-2-18.912-4.219-41-5.923-63-6V44h1c5.957-3.67,16.09-.3,24-2,22.173-4.778,48.322-4.221,72-4,1.551-15,13.091-38.291,30-38,2.071,2.72,5.888,3.5,8,6,7.27,8.611,10.4,20.729,15,32,14.811-3.051,46.225.779,61,4,11.322,2.468,26.828-2.6,35,3C657.615,45.628,627.9,55.084,596,51Z"/>
  </g>
</svg>
