<svg xmlns="http://www.w3.org/2000/svg" xmlns:xlink="http://www.w3.org/1999/xlink" width="39.96" height="40" viewBox="0 -93.572 1132 1133.144">
  <defs>
    <style>
      .cls-1 {
        fill: #fff;
        fill-rule: evenodd;
      }
    </style>
    <clipPath id="clip-path">
      <rect width="1132" height="946"/>
    </clipPath>
  </defs>
  <g clip-path="url(#clip-path)">
    <path id="Color_Fill_1" data-name="Color Fill 1" class="cls-1" d="M596,51c0.916,10.532,3.949,26.868,10,33,1.18-.8,1.681-0.773,4-1-0.13,23.42-.484,40.887,1,60h-3l3,17-5-1v2c3.61,2.911,4.419,10.244,5,16a2.834,2.834,0,0,0-1,1c-3.6.193-2.074-1.485-3,2,2.73,3.023,3.7,9.767,4,15h-3q-1-3-2-6h-2v8c5.144,8.576-3.329,28.361,1,41,0.5,1.463,1.684,1.7,2,5-4.787.057-3.294,15.286-3,23h59c0.42-12.925.868-30.523,11-34,4-3.73,9.9-2.594,16-2,1.839,2.363,5.38,3.589,7,6,4.591,6.832,5.021,20.148,5,31l26,2c1.649-4.67,1.465-6.806,8-7a17.263,17.263,0,0,0,3,5v-1c6.694-4.216,8.323-9.463,8-21,3.98-2.712,1.541-35.758,2-44,1.2-21.564,4.6-53.718,0-75V97a124.046,124.046,0,0,1-3-22h16v1c-6.813,10.88-.772,34.91-4,50-2.24,10.473-2.248,30.528,0,41v78h3c0.744,6.881,2.466,8.426,2,16,10.114,7.222,3.933,11.373,24,11l205,14V234c0-5.927-1.523-16.986,1-21v73c18.29-.178,40.12.344,57,4h16c18.74,4.1,42.28,2.571,59,7,10.9,16.612,8.52,49.374-8,60,2.82,6.563,1.59,13.892-1,20-25.41,13.514-55.5,19.64-83,31-28.18,11.64-58.029,20.082-87,32-13.576,5.585-28.977,12.331-43,17L733,498c-31.761,9.625-63.925,15.721-95,26-10.016,3.313-25.931,12.705-38,9v9c-3.848,6.368.1,19.385,0,27-0.082,6.063-1.923,9.272-3,14q-0.5,16.5-1,33-7.5,92.49-15,185h2c6.21,3.844,40.814,1,51,1H769q0.5,1,1,2c7.8,10.125.68,32.2-2,41v40H575c-0.318,8.278-3.1,8.543-5,13q-1.5,24-3,48h-2c-0.042-4.5-2.339-7.1-2-10,0.23-1.962,2.049-30.9-1-38-1.78-4.145-4.6-5.9-5-13H364V845c-4.742-15.668-4.237-22.8-3-41,9.887-5.047,40.617-2,55-2H549c1.021-.8.274-0.355,2-1V789c-3.494-5.77-.34-15.4-2-23-3.211-14.705-.547-31.18-4-47-3.233-14.809-1.762-33.061-5-48V658c-2.89-13.29.018-30.08-3-44-2.011-9.276.722-26.037-2-35-3.517-11.584-2.537-31-3-46h-1c-4.312,2.833-31.259-5.988-37-8-33.762-11.836-71.348-19.036-107-30l-28-6c-31.353-9.623-65.628-16.014-97-25-11.6-3.322-21.787-3.216-33-7-16.647-5.618-34.817-13.318-51-20-25.338-10.462-51.465-17.878-76-28-19.107-7.883-38.7-13.458-57-21l-27-9c-3.156-2.218-6.334-11.765-5-18,0.046-.215,2.246-3.463,2-4-1.894-4.131-8.726-7.429-11-12-6.207-12.477-3-33.389,0-45,21.9-13.438,63.8-5.688,93-12h16l249-17c2.762-8.311,9.7-8.676,10-20-0.961-1.418-.976-3.273-1-6h3q0.5-59.495,1-119c-1.542-7.166.839-18.595-1-27a117.974,117.974,0,0,1-3-24h15a123.433,123.433,0,0,1-3,25c-1.757,8.1.472,19.148-1,26v19q0.5,26,1,52v48c3.661,7.373,5.336,4.748,5,16,2.515,1.96,2.522,3.722,6,5,1.711-3.446,1.784-3.847,7-4,1.537,3.107,2,5.965,6,7,4.235-2.707,17.278-2.037,23-2-0.151-13.207,1.022-31.581,11-35,4-3.73,9.9-2.594,16-2,1.839,2.363,5.38,3.589,7,6,4.439,6.606,5,19.559,5,30h59V242c-0.794-3.636-2.728-9.2-2-14,1.528-10.058,2.018-25.881,2-39h-2v1c-0.778,1.065-1.489,3.692-2,5h-3c0.679-6.763,3.014-12.016,4-18-2.266.4-1.084,0.918-3,0-0.8-1.021-.355-0.274-1-2,2.439-3.764,4.337-12.706,5-17h-1c-1.568,1.829-.882,1.4-4,2v-2c2.389-3.695,4.278-12.923,5-17h-1c-1.568,1.829-.882,1.4-4,2,0.753-7.385,3.776-12.883,5-19h-1c-1.568,1.829-.882,1.395-4,2,0.679-6.763,3.014-12.016,4-18-2.6.036-2.274,1.3-4-2,1.654-2.674.737-6.591,2-10,3.054-8.242,7.322-18.6,10-27,1.709-5.359,1.275-11.265,3-16H525c-4.775-2.927-12.687-.592-19-2-18.912-4.219-41-5.923-63-6V44h1c5.957-3.67,16.09-.3,24-2,22.173-4.778,48.322-4.221,72-4,1.551-15,13.091-38.291,30-38,2.071,2.72,5.888,3.5,8,6,7.27,8.611,10.4,20.729,15,32,14.811-3.051,46.225.779,61,4,11.322,2.468,26.828-2.6,35,3C657.615,45.628,627.9,55.084,596,51Zm11,192c0.8,1.021.355,0.274,1,2h-1v-2Z"/>
  </g>
</svg>
