<svg xmlns="http://www.w3.org/2000/svg" width="40" height="40" viewBox="0 0 40 40">
  <defs>
    <style>
      .cls-1 {
        fill: #fff;
        fill-rule: evenodd;
      }
    </style>
  </defs>
  <path id="Color_Fill_1" data-name="Color Fill 1" class="cls-1" d="M24.025,11.157A6.632,6.632,0,0,1,24.136,9.9a0.6,0.6,0,0,0-.074-0.259,1.234,1.234,0,0,1,.111-0.259,1.1,1.1,0,0,1,.037-0.629,0.239,0.239,0,0,0-.074-0.222,3.945,3.945,0,0,1,.074-1.11,1.079,1.079,0,0,1,.518-0.074V7.272H24.654a2.353,2.353,0,0,0-.518-0.037,7.831,7.831,0,0,1-1.813-.259,0.105,0.105,0,0,1-.037-0.037,14.837,14.837,0,0,1,2.553-.074,0.724,0.724,0,0,1,.74-0.74c0.079,0.108.222,0.184,0.3,0.3l0.148,0.407h1.406a10.869,10.869,0,0,0,1.11.148,0.133,0.133,0,0,1-.074.037,6.893,6.893,0,0,1-2.331.222V7.346h0.444a1.577,1.577,0,0,1,.111.814,0.886,0.886,0,0,1,.037.37,0.251,0.251,0,0,0-.074.222c0.181,0.827.022,1.594,0.222,2.664,0.315,0.1.667,0.061,1.036,0.148,0.744,0.175,1.624.194,2.368,0.37l0.555,0.037c1.9,0.455,3.923.719,5.809,1.221,1.04,0.277,3.058.285,3.33,1.258a1.392,1.392,0,0,1-.3,1.147c-0.672,1-2.017.8-3.367,1.147-1.81.46-3.864,0.683-5.624,1.073l-5.032.3c-0.688.149-1.532,0.036-2.22,0.185H22.878a3.774,3.774,0,0,1-1.369.074,0.161,0.161,0,0,1-.111.111c-0.036.3-.04,0.853-0.111,1.184-0.1.453,0.051,1.036-.037,1.443-0.07.323,0.023,0.759-.037,1.036V22.96L20.88,28.1a6.8,6.8,0,0,1,1.554.407c1.1,0.338,2.224.523,3.293,0.851,0.425,0.13,1.537.229,1.665,0.592a1.632,1.632,0,0,1-.037,1.258c-0.614.377-1.506,0.188-2.331,0.37-0.459.1-.979,0.037-1.48,0.148a15.107,15.107,0,0,1-3.108.222,0.1,0.1,0,0,1-.037.037,6.155,6.155,0,0,1-.259,1.628c-0.081.321-.045,0.63-0.148,0.925H19.955V34.5c-0.025-.055.007-0.214-0.037-0.37a8.728,8.728,0,0,1-.37-2.22H19.511a5.944,5.944,0,0,1-1.887-.037l-3.071-.333c-0.623-.138-1.3-0.078-1.85-0.222a1.614,1.614,0,0,1-.111-1.48,15.278,15.278,0,0,1,1.517-.444c1.273-.416,2.686-0.66,3.959-1.073,0.356-.116.716-0.128,1.036-0.259-0.229-.708-0.06-1.728-0.222-2.479v-0.74c-0.087-.4.023-0.883-0.074-1.332-0.1-.481.041-1.058-0.074-1.591A14.38,14.38,0,0,1,18.66,19.3H18.29V19.223h0.333a0.94,0.94,0,0,0-.185-0.814l-1.369-.074c-0.863-.2-1.913-0.015-2.775-0.222H13.739c-1.052-.246-2.314-0.007-3.367-0.259l-1.11-.037c-1.556-.372-3.421-0.53-5.032-0.962C3.06,16.541,1.275,16.6.53,15.967a1.372,1.372,0,0,1-.074-2.109,10.684,10.684,0,0,1,2.516-.592c0.979-.279,2.058-0.341,3.071-0.629A15.366,15.366,0,0,1,8.3,12.156V10.269a1.984,1.984,0,0,1,.037-0.74l0.037,2.59a2.261,2.261,0,0,0,.814-0.148,0.5,0.5,0,0,0,.333.185A0.344,0.344,0,0,1,9.928,11.9a3.128,3.128,0,0,1,.814-0.111,13.624,13.624,0,0,1,2.294-.333,0.965,0.965,0,0,0,.074-0.481c-0.067-.2.2-0.935,0.111-1.258a1.54,1.54,0,0,1,.074-0.74,5.231,5.231,0,0,1-.037-1.443c0.126-.321.426-0.06,0.555-0.259H13.739a2.358,2.358,0,0,0-.518-0.037,7.38,7.38,0,0,1-1.776-.259,0.105,0.105,0,0,1-.037-0.037h0.074a8.568,8.568,0,0,1,2.442-.074,0.746,0.746,0,0,1,.74-0.74,0.133,0.133,0,0,0,.074.037,1.537,1.537,0,0,1,.37.666,8.669,8.669,0,0,1,2.516.148,0.133,0.133,0,0,1-.074.037,8.1,8.1,0,0,1-2.331.222V7.346H15.7a4.769,4.769,0,0,1,.111,1.147c0.015,0.007.064-.008,0.037,0.037-0.037.062-.136,0.036-0.111,0.185a0.8,0.8,0,0,0,.111.222,1.472,1.472,0,0,0-.037.555,0.4,0.4,0,0,1,.074.222c-0.048.045-.082-0.03-0.074,0.074a0.744,0.744,0,0,0,.111.259,1.126,1.126,0,0,0,.074.888,0.262,0.262,0,0,0-.074.222H18.4a0.659,0.659,0,0,0,.111-0.481,7.928,7.928,0,0,0,.074-1.406c0.233-1.064.1-2.58,0.629-3.33a1.768,1.768,0,0,1,1-.481c0,0.111-.011.135,0.185,0.148a0.126,0.126,0,0,1,.037-0.074c0.031,0.256.106,0.127,0.222,0.259a2.675,2.675,0,0,1,.37.925,18.959,18.959,0,0,1,.407,4.366A11.124,11.124,0,0,0,24.025,11.157Z"/>
</svg>
