<svg xmlns="http://www.w3.org/2000/svg" width="80" height="40" viewBox="0 0 80 40">
  <defs>
    <style>
      .cls-1 {
        fill: #fff;
        fill-rule: evenodd;
      }
    </style>
  </defs>
  <path id="Color_Fill_1" data-name="Color Fill 1" class="cls-1" d="M49.218-.253c0.326,0.014.452,0.189,0.658,0.166C50-.324,50.2-0.25,50.535-0.253,50.6-.522,50.495-0.38,50.7-0.5v0.249h0.247c0.068-.269-0.04-0.127.165-0.249,0.068,0.269-.04.127,0.165,0.249a1.8,1.8,0,0,1,1.893-.581,6.5,6.5,0,0,0,.576.83c0.731-.26,1.089.155,1.893,0.083a8.343,8.343,0,0,1,1.893.166h3.621c6.14,0,12.577.081,18.848,0.083V0.66l-19.095.083c-1.3.286-3.047-.229-4.444,0.083A8.074,8.074,0,0,1,53.58.992v0.5a0.856,0.856,0,0,1-.494.166c0,0.438.165,1.909,0.165,1.909a1.292,1.292,0,0,1-.658.083,0.5,0.5,0,0,0-.165-0.166V4.811a0.563,0.563,0,0,1,.165.415,0.234,0.234,0,0,0-.082.083,1.357,1.357,0,0,0-1.235.249,1.841,1.841,0,0,1,1.4.249c0.085,0.3-.075,2.5-0.082,3.486a0.812,0.812,0,0,1,.494.166,0.425,0.425,0,0,1,.082.249c-0.256.158-.251,0.258-0.247,0.747H53a2.038,2.038,0,0,1,1.564-.581V9.958H54.074v0.415a1.283,1.283,0,0,0,.411.083,0.448,0.448,0,0,1,.247-0.332c0.066,0.362.091,0.327,0.494,0.332v-0.5a0.684,0.684,0,0,1-.412-0.083c1,0.005.848,0.372,1.564,0.747,0.246,0.129,1.979.111,2.551,0.249l0.494-.083c2,0.258,4.439-.035,6.667.166,4.376,0.4,9.37.083,13.909,0.083v0.332l-13.827.083-6.667.083a7.26,7.26,0,0,1-2.716.166,3.262,3.262,0,0,1-.741.664H55.062c-0.317.034-.166,0.187-0.329,0.249l-2.14-.664V13.2c0.753,0.2.877,0.841,1.482,1.079,0.017-.748.587-0.627,1.317-0.581a0.964,0.964,0,0,1,.165.581c2.6-.044,6.966-0.293,8.889.415,0.907,0.334,1.91.106,2.387,0.83A4.267,4.267,0,0,1,67,17.429h0.411v0.332H67v0.913h1.235l0.082-.83h0.412a1.423,1.423,0,0,0,1.234,1,3.715,3.715,0,0,0,.988.166,16.971,16.971,0,0,1,2.469.664c0.93,0.4,1.655,1.78,2.387,2.49a1.413,1.413,0,0,1,.576-0.332v0.166a1.51,1.51,0,0,0-.494.249,0.234,0.234,0,0,0,.082.083,3.738,3.738,0,0,1,.905,1.411l-0.412.166,1.646,2.656a6.382,6.382,0,0,1,.741.332,2.3,2.3,0,0,0,1.152,1c0.036,2.211-.449,3.888-2.14,4.4-0.629.191-1.492,0.041-2.14,0.249,0.006,0.336.135,0.2-.082,0.332-0.441.378-1.292,0.276-1.564,0.83,0.642,0.708-.19,1.392-0.329,1.992a13.007,13.007,0,0,1-4.033-.166,5.943,5.943,0,0,1-.576-0.5,18.58,18.58,0,0,0-1.975.166A1.436,1.436,0,0,1,67,35.94a0.281,0.281,0,0,1-.165-0.083,0.6,0.6,0,0,1-.082-0.581H66.255v0.166a2.908,2.908,0,0,1,.494,1.494,9.809,9.809,0,0,0-.905,1.079l0.082,0.415a1.173,1.173,0,0,0-.412.083c0.311,0.446,1.166,1.345.576,2.158A1.7,1.7,0,0,1,64.2,41.751c-0.237-.189-0.58-0.228-0.823-0.415l-0.494-.747a4.427,4.427,0,0,1,.165-1.494,4.815,4.815,0,0,1,.905-0.747c0.453-.165,1,0.18,1.235-0.166,0.312-.493.093-2.047,0.082-2.739l-2.963.083c-0.537,1.236-.615,1.557-2.469,1.494V36.853a4.726,4.726,0,0,0,.741-1.245H57.7a11.026,11.026,0,0,0-2.881-.083h-7.49c-0.025.407-.32,0.273-0.905,0.249-0.014-.408-1.552-0.282-2.222-0.249-0.435.438-1.04,0.735-1.481,1.162v1A2.229,2.229,0,0,1,44.28,41.17a2.435,2.435,0,0,1-3.128.415,6.6,6.6,0,0,1-.741-1.079c-0.1-1.5.384-2.657,1.811-2.822a9.857,9.857,0,0,0-.082-1.328c-0.624-.158-1.094-0.644-1.646-0.83H37.2c-2.844,0-5.809.084-7.9-.581-0.346-.11-1.474-0.27-1.564-0.332a7.3,7.3,0,0,0-1.235-.664,1.325,1.325,0,0,0-.494,0c-0.5-.414-0.936-0.841-1.481-1.245a6.645,6.645,0,0,0-1.564-1.992,17.036,17.036,0,0,0-2.881-.747c-0.229.055-.621,0.261-0.905,0.332a4.244,4.244,0,0,1-1.564-.083,1.55,1.55,0,0,0-.659.083L14.9,30.212a12.354,12.354,0,0,1-.823-2.075l-2.14-.581v0.415H11.523c-0.036,2.206-1.76,3-4.033,2.407-2.92-.763-5.613-1.206-7.407-3.154a26.394,26.394,0,0,1,.247-5.645c0.288-1.312-.1-2.642.494-3.569C1.5,16.952,2.669,17.1,4.115,16.765c1.408-.328,3.938-0.962,5.6-0.581a3.251,3.251,0,0,1,.905,1.909h0.576l0.247,3.154,5.514-.166V20.915c-0.657-.451-0.971-1.418-1.728-1.743a0.328,0.328,0,0,1-.412,0h0.165a4.3,4.3,0,0,1,2.222,0,0.854,0.854,0,0,0-.823.166c0.6,0.417.941,1.5,1.811,1.577a3.518,3.518,0,0,1,1.482-.332c0.11,0.394.325,0.362,0.823,0.332a5.669,5.669,0,0,1,1.152-.664v0.166a0.563,0.563,0,0,1,.165.415l1.564-.083V20.583c0.268-.444-0.145-0.926-0.165-1.411a13.385,13.385,0,0,1,.082-3.4,1.353,1.353,0,0,1,.658-0.249,1.826,1.826,0,0,1,1.317.083,2.072,2.072,0,0,0,.329.415c-0.1.509-.229,1.474,0.247,1.743a3.257,3.257,0,0,1,1.811-.664V15.768a0.843,0.843,0,0,1,.905.083,2.029,2.029,0,0,0-.082.913c0.587-.068.922-0.294,1.564-0.332a15.349,15.349,0,0,1,.247-3.071,2.45,2.45,0,0,1,1.893-.083c0.3,0.1.3,0.125,0.329,0.5a5.492,5.492,0,0,1,.165,2.075l1.811-.249V15.1a0.234,0.234,0,0,0,.082-0.083,4.944,4.944,0,0,1,1.317-.083V15.1a0.426,0.426,0,0,1,.082.249l3.621-.5,1.564-.083a2.092,2.092,0,0,1,.329-0.581,1.547,1.547,0,0,1,1.4.166,0.427,0.427,0,0,1,.082.249l1.975-.083v-0.5l0.247-.083a2.707,2.707,0,0,1,1.152-.083,1.722,1.722,0,0,0,.247.581,10.039,10.039,0,0,1,2.8-.332,4.2,4.2,0,0,1,.082-0.913H49.3a0.513,0.513,0,0,1-.658.415,0.552,0.552,0,0,0-.329-0.083,1.528,1.528,0,0,1-.082-0.5,0.907,0.907,0,0,0,.082-0.5c-0.37.016-.659-0.166-1.317-0.166a1.163,1.163,0,0,1-.329-0.581,7.874,7.874,0,0,1-2.881-.166c-1.4-.312-3.148.2-4.444-0.083l-18.436-.083V11.12c6.688,0.006,13.427-.085,20-0.083a20.787,20.787,0,0,0,4.938-.415c0.61-.155,1.537.346,1.728-0.747a1.2,1.2,0,0,1-.165-0.415,0.234,0.234,0,0,0,.082-0.083c0.55-.062.772-0.278,1.317-0.332,0-.453.006-2.979,0-2.988-0.164-.237-0.192.066-0.247-0.415a1.3,1.3,0,0,0,.988-0.249,2.663,2.663,0,0,1-.905-0.166,0.425,0.425,0,0,1-.082-0.249,0.617,0.617,0,0,0,.329-0.332,2.776,2.776,0,0,1-.082-1.162c-0.536.016-.652,0.154-1.235,0.166L47.49,3.4c0.439-.3.353-1.247,0.329-2.075H47.737c-0.853.623-2.183,0.429-3.292,0.166a1.051,1.051,0,0,0-.329-0.415,3.548,3.548,0,0,0-.823.083c-0.061-.011-0.331-0.233-0.412-0.249-0.29-.056-0.692.118-0.988,0.083A15.988,15.988,0,0,0,39.918.826H36.79c-1.583-.345-3.782.276-5.432-0.083A19.2,19.2,0,0,0,27.819.66H20.905V0.328l19.259-.083A16.191,16.191,0,0,1,43.951,0l0.165-.249c0.254-.113.54,0.041,0.741-0.083a1.82,1.82,0,0,1,1.728-.581,9.605,9.605,0,0,1,1.4.747,5.238,5.238,0,0,1,1.152-.083A0.4,0.4,0,0,1,49.218-.5v0.249Z"/>
</svg>
