<svg xmlns="http://www.w3.org/2000/svg" width="40" height="40" viewBox="0 0 40 40">
  <defs>
    <style>
      .cls-1 {
        fill: #fff;
        fill-rule: evenodd;
      }
    </style>
  </defs>
  <path id="Color_Fill_1" data-name="Color Fill 1" class="cls-1" d="M24.663,8.568V8.351H24.627a3.967,3.967,0,0,1-2.052.036,1.765,1.765,0,0,1-.684-0.145h0.036a2.716,2.716,0,0,1,.864-0.109A10.341,10.341,0,0,1,24.735,8.1l0.216-.543a0.854,0.854,0,0,0,.288-0.434h0.144V7.266a1.482,1.482,0,0,1,.432.579,0.718,0.718,0,0,0,.072.253h1.836a10.036,10.036,0,0,0,1.044.181,0.13,0.13,0,0,1-.072.036c-0.514.367-2.112,0.087-2.736,0.036V8.568a1.746,1.746,0,0,1,.54.072,7.094,7.094,0,0,1,.324.687,9.13,9.13,0,0,1,0,2.134l5,0.326a4.408,4.408,0,0,0,.036-1.158c0.1-.172-0.034-0.589.072-0.76a10.508,10.508,0,0,0,.072,1.954h0.432a10.914,10.914,0,0,0,1.62.109c0.323,0.072.714-.009,1.08,0.072,1.177,0.261,2.637.051,3.672,0.4a1.665,1.665,0,0,1,1.044.579,1.851,1.851,0,0,1-.72,1.99,4.076,4.076,0,0,1-.792.579,31.613,31.613,0,0,1-3.384.76c-0.522.146-1.1,0.2-1.656,0.362a6.978,6.978,0,0,1-1.3.289c0.014,0.082.033,0.039,0,.109a7.062,7.062,0,0,1-1.044.253c-0.049-.018.013-0.111-0.108-0.108a3.3,3.3,0,0,0-.648.145c-1.919.546-4,.762-5.9,1.3a9.462,9.462,0,0,0-2.412.579,2.881,2.881,0,0,0-.648,1.375c-0.049.18,0,.475-0.036,0.615v0.8c-0.167.766,0.03,1.631-.144,2.424l-0.4,4.594h0.072a10.267,10.267,0,0,0,1.836.543,33.8,33.8,0,0,1,3.348,1.194c0.352,0.163,1.394.725,0.9,1.411a1.358,1.358,0,0,1-1.08.615,13.7,13.7,0,0,1-3.564.289c-0.633,0-1.68-.106-1.944.217a7.083,7.083,0,0,0-.216.687H19.982V33.964a2.637,2.637,0,0,0-.324-0.724c-0.482-.365-1.375.028-2.124-0.145-0.537-.123-1.052.1-1.62-0.036a8.067,8.067,0,0,1-2.448-.506,2.653,2.653,0,0,1-.324-0.362,1.263,1.263,0,0,1,.144-0.941,4.643,4.643,0,0,1,1.692-.832c0.666-.273,1.392-0.444,2.124-0.687,0.71-.236,1.473-0.506,2.232-0.687V28.9a14.689,14.689,0,0,1-.18-2.171c-0.231-1.053-.053-2.294-0.288-3.364-0.1-.445.017-0.932-0.072-1.338v-0.8a5.3,5.3,0,0,0-.36-1.556c-0.479-.824-1.723-0.727-2.736-1.013-1.91-.539-3.983-0.762-5.9-1.3a16.365,16.365,0,0,1-1.836-.289V16.961a7.469,7.469,0,0,1-1.26-.289c-0.562-.159-1.133-0.214-1.656-0.362a31.558,31.558,0,0,1-3.384-.76,4.081,4.081,0,0,1-.792-0.579A1.924,1.924,0,0,1,.072,13.2c0.212-.735,1.049-0.761,1.836-0.941,0.559-.127,1.293-0.053,1.872-0.181H4.32c0.495-.108,1.094.006,1.62-0.109a10.315,10.315,0,0,1,2.052-.145V11.752c0.224-.372-0.122-1.509.108-1.881l0.036,1.881a1.769,1.769,0,0,0,.5.036,4.26,4.26,0,0,1,1.08-.072l3.456-.253c-0.012-.758-0.22-2.534.4-2.822a0.711,0.711,0,0,1,.468-0.072V8.351H14.005a3.967,3.967,0,0,1-2.052.036,1.728,1.728,0,0,1-.684-0.145h0.036a2.674,2.674,0,0,1,.864-0.109A10.364,10.364,0,0,1,14.113,8.1c0.1-.4.459-0.646,0.5-0.977h0.144V7.266a1.468,1.468,0,0,1,.432.579,0.573,0.573,0,0,0,.072.253H17.1a10.04,10.04,0,0,0,1.044.181,0.13,0.13,0,0,1-.072.036c-0.515.367-2.114,0.087-2.736,0.036V8.568L15.806,8.6a2.4,2.4,0,0,1,.4.832c0.147,0.631-.106,1.283,0,1.845h0.036a2.266,2.266,0,0,1,.54-0.036,9.81,9.81,0,0,1,1.836-.145,0.439,0.439,0,0,0,.144-0.326,4.406,4.406,0,0,0,.108-1.049,27.184,27.184,0,0,1,.576-2.93A0.822,0.822,0,0,1,20.054,6a1.543,1.543,0,0,1,.36.289,5.153,5.153,0,0,1,.36,1.375,16.737,16.737,0,0,1,.468,3.292,0.541,0.541,0,0,0,.432.145,1.937,1.937,0,0,0,.468.036,8.116,8.116,0,0,0,1.656.109,1.5,1.5,0,0,0,.036-0.434,2.653,2.653,0,0,1,.36-2.171A0.767,0.767,0,0,1,24.663,8.568Z"/>
</svg>
