<svg xmlns="http://www.w3.org/2000/svg" width="40" height="40" viewBox="0 0 40 40">
  <defs>
    <style>
      .cls-1 {
        fill: #fff;
        fill-rule: evenodd;
      }
    </style>
  </defs>
  <path id="Color_Fill_1" data-name="Color Fill 1" class="cls-1" d="M19.921,4h0.118V4.158c0.582,0.292.352,0.762,1.262,0.752a6.053,6.053,0,0,1,1.933.079V5.069H22.959a4.955,4.955,0,0,1-2.091.158V5.307a0.112,0.112,0,0,0-.039.04c0.391,0.166.248,0.809,0.473,1.148a0.426,0.426,0,0,0,.237.04V6.771H21.381V6.851a0.268,0.268,0,0,1,.039.158h0.158a0.624,0.624,0,0,1,.04.2,0.847,0.847,0,0,1-.276.04l0.04,0.238h0.237V7.722H21.381V7.959h0.237V8.2a0.721,0.721,0,0,1-.237.04v0.2h0.237V8.672a0.112,0.112,0,0,0-.04.04h-0.2v0.2h0.237V9.186H21.381v1.663l0.079,0.04a7.747,7.747,0,0,0,2.091.238,0.561,0.561,0,0,1,.592-0.436,0.457,0.457,0,0,1,.079.277,0.431,0.431,0,0,1,.04.238,10.667,10.667,0,0,1,2.288.2c0.475,0.1.987,0.023,1.42,0.119H28.4c0.724,0.161,1.607.079,2.327,0.238l0.947,0.04c1.3,0.288,2.812.108,4.1,0.4l0.71,0.04c1.057,0.246,2.892.365,3.353,1.148,0.423,0.718-.369,1.755-0.671,2.059-1.5,1.5-3.651,1.454-6.114,1.94V17.5c-0.379.036-.789,0.177-1.144,0.2a0.394,0.394,0,0,0-.237-0.119c-0.218.032-.5,0.056-0.75,0.119-0.865.215-1.864,0.252-2.722,0.475-0.832.216-1.7,0.191-2.485,0.4-0.832.216-1.7,0.187-2.485,0.4a3.148,3.148,0,0,0-.868.158,2.459,2.459,0,0,0-.671,1.267c-0.118.323-.22,0.738-0.316,1.109-0.081.314-.009,0.7-0.079,0.99-0.131.538,0.04,1.136-.079,1.623-0.107.438,0.015,0.919-.079,1.306-0.121.5-.005,1.081-0.118,1.544v0.475a6.986,6.986,0,0,0-.158,1.821,14.477,14.477,0,0,0,1.7.554A15.615,15.615,0,0,1,26.233,31.4a3.361,3.361,0,0,1,.394.515c0.074,1.866-2.148,1.522-3.708,1.861-0.439.1-.744-0.117-1.1-0.04-0.449.1-1.021,0-1.381,0.079A2.474,2.474,0,0,0,20.118,35H19.882a0.113,0.113,0,0,0-.04-0.04c0.014-.471-0.08-1.15-0.513-1.188a5.073,5.073,0,0,0-1.144-.04c-0.375-.083-0.692.141-1.144,0.04-1.2-.268-2.407-0.157-3.274-0.752a0.963,0.963,0,0,1-.434-1.069,1.745,1.745,0,0,1,1.026-.871A15.512,15.512,0,0,1,17.4,29.814c0.475-.159,1.718-0.277,1.736-0.831a13.822,13.822,0,0,1-.2-2.177c-0.441-2.021.021-4.7-.631-6.493a2.545,2.545,0,0,0-.71-1.188,3.113,3.113,0,0,0-.868-0.158c-0.623-.149-1.3-0.156-1.972-0.317-1.114-.267-2.313-0.276-3.471-0.554-0.544-.131-1.15-0.133-1.736-0.277a7.853,7.853,0,0,0-1.42-.238c-0.033.129,0.019,0.061-.079,0.119A4.331,4.331,0,0,0,6.9,17.5V17.382H6.824A1.889,1.889,0,0,0,6.312,17.3c-0.544-.132-1.144-0.134-1.736-0.277-2.091-.5-4.05-0.843-4.536-2.93-0.233-1,.943-1.271,1.578-1.465,0.88-.268,1.953-0.294,2.959-0.515L6,12.037a11.677,11.677,0,0,1,2.13-.2V10.929H8.205V11.8H8.245v0.04l7.3-.633c0.033-.129-0.019-0.061.079-0.119v0.119H15.74a2.242,2.242,0,0,1,.04-0.475h0.079a0.427,0.427,0,0,1,.237-0.04,0.713,0.713,0,0,0,.592.436,14.6,14.6,0,0,1,1.815-.2,5.062,5.062,0,0,0,.079-1.742h-0.2a0.728,0.728,0,0,1-.039-0.238,0.72,0.72,0,0,1,.237-0.04v-0.2h-0.2a0.728,0.728,0,0,1-.039-0.238,0.72,0.72,0,0,1,.237-0.04v-0.2h-0.2a0.855,0.855,0,0,1-.039-0.277h0.276V7.722H18.343v-0.2a0.846,0.846,0,0,1,.276-0.04V7.246H18.383V7.009H18.54a0.725,0.725,0,0,0,.039-0.238H18.422V6.534H18.7a7.728,7.728,0,0,1,.395-1.307,5.7,5.7,0,0,1-2.446-.2l1.46-.158,1.144,0.04A5.4,5.4,0,0,0,19.921,4Z"/>
</svg>
