<svg xmlns="http://www.w3.org/2000/svg" width="40" height="40" viewBox="0 0 40 40">
  <defs>
    <style>
      .cls-1 {
        fill: #fff;
        fill-rule: evenodd;
      }
    </style>
  </defs>
  <path id="Color_Fill_1" data-name="Color Fill 1" class="cls-1" d="M19.889,3h0.178V3.225a1.153,1.153,0,0,1,.667,1.263,11.494,11.494,0,0,1,2.047-.09l1.735,0.18V4.714H24.427a7.209,7.209,0,0,1-2.892.18v0.09c1.075,0.558.268,2.1,0.623,3.157H21.98q-0.022.586-.044,1.172a0.128,0.128,0,0,1,.044.045,3.729,3.729,0,0,1,1.29.631h3.2l5.784,0.09a18.536,18.536,0,0,1,3.382.045c0.96,0.215,2.265-.215,3.115.09A2.205,2.205,0,0,1,39.911,11.7,3.777,3.777,0,0,1,39.6,14a2.851,2.851,0,0,1-.756,1.263,7.749,7.749,0,0,1-2.225.676c-1.439.442-3.011,0.731-4.449,1.173a12.419,12.419,0,0,0-2.18.541,0.885,0.885,0,0,0-.089.18,11.844,11.844,0,0,0-2.892.586c-0.953.3-1.932,0.439-2.848,0.721-0.8.246-1.742,0.258-2.18,0.857a7.423,7.423,0,0,0-.89,2.39v0.631c-0.086.4-.047,0.957-0.133,1.353-0.141.643,0,1.381-.134,1.984q-0.044,1.037-.089,2.074c-0.091.42,0.013,0.927-.089,1.4a5.527,5.527,0,0,0-.089,1.578l3.693,0.947c1.2,0.347,2.571.4,3.426,1.082l0.267,0.406a2.611,2.611,0,0,1-.089.947,4.173,4.173,0,0,1-1.112.631l-2.314.316a5.9,5.9,0,0,1-1.646.225,2.884,2.884,0,0,0-.445.135,3.158,3.158,0,0,1-1.246.045,6.812,6.812,0,0,1-.623-1.488H20.245V34.7a6.181,6.181,0,0,1-.267,2.3H19.933a9.511,9.511,0,0,1-.267-2.345H19.488a4.7,4.7,0,0,1-.667,1.443A4.4,4.4,0,0,1,17,36.008c-1.314-.319-3.014-0.264-4.183-0.767a1.046,1.046,0,0,1-.845-1.308c0.232-.839,1.2-0.931,2.047-1.172,1.731-.492,3.6-0.9,5.339-1.353a2.065,2.065,0,0,0,.044-0.586,3.068,3.068,0,0,1-.044-0.676c-0.142-.617.013-1.436-0.133-2.074-0.142-.617.013-1.436-0.133-2.074-0.137-.593.008-1.37-0.134-1.984-0.093-.4.017-0.9-0.089-1.353a8.07,8.07,0,0,0-.8-2.525c-0.662-.987-3.269-1.168-4.583-1.578-0.883-.276-1.848-0.551-2.67-0.721-0.214-.044-0.186.134-0.4,0.09a1.2,1.2,0,0,1-.445-0.18L9.922,17.61A10.287,10.287,0,0,0,8.5,17.294c-1.028-.321-2.171-0.551-3.2-0.857C4.31,16.146,3.334,16.011,2.4,15.716a4.524,4.524,0,0,1-1.246-.406C-0.111,14.436-.55,11.219.979,10.305a3.479,3.479,0,0,1,1.557-.18L5.25,10.08,5.295,8.05A2.586,2.586,0,0,1,5.339,7.1L5.384,10.08l11.3-.09a3.662,3.662,0,0,1,1.29-.631V8.141H17.8c0.13-1.331-.379-2.682.712-3.2V4.894H18.243a5.261,5.261,0,0,1-2.091-.045,1.871,1.871,0,0,1-.623-0.09,0.163,0.163,0,0,1-.044-0.09l0.133-.045a2.749,2.749,0,0,1,.8-0.09,12.657,12.657,0,0,1,2.759-.045V4.443h0.044a1.6,1.6,0,0,1,.311-1.082,0.6,0.6,0,0,0,.311-0.225A0.233,0.233,0,0,0,19.889,3Z"/>
</svg>
