<svg xmlns="http://www.w3.org/2000/svg" width="40" height="40" viewBox="0 0 40 40">
  <defs>
    <style>
      .cls-1 {
        fill: #fff;
        fill-rule: evenodd;
      }
    </style>
  </defs>
  <path id="Color_Fill_1" data-name="Color Fill 1" class="cls-1" d="M19.955,2H20.09V2.178a1.473,1.473,0,0,1,.764,1.338l2.292-.045,2.562,0.223V3.783H25.393a4.055,4.055,0,0,1-1.124.134,8.3,8.3,0,0,1-3.371.045V4.051c0,0.038.022,0.039,0.045,0.178a2.27,2.27,0,0,1,.494.045l0.36,0.49a4.952,4.952,0,0,1,.27,1.561V7.306a12.659,12.659,0,0,1,.135,2.853,0.219,0.219,0,0,1,.135.045,0.7,0.7,0,0,1,.045.357,0.829,0.829,0,0,1-.27.045,6.166,6.166,0,0,0,0,.669,0.829,0.829,0,0,0,.27.045V10.962a0.572,0.572,0,0,1,.18.045,0.842,0.842,0,0,0,0,.312l2.7,0.045a1.643,1.643,0,0,1,.629-1.2,0.5,0.5,0,0,1,.4.045,1.136,1.136,0,0,1,.584.8,1.726,1.726,0,0,0,.045.357,1.642,1.642,0,0,0,.674.045,0.966,0.966,0,0,0,.449.045A9.472,9.472,0,0,0,28,10.2h0.18v0.045h0.045a4.5,4.5,0,0,0-.045,1.2L30.472,11.5a9.5,9.5,0,0,1,1.708.045c0.736,0.158,1.657-.1,2.337.045,0.722,0.155,1.626-.1,2.292.045,0.94,0.2,2.392-.318,2.876.312a3.137,3.137,0,0,1-.045,2.675c-0.592,1.126-1.182.872-2.517,1.2-0.919.229-1.907,0.294-2.876,0.535a8.339,8.339,0,0,1-1.393.267V16.8a6.417,6.417,0,0,0-.944.178,0.458,0.458,0,0,1-.315-0.134,3.275,3.275,0,0,0-.494.134c-0.563.144-1.141,0.175-1.663,0.312-1.359.357-2.806,0.425-4.135,0.758-0.951.238-2.376,0.119-2.876,0.8-1.031,1.408-.563,3.256-0.989,5.217q-0.022.535-.045,1.07l-0.315,3.121a4.253,4.253,0,0,0-.09,1.159,3.053,3.053,0,0,0,1.348.357c1.061,0.295,2.264.465,3.326,0.758,0.842,0.232,1.664.094,1.663,1.159-0.269.434-.166,1.238-0.854,1.248a12.139,12.139,0,0,1-1.843.134c-1.228.265-2.716,0.086-3.91,0.357a1.983,1.983,0,0,0-.27.357v1.026a1.818,1.818,0,0,1-.135.134,6.72,6.72,0,0,0-.18,1.115A3.164,3.164,0,0,1,20,37a7.479,7.479,0,0,0-.4-2.185c-0.2-.605.235-1.178-0.36-1.382a4.524,4.524,0,0,0-1.393-.134c-0.551-.118-1.194,0-1.8-0.134a16.3,16.3,0,0,0-2.741-.223,5.341,5.341,0,0,1-.45-0.758,1.241,1.241,0,0,1,.135-1.293,3.571,3.571,0,0,1,1.393-.357c0.929-.258,1.988-0.418,2.921-0.669,0.463-.124,1.654-0.16,1.8-0.535a14,14,0,0,1-.225-2.229c-0.295-1.317-.108-2.854-0.4-4.191-0.094-.425-0.008-0.876-0.09-1.248l-0.045-1.07a3.783,3.783,0,0,0-.989-2.006,5.288,5.288,0,0,0-1.618-.357c-0.947-.241-1.972-0.281-2.966-0.535-2.569-.657-5.138-0.825-7.685-1.471-0.82-.208-1.653-0.241-2.427-0.446A5.507,5.507,0,0,1,.9,15.331,3.2,3.2,0,0,1,.18,12.255a1.758,1.758,0,0,1,.584-0.58c1.5-.034,3.026-0.086,4.584-0.089a2.91,2.91,0,0,0,.045-0.8c0.163-.266-0.075-0.9.09-1.159l0.045,1.917,6.337-.089a5.826,5.826,0,0,1,0-1.2A0.231,0.231,0,0,1,12,10.2v0.045h0.045a6.689,6.689,0,0,0-.045,1.2l1.124-.045V11.363h0.045a1.4,1.4,0,0,1,.584-1.2,0.5,0.5,0,0,1,.4.045,1.236,1.236,0,0,1,.629,1.159l2.7-.045a0.832,0.832,0,0,0,0-.312,0.128,0.128,0,0,0,.045-0.045h0.135v0.357h0.315Q17.955,10.4,17.933,9.49c0-.229.06-0.555,0.045-0.713a9.778,9.778,0,0,1,.045-2.586c0.166-.735.031-1.692,0.674-1.917a0.839,0.839,0,0,1,.4-0.045l0.045-.268H19.1a3.371,3.371,0,0,1-.944.089c-1.2.252-2.644-.236-3.82-0.268V3.694L16.9,3.471l2.292,0.045a2.379,2.379,0,0,1,.36-1.07A0.97,0.97,0,0,0,19.955,2Z"/>
</svg>
