<svg xmlns="http://www.w3.org/2000/svg" width="40" height="40" viewBox="0 0 40 40">
  <defs>
    <style>
      .cls-1 {
        fill: #fff;
        fill-rule: evenodd;
      }
    </style>
  </defs>
  <path id="Color_Fill_1" data-name="Color Fill 1" class="cls-1" d="M21.19,3.828V4.01a4.047,4.047,0,0,1,.778.046c0.141,0.415.459,0.792,0.595,1.279A19.458,19.458,0,0,1,22.7,9.768a7.416,7.416,0,0,1,1.556.366c0.742,0.211,1.5.315,2.2,0.5l7.689,0.777V8.762h0.092v2.7a7.668,7.668,0,0,1,1.648.183c0.591,0.133,1.2.062,1.739,0.183a5.382,5.382,0,0,1,1.968.365,1.676,1.676,0,0,1,.32,1.1c0.209,0.95-.235,2.793-0.778,3.107a4.653,4.653,0,0,1-1.144.229c-0.768.2-1.613,0.24-2.426,0.457-2.918.778-6.092,0.99-9.016,1.736-0.912.233-1.838,0.273-2.7,0.5l-0.641.091a4.292,4.292,0,0,0-1.327,1.051A13.082,13.082,0,0,1,21.6,23.2c-0.188.838-.1,1.724-0.275,2.513l-0.091,1.279c-0.261,1.153-.223,2.457-0.458,3.61a10.548,10.548,0,0,1,2.38.64l1.556,0.366c0.917,0.3,1.946.573,2.883,0.822a3.573,3.573,0,0,1,0,2.239,7.419,7.419,0,0,1-2.2.594c-1.094.279-2.339,0.409-3.433,0.685-0.45.114-.886,0.084-1.282,0.228V36.086a6.5,6.5,0,0,1-.183-2.239H20.366a8.782,8.782,0,0,1-.275,2.01c-0.1.433,0.03,0.783-.091,1.142H19.954V36.954a2.774,2.774,0,0,1-.046-0.777,10.988,10.988,0,0,1-.32-2.33H19.451a10.768,10.768,0,0,1-.183,2.33H19.222a5.973,5.973,0,0,0-1.465-.274c-1.257-.337-2.682-0.441-3.936-0.777a2.505,2.505,0,0,1-1.465-.457,3.555,3.555,0,0,1-.046-2.193A51.828,51.828,0,0,1,17.3,31.06a7.356,7.356,0,0,0,1.876-.548,13.165,13.165,0,0,1-.275-2.239c-0.4-1.751-.255-3.735-0.641-5.483a14.014,14.014,0,0,0-.229-2.33c-0.486-1.287-2.68-1.168-4.119-1.553-3.156-.846-6.585-1.063-9.748-1.873-1.513-.387-3.317-0.1-3.89-1.462C0,14.911-.2,12.621.366,12.189a3.88,3.88,0,0,1,1.51-.32c0.816-.183,1.8-0.136,2.609-0.32l0.87-.046c1.811-.408,3.869-0.231,5.675-0.64a14.3,14.3,0,0,0,1.785-.091c0.714-.255,1.524-0.288,2.288-0.5a11.985,11.985,0,0,1,2.151-.5c-0.028-1.575-.168-3.578.275-4.752a1.554,1.554,0,0,1,.549-0.96,1.66,1.66,0,0,1,.686-0.046V3.873a8.562,8.562,0,0,0-1.556.137,7.391,7.391,0,0,1-2.517-.228A0.484,0.484,0,0,1,14.6,3.554h0.092a4.435,4.435,0,0,1,1.19-.091,14.974,14.974,0,0,1,2.975.046C18.963,2.976,19.506,2,20.137,2a8.533,8.533,0,0,1,.778.96L21.1,3.508h0.686A3.7,3.7,0,0,1,22.7,3.462a7.335,7.335,0,0,1,2.655.137,0.156,0.156,0,0,0,.046.091,0.157,0.157,0,0,1-.046.091,3.441,3.441,0,0,1-1.236.183A12.7,12.7,0,0,1,21.19,3.828ZM13,31.974a0.164,0.164,0,0,1,.046.091H13V31.974Zm13.913,0a0.164,0.164,0,0,1,.046.091H26.911V31.974Z"/>
</svg>
