<svg xmlns="http://www.w3.org/2000/svg" width="40" height="40" viewBox="0 0 40 40">
  <defs>
    <style>
      .cls-1 {
        fill: #fff;
        fill-rule: evenodd;
      }
    </style>
  </defs>
  <path id="Color_Fill_1" data-name="Color Fill 1" class="cls-1" d="M21.263,4.04V4.312h0.505a5.084,5.084,0,0,1,.643.952A11.941,11.941,0,0,1,22.549,9.3a10.173,10.173,0,0,1,1.194.408c1,0.333,2.017.614,2.985,0.907l8.129,0.816V9.3h0.092V11.43H35.04a5.335,5.335,0,0,0,1.332.136c1.223,0.27,2.809.069,3.4,0.952A2.093,2.093,0,0,1,39.4,14.83c-0.905,1.205-2.156,1.6-3.812,2.086a5.484,5.484,0,0,1-1.148.272v0.181l-1.975.408a0.218,0.218,0,0,0-.046-0.136,9,9,0,0,1-1.975.453c-1.673.47-3.5,0.753-5.19,1.224a8.345,8.345,0,0,0-2.48.68,3.316,3.316,0,0,0-.964,1.678c-0.095.252-.248,0.6-0.322,0.861L21.309,24.85l-0.459,4.4a6.485,6.485,0,0,1,1.056.544c0.52,0.268,1.02.444,1.561,0.68,0.3,0.132.617,0.367,0.918,0.5a9.022,9.022,0,0,1,2.067,1,1.447,1.447,0,0,1,.276,1.5c-0.283.849-1.905,1.14-2.893,1.36l-1.148.045a4.379,4.379,0,0,1-1.883,0,10.039,10.039,0,0,0-.505-1.224V33.69a6.566,6.566,0,0,0-.046,1.179,9.325,9.325,0,0,0-.138,2.04,0.279,0.279,0,0,0-.092.091H19.977V36.955a1.466,1.466,0,0,1-.092-0.861c-0.3-.489.007-1.925-0.184-2.4H19.656a2.127,2.127,0,0,1-.643,1.269c-1.846-.174-3.754-0.022-5.052-0.861a1.314,1.314,0,0,1-.827-1.36c0.159-.855.917-1.021,1.607-1.36,1.435-.7,3.066-1.338,4.409-2.176-0.191-.6-0.036-1.291-0.184-1.95-0.132-.59-0.04-1.259-0.184-1.9-0.187-.839-0.058-1.922-0.276-2.766a6.785,6.785,0,0,0-.964-2.267c-0.557-.738-1.772-0.712-2.8-1-1.689-.468-3.515-0.76-5.189-1.224a10.788,10.788,0,0,1-2.067-.5v0.181l-1.929-.408V17.188a4.3,4.3,0,0,1-1.148-.272c-1.693-.489-3.121-0.948-4-2.222A1.887,1.887,0,0,1,.689,12.11c1.037-.636,2.889-0.318,4.271-0.635,0.686-.157,1.463-0.056,2.2-0.227,0.44-.1,1.082-0.06,1.47-0.136,1.1-.215,2.4-0.154,3.49-0.408l0.918-.045c0.414-.1.856-0.28,1.24-0.408,0.813-.27,1.626-0.444,2.388-0.725a1.369,1.369,0,0,0,.781-0.317,6.128,6.128,0,0,1-.046-1.587c0-1.437-.057-3.341,1.378-3.31V4.04H18.737a2.474,2.474,0,0,1-1.24.091A16.949,16.949,0,0,0,14.6,3.949V3.9H14.65a3.793,3.793,0,0,1,1.1-.181,15.454,15.454,0,0,1,3.123-.136A2.517,2.517,0,0,1,19.7,2.136,2.2,2.2,0,0,0,19.977,2a0.158,0.158,0,0,1,.092.045A1.971,1.971,0,0,1,20.987,3c0.18,0.344,0,.583.551,0.589a4.855,4.855,0,0,1,1.056,0,11.077,11.077,0,0,1,2.664.317V3.949H24.845a3.745,3.745,0,0,1-1.01.091A11.343,11.343,0,0,1,21.263,4.04Z"/>
</svg>
