<svg width="100" height="100" viewBox="0 0 100 100" xmlns="http://www.w3.org/2000/svg">
<defs>
<style>.cls-1 {
        fill: #e3e3e3;
      }
      .cls-2, .cls-4 {
        fill: #c8313e;
      }
      .cls-3 {
        fill: #4aa657;
      }
      .cls-4 {
        fill-rule: evenodd;
      }</style>
</defs>
<rect class="cls-1" y="17" width="16" height="67"/>
<rect class="cls-2" x="16" y="17" width="84" height="44"/>
<rect class="cls-3" x="16" y="61" width="84" height="23"/>
<path class="cls-4" d="M4.309,17H5.081v1.456a3.222,3.222,0,0,0,.753.017,1.638,1.638,0,0,1,.019.469v0.987a4.028,4.028,0,0,0,.941.017,1.814,1.814,0,0,1,.019.519v1.071a3.3,3.3,0,0,0,.772.017,1.813,1.813,0,0,1,.019.519v1.054H7.64a3.161,3.161,0,0,0,.828,0V21.568a3.3,3.3,0,0,1,.772-0.017l0.019-.05a2.354,2.354,0,0,0,0-.418,6.074,6.074,0,0,1,.019-1.138h0.753a0.071,0.071,0,0,1,.038-0.017V18.506a3.216,3.216,0,0,1,.753-0.017,1.637,1.637,0,0,0,.019-0.469V17.034a3.216,3.216,0,0,1,.753-0.017V17.05a0.984,0.984,0,0,1,.019.4v1.021a3.216,3.216,0,0,0,.753.017v1.439a3.166,3.166,0,0,0,.96.034V20a0.851,0.851,0,0,1,.019.351v0.87a0.621,0.621,0,0,1-.019.3v0.017a3.418,3.418,0,0,0,.79.034V21.6a1.076,1.076,0,0,1,.019.435v1.1a3.546,3.546,0,0,0,.828.017,1.815,1.815,0,0,1,.019.519v1.1a3.631,3.631,0,0,1-.847.017v1.556a3.3,3.3,0,0,1-.772.017l-0.019.05a2.325,2.325,0,0,0,0,.4,5.988,5.988,0,0,1-.019,1.121H12.384a1.812,1.812,0,0,0-.019.519V29.55a3.3,3.3,0,0,1-.772.017,1.64,1.64,0,0,0-.019.468v0.987H10.821a1.637,1.637,0,0,1-.019-0.469v-0.97a3.3,3.3,0,0,0-.772-0.017,1.813,1.813,0,0,1-.019-0.519V27.96a6.052,6.052,0,0,1-.7-0.017,1.755,1.755,0,0,1-.019-0.5V26.387a3.46,3.46,0,0,0-.809-0.017,0.071,0.071,0,0,0-.038-0.017v-1.54a0.059,0.059,0,0,1-.019-0.033H7.622a1.754,1.754,0,0,0-.019.5v1.054a3.3,3.3,0,0,1-.772.017,1.755,1.755,0,0,0-.019.5V27.91a4.118,4.118,0,0,1-.96.017v1.606a3.3,3.3,0,0,1-.772.017,1.638,1.638,0,0,0-.019.469v0.971a3.3,3.3,0,0,1-.772.017,0.056,0.056,0,0,0-.019-0.033,1.563,1.563,0,0,0,.019-0.452,5.054,5.054,0,0,0-.019-0.971H3.5a1.813,1.813,0,0,1-.019-0.519V27.944H3.443a3.425,3.425,0,0,0-.753-0.017V26.371a3.546,3.546,0,0,0-.828-0.017,0.111,0.111,0,0,0-.038-0.034,1.754,1.754,0,0,0,.019-0.5V24.8a2.621,2.621,0,0,0-.809-0.034,1.813,1.813,0,0,1-.019-0.519v-1.1a3.546,3.546,0,0,1,.828-0.017,1.755,1.755,0,0,0,.019-0.5V21.568a0.059,0.059,0,0,0,.019-0.034H2.653V20.5a3.069,3.069,0,0,1,.019-0.569H3.518a1.638,1.638,0,0,0,.019-0.468V18.489a3.216,3.216,0,0,1,.753-0.017,1.7,1.7,0,0,0,.019-0.485V17Zm3.313,1.155H8.356a2.045,2.045,0,0,1,.019.586v1.238A3.216,3.216,0,0,1,7.622,20,1.851,1.851,0,0,1,7.6,19.46v-0.9A1.4,1.4,0,0,1,7.622,18.155Zm7.265,1.857H14.153a2.046,2.046,0,0,1-.019-0.586V18.188h0.038a5.268,5.268,0,0,1,.715,0,3.926,3.926,0,0,1,.019.736A9.078,9.078,0,0,1,14.887,20.012ZM1.862,20.1H1.109a1.987,1.987,0,0,1-.019-0.569V18.305a0.059,0.059,0,0,0,.019-0.034H1.843a2.046,2.046,0,0,1,.019.586V20.1Zm1.656,1.473v1.59a3.546,3.546,0,0,1-.828.017,1.165,1.165,0,0,0-.038.468V24.7H2.69a3.535,3.535,0,0,0,.772.017,1.813,1.813,0,0,1,.019.519v1.054a3.546,3.546,0,0,0,.828.017,1.813,1.813,0,0,1,.019.519v1.054a2.621,2.621,0,0,0,.809.034,0.109,0.109,0,0,1,.038-0.034v-1.59H5.928a0.108,0.108,0,0,1,.038-0.034v-1.54H6.793a1.7,1.7,0,0,0,.019-0.485V23.208a3.546,3.546,0,0,0-.828-0.017,1.812,1.812,0,0,1-.019-0.519V21.618a0.059,0.059,0,0,1-.019-0.034H5.194a1.812,1.812,0,0,1-.019-0.519V20.012a0.059,0.059,0,0,1-.019-0.034H4.328a1.755,1.755,0,0,0-.019.5v1.054a0.109,0.109,0,0,0-.038.034H3.518Zm5.59,3.146a8.4,8.4,0,0,1,.96.017,1.755,1.755,0,0,1,.019.5v1.054a3.467,3.467,0,0,0,.809.017,0.072,0.072,0,0,0,.038.017v1.59h0.038a3.08,3.08,0,0,0,.7.017,1.811,1.811,0,0,0,.019-0.519V26.32a3.3,3.3,0,0,1,.772-0.017,1.756,1.756,0,0,0,.019-0.5V24.748a3.62,3.62,0,0,1,.847-0.017V24.7a0.981,0.981,0,0,0,.019-0.4,5.572,5.572,0,0,0-.019-1.088H12.5a1.815,1.815,0,0,1-.019-0.519V21.618a3.3,3.3,0,0,0-.772-0.017,1.811,1.811,0,0,1-.019-0.519V20.012A3.216,3.216,0,0,0,10.934,20a1.752,1.752,0,0,0-.019.5v1.054a2.484,2.484,0,0,1-.772.034,1.756,1.756,0,0,0-.019.5v1.054a0.059,0.059,0,0,0-.019.034,4.2,4.2,0,0,1-.979.017v0.017H9.109v1.506ZM4.29,24.7V23.208a3.222,3.222,0,0,1,.753-0.017v0.034a0.985,0.985,0,0,1,.019.4v1.054A3.3,3.3,0,0,1,4.29,24.7Zm6.588-1.489h0.7a1.164,1.164,0,0,1,.038.469v1.037a3.216,3.216,0,0,1-.753.017,4.971,4.971,0,0,1-.019-1.1A1.014,1.014,0,0,1,10.878,23.208Zm-9.75,4.016a4.669,4.669,0,0,1,.734.017v1.807a3.136,3.136,0,0,1-.734.017A1.155,1.155,0,0,1,1.09,28.6V27.659A1.063,1.063,0,0,1,1.128,27.224Zm6.513,0h0.7a1.411,1.411,0,0,1,.038.552v1.272a3.216,3.216,0,0,1-.753.017A2.046,2.046,0,0,1,7.6,28.479V27.241A0.068,0.068,0,0,0,7.64,27.224Zm7.247,1.857H14.153a2.045,2.045,0,0,1-.019-0.586V27.258h0.038a2.52,2.52,0,0,1,.715,0v0.034a1.214,1.214,0,0,1,.019.485C14.906,28.2,14.928,28.738,14.887,29.081ZM9.56,30.587a1.547,1.547,0,0,1,.414.034,0.663,0.663,0,0,1,.019.284v0.686a2.271,2.271,0,0,1,.376.017v0.971a1.475,1.475,0,0,1-.358.017,4.69,4.69,0,0,0-.019,1.054,1.165,1.165,0,0,1-.414.034,3.552,3.552,0,0,0-.019.92L9.5,34.62a1,1,0,0,1-.339.017,6.845,6.845,0,0,1-.9-0.017,0.055,0.055,0,0,0-.019-0.033,2.914,2.914,0,0,0,0-.9H8.13a1.9,1.9,0,0,1-.4.033,0.288,0.288,0,0,0-.038.234v0.686a5.353,5.353,0,0,1-1.28.033,3,3,0,0,1-.038-0.954H6.342c-0.048-.015-0.29,0-0.376-0.017V32.662a0.059,0.059,0,0,1-.019-0.033H5.589V32.612a0.664,0.664,0,0,1-.019-0.284V31.642a1.562,1.562,0,0,1,.376-0.017V31.591a0.664,0.664,0,0,0,.019-0.285V30.6A0.067,0.067,0,0,0,6,30.587a1.225,1.225,0,0,0,.376,0v-0.92a7.4,7.4,0,0,1,1.3-.017,3.622,3.622,0,0,1,.019.937H7.735a1.353,1.353,0,0,0,.508-0.017,0.278,0.278,0,0,0,.019-0.151,4.519,4.519,0,0,1,0-.787,7.149,7.149,0,0,1,1.261-.017,0.071,0.071,0,0,0,.038.017v0.954ZM12.8,29.65h1.28a3.622,3.622,0,0,1,.019.937,0.068,0.068,0,0,1,.038.017,1.79,1.79,0,0,1,.339,0c0.046,0.022.013-.007,0.038,0.034a5.77,5.77,0,0,1,.019.971,1.393,1.393,0,0,0,.339.017l0.019,0.05a0.568,0.568,0,0,1,.019.251,3.512,3.512,0,0,1-.019.686,1.393,1.393,0,0,1-.339.017l-0.019.05a6.683,6.683,0,0,0,0,1l-0.056.017a1.2,1.2,0,0,1-.377.017v0.937H14.059a1.069,1.069,0,0,1-.358.017H12.8a3.625,3.625,0,0,1-.019-0.937,1.556,1.556,0,0,0-.376-0.017,0.072,0.072,0,0,0-.038-0.017,4.691,4.691,0,0,1-.019-1.054,1.475,1.475,0,0,0-.358-0.017,3.832,3.832,0,0,1-.019-0.987,1.475,1.475,0,0,1,.358-0.017,3.9,3.9,0,0,0,.019-1,0.211,0.211,0,0,0,.056-0.034,1.017,1.017,0,0,0,.376,0A3.6,3.6,0,0,1,12.8,29.65Zm-9.675.971h0.4a3.9,3.9,0,0,1,.019,1,1.024,1.024,0,0,0,.376.033,3.762,3.762,0,0,1,.019.971,1.475,1.475,0,0,1-.358.017,3.49,3.49,0,0,0-.038,1.071,1.643,1.643,0,0,1-.4.017l-0.019.05c-0.059.148,0.027,0.687-.019,0.9H1.824a3.622,3.622,0,0,1-.019-0.937,1.73,1.73,0,0,0-.414-0.017,4.778,4.778,0,0,1-.019-1.071H1.335A0.958,0.958,0,0,0,1,32.646V31.675a1.393,1.393,0,0,1,.339-0.017,0.072,0.072,0,0,1,.038-0.017V30.654a1.165,1.165,0,0,1,.414-0.033,3.553,3.553,0,0,0,.019-0.92l0.056-.017A1,1,0,0,1,2.2,29.667a5.845,5.845,0,0,1,.9.017v0.034A3.727,3.727,0,0,1,3.123,30.621ZM6.869,31.24a2.152,2.152,0,0,0-.019.636,1.648,1.648,0,0,1-.4.017,1.689,1.689,0,0,0-.019.5,1.648,1.648,0,0,0,.4.017,2.152,2.152,0,0,1,.019.636,1.388,1.388,0,0,0,.339.017,2.151,2.151,0,0,0,.019-0.636,1.556,1.556,0,0,1,.376-0.017,0.242,0.242,0,0,0,.038-0.067,2.644,2.644,0,0,1-.019-0.4,0.511,0.511,0,0,0-.376-0.05,2.153,2.153,0,0,1-.019-0.636H7.189V31.24H6.869Zm1.863,0a2.094,2.094,0,0,0-.019.619H8.676C8.6,31.9,8.4,31.849,8.318,31.893a1.134,1.134,0,0,0-.019.468,1.643,1.643,0,0,0,.4.017,2.151,2.151,0,0,1,.019.636,0.812,0.812,0,0,0,.32.033,0.071,0.071,0,0,1,.038-0.017V32.411a0.059,0.059,0,0,0,.019-0.033h0.4A1.631,1.631,0,0,0,9.5,31.893a1.562,1.562,0,0,0-.376-0.017,0.071,0.071,0,0,0-.038-0.017,2.036,2.036,0,0,1-.019-0.6H9.052V31.24H8.732Zm4.875,1.171h0.414V32.378a1.086,1.086,0,0,0,.019-0.452A0.11,0.11,0,0,1,14,31.893h-0.4a3.287,3.287,0,0,0-.019-0.653h-0.32a2.153,2.153,0,0,0-.019.636,1.649,1.649,0,0,1-.4.017l-0.019.05a2.041,2.041,0,0,0,0,.435,0.8,0.8,0,0,0,.4.033,2.153,2.153,0,0,1,.019.636,1.388,1.388,0,0,0,.339.017V33.031A2.166,2.166,0,0,0,13.607,32.411Zm-10.973.034c0.125-.011.277,0,0.414-0.017v-0.5h-0.4a2.152,2.152,0,0,1-.019-0.636l-0.056-.017a0.587,0.587,0,0,0-.3,0v0.636H2.238c-0.08.043-.278-0.011-0.358,0.033a1.18,1.18,0,0,0-.019.485H1.9a0.759,0.759,0,0,0,.339,0,1.658,1.658,0,0,1,.038.653,1.306,1.306,0,0,0,.32.017,0.11,0.11,0,0,1,.038-0.034V32.445Zm2.428,2.443H5.815a1.115,1.115,0,0,1,.038.452v1a3.3,3.3,0,0,0,.772.017v0.034a1.076,1.076,0,0,1,.019.435v1.088a3.631,3.631,0,0,0,.847.017v0.033a1.076,1.076,0,0,1,.019.435V39.49a3.869,3.869,0,0,0,.9.017A1.755,1.755,0,0,0,8.431,39V37.95a3.631,3.631,0,0,1,.847-0.017,1.755,1.755,0,0,0,.019-0.5V36.377a3.3,3.3,0,0,1,.772-0.017,1.637,1.637,0,0,0,.019-0.469V34.9a3.3,3.3,0,0,1,.772-0.017,1.641,1.641,0,0,0,.019-0.469V33.449a3.216,3.216,0,0,1,.753-0.017,1.636,1.636,0,0,1,.019.468v0.971a3.381,3.381,0,0,0,.791.017v0.033a0.81,0.81,0,0,1,.019.335v0.77a1.55,1.55,0,0,0,0,.3,2.857,2.857,0,0,0,.772.033v0.034a1.076,1.076,0,0,1,.019.435v1.088a3.546,3.546,0,0,0,.828.017,1.756,1.756,0,0,1,.019.5V39.49a3.137,3.137,0,0,0,.734.017,1.812,1.812,0,0,1,.019.519v1.088H14.812a3.08,3.08,0,0,1-.7.017,1.755,1.755,0,0,0-.019.5v1.037a3.3,3.3,0,0,1-.772.017,1.636,1.636,0,0,0-.019.468v0.971a0.11,0.11,0,0,0-.038.033,2.272,2.272,0,0,0-.772,0,1.636,1.636,0,0,0-.019.469V45.6a3.137,3.137,0,0,1-.734.017,1.116,1.116,0,0,1-.038-0.452v-1a5.936,5.936,0,0,1-.772-0.017,0.414,0.414,0,0,1-.056-0.351V42.7a3.3,3.3,0,0,0-.772-0.017,1.812,1.812,0,0,1-.019-0.519V41.1a3.216,3.216,0,0,1,.753-0.017,1.164,1.164,0,0,0,.038-0.469V39.573a3.71,3.71,0,0,0-.866-0.017,3.411,3.411,0,0,0-.019.887,3.546,3.546,0,0,1-.828.017,1.993,1.993,0,0,0-.038.753V43.02H9.09a2.743,2.743,0,0,1-.339,0,1.214,1.214,0,0,0-.038.485V44.56a7.041,7.041,0,0,0,1.242.017,5.063,5.063,0,0,1,.038,1.238,3.63,3.63,0,0,0,.847.017v0.033a3.655,3.655,0,0,1,.019.87h0.79a1.164,1.164,0,0,1,.038.468v1h0.038a2.623,2.623,0,0,0,.734,0V46.769a0.059,0.059,0,0,0,.019-0.034h0.79a2.954,2.954,0,0,0,.019-0.87,0.059,0.059,0,0,0,.019-0.033h0.753a3.764,3.764,0,0,0,.019-0.971,0.059,0.059,0,0,0,.019-0.034h0.885a0.055,0.055,0,0,0,.019.034,3.615,3.615,0,0,0-.019.669v1.305a4.127,4.127,0,0,1,0,.72,3.264,3.264,0,0,1-.791.033,0.07,0.07,0,0,1-.038.017v1.238a0.059,0.059,0,0,0-.019.033H13.381a2.839,2.839,0,0,0-.019.837,0.059,0.059,0,0,0-.019.033,3.625,3.625,0,0,1-.847.017,1.637,1.637,0,0,0-.019.469V51.22a3.625,3.625,0,0,0,.847.017l0.019,0.05a3.144,3.144,0,0,1,.019.82,3.3,3.3,0,0,0,.772.017v0.033a0.848,0.848,0,0,1,.019.351v0.887h0.038a3.645,3.645,0,0,0,.791.017,0.055,0.055,0,0,0,.019.033,4.082,4.082,0,0,0-.019.753v1.456a4.117,4.117,0,0,1,0,.519H14.1V56.139a0.618,0.618,0,0,1-.019-0.268V55.185a3.3,3.3,0,0,0-.772-0.017V55.135a3.394,3.394,0,0,1-.019-0.87H12.478V54.232a0.984,0.984,0,0,1-.019-0.4V52.792H12.421a2.626,2.626,0,0,0-.734,0v1.439a2.691,2.691,0,0,1-.828.034V54.3c-0.065.163,0.028,0.651-.019,0.87H10.012a1.34,1.34,0,0,0-.019.385V56.39a5.247,5.247,0,0,1-1.261.034,1.755,1.755,0,0,0-.019.5v1.021a0.956,0.956,0,0,0,.358.033c0.029-.012,0,0,0.056,0v2.527a0.424,0.424,0,0,0,.207.033,3.243,3.243,0,0,1,.64,0,3.411,3.411,0,0,1,.019.887,3.705,3.705,0,0,0,.866.017,1.7,1.7,0,0,0,.019-0.485v-1a2.278,2.278,0,0,0-.715-0.034c-0.029.012,0,0-.056,0a1.811,1.811,0,0,1-.019-0.519V58.331a3.3,3.3,0,0,1,.772-0.017,1.64,1.64,0,0,0,.019-0.468V56.875l0.056-.017c0.117-.037.6,0,0.772-0.017V55.42a2.415,2.415,0,0,1,.753-0.034,1.64,1.64,0,0,1,.019.468v0.971a0.109,0.109,0,0,1,.038.033,6.62,6.62,0,0,1,.791.017V58.3a3.3,3.3,0,0,0,.772.017,1.756,1.756,0,0,1,.019.5v1.038a3.057,3.057,0,0,0,.715.017,0.07,0.07,0,0,0,.038.017v1.59a3.137,3.137,0,0,1-.734.017,1.756,1.756,0,0,0-.019.5V63.05a3.546,3.546,0,0,1-.828.017,1.755,1.755,0,0,0-.019.5v1.037a0.059,0.059,0,0,0-.019.034H12.478a0.111,0.111,0,0,1-.038.034,13.777,13.777,0,0,1,0,1.439H11.668a1.641,1.641,0,0,0-.019.469v0.971a3.222,3.222,0,0,1-.753.017,1.636,1.636,0,0,1-.019-0.468V66.129a3.3,3.3,0,0,0-.772-0.017,1.636,1.636,0,0,1-.019-0.468V64.656a3.3,3.3,0,0,0-.772-0.017,1.755,1.755,0,0,1-.019-0.5V63.083a3.625,3.625,0,0,0-.847-0.017,1.755,1.755,0,0,1-.019-0.5V61.511a3.869,3.869,0,0,0-.9-0.017,1.755,1.755,0,0,0-.019.5v1.038a0.059,0.059,0,0,0-.019.033H6.662a1.754,1.754,0,0,0-.019.5v1.037a0.059,0.059,0,0,0-.019.034H5.871a1.638,1.638,0,0,0-.019.468v0.971a2.552,2.552,0,0,1-.791.033v0.034a2.284,2.284,0,0,0,0,.385,5.559,5.559,0,0,1-.019,1.037H4.309a1.52,1.52,0,0,1-.019-0.435V66.146a0.058,0.058,0,0,1-.019-0.034H3.5a1.638,1.638,0,0,1-.019-0.468V64.656a3.3,3.3,0,0,0-.772-0.017,1.755,1.755,0,0,1-.019-0.5V63.083a3.546,3.546,0,0,0-.828-0.017,1.754,1.754,0,0,1-.019-0.5V61.527a2.418,2.418,0,0,0-.753-0.034V59.887a3.136,3.136,0,0,1,.734-0.017V59.837A0.808,0.808,0,0,0,1.843,59.5V58.666a1.744,1.744,0,0,1,0-.318,2.857,2.857,0,0,1,.772-0.034V58.281a0.985,0.985,0,0,0,.019-0.4V56.859a5.161,5.161,0,0,0,.809-0.017V55.42A2.415,2.415,0,0,1,4.2,55.386l0.019,0.05a2.248,2.248,0,0,1,0,.368,5.56,5.56,0,0,0,.019,1.038H4.271c0.183,0.1.635-.051,0.772,0.033a0.985,0.985,0,0,1,.019.4V58.3a3.3,3.3,0,0,0,.772.017v0.034a1.076,1.076,0,0,1,.019.435V59.9a3.222,3.222,0,0,1-.753.017,0.071,0.071,0,0,1-.038.017v1.489a3.949,3.949,0,0,0,.922.017A3.481,3.481,0,0,0,6,60.54a0.068,0.068,0,0,0,.038-0.017,4.778,4.778,0,0,0,.715.017,1.992,1.992,0,0,0,.038-0.753V57.98H6.831a2.723,2.723,0,0,1,.339,0,1.214,1.214,0,0,0,.038-0.485V56.44a6.544,6.544,0,0,0-1.167-.017A0.071,0.071,0,0,0,6,56.407V55.2a0.109,0.109,0,0,1-.038-0.033H5.137V54.282a3.466,3.466,0,0,0-.809-0.017A1.638,1.638,0,0,1,4.309,53.8V52.809a2.415,2.415,0,0,0-.753-0.033,0.07,0.07,0,0,1-.038.017v1.439a2.621,2.621,0,0,1-.809.034,3.412,3.412,0,0,0-.019.887,3.3,3.3,0,0,1-.772.017,3.832,3.832,0,0,0-.019.987,3.79,3.79,0,0,1-.885.017A3.025,3.025,0,0,1,1,55.3V53.412a5.293,5.293,0,0,0,.828-0.017V53.361a0.847,0.847,0,0,0,.019-0.351V52.14a3.3,3.3,0,0,1,.772-0.017V52.09a3.227,3.227,0,0,0,.019-0.837,3.455,3.455,0,0,1,.809-0.017V49.764H2.653a2.9,2.9,0,0,1-.019-0.853,0.059,0.059,0,0,1-.019-0.033H1.862a1.343,1.343,0,0,1-.019-0.385V47.639a0.059,0.059,0,0,1-.019-0.033H1.787A3.651,3.651,0,0,0,1,47.588V44.844a3.789,3.789,0,0,1,.885-0.017,3.832,3.832,0,0,1,.019.987,3.3,3.3,0,0,0,.772.017,3.412,3.412,0,0,1,.019.887,3.381,3.381,0,0,0,.791.017,1.164,1.164,0,0,1,.038.468v1H3.556a3.188,3.188,0,0,0,.715.017,1.165,1.165,0,0,0,.038-0.469v-1a3.466,3.466,0,0,1,.809-0.017,3.412,3.412,0,0,0,.019-0.887,3.546,3.546,0,0,1,.828-0.017A5.064,5.064,0,0,0,6,44.593H6.041a1,1,0,0,1,.339-0.017H7.189a1.755,1.755,0,0,0,.019-0.5V43.054A0.952,0.952,0,0,0,6.85,43.02c-0.029.012,0,0-.056,0V40.494a2.348,2.348,0,0,0-.734-0.033c-0.029.012,0,0-.056,0V39.573a3.954,3.954,0,0,0-.922-0.017,1.7,1.7,0,0,0-.019.485v1.021H5.1a3.309,3.309,0,0,0,.734.017,1.812,1.812,0,0,1,.019.519v1.054a0.059,0.059,0,0,0-.019.034H5.081a1.637,1.637,0,0,0-.019.468v0.971H5.043v0.017a7.066,7.066,0,0,0-.809.017v0.034a0.942,0.942,0,0,0-.019.385c0,0.328.029,0.749,0,1.021a3.136,3.136,0,0,1-.734.017,1.115,1.115,0,0,1-.038-0.452v-1H3.405a3.535,3.535,0,0,0-.772-0.017,8.156,8.156,0,0,0-.019-1.456H1.862a1.754,1.754,0,0,1-.019-0.5V41.163a0.059,0.059,0,0,1-.019-0.033H1.109a1.814,1.814,0,0,1-.019-0.519v-1.1H1.805a1.214,1.214,0,0,0,.038-0.485V37.95a3.546,3.546,0,0,1,.828-0.017,1.755,1.755,0,0,0,.019-0.5V36.377a3.3,3.3,0,0,1,.772-0.017,1.638,1.638,0,0,0,.019-0.469V34.9a3.376,3.376,0,0,1,.791-0.017V34.854a0.984,0.984,0,0,0,.019-0.4v-1a3.216,3.216,0,0,1,.753-0.017v0.033a0.985,0.985,0,0,1,.019.4v1.021Zm-3.953.485H1.824a1.411,1.411,0,0,1,.038.552V37.18a2.415,2.415,0,0,1-.753.033,1.852,1.852,0,0,1-.019-0.535v-0.9A1.4,1.4,0,0,1,1.109,35.373Zm6.513,0a4.8,4.8,0,0,1,.753.017V37.2H8.337a3.188,3.188,0,0,1-.715.017,1.155,1.155,0,0,1-.038-0.469V35.808A1.063,1.063,0,0,1,7.622,35.373Zm6.531,0.017h0.715v0.017h0.019a15,15,0,0,1,.019,1.79,2.415,2.415,0,0,1-.753.033,1.853,1.853,0,0,1-.019-0.535v-0.9A1.4,1.4,0,0,1,14.153,35.39ZM1.034,42.97a5.544,5.544,0,0,1,.866.017v1.138a0.109,0.109,0,0,0-.038.033A5.1,5.1,0,0,0,1,44.141V42.987A0.068,0.068,0,0,0,1.034,42.97ZM14.04,44.141V42.987a3.546,3.546,0,0,1,.828-0.017l0.019,0.05a0.706,0.706,0,0,1,.019.3,4.2,4.2,0,0,1-.019.82,0.067,0.067,0,0,0-.038.017A7.8,7.8,0,0,0,14.04,44.141ZM7.509,45.614v0.6a1.73,1.73,0,0,1-.414.017,0.071,0.071,0,0,1-.038.017v1.322a6.553,6.553,0,0,1-1.167.017,0.071,0.071,0,0,1-.038.017v1.238a0.059,0.059,0,0,0-.019.033H5.062V49.73a2.139,2.139,0,0,1-.678.033,1.638,1.638,0,0,0-.019.469V51.22a2.812,2.812,0,0,0,.659.017,2.731,2.731,0,0,1,.038.887H5.833v0.033a0.847,0.847,0,0,1,.019.351v0.887H5.89a1,1,0,0,0,.339.017H7.038a1.461,1.461,0,0,1,.019.418v0.92H7.095c0.089,0.048.307-.016,0.4,0.034a2.09,2.09,0,0,1,.019.6h0.96V55.369H8.487v-0.6H8.9a1.065,1.065,0,0,0,.038-0.435v-0.92H8.977a9.494,9.494,0,0,1,1.129,0,5.262,5.262,0,0,0,.038-1.272,3.3,3.3,0,0,1,.772-0.017,2.954,2.954,0,0,0,.019-0.87,2.892,2.892,0,0,1,.678-0.017V49.764H10.953a2.951,2.951,0,0,1-.019-0.87,3.3,3.3,0,0,0-.772-0.017,1.345,1.345,0,0,1-.019-0.385v-0.87a4.948,4.948,0,0,0-1.2-.033V46.267a1.3,1.3,0,0,0-.452-0.034v-0.6A4.192,4.192,0,0,0,7.509,45.614ZM7.622,47.17H8.3V47.2a1.074,1.074,0,0,1,.019.435A6.343,6.343,0,0,1,8.3,48.877H7.622V48.843A1.073,1.073,0,0,1,7.6,48.408,6.341,6.341,0,0,1,7.622,47.17Zm1.223,1.372c0.15-.007.511-0.014,0.659,0a3.413,3.413,0,0,1,.019.887,0.058,0.058,0,0,0-.019.033H9.127a1.631,1.631,0,0,0-.019.485,1.026,1.026,0,0,1-.376.033,4.606,4.606,0,0,0-.019,1.037,1.393,1.393,0,0,0,.339.017,0.072,0.072,0,0,0,.038.017,1.631,1.631,0,0,1,.019.485,1.648,1.648,0,0,0,.4.017v0.033a3.4,3.4,0,0,1,.019.87,2.072,2.072,0,0,1-.659.034,2.037,2.037,0,0,1-.019-0.6,1.231,1.231,0,0,0-.433-0.033,1.689,1.689,0,0,1-.019-0.5l-0.056-.017c-0.025-.01-0.767-0.01-0.791,0a0.889,0.889,0,0,0-.038.485,0.059,0.059,0,0,0-.019.034h-0.4a0.072,0.072,0,0,1-.038.017v0.586a2.072,2.072,0,0,1-.659.034,2.8,2.8,0,0,1-.038-0.9,0.059,0.059,0,0,0,.019-0.033h0.4a1.69,1.69,0,0,0,.019-0.5H6.831c0.08-.043.278,0.011,0.358-0.033a0.71,0.71,0,0,0,.019-0.3V50a1.643,1.643,0,0,0-.4-0.017,1.689,1.689,0,0,1-.019-0.5,1.729,1.729,0,0,0-.414-0.017,3.482,3.482,0,0,1-.019-0.9l0.056-.017c0.011-.005.594,0,0.6,0a1.227,1.227,0,0,1,.038.6H7.095a1.153,1.153,0,0,0,.4.017v0.034a1.225,1.225,0,0,1,.019.5H7.546a3.768,3.768,0,0,0,.809.017,1.318,1.318,0,0,0,.038-0.535,1.729,1.729,0,0,1,.414-0.017A1.561,1.561,0,0,0,8.845,48.542ZM1,49.714H1.843a1.987,1.987,0,0,1,.019.569v1.2a0.058,0.058,0,0,0-.019.033H1.015A2.045,2.045,0,0,1,1,50.935V49.714Zm5.251,0V51.4a2.807,2.807,0,0,1-.659.017,0.242,0.242,0,0,1-.038-0.067,0.946,0.946,0,0,0,.019-0.385V50.1a1.692,1.692,0,0,1,0-.351A2.389,2.389,0,0,1,6.248,49.714Zm3.426,0h0.678a1.875,1.875,0,0,1,.019.535v1.138a0.057,0.057,0,0,0-.019.033H9.692a1.929,1.929,0,0,1-.019-0.552V49.714Zm4.461,0h0.847a0.055,0.055,0,0,0,.019.033,3.41,3.41,0,0,0-.019.636c0,0.365-.008.766,0.019,1.1a2.761,2.761,0,0,1-.847.033,2.045,2.045,0,0,1-.019-0.586V49.714ZM7.64,52.24H8.28a1.312,1.312,0,0,1,.038.519V53.93a0.059,0.059,0,0,0-.019.033H7.622V53.93A1.025,1.025,0,0,1,7.6,53.512,5.1,5.1,0,0,1,7.64,52.24Zm-6.607,4.6c0.171,0.049.681-.043,0.828,0.017a0.509,0.509,0,0,1,.038.318v0.837H1.862a3.38,3.38,0,0,1-.866,0V56.859A0.067,0.067,0,0,0,1.034,56.842ZM14.04,56.859a6.171,6.171,0,0,1,.809,0c0.046,0.022.013-.007,0.038,0.033a0.615,0.615,0,0,1,.019.268,3.669,3.669,0,0,1-.019.82,2.357,2.357,0,0,1-.809.05,0.071,0.071,0,0,0-.038-0.017V56.859Zm0.113,6.911h0.715a1.41,1.41,0,0,1,.038.552v1.221c-0.013.013-.025,0.037-0.038,0.05a3.194,3.194,0,0,1-.715.017,1.852,1.852,0,0,1-.019-0.535v-0.9A1.4,1.4,0,0,1,14.153,63.77Zm-13.044.017H1.824a1.41,1.41,0,0,1,.038.552v1.255a2.348,2.348,0,0,1-.734.034A0.071,0.071,0,0,0,1.09,65.61V64.372A2.042,2.042,0,0,1,1.109,63.786Zm6.513,0a4.814,4.814,0,0,1,.753.017V65.61H8.337a3.188,3.188,0,0,1-.715.017,1.155,1.155,0,0,1-.038-0.469V64.221A1.063,1.063,0,0,1,7.622,63.786Zm-4.5,6.593a6.472,6.472,0,0,1-.019.937H3.067a1,1,0,0,1-.339.017,5.858,5.858,0,0,1-.9-0.017,3.552,3.552,0,0,1-.019-0.92,1.648,1.648,0,0,0-.4-0.017,3.28,3.28,0,0,1-.038-1.021H1.335c-0.071-.038-0.249.006-0.32-0.034A0.664,0.664,0,0,1,1,69.041V68.354a2.282,2.282,0,0,0,.376-0.017V67.284a1.729,1.729,0,0,1,.414-0.017,3.622,3.622,0,0,0,.019-0.937,7.4,7.4,0,0,1,1.3-.017v0.034a3.835,3.835,0,0,1,.019.9,1.648,1.648,0,0,0,.4.017,4.692,4.692,0,0,1,.019,1.054,1.021,1.021,0,0,0,.376.034,3.762,3.762,0,0,1,.019.971,1.475,1.475,0,0,1-.358.017,3.281,3.281,0,0,0-.038,1.021A1.73,1.73,0,0,1,3.123,70.379Zm6.87-.97a5.189,5.189,0,0,1-.019,1.021h-0.4a3.622,3.622,0,0,0-.019.937H9.523a1.069,1.069,0,0,1-.358.017H8.28l-0.019-.05a5.61,5.61,0,0,1,0-.87,1.233,1.233,0,0,0-.433-0.034,0.087,0.087,0,0,0-.094-0.017,0.288,0.288,0,0,0-.038.234v0.686a7.393,7.393,0,0,1-1.3.017,3.622,3.622,0,0,1-.019-0.937H6.342A1.333,1.333,0,0,0,6,70.4a0.322,0.322,0,0,1-.038-0.251V69.409a0.059,0.059,0,0,1-.019-0.034H5.589V69.358a0.664,0.664,0,0,1-.019-0.285V68.388a1.556,1.556,0,0,1,.376-0.017V68.338a0.71,0.71,0,0,0,.019-0.3V67.3H6a1.2,1.2,0,0,1,.376-0.017v-0.92a5.348,5.348,0,0,1,1.28-.033,3,3,0,0,1,.038.954H7.735a3.3,3.3,0,0,0,.508,0V67.25a6.235,6.235,0,0,0,.019-0.837c0.024-.041-0.008-0.011.038-0.033a0.8,0.8,0,0,1,.282-0.017,5.205,5.205,0,0,1,.922.017c0.083,0.034.056,0.132,0.056,0.234v0.653l0.056,0.017a2.763,2.763,0,0,0,.339,0,3.629,3.629,0,0,1,.038,1.1,1.475,1.475,0,0,0,.358.017,3.836,3.836,0,0,1,.019.987H10.332A0.958,0.958,0,0,1,9.993,69.409Zm2.8-3.079a8.358,8.358,0,0,1,1.3.017v0.937h0.038c0.048,0.015.29,0,.376,0.017a3.9,3.9,0,0,1,.019,1c-0.013.026,0,0,0,.05a1.388,1.388,0,0,0,.339.017,0.182,0.182,0,0,0,.038.05,8.4,8.4,0,0,1-.019.937,1.389,1.389,0,0,1-.339.017l-0.019.05c-0.065.163,0.031,0.736-.019,0.971a0.067,0.067,0,0,0-.038.017,1.219,1.219,0,0,0-.377,0v0.92a7.393,7.393,0,0,1-1.3.017,3.625,3.625,0,0,1-.019-0.937H12.741a1.77,1.77,0,0,0-.376-0.017,3.9,3.9,0,0,1-.019-1,1.47,1.47,0,0,0-.358-0.017,3.831,3.831,0,0,1-.019-0.987,1.47,1.47,0,0,1,.358-0.017,4.691,4.691,0,0,0,.019-1.054L12.4,67.3c0.08-.043.278,0.011,0.358-0.034C12.854,67.131,12.727,66.523,12.8,66.33Zm-9.75,2.744v-0.5c-0.133-.013-0.3-0.007-0.414-0.017V67.936A0.883,0.883,0,0,0,2.295,67.9a2.152,2.152,0,0,0-.019.636,0.214,0.214,0,0,1-.094.033,0.809,0.809,0,0,0-.32,0v0.485a1.562,1.562,0,0,0,.376.017,0.071,0.071,0,0,0,.038.017v0.636H2.314a0.587,0.587,0,0,0,.3,0,2.152,2.152,0,0,0,.019-0.636A1.729,1.729,0,0,1,3.048,69.074Zm3.821-1.138a2.152,2.152,0,0,0-.019.636,1.648,1.648,0,0,1-.4.017,1.689,1.689,0,0,0-.019.5,1.648,1.648,0,0,0,.4.017,2.152,2.152,0,0,1,.019.636,1.388,1.388,0,0,0,.339.017,2.152,2.152,0,0,0,.019-0.636,1.73,1.73,0,0,1,.414-0.017,1.69,1.69,0,0,0,.019-0.5,1.725,1.725,0,0,0-.414-0.017,2.153,2.153,0,0,1-.019-0.636H7.189V67.936H6.869Zm1.863,0a2.267,2.267,0,0,0-.019.669,1.648,1.648,0,0,1-.4.017,1.631,1.631,0,0,0-.019.485,1.562,1.562,0,0,0,.376.017,0.071,0.071,0,0,0,.038.017V69.76a0.059,0.059,0,0,1,.019.033h0.32a2.153,2.153,0,0,0,.019-0.636l0.056-.017c0.08-.043.278,0.011,0.358-0.034A1.134,1.134,0,0,0,9.5,68.639a1.729,1.729,0,0,0-.414-0.017V68.589a2.249,2.249,0,0,1-.019-0.636H9.052V67.936H8.732Zm4.875,1.171H14a1.169,1.169,0,0,0,.038-0.485,0.059,0.059,0,0,1-.019-0.033H13.607a3.287,3.287,0,0,0-.019-0.653h-0.32a2.152,2.152,0,0,0-.019.636,1.648,1.648,0,0,1-.4.017,0.108,0.108,0,0,1-.038.033,2.169,2.169,0,0,1,.019.469,1.649,1.649,0,0,0,.4.017,2.152,2.152,0,0,1,.019.636,1.388,1.388,0,0,0,.339.017V69.727A2.165,2.165,0,0,0,13.607,69.107Zm-2.033.87v1.439a3.3,3.3,0,0,0,.772.017,1.811,1.811,0,0,1,.019.519V73.04a4.113,4.113,0,0,0,.96.017V73.09a1.033,1.033,0,0,1,.019.418c0,0.355-.032.806,0,1.1a3.3,3.3,0,0,0,.772.017,1.811,1.811,0,0,1,.019.519V76.2h0.828a1.815,1.815,0,0,1,.019.519v1.1a3.546,3.546,0,0,1-.828.017,1.755,1.755,0,0,0-.019.5V79.4a0.059,0.059,0,0,0-.019.033H13.362a0.11,0.11,0,0,1-.038.034,1.737,1.737,0,0,1,.019.5,5.566,5.566,0,0,1-.019,1.071H12.4a1.164,1.164,0,0,0-.038.468v1H11.631a1.637,1.637,0,0,0-.019.469V83.95a0.059,0.059,0,0,0-.019.034H10.859a1.637,1.637,0,0,1-.019-0.469V82.528a3.216,3.216,0,0,0-.753-0.017,1.64,1.64,0,0,1-.019-0.469v-0.97H10.031a3.425,3.425,0,0,0-.753-0.017V81.022a0.853,0.853,0,0,1-.019-0.351V79.817a1.745,1.745,0,0,0,0-.318,2.136,2.136,0,0,0-.772-0.05,1.812,1.812,0,0,1-.019-0.519V77.876H8.431a3.161,3.161,0,0,0-.828,0v1.556a3.3,3.3,0,0,1-.772.017,1.813,1.813,0,0,0-.019.519v1.071a4.028,4.028,0,0,1-.941.017,1.638,1.638,0,0,0-.019.469v0.987a3.216,3.216,0,0,1-.753.017,1.7,1.7,0,0,0-.019.485V84H4.309V82.544a3.216,3.216,0,0,0-.753-0.017,1.638,1.638,0,0,1-.019-0.469V81.088a3.71,3.71,0,0,0-.866-0.017,1.813,1.813,0,0,1-.019-0.519V79.465H1.881V79.432A1.076,1.076,0,0,1,1.862,79v-1.1a3.54,3.54,0,0,0-.828-0.017,1.813,1.813,0,0,1-.019-0.519v-1.1a3.376,3.376,0,0,1,.791-0.017,1.214,1.214,0,0,0,.038-0.485V74.7H1.824V74.68H1.843a3.246,3.246,0,0,1,.828-0.033,1.812,1.812,0,0,0,.019-0.519V73.073a5.053,5.053,0,0,0,.791-0.017v-1.59a3.381,3.381,0,0,1,.791-0.017V71.417a0.988,0.988,0,0,0,.019-0.4c0-.328-0.029-0.749,0-1.021H5.043a1.638,1.638,0,0,1,.019.469v0.971a3.3,3.3,0,0,0,.772.017,1.813,1.813,0,0,1,.019.519v1.1H6.793a1.755,1.755,0,0,1,.019.5v1.054a3.3,3.3,0,0,0,.772.017,1.754,1.754,0,0,1,.019.5V76.2a3.546,3.546,0,0,0,.828.017V76.186a1.076,1.076,0,0,0,.019-0.435v-1.1H8.487a3.651,3.651,0,0,1,.791-0.017,1.755,1.755,0,0,0,.019-0.5V73.073l0.056-.017a3.028,3.028,0,0,1,.659-0.017V71.45a3.3,3.3,0,0,1,.772-0.017,1.64,1.64,0,0,0,.019-0.469V69.994A3.3,3.3,0,0,1,11.574,69.978Zm2.579,1.941h0.715a0.185,0.185,0,0,0,.038.05,16.473,16.473,0,0,1-.019,1.774H14.849a2.519,2.519,0,0,1-.715,0V72.5A2.041,2.041,0,0,1,14.153,71.919Zm-13.025.017H1.843a2.045,2.045,0,0,1,.019.586v1.238H1.824a3.08,3.08,0,0,1-.7.017,1.155,1.155,0,0,1-.038-0.469V72.37A1.063,1.063,0,0,1,1.128,71.935Zm6.494,0H8.356a2.045,2.045,0,0,1,.019.586v1.222a2.348,2.348,0,0,1-.734.033A0.071,0.071,0,0,0,7.6,73.759V72.521A2.041,2.041,0,0,1,7.622,71.935Zm1.487,4.351v1.506a4.2,4.2,0,0,0,.979.017,1.261,1.261,0,0,1,.038.5V79.4a3.216,3.216,0,0,0,.753.017,1.213,1.213,0,0,1,.038.485v1.088a3.216,3.216,0,0,0,.753.017,1.811,1.811,0,0,0,.019-0.519V79.415a3.3,3.3,0,0,1,.772-0.017,1.815,1.815,0,0,0,.019-0.519V77.809a3.625,3.625,0,0,1,.847-0.017V77.759a0.981,0.981,0,0,0,.019-0.4,5.572,5.572,0,0,0-.019-1.088H12.5a1.755,1.755,0,0,1-.019-0.5V74.713a3.3,3.3,0,0,0-.772-0.017,1.811,1.811,0,0,1-.019-0.519V73.09a3.057,3.057,0,0,0-.715-0.017,0.072,0.072,0,0,1-.038.017v1.59H10.9a3.651,3.651,0,0,1-.79.017,1.752,1.752,0,0,0-.019.5v1.054l-0.056.017A4.689,4.689,0,0,1,9.109,76.286Zm-5.59,3.146H4.271a1.214,1.214,0,0,1,.038.485V81a3.625,3.625,0,0,0,.847.017V80.988a1.076,1.076,0,0,0,.019-0.435V79.432a3.3,3.3,0,0,1,.772-0.017V79.382a1.076,1.076,0,0,0,.019-0.435V77.825a3.546,3.546,0,0,1,.828-0.017,1.7,1.7,0,0,0,.019-0.485V76.3H6.793V76.286H5.965v-1.54a2.554,2.554,0,0,0-.791-0.034v-1.59a2.621,2.621,0,0,0-.809-0.034,1.263,1.263,0,0,0-.038.5V74.68A3.546,3.546,0,0,1,3.5,74.7a1.812,1.812,0,0,0-.019.519v1.054a3.381,3.381,0,0,1-.791.017,0.071,0.071,0,0,1-.038.017v1.489a2.758,2.758,0,0,0,.847.034,1.813,1.813,0,0,1,.019.519v1.088Zm7.341-3.163h0.734a1.7,1.7,0,0,1,.019.485v1a2.345,2.345,0,0,1-.734.033,0.072,0.072,0,0,0-.038-0.017V76.755A1.693,1.693,0,0,1,10.859,76.269ZM4.29,76.3H5.043a1.7,1.7,0,0,1,.019.485v0.987a0.058,0.058,0,0,0-.019.034H4.309a1.7,1.7,0,0,1-.019-0.485V76.3ZM1.862,80.9v1.807a3.216,3.216,0,0,1-.753.017V82.695a1.259,1.259,0,0,1-.019-0.5V80.921A3.3,3.3,0,0,1,1.862,80.9Zm12.272,0.084h0.753v0.034a0.93,0.93,0,0,1,.019.385v1a0.526,0.526,0,0,1-.057.4,4.035,4.035,0,0,1-.715,0V80.988ZM7.622,81H8.356a2.046,2.046,0,0,1,.019.586v1.238a3.222,3.222,0,0,1-.753.017A1.852,1.852,0,0,1,7.6,82.31v-0.9A1.4,1.4,0,0,1,7.622,81Z"/>
</svg>
