<svg xmlns="http://www.w3.org/2000/svg" width="40" height="40" viewBox="0 0 40 40">
  <defs>
    <style>
      .cls-1 {
        fill: #fff;
        fill-rule: evenodd;
      }
    </style>
  </defs>
  <path id="Color_Fill_1" data-name="Color Fill 1" class="cls-1" d="M19.553,5.448a0.259,0.259,0,0,1,.053-0.16,0.466,0.466,0,0,1,.315-0.373,0.183,0.183,0,0,1,.21,0,1.373,1.373,0,0,1,.368.532h2.47a1.086,1.086,0,0,0,.421.16V5.5c0.438-.709.112-1.886,0.788-2.342,0.847-.629,1.012,1.143,1.156,1.7a27.816,27.816,0,0,1,.578,6.813,2.346,2.346,0,0,0,.683.053,2.794,2.794,0,0,0,.631.053c0.8,0.179,1.716.021,2.576,0.213,2.046,0.456,4.471.133,6.518,0.585h0.631c1.517,0.339,2,0,3,.958L40,14.018A7.1,7.1,0,0,1,38.739,15.4c-0.794.5-1.835,0.7-2.576,1.224-2.633,1.877-5.2,3.924-7.832,5.8-0.89.635-1.753,1.292-2.628,1.916a13.488,13.488,0,0,0-1.209.8v0.8H24.442V25.887a1.478,1.478,0,0,0-.158-0.585,5.051,5.051,0,0,1-1.1.8c-0.477.34-.944,0.772-1.419,1.118a1.215,1.215,0,0,0-.841.852,2.662,2.662,0,0,0-.052.639,8.033,8.033,0,0,0-.21,2.555A34.778,34.778,0,0,0,24.81,32.7c0.9,0.339,1.809.484,1.787,1.756a2.011,2.011,0,0,1-.368-0.106V34.4h0.105a1,1,0,0,0,.21.16,1.557,1.557,0,0,1-.526.745c-0.84.551-4.362,0.329-5.834,0.319a2.014,2.014,0,0,0-.158.373H19.974c-0.062-.535-0.66-0.373-1.209-0.373H15.138c-0.653-.393-1.5-0.059-1.63-1.118a0.2,0.2,0,0,0,.158-0.107c-0.268.009-.241-0.1-0.21-0.479a3.428,3.428,0,0,1,.473-0.692A16.839,16.839,0,0,1,17.5,31.9a7.471,7.471,0,0,0,1.892-.639V30.518a14.844,14.844,0,0,1-.263-2.715c-0.856-.505-1.65-1.173-2.47-1.756a3.758,3.758,0,0,0-1.051-.745,1.444,1.444,0,0,1-.053.639,1.505,1.505,0,0,0-.105-0.8A7.255,7.255,0,0,0,14.4,24.4c-0.875-.623-1.738-1.281-2.628-1.916-2.756-1.966-5.441-4.1-8.2-6.068-0.594-.423-1.471-0.51-2.1-0.9A4.313,4.313,0,0,1,.263,14.444,5.333,5.333,0,0,0,0,13.911c0.29-1.232,1.25-.956,2.47-1.224,0.988-.217,2.184-0.042,3.206-0.266A21.179,21.179,0,0,1,9.2,12.1V9.068a0.882,0.882,0,0,0-.315.053V8.429H8.936a0.981,0.981,0,0,0,.053.479,0.351,0.351,0,0,0,.21.053,0.564,0.564,0,0,1,.368,0,1.288,1.288,0,0,1,.053-0.585V9.121H9.566A0.45,0.45,0,0,0,9.3,9.068V12.1c1.593-.053,3.141-0.356,4.783-0.373a26,26,0,0,1,.578-6.706c0.164-.626.119-1.658,0.683-1.863a0.556,0.556,0,0,1,.578,0,7.664,7.664,0,0,1,.578,1.6,1.491,1.491,0,0,0,.21.852C17.1,5.3,18.843,5.442,19.553,5.448ZM21.13,11.3l1.84,0.16a14.248,14.248,0,0,1,.105-2.874V7.9l0.263-2.023H23.233a7.735,7.735,0,0,1-2.576.106c-0.008.223-.091,0.173-0.421,0.16a0.189,0.189,0,0,1-.105.053V6.247h0.736V6.353c0.091,0.148.062,0.443,0.158,0.585a1.024,1.024,0,0,0,.21.106c0.055,0.821.105,1.663,0.105,2.555v1.011a1.38,1.38,0,0,1-.21.106V11.3ZM16.715,5.927L16.978,8.11q0.053,1.676.105,3.353l1.787-.16V10.718l-0.158-.053V9.653a15.2,15.2,0,0,1,.105-2.661c0.188-.022.132,0.025,0.21-0.106,0.091-.148.062-0.443,0.158-0.585,0.148-.09.537-0.013,0.683-0.106L19.343,6.14V5.981C18.47,6.021,17.59,5.936,16.715,5.927ZM3.522,16.253a8.933,8.933,0,0,0,1.209.852c0.753,0.534,1.49,1.1,2.26,1.65,1.929,1.367,3.787,2.908,5.729,4.258,0.722,0.5,1.4,1.044,2.1,1.544a1.863,1.863,0,0,0,.683.372h0.053V24.876a3.573,3.573,0,0,1-.315-1.011c-0.315-.963-0.485-2.089-0.736-3.193-0.114-.5-0.006-1.046-0.158-1.49Zm22.129,2.927a16.678,16.678,0,0,1-.683,4.311,9.572,9.572,0,0,0-.473,1.49H24.6a6.158,6.158,0,0,1,1.262-.9c0.995-.722,1.98-1.459,3-2.182,1.758-1.251,3.483-2.568,5.256-3.832a22.284,22.284,0,0,1,2.365-1.756V16.253H36.373a3.225,3.225,0,0,1-.788.213c-0.873.29-1.81,0.439-2.733,0.745-1.507.5-3.12,0.765-4.678,1.277A11.893,11.893,0,0,1,25.651,19.181Zm-8.936.692a12.823,12.823,0,0,1-.578,3.46,6.113,6.113,0,0,0-.473,1.81c1.206,0.7,2.174,1.8,3.417,2.448V26.9a9.5,9.5,0,0,1-.105-2.129c-0.1-.682.1-1.652-0.053-2.4a10.084,10.084,0,0,1-.105-1.969C18.088,20.319,17.469,19.945,16.715,19.873ZM21.183,20.4c0.012,2.444-.157,4.937-0.263,7.239h0.053a5.047,5.047,0,0,1,1.1-.8c0.477-.34.944-0.772,1.419-1.118a1.237,1.237,0,0,0,.894-0.958,5.018,5.018,0,0,1-.421-1.384,12.281,12.281,0,0,1-.631-3.513ZM20.762,34.19a0.347,0.347,0,0,0,.052.213A0.348,0.348,0,0,0,20.762,34.19Zm3.942,0a0.347,0.347,0,0,0,.053.213A0.347,0.347,0,0,0,24.7,34.19Zm-9.409.373a0.188,0.188,0,0,0,.105.053A0.189,0.189,0,0,0,15.3,34.563Zm3.837,0a0.189,0.189,0,0,0,.105.053A0.189,0.189,0,0,0,19.133,34.563Zm1.63,0a0.188,0.188,0,0,0,.105.053A0.188,0.188,0,0,0,20.762,34.563Zm3.89,0a0.188,0.188,0,0,0,.105.053A0.188,0.188,0,0,0,24.652,34.563Z" transform="translate(0 0.484)"/>
</svg>
