<svg id="lb_average_script_kills_by_spawn" xmlns="http://www.w3.org/2000/svg" width="100" height="100" viewBox="0 0 100 100">
  <metadata><?xpacket begin="﻿" id="W5M0MpCehiHzreSzNTczkc9d"?>
<x:xmpmeta xmlns:x="adobe:ns:meta/" x:xmptk="Adobe XMP Core 5.6-c142 79.160924, 2017/07/13-01:06:39        ">
   <rdf:RDF xmlns:rdf="http://www.w3.org/1999/02/22-rdf-syntax-ns#">
      <rdf:Description rdf:about=""/>
   </rdf:RDF>
</x:xmpmeta>
                                                                                                    
                                                                                                    
                                                                                                    
                                                                                                    
                                                                                                    
                                                                                                    
                                                                                                    
                                                                                                    
                                                                                                    
                                                                                                    
                                                                                                    
                                                                                                    
                                                                                                    
                                                                                                    
                                                                                                    
                                                                                                    
                                                                                                    
                                                                                                    
                                                                                                    
                                                                                                    
                           
<?xpacket end="w"?></metadata>
<defs>
    <style>
      .cls-1 {
        fill: #fff;
        fill-rule: evenodd;
      }
    </style>
  </defs>
  <path class="cls-1" d="M73.1,98L53.96,79.52a12.758,12.758,0,1,1,19.28-16.5A12.754,12.754,0,1,1,92.42,79.6L73.38,98H73.1ZM20.54,89.08l-2.12-2.12L86.94,18.44l2.12,2.12ZM6.6,53H2V47H6.6A43.524,43.524,0,0,1,46.98,6.6V2H53V6.6A43.494,43.494,0,0,1,80.76,19.24l-3.2,3.2A38.99,38.99,0,1,0,22.42,77.58l-3.18,3.18A43.347,43.347,0,0,1,6.6,53ZM17.08,63H23V61H16c-0.16-.48-0.3-1.48-0.42-2H17.5L19,56h2.5l6-4.5-3-6H26L30.5,50H32l9.5-9,2-3,2,2.5-3,2-8,7.5,2,1.5L39,49l1.5,1.5-7,7L38,59h2v2H30v2h6.98l-2,2H17.74C17.5,64.52,17.28,63.52,17.08,63ZM23.5,31.5V31l-2-.5V28.74a32.325,32.325,0,0,1,6.68-6.32L29,22h4V20l2.84-2.84c0.12-.06.24-0.1,0.36-0.16H47l1.333,1H58v2H49.5L49,21l1,1h4.5l1,2L62,28v1l-2,3H59.5a5.028,5.028,0,0,1-10,0H34a5.317,5.317,0,0,1-5,4.5C26,36.5,23.5,34,23.5,31.5Z"/>
</svg>
