<svg xmlns="http://www.w3.org/2000/svg" width="100" height="100" viewBox="0 0 100 100">
  <defs>
    <style>
      .cls-1 {
        fill: #fff;
        fill-rule: evenodd;
      }
    </style>
  </defs>
  <path class="cls-1" d="M66,26V3L89,26H66ZM58.819,38l-8.33-5.828-8.351,5.8,2.9-9.823-8.025-6.252,10.122-.243,3.392-9.66,3.356,9.673L64,21.945l-8.048,6.221ZM28.925,48.712l3.507,4.024,6.634-7.671,2.927,2.7L32.444,58.809l-6.436-7.384ZM36.9,80l-3.716-3.716-3.935,3.935-2.828-2.828,3.935-3.935-3.716-3.716L29.378,67l3.716,3.716,3.935-3.935,2.828,2.828-3.935,3.935,3.716,3.716ZM75,80H45V77H75v3Zm0-8H49V69H75v3Zm0-25v3H49V47H75Zm0,11H45V55H75v3ZM17,88H84V30h4V94H12V5H62v5H17V88Z"/>
</svg>
