<svg id="lb_time_pvp_played" xmlns="http://www.w3.org/2000/svg" width="100" height="100" viewBox="0 0 100 100">
  <metadata><?xpacket begin="﻿" id="W5M0MpCehiHzreSzNTczkc9d"?>
<x:xmpmeta xmlns:x="adobe:ns:meta/" x:xmptk="Adobe XMP Core 5.6-c142 79.160924, 2017/07/13-01:06:39        ">
   <rdf:RDF xmlns:rdf="http://www.w3.org/1999/02/22-rdf-syntax-ns#">
      <rdf:Description rdf:about=""/>
   </rdf:RDF>
</x:xmpmeta>
                                                                                                    
                                                                                                    
                                                                                                    
                                                                                                    
                                                                                                    
                                                                                                    
                                                                                                    
                                                                                                    
                                                                                                    
                                                                                                    
                                                                                                    
                                                                                                    
                                                                                                    
                                                                                                    
                                                                                                    
                                                                                                    
                                                                                                    
                                                                                                    
                                                                                                    
                                                                                                    
                           
<?xpacket end="w"?></metadata>
<defs>
    <style>
      .cls-1 {
        fill: #fff;
        fill-rule: evenodd;
      }
    </style>
  </defs>
  <path class="cls-1" d="M18,82.01V80.031H69V82.01H18Zm7.562-4.042,16.625-7.646,19.625,7.646H25.563Zm-5.25,0L42.188,50.01h3.125L67.187,77.968H63.771l-20.02-26.4L23.6,77.968H20.313Zm53.124-1.4-8.1-10.583,8.687-8.708L78,61.26V49.99H66.854l3.979,4.1-8.271,8.25L53.125,50.01V48.448L73.437,21.886l8.1,10.6-8.771,8.75-3.792-3.781V48.031H79.645l-3.667-3.6,8.312-8.333,9.458,12.354V50.01ZM42.188,48.031L20.313,20.073H23.6l20.146,26.4,20.021-26.4h3.417L45.313,48.031H42.188Zm1.563-4.687L34.375,31.261l23.437-6.25ZM18,18.011V16.032H69v1.979H18Z"/>
</svg>
