<svg id="lb_victories_battles" xmlns="http://www.w3.org/2000/svg" width="100" height="100" viewBox="0 0 100 100">
  <metadata><?xpacket begin="﻿" id="W5M0MpCehiHzreSzNTczkc9d"?>
<x:xmpmeta xmlns:x="adobe:ns:meta/" x:xmptk="Adobe XMP Core 5.6-c142 79.160924, 2017/07/13-01:06:39        ">
   <rdf:RDF xmlns:rdf="http://www.w3.org/1999/02/22-rdf-syntax-ns#">
      <rdf:Description rdf:about=""/>
   </rdf:RDF>
</x:xmpmeta>
                                                                                                    
                                                                                                    
                                                                                                    
                                                                                                    
                                                                                                    
                                                                                                    
                                                                                                    
                                                                                                    
                                                                                                    
                                                                                                    
                                                                                                    
                                                                                                    
                                                                                                    
                                                                                                    
                                                                                                    
                                                                                                    
                                                                                                    
                                                                                                    
                                                                                                    
                                                                                                    
                           
<?xpacket end="w"?></metadata>
<defs>
    <style>
      .cls-1 {
        fill: #fff;
        fill-rule: evenodd;
      }
    </style>
  </defs>
  <path class="cls-1" d="M90.438,19.928l-2.214.041-0.006.006L86.2,18.015l0.71,2.105-0.212,1.413L76.281,32.18l2.3,4.324,2.256,2.14,2.214-.041L85.3,40.74l0.04,2.184-2.166,2.221-2.214.039L78.7,43.049l-0.04-2.186-3.4-3.21-5.551-1-1.123-1.071-1.2-5.434,0.113,6.541-4.4,3.822,1.615,1.91,3.905-4.659,6.638-.109-3.3,1.143L66.43,44.44l7.3,8.629L50.251,80.827l-0.01,0L26.775,53.069l7.551-8.928-5.269-5.387-3.278-1.145L22.4,40.822l-0.035,2.184-2.252,2.146L17.9,45.114,15.723,42.9l0.038-2.179,2.247-2.145,2.214,0.035,2.252-2.147,2.277-4.33L12.791,19.948l-2.218-.037L7.311,16.589l0.04-2.182,3.374-3.22,2.212,0.039L16.2,14.551l-0.038,2.182,0.006,0.006-2.059,1.921,2.162-.623L17.7,18.292,28.131,28.924l4.466-2.11,2.25-2.145,0.038-2.181,2.245-2.143,2.216,0.037,2.177,2.212-0.038,2.182L39.24,26.923l-2.218-.037-3.376,3.228-1.208,5.43L31.31,36.613l-5.553.989,6.638,0.119,3.636,4.4,1.6-1.89-4.108-3.58,0.123-6.541,1.044,3.29,4.676,4.78L50.251,25.311l11.14,13.172,4.949-5.044,1.048-3.27L64.01,26.958,61.794,27l-2.258-2.14L59.5,22.681l2.168-2.225,2.212-.039,2.256,2.138,0.044,2.181,2.256,2.141L72.9,28.965,84.843,16.759,84.8,14.574l3.255-3.329,2.214-.039,3.385,3.21,0.038,2.179ZM53.787,48.186l-3.7-11.211-3.718,11.2-11.912.023,9.658,6.943-3.657,11.17,9.685-6.9,9.651,6.877-3.67-11.21,9.622-6.863ZM35.309,65.064l2.071,3.058L18.058,88.259l-0.6-.566,1.014-5.474Zm4.759,6.245L24.1,87.579l-5.516,1.182-0.454-.431L38.647,69.668Zm42.85,16.958-0.56.534-5.514-1.19L61.381,71.8l2.026-1.85ZM66.665,66.093L82.479,82.258l1,5.472-0.506.482L64.411,68.887Z"/>
</svg>
