<svg id="lb_wp_total_gained" xmlns="http://www.w3.org/2000/svg" width="100" height="100" viewBox="0 0 100 100">
  <metadata><?xpacket begin="﻿" id="W5M0MpCehiHzreSzNTczkc9d"?>
<x:xmpmeta xmlns:x="adobe:ns:meta/" x:xmptk="Adobe XMP Core 5.6-c142 79.160924, 2017/07/13-01:06:39        ">
   <rdf:RDF xmlns:rdf="http://www.w3.org/1999/02/22-rdf-syntax-ns#">
      <rdf:Description rdf:about=""/>
   </rdf:RDF>
</x:xmpmeta>
                                                                                                    
                                                                                                    
                                                                                                    
                                                                                                    
                                                                                                    
                                                                                                    
                                                                                                    
                                                                                                    
                                                                                                    
                                                                                                    
                                                                                                    
                                                                                                    
                                                                                                    
                                                                                                    
                                                                                                    
                                                                                                    
                                                                                                    
                                                                                                    
                                                                                                    
                                                                                                    
                           
<?xpacket end="w"?></metadata>
<defs>
    <style>
      .cls-1 {
        fill: #fff;
        fill-rule: evenodd;
      }
    </style>
  </defs>
  <path class="cls-1" d="M51,75.122V81H75v6h5V98H68V87h5V83H51v4h5V98H44V87h5V83H27v4h5V98H20V87h5V81H49V75.122A36.616,36.616,0,1,1,51,75.122ZM70,89v6h8V89H70ZM22,89v6h8V89H22Zm24,0v6h8V89H46ZM60.751,17.329c-1.481-2.838,4.672-3.072,7-2.838C56.441,8.91,50.161,10.563,43.445,17.583c-0.519-1.505-7.212-1.07-6.586,5.935-4.416.057-5.856,2.137-6.309,5.534-3.73,1.506-7.072,2.6-9.846,4.616a1.983,1.983,0,0,0-.136,1.6c0.336,0.807,2.715,1.556,2.61,1.993a6.865,6.865,0,0,0-.2,1.95,6.629,6.629,0,0,0,3.236,3h2.469a9.815,9.815,0,0,0,3.5,2.7,11.705,11.705,0,0,1-.368-4.718c5.538-1.41,9.657,3.107,7.784,5.337-1.068,1.27-6.085,2.048-11.081.138a2.1,2.1,0,0,0-1.176,1.847A3.918,3.918,0,0,0,29,48.564C27.93,56.9,36.2,53.879,42.729,48.7l4.22,0.415C34.788,52.827,30.763,61.118,29.673,67.525c7.1-8.491,17.166-5.145,23.069-18.3a40.745,40.745,0,0,1-4.641,16c7.824-3.592,12.85-9.963,14-20.782,2.252,4.3,2.3,10.579,2.121,15.028,4.782-5.372,6.352-14.277,2.534-23.826,2.734,0.943,5.172,4.06,6.645,6.757,0.415-6.613-2.616-12.7-7.674-18.208A11.144,11.144,0,0,1,73.443,26.1C70.974,21.915,67.219,18.046,60.751,17.329ZM55.553,31.8a12.8,12.8,0,0,0,2.929-5.435c-1.5-1.329-4.527-2.192-6.244-2.6a13.544,13.544,0,0,1,9.5,1.725A18.813,18.813,0,0,1,55.553,31.8Zm-19.385-.48c-1.526-.794-2.162-1.668-2.136-2.606a32.253,32.253,0,0,1,6.62-2.558A15.258,15.258,0,0,1,36.167,31.325Z"/>
</svg>
