<svg xmlns="http://www.w3.org/2000/svg" width="40" height="40" viewBox="0 0 40 40">
  <defs>
    <style>
      .cls-1 {
        fill: #fff;
        fill-rule: evenodd;
      }
    </style>
  </defs>
  <path id="Color_Fill_1" data-name="Color Fill 1" class="cls-1" d="M20.606,6.438h0.117V6.516a3.065,3.065,0,0,1,.117.777c0.195,0.8.125,1.784,0.313,2.642,0.106,0.486-.149,1.461.2,1.71a2.294,2.294,0,0,0,.821.117,5.152,5.152,0,0,0,1.525.117,2.064,2.064,0,0,0,.039-0.583c0.26-.432-0.118-1.226.039-1.865a2.57,2.57,0,0,1,.508-0.894H23.265c-0.233-.138-0.688-0.006-0.9-0.155a11.3,11.3,0,0,0,1.447-.117c0.143-.02.537,0.082,0.626,0.039a1.341,1.341,0,0,1,.587-0.777c0.084,0.116.235,0.187,0.313,0.311s0.058,0.34.156,0.466a0.232,0.232,0,0,0,.156.039A2.3,2.3,0,0,1,26.276,8.3a3.1,3.1,0,0,1,1.369.117c-0.665,0-1.234.112-1.955,0.117V8.575a2.09,2.09,0,0,1,.43,2.1,3.5,3.5,0,0,1,.117,1.438,1.136,1.136,0,0,0,.352.039,0.638,0.638,0,0,1,.508-0.039v0.117l0.665,0.039v0.194a1.972,1.972,0,0,1,.43.039V12.306a8.853,8.853,0,0,1,1.525.155c0.449,0.1.925,0.028,1.329,0.117,0.729,0.159,1.536.042,2.229,0.194l0.9,0.039C35.006,13,36,12.9,36.833,13.083c0.769,0.168,2.881-.109,2.894.7h0.235c0.341,2.376-2.317,2.379-4.106,2.914-3.249.972-6.562,1.467-9.775,2.409-1.038.3-2.094,0.428-3.089,0.738-0.283.088-.537,0.049-0.821,0.155a2.571,2.571,0,0,0-1.056,1.749v1.088c-0.166.738,0.022,1.646-.156,2.371v0.661c-0.117.521,0.007,1.159-.117,1.71a13.186,13.186,0,0,0-.2,2.448,12.4,12.4,0,0,1,2.5.272c0.873,0.194,1.775.1,2.62,0.272a0.32,0.32,0,0,1,.2-0.389L26,30.3a2.025,2.025,0,0,1,.078.894,7.4,7.4,0,0,1-.156,2.37H25.885V33.329a2.813,2.813,0,0,1-.117-1.2H25.728v0.039a3.135,3.135,0,0,0-.391.738,11.057,11.057,0,0,0-2.151.427c-0.689.181-1.356,0.142-2.033,0.35-0.274.084-.571,0.328-0.821,0.389a1.154,1.154,0,0,0-.117-0.039,2.036,2.036,0,0,0-.156.971H19.941a2.728,2.728,0,0,0-.156-1.01c-0.06.035-.014,0.084-0.117,0.078a2.154,2.154,0,0,1-.391-0.233,4.2,4.2,0,0,0-.626-0.155c-0.9-.245-1.921-0.346-2.815-0.583a3.967,3.967,0,0,1-1.173-.233,3.133,3.133,0,0,1-.391-0.738H14.233v0.544a3.351,3.351,0,0,0-.117.894H14.076V33.523a2.72,2.72,0,0,1-.117-0.971A7.068,7.068,0,0,1,14,30.22a0.559,0.559,0,0,1,.156-0.039,0.567,0.567,0,0,0,.156.389,5.673,5.673,0,0,1,1.447-.155c0.568-.125,1.192-0.06,1.8-0.194a9.172,9.172,0,0,1,1.8-.194,12.285,12.285,0,0,0-.2-2.448c-0.127-.57,0-1.182-0.117-1.71V25.207c-0.16-.73.007-1.631-0.156-2.37V21.749A2.468,2.468,0,0,0,17.791,20l-0.938-.194c-0.948-.286-1.942-0.419-2.933-0.7C10.7,18.194,7.392,17.67,4.145,16.7,2.385,16.17-.336,16.142.039,13.782H0.274V13.51l0.587-.233v-1.2H0.9v1.2l10.909-.972V12.5h0.078a0.73,0.73,0,0,1,.352-0.039V12.267l0.665-.039a0.188,0.188,0,0,1,.039-0.117c0.268-.237.288,0.027,0.391,0.078l0.391-.039a3.315,3.315,0,0,0,.039-0.894c0.261-.428-0.132-1.23.039-1.865a2.788,2.788,0,0,1,.508-0.855H13.529c-0.3-.177-0.886.027-1.173-0.155a13.779,13.779,0,0,1,2.111-.039,1.116,1.116,0,0,1,.587-0.816,2.838,2.838,0,0,1,.508.816,5.489,5.489,0,0,1,2.072.078c-0.607.039-1.206,0.113-1.916,0.117V8.575a0.633,0.633,0,0,1,.274.505,0.957,0.957,0,0,1,.2.155,5.122,5.122,0,0,1,.039,1.4c-0.016.046-.076-0.048-0.078,0.039l0.078,0.117,0.039,1.049,0.117,0.039a1.74,1.74,0,0,0,.587,0,12.576,12.576,0,0,0,1.72-.233,8.075,8.075,0,0,0,.156-1.71c0.1-.45.011-0.956,0.117-1.438l0.313-2.06h0.117l0.078-.622c-0.1-.015-0.051.029-0.078-0.078a0.2,0.2,0,0,0,.039-0.117c0.108,0,.085.045,0.117-0.117-0.055-.008.016,0.032-0.039,0.039-0.03.075-.039-0.078-0.039-0.078l0.2-.389c-0.1-.05-0.027.017-0.078-0.078h0.821V5.078a0.684,0.684,0,0,0,.117.466c-0.1.015-.051-0.029-0.078,0.078,0.1,0.046.07-.035,0.117,0.078,0,0.033.019,0.034,0.039,0.155-0.1.011-.077,0-0.078,0.194A0.9,0.9,0,0,1,20.606,6.438Zm-1.251-.505a0.139,0.139,0,0,1,.039.078H19.355V5.933Zm1.251,0a0.141,0.141,0,0,1,.039.078H20.606V5.933Zm-1.29.194a0.139,0.139,0,0,1,.039.078H19.316V6.127Zm1.329,0a0.141,0.141,0,0,1,.039.078H20.645V6.127Zm-1.369.194a0.139,0.139,0,0,1,.039.078H19.277V6.321Zm1.408,0a0.141,0.141,0,0,1,.039.078H20.684V6.321Z"/>
</svg>
