<svg xmlns="http://www.w3.org/2000/svg" width="40" height="40" viewBox="0 0 40 40">
  <defs>
    <style>
      .cls-1 {
        fill: #fff;
        fill-rule: evenodd;
      }
    </style>
  </defs>
  <path id="Color_Fill_1" data-name="Color Fill 1" class="cls-1" d="M20.6,6.438h0.117V6.516a3.065,3.065,0,0,1,.117.777c0.195,0.8.125,1.784,0.312,2.642,0.106,0.486-.149,1.461.2,1.71a2.286,2.286,0,0,0,.82.117,5.132,5.132,0,0,0,1.522.117,2.068,2.068,0,0,0,.039-0.583c0.26-.432-0.118-1.226.039-1.865a2.57,2.57,0,0,1,.507-0.894H23.259c-0.232-.138-0.686-0.006-0.9-0.155A11.256,11.256,0,0,0,23.8,8.264c0.143-.02.536,0.082,0.624,0.039a1.341,1.341,0,0,1,.585-0.777c0.084,0.116.234,0.187,0.312,0.311s0.058,0.34.156,0.466a0.231,0.231,0,0,0,.156.039A2.293,2.293,0,0,1,26.263,8.3a3.085,3.085,0,0,1,1.366.117c-0.664,0-1.232.112-1.951,0.117V8.575a2.093,2.093,0,0,1,.429,2.1,3.5,3.5,0,0,1,.117,1.438,1.132,1.132,0,0,0,.351.039,0.636,0.636,0,0,1,.507-0.039v0.117a8.051,8.051,0,0,1,1.717.155c0.455,0.1.921,0.028,1.327,0.117,0.728,0.159,1.534.044,2.224,0.194l0.9,0.039c1.121,0.248,2.43.105,3.551,0.35,1.351,0.294,3.222-.309,3.2,1.36l-0.156.428a2.594,2.594,0,0,1-.7.816c-1.079.781-3.152,0.911-4.6,1.321-2.768.782-5.7,1.321-8.468,2.1-0.989.277-1.98,0.415-2.927,0.7a4.276,4.276,0,0,0-1.171.311,2.958,2.958,0,0,0-.858,1.632l-0.039,2.021-0.429,6.256,5.307,0.544a2.853,2.853,0,0,1,.078,1.982,7.841,7.841,0,0,1-.117,1.01H25.873V33.329a2.819,2.819,0,0,1-.117-1.2H25.717v0.039a3.137,3.137,0,0,0-.39.738,11.016,11.016,0,0,0-2.146.427c-0.688.181-1.354,0.142-2.029,0.35-0.274.084-.57,0.328-0.819,0.389a1.138,1.138,0,0,0-.117-0.039,2.041,2.041,0,0,0-.156.971H19.942a2.739,2.739,0,0,0-.156-1.01c-0.06.035-.014,0.084-0.117,0.078a2.146,2.146,0,0,1-.39-0.233,4.181,4.181,0,0,0-.624-0.155c-0.895-.245-1.917-0.346-2.81-0.583a3.953,3.953,0,0,1-1.171-.233,3.138,3.138,0,0,1-.39-0.738H14.244v0.544a3.356,3.356,0,0,0-.117.894H14.088V33.523a2.74,2.74,0,0,1-.117-0.971,4.476,4.476,0,0,1-.039-1.865,0.53,0.53,0,0,1,.39-0.117,5.652,5.652,0,0,1,1.444-.155c0.567-.125,1.189-0.06,1.8-0.194a9.136,9.136,0,0,1,1.8-.194,12.438,12.438,0,0,0-.2-2.448c-0.126-.571,0-1.182-0.117-1.71V25.207c-0.158-.73.005-1.63-0.156-2.37V21.749A2.467,2.467,0,0,0,17.8,20l-0.937-.194c-0.947-.286-1.938-0.421-2.927-0.7-3.141-.886-6.474-1.429-9.6-2.37C2.562,16.2-.028,16.267,0,13.977a3.015,3.015,0,0,1,.351-0.505C0.42,13.424.878,13.31,0.9,13.277v-1.2H0.937v1.2l5.815-.544,2.224-.155c0.545-.12,1.168-0.026,1.756-0.155a11.58,11.58,0,0,1,2.185-.194,0.187,0.187,0,0,1,.039-0.117c0.268-.237.287,0.027,0.39,0.078l0.39-.039a3.323,3.323,0,0,0,.039-0.894c0.26-.428-0.132-1.23.039-1.865a2.789,2.789,0,0,1,.507-0.855h-0.78c-0.3-.177-0.884.027-1.171-0.155a13.724,13.724,0,0,1,2.107-.039,1.116,1.116,0,0,1,.585-0.816,2.836,2.836,0,0,1,.507.816,5.468,5.468,0,0,1,2.068.078c-0.606.039-1.2,0.113-1.912,0.117V8.575A0.633,0.633,0,0,1,16,9.08a0.953,0.953,0,0,1,.2.155,5.13,5.13,0,0,1,.039,1.4c-0.016.046-.076-0.048-0.078,0.039l0.078,0.117q0.02,0.525.039,1.049l0.117,0.039a1.734,1.734,0,0,0,.585,0,12.529,12.529,0,0,0,1.717-.233,8.1,8.1,0,0,0,.156-1.71c0.1-.45.01-0.956,0.117-1.438l0.312-2.06H19.4l0.078-.622c-0.1-.015-0.051.029-0.078-0.078a0.2,0.2,0,0,0,.039-0.117c0.108,0,.085.045,0.117-0.117-0.055-.008.016,0.032-0.039,0.039-0.03.075-.039-0.078-0.039-0.078l0.2-.389c-0.1-.05-0.027.017-0.078-0.078h0.82V5.078a0.686,0.686,0,0,0,.117.466c-0.1.015-.051-0.029-0.078,0.078,0.1,0.046.07-.035,0.117,0.078,0,0.033.019,0.034,0.039,0.155-0.1.011-.077,0-0.078,0.194A0.9,0.9,0,0,1,20.6,6.438Zm-1.249-.505a0.14,0.14,0,0,1,.039.078H19.356V5.933Zm1.249,0a0.14,0.14,0,0,1,.039.078H20.6V5.933Zm-1.288.194a0.14,0.14,0,0,1,.039.078H19.317V6.127Zm1.327,0a0.139,0.139,0,0,1,.039.078H20.644V6.127Zm-1.366.194a0.14,0.14,0,0,1,.039.078H19.278V6.321Zm1.4,0a0.14,0.14,0,0,1,.039.078H20.683V6.321Z"/>
</svg>
