<svg xmlns="http://www.w3.org/2000/svg" width="40" height="40" viewBox="0 0 40 40">
  <defs>
    <style>
      .cls-1 {
        fill: #fff;
        fill-rule: evenodd;
      }
    </style>
  </defs>
  <path id="Color_Fill_1" data-name="Color Fill 1" class="cls-1" d="M21.695,12.706a11.891,11.891,0,0,0,1.213.035,11.078,11.078,0,0,1,.107-2.506,0.838,0.838,0,0,0,.357-0.212H22.016c-0.1-.057-0.274-0.042-0.357-0.106a19.065,19.065,0,0,1,1.963-.035V9.741a1.271,1.271,0,0,0,.285-0.353h0.036a1.086,1.086,0,0,0,.285.388V9.882c0.653,0,1.365.009,1.962,0.035V9.953H26.155c-0.356.221-1.237-.108-1.57,0.141a0.875,0.875,0,0,1,.357.353v0.882a0.321,0.321,0,0,0,.071.177l-0.036,1.235a5.025,5.025,0,0,1,1.534.424c1.026,0.341,2.075.556,3.069,0.882,0.431,0.141.817,0.175,1.249,0.318,1.906,0.63,3.946,1.1,5.852,1.729,0.738,0.244,1.5.305,2.212,0.6,0.406,0.168.7,0.481,1.071,0.671a2.81,2.81,0,0,1,0,.847,3.937,3.937,0,0,1-1.035.635H23.622a2.76,2.76,0,0,0-1.427.176,0.619,0.619,0,0,0-.107.212,2.48,2.48,0,0,0-.357.777v0.953c-0.129.593,0.024,1.275-.107,1.871-0.138.63-.031,1.341-0.178,2.012a4.651,4.651,0,0,0-.143.812,5.213,5.213,0,0,1,1.534.141l-1.534.071-0.036.106a1.8,1.8,0,0,0-.036.6,6.755,6.755,0,0,0-.285,2.012,4.322,4.322,0,0,1,.928.459c0.729,0.377,1.458.723,2.177,1.094a3.7,3.7,0,0,1,1.356.812,1.76,1.76,0,0,1,.036,1.341c-0.5.885-1.656,0.671-3,.671H21.2a2.028,2.028,0,0,0-1.106-.459,1.011,1.011,0,0,1-.071.494l-0.036-.494a1.964,1.964,0,0,0-1.106.459h-1.57c-0.919,0-2.107.141-2.5-.388a2.055,2.055,0,0,1-.25-0.882,1.284,1.284,0,0,1-.071-0.388,1.448,1.448,0,0,1,.856-0.812c0.852-.513,1.826-0.955,2.712-1.412a3.6,3.6,0,0,0,1.071-.565,1.712,1.712,0,0,0-.071-0.776c-0.115-.645-0.175-1.313-0.25-1.871a6.286,6.286,0,0,1-1.427-.106h0.357V25.694a8.29,8.29,0,0,1,1.035-.035V25.482a5.16,5.16,0,0,1-.178-1.412c-0.144-.628-0.059-1.387-0.214-2.012-0.075-.305.029-0.725-0.036-0.988V20.012a1.549,1.549,0,0,0-.785-1.165H3.818a13.76,13.76,0,0,0-2.676,0,2.421,2.421,0,0,1-.785-0.459,0.736,0.736,0,0,1-.214-1.024c0.934-.917,2.713-1.059,4.1-1.518,1.907-.629,3.945-1.1,5.852-1.729,0.514-.169.984-0.221,1.5-0.388,0.748-.243,1.54-0.418,2.319-0.671a4.252,4.252,0,0,1,1.178-.318c0-.833.035-1.443,0.036-2.294,0.094-.072.12-0.215,0.214-0.282a0.8,0.8,0,0,0,.285-0.141H14.273c-0.1-.062-0.3-0.037-0.393-0.106a19.063,19.063,0,0,1,1.963-.035,0.169,0.169,0,0,1,.036-0.106,1.011,1.011,0,0,1,.285-0.388V9.424a0.658,0.658,0,0,1,.285.459c0.653,0,1.365.009,1.962,0.035V9.988H18.2c-0.333.2-1.094-.117-1.392,0.106h0.036a1.026,1.026,0,0,1,.321.353v2.294a10.722,10.722,0,0,0,1.213-.035,18.168,18.168,0,0,1,.571-5.153c0.215-.7.381-1.421,1.142-1.553a2.939,2.939,0,0,0,.428.247,2.284,2.284,0,0,1,.5.741L21.16,7.694A18.659,18.659,0,0,1,21.695,12.706Z"/>
</svg>
