<svg xmlns="http://www.w3.org/2000/svg" width="100" height="100" viewBox="0 0 100 100">
  <metadata><?xpacket begin="﻿" id="W5M0MpCehiHzreSzNTczkc9d"?>
<x:xmpmeta xmlns:x="adobe:ns:meta/" x:xmptk="Adobe XMP Core 5.6-c138 79.159824, 2016/09/14-01:09:01        ">
   <rdf:RDF xmlns:rdf="http://www.w3.org/1999/02/22-rdf-syntax-ns#">
      <rdf:Description rdf:about=""/>
   </rdf:RDF>
</x:xmpmeta>
                                                                                                    
                                                                                                    
                                                                                                    
                                                                                                    
                                                                                                    
                                                                                                    
                                                                                                    
                                                                                                    
                                                                                                    
                                                                                                    
                                                                                                    
                                                                                                    
                                                                                                    
                                                                                                    
                                                                                                    
                                                                                                    
                                                                                                    
                                                                                                    
                                                                                                    
                                                                                                    
                           
<?xpacket end="w"?></metadata>
<defs>
    <style>
      .cls-1 {
        fill: #fff;
        fill-rule: evenodd;
      }
    </style>
  </defs>
  <path id="logo" class="cls-1" d="M87.058,55.515l2.4,5.937H86.942l-2.406-5.822H82.612v5.822H79.973V47.5h7.12L89.5,49.774v3.438Zm0.055-4.492-0.947-.944H82.612v2.914h3.553l0.947-.944V51.023ZM83.66,38.383l-2.595-1.424-2.595,1.424,0.557-2.9-2.16-2.02,2.939-.368,1.26-2.673,1.26,2.673,2.939,0.368-2.16,2.02ZM67.249,43.748h0.905L67.642,42.29a3.866,3.866,0,0,0,.236-0.572l1.721-.46-0.055-.206,2.379-.742,1.529,3.936h-6.2v-0.5Zm4.212-4.575-2.285.511-0.055-.206-1.393.372a1.733,1.733,0,0,0-.2-0.363H66.612l-0.38-1.048H63.526V38a6.9,6.9,0,0,0-3.192,0v0.434H59.685l-0.941,2.48V35c0.862-.2,1.62-0.374,2.056-0.473,0.329-.074.489-0.615,0.575-1.472,0.09-.905-0.08-0.947-0.9-1.005-0.464-.033-1.061-0.062-1.712-0.087l-0.016-9.209,11.754,0,2.5,2.5V34l-2.5,2.5ZM69.5,26.25H62.25V33.5H69.5V26.25ZM55.5,0l3.75,3.75v16H55.5V0ZM53.437,44.245a0.949,0.949,0,0,0,.028-0.287V43.227c0-.51-0.241-0.523-0.82-0.741a17.57,17.57,0,0,0-2.1-.569s0.357-4.072.389-4.354a0.871,0.871,0,0,1,.69-0.688c0.239-.107,1.59-0.46,3.218-0.866l2.123,8.235H53.437Zm-2.5-13.024a18.8,18.8,0,0,0-.23-3.368,6.3,6.3,0,0,0-.776-1.118H49.51a6.3,6.3,0,0,0-.776,1.118,18.792,18.792,0,0,0-.23,3.368c-0.024.31-.081,0.408-0.518,0.487-0.231.042-1.128,0.074-2.3,0.106l2.4-9.063h3.247l2.41,9.062c-1.167-.032-2.057-0.064-2.286-0.105C51.014,31.63,50.957,31.532,50.933,31.222ZM47.75,8.75L51.5,5l0,14.749H47.747ZM48.5,37.564c0.031,0.282.389,4.354,0.389,4.354a17.569,17.569,0,0,0-2.1.569c-0.579.218-.82,0.23-0.82,0.741v0.731a0.952,0.952,0,0,0,.028.287H42.474l2.112-8.237c1.632,0.406,2.988.761,3.228,0.868A0.872,0.872,0,0,1,48.5,37.564ZM40,19.749v-4L43.75,12l0,7.749H40ZM42.331,31.9c-1.384.038-2.718,0.084-3.606,0.148h0l1.239-9.3h3.707ZM40.572,44.253H35.247l0-5.521a0.662,0.662,0,0,0-.469,0c-0.526.034-2.829,1.557-4.1,1.971a18.952,18.952,0,0,1-3.653.532,15.1,15.1,0,0,1,1.632,2.186,7.883,7.883,0,0,1,.311.832H27.041l-3.063-21.5h3.707l1.739,13.456,2.121-11.953H35v3.964a1.957,1.957,0,0,0-1.005.423v0.864H31.4l1.4,0.237h1.7v2.834a5.609,5.609,0,0,0-1.717.583c0,0.422,0,.9,0,1.32H33v2.371H32.28v0l-2.285-1.271L29.75,36l2.353,1.44-0.228.811H31.843l-3.377-1.825-0.244.421,2.328,1.424-0.351.764-3.261-1.763-0.244.421,3.218,1.969-0.308.672a7.79,7.79,0,0,0,1.028-.246c1.283-.425,3.615-1.987,4.147-2.022,0.141-.009.2-0.016,0.222-0.02s0.081,0.011.222,0.02c0.532,0.035,2.864,1.6,4.147,2.022a7.819,7.819,0,0,0,1.029.247l-0.955-2.154H38.128l-0.4-1.333H37V34.479h0.277V33.159a4.59,4.59,0,0,0-1.528-.582V29.742h1.3l1.141,6.313,0.2-1.53,0.006,0c0.66,0.148,1.983.459,3.435,0.809ZM36.238,28.641a1.928,1.928,0,0,0-.993-0.422V24.255H36.1L36.96,29.5H36.238V28.641ZM24.3,52.993h4.231V47.5h2.647V61.452H28.528V55.631H24.3v5.822H21.664V47.5H24.3v5.494Zm-4.687-14.61-2.595-1.424-2.595,1.424,0.557-2.9-2.161-2.02,2.939-.368,1.259-2.673,1.26,2.673,2.939,0.368-2.16,2.02Zm-0.07,11.7H16.081V61.447H13.45V50.084H10V47.5h9.538v2.585Zm16.426,7.764,0.947,0.944h2.352l0.947-.944V47.5h2.635V58.97l-2.31,2.482H35.622l-2.31-2.482V47.5h2.653V57.848ZM43.75,69.537A12.031,12.031,0,0,0,40,72.849V64.5h3.75v5.037Zm5.877-1.543a12.054,12.054,0,0,0-1.876.147V64.5H51.5v3.641A12.052,12.052,0,0,0,49.627,67.995ZM54.5,47.5V61.452H51.964l-4.356-8.714v8.714H44.973V47.5L47.608,47.5l4.252,8.506V47.5H54.5ZM40.746,80.008a9.005,9.005,0,1,1,16.606,5.056h0L46.854,100H41.971l6.863-11.032A9.006,9.006,0,0,1,40.746,80.008Zm8.929,4.775a4.855,4.855,0,1,0-4.853-4.855A4.854,4.854,0,0,0,49.675,84.783ZM55.5,64.5h3.75v8.344a12.033,12.033,0,0,0-3.75-3.309V64.5Zm5.185-23.751,0.479-1.017,0.479,1.017,1.118,0.14-0.822.769,0.212,1.1-0.987-.542-0.987.542,0.212-1.1-0.822-.769Zm-4.056,6.743h7.163l2.385,2.347V58.9L63.792,61.45l-7.163,0V47.492ZM59.3,58.809h3.284l0.947-.945V51.023l-0.947-.944H59.3v8.73Zm18.538-8.73h-6.9v2.908h3.442V55.64H70.938v3.172h6.89v2.64H68.3V47.5h9.538v2.58Z"/>
</svg>
