<?xml version="1.0" encoding="UTF-8"?>
<svg id="Layer_2" data-name="Layer 2" xmlns="http://www.w3.org/2000/svg" width="24" height="24" viewBox="0 0 24 24">
  <defs>
    <style>
      .cls-1 {
        fill: #fff;
        stroke-width: 0px;
      }
    </style>
  </defs>
  <path class="cls-1" d="M16.02,16.33v-1.67l-1.84-.31c-.17-.73-.47-1.41-.88-2.01l1.12-1.56-1.18-1.18-1.6,1.14c-.59-.38-1.25-.65-1.95-.8l-.32-1.95h-1.67l-.32,1.95c-.71.14-1.37.42-1.95.8l-1.6-1.14-1.18,1.18,1.12,1.56c-.41.6-.71,1.28-.88,2.01l-1.84.31v1.67l1.79.3c.14.78.43,1.51.84,2.15l-1.02,1.43,1.18,1.18,1.4-1c.65.45,1.4.78,2.2.94l.28,1.67h1.67l.28-1.67c.81-.16,1.55-.48,2.2-.94l1.4,1,1.18-1.18-1.02-1.43c.42-.64.71-1.37.84-2.15l1.79-.3ZM8.52,18.1c-1.36,0-2.47-1.11-2.47-2.47s1.11-2.47,2.47-2.47,2.47,1.11,2.47,2.47-1.11,2.47-2.47,2.47Z"/>
  <path class="cls-1" d="M21.82,5.33l1.04-.62-.4-1.03-1.22.25c-.28-.41-.63-.76-1.03-1.03l.32-1.24-1.01-.45-.72,1.1c-.45-.09-.93-.11-1.4-.03l-.67-1.13-1.03.4.27,1.29c-.4.26-.74.59-1.01.97l-1.27-.33-.45,1.01,1.07.7c-.11.47-.13.96-.06,1.45l-1.07.64.4,1.03,1.19-.25c.27.45.62.83,1.03,1.13l-.29,1.14,1.01.45.63-.96c.51.13,1.05.15,1.59.05l.57.97,1.03-.4-.23-1.1c.46-.29.84-.67,1.14-1.11l1.11.28.45-1.01-.98-.64c.1-.5.11-1.01,0-1.53ZM18.64,7.62c-.84.33-1.8-.09-2.12-.94s.09-1.8.94-2.12c.84-.33,1.8.09,2.12.94.33.84-.09,1.8-.94,2.12Z"/>
</svg>