<?xml version="1.0" encoding="UTF-8"?>
<svg id="Layer_1" data-name="Layer 1" xmlns="http://www.w3.org/2000/svg" width="128" height="128" xmlns:xlink="http://www.w3.org/1999/xlink" viewBox="0 0 128 128">
  <defs>
    <style>
      .cls-1 {
        fill: #313131;
      }

      .cls-1, .cls-2, .cls-3, .cls-4, .cls-5, .cls-6, .cls-7, .cls-8, .cls-9, .cls-10, .cls-11, .cls-12, .cls-13, .cls-14, .cls-15, .cls-16, .cls-17, .cls-18, .cls-19, .cls-20, .cls-21, .cls-22, .cls-23, .cls-24, .cls-25, .cls-26, .cls-27, .cls-28, .cls-29, .cls-30, .cls-31, .cls-32, .cls-33, .cls-34, .cls-35, .cls-36, .cls-37, .cls-38, .cls-39, .cls-40 {
        stroke-width: 0px;
      }

      .cls-1, .cls-2, .cls-3, .cls-4, .cls-5, .cls-6, .cls-7, .cls-8, .cls-9, .cls-10, .cls-11, .cls-12, .cls-13, .cls-14, .cls-15, .cls-16, .cls-17, .cls-18, .cls-20, .cls-21, .cls-22, .cls-23, .cls-24, .cls-25, .cls-26, .cls-27, .cls-28, .cls-29, .cls-30, .cls-31, .cls-33, .cls-34, .cls-35, .cls-36, .cls-37, .cls-38, .cls-39, .cls-40 {
        fill-rule: evenodd;
      }

      .cls-2 {
        fill: url(#radial-gradient-6);
      }

      .cls-3 {
        fill: url(#linear-gradient-8);
      }

      .cls-4 {
        fill: url(#linear-gradient-7);
      }

      .cls-5 {
        fill: url(#linear-gradient-9);
      }

      .cls-6 {
        fill: #090909;
      }

      .cls-7 {
        fill: #3f413d;
      }

      .cls-9 {
        fill: url(#linear-gradient-3);
      }

      .cls-10 {
        fill: url(#radial-gradient-9);
      }

      .cls-11 {
        fill: #0a0a0a;
        opacity: .5;
      }

      .cls-11, .cls-21, .cls-24, .cls-36 {
        isolation: isolate;
      }

      .cls-12 {
        fill: #121412;
      }

      .cls-13 {
        fill: url(#radial-gradient-2);
      }

      .cls-14 {
        fill: url(#radial-gradient-8);
      }

      .cls-15 {
        fill: url(#radial-gradient);
      }

      .cls-16 {
        fill: url(#radial-gradient-3);
      }

      .cls-17 {
        fill: #bababa;
      }

      .cls-18 {
        fill: url(#radial-gradient-11);
      }

      .cls-19 {
        fill: #11110e;
      }

      .cls-20 {
        fill: #111;
      }

      .cls-21 {
        fill: url(#linear-gradient-2);
      }

      .cls-21, .cls-24, .cls-36 {
        opacity: .8;
      }

      .cls-22 {
        fill: #939393;
      }

      .cls-23 {
        fill: url(#linear-gradient);
      }

      .cls-24 {
        fill: #141414;
      }

      .cls-25 {
        fill: url(#radial-gradient-4);
      }

      .cls-26 {
        fill: #666;
      }

      .cls-27 {
        fill: url(#radial-gradient-7);
      }

      .cls-28 {
        fill: #c2c2c2;
      }

      .cls-29 {
        fill: url(#radial-gradient-10);
      }

      .cls-30 {
        fill: url(#linear-gradient-5);
      }

      .cls-31 {
        fill: url(#radial-gradient-5);
      }

      .cls-32 {
        fill: #060503;
      }

      .cls-33 {
        fill: #323232;
      }

      .cls-34 {
        fill: url(#radial-gradient-12);
      }

      .cls-35 {
        fill: #aaa;
      }

      .cls-36 {
        fill: url(#radial-gradient-13);
      }

      .cls-37 {
        fill: url(#linear-gradient-6);
      }

      .cls-38 {
        fill: url(#linear-gradient-4);
      }

      .cls-39 {
        fill: #aeaeae;
      }

      .cls-40 {
        fill: url(#radial-gradient-14);
      }
    </style>
    <radialGradient id="radial-gradient" cx="-211.61" cy="840.12" fx="-211.61" fy="840.12" r=".64" gradientTransform="translate(111224 -69505.55) rotate(37.59) scale(124.44 146.29) skewX(-10.49)" gradientUnits="userSpaceOnUse">
      <stop offset="0" stop-color="#5d5f5c"/>
      <stop offset=".45" stop-color="#313131"/>
      <stop offset=".58" stop-color="#7b7c79"/>
      <stop offset=".76" stop-color="#393b37"/>
      <stop offset=".87" stop-color="#181917"/>
      <stop offset="1" stop-color="#0c0c0c"/>
    </radialGradient>
    <radialGradient id="radial-gradient-2" cx="-211.64" cy="840.17" fx="-211.64" fy="840.17" r=".64" gradientTransform="translate(111245.09 -69513.06) rotate(37.59) scale(124.44 146.29) skewX(-10.49)" gradientUnits="userSpaceOnUse">
      <stop offset="0" stop-color="#5d5f5c"/>
      <stop offset=".53" stop-color="#313131"/>
      <stop offset=".69" stop-color="#888986"/>
      <stop offset=".76" stop-color="#0d0d0d"/>
      <stop offset=".87" stop-color="#181917"/>
      <stop offset="1" stop-color="#0c0c0c"/>
    </radialGradient>
    <radialGradient id="radial-gradient-3" cx="-304.65" cy="833.32" fx="-304.65" fy="833.32" r=".64" gradientTransform="translate(-29107.81 6725.66) rotate(-109.06) scale(10.5 35.66)" gradientUnits="userSpaceOnUse">
      <stop offset="0" stop-color="#4f4f4f"/>
      <stop offset="1" stop-color="#030303"/>
    </radialGradient>
    <radialGradient id="radial-gradient-4" cx="-212.19" cy="962.17" fx="-212.19" fy="962.17" r=".64" gradientTransform="translate(-10095.42 -3617.52) rotate(159.94) scale(35.73 -7.18) skewX(-1.13)" gradientUnits="userSpaceOnUse">
      <stop offset="0" stop-color="#767676"/>
      <stop offset="1" stop-color="#000"/>
    </radialGradient>
    <radialGradient id="radial-gradient-5" cx="-220.16" cy="1009.98" fx="-220.16" fy="1009.98" r=".64" gradientTransform="translate(6822.7 -7640.85) rotate(-17.65) scale(39.93 5.21)" gradientUnits="userSpaceOnUse">
      <stop offset="0" stop-color="#767676"/>
      <stop offset="1" stop-color="#242424"/>
    </radialGradient>
    <radialGradient id="radial-gradient-6" cx="-147.34" cy="885.09" fx="-147.34" fy="885.09" r=".64" gradientTransform="translate(7527.59 -5799.66) rotate(42.63) scale(10.59)" gradientUnits="userSpaceOnUse">
      <stop offset="0" stop-color="#cecece"/>
      <stop offset="1" stop-color="#272727"/>
    </radialGradient>
    <radialGradient id="radial-gradient-7" cx="-177.86" cy="812.66" fx="-177.86" fy="812.66" r=".64" gradientTransform="translate(14229.95 8146.46) rotate(107.37) scale(19.66)" gradientUnits="userSpaceOnUse">
      <stop offset="0" stop-color="#bbb"/>
      <stop offset="1" stop-color="#030303"/>
    </radialGradient>
    <radialGradient id="radial-gradient-8" cx="-214.32" cy="838.48" fx="-214.32" fy="838.48" r=".64" gradientTransform="translate(171295.39 -127234.18) rotate(32.82) scale(202.78 238.38) skewX(-10.49)" gradientUnits="userSpaceOnUse">
      <stop offset="0" stop-color="#5d5f5c"/>
      <stop offset=".16" stop-color="#9d9e9b"/>
      <stop offset=".65" stop-color="#393b37"/>
      <stop offset=".79" stop-color="#181917"/>
      <stop offset="1" stop-color="#0c0c0c"/>
    </radialGradient>
    <radialGradient id="radial-gradient-9" cx="-215.29" cy="848.42" fx="-215.29" fy="848.42" r=".64" gradientTransform="translate(41473.37 -48962.48) rotate(12.58) scale(138.21 67)" gradientUnits="userSpaceOnUse">
      <stop offset="0" stop-color="#fff"/>
      <stop offset=".32" stop-color="#5d5f5c"/>
      <stop offset=".45" stop-color="#a4a5a4"/>
      <stop offset=".58" stop-color="#414240"/>
      <stop offset=".76" stop-color="#393b37"/>
      <stop offset=".95" stop-color="#181917"/>
      <stop offset="1" stop-color="#383838"/>
    </radialGradient>
    <radialGradient id="radial-gradient-10" cx="-198.7" cy="828.84" fx="-198.7" fy="828.84" r=".64" gradientTransform="translate(50372.44 16461.66) rotate(108.74) scale(45 63.85) skewX(14.36)" gradientUnits="userSpaceOnUse">
      <stop offset="0" stop-color="#515151"/>
      <stop offset=".61" stop-color="#4a4a4a"/>
      <stop offset=".82" stop-color="#393939"/>
      <stop offset="1" stop-color="#272727"/>
    </radialGradient>
    <linearGradient id="linear-gradient" x1="-208.97" y1="832.59" x2="-208.3" y2="832.59" gradientTransform="translate(110307.94 55829.93) rotate(111.68) scale(84.55 147.8) skewX(5.34)" gradientUnits="userSpaceOnUse">
      <stop offset="0" stop-color="#767676"/>
      <stop offset=".73" stop-color="#242424"/>
      <stop offset="1" stop-color="#252525"/>
    </linearGradient>
    <radialGradient id="radial-gradient-11" cx="-205.13" cy="843.17" fx="-205.13" fy="843.17" r=".64" gradientTransform="translate(2963.29 -98926.41) rotate(-.06) scale(14.58 117.39)" gradientUnits="userSpaceOnUse">
      <stop offset="0" stop-color="#4c4c4c"/>
      <stop offset=".5" stop-color="#545454"/>
      <stop offset="1" stop-color="#313131"/>
    </radialGradient>
    <radialGradient id="radial-gradient-12" cx="-193.93" cy="842.61" fx="-193.93" fy="842.61" r=".64" gradientTransform="translate(4613.58 -109137.61) rotate(1.54) scale(8.25 129.7)" gradientUnits="userSpaceOnUse">
      <stop offset="0" stop-color="#898989"/>
      <stop offset="1" stop-color="#313131"/>
    </radialGradient>
    <radialGradient id="radial-gradient-13" cx="-196.28" cy="833.6" fx="-196.28" fy="833.6" r=".64" gradientTransform="translate(34182.53 4859.38) rotate(84.71) scale(40.22)" gradientUnits="userSpaceOnUse">
      <stop offset="0" stop-color="#838383"/>
      <stop offset=".69" stop-color="#565656"/>
      <stop offset="1" stop-color="#2d2d2d"/>
    </radialGradient>
    <linearGradient id="linear-gradient-2" x1="8.43" y1="78.26" x2="17.19" y2="79.48" gradientUnits="userSpaceOnUse">
      <stop offset="0" stop-color="#3b3b3b"/>
      <stop offset="1" stop-color="#686868"/>
    </linearGradient>
    <radialGradient id="radial-gradient-14" cx="22.07" cy="5.35" fx="22.07" fy="5.35" r="74.12" gradientTransform="translate(-12.11 110.88) scale(.94 -.98)" gradientUnits="userSpaceOnUse">
      <stop offset="0" stop-color="#000"/>
      <stop offset="1" stop-color="#6e6e6e"/>
    </radialGradient>
    <linearGradient id="linear-gradient-3" x1="91.38" y1="72.27" x2="91.54" y2="111.24" gradientUnits="userSpaceOnUse">
      <stop offset="0" stop-color="#656565"/>
      <stop offset="1" stop-color="#1e1e1e"/>
    </linearGradient>
    <linearGradient id="linear-gradient-4" x1="-423.08" y1="917.85" x2="-421.56" y2="917.85" gradientTransform="translate(-3717.17 -2050.38) rotate(-79.71) scale(4.17 4.41) skewX(5.15)" gradientUnits="userSpaceOnUse">
      <stop offset="0" stop-color="#313131"/>
      <stop offset="1" stop-color="#747474"/>
    </linearGradient>
    <linearGradient id="linear-gradient-5" x1="-424.03" y1="923.46" x2="-422.5" y2="923.46" gradientTransform="translate(-3717.17 -2050.38) rotate(-79.71) scale(4.17 4.41) skewX(5.15)" gradientUnits="userSpaceOnUse">
      <stop offset="0" stop-color="#313131"/>
      <stop offset="1" stop-color="#747474"/>
    </linearGradient>
    <linearGradient id="linear-gradient-6" x1="-425.33" y1="930.6" x2="-423.8" y2="930.6" gradientTransform="translate(-3717.17 -2050.38) rotate(-79.71) scale(4.17 4.41) skewX(5.15)" gradientUnits="userSpaceOnUse">
      <stop offset="0" stop-color="#313131"/>
      <stop offset="1" stop-color="#747474"/>
    </linearGradient>
    <linearGradient id="linear-gradient-7" x1="-460.23" y1="829.63" x2="-458.8" y2="829.63" gradientTransform="translate(2739.1 -1877.43) rotate(-99.42) scale(3.65 -3.54) skewX(3.41)" gradientUnits="userSpaceOnUse">
      <stop offset="0" stop-color="#252525"/>
      <stop offset="1" stop-color="#484b4b"/>
    </linearGradient>
    <linearGradient id="linear-gradient-8" x1="-458.9" y1="825.73" x2="-457.47" y2="825.73" xlink:href="#linear-gradient-7"/>
    <linearGradient id="linear-gradient-9" x1="95.97" y1="125.7" x2="96.49" y2="48.97" gradientTransform="translate(0 130) scale(1 -1)" gradientUnits="userSpaceOnUse">
      <stop offset=".12" stop-color="#5d5f5c"/>
      <stop offset=".45" stop-color="#a4a5a4"/>
      <stop offset=".58" stop-color="#9d9e9b"/>
      <stop offset=".76" stop-color="#393b37"/>
      <stop offset=".87" stop-color="#9ca097"/>
      <stop offset="1" stop-color="#0c0c0c"/>
    </linearGradient>
  </defs>
  <g>
    <path class="cls-8" d="m103.23,108.08c-.25.15-23.77,14.13-24.03,14.18,0,0-3.14,2.08-8.42-.39-3.69-1.66-60.34-21.91-61.11-22.25l-.09-.04c-3.37-1.51-5.54-4.87-5.54-8.57v-32.29c0-1.65.78-3.2,2.08-4.19v-2.27c-.02-.52-.02-1.03,0-1.53v-.06h0c0-.08,0-.18.02-.27.19-1.4,1.46-2.55,2.2-3.06,1.57-1.06,7.03-3,12.39-4.69,0-.03-.01-.06-.02-.1-.11-.5-.38-1.04-.8-1.53-.06-.06-.11-.13-.17-.19-.38-.41-.58-.94-.56-1.48.02-.55.26-1.07.66-1.44l1.63-1.51c.21-.2.46-.35.74-.44l14.38-4.88c.77-.26,1.62-.04,2.17.55.14.15.27.32.4.48.28.33.53.67.76,1.02.91-.27,1.66-.5,1.82-.54.4-.2.86-.26,1.31-.17l1.8.37c1.05.21,1.75,1.18,1.64,2.24,0,.07,0,.14-.02.21,0,.25,0,.5.06.73l2.2-.72c.34-.11.7-.13,1.05-.06l3.84.77,1.11-.31c.3-.09.61-.11.92-.05l26.38,4.58c.99.18,1.71,1.03,1.71,2.04v.37c3.02.62,5.82,1.22,8.3,1.79,6.99,1.6,11.92,7.84,11.87,15.01,0,.67-.01,1.37-.02,2.07l.54.15c.9.25,1.52,1.07,1.51,2-.05,6.91-.5,32.52-.56,40.56-.01,1.59-.83,3.06-2.16,3.92h0ZM8.07,52.72h0c-.13,0-.26-.03-.39-.06.17.05.31.06.39.06Zm32.98-19.58c-.32.39-.42.78-.45,1.08.04-.4.2-.78.45-1.08ZM8.13,52.72h-.06.06Z"/>
    <path class="cls-15" d="m38.33,40.85c-1.2-.27-3.54,0-5.57.43-1.22.25-20.15,5.67-23.25,7.77-.43.29-1.29.9-1.33,1.74-.76,16,24.67,40.09,24.67,52.63,0,2.76,30.52,11.39,42.09,16.59.78.34,24.46-13.62,25.18-14.08s1.16-1.25,1.16-2.11c.1-13.18.43-24.17.58-44.44.05-6.2-4.22-11.6-10.27-12.99-8.38-1.92-20.58-4.21-31.69-6.35h-4.03l-7.25,2.56-10.29-1.76h0Z"/>
    <path class="cls-13" d="m32.67,47.95s-.57,12.94-1.09,26.76c-.43,11.55,68.98,26.61,69.14,7.73.07-8.52.13-16.58.18-22.88.05-6.21-4.07-10.77-10.11-12.16-8.38-1.92-21.87-4.5-32.99-6.64h-4.03l-21.1,7.2h0Z"/>
    <path class="cls-16" d="m11.6,50.05l16.88,4.16.63-3.75,3.11-2.6,14.82-4.4-8.19-1.39c-1.44-.1-2.83-.09-3.92.13-2.91.57-22.58,6.81-22.58,6.81-.83.51-1.03.84-.75,1.04Z"/>
    <path class="cls-25" d="m20.31,49.25l14.2-4.71,3.79-3.29c1.98-1.48,1.66-4.99-.7-7.81-.11-.13-.21-.27-.33-.4l-14.38,4.87c.93,5.18,1.97,4.36-2.58,11.34Z"/>
    <path class="cls-31" d="m47.75,39.76l8.58,1.99-.17,2.16-11.08,3.68c-8.35-1.51-14.62-2.92-15.31-9.37-.02-.15,12.87-3.62,12.89-3.78l1.8.36c0,.12-.02.24-.03.36-.09,2.3,1.4,4.37,3.32,4.61h0Z"/>
    <path class="cls-22" d="m44.46,34.79c0,.12-12.66,3.84-12.66,3.84l-2.04-.41c-.02-.15,12.87-3.62,12.89-3.78l1.8.36h.01Z"/>
    <path class="cls-2" d="m35.5,44.22l10.48,1.8-.19,2.43-10.07-2.03c-3.28-.42-6.13-3.72-5.97-7.63,0-.18,0-.37.02-.55l2.04.41c-.02.13-.02.27-.03.4-.1,2.58,1.57,4.9,3.72,5.18h0Z"/>
    <path class="cls-27" d="m21.96,44.85l-1.73,1.68-.1,2.89,3.79-3.29c1.98-1.48,1.66-4.99-.7-7.81-.11-.13-.21-.27-.33-.4l-1.63,1.51c.09.09.17.19.25.28,1.55,1.86,1.76,4.16.45,5.14Z"/>
    <path class="cls-14" d="m103.9,63.62l-2.04-.56.05,2.03s-16.71,7.13-23.24,9.92c-1.66.71-3.52.84-5.26.37-11.26-3.06-54.46-14.78-64.98-17.64-.54-.14-1.11-.02-1.54.33-.43.35-.66.89-.63,1.44,2.36,16.12,26.98,33.85,26.98,46.33l39.63,14.73c.96.38,5.95-.03,6.62-.4,5.08-2.77,21.92-13.45,22.59-13.87.75-.48,1.21-1.31,1.21-2.2.1-12.64.45-18.45.62-40.47h-.01Z"/>
    <path class="cls-10" d="m32.22,47.87l-3.75,2.42-.05,5.09-20.24-4.69v37.61c0,2.77,1.62,5.27,4.14,6.41,12.41,5.58,49.15,15.81,60.72,21.01.78.35,1.68.29,2.4-.18.72-.46,1.16-1.25,1.16-2.11.1-13.18.43-24.83.58-45.11.05-6.2-4.22-11.6-10.27-12.99l-34.7-7.47h0Z"/>
    <path class="cls-29" d="m71.76,113.05l-60.4-20.87c-1.53-.69-2.52-2.21-2.52-3.89v-37.61l19.59,4.7.05-5.1,35.75,7.74c4.78,1.1,8.15,5.37,8.11,10.28l-.58,44.76h0Z"/>
    <path class="cls-23" d="m80.75,74.85c-2.86.88-6.34.67-8.6-.06L8.18,57.55v-1.88s-.29.18-.65.41c-.89.57-1.43,1.56-1.43,2.61v32.23c0,2.88,1.69,5.5,4.33,6.69,12.96,5.83,49.16,17.15,61.24,22.58.81.37,3.83,1.05,4.68.78,1.88-.57,2.96-.8,2.96-1.69l1.43-44.43h.01Z"/>
    <path class="cls-18" d="m81.53,73.9c-3.44,1.72-9.48,1.15-11.73.42l-.75,44.61c2.16,1.13,5.9,1.9,6.79,1.88,2.71-.04,5.82-1.77,5.82-2.66l-.14-44.25h0Z"/>
    <path class="cls-24" d="m43.89,109.75c-3.63-1.02-7.71-2.63-12.27-4.91-.49-.57-1.01-1.24-1.56-2.03-4.14-5.9-1.11-7.21,3.84-3.13,3.14,2.6,2.83,4.1,5.41,3.97,3.18-.16,3.36,2.64,3.37,2.85.1,1.59.3,1.98,1.21,3.25Zm-32.76-24.39c1.63-1.43,3.33-.43,5.08,1.64-.23.31-.54.68-.9,1.22-1.37,2.06-6-.42-4.45-2.47.1-.14.19-.27.27-.38h0Zm17.1,6.25c-.02-1.63,1.41-1.4,1.79-1.23.93.43,2.49.63,2.13,3.06-.8.92-3.23-.14-3.92-1.84h0Zm32.03-5.65c4.08-4.23,8.02,5.04,8.13,5.17,1.26,1.44,4.45,2.53,4.65,5.07.35,4.58-5.62,4.58-8.31-1.46-2.61-5.89-6.27-6.91-4.47-8.78Z"/>
    <path class="cls-34" d="m80.85,74.9c-3.1.85-5.69.64-7.53.38l-.72,44.67c2.16,1.14,3.96,1.12,4.82.86,1.88-.58,2.96-.8,2.96-1.69,0,0,.47-44.22.47-44.22Z"/>
    <path class="cls-36" d="m100.84,82.51c-1.84,4.67,2.03,12.62-2.07,18.11-4.97,6.65-6.38-8.13-5.68-11.01.97-4.03,6.16-5.51,6.76-9.44.31-1.99.36-2.51,1.04-3.79-.02,2.01-.03,4.06-.05,6.13Zm-9.02,27.34c.33.4.58.79.75,1.16-.52,1.31-1.11,2.12-1.75,2.55-1.16-.18-2.98-.76-4.5-2.71-1.88-2.41,4.86-4.66-.61-6.35-3.05-.94-1.65,4.31-2.9,2.05-.92-1.64-2.14-3.05-3.16-3.87-4.54-3.64-2.17-7.56,2.59-3.26,4.17,3.78,5.99-1.05,7.44.45,1.75,1.82,1.46,9.14,2.14,9.98Z"/>
    <path class="cls-6" d="m103.71,87.21c-.01,1.37-.02,2.74-.03,4.12-1.22.19-2.75.09-3.27.56-.92.84-3.02,5.3-1.5,8.15.1.19,1.98,2.87-.73,9.03l-7.68,4.36c.09-1.03.24-3.47.61-4.84,1.36-5.15,3.22-5.74,1.79-8.57-1.77-3.49,1.31-5.42,1.54-5.57,2.21-1.38,2.16-1.76,3.99-5.11,1.66-3.04,3.98-2.71,4.31-2.66l.98.52h-.01Zm-23.52,32.67c-2.84,1.5-.53-10.28,2.54-7.01.82.88,1.79,3.76,2.81,3.44,2.25-.71-3.17,2.43-5.35,3.58h0Zm10.76-25.55c-3.11,0,.31-7.7.34-7.83.36-1.59.04-4.12,1.21-5.69,2.11-2.84,3.69.72,1.49,5.8-2.14,4.96-1.66,7.72-3.04,7.72Zm.58-23.05c.41-.22,6.81-3.68,4.74,1.98-2.02,5.54-8.76,4.31-12.89,15.94-2.57,7.25-4.97-4.1-.68-7.34,1.45-1.09,1.57-1.43,1.83-4.49.13-1.58,1.08-2.45,1.36-2.5,2.1-.39,2.12.53,4.15-1.86l1.48-1.73h0Z"/>
    <path class="cls-21" d="m20.18,60.78c1.83,1.95,3.6,7.78,4.53,12,.85,3.87,6.02-5.78,7.39-1.84.98,2.82-1,17.73-8,11.53-6.6-5.85.61-4.91-5.15-8.29-6.73-3.95-6.84-8.59-8.02-15.88l9.24,2.49h0Zm-14.08,12.67c1.16.66,1.26.5,2.67.53,1.9.03,2.46,3.7,3.43,4.73.63.67,6.67,2.98,5.6,6.44-.97,3.13-3.6-4.59-7.52-2.23-3.05,1.84-1.48,17.06,4.34,10.3,1.7-1.98,5.26,1.55,5.07,3.9-.24,2.84-.97,1.88-2.8,2.49-2.53.83-10.78-7.12-10.78-7.12v-19.04h-.01Zm45.38,29.85c-2.12-.54-10.99,1.39-11.89-6.44-.42-3.67,5.51-5.34,11.15-.7,3.97,3.27,7.51,3.79,8.76,6.14,2.46,4.64-3.66,2.11-8.03,1h0Z"/>
    <path class="cls-1" d="m28.29,64.54c-2.79,3.12-2.62,8.39,1.98,5.01,2.31-1.69,4.49-2.71,6.54-3.3l-8.52-1.71Zm27.78,17.72l-1.06-1.28c-.38-.27-3.07-2.2-6.45-.66-3.73,1.7-3.84,2.07-7.15,1.75-.33-.04-4.95-.48-4.35,3.9.49,3.55-.3,1.96-4.26,5.62-6.23,5.74-2.52,8.52,3.31,5.49,1.6-.85,4.43-2.19,3.81-6.05-.58-3.63,8.44-6.92,9.94-7.03,1.95-.14,9.16,6.29,6.21-1.74Zm-42.6,11.93c3.16.51.58,3.97,3.9,4.05,3.71.09,5.81-4.43,2.76-5.39-1.39-.44-.58-1.2-1.19-2.57-2.29-5.09-9.6,3.24-5.47,3.91Zm23.76-14.7c1.68.97,2.32-1.84,7.15-4.76,4.94-2.99,4.6-7.3.76-6.25-2.13.58-2.87,3.08-4.01,4.25-.1.1-7.69,4.57-3.9,6.77h0Z"/>
    <path class="cls-40" d="m11.46,58.6c-3.09,4.71,10.68,9.2,10.67,12.38-.03,5.23-5.82,3.22-8.44-.55-2.51-3.61-2.42-3.86-5.48-5.95-1.01-.7-1.49-1.45-1.8-2.92v-2.52c0-1.15.56-2.22,1.49-2.83l.47-.31v1.84l3.09.87h0Zm59.72,15.45c.19.68.37.85.6,1.75.77,2.99-2.13,13.65-5.15,6.87-1.01-2.27-1.46-.76-2.35-3.11-1.92-5.05-.22-3.7-3.74-5.1-1.27-.51-3.13-3.06-4.37-4.27,0,0,13.97,3.8,15.01,3.85h0Zm-21.33-4.69c-.59,1.07-.51,2.82-.7,3.86-.5,2.72-2.88,2.47-4.04.6-1.85-3-1.13-4.68-.37-5.89l5.11,1.43Zm-.37,31.46c-2.95-1.49-2.28-8.55,2.55-6.7,1.78.69,3.76,9.89-2.55,6.7Zm16.39,17.26l-9.83-3.69c-1.07-1.8-3.98-2.72-5.03-4.93-2.74-5.76,3.23-6.79,5.32-1.43.71,1.83,4.43,6.73,7.31,5.2,4.93-2.62,4.26,1.67,2.24,4.85h-.01Z"/>
    <ellipse class="cls-19" cx="36.65" cy="73.67" rx="3.44" ry="4.17" transform="translate(-10.83 6.47) rotate(-8.79)"/>
    <ellipse class="cls-19" cx="12.8" cy="67.21" rx="3.44" ry="4.17" transform="translate(-10.12 2.75) rotate(-8.79)"/>
    <ellipse class="cls-19" cx="66.97" cy="82.01" rx="3.44" ry="4.17" transform="translate(-11.75 11.2) rotate(-8.79)"/>
    <ellipse class="cls-32" cx="86.21" cy="78.84" rx="3.64" ry="2.76" transform="translate(-1.18 156.37) rotate(-84.02)"/>
    <ellipse class="cls-32" cx="99.27" cy="72.39" rx="3.64" ry="2.76" transform="translate(16.93 163.58) rotate(-84.02)"/>
    <path class="cls-33" d="m64.11,52.41l17.58-6.24v-3.92l-25.3-1.23-19.74,1.94v3.92s27.46,5.53,27.46,5.53Z"/>
    <path class="cls-12" d="m64.11,52.41l17.58-6.24v-3.92l-17.58,6.24v3.92Z"/>
    <path class="cls-26" d="m64.11,48.49l17.58-6.24-26.38-4.59-18.66,5.3s27.46,5.53,27.46,5.53Z"/>
    <path class="cls-1" d="m64.01,47.11l-21.75-4.38,13.12-3.73,21.12,3.67-12.49,4.43h0Z"/>
    <path class="cls-28" d="m8.06,55.67l.11.05c0,.76-.06.99-.03,1.29.05.27.33.3.53.35.22.05.97.22,2.79.67,44.08,10.77,58.29,15.79,61.49,16.32,3.58.59,9.71-.81,10.58-1.31l-1.82,1.17c-1.13.87-3.7,2.05-9.14,1.16-1.22-.18-4.18-.97-5.19-1.23-33.78-8.5-39.25-10.49-58.29-15.82-.56-.15-1.7-.26-1.78-1.25,0-.1,0-.21.02-.32.08-.38.21-.69.74-1.1v.02Z"/>
    <path class="cls-11" d="m90.11,70.48l5.3-3.04.09,43.6-5.3,3.04-.09-43.61h0Z"/>
    <path class="cls-9" d="m92.83,68.74l-1.45.82v41.1c-.08,1.3-.56,2.3-1.3,3.11l1.45-.83c.98-.74,1.22-1.89,1.29-3.12v-41.08h.01Z"/>
    <path class="cls-38" d="m12.55,64.11c1.43.35,2.47,2.02,2.32,3.73-.08.93-.58,3.19-3.08,2.49-2.04-.57-2.16-3-2.1-3.77.15-1.71,1.43-2.8,2.86-2.44h0Z"/>
    <path class="cls-30" d="m36.55,70.33c1.43.35,2.47,2.02,2.32,3.73-.08.93-.58,3.19-3.08,2.49-2.04-.57-2.16-3-2.1-3.77.15-1.71,1.43-2.8,2.86-2.44h0Z"/>
    <path class="cls-37" d="m67.03,78.65c1.43.35,2.47,2.02,2.32,3.73-.08.93-.58,3.19-3.08,2.49-2.04-.57-2.16-3-2.1-3.77.15-1.71,1.43-2.8,2.86-2.44h0Z"/>
    <path class="cls-4" d="m86.38,75.9c-1.14.31-1.98,1.77-1.86,3.26.07.85.47,2.77,2.46,2.18,1.54-.46,1.74-2.65,1.69-3.3-.12-1.5-1.14-2.45-2.29-2.14Z"/>
    <path class="cls-3" d="m99.33,69.66c-1.14.31-1.98,1.77-1.86,3.26.07.85.47,2.77,2.46,2.18,1.54-.46,1.74-2.65,1.69-3.3-.12-1.5-1.14-2.45-2.29-2.14Z"/>
    <path class="cls-20" d="m41.43,40.76l27.56,5.69,1.42,1.64.06,3.85.76.16,6.82-3.05-.23-3.73-.78-1.65-28.33-5.74-7.35,1.98.08.86h0Z"/>
    <path class="cls-22" d="m41.29,39.89l28.4,5.86,1.42,1.64,7.66-2.77-1.05-1.65-28.33-5.74-8.11,2.66h.01Z"/>
    <path class="cls-35" d="m77.72,42.96l-8.04,2.79,1.42,1.64,7.66-2.77-1.05-1.65h.01Z"/>
    <path class="cls-7" d="m78.77,44.62l-7.66,2.77.11,4.71,7.55-3.21s0-4.27,0-4.27Z"/>
    <path class="cls-39" d="m64.08,48.6c-12.26-2.17-14.41-2.51-27.61-5.7,12.91,2.44,14.97,2.77,27.61,5.7Z"/>
    <path class="cls-17" d="m69.8,45.54c-12.9-2.65-14.92-2.69-27.61-5.7,13.68,2.27,13.94,2.25,27.61,5.7Z"/>
  </g>
  <g>
    <path class="cls-8" d="m86.13,8.84s6.71,23.56,10.43,36.66c3.83-13.1,10.74-36.7,10.74-36.7l.53-1.8h14.96v63.68h-13.45v-25.58l-7.57,25.58h-11.23l-7.48-25.84v25.84h-13.45V7h16l.53,1.84h0Z"/>
    <path class="cls-5" d="m72.14,9.54h11.55s12.48,43.84,12.83,45.11c.42-1.45,13.21-45.11,13.21-45.11h10.53v58.64h-8.38V27.58l-12,40.6h-7.43l-11.93-41.26v41.26h-8.38s0-58.64,0-58.64Z"/>
  </g>
</svg>