<?xml version="1.0" encoding="UTF-8"?>
<svg id="Layer_1" data-name="Layer 1" xmlns="http://www.w3.org/2000/svg" width="128" height="128" xmlns:xlink="http://www.w3.org/1999/xlink" viewBox="0 0 128 128">
  <defs>
    <style>
      .cls-1 {
        fill: url(#linear-gradient-7);
      }

      .cls-1, .cls-2, .cls-3, .cls-4, .cls-5, .cls-6, .cls-7, .cls-8, .cls-9, .cls-10, .cls-11, .cls-12, .cls-13, .cls-14, .cls-15, .cls-16, .cls-17, .cls-18, .cls-19 {
        stroke-width: 0px;
      }

      .cls-1, .cls-2, .cls-3, .cls-4, .cls-5, .cls-6, .cls-7, .cls-8, .cls-9, .cls-10, .cls-11, .cls-12, .cls-13, .cls-14, .cls-16, .cls-17, .cls-18, .cls-19 {
        fill-rule: evenodd;
      }

      .cls-2 {
        fill: #3a3a3a;
      }

      .cls-3 {
        fill: #1a1a1a;
      }

      .cls-4 {
        fill: #cecece;
      }

      .cls-5 {
        fill: #696969;
      }

      .cls-6 {
        fill: #bdbdbd;
      }

      .cls-8 {
        fill: url(#linear-gradient-3);
      }

      .cls-9 {
        fill: #d8d6d6;
      }

      .cls-10 {
        fill: #282928;
      }

      .cls-11 {
        fill: #101112;
      }

      .cls-12 {
        fill: url(#radial-gradient);
      }

      .cls-13 {
        fill: url(#linear-gradient);
      }

      .cls-14, .cls-17 {
        opacity: .9;
      }

      .cls-15 {
        fill: url(#linear-gradient-2);
      }

      .cls-16 {
        fill: url(#linear-gradient-5);
      }

      .cls-17 {
        fill: url(#linear-gradient-6);
      }

      .cls-18 {
        fill: #aaa;
      }

      .cls-19 {
        fill: url(#linear-gradient-4);
      }
    </style>
    <linearGradient id="linear-gradient" x1="30.87" y1="45.09" x2="54.6" y2="89.36" gradientUnits="userSpaceOnUse">
      <stop offset=".07" stop-color="#090909"/>
      <stop offset=".54" stop-color="#2d2f2e"/>
      <stop offset="1" stop-color="#575956"/>
    </linearGradient>
    <linearGradient id="linear-gradient-2" x1="62.43" y1="100.86" x2="32.59" y2="108.2" gradientUnits="userSpaceOnUse">
      <stop offset="0" stop-color="#1e201f"/>
      <stop offset=".54" stop-color="#1e201f"/>
      <stop offset="1" stop-color="#1d1e1e"/>
    </linearGradient>
    <linearGradient id="linear-gradient-3" x1="19.88" y1="71.81" x2="52.89" y2="67.65" gradientUnits="userSpaceOnUse">
      <stop offset="0" stop-color="#1d1e1d"/>
      <stop offset=".67" stop-color="#2d2f2e"/>
      <stop offset="1" stop-color="#575956"/>
    </linearGradient>
    <linearGradient id="linear-gradient-4" x1="36.4" y1="54.38" x2="44.28" y2="93.82" gradientUnits="userSpaceOnUse">
      <stop offset="0" stop-color="#101112"/>
      <stop offset="1" stop-color="#101112"/>
    </linearGradient>
    <linearGradient id="linear-gradient-5" x1="54.39" y1="105.63" x2="67.85" y2="105.63" gradientUnits="userSpaceOnUse">
      <stop offset="0" stop-color="#616462"/>
      <stop offset="1" stop-color="#3e403f"/>
    </linearGradient>
    <linearGradient id="linear-gradient-6" x1="24.93" y1="33.71" x2="41.1" y2="40.51" gradientUnits="userSpaceOnUse">
      <stop offset="0" stop-color="#1b1b1b"/>
      <stop offset="1" stop-color="#171717"/>
    </linearGradient>
    <radialGradient id="radial-gradient" cx="37.52" cy="69.35" fx="72.65" fy="83.53" r="37.89" gradientUnits="userSpaceOnUse">
      <stop offset=".31" stop-color="#fff"/>
      <stop offset="1" stop-color="#1d1e1c" stop-opacity=".5"/>
    </radialGradient>
    <linearGradient id="linear-gradient-7" x1="96.68" y1="-15.4" x2="95.84" y2="89.06" gradientUnits="userSpaceOnUse">
      <stop offset=".12" stop-color="#5d5f5c"/>
      <stop offset=".45" stop-color="#a4a5a4"/>
      <stop offset=".58" stop-color="#9d9e9b"/>
      <stop offset=".76" stop-color="#393b37"/>
      <stop offset=".87" stop-color="#9ca097"/>
      <stop offset="1" stop-color="#0c0c0c"/>
    </linearGradient>
  </defs>
  <g>
    <path class="cls-14" d="m24.54,30.66c.39-.21.83-.28,1.27-.2l.09.02c5.18.92,10.35,1.86,15.53,2.81.53.1,1,.41,1.29.87.52.8,1.03,1.61,1.54,2.42,3.43.64,6.86,1.3,10.29,1.95.45.09.84.32,1.12.65.29.33.48.76.49,1.23,0,.09,0,.18,0,.27,1.39,19.87,3.93,40.01,10.31,58.36.1.29.13.59.09.89.72.11,1.35.62,1.58,1.35l1.57,4.96c.16.51.11,1.07-.15,1.54-.26.47-.7.81-1.23.94l-28.65,7.32c-.06.02-.13.03-.19.04l-11.02,1.68c-.98.15-1.92-.46-2.18-1.41l-1.41-5.11c-.14-.51-.07-1.05.2-1.51.11-.19.26-.36.42-.5-.26-.23-.46-.54-.57-.89-7.05-23.31-12.94-47.97-12.04-72.8.03-.84.59-1.56,1.4-1.8,3.42-1.02,6.84-2.04,10.25-3.07Z"/>
    <path class="cls-13" d="m25.47,32.39c5.2.93,10.4,1.87,15.6,2.83.67,1.04,1.33,2.08,2,3.13,3.71.7,7.41,1.4,11.12,2.11,1.4,20.16,3.96,40.61,10.44,59.24-8.93,2.2-17.88,4.35-26.83,6.46-7.21-23.6-13.25-48.58-12.33-73.77Z"/>
    <path class="cls-15" d="m27.66,107.59c.28.9.55,1.81.83,2.71,12.11-2.64,24.19-5.37,36.26-8.18-.27-.75-.53-1.5-.8-2.26-3.71.58-7.46,1.45-11.17,2.01-8.38,2.05-16.72,3.75-25.12,5.71Z"/>
    <path class="cls-2" d="m52.28,101.95c.29,1.07.59,2.13.88,3.2,3.85-.9,7.74-2.11,11.59-3.03-.27-.75-.53-1.5-.8-2.26l-11.67,2.09Z"/>
    <path class="cls-9" d="m16.09,35.61c5.04.94,10.08,1.89,15.13,2.85.65,1.02,1.29,2.04,1.94,3.07,3.59.7,7.14,1.13,10.73,1.84,1.36,19.7,3.81,40.09,10.1,58.33l-1.23.18L16.09,35.61Z"/>
    <path class="cls-8" d="m14.85,35.61c5.04.94,10.09,1.89,15.13,2.85.65,1.02,1.29,2.04,1.94,3.07,3.59.7,7.19,1.41,10.78,2.12,1.36,19.7,3.79,39.99,10.08,58.23-8.67,2.11-17.3,3.88-25.98,5.9-6.99-23.11-12.85-47.55-11.95-72.16Z"/>
    <path class="cls-19" d="m35.31,47.85c.63,17.64,3.6,35.5,8.68,52.07.73-.24,1.45-.47,2.18-.71-4.98-16.24-7.89-33.75-8.51-51.03-.78-.11-1.56-.22-2.34-.33Z"/>
    <path class="cls-11" d="m35.31,47.85c.63,17.64,3.6,35.5,8.68,52.07.73-.24,1.45-.47,2.18-.71-4.98-16.24-7.89-33.75-8.51-51.03-.78-.11-1.56-.22-2.34-.33Z"/>
    <path class="cls-16" d="m66.28,101.87l1.57,4.96-11.94,2.56c-.51-1.79-1.01-3.59-1.52-5.38l11.9-2.14Z"/>
    <path class="cls-4" d="m55.58,103.78c.51,1.79,1.01,3.57,1.51,5.36l-1.18.25-1.52-5.38,1.19-.23Z"/>
    <path class="cls-6" d="m43.07,38.34c3.72.71,7.43,1.42,11.15,2.15-3.83,1.05-7.67,2.11-11.52,3.15-3.6-.72-7.2-1.44-10.81-2.15,3.74-1.05,7.47-2.09,11.18-3.15Z"/>
    <path class="cls-5" d="m43.07,38.34l-2-3.13-11.09,3.24,1.91,3.03c3.74-1.05,7.47-2.09,11.18-3.15Z"/>
    <path class="cls-6" d="m25.56,32.4c5.17.92,10.35,1.86,15.52,2.81-3.72,1.08-7.44,2.15-11.18,3.22-5.01-.96-10.02-1.9-15.04-2.83,3.58-1.07,7.15-2.13,10.7-3.2Z"/>
    <path class="cls-17" d="m39.62,41.97l-5.62-1.07-2.03-3.05-12.71-2.56,6.94-2.06c4.36.84,8.72,1.69,13.08,2.55l1.98,3.07h.08s5.74,1.09,5.74,1.09l-7.46,2.03Z"/>
    <path class="cls-3" d="m39.2,114.15l-11.13,1.72c9.31-2.2,18.55-4.16,27.83-6.48l11.94-2.56-28.65,7.32Z"/>
    <path class="cls-10" d="m54.39,104.01l1.52,5.38-27.73,6.44c-.47-1.7-.94-3.41-1.41-5.11l27.62-6.71Z"/>
    <path class="cls-12" d="m35.55,52.37c.28,4.12.68,8.09,1.16,11.91.17,1.33.34,2.65.53,3.95.19,1.33.39,2.64.59,3.94.17,1.06.34,2.11.51,3.15.27,1.59.54,3.16.84,4.71.3,1.59.62,3.15.95,4.69.51,2.38,1.05,4.71,1.63,7-.67-2.27-1.3-4.57-1.89-6.94-.38-1.53-.74-3.09-1.08-4.67-.33-1.54-.65-3.11-.93-4.71-.19-1.04-.36-2.09-.53-3.15-.2-1.3-.38-2.62-.55-3.96-.16-1.31-.31-2.63-.44-3.97-.38-3.84-.64-7.82-.79-11.96Z"/>
    <path class="cls-18" d="m27.01,110.8s1.28-.37,3.3-.94c1.37-.39,3.08-.87,4.96-1.38,1.06-.29,2.18-.59,3.32-.88.73-.19,1.47-.38,2.22-.56.74-.18,1.49-.36,2.22-.53,1.15-.27,2.27-.52,3.35-.76,1.2-.27,2.33-.51,3.35-.73,2.99-.64,5.04-1.07,5.04-1.07,0,0-2.01.58-4.95,1.4-1.01.28-2.12.59-3.31.91-1.06.29-2.18.59-3.31.89-.73.19-1.47.38-2.22.57-.74.18-1.49.36-2.22.53-1.15.27-2.27.52-3.34.76-1.9.42-3.64.79-5.03,1.09-2.05.44-3.36.71-3.36.71Z"/>
  </g>
  <g>
    <path class="cls-7" d="m75.52,46.18l6.39-.61c1.44-.14,2.73.91,2.88,2.35.26,2.36.81,4.31,1.74,5.83.86,1.41,2.22,2.51,4.04,3.37,1.99.95,4.23,1.41,6.71,1.41,2.19,0,4.13-.34,5.81-1.06,1.44-.61,2.54-1.42,3.24-2.49.68-1.03,1.02-2.15,1.02-3.37s-.29-2.22-.92-3.1c-.69-.98-1.87-1.75-3.47-2.41h-.02c-1.32-.57-4.24-1.44-8.75-2.63-5.02-1.32-8.53-2.61-10.54-3.79-2.88-1.66-5.01-3.75-6.43-6.21-1.43-2.48-2.15-5.25-2.15-8.33,0-3.32.85-6.43,2.57-9.32,1.74-2.93,4.27-5.17,7.6-6.68,3.15-1.43,6.64-2.16,10.49-2.16,4.22,0,7.93.77,11.15,2.26,3.41,1.58,6.01,3.91,7.85,6.97,1.79,2.98,2.76,6.36,2.89,10.13.05,1.41-1.02,2.61-2.43,2.73l-6.49.54c-1.44.12-2.71-.94-2.85-2.38-.27-2.79-1.1-4.93-2.69-6.36-1.61-1.45-4.02-2.04-7.15-2.04s-5.71.5-7.21,1.82c-1.25,1.11-1.91,2.43-1.91,3.99,0,1.25.38,2.3,1.2,3.11,0,0,.02,0,.02.02,1.14,1.14,4.18,2.12,8.98,3.32,5.77,1.44,9.73,2.71,11.88,3.79h0c3.47,1.77,6.01,4.02,7.66,6.72,1.67,2.72,2.52,5.84,2.52,9.39s-.9,6.74-2.7,9.81c-1.82,3.08-4.42,5.49-7.81,7.2-3.27,1.65-6.95,2.49-11.05,2.49-5.09,0-9.34-.85-12.78-2.48-3.62-1.72-6.45-4.29-8.5-7.74-2.01-3.36-3.08-7.16-3.19-11.41-.03-1.39,1.01-2.56,2.39-2.69Z"/>
    <path class="cls-1" d="m75.78,48.81l6.39-.62c.3,2.82,1,5.13,2.11,6.93,1.11,1.81,2.83,3.26,5.15,4.38,2.33,1.11,4.95,1.67,7.85,1.67,2.58,0,4.87-.42,6.84-1.27,1.98-.84,3.45-2,4.42-3.48.97-1.47,1.46-3.08,1.46-4.82s-.47-3.31-1.4-4.63c-.93-1.32-2.47-2.43-4.6-3.32-1.38-.59-4.42-1.5-9.11-2.75-4.71-1.24-8-2.41-9.88-3.51-2.44-1.41-4.27-3.16-5.47-5.24-1.2-2.09-1.8-4.42-1.8-7.01,0-2.84.74-5.5,2.2-7.97,1.47-2.47,3.61-4.34,6.43-5.63,2.81-1.28,5.94-1.92,9.39-1.92,3.8,0,7.14.67,10.04,2.01,2.9,1.34,5.13,3.32,6.69,5.93,1.56,2.61,2.4,5.57,2.51,8.87l-6.49.54c-.35-3.56-1.53-6.24-3.55-8.06-2.01-1.82-4.99-2.72-8.92-2.72s-7.09.83-8.96,2.48c-1.87,1.65-2.81,3.64-2.81,5.97,0,2.02.67,3.68,1.99,4.99,1.31,1.31,4.71,2.64,10.22,4.01,5.5,1.37,9.28,2.57,11.33,3.59,2.98,1.51,5.18,3.43,6.59,5.74,1.43,2.32,2.13,4.98,2.13,8.01s-.78,5.82-2.33,8.46c-1.57,2.65-3.81,4.71-6.73,6.19-2.92,1.47-6.21,2.21-9.86,2.21-4.64,0-8.52-.75-11.65-2.23-3.12-1.49-5.58-3.72-7.36-6.7-1.79-2.98-2.72-6.35-2.81-10.11Z"/>
  </g>
</svg>