<svg xmlns="http://www.w3.org/2000/svg" width="39.938" height="40" viewBox="0 0 39.938 40">
  <defs>
    <style>
      .cls-1 {
        fill: #fff;
        fill-rule: evenodd;
      }
    </style>
  </defs>
  <path id="Color_Fill_1" data-name="Color Fill 1" class="cls-1" d="M20.925,3.3a15.8,15.8,0,0,1,2.674.1,5.107,5.107,0,0,1,1.234.052,9.4,9.4,0,0,0-2.005.207l-1.8-.052V3.659a1.209,1.209,0,0,1,.1.363H21.8c0.08,0.313.264,0.633,0.36,0.933l0.1,0.726,0.206,0.1V6.667c0.03,0.391-.055,1.061-0.051,1.659h-0.1a0.344,0.344,0,0,1-.206.052v0.83c0.446,0.133.794,0.506,1.234,0.674,0.7,0.268,1.426.259,2.159,0.467a11.54,11.54,0,0,0,3.136.519c0.444,0,.956.2,1.491,0.207l0.1-3.007h0.1V9.519a4.455,4.455,0,0,1,.051,1.607l3.753,0.467c0.9,0.2,1.831.121,2.673,0.311,0.985,0.223,1.96.058,2.468,0.726,0.059,0.1.042,0.371,0.1,0.467,0.079-.1.218-0.03,0.411,0.052,0.68,1.476-.5,2.616-1.645,3.059a32.567,32.567,0,0,1-3.445.622c-2.7.677-5.671,0.74-8.381,1.4-0.8.195-1.621,0.182-2.365,0.363a2.8,2.8,0,0,0-1.183.259c-1.372,1.247-.715,3.805-1.182,5.911q-0.026.544-.051,1.089c-0.223,1.022-.186,2.176-0.411,3.163a8.084,8.084,0,0,0-.1,1.244,2.09,2.09,0,0,0,1.131.363c0.879,0.251,1.9.477,2.776,0.726,0.48,0.136,1.317.083,1.491,0.519,0.536,0.566.218,2.407,0.051,3.111a6.521,6.521,0,0,1-2.108.57,7.937,7.937,0,0,1-3.445.467l-0.257-.363c-0.178-.549.226-1.469-0.051-1.919a7.315,7.315,0,0,1-.411,2.385A3.311,3.311,0,0,1,20,37a12.514,12.514,0,0,0-.514-1.97,4.362,4.362,0,0,0-.1-1.037,8.444,8.444,0,0,1-.1,1.867,2.677,2.677,0,0,1-2.314-.052c-1.021-.289-2.171-0.384-3.136-0.622a2.644,2.644,0,0,1-.463-0.882,5.446,5.446,0,0,1,.206-2.489,2.979,2.979,0,0,1,1.491-.467c1.252-.378,2.646-0.661,3.907-0.985A1.123,1.123,0,0,0,19.023,30a9.63,9.63,0,0,1-.257-2.022c-0.293-1.292-.171-2.857-0.463-4.2-0.107-.494-0.009-1.019-0.1-1.452q-0.026-.933-0.051-1.867a5.646,5.646,0,0,0-.925-1.607c-0.5-.381-1.467-0.247-2.159-0.415-0.968-.235-2.016-0.223-3.033-0.467a12.177,12.177,0,0,0-2.211-.363,0.953,0.953,0,0,0-.051-0.467v0.415a11.923,11.923,0,0,1-2.519-.415C6.282,16.9,5.28,16.9,4.37,16.674,2.83,16.29,1.917,16.51.823,15.637A2.1,2.1,0,0,1,.257,13.1c0.571-.032.251-0.234,0.463-0.518a3.948,3.948,0,0,1,1.594-.622l3.136-.311c0.839-.2,1.779-0.1,2.674-0.311,0.607-.146,1.478-0.088,2.005-0.207,1.4-.319,2.847-0.338,4.165-0.726a12.722,12.722,0,0,0,3.085-.933,1.573,1.573,0,0,0,.566-0.311V8.378l-0.308-.052V7.289c-0.389-.4-0.014-1.826.1-2.281a1.111,1.111,0,0,1,.308-0.83,1.905,1.905,0,0,1,.874-0.1,1.588,1.588,0,0,1,.051-0.363H18.766c-0.516.408-1.859,0.055-2.571,0.052a2.726,2.726,0,0,1-1.028-.052l3.907-.363a1.669,1.669,0,0,1,.771-1.3A0.344,0.344,0,0,1,20.051,2,2.362,2.362,0,0,1,20.925,3.3ZM14.447,32.852V33.63h0.1V33.37A1.268,1.268,0,0,1,14.5,32.8a0.329,0.329,0,0,0-.206.052h0.154ZM25.553,32.8a2.163,2.163,0,0,1-.1.83H25.6a1.591,1.591,0,0,1,.1-0.83H25.553Zm-11.722.052a0.27,0.27,0,0,0,.309,0H13.83Zm12.082,0a0.149,0.149,0,0,0,.206,0H25.913ZM13.625,32.9a0.366,0.366,0,0,1-.206.1v0.052h0.1c0.069-.064.184-0.095,0.257-0.156H13.625Zm12.648,0a0.185,0.185,0,0,0,.1.052A0.185,0.185,0,0,0,26.273,32.9Zm-11.517.467V33.63h0.1V33.422a1.826,1.826,0,0,0,.771-0.052H14.756Zm10.437,0.052V33.63h0.1V33.37a2.137,2.137,0,0,0-.874.052h0.771Zm-8.432,0a0.338,0.338,0,0,0,.051.207A0.337,0.337,0,0,0,16.761,33.422Zm1.954,0c0.043,0.168-.025.079,0.1,0.156V33.422h-0.1Zm0.308,0a0.253,0.253,0,0,0,.051.156V33.422H19.023Zm1.954,0a0.252,0.252,0,0,0,.051.156V33.422H20.977Zm0.206,0v0.156h0.154V33.422H21.183Zm1.851,0a0.338,0.338,0,0,0,.051.207A0.337,0.337,0,0,0,23.033,33.422Zm-5.913.1v0.1h0.051A0.178,0.178,0,0,0,17.121,33.526Z" transform="translate(-0.063 0.5)"/>
</svg>
