<svg xmlns="http://www.w3.org/2000/svg" xmlns:xlink="http://www.w3.org/1999/xlink" width="40.031" height="40" viewBox="0 0 40.031 40">
  <defs>
    <style>
      .cls-1 {
        fill: #fff;
        fill-rule: evenodd;
      }
    </style>
    <clipPath id="clip-path">
      <rect x="0.016" y="0.5" width="40" height="40"/>
    </clipPath>
  </defs>
  <g clip-path="url(#clip-path)">
    <path id="Color_Fill_1" data-name="Color Fill 1" class="cls-1" d="M29.033,15.9a8.853,8.853,0,0,1,.085-2.216,3.767,3.767,0,0,0,.383-0.81h0.128V13c0.956,0.125.745,2.179,0.723,3.154h0.043V16.2a10.88,10.88,0,0,1,1.488.256,0.663,0.663,0,0,1,.043-0.341,0.31,0.31,0,0,0,.085.341,0.98,0.98,0,0,0,.3.085V15.6a5,5,0,0,1,0-.511,5.043,5.043,0,0,1,.255-0.9L32.6,13.98h0.638L33.5,14.833a8.256,8.256,0,0,1,0,1.875,0.56,0.56,0,0,0,.34.085,4.27,4.27,0,0,0,1.233.256,5.926,5.926,0,0,1,.043-1.918,6.039,6.039,0,0,0,.212-0.639,1.985,1.985,0,0,1,.638,0,7.928,7.928,0,0,1,.3,2.771h0.085a11.8,11.8,0,0,0,2.21.426,12.093,12.093,0,0,1,.255-3.112c0.1-.4.017-0.929,0.468-0.98a10.432,10.432,0,0,1,.553,4.092h0.043v0.043H40a0.845,0.845,0,0,1-.127.384v1.833a19.234,19.234,0,0,1-.213,3.921c-0.1.471-.04,1.823-0.34,2V25.787a2.569,2.569,0,0,1-.17-0.767c-0.183-.708-0.229-1.558-0.383-2.3H38.682a1.154,1.154,0,0,0-.51-0.043,3.883,3.883,0,0,0-.043-1.407v1.407l-3.486.043a0.663,0.663,0,0,0-.042-0.341v0.341c-0.886,0-1.861-.016-2.678.043a2.574,2.574,0,0,0-.043-0.98v0.98c-3.147,0-6.271.064-9.352,0.085a0.357,0.357,0,0,0-.043-0.213v0.213a1.183,1.183,0,0,0-.383.085c-0.044.171-.127,0.361-0.17,0.554V24.21a10.4,10.4,0,0,1-.085,2v0.98L21.467,33.2h0.085L27.12,34.4v0.085a5.47,5.47,0,0,1,0,2.984,2.277,2.277,0,0,1-.85.043H24.06a0.663,0.663,0,0,0-.043-0.341v0.341H21.212v0.341c-0.458.254-.432,1.056-1.105,1.066a0.61,0.61,0,0,1-.51,0,3.216,3.216,0,0,0-.765-1.023V37.508H12.88a6.049,6.049,0,0,0-.17-0.9,6.544,6.544,0,0,1,.17-2.174,0.49,0.49,0,0,1,.3-0.085L18.534,33.2V32.564a12.968,12.968,0,0,1-.128-1.918c-0.085-.387-0.043-0.932-0.128-1.321V28.557a18.746,18.746,0,0,1-.17-2.984c-0.012-.612.072-2.351-0.212-2.643a1.467,1.467,0,0,0-.808-0.085,1.9,1.9,0,0,0-.723-0.043H14.538l-6.419-.043a3.1,3.1,0,0,0-.043-1.151v1.151c-2.2-.149-4.518-0.083-6.759-0.085a0.652,0.652,0,0,0-.128.469,3.766,3.766,0,0,0-.128.938,15.851,15.851,0,0,1-.383,1.79A0.12,0.12,0,0,1,.638,25.83a7.864,7.864,0,0,1-.3-2.088C-0.036,22.021.256,19.564,0,17.774a0.7,0.7,0,0,0,.17-0.725A3.036,3.036,0,0,0,.213,16.41c0.14-.631.1-1.373,0.255-1.961,0.1-.386.008-0.783,0.425-0.852,0.563,0.918.545,2.622,0.553,4.049a0.665,0.665,0,0,0,.213.043c0.436-.277,1.63-0.151,2.04-0.426a7.144,7.144,0,0,0,.043-1.748c0.18-.31.044-0.879,0.383-1.023a0.894,0.894,0,0,1,.553,0,5.331,5.331,0,0,0,.213.639,6.064,6.064,0,0,1,.043,1.918l1.573-.3V16.41a1.421,1.421,0,0,1,0-.725,5.4,5.4,0,0,1,0-.81c0.073-.3.2-0.6,0.255-0.9H7.4l0.255,0.767a7.123,7.123,0,0,1,.043,1.79H7.779a1.912,1.912,0,0,1,.3-0.085,0.663,0.663,0,0,1,.043-0.341v0.341a5.939,5.939,0,0,0,1.488-.3,7.844,7.844,0,0,0,.043-1.875c0.285-.494-0.1-1.174.723-1.279V12.872H10.5a2.988,2.988,0,0,0,.383.767,9.224,9.224,0,0,1,.085,2.259,14.908,14.908,0,0,0,3.06-.639L14.41,15.3a6.963,6.963,0,0,0,1.785-.426c0.243-.287.024-1.017,0.255-1.321a2.343,2.343,0,0,1,1.4-.085,1.385,1.385,0,0,0,.085.256V13.682a3.212,3.212,0,0,0,.042-1.108,7.851,7.851,0,0,1,.085-1.236V10.144c0.13-.594,0-1.38.128-1.961V7.331c0.107-.484.009-1.041,0.128-1.577,0.245-1.107.214-2.3,0.51-3.282A11,11,0,0,1,19.469.554,0.6,0.6,0,0,1,20.106.043C20.724,0.2,21,1.91,21.212,2.6c0.221,0.737.239,1.676,0.425,2.515,0.115,0.52.024,1.064,0.127,1.534,0.092,0.419,0,.9.085,1.279,0.135,0.615-.041,1.3.085,1.875v1.236a8.036,8.036,0,0,1,.085,1.492A4.391,4.391,0,0,0,22.1,13.81c-0.005-.2-0.008-0.274.128-0.341a2.48,2.48,0,0,1,1.318.043l0.043,0.128c0.191,0.333-.058,1.119.3,1.279a7.5,7.5,0,0,0,1.743.384l0.383-.043A17.75,17.75,0,0,0,29.033,15.9ZM7.906,21.184a0.207,0.207,0,0,0,.043.128A0.206,0.206,0,0,0,7.906,21.184Zm0.128,0a0.207,0.207,0,0,0,.043.128A0.206,0.206,0,0,0,8.034,21.184Zm23.889,0c0.035,0.138-.021.065,0.085,0.128V21.184H31.924Zm-30.1.085a0.553,0.553,0,0,0,.043.3A0.553,0.553,0,0,0,1.828,21.269Zm15.643,0.852a1.53,1.53,0,0,0,.043.639A1.531,1.531,0,0,0,17.471,22.121Zm-4,13.725a1.4,1.4,0,0,0,.043.6V35.8a0.772,0.772,0,0,0-.383.043h0.34Zm13.05-.043a0.353,0.353,0,0,0,.34,0h-0.34Zm-7.779.682v0.085h0.043A0.146,0.146,0,0,0,18.746,36.485Zm-0.127.426a0.124,0.124,0,0,0,.17,0h-0.17Zm2.636,0.043a0.274,0.274,0,0,0,.17-0.043h-0.17a0.779,0.779,0,0,0-.043.256h0.043V36.954Z" transform="translate(0.016 0.5)"/>
  </g>
</svg>
