<svg xmlns="http://www.w3.org/2000/svg" width="40" height="40" viewBox="0 0 40 40">
  <defs>
    <style>
      .cls-1 {
        fill: #fff;
        fill-rule: evenodd;
      }
    </style>
  </defs>
  <path id="Color_Fill_1" data-name="Color Fill 1" class="cls-1" d="M40,27.349l-1.164-.267-0.1.468a0.114,0.114,0,0,1-.066-0.033,4.208,4.208,0,0,1-.233-1.1,12.579,12.579,0,0,1-.432-2.238l-1.5-.067a0.162,0.162,0,0,1-.033.1,6.121,6.121,0,0,0-1.2-.067,12.459,12.459,0,0,0-2.161-.134v-0.1l-4.821-.3-2.361-.1c-0.362-.079-0.795.02-1.2-0.067a7.515,7.515,0,0,0-2.427-.033,1.41,1.41,0,0,0-.067.6l-0.166,1.9c-0.144.647-.079,1.369-0.233,2.038a12.712,12.712,0,0,0-.333,2.2,5.47,5.47,0,0,1,.964.434q1.264,0.561,2.494,1.1a3.039,3.039,0,0,1,1.363.7,2.465,2.465,0,0,1,.067.969,8.221,8.221,0,0,1-.2,2.1,0.961,0.961,0,0,1-.3.033,2.536,2.536,0,0,0-.732-0.167v0.2l-4.489-.768a0.541,0.541,0,0,0-.465-0.4,2.963,2.963,0,0,0-.067,1.069,1.3,1.3,0,0,0-.166.568,1.163,1.163,0,0,0-.033-0.468,0.8,0.8,0,0,1-.133-0.1V34.4H19.751a0.286,0.286,0,0,0-.166-0.033,0.879,0.879,0,0,1-.332.4A6.375,6.375,0,0,1,17.889,35c-0.564.14-1.167,0.153-1.762,0.3a8.577,8.577,0,0,1-1.3.234v-0.2H14.763a2.054,2.054,0,0,1-.931.167L13.8,35.432a2.347,2.347,0,0,1-.133-0.835,5.216,5.216,0,0,1,.033-2.271,33.237,33.237,0,0,1,3.491-1.637c0.279-.123,1.272-0.408,1.3-0.7a5.957,5.957,0,0,1-.2-1.3c-0.264-1.12-.212-2.448-0.466-3.608a7.349,7.349,0,0,0-.133-1.637,1.369,1.369,0,0,0-.9-0.1l-2,.1-7.914.468v0.1a7.911,7.911,0,0,0-1.563.1c-0.412.089-.857-0.014-1.23,0.067a1.762,1.762,0,0,1-.665-0.067L2,24.175a26.854,26.854,0,0,1-.665,3.374H1.23l-0.066-.468H1.131A4.369,4.369,0,0,1,0,27.349V26.413c0.117-.333.665-0.729,0.8-1.1a6.028,6.028,0,0,1-.233-1.5,8.479,8.479,0,0,1-.1-1.7,9.423,9.423,0,0,1,.4-3.474A1.564,1.564,0,0,1,1,18.363l0.2-.033a0.987,0.987,0,0,1,.067-0.2l0.2,0.067a7.049,7.049,0,0,1,.565,1.7,1.3,1.3,0,0,0,.133.7,5.051,5.051,0,0,1,1.131-.367c0.94-.352,1.914-0.605,2.893-0.935,2.7-.909,5.479-1.8,8.18-2.706,0.77-.258,1.529-0.467,2.261-0.735a4.015,4.015,0,0,0,.964-0.3,2.089,2.089,0,0,0,.066-0.868q0.033-.918.067-1.837c0.119-.541-0.025-1.209.1-1.77,0.1-.429,0-0.945.1-1.4,0.072-.323.019-0.714,0.1-1.069,0.175-.764.173-1.62,0.366-2.338,0.156-.58.21-2.2,0.831-2.2a1.047,1.047,0,0,1,.432-0.033,3.517,3.517,0,0,1,1.363.067c0.447,0.462.507,2.012,0.7,2.806,0.209,0.868.16,1.915,0.366,2.839l0.033,0.935c0.064,0.293.035,0.709,0.1,1v0.635c0.093,0.426-.036.934,0.067,1.4a9.41,9.41,0,0,1,.067,1.837L37.905,20.6A4.305,4.305,0,0,1,38.57,18.2a0.141,0.141,0,0,1,.166-0.033,2.29,2.29,0,0,1,.632,1.537c0.435,1.755.033,4.069-.166,5.679a8.7,8.7,0,0,1,.8,1.035v0.935Z"/>
</svg>
