<svg xmlns="http://www.w3.org/2000/svg" width="40" height="40" viewBox="0 0 40 40">
  <defs>
    <style>
      .cls-1 {
        fill: #fff;
        fill-rule: evenodd;
      }
    </style>
  </defs>
  <path id="Color_Fill_1" data-name="Color Fill 1" class="cls-1" d="M34.62,32.739H34.451a3.763,3.763,0,0,0-.93-0.68c-0.677-.48-1.338-1-2.028-1.486-1.987-1.406-3.929-2.9-5.915-4.331-0.747-.537-2.022-1.913-3.169-1.656a1.8,1.8,0,0,0-.3.467L22.07,27.3c-0.134.624,0.016,1.333-.127,2l-0.3,3.355a3.983,3.983,0,0,1,.8.934c0.458,0.61,1.056,1.122,1.521,1.741a4.472,4.472,0,0,1,.845,1.019,4.313,4.313,0,0,1,.042,1.529c-0.107.488,0.084,1.929-.211,2.123a4.652,4.652,0,0,0-1.014-.807c-0.585-.437-1.107-1.006-1.69-1.444A3.44,3.44,0,0,1,21.1,37.07a2.766,2.766,0,0,1-.761.042,2.082,2.082,0,0,1-.254.807V38.9H19.916V37.919a1.551,1.551,0,0,1-.254-0.807,4.582,4.582,0,0,0-.761,0,8.67,8.67,0,0,0-.761.637c-0.635.477-1.224,0.969-1.859,1.444A4.444,4.444,0,0,1,15.268,40a11.909,11.909,0,0,1-.085-3.652,5.993,5.993,0,0,1,1.1-1.316c0.454-.6,1.032-1.1,1.479-1.7a2.7,2.7,0,0,1,.591-0.679c-0.149-.478-0.01-1.039-0.127-1.571-0.25-1.142-.045-2.488-0.3-3.652-0.063-.29.009-0.7-0.042-0.934-0.153-.709.24-1.688-0.38-1.911a1.056,1.056,0,0,0-.972.085c-0.747.454-1.409,1.07-2.113,1.571-2.16,1.536-4.259,3.1-6.422,4.628-0.62.439-1.226,0.911-1.859,1.359a1.89,1.89,0,0,1-.761.51L5.127,30.786,5.085,29.6a6.133,6.133,0,0,1,.085-2.463V26.5a6.537,6.537,0,0,1,1.437-1.953c0.558-.748,1.173-1.419,1.732-2.166,0.214-.286.546-0.519,0.761-0.807a5.906,5.906,0,0,1,1.183-1.4,1.02,1.02,0,0,0,.042.467c0.422-.653,1.1-1.128,1.563-1.741,1.153-1.532,2.609-2.8,3.761-4.331a13.163,13.163,0,0,0,2.113-2.675c0.329-.8-0.075-2.163.127-3.1,0.159-.738-0.078-1.75.085-2.505,0.115-.532-0.04-1.164.084-1.741,0.08-.37,0-0.819.084-1.231,0.2-.905.188-1.962,0.38-2.8,0.187-.113.451-0.293,0.634-0.382a1.477,1.477,0,0,1,.3.042c0.034-.008.168-0.115,0.211-0.127a2.171,2.171,0,0,1,1.817.552c0.323,0.478.147,1.657,0.3,2.335,0.238,1.088.01,2.435,0.254,3.567,0.08,0.371-.026.871,0.042,1.189,0.091,0.425-.038.987,0.042,1.359q0.021,1.295.042,2.59c0.268,1.063,1.235,1.732,1.817,2.505,0.937,1.245,2.106,2.279,3.042,3.524,0.185,0.246.491,0.434,0.676,0.679,0.412,0.547.948,0.992,1.352,1.529a1.891,1.891,0,0,0,.676.722,0.9,0.9,0,0,1,.042-0.425c0.243,0.378.623,0.667,0.887,1.019,0.861,1.148,1.846,2.161,2.7,3.312a8.244,8.244,0,0,1,1.437,1.868c0.08,0.217-.042.516,0.042,0.764a5.675,5.675,0,0,1,.084,2.335l-0.042,1.189Z"/>
</svg>
