<svg xmlns="http://www.w3.org/2000/svg" width="40" height="40" viewBox="0 0 40 40">
  <defs>
    <style>
      .cls-1 {
        fill: #fff;
        fill-rule: evenodd;
      }
    </style>
  </defs>
  <path id="Color_Fill_1" data-name="Color Fill 1" class="cls-1" d="M5.47,21.319c0.617,0.009.988-.1,1.612-0.1a6.255,6.255,0,0,0,.977,0c0.038-.016.1-0.113,0.147-0.144,0.006,0.191.005,0.15,0.293,0.144a0.6,0.6,0,0,0-.049-0.192h0.1c0.151,0.394.558,0.052,0.928,0.144a11.652,11.652,0,0,0,3.419-.144,0.494,0.494,0,0,0,.2.432,0.441,0.441,0,0,1,.342,0c-0.024-.38.484-0.317,0.977-0.288,0.077,0.131.044,0.12,0.244,0.144a12.95,12.95,0,0,1,.244-1.631,5.41,5.41,0,0,0,.2,1.535,2.86,2.86,0,0,0,.586-0.24h2.979a7.054,7.054,0,0,1,.049-1.919h0.049v0.48c0.015,0.033,1.221,1.439,1.221,1.439h0.391a1.327,1.327,0,0,0,1.075.144,0.943,0.943,0,0,0,0-1.007,0.618,0.618,0,0,0-.049-0.336,1.059,1.059,0,0,0-.488-0.048,0.956,0.956,0,0,1-.2.1,0.712,0.712,0,0,0-.635-0.384c-0.029-.466-0.184-0.78-0.2-1.295a3.6,3.6,0,0,1,.391-0.048,4.822,4.822,0,0,0,1.27.144,4.127,4.127,0,0,1,.391-0.24,2.737,2.737,0,0,1,1.367.24v-0.1a0.719,0.719,0,0,1,.1-0.672c0.3-.03.61-0.114,0.879-0.144-0.022.169,0.054,0.862,0,1.1h0.537a1.592,1.592,0,0,0,.733,0v0.144H24.42v0.048a4.739,4.739,0,0,0,1.9.144c0.534,0.331,1.638-.053,2.344.1a9.26,9.26,0,0,0,3.077-.048c0.138-.032.391,0.1,0.635,0.1,0.647,0,1.457-.041,1.954,0v0.192c-0.5.038-1.306,0-1.954,0-0.245,0-.5.128-0.635,0.1l-0.049-.1H28.571c-0.578.125-1.417-.1-2.051,0.048a10.478,10.478,0,0,1-2.051.1,1.32,1.32,0,0,0-.391.528l0.342,0.048c0.082-.309.391-0.262,0.781-0.24a2.242,2.242,0,0,0,1.319,0,4.666,4.666,0,0,0,.635.671,2.159,2.159,0,0,0,.635-0.048v0.1H27.741c-0.093.078-.282,0.074-0.391,0.144,0.187,0.148.462,0.736,0.586,0.815h2.589v0.144h0.342a2.24,2.24,0,0,0,.244-0.432,1.017,1.017,0,0,0-.244-0.1l-0.146.288H30.672v-0.1a1.274,1.274,0,0,0,.244-0.336,0.562,0.562,0,0,1-.1-0.48,0.9,0.9,0,0,1,.781-0.336,0.664,0.664,0,0,1,.049.192,1.6,1.6,0,0,0,0,.863,0.451,0.451,0,0,1-.244.144c-0.072-.121-0.021-0.074-0.2-0.1v0.048a0.358,0.358,0,0,1,.1.432h0.342a10.577,10.577,0,0,0,1.758.432c0.023-.214.03-0.368,0.049-0.527,0.159-.114.192-0.313,0.342-0.432V20.935h0.049v0.144a1.093,1.093,0,0,0-.1.336,9.476,9.476,0,0,1,1.416.576v0.1c-0.111-.019-0.053-0.044-0.146,0h0.049a1.082,1.082,0,0,0,.488.288v0.048H35.311a0.656,0.656,0,0,0-.342-0.048v0.048h0.1a11.416,11.416,0,0,0,1.856.527l0.342-.048c0.4,0.093.779,0.321,1.221,0.384a1.854,1.854,0,0,1,.049-0.576c0.33,0.127.509,0.127,0.488,0.624h0.244a1.192,1.192,0,0,1,.635-0.527A0.191,0.191,0,0,1,40,23a8.908,8.908,0,0,0-.977.815v2.782a1.98,1.98,0,0,0-.537.1c0.042-.141.1-0.2-0.049-0.288a0.991,0.991,0,0,1-.342,0V26.259a3.474,3.474,0,0,1-.83-0.24,4.966,4.966,0,0,1-1.416-.288c-0.074.256-.242,0.168-0.44,0.288a2.269,2.269,0,0,0-.781.911l-0.049.288a0.294,0.294,0,0,1-.2.048,1.858,1.858,0,0,0-.83-0.24c-0.322.1-.517,0.446-0.83,0.576a0.772,0.772,0,0,0-.537.192,4.912,4.912,0,0,0-.2.671,2.85,2.85,0,0,1-.977,1.1,2.585,2.585,0,0,1-3.907-1.87c-0.6,0-.907.092-1.465,0.1a2.6,2.6,0,0,1-3.907,1.774,3.021,3.021,0,0,1-.879-0.911l-0.2-.576H19.78a2.618,2.618,0,0,1-.635.336v-0.1h0.049a0.862,0.862,0,0,1,.391-0.192V28.082H17.876a2.572,2.572,0,0,1-3.321,1.727,2.627,2.627,0,0,1-1.66-2.11H12.161a0.685,0.685,0,0,1-.537.1c-0.069,1.94-2.643,2.686-4.151,1.583a2.8,2.8,0,0,1-.733-1.007A1.282,1.282,0,0,0,6.5,27.7a1.826,1.826,0,0,1-.635.048c-1.234.107-1.669-.551-2.54-0.863-0.068.123-.146,0.193-0.244,0.144a0.169,0.169,0,0,1-.1-0.048c0.158-.04.075,0.023,0.147-0.1H3.175V26.835h-0.1a3.471,3.471,0,0,1-.635.288c-0.032.041-.065,0.151-0.1,0.192a0.59,0.59,0,0,0-.488-0.048c-0.04.156,0.024,0.073-.1,0.144-0.063-.118.021-0.033-0.1-0.1a1.071,1.071,0,0,1-.147.336V27.6c-0.043-.067-0.053-0.269-0.1-0.336a0.6,0.6,0,0,1-.049.192,0.419,0.419,0,0,1-.293-0.288l0.1,0.048V27.17a0.352,0.352,0,0,1,.049-0.336H1.27v0.1a0.25,0.25,0,0,0,0,.288L1.416,26.5H1.368v0.048c-0.038.092-.049-0.1-0.049-0.1a5.9,5.9,0,0,0,.293-1.727l0.049-.575c-0.027-.074-0.107-0.095-0.147-0.192A1.118,1.118,0,0,0,1.465,23H1.514V22.95H1.563a0.677,0.677,0,0,0,.049.24H1.661v-0.1A0.467,0.467,0,0,1,1.612,22.9a0.216,0.216,0,0,1,.244-0.1l-0.049-.144c0.22-.048.153-0.014,0.244-0.24,0.147,0.061.183,0.051,0.293,0.1,0.166,0.32.1,0.753,0.244,1.151a0.712,0.712,0,0,0,.147.1,3.035,3.035,0,0,0-.049.336c0.04,0.132.153,0.318,0.2,0.48H2.93V24.437a2.4,2.4,0,0,1-.2-1.055,0.4,0.4,0,0,0,.1-0.144H2.882a1.606,1.606,0,0,0,.049.384H2.979V23.046a0.172,0.172,0,0,0,.049-0.1H2.979c-0.063.118,0.021,0.033-.1,0.1V22.758a0.239,0.239,0,0,1-.147-0.048h0.2a0.6,0.6,0,0,0,.049.192,0.172,0.172,0,0,0,.049-0.1,10.136,10.136,0,0,0-.049-1.343c0.217-.021.165-0.088,0.2-0.1a3.166,3.166,0,0,0,.537.048,0.737,0.737,0,0,1,.342-0.48V19.448c-0.327-.508-0.146-1.624-0.488-2.11a2.209,2.209,0,0,0-.83-0.048h-2c-0.1-.056-0.53.033-0.684-0.048H0V17.194a4.1,4.1,0,0,0,1.074-.432c0.76-.316,1.523-0.525,2.247-0.863a0.921,0.921,0,0,1,.2-0.767c0.105,0.573.226,1.287,0.391,1.918a2.78,2.78,0,0,0,.147.815V12.158A8.877,8.877,0,0,1,4.1,10v8.393c0.183,0.771.323,1.643,0.488,2.446H5.372s0.021-.19.049-0.1v0.048A1.143,1.143,0,0,1,5.47,21.319Zm14.994-3.261a1.78,1.78,0,0,1,.733.048A1.781,1.781,0,0,1,20.464,18.058Zm-0.1.048h0.1v0.048A0.169,0.169,0,0,1,20.366,18.106Zm-0.44.192v0.1h0.049V18.345h0.049A0.178,0.178,0,0,0,19.927,18.3Zm-1.172,2.686H19.78V20.935a4.89,4.89,0,0,1-.977-1.247H18.755v1.3ZM4.3,20.839a1.913,1.913,0,0,0-.2-0.911,4.758,4.758,0,0,0,.049.911H4.3Zm-0.342.288a1.016,1.016,0,0,1-.1.24H3.907A0.177,0.177,0,0,1,4,21.319a0.164,0.164,0,0,1,.049-0.1v-0.1h-0.1Zm26.667,0.048a0.171,0.171,0,0,1,.049.1H30.623v-0.1Zm1.221,0.48a0.827,0.827,0,0,0,.147.24V21.847a0.3,0.3,0,0,0,.1-0.1A1.271,1.271,0,0,0,31.844,21.655ZM32.234,21.8a0.177,0.177,0,0,1-.1.048v0.048h0.244V21.847Zm-29.6,1.007a0.171,0.171,0,0,1,.049.1H2.637v-0.1Zm-0.049.144a0.172,0.172,0,0,1,.049.1H2.589v-0.1Zm35.751,0.384v0.1h0.049V23.381h0.049A0.178,0.178,0,0,0,38.339,23.333Zm-35.311.72,0.1,0.671h0.1a0.137,0.137,0,0,0-.049-0.048A0.579,0.579,0,0,0,3.028,24.053Zm0.2,1.055-0.049.24a0.557,0.557,0,0,1,.1.24H3.321A0.783,0.783,0,0,0,3.223,25.108Zm-0.147.528v0.1H3.126A0.163,0.163,0,0,0,3.077,25.636Zm35.409,0.048v0.1h0.049A0.163,0.163,0,0,0,38.486,25.684ZM1.27,26.547a0.172,0.172,0,0,1,.049.1H1.27v-0.1Zm-0.1.144a0.172,0.172,0,0,1,.049.1H1.172v-0.1Zm-0.147.384a0.172,0.172,0,0,1,.049.1H1.026v-0.1Z" transform="translate(0 0.016)"/>
</svg>
