<?xml version="1.0" encoding="utf-8"?>
<!-- Generator: Adobe Illustrator 16.0.0, SVG Export Plug-In . SVG Version: 6.00 Build 0)  -->
<!DOCTYPE svg PUBLIC "-//W3C//DTD SVG 1.1//EN" "http://www.w3.org/Graphics/SVG/1.1/DTD/svg11.dtd">
<svg version="1.1" id="Layer_1" xmlns="http://www.w3.org/2000/svg" xmlns:xlink="http://www.w3.org/1999/xlink" x="0px" y="0px"
	 width="40px" height="40px" viewBox="0 0 40 40" enable-background="new 0 0 40 40" xml:space="preserve">
<path id="Color_Fill_1" fill="#FFFFFF" d="M4.585,16.839c0.296,0.031,0.596-0.003,0.878-0.1v0.1
	c0.055,0.153,0.072,0.318,0.049,0.479c0.64,0.009,1.042-0.1,1.707-0.1H8.1c0.042-0.054,0.092-0.102,0.146-0.144
	c0.006,0.19,0.005,0.149,0.293,0.144c-0.01-0.16-0.105-0.115,0.049-0.191c0.043,0.228,0.124,0.199,0.39,0.191
	c0.405-0.051,0.814-0.051,1.219,0c0.926-0.056,1.854-0.056,2.781,0c0.012,0.088,0.047,0.17,0.1,0.24
	c0.169-0.041,0.349-0.005,0.488,0.1v-0.048h0.044v-0.048h-0.2l0.049-0.24c0.306-0.057,0.617-0.073,0.927-0.048
	c0.028,0.026,0.063,0.043,0.1,0.048c0,0.053,0.017,0.104,0.049,0.145c0.027-0.026,0.063-0.043,0.1-0.049
	c0.171-0.525,0.239-1.079,0.2-1.63h0.1c-0.01,0.522,0.072,1.042,0.244,1.535c0.683-0.455,2.431-0.244,3.512-0.24v-1.917h0.1
	c0.044,0.543,0.331,1.037,0.781,1.343c0.106,0.219,0.255,0.415,0.438,0.576h0.39c0.321,0.198,0.711,0.251,1.074,0.144l0.146-0.384
	c-0.028-0.327-0.096-0.648-0.2-0.959c-0.156-0.054-0.324-0.071-0.488-0.048c-0.048,0.036-0.09,0.039-0.199,0.1
	c-0.096-0.256-0.367-0.4-0.632-0.337c-0.03-0.481-0.186-0.8-0.2-1.343c0.148,0,0.3-0.063,0.39-0.048
	c0.413,0.109,0.841,0.158,1.269,0.144c0.125-0.087,0.255-0.167,0.39-0.24c0.464-0.032,0.929,0.034,1.366,0.192
	c-0.071-0.243-0.035-0.505,0.1-0.719c0.279-0.027,0.6-0.1,0.829-0.144c0.011,0.074,0.046,0.142,0.1,0.192
	c-0.047,0.301-0.063,0.606-0.049,0.911h0.683c0.194,0.032,0.392,0.032,0.586,0v0.144h-1.123v0.048
	c0.617,0.177,1.264,0.226,1.899,0.145c0.821,0.15,1.658,0.184,2.488,0.1c0.636,0,2.84-0.047,3.122,0.048
	c0.734,0.084,1.477,0.05,2.199-0.1c0.063,0.043,0.129,0.076,0.201,0.1v0.192c-0.574,0.043-1.472-0.031-2.201,0
	c-0.1,0.026-0.197,0.06-0.293,0.1l-0.146-0.1h-3.222c-0.563,0.12-1.383-0.1-2,0.048c-0.662,0.099-1.332,0.132-2,0.1
	c-0.176,0.138-0.311,0.32-0.391,0.528c0.087,0.08,0.186,0.145,0.293,0.192c0.047-0.431,0.336-0.412,0.829-0.384
	c0.429,0.132,0.888,0.132,1.317,0c0.188,0.244,0.4,0.469,0.634,0.671c0.213,0.016,0.427,0,0.634-0.048v0.1h-0.049
	c-0.239,0.06-0.484,0.093-0.732,0.1c0.207,0.162,0.467,0.777,0.635,0.863h2.878v0.145h0.341c0.098-0.135,0.179-0.28,0.244-0.433
	c-0.076-0.044-0.158-0.077-0.244-0.101l-0.146,0.289h-0.047v-0.101c0.099-0.098,0.182-0.212,0.243-0.336
	c-0.104-0.136-0.142-0.313-0.1-0.48c0.181-0.244,0.479-0.372,0.78-0.336c0.026,0.061,0.043,0.126,0.05,0.192
	c-0.079,0.282-0.079,0.581,0,0.863c-0.063,0.072-0.149,0.123-0.244,0.144c-0.072-0.12-0.021-0.073-0.2-0.1v0.048
	c0.129,0.104,0.17,0.282,0.1,0.432h0.342c0.572,0.193,1.159,0.338,1.756,0.433c-0.019-0.362,0.125-0.713,0.39-0.959v-0.056h0.05
	v0.144c-0.052,0.106-0.086,0.22-0.101,0.336c0.497,0.146,0.972,0.356,1.415,0.624h0.056v0.048c-0.139-0.015-0.1-0.051-0.2,0h0.049
	c0.141,0.13,0.308,0.228,0.488,0.288v0.048h-0.24c-0.107-0.046-0.225-0.063-0.342-0.048v0.048h0.101
	c0.603,0.227,1.222,0.403,1.854,0.527l0.342-0.048c0.399,0.093,0.777,0.32,1.219,0.384v-0.049h0.049
	c-0.025-0.178-0.01-0.358,0.049-0.528c0.283,0.2,0.456,0.1,0.439,0.624h0.244c0.158-0.233,0.427-0.349,0.584-0.576L40,18.807V19
	c-0.342,0.25-0.668,0.522-0.977,0.814v2.783c-0.168-0.007-0.335,0.027-0.487,0.1c0.013-0.1-0.005-0.199-0.05-0.288
	c-0.129,0.015-0.26,0.015-0.389,0l-0.05-0.144c-0.252-0.105-0.513-0.186-0.78-0.24c-0.482-0.03-0.959-0.127-1.414-0.288
	c-0.076,0.268-0.229,0.163-0.439,0.288c-0.309,0.205-0.561,0.485-0.732,0.814c-0.019,0.131-0.053,0.26-0.1,0.385
	c-0.059,0.039-0.13,0.056-0.2,0.047c-0.267-0.154-0.569-0.236-0.878-0.239c-0.223,0.237-0.487,0.433-0.781,0.575
	c-0.195,0.002-0.385,0.069-0.537,0.192c-0.082,0.219-0.148,0.443-0.199,0.671c-0.264,0.535-0.69,0.973-1.219,1.247
	c-1.295,0.599-2.829,0.034-3.428-1.26c-0.111-0.24-0.185-0.495-0.218-0.758c-0.509-0.036-1.02,0.012-1.513,0.144
	c-0.065,2.141-3.252,2.756-4.438,1.151c-0.248-0.25-0.417-0.566-0.487-0.911c-0.526-0.037-1.052,0.08-1.513,0.336v-0.1h0.049
	c0.112-0.097,0.246-0.162,0.39-0.192v-0.046H17.9c-0.379,1.362-1.79,2.159-3.152,1.78c-0.006-0.002-0.012-0.003-0.019-0.005
	c-0.992-0.273-1.71-1.134-1.8-2.158c-0.53,0-0.782,0.091-1.268,0.1c-0.041,0.41-0.212,0.795-0.488,1.1
	c-0.81,1.119-2.373,1.368-3.491,0.559c-0.261-0.189-0.484-0.428-0.655-0.702c-0.237-0.302-0.374-0.671-0.39-1.055
	c-0.513,0.106-1.039,0.141-1.561,0.1c-0.605-0.218-1.14-0.731-1.756-0.911v0.145c-0.078,0.031-0.166,0.031-0.244,0H3.024v-0.055
	c0.14-0.055,0.09-0.009,0.146-0.145H3.122c-0.18,0.146-0.402,0.23-0.634,0.24c-0.024,0.083-0.058,0.164-0.1,0.24
	c-0.225-0.082-0.473-0.064-0.683,0.048c-0.049,0.093-0.117,0.175-0.2,0.239c0.019-0.13,0.001-0.262-0.049-0.384
	c0.003,0.091-0.033,0.179-0.1,0.24V23.41c-0.172-0.016-0.301-0.164-0.293-0.336h0.059c0,0.052,0.017,0.103,0.049,0.144
	c-0.009-0.083,0.008-0.167,0.049-0.239l0.049,0.239h0.048c0.03-0.888,0.388-2.112,0.341-3.165c-0.053,0-0.105-0.02-0.146-0.053
	c0.169-0.303,0.15-0.676-0.049-0.959h0.049V19h0.049v0.048c0.033,0.037,0.064,0.107,0.1,0.144c0.001-0.082,0.018-0.163,0.049-0.239
	c-0.154,0-0.066,0.081-0.146-0.048c0.22-0.127,0.418-0.289,0.585-0.48c0.057,0.051,0.126,0.085,0.2,0.1
	c0.217,0.483,0.333,1.006,0.341,1.535c0.048,0.16,0.191,0.375,0.244,0.575h0.042c-0.083-0.386-0.189-0.827-0.244-1.247H2.78v-0.054
	h0.146c0.01,0.478,0.109,0.95,0.293,1.392c-0.129-0.583-0.179-1.18-0.146-1.775h-0.05c0,0-0.064,0.138-0.1,0.1V19H2.878v-0.05
	c0.032-0.041,0.065-0.151,0.1-0.192c0.04,0.156-0.024,0.073,0.1,0.145v-0.101c0.062-0.243,0.026-0.501-0.1-0.719
	c0.05-0.253,0.239-0.457,0.488-0.526c-0.117-0.027-0.222-0.096-0.293-0.192h0.1c0.082,0.075,0.184,0.124,0.293,0.144
	c0.201-0.193,0.367-0.42,0.488-0.671c0.087-0.36,0.104-0.733,0.049-1.1L3.61,13.29c-0.987,0.015-2.45,0.016-2.927-0.048
	C0.455,13.272,0.222,13.256,0,13.194c1.086-0.138,2.21-1.059,3.317-1.247c0.064-0.267,0.098-0.541,0.1-0.815h0.144
	c0.087,0.679,0.218,1.352,0.39,2.014c0.008,0.262,0.057,0.521,0.146,0.767V8.158C4.025,7.439,4.042,6.715,4.146,6v8.489
	C4.37,15.256,4.517,16.043,4.585,16.839z M20.439,14.057c0.26-0.038,0.527-0.021,0.781,0.048
	C20.961,14.174,20.688,14.157,20.439,14.057L20.439,14.057z M19.951,14.297v0.1H20c-0.005-0.037-0.022-0.071-0.049-0.097V14.297z
	 M18.78,16.982h1.02v-0.047c-0.394-0.357-0.724-0.779-0.976-1.248h-0.043v1.3L18.78,16.982z M4.341,16.839
	c-0.009-0.298-0.077-0.591-0.2-0.863v0.815H4.2v0.048H4.341z M4,17.127c-0.042,0.076-0.075,0.156-0.1,0.24h0.051
	c0.027-0.026,0.062-0.043,0.1-0.049C4.056,17.251,4.038,17.184,4,17.127z M30.634,17.175c0.027,0.027,0.044,0.063,0.05,0.101h-0.05
	V17.175z M31.854,17.655c0.035,0.087,0.084,0.169,0.146,0.239v-0.047c0.041-0.025,0.075-0.06,0.1-0.101
	C32.021,17.708,31.939,17.678,31.854,17.655z M32.244,17.799c-0.027,0.026-0.063,0.043-0.1,0.049v0.047h0.246v-0.047L32.244,17.799z
	 M2.732,18.71c0.07-0.007,0.141,0.011,0.2,0.048C2.862,18.765,2.792,18.748,2.732,18.71z M2.632,18.902
	c0.027,0.026,0.044,0.062,0.049,0.1H2.634V18.9L2.632,18.902z M2.585,19c0.027,0.027,0.044,0.063,0.049,0.1H2.585V19z
	 M38.341,19.384c0.027,0.026,0.063,0.044,0.101,0.048c-0.027-0.027-0.062-0.045-0.1-0.051L38.341,19.384z M3.268,21.107
	c-0.056,0.16-0.038,0.336,0.049,0.48C3.367,21.428,3.35,21.254,3.268,21.107z M38.488,21.684c-0.001,0.053,0.017,0.104,0.049,0.145
	C38.537,21.775,38.521,21.725,38.488,21.684z M3.122,21.732v0.1h0.049c-0.004-0.039-0.021-0.074-0.049-0.102V21.732z M38.488,22.068
	c-0.001,0.052,0.017,0.103,0.049,0.144v-0.146h-0.049V22.068z M1.317,22.5c0.027,0.027,0.044,0.063,0.049,0.1H1.317V22.5z
	 M1.268,22.6c0.027,0.027,0.044,0.063,0.049,0.101H1.268V22.6z M1.168,22.744c0.027,0.027,0.044,0.063,0.049,0.1H1.171v-0.1H1.168z
	 M1.217,22.844c0.032,0.042,0.049,0.092,0.049,0.145H1.22v-0.153L1.217,22.844z"/>
</svg>
