<?xml version="1.0" encoding="utf-8"?>
<!-- Generator: Adobe Illustrator 16.0.0, SVG Export Plug-In . SVG Version: 6.00 Build 0)  -->
<!DOCTYPE svg PUBLIC "-//W3C//DTD SVG 1.1//EN" "http://www.w3.org/Graphics/SVG/1.1/DTD/svg11.dtd">
<svg version="1.1" id="Layer_1" xmlns="http://www.w3.org/2000/svg" xmlns:xlink="http://www.w3.org/1999/xlink" x="0px" y="0px"
	 width="40px" height="40px" viewBox="0 0 40 40" enable-background="new 0 0 40 40" xml:space="preserve">
<path id="Color_Fill_1" fill="#FFFFFF" d="M5.47,17.335c0.617,0.009,0.988-0.101,1.612-0.101c0.325,0.026,0.652,0.026,0.977,0
	c0.038-0.016,0.1-0.112,0.147-0.144c0.006,0.191,0.005,0.15,0.293,0.144c-0.006-0.065-0.022-0.131-0.049-0.191h0.1
	c0.151,0.395,0.558,0.052,0.928,0.145c1.141,0.12,2.292,0.071,3.419-0.145c-0.012,0.169,0.064,0.332,0.2,0.432
	c0.109-0.046,0.232-0.046,0.342,0c-0.024-0.38,0.484-0.316,0.977-0.287c0.077,0.131,0.044,0.119,0.244,0.144
	c0.046-0.548,0.128-1.093,0.244-1.631c-0.007,0.519,0.06,1.035,0.2,1.534c0.204-0.058,0.4-0.138,0.586-0.239h2.979
	c-0.071-0.639-0.055-1.285,0.049-1.919h0.049v0.48c0.015,0.033,1.221,1.439,1.221,1.439h0.391c0.321,0.198,0.713,0.251,1.075,0.144
	c0.194-0.307,0.194-0.699,0-1.007c0.015-0.114-0.002-0.23-0.049-0.336c-0.157-0.054-0.324-0.07-0.488-0.048
	c-0.063,0.041-0.13,0.075-0.2,0.1c-0.123-0.237-0.368-0.385-0.635-0.384c-0.029-0.466-0.184-0.78-0.2-1.295
	c0.129-0.023,0.26-0.039,0.391-0.048c0.415,0.104,0.842,0.152,1.27,0.144c0.126-0.087,0.256-0.167,0.391-0.24
	c0.469-0.039,0.939,0.044,1.367,0.24v-0.1c-0.081-0.227-0.043-0.479,0.1-0.672c0.301-0.03,0.61-0.114,0.88-0.144
	c-0.022,0.169,0.054,0.862,0,1.1h0.536c0.242,0.057,0.492,0.057,0.733,0v0.144h-1.13v0.048c0.617,0.176,1.264,0.225,1.9,0.144
	c0.533,0.331,1.638-0.053,2.344,0.1c1.021,0.156,2.061,0.14,3.077-0.048c0.138-0.032,0.391,0.1,0.635,0.1
	c0.647,0,1.457-0.041,1.954,0v0.192c-0.5,0.038-1.307,0-1.954,0c-0.245,0-0.5,0.128-0.635,0.1l-0.05-0.1H28.57
	c-0.577,0.125-1.416-0.1-2.051,0.048c-0.678,0.101-1.365,0.134-2.051,0.1c-0.172,0.14-0.307,0.322-0.391,0.528l0.342,0.048
	c0.082-0.309,0.391-0.262,0.781-0.24c0.43,0.132,0.889,0.132,1.318,0c0.189,0.244,0.402,0.469,0.636,0.671
	c0.212,0.015,0.427-0.001,0.635-0.048v0.1h-0.049c-0.093,0.078-0.282,0.074-0.392,0.144c0.188,0.148,0.463,0.736,0.586,0.815h2.59
	v0.145h0.342c0.097-0.135,0.179-0.279,0.244-0.433c-0.077-0.044-0.159-0.077-0.244-0.1l-0.146,0.288h-0.049v-0.101
	c0.1-0.098,0.182-0.211,0.244-0.336c-0.105-0.136-0.143-0.313-0.1-0.48c0.188-0.235,0.48-0.362,0.781-0.336
	c0.025,0.061,0.041,0.126,0.049,0.192c-0.08,0.282-0.08,0.581,0,0.863c-0.064,0.072-0.15,0.123-0.244,0.145
	c-0.072-0.121-0.021-0.074-0.2-0.101v0.048c0.129,0.104,0.171,0.282,0.1,0.432h0.343c0.572,0.194,1.16,0.339,1.758,0.433
	c0.022-0.214,0.029-0.368,0.049-0.527c0.158-0.114,0.191-0.313,0.342-0.432v-0.044h0.049v0.144c-0.051,0.106-0.085,0.22-0.1,0.337
	c0.486,0.152,0.96,0.346,1.416,0.575v0.101c-0.111-0.02-0.053-0.045-0.146,0h0.049c0.135,0.137,0.303,0.236,0.488,0.287v0.049
	h-0.238c-0.107-0.047-0.225-0.063-0.342-0.049v0.049h0.1c0.604,0.228,1.225,0.404,1.856,0.526l0.343-0.048
	c0.399,0.094,0.778,0.321,1.221,0.385c-0.014-0.193,0.002-0.389,0.049-0.576c0.33,0.127,0.509,0.127,0.488,0.623h0.244
	c0.142-0.245,0.367-0.432,0.635-0.526c0.066,0.038,0.105,0.112,0.096,0.188c-0.345,0.248-0.672,0.521-0.977,0.815v2.782
	c-0.184,0.008-0.363,0.042-0.537,0.1c0.041-0.141,0.1-0.2-0.049-0.288c-0.113,0.021-0.229,0.021-0.343,0v-0.149
	c-0.285-0.045-0.563-0.126-0.829-0.24c-0.484-0.026-0.961-0.123-1.416-0.288c-0.074,0.256-0.242,0.168-0.44,0.288
	c-0.337,0.229-0.607,0.543-0.781,0.911l-0.049,0.288c-0.059,0.039-0.13,0.057-0.2,0.048c-0.254-0.145-0.538-0.227-0.83-0.24
	c-0.322,0.101-0.517,0.446-0.83,0.576c-0.197-0.007-0.389,0.062-0.537,0.192c-0.082,0.218-0.148,0.442-0.199,0.67
	c-0.225,0.446-0.561,0.826-0.978,1.101c-1.22,0.742-2.81,0.355-3.552-0.864c-0.188-0.307-0.309-0.649-0.355-1.006
	c-0.6,0-0.906,0.092-1.465,0.1c-0.248,1.414-1.597,2.359-3.011,2.111c-0.317-0.057-0.62-0.17-0.896-0.337
	c-0.354-0.238-0.654-0.549-0.879-0.911l-0.201-0.576H19.78c-0.195,0.141-0.409,0.254-0.635,0.336v-0.1h0.049
	c0.112-0.097,0.247-0.162,0.391-0.191v-0.045h-1.709c-0.388,1.367-1.81,2.16-3.176,1.773c-0.048-0.014-0.097-0.029-0.145-0.046
	c-0.898-0.347-1.535-1.155-1.66-2.11h-0.734c-0.158,0.106-0.352,0.143-0.537,0.1c-0.069,1.94-2.643,2.687-4.151,1.584
	c-0.317-0.277-0.567-0.621-0.733-1.008c-0.015-0.243-0.098-0.477-0.24-0.675c-0.207,0.054-0.422,0.069-0.635,0.048
	c-1.234,0.107-1.669-0.551-2.54-0.863c-0.068,0.123-0.146,0.193-0.244,0.145c-0.038-0.004-0.073-0.021-0.1-0.048
	c0.158-0.04,0.075,0.022,0.147-0.101h0.047v-0.045h-0.1c-0.202,0.116-0.415,0.213-0.635,0.287c-0.032,0.041-0.065,0.151-0.1,0.192
	c-0.148-0.086-0.326-0.104-0.488-0.048c-0.04,0.156,0.024,0.072-0.1,0.144c-0.063-0.118,0.021-0.032-0.1-0.1
	c-0.029,0.12-0.079,0.233-0.147,0.336v-0.047c-0.043-0.067-0.053-0.269-0.1-0.336c-0.006,0.065-0.022,0.131-0.049,0.192
	c-0.141-0.039-0.252-0.148-0.293-0.289l0.1,0.049v-0.047c-0.042-0.112-0.024-0.239,0.049-0.336H1.27v0.101
	c-0.061,0.086-0.061,0.201,0,0.288l0.146-0.723H1.368v0.049c-0.038,0.092-0.049-0.101-0.049-0.101
	c0.183-0.558,0.282-1.14,0.293-1.728l0.049-0.574c-0.027-0.074-0.107-0.096-0.147-0.192c0.127-0.31,0.109-0.659-0.049-0.954h0.049
	v-0.05h0.049c0.001,0.083,0.018,0.164,0.049,0.24h0.049v-0.101c-0.03-0.059-0.046-0.123-0.049-0.189
	c0.049-0.085,0.149-0.126,0.244-0.1l-0.049-0.145c0.22-0.048,0.153-0.014,0.244-0.24c0.147,0.062,0.183,0.051,0.293,0.101
	c0.166,0.319,0.1,0.753,0.244,1.151c0.045,0.039,0.094,0.072,0.147,0.1c-0.022,0.111-0.039,0.223-0.049,0.336
	c0.04,0.132,0.153,0.318,0.2,0.48H2.93v-0.146c-0.146-0.332-0.214-0.693-0.2-1.055c0.043-0.041,0.078-0.09,0.1-0.145h0.052
	c0.001,0.13,0.018,0.259,0.049,0.384h0.048v-0.575C3.006,19.035,3.023,19,3.028,18.962H2.979C2.916,19.08,3,18.995,2.879,19.063
	v-0.289c-0.053,0.002-0.104-0.016-0.147-0.047h0.2c0.005,0.065,0.022,0.131,0.049,0.191c0.027-0.027,0.044-0.063,0.049-0.1
	c0.013-0.449-0.003-0.897-0.049-1.344c0.217-0.021,0.165-0.088,0.2-0.1c0.177,0.031,0.357,0.047,0.537,0.048
	c0.042-0.2,0.167-0.374,0.342-0.479v-1.479c-0.327-0.508-0.146-1.624-0.488-2.11c-0.271-0.068-0.553-0.084-0.83-0.048h-2
	c-0.1-0.056-0.53,0.033-0.684-0.048H0V13.21c0.376-0.092,0.738-0.238,1.074-0.432c0.76-0.316,1.523-0.525,2.247-0.863
	c-0.052-0.273,0.021-0.555,0.2-0.767c0.105,0.573,0.226,1.287,0.391,1.918c0.008,0.278,0.058,0.552,0.147,0.815V8.174
	C3.985,7.456,3.999,6.731,4.1,6.016v8.393c0.183,0.771,0.323,1.643,0.488,2.446h0.784c0,0,0.021-0.19,0.049-0.101v0.048
	C5.479,16.975,5.496,17.156,5.47,17.335z M20.464,14.074c0.245-0.035,0.495-0.019,0.733,0.048
	C20.952,14.157,20.702,14.141,20.464,14.074z M20.364,14.122h0.1v0.048c-0.037-0.005-0.071-0.021-0.098-0.048H20.364z
	 M19.924,14.314v0.1h0.049v-0.053h0.049c-0.026-0.024-0.06-0.04-0.095-0.045L19.924,14.314z M18.752,17h1.028v-0.049
	c-0.392-0.359-0.722-0.781-0.978-1.247h-0.048v1.3L18.752,17z M4.3,16.855c0.01-0.316-0.059-0.629-0.2-0.912
	c-0.013,0.305,0.003,0.61,0.049,0.912H4.3z M3.958,17.143c-0.023,0.084-0.057,0.165-0.1,0.24h0.049
	C3.933,17.357,3.965,17.342,4,17.335c0.004-0.038,0.021-0.073,0.049-0.101v-0.1h-0.1L3.958,17.143z M30.625,17.191
	c0.027,0.026,0.045,0.062,0.049,0.1h-0.051v-0.1H30.625z M31.846,17.671c0.035,0.088,0.085,0.169,0.147,0.24v-0.048
	c0.04-0.025,0.075-0.06,0.1-0.101c-0.079-0.039-0.163-0.069-0.249-0.092H31.846z M32.234,17.816
	c-0.027,0.025-0.063,0.043-0.101,0.048v0.048h0.244v-0.049L32.234,17.816z M2.634,18.823c0.027,0.026,0.044,0.062,0.049,0.1H2.637
	v-0.1H2.634z M2.585,18.967c0.027,0.027,0.044,0.063,0.049,0.1H2.589v-0.1H2.585z M38.336,19.352v0.1h0.049v-0.055h0.049
	c-0.025-0.025-0.059-0.041-0.095-0.047L38.336,19.352z M3.025,20.071l0.1,0.671h0.1c-0.012-0.02-0.029-0.037-0.049-0.049
	c0.082-0.219,0.023-0.465-0.148-0.625L3.025,20.071z M3.225,21.126l-0.049,0.24c0.052,0.071,0.086,0.153,0.1,0.239h0.045
	c0.02-0.166-0.014-0.336-0.098-0.481L3.225,21.126z M3.078,21.654v0.1h0.048c-0.003-0.039-0.021-0.074-0.049-0.102L3.078,21.654z
	 M38.486,21.702v0.1h0.05c-0.004-0.038-0.022-0.075-0.05-0.102V21.702z M1.27,22.563c0.027,0.027,0.044,0.063,0.049,0.101H1.27
	V22.563z M1.17,22.707c0.027,0.027,0.044,0.063,0.049,0.1H1.172v-0.1H1.17z M1.023,23.091c0.027,0.027,0.044,0.063,0.049,0.101
	H1.026v-0.101H1.023z"/>
</svg>
