<svg xmlns="http://www.w3.org/2000/svg" width="40" height="40" viewBox="0 0 40 40">
  <defs>
    <style>
      .cls-1 {
        fill: #fff;
        fill-rule: evenodd;
      }
    </style>
  </defs>
  <path id="Color_Fill_1" data-name="Color Fill 1" class="cls-1" d="M25.261,16.741H25.5a0.339,0.339,0,0,0,.145.3,0.273,0.273,0,0,1,.291-0.3l0.194,0.593c0.149,0.093.435-.032,0.63,0.049l0.1,0.148c0.253,0.113.492,0.047,0.727,0.148a2.683,2.683,0,0,1,.776.593c0.028,0.028.072,0.181,0.1,0.2h1.018a1.078,1.078,0,0,1,.145-0.543H29.042a1.654,1.654,0,0,1-.824.049,1.167,1.167,0,0,1-.291-0.691h1.164V17.235h0.048a1.187,1.187,0,0,0-.048-0.445,4.309,4.309,0,0,1-.776-0.247c-0.02.177,0.023,0.124-.1,0.2v-0.2a0.179,0.179,0,0,0,.049-0.1c-0.246.009-.239,0.1-0.291-0.1-0.032-.071-0.012-0.045-0.242-0.049V16.148h0.145c0.107-.262.357-0.289,0.485-0.592a0.549,0.549,0,0,1,.291,0V15.407c0.447-.022.965-0.009,1.5,0v0.4H29.964v0.049a0.2,0.2,0,0,1,.1.2c1.136,0,2.178.095,3.394,0.1v0.1H33.406a0.322,0.322,0,0,1-.194.049,9.921,9.921,0,0,0-2.279.049,2.809,2.809,0,0,0-.824.049c0.157,0.041.074-.024,0.145,0.1a0.28,0.28,0,0,0,0,.2l-0.194.1a0.174,0.174,0,0,0,.1.049,0.505,0.505,0,0,0,.339.148,1.46,1.46,0,0,1,.582-0.543,1.276,1.276,0,0,0,.485.2H31.224V16.79a0.645,0.645,0,0,0-.194.1,1.2,1.2,0,0,0,.194.444c0.054-.166.055-0.164,0.242-0.2a0.6,0.6,0,0,0,.194.2v0.049H31.612l-0.436.543a0.165,0.165,0,0,1-.1-0.049,0.263,0.263,0,0,1-.194-0.148l-0.145.049v0.2h0.1a4.129,4.129,0,0,0,.485.049c0.377,0.134.978,0.193,1.406,0.3h0.339a0.724,0.724,0,0,1,.1.148h0.63a2.642,2.642,0,0,0,.291.839,1.719,1.719,0,0,1,.873,0v0.049H34.667v0.2h0.048a0.413,0.413,0,0,1,.242-0.049,0.241,0.241,0,0,1,.049-0.148v0.1a5.968,5.968,0,0,1,0,1.926H34.958a0.324,0.324,0,0,0-.048-0.2v0.1a0.3,0.3,0,0,0-.1.1,0.232,0.232,0,0,1,.145.049,2.577,2.577,0,0,0,.1.691c-0.061.331-.288,0.575-0.339,0.938a1.443,1.443,0,0,1,.1.642h0.048a2.776,2.776,0,0,0,1.115-1.086h0.291a0.856,0.856,0,0,0,0,.395H35.976a2.214,2.214,0,0,0-.485.494,1.553,1.553,0,0,0,.873-0.049,0.667,0.667,0,0,0,.1.2,0.381,0.381,0,0,1,.194,0v-0.1a1.579,1.579,0,0,1,0-.444,0.708,0.708,0,0,1,.436-0.3,1.381,1.381,0,0,1,.824.444,0.524,0.524,0,0,1,.145.346A4.262,4.262,0,0,0,40,24.741V24.79H39.855a2.68,2.68,0,0,0-.873-0.148c0.016,0.14.051,0.1,0,.2a3.45,3.45,0,0,0-.339.3c-1.012.02-1.009-.366-1.6-0.593v0.049a1.521,1.521,0,0,1,.582,1.185,2.125,2.125,0,0,1-.776.84V26.568a0.982,0.982,0,0,0,.291-0.642c-0.188-.291-0.091-0.588-0.582-0.593a3.08,3.08,0,0,1-1.794.741c-0.1-.13-0.35-0.161-0.436-0.3a0.648,0.648,0,0,1,0-.346,3.666,3.666,0,0,0-.242-0.444c-0.235-.016-0.3-0.077-0.533-0.1a1.728,1.728,0,0,1-1.115.593l0.048,0.247h-0.97v-0.1a0.255,0.255,0,0,0,.048-0.148H31.515v0.1a0.359,0.359,0,0,1-.291.1V25.531a1.231,1.231,0,0,1-.485-0.1v0.247a1.456,1.456,0,0,1-.242,1.037A2.139,2.139,0,0,1,27.83,27.8a2.438,2.438,0,0,1-1.212-1.185,1.981,1.981,0,0,0-.242-0.79,13.566,13.566,0,0,0-2.424-.247,2.181,2.181,0,0,1-3.394,1.975,2.587,2.587,0,0,1-.727-0.889,2.5,2.5,0,0,0-.242-0.839,2.606,2.606,0,0,0-.388,0,2.034,2.034,0,0,1-.339-0.2c-0.189-.075-0.418-0.041-0.582-0.1v0.395a1.342,1.342,0,0,0-.388.148V26.025a0.529,0.529,0,0,0,.146-0.1c-1.128,0-2.077,0-3.152.049v0.1H15.03a13.238,13.238,0,0,1,2.133,0,1.812,1.812,0,0,1,.727.049c-1.96.023-3.45,0-5.818,0a2.335,2.335,0,0,0-.194-0.4,0.413,0.413,0,0,1-.242.049v0.049H11.588a2.182,2.182,0,0,1-3.394,1.728A2.539,2.539,0,0,1,7.37,26.42a4.181,4.181,0,0,0-.145-0.741,4.487,4.487,0,0,1-.776.148,2.212,2.212,0,0,1-1.7,2.074A2.195,2.195,0,0,1,2.23,25.136H2.085c-0.066.172-.111,0.152-0.339,0.148v0.84H1.164a2.3,2.3,0,0,1-.1-0.741,0.5,0.5,0,0,1-.388-0.1,0.378,0.378,0,0,1,0-.346,0.836,0.836,0,0,1-.533-0.247,0.567,0.567,0,0,1,.1-0.148A0.8,0.8,0,0,0,.194,24.2V24.148a2.573,2.573,0,0,0,.63.049V24.148A0.384,0.384,0,0,1,.63,23.9c0.178-.034.133,0,0.194-0.148-0.14-.083-0.136-0.071-0.145-0.3a0.675,0.675,0,0,1,.194-0.049,0.881,0.881,0,0,0,.339.148V23.407H0.921a0.522,0.522,0,0,1-.1-0.3H0.679v0.3a0.675,0.675,0,0,1-.194.049c-0.084-.185-0.052-0.111-0.291-0.1V23.9H0c0-2.127,0-3.918,0-6.123H0.194v0.691c0.14-.063.1,0.056,0.145-0.148a0.255,0.255,0,0,1-.048-0.148H0.436V17.63l0.533-.1a0.587,0.587,0,0,1,.291-0.247,1,1,0,0,0,.873,0,1.115,1.115,0,0,1,.242-0.3,1.745,1.745,0,0,1,.194.148c0.218,0.071.171-.113,0.242-0.148,0.219-.107.423,0.186,0.582-0.1a0.774,0.774,0,0,0,.1-0.543H3.636a0.974,0.974,0,0,1,.291-0.3V16c-0.774-.084-1.421-0.276-2.279-0.346v-0.1a10.8,10.8,0,0,0,1.794-.2,9.291,9.291,0,0,1,2.376.1V15.8a0.393,0.393,0,0,1-.291.148A2.1,2.1,0,0,1,4.509,16a1.081,1.081,0,0,0-.048.346,0.434,0.434,0,0,0-.048.247c0.116,0.041.419,0.05,0.533,0.1L4.994,16.84a0.591,0.591,0,0,1,.291-0.148l0.1,0.148a0.37,0.37,0,0,0,.388-0.148c0.087-.024.222,0.09,0.388,0.1a2.149,2.149,0,0,0-.1-0.593H6.255a0.492,0.492,0,0,0,.145.494,1.024,1.024,0,0,0,.533.049,7.184,7.184,0,0,0,1.5,0l0.291-.247v0.148a0.179,0.179,0,0,0-.048.1H8.824A0.7,0.7,0,0,1,8.873,16.4a32.207,32.207,0,0,0,3.3.2,17.144,17.144,0,0,1,2.618,0c0.9,0.175,2.153-.1,2.909,0,0.685,0.092,2.637-.213,2.909,0a0.255,0.255,0,0,1,.048.148c0.557,0,1.179-.022,1.6,0V16.691a3.371,3.371,0,0,1-.194-0.938l-0.388-1.778H19.539a1.014,1.014,0,0,0-.533,0v-0.1a3.789,3.789,0,0,0,.97-0.395c0.511-.221,1.018-0.357,1.5-0.593a0.746,0.746,0,0,1,.145-0.593,0.188,0.188,0,0,0,.1.148,12.131,12.131,0,0,0,.485,2.864,5.023,5.023,0,0,0,.242,1.383c0.22,0.135.648-.063,0.921,0.049,0.062,0.025.171,0.154,0.242,0.2v-0.1c-0.12-.064-0.033.021-0.1-0.1a1.8,1.8,0,0,0,.145-1.185V13.037A2.887,2.887,0,0,1,23.709,12a27.744,27.744,0,0,0,.145,5.185,0.178,0.178,0,0,0,.048-0.1l0.194-.395h0.1a0.873,0.873,0,0,0,.291.3,0.757,0.757,0,0,1,.1-0.3h0.1a0.776,0.776,0,0,1,.194.247,1.186,1.186,0,0,1,.146.444h0.1v-0.1A1.212,1.212,0,0,0,25.261,16.741Zm3.1-1.086v0.2c0.121,0.034.09,0.116,0.145,0.049a0.777,0.777,0,0,0,.145-0.247H28.364Zm-0.582.691a0.7,0.7,0,0,1,0,.543V16.346Zm2.23,0.247v0.1h0.1V16.642h0.048V16.593H30.012Zm-5.285.247c0,0.134-.064.079,0.1,0.148V16.938C24.782,16.9,24.77,16.876,24.727,16.84Zm3.151,0h0.1v0.049A0.165,0.165,0,0,1,27.879,16.84Zm-3.733.049-0.1.346,0.291,0.1v-0.1C24.261,17.132,24.232,16.981,24.146,16.889Zm1.6,0v0.049H25.7c-0.068-.008.049,0.049,0.049,0.049h0.1C25.851,16.908,25.767,16.928,25.746,16.889Zm-19.491.1a1.107,1.107,0,0,0-.1.395h0.1c0.128-.14.147-0.078,0.291,0v-0.1a1.561,1.561,0,0,1-.145-0.3H6.255Zm0.63,0v0.1H7.127v-0.1H6.885Zm0.533,0v0.1l0.194-.049V16.988H7.418Zm0.388,0v0.1H7.9v-0.1h-0.1Zm0.388,0a0.414,0.414,0,0,0-.1.148H8.291V17.086C8.249,17.05,8.236,17.024,8.194,16.988Zm0.727,0a0.174,0.174,0,0,0,.1.049A0.174,0.174,0,0,0,8.921,16.988Zm0.145,0v0.1l0.145-.049V16.988H9.067Zm0.242,0v0.148H9.455V16.988H9.309Zm0.388,0a0.241,0.241,0,0,0,.048.148V16.988H9.7Zm0.727,0a0.231,0.231,0,0,0-.145.049,0.18,0.18,0,0,1,.048.1h0.1V16.988Zm0.145,0-0.048.148h0.1A0.242,0.242,0,0,0,10.57,16.988Zm0.194,0a0.174,0.174,0,0,0,.1.049A0.174,0.174,0,0,0,10.764,16.988Zm0.194,0v0.148h0.049V17.086h0.048v0.049a0.254,0.254,0,0,0,.048-0.148H10.958Zm0.533,0-0.049.148h0.194V17.086A0.407,0.407,0,0,0,11.491,16.988Zm0.388,0a0.232,0.232,0,0,0-.146.049,0.18,0.18,0,0,1,.049.1h0.1V16.988Zm0.194,0v0.148h0.194v-0.1H12.218V16.988H12.073Zm0.533,0.148c-0.04-.16.024-0.075-0.1-0.148v0.1H12.461v0.049h0.146Zm0.582,0V16.988H12.752v0.1H12.8A0.754,0.754,0,0,0,13.188,17.136Zm0.582-.148v0.148h0.194v-0.1H13.915V16.988H13.77Zm0.291,0v0.1H14.3v-0.1H14.061Zm0.388,0c0,0.141-.018.109,0.145,0.2V17.037H14.546A0.174,0.174,0,0,0,14.449,16.988Zm0.63,0.148V16.988H14.933v0.1H14.885v0.049h0.194Zm0.194-.148v0.148h0.242V16.988H15.273Zm0.436,0-0.048.148h0.146V17.086C15.764,17.05,15.751,17.024,15.709,16.988Zm0.242,0a0.241,0.241,0,0,0,.049.148v-0.1l0.049-.049h-0.1Zm0.485,0,0.048,0.148h0.049V17.086a0.179,0.179,0,0,0,.049-0.1H16.436Zm0.291,0v0.2h0.049V17.136C16.833,17.076,16.786,17.059,16.727,16.988Zm0.242,0,0.049,0.148a0.179,0.179,0,0,0,.049-0.1h0.048V16.988H16.97Zm0.63,0v0.1h0.1V17.037Zm0.485,0a0.174,0.174,0,0,0,.1.049A0.174,0.174,0,0,0,18.085,16.988Zm0.242,0a0.174,0.174,0,0,0,.1.049A0.173,0.173,0,0,0,18.327,16.988Zm0.436,0a0.242,0.242,0,0,0,.049.148v-0.1l0.049-.049h-0.1Zm0.388,0a0.274,0.274,0,0,0,.291.2c0.108-.267.545-0.048,0.679,0a0.3,0.3,0,0,1,.1-0.1V17.037C19.988,17.035,19.569,16.985,19.152,16.988Zm1.261,0a0.213,0.213,0,0,0,.146.148,0.944,0.944,0,0,1,.194-0.1V16.988H20.412Zm0.873,0a0.231,0.231,0,0,0-.145.049c0.033,0.038.064,0.11,0.1,0.148V17.136A0.255,0.255,0,0,0,21.285,16.988Zm0.388,0a0.636,0.636,0,0,0,.049.2,274.563,274.563,0,0,1,.1-0.2H21.673Zm1.067,0,0.049,0.247h0.049l0.048-.247H22.739Zm0.291,0a0.3,0.3,0,0,0,0,.2v0.049l0.145-.049v-0.2H23.03Zm-17.115.395a0.725,0.725,0,0,0-.1-0.346H5.77v0.049H5.721a0.9,0.9,0,0,1,.145.247c-0.11-.02-0.053-0.045-0.145,0H5.77A0.244,0.244,0,0,0,5.915,17.383Zm4.17-.346v0.1h0.1V17.086Zm8.436,0v0.2h0.1v-0.1C18.576,17.1,18.564,17.074,18.521,17.037Zm2.376,0v0.1h0.1v-0.1H20.9Zm1.6,0a0.634,0.634,0,0,0,.049.2h0.048A0.2,0.2,0,0,0,22.5,17.037Zm2.327,0.346a1.084,1.084,0,0,0-.1-0.346h-0.1v0.1a1.433,1.433,0,0,0-.1.247h0.291Zm0.533-.346v0.1h0.048v-0.1H25.358Zm-11.976.049a0.174,0.174,0,0,0,.1.049A0.174,0.174,0,0,0,13.382,17.086Zm9.988,0v0.1C23.448,17.127,23.429,17.165,23.37,17.086Zm-4.364.049v0.1h0.1v-0.1h-0.1Zm2.424,0v0.1h0.146v-0.1H21.43Zm4.218,0L25.7,17.383h0.145V17.333A1.634,1.634,0,0,0,25.649,17.136Zm-19.055.049c-0.016.068,0.069,0.072,0.1,0.1C6.725,17.232,6.607,17.2,6.594,17.185Zm18.764,0-0.049.2H25.5v-0.1A0.405,0.405,0,0,0,25.358,17.185Zm-1.891.049a0.241,0.241,0,0,0,.049.148V17.235H23.467Zm-20.558.049c0.016,0.109-.05.053,0.048,0.1a0.139,0.139,0,0,1,.048-0.049A0.174,0.174,0,0,0,2.909,17.284Zm-0.436.1a0.322,0.322,0,0,1-.194.049v0.1H2.327a0.322,0.322,0,0,1,.194-0.049A0.17,0.17,0,0,0,2.473,17.383Zm-0.436.1v0.1H2.085v-0.1H2.036Zm-0.339.1c0.083,0.044.062,0.044,0.145,0H1.7Zm-0.533.1c0.016,0.109-.05.053,0.048,0.1,0.049-.034.194-0.064,0.242-0.1H1.164Zm-0.194.1H0.727a0.708,0.708,0,0,0-.048.2,0.165,0.165,0,0,1,.1.049,0.165,0.165,0,0,0,.1-0.049l0.1-.049V17.778ZM33.7,18.963v0.1h0.048A0.17,0.17,0,0,0,33.7,18.963Zm0.048,0.148a0.323,0.323,0,0,0,.048.2A0.323,0.323,0,0,0,33.746,19.111Zm0.388,0.247,0.194,0.691h0.048a1.2,1.2,0,0,1,.048-0.543v0.049a1.217,1.217,0,0,1,.049.543h0.145V19.358H34.133Zm-0.339.049a2.976,2.976,0,0,0,0,1.235,0.606,0.606,0,0,0-.1.593h0.048a1,1,0,0,1,.1-0.593l-0.048.593,0.194,0.148v-0.79C33.81,20.281,34.1,19.592,33.794,19.407ZM34.036,19.9a4.262,4.262,0,0,0,.048,1.531A4.263,4.263,0,0,0,34.036,19.9Zm0.1,1.531,0.436-.049a2.97,2.97,0,0,0-.436-1.185v1.235ZM34.521,20.2a0.6,0.6,0,0,0,.1.543V20.247Zm0.145,0.4a0.323,0.323,0,0,0,.048.2A0.323,0.323,0,0,0,34.667,20.593Zm0.291,0.247a0.232,0.232,0,0,0-.145.049,0.572,0.572,0,0,1,.1.148h0.048v-0.2Zm-1.164.741L34.23,21.63a11.46,11.46,0,0,1,.048,1.185,0.75,0.75,0,0,1-.242.049v0.3h0.1c0.123-.124.132-0.073,0.291,0a3.288,3.288,0,0,0,.388-1.235c-0.022-.107-0.114-0.257-0.145-0.395a7.621,7.621,0,0,1-.873-0.148v0.2Zm3.152,1.284a0.192,0.192,0,0,0,.242,0H36.946Zm-3.006.1a0.323,0.323,0,0,0,.049.2A0.324,0.324,0,0,0,33.939,22.963ZM34.085,23.7a1.056,1.056,0,0,0-.048-0.494,1.5,1.5,0,0,1-.1.444A0.245,0.245,0,0,0,34.085,23.7Zm-3.83-.148L30.3,23.7c0.21,0.035.259,0.113,0.485,0.148V23.8a1.438,1.438,0,0,0-.242-0.2A0.517,0.517,0,0,0,30.255,23.556Zm6.739,0.1V24h0.1V23.951h0.049A0.917,0.917,0,0,0,36.994,23.654Zm-1.988.247V24a1.282,1.282,0,0,1,.533.3V24.2A1.4,1.4,0,0,0,35.006,23.9Zm0.582,0V24c0.122,0.087.169,0.209,0.291,0.3A0.756,0.756,0,0,0,35.588,23.9Zm-0.727.1a0.174,0.174,0,0,0,.1.049A0.174,0.174,0,0,0,34.861,24Zm1.212,0c0.051,0.2.139,0.251,0.194,0.444h0.1V24.4A3.009,3.009,0,0,0,36.073,24Zm1.115,0.2a0.563,0.563,0,0,0,.145.1A0.187,0.187,0,0,0,37.188,24.2Zm-1.988.148v0.1c0.328,0.241.374,0.805,0.776,0.839a0.69,0.69,0,0,1,.339-0.148V24.988H36.267V24.938c-0.142.019-.061,0.081-0.145-0.049A0.551,0.551,0,0,0,35.83,24.4a0.259,0.259,0,0,1-.388.1A0.793,0.793,0,0,1,35.2,24.346Zm-0.339.247H35.1V24.543a0.871,0.871,0,0,0-.242-0.148v0.2Zm2.764-.049a0.664,0.664,0,0,0,.97.346A2.636,2.636,0,0,1,37.624,24.543Zm-5.867.691h0.582V24.889H31.855v0.1A0.336,0.336,0,0,0,31.758,25.235Zm-20.267-.1h0.388l0.049-.148h-0.1a0.753,0.753,0,0,0-.388-0.049v0.049A0.254,0.254,0,0,1,11.491,25.136Zm7.612-.148v0.148l0.63,0.049v-0.1a0.254,0.254,0,0,0,.049-0.148Zm13.333-.049v0.2C32.612,25.051,32.578,25.046,32.436,24.938Zm2.424,0.049v0.247a0.232,0.232,0,0,0-.145.049,0.78,0.78,0,0,0,.339.445,1.217,1.217,0,0,1,.63-0.247v-0.2A2.723,2.723,0,0,0,34.861,24.988Zm-33.939.247v-0.2a0.6,0.6,0,0,0-.194.049,0.17,0.17,0,0,0,.048.1A0.245,0.245,0,0,0,.921,25.235Zm17.7-.2c0.02,0.133.12,0.108,0.388,0.1v-0.1H18.618Zm12.024,0c0.138,0.39.273,0.273,0.63,0.346V25.333a0.527,0.527,0,0,0-.242-0.2A0.931,0.931,0,0,0,30.642,25.037Zm-29.527.247a0.42,0.42,0,0,0,.048.247A0.42,0.42,0,0,0,1.115,25.284Zm5.818,0c-0.141.087-.411,0.052-0.533,0.148H6.448a0.413,0.413,0,0,0,.242.049,1.4,1.4,0,0,0,.63-0.2H6.933Zm19.539,0.2a0.638,0.638,0,0,1,.049-0.2H26.279c-0.141.087-.411,0.052-0.533,0.148Zm-14.885-.049v0.2l0.339-.049V25.432H11.588Zm7.079,0a0.321,0.321,0,0,0,.339,0H18.667Zm1.018,0.2V25.482L19.1,25.432v0.1h0.1A0.925,0.925,0,0,0,19.685,25.63Zm11.976-.148V25.63h0.679V25.482H31.661Zm-16.824.593V25.926H14.594C14.66,26.075,14.561,26.059,14.836,26.074Z" transform="translate(0 0.016)"/>
</svg>
