<?xml version="1.0" encoding="utf-8"?>
<!-- Generator: Adobe Illustrator 16.0.0, SVG Export Plug-In . SVG Version: 6.00 Build 0)  -->
<!DOCTYPE svg PUBLIC "-//W3C//DTD SVG 1.1//EN" "http://www.w3.org/Graphics/SVG/1.1/DTD/svg11.dtd">
<svg version="1.1" id="Layer_1" xmlns="http://www.w3.org/2000/svg" xmlns:xlink="http://www.w3.org/1999/xlink" x="0px" y="0px"
	 width="40px" height="40px" viewBox="0 0 40 40" enable-background="new 0 0 40 40" xml:space="preserve">
<path id="Color_Fill_1" fill="#FFFFFF" d="M27.177,15.116h1.244c0.644-0.975,1.884-1.361,2.968-0.924
	c0.298,0.132,0.572,0.313,0.813,0.535c0.069,0.136,0.149,0.266,0.238,0.389h1.201c-0.049-0.216-0.014-0.442,0.1-0.632h-0.631
	c-0.3,0.133-0.635,0.168-0.957,0.1c-0.164-0.251-0.277-0.532-0.334-0.827h1.34v-0.1c0.354-0.5-0.559-0.639-0.909-0.73
	c0.009,0.084-0.008,0.169-0.048,0.243v-0.046c-0.042-0.036-0.055-0.061-0.1-0.1c0.053-0.071,0.088-0.155,0.1-0.243
	c-0.113,0.003-0.226,0.02-0.335,0.049c0.013-0.217,0.11-0.175-0.101-0.243v0.049h-0.043c0.032,0.244,0.016,0.492-0.048,0.73
	c-0.004-0.311-0.038-0.62-0.1-0.924h0.194c0.101-0.272,0.187-0.089,0.383-0.243c0.101-0.077,0.094-0.3,0.191-0.389
	c0.078-0.07,0.189-0.089,0.287-0.049v-0.145c0.557-0.056,1.118-0.056,1.676,0c0.051,0.14,0.067,0.29,0.047,0.438h-0.19v0.049
	c0.274,0.279,0.685,0.374,1.053,0.243c0.964,0.167,1.946,0.2,2.919,0.101v0.146c-0.958-0.035-1.918-0.001-2.871,0.1
	c-0.319-0.028-0.642-0.012-0.957,0.049c0.172,0.02,0.12-0.023,0.191,0.1c-0.029,0.079-0.029,0.165,0,0.243
	c-0.105,0.026-0.193,0.098-0.239,0.195c0.222,0.031,0.3,0.111,0.526,0.146c0.156-0.247,0.412-0.394,0.574-0.632
	c0.074,0.071,0.154,0.136,0.238,0.195c0.113,0.009,0.225,0.025,0.336,0.049H35.6c-0.053,0.119-0.116,0.233-0.19,0.34
	c0.063,0.14,0.111,0.287,0.143,0.438c0.057-0.156,0.224-0.241,0.384-0.195c0.074,0.081,0.125,0.183,0.144,0.292
	c-0.219,0.166-0.412,0.362-0.574,0.584c-0.038-0.004-0.073-0.021-0.1-0.049c-0.099-0.039-0.182-0.107-0.239-0.195
	c-0.027,0.027-0.063,0.044-0.1,0.049v0.292c0.89,0,1.761,0.356,2.774,0.389L37.8,15.116h0.718c0.07,0.306,0.184,0.601,0.336,0.876
	c0.088,0.043,0.188,0.061,0.287,0.049c0.235-0.055,0.48-0.055,0.717,0l0.043,0.148c0.039,0.257,0.056,0.518,0.048,0.778
	c0.04,0.486,0.04,0.974,0,1.459c-0.06,0.041-0.124,0.074-0.191,0.1c0.116,0.213,0.196,0.443,0.239,0.682
	c-0.081,0.318-0.193,0.628-0.335,0.924v0.243c-0.085,0.153-0.181,0.3-0.287,0.438c-0.101,0.162-0.049,0.369-0.144,0.535l-0.67,0.584
	c0.031,0.077,0.031,0.164,0,0.242c-0.111,0.11-0.185-0.043-0.287,0c-0.213,0.168-0.35,0.412-0.383,0.682
	c-0.478,0.01-0.41,0.23-0.91,0.242c0.029,0.096,0.029,0.197,0,0.293v0.049c-0.334,0.014-0.668-0.003-1-0.049
	c-0.025-0.027-0.043-0.063-0.047-0.101c0.04-0.043,0.074-0.093,0.1-0.146h-0.1c-0.058,0.211-0.117,0.199-0.384,0.194
	c-0.005-0.184,0.048-0.133-0.19-0.146c-0.097-0.072-0.215-0.107-0.336-0.101v0.054c0.105,0.43,0.037,0.885-0.19,1.265
	c-0.415,1.034-1.479,1.655-2.584,1.505c-0.833-0.156-1.543-0.697-1.914-1.459c-0.06-0.313-0.14-0.621-0.239-0.924
	c-0.28-0.076-0.57-0.109-0.861-0.1c-0.646-0.129-1.303-0.194-1.961-0.195c0.072,1.042-0.496,2.023-1.436,2.48
	c-1.248,0.561-2.715,0.004-3.275-1.245c-0.141-0.313-0.215-0.65-0.218-0.993h-0.813V23.34l-0.766-0.146v0.438
	c-0.41,0-1.042,0.101-1.244,0.05v0.146c0.255-0.046,0.519-0.029,0.766,0.049h-6.652V23.73h-0.143v-0.293l-0.383,0.049
	c-0.028,1.12-0.786,2.089-1.866,2.385c-1.332,0.321-2.672-0.498-2.994-1.83c-0.051-0.213-0.074-0.432-0.068-0.65
	c-0.326-0.031-0.655,0.02-0.957,0.146H7.177C7.138,24.9,6,25.975,4.636,25.935c-0.276-0.008-0.549-0.063-0.808-0.161
	c-1.157-0.516-1.78-1.784-1.483-3.016c-0.164,0.084-0.342,0.134-0.526,0.146v0.972l-0.67-0.049c-0.067-0.271-0.101-0.548-0.1-0.827
	h-0.1c-0.096,0.01-0.192,0.01-0.287,0c-0.063-0.2-0.14-0.396-0.231-0.584c-0.106,0.052-0.229,0.052-0.335,0
	C0.038,22.312,0.005,22.195,0,22.076c0.053-0.025,0.102-0.059,0.144-0.1C0.084,21.869,0.036,21.756,0,21.638h0.144
	c0.206,0.028,0.414,0.045,0.622,0.05v-0.101H0.718V21.54H0.574v-0.243c0.052,0,0.103-0.017,0.144-0.049
	c0.026-0.027,0.043-0.063,0.048-0.1c-0.152-0.086-0.15-0.133-0.144-0.387c0.16,0.02,0.311,0.088,0.431,0.195h1.483
	c0.012-0.02,0.028-0.037,0.048-0.049v-0.146c-0.59,0.038-1.183,0.022-1.771-0.046c-0.032-0.094-0.048-0.192-0.048-0.292
	c-0.066,0.006-0.13,0.022-0.191,0.049c0.023,0.096,0.023,0.196,0,0.293c-0.061,0.025-0.125,0.041-0.191,0.049
	c-0.025-0.069-0.059-0.135-0.1-0.195c-0.051,0.08-0.146,0.121-0.239,0.1V15.07h0.147l-0.048-0.292h0.048V14.73h0.144v-0.584h0.1
	c0.293-0.105,0.599-0.171,0.909-0.195c0.8-0.227,1.7-0.4,2.536-0.584v-0.1c-0.048-0.192-0.082-0.387-0.1-0.584
	c0.25-0.022,0.459-0.197,0.526-0.438c-0.462-0.001-0.919-0.101-1.34-0.292c-0.413-0.04-0.829-0.056-1.244-0.049v-0.143
	c0.626-0.009,1.251-0.074,1.866-0.195c0.958-0.072,1.921-0.039,2.871,0.1c0,0.199-0.034,0.396-0.1,0.584h-0.33
	c-0.34,0.111-0.704,0.128-1.053,0.049v0.1c-0.102,0.216-0.102,0.465,0,0.681h0.479c0.012,0.02,0.028,0.037,0.048,0.049v0.146
	l1.388-0.1v-0.052c-0.023-0.145-0.023-0.293,0-0.438c-0.008-0.026-0.119-0.1-0.144-0.146l0.239-0.049
	c-0.03,0.216,0.005,0.436,0.1,0.632c0.792,0.123,1.596,0.14,2.392,0.049c0.084-0.155,0.219-0.275,0.383-0.341v0.049
	c-0.063,0.085-0.097,0.187-0.1,0.292h14.02c0.51,0.05,1.024,0.033,1.53-0.049c-0.244-0.733-0.324-1.647-0.525-2.384
	c-0.013-0.249-0.062-0.495-0.145-0.73c-0.281-0.072-0.573-0.088-0.86-0.049h-2.2v-0.1c0.336-0.083,0.658-0.214,0.957-0.389
	c0.628-0.271,1.252-0.46,1.865-0.729c0.014-0.247,0.063-0.491,0.144-0.725h0.048c0.172,1,0.416,2.589,0.719,3.795
	c0.016,0.447,0.096,0.889,0.238,1.313c0.264,0.162,0.784-0.088,1.1,0.049c0.063,0.027,0.154,0.15,0.24,0.194v-1.313
	c0.108-0.937,0.125-1.882,0.047-2.822c-0.046-0.341-0.029-0.687,0.049-1.022v4.136c-0.115,0.537-0.012,1.097,0.287,1.557
	c0.021-0.115,0.122-0.197,0.238-0.195c0.075,0.082,0.125,0.183,0.144,0.292C27.328,14.276,27.151,14.689,27.177,15.116z
	 M32.344,11.857L32.296,12.1c0.126,0.037,0.114,0.058,0.239,0.1c0.01-0.104,0.045-0.204,0.1-0.292
	c-0.1,0.001-0.197-0.015-0.291-0.049V11.857z M34.21,12.976v0.1h0.101v-0.049h0.047v-0.049h-0.146L34.21,12.976z M31.91,13.171h0.1
	v0.049c-0.036-0.004-0.07-0.021-0.096-0.047L31.91,13.171z M31.811,13.22h0.1v0.049c-0.035-0.005-0.067-0.022-0.092-0.048
	L31.811,13.22z M31.811,13.366h0.1v0.05c-0.035-0.006-0.068-0.023-0.092-0.049L31.811,13.366z M7.504,13.95v-0.242
	c-0.141-0.146-0.32-0.247-0.518-0.292c-0.236,0.053-0.476,0.086-0.718,0.1c0.012,0.02,0.028,0.037,0.048,0.049
	c0.13,0.042,0.223,0.157,0.239,0.292H6.507c-0.042-0.041-0.091-0.075-0.144-0.1v0.049h0.048v0.049
	c0.108,0.035,0.221,0.052,0.335,0.049c0.172,0.013,0.342-0.039,0.478-0.146c0.037,0.126,0.158,0.207,0.288,0.193L7.504,13.95z
	 M7.464,13.416C7.96,13.583,8.494,13.6,9,13.465v-0.049H7.464z M9.234,13.416c-0.051,0.053-0.118,0.088-0.191,0.1v0.049h0.048
	c0.121,0.05,0.253,0.067,0.383,0.049l0.1-0.195h-0.34V13.416z M9.856,13.416v0.195h0.766v-0.195H9.856z M10.909,13.416v0.195
	c2.465,0.016,4.78,0.006,7.368,0c0.005-0.067,0.022-0.133,0.048-0.195H10.909z M18.517,13.416v0.195
	c0.546,0.026,1.094-0.023,1.627-0.146h0.048v-0.049H18.517z M21,13.465v0.243c0.378,0.054,0.764-0.015,1.1-0.195H22.2v0.101h1.147
	v-0.097H23.4l0.525,0.1c0.137,0.032,0.694,0.082,0.957,0.1v-0.3h-3.208c-0.414-0.061-0.836-0.044-1.244,0.049H21z M25.833,13.66
	c0.325-0.097,0.676-0.003,0.909,0.243v-0.292c-0.292-0.156-0.623-0.224-0.952-0.195v0.049c0.035,0.059,0.052,0.126,0.047,0.194
	L25.833,13.66z M25.259,13.465c-0.028,0.078-0.045,0.16-0.048,0.243h0.048v-0.049c0.052-0.054,0.054-0.138,0.005-0.194H25.259z
	 M25.594,13.465v0.195h0.049v0.049c0.037-0.004,0.072-0.021,0.1-0.049c0.03-0.042,0.047-0.092,0.048-0.144h-0.048v-0.051H25.6
	H25.594z M9.569,13.516v0.1h0.048C9.613,13.578,9.596,13.543,9.569,13.516z M23.4,13.659c0.026,0.027,0.062,0.044,0.1,0.049
	C23.473,13.681,23.438,13.664,23.4,13.659z M3.209,13.759c-0.4,0.252-1.963,0.254-2.153,0.584H1.1
	c0.698-0.239,1.42-0.402,2.153-0.486c-0.004-0.038-0.021-0.073-0.047-0.1L3.209,13.759z M7.659,18.867h0.188
	c0-1.617-0.009-3.171-0.048-4.622H7.7v0.049c-0.085,0.1-0.155,0.2-0.239,0.292h-0.1c-0.114-0.188-0.242-0.366-0.383-0.535h-0.04
	V14.1c-0.059,0.076-0.031,0.025,0,0.1c0.127,0.62,0.712,0.527,0.718,1.362c0.264,0.255-0.128,0.525,0,0.924
	c0.067,0.792,0.067,1.587,0,2.379L7.659,18.867z M35.171,14.099c0.027,0.027,0.063,0.044,0.101,0.049
	c-0.027-0.028-0.064-0.046-0.104-0.051L35.171,14.099z M0.626,14.342c-0.015,0.289-0.064,0.352,0.1,0.486v0.048h0.04
	C0.758,14.685,0.846,14.502,1,14.389c-0.069-0.054-0.152-0.088-0.239-0.1c-0.04,0.031-0.088,0.049-0.139,0.051L0.626,14.342z
	 M26.891,14.681c-0.053,0-0.104,0.017-0.145,0.049h0.048v0.049l0.101,0.049v-0.147H26.891z M26.746,15.119v0.1h0.048v-0.103h-0.048
	V15.119z M0.622,15.508c-0.001,0.053,0.016,0.104,0.048,0.146v-0.049c0.026-0.027,0.043-0.063,0.048-0.1h-0.1L0.622,15.508z
	 M26.891,15.848v-0.194h-0.049v0.049c-0.041,0.043-0.074,0.092-0.1,0.146L26.891,15.848L26.891,15.848z M38.469,15.799
	c-0.012,0.1,0.004,0.202,0.049,0.292C38.529,15.991,38.513,15.891,38.469,15.799L38.469,15.799z M0.669,15.945
	c-0.008,0.092,0.029,0.183,0.1,0.243c-0.01-0.182,0.019-0.172-0.099-0.242L0.669,15.945z M26.746,16.091
	c-0.013,0.1,0.004,0.202,0.048,0.292c0.034-0.172,0.06-0.121,0.101-0.292H26.746z M39.33,16.967h0.145V16.14
	c-0.077-0.03-0.158-0.046-0.24-0.049c-0.104,0.047-0.221,0.064-0.334,0.049v0.1c0.137,0.183,0.145,0.5,0.287,0.681
	c-0.057-0.215-0.021-0.444,0.1-0.632C39.314,16.514,39.329,16.74,39.33,16.967z M39.521,16.091v0.243h0.1
	c0.088-0.052,0.198-0.052,0.287,0v-0.1C39.816,16.118,39.667,16.063,39.521,16.091L39.521,16.091z M38.564,16.14
	c-0.033,0.119-0.082,0.233-0.144,0.341c-0.067,0.599-0.052,1.205,0.048,1.8h0.049v-0.73h-0.049v-0.048h0.1v0.827
	c0.059,0.043,0.123,0.076,0.191,0.1v-1.024C38.555,17.061,38.814,16.416,38.564,16.14L38.564,16.14z M0.622,16.676v0.535
	c0.056,0.029,0.093,0.084,0.1,0.146h0.044v-0.536C0.732,16.76,0.683,16.71,0.622,16.676z M27.464,16.725
	c-0.032,0.094-0.048,0.193-0.048,0.292h0.048v-0.05C27.518,16.896,27.516,16.796,27.464,16.725L27.464,16.725z M38.805,16.725
	c-0.059,0.583-0.043,1.171,0.047,1.751c0.057-0.584,0.039-1.173-0.052-1.752L38.805,16.725z M26.747,17.406h0.144V16.87H26.79
	L26.747,17.406z M38.9,18.477c0.176,0.003,0.353-0.014,0.525-0.05v-0.1c-0.22-0.413-0.381-0.854-0.479-1.311H38.9V18.477z
	 M27.464,17.065c-0.025,0.063-0.042,0.128-0.048,0.195h0.1C27.52,17.191,27.502,17.123,27.464,17.065z M39.33,17.116
	c-0.021,0.205,0.029,0.411,0.145,0.584v-0.584H39.33z M39.568,17.7v0.1h0.049c-0.004-0.038-0.021-0.075-0.049-0.103V17.7z
	 M0.622,17.846v0.535c0.056,0.029,0.093,0.084,0.1,0.146h0.044v-0.489c-0.042-0.069-0.09-0.135-0.144-0.195V17.846z M39.904,17.846
	h-0.191v0.049c0.054,0.053,0.088,0.121,0.1,0.195h0.049v-0.052c0.032-0.06,0.046-0.128,0.039-0.195L39.904,17.846z M26.891,17.895
	v0.101h0.047c-0.003-0.039-0.02-0.075-0.047-0.103V17.895z M26.79,18.09c-0.005,0.038-0.021,0.073-0.048,0.1
	c0.013,0.088,0.047,0.172,0.1,0.244c0.003-0.115,0.02-0.229,0.049-0.341H26.79V18.09z M39.805,18.189
	c-0.022,0.102-0.057,0.199-0.101,0.293h0.101v-0.056c0.053-0.052,0.088-0.12,0.1-0.194L39.805,18.189z M38.561,18.676
	c0.15-0.021,0.305,0.014,0.431,0.1h0.048c0.061,0.453,0.061,0.91,0,1.362h-0.188c0.01,0.319-0.055,0.636-0.19,0.925
	c0.228,0.049,0.132,0.1,0.239,0.242v-0.057h0.048l0.765-1.995c-0.026-0.235-0.091-0.466-0.191-0.681
	c-0.322,0.035-0.648,0.002-0.957-0.1v0.194L38.561,18.676z M26.742,18.627c-0.001,0.053,0.016,0.104,0.048,0.146
	c0.003-0.055-0.013-0.108-0.044-0.152L26.742,18.627z M0.67,19.107c-0.04,0.159-0.057,0.323-0.048,0.486
	c0.056,0.029,0.093,0.084,0.1,0.146h0.044v-0.535C0.724,19.169,0.712,19.145,0.67,19.107z M7.751,19.107
	c-0.013,0.153,0.021,0.307,0.1,0.438C7.902,19.393,7.864,19.224,7.751,19.107z M26.751,19.4v0.194h0.101V19.4H26.751z M8.23,20.762
	H7.943l-0.048-0.146c-0.008-0.218-0.057-0.433-0.144-0.632c0,0.027-0.087,0.66-0.1,0.681c-0.081,0.066-0.146,0.149-0.191,0.243
	c0.236,0.051,0.478,0.066,0.718,0.049v-0.049H8.23V20.762z M38.708,20.227c-0.009,0.084,0.008,0.169,0.048,0.243
	C38.766,20.386,38.748,20.301,38.708,20.227z M31.482,20.957c0.053,0,0.104-0.018,0.144-0.049c-0.059-0.189-0.075-0.389-0.048-0.584
	h-0.1v0.632L31.482,20.957z M3.206,20.762c0,0.053,0.016,0.104,0.048,0.146c0.169,0.057,0.35,0.074,0.526,0.049
	c0.113-0.091,2.382-0.007,3.014,0c0.012-0.02,0.028-0.037,0.048-0.049v-0.146H3.206z M8.9,20.762c0,0.258,0.384,0.215,0.766,0.195
	c0.556-0.068,1.119-0.068,1.675,0l0.048-0.146C10.565,20.684,9.728,20.667,8.9,20.762z M12.01,20.762
	c0,0.053,0.017,0.104,0.048,0.146c0.408,0.096,0.83,0.111,1.244,0.049c0.563-0.146,1.148-0.18,1.723-0.1
	c0.228,0.055,0.468,0.02,0.67-0.101H12.01V20.762z M23.254,20.908v-0.146H22.01v0.1h-0.048v0.05h1.292V20.908z M23.924,20.762v0.146
	h0.861l0.048-0.1h-0.048v-0.047H23.924L23.924,20.762z M24.924,20.762v0.146c0.255-0.021,0.512-0.021,0.766,0v-0.1
	c-0.25-0.052-0.506-0.067-0.762-0.047H24.924z M21.67,20.861v0.101h0.1v-0.101H21.67z M25.881,20.861
	c0.028,0.056,0.082,0.094,0.143,0.101v-0.054L25.881,20.861z M33.682,21.154h0.573v-0.051c-0.192-0.141-0.437-0.193-0.67-0.146
	v0.049c0.125,0.07,0.058-0.011,0.099,0.145L33.682,21.154z M34.494,20.959l0.048,0.146c0.172,0.059,0.348,0.107,0.526,0.146V21.2
	c-0.131-0.18-0.349-0.273-0.568-0.243L34.494,20.959z M33.824,21.202c0.168,0.073,0.358,0.073,0.525,0h-0.521H33.824z
	 M38.465,22.029l-0.048,0.1c0.083-0.072,0.052-0.102,0.052-0.102L38.465,22.029z M2.3,22.416c0.082,0.043,0.061,0.043,0.144,0H2.3z
	 M7.133,22.416l0.048,0.73h0.1c0.292-0.1,0.602-0.134,0.909-0.101c0.029-0.077,0.045-0.16,0.048-0.243h0.04l-0.048-0.1
	c-0.189,0.112-0.402,0.18-0.622,0.195c-0.025-0.055-0.059-0.104-0.1-0.146c0.004-0.037,0.021-0.073,0.048-0.1
	c0.043-0.082,0.091-0.16,0.144-0.236H7.129H7.133z M8.09,22.416c0.01,0.068-0.039-0.02-0.048,0.049
	c-0.092,0.038,0.1,0.049,0.1,0.049c0.041-0.031,0.15-0.064,0.191-0.1H8.086L8.09,22.416z M13.497,22.708v-0.292h-0.578v0.1
	c0.1,0.133,0.036,0.189,0.239,0.243c0.104-0.048,0.221-0.065,0.335-0.051H13.497z M20.77,22.416v0.292h0.813v-0.292h-0.817H20.77z
	 M21.68,22.416v0.341h0.76l0.049-0.292L21.68,22.416z M27.852,22.416h-0.195v0.049c0.1,0.081,0.146,0.137,0.1,0.243
	c-0.064,0.169-0.109,0.149-0.335,0.146c-0.058-0.087-0.142-0.155-0.239-0.194v0.194c0.188,0.045,0.382,0.063,0.574,0.049
	c0.092,0.01,0.182-0.027,0.239-0.1c0.026-0.027,0.043-0.063,0.048-0.1c-0.124-0.039-0.205-0.158-0.195-0.287H27.852z M29.479,22.416
	v0.341h-0.196c0.003,0.115,0.019,0.229,0.048,0.341h0.57c0.072,0.041,0.156,0.058,0.238,0.049v-0.1
	c0.092-0.201,0.155-0.414,0.191-0.632h-0.855L29.479,22.416z M36.895,22.854v-0.389c-0.291,0-0.334,0.01-0.574,0v0.051h-0.053
	c-0.021,0.117-0.056,0.23-0.1,0.342h0.723L36.895,22.854z M36.994,22.513v0.195c0.165-0.083,0.131-0.092-0.008-0.192L36.994,22.513z
	 M0.678,22.613v0.242h0.183c0.025-0.063,0.042-0.127,0.048-0.194c-0.077-0.03-0.157-0.047-0.239-0.05L0.678,22.613z M34.936,22.613
	c0.064,0.205,0.028,0.309,0.287,0.34v0.049h0.049c0.037-0.029,0.07-0.063,0.1-0.1c0.074,0.045,0.154,0.078,0.238,0.1h0.049v-0.051
	c-0.205-0.184-0.459-0.301-0.73-0.34L34.936,22.613z M28.43,22.662c-0.07,0.1-0.104,0.22-0.101,0.341h0.101
	c0.096-0.128,0.208-0.243,0.334-0.341h-0.343H28.43z M37.376,22.662l-0.101,0.146c0.014,0.008,0.225-0.133,0.093-0.149
	L37.376,22.662z M36.993,22.809c0.069,0.056,0.169,0.056,0.239,0h-0.246H36.993z M1.108,22.908c-0.012,0.1,0.004,0.201,0.048,0.292
	c0.011-0.103-0.009-0.206-0.056-0.298L1.108,22.908z M13.118,23.297l0.383-0.049v-0.2l-0.431,0.05v0.049
	c0.028,0.043,0.042,0.094,0.04,0.146L13.118,23.297z M21.109,23.054c0.142,0.094,0.32,0.112,0.478,0.05L21.109,23.054z
	 M22.354,23.297v-0.199c-0.105,0.019-0.43,0-0.67,0v0.1L22.354,23.297z M36.085,23.102v0.195h0.806v-0.199h-0.813L36.085,23.102z
	 M16.851,23.832c0-0.053-0.016-0.104-0.048-0.146c-0.073-0.04-0.156-0.057-0.239-0.049v0.1c0.066,0.05,0.008,0.087,0.278,0.091
	L16.851,23.832z M16.899,23.832c0.688-0.036,1.741,0,2.584,0c0-0.053-0.016-0.104-0.048-0.146c-0.105-0.047-0.221-0.063-0.335-0.049
	c-0.251,0.055-0.51,0.071-0.766,0.049c-0.148,0.022-1.372,0.016-1.435,0V23.832z M20.44,23.686h0.1v0.049h-0.061
	c-0.051,0.054-0.118,0.089-0.191,0.101v-0.058h0.048c0.034-0.041,0.064-0.055,0.095-0.096L20.44,23.686z"/>
</svg>
