<svg xmlns="http://www.w3.org/2000/svg" width="39.969" height="40" viewBox="0 0 39.969 40">
  <defs>
    <style>
      .cls-1 {
        fill: #fff;
        fill-rule: evenodd;
      }
    </style>
  </defs>
  <path id="Color_Fill_1" data-name="Color Fill 1" class="cls-1" d="M8.634,14.44c0.41,0,.648-0.01.976,0v0.3H8.976a0.548,0.548,0,0,1-.1.15,3.351,3.351,0,0,0,.293.5,10.1,10.1,0,0,1,1.415-.7l0.293,1.047h0.244v-0.05a0.98,0.98,0,0,1-.1-0.2h0.1c0.068,0.4,1.186.268,1.659,0.249,0.418,0.264,1.2-.025,1.756.1a9.186,9.186,0,0,0,1.707.05h3.317a5.542,5.542,0,0,1,2.049.1,0.979,0.979,0,0,0-.049.249,7.7,7.7,0,0,1-1.951.05c-1.7,0-3.5.04-5.122,0.05v0.05c0.159,0.115-.064.011,0,0.2,0,0,.075-0.029.1,0.149a14.25,14.25,0,0,1-1.8-.1v0.2l-1.219-.05a9.585,9.585,0,0,0,.634,2.094H12.1c-0.086-.13-0.081-0.067-0.293-0.05a0.639,0.639,0,0,1-.2.3,0.8,0.8,0,0,1,.049.249h0.049v-0.1a0.551,0.551,0,0,0,.049-0.3,19.209,19.209,0,0,1,2.439.1l0.341-.748a1.72,1.72,0,0,0,.341.05,0.269,0.269,0,0,0,.146.2,0.419,0.419,0,0,1,.341-0.249v0.05a0.825,0.825,0,0,0-.293.249,7.381,7.381,0,0,1,1.073.2l0.927,0.05a3,3,0,0,0,1.22.05,2.069,2.069,0,0,1,.341-0.2v0.05H18.585a1.026,1.026,0,0,1-.293.2v0.1a1.885,1.885,0,0,1,.732.15l0.049,0.5h0.244a20.432,20.432,0,0,0,1.171-2.193c-0.164-.18-0.095-0.177-0.049-0.4h0.293c0.077-.157.207-0.269,0.293-0.449h0.049v0.1a0.6,0.6,0,0,0-.146.3,0.233,0.233,0,0,1,.146.05,0.4,0.4,0,0,0-.244.05,25.18,25.18,0,0,0,2.683-.05,0.881,0.881,0,0,1,.1-0.249,1.171,1.171,0,0,1-.341-0.8H23.61a1.173,1.173,0,0,0-.049.349,0.551,0.551,0,0,0,.683.449,6.841,6.841,0,0,1,1.366,0,0.889,0.889,0,0,1,.1-0.2v0.2h0.341a5.913,5.913,0,0,1,.293-1.047,0.233,0.233,0,0,0,.146-0.05h0.049V15.636H26.049A0.8,0.8,0,0,1,26,15.387a0.182,0.182,0,0,0,.049-0.1c0.238-.049.433-0.19,0.683-0.249,0.3-.071.687,0.033,0.927-0.05,0.044-.692.1-1.652,0.1-2.493a2.729,2.729,0,0,1,.049-1v3.241a4.64,4.64,0,0,1,.2.449h1.9l0.488,0.05a4.591,4.591,0,0,0,.781-0.349l0.634-.2v-0.3a1.482,1.482,0,0,1,.244-0.7c0.223,1.205.442,2.838,0.781,4.138a2.421,2.421,0,0,0,.293,1.246,7.33,7.33,0,0,0,2.146.349V18.378h0.1l0.1,0.6h0.244a3.438,3.438,0,0,0,0,.9,1.5,1.5,0,0,0,.342.2c0.044-.121.052-0.079,0.1-0.2a0.305,0.305,0,0,1-.244-0.349H36a1.189,1.189,0,0,0,.39.4,10.165,10.165,0,0,1,1.464,1.6H37.8a0.329,0.329,0,0,0-.342-0.2,0.3,0.3,0,0,1-.1.1v0.05h0.049l0.342,0.4a0.876,0.876,0,0,1,.683,0,0.962,0.962,0,0,0-.341.05v0.149h0.146c0.091,0.207.046,0.415,0.342,0.449,0.062-.069.2-0.214,0.244-0.15l0.146,0.1a0.7,0.7,0,0,0-.2.349A5.335,5.335,0,0,1,40,24.211c-0.09.066-.159,0.258-0.244,0.3h-2.2c-0.233-.4-0.587-0.415-0.78-0.8a0.438,0.438,0,0,0-.439.15,2.566,2.566,0,0,1,.293,2.194c-0.289.873-1.524,2.223-2.976,1.845a2.847,2.847,0,0,1-2-1.645,8.1,8.1,0,0,0-.2-1,0.245,0.245,0,0,0-.146-0.05,2.161,2.161,0,0,1-.829.05l-1.561.1a0.8,0.8,0,0,1-.049-0.249h-4.39a4.7,4.7,0,0,1-.976.05c-0.044.013-.189,0.138-0.244,0.149-0.072.015-1.189,0.014-1.268,0a1.132,1.132,0,0,0-.683-0.149c-0.044.013-.189,0.138-0.244,0.149-0.074.015-1.187,0.014-1.268,0a1.912,1.912,0,0,1-.39-0.2H18.1l-0.146-.648H17.61a0.757,0.757,0,0,1-.39.05,0.8,0.8,0,0,0-.049.249,2.062,2.062,0,0,1-.146,1.446,2.586,2.586,0,0,1-3.073,1.645,2.877,2.877,0,0,1-1.8-1.645c-0.11-.275-0.057-0.859-0.2-1.1a3.088,3.088,0,0,1-.829.05A2.654,2.654,0,0,1,7.415,27.7C6.2,27.094,5.654,25.855,6.1,24.161a0.756,0.756,0,0,1-.537-0.4H5.512v0.249H5.122v0.3H3.415a1.425,1.425,0,0,1-.293-0.3,2.441,2.441,0,0,0-1.463-.548,0.931,0.931,0,0,0-.049.3,1.857,1.857,0,0,0,.341-0.1v0.05H1.9v0.05a0.793,0.793,0,0,1-.39.1l-0.049-.15a0.331,0.331,0,0,1,0-.3H0.878v0.2H0.585v-0.2H0.439v-0.1c0.14-.056.09-0.009,0.146-0.15a0.878,0.878,0,0,0-.244-0.149v0.3a1.384,1.384,0,0,0-.049.6H0.146V23.364h-0.1c-0.11-.282.194-0.338,0.1-0.648a8.572,8.572,0,0,1,0-1.7c0-.977-0.095-1.372-0.1-2.293,0.19,0,.172-0.133.146-0.449h0.1v0.7a6.214,6.214,0,0,1,.049,1.2,2.872,2.872,0,0,1,.341.3v-0.6a11.236,11.236,0,0,0,2.2-.648A3.777,3.777,0,0,1,2.2,17.68,26.8,26.8,0,0,1,.829,14.589h1.61a0.323,0.323,0,0,0,.2.05,2.456,2.456,0,0,1,.293-0.349,4.58,4.58,0,0,1-.341-0.947h-0.1a4.6,4.6,0,0,1-1.122.9v-0.05H1.317v-0.05c1-.667,2.262-2.27,3.951-1.2a2.7,2.7,0,0,1,.78.9l0.244,0.6h0.2a1.366,1.366,0,0,1,.293,0c0-1.152.395-2.087,0.439-3.141A0.981,0.981,0,0,1,6.927,11h0.1a4.783,4.783,0,0,0,2,.648,0.626,0.626,0,0,1,.341-0.3v0.1C8.832,11.813,8.636,13.506,8.634,14.44Zm-5.268,0v-0.2A4.843,4.843,0,0,0,4,14.041c0.062,0.006.213,0.176,0.293,0.2H5.024l-0.049-.648h0.1v0.3a0.543,0.543,0,0,1,.1.349H5.463V14.39h0.1a0.929,0.929,0,0,0,.537.05V14.29C5.89,14.052,5.8,13.7,5.61,13.443a2.075,2.075,0,0,0-2.2-.548,0.814,0.814,0,0,0-.683.449,11.62,11.62,0,0,1,.439,1.1h0.2Zm1.171-.05c-0.038.034-.109,0.065-0.146,0.1,0.184-.007.171,0.024,0.244-0.1h-0.1Zm4.146,0.349v0.1h0.1v-0.1h-0.1Zm19.9,0.748a1.609,1.609,0,0,1-.293.4h0.1c0.182-.269.316,0,0.683-0.1,0.337-.091.659-0.312,1.024-0.4v-0.05a0.569,0.569,0,0,0-.39.15A9.611,9.611,0,0,1,28.585,15.487Zm-0.439.15a0.244,0.244,0,0,0,.049.149,1.03,1.03,0,0,1,.293-0.2v-0.05h-0.1A0.326,0.326,0,0,1,28.146,15.636Zm-6.488.3a0.268,0.268,0,0,1,0,.3v-0.3Zm0.1,0a0.269,0.269,0,0,1,0,.3v-0.3Zm0.244,0a0.269,0.269,0,0,1,0,.3v-0.3Zm0.1,0a0.269,0.269,0,0,1,0,.3v-0.3Zm0.39,0.05v0.249H22.244v-0.3h0.049A0.324,0.324,0,0,0,22.488,15.985Zm5.659-.05a0.189,0.189,0,0,0,.146.1v-0.1A0.16,0.16,0,0,1,28.146,15.936Zm-6.293.05h0.1v0.249h-0.1A0.309,0.309,0,0,0,21.854,15.985Zm5.463,0.249a0.378,0.378,0,0,0-.1.3h0.049a0.587,0.587,0,0,0,.146-0.3h-0.1Zm-14.146.1a0.756,0.756,0,0,1-.39.05v0.1h0.049a0.755,0.755,0,0,1,.39-0.05A0.172,0.172,0,0,0,13.171,16.334Zm15.024,0,0.146,1.5a5.56,5.56,0,0,0,3.122.947,4.376,4.376,0,0,0,1.171.2,2.069,2.069,0,0,0-.146-0.8l-0.342-1.845H28.2Zm-7.073.15a0.181,0.181,0,0,1,.049.1H21.122v-0.1Zm6.39,0a0.566,0.566,0,0,1-.244.1l-0.146.4h0.049c0.071-.127-0.011-0.056.146-0.1v0.05a0.481,0.481,0,0,0-.1.249c0.3,0.017.3,0.138,0.39,0.349h0.049A1.654,1.654,0,0,0,27.512,16.484Zm-6.439.1a0.181,0.181,0,0,1,.049.1H21.073v-0.1Zm5.171,0c-0.008.015-.1,0.149-0.1,0.149C26.252,16.647,26.247,16.655,26.244,16.584Zm-14.683.748a1.836,1.836,0,0,0-.1-0.5h-0.2v0.1a1.718,1.718,0,0,1,.146.4h0.146Zm15.8-.05v0.2c0.118,0.045.078,0.053,0.2,0.1v-0.05A2.1,2.1,0,0,0,27.366,17.282ZM11.707,18.628a2.127,2.127,0,0,1-1.268.149v0.1a7.5,7.5,0,0,0,.976.249,2.045,2.045,0,0,0,.293-0.449h0.049v-0.05H11.707Zm20.634,0.4v0.3h0.146v-0.3H32.342Zm-21.8.05v0.1a0.311,0.311,0,0,0,.2-0.05Zm24.976,0.05-0.1.449a0.729,0.729,0,0,0,.2.1V19.126h-0.1Zm-2.829.15v0.1h0.049A0.172,0.172,0,0,0,32.683,19.276Zm3.512,0.8a2.551,2.551,0,0,0,1.073,1.246V21.27a0.439,0.439,0,0,0,.146-0.15A2.989,2.989,0,0,0,36.2,20.073Zm-35.854.3v0.1C0.42,20.413.4,20.451,0.341,20.372Zm0,0.3A4.64,4.64,0,0,0,.39,22.666V21.818H0.683v-1A0.409,0.409,0,0,0,.341,20.672Zm37.561,0.9a1.142,1.142,0,0,1,.537.05A1.143,1.143,0,0,1,37.9,21.569Zm0.537,0.05a0.148,0.148,0,0,1,0,.2v-0.2Zm-1.22.149v0.1c0.118,0.045.078,0.053,0.2,0.1,0.059-.123.086-0.077,0.146-0.2H37.22Zm-1.561.4c0.158-.041.075,0.024,0.146-0.1a0.576,0.576,0,0,1-.1-0.149H35.659v0.249Zm2.2-.249v0.1H37.9A0.172,0.172,0,0,0,37.854,21.918Zm-0.39.05a0.492,0.492,0,0,0,.293.249v-0.05A1.091,1.091,0,0,0,37.463,21.968Zm0.634,0.2c0.081,0.056.052,0.088,0.1,0H38.1ZM17.024,23.314a1.158,1.158,0,0,1-.537.05v0.05h0.1a2.668,2.668,0,0,0,.585,0v-0.05ZM36,23.364a0.631,0.631,0,0,0,.634.3v-0.1c-0.033-.038-0.064-0.111-0.1-0.149A1.159,1.159,0,0,0,36,23.364Zm-18.2.7a0.643,0.643,0,0,0-.049-0.2,4.484,4.484,0,0,1-.878-0.05v0.1a0.937,0.937,0,0,1,.146.249A2.57,2.57,0,0,1,17.8,24.062Zm-6.976-.1a0.194,0.194,0,0,0,.2.1v-0.1h-0.2Zm26.341,0,0.1,0.2h0.049A0.269,0.269,0,0,0,37.171,23.962Zm-0.293.2c0.061,0.078.031,0.025,0,.1a0.6,0.6,0,0,1-.2.2A1.03,1.03,0,0,1,36.878,24.161Zm-24.732.1-0.293.05v0.15a1.581,1.581,0,0,1,.146.3h0.049Zm-8.488.15A13.425,13.425,0,0,1,3.8,26.4H3.512v-0.1A5.951,5.951,0,0,0,3.659,24.411Zm7.366,0.05,0.049,0.2a137.1,137.1,0,0,0,.1-0.2H11.024Zm-3.659.2a0.92,0.92,0,0,0-.049.7A2.466,2.466,0,0,0,7.366,24.66Zm2.341,0.6a1.327,1.327,0,0,1-.146.548h0.1v-0.1A0.415,0.415,0,0,0,9.707,25.258Zm3.756,0.449a1.077,1.077,0,0,0,.1.249H13.61v-0.1H13.561A0.19,0.19,0,0,0,13.463,25.707Zm19.512,0a0.336,0.336,0,0,0,.146.3v0.05h0.049v-0.1A2.32,2.32,0,0,1,32.976,25.707Zm1.8,0.5a0.466,0.466,0,0,1-.2.149V26.4h0.1a0.485,0.485,0,0,1,.244-0.15v-0.05H34.781Zm-19.561.05a0.564,0.564,0,0,1-.146.1V26.4h0.1a0.565,0.565,0,0,1,.146-0.1A0.175,0.175,0,0,0,15.22,26.255Zm-7.268.05v0.1a0.893,0.893,0,0,0,.683.05A1.355,1.355,0,0,1,7.951,26.305Z" transform="translate(-0.031 0.516)"/>
</svg>
