<?xml version="1.0" encoding="utf-8"?>
<!-- Generator: Adobe Illustrator 16.0.0, SVG Export Plug-In . SVG Version: 6.00 Build 0)  -->
<!DOCTYPE svg PUBLIC "-//W3C//DTD SVG 1.1//EN" "http://www.w3.org/Graphics/SVG/1.1/DTD/svg11.dtd">
<svg version="1.1" id="Layer_1" xmlns="http://www.w3.org/2000/svg" xmlns:xlink="http://www.w3.org/1999/xlink" x="0px" y="0px"
	 width="39.969px" height="40px" viewBox="0 0 39.969 40" enable-background="new 0 0 39.969 40" xml:space="preserve">
<path id="Color_Fill_1" fill="#FFFFFF" d="M12.958,9.522v2.213h-2.116c-0.279-0.039-0.563-0.021-0.836,0.05
	c-0.128,0.043-0.235,0.133-0.3,0.252c-0.043-0.032-0.095-0.05-0.148-0.05v0.3H8.923v0.1c-0.032,0.044-0.049,0.097-0.049,0.151
	c0.117,0.116,0.181,0.283,0.3,0.4c0.419-0.305,0.885-0.542,1.378-0.7v0.1c0.167,0.294,0.269,0.62,0.3,0.956h0.2
	c-0.019-0.2-0.1-0.2,0.049-0.3l0.049,0.3c1.8-0.006,3.39,0.151,5.215,0.151c1.771-0.081,3.545-0.064,5.314,0.05v0.3
	c-0.983,0.068-1.969,0.085-2.953,0.05c-1.4,0-2.9,0.028-4.231,0.05v0.05c0.04,0.096,0.04,0.204,0,0.3
	c-0.572,0.099-1.157,0.082-1.722-0.05c0.001,0.055-0.017,0.107-0.049,0.151c-0.272,0.075-0.557,0.092-0.836,0.05
	c-0.07-0.092-0.189-0.132-0.3-0.1c-0.029,0.081-0.046,0.166-0.049,0.252c0.263,0.598,0.46,1.222,0.59,1.861v0.05
	c-0.111-0.1-0.218-0.225-0.344,0h-0.058v0.057h1.181c0.416,0.113,0.85,0.147,1.279,0.1c0.028-0.267,0.15-0.515,0.344-0.7
	c0.1-0.011,0.2-0.011,0.3,0c0.014,0.087,0.069,0.161,0.148,0.2c0.072-0.132,0.198-0.224,0.345-0.252v0.05
	c-0.1,0.064-0.184,0.15-0.246,0.252l1.033,0.2l0.935,0.05c0.387,0.095,0.788,0.112,1.181,0.05c0.121-0.086,0.253-0.153,0.394-0.2
	v0.05h-0.053c-0.106,0.076-0.207,0.16-0.3,0.251c0.158,0.057,0.326,0.074,0.492,0.05c0.2,0.156,0.312,0.4,0.3,0.654h0.2
	c0.324-0.741,0.719-1.449,1.181-2.112c-0.046-0.154-0.1-0.189-0.148-0.352c0.394-0.094,0.7-0.405,0.787-0.8h0.049v0.151
	c-0.118,0.128-0.202,0.284-0.246,0.453c0.481,0.124,0.979,0.175,1.476,0.151c0.352-0.106,0.724-0.123,1.082-0.05
	c-0.012-0.365-0.096-0.724-0.246-1.056h0.05v-0.061c0.099,0.027,0.202,0.027,0.3,0c-0.008,0.119-0.024,0.236-0.049,0.353
	c0.1,0.382,0.324,0.476,0.836,0.453c0.391,0.06,0.787,0.076,1.182,0.05c0.037-0.082,0.07-0.167,0.1-0.252h0.049
	c0.02,0.271,0.066,0.26,0.344,0.252c0.066-0.377,0.166-0.748,0.301-1.106c0.053,0.001,0.105-0.017,0.147-0.05
	c0.026-0.027,0.044-0.063,0.049-0.1c-0.165,0.027-0.335,0.01-0.492-0.05c-0.036-0.06-0.054-0.13-0.049-0.2
	c0.032-0.063,0.032-0.137,0-0.2h0.049c0.032,0.029,0.063,0.069,0.101,0.1c0.179-0.35,0.959-0.243,1.476-0.251
	c0.009-0.13,0.062-0.254,0.147-0.352v-2.167c-0.053-0.353-0.041-0.711,0.035-1.059v3.269c0.045,0.187,0.151,0.272,0.199,0.453
	c1.289,0.157,2.598-0.034,3.788-0.553c0.052-0.317,0.085-0.636,0.101-0.956h0.142c0.022,0.152,0.146,0.253,0.147,0.352
	c0.049,0.849,0.18,1.691,0.395,2.515l0.1,0.855c0.15,0.525,0.251,1.064,0.301,1.609c0.086,0.064,0.191,0.099,0.3,0.1
	c0.64,0.188,1.302,0.29,1.968,0.3v-1.05h0.1v0.1c0.084,0.153,0.118,0.327,0.101,0.5h0.229c-0.02,0.267-0.02,0.534,0,0.8l0.246,0.299
	h0.049v-0.049c0.056-0.032,0.094-0.088,0.101-0.151c-0.137-0.061-0.218-0.204-0.2-0.352h0.1c0.444,0.563,0.938,1.084,1.477,1.559
	c0.167,0.116,0.303,0.271,0.395,0.452h-0.05c-0.068-0.15-0.231-0.232-0.394-0.199v0.05h-0.049v0.101
	c0.137,0.092,0.254,0.212,0.344,0.352h0.049v-0.05c0.033-0.039,0.064-0.112,0.1-0.151c0.006,0.068,0.022,0.137,0.049,0.2
	c0.15-0.022,0.303-0.005,0.443,0.05c-0.102-0.002-0.204,0.015-0.3,0.05v0.101c0.446,0.095,0.101,0.406,0.492,0.5l0.2-0.252h0.05
	v0.051l0.147,0.1v0.1c-0.101,0.051-0.174,0.143-0.199,0.253c0.504,0.343,0.773,0.965,1.278,1.308v0.05H39.92
	c-0.344,0.62-1.49,0.423-2.411,0.4c-0.128-0.216-0.315-0.39-0.541-0.5c-0.024,0.041-0.06,0.075-0.1,0.1v-0.1
	c0.04-0.024,0.075-0.06,0.1-0.101c-0.128-0.063-0.244-0.147-0.344-0.25c-0.132-0.006-0.259,0.049-0.345,0.15
	c0.147,0.163,0.164,0.42,0.301,0.6c0.077-0.12,0.18-0.223,0.3-0.3v0.101c-0.551,0.388-0.026,0.591-0.2,1.308
	c-0.102,0.504-0.303,0.982-0.59,1.408c-0.92,1.127-2.58,1.294-3.707,0.374c-0.639-0.521-0.996-1.311-0.967-2.135
	c-0.8,0.088-1.756,0.054-2.559,0.151v-0.237h-2.172l-0.541,0.051c-0.553-0.095-1.116-0.111-1.674-0.051
	c-0.324,0.056-0.654,0.072-0.984,0.051c-0.043,0.013-0.191,0.14-0.245,0.15c-0.075,0.016-1.2,0.015-1.279,0
	c-0.208-0.121-0.449-0.174-0.688-0.15c-0.045,0.013-0.191,0.14-0.246,0.15c-0.075,0.016-1.2,0.015-1.279,0
	c-0.124-0.051-0.239-0.117-0.344-0.199h-1.329V22.55c-0.1-0.167-0.151-0.358-0.148-0.553l-0.738,0.05
	c-0.033,0.097-0.049,0.198-0.049,0.301c0.332,0.521-0.236,1.615-0.394,1.86c-0.425,0.68-1.126,1.14-1.919,1.257
	c-1.234,0.284-2.327-0.929-2.657-1.66c-0.177-0.358-0.246-0.76-0.2-1.156h-0.1c-0.26,0.048-0.524,0.064-0.787,0.05
	c0.064,1.459-1.067,2.694-2.527,2.758c-0.381,0.017-0.761-0.049-1.114-0.193c-0.641-0.298-1.136-0.841-1.373-1.507
	c-0.237-0.667-0.237-1.395,0-2.063c-0.244-0.014-0.456-0.171-0.541-0.399H5.479v0.252H5.086v0.3H3.708
	c0,0.726,0.041,1.454,0.049,2.112H3.511l0.148-2.114h-0.3c-0.408-0.514-1.018-0.825-1.673-0.854c-0.063,0.087-0.098,0.192-0.1,0.3
	c0.183-0.03,0.162-0.066,0.344-0.1v0.05c-0.083,0.104-0.211,0.161-0.344,0.151c-0.188-0.063-0.193-0.101-0.2-0.353
	c0.026-0.027,0.044-0.063,0.049-0.101H1.297c-0.146,0.031-0.297,0.031-0.443,0v0.2c-0.1,0.016-0.201,0.016-0.3,0
	c-0.042-0.104-0.091-0.204-0.148-0.3h0.153v-0.15c-0.073-0.063-0.156-0.114-0.246-0.15v0.352c-0.058,0.179-0.075,0.367-0.049,0.553
	H0.117v-0.553h-0.1c-0.112-0.285,0.221-0.349,0.1-0.654c-0.062-0.5-0.062-1.008,0-1.508c0-1.035-0.095-1.486-0.1-2.415h0.152v-0.5
	h0.1v0.704c0.053,0.397,0.068,0.799,0.044,1.2c0.144,0.044,0.256,0.156,0.3,0.3h0.045v-0.6c0.741-0.147,1.466-0.367,2.165-0.654
	c-0.322-0.449-0.541-0.965-0.64-1.509c-0.525-1.009-0.985-2.049-1.378-3.116h1.673c0.174-0.025,0.332-0.115,0.443-0.252
	c-0.2-0.268-0.187-0.741-0.394-1.006c-0.397,0.294-0.775,0.613-1.132,0.956H1.347c-0.005-0.038-0.022-0.073-0.049-0.1
	c0.585-0.72,1.374-1.246,2.263-1.509v-0.7h3.493v-0.05h0.049l0.1-0.553c-0.137-0.102-0.241-0.24-0.3-0.4h0.1
	C7.606,8.914,8.302,9.139,9.02,9.177c0.062-0.121,0.17-0.211,0.3-0.251v0.1c-0.183,0.108-0.309,0.291-0.344,0.5h3.985L12.958,9.522z
	 M3.458,10.377C3.136,10.429,2.86,10.636,2.72,10.93c0.213,0.293,0.231,0.777,0.443,1.056c0.038-0.004,0.073-0.022,0.1-0.05
	c0.151-0.052,0-0.144,0.344-0.151v-0.05c-0.166-0.294,0.128-1.171-0.145-1.358H3.458z M4.299,11.735
	c0.222,0.084,0.467,0.084,0.689,0H4.299z M5.135,11.735c0.128,0.1,0.734,0.4,0.886,0.151c-0.102-0.007-0.193-0.063-0.246-0.151
	H5.135z M4.495,11.987c0.027,0.027,0.062,0.045,0.1,0.05C4.568,12.01,4.533,11.992,4.495,11.987L4.495,11.987z M8.677,12.287v0.1
	h0.05v-0.05h0.049C8.749,12.311,8.714,12.293,8.677,12.287L8.677,12.287z M29.686,12.887c0,0.055,0.018,0.107,0.049,0.151
	c0.074-0.052,0.158-0.086,0.246-0.1v-0.05h-0.299L29.686,12.887z M28.702,12.987c-0.06,0.038-0.13,0.056-0.2,0.05
	c0.021,0.208-0.118,0.175-0.246,0.352h0.1c0.071-0.1,1.047-0.164,1.279-0.352L28.702,12.987z M28.309,13.087
	c-0.049,0.046-0.289,0.123-0.201,0.151v0.05h-0.045c-0.095,0.039,0.101,0.05,0.101,0.05c0.06-0.09,0.146-0.159,0.246-0.2
	c-0.028-0.025-0.063-0.041-0.101-0.045V13.087z M21.715,13.487c0.061,0.091,0.061,0.209,0,0.3V13.487z M21.814,13.487h0.201v0.3
	h-0.201V13.487z M22.061,13.487c0.061,0.091,0.061,0.209,0,0.3V13.487z M22.161,13.487h0.246c0.029,0.081,0.046,0.166,0.049,0.251
	c-0.097,0.034-0.198,0.05-0.3,0.05v-0.3L22.161,13.487z M28.161,13.487v0.1h0.049v-0.041h0.049
	c-0.026-0.027-0.061-0.045-0.098-0.051V13.487z M21.52,13.537c-0.006,0.07,0.012,0.14,0.049,0.2
	c0.003-0.067-0.014-0.134-0.049-0.191V13.537z M21.863,13.537v0.2h0.1v-0.2H21.863z M27.227,13.789
	c-0.03,0.081-0.047,0.165-0.05,0.251h0.05c0.054-0.074,0.088-0.16,0.1-0.251H27.227z M32.098,13.889
	c-1.313,0.077-2.627,0.061-3.937-0.05v0.553c0.155,0.265,0.028,0.765,0.2,1.006c0.757,0.461,1.59,0.785,2.459,0.956
	c0.595,0.027,1.187,0.094,1.771,0.2v-0.2c-0.246-0.8-0.411-1.623-0.494-2.456V13.889z M13.155,13.889
	c-0.08,0.051-0.314,0.048-0.394,0.1c0.118,0.016,0.575-0.04,0.394-0.091V13.889z M27.227,14.744h0.199
	c0.035,0.123,0.084,0.241,0.148,0.352h0.049c-0.012-0.257-0.087-0.61-0.1-1.056h-0.2c-0.119,0.146-0.204,0.316-0.246,0.5h0.049
	c0.042-0.146,0.013,0.009,0.147-0.1v0.151c-0.033,0.047-0.05,0.104-0.047,0.162V14.744z M11.236,14.392
	c0.02,0.143,0.07,0.279,0.148,0.4c0.043,0.032,0.095,0.05,0.148,0.05v-0.05c-0.049-0.129-0.083-0.263-0.1-0.4h-0.2H11.236z
	 M20.781,14.692c0.055,0.055,0.145,0.056,0.199,0c0,0,0,0,0,0H20.781z M27.325,14.843c0,0.1,0.036,0.316,0.147,0.151
	c-0.052-0.044-0.102-0.091-0.147-0.141V14.843z M11.63,16.216c-0.395,0.136-0.818,0.17-1.23,0.1v0.1
	c0.457,0.083,0.868,0.452,1.181,0C11.636,16.365,11.656,16.286,11.63,16.216z M11.63,16.568v0.1c-0.016,0.071,0.002,0.145,0.049,0.2
	v-0.052c0.041-0.077,0.058-0.165,0.049-0.252h-0.1L11.63,16.568z M32.294,16.568v0.3h0.101v-0.3H32.294z M10.494,16.618
	c0.04,0.071,0.119,0.11,0.2,0.1v-0.05c-0.068-0.006-0.134-0.024-0.196-0.052L10.494,16.618z M35.395,16.718l-0.05,0.4
	c0.062,0.043,0.129,0.077,0.2,0.1v-0.502h-0.152L35.395,16.718z M36.131,17.616c-0.025,0.063-0.042,0.131-0.049,0.2
	c0.335,0.38,0.715,0.718,1.132,1.006c0.024-0.041,0.06-0.075,0.101-0.1c-0.026-0.064-0.043-0.132-0.049-0.201
	C36.955,18.143,36.568,17.834,36.131,17.616z M0.313,17.916v0.1c0.08-0.054,0.056-0.015,0-0.095V17.916z M0.313,18.216
	c-0.127,0.649-0.11,1.319,0.049,1.962c-0.062-0.27-0.026-0.553,0.1-0.8c0.06-0.038,0.13-0.056,0.2-0.05v-0.954
	c-0.085-0.104-0.215-0.16-0.349-0.151V18.216z M38.345,19.172h-0.54v-0.05h0.049c0.141-0.054,0.293-0.071,0.442-0.05
	c0.027,0.027,0.062,0.045,0.101,0.05v0.252h-0.101v-0.05c0.03-0.043,0.048-0.093,0.049-0.146V19.172z M37.164,19.323
	c0.037,0.08,0.112,0.137,0.2,0.151c0.029-0.057,0.085-0.094,0.147-0.101v-0.05h-0.343L37.164,19.323z M35.59,19.475v0.199h0.049
	v0.051h0.101v-0.101h-0.05c-0.009-0.061-0.045-0.114-0.1-0.144V19.475z M37.41,19.475v0.1l0.3,0.199
	c-0.074-0.12-0.177-0.221-0.299-0.293L37.41,19.475z M38,19.674c0.082,0.057,0.053,0.089,0.1,0H38z M16.45,20.881
	c0.052,0.082,0.151,0.122,0.246,0.1c0.091-0.057,0.352-0.041,0.443-0.1H16.45L16.45,20.881z M35.934,20.881
	c0.133,0.221,0.385,0.338,0.64,0.301v-0.051c-0.034-0.039-0.065-0.111-0.101-0.15c-0.165-0.086-0.354-0.117-0.537-0.092
	L35.934,20.881z M16.942,21.334c-0.037,0.044-0.062,0.057-0.1,0.1c0.12,0.175,0.337,0.255,0.541,0.2
	c0.125-0.051,0.261-0.068,0.394-0.05v-0.1H17.73v-0.051c-0.332,0-0.428-0.084-0.787-0.093L16.942,21.334z M10.792,21.484
	c0.04,0.071,0.119,0.111,0.2,0.101v-0.101H10.792z M11.825,21.837c0.023,0.136,0.056,0.27,0.1,0.399h0.1l0.1-0.452h-0.156
	c-0.04,0.034-0.09,0.056-0.143,0.06L11.825,21.837z M10.989,21.988l0.049,0.199h0.049c0.006-0.068,0.022-0.136,0.049-0.199H10.989
	L10.989,21.988z M7.299,22.24l-0.1,0.6h0.1v-0.1c-0.017-0.174,0.018-0.348,0.1-0.5H7.299z M9.661,22.793
	c-0.006,0.188-0.04,0.375-0.1,0.553h0.051v-0.1C9.72,23.122,9.74,22.944,9.661,22.8V22.793z M13.4,23.246l0.1,0.2h0.049v-0.101
	c-0.042-0.041-0.092-0.072-0.148-0.093L13.4,23.246z M32.883,23.246l0.148,0.3h0.1v-0.05c-0.105-0.067-0.146-0.165-0.247-0.243
	L32.883,23.246z M34.703,23.746c-0.063,0.085-0.135,0.117-0.2,0.2h0.049c0.073-0.063,0.157-0.114,0.246-0.151
	c-0.026-0.021-0.059-0.035-0.093-0.039L34.703,23.746z M15.169,23.807c-0.044,0.04-0.094,0.074-0.148,0.1v0.05h0.1
	c0.029-0.056,0.085-0.093,0.148-0.101v-0.049H15.169z M7.887,23.855c0.181,0.18,0.449,0.238,0.689,0.151
	C8.341,23.99,8.11,23.939,7.89,23.855H7.887z"/>
</svg>
