<svg xmlns="http://www.w3.org/2000/svg" width="40" height="40" viewBox="0 0 40 40">
  <defs>
    <style>
      .cls-1 {
        fill: #fff;
        fill-rule: evenodd;
      }
    </style>
  </defs>
  <path id="Color_Fill_1" data-name="Color Fill 1" class="cls-1" d="M19.9,18.988V18.84h0.4a0.239,0.239,0,0,0,.049.148,3.925,3.925,0,0,0,1.436.049,1.646,1.646,0,0,0,.693.049,0.508,0.508,0,0,1,.5-0.395c0.02,0.022.3,0.395,0.3,0.395h1.98v0.938h0.1a1.338,1.338,0,0,1,.743-0.3V19.185l0.3,0.049v0.148a1.92,1.92,0,0,0,0,1.037c0.276-.076.793,0.1,1.139,0.049a23.309,23.309,0,0,1,3.614.049v0.3h3.069a5.18,5.18,0,0,1,2.03-.148,2.429,2.429,0,0,1,.05.691h0.049c0.049,0.05-.049.049-0.049,0.049a2.272,2.272,0,0,1-1.386.148,19.982,19.982,0,0,0-3.762-.2V21.6a27.015,27.015,0,0,1-4.8.148V22.1h-0.2a0.9,0.9,0,0,1-.05-0.3L25.3,21.753a4.069,4.069,0,0,0-.4.444l-0.644.148c-0.173.073-.384,0.28-0.544,0.346-0.217.089-.326-0.084-0.446,0.1a0.779,0.779,0,0,1,.05.4h0.1c0-.221,0-0.271.149-0.346a2.554,2.554,0,0,1,.99-0.049v-0.2a9.49,9.49,0,0,1,2.277.148c0.263,0.066.609-.1,0.792-0.049a6.253,6.253,0,0,0,2.277.148,1.14,1.14,0,0,1,.346.1c0.164,0.037.468-.1,0.693-0.049a2.973,2.973,0,0,1,.3.2v-0.1h0.049a0.658,0.658,0,0,0-.1-0.2h0.149a0.919,0.919,0,0,0,.446.049,0.239,0.239,0,0,0,.05.148,1.857,1.857,0,0,0,.3.1V22.84a8.756,8.756,0,0,1,2.079.2,0.578,0.578,0,0,1,.1.247,0.456,0.456,0,0,1-.248.148,0.179,0.179,0,0,0-.1-0.049v0.049a1.253,1.253,0,0,1,.4.642,1.6,1.6,0,0,1,.891.247,1.042,1.042,0,0,0-.2.3A17.05,17.05,0,0,1,36.832,25.9c0.079,0.12.082,0.342,0.149,0.445a0.17,0.17,0,0,0,.1-0.049c0.085-.15-0.055-0.239.248-0.3,0.191,0.175.457,0.271,0.644,0.444v2.025c-0.04.133-.148,0.2-0.2,0.346,0.825,0.111,1.445.814,2.228,1.037v0.1a4.507,4.507,0,0,0-2.178.642v0.1a1.081,1.081,0,0,1,.445.494H35.545a0.883,0.883,0,0,0-.99-0.543,3.079,3.079,0,0,1-6.139.494,9.333,9.333,0,0,1-1.188-.346H20.2a1.235,1.235,0,0,0-.05.4H19.654a3.093,3.093,0,0,1-4.7,2.272,3.406,3.406,0,0,1-1.188-1.432,5.773,5.773,0,0,0-.2-0.79,0.919,0.919,0,0,0-.446-0.049v0.049h-0.05A3.073,3.073,0,0,1,9.109,33.8,3.226,3.226,0,0,1,6.98,31.037c-0.4-.123-0.64-0.459-1.04-0.593v0.049a1.248,1.248,0,0,1,.5.593,1.136,1.136,0,0,0-.347.3H6.337a0.335,0.335,0,0,1,.2-0.049v0.148l-1.238.2V31.531a0.892,0.892,0,0,0,.446-0.1,0.924,0.924,0,0,0,.5-0.444H6.188A4.564,4.564,0,0,0,5.5,30.1c-0.052-.052-0.2-0.043-0.248-0.1V29.8A5.045,5.045,0,0,0,4.6,29.161l0.05-.148c0.093-.031.3-0.066,0.4-0.1a0.9,0.9,0,0,1-.05-0.3H4.851c0-.692.011-1.166-0.049-1.975a3.755,3.755,0,0,0-1.04.049V22.3H4.406V22.2a0.415,0.415,0,0,0-.149-0.1c-0.081-.05-0.316-0.047-0.4-0.1a0.178,0.178,0,0,1-.05-0.1,1.574,1.574,0,0,0,.644-0.1V21.753L3.515,21.7V21.556a2.424,2.424,0,0,0,.941,0c-0.135-.079-0.041.008-0.05-0.148a1.961,1.961,0,0,1,.4-0.049l-0.842-4.2c-0.649-.049-1.7-0.049-2.772-0.049A3.277,3.277,0,0,1,0,17.062a3.007,3.007,0,0,0,.842-0.346c0.677-.281,1.344-0.515,1.98-0.79a4.193,4.193,0,0,0,.842-0.3V15.185c0.206-.142-0.008-0.3.2-0.444v0.1a6.666,6.666,0,0,1,.347,1.827L5.1,21.358c0.227,0.018.3,0.029,0.347,0.247a0.17,0.17,0,0,0-.1.049H6.04c0.041,0.16-.024.076,0.1,0.148-0.051-.192-0.049-0.26.2-0.3a0.14,0.14,0,0,0,.05.049,0.708,0.708,0,0,1-.05.247c0.961,0.1,2.132,0,3.069.2l1.139-.049c0.771,0.28,1.3.978,2.079,1.235a4.027,4.027,0,0,1,.05-0.494,9.5,9.5,0,0,0-.99-0.79l-2.871-.1a3.65,3.65,0,0,0-.99-0.148,6.281,6.281,0,0,0-.1-1.482c-0.035-.143.078-0.055,0.1-0.148a0.849,0.849,0,0,0-.1-0.691c0.132-.149.1-0.2,0-0.346L8.96,19.037c0.077,0.127.02,0.467,0.1,0.593a1.468,1.468,0,0,1,.05-0.642,12.522,12.522,0,0,0,2.03.049l0.05-.148c0.226-.1.23,0.11,0.3,0.148a2.774,2.774,0,0,0,.792,0,17.071,17.071,0,0,0,.149-3.8,1.244,1.244,0,0,1,.4-0.049c0,1.218.037,2.513,0.05,3.654a0.762,0.762,0,0,0,.3.1c0.061-.153.019-0.112,0.2-0.148a1.184,1.184,0,0,1,.1-0.79,0.538,0.538,0,0,1,.3-0.049,2.153,2.153,0,0,0,.594.148,3.958,3.958,0,0,1,.446.247c0.315,0.13,1.535-.027,1.931.049v0.1a0.426,0.426,0,0,0-.05.247l0.742,0.049a5.644,5.644,0,0,1,.446-1.136h0.594a0.412,0.412,0,0,0,.05.247V6.938A2.507,2.507,0,0,1,18.564,6V17.852a2.517,2.517,0,0,1,.1.691,0.3,0.3,0,0,1,.1.1l0.5-.1v0.049h-0.05a0.431,0.431,0,0,1-.3.247v0.1h0.445A1.2,1.2,0,0,0,19.9,18.988Zm-7.228-3.7v0.1h0.05A0.17,0.17,0,0,0,12.673,15.284Zm10.149,3.605a0.741,0.741,0,0,0-.1.2h0.346V19.037A0.532,0.532,0,0,0,22.822,18.889Zm-14.7.2v0.691H8.812a2.687,2.687,0,0,0,.1-0.691H8.119Zm0.99,0a3.155,3.155,0,0,1,0,.494,1.065,1.065,0,0,0,.347.049,5.72,5.72,0,0,1,1.535-.3V19.086H9.109Zm2.525,0v0.1c0.177-.021.125,0.023,0.2-0.1h-0.2Zm10.2,0.049v0.1l0.544,0.049v-0.1h-0.05V19.136H21.832Zm1.238,0.2V19.185l-0.3-.049v0.049h-0.05a0.169,0.169,0,0,0,.05.1A0.537,0.537,0,0,0,23.069,19.333Zm0.248-.148a0.238,0.238,0,0,0,.049.148,6.963,6.963,0,0,0,1.782.049V19.136A17.772,17.772,0,0,1,23.317,19.185Zm-15.148.148a1.628,1.628,0,0,1,.693.049A1.627,1.627,0,0,1,8.168,19.333Zm1.04,0a3.293,3.293,0,0,1,1.238.049A3.294,3.294,0,0,1,9.208,19.333Zm14.307,0.1a0.27,0.27,0,0,0,.2.148,0.3,0.3,0,0,1,.1-0.1V19.432h-0.3Zm1.634,0.247V19.432H24.356v0.049A1.05,1.05,0,0,0,25.149,19.679Zm-1.238-.148a0.582,0.582,0,0,1-.248.1v0.049h0.742V19.63A0.878,0.878,0,0,0,23.911,19.531Zm0.792,0.2a1.291,1.291,0,0,0,.4.346c0.048,0.012.019,0.039,0.049,0a3.22,3.22,0,0,1,.05-0.346H24.7Zm10.149,1.086v0.543h0.3V20.815h-0.3Zm0.544,0v0.494a1.832,1.832,0,0,0,.545.049V20.815H35.4Zm-27.277.642v0.1h0.05v-0.1H8.119Zm-4.307.889v0.593H4.455l-0.05-.593H3.812Zm0.05,0.247a1.043,1.043,0,0,1,.5.049A1.043,1.043,0,0,1,3.861,22.593Zm19.654,0.593a1.28,1.28,0,0,0,.742-0.247V22.889H23.564v0.1A0.332,0.332,0,0,0,23.515,23.185Zm-19.7-.2v0.2H4.455v-0.2H3.812Zm0,0.247v0.247H4.5a0.689,0.689,0,0,1,0-.247H3.812Zm0,0.3v0.494a4.409,4.409,0,0,0,.594,0,0.451,0.451,0,0,1,.1-0.494H3.812Zm0,1.679H4.653V24.963a1.929,1.929,0,0,1-.792-0.049H4.653L4.6,24.667a0.771,0.771,0,0,1-.4-0.049H4.6V24.37a0.643,0.643,0,0,1-.347-0.049,0.523,0.523,0,0,0,.3-0.049H4.6V24.222l-0.792-.148V25.21Zm0.5-1.136a0.179,0.179,0,0,0,.1.049A0.178,0.178,0,0,0,4.307,24.074Zm-0.4.2a0.416,0.416,0,0,1,.248.049A0.416,0.416,0,0,1,3.911,24.272Zm-0.05.346a0.239,0.239,0,0,1,.149.049A0.24,0.24,0,0,1,3.861,24.617Zm-0.05.642v0.2a1.926,1.926,0,0,1,.792.049H3.812v0.247h0.05c0.064-.122-0.021-0.034.1-0.1,0.019,0.125-.029.078,0.149,0.1a0.14,0.14,0,0,1,.05-0.049V25.654a0.32,0.32,0,0,1-.2-0.049L4.7,25.556v-0.3H3.812Zm0,0.543a0.413,0.413,0,0,0,.05.247A0.412,0.412,0,0,0,3.812,25.8Zm0.1,0a0.413,0.413,0,0,0,.049.247A0.412,0.412,0,0,0,3.911,25.8Zm-0.1.79H4.8V26.4a3.462,3.462,0,0,0-.941-0.049,0.412,0.412,0,0,0-.05-0.247v0.494Zm0.1-.3c0.186-.007.174,0.023,0.248-0.1a0.312,0.312,0,0,1-.248-0.1v0.2Zm33.366,0.049v0.1c0.431,0.106.32,0.766,0.3,1.284-0.116.085-.141,0.207-0.248,0.3a0.426,0.426,0,0,0-.3.4,1.2,1.2,0,0,1,.346.2,0.3,0.3,0,0,0,.248-0.2,7.438,7.438,0,0,0,.049-1.877A1.441,1.441,0,0,0,37.277,26.346ZM4.752,29.062a0.625,0.625,0,0,0,.05.2,0.17,0.17,0,0,0,.1-0.049,0.252,0.252,0,0,0,.05-0.148h-0.2Zm30.941,0.445,0.05,0.148h0.049V29.506h-0.1Zm-1.188,1.086H35.05V29.852h-0.1A0.985,0.985,0,0,0,34.505,30.593Z" transform="translate(0 0.016)"/>
</svg>
