<?xml version="1.0" encoding="utf-8"?>
<!-- Generator: Adobe Illustrator 16.0.0, SVG Export Plug-In . SVG Version: 6.00 Build 0)  -->
<!DOCTYPE svg PUBLIC "-//W3C//DTD SVG 1.1//EN" "http://www.w3.org/Graphics/SVG/1.1/DTD/svg11.dtd">
<svg version="1.1" id="Layer_1" xmlns="http://www.w3.org/2000/svg" xmlns:xlink="http://www.w3.org/1999/xlink" x="0px" y="0px"
	 width="40px" height="40px" viewBox="0 0 40 40" enable-background="new 0 0 40 40" xml:space="preserve">
<path id="Color_Fill_1" fill="#FFFFFF" d="M19.9,12.988V12.84h0.4c0,0.053,0.017,0.105,0.049,0.148
	c0.471,0.104,0.958,0.121,1.436,0.049v0.049h0.05v0.148l0.595,0.049c-0.014-0.211,0.105-0.408,0.299-0.494
	c0.065-0.066,0.155-0.103,0.248-0.1c0.168,0.354,0.424,0.661,0.743,0.889c0.123-0.172,0.339-0.252,0.544-0.2
	c0.17,0.238,0.414,0.412,0.693,0.494c0,0.054,0.017,0.106,0.049,0.148c0.037,0.043,0.063,0.056,0.1,0.1
	c0.303-0.193,0.639-0.328,0.99-0.4v-0.535l0.301,0.049v0.148c-0.096,0.339-0.096,0.698,0,1.037c0.275-0.076,0.793,0.1,1.139,0.049
	c1.204-0.077,2.412-0.061,3.613,0.049v0.3h3.069c0.634-0.14,1.282-0.206,1.931-0.2c0.137,0.222,0.189,0.484,0.149,0.741h0.05
	c0.049,0.05-0.05,0.049-0.05,0.049c-0.435,0.193-0.92,0.245-1.386,0.148c-1.245-0.186-2.505-0.252-3.762-0.2V15.6
	c-1.593,0.191-3.199,0.241-4.801,0.147V16.1H26.15c-0.034-0.097-0.051-0.198-0.051-0.3l-0.8-0.047
	c-0.144,0.138-0.277,0.286-0.399,0.443l-0.645,0.148c-0.173,0.072-0.384,0.279-0.544,0.346c-0.217,0.089-0.326-0.084-0.446,0.1
	c0.052,0.127,0.069,0.265,0.051,0.4h0.1c0-0.221,0-0.271,0.148-0.346c0.324-0.081,0.66-0.098,0.99-0.049v-0.201
	c0.763-0.042,1.527,0.008,2.277,0.148c0.263,0.066,0.609-0.1,0.792-0.049c0.743,0.188,1.515,0.238,2.276,0.148
	c0.121,0.015,0.237,0.049,0.347,0.1c0.164,0.037,0.468-0.1,0.692-0.049c0.104,0.061,0.205,0.127,0.301,0.199v-0.1h0.049
	c-0.021-0.072-0.056-0.139-0.1-0.199h0.148c0.143,0.053,0.296,0.069,0.446,0.049c-0.001,0.053,0.017,0.105,0.05,0.147
	c0.098,0.042,0.197,0.075,0.3,0.101v-0.252c0.698-0.016,1.396,0.051,2.079,0.201c0.053,0.072,0.086,0.157,0.1,0.246
	c-0.064,0.075-0.15,0.127-0.248,0.148c-0.027-0.027-0.062-0.044-0.1-0.049v0.049c0.196,0.168,0.336,0.392,0.4,0.642
	c0.314-0.007,0.625,0.079,0.891,0.247c-0.084,0.088-0.151,0.189-0.199,0.301c0.618,0.387,1.211,0.813,1.775,1.275
	c0.079,0.12,0.082,0.342,0.148,0.445c0.039-0.005,0.074-0.022,0.101-0.049c0.085-0.15-0.056-0.239,0.248-0.301
	c0.19,0.176,0.457,0.271,0.644,0.444v2.025c-0.039,0.133-0.147,0.201-0.199,0.346c0.824,0.111,1.444,0.814,2.228,1.037v0.1
	c-0.769,0.025-1.519,0.246-2.178,0.643v0.1c0.196,0.115,0.353,0.287,0.444,0.494h-2.723c-0.183-0.184-0.35-0.381-0.5-0.592
	c0.035-0.252,0.001-0.508-0.1-0.742c-0.255,0.166-0.419,0.439-0.445,0.742c0.4,0.627-0.547,2.072-0.792,2.32
	c-0.403,0.439-0.915,0.764-1.485,0.938c-1.668,0.398-3.344-0.631-3.742-2.299c-0.032-0.139-0.056-0.277-0.069-0.416
	c-0.403-0.09-0.8-0.205-1.188-0.348H20.2c-0.039,0.131-0.056,0.266-0.05,0.4h-0.496c-0.198,1.697-1.733,2.912-3.43,2.715
	c-0.45-0.053-0.884-0.203-1.27-0.441c-0.521-0.359-0.933-0.855-1.188-1.434c-0.048-0.268-0.115-0.531-0.2-0.789
	c-0.142-0.053-0.295-0.07-0.446-0.049v0.049h-0.05c-0.207,1.686-1.74,2.883-3.425,2.676c-0.182-0.021-0.361-0.061-0.536-0.113
	c-1.189-0.426-2.021-1.506-2.129-2.764c-0.4-0.123-0.64-0.459-1.04-0.594v0.049c0.226,0.141,0.401,0.348,0.5,0.594
	c-0.135,0.076-0.253,0.178-0.347,0.301h0.244c0.06-0.037,0.13-0.055,0.2-0.049v0.146l-1.238,0.201v-0.154
	c0.155,0.006,0.309-0.029,0.446-0.1c0.216-0.08,0.395-0.24,0.5-0.445H6.188C5.996,24.664,5.765,24.367,5.5,24.1
	c-0.052-0.051-0.2-0.043-0.248-0.1v-0.199C5.055,23.568,4.836,23.354,4.6,23.16l0.05-0.146c0.093-0.031,0.3-0.066,0.4-0.102
	C5.017,22.816,5,22.715,5,22.613H4.851L4.8,22.074c0.034-0.1,0.16,0.006,0.149-0.199c-0.026-0.475-0.142-0.98-0.149-1.53
	c-0.264,0.04-0.532,0.024-0.79-0.045c0.161-0.041,0.076,0.023,0.149-0.101H3.96v-0.446c0.069-0.006,0.137-0.022,0.2-0.05v-0.05
	c-0.07,0.006-0.141-0.011-0.2-0.049l0.74-0.049l-0.146-1.383H4.406c0.071-0.691,0.054-1.389-0.05-2.074
	c-0.17-0.01-0.339-0.044-0.5-0.1c-0.027-0.027-0.044-0.063-0.05-0.101c0.219,0.012,0.438-0.022,0.644-0.101v-0.045L3.515,15.7
	v-0.144c0.311,0.061,0.63,0.061,0.941,0c-0.135-0.079-0.041,0.008-0.05-0.148c0.131-0.029,0.265-0.047,0.4-0.049l-0.842-4.2
	c-0.785,0-1.708-0.049-2.772-0.049C0.795,11.167,0.391,11.151,0,11.062c0.296-0.072,0.581-0.188,0.842-0.346
	c0.677-0.281,1.344-0.515,1.98-0.79c0.29-0.07,0.573-0.17,0.842-0.3V9.185c0.206-0.142-0.008-0.3,0.2-0.444v0.1
	c0.2,0.59,0.317,1.205,0.347,1.827l0.889,4.69c0.227,0.019,0.3,0.028,0.347,0.247c-0.038,0.004-0.073,0.021-0.1,0.049H6.04
	c0.041,0.16-0.024,0.076,0.1,0.148c-0.051-0.192-0.049-0.26,0.2-0.301c0.012,0.021,0.03,0.037,0.05,0.049
	c-0.002,0.085-0.019,0.169-0.05,0.248c0.961,0.1,2.132,0,3.069,0.199l1.139-0.049c0.771,0.28,1.3,0.979,2.079,1.235
	c0.006-0.166,0.023-0.331,0.05-0.494c-0.312-0.285-0.643-0.549-0.99-0.79l-3.416-0.148c-0.086-0.203-0.137-0.42-0.149-0.642h-0.2
	l0.05-1.235l0.149-0.049c0.154-0.094,0.508,0.052,0.693-0.049c0.704-0.24,1.436-0.389,2.178-0.444v-0.3
	c0.139-0.074,0.29-0.124,0.446-0.148c0.02,0.093,0.105,0.157,0.2,0.148v0.148c0.222-0.084,0.456-0.134,0.693-0.148
	c0.021-0.188,0.071-0.371,0.148-0.543v-0.934c0-0.783-0.04-1.609-0.049-2.321c0.129-0.038,0.265-0.055,0.4-0.049
	c0,1.218,0.037,2.513,0.05,3.654c0.092,0.054,0.194,0.088,0.3,0.1c0.061-0.153,0.019-0.112,0.2-0.148
	c-0.059-0.267-0.023-0.546,0.1-0.79c0.093-0.045,0.197-0.062,0.3-0.049c0.189,0.078,0.39,0.127,0.594,0.148
	c0.154,0.072,0.303,0.155,0.446,0.247c0.315,0.13,1.535-0.027,1.931,0.049v0.1c-0.041,0.076-0.059,0.162-0.05,0.247l0.742,0.049
	c0.107-0.394,0.257-0.775,0.446-1.136h0.594c-0.009,0.086,0.008,0.172,0.05,0.247V0.938C18.484,0.626,18.495,0.308,18.564,0v11.852
	c0.065,0.225,0.099,0.457,0.1,0.691c0.041,0.025,0.075,0.059,0.1,0.1l0.5-0.1v0.049h-0.05c-0.055,0.125-0.167,0.217-0.3,0.247v0.1
	h0.445C19.533,12.997,19.718,13.013,19.9,12.988z M12.672,9.288v0.101h0.05V9.288H12.672z M22.672,13.337h0.4
	c-0.001-0.133-0.018-0.266-0.049-0.395c-0.038-0.005-0.074-0.022-0.101-0.049c-0.038,0.004-0.073,0.021-0.1,0.049
	c-0.056,0.03-0.093,0.085-0.101,0.148c-0.04,0.074-0.058,0.159-0.05,0.243L22.672,13.337z M23.91,13.537
	c-0.074,0.052-0.158,0.087-0.248,0.1v0.1h0.742v-0.1c-0.15-0.083-0.322-0.12-0.493-0.106L23.91,13.537z M34.852,14.821v0.543h0.299
	v-0.549h-0.299V14.821z M35.395,14.821v0.494c0.179,0.044,0.362,0.06,0.545,0.049v-0.549H35.4L35.395,14.821z M23.514,17.191
	c0.268-0.003,0.527-0.09,0.742-0.247v-0.055h-0.691v0.1c-0.037,0.059-0.054,0.128-0.049,0.196L23.514,17.191z M3.861,19.654h0.1
	c-0.014,0.217-0.047,0.432-0.1,0.643V19.654z M37.277,20.345v0.1c0.431,0.106,0.32,0.766,0.3,1.284
	c-0.07,0.068-0.122,0.154-0.149,0.248c0,0-0.4,0.287-0.494,0.346v0.047h0.049c0.111,0.102,0.287,0.145,0.4,0.248
	c0.114-0.014,0.211-0.092,0.248-0.199c0.096-0.621,0.112-1.252,0.049-1.877C37.557,20.455,37.42,20.389,37.277,20.345L37.277,20.345
	z M4.752,23.063c0.005,0.068,0.022,0.137,0.05,0.199c0.038-0.004,0.073-0.021,0.1-0.049c0.032-0.043,0.049-0.094,0.05-0.148h-0.2
	V23.063z M35.643,23.408c0.023,0.086,0.057,0.17,0.101,0.246h0.049v-0.199L35.643,23.408z M35.494,23.654
	c0.027,0.027,0.063,0.045,0.1,0.049C35.567,23.678,35.532,23.66,35.494,23.654L35.494,23.654z"/>
</svg>
