<svg xmlns="http://www.w3.org/2000/svg" width="39.969" height="40" viewBox="0 0 39.969 40">
  <defs>
    <style>
      .cls-1 {
        fill: #fff;
        fill-rule: evenodd;
      }
    </style>
  </defs>
  <path id="Color_Fill_1" data-name="Color Fill 1" class="cls-1" d="M18.991,18.647v0.2h0.541a0.451,0.451,0,0,1,.3-0.452c0.42-.236.4,0.479,0.64,0.6,0.2,0.175.327-.02,0.64-0.05a2.78,2.78,0,0,0,.836.653,1.474,1.474,0,0,1,.787-0.351V18.8h0.246l-0.049,1.155c2.694,0.006,4.308-.077,6.937-0.1V20c1.81,0.008,3.426-.05,5.314-0.05a8.586,8.586,0,0,0,2.116-.05,0.249,0.249,0,0,1-.2-0.251h1.279a1.048,1.048,0,0,0,.148.351,5.12,5.12,0,0,1,1.378-.05,3.158,3.158,0,0,1,.049.853,4.52,4.52,0,0,1-1.23.05,20.307,20.307,0,0,0-2.706.05c-1.86-.053-4.128,0-6.15,0,0,0.168-.057.162-0.344,0.151a7.6,7.6,0,0,0-1.87-.05,0.559,0.559,0,0,1-.344.05,5.388,5.388,0,0,0-1.574-.05,26.823,26.823,0,0,0-2.8-.05v0.4h-0.2v-0.3a1.584,1.584,0,0,0-.689.05,3.729,3.729,0,0,0-.344.351l-0.492.1c-0.187.073-.4,0.286-0.59,0.351a2.118,2.118,0,0,0-.344.05,0.809,0.809,0,0,1,.049.4h0.049v-0.05c0.034-.051.063-0.2,0.1-0.251a5.675,5.675,0,0,1,.935-0.1V21.809a9.317,9.317,0,0,1,2.116.151c0.5,0.11.954-.015,1.476,0.1,0.853,0.188,1.619-.1,2.263.151,0-.261.009-0.212,0.344-0.2a0.764,0.764,0,0,0,.394.251c0.022-.3.137-0.271,0.443-0.251,0.326,0.2,1.155.048,1.378,0.2,0.055,0.074.1,0.153,0.049,0.2a2.687,2.687,0,0,1-.246.2h0.049a3.657,3.657,0,0,1,.3.552l0.738,0.1a1.238,1.238,0,0,0-.1.351,8.32,8.32,0,0,1,1.476,1.2,0.552,0.552,0,0,1,.049.3,0.285,0.285,0,0,0,.2,0C32.4,25,32.25,24.9,32.571,24.872c0.169,0.154.38,0.248,0.541,0.4V27.03a0.542,0.542,0,0,0-.148.3,8.458,8.458,0,0,0,1.919.954v0.1a3.528,3.528,0,0,0-1.919.6v0.05h0.049a1.943,1.943,0,0,1,.344.452H31a1.5,1.5,0,0,1-.443-1.2H30.5a1.263,1.263,0,0,0-.443.552,1.833,1.833,0,0,1-.148,1.305,2.638,2.638,0,0,1-3,1.757c-1.4-.36-1.737-1.1-2.165-2.46a9.062,9.062,0,0,1-1.033-.3h-6.15V29.49H17.122c-0.175,3.189-5.134,3.181-5.314,0H11.365A2.685,2.685,0,0,1,7.823,31.8,3.036,3.036,0,0,1,6.15,30.042c-0.083-.217-0.078-0.516-0.148-0.7a8.933,8.933,0,0,1-.886-0.552v0.05a1.275,1.275,0,0,1,.443.552,0.989,0.989,0,0,0-.3.3h0.1a0.522,0.522,0,0,1,.3-0.05v0.1H5.56a2.944,2.944,0,0,1-.984.2V29.791l0.443-.05a2.625,2.625,0,0,0,.394-0.452,6.545,6.545,0,0,1-1.427-1.707,0.559,0.559,0,0,1,.344-0.1v-0.3H4.182c0-.141-0.071-0.382-0.049-0.452,0.026-.086.142,0.007,0.148-0.151,0.016-.418-0.141-0.924-0.148-1.406a1.439,1.439,0,0,1-.64-0.05,0.168,0.168,0,0,0,.1-0.05H3.542v-0.05H3.395v-0.4a0.313,0.313,0,0,0,.2-0.05,0.406,0.406,0,0,1-.246-0.05l0.689-.05-0.1-1.255H3.788c0-.14-0.071-0.384-0.049-0.452l0.148-.05c0.042-.084-0.1-0.925-0.1-1.255A1.094,1.094,0,0,1,3.3,21.207H3.346v-0.05a1.9,1.9,0,0,0,.394.05,0.3,0.3,0,0,1,.1-0.1v-0.05H3.247A0.419,0.419,0,0,0,3,21.006v-0.1H3.788V20.755h0.1a0.419,0.419,0,0,1,.246-0.05L3.395,16.94c-1.1,0-2.454-.06-3.395,0v-0.1a3.371,3.371,0,0,0,.984-0.4c0.732-.323,1.453-0.54,2.165-0.853a0.863,0.863,0,0,1,.2-0.753c0.222,1.822.862,3.9,1.033,5.873a0.537,0.537,0,0,1,.344.251c0.008,0.005.548,0.134,0.59,0.151-0.065-.2-0.056-0.23.2-0.251v0.3a7.093,7.093,0,0,1,2.017.1H9.2a12.428,12.428,0,0,1,1.771,1.1,3.2,3.2,0,0,1,.049-0.452c-0.02-.035-0.8-0.687-0.836-0.7H9.446a2.348,2.348,0,0,0-.836-0.05l-1.427-.1a0.484,0.484,0,0,0-.148-0.251V20.5H6.888V19.4l0.148-.05a1.455,1.455,0,0,1,.64-0.05V19.149a7.123,7.123,0,0,0,1.87-.251,0.335,0.335,0,0,1,.394-0.4c0.23,0.455.349,0.11,0.738,0.151a19.663,19.663,0,0,0,.148-3.414h0.344c-0.027.758-.24,2.731,0.1,3.263a0.327,0.327,0,0,0,.2.05,0.337,0.337,0,0,1,.148-0.151c0.107-.209-0.19-0.654.3-0.753,0.615,0.474,1.737.221,2.657,0.4v0.1a0.442,0.442,0,0,0-.049.251,3.019,3.019,0,0,1,.64.05,4.211,4.211,0,0,1,.394-1.054h0.492v0.251h0.049v-0.05a2.884,2.884,0,0,0,0-.8V7h0.1V17.643a1.242,1.242,0,0,1,.049.552,1.4,1.4,0,0,0,.443.05,0.176,0.176,0,0,1,.1-0.05v0.05H16.728a0.817,0.817,0,0,1-.3.251h0.049a3.149,3.149,0,0,0,1.181,0A3.684,3.684,0,0,0,18.991,18.647ZM19.729,18.9a1.141,1.141,0,0,0,.394-0.05,0.8,0.8,0,0,1-.049-0.251,0.759,0.759,0,0,0-.246-0.05V18.6H19.779Zm1.279,0.151a0.778,0.778,0,0,0-.394.2H21.3V19.2A0.571,0.571,0,0,0,21.009,19.048ZM38.967,20a0.427,0.427,0,0,0,.049.251A0.427,0.427,0,0,0,38.967,20Zm0.2,0a0.8,0.8,0,0,0-.049.251h0.1A0.427,0.427,0,0,0,39.164,20Zm0.148,0v0.251h0.1V20h-0.1Zm0.2,0v0.251h0.1V20h-0.1Zm0.2,0v0.251h0.1v-0.2Zm-0.738.3a0.329,0.329,0,0,0,.049.2A0.33,0.33,0,0,0,38.967,20.3Zm0.2,0a0.281,0.281,0,0,0,0,.2h0.049A0.33,0.33,0,0,0,39.164,20.3Zm0.541,0v0.2h0.049v-0.05C39.777,20.347,39.8,20.4,39.7,20.3Zm-0.394.05L39.36,20.5H39.41V20.353h-0.1Zm0.2,0c0.041,0.163-.024.077,0.1,0.151V20.353h-0.1Zm-0.541.2v0.251h0.049v-0.05A0.232,0.232,0,0,0,38.967,20.554Zm0.2,0a0.72,0.72,0,0,0-.049.2h0.049v0.05h0.049A0.427,0.427,0,0,0,39.164,20.554Zm0.148,0v0.251h0.1V20.554h-0.1Zm0.2,0v0.251h0.1V20.554h-0.1Zm0.2,0v0.251h0.1V20.554H39.7ZM20.615,22.06a0.688,0.688,0,0,0-.148.3h0.3a0.55,0.55,0,0,1,.344-0.2V22.11ZM3.3,24.57a3.64,3.64,0,0,1,.1.552H3.3V24.57Zm29.225,0.6v0.1c0.356,0.1.267,0.657,0.246,1.1-0.211.157-.362,0.4-0.59,0.552v0.05a0.953,0.953,0,0,0,.492.151c0.24-.111.16-1.445,0.148-1.857ZM4.133,27.582c-0.02.114-.045,0.055,0,0.151v0.05a0.167,0.167,0,0,0,.1-0.05,0.182,0.182,0,0,0,.049-0.1Zm26.962,0.351,0.049,0.2h0.049v-0.2h-0.1Z" transform="translate(0 0.5)"/>
</svg>
