<?xml version="1.0" encoding="utf-8"?>
<!-- Generator: Adobe Illustrator 16.0.0, SVG Export Plug-In . SVG Version: 6.00 Build 0)  -->
<!DOCTYPE svg PUBLIC "-//W3C//DTD SVG 1.1//EN" "http://www.w3.org/Graphics/SVG/1.1/DTD/svg11.dtd">
<svg version="1.1" id="Layer_1" xmlns="http://www.w3.org/2000/svg" xmlns:xlink="http://www.w3.org/1999/xlink" x="0px" y="0px"
	 width="40px" height="40px" viewBox="0 0 40 40" enable-background="new 0 0 40 40" xml:space="preserve">
<path id="Color_Fill_1" fill="#FFFFFF" d="M19.192,10.191c-0.678,0.042-1.318,0.326-1.805,0.8c0.004,0.036,0.021,0.068,0.047,0.094
	c-0.004,0.089,0.056,0.168,0.143,0.188c0.122-0.245,0.404-0.364,0.665-0.282c-0.006-0.127,0.01-0.254,0.048-0.375
	c0.036,0.004,0.069,0.021,0.095,0.047c0.046,0.154,0.079,0.311,0.1,0.47c0.159-0.01,0.114-0.1,0.19,0.047
	c-0.129,0.288,0.288,0.788-0.285,0.987c-0.39,0.289-0.786-0.186-1.188-0.141c-0.314,0.035-0.706,0.254-1.045,0.329L16.11,12.59
	c0.197,0.171,0.331,0.402,0.38,0.658l-0.665,0.141c0,0.126,0.017,0.253,0.048,0.376c-0.2,0.007-0.154,0.082-0.143,0.376h0.047
	c0.382-0.292,1.459,0.217,2.09,0.235c-0.001-0.051,0.016-0.101,0.047-0.141c0.075,0.128,0.043,0.118,0.238,0.141V14.28
	c-0.117-0.062-0.032,0.02-0.1-0.094c0.065-0.005,0.13-0.021,0.19-0.047v-0.047H17.91c-0.113-0.056-0.2,0.05-0.238,0
	c-0.041-0.035-0.054-0.059-0.095-0.094v-0.047h0.047c0.792-0.367,1.62-0.651,2.47-0.846c-0.191-0.139-0.269-0.388-0.19-0.611H20
	c0.073-0.039,0.156-0.056,0.238-0.047v0.282h0.19c0.123-0.211,0.173-0.458,0.143-0.7h0.142c0,0.853,0,1.8,0,2.867H20.57v-2.12
	h-0.047v0.047c-0.339,0.332-0.571,0.757-0.666,1.222c-0.182,0.084-0.374,0.147-0.57,0.188v0.047c0.073,0.005,0.141,0.039,0.19,0.094
	c0.081-0.05,0.211,0,0.333-0.047l0.285-0.235v0.094h-0.048c-0.185,0.17-0.393,0.312-0.618,0.423L19,14.562
	c-0.084,0.118-0.18,0.229-0.285,0.329c-0.025-0.039-0.06-0.071-0.1-0.094l0.143-0.235h-0.801c-0.061,0.116,0.02,0.032-0.095,0.094
	c-0.039-0.152,0.023-0.072-0.1-0.141v0.094c-0.031,0.041-0.047,0.09-0.047,0.141c-0.24,0-0.373,0.108-0.523,0.094
	c-0.419-0.179-0.875-0.259-1.33-0.235h0.19v0.235h0.1c0.388,0.105,0.787,0.168,1.188,0.188c0.978,0.257,1.982,0.398,2.993,0.423
	v-0.188h0.76v-2.3c0.179-0.005,0.354-0.036,0.523-0.094h0.094v0.094h0.618V12.87c0.084,0.018,0.164,0.05,0.238,0.094v-0.47h0.283
	c-0.008-0.27-0.009-0.294,0-0.564h-0.142c-0.022-0.143-0.054-0.284-0.095-0.423h0.236c0.017-0.327,0.033-0.657,0.051-0.991H22.85
	v-0.043c-0.532-0.024-1.06-0.119-1.567-0.282c0.076-0.028,0.156-0.044,0.237-0.047c0.459,0.154,0.945,0.203,1.426,0.141
	c1.836-0.038,3.338,0.109,4.988,0c0.123,0.235,0.123,0.517,0,0.752h0.284c0.181-0.11,0.411-0.091,0.57,0.047h-0.142
	c0.039,0.152-0.023,0.072,0.095,0.141c0.018-0.119-0.028-0.074,0.143-0.094c0.056,0.059,0.101,0.154,0.142,0.094
	c0.118-0.125,0.215-0.268,0.285-0.423h0.047v0.047c0.031,0.041,0.047,0.09,0.048,0.141c-0.228,0.172-0.38,0.424-0.429,0.705
	c0.121,0.233,0.186,0.49,0.19,0.752c0.616,0.001,1.118-0.497,1.12-1.114c0-0.084-0.009-0.167-0.027-0.25H30.4
	c0.035,0.211,0.099,0.417,0.189,0.611c-0.039,0.367,0.01,0.737,0.143,1.081c0.183,0.68,0.143,1.408,0.379,2.021h0.144
	c0-0.102,0.033-0.201,0.095-0.282v0.047c0.078,0.118,0.197,0.202,0.334,0.235c-0.025-0.1-0.055-0.093,0-0.188
	c0.24,0.156,0.521,0.237,0.808,0.235c0.132,0.202,0.228,0.424,0.284,0.658c0.025,0.025,0.043,0.059,0.048,0.094h0.047v-0.047
	c0.05-0.07,0.082-0.15,0.095-0.235c-0.039-0.023-0.07-0.056-0.095-0.094h0.19c0.045,0.118,0.129,0.217,0.237,0.282
	c-0.008-0.09,0.03-0.178,0.101-0.235v0.47h0.236V15.69c-0.039-0.059-0.07-0.122-0.095-0.188h0.142
	c0.311,0.438,0.856,0.642,1.377,0.514c0.054,0.068,0.088,0.149,0.101,0.235c-0.04,0.023-0.075,0.055-0.101,0.094H35.2l0.569,2.351
	h0.57v-0.326c0.955,0.012,1.906,0.09,2.85,0.234v0.7l-0.713,0.048c-0.111,0.205-0.111,0.452,0,0.657H37.91
	c0.017,0.14,0.156,0.343,0.143,0.423c-0.086,0.193-0.135,0.4-0.143,0.611c0.374,0.506,1.906,1.143,2.09,1.645h-0.047
	c-0.328,0.078-0.667,0.095-1,0.047c-1.114,0-1.921,0.013-2.471-0.517c-0.135,0.081-0.389-0.022-0.569,0.048
	c-0.055,0.057-0.103,0.119-0.142,0.188l-0.429,0.094c-0.366,0.172-0.716,0.377-1.045,0.611c-0.208,0.128-0.44,0.076-0.475,0.141
	c-0.106,0.071-0.217,0.134-0.332,0.188c0.1,0.551-0.001,1.119-0.285,1.601c-0.629,1.375-2.136,2.12-3.61,1.786
	c-1.728-0.492-2.553-1.743-2.375-3.854c-0.548,0.004-1.017-0.093-1.662-0.095c-0.039,0.152,0.022,0.072-0.096,0.142
	c-0.268-0.05-0.541-0.05-0.808,0c-1.072-0.142-2.158-0.142-3.23,0v-0.28h-0.237c-0.215,0.483-1.21,0.294-1.663,0.188
	c-0.066-0.301-0.648-0.207-1-0.188v-0.142c-0.546,0.037-1.088,0.133-1.615,0.282c0.096,0.384,0.129,0.78,0.1,1.175
	c-0.145,0.979-0.697,1.852-1.52,2.4c-0.299,0.166-0.619,0.292-0.95,0.376c-0.675,0.132-1.374,0.05-2-0.235
	c-1.294-0.502-2.079-1.822-1.9-3.199H10.5c-0.109-0.097-0.177-0.231-0.19-0.377c0.216-0.142,0.313-0.41,0.238-0.657
	c-0.502-0.106-1.009-0.185-1.52-0.235v-0.046l0.143-0.376H8.456c0.02,0.143,0.004,0.289-0.048,0.423v-0.423H7.7
	c-0.241-0.271-0.587-0.425-0.95-0.423v0.7H6.461l-0.048-0.142c0.034-0.282,0.018-0.568-0.047-0.846
	c0.077-0.337,0.093-0.685,0.047-1.026c0.069-0.562,0.069-1.13,0-1.691c0.099-0.703,0.083-1.417-0.047-2.115
	c-0.023-0.12,0.014-0.243,0.1-0.329c0.02-0.223,0.002-0.447-0.053-0.664c0.107-0.034,0.22-0.05,0.333-0.047v0.752h0.19v-0.419h1.425
	c-0.029-0.147-0.071-0.116,0.1-0.188c0.101-0.097,0.246-0.133,0.38-0.094c0.02,0.168-0.022,0.118,0.1,0.188
	c0.121,0.048,0.251,0.064,0.38,0.047v-0.047c-0.041-0.059-0.074-0.122-0.1-0.188h0.1c0.112,0.378,1.643,0.25,2.185,0.235
	c0.68-0.236,1.379-0.409,2.09-0.517c-0.043-0.039-0.078-0.087-0.1-0.141c0.118,0.008,0.235-0.025,0.332-0.094
	c-0.025-0.025-0.042-0.059-0.047-0.094c0.134,0.05,0.285,0.013,0.38-0.094c-0.046-0.103-0.063-0.217-0.048-0.329h-0.099
	c-0.28-0.001-0.557,0.063-0.808,0.188l-0.047-0.141c-0.031-0.041-0.048-0.09-0.048-0.141h-0.474v0.517h-0.048
	c-0.565-0.088-1.14-0.104-1.71-0.047v-0.517c-0.288,0.033-0.581,0.001-0.855-0.094c-0.078-0.097-0.175-0.177-0.285-0.235
	c-0.492-0.03-0.985-0.015-1.473,0.047C5.514,13.583,2.755,13.552,0,13.669V13.34c1.674,0.1,3.876,0,5.7,0
	c0.776,0.084,1.561,0.052,2.328-0.094c0.758,0.073,1.522,0.073,2.28,0c-0.013-0.097,0.003-0.195,0.047-0.282
	c0.07,0.119,0.1,0.094,0.285,0.094v0.188c0.094-0.013,0.19-0.013,0.285,0c0-0.555-0.023-0.776-0.047-1.175
	c0.322,0.044,1.611-0.293,1.663,0.188c-0.1,0.043,0.2,0.122,0.237,0.188c0.081,0.145,0.013,0.309,0.1,0.423
	c0.088,0.048,0.185,0.08,0.285,0.094v0.047h-0.146c-0.074-0.058-0.024-0.03-0.1,0c-0.053,0.05-0.088,0.116-0.1,0.188
	c0.144-0.035,0.295-0.019,0.428,0.047v-0.094c0.063-0.213,0.079-0.438,0.047-0.658c0.57-0.273,1.111-0.604,1.615-0.987
	c0.02-0.083,0.054-0.163,0.1-0.235c0.279-0.212,0.608-0.323,0.9-0.517c0.148-0.138,0.307-0.264,0.475-0.376l0.19,0.047
	c0.169-0.111,0.328-0.237,0.475-0.376c0.409-0.271,0.84-0.461,1.235-0.752c0.073-0.101,0.155-0.195,0.245-0.282
	c0.107,0.062,0.204,0.142,0.285,0.235c0.091-0.069,0.1-0.143,0.19-0.094c0.136,0.053,0.087,0.008,0.142,0.141
	C19.244,9.585,19.26,9.895,19.192,10.191z M18.337,9.391c-0.026,0.025-0.059,0.042-0.095,0.047v0.048h0.19V9.392h-0.1L18.337,9.391z
	 M17.957,9.626c-0.474,0.391-0.983,0.737-1.52,1.034v0.047c0.382,0.041,0.483,0.145,0.808,0.188c0.31-0.378,1.4-0.74,1.473-1.128
	h-0.1c-0.036,0.058-0.152,0.054-0.285-0.047c0.067,0.005,0.133-0.011,0.19-0.047L17.957,9.626z M13.539,13.246h0.333v-0.235
	c0.052,0.001,0.102-0.016,0.143-0.047c0.113-0.249,0.274-0.472,0.475-0.658c0.172-0.037,0.351-0.037,0.523,0
	c0.527-0.246,1.009-0.58,1.425-0.987H16.39v-0.047l-0.29,0.044l0.047-0.423H16.1c-0.336,0.299-0.722,0.538-1.14,0.705
	c-0.259,0.143-0.512,0.4-0.76,0.564c-0.252,0.115-0.491,0.257-0.713,0.423v0.517C13.52,13.143,13.538,13.193,13.539,13.246z
	 M16.959,10.946c0.027,0.026,0.063,0.042,0.1,0.047c-0.027-0.027-0.062-0.045-0.099-0.05L16.959,10.946z M28.459,11.275H28.6
	c0.001-0.051-0.016-0.101-0.047-0.141c-0.057-0.035-0.123-0.051-0.189-0.047v0.047c0.119,0.065,0.052-0.018,0.093,0.138
	L28.459,11.275z M17.1,11.178c-0.383,0.345-0.815,0.63-1.283,0.846l0.048,0.141h0.095c0.332-0.216,1.195-0.168,1.378-0.517
	C17.298,11.474,17.216,11.313,17.1,11.178z M17.385,11.225c0.012,0.085,0.044,0.166,0.095,0.235v-0.144
	c-0.039-0.032-0.051-0.056-0.093-0.091H17.385z M28.785,11.413c-0.098-0.001-0.193,0.015-0.285,0.047
	c0.029,0.132,0.077,0.258,0.143,0.376v-0.047c0.1-0.098,0.152-0.233,0.146-0.373L28.785,11.413z M28.785,11.789
	c-0.059,0.134-0.091,0.277-0.096,0.423c0.033,0.036,0.063,0.1,0.096,0.141c-0.018-0.127-0.002-0.257,0.047-0.376
	c-0.056,0.208-0.02,0.431,0.1,0.611c0.072-0.075,0.107-0.179,0.096-0.282c-0.038-0.189-0.119-0.366-0.238-0.517H28.785z
	 M11.4,12.024c0.183,0.074,0.387,0.074,0.57,0H11.4z M15.58,12.165c-0.042,0.039-0.091,0.07-0.143,0.094v0.047h0.1
	c0.06-0.033,0.109-0.082,0.143-0.141H15.58z M12.54,12.447c-0.051,0.215-0.067,0.438-0.048,0.658h0.048
	c0.124-0.07,0.21-0.19,0.237-0.329c-0.049-0.104-0.081-0.215-0.095-0.329h-0.14H12.54z M15.628,12.494
	c-0.042,0.03-0.091,0.047-0.143,0.047c-0.027,0.076-0.077,0.141-0.143,0.188h0.047c0.081,0.094,0.177,0.174,0.285,0.235l0.1-0.47
	H15.63H15.628z M16.245,13.152v-0.141c-0.136-0.137-0.248-0.296-0.332-0.47h-0.046v0.094c-0.066,0.101-0.115,0.212-0.143,0.329
	c0.248,0.121-0.028,0.215,0.38,0.235c0.042-0.031,0.091-0.047,0.143-0.047H16.245z M12.682,13.105l0.047,0.141h0.047v-0.141h-0.092
	H12.682z M20.282,13.152c0.065,0.117,0.065,0.259,0,0.376V13.152z M10.353,13.199c0.07,0.055,0.168,0.055,0.238,0h-0.235H10.353z
	 M20.234,13.528c0.03,0.041,0.047,0.09,0.047,0.141h-0.043v-0.141H20.234z M20.187,13.669c0.025,0.025,0.042,0.059,0.047,0.094
	H20.19v-0.094H20.187z M20.139,13.81c0.117,0.061,0.032-0.02,0.1,0.094c-0.053,0.05-0.088,0.116-0.1,0.188H20.1v-0.141
	c0.029-0.042,0.044-0.091,0.043-0.141H20.139z M30.5,13.857h-1.379c-0.042,0.074-0.074,0.153-0.096,0.235
	c0.041,0.107,0.072,0.217,0.096,0.329c0.359,0.012,0.715,0.091,1.045,0.235c0.148,0.172,0.1,0.511,0.238,0.7v-0.04
	C30.641,14.865,30.676,14.335,30.5,13.857z M28.837,13.998c-0.029,0.134,0.009,0.274,0.101,0.376v-0.047
	c0.039-0.072,0.055-0.154,0.047-0.235c-0.025-0.025-0.042-0.058-0.047-0.094H28.837z M18.861,14.186c0.07,0.055,0.168,0.055,0.238,0
	H18.861L18.861,14.186z M18.243,14.28c0.029,0.052,0.082,0.087,0.142,0.094V14.28H18.243L18.243,14.28z M18.481,14.28v0.094h0.095
	V14.28H18.481L18.481,14.28z M18.671,14.28v0.094h0.048v-0.047h0.047C18.74,14.302,18.706,14.285,18.671,14.28L18.671,14.28z
	 M18.861,14.28v0.094H19V14.28H18.861L18.861,14.28z M21.141,14.609v0.607h0.618v0.188H22v-0.043h0.048
	c0.03-0.218,0.11-0.333,0.144-0.564c-0.086-0.055-0.166-0.118-0.238-0.188c-0.053,0.261-0.316,0.208-0.617,0.188v-0.188H21.141
	L21.141,14.609z M31.45,14.844c0.05,0.291,0.278,0.517,0.569,0.564v-0.092L31.45,14.844z M30.025,15.972
	c0.281-0.075,0.553-0.186,0.808-0.329l-0.048-0.47h-0.049v0.094c-0.089,0.152-0.168,0.309-0.238,0.47h-0.047V15.69
	c-0.057-0.056-0.121-0.103-0.19-0.141c-0.238,0.274-0.528,0.498-0.854,0.658v0.047h0.048c0.14,0.198,0.34,0.346,0.569,0.423v-0.7
	L30.025,15.972z M21.805,15.216c0.066-0.005,0.134,0.011,0.19,0.047C21.928,15.269,21.861,15.252,21.805,15.216z M16.005,15.404
	c0.086,0.059,0.199,0.059,0.285,0h-0.28H16.005z M30.589,15.78v0.047c0.03,0.048,0.101,0.01,0.047,0.047
	c-0.052,0.051-0.118,0.084-0.19,0.094v0.048h0.144c0.073-0.039,0.155-0.055,0.238-0.047l0.048-0.188
	c-0.092,0.023-0.188,0.024-0.281,0.003L30.589,15.78z M34.342,16.062v0.094h0.096v-0.09h-0.09L34.342,16.062z M34.912,16.109
	c-0.152,0.064-0.313,0.111-0.475,0.141h0.047v0.047c0.143,0.085,0.317,0.103,0.475,0.047c-0.117-0.061-0.032,0.021-0.095-0.094
	c0.137-0.052,0.155-0.035,0.19-0.141h-0.138H34.912z M6.741,16.203v1.833h0.1c0.237-0.287,0.527-0.525,0.855-0.7v-0.048h-0.76
	v-1.081h-0.19L6.741,16.203z M6.741,20.997h0.527c0.009-0.153,0.132-0.273,0.285-0.281c0.042,0.03,0.092,0.047,0.143,0.047V20.53
	c0.174-0.019,0.349-0.019,0.523,0v-0.282c-0.051,0.001-0.102-0.016-0.143-0.047c-0.026-0.025-0.042-0.059-0.048-0.094
	c-0.062-0.356,0.006-0.724,0.19-1.034c0.088-0.049,0.183-0.081,0.282-0.095v-0.14h1.33c0,0.538,0,0.647,0,1.222h0.285
	c-0.001,0.051,0.016,0.102,0.047,0.142l0.38,0.188c-0.083-0.133-0.177-0.258-0.281-0.375c-0.011-0.192,0.021-0.385,0.095-0.563
	l-0.332-0.987c-0.157-0.025-0.316-0.042-0.475-0.049c-0.213-0.29-0.206-1.048-0.665-1.081c-0.264-0.076-0.544-0.076-0.808,0
	L8.028,17.57c0.054,0.021,0.223,0.054,0.1,0.094v0.047c-0.122-0.04-0.251-0.056-0.38-0.047c-0.365,0.213-0.622,0.557-1,0.752v2.585
	L6.741,20.997z M7.834,17.519c0.027,0.026,0.063,0.042,0.1,0.047c-0.027-0.024-0.061-0.039-0.096-0.043L7.834,17.519z
	 M37.953,18.693c0.027,0.027,0.063,0.043,0.1,0.048c-0.026-0.024-0.061-0.039-0.096-0.043L37.953,18.693z M37.953,18.882v0.095h0.1
	v-0.091h-0.1V18.882z M8.409,19.025c-0.065,0.048-0.115,0.113-0.143,0.188c-0.161,0.251-0.229,0.551-0.19,0.847l0.047,0.141
	c0.141-0.051,0.27-0.131,0.377-0.235c-0.085-0.21-0.133-0.432-0.143-0.657c0.018-0.058,0.24-0.131,0.143-0.283H8.4H8.409z
	 M26.557,19.073v0.282h0.094c0.092-0.092,0.156-0.205,0.19-0.33H26.7C26.658,19.057,26.607,19.073,26.557,19.073z M35.915,19.167
	c0.003,0.111,0.019,0.222,0.048,0.329h0.38v-0.329H35.915z M37.958,19.167c0.027,0.026,0.063,0.043,0.101,0.047
	C38.03,19.188,37.995,19.171,37.958,19.167L37.958,19.167z M25.749,19.309c0.044,0.092,0.109,0.172,0.19,0.234
	c0.1-0.064,0.285-0.073,0.379-0.141c0.025-0.025,0.043-0.059,0.048-0.094H25.749L25.749,19.309z M37.861,19.496h-0.569v0.047
	c0.183,0.15,0.373,0.291,0.569,0.423V19.496z M38.004,19.496c0.003,0.111,0.02,0.222,0.048,0.329l-0.143-0.048v0.139
	c0.065,0.006,0.13,0.021,0.19,0.047c0.008-0.169-0.072-0.1,0.094-0.141v-0.326H38H38.004z M10.304,19.543v0.094h0.047V19.59H10.4
	c-0.025-0.024-0.057-0.041-0.091-0.047H10.304z M10.494,19.777c0,0.131-0.055,0.101,0.143,0.142v-0.094h-0.043
	c-0.025-0.025-0.058-0.042-0.094-0.048H10.494z M10.542,20.061c-0.021,0.242,0.16,0.455,0.402,0.476
	c0.041,0.004,0.081,0.001,0.121-0.006v-0.048h0.048v-0.047c-0.22,0.01-0.408-0.156-0.428-0.375h-0.139H10.542z M10.685,20.201
	c0.03,0.041,0.047,0.09,0.047,0.141h-0.043v-0.141H10.685z M34.059,20.201c0.086,0.059,0.198,0.059,0.284,0h-0.28H34.059z
	 M10.115,20.295v0.235h0.475v-0.048c-0.145-0.089-0.304-0.152-0.471-0.188H10.115z M8.69,20.389
	c-0.144-0.008-0.289,0.008-0.428,0.047v0.047h0.052v0.048c0.123-0.046,0.257-0.046,0.38,0v-0.142H8.69z M9.59,20.53v-0.142H8.741
	v0.094h0.1C9.088,20.55,9.347,20.566,9.6,20.53H9.59z M9.638,20.389v0.142h0.428v-0.095c-0.137-0.037-0.28-0.053-0.422-0.047H9.638z
	 M34.246,20.389c0.079,0.053,0.051,0.084,0.095,0h-0.089H34.246z M34.721,20.389v0.142h0.523v-0.142h-0.518H34.721z M11.821,20.436
	c0.082,0.041,0.061,0.043,0.143,0h-0.135H11.821z M12.296,20.436c0.082,0.041,0.061,0.043,0.143,0H12.3H12.296z M9.396,21.752
	l-0.048,0.423l1.188,0.048l-0.048-0.471H10.4c-0.327,0.078-0.667,0.078-0.994,0H9.396z M11.059,21.752
	c0.086,0.059,0.199,0.059,0.285,0h-0.275H11.059z M16.237,21.752c0.066,0.12,0.165,0.218,0.285,0.282
	c0.467-0.022,0.93-0.101,1.378-0.235v-0.047h-1.653H16.237z M18.422,21.752c-0.06,0.033-0.109,0.082-0.143,0.141
	c0.058,0.084,0.121,0.162,0.19,0.235v0.047h0.047v-0.423h-0.084H18.422z M24.122,21.752v0.188H24.7v-0.188h-0.57H24.122z
	 M24.835,21.752c-0.001,0.051,0.017,0.101,0.047,0.141c0.185,0.059,0.379,0.074,0.57,0.047c0.026-0.025,0.06-0.041,0.095-0.047
	v0.377h0.475c-0.04-0.186,0.013-0.379,0.143-0.518H24.835L24.835,21.752z M26.925,21.752h-0.464l-0.189,0.423h0.285
	c0.12-0.048,0.251-0.063,0.379-0.047v-0.047c-0.023-0.108-0.023-0.221,0-0.329H26.925z M27.495,22.128v-0.142h0.237
	c0.014-0.082,0.067-0.152,0.143-0.188v-0.047h-0.607l-0.285,0.376h0.523H27.495z M33.338,21.752
	c-0.111,0.066-0.413,0.025-0.523,0.094c0.184,0.034,0.373,0.001,0.535-0.094H33.338z M11.058,21.893v0.142
	c-0.115,0.056-0.226,0.118-0.333,0.188h0.047c0.042,0.029,0.092,0.046,0.143,0.047c0.042-0.031,0.091-0.047,0.143-0.047
	c0.041-0.154,0.1-0.187,0.143-0.33h-0.132H11.058z M17.851,22.27v-0.33c-0.427,0.051-0.8,0.235-1.235,0.33v0.094
	c0.041,0.041,0.074,0.089,0.1,0.141c0.368-0.137,0.754-0.217,1.146-0.234H17.851z M33.623,22.081v0.846l0.249,0.189v-0.095
	c-0.044-0.322-0.124-0.637-0.238-0.94H33.623z M33.386,22.128h-0.227v0.047h-0.048c0.055,0.235,0.151,0.458,0.285,0.658v-0.7
	L33.386,22.128z M10.726,22.41v0.423h0.047v-0.094c0.062-0.081,0.097-0.181,0.1-0.282L10.726,22.41z M26.783,23.068
	c0.062,0.443-0.039,0.895-0.285,1.269h-0.037V24.29c-0.027-0.247,0.307-0.761,0.332-1.222H26.783z"/>
</svg>
