<svg xmlns="http://www.w3.org/2000/svg" width="40" height="40" viewBox="0 0 40 40">
  <defs>
    <style>
      .cls-1 {
        fill: #fff;
        fill-rule: evenodd;
      }
    </style>
  </defs>
  <path id="Color_Fill_1" data-name="Color Fill 1" class="cls-1" d="M19.192,12.175a2.834,2.834,0,0,0-1.805.8,0.16,0.16,0,0,0,.047.094,0.184,0.184,0,0,0,.143.188,0.557,0.557,0,0,1,.665-0.282A1.1,1.1,0,0,1,18.29,12.6a0.164,0.164,0,0,1,.095.047,3.042,3.042,0,0,1,.1.47c0.159-.01.114-0.1,0.19,0.047-0.129.288,0.288,0.788-.285,0.987-0.39.289-.786-0.186-1.188-0.141-0.314.035-.706,0.254-1.045,0.329l-0.047.235a1.166,1.166,0,0,1,.38.658l-0.665.141a1.581,1.581,0,0,0,.048.376c-0.2.007-.154,0.082-0.143,0.376h0.047a2.4,2.4,0,0,1,1.663.235,0.588,0.588,0,0,0,.428-0.094,2.36,2.36,0,0,1,.285.094V16.264c-0.117-.061-0.032.02-0.1-0.094a0.607,0.607,0,0,0,.19-0.047V16.076H17.91c-0.113-.056-0.2.05-0.238,0-0.041-.035-0.054-0.059-0.095-0.094V15.935h0.047a12.56,12.56,0,0,1,2.47-.846,0.534,0.534,0,0,1-.19-0.611H20a0.415,0.415,0,0,1,.238-0.047v0.282h0.19a1.118,1.118,0,0,0,.142-0.7h0.142c0,0.853,0,1.8,0,2.867H20.57V14.76H20.523v0.047a2.162,2.162,0,0,0-.238.7,0.847,0.847,0,0,0-.047-0.423v0.094a1.536,1.536,0,0,0-.38.846,2.6,2.6,0,0,1-.57.188v0.047a0.282,0.282,0,0,1,.19.094c0.081-.05.211,0,0.333-0.047l0.285-.235V16.17H20.048a2.624,2.624,0,0,1-.618.423L19,16.546a2.326,2.326,0,0,1-.285.329,0.287,0.287,0,0,0-.1-0.094l0.143-.235H17.957c-0.061.116,0.02,0.032-.095,0.094-0.039-.152.023-0.072-0.1-0.141v0.094a0.238,0.238,0,0,0-.047.141c-0.24,0-.373.108-0.523,0.094a2.991,2.991,0,0,0-1.33-.235h0.19v0.235h0.1a5.587,5.587,0,0,0,1.188.188,13,13,0,0,0,2.993.423V17.251h0.76v-2.3a1.776,1.776,0,0,0,.523-0.094H21.71v0.094h0.618V14.854a0.794,0.794,0,0,1,.238.094v-0.47H22.85c-0.008-.27-0.009-0.294,0-0.564H22.708a3.346,3.346,0,0,0-.095-0.423H22.85Q22.874,13,22.9,12.5H22.85V12.457a6.036,6.036,0,0,1-1.568-.282,0.753,0.753,0,0,1,.238-0.047,3.554,3.554,0,0,0,1.473.141,43.778,43.778,0,0,0,4.941,0,0.808,0.808,0,0,1,0,.752h0.285a0.485,0.485,0,0,1,.57.047H28.646c0.039,0.152-.023.072,0.095,0.141,0.018-.119-0.028-0.074.143-0.094,0.055,0.059.1,0.154,0.142,0.094a1.576,1.576,0,0,0,.285-0.423h0.047v0.047a0.238,0.238,0,0,1,.047.141,1.125,1.125,0,0,0-.428.705,1.7,1.7,0,0,1,.19.752,1.117,1.117,0,0,0,1.093-1.363H30.4a2.337,2.337,0,0,0,.19.611,2.308,2.308,0,0,0,.142,1.081c0.183,0.68.143,1.408,0.38,2.021h0.143a0.463,0.463,0,0,1,.095-0.282v0.047a0.555,0.555,0,0,0,.333.235c-0.025-.1-0.054-0.093,0-0.188a1.469,1.469,0,0,0,.808.235,2.126,2.126,0,0,1,.285.658,0.169,0.169,0,0,1,.047.094h0.047V17.533a0.547,0.547,0,0,0,.095-0.235,0.288,0.288,0,0,1-.095-0.094h0.19a0.573,0.573,0,0,0,.238.282,0.272,0.272,0,0,1,.1-0.235v0.47h0.237V17.674a0.912,0.912,0,0,1-.095-0.188h0.142A1.307,1.307,0,0,0,35.059,18a1.246,1.246,0,0,1,.048.329,20.708,20.708,0,0,1,.855,3.149h1.093a0.662,0.662,0,0,1,.523-0.094,3.3,3.3,0,0,1,.095-0.7H38a0.561,0.561,0,0,0,.238.094c0.225,0.461.037,0.835,0.237,1.222H37.91a3.109,3.109,0,0,1,0,.987c-0.028.017-.074-0.014-0.047,0.047H37.91c0.374,0.506,1.907,1.143,2.09,1.645H39.953a2.685,2.685,0,0,1-1,.047c-1.114,0-1.921.012-2.47-.517-0.136.081-.389-0.023-0.57,0.047a1.021,1.021,0,0,0-.142.188l-0.428.094a6.81,6.81,0,0,0-1.045.611c-0.208.128-.44,0.076-0.475,0.141a2.507,2.507,0,0,1-.332.188,2.334,2.334,0,0,1-.285,1.6,3.2,3.2,0,0,1-3.61,1.786c-1.73-.493-2.553-1.741-2.375-3.854-0.548.005-1.017-.092-1.663-0.094-0.039.152,0.023,0.072-.095,0.141a2.234,2.234,0,0,0-.808,0,12.357,12.357,0,0,0-3.23,0V24.77H21.188c-0.215.483-1.211,0.294-1.663,0.188-0.066-.3-0.648-0.206-1-0.188V24.629a7.842,7.842,0,0,0-1.615.282,3.7,3.7,0,0,1,.1,1.175,3.513,3.513,0,0,1-1.52,2.4,3.977,3.977,0,0,1-.95.376,3.3,3.3,0,0,1-2-.235,3.016,3.016,0,0,1-1.9-3.2H10.5a0.572,0.572,0,0,1-.19-0.376,0.585,0.585,0,0,0,.238-0.658,13.855,13.855,0,0,0-1.52-.235V24.112l0.143-.376H8.456a0.848,0.848,0,0,1-.048.423V23.736H7.7a1.262,1.262,0,0,0-.95-0.423v0.7H6.461l-0.048-.141a2.438,2.438,0,0,0-.047-0.846A2.87,2.87,0,0,0,6.413,22a6.944,6.944,0,0,0,0-1.692,6.555,6.555,0,0,0-.047-2.115,0.367,0.367,0,0,1,.1-0.329A1.984,1.984,0,0,0,6.413,17.2a1.029,1.029,0,0,1,.333-0.047v0.752h0.19V17.486H8.361c-0.029-.147-0.071-0.116.1-0.188a0.39,0.39,0,0,1,.38-0.094c0.02,0.168-.022.118,0.1,0.188a0.759,0.759,0,0,0,.38.047V17.392a0.915,0.915,0,0,1-.1-0.188h0.1c0.112,0.378,1.643.25,2.185,0.235a11.693,11.693,0,0,1,2.09-.517,0.394,0.394,0,0,1-.1-0.141,0.516,0.516,0,0,0,.332-0.094,0.169,0.169,0,0,1-.047-0.094,0.347,0.347,0,0,0,.38-0.094,0.615,0.615,0,0,1-.048-0.329H14.014a1.8,1.8,0,0,0-.808.188l-0.047-.141a0.238,0.238,0,0,1-.048-0.141H12.637v0.47H10.879V16.029a1.938,1.938,0,0,1-.855-0.094A0.926,0.926,0,0,0,9.739,15.7a7.9,7.9,0,0,0-1.473.047A76.629,76.629,0,0,0,0,15.653V15.324c2.5,0.168,5.916,0,8.314-.094,0.612-.024,1.491.084,2,0a0.491,0.491,0,0,1,.047-0.282c0.07,0.119.1,0.094,0.285,0.094V15.23a1.093,1.093,0,0,1,.285,0c0-.555-0.023-0.776-0.047-1.175,0.322,0.044,1.611-.293,1.663.188-0.1.043,0.2,0.122,0.237,0.188,0.081,0.145.013,0.309,0.1,0.423a0.825,0.825,0,0,0,.285.094v0.047H13.017c-0.074-.058-0.024-0.03-0.1,0a0.335,0.335,0,0,0-.1.188,0.631,0.631,0,0,1,.428.047V15.136a1.546,1.546,0,0,0,.047-0.658,9.311,9.311,0,0,0,1.615-.987,0.794,0.794,0,0,1,.1-0.235c0.279-.212.608-0.323,0.9-0.517a3.761,3.761,0,0,1,.475-0.376l0.19,0.047a3.416,3.416,0,0,0,.475-0.376c0.409-.271.84-0.461,1.235-0.752A2.244,2.244,0,0,1,18.527,11a1.131,1.131,0,0,1,.285.235c0.091-.069.1-0.143,0.19-0.094,0.136,0.053.087,0.008,0.142,0.141A1.616,1.616,0,0,1,19.192,12.175Zm-0.855-.8a0.172,0.172,0,0,1-.095.047V11.47h0.19V11.376h-0.1Zm-0.38.235a10.005,10.005,0,0,1-1.52,1.034v0.047c0.382,0.041.483,0.145,0.808,0.188,0.31-.378,1.4-0.74,1.473-1.128h-0.1c-0.036.058-.152,0.054-0.285-0.047a0.31,0.31,0,0,0,.19-0.047ZM13.539,15.23h0.333V14.995a0.232,0.232,0,0,0,.143-0.047,2.057,2.057,0,0,1,.475-0.658,1.242,1.242,0,0,1,.523,0,5.119,5.119,0,0,0,1.425-.987H16.39V13.256L16.1,13.3l0.047-.423H16.1a3.88,3.88,0,0,1-1.14.705c-0.259.143-.512,0.4-0.76,0.564a2.285,2.285,0,0,0-.713.423v0.517A0.238,0.238,0,0,1,13.539,15.23Zm3.42-2.3a0.172,0.172,0,0,0,.1.047A0.172,0.172,0,0,0,16.96,12.927Zm11.5,0.329H28.6a0.226,0.226,0,0,0-.047-0.141,0.323,0.323,0,0,0-.19-0.047v0.047C28.482,13.183,28.415,13.1,28.456,13.256ZM17.1,13.162a5.146,5.146,0,0,1-1.283.846l0.048,0.141h0.095c0.332-.216,1.195-0.168,1.378-0.517A1.094,1.094,0,0,0,17.1,13.162Zm0.285,0.047a0.511,0.511,0,0,0,.095.235V13.3C17.441,13.268,17.429,13.244,17.387,13.209Zm11.4,0.188a0.813,0.813,0,0,0-.285.047,1.38,1.38,0,0,0,.143.376V13.773A0.492,0.492,0,0,0,28.789,13.4Zm0,0.376a1.15,1.15,0,0,0-.095.423c0.032,0.036.062,0.1,0.095,0.141a0.722,0.722,0,0,1,.047-0.376,0.754,0.754,0,0,0,.1.611,0.349,0.349,0,0,0,.095-0.282A1.234,1.234,0,0,0,28.789,13.773ZM11.4,14.008a0.762,0.762,0,0,0,.57,0H11.4Zm4.18,0.141a0.547,0.547,0,0,1-.143.094V14.29h0.1a0.365,0.365,0,0,0,.143-0.141h-0.1Zm-3.04.282a2.071,2.071,0,0,0-.048.658h0.048a0.483,0.483,0,0,0,.237-0.329,2.113,2.113,0,0,1-.095-0.329H12.542Zm3.088,0.047a0.244,0.244,0,0,1-.143.047,0.4,0.4,0,0,1-.143.188h0.047a1.072,1.072,0,0,0,.285.235l0.1-.47H15.63Zm0.617,0.658V14.995a1.772,1.772,0,0,1-.332-0.47H15.867v0.094a1.061,1.061,0,0,0-.143.329c0.248,0.121-.028.215,0.38,0.235A0.243,0.243,0,0,1,16.247,15.136Zm-3.563-.047,0.047,0.141h0.047V15.089H12.684Zm-2.328.094a0.193,0.193,0,0,0,.238,0H10.356Zm9.881,0.329a0.238,0.238,0,0,1,.047.141H20.238V15.512Zm-0.047.141a0.169,0.169,0,0,1,.047.094H20.19V15.653Zm-0.048.141c0.117,0.061.032-.02,0.1,0.094a0.335,0.335,0,0,0-.1.188H20.1V15.935A0.238,0.238,0,0,0,20.143,15.794ZM30.5,15.841H29.121a0.967,0.967,0,0,0-.095.235,2.1,2.1,0,0,1,.095.329,2.844,2.844,0,0,1,1.045.235c0.148,0.172.1,0.511,0.238,0.7V17.3A1.806,1.806,0,0,0,30.5,15.841Zm-1.663.141a0.426,0.426,0,0,0,.1.376V16.311a0.4,0.4,0,0,0,.047-0.235,0.169,0.169,0,0,1-.047-0.094h-0.1Zm-9.976.188a0.192,0.192,0,0,0,.238,0H18.86Zm-0.618.094a0.184,0.184,0,0,0,.142.094V16.264H18.242Zm0.238,0v0.094h0.095V16.264H18.48Zm0.19,0v0.094h0.048V16.311h0.047A0.172,0.172,0,0,0,18.67,16.264Zm0.19,0v0.094H19V16.264H18.86Zm2.28,0.329V17.2h0.618v0.188H22V17.345h0.048c0.03-.218.11-0.333,0.143-0.564a1.564,1.564,0,0,1-.238-0.188c-0.053.261-.316,0.208-0.617,0.188V16.593H21.14Zm10.309,0.235a0.691,0.691,0,0,0,.57.564V17.3Zm-1.473,2.209,0.048-1.081a3.424,3.424,0,0,0,.808-0.329l-0.048-.47H30.736v0.094a4.376,4.376,0,0,0-.238.47H30.451V17.674a0.838,0.838,0,0,0-.19-0.141c-0.259.347-.916,0.441-0.95,0.987a1.337,1.337,0,0,1,.095.282c0.062,0.112.252,0.168,0.333,0.282ZM21.805,17.2a0.308,0.308,0,0,1,.19.047A0.31,0.31,0,0,1,21.805,17.2Zm-5.8.188a0.253,0.253,0,0,0,.285,0H16.01Zm14.584,0.376v0.047c0.03,0.048.1,0.01,0.047,0.047a0.34,0.34,0,0,1-.19.094V18h0.143a0.416,0.416,0,0,1,.238-0.047l0.048-.188A0.6,0.6,0,0,1,30.594,17.768Zm3.753,0.282v0.094h0.095V18.05H34.347Zm0.57,0.047a2.3,2.3,0,0,1-.475.141,0.169,0.169,0,0,1,.047.094h0.237a0.193,0.193,0,0,0,.238,0c-0.117-.061-0.032.02-0.095-0.094,0.137-.052.155-0.035,0.19-0.141H34.917Zm-28.171.094v1.833h0.1a2.844,2.844,0,0,1,.855-0.7V19.272H6.936V18.191H6.746Zm0,4.794H7.268A0.3,0.3,0,0,1,7.553,22.7a0.243,0.243,0,0,0,.143.047V22.514a2.532,2.532,0,0,1,.523,0V22.232a0.231,0.231,0,0,1-.143-0.047,0.169,0.169,0,0,1-.048-0.094,1.5,1.5,0,0,1,.19-1.034A0.812,0.812,0,0,1,8.5,20.963V20.823h1.33c0,0.538,0,.648,0,1.222h0.285a0.226,0.226,0,0,0,.047.141l0.38,0.188A2.9,2.9,0,0,0,10.261,22a1.284,1.284,0,0,1,.095-0.564l-0.332-.987A4.107,4.107,0,0,0,9.549,20.4c-0.213-.29-0.206-1.048-0.665-1.081a1.461,1.461,0,0,0-.808,0l-0.048.235c0.054,0.021.223,0.054,0.1,0.094v0.047a0.987,0.987,0,0,0-.38-0.047,6.709,6.709,0,0,0-1,.752v2.585Zm1.093-3.478a0.172,0.172,0,0,0,.1.047A0.172,0.172,0,0,0,7.838,19.507ZM37.72,20.729l0.047,0.564a0.833,0.833,0,0,0,.475.047V20.87L38.1,20.823A0.7,0.7,0,0,0,37.72,20.729ZM8.409,21.01a0.409,0.409,0,0,0-.143.188,1.167,1.167,0,0,0-.143.987A1.04,1.04,0,0,0,8.5,21.95a1.967,1.967,0,0,1-.143-0.658c0.018-.057.24-0.13,0.143-0.282h-0.1Zm18.147,0.047v0.282h0.095a0.747,0.747,0,0,0,.19-0.329H26.7A0.243,0.243,0,0,1,26.556,21.057Zm-0.808.235a0.654,0.654,0,0,0,.19.235,0.843,0.843,0,0,0,.428-0.235H25.748ZM37.862,21.48h-0.57v0.047a2.88,2.88,0,0,0,.57.423V21.48Zm0.142,0a1.415,1.415,0,0,0,.048.329l-0.143-.047V21.9a0.607,0.607,0,0,1,.19.047c0.009-.169-0.071-0.1.095-0.141V21.48H38Zm-27.7.047v0.094h0.047V21.574H10.4A0.172,0.172,0,0,0,10.309,21.527Zm0.19,0.235c0,0.13-.055.1,0.143,0.141V21.809H10.594A0.172,0.172,0,0,0,10.5,21.762Zm0.048,0.282a0.441,0.441,0,0,0,.523.47V22.467h0.048V22.42a0.413,0.413,0,0,1-.428-0.376H10.546Zm0.143,0.141a0.238,0.238,0,0,1,.047.141H10.689V22.185Zm23.373,0a0.254,0.254,0,0,0,.285,0H34.062Zm-23.943.094v0.235h0.475V22.467A1.489,1.489,0,0,0,10.119,22.279Zm-1.425.094a1.313,1.313,0,0,0-.428.047v0.047H8.314v0.047a0.549,0.549,0,0,1,.38,0V22.373Zm0.9,0.141V22.373H8.741v0.094h0.1A1.885,1.885,0,0,0,9.6,22.514Zm0.048-.141v0.141h0.428V22.42A1.385,1.385,0,0,0,9.644,22.373Zm24.608,0c0.079,0.052.051,0.083,0.095,0H34.252Zm0.475,0v0.141h0.523V22.373H34.727Zm-22.9.047c0.082,0.041.061,0.042,0.143,0H11.829Zm0.475,0c0.082,0.041.061,0.042,0.143,0H12.3Zm-2.9,1.316-0.048.423,1.188,0.047-0.048-.47H10.4A2.126,2.126,0,0,1,9.406,23.736Zm1.663,0a0.254,0.254,0,0,0,.285,0H11.069Zm5.178,0a0.7,0.7,0,0,0,.285.282,5.75,5.75,0,0,0,1.378-.235V23.736H16.247Zm2.185,0a0.365,0.365,0,0,0-.143.141,1.976,1.976,0,0,0,.19.235v0.047h0.047V23.736H18.432Zm5.7,0v0.188H24.7V23.736h-0.57Zm0.713,0a0.226,0.226,0,0,0,.047.141,1.305,1.305,0,0,0,.57.047,0.172,0.172,0,0,1,.095-0.047v0.376h0.475a0.575,0.575,0,0,1,.142-0.517h-1.33Zm2.09,0H26.461l-0.19.423h0.285a0.759,0.759,0,0,1,.38-0.047V24.065A0.763,0.763,0,0,1,26.936,23.736Zm0.57,0.376V23.971h0.238a0.254,0.254,0,0,1,.142-0.188V23.736H27.268l-0.285.376h0.523Zm5.843-.376c-0.111.066-.413,0.026-0.523,0.094A0.777,0.777,0,0,0,33.349,23.736Zm-22.28.141v0.141a3.337,3.337,0,0,0-.333.188h0.047a0.245,0.245,0,0,0,.143.047,0.243,0.243,0,0,1,.143-0.047c0.041-.154.1-0.186,0.143-0.329H11.069Zm6.793,0.376V23.924c-0.427.05-.8,0.235-1.235,0.329v0.094a0.545,0.545,0,0,1,.1.141A3.787,3.787,0,0,1,17.862,24.253Zm15.772-.188v0.846L33.872,25.1V25.005A4.38,4.38,0,0,0,33.634,24.065Zm-0.237.047H33.159v0.047H33.112a1.975,1.975,0,0,0,.285.658v-0.7Zm-22.66.282v0.423h0.047V24.723a0.485,0.485,0,0,0,.1-0.282Zm16.057,0.658a1.847,1.847,0,0,1-.285,1.269H26.461V26.274C26.434,26.027,26.768,25.513,26.793,25.052Z" transform="translate(0 0.016)"/>
</svg>
