<svg xmlns="http://www.w3.org/2000/svg" width="40" height="40" viewBox="0 0 40 40">
  <defs>
    <style>
      .cls-1 {
        fill: #fff;
        fill-rule: evenodd;
      }
    </style>
  </defs>
  <path id="Color_Fill_1" data-name="Color Fill 1" class="cls-1" d="M28.416,14.375a4.141,4.141,0,0,1,1.007.336c0.7,0.26,1.4.429,2.057,0.672,1.923,0.707,3.9,1.2,5.792,1.889,0.66,0.242,1.31.4,1.931,0.63a1.038,1.038,0,0,1,.63.252v0.462a0.816,0.816,0,0,1-.042.294h0.084a0.213,0.213,0,0,0,.126.042,1.806,1.806,0,0,1-.8,1.637,1.773,1.773,0,0,1-.965.042c-0.679-.062-1.381-0.1-2.1-0.168a34.592,34.592,0,0,1-3.9-.378c-0.244-.053-0.636.074-0.965,0a17.753,17.753,0,0,0-3.19-.252,7.621,7.621,0,0,1-.671,1.175,1.963,1.963,0,0,1-.21.672H26.737a7.123,7.123,0,0,0-.588-1.553H25.771a0.12,0.12,0,0,0-.042-0.042c-0.012.109,0,.083-0.21,0.084l-2.728.5c-0.064.1-.2,0.192-0.252,0.294l-0.378,3.4c-0.3,1.232-.384,2.5-0.713,3.736a16.279,16.279,0,0,0-.588,3.19,5.339,5.339,0,0,1,1.049.462c0.908,0.4,1.808.789,2.686,1.175a2.4,2.4,0,0,1,1.217.672,2.27,2.27,0,0,1-.084,1.637,6.137,6.137,0,0,1-1.847.252c-0.576.127-1.276-.008-1.889,0.126a5.707,5.707,0,0,1-1.427.084l-0.294-.42H20.231v0.084A12.159,12.159,0,0,0,20.021,37H19.979V36.958c-0.159-.263-0.088-1.314-0.21-1.679H19.727v0.042l-0.336.42c-1.684-.3-3.343-0.058-4.995-0.378a1.907,1.907,0,0,1-.126-1.889,2.84,2.84,0,0,1,1.133-.546c0.811-.354,1.666-0.779,2.476-1.133,0.353-.154,1.239-0.318,1.259-0.756a13.381,13.381,0,0,1-.378-2.141c-0.45-1.672-.6-3.449-1.007-5.205-0.247-1.072.065-2.519-.672-3.106a1.935,1.935,0,0,1-.839-0.126l-0.756-.084a7.467,7.467,0,0,0-1.637-.252,11.863,11.863,0,0,0-.462,1.133l-0.126.42H12.8c-0.1-.523-0.66-1.855-1.217-1.847a4.171,4.171,0,0,0-.755.042c-0.644.148-1.453,0.059-2.1,0.21a9.615,9.615,0,0,1-.965,0c-0.8.145-1.9,0.1-2.728,0.294l-1.049.042c-0.323.073-.719,0-1.091,0.084a5.88,5.88,0,0,1-2.183.084A2.819,2.819,0,0,1,0,18.951H0.168a5.181,5.181,0,0,1,.042-0.84c2.06-.894,4.356-1.343,6.506-2.141,1.089-.4,2.218-0.712,3.358-1.091a9.414,9.414,0,0,1,1.511-.5,19.56,19.56,0,0,1,.126-4.155,2.091,2.091,0,0,1,.378-1.133h1.595c0.625,1.006.54,2.772,0.546,4.407h0.084a2.561,2.561,0,0,1,.63-0.21,7.258,7.258,0,0,0,2.434-1.007,8.521,8.521,0,0,1,.252-2.267c0.119-.477.079-0.884,0.21-1.343,0.345-1.213.667-2.473,1.091-3.61C19.162,4.434,19.361,3,20.147,3a0.152,0.152,0,0,0,.084.042c1.033,1.719,1.486,4.061,2.057,6.212l0.336,2.267a3.094,3.094,0,0,0,.042.755,1.074,1.074,0,0,0,.839.462l2.267,0.755V12.025a5.606,5.606,0,0,0,.042-1.217c0.1-.445.183-1.573,0.5-1.721h1.595C28.628,10.238,28.411,12.539,28.416,14.375Z"/>
</svg>
