<svg xmlns="http://www.w3.org/2000/svg" width="39.969" height="40" viewBox="0 0 39.969 40">
  <defs>
    <style>
      .cls-1 {
        fill: #fff;
        fill-rule: evenodd;
      }
    </style>
  </defs>
  <path id="Color_Fill_1" data-name="Color Fill 1" class="cls-1" d="M14.579,5.859a8.688,8.688,0,0,1,2.43.242V6.128a21.8,21.8,0,0,1-2.3.107,3.384,3.384,0,0,0,.134.618l0.027,0.322a0.986,0.986,0,0,1,.133.269h0.08c0,0.762.051,1.513,0.053,2.309H15.114a0.107,0.107,0,0,0-.133,0,1.473,1.473,0,0,0-.027.564,0.872,0.872,0,0,0,.267.027,4.537,4.537,0,0,1,.935-0.081c0.3-.065.635-0.009,0.961-0.081a8.952,8.952,0,0,1,1.389-.134,0.668,0.668,0,0,1,.107-0.134,9.339,9.339,0,0,1,.347-2.9,1.789,1.789,0,0,1,.427-0.967,1.986,1.986,0,0,1,1.228,0c0.047,0.148.179,0.284,0.24,0.43a6.624,6.624,0,0,1,.454,2.417c0,0.369-.088,1.133.267,1.155a4.69,4.69,0,0,0,.961.081,9.884,9.884,0,0,0,1.816.161,1.771,1.771,0,0,1,.053-0.859,0.961,0.961,0,0,1,.4-0.027l0.053-1.96h0.08a3.664,3.664,0,0,1,.16-0.349c0.091-.3.058-0.592,0.16-0.859H25.18a1.36,1.36,0,0,1-.614,0A10.7,10.7,0,0,1,22.937,6.1l-0.027-.054h0.053a2.093,2.093,0,0,1,.668-0.107,8.633,8.633,0,0,1,1.736-.081,1.063,1.063,0,0,1,.587-0.779,0.363,0.363,0,0,1,.374,0,0.98,0.98,0,0,1,.481.51l0.107,0.269h0.668a16.544,16.544,0,0,1,1.923.215,0.1,0.1,0,0,1-.053.027,2.908,2.908,0,0,1-.828.081,8.571,8.571,0,0,1-1.6.054V6.289a3.519,3.519,0,0,1,.16.806c0.05,0.159.223,0.287,0.267,0.43l0.027,2.2H27.263V9.753a2.217,2.217,0,0,1,.027.806,7.907,7.907,0,0,1,2.083.3c0.744,0.186,1.532.194,2.243,0.376,0.383,0.1.738,0.065,1.122,0.161,1.275,0.321,2.678.38,3.952,0.7,1,0.251,2.562.167,3.071,0.886a2.549,2.549,0,0,1,.107.591c0.115-.005.11-0.032,0.107,0.134a1.978,1.978,0,0,0-.08.349,1.769,1.769,0,0,1-.694.806,4.146,4.146,0,0,1-1.095.376l-0.561.054c-0.818.2-1.75,0.193-2.563,0.4l-0.748.081-4.673.725c-0.43.111-.877,0.081-1.282,0.188a0.53,0.53,0,0,1-.347,0,9.078,9.078,0,0,1-1.976.4c-1.457.376-3.037,0.547-4.513,0.859a0.406,0.406,0,0,0-.053.107,1.438,1.438,0,0,1,.08.913c-0.032.134-.1,0.3-0.133,0.43a7.025,7.025,0,0,0-.053,1.477H21.175V19.983H21.148v0.054c-0.381.311-.108,1.668-0.24,2.282l-0.267,4.619c-0.078.362,0,.8-0.08,1.181a5.133,5.133,0,0,0-.053,1.719c1.346,0.338,2.915.433,4.3,0.779a4.6,4.6,0,0,1,1.843.483,1.241,1.241,0,0,1,.294,1.235,0.129,0.129,0,0,0-.08.027,0.361,0.361,0,0,1-.08.322,1.587,1.587,0,0,1-.8.51c-0.417.131-.9,0.024-1.362,0.134-0.433.1-1.047,0.1-1.522,0.215l-0.534.027a4.641,4.641,0,0,1-1.228.107,1.189,1.189,0,0,0-.107-0.161c-0.153.077-.489-0.115-0.748-0.054l-0.24.081a0.886,0.886,0,0,0-.214.456,0.128,0.128,0,0,1-.08-0.027,0.735,0.735,0,0,0-.294-0.43,1.391,1.391,0,0,0-.935,0,0.383,0.383,0,0,1-.454.134c-0.934-.2-2.053-0.14-2.937-0.349L14.74,33.3a3.159,3.159,0,0,1-1.228-.349,1.214,1.214,0,0,1-.561-1.208c0.225-.926.96-0.85,1.869-1.074,0.938-.231,1.976-0.28,2.91-0.51a8.514,8.514,0,0,0,1.682-.3,0.369,0.369,0,0,0,.107-0.322,3.234,3.234,0,0,1-.053-0.806c-0.106-.489,0-1.071-0.107-1.584-0.139-.644-0.02-1.417-0.16-2.068V24.6c-0.058-.27-0.022-0.643-0.08-0.913V23.152c-0.07-.327.024-0.715-0.053-1.074a9.627,9.627,0,0,1-.08-1.853c-0.116-.049-0.1-0.16-0.214-0.215v0.618a0.331,0.331,0,0,1,0,.242h-0.08a5.547,5.547,0,0,0-.027-0.886V19.661A2.564,2.564,0,0,1,18.585,18a0.573,0.573,0,0,0-.24-0.081,2.776,2.776,0,0,0-.721-0.134c-0.416-.108-0.864-0.127-1.308-0.242-0.7-.182-1.457-0.213-2.19-0.4a17.886,17.886,0,0,0-2.11-.4,0.13,0.13,0,0,0-.027-0.081,1.65,1.65,0,0,1-.694-0.027c-0.394-.1-0.834-0.082-1.255-0.188A3.937,3.937,0,0,0,9.132,16.3v0.027H9.105A2.394,2.394,0,0,0,8.6,16.224c-0.443-.111-0.974-0.128-1.415-0.242l-0.507-.054a11.15,11.15,0,0,0-1.469-.215c-0.965-.24-2.055-0.236-3.017-0.483-0.313-.081-0.6-0.04-0.881-0.134A1.635,1.635,0,0,1,0,13.539c0.076,0.009.055,0.028,0.107,0,0.071-.117-0.017-0.392.053-0.51a1.8,1.8,0,0,1,1.362-.644,6.013,6.013,0,0,1,.027-1.37,7.7,7.7,0,0,0,.027,1.343H1.682A3.853,3.853,0,0,1,2.644,12.2c0.713-.18,1.475-0.189,2.216-0.376,0.814-.205,1.721-0.252,2.537-0.457l0.8-.107c0.653-.168,1.37-0.178,2.056-0.349a12.106,12.106,0,0,1,1.869-.322C12.1,10.209,12.094,9.8,12.1,9.4H12.47c0-.669.025-1.325,0.053-1.96H12.6a0.881,0.881,0,0,1,.16-0.3c0.069-.157-0.019-0.468.053-0.618a0.875,0.875,0,0,0,.107-0.3,11.258,11.258,0,0,1-2.51-.161V6.047h0.027a1.612,1.612,0,0,1,.587-0.107,10.118,10.118,0,0,1,2-.081,1.516,1.516,0,0,1,.534-0.779C14.05,4.821,14.53,5.493,14.579,5.859Z" transform="translate(0 0.5)"/>
</svg>
