<svg xmlns="http://www.w3.org/2000/svg" width="39.969" height="40" viewBox="0 0 39.969 40">
  <defs>
    <style>
      .cls-1 {
        fill: #fff;
        fill-rule: evenodd;
      }
    </style>
  </defs>
  <path id="Color_Fill_1" data-name="Color Fill 1" class="cls-1" d="M19.84,5h0.267c-0.01.439-.052,0.944-0.053,1.45a2.652,2.652,0,0,1,.561.105c0.047,0.145.179,0.278,0.24,0.422a6.4,6.4,0,0,1,.454,2.373c0,0.362-.088,1.113.267,1.134a4.768,4.768,0,0,0,.961.079,10.063,10.063,0,0,0,1.816.158,1.708,1.708,0,0,1,.053-0.844,0.979,0.979,0,0,1,.4-0.026L24.86,7.926h0.08a3.567,3.567,0,0,1,.16-0.343c0.091-.3.058-0.582,0.16-0.844H25.18a1.384,1.384,0,0,1-.614,0,10.892,10.892,0,0,1-1.629-.132l-0.027-.053h0.053a2.129,2.129,0,0,1,.668-0.105,8.79,8.79,0,0,1,1.736-.079,1.047,1.047,0,0,1,.587-0.765,0.369,0.369,0,0,1,.374,0,0.97,0.97,0,0,1,.481.5l0.107,0.264h0.668a16.836,16.836,0,0,1,1.923.211,0.1,0.1,0,0,1-.053.026,2.959,2.959,0,0,1-.828.079,8.729,8.729,0,0,1-1.6.053V6.793a3.4,3.4,0,0,1,.16.791c0.05,0.157.223,0.282,0.267,0.422l0.027,2.162H27.263v0.026a2.139,2.139,0,0,1,.027.791,8.046,8.046,0,0,1,2.083.29c0.744,0.183,1.532.19,2.243,0.369,0.383,0.1.738,0.064,1.122,0.158,1.275,0.315,2.678.373,3.952,0.685,1,0.246,2.562.164,3.071,0.87a2.462,2.462,0,0,1,.107.58c0.115-.005.11-0.032,0.107,0.132a1.912,1.912,0,0,0-.08.343,1.689,1.689,0,0,1-.534.686c-0.806.572-2.168,0.482-3.284,0.765l-0.748.079c-0.57.137-1.247,0.146-1.816,0.29l-0.561.053c-0.621.149-1.3,0.133-1.949,0.29-0.746.18-1.6,0.18-2.35,0.369a2.945,2.945,0,0,1-.721.053,1.973,1.973,0,0,1-.668.158c-0.549.139-1.187,0.2-1.736,0.343l-0.587.079c-0.744.188-1.582,0.249-2.323,0.448a3.222,3.222,0,0,0-1.255.29,1.241,1.241,0,0,1,.107.923c-0.032.131-.1,0.294-0.133,0.422a6.806,6.806,0,0,0-.053,1.45H21.175v-0.87H21.148v0.053c-0.381.306-.108,1.638-0.24,2.241l-0.267,4.535c-0.078.356,0,.781-0.08,1.16a4.949,4.949,0,0,0-.053,1.687c1.346,0.332,2.915.425,4.3,0.765a4.667,4.667,0,0,1,1.843.474,1.2,1.2,0,0,1,.294,1.213,0.13,0.13,0,0,0-.08.026,0.753,0.753,0,0,1-.32.554,3.482,3.482,0,0,1-1.576.369,1.425,1.425,0,0,1-.507.026V33.42l-2.19.184a3.693,3.693,0,0,1-.935.079,1.173,1.173,0,0,0-.107-0.158c-0.153.076-.489-0.113-0.748-0.053l-0.24.079a0.863,0.863,0,0,0-.214.448,0.13,0.13,0,0,1-.08-0.026,0.722,0.722,0,0,0-.294-0.422,1.492,1.492,0,0,0-.935,0c-0.045.029-.084,0.133-0.133,0.158-0.068-.011-0.222-0.005-0.32-0.026-0.933-.2-2.053-0.136-2.937-0.343l-0.587-.026a3.209,3.209,0,0,1-1.228-.343,1.074,1.074,0,0,1-.294-0.211,1.576,1.576,0,0,1-.267-0.975c0.226-.911.96-0.832,1.869-1.055,0.937-.229,1.977-0.274,2.91-0.5a8.677,8.677,0,0,0,1.682-.29,0.358,0.358,0,0,0,.107-0.316,3.118,3.118,0,0,1-.053-0.791c-0.106-.48,0-1.052-0.107-1.555-0.139-.632-0.02-1.391-0.16-2.03V24.773c-0.058-.265-0.022-0.631-0.08-0.9V23.349c-0.07-.321.024-0.7-0.053-1.055a9.281,9.281,0,0,1-.08-1.819c-0.116-.048-0.1-0.157-0.214-0.211v0.606a0.32,0.32,0,0,1,0,.237h-0.08a5.348,5.348,0,0,0-.027-0.87V19.922a2.474,2.474,0,0,1-.08-1.635,0.58,0.58,0,0,0-.24-0.079,2.817,2.817,0,0,0-.721-0.132c-0.416-.106-0.864-0.124-1.308-0.237-0.7-.179-1.457-0.21-2.19-0.4a18.188,18.188,0,0,0-2.11-.4,0.126,0.126,0,0,0-.027-0.079,1.679,1.679,0,0,1-.694-0.026c-0.394-.1-0.834-0.081-1.255-0.184a4,4,0,0,0-.908-0.132v0.026H9.105A2.436,2.436,0,0,0,8.6,16.547c-0.443-.109-0.974-0.126-1.415-0.237l-0.507-.053a11.334,11.334,0,0,0-1.469-.211c-0.965-.236-2.055-0.232-3.017-0.475-0.313-.079-0.6-0.039-0.881-0.132A1.615,1.615,0,0,1,0,13.911c0.076,0.008.055,0.028,0.107,0,0.071-.114-0.017-0.385.053-0.5a1.808,1.808,0,0,1,1.362-.633,5.8,5.8,0,0,1,.027-1.345,7.422,7.422,0,0,0,.027,1.318H1.682a3.926,3.926,0,0,1,.961-0.158c0.713-.177,1.475-0.186,2.216-0.369,0.814-.2,1.721-0.248,2.537-0.448l0.8-.105c0.653-.165,1.37-0.174,2.056-0.343a12.309,12.309,0,0,1,1.869-.316c-0.025-.37-0.029-0.766-0.027-1.16H12.47c0-.657.025-1.3,0.053-1.925H12.6a0.86,0.86,0,0,1,.16-0.29c0.069-.154-0.019-0.459.053-0.606a0.849,0.849,0,0,0,.107-0.29,11.463,11.463,0,0,1-2.51-.158V6.555h0.027a1.638,1.638,0,0,1,.587-0.105,10.3,10.3,0,0,1,2-.079,1.488,1.488,0,0,1,.534-0.765c0.485-.255.965,0.4,1.015,0.765a8.843,8.843,0,0,1,2.43.237V6.635a22.2,22.2,0,0,1-2.3.105,3.27,3.27,0,0,0,.134.606l0.027,0.316a0.962,0.962,0,0,1,.133.264h0.08c0,0.748.051,1.486,0.053,2.267H15.114a0.108,0.108,0,0,0-.133,0,1.421,1.421,0,0,0-.027.554,0.887,0.887,0,0,0,.267.026,4.628,4.628,0,0,1,.935-0.079c0.3-.063.635-0.009,0.961-0.079a9.1,9.1,0,0,1,1.389-.132,0.658,0.658,0,0,1,.107-0.132A9.012,9.012,0,0,1,18.959,7.5a1.742,1.742,0,0,1,.427-0.949,0.917,0.917,0,0,1,.507-0.105C19.9,5.949,19.872,5.431,19.84,5Z" transform="translate(0 0.5)"/>
</svg>
