<svg xmlns="http://www.w3.org/2000/svg" width="40" height="40" viewBox="0 0 40 40">
  <defs>
    <style>
      .cls-1 {
        fill: #fff;
        fill-rule: evenodd;
      }
    </style>
  </defs>
  <path id="Color_Fill_1" data-name="Color Fill 1" class="cls-1" d="M14.582,5.855a16.915,16.915,0,0,1,2.44.228,0.1,0.1,0,0,1-.057.028,2.115,2.115,0,0,1-.823.085c-0.421.039-.951,0.03-1.418,0.028a3.316,3.316,0,0,0,.142.684V7.137c0,0.013.12,0.249,0.142,0.285L15.092,7.45l0.028,0.712q0.014,0.783.028,1.567h-0.17v0.627l3.546-.313a5.726,5.726,0,0,0,.142-1.453c0.165-.748.244-2.2,0.738-2.535a1.917,1.917,0,0,1,1.22,0,7.638,7.638,0,0,1,.681,2.336,5.844,5.844,0,0,0,.142,1.624,2.271,2.271,0,0,0,.738.085c0.3,0.066.658,0.012,0.993,0.085a6.964,6.964,0,0,0,1.192.114c0-.308.02-0.612,0.028-0.883h0.425a19.179,19.179,0,0,0,.057-1.966h0.085a0.926,0.926,0,0,1,.142-0.285V6.994c0.061-.235.088-0.518,0.17-0.741H24.454A1.241,1.241,0,0,0,24,6.225a2.533,2.533,0,0,1-1.021-.142,0.1,0.1,0,0,1-.028-0.057,22.171,22.171,0,0,1,2.44-.171c0.057-.3.557-1.073,0.965-0.769a1.053,1.053,0,0,1,.567.769,8.539,8.539,0,0,1,1.9.114,1.193,1.193,0,0,1,.709.142H29.39a1.891,1.891,0,0,1-.539.057,9.293,9.293,0,0,1-1.816.057V6.253c0.175,0.282.1,1.1,0.425,1.2l0.057,2.279H27.291v0.826a7.319,7.319,0,0,1,1.844.256c0.626,0.157,1.275.164,1.872,0.313l0.851,0.114c1.405,0.363,2.956.416,4.369,0.769a21.083,21.083,0,0,1,3.035.57,1.979,1.979,0,0,1,.6.513v0.456H40c-0.009,1.113-.921,1.446-1.816,1.681l-0.794.085c-0.492.117-1.035,0.1-1.56,0.228-1.325.315-2.772,0.355-4.113,0.627a0.138,0.138,0,0,0-.028-0.086v0.086a5.964,5.964,0,0,0-.823.142c-0.526.131-1.069,0.107-1.56,0.228l-0.794.086c-0.506.124-1.067,0.185-1.56,0.313-0.928.242-1.906,0.274-2.809,0.513-0.615.163-1.255,0.189-1.844,0.342a1.72,1.72,0,0,1-.794.057,0.23,0.23,0,0,1-.113.171,1.144,1.144,0,0,1,.113.8,9.517,9.517,0,0,0-.2,2.051H21.192V19.984H21.163v0.057a1.473,1.473,0,0,0-.17.2q-0.043,1.239-.085,2.478l-0.284,4.757c-0.055.256,0.006,0.565-.057,0.855a4.3,4.3,0,0,0-.057,1.481,9.345,9.345,0,0,0,1.39.285c0.935,0.235,1.984.28,2.922,0.513a10.523,10.523,0,0,1,1.39.285,0.994,0.994,0,0,1,.794,1.139,0.771,0.771,0,0,1-.057.285c-0.022.019-.063,0.037-0.085,0.057,0.17,0.134-.217.431-0.312,0.513a3.528,3.528,0,0,1-2.043.456,0.138,0.138,0,0,0-.028-0.085V33.4l-3.092.285c-0.041-.062-0.092-0.137-0.142-0.2a1.875,1.875,0,0,1-.652-0.029,0.138,0.138,0,0,0-.028-0.085v0.085a1.709,1.709,0,0,0-.312.085,2.5,2.5,0,0,0-.227.456,0.1,0.1,0,0,1-.057-0.029,0.753,0.753,0,0,0-.284-0.427,1.124,1.124,0,0,0-.879-0.028,0.467,0.467,0,0,1-.369.171c-0.469-.09-1.013-0.033-1.5-0.142a7.065,7.065,0,0,0-1.418-.142,0.3,0.3,0,0,0-.028-0.171v0.114c-1,.006-2.23-0.138-2.411-0.969a0.1,0.1,0,0,0,.057-0.028c-0.092-.024-0.043.014-0.085-0.057a1.075,1.075,0,0,1,.511-1.339,10.978,10.978,0,0,1,2.326-.456c0.654-.158,1.36-0.173,2.043-0.342a6.953,6.953,0,0,1,1.39-.228,0.585,0.585,0,0,1,.142-0.085c0.037-.031.05-0.108,0.085-0.143l-0.369-5.3V23.916c-0.071-.329-0.013-0.778-0.085-1.111q-0.043-1.268-.085-2.535a1.863,1.863,0,0,1-.17-0.285H18.809v0.883H18.7V19.842a4.034,4.034,0,0,1-.113-1.852A0.483,0.483,0,0,0,18.3,17.9a4.267,4.267,0,0,0-1.078-.2c-0.894-.232-1.856-0.273-2.78-0.513-0.482-.125-1.053-0.185-1.532-0.313a4.186,4.186,0,0,1-.879-0.2c-0.016-.009-0.634-0.025-0.766-0.057-0.661-.162-1.444-0.158-2.1-0.342-0.036-.01-0.027.043-0.057,0.057A2.268,2.268,0,0,0,8.369,16.2c-0.457-.111-1.016-0.14-1.475-0.256l-0.6-.057c-0.59-.144-1.284-0.164-1.872-0.313C2.8,15.158-.015,15.538,0,13.546H0.113a1.765,1.765,0,0,0,.028-0.484c0.138-.1.227-0.275,0.369-0.37a2.624,2.624,0,0,1,1.021-.313,5.89,5.89,0,0,1,.028-1.367v1.367H1.617a3.248,3.248,0,0,1,.823-0.142c0.7-.177,1.459-0.188,2.184-0.37,0.486-.122,1.019-0.124,1.532-0.256s1.112-.144,1.674-0.285c1.379-.346,2.878-0.448,4.284-0.741V10.27a1.921,1.921,0,0,1,0-.855c0.17,0,.251-0.007.369,0q0.014-.983.028-1.966H12.6a1.292,1.292,0,0,1,.17-0.285c0.073-.159-0.017-0.473.057-0.627a0.924,0.924,0,0,0,.114-0.313,8.431,8.431,0,0,1-2.5-.142l-0.028-.057h0.057a1.805,1.805,0,0,1,.567-0.085,10.213,10.213,0,0,1,2.014-.085c0.15-.634.786-1.168,1.277-0.484A1.055,1.055,0,0,1,14.582,5.855Zm18.723,9.97v0.057h0.028A0.1,0.1,0,0,0,33.305,15.825Z" transform="translate(0 0.5)"/>
</svg>
