<?xml version="1.0" encoding="UTF-8"?>
<svg xmlns="http://www.w3.org/2000/svg" width="90" height="90" xmlns:xlink="http://www.w3.org/1999/xlink" viewBox="0 0 90 90">
  <defs>
    <style>
      .cls-1 {
        fill: url(#linear-gradient-8);
      }

      .cls-1, .cls-2, .cls-3, .cls-4, .cls-5, .cls-6, .cls-7, .cls-8, .cls-9, .cls-10, .cls-11, .cls-12, .cls-13, .cls-14, .cls-15, .cls-16, .cls-17, .cls-18, .cls-19, .cls-20, .cls-21, .cls-22, .cls-23, .cls-24, .cls-25, .cls-26, .cls-27, .cls-28, .cls-29, .cls-30, .cls-31, .cls-32, .cls-33, .cls-34, .cls-35, .cls-36, .cls-37, .cls-38, .cls-39, .cls-40, .cls-41, .cls-42, .cls-43, .cls-44 {
        stroke-width: 0px;
      }

      .cls-1, .cls-3, .cls-4, .cls-5, .cls-6, .cls-7, .cls-8, .cls-9, .cls-11, .cls-12, .cls-14, .cls-17, .cls-19, .cls-20, .cls-21, .cls-22, .cls-23, .cls-24, .cls-25, .cls-27, .cls-28, .cls-30, .cls-31, .cls-32, .cls-33, .cls-35, .cls-36, .cls-37, .cls-38, .cls-41, .cls-42, .cls-43 {
        fill-rule: evenodd;
      }

      .cls-2 {
        fill: url(#linear-gradient-12);
      }

      .cls-3 {
        fill: url(#linear-gradient-3);
      }

      .cls-3, .cls-7, .cls-27, .cls-32 {
        opacity: .9;
      }

      .cls-4 {
        fill: url(#linear-gradient-7);
      }

      .cls-5 {
        fill: #cecece;
      }

      .cls-6 {
        opacity: .4;
      }

      .cls-7 {
        fill: #313131;
      }

      .cls-8 {
        fill: url(#linear-gradient-18);
      }

      .cls-45 {
        isolation: isolate;
      }

      .cls-9 {
        fill: #28241f;
      }

      .cls-10 {
        fill: url(#linear-gradient-11);
      }

      .cls-11 {
        fill: #ededed;
      }

      .cls-12 {
        fill: #5b5b5a;
      }

      .cls-12, .cls-17 {
        mix-blend-mode: multiply;
      }

      .cls-13 {
        fill: none;
      }

      .cls-14 {
        fill: url(#linear-gradient-23);
      }

      .cls-15 {
        fill: url(#linear-gradient-16);
      }

      .cls-16 {
        fill: url(#linear-gradient-22);
      }

      .cls-17 {
        fill: #666;
        opacity: .78;
      }

      .cls-18, .cls-24 {
        fill: #fff;
      }

      .cls-19 {
        fill: url(#linear-gradient-17);
      }

      .cls-20 {
        fill: url(#linear-gradient);
      }

      .cls-21 {
        fill: url(#linear-gradient-13);
      }

      .cls-22 {
        fill: url(#linear-gradient-20);
      }

      .cls-23 {
        opacity: .2;
      }

      .cls-25 {
        fill: url(#linear-gradient-15);
      }

      .cls-46 {
        clip-path: url(#clippath);
      }

      .cls-26 {
        fill: url(#linear-gradient-9);
      }

      .cls-27 {
        fill: url(#linear-gradient-5);
      }

      .cls-28 {
        fill: url(#linear-gradient-24);
      }

      .cls-29 {
        opacity: .2;
      }

      .cls-29, .cls-40 {
        fill: #141312;
      }

      .cls-30 {
        fill: url(#linear-gradient-19);
      }

      .cls-31 {
        opacity: .3;
      }

      .cls-32 {
        fill: url(#linear-gradient-2);
      }

      .cls-33 {
        fill: url(#linear-gradient-14);
      }

      .cls-34 {
        fill: url(#linear-gradient-10);
      }

      .cls-35 {
        fill: #e5e5e5;
        opacity: .19;
      }

      .cls-36 {
        fill: #a5a5a5;
      }

      .cls-37 {
        fill: url(#linear-gradient-25);
      }

      .cls-38 {
        fill: url(#linear-gradient-6);
      }

      .cls-39 {
        fill: #fcfcfc;
      }

      .cls-40 {
        opacity: .3;
      }

      .cls-41 {
        fill: url(#linear-gradient-4);
      }

      .cls-42 {
        fill: url(#linear-gradient-21);
      }

      .cls-43 {
        fill: url(#linear-gradient-26);
      }

      .cls-44 {
        fill: #585858;
        opacity: .55;
      }
    </style>
    <linearGradient id="linear-gradient" x1="44.2" y1="20.38" x2="44.64" y2="14.63" gradientUnits="userSpaceOnUse">
      <stop offset="0" stop-color="#b0b0b0"/>
      <stop offset=".49" stop-color="#363636"/>
      <stop offset="1" stop-color="#141312"/>
    </linearGradient>
    <linearGradient id="linear-gradient-2" x1="44.72" y1="18.05" x2="44.71" y2="13.45" gradientUnits="userSpaceOnUse">
      <stop offset="0" stop-color="#fff"/>
      <stop offset=".73" stop-color="#787878"/>
      <stop offset=".91" stop-color="#2b2b2b"/>
      <stop offset=".99" stop-color="#424242"/>
    </linearGradient>
    <linearGradient id="linear-gradient-3" x1="41.44" y1="13.35" x2="47.97" y2="13.35" gradientUnits="userSpaceOnUse">
      <stop offset=".49" stop-color="#363636"/>
      <stop offset=".56" stop-color="#fcfcfc"/>
      <stop offset="1" stop-color="#141312"/>
    </linearGradient>
    <linearGradient id="linear-gradient-4" x1="44.82" y1="24.25" x2="44.68" y2="29.11" xlink:href="#linear-gradient"/>
    <linearGradient id="linear-gradient-5" x1="42.29" y1="23.51" x2="46.85" y2="31.41" gradientUnits="userSpaceOnUse">
      <stop offset=".15" stop-color="#fcfcfc"/>
      <stop offset=".4" stop-color="#363636"/>
      <stop offset="1" stop-color="#141312"/>
    </linearGradient>
    <linearGradient id="linear-gradient-6" x1="44.74" y1="18.05" x2="44.66" y2="26.02" xlink:href="#linear-gradient"/>
    <linearGradient id="linear-gradient-7" x1="44.8" y1="17.61" x2="44.8" y2="24.55" xlink:href="#linear-gradient-2"/>
    <linearGradient id="linear-gradient-8" x1="44.81" y1="23.98" x2="44.79" y2="25.22" xlink:href="#linear-gradient-2"/>
    <linearGradient id="linear-gradient-9" x1="44.55" y1="1.5" x2="44.55" y2="14.5" xlink:href="#linear-gradient"/>
    <linearGradient id="linear-gradient-10" x1="44.55" y1="3.34" x2="44.55" y2="15.64" xlink:href="#linear-gradient-2"/>
    <linearGradient id="linear-gradient-11" x1="138.96" y1="63.31" x2="131.07" y2="62.79" gradientTransform="translate(91.8 1.47) rotate(78.37)" gradientUnits="userSpaceOnUse">
      <stop offset="0" stop-color="#b0b0b0"/>
      <stop offset=".23" stop-color="#363636"/>
      <stop offset="1" stop-color="#141312"/>
    </linearGradient>
    <linearGradient id="linear-gradient-12" x1="44.34" y1="29.37" x2="45.66" y2="84.73" gradientTransform="translate(94.16 3.55) rotate(80.85)" gradientUnits="userSpaceOnUse">
      <stop offset="0" stop-color="#8c8c8c"/>
      <stop offset=".49" stop-color="#636363"/>
      <stop offset="1" stop-color="#494949"/>
    </linearGradient>
    <linearGradient id="linear-gradient-13" x1="44.47" y1="34.68" x2="45.52" y2="78.74" xlink:href="#linear-gradient"/>
    <linearGradient id="linear-gradient-14" x1="44.8" y1="39.11" x2="45.24" y2="78.97" gradientUnits="userSpaceOnUse">
      <stop offset="0" stop-color="#efefef"/>
      <stop offset=".71" stop-color="#414141"/>
      <stop offset="1" stop-color="#121212"/>
    </linearGradient>
    <clipPath id="clippath">
      <rect class="cls-13" x="18.48" y="30.47" width="53.04" height="53.04"/>
    </clipPath>
    <linearGradient id="linear-gradient-15" x1="53.38" y1="69.28" x2="44.71" y2="55.62" gradientUnits="userSpaceOnUse">
      <stop offset="0" stop-color="#545454"/>
      <stop offset=".55" stop-color="#909090"/>
      <stop offset="1" stop-color="#fff"/>
    </linearGradient>
    <linearGradient id="linear-gradient-16" x1="43.7" y1="31.29" x2="46.83" y2="74.24" gradientUnits="userSpaceOnUse">
      <stop offset=".02" stop-color="#5c5c5c"/>
      <stop offset=".09" stop-color="#8a8a8a"/>
      <stop offset=".49" stop-color="#363636"/>
      <stop offset="1" stop-color="#141312"/>
    </linearGradient>
    <linearGradient id="linear-gradient-17" x1="51.53" y1="67.18" x2="46.67" y2="57.46" gradientUnits="userSpaceOnUse">
      <stop offset="0" stop-color="#545454"/>
      <stop offset=".55" stop-color="#909090"/>
      <stop offset="1" stop-color="#fff"/>
    </linearGradient>
    <linearGradient id="linear-gradient-18" x1="46.33" y1="43.95" x2="40.96" y2="42.75" gradientUnits="userSpaceOnUse">
      <stop offset="0" stop-color="#fff"/>
      <stop offset=".8" stop-color="#d1d1d1"/>
    </linearGradient>
    <linearGradient id="linear-gradient-19" x1="46.94" y1="51.31" x2="54.64" y2="68.02" xlink:href="#linear-gradient-17"/>
    <linearGradient id="linear-gradient-20" x1="46.85" y1="54.57" x2="69.12" y2="54.57" gradientUnits="userSpaceOnUse">
      <stop offset="0" stop-color="#201f1f"/>
      <stop offset=".8" stop-color="#494949"/>
    </linearGradient>
    <linearGradient id="linear-gradient-21" x1="49.36" y1="46.56" x2="59.85" y2="53.82" gradientUnits="userSpaceOnUse">
      <stop offset="0" stop-color="#545454"/>
      <stop offset=".19" stop-color="#909090"/>
      <stop offset="1" stop-color="#fff"/>
    </linearGradient>
    <linearGradient id="linear-gradient-22" x1="43.87" y1="40.39" x2="57.19" y2="65.79" xlink:href="#linear-gradient"/>
    <linearGradient id="linear-gradient-23" x1="48.08" y1="62.18" x2="53.99" y2="75.58" gradientUnits="userSpaceOnUse">
      <stop offset="0" stop-color="#464646"/>
      <stop offset=".8" stop-color="#545454"/>
    </linearGradient>
    <linearGradient id="linear-gradient-24" x1="37.12" y1="67.22" x2="40.95" y2="76.01" xlink:href="#linear-gradient-20"/>
    <linearGradient id="linear-gradient-25" x1="35.68" y1="54.48" x2="37.06" y2="73.38" gradientUnits="userSpaceOnUse">
      <stop offset="0" stop-color="#545454"/>
      <stop offset=".43" stop-color="#909090"/>
      <stop offset="1" stop-color="#fff"/>
    </linearGradient>
    <linearGradient id="linear-gradient-26" x1="20.88" x2="43.15" xlink:href="#linear-gradient-20"/>
  </defs>
  <g class="cls-45">
    <g id="Layer_1" data-name="Layer 1">
      <g id="medal_bonus">
        <g id="shadows">
          <path class="cls-31" d="m39,27.6c.06-1.85,1.98-3.46,3.31-4.41,0-.37,0-.85,0-1.22-1.18-.86-2.04-3.23-2.26-4.84h-21.45c-1.83,0-3.38-1.52-3.38-3.48V4.98c0-1.96,1.55-3.48,3.38-3.48h51.9c1.83,0,3.38,1.52,3.38,3.48v8.66c0,1.96-1.55,3.48-3.38,3.48h-21.14c-.22,1.61-1.08,3.98-2.26,4.84v1.22c1.31.94,3.21,2.5,3.31,4.31,14.39,2.56,25.33,15.15,25.33,30.27,0,16.97-13.78,30.75-30.75,30.75s-30.75-13.78-30.75-30.75c0-14.92,10.65-27.37,24.75-30.16Z"/>
          <path class="cls-6" d="m42.78,15.5v1.06c0,.9.5,1.67,1.21,1.99.04-.02.08-.03.12-.05.13-.12.39-.2.69-.2s.57.09.69.21c.67-.34,1.13-1.08,1.13-1.95v-1.06h-3.84Zm.59,10.48c-.36.38-.59.92-.59,1.52v1.18c.73-.05,1.47-.08,2.22-.08.55,0,1.09.01,1.63.04v-1.14c0-.6-.23-1.14-.59-1.52-.24.4-.74.67-1.33.67s-1.09-.28-1.33-.67Zm5.17,2.83c14.58,1.75,25.9,14.19,25.9,29.24,0,16.26-13.2,29.45-29.45,29.45s-29.45-13.2-29.45-29.45c0-14.85,11.02-27.15,25.32-29.16v-1.48c0-1.66,1-3.06,2.37-3.53v-3.63c-1.37-.48-2.37-1.9-2.37-3.59v-1.16h-22.86c-.8,0-1.45-.7-1.45-1.56V4.06c0-.86.65-1.56,1.45-1.56h53.09c.8,0,1.45.7,1.45,1.56v9.88c0,.86-.65,1.56-1.45,1.56h-22.55v1.16c0,1.68-1,3.11-2.37,3.59v3.63c1.37.47,2.37,1.87,2.37,3.53v1.4Z"/>
          <path class="cls-23" d="m42.78,16.5v1.06c0,.9.5,1.67,1.21,1.99.04-.02.08-.03.12-.05.13-.12.39-.2.69-.2s.57.09.69.21c.67-.34,1.13-1.08,1.13-1.95v-1.06h-3.84Zm.59,10.48c-.36.38-.59.92-.59,1.52v1.18c.73-.05,1.47-.08,2.22-.08.55,0,1.09.01,1.63.04v-1.14c0-.6-.23-1.14-.59-1.52-.24.4-.74.67-1.33.67s-1.09-.28-1.33-.67Zm5.17,2.83c14.58,1.75,25.9,14.19,25.9,29.24,0,16.26-13.2,29.45-29.45,29.45s-29.45-13.2-29.45-29.45c0-14.85,11.02-27.15,25.32-29.16v-1.48c0-1.66,1-3.06,2.37-3.53v-3.63c-1.37-.48-2.37-1.9-2.37-3.59v-1.16h-22.86c-.8,0-1.45-.7-1.45-1.56V5.06c0-.86.65-1.56,1.45-1.56h53.09c.8,0,1.45.7,1.45,1.56v9.88c0,.86-.65,1.56-1.45,1.56h-22.55v1.16c0,1.68-1,3.11-2.37,3.59v3.63c1.37.47,2.37,1.87,2.37,3.53v1.4Z"/>
        </g>
        <g id="medal_chain">
          <path class="cls-20" d="m42.78,11.71v3.85c0,1.18.86,2.14,1.92,2.14h0c1.06,0,1.92-.96,1.92-2.14v-3.85h1.92v3.94c0,2.07-1.51,3.75-3.37,3.75h-.94c-1.86,0-3.37-1.68-3.37-3.75v-3.94h1.92Z"/>
          <path class="cls-32" d="m44.71,17.91c1.38,0,2.5-1.24,2.5-2.78v-3.64h.77v3.73c0,1.72-1.25,3.11-2.8,3.11h-.94c-1.54,0-2.8-1.39-2.8-3.11v-3.73h.77v3.64c0,1.53,1.12,2.78,2.5,2.78h0Z"/>
          <path class="cls-3" d="m41.44,15.19v-3.69h.77v3.64s0,.04,0,.06h-.77Zm5.76,0s0-.04,0-.06v-3.64h.77v3.69h-.77Z"/>
          <path class="cls-7" d="m41.35,13.5v-2.5h.75v2.47s0,.03,0,.04h-.75Zm5.65,0s0-.03,0-.04v-2.47h.75v2.5h-.75Z"/>
          <path class="cls-41" d="m46.63,30.29v-3.79c0-1.16-.86-2.11-1.92-2.11h0c-1.06,0-1.92.94-1.92,2.11v3.79h-1.92v-3.88c0-2.04,1.51-3.7,3.37-3.7h.94c1.86,0,3.37,1.66,3.37,3.7v3.88h-1.92Z"/>
          <path class="cls-27" d="m44.7,23.66c-1.38,0-2.5,1.23-2.5,2.74v3.58h-.77v-3.67c0-1.69,1.25-3.07,2.8-3.07h.94c1.54,0,2.8,1.37,2.8,3.07v3.67h-.77v-3.58c0-1.51-1.12-2.74-2.5-2.74h0Z"/>
          <path class="cls-38" d="m46.18,18.58c0-.65-.66-1.18-1.47-1.18s-1.47.53-1.47,1.18v5.89c0,.65.66,1.18,1.47,1.18s1.47-.53,1.47-1.18v-5.89Z"/>
          <path class="cls-4" d="m45.58,17.68c0-.21-.35-.38-.77-.38s-.77.17-.77.38v3.88c0,.21.35.38.77.38s.77-.17.77-.38v-3.88Z"/>
          <path class="cls-39" d="m45.58,18.57c0-.15-.35-.27-.77-.27s-.77.12-.77.27v1.35c0,.15.35.27.77.27s.77-.12.77-.27v-1.35Z"/>
          <path class="cls-1" d="m44.03,23.89c0,.2.35.37.77.37s.77-.17.77-.37v1.04c0,.2-.35.37-.77.37s-.77-.17-.77-.37v-1.04Z"/>
        </g>
        <g id="medal_plate">
          <path class="cls-26" d="m72.55,3.06c0-.86-.65-1.56-1.45-1.56H18c-.8,0-1.45.7-1.45,1.56v9.88c0,.86.65,1.56,1.45,1.56h53.09c.8,0,1.45-.7,1.45-1.56V3.06Z"/>
          <rect class="cls-34" x="17.55" y="2.62" width="54" height="10.88"/>
          <rect class="cls-44" x="17.55" y="8.5" width="54" height="1.12"/>
          <rect class="cls-44" x="17.55" y="10.5" width="54" height="1.12"/>
          <rect class="cls-44" x="17.55" y="6.5" width="54" height="1.12"/>
          <rect class="cls-44" x="17.55" y="4.5" width="54" height="1.12"/>
          <rect class="cls-13" x="17.69" y="2.62" width="53.71" height="1.12"/>
        </g>
        <g id="medal_body">
          <circle class="cls-10" cx="45" cy="57.05" r="29.45" transform="translate(-19.95 89.62) rotate(-78.37)"/>
          <circle class="cls-2" cx="45" cy="57.05" r="27.68" transform="translate(-18.48 92.4) rotate(-80.85)"/>
          <path class="cls-21" d="m47.46,29.32l4.21.7c.5.08.83.55.75,1.05l-1.41,8.46,4.08-7.54c.24-.44.79-.61,1.24-.37l3.76,2.03c.44.24.61.79.37,1.24l-4.08,7.54,6.31-5.81c.37-.34.95-.32,1.29.05l2.89,3.14c.34.37.32.95-.05,1.29l-6.31,5.81,7.85-3.44c.46-.2,1,0,1.2.47l1.72,3.91c.2.46,0,1-.47,1.2l-7.85,3.44,8.55-.71c.5-.04.94.33.98.83l.35,4.26c.04.5-.33.94-.83.98l-8.55.71,8.31,2.11c.49.12.78.62.66,1.11l-1.05,4.14c-.12.49-.62.78-1.11.66l-8.31-2.11,7.18,4.69c.42.28.54.84.26,1.26l-2.34,3.58c-.28.42-.84.54-1.26.26l-7.18-4.69,5.27,6.77c.31.4.24.97-.16,1.28l-3.37,2.62c-.4.31-.97.24-1.28-.16l-5.27-6.77,2.78,8.11c.16.48-.09,1-.57,1.16l-4.04,1.39c-.48.16-1-.09-1.16-.57l-2.78-8.11v8.58c0,.5-.41.91-.91.91h-4.27c-.5,0-.91-.41-.91-.91v-8.58l-2.78,8.11c-.16.48-.68.73-1.16.57l-4.04-1.39c-.48-.16-.73-.68-.57-1.16l2.78-8.11-5.27,6.77c-.31.4-.88.47-1.28.16l-3.37-2.62c-.4-.31-.47-.88-.16-1.28l5.27-6.77-7.18,4.69c-.42.28-.99.16-1.26-.26l-2.34-3.58c-.28-.42-.16-.99.26-1.26l7.18-4.69-8.31,2.11c-.49.12-.98-.17-1.11-.66l-1.05-4.14c-.12-.49.17-.98.66-1.11l8.31-2.11-8.55-.71c-.5-.04-.88-.48-.83-.98l.35-4.26c.04-.5.48-.88.98-.83l8.55.71-7.85-3.44c-.46-.2-.67-.74-.47-1.2l1.72-3.91c.2-.46.74-.67,1.2-.47l7.85,3.44-6.31-5.81c-.37-.34-.39-.92-.05-1.29l2.89-3.14c.34-.37.92-.39,1.29-.05l6.31,5.81-4.08-7.54c-.24-.44-.07-1,.37-1.24l3.76-2.03c.44-.24,1-.08,1.24.37l4.08,7.54-1.41-8.46c-.08-.5.25-.97.75-1.05l4.21-.7c.5-.08.97.25,1.05.75l1.41,8.46,1.41-8.46c.08-.5.55-.83,1.05-.75Z"/>
          <polygon class="cls-33" points="47.31 30.22 51.52 30.92 49.21 44.78 55.9 32.43 59.65 34.46 52.97 46.81 63.3 37.3 66.19 40.44 55.86 49.95 68.72 44.31 70.44 48.22 57.58 53.86 71.57 52.7 71.93 56.96 57.93 58.12 71.54 61.57 70.5 65.71 56.88 62.26 68.64 69.94 66.3 73.52 54.55 65.84 63.17 76.92 59.8 79.54 51.18 68.46 55.74 81.74 51.7 83.13 47.14 69.85 47.14 83.89 42.86 83.89 42.86 69.85 38.3 83.13 34.26 81.74 38.82 68.46 30.2 79.54 26.83 76.92 35.45 65.84 23.7 73.52 21.36 69.94 33.12 62.26 19.5 65.71 18.46 61.57 32.07 58.12 18.07 56.96 18.43 52.7 32.42 53.86 19.56 48.22 21.28 44.31 34.14 49.95 23.81 40.44 26.7 37.3 37.03 46.81 30.35 34.46 34.1 32.43 40.79 44.78 38.48 30.92 42.69 30.22 45 44.07 47.31 30.22"/>
          <path class="cls-9" d="m45,31.06c-14.34,0-25.99,11.65-25.99,25.99s11.65,25.99,25.99,25.99,25.99-11.65,25.99-25.99-11.65-25.99-25.99-25.99Zm0-1.69c15.28,0,27.68,12.41,27.68,27.68s-12.41,27.68-27.68,27.68-27.68-12.41-27.68-27.68,12.41-27.68,27.68-27.68Z"/>
          <path class="cls-36" d="m45,29.95c-14.95,0-27.1,12.14-27.1,27.1s12.14,27.1,27.1,27.1,27.1-12.14,27.1-27.1-12.14-27.1-27.1-27.1Zm0-1.77c15.93,0,28.86,12.93,28.86,28.86s-12.93,28.86-28.86,28.86-28.86-12.93-28.86-28.86,12.93-28.86,28.86-28.86Z"/>
          <path class="cls-5" d="m38.28,85.07c.39-.51.8-1.02,1.22-1.51,1.9.44,3.87.67,5.89.67,11.18,0,20.75-7.07,24.66-17.06.65-.09,1.3-.17,1.94-.24-3.93,11.11-14.36,19.07-26.6,19.07-2.84,0-4.47-.22-7.12-.92Z"/>
          <path class="cls-11" d="m48.47,85.76c.87-.78,1.79-1.54,2.74-2.28,5.02-1.18,9.51-3.77,13.02-7.32,1.12-.44,2.26-.84,3.43-1.21-4.61,5.85-11.43,9.87-19.19,10.81Z"/>
          <path class="cls-35" d="m66.33,42.15c-4.74-6.94-12.72-11.49-21.75-11.49-14.53,0-26.33,11.8-26.33,26.33,0,1.88.2,3.72.58,5.5,4.46,1.61,9.52,2.52,14.88,2.52,17.98,0,32.59-10.23,32.62-22.85Z"/>
          <path class="cls-18" d="m16.56,62.16c-.27-1.59-.41-3.23-.41-4.9,0-15.93,12.93-28.86,28.86-28.86,8.84,0,16.76,3.98,22.06,10.26.21,1.08.33,2.18.33,3.29,0,.02,0,.03,0,.05-4.88-7.14-13.09-11.83-22.38-11.83-14.95,0-27.1,12.14-27.1,27.1,0,1.94.2,3.83.59,5.66-.66-.24-1.31-.49-1.94-.76Z"/>
          <path class="cls-12" d="m25.97,76.19c-5.19-4.9-8.43-11.84-8.43-19.53,0-14.83,12.04-26.86,26.86-26.86,7.69,0,14.63,3.24,19.53,8.43-4.81-4.54-11.3-7.33-18.44-7.33-14.83,0-26.86,12.04-26.86,26.86,0,7.13,2.79,13.62,7.33,18.44Z"/>
          <path class="cls-17" d="m65.08,37.5c5.55,5.24,9.02,12.67,9.02,20.9,0,15.87-12.88,28.75-28.75,28.75-8.23,0-15.66-3.47-20.9-9.02,5.15,4.86,12.09,7.85,19.73,7.85,15.87,0,28.75-12.88,28.75-28.75,0-7.63-2.98-14.58-7.85-19.73Z"/>
        </g>
        <g id="star">
          <g class="cls-46">
            <polygon class="cls-25" points="45 31.63 50.69 49.15 69.12 49.15 54.21 59.99 59.91 77.51 45 66.68 30.09 77.51 35.79 59.99 20.88 49.15 39.31 49.15 45 31.63"/>
            <path class="cls-29" d="m45,67.66c.21,0,.42.06.6.2l12.36,8.98-4.72-14.53c-.14-.42.01-.88.37-1.14l12.36-8.98h-15.28c-.44,0-.84-.29-.97-.71l-4.72-14.53-4.72,14.53c-.14.42-.53.71-.97.71h-15.28l12.36,8.98c.36.26.51.72.37,1.14l-4.72,14.53,12.36-8.98c.18-.13.39-.2.6-.2Z"/>
            <path class="cls-29" d="m59.91,77.54c-.21,0-.42-.06-.6-.2l-14.31-10.39-14.31,10.39c-.36.26-.84.26-1.2,0-.36-.26-.51-.72-.37-1.14l5.47-16.82-14.31-10.4c-.36-.26-.51-.72-.37-1.14.14-.42.53-.71.97-.71l16.54-.2,6.62-16.62c.14-.42.53-.36.97-.36s.84-.06.97.36l7,16.5,16.15.32c.44,0,.84.29.97.71.14.42-.01.88-.37,1.14l-14.31,10.4,5.47,16.82c.14.42-.01.88-.37,1.14-.18.13-.39.2-.6.2Zm-14.91-12.88c.21,0,.42.06.6.2l12.36,8.98-4.72-14.53c-.14-.42.01-.88.37-1.14l12.36-8.98h-15.28c-.44,0-.84-.29-.97-.71l-4.72-14.53-4.72,14.53c-.14.42-.53.71-.97.71h-15.28l12.36,8.98c.36.26.51.72.37,1.14l-4.72,14.53,12.36-8.98c.18-.13.39-.2.6-.2Z"/>
            <path class="cls-40" d="m59.91,78.54c-.21,0-.42-.06-.6-.2l-14.18-8.4-14.44,8.4c-.36.26-.84.26-1.2,0-.36-.26-.51-.72-.37-1.14l5.47-16.82-14.31-10.4c-.36-.26-.51-.72-.37-1.14.14-.42.53-.71.97-.71h17.69l5.47-16.82c.14-.42.53-.71.97-.71s.84.29.97.71l5.47,16.82h17.69c.44,0,.84.29.97.71.14.42-.01.88-.37,1.14l-14.31,10.4,5.47,16.82c.14.42-.01.88-.37,1.14-.18.13-.39.2-.6.2Zm-14.91-12.88c.21,0,.42.06.6.2l12.36,8.98-4.72-14.53c-.14-.42.01-.88.37-1.14l12.36-8.98h-15.28c-.44,0-.84-.29-.97-.71l-4.72-14.53-4.72,14.53c-.14.42-.53.71-.97.71h-15.28l12.36,8.98c.36.26.51.72.37,1.14l-4.72,14.53,12.36-8.98c.18-.13.39-.2.6-.2Z"/>
            <path class="cls-40" d="m59.91,79.54c-.21,0-.42-.06-.6-.2l-14.18-6.95-14.44,6.95c-.36.26-.84.26-1.2,0-.36-.26-.51-.72-.37-1.14l5.47-16.82-14.31-10.4c-.36-.26-.51-.72-.37-1.14.14-.42.53-.71.97-.71h17.69l5.47-16.82c.14-.42.53-.71.97-.71s.84.29.97.71l5.47,16.82h17.69c.44,0,.84.29.97.71.14.42-.01.88-.37,1.14l-14.31,10.4,5.47,16.82c.14.42-.01.88-.37,1.14-.18.13-.39.2-.6.2Zm-14.91-12.88c.21,0,.42.06.6.2l12.36,8.98-4.72-14.53c-.14-.42.01-.88.37-1.14l12.36-8.98h-15.28c-.44,0-.84-.29-.97-.71l-4.72-14.53-4.72,14.53c-.14.42-.53.71-.97.71h-15.28l12.36,8.98c.36.26.51.72.37,1.14l-4.72,14.53,12.36-8.98c.18-.13.39-.2.6-.2Z"/>
            <path class="cls-15" d="m59.91,78.54c-.21,0-.42-.06-.6-.2l-14.31-10.39-14.31,10.39c-.36.26-.84.26-1.2,0-.36-.26-.51-.72-.37-1.14l5.47-16.82-14.31-10.4c-.36-.26-.51-.72-.37-1.14.14-.42.53-.71.97-.71h17.69l5.47-16.82c.14-.42.53-.25.97-.25s.84-.17.97.25l5.47,16.82h17.69c.44,0,.84.29.97.71.14.42-.01.88-.37,1.14l-14.31,10.4,5.47,16.82c.14.42-.01.88-.37,1.14-.18.13-.39.2-.6.2Zm-14.91-12.88c.21,0,.42.06.6.2l12.36,8.98-4.72-14.53c-.14-.42.01-.88.37-1.14l12.36-8.98h-15.28c-.44,0-.84-.29-.97-.71l-4.72-14.53-4.72,14.53c-.14.42-.53.71-.97.71h-15.28l12.36,8.98c.36.26.51.72.37,1.14l-4.72,14.53,12.36-8.98c.18-.13.39-.2.6-.2Z"/>
            <path class="cls-19" d="m45,31.63l.38,24.66s.02.08.05.1c.03.02.08.03.12.02l23.57-7.26-23.34,7.98s-.07.04-.08.08c-.01.04,0,.08.02.12l14.19,20.18-14.8-19.73s-.06-.05-.1-.05-.08.02-.1.05l-14.8,19.73,14.19-20.18s.03-.08.02-.12c-.01-.04-.04-.07-.08-.08l-23.34-7.98,23.57,7.26s.08,0,.12-.02c.03-.02.05-.06.05-.1l.38-24.66Z"/>
            <path class="cls-24" d="m20.88,49.15h18.43s4.8,6.08,4.55,6.26c-.25.18-.57.24-.87.15l-22.11-6.41Z"/>
            <path class="cls-8" d="m43.85,55.41c-.25.18-4.55-6.26-4.55-6.26l5.69-17.53-.73,23.01c0,.31-.16.6-.41.78Z"/>
            <path class="cls-30" d="m46.86,57.6c.1-.29,7.36,2.39,7.36,2.39l5.69,17.53-12.93-19.05c-.17-.26-.22-.58-.12-.87Z"/>
            <path class="cls-22" d="m69.12,49.15l-14.91,10.83s-7.45-2.1-7.36-2.39c.1-.29.32-.53.61-.63l21.66-7.81Z"/>
            <path class="cls-42" d="m46.15,55.41c-.25-.18,4.55-6.26,4.55-6.26h18.43l-22.11,6.41c-.3.09-.62.03-.87-.15Z"/>
            <path class="cls-16" d="m45,31.63l5.69,17.53s-4.3,6.44-4.55,6.26c-.25-.18-.4-.47-.41-.78l-.73-23.01Z"/>
            <path class="cls-14" d="m59.91,77.51l-14.91-10.83s-.31-7.74,0-7.74.6.14.79.39l14.12,18.18Z"/>
            <path class="cls-28" d="m45,58.94c.31,0,0,7.74,0,7.74l-14.91,10.83,14.12-18.18c.19-.24.48-.39.79-.39Z"/>
            <path class="cls-37" d="m30.09,77.51l5.69-17.53s7.26-2.69,7.36-2.39c.1.29.05.62-.12.87l-12.93,19.05Z"/>
            <path class="cls-43" d="m43.14,57.6c.1.29-7.36,2.39-7.36,2.39l-14.91-10.83,21.66,7.81c.29.11.52.34.61.63Z"/>
          </g>
        </g>
      </g>
    </g>
  </g>
</svg>