<svg xmlns="http://www.w3.org/2000/svg" width="80" height="40" viewBox="0 0 80 40">
  <defs>
    <style>
      .cls-1 {
        fill: #fff;
        fill-rule: evenodd;
      }
    </style>
  </defs>
  <path id="Color_Fill_1" data-name="Color Fill 1" class="cls-1" d="M6.28,9H7.246c0,1.724-.156,3.2-0.1,4.635-0.314.078-.148-0.046-0.29,0.189,0.268,0.186.31,0.5,0.58,0.662,0.032-.209-0.1-0.1.1-0.189a0.51,0.51,0,0,0,.483.284,0.451,0.451,0,0,1,.1-0.284v0.378c1.887,0,3.226,0,5.024,0v0.189a1.467,1.467,0,0,1,.1.757,30.6,30.6,0,0,1-3.092.095A7.456,7.456,0,0,0,8.5,15.527a3.835,3.835,0,0,1-.29,1.135c1.008,0.622,1.591,1.683,2.512,2.365a32.878,32.878,0,0,1,4.058,3.689,14.642,14.642,0,0,0,3.961-.662c1.785-.448,3.442-0.4,5.217-0.851a28.988,28.988,0,0,1,4.444-.851V19.973a1.386,1.386,0,0,0-.386-0.095,3.974,3.974,0,0,1-1.353.284V19.973c0.876-.013,1.412-0.26,2.319-0.284v0.378a1.547,1.547,0,0,0,.483.095c0.694-.493,3.018-0.79,3.382-1.419a2.054,2.054,0,0,1-.29-1.041h0.29l0.386,1.041a14.185,14.185,0,0,1,1.836-.473,0.451,0.451,0,0,1,.1-0.284,4.078,4.078,0,0,1,2.029-.378L37,16.568h0.1v0.189c0.293,0.414.031,0.722,0.773,0.757,0.494-.312,1.585-0.108,1.836-0.662a1.229,1.229,0,0,0,.1-0.662H40.1V15.338l0.966-.095v0.851h0.386v0.189a0.628,0.628,0,0,1,.1.378,31.753,31.753,0,0,0,3.478-.095V14.487h-0.1a0.709,0.709,0,0,1-.87-0.095c-0.154.143,0.072,0.125-.193,0.189,0-.3.138-0.177-0.193-0.284-0.217.279-.479,0.021-0.87,0-1.6-.084-4.482.095-6.57,0.095-7.541,0-15.323.035-22.705,0.095a0.272,0.272,0,0,0-.1-0.095V14.108c7.2-.01,14.8-0.19,22.029-0.189h5.99a11.358,11.358,0,0,1,2.222-.095c0.3,0.063.193-.042,0.29-0.189,0.178-.091.062,0.138,0.1,0.189,0.307,0.053.079-.176,0.29-0.189h0.193a0.37,0.37,0,0,0,.193.189,0.547,0.547,0,0,0,0-.378c-0.075-.065-0.216-0.124-0.29-0.189a6.332,6.332,0,0,0,1.739,0,0.635,0.635,0,0,1-.386-0.095,2.27,2.27,0,0,1,1.836.095,0.473,0.473,0,0,0-.29.095h0.29a1.994,1.994,0,0,1,1.353,0H48.7v0.473h0.193V13.635h0.193a0.721,0.721,0,0,0,.29.095V13.635h0.193a1.8,1.8,0,0,0,.193.284c0.08-.307-0.047-0.145.193-0.284a0.322,0.322,0,0,0,.1.189,0.452,0.452,0,0,1,.1-0.284c0.08,0.307-.047.145,0.193,0.284a8.8,8.8,0,0,0,2.222.095h5.894c7.059,0,14.516.175,21.546,0.189v0.378c-6.578-.021-13.553-0.095-20.29-0.095-3.33,0-7.968.308-10.241-.095,0,0.3.164,0.127-.1,0.284-0.2-.317-0.286.032-0.58,0.095l-0.386-.189v1.986a3.648,3.648,0,0,0,1.063.095,1.066,1.066,0,0,1,.58-0.095c0.037,0.248-.072.124,0.193,0.189a2.858,2.858,0,0,1,1.739-1.135v0.095c-0.406.257-.94,0.636-1.353,0.946,2.024,0.167,4.23.771,6.184,1.041V17.324a1.017,1.017,0,0,1,.676.189,0.634,0.634,0,0,0-.387.095,3.355,3.355,0,0,1,.966.568L59.42,18.46a15.788,15.788,0,0,1,3,2.459,2.074,2.074,0,0,1,.386-0.378V20.73c-0.108.188-.058,0.171,0,0.378a10.749,10.749,0,0,1,1.836.473c0.188,0.071,1.771-.1,2.222-0.095,0.812,1.1.564,1.794-1.256,1.7a1.547,1.547,0,0,1-.29.473H65.7a12.891,12.891,0,0,1,3.188-.189,1.363,1.363,0,0,1,.58-0.568v0.473a15.024,15.024,0,0,0,3.478-.189c-0.072-.082-0.122-0.107-0.193-0.189a3.608,3.608,0,0,1,.87.473,3.492,3.492,0,0,1,1.159,0v0.189a8.392,8.392,0,0,0-1.546.378l-8.309.378a4.276,4.276,0,0,1,0,.757l-0.29.095c-0.921.514-.712-0.7-0.773-0.757H63.188c-1.416.973-5.772,0.279-6.956,0.946a3.11,3.11,0,0,0-1.159-.095c-0.514.175-.579,0.752-1.063,0.946v0.095a1.411,1.411,0,0,1,.483.095v0.189a1.913,1.913,0,0,0-1.063,1.135l-0.676.473c-1.057.028-2.133-.439-1.739-1.7,0.114-.364.611-0.543,0.483-0.851a0.856,0.856,0,0,0-.87-0.189c-0.423.253-1.26-.027-1.836,0.095-1.095.232-2.578,0.048-3.671,0.284H43.285a3.217,3.217,0,0,1-1.353.284,9.44,9.44,0,0,0-3.092-.095,16.491,16.491,0,0,1-4.445,0c-0.573-.07-1.107.219-1.739,0.095-1.932-.381-4.549-0.092-6.667-0.095a1.348,1.348,0,0,1-.193.662H25.6l-0.1-.662c-0.991-.007-4.9-0.11-5.507.284-0.845.3-.969,1.511-1.836,1.7v0.284c-0.28,0-.409.011-0.483,0.473a1.23,1.23,0,0,1,.1.662,1.752,1.752,0,0,1-.483.284,0.737,0.737,0,0,1-1.063-.851c0.218-.611.825-0.392,1.256-0.568a2.974,2.974,0,0,0,.1-0.757,0.663,0.663,0,0,1,.387-0.095c0.054,0.123,0,.07.1,0.095l0.29-.189-0.1-.189h0.1a4.38,4.38,0,0,0-.966-1.23c-0.683-.41-1.839-0.181-2.705-0.378L9.179,24.8V24.514a3.368,3.368,0,0,0,1.256-1.324h-0.1V23.095A4.727,4.727,0,0,1,7.633,23h0.1c0.412-.248,1.29-0.064,1.546-0.473H8.7a2.391,2.391,0,0,0-1.063-.095,5.827,5.827,0,0,0-.966-1.324,3.552,3.552,0,0,1-.676.095c0-1.069-.078-2.324,0-3.122-1.4-.934-1.436-2.675-3.865-2.649-0.467.306-1.235,0.021-2.029,0A3.048,3.048,0,0,1,0,14.487c2.092-.009,3.77.112,5.507,0.189a0.272,0.272,0,0,1,.1-0.095,1.177,1.177,0,0,1,.386-1.041,0.351,0.351,0,0,0,.193.095V13.162c0.378-.585-0.005-2.062-0.1-2.554A12.015,12.015,0,0,1,6.28,9Zm-2.8,2.554a0.338,0.338,0,0,1,.1.189h-0.1V11.554Zm0.1,0.284a0.476,0.476,0,0,1,.1.284h-0.1V11.838Zm0.1,0.378a0.339,0.339,0,0,1,.1.189h-0.1V12.216Zm0.1,0.284a0.339,0.339,0,0,1,.1.189h-0.1V12.5Zm0.1,0.378a0.339,0.339,0,0,1,.1.189h-0.1V12.878Zm0.1,0.284a0.476,0.476,0,0,1,.1.284h-0.1V13.162Zm39.807,0a1.037,1.037,0,0,1,.58.095A1.039,1.039,0,0,1,43.768,13.162Zm5.314,0a1.037,1.037,0,0,1,.58.095A1.039,1.039,0,0,1,49.082,13.162Zm-5.507.095h0.193v0.095A0.333,0.333,0,0,1,43.575,13.257Zm6.087,0h0.193v0.095A0.334,0.334,0,0,1,49.662,13.257Zm0.193,0.095h0.193C49.934,13.5,50.008,13.467,49.855,13.351Zm-45.8.189a0.339,0.339,0,0,1,.1.189h-0.1V13.541Zm41.932,0H45.121v0.095h0.193a4.433,4.433,0,0,0,.676.189V13.541Zm1.449,0a0.452,0.452,0,0,0,.1.284,2.856,2.856,0,0,1,.773-0.189V13.541H47.44Zm-43.285.284a0.476,0.476,0,0,1,.1.284h-0.1V13.824Zm0.1,0.378a0.339,0.339,0,0,1,.1.189h-0.1V14.2Zm40.966,0.378v1.892h0.1c0.526-.711.513-0.6,0.483-1.892h-0.58Zm0.773,1.514h0.29a1.939,1.939,0,0,0-.193-1.419V14.581h-0.1v1.514Zm1.643-1.514v1.514a5.662,5.662,0,0,1,.58.378v-1.8h0.1V14.581H47.633Zm-0.386.095L47.15,16h0.1v0.095H47.44V14.676H47.246ZM45.99,16.284v0.189h0.1V16.378h0.1A0.351,0.351,0,0,0,45.99,16.284Zm4.058,0.095h0.193v0.095A0.334,0.334,0,0,1,50.048,16.378ZM59.42,18.27a0.339,0.339,0,0,1,.1.189h-0.1V18.27ZM7.053,19.405a0.7,0.7,0,0,1,0,.473H7.536A1.285,1.285,0,0,0,7.053,19.405Zm2.319,3.122a1.363,1.363,0,0,0,.773.189V22.622h-0.1V22.527H9.372ZM72.56,23.095h0.193v0.095H72.56V23.095Zm-20.1,2.365a2.8,2.8,0,0,1-.483.189v0.095a3.093,3.093,0,0,1,1.353.284,2.173,2.173,0,0,1,.58-0.473V25.46H52.464Zm3.768,0a0.473,0.473,0,0,1,.29.095A0.473,0.473,0,0,1,56.232,25.46Zm-38.164.662a1.656,1.656,0,0,0,.58.946c0.192-.292.459-0.569,0.676-0.851Zm35.556,0.473v0.473h0.1a1.047,1.047,0,0,1,.483-0.378V26.595h-0.58Z" transform="translate(0 0.547)"/>
</svg>
