<svg xmlns="http://www.w3.org/2000/svg" width="80" height="40" viewBox="0 0 80 40">
  <defs>
    <style>
      .cls-1 {
        fill: #fff;
        fill-rule: evenodd;
      }
    </style>
  </defs>
  <path id="Color_Fill_1" data-name="Color Fill 1" class="cls-1" d="M48.567,16.237a8.006,8.006,0,0,0-.193-2.154h0.258l0.322,2.091,6.635-.507c0.843-.266,1.761-0.729,2.641-1.014l2.963-.634h0.064V13.766h0.258v-0.19H60.87a0.886,0.886,0,0,1-.064-0.253,2.158,2.158,0,0,0,.129-0.76,13.175,13.175,0,0,1-1.353-.19l-0.709.063a1.71,1.71,0,0,0-.193-0.19c-0.2-.029-0.357.125-0.773,0.127-1.124,0-2.391-.063-3.607-0.063H24.444v-0.38H54.3a15.608,15.608,0,0,0,3.027-.063c0.468-.108,1.052.154,1.417,0.063a14.181,14.181,0,0,1,2.963-.38,1.444,1.444,0,0,1,.129-0.57c0.082-.261.169-0.311,0.515-0.317a3.478,3.478,0,0,1,.258.317c0.165,0.431-.15.556,0.451,0.57a4.171,4.171,0,0,0,1.546.063V11.8a3.559,3.559,0,0,1,1.031.127c0.362,0.093.95-.168,1.417-0.063a16.076,16.076,0,0,0,3.027.063H80v0.38c-5.555,0-11.958-.147-16.554.253a1.822,1.822,0,0,1,0,1.077H63.7V13.386a3.278,3.278,0,0,0,.709-0.063V13.7a14.438,14.438,0,0,0,2.705-.19h1.224a3.156,3.156,0,0,1,1.159-.444l0.064,0.57c0.591,0.151,1.711,2.064,2.061,2.725a7.182,7.182,0,0,1,.709.127,0.4,0.4,0,0,1,.064-0.254v0.317h0.258a0.3,0.3,0,0,1,.064-0.19c0.027,0.227-.03.159,0.129,0.253a11.428,11.428,0,0,0,2,.57c1.895,0.761,3.667,1.621,4.573,3.358a2.866,2.866,0,0,1,0,2.788,2.823,2.823,0,0,1-.966.76,6.067,6.067,0,0,0-1.546.317,5.392,5.392,0,0,0-.451.887,2.23,2.23,0,0,1-.515-0.063v0.127a1.706,1.706,0,0,0,.837.127,3.432,3.432,0,0,1,1.353-.127v0.063H78.068a11.9,11.9,0,0,1-2.19.317v0.634a6.751,6.751,0,0,1-.064,1.014c0.687,0,1.4-.036,2-0.063v0.19c-0.7,0-1.188,0-2,0a5.453,5.453,0,0,0,0,1.014,0.884,0.884,0,0,1-.709,1.584c-0.184-.175-0.395-0.337-0.58-0.507a0.868,0.868,0,0,1,.064-0.7,0.507,0.507,0,0,1,.386-0.38,0.769,0.769,0,0,1,.515-0.127,5.916,5.916,0,0,1,.129-0.887H74.847v0.19a8.106,8.106,0,0,0-1.031,0,2.989,2.989,0,0,1-.322.38,8.579,8.579,0,0,0-1.868.063c-1.948.439-3.853,0.107-5.862,0.507,0.005-1.721-1.383-1.447-3.092-1.394-0.571-.375-2.386-0.1-3.156,0l-0.064.76c0.878,0.11,1.192.8,1.159,1.838a2.2,2.2,0,0,1-1.031,1.014c-1.405.419-2.013-.875-1.868-1.9-0.679-.256-1.353-0.609-2-0.887a3.136,3.136,0,0,1-.709-0.253,1.3,1.3,0,0,0-.129-0.254,14.51,14.51,0,0,0-1.739.19,5.882,5.882,0,0,1-2.641-.507,15.523,15.523,0,0,1-5.346-4.055,8.836,8.836,0,0,1-.966-1.647,3.4,3.4,0,0,0-.193-0.634,2.909,2.909,0,0,0-1.095-.063H40.193a3.333,3.333,0,0,1-1.224,0l-3.285.063-13.849.063v0.19H21.578v-0.19H21.063v0.19H20.419v-0.19l-1.932.063-1.932,3.358c0.209,0.052.1-.031,0.193,0.127H16.3a0.332,0.332,0,0,1-.193.063l-0.065-.127c0.31-.021.3-0.013,0.322-0.317a10.683,10.683,0,0,1-.515-2.724H15.588V21.306h0.193V21.052H15.459a0.4,0.4,0,0,1-.064.254V21.052H15.2a0.4,0.4,0,0,1-.064.254V21.052c-0.419.05-1.486,0.056-1.932,0.063a4.459,4.459,0,0,0-.9-0.19,3.438,3.438,0,0,1-.644.38,3.857,3.857,0,0,0-.773-0.887c-0.079-.151.014-0.318-0.064-0.444-0.239-.385-0.637-0.77-0.9-1.14a6.4,6.4,0,0,0-1.353-1.711C8.573,17.119,8.753,17.041,8.7,17H8.631a4.686,4.686,0,0,0-.709-1.014s0.133-.042.064-0.127a3.774,3.774,0,0,1-.644-0.317c-0.078-.112,0-0.111-0.064-0.19C7.231,15.295,7.2,15.278,7.15,15.223a2.893,2.893,0,0,1-.58.063,1.9,1.9,0,0,1-.064.444,8.542,8.542,0,0,1-4.831.253,5.037,5.037,0,0,1-1.546-.19,0.677,0.677,0,0,1-.064-0.38,0.325,0.325,0,0,1,0-.317H0.773a6.523,6.523,0,0,1,1.675-.127,16.153,16.153,0,0,1,4.316-.253,0.9,0.9,0,0,1,.644-0.444c0.036,0.082,0,.047.064,0.063l0.258-.063,0.193-.57a0.944,0.944,0,0,1-.386-0.254A9.348,9.348,0,0,1,9.662,9.394c0.3-.414.61-1.327,1.224-1.394a1.731,1.731,0,0,0,.451.253l-2.77,5.766-0.129-.063v0.063a6.1,6.1,0,0,1,0,.76,11.743,11.743,0,0,1,1.675,1.2C11,16.6,11.875,17.138,12.754,17.758c0.785,0.553,1.24,1.317,2.576,1.331,0.586-.356,2.167-0.07,2.963-0.253,1.632-.376,3.584-0.12,5.217-0.507l1.481-.063c2.114-.487,4.589-0.135,6.7-0.634l2.254-.127c1.4-.324,3.1-0.111,4.509-0.444L39.936,17c1.155-.266,2.577-0.106,3.736-0.38H44.38A26.154,26.154,0,0,1,48.567,16.237Zm23.51-.253a0.183,0.183,0,0,1,0,.253V15.984ZM72.4,16.047a0.228,0.228,0,0,1,.064.127H72.4V16.047ZM16.039,21.052a12.358,12.358,0,0,0,.451,3.1h0.064V24.094a6.628,6.628,0,0,0,.644-1.14c0.382-.614.826-1.231,1.159-1.9H16.039Z"/>
</svg>
