<svg xmlns="http://www.w3.org/2000/svg" width="80" height="40" viewBox="0 0 80 40">
  <defs>
    <style>
      .cls-1 {
        fill: #fff;
        fill-rule: evenodd;
      }
    </style>
  </defs>
  <path id="Color_Fill_1" data-name="Color Fill 1" class="cls-1" d="M27.286,18.171l7.433-.591v-0.1a3.818,3.818,0,0,1-.88-1.477h0.2a1.76,1.76,0,0,0,2.054,1.477,5.278,5.278,0,0,1,2.152-.2V16.891h0.1c0.167,0.411,2.078.36,2.445,0.1a5.48,5.48,0,0,0,1.174-.984c0.52-.345,1.264-0.452,1.76-0.788,1.329,0.157.656-.064,1.369-0.394,0.465-.215,1.462.2,1.858,0a0.356,0.356,0,0,0,.1-0.2h-0.2a1.271,1.271,0,0,1-.782,0V13.643h-0.2a8.7,8.7,0,0,1-2.641-.2H14.67v-0.2H43.227a7.9,7.9,0,0,1,2.445-.2l-0.1-.3h0.2a1.143,1.143,0,0,0,.489.2c-0.072-.086-0.123-0.111-0.2-0.2h0.489v0.1c-0.241.127-.067-0.042-0.2,0.2H46.65a1.924,1.924,0,0,1,.293-0.886,1.286,1.286,0,0,1,.685-0.1,0.352,0.352,0,0,0,.2.1,2.017,2.017,0,0,0,.2.886,0.7,0.7,0,0,1,.685-0.2v0.1h-0.1c-0.188.076,0.2,0.1,0.2,0.1v-0.1c0.176-.13-0.045-0.162.391-0.2,0.465,0.606,1.439.2,2.347,0.394a29.144,29.144,0,0,0,5.379.1H80v0.2H51.54a11.031,11.031,0,0,1-2.934.2,0.64,0.64,0,0,1-.1.394c-0.12-.305-0.037-0.223-0.391-0.3a1.992,1.992,0,0,0,.1.689h0.2a0.639,0.639,0,0,1,.1-0.394v0.1a0.356,0.356,0,0,1,.1.2,0.759,0.759,0,0,1-.293.3,0.541,0.541,0,0,1-.391,0,1.423,1.423,0,0,1-.1.492h0.2c0.59-.381,3.969-0.266,4.792-0.1a1.972,1.972,0,0,0,.2,1.083,1.053,1.053,0,0,0,.587.1,3.951,3.951,0,0,1,1.467-.1c0.955-.051,2.742-0.342,3.423.2a3.777,3.777,0,0,1,.1,1.969h0.1a4.379,4.379,0,0,1,2.152.2,6.615,6.615,0,0,1,2.152.492,22.621,22.621,0,0,1,2.347,2.855,1.973,1.973,0,0,1,0,1.083,0.471,0.471,0,0,1,.293.1,0.334,0.334,0,0,0-.2.1h0.685a7.031,7.031,0,0,1,2.347-.2v0.2h-0.1a6.742,6.742,0,0,0-3.032.394h0.1v0.1a1.027,1.027,0,0,1,.88.591c-1.07.269-1.745,1.156-2.836,1.378a2.637,2.637,0,0,0-.391-0.985,7.484,7.484,0,0,1-2.641.394,0.478,0.478,0,0,1-.1.3,0.478,0.478,0,0,0-.1-0.3,4.242,4.242,0,0,1-1.271.2,7.059,7.059,0,0,0,.489,1.378c0.127,0.573-.388.578-0.293,0.984,0.123,0.527.283,1.027-.391,1.28a0.972,0.972,0,0,1-1.369-1.181A2.082,2.082,0,0,1,58,27.031h0.88a9.84,9.84,0,0,1-.2-1.28,9.058,9.058,0,0,1-1.956-.591l-1.565.1a0.639,0.639,0,0,1-.1.394,1.251,1.251,0,0,0-.1-0.394h-0.1a0.478,0.478,0,0,1-.1.3c-0.272-.427-3.019-0.06-3.619,0a0.477,0.477,0,0,1-.1.3c-0.442-.5-3.78-0.13-4.694,0-0.694.1-1.56-.2-1.858,0.3a2.832,2.832,0,0,1,.978.886A1.725,1.725,0,0,1,44.6,28.8c-0.955.042-1.537-.1-1.76-0.788-0.221-.355-0.014-0.681-0.2-0.984-0.408-.305-1.212-0.331-1.467-0.788a4.251,4.251,0,0,0-1.565-.1,4.491,4.491,0,0,0-.978-0.1,14.52,14.52,0,0,1-2.347-.591c-1.22-.517-1.893-1.5-3.13-1.969,0.008-.906-0.617-1.236-0.685-2.363H28.949l-0.1.787h-0.2c-0.581.374-2.412,0.112-3.227,0.1a1.034,1.034,0,0,1-.2-0.591,0.5,0.5,0,0,1-.1-0.3H14.181c-0.132.534-.439,0.849-0.587,1.378H13.5v-0.3a4.369,4.369,0,0,0,.587-1.083H12.421a6.213,6.213,0,0,0,.489,2.56v-0.2A1.729,1.729,0,0,0,13.3,22.7h0.1v0.3c-0.424.478-.206,1.128-0.88,1.181v-0.1c0.3-.211-0.152-2.275-0.2-2.953a5.834,5.834,0,0,0-2.543.2,0.478,0.478,0,0,0-.1-0.3,1.008,1.008,0,0,1-.685.3,10,10,0,0,0-1.76-2.756c-0.346-.524-0.2-1.21-0.489-1.772a1.6,1.6,0,0,0-.587-0.3l-0.1-.394H5.477a1.937,1.937,0,0,0-.293-0.394,0.922,0.922,0,0,1-.489.1V16.2a2.438,2.438,0,0,1-.782.1A18.36,18.36,0,0,0,0,16.1V15.218l4.108,0.1a3.42,3.42,0,0,0,1.271.2,2.366,2.366,0,0,0,.2-0.394l0.489,0.1,0.1-.394a1.07,1.07,0,0,1,.587-0.1c0.073-.055.119-0.32,0.2-0.394a0.746,0.746,0,0,1-.2-0.591C6.9,13.142,8.8,10.1,9.291,10a1.177,1.177,0,0,1,.489.591A5.656,5.656,0,0,0,8.8,12.166c-0.477.763-1.783,2.071-1.858,3.052,0.1,0.165.01,0.226,0.1,0.394a10.8,10.8,0,0,0,2.543,2.264,15.764,15.764,0,0,0,1.565,1.575h1.076c0.607-.364,1.665-0.024,2.445-0.2,2.584-.573,5.643-0.224,8.215-0.788,1.344-.294,3.481.306,4.108-0.689l0.293,0.1v0.3ZM49,12.855v0.2h0.1A0.338,0.338,0,0,0,49,12.855Zm-2.152.788a0.739,0.739,0,0,0-.2.591h0.1a1.74,1.74,0,0,0,.293-0.394C46.843,13.678,47.11,13.725,46.846,13.643Zm-0.685.1a0.617,0.617,0,0,0,.293.689v-0.1a1.073,1.073,0,0,0,.1-0.591H46.161Zm1.858,0a0.471,0.471,0,0,0-.293.1,0.667,0.667,0,0,0-.1.394,0.776,0.776,0,0,1,.391,0V13.741Zm-0.391.886v0.2h0.2v-0.2h-0.2Zm-0.88.394v0.2h0.2v-0.2h-0.2ZM13.4,22.5a0.356,0.356,0,0,1,.1.2H13.4V22.5Zm19.853,0.689,0.1,0.3C33.634,23.366,33.438,23.349,33.252,23.192Zm31.589,0.3c-0.138.248-.4,0.25-0.1,0.394a0.687,0.687,0,0,1,.489-0.3v-0.1H64.841ZM58.68,25.062a3.954,3.954,0,0,0-1.663.2l1.663,0.394V25.062Zm0.293,1.477v0.492h0.1v-0.2a0.5,0.5,0,0,0,.1-0.3h-0.2Z" transform="translate(0 0.531)"/>
</svg>
