<svg xmlns="http://www.w3.org/2000/svg" width="40" height="40" viewBox="0 0 40 40">
  <defs>
    <style>
      .cls-1 {
        fill: #fff;
        fill-rule: evenodd;
      }
    </style>
  </defs>
  <path id="Color_Fill_1" data-name="Color Fill 1" class="cls-1" d="M19.9,0h0.21c0.007,0.928.1,2.107,0.1,3.277h1.05V0.832h0.21V3.381c0.038,0.088.215,0.252,0.262,0.364a15.957,15.957,0,0,1,.577,2.393c0.158,0.661.071,1.363,0.21,1.977v1.04c0.168,0.757-.08,1.666.105,2.5a9.367,9.367,0,0,1,.1,1.768,4.121,4.121,0,0,0,1.1.052,4.372,4.372,0,0,0,1,.052c0.6,0.128,1.4.03,1.994,0.156h1c0.579,0.124,1.365.033,1.942,0.156h1c0.587,0.126,1.289-.036,1.942.1,0.243,0.052.689-.014,1,0.052a14.466,14.466,0,0,0,2.782.156v-1.4h0.1v1.4a4.121,4.121,0,0,0,1.1.052,2.179,2.179,0,0,0,.735.1,2.606,2.606,0,0,1,.472.624c0.319,0.944-.179,3.2-0.787,3.537l-1.785.416a19.291,19.291,0,0,1-3.464.884,0.25,0.25,0,0,1-.052.156l-1.837.52a0.742,0.742,0,0,1-.367-0.1,3.253,3.253,0,0,0-.577.208c-0.551.178-1.129,0.255-1.627,0.416-1.157.374-2.36,0.529-3.464,0.884a10.748,10.748,0,0,0-2.257.572c-0.414.284-.367,2.441-0.525,3.121-0.259,1.115-.194,2.337-0.472,3.485-0.214.881-.194,1.86-0.42,2.809a10.867,10.867,0,0,0-.315,2.237,8.852,8.852,0,0,1,1.837.936c1.413,0.733,3.152,1.284,4.2,2.393,0,1.111-.738,1.087-1.575,1.352a9.418,9.418,0,0,1-4.671.26,4.836,4.836,0,0,1-.367-0.728,0.187,0.187,0,0,0-.052.1A6.064,6.064,0,0,0,20.053,40h-0.1V39.324a5.892,5.892,0,0,1-.262-1.04,0.187,0.187,0,0,0-.052.1,1.728,1.728,0,0,1-.525.728,4,4,0,0,1-1.47.1,10.717,10.717,0,0,1-3.2-.52,2.526,2.526,0,0,1-1.207-.468,1.206,1.206,0,0,1-.158-0.936c0.147-.107.22-0.316,0.367-0.416,0.29-.2.644-0.235,0.945-0.416,0.922-.555,1.982-1.066,2.939-1.56a6.447,6.447,0,0,0,1.785-.936,2.766,2.766,0,0,1-.1-0.728c-0.2-.818-0.159-1.73-0.367-2.6s-0.269-1.889-.472-2.757l-0.105-1.248c-0.146-.625-0.1-1.34-0.262-2.029a10.142,10.142,0,0,1-.262-1.977,13.473,13.473,0,0,0-3.044-.936c-1.187-.359-2.438-0.563-3.674-0.936A8.551,8.551,0,0,0,9.4,20.338a0.828,0.828,0,0,1-.367.1,13.9,13.9,0,0,1-1.89-.52V19.766A6.01,6.01,0,0,1,5.724,19.4c-0.955-.288-1.933-0.439-2.834-0.728A2.144,2.144,0,0,1,1.525,18.1c-0.4-.685-0.98-3.729.315-3.8a6.316,6.316,0,0,1,1.575-.1c0.577-.124,1.363-0.033,1.942-0.156h1c0.885-.19,2-0.019,2.887-0.208h1c0.579-.124,1.365-0.033,1.942-0.156h1c0.243-.052.689,0.014,1-0.052a15.719,15.719,0,0,1,3.044-.156V13.42h0.053a19.46,19.46,0,0,1,.157-2.757c0.168-.763-0.049-1.592.1-2.289l0.157-2.133,0.42-2.029c0.094-.257.33-0.606,0.42-0.832V0.832h0.21V3.277h1.05C19.785,2.084,19.891,1.155,19.9,0Z"/>
</svg>
