<svg xmlns="http://www.w3.org/2000/svg" width="40" height="40" viewBox="0 0 40 40">
  <defs>
    <style>
      .cls-1 {
        fill: #fff;
        fill-rule: evenodd;
      }
    </style>
  </defs>
  <path id="Color_Fill_1" data-name="Color Fill 1" class="cls-1" d="M19.368,0h0.21c0,1.447.1,2.79,0.105,4.317h1V1.2h0.21V4.421l0.158,0.1a11.283,11.283,0,0,1,.632,2.445c0.147,0.6.085,1.266,0.21,1.821V9.727c0.165,0.742-.076,1.63.105,2.445a10.282,10.282,0,0,1,.105,2.029l12.842,0.624V14.772H35a1.006,1.006,0,0,1,1-1.248,2.093,2.093,0,0,1,.579,1.4,5.475,5.475,0,0,1,.842.1c0.093,0.132.3,0.236,0.368,0.364,0.5,0.9-.134,3.392-0.737,3.693l-0.737.156a4.722,4.722,0,0,1-.579,1.925V21.118a4.78,4.78,0,0,1-.474-1.612H35.211a4.172,4.172,0,0,1-1.053.26c-0.675.2-1.434,0.411-2.158,0.572v0.156a13.526,13.526,0,0,0-2,.52,0.73,0.73,0,0,0-.316-0.1c-0.515.1-1.139,0.316-1.632,0.468-1.233.381-2.5,0.573-3.684,0.936-0.665.2-2.4,0.293-2.474,0.988a2.9,2.9,0,0,0-.105.78c-0.18.771-.124,1.623-0.316,2.445-0.255,1.094-.2,2.261-0.474,3.381-0.16.66-.143,1.409-0.316,2.133a11.69,11.69,0,0,0-.316,2.185,5.389,5.389,0,0,1,1.421.728c0.338,0.2.7,0.287,1.053,0.468,0.61,0.314,1.239.677,1.842,0.988,0.48,0.248,1.29.406,1.474,0.936a0.873,0.873,0,0,1,.105.572c-0.109.111-.15,0.312-0.263,0.416a3.95,3.95,0,0,1-1.421.468,8.816,8.816,0,0,1-4.421.208,7.428,7.428,0,0,0-.368-0.78v0.052A8.3,8.3,0,0,0,19.474,40H19.421V39.948a1.71,1.71,0,0,1,0-.52,9.231,9.231,0,0,0-.263-1.092H19.105v0.052a1.181,1.181,0,0,1-.421.624,3.437,3.437,0,0,1-1.947.208c-1.573-.145-3.211-0.366-4.053-1.248a0.818,0.818,0,0,1,.053-0.572,1.6,1.6,0,0,1,1-.728c1.1-.657,2.332-1.233,3.474-1.821a2.821,2.821,0,0,0,1.368-.78,2.761,2.761,0,0,1-.105-0.728c-0.2-.818-0.16-1.73-0.368-2.6-0.272-1.135-.309-2.435-0.579-3.589l-0.053-.832a16.761,16.761,0,0,1-.421-3.225,16.222,16.222,0,0,0-3.526-1.04c-2.2-.669-4.374-1.076-6.579-1.561-0.067-.151.06-0.107-0.158-0.156a2.568,2.568,0,0,0-.632-0.156c-0.789-.252-1.69-0.49-2.526-0.676a3.823,3.823,0,0,1-.526,1.664V21.118a5.478,5.478,0,0,1-.526-1.873c-1.673-.352-1.632-2.024-1.474-3.8a0.9,0.9,0,0,1,.579-0.416,1.842,1.842,0,0,0,.632-0.208c0.283-.467.068-1.057,0.632-1.248a0.841,0.841,0,0,1,.421-0.052,3.759,3.759,0,0,1,.368.364,2.619,2.619,0,0,0,.316.988A4.164,4.164,0,0,1,5,14.824C5.6,14.7,6.4,14.8,7,14.668H7.947c0.6-.127,1.4-0.029,2-0.156h0.947c0.591-.126,1.3.035,1.947-0.1,0.623-.133,1.364.043,2.053-0.1a9.834,9.834,0,0,1,1.895-.1V14.1a6.121,6.121,0,0,0,.053-1.4c0.155-.7,0-1.635.158-2.341V9.259L17.316,6.5a12.656,12.656,0,0,1,.474-1.769c0.036-.086.182-0.225,0.21-0.312V1.2h0.263V4.317h1C19.26,2.829,19.349,1.209,19.368,0Z"/>
</svg>
