<svg xmlns="http://www.w3.org/2000/svg" width="40" height="40" viewBox="0 0 40 40">
  <defs>
    <style>
      .cls-1 {
        fill: #fff;
        fill-rule: evenodd;
      }
    </style>
  </defs>
  <path id="Color_Fill_1" data-name="Color Fill 1" class="cls-1" d="M28.742,28.2H20.986v3l3.167,5.167h0.065l0.065-1.212h0.129a10.253,10.253,0,0,1-.259,4.338c-0.123-1.783-3.244-1.672-3.619-3.317a1.83,1.83,0,0,0-.775.255C19.346,37.464,19.643,38.941,19.5,40H19.371a25.967,25.967,0,0,1-.194-3.7l-0.84-.128c-0.312,1.378-2.934,1.766-3.619,3.317H14.653c-0.039-1.021-.764-3.466-0.065-4.338v0.128a1.866,1.866,0,0,1,.065,1.084l0.129-.064,3.1-5.1v-3H10.129l-0.065.574H10c-0.052-2.6,1.039-3.277,2-4.785L17.82,15.12V13.78a42.32,42.32,0,0,0,.129-7.337c-0.245,0-.129.128-0.259-0.128,0.455-.2.479-1.267,0.582-1.786l0.517-.064,0.646-2.424H19.5L19.952,3.7c0-1.546.07-2.373,0.065-3.7l0.129,0.064c-0.012,1.185-.392,3.124,0,4.4l0.517,0.128c0.227,2.655-.109,6.326.388,9.059V15.12l6.333,9.633c0.561,0.88,2.159,2.2,1.422,4.019H28.742V28.2Z" transform="translate(0.5)"/>
</svg>
