<svg xmlns="http://www.w3.org/2000/svg" width="39.906" height="40" viewBox="0 0 39.906 40">
  <defs>
    <style>
      .cls-1 {
        fill: #fff;
        fill-rule: evenodd;
      }
    </style>
  </defs>
  <path id="Color_Fill_1" data-name="Color Fill 1" class="cls-1" d="M24.793,20H23.273a9.885,9.885,0,0,0-.595,1.386v1.122c-0.22,1-.033,2.072-0.265,3.1-0.353,1.572-.358,3.316-0.727,4.818l-0.132,1.188c-0.133.461-.452,0.8-0.595,1.188a4.883,4.883,0,0,1,1.19.99c1.18,0.886,2.206,1.965,3.372,2.838a3.88,3.88,0,0,1,1.454,1.386,4.034,4.034,0,0,1,.066,1.914,1.213,1.213,0,0,1-.4.066,5.238,5.238,0,0,0-1.124-.528c-1.187-.612-2.533-1.141-3.636-1.716-0.254-.133-1.521-0.66-1.521-0.66A4.7,4.7,0,0,0,20.1,39.01H20.033V38.944A11.412,11.412,0,0,1,19.7,37.03c-1.362.746-2.651,1.212-4.1,1.848A7.354,7.354,0,0,1,13.091,40V39.934H13.025a4.107,4.107,0,0,1,.066-1.914,3.914,3.914,0,0,1,1.455-1.386c1.134-.85,2.107-1.988,3.24-2.838a4.156,4.156,0,0,0,1.322-1.122c-0.637-.447-0.507-1.36-0.727-2.244-0.524-2.109-.437-4.572-0.926-6.8V22.442a7.778,7.778,0,0,0-.529-2.112A0.816,0.816,0,0,0,16.793,20H15.273v0.2a4.8,4.8,0,0,0-1.19.792c-0.642.427-1.344,0.8-1.983,1.188-2.364,1.447-4.865,2.442-7.141,3.828-0.759.463-1.553,0.728-2.314,1.188a1.006,1.006,0,0,1-.926.33A2.929,2.929,0,0,1,.727,26.2c-0.392-.892-1.041-3.287-0.4-4.224a5.042,5.042,0,0,1,1.19-.858c0.912-.658,1.78-1.38,2.711-2.046,2.947-2.111,5.738-4.523,8.661-6.667,0.946-.694,1.844-1.441,2.777-2.112a6.065,6.065,0,0,0,1.19-.858c0.51-.629.107-1.587,0.331-2.574,0.388-1.713.133-3.636,0.661-5.149,0.164-.469.3-1.7,0.727-1.65,0.82,0.1,2.786-.274,3.174.2a3.492,3.492,0,0,1,.331,1.056c0.331,1.006.4,2.328,0.661,3.5,0.143,0.65,0,1.386.132,1.98,0.217,1-.185,2.006.331,2.64a6.146,6.146,0,0,0,1.19.858c1.022,0.735,2.006,1.552,3.041,2.31,2.748,2.012,5.369,4.281,8.132,6.271,1.134,0.816,2.2,1.7,3.306,2.508a1.551,1.551,0,0,1,.992,1.056,2.685,2.685,0,0,1,.066,1.188,5.8,5.8,0,0,1-1.587,3.894c-0.869.016-2.649-1.247-3.306-1.65-1.161-.712-2.221-0.96-3.372-1.65-1.222-.733-2.553-1.432-3.769-2.178-0.819-.5-1.617-0.943-2.38-1.452A1.176,1.176,0,0,1,24.793,20ZM7.008,23.3a0.251,0.251,0,0,0,.132.2A0.724,0.724,0,0,0,7.008,23.3ZM33.19,23.366l-0.066.2H33.19V23.432h0.066C33.322,23.366,33.191,23.367,33.19,23.366Zm-26.314.066c-0.022.091,0.094,0.1,0.132,0.132C7.054,23.494,6.894,23.452,6.876,23.432ZM19.24,35.776a0.319,0.319,0,0,0,.066.2A0.319,0.319,0,0,0,19.24,35.776Zm1.521,0v0.2l0.264,0.066v-0.2Zm-1.719.132V36.04h0.132V35.974ZM13.157,38.68v0.132h0.066V38.68H13.157Zm13.686,0v0.132h0.066A0.226,0.226,0,0,0,26.843,38.68Zm0,0.264a0.319,0.319,0,0,0,.066.2v-0.2H26.843Zm-13.686.066v0.132h0.066V39.01H13.157Z" transform="translate(-0.063)"/>
</svg>
