<svg xmlns="http://www.w3.org/2000/svg" width="40" height="40" viewBox="0 0 40 40">
  <defs>
    <style>
      .cls-1 {
        fill: #fff;
        fill-rule: evenodd;
      }
    </style>
  </defs>
  <path id="Color_Fill_1" data-name="Color Fill 1" class="cls-1" d="M22.55,7.138h0.167q0.042,1.035.084,2.07a6.41,6.41,0,0,0,.711,1.056c0.454,0.725.895,1.447,1.338,2.154,1.73,2.763,3.424,5.532,5.142,8.279,0.665,1.064,1.288,2.134,1.965,3.168a3.1,3.1,0,0,0,.711,1.1V20.19c0.089-.149-0.008-0.528.084-0.676,0,1.262.042,2.607,0.042,3.928v1.9a5.654,5.654,0,0,1,.167,1.352,10.288,10.288,0,0,1-.167,2.534,3.243,3.243,0,0,1-.042.549V29.314a1.692,1.692,0,0,1-.794-0.676C31.62,28.3,31.245,28,30.91,27.666l-0.627-.676a16.26,16.26,0,0,1-1.338-1.309c-0.273-.263-0.57-0.491-0.836-0.76L27.441,24.2c-0.547-.418-0.926-1.026-1.463-1.436-0.273-.208-0.481-0.538-0.752-0.718a0.619,0.619,0,0,1-.167-0.042,13.118,13.118,0,0,0-2.006-2.027c-0.278-.212-0.456-0.561-0.752-0.76-0.121,1.95-.167,3.963-0.167,6.082v2.408a10.108,10.108,0,0,0,.794,1.14c0.585,0.882,1.16,1.78,1.714,2.661,0.461,0.733.911,1.447,1.379,2.154a2.126,2.126,0,0,0,.543.8v-0.76c0.068-.112.05-0.324,0.125-0.422v0.042a2.941,2.941,0,0,1,.084,1.225c0,1.094-.077,2.129-0.125,3.083H26.479a6.856,6.856,0,0,0-1.254-1.14c-0.367-.28-0.637-0.734-1-1.014a14.6,14.6,0,0,1-1.463-1.309,6.613,6.613,0,0,0-1.5-1.309,2.4,2.4,0,0,0-.5.338,5.8,5.8,0,0,0-.627,2.027v2.154A13.763,13.763,0,0,0,20.042,40H19.833a17.628,17.628,0,0,0-.084-2.661q-0.021-1.394-.042-2.788c-0.042-.159-0.159-0.4-0.209-0.549a1.212,1.212,0,0,0-.92-1.14,8.739,8.739,0,0,1-1.087.971c-0.4.307-.716,0.741-1.129,1.056l-0.5.549c-0.433.331-.78,0.726-1.212,1.056-0.362.276-.834,1.081-1.338,1.14-0.043-.965-0.125-2.019-0.125-3.126a4.23,4.23,0,0,1,.084-1.225h0.042a10.791,10.791,0,0,1,.084,1.225h0.042V34.467a8.211,8.211,0,0,0,.794-1.267c0.674-1.029,1.344-2.065,2.006-3.126,0.374-.6.772-1.211,1.171-1.816a2.794,2.794,0,0,0,.418-0.591v-2.45c0-2.1-.122-4.059-0.125-6.04H17.659a23.474,23.474,0,0,1-1.714,1.69,6.488,6.488,0,0,1-1.212,1.183L13.4,23.442a17.728,17.728,0,0,0-1.714,1.774c-0.51.515-1.049,0.851-1.588,1.394-0.663.668-1.345,1.317-2.006,1.985a1.739,1.739,0,0,1-.836.718A6.219,6.219,0,0,1,7.042,27.5a6.58,6.58,0,0,1,.125-2.2,8.169,8.169,0,0,1,.711-1.1c0.384-.613.755-1.22,1.129-1.816,1.943-3.1,3.788-6.226,5.727-9.335,0.582-.932,1.163-1.879,1.756-2.83a7.942,7.942,0,0,0,.669-0.972l0.125-2.112h0.125c0,0.54.08,0.9,0.084,1.478h0.042V8.574a3.385,3.385,0,0,0,.46-2.281v-0.8c0.142-.66-0.021-1.516.125-2.2,0.087-.4.025-0.871,0.125-1.309,0.106-.462.225-0.968,0.334-1.394a1.919,1.919,0,0,1,2.3-.3,1.784,1.784,0,0,1,.669.465,6.369,6.369,0,0,1,.209,1.858c0.246,1.122,0,2.519.251,3.675V7.814c0.072,0.285.289,0.452,0.376,0.718h0.084V8.11A2.3,2.3,0,0,0,22.55,7.138Z"/>
</svg>
