<svg xmlns="http://www.w3.org/2000/svg" width="40" height="40" viewBox="0 0 40 40">
  <defs>
    <style>
      .cls-1 {
        fill: #fff;
        fill-rule: evenodd;
      }
    </style>
  </defs>
  <path id="Color_Fill_1" data-name="Color Fill 1" class="cls-1" d="M19.869,0h0.21c0,1.106.1,2.147,0.105,3.329h1.051v-2.5h0.21V3.381c0.1,0.293.361,0.7,0.473,1.04l0.368,1.821c0.166,0.693.062,1.425,0.21,2.081v1.04c0.069,0.307-.03.825,0.053,1.2a17.338,17.338,0,0,1,.158,2.913L36.477,14.2a3.891,3.891,0,0,1,.052-1.457c0,0.515.039,1.005,0.053,1.457,0.78-.023,1.93-0.026,2.208.468,0.556,0.99-.08,3.764-0.946,3.849l-4.993,1.3v0.156a7.823,7.823,0,0,0-2.05.52,3.308,3.308,0,0,0-1.787.312c-1.325.446-2.749,0.65-4.047,1.04-0.6.181-2.289,0.342-2.47,0.832a2.913,2.913,0,0,0-.105.78c-0.179.771-.123,1.615-0.315,2.445L20.867,34.07a6.514,6.514,0,0,1,1.419.728c1.116,0.576,2.219,1.1,3.311,1.664,0.644,0.333,1.372.419,1.366,1.4a2.547,2.547,0,0,1-.315.468c-1.034.756-4.386,1.1-5.992,0.676a3.154,3.154,0,0,1-.315-0.728H20.289v0.052A4.09,4.09,0,0,0,20.026,40H19.921V39.376a5.476,5.476,0,0,1-.263-1.04H19.606v0.052a1.248,1.248,0,0,1-.42.624,3.345,3.345,0,0,1-1.84.208,9.845,9.845,0,0,1-3.206-.572,1.352,1.352,0,0,1-1.051-.624,0.875,0.875,0,0,1-.105-0.572,2.977,2.977,0,0,1,.421-0.572,12.594,12.594,0,0,1,1.367-.624c0.882-.454,1.793-0.947,2.681-1.4,0.459-.237,1.569-0.519,1.577-1.144a2.935,2.935,0,0,1-.105-0.78c-0.166-.7-0.132-1.472-0.315-2.237-0.236-.987-0.294-2.123-0.526-3.121L17.977,26.32a19.872,19.872,0,0,1-.473-3.641,0.772,0.772,0,0,1-.315-0.364,14.21,14.21,0,0,1-3-.728c-0.909-.29-1.769-0.35-2.681-0.624a20.6,20.6,0,0,0-2.05-.572,1.184,1.184,0,0,0-.368.1c-0.626-.058-1.307-0.45-2-0.52a0.25,0.25,0,0,0-.053-0.156A7.239,7.239,0,0,0,5.362,19.4a17.9,17.9,0,0,0-3.469-.884c-0.111-.165-0.316-0.261-0.42-0.416a5.218,5.218,0,0,1-.315-3.433c0.12-.078.2-0.251,0.315-0.312a4.969,4.969,0,0,1,1.156-.1c0.613-.133,1.44-0.022,2.05-0.156h1c0.885-.193,2.006-0.014,2.891-0.208h1c0.58-.126,1.368-0.029,1.945-0.156h1c0.59-.128,1.295.037,1.945-0.1a15.929,15.929,0,0,1,2.786-.156,8.382,8.382,0,0,1,.105-1.665c0.188-.847-0.067-1.774.105-2.549V8.218c0.142-.635.05-1.35,0.21-2.029l0.421-1.977c0.095-.257.331-0.606,0.42-0.832V0.832h0.21v2.5h1.051C19.761,2.136,19.859.959,19.869,0Z"/>
</svg>
