<svg xmlns="http://www.w3.org/2000/svg" width="40" height="40" viewBox="0 0 40 40">
  <defs>
    <style>
      .cls-1 {
        fill: #fff;
        fill-rule: evenodd;
      }
    </style>
  </defs>
  <path id="Color_Fill_1" data-name="Color Fill 1" class="cls-1" d="M21.024,28.153c-0.012.8-.185,3.089,0.13,3.567a0.525,0.525,0,0,1,.065-0.318v0.127a12.571,12.571,0,0,1,1.362,2.229A12.753,12.753,0,0,1,24.2,36.369h0.13a5.926,5.926,0,0,1,.065-1.146,0.228,0.228,0,0,1,.065.127c0.331,0.5-.021,3.161-0.13,3.631H24.2V38.917a3.693,3.693,0,0,1-.843-0.573,28.174,28.174,0,0,0-2.594-1.656,1.142,1.142,0,0,0-.065-0.573,0.526,0.526,0,0,1-.065.319V36.178a6.518,6.518,0,0,1-.843.127v0.127c-0.3.481-.076,1.957-0.065,2.548A6.786,6.786,0,0,1,19.532,40a0.229,0.229,0,0,1-.065-0.127A3.282,3.282,0,0,1,19.4,37.9a10.067,10.067,0,0,0-.194-1.592,4.849,4.849,0,0,1-.843-0.127,0.406,0.406,0,0,1-.065.255,0.406,0.406,0,0,0-.065-0.255,0.972,0.972,0,0,1-.065.51,9.055,9.055,0,0,1-1.3.828,9.762,9.762,0,0,1-2.2,1.465V38.917c-0.318-.439-0.27-3.006-0.13-3.694H14.6a2.367,2.367,0,0,0,.194,1.146V36.242a9.642,9.642,0,0,0,1.038-1.72A18.483,18.483,0,0,0,17.782,31.4h0.065a0.972,0.972,0,0,0,.065.509c0-1.189.062-2.483,0.065-3.758H10.065a0.3,0.3,0,0,1-.065.191v-1.4a3.825,3.825,0,0,1,.454-0.573c0.52-.8,1.054-1.58,1.556-2.357,1.4-2.16,2.713-4.3,4.15-6.433,0.478-.709.95-1.419,1.427-2.166a1.876,1.876,0,0,0,.324-0.382c0.074-.383-0.123-1.007,0-1.529,0.43-1.825-.043-4.369.194-6.306,0.029-.239-0.117-0.543-0.065-0.828a0.932,0.932,0,0,1-.259.064V6.306c0.592-.236.179-1.38,0.519-1.783a3.078,3.078,0,0,0,.519-0.191,9.357,9.357,0,0,0,.649-2.293h0.065l0.454,1.72h0.065V1.338A2.969,2.969,0,0,1,20.181,0a5.285,5.285,0,0,0,.065,1.274c0.009,0.006.124-.005,0.065,0.064a7.939,7.939,0,0,0-.13,3.121c0.4-.012.493,0.013,0.519,0.382,0.425,0.668-.007,1.835.195,2.739,0.4,1.8-.2,4.267.194,5.987v1.465a2.634,2.634,0,0,0,.389.51c0.418,0.617.844,1.244,1.232,1.847,1.394,2.165,2.754,4.272,4.15,6.433,0.5,0.775,1.025,1.567,1.556,2.357a4.37,4.37,0,0,1,.584.764V28.28H28.935c-0.2-.288-1.482-0.127-1.945-0.127H21.024Zm0,3.949a5.926,5.926,0,0,0,.065,1.146h0.065A4.559,4.559,0,0,0,21.024,32.1Zm-3.113.191a1.68,1.68,0,0,0,.065.764A1.682,1.682,0,0,0,17.911,32.293Zm0.065,1.147a0.406,0.406,0,0,0,.065.255A0.406,0.406,0,0,0,17.976,33.44Zm2.983,0a0.3,0.3,0,0,0,.065.191V33.44H20.959Zm-0.065.446a0.973,0.973,0,0,0,.065.51A0.971,0.971,0,0,0,20.894,33.885Zm-2.853.127a0.812,0.812,0,0,0,.065.446A0.813,0.813,0,0,0,18.041,34.013Zm2.788,0.637a0.971,0.971,0,0,0,.065.509A0.973,0.973,0,0,0,20.829,34.65Zm-2.724.127a0.812,0.812,0,0,0,.065.446A0.811,0.811,0,0,0,18.106,34.777Zm2.659,0.637a0.812,0.812,0,0,0,.065.446A0.812,0.812,0,0,0,20.765,35.414Zm-2.594.064a0.972,0.972,0,0,0,.065.51A0.972,0.972,0,0,0,18.171,35.478Z" transform="translate(0.5)"/>
</svg>
