<svg xmlns="http://www.w3.org/2000/svg" width="40" height="40" viewBox="0 0 40 40">
  <defs>
    <style>
      .cls-1 {
        fill: #fff;
        fill-rule: evenodd;
      }
    </style>
  </defs>
  <path id="Color_Fill_1" data-name="Color Fill 1" class="cls-1" d="M21.045,28.167V31.19a4.16,4.16,0,0,0,.592.836c0.64,1.005,1.13,2.02,1.775,3.023a6.562,6.562,0,0,1,.855,1.35h0.066a1.4,1.4,0,0,1,.2-1.157v0.322c0.313,0.471-.079,3.035-0.2,3.473H24.266V38.971l-3.484-2.315a4.054,4.054,0,0,1-.2-0.514,2.689,2.689,0,0,1-.789.129,5.078,5.078,0,0,1-.2,1.286,3.73,3.73,0,0,0,.131,1.35,8.314,8.314,0,0,1-.2,1.093,0.23,0.23,0,0,1-.066-0.129c-0.414-.649.13-1.634-0.066-2.379-0.071-.271-0.131-0.88-0.2-1.222a3.022,3.022,0,0,1-.789-0.129c-0.039.089-.147,0.514-0.2,0.579a3.2,3.2,0,0,1-.723.386c-0.51.332-1.006,0.763-1.512,1.093a4.4,4.4,0,0,0-1.249.836H14.668V38.907a8.746,8.746,0,0,1-.131-3.666H14.6a2.172,2.172,0,0,0,.2,1.093V36.206a5.765,5.765,0,0,0,.657-1.093c0.437-.687.856-1.41,1.315-2.122a14.814,14.814,0,0,0,1.183-1.736V28.167h-5.72A5.853,5.853,0,0,0,10,28.3V26.881l7.889-11.833V13.7a14.73,14.73,0,0,0,.132-2.894c0-1.552.01-2.987,0-4.437H17.955a0.34,0.34,0,0,1-.2.064V6.3c0.551-.22.273-1.284,0.592-1.736a1.6,1.6,0,0,0,.46-0.257,8.691,8.691,0,0,0,.657-2.251,0.23,0.23,0,0,1,.066.129c0.274,0.367.185,1.044,0.46,1.415V3.537a8.5,8.5,0,0,0,.066-2.251H19.993V1.35c-0.051.124-.066-0.129-0.066-0.129C20.192,0.972,19.99.316,20.19,0c0,0.421.057,0.968,0.066,1.286a19.53,19.53,0,0,0-.066,3.151,1.032,1.032,0,0,1,.526.129c0.121,2.038.263,4.367,0.263,6.688a11.457,11.457,0,0,0,.132,2.315v1.479a3.746,3.746,0,0,0,.46.579c0.528,0.816,1.049,1.6,1.578,2.379,1.3,1.918,2.489,3.846,3.747,5.788,0.466,0.72.95,1.456,1.446,2.186a4.524,4.524,0,0,1,.657.9v1.351H28.934a6.29,6.29,0,0,0-2.17-.064h-5.72Z" transform="translate(0.5)"/>
</svg>
