<svg xmlns="http://www.w3.org/2000/svg" width="40" height="40" viewBox="0 0 40 40">
  <defs>
    <style>
      .cls-1 {
        fill: #fff;
        fill-rule: evenodd;
      }
    </style>
  </defs>
  <path id="Color_Fill_1" data-name="Color Fill 1" class="cls-1" d="M23.765,30.049c-0.006.845,0.1,1.515,0.128,2.262a7.412,7.412,0,0,1,1.154,1.422c0.708,0.951,1.664,1.765,2.373,2.714a11.06,11.06,0,0,0,1.09,1.422A5.614,5.614,0,0,1,28.062,40c-1.106-.515-2.2-1.17-3.271-1.745a1.6,1.6,0,0,1-1.09-.775,3.451,3.451,0,0,1-.192-0.969c-0.291-.02-0.3-0.029-0.385-0.258-0.331-.386-0.133-1.266-0.449-1.68a1.5,1.5,0,0,1-.192.84,5.036,5.036,0,0,1-1.86.065L20.494,34.7H20.43v0.065a2.388,2.388,0,0,0-.128.84l-0.385.065-0.128-.646a0.808,0.808,0,0,1-.577.129l-0.064.517-0.385-.065-0.128-.9H18.57l-0.128.776h-1.86l-0.064-.194c-0.1-.162-0.085-0.487-0.192-0.646-0.067.832-.157,1.683-0.834,1.939l-0.128,1.163L10.938,40c-0.069-.855-0.683-1.62-0.257-2.391a10.756,10.756,0,0,1,.9-0.969c0.765-1.027,1.607-1.945,2.373-2.972,0.391-.524,1.177-0.9,1.218-1.745a4.575,4.575,0,0,0,.128-1.874,16.538,16.538,0,0,0-3.527.646c-1.011.259-2.044,0.169-3.143,0.452a10.275,10.275,0,0,1-2.373.452,0.749,0.749,0,0,1-.128-0.452,5.66,5.66,0,0,1,.192-2.52,3.73,3.73,0,0,1,.962-0.969q1.109-1.113,2.245-2.2a3.314,3.314,0,0,0,.77-0.646,5.723,5.723,0,0,1,.128-0.646,0.544,0.544,0,0,0,.128.452V24.556a14.116,14.116,0,0,0,1.283-1.1c0.088-.152.042-0.386,0.128-0.517a0.544,0.544,0,0,0,.064.323,4.341,4.341,0,0,1,1.026-.9,4.953,4.953,0,0,0,.705-0.84,2.047,2.047,0,0,0,.9-0.711,1.811,1.811,0,0,0,.9-1.034,3.948,3.948,0,0,0,.192-1.034c0.22-.848.327-1.7,0.577-2.585C17,13.795,17.8,11.47,18.378,9.047c0.236-.985-0.1-2.322.128-3.3,0.166-.724.16-1.572,0.385-2.262,0.159-.487.444-1.064,0.577-1.551C19.623,1.372,19.254.446,19.532,0a13.074,13.074,0,0,0,.834,4.265V4.782c0.184,0.789.133,1.807,0.321,2.649,0.174,0.781-.058,1.6.128,2.262,0.5,1.747,1.042,3.591,1.6,5.3L22.8,16.737a16.971,16.971,0,0,1,.705,3.36,2.333,2.333,0,0,1,.641.582c0.825,0.625,1.29,1.194,2.116,1.809a2.708,2.708,0,0,0,.834.711A0.314,0.314,0,0,1,27.164,23a3.215,3.215,0,0,0,1.411,1.616,0.644,0.644,0,0,1,.128-0.388c0.071,0.961,1.482,1.908,2.116,2.391l0.834,0.9c1.266,0.963,1.331,1.811,1.283,3.877a0.775,0.775,0,0,1-.577.194,6.178,6.178,0,0,0-1.154-.258,0.545,0.545,0,0,0-.064-0.323,0.544,0.544,0,0,1-.064.323,8.1,8.1,0,0,0-2.052-.388c-0.8-.218-1.528-0.153-2.437-0.388A14.58,14.58,0,0,0,23.765,30.049ZM11,29.4a1.185,1.185,0,0,0,.064.581A1.186,1.186,0,0,0,11,29.4Z" transform="translate(0.516)"/>
</svg>
