<svg xmlns="http://www.w3.org/2000/svg" width="40" height="40" viewBox="0 0 40 40">
  <defs>
    <style>
      .cls-1 {
        fill: #fff;
        fill-rule: evenodd;
      }
    </style>
  </defs>
  <path id="Color_Fill_1" data-name="Color Fill 1" class="cls-1" d="M27.83,13.067a3.528,3.528,0,0,1,.332-1.108,4.8,4.8,0,0,0,.291,1.231,18.23,18.23,0,0,1,2.492.451c0.5,0.127.948,0.077,1.454,0.205a9.071,9.071,0,0,0,1.911.328V12.041h0.083v2.174a14.437,14.437,0,0,1,1.994.369,10.119,10.119,0,0,1,2.825.739,1.419,1.419,0,0,1,.457.533,0.526,0.526,0,0,0,0,.205,2.754,2.754,0,0,0,.332.246c-0.017,1.518-1.162,2.125-2.326,2.5-0.408.132-.807,0.1-1.246,0.205a11.011,11.011,0,0,1-2.077.369V18.769H34.226v0.7a6.907,6.907,0,0,0-1.371.246c-0.645.169-1.312,0.171-1.911,0.328a1.719,1.719,0,0,1-.582.041c-1.041.366-2.357,0.378-3.447,0.656-1.271.324-2.763,0.194-3.7,0.821a3.7,3.7,0,0,0-1.412,2.01l-0.042.9c-0.147.652-.091,1.354-0.249,2.051a6.1,6.1,0,0,0-.166,2.256c1.257,0.742,2.65,1.378,3.9,2.133a7.355,7.355,0,0,1,1.869,1.026,0.964,0.964,0,0,1,.041.7,1.419,1.419,0,0,1-.872.739,8.725,8.725,0,0,1-3.531.779,5.15,5.15,0,0,1-1.828-.041,1.284,1.284,0,0,1-.291-1.19H20.6v0.041a2.454,2.454,0,0,0-.166.533,1.349,1.349,0,0,1-.166.082,1.222,1.222,0,0,1,.083.451A7.266,7.266,0,0,0,20.021,36H19.938V35.754a2.779,2.779,0,0,0-.083-0.861,5.7,5.7,0,0,0-.249-0.9,1.061,1.061,0,0,1,.083-0.41l-0.125-.041a4.572,4.572,0,0,1-.166-0.574H19.315v0.082c0.319,0.451-.232.946-0.457,1.149a12.411,12.411,0,0,1-4.777-.656,1.724,1.724,0,0,1-1.288-.944,1.259,1.259,0,0,1,.041-0.7c1.357-.732,2.742-1.506,4.112-2.215a5.987,5.987,0,0,0,1.62-.9,1.7,1.7,0,0,0,.041-1.108,19.916,19.916,0,0,0-.332-2.667c-0.1-.418.026-0.825-0.083-1.272a3.551,3.551,0,0,0-1.121-1.928,6.039,6.039,0,0,0-1-.615l-2.783-.41-5.9-1.067c-0.265-.055-0.216.123-0.332,0.164L5.9,19.672V19.59a0.208,0.208,0,0,1-.042-0.123H5.732v-0.7H5.607v0.615a8.822,8.822,0,0,1-1.828-.328c-0.41-.1-0.763-0.052-1.163-0.164C1.28,18.519-.034,17.972,0,16.226a3.227,3.227,0,0,0,.415-0.369V15.569c0.233-.13.47-0.333,0.706-0.451a4.507,4.507,0,0,1,.665-0.164c1.136-.37,2.455-0.382,3.7-0.7,0.9-.229,1.878-0.253,2.825-0.492a27.705,27.705,0,0,1,3.24-.574,3.934,3.934,0,0,1,.332-1.231,4.144,4.144,0,0,0,.291,1.067,0.557,0.557,0,0,0,.374,0,0.279,0.279,0,0,0,.166.246c0.387,0.232.367-.325,0.706-0.369a3.927,3.927,0,0,1,1-.164c0.716-.176,1.569-0.236,2.285-0.41a2.8,2.8,0,0,0,.914-0.164,2.386,2.386,0,0,0,.249-1.272c-0.153-.042-0.146-0.027-0.166-0.205,0.359-.525.075-1.445,0.249-2.174a2.821,2.821,0,0,1,.374-0.656L18.4,7.241A5.93,5.93,0,0,1,18.692,6.3H18.484c-0.515.344-2.428,0.011-2.949-.123a1.742,1.742,0,0,1-.706-0.164h0.083a3.951,3.951,0,0,1,1.08-.123,26.584,26.584,0,0,1,2.866-.082A3.687,3.687,0,0,1,20.062,4c0.265,0.43.6,0.872,0.872,1.313,0.136,0.222.023,0.464,0.374,0.492a3,3,0,0,0,.914-0.041,9.987,9.987,0,0,1,2.118.123,2.218,2.218,0,0,1,.789.123H25.047a3.621,3.621,0,0,1-1,.164,5.557,5.557,0,0,1-2.741.123V6.379a4.407,4.407,0,0,1,.332,1.436c0.1,0.372.315,0.673,0.415,0.985V9.949a4.548,4.548,0,0,1,.208.9c-0.2.058-.182,0.195-0.166,0.451,0.152,0.224.089,0.643,0.249,0.861a7.078,7.078,0,0,0,1.7.287c0.639,0.152,1.352.157,2.035,0.328A8.832,8.832,0,0,0,27.83,13.067Z"/>
</svg>
