<svg xmlns="http://www.w3.org/2000/svg" width="40" height="40" viewBox="0 0 40 40">
  <defs>
    <style>
      .cls-1 {
        fill: #fff;
        fill-rule: evenodd;
      }
    </style>
  </defs>
  <path id="Color_Fill_1" data-name="Color Fill 1" class="cls-1" d="M20.794,38.159h-1.01a3.437,3.437,0,0,1-.252,1.4H19.468V39.492a2.086,2.086,0,0,1-.252-1.333H18.143a0.826,0.826,0,0,0-.063-0.444,1.881,1.881,0,0,1,0,.952,1.54,1.54,0,0,1-.695.19,21.744,21.744,0,0,1-2.778.635,3.407,3.407,0,0,1-1.263-.952,7.3,7.3,0,0,0,1.073-1.587c0.67-.961,1.336-1.939,2.02-2.921a13.728,13.728,0,0,0,1.389-1.9l-0.253-5.778a0.477,0.477,0,0,0-.316-0.064c-0.281.133-.569,0.408-0.821,0.508l-8.271.317a15.948,15.948,0,0,1-3.914.127,4.011,4.011,0,0,1-.189-1.651,1.474,1.474,0,0,0,.126-0.444c1.567-.965,3.63-1.289,5.43-2.032,1.15-.474,2.4-0.774,3.6-1.27a10.608,10.608,0,0,1,2.336-.825v0.127a1.323,1.323,0,0,0-.505.952h0.063v0.064a0.216,0.216,0,0,0,.126-0.064,5.915,5.915,0,0,0,.442-1.27c0.312-.763.635-1.647,0.947-2.413a4.254,4.254,0,0,1,.379-1.079,1.262,1.262,0,0,0,.379.381V17.27c-0.073-.116-0.2-1.448-0.252-1.651a13.162,13.162,0,0,0,.252-1.4,1.152,1.152,0,0,1,.379-0.064,0.681,0.681,0,0,1,.379-0.063l0.189-1.206c0.052,0.206-.031.1,0.126,0.191V10.159a9.4,9.4,0,0,1,0-1.968,19.438,19.438,0,0,1,.884-5.333C19.481,2.321,19.328.32,19.532,0a19.355,19.355,0,0,0,.821,5.46c0.242,1.039-.029,2.418.316,3.365-0.219-.013-0.126.646-0.126,1.016v3.238H20.6a0.535,0.535,0,0,1,.063-0.317,8.963,8.963,0,0,0,.189,1.333,0.839,0.839,0,0,1,.695.191c0.465,0.608.074,2.453,0.063,3.429h0.063c0.053-.1.243-0.447,0.316-0.318a4.882,4.882,0,0,1,.379,1.079c0.311,0.761.637,1.651,0.947,2.413a2.6,2.6,0,0,0,.5,1.27V22.1a0.691,0.691,0,0,0,.063-0.381,1.633,1.633,0,0,1-.442-0.7h0.189a13.386,13.386,0,0,0,2.715.952c1.722,0.714,3.619,1.31,5.367,1.968,0.744,0.28,2.66.651,3.031,1.206a3.488,3.488,0,0,1,.126,1.9,1.582,1.582,0,0,0-.316.254l-11.112-.445a6.843,6.843,0,0,1-.884-0.063,1.872,1.872,0,0,0-1.136-.444A6.237,6.237,0,0,0,21.363,28a5.9,5.9,0,0,0-.063,1.4,14.72,14.72,0,0,0-.126,2.794,8.487,8.487,0,0,1,1.263,1.841c0.669,0.961,1.337,1.939,2.02,2.921A7.09,7.09,0,0,1,25.593,38.6H25.53a2.742,2.742,0,0,1-1.326.952,8.626,8.626,0,0,0-2.4-.635,1.471,1.471,0,0,1-.884-0.317,1.571,1.571,0,0,1,0-.889H20.857v0.063A0.692,0.692,0,0,0,20.794,38.159Zm-2.526-28H18.4C18.32,10.261,18.369,10.236,18.269,10.159ZM4.063,27.365a0.229,0.229,0,0,1,.063.127H4.063V27.365Zm13.764,7.619c-0.021.088,0.09,0.092,0.126,0.127C18,35.044,17.844,35,17.827,34.984Zm0.063,0.254v0.127h0.126V35.3ZM20.984,35.3a0.228,0.228,0,0,0,.126.063A0.227,0.227,0,0,0,20.984,35.3Zm3.346,4.317a0.337,0.337,0,0,1,0,.381V39.619Z" transform="translate(0.484)"/>
</svg>
