<svg xmlns="http://www.w3.org/2000/svg" width="40" height="40" viewBox="0 0 40 40">
  <defs>
    <style>
      .cls-1 {
        fill: #fff;
        fill-rule: evenodd;
      }
    </style>
  </defs>
  <path id="Color_Fill_1" data-name="Color Fill 1" class="cls-1" d="M22.408,14.952a10.055,10.055,0,0,0,.2,1.789q-0.032,1.374-.065,2.748A9.427,9.427,0,0,1,24.3,21.406a5.888,5.888,0,0,1,1.172,1.278h0.065a0.408,0.408,0,0,1,.065-0.256,16.128,16.128,0,0,0,1.237,1.342c0.814,1.058,1.789,1.945,2.6,3,0.326,0.424.768,0.773,1.107,1.214L31,28.371v3.514H30.87a14.928,14.928,0,0,0-2.994-.831c-1.089-.352-2.237-0.585-3.385-0.959a11.125,11.125,0,0,0-2.473-.7c0,1.086.063,2.279,0.065,3.45L26.444,37.7c0.347,0.53.062,2.149-.456,2.3a5.025,5.025,0,0,0-1.3-.256,18.8,18.8,0,0,0-3.124-.639,19.855,19.855,0,0,0,.065-2.364,17.368,17.368,0,0,1-.456,2.62H20.13a1.969,1.969,0,0,1-.065.639,0.224,0.224,0,0,1-.13-0.064,1.164,1.164,0,0,1-.065-0.575H18.894a1.874,1.874,0,0,0-.26-0.511v-0.7a3.783,3.783,0,0,0-.26-1.15l0.13,2.109L13.817,40c-0.08-.56-0.629-1.13-0.456-1.789a3.749,3.749,0,0,1,.976-1.278c0.722-.939,1.556-1.744,2.278-2.684a17.594,17.594,0,0,0,1.3-1.342V30.8a3.615,3.615,0,0,0,.065-1.406,10.017,10.017,0,0,0-2.473.7c-1.231.4-2.4,0.556-3.645,0.959A17.969,17.969,0,0,1,9,31.885V28.435a7.059,7.059,0,0,0,1.172-1.342l0.586-.511c0.657-.854,1.425-1.574,2.083-2.428,0.433-.563,1.3-1.027,1.562-1.725h0.065a0.407,0.407,0,0,0,.065.256,29.526,29.526,0,0,1,2.083-2.364,4.141,4.141,0,0,0,.911-1.022,3.838,3.838,0,0,1-.065-1.406c-0.018-.933.113-1.939,0.13-2.939l0.781-.064,0.325-.767h0.065c0.009,0.241-.031.225,0.13,0.319V14.058a18,18,0,0,1,0-3.131,35.357,35.357,0,0,1,.716-7.668c0.214-.9.2-1.793,0.39-2.62A2.552,2.552,0,0,1,20.065,0a12.022,12.022,0,0,0,.39,3.067l0.325,3a2.578,2.578,0,0,1,.2.256c0.113,0.4-.122,1.185,0,1.725a26.307,26.307,0,0,1,.13,6.39h0.13V14.377c0.044-.049.085-0.143,0.13-0.192v0.128c0.24,0.326.1,0.579,0.716,0.575A0.573,0.573,0,0,0,22.408,14.952ZM18.763,14.5a2.471,2.471,0,0,0,.065.767h0.065V14.5h-0.13Zm2.343,0c0.01,0.322,0,.38,0,0.767h0.13V14.5h-0.13ZM18.112,35.336v0.128h0.065V35.336H18.112Zm3.71,0.128a0.305,0.305,0,0,0,.065.192A0.305,0.305,0,0,0,21.823,35.463Zm-3.645.256a0.527,0.527,0,0,0,.065.319A0.527,0.527,0,0,0,18.178,35.719Zm3.58,0.192a0.406,0.406,0,0,0,.065.256A0.408,0.408,0,0,0,21.757,35.911Zm-3.515.256a0.526,0.526,0,0,0,.065.319A0.527,0.527,0,0,0,18.243,36.166Zm3.45,0.128a0.663,0.663,0,0,0,.065.383A0.663,0.663,0,0,0,21.692,36.294Zm-3.385.256a0.663,0.663,0,0,0,.065.383A0.664,0.664,0,0,0,18.308,36.55Z"/>
</svg>
