<svg xmlns="http://www.w3.org/2000/svg" width="40" height="40" viewBox="0 0 40 40">
  <defs>
    <style>
      .cls-1 {
        fill: #fff;
        fill-rule: evenodd;
      }
    </style>
  </defs>
  <path id="Color_Fill_1" data-name="Color Fill 1" class="cls-1" d="M20.591,13.333h0.187V12.9H20.84v0.123a2.02,2.02,0,0,1,.249.494l0.623,0.062a19.312,19.312,0,0,0,.062,2.469L23.831,18.7v0.741H23.706a2.2,2.2,0,0,0-1-.432v0.062a10.984,10.984,0,0,1,1,1.79c0.5,0.813.918,1.69,1.433,2.531a3.323,3.323,0,0,1,.374.556,6.626,6.626,0,0,1,.062.864h0.062a1.115,1.115,0,0,1,.062-0.556v0.123a16.71,16.71,0,0,1,1.683,2.963h0.062V26.111h0.062a2.28,2.28,0,0,0,.125.741,1.191,1.191,0,0,1,.249-0.864V25.926h0.062a22.411,22.411,0,0,0,.062,2.531c0.133,0.33.45,0.7,0.623,1.049,0.136-.113.082-0.189,0.249-0.123a4.66,4.66,0,0,1,.062.679c0.017,0.052.17,0.195,0.187,0.247v0.556L29.5,30.988a5.024,5.024,0,0,1,.5,2.469,12.8,12.8,0,0,0-2.68.185c-0.616.132-1.268,0.008-1.807,0.123H24.579c-0.92.2-2.123,0.109-2.991,0.309a4.088,4.088,0,0,0-.436.864l-0.125,2.531a15.929,15.929,0,0,0-.312,1.605H20.092a0.967,0.967,0,0,0-.436.926H19.407l-0.062-.617c-0.149-.073-0.26-0.258-0.374-0.309-0.2-.087-0.477.031-0.623-0.062a4.959,4.959,0,0,1-.249-1.42c-0.088-.376-0.1-1.012-0.187-1.42V35a3.415,3.415,0,0,1-.249-0.741c-0.216-.073-0.292-0.248-0.5-0.309H16.415a17.823,17.823,0,0,1-1.932-.123c-0.56-.12-1.235.013-1.87-0.123A18.668,18.668,0,0,0,9,33.457a5.464,5.464,0,0,1,.5-2.407c0.066-.1.317-0.089,0.374-0.185V30.37c0.031-.09.22-0.236,0.249-0.309,0.084-.212.006-0.579,0.062-0.741h0.062v0.062c0.043,0.048.082,0.138,0.125,0.185V29.506c1-1.059.278-2.173,0.748-3.58h0.062v0.062a4.232,4.232,0,0,0,.312.864,1.64,1.64,0,0,1,.062-0.741v0.123a2.586,2.586,0,0,1,.062,1.049H11.68V27.161a5.55,5.55,0,0,0,.623-1.111A8.347,8.347,0,0,0,13.362,24.2h0.062a1.116,1.116,0,0,0,.062.556V24.63c0.182-.307.081-0.835,0.249-1.111,0.9-1.473,1.846-3,2.617-4.568H16.291a3.861,3.861,0,0,1-1.059.494v-0.8a7.2,7.2,0,0,0,1.309-1.728,5.2,5.2,0,0,0,.685-0.8v-1.42a2.587,2.587,0,0,0,.062-1.049H17.35V13.58l0.623-.062a1.435,1.435,0,0,1,.249-0.556v0.37H18.41a23.479,23.479,0,0,1,.062-4.506V7.963c0.2-.882.15-1.806,0.374-2.716,0.147-.6.323-1.321,0.436-1.914l-0.062-.37A8.233,8.233,0,0,0,19.469,1.3,3.48,3.48,0,0,1,19.531,0c0.087,0.928.206,2.528,0.187,3.21a7.218,7.218,0,0,0,.374,1.481,22.067,22.067,0,0,0,.5,2.9c0.076,0.169-.091,1.385,0,1.79A17.625,17.625,0,0,1,20.591,13.333Zm-2.306.062c0.052,0.2-.031.094,0.125,0.185V13.4H18.285Zm2.306,0V13.58h0.187V13.4H20.591Z" transform="translate(0.5)"/>
</svg>
