<svg width="80" height="80" viewBox="0 0 80 80" fill="none" xmlns="http://www.w3.org/2000/svg">
<path d="M31.7638 35C31.7549 38.4008 31.7636 41.8015 31.7902 45.2021C32.2906 45.2545 32.7956 45.2718 33.3048 45.2549V44.1396L41.6203 44.1143C49.9362 44.0927 58.2524 44.0826 66.5685 44.0859V44.0869C66.7818 44.0289 66.9675 43.9222 67.1261 43.7676C67.4393 43.3359 67.6519 42.8578 67.7638 42.333C68.1508 40.5892 68.0623 38.871 67.4982 37.1787C67.4085 36.9632 67.2938 36.7685 67.1535 36.5947C66.9738 36.4512 66.7785 36.3271 66.5685 36.2227L48.4357 36.209V36.208C52.4652 36.2124 58.5095 36.2173 66.5685 36.2217C66.7784 36.3261 66.9729 36.4502 67.1525 36.5938C67.0175 36.3702 66.8231 36.2279 66.5685 36.168C66.4879 36.168 66.4075 36.1679 66.3273 36.168C58.0915 36.1447 49.8559 36.1092 41.6203 36.0615L33.3048 36.0098V35H31.7638ZM33.2521 44.6895C33.2432 44.8401 33.2435 44.9937 33.2521 45.1494H33.2511C33.2426 44.9939 33.2433 44.8408 33.2521 44.6904V44.6895ZM42.3908 43.582C42.4029 43.6435 42.4228 43.7007 42.4494 43.7539C42.4227 43.7007 42.4029 43.6435 42.3908 43.582ZM31.1261 36.54C26.9018 36.5223 22.6859 36.5407 18.4796 36.5938L18.4249 36.6309C18.3948 36.659 18.3775 36.6946 18.3722 36.7373L18.3732 36.8066L18.341 36.9199C18.3148 37.0352 18.3081 37.1571 18.3205 37.2852C18.3428 37.8079 18.3622 38.3317 18.38 38.8564C18.3622 38.3317 18.3428 37.8079 18.3205 37.2852C18.3114 39.322 18.3203 41.3588 18.3468 43.3955C18.3574 43.4922 18.4016 43.5634 18.4796 43.6084C18.4855 43.6409 18.5029 43.6672 18.5324 43.6875C22.7126 43.7141 26.8931 43.7237 31.0734 43.7148V43.7139C31.1265 41.3318 31.1438 38.9402 31.1261 36.54ZM12.3429 36.9658C12.2441 37.0926 12.1731 37.2342 12.13 37.3906C11.9409 39.252 11.9585 41.1125 12.1828 42.9707C12.2492 43.0504 12.3031 43.139 12.3429 43.2363C12.497 42.9622 12.6386 42.9622 12.7677 43.2363C12.8942 42.9576 13.0269 42.9576 13.1662 43.2363C13.2368 43.1655 13.3084 43.0943 13.379 43.0234C13.4528 43.0821 13.5147 43.1535 13.5646 43.2363C13.6353 43.1655 13.7068 43.0943 13.7775 43.0234C13.8481 43.0942 13.9188 43.1655 13.9894 43.2363C14.0611 43.1734 14.1238 43.1021 14.1759 43.0234C14.2646 43.0766 14.3347 43.1478 14.3878 43.2363C14.5297 42.9529 14.6717 42.9529 14.8136 43.2363C14.8875 43.1776 14.9492 43.1064 14.9992 43.0234C15.0698 43.0943 15.1414 43.1655 15.2121 43.2363C15.2838 43.1734 15.3455 43.1021 15.3976 43.0234C15.4853 43.0844 15.5651 43.1556 15.6369 43.2363C15.6868 43.1534 15.7495 43.0822 15.8234 43.0234C15.894 43.0942 15.9647 43.1656 16.0353 43.2363C16.0884 43.1477 16.1594 43.0766 16.2482 43.0234C16.3003 43.1021 16.362 43.1734 16.4337 43.2363C16.5044 43.1655 16.576 43.0943 16.6466 43.0234C16.7184 43.0864 16.7801 43.1576 16.8322 43.2363C16.9028 43.1655 16.9744 43.0943 17.0451 43.0234C17.1189 43.0822 17.1807 43.1534 17.2306 43.2363C17.3023 43.1557 17.3823 43.0844 17.4699 43.0234C17.5219 43.1021 17.5847 43.1734 17.6564 43.2363C17.7117 43.1968 17.7376 43.1429 17.7355 43.0762V43.0771C17.845 43.0143 17.9248 43.05 17.9747 43.1836C18.0188 41.1288 18.0105 39.0738 17.9484 37.0195C17.906 37.0437 17.888 37.0787 17.8947 37.125C17.8439 37.149 17.8004 37.1849 17.7628 37.2314C17.6794 37.1526 17.6079 37.0641 17.5499 36.9658C17.4485 37.225 17.3157 37.2423 17.1515 37.0186C17.0776 37.0773 17.0149 37.1485 16.965 37.2314C16.8817 37.1527 16.8109 37.0639 16.7531 36.9658C16.6266 37.2445 16.4938 37.2444 16.3546 36.9658C16.2154 37.2445 16.0826 37.2444 15.9562 36.9658C15.8728 37.0447 15.8012 37.1332 15.7433 37.2314C15.6934 37.1485 15.6316 37.0772 15.5578 37.0186C15.3936 37.2423 15.2598 37.225 15.1583 36.9658C15.0751 37.0446 15.0043 37.1333 14.9464 37.2314C14.8747 37.1685 14.812 37.0973 14.7599 37.0186C14.6892 37.0717 14.6186 37.1256 14.548 37.1787C14.4773 37.1256 14.4058 37.0717 14.3351 37.0186C14.2644 37.0717 14.1929 37.1256 14.1222 37.1787C14.0484 37.12 13.9866 37.0487 13.9367 36.9658C13.8787 37.0641 13.8072 37.1526 13.7238 37.2314C13.6738 37.1486 13.612 37.0772 13.5382 37.0186C13.4676 37.0717 13.396 37.1256 13.3253 37.1787C13.2547 37.1256 13.1841 37.0717 13.1134 37.0186C12.9492 37.2423 12.8155 37.225 12.714 36.9658C12.587 37.2472 12.464 37.2472 12.3429 36.9658ZM33.2521 35.0527L33.2511 35.0537L33.2521 35.0527Z" fill="#939393"/>
</svg>
