<svg xmlns="http://www.w3.org/2000/svg" width="40" height="40" viewBox="0 0 40 40">
  <defs>
    <style>
      .cls-1 {
        fill: #fff;
        fill-rule: evenodd;
      }
    </style>
  </defs>
  <path id="Color_Fill_1" data-name="Color Fill 1" class="cls-1" d="M21.6,10.124h2.942A9.944,9.944,0,0,1,24.6,7.9a1.161,1.161,0,0,1,.376-0.062l0.063-.556a16.826,16.826,0,0,1-3.067-.123l-0.063-.123h0.125a9.42,9.42,0,0,1,3.13-.247,1.044,1.044,0,0,1,1.064-.864V5.988a0.932,0.932,0,0,1,.626.8,14.3,14.3,0,0,1,3.192.309V7.16H29.984c-0.461.288-2.385,0.094-3,.062V7.284a1.489,1.489,0,0,1,.125.556h0.313L27.48,8.025a6.538,6.538,0,0,1,0,2.593H27.23v0.556c1.183,0.074,2.687.12,3.881,0.123a14.179,14.179,0,0,1,2.5.062c0.946,0.2,2.137-.122,3,0.062,0.939,0.2,2.151-.053,2.942.123a0.77,0.77,0,0,0,.438.679c-0.024,2.2-2.486,2.247-4.132,2.839-1.518.547-2.948,0.985-4.257,1.481a3.2,3.2,0,0,1-1.565.309,0.4,0.4,0,0,1-.125.247l-2.942.926a7.651,7.651,0,0,0-.939,1.42H25.978a6.141,6.141,0,0,0-.814-0.864c-0.064-.127,0-0.283-0.063-0.37,0,0.241.031,0.278-.125,0.37a16.1,16.1,0,0,1-2.5.864,1.7,1.7,0,0,0-.939.37c-0.277.451,0.031,2.621-.125,3.333-0.144.654,0.031,1.454-.125,2.16a39.957,39.957,0,0,0-.563,5.309c2.829-.038,5.492.723,6.948,2.1a2.156,2.156,0,0,1-.125.741,7.8,7.8,0,0,1-1.189.556l-3.38.37c-0.64.139-2.355-.2-2.692,0L20.031,35H19.969V34.938a3.824,3.824,0,0,0-.188-0.556H17.027a0.427,0.427,0,0,0-.25-0.062,0.3,0.3,0,0,0-.063-0.185v0.185c-1.324.036-4.333-.232-4.382-1.358-0.078-.1-0.04-0.032,0-0.123a2.283,2.283,0,0,1,1.377-1.049,12.893,12.893,0,0,1,5.571-1.173V30.494c-0.258-.423-0.109-2.026-0.25-2.654a32.582,32.582,0,0,1-.5-6.42q-0.031-1.265-.063-2.531a3.09,3.09,0,0,0-.063-1.173v1.975H18.279a17.637,17.637,0,0,0-3.506-1.111,2.718,2.718,0,0,1-.876.8,7.6,7.6,0,0,0-.876-1.358l-2.754-.864c-2.127-.777-4.394-1.451-6.51-2.222C2.13,14.346-.036,14.343,0,12.1H0.25a0.944,0.944,0,0,1,.313-0.556c0.578-.425,2,0.049,2.817-0.123,0.868-.184,2.058.138,3-0.062A12.059,12.059,0,0,1,8.513,11.3a40.873,40.873,0,0,0,4.194-.123V10.617h-0.25A12.729,12.729,0,0,1,12.52,7.9,1.16,1.16,0,0,1,12.9,7.84l0.063-.556c-0.887.018-2.587,0.2-3.067-.247h0.125a9.126,9.126,0,0,1,3.067-.247,2.542,2.542,0,0,1,.626-0.864h0.438a1.383,1.383,0,0,1,.626.864,10.312,10.312,0,0,1,3.255.309V7.16H17.966C17.5,7.453,15.528,7.255,14.9,7.222V7.346a1.771,1.771,0,0,1,.125.494c0.236,0.009.22-.029,0.313,0.123a4.112,4.112,0,0,1,.063,2.161h3a8.661,8.661,0,0,1,.375-2.778,3.963,3.963,0,0,0,.376-2.1H19.28V6.235h0.063V6.111a1.009,1.009,0,0,0,.313-1.049H19.593V5h0.125a1.635,1.635,0,0,0,.063.741,0.478,0.478,0,0,1,.438,0A0.864,0.864,0,0,1,20.344,5V5.864a0.819,0.819,0,0,1,.313.37H20.72V5.556a0.615,0.615,0,0,1-.063-0.309h0.125V6.42C21.311,6.987,21.587,9.032,21.6,10.124ZM7.324,15.988v0.123H7.387A0.21,0.21,0,0,0,7.324,15.988Zm2.692,0v0.123h0.063V15.988H10.016Zm-0.063.37v0.123h0.063V16.358H9.953Zm20.031,0.123V16.6h0.063V16.482H29.984ZM9.89,16.728a0.3,0.3,0,0,0,.063.185A0.3,0.3,0,0,0,9.89,16.728Z"/>
</svg>
