<svg xmlns="http://www.w3.org/2000/svg" width="39.969" height="40" viewBox="0 0 39.969 40">
  <defs>
    <style>
      .cls-1 {
        fill: #fff;
        fill-rule: evenodd;
      }
    </style>
  </defs>
  <path id="Color_Fill_1" data-name="Color Fill 1" class="cls-1" d="M14.948,6.486c0.031,0.446.363,0.713,0.373,1.068l-0.093.186L15.32,7.879c0.047,0.239-.075.477-0.046,0.7l0.093,0.139c0.015,0.145-.108.087-0.093,0.232a0.566,0.566,0,0,1,.093.279l-0.093.046a0.737,0.737,0,0,1,.093.325c-0.04.11-.1-0.035-0.14,0.232h3.166a8.136,8.136,0,0,1,.512-2.972,0.965,0.965,0,0,1,.652-0.882,1.673,1.673,0,0,1,.093-0.464c0.171-.056.256-0.166,0.419-0.232A2.322,2.322,0,0,1,20.4,5.6a0.546,0.546,0,0,1,.093.372h0.14A6.072,6.072,0,0,1,21.653,9.83H24.82c-0.042-.265-0.1-0.12-0.14-0.232s0.113-.615.093-0.743a3.96,3.96,0,0,1,.047-1.161,0.424,0.424,0,0,1-.093-0.139c-0.006-.229.326-0.668,0.373-1.022a14.316,14.316,0,0,1-3.12-.186V6.254h0.047V6.207a30.233,30.233,0,0,1,3.213-.139A1.229,1.229,0,0,1,26.17,5a3.422,3.422,0,0,1,.559.557l0.186,0.511H27.1a1.746,1.746,0,0,1,.838,0,6.331,6.331,0,0,1,2.235.279,0.132,0.132,0,0,1-.047.046,2.638,2.638,0,0,1-1.071.093c-0.6.02-1.4,0.03-2,0a7.893,7.893,0,0,0,.372,1.068,0.4,0.4,0,0,1-.093.139,1.974,1.974,0,0,0,.093.232,0.349,0.349,0,0,1-.093.186,1.429,1.429,0,0,1,.047.743C27.364,9,27.514,9.489,27.474,9.6l-0.14.046V10.9L36,11.084l2.328,0.046a2.375,2.375,0,0,1,1.211.139,0.5,0.5,0,0,1,.047.279h0.14a1.127,1.127,0,0,1,.093.325H40a2.1,2.1,0,0,1-1.118,2.043c-0.054.029-.606,0.117-0.792,0.186-0.99.366-2.066,0.61-3.073,1.022-1.595.651-3.325,1.06-4.983,1.672a17.306,17.306,0,0,1-2.934.975,6.011,6.011,0,0,0-.047-1.579v1.672a3.909,3.909,0,0,0-.931,1.347H26.03a1.539,1.539,0,0,0-.978-0.836l-3.446,1.161v-2H21.56a10.5,10.5,0,0,1-.047,2c-0.1.465,0.041,1.079-.047,1.486-0.132.609,0.025,1.264-.093,1.811v0.743c-0.129.591-.059,1.363-0.186,1.95l-0.047,1.207-0.373,3.808h0.093a3.693,3.693,0,0,0,.792.046l1.956,0.232a8.888,8.888,0,0,1,4.1,1.858,0.645,0.645,0,0,1-.047.511,1.313,1.313,0,0,1-1.118.7,11.761,11.761,0,0,1-3.26.418,0.388,0.388,0,0,0-.047-0.232V34.35h-2.98a1.581,1.581,0,0,1-.186.65,0.16,0.16,0,0,1-.093-0.046c-0.124-.142-0.119-0.4-0.233-0.557a2.22,2.22,0,0,0-.838-0.046h-2.1a0.488,0.488,0,0,0-.046-0.279V34.3a10.752,10.752,0,0,1-4-.65c-0.926-.578-0.252-1.27.373-1.625a2.082,2.082,0,0,0,.047.836V31.981a4.624,4.624,0,0,0,.7-0.372,17.2,17.2,0,0,1,1.909-.65c1.062-.321,2.3-0.18,3.492-0.418V30.449a16.315,16.315,0,0,1-.233-2.554c-0.348-1.588-.069-3.447-0.419-5.062-0.13-.6.026-1.259-0.093-1.811q-0.023-1.254-.047-2.508a2.771,2.771,0,0,0-.047-1.022v2.043H18.394a4.6,4.6,0,0,0-1.118-.371,10.211,10.211,0,0,0-2.514-.79,3.777,3.777,0,0,1-.838.836V19.164A7.968,7.968,0,0,1,13.178,18l-0.186-.139V16.192H12.945v1.579a4.72,4.72,0,0,1-1.118-.372c-0.752-.279-1.515-0.476-2.235-0.743-2.261-.838-4.575-1.454-6.8-2.276-1.407-.52-2.827-0.647-2.747-2.508H0.233l0.047-.279H0.326V11.548h0.14V11.269H0.512V11.223a23.263,23.263,0,0,1,2.654-.139H4.7l8.009-.186V9.644L12.573,9.6a0.521,0.521,0,0,1,.093-0.325,2.332,2.332,0,0,1,.047-1.161c0.018-.069-0.087-0.066-0.093-0.093l0.093-.325a0.465,0.465,0,0,1-.093-0.139c0-.26.327-0.648,0.373-1.022a14.06,14.06,0,0,1-3.073-.186V6.254H9.965V6.207a20.79,20.79,0,0,1,3.166-.139A1.253,1.253,0,0,1,14.063,5a3.289,3.289,0,0,1,.466.418,2.789,2.789,0,0,0,.279.65h0.233a1.79,1.79,0,0,1,.838,0,6.3,6.3,0,0,1,2.235.279,0.168,0.168,0,0,1-.093.046,2.612,2.612,0,0,1-1.071.093C16.347,6.507,15.553,6.516,14.948,6.486Zm4.936-1.022a0.664,0.664,0,0,0-.186.464h0.093a1.008,1.008,0,0,1,.605,0V5.882A0.681,0.681,0,0,1,20.3,5.557,1.153,1.153,0,0,0,19.884,5.464Zm-0.7.975c0.075,0.09.081,0.181,0.14,0.046Zm1.63,0a0.168,0.168,0,0,1-.093.046V6.533C20.775,6.512,20.941,6.479,20.815,6.44Zm9.127,9.241v0.093h0.047A0.159,0.159,0,0,0,29.942,15.681Zm-22.584.046V15.82H7.4A0.159,0.159,0,0,0,7.357,15.728Zm25.285,0V15.82h0.047A0.159,0.159,0,0,0,32.643,15.728Zm-22.631.232v0.093h0.047A0.159,0.159,0,0,0,10.012,15.96Zm19.977,0v0.093h0.047V15.96H29.988Zm-20.023.232a0.3,0.3,0,0,0,.047.186A0.3,0.3,0,0,0,9.965,16.192Zm20.07,0.046a0.224,0.224,0,0,0,.047.139A0.224,0.224,0,0,0,30.035,16.238Zm-20.116.232a0.3,0.3,0,0,0,.047.186A0.3,0.3,0,0,0,9.919,16.471Zm20.163,0.046a0.224,0.224,0,0,0,.047.139V16.517H30.082Zm-10.431,17.6a0.224,0.224,0,0,0,.046.139V34.118H19.651Zm0.7,0v0.093H20.4V34.118H20.349Z" transform="translate(-0.031)"/>
</svg>
