<svg xmlns="http://www.w3.org/2000/svg" width="18" height="18"><path d="M 9 1 L 17 9 L 9 17 L 1 9 L 9 1 Z M 10.111 4.837 C 10.092 4.771 10.062 4.709 10.021 4.653 C 9.976 4.602 9.916 4.567 9.849 4.552 C 9.738 4.526 9.626 4.511 9.512 4.509 Q 9.296 4.5 8.932 4.5 Q 8.618 4.5 8.426 4.509 C 8.325 4.511 8.225 4.526 8.127 4.552 C 8.066 4.568 8.011 4.602 7.97 4.65 C 7.932 4.701 7.903 4.758 7.883 4.819 L 5.421 11.85 C 5.38 11.962 5.349 12.076 5.329 12.193 C 5.312 12.263 5.328 12.336 5.372 12.392 C 5.433 12.448 5.512 12.48 5.594 12.481 C 5.742 12.495 5.89 12.502 6.038 12.5 Q 6.304 12.5 6.467 12.487 C 6.553 12.484 6.638 12.468 6.72 12.442 C 6.772 12.425 6.817 12.393 6.85 12.35 C 6.879 12.305 6.901 12.257 6.915 12.206 L 7.421 10.656 L 10.42 10.656 L 10.956 12.249 C 10.969 12.295 10.99 12.338 11.018 12.377 C 11.052 12.415 11.097 12.442 11.148 12.453 C 11.235 12.476 11.325 12.488 11.416 12.49 Q 11.592 12.499 11.906 12.499 Q 12.209 12.499 12.381 12.484 C 12.468 12.484 12.552 12.456 12.622 12.404 C 12.67 12.353 12.688 12.28 12.671 12.212 C 12.651 12.093 12.62 11.976 12.579 11.862 L 10.111 4.837 Z M 10.043 9.418 L 7.779 9.418 L 8.908 6.049 L 8.914 6.049 L 10.043 9.418 Z" fill-rule="evenodd" fill="#FFF"/></svg>