<svg xmlns="http://www.w3.org/2000/svg" width="18" height="18" viewBox="0 0 18 18">
  <defs>
    <style>
      .cls-1 {
        fill: #fff;
        fill-rule: evenodd;
      }
    </style>
  </defs>
  <path id="M" class="cls-1" d="M9,1L1,9l8,8,8-8L9,1m3.823,5.52a0.719,0.719,0,0,0-.033-0.227,0.457,0.457,0,0,0-.1-0.168,0.4,0.4,0,0,0-.163-0.1,0.7,0.7,0,0,0-.237-0.036h-0.9a1.287,1.287,0,0,0-.331.038,0.606,0.606,0,0,0-.247.13,0.843,0.843,0,0,0-.183.24,2.062,2.062,0,0,0-.145.362L9.006,10.674H8.986L7.558,6.744a1.685,1.685,0,0,0-.143-0.359,0.723,0.723,0,0,0-.2-0.234,0.781,0.781,0,0,0-.291-0.127,1.841,1.841,0,0,0-.4-0.038H5.642a0.5,0.5,0,0,0-.367.138,0.538,0.538,0,0,0-.138.4V12.4a0.158,0.158,0,0,0,.028.092,0.2,0.2,0,0,0,.1.066,0.994,0.994,0,0,0,.2.041,3.089,3.089,0,0,0,.614,0,1.053,1.053,0,0,0,.2-0.041,0.2,0.2,0,0,0,.1-0.066A0.158,0.158,0,0,0,6.407,12.4V7.03h0.01l1.845,5.362a0.2,0.2,0,0,0,.061.1,0.371,0.371,0,0,0,.125.069,0.889,0.889,0,0,0,.2.041,2.943,2.943,0,0,0,.3.013q0.173,0,.3-0.008a0.845,0.845,0,0,0,.2-0.033A0.324,0.324,0,0,0,9.567,12.5a0.248,0.248,0,0,0,.066-0.11L11.544,7.03h0.01V12.4a0.149,0.149,0,0,0,.031.092,0.212,0.212,0,0,0,.1.066,0.94,0.94,0,0,0,.194.041,2.535,2.535,0,0,0,.306.015A2.587,2.587,0,0,0,12.5,12.6a1,1,0,0,0,.2-0.041,0.2,0.2,0,0,0,.1-0.066,0.158,0.158,0,0,0,.028-0.092V6.52Z"/>
</svg>
