<svg xmlns="http://www.w3.org/2000/svg" width="18" height="18" viewBox="0 0 18 18">
  <defs>
    <style>
      .cls-1 {
        fill: #fff;
        fill-rule: evenodd;
      }
    </style>
  </defs>
  <path id="G" class="cls-1" d="M9,1L1,9l8,8,8-8L9,1m2.764,4.9a0.493,0.493,0,0,0-.116-0.234,1.28,1.28,0,0,0-.282-0.2,2.815,2.815,0,0,0-.507-0.211,5.135,5.135,0,0,0-.715-0.166A5.552,5.552,0,0,0,9.236,5.02,4.632,4.632,0,0,0,7.589,5.3a3.49,3.49,0,0,0-1.261.8,3.586,3.586,0,0,0-.807,1.276,4.748,4.748,0,0,0-.285,1.694A4.684,4.684,0,0,0,5.5,10.707a3.233,3.233,0,0,0,2,1.988,4.8,4.8,0,0,0,1.647.264c0.21,0,.543-0.01.751-0.03s0.413-.05.617-0.089,0.4-.087.59-0.142,0.349-.109.478-0.16a0.444,0.444,0,0,0,.255-0.211,0.729,0.729,0,0,0,.062-0.311V8.96a0.689,0.689,0,0,0-.03-0.211,0.45,0.45,0,0,0-.086-0.157,0.368,0.368,0,0,0-.131-0.1,0.417,0.417,0,0,0-.169-0.033H8.9a0.15,0.15,0,0,0-.095.033,0.254,0.254,0,0,0-.071.1,0.685,0.685,0,0,0-.044.181,2.188,2.188,0,0,0-.015.279,1.225,1.225,0,0,0,.059.454,0.185,0.185,0,0,0,.166.133h1.454v1.78a1.892,1.892,0,0,1-.475.178,3.481,3.481,0,0,1-.641.059,2.668,2.668,0,0,1-.976-0.172,2.017,2.017,0,0,1-.757-0.51,2.351,2.351,0,0,1-.49-0.84,3.515,3.515,0,0,1-.175-1.16,3.317,3.317,0,0,1,.172-1.095A2.433,2.433,0,0,1,7.5,7.034a2.192,2.192,0,0,1,.771-0.546A2.542,2.542,0,0,1,9.283,6.3,3.527,3.527,0,0,1,10.2,6.4a4.918,4.918,0,0,1,.679.231,3.708,3.708,0,0,1,.457.231,0.579,0.579,0,0,0,.249.107,0.146,0.146,0,0,0,.092-0.03,0.223,0.223,0,0,0,.065-0.1,0.931,0.931,0,0,0,.041-0.2,2.574,2.574,0,0,0,.015-0.3A2.1,2.1,0,0,0,11.764,5.9Z"/>
</svg>
