<svg xmlns="http://www.w3.org/2000/svg" width="18" height="18" viewBox="0 0 18 18">
  <defs>
    <style>
      .cls-1 {
        fill: #fff;
        fill-rule: evenodd;
      }
    </style>
  </defs>
  <path id="J" class="cls-1" d="M3,9a6,6,0,1,1,6,6A6,6,0,0,1,3,9ZM9.97,5.244a0.152,0.152,0,0,0-.038-0.1A0.284,0.284,0,0,0,9.8,5.068a1.181,1.181,0,0,0-.237-0.044Q9.42,5.01,9.2,5.01t-0.375.015a1.078,1.078,0,0,0-.237.044,0.281,0.281,0,0,0-.123.073,0.151,0.151,0,0,0-.038.1v5.393a2.195,2.195,0,0,1-.041.469,0.781,0.781,0,0,1-.12.29,0.422,0.422,0,0,1-.2.152,0.807,0.807,0,0,1-.278.044,0.892,0.892,0,0,1-.275-0.038,1.8,1.8,0,0,1-.2-0.079Q7.218,11.434,7.148,11.4a0.267,0.267,0,0,0-.123-0.038,0.145,0.145,0,0,0-.1.032,0.212,0.212,0,0,0-.059.111,1.2,1.2,0,0,0-.029.217q-0.009.138-.009,0.337,0,0.152.006,0.252a0.871,0.871,0,0,0,.023.167,0.448,0.448,0,0,0,.041.108,0.43,0.43,0,0,0,.059.079,0.45,0.45,0,0,0,.141.085,1.891,1.891,0,0,0,.249.088,2.549,2.549,0,0,0,.316.067,2.3,2.3,0,0,0,.348.026,2.467,2.467,0,0,0,.925-0.152,1.462,1.462,0,0,0,.606-0.442,1.747,1.747,0,0,0,.328-0.7,4.083,4.083,0,0,0,.1-0.928V5.244Z"/>
</svg>
