<svg xmlns="http://www.w3.org/2000/svg" width="18" height="18" viewBox="0 0 18 18">
  <defs>
    <style>
      .cls-1 {
        fill: #fff;
        fill-rule: evenodd;
      }
    </style>
  </defs>
  <path id="H" class="cls-1" d="M3,9a6,6,0,1,1,6,6A6,6,0,0,1,3,9Zm8.96-3.744a0.163,0.163,0,0,0-.038-0.105A0.268,0.268,0,0,0,11.8,5.074a1.231,1.231,0,0,0-.234-0.047,3.192,3.192,0,0,0-.369-0.018,3.334,3.334,0,0,0-.378.018,1.169,1.169,0,0,0-.234.047,0.267,0.267,0,0,0-.123.076,0.163,0.163,0,0,0-.038.105V7.99H7.586V5.256A0.172,0.172,0,0,0,7.551,5.15a0.247,0.247,0,0,0-.123-0.076,1.232,1.232,0,0,0-.234-0.047,3.975,3.975,0,0,0-.747,0,1.236,1.236,0,0,0-.237.047,0.268,0.268,0,0,0-.126.076,0.163,0.163,0,0,0-.038.105v7.468a0.163,0.163,0,0,0,.038.106,0.267,0.267,0,0,0,.126.076,1.227,1.227,0,0,0,.237.047,3.968,3.968,0,0,0,.747,0,1.223,1.223,0,0,0,.234-0.047,0.247,0.247,0,0,0,.123-0.076,0.171,0.171,0,0,0,.035-0.106V9.3H10.42v3.422a0.163,0.163,0,0,0,.038.106,0.267,0.267,0,0,0,.123.076,1.161,1.161,0,0,0,.234.047,3.336,3.336,0,0,0,.378.018,3.193,3.193,0,0,0,.369-0.018,1.222,1.222,0,0,0,.234-0.047,0.267,0.267,0,0,0,.126-0.076,0.163,0.163,0,0,0,.038-0.106V5.256Z"/>
</svg>
