<svg xmlns="http://www.w3.org/2000/svg" style="isolation:isolate" width="33" height="33"><defs><clipPath id="a"><path d="M0 0h33v33H0z"/></clipPath></defs><g clip-path="url(#a)"><path d="M4 16.5C4 9.601 9.601 4 16.5 4S29 9.601 29 16.5 23.399 29 16.5 29 4 23.399 4 16.5z" fill-opacity=".62"/><path d="M3.459 13A13.512 13.512 0 0 0 3 16.5c0 1.21.16 2.384.459 3.5H13v9.541c1.116.299 2.29.459 3.5.459s2.384-.16 3.5-.459V20h9.541c.299-1.116.459-2.29.459-3.5s-.16-2.384-.459-3.5H20V3.459A13.512 13.512 0 0 0 16.5 3c-1.21 0-2.384.16-3.5.459V13H3.459z" fill="#FFF"/><path d="M4.667 10A13.581 13.581 0 0 1 10 4.667V10H4.667zM23 4.667A13.581 13.581 0 0 1 28.333 10H23V4.667zM28.333 23A13.581 13.581 0 0 1 23 28.333V23h5.333zM10 28.333A13.581 13.581 0 0 1 4.667 23H10v5.333z" fill="#FFF"/></g></svg>