<svg xmlns="http://www.w3.org/2000/svg" style="isolation:isolate" width="33" height="33"><defs><clipPath id="a"><path d="M0 0H33V33H0z"/></clipPath></defs><g clip-path="url(#a)"><path d="M 3.1 16.5 C 3.1 9.104 9.104 3.1 16.5 3.1 C 23.896 3.1 29.9 9.104 29.9 16.5 C 29.9 23.896 23.896 29.9 16.5 29.9 C 9.104 29.9 3.1 23.896 3.1 16.5 Z" fill-opacity=".62"/><path d="M 3 16.5 C 3 9.049 9.049 3 16.5 3 C 23.951 3 30 9.049 30 16.5 C 30 23.951 23.951 30 16.5 30 C 9.049 30 3 23.951 3 16.5 Z M 16.5 28.845 L 10.945 19.222 L 5.389 9.6 L 16.5 9.6 L 27.611 9.6 L 22.055 19.222 L 16.5 28.845 Z" fill-rule="evenodd" fill="#FFF"/><path d="M 16.5 23.182 L 13.443 17.887 L 10.387 12.593 L 16.5 12.593 L 22.613 12.593 L 19.557 17.887 L 16.5 23.182 Z" fill="#FFF"/></g></svg>