<svg xmlns="http://www.w3.org/2000/svg" style="isolation:isolate" width="33" height="33"><defs><clipPath id="a"><path d="M0 0h33v33H0z"/></clipPath></defs><g clip-path="url(#a)"><path d="M4 16.5C4 9.601 9.601 4 16.5 4S29 9.601 29 16.5 23.399 29 16.5 29 4 23.399 4 16.5z" fill-opacity=".62"/><path d="M22.19 28.744A13.431 13.431 0 0 1 16.5 30c-2.033 0-3.961-.45-5.69-1.256l5.69-2.992 5.69 2.992zM29.905 14.889c.063.529.095 1.066.095 1.611 0 3.51-1.342 6.708-3.541 9.11l-1.082-6.307 4.528-4.414zM19.227 3.276a13.53 13.53 0 0 1 8.976 6.494l-6.217-.903-2.759-5.591zM4.797 9.77a13.53 13.53 0 0 1 8.976-6.494l-2.759 5.591-6.217.903zM3.095 14.889A13.611 13.611 0 0 0 3 16.5c0 3.51 1.342 6.708 3.541 9.11l1.082-6.307-4.528-4.414z" fill="#FFF"/><path d="M27.932 12.785l-5.716 5.572 1.35 7.868L16.5 22.51l-7.066 3.715 1.35-7.868-5.716-5.572 7.899-1.148L16.5 4.479l3.533 7.158 7.899 1.148z" fill="#FFF"/></g></svg>