<svg xmlns="http://www.w3.org/2000/svg" width="40" height="40" viewBox="0 0 40 40">
  <defs>
    <style>
      .cls-1 {
        fill: #fff;
        fill-rule: evenodd;
      }
    </style>
  </defs>
  <path id="Color_Fill_1" data-name="Color Fill 1" class="cls-1" d="M20.935,5.663V5.98h-0.6v0.2a4.02,4.02,0,0,1,1.274.079A8,8,0,0,1,22.129,7.8a15.513,15.513,0,0,1,.08,2.415,28.611,28.611,0,0,0,5.134.554,0.94,0.94,0,0,1,.159-0.277,6.109,6.109,0,0,0-.04-1.544h0.159c-0.07.507-.171,1.651,0.2,1.861a0.269,0.269,0,0,0,.159.04V9.186h0.2v1.663h0.2a1.143,1.143,0,0,1,.119-0.277V9.028h0.159V9.107a2.508,2.508,0,0,0,.2,1.782,14.2,14.2,0,0,0,2.07.158c1.455,0.321,3.2.076,4.657,0.4,0.368,0.081.756,0.009,1.075,0.079l1.035,0.04a4.269,4.269,0,0,1,1.513.515,1.174,1.174,0,0,1,.318.2V12.75a0.469,0.469,0,0,1,.318.158,1.484,1.484,0,0,1,.08.99v0.317a2.884,2.884,0,0,1-.677,1.267,1.279,1.279,0,0,1-.358.356,8.063,8.063,0,0,1-.955.4c-0.707.217-1.537,0.212-2.229,0.4l-0.716.079c-0.933.244-2.014,0.306-2.945,0.554l-0.716.079a4.786,4.786,0,0,1-.955.317,0.39,0.39,0,0,1-.159-0.119c-1,.2-2.124.332-3.1,0.594-1.033.275-2.114,0.291-3.1,0.554a1.47,1.47,0,0,0-.915.237,1.724,1.724,0,0,0-.08.356c-0.176.535-.288,1.1-0.478,1.663-0.294.878-.517,1.9-0.756,2.851-0.171.681-.166,1.375-0.318,2.019l-0.04.594c-0.223.93-.162,2.077-0.478,2.969h0.08a6.875,6.875,0,0,0,1.552.515c1.084,0.4,2.282.75,3.343,1.188,0.629,0.259,1.9.375,1.592,1.5a2.193,2.193,0,0,1-.08.356c-0.26.676-1.131,0.458-1.91,0.633s-1.7.134-2.468,0.317l-0.716.04a4.893,4.893,0,0,1-1.433.158,1.029,1.029,0,0,1-.517-0.831H20.3a2.463,2.463,0,0,0-.08.554c-0.1.015-.063-0.023-0.08,0.119a0.522,0.522,0,0,1,.04.277c-0.1.015-.063-0.023-0.08,0.119a0.427,0.427,0,0,1,.04.238c-0.08,0-.011-0.041-0.08,0a1.432,1.432,0,0,1-.08.435,5.943,5.943,0,0,1-.08-0.713c-0.105-.011-0.083-0.033-0.08-0.238a0.2,0.2,0,0,0,.04-0.119c-0.1-.016-0.086-0.063-0.08-0.277,0.065-.131-0.038-0.107-0.119-0.238-0.048-.077.043-0.171,0-0.277a0.143,0.143,0,0,0-.04.079,1.156,1.156,0,0,1-.438.792,4.025,4.025,0,0,1-1.512-.04c-1.114-.276-2.365-0.139-3.542-0.435-0.584-.147-1.286.046-1.473-0.475a1.722,1.722,0,0,1-.119-1.148c0.146-.11.205-0.332,0.358-0.435l4.537-1.584c0.364-.134,1.56-0.34,1.592-0.713a2.816,2.816,0,0,1-.119-0.752c-0.166-.693-0.145-1.446-0.318-2.178-0.2-.85-0.165-1.749-0.4-2.613-0.262-.974-0.5-2.021-0.8-2.93a11.205,11.205,0,0,0-.517-1.861,11.155,11.155,0,0,0-1.99-.356c-1.668-.426-3.477-0.588-5.174-0.95-0.033.129,0.02,0.061-.08,0.119-0.183-.111-0.467-0.01-0.677-0.119l-0.08-.158a10.827,10.827,0,0,0-1.393-.2c-1.154-.294-2.466-0.38-3.622-0.673a22.271,22.271,0,0,1-2.348-.436A2.665,2.665,0,0,1,.119,12.908a0.463,0.463,0,0,0,.318-0.594,4.881,4.881,0,0,1,1-.594,1.417,1.417,0,0,0,.716-0.2c0.209-.341-0.132-1.125.08-1.465L2.269,11.6h0.04l8.915-.713a0.707,0.707,0,0,1,.159-0.317,6.1,6.1,0,0,0-.04-1.544H11.5c-0.051.513-.24,1.779,0.318,1.821V9.186h0.2v1.663l0.239-.04a0.934,0.934,0,0,1,.119-0.317V8.949h0.159V9.028a3.5,3.5,0,0,0,.119,1.742h0.6a7.941,7.941,0,0,1,1.552-.119c0.475-.1,1.033,0,1.552-0.119l1.433-.317V9.86a3.182,3.182,0,0,1,0-1.029c0-.767.2-2.437,0.716-2.613a3.041,3.041,0,0,1,1.114-.04V5.98H19.065V5.663a15.27,15.27,0,0,1-2.149.079,13.242,13.242,0,0,0-2.388-.2l-0.04-.079c1.481-.018,2.991-0.114,4.577-0.119A3.254,3.254,0,0,1,19.861,4h0.279a2.51,2.51,0,0,1,.517.633,1.737,1.737,0,0,0,.279.713H23.2l2.308,0.119V5.5h-0.04a4.852,4.852,0,0,1-1.274.119,8.26,8.26,0,0,1-2.229.119A3.315,3.315,0,0,0,20.935,5.663Z"/>
</svg>
