<svg width="22" height="26" viewBox="0 0 22 26" fill="none" xmlns="http://www.w3.org/2000/svg">
<path fill-rule="evenodd" clip-rule="evenodd" d="M0.0329936 7.2477C0.820861 7.99037 2.2953 9.8099 1.89011 11.1467C1.48492 12.4835 0.483204 13.5604 0.0329936 13.9317C-0.0795589 15.2313 0.0329935 18.0535 1.38362 18.9447C2.17148 18.8209 3.91604 18.8704 4.59135 20.0587L3.40955 21.7297H5.94198C6.39219 22.8437 8.14011 25.1703 8.14011 25.1703C8.14011 25.1703 8.14011 22.8231 8.14011 21.4147L9.48738 21.1727L10.3315 26L11.5133 21.1727L12.1886 21.7297V25.443L13.2016 21.1727L13.7081 21.7297V26C14.8899 23.8958 17.1522 19.5388 16.747 18.9447C16.3418 18.3505 16.5782 17.088 16.747 16.531L18.2665 18.0163C19.6171 16.7167 22.2508 13.8203 21.9807 12.632C21.7106 11.4438 20.8552 10.5278 20.4613 10.2184C20.8552 9.10436 21.4067 6.54217 20.4613 5.20537C19.2794 3.53437 16.747 -0.178953 10.3315 0.0067134C3.91604 0.19238 0.0329936 5.01989 0.0329936 7.2477ZM4.59135 11.7035C5.94198 11.4064 7.51771 12.1987 8.13675 12.632L8.47441 15.0455C8.19303 15.7263 7.29261 17.0878 5.94198 17.0878C4.59135 17.0878 2.67797 15.4787 1.89011 14.6742C2.22776 13.8077 3.24072 12.0006 4.59135 11.7035ZM18.2665 11.7035C16.5107 10.9607 14.1583 12.8795 13.2016 13.9317C13.2016 14.303 13.5055 15.2312 14.7211 15.9738C15.9366 16.7165 18.6041 14.4266 19.7859 13.1888C20.011 13.0032 20.0223 12.4463 18.2665 11.7035Z" fill="url(#paint0_linear_36_1352)"/>
<defs>
<linearGradient id="paint0_linear_36_1352" x1="11" y1="0" x2="11" y2="26" gradientUnits="userSpaceOnUse">
<stop offset="0.207206" stop-color="#FCFBE0"/>
<stop offset="1" stop-color="#969585"/>
</linearGradient>
</defs>
</svg>
