<svg xmlns="http://www.w3.org/2000/svg" width="39.938" height="40" viewBox="0 0 39.938 40">
  <defs>
    <style>
      .cls-1 {
        fill: #fff;
        fill-rule: evenodd;
      }
    </style>
  </defs>
  <path id="Color_Fill_1" data-name="Color Fill 1" class="cls-1" d="M22.265,11.76H22.1v1.588h0.055V13.4a0.574,0.574,0,0,1,.327.055,0.574,0.574,0,0,0-.327.055,0.915,0.915,0,0,0,.546,0,0.352,0.352,0,0,1-.218-0.055l0.655,0.055V12.746h0.218v0.712a13.859,13.859,0,0,1,3,.219c0.514,0.126,1.075,0,1.528.11,0.97,0.238,2.127-.009,3.056.219h0.764c1.171,0.267,2.6.043,3.765,0.329h0.819c1.185,0.271,2.614-.009,3.22.821a2.846,2.846,0,0,1,.437,1.916l-0.054.6a3.581,3.581,0,0,1,.054,1.15,3.626,3.626,0,0,1-1.692,2.464,9.766,9.766,0,0,1-4.366.055c-0.725-.178-1.519,0-2.183-0.164H30.941c-1.188-.268-2.237.075-3.438-0.219l-4.311-.274c-0.706-.2-0.5-0.976-1.255-0.986L21.446,26c-0.221.988-.14,2.09-0.382,3.121a11.7,11.7,0,0,0-.327,1.971c2.277-.038,3.911,1.086,5.457,1.862,0.572,0.287,1.574.585,1.255,1.7-0.262.915-1.15,0.708-2.128,0.931-0.792.181-1.655,0.133-2.51,0.328a7.721,7.721,0,0,1-1.528.219l-0.873-1.533-0.273.164A8.447,8.447,0,0,1,19.973,37a11.784,11.784,0,0,0-.109-2.245,0.986,0.986,0,0,0-.273-0.164c-0.105.383-.723,1.533-1.2,1.533a6.35,6.35,0,0,0-1.637-.219c-0.821-.191-3.164-0.236-3.711-0.6a3.383,3.383,0,0,1-.437-0.547c-0.1-1.572.8-1.65,1.91-2.135,1.438-.631,2.72-1.5,4.8-1.533v-0.11c-0.383-.6-0.3-2.47-0.491-3.34-0.17-.753-0.157-1.686-0.327-2.464v-0.6a27.053,27.053,0,0,1-.382-4.873H17.626c-0.153,1.633-3.577.925-5.13,1.259-1.258.271-2.833,0.057-4.093,0.328H7.64c-0.694.149-1.48,0-2.237,0.164a5.98,5.98,0,0,1-3.82-.274A3.851,3.851,0,0,1,.055,18.659a3.558,3.558,0,0,1,.109-1.15,2.228,2.228,0,0,0-.109-0.438,2.312,2.312,0,0,1,.819-2.245c1.118-.759,3.56-0.262,5.13-0.6,1.194-.259,2.626-0.07,3.82-0.328h0.764c0.707-.153,1.521,0,2.292-0.164,0.456-.1,1.007,0,1.528-0.109a9.187,9.187,0,0,1,2.074-.164l0.764,0.055A2.755,2.755,0,0,1,17.9,13.4V12.636H17.79a0.367,0.367,0,0,1-.218.055V12.636a0.2,0.2,0,0,0,.055-0.11c0.4-.192.294-0.951,0.273-1.533a9.835,9.835,0,0,1,.055-2.409V7.38c0.315-1.427.149-2.861,0.982-3.723a1.414,1.414,0,0,1,1.255-.6C22.644,3.684,21.937,9.423,22.265,11.76Zm-4.693,1.7c-0.055.038-.218,0.07-0.273,0.11a1.228,1.228,0,0,0,.6-0.11H17.572Zm2.237,20.75a1.915,1.915,0,0,0-.109.328h0.055v0.055h0.109V34.208H19.809Zm0.327,0v0.383h0.109a0.459,0.459,0,0,0,.109-0.164C20.263,34.357,20.228,34.277,20.136,34.208Z" transform="translate(-0.031 -0.016)"/>
</svg>
