<svg xmlns="http://www.w3.org/2000/svg" style="isolation:isolate" width="21" height="21"><defs><clipPath id="a"><path d="M0 0H21V21H0z"/></clipPath></defs><g clip-path="url(#a)"><path d="M 2.5 10.5 C 2.5 6.085 6.085 2.5 10.5 2.5 C 14.915 2.5 18.5 6.085 18.5 10.5 C 18.5 14.915 14.915 18.5 10.5 18.5 C 6.085 18.5 2.5 14.915 2.5 10.5 Z" fill-opacity="0.25"/><path d="M 1 10.5 C 1 5.257 5.257 1 10.5 1 C 15.743 1 20 5.257 20 10.5 C 20 15.743 15.743 20 10.5 20 C 5.257 20 1 15.743 1 10.5 Z M 2.25 10.5 C 2.25 5.947 5.947 2.25 10.5 2.25 C 15.053 2.25 18.75 5.947 18.75 10.5 C 18.75 15.053 15.053 18.75 10.5 18.75 C 5.947 18.75 2.25 15.053 2.25 10.5 Z" fill-rule="evenodd" fill-opacity="0.5"/><path d="M 2 10.5 C 2 5.809 5.809 2 10.5 2 C 15.191 2 19 5.809 19 10.5 C 19 15.191 15.191 19 10.5 19 C 5.809 19 2 15.191 2 10.5 Z M 3 10.5 C 3 6.361 6.361 3 10.5 3 C 14.639 3 18 6.361 18 10.5 C 18 14.639 14.639 18 10.5 18 C 6.361 18 3 14.639 3 10.5 Z" fill-rule="evenodd" fill="#FFF"/><path d="M 4 10.5 C 4 6.913 6.913 4 10.5 4 C 14.087 4 17 6.913 17 10.5 C 17 14.087 14.087 17 10.5 17 C 6.913 17 4 14.087 4 10.5 Z" fill="#FFF"/><path d="M 11.38 12.666 L 9.516 12.666 L 9.516 12.666 Q 9.516 12.152 9.542 11.794 L 9.542 11.794 L 9.542 11.794 Q 9.568 11.436 9.665 11.149 L 9.665 11.149 L 9.665 11.149 Q 9.762 10.862 9.956 10.619 L 9.956 10.619 L 9.956 10.619 Q 10.15 10.377 10.5 10.101 L 10.5 10.101 L 10.5 10.101 Q 10.754 9.87 11.007 9.613 L 11.007 9.613 L 11.007 9.613 Q 11.261 9.355 11.466 9.083 L 11.466 9.083 L 11.466 9.083 Q 11.671 8.811 11.798 8.528 L 11.798 8.528 L 11.798 8.528 Q 11.924 8.244 11.924 7.961 L 11.924 7.961 L 11.924 7.961 Q 11.924 7.282 11.559 6.969 L 11.559 6.969 L 11.559 6.969 Q 11.194 6.656 10.493 6.656 L 10.493 6.656 L 10.493 6.656 Q 10.224 6.656 9.971 6.727 L 9.971 6.727 L 9.971 6.727 Q 9.717 6.798 9.519 6.954 L 9.519 6.954 L 9.519 6.954 Q 9.322 7.111 9.199 7.357 L 9.199 7.357 L 9.199 7.357 Q 9.076 7.603 9.068 7.946 L 9.068 7.946 L 6.988 7.946 L 6.988 7.946 Q 6.995 7.185 7.271 6.622 L 7.271 6.622 L 7.271 6.622 Q 7.547 6.059 8.017 5.686 L 8.017 5.686 L 8.017 5.686 Q 8.487 5.314 9.12 5.131 L 9.12 5.131 L 9.12 5.131 Q 9.754 4.948 10.493 4.948 L 10.493 4.948 L 10.493 4.948 Q 11.32 4.948 11.976 5.135 L 11.976 5.135 L 11.976 5.135 Q 12.633 5.321 13.084 5.69 L 13.084 5.69 L 13.084 5.69 Q 13.535 6.059 13.774 6.604 L 13.774 6.604 L 13.774 6.604 Q 14.012 7.148 14.012 7.864 L 14.012 7.864 L 14.012 7.864 Q 14.012 8.393 13.833 8.83 L 13.833 8.83 L 13.833 8.83 Q 13.654 9.266 13.371 9.642 L 13.371 9.642 L 13.371 9.642 Q 13.088 10.019 12.726 10.358 L 12.726 10.358 L 12.726 10.358 Q 12.364 10.698 11.999 11.018 L 11.999 11.018 L 11.999 11.018 Q 11.775 11.242 11.648 11.413 L 11.648 11.413 L 11.648 11.413 Q 11.522 11.585 11.466 11.764 L 11.466 11.764 L 11.466 11.764 Q 11.41 11.943 11.395 12.155 L 11.395 12.155 L 11.395 12.155 Q 11.38 12.368 11.38 12.666 L 11.38 12.666 Z M 9.21 14.926 L 9.21 14.926 L 9.21 14.926 Q 9.21 14.68 9.292 14.467 L 9.292 14.467 L 9.292 14.467 Q 9.374 14.255 9.531 14.098 L 9.531 14.098 L 9.531 14.098 Q 9.687 13.941 9.911 13.856 L 9.911 13.856 L 9.911 13.856 Q 10.135 13.77 10.418 13.77 L 10.418 13.77 L 10.418 13.77 Q 10.694 13.77 10.921 13.856 L 10.921 13.856 L 10.921 13.856 Q 11.149 13.941 11.305 14.098 L 11.305 14.098 L 11.305 14.098 Q 11.462 14.255 11.548 14.467 L 11.548 14.467 L 11.548 14.467 Q 11.633 14.68 11.633 14.926 L 11.633 14.926 L 11.633 14.926 Q 11.633 15.164 11.548 15.373 L 11.548 15.373 L 11.548 15.373 Q 11.462 15.582 11.305 15.731 L 11.305 15.731 L 11.305 15.731 Q 11.149 15.88 10.921 15.966 L 10.921 15.966 L 10.921 15.966 Q 10.694 16.052 10.418 16.052 L 10.418 16.052 L 10.418 16.052 Q 10.135 16.052 9.911 15.966 L 9.911 15.966 L 9.911 15.966 Q 9.687 15.88 9.531 15.731 L 9.531 15.731 L 9.531 15.731 Q 9.374 15.582 9.292 15.373 L 9.292 15.373 L 9.292 15.373 Q 9.21 15.164 9.21 14.926 Z" fill-rule="evenodd" fill="gray"/></g></svg>