<?xml version="1.0" encoding="utf-8"?>
<!-- Generator: Adobe Illustrator 25.4.1, SVG Export Plug-In . SVG Version: 6.00 Build 0)  -->
<svg version="1.1" id="Layer_1" xmlns="http://www.w3.org/2000/svg" xmlns:xlink="http://www.w3.org/1999/xlink" x="0px" y="0px"
	 viewBox="0 0 34 26" style="enable-background:new 0 0 34 26;" xml:space="preserve">
<g id="Layer_2_00000008871514940277824190000007249962105727433110_">
	<g id="Layer_2-2">
		<path style="fill:#FFFFFF;" d="M32.1,5H25V4.5c0-0.8-0.7-1-1.5-1S22,3.6,22,4.5V5h-3V2.4c0-0.5-0.1-0.9-0.3-1.3
			C18.4,0.4,17.7,0,17,0l0,0c-0.7,0-1.4,0.4-1.7,1.1C15.1,1.5,15,1.9,15,2.4V5h-3V4.5c0-0.8-0.7-1-1.5-1S9,3.7,9,4.5V5H1.9
			C1,5,0.3,5.5,0.1,6.4c-0.2,0.9,0.2,1.7,1.1,2.1L15,14l1,5l-4.6,2.5c-0.2,0.1-0.4,0.4-0.4,0.6v1.2c0,0.3,0.2,0.6,0.6,0.7l4.1,0.7
			c0,0.7,0.6,1.3,1.3,1.3c0.7,0,1.3-0.6,1.3-1.3l4.1-0.7c0.3-0.1,0.6-0.4,0.6-0.7v-1.2c0-0.3-0.1-0.5-0.4-0.6L18,19l1-5l13.9-5.6
			c0.8-0.3,1.3-1.2,1.1-2.1C33.8,5.5,33,5,32.1,5z"/>
	</g>
</g>
</svg>
