<svg xmlns="http://www.w3.org/2000/svg" width="80" height="40" viewBox="0 0 80 40">
  <defs>
    <style>
      .cls-1 {
        fill: #fff;
        fill-rule: evenodd;
      }
    </style>
  </defs>
  <path id="Color_Fill_1" data-name="Color Fill 1" class="cls-1" d="M45.892,10.891l0.192,1.234h0.671v0.664H46.18l0.1,0.949a0.466,0.466,0,0,0-.287.095c0.746,0,.908-0.173,1.629-0.19v0.285h0.192c0.372,0.179,1.139-.111,1.437.38a8.785,8.785,0,0,1-1.629.19v0.949H47.425a0.787,0.787,0,0,0-.1-0.474v0.19c-0.522.358-.409,1.4-0.383,2.277H47.9l0.1-.759h0.479l0.1,0.759a5.223,5.223,0,0,1,1.533.19c-0.038.215-.088,0.1,0,0.285l0.862,0.949c0.447,0.229.857,0.141,1.245,0.38,0.495,0.3.611,0.861,1.341,0.949a5.8,5.8,0,0,0,.1-1.613,6.869,6.869,0,0,1-.192-2.562,1.019,1.019,0,0,1-.575-0.095h0.862l0.383,3.985c2.28-.276,2.8-2.241,4.5-2.752v0.095c-1.139.795-1.7,2.362-2.874,3.131a2.611,2.611,0,0,0-.767,0,1.673,1.673,0,0,1,.958.285,15.787,15.787,0,0,1,4.024,2.182c0.571,0.422,1.2,1.248,1.629,1.518h0.383a9.375,9.375,0,0,1,2.108.854l0.383,0.664c0.285,0.159.824-.049,1.054,0.095l-1.054.095-0.575.759a4.083,4.083,0,0,0-.767.38c-0.292.369,0.157,0.42-.479,0.664a1.232,1.232,0,0,1-.767-0.095s-1.011.63-1.054,0.664c1.242-.147,1.941.845,2.874,1.328v0.095H63.234c-0.846-.749-2.45-0.614-3.353-1.329a1.918,1.918,0,0,1,.767.19l-0.287-.474a1.771,1.771,0,0,1-.575.095c-0.037.248,0.071,0.124-.192,0.19-0.669-.315-1.752.484-2.2,0.569-0.185.035-.865-0.2-1.341-0.19a1.193,1.193,0,0,1-.1.38,0.85,0.85,0,0,0-.671-0.285,1.965,1.965,0,0,1-1.245,1.044,0.346,0.346,0,0,1-.192.095,0.987,0.987,0,0,0-.1-0.949,0.651,0.651,0,0,1-.383.095c-0.232,1.039.2,1.159,0.383,2.183,1.389,0.011,2.123-.45,3.545-0.474V31.1H57.2V31.2a7.472,7.472,0,0,1-1.437.664c-0.959.242-2.083,0.093-2.97,0.285h-1.15c-1.37.3-2.922,0.057-4.407,0.38A28.8,28.8,0,0,1,41.581,33l-0.1-.285a1.009,1.009,0,0,1,.575-0.19,7.834,7.834,0,0,1,2.012-.19c-0.034-1.013-.705-2.3-1.629-2.277a0.456,0.456,0,0,1-.1.285V30.058l-2.108-.19a1.06,1.06,0,0,0,0,.474,0.652,0.652,0,0,0,.383.095l-0.1.664a3.666,3.666,0,0,1-2.108-.854,0.981,0.981,0,0,0,.192-0.569,4.059,4.059,0,0,1-1.916-.285,4.867,4.867,0,0,1-.287.664h-0.1V29.964a1.183,1.183,0,0,0-.958-0.759c-0.123.011-.12,0.1-0.383,0.19v-0.38a1.857,1.857,0,0,0-1.054.19c-0.052-.75-0.391-0.578-0.767-0.949A17.284,17.284,0,0,0,32,26.737H26.347c-0.451.276-4.454,0.095-5.365,0.095l-13.8.095A3.9,3.9,0,0,0,6.707,29.3l-0.766.095a4.5,4.5,0,0,0-.479,1.139c-1.889.2-3.36,1.255-5.365,1.328L0,31.672a9.444,9.444,0,0,0,3.641-.854,1.975,1.975,0,0,0,1.246-.474H4.024a1.548,1.548,0,0,1-.671-0.569L4.6,25.693H4.407c-0.554-.327-1.6-0.035-2.108-0.38a0.341,0.341,0,0,1-.1-0.19,4.4,4.4,0,0,0,.958-0.285c0.475-.135,1.3.332,1.629-0.19a9.6,9.6,0,0,1-.958-2.088c-0.81-1.613-2.208-3.807-2.4-5.6a2.079,2.079,0,0,1,.671-0.095,2.065,2.065,0,0,1,.958-0.095,3.742,3.742,0,0,1,.383.759h-0.1V17.438a0.938,0.938,0,0,0-.766-0.569c0.031,0.27.1,0.2,0,.38V17.153A1.1,1.1,0,0,1,2.4,16.869c-0.2.064-.664,0.122-0.862,0.19a0.324,0.324,0,0,0,.1.19c0.114,0.526.276,0.6,0.958,0.569l0.1-.19a0.582,0.582,0,0,1-.192-0.19l0.192-.095V17.248h0.1v0.095a0.646,0.646,0,0,0,.671.38s0.042-.377.1-0.19v0.095c0.74,0.541.9,1.72,1.629,2.277a3.092,3.092,0,0,1-.1-0.949H5.94v0.19c0.315,0.543.018,1.392,0.192,2.088,0.228,0.91.931,2.382,2.108,2.372a6.144,6.144,0,0,1,1.437-.095,26.938,26.938,0,0,1,5.269-.38V22.467a2.077,2.077,0,0,1,.671-0.095,2.024,2.024,0,0,1,.1.664l4.407-.285c0.547-1,.16-1.11,1.82-1.044l0.192,0.854h1.245a2.344,2.344,0,0,1,1.054-.095l0.1-.569h0.287L24.623,20h0.1V19.905H24.91A9.354,9.354,0,0,0,25.1,21.9l0.192-.095V21.9c0.266,0.342.115,0.465,0.767,0.474,0.621-.377,1.986-0.058,2.683-0.285l0.1-.759-0.479-.095a0.324,0.324,0,0,0-.1-0.19l0.1-.285h0.1c0.04,0.34-.045.239,0.192,0.38v0.095h0.1c0.117-.234.169-0.146,0.287-0.38a0.7,0.7,0,0,1-.575-0.19h0.192a0.652,0.652,0,0,1,.383-0.095,4.728,4.728,0,0,0-.1-1.8h0.192a2.2,2.2,0,0,1,1.437-.095c-0.046,1.184,0,2.47.766,2.847V21.423c1.159-.843,1.4-1.9.958-3.511,2.313-.131,4.46-0.786,6.9-0.854a1.362,1.362,0,0,1,.192-0.949h0.1V16.2a1.127,1.127,0,0,1,.287.949l4.12,0.095a2.985,2.985,0,0,0-.575-2.372,0.992,0.992,0,0,1-.1.569l-0.1-.949a8.52,8.52,0,0,1-1.629-.19v-0.19c0.669-.03,1.133-0.137,1.725-0.19V13.642c0.565,0.026,1.093.371,1.533,0.095-0.311-.079-0.146.046-0.287-0.19a7.851,7.851,0,0,0,.383-2.562,11.962,11.962,0,0,1-1.15-.664c-0.242-.244-0.326-0.617-0.575-0.854C43.082,7.766,44.185,6.945,45.988,7c1.043,0.936,1.77.622,1.725,2.752C46.987,10.071,46.8,10.744,45.892,10.891Zm-4.5,3.131v0.569a0.271,0.271,0,0,0-.1.095,23.044,23.044,0,0,0-5.365-.285H34.012a27.827,27.827,0,0,0-5.078-.095H13.03a6.409,6.409,0,0,1-2.3-.095c7.3,0.014,15.279-.095,22.994-0.095h5.653a5.181,5.181,0,0,1,2.587-.095H41.389Zm7.952,0a0.808,0.808,0,0,1-.479-0.095c1.008-.022,2.173.19,3.641,0.19H71.569c1.9,0,4.07-.239,5.365.095,0.875,0.226,2.391-.351,3.066.095H63.808c-2.328,0-5.97-.313-7.76.095-1.685.384-3.807-.309-5.365,0.095a7.274,7.274,0,0,1-1.15.095A0.543,0.543,0,0,1,49.341,14.022Zm-6.036.19a0.466,0.466,0,0,0,.287-0.095,0.367,0.367,0,0,1-.192-0.285h-0.1v0.38Zm0.862-.285-0.192.285a2.878,2.878,0,0,0,.575-0.19Zm2.2,0c0.052,0.336-.058.1,0.383,0.285v-0.19Zm0.958,0.095a0.346,0.346,0,0,1-.192.095v0.095h0.287A0.324,0.324,0,0,0,47.329,14.022Zm-4.024.285a0.456,0.456,0,0,0,.1.285c0.124-.234-0.041-0.065.192-0.19V14.307H43.305Zm0.671,0a2.342,2.342,0,0,0,.288.285,0.346,0.346,0,0,1,.192-0.095V14.4Zm2.587,0c-0.074.065-.214,0.124-0.288,0.19h0.192c0.093,0.024.036,0.074,0.1,0l0.192-.095A0.346,0.346,0,0,0,46.563,14.307Zm0.671,0,0.1,0.285h0.1V14.307H47.234Zm-3.162.38v0.38a1.368,1.368,0,0,0,.383.095,1.129,1.129,0,0,1,.479-0.19l0.1-.19A3.181,3.181,0,0,0,44.072,14.686Zm1.724,0c0,0.292.281,0.425,0.767,0.475a2.438,2.438,0,0,0,.192-0.475H45.8Zm-2.2.19a1.012,1.012,0,0,0,.287.475A0.649,0.649,0,0,0,43.593,14.876Zm3.353,0v0.38h0.1v-0.19a0.341,0.341,0,0,0,.1-0.19H46.946Zm-1.82,1.518a4.083,4.083,0,0,1,.1-1.234H45.03a0.944,0.944,0,0,1-1.054.095v0.38a2.629,2.629,0,0,1,.671.854A1.513,1.513,0,0,1,45.126,16.394Zm0.479,0,0.575,0.095a4.7,4.7,0,0,0,.575-1.234H46.563a0.958,0.958,0,0,1-.958-0.095v1.234Zm-1.629-.38a2.172,2.172,0,0,1,0,1.234h0.479v-0.19a0.777,0.777,0,0,1-.1-0.759A1.686,1.686,0,0,0,43.976,16.015Zm2.683,0a1.717,1.717,0,0,1-.287.38,1.813,1.813,0,0,1-.1.949,1.383,1.383,0,0,1,.479.095V16.015h-0.1Zm-1.82.759a0.371,0.371,0,0,0,.287.19v-0.19H44.838Zm0.862,0v0.19h0.1V16.869h0.1A0.346,0.346,0,0,0,45.7,16.774Zm-1.15.19v0.19h0.1v-0.19h-0.1Zm0.192,0.095c0.079,0.308-.047.145,0.192,0.285A0.361,0.361,0,0,0,44.743,17.058Zm1.15,0-0.1.285h0.192A0.456,0.456,0,0,0,45.892,17.058ZM54.8,19.81a1.384,1.384,0,0,0-.575.38c0.2,0.087-.066.05,0.1,0.19,0.15,0.118.049,0.061,0.192,0a0.341,0.341,0,0,0,.1-0.19s-0.374-.019-0.192-0.095h0.192a0.686,0.686,0,0,1,.383-0.19V19.81H54.8ZM19.258,26.737l12.551-.095V26.547A7,7,0,0,1,30.85,25.5a13.951,13.951,0,0,0-2.491.095c-0.032.429,0.012,0.4-.383,0.474a0.65,0.65,0,0,0-.287-0.474,12.664,12.664,0,0,0-4.407.095c-0.153.079-1.365-.19-1.82-0.19-0.878,0-1.817.323-2.108,0A2.838,2.838,0,0,0,19.258,26.737Zm-0.192,0V25.6H7.856a4.953,4.953,0,0,0-.575,1.234H9.772c0.488-.3,1.894-0.095,2.587-0.095h6.707Zm44.263,0.474a0.341,0.341,0,0,1,.1.19h-0.1v-0.19ZM60.838,28.73a0.347,0.347,0,0,0,.192.095A0.346,0.346,0,0,0,60.838,28.73Zm-8.814.759v0.569H51.545V29.584a3.3,3.3,0,0,0-.767.095v0.38a4.33,4.33,0,0,0-.1.664H50.108a1.078,1.078,0,0,0-.671-1.044,4.369,4.369,0,0,1-1.054.095,21.456,21.456,0,0,1-4.311.285,7.179,7.179,0,0,0,.383,2.183c2.821,0.007,5.7-.644,8.91-0.664a3.394,3.394,0,0,0-1.054-2.182A0.492,0.492,0,0,1,52.024,29.489Z"/>
</svg>
