<?xml version="1.0" encoding="UTF-8"?>
<svg id="Layer_1" data-name="Layer 1" xmlns="http://www.w3.org/2000/svg" width="128" height="128" xmlns:xlink="http://www.w3.org/1999/xlink" viewBox="0 0 128 128">
  <defs>
    <style>
      .cls-1 {
        fill: url(#linear-gradient-8);
      }

      .cls-1, .cls-2, .cls-3, .cls-4, .cls-5, .cls-6, .cls-7, .cls-8, .cls-9, .cls-10, .cls-11, .cls-12, .cls-13, .cls-14, .cls-15, .cls-16, .cls-17, .cls-18, .cls-19, .cls-20, .cls-21, .cls-22, .cls-23, .cls-24, .cls-25, .cls-26, .cls-27, .cls-28, .cls-29, .cls-30, .cls-31, .cls-32, .cls-33, .cls-34, .cls-35, .cls-36, .cls-37, .cls-38, .cls-39, .cls-40, .cls-41, .cls-42, .cls-43, .cls-44, .cls-45, .cls-46, .cls-47, .cls-48, .cls-49, .cls-50, .cls-51, .cls-52, .cls-53, .cls-54, .cls-55, .cls-56, .cls-57, .cls-58 {
        stroke-width: 0px;
      }

      .cls-1, .cls-2, .cls-3, .cls-4, .cls-5, .cls-6, .cls-7, .cls-8, .cls-9, .cls-10, .cls-11, .cls-12, .cls-13, .cls-14, .cls-15, .cls-16, .cls-17, .cls-19, .cls-20, .cls-21, .cls-23, .cls-24, .cls-25, .cls-26, .cls-27, .cls-28, .cls-29, .cls-30, .cls-31, .cls-32, .cls-33, .cls-34, .cls-35, .cls-36, .cls-37, .cls-39, .cls-41, .cls-44, .cls-45, .cls-46, .cls-47, .cls-50, .cls-51, .cls-52, .cls-53, .cls-55, .cls-57 {
        fill-rule: evenodd;
      }

      .cls-2 {
        fill: url(#linear-gradient-11);
      }

      .cls-3 {
        opacity: .21;
      }

      .cls-3, .cls-20, .cls-31, .cls-52 {
        fill: #e9e9e9;
      }

      .cls-4 {
        fill: url(#linear-gradient-7);
      }

      .cls-5 {
        fill: #292b28;
      }

      .cls-6 {
        fill: #3c3f3b;
      }

      .cls-7 {
        fill: #0e0c0c;
      }

      .cls-8 {
        fill: #282927;
        opacity: .5;
      }

      .cls-9 {
        fill: url(#linear-gradient-9);
      }

      .cls-10 {
        fill: #090909;
      }

      .cls-11 {
        fill: #0b0c0c;
      }

      .cls-12 {
        fill: #040404;
      }

      .cls-13 {
        fill: #282828;
      }

      .cls-14 {
        fill: silver;
      }

      .cls-16 {
        fill: url(#linear-gradient-3);
      }

      .cls-17 {
        fill: #5e5e5e;
      }

      .cls-18 {
        fill: #1a1a1a;
      }

      .cls-19, .cls-56 {
        fill: #474948;
      }

      .cls-20 {
        opacity: .24;
      }

      .cls-21 {
        fill: #565656;
      }

      .cls-22 {
        fill: none;
      }

      .cls-23 {
        fill: url(#radial-gradient-2);
      }

      .cls-24 {
        fill: #101010;
      }

      .cls-25 {
        fill: #464b70;
      }

      .cls-26 {
        fill: #1e1e1e;
      }

      .cls-27 {
        fill: url(#radial-gradient-8);
      }

      .cls-28 {
        fill: url(#radial-gradient-3);
      }

      .cls-29 {
        fill: url(#radial-gradient-11);
      }

      .cls-30 {
        fill: #0a0a0a;
      }

      .cls-31 {
        opacity: .2;
      }

      .cls-32 {
        fill: url(#linear-gradient);
      }

      .cls-33 {
        fill: url(#linear-gradient-13);
      }

      .cls-34 {
        fill: url(#radial-gradient-7);
      }

      .cls-35 {
        fill: #fff;
      }

      .cls-36 {
        fill: url(#linear-gradient-2);
      }

      .cls-37 {
        fill: #b09cb5;
      }

      .cls-38 {
        fill: url(#radial-gradient-5);
      }

      .cls-39 {
        fill: url(#linear-gradient-5);
      }

      .cls-40 {
        fill: url(#radial-gradient);
      }

      .cls-41 {
        fill: #7f7f7f;
      }

      .cls-42 {
        fill: url(#radial-gradient-10);
      }

      .cls-43 {
        fill: #2c2d2d;
        isolation: isolate;
      }

      .cls-44 {
        fill: url(#linear-gradient-12);
      }

      .cls-45 {
        fill: #a4a7a6;
      }

      .cls-46 {
        fill: url(#linear-gradient-14);
      }

      .cls-47 {
        fill: #7b807d;
      }

      .cls-48 {
        fill: url(#radial-gradient-6);
      }

      .cls-49 {
        fill: url(#radial-gradient-9);
      }

      .cls-50 {
        fill: #181918;
      }

      .cls-51 {
        fill: url(#linear-gradient-6);
      }

      .cls-52 {
        opacity: .3;
      }

      .cls-53 {
        fill: url(#linear-gradient-4);
      }

      .cls-54 {
        fill: url(#radial-gradient-4);
      }

      .cls-55 {
        fill: #cacaca;
      }

      .cls-57 {
        fill: url(#linear-gradient-10);
      }

      .cls-58 {
        fill: #595c5b;
      }
    </style>
    <linearGradient id="linear-gradient" x1="-326.44" y1="-125.06" x2="-325.8" y2="-125.06" gradientTransform="translate(-7755.95 8677.27) rotate(111.1) scale(33.2)" gradientUnits="userSpaceOnUse">
      <stop offset="0" stop-color="#1a1b19"/>
      <stop offset=".14" stop-color="#0c0c0c"/>
      <stop offset=".21" stop-color="#151614"/>
      <stop offset=".32" stop-color="#5d5f5c"/>
      <stop offset=".45" stop-color="#a4a5a4"/>
      <stop offset=".58" stop-color="#9d9e9b"/>
      <stop offset=".76" stop-color="#393b37"/>
      <stop offset=".87" stop-color="#181917"/>
      <stop offset="1" stop-color="#0c0c0c"/>
    </linearGradient>
    <linearGradient id="linear-gradient-2" x1="-325.98" y1="-126.32" x2="-325.27" y2="-126.32" gradientTransform="translate(-8282.09 8775.32) rotate(114.72) scale(33.69 30.93) skewX(5.45)" gradientUnits="userSpaceOnUse">
      <stop offset="0" stop-color="#090909"/>
      <stop offset=".08" stop-color="#3e413d"/>
      <stop offset=".13" stop-color="#1a1b19"/>
      <stop offset=".2" stop-color="#151614"/>
      <stop offset=".32" stop-color="#5d5f5c"/>
      <stop offset=".45" stop-color="#a4a5a4"/>
      <stop offset=".58" stop-color="#9d9e9b"/>
      <stop offset=".76" stop-color="#393b37"/>
      <stop offset=".87" stop-color="#181917"/>
      <stop offset="1" stop-color="#0c0c0c"/>
    </linearGradient>
    <radialGradient id="radial-gradient" cx="-322.01" cy="-119.63" fx="-322.01" fy="-119.63" r=".64" gradientTransform="translate(-5413.64 -7269.04) rotate(-175.86) scale(18.08 57.97) skewX(3.84)" gradientUnits="userSpaceOnUse">
      <stop offset="0" stop-color="#a4a5a4"/>
      <stop offset=".34" stop-color="#9d9e9b"/>
      <stop offset=".68" stop-color="#393b37"/>
      <stop offset=".87" stop-color="#181917"/>
      <stop offset="1" stop-color="#0c0c0c"/>
    </radialGradient>
    <linearGradient id="linear-gradient-3" x1="42.52" y1="102.97" x2="38.65" y2="110.04" gradientUnits="userSpaceOnUse">
      <stop offset="0" stop-color="#636765"/>
      <stop offset=".5" stop-color="#4f524f"/>
      <stop offset="1" stop-color="#989996"/>
    </linearGradient>
    <linearGradient id="linear-gradient-4" x1="-323.23" y1="40.52" x2="-322.64" y2="40.52" gradientTransform="translate(-1080.18 2423.08) rotate(113.96) scale(8.01 -2.45) skewX(2.26)" xlink:href="#linear-gradient-3"/>
    <radialGradient id="radial-gradient-2" cx="-341.1" cy="-123.22" fx="-341.1" fy="-123.22" r=".64" gradientTransform="translate(-2470.8 -6256.72) rotate(-73.69) scale(15.85 -34.31)" gradientUnits="userSpaceOnUse">
      <stop offset="0" stop-color="#565656"/>
      <stop offset="1" stop-color="#0c0c0c"/>
    </radialGradient>
    <linearGradient id="linear-gradient-5" x1="-325.02" y1="-102.37" x2="-324.46" y2="-102.37" gradientTransform="translate(15.19 10099.58) rotate(107.79) scale(29.41 -29.41)" xlink:href="#linear-gradient-2"/>
    <linearGradient id="linear-gradient-6" x1="-322.96" y1="-98.82" x2="-322.26" y2="-98.82" gradientTransform="translate(390.49 8150.15) rotate(104.66) scale(23.93 -23.93)" gradientUnits="userSpaceOnUse">
      <stop offset="0" stop-color="#090909"/>
      <stop offset=".08" stop-color="#3e413d"/>
      <stop offset=".13" stop-color="#1a1b19"/>
      <stop offset=".2" stop-color="#060605"/>
      <stop offset=".45" stop-color="#5d5f5c"/>
      <stop offset=".58" stop-color="#51524f"/>
      <stop offset=".64" stop-color="#393b37"/>
      <stop offset=".87" stop-color="#070807"/>
      <stop offset="1" stop-color="#0c0c0c"/>
    </linearGradient>
    <radialGradient id="radial-gradient-3" cx="-324.62" cy="-123.45" fx="-324.62" fy="-123.45" r=".64" gradientTransform="translate(17988.31 5158.34) rotate(20.85) scale(57.12 -13.41)" gradientUnits="userSpaceOnUse">
      <stop offset="0" stop-color="#353535"/>
      <stop offset=".61" stop-color="#2c2c2c"/>
      <stop offset="1" stop-color="#000"/>
    </radialGradient>
    <linearGradient id="linear-gradient-7" x1="-325.24" y1="-101.36" x2="-324.6" y2="-101.36" gradientTransform="translate(-26.39 10395.32) rotate(107.86) scale(30.29 -30.29)" gradientUnits="userSpaceOnUse">
      <stop offset="0" stop-color="#090909"/>
      <stop offset=".08" stop-color="#3e413d"/>
      <stop offset=".13" stop-color="#1a1b19"/>
      <stop offset=".2" stop-color="#151614"/>
      <stop offset=".32" stop-color="#5d5f5c"/>
      <stop offset=".45" stop-color="#949694"/>
      <stop offset=".55" stop-color="#979897"/>
      <stop offset=".76" stop-color="#393b37"/>
      <stop offset=".87" stop-color="#181917"/>
      <stop offset="1" stop-color="#0d0d0d"/>
    </linearGradient>
    <linearGradient id="linear-gradient-8" x1="-317.79" y1="-106.14" x2="-317.18" y2="-106.14" gradientTransform="translate(5764.24 7222.07) rotate(69.84) scale(27.27 -27.27)" gradientUnits="userSpaceOnUse">
      <stop offset="0" stop-color="#3e413d"/>
      <stop offset=".32" stop-color="#5d5f5c"/>
      <stop offset=".45" stop-color="#a4a5a4"/>
      <stop offset=".58" stop-color="#414240"/>
      <stop offset=".76" stop-color="#393b37"/>
      <stop offset=".95" stop-color="#181917"/>
      <stop offset="1" stop-color="#383838"/>
    </linearGradient>
    <linearGradient id="linear-gradient-9" x1="-360.83" y1="-128.14" x2="-360.19" y2="-128.14" gradientTransform="translate(-2822.68 -3363.22) rotate(-110.35) scale(11.77 -11.77)" gradientUnits="userSpaceOnUse">
      <stop offset="0" stop-color="#000"/>
      <stop offset="1" stop-color="#4b4b4b"/>
    </linearGradient>
    <radialGradient id="radial-gradient-4" cx="-314.8" cy="-106.39" fx="-314.8" fy="-106.39" r=".64" gradientTransform="translate(-3950.08 6729) rotate(137.93) scale(26.61 -20.96) skewX(-18.05)" gradientUnits="userSpaceOnUse">
      <stop offset="0" stop-color="#353736"/>
      <stop offset="1" stop-color="#242424"/>
    </radialGradient>
    <linearGradient id="linear-gradient-10" x1="-325.02" y1="-101.84" x2="-324.41" y2="-101.84" gradientTransform="translate(32.23 10104.31) rotate(107.79) scale(29.41 -29.41)" xlink:href="#linear-gradient-2"/>
    <radialGradient id="radial-gradient-5" cx="-319.74" cy="-108.62" fx="-319.74" fy="-108.62" r=".64" gradientTransform="translate(-5786.51 9155.09) rotate(140.02) scale(37.17 -28.93) skewX(-20.76)" xlink:href="#radial-gradient-4"/>
    <radialGradient id="radial-gradient-6" cx="-320.4" cy="-112.39" fx="-320.4" fy="-112.39" r=".64" gradientTransform="translate(-1562.84 11101.78) rotate(122.77) scale(34.98 -40.38) skewX(-15.11)" gradientUnits="userSpaceOnUse">
      <stop offset="0" stop-color="#838383"/>
      <stop offset=".37" stop-color="#000"/>
      <stop offset="1" stop-color="#000"/>
    </radialGradient>
    <radialGradient id="radial-gradient-7" cx="-344.71" cy="-109.64" fx="-344.71" fy="-109.64" r=".64" gradientTransform="translate(-9102.23 -2111.41) rotate(-148.85) scale(26.22 -26.22)" gradientUnits="userSpaceOnUse">
      <stop offset="0" stop-color="#7a9db1"/>
      <stop offset="1" stop-color="#8f8cae"/>
    </radialGradient>
    <linearGradient id="linear-gradient-11" x1="-233.38" y1="-121.38" x2="-232.74" y2="-121.38" gradientTransform="translate(1091.42 316.64) rotate(39.77) scale(3.8 -3.8)" gradientUnits="userSpaceOnUse">
      <stop offset="0" stop-color="#b7bad8"/>
      <stop offset="1" stop-color="#b396bb"/>
    </linearGradient>
    <linearGradient id="linear-gradient-12" x1="-345.29" y1="-134.57" x2="-344.65" y2="-134.57" gradientTransform="translate(-808.72 -5074.93) rotate(-78.81) scale(14.2 -14.2)" gradientUnits="userSpaceOnUse">
      <stop offset="0" stop-color="#b396bb"/>
      <stop offset="1" stop-color="#53798e"/>
    </linearGradient>
    <radialGradient id="radial-gradient-8" cx="-320.6" cy="-121.51" fx="-320.6" fy="-121.51" r=".64" gradientTransform="translate(9897.82 -2976.6) rotate(3.5) scale(30.05 -30.05)" gradientUnits="userSpaceOnUse">
      <stop offset="0" stop-color="#090909"/>
      <stop offset=".08" stop-color="#3e413d"/>
      <stop offset=".13" stop-color="#1a1b19"/>
      <stop offset=".2" stop-color="#151614"/>
      <stop offset=".32" stop-color="#5d5f5c"/>
      <stop offset=".45" stop-color="#a4a5a4"/>
      <stop offset=".58" stop-color="#9d9e9b"/>
      <stop offset=".76" stop-color="#393b37"/>
      <stop offset=".87" stop-color="#181917"/>
      <stop offset="1" stop-color="#0c0c0c"/>
    </radialGradient>
    <radialGradient id="radial-gradient-9" cx="-342.91" cy="-146.76" fx="-342.91" fy="-146.76" r=".64" gradientTransform="translate(3213.44 -217.66) rotate(27.19) scale(7.77 -11.55)" gradientUnits="userSpaceOnUse">
      <stop offset="0" stop-color="#838383"/>
      <stop offset="1" stop-color="#4f4f4f"/>
    </radialGradient>
    <linearGradient id="linear-gradient-13" x1="-322.98" y1="-99.61" x2="-322.29" y2="-99.61" gradientTransform="translate(440.42 8164.85) rotate(104.66) scale(23.93 -23.93)" xlink:href="#linear-gradient-6"/>
    <linearGradient id="linear-gradient-14" x1="-293.42" y1="-143.36" x2="-292.85" y2="-143.36" gradientTransform="translate(2691.83 -1043.99) rotate(3.5) scale(8.83 -8.83)" xlink:href="#linear-gradient-2"/>
    <radialGradient id="radial-gradient-10" cx="-370.99" cy="-234.93" fx="-370.99" fy="-234.93" r=".64" gradientTransform="translate(1148.7 -265) rotate(27.19) scale(2.28 -3.39)" xlink:href="#radial-gradient-9"/>
    <radialGradient id="radial-gradient-11" cx="-327.43" cy="-109.64" fx="-327.43" fy="-109.64" r=".64" gradientTransform="translate(8775.34 27887.06) rotate(91.22) scale(84.56 -84.57)" gradientUnits="userSpaceOnUse">
      <stop offset="0" stop-color="#d7d7d7"/>
      <stop offset=".81" stop-color="#555"/>
      <stop offset="1" stop-color="#fff"/>
    </radialGradient>
  </defs>
  <g>
    <path class="cls-15" d="m36.12,62.93l4.85,1.4c.1.04.2.07.29.12,2.24.84,4.09,3.07,4.86,6.38l15.23,4.52c-.11-1.2.78-2.41,1.15-2.78.82-.78,2.25-1.45,4.08-1.81,2.27-.45,5.2-.49,7.95,0,2.87.51,4.9,1.54,5.87,2.56.73.79,1.02,2.58,1.02,2.58-.02.21-.09,2.05-.18,3.63,0,0,3.16.9,3.16.9.08.01.16.02.24.04,1.64.28,3.09,1.31,4.08,2.99,0,0,.97.28.97.29,1.05.03,2.05.21,3.01.54,0,0,26.13,7.62,26.13,7.62,1.38.1,2.61.76,3.58,1.94,1.17,1.44,1.95,3.79,1.88,6.76-.09,3.24-1.15,6.51-2.72,8.92-1.17,1.8-2.63,3.12-4.13,3.75-1.39.58-2.69.57-3.84.14-.04-.02-16.96-6.16-16.96-6.16l.03,5.81c-.03.73-.45,1.38-1.11,1.71l-4.9,2.44c-.26.13-1.02.37-1.02.37-.21,0-.43-.03-.64-.1l-12.56-4.11-.42,1.55c-.31.4-.75.67-1.24.76l-2.26.44c-.23,0-.47-.04-.69-.13l-3.85-1.41-1.19.46-.05.09.56.79c.36.5.47,1.15.29,1.74-.18.6-.63,1.07-1.21,1.29l-1.89.72c-.45.17-.94.17-1.4,0l-4.65-1.71c-.39.11-.8.1-1.2-.03l-.71-.25c-.08.12-1.93-.06-1.86-.16-.81-.29-1.62-.91-2.27-1.78l-10.5-3.78c-1.41.41-3.17-.06-4.45-1.71l-2.15-.79c-.21-.08-.41-.19-.58-.33l-1.48-1.22c-.45-.37-.71-.91-.72-1.49l-.07-2.38c0-.27.04-.54.14-.79l.79-1.99c.1-.26.26-.5.47-.7l2.24-2.16c.18-.17.39-.31.63-.41l6.69-2.76,5.93,1.77.17-5.48-5.56-1.8c-1.78-.59-3.28-1.08-3.28-1.08-1.03.93-2.13,1.61-3.26,2.02-1.97.71-3.79.54-5.34-.28-1.8-.63-21.12-7.33-21.12-7.33-4.07-.86-7.24-4.99-7.24-10.84,0-4.01,1.51-8.03,3.83-10.85,1.67-2.03,3.75-3.44,5.97-3.94,1.63-.36,3.18-.23,4.57.29l9.34,2.71c.01-1.35.03-2.59.04-2.74l.2-.75.56-.79.6-.44c.23-.13.52-.25.84-.34.87-.25,2.14-.33,3.32-.12,1.24.22,2.08.74,2.5,1.18l.31.38.25.53.12.9c0,.06-.03,2.73-.05,4.7Zm30.07,37.83l17.04,4.97v-3.06c-2.6.92-3.26.66-4.12.51l-9.68-2.75-3.24.33Z"/>
    <path class="cls-32" d="m11.47,81.11c-3.33-.64-5.75-4.13-5.75-8.91,0-5.9,3.69-11.81,8.25-12.83,1.24-.28,2.41-.18,3.47.22l4.16,1.34h0c.81.4,1.55,1,2.17,1.81,2.88,3.76,1.91,10.83-1.88,15.48-2.87,3.51-5.02,4.92-7.95,3.7h0s-2.46-.81-2.46-.81Z"/>
    <path class="cls-36" d="m14.04,81.92c-2.99-.95-5.1-4.36-5.1-8.88,0-5.98,3.69-11.67,8.24-12.69.91-.2,1.78-.21,2.6-.04.77.05,20.61,5.94,20.61,5.94.42.36-2.88,23.21-6.17,22.75,0,0-19.89-6.97-20.19-7.08Z"/>
    <ellipse class="cls-40" cx="37.03" cy="77.58" rx="11.8" ry="7" transform="translate(-47.69 92.13) rotate(-74.23)"/>
    <path class="cls-31" d="m21.35,77.09c.21-3.42,1.07-6.54,3.03-9.14l9.41,2.8,8.69,6.65-1.77,4.11-10.2-1.43-9.16-2.99Z"/>
    <path class="cls-52" d="m21.63,75.45c.11-2.34.72-4.24,1.77-5.76l8.81,3.1,9.41,5.51-1.45,2.08-9.51-1.82-9.04-3.11Z"/>
    <path class="cls-6" d="m17.44,60.36c.4,0,.79.04,1.16.12.26.02.52.06.77.14l19.41,5.58,3.42,5.06-.99.32-4.05-5.06-19.72-6.15Z"/>
    <path class="cls-21" d="m37.72,106.94l-1.73.65-1.48-1.22-.07-2.38.79-1.99,2.25-2.17,6.69-2.76,1.98,1.7-.49,3.87-.91,1.23-1.61.3.87-1.7-.08-1.4-6.49,2.54-.89,1.69,1.17,1.64Z"/>
    <path class="cls-13" d="m37.48,99.83l6.69-2.75,29.53,8.46-8.28,3.31-27.94-9.01Z"/>
    <path class="cls-26" d="m35.24,101.99l-.79,1.99.06,2.38,1.48,1.22,27.8,10.21-1.62-1.64-.07-2.3.87-2.04,2.45-2.98-27.94-9.01-2.25,2.16Z"/>
    <path class="cls-41" d="m35.24,101.99l27.73,9.83,2.45-2.98-27.94-9.01-2.25,2.16Z"/>
    <path class="cls-17" d="m35.24,101.99l27.73,9.83-.87,2.04-27.66-9.88.79-1.99Z"/>
    <path class="cls-11" d="m41.29,103.58c1.38.46,2.58,2.45,2.44,4.57-.07,1.06-.4,1.55-.94,2.02l-3.64-1.26c-.47-.82-.8-1.55-.73-2.62.13-2.08,1.53-3.16,2.87-2.71Z"/>
    <path class="cls-35" d="m42.66,107.44c-.68-1.33-.84-1.22-1.68-2.48-.45-.69-.73-.94-1.24-1.15,1.29-.21,3.14.69,2.92,3.62Z"/>
    <path class="cls-11" d="m56.09,109.16c1.36.45,2.64,2.44,2.64,4.56,0,1.06-.33,1.86-.82,2.34l-3.59-1.25c-.5-.82-.83-1.86-.83-2.93,0-2.08,1.28-3.17,2.6-2.73Z"/>
    <path class="cls-16" d="m38.09,105.7c.09-.7.37-1.29.78-1.61.91-.71,2.39-.13,3.22,1.55.24.48.39.98.46,1.47l-1.47-.46c-.02-.06-.05-.13-.08-.19-.32-.65-.89-.87-1.24-.6-.09.07-.17.17-.22.3l-1.46-.46Zm4.48,2.56c-.1.7-.38,1.28-.82,1.59-.91.66-2.37.09-3.19-1.57-.23-.47-.38-.96-.45-1.43l1.47.46c.02.05.04.1.07.15.32.64.88.86,1.23.6.09-.07.16-.16.22-.28l1.47.46Z"/>
    <path class="cls-53" d="m53.84,109.67c.42-.36.96-.46,1.52-.28,1.21.4,2.34,2.12,2.34,3.95,0,.52-.1.97-.26,1.34l-1.18-1.65c0-.06.01-.13.01-.19,0-.7-.44-1.36-.9-1.52-.12-.04-.24-.04-.35-.01l-1.17-1.64Zm3.05,5.74c-.43.35-.98.45-1.54.24-1.19-.43-2.3-2.13-2.3-3.93,0-.51.09-.95.25-1.31l1.19,1.65c0,.05,0,.1,0,.16,0,.69.43,1.35.89,1.51.12.04.23.05.34.03l1.19,1.65Z"/>
    <path class="cls-35" d="m57.69,112.95c-.09-.24-.46-1.22-1.63-2.73-.56-.72-1.19-.9-1.31-.93,1.39-.07,2.86,1.09,2.95,3.66Z"/>
    <path class="cls-10" d="m67.34,112.23l5.17,1.9,1.11-2-.07-1.83-6.21,1.93Z"/>
    <path class="cls-23" d="m65.67,117.09l-1.89.71-1.61-1.64-.07-2.3.87-2.04,2.46-2.98,8.28-3.31,2.45,2.05-.61,4.65-1.12,1.48-1.99.36,1.07-2.04-.1-1.69-8.03,3.12-.97,1.84,1.28,1.79Z"/>
    <ellipse class="cls-43" cx="39.37" cy="78.27" rx="8.83" ry="5.24" transform="translate(-46.65 94.89) rotate(-74.23)"/>
    <path class="cls-5" d="m16.44,60.44c.56-.09,1.1-.1,1.63-.04l19.47,5.91,4.96,6.18-.56-.05-5.84-5.39-19.66-6.6Z"/>
    <path class="cls-12" d="m24.52,85.55s-1.57-.1-2.09-.68c-1.43-1.61-2.29-4.27-2.2-7.58.11-3.8,1.44-7.62,3.39-10.39,1.33-1.89,2.97-3.3,4.69-3.93.15-.05.81-.09.96-.08.55.07,1.97.68,1.97.68-.7-.13-1.79.05-2.59.33-1.56.56-3.01,1.85-4.22,3.56-1.85,2.63-3.11,6.24-3.21,9.84-.11,4,1.14,7.25,3.29,8.23Z"/>
    <path class="cls-35" d="m12.81,62.57c-.08.1-3.22,3.66-3.98,10.88-.2-3.85.19-7.31,3.98-10.88Z"/>
    <path class="cls-35" d="m25.78,66.91c-.08.1-3.22,3.66-3.98,10.88-.2-3.85.19-7.31,3.98-10.88Z"/>
    <path class="cls-35" d="m33.54,80.55c-.28-3.18.06-5.44,2.61-7.99,0,.01-.83,1.17-1.41,2.96-1.03,3.18-1.16,4.8-1.19,5.02Z"/>
    <path class="cls-39" d="m38.09,85.67c-2.03-.96-2.76-3.15-2.84-5.86-.11-3.58,2.83-8.18,5.86-8.2.65,0,1.28.13,1.87.37h0s56.31,16.71,56.31,16.71l-4.43,15.76-56.77-18.79h0Z"/>
    <path class="cls-51" d="m58.24,93.51l-4.21-1.28c-3.02-1.2-3.84-3.17-3.97-6.57-.08-2.16.57-4.38,1.77-6.12,1.3-1.88,3.24-3.19,5.58-3.2.97,0,1.9.16,2.77.46h0s3.81,1.08,3.81,1.08c-.02,0-.05,0-.07,0-2.51.02-4.58,1.43-5.95,3.45-1.24,1.83-1.92,4.17-1.83,6.42.1,2.63.59,4.46,2.1,5.74Z"/>
    <polygon class="cls-19" points="48.54 84.75 54.24 86.71 54.24 88.98 48.54 87.01 48.54 84.75"/>
    <path class="cls-15" d="m57.34,92.81l-3.09-3.81-5.7-1.97,3.09,3.81,5.7,1.97Z"/>
    <path class="cls-50" d="m58.67,91.62l-.11,9.63-4.03,2.01v-11.71s4.14.06,4.14.06Z"/>
    <path class="cls-30" d="m85.3,111.49l-.07-3.89-25.54-7.58-5.56,1.58,31.17,9.89Z"/>
    <path class="cls-28" d="m89.58,115.99l-38.29-13.17v-2.2s.03,0,.03,0l.08-10.05,3.17.87-.02,10.2,30.53,9.83.09-9.57,4.45,1.6-.04,12.48Z"/>
    <path class="cls-45" d="m58.01,80.78l-3.78,5.9-5.7-1.97,3.78-5.9,5.7,1.97Z"/>
    <path class="cls-4" d="m60.71,94.99c-3.59-1.43-4.58-3.77-4.73-7.82-.2-5.35,4.13-9.65,9.49-9.68,1.15,0,2.27.19,3.3.55h0s16.16,4.63,16.16,4.63l-5.85,18.41-18.38-6.09h0Z"/>
    <path class="cls-1" d="m69.42,98.57c-.91.4-5.22,1.72-6.27,2.03-.79.24-1.66.25-2.57,0-3.38-.94-6.02-5.2-5.91-9.5.07-2.77,1.27-4.89,3.02-5.79.97-.5,5.43-1.81,6.46-2.14.81-.26,1.7-.28,2.64-.01,3.38.94,6.02,5.2,5.91,9.5-.08,2.89-1.39,5.08-3.27,5.91Z"/>
    <ellipse class="cls-18" cx="60.5" cy="92.71" rx="5.79" ry="7.99" transform="translate(-24.45 21.72) rotate(-16.99)"/>
    <ellipse class="cls-56" cx="60.49" cy="92.7" rx="5.31" ry="7.33" transform="translate(-24.45 21.72) rotate(-16.99)"/>
    <path class="cls-9" d="m65.95,98.81c.15-.24.3-.49.43-.73l3.96-1.17c-.17.25-.35.51-.55.76l-3.84,1.14Zm.78-1.48c.09-.23.18-.46.25-.67l4.11-1.2c-.09.23-.19.46-.31.68l-4.05,1.19Zm.46-1.38c.06-.22.1-.44.12-.63l4.2-1.21c-.05.21-.1.42-.16.64l-4.16,1.21Zm.19-1.3c.01-.2.02-.4.02-.6l4.26-1.22c0,.19-.02.4-.04.6l-4.24,1.22Zm0-1.24c-.01-.19-.03-.39-.06-.58l4.29-1.22c.02.19.04.38.04.57l-4.27,1.22Zm-.15-1.2c-.04-.19-.08-.37-.12-.56l4.3-1.22c.04.18.08.37.11.56l-4.29,1.22Zm-.29-1.16c-.05-.18-.12-.36-.18-.54l4.32-1.21c.06.18.12.36.18.54l-4.32,1.21Zm-.41-1.12c-.07-.17-.15-.35-.24-.52l4.34-1.21c.08.17.16.34.23.52l-4.33,1.21Zm-.53-1.09c-.09-.17-.18-.34-.28-.51l4.35-1.2c.1.16.19.33.28.5l-4.35,1.2Zm-.62-1.06c-.09-.15-.19-.29-.29-.44-.01-.02-.02-.03-.04-.05l4.33-1.19c.12.16.23.32.34.49l-4.35,1.19Zm-.72-1.03c-.13-.17-.27-.33-.4-.48l4.26-1.16c.16.15.31.3.45.46l-4.31,1.18Zm-.91-.99c-.17-.16-.35-.31-.52-.45l4.07-1.1c.22.13.43.27.63.41l-4.17,1.13Zm-1.2-.92c-.24-.15-.48-.28-.72-.4l3.78-1.02c.29.11.58.22.86.36l-3.92,1.06Z"/>
    <ellipse class="cls-58" cx="81.69" cy="91.78" rx="9.67" ry="6.01" transform="translate(-30 142.99) rotate(-72.96)"/>
    <ellipse class="cls-54" cx="81.99" cy="91.84" rx="9.66" ry="5.73" transform="translate(-28.67 145.78) rotate(-74.23)"/>
    <path class="cls-57" d="m82,100.06c-2.57-1.02-3.07-2.74-3.18-5.64-.14-3.83,3.52-9.28,7.36-9.3.83,0,1.62.13,2.37.4h0s30.34,8.49,30.34,8.49l-4.77,17.49-32.12-11.44h0Z"/>
    <path class="cls-35" d="m114.63,96.16c-.78,1.17-1.18,1.92-1.8,3.78-.7,2.06-.92,2.55-1.35,4.82-.35-3.11-.29-5.73,3.15-8.6Z"/>
    <path class="cls-35" d="m78.82,84.47c-.67.92-1.37,1.91-2.13,4.07-.93,2.64-1.11,3.86-1.31,5.34-.28-3.84.28-6.51,3.45-9.41Z"/>
    <path class="cls-35" d="m58.99,85.45c2.38-.18,5.42,1.12,6.51,5.74-.04-.09-.82-2.32-3.12-4.24-1.68-1.4-3.08-1.46-3.39-1.49Z"/>
    <ellipse class="cls-38" cx="116.87" cy="102.81" rx="9.11" ry="5.05" transform="translate(-12.22 189.79) rotate(-75.31)"/>
    <ellipse class="cls-48" cx="117.05" cy="102.86" rx="7.92" ry="4.3" transform="translate(-14.03 187.11) rotate(-74.04)"/>
    <path class="cls-47" d="m112.97,107.87c-.28-.84-.43-1.86-.4-3,.1-3.97,2.27-8.02,4.84-9.03h.01c.47.87.75,1.99.77,3.3.06,3.78-2.11,7.64-4.84,8.62-.13.05-.26.09-.39.12Z"/>
    <path class="cls-34" d="m112.97,107.87c-.28-.84-.43-1.86-.4-3,.1-3.97,2.27-8.02,4.84-9.03h.01c.47.87.75,1.99.77,3.3.06,3.78-2.11,7.64-4.84,8.62-.13.05-.26.09-.39.12Z"/>
    <path class="cls-25" d="m112.6,106c.21-2.34,2.36-4.98,4.87-5.93h.01c.25.24.44.53.57.87-.52,3.14-2.41,5.99-4.71,6.81-.13.05-.26.09-.39.12-.19-.55-.31-1.18-.37-1.87Z"/>
    <path class="cls-2" d="m116.1,100.7c.09,2.4-2.62,5.64-3.45,5.74-.09-.59-.09-1.4-.08-1.99,1.01-2.51,2.84-3.47,3.53-3.75Z"/>
    <path class="cls-44" d="m115.92,96.85c-.06-.15.91-.79.96-.68.35.83.55,1.84.57,2.98.05,3.75-2,7.32-4.51,8.22l-.19-.66c2.17-.94,3.79-4.22,3.65-7.49-.04-.89-.2-1.69-.47-2.37Z"/>
    <path class="cls-20" d="m79.02,92.73c.39-1.87,1.54-3.53,2.34-4.44l32.33,9.07c-1.42,1.63-1.81,3.2-2.23,5.77l-32.45-10.39Z"/>
    <path class="cls-3" d="m80.86,88.81l32.14,9.36c-.86,1.31-.98,2.31-1.37,4.06-1.96-.53-32.37-10.41-32.37-10.41.46-1.32,1-2.29,1.6-3.01Z"/>
    <path class="cls-6" d="m89.8,86.37l.88-.17,28.52,8.04-1.12.46-28.28-8.33Z"/>
    <path class="cls-5" d="m88.79,86.88l.88-.18,28.97,7.82-1.12.46-28.73-8.1Z"/>
    <path class="cls-8" d="m64.05,78.6c.48-.46,1.9-.58,2.92-.95l16.36,4.79c-2.54.64-3.98,1.79-4.42,2.82-2.62.17-5.55.02-8.38-.49-6.63-1.18-8.75-4.02-6.47-6.17Z"/>
    <path class="cls-27" d="m63.04,80.4c.03-.3.2-4.26.31-5.46.03-.31.19-.61.49-.9,1.53-1.45,6.15-2.03,10.3-1.29,3.3.59,5.32,1.83,5.25,3.05-.02.31-.18,4.33-.32,5.54-.03.3-.19.59-.49.87-1.53,1.45-6.15,2.03-10.3,1.29-3.35-.6-5.37-1.87-5.24-3.1Z"/>
    <path class="cls-7" d="m63.49,77.63c.19.14.39.28.59.41l-.13,2.66c-.2-.15-.39-.32-.58-.49l.11-2.57Zm1.23.79c.2.11.4.2.59.29l-.14,2.75c-.2-.1-.4-.21-.58-.33l.13-2.72Zm1.24.57c.2.08.41.15.59.21l-.16,2.81c-.19-.07-.39-.15-.59-.23l.15-2.79Zm1.24.39c.19.05.39.1.59.14l-.17,2.85c-.19-.05-.39-.09-.59-.15l.16-2.83Zm1.24.26c.2.03.4.06.6.09l-.18,2.86c-.19-.03-.4-.06-.59-.09l.17-2.86Zm1.25.16c.2.02.4.03.6.04l-.19,2.87c-.2-.01-.4-.03-.59-.05l.18-2.87Zm1.26.06c.19,0,.4,0,.6,0l-.2,2.88c-.2,0-.4,0-.6,0l.2-2.88Zm1.26-.02c.2,0,.4-.02.6-.04l-.21,2.89c-.2.01-.4.02-.6.03l.21-2.89Zm1.27-.09c.19-.02.4-.04.6-.07l-.23,2.9c-.2.03-.4.05-.6.07l.22-2.9Zm1.27-.16c.18-.03.35-.05.53-.08.02,0,.04,0,.07-.01l-.23,2.89c-.2.04-.4.07-.6.11l.23-2.9Zm1.27-.22c.21-.05.42-.09.61-.15l-.23,2.84c-.2.07-.4.13-.61.18l.23-2.87Zm1.29-.35c.22-.07.43-.15.62-.22l-.23,2.7c-.2.1-.41.2-.62.3l.23-2.78Zm1.31-.54c.23-.11.44-.24.63-.35l-.21,2.51c-.2.16-.41.31-.64.45l.22-2.61Z"/>
    <ellipse class="cls-49" cx="71.37" cy="75.38" rx="2.93" ry="8.03" transform="translate(-7.48 142.91) rotate(-87.15)"/>
    <path class="cls-55" d="m64.26,76.03c1.13.52,2.41,1.06,5.39,1.39,2.53.29,4.22.4,6.71.35-3.5.58-7.65,1.16-12.1-1.74Z"/>
    <path class="cls-37" d="m116.06,96.68c.12.4.18,1.01.17,1.83-.68,2.96-3.37,4.05-3.37,4.05.53-2.41,1.73-4.62,3.2-5.88Z"/>
    <path class="cls-14" d="m116.39,108.61c.73-.88,1.32-1.64,2.09-3.4,1.05-2.39,1.27-2.95,1.73-4.88.24,3.36-.28,5.94-3.82,8.28Z"/>
    <path class="cls-33" d="m90.2,102.92l-4.21-1.28c-3.02-1.2-3.84-3.17-3.97-6.57-.17-4.49,2.85-9.3,7.35-9.32.97,0,1.9.16,2.77.46h0s3.81,1.08,3.81,1.08c-.02,0-.05,0-.07,0-4.77.03-7.96,5.12-7.78,9.88.1,2.63.59,4.46,2.1,5.74Z"/>
    <path class="cls-22" d="m90.2,102.92l-4.21-1.28c-3.02-1.2-3.84-3.17-3.97-6.57-.17-4.49,2.85-9.3,7.35-9.32.97,0,1.9.16,2.77.46h0s3.81,1.08,3.81,1.08c-.02,0-.05,0-.07,0-4.77.03-7.96,5.12-7.78,9.88.1,2.63.59,4.46,2.1,5.74Z"/>
    <polygon class="cls-19" points="80.24 94.34 85.94 96.31 85.94 98.57 80.24 96.61 80.24 94.34"/>
    <path class="cls-15" d="m89.6,103.21l-3.67-4.63-5.68-1.96,4.97,5.23,4.38,1.37Z"/>
    <path class="cls-24" d="m94.66,105.84l-.19,7.72-4.9,2.44v-12.35s1.18.01,1.18.01c.78.79,1.57,1.56,3.91,2.17Z"/>
    <path class="cls-45" d="m89.65,89.96l-3.71,6.32-5.7-1.97,3.85-5.85,5.56,1.5Z"/>
    <path class="cls-15" d="m83.17,92.44c.9-1.05,2.11-1.49,2.71-.98s.35,1.78-.54,2.83c-.4.47-.87.82-1.31,1.02l-1.68-.53c-.15-.62.16-1.54.83-2.33Z"/>
    <path class="cls-55" d="m80.19,94.67l.12-.35c2.94.82,2.96.78,5.79,1.93l-.12.35c-2.95-.78-2.94-.82-5.79-1.93Z"/>
    <path class="cls-15" d="m51.53,82.74c.9-1.05,2.11-1.49,2.71-.98s.35,1.78-.54,2.83c-.4.47-.87.82-1.31,1.02l-1.68-.53c-.15-.62.16-1.54.83-2.33Z"/>
    <path class="cls-55" d="m48.55,84.97l.12-.35c2.94.82,2.96.78,5.79,1.93l-.12.35c-2.95-.78-2.94-.82-5.79-1.93Z"/>
    <path class="cls-7" d="m38.09,65.59c-.42.09-.82.21-1.22.37l-6.49-1.65c.4-.12.82-.21,1.25-.27l6.46,1.55Zm-2.26.84c-.3.16-.59.34-.86.52l-6.5-1.78c.27-.16.56-.32.86-.46l6.5,1.72Zm-1.68,1.12c-.24.19-.46.38-.68.57l-6.43-1.84c.2-.19.41-.37.64-.54l6.47,1.81Zm-1.34,1.23c-.2.21-.38.42-.54.62l-6.34-1.88c.16-.2.32-.41.5-.6l6.38,1.87Zm-1.05,1.32c-.15.22-.29.43-.42.66l-6.27-1.92c.12-.21.25-.43.39-.64l6.3,1.91Zm-.85,1.39c-.12.22-.24.45-.35.68l-6.18-1.94c.1-.23.2-.46.31-.67l6.22,1.94Zm-.69,1.44c-.1.23-.19.46-.28.7l-6.11-1.96c.08-.24.16-.46.24-.69l6.14,1.96Zm-.54,1.49c-.07.24-.14.48-.21.73l-6.06-1.99c.06-.24.12-.48.19-.71l6.08,1.98Zm-.41,1.54c-.05.24-.11.49-.15.74l-6.02-2.01c.04-.24.09-.49.14-.73l6.04,2Zm-.29,1.57c-.04.25-.07.51-.1.77l-6-2.03c.03-.25.05-.5.09-.76l6.01,2.02Zm-.19,1.62c-.02.23-.04.46-.05.68,0,.03,0,.06,0,.09l-5.96-2.03c0-.25.02-.52.04-.77l5.98,2.03Zm-.08,1.66c0,.27,0,.55.02.81l-5.89-2.02c-.03-.27-.06-.54-.07-.81l5.93,2.03Zm.1,1.73c.04.3.09.58.14.85l-5.73-1.95c-.09-.29-.16-.59-.22-.89l5.81,1.99Zm.4,1.84c.1.34.22.65.35.94l-5.55-1.85c-.15-.32-.3-.65-.43-.98l5.64,1.89Zm.92,2.06c.26.42.52.79.76,1.1l-5.37-1.7c-.3-.36-.59-.75-.87-1.19l5.47,1.79Z"/>
    <path class="cls-46" d="m29.38,64.48c0-.09.06-6.28.09-6.64,0-.09.06-.18.15-.26.45-.43,1.81-.6,3.02-.38.97.17,1.56.54,1.54.9,0,.09-.05,6.3-.09,6.66,0,.09-.05.17-.14.26-.45.43-1.81.6-3.03.38-.98-.18-1.58-.55-1.54-.91Z"/>
    <ellipse class="cls-42" cx="31.82" cy="57.97" rx=".86" ry="2.36" transform="translate(-27.66 86.87) rotate(-87.15)"/>
    <path class="cls-55" d="m29.75,58.1c.2.06.48.19,1.38.27,1.1.09,1.09.14,2.19.24-1.37.32-2.18.52-3.58-.51Z"/>
    <path class="cls-35" d="m62.23,115.91l-.37-2.14c.01-.08.69-1.97.79-2.15.19-.31,2.48-2.41,2.71-2.62-1.08,1.46-1.04,1.49-2.09,2.77-.26.31-.18.35-.72,1.45-.27.57-.3.55-.3.61q0,.16-.02,2.08Z"/>
  </g>
  <g>
    <path class="cls-15" d="m95,4c16,0,29,12.99,29,29s-13,29-29,29-29-12.99-29-29c0-16.01,13-29,29-29Zm-4.57,47.2h-3.54c-1.1,0-2-.9-2-2v-2.7c0-1.1.9-2,2-2h.82c-.08-.22-.13-.45-.12-.7v-2.7c0-1.1.9-2,2-2h.83c-.09-.22-.13-.46-.13-.71v-2.7c0-1.1.9-2,2-2h5.4c1.11,0,2,.9,2,2.01v2.7c0,.25-.05.49-.13.71h.84c1.1,0,2,.9,2,2v2.7c0,.25-.05.48-.13.7h.83c1.1,0,2,.9,2,2v2.7c0,1.1-.9,2-2,2h-3.53c.08.21.13.45.13.69v2.21c8.16-1.81,14.59-8.22,16.41-16.37l-7.61-.02c-1.1,0-2-.9-1.99-2.01l.02-5.5c0-1.1.9-2,2-1.99,0,0,7.58.02,7.58.02-1.83-8.14-8.25-14.55-16.4-16.36v7.61c0,1.1-.9,2-2,2h-5.39c-1.1,0-2-.9-2-2v-7.61c-8.13,1.8-14.54,8.18-16.39,16.29l7.62.07c1.11.01,1.99.91,1.98,2.02l-.05,5.53c-.01,1.1-.92,1.99-2.02,1.98,0,0-7.57-.07-7.57-.07,1.81,8.17,8.25,14.6,16.42,16.41v-2.21c0-.25.05-.48.13-.7Z"/>
    <path class="cls-29" d="m95,6c14.9,0,27,12.1,27,27s-12.1,27-27,27-27-12.1-27-27,12.1-27,27-27Zm-2.7,3.53c-10.83,1.23-19.45,9.81-20.76,20.62l9.98.09-.05,5.53-9.95-.09c1.23,10.9,9.89,19.56,20.78,20.79v-4.57h5.38v4.57c10.87-1.23,19.52-9.86,20.78-20.73l-9.97-.03.02-5.5,9.96.03c-1.26-10.86-9.9-19.49-20.77-20.72v9.97h-5.39v-9.97Zm5.4,26.16v2.7h-5.4v-2.7h5.4Zm2.7,5.42v2.7h-10.8v-2.71h10.8Zm2.7,5.4v2.7s-16.2-.01-16.2-.01v-2.7s16.2.01,16.2.01Z"/>
  </g>
</svg>