<?xml version="1.0" encoding="UTF-8"?>
<svg id="Layer_1" data-name="Layer 1" xmlns="http://www.w3.org/2000/svg" width="128" height="128" xmlns:xlink="http://www.w3.org/1999/xlink" viewBox="0 0 128 128">
  <defs>
    <style>
      .cls-1 {
        fill: url(#linear-gradient-8);
      }

      .cls-1, .cls-2, .cls-3, .cls-4, .cls-5, .cls-6, .cls-7, .cls-8, .cls-9, .cls-10, .cls-11, .cls-12, .cls-13, .cls-14, .cls-15, .cls-16, .cls-17, .cls-18, .cls-19, .cls-20, .cls-21, .cls-22, .cls-23, .cls-24, .cls-25, .cls-26, .cls-27, .cls-28, .cls-29, .cls-30, .cls-31, .cls-32, .cls-33, .cls-34, .cls-35, .cls-36, .cls-37, .cls-38, .cls-39, .cls-40, .cls-41, .cls-42, .cls-43, .cls-44, .cls-45, .cls-46, .cls-47, .cls-48, .cls-49, .cls-50, .cls-51 {
        stroke-width: 0px;
      }

      .cls-1, .cls-2, .cls-3, .cls-4, .cls-5, .cls-6, .cls-7, .cls-8, .cls-9, .cls-10, .cls-13, .cls-15, .cls-16, .cls-17, .cls-18, .cls-19, .cls-20, .cls-21, .cls-22, .cls-23, .cls-24, .cls-25, .cls-26, .cls-27, .cls-28, .cls-30, .cls-31, .cls-32, .cls-33, .cls-34, .cls-35, .cls-38, .cls-41, .cls-44, .cls-45, .cls-46, .cls-48 {
        fill-rule: evenodd;
      }

      .cls-2 {
        fill: url(#linear-gradient-7);
      }

      .cls-3 {
        fill: #3b3b3b;
      }

      .cls-4 {
        fill: #161616;
      }

      .cls-4, .cls-34 {
        opacity: .5;
      }

      .cls-5 {
        fill: #0e0c0c;
      }

      .cls-6 {
        fill: #090909;
      }

      .cls-7, .cls-14 {
        fill: #0b0c0c;
      }

      .cls-8 {
        fill: silver;
      }

      .cls-10 {
        fill: url(#linear-gradient-3);
      }

      .cls-11 {
        fill: #1a1a1a;
      }

      .cls-12 {
        fill: #2c2d2d;
      }

      .cls-13 {
        fill: url(#radial-gradient-15);
      }

      .cls-15 {
        fill: url(#radial-gradient-2);
      }

      .cls-16, .cls-34 {
        fill: #1e1e1e;
      }

      .cls-17 {
        fill: url(#radial-gradient-8);
      }

      .cls-18 {
        fill: url(#radial-gradient);
      }

      .cls-19 {
        fill: #5c5c5c;
      }

      .cls-20 {
        fill: #060606;
      }

      .cls-21 {
        fill: #ccc;
      }

      .cls-22 {
        fill: #e9e9e9;
        opacity: .2;
      }

      .cls-23 {
        fill: url(#linear-gradient);
      }

      .cls-24 {
        fill: url(#radial-gradient-13);
      }

      .cls-25 {
        fill: url(#radial-gradient-7);
      }

      .cls-26 {
        fill: #fff;
      }

      .cls-27 {
        fill: url(#linear-gradient-2);
      }

      .cls-28 {
        fill: url(#radial-gradient-10);
      }

      .cls-29 {
        fill: url(#radial-gradient-5);
      }

      .cls-30 {
        fill: url(#linear-gradient-5);
      }

      .cls-31 {
        fill: url(#radial-gradient-16);
      }

      .cls-32 {
        fill: #a6a6a6;
      }

      .cls-33 {
        fill: #0c0c0c;
      }

      .cls-35 {
        fill: #6f6f6f;
      }

      .cls-36 {
        fill: url(#radial-gradient-6);
      }

      .cls-37 {
        fill: #212121;
      }

      .cls-38 {
        fill: #d8d8d8;
      }

      .cls-39 {
        fill: url(#radial-gradient-9);
      }

      .cls-40 {
        fill: url(#radial-gradient-3);
      }

      .cls-41 {
        fill: url(#radial-gradient-12);
      }

      .cls-42 {
        fill: #0a0a0a;
      }

      .cls-43 {
        fill: url(#radial-gradient-11);
      }

      .cls-44 {
        fill: url(#linear-gradient-6);
      }

      .cls-45 {
        fill: url(#linear-gradient-4);
      }

      .cls-46 {
        fill: url(#radial-gradient-14);
      }

      .cls-47 {
        fill: url(#radial-gradient-4);
      }

      .cls-48 {
        fill: #cacaca;
      }

      .cls-49 {
        fill: #151616;
      }

      .cls-50 {
        fill: #474948;
      }

      .cls-51 {
        fill: #595c5b;
      }
    </style>
    <linearGradient id="linear-gradient" x1="-313.79" y1="-658.78" x2="-313.21" y2="-658.78" gradientTransform="translate(20143.89 20194.58) rotate(96.51) scale(41.34 -33.82) skewX(9.9)" gradientUnits="userSpaceOnUse">
      <stop offset="0" stop-color="#090909"/>
      <stop offset=".08" stop-color="#3e413d"/>
      <stop offset=".13" stop-color="#1a1b19"/>
      <stop offset=".2" stop-color="#151614"/>
      <stop offset=".32" stop-color="#5d5f5c"/>
      <stop offset=".44" stop-color="#a4a5a4"/>
      <stop offset=".51" stop-color="#9d9e9b"/>
      <stop offset=".7" stop-color="#393b37"/>
      <stop offset=".87" stop-color="#181917"/>
      <stop offset="1" stop-color="#0c0c0c"/>
    </linearGradient>
    <radialGradient id="radial-gradient" cx="-321.16" cy="-716.15" fx="-321.16" fy="-716.15" r=".64" gradientTransform="translate(22333.78 75.22) rotate(25.46) scale(62.6 -13.41)" gradientUnits="userSpaceOnUse">
      <stop offset="0" stop-color="#4e4e4e"/>
      <stop offset="1" stop-color="#000"/>
    </radialGradient>
    <linearGradient id="linear-gradient-2" x1="-256.85" y1="-595.28" x2="-256.26" y2="-595.28" gradientTransform="translate(1834.55 2612.72) rotate(81.74) scale(11.86 -2.37) skewX(-2.5)" gradientUnits="userSpaceOnUse">
      <stop offset="0" stop-color="#636765"/>
      <stop offset=".5" stop-color="#4f524f"/>
      <stop offset="1" stop-color="#989996"/>
    </linearGradient>
    <linearGradient id="linear-gradient-3" x1="-275.45" y1="-473.35" x2="-274.76" y2="-473.35" gradientTransform="translate(193.24 3310.47) rotate(113.96) scale(9.76 -2.98) skewX(2.26)" xlink:href="#linear-gradient-2"/>
    <radialGradient id="radial-gradient-2" cx="-366.7" cy="-682.81" fx="-366.7" fy="-682.81" r=".64" gradientTransform="translate(-25302.98 -14675.44) rotate(-73.69) scale(19.3 -41.77)" gradientUnits="userSpaceOnUse">
      <stop offset="0" stop-color="#565656"/>
      <stop offset="1" stop-color="#0c0c0c"/>
    </radialGradient>
    <linearGradient id="linear-gradient-4" x1="-305.51" y1="-651.9" x2="-304.8" y2="-651.9" gradientTransform="translate(15116.98 13403.23) rotate(106.37) scale(27.98 -27.98)" gradientUnits="userSpaceOnUse">
      <stop offset="0" stop-color="#1a1b19"/>
      <stop offset=".2" stop-color="#151614"/>
      <stop offset=".43" stop-color="#5d5f5c"/>
      <stop offset=".6" stop-color="#393b37"/>
      <stop offset=".87" stop-color="#181917"/>
      <stop offset="1" stop-color="#0c0c0c"/>
    </linearGradient>
    <linearGradient id="linear-gradient-5" x1="-309.78" y1="-654.76" x2="-309.14" y2="-654.76" gradientTransform="translate(17540.31 16485.16) rotate(107.86) scale(33.13 -33.13)" gradientUnits="userSpaceOnUse">
      <stop offset="0" stop-color="#090909"/>
      <stop offset=".08" stop-color="#3e413d"/>
      <stop offset=".13" stop-color="#1a1b19"/>
      <stop offset=".2" stop-color="#151614"/>
      <stop offset=".32" stop-color="#5d5f5c"/>
      <stop offset=".45" stop-color="#949694"/>
      <stop offset=".55" stop-color="#979897"/>
      <stop offset=".76" stop-color="#393b37"/>
      <stop offset=".87" stop-color="#181917"/>
      <stop offset="1" stop-color="#0c0c0c"/>
    </linearGradient>
    <linearGradient id="linear-gradient-6" x1="-301.12" y1="-670.69" x2="-300.51" y2="-670.69" gradientTransform="translate(21905.76 1608.13) rotate(69.84) scale(29.83 -29.83)" gradientUnits="userSpaceOnUse">
      <stop offset="0" stop-color="#3e413d"/>
      <stop offset=".32" stop-color="#5d5f5c"/>
      <stop offset=".45" stop-color="#a4a5a4"/>
      <stop offset=".58" stop-color="#414240"/>
      <stop offset=".76" stop-color="#393b37"/>
      <stop offset=".95" stop-color="#181917"/>
      <stop offset="1" stop-color="#383838"/>
    </linearGradient>
    <radialGradient id="radial-gradient-3" cx="242.04" cy="-646.31" fx="242.04" fy="-646.31" r=".64" gradientTransform="translate(1749.34 -1665.08) rotate(90.46) scale(1.63 -2.65) skewX(-52.3)" gradientUnits="userSpaceOnUse">
      <stop offset="0" stop-color="#616161"/>
      <stop offset="1" stop-color="#0d0d0d"/>
    </radialGradient>
    <radialGradient id="radial-gradient-4" cx="238.1" cy="-647.6" fx="238.1" fy="-647.6" r=".64" gradientTransform="translate(1760.43 -1656.81) rotate(90.46) scale(1.63 -2.65) skewX(-52.3)" xlink:href="#radial-gradient-3"/>
    <radialGradient id="radial-gradient-5" cx="239.75" cy="-646.35" fx="239.75" fy="-646.35" r=".64" gradientTransform="translate(1751.45 -1655.29) rotate(90.46) scale(1.63 -2.65) skewX(-52.3)" xlink:href="#radial-gradient-3"/>
    <radialGradient id="radial-gradient-6" cx="240.64" cy="-647.59" fx="240.64" fy="-647.59" r=".64" gradientTransform="translate(1758.28 -1667.89) rotate(90.46) scale(1.63 -2.65) skewX(-52.3)" xlink:href="#radial-gradient-3"/>
    <radialGradient id="radial-gradient-7" cx="-399.41" cy="-670.97" fx="-399.41" fy="-670.97" r=".64" gradientTransform="translate(-9852.68 -1736.92) rotate(-110.35) scale(12.88 -12.88)" gradientUnits="userSpaceOnUse">
      <stop offset="0" stop-color="#000"/>
      <stop offset="1" stop-color="#4b4b4b"/>
    </radialGradient>
    <radialGradient id="radial-gradient-8" cx="-319.98" cy="-695.76" fx="-319.98" fy="-695.76" r=".64" gradientTransform="translate(11919.35 -22121.03) rotate(3.5) scale(32.87 -32.87)" gradientUnits="userSpaceOnUse">
      <stop offset="0" stop-color="#090909"/>
      <stop offset=".08" stop-color="#3e413d"/>
      <stop offset=".13" stop-color="#1a1b19"/>
      <stop offset=".2" stop-color="#151614"/>
      <stop offset=".32" stop-color="#5d5f5c"/>
      <stop offset=".45" stop-color="#a4a5a4"/>
      <stop offset=".58" stop-color="#9d9e9b"/>
      <stop offset=".76" stop-color="#393b37"/>
      <stop offset=".87" stop-color="#181917"/>
      <stop offset="1" stop-color="#0c0c0c"/>
    </radialGradient>
    <radialGradient id="radial-gradient-9" cx="-398.03" cy="-725.1" fx="-398.03" fy="-725.1" r=".64" gradientTransform="translate(7232.55 -6548.17) rotate(27.19) scale(8.5 -12.64)" gradientUnits="userSpaceOnUse">
      <stop offset="0" stop-color="#838383"/>
      <stop offset="1" stop-color="#4f4f4f"/>
    </radialGradient>
    <radialGradient id="radial-gradient-10" cx="-328.07" cy="-704.28" fx="-328.07" fy="-704.28" r=".64" gradientTransform="translate(58180.79 899.32) rotate(15.87) scale(169.58 -21.45) skewX(.21)" gradientUnits="userSpaceOnUse">
      <stop offset="0" stop-color="#a4a5a4"/>
      <stop offset=".34" stop-color="#9d9e9b"/>
      <stop offset=".68" stop-color="#393b37"/>
      <stop offset=".87" stop-color="#181917"/>
      <stop offset="1" stop-color="#0c0c0c"/>
    </radialGradient>
    <linearGradient id="linear-gradient-7" x1="-321.21" y1="-663.07" x2="-320.6" y2="-663.07" gradientTransform="translate(35040.57 37431.34) rotate(111.06) scale(69.44 -69.44)" gradientUnits="userSpaceOnUse">
      <stop offset="0" stop-color="#090909"/>
      <stop offset=".08" stop-color="#1a1b19"/>
      <stop offset=".2" stop-color="#151614"/>
      <stop offset=".32" stop-color="#5d5f5c"/>
      <stop offset=".45" stop-color="#a4a5a4"/>
      <stop offset=".58" stop-color="#9d9e9b"/>
      <stop offset=".76" stop-color="#393b37"/>
      <stop offset=".87" stop-color="#181917"/>
      <stop offset="1" stop-color="#0c0c0c"/>
    </linearGradient>
    <linearGradient id="linear-gradient-8" x1="-321.36" y1="-663.52" x2="-320.76" y2="-663.52" gradientTransform="translate(36004.97 38056.81) rotate(110.77) scale(70.89 -70.89)" xlink:href="#linear-gradient-7"/>
    <radialGradient id="radial-gradient-11" cx="-308.34" cy="-675.18" fx="-308.34" fy="-675.18" r=".64" gradientTransform="translate(45373.66 15105.6) rotate(96.19) scale(35.1 -69.06) skewX(-1.94)" gradientUnits="userSpaceOnUse">
      <stop offset="0" stop-color="#4b4b4b"/>
      <stop offset=".45" stop-color="#0c0c0c"/>
      <stop offset="1" stop-color="#0c0c0c"/>
    </radialGradient>
    <radialGradient id="radial-gradient-12" cx="-350.73" cy="-684.96" fx="-350.73" fy="-684.96" r=".64" gradientTransform="translate(-19439.51 -18835.87) rotate(-73.01) scale(35.37 -35.37)" gradientUnits="userSpaceOnUse">
      <stop offset="0" stop-color="#3e413f"/>
      <stop offset="1" stop-color="#101010"/>
    </radialGradient>
    <radialGradient id="radial-gradient-13" cx="-311.06" cy="-680.38" fx="-311.06" fy="-680.38" r=".64" gradientTransform="translate(26989.62 -15185.04) rotate(43.14) scale(36.11 -43.42) skewX(-4.82)" xlink:href="#radial-gradient-11"/>
    <radialGradient id="radial-gradient-14" cx="-363.44" cy="-653.64" fx="-363.44" fy="-653.64" r=".64" gradientTransform="translate(-19107.16 23077.68) rotate(-165.1) scale(19.34 -41.55) skewX(23.93)" gradientUnits="userSpaceOnUse">
      <stop offset="0" stop-color="#b7bad8"/>
      <stop offset=".32" stop-color="#7b85a1"/>
      <stop offset="1" stop-color="#464b70"/>
    </radialGradient>
    <radialGradient id="radial-gradient-15" cx="-373.35" cy="-688.01" fx="-373.35" fy="-688.01" r=".64" gradientTransform="translate(-21151.22 -7292.41) rotate(-67.97) scale(20.53 -32.66) skewX(-31.87)" gradientUnits="userSpaceOnUse">
      <stop offset="0" stop-color="#8e8baa"/>
      <stop offset="1" stop-color="#53798e"/>
    </radialGradient>
    <radialGradient id="radial-gradient-16" cx="-334.49" cy="-661.13" fx="-334.49" fy="-661.13" r=".64" gradientTransform="translate(-29373.83 55358.84) rotate(-178.78) scale(84.55 -84.58)" gradientUnits="userSpaceOnUse">
      <stop offset="0" stop-color="#d7d7d7"/>
      <stop offset=".81" stop-color="#555"/>
      <stop offset="1" stop-color="#fff"/>
    </radialGradient>
  </defs>
  <g>
    <path class="cls-9" d="m19,83.69c-.17,0-7.07-2.25-7.27-2.33-3.57-1.35-5.88-5.51-6.04-11.01-.21-7.31,4.58-13.4,10.18-14.81,1.31-.33,3.19-.28,4.37-.03.05,0,.11.03.16.04l4.53,1.37c.08.03.15.05.22.08.91.41,1.72.89,2.41,1.49l.11-.25.76-.98c.87-.83,2.41-1.54,4.37-1.93,2.46-.49,5.65-.54,8.63,0,3.08.55,5.28,1.65,6.32,2.75.35.38.61.77.78,1.16l.23.73.05.8c-.01.24-.1,2.36-.2,4.11,0,0,3.18.91,3.57,1.02.8-.2,1.58-.28,2.34-.26.44.01,33.6,1.24,33.6,1.24.59.02,1.11.29,1.46.71l10.7,3.48c.46.15.86.46,1.1.87.34.12.67.25.99.42,5.17,1.27,12.74,4.6,16.04,6.45.74.33,1.37.76,1.91,1.29,1.12,1.1,1.82,2.61,1.97,4.51.18,2.31-.5,5.31-2.28,8.8-4.87,9.49-16.29,19.36-25.46,22.06-.27.08-.54.15-.8.22l-.35,2.65c-.05.35-.18.67-.39.95l-1.37,1.8c-.3.4-.75.67-1.24.76l-2.68.53c-.24,0-.47-.04-.69-.12l-4.84-1.78-1.75.68-.26.49.84,1.18c.36.51.47,1.14.29,1.74-.18.6-.63,1.07-1.21,1.29l-2.3.87c-.45.17-.95.18-1.4.01l-5.8-2.13c-.42.15-.89.16-1.33,0l-.96-.33-.59.09c-.51.03-1.04-.05-1.57-.24-.94-.34-1.9-1.09-2.64-2.13l-12.1-4.45c-.18-.02-.35-.05-.53-.11l-.42-.14c-1.61.53-3.68-.02-5.16-1.99l-2.74-1.01c-.21-.08-.41-.19-.58-.34l-1.8-1.48c-.45-.37-.71-.92-.73-1.49l-.08-2.9c0-.27.04-.55.14-.8l.97-2.42c.11-.27.27-.5.47-.7l2.73-2.64c.18-.17.39-.32.63-.41l.95-.4.02-4.01-8.42-9.41c-.06.03-.12.06-.18.08-1.03.46-5.9,1.95-7.09,2.31-1.21.36-2.54.4-3.93,0-1.44-.4-2.79-1.22-3.95-2.34-1.09-.99-2.03-2.25-2.73-3.68Z"/>
    <path class="cls-23" d="m12.94,79.65l-.05-.02c-3.23-.9-5.07-4.58-5.2-9.35-.18-6.29,3.85-11.6,8.67-12.82,1.04-.26,2.52-.21,3.46-.02l4.53,1.38c2.4,1.06,3.9,2.83,4.02,6.84.18,6.48-2.84,14.6-7.8,15.85-.4.1-1.06.27-1.67.14l-5.96-2h0Z"/>
    <path class="cls-33" d="m45.09,103l8.14-3.35,35.95,10.3-10.08,4.03-34.01-10.97Z"/>
    <path class="cls-18" d="m35.04,82.29l12.25,13.69-.04,6.23,32.79,11.35.37-11.49-45.37-19.77Z"/>
    <path class="cls-16" d="m42.35,105.63l-.97,2.43.08,2.9,1.8,1.49,33.84,12.43-1.97-1.99-.09-2.8,1.06-2.49,2.99-3.62-34.01-10.97-2.73,2.63Z"/>
    <path class="cls-3" d="m42.35,105.63l33.76,11.96,2.99-3.62-34.01-10.97-2.73,2.63Z"/>
    <path class="cls-35" d="m42.35,105.63l33.76,11.96-1.06,2.49-33.67-12.03.97-2.43Z"/>
    <path class="cls-7" d="m49.72,107.54c1.68.56,3.14,2.99,2.97,5.56-.08,1.29-.48,1.89-1.15,2.46l-4.43-1.54c-.57-1-.98-1.89-.89-3.19.16-2.53,1.86-3.85,3.49-3.3Z"/>
    <path class="cls-26" d="m51.39,112.26c-.18-.39-.1-.44-1.9-2.98-.6-.85-.98-1.19-1.66-1.43.28-.03,1.31-.23,2.5.97,1.12,1.13,1.06,3.15,1.05,3.43Z"/>
    <path class="cls-27" d="m45.82,110.12c.11-.85.45-1.57.96-1.96,1.11-.86,2.9-.16,3.92,1.89.29.59.47,1.2.56,1.78l-1.79-.56c-.03-.08-.06-.15-.1-.23-.39-.79-1.08-1.06-1.51-.73-.11.09-.2.21-.27.37l-1.78-.56Zm5.45,3.12c-.12.85-.47,1.56-.99,1.94-1.11.8-2.88.11-3.89-1.91-.29-.57-.46-1.17-.55-1.74l1.79.56c.02.06.05.12.08.18.39.78,1.07,1.04,1.5.73.11-.08.2-.2.27-.34l1.79.56Z"/>
    <path class="cls-7" d="m67.73,114.34c1.66.55,3.21,2.97,3.21,5.55,0,1.29-.4,2.27-1,2.84l-4.37-1.52c-.61-1-1.01-2.26-1.01-3.56,0-2.53,1.55-3.86,3.17-3.32Z"/>
    <path class="cls-10" d="m65,114.98c.51-.43,1.17-.57,1.84-.34,1.47.49,2.85,2.59,2.85,4.81,0,.64-.12,1.19-.32,1.63l-1.44-2c0-.07.01-.15.01-.24,0-.86-.53-1.66-1.1-1.85-.15-.05-.29-.05-.43-.02l-1.43-1.99Zm3.72,6.99c-.52.43-1.19.54-1.87.3-1.44-.53-2.8-2.6-2.8-4.79,0-.62.11-1.16.3-1.6l1.44,2.01c0,.06,0,.12,0,.19,0,.84.52,1.64,1.08,1.84.14.05.28.06.41.04l1.44,2.01Z"/>
    <path class="cls-26" d="m69.68,118.98c-.13-.3-.03-.36-1.91-3.01-.61-.86-.99-1.2-1.68-1.44.29-.03,1.32-.23,2.52.99,1.13,1.14,1.07,3.17,1.07,3.46Z"/>
    <path class="cls-6" d="m81.43,118.1l6.3,2.31,1.35-2.43-.08-2.23-7.57,2.35Z"/>
    <path class="cls-15" d="m79.4,124.02l-2.3.87-1.97-1.99-.09-2.8,1.06-2.49,2.99-3.62,10.08-4.04,2.99,2.49-.75,5.66-1.37,1.8-2.42.43,1.3-2.49-.12-2.06-9.77,3.8-1.18,2.24,1.55,2.18Z"/>
    <path class="cls-8" d="m75.22,122.57l-.4-2.61c.01-.07.86-2.4.97-2.58.19-.33,2.97-2.97,3.24-3.23-1.34,1.75-1.3,1.79-2.59,3.34-.3.35-.22.4-.88,1.79-.33.69-.35.68-.35.74q0,.21.01,2.54Z"/>
    <path class="cls-4" d="m12.43,79.48c-2.94-1.11-4.61-4.65-4.74-9.19-.18-6.29,3.85-11.6,8.67-12.82,1.04-.26,2.52-.21,3.46-.02l.54.26c-.94-.2-2.4-.13-3.44.13-4.82,1.21-8.97,6.71-8.79,13.01.11,4,1.98,7.16,4.3,8.63Z"/>
    <path class="cls-5" d="m20.78,58.38c-.39.11-.77.25-1.13.42l-2.76-.77c.43-.14.88-.26,1.35-.35l2.55.69Zm-2.09.95c-.28.17-.54.35-.79.55l-3.04-.87c.29-.18.6-.35.91-.51l2.92.83Zm-1.55,1.17c-.22.2-.42.4-.62.6l-3.19-.93c.21-.2.44-.39.67-.57l3.14.9Zm-1.21,1.26c-.18.22-.34.43-.49.62l-3.26-.95c.16-.21.33-.41.52-.62l3.23.95Zm-.94,1.33c-.13.21-.26.43-.38.65l-3.33-.99c.12-.21.25-.43.4-.64l3.3.98Zm-.75,1.38c-.11.22-.21.45-.3.68l-3.34-1.01c.1-.23.2-.45.31-.66l3.34.99Zm-.6,1.43c-.08.23-.16.46-.23.69l-3.36-1.02c.08-.23.16-.45.24-.68l3.35,1.01Zm-.46,1.46c-.06.23-.12.46-.17.7l-3.37-1.04c.05-.24.11-.47.18-.7l3.36,1.03Zm-.33,1.5c-.04.24-.08.48-.12.72l-3.38-1.05c.04-.24.08-.48.12-.71l3.38,1.05Zm-.22,1.53c-.03.24-.05.49-.07.73l-3.39-1.07c.02-.24.04-.49.07-.73l3.39,1.07Zm-.12,1.56c-.01.22-.02.44-.03.66,0,.03,0,.06,0,.09l-3.36-1.07c0-.25,0-.49.01-.75l3.38,1.08Zm-.02,1.59c0,.27.02.52.05.77l-3.29-1.06c-.05-.26-.08-.52-.1-.78l3.34,1.07Zm.16,1.65c.05.29.1.55.16.81l-3.09-1.01c-.1-.27-.19-.55-.27-.84l3.2,1.04Zm.44,1.74c.11.31.23.6.36.87l-2.8-.93c-.18-.3-.35-.6-.5-.92l2.94.97Zm.94,1.91c.26.39.52.73.76,1.01l-2.41-.81c-.34-.32-.67-.68-.98-1.08l2.63.87Z"/>
    <path class="cls-48" d="m17.52,62.4c-1.14,1.63-1.68,2.64-2.52,5.08-.69,1.98-1.13,3.42-1.48,5.83-.34-3.77-.13-7.31,3.99-10.91Z"/>
    <ellipse class="cls-14" cx="21.09" cy="70.19" rx="11.53" ry="6.88" transform="translate(-52.19 71.28) rotate(-74.12)"/>
    <path class="cls-45" d="m19.16,80.23c-2.75-.76-3.51-2.93-3.62-6.96-.15-5.33,3.03-10.8,7.13-11.83.88-.22,1.74-.23,2.53-.06h0s8.04,2.63,8.04,2.63l-4.29,18.78-9.8-2.56h0Z"/>
    <path class="cls-30" d="m26.37,81.65c-3.93-1.56-5.01-4.13-5.17-8.56-.22-5.85,4.52-10.56,10.38-10.58,1.26,0,2.48.21,3.62.61h0s17.68,5.06,17.68,5.06l-6.4,20.14-20.11-6.66h0Z"/>
    <path class="cls-44" d="m35.88,85.56c-1,.43-5.71,1.88-6.86,2.22-.86.26-1.82.28-2.81,0-3.69-1.03-6.59-5.69-6.46-10.39.08-3.03,1.39-5.35,3.3-6.33,1.06-.55,5.94-1.98,7.07-2.34.88-.28,1.86-.3,2.88-.02,3.69,1.03,6.59,5.69,6.46,10.39-.08,3.17-1.52,5.56-3.58,6.47Z"/>
    <ellipse class="cls-11" cx="26.12" cy="79.15" rx="6.33" ry="8.74" transform="translate(-21.99 11.09) rotate(-16.99)"/>
    <ellipse class="cls-50" cx="26.12" cy="79.14" rx="5.81" ry="8.02" transform="translate(-21.98 11.09) rotate(-16.99)"/>
    <ellipse class="cls-40" cx="22.27" cy="77.56" rx="1.25" ry="1.73" transform="translate(-21.69 9.89) rotate(-16.99)"/>
    <ellipse class="cls-47" cx="29.97" cy="82.12" rx="1.25" ry="1.73" transform="translate(-22.68 12.34) rotate(-16.99)"/>
    <ellipse class="cls-29" cx="24.3" cy="83.71" rx="1.25" ry="1.73" transform="translate(-23.4 10.75) rotate(-16.99)"/>
    <ellipse class="cls-36" cx="27.82" cy="75.14" rx="1.25" ry="1.73" transform="translate(-20.74 11.41) rotate(-16.99)"/>
    <path class="cls-25" d="m32.09,85.82c.17-.27.32-.53.47-.8l4.34-1.28c-.18.28-.38.55-.6.83l-4.2,1.25Zm.86-1.62c.1-.25.19-.5.28-.73l4.5-1.32c-.1.25-.21.5-.34.75l-4.44,1.3Zm.5-1.51c.06-.24.1-.48.14-.69l4.59-1.32c-.05.23-.11.46-.17.7l-4.55,1.32Zm.21-1.43c.02-.22.02-.43.02-.65l4.66-1.34c0,.21-.02.43-.05.66l-4.64,1.33Zm0-1.36c-.01-.21-.03-.42-.06-.63l4.69-1.33c.02.21.04.42.05.63l-4.68,1.34Zm-.17-1.31c-.04-.21-.09-.41-.13-.61l4.71-1.33c.05.2.09.41.13.61l-4.7,1.33Zm-.32-1.27c-.06-.19-.13-.39-.2-.59l4.72-1.33c.07.19.13.39.19.59l-4.72,1.32Zm-.45-1.23c-.08-.19-.17-.38-.26-.57l4.75-1.32c.09.19.17.38.25.57l-4.74,1.32Zm-.58-1.2c-.09-.18-.2-.37-.31-.56l4.76-1.31c.11.18.21.36.31.55l-4.76,1.31Zm-.68-1.16c-.1-.16-.2-.32-.31-.48-.02-.02-.03-.04-.04-.06l4.74-1.3c.13.17.25.35.37.53l-4.76,1.3Zm-.79-1.13c-.15-.18-.29-.36-.44-.52l4.67-1.27c.18.16.34.33.49.5l-4.72,1.29Zm-.99-1.08c-.19-.18-.38-.34-.57-.49l4.45-1.2c.24.14.47.29.69.45l-4.56,1.24Zm-1.31-1.01c-.26-.16-.53-.31-.78-.43l4.13-1.11c.32.12.63.25.94.39l-4.29,1.16Z"/>
    <ellipse class="cls-51" cx="49.32" cy="78.13" rx="10.58" ry="6.57" transform="translate(-39.83 102.39) rotate(-72.96)"/>
    <ellipse class="cls-12" cx="49.64" cy="78.19" rx="10.57" ry="6.27" transform="translate(-39.1 104.71) rotate(-74.23)"/>
    <path class="cls-32" d="m46.37,70.33c-1.15,1.66-1.59,2.59-2.35,4.8-.91,2.65-1.12,3.63-1.42,5.5-.35-3.54-.18-6.9,3.77-10.3Z"/>
    <path class="cls-26" d="m31.64,77.57c-.33-.66-.84-2.31-3.37-4.54-1.83-1.62-3.56-1.7-3.76-1.74.32-.03,2.14-.39,4.18,1.03,2.5,1.74,2.93,5.17,2.95,5.25Z"/>
    <path class="cls-34" d="m30.01,63.72c.53-.5,2.08-.64,3.19-1.04l17.9,5.24c-2.77.7-4.35,1.96-4.83,3.08-2.86.18-6.08.02-9.17-.53-7.25-1.29-9.57-4.39-7.08-6.75Z"/>
    <path class="cls-17" d="m28.91,65.69c.03-.33.22-4.66.34-5.97.03-.33.21-.67.54-.98,1.68-1.59,6.73-2.23,11.26-1.42,3.61.64,5.82,2.01,5.74,3.34-.02.34-.19,4.74-.35,6.06-.03.32-.21.64-.54.95-1.68,1.59-6.73,2.23-11.26,1.42-3.66-.65-5.88-2.04-5.73-3.39Z"/>
    <path class="cls-5" d="m29.4,62.67c.21.16.43.31.64.45l-.14,2.91c-.22-.17-.43-.35-.63-.54l.12-2.82Zm1.35.86c.22.12.44.22.64.32l-.15,3.01c-.22-.11-.43-.23-.64-.36l.14-2.97Zm1.35.62c.22.09.45.16.65.23l-.17,3.07c-.21-.08-.42-.16-.64-.25l.17-3.05Zm1.36.42c.21.05.43.1.65.15l-.18,3.12c-.21-.05-.43-.1-.64-.17l.18-3.1Zm1.36.28c.22.04.44.07.65.09l-.2,3.13c-.21-.03-.43-.06-.64-.1l.19-3.13Zm1.37.17c.22.02.44.03.65.04l-.21,3.14c-.22-.01-.44-.03-.65-.05l.2-3.14Zm1.38.07c.21,0,.44,0,.65,0l-.21,3.15c-.22,0-.43,0-.65,0l.22-3.15Zm1.38-.02c.22,0,.44-.02.66-.04l-.23,3.17c-.22.01-.43.03-.65.03l.22-3.16Zm1.39-.1c.21-.02.44-.05.66-.07l-.25,3.17c-.22.03-.43.05-.65.07l.24-3.17Zm1.39-.17c.19-.03.39-.06.58-.09.03,0,.05,0,.07-.01l-.25,3.16c-.22.04-.44.08-.66.12l.25-3.17Zm1.39-.25c.23-.05.45-.1.67-.16l-.26,3.1c-.22.07-.44.14-.66.2l.25-3.14Zm1.41-.38c.24-.08.47-.16.68-.25l-.25,2.96c-.22.11-.44.22-.68.32l.25-3.04Zm1.44-.59c.25-.12.48-.26.69-.39l-.23,2.75c-.22.17-.45.33-.7.49l.24-2.85Z"/>
    <ellipse class="cls-39" cx="38.02" cy="60.2" rx="3.21" ry="8.78" transform="translate(-24 95.17) rotate(-87.15)"/>
    <path class="cls-48" d="m42.34,63.24c-4.45.86-7.9,1.14-11.78-1.9,1.33.62,2.69,1.43,11.78,1.9Z"/>
    <path class="cls-28" d="m47.68,90.08c-3.14-1.89-4.28-3.83-4.43-9.03-.2-6.87,4.4-11.96,9.41-13.22.62-.16,1.23-.22,1.81-.2.44,0,33.58,1.24,33.58,1.24l-13.03,39.63-27.34-18.41h0Z"/>
    <ellipse class="cls-42" cx="81.72" cy="89.39" rx="20.77" ry="13.83" transform="translate(-26.98 142.81) rotate(-73.74)"/>
    <path class="cls-2" d="m88.15,69.21l11.52,3.75-16.34,39.26-9.91-4.55c-3.64-2.94-5.46-6.31-5.41-12.01.1-11.78,6.35-26.42,20.14-26.44Z"/>
    <ellipse class="cls-49" cx="92.81" cy="93.42" rx="21.15" ry="12.25" transform="translate(-29.76 141.55) rotate(-66.62)"/>
    <path class="cls-1" d="m97.59,73.93c3.77-1.23,19.79,6.06,21.33,7.58,2,1.97,1.92,5.87-.69,10.97-4.64,9.05-15.5,18.49-24.24,21.06-3.07.9-5.47.84-7.09,0-.77-.4-3.55-.86-4.43-1.69-2.58-2.41-3.23-6.64-2.64-11.52,1.66-13.86,7.72-23.12,17.77-26.39Z"/>
    <ellipse class="cls-37" cx="102.38" cy="97.14" rx="22.76" ry="9.69" transform="translate(-38.74 95.7) rotate(-42.91)"/>
    <ellipse class="cls-43" cx="102.56" cy="97.57" rx="21.14" ry="8.35" transform="translate(-38.99 99.18) rotate(-44.22)"/>
    <path class="cls-7" d="m86.45,108.56c.25-1.7.79-3.94,2.02-6.22,4.66-8.68,14.66-17.41,22.64-20l.05-.02c.34,1.44.5,2.53.51,4.26.03,10.31-6.26,21.39-14.04,24.72-4.79,2.06-8.6,1.02-11.16-2.75Z"/>
    <path class="cls-41" d="m86.82,107.42c.24-1.62.92-3.55,2.09-5.72,4.44-8.27,13.7-16.61,21.3-19.07h.05c.32,1.36.49,2.88.5,4.53.03,9.83-5.45,20.02-12.86,23.19-4.57,1.96-8.62.66-11.07-2.93Z"/>
    <path class="cls-20" d="m109.04,82.96c.05.21.1.38.1.38.3,1.3.47,2.73.48,4.28.08,9.26-5.32,19.15-12.06,22.07-4.15,1.8-7.85.53-10.09-2.88.02-.17-.33-.61-.55-.96.37-1.14.91-2.39,1.63-3.74,4.19-7.8,13.05-16,20.49-19.15Z"/>
    <path class="cls-24" d="m108.82,83.05c.35,1.46.51,3.11.45,4.92-.29,8.71-5.58,17.85-11.82,20.4-4.38,1.79-8.07-.15-9.78-4.48.25-.58.55-1.17.88-1.78,4.15-7.73,12.88-15.85,20.27-19.06Z"/>
    <path class="cls-9" d="m103.56,85.99c.12,8.47-5.4,17.33-12.56,20.01-.35.13-1.23.32-1.58.42-.57-1.11-.99-2.32-1.26-3.57.12-.25.25-.5.39-.75,3.19-5.95,9.09-12.12,15.01-16.11Z"/>
    <path class="cls-46" d="m102.49,86.75c-.6,7.9-5.84,15.75-12.5,18.25-.35.13-1.23.32-1.58.42-.26-.51-.5-1.05-.7-1.6.25-.55.52-1.12.84-1.7,3-5.58,8.39-11.37,13.94-15.36Z"/>
    <path class="cls-13" d="m100.2,88.51c-1.24,7.8-6.07,14.4-11.89,16.09-.03,0-.27-.64-.44-1.12.11-.22.22-.45.33-.69,4.01-1.64,7.22-6.04,8.66-11.31,1.08-1.04,2.2-2.04,3.34-2.96Z"/>
    <path class="cls-22" d="m43.47,82.45c.18-2.54-.21-5.33,1.47-7.69l25.55,5.47c-1.56,3.27-2.73,7.16-3.23,12.09l-23.79-9.87Z"/>
    <path class="cls-22" d="m69.66,82.03c-.92,2.14-1.62,4.68-2.09,7.65l-24.21-8.84c0-1.65.23-3.54,1.07-5.04l25.23,6.24Z"/>
    <path class="cls-21" d="m70.17,81.01c-1.46,3.41-2.3,6.8-2.82,9.89-.44-2.34-.43-5.63,2.82-9.89Z"/>
    <path class="cls-19" d="m112.01,80.63c-1.76.3-9.09,1.53-18.73,12.18-.99,1.1-4.5,5.01-6.77,9.64-2.38,4.85-1.88,7.52-1.8,8.11-.01-.02-1.55-4.97,4.74-14.03,2.58-3.7,6.11-7.49,10.48-10.65,6.66-4.81,11.22-5.13,12.07-5.24Z"/>
    <path class="cls-38" d="m105.73,82.69c-1.91.93-4.65,2.36-9.73,7-2.62,2.39-4.77,4.63-6.94,7.7.83-1.54,5.41-10.87,16.67-14.7Z"/>
    <path class="cls-21" d="m79.37,95.53c0-.11.46-4.23,1.52-6.57,1.14-2.81,2.87-4.53,2.92-4.57-1.9,3.41-3.33,6.57-4.43,11.14Z"/>
  </g>
  <g>
    <path class="cls-9" d="m95,4c16,0,29,12.99,29,29s-12.99,29-29,29-29-12.99-29-29,12.99-29,29-29Zm3.11,40.55c.9.19,1.58.99,1.58,1.95v7.62c8.15-1.8,14.57-8.21,16.4-16.34h-7.59c-.99,0-1.81-.72-1.97-1.67h-8.42s0,8.44,0,8.44Zm-6.17-.01v-8.44s-8.48,0-8.48,0c-.16.94-.99,1.67-1.98,1.66h-7.59c1.82,8.13,8.25,14.56,16.41,16.37v-7.62c0-.53.2-1.04.58-1.41.29-.29.66-.48,1.06-.56Zm6.15-23.07v8.48s8.43,0,8.43,0c.14-.97.97-1.72,1.98-1.72h7.59c-1.83-8.13-8.25-14.54-16.4-16.34v7.62c0,.96-.69,1.78-1.6,1.96Zm-14.62,8.46h8.45s0-8.46,0-8.46c-.92-.18-1.62-.99-1.62-1.97v-7.62c-8.16,1.8-14.58,8.22-16.41,16.36l7.61.02c.99,0,1.8.72,1.97,1.65Z"/>
    <path class="cls-31" d="m95,6c14.9,0,26.99,12.1,26.99,27s-12.09,27-26.99,27-27-12.1-27-27,12.09-27,27-27Zm-2.7,3.53c-10.87,1.24-19.5,9.86-20.77,20.72l9.97.02v1.66h12.43s0-12.42,0-12.42h-1.63v-9.98Zm-10.8,24.56v1.67s-9.97-.03-9.97-.03c1.25,10.87,9.89,19.51,20.77,20.76v-9.98h1.65s-.01-12.4-.01-12.4h-12.44Zm14.61.01v12.4h1.59v9.98c10.86-1.24,19.5-9.85,20.76-20.7h-9.96v-1.67h-12.39Zm12.39-2.15v-1.72h9.96c-1.26-10.85-9.9-19.47-20.76-20.7v9.98h-1.61v12.43s12.41.01,12.41.01Z"/>
  </g>
</svg>