<?xml version="1.0" encoding="UTF-8"?>
<svg id="Layer_1" data-name="Layer 1" xmlns="http://www.w3.org/2000/svg" width="128" height="128" xmlns:xlink="http://www.w3.org/1999/xlink" viewBox="0 0 128 128">
  <defs>
    <style>
      .cls-1 {
        fill: #cf2b2b;
      }

      .cls-1, .cls-2, .cls-3, .cls-4, .cls-5, .cls-6, .cls-7, .cls-8, .cls-9, .cls-10, .cls-11, .cls-12, .cls-13, .cls-14, .cls-15, .cls-16, .cls-17, .cls-18, .cls-19, .cls-20, .cls-21, .cls-22, .cls-23, .cls-24, .cls-25, .cls-26, .cls-27, .cls-28, .cls-29, .cls-30, .cls-31, .cls-32, .cls-33, .cls-34, .cls-35, .cls-36, .cls-37, .cls-38, .cls-39, .cls-40, .cls-41, .cls-42, .cls-43 {
        stroke-width: 0px;
      }

      .cls-1, .cls-2, .cls-3, .cls-4, .cls-5, .cls-6, .cls-7, .cls-8, .cls-9, .cls-10, .cls-11, .cls-13, .cls-14, .cls-15, .cls-17, .cls-18, .cls-19, .cls-20, .cls-22, .cls-23, .cls-24, .cls-25, .cls-26, .cls-27, .cls-29, .cls-30, .cls-31, .cls-32, .cls-33, .cls-34, .cls-39, .cls-40, .cls-42, .cls-43 {
        fill-rule: evenodd;
      }

      .cls-2 {
        fill: #161616;
      }

      .cls-3 {
        fill: url(#linear-gradient-7);
      }

      .cls-4 {
        fill: #676865;
      }

      .cls-5 {
        fill: #6b6b6b;
      }

      .cls-6 {
        fill: #0e0c0c;
      }

      .cls-7 {
        fill: #282927;
      }

      .cls-7, .cls-15 {
        opacity: .5;
      }

      .cls-8 {
        fill: #090909;
      }

      .cls-9 {
        fill: #828282;
      }

      .cls-11 {
        fill: url(#linear-gradient-3);
      }

      .cls-12 {
        fill: #1a1a1a;
      }

      .cls-13, .cls-15 {
        fill: #151616;
      }

      .cls-14 {
        fill: #d6783c;
      }

      .cls-16 {
        fill: #0b0c0c;
      }

      .cls-17 {
        fill: #101010;
      }

      .cls-18 {
        fill: #1e1e1e;
      }

      .cls-19 {
        fill: url(#radial-gradient-8);
      }

      .cls-20 {
        fill: url(#radial-gradient);
      }

      .cls-21 {
        fill: #0d0d0d;
      }

      .cls-22 {
        fill: url(#radial-gradient-11);
      }

      .cls-23 {
        fill: #0a0a0a;
      }

      .cls-24 {
        fill: #131313;
      }

      .cls-25 {
        fill: url(#linear-gradient);
      }

      .cls-26 {
        fill: url(#radial-gradient-4);
      }

      .cls-27 {
        fill: url(#radial-gradient-7);
      }

      .cls-28 {
        fill: url(#radial-gradient-2);
      }

      .cls-29 {
        fill: url(#linear-gradient-2);
      }

      .cls-30 {
        fill: url(#radial-gradient-10);
      }

      .cls-31 {
        fill: url(#linear-gradient-5);
      }

      .cls-32 {
        fill: #626262;
      }

      .cls-33 {
        fill: url(#radial-gradient-5);
      }

      .cls-34 {
        fill: #333434;
      }

      .cls-35 {
        fill: url(#radial-gradient-6);
      }

      .cls-36 {
        fill: #212121;
      }

      .cls-37 {
        fill: url(#radial-gradient-9);
      }

      .cls-38 {
        fill: url(#radial-gradient-3);
      }

      .cls-39 {
        fill: #242424;
      }

      .cls-40 {
        fill: url(#linear-gradient-6);
      }

      .cls-41 {
        fill: #3d3f3e;
      }

      .cls-42 {
        fill: url(#linear-gradient-4);
      }

      .cls-43 {
        fill: #cacaca;
      }
    </style>
    <linearGradient id="linear-gradient" x1="24.48" y1="58.76" x2="17.81" y2="84.97" gradientUnits="userSpaceOnUse">
      <stop offset="0" stop-color="#090909"/>
      <stop offset=".08" stop-color="#3e413d"/>
      <stop offset=".13" stop-color="#1a1b19"/>
      <stop offset=".2" stop-color="#151614"/>
      <stop offset=".32" stop-color="#5d5f5c"/>
      <stop offset=".45" stop-color="#a4a5a4"/>
      <stop offset=".58" stop-color="#9d9e9b"/>
      <stop offset=".76" stop-color="#393b37"/>
      <stop offset=".87" stop-color="#181917"/>
      <stop offset="1" stop-color="#0c0c0c"/>
    </linearGradient>
    <linearGradient id="linear-gradient-2" x1="-330.97" y1="36.58" x2="-330.33" y2="36.58" gradientTransform="translate(-6029.07 10655.36) rotate(113.48) scale(36.65 -36.65)" gradientUnits="userSpaceOnUse">
      <stop offset="0" stop-color="#3e413d"/>
      <stop offset=".13" stop-color="#1a1b19"/>
      <stop offset=".45" stop-color="#151614"/>
      <stop offset=".87" stop-color="#181917"/>
      <stop offset="1" stop-color="#0c0c0c"/>
    </linearGradient>
    <radialGradient id="radial-gradient" cx="-326.49" cy="24.17" fx="-326.49" fy="24.17" r=".64" gradientTransform="translate(23553.91 5731.29) rotate(12.25) scale(74.06 -22.38)" gradientUnits="userSpaceOnUse">
      <stop offset="0" stop-color="#7b7f79"/>
      <stop offset="1" stop-color="#2a2a2a"/>
    </radialGradient>
    <linearGradient id="linear-gradient-3" x1="-321.57" y1="23.69" x2="-320.92" y2="23.69" gradientTransform="translate(10997.8 1548.47) rotate(3.5) scale(34.31 -34.31)" xlink:href="#linear-gradient"/>
    <radialGradient id="radial-gradient-2" cx="-326.86" cy="1.43" fx="-326.86" fy="1.43" r=".65" gradientTransform="translate(2614.61 1400.81) rotate(27.19) scale(8.87 -13.19)" gradientUnits="userSpaceOnUse">
      <stop offset="0" stop-color="#838383"/>
      <stop offset="1" stop-color="#4f4f4f"/>
    </radialGradient>
    <linearGradient id="linear-gradient-4" x1="29.41" y1="78.36" x2="34.15" y2="91.16" xlink:href="#linear-gradient"/>
    <linearGradient id="linear-gradient-5" x1="-330.29" y1="33.18" x2="-329.65" y2="33.18" gradientTransform="translate(-6725.59 15565.11) rotate(107.97) scale(50.97 -50.97)" gradientUnits="userSpaceOnUse">
      <stop offset="0" stop-color="#090909"/>
      <stop offset=".08" stop-color="#3e413d"/>
      <stop offset=".13" stop-color="#1a1b19"/>
      <stop offset=".2" stop-color="#5d5f5c"/>
      <stop offset=".36" stop-color="#9d9e9b"/>
      <stop offset=".61" stop-color="#797d75"/>
      <stop offset="1" stop-color="#5e5e5e"/>
    </linearGradient>
    <radialGradient id="radial-gradient-3" cx="-171.68" cy="6.72" fx="-171.68" fy="6.72" r=".65" gradientTransform="translate(234.28 370.02) rotate(51.63) scale(1.92 -5.62)" gradientUnits="userSpaceOnUse">
      <stop offset="0" stop-color="#616161"/>
      <stop offset="1" stop-color="#0d0d0d"/>
    </radialGradient>
    <radialGradient id="radial-gradient-4" cx="-70.66" cy="-12.38" fx="-70.66" fy="-12.38" r=".65" gradientTransform="translate(144.82 94.69) rotate(13.54) scale(1.25 -1.25)" gradientUnits="userSpaceOnUse">
      <stop offset="0" stop-color="#eee"/>
      <stop offset="1" stop-color="#303231"/>
    </radialGradient>
    <radialGradient id="radial-gradient-5" cx="-262.98" cy="-37.85" fx="-262.98" fy="-37.85" r=".65" gradientTransform="translate(861.39 -369.75) rotate(-21.46) scale(3.49 -3.49)" gradientUnits="userSpaceOnUse">
      <stop offset="0" stop-color="#5a5e5c"/>
      <stop offset="1" stop-color="#232323"/>
    </radialGradient>
    <radialGradient id="radial-gradient-6" cx="-173.66" cy="6.93" fx="-173.66" fy="6.93" r=".65" gradientTransform="translate(242.51 376.17) rotate(51.63) scale(1.92 -5.62)" xlink:href="#radial-gradient-3"/>
    <radialGradient id="radial-gradient-7" cx="-73.84" cy="-12.04" fx="-73.84" fy="-12.04" r=".65" gradientTransform="translate(155.38 98.46) rotate(13.54) scale(1.25 -1.25)" xlink:href="#radial-gradient-4"/>
    <radialGradient id="radial-gradient-8" cx="-263.84" cy="-37.1" fx="-263.84" fy="-37.1" r=".65" gradientTransform="translate(871.96 -365.98) rotate(-21.46) scale(3.49 -3.49)" xlink:href="#radial-gradient-5"/>
    <linearGradient id="linear-gradient-6" x1="-330.01" y1="34.31" x2="-329.37" y2="34.31" gradientTransform="translate(-5402.88 13441.83) rotate(106.42) scale(43.54 -43.54)" xlink:href="#linear-gradient"/>
    <linearGradient id="linear-gradient-7" x1="108.85" y1="78.94" x2="96.2" y2="116" xlink:href="#linear-gradient"/>
    <radialGradient id="radial-gradient-9" cx="-325.3" cy="28.55" fx="-325.3" fy="28.55" r=".65" gradientTransform="translate(-7394.2 14735.74) rotate(111.17) scale(49.88 -59.98) skewX(-4.82)" gradientUnits="userSpaceOnUse">
      <stop offset="0" stop-color="#4b4b4b"/>
      <stop offset=".45" stop-color="#0c0c0c"/>
      <stop offset="1" stop-color="#0c0c0c"/>
    </radialGradient>
    <radialGradient id="radial-gradient-10" cx="-360.3" cy="24.14" fx="-360.3" fy="24.14" r=".65" gradientTransform="translate(-2791.44 -2149.9) rotate(-148.24) scale(10.12 -16.13)" gradientUnits="userSpaceOnUse">
      <stop offset="0" stop-color="#4d3d38"/>
      <stop offset="1" stop-color="#0e0c0c"/>
    </radialGradient>
    <radialGradient id="radial-gradient-11" cx="-347.51" cy="26.96" fx="-347.51" fy="26.96" r=".65" gradientTransform="translate(-5136.93 -3573.56) rotate(-156.41) scale(18.4 -47.01) skewX(14.47)" gradientUnits="userSpaceOnUse">
      <stop offset="0" stop-color="#f7b167"/>
      <stop offset=".43" stop-color="#c86029"/>
      <stop offset="1" stop-color="#7e3014"/>
    </radialGradient>
  </defs>
  <g>
    <path class="cls-10" d="m17.48,88.65s-3.86-1.3-4.11-1.39c-4.4-1.67-7.17-6.81-7.36-13.58-.26-9.07,5.66-16.65,12.6-18.4,1.6-.4,3.89-.34,5.33-.03.05.02.11.02.16.05l5.8,1.76c.08.03.15.05.22.08,1.28.57,2.38,1.27,3.3,2.17l4.2-2.24c.45-.24.98-.29,1.47-.16,0,0,.06.01.06.01,2.73-.9,6.92-1.15,10.78-.46,3.21.57,5.51,1.72,6.59,2.86.36.38.63.78.8,1.18l.23.74.05.79,14.35,3.98c.77.21,1.34.87,1.45,1.65,0,.04,0,.07.01.09l.78.63c.2.16.37.35.49.57,3.82.22,8.01.88,8.01.88.13.01.26.05.39.1l15.12,5.7c1.7-.51,3.54-.79,5.52-.79.21,0,.41.03.61.09l7.12,2.79c.09.03.17.06.26.1,1.82.87,3.83,1.97,5.59,3.55,3.26,2.63,4.66,7.63,4.68,13.83.01,5.65-1.34,11.33-4.21,16.17-.62,1.08-1.3,2.1-2.03,3.01-2.6,3.42-5.43,5.93-8.86,7.3-1.94.78-3.81,1.1-5.54,1.03-.82.1-1.74.1-2.61-.12-.09-.03-.17-.05-.26-.09l-9.95-4.67c-.18-.08-.36-.18-.51-.31-2.17-1.75-3.82-3.8-4.91-6.28,0,0-4.07-1.47-4.37-1.58l-3.71,1.7c0,.06-.02.13-.03.2-.15.67-.64,1.23-1.3,1.46l-15.47,5.38c-.07.03-.13.04-.2.06l-7.04,1.65-5.89,3.55c-.24.15-.5.23-.78.27l-2.47.31c-.31.04-.63,0-.92-.11l-23.2-8.29c-.08-.03-.15-.06-.23-.1,0,0-1.8-.93-2-1.13-.38-.4-.58-.93-.55-1.48l.36-7.3c.03-.66.39-1.26.95-1.6l4.13-2.55c.14-.09.28-.16.44-.21l5.89-1.9c.43-.15.9-.13,1.32.03l15.95,6.02,6.83-1.69h0s-28.48-9.86-28.48-9.86c-.28-.09-.54-.25-.75-.46l-3.53-3.48c-.38-.38-.6-.88-.6-1.43v-.14Z"/>
    <path class="cls-25" d="m14.74,85.6l-.06-.02c-4.13-1.15-6.48-5.86-6.66-11.96-.23-8.05,4.92-14.84,11.09-16.4,1.33-.33,3.23-.27,4.42-.02l5.8,1.77c3.08,1.35,4.99,3.62,5.14,8.75.24,8.29-3.63,18.67-9.98,20.27-.51.13-1.36.35-2.14.18l-7.63-2.55h.01Z"/>
    <path class="cls-2" d="m14.08,85.38c-3.77-1.42-5.9-5.95-6.07-11.76-.23-8.05,4.92-14.84,11.09-16.4,1.33-.33,3.23-.27,4.42-.02l.69.33c-1.2-.26-3.07-.16-4.4.17-6.17,1.55-11.48,8.59-11.25,16.64.15,5.11,2.54,9.16,5.51,11.04Z"/>
    <path class="cls-6" d="m24.77,58.41c-.5.14-.98.32-1.45.54l-3.53-.98c.55-.18,1.12-.33,1.72-.44l3.26.88Zm-2.68,1.21c-.35.22-.69.45-1.01.7l-3.9-1.11c.37-.23.76-.45,1.17-.65l3.74,1.06Zm-1.98,1.5c-.28.26-.54.51-.79.76l-4.08-1.19c.27-.25.56-.49.86-.73l4.01,1.15Zm-1.55,1.61c-.23.28-.44.55-.62.8l-4.18-1.22c.21-.27.43-.52.66-.79l4.14,1.21Zm-1.21,1.7c-.17.27-.33.56-.48.83l-4.25-1.27c.16-.27.33-.55.51-.82l4.23,1.25Zm-.96,1.76c-.14.28-.26.58-.39.87l-4.28-1.29c.13-.29.26-.57.4-.85l4.27,1.27Zm-.76,1.82c-.11.3-.21.59-.3.88l-4.29-1.31c.1-.29.2-.58.31-.86l4.29,1.29Zm-.58,1.87c-.08.3-.15.59-.22.9l-4.31-1.33c.07-.31.15-.6.23-.89l4.3,1.32Zm-.43,1.91c-.06.3-.11.61-.15.92l-4.33-1.35c.05-.31.1-.61.16-.91l4.32,1.34Zm-.28,1.95c-.03.31-.06.63-.09.94l-4.33-1.37c.02-.31.05-.63.09-.94l4.33,1.37Zm-.16,2c-.01.28-.02.56-.03.84,0,.04,0,.07,0,.11l-4.3-1.37c0-.32,0-.63.01-.96l4.32,1.38Zm-.03,2.03c.01.34.03.67.06.99l-4.21-1.36c-.06-.33-.1-.66-.13-1l4.27,1.37Zm.2,2.11c.06.37.13.71.21,1.04l-3.95-1.3c-.13-.35-.25-.71-.35-1.07l4.09,1.33Zm.56,2.23c.14.4.3.77.46,1.12l-3.58-1.18c-.23-.38-.44-.77-.64-1.17l3.77,1.24Zm1.2,2.44c.33.5.66.93.97,1.3l-3.08-1.03c-.44-.41-.86-.87-1.25-1.38l3.36,1.12Z"/>
    <path class="cls-43" d="m20.6,63.54c-1.23,1.66-2.2,3.11-3.36,6.45-.95,2.73-1.42,4.7-1.75,7.51-.32-4.93.13-9.38,5.11-13.96Z"/>
    <ellipse class="cls-16" cx="25.16" cy="73.5" rx="14.75" ry="8.81" transform="translate(-52.42 77.6) rotate(-74.12)"/>
    <path class="cls-29" d="m22.69,86.34c-3.52-.98-4.49-3.75-4.64-8.91-.2-6.82,3.87-13.82,9.13-15.13,1.13-.28,2.22-.3,3.24-.08h0s10.29,3.37,10.29,3.37l-5.49,24.03-12.53-3.27h0Z"/>
    <path class="cls-20" d="m38.55,58.85l32.76,9.14-18.11,10.02-31.53-10.18,16.88-8.97Z"/>
    <path class="cls-7" d="m36.32,65.31c1.61-1.53,8.03-3.45,12.47-3.63l14.85,4.12c1.16,1.13,1.5,3.36.35,4.44-2.62,2.48-10.94,3.39-18.58,2.03s-11.7-4.48-9.08-6.97Z"/>
    <path class="cls-11" d="m36.82,67.25c.03-.34.23-4.9.36-6.28.03-.35.22-.7.57-1.04,1.76-1.67,7.08-2.34,11.85-1.49,3.79.68,6.12,2.11,6.04,3.51-.02.36-.2,4.98-.37,6.37-.03.34-.22.68-.57,1-1.76,1.67-7.08,2.34-11.85,1.49-3.85-.69-6.18-2.15-6.03-3.57Z"/>
    <path class="cls-6" d="m37.33,64.07c.22.17.45.32.68.47l-.15,3.06c-.23-.18-.45-.37-.66-.57l.13-2.96Zm1.42.9c.23.12.46.23.68.34l-.16,3.17c-.23-.12-.46-.24-.67-.38l.15-3.13Zm1.43.65c.24.09.47.17.68.24l-.18,3.23c-.22-.08-.45-.17-.67-.26l.18-3.21Zm1.43.45c.22.06.45.11.68.16l-.19,3.28c-.22-.05-.45-.11-.68-.17l.19-3.26Zm1.43.3c.23.04.46.07.69.1l-.21,3.3c-.22-.03-.46-.07-.68-.11l.2-3.29Zm1.44.18c.23.02.46.03.69.05l-.22,3.31c-.23-.01-.46-.03-.68-.05l.21-3.3Zm1.45.07c.22,0,.46,0,.69,0l-.23,3.32c-.23,0-.46,0-.69,0l.23-3.31Zm1.45-.02c.23-.01.46-.02.69-.04l-.24,3.33c-.23.01-.46.03-.69.04l.24-3.33Zm1.46-.11c.22-.02.46-.05.69-.08l-.26,3.34c-.23.03-.46.05-.69.08l.25-3.34Zm1.46-.18c.2-.03.41-.06.61-.1.03,0,.05,0,.08-.01l-.26,3.32c-.23.04-.46.08-.69.12l.26-3.33Zm1.47-.26c.24-.05.48-.11.7-.17l-.27,3.27c-.23.08-.46.15-.7.21l.26-3.3Zm1.48-.4c.25-.08.49-.17.71-.26l-.27,3.11c-.23.12-.47.23-.71.34l.27-3.19Zm1.51-.62c.26-.13.51-.27.73-.41l-.25,2.89c-.23.18-.48.35-.73.52l.25-3Z"/>
    <ellipse class="cls-28" cx="46.4" cy="61.48" rx="3.38" ry="9.24" transform="translate(-17.31 104.76) rotate(-87.15)"/>
    <path class="cls-43" d="m50.92,64.67c-4.42.71-8.33,1.04-12.4-2,2.27,1.15,4.56,1.85,12.4,2Z"/>
    <path class="cls-39" d="m53.2,78l-1.98,3.85v18.45s-31.74-11.49-31.74-11.49v-17.19l2.26-3.81,31.46,10.2Z"/>
    <path class="cls-15" d="m30.25,83.57c-.5,2.93.2,7.19,1.49,9.86l8.18,3.19c1.11-.88,1.96-2.43,2.32-4.52.82-4.77-1.2-10.55-4.51-12.9s-6.65-.39-7.47,4.37Z"/>
    <path class="cls-13" d="m23.01,92.28l30.3,10.47-2.09-2.45-31.73-11.49,3.53,3.47Z"/>
    <path class="cls-13" d="m70.89,68.29l-17.69,9.71-2,3.85v18.45s21.76-20.43,21.76-20.43v-9.91l-2.08-1.67Z"/>
    <path class="cls-4" d="m53.2,78l-2,3.84-31.72-10.23,2.26-3.81,31.46,10.2Z"/>
    <path class="cls-43" d="m21.64,67.97l.1-.16c15.82,4.95,16.42,5.11,31.46,10.2l-.08.16c-15.17-4.71-15.76-4.92-31.48-10.2Z"/>
    <path class="cls-18" d="m21.46,103.46l5.89-1.91,16.12,6.1-6.57,1.88-15.44-6.08Z"/>
    <path class="cls-23" d="m18.77,106.73l-1.78,6.59,1.41.71,23.2,8.28,2.47-.31,6.16-3.72,7.35-1.71,15.47-5.39-.89-.85-16.19-5.43-17.63,5.35-15.44-6.08-4.13,2.55Z"/>
    <path class="cls-18" d="m17.32,106.01l-.36,7.3,24.56,8.77,7.27-4.52,7.35-1.71,15.28-4.98-16.95-5.68-17.57,4.35-15.44-6.08-4.13,2.55Z"/>
    <path class="cls-32" d="m17.32,106.01l31.47,11.55,7.35-1.71-19.24-6.31-15.44-6.08-4.13,2.55Z"/>
    <path class="cls-42" d="m37.19,91.67c-.8.35-4.56,1.5-5.48,1.78-.69.21-1.45.22-2.25,0-2.95-.82-5.27-4.55-5.17-8.31.06-2.42,1.11-4.27,2.64-5.06.85-.44,4.75-1.58,5.65-1.87.71-.23,1.49-.24,2.3-.01,2.95.82,5.27,4.55,5.17,8.31-.07,2.53-1.22,4.44-2.86,5.17Z"/>
    <ellipse class="cls-12" cx="29.38" cy="86.55" rx="5.06" ry="6.99" transform="translate(-24 12.36) rotate(-16.99)"/>
    <ellipse class="cls-41" cx="29.38" cy="86.54" rx="4.64" ry="6.41" transform="translate(-24 12.36) rotate(-16.99)"/>
    <path class="cls-6" d="m34.16,91.88c.13-.21.26-.43.37-.64l3.47-1.02c-.15.22-.31.44-.48.66l-3.36,1Zm.68-1.3c.08-.2.15-.4.22-.59l3.6-1.05c-.08.2-.17.4-.27.6l-3.55,1.04Zm.4-1.21c.05-.19.08-.38.11-.55l3.67-1.06c-.04.18-.09.37-.14.56l-3.64,1.05Zm.17-1.14c.01-.17.02-.35.02-.52l3.73-1.07c0,.17-.02.35-.04.53l-3.71,1.07Zm0-1.08c-.01-.17-.03-.34-.05-.51l3.75-1.07c.02.16.03.34.04.5l-3.74,1.07Zm-.13-1.05c-.03-.16-.07-.33-.11-.49l3.76-1.06c.04.16.07.32.1.49l-3.76,1.06Zm-.26-1.01c-.05-.15-.1-.31-.16-.47l3.78-1.06c.05.15.11.31.15.47l-3.77,1.06Zm-.36-.98c-.07-.15-.13-.3-.21-.46l3.8-1.06c.07.15.14.3.2.46l-3.79,1.06Zm-.46-.96c-.08-.14-.16-.3-.25-.44l3.81-1.05c.09.14.17.29.25.44l-3.8,1.05Zm-.55-.93c-.08-.13-.16-.25-.25-.38-.01-.02-.02-.03-.03-.05l3.79-1.04c.1.14.2.28.3.43l-3.8,1.04Zm-.63-.9c-.12-.15-.23-.29-.35-.42l3.73-1.01c.14.13.27.26.39.4l-3.77,1.03Zm-.79-.87c-.15-.14-.3-.27-.46-.39l3.56-.96c.19.11.37.23.55.36l-3.65.99Zm-1.05-.81c-.21-.13-.42-.25-.63-.35l3.3-.89c.26.09.51.2.75.31l-3.43.93Z"/>
    <path class="cls-8" d="m52,91.62l.44,3.26,16.5,6.33,11.27-8.27-5.01-3.31-8.77,6.88-14.43-4.89Z"/>
    <path class="cls-31" d="m51.35,89.11h-.03s.03-.02.03-.02v-.16s8.6-11.3,11.67-13.95c2.18-1.87,4.57-3.22,6.76-3.8,3.23-.84,12.63.66,12.63.66l14.81,5.58c-1.3-.2-9.48-1.41-12.46-.63-2.19.57-4.58,1.93-6.76,3.8-2.9,2.49-10.76,12.75-11.59,13.85l-11.62-4.11-3.43,1.89v-3.1Z"/>
    <path class="cls-17" d="m66.2,106.89v-8.44l31.01-16.6v13.89l-1.96,4.24-24.03,10.99-5.02-4.07Z"/>
    <path class="cls-34" d="m51.31,92.59l-.08-3.42,14.97,5.12v3.5l-14.89-5.2Zm14.89,5.87v8.44l-14.68-5.16-.18-8.44,14.86,5.16Z"/>
    <ellipse class="cls-38" cx="57.31" cy="87.13" rx="3.11" ry="1.77" transform="translate(-46.17 74.18) rotate(-49.53)"/>
    <path class="cls-26" d="m55.45,89.61c-.06-.03-.11-.07-.16-.11-.25-.22-.39-.55-.4-.94.38-.44,1.47-.76,2.76-.76.46,0,.9.04,1.29.11-.09.12-.18.24-.28.36-.91,1.06-2.07,1.63-2.87,1.46-.12-.04-.23-.08-.33-.12Z"/>
    <path class="cls-33" d="m57.72,89.05c-.15,0-.31.01-.47.01-1.28,0-2.32-.28-2.32-.63,0-.35,1.04-.63,2.31-.63.62,0,1.17.06,1.59.17-.05.07-.11.14-.17.2-.3.35-.62.64-.95.88Z"/>
    <ellipse class="cls-35" cx="64.12" cy="89.56" rx="3.11" ry="1.77" transform="translate(-45.63 80.22) rotate(-49.53)"/>
    <path class="cls-27" d="m62.26,92.04c-.06-.03-.11-.07-.16-.11-.25-.22-.39-.55-.4-.94.38-.44,1.47-.76,2.76-.76.46,0,.9.04,1.29.11-.09.12-.18.24-.28.36-.91,1.06-2.07,1.63-2.87,1.46-.12-.04-.23-.08-.33-.12Z"/>
    <path class="cls-19" d="m64.54,91.48c-.15,0-.31.01-.47.01-1.28,0-2.32-.28-2.32-.63,0-.35,1.04-.63,2.31-.63.62,0,1.17.06,1.59.17-.05.07-.11.14-.17.2-.3.35-.62.64-.95.88Z"/>
    <path class="cls-43" d="m51.26,89.35l.12-.34c7.55,2.5,7.79,2.56,14.9,5.29l-.12.35c-7.24-2.36-7.47-2.47-14.9-5.3Z"/>
    <path class="cls-5" d="m51.37,93.59l.12-.34c7.55,2.5,7.79,2.56,14.9,5.29l-.12.35c-7.24-2.36-7.47-2.47-14.9-5.3Z"/>
    <path class="cls-17" d="m51.52,101.73l3.1,3.64,16.6,5.49-5.02-3.97-14.68-5.16Z"/>
    <path class="cls-13" d="m97.38,77.45v3.28l-31.05,17.08v-3.28s8.6-11.3,11.67-13.95c2.18-1.87,4.57-3.22,6.76-3.8,3.23-.84,12.63.66,12.63.66Z"/>
    <path class="cls-40" d="m80.34,108.14c-4.33-1.2-5.52-4.62-5.71-10.97-.24-8.39,5.92-16.54,12.39-18.15,1.39-.35,2.73-.37,3.99-.1h0s14.82,4.12,14.82,4.12l-8.43,31.4-17.06-6.29h0Z"/>
    <path class="cls-10" d="m78.55,107.7c-3.97-1.31-5.09-4.71-5.27-10.84-.24-8.39,5.92-16.54,12.39-18.15,1.39-.35,2.73-.37,3.99-.1h0s2.54.64,2.54.64c-1.25-.27-3.14.11-4.53.46-6.47,1.62-12.63,9.76-12.39,18.16.14,4.95.89,8.11,3.27,9.84Z"/>
    <path class="cls-24" d="m83.28,109.22c-.71-1.86-1.11-4.06-1.12-6.54-.03-9.3,5.45-19.15,12.46-22.78l11.21,3.13-8.39,31.25c-.06.03-.13.06-.19.1l-13.98-5.15Z"/>
    <path class="cls-3" d="m103.74,76.88l7.12,2.79c4.37,2.09,9.96,5.57,9.55,15.05-.7,16.24-8.83,23.93-18.08,25.84-.75.15-1.98.43-3.09.14l-9.95-4.67c-3.63-2.94-5.66-6.79-5.62-12.49.1-11.78,6.28-26.63,20.07-26.65Z"/>
    <ellipse class="cls-21" cx="106.78" cy="100.88" rx="20.56" ry="12.71" transform="translate(-23.16 169.38) rotate(-71.17)"/>
    <path class="cls-6" d="m109.62,79.1c-.8.16-1.58.37-2.34.65l-5.58-1.77c.88-.22,1.81-.37,2.77-.48l5.15,1.61Zm-4.34,1.5c-.57.28-1.13.59-1.66.92l-6.15-2c.61-.3,1.24-.58,1.9-.83l5.9,1.91Zm-3.24,1.99c-.46.34-.89.69-1.3,1.04l-6.44-2.13c.45-.34.92-.66,1.41-.97l6.33,2.06Zm-2.57,2.2c-.39.39-.73.75-1.04,1.1l-6.59-2.18c.35-.37.71-.72,1.1-1.08l6.52,2.17Zm-2.03,2.36c-.28.38-.55.78-.82,1.17l-6.71-2.26c.26-.38.55-.76.86-1.15l6.67,2.24Zm-1.63,2.47c-.23.4-.45.81-.67,1.22l-6.75-2.29c.22-.41.44-.81.68-1.2l6.73,2.26Zm-1.32,2.58c-.19.42-.36.84-.53,1.25l-6.77-2.33c.17-.42.35-.82.54-1.23l6.76,2.3Zm-1.04,2.67c-.14.43-.28.85-.41,1.29l-6.79-2.35c.13-.44.27-.86.42-1.28l6.78,2.34Zm-.79,2.74c-.11.43-.2.88-.29,1.32l-6.82-2.38c.09-.44.2-.88.31-1.31l6.81,2.37Zm-.56,2.82c-.07.44-.14.91-.2,1.36l-6.83-2.41c.06-.45.12-.9.19-1.36l6.83,2.41Zm-.36,2.89c-.04.41-.07.82-.1,1.22,0,.05,0,.11,0,.16l-6.78-2.42c.02-.46.04-.92.08-1.39l6.81,2.43Zm-.16,2.95c0,.5.01.98.04,1.44l-6.63-2.39c-.07-.48-.12-.97-.14-1.46l6.74,2.41Zm.2,3.09c.07.54.17,1.04.27,1.54l-6.22-2.27c-.19-.52-.36-1.05-.5-1.59l6.44,2.33Zm.77,3.3c.2.6.43,1.15.67,1.67l-5.65-2.07c-.34-.57-.66-1.16-.95-1.77l5.93,2.17Zm1.77,3.67c.49.76,1,1.41,1.47,1.98l-4.85-1.8c-.67-.64-1.32-1.35-1.92-2.13l5.3,1.95Z"/>
    <ellipse class="cls-36" cx="106.78" cy="100.87" rx="19.28" ry="11.91" transform="translate(-23.16 169.38) rotate(-71.17)"/>
    <ellipse class="cls-37" cx="107.21" cy="100.91" rx="16.81" ry="10.12" transform="translate(-24.42 166.86) rotate(-69.88)"/>
    <path class="cls-10" d="m98.81,114.51c-4.77-9.34,1.41-24.73,10.07-28.25.01,0,1.94-.44,1.95-.45,1.33,1.88,1.7,5,1.85,7.94.43,8.52-5.09,17.65-12.32,20.36-.34.13-1.21.31-1.55.41Z"/>
    <path class="cls-30" d="m97.81,113.5c-4.77-9.34,1.41-24.73,10.07-28.25.01,0,1.94-.44,1.95-.45,1.33,1.88,1.7,5,1.85,7.94.43,8.52-5.09,17.65-12.32,20.36-.34.13-1.21.31-1.55.41Z"/>
    <path class="cls-22" d="m96.16,107.95c-.07-.8-.1-1.63-.07-2.51.19-5.8,2.64-11.8,6.11-15.84.85-.71,1.74-1.27,2.67-1.65.1-.04.2-.08.3-.11,1.03,1.48,1.61,3.65,1.52,6.3-.2,6.22-3.99,12.75-8.44,14.56-.58.24-1.14.38-1.68.44-.16-.37-.29-.77-.41-1.19Z"/>
    <path class="cls-9" d="m108,110.91c1.6-1.98,2.36-3.22,3.69-6.24,1.12-2.52,1.69-4.24,2.25-6.59-.17,4.52-.93,8.7-5.94,12.83Z"/>
    <path class="cls-14" d="m109.43,94.7c-.4,5.3-1.65,8.96-5.94,12.83.91-1.06,2.2-2.48,3.68-5.77,1.57-3.45,1.99-5.72,2.26-7.06Z"/>
    <path class="cls-9" d="m115.68,98.1c-.12,4.92-.93,9.82-6.73,14.23.91-1,2.35-2.51,3.95-5.91,1.96-4.17,2.4-6.51,2.78-8.32Z"/>
    <path class="cls-9" d="m109.64,113.67c1.46-1.36,3.24-3.1,5.07-7.06,1.82-3.93,2.36-6.86,2.7-9.22.04,6.26-1.23,11.8-7.77,16.28Z"/>
  </g>
  <g>
    <path class="cls-10" d="m95,4c15.99,0,29,12.99,29,29s-13.01,29-29,29-29-12.99-29-29,13.01-29,29-29Zm0,7.47c-11.94,0-21.63,9.64-21.63,21.51s9.69,21.51,21.63,21.51,21.63-9.64,21.63-21.51-9.69-21.51-21.63-21.51Zm0,15.71c3.22,0,5.86,2.6,5.86,5.82s-2.64,5.82-5.86,5.82-5.86-2.6-5.86-5.82,2.64-5.82,5.86-5.82Z"/>
    <path class="cls-1" d="m95,6c14.9,0,27,12.1,27,27s-12.1,27-27,27-27-12.1-27-27,12.1-27,27-27Zm0,3.54c-13.04,0-23.64,10.5-23.64,23.44s10.6,23.44,23.64,23.44,23.64-10.5,23.64-23.44-10.6-23.44-23.64-23.44Zm0,19.61c2.13,0,3.86,1.73,3.86,3.86s-1.73,3.86-3.86,3.86-3.86-1.73-3.86-3.86,1.73-3.86,3.86-3.86Z"/>
  </g>
</svg>