<?xml version="1.0" encoding="UTF-8"?>
<svg id="Layer_1" data-name="Layer 1" xmlns="http://www.w3.org/2000/svg" width="128" height="128" xmlns:xlink="http://www.w3.org/1999/xlink" viewBox="0 0 128 128">
  <defs>
    <style>
      .cls-1 {
        fill: #cf2b2b;
      }

      .cls-1, .cls-2, .cls-3, .cls-4, .cls-5, .cls-6, .cls-7, .cls-8, .cls-9, .cls-10, .cls-11, .cls-12, .cls-13, .cls-14, .cls-15, .cls-16, .cls-17, .cls-18, .cls-19, .cls-20, .cls-21, .cls-22, .cls-23, .cls-24, .cls-25, .cls-26, .cls-27, .cls-28, .cls-29, .cls-30 {
        stroke-width: 0px;
      }

      .cls-1, .cls-2, .cls-3, .cls-4, .cls-6, .cls-7, .cls-8, .cls-9, .cls-11, .cls-12, .cls-14, .cls-15, .cls-16, .cls-18, .cls-19, .cls-21, .cls-24, .cls-25, .cls-27, .cls-29 {
        fill-rule: evenodd;
      }

      .cls-2 {
        fill: url(#radial-gradient-6);
      }

      .cls-3 {
        fill: url(#linear-gradient-8);
      }

      .cls-4 {
        fill: url(#linear-gradient-7);
      }

      .cls-5 {
        fill: rgba(86, 90, 88, .2);
      }

      .cls-7 {
        fill: #3d3d3d;
      }

      .cls-8 {
        fill: url(#linear-gradient-3);
      }

      .cls-9 {
        fill: url(#radial-gradient-9);
      }

      .cls-10 {
        fill: #404241;
      }

      .cls-11 {
        fill: #101010;
      }

      .cls-12 {
        fill: url(#radial-gradient-8);
      }

      .cls-13 {
        fill: #0c0c0c;
      }

      .cls-14 {
        fill: url(#linear-gradient);
      }

      .cls-15 {
        fill: url(#radial-gradient-7);
      }

      .cls-16 {
        fill: #fff;
      }

      .cls-17 {
        fill: url(#radial-gradient-2);
      }

      .cls-18 {
        fill: url(#linear-gradient-2);
      }

      .cls-19 {
        fill: #070707;
      }

      .cls-20 {
        fill: url(#radial-gradient-5);
      }

      .cls-21 {
        fill: url(#linear-gradient-5);
      }

      .cls-22 {
        fill: url(#radial-gradient);
      }

      .cls-23 {
        fill: #090909;
      }

      .cls-24 {
        fill: #2c2c2d;
      }

      .cls-25 {
        fill: #b3b3b3;
      }

      .cls-26 {
        fill: url(#radial-gradient-3);
      }

      .cls-27 {
        fill: #181918;
      }

      .cls-28 {
        fill: url(#linear-gradient-4);
      }

      .cls-29 {
        fill: url(#linear-gradient-6);
      }

      .cls-30 {
        fill: url(#radial-gradient-4);
      }
    </style>
    <linearGradient id="linear-gradient" x1="-332.17" y1="168.74" x2="-331.48" y2="168.74" gradientTransform="translate(-22444.68 21710.03) rotate(109.17) scale(83.81 -83.81)" gradientUnits="userSpaceOnUse">
      <stop offset="0" stop-color="#595959"/>
      <stop offset=".07" stop-color="#848783"/>
      <stop offset=".1" stop-color="#5a5b5a"/>
      <stop offset=".19" stop-color="#1c1c1d"/>
      <stop offset=".92" stop-color="#1a1a1a"/>
      <stop offset="1" stop-color="#1e1e1e"/>
    </linearGradient>
    <radialGradient id="radial-gradient" cx="-330.68" cy="150.79" fx="-330.68" fy="150.79" r=".65" gradientTransform="translate(4625.06 -6521.79) rotate(-79.73) scale(22.18 -22.18)" gradientUnits="userSpaceOnUse">
      <stop offset="0" stop-color="#4b4e4c"/>
      <stop offset=".25" stop-color="#393b3a"/>
      <stop offset="1" stop-color="#0c0c0c"/>
    </radialGradient>
    <radialGradient id="radial-gradient-2" cx="-327.38" cy="175.27" fx="-327.38" fy="175.27" r=".65" gradientTransform="translate(-3950.85 10071.87) rotate(83.57) scale(28.93 -28.93)" gradientUnits="userSpaceOnUse">
      <stop offset="0" stop-color="#3b3b3b"/>
      <stop offset="1" stop-color="#161616"/>
    </radialGradient>
    <radialGradient id="radial-gradient-3" cx="-321.19" cy="177.39" fx="-321.19" fy="177.39" r=".65" gradientTransform="translate(-768.79 7380.45) rotate(66.37) scale(19.84 -20.56)" gradientUnits="userSpaceOnUse">
      <stop offset="0" stop-color="#9d9e9b"/>
      <stop offset=".56" stop-color="#393b37"/>
      <stop offset=".81" stop-color="#181917"/>
      <stop offset="1" stop-color="#0c0c0c"/>
    </radialGradient>
    <radialGradient id="radial-gradient-4" cx="-318.73" cy="179.51" fx="-318.73" fy="179.51" r=".65" gradientTransform="translate(-465.58 6077.39) rotate(64.42) scale(16.29 -16.89)" gradientUnits="userSpaceOnUse">
      <stop offset="0" stop-color="#696969"/>
      <stop offset=".47" stop-color="#393b37"/>
      <stop offset=".59" stop-color="#181917"/>
      <stop offset="1" stop-color="#0c0c0c"/>
    </radialGradient>
    <linearGradient id="linear-gradient-2" x1="-332.38" y1="160.39" x2="-331.68" y2="160.39" gradientTransform="translate(2258.55 -23009.73) rotate(-110.34) scale(62.89 -62.89)" gradientUnits="userSpaceOnUse">
      <stop offset="0" stop-color="#201f20"/>
      <stop offset=".09" stop-color="#605e5f"/>
      <stop offset=".38" stop-color="#878586"/>
      <stop offset=".45" stop-color="#504f4f"/>
      <stop offset="1" stop-color="#858585"/>
    </linearGradient>
    <linearGradient id="linear-gradient-3" x1="-329.96" y1="169.78" x2="-328.96" y2="169.83" gradientTransform="translate(-3861.48 21089.74) rotate(73.34) scale(57.65 -57.65)" gradientUnits="userSpaceOnUse">
      <stop offset=".32" stop-color="#131313"/>
      <stop offset=".4" stop-color="#5f5f5f"/>
      <stop offset=".63" stop-color="#aaa"/>
      <stop offset=".81" stop-color="#3a3a3a"/>
      <stop offset="1" stop-color="#070707"/>
    </linearGradient>
    <linearGradient id="linear-gradient-4" x1="59.38" y1="96.87" x2="67.18" y2="113.93" gradientTransform="translate(34.98 -14.24) rotate(17.65)" gradientUnits="userSpaceOnUse">
      <stop offset="0" stop-color="#090909"/>
      <stop offset=".08" stop-color="#3e413d"/>
      <stop offset=".13" stop-color="#1a1b19"/>
      <stop offset=".2" stop-color="#151614"/>
      <stop offset=".32" stop-color="#5d5f5c"/>
      <stop offset=".45" stop-color="#a4a5a4"/>
      <stop offset=".58" stop-color="#9d9e9b"/>
      <stop offset=".76" stop-color="#393b37"/>
      <stop offset=".87" stop-color="#181917"/>
      <stop offset="1" stop-color="#0c0c0c"/>
    </linearGradient>
    <radialGradient id="radial-gradient-5" cx="-341.05" cy="169.68" fx="-341.05" fy="169.68" r=".65" gradientTransform="translate(-9663.3 -2522.23) rotate(168.64) scale(26.46 -26.46)" gradientUnits="userSpaceOnUse">
      <stop offset="0" stop-color="#5f6261"/>
      <stop offset="1" stop-color="#1b1b1b"/>
    </radialGradient>
    <linearGradient id="linear-gradient-5" x1="-329.07" y1="172.85" x2="-328.47" y2="172.85" gradientTransform="translate(-2535.28 13432.36) rotate(73.29) scale(36.55 -36.55)" xlink:href="#linear-gradient-4"/>
    <radialGradient id="radial-gradient-6" cx="-324.17" cy="180.05" fx="-324.17" fy="180.05" r=".65" gradientTransform="translate(11847.81 4145.61) rotate(14.67) scale(38.89 -5.31) skewX(1.48)" gradientUnits="userSpaceOnUse">
      <stop offset="0" stop-color="#779d69"/>
      <stop offset="1" stop-color="#16310f"/>
    </radialGradient>
    <radialGradient id="radial-gradient-7" cx="-316.06" cy="184.87" fx="-316.06" fy="184.87" r=".65" gradientTransform="translate(5145.5 3198.87) rotate(21.46) scale(18.58 -5.68) skewX(-.14)" gradientUnits="userSpaceOnUse">
      <stop offset="0" stop-color="#779d69"/>
      <stop offset="1" stop-color="#2c521e"/>
    </radialGradient>
    <linearGradient id="linear-gradient-6" x1="-307.3" y1="110.4" x2="-304.55" y2="110.4" gradientTransform="translate(1119.4 -1131.07) rotate(-68.62) scale(5.01 -4.97) skewX(2.4)" gradientUnits="userSpaceOnUse">
      <stop offset=".2" stop-color="#1c3015"/>
      <stop offset=".74" stop-color="#598948"/>
    </linearGradient>
    <linearGradient id="linear-gradient-7" x1="-328.25" y1="173.47" x2="-327.7" y2="173.47" gradientTransform="translate(-1771.53 12514.11) rotate(70.56) scale(33.88 -33.88)" gradientUnits="userSpaceOnUse">
      <stop offset="0" stop-color="#212121"/>
      <stop offset=".26" stop-color="#111"/>
      <stop offset="1" stop-color="#a9a9a9"/>
    </linearGradient>
    <linearGradient id="linear-gradient-8" x1="-339.89" y1="172.31" x2="-339.01" y2="172.31" gradientTransform="translate(-9349.22 2955.59) rotate(136.25) scale(25.81 -25.81)" gradientUnits="userSpaceOnUse">
      <stop offset="0" stop-color="#929694"/>
      <stop offset=".5" stop-color="#4b4d4c"/>
      <stop offset="1" stop-color="#202020"/>
    </linearGradient>
    <radialGradient id="radial-gradient-8" cx="45.28" cy="56.49" fx="45.28" fy="56.49" r="11.28" gradientUnits="userSpaceOnUse">
      <stop offset="0" stop-color="#fff"/>
      <stop offset=".76" stop-color="#aaa"/>
    </radialGradient>
    <radialGradient id="radial-gradient-9" cx="70.1" cy="102.99" fx="70.1" fy="102.99" r="6.07" gradientUnits="userSpaceOnUse">
      <stop offset="0" stop-color="#ededed"/>
      <stop offset=".78" stop-color="#8c8c8c"/>
    </radialGradient>
  </defs>
  <g>
    <path class="cls-6" d="m78.76,53.4s.05.5.04.43l1.25,15.38s2.28,7.89,2.29,7.9c2.39.47,4.57.44,8.42,1.8,2.68.95,5.24,2.05,7.35,3.45,2.03,1.35,3.65,2.99,4.65,5.01,2.01,4.05,2.97,6.97,2.56,11.34-.46,4.82-2.46,7.42-4.47,8.68-1.46.91-25.5,10.66-31.4,13.04-.4.19-2.1.7-2.21.73-1.67.29-4.6,0-7.94-.86-1.48.02-3-.45-4.43-1.38-.07-.03-.14-.05-.22-.08l-4.86,1.76c-.5.18-1.05.16-1.52-.07L7.97,101.79c-.71-.33-1.16-1.04-1.16-1.82v-8.72c0-.12.02-.25.04-.37l3.7-19.45c.11-.57.46-1.06.96-1.35,0,0,2.79-1.59,3.74-4.15,1.72-4.66,1.02-7.29,1.05-10.98.04-4.7,2.6-8.34,5.47-10.17,2.51-1.59,9.15-3.51,14.94-4.59,3.97-.74,7.55-1.08,9.18-.79.03,0,.06.01.09.02,0,0,24.82,5.55,27.78,7.16,4.07,2.21,4.83,5.65,4.99,6.82Z"/>
    <path class="cls-14" d="m8.81,99.97l40.3,18.74,32.82-11.89,1.03-20.38-4.88-16.87-1.27-15.57s-.08-3.53-4-5.66c-2.9-1.57-27.26-6.96-27.26-6.96-3.77-.65-18.72,2.57-22.7,5.1-2.4,1.52-4.51,4.57-4.55,8.49s.66,6.71-1.17,11.66c-1.17,3.17-4.61,5.18-4.61,5.18l-3.7,19.44v8.72Z"/>
    <ellipse class="cls-22" cx="24.21" cy="87.8" rx="7.6" ry="12.13" transform="translate(-18.46 7.34) rotate(-12.52)"/>
    <ellipse class="cls-5" cx="25.71" cy="86.74" rx="5.97" ry="10.2" transform="translate(-22.71 10.32) rotate(-15.85)"/>
    <ellipse class="cls-17" cx="25.71" cy="86.74" rx="5.97" ry="10.2" transform="translate(-22.71 10.32) rotate(-15.85)"/>
    <ellipse class="cls-13" cx="15.34" cy="98.47" rx="2.34" ry="4" transform="translate(-26.31 7.93) rotate(-15.85)"/>
    <ellipse class="cls-10" cx="15.14" cy="98.66" rx="1.79" ry="3.07" transform="translate(-26.37 7.88) rotate(-15.85)"/>
    <ellipse class="cls-23" cx="40.37" cy="110.2" rx="2.34" ry="4" transform="translate(-28.56 15.21) rotate(-15.85)"/>
    <ellipse class="cls-10" cx="40.16" cy="110.47" rx="1.76" ry="3.02" transform="translate(-28.64 15.17) rotate(-15.85)"/>
    <path class="cls-19" d="m32.07,88.77c.01.23.02.45.02.68.04,5.28-2.79,8.36-6.31,6.86s-6.41-7-6.45-12.28,2.79-8.36,6.31-6.86c.23.1.46.22.68.34-2.54-.6-4.49,2.05-4.46,6.29.03,4.55,2.35,9.22,5.17,10.42s4.87-1.28,5.04-5.45Z"/>
    <ellipse class="cls-26" cx="27.87" cy="86.39" rx="3.34" ry="5.7" transform="translate(-22.53 10.89) rotate(-15.85)"/>
    <ellipse class="cls-30" cx="27.15" cy="86.39" rx="3.02" ry="5.17" transform="translate(-22.56 10.7) rotate(-15.85)"/>
    <path class="cls-18" d="m49.34,118.64c.15-1.81,1.33-16.53.78-19.61-.58-3.28-4.16-9.66-5.03-15.84-.87-6.18-1.35-17.7-.58-21.19.77-3.48,1.62-5.19,4.25-6.84,2.63-1.65,10.72-4.56,16.52-5.39,5.81-.82,6.99-1.16,8.87-.06.43.25.8.56,1.11.88,1.6,2.18,1.55,3.4,1.55,3.4l1.27,15.57,4.88,16.87-1.03,20.38-32.59,11.81Z"/>
    <path class="cls-11" d="m51.51,115.77c.36-5.08.96-14.65.53-17.08-.58-3.26-4.15-9.61-5.02-15.77-.84-5.97-1.35-17.12-.6-20.49.63-2.84,1.24-4.26,3.39-5.6,2.51-1.57,10.22-4.32,15.76-5.11,2.28-.32,3.84-.57,5-.68,1.22-.11,1.83-.08,2.6.38.23.13.42.28.59.45.5.71.79,1.33.95,1.73l.16.57,1.27,15.57c.01.13.03.26.07.38l4.79,16.56-.95,18.76-28.53,10.34Z"/>
    <path class="cls-8" d="m51.83,114.12c.27-7.12.44-14.15.21-15.43-.58-3.26-4.15-9.61-5.02-15.77-.84-5.97-1.35-17.12-.6-20.49.63-2.84,1.24-4.26,3.39-5.6,1.84-1.15,6.46-2.93,10.97-4.11l5.75.27s1.29-.1,3.15,1.86c1.14,1.21,1.68,2.38,1.77,7.08.07,3.51.51,7.42,2.1,10.37,1.59,2.95,3.2,5.26,6.42,6.29,3.22,1.02,5.39.56,10.11,2.23,4.72,1.67,9.05,3.79,10.87,7.46,1.82,3.67,2.73,6.31,2.36,10.26-.37,3.95-1.9,6.14-3.54,7.17-1.64,1.03-32.38,13.41-32.38,13.41,0,0-3.92.33-9.34-1.8-3.79-1.49-5.66-2.76-6.23-3.18Z"/>
    <path class="cls-27" d="m51.81,114.69c.28-7.31.47-14.68.24-15.99-.58-3.27-4.15-9.62-5.02-15.77-.84-5.98-1.35-17.12-.6-20.49.52-2.35,1.03-3.73,2.41-4.9.25.15.47.31.65.48.12.11.21.22.26.32-1.6,1.18-3,2.81-3.22,4.91-.26,2.4-.38,13.55.7,16.17,1.08,2.63,2.41,6.61,7.55,8.78,2.99,1.26,6.12,2.64,9.66,4.19,4.13,1.82,7.11,7.1,8.22,11.47,1.93,7.54-.65,14.41-5.76,15.32-2.71.48-9.09-.96-14.77-3.55-.13-.36-.23-.69-.31-.96Z"/>
    <ellipse class="cls-28" cx="63.34" cy="105.52" rx="8.7" ry="13.15" transform="translate(-29.01 24.17) rotate(-17.65)"/>
    <ellipse class="cls-20" cx="61.95" cy="105.81" rx="8.7" ry="13.15" transform="translate(-29.17 23.76) rotate(-17.65)"/>
    <path class="cls-21" d="m65.48,116.63c-.44.24-4.26,1.37-5.06,1.52-3.86.69-8.18-3.38-9.64-9.09-1.25-4.9,0-9.42,2.83-11.04.47-.27,3.92-1.99,4.98-2.18,3.86-.69,8.22,3.53,9.72,9.4,1.3,5.1.04,9.79-2.84,11.39Z"/>
    <path class="cls-7" d="m68.69,59.09l.93,14.81c.12,1.91-1.22,3.91-2.99,4.45l-15.5,4.73c-1.77.54-3.3-.58-3.42-2.49l-.92-15.39c-.12-1.91,1.22-3.9,2.99-4.44l15.48-4.16c1.77-.54,3.3.58,3.42,2.49Z"/>
    <path class="cls-2" d="m67.76,60.01l.85,13.51c.11,1.74-1.11,3.56-2.72,4.05l-14.13,4.31c-1.61.49-3.01-.53-3.12-2.27l-.84-14.03c-.11-1.74,1.11-3.56,2.72-4.05l14.12-3.79c1.61-.49,3.01.53,3.12,2.27Z"/>
    <path class="cls-15" d="m48.67,74.14l-.48-8.09c-.12-1.89,1.2-3.86,2.95-4.39l5.92-1.6.5,7.87c.12,1.9-1.2,3.86-2.95,4.4l-5.93,1.81Z"/>
    <path class="cls-29" d="m58.74,70.3c.16.04.36.1.56.16,2.25.74,7.29,2.82,8.66,3.39-.07,1.41-1.05,2.78-2.31,3.15l-14.03,4.11c-.62.18-1.2.08-1.63-.25-.44-.34-.72-.9-.77-1.6l-.25-4.15,6.98-2.04c1.26-.37,2.31-1.47,2.8-2.77Z"/>
    <path class="cls-4" d="m65.86,53.75c2-.43,3.48.25,4.12.93,1.14,1.21,1.44,3.03,1.75,7.71.29,4.39.53,6.57,1.82,9.89,1.59,2.95,3.2,5.26,6.42,6.29,3.22,1.02,5.39.56,10.11,2.23,2.52.89,4.93,1.91,6.9,3.22l-4.81,1.18s-4.77-1.61-6.57-2.5c-1.8-.88-9.63-3.22-11.45-5.19-1.82-1.97-2.75-5.39-3.08-7.82-.33-2.42-1.13-10.47-1.19-11.85-.06-1.38-1.64-2.95-3.72-2.67-2.08.29-11.07,3.04-13.89,3.8-2.83.75-4.64,2.73-4.76,6.29l.15,9c.33,4.04.67,5.88,3.64,8.77,2.92,2.85,22.91,10.8,22.91,10.8l-3.69,1.25s-10.64-4.73-15.77-6.89c-5.13-2.16-6.75-5.95-7.54-8.78-.77-2.74-.96-13.78-.7-16.18.26-2.4,2.04-4.17,3.9-5.37,1.44-.92,10.44-3.06,15.45-4.12Z"/>
    <path class="cls-24" d="m54.7,97.55c3.7-.66,7.89,3.44,9.35,9.14.8,3.13.61,6.1-.33,8.25-.41.94-.96,1.71-1.63,2.28-.61.51-1.31.86-2.1,1-3.7.66-7.89-3.44-9.35-9.14-1.46-5.71.36-10.88,4.06-11.54Z"/>
    <path class="cls-3" d="m52.91,98.68c1.34-1.02,3.04-1.25,4.75-.57,3.73,1.49,7.11,7.07,6.95,12.75-.05,1.63-.38,3.01-.93,4.12l-10.77-16.3Zm9.02,18.47c-1.36,1-3.09,1.2-4.81.45-3.66-1.58-6.99-7.09-6.84-12.69.04-1.59.37-2.94.9-4.03l10.76,16.27Z"/>
    <path class="cls-12" d="m60.43,50.73c-4.27,1.26-6.34,1.97-10.49,4.31-1.85,1.03-3.25,2.05-4.6,5.42-.84,2.1-1.15,3.98-1.07,10.95-.53-6.21-.73-9.61,1.28-13.19.71-1.27,1.65-2.96,7.11-5.12,2.99-1.18,3.14-1.38,7.76-2.38Z"/>
    <path class="cls-16" d="m64.48,112.42c.1-1.08.26-3.18-1.32-7.19-1.47-3.74-2.68-5.08-3.24-5.74,4.5,3.95,5.47,9.35,4.56,12.93Z"/>
    <path class="cls-9" d="m70.95,110.91c.07-.77.36-4.11-1.7-9.51-1.69-4.45-4.2-6.22-4.45-6.41,5.7,3.54,7.02,11.42,6.15,15.92Z"/>
    <path class="cls-25" d="m61.83,117c-4.62-6.39-5.24-7.05-10.41-15.76q5.45,7.54,10.41,15.76Z"/>
  </g>
  <g>
    <path class="cls-6" d="m94.97,31.36c-.78,0-1.41.63-1.41,1.41s.63,1.41,1.41,1.41,1.41-.63,1.41-1.41-.63-1.41-1.41-1.41Zm0-3.22c2.56,0,4.63,2.07,4.63,4.63s-2.07,4.63-4.63,4.63-4.63-2.07-4.63-4.63,2.07-4.63,4.63-4.63Zm0,16.74c6.62,0,12-5.38,12-12s-5.37-12-12-12-12,5.38-12,12,5.38,12,12,12Zm-19.1-7.46h-5.03c-.89,0-1.61-.72-1.61-1.61v-6.08c0-.89.72-1.61,1.61-1.61,0,0,5.08,0,5.08,0,1.76-7.06,7.35-12.61,14.43-14.32v-5.19c0-.89.72-1.61,1.61-1.61h6.08c.89,0,1.61.72,1.61,1.61,0,0,0,5.2,0,5.2,7.05,1.73,12.61,7.27,14.36,14.3h5.15c.89,0,1.61.72,1.61,1.61v6.08c0,.89-.72,1.61-1.61,1.61,0,0-5.1,0-5.1,0-1.7,7.14-7.29,12.77-14.41,14.51v4.99c0,.89-.72,1.61-1.61,1.61h-6.08c-.89,0-1.61-.72-1.61-1.61,0,0,0-4.98,0-4.98-7.15-1.73-12.78-7.38-14.47-14.53Z"/>
    <path class="cls-1" d="m94.97,29.75c1.67,0,3.02,1.35,3.02,3.02s-1.35,3.02-3.02,3.02-3.02-1.35-3.02-3.02,1.35-3.02,3.02-3.02m0,16.89c7.6,0,13.76-6.17,13.76-13.77s-6.17-13.77-13.76-13.77-13.77,6.17-13.77,13.77,6.17,13.77,13.77,13.77m-17.78-10.83h-6.35v-6.08h6.39c1.32-7.47,7.25-13.36,14.73-14.62v-6.5h6.08v6.51c7.46,1.28,13.35,7.16,14.67,14.6h6.45v6.08h-6.42c-1.24,7.55-7.17,13.52-14.7,14.82v6.3h-6.08v-6.29c-7.56-1.27-13.53-7.26-14.76-14.83"/>
  </g>
</svg>