<svg xmlns="http://www.w3.org/2000/svg" width="40" height="40" viewBox="0 0 40 40">
  <defs>
    <style>
      .cls-1 {
        fill: #fff;
        fill-rule: evenodd;
      }
    </style>
  </defs>
  <path id="Color_Fill_1" data-name="Color Fill 1" class="cls-1" d="M22.185,12.816H35.107a1.776,1.776,0,0,1,.665-1.271,0.644,0.644,0,0,1,.523-0.141,2.074,2.074,0,0,1,.855,1.459,4.167,4.167,0,0,1,2.185.329,0.81,0.81,0,0,0,.143.329,0.289,0.289,0,0,0-.1.094c0.185,0,.214-0.023.285,0.094a3.949,3.949,0,0,1,.19,2.589,8.463,8.463,0,0,1-.333,1.365,4.052,4.052,0,0,1-3.9,2.4V20.3a3.446,3.446,0,0,0-1.045.188c-0.056-.169-0.072-0.172-0.285-0.188a3.976,3.976,0,0,1-1.045.188c-0.848.212-1.764,0.242-2.66,0.471-1.446.369-3.022,0.422-4.513,0.8a28.1,28.1,0,0,1-4.276.753,17.128,17.128,0,0,1-.19,3.3c-0.116.524-.037,1.075-0.143,1.553v0.565c-0.178.8-.093,1.653-0.285,2.495a13.826,13.826,0,0,0-.332,2.448,11.837,11.837,0,0,1,3.8.565c0.985,0.284,2.006.351,2.945,0.612,1,0.278,1.395.078,1.758,1.036a0.985,0.985,0,0,1,.1.612c-0.323,1.13-1.316.959-2.47,1.271-1.07.289-2.3,0.409-3.373,0.706-0.417.115-.987,0.13-1.235,0.235H20.618c-0.089,0-.523-0.047-0.523-0.047C19.978,37.945,20.073,38,19.953,38a0.877,0.877,0,0,1-.095-0.141s-0.431.047-.523,0.047H17.577c-0.25-.1-0.817-0.124-1.235-0.235-1.154-.308-2.461-0.445-3.61-0.753-1.088-.292-1.937-0.158-2.233-1.224a0.989,0.989,0,0,1,.1-0.612c0.361-.946.754-0.77,1.758-1.036,0.943-.249,1.956-0.34,2.945-0.612a13.159,13.159,0,0,1,3.8-.565,6.348,6.348,0,0,0-.19-1.318c-0.152-.648-0.1-1.332-0.238-1.93-0.175-.762-0.014-1.47-0.19-2.26a26.73,26.73,0,0,1-.332-4.849,16.832,16.832,0,0,1-3.23-.565c-1.406-.36-2.872-0.408-4.228-0.753l-0.57-.047c-0.749-.191-1.573-0.22-2.375-0.424a14.528,14.528,0,0,0-2.28-.424,0.85,0.85,0,0,1-.143.188,2.456,2.456,0,0,0-1-.188V20.065C0.9,20.012-.627,17.027.285,13.616c0.179-.007.167,0.022,0.238-0.094a0.512,0.512,0,0,1,.143-0.329,1.358,1.358,0,0,1,.9-0.329L1.615,10.7h0.1v0.659a4.119,4.119,0,0,1,.048,1.506H2.8a1.779,1.779,0,0,1,.665-1.318A0.644,0.644,0,0,1,3.991,11.4a2.145,2.145,0,0,1,.855,1.412H17.767q0.048-2,.1-4a7.949,7.949,0,0,1-.1-2.024l0.143-.518,0.19-.047q0.024-.4.048-0.8c0.145-.621.211-1.328,0.38-1.883,0.266-.872.583-2.407,1.52-2.542a3.558,3.558,0,0,1,.57.424,9.547,9.547,0,0,1,1.045,2.919l0.19,1.883,0.19,0.047c0.339,0.393.055,2.009,0.047,2.589a5.925,5.925,0,0,0,.143,1.789Q22.209,11.733,22.185,12.816Z"/>
</svg>
