<svg xmlns="http://www.w3.org/2000/svg" width="40" height="40" viewBox="0 0 40 40">
  <defs>
    <style>
      .cls-1 {
        fill: #fff;
        fill-rule: evenodd;
      }
    </style>
  </defs>
  <path id="Color_Fill_1" data-name="Color Fill 1" class="cls-1" d="M20.19,3a3.565,3.565,0,0,0,.169.709,0.749,0.749,0,0,1,.169.167H20.444a0.287,0.287,0,0,0-.169-0.042l-0.042.334L21.373,4.21c0.061,0.021.162,0.148,0.211,0.167a3.743,3.743,0,0,0,.676-0.083V4.377c0.408,0.166.655-.123,0.8,0.292a2.7,2.7,0,0,1-.127,1.585,0.553,0.553,0,0,0-.3.042,0.282,0.282,0,0,1,.211.292,0.622,0.622,0,0,1-.338.083l-0.042.375H22.344V7.13A2.424,2.424,0,0,0,22.429,8.3a0.981,0.981,0,0,0,.38.209,1.183,1.183,0,0,1,.929-1.335c0.1,0.133.285,0.165,0.38,0.292A2.331,2.331,0,0,1,24.456,8.8h7.687V5.42h0.084V5.461a2.594,2.594,0,0,1,.042.96V8.8c2.632-.05,5.074.416,6.589,1.5,0.481,0.345,1.333,1.092,1.056,2a5.143,5.143,0,0,1-1.1,1.627,8.682,8.682,0,0,1-2.957,2.42,10.454,10.454,0,0,1-1.732.626,1.293,1.293,0,0,0-.8.25,0.21,0.21,0,0,0-.042.125l-1.563.167a0.12,0.12,0,0,0-.042-0.042V17.351c-2.945.011-6.4,0.221-9.335,0a14.97,14.97,0,0,1-.253,3.087c-0.15.662-.073,1.358-0.211,1.961v0.417c-0.184.809-.1,1.7-0.3,2.545-0.119.521-.08,1.1-0.211,1.669a3.708,3.708,0,0,0-.127,1.377c0.337,0.2.678,0.464,1.014,0.668,0.87,0.528,1.844.9,2.7,1.418,0.691,0.417,1.524.573,1.816,1.377a1.371,1.371,0,0,1-.465,1.46c-0.751.964-3.364,1.211-5.153,1a2.6,2.6,0,0,1-.465-0.668H20.655a0.436,0.436,0,0,1-.042.375,0.643,0.643,0,0,0-.38.751,3.023,3.023,0,0,0-.042.709c-0.1.465-.081,1.052-0.169,1.5H19.979V36.958a13.23,13.23,0,0,1-.211-2.712c-0.177-.053-0.274-0.156-0.465-0.209a0.457,0.457,0,0,0,0-.375V33.7a1.685,1.685,0,0,1-.465.626,4.969,4.969,0,0,1-1.774,0c-1.443-.049-2.777-0.2-3.421-1.043a1.3,1.3,0,0,1-.465-1.251c0.238-.919,1.046-1.066,1.774-1.5A23.672,23.672,0,0,0,18.8,28.323a12.7,12.7,0,0,0-.338-2.587c-0.194-.838-0.114-1.706-0.3-2.5V22.816c-0.166-.729-0.078-1.561-0.253-2.336a15.709,15.709,0,0,1-.253-3.129c-2.939.213-6.391,0.018-9.335,0a0.2,0.2,0,0,1-.042.125,0.463,0.463,0,0,1-.253.042,5.233,5.233,0,0,0-1.309-.167l-0.042-.209c-0.6-.192-1.215-0.232-1.774-0.459A9.243,9.243,0,0,1,.887,13.6a3.965,3.965,0,0,1-.845-1.46A2.462,2.462,0,0,1,1.056,10.3C3.079,8.819,6.432,8.8,9.968,8.8h5.575c-0.022-.755.222-1.6,0.929-1.627a3.81,3.81,0,0,1,.422.334,2.553,2.553,0,0,1,.3,1h0.085l0.3-.167L17.74,7.13a0.784,0.784,0,0,1-.422-0.876,0.86,0.86,0,0,1-.3-0.042A8.984,8.984,0,0,1,16.9,4.627l0.211-.167a6.375,6.375,0,0,1,.845-0.167,0.655,0.655,0,0,0,.465.083c0.049-.019.15-0.147,0.211-0.167l1.141-.042a1.445,1.445,0,0,1-.085-0.334l-0.211.042V3.793a0.6,0.6,0,0,0,.211-0.626H19.81A0.522,0.522,0,0,0,19.768,3H20.19Z"/>
</svg>
