<svg xmlns="http://www.w3.org/2000/svg" width="40" height="40" viewBox="0 0 40 40">
  <defs>
    <style>
      .cls-1 {
        fill: #fff;
        fill-rule: evenodd;
      }
    </style>
  </defs>
  <path id="Color_Fill_1" data-name="Color Fill 1" class="cls-1" d="M24.864,10.158h0.109a2.679,2.679,0,0,1,.4-1.082H24.9A5.743,5.743,0,0,1,23.013,9a2.316,2.316,0,0,1-.69-0.072c1-.021,2.048-0.1,3.158-0.108a3.426,3.426,0,0,1,.653-1.01,1.451,1.451,0,0,1,.69.83,0.45,0.45,0,0,0,.073.18h1.016l2.142,0.108V8.968H29.982a3,3,0,0,1-.8.072,10.955,10.955,0,0,1-2.178.036V9.112a2.34,2.34,0,0,1,.4,1.046h0.109c-0.006,1.043.137,2.072,0.145,3.138l0.073,0.036a3.261,3.261,0,0,0,1.053.144,25.212,25.212,0,0,0,3.194.325,1.5,1.5,0,0,1,.073-0.649c0.018-.037.13-0.107,0.145-0.144,0.11-.274-0.048-0.728.036-0.974h0.109v0.83h0.073a0.358,0.358,0,0,1,.29,0v-0.83h0.109v0.938c0.026,0.067.15,0.176,0.181,0.253a1.944,1.944,0,0,1,.073.685,9.229,9.229,0,0,1,1.96.18c0.659,0.144,1.343.046,1.96,0.18a18.633,18.633,0,0,1,2.359.252,1.677,1.677,0,0,1,.617.577A1.581,1.581,0,0,1,38.8,16.759a15.587,15.587,0,0,1-3.339.9l-1.089.144c-0.344.084-.775,0.133-1.125,0.216l-0.436.036a0.7,0.7,0,0,1-.4.252,0.245,0.245,0,0,0-.254-0.144,5.069,5.069,0,0,1-1.307.216c-0.551.135-1.154,0.144-1.742,0.289a6.625,6.625,0,0,1-1.307.216,0.984,0.984,0,0,1-.4.685L27.332,19H27.3v0.036a3.546,3.546,0,0,0-.109,1.118,10.081,10.081,0,0,0-.145,1.876l0.617,0.036a0.414,0.414,0,0,1,.073.253,3.934,3.934,0,0,1-.109,1.912c-0.058.094-.239,0.19-0.29,0.289a2.7,2.7,0,0,1-.109.433,0.507,0.507,0,0,1-.145.036,1.229,1.229,0,0,0-.254.469,15.434,15.434,0,0,0-.109,1.7c-0.077.347,0.014,0.765-.073,1.154a8.642,8.642,0,0,0-.145,1.79,0.558,0.558,0,0,0,.327.072,2.206,2.206,0,0,0,.435.036,1.494,1.494,0,0,1,.835.469,1.562,1.562,0,0,1-.508,2.236,3.783,3.783,0,0,1-1.343.108v0.072a0.891,0.891,0,0,1-.073.613c-0.019-.195-0.053-0.612-0.073-0.649a2.306,2.306,0,0,0-.835-0.036H14.809a3.451,3.451,0,0,0-.871.036,0.849,0.849,0,0,1-.073.649,3.115,3.115,0,0,1-.036-0.685h-0.8a2.679,2.679,0,0,0-.436-0.072,1.488,1.488,0,0,1-.653-0.469,1.443,1.443,0,0,1-.218-0.974c0.226-1.02.551-1.338,1.779-1.335a0.549,0.549,0,0,0,.073-0.325,3.5,3.5,0,0,1-.073-0.925c-0.158-.721-0.024-1.591-0.182-2.309V26.065a4.578,4.578,0,0,0-.181-0.9,1.17,1.17,0,0,0-.29-0.216,2.648,2.648,0,0,1-.109-0.433c-0.051-.1-0.233-0.195-0.29-0.289L12.414,23.9a5.517,5.517,0,0,1-.073-1.767,0.845,0.845,0,0,1,.436-0.072,0.484,0.484,0,0,1,.254-0.036,9.381,9.381,0,0,0-.145-1.876A9.2,9.2,0,0,0,12.777,19H12.741l-0.073.577H12.559a0.777,0.777,0,0,0-.508-0.685,5.152,5.152,0,0,0-1.307-.216,27.887,27.887,0,0,0-2.976-.5,0.262,0.262,0,0,1-.29.144c-0.386-.451-1.323-0.338-2-0.5-1.58-.391-3.277-0.453-4.465-1.19C0.71,16.424-.307,15.724.145,15.1c0.21-.722.994-0.549,1.779-0.721,0.735-.161,1.589-0.05,2.359-0.216a15.318,15.318,0,0,1,2.722-.252,1.845,1.845,0,0,1,.109-0.793c0.019-.037.13-0.107,0.145-0.144V12.034H7.368v0.83H7.441a0.357,0.357,0,0,1,.29,0v-0.83a0.176,0.176,0,0,1,.109.036,8.533,8.533,0,0,1,.036.938c0.026,0.067.153,0.175,0.181,0.252a2.808,2.808,0,0,1,.036.83H8.167a0.316,0.316,0,0,0,.181.036,1.179,1.179,0,0,0,.036-0.361A5.053,5.053,0,0,0,9.4,13.657c0.518-.113,1.053-0.041,1.525-0.144a10.817,10.817,0,0,0,1.452-.18,1.328,1.328,0,0,0,.036-0.4,2.731,2.731,0,0,0,.036-0.974c0-.621.111-1.155,0.109-1.8h0.109a2.475,2.475,0,0,0,.073-0.505h0.109a1.733,1.733,0,0,1,.218-0.577H12.45a1.834,1.834,0,0,1-.69.036L10.054,9l-0.036-.072h0.327A2.443,2.443,0,0,1,10.926,8.9a11.99,11.99,0,0,1,2.287-.072,1.8,1.8,0,0,1,.544-0.938,0.155,0.155,0,0,1,.181-0.036,3.263,3.263,0,0,1,.653.974h0.8a8.469,8.469,0,0,1,1.633.072,2.578,2.578,0,0,1,.726.072,10.291,10.291,0,0,0-1.633.144L14.7,9.076V9.112a1.943,1.943,0,0,1,.4,1.046h0.109c0,0.931.137,1.881,0.145,2.85a0.646,0.646,0,0,0,.363.072,2.948,2.948,0,0,1,.762-0.072c0.612-.134,1.4-0.162,2-0.252a7.6,7.6,0,0,0,.29-0.721c0.166-.7-0.122-1.705.036-2.417,0.08-.359-0.015-0.8.073-1.19C19,7.87,19.021,7.209,19.165,6.7s0.306-1.5.762-1.659c0.471-.266.8,0.994,0.907,1.335,0.188,0.616.211,1.4,0.363,2.092,0.081,0.364,0,.782.073,1.118v0.613a8.691,8.691,0,0,0,.073,2.056c0.054,0.2.192,0.328,0.254,0.505a26.945,26.945,0,0,0,3.049.325,0.936,0.936,0,0,0,.073-0.469ZM14.737,22.025l0.653,0.036v0.072a3.5,3.5,0,0,1-.036,1.984c-0.063.177-.26,0.275-0.327,0.433l-0.073.361a0.7,0.7,0,0,1-.218.108,1.722,1.722,0,0,0-.218.433,9.537,9.537,0,0,0-.073,1.3c-0.072.324,0.009,0.716-.073,1.082a11.1,11.1,0,0,0-.145,2.3H14.3a2.308,2.308,0,0,0,.835.036h7.84a16.991,16.991,0,0,0,2.867-.036V29.406a3.522,3.522,0,0,1-.073-0.925c-0.156-.7-0.024-1.571-0.181-2.272V25.668a2.206,2.206,0,0,0-.181-0.577l-0.29-.18-0.073-.361c-0.055-.115-0.232-0.215-0.29-0.325a3.841,3.841,0,0,1-.073-2.164h0.4a0.484,0.484,0,0,1,.254-0.036l-0.181-2.6a0.421,0.421,0,0,0-.254-0.072,2.446,2.446,0,0,1-.69.108c-0.494.116-1.023,0.127-1.561,0.253-0.624.146-1.3,0.169-1.96,0.325a1.931,1.931,0,0,1-.835.108c-0.863-.192-1.8-0.216-2.686-0.433a12.133,12.133,0,0,0-2.178-.361,0.936,0.936,0,0,0-.073.469Z"/>
</svg>
