<svg xmlns="http://www.w3.org/2000/svg" width="40" height="40" viewBox="0 0 40 40">
  <defs>
    <style>
      .cls-1 {
        fill: #fff;
        fill-rule: evenodd;
      }
    </style>
  </defs>
  <path id="Color_Fill_1" data-name="Color Fill 1" class="cls-1" d="M21.751,9.537a1.146,1.146,0,0,0,.165.576H21.751a3.277,3.277,0,0,0,.124.534,0.211,0.211,0,0,1-.124.041,3.277,3.277,0,0,0,.124.534,0.211,0.211,0,0,1-.124.041q-0.021.781-.041,1.562a2.277,2.277,0,0,0,.618.411c0.614,0.17,1.292-.331,1.565-0.164a2.318,2.318,0,0,1,.288.247h0.824a6.169,6.169,0,0,0,1.277.082c0-.42-0.011-0.886,0-1.192h0.082V13.4a5.3,5.3,0,0,1,.7.041V12.25h0.082v0.165a6.12,6.12,0,0,1,0,1.028l5.52,0.205h0.824l1.565,0.041a5.873,5.873,0,0,1,1.236.041H36.91a6.786,6.786,0,0,1,2.307.165,1.892,1.892,0,0,1,.453,2.631,3.892,3.892,0,0,1-.865.987c-0.138.1-.4,0.19-0.453,0.247,0.01,0.04.032,0.016,0,.041a5.8,5.8,0,0,1-2.1.822C34.782,19.1,33.2,19.37,31.8,19.938a0.2,0.2,0,0,0-.041-0.123,1.946,1.946,0,0,1-.618.123,9.179,9.179,0,0,1-1.689.493c-1.555.476-3.237,0.813-4.779,1.316-0.477.156-.959,0.233-1.4,0.37l-0.33.041a5.007,5.007,0,0,0-1.607,2.631l-0.206,3.042c-0.105.465-.049,0.977-0.165,1.48a9.279,9.279,0,0,0-.206,1.809A5.325,5.325,0,0,1,22,31.532c0.827,0.308,1.672.527,2.472,0.822a8.073,8.073,0,0,1,2.019.74,1.409,1.409,0,0,1,.453,1.357c-0.269,1.034-2.138,1.6-3.3,1.6l-0.082.082a5.9,5.9,0,0,1-1.812.082,2.848,2.848,0,0,1-1.4-1.521H20.309v0.165a6.217,6.217,0,0,0,.041,1.809c-0.163.076-.222,0.247-0.371,0.329V36.589c-0.248-.418,0-1.476-0.288-1.85a0.115,0.115,0,0,1-.041.041,2.878,2.878,0,0,1-1.318,1.439,4.355,4.355,0,0,1-1.524-.082c-1.456-.35-3.4-0.3-3.708-1.768a1.379,1.379,0,0,1,.412-1.233,8.092,8.092,0,0,1,2.06-.781c0.8-.3,1.643-0.516,2.472-0.822a5.965,5.965,0,0,1,1.236-.411,8.325,8.325,0,0,0-.206-1.809c-0.121-.5-0.055-1.017-0.165-1.48L18.7,24.79a4.768,4.768,0,0,0-1.4-2.467,3.912,3.912,0,0,0-1.154-.37c-0.844-.273-1.751-0.411-2.636-0.7-2.763-.9-5.383-1.31-7.992-2.179-1.229-.41-2.612-0.484-3.625-1.11a4.422,4.422,0,0,1-1.73-1.85,1.732,1.732,0,0,1,.947-2.343H2.019a11.956,11.956,0,0,1,0-2.179H2.06v0.041a9.124,9.124,0,0,1,.041,2.1c3.659,0.013,7.237-.275,10.793-0.288,0-.42-0.011-0.886,0-1.192h0.082v1.192a6.206,6.206,0,0,1,.7-0.041V12.209h0.082v0.164a6.11,6.11,0,0,1,0,1.028l2.1-.082a2.149,2.149,0,0,1,.288-0.288,1.245,1.245,0,0,1,.494.041l0.124,0.164a1.753,1.753,0,0,0,1.565-.411V12.25a2.617,2.617,0,0,1-.041-0.987,0.526,0.526,0,0,1-.165-0.041l0.041-.123a0.384,0.384,0,0,0,.124-0.411,0.523,0.523,0,0,1-.165-0.041l0.041-.123a0.384,0.384,0,0,0,.124-0.411H18.126V10.03a0.491,0.491,0,0,0,.165-0.493H18.126V9.455A0.467,0.467,0,0,0,18.332,9a0.283,0.283,0,0,1-.206-0.123,0.467,0.467,0,0,0,.206-0.452A0.215,0.215,0,0,1,18.126,8.3c0.373-.268.121-0.821,0.247-1.357a12.211,12.211,0,0,1,.288-1.521,2.956,2.956,0,0,0,.206-0.493H18.538a2.372,2.372,0,0,1-.989,0,13.6,13.6,0,0,1-2.719-.206V4.686h0.041a3.619,3.619,0,0,1,1.4-.123c0.858-.048,1.876-0.044,2.8-0.041A3.33,3.33,0,0,1,20.1,3c0.216,0.368.479,0.746,0.7,1.11l0.165,0.411h0.906a12,12,0,0,1,2.307.082,1.611,1.611,0,0,1,.989.164H25.129a3.651,3.651,0,0,1-.989.082,11.5,11.5,0,0,1-3.007.041V4.932a5.9,5.9,0,0,1,.535,2.015q0.021,0.576.041,1.151a2.431,2.431,0,0,1,.206.288c-0.206.025-.21,0.058-0.206,0.288a0.489,0.489,0,0,1,.206.288c-0.222.016-.213,0.056-0.206,0.288a0.489,0.489,0,0,1,.206.288H21.751Z"/>
</svg>
