<svg xmlns="http://www.w3.org/2000/svg" width="40" height="40" viewBox="0 0 40 40">
  <defs>
    <style>
      .cls-1 {
        fill: #fff;
        fill-rule: evenodd;
      }
    </style>
  </defs>
  <path id="Color_Fill_1" data-name="Color Fill 1" class="cls-1" d="M26.711,12.756c-0.006-1.489.17-2.5,0.177-4.011H27.02c-0.006,1.527.17,2.551,0.177,4.055h0.486c-0.006-1.523.17-2.519,0.177-4.055h0.133c0,1.547.172,2.587,0.177,4.1,0.312,0,.731.158,0.839,0.132a8.533,8.533,0,0,1,2.782.044h0.883c0.563,0.085,1.3.013,1.854,0.132L36.38,13.2c0.912,0.2,2.111.108,3,.22a3.529,3.529,0,0,1,.574.97,2.919,2.919,0,0,1-.044,1.146l-0.044.617a5.1,5.1,0,0,1-.751,1.807,8.369,8.369,0,0,0-1.545.353c-1.133.321-2.312,0.4-3.4,0.705-0.665.188-1.276,0.171-1.943,0.353-2.113.574-4.421,0.8-6.534,1.367-0.948.256-1.926,0.33-2.826,0.573-0.533.144-1.116,0.073-1.28,0.573a1.287,1.287,0,0,0-.088.4c-0.123.44-.151,1.016-0.265,1.543v0.749L20.795,30.3a10.239,10.239,0,0,1,1.81.309c0.836,0.2,1.689.209,2.472,0.4,0.581,0.139,1.477.016,1.766,0.441a4.3,4.3,0,0,1-.133,2.2c-0.259.376-1.018,0.232-1.545,0.353-0.781.179-1.643,0.118-2.472,0.309a11.873,11.873,0,0,1-2.384.308,9.212,9.212,0,0,1-.265,1.763c-0.055.184,0.052,0.519,0,.573-0.069.055-.023,0.028-0.088,0H19.912a7.524,7.524,0,0,0-.221-2.336,3.623,3.623,0,0,1-.883-0.132c-0.462-.121-1.309-0.084-1.854-0.22l-1.06-.088c-0.778-.181-1.737-0.229-2.472-0.4a3.771,3.771,0,0,1-.309-2.336,0.988,0.988,0,0,1,.265-0.176,7.6,7.6,0,0,1,1.81-.309c0.7-.172,1.458-0.173,2.207-0.353a12.521,12.521,0,0,1,1.81-.309l-0.265-3-0.088-2.072c-0.137-.627.017-1.409-0.133-2.072l-0.309-1.366c-1.079-.746-2.886-0.705-4.327-1.1-3.079-.848-6.44-1.1-9.492-1.984-0.858-.248-1.747-0.3-2.561-0.529a5.534,5.534,0,0,1-1.148-.265c-0.676-.452-1.3-3.731-0.4-4.408,0.593-.443,2.247-0.075,3.135-0.264,0.557-.119,1.3-0.013,1.854-0.132H6.358c0.566-.121,1.235.044,1.854-0.088a8.514,8.514,0,0,1,2.781-.044c0.1,0.024.534-.132,0.839-0.132,0-1.511.172-2.554,0.177-4.1h0.132c-0.006,1.536.17,2.531,0.177,4.055H12.8c-0.006-1.5.17-2.53,0.177-4.055h0.133c-0.006,1.514.17,2.522,0.177,4.011a18.235,18.235,0,0,0,4.812-.617,2.375,2.375,0,0,0,.309-0.441l0.044-1.763a0.125,0.125,0,0,1-.044-0.044,0.37,0.37,0,0,1-.221-0.044,1.829,1.829,0,0,0,.221-0.573,0.289,0.289,0,0,1-.221-0.088,2.2,2.2,0,0,0,.265-0.529,0.634,0.634,0,0,1-.221-0.044,3.22,3.22,0,0,0,.221-0.529,0.3,0.3,0,0,1-.221-0.132,0.766,0.766,0,0,0,.177-0.485c-0.044-.031-0.177-0.057-0.221-0.088A1.58,1.58,0,0,0,18.455,6.8a0.634,0.634,0,0,1-.221-0.044,7.34,7.34,0,0,0,.486-2.645H18.631a7.668,7.668,0,0,1-2.87-.088A3.867,3.867,0,0,1,14.7,3.94H14.79a15.089,15.089,0,0,1,2.958-.22,5.676,5.676,0,0,0,1.06,0c0.342-.468.447-1.6,1.148-1.675a0.483,0.483,0,0,1,.265,0,8.465,8.465,0,0,1,.751,1.1,1.2,1.2,0,0,0,.265.617,3.175,3.175,0,0,1,1.148-.044c1.023,0,1.948.141,2.914,0.176V3.94H25.254a4.574,4.574,0,0,1-1.192.088,12.869,12.869,0,0,1-2.826.132V4.248c0.269,0.435.015,1.383,0.221,1.9,0.009,0.023.118,0.1,0.132,0.132a1.4,1.4,0,0,1,.133.485,0.378,0.378,0,0,0-.177.132,2.029,2.029,0,0,1,.265.529,0.75,0.75,0,0,0-.265.044l0.221,0.573a0.634,0.634,0,0,0-.221.044,1.732,1.732,0,0,1,.177.529c-0.038.029-.139,0.059-0.177,0.088a2.208,2.208,0,0,1,.265.529,0.231,0.231,0,0,0-.221.132,1.918,1.918,0,0,1,.221.529c-0.384.014-.288,0.423-0.265,0.793,0.264,0.429-.19,1.085.353,1.455a4.341,4.341,0,0,0,1.236.264A15.67,15.67,0,0,0,26.711,12.756Z"/>
</svg>
