<svg xmlns="http://www.w3.org/2000/svg" width="40" height="40" viewBox="0 0 40 40">
  <defs>
    <style>
      .cls-1 {
        fill: #fff;
        fill-rule: evenodd;
      }
    </style>
  </defs>
  <path id="Color_Fill_1" data-name="Color Fill 1" class="cls-1" d="M21.174,5.187l0.178,1.27a3.383,3.383,0,0,1,.427.564,0.216,0.216,0,0,0-.071.071H21.6c0.008,0.193.218,0.422,0.178,0.458a0.322,0.322,0,0,0-.178.282,0.551,0.551,0,0,1,.213.282H21.779a0.241,0.241,0,0,1-.178.071c0.008,0.193.218,0.422,0.178,0.459a0.242,0.242,0,0,1-.214.106V8.925a1.575,1.575,0,0,1,.214.212,0.121,0.121,0,0,1-.036.071,0.241,0.241,0,0,1-.178.071c0.008,0.193.218,0.422,0.178,0.459a0.241,0.241,0,0,1-.214.106q0.018,0.882.036,1.763a8.556,8.556,0,0,0,1.352.458c0.789,0.285,1.67.6,2.491,0.811,0.159,0.04.416,0.009,0.534,0.035a9.8,9.8,0,0,0,1.174,0,1.306,1.306,0,0,0,.5.07,0.636,0.636,0,0,1,.213-0.106,0.518,0.518,0,0,0,.534.176c0.049-.146.02-0.193,0.213-0.212,0.092,0.266.2,0.265,0.569,0.247a2.356,2.356,0,0,0,.534.035c0.659,0.142,1.446-.007,2.135.141,0.672,0.145,1.5.033,2.171,0.176H34.52c0.5,0.107,1.107-.008,1.637.106,0.32,0.069.706-.007,1.068,0.071a10.846,10.846,0,0,0,2.028.141,2.887,2.887,0,0,1,.5.494c0.082,0.162.016,0.358,0.107,0.529a0.444,0.444,0,0,1,.107.071,4.952,4.952,0,0,1-.178.811l-0.071.988a7.719,7.719,0,0,0-.249,1.446,20.179,20.179,0,0,0-2.847.529l-0.783.106c-0.949.244-2.011,0.359-2.954,0.6-0.527.134-1,.112-1.53,0.247-1.6.409-3.351,0.546-4.947,0.952-1.095.279-2.216,0.325-3.274,0.6a2.4,2.4,0,0,0-1.352.423c-0.431.575-.214,1.178-0.392,1.975v0.741l-0.178,2.68-0.356,3.527a8.749,8.749,0,0,1,2.029.353c0.881,0.223,1.789.25,2.633,0.459,0.51,0.126,1.276.047,1.53,0.423a1.039,1.039,0,0,1,.071.635A11.139,11.139,0,0,1,26.9,33.9a5.643,5.643,0,0,1-1.744.317c-0.955.21-2.066,0.142-3.025,0.353a7.314,7.314,0,0,1-1.744.106c-0.073.665-.258,1.57-0.32,2.328H19.929L19.68,35.307a1.361,1.361,0,0,0-.107-0.635,5.561,5.561,0,0,1-1.388-.07c-1.176-.264-2.524-0.162-3.7-0.423-0.507-.112-1.142.045-1.388-0.317a5.992,5.992,0,0,1-.178-2.151,8.712,8.712,0,0,1,2.384-.564c0.772-.2,1.609-0.218,2.42-0.423a6.957,6.957,0,0,1,1.424-.247,5.6,5.6,0,0,0-.142-1.2c-0.1-.432-0.055-0.877-0.142-1.27v-0.6c-0.212-.966-0.032-2.148-0.249-3.139V23.527c-0.172-.8.036-1.406-0.392-1.975a2.381,2.381,0,0,0-1.352-.423c-1.057-.272-2.18-0.321-3.274-0.6-1.468-.373-3.087-0.511-4.555-0.882-0.412-.1-0.764-0.072-1.174-0.176C6.988,19.248,6,19.127,5.125,18.907,4.713,18.8,4.36,18.834,3.95,18.73A29.8,29.8,0,0,0,.534,18.1a7.586,7.586,0,0,0-.249-1.446l-0.071-.988a5.017,5.017,0,0,1-.178-0.811A0.445,0.445,0,0,1,.142,14.78l0.036-.317A0.878,0.878,0,0,1,1.1,13.757a2.519,2.519,0,0,1,.569-0.035c0.669-.144,1.472.009,2.171-0.141,0.672-.145,1.5-0.033,2.171-0.176H6.548c0.5-.107,1.107.008,1.637-0.106,0.32-.069.705,0.007,1.068-0.071a10.751,10.751,0,0,1,2.064-.141c0.063-.133.052-0.226,0.249-0.247v0.176h0.071a0.728,0.728,0,0,0,.641-0.141,0.825,0.825,0,0,0,.107.141,3.674,3.674,0,0,0,.427-0.106,0.571,0.571,0,0,1,.285.035,2.676,2.676,0,0,0,.961-0.071h0.534c0.784-.2,1.63-0.5,2.384-0.776a5.922,5.922,0,0,0,1.459-.494V11.042a0.375,0.375,0,0,1-.071-0.247l0.107-.035V9.842l-0.178-.035a0.186,0.186,0,0,1-.036-0.176,0.319,0.319,0,0,0,.178-0.353l-0.178-.035-0.036-.106h0.036a0.865,0.865,0,0,0,.178-0.388l-0.178-.035a0.186,0.186,0,0,1-.036-0.176A0.319,0.319,0,0,0,18.4,8.185l-0.178-.035-0.036-.106A0.429,0.429,0,0,0,18.4,7.656a0.656,0.656,0,0,1-.213-0.106l0.036-.106A0.319,0.319,0,0,0,18.4,7.091H18.292a0.373,0.373,0,0,1-.071-0.176,2.212,2.212,0,0,0,.605-1.728,9.738,9.738,0,0,1-1.993-.106c-0.243-.052-0.584.007-0.783-0.035H15.409c-0.425-.092-0.986-0.06-1.388-0.141V4.834c0.35-.041.87-0.061,1.245-0.141,0.43-.092.893,0.012,1.281-0.071,0.277-.059.657,0.015,0.89-0.035,0.515-.11,1.083.023,1.566-0.071A1.592,1.592,0,0,1,20.107,3a2.054,2.054,0,0,1,.712.846,1.551,1.551,0,0,0,.249.67,3.7,3.7,0,0,0,.819.035c0.884,0.191,1.97-.012,2.847.176,0.389,0.083,1.073-.109,1.245.176H25.908a4.947,4.947,0,0,1-1.317.106c-0.429.092-.945-0.031-1.423,0.071A10.251,10.251,0,0,1,21.174,5.187Z"/>
</svg>
