<svg xmlns="http://www.w3.org/2000/svg" width="39.969" height="40" viewBox="0 0 39.969 40">
  <defs>
    <style>
      .cls-1 {
        fill: #fff;
        fill-rule: evenodd;
      }
    </style>
  </defs>
  <path id="Color_Fill_1" data-name="Color Fill 1" class="cls-1" d="M20.755,30.215a14.75,14.75,0,0,1,2.629.452c1.131,0.281,2.3.309,3.357,0.565a1.017,1.017,0,0,0,.168.226c0.008,0.766.012,2.053-.392,2.318A5.7,5.7,0,0,1,24.9,34l-4.587.622A7.982,7.982,0,0,0,20.028,37H19.916V36.322c-0.225-.391.014-1.507-0.392-1.7a5.287,5.287,0,0,0-1.343-.17C17.2,34.227,16.031,34.229,15.049,34c-0.62-.143-1.545.057-1.79-0.452a4.149,4.149,0,0,1-.168-2.092,0.331,0.331,0,0,1,.392-0.283,6.028,6.028,0,0,1,1.678-.283,27.509,27.509,0,0,1,4.028-.678l-0.28-2.827c-0.186-.863,0-1.8-0.168-2.6V23.826a17.315,17.315,0,0,0-.392-2.431,14.806,14.806,0,0,0-1.566-.339c-1.416-.389-2.942-0.5-4.42-0.9-1.511-.414-3.129-0.533-4.7-0.961-2.2-.6-4.57-0.984-6.825-1.47A4.1,4.1,0,0,1,.392,17.1C0.045,16.267-.331,13.676.5,13.139a4.4,4.4,0,0,1,1.231-.113c0.7-.154,1.639-0.062,2.35-0.17H5.2c0.7-.155,1.645-0.015,2.35-0.17H8.671a17.627,17.627,0,0,1,2.517-.17h1.175c0.627-.138,1.489-0.03,2.126-0.17h1.063c0.841-.194,1.8-0.363,2.574-0.565a6.017,6.017,0,0,0,.28-2.6c-0.011-.207-0.125-0.2-0.112-0.339l0.112-.113a0.415,0.415,0,0,0-.112-0.339c-0.027-.148.094-0.108,0.112-0.17a0.5,0.5,0,0,0-.112-0.4c-0.028-.148.095-0.108,0.112-0.17a3.658,3.658,0,0,0-.056-0.565h0.056a1.22,1.22,0,0,0-.112-0.452A0.589,0.589,0,0,0,18.406,6.3V6.241c-0.016-.061-0.14-0.022-0.112-0.17a3.963,3.963,0,0,1,.28-0.452l0.168-1.3H18.629a4.316,4.316,0,0,0-1.007-.057c-1.112-.242-2.5-0.07-3.58-0.283V3.922H14.1A3.185,3.185,0,0,1,15.1,3.809c0.671-.146,1.484.05,2.238-0.113a8.033,8.033,0,0,1,1.566-.113c0.118-.616.476-1.591,1.231-1.583a0.2,0.2,0,0,0,.112.057,12.165,12.165,0,0,1,.783,1.527,13.815,13.815,0,0,1,2.462.17h1.063c0.392,0.086.977,0.094,1.343,0.17V3.979c-1.524.1-3.175,0.267-4.755,0.283V4.375c0.2,0.346.024,0.933,0.224,1.3a3.957,3.957,0,0,1,.28.452c0.026,0.075-.029,0-0.056.057a0.512,0.512,0,0,0,.056.452c0.04,0.155-.082.055-0.112,0.113a6.012,6.012,0,0,0,.112,1.074l-0.112.057a0.616,0.616,0,0,0,.112.452c0.081,0.089-.107.047-0.112,0.057a1.027,1.027,0,0,0,.112.565H21.539V9.746c0,0.809-.16,1.885.448,2.092a2.593,2.593,0,0,0,.783.17c0.781,0.209,1.731.2,2.629,0.4h1.175c1.058,0.232,2.4-.007,3.469.226h1.175c0.7,0.153,1.53-.054,2.294.113,0.716,0.157,1.566-.059,2.35.113a26.747,26.747,0,0,0,3.469.226,2.4,2.4,0,0,1,.5.678c0.379,1.065-.122,3.707-0.839,3.958a2.249,2.249,0,0,1-.559.113c-0.938.269-1.968,0.337-2.965,0.622-3.164.9-6.654,1.221-9.846,2.092-1.016.277-2.07,0.352-3.021,0.622a3.512,3.512,0,0,0-.951.17c-0.526.363-.226,1.5-0.392,2.262-0.185.848,0.026,1.882-.168,2.771Z" transform="translate(0 0.5)"/>
</svg>
