<svg xmlns="http://www.w3.org/2000/svg" width="40" height="40" viewBox="0 0 40 40">
  <defs>
    <style>
      .cls-1 {
        fill: #fff;
        fill-rule: evenodd;
      }
    </style>
  </defs>
  <path id="Color_Fill_1" data-name="Color Fill 1" class="cls-1" d="M21.7,6.678a0.634,0.634,0,0,0-.221.044A1.994,1.994,0,0,1,21.7,7.3c-0.15.042-.137,0.017-0.177,0.177a0.827,0.827,0,0,1,.177.441H21.525a1.605,1.605,0,0,0,.221.662H21.525a4.962,4.962,0,0,0,.177.618c-0.162.045-.155,0.029-0.177,0.221a0.827,0.827,0,0,1,.177.441,0.87,0.87,0,0,0-.177.883c0.277,0.477-.191,1.144.442,1.368a2.924,2.924,0,0,0,1.061.221,16.684,16.684,0,0,0,3.624.4,6.984,6.984,0,0,1,.177-1.986V10.121c0.041-.448,0-0.992,0-1.457h0.177c-0.02,1.428.17,2.612,0.177,4.1h0.442a6.114,6.114,0,0,1,.177-1.942V10.254c0.017-.479,0-1.053,0-1.545h0.221c-0.02,1.436.135,2.69,0.177,4.1a13.036,13.036,0,0,1,2.652.132c0.288,0.062.7-.006,0.928,0.044h0.884c0.564,0.085,1.3.013,1.856,0.132l1.856,0.044c0.913,0.2,2.114.108,3.005,0.221a3.55,3.55,0,0,1,.265,3.487,1.432,1.432,0,0,1-.575,1.015,4.117,4.117,0,0,1-1.105.265c-0.745.2-1.554,0.264-2.343,0.485-2.418.678-5.1,0.88-7.514,1.589-0.737.216-1.511,0.243-2.21,0.441-0.993.281-2.056,0.34-3.006,0.618-0.539.158-1.159,0.055-1.326,0.574a1.287,1.287,0,0,0-.088.4c-0.124.441-.151,1.018-0.265,1.545v0.75l-0.442,5.738a10.24,10.24,0,0,1,1.812.309c0.837,0.2,1.691.209,2.475,0.4,0.581,0.139,1.479.016,1.768,0.441a4.31,4.31,0,0,1-.133,2.207c-0.259.377-1.019,0.232-1.547,0.353-0.782.179-1.645,0.118-2.475,0.309a11.884,11.884,0,0,1-2.387.309,9.218,9.218,0,0,1-.265,1.766c-0.055.184,0.052,0.52,0,.574-0.069.055-.022,0.028-0.088,0H19.89a7.536,7.536,0,0,0-.221-2.339,3.625,3.625,0,0,1-.884-0.132c-0.462-.121-1.31-0.084-1.856-0.221l-1.061-.088c-0.779-.181-1.739-0.23-2.475-0.4a3.776,3.776,0,0,1-.309-2.339,0.989,0.989,0,0,1,.265-0.177,7.611,7.611,0,0,1,1.812-.309c0.7-.172,1.46-0.173,2.21-0.353a12.517,12.517,0,0,1,1.812-.309l-0.265-3q-0.044-1.037-.088-2.074c-0.138-.628.017-1.411-0.133-2.074l-0.309-1.368c-0.1-.066-0.17-0.211-0.265-0.265a6.675,6.675,0,0,0-1.459-.309c-1.2-.326-2.473-0.415-3.713-0.75-1.487-.4-3.056-0.529-4.6-0.927C5.921,18.893,3.1,18.424.8,17.889a4.957,4.957,0,0,1-.619-3.84,1.2,1.2,0,0,1,.265-0.574C1.034,13.03,2.693,13.4,3.58,13.211c0.557-.121,1.3-0.008,1.856-0.132H6.32c0.566-.123,1.238.046,1.856-0.088,0.233-.051.64,0.018,0.928-0.044a13.367,13.367,0,0,1,2.652-.132,15.264,15.264,0,0,1,.221-2.692q-0.022-.706-0.044-1.412h0.221c-0.007.493-.017,1.065,0,1.545v0.574a6.2,6.2,0,0,1,.177,1.942h0.442a9.344,9.344,0,0,1,.221-2.736q-0.022-.684-0.044-1.368h0.177c-0.007.465-.041,1.008,0,1.457v0.618a7.156,7.156,0,0,1,.177,1.986,18.316,18.316,0,0,0,4.773-.618A4.077,4.077,0,0,0,18.431,9.9c-0.15-.042-0.138-0.017-0.177-0.177a0.784,0.784,0,0,0,.177-0.486c-0.15-.042-0.138-0.017-0.177-0.177a0.784,0.784,0,0,0,.177-0.486H18.21V8.532a1.062,1.062,0,0,0,.221-0.618H18.254c0.032-.237.137-0.338,0.177-0.574-0.15-.042-0.138-0.017-0.177-0.177a0.79,0.79,0,0,0,.177-0.441,0.3,0.3,0,0,0-.177-0.044,2.289,2.289,0,0,1,.265-0.618L18.7,4.119H18.652a2.769,2.769,0,0,1-1.149,0L14.541,3.9V3.81A42.149,42.149,0,0,1,18.873,3.5,2.749,2.749,0,0,1,19.8,2h0.354a5.576,5.576,0,0,1,.751.971,1.164,1.164,0,0,0,.221.53h0.884a3.065,3.065,0,0,0,.707.044c0.821,0.177,1.824.067,2.608,0.221V3.81H25.282a3.238,3.238,0,0,1-1.105.132,15.028,15.028,0,0,1-2.961.177V4.163A9.42,9.42,0,0,1,21.392,5.8C21.468,6.117,21.649,6.339,21.7,6.678Z"/>
</svg>
