<svg xmlns="http://www.w3.org/2000/svg" width="40" height="40" viewBox="0 0 40 40">
  <defs>
    <style>
      .cls-1 {
        fill: #fff;
        fill-rule: evenodd;
      }
    </style>
  </defs>
  <path id="Color_Fill_1" data-name="Color Fill 1" class="cls-1" d="M19.807,2h0.43V2.691a2.366,2.366,0,0,1,.687,1.037,20.436,20.436,0,0,1,3.609,0c0.591,0.132,1.383-.126,1.8.173a13.544,13.544,0,0,0-1.8.173H23.674c-0.922,0-1.853-.1-2.621-0.043V4.117c0.364,0.528.182,1.58,0.344,2.333,0.1,0.486-.033,1.088.086,1.642a10.244,10.244,0,0,1,.043,1.858q0.022,1.491.043,2.981a17.345,17.345,0,0,1,3.523.259l0.988,0.043,2.062,0.216V12.5h0.215v0.951l7.261,0.691H36.09c0.932,0.216,2.08.082,2.793,0.519a2.315,2.315,0,0,1,.645,3.327c-0.8,1.274-2.687,1.124-4.339,1.555-2.228.582-4.976,0.672-7.089,1.21-0.74.188-1.5,0.168-2.191,0.346-1.045.27-3.009,0.242-3.695,0.691a2.016,2.016,0,0,0-.73,1.728v0.951c-0.211.936-.088,2.113-0.215,2.982a16.827,16.827,0,0,0-.258,2.333h0.043v0.043a5.122,5.122,0,0,1,1.074.3c0.893,0.293,1.809.455,2.664,0.735a3.184,3.184,0,0,1,1.59.648,2.246,2.246,0,0,1,.387,1.124,1.576,1.576,0,0,1-.6.951c-0.632.567-1.214,0.424-2.191,0.648a14.281,14.281,0,0,1-2.836.389c0.022,0.1.048,0.086,0,.173a0.567,0.567,0,0,1-.3.043l-0.215-1.383H20.58V33.5a3.8,3.8,0,0,0-.086.864c-0.132.564-.205,1.254-0.344,1.815a1.386,1.386,0,0,1-.172.821V36.957a4.067,4.067,0,0,1-.129-0.951c-0.123-.488-0.187-1.145-0.3-1.642-0.069-.3,0-0.643-0.086-0.907H19.42a2.793,2.793,0,0,1-.215,1.167,0.289,0.289,0,0,1-.172.043,5.513,5.513,0,0,0-1.375-.173c-1.709-.408-4.139-0.127-4.382-1.858a1.518,1.518,0,0,1,.516-1.167c0.83-.667,2.795-0.977,3.953-1.34a4.347,4.347,0,0,0,1.246-.346,0.805,0.805,0,0,0,.043-0.389,8.457,8.457,0,0,1-.172-1.728c-0.221-.985-0.055-2.185-0.3-3.2q-0.021-.864-0.043-1.728c-0.409-1.3-1.46-1.051-2.793-1.383-0.837-.209-1.731-0.217-2.621-0.432a10.4,10.4,0,0,0-2.449-.3v-0.13a13.9,13.9,0,0,1-2.664-.432c-1.057-.256-2.149-0.266-3.136-0.518-1.445-.37-2.6-0.261-3.695-0.994A2.362,2.362,0,0,1,.129,16.864L0,16.475a1.242,1.242,0,0,1,.129-0.13v-0.3a2.51,2.51,0,0,1,.43-0.951,4.667,4.667,0,0,1,2.449-.864l1.418-.086,7.261-.691V12.5H11.9v0.951l0.473-.043V13.58a0.673,0.673,0,0,0,.215.043,1.949,1.949,0,0,1,.773-0.086V13.321c1.665-.177,3.332-0.372,5.113-0.389a44.39,44.39,0,0,1,.516-8.9H18.819a3.086,3.086,0,0,0-1.16.043,15.167,15.167,0,0,1-2.922-.086,3.21,3.21,0,0,1-1.031-.13c1.179-.073,2.477-0.217,3.781-0.216a4.1,4.1,0,0,0,1.633.043,6.326,6.326,0,0,0,.473-0.821c0.015-.021.213-0.17,0.215-0.173V2Z"/>
</svg>
