<?xml version="1.0" encoding="UTF-8"?><svg id="Layer_1" xmlns="http://www.w3.org/2000/svg" width="270" height="90" viewBox="0 0 270 90"><defs><style>.cls-1{fill:#fff;fill-rule:evenodd;}.cls-1,.cls-2{stroke-width:0px;}.cls-2{fill:#e2b07a;}</style></defs><path class="cls-1" d="M182.67999,36.14838c.37299.98932.56,2.13733.56,3.44403v1.90399h-3.97595v-1.96002c0-.6347-.03705-1.21338-.11206-1.73596-.05597-.52271-.23297-.93341-.53198-1.23199-.27997-.31744-.77496-.47601-1.48401-.47601-.70898,0-1.23199.16797-1.56799.50397-.31696.31732-.52301.75604-.61597,1.31604-.09302.54126-.14001,1.15729-.14001,1.84796v9.85602c0,.82129.065,1.50262.19598,2.04401.13104.52258.36401.92401.70001,1.20398.35498.26129.83099.39203,1.42798.39203.69104,0,1.17603-.15869,1.45599-.47601.29901-.336.48505-.77472.56-1.31598.07501-.54144.11206-1.14801.11206-1.82001v-2.04401h3.97595v1.82001c0,1.34399-.177,2.53857-.53198,3.58398-.35498,1.02661-.97998,1.83862-1.87598,2.43597-.87701.57861-2.11902.86804-3.724.86804-1.66101,0-2.96802-.32672-3.92004-.98004-.93298-.65338-1.58698-1.53998-1.95996-2.65997-.37305-1.13867-.56-2.44537-.56-3.91998v-8.09204c0-1.54938.18695-2.89337.56-4.03198.37299-1.13867,1.02698-2.01599,1.95996-2.63202.95203-.61597,2.25903-.92395,3.92004-.92395,1.56799,0,2.79095.27057,3.66797.81195.896.52264,1.53101,1.27863,1.90399,2.26801ZM198.19299,36.45642c.42902,1.08258.64404,2.38928.64404,3.91998v8.51202c0,1.51196-.21503,2.82794-.64404,3.948-.41101,1.10126-1.09198,1.95996-2.04401,2.57599-.93298.59729-2.22101.896-3.86395.896-1.60504,0-2.88403-.29871-3.836-.896-.95203-.59741-1.63306-1.45599-2.04401-2.57599-.41101-1.12006-.61603-2.44543-.61603-3.97601v-8.48401c0-1.5307.20502-2.8374.61603-3.91998.41095-1.10144,1.09198-1.94141,2.04401-2.52002.95197-.57867,2.23096-.86798,3.836-.86798,1.64294,0,2.93097.28931,3.86395.86798.95203.57861,1.633,1.41858,2.04401,2.52002ZM194.63702,39.42438c0-.6347-.05603-1.20398-.16803-1.70801-.112-.50397-.336-.896-.672-1.17596-.31702-.29871-.82098-.448-1.51196-.448-.65302,0-1.14801.14929-1.48401.448-.336.27997-.56.672-.672,1.17596-.112.50403-.16803,1.0733-.16803,1.70801v10.44403c0,.61597.047,1.1853.14001,1.70801.112.52258.336.93329.672,1.23199.336.29858.84003.448,1.51202.448.69098,0,1.19495-.14941,1.51196-.448.336-.29871.56-.70941.672-1.23199.112-.52271.16803-1.09204.16803-1.70801v-10.44403ZM235.26001,46.92841c-.65302-1.06403-1.44598-1.98804-2.38-2.77203l-2.828-2.492c-.59698-.52264-1.05402-1.02667-1.37201-1.51196-.31696-.50403-.47601-1.13873-.47601-1.90399,0-.59741.15906-1.09204.47601-1.48401.336-.41071.81299-.61603,1.42804-.61603.59796,0,1.04596.15863,1.34399.47601.31799.31732.53296.75598.64496,1.31598.13.56006.21405,1.19464.25201,1.90405l3.52704-.61603c-.05603-.82141-.18604-1.59601-.39203-2.32397-.20502-.7467-.52197-1.40942-.95099-1.98804-.41101-.57867-.97101-1.02667-1.67999-1.34399-.71002-.336-1.59601-.50397-2.66101-.50397-1.81,0-3.23804.48529-4.28302,1.45599-1.04596.97058-1.56897,2.35199-1.56897,4.14398,0,1.25061.23401,2.3053.69995,3.164.48602.84003,1.13,1.60529,1.93201,2.29602l2.85602,2.51996c.74701.63464,1.34399,1.26935,1.79199,1.90399s.67303,1.44666.67303,2.43604c0,.61597-.14001,1.12927-.42004,1.53998-.27997.39203-.75696.58801-1.42896.58801-.59705,0-1.08203-.17737-1.45599-.53198-.354-.37341-.625-.896-.81201-1.56799-.16803-.672-.27002-1.44672-.30804-2.32404l-3.55597.70001c.05597,1.49329.31799,2.7533.784,3.78003.46698,1.02655,1.15802,1.81055,2.07202,2.35199.91498.52258,2.05396.784,3.41595.784,1.13904,0,2.12805-.2334,2.96802-.70001.85901-.48541,1.52203-1.14801,1.98798-1.98798.48602-.84003.72803-1.80145.72803-2.88403,0-1.49341-.336-2.7627-1.008-3.80798ZM218.013,46.25629l-5.51599-12.93597h-2.88397v22.67999h3.52795v-13.552l5.54401,13.552h2.74402v-22.67999h-3.41602v12.93597ZM202.01599,56.00031h4.08801v-22.67999h-4.08801v22.67999ZM156.664,33.32031h-4.14398v22.67999h9.63196v-2.85602h-5.48798v-19.82397ZM144.68701,45.64032h4.22797v-2.88403h-4.22797v-6.52399h5.37598v-2.91199h-9.51996v22.67999h9.57599v-2.85602h-5.43201v-7.50397ZM138.24701,33.32031h-3.58398l-2.57599,7.02802-2.94-7.02802h-3.86401l4.42401,10.64001-4.56403,12.03998h3.55603l2.79999-7.61603,3.21997,7.61603h3.86401l-4.70398-11.25598,4.36798-11.42401ZM118.97302,56.00031h4.08795v-22.67999h-4.08795v22.67999ZM116.047,36.28827c.41101.95203.61603,2.10931.61603,3.47205,0,1.47467-.25201,2.66931-.75604,3.58398-.50397.896-1.21295,1.54932-2.12799,1.96002-.896.41071-1.95996.61597-3.19202.61597h-2.23999v10.08002h-4.14398v-22.67999h6.664c1.36298,0,2.46399.25201,3.30402.75598.85901.50403,1.48401,1.24133,1.87598,2.21198ZM112.771,39.7323c0-.82129-.065-1.48401-.19598-1.98798-.112-.52271-.37299-.90533-.784-1.14801-.39203-.24274-1.01703-.36401-1.87604-.36401h-1.56799v6.776h1.56799c.74701,0,1.32501-.10272,1.73602-.30798.42902-.224.71899-.56934.86798-1.03601.16803-.48529.25201-1.12933.25201-1.93201Z"/><path class="cls-2" d="M61.88898,16.11328c-15.953-.00098-28.88696,12.92999-28.88898,28.883-.00201,15.95203,12.927,28.88702,28.88,28.89099,15.95502.00104,28.89203-12.93195,28.89398-28.888-.00098-15.95197-12.93298-28.88495-28.88501-28.88599ZM61.87598,69.75232c-13.66797,0-24.74799-11.08099-24.74799-24.74805,0-13.66797,11.08002-24.74799,24.74799-24.74799,6.56403,0,12.85901,2.60699,17.5,7.24799s7.24805,10.93604,7.24805,17.5c0,13.66705-11.08002,24.74805-24.74805,24.74805ZM68,25h-4v6h-4v-6h-4v6h-8v28h8v6h4v-6h4v6h4v-6h8v-28h-8v-6ZM72,35v20h-20v-20h20Z"/></svg>