<svg xmlns="http://www.w3.org/2000/svg" width="40" height="40" viewBox="0 0 40 40">
  <defs>
    <style>
      .cls-1 {
        fill: #fff;
        fill-rule: evenodd;
      }
    </style>
  </defs>
  <path id="Color_Fill_1" data-name="Color Fill 1" class="cls-1" d="M19.831,3.6h0.3V3h0.084a1.545,1.545,0,0,0,.042.64,0.5,0.5,0,0,0,.253.128V3h0.084V3.939c0.833,0.583.8,2.923,0.8,4.4a0.2,0.2,0,0,1,.127.043,3.549,3.549,0,0,1,.042,1.281c0.4,0.621-.157,2-0.169,2.775a6.065,6.065,0,0,1,1.266.128c0.512,0.114,1.046.032,1.519,0.128v-0.64a1.433,1.433,0,0,1-.042-0.6H24.008A4.127,4.127,0,0,1,24.43,9.7h0.928V9.617a0.548,0.548,0,0,0-.337-0.085,2.014,2.014,0,0,1-.633.043,6.977,6.977,0,0,1-2.11-.213V9.318h0.042a2.479,2.479,0,0,1,1.013-.085c0.6,0,1.557.045,2.025,0l0.084-.512c0.644-.012.13,0.424,0.591,0.555a1.847,1.847,0,0,1,.844-0.085,9.755,9.755,0,0,1,1.983.171V9.4H28.819c-0.466.314-2.255,0.133-2.954,0.128a0.547,0.547,0,0,1-.042.171h0.97V9.745c0.519,0.526.257,2.325,0.253,3.2l4.009,0.3a0.473,0.473,0,0,0,.464.47c0.033-.029.094-0.056,0.127-0.085,0.179-.2.094-0.349,0.506-0.341a4.737,4.737,0,0,0,1.224.085,12.147,12.147,0,0,0,2.447.171v-1.75a1.783,1.783,0,0,1,.042-0.683c0.01,0.763.041,1.648,0.042,2.476l2.869,0.171,0.042-.427a0.911,0.911,0,0,1,.3-0.256,0.627,0.627,0,0,1,.422-0.085,0.8,0.8,0,0,1,.337.342,2.75,2.75,0,0,1,.084,1.2,6.413,6.413,0,0,1-.548,2.86,2.344,2.344,0,0,0-.8.043V17.259H38.523c-0.551.48-2.512,0.422-3.418,0.64-0.952.229-1.995,0.186-3,.427-0.667.16-1.391,0.13-2.11,0.3a35.091,35.091,0,0,1-3.587.512,4.157,4.157,0,0,1-.844,2.092V21.144a3.511,3.511,0,0,1-.76-1.836H24.768a7.084,7.084,0,0,1-1.1.128,10.119,10.119,0,0,1-2.321.256v0.3a1.411,1.411,0,0,1,.084,1.153l1.139,0.384v0.085H22.405a2.983,2.983,0,0,0-1.013-.384c-0.149.588-.07,1.472-0.211,2.134v0.9c-0.117.547,0.043,1.195-.084,1.793a13.484,13.484,0,0,0-.127,2.561h0.084a7.733,7.733,0,0,0,1.688.341c0.671,0.182,1.4.235,2.11,0.427a7.418,7.418,0,0,0,1.477.3,1.389,1.389,0,0,1,.127-0.64,0.144,0.144,0,0,1,.084.043,2.486,2.486,0,0,1,.127,1.2c0,0.774-.107,1.515-0.127,2.305H26.456V32.5a2.056,2.056,0,0,1-.084-0.939,0.328,0.328,0,0,1-.169-0.171c-0.213.216-.773,1.284-0.928,1.366H21.139l-0.3-.213v0.085c-0.249.312,0,1.06-.169,1.451a0.928,0.928,0,0,1-.169.128c-0.126.183-.043,0.317-0.3,0.384V36H20.127V34.591h-0.3A5.3,5.3,0,0,1,19.789,36H19.747V35.957c-0.17-.286.111-1.082-0.042-1.366a3.05,3.05,0,0,1-.464-0.64c-0.114-.42.025-1.015-0.127-1.366a19.48,19.48,0,0,1-4.43.171L13.8,31.432H13.713a2.016,2.016,0,0,0-.127.854,0.737,0.737,0,0,0-.127.342H13.418V32.371a3.2,3.2,0,0,1-.084-0.9,5.752,5.752,0,0,1,.084-2.433H13.5v0.085c0.1,0.133.034,0.447,0.127,0.6a7.761,7.761,0,0,1,1.688-.342c1.178-.319,2.462-0.5,3.671-0.768V28.1a3.855,3.855,0,0,1-.042-0.9c-0.114-.538-0.012-1.255-0.127-1.793V24.73l-0.127-.043a0.53,0.53,0,0,1-.042-0.427h0.127a5.61,5.61,0,0,0-.169-1.921,3.956,3.956,0,0,1-1.181.427V22.681h0.042V22.638a1.864,1.864,0,0,0,1.1-.512,1.237,1.237,0,0,1,.084-0.939q-0.021-.747-0.042-1.494H18.565a2,2,0,0,1-.759-0.043,14.049,14.049,0,0,1-1.9-.213,2.144,2.144,0,0,0-.759-0.085c-0.323.5-.31,1.623-0.844,1.878a8.191,8.191,0,0,0-.464-0.9A5.747,5.747,0,0,0,13.5,19.18a2.228,2.228,0,0,0-.8-0.128c-0.707-.166-1.449-0.121-2.194-0.3-2.236-.534-4.6-0.472-6.878-1.025l-0.886-.085A3.9,3.9,0,0,1,.3,16.49,1.8,1.8,0,0,1,.717,14.1a7.2,7.2,0,0,1,2.236-.47H3.544c0.558-.123,1.207.006,1.814-0.128a15.283,15.283,0,0,1,2.785-.213,0.438,0.438,0,0,0,.169.341c0.372,0.284.444-.273,0.675-0.384l3.924-.3a9.748,9.748,0,0,1,0-2.433A1.226,1.226,0,0,1,13.165,9.7h0.928l-0.042-.213H14.008a2.2,2.2,0,0,1-.886.085A6.116,6.116,0,0,1,11.1,9.361a0.155,0.155,0,0,1-.042-0.085h0.464c0.406-.253,2.31.091,2.532-0.043a1.3,1.3,0,0,0,.127-0.512H14.3a0.141,0.141,0,0,1,.211.085c0.12,0.213-.024.4,0.253,0.47a1.742,1.742,0,0,1,.8-0.085,6.6,6.6,0,0,1,2.025.171V9.4H17.553c-0.462.31-2.222,0.134-2.911,0.128L14.6,9.66a0.12,0.12,0,0,0-.042.043h0.97a6.52,6.52,0,0,1,.422,1.75H15.823q-0.021.619-.042,1.238h0.084a3.541,3.541,0,0,1,.928-0.085,9.21,9.21,0,0,1,1.772-.171,4.767,4.767,0,0,0-.3-1.494A2.953,2.953,0,0,1,18.4,9.617V8.336h0.127a11.814,11.814,0,0,1,.211-3.2,4.685,4.685,0,0,1,.38-0.939,3.169,3.169,0,0,0,.253-0.3A2.186,2.186,0,0,1,19.452,3V3.811h0.042a0.623,0.623,0,0,1,.253-0.171V3h0.084V3.6Z"/>
</svg>
