<svg xmlns="http://www.w3.org/2000/svg" width="40" height="40" viewBox="0 0 40 40">
  <defs>
    <style>
      .cls-1 {
        fill: #fff;
        fill-rule: evenodd;
      }
    </style>
  </defs>
  <path id="Color_Fill_1" data-name="Color Fill 1" class="cls-1" d="M21.846,12.28l0.6,0.03V12.251c0.03-.048.029-0.188,0.06-0.236a0.3,0.3,0,0,1,.24-0.059c0.142,0.306-.02.375,0.48,0.354a4.263,4.263,0,0,1,1.38.029c-0.486.031-.905,0.142-1.5,0.148v0.03h0.03a0.589,0.589,0,0,1,.24.148,6.667,6.667,0,0,1,.06,1.771h2.431v0.177h0.54V14.435c4.275-.016,8.543.43,12.633,0.266a0.222,0.222,0,0,0,.12.118,0.16,0.16,0,0,1,.24,0,0.976,0.976,0,0,1,.51.472,2.957,2.957,0,0,1,.06,1v2.066c-0.168.083-.294,0.248-0.45,0.325l-0.36.059V18.007H39.1v0.738a4.075,4.075,0,0,0-.9.118c-0.4.091-.8,0.063-1.17,0.148l-0.69.059-1.861.266-1.41.148c-1.572.359-3.318,0.3-4.891,0.649H21.846a6.046,6.046,0,0,0,0,.768h0.09a9.946,9.946,0,0,1-.09,1.151c-0.058.22-.179,0.465-0.24,0.649l-0.06.827c-0.148.606-.164,1.28-0.33,1.919a25.95,25.95,0,0,0-.63,2.8,6.673,6.673,0,0,1,1.35.266c0.626,0.165,1.264.2,1.86,0.354a6.764,6.764,0,0,1,1.56.354,0.932,0.932,0,0,1,.45.945c-0.308,1.215-1.832,1.181-3.391,1.181H20.075V31.41a1.363,1.363,0,0,0-.06.59h-0.06l-0.06-.649H16.054a9.439,9.439,0,0,0-.96-0.207,1.158,1.158,0,0,1-.81-1.535,0.832,0.832,0,0,1,.39-0.413,6.89,6.89,0,0,1,1.05-.236c0.786-.207,1.673-0.292,2.461-0.5a4.486,4.486,0,0,0,1.2-.266,1.775,1.775,0,0,1-.09-0.443c-0.124-.432-0.169-0.9-0.3-1.358-0.238-.828-0.315-1.82-0.54-2.686l-0.09-1c-0.061-.185-0.183-0.429-0.24-0.649a11.538,11.538,0,0,1-.09-1.151h0.09a5.991,5.991,0,0,0,0-.768H11.793c-1.35-.295-2.85-0.259-4.2-0.561l-1.17-.118c-0.73-.166-1.581-0.16-2.311-0.325l-0.48-.03c-0.365-.082-0.771-0.057-1.17-0.148a8.553,8.553,0,0,0-1.59-.207V18.007H0.81v0.767H0.78a1.18,1.18,0,0,0-.33-0.089C0.432,18.678,0,18.362,0,18.362v-2.8a0.856,0.856,0,0,0,.12-0.472,1.009,1.009,0,0,0,.45-0.3,0.507,0.507,0,0,1,.3.03C0.91,14.7.949,14.7,1.11,14.7l0.06,0.118,11.043-.384,0.03-1.83H12.3v0.62a4.862,4.862,0,0,1,.03,1.21h1.23v0.177H14.1V14.435h2.431a15.707,15.707,0,0,1,.03-1.771,0.366,0.366,0,0,1,.27-0.118,0.528,0.528,0,0,0,.24-0.088h-0.75a3.078,3.078,0,0,0-.93-0.118V12.31h0.03a8.5,8.5,0,0,1,1.68,0V12.28h0.03c-0.012-.241.025-0.329,0.27-0.325a0.109,0.109,0,0,0,.06.03l0.06,0.325h0.39a0.4,0.4,0,0,1,.21-0.03c-0.029-1.526.431-3.873,1.47-4.28h0.75a4.667,4.667,0,0,1,.63.472A7.41,7.41,0,0,1,21.846,12.28Z"/>
</svg>
