<svg xmlns="http://www.w3.org/2000/svg" width="40" height="40" viewBox="0 0 40 40">
  <defs>
    <style>
      .cls-1 {
        fill: #fff;
        fill-rule: evenodd;
      }
    </style>
  </defs>
  <path id="Color_Fill_1" data-name="Color Fill 1" class="cls-1" d="M24.812,7.973C24.2,8.007,22.765,8.263,22.3,7.9a0.1,0.1,0,0,1-.036-0.036H22.3a8.246,8.246,0,0,1,2.621-.145,4.663,4.663,0,0,0,.467-0.834h0.18V7.03c0.286,0.2.293,0.684,0.718,0.689a1.781,1.781,0,0,1,.682-0.036,8.634,8.634,0,0,1,1.723.145,0.129,0.129,0,0,1-.072.036,4.779,4.779,0,0,1-2.478.109V8.081c0.109,0.146.042,0.413,0.144,0.58h0.072a1.894,1.894,0,0,1,.144.4,17.217,17.217,0,0,1,.072,1.74,2.311,2.311,0,0,1,0,.834h0.108v0.508l0.287,0.036a1.583,1.583,0,0,0,.359.4,2.3,2.3,0,0,0,.682-0.217,3.254,3.254,0,0,0,.826.145c0.595,0.151,1.237.166,1.867,0.326,2.086,0.529,4.356.628,6.427,1.2,0.889,0.244,3.13.178,2.837,1.486-0.369,1.65-2.22,1.5-3.878,1.921-1.759.444-3.71,0.529-5.386,0.979-0.648.174-1.326,0.162-1.939,0.326-0.726.195-1.5,0.178-2.19,0.362a2.989,2.989,0,0,0-.826.145,1.692,1.692,0,0,0-.251.544,0.131,0.131,0,0,1-.036-0.072c-0.165-.193-0.091-0.435-0.467-0.435a3.556,3.556,0,0,1-.933.073,9.15,9.15,0,0,1-1.831.145,3.72,3.72,0,0,0-.754.761,2.073,2.073,0,0,0-.036.652,3.7,3.7,0,0,1-.072.652v0.979c-0.154.723-.026,1.6-0.18,2.32v0.471c-0.09.421-.008,0.911-0.108,1.377a4.883,4.883,0,0,0-.108,1.414c0.708,0.312,1.521.428,2.3,0.689,0.732,0.246,1.52.51,2.3,0.689,0.051-.1.1-0.215,0.144-0.326h0.072v0.073a6.406,6.406,0,0,1,.036,2.719,2.3,2.3,0,0,1-.072.653l-0.18-1.45H25.53a2.875,2.875,0,0,1-.467,1.124,8.991,8.991,0,0,0-1.58.363c-0.585.168-1.228,0.058-1.831,0.217s-1.045-.1-1.329.326a2.167,2.167,0,0,1-.359.8,2.149,2.149,0,0,0-.395-0.943,4.332,4.332,0,0,0-1.221-.217H17.774c-0.809-.184-1.684-0.232-2.406-0.471a1.634,1.634,0,0,1-.431-0.109c-0.261-.27-0.266-0.752-0.5-1.051v0.036c-0.211.358,0.027,1.059-.216,1.378a15.182,15.182,0,0,1,0-3.444h0.072v0.036a0.474,0.474,0,0,0,.215.29,3.894,3.894,0,0,1,.9-0.254c0.748-.251,1.582-0.476,2.334-0.725a2.914,2.914,0,0,0,1.293-.471,1.977,1.977,0,0,0-.036-0.616l-0.108-1.6a18.931,18.931,0,0,0-.18-2.1c-0.087-.4.006-0.835-0.072-1.2V21.566c-0.071-.325.027-0.846-0.072-1.2a1.217,1.217,0,0,0-1.221-.87,3.575,3.575,0,0,0-.934-0.073,9.121,9.121,0,0,0-1.652-.145c-0.048.2-.161,0.313-0.215,0.508a0.13,0.13,0,0,1-.036-0.072,1.718,1.718,0,0,1-.251-0.508,8.779,8.779,0,0,1-1.9-.326c-0.81-.207-1.638-0.2-2.406-0.4-0.512-.134-1-0.071-1.508-0.218-1.395-.4-3.233-0.476-4.74-0.87C2.593,17.109,1.7,17.2.9,16.6a0.941,0.941,0,0,1-.251-0.073,1.707,1.707,0,0,1-.61-1.015,0.666,0.666,0,0,1,.072-0.4c0.332-.925,1.38-0.759,2.37-1.015,0.766-.2,1.6-0.227,2.406-0.435,1.682-.434,3.528-0.647,5.242-0.979,0.15-.029.37,0.179,0.718,0.181a0.764,0.764,0,0,1,.539-0.362,1.958,1.958,0,0,1,.754-0.145,0.49,0.49,0,0,0,.539.217l0.251-.181a0.5,0.5,0,0,1,.108-0.181V12.178h0.179a0.182,0.182,0,0,1,.108-0.036V11.634h0.072a4.651,4.651,0,0,0,.036-0.8c0.129-.6-0.079-1.24.072-1.776a8.141,8.141,0,0,0,.359-1.088c-0.612.034-2.047,0.291-2.513-.072a0.1,0.1,0,0,1-.036-0.036h0.036a7.25,7.25,0,0,1,2.621-.145,4.663,4.663,0,0,0,.467-0.834h0.18V7.03c0.286,0.2.293,0.684,0.718,0.689a1.781,1.781,0,0,1,.682-0.036,8.634,8.634,0,0,1,1.724.145,0.13,0.13,0,0,1-.072.036,4.779,4.779,0,0,1-2.478.109V8.081c0.109,0.146.042,0.413,0.144,0.58H15.4a1.888,1.888,0,0,1,.144.4,10.931,10.931,0,0,1,.072,2.574h0.108V12a0.942,0.942,0,0,0,.251.217,0.528,0.528,0,0,0,.431.036,0.5,0.5,0,0,1,.5-0.29,3.861,3.861,0,0,1,.862-0.036c0.206-.047.421-0.132,0.61-0.181a0.916,0.916,0,0,0,.036-0.29,8.942,8.942,0,0,0,.072-1.523C18.575,9.552,18.507,9.1,18.6,8.7c0.191-.841.274-1.714,0.5-2.465A4.107,4.107,0,0,1,19.533,5h0.934c0.056,0.026,0,0,.108,0a2.725,2.725,0,0,0,.251.834c0.175,0.527.254,1.1,0.395,1.631l0.108,0.943a17.391,17.391,0,0,1,.251,3.3l0.108,0.036a3.517,3.517,0,0,0,1.688.218,0.355,0.355,0,0,0,.359.29,0.434,0.434,0,0,0,.359-0.036,3.867,3.867,0,0,0,.287-1.812V9.64A9.911,9.911,0,0,1,24.6,8.553,2.66,2.66,0,0,0,24.812,7.973Z"/>
</svg>
