<svg xmlns="http://www.w3.org/2000/svg" width="40" height="40" viewBox="0 0 40 40">
  <defs>
    <style>
      .cls-1 {
        fill: #fff;
        fill-rule: evenodd;
      }
    </style>
  </defs>
  <path id="Color_Fill_1" data-name="Color Fill 1" class="cls-1" d="M25.4,7.32H25.55V7.432a2.711,2.711,0,0,1,.489.674h0.677a5.511,5.511,0,0,1,1.957.15H28.636a5.349,5.349,0,0,1-2.483.15,5.218,5.218,0,0,0,.339.973,6.394,6.394,0,0,1,.113,1.684,3.672,3.672,0,0,1-.038.936h0.113v0.486l0.3,0.037a1.246,1.246,0,0,0,.3.374H27.7c0.147-.051.132-0.249,0.414-0.187,2.074,0.458,4.364.611,6.4,1.16,0.838,0.227,1.72.233,2.521,0.449,0.933,0.252,3.268.15,2.935,1.534-0.36,1.495-2.061,1.411-3.612,1.8-1.528.379-3.226,0.452-4.741,0.861l-1.129.15c-0.8.2-1.68,0.2-2.521,0.412a13.289,13.289,0,0,1-2.22.374,2.424,2.424,0,0,1-.226.524H25.437a0.431,0.431,0,0,0-.489-0.449,3.978,3.978,0,0,1-1.016.075,9.644,9.644,0,0,1-1.731.15,3.175,3.175,0,0,0-.753.786q-0.056,1.385-.113,2.769-0.188,2.451-.376,4.9a19.737,19.737,0,0,0,3.123.936,5.092,5.092,0,0,0,1.543.412,0.339,0.339,0,0,1,.151-0.3v0.038a5.168,5.168,0,0,1,.075,2.357,3.367,3.367,0,0,1-.113,1.01c-0.019-.566-0.145-1.064-0.15-1.684H25.513a4.651,4.651,0,0,1-.414,1.347,4.355,4.355,0,0,0-.866.224l-1.769.3a12.568,12.568,0,0,0-1.844.15c-0.475.2-.314,0.83-0.64,1.01V33.963c-0.339-.369-0.092-0.734-0.677-1.048a1.891,1.891,0,0,1-.263.038,9.094,9.094,0,0,1-1.129-.075c-0.511-.112-1.067-0.083-1.581-0.224a8.149,8.149,0,0,0-1.43-.337c-0.012-.074-0.4-1.052-0.451-1.123v0.038a7.6,7.6,0,0,0-.188,1.384H14.224V32.353a2.775,2.775,0,0,1-.075-0.9c-0.061-.415-0.159-2.028.151-2.208v0.038a0.461,0.461,0,0,0,.188.262,7.394,7.394,0,0,0,1.054-.262c0.837-.287,1.762-0.512,2.6-0.786a1.246,1.246,0,0,0,.941-0.412,1.763,1.763,0,0,1-.038-0.412c-0.125-.567-0.016-1.217-0.151-1.834-0.1-.46-0.049-1.065-0.151-1.534V23.672c-0.086-.395.021-0.868-0.075-1.31a9.912,9.912,0,0,1-.113-1.871,3.338,3.338,0,0,0-.753-0.748l-3.048-.225a1.777,1.777,0,0,1-.188.449H14.487l-0.226-.524a8.351,8.351,0,0,1-1.543-.262l-2.032-.3c-0.585-.145-1.213-0.147-1.844-0.3-0.125-.03-0.393-0.137-0.489-0.15a47.069,47.069,0,0,1-4.892-.823l-0.677-.075C1.7,17.263.364,17.047,0.075,16c-0.39-1.413,1.408-1.35,2.3-1.572,1.282-.32,2.67-0.381,3.989-0.711,0.878-.22,1.823-0.255,2.747-0.486,0.3-.076.743-0.183,1.054-0.225a0.547,0.547,0,0,1,.339.187h0.376a1.182,1.182,0,0,0,.263-0.337,3.854,3.854,0,0,1,1.016-.15,0.578,0.578,0,0,0,.564.187,1.427,1.427,0,0,1,.489-0.374,0.193,0.193,0,0,1,.113-0.037,5.463,5.463,0,0,1,.113-1.16c0.138-.635-0.076-1.3.075-1.871,0.1-.372.287-0.692,0.376-1.085h-0.15a4.742,4.742,0,0,1-2.408-.075,0.107,0.107,0,0,1-.038-0.037A24.272,24.272,0,0,1,14,8.106c0.086-.334.383-0.474,0.452-0.786H14.6V7.432a2.716,2.716,0,0,1,.489.674h0.677a5.51,5.51,0,0,1,1.957.15H17.686a5.349,5.349,0,0,1-2.484.15,5.211,5.211,0,0,0,.339.973,6.342,6.342,0,0,1,.113,1.684,3.672,3.672,0,0,1-.038.936h0.113v0.337a0.727,0.727,0,0,0,.64.262c0.1-.092.172-0.162,0.263-0.262V12.3h0.414a3.962,3.962,0,0,0,1.392-.224v-0.6l0.15-2.245C18.96,7.588,18.943,5.981,19.981,5a1.121,1.121,0,0,1,.6.6A6.337,6.337,0,0,1,21,7.021a18.294,18.294,0,0,1,.564,5.014,4.8,4.8,0,0,0,1.806.262,0.765,0.765,0,0,0,.263.3h0.414a2.674,2.674,0,0,0,.226-0.262c0.266-.638-0.053-1.493.113-2.245,0.073-.332.145-0.713,0.226-0.973V8.892a2.173,2.173,0,0,0,.226-0.524H24.685a4.742,4.742,0,0,1-2.408-.075,0.107,0.107,0,0,1-.038-0.037,24.275,24.275,0,0,1,2.709-.15A1.217,1.217,0,0,1,25.4,7.432V7.32Z"/>
</svg>
