<svg xmlns="http://www.w3.org/2000/svg" width="40" height="40" viewBox="0 0 40 40">
  <defs>
    <style>
      .cls-1 {
        fill: #fff;
        fill-rule: evenodd;
      }
    </style>
  </defs>
  <path id="Color_Fill_1" data-name="Color Fill 1" class="cls-1" d="M21.921,6.034l0.038,0.575a0.108,0.108,0,0,0-.038.038H21.808a0.582,0.582,0,0,1-.113.306V7.528l-0.188.153V7.107l-0.264-.038a4.876,4.876,0,0,0,.226.881,0.566,0.566,0,0,0-.075.192,3.962,3.962,0,0,0,.226.919h0.113V9.252A0.623,0.623,0,0,1,21.394,9.1v0.23a0.139,0.139,0,0,1,.038.077,3.579,3.579,0,0,1,.452.5H26.93a5.84,5.84,0,0,1,1.092,0c0.976,0.011,2.09.038,3.126,0.038H35.4a7.223,7.223,0,0,1,2.3.153,3.783,3.783,0,0,1,2.147,1.839A2.72,2.72,0,0,1,38.606,15a1.8,1.8,0,0,1-.6,1.992,0.553,0.553,0,0,1-.3.46,3.552,3.552,0,0,1-1.544.919,13.337,13.337,0,0,1-3.691.23H22.75a5.282,5.282,0,0,1-1.394-.038v1.264a2.6,2.6,0,0,0-.038.575c-0.149.692,0.007,1.485-.151,2.222-0.095.441-.011,0.949-0.113,1.417l-0.49,4.252h4.068a2.513,2.513,0,0,0,.6.077,9.254,9.254,0,0,1,1.017.23,4.245,4.245,0,0,1,1.582,1.073,1.116,1.116,0,0,1,.377,1.226,4.07,4.07,0,0,1-2.6,1.954,6.211,6.211,0,0,1-1.544.077H21.356a7.058,7.058,0,0,0-.9-1.532,2.184,2.184,0,0,0-.3.153v0.958c-0.187.318,0.046,0.967-.151,1.264,0-.756-0.072-1.419-0.075-2.222H19.887V31.51a0.869,0.869,0,0,0-.339-0.077l-0.866,1.494H15.066a8.143,8.143,0,0,0-.979-0.192c-0.771-.3-2.176-1.154-2.26-1.954-0.341-.562.65-1.393,0.9-1.571,1.638-1.145,4.007-.93,6.742-0.92a8.013,8.013,0,0,0-.188-1.686c-0.132-.594-0.066-1.214-0.188-1.762-0.109-.489-0.052-1-0.151-1.456V22.814c-0.072-.333.006-0.735-0.075-1.111a16.083,16.083,0,0,1-.151-3.141H18.682a5.774,5.774,0,0,1-1.469.038H7.232a12.878,12.878,0,0,1-3.089-.115,4.365,4.365,0,0,1-1.808-1,0.772,0.772,0,0,1-.264-0.5c-0.679-.423-0.71-1.073-0.64-2.03a2.574,2.574,0,0,1-.716-0.651l0.038-.115A1.862,1.862,0,0,1,.188,13.5c-0.682-1.652,1.093-2.957,2.072-3.371a5.513,5.513,0,0,1,2-.192h3.2c3.762,0,6.971-.04,10.734-0.038a0.711,0.711,0,0,1,.3-0.345,0.321,0.321,0,0,1-.075-0.115,0.224,0.224,0,0,0,.264-0.268H18.644a0.758,0.758,0,0,1-.226.115V9.061c0.3-.114.38-1.333,0.452-1.647H18.606c-0.065.054-.2,0.055-0.264,0.115a3.167,3.167,0,0,1-.264.383V7.72c-0.156-.252.13-0.417,0.188-0.575a1.857,1.857,0,0,0,0-.5H18.117l0.038-.613a3.557,3.557,0,0,0,1.092,0C19.4,5.97,19.554,5.758,19.7,5.69s0.147,0.051.226-.077H19.7a0.135,0.135,0,0,0-.075-0.038,0.668,0.668,0,0,0-.075-0.383,0.516,0.516,0,0,1,.377-0.153,0.884,0.884,0,0,1,.414,0,0.383,0.383,0,0,1,.151.23,0.616,0.616,0,0,0-.038.306,0.4,0.4,0,0,0-.3.115,1.691,1.691,0,0,1,.678.345A3.755,3.755,0,0,0,21.921,6.034ZM19.962,33.809a0.179,0.179,0,0,1,.113.038h0.038V34H19.962V33.809Z"/>
</svg>
