<svg xmlns="http://www.w3.org/2000/svg" width="40" height="40" viewBox="0 0 40 40">
  <defs>
    <style>
      .cls-1 {
        fill: #fff;
        fill-rule: evenodd;
      }
    </style>
  </defs>
  <path id="Color_Fill_1" data-name="Color Fill 1" class="cls-1" d="M21.094,11.633h2.155a1.51,1.51,0,0,0-.1-0.331V10.639a4.272,4.272,0,0,1,.131-1.69,3.238,3.238,0,0,1,.882-0.166V8.75h-0.2v-0.2c-0.721,0-1.254-.095-1.927-0.1V8.386l1.992-.066a1.291,1.291,0,0,1,.49-0.63,0.112,0.112,0,0,1,.065.033,1.049,1.049,0,0,1,.424.4,0.436,0.436,0,0,0,.065.2h0.979c0.257,0.157.8-.058,1.045,0.1-0.675.043-1.266,0.128-1.992,0.133l0.033,0.2H24.914V8.783h0.033a1.953,1.953,0,0,0,.751.033,3.064,3.064,0,0,1,.261,1.955v0.6a0.811,0.811,0,0,0-.1.331h0.065a3.8,3.8,0,0,0,.98.133c0.613,0.145,1.346.154,1.959,0.3L29.616,12.2c0.936,0.222,2,.211,2.939.431l0.522,0.033c0.705,0.167,1.476.123,2.221,0.3,0.46,0.109.972,0.081,1.469,0.2,0.753,0.177,1.655.26,2.416,0.364v0.2h0.1v0.066a0.25,0.25,0,0,0,.033.066,1.093,1.093,0,0,0,.359.1,2.551,2.551,0,0,1,.261.464,1.285,1.285,0,0,1-.131.928c-0.488.945-1.761,0.739-2.873,1.027-0.855.221-1.822,0.31-2.677,0.53L33.5,17c-0.625.162-1.3,0.194-1.959,0.364-1.95.507-4.07,0.7-6.041,1.16H22.433a1.576,1.576,0,0,0-1.306.3,3.289,3.289,0,0,0-.065.961c-0.093.439,0,1.019-.1,1.458v0.7c-0.124.581-.007,1.307-0.131,1.889V24.49l-0.261,5H20.6v0.033a4.625,4.625,0,0,1,1.11.232c0.693,0.191,1.364.2,2.057,0.4a8.921,8.921,0,0,0,1.861.4,0.71,0.71,0,0,1,.065-0.166h0.033v0.033a1.352,1.352,0,0,1,.065.5,10.239,10.239,0,0,1-.065,2.353H25.7V33.2a1.93,1.93,0,0,1-.065-0.7c-0.136-.043-0.184-0.123-0.327-0.166a0.668,0.668,0,0,1-.326.63,4.364,4.364,0,0,1-1.208.232c-0.855.223-1.823,0.308-2.677,0.53a2.474,2.474,0,0,1-.751.1,0.359,0.359,0,0,0-.229-0.066,1.063,1.063,0,0,0-.1.232,0.112,0.112,0,0,1-.065-0.033,1.058,1.058,0,0,1-.1-0.232,3.961,3.961,0,0,1-1.861-.2c-1-.258-2.081-0.335-3.069-0.563a2.334,2.334,0,0,1-.2-0.265l-0.065-.364H14.6a0.4,0.4,0,0,0-.261.4,2.283,2.283,0,0,0-.065.53H14.237v-0.2a2.163,2.163,0,0,1-.033-0.53,5.523,5.523,0,0,1,.033-2.154h0.033v0.033a0.239,0.239,0,0,0,.261.133,4.456,4.456,0,0,1,1.208-.265c0.806-.22,1.708-0.345,2.514-0.563a4.786,4.786,0,0,0,1.11-.232,0.226,0.226,0,0,0,.033-0.133L18.874,18.824a1.953,1.953,0,0,0-.588-0.3h-3.82c-1.97-.464-4.09-0.654-6.041-1.16-0.721-.187-1.465-0.219-2.155-0.4-0.962-.249-1.916-0.242-2.873-0.5-0.977-.26-2.738-0.239-3.2-0.994-0.232-.38-0.311-1.348.163-1.524l0.327-.1a0.269,0.269,0,0,1,0-.133h0.1v-0.2A21.326,21.326,0,0,0,3.2,13.157c0.741-.176,1.514-0.132,2.22-0.3l0.751-.066c0.773-.184,1.676-0.182,2.449-0.364l1.5-.166c1.274-.3,2.691-0.3,3.984-0.563V11.468a2.831,2.831,0,0,1-.131-1.16,2.414,2.414,0,0,1,.294-1.491h0.718V8.783H15.02V8.75h-0.2l0.033-.2a5.741,5.741,0,0,1-1.339-.1,2.056,2.056,0,0,1-.653-0.066c0.67,0,1.312-.064,2.024-0.066a2.012,2.012,0,0,1,.49-0.63,0.111,0.111,0,0,1,.065.033,0.943,0.943,0,0,1,.457.464L15.935,8.32h0.784a5.12,5.12,0,0,0,1.208.066V8.452H17.5a4.677,4.677,0,0,1-1.5.1v0.2H15.771V8.783H15.8a2.471,2.471,0,0,1,.882.166,3.87,3.87,0,0,1,.131,1.69V11.3a1.505,1.505,0,0,0-.1.331h2.155a14.876,14.876,0,0,1,.457-4.341,1.844,1.844,0,0,1,.555-1.226c0.344-.215.425,0.395,0.588,0.5,0-.129-0.016-0.149.065-0.2V6.928a3.677,3.677,0,0,1,.261,1.06A15.98,15.98,0,0,1,21.094,11.633Z"/>
</svg>
