<svg xmlns="http://www.w3.org/2000/svg" width="40" height="40" viewBox="0 0 40 40">
  <defs>
    <style>
      .cls-1 {
        fill: #fff;
        fill-rule: evenodd;
      }
    </style>
  </defs>
  <path id="Color_Fill_1" data-name="Color Fill 1" class="cls-1" d="M21.113,12.167h2.152A9.28,9.28,0,0,1,23.3,9.411a0.685,0.685,0,0,1,.223-0.037,4.261,4.261,0,0,1,.482,0V9.153a8.3,8.3,0,0,1-2-.147c0.66-.025,1.329-0.071,2.041-0.074a0.882,0.882,0,0,1,.594-0.772,0.134,0.134,0,0,0,.074.037l0.371,0.735h1.187a5.032,5.032,0,0,0,.816.074V9.043H26.6a4.923,4.923,0,0,1-1.484.11,0.421,0.421,0,0,1,0,.221h0.668l0.037,0.074c0.3,0.39.05,2.317,0.074,2.793a9.41,9.41,0,0,1,1.559.22c0.565,0.131,1.147.1,1.67,0.221l0.594,0.037c0.879,0.2,1.9.2,2.783,0.4l1.41,0.147c1.691,0.391,3.579.367,5.269,0.735a0.547,0.547,0,0,0,.185.331l0.334,0.11a2.25,2.25,0,0,1,.26.441,1.123,1.123,0,0,1-.074.735c-0.438,1.148-1.976.9-3.228,1.213-1.12.283-2.331,0.332-3.488,0.625-2.475.626-5.154,0.855-7.644,1.433h-3.08a1.753,1.753,0,0,0-1.3.257,2.022,2.022,0,0,0-.074.882,7.016,7.016,0,0,1-.074.992v0.809c-0.14.645-.008,1.45-0.148,2.095v0.735q-0.13,2.462-.26,4.925h0.037v0.037a10.3,10.3,0,0,1,2.115.441l0.742,0.11c0.681,0.19,1.454.321,2.152,0.478a0.782,0.782,0,0,1,.074-0.184h0.037v0.037a2.074,2.074,0,0,1,.074.7,5.3,5.3,0,0,1-.074,1.764,1.275,1.275,0,0,1-.037.331L25.64,32.53c-0.13-.04-0.168-0.1-0.3-0.147V32.42a0.954,0.954,0,0,1-.371.588,6.755,6.755,0,0,1-1.447.257c-0.515.13-1.078,0.155-1.633,0.294a4.729,4.729,0,0,1-1.781.184L20.037,34a0.127,0.127,0,0,1-.074-0.037c-0.081-.117-0.015-0.175-0.186-0.221a2.55,2.55,0,0,1-1.262-.074l-3.562-.662a3.71,3.71,0,0,1-.3-0.625H14.583a0.441,0.441,0,0,0-.223.294c-0.095.158-.006,0.488-0.111,0.625a8.859,8.859,0,0,1,0-2.83h0.037v0.037a0.438,0.438,0,0,0,.148.147,4.51,4.51,0,0,1,1.187-.257l2.523-.551a4.289,4.289,0,0,0,1.224-.257,0.576,0.576,0,0,0,.037-0.294,3.35,3.35,0,0,1-.037-0.772c-0.105-.481.041-1.053-0.074-1.58-0.1-.458.036-1-0.074-1.507-0.248-1.136.024-2.472-.223-3.6-0.055-.251.008-0.6-0.037-0.809a15.425,15.425,0,0,0-.111-1.911,10,10,0,0,0-3.3-.221H14.471c-2.488-.588-5.168-0.809-7.644-1.433-1.032-.26-2.091-0.3-3.08-0.551C2.728,16.651.771,16.7,0.26,15.99a1.218,1.218,0,0,1,.074-1.544c0.072-.053.22-0.058,0.3-0.11a1.108,1.108,0,0,1,.26-0.331,3.529,3.529,0,0,1,1-.147c0.8-.186,1.681-0.136,2.523-0.331,1.061-.245,2.279-0.234,3.34-0.478l0.594-.037c0.8-.185,1.677-0.136,2.523-0.331,0.523-.12,1.1-0.091,1.67-0.221a11.239,11.239,0,0,1,1.558-.22,10.454,10.454,0,0,1,.074-2.83,2.463,2.463,0,0,1,.668-0.037l0.037-.221c-0.729,0-1.263-.105-1.967-0.11V9.006H12.95a1.937,1.937,0,0,1,.668-0.037c0.376-.021.866-0.04,1.3-0.037A1.046,1.046,0,0,1,15.362,8.2a0.252,0.252,0,0,1,.148-0.037c0.058,0.093.166,0.138,0.223,0.221s0.175,0.517.223,0.551H16.92c0.262,0.156.835-.05,1.076,0.11-0.681,0-1.258.106-2,.11a0.618,0.618,0,0,1-.037.221h0.482a1.077,1.077,0,0,1,.223,0L16.7,9.484a1.424,1.424,0,0,1,.074.735,17.12,17.12,0,0,1-.037,1.948h2.152a14.58,14.58,0,0,1,.408-4.19,4.678,4.678,0,0,1,.408-1.1c0.05-.073.217-0.117,0.26-0.184V5h0.074V6.691a1.622,1.622,0,0,1,.594,1.176A15.056,15.056,0,0,1,21.113,12.167Z"/>
</svg>
