<svg width="100" height="100" viewBox="0 0 100 100" xmlns="http://www.w3.org/2000/svg">
<defs>
<style>.cls-1 {
        fill: #fff;
        fill-rule: evenodd;
      }</style>
</defs>
<path class="cls-1" d="M95.01,50H2a2,2,0,0,1-2-2V2A2,2,0,0,1,2,0H95.01a2,2,0,0,1,2,2V48A2,2,0,0,1,95.01,50ZM60,44h7V37H60v7Zm0-9h7V28H60v7Zm0-9h7V19H60v7ZM24,44H58V37H24v7ZM51,28v7h7V28H51Zm7-2V19H51v7h7ZM42,28v7h7V28H42Zm7-2V19H42v7h7ZM33,28v7h7V28H33Zm7-2V19H33v7h7ZM24,35h7V28H24v7Zm0-9h7V19H24v7ZM15,44h7V37H15v7Zm0-9h7V28H15v7ZM13,6H6v7h7V6Zm0,13H6v7h7V19Zm0,9H6v7h7V28Zm0,9H6v7h7V37Zm2-11h7V19H15v7ZM28,6H21v7h7V6Zm9,0H30v7h7V6Zm9,0H39v7h7V6Zm9,0H48v7h7V6Zm9,0H57v7h7V6Zm9,0H66v7h7V6Zm9,0H75v7h7V6Zm0,13H75v7h7V19Zm0,9H75v7h7V28Zm0,9H75v7h7V37ZM91,6H84v7h7V6Zm0,13H84v7h7V19Zm0,9H84v7h7V28Zm0,9H84v7h7V37ZM71.809,55.982l3.175,0,0,11.221a2.49,2.49,0,0,0-1.964,2.485v2.281H62V69.588C62,63.977,66.67,55.986,71.809,55.982Zm6.166,20.961a1.327,1.327,0,0,1-1.323,1.324H76.3a1.32,1.32,0,0,1-1.319-1.324l0-6.838A1.327,1.327,0,0,1,76.3,68.781h0.354A1.327,1.327,0,0,1,77.975,70.1v6.838ZM91.02,69.588v2.385H80.006V69.692a2.546,2.546,0,0,0-2.031-2.485V55.986l3.3,0C86.41,55.986,91.016,63.977,91.02,69.588ZM73.015,77.351a2.435,2.435,0,0,0,2.28,2.518h2.5a2.386,2.386,0,0,0,2.213-2.518V75.028H91.02v7.013c0,11.7-6.679,17.951-12.92,17.951H74.979C68.738,99.993,62,93.746,62,82.041V75.028H73.015v2.323Z"/>
</svg>
