<svg id="ps_l_stick_pressed" xmlns="http://www.w3.org/2000/svg" width="100" height="100" viewBox="0 0 100 100">
  <defs>
    <style>
      .cls-1 {
        fill: #2b2b2c;
      }

      .cls-1, .cls-2 {
        fill-rule: evenodd;
      }

      .cls-2 {
        fill: #e0e0e0;
      }
    </style>
  </defs>
  <path class="cls-1" d="M59.856,4.982H40.144a4,4,0,0,0-3.274,6.3l9.856,14.037a4,4,0,0,0,6.547,0L63.129,11.28a4,4,0,0,0-3.274-6.3h0Z"/>
  <path class="cls-2" d="M59.856,8.982L50,23.018,40.144,8.982H59.856"/>
  <path class="cls-1" d="M71.533,83H27.469a4.5,4.5,0,0,1-4.488-4.5V56H13.344A6.075,6.075,0,0,1,8.65,53.785a6.171,6.171,0,0,1-1.31-5.091l2.491-13.23A6.681,6.681,0,0,1,16.376,30h66.25a6.681,6.681,0,0,1,6.544,5.464l2.491,13.23a6.172,6.172,0,0,1-1.31,5.091A6.074,6.074,0,0,1,85.659,56H76.021V78.5A4.5,4.5,0,0,1,71.533,83Z"/>
  <path class="cls-2" d="M28,78H71V51H85.659a1.1,1.1,0,0,0,.853-0.406,1.166,1.166,0,0,0,.249-0.973l-2.491-13.23A1.687,1.687,0,0,0,82.626,35H16.376a1.687,1.687,0,0,0-1.643,1.391L12.242,49.621a1.166,1.166,0,0,0,.248.973,1.1,1.1,0,0,0,.853.406H28V78Z"/>
  <path id="L3" class="cls-1" d="M47.267,65.667H39.016V51.746a0.74,0.74,0,0,0-.73-0.733H34.741a0.74,0.74,0,0,0-.73.733V69.276a0.74,0.74,0,0,0,.73.733H47.267A0.74,0.74,0,0,0,48,69.276V66.4a0.74,0.74,0,0,0-.73-0.733h0ZM64.349,51.013H51.535a0.731,0.731,0,0,0-.724.721v2.833a0.731,0.731,0,0,0,.724.722h7L55.69,58.148a3.543,3.543,0,0,0-.416.481,0.828,0.828,0,0,0-.147.481v2.3a0.731,0.731,0,0,0,.724.721h2.225a4.437,4.437,0,0,1,2.158.454,1.5,1.5,0,0,1,0,2.672,4.433,4.433,0,0,1-2.158.454,4.31,4.31,0,0,1-1.675-.254,4.21,4.21,0,0,1-1.112-.735,3.323,3.323,0,0,0-.617-0.468,1.449,1.449,0,0,0-.7-0.147H50.6a0.594,0.594,0,0,0-.59.588,4.369,4.369,0,0,0,1.019,2.579,6.712,6.712,0,0,0,2.788,1.964,11.176,11.176,0,0,0,4.262.748,9.637,9.637,0,0,0,5.857-1.55,5.286,5.286,0,0,0,2.078-4.516,4.587,4.587,0,0,0-1.26-3.314,6.95,6.95,0,0,0-3.458-1.844l3.244-3.26a1.465,1.465,0,0,0,.536-0.935V51.734a0.731,0.731,0,0,0-.724-0.721h0Z"/>
</svg>
