<svg id="ps_r_shoulder" xmlns="http://www.w3.org/2000/svg" width="100" height="100" viewBox="0 0 100 100">
  <defs>
    <style>
      .cls-1 {
        fill: #e0e0e0;
        stroke: #2b2b2c;
        stroke-width: 4px;
      }

      .cls-1, .cls-2 {
        fill-rule: evenodd;
      }

      .cls-2 {
        fill: #2b2b2c;
      }
    </style>
  </defs>
  <path class="cls-1" d="M14,27H86a5,5,0,0,1,5,5V68a5,5,0,0,1-5,5H14a5,5,0,0,1-5-5V32A5,5,0,0,1,14,27Z"/>
  <path id="R1" class="cls-2" d="M40.386,35.989H31a0.939,0.939,0,0,0-.708.318,1.065,1.065,0,0,0-.3.755V62.939a1.063,1.063,0,0,0,.3.755,0.937,0.937,0,0,0,.708.318h4a0.939,0.939,0,0,0,.708-0.318,1.065,1.065,0,0,0,.3-0.755V53.991h4.311l4.137,8.948a2.356,2.356,0,0,0,.559.774,1.476,1.476,0,0,0,1.006.3h4.16a0.765,0.765,0,0,0,.578-0.258A0.869,0.869,0,0,0,51,63.138a1.041,1.041,0,0,0-.112-0.437L46.262,52.672c2.956-1.456,4.634-4.1,4.634-7.942,0-3.018-.919-5.351-2.758-6.874s-4.423-1.867-7.752-1.867h0ZM36,48.013V40.991H41.1a3.512,3.512,0,1,1,0,7.021H36Zm20.029-3.019,2,2.87a1,1,0,0,0,.844.44,1.125,1.125,0,0,0,.683-0.24l4.427-3.6V62.931a1.032,1.032,0,0,0,.322.76,1.044,1.044,0,0,0,.764.32h3.837a1.046,1.046,0,0,0,.764-0.32,1.034,1.034,0,0,0,.322-0.76V37.079a1.036,1.036,0,0,0-.322-0.76A1.048,1.048,0,0,0,68.909,36H65.791a1.784,1.784,0,0,0-.724.16,4.123,4.123,0,0,0-.7.4,4.224,4.224,0,0,0-.422.32l-7.67,6.6a1.026,1.026,0,0,0-.442.879,0.961,0.961,0,0,0,.2.639h0Z"/>
</svg>
