<svg xmlns="http://www.w3.org/2000/svg" width="40" height="40" viewBox="0 0 40 40">
  <defs>
    <style>
      .cls-1 {
        fill: #fff;
        fill-rule: evenodd;
      }
    </style>
  </defs>
  <path id="Color_Fill_1" data-name="Color Fill 1" class="cls-1" d="M19.841,2H20.2V2.138a1.667,1.667,0,0,1,1.09,1.427A11.229,11.229,0,0,1,23.7,3.7c0.471,0.1,1.081-.037,1.5.046V3.8H24.972a2.7,2.7,0,0,1-.772.092,7.21,7.21,0,0,1-2.77.138V4.118a0.184,0.184,0,0,1,0,.23C21.5,4.439,21.5,4.6,21.566,4.716h0.091l-0.045.691a3.073,3.073,0,0,0,.363.6,8.6,8.6,0,0,1,0,1.381,9.291,9.291,0,0,1,.091,1.887q0.023,0.437.045,0.875a1.922,1.922,0,0,0-.136.644h0.091a4.574,4.574,0,0,0,1.226.184c0.805,0.194,1.689.163,2.543,0.368,0.609,0.147,1.3.118,1.952,0.276,2.413,0.582,5.077.529,7.492,1.1,1.243,0.3,4.144.093,4.132,1.519h0.272l0.045,0.138a2.4,2.4,0,0,1,.182,1.749,2.938,2.938,0,0,1-2.043,2.21c-0.82.29-1.986,0.19-2.906,0.414h-0.5c-1.494.356-3.23,0.141-4.722,0.506-0.474.116-.983,0.034-1.408,0.138-0.637.156-1.317,0.039-1.907,0.184-0.94.232-2,.1-2.906,0.322a3.748,3.748,0,0,0-1.135.184c-0.914.624-.349,2.2-0.636,3.453-0.218.95-.051,2.107-0.272,3.038l-0.045,1.1-0.5,4.281a7.456,7.456,0,0,1,1.5.276c0.716,0.193,1.47.19,2.134,0.368a6.538,6.538,0,0,1,1.725.322,1.835,1.835,0,0,1,.636,1.013,2.111,2.111,0,0,1,0,.645,2.828,2.828,0,0,1-.318,1.013c-0.564.791-1.734,0.529-2.86,0.783a6.771,6.771,0,0,1-2.361.184c-0.281-.468-0.612-0.93-0.863-1.427H20.477C20.423,36.116,20.1,37,20.068,38H19.977V37.678c-0.315-.519-0.119-2.059-0.454-2.532v0.046c-0.389.4-.576,1.02-0.953,1.427a14.251,14.251,0,0,1-3.087-.322,8.892,8.892,0,0,1-1.5-.23,1.5,1.5,0,0,1-.545-0.552,1.8,1.8,0,0,1-.363-1.243,2.154,2.154,0,0,1,.681-1.335,6.345,6.345,0,0,1,1.725-.322c0.666-.17,1.415-0.185,2.134-0.368a8.641,8.641,0,0,1,1.5-.276L18.57,27.136l-0.318-4.327V21.98c-0.206-.929.034-1.633-0.772-1.98l-0.545-.046c-0.783-.181-1.666-0.083-2.5-0.276-1.727-.4-3.816-0.169-5.539-0.6-0.48-.12-0.981-0.032-1.407-0.138-0.639-.159-1.32-0.038-1.907-0.184h-0.5c-1.014-.236-2.3-0.083-3.178-0.46a2.548,2.548,0,0,1-1.09-.967,0.247,0.247,0,0,1-.182-0.046,2.627,2.627,0,0,1-.59-1.98c0.08-.351.2-0.692,0.272-1.013a0.961,0.961,0,0,1,.318-0.046V13.831a4.566,4.566,0,0,1,1-.645l3.768-.6a13.8,13.8,0,0,0,2.316-.322,6.3,6.3,0,0,0,.045-1.611c0.144-.241-0.056-0.819.091-1.059L7.9,12.266l9.716-1.381a0.775,0.775,0,0,0-.182-0.322,2.407,2.407,0,0,1-.182-1.1,2.213,2.213,0,0,1,.636-0.046q0.023-1.45.045-2.9c0.007-.021.175-0.589,0.182-0.6l0.136-.046a1.268,1.268,0,0,0,.182-0.46l-0.045-.691a0.676,0.676,0,0,0,.136-0.092c0.07-.192.035-0.4,0.091-0.552H17.753c-0.5-.3-2.417-0.019-2.815-0.368a24.235,24.235,0,0,0,2.5-.138,7.851,7.851,0,0,0,1.271,0c0.372-.51.377-1.316,1.135-1.427V2Z"/>
</svg>
