<svg xmlns="http://www.w3.org/2000/svg" width="40" height="40" viewBox="0 0 40 40">
  <defs>
    <style>
      .cls-1 {
        fill: #fff;
        fill-rule: evenodd;
      }
    </style>
  </defs>
  <path id="Color_Fill_1" data-name="Color Fill 1" class="cls-1" d="M22.152,11.64a18.037,18.037,0,0,0,.13,3.215h0.065c0.054-.209-0.032-0.1.131-0.193-0.032.257,0.031-.006,0.065,0.257l-0.131-.064V14.92a4.114,4.114,0,0,1,.457.772l1.37,1.929q2.046,2.877,4.109,5.788c0.71,1,1.428,2,2.152,3.023a6.263,6.263,0,0,1,1.044,1.479h0.065V23.859c0.14-.228-0.012-0.8.13-1.029v5.338a3.541,3.541,0,0,1,.2,1.8,10.846,10.846,0,0,1-.2,2.251v-0.45a0.318,0.318,0,0,1-.2-0.064c-0.711-.248-1.83-1.7-2.478-2.186-0.926-.691-1.688-1.5-2.609-2.187l-0.522-.579A20.4,20.4,0,0,1,23.326,24.5H22.087l-0.131,2.765v2.379a5.6,5.6,0,0,0-.065,1.994,5.416,5.416,0,0,0,.717,1.029c0.646,1.01,1.179,2.011,1.826,3.023A8.054,8.054,0,0,1,25.478,37.3h0.065V36.077h0.065V36.013h0.065v0.322a2.587,2.587,0,0,1,.065,1.029,9.109,9.109,0,0,1-.2,2.637H25.413a5.459,5.459,0,0,0-1.3-1.158c-0.426-.317-0.748-0.84-1.174-1.157a13.952,13.952,0,0,1-1.761-1.479c-1.39.036-1.114,2.118-.913,3.28H20.2V39.55a1.184,1.184,0,0,1-.326-0.064,0.249,0.249,0,0,1-.13-0.193c0.619-.477-0.006-2.71-0.391-2.958-0.568-.423-1.138.422-1.435,0.707a24.758,24.758,0,0,1-2.348,1.994A4.855,4.855,0,0,1,14.457,40V39.871a12.609,12.609,0,0,1-.065-3.858h0.065v0.514a0.961,0.961,0,0,1,0,.707h0.13A6.2,6.2,0,0,1,15.5,35.82c0.649-1.01,1.179-2.011,1.826-3.022a6.931,6.931,0,0,0,.783-1.093q-0.065-3.6-.13-7.2h-1.3a12.294,12.294,0,0,1-2.152,1.865L14,26.945c-1.13.842-2.059,1.854-3.2,2.7C10.065,30.2,9.129,31.6,8.2,31.833V31.125a5.459,5.459,0,0,1-.13-1.672c-0.261-1.39,1.335-2.86,1.956-3.73,1.757-2.459,3.4-4.932,5.152-7.4,0.641-.9,1.382-1.8,2.022-2.7,0.145-.2.16-0.511,0.326-0.707a1.223,1.223,0,0,0,.261-0.129V12.669a2.3,2.3,0,0,0,.065-0.965h0.065V11.64a0.913,0.913,0,0,0,.717-0.129c0.55-.843.065-2.52,0.326-3.666,0.137-.6.063-1.588,0.2-2.058,0.261-.927.552-2.057,0.783-2.958,0.222-.864-0.3-2.173.13-2.83a19.519,19.519,0,0,0,.783,5.788q0.033,0.579.065,1.158c0.314,1.375.166,3.333,0.457,4.63A2.717,2.717,0,0,0,22.152,11.64Zm-4.631,3.022c0.166,0.094.074-.014,0.131,0.193H17.522V14.662Z" transform="translate(-0.016)"/>
</svg>
