<svg xmlns="http://www.w3.org/2000/svg" width="39.969" height="40" viewBox="0 0 39.969 40">
  <defs>
    <style>
      .cls-1 {
        fill: #fff;
        fill-rule: evenodd;
      }
    </style>
  </defs>
  <path id="Color_Fill_1" data-name="Color Fill 1" class="cls-1" d="M20.046,5.164L20.275,5.21a5.273,5.273,0,0,1,.413.605,16.635,16.635,0,0,1,.55,2.7,30.129,30.129,0,0,1,.5,5.911l1.468,0.233a5.908,5.908,0,0,0,.046-1.536,5.1,5.1,0,0,0,.138-1.024c0.091-.306.369-0.4,0.459-0.7H23.807a4.955,4.955,0,0,1-1.789-.093l1.835-.093a0.75,0.75,0,0,1,.367-0.7c0.044-.012.017-0.037,0.046,0a1.874,1.874,0,0,1,.367.745,8.537,8.537,0,0,1,1.651.093l-1.651.046v0.186c0.854,0.323.344,2.587,0.734,3.444l7.752,1.49a1.479,1.479,0,0,1,.55-1.257,0.236,0.236,0,0,1,.229,0,5.082,5.082,0,0,1,.413.977c0.065,0.27-.092.405,0.138,0.512l4.4,0.884V16.987h0.138v0.652a1.227,1.227,0,0,1,.872.465c0.406,0.491-.233,2.046-0.6,2.188a6.825,6.825,0,0,1-2.064.093H31.514a1.834,1.834,0,0,0-.046-0.745v0.745H21.56v0.093l-0.275,2.514c-0.149.662-.071,1.412-0.229,2.141a24,24,0,0,0-.321,4.375,18.629,18.629,0,0,1,3.028.512,4.42,4.42,0,0,1,1.376.233A7.067,7.067,0,0,1,25.092,33a1.827,1.827,0,0,0-.183-1.071V31.881H24.862a1.827,1.827,0,0,1-.321.745H23.486c-0.944,0-1.972.007-2.844-.047a1.548,1.548,0,0,1-.229,1.117,0.883,0.883,0,0,0-.275.093V35H20.092V33.836H19.908A3.134,3.134,0,0,1,19.862,35V33.79a0.962,0.962,0,0,1-.5-1.164H15.413a1.878,1.878,0,0,0-.367-0.745,0.165,0.165,0,0,1-.092.047,2.237,2.237,0,0,1-.138,1.024V32.905a7.373,7.373,0,0,1,0-2.7l4.45-.7a0.227,0.227,0,0,0-.046-0.14c-0.128.1-.249-0.062-0.275-0.233a0.526,0.526,0,0,1,.321-0.186l-0.184-2.886c-0.161-.74-0.057-1.59-0.229-2.374a16.824,16.824,0,0,1-.367-3.3H15.78a0.993,0.993,0,0,0-.046-0.465v0.465H2.156a5.021,5.021,0,0,1-1.514-.093,2.519,2.519,0,0,1-.5-2.281c0.14-.069.245-0.224,0.367-0.279a2.548,2.548,0,0,0,.413-0.093,2.8,2.8,0,0,0,.092-0.652H1.1v0.652H1.147a5.484,5.484,0,0,1,1.468-.279,19.579,19.579,0,0,1,3.073-.605,1.674,1.674,0,0,1,.5-1.489c0.536-.252.534,1.082,0.78,1.257a12.38,12.38,0,0,1,2.2-.419c1.011-.275,2.1-0.329,3.165-0.605a11.5,11.5,0,0,1,2.156-.419,0.838,0.838,0,0,0,.229-0.279,7.065,7.065,0,0,0,.046-1.583l0.184-1.257a6.036,6.036,0,0,0,.413-0.559H15.321a4.955,4.955,0,0,1-1.789-.093l1.835-.093a3.8,3.8,0,0,1,.138-0.559,0.488,0.488,0,0,1,.321-0.14,1.221,1.221,0,0,1,.275.7,7.608,7.608,0,0,1,1.651.14l-1.606.046a4.977,4.977,0,0,0,.413.7,9.443,9.443,0,0,1,.183,2.467,1.671,1.671,0,0,0,.5.046,2.462,2.462,0,0,1,1.055-.186,22.7,22.7,0,0,1,.367-5.074l0.046-.838c0.1-.421.166-1,0.275-1.4,0.186-.677.216-1.688,0.826-1.908a0.232,0.232,0,0,1,.138-0.047A3.133,3.133,0,0,1,20,4Zm-0.5,26.392v0.093h0.046A0.16,0.16,0,0,0,19.541,31.556Z" transform="translate(-0.031 0.5)"/>
</svg>
