<svg width="24" height="24" viewBox="0 0 24 24" fill="none" xmlns="http://www.w3.org/2000/svg">
<path fill-rule="evenodd" clip-rule="evenodd" d="M16.5518 8.01172C19.36 8.1328 21.9302 9.15321 23.9658 10.7842C24.0266 10.8317 23.9877 10.9732 23.9854 10.9814L16.0049 22L8.03127 10.9492C7.99427 10.9064 7.99096 10.8412 8.01663 10.792L8.05178 10.75C10.2177 9.03113 12.979 8.00005 15.9873 8L16.5518 8.01172ZM15.9873 10C14.0882 10 12.3111 10.4852 10.7744 11.332L16.0078 18.5859L21.2442 11.3564C19.6978 10.4946 17.9044 10 15.9873 10Z" fill="white"/>
<path d="M8.55178 3.01172C11.36 3.1328 13.9302 4.15324 15.9658 5.78418C16.0266 5.83167 15.9877 5.97323 15.9854 5.98145L15.9717 6C14.99 6.00086 14.0305 6.09875 13.1006 6.2793C11.5871 5.46584 9.84554 5.00001 7.98733 5C6.08826 5.00006 4.31109 5.48523 2.77444 6.33203L8.00784 13.5859L8.01077 13.5811L9.22463 15.3154L8.00491 17L0.0312749 5.94922C-0.00566541 5.90639 -0.00900437 5.84121 0.0166265 5.79199L0.0517827 5.75C2.21766 4.03115 4.97908 3.00008 7.98733 3L8.55178 3.01172Z" fill="white"/>
</svg>
