<svg width="24" height="24" viewBox="0 0 24 24" fill="none" xmlns="http://www.w3.org/2000/svg">
<g clip-path="url(#clip0_2023_4578)">
<path d="M16.4951 10.2148C16.4951 9.39058 16.333 8.57402 16.0176 7.8125C15.7021 7.05094 15.2391 6.35926 14.6562 5.77637C14.0734 5.1935 13.3817 4.73052 12.6201 4.41504C11.8585 4.09955 11.0412 3.9375 10.2168 3.9375C9.39253 3.93756 8.57597 4.09961 7.81445 4.41504C7.05288 4.73053 6.36121 5.19347 5.77832 5.77637C5.19543 6.35926 4.73248 7.05093 4.41699 7.8125C4.10156 8.57402 3.93951 9.39058 3.93945 10.2148C3.93945 11.0393 4.1015 11.8565 4.41699 12.6182C4.73248 13.3797 5.19545 14.0714 5.77832 14.6543C6.36121 15.2372 7.05289 15.7001 7.81445 16.0156C8.57597 16.3311 9.39253 16.4931 10.2168 16.4932C11.0412 16.4932 11.8585 16.3311 12.6201 16.0156C13.3817 15.7001 14.0734 15.2372 14.6562 14.6543C15.2391 14.0714 15.7021 13.3797 16.0176 12.6182C16.3331 11.8565 16.4951 11.0393 16.4951 10.2148ZM19.4951 10.2148C19.4951 11.4331 19.2553 12.64 18.7891 13.7656C18.5156 14.4259 18.165 15.0493 17.75 15.627L23.5 21.377L21.3789 23.498L15.6289 17.748C15.0512 18.1631 14.4278 18.5136 13.7676 18.7871C12.642 19.2533 11.4351 19.4932 10.2168 19.4932C8.99867 19.4931 7.79241 19.2532 6.66699 18.7871C5.54138 18.3209 4.51874 17.6369 3.65723 16.7754C2.79571 15.9139 2.11176 14.8913 1.64551 13.7656C1.1793 12.64 0.939453 11.4332 0.939453 10.2148C0.93951 8.9967 1.17938 7.79047 1.64551 6.66504C2.11176 5.53941 2.7957 4.5168 3.65723 3.65527C4.51875 2.79375 5.54136 2.10981 6.66699 1.64355C7.79242 1.17742 8.99866 0.937557 10.2168 0.9375C11.4351 0.9375 12.642 1.17734 13.7676 1.64355C14.8932 2.10981 15.9158 2.79375 16.7773 3.65527C17.6388 4.51678 18.3228 5.53943 18.7891 6.66504C19.2552 7.79046 19.4951 8.99672 19.4951 10.2148Z" fill="white"/>
</g>
<defs>
<clipPath id="clip0_2023_4578">
<rect width="24" height="24" fill="white"/>
</clipPath>
</defs>
</svg>
