<svg xmlns="http://www.w3.org/2000/svg" width="40" height="40" viewBox="0 0 40 40">
  <defs>
    <style>
      .cls-1 {
        fill: #fff;
        fill-rule: evenodd;
      }
    </style>
  </defs>
  <path id="Color_Fill_1" data-name="Color Fill 1" class="cls-1" d="M32.935,32.831h-0.26a1.97,1.97,0,0,1-.292-0.622,2.767,2.767,0,0,0-.032-0.622,2.5,2.5,0,0,0,0,.687H32.057a2.8,2.8,0,0,1-.715.065c-0.583.129-1.236,0.027-1.853,0.164l-6.4.589v0.458a2.121,2.121,0,0,0-.032.491,13.607,13.607,0,0,0-.163,1.735l-0.13.033V35.123a0.118,0.118,0,0,0,.033-0.065h-0.13a0.35,0.35,0,0,0-.2-0.033,0.56,0.56,0,0,0-.065.262L22.34,36.4a16.885,16.885,0,0,1-1.95.033V36.5a1.235,1.235,0,0,1-.1.818V39.8l-0.26.2H20V39.967a0.77,0.77,0,0,1-.26-0.131v-1.8a1.338,1.338,0,0,1,0-.753,0.527,0.527,0,0,1-.162-0.556,0.31,0.31,0,0,1,.032-0.295H18.765A4.961,4.961,0,0,1,17.66,36.4V36.334a4.315,4.315,0,0,1-.1-1.244,0.55,0.55,0,0,0-.26-0.066,0.165,0.165,0,0,1-.1.033V35.81H17.14a0.294,0.294,0,0,1-.065-0.229,2.1,2.1,0,0,1-.065-0.589,9.9,9.9,0,0,1-.13-1.964H16.848a0.691,0.691,0,0,1-.422.033c-0.573-.131-1.252-0.027-1.853-0.164-0.69-.157-1.522-0.07-2.21-0.229h-0.39c-0.575-.13-1.248-0.028-1.853-0.164-0.336-.075-0.732-0.014-1.1-0.1a7.039,7.039,0,0,0-1.365-.131,1.633,1.633,0,0,0-.065-0.687c0.023,0.585.03,1.256-.553,1.244L7,26.088a4.2,4.2,0,0,0,.065-0.851H7.1V25.3c0.671,0.527.43,1.858,0.422,2.913H7.553V28.183H7.585a7.005,7.005,0,0,1,1.3-1.735,3.346,3.346,0,0,0,.422-0.425V23.732a1.84,1.84,0,0,0,.1-0.458H9.47v0.033a8.227,8.227,0,0,1,.1,2.357H9.6c0.392-.618.989-1.113,1.43-1.7a1.45,1.45,0,0,0,.65-0.982,1.684,1.684,0,0,0,.033-0.622,6.247,6.247,0,0,1,.1-1.277h0.065v0.066a4.3,4.3,0,0,1,.1,1.735h0.033c0.2-.324.524-0.553,0.747-0.851,0.532-.71,1.156-1.322,1.69-2.029a5.805,5.805,0,0,0,.65-0.393,2.329,2.329,0,0,0,.065-0.425l0.1-.033v0.033a0.571,0.571,0,0,0,.162.2,0.552,0.552,0,0,0,.2-0.458,0.289,0.289,0,0,1,0-.262c0.062-.1.235-0.19,0.292-0.295l0.228-1.113H16.1a1.627,1.627,0,0,1-.455.1c-0.472.133-1.058,0.187-1.527,0.36V17.578c0.155-.26-0.047-0.987.1-1.277a4.975,4.975,0,0,1,.553-0.655c0.453-.608.945-1.159,1.4-1.768a6.607,6.607,0,0,0,.683-0.818,0.118,0.118,0,0,1,.032.065c0.088,0.144.037,0.419,0.13,0.556l-0.1-.72c0.655-.533.682-1.723,0.975-2.619,0.343-1.048.55-2.1,0.813-3.208,0.063-.263.047-0.524,0.1-0.753l-0.032-.327c0.223-1.17.345-2.473,0.65-3.568C19.6,1.814,19.67,1.138,19.87.524A2.052,2.052,0,0,1,20,0a6.268,6.268,0,0,0,.293,1.146c0.182,0.643.256,1.308,0.422,1.931l0.39,2.39h0.032V5.2a15.012,15.012,0,0,0,.1-2,0.457,0.457,0,0,1,.13-0.033,0.093,0.093,0,0,0,.033.033,3.694,3.694,0,0,1,.065,1.211,7.507,7.507,0,0,0-.292,1.9C21.238,6.629,21.206,7,21.3,7.332c0.292,1.031.489,2.136,0.845,3.208,0.164,0.493.242,1,.39,1.473l0.1,0.458a3.531,3.531,0,0,0,.552.458c0.1,0.133.1,0.352,0.2,0.491,0.082,0.118.239,0.212,0.325,0.327,0.361,0.485.747,0.922,1.105,1.408a6.04,6.04,0,0,1,.975,1.211,4.95,4.95,0,0,1,.065,1.342H25.818l-1.982-.458v0.033c0.186,0.29.064,0.759,0.227,1.08l0.2,0.164c0.143,0.191.5,0.519,0.585,0.687a1,1,0,0,0,.065.491c0.124,0.082.282,0.026,0.422,0.1a1.905,1.905,0,0,1,.423.524c0.184,0.246.466,0.442,0.65,0.687,0.322,0.429.724,0.79,1.04,1.211a2.817,2.817,0,0,0,.553.655V21.473a2.467,2.467,0,0,0,.1-0.393h0.065v0.066c0.3,0.409-.109,1.666.163,2.095a3.192,3.192,0,0,0,.617.72c0.331,0.441.747,0.811,1.073,1.244a1.817,1.817,0,0,0,.39.458V23.6a2.205,2.205,0,0,0,.1-0.327H30.53v0.033a0.975,0.975,0,0,1,.1.491,11.717,11.717,0,0,1,.032,2.226,6.592,6.592,0,0,1,1.04,1.211,9.34,9.34,0,0,1,.65.687,0.611,0.611,0,0,0,.065.262v0.033h0.032V27.889a2.039,2.039,0,0,1-.032-0.524,3.112,3.112,0,0,1,.1-1.538,6.52,6.52,0,0,0,.357-0.589H32.9v0.589a7.292,7.292,0,0,1,.065,1.964Q32.951,30.311,32.935,32.831ZM17.01,13.715a0.276,0.276,0,0,0,.032.164A0.276,0.276,0,0,0,17.01,13.715ZM7.455,30.409a0.275,0.275,0,0,0,.032.164A0.275,0.275,0,0,0,7.455,30.409ZM32.48,30.442a0.212,0.212,0,0,0,.033.131A0.213,0.213,0,0,0,32.48,30.442Zm-15.795.033a0.511,0.511,0,0,0,.033.262A0.511,0.511,0,0,0,16.685,30.475Zm6.565,0a0.6,0.6,0,0,0,.032.295A0.6,0.6,0,0,0,23.25,30.475ZM7.488,30.7a0.347,0.347,0,0,0,.032.2A0.347,0.347,0,0,0,7.488,30.7Zm24.96,0.033a0.276,0.276,0,0,0,.032.164A0.276,0.276,0,0,0,32.447,30.737Zm-15.73.164a0.788,0.788,0,0,0,.032.36A0.788,0.788,0,0,0,16.718,30.9Zm6.5,0.065a0.693,0.693,0,0,0,.032.327A0.692,0.692,0,0,0,23.218,30.966ZM7.52,31a0.426,0.426,0,0,0,.033.229A0.426,0.426,0,0,0,7.52,31Zm24.9,0a0.426,0.426,0,0,0,.032.229A0.427,0.427,0,0,0,32.415,31Zm-24.862.295a0.511,0.511,0,0,0,.032.262A0.511,0.511,0,0,0,7.553,31.293Zm24.83,0a0.51,0.51,0,0,0,.032.262A0.51,0.51,0,0,0,32.383,31.293Zm-15.632.131a0.885,0.885,0,0,0,.032.393A0.885,0.885,0,0,0,16.75,31.424Zm6.435,0.066a0.788,0.788,0,0,0,.033.36A0.787,0.787,0,0,0,23.185,31.489Zm-6.4.458a0.885,0.885,0,0,0,.033.393A0.885,0.885,0,0,0,16.783,31.948Zm6.37,0.066a0.788,0.788,0,0,0,.032.36A0.788,0.788,0,0,0,23.153,32.013Zm-6.337.458a0.982,0.982,0,0,0,.032.425A0.982,0.982,0,0,0,16.815,32.471Zm6.305,0.065a0.885,0.885,0,0,0,.032.393A0.885,0.885,0,0,0,23.12,32.537Z" transform="translate(-0.016)"/>
</svg>
