<svg xmlns="http://www.w3.org/2000/svg" width="40" height="40" viewBox="0 0 40 40">
  <defs>
    <style>
      .cls-1 {
        fill: #fff;
        fill-rule: evenodd;
      }
    </style>
  </defs>
  <path id="Color_Fill_1" data-name="Color Fill 1" class="cls-1" d="M20.742,6.415l-0.037.372H20.557V6.824a0.323,0.323,0,0,1,.037.186H20.408V7.085H21.93V7.122c0.824,0.29.423,2.482,0.594,3.239v0.745H22.375v0.037a0.135,0.135,0,0,1,.037.074l12.059,0.707V10.1h0.074v0.41a5.642,5.642,0,0,1,.037,1.415l2.672,0.186a4.694,4.694,0,0,0,1.3.149,0.181,0.181,0,0,0,.037.112,1.843,1.843,0,0,0,.3.112,2.2,2.2,0,0,1,.853.67c0.822,1.264-.7,2.49-1.41,2.978a20.248,20.248,0,0,1-7.569,2.829V18.178H30.724V18.141H30.687V18.96H30.612a6.552,6.552,0,0,1-1.6.223c-0.983.218-2.175,0.039-3.191,0.261-0.23.05-.558,0-0.742,0.037-0.529.115-1.073-.066-1.559,0.074a2.235,2.235,0,0,0-1.373,1.154,8.72,8.72,0,0,0-.111,1.3l-0.408,3.5a6.617,6.617,0,0,0-.26,2.494,5.049,5.049,0,0,1,.816.41c0.854,0.377,1.66.827,2.486,1.191a4.256,4.256,0,0,1,1.41.745,1.54,1.54,0,0,1,.223,1.191,1.764,1.764,0,0,1-.742.782,10.374,10.374,0,0,1-2.449,1.3,2.085,2.085,0,0,1-1.41.149,2.258,2.258,0,0,1-.891-1.34,0.647,0.647,0,0,0-.557.112,2.958,2.958,0,0,0-.3,1.452H19.889V33.293a2.907,2.907,0,0,0-.223-0.819,1.581,1.581,0,0,0-.482-0.037l-0.111.3a1.734,1.734,0,0,1-1.039,1.117,2.236,2.236,0,0,1-1.262-.3c-1.16-.452-2.73-1.06-3.117-2.159a1.138,1.138,0,0,1,.037-0.521,1.377,1.377,0,0,1,.928-0.931c0.952-.5,1.978-0.957,2.931-1.452a2.6,2.6,0,0,0,1.076-.558,1.251,1.251,0,0,0,.037-0.819c-0.194-.755-0.223-1.691-0.408-2.494-0.226-.978-0.119-2.016-0.334-2.978a3.406,3.406,0,0,0-.223-1.191,2.344,2.344,0,0,0-1.224-.893l-1.67-.112H14.174c-0.567-.125-1.262.019-1.855-0.112-0.412-.091-0.888-0.012-1.336-0.112-0.541-.12-1.144-0.155-1.67-0.261V18.141H9.276v0.037a2.037,2.037,0,0,0-.037.782H9.165a3.134,3.134,0,0,0-.779-0.149C7.7,18.623,6.96,18.519,6.271,18.29a17.289,17.289,0,0,1-4.75-2.271c-0.551-.4-1.789-1.358-1.447-2.457a1.8,1.8,0,0,1,.742-0.931,1.268,1.268,0,0,0,.668-0.41,2.882,2.882,0,0,0,1.262-.112l2.672-.186L5.455,10.1H5.529v1.824l9.388-.558c0.625-.136,1.369.018,1.967-0.112a1.044,1.044,0,0,0,.705-0.112,0.1,0.1,0,0,0,.037-0.037H17.477a14.45,14.45,0,0,1,.074-2.42,5.908,5.908,0,0,1,.111-1.154,1.778,1.778,0,0,1,.408-0.447h1.3V7.01a1.831,1.831,0,0,1-.111-0.6,23.462,23.462,0,0,1-4.564-.149V6.154l0.111-.037a4.549,4.549,0,0,1,1.373-.149,14.946,14.946,0,0,1,3.154-.037A1.294,1.294,0,0,1,20.037,5c0.127,0.192.356,0.317,0.482,0.521l0.148,0.409h0.408a4.2,4.2,0,0,1,1.15-.074,11.789,11.789,0,0,1,3.08.261l-0.037.074a4.971,4.971,0,0,1-.853.149A18.238,18.238,0,0,1,20.742,6.415Z"/>
</svg>
