<svg xmlns="http://www.w3.org/2000/svg" width="40" height="40" viewBox="0 0 40 40">
  <defs>
    <style>
      .cls-1 {
        fill: #fff;
        fill-rule: evenodd;
      }
    </style>
  </defs>
  <path id="Color_Fill_1" data-name="Color Fill 1" class="cls-1" d="M21.051,5.694a3.314,3.314,0,0,0,.147.484c0.057,0.347.311,0.694,0.367,1.04a2.653,2.653,0,0,1,.269.073,1.654,1.654,0,0,1,.171,1.089,8.525,8.525,0,0,0,0,1.065v2.3H21.835v0.048a0.334,0.334,0,0,0,.147.121,2.177,2.177,0,0,0,.806.1c0.714,0.153,1.483-.022,2.152.121h0.44l9.1,0.532q0.012-.907.025-1.814h0.049v0.339a1.479,1.479,0,0,1,.024.411v1.064a9.069,9.069,0,0,1,1.589.121h0.367L37.7,12.9c0.224,0.052.47,0.114,0.709,0.145v-0.1a0.26,0.26,0,0,1,.122-0.048v0.024h0.024a0.31,0.31,0,0,0,.024.169,4.164,4.164,0,0,0,.562.242,1.909,1.909,0,0,1,.709.726c0.536,1.046-.641,2.112-1.2,2.516-0.255.185-.51,0.41-0.782,0.581A18.566,18.566,0,0,1,33.839,18.9c-1,.329-2.2.451-3.178,0.726-0.666.186-1.413,0.105-2.1,0.266-0.313.073-.643,0.006-0.929,0.073l-0.807.024c-0.756.167-1.574-.029-2.323,0.145-0.317.074-.666-0.018-0.954,0.048h-0.44a3.288,3.288,0,0,0-1.2.29,1.98,1.98,0,0,0-.514.992q-0.012.593-.024,1.186l-0.122,2.492c-0.076.34-.008,0.72-0.073,1.089a8.88,8.88,0,0,0-.1,2.129,2.307,2.307,0,0,0,.416.29c0.117,0.052.443,0.134,0.489,0.169a6.354,6.354,0,0,0,1.125.556c0.156,0.068.294,0.143,0.44,0.194l0.073-.024,0.024,0.073a3.392,3.392,0,0,0,.587.242c0.3,0.133.625,0.326,0.929,0.46a1.493,1.493,0,0,1,1.174,1.113,0.91,0.91,0,0,1,.024.363c-0.29,1.106-2.075,1.769-3.056,2.177a2.236,2.236,0,0,1-1.589.242,2.78,2.78,0,0,1-.978-1.452H20.685v0.024a0.172,0.172,0,0,1,.049.1,0.389,0.389,0,0,0-.465.194A3.517,3.517,0,0,0,20.1,34.46H20.049a6.373,6.373,0,0,0-.318-1.427,0.618,0.618,0,0,0-.465-0.145c-0.009-.063.018-0.032-0.049-0.048a2.087,2.087,0,0,1-.269.556,1.563,1.563,0,0,1-.66.823,1.816,1.816,0,0,1-1.149-.1,7.688,7.688,0,0,1-2.347-1.089c-0.419-.263-1.355-0.773-1.149-1.6,0.2-.805.825-0.957,1.516-1.258,0.747-.326,1.463-0.72,2.249-1.065,0.354-.155.692-0.313,1.027-0.46a2.042,2.042,0,0,0,.367-0.145,2.465,2.465,0,0,0,.073-1.6V26.573c-0.166-.7,0-1.591-0.171-2.3-0.034-.141,0-0.347-0.024-0.46-0.091-.375.038-0.851-0.049-1.21q-0.012-.581-0.024-1.161a2.846,2.846,0,0,0-.367-0.823,2.12,2.12,0,0,0-1.345-.436h-0.44l-4.4-.242c-0.35-.081-0.752-0.009-1.125-0.1-0.55-.129-1.229-0.159-1.712-0.242a19.861,19.861,0,0,1-6.993-2.419A5.65,5.65,0,0,1,.391,15.613a1.584,1.584,0,0,1-.367-1.04,1.632,1.632,0,0,1,.513-1.016A0.879,0.879,0,0,0,.9,13.267,1.077,1.077,0,0,0,1.418,13.1c0.022-.034.027-0.136,0.049-0.169A0.125,0.125,0,0,1,1.54,12.9a0.251,0.251,0,0,1,.049.145,10.287,10.287,0,0,0,1.076-.194l2.763-.194,0.024-1.814H5.5v0.387a1.065,1.065,0,0,1,.024.411v1.016l8.655-.508,0.88-.024c0.308-.066.669,0.012,0.954-0.048,0.152-.032.4,0.015,0.587-0.024,0.45-.1,1.021-0.045,1.467-0.1a3.505,3.505,0,0,0-.1-0.653v-0.75a5.886,5.886,0,0,1-.024-1.089V7.315h0.024V7.291a0.7,0.7,0,0,0,.66-0.169,2.268,2.268,0,0,0,.1-0.581c0.069-.27.157-0.567,0.22-0.823h-0.2a2.733,2.733,0,0,1-.88.073,9.561,9.561,0,0,1-2.1-.169c-0.275-.064-0.627.007-0.66-0.29l0.073-.024a3.635,3.635,0,0,1,1.051-.121,13.968,13.968,0,0,1,2.959-.024,0.886,0.886,0,0,1,1.125-.677c0.116,0.158.283,0.285,0.391,0.46a0.658,0.658,0,0,0,.1.218h0.147a2.731,2.731,0,0,1,.856-0.048,11.334,11.334,0,0,1,2.225.121,1.176,1.176,0,0,1,.856.218c0.032,0.042.042,0.039,0.024,0.073a1.88,1.88,0,0,1-.856.169A12.542,12.542,0,0,1,21.051,5.694Z"/>
</svg>
