<svg xmlns="http://www.w3.org/2000/svg" width="39.938" height="40" viewBox="0 0 39.938 40">
  <defs>
    <style>
      .cls-1 {
        fill: #fff;
        fill-rule: evenodd;
      }
    </style>
  </defs>
  <path id="Color_Fill_1" data-name="Color Fill 1" class="cls-1" d="M23.922,12.578c-0.018-.882-0.288-2.944.39-3.255h1.316V9.275c-0.337.007-.653-0.131-0.877-0.1a4.882,4.882,0,0,1-1.9,0,1.737,1.737,0,0,1-1.072-.34,15.273,15.273,0,0,1,3.313-.146,1.192,1.192,0,0,1,.779-1.069c0.116,0.19.324,0.345,0.439,0.534L26.5,8.692h0.244a2.307,2.307,0,0,1,.877-0.049l2.192,0.146v0.1a11.555,11.555,0,0,1-2.582.389V9.323c0.718,0.508.45,2.059,0.439,3.157l8.429-.437h0.926a3.466,3.466,0,0,1,2.485.194c0.665,0.541.587,2.21,0.146,2.963-0.823,1.4-1.936,1.2-3.605,1.7a13.1,13.1,0,0,1-2.631.631,0.511,0.511,0,0,0-.049-0.291,1.327,1.327,0,0,1-.049.437,7.994,7.994,0,0,0-1.8.437c-0.679.194-1.237,0.139-1.949,0.34-0.628.177-1.326,0.283-2,.486a6.675,6.675,0,0,1-1.413.34,0.633,0.633,0,0,1-.487.631,1.512,1.512,0,0,1-.195-0.486l-2.144.34a3.926,3.926,0,0,0-1.169.194,2.8,2.8,0,0,0-.828,1.7v0.972c-0.193.9,0.007,1.971-.195,2.915L20.9,27.977a8.858,8.858,0,0,1,2.144.777,16.4,16.4,0,0,1,2.972,1.166,1.35,1.35,0,0,1,.78,1.263,1.472,1.472,0,0,1-.974.923,10.429,10.429,0,0,1-5.067.534,6.272,6.272,0,0,1-.341-1.117H20.365v0.389A12.8,12.8,0,0,0,20.024,34H19.976V33.514a7.031,7.031,0,0,1-.292-1.943H19.635V31.62l-0.292.971a10.473,10.473,0,0,1-2.436.1l-1.462-.146A3.789,3.789,0,0,1,13.3,31.377c-0.114-1.924,2.767-2.22,4.239-2.817a7.241,7.241,0,0,1,1.608-.583L18.9,25.6c-0.206-.94,0-2.016-0.195-2.915V21.71a2.851,2.851,0,0,0-.828-1.749,3.926,3.926,0,0,0-1.169-.194l-2.144-.34a0.444,0.444,0,0,1-.39.486,0.808,0.808,0,0,0-.536-0.631,6.993,6.993,0,0,0-1.8-.437c-1.212-.345-2.533-0.52-3.7-0.874a5.318,5.318,0,0,1-1.413-.34c-0.049-.079-0.047-0.31-0.1-0.389v0.291A10.526,10.526,0,0,1,4.19,16.95c-1.7-.518-2.941-0.27-3.752-1.749a2.757,2.757,0,0,1,.049-2.915c0.5-.576,2.258-0.278,3.313-0.243l8.575,0.437c-0.022-1.521-.231-2.159.438-3.206H12.668a4.86,4.86,0,0,1-1.949-.291,0.685,0.685,0,0,1-.487-0.194c1.064-.014,2.195-0.141,3.313-0.1a1.627,1.627,0,0,1,.633-1.02,0.329,0.329,0,0,1,.195-0.049,2.593,2.593,0,0,1,.585,1.069,12.893,12.893,0,0,1,3.313.146v0.1a5.494,5.494,0,0,0-.828.243c-0.348.1-.776,0.08-1.12,0.146-0.534.1-1.408-.31-1.9,0h1.316c0.624,0.985.4,1.847,0.39,3.255h0.731a1.972,1.972,0,0,0,.146.146c0.047,0.014,1.33-.21,1.462-0.243l0.244-.291C18.675,9.473,19.457,7.671,19.488,5h0.1V5.1a3.682,3.682,0,0,1,.049,1.36h0.049c0.067-.1.243-0.164,0.292-0.243V5.194h0.1v1.02a1.245,1.245,0,0,1,.341.243V5.1A0.175,0.175,0,0,0,20.463,5h0.1V6.263a4.485,4.485,0,0,1,.146,1.117c0.123,0.485.269,1.085,0.39,1.6,0.1,0.442.058,0.911,0.146,1.312,0.146,0.666.02,1.361,0.146,1.992a1.986,1.986,0,0,0,.39.291h0.828a0.444,0.444,0,0,0,.439.146A2.2,2.2,0,0,1,23.922,12.578ZM13.4,9.178c-0.136.084-.406,0.057-0.536,0.146a2.943,2.943,0,0,0,1.121-.049H13.447A0.166,0.166,0,0,0,13.4,9.178Zm13.2,0v0.1a1.168,1.168,0,0,0-.536.049,2.943,2.943,0,0,0,1.121-.049A1.82,1.82,0,0,1,26.6,9.178Zm-17.3,8.258a0.234,0.234,0,0,0,.049.146A0.234,0.234,0,0,0,9.306,17.436Zm21.389,0.049v0.1h0.049v-0.1H30.694Zm-21.437.194a0.313,0.313,0,0,0,.049.194A0.313,0.313,0,0,0,9.257,17.678Zm21.486,0a0.313,0.313,0,0,0,.049.194A0.313,0.313,0,0,0,30.743,17.678Zm-21.535.243a0.313,0.313,0,0,0,.049.194A0.313,0.313,0,0,0,9.208,17.921Zm21.583,0a0.313,0.313,0,0,0,.049.194A0.312,0.312,0,0,0,30.792,17.921Z" transform="translate(-0.063 0.5)"/>
</svg>
