<svg width="60" height="90"><path d="M 24 20 L 29 20 L 29 22 L 24 22 L 24 20 Z" fill-opacity="0.33"/><path d="M 31 20 L 36 20 L 36 22 L 31 22 L 31 20 Z" fill-opacity="0.33"/><path d="M 21 41 L 29 41 L 29 43 L 21 43 L 21 41 Z " fill-opacity="0.33"/><path d="M 31 41 L 39 41 L 39 43 L 31 43 L 31 41 Z" fill-opacity="0.33"/><path d="M 18 62 L 29 62 L 29 64 L 18 64 L 18 62 Z" fill-opacity="0.33"/><path d="M 31 62 L 42 62 L 42 64 L 31 64 L 31 62 Z" fill-opacity="0.33"/><path d="M 14 84 L 46 84 L 46 86 L 14 86 L 14 84 Z" fill-opacity="0.33"/><path d="M 29 82 L 29 62 L 18 62 L 18 60 L 29 60 L 29 41 L 21 41 L 21 39 L 29 39 L 29 20 L 24 20 L 24 18 L 29 18 L 29 15 L 31 15 L 31 18 L 36 18 L 36 20 L 31 20 L 31 39 L 39 39 L 39 41 L 31 41 L 31 60 L 42 60 L 42 62 L 31 62 L 31 82 L 46 82 L 46 84 L 14 84 L 14 82 L 29 82 Z" fill="#8D8352" fill-opacity="0.8"/></svg>