<svg xmlns="http://www.w3.org/2000/svg" width="80" height="40" viewBox="0 0 80 40">
  <defs>
    <style>
      .cls-1 {
        fill: #fff;
        fill-rule: evenodd;
      }
    </style>
  </defs>
  <path id="Color_Fill_1" data-name="Color Fill 1" class="cls-1" d="M3.22,6H3.473a1.78,1.78,0,0,0,.189.565,15.654,15.654,0,0,0,1.579.314C6.846,9.7,8.93,12.367,10.671,15.1c0.521,0.82,1.706,3.128,2.463,3.516,0.918,0.471,2.727.175,3.852,0.44l1.7,0.377c0.135,0.055.336,0.27,0.442,0.314L25.762,20V19.751h0.189V20l8.335,0.251V20.065h0.189v0.188L41.358,20.5V20.379a2.1,2.1,0,0,1-.505-0.565c-0.405-.391-1.326-0.484-1.579-1,0.156-.081.043,0.027,0.126-0.126A5.8,5.8,0,0,1,37.948,17.3a9.157,9.157,0,0,1-2.02-.314V16.863c0.284-.454.226-1.964,0.631-2.2a13.8,13.8,0,0,0,4.42,1,2.2,2.2,0,0,0,.126-0.628l2.21-.377h1.01a5.208,5.208,0,0,1,1.073-.251l0.126,0.251h0.947a4.934,4.934,0,0,0,1.326.126v0.063H47.735c-0.121.049,0.126,0.063,0.126,0.063a0.427,0.427,0,0,1,.253-0.063v0.063h0.063c0,0.245-.031.283,0.126,0.377V15.167a0.348,0.348,0,0,0,0-.251h0.063v0.063c0.136,0.191-.051.214,0.126,0.314V15.23c0.041-.054.084-0.2,0.126-0.251,0.026,0.225-.03.158,0.126,0.251a0.3,0.3,0,0,1,.063-0.188,0.659,0.659,0,0,0,.505.188c0.026,0.225-.03.158,0.126,0.251a0.3,0.3,0,0,1,.063-0.188,3.257,3.257,0,0,0,1.578.188,8.362,8.362,0,0,1,3.662-.44,1.878,1.878,0,0,0,.442-0.5c-0.19-.143-0.137-0.081-0.126-0.314a0.212,0.212,0,0,1-.189,0l0.063-.188a0.212,0.212,0,0,1-.189,0l-0.063-.314,0.631-.377a0.88,0.88,0,0,1-.063-0.251l0.442,0.063,0.063-.188H55.059c-0.116.181-.173,0.091-0.442,0.063,0.023-.453,0-1.245,0-1.884H54.491a0.678,0.678,0,0,1-.758-0.251H53.1V10.709l-5.556-.063-22.691-.014-0.2-.293L47.545,10.4l5.493,0.063L53.1,10.27h0.631a0.717,0.717,0,0,1,.505-0.251V9.7h0.253v0.314l1.642,0.063L56.07,9.7h0.253l-0.063.377a10.064,10.064,0,0,0,2.147.063,6.09,6.09,0,0,1,1.326-.126V9.7h0.253v0.314H60.3V10.27a6.838,6.838,0,0,1,1.326.188L79.874,10.4v0.188c-3.9-.008-8.169.107-12.06,0.126H61.563A5.8,5.8,0,0,1,60.3,10.9v0.251a20.17,20.17,0,0,0-3.22-.063v1.067a0.179,0.179,0,0,1,.063.063,0.491,0.491,0,0,1,.253,0c0.1,0.156.188,0.158,0.126,0.314a2.738,2.738,0,0,1-.442.565,0.8,0.8,0,0,1,.505.126,4.364,4.364,0,0,0-.063,1.633,1.114,1.114,0,0,0,.253.188,7.237,7.237,0,0,1,2.4.251,7.613,7.613,0,0,1,.126,2.449c0.546-.012,1.144-0.061,1.768-0.063V17.3l0.379-.063a1.438,1.438,0,0,1,.189-0.691c0.934-.886,3.007-0.757,4.483-0.691a0.579,0.579,0,0,1,.189.314,1.458,1.458,0,0,1-.063.942,0.251,0.251,0,0,1,.252.125h2.147a3.188,3.188,0,0,0,1.073.44,1.249,1.249,0,0,0,1.073-.126l0.631-.188a4.642,4.642,0,0,1,1.326-.816v0.063c-0.432.295-.808,1.25-1.2,1.444-0.127.063-.292,0.005-0.379,0.063h0.063a20.273,20.273,0,0,0,1.894,1.193c0.586,0.388,1.2.83,1.768,1.256,0.246,0.183.444,0.519,0.695,0.691,0.281,0.193.61,0.238,0.884,0.44a2.924,2.924,0,0,1,.442.816c0.189,0.3.472,0.582,0.695,0.879,0.131,0.174.383,0.317,0.505,0.5a4.34,4.34,0,0,1,.568,3.454A9.369,9.369,0,0,1,78.169,29.3h0.379A4.322,4.322,0,0,1,80,29.044V29.17l-2.336.377v0.188c-0.166.048-.151,0.075-0.316,0.126V29.8h0.063a1.11,1.11,0,0,0,.189-0.251H76.843a2.554,2.554,0,0,1-.758.188,0.179,0.179,0,0,0,.063.063c0.1,0.061.3,0,.442,0.063a6.528,6.528,0,0,1,.884.879H76.654c-0.444-.636-1.125-0.407-1.7-0.816-0.192-.224-0.072-0.356-0.505-0.377a9.727,9.727,0,0,1-1.579.314,0.692,0.692,0,0,1,0,.565L72.8,29.861a5.744,5.744,0,0,1-1.326.126v0.251a0.422,0.422,0,0,1,.063.251H71.413c0.015-.361.022-0.466-0.316-0.5a6.205,6.205,0,0,1-1.263.126,7.292,7.292,0,0,1-1.957.251,0.865,0.865,0,0,0-.568-0.126,18.492,18.492,0,0,1-3.283.063c-0.011.613-.109,1.695,0.252,1.946h5.3L70.276,32a1.013,1.013,0,0,1,1.073-.439v0.126a4.792,4.792,0,0,1-1.073,1.067c-0.822.346-3.628,0.126-4.8,0.126H54.428c-1.815,0-4.546.316-5.746-.377l0.063-.188A2.032,2.032,0,0,0,49,31.933a3.148,3.148,0,0,0,1.579.314V32a0.671,0.671,0,0,1,.316-0.125,0.655,0.655,0,0,1,.126.377H52.47c0.055-.207.2-0.344,0.253-0.5V29.484a5.491,5.491,0,0,0-1.452-.251,3.938,3.938,0,0,1-.568.942H47.861a2.894,2.894,0,0,1-.189-0.314c-0.263-.452.133-1.37-0.316-1.633a4.575,4.575,0,0,0-1.137-.314,13.435,13.435,0,0,0-2.147-.628V27.6H43.82V27.223H43.757V27.161H43.568v0.5H43.5a0.177,0.177,0,0,0-.063-0.063,2.441,2.441,0,0,0-.126-0.44,15.639,15.639,0,0,0-3.157-.44A10.144,10.144,0,0,0,38.9,28.793a0.8,0.8,0,0,1,.758.188H39.084c-0.7-.415-2.087.041-2.715-0.44h0.063a1.493,1.493,0,0,1,.821,0A13.561,13.561,0,0,1,38.2,26.47a1.566,1.566,0,0,0-.568-0.126,3.382,3.382,0,0,0-.884-0.126c-0.832-.2-1.753-0.166-2.652-0.377-1.265-.3-2.646-0.252-3.978-0.565a26.824,26.824,0,0,0-3.789-.565v0.126c-0.406.6-.359,2.079-0.631,2.826a6.058,6.058,0,0,0-1.642-.251c0.015-.719.3-2.95-0.126-3.014l-7.2-1.067-0.189,1.7H14.27a6.745,6.745,0,0,0-.568-2.072,1,1,0,0,0-.505-0.063,8.32,8.32,0,0,1-.821.188,13.756,13.756,0,0,0-1.7,1.381A20.521,20.521,0,0,0,7.956,26.47a6.116,6.116,0,0,1-2.147-.5,9.141,9.141,0,0,0-1.137-2.2,2.593,2.593,0,0,0-.316-0.691,11.286,11.286,0,0,0-1.137-.565,14.627,14.627,0,0,1-1.515-1L1.515,21.2A1.629,1.629,0,0,1,.505,20a2.124,2.124,0,0,0,.189-0.5H0.126A1.29,1.29,0,0,1,0,19.186a2.359,2.359,0,0,1,.884-0.125V18.935a0.541,0.541,0,0,0,.063-0.314,3.394,3.394,0,0,1-.758-0.188V18.307c1.4-.344,1.565-1.056,2.084-2.26A1.381,1.381,0,0,0,2.589,15.1c-0.247-1.14-.57-2.4-0.884-3.516-0.215-.766-0.224-1.43-0.442-2.2A20.31,20.31,0,0,1,.631,6.816c0.875-.007,1.6-0.18,2.526-0.188A1.844,1.844,0,0,1,3.22,6ZM6.882,16.423a4.943,4.943,0,0,0,.442,1.758A0.688,0.688,0,0,1,7.7,18.119V17.993a3.629,3.629,0,0,0,.379-1.57h-1.2Zm1.452,0.125-0.379,1.7a0.436,0.436,0,0,1,.316.188H8.335V18.37a5.4,5.4,0,0,0,1.137-1.256A2.649,2.649,0,0,0,8.335,16.549ZM5.3,17.24a6.138,6.138,0,0,1-.695.942,0.215,0.215,0,0,0,.063.126,3.4,3.4,0,0,0,1.579.565,1.135,1.135,0,0,1,.189-0.251V18.5A7.905,7.905,0,0,1,5.3,17.24Zm4.294,0c-0.173.607-.864,0.815-1.073,1.381a1.589,1.589,0,0,0,.316.314,6.727,6.727,0,0,1,1.515-.628V18.244H10.292A1.8,1.8,0,0,0,9.6,17.24ZM6.125,19.123A4.732,4.732,0,0,1,4.483,18.5a9.681,9.681,0,0,0-.126,1.319H4.42a9.2,9.2,0,0,1,1.642-.251Zm2.715,0L8.9,19.437H9.6a2.491,2.491,0,0,0,1.01.063,1.044,1.044,0,0,0-.252-0.942A3.864,3.864,0,0,1,8.84,19.123ZM4.42,20A1.481,1.481,0,0,0,4.925,21.2c0.318-.429,1.118-0.557,1.326-1.067A0.974,0.974,0,0,0,6,19.814,3.778,3.778,0,0,1,4.42,20Zm6.125,0a8.176,8.176,0,0,1-1.7-.188,0.756,0.756,0,0,0-.063.439,3.327,3.327,0,0,0,1.389.879A2.913,2.913,0,0,0,10.545,20Zm-4.23.44a4.134,4.134,0,0,1-1.326.942v0.063H5.051c0.16,0.248.406,0.387,0.568,0.628H5.683V22.012a3.862,3.862,0,0,0,.884-1.444A0.954,0.954,0,0,0,6.314,20.442Zm2.21,0c-0.113.162-.252,0.21-0.189,0.377A7.167,7.167,0,0,0,9.029,22.2a0.217,0.217,0,0,0,.126-0.063,1.731,1.731,0,0,0,.821-0.753A13.947,13.947,0,0,0,8.524,20.442Zm-1.137,2.2v-1.7H7.261a0.36,0.36,0,0,0-.316-0.063,3.557,3.557,0,0,0-.758,1.507H6.251v0.063C6.686,22.482,6.888,22.626,7.388,22.64Zm0.253,0a1.956,1.956,0,0,0,1.073-.251A0.319,0.319,0,0,0,8.777,22.2a5.872,5.872,0,0,1-.758-1.381,1.592,1.592,0,0,0-.316.126A4.555,4.555,0,0,0,7.64,22.64Zm45.651,6.97c-0.02.676-.1,2.393,0.253,2.637H55V32a0.662,0.662,0,0,1,.379-0.125V32a0.422,0.422,0,0,1,.063.251H63.2c0.056-.207.2-0.344,0.253-0.5V30.3a11.462,11.462,0,0,1-2.147-.063c-0.632-.136-1.467.056-2.02-0.063-0.371-.08-0.907,0-1.2-0.063l-1.642-.063Zm21.594-8.6h0.126V21.07H74.886V21.007Z"/>
</svg>
