<svg xmlns="http://www.w3.org/2000/svg" width="80" height="40" viewBox="0 0 80 40">
  <defs>
    <style>
      .cls-1 {
        fill: #fff;
        fill-rule: evenodd;
      }
    </style>
  </defs>
  <path id="Color_Fill_1" data-name="Color Fill 1" class="cls-1" d="M2.889,9V9.6L4.284,9.8a9.7,9.7,0,0,0,1.494,2.311c1.066,1.606,2.051,3.236,3.088,4.822,0.5,0.771.986,2.185,1.893,2.511l2.79,0.2a16.9,16.9,0,0,0,4.284.7c0.876,0,2.452.3,2.889-.1,0.34,0.364,3.066.3,3.885,0.3,2.865,0,5.2.314,8.369,0.3v-0.1c-0.176-.136-0.232-0.376-0.4-0.5a7.054,7.054,0,0,1-1.2-.6c-0.395-.489-0.575-1.387-1.793-1.406a1.858,1.858,0,0,0-.9-0.2,3.21,3.21,0,0,1,.6-1.909,8.234,8.234,0,0,0,3.487.8v-0.5a14.572,14.572,0,0,0,1.594-.3h1.395a1.014,1.014,0,0,1,.5-0.2c1.225,0.262,2.688.653,3.786,0.9a2.334,2.334,0,0,0,1.3-.3,8.8,8.8,0,0,1,2.391-.1l0.2-.3a1.339,1.339,0,0,0,.2-0.9h-0.1a0.863,0.863,0,0,1-.4.3v-0.2a0.581,0.581,0,0,0,.5-0.5h-0.2a0.551,0.551,0,0,1-.4,0v-0.1h0.1a8.907,8.907,0,0,1,0-1.406,2.36,2.36,0,0,1-1.3-.4H37.659c-3.582,0-7.788-.317-11.158-0.1v-0.1h0.1c0.62-.413,3.5-0.1,4.682-0.1,3.973,0,8.426.405,11.955-.2,0.082-.326-0.049-0.153.2-0.3a1.43,1.43,0,0,0,1.395.3c-0.039-.295-0.163-0.126.1-0.3v0.3a6.906,6.906,0,0,0,2.989-.3,0.9,0.9,0,0,0,.3.5c1.815-.09,4.867.1,7.173,0.1l15.143-.1h6.575a9.049,9.049,0,0,1,2.889,0v0.1H79.9v0.1a15.3,15.3,0,0,0-3.088,0H69.739c-7.97,0-17.223-.039-24.209.4a8.25,8.25,0,0,1,0,1.306h0.2a0.382,0.382,0,0,1,.2-0.3v0.3a1.221,1.221,0,0,0-.4.4c0.624-.011.458,0.589,0.4,1.406h0.1v0.1a5.815,5.815,0,0,1,1.992.2,7.478,7.478,0,0,1,.1,2.009l1.395-.1v-0.3h0.3c0.211-1.131,3.051-1.683,3.885-1a0.682,0.682,0,0,1,.1.4,1.973,1.973,0,0,0-.2.4,8.317,8.317,0,0,0,2.192.2,1.225,1.225,0,0,0,.8.7,0.489,0.489,0,0,1,.1-0.3c0.042,0.36-.047.253,0.2,0.4a11.078,11.078,0,0,0,1.694.7,9.827,9.827,0,0,1,3.587,3.014c0.369,0.533,1.022.447,1.3,1.306-0.254.282,0.322,2.031-.2,2.712-0.552.476-1.209,0.736-1.793,1.206,0.592,0.047,1.856-.434,2.391-0.1a9.151,9.151,0,0,0-1.893.4c-0.259.058-.671-0.427-1-0.4-0.844.066-1.868,0.392-2.79,0.5a0.846,0.846,0,0,1-.1.5v-0.5c-0.474.037-.524,0.154-1,0.2a0.653,0.653,0,0,1-.1.4,1.452,1.452,0,0,0-.1-0.5,2.478,2.478,0,0,1-.8.1v0.1h0.1c0.192,0.078-.2.1-0.2,0.1a4.625,4.625,0,0,1-1.893.1v-0.1h0.1c0.192-.078-0.2-0.1-0.2-0.1-0.522.338-2.144,0.114-2.889,0.1a6.988,6.988,0,0,0,.1,1.406c1.166,0.393,3.211.109,4.583,0.1a1.256,1.256,0,0,1,1.2-.5v0.1h-0.1c-0.6,1.2-2.1,1-3.886,1H43.138c-1.244,0-3.857.363-4.284-.5a1.756,1.756,0,0,1,.4-0.3c0.648,0.584,1.11-.168,1.395-0.1l0.1,0.3h1.2V30.1a5.212,5.212,0,0,0,.1-2.009h-1.2c-0.386.8-1.519,0.642-2.69,0.6v-0.2a0.875,0.875,0,0,1-.1-0.5l-5.181-.5v0.2a1.958,1.958,0,0,0-.2,1l-1.3-.1a5.7,5.7,0,0,1,.1-1.205h-0.1v-0.1a17.143,17.143,0,0,1-3.686-.4c-1.289-.288-2.615-0.14-3.786-0.4l-1.893-.1c-1.808-.411-3.964-0.3-5.778-0.7-1.335-.3-4.882-0.083-5.679-0.7h0.2c0.458-.3,1.695.068,2.391,0.1l6.177,0.7V23.968l-5.978-.8-0.1,1.306H11.457c-0.11-.635-0.269-1.558-0.9-1.708-0.191.135-.457,0.076-0.7,0.2-0.609.316-1.05,0.968-1.694,1.306a0.284,0.284,0,0,0,.1.1c0.086,0.065.313,0.134,0.4,0.2-1.476-.023-1.4,1.07-2.989,1.105a2.352,2.352,0,0,0-.9-0.3,13.151,13.151,0,0,0-1.2-2.411C2.747,22.1.569,21.863,0.5,20.251a0.363,0.363,0,0,0,.1-0.2H0v-0.3H0.2a1.072,1.072,0,0,1,.6-0.1v-0.3a0.678,0.678,0,0,1-.6-0.3c3.537-.858.666-6.533,0.4-9.242A16.591,16.591,0,0,1,2.59,9.6a1.263,1.263,0,0,1,0-.6h0.3Zm40.847,4.32v1.406h0.1a0.668,0.668,0,0,1,.4-0.1c-0.021-.37.4-1.1-0.2-1.406A0.505,0.505,0,0,1,43.736,13.32Zm0.5,1.507a0.358,0.358,0,0,0,.2.1A0.359,0.359,0,0,0,44.234,14.827Zm0,0.2v0.5h0.1v-0.2a1.164,1.164,0,0,0,.2-0.3h-0.3Zm1,0c0.082,0.326-.049.153,0.2,0.3v-0.3h-0.2Zm0.3,0a2.226,2.226,0,0,0,.2,1.105h0.1V15.027h-0.3ZM5.579,17.539a2.442,2.442,0,0,0,.3,1.306,0.5,0.5,0,0,0,.3.1v-0.2a2.545,2.545,0,0,0,.3-1.206h-0.9Zm-0.4.1a0.842,0.842,0,0,0-.2.3,10.492,10.492,0,0,0,.7,1A3,3,0,0,0,5.181,17.639Zm1.494,0-0.3,1.406a0.34,0.34,0,0,1,.2.1,0.341,0.341,0,0,0,.2-0.1,2.8,2.8,0,0,0,.8-1A5.085,5.085,0,0,0,6.675,17.639Zm-2.092.3a1.637,1.637,0,0,0,.8,1.206v-0.2C5.08,18.6,5.1,18.081,4.583,17.941Zm-0.4.3a3.943,3.943,0,0,0-.4.9l1.3,0.4,0.1-.3C4.79,18.967,4.593,18.516,4.184,18.242Zm3.487,0.1a4.269,4.269,0,0,0-.8,1.105h0.1a0.505,0.505,0,0,0,.3.1,3.363,3.363,0,0,0,1-.6,4.217,4.217,0,0,0-.4-0.5A0.358,0.358,0,0,0,7.671,18.343Zm23.91,0.1a1.314,1.314,0,0,0,.6.4,0.612,0.612,0,0,1,.2-0.2,0.358,0.358,0,0,0-.2-0.1A1.072,1.072,0,0,0,31.582,18.443Zm25.106,0a0.363,0.363,0,0,1,.1.2h-0.1v-0.2Zm-18.63,1v0.8a5.457,5.457,0,0,0,2.391-.6h0.1l0.1-.7A14.434,14.434,0,0,0,38.057,19.448Zm-34.471-.1-0.1.9,1.395-.1v-0.4h-0.1v-0.1C4.27,19.583,4.123,19.4,3.587,19.347Zm4.882,0.7v-0.7a6.722,6.722,0,0,0-1.395.4v0.2Zm-4.882.4a2.467,2.467,0,0,0,.3.9h0.2c0.324-.393.8-0.355,0.9-1Zm4.882,0-1.395-.1v0.2h-0.1c-0.1.1,0.1,0.1,0.1,0.1a2.877,2.877,0,0,0,1.1.7v-0.1A1.312,1.312,0,0,0,8.468,20.452Zm-7.87,0a1.564,1.564,0,0,0,.8.9v-0.2A6.671,6.671,0,0,0,.6,20.452Zm15.741,0.1a1.571,1.571,0,0,0,1.2,0h-1.2Zm2.092,0a1.87,1.87,0,0,0,1.3.1Zm1.893,0.1a0.358,0.358,0,0,0,.2.1A0.358,0.358,0,0,0,20.324,20.653Zm0.4,0v0.2a3.54,3.54,0,0,0,1.494-.1A7.454,7.454,0,0,1,20.722,20.653Zm1.594,0.1c0.911,0.555,3.938.02,5.081,0.4v-0.2Zm-17.036.1h-0.3a3.17,3.17,0,0,1-.9.7l0.1,0.3c0.262,0.076.238,0.12,0.5,0.2A8.593,8.593,0,0,0,5.28,20.854Zm1.494,0a2.451,2.451,0,0,0,.5,1.406,1.473,1.473,0,0,0,.6-0.6h0.1c0.1-.1-0.1-0.1-0.1-0.1A1.929,1.929,0,0,0,6.775,20.854Zm20.822,0.1v0.2c1.392,0.006,4.393.425,5.38,0.1v-0.1h-1.2c-0.175-.084-1.019.1-1.494,0A17.221,17.221,0,0,0,27.6,20.954ZM5.878,22.562V21.155a0.479,0.479,0,0,0-.3.1,3.226,3.226,0,0,0-.6,1.105h0.1A1.166,1.166,0,0,0,5.878,22.562Zm0.3-1.406a8.5,8.5,0,0,1-.1,1.406h0.6a1.948,1.948,0,0,1,.4-0.2,0.284,0.284,0,0,0-.1-0.1,5.176,5.176,0,0,0-.5-1.105h-0.3Zm4.682,2.009h0.2v0.6h-0.1A1.719,1.719,0,0,0,10.859,23.164Zm0.2,0.6a0.516,0.516,0,0,1,.1.3h-0.1v-0.3Zm0.1,0.3a0.364,0.364,0,0,1,.1.2h-0.1v-0.2Zm8.269,0v1.708l12.055,1.205V25.877h-0.1v-0.1c-1.474-.006-2.754-0.541-4.284-0.6a0.489,0.489,0,0,1-.1.3v-0.2a0.885,0.885,0,0,0-.7-0.2,7.787,7.787,0,0,0-2.092-.3A25.274,25.274,0,0,0,19.427,24.069Zm-8.169.2a0.364,0.364,0,0,1,.1.2h-0.1v-0.2Zm-2.59.3a4.008,4.008,0,0,1,1.893.4A4.009,4.009,0,0,1,8.667,24.571Zm24.309,2.612h0.6V26.078h-0.4v0.1h-0.1Zm0.7-1.105v1.206l4.384,0.4v-0.5h-0.1v-0.1c-1.082-.137-2.058-0.816-2.989-0.5-0.082-.326.049-0.153-0.2-0.3a0.488,0.488,0,0,1-.1.3v-0.1a0.515,0.515,0,0,1-.1-0.3ZM50.61,28.79a38.922,38.922,0,0,1-8.07-.6V30a0.364,0.364,0,0,1,.1.2,4.467,4.467,0,0,0,1.3.1c0.013-.027-0.053-0.333.1-0.2-0.035.229,0.86,0.2,1.594,0.2h4.782l0.1-.3A2.752,2.752,0,0,0,50.61,28.79ZM40.448,30.2a0.358,0.358,0,0,0,.2.1A0.358,0.358,0,0,0,40.448,30.2Z" transform="translate(0 0.016)"/>
</svg>
