<svg xmlns="http://www.w3.org/2000/svg" width="80" height="40" viewBox="0 0 80 40">
  <defs>
    <style>
      .cls-1 {
        fill: #fff;
        fill-rule: evenodd;
      }
    </style>
  </defs>
  <path id="Color_Fill_1" data-name="Color Fill 1" class="cls-1" d="M55.432,7h0.183V7.491a2.561,2.561,0,0,0,1.161.184,5.2,5.2,0,0,1,.611-0.184V7h0.183V7.614h0.183a0.653,0.653,0,0,1,.122.307h0.489V7.737c0.441,0.031.877,0,.856-0.737H59.4V7.614h0.122c0.454,0.262.842-.152,1.1,0.307a0.77,0.77,0,0,0-.244.061,0.22,0.22,0,0,0,.122.061,9.692,9.692,0,0,0,2.2.123,1.807,1.807,0,0,1,.55-0.184,1.6,1.6,0,0,1,.428.246c0.088,0.028.659,0.017,0.856,0.061l1.344-.061H80V8.536H65.821l-1.345-.061a10.628,10.628,0,0,1-2.628.123h-1.1a8.633,8.633,0,0,1-2.261.184V8.843a0.315,0.315,0,0,1,.061.184,0.873,0.873,0,0,1-.306-0.061V9.7a0.173,0.173,0,0,1,.061.061c0.178,0,.085-0.059.183,0,0.124,0.1-.043.072,0.122,0.123a0.352,0.352,0,0,1,.367.369l-0.672.921c0.246-.008.334-0.033,0.428,0.123a15.607,15.607,0,0,0-.122,2.641,51.569,51.569,0,0,1,6.112-.307l0.061-.184c-0.015-.367-0.646-0.614-0.795-1.044h0.061a1.844,1.844,0,0,0,1.039.86,1.392,1.392,0,0,1,.794-0.491,0.759,0.759,0,0,0,.428.307l0.061,0.553c1.52-.008,2.953.155,4.339,0.184V13.573a0.21,0.21,0,0,0,.122-0.061l0.55,0.123V12.16a1.309,1.309,0,0,1,.428-0.061c0.3,0.183.949,0.033,1.1,0.368a3.429,3.429,0,0,1,.367,1.351c-0.122,0-.017-0.063-0.122,0a0.416,0.416,0,0,1,.122.307l0.428,0.061a0.211,0.211,0,0,0,.061.123c-0.055.149-.065,0.1-0.122,0.246a3.149,3.149,0,0,0,.917.307,0.432,0.432,0,0,0,.183-0.307h0.061V14.74c-0.12.154-.081,0.1-0.061,0.307a1.7,1.7,0,0,1,.978.246,2.263,2.263,0,0,0,.611.307v0.061H76.272c-0.118.048,0.122,0.062,0.122,0.062a2.626,2.626,0,0,1,1.283.737,0.313,0.313,0,0,1,.061.184c-0.189.075-.138,0.023-0.183,0.246A7.132,7.132,0,0,1,79.328,19.1l0.061,0.43c0.037,0.049.2,0.07,0.245,0.123a1.766,1.766,0,0,1,.367.86H79.756l0.061,1.044L80,21.681s-0.236,1.013-.245,1.229h0.061A0.708,0.708,0,0,1,80,22.786v0.184a3.3,3.3,0,0,0-.733,1.229,3.8,3.8,0,0,0-.611.737,1.038,1.038,0,0,0,.733.43A1.412,1.412,0,0,1,80,25.243V25.55l-0.917.123a5.561,5.561,0,0,0-.856-0.491,4.806,4.806,0,0,1-1.834,1.044,1.8,1.8,0,0,0-.856.307,0.415,0.415,0,0,0-.061.246c0.246,0.059.33,0.007,0.367,0.307a6.234,6.234,0,0,1,.794,1.229c-0.169.082-.137,0.163-0.306,0.246V28.5a0.712,0.712,0,0,0,.122-0.184H76.272a7.727,7.727,0,0,0-1.222,1.351c0.945,0.929-.584,2.954-1.65,2.15a1.49,1.49,0,0,1-.672-2.211,3.943,3.943,0,0,1,.672-0.491l0.794-.061a1.331,1.331,0,0,0,.611.246,0.291,0.291,0,0,0,.122-0.307,5.228,5.228,0,0,1,0-1.351H74.744V27.086H74.439a0.874,0.874,0,0,1-.061-0.246,0.266,0.266,0,0,0,.183-0.184H74.316a4.142,4.142,0,0,1-1.161.123,12.639,12.639,0,0,1-2.261.061c-0.9,0-1.891.064-2.872,0.061-0.062-.3-0.112-0.372-0.489-0.369a0.645,0.645,0,0,0-.122.369H64.538v0.491a6.653,6.653,0,0,1-1.772.061A1.78,1.78,0,0,1,62.7,26.9H60.932a0.3,0.3,0,0,1-.061.184,1.3,1.3,0,0,1-.611.061c-0.2-.357-1.121-0.246-1.833-0.246h-3.3a8.5,8.5,0,0,0-2.017-.184,12.969,12.969,0,0,1-.978,2.027,2.371,2.371,0,0,0-.245.369c-0.03.261,1.254,0.995,0.611,1.9a1.88,1.88,0,0,1-.856.86,2.1,2.1,0,0,1-1.039-.061,1.568,1.568,0,0,1-.733-1.966,1.771,1.771,0,0,1,.672-0.676l0.245-.061v-1.72a0.314,0.314,0,0,1-.061-0.184,1.764,1.764,0,0,1-.489-0.43,2.481,2.481,0,0,1-.183-0.737,5.436,5.436,0,0,1-1.283-.43c-1.058-.394-1.935-0.725-2.934-1.167-0.611-.27-1.268-0.747-1.895-0.983l-1.65-.246c-1.325-.341-2.763-0.379-4.156-0.737-1.782-.458-3.711-0.508-5.562-0.983a19.343,19.343,0,0,0-3.789-.676,1.022,1.022,0,0,1-.305.491,2.841,2.841,0,0,1-.978,0,21.921,21.921,0,0,0-2.322.307l-1.161.061c-1.266.286-2.767,0.2-4.034,0.491l-1.161.061c-0.717.162-1.532,0.068-2.322,0.246a12.918,12.918,0,0,1-2.872.307c-1.35-.059-3.066.712-4.278,0.369-0.506,1.521-2.7.975-3.972,0.491A9.044,9.044,0,0,1,.856,19.592C0.479,18.979-.25,18.04.183,17.012A2.941,2.941,0,0,1,1.1,16.091a6.49,6.49,0,0,1,2.078.184,1.224,1.224,0,0,0,.733.123,11.753,11.753,0,0,1,1.1-.553c0.153-.041.209,0.262,0.306,0.123A0.337,0.337,0,0,0,5.5,15.6c-0.167-.1-0.05.01-0.061-0.184a0.374,0.374,0,0,0,.122-0.123,0.238,0.238,0,0,1-.122-0.184H5.5V15.047H5.684a1.179,1.179,0,0,0,0-.8l-0.122-.123a2.152,2.152,0,0,0,.061-0.553,0.3,0.3,0,0,1-.183-0.061,6.4,6.4,0,0,1-.733-1.658,28.033,28.033,0,0,1-1.65-3.686A2.357,2.357,0,0,1,3.973,7.8a6.748,6.748,0,0,1,.733,1.474c0.371,0.718.716,1.467,1.1,2.211a4.1,4.1,0,0,1,.367.614,3.424,3.424,0,0,1-.428,1.536,2.163,2.163,0,0,0,.183.184,0.767,0.767,0,0,1,.183.061c0.042,0.047.08,0.137,0.122,0.184A0.22,0.22,0,0,1,6.356,14c0.009,0.231-.029.216,0.122,0.307,0.24,0.181.745-.061,1.039,0.123,0.151,0.1-.089.155,0.244,0.246V14.494l7.028,0.491h0.978c0.873,0.192,1.951.056,2.811,0.246h0.978c1.785,0.393,3.9.037,5.684,0.43L27.2,15.722c1.786,0.391,3.9.036,5.684,0.43,0.643,0.142,1.328,0,1.895.123h0.978c1.788,0.387,3.895.038,5.684,0.43a5.136,5.136,0,0,0,1.956-.062,2.834,2.834,0,0,0-1.528-.491c-0.081-.058-1.493-0.249-1.772-0.307a4.767,4.767,0,0,1-.245-0.491c-0.478.323-1.635,0.074-2.322,0.061a10.669,10.669,0,0,1,.367-2.764,0.411,0.411,0,0,1,.245-0.061c0.467,0.307,1.37.114,1.895,0.368l0.061,0.184L40.886,13.2V12.958h0.122c0.09,0.156.13,0.123,0.367,0.123,0.133-.348.231-0.392,0.733-0.369a8.069,8.069,0,0,1,2.383-.123l1.283-.061a1.669,1.669,0,0,0,.672.061,11.348,11.348,0,0,1,1.711-.307,1.769,1.769,0,0,0,.489,0V12.1L49.32,12.16a0.8,0.8,0,0,1,.245-0.491,3.161,3.161,0,0,1,2.2.123c0.138,0.059.294,0.261,0.428,0.307h0.917v0.246c0.309,0.117.381,0.024,0.367,0.553a1.855,1.855,0,0,0-.428.061,0.688,0.688,0,0,1-.061.307c0.105,0.195.332,0.4,0.428,0.614a3.435,3.435,0,0,0,.183.676c0.444-.265,1.516-0.02,1.956-0.307,0.04-.053.082-0.193,0.122-0.246,0.049,0.268.068,0.242,0.367,0.246a0.311,0.311,0,0,1,.183-0.062,1.523,1.523,0,0,0,.122-0.553c-0.356-.544.218-1.308,0.244-1.843a0.464,0.464,0,0,1-.244-0.307c0.068-.034.335-0.123,0.183-0.184-0.089-.155-0.077-0.112-0.306-0.123a0.41,0.41,0,0,0-.244-0.061V8.843H55.8a0.3,0.3,0,0,0-.061-0.184,2.758,2.758,0,0,0-1.1-.061,3.019,3.019,0,0,1-1.222-.061H29.175c-1.049,0-3.637.228-4.278-.184a2.426,2.426,0,0,0,.672-0.123H53.232c0.514,0,.829-0.085,1.161-0.061a0.3,0.3,0,0,1,.061-0.184,0.423,0.423,0,0,0,.306,0l0.061-.369h0.611V7Zm19.5,7.187a0.222,0.222,0,0,1,.061.123H74.927V14.187Zm-0.061.123a0.221,0.221,0,0,1,.061.123H74.866V14.31Zm-0.061.123a0.223,0.223,0,0,1,.061.123H74.805V14.432ZM12.223,18.241A14.213,14.213,0,0,1,9.6,17.749c-0.766-.194-1.63-0.163-2.261-0.307a8.045,8.045,0,0,0-2.322-.43,5.8,5.8,0,0,0-.917,1.29c-0.349.5-.812,0.975-1.161,1.474a4.183,4.183,0,0,1-.795,1.106v0.061H2.2a7.254,7.254,0,0,0,4.217,2.641,3.142,3.142,0,0,0,1.895.246,4.16,4.16,0,0,0,1.1-1.351,20.927,20.927,0,0,0,1.772-2.211A23.291,23.291,0,0,0,12.9,18a1.305,1.305,0,0,0-.428-0.061,0.41,0.41,0,0,0-.244-0.062A1.413,1.413,0,0,1,12.223,18.241Zm0.794,0.184c0.047,0.275.235,0.535,0.306,0.8a18.425,18.425,0,0,0,.55,2.457,3.058,3.058,0,0,1,.306.737,15.957,15.957,0,0,0,3.361-.369l3.484-.307c1.1-.249,2.316-0.106,3.484-0.369a23.862,23.862,0,0,1,3.422-.43V20.636A20.131,20.131,0,0,1,25,20.084l-1.772-.246c-1.19-.307-2.579-0.5-3.789-0.737-0.835-.163-1.77.453-2.872,0.184a12.171,12.171,0,0,1-1.834-.491,3.717,3.717,0,0,0-1.222-.676,0.22,0.22,0,0,0-.122-0.061A0.53,0.53,0,0,1,13.018,18.425Zm-0.428.553a3.511,3.511,0,0,1-.672.86c-0.518.709-1.015,1.378-1.528,2.089a2.208,2.208,0,0,0-.611.86,1.308,1.308,0,0,0,.428.061c0.12-.058.2,0.048,0.428,0,0.935-.2,2.04-0.18,2.995-0.369,0.136-1.176-.641-2.234-0.733-3.378C12.735,19.054,12.75,19.027,12.59,18.978Z"/>
</svg>
