<svg xmlns="http://www.w3.org/2000/svg" width="40" height="39.938" viewBox="0 0 40 39.938">
  <defs>
    <style>
      .cls-1 {
        fill: #fff;
        fill-rule: evenodd;
      }
    </style>
  </defs>
  <path id="Color_Fill_1" data-name="Color Fill 1" class="cls-1" d="M21.367,12.083h0.191a1.282,1.282,0,0,1,.063-0.445h0.064c0.044,0.233,0,.174.191,0.254a2.3,2.3,0,0,0,.954.064c0.139,1.549.883,2.228,1.526,3.243,0.616,0.972,1.1,1.952,1.716,2.925a5.736,5.736,0,0,1,.7,1.018v1.59l-4.068.318a2.762,2.762,0,0,0,0,.509,3.785,3.785,0,0,0,.954.89l1.4,1.463a6.263,6.263,0,0,1,1.335,1.208c0.714,1.032,1.148,1.945,1.843,3.053a27.271,27.271,0,0,1,1.589,2.48h0.064v-0.89A1.529,1.529,0,0,1,30.139,29v0.127c0.248,0.413.112,1.255,0.318,1.653,0.338,0.656.741,1.321,1.081,1.971,0.222,0.425.324,0.863,0.572,1.272a8.268,8.268,0,0,1,.826,1.463,5.151,5.151,0,0,1-.063.827,4.917,4.917,0,0,1,.127.763,14.419,14.419,0,0,0-2.861.191v0.127c-0.189.043-.065-0.1-0.191-0.127l-2.034.127c-0.743.163-1.6,0.012-2.416,0.191a19.094,19.094,0,0,1-3.623.318,1.991,1.991,0,0,1-.064.636,0.771,0.771,0,0,0-.572,0c-0.73.245-.543,0.711-0.89,1.272a0.57,0.57,0,0,1-.763,0,1.386,1.386,0,0,0-.826-1.335,0.993,0.993,0,0,1-.572-0.064,1.006,1.006,0,0,1-.064-0.509,12.651,12.651,0,0,1-2.861-.254c-0.788-.19-1.63-0.017-2.352-0.191a25.865,25.865,0,0,0-2.606-.191,1.754,1.754,0,0,0-.445.127C9.484,37.074,7.719,37.075,7,37.075a4.2,4.2,0,0,1,.127-0.7l-0.064-.89A6.013,6.013,0,0,1,7.7,34.4c0.249-.408.351-0.847,0.572-1.272,0.379-.73.824-1.489,1.208-2.226A14.7,14.7,0,0,1,9.988,29v0.127a3.507,3.507,0,0,1,.127,1.526h0.064V30.588A9.33,9.33,0,0,0,11.2,28.935c0.452-.714,1.027-1.435,1.462-2.162A8.974,8.974,0,0,1,14.628,24.1a20.191,20.191,0,0,0,2.034-1.908,1.723,1.723,0,0,0,.7-0.827,0.55,0.55,0,0,1-.064-0.318l-4.069-.318v-1.59a9.238,9.238,0,0,1,1.017-1.526c0.774-1.24,1.523-2.477,2.289-3.688a5.144,5.144,0,0,0,.572-1.018,3.113,3.113,0,0,1,.127-0.89,4.318,4.318,0,0,1,1.017-.127,1.125,1.125,0,0,1,.127-0.254V11.7a0.69,0.69,0,0,1,.063.382h0.191c-0.039-2.7-.158-5.6.445-7.758,0.229-.816.66-1.634,0.89-2.353C20.151,1.4,19.741.458,20.032,0V1.908c0.1,0.343.371,0.746,0.508,1.081l0.572,2.226C21.6,7.082,21.359,9.843,21.367,12.083ZM16.98,19.46a4.025,4.025,0,0,0,.064,1.526A4.025,4.025,0,0,0,16.98,19.46Zm5.976,0.318a2.664,2.664,0,0,0,.064,1.081A2.666,2.666,0,0,0,22.956,19.777Zm-4.2,15.771a0.307,0.307,0,0,0,.064.191,0.775,0.775,0,0,0,.381-0.191H18.76Zm2.479,0H20.795v0.127h0.381v0.064H21.24V35.549Zm-14.112.191v0.127H7.191A0.218,0.218,0,0,0,7.127,35.739Zm4.641,0a4.025,4.025,0,0,0,.064,1.526A4.025,4.025,0,0,0,11.768,35.739Zm16.4,0a4.025,4.025,0,0,0,.064,1.526A4.025,4.025,0,0,0,28.169,35.739Zm4.641,0v0.127h0.064A0.218,0.218,0,0,0,32.809,35.739Z"/>
</svg>
