<svg xmlns="http://www.w3.org/2000/svg" width="40" height="40" viewBox="0 0 40 40">
  <defs>
    <style>
      .cls-1 {
        fill: #fff;
        fill-rule: evenodd;
      }
    </style>
  </defs>
  <path id="Color_Fill_1" data-name="Color Fill 1" class="cls-1" d="M21.56,9.224h0.26V8.874a0.123,0.123,0,0,0,.043-0.044c0.536-.014,1.094,0,1.647,0V8.918a3.793,3.793,0,0,1,.173.918c0.213,0.793.26,1.648,0.477,2.492,0.6,2.323.839,4.851,1.43,7.169,0.18,0.7.214,1.4,0.39,2.055l0.043,0.437a3.987,3.987,0,0,0,.39.525c0.068,0.112.009,0.267,0.087,0.393l0.217,0.087a3.35,3.35,0,0,1,.217.437c0.274,0.437.625,0.88,0.91,1.312,1.11,1.677,2.1,3.392,3.207,5.071,0.825,1.251,1.921,2.3,1.95,4.328-1.546.161-3.427,0.087-5.113,0.087H26.37c-0.1,0-.313-0.05-0.347-0.044a5.435,5.435,0,0,0-.823.437c-0.611.269-1.165,0.473-1.777,0.743a11.988,11.988,0,0,1-1.257.568c-0.14.385-.1,0.881-0.217,1.312-0.132.5-.307,1.035-0.433,1.486-0.1.343-.024,0.7-0.13,1.005a0.816,0.816,0,0,0-.433.175,4.124,4.124,0,0,1-2.34-.219,4.11,4.11,0,0,1-.13-0.918,12.379,12.379,0,0,1-.607-2.8,5.293,5.293,0,0,1-.823-0.393c-0.741-.328-1.425-0.59-2.167-0.918a7.408,7.408,0,0,0-.867-0.437H11.983A44.93,44.93,0,0,1,7,34.142c-0.041-1.985,1.1-2.988,1.863-4.2,1.112-1.771,2.28-3.493,3.38-5.246,0.128-.2.169-0.41,0.3-0.612l0.173-.131a10.247,10.247,0,0,1,.563-0.962l0.217-.087V22.645c0.1-.234.385-0.439,0.477-0.7l0.087-.656c0.175-.659.211-1.35,0.39-2.055,0.571-2.246.8-4.7,1.387-6.951,0.221-.839.267-1.7,0.477-2.492a3.41,3.41,0,0,1,.173-0.918,1.042,1.042,0,0,1,.477-0.044,2.614,2.614,0,0,1,1.17,0,1.276,1.276,0,0,1,.043.393h0.26a14.791,14.791,0,0,1,.347-3.1l0.087-1.005c0.221-.936.284-1.994,0.52-2.885C19.531,1.709,19.7.2,20.043,0a3,3,0,0,0,.26.787c0.155,0.468.227,0.981,0.347,1.443l0.433,2.623,0.043,0.656A20.864,20.864,0,0,1,21.56,9.224Z"/>
</svg>
