<svg xmlns="http://www.w3.org/2000/svg" width="40" height="40" viewBox="0 0 40 40">
  <defs>
    <style>
      .cls-1 {
        fill: #fff;
        fill-rule: evenodd;
      }
    </style>
  </defs>
  <path id="Color_Fill_1" data-name="Color Fill 1" class="cls-1" d="M20.873,10.618h0.2a2.035,2.035,0,0,1,.067-0.467h0.067c0.046,0.245,0,.183.2,0.267a6.345,6.345,0,0,0,1,.133,4.062,4.062,0,0,0,.268,1.536,0.322,0.322,0,0,1,.067-0.2V12.02a7.623,7.623,0,0,1,1.206,1.937c0.575,0.92,1.145,1.861,1.742,2.8a9.365,9.365,0,0,1,.8,1.135v1.669H26.367a5.571,5.571,0,0,1-1.474.134,11.2,11.2,0,0,1-2.278.2,4.417,4.417,0,0,0-.067-1.669v1.736H22.28a1.4,1.4,0,0,0,0,.735,5.7,5.7,0,0,0,1.34,1.269l1,1.069a9.181,9.181,0,0,1,2.077,2.4h0.067V24.708h0.2q0.034,0.634.067,1.269a5.627,5.627,0,0,0,.67.935c0.687,1.081,1.426,2.146,2.01,3.272h0.067V28.715a0.636,0.636,0,0,1,.2-0.735,18.793,18.793,0,0,1,.134,2.337h0.268l2.546,4.875a0.236,0.236,0,0,1-.134.334l0.134,1.2-4.891.334a4.623,4.623,0,0,0-.067-1.736v1.736a3.32,3.32,0,0,1-.938.067,6.527,6.527,0,0,1-1.675.134,20.118,20.118,0,0,1-3.953.334,3.338,3.338,0,0,1-.067.735,0.393,0.393,0,0,0-.536,0c-0.881.3-.729,1.577-1.474,1.669-0.115-.207-0.014-0.213-0.268-0.267A0.862,0.862,0,0,0,19,39.265c-0.258-.961-1.238-0.864-1.407-1.135a1.052,1.052,0,0,1-.067-0.534L6,36.728c-0.035-2.093.917-3.243,1.742-4.808,0.221-.419.565-1.542,1.072-1.6-0.029-.8-0.055-2.15.268-2.337a18.647,18.647,0,0,1,.067,2.2H9.216V30.117a15.334,15.334,0,0,0,1.675-2.671,4.1,4.1,0,0,0,.469-0.6,20.751,20.751,0,0,0,.2-2.137,7.452,7.452,0,0,1,.469-1.469H12.1a10,10,0,0,0,.469,1.736V24.841a3.558,3.558,0,0,0,.335-0.534,3.723,3.723,0,0,1,.8-0.668A24.082,24.082,0,0,0,15.648,21.7a2.568,2.568,0,0,0,1.072-1.269,0.882,0.882,0,0,1-.067-0.468H16.385a4.62,4.62,0,0,0-.067-1.736V19.9a19.461,19.461,0,0,1-3.886-.334v-1.6a10.937,10.937,0,0,0,1-1.669c0.823-1.3,1.728-2.633,2.546-3.94a4.862,4.862,0,0,0,.469-0.8c0.135-.409-0.12-0.8.2-1a4.28,4.28,0,0,1,1-.133,1.178,1.178,0,0,1,.134-0.267v0.134a0.577,0.577,0,0,1,.067.334h0.2C17.993,6.135,18.171,3.059,19.467,0h0.067a4.485,4.485,0,0,0,.536,1.4,16.769,16.769,0,0,1,.536,2.07C21.13,5.49,20.86,8.226,20.873,10.618Zm-2.68,24.574v0.133h0.469V35.192H18.194Zm2.144,0v0.133h0.4V35.259h0.067V35.192H20.338Z" transform="translate(0.531)"/>
</svg>
