<svg xmlns="http://www.w3.org/2000/svg" width="40" height="39.938" viewBox="0 0 40 39.938">
  <defs>
    <style>
      .cls-1 {
        fill: #fff;
        fill-rule: evenodd;
      }
    </style>
  </defs>
  <path id="Color_Fill_1" data-name="Color Fill 1" class="cls-1" d="M22.767,13.9L24,14.041a1.794,1.794,0,0,0,.2.822c0.552,0.663,6.482,2.338,6.968,2.055,0.244,0.453,5.625,1.749,6.558,1.918q0.034-.993.068-1.986c0.013,2.427.39,4.608,0.068,6.986l-13.594-.959c0,0.9-.117,4.716-0.546,5.206a1.107,1.107,0,0,0-.546.616,1.162,1.162,0,0,1-.956-0.206,3.833,3.833,0,0,1-.683,2.466,7.732,7.732,0,0,1-.137,3.014l4.782,1.575v1.027h0.341l-0.41,1.918-5.67.754c0.022,0.517-.012.643-0.41,0.753l-0.2-.343V39.247c-0.866-.008-5.283-0.521-5.67-0.89l-0.41-1.781h0.342a1.114,1.114,0,0,1,.2-1.027l4.577-1.575V33.63a6.428,6.428,0,0,1-.137-2.671,5.664,5.664,0,0,1-.683-2.329L17.1,28.7V28.288c-0.974-.271-1.058-3.93-1.025-5.411L2.41,23.836c-0.081-1.182-.816-4.2.137-4.931,1.39-.765,5.946-1.035,6.626-1.986,0.134,0.168.039,0.028,0.068,0.206,2.064-.715,4.3-0.75,6.148-1.644,0.642-.311.591-1.074,1.093-1.438l1.093-.206A41,41,0,0,1,18.668,2.808c0.3-1.048.517-2.961,1.844-2.74C22.3,3.44,22.731,9.166,22.767,13.9Z" transform="translate(-0.031 -0.063)"/>
</svg>
