<svg xmlns="http://www.w3.org/2000/svg" width="40" height="40" viewBox="0 0 40 40">
  <defs>
    <style>
      .cls-1 {
        fill: #fff;
        fill-rule: evenodd;
      }
    </style>
  </defs>
  <path id="Color_Fill_1" data-name="Color Fill 1" class="cls-1" d="M23.369,27.737H22.342V27.8H22.278a19.193,19.193,0,0,1-.706,3.21l-0.192,1.22a2.193,2.193,0,0,1-.321.193l-0.193,1.413h0.064V33.9a5.689,5.689,0,0,1,1.348.449L26,35.57V36.6h0.385v0.064c-0.3.492-.109,1.307-0.449,1.734a6,6,0,0,1-1.668.257,23.149,23.149,0,0,1-3.914.578,2.888,2.888,0,0,0-.064-1.156A4.079,4.079,0,0,1,20.032,40H19.9V39.807H19.711a3.082,3.082,0,0,0-.064-1.22V39.23L14,38.459V38.331a4.137,4.137,0,0,1-.385-1.734h0.321V35.634c1.272-.525,2.683-0.93,3.979-1.413,0.421-.157,1.143-0.142,1.219-0.642-0.174-.282-0.025-0.777-0.193-1.092L18.62,32.3,18.428,31.14a28.155,28.155,0,0,1-.77-3.4H16.631V27.48H16.439V27.352c-0.454-.6-0.512-3.043-0.513-4.109H15.733l0.064-.385H15.668L2.257,23.82c-0.054-1.657-.509-3.374.064-4.88,0.217-.57-0.23-1.518.064-1.99v1.926a18.838,18.838,0,0,0,3.594-.963l1.54-.321c1.671-.547,3.551-0.919,5.2-1.477,0.971-.329,3.273-0.44,3.337-1.541a0.94,0.94,0,0,1,.192-0.449,2.835,2.835,0,0,1,1.155-.193v-1.22h0.128a0.31,0.31,0,0,0,.064.193c-0.063-3.565.048-7.351,0.963-10.144,0.32-.976.484-2.774,1.733-2.761,1.835,3.229,2.1,7.72,2.118,12.841h0.064a0.22,0.22,0,0,1,.064-0.128v1.156H22.6v0.064l1.155,0.128a1.677,1.677,0,0,1,.128.835,7.517,7.517,0,0,1,.9.642l0.77,0.128c0.98,0.319,2.035.5,3.08,0.835,2.857,0.928,5.94,1.689,8.92,2.376V17.849c0.118-.2.007-0.7,0.128-0.9V19a6.228,6.228,0,0,1,.193,3.146,5.628,5.628,0,0,1-.193,1.605,1.013,1.013,0,0,1-.513.064L24.2,22.857a4.843,4.843,0,0,1-.192.963c-0.247,1.119,0,2.267-.321,3.274A3.222,3.222,0,0,0,23.369,27.737Z" transform="translate(0)"/>
</svg>
