<svg xmlns="http://www.w3.org/2000/svg" width="40" height="40" viewBox="0 0 40 40">
  <defs>
    <style>
      .cls-1 {
        fill: #fff;
        fill-rule: evenodd;
      }
    </style>
  </defs>
  <path id="Color_Fill_1" data-name="Color Fill 1" class="cls-1" d="M21.388,12h0.149a0.507,0.507,0,0,1,.149-0.445,0.5,0.5,0,0,0,.03.178c0.276,0.123.809,0.061,1.1,0.178a0.539,0.539,0,0,1,.03.178,4.486,4.486,0,0,1,.03.653c0.032,0.093.143,0.205,0.179,0.3v0.149a0.538,0.538,0,0,1,.269.356c0.259,0.407.509,0.828,0.776,1.247,0.6,0.948,1.181,1.919,1.791,2.881,0.228,0.358.454,0.727,0.687,1.1a2.873,2.873,0,0,1,.209.267v1.574l-4.09.356a4.468,4.468,0,0,0-.03.5c0.224,0.147.357,0.407,0.567,0.564a16.5,16.5,0,0,1,1.582,1.455l0.537,0.564a3.6,3.6,0,0,1,1.194,1.307h0.03V25A2.812,2.812,0,0,0,26.7,24.35c0.109-.4.194-0.816,0.3-1.247a1.484,1.484,0,0,1,.179-0.772,2.428,2.428,0,0,0,.119.564l0.09,0.772c0.12,0.4.222,0.9,0.328,1.366,0.141,0.618-.052,1.446.09,2.019V27.32a5.255,5.255,0,0,0,.478.683c0.354,0.556.662,1.106,1.015,1.663a9.974,9.974,0,0,1,.6.921h0.03v-0.95a1.669,1.669,0,0,1,.119-0.8H30.1v0.03a3.013,3.013,0,0,1,.179.742,0.216,0.216,0,0,1,.239-0.059v1.188c0.014,0.034.1,0.108,0.119,0.148,0.155,0.3.283,0.592,0.448,0.861,0.14,0.228.2,0.475,0.328,0.713,0.3,0.565.593,1.143,0.9,1.722a3.282,3.282,0,0,1,.657,1.544H32.94v0.03h-0.06c0-.12.016-0.162-0.06-0.208V35.6A6,6,0,0,1,33,36.852l-3.254.267H29.358c-0.531.117-1.1,0.043-1.582,0.148L27,37.3c-0.8.177-1.742,0.061-2.537,0.238-0.573.127-1.215,0.027-1.761,0.148a1.359,1.359,0,0,0-.806.119,4.992,4.992,0,0,0-.119.594,0.276,0.276,0,0,0-.149-0.089c-0.116.086-.325,0.07-0.448,0.149a1.7,1.7,0,0,0-.806,1.366,3.24,3.24,0,0,0-.418.178,0.838,0.838,0,0,0-.358-0.208,1.481,1.481,0,0,0-1.313-1.485c-0.013.034-.035,0.14-0.06,0.059a1.431,1.431,0,0,1-.119-0.624,0.441,0.441,0,0,1-.269-0.089h-0.03v0.03a1.321,1.321,0,0,1-.508,0c-0.664-.15-1.456-0.052-2.119-0.208-0.465-.109-0.968-0.017-1.4-0.119H13.388c-0.486-.109-1.133-0.05-1.582-0.178-0.014,0-.175.031-0.239,0.03l-0.925-.059L7,36.852a4.824,4.824,0,0,1,.179-1.307H7.119a0.6,0.6,0,0,1-.03.208H7.03V35.4a6.242,6.242,0,0,0,.478-0.95c0.5-.818.927-1.732,1.373-2.584,0.142-.271.436-1.153,0.776-1.158a1.421,1.421,0,0,1,.09-0.5V29.369a3.482,3.482,0,0,0,.09-0.475,0.181,0.181,0,0,0,.06-0.059h0.06v0.059a1.422,1.422,0,0,1,.149.653h0.239v0.624h0.03V30.111a3.219,3.219,0,0,0,.507-0.8c0.323-.509.654-1.023,0.985-1.544a3.652,3.652,0,0,0,.328-0.445l0.06-1.9c0.039-.178.011-0.429,0.06-0.624,0.126-.505.237-1.009,0.358-1.514a2.978,2.978,0,0,1,.179-0.95v0.03a3.927,3.927,0,0,1,.209,1.158,7.63,7.63,0,0,1,.358,1.812h0.03V25.3c0.188-.182.281-0.449,0.478-0.624,0.851-.754,1.672-1.545,2.478-2.346a1.873,1.873,0,0,0,.925-1.217,0.256,0.256,0,0,1-.03-0.149l-4.09-.356V19.035a2.376,2.376,0,0,1,.209-0.267c0.267-.42.518-0.84,0.776-1.247,0.742-1.167,1.445-2.349,2.179-3.5,0.157-.247.26-0.5,0.418-0.742a2.667,2.667,0,0,0,.328-0.534,2.143,2.143,0,0,1,.09-0.832,5.823,5.823,0,0,0,1.075-.208,0.3,0.3,0,0,1,.09-0.149,3.049,3.049,0,0,1,.09.445h0.149V9.592a6.936,6.936,0,0,1,.03-1.277V7.721a5.43,5.43,0,0,1,.09-0.98V6.414c0.1-.451.091-0.935,0.209-1.4a14.857,14.857,0,0,1,.508-1.93c0.142-.347.415-0.826,0.507-1.158V1.455A8.41,8.41,0,0,1,19.985,0h0.03V1.782a1.751,1.751,0,0,1,.03.178c0.058,0.16.2,0.349,0.269,0.5C20.435,2.746,20.473,3,20.582,3.3,21.449,5.617,21.386,8.795,21.388,12ZM10.075,29.577a0.142,0.142,0,0,0,.03.089V29.577h-0.03ZM9.955,37.12c-0.025.1,0.015,0.045-.06,0.089v-0.03a0.107,0.107,0,0,1-.03-0.059h0.09Zm20.09,0c0.1,0.025.046-.015,0.09,0.059l-0.09.03V37.12Z"/>
</svg>
