<svg xmlns="http://www.w3.org/2000/svg" width="40" height="39.969" viewBox="0 0 40 39.969">
  <defs>
    <style>
      .cls-1 {
        fill: #fff;
        fill-rule: evenodd;
      }
    </style>
  </defs>
  <path id="Color_Fill_1" data-name="Color Fill 1" class="cls-1" d="M20.728,12.88h0.259V12.427l0.775,0.129a31.64,31.64,0,0,0,2.714,4.6c0.632,1,1.157,1.2,1.163,2.913-1.191-.181-1.925-1.579-3.424-1.618a11.538,11.538,0,0,0-.129-2.136v2.136a7.883,7.883,0,0,0,1.292,2.136c0.564,0.8,1.041,1.6,1.615,2.395,0.248,0.342.651,0.632,0.9,0.971a7.89,7.89,0,0,0,1.68,2.006V25.89a0.652,0.652,0,0,1,0-.583l2.52,3.625h0.129a4.02,4.02,0,0,1,.258-0.906c0.232-.872-0.354-2.414.129-3.042a3.688,3.688,0,0,1,.258,2.136,9.86,9.86,0,0,1,.065,2.071q-0.032,2.621-.065,5.243l-0.323.259a0.313,0.313,0,0,0-.065-0.194c-0.111.057-.082,0.058-0.194,0a8.575,8.575,0,0,0,.194-2.2,15.526,15.526,0,0,0-3.36.259c-0.9.2-1.829,0.015-2.649,0.194l-1.68.065a3.386,3.386,0,0,0-.711.518l-0.258.065V34.3a3.517,3.517,0,0,0-.452,1.618,14.4,14.4,0,0,0-.646,3.948,8.815,8.815,0,0,1-2.326.065,3.736,3.736,0,0,1-.065-1.036c-0.248-.417.07-0.949-0.129-1.424a16.977,16.977,0,0,1-.581-1.942L17.5,34.563c-0.028-.064-0.233-0.194-0.258-0.259V33.4a6.694,6.694,0,0,1-.9-0.583L8.581,32.3l0.194,2.265a1.18,1.18,0,0,1-.323.065C8.06,34.365,8.176,33.4,8.194,32.751a6.263,6.263,0,0,1-.065-2.2l0.065-5.372,0.323-.194v0.13a4.32,4.32,0,0,1,.065,1.553A9.085,9.085,0,0,0,8.9,29a0.234,0.234,0,0,0,.065-0.13A6.729,6.729,0,0,0,10,27.379a18.252,18.252,0,0,0,1.486-2.071h0.065a1.363,1.363,0,0,0,.065.647c0.62-1,1.568-1.79,2.261-2.718,0.856-1.146,1.715-2.332,2.52-3.5,0.239-.345.967-2.115,0.517-2.848a8.557,8.557,0,0,1-.065,1.553c-1.481-.015-2.169,1.262-3.359,1.618V18.77a8.921,8.921,0,0,0,.969-1.553c0.626-.993,1.375-1.982,2-2.977a9.609,9.609,0,0,1,.969-1.683,1.786,1.786,0,0,1,.711-0.129v0.065c-0.049.1-.017,0.235-0.065,0.388h0.258V12.233c-0.267.014-.453,0-0.84,0V12.168a2.073,2.073,0,0,0,.258-0.647,5.782,5.782,0,0,0,.581-2.848c-0.143.034-.128,0.073-0.258,0,0.516-.218.237-1.923,0.388-2.589C18.8,4.6,19.115,3.127,19.5,1.942,19.684,1.376,19.281.456,19.565,0a14.768,14.768,0,0,0,.84,4.79,15.269,15.269,0,0,1,.323,3.754l0.259,0.129V8.738c-0.444.018-.259,0.474-0.259,1.036V12.88Zm-3.812,3.5a0.684,0.684,0,0,0,.065.388A0.683,0.683,0,0,0,16.916,16.375Z" transform="translate(0.484)"/>
</svg>
