<svg xmlns="http://www.w3.org/2000/svg" width="40" height="40" viewBox="0 0 40 40">
  <defs>
    <style>
      .cls-1 {
        fill: #fff;
        fill-rule: evenodd;
      }
    </style>
  </defs>
  <path id="Color_Fill_1" data-name="Color Fill 1" class="cls-1" d="M23.094,12.846a26.428,26.428,0,0,0,.763,4.006c0.347,1.334.425,2.693,0.763,3.943l0.7,3.943a17.508,17.508,0,0,0,1.336,1.908c1.138,1.8,2.2,3.57,3.371,5.342,0.839,1.268,1.96,2.238,1.972,4.324H25.321c-0.255.081-.585,0.339-0.827,0.445-0.956.418-1.872,0.776-2.8,1.208V35.1H21.631a20.236,20.236,0,0,1-.127,3.18H21.313a1.407,1.407,0,0,0-.255.7,1.845,1.845,0,0,0-.127.509H19.723L19.659,40H19.4l-0.064-.509H18.132V39.428H18.069c0-1.071-.417-0.843-0.636-1.4-0.276-.7.3-2.347-0.064-2.925v2.862H17.305a9.606,9.606,0,0,0-2.036-.89c-0.479-.21-1.027-0.6-1.527-0.763H7.064L7,36.121a4.188,4.188,0,0,0,.127-0.89,4.6,4.6,0,0,1,.445-1.145c1.469-2.369,3.074-4.675,4.58-7.059a16.491,16.491,0,0,0,1.59-2.353l0.572-3.243c0.741-2.76,1.059-5.708,1.654-8.585H16.1a3.79,3.79,0,0,1,1.781,0c0,0.248-.032.286,0.127,0.381V12.4c0.275-.463.162-2.248,0.318-2.925l0.509-3.307c0.194-.759.457-1.574,0.636-2.289,0.21-.841-0.285-3.326.064-3.879,0.023,0.82.064,1.818,0.064,2.735V3.943a37.038,37.038,0,0,1,1.463,9.285h0.127c0-.248-0.032-0.286.127-0.381A3.917,3.917,0,0,1,23.094,12.846Z" transform="translate(0.5)"/>
</svg>
