<svg xmlns="http://www.w3.org/2000/svg" width="40" height="40" viewBox="0 0 40 40">
  <defs>
    <style>
      .cls-1 {
        fill: #fff;
        fill-rule: evenodd;
      }
    </style>
  </defs>
  <path id="Color_Fill_1" data-name="Color Fill 1" class="cls-1" d="M19.931,2.216h0.185a2.274,2.274,0,0,1-.046.5c0.922,0.249.953,1.4,1.2,2.336,0.568,2.12.42,4.939,0.416,7.651,0.781,0.481,2.335.39,3.422,0.55A2.789,2.789,0,0,1,25.9,13.21a0.529,0.529,0,0,0,.277.137,1.352,1.352,0,0,1,.046-0.6v0.6h0.231a1.307,1.307,0,0,1,.185-0.321,0.159,0.159,0,0,1,.093.046c0.117,0.067.085,0.058,0.092,0.229a2.538,2.538,0,0,1,.925.275c0.649,0.243,1.318.432,1.942,0.641,1.891,0.634,3.748,1.069,5.642,1.7,0.754,0.249,1.573.444,2.358,0.733a1.987,1.987,0,0,0,.462.183c-0.027-.926.2-2.936,0.786-3.161a0.4,0.4,0,0,1,.231-0.046c1.646,2.449.36,6.983,0,9.758H38.936V23.289c-0.166-.258-0.058-0.749-0.231-1.008-0.071.1-.194,0.256-0.231,0.137a2,2,0,0,0-.139-0.687c-0.3.278-2.554,0.044-3.145-.092-0.484-.111-1.034-0.061-1.572-0.183a7.126,7.126,0,0,0-1.156-.183,0.4,0.4,0,0,1-.231.092c-0.344-.05-0.669-0.158-0.971-0.229-0.687-.161-1.4-0.085-2.035-0.229-0.8-.181-1.678-0.025-2.4-0.275v1.787a2.469,2.469,0,0,0-.046.916q-0.023,1.008-.046,2.016c-0.137.705,0.052,1.959-.139,2.794-0.1.428,0.039,1-.046,1.374-0.1.428,0.039,1-.046,1.374s0.029,0.909-.046,1.237c-0.153.668,0.048,1.4-.093,2.016v0.87a12.2,12.2,0,0,1-.324,2.062,0.165,0.165,0,0,1-.046-0.092c-0.14-.191-0.085-0.591-0.231-0.779a0.132,0.132,0,0,1-.046.046,5.628,5.628,0,0,1-.6.962H21.873a15.779,15.779,0,0,0-1.988,0c-1.685,0-3.238,0-4.994,0a5.252,5.252,0,0,0-.6-1.008H14.243v0.046a7.221,7.221,0,0,0-.231.825,0.165,0.165,0,0,1-.046-0.092,3.187,3.187,0,0,1-.185-1.145c-0.172-.781-0.012-1.769-0.185-2.565V32.314a16.822,16.822,0,0,1-.139-2.84v-1.1a10.571,10.571,0,0,1-.092-2.016V25.579c-0.084-.387.05-0.976-0.046-1.42-0.091-.416.057-1.038-0.046-1.512a11.074,11.074,0,0,1-.046-2.016H13.179a4.3,4.3,0,0,1-1.156.138c-0.775.17-1.623,0.092-2.451,0.275a2.662,2.662,0,0,1-1.11.092v0.137c-0.887.025-1.635,0.163-2.59,0.229a2.184,2.184,0,0,1-1.064.046,3.462,3.462,0,0,1-1.156.183,4.977,4.977,0,0,1-1.526.183c-0.177-.043-0.335-0.14-0.509-0.183a1.407,1.407,0,0,1-.092.779,0.394,0.394,0,0,0-.231-0.229L1.11,23.38H0.879V23.289a7.453,7.453,0,0,1-.324-1.741,15.451,15.451,0,0,1-.324-6.139c0.152-.641.1-1.519,0.647-1.741a0.4,0.4,0,0,1,.231-0.046,4.087,4.087,0,0,1,.37.458A7.331,7.331,0,0,1,1.9,16.875H1.942A8.752,8.752,0,0,1,4.3,16.1c1.251-.415,2.544-0.764,3.838-1.191a12.316,12.316,0,0,1,2.035-.641,7.1,7.1,0,0,1,.092-2.107l0.046,2.016c1.032-.061,1.838-0.765,2.867-0.87V13.073a1.577,1.577,0,0,1,.324,0v0.183a1.366,1.366,0,0,0,.555.092,1.132,1.132,0,0,1,.879-0.092c0.641-.09,1.45-0.091,2.081-0.229l0.925-.046a1.217,1.217,0,0,0,.416-0.275V9.133A3.4,3.4,0,0,0,18.4,7.942a13.091,13.091,0,0,1,.185-2.107,9.467,9.467,0,0,1,.694-2.611c0.16-.263.556-0.339,0.694-0.6A0.841,0.841,0,0,1,19.931,2.216ZM14.705,20.678L14.382,33.734H25.665c0-4.3-.31-8.711-0.324-13.056-0.768-.066-1.7-0.046-2.543-0.046a2.567,2.567,0,0,0-.971.046,0.479,0.479,0,0,0-.139.458,1.561,1.561,0,0,0-.046.916,0.669,0.669,0,0,0-.231.046,2.142,2.142,0,0,1-.139.779h0.555a1.961,1.961,0,0,1,.786-0.046,7.848,7.848,0,0,1,2.035.229v0.046a16.061,16.061,0,0,1-3.607.229,4.4,4.4,0,0,1-1.064,1.741c-0.346-.6-0.744-1.178-1.064-1.833-1.017.385-2.512-.01-3.514-0.092V23.106h0.046a3.05,3.05,0,0,1,.971-0.137,9.667,9.667,0,0,1,2.312-.092L18.636,22.1A0.82,0.82,0,0,1,18.4,21.96a3.412,3.412,0,0,0-.046-1.145c-0.62-.362-2.5-0.189-3.468-0.183A0.314,0.314,0,0,1,14.705,20.678Z"/>
</svg>
