<svg xmlns="http://www.w3.org/2000/svg" width="100" height="100" viewBox="0 0 100 100">
  <metadata><?xpacket begin="﻿" id="W5M0MpCehiHzreSzNTczkc9d"?>
<x:xmpmeta xmlns:x="adobe:ns:meta/" x:xmptk="Adobe XMP Core 5.6-c138 79.159824, 2016/09/14-01:09:01        ">
   <rdf:RDF xmlns:rdf="http://www.w3.org/1999/02/22-rdf-syntax-ns#">
      <rdf:Description rdf:about=""/>
   </rdf:RDF>
</x:xmpmeta>
                                                                                                    
                                                                                                    
                                                                                                    
                                                                                                    
                                                                                                    
                                                                                                    
                                                                                                    
                                                                                                    
                                                                                                    
                                                                                                    
                                                                                                    
                                                                                                    
                                                                                                    
                                                                                                    
                                                                                                    
                                                                                                    
                                                                                                    
                                                                                                    
                                                                                                    
                                                                                                    
                           
<?xpacket end="w"?></metadata>
<defs>
    <style>
      .cls-1 {
        fill: #f9a929;
      }

      .cls-1, .cls-2 {
        fill-rule: evenodd;
      }

      .cls-2 {
        fill: #fff;
      }
    </style>
  </defs>
  <path class="cls-1" d="M58.487,30.193A4.356,4.356,0,0,1,56,32.988v1.141L93,35s-7,46.66-7,61L18,99S12.262,46.646,8,33l40,0.941V32.867a4.222,4.222,0,0,1-2.188-2.417,1.3,1.3,0,0,1-.934.61s-20.732-.417-27.643-7.515S14.3,7.008,20,7.261C32.643,7.823,35.935-.481,41.768,3.5c2.155,1.472,5.417,16.352,4.9,23.613,0.979-1.148,3.614-1.9,5.469-1.9,1.617,0,4.052.582,5.046,1.488,1.392-4.309,3.765-12.359,3.52-16.519C60.354,4.338,62.427,1,68.3,1S86.269,13.524,86.269,17.7C86.269,21.73,79.181,35.092,58.487,30.193ZM33.958,10.129c-1.58-1.5-12.007,1.876-10.743,6S42.8,28.138,42.8,28.138C37.433,21.009,35.538,11.63,33.958,10.129ZM48,48V37.98H21.447c-4.554,4.612-2.429,2.322-4.861,4.975C19.872,60.543,23,93,23,93l25-.431V84l8-5V92.431L81,92c0.809-14.832,6.373-49.728,6.373-49.728L83.166,37.98H56V43ZM72.1,13.524c-4.492-3.34-6.22,3.34-8.293,7.516a25.462,25.462,0,0,1-5.618,7,3.754,3.754,0,0,1,.232.6c2.468,0.234,9.846.73,12.988-1.34C75.212,24.8,76.594,16.864,72.1,13.524ZM58.36,70.558a6.821,6.821,0,0,1-4.166,4.392,6.857,6.857,0,0,1-6.094.016,10.342,10.342,0,0,1-4.5-5.426L42.033,65.9q-1.74-4.035-.871-7.006a6.839,6.839,0,0,1,4.18-4.4,6.844,6.844,0,0,1,6.08-.009,10.369,10.369,0,0,1,4.5,5.441l1.564,3.626Q59.229,67.587,58.36,70.558Zm-5.181-4.321-2.123-4.925a7.747,7.747,0,0,0-1.944-2.967,2.043,2.043,0,0,0-2.236-.294,1.994,1.994,0,0,0-1.306,1.732,7.281,7.281,0,0,0,.7,3.233l2.194,5.089a7.8,7.8,0,0,0,1.968,3.021,2.048,2.048,0,0,0,2.224.266,2.022,2.022,0,0,0,1.3-1.755A7.441,7.441,0,0,0,53.179,66.237ZM41.364,74.528a9.722,9.722,0,0,1-2.083,5.311,12.557,12.557,0,0,1-5.021,3.706l-0.288.124L32.38,79.976l0.87-.391Q37.911,77.3,36.7,73.033a5.3,5.3,0,0,1-2.76,2.781,5.869,5.869,0,0,1-5.086.019,7.864,7.864,0,0,1-3.7-4.213,8.006,8.006,0,0,1-.645-3.941A7.269,7.269,0,0,1,25.89,64a7.416,7.416,0,0,1,3.138-2.488,7.2,7.2,0,0,1,3.992-.545A7.282,7.282,0,0,1,36.711,62.7a10.5,10.5,0,0,1,2.719,3.785l0.761,1.765A13.047,13.047,0,0,1,41.364,74.528ZM34.53,67.8a5.42,5.42,0,0,0-1.864-2.555,2.2,2.2,0,0,0-2.133-.168,2.076,2.076,0,0,0-1.18,1.742,5.033,5.033,0,0,0,.429,2.8,4.513,4.513,0,0,0,1.741,2.195,2.335,2.335,0,0,0,2.232.133,2.444,2.444,0,0,0,1.6-2.231ZM56.888,55.536l-0.419-.972a4.258,4.258,0,0,1-.082-3.5,5.651,5.651,0,0,1,6.468-2.8,4.373,4.373,0,0,1,2.509,2.544l0.425,0.985a4.237,4.237,0,0,1,.09,3.482,4.9,4.9,0,0,1-2.731,2.508,5.029,5.029,0,0,1-3.717.28A4.275,4.275,0,0,1,56.888,55.536Zm2.563-2.221,0.439,1.019a1.8,1.8,0,0,0,.892.978,1.519,1.519,0,0,0,1.285-.031q1.437-.619.651-2.441l-0.352-.815a1.9,1.9,0,0,0-.884-1,1.455,1.455,0,0,0-1.278.011,1.483,1.483,0,0,0-.876.9A1.889,1.889,0,0,0,59.451,53.315ZM71.113,47.1L68.1,66.862l-2.614-.155L68.5,46.943Zm2.317,8.573a5.012,5.012,0,0,1,3.721-.29,4.349,4.349,0,0,1,2.537,2.573L80.1,58.911a4.254,4.254,0,0,1,.1,3.5,4.918,4.918,0,0,1-2.745,2.514,5.034,5.034,0,0,1-3.717.281,4.281,4.281,0,0,1-2.543-2.53l-0.425-.985a4.219,4.219,0,0,1-.075-3.5A4.956,4.956,0,0,1,73.43,55.671Zm0.265,4.677,0.481,1.114a1.761,1.761,0,0,0,.921.933,1.51,1.51,0,0,0,1.275.022,1.37,1.37,0,0,0,.9-1.87l-0.59-1.406a1.826,1.826,0,0,0-.9-0.991,1.681,1.681,0,0,0-2.146.894A1.8,1.8,0,0,0,73.695,60.348Z"/>
  <path class="cls-2" d="M79.61,60.756a4.917,4.917,0,0,1-2.745,2.514,5.034,5.034,0,0,1-3.716.281,4.283,4.283,0,0,1-2.544-2.53l-0.424-.985a4.22,4.22,0,0,1-.076-3.5,4.957,4.957,0,0,1,2.738-2.511,5.012,5.012,0,0,1,3.721-.29A4.35,4.35,0,0,1,79.1,56.3l0.413,0.957A4.252,4.252,0,0,1,79.61,60.756ZM76.683,58.9l-0.59-1.406a1.824,1.824,0,0,0-.9-0.991,1.681,1.681,0,0,0-2.146.894,1.8,1.8,0,0,0,.059,1.3l0.481,1.114a1.761,1.761,0,0,0,.921.933,1.51,1.51,0,0,0,1.275.022A1.37,1.37,0,0,0,76.683,58.9ZM64.9,65.055l3.014-19.763,2.614,0.155L67.512,65.21ZM62.56,56.134a5.029,5.029,0,0,1-3.717.28A4.275,4.275,0,0,1,56.3,53.884l-0.419-.972a4.258,4.258,0,0,1-.082-3.5,5.651,5.651,0,0,1,6.468-2.8,4.371,4.371,0,0,1,2.508,2.544L65.2,50.143a4.237,4.237,0,0,1,.09,3.482A4.9,4.9,0,0,1,62.56,56.134Zm-0.429-4.945-0.352-.815a1.9,1.9,0,0,0-.884-1,1.455,1.455,0,0,0-1.278.011,1.483,1.483,0,0,0-.876.9,1.889,1.889,0,0,0,.122,1.374L59.3,52.682a1.8,1.8,0,0,0,.892.978,1.519,1.519,0,0,0,1.285-.031Q62.917,53.01,62.132,51.189ZM57.773,68.907A6.82,6.82,0,0,1,53.607,73.3a6.858,6.858,0,0,1-6.094.016,10.339,10.339,0,0,1-4.5-5.426l-1.569-3.64q-1.74-4.035-.871-7.006a6.839,6.839,0,0,1,4.179-4.4,6.844,6.844,0,0,1,6.081-.009,10.369,10.369,0,0,1,4.5,5.441L56.9,61.9Q58.642,65.935,57.773,68.907Zm-5.181-4.321-2.123-4.925a7.744,7.744,0,0,0-1.945-2.967,2.043,2.043,0,0,0-2.236-.294,1.994,1.994,0,0,0-1.306,1.732,7.281,7.281,0,0,0,.7,3.233l2.194,5.089a7.8,7.8,0,0,0,1.968,3.021,2.048,2.048,0,0,0,2.224.266,2.022,2.022,0,0,0,1.3-1.755A7.44,7.44,0,0,0,52.592,64.586ZM40.777,72.876a9.722,9.722,0,0,1-2.083,5.311,12.557,12.557,0,0,1-5.021,3.706l-0.288.124-1.593-3.693,0.87-.391q4.661-2.286,3.454-6.552a5.306,5.306,0,0,1-2.76,2.781,5.869,5.869,0,0,1-5.086.019,7.864,7.864,0,0,1-3.7-4.213,8,8,0,0,1-.645-3.941A7.269,7.269,0,0,1,25.3,62.35a7.416,7.416,0,0,1,3.138-2.488,7.2,7.2,0,0,1,3.992-.545,7.282,7.282,0,0,1,3.693,1.734,10.49,10.49,0,0,1,2.718,3.785L39.6,66.6A13.047,13.047,0,0,1,40.777,72.876Zm-6.834-6.723A5.42,5.42,0,0,0,32.079,63.6a2.2,2.2,0,0,0-2.133-.168,2.077,2.077,0,0,0-1.18,1.742,5.034,5.034,0,0,0,.429,2.8,4.513,4.513,0,0,0,1.741,2.195,2.335,2.335,0,0,0,2.232.133,2.444,2.444,0,0,0,1.6-2.231Z"/>
</svg>
