<svg xmlns="http://www.w3.org/2000/svg" width="40" height="40" viewBox="0 0 40 40">
  <defs>
    <style>
      .cls-1 {
        fill: #fff;
        fill-rule: evenodd;
      }
    </style>
  </defs>
  <path id="Color_Fill_1" data-name="Color Fill 1" class="cls-1" d="M20.157,7.441V7h0.063V7.378a0.586,0.586,0,0,1,.031.284c0.686-.042.773,0.774,0.752,1.545h0.22V9.238a0.909,0.909,0,0,0,0,.5H21.066L21.1,9.4H21c-0.011.691-.144,2.16,0.251,2.428a1.369,1.369,0,0,0,.752.095c0.6,0,1.828.093,2.006-.284V9.963a0.658,0.658,0,0,1,.282-0.473A1.663,1.663,0,0,0,24.828,9.4H24.64V9.27A11.346,11.346,0,0,1,22.1,9.175V9.112a10.134,10.134,0,0,1,2.539-.063,1.788,1.788,0,0,1,.282-0.725h0.125a0.285,0.285,0,0,0,.157.189,1.04,1.04,0,0,1,.157.536,8.6,8.6,0,0,1,2.539.063,0.113,0.113,0,0,1-.063.032,6.845,6.845,0,0,1-2.477.126V9.4H25.141V9.459a3.148,3.148,0,0,1,.6.032,1.512,1.512,0,0,1,.188.252,9.421,9.421,0,0,1,.031,1.892,3.97,3.97,0,0,0,.47.252l0.564,0.063c0.787,0.194,1.659.178,2.476,0.378,1.439,0.353,3.046.361,4.483,0.725,0.485,0.123.992,0.106,1.442,0.221,0.62,0.157,1.262.133,1.85,0.284a12.321,12.321,0,0,1,1.6.284,1.657,1.657,0,0,1,.846,2.459,3.511,3.511,0,0,1-2.069,1.04c-0.475.121-.987,0.078-1.442,0.189l-0.784.063c-1.141.244-2.7,0.209-3.918,0.5-0.446.108-.907,0.055-1.317,0.158s-1.1.075-1.567,0.189l-0.533.032c-0.662.154-1.442,0.126-2.1,0.284H25.611c-0.616.14-1.359,0.074-1.975,0.221a5.832,5.832,0,0,0-.909.126,3.282,3.282,0,0,0-1.254,1.261,7.755,7.755,0,0,0-.815,3.783,5.9,5.9,0,0,0-.094,1.293,1.849,1.849,0,0,0,.972.631c0.688,0.42,1.481.791,2.194,1.166a2.981,2.981,0,0,1,1.191.788,1.429,1.429,0,0,1-.157,1.608,5.839,5.839,0,0,1-3.668,1.1c-0.12-.156-0.359-0.214-0.47-0.378a2.157,2.157,0,0,0-.282-0.536,0.089,0.089,0,0,0-.031-0.032,0.492,0.492,0,0,1-.031.252c-0.086.068-.122,0.024-0.157,0.158a2.126,2.126,0,0,0-.031.5A6.4,6.4,0,0,0,20,32H19.937a0.351,0.351,0,0,0-.094-0.315,4.489,4.489,0,0,1,.031-1.2V29.636H19.812l-0.031-.41H19.687a1.707,1.707,0,0,1-.846,1.513,2.154,2.154,0,0,1-1.285-.126c-0.957-.273-2.244-0.428-2.6-1.293a1.475,1.475,0,0,1,.282-1.513,4.511,4.511,0,0,1,1.16-.662c0.529-.276,1.074-0.577,1.6-0.851a5.871,5.871,0,0,0,1.411-.82,8.153,8.153,0,0,0-.157-1.8c-0.153-.677,0-1.446-0.188-2.081A4.173,4.173,0,0,0,17.4,19.2c-0.648-.4-1.9-0.22-2.727-0.41l-0.658-.032c-1.518-.349-3.218-0.246-4.733-0.6-0.528-.123-1.076-0.075-1.567-0.189-0.69-.161-1.439-0.1-2.1-0.252l-0.784-.063C4.484,17.571,3.969,17.6,3.511,17.5c-0.372-.087-0.792-0.057-1.191-0.158a4.671,4.671,0,0,1-1.5-.6,1.792,1.792,0,0,1-.5-0.378,1.633,1.633,0,0,1,.345-2.27,7.619,7.619,0,0,1,2.476-.6c0.644-.157,1.391-0.19,2.038-0.347L5.8,13.085a14.4,14.4,0,0,1,2.414-.378v-1.45H8.276v1.419a3.409,3.409,0,0,0,.784-0.126c0.417-.1.841-0.1,1.223-0.189,0.767-.186,1.556-0.167,2.288-0.347,0.4-.1,1.266-0.076,1.411-0.378V10.027A1.356,1.356,0,0,1,14.2,9.491,2.357,2.357,0,0,0,14.828,9.4h-0.22V9.27a11.6,11.6,0,0,1-2.539-.095V9.112a10.177,10.177,0,0,1,2.539-.063,1.905,1.905,0,0,1,.282-0.725h0.157a2.22,2.22,0,0,1,.282.725,6.678,6.678,0,0,1,2.539.063,0.113,0.113,0,0,1-.063.032,1.42,1.42,0,0,1-.533.095,8.819,8.819,0,0,1-1.944.032V9.4H15.11V9.459h0.564a1.778,1.778,0,0,1,.188.189,7.262,7.262,0,0,1,.063,1.986,5.088,5.088,0,0,0,.564.284h0.6a8.4,8.4,0,0,0,1.6-.063,1.834,1.834,0,0,0,.251-0.315,3.158,3.158,0,0,0,.031-0.914c0-.779-0.034-1.409.031-2.081a0.528,0.528,0,0,1-.031-0.189A0.912,0.912,0,0,1,19.4,7.725a0.542,0.542,0,0,1,.251-0.063h0.063V7h0.063a2.189,2.189,0,0,0,.031.441h0.345Z"/>
</svg>
