<svg xmlns="http://www.w3.org/2000/svg" width="40" height="40" viewBox="0 0 40 40">
  <defs>
    <style>
      .cls-1 {
        fill: #fff;
        fill-rule: evenodd;
      }
    </style>
  </defs>
  <path id="Color_Fill_1" data-name="Color Fill 1" class="cls-1" d="M20.282,7.661A0.824,0.824,0,0,1,21,8.448c-0.063,0-.009-0.032-0.063,0a1.282,1.282,0,0,1,.094.787h0.188c-0.008.176,0,.279,0,0.5a0.53,0.53,0,0,1-.188-0.031V11.5c0.055,0.067.065,0.187,0.125,0.252s0.184,0.093.251,0.157c0.753,0.015,2.421.128,2.633-.346V10.9a4.359,4.359,0,0,0,.063-0.63,1.935,1.935,0,0,1,.157-0.189V9.928a4.692,4.692,0,0,1,.251-0.567c0.122,0,.141.016,0.188-0.063a0.261,0.261,0,0,1-.157-0.031,0.162,0.162,0,0,0,.031-0.094,9.422,9.422,0,0,1-2.32-.094V9.047h0.031a7,7,0,0,1,2.351-.063,1.934,1.934,0,0,0,.282-0.693H25.11a4.089,4.089,0,0,0,.251.693,6.642,6.642,0,0,1,1.818,0,0.9,0.9,0,0,1,.6.126c-0.22.028-.5,0.078-0.721,0.126a7.277,7.277,0,0,1-1.6-.063V9.3H25.3V9.361h0.219c0.082,0.308.324,0.655,0.408,0.945L25.988,11.6c0.148,0.073.29,0.227,0.439,0.283l0.282,0.031a0.829,0.829,0,0,0,.125.126,0.75,0.75,0,0,1,.282-0.063,0.49,0.49,0,0,0,.125.126,1.368,1.368,0,0,1,.314-0.063c0.516,0.108,1.12.159,1.63,0.283l0.627,0.063c0.587,0.143,1.229.132,1.849,0.283,1.9,0.464,4.023.484,5.925,0.945a10.579,10.579,0,0,1,1.254.22,1.661,1.661,0,0,1,.815,2.55,1.806,1.806,0,0,1-.439.315,4.671,4.671,0,0,1-1.473.63c-0.477.124-.99,0.085-1.442,0.189l-1.066.094a8.164,8.164,0,0,1-1.912.22,5.723,5.723,0,0,0-.941.158c-0.529.121-1.076,0.076-1.567,0.189a2.718,2.718,0,0,1-.69.031c-0.038,0-.31.079-0.376,0.094-0.362.084-.736,0.05-1.066,0.126-0.849.2-1.78,0.128-2.6,0.315l-0.658.032c-0.617.137-1.357,0.082-1.975,0.22a3.128,3.128,0,0,0-.752.126,3.063,3.063,0,0,0-1.035,1.008,4.746,4.746,0,0,0-.752,1.48l-0.031.441c-0.146.639-.084,1.356-0.188,2.047a5.165,5.165,0,0,0-.094,1.354,1.992,1.992,0,0,0,1,.63c0.688,0.42,1.48.791,2.194,1.165a1.958,1.958,0,0,1,1.317,1.228c0.348,1.5-1.548,1.792-2.508,2.078a2.531,2.531,0,0,1-1.379.189,1.547,1.547,0,0,1-.846-0.976,0.113,0.113,0,0,0-.031.063,0.678,0.678,0,0,0-.031.189,0.231,0.231,0,0,1-.188.063L20.031,32H19.969a0.745,0.745,0,0,0-.125-0.378,10.881,10.881,0,0,0,0-1.606,2.191,2.191,0,0,1,.031-0.378,2.576,2.576,0,0,1-.063-0.409H19.687a1.412,1.412,0,0,1-.219.819,1.228,1.228,0,0,1-.6.661,1.75,1.75,0,0,1-1.066-.063,14.079,14.079,0,0,1-1.63-.472,1.848,1.848,0,0,1-1.191-.85,1.406,1.406,0,0,1,.376-1.606,4.746,4.746,0,0,1,1.1-.6c0.627-.341,1.334-0.667,1.944-1.039a5.034,5.034,0,0,0,1.034-.63,7.934,7.934,0,0,0-.157-1.669V23.4L19.091,21.61A4.062,4.062,0,0,0,17.3,19.122a5.087,5.087,0,0,0-1.1-.157c-0.615-.142-1.359-0.075-1.975-0.22l-0.564-.031c-0.579-.138-1.241-0.077-1.85-0.22-1.38-.326-2.814-0.2-4.2-0.535-0.431-.1-0.888-0.062-1.285-0.157-0.527-.126-1.077-0.072-1.567-0.189L3.7,17.516c-0.451-.107-0.966-0.062-1.442-0.189a5,5,0,0,1-1.6-.661,1.612,1.612,0,0,1-.094-2.487c0.774-.568,1.6-0.431,2.665-0.693,0.718-.177,1.5-0.161,2.257-0.346A8.945,8.945,0,0,1,7.3,12.856a0.333,0.333,0,0,0,.125.157c0.159-.028.362-0.061,0.5-0.095l0.031-.095a0.161,0.161,0,0,0,.031-0.094L8.245,12.7V11.282H8.307V12.7H8.339a4.119,4.119,0,0,1,1.034-.157c0.778-.19,1.669-0.221,2.445-0.409l0.815-.094a0.2,0.2,0,0,0,.125.063,0.469,0.469,0,0,0,.125-0.126,0.75,0.75,0,0,1,.282.063,0.829,0.829,0,0,0,.125-0.126,1.06,1.06,0,0,0,.721-0.378,4.677,4.677,0,0,0,.031-0.976,4.993,4.993,0,0,1,.439-1.2H14.7V9.3H14.546V9.173a3.23,3.23,0,0,0-.658.063,4.12,4.12,0,0,1-1.661-.157V9.047h0.031a7.189,7.189,0,0,1,2.382-.063,6.739,6.739,0,0,0,.251-0.693h0.188a1.076,1.076,0,0,0,.376.693,4.541,4.541,0,0,1,1.693,0,0.9,0.9,0,0,1,.6.126H17.68a6.615,6.615,0,0,1-2.257.063,0.4,0.4,0,0,0,.031.126c-0.118,0-.11-0.015-0.157.063a0.329,0.329,0,0,1,.188.031,2.364,2.364,0,0,1,.251.693,1.909,1.909,0,0,1,.157.189,5.083,5.083,0,0,1,.063,1.291,1.351,1.351,0,0,0,.846.346c0.705,0.015,1.9.167,2.132-.315a2.985,2.985,0,0,0,.031-0.976c0-1.172-.291-2.778.752-2.96L19.749,7h0.063a0.942,0.942,0,0,0,.031.409,0.666,0.666,0,0,0,.313.031V7.409h0.031A0.511,0.511,0,0,1,20.251,7V7.409A0.5,0.5,0,0,1,20.282,7.661Z"/>
</svg>
