<svg xmlns="http://www.w3.org/2000/svg" width="40" height="40" viewBox="0 0 40 40">
  <defs>
    <style>
      .cls-1 {
        fill: #fff;
        fill-rule: evenodd;
      }
    </style>
  </defs>
  <path id="Color_Fill_1" data-name="Color Fill 1" class="cls-1" d="M31.065,16.006a0.2,0.2,0,0,1,.042-0.126c0.017,0.15-.02.105,0.084,0.168a5.751,5.751,0,0,0,1.5.461c1.036,0.345,2.131.737,3.215,1.005,0-.163-0.021-0.188.084-0.251a7.418,7.418,0,0,0,1.712.5,5.7,5.7,0,0,1,.418-1.926c0.1-.239.335-0.383,0.418-0.628a0.152,0.152,0,0,1,.042.084c0.567,0.192.607,1.1,0.752,1.759,0.372,1.7-.088,4.124-0.209,5.737L40,23.418V24l-1.336.042a3.393,3.393,0,0,0-.5-1.214,1.288,1.288,0,0,0-.292-0.754,2.209,2.209,0,0,0-1-.084H34.405c-3.213,0-6.175,0-9.395,0,0,3.29-.122,6.88-0.125,10.26a1.194,1.194,0,0,1,1.253.461,2.081,2.081,0,0,1,.125,1.256c0,1.262-.17,2.118-1.378,2.178a0.934,0.934,0,0,1-.292.67,0.143,0.143,0,0,1-.084-0.042,0.935,0.935,0,0,1-.292-0.67H15.783a1.442,1.442,0,0,1-.292.712,0.143,0.143,0,0,1-.084-0.042,0.675,0.675,0,0,1-.292-0.628,1.28,1.28,0,0,1-1.336-1.173V34.432a4.141,4.141,0,0,1,.083-1.8,1.852,1.852,0,0,1,1.253-.377c0.007-3.377-.121-6.969-0.125-10.26-3.288,0-6.318,0-9.6,0H3.006a1.431,1.431,0,0,0-.919.126,1.218,1.218,0,0,0-.251.712c-0.11.3-.339,0.594-0.459,0.879A1.513,1.513,0,0,1,1.294,24a0.451,0.451,0,0,1-.251.042A2.784,2.784,0,0,0,0,24V23.418a2.023,2.023,0,0,0,.877-0.8,8.352,8.352,0,0,1-.167-1.8A12.343,12.343,0,0,1,.752,16.34l0.334-.8A3.314,3.314,0,0,0,1.42,15.21a0.151,0.151,0,0,1,.042.084,3.313,3.313,0,0,1,.752,1.675,3.074,3.074,0,0,0,.125.838,8.686,8.686,0,0,1,1.754-.544c0,0.163-.021.188,0.084,0.251a5.238,5.238,0,0,1,1.378-.419c1.076-.359,2.218-0.77,3.34-1.047a0.271,0.271,0,0,1,.042-0.168,0.271,0.271,0,0,0,.042.168,10.668,10.668,0,0,1,2.088-.628c1.57-.527,3.343-0.924,4.843-1.549,0.481-.2,1.948-0.439,1.963-1.005a3.807,3.807,0,0,0,.042-0.67c0.015-.056.11-0.2,0.125-0.251V11.022c0.149-.681-0.072-1.553.083-2.261,0.071-.323,0-0.734.084-1.089a9.112,9.112,0,0,1,.752-2.89,1.4,1.4,0,0,1,1.169-.963c0.081,0.066.2,0.063,0.292,0.126a3.184,3.184,0,0,1,.71.879A7.231,7.231,0,0,1,21.67,6.96c0.194,0.83.056,1.9,0.251,2.806v1.3c0.046,0.214-.028.619,0.042,0.879a6.406,6.406,0,0,1,.167,1.173,33.738,33.738,0,0,0,5.428,1.843c0.768,0.256,1.575.446,2.38,0.712A5.271,5.271,0,0,0,31.065,16.006ZM15.783,31.393h8.434q-0.042-3.748-.083-7.5V22.1a0.8,0.8,0,0,0-.125-0.67,3.174,3.174,0,0,1-.585.293,3.576,3.576,0,0,0-.877.754A13.482,13.482,0,0,0,21.086,25.4c-0.277.672-.506,1.357-0.752,2.01a1.658,1.658,0,0,1-.376.879,16.953,16.953,0,0,0-1-2.638C18.1,23.6,17.9,22.331,15.866,21.385v4.272a6.549,6.549,0,0,0-.042,1.633Z"/>
</svg>
