<svg xmlns="http://www.w3.org/2000/svg" width="40" height="40" viewBox="0 0 40 40">
  <defs>
    <style>
      .cls-1 {
        fill: #fff;
        fill-rule: evenodd;
      }
    </style>
  </defs>
  <path id="Color_Fill_1" data-name="Color Fill 1" class="cls-1" d="M21.221,4.33a15.8,15.8,0,0,1,3.019.132c0.471,0.1.969-.048,1.376,0.088V4.594a41.619,41.619,0,0,1-4.351.352A3.662,3.662,0,0,0,21.576,6V6.749C21.615,6.837,21.9,7.006,21.8,7.1a0.364,0.364,0,0,0-.222.264,0.434,0.434,0,0,1,.222.352,0.364,0.364,0,0,0-.222.264,0.434,0.434,0,0,1,.222.352,0.364,0.364,0,0,0-.222.264,0.434,0.434,0,0,1,.222.352,0.364,0.364,0,0,0-.222.264c0.5,0.336,2.223.183,3.063,0.176a2.134,2.134,0,0,0,.8.044L27.17,9.475c0-.807.055-1.58,0.089-2.286h0.178a21.584,21.584,0,0,1,.133,2.33,8.907,8.907,0,0,1,2,.132c0.514,0.117,1.091.026,1.554,0.132h0.533c0.664,0.151,1.467.164,2.042,0.352,0.108,0.035.756-.034,1.066,0.044,0.956,0.24,2.018.348,2.886,0.659,0.756,0.272,2.647.73,2.308,1.935a4.008,4.008,0,0,1-1.865,1.935,3.721,3.721,0,0,0-.622.352,0.6,0.6,0,0,1-.178-0.088,1.121,1.121,0,0,1-.843.528c-0.671.292-1.372,0.557-2.131,0.835-1.014.372-2.169,0.629-3.285,0.923-0.743.2-1.35,0.171-2.087,0.352-0.7.172-1.453,0.155-2.131,0.308-1.1.248-2.3,0.073-3.374,0.308a6.333,6.333,0,0,0-.888.088c-0.7.278-1.008,1.359-1.2,2.155L21.31,21.7l-0.666,8.4a7.7,7.7,0,0,1,4.218,1.451,1.42,1.42,0,0,1,.8,1.539C25.3,34.318,22.669,34.539,21,34.45c-0.232-.373-0.507-0.73-0.71-1.143H20.244v0.836a10.148,10.148,0,0,0-.089,2.814,0.962,0.962,0,0,1-.311.044,0.687,0.687,0,0,1-.044-0.22,2.653,2.653,0,0,0,.044-0.967c0-.9-0.123-1.53-0.133-2.418H19.623v0.044c-0.284.294-.353,0.983-0.888,1.011a4.148,4.148,0,0,1-1.643-.044l-0.533-.044c-0.685-.206-2.683-0.556-2.264-1.891a2.653,2.653,0,0,1,1.421-1.319,7.821,7.821,0,0,1,3.6-1.055l-0.666-8.4q-0.022-.616-0.044-1.231a3.291,3.291,0,0,0-1.11-2.111,3.678,3.678,0,0,0-.977-0.132c-0.924-.206-2.02-0.047-2.975-0.264-0.725-.165-1.522-0.122-2.264-0.308-0.821-.205-1.544-0.18-2.353-0.4a33.307,33.307,0,0,1-3.907-1.143c-0.812-.332-1.892-0.509-2.4-1.143-0.083.078-.035,0.081-0.133,0.044a3.7,3.7,0,0,1-1.11-.7C0.548,13.721-.662,12.773.488,11.673c0.1-.1.257-0.163,0.355-0.264l0.044-.132H1.11c0.4-.15.886-0.382,1.332-0.528l2.753-.572c0.319-.08.944-0.007,1.065-0.044V10.047C6.273,10.04,6.393,10,6.393,10H6.748c0.643-.147,1.4-0.068,2.087-0.22a18.311,18.311,0,0,1,3.552-.264c-0.007-.856.076-1.632,0.133-2.374H12.7c0.016,0.726.086,1.507,0.089,2.33,1.818,0,3.577-.084,5.461-0.088a1.579,1.579,0,0,0,.133-0.308l-0.266-.132,0.044-.132a0.509,0.509,0,0,0,.222-0.352l-0.266-.132L18.158,8.2a0.509,0.509,0,0,0,.222-0.352l-0.266-.132,0.044-.132a0.509,0.509,0,0,0,.222-0.352L18.113,7.1l0.044-.132A1.361,1.361,0,0,0,18.38,6a4.127,4.127,0,0,0,.311-1.1,13.517,13.517,0,0,1-2.974-.176A4.7,4.7,0,0,1,14.34,4.55l1.776-.132h0.932l1.687-.088c0.037,0.143-.022.067,0.089,0.132C18.852,3.786,19.5,2.054,20.067,2c0.094,0.149.262,0.25,0.355,0.4a6.651,6.651,0,0,1,.533,1.231,1.742,1.742,0,0,0,.266.835V4.33Z"/>
</svg>
