<svg width="38" height="38" viewBox="0 0 38 38" fill="none" xmlns="http://www.w3.org/2000/svg">
<path d="M6.57715 29.6182H5.06055V23.7559H6.57715V29.6182ZM18.0586 25.0869H20.6582V28.3506H18.0586L16.1104 29.1592V29.127H7.22656V24.2627H16.1104L18.0586 25.0869ZM26.293 25.0557C28.8919 25.0558 30.6236 25.8629 31.4902 26.3066C31.7068 26.3858 31.709 26.5289 31.709 26.7031C31.709 26.8774 31.7069 26.9887 31.4902 27.0996C30.6236 27.5116 28.8905 28.335 26.5078 28.335L26.293 28.3193H22.1758V25.0557H26.293ZM6.57715 21.8174H5.06055V15.9551H6.57715V21.8174ZM18.0586 17.2861H20.6582V20.5498H18.0586L16.1104 21.3584V21.3262H7.22656V16.4619H16.1104L18.0586 17.2861ZM26.293 17.2549C28.8919 17.255 30.6236 18.0622 31.4902 18.5059C31.7068 18.5851 31.709 18.7281 31.709 18.9023C31.709 19.0766 31.7069 19.1879 31.4902 19.2988C30.6236 19.7109 28.8905 20.5342 26.5078 20.5342L26.293 20.5186H22.1758V17.2549H26.293ZM6.57715 14.0186H5.06055V8.15625H6.57715V14.0186ZM18.0586 9.4873H20.6582V12.751H18.0586L16.1104 13.5596V13.5273H7.22656V8.66309H16.1104L18.0586 9.4873ZM26.293 9.45605C28.8919 9.45615 30.6236 10.2633 31.4902 10.707C31.7068 10.7862 31.709 10.9293 31.709 11.1035C31.709 11.2778 31.7069 11.3891 31.4902 11.5C30.6236 11.912 28.8905 12.7354 26.5078 12.7354L26.293 12.7197H22.1758V9.45605H26.293Z" fill="white"/>
</svg>
