<svg width="100" height="100" viewBox="0 0 100 100" xmlns="http://www.w3.org/2000/svg">
<defs>
<style>.cls-1 {
        fill: #fff;
        fill-rule: evenodd;
      }</style>
</defs>
<path class="cls-1" d="M88.008,90.048V8.8a4.776,4.776,0,0,0-4.713-4.822H22.609c-2.6,0-4.711,1.411-4.711,4.069l0,0.964h55.39A4.774,4.774,0,0,1,78,13.836v81.34A4.776,4.776,0,0,1,73.284,100H12.712A4.776,4.776,0,0,1,8,95.176V14.5a5.124,5.124,0,0,1,.042-0.659C8.017,13.534,8,13.221,8,12.9,8,5.778,14.807,0,23.191,0h3.734a0.122,0.122,0,0,0,.042,0H87.281a4.773,4.773,0,0,1,4.713,4.82V85.5C91.995,87.6,89.842,89.39,88.008,90.048Zm-73.1-31.755a2.828,2.828,0,0,0-.575,3.046l5.577,6.916,2.879-1.087,1.273,1.346-0.919,2.994,6.629,5.7a2,2,0,0,0,2.842-.541l1.673-1.682-5.242-9.976C33.3,62.354,37.559,58.66,42.221,55.1L64.726,72.5c3.738-2.009,7.269-5.2,6.438-6.327L51.047,45.1l4.055-5.3a3.888,3.888,0,0,0-.391-2.813l0.8-.835,6.519,6.485c0.635-.271,1.841-1.839.906-2.778-1.483-1.465-3.3-1.5-6.634-4.017l0.154-.141a0.347,0.347,0,0,0-.009-0.482l-0.4-.381,0.182-.186a0.225,0.225,0,0,0-.009-0.28l-0.054-.047a0.181,0.181,0,0,0-.263,0l-0.177.183-0.394-.381a0.323,0.323,0,0,0-.465-0.01l-0.14.162c-2.544-3.34-2.544-5.14-4.01-6.593C49.769,26.755,48.254,28,48,28.67l6.471,6.45-0.8.826A2.769,2.769,0,0,0,50.4,35.5l-4.851,3.928L25.381,19.068c-1.5-.654-6.736,5.492-6.335,6.676L35.718,48.911c-3.294,4.451-6.594,8.9-9.478,13.234l-9.811-5.4ZM80.3,6.453a4.774,4.774,0,0,1,4.713,4.822V88.724c0,2.1-2.19,3.893-4.025,4.552v-82c0-2.658-1.491-4.822-4.088-4.822h3.4Z"/>
</svg>
