<svg width="32" height="32" viewBox="0 0 32 32" fill="none" xmlns="http://www.w3.org/2000/svg">
<path fill-rule="evenodd" clip-rule="evenodd" d="M14.8526 9.71407V7.19629H14.8443H13.1912L11.5381 6.35703H14.0178V5.51778C14.4889 5.12332 15.2163 4.72048 15.6709 4.67852V3H16.4974V4.66173C17.0264 4.70369 17.8282 5.19886 18.1505 5.50099V6.34025H20.6302L19.7954 6.75988L18.9688 7.17951H17.3157V9.58818C17.9439 9.64693 18.9771 10.5365 18.9771 10.5365V13.0459H18.1505V16.4114H18.9688L19.8036 18.0815H20.7459C20.5475 18.3249 20.3822 18.6018 20.2913 18.9123C20.1425 19.2648 19.7788 19.4746 19.3408 19.4495H19.1507C18.7704 19.4914 18.4068 19.248 18.2828 18.9543C17.9852 17.9388 17.0512 17.2254 16.0098 17.2254C14.9683 17.2254 14.0508 17.922 13.745 18.9207C13.5962 19.2732 13.2325 19.4914 12.7945 19.4579H12.6044C12.2242 19.4998 11.8522 19.2564 11.7365 18.9627C11.6456 18.6438 11.4803 18.3584 11.2736 18.1067H12.3729L13.1995 16.4281H14.026V13.0711H13.1995V10.5533C13.6293 10.1169 13.9434 9.82317 14.8526 9.71407ZM16.0593 23.3268C18.01 24.5605 20.6467 24.5605 22.5973 23.3268V23.3352C23.0767 23.6457 23.5892 23.8807 24.1264 24.0401L20.9525 29.0002H11.0091L7.87643 24.0485C8.44675 23.8891 8.99228 23.6541 9.48821 23.3352C10.4718 23.973 11.6207 24.3255 12.7614 24.2835C13.9185 24.2751 15.0757 23.9562 16.0593 23.3268Z" fill="white"/>
<path d="M27.8518 21.3229C27.7319 21.0679 27.492 20.9039 27.2441 20.9039C27.1322 20.9039 27.0122 20.9403 26.9163 21.0041C26.4685 21.2774 25.9728 21.414 25.469 21.414C24.3816 21.5142 23.3581 20.7672 22.9743 19.6012C22.8943 19.246 22.6145 19 22.3026 19C21.9908 19 21.7029 19.246 21.631 19.6012C21.2472 20.7672 20.2237 21.5142 19.1363 21.414C18.0488 21.5142 17.0253 20.7672 16.6415 19.6012C16.5616 19.246 16.2817 19 15.9699 19C15.658 19 15.3702 19.246 15.2982 19.6012C14.9144 20.7672 13.8909 21.5142 12.8035 21.414C11.7161 21.5142 10.6926 20.7672 10.3088 19.6012C10.2288 19.246 9.94896 19 9.63712 19C9.32528 19 9.03743 19.246 8.96546 19.6012C8.58166 20.7672 7.55818 21.5142 6.47074 21.414C5.96699 21.414 5.46325 21.2774 5.02348 21.0041C4.91953 20.9403 4.80759 20.913 4.69564 20.913C4.31184 20.913 4 21.2683 4 21.7055C4 21.997 4.14393 22.2612 4.36781 22.3978C5.01548 22.7895 5.74311 22.9991 6.47873 22.9991C7.68612 23.0173 8.83753 22.4525 9.65311 21.4413C10.4687 22.4525 11.6201 23.0264 12.8275 22.9991C14.0349 23.0173 15.1863 22.4525 16.0019 21.4413C16.8254 22.4343 17.9769 22.9991 19.1762 22.9991C20.3756 22.9991 21.527 22.4343 22.3506 21.4413C23.1662 22.4525 24.3176 23.0264 25.525 22.9991C26.2606 22.9991 26.9882 22.7987 27.6359 22.3978C27.9717 22.1883 28.0997 21.7055 27.9158 21.3229H27.8518Z" fill="#82A3B3"/>
<path fill-rule="evenodd" clip-rule="evenodd" d="M14.8538 9.71407V7.19629H14.8455H13.1924L11.5393 6.35703H14.0189V5.51778C14.4901 5.12332 15.2174 4.72048 15.672 4.67852V3H16.4986V4.66173C17.0276 4.70369 17.8293 5.19886 18.1517 5.50099V6.34025H20.6314L19.7965 6.75988L18.97 7.17951H17.3169V9.58818C17.9451 9.64693 18.9782 10.5365 18.9782 10.5365V13.0459H18.1517V16.4114H18.97L19.8048 18.0815H20.7471C20.5487 18.3249 20.3834 18.6018 20.2925 18.9123C20.1437 19.2648 19.78 19.4746 19.3419 19.4495H19.1518C18.7716 19.4914 18.4079 19.248 18.2839 18.9543C17.9864 17.9388 17.0524 17.2254 16.0109 17.2254C14.9695 17.2254 14.052 17.922 13.7462 18.9207C13.5974 19.2732 13.2337 19.4914 12.7956 19.4579H12.6055C12.2253 19.4998 11.8534 19.2564 11.7377 18.9627C11.6467 18.6438 11.4814 18.3584 11.2748 18.1067H12.3741L13.2007 16.4281H14.0272V13.0711H13.2007V10.5533C13.6305 10.1169 13.9445 9.82317 14.8538 9.71407ZM16.0605 23.3268C18.0111 24.5605 20.6478 24.5605 22.5985 23.3268V23.3352C23.0779 23.6457 23.5903 23.8807 24.1276 24.0401L20.9536 29.0002H11.0102L7.8776 24.0485C8.44792 23.8891 8.99345 23.6541 9.48938 23.3352C10.473 23.973 11.6219 24.3255 12.7625 24.2835C13.9197 24.2751 15.0769 23.9562 16.0605 23.3268Z" fill="white"/>
<path d="M27.8518 21.3229C27.7319 21.0679 27.492 20.9039 27.2441 20.9039C27.1322 20.9039 27.0122 20.9403 26.9163 21.0041C26.4685 21.2774 25.9728 21.414 25.469 21.414C24.3816 21.5142 23.3581 20.7672 22.9743 19.6012C22.8943 19.246 22.6145 19 22.3026 19C21.9908 19 21.7029 19.246 21.631 19.6012C21.2472 20.7672 20.2237 21.5142 19.1363 21.414C18.0488 21.5142 17.0253 20.7672 16.6415 19.6012C16.5616 19.246 16.2817 19 15.9699 19C15.658 19 15.3702 19.246 15.2982 19.6012C14.9144 20.7672 13.8909 21.5142 12.8035 21.414C11.7161 21.5142 10.6926 20.7672 10.3088 19.6012C10.2288 19.246 9.94896 19 9.63712 19C9.32528 19 9.03743 19.246 8.96546 19.6012C8.58166 20.7672 7.55818 21.5142 6.47074 21.414C5.96699 21.414 5.46325 21.2774 5.02348 21.0041C4.91953 20.9403 4.80759 20.913 4.69564 20.913C4.31184 20.913 4 21.2683 4 21.7055C4 21.997 4.14393 22.2612 4.36781 22.3978C5.01548 22.7895 5.74311 22.9991 6.47873 22.9991C7.68612 23.0173 8.83753 22.4525 9.65311 21.4413C10.4687 22.4525 11.6201 23.0264 12.8275 22.9991C14.0349 23.0173 15.1863 22.4525 16.0019 21.4413C16.8254 22.4343 17.9769 22.9991 19.1762 22.9991C20.3756 22.9991 21.527 22.4343 22.3506 21.4413C23.1662 22.4525 24.3176 23.0264 25.525 22.9991C26.2606 22.9991 26.9882 22.7987 27.6359 22.3978C27.9717 22.1883 28.0997 21.7055 27.9158 21.3229H27.8518Z" fill="#82A3B3"/>
</svg>
