<svg width="43" height="43"><path d="M 18 35.574 C 12.807 34.285 8.715 30.193 7.426 25 L 8.459 25 C 9.703 29.64 13.36 33.297 18 34.541 L 18 35.574 Z M 35.574 25 C 34.285 30.193 30.193 34.285 25 35.574 L 25 34.541 C 29.64 33.297 33.297 29.64 34.541 25 L 35.574 25 Z M 25 7.426 C 30.193 8.715 34.285 12.807 35.574 18 L 34.541 18 C 33.297 13.36 29.64 9.703 25 8.459 L 25 7.426 Z M 7.426 18 C 8.715 12.807 12.807 8.715 18 7.426 L 18 8.459 C 13.36 9.703 9.703 13.36 8.459 18 L 7.426 18 Z" fill="none" stroke-width="2" stroke="#000" stroke-opacity="0.15" stroke-linejoin="round" stroke-miterlimit="3"/><path d="M 7 21 L 1 21 L 1 22 L 7 22 L 7 23 L 8 23 L 8 20 L 7 20 L 7 21 Z" fill="none" stroke-width="2" stroke="#000" stroke-opacity="0.15" stroke-linejoin="round" stroke-miterlimit="3"/><path d="M 21 36 L 21 42 L 22 42 L 22 36 L 23 36 L 23 35 L 20 35 L 20 36 L 21 36 Z" fill="none" stroke-width="2" stroke="#000" stroke-opacity="0.15" stroke-linejoin="round" stroke-miterlimit="3"/><path d="M 36 22 L 42 22 L 42 21 L 36 21 L 36 20 L 35 20 L 35 23 L 36 23 L 36 22 Z" fill="none" stroke-width="2" stroke="#000" stroke-opacity="0.15" stroke-linejoin="round" stroke-miterlimit="3"/><path d="M 22 7 L 22 1 L 21 1 L 21 7 L 20 7 L 20 8 L 23 8 L 23 7 L 22 7 Z" fill="none" stroke-width="2" stroke="#000" stroke-opacity="0.15" stroke-linejoin="round" stroke-miterlimit="3"/><path d="M 20 21.5 C 20 20.672 20.672 20 21.5 20 C 22.328 20 23 20.672 23 21.5 C 23 22.328 22.328 23 21.5 23 C 20.672 23 20 22.328 20 21.5 Z" fill="none" stroke-width="2" stroke="#000" stroke-opacity="0.15" stroke-linejoin="round" stroke-miterlimit="3"/><g><path d="M 18 35.574 C 12.807 34.285 8.715 30.193 7.426 25 L 8.459 25 C 9.703 29.64 13.36 33.297 18 34.541 L 18 35.574 Z M 35.574 25 C 34.285 30.193 30.193 34.285 25 35.574 L 25 34.541 C 29.64 33.297 33.297 29.64 34.541 25 L 35.574 25 Z M 25 7.426 C 30.193 8.715 34.285 12.807 35.574 18 L 34.541 18 C 33.297 13.36 29.64 9.703 25 8.459 L 25 7.426 Z M 7.426 18 C 8.715 12.807 12.807 8.715 18 7.426 L 18 8.459 C 13.36 9.703 9.703 13.36 8.459 18 L 7.426 18 Z" fill="none" stroke="#000" stroke-opacity="0.15" stroke-linejoin="round" stroke-miterlimit="3"/><path d="M 7 21 L 1 21 L 1 22 L 7 22 L 7 23 L 8 23 L 8 20 L 7 20 L 7 21 Z" fill="none" stroke="#000" stroke-opacity="0.15" stroke-linejoin="round" stroke-miterlimit="3"/><path d="M 21 36 L 21 42 L 22 42 L 22 36 L 23 36 L 23 35 L 20 35 L 20 36 L 21 36 Z" fill="none" stroke="#000" stroke-opacity="0.15" stroke-linejoin="round" stroke-miterlimit="3"/><path d="M 36 22 L 42 22 L 42 21 L 36 21 L 36 20 L 35 20 L 35 23 L 36 23 L 36 22 Z" fill="none" stroke="#000" stroke-opacity="0.15" stroke-linejoin="round" stroke-miterlimit="3"/><path d="M 22 7 L 22 1 L 21 1 L 21 7 L 20 7 L 20 8 L 23 8 L 23 7 L 22 7 Z" fill="none" stroke="#000" stroke-opacity="0.15" stroke-linejoin="round" stroke-miterlimit="3"/><path d="M 20 21.5 C 20 20.672 20.672 20 21.5 20 C 22.328 20 23 20.672 23 21.5 C 23 22.328 22.328 23 21.5 23 C 20.672 23 20 22.328 20 21.5 Z" fill="none" stroke="#000" stroke-opacity="0.15" stroke-linejoin="round" stroke-miterlimit="3"/></g><g><path d="M 18 35.574 C 12.807 34.285 8.715 30.193 7.426 25 L 8.459 25 C 9.703 29.64 13.36 33.297 18 34.541 L 18 35.574 Z M 35.574 25 C 34.285 30.193 30.193 34.285 25 35.574 L 25 34.541 C 29.64 33.297 33.297 29.64 34.541 25 L 35.574 25 Z M 25 7.426 C 30.193 8.715 34.285 12.807 35.574 18 L 34.541 18 C 33.297 13.36 29.64 9.703 25 8.459 L 25 7.426 Z M 7.426 18 C 8.715 12.807 12.807 8.715 18 7.426 L 18 8.459 C 13.36 9.703 9.703 13.36 8.459 18 L 7.426 18 Z" fill-rule="evenodd" fill="#FFF"/><path d="M 7 21 L 1 21 L 1 22 L 7 22 L 7 23 L 8 23 L 8 20 L 7 20 L 7 21 Z" fill="#FFF"/><path d="M 21 36 L 21 42 L 22 42 L 22 36 L 23 36 L 23 35 L 20 35 L 20 36 L 21 36 Z" fill="#FFF"/><path d="M 36 22 L 42 22 L 42 21 L 36 21 L 36 20 L 35 20 L 35 23 L 36 23 L 36 22 Z" fill="#FFF"/><path d="M 22 7 L 22 1 L 21 1 L 21 7 L 20 7 L 20 8 L 23 8 L 23 7 L 22 7 Z" fill="#FFF"/><path d="M 20 21.5 C 20 20.672 20.672 20 21.5 20 C 22.328 20 23 20.672 23 21.5 C 23 22.328 22.328 23 21.5 23 C 20.672 23 20 22.328 20 21.5 Z" fill="#FFF"/></g></svg>