<svg xmlns="http://www.w3.org/2000/svg" width="46" height="20" viewBox="0 0 46 20">
  <defs>
    <style>
      .cls-1 {
        fill: #fff;
      }
    </style>
  </defs>
  <g id="Layer_7" data-name="Layer 7">
    <g>
      <rect x="22.25" y="5.26086" width="7.5" height="10.4726" rx="0.75"/>
      <rect x="14.25" y="5.26086" width="7.5" height="10.4726" rx="0.75"/>
      <path d="M41.05933,5.26086H31a.75.75,0,0,0-.75.75v8.9726a.75.75,0,0,0,.75.75,1.325,1.325,0,0,0,.174-.01148c.21008-.0371,5.19592-1.00231,10.48792-9.269a.74923.74923,0,0,0-.60254-1.19208Z"/>
      <path d="M13,5.26086H6.03259a.75008.75008,0,0,0-.73169.91486l2.02173,8.9726a.75009.75009,0,0,0,.73169.58514H13a.75.75,0,0,0,.75-.75V6.01086A.75.75,0,0,0,13,5.26086Z"/>
    </g>
    <g>
      <path class="cls-1" d="M29,6.01086H23v8.9726h6Z"/>
      <path class="cls-1" d="M15,14.98346h6V6.01086H15Z"/>
      <path class="cls-1" d="M31,6.01086v8.9726h.04346s4.82617-.853,10.01086-8.9726Z"/>
      <path class="cls-1" d="M13,6.01086H6.03259l2.02173,8.9726H13Z"/>
    </g>
  </g>
</svg>
