<svg width="25" height="25"><path d="M 16.538 22.194 C 13.96 23.266 11.04 23.266 8.462 22.194 L 9.235 21.422 C 11.339 22.19 13.661 22.19 15.765 21.422 L 16.538 22.194 Z M 22.194 8.462 C 23.266 11.04 23.266 13.96 22.194 16.538 L 21.422 15.765 C 22.19 13.661 22.19 11.339 21.422 9.235 L 22.194 8.462 Z M 8.462 2.806 C 11.04 1.734 13.96 1.734 16.538 2.806 L 15.765 3.578 C 13.661 2.81 11.339 2.81 9.235 3.578 L 8.462 2.806 Z M 2.806 16.538 C 1.734 13.96 1.734 11.04 2.806 8.462 L 3.578 9.235 C 2.81 11.339 2.81 13.661 3.578 15.765 L 2.806 16.538 Z" fill="none" stroke-width="2" stroke="#000" stroke-opacity="0.15" stroke-linejoin="round" stroke-miterlimit="3"/><rect x="19.425" y="15.925" width="1" height="8.5" transform="rotate(-45 19.923 20.18)" fill="none" stroke-width="2" stroke="#000" stroke-opacity="0.15" stroke-linejoin="round" stroke-miterlimit="3"/><rect x="4.575" y="1.075" width="1" height="8.5" transform="rotate(-45 5.075 5.327)" fill="none" stroke-width="2" stroke="#000" stroke-opacity="0.15" stroke-linejoin="round" stroke-miterlimit="3"/><rect x="19.425" y="1.075" width="1" height="8.5" transform="rotate(-135 19.926 5.326)" fill="none" stroke-width="2" stroke="#000" stroke-opacity="0.15" stroke-linejoin="round" stroke-miterlimit="3"/><rect x="4.575" y="15.925" width="1" height="8.5" transform="rotate(-135 5.075 20.176)" fill="none" stroke-width="2" stroke="#000" stroke-opacity="0.15" stroke-linejoin="round" stroke-miterlimit="3"/><path d="M 11 12.5 C 11 11.672 11.672 11 12.5 11 C 13.328 11 14 11.672 14 12.5 C 14 13.328 13.328 14 12.5 14 C 11.672 14 11 13.328 11 12.5 Z" fill="none" stroke-width="2" stroke="#000" stroke-opacity="0.15" stroke-linejoin="round" stroke-miterlimit="3"/><g><path d="M 16.538 22.194 C 13.96 23.266 11.04 23.266 8.462 22.194 L 9.235 21.422 C 11.339 22.19 13.661 22.19 15.765 21.422 L 16.538 22.194 Z M 22.194 8.462 C 23.266 11.04 23.266 13.96 22.194 16.538 L 21.422 15.765 C 22.19 13.661 22.19 11.339 21.422 9.235 L 22.194 8.462 Z M 8.462 2.806 C 11.04 1.734 13.96 1.734 16.538 2.806 L 15.765 3.578 C 13.661 2.81 11.339 2.81 9.235 3.578 L 8.462 2.806 Z M 2.806 16.538 C 1.734 13.96 1.734 11.04 2.806 8.462 L 3.578 9.235 C 2.81 11.339 2.81 13.661 3.578 15.765 L 2.806 16.538 Z" fill="none" stroke="#000" stroke-opacity="0.15" stroke-linejoin="round" stroke-miterlimit="3"/><rect x="19.425" y="15.925" width="1" height="8.5" transform="rotate(-45 19.923 20.18)" fill="none" stroke="#000" stroke-opacity="0.15" stroke-linejoin="round" stroke-miterlimit="3"/><rect x="4.575" y="1.075" width="1" height="8.5" transform="rotate(-45 5.075 5.327)" fill="none" stroke="#000" stroke-opacity="0.15" stroke-linejoin="round" stroke-miterlimit="3"/><rect x="19.425" y="1.075" width="1" height="8.5" transform="rotate(-135 19.926 5.326)" fill="none" stroke="#000" stroke-opacity="0.15" stroke-linejoin="round" stroke-miterlimit="3"/><rect x="4.575" y="15.925" width="1" height="8.5" transform="rotate(-135 5.075 20.176)" fill="none" stroke="#000" stroke-opacity="0.15" stroke-linejoin="round" stroke-miterlimit="3"/><path d="M 11 12.5 C 11 11.672 11.672 11 12.5 11 C 13.328 11 14 11.672 14 12.5 C 14 13.328 13.328 14 12.5 14 C 11.672 14 11 13.328 11 12.5 Z" fill="none" stroke="#000" stroke-opacity="0.15" stroke-linejoin="round" stroke-miterlimit="3"/></g><g><path d="M 16.538 22.194 C 13.96 23.266 11.04 23.266 8.462 22.194 L 9.235 21.422 C 11.339 22.19 13.661 22.19 15.765 21.422 L 16.538 22.194 Z M 22.194 8.462 C 23.266 11.04 23.266 13.96 22.194 16.538 L 21.422 15.765 C 22.19 13.661 22.19 11.339 21.422 9.235 L 22.194 8.462 Z M 8.462 2.806 C 11.04 1.734 13.96 1.734 16.538 2.806 L 15.765 3.578 C 13.661 2.81 11.339 2.81 9.235 3.578 L 8.462 2.806 Z M 2.806 16.538 C 1.734 13.96 1.734 11.04 2.806 8.462 L 3.578 9.235 C 2.81 11.339 2.81 13.661 3.578 15.765 L 2.806 16.538 Z" fill-rule="evenodd" fill="#FFF"/><rect x="19.425" y="15.925" width="1" height="8.5" transform="rotate(-45 19.923 20.18)" fill="#FFF"/><rect x="4.575" y="1.075" width="1" height="8.5" transform="rotate(-45 5.075 5.327)" fill="#FFF"/><rect x="19.425" y="1.075" width="1" height="8.5" transform="rotate(-135 19.926 5.326)" fill="#FFF"/><rect x="4.575" y="15.925" width="1" height="8.5" transform="rotate(-135 5.075 20.176)" fill="#FFF"/><path d="M 11 12.5 C 11 11.672 11.672 11 12.5 11 C 13.328 11 14 11.672 14 12.5 C 14 13.328 13.328 14 12.5 14 C 11.672 14 11 13.328 11 12.5 Z" fill="#FFF"/></g></svg>