<svg width="80" height="80" viewBox="0 0 80 80" fill="none" xmlns="http://www.w3.org/2000/svg">
<path fill-rule="evenodd" clip-rule="evenodd" d="M48.9152 13.2815C48.255 13.0445 47.6027 12.9658 46.9049 13.0131C45.447 13.2238 44.0039 14.3728 42.9778 15.3964C44.7892 15.4465 46.4796 15.9448 47.7587 17.2995C48.3254 17.8997 48.7077 18.5878 49.0467 19.3345L49.6236 19.0943C50.5955 18.7622 51.4007 18.9486 52.3149 19.1602L52.3151 19.1603C52.474 19.1971 52.6362 19.2346 52.8031 19.2703C52.8185 19.2736 52.837 19.2783 52.8574 19.2835C52.9701 19.3121 53.1424 19.3559 53.1844 19.2638C53.3948 18.8012 52.7633 17.1035 52.5426 16.6216C52.4982 16.5259 52.4515 16.4315 52.4025 16.3382C52.3535 16.2448 52.3022 16.1527 52.2487 16.0619C52.1952 15.971 52.1394 15.8815 52.0815 15.7935C52.0236 15.7054 51.9635 15.6188 51.9014 15.5336C51.8392 15.4485 51.775 15.3649 51.7088 15.2828C51.6425 15.2008 51.5743 15.1205 51.5041 15.0418C51.4339 14.9631 51.3618 14.8863 51.2878 14.8112C51.2139 14.736 51.1382 14.6628 51.0606 14.5913C50.983 14.5199 50.9037 14.4504 50.8228 14.3829C50.7418 14.3153 50.6593 14.2499 50.5751 14.1864C50.4909 14.1229 50.4052 14.0615 50.3181 14.0022C50.2309 13.943 50.1423 13.8858 50.0523 13.8309C49.9623 13.7759 49.871 13.7232 49.7785 13.6728C49.6859 13.6223 49.5922 13.5741 49.4973 13.5283C49.4023 13.4825 49.3063 13.4389 49.2092 13.3977C49.1122 13.3566 49.0142 13.3178 48.9152 13.2815ZM37.7851 16.2623C37.9828 16.2419 38.181 16.2299 38.3798 16.2265C38.5786 16.2231 38.7771 16.2282 38.9753 16.2417C39.1737 16.2553 39.3711 16.2773 39.5675 16.3077C39.7639 16.3382 39.9586 16.377 40.1518 16.4241C42.6865 17.042 44.6312 18.7092 45.9654 20.9016C45.4349 21.4513 44.4068 22.2509 43.3364 23.0834C41.8013 24.2774 40.1795 25.5388 39.8145 26.2271C39.5585 26.7098 39.4866 27.1703 39.4182 27.6086C39.3639 27.9566 39.3118 28.2905 39.1715 28.6105C39.1237 28.7195 39.1061 28.7256 39.0113 28.7587L38.9883 28.7667C38.3759 28.984 37.1879 28.7441 36.6265 28.4645C36.313 28.1528 36.0629 27.7487 35.8152 27.3485L35.8152 27.3485L35.8151 27.3485C35.6514 27.0839 35.4887 26.821 35.3094 26.5876C33.4936 24.2254 30.9111 22.7586 27.9697 22.3686C28.8617 21.6824 29.8106 21.0526 30.7572 20.4243C31.2925 20.069 31.8272 19.7142 32.3504 19.3498C32.6773 19.1223 33.0369 18.8577 33.4112 18.5824L33.4112 18.5824C34.3032 17.9263 35.2782 17.209 36.0904 16.7852C36.6321 16.5024 37.1844 16.3535 37.7851 16.2623ZM61.0398 25.6625C60.8274 25.6585 60.5888 25.6544 60.3787 25.6859C59.6293 25.7827 58.952 25.9881 58.2974 26.3736C57.6133 26.7765 56.5106 27.7413 55.6302 28.5117L55.6301 28.5118L55.6301 28.5118C55.3309 28.7736 55.0573 29.0129 54.8346 29.2001L51.6454 31.8957C51.5148 32.0078 51.3794 32.1202 51.2425 32.2338L51.2419 32.2343L51.2417 32.2345C50.7558 32.6377 50.2508 33.0568 49.8732 33.5363C49.8283 33.5928 49.7846 33.6504 49.7423 33.7091C52.395 32.9893 54.9761 33.5488 57.3362 34.9018C60.7291 36.847 63.6017 40.7134 64.6289 44.4868C64.7257 44.8441 64.8082 45.2047 64.8765 45.5687C65.0087 46.5283 65.0433 47.4606 64.8432 48.4143C66.4446 46.9058 68.0216 45.3721 69.5742 43.8134C69.747 43.6397 69.9279 43.4629 70.1122 43.2827L70.1122 43.2827L70.1123 43.2826C70.9377 42.4755 71.8314 41.6017 72.3801 40.647C72.6641 40.1527 72.7843 39.5568 72.8021 38.9895C72.8245 38.2799 72.6844 37.582 72.4627 36.9106C71.7637 34.7945 69.4265 30.7676 67.9251 29.1807C66.1622 27.3172 63.6823 25.7122 61.0398 25.6625ZM22.8991 27.781C22.9582 27.7727 23.0176 27.7664 23.0771 27.7625C24.8157 27.6458 26.6415 28.6082 27.8858 29.7551C27.9955 29.8569 28.1028 29.9612 28.2075 30.0682C28.3123 30.1751 28.4144 30.2846 28.5138 30.3964C28.6132 30.5083 28.7099 30.6225 28.8038 30.739C28.8978 30.8556 28.9888 30.9743 29.077 31.0953C29.1652 31.2162 29.2504 31.3392 29.3326 31.4643C29.4149 31.5894 29.4941 31.7164 29.5702 31.8453C29.6463 31.9741 29.7193 32.1048 29.7891 32.2372C29.8588 32.3696 29.9254 32.5037 29.9887 32.6393C30.0521 32.775 30.112 32.912 30.1687 33.0506C30.2254 33.1891 30.2787 33.3289 30.3287 33.47C30.3786 33.6111 30.4251 33.7533 30.4682 33.8967C30.5112 34.0401 30.5508 34.1844 30.5869 34.3296C30.6229 34.4749 30.6555 34.621 30.6845 34.7679C30.7135 34.9146 30.739 35.0621 30.761 35.2102C30.7829 35.3583 30.8012 35.5068 30.8158 35.6557C30.8306 35.8047 30.8417 35.9539 30.8492 36.1034C30.8881 37.0625 30.7842 38.0348 30.4258 38.9314C29.6051 40.9841 25.6333 45.5904 23.9735 47.3878C24.6814 44.892 24.5011 42.4253 23.5486 40.0138C22.336 36.9434 20.0142 34.6539 17.0128 33.3494C19.6726 35.3066 21.5022 37.88 22.741 40.9144C23.0509 41.7923 23.2963 42.6671 23.4324 43.5909C23.7318 45.6249 23.4496 47.9708 22.1802 49.6523C21.2998 50.8187 20.0298 51.5823 18.5786 51.7764C16.2646 52.0861 14.0198 51.075 12.2231 49.6889C12.1297 49.6159 12.0372 49.5418 11.9456 49.4665C11.8539 49.3913 11.7633 49.315 11.6736 49.2375C11.5838 49.1601 11.495 49.0816 11.4071 49.0019C11.3194 48.9223 11.2325 48.8416 11.1466 48.7599C11.0608 48.6782 10.9759 48.5954 10.8921 48.5116C10.8083 48.4277 10.7255 48.3429 10.6437 48.2571C10.5619 48.1713 10.4811 48.0845 10.4015 47.9967C10.3219 47.909 10.2433 47.8202 10.1658 47.7304C10.0883 47.6407 10.0119 47.55 9.93671 47.4584C9.86141 47.3669 9.78725 47.2744 9.71422 47.1811C9.6412 47.0876 9.56932 46.9933 9.49857 46.8982C9.4279 46.8031 9.35837 46.7071 9.28998 46.6103C9.22158 46.5134 9.1544 46.4158 9.08843 46.3173C9.02246 46.2188 8.9577 46.1196 8.89416 46.0195C8.83054 45.9194 8.76817 45.8186 8.70705 45.717C8.646 45.6154 8.58616 45.5131 8.52754 45.41C8.46891 45.307 8.41158 45.2033 8.35552 45.0988C8.2994 44.9944 8.2446 44.8892 8.19111 44.7835C8.13756 44.6777 8.08533 44.5713 8.03442 44.4642C7.98351 44.3572 7.93392 44.2495 7.88565 44.1412C7.83739 44.033 7.79045 43.9241 7.74483 43.8147C7.69913 43.7054 7.65483 43.5954 7.61193 43.4849C7.56896 43.3744 7.52734 43.2634 7.48708 43.1519C7.4469 43.0404 7.40803 42.9284 7.37049 42.8159C7.33303 42.7035 7.29692 42.5906 7.26217 42.4772C7.22742 42.3639 7.19404 42.2502 7.16201 42.136C7.13005 42.0219 7.09949 41.9073 7.07032 41.7924C7.04116 41.6775 7.01339 41.5623 6.98702 41.4468C6.96064 41.3311 6.93567 41.2152 6.91208 41.0991C6.88858 40.9829 6.86646 40.8664 6.84575 40.7497C6.8251 40.6329 6.80586 40.516 6.78801 40.3988C6.77015 40.2816 6.75373 40.1642 6.73875 40.0466C6.46293 37.8847 6.7155 35.5366 8.10142 33.7723C8.62429 33.1066 9.26507 32.5968 10.0126 32.2035C10.9995 31.6844 12.1056 31.3319 13.1964 30.9843L13.1964 30.9842L13.1965 30.9842L13.1966 30.9842C13.6824 30.8293 14.1651 30.6755 14.633 30.5083C15.2498 30.2879 15.9408 30.0179 16.6678 29.7339C18.7485 28.921 21.1242 27.9928 22.8991 27.781ZM12.1151 34.1076C13.5478 34.0296 14.7651 34.4595 15.9656 35.2327C18.5894 36.9229 20.4932 39.9734 21.1337 43.001C21.4758 44.6176 21.5136 46.5242 20.5712 47.9569C19.9729 48.8663 19.1456 49.3549 18.0932 49.5667C16.5461 49.7791 15.0255 49.2066 13.7531 48.3559C11.2814 46.7031 9.43832 43.8728 8.87665 40.9566C8.5561 39.2926 8.59379 37.1666 9.58951 35.7201C10.1934 34.843 11.0756 34.3007 12.1151 34.1076ZM43.6984 47.3636C43.8267 47.449 43.9569 47.5323 44.0872 47.6158L44.0872 47.6158C44.3462 47.7817 44.6056 47.9479 44.8518 48.13C48.1349 50.5598 50.7793 54.5578 51.3407 58.6262C51.649 60.8609 51.2391 63.3011 49.8418 65.1208C49.7811 65.2016 49.7183 65.2807 49.6535 65.3583C49.5887 65.4358 49.522 65.5117 49.4534 65.5859C49.3848 65.66 49.3143 65.7323 49.2419 65.8029C49.1696 65.8735 49.0956 65.9423 49.0198 66.0091C48.944 66.0759 48.8665 66.1407 48.7875 66.2036C48.7084 66.2665 48.6277 66.3274 48.5456 66.3862C48.4634 66.445 48.3798 66.5017 48.2947 66.5562C48.2096 66.6107 48.1232 66.6631 48.0355 66.7133C47.9479 66.7634 47.8589 66.8114 47.7687 66.8571C47.6786 66.9027 47.5873 66.946 47.495 66.987C47.4027 67.0281 47.3094 67.0667 47.2151 67.103C47.1208 67.1393 47.0256 67.1732 46.9296 67.2046C46.8336 67.2361 46.7368 67.2651 46.6392 67.2916C46.5417 67.3182 46.4436 67.3422 46.3449 67.3637C46.2462 67.3853 46.1471 67.4043 46.0474 67.4208C45.9477 67.4374 45.8476 67.4514 45.7472 67.4628C43.0569 67.7849 40.3384 66.5236 38.2663 64.8979C35.1463 62.4501 32.96 58.7181 32.4924 54.7657C32.2398 52.6311 32.463 50.1226 33.8598 48.3859C34.2894 47.8519 34.8512 47.388 35.4225 47.0137C36.386 46.3825 37.4645 45.8346 38.5347 45.2909L38.5348 45.2909L38.5348 45.2909C39.1673 44.9696 39.7969 44.6498 40.3981 44.3151C41.1202 43.9132 41.8515 43.4804 42.5883 43.0443C44.0466 42.1812 45.5269 41.3051 47.0016 40.6296C47.6402 40.3371 48.3283 40.0949 49.0305 40.0207C51.0125 39.8111 53.1115 40.8412 54.6095 42.061C56.8404 43.8775 58.536 46.6477 58.8274 49.5393C58.9283 50.5404 58.8614 51.5811 58.549 52.5418C58.1406 53.7975 57.3659 54.9675 56.6344 56.0723C56.5788 56.1562 56.5236 56.2397 56.4687 56.3228C55.093 58.4405 53.5974 60.4698 51.9818 62.4107C52.7953 59.5163 52.557 56.8185 51.2986 54.0747C49.7953 50.7971 47.1899 48.2525 43.8022 46.9863C43.7972 47.0104 43.7925 47.0344 43.7879 47.0583L43.7841 47.078C43.765 47.1764 43.7446 47.2728 43.6984 47.3636ZM38.2255 48.5989C40.0603 48.4685 41.7886 49.0873 43.3155 50.0835C46.0481 51.8664 48.1585 54.9295 48.8085 58.1308C49.155 59.8384 49.1307 61.8641 48.1248 63.3585C47.4705 64.3308 46.5754 64.8251 45.4452 65.049C43.5572 65.3108 41.6712 64.5782 40.1116 63.5573C37.4589 61.821 35.4206 58.7808 34.7883 55.6747C34.4349 53.9383 34.503 51.8514 35.5209 50.3364C36.1741 49.3641 37.0897 48.8226 38.2255 48.5989ZM37.6205 51.0477C37.727 51.4113 37.7343 51.8659 37.7412 52.2991C37.7447 52.5214 37.7482 52.7381 37.7649 52.9341C37.8978 54.4903 38.565 56.1312 39.3677 57.4568C40.8646 59.9287 43.2526 62.016 46.0989 62.721C45.9959 62.7961 45.8639 62.8008 45.734 62.8055H45.7339C45.6965 62.8068 45.6592 62.8082 45.6229 62.8112C44.7196 62.8314 43.8492 62.6008 43.0231 62.2476C40.6497 61.233 38.7051 59.0228 37.7584 56.6469C37.0402 54.8439 36.8337 52.8602 37.6205 51.0477ZM11.6696 36.6155C11.7286 36.9654 11.7418 37.3264 11.7548 37.6862C11.7624 37.8948 11.77 38.103 11.7865 38.3084C11.879 39.4606 12.2312 40.6455 12.7073 41.6951C13.6564 43.7878 15.2791 45.7988 17.3436 46.8766C17.6328 47.0276 17.9493 47.1433 18.2602 47.2568L18.2602 47.2568C18.3439 47.2874 18.4272 47.3178 18.5095 47.3487C18.4424 47.4083 18.3184 47.4147 18.2113 47.4201H18.2112L18.2111 47.4201C18.179 47.4218 18.1484 47.4233 18.1214 47.4262C17.611 47.3719 17.1443 47.2735 16.6627 47.0926C14.5409 46.2955 12.8611 44.4155 11.9478 42.3807C11.1038 40.5004 10.9252 38.5521 11.6696 36.6155ZM46.5438 35.6085C46.3242 35.4758 46.1205 35.3527 45.877 35.3082C45.8494 35.316 45.8216 35.3231 45.7937 35.3302C45.6531 35.3662 45.5132 35.402 45.4165 35.5176C45.3215 35.8567 45.295 36.2335 45.2693 36.5991C45.2601 36.7297 45.2511 36.8588 45.239 36.9843C45.1641 37.8097 45.0759 38.6338 44.9745 39.4564L45.0228 39.4809C45.2173 39.5798 45.4093 39.6774 45.6151 39.7526C47.1715 38.4861 48.6958 37.6639 50.7673 37.8866C53.7124 38.2033 56.3315 40.1108 58.1409 42.3666C60.0149 44.7031 61.3612 47.9499 61.0108 50.9874C60.9444 51.5636 60.807 52.1181 60.6473 52.6746L60.7338 52.7213C61.6007 52.3277 62.3402 51.1068 62.6657 50.2465C63.4983 48.0462 62.8998 45.5665 61.9597 43.5081C60.512 40.338 57.689 37.2266 54.3721 36.0172C52.8302 35.455 51.3852 35.3493 49.7967 35.7401L49.7165 35.7598C49.0411 35.9263 48.3975 36.0849 47.6922 36.032C47.181 35.9936 46.8472 35.7919 46.5438 35.6085ZM52.3618 21.3301C51.6487 20.9938 50.8916 20.8319 50.1029 20.8887C49.734 20.9553 49.4805 21.0716 49.171 21.2773C48.6853 21.6002 48.225 21.9725 47.7684 22.3419C47.6299 22.4541 47.4916 22.5659 47.3531 22.676C46.4582 23.3901 45.5519 24.0894 44.6342 24.7739C44.508 24.8668 44.2152 25.0593 43.8679 25.2877L43.8678 25.2878C43.1115 25.7852 42.0963 26.4527 41.9791 26.6326C41.9563 26.6676 41.948 26.6863 41.9339 26.7179L41.9209 26.7469L41.954 26.8008C42.156 26.8388 42.3595 26.849 42.5625 26.8591C42.7692 26.8694 42.9755 26.8798 43.1794 26.9194C44.9567 27.2646 46.5836 28.1951 47.6077 29.7029C47.7367 29.8929 47.9052 30.261 48.076 30.6342C48.3031 31.1305 48.5343 31.6357 48.6824 31.743C48.7206 31.7102 48.7597 31.6771 48.7992 31.6437L48.7993 31.6437C49.1703 31.3299 49.5764 30.9866 49.6193 30.4774C49.6446 30.1762 49.5272 29.8594 49.4193 29.5687C49.4002 29.5172 49.3814 29.4664 49.3637 29.4167C50.348 28.4529 51.4403 27.5523 52.5206 26.6615C52.9419 26.3141 53.3613 25.9683 53.7719 25.6207L54.0983 27.0125C54.5496 26.8689 54.8586 26.6864 55.0824 26.2505C55.3812 25.6685 55.2789 24.8958 55.0683 24.2994C54.6217 23.0349 53.5706 21.9002 52.3618 21.3301ZM52.0553 22.8813C51.6131 22.5612 51.079 22.1745 50.5267 22.1863C50.0481 22.5483 49.5931 22.9611 49.1404 23.3719L49.1403 23.372C48.8835 23.605 48.6274 23.8374 48.3682 24.0594C48.1296 24.2638 47.8715 24.4723 47.6085 24.6848L47.6084 24.685L47.6083 24.685C46.9859 25.1881 46.3361 25.7132 45.8517 26.2568C45.9081 26.2868 45.9918 26.3367 46.0912 26.3959C46.4643 26.6182 47.0592 26.9726 47.2724 26.9073C47.3116 26.8953 47.3311 26.8832 47.3596 26.8653L47.3758 26.8553C48.1128 26.2931 48.8302 25.7009 49.5464 25.1096L49.5466 25.1095C49.8036 24.8973 50.0605 24.6853 50.3181 24.4747C50.4815 24.3412 50.6514 24.2081 50.8227 24.0739L50.8231 24.0737L50.824 24.0729L50.8242 24.0728C51.2817 23.7145 51.75 23.3478 52.1359 22.9396L52.0553 22.8813ZM30.8503 25.7217C29.3931 24.7815 27.376 24.0257 25.6171 24.1991C24.3489 24.3452 22.9491 25.0229 22.133 26.0269C24.9947 25.7166 27.0826 26.0599 29.3826 27.9212C31.5332 29.6616 32.9151 32.3165 33.1941 35.0602C33.2122 35.2271 33.2254 35.3943 33.2336 35.5618C33.2419 35.7295 33.2453 35.8972 33.2437 36.065C33.2422 36.2328 33.2358 36.4004 33.2245 36.5678C33.2131 36.7352 33.1969 36.9022 33.1759 37.0686C33.1548 37.2351 33.1288 37.4008 33.0981 37.5657C33.0673 37.7306 33.0317 37.8946 32.9913 38.0575C32.9509 38.2204 32.9059 38.3819 32.8561 38.5422C32.8063 38.7024 32.7518 38.861 32.6928 39.0181C32.666 39.0785 32.6395 39.1391 32.6129 39.1996C32.5363 39.3742 32.4597 39.5489 32.3785 39.7212C33.4124 39.5026 34.2658 39.0069 34.8547 38.1085C35.8598 36.5753 35.7288 34.1047 35.3638 32.394C35.3466 32.3095 35.3284 32.2254 35.3092 32.1414C35.29 32.0574 35.2697 31.9737 35.2484 31.8903C35.2271 31.8068 35.2048 31.7236 35.1815 31.6408C35.1581 31.5578 35.1338 31.4752 35.1083 31.3929C35.083 31.3107 35.0566 31.2287 35.0292 31.147C35.0018 31.0654 34.9734 30.9841 34.944 30.9031C34.9147 30.8222 34.8843 30.7416 34.8529 30.6614C34.8215 30.5811 34.7891 30.5013 34.7557 30.4219C34.7224 30.3425 34.6881 30.2635 34.6528 30.185C34.6175 30.1064 34.5812 30.0283 34.544 29.9506C34.5068 29.873 34.4686 29.7958 34.4294 29.719C34.3903 29.6423 34.3503 29.5661 34.3093 29.4903C34.2682 29.4146 34.2263 29.3394 34.1835 29.2646C34.1406 29.1899 34.0969 29.1157 34.0521 29.0421C34.0075 28.9684 33.9619 28.8954 33.9154 28.8229C33.8689 28.7504 33.8216 28.6785 33.7733 28.6071C33.7251 28.5358 33.6759 28.465 33.6259 28.3949C33.5759 28.3248 33.5251 28.2553 33.4734 28.1864C33.4217 28.1176 33.3691 28.0493 33.3157 27.9818C33.2623 27.9142 33.2081 27.8473 33.153 27.781C33.0979 27.7147 33.0421 27.6492 32.9854 27.5843C32.9288 27.5194 32.8713 27.4553 32.8131 27.3919C32.7548 27.3284 32.6958 27.2657 32.6361 27.2037C32.5763 27.1417 32.5158 27.0804 32.4544 27.0199C32.3931 26.9594 32.3311 26.8997 32.2684 26.8407C32.2056 26.7817 32.1421 26.7235 32.0779 26.666C32.0137 26.6087 31.9488 26.5521 31.8833 26.4962C31.8177 26.4404 31.7514 26.3854 31.6844 26.3313C31.6174 26.2771 31.5499 26.2237 31.4816 26.1712C31.4133 26.1186 31.3444 26.067 31.2749 26.0162C31.2053 25.9654 31.1352 25.9154 31.0644 25.8664C30.9936 25.8172 30.9222 25.769 30.8503 25.7217ZM65.3838 20.7787C65.4459 20.7699 65.5059 20.7671 65.5686 20.7643C67.5667 20.6714 69.3681 21.434 70.832 22.7841C72.294 24.1324 73.4418 26.0579 73.509 28.0833C73.5539 29.4398 73.1698 30.6126 72.2444 31.6129C72.074 30.8837 71.804 30.2332 71.4312 29.5857C71.2654 29.3191 71.0909 29.0584 70.9076 28.8035C70.7243 28.5487 70.5327 28.3003 70.3327 28.0583C70.1328 27.8163 69.925 27.5813 69.7092 27.3533C69.4936 27.1252 69.2705 26.9047 69.0399 26.6916C66.8188 24.6505 64.1548 23.4302 61.1135 23.5622C61.403 23.2603 61.7337 22.9907 62.0609 22.7241L62.0612 22.7239C62.1523 22.6496 62.2433 22.5755 62.3329 22.5009L62.4706 22.3863C63.3774 21.6309 64.1657 20.9741 65.3838 20.7787ZM38.1734 31.3506C38.4539 31.3324 38.753 31.3216 39.0323 31.3523C40.2022 31.4812 41.3235 32.3328 42.0193 33.242C42.6373 34.0495 43.1147 35.1082 42.9485 36.146C42.8507 36.7569 42.5455 37.1895 42.0506 37.5447C41.4902 37.7814 40.9108 37.7531 40.3371 37.5722C39.3408 37.2582 38.408 36.4661 37.949 35.5266C37.8128 35.2478 37.7263 34.9452 37.667 34.6413C37.602 34.3083 37.5869 33.968 37.5719 33.6279V33.6278C37.5621 33.4065 37.5523 33.1853 37.5288 32.9663C37.5146 32.8338 37.4853 32.7041 37.4561 32.5745L37.4561 32.5744C37.4235 32.4299 37.391 32.2856 37.3794 32.1379C37.3699 32.0177 37.3713 31.8948 37.4239 31.7834C37.5286 31.5615 37.8453 31.4581 38.0842 31.3802C38.101 31.3747 38.1174 31.3694 38.1333 31.3641C38.1471 31.3596 38.1605 31.3551 38.1734 31.3506ZM43.4488 29.034C43.1063 28.912 42.7831 28.8656 42.4193 28.8759C41.9051 28.9862 41.5896 29.2655 41.3058 29.7016C41.2388 29.8042 41.182 29.9153 41.1261 30.0247C41.1205 30.0356 41.1149 30.0466 41.1093 30.0575C42.2087 30.4851 43.098 31.1112 43.8213 32.055C43.9123 32.1738 44.0128 32.3626 44.1194 32.5631C44.3087 32.9188 44.5174 33.3111 44.7273 33.4133L44.8567 33.3537C45.3697 32.862 45.9172 32.3341 46.2732 31.7123C45.7215 30.5358 44.6903 29.476 43.4488 29.034Z" fill="white"/>
</svg>
