<svg xmlns="http://www.w3.org/2000/svg" width="46" height="46" viewBox="0 0 46 46">
  <defs>
    <style>
      .cls-1 {
        fill: #fff;
      }
    </style>
  </defs>
  <g id="Layer_9" data-name="Layer 9">
    <g>
      <path d="M32.00586,26.05756l-1.792-.00678h-.00293a.74974.74974,0,0,0-.74.62824,9.15073,9.15073,0,0,1-7.55445,7.48449l-.00463-1.38812a1.403,1.403,0,0,0-2.80591.009l.00464,1.38086a9.05125,9.05125,0,0,1-4.98951-2.51935,8.94493,8.94493,0,0,1-2.52124-4.73535l1.3479-.00458a1.40289,1.40289,0,0,0-.00463-2.80578l-1.4275.00482A9.03481,9.03481,0,0,1,19.125,16.238l.00464,1.39135a1.3976,1.3976,0,0,0,2.78882.13392.7097.7097,0,0,0,.0039-.07544V13.62164l-.01049-2.94635a1.40566,1.40566,0,0,0-1.40308-1.398h-.0022A1.40529,1.40529,0,0,0,19.106,10.68439l.00781,2.2489a12.30826,12.30826,0,0,0-10.896,11.18292l-2.22387.00757a1.4029,1.4029,0,0,0,.00439,2.80579l2.2876-.00776a12.316,12.316,0,0,0,10.83618,10.551l.00757,2.25659a1.40284,1.40284,0,1,0,2.80566-.01l-.00757-2.24988A12.37,12.37,0,0,0,32.74585,26.911a.75013.75013,0,0,0-.74-.85345Z"/>
      <path d="M40.76025,21.67841l-.58545-.64924a.74874.74874,0,0,0-.146-.12524,21.73617,21.73617,0,0,0-2.01611-1.12726c-.44385-.22754-.863-.4425-1.26246-.67358a11.69342,11.69342,0,0,1-1.11914-.82752,15.91788,15.91788,0,0,0,.83985-3.73083l.4209-.43506a.74885.74885,0,0,0,.20263-.40845l.304-1.99273a2.54381,2.54381,0,0,0,1.15429-2.58435l-.00073-.2594c0-1.61573-2.63086-4.583-6.9292-4.583-4.13354,0-7.12573,2.73749-7.12573,4.583a3.05244,3.05244,0,0,0,1.447,3.04394l.28833,1.79816a.74872.74872,0,0,0,.19849.39978l.417.43573a14.59852,14.59852,0,0,0,.87744,3.70379,11.54573,11.54573,0,0,1-1.187.87848c-.36475.20978-.78394.42481-1.22778.65247a21.711,21.711,0,0,0-2.01514,1.12677.75226.75226,0,0,0-.14624.12518l-.58545.649a.75016.75016,0,0,0,.07129,1.074c1.46216,1.242,5.00561,2.04455,9.0271,2.04455,4.02075,0,7.564-.80243,9.02661-2.04425a.74989.74989,0,0,0,.07153-1.074ZM31.6228,11.32434a7.36482,7.36482,0,0,1,3.22681.60376A32.201,32.201,0,0,1,33.64307,17.645a2.51633,2.51633,0,0,1-1.906,1.19324c-.02295.00085-.04883.00335-.07593.00714-.02954-.004-.05884-.00666-.08838-.00782a2.29085,2.29085,0,0,1-1.50439-.72387,3.573,3.573,0,0,1-.2627-.32556c-.03222-.04236-.05859-.074-.0852-.10553l-.019-.0235a27.94037,27.94037,0,0,1-1.26758-5.75257A7.49735,7.49735,0,0,1,31.6228,11.32434Zm-4.23218-2.1297c.63379-.90637,2.2273-1.46246,4.2295-1.46246,2.00683,0,3.603.55859,4.23388,1.46869.00074.05383.00171.107.0022.15942a9.30229,9.30229,0,0,0-4.23608-1.11542,9.29672,9.29672,0,0,0-4.2295,1.11194Z"/>
      <path d="M20.52051,23.24017h-.00464a1.96867,1.96867,0,1,0,.00464,0Z"/>
    </g>
    <path class="cls-1" d="M19.66064,24.34808a1.21222,1.21222,0,0,0,.86011,2.06647h.00415a1.2122,1.2122,0,1,0-.86426-2.06647Zm1.50879,10.65259-.00756-2.22272a.653.653,0,0,0-1.30591.0044l.00757,2.21979a9.80846,9.80846,0,0,1-9.126-8.83869l2.20776-.00751a.65289.65289,0,0,0-.00439-1.30578l-2.23462.00757a9.78969,9.78969,0,0,1,9.16577-9.4549l.00757,2.224a.64767.64767,0,0,0,1.29272.061V13.62164h-.00048l-.01-2.94366a.653.653,0,0,0-1.30591.00439l.01025,2.94A11.56271,11.56271,0,0,0,8.92578,24.86383l-2.92944.00995a.6529.6529,0,0,0,.00439,1.30579l2.9563-.01a11.56894,11.56894,0,0,0,10.9126,10.61352l.01,2.94379a.65283.65283,0,0,0,1.30566-.0044l-.00976-2.94122a11.60977,11.60977,0,0,0,10.82739-9.97369l-1.792-.00678A9.83513,9.83513,0,0,1,21.16943,35.00067Zm19.03394-12.82-.58545-.64923c-1.04834-.68628-2.21167-1.18237-3.24316-1.77917a10.74736,10.74736,0,0,1-1.6604-1.30042,12.9895,12.9895,0,0,0,1.03808-4.24316l.60059-.62055.34839-2.28326c1.18774-.92511,1.10058-1.06482,1.10058-2.44012,0-1.24268-2.3103-3.833-6.1792-3.833-3.86865,0-6.37573,2.5509-6.37573,3.833,0,1.41113.14746,1.69812,1.39014,2.62988l.33569,2.0935.59375.62055a11.84044,11.84044,0,0,0,1.0835,4.19885,10.44,10.44,0,0,1-1.70142,1.34491c-1.03125.59674-2.19434,1.09284-3.24268,1.779l-.58544.649c1.28149,1.0885,4.61669,1.86615,8.5415,1.86615C35.58643,24.04663,38.92139,23.269,40.20337,22.18066ZM26.64062,10.65234c-.001-.9273,0-1.67169,0-1.67169.72657-1.301,2.67872-1.99847,4.9795-1.99847s4.25293.69745,4.97949,1.99847c.02124.89929,0,1.67169,0,1.67169a9.53079,9.53079,0,0,0-4.97949-1.65747A9.53007,9.53007,0,0,0,26.64062,10.65234Zm2.896,7.9903a4.1728,4.1728,0,0,1-.334-.40851c-.04419-.05786-.09351-.1087-.1355-.1698A24.4004,24.4004,0,0,1,27.68555,11.509a6.76961,6.76961,0,0,1,3.93725-.93463,6.51717,6.51717,0,0,1,3.98926.9845,29.67735,29.67735,0,0,1-1.3042,6.4414A3.2664,3.2664,0,0,1,31.78027,19.587c-.04052.00158-.07739.01647-.11816.01635-.041.00012-.07813-.01477-.11865-.01635A3.05938,3.05938,0,0,1,29.53662,18.64264Z"/>
  </g>
</svg>
