<svg xmlns="http://www.w3.org/2000/svg" xmlns:xlink="http://www.w3.org/1999/xlink" width="50" height="50" viewBox="0 0 50 50">
  <defs>
    <style>
      .cls-1, .cls-2, .cls-3, .cls-4, .cls-5, .cls-6 {
        fill-rule: evenodd;
      }

      .cls-1 {
        fill: url(#linear-gradient);
      }

      .cls-2 {
        fill: url(#linear-gradient-2);
      }

      .cls-3 {
        fill: url(#linear-gradient-3);
      }

      .cls-4 {
        fill: url(#linear-gradient-4);
      }

      .cls-5 {
        fill: url(#linear-gradient-5);
      }

      .cls-6 {
        fill: #55431a;
      }
    </style>
    <linearGradient id="linear-gradient" x1="25" y1="48.95552" x2="25" y2="0.52513" gradientUnits="userSpaceOnUse">
      <stop offset="0" stop-color="#695628"/>
      <stop offset="0.13158" stop-color="#776333"/>
      <stop offset="0.379" stop-color="#9b8651"/>
      <stop offset="0.71336" stop-color="#d5be82"/>
      <stop offset="0.80488" stop-color="#e6ce90"/>
      <stop offset="1" stop-color="#e6ce90"/>
    </linearGradient>
    <linearGradient id="linear-gradient-2" x1="31.89791" y1="7.73609" x2="31.89791" y2="36.43204" gradientUnits="userSpaceOnUse">
      <stop offset="0" stop-color="#fdf6e0"/>
      <stop offset="1" stop-color="#c9b47e"/>
    </linearGradient>
    <linearGradient id="linear-gradient-3" x1="18.0352" y1="7.73609" x2="18.0352" y2="36.43204" xlink:href="#linear-gradient-2"/>
    <linearGradient id="linear-gradient-4" x1="32.84905" y1="7.73609" x2="32.84905" y2="36.43204" xlink:href="#linear-gradient-2"/>
    <linearGradient id="linear-gradient-5" x1="10.59876" y1="7.73609" x2="10.59876" y2="36.43204" xlink:href="#linear-gradient-2"/>
  </defs>
  <g id="Layer_1" data-name="Layer 1">
    <g>
      <path class="cls-1" d="M15.0958,41.17842c1.44117-3.96241,6.269-7.31693,5.854-10.70675l-.08373-.99354-1.11925-3.43165c-3.84864.86281-5.9274,6.52733-5.98888,6.00048a11.26726,11.26726,0,0,0-.64805-1.80407c-.54978,1.88251-1.17421,3.02639-3.8485,11.0009-.39276,1.21578-1.43343,2.2943-1.56168.56737-.03936-10.11586-6.19449-18.91-6.22326-28.36571-.36-4.9991,1.84045-7.77709,5.2309-7.73657,3.72161-.12289,4.51365,3.1532,5.23226,5.15728a19.8833,19.8833,0,0,0,7.81372,2.57537l1.72006-8.01764c-1.98186-1.06284-3.33413-.88765-4.26216.11635-.415-1.7387.67668-3.02247,3.14563-3.37544-.17806-2.82638,7.36069-1.61712,7.51527.74908l2.34314,10.53157.03135-.00261a19.90469,19.90469,0,0,0,7.81372-2.57668C38.77906,8.86208,39.571,5.586,43.29257,5.70888c3.39046-.04052,5.59095,2.73747,5.231,7.73657-.02878,9.45567-6.18391,18.24985-6.22326,28.36571.04193,1.157-1.06293,2.30607-1.49234.0549-2.67428-7.9745-3.28568-9.98643-3.72812-12.24152a15.54,15.54,0,0,0-.78281,2.3296c-.6441-2.03807-4.60389-6.109-5.98236-6.14429a.21313.21313,0,0,1-.02877-.0013l-1.152,3.84737-.11522.902c-.53934,2.83813,4.53984,7.05416,5.79521,10.42176a36.17847,36.17847,0,0,0-9.80874,7.9758c-2.88777-3.12574-9.97622-7.59538-9.90944-7.7771Z"/>
      <g>
        <path class="cls-2" d="M34.54629,41.04843c.08966-.05194.17773-.10742.2677-.15869-1.142-3.0636-5.43494-6.82593-5.79718-9.61768C28.54525,33.93844,32.97127,37.80624,34.54629,41.04843Z"/>
        <path class="cls-3" d="M20.94979,31.15774l-.00067-.00805c-.30316,3.13214-4.52106,6.27569-5.85333,9.93872-.00733.01995.08453.09961.23449.21533C16.99142,37.58371,21.345,34.38614,20.94979,31.15774Z"/>
        <path class="cls-4" d="M20.35683,2.85092c-.178-2.82642,7.36072-1.61713,7.51526.749l2.34314,10.53162.03137-.00263a19.90488,19.90488,0,0,0,7.81372-2.57666c.71875-2.00409,1.51062-5.28021,5.23224-5.15728,3.05622-.03656,5.13861,2.22369,5.25721,6.33007.13494-4.598-2.01337-7.145-5.25721-7.1062-3.72162-.12286-4.51349,3.1532-5.23224,5.15729a19.90512,19.90512,0,0,1-7.81372,2.57672l-.03137.00256L27.87209,2.82388c-.15454-2.36621-7.6933-3.57544-7.51526-.74909-2.31592.33112-3.40252,1.48688-3.18792,3.06318C17.36471,3.96444,18.4399,3.125,20.35683,2.85092Z"/>
        <path class="cls-5" d="M6.7073,6.395c3.72162-.12293,4.51367,3.15319,5.2323,5.15728a19.88379,19.88379,0,0,0,7.81372,2.57538v-.77612a19.883,19.883,0,0,1-7.81372-2.57538C11.221,8.77206,10.42892,5.496,6.7073,5.61886,3.46346,5.5801,1.31515,8.127,1.45022,12.72506,1.56869,8.61868,3.65108,6.35843,6.7073,6.395Z"/>
      </g>
      <g>
        <path class="cls-6" d="M17.42525,5.51294c.92993-.70862,2.2107-.73132,3.97541.198l.23474-1.09418c-1.79877-.96472-3.09754-.94617-4.03894-.22882a2.328,2.328,0,0,0-.45179,1.61548A2.3272,2.3272,0,0,1,17.42525,5.51294Z"/>
        <path class="cls-6" d="M25.00665,48.10426C22.55356,45.449,17.164,41.85769,15.39723,40.5804a9.76892,9.76892,0,0,0-.58209,1.26932c-.06868.18688,7.22155,4.78378,10.19151,7.99849a37.20783,37.20783,0,0,1,10.088-8.20288,8.8541,8.8541,0,0,0-.66024-1.3525A36.822,36.822,0,0,0,25.00665,48.10426Z"/>
        <path class="cls-6" d="M42.29928,41.11768c.01153,1.14062-1.06757,2.23-1.49128.00885C38.13375,33.152,37.5223,31.14008,37.07992,28.885a15.53379,15.53379,0,0,0-.78284,2.32965c-.6441-2.03809-4.60388-6.109-5.98236-6.14429A.20653.20653,0,0,1,30.286,25.069l-1.152,3.84741-.11523.902a2.79892,2.79892,0,0,0,.064,1.1944l.0512-.40082,1.152-3.84735a.21613.21613,0,0,0,.02875.00128c1.37848.03528,5.33826,4.1062,5.98236,6.14429a15.532,15.532,0,0,1,.78284-2.32959c.44238,2.25506,1.05383,4.267,3.72808,12.24151.42945,2.25116,1.53431,1.10205,1.49238-.05487.00207-.53235.02984-1.05914.064-1.58447Z"/>
        <path class="cls-6" d="M20.94979,29.73212l-.08374-.99353-1.11926-3.43171c-3.84864.86286-5.92743,6.52735-5.9889,6.00049a11.26578,11.26578,0,0,0-.648-1.80407c-.5498,1.88256-1.17425,3.02642-3.84851,11.00091-.39276,1.21582-1.43347,2.29431-1.5617.56738-.00006-.01489-.00171-.02954-.00177-.04443l-.06592.06592c.0379.55469.06549,1.11169.06769,1.67419.12823,1.72693,1.16894.64838,1.5617-.56738,2.67426-7.97455,3.29871-9.11841,3.84851-11.00092a11.26588,11.26588,0,0,1,.648,1.80408c.06147.52686,2.14026-5.13769,5.9889-6.00049l1.11926,3.43164.03412.40479A3.641,3.641,0,0,0,20.94979,29.73212Z"/>
      </g>
    </g>
  </g>
</svg>
