<svg width="11" height="11"><path d="M 5.5 4.793 L 1.854 1.146 L 1.146 1.854 L 4.793 5.5 L 1.146 9.146 L 1.854 9.854 L 5.5 6.207 L 9.146 9.854 L 9.854 9.146 L 6.207 5.5 L 9.854 1.854 L 9.146 1.146 L 5.5 4.793 Z" fill="none" stroke-width="2" stroke="#000" stroke-opacity="0.1" stroke-linejoin="round" stroke-miterlimit="3"/><path d="M 5.5 4.793 L 1.854 1.146 L 1.146 1.854 L 4.793 5.5 L 1.146 9.146 L 1.854 9.854 L 5.5 6.207 L 9.146 9.854 L 9.854 9.146 L 6.207 5.5 L 9.854 1.854 L 9.146 1.146 L 5.5 4.793 Z" fill="none" stroke="#000" stroke-opacity="0.1" stroke-linejoin="round" stroke-miterlimit="3"/><path d="M 5.5 4.793 L 1.854 1.146 L 1.146 1.854 L 4.793 5.5 L 1.146 9.146 L 1.854 9.854 L 5.5 6.207 L 9.146 9.854 L 9.854 9.146 L 6.207 5.5 L 9.854 1.854 L 9.146 1.146 L 5.5 4.793 Z" fill="#D90000"/></svg>