<svg width="24" height="14" viewBox="0 0 24 14" fill="none" xmlns="http://www.w3.org/2000/svg">
<path d="M0 2C0 0.89543 0.895431 0 2 0H22C23.1046 0 24 0.895431 24 2V12C24 13.1046 23.1046 14 22 14H2C0.89543 14 0 13.1046 0 12V2Z" fill="url(#paint0_radial_303_87178)"/>
<path d="M22 13V14H2V13H22ZM23 12V2C23 1.44772 22.5523 1 22 1H2C1.44772 1 1 1.44772 1 2V12C1 12.5523 1.44772 13 2 13V14L1.7959 13.9893C0.854346 13.8938 0.1062 13.1457 0.0107422 12.2041L0 12V2C0 0.895431 0.895431 3.22128e-08 2 0H22C23.1046 0 24 0.895431 24 2V12C24 13.0357 23.2128 13.887 22.2041 13.9893L22 14V13C22.5523 13 23 12.5523 23 12Z" fill="#121413"/>
<path opacity="0.22" d="M21.9961 12V13H1.99609V12H21.9961ZM21.9961 2H1.99609V13C1.47842 13 1.05231 12.6067 1.00098 12.1025L0.996094 12V2C0.996094 1.44772 1.44381 1 1.99609 1H21.9961L22.0986 1.00488C22.6028 1.05621 22.9961 1.48232 22.9961 2V12C22.9961 12.5177 22.6028 12.9438 22.0986 12.9951L21.9961 13V2Z" fill="#535F64"/>
<defs>
<radialGradient id="paint0_radial_303_87178" cx="0" cy="0" r="1" gradientUnits="userSpaceOnUse" gradientTransform="translate(12 -2.72222) rotate(90) scale(14.7778 15.7241)">
<stop offset="0.111842" stop-color="#C8C8C8"/>
<stop offset="0.45" stop-color="#7F8884"/>
<stop offset="1" stop-color="#2C3740"/>
</radialGradient>
</defs>
</svg>
