<svg xmlns="http://www.w3.org/2000/svg" viewBox="0 0 24 9">
  <defs>
    <radialGradient id="paint0_radial_303_87178" cx="0" cy="0" r="1" gradientUnits="userSpaceOnUse" gradientTransform="matrix(0, 14.7778, -15.7241, 0, 12.000504, -2.722366)">
      <stop offset="0.1118" stop-color="#C8C8C8"></stop>
      <stop offset="0.45" stop-color="#7F8884"></stop>
      <stop offset="1" stop-color="#2C3740"></stop>
    </radialGradient>
  </defs>
  <path d="M 0 2 C 0 0.895 0.896 0 2 0 L 22 0 C 23.105 0 24 0.895 24 2 L 24 7 C 24 8.104 23.105 9 22 9 L 2 9 C 0.896 9 0 8.104 0 7 L 0 2 Z" fill="url(#paint0_radial_303_87178)" style="stroke-width: 1;"></path>
  <path d="M 22 8 L 22 9 L 2 9 L 2 8 L 22 8 Z M 23 7 L 23 2 C 23 1.448 22.553 1 22 1 L 2 1 C 1.448 1 1 1.448 1 2 L 1 7 C 1 7.552 1.448 8 2 8 L 2 9 L 1.796 8.989 C 0.855 8.894 0.107 8.146 0.011 7.204 L 0 7 L 0 2 C 0 0.895 0.896 0 2 0 L 22 0 C 23.105 0 24 0.895 24 2 L 24 7 C 24 8.036 23.213 8.887 22.205 8.989 L 22 9 L 22 8 C 22.553 8 23 7.552 23 7 Z" fill="#121413" style="stroke-width: 1;"></path>
  <path opacity="0.22" d="M 21.997 7 L 21.997 8 L 1.997 8 L 1.997 7 L 21.997 7 Z M 21.997 2 L 1.997 2 L 1.997 8 C 1.479 8 1.053 7.607 1.001 7.102 L 0.997 7 L 0.997 2 C 0.997 1.448 1.444 1 1.997 1 L 21.997 1 L 22.099 1.005 C 22.603 1.056 22.997 1.482 22.997 2 L 22.997 7 C 22.997 7.518 22.603 7.944 22.099 7.995 L 21.997 8 L 21.997 2 Z" fill="#535F64" style="stroke-width: 1;"></path>
</svg>