<svg width="24" height="30" viewBox="0 0 24 30" fill="none" xmlns="http://www.w3.org/2000/svg">
<path d="M21.0039 1H3.00391V29H21.0039V1Z" fill="#F9FAE9" fill-opacity="0.02"/>
<path d="M21.9961 2H1.99609V28H21.9961V2Z" fill="#F9FAE9" fill-opacity="0.02"/>
<path d="M21.9961 3H1.99609V27H21.9961V3Z" fill="#F9FAE9" fill-opacity="0.02"/>
<path d="M23 4H1V27H23V4Z" fill="#F9FAE9" fill-opacity="0.02"/>
<path d="M23 4H1V26H23V4Z" fill="#F9FAE9" fill-opacity="0.02"/>
<path d="M23 5H1V25H23V5Z" fill="#F9FAE9" fill-opacity="0.02"/>
<path d="M23 6H1V24H23V6Z" fill="#F9FAE9" fill-opacity="0.02"/>
<path d="M23 7H1V23H23V7Z" fill="#F9FAE9" fill-opacity="0.02"/>
<path d="M21.0039 5H3.00391V25H21.0039V5Z" fill="#F9FAE9" fill-opacity="0.04"/>
<path d="M21.9961 6H1.99609V24H21.9961V6Z" fill="#F9FAE9" fill-opacity="0.04"/>
<path d="M21.9961 6H1.99609V24H21.9961V6Z" fill="#F9FAE9" fill-opacity="0.04"/>
<path d="M23 7H1V23H23V7Z" fill="#F9FAE9" fill-opacity="0.04"/>
<path d="M23 7H1V23H23V7Z" fill="#F9FAE9" fill-opacity="0.04"/>
<path d="M23 8H1V22H23V8Z" fill="#F9FAE9" fill-opacity="0.04"/>
<path d="M23 9H1V21H23V9Z" fill="#F9FAE9" fill-opacity="0.04"/>
<g opacity="0.29">
<path d="M21.1732 2H2.83984V28H21.1732V2Z" fill="#F9FAE9" fill-opacity="0.06"/>
<path d="M22.0768 3H1.91016V27H22.0768V3Z" fill="#F9FAE9" fill-opacity="0.06"/>
<path d="M22.0768 5H1.91016V25H22.0768V5Z" fill="#F9FAE9" fill-opacity="0.06"/>
<path d="M23 4H1V26H23V4Z" fill="#F9FAE9" fill-opacity="0.06"/>
<path d="M23 5H1V25H23V5Z" fill="#F9FAE9" fill-opacity="0.06"/>
<path d="M23 5H1V23H23V5Z" fill="#F9FAE9" fill-opacity="0.06"/>
<path d="M23 6H1V24H23V6Z" fill="#F9FAE9" fill-opacity="0.06"/>
<path d="M23 7H1V23H23V7Z" fill="#F9FAE9" fill-opacity="0.06"/>
</g>
</svg>
