<svg width="24" height="14" viewBox="0 0 24 14" fill="none" xmlns="http://www.w3.org/2000/svg">
<path d="M1 2C1 1.44771 1.44772 1 2 1L22 1C22.5523 1 23 1.44772 23 2L23 12C23 12.5523 22.5523 13 22 13L2 13C1.44771 13 0.999998 12.5523 0.999998 12L1 2Z" fill="url(#paint0_linear_303_87179)"/>
<path d="M-1.81368e-06 12L-3.02279e-07 2C-1.35335e-07 0.89543 0.895431 1.85687e-07 2 4.14743e-07L2 1L1.89746 1.00488C1.39333 1.05621 1 1.48232 1 2L0.999998 12L1.00488 12.1025C1.05278 12.573 1.42703 12.9472 1.89746 12.9951L2 13L22 13L22.1025 12.9951C22.573 12.9472 22.9472 12.573 22.9951 12.1025L23 12L23 2C23 1.44772 22.5523 1 22 1L22 4.56217e-06C23.1046 4.79122e-06 24 0.895435 24 2L24 12C24 13.1046 23.1046 14 22 14L2 14C0.89543 14 -9.22968e-07 13.1046 -1.81368e-06 12ZM22 4.56217e-06L22 1L2 1L2 4.14743e-07L22 4.56217e-06Z" fill="#121413"/>
<path d="M2 1C1.44772 1 1 1.44772 1 2L1 12C1 12.5523 1.44772 13 2 13L22 13C22.5523 13 23 12.5523 23 12L23 2C23 1.44772 22.5523 1 22 1L2 1ZM22 12L2 12L2 2L22 2L22 12Z" fill="url(#paint1_linear_303_87179)"/>
<defs>
<linearGradient id="paint0_linear_303_87179" x1="12" y1="0.500002" x2="12" y2="13.5" gradientUnits="userSpaceOnUse">
<stop stop-color="#F0F2DD"/>
<stop offset="0.03" stop-color="#E7E9D4"/>
<stop offset="0.07" stop-color="#DFE1CD"/>
<stop offset="0.16" stop-color="#DDDFCB"/>
<stop offset="0.38" stop-color="#B1B7A9"/>
<stop offset="0.66" stop-color="#7A857F"/>
<stop offset="0.8" stop-color="#64726F"/>
<stop offset="1" stop-color="#64726F"/>
</linearGradient>
<linearGradient id="paint1_linear_303_87179" x1="12" y1="13" x2="12" y2="1" gradientUnits="userSpaceOnUse">
<stop stop-color="#79857C"/>
<stop offset="0.91" stop-color="#F9FAE9"/>
<stop offset="1" stop-color="#F9FAE9"/>
</linearGradient>
</defs>
</svg>
