<svg width="36" height="14" viewBox="0 0 36 14" fill="none" xmlns="http://www.w3.org/2000/svg">
<g clip-path="url(#clip0_1043_12195)">
<path d="M1 2C1 1.44771 1.44772 1 2 1H34C34.5523 1 35 1.44772 35 2V12C35 12.5523 34.5523 13 34 13H2C1.44771 13 1 12.5523 1 12L1 2Z" fill="url(#paint0_linear_1043_12195)"/>
<path d="M34 0C35.1046 2.2905e-07 36 0.895435 36 2V12C36 13.1046 35.1046 14 34 14H2C0.895431 14 8.90711e-07 13.1046 0 12V2C1.66944e-07 0.895431 0.895432 8.01769e-07 2 0H34ZM2 1L1.89746 1.00488C1.39333 1.05621 1 1.48232 1 2V12L1.00488 12.1025C1.0528 12.573 1.42704 12.9472 1.89746 12.9951L2 13H34L34.1025 12.9951C34.573 12.9472 34.9472 12.573 34.9951 12.1025L35 12V2C35 1.44772 34.5523 1 34 1H2Z" fill="#121413"/>
<path d="M2 1C1.44772 1 1 1.44772 1 2V12C1 12.5523 1.44772 13 2 13H34C34.5523 13 35 12.5523 35 12V2C35 1.44772 34.5523 1 34 1H2ZM34 12H2V2H34V12Z" fill="url(#paint1_linear_1043_12195)"/>
</g>
<defs>
<linearGradient id="paint0_linear_1043_12195" x1="12" y1="0.500002" x2="12" y2="13.5" gradientUnits="userSpaceOnUse">
<stop stop-color="#F0F2DD"/>
<stop offset="0.03" stop-color="#E7E9D4"/>
<stop offset="0.07" stop-color="#DFE1CD"/>
<stop offset="0.16" stop-color="#DDDFCB"/>
<stop offset="0.38" stop-color="#B1B7A9"/>
<stop offset="0.66" stop-color="#7A857F"/>
<stop offset="0.8" stop-color="#64726F"/>
<stop offset="1" stop-color="#64726F"/>
</linearGradient>
<linearGradient id="paint1_linear_1043_12195" x1="12" y1="13" x2="12" y2="1" gradientUnits="userSpaceOnUse">
<stop stop-color="#79857C"/>
<stop offset="0.91" stop-color="#F9FAE9"/>
<stop offset="1" stop-color="#F9FAE9"/>
</linearGradient>
<clipPath id="clip0_1043_12195">
<rect width="36" height="14" fill="white"/>
</clipPath>
</defs>
</svg>
