<svg xmlns="http://www.w3.org/2000/svg" viewBox="0 0 24 9">
  <defs>
    <linearGradient id="paint0_linear_303_87179" x1="12" y1="0.500002" x2="12" y2="13.5" gradientUnits="userSpaceOnUse" gradientTransform="matrix(1, 0, 0, 1, 0.000221, -0.000145)">
      <stop stop-color="#F0F2DD"></stop>
      <stop offset="0.03" stop-color="#E7E9D4"></stop>
      <stop offset="0.07" stop-color="#DFE1CD"></stop>
      <stop offset="0.16" stop-color="#DDDFCB"></stop>
      <stop offset="0.38" stop-color="#B1B7A9"></stop>
      <stop offset="0.66" stop-color="#7A857F"></stop>
      <stop offset="0.8" stop-color="#64726F"></stop>
      <stop offset="1" stop-color="#64726F"></stop>
    </linearGradient>
    <linearGradient id="paint1_linear_303_87179" x1="12" y1="13" x2="12" y2="1" gradientUnits="userSpaceOnUse" gradientTransform="matrix(1, 0, 0, 1, 0.000221, -0.000145)">
      <stop stop-color="#79857C"></stop>
      <stop offset="0.91" stop-color="#F9FAE9"></stop>
      <stop offset="1" stop-color="#F9FAE9"></stop>
    </linearGradient>
  </defs>
  <path d="M 1 2 C 1 1.448 1.448 1 2 1 L 22 1 C 22.553 1 23 1.448 23 2 L 23 7 C 23 7.552 22.553 8 22 8 L 2 8 C 1.448 8 1 7.552 1 7 L 1 2 Z" fill="url(#paint0_linear_303_87179)" style="stroke-width: 1;"></path>
  <path d="M 0 7 L 0 2 C 0 0.895 0.896 0 2 0 L 2 1 L 1.898 1.005 C 1.394 1.056 1 1.482 1 2 L 1 7 L 1.005 7.102 C 1.053 7.573 1.427 7.947 1.898 7.995 L 2 8 L 22 8 L 22.103 7.995 C 22.573 7.947 22.947 7.573 22.995 7.102 L 23 7 L 23 2 C 23 1.448 22.553 1 22 1 L 22 0 C 23.105 0 24 0.895 24 2 L 24 7 C 24 8.104 23.105 9 22 9 L 2 9 C 0.896 9 0 8.104 0 7 Z M 22 0 L 22 1 L 2 1 L 2 0 L 22 0 Z" fill="#121413" style="stroke-width: 1;"></path>
  <path d="M 2 1 C 1.448 1 1 1.448 1 2 L 1 7 C 1 7.552 1.448 8 2 8 L 22 8 C 22.553 8 23 7.552 23 7 L 23 2 C 23 1.448 22.553 1 22 1 L 2 1 Z M 22 7 L 2 7 L 2 2 L 22 2 L 22 7 Z" fill="url(#paint1_linear_303_87179)" style="stroke-width: 1;"></path>
</svg>