<svg xmlns="http://www.w3.org/2000/svg" width="40" height="40" viewBox="0 0 40 40">
  <defs>
    <style>
      .cls-1 {
        fill: #fff;
        fill-rule: evenodd;
      }
    </style>
  </defs>
  <path id="Color_Fill_1" data-name="Color Fill 1" class="cls-1" d="M20.445,5.657V5.8H20.26V5.839a0.183,0.183,0,0,1,.037.109,0.963,0.963,0,0,1,.965.219,6.616,6.616,0,0,1,.074,1.9H21.225A24.406,24.406,0,0,1,21.3,10.8a7.532,7.532,0,0,0,2.264.255c-0.014-.564-0.163-1.858.26-2.006a1.709,1.709,0,0,1,.816-0.073V8.867H24.453V8.684a5.662,5.662,0,0,1-2.226-.146,8.131,8.131,0,0,1,2.3-.036,0.973,0.973,0,0,1,.334-0.474c0.382,0.1.278,0.427,0.594,0.474a1.975,1.975,0,0,1,.52-0.036,3.264,3.264,0,0,1,1.633.109,16.789,16.789,0,0,1-2.264.109V8.757a0.184,0.184,0,0,1,.037.109H25.195V8.976a3.976,3.976,0,0,1,.89.073,3.953,3.953,0,0,1,.074,2.189,1.7,1.7,0,0,0,.482.037,3.9,3.9,0,0,0,.965.073c0.74,0.159,1.65.019,2.412,0.182,0.742,0.159,1.632.06,2.375,0.219l0.928,0.037c0.593,0.127,1.258.01,1.892,0.146,0.436,0.094.931,0.007,1.41,0.11a9.794,9.794,0,0,0,1.892.146,4.894,4.894,0,0,1,.074-1.131,11.1,11.1,0,0,1,.037,1.167,2.153,2.153,0,0,0,.668.182,1.027,1.027,0,0,0,.371.474,1.958,1.958,0,0,1,.186,1.678c-0.515,1.2-2.166.928-3.6,1.277-0.526.128-1.1,0.12-1.67,0.255-2,.473-3.989.483-5.974,0.948-0.95.223-2.39,0.115-3.08,0.584a2.449,2.449,0,0,0-.594.948,2.179,2.179,0,0,0-.742-0.8,1.191,1.191,0,0,0-.668.037l-0.816.109a2.259,2.259,0,0,0-1.039,1.021,3.9,3.9,0,0,0-.371,2.006v0.876c-0.181.82,0.075,1.786-.111,2.626l-0.371,3.721h0.074a9.338,9.338,0,0,0,1.336.292,6.371,6.371,0,0,1,3.006,2.006c0.451,0.642.735,1.062,0.074,1.714a15.964,15.964,0,0,1-3.154,0H20.668a1.542,1.542,0,0,1-.3-0.219,4.895,4.895,0,0,1-.26,1.5,0.943,0.943,0,0,1-.148.547,5.784,5.784,0,0,0-.3-1.5,2.486,2.486,0,0,0-.074-0.547,1.479,1.479,0,0,1-1.187.219l-2.635.037a2.634,2.634,0,0,1-1.076-.073c-0.81-.259-0.2-1.446.111-1.787a7.39,7.39,0,0,1,4.379-2.189V27.945A11.928,11.928,0,0,1,19,26.084c-0.159-.666-0.055-1.5-0.223-2.189-0.08-.328.032-0.774-0.037-1.058-0.077-.316.029-0.749-0.037-1.021q-0.019-1.076-.037-2.152A3.785,3.785,0,0,0,18,18.533c-0.523-.706-0.575-0.5-1.521-0.73a0.959,0.959,0,0,0-.445-0.073,1.2,1.2,0,0,0-.7.4,1.171,1.171,0,0,1-.26.4,3.549,3.549,0,0,0-.779-1.021,2.46,2.46,0,0,0-.7-0.146c-0.7-.166-1.455-0.152-2.189-0.328-1.682-.4-3.344-0.4-5.009-0.8l-1.707-.219c-0.814-.2-1.71-0.191-2.56-0.4a3.586,3.586,0,0,0-1-.182,1.866,1.866,0,0,1-.965-0.876,1.94,1.94,0,0,1,.631-2.152c0.021,0.048,0,.027.037,0.037,0.692-.293.588-0.329,0.557-1.277,0.025-.028.049-0.081,0.074-0.109l0.037,1.167H1.521a3.58,3.58,0,0,1,.891-0.073C3,12.024,3.719,12.092,4.3,11.967H4.787c0.885-.19,1.935-0.066,2.82-0.255l0.965-.036c0.587-.126,1.259-0.01,1.892-0.146,0.445-.1.958,0,1.447-0.11a9.881,9.881,0,0,1,1.892-.146,0.654,0.654,0,0,0,.037-0.219,0.618,0.618,0,0,1-.111-0.584c0-.488-0.117-1.3.26-1.423a1.709,1.709,0,0,1,.816-0.073V8.867H14.62a0.513,0.513,0,0,1,.037-0.182H14.434a1.4,1.4,0,0,1-.557.036,4.273,4.273,0,0,1-1.484-.182,8.131,8.131,0,0,1,2.3-.036,0.555,0.555,0,0,1,.445-0.474,1.367,1.367,0,0,0,.482.474,1.975,1.975,0,0,1,.519-0.036,3.264,3.264,0,0,1,1.633.109H17.7a7.133,7.133,0,0,1-2.189.109V8.721a0.243,0.243,0,0,1,.037.146H15.362V8.976c0.29,0,.575.018,0.816,0.036a0.517,0.517,0,0,1,.223.438,6.013,6.013,0,0,1,0,1.6,12.415,12.415,0,0,0,2.226-.182A8.737,8.737,0,0,0,18.7,8.465a0.733,0.733,0,0,1,.074-0.4H18.664a9.7,9.7,0,0,1,.074-1.97A1.889,1.889,0,0,1,19.7,5.948,0.455,0.455,0,0,1,19.74,5.8H19.555V5.657a5.949,5.949,0,0,1-2.226-.109H17.4a8.188,8.188,0,0,1,2.226-.109,0.525,0.525,0,0,1,.3-0.4A0.254,0.254,0,0,1,20.074,5c0.354,0.4.208,0.459,1,.438a5.38,5.38,0,0,1,1.6.109V5.584A18.554,18.554,0,0,1,20.445,5.657Z"/>
</svg>
