<svg xmlns="http://www.w3.org/2000/svg" width="40" height="40" viewBox="0 0 40 40">
  <defs>
    <style>
      .cls-1 {
        fill: #fff;
        fill-rule: evenodd;
      }
    </style>
  </defs>
  <path id="Color_Fill_1" data-name="Color Fill 1" class="cls-1" d="M21.353,8.467H21.2V8.543a9.771,9.771,0,0,1,.113,2.789,13.383,13.383,0,0,0,2.256.226c0-.631.021-1.31,0.038-1.884a1.306,1.306,0,0,1,1.015-.264,0.2,0.2,0,0,1,.15-0.151V9.221a17.226,17.226,0,0,0-2.519-.188V8.995h0.038a2.772,2.772,0,0,1,.677-0.038,7.942,7.942,0,0,1,1.617,0,1.343,1.343,0,0,0,.075-0.6A0.255,0.255,0,0,0,24.7,8.2a0.566,0.566,0,0,1,.15-0.075A0.253,0.253,0,0,1,25,8.09a0.372,0.372,0,0,1,.15.377,2.069,2.069,0,0,1,.075.49h0.752a5.379,5.379,0,0,1,1.617.038V9.033h-0.3a2.017,2.017,0,0,1-.564.038,4.47,4.47,0,0,0-1.654.188,0.622,0.622,0,0,0,.489.151c0.326,0.184.656-.053,0.677,0.452a7.144,7.144,0,0,1,.038,1.7H26.09v0.151a0.107,0.107,0,0,1,.038.038l12.444,0.98V11.558h0.075v1.206a1.359,1.359,0,0,1,.677.264,1.782,1.782,0,0,1-.113,2.864,7.936,7.936,0,0,1-2.105.415c-1.612.393-3.434,0.389-5.038,0.829-0.606.166-1.1,0.1-1.692,0.264-0.651.179-1.343,0.134-1.955,0.3l-0.526.038c-0.376.092-.854,0.158-1.241,0.226A1.324,1.324,0,0,1,25.94,18a2.406,2.406,0,0,0-.977,1.244H24.925V19.209a2.083,2.083,0,0,0-.714-0.791,2.111,2.111,0,0,0-1.128.113,2.011,2.011,0,0,0-.714.188,4.158,4.158,0,0,0-1.053,1.734v1.771h0.9v0.151H22.18a2.274,2.274,0,0,0-.865-0.038l-0.15,3.241c-0.112.514-.03,1.076-0.15,1.621a9.583,9.583,0,0,0-.188,1.847A6.357,6.357,0,0,1,25,31.118a1.725,1.725,0,0,1,.639,1.734,1.624,1.624,0,0,1-.376.3h-3.5c-0.539,0-1.163.1-1.353-.264H20.376V33.3c-0.2.3-.174,1.541-0.414,1.7-0.009-.749-0.324-1.317-0.338-2.111H19.587v0.038a1.87,1.87,0,0,1-1.278.226H15.6c-0.587,0-1.09.063-1.241-.377-0.387-.512.358-1.346,0.6-1.621a6.514,6.514,0,0,1,4.21-2.111,8.778,8.778,0,0,0-.188-1.847q-0.019-.377-0.038-0.754C18.808,25.819,18.8,25,18.722,24.372h-0.94V24.259h0.94q-0.019-1.9-.038-3.806a4.555,4.555,0,0,0-.9-1.583,2.989,2.989,0,0,0-1.992-.452,1.508,1.508,0,0,0-.714.829,0.136,0.136,0,0,1-.038-0.075,2.894,2.894,0,0,1-.263-0.528A2.25,2.25,0,0,0,14.06,18c-0.023-.013-0.605,0-0.752-0.038-0.7-.17-1.474-0.157-2.218-0.339-2.195-.536-4.529-0.548-6.767-1.093-1.466-.357-3.446-0.115-4.135-1.244A2.025,2.025,0,0,1,.3,13.4a1.487,1.487,0,0,0,.376-0.452,3.01,3.01,0,0,0,.677-0.188V11.558H1.429v1.168a6.179,6.179,0,0,0,1.241-.113C3.153,12.507,3.661,12.6,4.1,12.5H4.586c0.594-.131,1.325-0.059,1.917-0.188l0.94-.038c0.92-.2,2.012-0.063,2.932-0.264,0.772-.168,1.694-0.025,2.444-0.188a3.218,3.218,0,0,0,1.053-.113,0.255,0.255,0,0,0,.038-0.151h-0.15a6.478,6.478,0,0,1-.038-1.7,0.327,0.327,0,0,0,.038-0.188,0.594,0.594,0,0,1,.188-0.151,1.472,1.472,0,0,1,.827-0.113,0.2,0.2,0,0,1,.15-0.151V9.221a17.226,17.226,0,0,0-2.519-.188V8.995h0.038a2.772,2.772,0,0,1,.677-0.038,7.941,7.941,0,0,1,1.617,0,1.22,1.22,0,0,0,.075-0.565A0.326,0.326,0,0,0,14.85,8.2,0.566,0.566,0,0,1,15,8.128a0.253,0.253,0,0,1,.15-0.038,0.336,0.336,0,0,1,.15.339,2.239,2.239,0,0,1,.075.528h0.752a5.379,5.379,0,0,1,1.617.038V9.033h-0.3a2.49,2.49,0,0,1-.564.038,4.954,4.954,0,0,0-1.654.188,0.516,0.516,0,0,0,.413.151,1.107,1.107,0,0,1,.677.226,4.791,4.791,0,0,1,.075,1.922l2.143-.151a1.549,1.549,0,0,0,.038-0.452,2.755,2.755,0,0,0,.038-0.792,4.587,4.587,0,0,0,.075-0.98c0-.123-0.049-0.264-0.038-0.339a1.814,1.814,0,0,0,.113-0.377H18.647a6.8,6.8,0,0,1,.075-1.96A1.228,1.228,0,0,1,19.7,6.319a0.284,0.284,0,0,1,.15-0.188V6.093a23.853,23.853,0,0,0-2.481-.113V5.9l2.293-.038A1.221,1.221,0,0,0,19.737,5.3a0.326,0.326,0,0,0,.038-0.188A0.456,0.456,0,0,1,20.113,5a0.42,0.42,0,0,1,.113.3,0.88,0.88,0,0,0,.15.528,1.786,1.786,0,0,0,.677.038L22.669,5.9V5.98H22.18c-0.388.235-1.629-.156-2.03,0.151a1.015,1.015,0,0,0,.827.188,0.441,0.441,0,0,0,.188.075A4.8,4.8,0,0,1,21.353,8.467Z"/>
</svg>
