<svg xmlns="http://www.w3.org/2000/svg" width="40" height="39.938" viewBox="0 0 40 39.938">
  <defs>
    <style>
      .cls-1 {
        fill: #fff;
        fill-rule: evenodd;
      }
    </style>
  </defs>
  <path id="Color_Fill_1" data-name="Color Fill 1" class="cls-1" d="M23.932,13.764a5.356,5.356,0,0,1,.582-2.068H26.2a12.319,12.319,0,0,1,.841,4.911c0.55,0.338.98,0.854,1.488,1.228,1.563,1.149,2.981,2.48,4.529,3.619,0.85,0.625,1.627,1.322,2.458,1.939a5.976,5.976,0,0,1,1.229.9c0.379,0.511.153,2.825,0,3.489-0.083.362,0.078,0.548-.194,0.711a11.248,11.248,0,0,0-1.617-.775c-1.566-.814-3.19-1.5-4.788-2.326a16.253,16.253,0,0,0-3.623-1.745c0,0.935-.33,1.678-0.388,2.52H24.579a14.869,14.869,0,0,0-.453-2.456,4.408,4.408,0,0,0-.194-1.357,11.762,11.762,0,0,0-1.941-1.034,0.789,0.789,0,0,0-.841,0v2.649c-0.3.491,0.019,1.97-.129,2.649-0.329,1.51-.184,3.242-0.517,4.653a17.378,17.378,0,0,0-.259,2.326,7.017,7.017,0,0,0,1.682,1.357c0.315,0.235.588,0.6,0.906,0.84A34.8,34.8,0,0,1,26,38.385c0.031,0.455.064,1.009,0.065,1.551a0.915,0.915,0,0,1-.259.065,10.8,10.8,0,0,0-2.135-.84,32.967,32.967,0,0,0-4.205-1.745,3.3,3.3,0,0,1-.065,1.292,2.137,2.137,0,0,0-.129-1.292,8.249,8.249,0,0,1-2.07.84c-0.915.4-1.881,0.746-2.847,1.163A4.943,4.943,0,0,1,12.869,40V39.871a1.509,1.509,0,0,1-.065-0.646c0-1.11.541-1.284,1.165-1.745,1.118-.827,2.116-1.887,3.235-2.714a3.642,3.642,0,0,0,1.488-1.292c-0.355-.571-0.265-2.467-0.453-3.3-0.123-.544-0.136-1.309-0.259-1.874V27.4c-0.147-.678.036-1.5-0.129-2.262a20.283,20.283,0,0,1-.129-3.877c-1-.118-2.046.7-2.847,1.1,0,1.357-.488,2.609-0.582,3.813H12.739a18.512,18.512,0,0,0-.453-2.585,4.041,4.041,0,0,1-.841.388c-0.757.392-1.546,0.756-2.329,1.163-1.645.855-3.308,1.693-5.046,2.456a10.965,10.965,0,0,1-1.876.9,26.585,26.585,0,0,1-.129-4.071c0.629-.4,1.148-1.043,1.747-1.486,1.629-1.208,3.157-2.477,4.787-3.683,0.343-.254.632-0.651,0.97-0.9,0.646-.484,1.246-1.016,1.876-1.486a1.928,1.928,0,0,0,.388-0.194V15.7a4.1,4.1,0,0,0,.065-0.84c0.157-.691.368-2.861,0.841-3.1a4.326,4.326,0,0,1,1.617-.065,4.761,4.761,0,0,1,.582,2.068c0.911-.061,1.482-0.863,2.07-1.292a2.006,2.006,0,0,0,.582-0.388V10.4a3.542,3.542,0,0,0,.065-1.292q0.032-1.615.065-3.231l0.194-1.874A16.892,16.892,0,0,1,19.209.065a2.176,2.176,0,0,1,.453,0c1.643,2.858,1.6,7.444,1.617,11.955C22.07,12.538,22.809,13.653,23.932,13.764Zm5.111,10.21a0.246,0.246,0,0,0,.129.194A0.707,0.707,0,0,0,29.043,23.974Z" transform="translate(0.5 -0.063)"/>
</svg>
