<svg xmlns="http://www.w3.org/2000/svg" width="40" height="40" viewBox="0 0 40 40">
  <defs>
    <style>
      .cls-1 {
        fill: #fff;
        fill-rule: evenodd;
      }
    </style>
  </defs>
  <path id="Color_Fill_1" data-name="Color Fill 1" class="cls-1" d="M36.8,28.476a11.665,11.665,0,0,1-2.894-1.34c-1.446-.752-2.932-1.33-4.375-2.077a16.68,16.68,0,0,0-2.894-1.407,12.768,12.768,0,0,1-.471,2.613H24.75V26.2H24.683a16.61,16.61,0,0,0-.471-2.546,3.784,3.784,0,0,0-.2-1.273,5.5,5.5,0,0,0-2.76-1.072V23.92c-0.31.512,0.019,2.041-.135,2.747-0.221,1.013-.034,2.173-0.269,3.216a22.969,22.969,0,0,0-.538,3.752c1.364,0.858,2.489,2.128,3.769,3.082a7.964,7.964,0,0,1,1.952,1.541A3.182,3.182,0,0,1,26.1,40H25.962a11.184,11.184,0,0,0-2.356-.938,33.539,33.539,0,0,0-4.038-1.675A3.2,3.2,0,0,1,19.5,38.66a3.2,3.2,0,0,0-.067-1.273,11.592,11.592,0,0,1-2.356.938A29.032,29.032,0,0,1,12.971,40a2.849,2.849,0,0,1,.067-1.608A2.98,2.98,0,0,1,14.25,37.32c1.044-.776,1.981-1.772,3.029-2.546,0.5-.368,1.449-0.737,1.481-1.541-0.372-.6-0.221-2.078-0.4-2.881-0.124-.545-0.147-1.317-0.269-1.876V27.538a34.565,34.565,0,0,1-.269-6.231H17.683a0.718,0.718,0,0,0-.673.067c-0.644.323-1.356,0.673-2.019,1.005a13.941,13.941,0,0,1-.673,3.819,3.689,3.689,0,0,1-1.413.067V26.131c-0.174-.281-0.3-2.292-0.606-2.479a10.041,10.041,0,0,1-2.087,1.005c-1.6.83-3.27,1.562-4.913,2.412a10.318,10.318,0,0,1-3.029,1.407C2.254,27.6,1.734,25.217,2.2,24.523c0.213-.563,1.512-1.3,2.019-1.675,0.537-.392,1.011-0.947,1.548-1.34,1.287-.942,2.519-1.91,3.7-2.948,0.513-.45,2.368-1.441,2.423-2.144a4.786,4.786,0,0,0,.067-1.005c0.2-.871.247-1.777,0.471-2.546a2.035,2.035,0,0,1,.336-1.072h1.683c0.163,0.285.627,2.008,0.74,2.077,0.492-.374,2.282-1.276,2.49-1.742V10.988a10.7,10.7,0,0,0,.067-2.68,30.845,30.845,0,0,1,.337-4.221c0.034-.238-0.1-0.193-0.135-0.268a2.678,2.678,0,0,1,.135-1.139h0.135l-0.067.134h0.067V2.747h0.067C18.475,2.184,18.859.026,19.7,0a8.119,8.119,0,0,1,.808,1.675,7.43,7.43,0,0,0,.135.737,5.186,5.186,0,0,0,.4.335c0.263,0.544-.122,1.154,0,1.675,0.5,2.125.327,5.251,0.336,7.705,0.861,0.55,1.505,1.473,2.625,1.742a5.4,5.4,0,0,1,.606-2.077H26.3a13.233,13.233,0,0,1,.875,4.958c0.833,0.285,2.029,1.674,2.76,2.211a73.315,73.315,0,0,1,7,5.561C37.033,25.867,36.825,27.215,36.8,28.476ZM20.779,2.68c-0.022.093,0.1,0.1,0.135,0.134C20.961,2.743,20.8,2.7,20.779,2.68Z" transform="translate(0.531)"/>
</svg>
