<svg xmlns="http://www.w3.org/2000/svg" width="39.969" height="40" viewBox="0 0 39.969 40">
  <defs>
    <style>
      .cls-1 {
        fill: #fff;
        fill-rule: evenodd;
      }
    </style>
  </defs>
  <path id="Color_Fill_1" data-name="Color Fill 1" class="cls-1" d="M22.4,9.781H22.111a38.864,38.864,0,0,1,0,4.645A11.038,11.038,0,0,1,24.4,14.6c0.58,0.125,1.194.007,1.7,0.116,1.112,0.24,2.3.008,3.343,0.232h0.88c1.033,0.225,2.312.068,3.343,0.29,1.57,0.338,4.074-.2,5.161.581a2.711,2.711,0,0,1,1.056,1.916,5.875,5.875,0,0,0-.059.813,2.178,2.178,0,0,1,.059,1.161,3.772,3.772,0,0,1-4.223,2.323l-0.235,1.161H35.132a7.03,7.03,0,0,0-.176-1.161c-2.148-.133-4.286-0.335-6.51-0.348l-5.337,5.4c-0.423.418-1.829,1.468-1.877,2.09A4.32,4.32,0,0,0,21,30.684a12.568,12.568,0,0,1,2.111.813c0.994,0.406,1.991.718,2.933,1.1a6.869,6.869,0,0,1,1.408.523,2.6,2.6,0,0,1,.762,1.336,2.11,2.11,0,0,1-.762,1.858C26.1,37.838,24.412,37.56,21.994,38a8.486,8.486,0,0,0-1.173-1.916,0.713,0.713,0,0,0-.411-0.523V35.5c-0.059-.057-0.058.057-0.059,0.058-0.186.107-.183,0.165-0.176,0.464a3.53,3.53,0,0,0-.117,1.626H19.883l-0.117-1.974a0.519,0.519,0,0,1-.176-0.174,0.2,0.2,0,0,0-.117.058A15.24,15.24,0,0,0,17.889,38l-2.346-.232a8.226,8.226,0,0,1-2.17-.639c-1.079-.645-2.286-2.208-1.232-3.658a3.286,3.286,0,0,1,1.583-.813c1.131-.468,2.382-0.922,3.519-1.394a5.053,5.053,0,0,0,1.7-.7c-0.315-.514,0-1.429-0.293-1.974A12.72,12.72,0,0,0,17.419,27.2c-0.947-1.248-2.055-2.365-2.991-3.6a7.687,7.687,0,0,0-1.7-1.742l-0.176-.232H11.378a4.537,4.537,0,0,1-1,.058c-1.3.281-2.866,0.012-4.164,0.29-0.446.1-1.029-.157-1.232,0.174-0.162.25-.067,0.732-0.235,0.987a0.4,0.4,0,0,1-.235.058,0.165,0.165,0,0,0-.059-0.058,2.754,2.754,0,0,0-.235-1.1,3.023,3.023,0,0,1-2.229-.348,3.946,3.946,0,0,1-1.877-1.8,2.31,2.31,0,0,1,0-1.335l-0.059-.987a2.943,2.943,0,0,1,.88-1.626C1.848,15.07,3.908,15.616,5.4,15.3c1.32-.284,2.9-0.064,4.223-0.348H10.44c0.775-.167,1.678.007,2.522-0.174,0.507-.109,1.121.008,1.7-0.116a16.435,16.435,0,0,1,3.167-.232V11.7a4.952,4.952,0,0,1,0-1.916H17.537V7.923a2.38,2.38,0,0,1,.352-0.406l0.117-1.684c0.268-1.175.47-3.314,1.466-3.658a1.239,1.239,0,0,1,1.114,0,7.875,7.875,0,0,1,1.173,2.5l0.235,1.974V7.4c0.067,0.188.343,0.318,0.411,0.523V9.781Zm-4.34,12.31a1.983,1.983,0,0,0-.117-0.929,1.485,1.485,0,0,0-.293-0.407c-0.462.082-1.144-.013-1.642,0.116-0.375.1-.636,0.405-1,0.523a8.136,8.136,0,0,1-2.111.174v0.058a1.982,1.982,0,0,0,1.173.7Zm4.223-1.335a0.9,0.9,0,0,0-.352.7,6.217,6.217,0,0,0-.117,1.568c-0.2.886-.023,2-0.235,2.961l-0.293,2.5h0.059a4.911,4.911,0,0,1,.7-0.7L23.7,26.1l0.821-.755a22.961,22.961,0,0,1,2.229-2.264,10.261,10.261,0,0,1,1.408-1.393V21.626H27.507c-0.47-.279-1.343.015-1.936-0.116a4.144,4.144,0,0,1-1.173-.348c-0.063-.038-0.17-0.2-0.235-0.232Zm-5.279,1.568a4.937,4.937,0,0,1-1.173.058A9.931,9.931,0,0,1,13.9,22.5v0.058a6.669,6.669,0,0,1,1.29,1.568c0.729,0.966,1.675,1.821,2.4,2.787a5.048,5.048,0,0,0,1,1.219v-0.29a6.585,6.585,0,0,1-.176-1.742c-0.259-1.172-.123-2.614-0.352-3.774H17.009Zm2.463,13.123a0.58,0.58,0,0,1,.293.116v-0.29a0.762,0.762,0,0,1-.059-0.407l-0.235-.058v0.639Zm1,0V34.806H20.352a0.488,0.488,0,0,0-.117.174,1.229,1.229,0,0,0-.059.581h0.059A0.235,0.235,0,0,1,20.469,35.445Z" transform="translate(0 -0.016)"/>
</svg>
