<svg width="16" height="16"><path d="M 1 8 C 1 4.137 4.138 1 8.004 1 C 11.869 1 15.008 4.137 15.008 8 C 15.008 11.863 11.869 15 8.004 15 C 4.138 15 1 11.863 1 8 Z"/><path d="M 10.121 14.036 C 9.457 14.27 8.743 14.397 8 14.397 C 7.257 14.397 6.543 14.27 5.879 14.036 L 5.109 12.489 L 6.645 10.376 L 9.355 10.376 L 10.891 12.489 L 10.121 14.036 Z M 14.398 7.85 C 14.399 7.9 14.4 7.95 14.4 8 C 14.4 9.46 13.91 10.806 13.085 11.883 L 11.376 12.136 L 9.844 10.027 L 10.683 7.444 L 13.162 6.638 L 14.398 7.85 Z M 9.832 1.87 C 11.24 2.29 12.446 3.183 13.264 4.363 L 12.977 6.067 L 10.506 6.87 L 8.3 5.268 L 8.3 2.669 L 9.832 1.87 Z M 2.736 4.363 C 3.554 3.183 4.76 2.29 6.168 1.87 L 7.7 2.669 L 7.7 5.268 L 5.494 6.87 L 3.023 6.067 L 2.736 4.363 Z M 1.602 7.85 C 1.601 7.9 1.6 7.95 1.6 8 C 1.6 9.46 2.09 10.806 2.915 11.883 L 4.624 12.136 L 6.156 10.027 L 5.317 7.444 L 2.838 6.638 L 1.602 7.85 Z" fill-rule="evenodd" fill="#FFF"/></svg>