<svg xmlns="http://www.w3.org/2000/svg" width="40" height="40" viewBox="0 0 40 40">
  <defs>
    <style>
      .cls-1 {
        fill: #fff;
        fill-rule: evenodd;
      }
    </style>
  </defs>
  <path id="Color_Fill_1" data-name="Color Fill 1" class="cls-1" d="M21.572,9.582c1.97,0,3.807.105,5.691,0.11V9.473h0.379v0.22a0.841,0.841,0,0,0,.271.055c-0.006-.9.052-1.762,0.108-2.527a0.68,0.68,0,0,1,.217.055c-0.073.317,0.05,1.832,0.054,2.473a16.4,16.4,0,0,1,3.523.33l1.843,0.165c1.376,0.332,2.875.453,4.119,0.879,1.025,0.351,2.231.5,2.222,1.923a5.737,5.737,0,0,1-.813,1.209,21.94,21.94,0,0,1-7.1,3.187l-3.848.714-4.065.44a5.959,5.959,0,0,0-1.734.22,3.675,3.675,0,0,0-1.084,2.253q-0.027.824-.054,1.648c-0.2.944,0,2.019-.217,3.022-0.147.68,0,1.458-.163,2.2a14.686,14.686,0,0,0-.217,2.912c1.818-.049,4.588,1.11,4.986,2.418a1.207,1.207,0,0,1-.163.879c-0.537,1.031-1.55.839-2.927,1.044a4.08,4.08,0,0,1-1.409.11,5.528,5.528,0,0,0-.921-0.989A11.25,11.25,0,0,1,19.946,37V36.286c-0.3-.505,0-1.319-0.434-1.868v0.055l-0.7.879c-1.628-.521-3.8.3-4.445-1.319a1.449,1.449,0,0,1,.7-1.7A6.876,6.876,0,0,1,19.3,30.846a13.686,13.686,0,0,0-.217-2.857c-0.159-.737-0.017-1.524-0.163-2.2V25.077c-0.2-.953-0.065-2.118-0.271-3.077V21.121c-0.2-.884-0.463-2.03-1.192-2.363a9.511,9.511,0,0,0-1.626-.165l-4.065-.44L7.913,17.44a34.337,34.337,0,0,1-4.39-1.593C2.288,15.3,0,14.3,0,12.6c0.087-.107.082-0.263,0.163-0.385a3.261,3.261,0,0,1,.6-0.494c0.038-.035.074-0.2,0.108-0.22A1.818,1.818,0,0,0,1.3,11.451a18.412,18.412,0,0,1,2.493-.714c0.92-.249,2.006-0.325,2.981-0.55l1.409-.11a19.142,19.142,0,0,1,3.523-.33,9.113,9.113,0,0,1,.108-2.527h0.163c0.05,0.773.106,1.629,0.108,2.527H12.3V9.692h0.054a0.445,0.445,0,0,1,0-.22h0.379v0.22c1.883,0,3.722-.105,5.691-0.11V8.648H18.374v0.11H18.266V8.7a0.185,0.185,0,0,1-.108-0.055A0.957,0.957,0,0,0,18.428,8.1H18.374v0.11H18.266V8.154c-0.134-.071-0.037.024-0.108-0.11a0.841,0.841,0,0,0,.271-0.495H18.374c-0.066.146-.139,0.089-0.217-0.055a0.922,0.922,0,0,0,.325-0.6H18.428c-0.066.17-.02,0.124-0.217,0.165V7H18.157a2.015,2.015,0,0,0,.271-0.549,0.325,0.325,0,0,1-.271,0l0.054-.165a0.791,0.791,0,0,0,.325-0.6H18.482v0.11a0.957,0.957,0,0,1-.217.165V5.9a0.185,0.185,0,0,1-.108-0.055,3.134,3.134,0,0,0,.65-1.538c0.12,0.028.107,0.062,0.217,0H18.862a0.8,0.8,0,0,1,.054-0.275H18.862a1.975,1.975,0,0,1-1.084.11,17.441,17.441,0,0,1-2.656-.275A1.675,1.675,0,0,1,14.2,3.7h0.922A3.981,3.981,0,0,1,16.1,3.648a11.4,11.4,0,0,1,2.927-.055c0.106-.555.449-1.568,1.084-1.593a0.2,0.2,0,0,0,.108.055,9.7,9.7,0,0,1,.6.989l0.163,0.549h0.217a2.925,2.925,0,0,1,1.3,0L25.8,3.7V3.758H25.745a4.472,4.472,0,0,1-1.3.165,8.472,8.472,0,0,1-3.36.11V4.088a12.106,12.106,0,0,1,.325,1.264c0.088,0.182.324,0.324,0.434,0.549a0.185,0.185,0,0,0-.108.055A0.185,0.185,0,0,1,21.626,5.9a0.394,0.394,0,0,1-.108-0.22H21.463V5.956a1.058,1.058,0,0,1,.379.495,0.185,0.185,0,0,0-.108.055,0.456,0.456,0,0,1-.217-0.165V6.56a0.492,0.492,0,0,1,.271.44,0.274,0.274,0,0,1-.163.055,0.6,0.6,0,0,0-.108-0.165V7.11a0.544,0.544,0,0,1,.271.44,0.626,0.626,0,0,1-.163.11,0.209,0.209,0,0,0-.108-0.165V7.6a1.9,1.9,0,0,1,.325.549c-0.244,0-.119.05-0.271-0.055a1.387,1.387,0,0,0,.271.6,0.185,0.185,0,0,0-.108.055,0.431,0.431,0,0,1-.163-0.11V9.582Zm-0.6-5.275a0.2,0.2,0,0,0,.108.055A0.194,0.194,0,0,0,20.976,4.308Zm-5.42,29.286V33.7H15.61v-0.11H15.556Zm2.981,0c0.09,0.061.058,0.1,0.108,0H18.537Zm0.217,0a0.2,0.2,0,0,0,.108.055A0.195,0.195,0,0,0,18.753,33.593Zm2.385,0V33.7h0.054V33.648h0.054A0.194,0.194,0,0,0,21.138,33.593Zm0.217,0V33.7h0.054V33.648h0.054A0.194,0.194,0,0,0,21.355,33.593Zm3.035,0V33.7h0.054v-0.11H24.39Zm-4.715.714v0.11h0.054v-0.11H19.675Z" transform="translate(0 0.5)"/>
</svg>
