<svg xmlns="http://www.w3.org/2000/svg" width="40" height="40" viewBox="0 0 40 40">
  <defs>
    <style>
      .cls-1 {
        fill: #fff;
        fill-rule: evenodd;
      }
    </style>
  </defs>
  <path id="Color_Fill_1" data-name="Color Fill 1" class="cls-1" d="M21.818,6.811a0.258,0.258,0,0,1-.173,0,1.436,1.436,0,0,0-.173-0.171V6.854a2.541,2.541,0,0,1,.346.385,0.146,0.146,0,0,1-.043.086c-0.075.057-.07,0.074-0.13,0.043a0.5,0.5,0,0,1-.087-0.128H21.515V7.453a1.9,1.9,0,0,1,.3.343,0.146,0.146,0,0,1-.043.086,0.3,0.3,0,0,1-.173.043A0.163,0.163,0,0,0,21.515,7.8V8.01a0.562,0.562,0,0,1,.3.428H21.732c-0.142.093-.119-0.07-0.173,0.128a0.576,0.576,0,0,1,.26.428,0.3,0.3,0,0,1-.26-0.043V9.123a2.308,2.308,0,0,1,.26.3,0.146,0.146,0,0,1-.043.086c-0.032.037-.054,0.048-0.087,0.086l-0.13-.086v0.856c1.971-.006,3.8.123,5.714,0.129V10.28h0.346a0.773,0.773,0,0,1,.043.257h0.216c0-.786.094-1.708,0.13-2.441h0.173c0.031,0.739.126,1.568,0.13,2.441H28.4a3.079,3.079,0,0,0,.649.043c0.652,0.146,1.4.018,2.078,0.171,0.727,0.164,1.535.081,2.294,0.257,1.444,0.335,2.981.427,4.286,0.856,0.871,0.287,1.864.5,2.208,1.285a1.291,1.291,0,0,1-.346,1.285,6.563,6.563,0,0,1-2.554,1.8A30.763,30.763,0,0,1,31.9,18.073c-1.3.37-2.564,0.363-3.9,0.685l-3.68.385a9.273,9.273,0,0,0-1.775.171c-0.8.4-.977,1.461-1.212,2.441q-0.022.685-.043,1.37c-0.2.909-.045,2.009-0.26,2.912v0.6c-0.118.524,0,1.139-.13,1.713a13.99,13.99,0,0,0-.216,2.741,7.063,7.063,0,0,1,4.286,1.5,1.4,1.4,0,0,1,.736,1.328c-0.248.987-.989,1.158-2.035,1.37-0.255.052-.628-0.038-1,0.043a7.3,7.3,0,0,1-1.559.128,6.329,6.329,0,0,0-.779-1.028H20.3v0.043a1.857,1.857,0,0,0-.043.428c-0.113.5-.1,1.29-0.216,1.627a2.4,2.4,0,0,0,0,.428V37a0.149,0.149,0,0,1-.087-0.043c-0.038-.081.042-0.283,0-0.471a5.008,5.008,0,0,0-.433-1.884,1.279,1.279,0,0,1-1.169.856,4.214,4.214,0,0,0-1.039-.086c-1.157-.252-2.261-0.079-2.814-0.9a1.393,1.393,0,0,1,.519-1.884,7.246,7.246,0,0,1,4.286-1.5,13.674,13.674,0,0,0-.216-2.783c-0.125-.564-0.016-1.156-0.13-1.67v-0.6c-0.2-.891-0.063-1.976-0.26-2.869L18.658,21.8c-0.22-1-.4-2.081-1.212-2.484a6.436,6.436,0,0,0-1.3-.129c-0.738-.162-1.652-0.1-2.381-0.257H13.29c-1.725-.39-3.528-0.389-5.195-0.857a30.254,30.254,0,0,1-3.723-1.156c-0.485-.208-1-0.522-1.472-0.728-0.989-.429-2.567-1.334-2.857-2.4-0.328-1.2,1.475-1.678,2.251-1.927,1.305-.419,2.844-0.528,4.286-0.856,0.76-.173,1.566-0.1,2.294-0.257l2.814-.214V9.166a6.067,6.067,0,0,0,.13-1.071h0.173c0.027,0.733.121,1.655,0.13,2.441h0.216V10.322a1.266,1.266,0,0,1,.39-0.043v0.214c1.912,0.005,3.745-.123,5.714-0.129V9.509H18.4c-0.1.1-.015,0.047-0.173,0.043l-0.043-.128a0.754,0.754,0,0,0,.26-0.471H18.4c-0.1.095-.034,0.049-0.216,0.043,0.046-.289.221-0.3,0.26-0.6H18.4c-0.081.076-.034,0.079-0.13,0.043-0.107-.055-0.029.018-0.087-0.086a0.948,0.948,0,0,0,.3-0.557H18.442c-0.069.117-.039,0.108-0.216,0.128L18.182,7.8a0.754,0.754,0,0,0,.26-0.471H18.4c-0.1.1-.015,0.047-0.173,0.043l-0.043-.128a0.959,0.959,0,0,0,.346-0.6H18.485l-0.13.214a0.618,0.618,0,0,0-.173-0.043,1.008,1.008,0,0,1,.39-0.514c0.054-.085.3-1.254,0.3-1.285H18.831a2.717,2.717,0,0,1-1,.043,11.988,11.988,0,0,1-2.511-.214A2.519,2.519,0,0,1,14.2,4.67h0.606a3.493,3.493,0,0,1,.823-0.043A15.04,15.04,0,0,1,19,4.542a3.082,3.082,0,0,1,.866-1.5A0.474,0.474,0,0,1,20.13,3a5.449,5.449,0,0,1,.649.942c0.124,0.28.036,0.574,0.433,0.6a3.028,3.028,0,0,1,1.255,0c1.178,0,2.194.116,3.333,0.128V4.713H25.758a3.761,3.761,0,0,1-1.082.128,11.359,11.359,0,0,1-3.55.171V5.184c0.185,0.218.131,0.838,0.3,1.113A1.013,1.013,0,0,1,21.818,6.811Z"/>
</svg>
