<svg xmlns="http://www.w3.org/2000/svg" width="40" height="40" viewBox="0 0 40 40">
  <defs>
    <style>
      .cls-1 {
        fill: #fff;
        fill-rule: evenodd;
      }
    </style>
  </defs>
  <path id="Color_Fill_1" data-name="Color Fill 1" class="cls-1" d="M21.111,4.248a14.523,14.523,0,0,1,2.756.132c0.5,0.106,1.032-.057,1.467.088V4.513a37.985,37.985,0,0,1-4.089.309V4.865a2.945,2.945,0,0,1,.089.529,6.276,6.276,0,0,1,.267.573V6.8c0.045,0.1.2,0.228,0.267,0.353a0.285,0.285,0,0,0-.267.264,0.858,0.858,0,0,1,.267.353,0.263,0.263,0,0,0-.267.264,0.858,0.858,0,0,1,.267.353,0.263,0.263,0,0,0-.267.264,0.858,0.858,0,0,1,.267.353,0.263,0.263,0,0,0-.267.264,0.858,0.858,0,0,1,.267.353,0.3,0.3,0,0,0-.311.22,0.943,0.943,0,0,1,.311.4c-0.247.054-.31,0.061-0.311,0.353,1.928,0,3.747.084,5.6,0.088-0.006-1.049.073-2.1,0.133-3h0.178c0.036,0.909.086,2.008,0.089,3.042h0.356c0-.418.07-0.692,0.089-1.058h0.178c0.023,0.35.086,0.644,0.089,1.058a2.581,2.581,0,0,0,.711.044,3,3,0,0,0,.622.044c0.689,0.154,1.471.036,2.089,0.176,0.481,0.109,1.088.11,1.555,0.22H33.6c0.289,0.094.927,0.083,1.467,0.22,0.849,0.216,1.8.36,2.578,0.617,0.873,0.288,1.834.488,2.222,1.234a1.234,1.234,0,0,1-.267,1.278,6.4,6.4,0,0,1-2.533,1.851,28.82,28.82,0,0,1-5.511,1.939l-3.911.661-3.467.353a5.481,5.481,0,0,0-1.867.309c-0.657.474-.763,1.528-0.978,2.468l-0.044,1.323-0.622,7.846a7.206,7.206,0,0,1,3.911,1.234,2.13,2.13,0,0,1,1.111,1.19,1.03,1.03,0,0,1-.356,1.014,5.029,5.029,0,0,1-2.667.926,3.068,3.068,0,0,1-1.689-.088,4.208,4.208,0,0,1-.667-1.058H20.267v0.4c-0.257.432,0.082,1.811-.311,2.072V36.515a5.021,5.021,0,0,1-.178-1.543,1,1,0,0,0-.267-0.176,4.766,4.766,0,0,1-.489.837c-1.62.207-4.366-.152-4.711-1.411a1.449,1.449,0,0,1,.845-1.5,7.238,7.238,0,0,1,4.178-1.411l-0.578-7.229L18.622,21.66a4.828,4.828,0,0,0-.755-1.807c-0.418-.551-1.222-0.3-2.045-0.485l-4.133-.441c-1.032-.247-2.192-0.278-3.244-0.573a28.612,28.612,0,0,1-5.511-1.939A6.46,6.46,0,0,1,.222,14.387c-0.8-1.3.945-1.958,1.822-2.248C2.638,11.943,3.36,11.783,4,11.61l0.933-.132a2.747,2.747,0,0,1,1.333-.132,8.828,8.828,0,0,1,2.044-.309,17.342,17.342,0,0,1,3.378-.264,2.156,2.156,0,0,0,.044-0.617,1.211,1.211,0,0,0,.089-0.485H12c0.023,0.353.086,0.649,0.089,1.058h0.355c0-1.034.047-2.132,0.089-3.042h0.178c0.053,0.893.13,1.95,0.133,3,1.852,0,3.673-.084,5.6-0.088V10.331a0.406,0.406,0,0,1-.311-0.132,0.982,0.982,0,0,0,.311-0.485,0.406,0.406,0,0,1-.311-0.132A0.826,0.826,0,0,0,18.4,9.141a1.308,1.308,0,0,1-.267-0.176A0.826,0.826,0,0,0,18.4,8.524a1.308,1.308,0,0,1-.267-0.176A0.826,0.826,0,0,0,18.4,7.907a1.308,1.308,0,0,1-.267-0.176A0.826,0.826,0,0,0,18.4,7.29a0.876,0.876,0,0,1-.267-0.176c0.395-.389.115-0.544,0.267-1.146,0.051-.2.21-0.406,0.267-0.573,0.068-.2.031-0.407,0.089-0.573H17.422a2.694,2.694,0,0,0-.578-0.044,9.844,9.844,0,0,1-2.222-.353h0.622a2.931,2.931,0,0,1,.667-0.044c0.676-.146,2.5.065,2.933-0.132a3.377,3.377,0,0,0,.178-0.705,2.486,2.486,0,0,1,.889-1.5A0.3,0.3,0,0,1,20.089,2,3.654,3.654,0,0,1,21.111,4.248Z"/>
</svg>
