<svg xmlns="http://www.w3.org/2000/svg" width="40" height="40" viewBox="0 0 40 40">
  <defs>
    <style>
      .cls-1 {
        fill: #fff;
        fill-rule: evenodd;
      }
    </style>
  </defs>
  <path id="Color_Fill_1" data-name="Color Fill 1" class="cls-1" d="M21.535,10.6c1.965-.007,3.849.05,5.7,0.132v-0.22h0.4v0.22h0.223c-0.006-.843.1-1.665,0.133-2.424h0.178c0.029,0.74.086,1.614,0.089,2.468a17.052,17.052,0,0,1,3.56.309l1.557,0.132c1.531,0.35,3.166.473,4.538,0.926,0.9,0.3,2.653.935,1.869,2.248a6.154,6.154,0,0,1-2.358,1.851,24.46,24.46,0,0,1-6.051,2.16c-0.989.272-2.065,0.3-3.026,0.529-1.444.342-3.113,0.166-4.583,0.485-0.676.146-1.253-.04-1.6,0.4a4.654,4.654,0,0,0-.8,1.851l-0.133,2.424q-0.289,3.614-.578,7.229a7.124,7.124,0,0,1,3.915,1.234,2.135,2.135,0,0,1,1.112,1.234,1,1,0,0,1-.356.97,4.789,4.789,0,0,1-2.714.926,3.08,3.08,0,0,1-1.646-.088,4.208,4.208,0,0,1-.667-1.058H20.245v0.4c-0.257.432,0.082,1.811-.311,2.072V36.515a7.63,7.63,0,0,1-.223-1.587,0.8,0.8,0,0,0-.223-0.132,4.768,4.768,0,0,1-.489.837c-1.622.207-4.372-.152-4.716-1.411a1.469,1.469,0,0,1,.845-1.5,7.412,7.412,0,0,1,4.182-1.411q-0.289-3.614-.578-7.229L18.6,21.66a4.631,4.631,0,0,0-.8-1.851c-0.35-.437-0.926-0.248-1.6-0.4-1.379-.3-2.906-0.124-4.271-0.441C10.85,18.722,9.677,18.7,8.587,18.4a24.574,24.574,0,0,1-6.051-2.16c-0.866-.522-1.976-1-2.4-1.939-0.607-1.331.992-1.857,1.913-2.16,1.373-.451,3.006-0.58,4.538-0.926l1.557-.132a18.094,18.094,0,0,1,3.56-.309c0-.853.054-1.733,0.089-2.468h0.178C12,9.056,12.1,9.889,12.1,10.728h0.223v-0.22h0.4v0.22c1.847-.072,3.729-0.127,5.7-0.132V10.331a0.55,0.55,0,0,1-.311-0.088l0.044-.132a0.58,0.58,0,0,0,.267-0.4,0.551,0.551,0,0,1-.311-0.088l0.044-.132a0.458,0.458,0,0,0,.223-0.353l-0.267-.132,0.044-.132a0.41,0.41,0,0,0,.223-0.353l-0.267-.132,0.044-.132a0.366,0.366,0,0,0,.223-0.353l-0.267-.132,0.044-.132a0.366,0.366,0,0,0,.223-0.353l-0.267-.132,0.044-.132a1.091,1.091,0,0,0,.223-1.014,2.453,2.453,0,0,0,.311-1.146,12.906,12.906,0,0,1-2.848-.22,4.056,4.056,0,0,1-1.246-.176,9.339,9.339,0,0,0,1.6-.132c0.387-.088.913,0.031,1.246-0.044,0.436-.1,1.142.093,1.379-0.044A3.129,3.129,0,0,0,19,3.543a2.562,2.562,0,0,1,.89-1.5A0.3,0.3,0,0,1,20.067,2a4.563,4.563,0,0,1,.845,1.411,1.807,1.807,0,0,0,.267.838,4.985,4.985,0,0,0,1.157.044l2.937,0.176V4.557H25.006a3.456,3.456,0,0,1-.979.132,9.685,9.685,0,0,1-2.8.132V4.909a2.722,2.722,0,0,1,.089.529C21.369,5.6,21.52,5.8,21.58,6.011V6.849c0.04,0.088.337,0.2,0.223,0.309a0.336,0.336,0,0,0-.223.309,0.348,0.348,0,0,1,.223.309,0.336,0.336,0,0,0-.223.309,0.348,0.348,0,0,1,.223.309,0.365,0.365,0,0,0-.223.264,0.5,0.5,0,0,1,.223.353,0.365,0.365,0,0,0-.223.264,0.471,0.471,0,0,1,.223.353c-0.15.134-.222,0.036-0.267,0.22a0.557,0.557,0,0,1,.267.4C21.609,10.412,21.548,10.242,21.535,10.6Z"/>
</svg>
