<svg xmlns="http://www.w3.org/2000/svg" width="40" height="40" viewBox="0 0 40 40">
  <defs>
    <style>
      .cls-1 {
        fill: #fff;
        fill-rule: evenodd;
      }
    </style>
  </defs>
  <path id="Color_Fill_1" data-name="Color Fill 1" class="cls-1" d="M20.876,3.917l4.055,0.318V4.288H24.748a2.854,2.854,0,0,1-.733.08c-0.636.145-1.377,0.1-2.014,0.239a2.373,2.373,0,0,0-.916.133,1.487,1.487,0,0,1,.314.61,1.433,1.433,0,0,0,.052.371,0.968,0.968,0,0,1,.262.186,1.662,1.662,0,0,1,.052.212,5.78,5.78,0,0,1,.366,1.034,0.521,0.521,0,0,0-.183.027L22.08,8.211l-0.157.027L22,8.98h1.622a4.377,4.377,0,0,1,.837.027c0.335,0.078.769-.044,1.073,0.027h0.6a7.247,7.247,0,0,1,1.256.08c0.154,0.031.382-.071,0.576-0.026,0.488,0.112,1.132.05,1.6,0.133l0.314-.027c0.53,0.121,1.063.021,1.648,0.159l1.91,0.265c0.019,0.006.1,0.078,0.1,0.08a0.368,0.368,0,0,0,.131-0.053,9.868,9.868,0,0,1,1.544.292l0.575,0.079c0.63,0.166,1.281.254,1.91,0.451a4.577,4.577,0,0,0,1.387.424,1.114,1.114,0,0,0,.523.5,1.322,1.322,0,0,1,.366.716,1.175,1.175,0,0,1-.262.822,5.355,5.355,0,0,1-1.884,1.617,23.325,23.325,0,0,1-4.971,1.988c-0.545.182-1.135,0.241-1.674,0.4l-0.654.106c-0.965.263-2.054,0.3-3.061,0.557l-2.171.265c-0.214.051-.443,0.009-0.628,0.053-0.307.073-.636,0.013-0.916,0.079H23.466a2.017,2.017,0,0,0-1.282.424,4.608,4.608,0,0,0-.706,1.431c-0.081.266-.042,0.472-0.1,0.769a2.065,2.065,0,0,0-.052.689,6.446,6.446,0,0,0,.314.742c0.217,0.515.392,1.042,0.6,1.537,0.817,1.933,1.465,3.922,2.276,5.911,0.221,0.541.421,1.11,0.654,1.67a3.967,3.967,0,0,1,.366.954,0.178,0.178,0,0,0-.1.053,1.228,1.228,0,0,1-.052,1.564c-0.5.677-1.033,0.566-1.962,0.769l-0.628.026a7.956,7.956,0,0,1-1.648.133L20.327,33.6H20.3a0.551,0.551,0,0,0-.052.132,1.725,1.725,0,0,1-.052.557,8.25,8.25,0,0,1-.183,1.511,0.089,0.089,0,0,1-.052-0.026,2.617,2.617,0,0,1-.052-0.663c-0.045-.2-0.086-0.467-0.131-0.663-0.053-.232,0-0.418-0.209-0.477V33.816a0.125,0.125,0,0,0-.078.026l-0.654.822H18.443a8.117,8.117,0,0,0-1.256-.106c-0.369-.083-0.784-0.015-1.177-0.106a2.124,2.124,0,0,1-1.465-.8,1.157,1.157,0,0,1-.262-0.875,2.757,2.757,0,0,1,.262-0.636c-0.089-.025-0.081-0.01-0.1-0.106a4.1,4.1,0,0,0,.392-1.007c0.317-.759.591-1.554,0.916-2.332,0.643-1.542,1.169-3.1,1.831-4.692,0.124-.3.244-0.6,0.366-0.928a0.586,0.586,0,0,0,.1-0.318,5.7,5.7,0,0,0,.34-0.822c0.076-.186.2-0.414,0.262-0.61a3.282,3.282,0,0,0-.078-1.034c-0.05-.17-0.049-0.369-0.079-0.477a3.058,3.058,0,0,0-.837-1.537,4.022,4.022,0,0,0-1.439-.318H15.906c-0.278-.064-0.605-0.008-0.916-0.079-0.742-.172-1.593-0.107-2.3-0.292l-0.549-.053c-1.389-.345-2.715-0.383-4.055-0.769A27.6,27.6,0,0,1,2.59,14.784,5.91,5.91,0,0,1,.235,12.929a1.163,1.163,0,0,1,.314-1.643c0.086-.065.357-0.367,0.366-0.371,0.1-.053.229-0.01,0.392-0.079a27.283,27.283,0,0,1,3.715-.981l0.811-.106A4.142,4.142,0,0,1,6.3,9.642a0.9,0.9,0,0,0,.131.053,1.215,1.215,0,0,1,.1-0.08c0.331-.1.709-0.085,1.02-0.159,0.38-.091.773-0.052,1.125-0.133l0.942-.053c0.566-.132,1.193-0.021,1.805-0.159,0.178-.04.429,0.006,0.575-0.026a5.39,5.39,0,0,1,.576.026,8.537,8.537,0,0,1,1.177-.08h0.68c0.3-.067.736,0.048,1.073-0.027a4.552,4.552,0,0,1,.837-0.027h1.622V8.953H18a3.2,3.2,0,0,1,.079-0.716l-0.183-.027,0.131-1.06H17.868a2.848,2.848,0,0,1,.576-1.378,0.224,0.224,0,0,1,.131-0.027,3.77,3.77,0,0,1,.314-1.034,9.9,9.9,0,0,1-1.57-.159c-0.418-.094-0.841-0.044-1.23-0.133a2.584,2.584,0,0,1-.942-0.159h0.026V4.235L19.1,3.943a1.352,1.352,0,0,1,.811-1.113C20.383,2.717,20.833,3.548,20.876,3.917ZM21.269,22.27l-0.6,8.111a6.985,6.985,0,0,1,3.375.928,3.1,3.1,0,0,1,.994.636h0.026V31.892a1,1,0,0,0-.131-0.477A10.547,10.547,0,0,0,24.3,29.93a2.108,2.108,0,0,0-.209-0.583c-0.163-.384-0.289-0.771-0.445-1.14-0.534-1.266-.942-2.472-1.465-3.737-0.226-.547-0.406-1.09-0.628-1.617A0.928,0.928,0,0,0,21.269,22.27Zm-1.962,8.084a6.468,6.468,0,0,0-.1-1.325c-0.074-.341-0.012-0.7-0.079-1.007l-0.131-2.094c-0.1-.443,0-0.965-0.1-1.431-0.046-.212,0-0.471-0.052-0.716a7.537,7.537,0,0,1-.1-1.458h-0.1c-0.931,2.325-1.851,4.875-2.852,7.236-0.248.584-.458,1.176-0.68,1.749a5.287,5.287,0,0,0-.209.636v0.026a16.229,16.229,0,0,1,1.517-.928A10.236,10.236,0,0,1,19.307,30.354Zm4.317-2.094a0.1,0.1,0,0,1,.026.053H23.623V28.26Z"/>
</svg>
