<svg xmlns="http://www.w3.org/2000/svg" width="39.969" height="40" viewBox="0 0 39.969 40">
  <defs>
    <style>
      .cls-1 {
        fill: #fff;
        fill-rule: evenodd;
      }
    </style>
  </defs>
  <path id="Color_Fill_1" data-name="Color Fill 1" class="cls-1" d="M21.726,8.563l2.19,0.028a7.6,7.6,0,0,1,1.4.028c0.29,0.063.671-.027,0.926,0.028h0.505A7.526,7.526,0,0,1,28.07,8.7V7.517A2.533,2.533,0,0,0,28.1,6.924c0.03-.139-0.01-0.391.028-0.565a1.819,1.819,0,0,0,.084-0.4h0.2a5.257,5.257,0,0,0,.084.791q0.014,0.975.028,1.95L28.8,8.733a0.368,0.368,0,0,1,.14-0.424c0.328-.205.239,0.331,0.365,0.424a2.955,2.955,0,0,0,.73.057c0.539,0.12,1.156.015,1.712,0.141,0.61,0.139,1.337.056,1.965,0.2,0.256,0.058.555,0.018,0.842,0.085,1.067,0.247,2.27.258,3.312,0.537,0.455,0.122.917,0.142,1.347,0.254a1.424,1.424,0,0,1,.421.085,0.86,0.86,0,0,1,.028.367,0.246,0.246,0,0,1,.028.141,1.084,1.084,0,0,1,.253.028V10.88a4,4,0,0,1,0,1.1c0,1.033-.228,1.975-0.281,2.911a28.353,28.353,0,0,1-6.877,2.515c-0.449.123-.923,0.123-1.347,0.226a0.411,0.411,0,0,1-.14-0.028,4.019,4.019,0,0,1-.786.17c-0.472.119-1.017,0.169-1.488,0.283l-0.646.056c-0.905.214-2,.123-2.947,0.339-0.315.072-.643,0.02-0.926,0.085a6.976,6.976,0,0,0-1.656.2,3.332,3.332,0,0,0-.253.254,2.177,2.177,0,0,0-.618.82,1.8,1.8,0,0,0-.168.226c-0.053.142-.015,0.249-0.056,0.4-0.086.307-.175,0.678-0.253,0.989l-0.084,1.526-0.7,9.27a3.729,3.729,0,0,1,.9.113c0.494,0.119.9,0.1,1.347,0.254a10.258,10.258,0,0,1,2.47,1.243,1.773,1.773,0,0,1,.954,1.724c-0.309,1.194-1.211,1.225-2.414,1.5l-0.982.056a8.254,8.254,0,0,1-1.684.141c-0.249-.39-0.654-0.686-0.87-1.1a0.6,0.6,0,0,1-.2.028c0,0.708-.081,1.326-0.084,2.091a0.354,0.354,0,0,0-.112.028v0.028c0.114,0,.067-0.046.112,0.028a1.252,1.252,0,0,0-.14.65H19.958V38.972a0.286,0.286,0,0,1-.056-0.254,1.191,1.191,0,0,0-.028-0.565l-0.14-1.526c-0.013-.009-0.253-0.226-0.253-0.226-0.028-.05,0-0.134-0.028-0.17v0.028a7.062,7.062,0,0,0-.646.763,0.9,0.9,0,0,1-.14.226H18.3a0.6,0.6,0,0,0-.281-0.028,0.238,0.238,0,0,0-.028-0.141,0.238,0.238,0,0,1-.028.141,8.764,8.764,0,0,0-1.347-.113c-0.19-.042-0.425-0.006-0.646-0.056-0.967-.22-1.713-0.245-2.189-0.961L13.7,35.835a1.425,1.425,0,0,1,.505-1.752,8.324,8.324,0,0,1,5.025-1.865l-0.449-5.793-0.028-.791c-0.189-.864-0.036-1.88-0.225-2.741L18.47,21.648c-0.082-.372-0.158-0.76-0.253-1.1l-0.084-.509A2.872,2.872,0,0,0,16.9,18.652a9.576,9.576,0,0,0-1.319-.113c-0.78-.174-1.69-0.08-2.47-0.254l-0.618-.028c-0.694-.159-1.46-0.134-2.161-0.311-0.68-.172-1.453-0.23-2.133-0.4l-1.039-.141a37.427,37.427,0,0,1-3.593-1.074c-0.406-.168-0.806-0.224-1.207-0.4-0.429-.184-0.878-0.434-1.291-0.65a0.9,0.9,0,0,1-.758-0.565,4.563,4.563,0,0,1-.14-1.074A15.253,15.253,0,0,1,0,10.626H0.056A0.442,0.442,0,0,1,.281,10.6V10.089H0.309V10.061a3.849,3.849,0,0,0,.87-0.17C1.59,9.784,2,9.764,2.386,9.665l0.561-.057c0.777-.191,1.659-0.213,2.442-0.4l1.123-.085c0.951-.216,2.033-0.092,3-0.311,0.382-.086.816-0.013,1.179-0.085a0.4,0.4,0,0,1,.14-0.424A0.3,0.3,0,0,1,11,8.28a0.986,0.986,0,0,1,.084.085,0.607,0.607,0,0,1,.056.367L11.425,8.7a9.562,9.562,0,0,1,.056-1.865V6.246a0.981,0.981,0,0,0,.056-0.283h0.225a5.03,5.03,0,0,0,.084.876q0.014,0.933.028,1.865H11.93a1.428,1.428,0,0,1,.533-0.028L13.7,8.648c0.255-.055.636,0.034,0.926-0.028a7.622,7.622,0,0,1,1.4-.028l2.218-.028V7.376H18.218V7.4a0.232,0.232,0,0,1-.168.141c-0.022-.019-0.063-0.037-0.084-0.057a0.1,0.1,0,0,1-.028-0.057,1.444,1.444,0,0,0,.112-0.226,0.512,0.512,0,0,0,.2-0.452H18.218V6.783a0.28,0.28,0,0,1-.168.141,0.334,0.334,0,0,1-.112-0.113,1.454,1.454,0,0,0,.112-0.226,0.546,0.546,0,0,0,.2-0.48H18.218V6.161a0.28,0.28,0,0,1-.168.141,0.334,0.334,0,0,1-.112-0.113,2.038,2.038,0,0,0,.112-0.254c0.143-.211.229-0.048,0.225-0.48H18.246V5.483a0.585,0.585,0,0,1-.168.2,0.329,0.329,0,0,0-.14-0.057V5.539a3.311,3.311,0,0,0,.281-0.4,0.377,0.377,0,0,1-.028-0.2H18.161V5a0.234,0.234,0,0,1-.084.057A0.329,0.329,0,0,0,17.937,5V4.917a1.845,1.845,0,0,0,.281-0.452A0.135,0.135,0,0,0,18.3,4.437a0.308,0.308,0,0,0,.028-0.17,0.246,0.246,0,0,0,.028-0.141H18.33a0.948,0.948,0,0,1-.253.311,0.189,0.189,0,0,0-.14-0.057C18,3.967,18.4,3.97,18.414,3.533l0.225-.9c0.091-.023.043,0.014,0.084-0.057a0.483,0.483,0,0,1,.028-0.311H18.723A2.213,2.213,0,0,1,17.4,2.4a14.179,14.179,0,0,1-2.863-.254,2.11,2.11,0,0,1-1.067-.2l2.105-.141c0.281-.061.652,0.025,0.9-0.028h0.646c0.584,0,1.2.027,1.74,0.028a6.343,6.343,0,0,1,.73-1.526L19.958,0a0.08,0.08,0,0,1,.028.028,2.06,2.06,0,0,1,.9,1.215,0.648,0.648,0,0,0,.337.565,15.263,15.263,0,0,0,1.628,0,6.7,6.7,0,0,1,1.375.057c0.357,0.082.745-.017,1.067,0.057,0.371,0.085.826-.012,1.179,0.057V2.007c-0.719.081-1.545,0.1-2.246,0.254l-1.039.057a7.4,7.4,0,0,1-1.853.028,1.484,1.484,0,0,0-.14-0.085V2.317A5.724,5.724,0,0,1,21.5,3.335l0.056,0.452,0.084,0.028a1.035,1.035,0,0,1,.365.565,0.311,0.311,0,0,1-.168.028,0.934,0.934,0,0,0-.253-0.283V4.3a0.246,0.246,0,0,1,.028.141A0.86,0.86,0,0,1,22.007,5a0.311,0.311,0,0,1-.168.028,1.069,1.069,0,0,0-.2-0.226V5.087a0.8,0.8,0,0,1,.365.537,0.191,0.191,0,0,0-.112.057,0.1,0.1,0,0,1-.056-0.028,0.528,0.528,0,0,1-.14-0.2H21.67V5.737a0.749,0.749,0,0,1,.337.509,1.561,1.561,0,0,1-.2.057c-0.024-.093-0.056-0.112-0.084-0.2H21.7V6.387a1.063,1.063,0,0,1,.337.48H21.979a0.29,0.29,0,0,1-.168.057c-0.024-.093-0.056-0.112-0.084-0.2H21.7V7.037a0.949,0.949,0,0,1,.337.452H21.979a0.206,0.206,0,0,1-.168.057c-0.026-.087-0.058-0.106-0.084-0.2H21.7V8.309A0.527,0.527,0,0,1,21.726,8.563Z" transform="translate(0 0.5)"/>
</svg>
