<svg xmlns="http://www.w3.org/2000/svg" width="100" height="100" viewBox="0 0 100 100">
  <defs>
    <style>
      .cls-1 {
        fill: #fff;
        fill-rule: evenodd;
      }
    </style>
  </defs>
  <path id="Rectangle_991_copy_7" data-name="Rectangle 991 copy 7" class="cls-1" d="M69.786,98H29.214A15.186,15.186,0,0,1,14,82.842V37.94H24.143V22.211A20.248,20.248,0,0,1,44.429,2H54.571A20.248,20.248,0,0,1,74.857,22.211V37.94H85v44.9A15.186,15.186,0,0,1,69.786,98ZM44.429,71.335v16.7H54.571v-16.7A10.143,10.143,0,1,0,44.429,71.335ZM64.714,27.263a15.214,15.214,0,0,0-30.429,0V37.94H64.714V27.263Z"/>
</svg>
