<?xml version="1.0" encoding="UTF-8"?>
<svg id="Layer_1" data-name="Layer 1" xmlns="http://www.w3.org/2000/svg" width="128" height="128" xmlns:xlink="http://www.w3.org/1999/xlink" viewBox="0 0 128 128">
  <defs>
    <style>
      .cls-1 {
        fill: url(#linear-gradient-8);
      }

      .cls-1, .cls-2, .cls-3, .cls-4, .cls-5, .cls-6, .cls-7, .cls-8, .cls-9, .cls-10, .cls-11, .cls-12, .cls-13, .cls-14, .cls-15, .cls-16, .cls-17, .cls-18, .cls-19, .cls-20, .cls-21, .cls-22, .cls-23, .cls-24, .cls-25, .cls-26, .cls-27, .cls-28, .cls-29, .cls-30, .cls-31, .cls-32 {
        stroke-width: 0px;
      }

      .cls-1, .cls-2, .cls-3, .cls-4, .cls-5, .cls-6, .cls-7, .cls-8, .cls-11, .cls-12, .cls-13, .cls-14, .cls-16, .cls-17, .cls-20, .cls-21, .cls-23, .cls-25, .cls-26, .cls-27, .cls-29, .cls-30, .cls-31, .cls-32 {
        fill-rule: evenodd;
      }

      .cls-2 {
        fill: url(#linear-gradient-11);
      }

      .cls-3 {
        fill: url(#linear-gradient-7);
      }

      .cls-4 {
        fill: url(#linear-gradient-16);
      }

      .cls-5 {
        fill: url(#linear-gradient-9);
      }

      .cls-6 {
        opacity: .6;
      }

      .cls-6, .cls-11 {
        fill: #969696;
      }

      .cls-8 {
        fill: url(#linear-gradient-3);
      }

      .cls-10 {
        fill: url(#linear-gradient-15);
      }

      .cls-11 {
        opacity: .5;
      }

      .cls-12 {
        fill: url(#radial-gradient-3);
      }

      .cls-13 {
        fill: #050505;
      }

      .cls-14 {
        fill: url(#linear-gradient);
      }

      .cls-15 {
        fill: url(#linear-gradient-14);
      }

      .cls-16 {
        fill: url(#linear-gradient-13);
      }

      .cls-17 {
        fill: rgba(91, 91, 91, .5);
      }

      .cls-18 {
        fill: #444642;
      }

      .cls-19 {
        fill: url(#radial-gradient-2);
      }

      .cls-20 {
        fill: url(#linear-gradient-2);
      }

      .cls-21 {
        fill: #070707;
      }

      .cls-22 {
        fill: #606060;
        opacity: .9;
      }

      .cls-23 {
        fill: url(#linear-gradient-5);
      }

      .cls-24 {
        fill: url(#radial-gradient);
      }

      .cls-25 {
        fill: url(#radial-gradient-5);
      }

      .cls-26 {
        fill: url(#linear-gradient-12);
      }

      .cls-27 {
        fill: #5c5e5b;
      }

      .cls-28 {
        fill: url(#linear-gradient-4);
      }

      .cls-29 {
        fill: #0e0e0e;
      }

      .cls-30 {
        fill: url(#linear-gradient-6);
      }

      .cls-31 {
        fill: url(#linear-gradient-10);
      }

      .cls-32 {
        fill: url(#radial-gradient-4);
        opacity: .4;
      }
    </style>
    <linearGradient id="linear-gradient" x1="-772.32" y1="188.81" x2="-771.52" y2="188.81" gradientTransform="translate(2444.5 91144.29) rotate(84.7) scale(115.45 -31.78) skewX(-4.71)" gradientUnits="userSpaceOnUse">
      <stop offset="0" stop-color="#353736"/>
      <stop offset=".96" stop-color="#242424"/>
    </linearGradient>
    <linearGradient id="linear-gradient-2" x1="-779.18" y1="186.07" x2="-778.4" y2="186.07" gradientTransform="translate(-12526.71 25536.91) rotate(102.75) scale(35.5 -35.5)" gradientUnits="userSpaceOnUse">
      <stop offset="0" stop-color="#090909"/>
      <stop offset=".13" stop-color="#1a1b19"/>
      <stop offset=".3" stop-color="#5d5f5c"/>
      <stop offset=".45" stop-color="#a7a8a5"/>
      <stop offset=".67" stop-color="#393b37"/>
      <stop offset="1" stop-color="#313232"/>
    </linearGradient>
    <linearGradient id="linear-gradient-3" x1="-774.61" y1="171.89" x2="-773.77" y2="171.89" gradientTransform="translate(-9661.03 85217.98) rotate(83.97) scale(108.07 -108.07)" gradientUnits="userSpaceOnUse">
      <stop offset="0" stop-color="#141414"/>
      <stop offset="1" stop-color="#1c1d1c"/>
    </linearGradient>
    <linearGradient id="linear-gradient-4" x1="32.7" y1="56.28" x2="36.63" y2="86.43" gradientUnits="userSpaceOnUse">
      <stop offset="0" stop-color="#030303"/>
      <stop offset="1" stop-color="#0f0f0f"/>
    </linearGradient>
    <linearGradient id="linear-gradient-5" x1="-772.17" y1="115.11" x2="-770.9" y2="115.11" gradientTransform="translate(2351.44 -10918.73) rotate(-86.85) scale(14.39 -14.39)" gradientUnits="userSpaceOnUse">
      <stop offset="0" stop-color="#4b4d49"/>
      <stop offset=".7" stop-color="#20211f"/>
      <stop offset=".99" stop-color="#000"/>
    </linearGradient>
    <linearGradient id="linear-gradient-6" x1="-787.25" y1="131.86" x2="-786.48" y2="131.86" gradientTransform="translate(5927.43 -9616.28) rotate(-72.87) scale(12.07 -20.69) skewX(-43.11)" gradientUnits="userSpaceOnUse">
      <stop offset="0" stop-color="#141414"/>
      <stop offset="1" stop-color="#1f2120"/>
    </linearGradient>
    <linearGradient id="linear-gradient-7" x1="-788.35" y1="151.22" x2="-787.59" y2="151.22" gradientTransform="translate(12511.73 -10574.96) rotate(-67) scale(12.13 -48.23) skewX(-70.33)" xlink:href="#linear-gradient-6"/>
    <linearGradient id="linear-gradient-8" x1="-779.07" y1="180.95" x2="-778.55" y2="180.95" gradientTransform="translate(-16849 30754.16) rotate(105.75) scale(43.85 -43.85)" gradientUnits="userSpaceOnUse">
      <stop offset="0" stop-color="#1a1b19"/>
      <stop offset=".08" stop-color="#3e413d"/>
      <stop offset=".18" stop-color="#5d5f5c"/>
      <stop offset=".31" stop-color="#aeafad"/>
      <stop offset=".49" stop-color="#9e9f9c"/>
      <stop offset=".66" stop-color="#393b37"/>
      <stop offset="1" stop-color="#181917"/>
    </linearGradient>
    <linearGradient id="linear-gradient-9" x1="-785.13" y1="204.47" x2="-784.54" y2="204.47" gradientTransform="translate(-7396.2 13010.94) rotate(105.29) scale(18.43 -18.43)" gradientUnits="userSpaceOnUse">
      <stop offset="0" stop-color="#202020"/>
      <stop offset=".5" stop-color="#000"/>
      <stop offset="1" stop-color="#181818"/>
    </linearGradient>
    <radialGradient id="radial-gradient" cx="-763.49" cy="183" fx="-763.49" fy="183" r=".6" gradientTransform="translate(-29187.16 20993.24) rotate(134.36) scale(44.62 -34.4) skewX(-9.69)" gradientUnits="userSpaceOnUse">
      <stop offset="0" stop-color="#353736"/>
      <stop offset="1" stop-color="#242424"/>
    </radialGradient>
    <linearGradient id="linear-gradient-10" x1="-784.99" y1="196.87" x2="-784.4" y2="196.87" gradientTransform="translate(-9279.97 14790.12) rotate(108.36) scale(21.59 -21.59)" gradientUnits="userSpaceOnUse">
      <stop offset="0" stop-color="#1e1e1e"/>
      <stop offset=".08" stop-color="#3e413d"/>
      <stop offset=".13" stop-color="#1a1b19"/>
      <stop offset=".2" stop-color="#151614"/>
      <stop offset=".36" stop-color="#424341"/>
      <stop offset=".47" stop-color="#5d5e5d"/>
      <stop offset=".56" stop-color="#5a5b58"/>
      <stop offset=".76" stop-color="#20211f"/>
      <stop offset=".87" stop-color="#181917"/>
      <stop offset="1" stop-color="#1b1b1b"/>
    </linearGradient>
    <linearGradient id="linear-gradient-11" x1="84.6" y1="51.03" x2="102.03" y2="51.03" gradientUnits="userSpaceOnUse">
      <stop offset="0" stop-color="#fff" stop-opacity=".5"/>
      <stop offset=".2" stop-color="#272825" stop-opacity=".5"/>
      <stop offset=".34" stop-color="#363733" stop-opacity=".5"/>
      <stop offset=".47" stop-color="#696b64" stop-opacity=".5"/>
      <stop offset="1" stop-color="#1d1e1c" stop-opacity=".5"/>
    </linearGradient>
    <linearGradient id="linear-gradient-12" x1="84.24" y1="50.85" x2="137.4" y2="50.85" xlink:href="#linear-gradient-11"/>
    <linearGradient id="linear-gradient-13" x1="-782.47" y1="192.89" x2="-781.93" y2="192.89" gradientTransform="translate(-9600.71 17138.49) rotate(105.74) scale(24.39 -24.39)" gradientUnits="userSpaceOnUse">
      <stop offset="0" stop-color="#1a1b19"/>
      <stop offset=".08" stop-color="#3e413d"/>
      <stop offset=".18" stop-color="#5d5f5c"/>
      <stop offset=".31" stop-color="#cbcbcb"/>
      <stop offset=".49" stop-color="#cbcbcb"/>
      <stop offset=".66" stop-color="#393b37"/>
      <stop offset="1" stop-color="#181917"/>
    </linearGradient>
    <linearGradient id="linear-gradient-14" x1="107.85" y1="57.41" x2="142.56" y2="57.41" gradientTransform="translate(138.4 -67.49) rotate(74.41)" xlink:href="#linear-gradient-11"/>
    <linearGradient id="linear-gradient-15" x1="108.24" y1="57.56" x2="119.85" y2="57.56" gradientTransform="translate(138.82 -67.76) rotate(74.41)" xlink:href="#linear-gradient-11"/>
    <radialGradient id="radial-gradient-2" cx="-755.62" cy="195.86" fx="-755.62" fy="195.86" r=".6" gradientTransform="translate(-16761.48 11788.11) rotate(134.36) scale(25.59 -19.73) skewX(-9.69)" xlink:href="#radial-gradient"/>
    <linearGradient id="linear-gradient-16" x1="-770.47" y1="147.61" x2="-769.21" y2="147.61" gradientTransform="translate(13885.58 -28159.21) rotate(-74.75) scale(40.12 -40.12)" gradientUnits="userSpaceOnUse">
      <stop offset="0" stop-color="#353736"/>
      <stop offset=".86" stop-color="#292929"/>
      <stop offset=".95" stop-color="#1d1d1d"/>
      <stop offset="1" stop-color="#1e1e1e"/>
    </linearGradient>
    <radialGradient id="radial-gradient-3" cx="86.25" cy="47.45" fx="86.25" fy="47.45" r="9.87" gradientUnits="userSpaceOnUse">
      <stop offset=".31" stop-color="#fff"/>
      <stop offset="1" stop-color="#1d1e1c" stop-opacity=".5"/>
    </radialGradient>
    <radialGradient id="radial-gradient-4" cx="17.32" cy="27.74" fx="17.32" fy="27.74" r="9.87" xlink:href="#radial-gradient-3"/>
    <radialGradient id="radial-gradient-5" cx="109.26" cy="54.73" fx="109.26" fy="54.73" r="5.34" xlink:href="#radial-gradient-3"/>
  </defs>
  <path class="cls-7" d="m96.2,66.83l-2,8.53c-.08.36-.26.69-.51.96l-9.38,9.89c-.19.21-.42.36-.68.48l-34.73,14.94c-.11.04-.22.08-.33.11,0,0-4.47,1.08-4.47,1.08-1.12,2.91-3.3,5.26-6.09,6.39l-4.56,1.84c-.67.27-1.35.46-2.03.57-1.21.38-3.19.45-5.33.17-3.19-.41-6.71-1.49-8.14-2.49-2.42-1.69-5.2-6.5-5.91-9.48-3.16-13.28-5.78-39.63-6.32-58.59-.1-3.67-.13-7.06-.07-10.04.11-5.35,2.12-10.38,6.51-12.15l6.36-2.49c1.82-.74,5.04-.48,8.46-.28,1.55.1,2.88.42,3.76.89,1.05.29,2.07.76,3.01,1.41.12.08.23.18.35.27,0,0,62.34,17.4,62.33,17.4,2.6.13,4.98,1.41,6.79,3.3.12.12.24.25.36.39,1.21,1.36,2.16,3.14,2.72,5.22l10.85,3.03c2.92.82,5.22,3.88,5.22,8.18,0,5.18-3.43,9.95-7.42,10.83-.9.19-1.76.2-2.56.05-.57-.05-1.12-.2-1.62-.39-.11-.04-.22-.08-.33-.13,0,0-9.59-2.68-9.59-2.68-1.41,1.28-2.98,2.24-4.65,2.79Zm-51.94,23.64l24.03-10.42-.11-8.79-6.97-6.29-19.82-5.35,2.86,30.84Z"/>
  <path class="cls-14" d="m19.3,18.46c2.37-.96,8.56-.86,10.66.62,2.1,1.47-1.55,5.14-1.29,7.95,1.72,18.6,5.08,54.75,6.52,70.31.4,4.34-2.72,11.64-4.27,12.27-2.37.96-9.69-.52-11.79-1.99-2.1-1.48-4.47-5.68-5.09-8.29-3.74-15.71-6.71-49.93-6.33-68.11.09-4.46,1.92-8.46,5.59-9.94l5.99-2.82Z"/>
  <path class="cls-20" d="m7.78,41.17c-.1-3.65-.13-7-.07-9.95.09-4.46,1.98-8.98,5.65-10.46l5.93-2.31c2.37-.96,8.56-.86,10.66.62.03.02.07.05.1.08l-7.97,26.33-14.31-4.32Z"/>
  <path class="cls-29" d="m24.25,18.28c2.77-1.12,5.8-.77,8.26.95.76.53,1.52,1.56,2.16,2.87,1.31,2.67,2.26,6.53,2.45,8.6l6.17,66.51c.45,4.9-2.22,9.55-6.36,11.22l-4.56,1.84c-2.77,1.12-5.8.77-8.26-.95-2.39-1.68-3.97-4.5-4.26-7.68l-6.12-65.95c-.54-5.79,1.85-13.92,10.52-17.41Z"/>
  <path class="cls-8" d="m25.5,19.44c2.37-.96,4.97-.66,7.07.81,2.1,1.48,3.83,7.76,4.09,10.57,1.72,18.6,4.73,50.96,6.17,66.51.4,4.34-1.92,8.47-5.59,9.95l-4.56,1.84c-2.37.96-4.97.66-7.07-.82-2.1-1.47-3.47-3.96-3.73-6.76-1.72-18.6-4.67-50.39-6.12-65.95-.5-5.38,1.71-12.9,9.74-16.14Z"/>
  <path class="cls-21" d="m25.5,19.44c2.37-.96,4.97-.66,7.07.81,2.1,1.48,3.83,7.76,4.09,10.57,1.72,18.6-.17-1.78,1.28,13.78.4,4.34-1.92,8.47-5.59,9.95l-4.56,1.84c-2.37.96-4.97.66-7.07-.82-2.1-1.47-3.47-3.96-3.73-6.76-1.73-18.61.22,2.34-1.23-13.22-.5-5.38,1.71-12.9,9.74-16.14Z"/>
  <path class="cls-7" d="m40.42,95.79l-3.95-51.04-16.24-2.35,4.64,55.77,15.55-2.38Z"/>
  <polygon class="cls-28" points="32.58 94.36 40.43 92.05 37.33 52.85 28.72 54.05 32.58 94.36"/>
  <polygon class="cls-18" points="44.22 92.71 40.42 91.87 31.09 94.59 37.22 95.75 44.22 92.71"/>
  <path class="cls-23" d="m95.34,61.46l-3.14,13.41-9.55,2.31,3.06-13.5,9.63-2.22Z"/>
  <path class="cls-30" d="m82.82,84.78l9.38-9.9-9.55,2.31-9.46,9.81,9.63-2.22Z"/>
  <path class="cls-3" d="m82.82,84.78l-34.74,14.94-9.55,2.31,34.66-15.03,9.63-2.22Z"/>
  <path class="cls-1" d="m21.9,45.7c-3.69-1.15-6.29-5.27-6.29-10.76,0-7.25,4.54-14.14,10.12-15.38,1.2-.27,2.35-.25,3.42.01h0s69.21,19.31,69.21,19.31l-6.98,26.21L21.9,45.7h0Z"/>
  <path class="cls-5" d="m21.9,45.7c-3.69-1.15-6.29-5.27-6.29-10.76l77.71,22.87-1.94,7.29L21.9,45.7h0Z"/>
  <ellipse class="cls-24" cx="94.72" cy="51.95" rx="13.56" ry="9.8" transform="translate(19.21 129.22) rotate(-74.4)"/>
  <path class="cls-31" d="m86.04,50.06c1.54-5.09,3.63-6.86,4.18-7.26h0s7.18,2,7.18,2l-4.01,15.03-7.77-2.23s-.98-2.94.42-7.54Z"/>
  <ellipse class="cls-9" cx="94.72" cy="52.37" rx="8.61" ry="5.98" transform="translate(22.62 133.1) rotate(-77.17)"/>
  <ellipse class="cls-9" cx="94.72" cy="52.38" rx="9.55" ry="6.62" transform="translate(22.62 133.1) rotate(-77.17)"/>
  <path class="cls-2" d="m88.18,63.42c-2.19-1.92-3.59-5.2-3.59-9.23,0-7.25,4.54-14.14,10.12-15.38,2.88-.64,5.48.36,7.32,2.45-1.76-1.55-4.04-2.21-6.53-1.66-5.59,1.24-10.12,8.12-10.12,15.37,0,3.51,1.07,6.47,2.8,8.44Z"/>
  <path class="cls-26" d="m88.19,63.43c-2.23-1.96-3.95-5.29-3.95-9.38,0-7.36,4.61-14.36,10.28-15.62,2.92-.65,5.63.7,7.5,2.83-1.79-1.57-4.18-2.59-6.71-2.03-5.67,1.26-10.28,8.25-10.28,15.61,0,3.57,1.39,6.58,3.15,8.58Z"/>
  <path class="cls-16" d="m92.97,59.68c-2.11-.66-3.61-3.03-3.61-6.17,0-4.16,2.6-8.11,5.81-8.82.69-.15,1.35-.14,1.96,0h0s19.47,5.43,19.47,5.43l-4.01,15.03-19.63-5.48h0Z"/>
  <ellipse class="cls-15" cx="113.65" cy="57.41" rx="7.78" ry="5.62" transform="translate(27.8 151.45) rotate(-74.41)"/>
  <ellipse class="cls-10" cx="114.04" cy="57.56" rx="7.78" ry="5.62" transform="translate(27.95 151.93) rotate(-74.41)"/>
  <ellipse class="cls-19" cx="114.51" cy="57.63" rx="7.78" ry="5.62" transform="translate(28.22 152.43) rotate(-74.41)"/>
  <path class="cls-22" d="m23.54,46.44l62.99,17.87-3.1,12.87-9.29,9.74-35.14,15.24-10.81-3.17-4.65-52.55Zm5.95,7.61l3,40.29,5.23,1.54,33.43-14.5-.14-11.06-8-7.21-33.52-9.05Z"/>
  <path class="cls-4" d="m20.23,44.94l65.51,18.59-3.1,13.66-9.29,9.74-35.14,15.24-13.34-3.89-4.65-53.33Zm8.48,9.11l3,40.29,5.23,1.54,33.43-14.5-.14-11.06-8-7.21-33.52-9.05Z"/>
  <path class="cls-12" d="m84.67,54.66c-.03-.57-.05-1.13-.03-1.69.02-.87.08-1.72.2-2.54.09-.57.2-1.13.36-1.68.09-.37.21-.73.35-1.09.14-.35.3-.71.46-1.04.26-.52.55-1.01.87-1.48.31-.48.66-.93,1.04-1.37.54-.64,1.15-1.22,1.81-1.78-.6.73-1.12,1.49-1.59,2.28-.47.79-.86,1.6-1.22,2.46-.17.4-.32.8-.48,1.22-.12.31-.23.6-.34.92-.11.31-.21.62-.31.93-.2.62-.38,1.26-.54,1.91-.24.96-.44,1.93-.57,2.96Z"/>
  <path class="cls-32" d="m15.74,34.95c-.03-.57-.05-1.13-.03-1.69.02-.87.08-1.72.2-2.54.09-.57.2-1.13.36-1.68.09-.37.21-.73.35-1.09.14-.35.3-.71.46-1.04.26-.52.55-1.01.87-1.48.31-.48.66-.93,1.04-1.37.54-.64,1.15-1.22,1.81-1.78-.6.73-1.12,1.49-1.59,2.28-.47.79-.86,1.6-1.22,2.46-.17.4-.32.8-.48,1.22-.12.31-.23.6-.34.92-.11.31-.21.62-.31.93-.2.62-.38,1.26-.54,1.91-.24.96-.44,1.93-.57,2.96Z"/>
  <path class="cls-25" d="m108.47,58.63c-.08-.49-.11-1.02-.08-1.62,0-.23.03-.46.06-.7.04-.3.1-.61.17-.91.05-.2.11-.4.18-.59.08-.2.16-.39.25-.57.15-.28.31-.55.48-.81.18-.27.37-.52.57-.74.34-.39.69-.69,1.05-.91-.26.31-.47.7-.68,1.15-.12.26-.22.53-.33.82-.15.37-.26.77-.39,1.16-.09.26-.19.51-.29.76-.15.39-.31.77-.45,1.15-.24.65-.44,1.25-.55,1.81Z"/>
  <path class="cls-17" d="m36.92,95.58s4.46-2.01,10.16-4.53c1.94-.86,4.02-1.77,6.12-2.67,1.37-.59,2.74-1.18,4.09-1.75.93-.38,1.85-.77,2.74-1.13.94-.39,1.87-.76,2.75-1.11,4.16-1.66,7.37-2.91,8.11-3.2l.13-10.64.42,10.83v.18l-.16.07s-3.45,1.53-8.16,3.56c-.87.38-1.78.77-2.73,1.17-.89.37-1.81.75-2.73,1.13-1.36.56-2.75,1.11-4.13,1.66-2.12.85-4.23,1.68-6.2,2.45-5.81,2.26-10.39,3.99-10.39,3.99Z"/>
  <path class="cls-11" d="m27.55,38.36c-.09,3.63-2.46,4.4-3.96,3.95-1.42-.44-3.72-2.57-3.61-6.15.11-3.56,2.42-4.36,3.9-3.96,1.44.4,3.76,2.53,3.66,6.16Zm15.39,4.08c-.04,1.92-1.31,2.29-2.09,2.06-2.66-.79-5.32-1.57-7.99-2.36-.73-.22-1.94-1.3-1.89-3.16.05-1.84,1.26-2.24,2.02-2.03,2.66.75,5.31,1.5,7.97,2.25.76.21,2.01,1.32,1.97,3.24Zm19.01,5.61c-.03,2.05-1.4,2.39-2.22,2.14-2.85-.87-5.7-1.73-8.55-2.59-.78-.23-2.09-1.37-2.05-3.35.03-1.97,1.35-2.34,2.14-2.11,2.85.82,5.69,1.64,8.53,2.47.8.23,2.16,1.39,2.14,3.44Zm20.34,6.18c0,2.19-1.5,2.5-2.34,2.23-3.05-.96-6.1-1.91-9.15-2.86-.82-.26-2.24-1.46-2.22-3.56.02-2.1,1.44-2.44,2.27-2.19,3.05.9,6.09,1.81,9.13,2.72.85.25,2.32,1.47,2.31,3.65Z"/>
  <path class="cls-13" d="m27.55,37.57c.1-3.63-2.22-5.75-3.66-6.16-1.48-.4-3.79.4-3.9,3.96-.11,3.58,2.18,5.71,3.61,6.15,1.5.45,3.86-.32,3.96-3.95Z"/>
  <path class="cls-13" d="m42.94,41.65c.04-1.92-1.22-3.03-1.98-3.24-2.66-.75-5.31-1.5-7.97-2.24-.76-.21-1.97.18-2.02,2.03-.05,1.86,1.16,2.94,1.89,3.15,2.66.78,5.32,1.57,7.99,2.36.78.22,2.05-.14,2.09-2.07Z"/>
  <path class="cls-13" d="m42.94,41.65c.04-1.92-1.22-3.03-1.98-3.24-2.66-.75-5.31-1.5-7.97-2.24-.76-.21-1.97.18-2.02,2.03-.05,1.86,1.16,2.94,1.89,3.15,2.66.78,5.32,1.57,7.99,2.36.78.22,2.05-.14,2.09-2.07Z"/>
  <path class="cls-6" d="m25.98,52.5c-.51-.16-3.6-1.65-3.28,1.12.43,3.78.86,7.56,1.29,11.34-.04,1.55.94,2.54,1.56,2.77.63.24,1.65-.03,1.7-1.59.1-3.65.2-7.29.3-10.94.04-1.56-.95-2.51-1.57-2.7Z"/>
  <path class="cls-6" d="m27.72,73.62c-.51-.16-3.6-1.65-3.28,1.12.43,3.78.86,7.56,1.29,11.34-.04,1.55.94,2.54,1.56,2.77.63.24,1.65-.03,1.7-1.59.1-3.65.2-7.29.3-10.94.04-1.56-.95-2.51-1.57-2.7Z"/>
  <path class="cls-13" d="m25.98,51.57c-.51-.16-3.6-1.65-3.28,1.12.43,3.78.86,7.56,1.29,11.34-.04,1.55.94,2.54,1.56,2.77.63.24,1.65-.03,1.7-1.59.1-3.65.2-7.29.3-10.94.04-1.56-.95-2.51-1.57-2.7Z"/>
  <path class="cls-13" d="m27.72,72.7c-.51-.16-3.6-1.65-3.28,1.12.43,3.78.86,7.56,1.29,11.34-.04,1.55.94,2.54,1.56,2.77.63.24,1.65-.03,1.7-1.59.1-3.65.2-7.29.3-10.94.04-1.56-.95-2.51-1.57-2.7Z"/>
  <path class="cls-13" d="m61.95,47.27c.02-2.05-1.34-3.21-2.14-3.45-2.85-.83-5.69-1.65-8.53-2.47-.79-.23-2.11.14-2.14,2.11-.03,1.97,1.27,3.11,2.05,3.34,2.85.87,5.7,1.73,8.55,2.6.81.25,2.19-.1,2.22-2.14Z"/>
  <path class="cls-13" d="m82.29,53.44c.01-2.18-1.46-3.41-2.31-3.66-3.04-.91-6.09-1.82-9.13-2.72-.82-.24-2.25.09-2.27,2.2s1.4,3.3,2.22,3.55c3.05.95,6.1,1.9,9.15,2.86.85.27,2.33-.05,2.34-2.23Z"/>
  <path class="cls-27" d="m27.01,39.98c-1.42-.66-3.34-2.72-3.24-6,.03-1.01.24-1.8.55-2.39,1.43.65,3.32,2.7,3.23,5.99-.03,1.01-.23,1.8-.54,2.4Zm3.97-1.81c.02-.53.13-.93.3-1.24-.06.47-.17.88-.3,1.24Zm11.95,3.65c-2.09-.62-4.19-1.24-6.28-1.86-.73-.22-1.94-1.3-1.89-3.15,0-.05,0-.09,0-.13,2.07.58,4.13,1.16,6.2,1.75.76.21,2.01,1.32,1.97,3.24,0,.05,0,.1,0,.16Zm19,5.72c-2.32-.71-4.65-1.42-6.97-2.12-.78-.23-2.09-1.37-2.05-3.34,0-.09,0-.17.01-.23,2.29.66,4.59,1.32,6.88,1.99.8.23,2.16,1.39,2.14,3.44,0,.1,0,.18-.01.27Zm20.34,6.29c-2.56-.8-5.13-1.61-7.69-2.4-.82-.25-2.24-1.45-2.22-3.55,0-.12,0-.24.02-.34,2.53.75,5.07,1.51,7.6,2.27.85.25,2.32,1.47,2.31,3.65,0,.13,0,.26-.02.38Z"/>
</svg>