<svg xmlns="http://www.w3.org/2000/svg" width="40" height="40" viewBox="0 0 40 40">
  <defs>
    <style>
      .cls-1 {
        fill: #fff;
        fill-rule: evenodd;
      }
    </style>
  </defs>
  <path id="Color_Fill_1" data-name="Color Fill 1" class="cls-1" d="M19.871,5h0.221V5.146a1.832,1.832,0,0,1,.515.62l0.147,0.4h1.729c0.14,0.085,1.268.1,1.509,0.146V6.35a9.47,9.47,0,0,1-2.429.146,3.894,3.894,0,0,0-.736-0.073L20.9,6.787H21.38a4.608,4.608,0,0,1,.331.511,5.283,5.283,0,0,1,.184.875q0.018,0.675.037,1.35c0.023,0.053.151,0.129,0.184,0.182a1.811,1.811,0,0,1,.147.657,1.312,1.312,0,0,1-.4-0.037v0.292a4.88,4.88,0,0,1,.037,1.277,23.648,23.648,0,0,1,3.312.219V12h0.147V12.15l0.368,0.073V12.113h0.147v0.146h0.037a0.653,0.653,0,0,1,.4-0.182v0.292A6.875,6.875,0,0,1,28,12.733c0.848,0.244,1.727.314,2.539,0.547,0.637,0.183,1.237.186,1.877,0.365,1.728,0.483,3.613.711,5.336,1.2,1.06,0.3,1.625.172,2.061,1.131a1.213,1.213,0,0,1,.147.8,2.007,2.007,0,0,1-.221.547c-0.643.954-2.453,0.745-3.753,1.058-1.615.388-3.473,0.368-5.115,0.766-0.667.162-1.364,0.1-1.987,0.255l-0.589.037c-0.607.141-1.345,0.145-1.95,0.292-1.348.327-3.494,0.058-4.195,0.985-0.4.531-.157,1.1-0.331,1.86-0.26,1.137-.267,2.372-0.552,3.465a1.453,1.453,0,0,0,.147,1.5,8.938,8.938,0,0,0,.957.438c1.1,0.565,2.335,1.04,3.386,1.678a1.488,1.488,0,0,1,.957,1.386c-0.177.951-.561,1.009-1.545,1.24l-0.846.037c-1.188.262-2.6,0.133-3.79,0.365A4.629,4.629,0,0,1,19.945,34a3.941,3.941,0,0,0-.589-1.313,4.415,4.415,0,0,0-1.141-.109c-0.957-.21-2.068-0.081-3.017-0.292l-0.773-.036a1.517,1.517,0,0,1-1.1-.766c-0.391-1.217.629-1.749,1.472-2.116,0.673-.293,1.352-0.728,2.024-1.021,0.462-.2.866-0.4,1.288-0.62a4.047,4.047,0,0,0,.442-0.182,1.456,1.456,0,0,0,.147-1.5c-0.275-1.1-.294-2.327-0.552-3.465-0.172-.76.07-1.331-0.331-1.86-0.669-.883-2.609-0.652-3.9-0.948-0.808-.185-1.692-0.134-2.539-0.328-0.628-.144-1.317-0.1-1.987-0.255-1.847-.425-3.864-0.4-5.667-0.839-1.345-.327-2.955-0.087-3.533-1.167A1.508,1.508,0,0,1,.147,15.87c0.475-.907,1.791-0.94,2.87-1.24a3.091,3.091,0,0,0,1.141-.292,3.3,3.3,0,0,0,.037-1.2H4.269v1.24l6.145-1.313v0.255h0.037a2.159,2.159,0,0,1,.626-0.146,0.853,0.853,0,0,1,.037-0.292l2.539-.511V12.077a4.172,4.172,0,0,1,.441.146V12.113h0.147c0.03,0.118-.018.056,0.074,0.109a0.723,0.723,0,0,1,.294-0.073V12h0.147c0.03,0.118-.018.056,0.074,0.109A2.3,2.3,0,0,1,15.6,12a17.782,17.782,0,0,1,2.466-.11V10.618a2.621,2.621,0,0,0-.037-0.693,8.113,8.113,0,0,1,.184-2.371,1.321,1.321,0,0,1,.368-0.766h0.478V6.714a0.528,0.528,0,0,0,.074-0.292A8.328,8.328,0,0,1,16.6,6.386a1.394,1.394,0,0,1-.626-0.109c1.022-.022,2.1-0.105,3.238-0.109A3.575,3.575,0,0,1,19.5,5.511,1.091,1.091,0,0,0,19.871,5Z"/>
</svg>
