<svg xmlns="http://www.w3.org/2000/svg" width="39.969" height="40" viewBox="0 0 39.969 40">
  <defs>
    <style>
      .cls-1 {
        fill: #fff;
        fill-rule: evenodd;
      }
    </style>
  </defs>
  <path id="Color_Fill_1" data-name="Color Fill 1" class="cls-1" d="M23.594,11.5c-0.017-.869-0.221-3.391.446-3.634,0.07-.045.278-0.055,0.347-0.1a8.679,8.679,0,0,1-2.627-.252c0.883-.019,1.767-0.1,2.726-0.1a0.983,0.983,0,0,1,.545-0.807l0.446,0.807,2.677,0.1v0.05H28.1a7.141,7.141,0,0,1-2.528.151v0.1a0.5,0.5,0,0,1,.595.353,1.792,1.792,0,0,1,.149,1.06c0,0.858.007,1.475,0,2.271a3.515,3.515,0,0,1,1.09.151l0.5-.05,2.23,0.252a0.429,0.429,0,0,1,.05-0.252v0.252a0.827,0.827,0,0,1,.3.05,0.247,0.247,0,0,1,.05-0.151c0.17,0.353,1.053.156,1.487,0.252,0.628,0.139,1.346.049,2.032,0.2a16.11,16.11,0,0,0,2.875.3,4.665,4.665,0,0,1,.05-1.665V12.51a6.444,6.444,0,0,1,2.577.454c0.948,0.714.092,2.628-.545,3.028a4.639,4.639,0,0,1-1.19.3c-0.979.28-2.043,0.412-3.073,0.707-1.574.45-3.236,0.648-4.858,1.11a15.747,15.747,0,0,1-4.61.807,1.519,1.519,0,0,1-.347.555v-0.05a1.985,1.985,0,0,0-.3-0.5H21.314a0.178,0.178,0,0,1-.1.05c-0.077.718-.05,1.623-0.05,2.422v0.959c-0.155.729,0.066,1.6-.1,2.372l-0.2,2.725,3.569,1.211a1.85,1.85,0,0,0,1.388.3v0.1a5.382,5.382,0,0,1,.05,2.422,4.1,4.1,0,0,1-.1,1.11,6.478,6.478,0,0,0-.2-1.615,3.215,3.215,0,0,1-.545,1.06,5.519,5.519,0,0,1-1.537.151c-1.007.224-2.4-.016-3.321,0.353L20.025,33a0.183,0.183,0,0,1-.05-0.1l-0.2-.4a48.609,48.609,0,0,1-4.907-.454,3.024,3.024,0,0,0-.5-1.06,4.369,4.369,0,0,1-.2,1.615,17.954,17.954,0,0,1,0-3.634h0.05c0.188,0.253.864-.074,1.19-0.2,0.883-.346,1.861-0.645,2.726-1.009,0.409-.172.991-0.05,0.991-0.656a14.9,14.9,0,0,1-.149-2.271c-0.155-.735.071-1.614-0.1-2.422a21.334,21.334,0,0,1-.1-3.381,14.942,14.942,0,0,0-3.42-.1,5.42,5.42,0,0,0-.3.555h-0.1c-0.163-.747-0.732-0.587-1.586-0.555a3.355,3.355,0,0,0-.892-0.2c-0.62-.18-1.307-0.259-1.983-0.454-2.341-.678-4.89-1.044-7.237-1.716C1.744,16.11.715,16.369,0.2,14.832a2.208,2.208,0,0,1-.149-1.06c0.308-1.337,1.062-.873,2.33-1.161,1.62-.367,3.484-0.186,5.105-0.555,0.667-.152,1.587.066,2.032-0.3a0.247,0.247,0,0,0,.05.151,0.422,0.422,0,0,1,.248-0.05,0.429,0.429,0,0,1,.05-0.252v0.252a18,18,0,0,0,2.776-.3,3.426,3.426,0,0,0,.991-0.1,1.55,1.55,0,0,0,.05-0.656,9.793,9.793,0,0,1,.149-2.725,1.5,1.5,0,0,1,.595-0.3,8.369,8.369,0,0,1-2.578-.252c0.862-.034,1.735-0.1,2.677-0.1a1.123,1.123,0,0,1,.595-0.807,4.025,4.025,0,0,1,.4.807l2.726,0.1v0.05h-0.05a8.769,8.769,0,0,1-2.577.151v0.1a1.891,1.891,0,0,1,.446.05c0.5,0.805.35,2.45,0.347,3.634h2.33v-0.05h0.049a22.233,22.233,0,0,1,.446-4.037A1.774,1.774,0,0,1,19.876,6.1c0.5-.284.676,0.631,0.793,0.959a13.293,13.293,0,0,1,.5,4.34A6.987,6.987,0,0,0,23.594,11.5Zm-13.432.151h0.1V11.7h-0.05v0.05A0.184,0.184,0,0,1,10.161,11.652Zm19.579,0h0.1v0.1h-0.1v-0.1Z" transform="translate(-0.031 0.484)"/>
</svg>
