<svg xmlns="http://www.w3.org/2000/svg" width="39.938" height="40" viewBox="0 0 39.938 40">
  <defs>
    <style>
      .cls-1 {
        fill: #fff;
        fill-rule: evenodd;
      }
    </style>
  </defs>
  <path id="Color_Fill_1" data-name="Color Fill 1" class="cls-1" d="M19.907,1h0.248V1.8a4.607,4.607,0,0,1,.806,1.351,0.787,0.787,0,0,1,.062-0.43V2.78a5.041,5.041,0,0,1,.062,1.044C21.2,4.276,21.262,4.76,21.4,5.3c0.194,0.781.188,1.8,0.372,2.64V8.8c0.158,0.719-.052,1.588.124,2.394a15.892,15.892,0,0,1,.124,3.069c1.288,0.132,2.563.4,3.907,0.43a10.017,10.017,0,0,1,.744-4.911h1.922a1.714,1.714,0,0,1,.372.8,13.305,13.305,0,0,1,.372,4.543l9.24,1.044a4.965,4.965,0,0,1,.062-1.842v1.9a0.659,0.659,0,0,1,.372.061c1.4,0.389,1.022,2.492.372,3.377-1.18,1.607-4.291,1.391-6.574,1.9-0.513.115-.988,0.04-1.426,0.184V20.338H31.318V21.75a12.468,12.468,0,0,0-2.17.307c-0.445,1.394-.52,2.265-1.426,3.192H27.659V25.187c-0.862-.321-1.019-1.905-1.364-2.762l-2.729.43a4.065,4.065,0,0,0-1.178.184c-0.739.473-.338,1.548-0.558,2.578a20.131,20.131,0,0,0-.31,3.622,6.46,6.46,0,0,1,1.24,1.535c0.428,0.572,1,1.087,1.426,1.657,0.48,0.642.92,1.28,1.426,1.9a2.014,2.014,0,0,0,.868.307,2.191,2.191,0,0,1,.682.614,1.76,1.76,0,0,1-.248,1.289c-0.707.96-4.519,1.218-6.264,1.228a4.278,4.278,0,0,0-.31-0.8c-0.023.714-.235,1.252-0.248,2.026H19.969V38.448a3.037,3.037,0,0,1-.186-1.657H19.721v0.123c-0.28.462,0,.879-0.806,0.859-0.523-.308-2.633-0.132-3.411-0.307A6,6,0,0,1,13.4,36.79a4.792,4.792,0,0,1-.5-0.675,1.194,1.194,0,0,1,.062-0.859c0.264-.79,1.02-0.413,1.426-0.859,0.289-.317.486-0.7,0.744-1.044,0.684-.915,1.474-1.77,2.17-2.7,0.465-.621,1.231-0.962,1.24-2.026a4.673,4.673,0,0,1-.124-1.228c-0.277-1.25-.166-2.9-0.434-4.052-1.023-.66-1.876-0.426-3.225-0.737a2.559,2.559,0,0,0-.992-0.123,4.279,4.279,0,0,0-.31,1.044A4.9,4.9,0,0,1,12.4,25.249H12.341V25.187c-0.655-.242-1.023-1.478-1.24-2.149a4.154,4.154,0,0,0-.186-0.921,0.225,0.225,0,0,0-.124-0.061,7.707,7.707,0,0,0-2.047-.307,3.661,3.661,0,0,0-.062-1.412V21.75a12.594,12.594,0,0,1-2.729-.43c-2.329-.546-4.04-0.091-5.271-1.78a2.588,2.588,0,0,1-.558-2.333c0.454-1.27,1.478-.86,2.853-1.166,1.159-.258,2.433-0.156,3.659-0.43a23.211,23.211,0,0,1,4.093-.491c-0.038-2.338-.039-3.827.744-5.341H13.4a1.407,1.407,0,0,1,.31.675,11.769,11.769,0,0,1,.434,4.236l3.907-.43a43.864,43.864,0,0,1,.93-10.436c0.088-.356-0.035-0.822.062-1.105H19.1a0.788,0.788,0,0,0,.062.43C19.286,2.2,19.9,2.126,19.907,1ZM18.543,29.362a9.865,9.865,0,0,1-1.054,1.289c-0.639.861-1.282,1.66-1.922,2.517a5.736,5.736,0,0,0-.992,1.228h0.062a4.5,4.5,0,0,1,1.24-.368c1-.324,2.1-0.666,3.163-0.921V32.8C18.618,32.117,18.969,30,18.543,29.362Zm2.915,0-0.434,3.745h0.124a4.2,4.2,0,0,0,1.116.307c1.03,0.334,2.221.569,3.225,0.982V34.273a4.806,4.806,0,0,1-.992-1.228c-0.6-.807-1.382-1.529-1.984-2.333A6.482,6.482,0,0,0,21.457,29.362ZM20.279,36.79v0.123h0.062V36.79H20.279Z" transform="translate(-0.031)"/>
</svg>
