<svg xmlns="http://www.w3.org/2000/svg" width="40" height="40" viewBox="0 0 40 40">
  <defs>
    <style>
      .cls-1 {
        fill: #fff;
        fill-rule: evenodd;
      }
    </style>
  </defs>
  <path id="Color_Fill_1" data-name="Color Fill 1" class="cls-1" d="M20.215,4.538a0.315,0.315,0,0,1,.2.065h0.065L20.8,6.288c0.153,0.674.06,1.389,0.2,2.01,0.215,0.989-.077,2.222.13,3.177,0.257,1.186-.238,2.712.2,3.63,0.169,0.018.128,0,.13,0.324a2.094,2.094,0,0,1,.52.972h0.065V15.883a9.115,9.115,0,0,1,0-1.426h0.13v1.3a10.329,10.329,0,0,0,0,1.037c0.186,0.571.671,1.061,0.845,1.686h0.065a0.542,0.542,0,0,1,.065-0.324v0.13C23.3,18.55,23.27,19,23.4,19.255a13.9,13.9,0,0,1,1.3,2.528h0.065l0.065-.324H24.9c0.273,2.217,1.43,2.137,2.926,3.047,1.289,0.784,2.678,1.549,3.966,2.334a11.59,11.59,0,0,1,2.081,1.3,2.532,2.532,0,0,1-.065,1.426,0.44,0.44,0,0,1-.26.065,12.549,12.549,0,0,0-2.666-.583c-1.015-.284-2.1-0.409-3.186-0.713a11.173,11.173,0,0,0-1.951-.454c-0.175-.306-0.51-0.606-0.65-0.908a4.831,4.831,0,0,0-.13-0.584v3.306h-0.13a3.069,3.069,0,0,0-.845-0.843,13.134,13.134,0,0,0-.91-1.1,17.624,17.624,0,0,0-1.951-.519v4.538c-0.351.541,0.345,1.192,0.52,1.491,0.521,0.89.947,1.779,1.5,2.658a6.31,6.31,0,0,1,.845,1.426h0.065a2.529,2.529,0,0,1,.13-1.3v1.621a3.452,3.452,0,0,1,.13,1.815,13.485,13.485,0,0,1-2.6-1.361,3.417,3.417,0,0,1-.975-0.454V36.823a2.559,2.559,0,0,0,.065-1.3,7.209,7.209,0,0,1-.26,1.88,1.393,1.393,0,0,1-.65.065A21.146,21.146,0,0,1,19.435,40a4.413,4.413,0,0,0-.26-1.815,1.077,1.077,0,0,1-.065-0.713H18.395a6.554,6.554,0,0,0-.26-1.88l0.13,2.075c-1.329.327-2.275,1.472-3.641,1.815V38.9a14.643,14.643,0,0,1,.26-2.852,2.835,2.835,0,0,0,.13,1.232v-0.13a5.466,5.466,0,0,0,.845-1.426c0.6-.968,1.141-1.982,1.756-2.982,0.054-.088.286-0.247,0.325-0.324,0.028-.056-0.065-1.713-0.065-2.01,0-.713.166-2.785-0.13-3.177-0.458.317-1.355,0.224-1.821,0.519l-0.2.324a9.2,9.2,0,0,1-1.691,1.621V26.321H13.973a3.237,3.237,0,0,1-.715,1.556L5.2,29.627,5.13,29.433a2.247,2.247,0,0,1,.13-1.556,62.4,62.4,0,0,0,5.657-3.241,15.362,15.362,0,0,0,2.666-1.491,5.936,5.936,0,0,0,.52-1.686h0.065c0.009,0.244-.031.228,0.13,0.324a10.9,10.9,0,0,1,1.3-2.593,9.85,9.85,0,0,1,.26-1.037,0.682,0.682,0,0,0,.065.389v-0.13a7.385,7.385,0,0,0,.845-1.556c0.24-.75-0.267-1.9.13-2.464a19.313,19.313,0,0,1,.065,2.01h0.065v-0.13a4.082,4.082,0,0,0,.52-1.686h0.065a1,1,0,0,0,.065.519v-0.13c0.351-.38.2-1.572,0.2-2.269,0-1.953.162-3.826,0.13-5.575-0.144-.021-0.07.067-0.13-0.065,0.36-.2.5-2.045,0.715-2.528h0.2a7.315,7.315,0,0,1,.13-2.2v2.2h0.2a2.737,2.737,0,0,1,.39-0.972V3.63l0.39,0.908h0.2V3.63a0.315,0.315,0,0,1-.2-0.065c0.2-.079.147-0.024,0.2-0.259h-0.13a0.313,0.313,0,0,1-.065.194V3.241h0.2V1.232H20.02a0.4,0.4,0,0,1-.13.13V1.232C20.25,1,19.932.367,20.15,0a3.711,3.711,0,0,0,.2,1.361H20.28a0.4,0.4,0,0,0-.13-0.13V3.177a0.314,0.314,0,0,1,.26.324H20.345c-0.073-.186-0.011-0.119-0.2-0.194V3.5a0.711,0.711,0,0,1,.2.13,0.315,0.315,0,0,0-.2.065A1.95,1.95,0,0,1,20.215,4.538Zm0.13-.908h0.13V3.7A0.223,0.223,0,0,1,20.345,3.63ZM17.874,32.545a0.313,0.313,0,0,0,.065.194A0.313,0.313,0,0,0,17.874,32.545ZM21,33a1.179,1.179,0,0,0,.065.583A1.178,1.178,0,0,0,21,33Zm-3.056.259a1.735,1.735,0,0,0,.065.778A1.736,1.736,0,0,0,17.94,33.258Zm2.991,0.648a1.735,1.735,0,0,0,.065.778A1.735,1.735,0,0,0,20.931,33.906ZM18,34.23a1.545,1.545,0,0,0,.065.713A1.545,1.545,0,0,0,18,34.23Zm2.861,0.519a3.235,3.235,0,0,1-.065.713h0.065v-0.13A0.65,0.65,0,0,0,20.866,34.749Zm-2.8.259a0.838,0.838,0,0,0,.065.454A0.837,0.837,0,0,0,18.07,35.008Z" transform="translate(0.531)"/>
</svg>
