<svg xmlns="http://www.w3.org/2000/svg" width="40" height="40" viewBox="0 0 40 40">
  <defs>
    <style>
      .cls-1 {
        fill: #fff;
        fill-rule: evenodd;
      }
    </style>
  </defs>
  <path id="Color_Fill_1" data-name="Color Fill 1" class="cls-1" d="M20.192,1.962a0.3,0.3,0,0,1,.189.063,0.551,0.551,0,0,1,.063.316H20.381V2.089H20.192V2.342a1.614,1.614,0,0,0,.315.127V2.532H20.318a0.226,0.226,0,0,0-.126-0.063V3.608c0.56,0.811.544,2.9,0.566,4.3,0.034,2.12,0,4.761,0,7.089h0.126c-0.008-.255-0.034-0.346.126-0.443a3.07,3.07,0,0,1,1.573-.063,6.972,6.972,0,0,1,.063,1.835,4.252,4.252,0,0,0-.063,1.582l6.481,2.279c0.026-.227-0.03-0.159.126-0.253a3.577,3.577,0,0,0,1.007.38c0.7,0.288,1.507.559,2.2,0.886l0.063-.38h0.063v0.063a0.774,0.774,0,0,0,.189.38,2.863,2.863,0,0,0,.818.317c0.677,0.286,1.461.605,2.139,0.886a2.247,2.247,0,0,0,1.007.253c0.2-.345.045-1.059,0.377-1.266,0.554-.344.558,0.421,0.692,0.759,0.326,0.822.158,3.272,0.126,4.557l-0.189.063a1.435,1.435,0,0,1-.881,0,2.883,2.883,0,0,1-.126-1.2H30.827a5.214,5.214,0,0,1-2.076.19l-0.063-.19a6.116,6.116,0,0,1-1.951.19c-0.75-.408-2.964-0.189-4.09-0.19a15.2,15.2,0,0,1-.441,4.3H20.255q-0.031,1.266-.063,2.532l5.223,2.215v1.456c-0.125.209,0,.742-0.126,0.949a0.986,0.986,0,0,0-.063-0.506C25,36.93,24.37,36.784,23.9,36.9a2.8,2.8,0,0,1-1.007.19V36.962H22.772c-0.8.047-1.625,0.372-2.517,0.38l-0.063-.19c-0.08-.133-0.043-0.5-0.126-0.633v0.063c-0.164.307,0.172,1.194,0,1.835a2.36,2.36,0,0,1-.377.506A3.427,3.427,0,0,1,19.437,40V39.873a4.442,4.442,0,0,1-.189-0.949,4.359,4.359,0,0,1-.378-0.38c-0.215-.617.252-1.645-0.063-2.152a4.395,4.395,0,0,1-.063.886,1.81,1.81,0,0,1-.566.063c-0.574-.4-2.464-0.251-3.146-0.443s-1.414.1-1.447-.57a4.448,4.448,0,0,1-.063-1.646c1.191-.607,2.553-1.12,3.775-1.646,0.473-.2,1.408-0.249,1.447-0.886a11.216,11.216,0,0,1-.126-2.215H16.731V29.873H16.668a9.52,9.52,0,0,0-.315-1.519,12.056,12.056,0,0,1-.126-2.721c-1.115,0-3.285-.213-4.027.19a6.116,6.116,0,0,1-1.951-.19l-0.063.19a5.2,5.2,0,0,1-2.077-.19H2.259a1.986,1.986,0,0,1-.126,1.139,1.321,1.321,0,0,1-1.007.063,0.179,0.179,0,0,0-.063-0.063,26.223,26.223,0,0,1,0-3.038,3.555,3.555,0,0,1,.063-1.392c0.275-.51.022-1.006,0.755-0.886,0.167,0.375.221,0.884,0.378,1.329l4.09-1.519c-0.008-.255-0.034-0.346.126-0.443a1.08,1.08,0,0,0,.063.38L9.81,19.937c0.026,0.227-.03.159,0.126,0.253a9.471,9.471,0,0,1,2.014-.7c0.9-.371,1.878-0.62,2.832-1.013a7.146,7.146,0,0,1,1.573-.57c-0.009-.79-0.292-2.939,0-3.354a0.827,0.827,0,0,1,.441-0.063,2.248,2.248,0,0,1,1.133,0v0.063H17.99a1.281,1.281,0,0,0,.063.443h0.126V10.253c-0.105-.205.07-0.806,0-1.2a17.283,17.283,0,0,1,.566-5.823c0.155-.63-0.255-2.6.063-3.1a12.145,12.145,0,0,0,.126,2.911,0.627,0.627,0,0,1,.692-0.7c0.119,0.1.13,0.12,0.252,0.063,0.2-.081.166-0.056,0.189-0.316H19.878a0.411,0.411,0,0,1-.063.253V2.025h0.063V1.962h0.189A6.1,6.1,0,0,1,20.192,0V1.962Zm-0.252.506c-0.047.055-.079,0.071-0.126,0.127A0.911,0.911,0,0,1,20,3.038h0.063V2.468H19.941ZM17.99,8.291h0.126V8.418H17.99V8.291Zm2.832,0h0.126V8.418H20.821V8.291ZM37.245,26.962a0.186,0.186,0,0,1,0,.253V26.962Zm-35.679.317c0.07,0.105.111,0.068,0,.127V27.279Zm35.679,0a0.229,0.229,0,0,1,.063.127H37.245V27.279ZM18.808,35.7a0.308,0.308,0,0,0,.063.19A0.307,0.307,0,0,0,18.808,35.7Zm1.258,0a0.307,0.307,0,0,0,.063.19A0.308,0.308,0,0,0,20.066,35.7Zm-6.481,1.013a0.336,0.336,0,0,1,0,.38v-0.38Z" transform="translate(0.516)"/>
</svg>
