<svg xmlns="http://www.w3.org/2000/svg" width="40" height="40" viewBox="0 0 40 40">
  <defs>
    <style>
      .cls-1 {
        fill: #fff;
        fill-rule: evenodd;
      }
    </style>
  </defs>
  <path id="Color_Fill_1" data-name="Color Fill 1" class="cls-1" d="M20.2,3.218H20.39a0.406,0.406,0,0,1-.064.252c-0.053-.2.031-0.1-0.127-0.189V3.47a5.019,5.019,0,0,1,0,1.073h0.254V4.606h0.064L20.9,6.814c0.185,0.825.02,1.737,0.191,2.524v1.577a22.884,22.884,0,0,0,.254,4.164l0.127-.063v0.063a9.5,9.5,0,0,1,.509,1.262h0.064V14.574c0.043-.049.083-0.141,0.127-0.189a20.214,20.214,0,0,0,.064,2.461c0.181,0.555.656,1.033,0.827,1.64h0.064a0.661,0.661,0,0,1,.064-0.379,3.692,3.692,0,0,0,.954,2.208,4.923,4.923,0,0,0,.636,1.451h0.064c0.009-.238-0.03-0.222.127-0.316,0.022,1.859,1.192,2.011,2.353,2.713,1.264,0.764,2.616,1.508,3.879,2.271a15.483,15.483,0,0,1,2.735,1.64,5.79,5.79,0,0,1,0,1.451,1.173,1.173,0,0,1-.382.063,11.464,11.464,0,0,0-2.544-.568,42.08,42.08,0,0,0-5.278-1.2,4.334,4.334,0,0,0-.572-0.883c-0.077-.133-0.045-0.386-0.127-0.5v3.218H24.906A23.916,23.916,0,0,0,23,27.7a18.568,18.568,0,0,0-1.844-.5v4.732c-0.286.453,0.457,1.167,0.636,1.451,0.433,0.69.716,1.388,1.145,2.082a8.018,8.018,0,0,1,1.081,1.83h0.064a2.712,2.712,0,0,1,.127-1.262c0.047,1.227.217,2.2,0.191,3.407a11.161,11.161,0,0,1-2.735-1.388,2.409,2.409,0,0,1-.89-0.442v-0.82a2.647,2.647,0,0,0,.064-1.262l-0.254,1.893H19.945c-0.01.552-.39,1.18-0.382,1.64A1.816,1.816,0,0,1,19.5,40c0-.983-0.336-1.686-0.382-2.587h-0.7l-0.191-1.893H18.1v0.063a6.67,6.67,0,0,1,.191,2.019,24.7,24.7,0,0,0-2.607,1.325,2.76,2.76,0,0,1-1.018.5,5.619,5.619,0,0,1-.064-1.514,3.537,3.537,0,0,0,.191-1.83h0.127v1.2h0.064V37.224a12.574,12.574,0,0,0,1.208-2.082c0.428-.693.826-1.423,1.272-2.145a6.068,6.068,0,0,0,.445-0.568l-0.064-5.237H17.783A13.38,13.38,0,0,1,16,27.7a1.9,1.9,0,0,0-.445.568,7.057,7.057,0,0,1-1.526,1.388V26.309H13.967a1.854,1.854,0,0,1-.827,1.514,12.331,12.331,0,0,1-2.607.568c-0.99.276-2.057,0.4-3.116,0.694a10.955,10.955,0,0,1-2.289.5,1.571,1.571,0,0,1-.064-0.5,3.7,3.7,0,0,1,.064-1.073c1.782-1.267,3.9-2.265,5.787-3.407,0.68-.412,1.383-0.739,2.035-1.136a2.668,2.668,0,0,0,.572-0.252,9.475,9.475,0,0,0,.509-0.946,3.569,3.569,0,0,1,.127-0.883,0.623,0.623,0,0,0,.127.379V21.64a5.134,5.134,0,0,0,.382-0.883h0.127a4.026,4.026,0,0,0,.127-0.442c0.246-.466.7-1.028,0.89-1.514,0.09-.225-0.043-0.529.064-0.694a0.662,0.662,0,0,0,.064.379V18.423c0.911-.959.888-2.386,0.89-3.975h0.127v1.325a5.749,5.749,0,0,1,0,.631H17.02V16.278a3.276,3.276,0,0,0,.509-0.883,5.241,5.241,0,0,1,.064-0.82v0.063a3.4,3.4,0,0,0,.064.5V15.016c0.373-.407.255-2.506,0.254-3.47,0-1.562.363-3.3,0.064-4.606a12.272,12.272,0,0,0,.572-2.4H18.8a8.378,8.378,0,0,1,.127-2.208V4.543a0.309,0.309,0,0,0,.191-0.063A4.145,4.145,0,0,0,19.5,3.533h0.064a1.215,1.215,0,0,0,.509,1.009V3.6a0.227,0.227,0,0,1-.254,0h0.127a0.529,0.529,0,0,0,.127-0.189h0.064l-0.064-.126a2.213,2.213,0,0,0-.191.189V3.281h0.064V3.218h0.191c-0.046-.515,0-1.1,0-1.956-0.2,0-.085.107-0.191-0.063C20.272,0.95,19.983.358,20.2,0a2.49,2.49,0,0,0,.191,1.325C20.061,1.351,20.186,2.675,20.2,3.218ZM20.327,3.6h0.127V3.659A0.218,0.218,0,0,1,20.327,3.6Zm-2.48,3.47h0.127C17.9,7.168,17.947,7.143,17.847,7.066ZM17.91,32.555a0.811,0.811,0,0,0,.064.442A0.811,0.811,0,0,0,17.91,32.555Zm3.116,0.379a1.5,1.5,0,0,0,.064.694A1.5,1.5,0,0,0,21.026,32.934Zm-3.053.442a1.679,1.679,0,0,0,.064.757A1.681,1.681,0,0,0,17.974,33.375Zm2.989,0.5a1.866,1.866,0,0,0,.064.82A1.866,1.866,0,0,0,20.963,33.88Zm-2.925.442a1.316,1.316,0,0,0,.064.631A1.318,1.318,0,0,0,18.037,34.322ZM20.9,34.763a0.972,0.972,0,0,0,.064.5A0.971,0.971,0,0,0,20.9,34.763Zm-2.8.252a0.811,0.811,0,0,0,.064.442A0.811,0.811,0,0,0,18.1,35.016Zm2.735,0.315v0.126H20.9V35.331H20.836Z" transform="translate(0.5)"/>
</svg>
