<svg xmlns="http://www.w3.org/2000/svg" width="40" height="40" viewBox="0 0 40 40">
  <defs>
    <style>
      .cls-1 {
        fill: #fff;
        fill-rule: evenodd;
      }
    </style>
  </defs>
  <path id="Color_Fill_1" data-name="Color Fill 1" class="cls-1" d="M20.236,3.625v0.89a0.311,0.311,0,0,1,.192.064h0.064l0.32,1.59C20.95,6.767,20.885,7.4,21,7.949c0.183,0.836-.041,1.767.128,2.544v1.272a14.9,14.9,0,0,0,.192,3.307c0.223,0,.212.008,0.192,0.382a2.291,2.291,0,0,1,.448.89h0.064V14.626c0.041-.055.086-0.2,0.128-0.254V14.5c0.33,0.546-.15,1.627.064,2.289,0.181,0.56.663,1.041,0.832,1.653h0.064a0.529,0.529,0,0,1,.064-0.318c0.133,1.453,1.043,2.5,1.6,3.625h0.064c0.009-.239-0.03-0.223.128-0.318C25,23.453,26.4,23.595,27.662,24.356c1.125,0.681,2.334,1.356,3.457,2.035a14.954,14.954,0,0,1,2.817,1.717,6,6,0,0,1,0,1.4,1.386,1.386,0,0,1-.448.063,8.9,8.9,0,0,0-2.3-.509c-1-.279-2.065-0.4-3.137-0.7a12.607,12.607,0,0,0-2.241-.509c-0.179-.313-0.468-0.592-0.64-0.89a6.122,6.122,0,0,0-.192-0.636v3.307H24.846a3.033,3.033,0,0,0-.832-0.827,12.649,12.649,0,0,0-.9-1.081,15.894,15.894,0,0,0-1.985-.509V29.7h0.192c-0.011.627-.415,2.18-0.192,2.735a6.264,6.264,0,0,0,.512.7c0.522,0.845.887,1.7,1.408,2.544a8.219,8.219,0,0,1,.96,1.59h0.064a2.463,2.463,0,0,1,.128-1.208,10.582,10.582,0,0,0,.256,2.035L24.4,39.428a10.112,10.112,0,0,1-2.753-1.4,3.6,3.6,0,0,1-.9-0.381V37.138a1.277,1.277,0,0,0,0-.89l-0.064.763a3.062,3.062,0,0,0-.9.064,2.723,2.723,0,0,1-.192,1.781A4.979,4.979,0,0,1,19.468,40a6.456,6.456,0,0,0-.384-2.226,1.461,1.461,0,0,1,.128-0.763H18.38V36.884c-0.111-.177-0.075-0.53-0.192-0.7l0.064,1.463a6.021,6.021,0,0,0-1.537.827c-0.249.151-.519,0.168-0.768,0.318a3.313,3.313,0,0,1-1.28.636A5.674,5.674,0,0,1,14.6,37.9a3.375,3.375,0,0,0,.192-1.844h0.064v0.064a3.058,3.058,0,0,1,.064,1.208h0.064V37.2a10.561,10.561,0,0,0,1.152-1.971c0.431-.7.832-1.434,1.28-2.162a6.338,6.338,0,0,0,.512-0.7l-0.064-1.4V27.218l-1.921.509-0.192.318a7.669,7.669,0,0,1-1.729,1.59V26.328H13.963a3.043,3.043,0,0,1-.7,1.526,8.1,8.1,0,0,0-1.985.445c-1.095.309-2.108,0.329-3.2,0.636a12.872,12.872,0,0,1-2.945.636,5.171,5.171,0,0,1-.064-1.4,0.453,0.453,0,0,0,.128-0.254c1.906-1.133,3.931-2.217,5.826-3.37,0.64-.39,1.309-0.709,1.921-1.081a2.245,2.245,0,0,0,.64-0.318,4.184,4.184,0,0,0,.448-0.89,4.168,4.168,0,0,1,.128-0.89,0.628,0.628,0,0,0,.128.382V21.622a6.025,6.025,0,0,0,.64-1.335,11.115,11.115,0,0,0,.9-1.526,4.383,4.383,0,0,1,.064-0.7,0.819,0.819,0,0,0,.064.445V18.378a7.228,7.228,0,0,0,.832-1.526c0.242-.751-0.272-1.917.128-2.48V14.5a5,5,0,0,1,.064,1.844h0.064V16.216a3.881,3.881,0,0,0,.512-0.827c0.1-.26-0.06-0.63.064-0.827a1.152,1.152,0,0,0,.064.572V15.008c0.471-.518.056-2.467,0.192-3.37,0.267-1.772-.023-4.024.384-5.278,0.2-.616-0.008-1.318.32-1.781a0.434,0.434,0,0,1,.256-0.064,8.532,8.532,0,0,1,.064-2.226q0.032,1.113.064,2.226a0.311,0.311,0,0,0,.192-0.064c0.184-.244.193-0.652,0.384-0.89V3.688c0.208,0.287.126,0.763,0.576,0.827V3.625a0.816,0.816,0,0,0-.256.064V3.561c0.217-.06.2-0.024,0.256-0.254H19.98a0.217,0.217,0,0,1-.064.127V3.18h0.192V1.208c-0.145.025-.069,0.058-0.192,0C20.27,0.978,19.957.36,20.172,0a3.628,3.628,0,0,0,.192,1.335H20.3a0.389,0.389,0,0,0-.128-0.127V3.052c0.016,0.062.05,0.024,0,.064,0.163,0.139.2,0.044,0.256,0.318H20.364c-0.093-.162.014-0.072-0.192-0.127V3.37a3.287,3.287,0,0,1,.256.254H20.236ZM17.868,7.059H18V7.122A0.22,0.22,0,0,1,17.868,7.059Z" transform="translate(0.484)"/>
</svg>
