<svg xmlns="http://www.w3.org/2000/svg" width="40" height="40" viewBox="0 0 40 40">
  <defs>
    <style>
      .cls-1 {
        fill: #fff;
        fill-rule: evenodd;
      }
    </style>
  </defs>
  <path id="Color_Fill_1" data-name="Color Fill 1" class="cls-1" d="M20.212,3.231h0.194a0.416,0.416,0,0,1-.065.258c-0.054-.21.032-0.1-0.129-0.194V3.49l0.259,0.129V3.683l-0.259-.065v0.9a0.313,0.313,0,0,1,.194.065c0.487,0.572.263,1.79,0.453,2.649,0.509,2.3-.145,5.639.453,7.884,0.226,0,.215.008,0.194,0.388a1.912,1.912,0,0,1,.453.84h0.065V14.6c0.044-.05.085-0.144,0.129-0.194a16.1,16.1,0,0,0,.065,2.456c0.185,0.569.668,1.058,0.842,1.68h0.065a0.68,0.68,0,0,1,.065-0.388c-0.032,1.552,1.222,2.469,1.554,3.683h0.065c0-.252-0.032-0.291.13-0.388a3.028,3.028,0,0,0,.518,1.809,14.679,14.679,0,0,0,1.877.969c1.433,0.87,2.97,1.714,4.4,2.585,0.478,0.291,1.824.748,2.007,1.228a2.18,2.18,0,0,1,.129,1.551,0.917,0.917,0,0,1-.259.065,8.394,8.394,0,0,0-2.071-.452c-1.193-.335-2.489-0.486-3.754-0.84a9.549,9.549,0,0,0-2.007-.452c-0.18-.319-0.474-0.6-0.647-0.9a2.079,2.079,0,0,0-.194-0.582v0.065c0.272,0.428.009,2.564,0,3.231H24.873V29.661c-1.2-1.053-1.709-2.128-3.754-2.391v3.748c0,0.236-.083,1.379-0.065,1.422a8.813,8.813,0,0,0,.583.776c0.522,0.844.984,1.7,1.489,2.52a5.808,5.808,0,0,0,.906,1.551v0.065H24.1V36.123h0.065v0.129a8.1,8.1,0,0,1,.065,1.486,3.956,3.956,0,0,1,.13,1.745H24.1a16.742,16.742,0,0,0-2.46-1.357c-0.407-.216-0.889-0.214-0.906-0.84a5.639,5.639,0,0,0,.065-1.68L20.6,37.48H19.888c-0.018.933-.3,1.609-0.324,2.52H19.5V39.935c-0.054-.082-0.377-2.128-0.388-2.456H18.4a5.993,5.993,0,0,0-.259-1.874l0.13,2.068a22.969,22.969,0,0,0-2.4,1.228,2.82,2.82,0,0,1-1.23.581,4.706,4.706,0,0,1,.13-1.809,4.559,4.559,0,0,1,.129-1.551,11.54,11.54,0,0,1,0,1.228h0.065V37.286h0.065a20.32,20.32,0,0,1,1.359-2.262c0.28-.45.433-0.908,0.712-1.357a5.041,5.041,0,0,0,.841-1.422,3.88,3.88,0,0,1-.065-1.422,21.707,21.707,0,0,0-.065-3.554h-0.13a10.064,10.064,0,0,1-1.618.452c-0.1.043-1.863,1.857-1.942,2H14.063V27.658A8.585,8.585,0,0,1,14,26.365a1.615,1.615,0,0,1-1.1,1.551,11.49,11.49,0,0,1-2.589.582,39.016,39.016,0,0,1-5.114,1.163l-0.065-.194a2.264,2.264,0,0,1,.129-1.551c2-1.094,4.025-2.244,5.955-3.425,0.648-.4,1.325-0.715,1.942-1.1l0.388-.129a10.7,10.7,0,0,0,.518-1.034,1.259,1.259,0,0,1,.13-0.775,0.68,0.68,0,0,0,.065.388V21.712a6.337,6.337,0,0,0,.518-1.034A10.363,10.363,0,0,0,15.81,18.8a4.077,4.077,0,0,1,.065-0.646,0.68,0.68,0,0,0,.065.388V18.417a7.352,7.352,0,0,0,.841-1.551c0.235-.735-0.279-1.919.13-2.456V14.54a5.1,5.1,0,0,1,.065,1.874H17.04V16.284c1.563-1.911.379-5.477,1.036-8.207a3.213,3.213,0,0,0-.194-1.034h0.13a4.23,4.23,0,0,0,.194-0.582c0.211-.61.036-1.418,0.388-1.874V4.523h0.194a8.172,8.172,0,0,1,.13-2.2v2.2h0.259a1.437,1.437,0,0,1,.388-0.9c0.046,0.373.2,0.533,0.259,0.9h0.259v-0.9a0.313,0.313,0,0,1-.194-0.065c0.2-.079.146-0.024,0.194-0.258h-0.13a0.312,0.312,0,0,1-.065.194V3.231h0.194v-2c-0.147.026-.07,0.059-0.194,0C20.221,0.973,19.926.366,20.147,0a3.26,3.26,0,0,0,.194,1.292C20.109,1.334,20.2,2.738,20.212,3.231Zm0.841,29.338V32.7h0.065A0.221,0.221,0,0,0,21.054,32.569Zm-3.107.646a1.542,1.542,0,0,0,.065.711A1.542,1.542,0,0,0,17.946,33.215Zm3.042,0.065a1.542,1.542,0,0,0,.065.711A1.542,1.542,0,0,0,20.989,33.28Zm-2.978.9a1,1,0,0,0,.065.517A1,1,0,0,0,18.011,34.184Zm2.913,0a1,1,0,0,0,.065.517A1,1,0,0,0,20.924,34.184Zm-2.848.775a1,1,0,0,0,.065.517A1,1,0,0,0,18.076,34.96Zm2.784,0a1,1,0,0,0,.065.517A1,1,0,0,0,20.859,34.96Z" transform="translate(0.531)"/>
</svg>
