<svg xmlns="http://www.w3.org/2000/svg" width="40" height="40" viewBox="0 0 40 40">
  <defs>
    <style>
      .cls-1 {
        fill: #fff;
        fill-rule: evenodd;
      }
    </style>
  </defs>
  <path id="Color_Fill_1" data-name="Color Fill 1" class="cls-1" d="M20.8,2.016A0.308,0.308,0,0,1,21,2.081a0.443,0.443,0,0,1,.064.26H21v-0.2H20.8v0.26a1.368,1.368,0,0,1,.322.13V2.6H21A0.326,0.326,0,0,0,20.8,2.537a29.315,29.315,0,0,0,.45,3.122h0.064V5.594c0.05-.125.064,0.13,0.064,0.13a17.236,17.236,0,0,0,0,2.6L21.7,8.455V8.52H21.511a0.231,0.231,0,0,0-.129-0.065V15.35h0.129c-0.006-.31-0.028-0.362.193-0.455a3.38,3.38,0,0,1,1.607,0c0.006,1.224-.113,2.311-0.129,3.447a10.871,10.871,0,0,1,1.929.715c0.994,0.415,1.963.562,2.958,0.976a7.834,7.834,0,0,0,1.8.65v-0.2c1.21,0.138,2.25.938,3.408,1.236a1.116,1.116,0,0,1,.064-0.39,0.236,0.236,0,0,1,.064.13,0.711,0.711,0,0,1,.064.39c1.5,0.177,2.671,1.324,4.179,1.5a8.875,8.875,0,0,1,.257-1.236,0.843,0.843,0,0,1,.514-0.13A3.8,3.8,0,0,1,39,23.155c-0.306.469,0,3.3-.193,4.358H38.679a0.689,0.689,0,0,1-.386.065,1.019,1.019,0,0,1-.064.52v-0.52h-0.45a3.2,3.2,0,0,1-.129-1.3H31.606c-0.314.012-1.611,0.46-2.122,0.2l-0.064-.2c-0.261-.078-0.166.148-0.257,0.2H27.491c-0.931-.418-2.849-0.194-4.115-0.2a3.247,3.247,0,0,0-.064.911,1.959,1.959,0,0,1-.064,1.041v0.65L22.861,30.7H22.154v0.26H21.833V30.7c-0.42,0-.507,0-0.965,0q-0.032,1.333-.064,2.667a4.462,4.462,0,0,1,1.222.52c0.9,0.393,1.787.733,2.636,1.106a2.971,2.971,0,0,1,1.415.65,4.652,4.652,0,0,1,0,1.951c-1.738.356-3.349,0.544-5.208,0.781a3.4,3.4,0,0,0-.257-0.976v2.276a1.194,1.194,0,0,1-.643.325,0.748,0.748,0,0,0-.321-0.13,7.072,7.072,0,0,1-.193-2.537H19.389a1.784,1.784,0,0,1-.193,1.041l-2.25-.39-0.772.065a14.124,14.124,0,0,0-1.993-.325,1.008,1.008,0,0,1-.128-0.39,4.8,4.8,0,0,1-.064-1.756c1.334-.581,2.724-1.183,4.051-1.756,0.415-.179,1.18-0.231,1.286-0.715A11.922,11.922,0,0,1,19.2,30.7H18.3v0.26H17.91V30.7H17.2a9.236,9.236,0,0,0-.321-1.561,12.45,12.45,0,0,1-.129-2.862c-1.125,0-3.377-.223-4.115.2H10.9c-0.077-.04-0.009-0.293-0.257-0.2l-0.064.2H8.909a0.663,0.663,0,0,0-.321-0.26,7.129,7.129,0,0,1-1.929.065H2.479a2.555,2.555,0,0,1-.064,1.041c-0.121.349-.569,0.285-1.029,0.26-0.357-.7-0.136-2.367-0.129-3.317a0.333,0.333,0,0,1-.193-0.2c-0.034-.227.152-0.1,0.193-0.2L1.064,22.829c0.479-.26.249-0.821,0.964-0.846a0.231,0.231,0,0,0,.129.065,4.836,4.836,0,0,0,.321,1.236,0.326,0.326,0,0,0,.193.065,5.36,5.36,0,0,1,1.222-.455c0.879-.366,1.89-0.691,2.765-1.106a1.324,1.324,0,0,1,.064-0.455H6.787c0.013,0.267.007,0.3,0.193,0.39a15.79,15.79,0,0,1,3.215-1.236v0.2a4.685,4.685,0,0,0,1.479-.52c1.153-.481,2.349-0.811,3.472-1.236l1.736-.585v-1.3a6.254,6.254,0,0,1-.064-2.146,8,8,0,0,1,1.736,0V15.35h0.193c0-2.345,0-4.731,0-6.894a0.5,0.5,0,0,1-.386,0h0.129c0.386-.4.274-1.487,0.257-2.276A4.234,4.234,0,0,0,18.875,5.2c0.119-.477.277-1.011,0.386-1.5,0.131-.585-0.044-1.38.064-1.886A7.165,7.165,0,0,1,19.389.13q0.032,1.463.064,2.927h0.064V2.927c0.244-.33.162-0.527,0.771-0.52,0.1,0.108.047,0.066,0.129,0.065,0.236-.066.226-0.043,0.257-0.325H20.482a0.316,0.316,0,0,1-.064.2V2.081h0.064V2.016h0.193V0H20.8V2.016Zm-0.129.52a0.808,0.808,0,0,0-.257.065l0.193,0.52h0.064V2.537Zm-18.9,25.5H1.9V28.1A0.22,0.22,0,0,1,1.772,28.033Zm18.9,8.585a0.317,0.317,0,0,0,.064.2A0.316,0.316,0,0,0,20.675,36.618Zm-1.286.065v0.13h0.064v-0.13H19.389Zm-5.337.976a0.442,0.442,0,0,1,0,.455V37.659Zm11.959,0.325a0.235,0.235,0,0,1,.064.13H26.012v-0.13Z" transform="translate(-0.031)"/>
</svg>
