<svg xmlns="http://www.w3.org/2000/svg" width="40" height="40" viewBox="0 0 40 40">
  <defs>
    <style>
      .cls-1 {
        fill: #fff;
        fill-rule: evenodd;
      }
    </style>
  </defs>
  <path id="Color_Fill_1" data-name="Color Fill 1" class="cls-1" d="M23.633,34.441a12.623,12.623,0,0,0-.511-1.6L23.236,31.4h-0.17v1.318a11.275,11.275,0,0,0-.454,1.662,4.916,4.916,0,0,1-1.135,0,6.889,6.889,0,0,0-.454-1.719,17.684,17.684,0,0,1-.227,3.037c-0.169.784,0,1.715-.17,2.464S20.6,39.763,19.943,40V39.943c-0.721-.7-0.374-1.529-0.624-2.693-0.3-1.4-.066-3.1-0.341-4.527H18.921l-0.4,1.662a4.916,4.916,0,0,1-1.135,0,7.084,7.084,0,0,0-.4-1.433,6.915,6.915,0,0,1-.057-1.547h-0.17l0.114,1.433a14.841,14.841,0,0,0-.511,1.6l-3.747.4c-0.179-.6-0.68-1-0.852-1.6L16.2,28.825V27.393H16.14a14.853,14.853,0,0,1-2.782.745c-1.827.566-3.788,1.114-5.677,1.547a1.337,1.337,0,0,1-.284.86H7.341V30.487a0.387,0.387,0,0,1-.227-0.4,8.123,8.123,0,0,1-.057-2.063c0-1.8-.024-3.735.057-5.444a0.7,0.7,0,0,0,.227-0.229H7.4v0.057a0.414,0.414,0,0,1,.227.458,12.862,12.862,0,0,1,.057,2.923,1.024,1.024,0,0,1,.227.172,4.536,4.536,0,0,0,1.306-.917c0.112-.174.012-0.433,0.114-0.573v0.057c0.065,0.067.1,0.162,0.17,0.229V24.7a18.265,18.265,0,0,0,1.7-1.547,2.911,2.911,0,0,0,.738-0.573v-0.63A0.5,0.5,0,0,0,12,21.662h0.057v0.057c0.092,0.143.075,0.432,0.17,0.573a18.725,18.725,0,0,1,2.214-1.948c0.329-.251.58-0.666,0.908-0.917a3.292,3.292,0,0,0,1.306-1.261c0.483-.7.287-3.051,0.284-4.241,0.747-.518.592-1.553,0.852-2.579,0.186-.734.442-1.491,0.624-2.178l0.057-2.006c0.086-.393-0.044-1.026.057-1.49,0.078-.356-0.038-0.949.057-1.375,0.127-.57.205-1.265,0.341-1.777,0.23-.871.439-2.189,1.135-2.521,0.122,0.376.47,0.619,0.624,0.974a15.094,15.094,0,0,1,.625,2.35c0.374,1.546-.064,3.462.284,5.043v0.8C21.745,9.742,22,10.4,22.157,11l0.4,2.407c0.089,0.218.424,0.322,0.511,0.516v1.433a9.248,9.248,0,0,0,.284,2.98,5.224,5.224,0,0,0,1.192.974c1.158,0.882,2.053,2.188,3.293,2.98a1.813,1.813,0,0,1,.114-0.63H28l0.057,0.917c0.939,0.485,1.666,1.636,2.555,2.235a0.982,0.982,0,0,1,.057-0.344,0.208,0.208,0,0,1,.057.115c0.054,0.089,0,.274.057,0.4a3.479,3.479,0,0,0,1.192.917c0.089,0.071.029,0.037,0.114,0,0.365-.125.242-2.371,0.227-2.98,0.116-.176.185-0.414,0.284-0.573h0.057v0.057a0.387,0.387,0,0,1,.227.4,8.125,8.125,0,0,1,.057,2.063c0,1.815.07,3.782-.057,5.5a0.506,0.506,0,0,0-.17.172c-0.511-.194-0.155-0.657-0.511-0.86A13.121,13.121,0,0,0,29.651,29C28.2,28.548,26.6,28.2,25.166,27.736c-0.48-.157-0.926-0.175-1.362-0.344v1.433a7.185,7.185,0,0,1,1.022,1.032l2.328,2.35c0.235,0.237,1.1.859,1.022,1.146a9.837,9.837,0,0,1-.795,1.49h-0.4a3.6,3.6,0,0,0-.965-0.115A12.379,12.379,0,0,0,23.633,34.441ZM23.179,14.155A14.03,14.03,0,0,1,24.6,16.16a6.386,6.386,0,0,1,.795.974v0.86H25.336a10.874,10.874,0,0,0-1.817-.974l-0.341-.115V14.155Zm-6.415.057a11.576,11.576,0,0,1,.057,2.693,17,17,0,0,1-2.271,1.089v-0.8a3.635,3.635,0,0,0,.681-0.917A17.734,17.734,0,0,0,16.764,14.212ZM16.2,25.731a3.306,3.306,0,0,0,.057,1.261A3.307,3.307,0,0,0,16.2,25.731Zm7.55,0a2.247,2.247,0,0,0,.057.917A2.246,2.246,0,0,0,23.747,25.731Z" transform="translate(0)"/>
</svg>
