<svg xmlns="http://www.w3.org/2000/svg" width="80" height="40" viewBox="0 0 80 40">
  <defs>
    <style>
      .cls-1 {
        fill: #fff;
        fill-rule: evenodd;
      }
    </style>
  </defs>
  <path id="Color_Fill_1" data-name="Color Fill 1" class="cls-1" d="M35.567,19.307a0.824,0.824,0,0,1,.1-0.495v0.495h1a1.565,1.565,0,0,0,.4-0.495c-0.376-.356-0.367-1.841.2-2.079,0.685-.473.952,0.388,0.9,1.089a12.7,12.7,0,0,0,3.387-.792h4.583a4.853,4.853,0,0,1,.5-0.4,11.519,11.519,0,0,1,1.594.3v-0.3l-1-.1V15.446l-14.545-.594c-1.25-.268-3.455.326-4.284-0.3a22.39,22.39,0,0,1,5.579.1h3.587c0.662,0.14,2.877.375,3.487,0a23.782,23.782,0,0,1-5.181-.5c-1.706-.375-3.494-0.148-5.081-0.5h-1.1c-1.928-.427-4.24-0.269-6.177-0.693-1.267-.277-5.044-0.005-5.679-0.693h1.395c0.554,0.329,1.468.037,2.192,0.2,1.664,0.369,3.622.106,5.38,0.5,1.005,0.223,2.169.05,3.288,0.3,4.073,0.9,8.879.38,12.951,1.287,1.437,0.32,2.823-.062,3.786.1v-0.1c-0.246-.128-0.068.042-0.2-0.2h0.2v0.1c0.269,0.083-.042.061,0.2,0.2v-0.1a0.549,0.549,0,0,0,0-.4s-0.389-.019-0.2-0.1h0.2a1.411,1.411,0,0,1,1.2-.2c0.09-.523.14-0.7,0.8-0.693a0.36,0.36,0,0,0,.2.1,5.847,5.847,0,0,0,.2,1.485,1.957,1.957,0,0,0,.4.2v-0.1h-0.1c-0.1-.1.1-0.1,0.1-0.1v-0.1a0.342,0.342,0,0,1,.2.1c0.165,0.12-.038.179,0.5,0.2v-0.2a0.484,0.484,0,0,1-.3-0.1h0.6v0.1a0.606,0.606,0,0,0-.2.2h0.3a10.349,10.349,0,0,1,2.391.4l4.981,0.3,14.147,0.99c2.234,0.482,5.055-.186,7.074.495v0.1H77.808L60.274,16.04l-4.184-.2a3.192,3.192,0,0,0-1.594,0,21.333,21.333,0,0,1,4.583.594c2.071,0.47,4.217.348,6.177,0.792,1.153,0.261,3.495.03,4.284,0.594a22.878,22.878,0,0,1-5.479-.594l-4.682-.495a43.193,43.193,0,0,0-9.365-.99,0.477,0.477,0,0,1-.1.3,0.584,0.584,0,0,0-.2-0.4h-0.2a0.477,0.477,0,0,1-.1.3c-0.146-.25-0.125-0.181-0.5-0.2l-0.1.4a0.591,0.591,0,0,0,.4,0c0.087-.073.112-0.125,0.2-0.2a1.411,1.411,0,0,0,.2.693h0.1l0.1-.594h0.1v0.594l-0.3.1a2.128,2.128,0,0,1-.3,0c-0.106.135-.207,0.366-0.3,0.495h0.3a1.375,1.375,0,0,1,.8-0.594c0.347,0.61,3.524.413,4.384,0.594a7.432,7.432,0,0,1,0,1.188,15.615,15.615,0,0,1,2.192.2l1.1-.1a5.011,5.011,0,0,0,1.893.4,0.477,0.477,0,0,0,.1.3v-0.4l2.59,0.1a4.041,4.041,0,0,1,.1,1.188,0.852,0.852,0,0,1,.1.5c-0.391.182-1.375,0.215-1.594,0.594h2.092c0.129-.244-0.043-0.067.2-0.2a19.03,19.03,0,0,0,1.494,1.782c0.565,0.38,1.42.205,2.192,0.4,0.719,0.178,1.391.429,2.192,0.594,0.367,0.812,4.168.524,5.48,0.5v0.1l-5.181.1v0.2c0.737,0.861-.212,1.01,1.594.99a3.127,3.127,0,0,1,2.69-.792,1.487,1.487,0,0,1,.2.4,0.665,0.665,0,0,1,.1.4h0.5v0.3l-0.8.1v0.1a1.044,1.044,0,0,1,.1,1.485,1.221,1.221,0,0,1-1,.3,0.713,0.713,0,0,0-.4-0.2,6.138,6.138,0,0,0-.4-0.99,1.181,1.181,0,0,0-.4.594,1.4,1.4,0,0,0,1,1.287c-0.074.086-.125,0.112-0.2,0.2h0.2a19.967,19.967,0,0,1,3.088.2c1.076,0.329,3.259-.091,4.284-0.1v0.2H73.026a1.085,1.085,0,0,1-.6.1,1.063,1.063,0,0,0-.6.792h-0.9a1.546,1.546,0,0,1-.1-0.5h-0.4a4.07,4.07,0,0,1-.4-0.594c0.323-.082.152,0.048,0.3-0.2,0.272-.215-0.452-0.714-1-0.693a2.466,2.466,0,0,1-1.993.891V29.7l-1.1.1V28.911a5.631,5.631,0,0,1-2.59-.4l-0.2-.4h-2.79c-0.312.108-.589,0.616-0.9,0.693-0.267.067-.126-0.068-0.2-0.2,0,0-1.078,0-1.1,0a2.866,2.866,0,0,1-.7.3c-0.973-.854-1.519-0.822-3.387-0.792a15.4,15.4,0,0,1-2.69,0c-2.771,0-4.716.019-7.173,0a0.825,0.825,0,0,1-.1.5v-0.5c-1.118,0-1.657.189-2.69,0.2a1.413,1.413,0,0,0-.1-0.5c-1.354.487-2.7-.552-3.686-0.99l-1-.2c-0.849-.308-1.842-0.68-2.69-0.99a4.819,4.819,0,0,0-2.491-.4,2.917,2.917,0,0,1-1.893.3c-0.425-.147-0.8-0.71-1.2-0.891l-9.763-1.584v0.1h-0.1a2.329,2.329,0,0,1-.1.792,15.712,15.712,0,0,1-2.59-.5,1.7,1.7,0,0,0,.1-0.792,17.318,17.318,0,0,0-3.188-.5c-0.915.714-1.989,2.937-3.088,2.97v-0.1a0.276,0.276,0,0,0,.2-0.1c0.018-.018.2-0.194,0.2-0.2v-0.2a0.815,0.815,0,0,1-.2-0.4,19.13,19.13,0,0,0,.6-2.376,1.938,1.938,0,0,0-1-.2,0.463,0.463,0,0,1-.5.5,2.442,2.442,0,0,0-1-.99v0.4a0.853,0.853,0,0,1,.1.5l-1.1.1-0.5-3.168a15.855,15.855,0,0,0-1.793-2.277C3.624,14.756,2.92,13.034,0,12.673a2.89,2.89,0,0,1,.4-1.089c1.321,0.272,2.532,1.041,3.786,1.386,1.56,0.429,2.188-.455,3.188,1.089a0.8,0.8,0,0,1,.4,0c0.465-1.02,2.555-2.376,3.487-3.069a4.747,4.747,0,0,1,1.2-.99,5.406,5.406,0,0,1,.5.99c-1.03.645-1.905,1.545-2.889,2.277a4.835,4.835,0,0,1-1.2.99c-0.156-.251-0.262-0.391-0.5-0.3a0.6,0.6,0,0,0-.5.4h0.1a4.34,4.34,0,0,0,1.594,1.386c1.171,0.875,2.19,1.979,3.387,2.871a7.054,7.054,0,0,0,.9.891h3.088l2.889-.1c2.139,0,4.363-.031,5.978,0v-0.1a4.686,4.686,0,0,1-1-1.584h0.2a14.905,14.905,0,0,0,1.1,1.683h1.1c0.539-.343,2.222-0.112,2.989-0.1v-0.1a5.559,5.559,0,0,1-.8-1.089h0.6C30.517,19.861,33.357,19.359,35.567,19.307ZM5.679,14.753a0.385,0.385,0,0,0,.3.2v-0.2h-0.3Zm35.467,0a1.007,1.007,0,0,0,.9,0h-0.9Zm-35.168.3v0.2a1,1,0,0,1,.5.594h0.1a1.414,1.414,0,0,1,.1-0.5A5.15,5.15,0,0,1,5.978,15.05Zm41.345,0.4a3.331,3.331,0,0,1,0,.891h0.3a2.114,2.114,0,0,0,.1-0.693Zm0.9,0a0.645,0.645,0,0,0-.4.594h0.1v0.1a2.548,2.548,0,0,1,.4-0.3A2.3,2.3,0,0,0,48.219,15.446Zm-41.544.1v0.2h0.1A0.338,0.338,0,0,0,6.675,15.545Zm47.024,0.1a0.674,0.674,0,0,0,.7,0H53.7Zm-4.882,1.089v0.2h0.2v-0.1h0.1v-0.1h-0.3Zm-13.848,1.98a0.483,0.483,0,0,1,.3.1h-0.1a0.36,0.36,0,0,1-.2.1v-0.2ZM11.557,20.891a2.212,2.212,0,0,0-.4.594h0.1a3.915,3.915,0,0,0,1.2.2v-0.1A3.872,3.872,0,0,0,11.557,20.891Zm-0.4.891a10.187,10.187,0,0,1-.7,2.97h0.1v-0.1h0.1c0.432-1.149,1.3-1.71,1.893-2.673A6.243,6.243,0,0,1,11.158,21.782ZM58.78,28.119v0.2h0.1v-0.2h-0.1Zm0.2,0c0.171,0.087.127,0.088,0.3,0h-0.3Zm0.5,0.2c-0.086.064-.313,0.133-0.4,0.2h0.5A0.339,0.339,0,0,0,59.477,28.317Zm-14.745.2h0.2v0.1h-0.2v-0.1Zm27.2,0.2c0.171,0.087.127,0.088,0.3,0h-0.3Z"/>
</svg>
