<svg xmlns="http://www.w3.org/2000/svg" width="40" height="40" viewBox="0 0 40 40">
  <defs>
    <style>
      .cls-1 {
        fill: #fff;
        fill-rule: evenodd;
      }
    </style>
  </defs>
  <path id="Color_Fill_1" data-name="Color Fill 1" class="cls-1" d="M20.563,9.246h0.193V9.7h0.966l0.322,2.889c0.109,0.5-.027,1.185.064,1.605v1.669a3.292,3.292,0,0,0,.515.642c0.285,0.4.478,0.826,0.773,1.22l1.16,1.027a30.823,30.823,0,0,0,2.771,3.018,7.561,7.561,0,0,0,1.1,1.156,0.536,0.536,0,0,1,.064-0.321v0.064a11.326,11.326,0,0,1,1.224,1.477c0.506,0.669,1.157,1.241,1.675,1.926a6.918,6.918,0,0,1,1.353,1.669,6.354,6.354,0,0,1,.129,2.5c-0.17.774,0.129,2.643-.387,2.953a11.605,11.605,0,0,0-2.449-1.541c-1-.631-2.011-1.37-3.029-1.99-0.984-.6-2.042-0.944-3.029-1.541a7.043,7.043,0,0,0-2.191-1.156v0.128a3.779,3.779,0,0,0-.065.9L21.465,31.2c0.205,0,.155-0.077.193,0.193H21.4l-0.193,1.926A13.685,13.685,0,0,1,23.27,35.7a5.337,5.337,0,0,1,1.16,1.348,8.931,8.931,0,0,1,0,2.953H24.3a3.752,3.752,0,0,0-.9-0.706c-0.513-.379-0.969-0.905-1.482-1.284A10.11,10.11,0,0,1,20.5,36.918l-0.451.064v0.45c-0.216-.014-0.155-0.138-0.258.064-0.2.309-.134,0.926-0.322,1.22a6.675,6.675,0,0,0-.322-1.348c-0.25-.007-0.191.042-0.193-0.321H18.888V36.982l-0.451-.064a20.641,20.641,0,0,1-2.707,2.119A5.147,5.147,0,0,1,14.506,40V39.551a6.1,6.1,0,0,1,0-2.5,3.613,3.613,0,0,1,.773-0.9c0.579-.762,1.227-1.42,1.8-2.183a1.452,1.452,0,0,0,.644-1.156,5.436,5.436,0,0,1-.193-1.541,21.336,21.336,0,0,1-.322-4.238,0.915,0.915,0,0,0-.258-0.064,11.085,11.085,0,0,1-1.8.963c-1.027.623-2.167,1.091-3.222,1.733-1.22.743-2.461,1.514-3.673,2.311a8.855,8.855,0,0,1-1.933,1.22c-0.122-1.592-.727-4.705.129-5.971,0.19-.281.567-0.5,0.773-0.77,0.66-.872,1.4-1.632,2.062-2.5a6.185,6.185,0,0,0,1.16-1.348h0.064a0.536,0.536,0,0,0,.065.321c0.522-.786,1.434-1.312,2-2.054a24.979,24.979,0,0,1,2.191-2.5l0.838-.706c0.339-.462.574-0.943,0.9-1.413a2.707,2.707,0,0,0,.322-0.321V14.446a7.152,7.152,0,0,0,.064-1.669L17.212,9.7h0.967V9.246h0.193A16.466,16.466,0,0,1,18.5,5.714a0.677,0.677,0,0,0-.193-0.835,0.829,0.829,0,0,1,.064-0.449c0.027,0.23-.03.162,0.129,0.257V4.3c0.331-.532.037-1.478,0.193-2.183A8.307,8.307,0,0,1,19.4,0a0.221,0.221,0,0,1,.129.064,3.832,3.832,0,0,1,.709,1.862V2.889A31.964,31.964,0,0,1,20.563,9.246Z" transform="translate(0.5)"/>
</svg>
