<svg xmlns="http://www.w3.org/2000/svg" width="39.938" height="40" viewBox="0 0 39.938 40">
  <defs>
    <style>
      .cls-1 {
        fill: #fff;
        fill-rule: evenodd;
      }
    </style>
  </defs>
  <path id="Color_Fill_1" data-name="Color Fill 1" class="cls-1" d="M13.512,16.875a0.826,0.826,0,0,1,.292.049,0.71,0.71,0,0,0-.243.632,0.989,0.989,0,0,0,.535.1,0.347,0.347,0,0,1,.194-0.1c0.4-1.7-.075-4.79.194-6.174,0.111-.569-0.2-1.88.049-2.285v8.118a0.8,0.8,0,0,0,.34.34,0.5,0.5,0,0,1,.1-0.34,0.643,0.643,0,0,1,.34-0.049v-0.34h0.1a4.763,4.763,0,0,1,1.555-.049c0.04-.158-0.024-0.074.1-0.146v0.146c0.643,0,1.091.011,1.6,0.049v0.34l0.389-.049a1.873,1.873,0,0,0,.1.34c0.165,0.065.508,0.241,0.535,0.243a0.328,0.328,0,0,0,.1-0.243c-0.151-.059-0.11-0.018-0.146-0.194a1.949,1.949,0,0,1,.292-0.729v0.049h0.049a0.689,0.689,0,0,0-.049.194h0.535V16.729H20.51l0.049-.292a0.167,0.167,0,0,1-.1-0.049h0.194a2.071,2.071,0,0,1-.34,1.215c-0.076-.06-0.025-0.031-0.1,0a0.328,0.328,0,0,0-.049.194,3.454,3.454,0,0,1,1.166.194v0.049c-0.117.114-.067,0.119-0.049,0.34a0.825,0.825,0,0,1,.389.243,1.025,1.025,0,0,1,.486-0.146,0.61,0.61,0,0,0,.34.486,0.247,0.247,0,0,1,.146-0.049V18.479h0.34a0.946,0.946,0,0,0,.632.681,4.879,4.879,0,0,0,1.264.1,14.941,14.941,0,0,0,2.965.146l10.3,0.049c0.04-.158-0.024-0.074.1-0.146,0.411,0.42,1.31-.53,1.652.146a1.322,1.322,0,0,1,.049.583,1.216,1.216,0,0,0-.243.194,1.581,1.581,0,0,1-.875-0.146c-0.229-.073-0.525.106-0.68,0.049a8.006,8.006,0,0,0-2.527-.1,8.8,8.8,0,0,1-1.6.049H26.148a15.648,15.648,0,0,1-2.722.243,0.762,0.762,0,0,1-.194.243v0.049h0.049c0.1,0.06.3-.012,0.437,0.049a3.015,3.015,0,0,1,.778.875H24.058l0.049,0.243h0.681a1.655,1.655,0,0,1,.68-0.194V21.4h0.924a0.32,0.32,0,0,0,.292.389c0.163,0.086.518,0.058,0.778,0.146a0.8,0.8,0,0,1,.1.389,0.757,0.757,0,0,0-.292.438h0.049c0.172-.15.759,0.176,1.167,0a0.883,0.883,0,0,1,.486-0.146,0.764,0.764,0,0,1,.049.243h0.437v0.194a2.1,2.1,0,0,0-.389,0H29.016l0.049,0.146a3.293,3.293,0,0,1,.535,0V23.146h0.049a0.591,0.591,0,0,1,0-.437v0.1a1.409,1.409,0,0,1,.1.389h0.68c0.181,0.109.782,0.131,1.021,0.243a2.572,2.572,0,0,1,.923,1.264,0.408,0.408,0,0,0-.194.146,0.313,0.313,0,0,1,.1.243H32.078v0.1a0.184,0.184,0,0,1,.146.194H32.175v0.049l-0.292-.1v0.34a2.042,2.042,0,0,1-.389,1.653,4.359,4.359,0,0,1-1.8,1.021c-0.965.42-1.971,1-2.965,1.361a8.659,8.659,0,0,1-2.673.194H10.4a20.463,20.463,0,0,1-3.694-.049H6.27a10.537,10.537,0,0,1-2.527-1.361c-0.823-.5-2.017-0.8-2.43-1.7-0.088-.191-0.082-0.418-0.146-0.583C0.841,26.062.5,25.881,0.194,25.722c0.041-.124,0-0.364.049-0.535,0.035-.113.224-0.329,0.243-0.437a1.084,1.084,0,0,0-.1-0.34H0.049c-0.029-.364,0-0.907,0-1.507h0.1a0.643,0.643,0,0,0,.34.049V22.708H0.535a0.33,0.33,0,0,0,.437-0.1,1.342,1.342,0,0,0,.1-0.583H0.875v-0.1a0.743,0.743,0,0,1,.437-0.1,10.5,10.5,0,0,1,1.7-.049,0.615,0.615,0,0,1,.049-0.194h0.1a0.9,0.9,0,0,0,.972.243V21.688h0.68v0.146c0.323-.007.406-0.007,0.729,0a0.235,0.235,0,0,1,.049-0.146c0.04,0.158-.024.074,0.1,0.146V21.688a3.952,3.952,0,0,1,.923.146c0-.176.046-0.167,0.34-0.146a9.33,9.33,0,0,1,1.9,0,0.282,0.282,0,0,1,.243-0.243V21.59H9.38v0.243h0.34V21.59H9.429v-0.1A0.317,0.317,0,0,1,9.721,21.3a15.683,15.683,0,0,1,2.43-.049l0.194,0.34H11.665v0.243a1.443,1.443,0,0,0,.681-0.146,0.939,0.939,0,0,0,.729,0v0.146h1.021a0.235,0.235,0,0,1,.049-0.146,0.53,0.53,0,0,0,.1.146V21.542h-1.6V20.764h-1.9V20.375L10.5,20.326a0.961,0.961,0,0,1-.243-0.729,2.477,2.477,0,0,1-.146-1.41,0.589,0.589,0,0,1,.437-0.146,0.421,0.421,0,0,0,.194.146V18.139H10.693a0.68,0.68,0,0,0-.049-0.486h2.527a1,1,0,0,0,.1-0.243c-0.057-.091-0.172-0.375-0.243-0.535h0.292c0.172-2.516.048-5.275,0.049-7.875h0.049V9.1a8.88,8.88,0,0,1,.049,2.139C13.463,13.1,13.394,15.094,13.512,16.875Zm6.8-.437a0.235,0.235,0,0,1,.146.049A0.235,0.235,0,0,1,20.316,16.438Zm-0.194.049a0.314,0.314,0,0,1,.194.049A0.314,0.314,0,0,1,20.122,16.486Zm-0.146.049a0.235,0.235,0,0,1,.146.049A0.235,0.235,0,0,1,19.976,16.535Zm-0.1.292-0.1.583a0.235,0.235,0,0,0,.146-0.049h0.049V17.215a1.656,1.656,0,0,1,.389.049l0.1-.437H19.879Zm-6.659.146a0.236,0.236,0,0,0,.049.146v-0.1l0.049-.049h-0.1Zm0.292,0a0.236,0.236,0,0,0,.049.146V17.069a0.175,0.175,0,0,0,.049-0.1h-0.1Zm6.8,0.535V17.361a0.287,0.287,0,0,0-.194,0c-0.06.076-.031,0.025,0,0.1A0.327,0.327,0,0,0,20.316,17.507Zm18.566,2.042a1.047,1.047,0,0,0-.049.34h0.1a0.254,0.254,0,0,0,.243,0,0.166,0.166,0,0,1,.049-0.1,0.167,0.167,0,0,0-.049-0.1C39.11,19.531,39.1,19.554,38.882,19.549Zm0.486,0a1.044,1.044,0,0,0-.049.34h0.1a0.328,0.328,0,0,0,.194.049,0.509,0.509,0,0,0,.1-0.292,0.175,0.175,0,0,1-.049-0.1H39.368ZM4.18,21.736v0.1H4.763v-0.1H4.18Zm1.555,0v0.1H6.173v-0.1H5.735Zm0.486,0v0.1h0.1v-0.1h-0.1Zm0.437,0.049a0.772,0.772,0,0,0,.583,0H6.659Zm0.778,0a0.327,0.327,0,0,0,.34,0H7.436Zm19.781,0.292v0.243h0.1V22.076h-0.1ZM0.729,22.9c0.084,0.043.062,0.043,0.146,0H0.729Zm27.849,0.292a0.7,0.7,0,0,0,.243-0.049V23.1l-0.243-.049v0.146Zm0.292-.1v0.1h0.1V23.1h-0.1ZM30.911,26.4a0.376,0.376,0,0,0-.146.146c-0.064.084-.084,0.078-0.049,0.146a0.188,0.188,0,0,0,.146.1A0.381,0.381,0,0,0,30.911,26.4Zm-0.972.681v0.243h0.1a1,1,0,0,0,.535-0.389H30.523V26.889A4.458,4.458,0,0,1,29.939,27.083Zm-0.292.34v-0.34a1.023,1.023,0,0,0-.729.049,0.175,0.175,0,0,0,.1.049A0.725,0.725,0,0,0,29.648,27.424Zm-1.944.1a2.779,2.779,0,0,1-.194.875h0.1c0.451-.39,1.239-0.4,1.7-0.778a1.345,1.345,0,0,1-.632-0.389A2.579,2.579,0,0,1,27.7,27.521ZM4.86,27.569l-1.069-.049v0.1h0.1a3.166,3.166,0,0,0,1.118.632V28.2A0.854,0.854,0,0,1,4.86,27.569Zm4.18-.049c-0.178.262-.183,0.678-0.34,0.972-0.111.207-.352,0.382-0.486,0.583h1.7v-0.1a1.785,1.785,0,0,1-.729-1.458H9.04Zm5.006,0a1.757,1.757,0,0,1-.729.049v0.1a3.248,3.248,0,0,0-.1.486,5.093,5.093,0,0,1-.632.924h2.236V29.028a2.144,2.144,0,0,1-.68-1.021A1.415,1.415,0,0,0,14.046,27.521Zm5.006,0H18.226v0.1a4.9,4.9,0,0,0-.146.632c-0.133.316-.461,0.532-0.583,0.826h2.236v-0.1A1.661,1.661,0,0,1,19.052,27.521Zm4.083,0a2.378,2.378,0,0,1-.729,1.556H24.35V29.028a1.8,1.8,0,0,1-.729-1.507H23.135Z" transform="translate(-0.031 0.516)"/>
</svg>
