<svg xmlns="http://www.w3.org/2000/svg" width="40" height="40" viewBox="0 0 40 40">
  <defs>
    <style>
      .cls-1 {
        fill: #fff;
        fill-rule: evenodd;
      }
    </style>
  </defs>
  <path id="Color_Fill_1" data-name="Color Fill 1" class="cls-1" d="M15.444,15.637V15.483h0.27V15.56a0.139,0.139,0,0,0-.039.077h0.193a0.619,0.619,0,0,0,.232-0.309h0.54V15.29a0.989,0.989,0,0,1-.154-0.541,0.5,0.5,0,0,0,.27-0.039c-0.213-.156.192-0.242,0.039-0.54-0.046-.089-0.093.031-0.116-0.193h0.039V13.938c0.073,0.016.146,0.065,0.193,0.077l0.348-.039L17.3,14.093a8.022,8.022,0,0,0,.927.232,0.377,0.377,0,0,0,.309-0.116l1.042,0.077V14.17a5.343,5.343,0,0,1,.656-0.039,0.186,0.186,0,0,0,.039.116c0.006-.207.027-0.255,0.232-0.27a1.112,1.112,0,0,1,.232,0c-0.044-.438-0.627-0.777-0.27-1.274a0.888,0.888,0,0,1,1.158-.386,1.127,1.127,0,0,1,.386.849l-0.116.348c-0.045.07-.142,0.116-0.193,0.193a0.313,0.313,0,0,1,.348.116H21.931a0.511,0.511,0,0,0-.27-0.039c0,0.494.2,0.51,0.232,1a3.427,3.427,0,0,1,.965.618H22.9c0.038,0.039-.038.038-0.039,0.039a0.334,0.334,0,0,1-.193.039L22.7,15.676H22.78a1.233,1.233,0,0,0,.463.116,1.253,1.253,0,0,1,.077-0.232,0.892,0.892,0,0,0,.27.077v0.039a1.105,1.105,0,0,0-.077.193A3.792,3.792,0,0,1,25.56,16.95a0.847,0.847,0,0,0,.579.116h0.039V17.027c0.088,0.046.164,0.163,0.232,0.193a6.584,6.584,0,0,0,1.042.039v0.154a5.25,5.25,0,0,1,1,.116h2.162a14.1,14.1,0,0,0,2.625.039l4.44,0.077a0.187,0.187,0,0,0,.039.116,0.426,0.426,0,0,1,.463-0.116c0.128,0.074.124,0.139,0.116,0.348a0.409,0.409,0,0,1-.193.077,2.545,2.545,0,0,1-.425-0.116V18.07l-9.073.116c-0.368.438,0.064,0.532-.888,0.5v0.54c-0.147.1-.268,0.389-0.386,0.463H26.1V19.73h1.583a0.651,0.651,0,0,0,.463.077,6.726,6.726,0,0,1,1.429-.116,6.231,6.231,0,0,1,1.544.039c-0.138.016-.1-0.018-0.155,0.077h0.27a0.419,0.419,0,0,1,.232-0.039c0,0.395,0,.5,0,0.772h0.039a1.273,1.273,0,0,1,.772.154,0.334,0.334,0,0,1,.039.193,5.676,5.676,0,0,1,.811.116V20.849c0.062-.06-0.039-0.04.039-0.077A0.222,0.222,0,0,1,33.4,20.7a1.771,1.771,0,0,0,.463.077c0.551,0.14,1.274.152,1.815,0.348a0.876,0.876,0,0,1-.077.386c0.129,0,.847.059,0.888,0.077-0.016.075-.019,0.088,0.077,0.116,0.256,0.075.612,0.053,0.927,0.116,0,0.144-.046.094,0.116,0.116a3.533,3.533,0,0,0,1.2.116c0.39,0.072.777,0.186,1.2,0.27v0.039a3.951,3.951,0,0,0-.386.849,0.651,0.651,0,0,0-.193.27l0.154,0.116a1.9,1.9,0,0,1,.348.888,0.684,0.684,0,0,1-.27.039,0.182,0.182,0,0,1-.077-0.193H39.266v0.039a0.934,0.934,0,0,1,.193.386,1.906,1.906,0,0,1-.347,2.124,7.073,7.073,0,0,1-1.622.888c-1.225.635-2.514,1.262-3.745,1.892a6.706,6.706,0,0,1-2.7.27H10.618a8.378,8.378,0,0,1-2.008-.039,20.393,20.393,0,0,1-2.2-.927c-1.393-.6-2.633-0.7-3.282-2.085-0.565.038-.284-0.269-0.5-0.618a1.6,1.6,0,0,1-.077.656H2.471a1.5,1.5,0,0,1-.077-0.656A0.26,0.26,0,0,1,2.355,26.1,1.277,1.277,0,0,1,2.2,25.946a0.453,0.453,0,0,1-.193.077,7.315,7.315,0,0,0,.116-0.849,7.357,7.357,0,0,1-1.506-.811,0.2,0.2,0,0,1-.039-0.116A4.929,4.929,0,0,0,0,24.209v-0.27a0.2,0.2,0,0,0,.039-0.116,0.187,0.187,0,0,0,.116-0.039A3.022,3.022,0,0,0,.193,22.7v-2.78H0.039A0.606,0.606,0,0,1,0,19.73H0.039V19.691a0.544,0.544,0,0,0,.154.039V19.614a0.187,0.187,0,0,1-.116-0.039A1.314,1.314,0,0,0,.116,18.61H0.193a1.475,1.475,0,0,1,.463,0,0.187,0.187,0,0,1,.039-0.116c0.054-.034.217-0.042,0.27-0.077A0.2,0.2,0,0,1,.927,18.3l0.811-.232c0.038,0.22.07,0.28,0.347,0.27l-0.039-.386a1.675,1.675,0,0,1,.5.039,0.939,0.939,0,0,0-.077.27,3.159,3.159,0,0,1,.579.077,4.894,4.894,0,0,0,.618-0.077c0.345,0.046.844,0.076,1.158,0.116,0.011-.1.032-0.081,0.232-0.077a4.158,4.158,0,0,0,1.274-.077,2.141,2.141,0,0,1,.734.193l1.081,0.039c0.017-.106.13-0.085,0.347-0.077a0.717,0.717,0,0,0,.425.077c0-.11-0.03-0.015.039-0.116H8.224V18.263a3.508,3.508,0,0,1-.077-0.888c-0.09-.4-0.17-0.7-0.232-1.043H7.992a0.663,0.663,0,0,1,.425,0,0.187,0.187,0,0,1,.039-0.116c0.032,0.125-.019.059,0.077,0.116a7.71,7.71,0,0,1,1.042-.116,9.211,9.211,0,0,1,.232-1.043,1.982,1.982,0,0,0-.039-0.695,2.555,2.555,0,0,1,.039-0.849l-0.039-.656h0.463l-0.039.656a2.492,2.492,0,0,1,.039.849,1.571,1.571,0,0,0-.077.695,8.362,8.362,0,0,1,.193,1.043c0.564-.029,1.266-0.215,1.66-0.27a10.958,10.958,0,0,0-.309-2.857c-0.123-.518-0.117-1.03-0.232-1.506A7.315,7.315,0,0,1,11.313,10v0.232a3.873,3.873,0,0,1,.155,1c0.188,0.778.236,1.689,0.425,2.471a3.658,3.658,0,0,0,.154,1c0-1.483.074-2.982,0.077-4.517H12.2v0.155a5.115,5.115,0,0,0-.039,1.39q-0.019,1.409-.039,2.818a2.7,2.7,0,0,0,.116,1.313,0.333,0.333,0,0,0,.193.039,12.9,12.9,0,0,1,1.815-.27,0.993,0.993,0,0,1-.077-0.193h0.077a0.26,0.26,0,0,1,.154-0.039v0.039H14.44a0.547,0.547,0,0,0-.039.154h0.077A3.313,3.313,0,0,1,15.444,15.637Zm4.4-1.351a0.222,0.222,0,0,0,.232.077V14.286H19.846Zm2.664,1.351V15.521a0.956,0.956,0,0,1-.348-0.116v0.077c0.026,0.03.051,0.086,0.077,0.116A0.512,0.512,0,0,0,22.51,15.637Zm3.359,1.506a0.113,0.113,0,0,0,.154,0H25.869Zm12.008,0.618a0.323,0.323,0,0,0,.039.193A0.323,0.323,0,0,0,37.876,17.761Zm0.116,0v0.193a0.187,0.187,0,0,0,.116-0.039h0.039V17.761H37.992Zm-28.88.618a1.906,1.906,0,0,0,1.236.077Zm4.479,0.463v0.193h0.116v0.309l-0.7.193a8.64,8.64,0,0,0,1.853-.077H14.4l0.077-.695c-0.914.005-1.729-.1-2.548-0.116v0.039s0.153,0.017.077,0.039H11.969c-0.029.034-.049,0.044-0.077,0.077H12.2A5.417,5.417,0,0,0,13.591,18.842ZM15.135,19.5a0.113,0.113,0,0,0,.155,0H15.135Zm0.27,0v0.077h0.039A0.132,0.132,0,0,0,15.405,19.5Zm15.56,1a0.139,0.139,0,0,0,.077.039A0.14,0.14,0,0,0,30.965,20.5Zm2.548,0.541V21.12h0.077c0.03-.026.086-0.051,0.116-0.077H33.514Zm0.5,0.039c0.042,0.124-.05.122,0.154,0.154a0.751,0.751,0,0,0,.309.077l0.039-.116a7.771,7.771,0,0,0,.965.27l0.077-.232Zm-0.309.039a0.139,0.139,0,0,0,.077.039A0.14,0.14,0,0,0,33.707,21.12ZM0.077,23.861v0.154H0.154V23.977a0.2,0.2,0,0,0,.039-0.116H0.077Zm0.965,0.463a0.212,0.212,0,0,0,0,.154H1.081V24.44a0.14,0.14,0,0,0,.039-0.077Zm0.386,0a0.289,0.289,0,0,0-.077.232H1.429a0.2,0.2,0,0,0,.193,0V24.4a0.235,0.235,0,0,1-.077-0.077H1.429Zm0.5,0a0.335,0.335,0,0,0-.116.154c-0.063.113-.009,0.186,0.116,0.232a0.141,0.141,0,0,0,.232-0.077C2.255,24.483,2.13,24.332,1.931,24.324Zm0.425,0.927c0.032,0.125-.019.059,0.077,0.116V25.328a0.139,0.139,0,0,0,.039-0.077H2.355ZM2.9,26.293v0.077H2.973V26.293H2.9Zm1.12,0.7a0.186,0.186,0,0,0,.039.116,0.15,0.15,0,0,1,.116-0.077V26.988H4.015Zm0.309,0.193v0.077H4.363V27.22H4.4A0.139,0.139,0,0,0,4.324,27.182Zm32.857,0c-0.007.1,0.016,0.142,0.077,0.154a0.215,0.215,0,0,0,0-.154H37.182ZM6.525,27.22a0.14,0.14,0,0,0,.077.039A0.139,0.139,0,0,0,6.525,27.22ZM7.49,27.375c-0.281-.023-0.51-0.11-0.849-0.116a1.471,1.471,0,0,1-.077.54H6.641a0.713,0.713,0,0,1,.309-0.425c0.085,0.066.225,0.086,0.309,0.154a0.371,0.371,0,0,0-.077.425,0.186,0.186,0,0,0-.116.039H7.181A2.161,2.161,0,0,0,7.49,27.375Zm-1.429.039a0.8,0.8,0,0,0,0,.232H6.1V27.606H6.139c-0.021-.074-0.063-0.033,0-0.077l0.077-.154H6.178A0.2,0.2,0,0,1,6.062,27.413Zm13.243-.039a1.783,1.783,0,0,1-.386,1.158h0.193a0.716,0.716,0,0,1,.348-0.039,4.507,4.507,0,0,1-.039-1.12H19.305Zm3.707,0a1.7,1.7,0,0,1-.309,1.12h0.618V28.417a1.332,1.332,0,0,1-.039-1.043h-0.27Zm3.745,0a4.955,4.955,0,0,1-.193,1.12h0.772V28.456a2.1,2.1,0,0,1-.116-1.081H26.757Zm3.861,0a3.509,3.509,0,0,1-.039,1,3.906,3.906,0,0,0,.077.618h0.116l0.039-.5h0.27V28.456a2.073,2.073,0,0,1-.116-1.081H30.618Zm3.745,0a1.08,1.08,0,0,0,.309.772,1.413,1.413,0,0,1-.193-0.54,0.266,0.266,0,0,0,.193-0.116H34.71a0.678,0.678,0,0,0,.347.386V27.838a1.959,1.959,0,0,1-.232-0.425,0.132,0.132,0,0,0,.077-0.039H34.363Zm0.849,0a1.534,1.534,0,0,1,.154.309,0.129,0.129,0,0,1,.116,0A0.471,0.471,0,0,0,35.212,27.375Zm0.579,0a0.186,0.186,0,0,0,.039.116V27.413l0.039-.039H35.792Zm0.888,0.077v0.077a0.751,0.751,0,0,0,.116.077,0.109,0.109,0,0,1,.039-0.039,0.109,0.109,0,0,0-.039-0.039C36.744,27.411,36.784,27.509,36.68,27.452Zm-0.347.27c-0.125.032-.059-0.019-0.116,0.077l0.077,0.039a0.109,0.109,0,0,0,.039.039V27.722ZM5.251,27.8c-0.033.117-.078,0.157,0,0.232V27.992A1.466,1.466,0,0,0,5.367,27.8H5.251Zm30.541,0.155-0.039.116H35.83v0.039h0.039A0.153,0.153,0,0,0,35.792,27.954Zm-30.039.039-0.039.193H5.83V28.108a0.2,0.2,0,0,0,.039-0.116H5.753Zm0.541,0.193a0.579,0.579,0,0,0-.039.27H6.293V28.417a0.61,0.61,0,0,0,.116-0.232H6.293Zm9.189,0.348a4.509,4.509,0,0,1,.039.541h0.116a1.076,1.076,0,0,0-.27-0.849V28.3l-0.193.232h0.309Zm19.807-.27a0.447,0.447,0,0,0,.116.077A0.149,0.149,0,0,0,35.29,28.263ZM6.873,28.61c0.015-.154.076-0.156-0.039-0.232v0.039a0.506,0.506,0,0,0-.077.193H6.873Zm4.672-.232a0.584,0.584,0,0,0-.077.154h0.154V28.494C11.6,28.464,11.571,28.408,11.544,28.378Zm23.282,0.116a0.443,0.443,0,0,0,.116.077A0.149,0.149,0,0,0,34.826,28.494Zm-15.6.039,0.039,0.425h0.116l0.039-.425H19.228Zm3.745,0,0.039,0.425h0.116l0.039-.425H22.973Zm3.745,0L26.757,29h0.116l0.039-.463H26.718Zm0.541,0L27.3,29h0.116l-0.039-.463H27.259Zm-19.923.039a1.07,1.07,0,0,0-.039.309H7.336V28.842H7.375C7.346,28.808,7.326,28.8,7.3,28.765a0.229,0.229,0,0,0,.154-0.077V28.61Zm3.9,0.309h0.116l0.039-.27H11.351A0.414,0.414,0,0,0,11.236,28.88Zm3.745,0.193H15.1l0.039-.463H15.1A0.664,0.664,0,0,0,14.981,29.073Zm3.745-.116h0.116l0.039-.348H18.842A0.468,0.468,0,0,0,18.726,28.958Zm3.861,0V28.8H22.548v0.039H22.51l-0.039.116h0.116Zm8.649-.116v0.077h0.077V28.88Zm-20,.077c0.066,0.034.049,0.034,0.116,0H11.236Zm0.541,0a0.138,0.138,0,0,0,.077.039A0.14,0.14,0,0,0,11.776,28.919Zm14.556,0.116a0.186,0.186,0,0,0-.039-0.116v0.039H26.255l-0.039.077h0.116Zm4.9-.077c0.066,0.034.049,0.034,0.116,0H31.236ZM7.8,29l-0.039.077C7.828,29.019,7.8,29,7.8,29Zm2.085,0.425v0.116H10V29.421H9.884Zm16.293,0c0.066,0.034.049,0.034,0.116,0H26.178Zm0.54,0c0.066,0.034.049,0.034,0.116,0H26.718Zm0.579,0c0.066,0.034.049,0.034,0.116,0H27.3Zm0.579,0c0.066,0.034.049,0.034,0.116,0H27.876Zm2.239,0c0.066,0.034.049,0.034,0.116,0H30.116Zm0.541,0c0.066,0.034.049,0.034,0.116,0H30.656Zm0.579,0c0.066,0.034.049,0.034,0.116,0H31.236Zm0.541,0c0.066,0.034.049,0.034,0.116,0H31.776Zm-21.351.039a0.15,0.15,0,0,0,.116.077V29.46H10.425Zm0.579,0v0.077H11.12V29.46H11Zm0.579,0v0.077H11.66V29.46H11.583Zm0.541,0v0.077h0.116V29.46H12.124Zm1.776,0a0.14,0.14,0,0,1-.077.039v0.039h0.116A0.132,0.132,0,0,0,13.9,29.46Zm0.463,0v0.077h0.116V29.46H14.363Zm0.579,0v0.077h0.116V29.46H14.942Zm0.54,0v0.077H15.6V29.46H15.483Zm0.579,0v0.077h0.116V29.46H16.062Zm1.737,0c0.015,0.1-.029.051,0.077,0.077V29.46H17.8Zm0.5,0v0.077h0.116V29.46H18.3Zm0.579,0v0.077H19V29.46H18.88Zm0.541,0v0.077h0.116V29.46H19.421Zm0.579,0v0.077h0.116V29.46H20Zm1.776,0a0.14,0.14,0,0,1-.077.039v0.039h0.116A0.133,0.133,0,0,0,21.776,29.46Zm0.463,0v0.077h0.116V29.46H22.239Zm0.579,0v0.077l0.116-.039V29.46H22.819Zm0.541,0c0.066,0.034.049,0.034,0.116,0H23.359Z"/>
</svg>
