<?xml version="1.0" encoding="utf-8"?>
<!-- Generator: Adobe Illustrator 16.0.0, SVG Export Plug-In . SVG Version: 6.00 Build 0)  -->
<!DOCTYPE svg PUBLIC "-//W3C//DTD SVG 1.1//EN" "http://www.w3.org/Graphics/SVG/1.1/DTD/svg11.dtd">
<svg version="1.1" id="Layer_1" xmlns="http://www.w3.org/2000/svg" xmlns:xlink="http://www.w3.org/1999/xlink" x="0px" y="0px"
	 width="39.938px" height="40px" viewBox="0 0 39.938 40" enable-background="new 0 0 39.938 40" xml:space="preserve">
<path id="Color_Fill_1" fill="#FFFFFF" d="M12.629,7.516c0.075,0.183,0.075,0.388,0,0.571V7.516z M13.639,12.802
	c0.04-0.155-0.023-0.073,0.101-0.143v0.143c0.205-0.039,0.415-0.055,0.625-0.048c0.039-0.154-0.024-0.073,0.1-0.143
	c0.042,0.093,0.138,0.15,0.24,0.143c0.006-0.006,0.1-0.143,0.1-0.143c0.218-0.115,0.282,0.114,0.336,0.143
	c0.288,0.059,0.586,0.042,0.865-0.048v-0.142l0.374-0.048v-0.238h0.048V12.23c0.115-0.02,0.229-0.054,0.336-0.1v-0.138
	c0.209,0.03,0.423,0.013,0.625-0.048c-0.214,0.034-0.433-0.001-0.625-0.1c0.785,0.072,1.575,0.056,2.356-0.048v-0.137h0.1v-0.043
	c0.049-0.047,0.048,0.047,0.048,0.048c0.04,0.073,0.057,0.155,0.048,0.238h0.434c0.16-0.333,0.063-0.545,0.673-0.524V11.23
	c-0.131,0.023-0.26,0.057-0.385,0.1v-0.052h0.048c0.396-0.222,0.865-0.273,1.3-0.143l-0.481,0.048v0.19h0.234
	c0.097,0.199,0.178,0.406,0.24,0.619v0.286c0.246,0.165,0.458,0.375,0.625,0.619l0.385,0.048v-0.1c0.1-0.056,0.075-0.021,0.145,0
	c0.027,0.015,0.816,0.572,0.816,0.572L23.3,13.56c0.057,0.174,0.205,0.302,0.385,0.333c0.024-0.041,0.06-0.076,0.101-0.1
	c0.115,0.364,0.463,0.355,0.962,0.333c0.338,0.247,1.454-0.079,1.971,0.143c-0.025,0.061-0.041,0.125-0.048,0.191l7.019,0.1
	l3.46,0.056v0.1c0.535-0.01,1.067-0.077,1.588-0.2c0.138,0.019,0.27,0.067,0.386,0.143c0.215-0.175,0.503-0.229,0.767-0.143
	c0.004,0.038,0.021,0.073,0.048,0.1c-0.025,0.189-0.025,0.382,0,0.572h-0.769l-0.048-0.1c-0.132,0.039-0.261,0.086-0.386,0.143
	l-0.048-0.143c0,0-0.788-0.007-0.816,0c-0.62,0.098-1.251,0.113-1.875,0.048c-0.209,0-0.327,0.111-0.481,0.1
	c-0.472-0.111-0.959-0.145-1.441-0.1c-0.863,0.101-1.734,0.117-2.601,0.048l-4.183,0.1c0.008,0.119-0.027,0.238-0.101,0.333
	c-0.33,0.081-0.673,0.097-1.01,0.048c-0.028-0.137-0.148-0.235-0.288-0.238c-0.267,0.071-0.544,0.087-0.816,0.048v0.041h0.1
	c0.042,0.031,0.092,0.047,0.144,0.048v0.143l0.338,0.286c-0.065,0.325,0.146,0.641,0.471,0.705c0.02,0.004,0.038,0.007,0.058,0.009
	v-0.191h0.053v-0.048c0.038,0.004,0.073,0.021,0.101,0.048c0.035,0.057,0.053,0.124,0.048,0.191c0.848-0.073,1.7-0.073,2.548,0
	c0.492,0.161,1.065-0.168,1.395,0.048c-0.182,0.007-0.169-0.023-0.24,0.1c-0.069,0.115-0.104,0.247-0.101,0.381l0.337-0.048
	c-0.018,0.141-0.101,0.1,0.048,0.19v0.038h0.048c0.02-0.171-0.023-0.12,0.1-0.191c0.149,0.188,0.409,0.248,0.625,0.143l-0.053,0.147
	h0.146c0.04-0.154-0.023-0.073,0.101-0.143c0.107,0.184,0.154,0.129,0.385,0.1c-0.005,0.066-0.021,0.13-0.048,0.191h0.1v0.048h0.049
	c0.02-0.171-0.023-0.12,0.1-0.19c0.862,0.25,1.748,0.41,2.644,0.476c0.043,0.058,0.077,0.122,0.101,0.19
	c-0.061,0.072-0.109,0.152-0.145,0.238c0.9,0.061,1.789,0.236,2.645,0.524c0.52,0.141,0.844-0.122,0.962,0.333
	c-0.148,0.27-0.261,0.559-0.337,0.857c0.318,0.186,0.545,0.496,0.625,0.856l-0.145,0.048c-0.116,0.069-0.249,0.104-0.385,0.1
	c0.03,0.342,0.205,0.601,0.24,0.953c0.15,1.517-2.222,2.281-3.173,2.856c-0.541,0.327-1.121,0.612-1.684,0.952
	c-0.281,0.212-0.589,0.388-0.914,0.523c-0.62,0.094-1.25,0.109-1.875,0.049H8.687c-1.051-0.327-2.079-0.725-3.077-1.19
	c-1.263-0.521-2.124-0.451-2.691-1.714c-0.481,0.007-0.527-0.34-0.529-0.762l-0.577-0.196c0.024,0.062,0.024,0.13,0,0.19
	c-0.137-0.015-0.1-0.05-0.191,0h0.048c0.085,0.038,0.166,0.086,0.24,0.144h0.048c0.048,0.048-0.047,0.047-0.048,0.048
	c-0.095,0.026-0.194,0.026-0.288,0L1.52,22.855c-0.06-0.153-0.06-0.323,0-0.477c-0.126-0.341-0.271-0.674-0.433-1
	c-0.212-0.213-0.47-0.027-0.529-0.428l-0.24-0.049c-0.047-0.857,0.088-1.5,0.101-2.381H0.225l-0.048-0.105
	c0.161,0.01,0.115,0.1,0.192-0.048c-0.091-0.126-0.095-0.353-0.192-0.472c0.025,0.177,0.009,0.355-0.048,0.524l0.048-0.905
	c-0.089-0.112-0.154-0.242-0.192-0.381l0.145-0.048v-0.428c0,0,0.037-0.17,0.048-0.191h0.1c0.052-0.283,0.052-0.573,0-0.857h0.382
	l0.048-0.143c-0.041-0.042-0.075-0.09-0.101-0.143l0.865-0.191v0.143h0.24l-0.048-0.286c0.037-0.004,0.073-0.021,0.1-0.048
	c0.096,0.013,0.192,0.013,0.288,0c0.012,0.02,0.028,0.037,0.048,0.048c-0.026,0.109-0.043,0.221-0.048,0.333h0.434
	c-0.004-0.067,0.015-0.134,0.053-0.189c0.04,0.155-0.024,0.073,0.1,0.143c0.314-0.082,0.642-0.098,0.962-0.048v-0.952h0.138
	c0.269,0.242,0.41,0.592,0.386,0.952c0.178-0.025,0.358-0.009,0.528,0.048c-0.146-0.02-0.295-0.003-0.433,0.048h0.479
	c0.057-0.089,0.141-0.156,0.239-0.191c-0.005,0.067,0.012,0.135,0.048,0.191v-0.477h0.145v0.381h0.048c0,0,0.021-0.189,0.048-0.1
	v0.048c0.036,0.057,0.053,0.124,0.048,0.19c0.162,0.022,0.327,0.006,0.481-0.048c-0.146,0.021-0.295,0.004-0.434-0.048
	c0.891,0,1.221-0.043,2.115-0.048v-0.327h0.146v0.519c0.493-0.067,0.991-0.101,1.489-0.1l-0.048,0.1h0.05
	c0.232,0.085,0.488,0.085,0.721,0c-0.197,0.026-0.395-0.045-0.529-0.191c-0.054-0.218-0.069-0.444-0.048-0.667
	c-0.024-0.373-0.089-0.742-0.192-1.1c0.483-0.214,1.023-0.264,1.538-0.143V13.04c0.12-0.033,0.089-0.112,0.145-0.048
	c0.615-0.133,1.246-0.181,1.875-0.143c0.046-0.257,0.087-0.079,0.144-0.238c0.328-0.4,0.019-2.742,0-3.524
	c-0.077-0.329-0.077-0.671,0-1c-0.023,0.654,0.024,1.309,0.145,1.952c0.04,0.687,0.12,1.371,0.239,2.048h0.049v-1.761
	c0.315-0.514-0.225-1.678,0.1-2.19v2.811c-0.016,0.38-0.032,0.761-0.048,1.143c0.059,0.185,0.092,0.377,0.1,0.571
	c0.096,0.074,0.209,0.123,0.328,0.142H13.639z M17.533,11.945c0.525,0.083,1.061,0.083,1.587,0h-1.583H17.533z M19.312,11.945
	c0.085,0.094,0.215,0.132,0.337,0.1v-0.053h0.049v-0.047H19.312z M16.573,12.421v0.095c0.083,0.009,0.166-0.008,0.239-0.048
	L16.573,12.421z M38.014,14.802v0.143h0.192v-0.143H38.014z M38.448,14.802c-0.053,0-0.104,0.017-0.145,0.048
	c0.026,0.027,0.044,0.062,0.048,0.1h0.101v-0.148H38.448z M38.547,14.802c0.04,0.155-0.024,0.073,0.1,0.143v-0.048
	c0.027-0.027,0.044-0.062,0.048-0.1h-0.151L38.547,14.802z M37.153,14.993v0.143l-0.287-0.048v0.048h0.048
	c0.138,0.052,0.287,0.068,0.433,0.048c0.111-0.071,0.327-0.068,0.433-0.143L37.153,14.993z M2.778,15.279
	c0.266,0.086,0.552,0.086,0.817,0H2.774H2.778z M7.441,15.279c-0.082,0.002-0.163,0.018-0.239,0.048v0.048
	c0.082,0.001,0.163,0.018,0.239,0.048V15.279L7.441,15.279z M5.903,15.327c0.087,0.059,0.201,0.059,0.288,0H5.899H5.903z
	 M6.288,15.327c0.087,0.059,0.201,0.059,0.288,0H6.283H6.288z M6.673,15.327c0.027,0.026,0.063,0.043,0.1,0.048
	c-0.028-0.028-0.065-0.045-0.104-0.049L6.673,15.327z M7.973,15.375c0.298,0.091,0.615,0.091,0.913,0h-0.92H7.973z M1.524,15.416
	c0.083,0.042,0.062,0.042,0.145,0H1.524z M12.293,16.225c0.054,0.102,0.138,0.185,0.24,0.238c-0.064-0.017-0.166-0.185-0.24-0.233
	V16.225z M14.264,16.273c-0.521-0.088-1.055-0.021-1.538,0.191h0.048v0.052c0.307-0.059,1.136-0.021,1.49-0.048v-0.19V16.273z
	 M24.698,16.659c0.104,0.063,0.233,0.063,0.337,0H24.698z M0.323,17.659l0.1,0.428h0.044v-0.285
	C0.432,17.742,0.382,17.692,0.323,17.659z M32.101,17.759v0.048h-0.049c-0.093,0.037,0.1,0.049,0.1,0.049
	c-0.004-0.039-0.022-0.075-0.051-0.102V17.759z M32.582,17.997c0.027,0.026,0.063,0.043,0.1,0.048
	c-0.026-0.028-0.063-0.047-0.101-0.053L32.582,17.997z M34.457,18.141l-1.395-0.101v0.048h0.048c0.415,0.16,0.856,0.241,1.301,0.238
	c0.034-0.058,0.05-0.125,0.045-0.191L34.457,18.141z M37.581,20.416l-0.101,0.333c0.064,0.05,0.114,0.116,0.145,0.19
	c0.026-0.026,0.043-0.062,0.048-0.1c0.102-0.099,0.104-0.261,0.004-0.361C37.651,20.45,37.617,20.43,37.581,20.416z M0.948,21.087
	v0.101h0.048v-0.101H0.948z M1.332,21.087l0.047,0.239h0.145c0.025-0.061,0.042-0.125,0.049-0.191H1.524v-0.048H1.332L1.332,21.087z
	 M1.813,21.087c-0.062,0.083-0.097,0.183-0.1,0.286c0.083,0.063,0.184,0.098,0.288,0.1v-0.057
	C1.923,21.331,1.895,21.176,1.813,21.087L1.813,21.087z M1.525,21.659l0.191,0.667h0.24c0.073-0.039,0.157-0.057,0.239-0.049v-0.1
	c-0.026-0.027-0.043-0.063-0.048-0.1l0.101,0.048v-0.039c-0.066-0.049,0.014-0.03,0.048-0.144
	C2.025,21.895,1.763,21.797,1.525,21.659L1.525,21.659z M2.054,21.659v0.1c0.041,0.024,0.075,0.06,0.1,0.101h0.101v-0.058
	c-0.063-0.054-0.13-0.103-0.202-0.143H2.054z M1.86,22.802c0.131-0.018,0.264-0.001,0.386,0.048
	C2.115,22.868,1.982,22.852,1.86,22.802z M35.706,22.902c-0.103,0.012-0.2,0.047-0.288,0.1l0.048,0.1
	c0.076,0.042,0.156,0.076,0.24,0.101v-0.306V22.902z M36.137,23.04c-0.05,0.134-0.121,0.065,0,0.144
	c0.024-0.041,0.059-0.076,0.1-0.101C36.209,23.059,36.174,23.043,36.137,23.04z M34.743,23.326c-0.016,0.131-0.049,0.26-0.101,0.381
	c-0.382,0.153-0.788,0.234-1.2,0.238l0.053,0.57h0.048c0.475-0.424,1.71-0.699,2.066-1.143c-0.142-0.055-0.272-0.135-0.385-0.238
	c-0.133,0.118-0.303,0.186-0.479,0.191H34.743z M5.08,23.802c0.028,0.056,0.082,0.093,0.144,0.101v-0.101H5.08L5.08,23.802z
	 M5.801,23.85c-0.082,0.127-0.199,0.227-0.337,0.286c0.027,0.026,0.063,0.044,0.1,0.048c0.563,0.283,1.162,0.492,1.779,0.619v-0.187
	c-0.073-0.252-0.057-0.521,0.048-0.763H5.802L5.801,23.85z M10.945,23.85c0.093,0.563-0.027,1.141-0.337,1.619h0.819v-0.1
	c-0.371-0.415-0.482-1.002-0.288-1.524h-0.191L10.945,23.85z M14.695,23.85c0.092,0.563-0.028,1.14-0.337,1.619h0.819v-0.053
	c-0.356-0.441-0.465-1.033-0.288-1.572h-0.191L14.695,23.85z M18.445,23.85c0.102,0.563-0.019,1.144-0.336,1.619h0.818v-0.053
	c-0.356-0.441-0.466-1.033-0.289-1.572h-0.19L18.445,23.85z M22.195,23.85c0.094,0.563-0.026,1.141-0.336,1.619h0.818v-0.053
	c-0.188-0.219-0.321-0.48-0.385-0.762c-0.071-0.281,0.109-0.662,0.048-0.762c-0.042-0.029-0.092-0.045-0.143-0.043H22.195z
	 M25.945,23.85c0.091,0.563-0.029,1.139-0.336,1.619h0.818v-0.1c-0.363-0.419-0.474-1.001-0.289-1.524h-0.19L25.945,23.85z
	 M29.695,23.85c0.093,0.563-0.026,1.141-0.336,1.619h0.818v-0.053c-0.337-0.449-0.461-1.023-0.337-1.572h-0.143L29.695,23.85z"/>
</svg>
