<?xml version="1.0" encoding="utf-8"?>
<!-- Generator: Adobe Illustrator 16.0.0, SVG Export Plug-In . SVG Version: 6.00 Build 0)  -->
<!DOCTYPE svg PUBLIC "-//W3C//DTD SVG 1.1//EN" "http://www.w3.org/Graphics/SVG/1.1/DTD/svg11.dtd">
<svg version="1.1" id="Layer_1" xmlns="http://www.w3.org/2000/svg" xmlns:xlink="http://www.w3.org/1999/xlink" x="0px" y="0px"
	 width="39.969px" height="40px" viewBox="0 0 39.969 40" enable-background="new 0 0 39.969 40" xml:space="preserve">
<path id="Color_Fill_1" fill="#FFFFFF" d="M1.262,13.757h0.146v0.142l1.262-0.047c0-0.744,0-1.394,0-1.991h0.485v0.095
	c-0.129,0.625-0.178,1.263-0.146,1.9l8.5-0.237c1.115,0.246,2.336,0.478,3.5,0.616c0.078-0.31,0.111-0.629,0.1-0.948
	c0.036-0.057,0.053-0.123,0.049-0.19c0.495-0.02,0.842-0.114,1.359-0.095v0.047h0.049c0.01,0.24,0.044,0.478,0.1,0.711
	c0.04,0.216-0.045,0.491,0,0.711c0.158,0.069,1.068,0.284,1.068,0.284c0.047-0.104,0.064-0.219,0.049-0.332H18.3v0.379
	c0.268,0.047,0.529,0.127,0.777,0.237v0.142l4.078,0.142c0.429,0.655,1.362,0.492,2.427,0.474V15.7
	c0.152-0.022,0.308,0.012,0.438,0.095h1.553c1.101,0.067,2.205,0.036,3.3-0.095c0.837,0.122,1.687,0.122,2.524,0
	c-0.021,0.117,0.039,0.232,0.146,0.284v-0.19h3.642v0.19l0.631,0.047l0.049-0.142l0.437,0.048c0.349-0.146,0.705-0.273,1.068-0.379
	c0.22,0.185,0.378,0.377,0.583,0.569c0.018,0.128,0.001,0.259-0.049,0.379c-0.094,0.327-0.389,0.557-0.729,0.569
	c-0.602-0.351-1.298-0.5-1.99-0.427v0.047h-0.048l0.05,0.142h-3.642c0.017-0.062,0.017-0.128,0-0.19h-0.101l-0.047,0.285
	c-2.883,0-5.862-0.093-8.689-0.096v0.048c0.179,0.104,0.328,0.251,0.438,0.427h-0.873c-0.546,0.076-1.1,0.092-1.649,0.047
	c-0.692,0.092-1.39,0.124-2.087,0.096h-0.778c-0.28,0.084-0.645,0.277-0.922,0.379c-0.252,0.045-0.498,0.125-0.728,0.236h0.243v0.19
	c0.353,0.06,0.71,0.091,1.068,0.095c0.238-0.059,0.484-0.074,0.728-0.047c0.244-0.021,0.489-0.006,0.728,0.047
	c0.078,0.01,0.129,0,0.101-0.095c0.285,0.089,0.577,0.153,0.873,0.19v-0.143c0.115,0.002,0.229,0.018,0.34,0.047
	c0.02,0.123-0.035,0.062,0.101,0.095c0.816-0.158,1.654-0.175,2.476-0.048v0.096c-0.021,0.186,0.031,0.373,0.146,0.521
	c0.152,0.018,0.307-0.016,0.438-0.096l0.631,0.096c0.012,0.104-0.025,0.209-0.101,0.283c0.151,0.016,1.306,0.271,1.312,0.284
	c0.115-0.111,0.285-0.147,0.437-0.095v0.193c0.251,0.092,0.526,0.092,0.776,0c0.104,0.101,0.245,0.152,0.389,0.143
	c0.1-0.053-0.044-0.1,0.193-0.143c0.006,0.082,0.021,0.161,0.05,0.237c0.31-0.059,0.63-0.025,0.922,0.095
	c0.077-0.033,0.159-0.049,0.243-0.047c0.111,0.047,0.205,0.28,0.34,0.332c0.494,0.094,0.996,0.142,1.5,0.143v0.189
	c-0.026,0.025-0.043,0.059-0.049,0.096c0.142-0.02,0.061-0.078,0.146,0.047c0.031,0.041,0.049,0.09,0.05,0.142
	c-0.156,0.172-0.258,0.387-0.291,0.616c0.223,0.192,0.361,0.465,0.388,0.758h-0.341v0.093c0.275,0.558,0.199,1.225-0.193,1.706
	c-0.43,0.363-0.947,0.607-1.5,0.711c-0.807,0.32-1.708,0.649-2.523,0.948c-0.939,0.228-1.908,0.306-2.871,0.235H6.408
	c-0.493-0.111-1-0.282-1.456-0.428c-0.935-0.161-1.847-0.432-2.718-0.806c-0.28-0.254-0.483-0.583-0.584-0.947
	c-0.079-0.087-0.179-0.153-0.291-0.189c-0.149-0.241-0.186-0.536-0.1-0.806h0.052v0.047C1.349,22.946,1.36,22.76,1.36,22.76
	c-0.045-0.05-0.094-0.098-0.146-0.142c0.025,0.1,0.055,0.094,0,0.188v-0.093c-0.11-0.158-0.193-0.335-0.243-0.521H0.922
	c0,0.051-0.017,0.102-0.049,0.142c-0.053-0.229-0.135-0.452-0.243-0.663c0.159-0.117,0.109-0.09,0.1-0.332
	c-0.233,0.011-0.462,0.059-0.68,0.143c0.114-0.738,0.114-1.489,0-2.228c0,0.052-0.018,0.101-0.05,0.142c0-0.578,0.03-1.018,0-1.47
	c0.052,0.003,0.104-0.013,0.146-0.043c-0.054-0.024-0.103-0.059-0.146-0.1h0.146v-0.142h0.68c0.082,0.067,0.186,0.102,0.291,0.096
	v0.095c0.104-0.131,0.287-0.171,0.437-0.095v0.095c0.048,0.021,0.406-0.017,0.485,0c0.4,0.083,0.537-0.231,0.825-0.142
	c0.785,0.148,1.589,0.164,2.379,0.047l0.048,0.146c0.036-0.028,0.069-0.061,0.1-0.095h0.1v0.095
	c0.072,0.013,0.083-0.089,0.194-0.095c0.103,0.009,0.203,0.041,0.291,0.095c0.5,0.13,1.166-0.1,1.6,0.048v-0.147
	c0.189,0,0.218,0.024,0.291-0.095H7.67v-0.332c-2.13,0.01-4.24-0.1-6.311-0.189v-0.236H0.534c0.093-0.531,0.109-1.074,0.049-1.61
	c-0.132-0.099-0.19-0.269-0.146-0.427l0.194-0.142l0.049-0.853h0.194c0.053-0.102,0.118-0.198,0.194-0.284
	c0.003-0.128-0.014-0.256-0.049-0.379l0.1-0.047v-1.09c0.2-0.852-0.053-1.946,0.146-2.8c0.1-0.427-0.038-1,0.049-1.374
	c0.141-0.6-0.2-1.484,0.1-1.943C1.414,8.596,1.265,11.219,1.262,13.757z M2.718,11.957c-0.009,0.082,0.008,0.165,0.049,0.237
	C2.776,12.111,2.759,12.028,2.718,11.957L2.718,11.957z M2.818,11.957c-0.005,0.067,0.012,0.134,0.049,0.19
	c0.005-0.067-0.013-0.135-0.051-0.191L2.818,11.957z M2.918,11.957c-0.005,0.067,0.012,0.134,0.049,0.19
	c0.004-0.068-0.015-0.135-0.054-0.191L2.918,11.957z M3.018,11.957c-0.009,0.082,0.008,0.165,0.049,0.237
	c0.007-0.083-0.013-0.167-0.057-0.238L3.018,11.957z M17.872,14.657c0,0.051,0.017,0.102,0.049,0.142
	c-0.002-0.052-0.022-0.103-0.057-0.142H17.872z M18.115,14.704v0.095h0.1v-0.095H18.115z M39.134,15.794
	c-0.352,0.252-0.51,0.152-0.485,0.806c0.186,0.1,0.381,0.18,0.584,0.237v-1.043h-0.101H39.134z M1.262,17.784
	c0.083,0.042,0.062,0.042,0.146,0H1.262z M23.835,18.4v0.095c0.1,0.013,0.2-0.004,0.291-0.047L23.835,18.4z M25.729,19.063v0.096
	h0.049v-0.046h0.048c-0.026-0.026-0.061-0.042-0.097-0.048V19.063z M25.484,19.158c0.028,0.025,0.063,0.042,0.101,0.047
	C25.558,19.18,25.522,19.163,25.484,19.158L25.484,19.158z M27.33,19.537c0.027,0.025,0.063,0.043,0.1,0.047
	c-0.027-0.025-0.063-0.041-0.1-0.045V19.537z M28.883,19.727v0.047h-0.048c-0.093,0.037,0.101,0.048,0.101,0.048
	c-0.006-0.036-0.024-0.069-0.052-0.093L28.883,19.727z M0.048,20.296c0.017,0.015,0.1,0.025,0.049,0.095
	C0.043,20.368-0.054,20.307,0.048,20.296L0.048,20.296z M1.117,21.384l0.049,0.19h0.048C1.225,21.496,1.186,21.421,1.117,21.384z
	 M1.36,21.953v0.095h0.048c-0.006-0.035-0.023-0.067-0.049-0.092L1.36,21.953z M0.826,22.332c0.04,0.072,0.058,0.154,0.049,0.236
	h-0.1v-0.045c0.037-0.056,0.054-0.121,0.05-0.188L0.826,22.332z M1.554,22.427L1.5,22.572h0.1c0.001-0.052-0.016-0.102-0.047-0.143
	L1.554,22.427z M31.214,22.759c0.046,0.155,0.046,0.319,0,0.474h0.101c0.04-0.164,0.004-0.338-0.101-0.472V22.759z M1.408,22.996
	l0.049,0.143h0.1v-0.093H1.5c-0.025-0.024-0.057-0.042-0.092-0.048V22.996z M31.165,23.375c-0.086,0.162-0.215,0.223-0.291,0.379
	h0.049v-0.045c0.155-0.029,0.262-0.175,0.242-0.332V23.375z M29.807,23.518c-0.059,0.056-0.107,0.119-0.146,0.189h0.049
	c0.059,0.068,0.124,0.133,0.193,0.189c0.038-0.004,0.074-0.02,0.101-0.047c0.065-0.061,0.103-0.146,0.101-0.236L29.807,23.518z
	 M30.243,23.754c-0.03,0.076-0.046,0.156-0.05,0.237h0.101c0.117-0.086,0.323-0.101,0.437-0.19
	c-0.163,0.028-0.332,0.014-0.487-0.044V23.754z M29.369,23.896c0.01,0.134-0.025,0.268-0.1,0.379h0.1
	c0.251-0.174,0.331-0.176,0-0.377V23.896z M2.621,23.994c0.049,0.131,0.195,0.197,0.326,0.147c0.005-0.001,0.01-0.003,0.014-0.006
	C2.842,24.103,2.728,24.055,2.621,23.994z M3.447,24.084c-0.061,0.039-0.126,0.07-0.194,0.095v0.095h0.1
	c0.152,0.074,0.316,0.123,0.485,0.143l0.146-0.189L3.447,24.084z M4.078,24.273c-0.043,0.059-0.077,0.123-0.1,0.19l1.214,0.284
	v-0.091c-0.042-0.108-0.076-0.219-0.1-0.332c-0.338,0.041-0.681,0.025-1.014-0.048V24.273z M28.156,24.321
	c-0.027,0.108-0.044,0.22-0.049,0.331h0.049c0.156-0.113,0.43-0.118,0.583-0.236c-0.199,0.018-0.399-0.014-0.584-0.091
	L28.156,24.321z M8.5,24.704c-0.043,0.166-0.108,0.325-0.194,0.474h0.48v-0.047C8.682,24.995,8.586,24.853,8.5,24.704z
	 M24.714,24.704c-0.042,0.189-0.124,0.367-0.243,0.521H25v-0.094c-0.108-0.134-0.205-0.277-0.291-0.427H24.714z M21.365,24.799
	c-0.049,0.186-0.137,0.258-0.194,0.428h0.486v-0.096c-0.084-0.123-0.185-0.234-0.298-0.332H21.365z M11.8,24.895l-0.194,0.332h0.049
	c0.106-0.055,0.233-0.055,0.34,0v-0.096C11.925,25.057,11.859,24.978,11.8,24.895z M14.955,24.941
	c-0.048,0.144-0.1,0.142-0.146,0.283h0.34v-0.094c-0.085-0.06-0.116-0.129-0.197-0.189H14.955z M18.11,24.941
	c-0.057,0.09-0.106,0.185-0.146,0.283h0.386v-0.047c-0.063-0.096-0.146-0.176-0.243-0.236H18.11z"/>
</svg>
