<svg xmlns="http://www.w3.org/2000/svg" width="39.938" height="40" viewBox="0 0 39.938 40">
  <defs>
    <style>
      .cls-1 {
        fill: #fff;
        fill-rule: evenodd;
      }
    </style>
  </defs>
  <path id="Color_Fill_1" data-name="Color Fill 1" class="cls-1" d="M12.692,10a0.75,0.75,0,0,1,0,.571V10Zm1.01,5.286c0.04-.155-0.024-0.073.1-0.143v0.143a2.81,2.81,0,0,1,.625-0.048c0.04-.154-0.024-0.073.1-0.143a0.245,0.245,0,0,0,.24.143c0.006-.006.1-0.143,0.1-0.143,0.218-.115.282,0.114,0.336,0.143a1.71,1.71,0,0,0,.865-0.048V15.048L16.442,15V14.762H16.49V14.714a1.526,1.526,0,0,0,.336-0.1V14.476a1.446,1.446,0,0,0,.625-0.048,1.017,1.017,0,0,1-.625-0.1,10.613,10.613,0,0,0,2.356-.048V14.143h0.1V14.1c0.049-.047.048,0.047,0.048,0.048a0.409,0.409,0,0,1,.048.238h0.433c0.16-.333.064-0.545,0.673-0.524V13.714a2.547,2.547,0,0,0-.385.1V13.762h0.048a1.674,1.674,0,0,1,1.3-.143l-0.481.048v0.19H21.2a4.013,4.013,0,0,1,.24.619v0.286a2.316,2.316,0,0,1,.625.619l0.385,0.048v-0.1c0.1-.056.075-0.021,0.144,0,0.028,0.015.817,0.572,0.817,0.572l-0.048.143a0.491,0.491,0,0,0,.385.333,0.291,0.291,0,0,1,.1-0.1c0.116,0.364.463,0.355,0.962,0.333,0.338,0.247,1.454-.079,1.971.143a0.669,0.669,0,0,0-.048.191l7.019,0.1L37.212,17.1v0.1A7.564,7.564,0,0,0,38.8,17a0.938,0.938,0,0,1,.385.143A0.816,0.816,0,0,1,39.952,17a0.162,0.162,0,0,0,.048.1,2.1,2.1,0,0,0,0,.572H39.231l-0.048-.1a2.845,2.845,0,0,0-.385.143l-0.048-.143s-0.788-.007-0.817,0a7.238,7.238,0,0,1-1.875.048c-0.209,0-.327.111-0.481,0.1a4.466,4.466,0,0,0-1.442-.1,13.342,13.342,0,0,1-2.6.048l-4.183.1a0.49,0.49,0,0,1-.1.333,2.648,2.648,0,0,1-1.01.048,0.3,0.3,0,0,0-.288-0.238,2.052,2.052,0,0,1-.817.048V18h0.1a0.247,0.247,0,0,0,.144.048v0.143l0.337,0.286a0.6,0.6,0,0,0,.529.714V19H26.3V18.952a0.165,0.165,0,0,1,.1.048,0.319,0.319,0,0,1,.048.191,14.841,14.841,0,0,1,2.548,0c0.492,0.161,1.065-.168,1.394.048-0.181.007-.169-0.023-0.24,0.1a0.689,0.689,0,0,0-.1.381l0.336-.048c-0.017.141-.1,0.1,0.048,0.19V19.9h0.048c0.02-.171-0.023-0.12.1-0.191a0.512,0.512,0,0,0,.625.143L31.154,20H31.3c0.04-.154-0.024-0.073.1-0.143,0.108,0.183.154,0.129,0.385,0.1a0.6,0.6,0,0,1-.048.191h0.1v0.048h0.048c0.02-.171-0.023-0.12.1-0.191a12.867,12.867,0,0,0,2.644.476,0.715,0.715,0,0,1,.1.191,0.89,0.89,0,0,0-.144.238,10.49,10.49,0,0,1,2.644.524c0.52,0.141.844-.122,0.962,0.333a3.674,3.674,0,0,0-.337.857,1.328,1.328,0,0,1,.625.857l-0.144.048a0.706,0.706,0,0,1-.385.1c0.03,0.341.205,0.6,0.24,0.952,0.151,1.517-2.222,2.282-3.173,2.857-0.541.327-1.121,0.613-1.683,0.952a4.25,4.25,0,0,1-.914.524,7.647,7.647,0,0,1-1.875.048H8.75a24.362,24.362,0,0,1-3.077-1.19c-1.263-.52-2.124-0.451-2.692-1.714-0.481.007-.527-0.34-0.529-0.762L1.875,25.1a0.259,0.259,0,0,1,0,.191c-0.137-.015-0.1-0.05-0.192,0H1.731a1.17,1.17,0,0,1,.24.143H2.019c0.048,0.048-.047.047-0.048,0.048a0.531,0.531,0,0,1-.288,0l-0.1-.143a0.649,0.649,0,0,1,0-.476,10.368,10.368,0,0,0-.433-1c-0.212-.213-0.47-0.028-0.529-0.428l-0.24-.048c-0.047-.858.087-1.5,0.1-2.381H0.288L0.24,20.9c0.161,0.01.115,0.1,0.192-.048C0.342,20.726.338,20.5,0.24,20.381a1.128,1.128,0,0,1-.048.524L0.24,20a1.07,1.07,0,0,1-.192-0.381l0.144-.048V19.143s0.037-.17.048-0.191h0.1a2.4,2.4,0,0,0,0-.857H0.721l0.048-.143a0.551,0.551,0,0,1-.1-0.143l0.865-.191v0.143h0.24l-0.048-.286a0.165,0.165,0,0,0,.1-0.048,1.062,1.062,0,0,0,.288,0,0.136,0.136,0,0,0,.048.048,1.7,1.7,0,0,0-.048.333H2.548A0.306,0.306,0,0,1,2.6,17.619c0.04,0.155-.024.073,0.1,0.143a2.38,2.38,0,0,1,.962-0.048V16.762H3.8a1.174,1.174,0,0,1,.385.952,1.16,1.16,0,0,1,.529.048,0.884,0.884,0,0,0-.433.048H4.76A0.474,0.474,0,0,1,5,17.619a0.305,0.305,0,0,0,.048.191V17.333H5.192v0.381H5.24s0.021-.189.048-0.1v0.048a0.318,0.318,0,0,1,.048.19,1.019,1.019,0,0,0,.481-0.048,0.883,0.883,0,0,1-.433-0.048c0.89,0,1.22-.043,2.115-0.048V17.381H7.644V17.9a10.924,10.924,0,0,1,1.49-.1l-0.048.1H9.135a1.045,1.045,0,0,0,.721,0,0.608,0.608,0,0,1-.529-0.191,1.988,1.988,0,0,1-.048-0.667,5.176,5.176,0,0,0-.192-1.1,2.428,2.428,0,0,1,1.538-.143V15.524c0.12-.033.089-0.112,0.144-0.048a6.907,6.907,0,0,1,1.875-.143c0.046-.257.087-0.079,0.144-0.238,0.328-.4.018-2.742,0-3.524a2.192,2.192,0,0,1,0-1,8.879,8.879,0,0,0,.144,1.952,17.882,17.882,0,0,0,.24,2.048h0.048V12.81c0.316-.514-0.224-1.678.1-2.19v2.81q-0.024.571-.048,1.143a2.176,2.176,0,0,1,.1.571A0.719,0.719,0,0,0,13.7,15.286Zm3.894-.857a5.07,5.07,0,0,0,1.587,0H17.6Zm1.779,0a0.339,0.339,0,0,0,.337.1V14.476H19.76V14.429H19.375Zm-2.74.476V15a0.405,0.405,0,0,0,.24-0.048Zm21.442,2.381v0.143h0.192V17.286H38.077Zm0.433,0a0.234,0.234,0,0,0-.144.048,0.173,0.173,0,0,1,.048.1h0.1V17.286Zm0.1,0c0.04,0.155-.024.073,0.1,0.143V17.381a0.171,0.171,0,0,0,.048-0.1H38.606Zm-1.394.191v0.143l-0.288-.048v0.048h0.048a0.9,0.9,0,0,0,.433.048c0.111-.071.327-0.068,0.433-0.143Zm-34.375.286a1.318,1.318,0,0,0,.817,0H2.837Zm4.663,0a0.7,0.7,0,0,0-.24.048v0.048a0.694,0.694,0,0,1,.24.048V17.762Zm-1.538.048a0.256,0.256,0,0,0,.288,0H5.962Zm0.385,0a0.256,0.256,0,0,0,.288,0H6.346Zm0.385,0a0.174,0.174,0,0,0,.1.048A0.174,0.174,0,0,0,6.731,17.81Zm1.3,0.048a1.553,1.553,0,0,0,.913,0H8.029ZM1.587,17.9c0.083,0.042.061,0.042,0.144,0H1.587Zm10.769,0.809a0.573,0.573,0,0,0,.24.238C12.532,18.93,12.43,18.762,12.356,18.714Zm1.971,0.048a2.7,2.7,0,0,0-1.538.191h0.048V19c0.306-.059,1.135-0.021,1.49-0.048V18.762ZM24.76,19.143a0.326,0.326,0,0,0,.337,0H24.76Zm-24.375,1,0.1,0.428H0.529V20.286A0.369,0.369,0,0,0,.385,20.143Zm31.779,0.1v0.048H32.115c-0.093.037,0.1,0.048,0.1,0.048A0.163,0.163,0,0,0,32.164,20.238Zm0.481,0.238a0.174,0.174,0,0,0,.1.048A0.174,0.174,0,0,0,32.644,20.476Zm1.875,0.143-1.394-.1v0.048h0.048a3.528,3.528,0,0,0,1.3.238A0.319,0.319,0,0,0,34.519,20.619ZM37.644,22.9l-0.1.333a0.454,0.454,0,0,1,.144.191,0.171,0.171,0,0,0,.048-0.1A0.256,0.256,0,0,0,37.644,22.9ZM1.01,23.571v0.1H1.058v-0.1H1.01Zm0.385,0L1.442,23.81H1.587a0.668,0.668,0,0,0,.048-0.191H1.587V23.571H1.394Zm0.481,0a0.5,0.5,0,0,0-.1.286,0.506,0.506,0,0,0,.288.1V23.9C1.986,23.815,1.958,23.66,1.875,23.571Zm-0.288.572L1.779,24.81h0.24a0.419,0.419,0,0,1,.24-0.048v-0.1a0.172,0.172,0,0,1-.048-0.1l0.1,0.048V24.571c-0.066-.049.014-0.03,0.048-0.143A2.414,2.414,0,0,1,1.587,24.143Zm0.529,0v0.1a0.293,0.293,0,0,1,.1.1h0.1V24.286A1.223,1.223,0,0,0,2.115,24.143ZM1.923,25.286a0.753,0.753,0,0,1,.385.048A0.753,0.753,0,0,1,1.923,25.286Zm33.846,0.1a0.731,0.731,0,0,0-.288.1l0.048,0.1a1.251,1.251,0,0,0,.24.1V25.381ZM36.2,25.524c-0.05.134-.121,0.065,0,0.143a0.292,0.292,0,0,1,.1-0.1A0.174,0.174,0,0,0,36.2,25.524Zm-1.394.286a1.37,1.37,0,0,1-.1.381,3.294,3.294,0,0,1-1.2.238L33.558,27h0.048c0.475-.424,1.71-0.7,2.067-1.143a1.206,1.206,0,0,1-.385-0.238A0.756,0.756,0,0,1,34.808,25.81Zm-29.663.476a0.186,0.186,0,0,0,.144.1v-0.1H5.144Zm0.721,0.048a0.768,0.768,0,0,1-.337.286,0.174,0.174,0,0,0,.1.048,7.191,7.191,0,0,0,1.779.619V27.1a1.12,1.12,0,0,1,.048-0.762H5.865Zm5.144,0a2.3,2.3,0,0,1-.337,1.619H11.49v-0.1a1.5,1.5,0,0,1-.288-1.524H11.01Zm3.75,0a2.311,2.311,0,0,1-.337,1.619H15.24V27.9a1.671,1.671,0,0,1-.288-1.572H14.76Zm3.75,0a2.212,2.212,0,0,1-.336,1.619H18.99V27.9a1.671,1.671,0,0,1-.289-1.572H18.51Zm3.75,0a2.291,2.291,0,0,1-.336,1.619H22.74V27.9a1.766,1.766,0,0,1-.385-0.762c-0.071-.281.11-0.662,0.048-0.762A0.246,0.246,0,0,0,22.26,26.333Zm3.75,0a2.328,2.328,0,0,1-.336,1.619H26.49v-0.1a1.541,1.541,0,0,1-.289-1.524H26.01Zm3.75,0a2.3,2.3,0,0,1-.336,1.619H30.24V27.9a1.916,1.916,0,0,1-.337-1.572H29.76Z" transform="translate(-0.063 0.516)"/>
</svg>
