<?xml version="1.0" encoding="utf-8"?>
<!-- Generator: Adobe Illustrator 16.0.0, SVG Export Plug-In . SVG Version: 6.00 Build 0)  -->
<!DOCTYPE svg PUBLIC "-//W3C//DTD SVG 1.1//EN" "http://www.w3.org/Graphics/SVG/1.1/DTD/svg11.dtd">
<svg version="1.1" id="Layer_1" xmlns="http://www.w3.org/2000/svg" xmlns:xlink="http://www.w3.org/1999/xlink" x="0px" y="0px"
	 width="40px" height="40px" viewBox="0 0 40 40" enable-background="new 0 0 40 40" xml:space="preserve">
<path id="sw_ikv_72_ico" fill="#FFFFFF" d="M18.387,14.829v-0.074c0.097-0.092,0.23-0.137,0.364-0.123
	c0.017,0.055,0.064,0.095,0.121,0.1c0.475-0.123,0.969-0.157,1.456-0.1c-0.02-0.072-0.054-0.141-0.1-0.2
	c-0.021-0.155,0.015-0.313,0.1-0.444c0.01-0.084,0.026-0.166,0.049-0.247c0.18-0.269,0.478-0.434,0.8-0.444
	c0.069,0.043,0.135,0.092,0.194,0.148c0.021,0.082,0.037,0.164,0.049,0.247c0.219,0.263,0.34,0.595,0.34,0.937h3.905v-0.047
	c0.021-0.031,0.036-0.065,0.049-0.1h-0.22v-0.37h0.267c-0.024-0.206-0.007-0.414,0.05-0.612c0.131-0.118,0.313-0.164,0.484-0.123
	v0.962c-0.01,0.006-0.018,0.015-0.023,0.025c-0.066-0.003-0.132,0.005-0.194,0.025v0.074h0.776v0.049
	c-0.059,0.039-0.096,0.103-0.101,0.173c0.187,0.123,0.277,0.376,0.461,0.493l0.291,0.049c0.237,0.065,0.53,0.114,0.776,0.173
	l0.419,0.021c0.237,0.066,0.366,0.253,0.606,0.321l0.34-0.025c0.705,0.171,1.434,0.23,2.158,0.173
	c0.006,0.01,0.014,0.019,0.024,0.025c0.06,0.158,0.093,0.324,0.101,0.493c-0.07,0.131-0.119,0.272-0.146,0.419
	c2.67,0.1,5.474,0.331,8.175,0.222c0.042,0.261,0.05,0.526,0.024,0.789h-0.03v0.025c-0.387-0.045-0.776-0.054-1.164-0.025
	c-0.332-0.021-0.665-0.014-0.995,0.025c-0.382,0.084-0.861-0.053-1.213,0.024h-0.946c-0.398-0.007-0.797,0.026-1.188,0.101
	c-0.2,0.045-0.481-0.014-0.655,0.024h-0.655c-0.289,0.043-0.581,0.06-0.873,0.05c-0.226-0.054-0.464-0.01-0.654,0.123
	c-0.104,0.246-0.226,0.485-0.364,0.715c-0.22,0.055-0.433,0.138-0.632,0.246h-0.023v0.025h0.946c0.231,0.035,0.466,0.043,0.7,0.025
	c0.285,0.134,0.588,0.225,0.899,0.271c-0.061,0.283-0.159,0.557-0.291,0.814h0.05c0.063-0.021,0.128-0.037,0.193-0.05
	c0.006,0.011,0.014,0.02,0.023,0.025c-0.013,0.057-0.021,0.115-0.023,0.174c0.128,0.081,0.235,0.191,0.314,0.32
	c0.045-0.023,0.097-0.032,0.146-0.025c0.021,0.019,0.027,0.031,0.048,0.049c-0.041,0.06-0.066,0.129-0.073,0.201
	c0.117,0.084,0.101,0.299,0.219,0.369c0.047-0.014,0.098-0.014,0.145,0v0.101c-0.053,0.026-0.096,0.069-0.121,0.122
	c0.084,0.123,0.111,0.275,0.073,0.42c0.058,0.011,0.115,0.027,0.17,0.049v0.1c-0.087-0.002-0.161,0.063-0.17,0.148
	c0.02,0.134,0.003,0.27-0.049,0.395c0.087,0.029,0.089,0.037,0.101,0.148c-0.066-0.003-0.129,0.024-0.171,0.074
	c-0.058,0.126-0.122,0.25-0.194,0.369c0.059,0.101,0.074,0.101,0.024,0.201L33.4,23.411c-0.123,0.134-0.229,0.284-0.315,0.444
	c0.03,0.039,0.017,0.013,0,0.049c-0.015,0.027-0.042,0.046-0.073,0.049c-0.037-0.048-0.06-0.069-0.1-0.049L32.5,24.104
	c-0.081,0.108,0.057,0.119-0.121,0.148c-0.046-0.044-0.02-0.046-0.072-0.025c-0.082,0.027-0.101,0.101-0.171,0.123l-0.1-0.024
	c-0.151,0.062-0.298,0.136-0.437,0.222c-0.03,0.037-0.064,0.07-0.101,0.1c-0.166,0.045-0.328,0.104-0.485,0.174
	c-0.037,0.043-0.078,0.084-0.121,0.123c-0.093,0.039-0.164,0.011-0.242,0.049c-0.127,0.063-0.269,0.199-0.389,0.247l-0.193,0.024
	c-0.123,0.063-0.346,0.256-0.461,0.301c-0.031-0.018-0.065-0.025-0.101-0.025c-0.246,0.084-0.437,0.284-0.7,0.37l-0.388,0.024
	c-0.483,0.061-0.972,0.068-1.456,0.025c-0.218-0.051-0.468,0.038-0.631,0c-0.154-0.02-0.311-0.012-0.461,0.025l-0.607-0.025
	c-0.063,0.021-0.128,0.03-0.193,0.025c-0.186-0.041-0.446,0.039-0.631,0c-0.151-0.035-0.308-0.044-0.461-0.025
	c-0.187,0.011-0.373,0.011-0.559,0c-0.299,0.025-0.601,0.025-0.9,0c-0.422-0.066-0.869,0.086-1.236,0c-0.4-0.093-0.9,0.084-1.261,0
	c-0.17-0.016-0.341-0.008-0.509,0.025c-0.193-0.025-0.388-0.033-0.582-0.025c-0.273,0.041-0.552,0.041-0.825,0
	c-0.218-0.052-0.468,0.038-0.631,0l-0.631,0.025c-0.185-0.041-0.445,0.039-0.631,0c-0.161-0.023-0.324-0.023-0.485,0
	c-0.065,0.002-0.131-0.006-0.194-0.025c-0.252-0.023-0.47,0.007-0.679,0c-0.178,0.014-0.356,0.014-0.534,0
	c-0.218-0.051-0.468,0.038-0.631,0c-0.154-0.02-0.31-0.012-0.461,0.025l-0.606-0.025c-0.063,0.021-0.128,0.03-0.194,0.025
	c-0.404-0.027-0.809-0.027-1.213,0c-0.669-0.049-1.38,0-2.038-0.025c-0.387,0.033-0.776,0.033-1.164,0
	c-0.162-0.021-0.326-0.012-0.485,0.025L7.01,25.951c-0.071,0-0.152,0.033-0.194,0.025c-0.042-0.01-0.123-0.084-0.17-0.101
	c-0.155-0.017-0.308-0.042-0.46-0.076c-0.053-0.02-0.094-0.1-0.146-0.123c-0.103-0.047-0.208-0.088-0.315-0.123H5.579L5.555,25.48
	c-0.164-0.068-0.334-0.118-0.509-0.148c-0.112-0.043-0.261-0.169-0.388-0.223L4.44,25.085c-0.026-0.013-0.04-0.082-0.073-0.101
	c-0.157-0.077-0.286-0.051-0.461-0.122c-0.028-0.031-0.052-0.064-0.073-0.101C3.709,24.7,3.579,24.65,3.445,24.614H3.3L3.276,24.54
	c-0.116-0.06-0.238-0.106-0.365-0.14H2.765c-0.039-0.043-0.079-0.084-0.121-0.123c-0.083,0.006-0.165,0.021-0.243,0.049v-0.151
	c-0.151-0.026-0.288-0.105-0.388-0.222C1.946,23.984,1.874,24,1.8,24l0.024-0.2c-0.148-0.054-0.266-0.169-0.324-0.315
	c-0.054,0.025-0.111,0.042-0.17,0.05c-0.002-0.019-0.011-0.036-0.024-0.05c0.035-0.051,0.052-0.111,0.049-0.172l-0.194-0.396
	c-0.041-0.004-0.081-0.004-0.121,0c-0.167-0.238-0.243-0.528-0.215-0.817c-0.218-0.051-0.233-0.182-0.218-0.469
	c-0.089,0.015-0.181,0.008-0.267-0.021c-0.079-0.011-0.134-0.084-0.123-0.164c0-0.002,0.001-0.006,0.001-0.008
	c-0.007-0.051,0.001-0.102,0.024-0.147H0.1v-0.074H0v-0.1h0.1V20.8H0c0.012-0.194,0.062-0.351,0.291-0.345V20.5
	c0.04,0.059,0.057,0.13,0.049,0.2h0.121c0.181-0.54,0.508-1.019,0.946-1.382v-0.026H1.31c-0.373-0.129-0.695,0.425-0.776,0.715
	c0.009,0.112-0.016,0.225-0.073,0.321c-0.019-0.536,0.332-1.016,0.849-1.159h0.34l0.05-0.074l0.265,0.025v-0.913
	c0.265-0.044,0.534-0.053,0.8-0.025c0.036,0.212,0.044,0.428,0.024,0.642h0.025c0.459-0.194,0.966-0.246,1.455-0.148V18.01
	c1.554,0.024,3.209,0.024,4.8,0.025c0.002-0.027,0.013-0.054,0.031-0.074c0.013,0.032,0,0.018,0.024,0.025
	c0.052-0.06,0.093-0.127,0.121-0.2c0.023,0.012,0.05,0.012,0.073,0l0.073-0.148c0.023,0.013,0.05,0.013,0.073,0
	c0.014-0.06,0.05-0.112,0.1-0.147v0.025c0.024,0.023,0.024-0.024,0.024-0.025c0.125-0.183,0.281-0.342,0.461-0.469l0.073-0.174
	c0.023,0.012,0.05,0.012,0.073,0c0.024-0.046,0.05-0.094,0.073-0.147c0.023,0.012,0.05,0.012,0.073,0l0.073-0.148
	c0.023,0.012,0.05,0.012,0.073,0c0.035-0.136,0.151-0.234,0.291-0.247c0.21-0.082,0.431-0.131,0.655-0.148
	c-0.01-0.087-0.049-0.075,0.024-0.123c0.024-0.017,0.1-0.032,0.121-0.049c0.081-0.133,0.029-0.215,0.243-0.222
	c0.19-0.084,0.399-0.118,0.606-0.1c0.011,0.047,0.037,0.09,0.073,0.123v0.123c0.297-0.005,0.591-0.055,0.873-0.148
	c0-0.078-0.029-0.059,0.073-0.074c0.09-0.06,0.236-0.018,0.34-0.074c0.18-0.098,0.378-0.157,0.582-0.173
	c0.005,0.05,0.032,0.095,0.073,0.123c0.312-0.114,0.639-0.181,0.97-0.2v-0.101l0.364-0.074c-0.01-0.068-0.001-0.137,0.024-0.2
	c0.243-0.138,0.522-0.198,0.8-0.173c0.023,0.059,0.037,0.121,0.041,0.184c0.015,0.021,0.024,0.047,0.024,0.074h0.121v-0.048
	c-0.016-0.021-0.024-0.047-0.024-0.074h0.024v-0.025l0.485-0.074l0.03,0.124h0.049v-0.025c0.054-0.057,0.096-0.125,0.121-0.2
	c-0.166-0.115,0.061-0.287,0.049-0.37c-0.006-0.043-0.09-0.2-0.1-0.271c0.02-0.134,0.053-0.266,0.1-0.394V6h0.049v7.719
	c0.058,0.175,0.082,0.358,0.073,0.542c0,0.02-0.072,0.121-0.073,0.123c0.015,0.046,0.04,0.088,0.073,0.123
	c0.015,0.101,0.006,0.203-0.024,0.3c0.044,0.012,0.075,0.054,0.073,0.1c0.083-0.042,0.175-0.06,0.267-0.049
	c0.026,0.01-0.008,0.058,0.073,0.049C18.132,14.891,18.246,14.835,18.387,14.829z"/>
</svg>
