<svg xmlns="http://www.w3.org/2000/svg" width="39.969" height="40" viewBox="0 0 39.969 40">
  <defs>
    <style>
      .cls-1 {
        fill: #fff;
        fill-rule: evenodd;
      }
    </style>
  </defs>
  <path id="sw_lvkv_42_ico" class="cls-1" d="M21.615,16.344h2.656v0.18h0.234v0.155l9.427,0.052c0.815,0,1.691-.024,2.4-0.026h0.885a0.21,0.21,0,0,0,.208.077l1.771-.387v1.237a11.567,11.567,0,0,1-1.719-.361,0.426,0.426,0,0,0-.26.052h-3.62l-9.089.051v0.155H24.271v0.18h-2.5a1.71,1.71,0,0,0,.365.825,0.434,0.434,0,0,1,.26-0.077,0.131,0.131,0,0,1,.026.077,0.288,0.288,0,0,0-.312.206,1.837,1.837,0,0,0,.495.026,1.989,1.989,0,0,0,.026-0.541h0.052V18.2h0.026v0.026a1.313,1.313,0,0,1,.026.515h0.052a2.155,2.155,0,0,1,.469.026c0.14,0,.107-0.043.13-0.052,0,0,.579.051,0.677,0.052,0,0.208,0,.328,0,0.49h0.052a10.41,10.41,0,0,0,1.2.077V18.895a0.732,0.732,0,0,1-.26-0.052,1.963,1.963,0,0,1,.911.155,1.418,1.418,0,0,0,.391.232,1.793,1.793,0,0,1,.755-0.386h0.547c0.1-.031.239-0.124,0.364-0.155l2.917,0.129L30.964,19l0.13,0.026a0.364,0.364,0,0,1,.026.1,0.492,0.492,0,0,0-.078.1h0.495a4.1,4.1,0,0,1,.7,0c0.047-.012.005-0.044,0.026-0.051,0.088-.03.082,0.043,0.1,0.051h0.859V19.178a1.834,1.834,0,0,0,.417.051,0.125,0.125,0,0,1,.13-0.051,0.528,0.528,0,0,1,.052.129h0.13v0.052h-0.13a1.379,1.379,0,0,0,.495.85,0.1,0.1,0,0,1,.078-0.052,0.593,0.593,0,0,0,.156.18c-0.04.064-.078,0.065-0.052,0.129A0.436,0.436,0,0,0,35,20.8a0.074,0.074,0,0,1,.026-0.026,0.988,0.988,0,0,1,1.25-1.031,3.418,3.418,0,0,0,.1,1.494V21.214a0.644,0.644,0,0,0,.078-0.335h0.833v0.335H36.953a0.824,0.824,0,0,0-.052.387,3.709,3.709,0,0,1,2.188.49,3.5,3.5,0,0,0-.286.515,1.006,1.006,0,0,1,.338.644l0.234-.077a1,1,0,0,1,.156.464H39.505c-0.038-.064-0.018-0.028-0.13-0.026v0.026a0.1,0.1,0,0,1,.052.1l-0.13.1a0.365,0.365,0,0,1,.026.1,0.332,0.332,0,0,0,.1-0.026,0.652,0.652,0,0,1,.026.412,1.481,1.481,0,0,1,.495.232,0.266,0.266,0,0,1,.052.155,1.719,1.719,0,0,0-.1.979,0.41,0.41,0,0,1-.13.026,2.991,2.991,0,0,1-.026-0.8,0.513,0.513,0,0,0-.26.1h0.026a0.213,0.213,0,0,1,.13.155,0.525,0.525,0,0,0-.208.1,0.116,0.116,0,0,0,.026.1c0.048,0.009.032-.019,0.052,0.052-0.067.088-.092,0.226-0.156,0.309a0.214,0.214,0,0,1,.078.155H39.4v0.026a0.623,0.623,0,0,1-.208-0.026v0.1c0.046,0.048.048,0.02,0.026,0.077a1.409,1.409,0,0,1-.234.284c-0.024.047,0.075,0.134,0,.18h-0.13c-0.045-.034-0.042-0.044-0.078-0.026a0.384,0.384,0,0,1,0,.1c-0.069.1-.187,0.139-0.26,0.232a0.4,0.4,0,0,0-.1-0.052v0.026a0.266,0.266,0,0,1,.052.155,0.278,0.278,0,0,1-.13.052,0.153,0.153,0,0,0-.156-0.077H38.151a0.345,0.345,0,0,0,.052.1,3.613,3.613,0,0,1-.365.129c-0.029-.074,0-0.047-0.078-0.077,0.046,0.124.04,0.208-.1,0.232a0.285,0.285,0,0,0-.13-0.129v0.052c-0.037.033,0,.03,0.026,0.077a1.007,1.007,0,0,1-.417.129c-0.018-.02-0.034-0.057-0.052-0.077-0.071.056-.319,0.124-0.364,0.18v0.129a2.374,2.374,0,0,1-.417.155,0.175,0.175,0,0,0-.052-0.1c-0.152.125-.343,0.09-0.339,0.309a2.928,2.928,0,0,0-.417.155,0.281,0.281,0,0,0-.052-0.129c-0.087.1-.254,0.126-0.339,0.232a0.326,0.326,0,0,1-.026.077,1.468,1.468,0,0,1-.391.18,0.281,0.281,0,0,0-.052-0.129,1.261,1.261,0,0,1-.365.206c0,0.1.043,0.061-.026,0.1a0.793,0.793,0,0,1-.365.155c-0.017-.022-0.035-0.081-0.052-0.1a2.5,2.5,0,0,1-.391.232l0.052,0.077c-0.172.038-.258,0.127-0.443,0.155-0.032-.08-0.01-0.058-0.1-0.077a1.007,1.007,0,0,0-.286.206c-0.04.044,0.031,0.033-.052,0.077a0.8,0.8,0,0,1-.365.155,0.175,0.175,0,0,0-.052-0.1,0.571,0.571,0,0,0-.312.232H31.9c0.026,0.026-.026.026-0.026,0.026a0.96,0.96,0,0,1-.417.1v-0.1l-0.417.077c-0.031.149-.218,0.114-0.391,0.1a0.4,0.4,0,0,1-.026-0.129l-0.391.026v0.1H29.844a0.4,0.4,0,0,1-.026-0.129l-0.391.026v0.1H29.037a0.4,0.4,0,0,1-.026-0.129l-0.391.026v0.1H28.229a0.4,0.4,0,0,1-.026-0.129l-0.391.026v0.1H27.422a0.4,0.4,0,0,1-.026-0.129l-0.391.026v0.1H26.615a0.4,0.4,0,0,1-.026-0.129l-0.391.026v0.1H25.807a0.4,0.4,0,0,1-.026-0.129l-0.391.026v0.1H25a0.4,0.4,0,0,1-.026-0.129l-0.391.026v0.1H24.193a0.4,0.4,0,0,1-.026-0.129l-0.391.026v0.1H23.385a0.4,0.4,0,0,1-.026-0.129l-0.391.026v0.1H22.578a0.4,0.4,0,0,1-.026-0.129l-0.391.026v0.1H21.771a0.4,0.4,0,0,1-.026-0.129l-0.391.026v0.1H20.964a0.4,0.4,0,0,1-.026-0.129l-0.391.026v0.1H20.156a0.4,0.4,0,0,1-.026-0.129l-0.391.026v0.1H19.349a0.4,0.4,0,0,1-.026-0.129,1,1,0,0,0-.391.051l0.026,0.077H18.568a0.4,0.4,0,0,1-.026-0.129,1.041,1.041,0,0,0-.391.051l0.026,0.077H17.787a0.36,0.36,0,0,1-.026-0.1,0.092,0.092,0,0,0,.026-0.052H17.76a0.951,0.951,0,0,1-.365.052v0.1H17.005V29.845a1,1,0,0,0-.391.051l0.026,0.077H16.25a0.4,0.4,0,0,1-.026-0.129,1.041,1.041,0,0,0-.391.051l0.026,0.077H15.469V29.82H15.443a0.951,0.951,0,0,1-.365.052v0.1H14.714a0.4,0.4,0,0,1-.026-0.129,1,1,0,0,0-.391.051l0.026,0.077H13.932a0.4,0.4,0,0,1-.026-0.129l-0.365.026v0.1H13.151V29.82H13.125a0.951,0.951,0,0,1-.365.052,0.324,0.324,0,0,0,.026.1H12.4a0.4,0.4,0,0,1-.026-0.129c-0.338,0-.421.1-0.781,0.1v-0.1a2.564,2.564,0,0,0-.364.026v0.077H10.833v-0.1l-0.391.026v0.077H10.052v-0.1a0.614,0.614,0,0,0-.365.051,0.979,0.979,0,0,1-.417.052L9.3,29.82H9.271a1.265,1.265,0,0,1-.365.052v0.077H8.516v-0.1c-0.344,0-.419.1-0.781,0.1v-0.1c-0.165-.011-0.255,0-0.443,0,0,0.082.031,0.062-.078,0.077a0.806,0.806,0,0,0-.339-0.1L6.9,29.691a2.1,2.1,0,0,0-.417-0.129,0.124,0.124,0,0,1-.026.077,1.247,1.247,0,0,0-.339-0.206L6.2,29.3a0.645,0.645,0,0,1-.312-0.155c-0.065.02-.085,0.081-0.1,0.052a0.413,0.413,0,0,1-.312-0.232,0.158,0.158,0,0,0,.052-0.052H5.495a0.6,0.6,0,0,0-.339-0.155,0.1,0.1,0,0,1-.078.051,1.1,1.1,0,0,1-.286-0.232,0.3,0.3,0,0,0,.052-0.077c-0.1-.031-0.188-0.134-0.286-0.155S4.506,28.427,4.4,28.4a2.073,2.073,0,0,1-.286-0.18l0.078-.129a1.45,1.45,0,0,1-.286-0.129,0.4,0.4,0,0,0-.156.051,0.524,0.524,0,0,1-.286-0.258,0.158,0.158,0,0,0,.052-0.052,2.013,2.013,0,0,0-.365-0.155C3.1,27.6,3.13,27.6,3.073,27.578a0.44,0.44,0,0,1-.286-0.206,0.231,0.231,0,0,0,.078-0.077A1.483,1.483,0,0,0,2.5,27.166a0.218,0.218,0,0,1-.078.052,1.265,1.265,0,0,1-.312-0.258,0.231,0.231,0,0,0,.078-0.077c-0.117-.031-0.206-0.126-0.312-0.155a0.4,0.4,0,0,1-.13.026,0.737,0.737,0,0,1-.286-0.309,0.1,0.1,0,0,0,.052-0.077,1.94,1.94,0,0,0-.234-0.258c-0.057-.026-0.053.028-0.1,0A1.055,1.055,0,0,1,.99,25.723a0.1,0.1,0,0,0,.1-0.077,2.3,2.3,0,0,1-.13-0.335c-0.082,0-.035.044-0.078-0.026A0.924,0.924,0,0,1,.859,24.9H0.885V24.872a0.372,0.372,0,0,0,.1.026,1.116,1.116,0,0,0,0-.386c-0.032-.064-0.046-0.04-0.078-0.1a2.368,2.368,0,0,0-.026-0.438,1.33,1.33,0,0,0,.469-0.284,2.316,2.316,0,0,0-.573.206c-0.65.18-.842-0.56-0.729-1.108a2.209,2.209,0,0,1,.807-0.052,3.4,3.4,0,0,1,.469.309,1.648,1.648,0,0,0,.521.026l0.026-.052a0.542,0.542,0,0,1-.208-0.1,1.827,1.827,0,0,0,.1-0.232,2.688,2.688,0,0,1-.391-0.335V22.3l0.234-.129a0.246,0.246,0,0,1-.1-0.18,0.274,0.274,0,0,1,.156-0.052,0.178,0.178,0,0,0,.156.077,0.753,0.753,0,0,0,.469-0.335,1.037,1.037,0,0,1-.365-0.283,0.147,0.147,0,0,1,.156-0.1,1.076,1.076,0,0,0,.495.258A0.468,0.468,0,0,0,2.6,21.394a0.093,0.093,0,0,1-.026-0.052C2.447,21.3,2.349,21.291,2.344,21.11a0.3,0.3,0,0,1,.182-0.051l-0.078-.438c0.24-.007.224-0.141,0.208-0.386a2.327,2.327,0,0,0,.7-0.1V19.307h0.7c0.072,0.025.12,0.1,0.208,0.129a1.235,1.235,0,0,1,.964-0.155h2.76V19.229a0.13,0.13,0,0,1-.026-0.077,1.192,1.192,0,0,1,.339-0.026V18.766H4.688V18.714a0.7,0.7,0,0,0-.078-0.438,1.59,1.59,0,0,1,.26-0.18,1.033,1.033,0,0,1,.286-0.515l0.026-.155c-0.059.01-.028,0.024-0.078,0a0.093,0.093,0,0,1-.026-0.052,6.4,6.4,0,0,0,.885-1.855c0.13-.3.056-0.6,0.521-0.593a5.5,5.5,0,0,1,1.094-.1C8.358,14.652,9.235,14.709,10,14.54a2.98,2.98,0,0,0,1.016-.155,2.647,2.647,0,0,0,.208-0.722,0.088,0.088,0,0,0,.078,0,2.322,2.322,0,0,0,.026-0.618h0.026V13.1a0.729,0.729,0,0,1,.026.464h0.026a2.422,2.422,0,0,1,.677.258,0.469,0.469,0,0,1,.521-0.258,0.29,0.29,0,0,1,.234,0,1.44,1.44,0,0,1,.469.515,0.91,0.91,0,0,0-.026.18h1.224a2.221,2.221,0,0,1,.078-0.515h0.078c0-1.105.026-2.306,0.026-3.453A5.507,5.507,0,0,1,14.714,9c0,1.575.022,3.208,0.026,4.741h0.052a0.846,0.846,0,0,1,1.094-.928,4.261,4.261,0,0,1,.807.49,1.508,1.508,0,0,1,.495.309c0.065,0.094.228,0.612,0.287,0.644h3.359a2.647,2.647,0,0,0,.287.567A4.1,4.1,0,0,1,21.615,16.344Zm17.865,7.318a0.093,0.093,0,0,1,.026.052H39.479V23.661Z" transform="translate(-0.031 0.516)"/>
</svg>
