<svg xmlns="http://www.w3.org/2000/svg" width="40" height="40" viewBox="0 0 40 40">
  <defs>
    <style>
      .cls-1 {
        fill: #fff;
        fill-rule: evenodd;
      }
    </style>
  </defs>
  <path id="sw_lvkv_90c_ico" class="cls-1" d="M7,19.171a0.488,0.488,0,0,1,.186,0,0.231,0.231,0,0,1,.07-0.113c0.124,0.022.239,0.062,0.349,0.091l0.116,0.159c0.083,0.221-.056.38,0.186,0.409a0.327,0.327,0,0,1,.232,0c0,0.086-.023.062,0.093,0.068,0.053-.06.079-0.04,0.163-0.023,0.01,0.081-.011.057,0.046,0.091,0.017-.146.086-0.146,0.256-0.136a0.085,0.085,0,0,0,.046.023v0.023a0.141,0.141,0,0,0-.046.045H9.25a2.024,2.024,0,0,0,.674.023l1.116,0.045,0.023-.068a0.7,0.7,0,0,1,.325.023V19.9a0.445,0.445,0,0,1,.209.159,0.361,0.361,0,0,1,.256,0c0.016,0.017.03,0.051,0.046,0.068a0.513,0.513,0,0,1,.465.045,4.358,4.358,0,0,1,.651-0.045,1.357,1.357,0,0,0,.535.045V20.079a0.336,0.336,0,0,0,.139-0.091V19.965H13.062a11.141,11.141,0,0,0-1.325-.045,2.538,2.538,0,0,1-.325-0.182L9.646,19.67A0.175,0.175,0,0,0,9.6,19.579a0.281,0.281,0,0,0,.023-0.159H9.576a0.817,0.817,0,0,1-.79.068,0.338,0.338,0,0,1-.163-0.045,1.071,1.071,0,0,1-.535-0.318,2.744,2.744,0,0,1,.07-1.5L8.135,17.4A0.646,0.646,0,0,1,8.6,16.946a1.04,1.04,0,0,1,.79.023H9.6c0.13,0.043.208,0.163,0.349,0.2l0.046-.363a2.942,2.942,0,0,0,.442-0.091,1.043,1.043,0,0,1,.07-0.136v0.023a0.312,0.312,0,0,0,.349.114V16.651c0.082-.016.058-0.028,0.139-0.045l-0.046-.636H10.784v0.045a0.374,0.374,0,0,1-.232-0.045V15.9H10.017l0.093-2.474c0.062-.278-0.032-0.636.023-0.885,0.086-.389-0.136-0.987.139-1.18a1.239,1.239,0,0,1,.465-0.068,9.236,9.236,0,0,1,1.767-.068V11.135l0.558,0.023v0.068a13.7,13.7,0,0,1,1.673.159,0.8,0.8,0,0,1,.628.182,1.577,1.577,0,0,1,.046.772c-0.054.242,0.037,0.592-.023,0.863a8.709,8.709,0,0,0-.046,1.5h0.209V14.608H15.6a0.121,0.121,0,0,1,.07-0.023l-0.023-.136a0.065,0.065,0,0,0,.023-0.023,0.08,0.08,0,0,1,.046.023,0.883,0.883,0,0,0,.372.045v0.114c0.467,0,.757-0.021,1.185-0.023V14.517a4.351,4.351,0,0,0,.581-0.023,0.327,0.327,0,0,0,.07.2,3.17,3.17,0,0,1,.418.023,1.605,1.605,0,0,1,.418.045H19.5l0.79,0.045a0.67,0.67,0,0,1,.07-0.25h0.046v0.045a0.325,0.325,0,0,1,.046.182,4.961,4.961,0,0,0,.535.045v0.114c-0.431,0-.823-0.022-1.3-0.023v0.023H19.71a3.477,3.477,0,0,0,.906.227v0.068a2.072,2.072,0,0,0-.535-0.091H20.058V15.2a1.581,1.581,0,0,1,.442.976,0.235,0.235,0,0,1,.139-0.023,1.767,1.767,0,0,0,.139.136,1.336,1.336,0,0,1,.581-0.114,0.631,0.631,0,0,1,.093.431,2.68,2.68,0,0,0-.721.159h0.023a0.89,0.89,0,0,0,.511.113,0.308,0.308,0,0,1,.139-0.023c0.216,0.045.487,0.087,0.7,0.136h0.256c0.444,0.157,1.035.176,1.511,0.3l0.4,0.045c0.1,0.032.191,0.151,0.279,0.182a0.617,0.617,0,0,0,.232.023c0.014,0,.012-0.053.047-0.045a2.453,2.453,0,0,0,.256.136,0.244,0.244,0,0,1,.093-0.113,0.282,0.282,0,0,1-.023.091,4,4,0,0,0,1.092.023c0.079,0.165.2,0.068,0.325,0.136a7.624,7.624,0,0,0,1.139.409,0.681,0.681,0,0,1,.535.25,0.081,0.081,0,0,0-.023.045h0.116c0.076-.092.074-0.049,0.163,0,0.1-.088.045-0.039,0.139,0h0.023V18.444a1.9,1.9,0,0,0,.232-0.023l0.046,0.068c0.07,0.021.045-.062,0.116-0.045,0.009,0,.05.058,0.07,0.068,0.027-.019.038-0.048,0.07-0.068l0.047,0.068c0.07,0.024.068-.036,0.093-0.045h0.023V18.49a0.2,0.2,0,0,0,.163,0,0.8,0.8,0,0,1,.07.068l0.047-.068a0.438,0.438,0,0,1,.116.068l0.023-.045c0.074-.014.065,0.038,0.093,0.045a0.81,0.81,0,0,0,.116-0.045,1.241,1.241,0,0,0,.093.091c0.019-.074-0.011-0.035.046-0.068,0.06,0.129.152,0.123,0.349,0.114a2.014,2.014,0,0,0,.651.023l0.837,0.045h0.628a5.576,5.576,0,0,0,1.023.045H34c0.189,0.04.479-.023,0.7,0.023a4.983,4.983,0,0,0,1.278.023,0.231,0.231,0,0,1,.232.091,2.249,2.249,0,0,0,.4.023,2.911,2.911,0,0,0,1.185-.091c0.216-.05.416-0.028,0.6-0.091v0.25a1.686,1.686,0,0,0-.023.636,6.521,6.521,0,0,1-1.185-.25l-0.349.023a1.859,1.859,0,0,0-.651-0.023l-0.023.068-0.93-.023a4.6,4.6,0,0,0-.814-0.023L33.4,19.375H32.818a4.755,4.755,0,0,0-.837-0.023l-1.139-.023-0.7-.023-0.023.068-0.116-.023c-0.019.011-.027,0.1-0.047,0.114L29.866,19.4l-0.046.068c-0.059.013-.047-0.041-0.07-0.045-0.13-.025-0.052.083-0.209,0l-0.047.068c-0.058.014-.049-0.043-0.07-0.045-0.071-.009-0.057.052-0.093,0.068a0.743,0.743,0,0,0-.116-0.068s-0.055.06-.07,0.068L29.1,19.443a0.719,0.719,0,0,1-.116.068l-0.07-.068a0.159,0.159,0,0,1-.093.068,0.1,0.1,0,0,0-.07-0.068,0.126,0.126,0,0,1-.093.068c-0.026-.065,0-0.042-0.07-0.068-0.037.051-.038,0.048-0.07,0.045a0.262,0.262,0,0,1-.046-0.068,0.418,0.418,0,0,1-.116.068c-0.04-.078-0.041-0.087-0.163-0.091,0.009,0.052.021,0.025,0,.068a4.228,4.228,0,0,1-1.3.023v0.091c-0.329.158-.607,0.362-0.953,0.522-0.052.024-.133,0.116-0.186,0.136l-0.86-.023a1.588,1.588,0,0,1-.139.114,0.114,0.114,0,0,1,.023.068h0.163V20.51h0.046c0.087-.136.143,0,0.186,0.023l0.14-.023V20.419l0.558,0.023c0.037-.019-0.013-0.071.07-0.068a0.79,0.79,0,0,1,.232.114,0.328,0.328,0,0,0,.163-0.045c0,0.072-.039.03,0.023,0.068a0.1,0.1,0,0,1,.07-0.068,0.789,0.789,0,0,0,.581.136,0.259,0.259,0,0,1,.209-0.068,4.581,4.581,0,0,0,.767-0.045,0.2,0.2,0,0,1,.14.045c0.265,0.073.581-.029,0.813,0.023a1.859,1.859,0,0,1,.511.068,0.113,0.113,0,0,0-.07.023,1.19,1.19,0,0,0,.116.182,1.335,1.335,0,0,0,.511.114V20.828a2.262,2.262,0,0,1,.7.159c0.016,0.018.03,0.051,0.047,0.068a0.976,0.976,0,0,1,.488.068l-0.047.068a0.184,0.184,0,0,1,.07.045,0.447,0.447,0,0,1,.465-0.045,0.193,0.193,0,0,0,.209.136,6.2,6.2,0,0,0,.953.227,0.316,0.316,0,0,0,.186-0.045c0.019-.074-0.011-0.035.047-0.068a0.8,0.8,0,0,0,.256.068V21.6a2.12,2.12,0,0,1,.372.136l0.535,0.091a4.975,4.975,0,0,0,.813.182,0.869,0.869,0,0,1,.047-0.454,0.962,0.962,0,0,1,.488-0.045,0.708,0.708,0,0,1,.07.409h0.023V21.94h0.07V21.554a0.766,0.766,0,0,1,.349-0.045l0.023,0.068a1.211,1.211,0,0,1,.023.477H36.3a0.141,0.141,0,0,0,.07.159,0.246,0.246,0,0,0,.139.045c0.029-.074.02-0.06,0.116-0.068,0.129,0.085.373,0.116,0.488,0.2a0.139,0.139,0,0,0-.047.045,0.745,0.745,0,0,0,.488.023,0.291,0.291,0,0,0,.256.25,0.4,0.4,0,0,1,.232,0,0.907,0.907,0,0,0,.07.068,0.559,0.559,0,0,1,.209.023,0.055,0.055,0,0,0,.023.068l0.232,0.068a0.51,0.51,0,0,0,.023.091,3.353,3.353,0,0,0,.721.2c-0.009.066-.038,0.028,0.023,0.068a0.672,0.672,0,0,0,.442.091c0.053,0.105.144,0.1,0.186,0.2H40V23.62H39.977a4.5,4.5,0,0,1-.372.318,0.553,0.553,0,0,0-.209.045l-0.186.136a0.32,0.32,0,0,1-.07.114,0.349,0.349,0,0,0-.372.25h0.046v0.068a1.469,1.469,0,0,1-.046.386,1.21,1.21,0,0,0-.047-0.545,2.683,2.683,0,0,1-.721.431c0,0.066.022,0.032,0,.068-0.017.02-.029,0.026-0.046,0.045a0.316,0.316,0,0,1-.093-0.045c-0.047.166-.115,0.053-0.163,0.068a2.171,2.171,0,0,0-.186.114,0.075,0.075,0,0,1,0,.068,0.263,0.263,0,0,0-.163.045H37.327v0.023H37.42a1.727,1.727,0,0,0,.047.341l-0.047.431-0.139-.023a0.539,0.539,0,0,0,0,.136,0.2,0.2,0,0,1,.093.068,2.583,2.583,0,0,0-.139.34c-0.059.1-.172,0.182-0.233,0.3-0.08-.027-0.083-0.063-0.163-0.091,0,0.089.052,0.059-.046,0.091-0.015.006-.011-0.007-0.023,0.023a0.172,0.172,0,0,1,.093.114H36.839a1.971,1.971,0,0,1-.627.363V27.252a0.152,0.152,0,0,1-.047-0.113H36.1v0.023c0.02,0.043.011,0.017,0,.068-0.053-.009-0.025-0.021-0.07,0a0.151,0.151,0,0,1,.046.114l-0.628.25a0.207,0.207,0,0,0-.093-0.159c-0.01.081,0.011,0.057-.046,0.091-0.015.006-.011-0.007-0.023,0.023a0.193,0.193,0,0,1,.023.113,2.39,2.39,0,0,1-.628.2,0.327,0.327,0,0,0-.093-0.136c-0.01.081,0.011,0.057-.046,0.091a0.066,0.066,0,0,0-.023-0.023V27.82a0.242,0.242,0,0,1,.023.136c-0.227.048-.391,0.188-0.628,0.227l-0.047-.114H33.818c0,0.082-.022.012-0.07,0.045,0.01,0.021.023,0.084,0.047,0.136a3.078,3.078,0,0,0-.651.25L33.1,28.364H33.051c-0.011.093-.044,0-0.07,0.114a0.114,0.114,0,0,1,.023.068l-0.628.25a0.432,0.432,0,0,0-.07-0.182v0.023a0.23,0.23,0,0,0-.093.136,0.15,0.15,0,0,1,.023.091,5.493,5.493,0,0,1-.72.113,0.449,0.449,0,0,0-.023-0.159H31.447c0,0.22-.449.168-0.744,0.159V28.8H30.657v0.068a0.3,0.3,0,0,1-.093-0.023v0.136H29.89V28.8H29.843v0.068a0.3,0.3,0,0,1-.093-0.023v0.136H29.076V28.8H29.03v0.068a0.3,0.3,0,0,1-.093-0.023v0.136H28.263V28.8H28.216c-0.019.074,0.011,0.035-.047,0.068-0.019-.074.011-0.035-0.046-0.068v0.182H27.449V28.8H27.4c-0.019.074,0.011,0.035-.046,0.068-0.019-.074.011-0.035-0.047-0.068v0.182H26.636V28.8H26.589c-0.019.074,0.011,0.035-.047,0.068-0.019-.074.011-0.035-0.046-0.068v0.182H25.822V28.8H25.776c-0.019.074,0.011,0.035-.047,0.068V28.841H25.706v0.023a0.193,0.193,0,0,0-.023.113H25.032V28.8H24.986v0.068a0.3,0.3,0,0,1-.093-0.023v0.136H24.219V28.8H24.172v0.068a0.3,0.3,0,0,1-.093-0.023v0.136H23.405V28.8H23.359v0.068a0.3,0.3,0,0,1-.093-0.023v0.136H22.592V28.8H22.545c-0.019.074,0.011,0.035-.047,0.068-0.019-.074.011-0.035-0.046-0.068v0.182H21.778V28.8H21.732c-0.019.074,0.011,0.035-.047,0.068-0.019-.074.011-0.035-0.046-0.068v0.182H20.965V28.8H20.918c-0.019.074,0.011,0.035-.046,0.068V28.841H20.848v0.023a0.194,0.194,0,0,0-.023.113H20.151V28.8H20.128c-0.043.069-.019,0.056-0.093,0.045v0.136H19.361V28.8H19.314v0.068a0.3,0.3,0,0,1-.093-0.023v0.136H18.547V28.8H18.5v0.068a0.3,0.3,0,0,1-.093-0.023v0.136H17.734V28.8H17.687c-0.019.074,0.011,0.035-.047,0.068-0.019-.074.011-0.035-0.046-0.068v0.182H16.92V28.8H16.874c-0.019.074,0.011,0.035-.046,0.068-0.019-.074.011-0.035-0.047-0.068v0.182H16.107V28.8H16.06c-0.019.074,0.011,0.035-.047,0.068-0.019-.074.011-0.035-0.046-0.068v0.182H15.293V28.8H15.247a0.29,0.29,0,0,0-.07.182H14.5V28.8H14.457v0.068a0.3,0.3,0,0,1-.093-0.023v0.136H13.69V28.8H13.643v0.068a0.3,0.3,0,0,1-.093-0.023v0.136H12.876V28.8H12.83v0.068a0.3,0.3,0,0,1-.093-0.023v0.136H12.063V28.8H12.016v0.068a0.3,0.3,0,0,1-.093-0.023v0.136H11.249V28.8H11.2c-0.019.074,0.011,0.035-.046,0.068-0.019-.074.011-0.035-0.046-0.068v0.182H10.436V28.8H10.389c-0.019.074,0.011,0.035-.046,0.068-0.019-.074.011-0.035-0.046-0.068v0.182H9.622a0.222,0.222,0,0,0-.046-0.136c-0.057,0-.02-0.012-0.093-0.045v0.182a4.232,4.232,0,0,1-.7-0.136,0.394,0.394,0,0,0,0-.159l-0.07.023a0.144,0.144,0,0,0-.023-0.091v0.023a1.006,1.006,0,0,0-.046.159A3.276,3.276,0,0,0,8,28.614V28.455a0.532,0.532,0,0,1-.093,0,0.641,0.641,0,0,0-.046.113l-0.651-.182,0.023-.182H7.205a0.206,0.206,0,0,1-.093.045,0.439,0.439,0,0,0-.046.091L6.415,28.16V28.069A0.114,0.114,0,0,0,6.438,28H6.415a0.469,0.469,0,0,1-.093.023,0.44,0.44,0,0,0-.046.091l-0.651-.182a0.2,0.2,0,0,0,0-.159,0.47,0.47,0,0,1-.093.023c-0.051.058-.016,0.07-0.116,0.091a5.166,5.166,0,0,0-.628-0.272,0.442,0.442,0,0,0,.07-0.159,0.426,0.426,0,0,1-.116-0.023,0.2,0.2,0,0,0-.07.068,1.3,1.3,0,0,1-.511-0.613A0.711,0.711,0,0,0,4.3,26.821c-0.03-.035-0.061-0.078-0.093-0.113a0.68,0.68,0,0,1-.116.045A1.229,1.229,0,0,0,4,26.367C3.818,26.25,3.6,26.273,3.579,26c-0.367-.5.473-0.789,0.558-1H4.114a3.54,3.54,0,0,1-.79-0.113,1,1,0,0,1-.046.25H3.254V25.05A0.329,0.329,0,0,0,3.3,24.891H3.254A2.083,2.083,0,0,0,2.719,24.8a13.844,13.844,0,0,1-1.464-.272L1,23.62a0.811,0.811,0,0,1-.3-0.658c-0.161-.48-0.274-0.994-0.442-1.5A1.627,1.627,0,0,1,.07,20.805,0.114,0.114,0,0,1,0,20.783a2.335,2.335,0,0,0,.813-0.3c0.028,0.056.041,0.035,0.07,0.091a0.088,0.088,0,0,0-.07.045H0.906a1.708,1.708,0,0,1,.418-0.113,5.32,5.32,0,0,1,.883-0.25L2.185,20.1a0.081,0.081,0,0,0,.046-0.023,0.08,0.08,0,0,1,.046.023,0.245,0.245,0,0,0,.093.113V20.192a0.082,0.082,0,0,0,.023-0.045,0.151,0.151,0,0,1-.023-0.091,0.246,0.246,0,0,0,.163-0.045H2.557V19.943a0.37,0.37,0,0,1-.186-0.023H2.533v-0.2H2.719V19.557a0.216,0.216,0,0,0,.07-0.091l0.139,0.045a0.2,0.2,0,0,0,.093.2,1.185,1.185,0,0,0,.279.045,3.219,3.219,0,0,1,.023-0.953,5.635,5.635,0,0,0-.046-1.271H3.533a5.733,5.733,0,0,0-.046,1.271,3.358,3.358,0,0,1,.046.84H3.579L3.7,19.489a1.387,1.387,0,0,1,.07-0.59V10.7A1.944,1.944,0,0,1,3.788,10v8.9a0.68,0.68,0,0,1,.093.045c0.047,0.1-.007.235,0.046,0.318A0.09,0.09,0,0,1,4,19.216a0.422,0.422,0,0,0,.465.182,0.372,0.372,0,0,1,.209-0.159,0.381,0.381,0,0,0,.418.182v0.023c0.023,0.022.023-.022,0.023-0.023a0.453,0.453,0,0,1,.256-0.159c0.063,0.171.139,0.036,0.279,0.113a0.442,0.442,0,0,1,.046.091,0.748,0.748,0,0,0,.209-0.2H5.927v0.023a0.552,0.552,0,0,0,.465.182,0.623,0.623,0,0,1,.581-0.386V19.1H7v0.068Z" transform="translate(0 0.516)"/>
</svg>
