<svg xmlns="http://www.w3.org/2000/svg" width="40" height="40" viewBox="0 0 40 40">
  <defs>
    <style>
      .cls-1 {
        fill: #fff;
        fill-rule: evenodd;
      }
    </style>
  </defs>
  <path id="Color_Fill_1" data-name="Color Fill 1" class="cls-1" d="M7.1,13a0.374,0.374,0,0,1,0,.37V13Zm-0.191.092a0.535,0.535,0,0,1,0,.462V13.092Zm0.238,0.323a0.535,0.535,0,0,1,0,.462V13.416ZM6.961,13.6a0.534,0.534,0,0,1,0,.462V13.6ZM7.2,13.924a0.534,0.534,0,0,1,0,.462V13.924Zm-0.191.185a0.535,0.535,0,0,1,0,.462V14.109Zm0.238,0.323a0.535,0.535,0,0,1,0,.462V14.432Zm-0.191.185a0.534,0.534,0,0,1,0,.462V14.617Zm0.238,0.323a0.534,0.534,0,0,1,0,.462V14.941ZM7.1,15.172a0.452,0.452,0,0,1,0,.416V15.172Zm0.238,0.277a0.622,0.622,0,0,1,0,.508V15.449Zm-0.191.231a0.452,0.452,0,0,1,0,.416V15.68ZM7.39,16a0.534,0.534,0,0,1,0,.462V16ZM7.2,16.188a0.534,0.534,0,0,1,0,.462V16.188Zm0.238,0.323a0.534,0.534,0,0,1,0,.462V16.512ZM13.016,16.6v0.462a0.753,0.753,0,0,0,.477-0.139V16.835c0.153-.07.537,0.154,0.81,0.092a14.764,14.764,0,0,1,2.289.092l0.048-.185a2.66,2.66,0,0,0,.429.231,3.1,3.1,0,0,0-.906.046v0.046a0.235,0.235,0,0,1,.143.046,8.394,8.394,0,0,1-1.287.092v0.092c0,0.039-.023.04-0.048,0.185l-0.763-.046,0.048,0.323h0.334a0.219,0.219,0,0,1,.048-0.139v0.046a0.534,0.534,0,0,1,.1.139,4.832,4.832,0,0,1,.715,0V17.99H15.3a0.572,0.572,0,0,0,.048.185h0.1a0.548,0.548,0,0,1,.429-0.6,0.33,0.33,0,0,0,.191.046v0.092a0.39,0.39,0,0,0-.048.231c2.105-.007,3.47.18,5.34,0.185l0.048,0.277H21.55v0.416h0.1a2.875,2.875,0,0,1,.62.046,4.512,4.512,0,0,1,2.479.739h0.811l0.524,0.046c0.086-.022.191-0.181,0.334-0.231h1.764l0.191,0.231a7.065,7.065,0,0,0,1.812.092c3.327,0,6.661.049,9.821,0.046v0.6c-1.522,0-3,.046-4.672.046H34.374a2.95,2.95,0,0,1-.334.093c-1.065-.1-2.456-0.092-3.671-0.093a5.593,5.593,0,0,0-1.573.046l-0.048.093H26.222a8.152,8.152,0,0,0-2.05.139H23.266a8.537,8.537,0,0,0-.858.462v0.046H22.98a0.22,0.22,0,0,0,.048.139,6.72,6.72,0,0,0,.62.416,0.942,0.942,0,0,1,.381-0.046l0.048,0.092,0.286-.046a5.043,5.043,0,0,0,1.192.231,0.571,0.571,0,0,1,.048-0.185,0.369,0.369,0,0,1,.143.139c0.052,0.026.251-.026,0.334,0,0.018,0.121-.036.061,0.1,0.092a1.542,1.542,0,0,0,.668-0.046V21.964a0.288,0.288,0,0,1-.1-0.092H27.08a0.409,0.409,0,0,0,.143.231c-0.155.038-.073-0.023-0.143,0.092,0.6,0.027.429,0.564,0.906,0.647a2.358,2.358,0,0,0,0,.37,2.713,2.713,0,0,0-.524.231,4.908,4.908,0,0,1,0,.739,1.977,1.977,0,0,1-.715.785,11.613,11.613,0,0,1-2.288,1.894,5.586,5.586,0,0,1-1.716.092H5.054a3.649,3.649,0,0,1-1.287-.97,10.657,10.657,0,0,1-1.1-.924,1.913,1.913,0,0,0-.763-0.739,0.97,0.97,0,0,1-.286.462,0.165,0.165,0,0,1-.1-0.046,0.59,0.59,0,0,1-.334-0.462H1.144a1.337,1.337,0,0,1-.048.6,4.856,4.856,0,0,0-.191-2.033l-0.381-.323a1.7,1.7,0,0,1-.477-1.525c0.129-.1.243-0.252,0.381-0.37a0.184,0.184,0,0,1-.1-0.185h0.1a4.231,4.231,0,0,0,1.716.185,14.206,14.206,0,0,1,3.147.092c0.085,0.021.27-.077,0.334-0.046a0.6,0.6,0,0,0,.238.185,2.533,2.533,0,0,1,.858,0,5.024,5.024,0,0,0,1,.046c0.07-.017.162-0.143,0.286-0.185a5.289,5.289,0,0,1,1.907.139,0.637,0.637,0,0,1,.048.185,0.978,0.978,0,0,0,.524.092,0.236,0.236,0,0,1-.143-0.046h0.191v0.139a9.319,9.319,0,0,1,1.1.046V21.178H11.347a3.166,3.166,0,0,0-.715-0.231,6.852,6.852,0,0,0-2.574-.416,7.26,7.26,0,0,1-2.384-.139H5.244c-0.285-.005-1.706.052-1.716,0.046A0.911,0.911,0,0,0,4,20.347a0.727,0.727,0,0,0-.191-0.092,2.2,2.2,0,0,1-.334.092c0.012,0.124.09,0.123-.048,0.185V20.439c-0.089-.126,0-0.365-0.1-0.508-0.021-.032-0.163-0.052-0.191-0.092a1,1,0,0,1,.143-0.97,5.69,5.69,0,0,1,.62.277V18.914a0.312,0.312,0,0,1,0-.231A13.023,13.023,0,0,0,5.53,18.5a0.219,0.219,0,0,1,.048-0.139,0.572,0.572,0,0,0,.048.185A4.881,4.881,0,0,1,7.1,18.36a1.061,1.061,0,0,1,.048-0.37H7.294A1.878,1.878,0,0,1,7.342,17.2a1.421,1.421,0,0,0,.143.786V17.944a2.225,2.225,0,0,1,.048-0.924,4.956,4.956,0,0,0,.143,1.2,1.056,1.056,0,0,0,.334.046,1.881,1.881,0,0,0,1.1-.046,4,4,0,0,1,1.049.046,0.459,0.459,0,0,1,.286-0.37,0.248,0.248,0,0,1,.143-0.046,1.146,1.146,0,0,0,1.1.092c0-.373,0-0.47,0-0.832a0.767,0.767,0,0,1,.238-0.046V16.743h0.1A1.776,1.776,0,0,1,13.016,16.6ZM7.247,16.7a0.534,0.534,0,0,1,0,.462V16.7Zm8.582,0.37c-0.067.041-.267,0.05-0.334,0.092h0.381A0.157,0.157,0,0,0,15.828,17.066Zm-2.527.508V17.9h0.1V17.574H13.3Zm0.286,0.231h0.286V17.667a0.287,0.287,0,0,1-.1-0.092,0.165,0.165,0,0,0-.1.046C13.563,17.688,13.609,17.641,13.588,17.805Zm0.334-.231v0.185h0.1V17.713C13.984,17.677,13.954,17.61,13.921,17.574Zm-3.528.416c-0.015.131-.05,0.1,0,0.185a0.33,0.33,0,0,0,.191.046,0.366,0.366,0,0,1,.1-0.139H10.632C10.562,17.966,10.572,18,10.393,17.99Zm3.957,0a0.22,0.22,0,0,0,.048.139A0.219,0.219,0,0,0,14.35,17.99Zm1.669,0.046v0.277h0.1V18.036h-0.1Zm-12.4.693c0.16,0.026.165-.032,0.238,0.092-0.19.017-.1,0.124-0.191,0A0.165,0.165,0,0,1,3.623,18.729ZM0,18.776a0.165,0.165,0,0,1,.048.092H0V18.776Zm0.191,0.878a0.164,0.164,0,0,1,.048.092H0.191V19.654Zm0.048,0.185a0.165,0.165,0,0,1,.048.092H0.238V19.838Zm3.671,0c-0.068.178-.058,0.086,0.048,0.277H4V19.838h-0.1Zm-3.623.185a0.231,0.231,0,0,1,.048.139H0.286V20.023Zm3.242,0,0.048,0.139H3.766V20.116A0.514,0.514,0,0,0,3.528,20.023Zm-3.194.231a0.165,0.165,0,0,1,.048.092H0.334V20.254Zm0.048,0.6a0.642,0.642,0,0,0-.191.323c-0.432.642,0.735,1.364,0.858,1.756A0.165,0.165,0,0,0,1.1,22.842,0.231,0.231,0,0,0,1.144,22.7a3.587,3.587,0,0,1-.286-0.231C0.61,22.148.793,21.239,0.524,20.9V20.855H0.381ZM21.6,21.132a2.983,2.983,0,0,1-1.1.046v0.092h0.238a2.483,2.483,0,0,1,1,0,0.287,0.287,0,0,1,.1-0.092V21.132H21.6Zm5.149,0.97-0.048.139h0.1V22.149l0.048-.046h-0.1ZM1.812,23.581a0.557,0.557,0,0,0,.143.092A0.184,0.184,0,0,0,1.812,23.581Zm-0.143.046c0.01,0.065-.039-0.019-0.048.046-0.092.036,0.1,0.046,0.1,0.046A0.157,0.157,0,0,0,1.669,23.627Zm-0.143.046c0.01,0.065-.039-0.019-0.048.046-0.092.036,0.1,0.046,0.1,0.046A0.157,0.157,0,0,0,1.526,23.673ZM1.192,23.9L1.24,24.135H1.287V23.9h-0.1Zm23.886,1.2V25.29h0.1a0.453,0.453,0,0,1,.191-0.139V25.106H25.078Zm-20.93.046H3.957V25.2H4a0.552,0.552,0,0,0,.143.092V25.152Zm3.1,0.878a3.265,3.265,0,0,1-.286.37H7.58V26.353A2.3,2.3,0,0,0,7.247,26.03Zm3,0a1.313,1.313,0,0,1-.238.37h0.572V26.353C10.443,26.262,10.38,26.127,10.25,26.03Zm3.051,0a3.262,3.262,0,0,1-.286.37h0.572V26.307A2.087,2.087,0,0,1,13.3,26.03Zm8.629,0.046-0.238.323h0.572V26.353A2.593,2.593,0,0,0,21.931,26.076Zm-3,.092-0.191.231h0.429V26.307C19.039,26.254,19.065,26.218,18.927,26.168Zm-2.765.092c-0.063.213-.048,0.134,0.191,0.139V26.353A0.727,0.727,0,0,0,16.162,26.261Z" transform="translate(0 -0.016)"/>
</svg>
