<?xml version="1.0" encoding="utf-8"?>
<!-- Generator: Adobe Illustrator 16.0.0, SVG Export Plug-In . SVG Version: 6.00 Build 0)  -->
<!DOCTYPE svg PUBLIC "-//W3C//DTD SVG 1.1//EN" "http://www.w3.org/Graphics/SVG/1.1/DTD/svg11.dtd">
<svg version="1.1" id="Layer_1" xmlns="http://www.w3.org/2000/svg" xmlns:xlink="http://www.w3.org/1999/xlink" x="0px" y="0px"
	 width="39.969px" height="40px" viewBox="0 0 39.969 40" enable-background="new 0 0 39.969 40" xml:space="preserve">
<path id="sw_lago_1_ico" fill="#FFFFFF" d="M29.816,13.191c-0.102-0.38-0.338-0.712-0.664-0.934
	c0.014-0.012,0.021-0.028,0.023-0.046h0.047c0.068,0.077,0.145,0.146,0.229,0.205c0.136,0.143,0.251,0.304,0.343,0.479
	c0.04,0.149,0.094,0.293,0.16,0.433h0.731c0.588,0.118,1.188,0.156,1.785,0.114l3.229,0.022c0.362-0.069,0.731-0.1,1.1-0.091v0.547
	c-0.345,0.012-0.689-0.011-1.03-0.068H34.9c-0.668,0-1.383,0.018-2.015,0.023c-0.78-0.034-1.562,0.004-2.334,0.114
	c-0.194,0.042-0.45-0.009-0.618,0.022c-0.054,0.426-0.276,0.812-0.617,1.071V15.06c-0.01-0.005-0.018-0.014-0.023-0.023
	c0.295-0.221,0.492-0.548,0.549-0.912c-0.029-0.011-0.062-0.011-0.091,0c-0.101,0.134-0.112,0.323-0.206,0.456
	c-0.292,0.376-0.69,0.655-1.145,0.8c-0.08,0.025-0.193,0-0.252,0.023l-0.022,0.068c0.017,0.018,0.03,0.051,0.046,0.068
	c0.211-0.046,0.428-0.054,0.641-0.023L30,15.493c0.102-0.042,0.21-0.065,0.32-0.068v0.091c0.24,0.104,0.463,0.242,0.664,0.41
	c0.068,0.042,0.142,0,0.229,0.046v0.046H31.4v0.046c0.261,0.114,1.235-0.137,1.35,0.068c0.016,0.035,0,0,0,0.068
	c-0.117,0.016-0.084,0.052-0.206,0.068c-0.053-0.071-0.146-0.099-0.229-0.068v0.684l1.58-0.091c0.068,0.014,0.223,0,0.319,0.023
	c0.241,0.092,0.502,0.115,0.755,0.068c0.135-0.046,0.301,0.023,0.412-0.023c0.048-0.036,0.094-0.073,0.137-0.114
	c0.101,0.083,0.301,0.088,0.436,0.182c-0.039-0.004-0.08,0.004-0.114,0.023h0.022v0.023C35.941,17,36.1,16.965,36.2,17
	c0.124,0.045,0.257,0.068,0.389,0.068v0.112c0.134,0.007,0.267-0.016,0.39-0.068c0.207,0,0.414,0.023,0.617,0.068l0.346,0.02
	c0.424,0.115,0.826,0.299,1.189,0.547c0.156,0.049,0.297,0.136,0.412,0.251c0.017,0.036,0.024,0.075,0.023,0.114
	c-0.105,0.158-0.236,0.297-0.39,0.409c0.002,0.086-0.014,0.172-0.046,0.252c0.115,0.018,0.118,0.052,0.114,0.182
	c-0.045,0.057-0.03,0.037-0.022,0.113h0.068c0.079-0.058,0.182-0.074,0.275-0.045c0.024,0.033,0.041,0.072,0.045,0.113
	c-0.029,0.064-0.076,0.12-0.137,0.159c0.07,0.033,0.115,0.104,0.114,0.183c-0.055,0.023-0.09,0.077-0.091,0.137
	c0.037,0.014,0.075,0.021,0.113,0.022c0.076-0.028,0.161-0.021,0.229,0.023c0.015,0.036,0.022,0.075,0.023,0.114
	c-0.019,0.02-0.034,0.043-0.046,0.067c0.086,0.005,0.155,0.073,0.16,0.16c-0.047,0.101-0.078,0.209-0.093,0.319l0.069,0.046
	c0.031,0.1-0.053,0.1-0.069,0.137c-0.031,0.212-0.039,0.425-0.022,0.638c-0.071,0.036-0.15,0.053-0.229,0.047
	c0.009,0.145-0.1,0.162-0.229,0.228v0.046c0.123,0.051,0.204,0.168,0.207,0.3h-0.023v0.023c-0.02,0-0.229,0-0.229,0
	c-0.022,0.018-0.023,0.1-0.047,0.114c-0.074,0.015-0.151,0.022-0.229,0.022l-0.023,0.068c0.094,0.069,0.138,0.187,0.114,0.3
	c-0.049,0.046-0.118,0.063-0.183,0.046c-0.027-0.026-0.059-0.05-0.092-0.067c-0.017,0.107-0.037,0.112-0.159,0.113
	c-0.035-0.019-0.075-0.026-0.114-0.023c-0.012,0.029-0.02,0.061-0.023,0.092c0.06,0.078,0.076,0.18,0.047,0.273
	c-0.045,0.015-0.091,0.022-0.137,0.022c-0.044-0.034-0.09-0.063-0.138-0.091c-0.028,0.076-0.045,0.078-0.137,0.091
	c-0.03-0.03-0.069-0.075-0.091-0.046c-0.075,0.091-0.137,0.191-0.184,0.3c-0.098,0.029-0.199,0.037-0.3,0.022
	c-0.056,0.035-0.109,0.073-0.16,0.115c0.006,0.117,0.017,0.17-0.069,0.204c-0.075,0.015-0.152,0.015-0.229,0
	c-0.039,0.046-0.085,0.085-0.137,0.114c0.024,0.071,0.007,0.15-0.047,0.205c-0.137-0.031-0.279,0.002-0.389,0.091
	c0.017,0.052,0.024,0.105,0.023,0.159c-0.033,0.025-0.072,0.041-0.114,0.046c-0.036-0.035-0.087-0.052-0.137-0.046
	c-0.05,0.059-0.112,0.105-0.183,0.137c0.023,0.061,0.016,0.129-0.023,0.182c-0.027,0.018-0.061,0.025-0.092,0.023
	c-0.03-0.029-0.069-0.075-0.092-0.046l-0.229,0.16c-0.034,0.073,0.113,0.104-0.046,0.182c-0.056-0.004-0.11-0.02-0.16-0.046
	c-0.072,0.049-0.142,0.102-0.206,0.16v0.16c-0.029,0.031-0.07,0.049-0.113,0.046c-0.031-0.03-0.07-0.075-0.093-0.046
	c-0.08,0.039-0.157,0.084-0.229,0.137c0.016,0.06,0.016,0.122,0,0.182c-0.036,0.014-0.074,0.021-0.113,0.023
	c-0.03-0.03-0.071-0.047-0.114-0.046c-0.05,0.059-0.112,0.105-0.183,0.137c0.008,0.062,0,0.124-0.023,0.183
	c-0.035,0.019-0.074,0.026-0.113,0.022c-0.025-0.024-0.057-0.04-0.092-0.046c-0.047,0.061-0.167,0.08-0.205,0.137
	c-0.068,0.1,0.051,0.127-0.07,0.182v0.023c-0.134-0.078-0.3-0.078-0.435,0v0.092c-0.026,0.026-0.058,0.049-0.092,0.067
	c-0.021,0.015-0.044,0.022-0.069,0.022c-0.031-0.049-0.063-0.082-0.091-0.137c-0.112,0.027-0.228,0.043-0.343,0.047
	c0.001,0.075-0.06,0.137-0.135,0.139c-0.009,0-0.018-0.001-0.025-0.002c-0.066-0.151-0.164-0.147-0.389-0.137
	c-0.026,0.113-0.061,0.139-0.206,0.137c-0.02-0.045-0.035-0.09-0.046-0.137H31.9c-0.002,0.079-0.066,0.143-0.146,0.142
	c-0.012,0-0.025-0.002-0.037-0.005c-0.062-0.142-0.131-0.147-0.343-0.137c-0.02,0.084-0.097,0.142-0.183,0.137
	c-0.073-0.137-0.145-0.147-0.366-0.137c-0.02,0.084-0.097,0.142-0.183,0.137c-0.045-0.154-0.164-0.148-0.367-0.137
	c-0.009,0.08-0.078,0.14-0.159,0.137c-0.036-0.038-0.06-0.086-0.069-0.137h-0.3c-0.02,0.084-0.097,0.142-0.183,0.137
	c-0.036-0.038-0.061-0.086-0.069-0.137H29.2c-0.005,0.082-0.077,0.145-0.159,0.14c-0.008,0-0.016-0.001-0.023-0.003
	c-0.07-0.131-0.129-0.146-0.344-0.137c-0.018,0.093-0.106,0.154-0.2,0.138c-0.002-0.001-0.004-0.001-0.006-0.001
	c-0.069-0.131-0.129-0.146-0.343-0.137c-0.025,0.113-0.061,0.139-0.206,0.137c-0.056-0.131-0.101-0.146-0.3-0.137
	c-0.029,0.105-0.141,0.168-0.246,0.139c-0.002-0.001-0.004-0.002-0.006-0.002c-0.036-0.131-0.1-0.146-0.275-0.137
	c0.001,0.074-0.06,0.136-0.135,0.137h-0.002c-0.037-0.014-0.077-0.014-0.114,0c-0.036-0.038-0.06-0.086-0.069-0.137H26.59
	c-0.01,0.08-0.079,0.14-0.16,0.137c-0.048-0.061-0.027-0.016-0.137,0c-0.021-0.094-0.111-0.154-0.206-0.137
	c-0.013,0.078-0.081,0.135-0.16,0.137c-0.01-0.033-0.036-0.059-0.069-0.068c-0.035,0.063-0.021,0.057-0.113,0.068
	c-0.018-0.086-0.096-0.145-0.184-0.137c0.002,0.074-0.059,0.135-0.133,0.137c-0.001,0-0.002,0-0.004,0
	c-0.018-0.041-0.05-0.074-0.091-0.092c-0.026,0.082-0.035,0.084-0.138,0.092c-0.004-0.074-0.063-0.133-0.137-0.137
	c-0.004,0.079-0.072,0.141-0.151,0.137c-0.003,0-0.005,0-0.009,0c-0.012-0.051-0.035-0.098-0.068-0.137v0.022
	c-0.037,0.067-0.106,0.111-0.184,0.114c-0.007-0.058-0.041-0.108-0.09-0.137c-0.014,0.078-0.081,0.135-0.16,0.137l-0.069-0.137
	c-0.018,0.002-0.034,0.01-0.046,0.022c-0.034,0.06-0.093,0.101-0.16,0.114l-0.069-0.114c-0.034,0.06-0.093,0.101-0.159,0.114
	c-0.018-0.076-0.083-0.132-0.16-0.137c-0.01,0.08-0.08,0.14-0.16,0.137c-0.08-0.096-0.063-0.021-0.206,0
	c-0.02-0.045-0.035-0.09-0.046-0.137h-0.139c-0.005,0.079-0.072,0.141-0.152,0.137c-0.003,0-0.006,0-0.008,0
	c-0.02-0.032-0.049-0.101-0.069-0.068c-0.03,0.046-0.083,0.072-0.138,0.068c-0.035-0.038-0.06-0.086-0.068-0.137h-0.114
	c0.001,0.075-0.06,0.137-0.135,0.139c-0.009,0-0.017-0.001-0.024-0.002c-0.018-0.042-0.041-0.08-0.07-0.114v0.022
	c-0.043,0.058-0.11,0.091-0.183,0.092c-0.005-0.074-0.063-0.133-0.137-0.137c0.001,0.075-0.06,0.137-0.136,0.139
	c-0.008,0-0.016-0.001-0.024-0.002c-0.018-0.049-0.041-0.094-0.069-0.137h-0.022v0.022c-0.036,0.067-0.106,0.111-0.183,0.114
	c-0.018-0.037-0.073-0.153-0.092-0.114c-0.036,0.067-0.105,0.111-0.183,0.114c-0.018-0.049-0.041-0.094-0.069-0.137
	c-0.018,0.002-0.033,0.01-0.046,0.022c-0.036,0.067-0.106,0.111-0.183,0.114l-0.069-0.114c-0.036,0.067-0.106,0.111-0.183,0.114
	c-0.02-0.045-0.035-0.09-0.047-0.137h-0.113c-0.01,0.08-0.079,0.14-0.16,0.137c-0.018-0.036-0.051-0.062-0.091-0.068
	c-0.021,0.044-0.065,0.071-0.114,0.068c-0.021-0.094-0.111-0.154-0.206-0.137c-0.016,0.086-0.095,0.146-0.183,0.137
	c-0.01-0.026-0.026-0.107-0.046-0.047c-0.03,0.031-0.071,0.049-0.114,0.047c-0.025-0.102-0.128-0.162-0.229-0.137
	c-0.02,0.084-0.097,0.142-0.183,0.137c-0.059-0.051-0.022-0.012-0.137,0c-0.039-0.113-0.162-0.175-0.275-0.137
	c0.001,0.075-0.059,0.137-0.135,0.139c-0.008,0-0.017-0.001-0.025-0.002c-0.064-0.058-0.058-0.012-0.183,0
	c-0.031-0.116-0.073-0.143-0.229-0.137c-0.016,0.086-0.096,0.146-0.183,0.137c-0.065-0.062-0.067-0.016-0.183,0
	c-0.025-0.102-0.128-0.162-0.229-0.137c-0.019,0.084-0.097,0.142-0.183,0.137c-0.081-0.096-0.055-0.018-0.206,0
	c-0.008-0.088-0.086-0.152-0.173-0.145c-0.012,0.002-0.022,0.004-0.033,0.008c-0.023,0.082-0.098,0.138-0.183,0.137
	c-0.08-0.096-0.063-0.021-0.206,0c-0.025-0.102-0.128-0.162-0.229-0.137c-0.01,0.086-0.089,0.148-0.176,0.138
	c-0.002-0.001-0.005-0.001-0.007-0.001c-0.057-0.109-0.071-0.02-0.206,0c-0.008-0.088-0.086-0.152-0.173-0.145
	c-0.011,0.002-0.022,0.004-0.033,0.008c-0.016,0.086-0.096,0.146-0.183,0.137c-0.01-0.033-0.036-0.059-0.069-0.068
	c-0.025,0.051-0.082,0.079-0.137,0.068c-0.021-0.094-0.112-0.154-0.206-0.137c-0.02,0.084-0.097,0.142-0.183,0.137
	c-0.019-0.033-0.042-0.064-0.069-0.092c-0.022,0.067-0.091,0.107-0.16,0.092c-0.005-0.083-0.076-0.146-0.159-0.141
	c-0.008,0-0.016,0.002-0.024,0.004c-0.022,0.082-0.098,0.138-0.183,0.137c-0.018-0.037-0.052-0.063-0.092-0.068
	c-0.025,0.051-0.081,0.079-0.137,0.068c-0.036-0.038-0.06-0.086-0.069-0.137h-0.138c-0.009,0.08-0.079,0.14-0.16,0.137
	c-0.022-0.033-0.066-0.109-0.091-0.068c-0.04,0.047-0.099,0.072-0.16,0.068c-0.004-0.08-0.072-0.143-0.152-0.138
	c-0.003,0-0.005,0-0.008,0.001c0.001,0.075-0.059,0.137-0.135,0.139c-0.008,0-0.017-0.001-0.025-0.002
	c-0.021-0.045-0.052-0.084-0.091-0.114c-0.036,0.067-0.106,0.111-0.183,0.114c-0.026-0.055-0.065-0.103-0.114-0.137
	c-0.02,0.084-0.097,0.142-0.183,0.137c-0.014-0.069-0.068-0.123-0.137-0.137c-0.011,0.086-0.089,0.148-0.176,0.138
	c-0.002-0.001-0.005-0.001-0.007-0.001c-0.006-0.053-0.042-0.098-0.092-0.114c-0.01,0.073-0.078,0.126-0.152,0.115
	c-0.002-0.001-0.005-0.001-0.008-0.001c-0.004-0.08-0.072-0.143-0.152-0.138c-0.003,0-0.005,0-0.008,0.001
	c-0.019,0.084-0.097,0.142-0.183,0.137c-0.018-0.036-0.051-0.062-0.091-0.068c-0.036,0.063-0.021,0.057-0.114,0.068
	c-0.036-0.038-0.06-0.086-0.069-0.137h-0.16c-0.011,0.086-0.089,0.148-0.176,0.138c-0.002-0.001-0.005-0.001-0.007-0.001
	c-0.01-0.026-0.026-0.107-0.046-0.047c-0.03,0.031-0.071,0.049-0.114,0.047c-0.03-0.106-0.14-0.169-0.247-0.139
	c-0.002,0-0.003,0.001-0.005,0.002c-0.02,0.084-0.097,0.142-0.183,0.137c-0.045-0.014-0.092-0.014-0.137,0
	c-0.046-0.12-0.18-0.181-0.3-0.137c-0.037,0.12-0.108,0.143-0.275,0.137c-0.046-0.159-0.18-0.148-0.389-0.137
	c-0.014,0.077-0.081,0.134-0.16,0.137c-0.046-0.043-0.078-0.1-0.092-0.16c-0.12-0.027-0.243-0.043-0.366-0.046
	c-0.111,0.034-0.014,0.092-0.229,0.091L8.7,25.682l-0.32-0.068c-0.058,0.047-0.131,0.07-0.206,0.068v-0.047
	c-0.03-0.039-0.048-0.086-0.05-0.135c-0.111-0.012-0.22-0.042-0.32-0.091C7.75,25.465,7.677,25.498,7.6,25.5
	c-0.006-0.076-0.049-0.144-0.114-0.182c-0.141-0.086-0.317-0.086-0.458,0C7.016,25.306,7,25.298,6.982,25.295
	c0.002-0.061-0.023-0.119-0.069-0.159c-0.092-0.052-0.194-0.083-0.3-0.091c-0.13,0.182-0.221,0.04-0.275-0.113
	c-0.103-0.037-0.211-0.06-0.32-0.068c-0.042,0.025-0.08,0.056-0.114,0.091c-0.032-0.012-0.063-0.026-0.092-0.046
	c-0.012-0.013-0.021-0.029-0.023-0.046c-0.019-0.035-0.027-0.075-0.023-0.114l-0.343-0.091C5.369,24.7,5.307,24.73,5.24,24.748
	c-0.024-0.068-0.063-0.131-0.114-0.182c-0.092-0.053-0.194-0.084-0.3-0.092c-0.033,0.058-0.094,0.093-0.16,0.092
	c-0.013-0.013-0.029-0.021-0.046-0.023l-0.069-0.182c-0.11-0.014-0.218-0.045-0.32-0.092c-0.025,0.049-0.065,0.09-0.114,0.114
	C4.08,24.363,4.041,24.348,4,24.336c0.009-0.063-0.018-0.124-0.069-0.16c-0.123-0.117-0.307-0.145-0.458-0.068
	c-0.016-0.028-0.059-0.063-0.069-0.09c-0.002-0.047,0.005-0.094,0.023-0.138c-0.089-0.062-0.173-0.13-0.252-0.205
	C3.12,23.701,3.061,23.717,3,23.721c-0.042-0.043-0.066-0.1-0.069-0.16c0.024-0.024,0.041-0.057,0.046-0.091
	c-0.077-0.07-0.139-0.155-0.183-0.251c-0.061,0.039-0.141,0.021-0.179-0.04c-0.001-0.002-0.002-0.004-0.004-0.006
	c-0.047-0.093,0.03-0.1,0.046-0.159c-0.01-0.109-0.049-0.213-0.114-0.301l-0.16-0.091c-0.002-0.031-0.01-0.063-0.023-0.091
	c0.112-0.114,0.146-0.283,0.089-0.432c-0.08,0-0.144-0.066-0.143-0.146c0-0.013,0.002-0.024,0.005-0.036
	c0.127-0.063,0.194-0.205,0.16-0.342C2.464,21.508,2.431,21.445,2.38,21.4c0.016-0.019,0.03-0.051,0.046-0.068
	c0.051-0.021,0.098-0.053,0.137-0.091c-0.133-0.187-0.248-0.386-0.343-0.593c-0.046-0.068-0.137-0.133-0.183-0.205
	c-0.1-0.152-0.149-0.309-0.252-0.456c-0.089-0.078-0.174-0.162-0.252-0.251c-0.035-0.181-0.051-0.363-0.046-0.547H1.442
	c-0.058-0.064-0.097-0.144-0.114-0.229L0.458,19L0.5,18.547H0.481c-0.072,0.09-0.187,0.134-0.3,0.114
	c-0.054-0.027-0.101-0.066-0.137-0.114C-0.014,18.357,0.03,18.15,0.16,18l0.183-0.091c0.041-0.111,0.071-0.226,0.092-0.342H0.5
	c-0.002,0.11-0.026,0.218-0.069,0.319H0.5c0.042-0.023,0.089-0.039,0.137-0.046c0.31-0.768,0.783-0.8,1.533-1.094
	c0,0.024,0.008,0.048,0.023,0.068c0.394-0.132,0.8-0.224,1.213-0.274v-0.067h0.049c0.061-0.029,0.225,0.019,0.366-0.023
	c0.363-0.108,0.757-0.189,1.076-0.319c0,0.025,0.008,0.049,0.023,0.068c0.146-0.061,0.301-0.099,0.458-0.114
	c0.023,0.146,0.131,0.265,0.275,0.3c0.042-0.021,0.09-0.028,0.137-0.023c0-0.069-0.007-0.138-0.023-0.205
	c0.075-0.024,0.145-0.063,0.206-0.114c0.098,0.055,0.215,0.063,0.32,0.023c0.288-0.04,0.58-0.047,0.87-0.023v0.137h0.091
	c0.031-0.2,0.054-0.388,0.3-0.387c0.178-0.047,0.361-0.071,0.546-0.072c0.413-0.095,0.863-0.06,1.3-0.16
	c0.521-0.118,1.127-0.109,1.648-0.228l0.366-0.023c0.286-0.065,0.6-0.043,0.915-0.114c0.361-0.081,0.729-0.126,1.1-0.137v0.046
	c0.05,0.075,0.081,0.161,0.091,0.251h0.069V15.4c0.04,0.053,0.064,0.116,0.069,0.182H13.8l0.023-0.114l0.114-0.023
	c0.025,0.034,0.041,0.073,0.046,0.114h0.183v0.071H14.3c0.042-0.07,0.073-0.147,0.091-0.228c0.116-0.05,0.245-0.058,0.366-0.023
	c0.06,0.062,0.144,0.095,0.229,0.091c0,0.063-0.03,0.037,0.046,0.068c0.24,0.052,0.488,0.06,0.732,0.023v0.069h1.808l0.069-0.205
	c-0.217-0.055-0.442-0.07-0.664-0.046h-1.439c-0.025-0.024-0.057-0.041-0.092-0.046c-0.329-0.551-0.668-1.12-1.007-1.664
	c-0.059-0.1-0.291-0.6-0.343-0.638h-0.5c-0.312,0.043-0.629,0.035-0.938-0.023v-0.25c0.421,0.011,1.072-0.023,1.648-0.023l0.5-0.547
	c-0.042-0.032-0.06-0.086-0.046-0.137c0.086-0.133,0.187-0.255,0.3-0.365l0.229-0.091v-0.25c0.013-0.343-0.01-0.687-0.069-1.026
	c-0.445-0.091-1.044,0.043-1.51-0.046c-0.011-0.025-0.027-0.048-0.046-0.068c0.002-0.018,0.01-0.034,0.023-0.046
	c0.03-0.056-0.01-0.015,0.046-0.045c0.233-0.05,0.473-0.058,0.709-0.023h0.709v-0.045h0.343c0.208,0.063,0.426,0.079,0.641,0.046
	c0.342-0.039,0.687-0.046,1.03-0.023h3.569c0.465-0.077,0.938-0.077,1.4,0h0.596c0.268,0.058,0.612,0.034,0.869,0.091l0.39,0.023
	c0.419,0.066,0.833,0.167,1.235,0.3c0.381,0.163,0.742,0.369,1.075,0.615c0.229,0.208,0.475,0.398,0.732,0.57
	c0.135,0.167,0.319,0.287,0.526,0.342c0.337,0.086,0.682,0.139,1.029,0.16c0.541,0.121,0.977,0.52,1.145,1.048
	C29.759,13.205,29.787,13.196,29.816,13.191z M15.423,10.319c0,0.458,0.109,0.853,0.115,1.276h0.3
	c0.027-0.143,0.035-0.288,0.023-0.433c0.05-0.14,0.05-0.293,0-0.433h0.16c-0.031,0.289-0.023,0.58,0.023,0.866h1.4
	c0.027-0.026,0.058-0.049,0.091-0.068c-0.132-0.07-0.224-0.196-0.252-0.342c0.041-0.068,0.057-0.149,0.046-0.228
	c-0.04-0.011-0.078-0.027-0.114-0.046h0.023c0.019-0.033,0.055-0.051,0.092-0.046c0.127,0.066,0.273,0.082,0.412,0.046
	c0.046-0.081,0.136-0.126,0.229-0.114v-0.068c0.11-0.001,0.219-0.024,0.32-0.068c0.183-0.017,0.366-0.025,0.549-0.023l2.494-0.046
	l-0.068-0.319c-1.193-0.052-2.424,0-3.64,0C16.892,10.223,16.154,10.238,15.423,10.319z M23.023,11.048
	c0.011,0.077,0.025,0.153,0.045,0.228c-0.09,0.079-0.166,0.171-0.229,0.273c0.417,0.066,0.84,0.083,1.26,0.051
	c0.013-0.012,0.029-0.021,0.047-0.023c0.021-0.267,0.082-0.528,0.183-0.775c0.067-0.018,0.137-0.026,0.206-0.022v-0.072h0.16v0.068
	h0.48c0.08,0.3,0.182,0.577,0.252,0.889c0.047,0.032,0.104,0.048,0.16,0.046c0.42,0.105,0.85,0.174,1.281,0.205v-0.046
	c-0.214-0.169-0.4-0.406-0.618-0.57c-0.458-0.338-0.968-0.6-1.51-0.775c-0.39-0.128-0.861-0.109-1.281-0.205L22.883,10.3
	c-0.477-0.081-0.963-0.088-1.441-0.023V10.3c0.047,0.085,0.078,0.178,0.092,0.274h0.549c0.164,0.2,0.645,0.07,0.709,0.342
	c-0.019,0.02-0.034,0.043-0.046,0.068c0.13-0.011,0.261-0.003,0.389,0.023v0.046h-0.112L23.023,11.048z M31.4,16.86
	c-0.074,0.019-0.035-0.011-0.069,0.046c0.02,0.02,0.043,0.036,0.069,0.046c0.256-0.051,0.518-0.066,0.777-0.046V16.2h-1.011v0.023
	c0.021,0.059,0.036,0.12,0.046,0.182c0.026,0.027,0.057,0.05,0.092,0.068C31.364,16.593,31.397,16.726,31.4,16.86z"/>
</svg>
