<svg xmlns="http://www.w3.org/2000/svg" width="40" height="40" viewBox="0 0 40 40">
  <defs>
    <style>
      .cls-1 {
        fill: #fff;
        fill-rule: evenodd;
      }
    </style>
  </defs>
  <path id="Color_Fill_1" data-name="Color Fill 1" class="cls-1" d="M15.718,16.823h0.353c0.09-.508.278-0.53,0.907-0.5v-0.2h0.6v0.1c0.077,0.076-.078.078,0,0.149H18.69a1.665,1.665,0,0,1,.05-0.4h1.008a0.771,0.771,0,0,1,.05.248h0.655v0.2c0.551,0,1.083.027,1.511,0V15.879h0.554v0.6c0.446,0,.877.032,1.259,0.05,0.114,0.408.343,0.474,0.907,0.447v-0.05a4.994,4.994,0,0,1-.4-0.993h0.05v0.05a2.724,2.724,0,0,1,.5,1.738l10.781,0.149a19.413,19.413,0,0,0,2.771-.1,2.358,2.358,0,0,1,1.209.1,0.531,0.531,0,0,1,.05.3,5.2,5.2,0,0,1-1.36.05,2.592,2.592,0,0,0-.957-0.05H34.912l-4.484.05a14.172,14.172,0,0,0-2.569.05c-0.92.2-2.04-.124-2.871,0.149a0.97,0.97,0,0,0,1.259.7v0.1a1.371,1.371,0,0,0-.6.05h0.252v0.2h2.972v-0.2c0.073-.052.141-0.218,0.2-0.248h0.907v0.447h0.353a2.543,2.543,0,0,0,.5.894,2.385,2.385,0,0,1,1.259.745c0.47,0.326.949,0.638,1.411,0.943a1.984,1.984,0,0,1,.4.2l-0.05.149a7.939,7.939,0,0,0,1.36.844c0.232-.2.383,0.174,0.6,0.248,0.069,0.023.267-.052,0.4-0.05l0.05-.149H35.919v-0.1h2.267l0.1-.149h1.058a0.786,0.786,0,0,1,.2.248c0.357,0.416-.143,2.143.1,2.681A2.192,2.192,0,0,1,40,26.4H39.849a0.355,0.355,0,0,0-.252-0.149c-0.2.531-.374,0.151-0.806,0.348a0.858,0.858,0,0,0-.2.3,1.229,1.229,0,0,0-.5,1.241h-0.05v0.05H37.884V27.7h-0.1a4.382,4.382,0,0,0-.554.794H37.078a3.317,3.317,0,0,0-.705.943c-0.219.011-.474,0-0.806,0a4.313,4.313,0,1,1-8.615-.05H23.879l-0.453.745H16.574c-0.085-.742-0.439-0.784-1.31-0.745a0.29,0.29,0,0,0-.252-0.248,1.239,1.239,0,0,0-.554-0.05c0.029,2.311-.889,3.79-2.468,4.468l-0.957.3a4.311,4.311,0,0,1-2.267-.2c-1.886-.688-2.959-2.083-2.872-4.567a12.525,12.525,0,0,1-1.31.05,6.54,6.54,0,0,1-.856,0L2.519,27.993a2.155,2.155,0,0,0-.4-0.745,0.141,0.141,0,0,0-.05-0.05v0.149a6.239,6.239,0,0,1,0,1.936h-0.1V28.192c-0.168.019-.143,0.049-0.151-0.2l0.151,0.05V27.3A1.111,1.111,0,0,0,1.612,27a1.01,1.01,0,0,1-.1.745v0.05c-0.051.049-.05-0.049-0.05-0.05-0.125-.2.068-0.607-0.05-0.844-0.1-.208-0.237-0.028-0.252-0.5a0.854,0.854,0,0,0,.5-0.4,5.159,5.159,0,0,0-.655-1.192,0.591,0.591,0,0,1-.2.447H0.756v-0.1a1.513,1.513,0,0,0,.252-0.546A8.651,8.651,0,0,1,.3,23.227a0.9,0.9,0,0,0,.151-0.2c0.181-.1.186,0.188,0.353-0.149a0.465,0.465,0,0,0-.252-0.149,0.5,0.5,0,0,1-.4,0A0.667,0.667,0,0,1,0,22.234a2.589,2.589,0,0,1,1.965-1.092,0.533,0.533,0,0,1,.252.546,0.518,0.518,0,0,0-.2.348,0.305,0.305,0,0,1,.1.1,0.5,0.5,0,0,0,.252-0.05,0.251,0.251,0,0,0,.05-0.149,0.956,0.956,0,0,1-.1-0.4h0.05v-0.05a5.291,5.291,0,0,0,1.31-.3C4.5,20.963,5.327,20.858,6.1,20.645c0.7-.193,1.321-0.2,2.015-0.4,1.654-.462,3.438-0.806,5.139-1.192a0.8,0.8,0,0,0,.1.4h2.368a0.238,0.238,0,0,1,.05-0.149c0.043-.032.158-0.066,0.2-0.1h-0.6a16.881,16.881,0,0,1,.554-2.035,0.552,0.552,0,0,0-.3-0.05,1.339,1.339,0,0,1-.05.447h-0.1a0.752,0.752,0,0,0,0-.4,0.946,0.946,0,0,0-.453-0.05V16.972h0.151a0.688,0.688,0,0,1,.252-0.5,5.578,5.578,0,0,1,0-1.787V9.326A16.632,16.632,0,0,1,15.466,6h0.05v9.532a1.538,1.538,0,0,1,.05.943A0.663,0.663,0,0,1,15.718,16.823Zm3.073-.447c0.336,0,.63.029,0.907,0.05V16.078H18.841A0.9,0.9,0,0,0,18.791,16.376Zm-2.771.546h-0.2v0.05h0.1c0.065,0.123-.022.034,0.1,0.1V16.922ZM1.763,22.135a0.6,0.6,0,0,1-.353.248v0.05h0.1a0.66,0.66,0,0,1,.4-0.1v-0.1H1.864C1.8,22.112,1.886,22.2,1.763,22.135Zm-0.856.5v0.1h0.1v-0.1h-0.1Zm35.466,0.645v0.149l0.453,0.05a0.169,0.169,0,0,0,.05.1,0.17,0.17,0,0,1-.05.1c-0.1.072-.3,0.078-0.4,0.149h0.1c0.342,0.383,1.346.614,1.31-.3h0.05v-0.05h0.05v0.1a0.143,0.143,0,0,0,0,.2,0.2,0.2,0,0,1,.2-0.1V23.426c-0.143.016-.1,0.053-0.2,0h0.05c0.043-.032.158-0.066,0.2-0.1A6.988,6.988,0,0,0,36.373,23.277Zm2.217,0.1v1.837a1.65,1.65,0,0,0,.655.2V23.475A1.331,1.331,0,0,0,38.589,23.376Zm0.453,0.745,0.151,0.05v0.05H38.64V24.17A0.792,0.792,0,0,0,39.043,24.121ZM0.705,25.262a0.178,0.178,0,0,1,.05.1H0.705v-0.1Zm-0.05.1a0.178,0.178,0,0,1,.05.1H0.655v-0.1Zm-0.05.1a0.178,0.178,0,0,1,.05.1H0.6v-0.1Zm38.489,0a0.2,0.2,0,0,0,.151.1v-0.1H39.093Zm-38.539.1a0.255,0.255,0,0,1,0,.248H0.5V25.66A0.178,0.178,0,0,0,.554,25.56Zm-0.4,2.631H0a11.584,11.584,0,0,1,.453-2.383H0.5v0.149A5.049,5.049,0,0,0,.151,28.192Zm13.955-.248c0.119,0.293.156,0.368,0.6,0.348v-0.1A0.543,0.543,0,0,0,14.106,27.943Zm-4.736.149a0.944,0.944,0,0,1-.252.149v0.05h0.1c0.064-.084.138-0.115,0.2-0.2H9.37Zm23.375,0.7c-0.017.069,0.072,0.072,0.1,0.1C32.882,28.834,32.76,28.8,32.746,28.787ZM8.615,30.475a0.648,0.648,0,0,0,.252.3A0.838,0.838,0,0,0,8.615,30.475Zm21.108,0a0.531,0.531,0,0,0,.2.248A0.779,0.779,0,0,0,29.723,30.475Zm-18.136.149-0.1.149C11.5,30.782,11.725,30.641,11.587,30.624Zm21.058,0-0.05.149h0.05a0.305,0.305,0,0,1,.1-0.1A0.182,0.182,0,0,0,32.645,30.624Zm-23.577.348c0.005,0.007.151,0.149,0.151,0.149A0.253,0.253,0,0,0,9.068,30.972Zm21.108,0c-0.017.069,0.072,0.072,0.1,0.1C30.312,31.018,30.19,30.987,30.176,30.972Zm-19.043.05-0.1.149,0.2-.1A0.183,0.183,0,0,0,11.134,31.021Zm21.108,0c-0.064.084-.137,0.115-0.2,0.2h0.05C32.208,31.108,32.262,31.151,32.242,31.021Z" transform="translate(0 0.016)"/>
</svg>
