<?xml version="1.0" encoding="utf-8"?>
<!-- Generator: Adobe Illustrator 16.0.0, SVG Export Plug-In . SVG Version: 6.00 Build 0)  -->
<!DOCTYPE svg PUBLIC "-//W3C//DTD SVG 1.1//EN" "http://www.w3.org/Graphics/SVG/1.1/DTD/svg11.dtd">
<svg version="1.1" id="Layer_1" xmlns="http://www.w3.org/2000/svg" xmlns:xlink="http://www.w3.org/1999/xlink" x="0px" y="0px"
	 width="40px" height="40px" viewBox="0 0 40 40" enable-background="new 0 0 40 40" xml:space="preserve">
<path id="Color_Fill_1" fill="#FFFFFF" d="M20.764,14.511c0,0.206-0.05,0.725-0.05,0.725c0.341,0.234,1.213,0.075,1.476,0.387
	c0.045,0.053,0.05-0.048,0.05-0.048c0.067-0.081,0.151-0.146,0.245-0.193v0.048c-0.088,0.091-0.09,0.038-0.049,0.145
	c0.043,0.031,0.096,0.048,0.148,0.048c0-0.153-0.083-0.065,0.049-0.145c0.115,0.009,0.229,0.009,0.344,0
	c0.041,0.071,0.09,0.136,0.148,0.193c-0.029,0.121-0.078,0.235-0.148,0.338h0.246c0.041-0.071,0.119-0.11,0.2-0.1v0.048
	c-0.038,0.004-0.073,0.021-0.1,0.048h0.245c0.219-0.094,0.453-0.144,0.689-0.145c0.029,0.078,0.047,0.159,0.049,0.242
	c-0.072,0.046-0.233,0.139-0.147,0.193l0.147,0.193c0.836-0.086,1.678-0.07,2.51,0.048c0.67,0.059,1.344,0.075,2.017,0.048
	c0.03-0.077,0.046-0.159,0.049-0.242h2.165v0.193c1.676,0.044,3.975,0.1,5.953,0.1c0.737,0.071,1.48,0.055,2.214-0.048
	c-0.138-0.065-0.121-0.067-0.147-0.242h0.394c-0.026,0.079-0.026,0.164,0,0.242c0.2-0.016,0.235,0.041,0.541,0.048v0.628h-8.562
	c-0.817,0.087-1.639,0.121-2.461,0.1c-0.72-0.06-1.444-0.06-2.164,0c-0.882,0.11-1.772,0.126-2.657,0.048
	c-0.108,0.188-0.284,0.327-0.492,0.387c0.023-0.046,0.023-0.1,0-0.146c-0.483,0.107-0.948,0.286-1.378,0.533
	c-0.062-0.043-0.129-0.077-0.2-0.101c-0.031,0.042-0.049,0.093-0.049,0.146h0.101c0.218,0.102,0.47,0.102,0.688,0v0.145
	c0.371-0.025,0.742,0.041,1.082,0.193c0.077-0.037,0.215-0.213,0.3-0.242c0.239-0.089,0.55,0.076,0.787,0
	c0,0.551,0.159,0.265,0.395,0.531c0.1-0.045,0.199-0.154,0.245-0.1c0.042,0.094,0.075,0.191,0.101,0.29h0.1
	c0.048-0.255,0.063-0.362,0.3-0.387c0.015,0.128,0.041,0.1,0.3,0.1c0.236,0.11,0.483,0.191,0.738,0.242
	c0.171,0.021,0.027-0.114,0.301-0.048c-0.037,0.042-0.063,0.055-0.101,0.1c0.315,0.063,0.628,0.145,0.935,0.242l0.049,0.193
	c0.131,0.108,0.281,0.19,0.443,0.242v-0.049h-0.068c-0.094-0.039,0.101-0.049,0.101-0.049c0.027,0.026,0.063,0.043,0.101,0.049
	c-0.082,0.14-0.053,0.02-0.05,0.241c0.2,0.158,0.101,0.2,0.394,0.193c0.007,0.284,0.113,0.558,0.301,0.772H29.52
	c-0.207,0.082-0.421,0.146-0.64,0.193c-0.027,0.225-0.027,0.452,0,0.677c-0.079,0.472-0.323,0.901-0.688,1.209
	c-0.633,0.369-1.29,0.692-1.969,0.968c-0.571,0.357-1.182,0.65-1.82,0.869H15.6c-0.256,0.089-1.033,0-1.033,0H7.724
	c-0.77,0.088-1.547,0.072-2.312-0.048c-0.445-0.218-0.859-0.494-1.23-0.821c-0.588-0.406-1.21-0.727-1.771-1.16
	c-0.3-0.229-0.249-0.663-0.738-0.726c-0.192-0.059-0.397-0.059-0.59,0c-0.069-0.099-0.104-0.218-0.1-0.338
	c0.041-0.042,0.075-0.092,0.1-0.146c-0.102,0.037-0.215,0.019-0.3-0.047v0.242H0.64c-0.009-0.964-0.209-1.916-0.59-2.801
	c-0.048-0.115-0.029-0.248,0.05-0.344L0,18.088h0.148c-0.032-0.077-0.032-0.164,0-0.242c0.062-0.199,0.129-0.236,0.394-0.242
	c0.08,0.116,0.182,0.215,0.3,0.291c0.088-0.601,2.1-0.4,2.854-0.388c0.692,0.252,1.435,0.335,2.165,0.242
	c0.756,0.044,1.514-0.007,2.257-0.149c0.232,0.154,0.51,0.223,0.787,0.193v-0.044C8.851,17.725,8.8,17.69,8.757,17.648
	c0.184-0.011,0.349-0.113,0.443-0.1c0.061,0.012,0.168,0.166,0.246,0.193c0.416-0.055,0.838-0.005,1.23,0.145
	c-0.121,0.063-0.034-0.021-0.1,0.101h0.049c0.24-0.077,0.498-0.077,0.738,0v-0.101c-0.581-0.205-1.141-0.464-1.673-0.773
	l-0.984-0.048c-0.686-0.154-1.749-0.148-2.312-0.242c-0.439-0.073-1.112,0.055-1.279-0.387c-0.014-0.403,0.002-0.807,0.049-1.208
	c0.079-0.047,0.13-0.158,0.2-0.193c0.237,0.02,0.476-0.027,0.688-0.135c-0.327,0.074-0.652-0.132-0.726-0.46
	c-0.005-0.024-0.009-0.048-0.012-0.072c0.081-0.274,0.309-0.48,0.59-0.532c0.28,0.188,0.577,0.35,0.886,0.483h0.59
	c0.427-0.005,0.854,0.01,1.279,0.048h1.23c0.186,0.063,0.569,0.1,0.787,0.193c0.218,0.093,0.344,0.295,0.541,0.387
	c0.1-0.2,0.257-0.069,0.59-0.048c0.072-1.714,0.048-3.621,0.049-5.414h0.1v5.172c0.039,0.074,0.055,0.159,0.044,0.243
	c0.22-0.013,0.121-0.061,0.2-0.1c0.186,0.082,0.394,0.099,0.59,0.048c-0.158,0.02-0.313-0.056-0.394-0.193
	c0.041-0.074,0.058-0.158,0.049-0.242H12.6v0.048c-0.061,0.076-0.032,0.025,0,0.1c0.043,0.031,0.095,0.048,0.148,0.048
	c0.236-0.4,1.072,0.045,1.328-0.338c-0.054,0.001-0.105-0.016-0.148-0.048c0.038-0.004,0.073-0.021,0.1-0.048
	c-0.074-0.061-0.157-0.11-0.246-0.145c-0.01,0.068,0.04-0.021,0.049,0.048c0.095,0.037-0.1,0.048-0.1,0.048v0.048h-0.053v-0.05
	c-0.043-0.036-0.056-0.061-0.1-0.1v0.145c-0.053,0.001-0.105-0.016-0.148-0.048c-0.027-0.027-0.044-0.063-0.049-0.1
	c0.032-0.042,0.049-0.093,0.049-0.145c-0.115-0.013-0.23-0.013-0.344,0l-0.1,0.29H12.94v-0.042
	c-0.053-0.139-0.069-0.288-0.049-0.435h-0.246v0.145c-0.151,0.017-0.3,0.05-0.443,0.1c-0.04-0.202-0.107-0.397-0.2-0.58
	c0.9,0.099,1.81,0.083,2.706-0.048c0.263-0.066,0.617,0.169,0.738,0.1c0.088-0.064-0.023-0.08,0.2-0.1
	c0.236,0.142,0.516,0.193,0.787,0.145v-0.246h0.1V13.4l0.64,0.048c0.024-0.084,0.058-0.166,0.1-0.242V13.4l0.787,0.1v-3.243
	C17.998,9.839,18.013,9.413,18.106,9c0,1.862,0.037,3.823,0.049,5.607l0.1,0.048V14.7H18.3c-0.009-0.084,0.008-0.169,0.049-0.242
	v0.048c0.013,0.17,0.063,0.335,0.148,0.483v-0.043c0.032-0.176,0.032-0.356,0-0.532c0.087-0.063,0.192-0.099,0.3-0.1
	c0.656,0.058,1.316,0.042,1.969-0.048v0.048c-0.092,0.064-0.193,0.113-0.301,0.145v0.048h0.301L20.764,14.511z M17.171,13.689v0.242
	h-0.3v0.725c0.109,0.025,0.212,0.075,0.3,0.145c0,0-0.192,0.009-0.1,0.048h0.1c0.181,0.142,0.416,0.195,0.64,0.145
	c-0.065-0.281,0.108-0.194,0.2-0.387l0.049-0.967L17.171,13.689z M15.695,13.689c0.085,0.043,0.063,0.043,0.148,0H15.7H15.695z
	 M16.384,13.689c0.027,0.026,0.063,0.043,0.1,0.048C16.457,13.711,16.421,13.694,16.384,13.689z M15.203,13.882
	c0.01,0.163-0.006,0.326-0.049,0.483H15.6c0.162,0.099,0.354,0.134,0.541,0.1c-0.021-0.199,0.013-0.399,0.1-0.58H15.2L15.203,13.882
	z M14.416,14.317c0.117,0.016,0.236-0.001,0.344-0.048c-0.106-0.025-0.196-0.095-0.246-0.193h0.1
	c0.037,0.06,0.087,0.109,0.148,0.145c-0.075-0.136-0.197-0.239-0.344-0.29v0.1C14.518,14.091,14.43,14.075,14.416,14.317z
	 M14.616,14.51c0.027,0.026,0.062,0.043,0.1,0.048c-0.028-0.027-0.064-0.043-0.103-0.047L14.616,14.51z M15.354,14.51
	c0.085,0.043,0.063,0.043,0.148,0h-0.151H15.354z M15.944,14.51c0.028,0.026,0.063,0.043,0.1,0.048
	c-0.028-0.026-0.064-0.043-0.103-0.047L15.944,14.51z M14.074,14.558c0.085,0.043,0.063,0.043,0.148,0h-0.151H14.074z
	 M14.812,14.558c-0.01,0.083,0.007,0.168,0.049,0.242c0.009-0.083-0.01-0.168-0.052-0.241L14.812,14.558z M15.157,14.558
	c-0.006,0.068,0.012,0.136,0.049,0.193c0.004-0.068-0.014-0.136-0.052-0.192L15.157,14.558z M20.175,15.186
	c0.027,0.026,0.063,0.043,0.1,0.048c-0.028-0.026-0.064-0.042-0.103-0.047L20.175,15.186z M20.323,15.186
	c0.027,0.026,0.062,0.043,0.1,0.048c-0.028-0.026-0.064-0.042-0.103-0.047L20.323,15.186z M20.471,15.186
	c0.027,0.026,0.062,0.043,0.099,0.048c-0.027-0.026-0.064-0.043-0.104-0.047L20.471,15.186z M22.783,15.573
	c-0.043,0.059-0.076,0.124-0.1,0.193c0.086,0.023,0.168,0.056,0.246,0.1c0.004-0.038,0.021-0.074,0.049-0.1v-0.1L22.783,15.573z
	 M5.464,15.96c0.078,0.055,0.16,0.104,0.246,0.145v-0.1L5.464,15.96z M24.064,15.96c-0.056,0.155-0.135,0.11,0.049,0.193
	c0.043-0.059,0.076-0.124,0.1-0.193h-0.154H24.064z M5.51,16.154L5.461,16.3H5.51c0.025-0.041,0.06-0.075,0.1-0.1
	C5.583,16.174,5.547,16.158,5.51,16.154z M0.3,17.991h0.143c0.006-0.144,0.018-0.028,0.1-0.193c-0.064-0.025-0.131-0.042-0.2-0.048
	C0.315,17.827,0.301,17.908,0.3,17.991z M9.4,17.8c0.027,0.026,0.063,0.043,0.1,0.048C9.473,17.822,9.438,17.805,9.4,17.8z
	 M10.089,17.9c0.044,0.041,0.094,0.074,0.148,0.1v-0.1h-0.151H10.089z M0.2,18.668l0.148,0.87c0.072,0.213,0.252,0.45,0.344,0.677
	c0.081,0.2,0.081,0.561,0.148,0.628v-0.048c0.088-0.287,0.071-0.596-0.049-0.87c-0.124-0.085-0.239-0.183-0.344-0.29
	C0.432,19.299,0.348,18.97,0.2,18.668z M25.98,19.15c0.055,0.055,0.125,0.09,0.201,0.101c-0.056-0.055-0.127-0.09-0.203-0.101H25.98
	z M1.033,21.085v-0.29H0.984v0.048c-0.052,0.071-0.086,0.155-0.1,0.242H1.033z M26.027,22.686c0,0.052-0.018,0.104-0.049,0.145
	v0.048l-0.541,0.048c0,0.146-0.016,0.293-0.049,0.436h0.1c0.3-0.26,0.84-0.268,1.132-0.532c-0.181-0.104-0.386-0.155-0.593-0.149
	V22.686z M4.674,22.975H4.33v0.049h0.1c0.074,0.061,0.157,0.109,0.246,0.145V22.97L4.674,22.975z M7.774,23.797
	c-0.061,0.101-0.127,0.197-0.2,0.29H8.02v-0.054c-0.089-0.072-0.172-0.153-0.246-0.241V23.797z M10.674,23.797
	c-0.061,0.101-0.127,0.197-0.2,0.29h0.443v-0.054c-0.1-0.072-0.141-0.166-0.24-0.241L10.674,23.797z M13.574,23.797
	c-0.061,0.101-0.127,0.197-0.2,0.29h0.443v-0.054c-0.086-0.073-0.166-0.154-0.238-0.241L13.574,23.797z M16.474,23.797
	c-0.061,0.101-0.127,0.197-0.2,0.29h0.443v-0.054c-0.085-0.073-0.164-0.154-0.235-0.241L16.474,23.797z M19.374,23.797
	c-0.061,0.101-0.127,0.197-0.2,0.29h0.443v-0.054c-0.085-0.073-0.163-0.154-0.232-0.241L19.374,23.797z M22.273,23.797
	c-0.061,0.101-0.127,0.197-0.199,0.29h0.443v-0.054c-0.084-0.073-0.16-0.154-0.229-0.241L22.273,23.797z"/>
</svg>
