<?xml version="1.0" encoding="utf-8"?>
<!-- Generator: Adobe Illustrator 16.0.0, SVG Export Plug-In . SVG Version: 6.00 Build 0)  -->
<!DOCTYPE svg PUBLIC "-//W3C//DTD SVG 1.1//EN" "http://www.w3.org/Graphics/SVG/1.1/DTD/svg11.dtd">
<svg version="1.1" id="Layer_1" xmlns="http://www.w3.org/2000/svg" xmlns:xlink="http://www.w3.org/1999/xlink" x="0px" y="0px"
	 width="40px" height="40px" viewBox="0 0 40 40" enable-background="new 0 0 40 40" xml:space="preserve">
<path id="sw_pvkv_m43_1946_ico" fill="#FFFFFF" d="M23.313,11.154c0.306,0.019,0.613,0.011,0.918-0.024v0.048
	c-0.033-0.002-0.065,0.006-0.094,0.024c0.029,0.092,0.037,0.189,0.024,0.285h0.188v0.119h1.7c-0.007-0.097,0.009-0.195,0.048-0.285
	l0.023,0.285l0.495,0.024v0.143c-0.45,0.017-1.03,0.023-1.532,0.024c-0.243-0.022-0.488-0.022-0.73,0v0.119
	c-0.176,0.012-0.311,0-0.52,0c0.007,0.122-0.041,0.117-0.141,0.19c0.15,0.352,0.191,0.741,0.117,1.116
	c0.041,0.007,0.076,0.033,0.095,0.071c-0.026,0.068-0.034,0.142-0.024,0.214c-0.123,0.039-0.254,0.039-0.377,0V13.6
	c0.115,0.131,0.203,0.285,0.26,0.451c0.085-0.03,0.18-0.021,0.258,0.024c0.037,0.035,0.059,0.084,0.095,0.119
	c-0.029,0.102-0.053,0.205-0.071,0.309c0.012,0.07,0.056,0.131,0.118,0.166c0.021-0.016,0.046-0.023,0.071-0.024v0.071
	c0.076,0.021,0.133,0.087,0.141,0.166c0.859,0.034,1.605,0.604,1.861,1.425c0.057-0.008,0.114,0,0.166,0.024h-0.145v0.1h0.094v0.094
	h2.569c0.534-0.027,1.07-0.004,1.601,0.072h3.063c0.72,0.006,1.528,0.023,2.286,0.023h1.131c0.391,0.044,0.785,0.053,1.178,0.023
	h0.5c0.422-0.064,0.849-0.08,1.273-0.047c0.041,0.252,0.049,0.507,0.023,0.76c-0.422,0.059-0.85,0.066-1.273,0.024
	c-0.252-0.075-0.519-0.092-0.778-0.047c-0.694,0.024-1.483,0.024-2.216,0.024c-3,0-5.822,0.113-8.816,0.119
	c0.05,0.287,0.137,0.566,0.26,0.83c0.257,0.099,0.525,0.162,0.8,0.19c0.007,0.071,0.007,0.143,0,0.214
	c-0.019,0.043-0.042,0.082-0.071,0.119h0.024c0.208,0.047,0.424,0.055,0.636,0.023l1.579-0.023l0.471-0.047
	c0.2,0.091,0.515,0.1,0.731,0.189c0.211,0.156,0.451,0.27,0.707,0.334c0.002-0.035,0.01-0.068,0.023-0.101H32.1
	c0.068,0.056,0.117,0.13,0.142,0.214H32.15v0.024c0.15,0.178,0.283,0.368,0.4,0.569l-0.07,0.736
	c-0.025,0.061-0.123,0.118-0.142,0.166c-0.007,0.071-0.007,0.143,0,0.214l0.118,0.024c0.029,0.041,0.047,0.092,0.047,0.143
	c-0.039,0.037-0.088,0.062-0.141,0.071c0.009,0.096,0,0.192-0.024,0.285c0.09,0.017,0.151,0.099,0.142,0.189
	c-0.072,0.011-0.139,0.044-0.189,0.095c0.036,0.252,0.036,0.509,0,0.761c-0.037,0.015-0.078,0.022-0.118,0.024v-0.05
	c-0.005-0.099-0.03-0.195-0.073-0.284c0.002,0.093-0.055,0.178-0.141,0.213c0.038,0.058,0.063,0.123,0.071,0.19h-0.021v0.024
	c-0.077,0.006-0.2-0.01-0.212,0c-0.014,0.045-0.037,0.086-0.07,0.119c-0.042,0.008-0.082,0.024-0.119,0.047
	c0.021,0.061,0.021,0.128,0,0.189c-0.035,0.02-0.076,0.028-0.117,0.024c-0.024-0.025-0.057-0.042-0.09-0.048
	c-0.037,0.181-0.137,0.046-0.213,0.143c-0.076,0.098,0.037,0.134-0.117,0.166c-0.047-0.027-0.043-0.014-0.094,0L31,23.506h-0.027
	c-0.094,0.076-0.236,0.088-0.354,0.19l-0.048,0.118c-0.061,0.047-0.11,0-0.188,0.049c-0.077,0.048-0.169,0.213-0.259,0.261
	l-0.07-0.024c-0.049,0.031-0.096,0.064-0.141,0.101c-0.053,0.037-0.071,0.13-0.118,0.166c-0.083,0.063-0.2,0.061-0.283,0.118
	c-0.051,0.037-0.071,0.133-0.118,0.166c-0.038,0.011-0.079,0.011-0.117,0c-0.104,0.086-0.199,0.181-0.283,0.285h-0.117
	c-0.1,0.09-0.195,0.185-0.283,0.285l-0.07-0.023c-0.074,0.043-0.145,0.091-0.213,0.143c-0.08,0.057-0.072,0.158-0.164,0.143
	c-0.123,0.06-0.229,0.149-0.307,0.261l-0.212,0.024c-0.085,0.032-0.21,0.144-0.283,0.166c-0.073,0.021-0.069-0.041-0.094-0.048
	c-0.13,0.008-0.259,0.04-0.377,0.095c-0.06,0.021-0.245-0.055-0.377-0.047c-0.104,0.006-0.06,0.031-0.095,0.047h-0.096
	c-0.061-0.022-0.123-0.038-0.188-0.047c-0.116,0-0.301,0.069-0.354,0.047v-0.052c-0.168-0.005-0.336,0.011-0.5,0.048v-0.048
	c-0.128-0.024-0.26-0.008-0.378,0.048c-0.055,0.018-0.25-0.052-0.377-0.048c-0.073,0.035-0.154,0.051-0.235,0.048v-0.048H23.9
	c-0.014,0.043-0.059,0.067-0.102,0.055c-0.006-0.002-0.012-0.005-0.017-0.007v-0.048c-0.167-0.006-0.333,0.011-0.495,0.048v-0.048
	h-0.376v0.048c-0.028,0.013-0.251-0.05-0.354-0.048c-0.082,0.033-0.17,0.049-0.259,0.048v-0.048h-0.377
	c-0.013,0.043-0.058,0.067-0.101,0.055c-0.006-0.002-0.012-0.005-0.018-0.007v-0.048c-0.168-0.007-0.336,0.01-0.5,0.048v-0.048
	h-0.371v0.048c-0.164-0.037-0.332-0.053-0.5-0.048c-0.013,0.043-0.058,0.067-0.101,0.055c-0.006-0.002-0.012-0.005-0.017-0.007
	v-0.048h-0.372v0.048c-0.028,0.013-0.251-0.05-0.354-0.048c-0.082,0.033-0.17,0.049-0.259,0.048v-0.048h-0.377
	c-0.013,0.043-0.058,0.067-0.101,0.055c-0.006-0.002-0.012-0.005-0.017-0.007v-0.048c-0.168-0.007-0.336,0.01-0.5,0.048v-0.048
	h-0.372v0.048h-0.094c-0.126-0.053-0.265-0.069-0.4-0.048c-0.013,0.043-0.058,0.067-0.101,0.055
	c-0.006-0.002-0.012-0.005-0.017-0.007v-0.048h-0.378v0.048c-0.164-0.037-0.332-0.053-0.5-0.048
	c-0.013,0.043-0.058,0.067-0.101,0.055c-0.006-0.002-0.012-0.005-0.017-0.007v-0.048h-0.372v0.048
	c-0.028,0.013-0.251-0.05-0.354-0.048c-0.083,0.033-0.17,0.049-0.259,0.048v-0.048h-0.377c-0.013,0.043-0.058,0.067-0.101,0.055
	c-0.006-0.002-0.012-0.005-0.017-0.007v-0.048c-0.168-0.007-0.336,0.01-0.5,0.048v-0.048H14v0.048h-0.093
	c-0.126-0.053-0.265-0.069-0.4-0.048c-0.013,0.043-0.058,0.067-0.101,0.055c-0.006-0.002-0.012-0.005-0.017-0.007v-0.048h-0.378
	v0.048h-0.094c-0.126-0.053-0.265-0.069-0.4-0.048c-0.013,0.043-0.058,0.067-0.101,0.055c-0.006-0.002-0.012-0.005-0.017-0.007
	v-0.048h-0.378v0.048c-0.164-0.037-0.332-0.053-0.5-0.048c-0.013,0.043-0.058,0.067-0.101,0.055
	c-0.006-0.002-0.012-0.005-0.017-0.007v-0.048h-0.372v0.048c-0.119-0.008-0.237-0.023-0.354-0.048
	c-0.089,0.038-0.186,0.054-0.283,0.048v-0.048h-0.306c-0.053,0.044-0.122,0.061-0.189,0.048v-0.048
	c-0.161-0.079-0.351,0.071-0.495,0c-0.161-0.079-0.351,0.071-0.495,0c-0.167-0.003-0.333,0.013-0.495,0.048v-0.048l-0.495,0.024
	v-0.048c-0.101-0.029-0.203-0.053-0.306-0.071l-0.141,0.023c-0.09-0.062-0.185-0.117-0.283-0.166
	c-0.1-0.034-0.077,0.006-0.141,0.024c-0.032-0.012-0.12-0.059-0.071-0.095c-0.1-0.044-0.443-0.076-0.471-0.1
	c-0.02-0.035-0.044-0.066-0.071-0.096c-0.118-0.056-0.331-0.025-0.4-0.07c-0.092-0.072-0.195-0.129-0.306-0.166l-0.118,0.023
	c-0.028-0.029-0.052-0.063-0.071-0.1c-0.091-0.042-0.186-0.074-0.283-0.096l-0.118,0.024c-0.033-0.032-0.064-0.065-0.094-0.101
	l-0.307-0.082c0.003,0.02-0.006,0.039-0.024,0.048c-0.054-0.022-0.094-0.101-0.141-0.119c-0.103-0.048-0.218-0.064-0.33-0.047
	c-0.115-0.069-0.233-0.133-0.354-0.19c-0.064,0.009-0.129,0-0.189-0.023c-0.048-0.039,0.017-0.028-0.047-0.047
	c-0.13-0.057-0.264-0.104-0.4-0.144c-0.037-0.028-0.033-0.112-0.071-0.142c-0.119-0.057-0.23-0.129-0.33-0.215l-0.024-0.143
	c-0.054-0.085-0.183-0.154-0.236-0.238c-0.013-0.055-0.013-0.111,0-0.166c-0.047-0.106-0.103-0.209-0.165-0.309L2.4,22.484h0.051
	c0.01-0.039,0.018-0.078,0.024-0.118c0.016-0.212-0.043-0.421-0.165-0.595c-0.008-0.104-0.05-0.204-0.118-0.284
	C1.769,21.25,1.277,21.166,0.8,21.249v-0.166c-0.201-0.015-0.375-0.145-0.448-0.333c0.125-0.289,0.22-0.592,0.283-0.9l-0.33-0.095
	c-0.002-0.018-0.011-0.034-0.024-0.047v-0.026h0.025c0.017-0.021,0.03-0.026,0.047-0.047c0.104,0.05,0.215,0.082,0.33,0.096v-0.024
	h0.024c0.038-0.146,0.085-0.288,0.141-0.429c-0.014-0.04-0.03-0.08-0.048-0.118c0.031-0.021,0.065-0.036,0.1-0.047
	c-0.003-0.101,0.022-0.198,0.071-0.285h0.585V18.8h0.023v-0.021c-0.026,0-0.051-0.008-0.071-0.024h0.071l-0.024-0.142H1.509
	c-0.396,0.145-0.807,0.24-1.226,0.287C0.27,18.729,0.23,18.56,0.165,18.4h0.047c0.265-0.107,0.542-0.18,0.825-0.215
	c0.021-0.03,0.037-0.064,0.047-0.1c-0.016-0.018-0.031-0.053-0.047-0.07C0.994,17.998,0.946,17.992,0.9,18l-0.778,0.214L0,17.71
	c0.136-0.028,0.245-0.101,0.377-0.144l0.825-0.189c0.089-0.063,0.184-0.119,0.283-0.166c0.142-0.047,0.329,0.018,0.495-0.023
	C2.35,17.092,2.75,17,3.111,16.926c0.013,0.172,0.053,0.341,0.118,0.5H3.182c-0.238,0.159-0.649,0.1-0.872,0.262
	c0.005,0.043,0.021,0.084,0.047,0.119c0.044,0.021,0.093,0.029,0.141,0.023l0.778-0.214l0.118,0.5
	c-0.4,0.142-0.81,0.253-1.226,0.333c0.001,0.096,0.009,0.19,0.024,0.285h0.024c0.047-0.03,0.543-0.056,0.754-0.119
	c0.424-0.129,0.876-0.2,1.32-0.332c0.271-0.107,0.558-0.172,0.849-0.19l-0.024-0.261h0.047v0.023C5.172,17.91,5.196,17.959,5.233,18
	c0.35-0.147,0.729-0.212,1.108-0.189L6.6,17.829c0.629-0.163,1.383-0.235,2.027-0.4c0.386-0.025,0.767-0.105,1.131-0.237
	c-0.073-0.029-0.053-0.01-0.071-0.096c0.051,0.024,0.109,0.033,0.165,0.024c0.193-0.221,0.491-0.32,0.778-0.261
	c0.091,0.047,0.178,0.103,0.259,0.166c0.088-0.001,0.176,0.015,0.259,0.047c-0.029,0.042-0.045,0.092-0.047,0.143
	c-0.006,0.139,0.102,0.256,0.241,0.262c0.006,0,0.012,0,0.018,0c0.026-0.08,0.027-0.08,0.118-0.096v0.02H11.5v0.07h0.118
	c0.011-0.143,0.03-0.183,0.047-0.333H11.6c-0.021-0.325,0-0.54,0-0.808c0.077-0.02,0.036,0.012,0.071-0.047
	c-0.047-0.098-0.047-0.212,0-0.309c0.154-0.247,0.258-0.521,0.306-0.808h0.094l0.024-0.214c-0.135-0.004-0.27,0.012-0.4,0.048
	c-0.013-0.032-0.021-0.065-0.024-0.1c0.144-0.09,0.211-0.264,0.165-0.428c0.031-0.22,0.04-0.443,0.024-0.665
	c0.057-0.234,0.189-0.443,0.377-0.594c0.293-0.113,0.605-0.169,0.919-0.166c0.5-0.109,1.1-0.033,1.6-0.143h0.306
	c0.716-0.156,1.547-0.034,2.263-0.19l0.636-0.024c0.392-0.085,0.881-0.034,1.273-0.119h0.33c0.6-0.13,1.311-0.036,1.909-0.166H21.8
	c0.317-0.072,0.644-0.088,0.966-0.047c0.176,0.048,0.287,0.184,0.448,0.238v-0.515h-0.659v-0.166c-0.185,0-0.365,0.012-0.52,0.024
	l-0.024-0.071c-0.071-0.124-0.071-0.276,0-0.4c0.038-0.014,0.078-0.022,0.118-0.024c0.139,0.037,0.283,0.045,0.424,0.024
	c0.003-0.104-0.005-0.207-0.023-0.309h0.707V6h0.047v4.941C23.311,11.009,23.32,11.082,23.313,11.154z M23.948,11.962
	c0.075,0.02,0.036-0.012,0.071,0.047h-0.071V11.962z M24.042,11.962c0.015,0.021,0.023,0.045,0.024,0.071h-0.024V11.962z
	 M12.092,14.6c0.303-0.019,0.604-0.059,0.9-0.119l0.566-0.024c0.025-0.012,0.111-0.08,0.142-0.1v-0.02
	c0.08-0.018,0.041,0.058,0.071,0.071c0.15,0.008,0.3,0,0.448-0.024v-0.07c0.168,0,0.334-0.01,0.519-0.024
	c0,0.025,0.008,0.051,0.024,0.071c0.099-0.03,0.203-0.039,0.306-0.024c0.027-0.1,0.041-0.1,0.165-0.095
	c0.026,0.036,0.058,0.068,0.094,0.095c0.026,0.008,0.854-0.052,0.943-0.071c0.449-0.1,1-0.016,1.461-0.119
	c0.268-0.059,0.575-0.005,0.872-0.071c0.35-0.065,0.705-0.097,1.061-0.095c0.046-0.182,0.166-0.337,0.33-0.428V13.53
	c-0.157-0.017-0.314-0.025-0.471-0.024V13.34c0.271-0.054,0.549-0.069,0.825-0.047h1.626v-0.167c0.26,0.024,0.521,0.008,0.777-0.048
	c-0.152-0.047-0.273-0.149-0.447-0.19c-0.351-0.083-0.813,0.028-1.109-0.047l-0.023-0.166c-0.316-0.01-0.632,0.014-0.943,0.071
	c-0.327,0.072-0.667,0.006-0.966,0.071h-0.33c-0.393,0.087-0.879,0.033-1.273,0.119l-0.636,0.024
	c-0.706,0.156-1.534,0.036-2.239,0.19h-0.33c-0.658,0.146-1.7-0.046-2.168,0.309C12.065,13.795,11.994,14.209,12.092,14.6z
	 M20.625,13.887l0.943-0.047v-0.073h0.07l-0.023-0.142h0.141V13.7h0.26v0.095h0.258L22.3,13.72
	c-0.101-0.052-0.188-0.125-0.259-0.214H20.53v0.024C20.633,13.617,20.671,13.759,20.625,13.887L20.625,13.887z M30.383,18.424h0.071
	c0.009,0.111,0,0.223-0.024,0.332h-0.047V18.424L30.383,18.424z"/>
</svg>
