<?xml version="1.0" encoding="utf-8"?>
<!-- Generator: Adobe Illustrator 16.0.0, SVG Export Plug-In . SVG Version: 6.00 Build 0)  -->
<!DOCTYPE svg PUBLIC "-//W3C//DTD SVG 1.1//EN" "http://www.w3.org/Graphics/SVG/1.1/DTD/svg11.dtd">
<svg version="1.1" id="Layer_1" xmlns="http://www.w3.org/2000/svg" xmlns:xlink="http://www.w3.org/1999/xlink" x="0px" y="0px"
	 width="39.969px" height="40px" viewBox="0 0 39.969 40" enable-background="new 0 0 39.969 40" xml:space="preserve">
<path id="Color_Fill_1" fill="#FFFFFF" d="M4.412,18.016H4.7v-0.199l0.145-0.049c0.204-0.063,0.419-0.08,0.63-0.05
	c0.054,0.071,0.088,0.155,0.1,0.244l1.116-0.046v-0.193h0.1c0.675-0.086,1.356-0.119,2.036-0.1c0.073,0.074,0.138,0.156,0.194,0.244
	h0.531c0.17-0.122,0.394-0.141,0.582-0.049c-0.001-0.199,0.033-0.398,0.1-0.585H7.273v-0.1c-0.089-0.173,0.056-0.7,0-1.023
	c-0.044-0.583-0.044-1.17,0-1.754c0.281-0.007,0.56-0.055,0.827-0.14c0.8-0.187,1.683,0.094,2.279-0.146v-0.054h0.048v-0.191h0.436
	v-0.1c-0.086-0.306-0.069-0.631,0.049-0.926H11.1v-0.383h3.539c-0.001-0.053,0.016-0.104,0.048-0.146
	c0.078-0.028,0.145-0.079,0.194-0.146c-0.163-0.016-0.316-0.084-0.436-0.195h0.145c0.077,0.06,0.216,0.085,0.291,0.146
	c0.083,0.15,0.132,0.316,0.146,0.487h0.048c-0.014-0.252-0.068-0.329,0.194-0.39c0.014,0.103,0.047,0.202,0.1,0.292
	c0.403-0.055,0.814-0.039,1.212,0.049v-0.097c-0.073-0.238-0.073-0.493,0-0.731h-0.1v-0.053c-0.049-0.048-0.048,0.048-0.048,0.049
	c-0.042,0.076-0.042,0.167,0,0.244h-0.142c-0.076-0.061-0.025-0.031-0.1,0c-0.045,0.108-0.11,0.207-0.191,0.291v0.049h-0.048v-0.049
	c-0.06-0.036-0.109-0.086-0.145-0.146c0.089-0.091,0.141-0.213,0.145-0.341c-0.02-0.012-0.037-0.029-0.048-0.049
	c-0.384-0.071-0.779-0.071-1.164,0l0.049,0.146h-0.1c-0.153-0.028-0.311,0.008-0.436,0.1c-0.005-0.282-0.054-0.561-0.145-0.828
	c0.312,0.063,0.619,0.145,0.921,0.244c0.474,0.031,0.949-0.019,1.406-0.146c0.296,0.011,0.589,0.06,0.873,0.146l0.049-0.439h0.1
	v0.439h1.891c-0.043-0.292-0.027-0.591,0.048-0.877v0.877h1.067c-0.028-0.1-0.01-0.207,0.049-0.292v0.244l0.728,0.1v0.195h-0.101
	c-0.26-0.014-0.52,0.002-0.776,0.049c-0.32-0.089-0.661-0.072-0.97,0.049c-0.067,0.075-0.046-0.1-0.048-0.1h-0.533l-0.049,0.146
	c-0.048-0.037-0.083-0.088-0.1-0.146c-0.337-0.061-0.682-0.061-1.018,0c0.044,0.329-0.043,0.661-0.242,0.926
	c-0.223,0.149-0.265-0.06-0.291,0.292c-0.035,0.357-0.035,0.716,0,1.072h-0.579c-0.036-0.373-0.053-0.747-0.049-1.121h-0.048v0.1
	c-0.071,0.103-0.121,0.218-0.145,0.341h-0.1c0.034-0.241,0.121-0.317,0.146-0.585l-1.164,0.049v0.1c0.03,0.047,0.1,0.974,0.1,0.974
	c0.11,0.042,0.224,0.075,0.339,0.1v0.181c0.207-0.061,0.417-0.11,0.63-0.146v0.146c0.325,0.008,0.649,0.041,0.97,0.1
	c0.01-0.089,0.045-0.174,0.1-0.244l1.743,0.244v0.146h-0.194v0.054c0.026,0.027,0.043,0.063,0.048,0.1
	c0.473,0.017,0.77,0.144,1.5,0.146v-0.153H20.8v0.244h0.437c0.058,0.24,0.132,0.255,0.436,0.244
	c0.014-0.085,0.068-0.158,0.146-0.195C22,15.275,23.16,15.116,23.9,15.091v-0.1c0.045-0.04,0.093,0.1,0.1,0.1l0.436-0.049
	c0.235,0.217,0.568,0.292,0.873,0.195h2.183c0.2,0.4,1.125,0.244,1.7,0.244h5.139c0.397,0.091,0.809,0.107,1.212,0.049
	c0.824,0.043,1.651,0.026,2.474-0.049c0.237-0.052,0.385-0.289,0.678-0.341c0.387,0.15,0.799,0.217,1.213,0.195
	c0.074,0.37,0.074,0.751,0,1.121c-0.378,0.109-0.773,0.144-1.164,0.1c-0.244,0.233-0.5-0.168-0.727-0.244l-2.521-0.049
	c-0.596,0.071-1.195,0.087-1.794,0.049h-3.494l-2.618,0.049c-0.064,0.096-0.146,0.179-0.242,0.244h-2.861v0.146h-1.699v0.1
	c0.08,0.067,0.146,0.15,0.193,0.244c-0.509,0.011-0.899,0.078-1.261,0.049l0.101,0.584h1.261c0.04,0.057,0.089,0.105,0.146,0.146
	c0.086-0.059,0.187-0.093,0.291-0.1c0.098,0.01,0.194,0.025,0.291,0.049v0.1c0.174,0.079,0.408-0.115,0.582-0.049v0.1l1.163,0.041
	c0.134,0.032,0.535,0.035,0.582,0.049c0.115,0.035,0.2,0.193,0.339,0.244c0.168-0.23,0.159,0.012,0.582,0.049v-0.241H27.2v0.239
	c0.079-0.018,0.162-0.018,0.241,0c0.24,0.162,0.452,0.359,0.631,0.586c-0.067,0.005-0.133,0.021-0.194,0.049v0.146
	c0.487,0.018,0.975-0.017,1.455-0.1c0.119-0.378,0.149-0.466,0.679-0.438c0.027-0.026,0.063-0.044,0.1-0.049v0.146H30.3v0.1
	c0.239,0.346-0.075,0.6-0.1,1.072h0.2c0.014-0.085,0.068-0.158,0.146-0.195c0.045,0.241,0.161,0.211,0.437,0.195
	c0.105-0.047,0.223-0.064,0.338-0.049v0.244c-0.146,0.03-0.26,0.145-0.29,0.291c0.69,0.104,1.352,0.353,1.938,0.731v0.101h-0.048
	c-0.024-0.041-0.06-0.076-0.101-0.101v0.146c0.4,0.316,0.572,0.9,0.971,1.219c-0.014,0.17-0.063,0.336-0.145,0.486
	c-0.146,0.137-0.365,0.157-0.533,0.049v0.195c0.248,0.416-0.301,1.322-0.437,1.56c-0.543,0.971-3.069,2.071-4.218,2.534
	c-0.969,0.225-1.968,0.291-2.958,0.194H10.812c-2.862,0-5.2-0.011-7.176-0.827c-1.171-0.484-2.245-0.673-2.667-1.9
	c-0.186-0.699-0.062-1.444,0.339-2.047c0.163-0.133,0.296-0.3,0.392-0.488c-0.071-0.054-0.154-0.088-0.242-0.1
	c-0.191,0.125-0.577,0.009-0.776,0.146l-0.048,0.195H0.291C0.205,22.324,0.107,22.211,0,22.107c0.037-0.234,0.102-0.463,0.194-0.682
	v0.1c0.033,0.037,0.064,0.109,0.1,0.146c0.506-0.236,0.993-0.514,1.455-0.828C1.56,20.293,1.446,19.72,1.41,19.139H1.5
	c0.215-0.091,0.445-0.141,0.679-0.146l0.194,1.169c0.276,0.04,0.558,0.021,0.827-0.053c-0.149-0.016-0.295-0.049-0.436-0.1v-0.582
	c0.232,0,0.291,0.014,0.339-0.1c-0.07-0.021-0.125-0.076-0.145-0.146c0.174-0.02,0.122,0.023,0.194-0.1
	c-0.012-0.074-0.07-0.134-0.145-0.146c-0.042-0.031-0.093-0.048-0.145-0.049c0.04-0.158-0.024-0.074,0.1-0.146
	c0.058,0.036,0.126,0.054,0.194,0.049c0.042-0.06,0.076-0.126,0.1-0.195c-0.157-0.04-0.074,0.024-0.145-0.1
	c0.455-0.108,0.15-0.653,0.582-0.731c0.028,0.131,0.096,0.25,0.194,0.342c0.094-0.042,0.191-0.076,0.291-0.101
	c0.172-2.687,0.1-5.491,0.1-8.283v-2.28C4.232,7.134,4.245,6.819,4.315,6.516v7.211C4.262,15.157,4.294,16.589,4.412,18.016z
	 M16.63,11.34c0.121,0.067,0.268,0.067,0.388,0H16.63z M17.5,11.632c-0.195-0.014-0.392,0.003-0.582,0.049
	c-0.059,0.264-0.024,0.54,0.1,0.78c0.074,0.041,0.158,0.058,0.242,0.049c0.123-0.069,0.197-0.2,0.194-0.341
	C17.51,11.996,17.526,11.812,17.5,11.632z M10.473,14.116c0.083,0.043,0.062,0.043,0.146,0H10.473z M38.5,16.216v-0.637
	c-0.132,0.023-0.262,0.057-0.389,0.1c-0.036,0.127-0.053,0.259-0.047,0.39l0.142,0.047C38.291,16.18,38.395,16.215,38.5,16.216z
	 M38.889,15.631v0.536h0.1c0.205,0.065,0.425,0.065,0.63,0v-0.54h-0.733L38.889,15.631z M4.8,17.869
	c0.04,0.158-0.024,0.074,0.1,0.146c0.065-0.071,0.149-0.122,0.242-0.146H4.8z M5.285,17.869v0.1c0.174-0.02,0.122,0.023,0.194-0.1
	H5.285z M30.061,19.623h-0.242v0.049h0.1c0.014,0.085,0.068,0.158,0.146,0.195v-0.244H30.061z M2.425,20.5l0.436-0.146v-0.146H2.376
	v0.049C2.416,20.33,2.433,20.416,2.425,20.5L2.425,20.5z M2.91,20.208c0.027,0.026,0.062,0.044,0.1,0.049
	C2.983,20.229,2.947,20.212,2.91,20.208L2.91,20.208z M3.2,20.5c-0.083,0.055-0.137,0.145-0.145,0.244h0.1
	c0.037-0.033,0.108-0.064,0.145-0.1C3.264,20.607,3.233,20.537,3.2,20.5z M3.3,21.377c0.027,0.027,0.063,0.044,0.1,0.049
	C3.373,21.399,3.338,21.382,3.3,21.377z M3.006,22.741v-0.146H2.667v0.101h0.048C2.806,22.738,2.907,22.754,3.006,22.741z
	 M2.327,22.741c-0.067,0.08-0.149,0.146-0.242,0.194c0.012,0.021,0.028,0.037,0.048,0.049c0.075,0.101,0.17,0.14,0.242,0.244h0.049
	V23.18c0.026-0.027,0.043-0.063,0.048-0.1C2.458,22.955,2.408,22.837,2.327,22.741z M2.763,22.841
	c0.052,0.081,0.148,0.121,0.242,0.101v-0.101H2.763L2.763,22.841z M1.842,23.23L1.7,23.568l0.433,0.048
	c0.025-0.063,0.042-0.128,0.048-0.195L1.842,23.23z M2.036,24.157v-0.198h-0.1c-0.094-0.041-0.191-0.075-0.291-0.1v0.39H1.7
	c0.102-0.06,0.218-0.092,0.336-0.095V24.157z M2.036,24.449c-0.09,0.063-0.255,0.078-0.339,0.146
	c0.058,0.114,0.14,0.214,0.242,0.292c0.098-0.1,0.18-0.215,0.242-0.341H2.133c-0.062-0.122,0.021-0.035-0.097-0.1V24.449z
	 M4.46,24.839c0.027,0.026,0.063,0.044,0.1,0.049c-0.026-0.027-0.061-0.046-0.099-0.052L4.46,24.839z M2.375,24.888
	c-0.082,0.098-0.181,0.181-0.291,0.244v0.05h0.049c0.033,0.102,0.136,0.164,0.242,0.146c0.084-0.114,0.135-0.249,0.145-0.39
	L2.375,24.888z M3.927,24.888c-0.057,0.05-0.092,0.12-0.1,0.195c0.058,0.114,0.14,0.214,0.242,0.292v-0.052
	c0.106-0.026,0.195-0.098,0.242-0.195c-0.145-0.074-0.236-0.166-0.384-0.243V24.888z M6.157,25.083l-1.309-0.195
	c-0.201,0.499-0.637,0.865-1.164,0.974c0.027,0.027,0.062,0.045,0.1,0.05c0.79,0.376,1.646,0.592,2.521,0.633v-0.101
	c-0.263-0.405-0.317-0.911-0.147-1.363L6.157,25.083z M3.006,25.616v-0.439c-0.038-0.004-0.073-0.021-0.1-0.049h-0.1
	c-0.018,0.11-0.069,0.212-0.145,0.292c0.004,0.038,0.021,0.073,0.048,0.1C2.795,25.583,2.899,25.616,3.006,25.616z M3.345,25.616
	c0.115-0.003,0.229-0.02,0.339-0.05v-0.15c-0.058-0.114-0.141-0.214-0.242-0.292v0.049C3.328,25.29,3.29,25.462,3.345,25.616z
	 M29.575,25.129h-0.92v0.049c0.172,0.354,0.172,0.768,0,1.121h0.1c0.315-0.279,1.44-0.5,1.5-0.926
	c-0.026-0.027-0.043-0.063-0.048-0.1c-0.063-0.023-0.131-0.023-0.193,0c-0.081,0.076-0.183,0.127-0.291,0.146
	c-0.027-0.026-0.063-0.044-0.101-0.049v-0.047h-0.046L29.575,25.129L29.575,25.129z M11.636,25.665
	c-0.01,0.375-0.146,0.735-0.388,1.022h0.873v-0.1c-0.239-0.25-0.378-0.58-0.388-0.926h-0.1L11.636,25.665z M17.357,25.665
	c-0.023,0.372-0.159,0.729-0.388,1.022h0.873v-0.049C17.577,26.416,17.575,25.794,17.357,25.665L17.357,25.665z M23.078,25.665
	c-0.014,0.374-0.149,0.733-0.389,1.022h0.873v-0.049c-0.266-0.252-0.407-0.608-0.388-0.975h-0.1L23.078,25.665z M8.778,25.811v0.146
	h0.143v-0.146H8.776H8.778z M14.499,25.811c0.04,0.158-0.024,0.074,0.1,0.146v-0.049c0.027-0.027,0.044-0.063,0.049-0.1H14.5
	L14.499,25.811z M20.22,25.811c0.04,0.158-0.024,0.074,0.1,0.146v-0.146H20.22z M25.941,25.811c0.039,0.158-0.024,0.074,0.1,0.146
	v-0.146H25.941z M8.729,26.493c-0.074,0.04-0.158,0.058-0.242,0.049l-0.1,0.146h0.874v-0.1c-0.165-0.081-0.351-0.114-0.534-0.095
	H8.729z M14.208,26.493c-0.022,0.069-0.056,0.136-0.1,0.194h0.873v-0.049c-0.099-0.068-0.218-0.104-0.339-0.1
	c-0.139-0.051-0.289-0.066-0.436-0.046H14.208z M19.929,26.493c-0.022,0.069-0.056,0.136-0.1,0.194H20.7v-0.049
	c-0.115-0.074-0.251-0.109-0.388-0.1c-0.122-0.049-0.255-0.064-0.385-0.046H19.929z M25.65,26.493
	c-0.022,0.069-0.057,0.136-0.101,0.194h0.873v-0.049c-0.115-0.074-0.251-0.109-0.388-0.1c-0.123-0.049-0.256-0.064-0.387-0.046
	H25.65z"/>
</svg>
