<?xml version="1.0" encoding="utf-8"?>
<!-- Generator: Adobe Illustrator 16.0.0, SVG Export Plug-In . SVG Version: 6.00 Build 0)  -->
<!DOCTYPE svg PUBLIC "-//W3C//DTD SVG 1.1//EN" "http://www.w3.org/Graphics/SVG/1.1/DTD/svg11.dtd">
<svg version="1.1" id="Layer_1" xmlns="http://www.w3.org/2000/svg" xmlns:xlink="http://www.w3.org/1999/xlink" x="0px" y="0px"
	 width="40px" height="40px" viewBox="0 0 40 40" enable-background="new 0 0 40 40" xml:space="preserve">
<path id="sw_pvrbv_551_ico" fill="#FFFFFF" d="M4.653,12.131v0.632h0.173c0.001-0.06,0.013-0.119,0.035-0.175
	c0.104,0.013,0.209,0.013,0.313,0c0.002-0.083,0.014-0.166,0.035-0.246c0.037-0.018,0.071-0.041,0.1-0.07
	c0.026,0.003,0.05,0.016,0.069,0.035c0.089,0.054,0.152,0.144,0.174,0.246c0.16-0.04,0.327-0.04,0.486,0h1.393
	c0.063,0.066,0.121,0.137,0.174,0.211h1.11c-0.02-0.057-0.02-0.119,0-0.175c0.509,0.032,1.02,0.032,1.528,0h0.486
	c0.089,0.082,0.197,0.142,0.313,0.175c0.2-0.361,1.369-0.22,1.91-0.211l0.035-0.211c0.037-0.018,0.071-0.041,0.1-0.07
	c0.048,0.02,0.095,0.043,0.139,0.07c0.068-0.019,0.138-0.031,0.208-0.035c0.1,0.039,0.064,0.006,0.1,0.105
	c0.048,0.115,0.035,0.247-0.035,0.351H14.9c0.189-0.286,2-0.2,2.222-0.14c-0.019,0.045-0.03,0.092-0.035,0.14
	c0.2-0.032,0.441-0.13,0.625-0.175l1.389-0.07c0.204-0.052,0.415-0.075,0.625-0.07c0.079,0.061,0.18,0.086,0.278,0.07
	c0.308-0.07,0.623-0.093,0.938-0.07c0.568,0.043,1.139,0.02,1.701-0.07l-0.209-0.07V12.1h-0.177
	c-0.009-0.094-0.024-0.369-0.034-0.386c-0.028-0.05-0.084-0.077-0.14-0.07c0.125-0.672,0.137-1.36,0.035-2.036
	c0.043-0.138,0.076-0.278,0.1-0.421c-0.132-0.099-0.21-0.255-0.208-0.421c-0.184-0.027-0.369-0.039-0.556-0.035V7.989
	c0.067-0.016,0.128-0.053,0.174-0.105c0.212,0.073,0.441,0.085,0.66,0.035c0.002-0.083,0.014-0.166,0.035-0.246H22.4
	c0.272-0.064,0.555-0.077,0.832-0.035c0.038,0.052,0.063,0.112,0.069,0.175h0.175v-0.14c-0.037,0-0.072-0.013-0.101-0.035h0.069
	c0.112-0.056,0.248-0.042,0.347,0.035h-0.146v0.14h0.867c0.073-0.035-0.007-0.124,0.139-0.07c0.089,0.051,0.039-0.008,0.07,0.105
	c0.387,0,0.639,0.009,0.971,0.035v1.053h0.869V8.831h1.979V8.55c0.212,0.028,0.422,0.075,0.625,0.14h1.042
	c0.794,0,1.656,0,2.399-0.035v1.58C31.876,10.2,31.025,10.2,30.243,10.2H29.2c-0.216,0.051-0.494,0.142-0.729,0.175
	c-0.285,0.041-0.765-0.109-1.111-0.035c-0.316,0.067-0.869-0.09-1.284,0c-0.255,0.021-0.51,0.021-0.765,0l-1.181,0.035v0.246
	l0.07,0.036c0.03,0.019,0.064,0.031,0.1,0.035c-0.046,0.314-0.069,0.631-0.069,0.948h-0.1l-0.035,0.07h-0.033v0.035
	c0.201,0,0.207,0.012,0.209,0.211c-0.067,0.023-0.138,0.035-0.209,0.035V12.1h-0.209c0,0.038,0.013,0.075,0.035,0.105
	c0.965,0.305,1.988,0.377,2.986,0.211c0.329-0.003,0.657,0.045,0.973,0.141c-0.016-0.084,0.024-0.169,0.1-0.211
	c0.088-0.035,0.184-0.047,0.277-0.035c0-0.038-0.012-0.075-0.035-0.105c-0.113-0.015-0.215-0.079-0.277-0.176
	c-0.033-0.079-0.033-0.168,0-0.246c0.088-0.04,0.182-0.063,0.277-0.07c0.296,0.068,0.602,0.08,0.9,0.035V11.64h0.764v0.105
	c0.884-0.075,1.773-0.016,2.64,0.175c0.372-0.02,0.712,0.21,0.833,0.562h0.139v0.07c-0.092,0.057-0.085,0.026-0.068,0.105
	c0.331,0.064,0.67,0.087,1.006,0.07v0.211c-0.061,0.156-0.085,0.325-0.068,0.492c0.242,0.104,0.439,0.291,0.557,0.527l0.034,0.105
	c0.247,0.051,0.47,0.188,0.625,0.386c-0.045,0.037-0.079,0.085-0.1,0.14c0.19,0.034,0.1,0.111,0.208,0.175
	c0.068,0.019,0.138,0.03,0.208,0.035c0.013,0.089-0.021,0.056,0.1,0.07v-0.455c-0.062,0.015-0.12,0.038-0.174,0.069
	c-0.003-0.025-0.016-0.051-0.035-0.069c0.027-0.115,0.027-0.235,0-0.351c0.2-0.061,0.252-0.037,0.243-0.316
	c-0.082-0.176-0.105-0.372-0.068-0.563c-0.049-0.528-0.016-1.062,0.1-1.58c0.025,0.003,0.051,0.016,0.068,0.035
	c0.106,0.316,0.141,0.652,0.101,0.983h0.1v-0.14c0.113,0.029,0.054-0.017,0.101,0.07c-0.058,0.407-0.08,0.818-0.069,1.229
	c0.063,0.092,0.088,0.205,0.069,0.316c-0.119,0.397-0.166,0.813-0.14,1.229c0.187-0.016,0.374-0.004,0.556,0.035
	c0.017,0.308,0.035,0.244,0.035,0.562h0.059c0.16-0.137,0.351-0.233,0.556-0.28l0.208,0.351c-0.004,0.026-0.016,0.051-0.035,0.069
	c-0.211,0.162-0.445,0.291-0.693,0.387v0.035c0.056,0.022,0.118,0.022,0.174,0c0.192-0.092,0.389-0.174,0.59-0.246
	c0.115,0.078,0.182,0.211,0.174,0.351c0.041,0.052,0.041,0.124,0,0.177c0-0.039-0.012-0.075-0.035-0.105
	c-0.168,0.132-0.355,0.238-0.556,0.316v0.034c0.151-0.002,0.302-0.014,0.451-0.034c0.058,0.062,0.104,0.133,0.139,0.211
	c-0.068,0.063-0.104,0.152-0.1,0.246l-0.278,0.14c0.009,0.015,0.021,0.026,0.035,0.034c0.125,0.197,0.29,0.365,0.486,0.492
	c0.083-0.084,0.194-0.135,0.313-0.141h0.035l-0.208,0.527h1.175v1.438L40,19.96v0.14h-0.174v0.668h-0.451
	c-0.145,0.084-0.264,0.205-0.348,0.351c0.043,0.157,0.101,0.311,0.175,0.456h-0.07c-0.036-0.062-0.171-0.233-0.208-0.176
	c-0.049,0.045-0.063,0.115-0.035,0.176c0.033,0.1,0.08,0.193,0.139,0.281c-0.1,0-0.047-0.034-0.1,0
	c-0.072,0.078-0.1,0.199-0.174,0.28c0.068,0.224,0.188,0.459,0.243,0.7c0.33,1.419-1.24,2.374-1.91,2.879
	c-0.601,0.454-1.16,0.979-1.771,1.439c-0.228,0.219-0.471,0.419-0.729,0.6c-0.406,0.117-0.827,0.177-1.25,0.176
	c-0.368,0.051-0.74,0.063-1.11,0.035c-0.102-0.029-0.207-0.042-0.313-0.035c-0.298,0.047-0.6,0.059-0.9,0.035
	c-0.89-0.113-1.931,0.1-2.847-0.035c-0.3-0.044-0.712,0.053-0.972,0c-0.105-0.007-0.211,0.005-0.313,0.035
	c-0.371,0.021-0.742,0.01-1.111-0.035l-0.451,0.035c-0.512-0.077-1.199,0.067-1.699-0.035l-0.451,0.035
	c-0.5-0.064-1.2,0.066-1.7-0.035c-0.197-0.014-0.396-0.002-0.59,0.035c-0.466,0-0.9-0.072-1.354-0.035
	c-0.299,0.035-0.601,0.035-0.9,0c-0.382-0.076-0.755,0.088-1.146,0.035c-0.381-0.033-0.764-0.045-1.146-0.035l-0.312,0.035
	c-0.265-0.037-0.533-0.049-0.8-0.035c-0.289,0.037-0.58,0.037-0.868,0c-0.366-0.074-0.8,0.088-1.181,0.035
	c-0.881-0.121-1.954,0.01-2.882-0.035c-0.313,0.02-0.625,0.02-0.938,0c-0.406-0.082-0.929,0.12-1.424,0
	c-0.542-0.166-1.068-0.377-1.575-0.63c-0.678-0.29-1.339-0.477-2.014-0.772c-0.443-0.258-0.923-0.447-1.424-0.562
	c-0.055,0.079-0.057,0.074-0.1,0.07c-0.016-0.067-0.05-0.128-0.1-0.177c-0.144-0.073-0.283-0.155-0.417-0.245l-0.208,0.104
	c-0.022-0.25-0.148-0.479-0.347-0.632l-0.208,0.035c0.034-0.065,0.046-0.139,0.035-0.211c-0.091-0.343-0.385-0.422-0.486-0.737
	h0.026v-0.036h0.035V24.1L1.111,24.03C1.081,23.934,1,23.779,0.972,23.682V23.4c-0.191-0.053-0.377-0.123-0.555-0.211v-0.455
	c-0.06-0.006-0.121,0.006-0.174,0.035C0.087,22.688-0.008,22.523,0,22.348c0.091-0.1-0.011-0.066,0.035-0.176
	s0.079-0.107,0.243-0.105c0.019,0.02,0.043,0.031,0.069,0.035V21.47c0.072-0.114,0.107-0.25,0.1-0.386
	c0.155-0.031,0.307-0.078,0.453-0.141c-0.062-0.094-0.086-0.206-0.069-0.316h0.315c0.151-0.3,0.648-0.54,0.694-0.7
	c-0.049,0.004-0.099-0.009-0.14-0.036c0.124-0.016,0.087,0.017,0.139-0.07c-0.059-0.068-0.083-0.158-0.069-0.246
	c-0.085,0.002-0.169,0.025-0.243,0.07c-0.169-0.355-0.319-0.719-0.451-1.088c0.214-0.216,0.391-0.465,0.524-0.738
	c0.168-0.039,0.317-0.139,0.417-0.28H1.146v-1.511h0.868v-0.315c-0.094,0-0.056,0.047-0.1-0.069
	c0.091-0.098,0.151-0.221,0.174-0.352c-0.133,0.021-0.256-0.07-0.277-0.203c0-0.003,0-0.006-0.001-0.008
	c0.132-0.321,0.333-0.609,0.59-0.843c0.038,0.038,0.086,0.062,0.139,0.069c0.05-0.193,0.181-0.305,0.243-0.49
	c0.1,0.011,0.072,0.037,0.139,0c0.203-0.294,0.387-0.6,0.551-0.917l0.035-0.14h0.451c-0.059-0.517-0.025-1.04,0.1-1.545V-1.841
	C4.004-2.227,4.018-2.619,4.1-3c0,3.525,0.035,7.132,0.035,10.708v3.335c0,0.298,0.047,0.595,0.139,0.878
	c0.011,0.11-0.013,0.221-0.069,0.316h0.066C4.326,12.1,4.464,12.12,4.653,12.131z M37.466,15.326h0.069
	C37.494,15.383,37.52,15.369,37.466,15.326L37.466,15.326z M37.396,15.361h0.069V15.4c-0.025-0.006-0.049-0.02-0.065-0.039H37.396z
	 M37.328,15.396H37.4v0.035c-0.027-0.002-0.055-0.014-0.074-0.031L37.328,15.396z M37.259,15.432h0.069v0.034
	c-0.027-0.003-0.052-0.015-0.071-0.034H37.259z M37.189,15.466h0.069V15.5c-0.026-0.002-0.052-0.014-0.071-0.033L37.189,15.466z
	 M37.676,15.641c0.02,0.02,0.031,0.044,0.035,0.07h-0.037v-0.07H37.676z M37.711,15.711c0.019,0.02,0.031,0.043,0.035,0.07h-0.038
	v-0.07H37.711z M37.746,15.781c0.019,0.019,0.031,0.043,0.035,0.07h-0.038v-0.07H37.746z M37.781,15.921
	c0.041,0.052,0.041,0.124,0,0.177v-0.175V15.921z M37.816,16.167c0.037,0.039,0.037,0.101,0,0.14V16.167z M37.916,16.834
	c0.038,0.039,0.038,0.102,0,0.141V16.834z M37.951,17.045c0.039,0.039,0.039,0.102,0,0.141V17.045L37.951,17.045z M37.986,17.256
	c0.043,0.063,0.043,0.147,0,0.211V17.256L37.986,17.256z M37.917,17.467h0.069V17.5C37.96,17.497,37.936,17.486,37.917,17.467
	L37.917,17.467z M37.848,17.502h0.069v0.035c-0.026-0.004-0.052-0.018-0.069-0.037V17.502z M37.779,17.537h0.068v0.035
	c-0.026-0.004-0.051-0.016-0.07-0.034L37.779,17.537z M37.71,17.572h0.069v0.035c-0.027-0.004-0.053-0.016-0.071-0.034L37.71,17.572
	z M1.146,19.925h0.278v0.035c-0.025,0.042-0.038,0.091-0.035,0.14H1.146V19.925z"/>
</svg>
