<svg xmlns="http://www.w3.org/2000/svg" width="40" height="40" viewBox="0 0 40 40">
  <defs>
    <style>
      .cls-1 {
        fill: #fff;
        fill-rule: evenodd;
      }
    </style>
  </defs>
  <path id="sw_pvrbv_551_ico" class="cls-1" d="M4.653,19.131v0.632H4.826a0.508,0.508,0,0,1,.035-0.175,1.245,1.245,0,0,0,.313,0,1.08,1.08,0,0,1,.035-0.246,0.378,0.378,0,0,0,.1-0.07,0.119,0.119,0,0,1,.069.035,0.38,0.38,0,0,1,.174.246,1,1,0,0,1,.486,0H7.431a1.837,1.837,0,0,1,.174.211H8.715a0.267,0.267,0,0,1,0-.175,12.355,12.355,0,0,0,1.528,0h0.486a0.789,0.789,0,0,0,.313.175c0.2-.361,1.369-0.22,1.91-0.211l0.035-.211a0.378,0.378,0,0,0,.1-0.07,0.992,0.992,0,0,1,.139.07,0.956,0.956,0,0,1,.208-0.035c0.1,0.039.064,0.006,0.1,0.105a0.372,0.372,0,0,1-.035.351H14.9c0.189-.286,2-0.2,2.222-0.14a0.5,0.5,0,0,0-.035.14c0.2-.032.441-0.13,0.625-0.175l1.389-.07a2.325,2.325,0,0,1,.625-0.07,0.358,0.358,0,0,0,.278.07,3.184,3.184,0,0,1,.938-0.07,7.22,7.22,0,0,0,1.7-.07l-0.208-.07V19.1H22.257c-0.009-.094-0.024-0.369-0.035-0.386a0.138,0.138,0,0,0-.139-0.07,6.148,6.148,0,0,0,.035-2.036,3.076,3.076,0,0,0,.1-0.421,0.517,0.517,0,0,1-.208-0.421,3.341,3.341,0,0,0-.556-0.035V14.989a0.333,0.333,0,0,0,.174-0.105,1.2,1.2,0,0,0,.66.035,1.079,1.079,0,0,1,.035-0.246H22.4a2.19,2.19,0,0,1,.833-0.035,0.374,0.374,0,0,1,.069.175h0.174v-0.14a0.167,0.167,0,0,1-.1-0.035h0.069a0.326,0.326,0,0,1,.347.035H23.646v0.14h0.868c0.073-.035-0.007-0.124.139-0.07,0.088,0.051.039-.008,0.069,0.105,0.387,0,.639.009,0.972,0.035v1.053h0.868V15.831h1.979V15.55a3.614,3.614,0,0,1,.625.14h1.042c0.794,0,1.656,0,2.4-.035v1.58C31.876,17.2,31.026,17.2,30.243,17.2H29.2c-0.215.051-.494,0.142-0.729,0.175-0.286.041-.765-0.109-1.111-0.035-0.317.067-.87-0.09-1.285,0a4.534,4.534,0,0,1-.764,0l-1.181.035v0.246L24.2,17.657a0.241,0.241,0,0,0,.1.035,6.566,6.566,0,0,0-.069.948h-0.1l-0.035.07H24.063v0.035c0.2,0,.207.012,0.208,0.211a0.626,0.626,0,0,1-.208.035V19.1H23.854a0.171,0.171,0,0,0,.035.105,6.4,6.4,0,0,0,2.986.211,3.239,3.239,0,0,1,.972.141,0.2,0.2,0,0,1,.1-0.211,0.544,0.544,0,0,1,.278-0.035,0.171,0.171,0,0,0-.035-0.105,0.39,0.39,0,0,1-.278-0.176,0.314,0.314,0,0,1,0-.246,0.8,0.8,0,0,1,.278-0.07,2.4,2.4,0,0,0,.9.035V18.64h0.764v0.105a8.812,8.812,0,0,1,2.639.175,0.835,0.835,0,0,1,.833.562h0.139v0.07c-0.092.057-.085,0.026-0.069,0.105a4.158,4.158,0,0,0,1.007.07v0.211a1.058,1.058,0,0,0-.069.492,1.1,1.1,0,0,1,.556.527l0.035,0.105a1.068,1.068,0,0,1,.625.386,0.333,0.333,0,0,0-.1.14c0.191,0.034.1,0.111,0.208,0.175a1.126,1.126,0,0,0,.208.035c0.013,0.089-.02.055,0.1,0.07V21.413a0.6,0.6,0,0,0-.174.07,0.121,0.121,0,0,0-.035-0.07,0.766,0.766,0,0,0,0-.351c0.2-.06.252-0.037,0.243-0.316a0.919,0.919,0,0,1-.069-0.562,5.151,5.151,0,0,1,.1-1.58,0.118,0.118,0,0,1,.069.035,2.241,2.241,0,0,1,.1.983h0.1V19.482c0.113,0.029.053-.017,0.1,0.07a7.393,7.393,0,0,0-.069,1.229,0.429,0.429,0,0,1,.069.316,3.508,3.508,0,0,0-.139,1.229,1.909,1.909,0,0,1,.556.035c0.016,0.308.034,0.244,0.035,0.562H36.91a1.312,1.312,0,0,1,.556-0.281l0.208,0.351a0.121,0.121,0,0,1-.035.07,2.8,2.8,0,0,1-.694.386v0.035a0.228,0.228,0,0,0,.174,0,6.267,6.267,0,0,1,.59-0.246,0.4,0.4,0,0,1,.174.351,0.142,0.142,0,0,1,0,.176,0.171,0.171,0,0,0-.035-0.105,2.183,2.183,0,0,1-.556.316v0.035a3.711,3.711,0,0,0,.451-0.035,0.787,0.787,0,0,1,.139.211,0.312,0.312,0,0,0-.1.246l-0.278.14a0.1,0.1,0,0,0,.035.035,1.606,1.606,0,0,0,.486.491,0.479,0.479,0,0,1,.313-0.14h0.035l-0.208.527H39.34v1.439L40,26.96V27.1H39.826v0.667H39.375a0.961,0.961,0,0,0-.347.351,2.307,2.307,0,0,0,.174.456H39.132c-0.036-.061-0.171-0.233-0.208-0.175a0.151,0.151,0,0,0-.035.175,1.157,1.157,0,0,0,.139.281c-0.1,0-.048-0.034-0.1,0-0.072.078-.1,0.2-0.174,0.281,0.068,0.223.187,0.459,0.243,0.7,0.33,1.419-1.24,2.374-1.91,2.879-0.6.454-1.16,0.979-1.771,1.439a6.081,6.081,0,0,1-.729.6,4.464,4.464,0,0,1-1.25.176,5.347,5.347,0,0,1-1.111.035,0.89,0.89,0,0,0-.312-0.035,3.914,3.914,0,0,1-.9.035c-0.89-.113-1.931.1-2.847-0.035-0.3-.044-0.712.053-0.972,0a0.874,0.874,0,0,0-.312.035,6.266,6.266,0,0,1-1.111-.035l-0.451.035c-0.512-.077-1.2.067-1.7-0.035l-0.451.035c-0.5-.064-1.2.066-1.7-0.035a2.271,2.271,0,0,0-.59.035c-0.466,0-.9-0.072-1.354-0.035a3.915,3.915,0,0,1-.9,0c-0.382-.077-0.755.087-1.146,0.035a9.811,9.811,0,0,0-1.146-.035l-0.312.035a4.181,4.181,0,0,0-.8-0.035,3.4,3.4,0,0,1-.868,0c-0.366-.075-0.8.087-1.181,0.035-0.881-.121-1.954.009-2.882-0.035a7.706,7.706,0,0,1-.938,0c-0.406-.083-0.929.12-1.424,0A10.247,10.247,0,0,1,6.354,34.3c-0.678-.29-1.339-0.477-2.014-0.772a5.068,5.068,0,0,0-1.424-.562c-0.055.079-.057,0.074-0.1,0.07a0.357,0.357,0,0,0-.1-0.176,4.252,4.252,0,0,1-.417-0.246l-0.208.105a0.9,0.9,0,0,0-.347-0.632l-0.208.035a0.341,0.341,0,0,0,.035-0.211c-0.091-.342-0.385-0.422-0.486-0.737H1.111V31.138H1.146V31.1l-0.035-.07C1.081,30.934,1,30.779.972,30.682V30.4A3.094,3.094,0,0,1,.417,30.19V29.734a0.3,0.3,0,0,0-.174.035A0.45,0.45,0,0,1,0,29.348c0.091-.1-0.011-0.067.035-0.176s0.079-.108.243-0.105a0.124,0.124,0,0,0,.069.035V28.47a0.657,0.657,0,0,0,.1-0.386A2.228,2.228,0,0,0,.9,27.943a0.449,0.449,0,0,1-.069-0.316H1.146c0.151-.3.648-0.54,0.694-0.7A0.222,0.222,0,0,1,1.7,26.89c0.124-.015.087,0.017,0.139-0.07a0.3,0.3,0,0,1-.069-0.246,0.5,0.5,0,0,0-.243.07,11.319,11.319,0,0,1-.451-1.088A2.738,2.738,0,0,0,1.6,24.819a0.711,0.711,0,0,0,.417-0.281H1.146v-1.51H2.014V22.712c-0.094,0-.056.047-0.1-0.07a0.684,0.684,0,0,0,.174-0.351,0.243,0.243,0,0,1-.278-0.211,2.348,2.348,0,0,1,.59-0.843,0.246,0.246,0,0,0,.139.07c0.05-.194.181-0.305,0.243-0.491,0.1,0.011.072,0.037,0.139,0A8.6,8.6,0,0,0,3.472,19.9l0.035-.14H3.958a4.375,4.375,0,0,1,.1-1.545V5.159A3.327,3.327,0,0,1,4.1,4c0,3.525.035,7.132,0.035,10.708v3.335a2.817,2.817,0,0,0,.139.878,0.527,0.527,0,0,1-.069.316H4.271C4.326,19.1,4.464,19.12,4.653,19.131Zm32.813,3.195h0.069C37.494,22.383,37.52,22.369,37.465,22.326Zm-0.069.035h0.069V22.4A0.119,0.119,0,0,1,37.4,22.361Zm-0.069.035H37.4v0.035A0.119,0.119,0,0,1,37.326,22.4Zm-0.069.035h0.069v0.035A0.12,0.12,0,0,1,37.257,22.432Zm-0.069.035h0.069V22.5A0.118,0.118,0,0,1,37.188,22.467Zm0.486,0.175a0.127,0.127,0,0,1,.035.07H37.674v-0.07Zm0.035,0.07a0.127,0.127,0,0,1,.035.07H37.708v-0.07Zm0.035,0.07a0.127,0.127,0,0,1,.035.07H37.743v-0.07Zm0.035,0.14a0.142,0.142,0,0,1,0,.176V22.923Zm0.035,0.246a0.1,0.1,0,0,1,0,.14v-0.14Zm0.1,0.667a0.1,0.1,0,0,1,0,.14v-0.14Zm0.035,0.211a0.1,0.1,0,0,1,0,.141V24.046Zm0.035,0.211a0.187,0.187,0,0,1,0,.211V24.257Zm-0.069.211h0.069V24.5A0.118,0.118,0,0,1,37.917,24.468Zm-0.069.035h0.069v0.035A0.118,0.118,0,0,1,37.847,24.5Zm-0.069.035h0.069v0.035A0.118,0.118,0,0,1,37.778,24.538Zm-0.069.035h0.069v0.035A0.119,0.119,0,0,1,37.708,24.573ZM1.146,26.925H1.424V26.96a0.239,0.239,0,0,0-.035.14H1.146V26.925Z" transform="translate(0 0.5)"/>
</svg>
