<?xml version="1.0" encoding="utf-8"?>
<!-- Generator: Adobe Illustrator 16.0.0, SVG Export Plug-In . SVG Version: 6.00 Build 0)  -->
<!DOCTYPE svg PUBLIC "-//W3C//DTD SVG 1.1//EN" "http://www.w3.org/Graphics/SVG/1.1/DTD/svg11.dtd">
<svg version="1.1" id="Layer_1" xmlns="http://www.w3.org/2000/svg" xmlns:xlink="http://www.w3.org/1999/xlink" x="0px" y="0px"
	 width="40px" height="40px" viewBox="0 0 40 40" enable-background="new 0 0 40 40" xml:space="preserve">
<path id="Color_Fill_1" fill="#FFFFFF" d="M13.568,11.857c0.152-0.008,0.305,0.008,0.452,0.05c-0.057,0.229-0.074,0.465-0.05,0.7
	c0.039,0.08,0.113,0.136,0.2,0.151c0.042-0.136,0.031,0.021,0.1-0.1l0.3-0.654c0.795,0.026,1.59-0.058,2.362-0.251
	c-0.204-0.019-0.388-0.129-0.5-0.3v-0.1c0.228,0.016,0.455-0.037,0.653-0.151v-0.05c-0.055,0.001-0.107-0.017-0.151-0.05
	c0.042-0.077,0.059-0.165,0.05-0.251c0.328,0.024,0.652-0.084,0.9-0.3L20.05,10.4c0.015-0.087,0.071-0.162,0.151-0.2
	c0.208,0.155,0.492,0.155,0.699,0c0.119,0.059,0.224,0.034,0.4,0.1c0.079,0.029,0.172,0.174,0.251,0.2h0.601l0.05,0.2
	c0.114,0.072,0.36-0.009,0.452,0.05c-0.229,0.151,0,0.141-0.1,0.352c-0.039,0.081-0.195,0.162-0.252,0.252h0.252
	c0.212-0.06,0.432-0.093,0.652-0.1c0.022-0.205,0.158-0.38,0.352-0.453c0.352-0.025,0.704-0.025,1.056,0
	c0.13,0.36,0.281,0.713,0.452,1.056c0.42,0.536,1.6,0.77,2.211,1.157c0.152,0.268,0.403,0.466,0.699,0.553
	c0.416,0.272,1.641-0.173,2.111,0.05l0.051,0.151h2.16c1.571,0,3.146,0.049,4.523,0.05v0.352c-1.422,0-3.232,0.05-4.874,0.05H30.15
	c-0.047,0.083-0.116,0.152-0.199,0.2H29.2c-0.503-0.013-1.007,0.003-1.509,0.05c-0.332,0.645-1.154,0.667-1.356,1.056
	c0.104,0.071,0.228,0.106,0.353,0.101c0.128-0.045,0.264-0.062,0.399-0.05c0.095-0.11,0.179-0.228,0.251-0.352
	c0.103-0.026,0.211-0.008,0.301,0.05c0.411-0.323,0.942-0.451,1.456-0.352c0.3,0.075,0.565,0.284,0.8,0.352
	c0.23-0.081,0.484-0.063,0.7,0.05h-0.344v0.3c0.699-0.022,1.396,0.079,2.06,0.3c0.373,0.156,0.76,0.274,1.156,0.352
	c0.114-0.043,0.217-0.111,0.301-0.199c0.681-0.105,1.371-0.139,2.06-0.1l-0.854,0.049c-0.007,0.291-0.058,0.58-0.15,0.855
	c-0.227,0.186-0.398,0.427-0.5,0.7h2.261c0.005-0.038,0.022-0.073,0.05-0.101c-0.082-0.414-0.133-0.834-0.15-1.256h-0.051v0.1
	c-0.123,0.184-0.029,0.294-0.3,0.352v-0.1c-0.093-0.326-0.037-0.676,0.151-0.956c0.037,0.005,0.072,0.022,0.1,0.05
	c0.014,0.176,0.064,0.347,0.151,0.5c0.049-0.013,0.019-0.039,0.05,0h0.05c-0.065,0.495,0.005,0.999,0.2,1.458
	c0.164-0.039,0.336-0.039,0.5,0v0.3h-0.1c-0.15-0.008-0.302-0.008-0.452,0c0.015,0.138,0.048,0.272,0.1,0.4
	c0.381,0.096,0.751,0.23,1.104,0.4c0.103-0.19,0.238-0.359,0.4-0.5c0.333-0.639,0.633-1.293,0.9-1.961
	c0.02-0.316,0.144-0.617,0.352-0.855c0.055,0.074,0.09,0.16,0.101,0.251c-0.598,0.817-1.04,1.738-1.306,2.716h0.049
	c0.236-0.123,0.519-0.123,0.754,0L39.3,19c0.2-0.02,0.108-0.135,0.2,0c0.199,0.236,0.273,0.555,0.2,0.855l-0.4-0.051
	c-0.026,0.064-0.043,0.132-0.05,0.2c0.184,0.099,0.325,0.259,0.4,0.453l0.15-0.05c0,0,0.176,0.178,0.2,0.199
	c-0.122,0.201-0.208,0.424-0.251,0.654c-0.172,0.389-0.43,0.732-0.754,1.006c0.113,0.685,0.693,1.387,0.452,2.414
	c-0.381,2.16-2.441,3.604-4.602,3.223c-0.008-0.002-0.015-0.003-0.022-0.004c-0.367-0.088-0.722-0.223-1.055-0.4
	c-0.703-0.433-1.262-1.063-1.608-1.811c-0.127-0.299-0.164-1.131-0.3-1.357c-0.529-0.111-1.074-0.129-1.608-0.05H10.5v0.05h-0.05
	c-0.076,2.086-1.827,3.715-3.913,3.641c-2.086-0.076-3.715-1.828-3.64-3.913c0.002-0.076,0.008-0.151,0.015-0.228
	c-0.374-0.127-0.716-0.332-1.005-0.6c-0.133,0.061-0.239,0.167-0.3,0.3H1.558v-0.05c-0.08-0.149-0.231-0.245-0.4-0.252
	c-0.195,0.064-0.406,0.064-0.6,0c-0.089-0.127-0.19-0.244-0.3-0.353c-0.009-0.347,0.138-0.679,0.4-0.905
	c-0.2-0.172-0.036-0.238-0.1-0.453c-0.213-0.251-0.4-0.523-0.558-0.812c0.23-0.313,0.258-1.071,0.754-1.106
	c0.212-0.062,0.432-0.096,0.653-0.1c0.832-0.2,2.856-0.255,3.166-0.904c-0.195-0.433-0.33-0.89-0.4-1.358
	c-0.145-0.439-0.339-0.968-0.5-1.408l-0.1-0.453c-0.1-0.133-0.135,0.04-0.2-0.252c0.081-0.03,0.165-0.047,0.251-0.05
	c0.012,0.021,0.029,0.038,0.05,0.05c0.071,0.821,0.292,1.623,0.653,2.364c0.038,0.24,0.105,0.476,0.2,0.699l0.151,0.051l0.151,0.3
	c0.228-0.03,0.438-0.136,0.6-0.3c0.056-0.074,0.1-0.154,0.05-0.2v-0.05c-0.166,0.021-0.334,0.021-0.5,0v-0.301
	c0.184-0.012,0.369-0.012,0.553,0c0.098-0.496,0.149-1.002,0.151-1.508c0.07,0.005,0.141-0.013,0.2-0.051
	c-0.057-0.146-0.057-0.307,0-0.453c0.055,0,0.108,0.018,0.151,0.051c0.204,0.295,0.242,0.676,0.1,1.006
	c-0.038-0.006-0.073-0.023-0.1-0.051c-0.1-0.115-0.108-0.324-0.2-0.453v0.101c-0.108,0.427-0.159,0.867-0.151,1.308
	c0.753,0,1.543,0.029,2.312,0.051v-0.301H7.839c-0.036-0.061-0.734-1.076-0.452-1.257H7.136c-0.22-0.036-0.438-0.087-0.653-0.151
	c0.456,0.011,0.91,0.062,1.357,0.151c0.233,0.013,0.467,0.013,0.7,0c0.088,0.083,0.189,0.15,0.3,0.2
	c0.275-0.053,0.544-0.138,0.8-0.252c0.754-0.289,1.554-0.442,2.362-0.453v-0.3h-0.344v-0.05h0.05c0.23-0.053,0.47-0.053,0.7,0
	c0.141-0.071,0.275-0.155,0.4-0.252l0.653-0.1c-0.185-0.389-0.336-0.792-0.452-1.207c0.191-0.3,0.264,0,0.251-0.654h-0.1
	c0.068-0.229,0.118-0.463,0.151-0.7c0.05-0.483,0.1-1.14,0.1-1.76v-6.24C13.337,3.577,13.355,2.783,13.467,2v7.393
	c0,0.577,0.1,1.32,0.05,1.81c-0.081,0.35-0.063,0.715,0.05,1.056v-0.4L13.568,11.857z M22.111,10.751v0.1
	c0.098,0.029,0.201,0.029,0.3,0c0.026-0.027,0.044-0.063,0.05-0.1H22.111z M22.211,10.951c0.027,0.027,0.063,0.044,0.1,0.05
	C22.283,10.975,22.248,10.958,22.211,10.951L22.211,10.951z M22.261,11.102v0.1h0.05v-0.05h0.051
	c-0.027-0.027-0.063-0.045-0.101-0.052V11.102z M17.035,11.602V11.4h-0.05c-0.11,0.048-0.232,0.066-0.352,0.05v0.1h0.1
	c0.093,0.047,0.198,0.066,0.302,0.055V11.602z M13.568,12.608c0.115,0.235,0.133,0.506,0.05,0.754h0.151
	c0.148-0.058,0.272-0.163,0.352-0.3c-0.199-0.132-0.384-0.283-0.553-0.451V12.608z M14.268,14.62c-0.17,0.148-0.478,0.159-0.653,0.3
	c0.312-0.013,0.622,0.057,0.9,0.2v-0.1c-0.078-0.122-0.129-0.258-0.151-0.4h-0.1H14.268z M15.022,15.32
	c0.261,0.23,0.615,0.323,0.955,0.251c0.042-0.08,0.076-0.165,0.1-0.251h-1.052H15.022z M33.716,16.175
	c-0.022,0.15-0.022,0.303,0,0.453c0.282,0.097,0.505,0.317,0.601,0.601l0.1-0.051c0.266-0.304,0.393-0.704,0.352-1.105h-0.3
	c-0.24,0.083-0.494,0.121-0.749,0.109L33.716,16.175z M7.535,16.125c-0.086,0.414,0.069,0.842,0.4,1.105v0.051H7.99V17.23
	c0.217-0.201,0.418-0.42,0.6-0.653c0.049-0.095,0.049-0.206,0-0.3C8.285,16.25,7.859,16.2,7.538,16.132L7.535,16.125z M6.784,17.691
	c0.21,0.081,0.443,0.081,0.653,0H6.784z M34.925,17.891c0.192,0.078,0.407,0.078,0.601,0H34.925z M34.125,17.941l0.05,0.453h0.101
	c0.171-0.091,0.359-0.143,0.553-0.151l0.05-0.3h-0.05c-0.234,0.031-0.473,0.031-0.707-0.002H34.125z M35.025,17.991v0.2
	c0.435-0.013,0.814-0.008,1.256,0l0.05-0.252h-0.7C35.436,18.003,35.229,18.021,35.025,17.991L35.025,17.991z M36.482,17.941
	c0.006,0.063-0.101,0.094,0,0.15c0.048-0.039,0.082-0.092,0.1-0.15H36.482z M5.782,18.041l0.05,0.15h0.05v-0.148h-0.1V18.041z
	 M6.082,18.041v0.15c0.428-0.012,0.828-0.012,1.256,0v-0.148H6.08L6.082,18.041z M7.539,18.041v0.2
	c0.204,0.034,0.404,0.085,0.6,0.151v-0.101c0.041-0.08,0.075-0.165,0.1-0.251H7.539z M0.6,21.663v0.1h0.05v-0.1H0.6z M0.7,21.814
	l0.05,0.199H0.8C0.79,21.938,0.755,21.867,0.7,21.814z M0.851,22.166c0.054,0.001,0.107-0.017,0.151-0.05l-0.151-0.101V22.166
	L0.851,22.166z M1.051,22.216c-0.016,0.07,0.071,0.073,0.1,0.101c0.04-0.053-0.082-0.084-0.096-0.1L1.051,22.216z M0.6,22.368
	c-0.075,0.119-0.11,0.259-0.1,0.399c0.092,0.057,0.176,0.123,0.251,0.2h0.1c0.005-0.038,0.022-0.073,0.05-0.1
	C0.874,22.667,0.765,22.486,0.6,22.368z M1.153,22.418c0.056,0.139,0.123,0.272,0.2,0.4l0.151-0.051V22.72
	c-0.097-0.12-0.215-0.222-0.348-0.302H1.153z M1.706,23.118c0.027,0.026,0.062,0.044,0.1,0.05c-0.027-0.025-0.061-0.041-0.097-0.046
	L1.706,23.118z"/>
</svg>
