<?xml version="1.0" encoding="utf-8"?>
<!-- Generator: Adobe Illustrator 16.0.0, SVG Export Plug-In . SVG Version: 6.00 Build 0)  -->
<!DOCTYPE svg PUBLIC "-//W3C//DTD SVG 1.1//EN" "http://www.w3.org/Graphics/SVG/1.1/DTD/svg11.dtd">
<svg version="1.1" id="Layer_1" xmlns="http://www.w3.org/2000/svg" xmlns:xlink="http://www.w3.org/1999/xlink" x="0px" y="0px"
	 width="39.906px" height="40px" viewBox="0 0 39.906 40" enable-background="new 0 0 39.906 40" xml:space="preserve">
<path id="Color_Fill_1" fill="#FFFFFF" d="M37.662,10.924c-0.701,0.034-1.405-0.001-2.1-0.105l-5.453,0.052
	c0,0.653,0.007,0.97,0,1.577h-0.1V12.29h-3.881v0.053c0.512,0.441,0.906,1.001,1.153,1.63c-0.153,0.002-0.285,0.111-0.314,0.262
	c0.317,0.464,0.482,1.016,0.472,1.576h-0.1c-0.025-0.042-0.059-0.078-0.1-0.104v0.578h-0.325v0.053h0.054
	c0.677,0.104,1.364,0.122,2.045,0.054c0.383-0.039,0.769-0.057,1.153-0.054c0.239,0.076,0.468,0.182,0.681,0.315h1.469
	c0.663-0.066,1.332-0.049,1.992,0.053c0.293,0.113,0.121,0.152,0.262,0.42l0.367,0.263c0.399,0.5,0.818,1.354,1.678,1.366
	c-0.012-0.176-0.113-0.126,0.052-0.21c0.08,0.038,0.151,0.092,0.21,0.158c-0.068,0.028-0.039,0-0.052,0.053
	c0.24,0.071,0.485,0.125,0.733,0.158l0.053-0.315h0.052v0.211c-0.039,0.063-0.058,0.136-0.052,0.209
	c0.627,0.135,1.162,0.537,1.468,1.101c-0.037,0.137-0.055,0.278-0.052,0.42c-0.23,0.601-0.131,1.277,0.262,1.787
	c0.066-0.028,0.138-0.045,0.21-0.052c0.028,0.3,0.5,0.867,0.419,0.945c-0.111,0.152-0.283,0.249-0.473,0.264l-0.053-0.158h0.053
	c0.078,0.087,0.039,0.053,0.101,0.053c0.143-0.029,0.261-0.129,0.315-0.263c-0.056-0.05-0.108-0.103-0.157-0.158
	c-0.052,0.104-0.148,0.182-0.263,0.21c-0.066-0.106-0.155-0.196-0.262-0.264v0.054c0.105,0.099,0.18,0.227,0.211,0.368H39.34v-0.053
	c-0.121-0.115-0.211-0.26-0.262-0.42h-0.053c-0.061,2.172-3.141,3.379-4.613,4.31c-0.891,0.702-1.88,1.269-2.936,1.682
	c-0.971,0.153-1.957,0.188-2.937,0.105H7.833c-1.507-0.382-2.979-0.892-4.4-1.524c-0.797-0.218-1.571-0.518-2.307-0.893
	c-0.572-0.465-0.962-1.115-1.1-1.84c-0.05-0.426,0.002-0.859,0.153-1.262c0.046-0.28,0.028-0.568-0.052-0.841h0.524
	c0.116-0.132,0.223-0.272,0.318-0.42c-0.192-0.105-0.313-0.307-0.315-0.526c0.1-0.145,0.1-0.391,0.21-0.525
	c0.295-0.146,0.615-0.236,0.944-0.264c0.031-0.045,0.048-0.099,0.048-0.153l-0.157-0.056c-0.372-0.122-0.763-0.176-1.153-0.157
	v-0.21h0.1c0.255-0.072,0.523-0.091,0.786-0.053l0.052-0.369c0.159-0.08,0.287-0.209,0.367-0.367
	c-0.058-0.026-0.111-0.063-0.157-0.105c0.129-0.068,0.036,0.023,0.1-0.105H1.699v0.105h-0.1v-0.052H1.542v-0.052
	c0.038-0.007,0.073-0.025,0.1-0.053L1.38,19.016c0.017,0.149,0.055,0.109,0,0.211v-0.053c-0.091-0.059-0.149-0.155-0.157-0.263
	H0.546c-0.031-0.085-0.049-0.173-0.052-0.263c0.029-0.104,0.029-0.213,0-0.315h0.052V18.28h0.523l0.1-0.315
	c0.087,0.024,0.163,0.081,0.21,0.158H1.332c-0.128,0.107-0.076-0.064-0.157,0.105c0.039,0.006,0.073,0.024,0.1,0.053h0.1
	c0.136-0.193,0.294-0.37,0.472-0.526c-0.084-0.03-0.158-0.085-0.21-0.157h0.1c0.203-0.065,0.418-0.083,0.629-0.054V17.6
	c-0.177-0.024-0.356-0.006-0.524,0.053h0.067c0.163,0.096,0.587,0.117,0.839,0.264c0.043-0.171-0.026-0.08,0.1-0.158
	c0.012,0.021,0.03,0.04,0.052,0.053c-0.047,0.127-0.056,0.084-0.1,0.211c0.117,0.076,0.208,0.186,0.262,0.314h0.052v-0.107
	c-0.059-0.078-0.109-0.16-0.052-0.211c0.084-0.148,0.25-0.23,0.419-0.209c0.055,0.145,0.169,0.26,0.315,0.314V18.07
	c-0.087-0.161-0.122-0.345-0.1-0.526c0.102-0.024,0.193-0.079,0.262-0.158c0.194,0.073,0.346,0.227,0.419,0.421h0.048V17.7
	c-0.086-0.161-0.121-0.345-0.1-0.525c0.102-0.024,0.193-0.079,0.262-0.157c0.194,0.072,0.347,0.226,0.419,0.42h0.048v-0.104
	c-0.087-0.16-0.122-0.344-0.1-0.525c0.096-0.037,0.184-0.09,0.262-0.158c0.262,0.095,0.282,0.32,0.524,0.421v-0.263
	c-0.039-0.063-0.057-0.136-0.052-0.209c0.113-0.107,0.264-0.164,0.419-0.158C6.146,16.506,6.2,16.56,6.264,16.6
	c-0.028-0.092-0.008-0.189,0.052-0.264l0.153,0.053v0.105c-0.187,0.188-0.1,0.191-0.052,0.42h0.052
	c0.126-0.12,0.299-0.178,0.472-0.158c0.043,0.171-0.026,0.08,0.1,0.158c-0.025-0.05-0.025-0.108,0-0.158
	c0.443,0.018,0.447-0.072,0.944-0.053c0-0.057,0.018-0.113,0.052-0.158c0.221-0.067,0.454-0.086,0.682-0.053v0.053h0.057
	c0.006,0.209,0.005,0.164,0.315,0.158c0.441-0.262,1.249,0.113,1.887-0.053c0.139-0.036,0.346-0.188,0.472-0.211l0.472,0.16
	c0.767-0.07,1.538-0.088,2.307-0.053c-0.001-0.057,0.018-0.112,0.052-0.158c0.22-0.066,0.453-0.085,0.681-0.053v0.21h0.053
	c0.4-0.287,0.493,0.146,0.944-0.053c0.113-0.071,0.237-0.124,0.367-0.158v-0.052H5.841v-0.84h0.528
	c0.021-0.143,0.054-0.283,0.1-0.42c0.027-0.148-0.009-0.301-0.1-0.42c-0.014-0.264-0.014-0.525,0-0.789
	c0.313-0.761,0.017-1.583,0.21-2.47c0.1-0.713,0.133-1.434,0.1-2.154c0.49-0.418,0.883-0.938,1.153-1.524
	C7.593,7.35,7.615,6.908,7.884,6.616c0.063-0.04,0.136-0.058,0.21-0.053c0.11,0.117,0.183,0.263,0.21,0.42H8.252v0.053h-0.1
	c-0.011-0.111-0.045-0.218-0.1-0.315c-0.038,0.007-0.073,0.025-0.1,0.053C7.805,7.059,7.825,7.401,8.004,7.667
	c0.275-0.138,0.585-0.192,0.891-0.158c1.002-0.189,2.021-0.278,3.041-0.263c0.091-0.216,0.125-0.451,0.1-0.683
	c0.146-0.833,0.18-1.681,0.1-2.522v-5.834C12.062-2.528,12.078-3.269,12.184-4v8.355c0,0.612-0.081,2.585,0.21,2.785
	c0.72,0.03,1.441-0.023,2.149-0.158V6.877c0.135-0.224-0.033-0.776,0.1-1c0.063-0.039,0.136-0.058,0.21-0.053v0.104
	c0.062,0.347,0.095,0.699,0.1,1.051l6.081-0.578c0.11,0.15,0.233,0.291,0.366,0.42l0.053,0.314c0.104,0.089,0.231,0.144,0.367,0.158
	c0.182,0.184,0.293,0.426,0.313,0.683c0.247-0.006,0.306,0.033,0.263,0.315c0.137,0,0.045-0.068,0.156,0.052
	c0.048,0.082,0.082,0.171,0.1,0.263c0.069-0.019,0.143-0.019,0.211,0c0.045,0.09,0.084,0.244,0.1,0.263
	c0.126-0.1,0.066,0.132,0.21,0.105c0.136-0.051,0.276-0.086,0.419-0.105c0.161,0.531,0.651,0.894,1.206,0.893
	c0.282,0.116,0.591,0.152,0.892,0.105c0.352,0.012,0.701,0.047,1.049,0.105h0.839c0.663-0.036,1.328-0.036,1.991,0
	c0.813,0.144,1.643,0.179,2.465,0.105c1.91,0,3.916-0.1,5.557-0.105C37.658,10.286,37.682,10.605,37.662,10.924z M18.947,8.191
	v0.158c0.315,0.003,0.63-0.014,0.944-0.052V8.139L18.947,8.191z M36.876,10.345v0.105h0.054v-0.104L36.876,10.345L36.876,10.345z
	 M37.348,10.345v0.105H37.4v-0.104L37.348,10.345L37.348,10.345z M36.614,10.503c0.026,0.027,0.062,0.046,0.1,0.053
	c-0.026-0.029-0.062-0.048-0.1-0.056V10.503z M37.086,10.503c0.027,0.027,0.063,0.046,0.1,0.053c-0.026-0.029-0.061-0.048-0.1-0.056
	V10.503z M28.436,11.186v-0.315c-0.736-0.021-1.474,0.031-2.199,0.158c-0.37-0.023-0.741,0.013-1.101,0.104h0.054
	c0.309,0.078,0.629,0.096,0.943,0.052h2.307H28.436z M29.589,10.871v0.315h0.419v-0.315H29.589z M34.568,18.543
	c0-0.159,0.018-0.318,0.053-0.473h0.052v0.473c0.142-0.006,0.284,0.012,0.419,0.053V18.49c-0.199-0.146-0.749-0.955-0.839-1h-1.676
	c-0.277,0.098-0.516,0.281-0.681,0.525h-0.054v0.055c0.101,0.094,0.188,0.199,0.263,0.314C32.529,18.719,33.869,18.55,34.568,18.543
	z M2.433,17.6h0.1v0.051C2.495,17.645,2.46,17.627,2.433,17.6z M1.542,17.652h0.1V17.7c-0.038-0.006-0.073-0.023-0.1-0.05V17.652z
	 M2.542,17.652h0.1V17.7c-0.04-0.005-0.076-0.022-0.104-0.05L2.542,17.652z M1.442,17.706h0.1c-0.013,0.021-0.03,0.04-0.052,0.053
	c-0.037,0.003-0.103-0.001-0.053-0.059L1.442,17.706z M2.648,17.706h0.1v0.053C2.707,17.752,2.67,17.731,2.643,17.7L2.648,17.706z
	 M1.648,17.759h0.1v0.054c-0.039-0.008-0.075-0.027-0.101-0.058L1.648,17.759z M1.548,17.813h0.1v0.047
	c-0.041-0.004-0.078-0.023-0.106-0.053L1.548,17.813z M37.148,18.127c0.107,0.133,0.145,0.309,0.1,0.473h-0.057v0.053h-0.101V18.6
	c0.046-0.154,0.062-0.316,0.048-0.477L37.148,18.127z M33.426,18.811c0.148,0.074,0.324,0.074,0.473,0h-0.482H33.426z M1.29,18.863
	v0.104c0.074-0.067,0.054-0.026-0.01-0.11L1.29,18.863z M32.116,18.863v0.104h0.577v-0.057c-0.192-0.048-0.391-0.065-0.588-0.054
	L32.116,18.863z M2.549,19.178c-0.049,0.057-0.102,0.109-0.157,0.158h0.041c0.078,0.088,0.038,0.053,0.1,0.053
	c0.06-0.059,0.062-0.153,0.005-0.215L2.549,19.178z M1.449,19.23h0.1v0.053c-0.043-0.005-0.083-0.025-0.112-0.057L1.449,19.23z
	 M2.223,20.8l-0.1,0.21h0.153c0.005-0.039,0.023-0.076,0.052-0.104V20.8h-0.1H2.223z M1.175,23.689l-0.1,0.369h0.152v-0.104
	c0.085-0.125,0.073-0.188-0.052-0.262V23.689z M1.437,25.318c0.077,0.136,0.242,0.369,0.315,0.211
	c-0.113-0.067-0.188-0.143-0.315-0.207V25.318z M33.837,25.529c-0.018,0.307-0.089,0.609-0.21,0.893h0.1
	c0.546-0.317,1.071-0.668,1.573-1.051c-0.083-0.032-0.173-0.05-0.262-0.053c-0.376,0.173-0.79,0.246-1.203,0.214L33.837,25.529z
	 M4.899,25.529H4.687c-0.24,0.389-0.587,0.699-1,0.893v0.053l1.73,0.578V27c-0.34-0.413-0.524-0.933-0.52-1.468L4.899,25.529z
	 M18.529,25.529c-0.02,0.93-0.489,1.793-1.26,2.314V27.9h4.194v-0.057c-0.602-0.386-1.033-0.987-1.206-1.681
	c-0.011-0.196-0.044-0.39-0.1-0.578v-0.053h-1.63L18.529,25.529z M11.504,25.634c-0.078,0.085-0.114,0.2-0.1,0.315
	c-0.42,0.626-0.478,1.622-1.258,1.892v0.06h3.145v-0.057c-0.505-0.348-0.89-0.843-1.1-1.419c-0.011-0.266-0.103-0.522-0.262-0.735
	c-0.135-0.055-0.283-0.073-0.427-0.053L11.504,25.634z M27.335,25.689c-0.208-0.037-0.421-0.037-0.629,0
	c-0.122,0.674-0.41,1.307-0.839,1.84c-0.114,0.147-0.307,0.205-0.419,0.367h3.145v-0.053C27.865,27.357,27.401,26.563,27.335,25.689
	z M2.169,25.742c-0.045,0.079-0.149,0.039-0.052,0.105C2.24,25.938,2.386,25.99,2.538,26v-0.048
	C2.43,25.859,2.304,25.788,2.169,25.742z M2.905,26c0.1,0.191,0.123,0.212,0.419,0.21c0.045-0.064,0.081-0.136,0.105-0.21H2.905z"/>
</svg>
