<?xml version="1.0" encoding="utf-8"?>
<!-- Generator: Adobe Illustrator 16.0.0, SVG Export Plug-In . SVG Version: 6.00 Build 0)  -->
<!DOCTYPE svg PUBLIC "-//W3C//DTD SVG 1.1//EN" "http://www.w3.org/Graphics/SVG/1.1/DTD/svg11.dtd">
<svg version="1.1" id="Layer_1" xmlns="http://www.w3.org/2000/svg" xmlns:xlink="http://www.w3.org/1999/xlink" x="0px" y="0px"
	 width="40px" height="40px" viewBox="0 0 40 40" enable-background="new 0 0 40 40" xml:space="preserve">
<path id="Color_Fill_1" fill="#FFFFFF" d="M4.715,13.172v-0.2c0.107-0.109,0.249-0.18,0.4-0.2c0.054,0.074,0.088,0.161,0.1,0.252
	H5.161c-0.008-0.107-0.093-0.192-0.2-0.2c-0.012,0.021-0.029,0.038-0.05,0.05v0.05c0.104,0.022,0.204,0.055,0.3,0.1
	c0.084-0.144,0.234-0.238,0.4-0.252v0.05c-0.069,0.005-0.136,0.022-0.2,0.05v0.101h0.247c0.006-0.2-0.032-0.15,0.248-0.151
	c0.018-0.094,0.104-0.159,0.2-0.151c0.038,0.133,0.059,0.12,0.1,0.252H6.154V12.87c-0.038-0.1-0.05,0.1-0.05,0.1H6.2
	c0.248-0.015,0.496-0.015,0.744,0v-0.2H7.2v-0.1c0.041-0.077,0.059-0.165,0.05-0.252h0.145v0.3c0.203,0.089,0.425,0.124,0.645,0.1
	v-0.1c0.044-0.093,0.062-0.197,0.05-0.3h0.148l0.05,0.4h0.6c0.038-0.13,0.054-0.265,0.05-0.4h0.144l0.05,0.4h0.645v-0.4h0.149
	l0.05,0.4c0.545,0,0.993,0,1.538,0c0.038-0.13,0.054-0.265,0.05-0.4h0.149l0.05,0.4l0.645-0.05v-0.352h0.149l0.05,0.3h0.546v0.05
	H13.2v-0.05c0.044-0.093,0.062-0.197,0.05-0.3h0.15l0.05,0.353l0.6,0.05c0.038-0.13,0.055-0.265,0.05-0.4h0.149v0.1
	c0.041,0.077,0.059,0.165,0.05,0.252h0.248c0,0.054,0.017,0.107,0.05,0.151c0.374,0.09,0.761,0.107,1.141,0.05
	c0.064-0.025,0.136-0.025,0.2,0v-0.101h0.05v-0.05h-0.1c-0.025,0.041-0.06,0.075-0.1,0.1v-0.1h0.05v-0.05
	c0.138-0.014,0.272-0.047,0.4-0.1c0.041,0.164-0.024,0.077,0.1,0.151c0.076-0.042,0.162-0.059,0.248-0.05v0.1h-0.05
	c-0.043-0.032-0.095-0.05-0.149-0.05v0.147c0.129-0.045,0.27-0.045,0.4,0c0.059-0.181,0.075-0.184,0.3-0.2l0.347,0.4l0.645-0.05
	c0.797,0.076,1.601,0.025,2.382-0.151l0.05-0.656H20.2l-0.05-0.151c0.05-0.127,0.067-0.264,0.05-0.4c0.081-0.05,0.15-0.119,0.2-0.2
	h0.149L20.6,10.6h-0.05c-0.241,0.069-0.495,0.086-0.744,0.05V10.3l0.943-0.1V9.591c0.073-0.041,0.141-0.091,0.2-0.151
	c0.586,0.019,1.169,0.104,1.736,0.252c0.783,0.096,1.578,0.028,2.332-0.2V9.44c-0.418-0.205-0.83-0.568-1.24-0.807l-0.4-0.1
	c-0.091-0.065-0.145-0.236-0.248-0.3c-0.251-0.075-0.486-0.194-0.695-0.353v-0.4h-0.199c-0.026-0.064-0.043-0.131-0.051-0.2
	c0.126-0.196,0.195-0.423,0.2-0.656h-0.151V6.263l0.149-0.05c0.104-0.019,0.206-0.052,0.3-0.1h-0.796V7.12h-0.149
	c-0.122-0.528-0.051-1.083,0.201-1.563v0.151h0.545l0.051-0.958h0.4V4.5c0.135-0.079,0.291-0.114,0.446-0.1
	c0.243,0.067,0.501,0.067,0.744,0c0.223,0.086,0.457,0.137,0.694,0.151v-0.1c0.127-0.051,0.266-0.068,0.4-0.05
	c0.01,0.102,0.064,0.194,0.149,0.252c0.245,0.054,0.493,0.087,0.743,0.1c-0.026,0.027-0.062,0.044-0.1,0.05
	c-0.176,0.059-0.362,0.076-0.546,0.05c-0.128,0.212-0.18,0.46-0.149,0.706c-0.049,0.127-0.066,0.265-0.049,0.4
	c0.135-0.007,0.27,0.01,0.399,0.05c-0.081,0.179-0.147,0.365-0.2,0.555c0.054-0.173,0.016-0.361-0.1-0.5v0.05
	c-0.059,0.179-0.076,0.369-0.051,0.555c0.16,0.044,0.509,0.086,0.695,0.151v0.05h-0.4v0.151c-0.399-0.011-0.533-0.059-0.942-0.05
	c-0.015,0.087-0.069,0.162-0.149,0.2c-0.033-0.185,0-0.138-0.148-0.2c-0.475-0.104-0.965-0.104-1.439,0v0.1h0.051
	c0.314,0.307,0.71,0.517,1.141,0.605c1.455,0.558,3.008,0.815,4.566,0.757l-0.2,1.261h0.743v0.151
	c1.065-0.065,1.879,0.793,3.027,0.958l-0.05,0.3c1.505-0.015,2.548,0.2,4.269,0.2v0.2c-0.868-0.025-1.735,0.06-2.582,0.252
	l-2.035-0.05c-0.32-0.018-0.643,0.033-0.942,0.151l-2.185-0.05c0.024,0.098,0.024,0.201,0,0.3l-0.6,0.3v0.05h0.248
	c0.374-0.088,0.762-0.105,1.141-0.05c1.158,0,1.836,0.239,2.879,0.252v0.656c0.168-0.011,0.337,0.006,0.5,0.05v-0.1
	c-0.123-0.177-0.176-0.392-0.149-0.605c0.249-0.215,0.563-0.339,0.894-0.353l0.049,0.151c0.037,0.06,0.055,0.129,0.051,0.2
	c-0.199,0.238-0.352,0.512-0.447,0.807l0.1,0.05c0.053,0.01,0.102,0.027,0.149,0.05c0.09,0.082,0.159,0.186,0.2,0.3
	c0.16-0.092,0.361-0.072,0.5,0.05v0.2c0.154,0.182,0.34,0.335,0.546,0.454l1.042,1.109c0.103,0.01,0.206-0.008,0.3-0.049
	c0.06,0.027,0.13,0.155,0.2,0.199V15.9c-0.031,0.052-0.107,0.01-0.05,0.05V16c0.075-0.043,0.037-0.144,0.1-0.05
	c0.099,0.123,0.183,0.257,0.248,0.4l0.993,0.958c0.363,0.498,0.761,0.971,1.191,1.412c0.058,0.059,0.089,0.199,0.148,0.252h0.149
	c0.143,0.105,0.243,0.361,0.399,0.453c0.183,0.049,0.354,0.135,0.5,0.252v0.707H39.95c-0.016-0.238-0.049-0.475-0.101-0.707
	c-0.131-0.037-0.117-0.061-0.248-0.1v0.051c0.396,0.287,0.211,1.199,0.2,1.814l-0.446,0.4c0.04,0.268,0.057,0.537,0.05,0.807h-0.101
	v-0.602c-0.1-0.074,0.028-0.072-0.148-0.1c-0.027-0.027-0.063-0.045-0.1-0.051v0.051h-0.051c1.32,2.9-2.281,3.852-3.97,4.74
	c-0.765,0.479-1.58,0.867-2.433,1.16c-0.836,0.135-1.686,0.168-2.53,0.1H9.578c-1-0.229-1.908-0.465-2.779-0.756
	c-0.945-0.316-1.879-0.557-2.779-0.857c-1.456-0.488-3.32-0.777-2.879-2.977C0.771,23.186,0.39,23.033,0,22.906V22.4h0.4v-1.008h0.1
	c-0.05,0.25-0.067,0.504-0.05,0.758H0.5v-0.1c0.169-0.18,0.186-0.465,0.347-0.656c0.265-0.186,0.485-0.426,0.645-0.707
	c-0.138-0.525-0.188-1.07-0.149-1.614c-0.033-0.49,0.001-0.982,0.1-1.463l0.05-0.958c-0.041-0.101-0.2-0.049-0.149-0.3
	c0.089-0.201,0.206-0.388,0.347-0.555c0.109-0.261,0.192-0.531,0.248-0.808c0.038-0.208-0.084-0.288-0.05-0.5
	c0.111-0.048,0.213-0.115,0.3-0.2h0.2v-0.3h0.142v-0.4H1.886v-0.2h0.447c0.062-0.141,0.194-0.237,0.347-0.252
	c0.184,0.333,0.651,0.121,0.645-0.3c0.036-0.287,0.019-0.577-0.05-0.857c0.178-1.049,0.228-2.116,0.149-3.177V-1h0.1v12.558
	c0.326,0.339-0.126,1.17,0.149,1.513l0.05,0.151c0.168-0.044,0.238,0.107,0.4,0.05v-0.1h0.6H4.715z M24.415,6.716
	c0.034-0.178,0.103-0.347,0.2-0.5c-0.36-0.066-0.728-0.083-1.092-0.05v0.05c0.111,0.101,0.15,0.259,0.1,0.4
	c-0.18-0.01-0.355,0.044-0.5,0.151c-0.027,0.027-0.044,0.062-0.05,0.1h0.1c0.396-0.154,0.823-0.206,1.244-0.15L24.415,6.716z
	 M22.678,7.826v0.1c0.454,0.209,0.985,0.4,1.489,0.605c-0.011,0.169-0.106,0.121,0.05,0.2c0.473,0.37,1.041,0.598,1.639,0.656
	c0.098-0.093,0.217-0.162,0.347-0.2v-0.05c-0.393-0.138-0.774-0.305-1.142-0.5c-0.263-0.106-0.6-0.047-0.844-0.151
	c-0.481-0.286-0.998-0.507-1.537-0.66H22.678z M26.748,8.633c-0.447,0.01-0.895-0.006-1.34-0.05v0.05h0.05
	c0.29,0.185,0.608,0.32,0.942,0.4c0.095-0.11,0.214-0.196,0.348-0.252V8.633z M29.428,11.054c0.858,0.092,1.724,0.092,2.581,0
	c-0.839-0.389-1.7-0.726-2.581-1.009c-0.219-0.021-0.123,0.109-0.199,0.151h-0.692c0.023-0.047,0.023-0.104,0-0.151
	c-0.165,0.039-0.336,0.039-0.5,0V10.3c0.46,0.2,0.952,0.351,1.438,0.555c-0.024,0.063-0.04,0.131-0.045,0.199H29.428z M26.3,10.2
	v0.3H27c0-0.055,0.018-0.108,0.05-0.151V10.5l0.5-0.1v-0.05c-0.222-0.07-0.438-0.153-0.649-0.25L26.3,10.2z M27.938,10.1
	c0,0.054,0.018,0.107,0.051,0.151c0.001-0.054-0.016-0.107-0.049-0.151H27.938z M19.849,10.352V10.6H20.2v-0.252h-0.349
	L19.849,10.352z M20.249,10.503v0.1c0.136-0.021,0.271-0.055,0.399-0.1H20.249z M27.594,10.503c-0.029,0.081-0.047,0.166-0.05,0.252
	l0.149,0.1c0.035-0.128-0.004-0.265-0.101-0.355L27.594,10.503z M28.094,10.603l-0.05,0.3c0.026,0.027,0.044,0.063,0.05,0.1
	c0.327,0.063,0.662,0.079,0.993,0.05V11c-0.341-0.125-0.687-0.249-0.998-0.4L28.094,10.603z M33,13.324
	c0.064,0.024,0.135,0.024,0.2,0c0.235-0.247,0.376-0.568,0.399-0.908c-0.332-0.02-0.637,0.185-0.744,0.5
	C32.948,13.032,32.999,13.175,33,13.324z M31.66,12.719c0.106,0.066,0.24,0.066,0.347,0h-0.344H31.66z M16.772,13.173h0.149V12.92
	c0.054,0,0.106-0.017,0.149-0.05h-0.05v-0.05h-0.1c-0.043,0.062-0.077,0.129-0.1,0.2c-0.031,0.044-0.047,0.098-0.046,0.152
	L16.772,13.173z M1.884,13.273h0.1v0.05c-0.037-0.005-0.072-0.022-0.098-0.05H1.884z M33.4,13.626
	c-0.049,0.073-0.178,0.11-0.101,0.151c0.027,0.027,0.063,0.044,0.101,0.05c0.043-0.061,0.076-0.128,0.1-0.2L33.4,13.626L33.4,13.626
	z M39.6,20.838v0.199H39.7v-0.199H39.6z M39.3,21.238c0.041,0.164-0.024,0.076,0.101,0.15v-0.146H39.3V21.238z M0.541,21.389
	c0.086-0.01,0.173,0.008,0.248,0.051c-0.084,0.01-0.169-0.006-0.243-0.047L0.541,21.389z M2.03,24.162l0.05,0.152h0.05
	c-0.006-0.063-0.042-0.117-0.095-0.146L2.03,24.162z M2.382,24.52c-0.001,0.104,0.016,0.205,0.05,0.301h0.1l0.05-0.301H2.382z
	 M3.871,24.619l0.05,0.252c0.062,0.045,0.129,0.078,0.2,0.102v-0.051c0.061-0.037,0.112-0.09,0.149-0.15L3.871,24.619z
	 M2.878,24.771c-0.07,0.127-0.2,0.127-0.05,0.199c0.074,0.053,0.159,0.086,0.248,0.1v-0.199c-0.027-0.027-0.044-0.063-0.05-0.1
	H2.878z M3.424,24.771c-0.055,0.145-0.072,0.301-0.05,0.453h0.348v-0.1c-0.003-0.086-0.021-0.172-0.05-0.252
	C3.593,24.83,3.51,24.797,3.424,24.771L3.424,24.771z M7.3,25.125H5.806c-0.422-0.121-0.854-0.205-1.29-0.252
	c-0.124,0.209-0.317,0.371-0.546,0.453c0.027,0.027,0.063,0.045,0.1,0.051c0.361,0.172,0.746,0.291,1.141,0.354
	c0.855,0.287,1.776,0.633,2.68,0.857v-0.051C7.506,26.17,7.292,25.658,7.3,25.125z M12.213,25.125
	c-0.023,0.779-0.458,1.49-1.141,1.865v0.051h2.779V26.99c-0.642-0.42-1.064-1.104-1.151-1.865h-0.5H12.213z M17.672,25.125
	c-0.045,0.773-0.473,1.473-1.141,1.865v0.051h1.638c0.393-0.078,0.798-0.078,1.191,0v-0.1c-0.659-0.369-1.075-1.061-1.092-1.816
	h-0.6H17.672z M23.182,25.125c0.004,0.748-0.394,1.443-1.043,1.816v0.049h2.531v-0.049c-0.645-0.385-1.055-1.066-1.092-1.816h-0.4
	H23.182z M29.335,25.125h-0.799v0.1c-0.063,0.199-0.113,0.4-0.149,0.605c-0.178,0.467-0.51,0.859-0.943,1.109v0.051h2.929v-0.051
	c-0.639-0.383-1.033-1.07-1.042-1.814H29.335z M34.248,25.125c-0.021,0.416-0.16,0.818-0.4,1.16H33.9
	c0.684-0.451,1.416-0.824,2.184-1.109v-0.051h-1.841H34.248z"/>
</svg>
