<svg xmlns="http://www.w3.org/2000/svg" width="39.969" height="40" viewBox="0 0 39.969 40">
  <defs>
    <style>
      .cls-1 {
        fill: #fff;
        fill-rule: evenodd;
      }
    </style>
  </defs>
  <path id="Color_Fill_1" data-name="Color Fill 1" class="cls-1" d="M23.9,12.07h0.247a0.214,0.214,0,0,1,.148-0.146,1.673,1.673,0,0,1,.049-0.778l0.148-.049a0.228,0.228,0,0,1,.2.049,2.755,2.755,0,0,1,.1.778c0.037,0.105.21,0.186,0.247,0.292l-0.049.827c0.042,0.124.224,0.246,0.3,0.389h0.049a0.577,0.577,0,0,1,.741-0.535,1.424,1.424,0,0,1,.3.584H26.42c0-.294.045-0.3,0.346-0.292a2.544,2.544,0,0,1,1.087,1.119,7.231,7.231,0,0,1,1.679.195l9.136,0.1v0.73l-9.531.1a0.234,0.234,0,0,1-.049.146,3.5,3.5,0,0,1-1.284.049,0.784,0.784,0,0,1-.494.535,0.178,0.178,0,0,0-.1-0.049,0.676,0.676,0,0,1-.049-0.195,0.463,0.463,0,0,0,.148-0.195H27.161a1.989,1.989,0,0,0-.3.438,1.423,1.423,0,0,1,.2.34,2.731,2.731,0,0,0,1.037.049,3.8,3.8,0,0,1,.741.1,1.188,1.188,0,0,1,.494-0.292,2.183,2.183,0,0,0,.642.1v0.243h0.049v0.049c0.139,0.014.878-.055,0.889-0.049a0.867,0.867,0,0,0,.3.292l0.346-.049c0.036,0.02.111,0.207,0.148,0.243a5.015,5.015,0,0,0,1.284,1.07V18.2a9.34,9.34,0,0,1-.79-0.876,0.17,0.17,0,0,0,.1-0.049H32.247V17.227a0.167,0.167,0,0,1-.148,0,0.876,0.876,0,0,1-.148-0.243h0.2a1.218,1.218,0,0,0,.2.243c0.074-.081.036-0.05,0.1-0.049a1.549,1.549,0,0,1,.642.632,1.356,1.356,0,0,1,.346-0.243v0.1a0.5,0.5,0,0,0-.1.292h0.049a0.548,0.548,0,0,1,.444-0.049,2.641,2.641,0,0,1,.3.876,0.457,0.457,0,0,1,.2.146H34.37a0.875,0.875,0,0,1,.346-0.438h0.4a1.739,1.739,0,0,1,.1.73,1.4,1.4,0,0,0-.1.341,0.65,0.65,0,0,0,.3.195,1.171,1.171,0,0,0,.889.1,1,1,0,0,0,.148-0.584h0.2a1.2,1.2,0,0,1,.049.389,2.625,2.625,0,0,0-.543,1.605,0.71,0.71,0,0,0,.2.049,2.224,2.224,0,0,1,.889-0.049c0.653,0.023,1.825.4,1.926,0.876a0.248,0.248,0,0,0-.148.243,2.415,2.415,0,0,1,.741,2.919c-0.658,1.1-1.966,1.756-3.012,2.481a5.5,5.5,0,0,1-1.63,1.07A18.086,18.086,0,0,1,31.7,28.9H10.765l-1.481-.049a12.125,12.125,0,0,1-1.531-.73c-0.893-.385-1.733-0.789-2.568-1.216a7.469,7.469,0,0,1-1.877-.973,2.822,2.822,0,0,1-.642-1.216V24.33L1.481,23.211V22.676c-0.027-.044-0.155-0.082-0.2-0.146a2.183,2.183,0,0,0,.642-1.022,0.913,0.913,0,0,1-.444-0.049,0.175,0.175,0,0,1-.049-0.1,2.056,2.056,0,0,1,.593-0.049,0.283,0.283,0,0,1,.049-0.195c-0.081-.119-0.287-0.135-0.2-0.292l0.049-.146a0.524,0.524,0,0,0,.3,0,2.669,2.669,0,0,0,.247-0.486H2.42V20.146a0.786,0.786,0,0,0-.2.243,0.507,0.507,0,0,0-.494-0.049c-0.016-.108.051-0.052-0.049-0.1a0.407,0.407,0,0,0-.1.146c0.064,0.027.037,0,.049,0.049a0.234,0.234,0,0,1-.247.1c-0.347-.292-1.07-0.262-1.235-0.73C0.056,19.655.093,19.533,0,19.368H0.2v0.1H0.148C0.1,19.514.2,19.513,0.2,19.514c0.037,0.042.062,0.055,0.1,0.1a5.611,5.611,0,0,0,1.235-.584c0.527-.271,1.1-0.482,1.63-0.73a0.258,0.258,0,0,1,0-.243,0.254,0.254,0,0,1,.148-0.049c0.13,0.213.256,0.158,0.4,0a0.268,0.268,0,0,1,.1.1,0.689,0.689,0,0,1,.049-0.243A0.241,0.241,0,0,1,3.7,17.811c0.569,0.008.8-.084,1.333-0.1a0.334,0.334,0,0,0,.346.195c0.084-.051.22,0,0.346-0.049,0.156-.058.489-0.3,0.642-0.341a0.274,0.274,0,0,1,.2.1l1.136-.1c0.668-.154,1.4-0.125,2.123-0.292a8.312,8.312,0,0,1,1.728-.243V16.838h0.1c0.209-.093.276,0.129,0.642,0.049a15.569,15.569,0,0,0,1.778-.389v0.1c0.044,0.068.053,0.273,0.1,0.34V16.5c0.16-.04.075,0.024,0.148-0.1H13.877a0.771,0.771,0,0,1-.494-0.34,1.847,1.847,0,0,1-.049-1.022q0.05-1.289.1-2.578a7.557,7.557,0,0,0,2.518-.243c-0.107-.411.335-0.421,0.4-0.827h0.346A1.635,1.635,0,0,1,16.741,11h0.1c0.025,0.2.01,0.2,0.2,0.243a0.151,0.151,0,0,1,.2.1c-0.14-.016-0.1-0.051-0.2,0a0.494,0.494,0,0,1,.247.195c-0.14-.015-0.1-0.051-0.2,0h0.1a2.424,2.424,0,0,0,.938.049c-0.042-.312.288-0.273,0.691-0.243,0.064,0.12-.021.033,0.1,0.1a0.586,0.586,0,0,1,.346-0.243,0.622,0.622,0,0,0,.049.341,1.511,1.511,0,0,0,.642.049,2.555,2.555,0,0,1,.938,0,1.552,1.552,0,0,1,.395.243c0.329,0.136,1.322-.221,1.728.049,0.159,0.219.053,0.373,0.445,0.389a0.706,0.706,0,0,1,.444-0.341V12.07Zm-5.728-.681v0.195h0.593V11.389H18.173Zm-1.284.146a0.178,0.178,0,0,0,.1.049A0.18,0.18,0,0,0,16.889,11.535Zm6.667,0.633v0.1a3.883,3.883,0,0,0,.543,0,0.175,0.175,0,0,0,.049-0.1H23.9A0.544,0.544,0,0,1,23.556,12.168Zm2.519,1.313-0.049-.292-0.3-.049a0.513,0.513,0,0,0-.1.243,0.174,0.174,0,0,1,.049.1h0.4Zm3.8,3.259a0.282,0.282,0,0,0,0-.195,1.833,1.833,0,0,0-.741-0.1V16.5h0.1A0.864,0.864,0,0,0,29.877,16.741Zm-17.926.438a0.2,0.2,0,0,0,.247,0H11.951Zm20.543,0.195c0.086,0.144.162,0.258,0.247,0.146Zm-0.1.049v0.1l0.247,0.195A0.488,0.488,0,0,0,32.4,17.422Zm-26.914.584c-0.042.032-.155,0.065-0.2,0.1H5.531A0.166,0.166,0,0,0,5.481,18.005Zm28.049,0.1v0.1l0.3,0.243V18.3A0.4,0.4,0,0,0,33.531,18.1Zm-29.778.146c-0.05.034-.2,0.063-0.247,0.1a1.522,1.522,0,0,1,.346.049V18.249h-0.1Zm29.482,0.146v0.1h0.049A0.166,0.166,0,0,0,33.235,18.395Zm-30.272.1a0.636,0.636,0,0,0-.2.049,7.463,7.463,0,0,1-.444,1.168H2.272V19.562a2.681,2.681,0,0,0,.3-0.633H2.519V18.881a12.915,12.915,0,0,1-1.778.827v0.1a2.944,2.944,0,0,0,1.185.341,0.543,0.543,0,0,0,.3-0.438H2.272a1.841,1.841,0,0,1,.1.292v0.1H2.519A5.66,5.66,0,0,0,2.963,18.492Zm30.37,0a0.92,0.92,0,0,0,.444.389V18.832A1.917,1.917,0,0,0,33.333,18.492Zm0.741,0.632v0.1a1.358,1.358,0,0,0,.543.389V19.562C34.4,19.438,34.273,19.255,34.074,19.124ZM35.161,19.9a0.233,0.233,0,0,0,.049.146c0.085-.043.063-0.043,0.148,0a0.356,0.356,0,0,0-.1.292,0.455,0.455,0,0,1,.247.292,2.238,2.238,0,0,1,.543-0.486V20.1A3.1,3.1,0,0,1,35.161,19.9ZM36,20.535a0.875,0.875,0,0,0-.148.243h0.1v-0.1C36.016,20.6,36.036,20.6,36,20.535ZM1.63,22.53a3.57,3.57,0,0,0,1.827.049V22.53H1.63ZM8.3,25.935H5.728v0.049h0.1a2.6,2.6,0,0,0,.642.292c0.546,0.267,1.109.557,1.679,0.827v-0.1A1.564,1.564,0,0,1,8.3,25.935Zm8.494,0a2,2,0,0,1-.1,1.849h1.333v-0.1c-0.484-.367-0.238-1.259-0.1-1.751H16.79Zm9.63,0a2.084,2.084,0,0,1,.2,1.216c-0.061.22-.224,0.419-0.3,0.632h1.333v-0.1c-0.484-.367-0.238-1.259-0.1-1.751H26.42Zm9.975,0H36.049v0.1a3.047,3.047,0,0,0,.3.73,3.3,3.3,0,0,0,.889-0.778,1.079,1.079,0,0,0-.346-0.049,0.815,0.815,0,0,1-.494.341V25.935Zm-24.247.584-0.049.292H11.951a0.211,0.211,0,0,0-.2-0.195,0.859,0.859,0,0,1-.3.1,3.675,3.675,0,0,1-.346,1.07h2.914V27.735a1.42,1.42,0,0,1-.346-1.022,1.02,1.02,0,0,0-.444-0.049,0.245,0.245,0,0,0-.049.146h-0.2v-0.1a0.324,0.324,0,0,1-.049-0.195H12.691l-0.049.292h-0.2L12.4,26.519H12.148Zm9.63,0-0.049.292h-0.2a0.609,0.609,0,0,0-.049-0.195l-0.445.1a2.353,2.353,0,0,1-.3,1.07h2.914V27.735a1.259,1.259,0,0,1-.346-1.022,1.02,1.02,0,0,0-.444-0.049,0.327,0.327,0,0,1-.247.146v-0.1a0.324,0.324,0,0,1-.049-0.195H22.321l-0.049.292h-0.2l-0.049-.292H21.778Zm9.63,0-0.049.292h-0.2a0.609,0.609,0,0,0-.049-0.195l-0.444.1a1.676,1.676,0,0,1-.346,1.07h2.963V27.735a1.21,1.21,0,0,1-.346-1.022l-0.494-.1c-0.047.165-.019,0.151-0.2,0.195-0.041-.214-0.043-0.27-0.3-0.292l-0.049.292H31.7v-0.1a0.325,0.325,0,0,1-.049-0.195H31.407Z" transform="translate(0 0.016)"/>
</svg>
