<?xml version="1.0" encoding="utf-8"?>
<!-- Generator: Adobe Illustrator 16.0.0, SVG Export Plug-In . SVG Version: 6.00 Build 0)  -->
<!DOCTYPE svg PUBLIC "-//W3C//DTD SVG 1.1//EN" "http://www.w3.org/Graphics/SVG/1.1/DTD/svg11.dtd">
<svg version="1.1" id="Layer_1" xmlns="http://www.w3.org/2000/svg" xmlns:xlink="http://www.w3.org/1999/xlink" x="0px" y="0px"
	 width="39.969px" height="40px" viewBox="0 0 39.969 40" enable-background="new 0 0 39.969 40" xml:space="preserve">
<path id="Color_Fill_1" fill="#FFFFFF" d="M23.9,10.086h0.246c0.021-0.071,0.077-0.126,0.148-0.146
	c-0.045-0.259-0.028-0.526,0.049-0.778l0.148-0.049c0.07-0.017,0.145,0.001,0.199,0.049c0.07,0.253,0.104,0.515,0.101,0.778
	c0.037,0.105,0.21,0.186,0.247,0.292l-0.049,0.827c0.042,0.124,0.224,0.246,0.3,0.389h0.049c0.011-0.319,0.276-0.569,0.595-0.559
	c0.05,0.001,0.099,0.009,0.146,0.023c0.145,0.168,0.246,0.369,0.3,0.584h0.04c0-0.294,0.045-0.3,0.346-0.292
	c0.471,0.25,0.852,0.641,1.088,1.119c0.564-0.001,1.129,0.064,1.679,0.195l9.136,0.1v0.73l-9.531,0.1
	c0.001,0.053-0.017,0.104-0.049,0.146c-0.422,0.096-0.856,0.112-1.283,0.049c-0.067,0.249-0.252,0.449-0.494,0.535
	c-0.027-0.026-0.063-0.043-0.101-0.049c-0.026-0.062-0.042-0.128-0.049-0.195c0.065-0.051,0.117-0.118,0.147-0.195h-0.147
	c-0.119,0.132-0.22,0.279-0.3,0.438c0.082,0.104,0.148,0.218,0.199,0.34c0.34,0.083,0.691,0.099,1.037,0.049
	c0.25,0.009,0.498,0.042,0.741,0.1c0.139-0.136,0.308-0.236,0.494-0.292c0.208,0.065,0.425,0.099,0.642,0.1v0.243h0.049v0.049
	c0.14,0.014,0.879-0.055,0.89-0.049c0.075,0.121,0.178,0.221,0.3,0.292l0.346-0.049c0.036,0.02,0.111,0.207,0.148,0.243
	c0.365,0.426,0.799,0.788,1.284,1.07v-0.058c-0.282-0.275-0.546-0.567-0.79-0.876c0.037-0.004,0.072-0.021,0.1-0.049h-0.054v-0.048
	c-0.047,0.023-0.102,0.023-0.147,0c-0.063-0.072-0.113-0.155-0.148-0.243h0.199c0.057,0.089,0.123,0.171,0.201,0.243
	c0.073-0.081,0.035-0.05,0.1-0.049c0.271,0.143,0.495,0.363,0.642,0.632c0.103-0.099,0.219-0.181,0.347-0.243v0.1
	c-0.063,0.084-0.099,0.187-0.101,0.292h0.05c0.134-0.079,0.295-0.097,0.443-0.049c0.15,0.272,0.252,0.569,0.3,0.876
	c0.079,0.029,0.148,0.08,0.2,0.146h0.038c0.064-0.18,0.187-0.334,0.346-0.438h0.4c0.085,0.233,0.119,0.482,0.1,0.73
	c-0.048,0.109-0.081,0.223-0.1,0.341c0.079,0.092,0.184,0.159,0.3,0.195c0.271,0.15,0.591,0.186,0.889,0.1
	c0.108-0.175,0.16-0.379,0.148-0.584h0.199c0.038,0.126,0.055,0.258,0.05,0.389c-0.354,0.46-0.544,1.024-0.543,1.605
	c0.063,0.026,0.131,0.042,0.2,0.049c0.289-0.076,0.592-0.093,0.889-0.049c0.652,0.022,1.825,0.399,1.926,0.876
	c-0.096,0.042-0.154,0.139-0.148,0.243c0.898,0.681,1.206,1.892,0.742,2.919c-0.658,1.1-1.967,1.756-3.013,2.48
	c-0.476,0.451-1.027,0.813-1.63,1.07c-1.138,0.122-2.285,0.136-3.425,0.041H10.765l-1.481-0.049
	c-0.527-0.207-1.039-0.451-1.531-0.73c-0.893-0.385-1.733-0.789-2.568-1.216c-0.668-0.233-1.301-0.562-1.877-0.973
	c-0.311-0.347-0.532-0.765-0.642-1.216v-0.387l-1.185-1.119v-0.535c-0.027-0.043-0.155-0.082-0.2-0.146
	c0.306-0.273,0.528-0.628,0.642-1.022c-0.149,0.021-0.302,0.004-0.444-0.049c-0.027-0.027-0.044-0.063-0.049-0.1
	c0.194-0.045,0.394-0.062,0.593-0.049c-0.008-0.068,0.009-0.139,0.049-0.195c-0.081-0.119-0.287-0.135-0.2-0.292l0.049-0.146
	c0.098,0.029,0.202,0.029,0.3,0c0.099-0.153,0.181-0.316,0.247-0.486H2.42v-0.045c-0.082,0.066-0.15,0.149-0.2,0.243
	c-0.145-0.102-0.332-0.12-0.494-0.049c-0.016-0.108,0.051-0.052-0.049-0.1c-0.043,0.041-0.078,0.091-0.1,0.146
	c0.064,0.027,0.037,0,0.049,0.049c-0.054,0.081-0.152,0.121-0.247,0.1c-0.347-0.292-1.07-0.262-1.235-0.729
	C0.056,17.671,0.093,17.549,0,17.384h0.2v0.1H0.148C0.1,17.53,0.2,17.529,0.2,17.53c0.037,0.042,0.062,0.055,0.1,0.1
	c0.434-0.144,0.849-0.34,1.235-0.584c0.527-0.271,1.1-0.482,1.63-0.73c-0.041-0.076-0.041-0.167,0-0.243
	c0.043-0.032,0.095-0.049,0.148-0.049c0.13,0.213,0.256,0.158,0.4,0c0.042,0.024,0.076,0.058,0.1,0.1
	c0.001-0.083,0.018-0.166,0.049-0.243c-0.059,0.002-0.116-0.017-0.162-0.054c0.569,0.008,0.8-0.084,1.333-0.1
	c0.06,0.134,0.2,0.213,0.346,0.195c0.084-0.051,0.22,0,0.346-0.049c0.156-0.058,0.489-0.3,0.642-0.341
	c0.078,0.003,0.15,0.04,0.2,0.1l1.136-0.1c0.668-0.154,1.4-0.125,2.123-0.292c0.566-0.142,1.145-0.223,1.728-0.243v-0.143h0.1
	c0.209-0.093,0.276,0.129,0.642,0.049c0.6-0.095,1.193-0.225,1.778-0.389v0.1c0.044,0.068,0.053,0.272,0.1,0.34v-0.438
	c0.16-0.04,0.075,0.024,0.148-0.1h-0.445c-0.204-0.042-0.382-0.165-0.494-0.34c-0.112-0.33-0.129-0.684-0.049-1.022
	c0.033-0.859,0.067-1.718,0.1-2.578c0.847,0.061,1.698-0.021,2.518-0.243c-0.107-0.411,0.335-0.421,0.4-0.827h0.346
	c-0.001-0.131,0.013-0.263,0.043-0.39h0.1c0.025,0.2,0.01,0.2,0.2,0.243c0.078-0.03,0.165,0.009,0.195,0.086
	c0.002,0.004,0.003,0.009,0.005,0.014c-0.14-0.016-0.1-0.051-0.2,0c0.102,0.037,0.188,0.105,0.247,0.195
	c-0.14-0.015-0.1-0.051-0.2,0h0.1c0.307,0.078,0.625,0.094,0.938,0.049c-0.042-0.312,0.288-0.273,0.691-0.243
	c0.064,0.12-0.021,0.033,0.1,0.1c0.081-0.121,0.205-0.208,0.346-0.243c-0.016,0.116,0,0.234,0.049,0.341
	c0.208,0.062,0.427,0.079,0.642,0.049c0.31-0.058,0.628-0.058,0.938,0c0.143,0.061,0.275,0.143,0.395,0.243
	c0.329,0.136,1.322-0.221,1.729,0.049c0.158,0.219,0.053,0.373,0.444,0.389c0.095-0.17,0.255-0.293,0.444-0.341v0.139H23.9z
	 M18.172,9.405V9.6h0.593V9.405H18.172L18.172,9.405z M16.888,9.551c0.027,0.027,0.062,0.044,0.1,0.049
	C16.961,9.574,16.926,9.557,16.888,9.551L16.888,9.551z M23.555,10.184v0.1c0.182,0.013,0.362,0.013,0.543,0
	c0.027-0.027,0.045-0.063,0.049-0.1H23.9c-0.112,0.037-0.232,0.037-0.344,0H23.555z M26.074,11.497l-0.049-0.292l-0.301-0.049
	c-0.054,0.071-0.088,0.154-0.1,0.243c0.027,0.027,0.044,0.062,0.049,0.1h0.4V11.497z M29.874,14.756
	c0.022-0.063,0.022-0.132,0-0.195c-0.237-0.084-0.489-0.118-0.741-0.1v0.055h0.1c0.173,0.166,0.406,0.253,0.645,0.241L29.874,14.756
	z M11.948,15.194c0.072,0.057,0.174,0.057,0.247,0h-0.244H11.948z M32.491,15.389c0.086,0.144,0.161,0.258,0.247,0.146
	L32.491,15.389z M32.391,15.438v0.1l0.248,0.195c-0.037-0.126-0.123-0.233-0.238-0.295H32.391z M5.477,16.022
	c-0.042,0.032-0.155,0.065-0.2,0.1h0.254c-0.005-0.039-0.022-0.074-0.05-0.101L5.477,16.022z M33.525,16.122v0.1l0.301,0.243v-0.149
	c-0.062-0.109-0.171-0.183-0.295-0.2L33.525,16.122z M3.748,16.268c-0.05,0.034-0.2,0.063-0.247,0.1
	c0.117,0.003,0.233,0.02,0.346,0.049v-0.152h-0.1L3.748,16.268z M33.23,16.414v0.1h0.049c-0.002-0.039-0.018-0.075-0.045-0.103
	L33.23,16.414z M2.958,16.514c-0.069,0.005-0.136,0.022-0.2,0.049c-0.115,0.401-0.264,0.792-0.444,1.168H2.272v-0.153
	c0.127-0.197,0.228-0.41,0.3-0.633H2.519v-0.048c-0.571,0.32-1.166,0.597-1.778,0.827v0.1c0.366,0.196,0.77,0.312,1.185,0.341
	c0.169-0.084,0.283-0.25,0.3-0.438h0.046c0.042,0.094,0.075,0.192,0.1,0.292v0.1h0.147c0.227-0.512,0.376-1.055,0.444-1.611
	L2.958,16.514z M33.328,16.514c0.102,0.175,0.258,0.312,0.443,0.389v-0.055c-0.129-0.134-0.276-0.249-0.438-0.34L33.328,16.514z
	 M34.068,17.146v0.1c0.146,0.173,0.333,0.307,0.543,0.389v-0.057c-0.211-0.124-0.338-0.307-0.537-0.438L34.068,17.146z
	 M35.161,17.916c-0.001,0.053,0.017,0.104,0.049,0.146c0.085-0.043,0.063-0.043,0.147,0c-0.075,0.077-0.112,0.185-0.1,0.292
	c0.121,0.056,0.212,0.164,0.247,0.292c0.153-0.191,0.337-0.355,0.543-0.486v-0.044C35.744,18.093,35.445,18.026,35.161,17.916z
	 M36,18.551c-0.063,0.072-0.112,0.154-0.148,0.243h0.101v-0.101C36.016,18.616,36.036,18.616,36,18.551z M1.63,20.546
	c0.595,0.175,1.224,0.191,1.827,0.049v-0.049H1.63z M8.3,23.951H5.728V24h0.1c0.2,0.126,0.416,0.225,0.642,0.292
	c0.546,0.267,1.109,0.558,1.679,0.827v-0.1C8.071,24.656,8.125,24.277,8.3,23.951z M16.794,23.951
	c0.271,0.596,0.234,1.286-0.1,1.849h1.333v-0.1c-0.484-0.367-0.238-1.259-0.1-1.751H16.79L16.794,23.951z M26.424,23.951
	c0.188,0.376,0.258,0.8,0.2,1.216c-0.062,0.22-0.224,0.419-0.3,0.632h1.333v-0.1c-0.484-0.367-0.238-1.26-0.101-1.751H26.42
	L26.424,23.951z M36.398,23.951h-0.35v0.1c0.068,0.256,0.169,0.501,0.301,0.73c0.34-0.204,0.641-0.468,0.889-0.778
	c-0.112-0.035-0.229-0.052-0.346-0.049c-0.115,0.173-0.293,0.294-0.494,0.341V23.951L36.398,23.951z M12.152,24.535l-0.049,0.292
	h-0.152c-0.008-0.106-0.094-0.19-0.2-0.195c-0.093,0.052-0.195,0.086-0.3,0.101c-0.06,0.372-0.177,0.732-0.346,1.069h2.914v-0.051
	c-0.246-0.282-0.37-0.649-0.346-1.022c-0.143-0.049-0.294-0.065-0.444-0.049c-0.032,0.043-0.049,0.094-0.049,0.146h-0.2v-0.1
	c-0.037-0.059-0.054-0.127-0.049-0.195h-0.24l-0.049,0.292h-0.2L12.4,24.535h-0.252H12.152z M21.782,24.535l-0.05,0.292h-0.199
	c-0.006-0.067-0.021-0.134-0.049-0.195l-0.445,0.101c-0.014,0.375-0.116,0.742-0.3,1.069h2.913v-0.051
	c-0.262-0.271-0.389-0.646-0.346-1.022c-0.143-0.049-0.294-0.065-0.443-0.049c-0.056,0.084-0.146,0.139-0.247,0.146v-0.1
	c-0.036-0.059-0.054-0.127-0.05-0.195H22.32l-0.049,0.292h-0.199l-0.049-0.292h-0.246L21.782,24.535z M31.412,24.535l-0.049,0.292
	h-0.2c-0.005-0.067-0.022-0.134-0.049-0.195l-0.444,0.101c0.012,0.386-0.111,0.764-0.346,1.069h2.963v-0.051
	c-0.27-0.268-0.397-0.646-0.346-1.022l-0.494-0.1c-0.047,0.165-0.02,0.151-0.2,0.195c-0.041-0.215-0.043-0.271-0.3-0.292
	l-0.049,0.292H31.7v-0.1c-0.036-0.059-0.054-0.127-0.05-0.195h-0.243L31.412,24.535z"/>
</svg>
