<?xml version="1.0" encoding="utf-8"?>
<!-- Generator: Adobe Illustrator 16.0.0, SVG Export Plug-In . SVG Version: 6.00 Build 0)  -->
<!DOCTYPE svg PUBLIC "-//W3C//DTD SVG 1.1//EN" "http://www.w3.org/Graphics/SVG/1.1/DTD/svg11.dtd">
<svg version="1.1" id="Layer_1" xmlns="http://www.w3.org/2000/svg" xmlns:xlink="http://www.w3.org/1999/xlink" x="0px" y="0px"
	 width="40px" height="40px" viewBox="0 0 40 40" enable-background="new 0 0 40 40" xml:space="preserve">
<path id="sw_strv_m38_ico" fill="#FFFFFF" d="M14.357,12.776c0.364-0.025,0.725-0.081,1.079-0.165v-0.357h0.249v0.055
	c-0.031,0.088-0.041,0.182-0.028,0.275l0.332-0.027v-0.083c0.104-0.047,0.218-0.066,0.332-0.055c0.042-0.022,0.09-0.032,0.138-0.027
	c0.009-0.07,0.05-0.13,0.111-0.165c0.112,0.007,0.224,0.026,0.332,0.055c0.029-0.041,0.048-0.088,0.055-0.137H16.9
	c-0.267-0.168-0.763-0.042-1.024-0.22c-0.018-0.023-0.028-0.052-0.028-0.082c0.025-0.051,0.034-0.108,0.028-0.165
	c-0.03,0.001-0.059-0.009-0.083-0.027c0.052-0.065,0.09-0.14,0.111-0.22c0.042-0.023,0.09-0.032,0.138-0.027
	c0.024,0.018,0.053,0.027,0.083,0.027v0.137c0.171,0.049,0.348,0.077,0.526,0.082c0.043-0.127,0.133-0.119,0.3-0.11
	c0.061,0.026,0.128,0.036,0.194,0.028v-0.083c0.264-0.008,0.517-0.105,0.719-0.275h3.679c0.068,0.042,0.133,0.087,0.193,0.137h0.637
	c-0.038,0.25,0.225,0.646,0.249,1.016h2.899c0.222,0.128,0.466,0.212,0.72,0.247c0.526-0.146,1.061-0.265,1.6-0.357V11.76h0.138
	v0.439c0.143-0.003,0.283-0.031,0.416-0.082v-0.028h-0.207v-0.273l0.056-0.027c0.149-0.06,0.312-0.079,0.47-0.055
	c0.479-0.048,0.964-0.03,1.438,0.055c0.056,0.09,0.075,0.196,0.056,0.3c-0.012,0.007-0.021,0.016-0.028,0.027l-2.185,0.521v0.11
	h-0.054c-0.024,0.018-0.054,0.027-0.084,0.027v-0.082c-0.274,0.024-0.544,0.088-0.799,0.192v0.031h0.027
	c0.24,0.146,0.52,0.213,0.8,0.192c0.034-0.136,0.142-0.242,0.277-0.275c0.09,0.028,0.183,0.046,0.276,0.055
	c0.139,0.044,0.662,0.332,0.664,0.33c0.524-0.123,1.064-0.16,1.601-0.11v0.082l-1.134,0.055c-0.065,0.156-0.148,0.303-0.25,0.439
	h0.416v0.132l3.07,0.11h1.77c0.413,0.047,0.83,0.056,1.244,0.027c0.775,0.022,1.551,0.003,2.324-0.055v0.549
	c-0.176-0.003-0.352-0.021-0.525-0.055l-3.154,0.027h-1.738c-0.242,0.052-0.607-0.032-0.885,0.027
	c-0.412,0.057-0.829,0.075-1.245,0.055v0.082c0.343-0.005,0.685,0.013,1.024,0.055v0.278c-0.081,0.022-0.165,0.031-0.249,0.027
	c-0.183-0.008-0.362,0.03-0.526,0.11c0.026,0.1-0.006,0.206-0.083,0.275c-0.017,0.099-0.054,0.192-0.11,0.275h-1.633
	c-0.039,0.07,0.006,0.031-0.082,0.055c0.01,0.14-0.008,0.28-0.056,0.412c-0.323,0.17-0.687,0.247-1.051,0.22v-0.192H27.8
	c-0.063,0.041-0.188,0.039-0.249,0.082c-0.018,0.024-0.027,0.053-0.027,0.082c0.018,0.024,0.027,0.053,0.027,0.082
	c0.03,0,0.06,0.009,0.083,0.027c0.2,0.167,0.472,0.219,0.72,0.137h1.715c0.111,0.086,0.232,0.159,0.359,0.221
	c0.4,0.313,0.905,0.46,1.411,0.412c0.499-0.05,1.003-0.021,1.494,0.082c0,0.049-0.04,0.076-0.056,0.191
	c0.291-0.04,0.588-0.002,0.858,0.109c0.017,0.119,0.026,0.238,0.028,0.357c0.085,0.151,0.178,0.298,0.277,0.439
	c0.021-0.004,0.039-0.013,0.055-0.027h0.027l-0.082-0.191h0.11c0.025,0.193,0.124,0.371,0.277,0.493v-0.11h0.332v0.082
	c0.947-0.174,1.923-0.127,2.849,0.138c0.273,0.05,0.525,0.185,0.719,0.384c0.05,0.208,0.05,0.424,0,0.632
	c0.078,0.013,0.062,0.117,0.056,0.275c-0.022,0.034-0.041,0.071-0.056,0.11c0.064-0.016,0.131-0.016,0.194,0
	c0.063,0.072,0.04,0.08,0.028,0.191h0.027c0.102-0.057,0.219-0.076,0.332-0.055c-0.014,0.129-0.063,0.252-0.138,0.357
	c0.078-0.007,0.155,0.012,0.222,0.055c-0.031,0.063-0.059,0.127-0.084,0.191c0.13-0.014,0.261-0.004,0.388,0.027v0.055
	c-0.072,0.08-0.129,0.174-0.166,0.275c0.063,0.004,0.124,0.033,0.166,0.082c-0.032,0.073-0.079,0.139-0.138,0.191
	c0.137-0.003,0.271,0.035,0.387,0.11c-0.008,0.011-0.017,0.021-0.028,0.027c-0.06,0.097-0.146,0.173-0.249,0.22v0.027
	c0.07,0.008,0.131,0.049,0.166,0.109c-0.027,0.07-0.037,0.146-0.027,0.221c0.086,0.023,0.156,0.084,0.193,0.164h-0.029
	c-0.079,0.063-0.162,0.117-0.25,0.166c0.076,0.031,0.121,0.109,0.111,0.191c-0.074,0.016-0.143,0.055-0.193,0.11
	c0.139,0.026,0.248,0.136,0.276,0.274c-0.115,0.021-0.228,0.059-0.332,0.11c0.069,0.037,0.103,0.116,0.083,0.192l-0.193,0.055
	c0.006,0.012,0.016,0.021,0.027,0.027c0.066,0.074,0.123,0.174,0.193,0.246c-0.002,0.021-0.012,0.041-0.027,0.056
	c-0.103,0.052-0.223,0.062-0.332,0.026v0.056c0.031,0.04,0.059,0.084,0.028,0.11c-0.053,0.055-0.12,0.092-0.194,0.109
	c0.084,0.09,0.133,0.207,0.139,0.329H39c-0.024-0.022-0.053-0.041-0.083-0.056v0.057c0.03,0.051,0.03,0.114,0,0.165
	c-0.065,0.009-0.133-0.001-0.194-0.027v0.027c0.058,0.119,0.076,0.253,0.055,0.384h-0.049c-0.098-0.053-0.197-0.098-0.301-0.137
	c0,0.131,0.012,0.152-0.083,0.191c-0.057,0.007-0.114-0.003-0.165-0.027c0.033,0.118,0.023,0.245-0.029,0.357
	c-0.122-0.041-0.234-0.106-0.332-0.192c0.004,0.089-0.025,0.177-0.082,0.247c-0.092-0.023-0.109-0.055-0.194-0.082
	c0.007,0.111-0.033,0.22-0.11,0.3c-0.034-0.04-0.072-0.077-0.111-0.11c-0.021,0.004-0.04,0.013-0.055,0.027
	c-0.031,0.05-0.069,0.096-0.111,0.137c-0.072,0.033-0.158,0-0.19-0.072c-0.001-0.004-0.003-0.006-0.004-0.01l-0.332,0.165
	c0,0.149,0,0.206-0.11,0.247v0.027h-0.031v-0.018c-0.051-0.029-0.098-0.066-0.137-0.109c-0.084,0.076-0.188,0.123-0.301,0.137
	c-0.021,0.143-0.027,0.232-0.193,0.247c-0.043-0.07-0.073-0.108-0.139-0.082c-0.098,0.042-0.198,0.078-0.3,0.11
	c0,0.158,0.021,0.199-0.083,0.22c-0.043,0.034-0.014,0.019-0.055,0c-0.057-0.021-0.104-0.06-0.139-0.11
	c-0.091,0.084-0.209,0.132-0.332,0.137c0.025,0.084-0.009,0.174-0.082,0.221c-0.057,0.003-0.113-0.006-0.166-0.027
	c-0.023,0.018-0.033,0.092-0.056,0.11c-0.112,0.006-0.224,0.024-0.332,0.055c-0.067,0.048-0.067,0.154-0.166,0.11
	c-0.063-0.049-0.133-0.088-0.207-0.117c-0.054,0.082-0.157,0.115-0.249,0.082c0.008,0.119-0.076,0.226-0.193,0.247
	c-0.164-0.181-0.282-0.033-0.5-0.027c0.012,0.075,0.002,0.151-0.028,0.22H32.7c-0.038-0.07-0.114-0.113-0.194-0.109
	c-0.051,0.036-0.133,0.018-0.193,0.055c-0.051,0.076-0.107,0.15-0.166,0.221c-0.024,0.018-0.054,0.026-0.084,0.026
	c-0.038-0.087-0.125-0.142-0.221-0.137c-0.086,0.042-0.182,0.062-0.277,0.055c0.025,0.093-0.028,0.188-0.121,0.214
	c-0.015,0.004-0.029,0.006-0.045,0.006c-0.041-0.058-0.088-0.113-0.138-0.164c-0.091,0.051-0.196,0.069-0.3,0.055
	c0.004,0.065-0.027,0.129-0.083,0.165c-0.034,0.022-0.071,0.04-0.11,0.055c-0.054-0.187-0.201-0.178-0.443-0.165
	c-0.027,0.061-0.036,0.127-0.028,0.192h-0.171c-0.04-0.058-0.068-0.124-0.083-0.192l-0.387,0.027
	c-0.024,0.102-0.117,0.171-0.222,0.165c-0.021-0.058-0.049-0.113-0.082-0.165c-0.13,0-0.26,0.01-0.388,0.027
	c-0.054,0.071-0.133,0.12-0.221,0.137c-0.081-0.182-0.2-0.178-0.47-0.165c-0.002,0.096-0.081,0.173-0.177,0.171
	c-0.015,0-0.03-0.002-0.045-0.006c-0.081-0.182-0.2-0.178-0.47-0.165v0.057h-0.03v0.027c0.048-0.006,0.097,0.004,0.138,0.026
	c-0.164,0-0.176,0.045-0.332,0.056c-0.08-0.183-0.199-0.179-0.469-0.165v0.082c-0.061,0.055-0.141,0.085-0.222,0.082
	c-0.073-0.161-0.067-0.172-0.332-0.165c-0.044,0.017-0.094,0.017-0.138,0c-0.01,0.062-0.039,0.12-0.083,0.165
	c0.065-0.01,0.133,0,0.194,0.027h-0.36c0.022-0.162-0.062-0.207-0.332-0.192l0.028,0.055h-0.028c-0.091,0.064-0.192,0.11-0.3,0.138
	c-0.034-0.041-0.071-0.077-0.111-0.11c0.018-0.024,0.027-0.053,0.027-0.082h-0.392c-0.022,0.044-0.042,0.089-0.055,0.137
	c0.039-0.003,0.077,0.007,0.11,0.026c-0.129,0.024-0.262,0.016-0.387-0.026c0.015-0.035,0.024-0.072,0.028-0.11l-0.415,0.027
	c-0.011,0.088-0.09,0.15-0.178,0.14c-0.006-0.001-0.011-0.001-0.016-0.003c-0.027-0.068-0.076-0.127-0.139-0.164
	c-0.11,0.012-0.222,0.012-0.332,0c-0.023,0.101-0.117,0.17-0.221,0.164c-0.092-0.17-0.194-0.177-0.471-0.164
	c-0.018,0.104-0.115,0.178-0.221,0.164c-0.107-0.038-0.219-0.066-0.332-0.082h0.249V27.77h-0.389
	c-0.012,0.104-0.105,0.178-0.209,0.166c-0.004,0-0.009-0.001-0.013-0.002c-0.092-0.17-0.193-0.177-0.47-0.164
	c-0.101,0.195-0.342,0.273-0.538,0.172c-0.006-0.002-0.01-0.005-0.015-0.008c0.103,0.03,0.214,0.01,0.3-0.055
	c-0.121-0.107-0.286-0.148-0.443-0.109c-0.004,0.109-0.096,0.196-0.206,0.192c-0.005,0-0.01-0.001-0.015-0.001
	c-0.064-0.165-0.195-0.059-0.332-0.137c0.087,0.029,0.183,0.008,0.249-0.055H20c-0.004,0.109-0.096,0.196-0.207,0.192
	c-0.004,0-0.009-0.001-0.014-0.001c-0.079-0.045-0.279-0.007-0.36-0.055h0.3c0-0.029-0.009-0.059-0.028-0.082
	c-0.125-0.037-0.257-0.046-0.387-0.027c-0.013,0.105-0.108,0.18-0.213,0.166c-0.002,0-0.005,0-0.008-0.001
	c-0.043-0.147-0.134-0.147-0.332-0.137c-0.042-0.022-0.09-0.032-0.138-0.027c-0.001,0.097-0.08,0.173-0.176,0.172
	c-0.015-0.001-0.03-0.003-0.044-0.007c-0.055-0.191-0.218-0.178-0.47-0.165c-0.001,0.097-0.08,0.173-0.176,0.172
	c-0.015-0.001-0.03-0.003-0.044-0.007c-0.023-0.053-0.042-0.108-0.055-0.165h-0.412v0.082c0.093-0.013,0.188-0.004,0.277,0.027
	c-0.167,0.009-0.334,0.026-0.5,0.055l-0.028-0.082c-0.018-0.023-0.027-0.052-0.028-0.082h-0.413v0.082
	c-0.06,0.056-0.14,0.085-0.221,0.082l-0.028-0.082c-0.018-0.023-0.027-0.052-0.028-0.082h-0.414
	c-0.012,0.058-0.03,0.112-0.055,0.165c0.093-0.014,0.188-0.004,0.277,0.027h-0.416c-0.024-0.034-0.042-0.071-0.055-0.11
	c-0.018-0.023-0.028-0.052-0.028-0.082c-0.139-0.011-0.279-0.002-0.415,0.027v0.026c0.084-0.012,0.169-0.002,0.249,0.027
	c-0.152,0.016-0.302,0.053-0.443,0.11c-0.023-0.034-0.042-0.071-0.055-0.11c-0.018-0.023-0.028-0.053-0.028-0.082
	c-0.131-0.021-0.267-0.002-0.387,0.055c-0.022,0.024-0.041,0.053-0.055,0.082c0.075-0.01,0.151-0.001,0.221,0.027l-0.387,0.027
	c-0.039-0.128-0.172-0.201-0.3-0.165c-0.061,0.026-0.128,0.035-0.194,0.026c-0.012,0.09-0.095,0.151-0.184,0.139
	c-0.003,0-0.006,0-0.01-0.002c-0.092-0.17-0.194-0.176-0.47-0.164c-0.024,0.102-0.117,0.171-0.221,0.164
	c-0.095-0.17-0.195-0.17-0.474-0.162c-0.006,0.1-0.092,0.176-0.192,0.169c-0.01-0.001-0.02-0.002-0.029-0.004
	c-0.07-0.036-0.145-0.063-0.221-0.082h0.138v-0.083h-0.388c-0.001,0.096-0.081,0.173-0.176,0.172
	c-0.015-0.001-0.03-0.003-0.045-0.007c-0.092-0.171-0.194-0.177-0.47-0.165c-0.001,0.096-0.081,0.173-0.177,0.172
	c-0.015-0.001-0.03-0.003-0.044-0.007c-0.015-0.015-0.034-0.024-0.055-0.027c0.008-0.167-0.111-0.183-0.36-0.165
	c-0.123,0.146-0.231,0.2-0.387,0.055c0.068-0.035,0.019,0.013,0.055-0.055h-0.028V27.77c-0.186,0-0.186-0.021-0.387-0.027v0.082
	c-0.06,0.055-0.14,0.085-0.221,0.082c-0.009-0.069-0.05-0.131-0.111-0.165c-0.117-0.035-0.24-0.044-0.36-0.027
	c-0.032,0.138-0.072,0.168-0.249,0.165c-0.001-0.064-0.011-0.129-0.028-0.191c-0.121,0.011-0.242,0.002-0.36-0.027
	c0,0.087,0.047,0.037-0.028,0.082c-0.021-0.024-0.112,0.07-0.221,0.082c-0.095-0.164-0.288-0.242-0.47-0.192
	c-0.023,0.102-0.117,0.171-0.221,0.165c-0.041-0.058-0.07-0.123-0.086-0.193c-0.171,0-0.272,0.008-0.387,0
	c-0.011,0.069-0.051,0.13-0.111,0.166c-0.028-0.022-0.07,0-0.111-0.027c-0.042-0.059-0.088-0.113-0.138-0.165
	c-0.111,0-0.222-0.009-0.332-0.027C6.2,27.667,6.2,27.716,6,27.716c-0.082-0.177-0.112-0.2-0.415-0.192
	c-0.047,0.079-0.13,0.13-0.221,0.138c-0.061-0.05-0.116-0.106-0.164-0.167c-0.082-0.02-0.166-0.029-0.249-0.027
	c-0.086,0.059-0.179,0.104-0.277,0.137c-0.03-0.082-0.077-0.156-0.138-0.22c-0.053-0.019-0.109-0.028-0.166-0.026v-0.056
	l-0.083,0.027c-0.025-0.032-0.054-0.06-0.087-0.082c-0.043,0.091-0.151,0.129-0.241,0.086c-0.003-0.001-0.005-0.003-0.008-0.004
	c0.004-0.09-0.025-0.179-0.083-0.247c-0.054-0.023-0.109-0.041-0.166-0.055c-0.015-0.029-0.024-0.078-0.055-0.137
	c-0.058,0.057-0.143,0.077-0.221,0.055c-0.063-0.058-0.118-0.122-0.166-0.192c0.052-0.026,0.085-0.079,0.087-0.137
	c-0.076-0.043-0.135-0.11-0.166-0.192c-0.082,0.02-0.167,0.02-0.249,0c-0.019-0.044-0.029-0.09-0.032-0.138
	c0.041-0.036,0.07-0.084,0.083-0.138c-0.054-0.024-0.102-0.063-0.138-0.109H2.9v-0.055H2.877c-0.013-0.049-0.031-0.094-0.055-0.137
	c-0.171,0.004-0.21-0.007-0.221-0.166c0.072-0.049,0.114-0.133,0.111-0.22c-0.06-0.067-0.081-0.159-0.056-0.246
	c-0.12,0-0.191,0-0.194-0.192c0.12-0.112,0.182-0.274,0.166-0.438c-0.113-0.021-0.188-0.131-0.167-0.244c0-0.001,0-0.002,0-0.003
	h0.055c0.036-0.037,0.086-0.057,0.138-0.055l0.083-0.385C2.674,23.875,2.624,23.824,2.6,23.76c0.019-0.021,0.036-0.061,0.055-0.082
	c0.039-0.023,0.155-0.029,0.194-0.055c0.067-0.072,0.1-0.18,0.166-0.247l-0.083-0.247c0.075-0.043,0.162-0.063,0.249-0.055
	c0.049,0.025,0,0.006,0.055,0l0.028-0.082H2.96v-0.248c-0.088,0-0.067,0.033-0.083-0.082c0.1,0,0.095-0.026,0.083-0.192h0.5
	c0.003-0.074-0.006-0.148-0.028-0.22c0.1-0.023,0.109-0.041,0.111-0.082c-0.054-0.152-0.155-0.093-0.223-0.138
	c-0.015-0.053-0.043-0.101-0.083-0.138c-0.322,0.081-0.63,0.211-0.913,0.385c-0.464,0.17-0.978-0.068-1.147-0.532
	c-0.053-0.146-0.068-0.304-0.042-0.457H1.107c-0.042,0.022-0.09,0.032-0.138,0.026c-0.119,0.133-0.22,0.28-0.3,0.439
	c-0.092,0.686-0.084,1.379,0.023,2.063H0.526c-0.019-0.415-0.064-0.828-0.138-1.236C0.406,22.052,0.625,21.551,1,21.179
	c0.047-0.042,0.118-0.041,0.166-0.081c0.073-0.125,0.167-0.236,0.277-0.33v-0.028H1.189v-0.55H0c0.016-0.371,0.072-0.74,0.166-1.1
	c0.063-0.189,0.187-0.367,0.249-0.549H0.387c-0.117,0.035-0.24,0.044-0.36,0.027L0,18.268h0.664
	c0.107-0.141,0.238-0.262,0.387-0.356l0.332-0.082v-0.113c0.583-0.099,1.158-0.245,1.717-0.437v-0.082
	c0.095-0.004,0.19,0.015,0.277,0.055c0.414-0.118,0.842-0.174,1.272-0.165v-0.082c0.16-0.019,0.073-0.048,0.138-0.082
	c0.176,0.006,0.352,0.024,0.526,0.056c0.197-0.031,0.391-0.078,0.581-0.138v0.082c0.525,0.071,1.058,0.052,1.577-0.055
	c0.012-0.101-0.013-0.069,0.055-0.11c0.064-0.028,0.14-0.018,0.194,0.027c-0.008-0.102,0.001-0.203,0.028-0.3
	c0.579-0.175,1.171-0.303,1.77-0.384c0.329-0.114,0.676-0.16,1.023-0.137c0.065,0.066,0.104,0.154,0.111,0.247h-0.14v0.467
	c0.492-0.021,0.981-0.076,1.466-0.165c0.134-0.035,0.312,0.007,0.415-0.027c-0.005-0.047,0.004-0.095,0.028-0.137
	c0.042-0.023,0.09-0.032,0.138-0.027c0.014,0.022,0.033,0.041,0.055,0.055v0.11h0.747c0.096-0.069,0.215-0.099,0.332-0.082
	c0,0,0.1,0.021,0.111,0.027v0.055h0.443c0.027,0.012,0.005,0.078,0.138,0.055c0.154-0.042,0.312-0.069,0.47-0.082
	c0.428,0.081,0.866,0.099,1.3,0.056l0.028-0.166h-1.19c-0.2-0.451-0.317-0.924-0.5-1.4c-0.162-0.273-0.23-0.591-0.194-0.906
	c-0.09,0.026-0.187,0.026-0.277,0v-0.142h-0.08c-0.016-0.196,0.013-0.393,0.083-0.577h-0.111v-0.3
	c0.158-0.048,0.122-0.269,0.111-0.467c0.112-0.17,0.152-0.377,0.111-0.577v-1.51c0.01-1.556,0.019-3.112,0.028-4.668V4.538
	c-0.024-0.174-0.015-0.352,0.027-0.522c0,1.834,0.028,3.778,0.028,5.657v2.609C14.292,12.438,14.338,12.605,14.357,12.776z
	 M2.49,24.748c0.015,0.015,0.024,0.034,0.028,0.055H2.49V24.748z M2.545,25.297c0.015,0.016,0.025,0.034,0.028,0.055H2.545V25.297
	L2.545,25.297z M2.822,26.066c0.015,0.015,0.024,0.033,0.028,0.055H2.822V26.066z M5.7,27.604h0.054v0.027
	C5.733,27.628,5.715,27.618,5.7,27.604z M5.838,27.686h0.054v0.03c-0.021-0.003-0.041-0.014-0.055-0.028L5.838,27.686z
	 M6.447,27.686H6.5v0.03c-0.021-0.003-0.04-0.014-0.055-0.028L6.447,27.686z M7.139,27.686h0.053v0.03
	c-0.021-0.003-0.04-0.014-0.055-0.028L7.139,27.686z M6.916,27.716h0.055v0.027C6.95,27.74,6.931,27.73,6.916,27.716z M7.276,27.771
	h0.055v0.024c-0.021-0.003-0.041-0.013-0.056-0.026L7.276,27.771z M7.885,27.771h0.054v0.024c-0.021-0.003-0.04-0.013-0.055-0.026
	L7.885,27.771z M8.577,27.771h0.054v0.024C8.61,27.793,8.59,27.783,8.575,27.77L8.577,27.771z M8.356,27.798h0.053v0.027
	c-0.021-0.004-0.041-0.014-0.055-0.029L8.356,27.798z M30.514,27.798h0.055v0.027c-0.021-0.003-0.041-0.014-0.057-0.029
	L30.514,27.798z M9.324,27.854h0.054v0.026c-0.021-0.003-0.041-0.014-0.056-0.028L9.324,27.854z M29.602,27.854
	c0.12-0.018,0.242-0.009,0.359,0.026c-0.121,0.017-0.244,0.007-0.361-0.028L29.602,27.854z M9.795,27.88h0.053v0.026
	c-0.021-0.004-0.04-0.013-0.055-0.027L9.795,27.88z M23.82,27.88h0.055v0.026c-0.021-0.003-0.042-0.012-0.059-0.027L23.82,27.88z"/>
</svg>
