<?xml version="1.0" encoding="utf-8"?>
<!-- Generator: Adobe Illustrator 16.0.0, SVG Export Plug-In . SVG Version: 6.00 Build 0)  -->
<!DOCTYPE svg PUBLIC "-//W3C//DTD SVG 1.1//EN" "http://www.w3.org/Graphics/SVG/1.1/DTD/svg11.dtd">
<svg version="1.1" id="Layer_1" xmlns="http://www.w3.org/2000/svg" xmlns:xlink="http://www.w3.org/1999/xlink" x="0px" y="0px"
	 width="39.969px" height="40px" viewBox="0 0 39.969 40" enable-background="new 0 0 39.969 40" xml:space="preserve">
<path id="Color_Fill_1" fill="#FFFFFF" d="M13.569,12.584c0.114,0.016,0.229-0.001,0.334-0.049h-0.282v-0.1h0.286V9.63
	c-0.052-0.371-0.036-0.749,0.048-1.114v3.923h0.1c0.27-0.033,0.542-0.033,0.812,0c0.032,0.094,0.048,0.192,0.048,0.291h-0.913
	c-0.029,0.078-0.045,0.159-0.048,0.242h0.715v0.144c0.683-0.055,1.37-0.055,2.053,0v-0.144c0.149,0.03,0.293,0.079,0.43,0.145h1.241
	v-0.242h0.048v0.048c0.081,0.089-0.046,0.116,0.191,0.145c0.181,0.076,0.377,0.11,0.573,0.1v0.145
	c-0.5,0.02-0.945,0.049-1.575,0.048c0.034,0.077,0.034,0.165,0,0.242c-0.254-0.006-0.226-0.1-0.239,0.194h-0.047v0.048h0.048
	c0.153,0.014,0.3,0.063,0.43,0.146c-0.164,0.1-0.073,0.284-0.048,0.484l0.62,0.048c0.04,0.157-0.023,0.074,0.1,0.145
	c0.306,0.021,0.609,0.07,0.907,0.145v0.145l1.193,0.339c0.033,0.037,0.063,0.108,0.1,0.145v-0.677c1-0.11,2.322,0.072,3.342,0.048
	c0.038,0.142,0.055,0.289,0.048,0.436h0.187v0.436c0.476,0.027,1.074,0.07,1.526,0.145l0.382-0.048
	c0.457,0.135,0.816,0.535,1.241,0.678h0.431c0.038,0.062,0.071,0.127,0.1,0.194l1.52,0.048c0.301-0.481,1.281-0.354,2.053-0.339
	c0.354,0.549,1.4,0.436,2.291,0.436c2.094,0,4.625,0.016,6.157,0.1v0.678c-1.452,0.042-3.579,0.1-5.44,0.1h-2.2
	c-0.528,0.146-1.077,0.194-1.623,0.146c-1.194-0.118-2.399-0.069-3.58,0.145h-0.81l-0.715,0.437c-0.16,0.004-0.32,0.021-0.478,0.049
	c0.319,0.023,0.164,0.076,0.286,0.145l0.906,0.049v0.291c0.118,0.104,0.273,0.157,0.431,0.145c0.125,0.029,0.253,0.045,0.382,0.048
	c0.497,0.153,1.009,0.251,1.527,0.291c0.129-0.093,0.275-0.159,0.43-0.194c0.031,0.043,0.047,0.094,0.048,0.146l0.235,0.046v0.1
	h-0.141c-0.005,0.068,0.012,0.137,0.049,0.194v-0.151l1.146,0.194v-0.101c0.03-0.041,0.048-0.092,0.048-0.145
	c-0.037-0.004-0.073-0.021-0.1-0.048c0.129,0.001,0.257,0.017,0.382,0.048v0.148c0.155,0.04,0.073-0.024,0.144,0.1
	c-0.053,0-0.103,0.017-0.144,0.048h0.048c0.498,0.137,1.012,0.202,1.527,0.194c0,0.232-0.11,0.755-0.1,0.823
	c0.045,0.058,0.079,0.123,0.1,0.194c-0.43,0.283-0.844,0.591-1.241,0.92c-0.137,0.229-0.101,0.478-0.239,0.678
	c-0.53,0.579-1.123,1.099-1.766,1.55c-0.461,0.53-1.029,0.957-1.667,1.253l-1.671,0.049H7.463c-0.687,0.069-1.381,0.02-2.052-0.145
	c-0.303-0.203-0.576-0.447-0.812-0.725c-0.839-0.68-1.606-1.444-2.291-2.279c-0.038,0.004-0.074,0.021-0.1,0.049
	c-0.084,0.238-0.281,0.419-0.525,0.484c-0.129-0.176-0.227-0.372-0.286-0.582H1.353v0.679h-0.1v-0.675
	c0.032-0.211,0.016-0.427-0.048-0.631c0.022-0.344-0.024-0.689-0.136-1.017c-0.31-0.608-1.47-1.099-0.957-2.276
	c0.096-0.156,0.227-0.289,0.382-0.387c-0.075-0.091-0.09-0.1-0.048-0.193v-0.101c0.026,0.027,0.043,0.063,0.048,0.101
	c0.075,0.074,0.18,0.11,0.286,0.1c0.233-0.146,0.8,0.189,1.241,0.1c1.142-0.14,2.295-0.14,3.437,0c0.321,0.006,0.64,0.039,0.955,0.1
	c0.062,0.098,0.171,0.153,0.286,0.146c0.28-0.209,1.275,0.17,1.766,0.101c0.145-0.005,0.289-0.021,0.43-0.05
	c0.055-0.072,0.12-0.138,0.191-0.194c0.719-0.08,1.446-0.031,2.148,0.146c0.054,0.071,0.088,0.154,0.1,0.242
	c0.152,0.043,0.297,0.108,0.43,0.194c0.541,0.06,1.087,0.043,1.623-0.049v-0.06c-0.8-0.107-1.576-0.353-2.291-0.728H9.42
	c-0.616-0.137-1.473,0.101-2.148-0.047c-0.834-0.186-1.881-0.01-2.721-0.194H3.644c-0.192-0.046-0.385-0.151-0.575-0.194v-0.387
	h0.146c0.007-0.063,0.044-0.117,0.1-0.145c-0.067-0.063-0.104-0.151-0.1-0.242H3.069c-0.025-0.45,0.012-0.261,0.191-0.436
	l-0.048-0.1c0.081-0.2-0.008-0.33,0.334-0.339c-0.009-0.083,0.008-0.168,0.048-0.242v0.194c1.33-0.08,2.653-0.241,3.962-0.484
	c0.039-0.139,0.104-0.269,0.193-0.382c-0.028-0.292-0.012-0.585,0.048-0.872c-0.007,0.349,0.059,0.695,0.191,1.017h0.143
	c0,0.052,0.017,0.104,0.048,0.145c0.121,0.049,0.252,0.066,0.382,0.048c0.631-0.105,1.273-0.122,1.909-0.048
	c0.279-0.374,0.447-0.117,0.43-0.872H11c0.604-0.175,1.237-0.224,1.861-0.145c0.076-0.448,0.092-0.904,0.048-1.356
	c0.124-0.037,0.253-0.053,0.382-0.048v-0.197h0.048c0.07,0.122,0.021,0.075,0.191,0.1v-2.91c-0.057-0.386-0.044-0.78,0.039-1.162
	V12.584z M7.32,8.71c0.073,0.17,0.073,0.363,0,0.533V8.71z M7.369,9.291c0.072,0.17,0.072,0.363,0,0.533V9.291z M7.417,9.872
	c0.072,0.17,0.072,0.363,0,0.533V9.872z M7.465,10.453c0.073,0.17,0.073,0.362,0,0.533V10.453z M7.513,11.034
	c0.072,0.17,0.072,0.362,0,0.533V11.034L7.513,11.034z M7.559,11.616c0.072,0.17,0.072,0.362,0,0.533V11.616z M7.607,12.197
	c0.073,0.17,0.073,0.362,0,0.533V12.197z M14.767,12.488c-0.134,0.082-0.487,0.012-0.62,0.1h0.668
	c-0.003-0.038-0.02-0.073-0.046-0.1H14.767z M13.956,12.536c0.082,0.043,0.061,0.043,0.143,0H13.956L13.956,12.536z M7.656,12.778
	c0.072,0.17,0.072,0.363,0,0.533V12.778z M13.145,13.165h0.334c0.029-0.078,0.045-0.159,0.048-0.242
	c-0.093-0.028-0.193-0.028-0.286,0c-0.08,0.053-0.119,0.149-0.098,0.243L13.145,13.165z M13.575,12.923v0.145l0.334-0.048
	c0-0.052-0.017-0.104-0.048-0.145c-0.09,0.044-0.192,0.061-0.292,0.048H13.575z M13.145,13.262c0,0.053,0.016,0.104,0.048,0.146
	c0-0.053-0.018-0.104-0.05-0.146H13.145z M7.704,13.362c0.072,0.17,0.072,0.363,0,0.533v-0.536V13.362z M14.721,13.362l-0.048,0.436
	c-0.067-0.005-0.134,0.012-0.191,0.048c0.157-0.032,0.32-0.032,0.477,0v-0.487h-0.241L14.721,13.362z M16.535,13.362
	c0.086,0.061,0.2,0.061,0.286,0h-0.289H16.535z M16.965,13.362c0.027,0.027,0.063,0.043,0.1,0.048
	c-0.027-0.028-0.064-0.046-0.103-0.051L16.965,13.362z M15.104,13.462c0.004,0.115-0.012,0.229-0.048,0.339h0.334v0.048h0.048
	c0.01-0.088,0.045-0.172,0.1-0.242c-0.224-0.038-0.232-0.11-0.438-0.151L15.104,13.462z M13.147,13.51v0.388h0.1v-0.054
	c-0.05-0.068-0.06-0.271-0.104-0.339L13.147,13.51z M16.441,13.558V13.8h0.328c-0.014-0.08-0.014-0.162,0-0.242h-0.332H16.441z
	 M15.725,13.607c-0.043,0.06-0.077,0.125-0.1,0.194h0.044v0.048c0.175-0.081,0.111-0.086,0.286,0v-0.1
	c-0.086-0.035-0.166-0.084-0.234-0.147L15.725,13.607z M0.025,15.787c0.026,0.027,0.043,0.063,0.048,0.1H0.017v-0.1H0.025z
	 M0.168,16.417c0.026,0.027,0.043,0.063,0.048,0.1H0.16v-0.1H0.168z M0.216,16.611c0.026,0.027,0.043,0.063,0.048,0.1H0.208v-0.1
	H0.216z M0.264,16.805c0.031,0.042,0.047,0.093,0.048,0.146H0.255v-0.152L0.264,16.805z M0.312,17.047
	c0.031,0.042,0.047,0.093,0.048,0.145H0.303V17.04L0.312,17.047z M0.36,17.241c0.031,0.042,0.048,0.093,0.048,0.145H0.351v-0.152
	L0.36,17.241z M0.399,17.428c0.051,0.055,0.051,0.14,0,0.194V17.428z M1.163,20.189H1.019v-0.101
	c-0.196-0.595-0.308-1.215-0.334-1.841c-0.038-0.004-0.073-0.021-0.1-0.048c-0.038,0.004-0.073,0.021-0.1,0.048
	c-0.119,0.07-0.218,0.17-0.286,0.291c-0.08,0.595,0.134,1.191,0.573,1.6c0.169,0.104,0.303,0.255,0.382,0.437H1.21v-0.241
	c-0.031-0.043-0.048-0.094-0.048-0.146L1.163,20.189z M6.363,18.35c0.027,0.025,0.063,0.043,0.1,0.047
	c-0.025-0.025-0.058-0.043-0.094-0.049L6.363,18.35z M24.406,18.449v0.1h-1.237v0.1h0.62c0.118-0.053,0.693,0.056,0.811,0
	l0.191-0.145v-0.059h-0.383L24.406,18.449z M11.706,18.497c0.067-0.006,0.134,0.011,0.191,0.048
	c-0.066,0.004-0.131-0.015-0.186-0.052L11.706,18.497z M28.794,19.611c0.054,0.051,0.138,0.051,0.19,0H28.8H28.794z M31.753,20.047
	c0.082,0.043,0.062,0.043,0.144,0h-0.138H31.753z M1.253,20.338v0.1c0.082-0.064,0.063-0.027,0.005-0.104L1.253,20.338z
	 M1.353,20.58c0.005,0.066,0.021,0.133,0.048,0.193c0.026-0.027,0.043-0.062,0.048-0.1h0.047c0.047-0.049-0.047-0.048-0.048-0.048
	c-0.026-0.026-0.059-0.044-0.095-0.05V20.58z M32.141,20.58v0.1h0.049v-0.056h0.047c-0.025-0.026-0.059-0.043-0.096-0.048V20.58z
	 M1.783,21.402c-0.023,0.133-0.057,0.262-0.1,0.389h0.052C1.75,21.681,1.8,21.578,1.878,21.5c0.062,0.119-0.02,0.033,0.1,0.1v-0.1
	c-0.07-0.022-0.136-0.057-0.195-0.102V21.402z M2.069,21.448c0.042,0.04,0.09,0.074,0.143,0.1v-0.1H2.069z M1.401,21.835
	l0.048,0.291h0.047v-0.291h-0.1H1.401z M28.369,23.288c0.025,0.068,0.059,0.134,0.1,0.194c0.055-0.081,0.143-0.135,0.239-0.146
	v-0.049H28.369z M4.741,23.336H4.504v0.048h0.1c0.028,0.056,0.082,0.093,0.143,0.101v-0.147L4.741,23.336z M8.225,24.305
	c-0.077,0.184-0.19,0.348-0.334,0.484h0.718v-0.1c-0.148-0.105-0.277-0.236-0.382-0.385H8.225z M15.051,24.354
	c-0.063,0.164-0.161,0.313-0.286,0.436h0.668v-0.048c-0.158-0.108-0.227-0.277-0.38-0.388H15.051z M11.614,24.4
	c-0.086,0.137-0.182,0.266-0.286,0.388h0.668v-0.047c-0.112-0.128-0.24-0.242-0.38-0.339L11.614,24.4z M24.836,24.4l-0.286,0.388
	h0.619v-0.101c-0.103-0.104-0.213-0.199-0.331-0.285L24.836,24.4z M21.447,24.501l-0.239,0.291h0.524v-0.051L21.447,24.501z
	 M18.347,24.602l-0.143,0.193h0.334c-0.047-0.081-0.113-0.149-0.192-0.199L18.347,24.602z"/>
</svg>
