<?xml version="1.0" encoding="utf-8"?>
<!-- Generator: Adobe Illustrator 16.0.0, SVG Export Plug-In . SVG Version: 6.00 Build 0)  -->
<!DOCTYPE svg PUBLIC "-//W3C//DTD SVG 1.1//EN" "http://www.w3.org/Graphics/SVG/1.1/DTD/svg11.dtd">
<svg version="1.1" id="Layer_1" xmlns="http://www.w3.org/2000/svg" xmlns:xlink="http://www.w3.org/1999/xlink" x="0px" y="0px"
	 width="39.969px" height="40px" viewBox="0 0 39.969 40" enable-background="new 0 0 39.969 40" xml:space="preserve">
<path id="sw_strv_103c_ico" fill="#FFFFFF" d="M12.808,14.984c0.025-0.116,0.041-0.234,0.045-0.353
	c-0.116,0.009-0.139,0.039-0.27,0.044c-0.033-0.067-0.107-0.103-0.18-0.088c-0.03,0.064-0.072,0.195-0.09,0.221
	c-0.049,0.021-0.104,0.029-0.157,0.022c-0.007-0.083,0.009-0.167,0.045-0.243h-0.18c-0.079,0.105-0.224,0.134-0.337,0.066
	c-0.078-0.159-0.124-0.332-0.135-0.508c0.163,0.016,0.326-0.014,0.472-0.088h0.022v-0.11c0.024,0,0.048-0.008,0.068-0.022
	c0.02-0.041,0.027-0.087,0.022-0.133h0.045v0.066h0.315v0.066h0.36v-0.132h0.607c0.019-0.072-0.011-0.034,0.045-0.066
	c0.097,0.009,0.195,0.009,0.292,0c0.215,0.043,0.433,0.065,0.652,0.066c-0.006,0.066-0.006,0.133,0,0.2
	c0.147,0.035,0.3,0.042,0.45,0.022h1.1l0.045-0.2h0.045v0.044c0.033,0.045,0.049,0.1,0.045,0.155l0.45,0.022v0.088
	c-0.415,0-0.79,0-1.192,0.022v0.045c0.066,0.009,0.133,0.009,0.2,0v0.11h-0.923v0.022h0.022c0.08,0.025,0.164,0.033,0.247,0.021
	v0.309c0.063,0.106,0.158,0.191,0.27,0.243c0.284-0.024,0.57-0.024,0.854,0v0.022c-0.1,0.112-0.184,0.238-0.247,0.375
	c0.08,0.036,0.155,0.081,0.225,0.132c0.03-0.022,0.054-0.053,0.067-0.088c-0.017-0.002-0.033-0.01-0.045-0.022h0.292
	c0.001,0.062,0.017,0.123,0.045,0.177h0.77V15.47h0.022V15.4c0.207-0.005,0.357,0,0.585,0v-0.129
	c0.13,0.002,0.259,0.025,0.382,0.066c-0.013,0.11-0.051,0.216-0.112,0.309c0.111,0.025,0.224,0.04,0.337,0.044
	c-0.019,0.076-0.057,0.145-0.112,0.2h0.09c0.027-0.017,0.059-0.024,0.09-0.022c0.025-0.1,0.048-0.113,0.18-0.11V15.8
	c-0.08,0.009-0.057-0.01-0.09,0.044h0.045c0.486,0.112,0.986,0.156,1.484,0.132v0.177c0.623,0.085,1.239,0.21,1.844,0.375
	c0.169,0.041,0.253-0.042,0.4,0c0.135,0.039,0.383,0.054,0.539,0.089l1.035-0.022c0.942,0,2-0.076,2.832-0.066v0.133
	c-0.023,0-0.047,0.008-0.066,0.021h0.021c0.474,0.103,0.963,0.11,1.439,0.022v-0.13c0.229-0.057,0.466-0.072,0.699-0.044
	c0.207-0.045,0.421-0.052,0.631-0.022l1.506-0.022c0.031,0.045,0.047,0.1,0.045,0.155h0.225v0.088h0.2l0.022-0.177
	c0.072-0.052,0.16-0.076,0.248-0.066c0.154,0.038,0.314,0.045,0.472,0.022c0.036,0.061,0.052,0.131,0.045,0.2h0.112v-0.09h0.769
	l0.112-0.662c0.018-0.011,0.033-0.026,0.045-0.044l0.111,0.044l-0.156,0.706h0.09c0.021-0.232,0.066-0.461,0.135-0.684h0.068
	c0.02,0.018,0.043,0.033,0.066,0.044c-0.07,0.212-0.076,0.479-0.156,0.684h0.064c0.433-0.034,0.867-0.042,1.301-0.022
	c0.357-0.039,0.719-0.046,1.078-0.021c0.494,0,1.105-0.028,1.601-0.044c0.412,0.021,0.825,0.013,1.237-0.022V16.53
	c0.411-0.059,0.83-0.044,1.236,0.044c0.052,0.231,0.06,0.471,0.023,0.706c-0.369,0.026-0.801,0.063-1.26,0.065v-0.064l-5.399,0.088
	l-0.067,0.354h0.051l0.022,0.131c-0.036-0.016-0.076-0.016-0.112,0c-0.01,0.113-0.033,0.224-0.066,0.332l0.022,0.838h0.022
	c0.115-0.067,0.248-0.098,0.382-0.088c0.112,0.101,0.327,0.236,0.18,0.465l-0.157,0.109v0.751c-0.012,0.013-0.02,0.027-0.022,0.044
	l-0.067,0.022c-0.029,0.011-0.061,0.011-0.09,0v-0.044c-0.053-0.24-0.061-0.486-0.023-0.729l-0.584,0.089
	c-0.018,0.041-0.025,0.086-0.022,0.131c-0.081,0.125-0.171,0.242-0.271,0.354c-0.186,0.074-0.385,0.111-0.584,0.11
	c-0.32,0.048-0.637,0.122-0.944,0.221c-0.61,0.239-1.15,0.626-1.574,1.126c-0.094,0.117-0.25,0.18-0.337,0.309H29.02v-0.02
	c-0.013-0.012-0.021-0.027-0.023-0.044c0.036-0.022,0.067-0.052,0.09-0.088c-0.031-0.003-0.062-0.011-0.09-0.022
	c-0.016-0.1-0.077-0.146-0.09-0.221c-0.024-0.132,0.146-0.569,0.156-0.773h-0.021v0.022c-0.028,0.038-0.044,0.085-0.045,0.132
	c-0.029-0.01-0.062-0.01-0.09,0c-0.056,0.053-0.087,0.124-0.091,0.2l0.067,0.021c-0.077,0.228-0.238,0.417-0.45,0.53
	c-0.018-0.031-0.054-0.049-0.09-0.044c-0.045,0.053-0.098,0.098-0.156,0.133c0.019,0.027,0.034,0.057,0.045,0.088
	c-0.183,0.151-0.379,0.285-0.586,0.4c-0.035-0.05-0.037-0.046-0.066-0.044c-0.064,0.028-0.125,0.065-0.18,0.11
	c0.02,0.05,0.039,0.057,0.022,0.088c-0.156,0.135-0.321,0.261-0.495,0.375c-0.14-0.058-0.131-0.025-0.27,0.065
	c0.033,0.073,0.074,0.05,0.021,0.089c-0.148,0.164-0.334,0.292-0.539,0.375c-0.025-0.063,0-0.041-0.067-0.066
	c-0.064,0.047-0.118,0.107-0.157,0.177c0,0,0.064,0.029,0.045,0.044h-0.021c-0.154,0.158-0.338,0.286-0.541,0.375
	c-0.01-0.031-0.035-0.057-0.066-0.066c-0.068,0.043-0.123,0.104-0.157,0.178c0.015,0.019,0.022,0.042,0.022,0.066
	c-0.201,0.098-0.396,0.209-0.586,0.33c-0.01-0.031-0.024-0.061-0.045-0.088l-0.18,0.088c-0.051,0.076,0.036,0.071-0.09,0.088
	c-0.175,0.057-0.356,0.086-0.54,0.088v-0.109h-0.2c-0.014,0.035-0.021,0.072-0.022,0.109h-0.608v-0.088
	c-0.073-0.02-0.148-0.026-0.225-0.022c-0.006,0.009-0.014,0.017-0.023,0.022c0,0.063,0.022,0.03,0,0.065
	c-0.199,0.044-0.404,0.052-0.607,0.022v-0.088c-0.064-0.018-0.132-0.025-0.199-0.022c-0.014,0.035-0.021,0.072-0.021,0.11h-0.61
	v-0.088h-0.046c-0.064-0.025-0.135-0.025-0.199,0v0.088h-0.609v-0.088H20.34c-0.058-0.021-0.122-0.021-0.18,0v0.088h-0.607v-0.088
	h-0.247v0.088h-0.607v-0.088h-0.23v0.088h-0.6v-0.088h-0.25v0.088h-0.607v-0.088h-0.225v0.088H16.18
	c0-0.024-0.008-0.048-0.023-0.066c-0.072-0.025-0.149-0.032-0.225-0.021v0.088h-0.606v-0.088h-0.225v0.088h-0.607
	c0-0.024-0.008-0.048-0.023-0.066c-0.072-0.025-0.149-0.032-0.225-0.021v0.088H13.64v-0.088h-0.225v0.088h-0.607
	c0-0.024-0.007-0.048-0.022-0.066c-0.072-0.025-0.149-0.032-0.225-0.021v0.088h-0.608v-0.088h-0.225v0.088h-0.607
	c0-0.024-0.008-0.048-0.023-0.066c-0.064-0.023-0.133-0.031-0.2-0.021v0.088c-0.21,0.014-0.421-0.032-0.607-0.133
	c-0.034-0.053,0.028-0.053-0.045-0.088c-0.053-0.038-0.115-0.061-0.18-0.066l-0.022,0.066c-0.227-0.067-0.429-0.197-0.585-0.375
	c0.019-0.02,0.034-0.041,0.045-0.066l-0.157-0.109c-0.056,0.018-0.073,0.068-0.09,0.044c-0.165-0.091-0.323-0.194-0.472-0.31
	l0.022-0.133c-0.054-0.016-0.102-0.046-0.138-0.089c-0.052,0.017-0.094,0.075-0.112,0.044c-0.178-0.088-0.337-0.207-0.472-0.353
	c0.025-0.013,0.042-0.038,0.045-0.066c-0.056-0.053-0.125-0.091-0.2-0.11c-0.01,0.025-0.026,0.101-0.045,0.045
	c-0.189-0.081-0.353-0.213-0.474-0.379c0.018-0.012,0.034-0.026,0.045-0.045c-0.057-0.053-0.125-0.09-0.2-0.109
	c-0.03,0.051-0.027,0.04-0.045,0.044c-0.256-0.134-0.473-0.332-0.63-0.574c-0.034,0.021-0.073,0.027-0.112,0.022
	c-0.198-0.143-0.347-0.344-0.427-0.574c0.045-0.073,0.054-0.163,0.022-0.243c-0.029,0-0.049,0.035-0.09,0
	c-0.068-0.058,0.01-0.087-0.022-0.155c-0.032-0.067-0.138-0.111-0.18-0.177c-0.039,0.017-0.041,0.058-0.067,0.022
	c-0.037-0.022-0.067-0.053-0.09-0.088c0.018-0.012,0.033-0.026,0.045-0.045c-0.089-0.059-0.165-0.133-0.225-0.221
	c-0.08,0.027-0.164,0.035-0.247,0.022c-0.047-0.095-0.139-0.177-0.18-0.265l0.022-0.066c-0.079-0.131-0.271-0.217-0.361-0.35
	c-0.035,0.021-0.067,0.08-0.09,0.045c-0.149-0.066-0.245-0.213-0.247-0.375c-0.094-0.144-0.284-0.229-0.382-0.375
	c-0.023,0.029-0.054,0.053-0.09,0.065l-0.225-0.243c0.027-0.016,0.05-0.039,0.067-0.066c-0.035-0.045-0.058-0.098-0.067-0.154
	c-0.019,0.02-0.042,0.034-0.067,0.044c-0.028-0.032-0.051-0.069-0.067-0.11c0.05-0.041,0.089-0.094,0.112-0.154H3.589v-0.023
	c-0.178,0.1-0.381,0.146-0.585,0.133c0.016,0.258,0.009,0.517-0.022,0.773c-0.036,0.014-0.074,0.021-0.112,0.021
	c-0.02-0.018-0.035-0.041-0.045-0.065c-0.048-0.21-0.055-0.428-0.022-0.64c-0.172,0.043-0.328,0.135-0.45,0.265
	c-0.19,0.155-0.403,0.281-0.63,0.375l-0.45,0.021c-0.088,0.023-0.179,0.038-0.27,0.044c-0.433-0.218-0.721-0.645-0.764-1.127
	c-0.095-0.2-0.178-0.406-0.247-0.617c-0.015-0.131,0.057-0.256,0.177-0.31L0.486,17.1c-0.001-0.052-0.008-0.104-0.022-0.154h0.022
	v-0.019h0.045v0.066c0.437-0.017,0.871-0.069,1.3-0.155v-0.064h0.027v0.021c0.092,0,0,0.021,0.067,0.066
	c0.054,0.006,0.107-0.002,0.157-0.022v0.11c0.839,0,0.845-0.456,1.327-0.773c0.217-0.09,0.421-0.208,0.607-0.353
	c0.032-0.115,0.04-0.235,0.023-0.354c0.026-0.027,0.057-0.051,0.09-0.07c0.064-0.023,0.132-0.038,0.2-0.044l0.045,0.066
	c0.034,0.093,0.057,0.189,0.067,0.287c0.251-0.046,0.535-0.1,0.809-0.133c0.119-0.013,0.344,0.071,0.472,0.044
	c0.019-0.024,0.557-0.093,0.72-0.133h0.767c0.43,0.011,0.86-0.026,1.282-0.11c0.129,0.01,0.257,0.032,0.382,0.066
	c0.138-0.057,0.281-0.101,0.427-0.133c0.377,0.208,0.817,0.271,1.237,0.177c0.268-0.034,0.539-0.041,0.809-0.022
	c-0.003-0.148,0.012-0.296,0.045-0.441V7.5h0.045v7.22c0.048,0.24,0.063,0.485,0.045,0.729c0.148,0.027,0.3,0.034,0.45,0.021
	L11.908,15.4c0.114-0.1,0.07,0.016,0.067-0.133v-0.018h0.135c0.023-0.015,0.09-0.028,0.112-0.044
	c0.02-0.041,0.028-0.087,0.023-0.133c-0.029-0.012-0.059-0.02-0.09-0.022c0,0.079,0.033,0.046-0.045,0.066
	c-0.028-0.033-0.051-0.07-0.068-0.11h0.27C12.475,14.967,12.643,14.96,12.808,14.984z"/>
</svg>
