<svg xmlns="http://www.w3.org/2000/svg" width="39.969" height="40" viewBox="0 0 39.969 40">
  <defs>
    <style>
      .cls-1 {
        fill: #fff;
        fill-rule: evenodd;
      }
    </style>
  </defs>
  <path id="sw_strv_m41_s2_ico" class="cls-1" d="M16.846,16.354a1.344,1.344,0,0,0,.416-0.07,4.463,4.463,0,0,1,.624.07,7.7,7.7,0,0,0,.1-1.2c0.155-.1.233-0.28,0.381-0.387a0.528,0.528,0,0,1-.069-0.351,0.365,0.365,0,0,1,.312-0.106,0.42,0.42,0,0,0,.208-0.105,0.182,0.182,0,0,0,.035-0.105H18.822a0.173,0.173,0,0,1-.173.07,0.428,0.428,0,0,1-.139-0.351l0.1-.035a4.241,4.241,0,0,1,.9-0.316,0.488,0.488,0,0,1,.1.281,0.624,0.624,0,0,0-.139.105,0.369,0.369,0,0,1,.069.211h0.139V13.929h0.173v0.141h0.173V13.929h0.139v0.141h0.485V13.929a3.608,3.608,0,0,1,.971-0.035,0.175,0.175,0,0,0,.1.035v0.141c0.263,0,.335-0.063.589-0.07V13.893c0.365,0,.589-0.12.936-0.141v0.141a0.306,0.306,0,0,1,.243.316,0.581,0.581,0,0,1,.208-0.07c0.074,0.149.152,0.151,0.381,0.141a0.175,0.175,0,0,0,.1.035V13.929a3.473,3.473,0,0,1,.936-0.035,2.633,2.633,0,0,1,.035.7,0.239,0.239,0,0,1,.035.141H25.026v0.7h0.139A0.669,0.669,0,0,0,25.2,16a0.69,0.69,0,0,1,.277.246,0.181,0.181,0,0,1,.035.105,0.845,0.845,0,0,0,.312-0.07,5.2,5.2,0,0,1,.52.07l0.035-.07a0.169,0.169,0,0,1,.173.07,5.2,5.2,0,0,0,.936.035L27.66,16.6l0.069,0.316c0.1,0.141.311,0.235,0.416,0.387a0.521,0.521,0,0,0,.069.176h0.52v0.141l3.743,0.141H33.9c1.128,0,2.283-.037,3.362-0.035v0.6c-2.078,0-4.309.031-6.412,0.035v0.035h0.035a0.317,0.317,0,0,0,.277.035v0.281c-0.332-.014-0.769,0-1.248,0a2.071,2.071,0,0,1-.069.844H28.319a1.406,1.406,0,0,0-.451.563H27.9V20.15h0.1v0.105h0.069a1.213,1.213,0,0,0,.173.035H28.215a0.176,0.176,0,0,1-.1.035c-0.017.243,0,.307,0,0.633h2.08a2.55,2.55,0,0,1,.867,0,0.182,0.182,0,0,1,.035.105c0.165,0,.363.1,0.451,0.07a0.51,0.51,0,0,1,.243-0.105,0.1,0.1,0,0,0,.035.035,0.657,0.657,0,0,0,.035.176,0.456,0.456,0,0,0-.208.106c-0.054-.044-0.018-0.023-0.069,0a0.118,0.118,0,0,0-.069.035,0.415,0.415,0,0,1,.069.176,0.183,0.183,0,0,1,.173,0,0.687,0.687,0,0,1,.069.141,0.7,0.7,0,0,1,.381,0v0.07a0.659,0.659,0,0,1,.035.316c0.293,0.065.366,0.207,0.347,0.6,0.159,0.082.151,0.207,0.139,0.457H32.582v0.07h0.069a1.769,1.769,0,0,0,.8,0c0.7-.005,1.251.006,1.941,0a0.832,0.832,0,0,1,.069-0.492,4.184,4.184,0,0,1,.035.492h0.1a4.391,4.391,0,0,1,.1-1.125,0.538,0.538,0,0,1,.173-0.035,0.191,0.191,0,0,1,.139,0,6.518,6.518,0,0,0,.971.984,1.98,1.98,0,0,1,.243.246l-0.035.105H37.47v-0.07c-0.088-.051-0.039.008-0.069-0.105a2.163,2.163,0,0,0,.347.035v0.07c-0.08.047-.063,0.043-0.069,0.07a0.346,0.346,0,0,0,.312.07v-0.7h0.035a0.124,0.124,0,0,0,.069.035v0.492c-0.087.051-.063,0.044-0.069,0.176h0.069a2.678,2.678,0,0,0,.312.07,0.522,0.522,0,0,1,.139-0.246v0.07a0.668,0.668,0,0,0-.069.316,1.97,1.97,0,0,1,1.49,1.23,4.329,4.329,0,0,0-.1,1.687c-0.118.033-.108,0.014-0.139,0.141a0.967,0.967,0,0,1,.069.563c0.171,0.042.182,0.1,0.173,0.316H39.792a2.051,2.051,0,0,1-.1.633,0.212,0.212,0,0,0,.1.105,0.586,0.586,0,0,1-.069.281l-0.173-.035-0.035.211a3.016,3.016,0,0,0-.243.281l0.035,0.281a0.613,0.613,0,0,1-.139.105c-0.046.029-.1-0.03-0.173,0a0.141,0.141,0,0,0-.069.141h-0.1c-0.059.092-.191,0.133-0.243,0.211v0.211c-0.025.036-.139,0.069-0.173,0.105a0.623,0.623,0,0,0-.173-0.105c-0.108.138-.308,0.179-0.416,0.316-0.074.107,0.028,0.12-.069,0.176-0.054.068-.085,0.1-0.139,0.07a0.212,0.212,0,0,0-.139-0.07,3.4,3.4,0,0,1-.381.246,0.827,0.827,0,0,0-.035.211c-0.029.054-.132,0.085-0.173,0.141a0.2,0.2,0,0,0-.139-0.105l-0.451.281c-0.031.058-.009,0.137-0.035,0.176a0.345,0.345,0,0,1-.173.105c-0.056-.093-0.026-0.086-0.1-0.07a1.417,1.417,0,0,0-.451.246c-0.1.14,0.064,0.163-.1,0.246a0.175,0.175,0,0,1-.1.035c-0.047-.081-0.042-0.064-0.069-0.07l-0.485.281a0.812,0.812,0,0,1,0,.211c-0.091.027-.083,0.042-0.173,0.07-0.055-.079-0.057-0.074-0.1-0.07a1.31,1.31,0,0,0-.451.246c-0.121.172,0.115,0.174-.173,0.281v0.035H33.83V32.981a0.212,0.212,0,0,0-.139-0.07,2.8,2.8,0,0,1-.381.246,1.044,1.044,0,0,1-.1.246c-0.026.031-.044,0.04-0.069,0.07a1.2,1.2,0,0,0-.208-0.105,1.121,1.121,0,0,1-.52.211v0.176H32.374v0.035l-0.208.035a0.19,0.19,0,0,0-.1-0.141,3.031,3.031,0,0,1-.485.07,0.576,0.576,0,0,1-.381.211V33.824H30.607c-0.063.129-.081,0.142-0.277,0.141a0.1,0.1,0,0,0-.035-0.035V33.824H29.705c-0.063.129-.081,0.142-0.277,0.141-0.062-.2-0.37-0.155-0.624-0.141-0.042.153-.085,0.148-0.277,0.141V33.824H27.9c-0.042.153-.084,0.148-0.277,0.141V33.824H27.036c-0.067.136-.1,0.147-0.312,0.141V33.824H26.135c-0.067.136-.1,0.147-0.312,0.141V33.824H25.234c-0.063.129-.081,0.142-0.277,0.141-0.062-.2-0.37-0.155-0.624-0.141-0.042.153-.085,0.148-0.277,0.141V33.824H23.432a0.171,0.171,0,0,1-.035.105,0.453,0.453,0,0,1-.243.035V33.824H22.565c-0.067.136-.1,0.147-0.312,0.141V33.824H21.664c-0.134.081,0.025,0.124-.277,0.141V33.824H20.763c-0.042.153-.085,0.148-0.277,0.141V33.824H19.9c-0.067.136-.1,0.147-0.312,0.141V33.824H18.995c-0.063.129-.081,0.142-0.277,0.141-0.061-.2-0.37-0.155-0.624-0.141-0.042.153-.084,0.148-0.277,0.141V33.824H17.192c-0.042.153-.085,0.148-0.277,0.141V33.824H16.326c-0.067.136-.1,0.147-0.312,0.141V33.824H15.425c-0.134.081,0.025,0.124-.277,0.141V33.824H14.523c-0.042.153-.085,0.148-0.277,0.141V33.824H13.622c-0.042.153-.085,0.148-0.277,0.141V33.824H12.756c-0.067.136-.1,0.147-0.312,0.141V33.824H11.854c-0.134.081,0.025,0.124-.277,0.141V33.824H10.953c-0.042.153-.085,0.148-0.277,0.141V33.824H10.052c-0.042.153-.085,0.148-0.277,0.141V33.824H9.185c-0.067.136-.1,0.147-0.312,0.141V33.824H8.284c-0.059.121-.062,0.135-0.243,0.141a0.125,0.125,0,0,0-.069-0.035V33.789a4.522,4.522,0,0,1-.52-0.105c-0.139-.016-0.106.082-0.173,0.105L7,33.754V33.719a0.692,0.692,0,0,0,.069-0.141c-0.222-.03-0.359-0.14-0.589-0.176a0.19,0.19,0,0,1-.139.105,0.4,0.4,0,0,0-.173-0.07c0.02-.1.07-0.109-0.035-0.176a1.185,1.185,0,0,0-.485-0.176,0.189,0.189,0,0,1-.139.105,0.4,0.4,0,0,0-.173-0.07v-0.07a0.181,0.181,0,0,0,.035-0.105c-0.193-.022-0.338-0.159-0.485-0.176-0.166-.019-0.166.169-0.347,0.035a0.7,0.7,0,0,1-.035-0.141,1.164,1.164,0,0,0-.832-0.141,0.51,0.51,0,0,1,.035-0.176c-0.162-.041-0.381-0.195-0.52-0.211a1,1,0,0,1-.347.07,0.511,0.511,0,0,1,.035-0.176H2.808a1.343,1.343,0,0,0-.832-0.141l0.035-.176c-0.21-.043-0.352-0.2-0.52-0.246-0.2-.051-0.193.149-0.416-0.07a0.253,0.253,0,0,0,.069-0.141c-0.153-.1-0.263-0.345-0.416-0.422H0.52a1.131,1.131,0,0,1-.139-0.211,0.233,0.233,0,0,0,.1-0.176,1.423,1.423,0,0,1-.208-0.492c-0.069-.11-0.158,0-0.208-0.176A0.689,0.689,0,0,1,0,29.641a0.589,0.589,0,0,0,.139-0.633,0.394,0.394,0,0,1-.1-0.422H0.208c0.015-.351-0.1-0.84-0.1-1.23H0.832A1.011,1.011,0,0,1,.971,27a0.779,0.779,0,0,1-.347-0.562,0.9,0.9,0,0,0-.069-0.879,1.138,1.138,0,0,0,.069-0.246,1.067,1.067,0,0,1-.1-0.351l0.936-.035a1.206,1.206,0,0,1,.381-0.738,2.393,2.393,0,0,0-.243-0.141,0.542,0.542,0,0,1-.312-0.492c-0.2-.032-0.043-0.049-0.069-0.211l-0.069.035a0.9,0.9,0,0,1,.035-0.457,0.433,0.433,0,0,0-.139.035V22.822a5.1,5.1,0,0,1,.451-0.527l0.277-.105V21.627H2.357v0.562L2.53,22.224a0.673,0.673,0,0,0,.381.176v0.106a0.425,0.425,0,0,1,.139.141H3.085V22.611A0.474,0.474,0,0,1,3.5,22.435a0.789,0.789,0,0,0,.312.281,1.9,1.9,0,0,1-.069-0.562,0.833,0.833,0,0,1,.451-0.105,0.331,0.331,0,0,0,.243.211v-0.07A0.66,0.66,0,0,1,4.367,21.8c0.417-.281.354-0.1,0.693,0.035l-0.069-.422a0.949,0.949,0,0,1,.52-0.176,0.46,0.46,0,0,0,.312.281,1.757,1.757,0,0,1,.035-0.562A0.92,0.92,0,0,1,6.2,20.853a0.261,0.261,0,0,0,.139.141,1.075,1.075,0,0,0,.208-0.141,0.219,0.219,0,0,1-.035-0.211,0.282,0.282,0,0,1,.312-0.176A0.384,0.384,0,0,0,7,20.642c0.087-.069.057-0.046,0.173-0.035a0.558,0.558,0,0,1,.035.176c-0.078.056-.073,0.058-0.069,0.105v0.035a2.033,2.033,0,0,1,.52-0.176,0.357,0.357,0,0,1,0,.457,0.383,0.383,0,0,0,.173,0,6.057,6.057,0,0,1,1.56-.668c0.329-.089.617-0.026,0.971-0.105a3.55,3.55,0,0,1,1.317-.07l0.97,0.105a1.255,1.255,0,0,1,.1-0.246l0.485-3.585a0.856,0.856,0,0,0-.277-0.035V16.495c0.373-.007.2-0.065,0.347-0.141h0.381v-0.07a4.967,4.967,0,0,1,.867.07v-0.07a5.535,5.535,0,0,0,.624.07,5.4,5.4,0,0,1,1.317,0V16.319h0.035a0.4,0.4,0,0,1,.1-0.351V5h0.069V15.967C16.857,16.029,16.856,16.135,16.846,16.354Z" transform="translate(0 0.516)"/>
</svg>
