<svg xmlns="http://www.w3.org/2000/svg" width="40" height="40" viewBox="0 0 40 40">
  <defs>
    <style>
      .cls-1 {
        fill: #fff;
        fill-rule: evenodd;
      }
    </style>
  </defs>
  <path id="Color_Fill_1" data-name="Color Fill 1" class="cls-1" d="M11.854,11a0.179,0.179,0,0,1,.049.1H11.854V11Zm0,0.2a0.18,0.18,0,0,1,.049.1H11.854V11.2ZM12,17.446c0.431,0.014,1.535.122,1.707-.149a0.611,0.611,0,0,1-.2-0.05V17.1a3.789,3.789,0,0,0,1.024-.3,3.551,3.551,0,0,1,1.756.2,1.317,1.317,0,0,1,.146-0.446,2.568,2.568,0,0,0,.732.05c0.051-.2.139-0.252,0.2-0.446H17.317a0.324,0.324,0,0,1-.341,0,0.689,0.689,0,0,0,.244-0.05,0.328,0.328,0,0,1-.146-0.248,0.656,0.656,0,0,0,.585-0.248c0.059,0.071-.044.05,0.049,0.1V11.5h0.049v4.215a1.284,1.284,0,0,0,.488-0.05c-0.158-.041-0.075.024-0.146-0.1h0.049a6.234,6.234,0,0,0,2.732.3v-0.3h0.1v0.3h0.488v0.2a11.364,11.364,0,0,0-2.488.1v0.05h0.146v0.446a1.473,1.473,0,0,0-.341.149,0.305,0.305,0,0,1,.1.2H18.829v0.05H18.683V16.9a3.178,3.178,0,0,1-.927-0.1,3.442,3.442,0,0,1,.049.744,0.567,0.567,0,0,0,.293.149V17.5a2.027,2.027,0,0,1,1.171-.4v0.2h0.1l0.39-.149v0.1c-0.42.028-.47,0.161-0.439,0.645H19.268v0.049c0.377,0.09.7,0.346,1.024,0.446a2.75,2.75,0,0,1,.976,0,0.257,0.257,0,0,0-.244.248c0.362,0.075.63,0.369,0.927,0.446,0.121,0.032.1-.093,0.146-0.1l0.488,0.149c0.219,0.1.256,0.4,0.488,0.5v-0.1a0.988,0.988,0,0,1,0-.545h2.878a0.438,0.438,0,0,0,.146.149v0.793l2.634,0.1v-0.2h2.1v0.248h0.1a12.264,12.264,0,0,1,2.488-.05c2.219,0,4.578.043,6.585,0.05v0.595a3.01,3.01,0,0,0-1.024.1H33.9a19.125,19.125,0,0,0-3.073.05c-0.083.023-.377-0.049-0.537-0.05a15.663,15.663,0,0,0-1.854.05l-3.366.05a3.066,3.066,0,0,0-1.317,0c-0.465.164-.557,0.713-1.024,0.843v0.05a0.454,0.454,0,0,1,.39.149l0.049-.5a0.476,0.476,0,0,1,.244.1,0.325,0.325,0,0,1,.049-0.2,2.347,2.347,0,0,0,2.049.546v0.149H25.8v0.2h0.146A0.242,0.242,0,0,1,26,22.058c0.139,0.14.351,0.2,0.488,0.347a0.167,0.167,0,0,0,.1-0.05,0.573,0.573,0,0,0,.1-0.149,5.49,5.49,0,0,0,2.2.694V22.6a1.974,1.974,0,0,1,.585-0.05,1.261,1.261,0,0,1,.049.4,3.933,3.933,0,0,1,1.659.942H31.122c-0.09.258-.318,0.326-0.39,0.595a1.736,1.736,0,0,1-.146,1.636c-0.494.73-2.592,1.65-3.463,2.132-0.323.179-.688,0.5-1.024,0.645a5.166,5.166,0,0,1-1.61.05H7.707A5.8,5.8,0,0,1,6.1,28.9c-0.461-.159-0.969-0.5-1.415-0.694-1.046-.465-2.581-0.8-3.122-1.785a1.822,1.822,0,0,1-.244-1.289,3.433,3.433,0,0,1,.439-0.843H1.512a1.072,1.072,0,0,1-.634,0A3.368,3.368,0,0,1,.244,23.4h0.2V23.149H0.146v-0.1a0.419,0.419,0,0,0,0-.4A0.421,0.421,0,0,1,.1,22.9V22.6a1.209,1.209,0,0,0,.146-0.149A0.228,0.228,0,0,1,0,22.355H0.146a0.176,0.176,0,0,0,.1.05,5.806,5.806,0,0,1,.2-1.091,1.348,1.348,0,0,0,.683-0.049V21.116a0.294,0.294,0,0,0-.049-0.248,0.978,0.978,0,0,1,.537-0.1,0.246,0.246,0,0,0,.146.05v0.248a2.436,2.436,0,0,1,.585.149,3.913,3.913,0,0,0,1.317-.149,2.235,2.235,0,0,0,.439.05c0.434-.094,1.02-0.143,1.415-0.2l0.049,0.149H5.61v-0.05a1.06,1.06,0,0,0,.2-0.2,0.386,0.386,0,0,1,.146.149l2-.149a23.468,23.468,0,0,0,4.878.545v-0.05a3.463,3.463,0,0,0-.683-0.694l-1.561-.1-0.1-.149a6.877,6.877,0,0,0-.683-0.1,1.172,1.172,0,0,0,.146-0.545,0.275,0.275,0,0,1-.1-0.149l0.049-.2a0.891,0.891,0,0,0-.2-0.2,5.042,5.042,0,0,1,.146-1.438h0.585a0.637,0.637,0,0,1,.049-0.2,0.582,0.582,0,0,0,.2.2c0.01-.2.005-0.227,0.146-0.3a7.779,7.779,0,0,1,.976,0c-0.03-.2.049-0.618,0.049-0.992V13.033a4.557,4.557,0,0,1,.049-1.587A52.838,52.838,0,0,0,12,17.446Zm4.927-1.24H16.781v-0.1a0.436,0.436,0,0,1,.049-0.446,3.273,3.273,0,0,1,.585.1,0.475,0.475,0,0,0-.39.1v-0.1h-0.1v0.1A2.254,2.254,0,0,1,16.927,16.207Zm0.341-.2a0.175,0.175,0,0,0,.1.05A0.176,0.176,0,0,0,17.268,16.008Zm0.2,0.2a1.98,1.98,0,0,0-.2.4,0.672,0.672,0,0,1,.293.1V16.6a0.167,0.167,0,0,1-.1-0.05A0.194,0.194,0,0,0,17.463,16.207Zm0.146,0v0.446h0.1V16.207h-0.1Zm0.146,0a0.487,0.487,0,0,0,.439.1v-0.1H17.756Zm-0.585.694a0.637,0.637,0,0,0,.049.2H16.732a0.854,0.854,0,0,1-.049.3,2.89,2.89,0,0,1,.927.248v-0.1a2.033,2.033,0,0,0,.1-0.744h-0.1a0.243,0.243,0,0,1-.049.149C17.468,16.8,17.375,16.876,17.171,16.9Zm-5.9.843a0.878,0.878,0,0,0,.1.2c0.042-.032.153-0.066,0.2-0.1Zm1.463,0.2V17.793a1.01,1.01,0,0,0-.488.05A3.939,3.939,0,0,1,12.732,17.942Zm-2.585,2.331a0.193,0.193,0,0,0,.244,0H10.146Zm3.61,1.736a0.255,0.255,0,0,0,.293,0H13.756Zm-13.561.1c0.017,0.015.1,0.026,0.049,0.1C0.19,22.182.092,22.119,0.2,22.107Zm28.78,0.546-0.049.2h0.146a1.1,1.1,0,0,1,.244-0.2H28.976Zm-28.927.3h0.1V23A0.167,0.167,0,0,1,.049,22.95ZM30.342,23h0.1v0.05A0.166,0.166,0,0,1,30.342,23Zm-29.415.793a1.564,1.564,0,0,0,.732.248A1.489,1.489,0,0,0,.927,23.793Zm-0.2.1v0.1a0.542,0.542,0,0,0,.537.1A0.954,0.954,0,0,1,.732,23.893Zm1.22,0.149a0.175,0.175,0,0,0,.1.05A0.175,0.175,0,0,0,1.951,24.041ZM29.8,25.38a0.375,0.375,0,0,0-.1.3,0.556,0.556,0,0,0,.341.1v-0.1a0.339,0.339,0,0,0,.049-0.2l-0.146-.049A0.245,0.245,0,0,0,29.8,25.38Zm-0.878.694v0.1a0.512,0.512,0,0,0,.244.1,0.3,0.3,0,0,1,.1-0.1v-0.05A1.467,1.467,0,0,1,28.927,26.074Zm-2.049.645a2.175,2.175,0,0,1-.2,1.091h0.049a11,11,0,0,1,2.049-1.19V26.57c-0.224-.031-0.689-0.343-0.732-0.3a1.947,1.947,0,0,0-.488.446H26.878Zm-14.976,0a1.512,1.512,0,0,1-.634,1.537v0.05h1.512v-0.05a1.609,1.609,0,0,1-.585-1.537H11.9Zm7.171,0a1.919,1.919,0,0,1-.634,1.587h2.2v-0.05a1.427,1.427,0,0,1-.585-1.537H19.073Zm-14.146.248a1.665,1.665,0,0,1-1.171.1v0.05H3.8a5.268,5.268,0,0,0,1.415.645v-0.05a1.043,1.043,0,0,1-.2-0.744h-0.1ZM8.2,27.512a1,1,0,0,1-.537.744v0.05h1.61v-0.05a1.039,1.039,0,0,1-.537-0.744H8.2Zm7.707,0H15.366a1.232,1.232,0,0,1-.537.744v0.05H16.39v-0.05A1.083,1.083,0,0,1,15.9,27.512Zm7.268,0a1.684,1.684,0,0,1-.488.793h1.561v-0.05C23.808,27.964,23.942,27.5,23.171,27.512Z"/>
</svg>
