<svg xmlns="http://www.w3.org/2000/svg" width="40" height="40" viewBox="0 0 40 40">
  <defs>
    <style>
      .cls-1 {
        fill: #fff;
        fill-rule: evenodd;
      }
    </style>
  </defs>
  <path id="Color_Fill_1" data-name="Color Fill 1" class="cls-1" d="M13.269,15.619a0.222,0.222,0,0,0,.048.14V15.2l0.241-.047a5.848,5.848,0,0,0,.048-1.59h0.048V15.1h0.1c0.037-.032.108-0.061,0.145-0.094a0.719,0.719,0,0,0,.048-0.374h2.7V14.263h0.338a0.7,0.7,0,0,1,.1.327,1.631,1.631,0,0,0-.048.468,7.89,7.89,0,0,1,1.013.421,0.409,0.409,0,0,0,.386-0.187h0.627v0.047h0.048l0.048,0.327a0.72,0.72,0,0,1,.531.281l0.193-.047a1.263,1.263,0,0,0,.048.187,16.308,16.308,0,0,0,2.171.561,1.168,1.168,0,0,0,.627.187A0.835,0.835,0,0,1,23.4,16.32a6.215,6.215,0,0,1,2.026-.842,0.407,0.407,0,0,1,.145.187h0.048c0.048,0.047-.048.046-0.048,0.047a0.341,0.341,0,0,1-.241.14V15.9a0.627,0.627,0,0,1,.193.047V16.04a1.118,1.118,0,0,0-.869.187v0.047a0.238,0.238,0,0,1,.145.047H24.753a9.2,9.2,0,0,0-1.5.748h0.1c0.535,0.635,3.245.468,4.487,0.468l10.47,0.14a7.136,7.136,0,0,0,1.206-.047V17.536H40v0.748c-0.56,0-1.169-.124-1.737-0.14-0.363-.011-0.954.047-1.4,0.047a11.265,11.265,0,0,0-2.075.047l-10.856.093a2.248,2.248,0,0,1-.724.842,0.276,0.276,0,0,1,0,.234h0.675c0.137-.256.36,0.051,0.675,0,0.165-.22.068,0.078,0.29,0a1.494,1.494,0,0,1,.145-0.187l0.917,0.093v0.234H26.2a0.578,0.578,0,0,1,.048-0.187,0.291,0.291,0,0,1,.1.093c0.073,0.08-.057.061,0.1,0.14a1.4,1.4,0,0,0,.531.327V19.827c0.1-.077-0.034-0.055.1-0.094a6.388,6.388,0,0,0,2.22.468V19.968c-0.2-.032-0.294-0.025-0.338-0.234a0.912,0.912,0,0,1,.289-0.047,0.537,0.537,0,0,0,.29.047,0.714,0.714,0,0,1,.048.234,0.415,0.415,0,0,0-.241.047,0.711,0.711,0,0,1,.241.047c0,0.136-.046.065,0,0.14l0.869,0.14a5.412,5.412,0,0,1,1.061,1.122c-0.081.124-.024,0.374-0.1,0.514-0.059.114-.288,0.187-0.338,0.281v0.514a2.32,2.32,0,0,1-.29.7A4.127,4.127,0,0,1,28.951,24.5a28.622,28.622,0,0,1-3.04,1.4,8.93,8.93,0,0,1-2.075.047H7.479l-1.351-.047a20.017,20.017,0,0,1-2.22-.982,10.246,10.246,0,0,1-1.882-.795,2.214,2.214,0,0,1-.579-0.7L1.4,23.194a1.01,1.01,0,0,1-.386-0.234,0.6,0.6,0,0,1-.048-0.327,0.385,0.385,0,0,0,.241-0.281,0.238,0.238,0,0,0,.145-0.047,2.49,2.49,0,0,0-.531.047V22.259a0.167,0.167,0,0,0,.048-0.093,1.1,1.1,0,0,0,1.013-.8c-0.49-.028-0.82-0.237-1.3-0.281-0.011-.194,0-0.219,0-0.468H0.29C0.21,20.5.135,20.28,0.048,20.155a0.627,0.627,0,0,0,.193-0.047,0.451,0.451,0,0,0,0,.374,0.663,0.663,0,0,0-.048-0.561C0.058,19.809.027,19.882,0,19.64a0.477,0.477,0,0,0,.386-0.234,0.335,0.335,0,0,1-.193-0.374,4.3,4.3,0,0,1,1.882-.421l0.048,0.234a0.292,0.292,0,0,0,.193,0c0.033-.036.063-0.1,0.1-0.14a0.159,0.159,0,0,0,.048.094V18.425H4.343a0.3,0.3,0,0,0,.048.187V18.425c0.578,0,1.177.044,1.689,0.047a6.362,6.362,0,0,1,1.4.047H8.83c0.558,0.126,1.227.087,1.737,0.234a2.714,2.714,0,0,0,1.544,0c0.063-.074.048,0.094,0.048,0.094a1.459,1.459,0,0,0,.531,0h0.048V18.8c-0.2-.239-0.046-0.47-0.531-0.468-0.486-.289-1.466-0.025-1.93-0.187,0-.182.024-0.21-0.1-0.281a1.719,1.719,0,0,0-.434-0.093,5.494,5.494,0,0,1-.048-1.5,1.516,1.516,0,0,1,.386-0.14c0.077,0.128-.008.039,0.145,0.047V16.133c-0.157-.039-0.074.023-0.145-0.093a1.854,1.854,0,0,0,.482-0.14V15.666a7.8,7.8,0,0,1,1.206.094,0.152,0.152,0,0,1,0-.14h0.145a0.654,0.654,0,0,0-.048-0.234h0.145v0.234a1.177,1.177,0,0,1,.386.047c-0.036.041-.061,0.053-0.1,0.094h0.1l0.048-.094c0.379-.5-0.191-2.139.145-2.665-0.011.649-.137,2.363,0.145,2.712a0.536,0.536,0,0,0,.289.047C13.089,15.608,13.07,15.636,13.269,15.619Zm2.9-.889v0.094h0.29V14.73h-0.29Zm-4.343.561a0.523,0.523,0,0,1,.29.047A0.523,0.523,0,0,1,11.822,15.291Zm-1.158.421V15.9h0.1V15.712h-0.1Zm8.685,0a0.238,0.238,0,0,0-.145.047h0.048v0.047l0.1,0.047v-0.14Zm-17.8,3.133a0.176,0.176,0,0,0,.1.047A0.176,0.176,0,0,0,1.544,18.845ZM26.393,19.5l0.241,0.047v0.047H26.49C26.454,19.553,26.429,19.541,26.393,19.5Zm0.241,0.093h0.1V19.64h-0.1V19.594Zm0.1,0.047,0.241,0.047v0.047H26.828C26.792,19.693,26.767,19.681,26.731,19.64Zm0.386,0.327v0.093h0.048A0.159,0.159,0,0,0,27.117,19.968ZM0.1,20.529a0.234,0.234,0,0,1,.048.14H0.1v-0.14ZM30.3,22.446V22.68h0.145V22.446H30.3Zm-29.144.327a0.178,0.178,0,0,0,.1.14A0.51,0.51,0,0,0,1.158,22.773ZM30.205,22.82a0.644,0.644,0,0,0-.048.187h0.048v0.047h0.1a0.177,0.177,0,0,1,.1-0.14A0.349,0.349,0,0,0,30.205,22.82Zm-0.241.327a0.392,0.392,0,0,0-.1.14h0.048c0.062,0.115-.021.032,0.1,0.093a0.7,0.7,0,0,0,.1-0.187Zm-1.206.14a0.541,0.541,0,0,0-.145.281,0.376,0.376,0,0,0,.241.047,0.476,0.476,0,0,0,.1-0.281H28.9V23.288H28.758Zm0.772,0.281,0.241-.047V23.428H29.723c-0.07-.119.01-0.053-0.145-0.094A0.714,0.714,0,0,0,29.53,23.568Zm-0.193.14v-0.28a0.7,0.7,0,0,0-.193-0.047l-0.1.327h0.29Zm-1.062-.14a1.077,1.077,0,0,1-1.158.514v0.094a1.752,1.752,0,0,0-.145.561h0.1A9.8,9.8,0,0,1,28.9,23.9a0.176,0.176,0,0,0-.1-0.047A1.877,1.877,0,0,0,28.275,23.568ZM4.97,24.083c-0.5,0-.753.085-1.206,0.094v0.047H3.812a3.774,3.774,0,0,0,1.3.561V24.691A0.858,0.858,0,0,1,4.97,24.083Zm6.9,0a2.546,2.546,0,0,1-.579,1.263h1.5V25.252a1.22,1.22,0,0,1-.579-1.169H11.87Zm7.238,0a1.783,1.783,0,0,1-.627,1.263H20.8V25.3a1.565,1.565,0,0,1-.579-0.842,0.521,0.521,0,0,1,0-.374h-1.11ZM8.733,24.6H8.106a2.227,2.227,0,0,1-.483.748H9.216V25.3A1.133,1.133,0,0,1,8.733,24.6Zm6.61,0a3.348,3.348,0,0,1-.482.748h1.592V25.3C15.962,24.955,16.283,24.578,15.344,24.6Zm8.01,0a3.892,3.892,0,0,1-.531.748h1.64V25.3C23.978,24.971,24.232,24.582,23.353,24.6Z" transform="translate(0 0.484)"/>
</svg>
