<svg xmlns="http://www.w3.org/2000/svg" width="40" height="40" viewBox="0 0 40 40">
  <defs>
    <style>
      .cls-1 {
        fill: #fff;
        fill-rule: evenodd;
      }
    </style>
  </defs>
  <path id="sw_strv_103a_ico" class="cls-1" d="M11.445,19.122h0.427l-0.022-.134c0.082-.015.061,0,0.09-0.067a0.149,0.149,0,0,1-.022-0.089l0.292-.022V18.766a0.514,0.514,0,0,1-.045-0.111,0.116,0.116,0,0,0-.067-0.022c0,0.08.033,0.046-.045,0.067a0.4,0.4,0,0,1-.067-0.111h0.495a0.275,0.275,0,0,0,.135-0.067h-0.27V17.987a0.137,0.137,0,0,1-.045-0.044H12.277v0.044a0.191,0.191,0,0,0-.023.111h-0.18a0.7,0.7,0,0,1,.045-0.245H11.962a0.261,0.261,0,0,1-.247.111c-0.064-.054-0.12-0.1-0.18-0.156V17.52H11.467V17.408a3.92,3.92,0,0,0,.495-0.067l0.022-.133a0.11,0.11,0,0,0,.067-0.022c0.017-.034.006-0.081,0.022-0.134h0.045v0.067h0.315v0.067l0.967-.022V16.986h0.045a1.2,1.2,0,0,0,.45-0.022l0.022,0.267h0.09a0.5,0.5,0,0,1,.157-0.178c0.035-.016,0,0,0.067,0L14.3,17.23c0.032,0,.011.006,0.022-0.022,0.026,0.014.024,0.057,0.045,0.067h1.574l0.045-.2h0.045V17.1a0.322,0.322,0,0,1,.045.178l0.45,0.022v0.089c-0.414,0-.79,0-1.192.022v0.044a0.773,0.773,0,0,0,.2,0v0.111c-0.34,0-.573,0-0.967,0v0.022h0.022a0.684,0.684,0,0,0,.292.022c0,0.1-.023.378-0.023,0.378a1.9,1.9,0,0,0,.427.579,0.358,0.358,0,0,0,.18.022c0.033-.1.091-0.1,0.225-0.089a1.122,1.122,0,0,0,.315.067v0.022H15.987c-0.077.056-.218,0.053-0.292,0.111a0.864,0.864,0,0,0-.023.356,0.5,0.5,0,0,0,.068.067,0.946,0.946,0,0,0,.337.223,0.42,0.42,0,0,1,.09-0.245,1.765,1.765,0,0,1,.63-0.022,2.447,2.447,0,0,1,.72.067,0.339,0.339,0,0,1,.2-0.089,1.879,1.879,0,0,0,.36.067v0.044c-0.132.016-.206,0.069-0.337,0.089v0.223h0.18v0.111c0.03,0,.447-0.118.472-0.133,0.1-.062-0.013-0.1.2-0.111v0.022H18.572a0.193,0.193,0,0,0-.09.067c0.17,0.02.347,0.083,0.495,0.111l0.4-.044v0.044a0.325,0.325,0,0,0-.112.022v0.022H19.7V19.522h0.2a0.338,0.338,0,0,0,.09.2,2.591,2.591,0,0,0,.652.134,5.774,5.774,0,0,1,1.956.556l0.112-.044c-0.017-.019-0.028-0.025-0.045-0.044,0.38-.007.616,0.115,0.967,0.134V20.412a0.122,0.122,0,0,1-.067-0.089h0.067a0.235,0.235,0,0,0,.247.134,2.366,2.366,0,0,1,.877-0.111c0.06-.016.159-0.073,0.225-0.089h1.574a4.207,4.207,0,0,0,1.551.044,0.194,0.194,0,0,1,.045-0.178h0.787a1.641,1.641,0,0,1,.585-0.022l1.416-.022a0.255,0.255,0,0,1,.045.156h0.247v0.089h1.1l-0.023-.111h0.315a1.977,1.977,0,0,1,.45,0V20.3l5.621-.089V20.123a6.5,6.5,0,0,1,1.259.044v0.312a1,1,0,0,1,.023.4,1.408,1.408,0,0,0-.27.067H38.7V20.88l-5.6.089,0.023,1.669a0.637,0.637,0,0,1,.45-0.044,0.4,0.4,0,0,1,.18.156,0.464,0.464,0,0,1-.023.223,0.6,0.6,0,0,1-.18.178v0.779a0.236,0.236,0,0,1-.135.044,0.4,0.4,0,0,0-.067-0.089V23.172H33.322c-0.149.09-.427,0.03-0.562,0.133a0.444,0.444,0,0,1-.18.245,0.225,0.225,0,0,1-.18.044,4.49,4.49,0,0,1-.629-0.378l-1.754.578a4.036,4.036,0,0,0-.067.579,0.564,0.564,0,0,0-.112.089,0.249,0.249,0,0,1-.2-0.022,5.161,5.161,0,0,1-.382-0.423c-0.079.058-.238,0.046-0.315,0.111a1.77,1.77,0,0,0-.315.4c0.068,0.051.049,0.029,0.045,0.111a0.815,0.815,0,0,0-.157-0.022,0.4,0.4,0,0,0-.067.111,0.121,0.121,0,0,1,.067.134,0.24,0.24,0,0,1-.112.044,0.113,0.113,0,0,0-.112-0.044,0.089,0.089,0,0,0-.045.089,0.208,0.208,0,0,1,.045.134,0.4,0.4,0,0,1-.225-0.022,0.109,0.109,0,0,0-.067.022,0.175,0.175,0,0,1,.022.178,0.077,0.077,0,0,0-.045.022,0.077,0.077,0,0,1-.045-0.022,0.639,0.639,0,0,0-.157-0.089,0.26,0.26,0,0,1-.067.044,0.44,0.44,0,0,1,.09.245,0.115,0.115,0,0,1-.067.022c-0.128-.156-0.413.033-0.517,0.089,0.029,0.09.085,0.163,0.112,0.267a0.078,0.078,0,0,0-.045.022,0.263,0.263,0,0,0-.2-0.067,1.065,1.065,0,0,0-.36.156,0.441,0.441,0,0,1,.09.245l-0.023.044a0.419,0.419,0,0,0-.562.111,0.237,0.237,0,0,1,.09.223V26.6a0.516,0.516,0,0,0-.585.089,0.861,0.861,0,0,1,.112.245,0.137,0.137,0,0,0-.045.045,0.473,0.473,0,0,0-.562.089,0.337,0.337,0,0,1,.09.245v0.022a1.348,1.348,0,0,0-.18-0.089,1.015,1.015,0,0,0-.36.156,2.675,2.675,0,0,1,.022.267v0.022H24.756a0.221,0.221,0,0,0-.157-0.134,1.837,1.837,0,0,1-.292.067,0.576,0.576,0,0,1,.045.267,0.616,0.616,0,0,1-.18-0.156,1.1,1.1,0,0,0-.4-0.022v0.022a0.338,0.338,0,0,1-.023.245,0.109,0.109,0,0,1-.067-0.022,0.269,0.269,0,0,0-.135-0.156,0.67,0.67,0,0,0-.382-0.089v0.022a0.35,0.35,0,0,1-.022.245h-0.09V27.889a0.211,0.211,0,0,1-.068-0.089,3.251,3.251,0,0,0-.4-0.067c-0.006.121-.036,0.124-0.045,0.245H22.44V27.889a0.211,0.211,0,0,1-.067-0.089,3.549,3.549,0,0,0-.427-0.067,0.811,0.811,0,0,1-.045.245H21.833A0.2,0.2,0,0,0,21.7,27.8a0.71,0.71,0,0,0-.36-0.067,1.119,1.119,0,0,1-.045.245H21.2a0.158,0.158,0,0,0-.067-0.156,0.739,0.739,0,0,0-.4-0.089c0,0.119-.034.134-0.045,0.245H20.6V27.889a0.211,0.211,0,0,1-.067-0.089,3.186,3.186,0,0,0-.427-0.067,0.188,0.188,0,0,1-.112.245,0.164,0.164,0,0,0-.135-0.178,0.709,0.709,0,0,0-.36-0.067,1.113,1.113,0,0,1-.045.245,0.109,0.109,0,0,1-.067-0.022,0.65,0.65,0,0,0-.09-0.134,0.738,0.738,0,0,0-.4-0.089,1.113,1.113,0,0,1-.045.245,0.109,0.109,0,0,1-.067-0.022,0.649,0.649,0,0,0-.09-0.134,0.739,0.739,0,0,0-.4-0.089,0.815,0.815,0,0,1-.045.245H18.168V27.911a0.406,0.406,0,0,0-.135-0.111,0.71,0.71,0,0,0-.36-0.067l-0.022.245H17.56l-0.023-.111a0.843,0.843,0,0,0-.472-0.133,0.352,0.352,0,0,1-.045.245H16.953l-0.022-.111a0.813,0.813,0,0,0-.472-0.133v0.022a0.336,0.336,0,0,1-.023.223h-0.09l-0.023-.111a0.813,0.813,0,0,0-.472-0.133v0.022a0.336,0.336,0,0,1-.022.223h-0.09V27.889A0.3,0.3,0,0,0,15.6,27.8a0.765,0.765,0,0,0-.337-0.067c0,0.119-.034.134-0.045,0.245h-0.09l-0.022-.111a0.843,0.843,0,0,0-.472-0.133,0.53,0.53,0,0,1-.045.245H14.525V27.911c-0.038-.028-0.052-0.061-0.09-0.089a0.758,0.758,0,0,0-.4-0.089,1.119,1.119,0,0,1-.045.245H13.9V27.889a0.211,0.211,0,0,1-.067-0.089c-0.164-.011-0.223-0.063-0.4-0.067a1.632,1.632,0,0,1-.045.245h-0.09l-0.022-.111a0.87,0.87,0,0,0-.472-0.133v0.022a0.336,0.336,0,0,1-.022.223h-0.09V27.911c-0.038-.028-0.052-0.061-0.09-0.089a0.772,0.772,0,0,0-.4-0.089,2.078,2.078,0,0,1-.045.267,0.109,0.109,0,0,1-.068-0.022,1.212,1.212,0,0,1-.09-0.178c-0.173-.007-0.218-0.062-0.4-0.067a2.078,2.078,0,0,1-.045.267,0.308,0.308,0,0,1-.18-0.067h0.067V27.867l-0.067-.044a0.737,0.737,0,0,0-.4-0.089,0.259,0.259,0,0,1-.067.267,0.116,0.116,0,0,0-.067-0.022l-0.022-.133a0.993,0.993,0,0,0-.427-0.2,0.669,0.669,0,0,1-.135.223,0.082,0.082,0,0,0-.045-0.022c0.008-.189-0.219-0.471-0.292-0.4a0.455,0.455,0,0,1-.225.156V27.577H9.646a0.4,0.4,0,0,0,.045-0.2,1.824,1.824,0,0,1-.27-0.289H9.4a0.3,0.3,0,0,1-.2.178V27.244a0.562,0.562,0,0,1,0-.223A1.179,1.179,0,0,0,8.9,26.754a0.652,0.652,0,0,1-.157.178L8.679,26.91V26.865a0.183,0.183,0,0,0,0-.178,0.762,0.762,0,0,0-.225-0.267H8.409a0.239,0.239,0,0,1-.2.156V26.554H8.184a0.365,0.365,0,0,0,.045-0.2,1.428,1.428,0,0,1-.27-0.289H7.937v0.022a0.265,0.265,0,0,1-.2.133A0.077,0.077,0,0,1,7.69,26.2,0.256,0.256,0,0,0,7.735,26a1.968,1.968,0,0,0-.315-0.2,0.171,0.171,0,0,1-.2.089,0.363,0.363,0,0,0-.067-0.111A0.137,0.137,0,0,0,7.2,25.73a0.828,0.828,0,0,1-.225-0.223,0.533,0.533,0,0,1-.2.044,0.861,0.861,0,0,0-.427-0.467c-0.042.035-.046,0.042-0.09,0.022a0.112,0.112,0,0,1-.022-0.067A0.248,0.248,0,0,0,6.3,24.929a0.137,0.137,0,0,1-.045-0.045,0.194,0.194,0,0,1-.09.067l-0.225-.245c0.072-.054.049-0.033,0.045-0.134a0.138,0.138,0,0,1-.135-0.089,0.137,0.137,0,0,0,.045-0.044c-0.072-.047-0.131-0.168-0.2-0.2l-0.09.022c-0.086-.035-0.024-0.1-0.045-0.156a2.111,2.111,0,0,0-.2-0.2c-0.1.036-.032,0.032-0.112-0.022a0.832,0.832,0,0,1-.135.044c-0.047-.1-0.136-0.178-0.18-0.267V23.572c-0.074-.135-0.269-0.223-0.36-0.356a0.2,0.2,0,0,1-.09.067,2.394,2.394,0,0,1-.2-0.2A0.647,0.647,0,0,1,4.25,22.9c-0.082-.144-0.286-0.235-0.382-0.378-0.035.021-.067,0.081-0.09,0.044a0.926,0.926,0,0,1-.247-0.245c0.074-.056.051-0.054,0.045-0.178H3.553V22.126c-0.039.018-.041,0.058-0.067,0.022a0.273,0.273,0,0,1-.09-0.089,0.137,0.137,0,0,0,.045-0.045H3.418V21.992a0.9,0.9,0,0,1-.18.022,1.763,1.763,0,0,1-.045.757c-0.017.019-.028,0.025-0.045,0.044A0.077,0.077,0,0,1,3.1,22.793l-0.067-.022V22.7l-2.226.044a1.539,1.539,0,0,1-.675-0.512A1.689,1.689,0,0,1,.112,21.7a0.109,0.109,0,0,1-.067-0.022,1,1,0,0,1-.022-0.4A0.11,0.11,0,0,0,.09,21.258a0.8,0.8,0,0,0,.022-0.334A1.485,1.485,0,0,0,.36,20.813,0.284,0.284,0,0,1,.427,20.7a0.115,0.115,0,0,1,.067-0.022,0.113,0.113,0,0,0,.135.089,0.554,0.554,0,0,1,.2-0.044,0.107,0.107,0,0,1,.022-0.067c0.019,0.072-.011.034,0.045,0.067a6.8,6.8,0,0,1,.944-0.178H1.979a0.71,0.71,0,0,1,.382-0.178l0.022,0.156H2.428a1.076,1.076,0,0,1,.607-0.067c0.066,0.022.107,0.085,0.18,0.111a0.793,0.793,0,0,1,.72-0.779c-0.009-.135,0-0.2,0-0.356h0.4l0.022-.111A0.749,0.749,0,0,1,4.587,19.3a6.323,6.323,0,0,1,1.057-.045c0.049-.013.115-0.074,0.157-0.089a4.469,4.469,0,0,1,.562-0.089,0.99,0.99,0,0,1,.36.044h4.519a15.948,15.948,0,0,0,.09-2.8V11h0.045v7.588A2.453,2.453,0,0,1,11.445,19.122Zm6.273,8.789a0.353,0.353,0,0,1,.18.022A0.352,0.352,0,0,1,17.718,27.911Z" transform="translate(0 0.5)"/>
</svg>
