<svg xmlns="http://www.w3.org/2000/svg" width="40" height="40" viewBox="0 0 40 40">
  <defs>
    <style>
      .cls-1 {
        fill: #fff;
        fill-rule: evenodd;
      }
    </style>
  </defs>
  <path id="sw_strv_122_ico" class="cls-1" d="M13.875,15.185A0.459,0.459,0,0,0,14.04,15.1c0.095-.026.069,0.045,0.1,0.063H14.8v0.042h0.062V15.5H13.917a0.56,0.56,0,0,0-.041.273h0.041a2.827,2.827,0,0,1,.741-0.021,0.224,0.224,0,0,0,0,.126,1.611,1.611,0,0,0,.7-0.021L15.4,15.9a1.651,1.651,0,0,0,.6-0.105,5.446,5.446,0,0,1,.824.084L16.8,15.752h0.062a0.76,0.76,0,0,0,.329.042v0.063a12.322,12.322,0,0,0,1.359.042l0.021-.063c0.035-.062-0.011-0.131.021-0.189a0.073,0.073,0,0,0,.041.021v0.189c0.31,0.007.539,0.093,0.8,0.084V16.11a2.445,2.445,0,0,0-.659.042H17.746v0.021a0.214,0.214,0,0,1,.062.168,0.517,0.517,0,0,1-.226.042,0.175,0.175,0,0,0-.1-0.021V16.4a0.194,0.194,0,0,1-.041.252,0.66,0.66,0,0,1,.1.084h0.412v0.084h-0.1l0.062,0.5c0.1,0.013.182,0.072,0.268,0.084,0.119,0.017.234-.035,0.37-0.021l-0.021.126c0.3,0.024.663,0.167,1.091,0.189-0.017.062-.041,0.088,0.021,0.126a1.018,1.018,0,0,0,.288.084c0.257,0.087.562,0.205,0.823,0.273a1.408,1.408,0,0,1,.206.021,0.77,0.77,0,0,0-.041.126L21,18.36V17.918a0.645,0.645,0,0,1-.021-0.273,5.06,5.06,0,0,1,1.235,0c0.113,0.049.675,0,.823,0.021a5.723,5.723,0,0,1,.762,0l0.041,0.063c0.2,0.084.512-.1,0.659-0.021a0.181,0.181,0,0,1,.041.168,0.787,0.787,0,0,1,.041.273h0.185v0.442a0.372,0.372,0,0,1,.082.063L25.507,18.7a0.279,0.279,0,0,1,.144-0.042c0.017,0.068-.01.032,0.041,0.063a4.215,4.215,0,0,1,.823.042,1.048,1.048,0,0,1,.638.189,1.331,1.331,0,0,0,.144-0.021,0.7,0.7,0,0,1,.144.084V19.1a1.131,1.131,0,0,0,.288.126,1.229,1.229,0,0,0,.823.231v0.063a0.432,0.432,0,0,1,.1.042,0.283,0.283,0,0,1-.041.084h1.009a0.847,0.847,0,0,0,.618.042,1.269,1.269,0,0,0,.371-0.337c0.385-.02.839-0.021,1.256-0.021a1.17,1.17,0,0,1,.515.042,1.244,1.244,0,0,1,.371.336h0.453a0.194,0.194,0,0,1,.062.105H40v0.925H33.268V20.8a1.249,1.249,0,0,1-.494.042,2.917,2.917,0,0,1-.762.021H29.995c-0.4,0-.774.042-1.215,0.042H28.142c-0.059.02-.133,0.105-0.185,0.126H26.927a1.992,1.992,0,0,0-.329.21,3.3,3.3,0,0,1-.7.315,0.337,0.337,0,0,1,.1.147l0.947,0.084a1.05,1.05,0,0,1-.041.294,0.446,0.446,0,0,1,.165.126,1.929,1.929,0,0,0,.721.063v0.063a1.119,1.119,0,0,1,.206.042,0.077,0.077,0,0,0,.1-0.042l0.165,0.021v0.063a1.655,1.655,0,0,1,.226.042c0.072,0.011.061-.034,0.082-0.042l0.165,0.021V22.5l0.329,0.042c0.014,0,.009-0.046.041-0.042a0.214,0.214,0,0,1,.1.084,0.732,0.732,0,0,0,.165.021c0.012-.1.017-0.1,0.123-0.105a0.4,0.4,0,0,1,.185,0V22.376h0.021V22.355a0.134,0.134,0,0,1,.1,0c0.081,0.023.079,0.024,0.082,0.126a0.109,0.109,0,0,0-.021.063c0.151-.008.255,0.007,0.268,0.147-0.046.008-.135,0.015-0.144,0.021a0.128,0.128,0,0,1,0,.126h0.041V22.818a0.109,0.109,0,0,0,.021-0.063,2.708,2.708,0,0,1,.556.084,1.531,1.531,0,0,1,.268,0,1.166,1.166,0,0,0,.412.105V22.9a0.5,0.5,0,0,1,.021-0.189H31.271a0.1,0.1,0,0,0-.062-0.021V22.629L31.6,22.692a0.536,0.536,0,0,1,.021.168h0.144V22.9H31.745a0.219,0.219,0,0,1-.123.021v0.084a0.435,0.435,0,0,0,.144.021,2.457,2.457,0,0,0,.288.042l0.123-.021a3.276,3.276,0,0,0,1.05.147,1.539,1.539,0,0,1,.041.568,0.949,0.949,0,0,0-.1.273,0.261,0.261,0,0,1,.123.21A3.673,3.673,0,0,0,33,24.5c-0.178.13-.362,0.209-0.535,0.336-0.068.05-.048,0.095-0.1,0.126a1.642,1.642,0,0,1-.37.084,1.483,1.483,0,0,1-.391,1.009,0.226,0.226,0,0,1,.041.105,3.2,3.2,0,0,1-.288.336,1.089,1.089,0,0,1-.227,0,1.729,1.729,0,0,0-.288.294,0.543,0.543,0,0,0-.185-0.042v0.042a0.412,0.412,0,0,1,.021.147,1.981,1.981,0,0,1-.432.336,0.689,0.689,0,0,0-.144-0.021V27.3c0.021,0.049,0,.031-0.021.084a0.109,0.109,0,0,1,.041.063,1.728,1.728,0,0,0-.412.358,0.926,0.926,0,0,0-.165-0.042V27.8a0.45,0.45,0,0,1,0,.126c-0.1.154-.282,0.234-0.391,0.378a0.632,0.632,0,0,0-.165-0.021,0.3,0.3,0,0,1-.021.168,3.772,3.772,0,0,1-.432.315,0.6,0.6,0,0,0-.165-0.063,0.242,0.242,0,0,1-.041.168,1.648,1.648,0,0,1-.535.105,0.187,0.187,0,0,0-.082-0.063V28.832H27.669v0.084H27.607v0.063c-6.817.024-13.983,0-20.937,0-0.017-.068.01-0.032-0.041-0.063v0.063H6.052l-0.021-.063a0.22,0.22,0,0,0-.165,0v0.063c-0.222,0-.443-0.015-0.638-0.021a0.207,0.207,0,0,0-.062-0.168c-0.053.081-.071,0.024-0.124,0.105a1.179,1.179,0,0,1-.494-0.273c-0.04-.068,0-0.139-0.041-0.21a0.229,0.229,0,0,1-.144.063c-0.078-.121-0.326-0.252-0.371-0.357a0.446,0.446,0,0,0-.021-0.168,0.234,0.234,0,0,1-.144,0C3.8,27.926,3.47,27.632,3.459,27.612a0.178,0.178,0,0,0-.021-0.168,0.375,0.375,0,0,1-.124,0l-0.371-.336a0.535,0.535,0,0,0-.021-0.168,0.333,0.333,0,0,1-.124.021,1.991,1.991,0,0,1-.391-0.378,0.331,0.331,0,0,0,.062-0.168H2.409a0.241,0.241,0,0,1-.144.042c-0.1-.151-0.25-0.265-0.35-0.421a0.071,0.071,0,0,0,.021-0.105,0.464,0.464,0,0,1-.226-0.21A0.675,0.675,0,0,0,1.462,25.7a0.384,0.384,0,0,1-.268.379c-0.112.085,0.042,0.152-.226,0.147-0.12-.168-0.212-0.076-0.206-0.4A2.31,2.31,0,0,1,.6,25.615V25.594H0.576v0.757H0.535V25.4a5.61,5.61,0,0,1-.1-0.967C0.365,24.279.367,24.073,0.288,23.89a0.881,0.881,0,0,1-.268-0.526H0.041a2.4,2.4,0,0,0,.206.168,1,1,0,0,0,.206.294V23.785C0.489,23.7.435,23.755,0.412,23.7a2.351,2.351,0,0,1-.021-0.252,0.177,0.177,0,0,0-.144-0.063,0.127,0.127,0,0,0,.041-0.042,1.093,1.093,0,0,1-.165-0.631,8.513,8.513,0,0,1-.1-1.808,1.835,1.835,0,0,1,.329,0,0.183,0.183,0,0,0,.062.126,0.1,0.1,0,0,0,.062.021,0.176,0.176,0,0,1,.062-0.084,9.8,9.8,0,0,0,1.709.042,7.42,7.42,0,0,0,1.482-.063,1.138,1.138,0,0,1,.576.084c0.174,0.041.475-.049,0.618-0.021a2.021,2.021,0,0,1,.391.021,0.24,0.24,0,0,0,.206.063v0.063a0.339,0.339,0,0,1,.288.021,0.22,0.22,0,0,1,.144-0.063c0.021,0.094.063,0.089,0.082,0.189a0.636,0.636,0,0,0,.288-0.042V21.22a1.152,1.152,0,0,0,.432.063V21.241h0.1L6.876,21.3a1.123,1.123,0,0,0,.391-0.021,0.544,0.544,0,0,0,.309.042,1.192,1.192,0,0,0,.721.021H8.543l0.021-.084a0.841,0.841,0,0,1,.185-0.105,5.848,5.848,0,0,1,1.544.042c0.358,0.084.8-.094,0.8,0.358a0.207,0.207,0,0,1,.185.084s0.308-.043.432-0.042l0.021,0.063a0.185,0.185,0,0,1,.021.105,7.176,7.176,0,0,1,1.338.063V21.766h0.165l0.021-.084H12.846a3.737,3.737,0,0,0-.823-0.315,13.078,13.078,0,0,0-1.359-.547H6.876c-0.4-.092-0.894-0.033-1.3-0.126H5.311c-0.32-.073-0.688,0-1.029-0.084a1.2,1.2,0,0,0-.35-0.063V20.421H3.767V20H3.932a0.213,0.213,0,0,1,.082-0.168H3.932V19.6H3.788V19.18H3.953a0.1,0.1,0,0,0-.021-0.063c-0.049.034-.073,0.029-0.1-0.021a0.1,0.1,0,0,0,.041-0.105H3.953c0-.143.007-0.195,0-0.316,0.067-.017.031,0.01,0.062-0.042a0.144,0.144,0,0,1-.021-0.084H4.014V18.528a1.994,1.994,0,0,1,.247-0.042,1.207,1.207,0,0,1,0-.189V18.276A0.071,0.071,0,0,1,4.3,18.3a0.339,0.339,0,0,1,.021.168A3.507,3.507,0,0,0,5.167,18.4a1.339,1.339,0,0,1,.165-0.084,0.456,0.456,0,0,0,.185.042c0.325-.071.685-0.045,1.029-0.126a2.4,2.4,0,0,1,.576-0.105l0.021-.21a0.269,0.269,0,0,0,.124-0.084,0.616,0.616,0,0,0,.041-0.442,2.825,2.825,0,0,0,0-1.009c-0.05-.232-0.006-0.5-0.062-0.757-0.155-.72-0.051-1.551-0.206-2.271L7,12.619a6.941,6.941,0,0,1-.1-1.093,0.921,0.921,0,0,1,0-.421A6.215,6.215,0,0,0,7,12.241C7.055,12.5,7.011,12.765,7.061,13V13.25c0.085,0.393.039,0.869,0.124,1.262L7.37,17.035c0.027,0.115.1,0.259,0.124,0.378l-0.021.252a0.823,0.823,0,0,1,.124.189,0.283,0.283,0,0,1,.144,0,1.209,1.209,0,0,0,.041.21l0.432-.021a0.1,0.1,0,0,1,.021-0.063,0.49,0.49,0,0,1,.226-0.021V17.876H8.543v0.147L8.791,18V17.96S9.08,18,9.161,18c0.392,0,.758,0,1.05,0a1.6,1.6,0,0,1,.473-0.336V17.1a1.449,1.449,0,0,1,.556-0.042,0.873,0.873,0,0,1,.741-0.126,3.917,3.917,0,0,1,.782-0.021V15.815a0.433,0.433,0,0,1,.082-0.379H13.2a0.39,0.39,0,0,1,.021-0.189v0.105h0.226V11.042h0.041v4.311h0.35V15.269H13.526a0.3,0.3,0,0,1,.021-0.105,0.436,0.436,0,0,0,.288.021V11h0.041v4.185Z"/>
</svg>
