<svg xmlns="http://www.w3.org/2000/svg" width="40" height="40" viewBox="0 0 40 40">
  <defs>
    <style>
      .cls-1 {
        fill: #fff;
        fill-rule: evenodd;
      }
    </style>
  </defs>
  <path id="sw_strv_m40l_ico" class="cls-1" d="M15.1,15.037l0.161,0.026a0.4,0.4,0,0,1,.295-0.289c0.152,0.113.423,0.11,0.562,0.236a1.231,1.231,0,0,0-.134.368c-0.13.315-.266,0.684-0.4,1a0.71,0.71,0,0,0-.08.473c0.055,0.115-.144.242-0.08,0.315a0.1,0.1,0,0,0,.053.026,2.064,2.064,0,0,1,.295-0.735,1.6,1.6,0,0,1,.616-0.105V16.008H16.6V16.3a1.734,1.734,0,0,0,.536-0.079V16.192c-0.1-.017-0.1-0.018-0.134-0.105a0.283,0.283,0,0,1,.161-0.053c0.109-.064.378,0.006,0.482-0.052l0.027-.079a1.472,1.472,0,0,1,.268-0.053l0.08-.236a0.431,0.431,0,0,0,.107-0.079,0.326,0.326,0,0,1,.027-0.289h0.8a2.25,2.25,0,0,1,.294-0.263h2.918V14.932a0.341,0.341,0,0,0,.027-0.184,0.525,0.525,0,0,1,.214.079,0.35,0.35,0,0,0,.214-0.079,0.454,0.454,0,0,1,.268.079c0.093,0.011.137-.07,0.268-0.079a1.966,1.966,0,0,0,.054.5,0.46,0.46,0,0,1,.535.262c-0.05.027-.1,0.054-0.161,0.079a1.312,1.312,0,0,1,.107.525h1.687V15.719a0.313,0.313,0,0,1,.187-0.053c0.035,0.065-.011.018,0.054,0.053v0.394a5.714,5.714,0,0,0,1.285.236,9.809,9.809,0,0,1,1.419-.315c-0.009-.159-0.052-0.227-0.053-0.42a0.5,0.5,0,0,1,.161-0.026,1.378,1.378,0,0,1,.027.394,0.7,0.7,0,0,0,.268-0.053V15.9c-0.144-.01-0.138-0.036-0.134-0.184a0.135,0.135,0,0,1,0-.131,9.867,9.867,0,0,1,1.9-.026,0.1,0.1,0,0,0,.054.026V15.8a0.175,0.175,0,0,0-.027.105,6.333,6.333,0,0,0-1.151.289,0.174,0.174,0,0,0-.027.105l-0.375-.026v0.446H29a1.826,1.826,0,0,1,.669-0.026l0.428,0.394a4.388,4.388,0,0,0,.295.551h0.428l0.053-.6h0.08c0,0.208.016,0.357,0.027,0.578a4.147,4.147,0,0,1,.91.052c0.068,0.039.054,0.056,0.054,0.158l3.481,0.052a12.245,12.245,0,0,1,2.088.026,4,4,0,0,0,.776-0.052v0.5a2.711,2.711,0,0,1-.509-0.052l-3.4.026a6.739,6.739,0,0,0-1.2.026c-0.277.058-.64-0.025-0.883,0.026-0.557.117-1.2-.112-1.714,0.053V18.45H31a1.2,1.2,0,0,1,.214.578,1.94,1.94,0,0,1-.214.315l-0.91.026a0.622,0.622,0,0,1-.134.21,0.514,0.514,0,0,1-.268,0c-0.29.057-.564,0.247-0.884,0.289l0.027-.131H28.809a3.557,3.557,0,0,1-.7.157,1.07,1.07,0,0,1,.08.263,1.311,1.311,0,0,1,.4-0.053,5.158,5.158,0,0,1,2.062.105c0.159,0.071.271,0.286,0.428,0.341l0.482,0.026c0.013,0.138.273,0.079,0.482,0.079h1.5a0.1,0.1,0,0,0,.054.026v0.105H34.03v0.131h0.08a0.279,0.279,0,0,0,.268.21v0.236c0.067,0.052.093,0.132,0.161,0.184a0.345,0.345,0,0,1,.08.026c0.138,0.164.057,0.42,0.375,0.42a5.343,5.343,0,0,1,1.151-.079,3.818,3.818,0,0,1,2.088.263,2.466,2.466,0,0,1,.562.262v0.6a2.431,2.431,0,0,1-.027.446,0.425,0.425,0,0,1,.187,0l0.08,0.052-0.053.079h0.08a0.583,0.583,0,0,1,.268-0.026,1.356,1.356,0,0,1-.134.368,0.346,0.346,0,0,1,.214.052,1.4,1.4,0,0,1-.08.158h0.08a0.388,0.388,0,0,1,.294.026,0.09,0.09,0,0,1-.027.053,0.3,0.3,0,0,1-.187.236v0.026a0.166,0.166,0,0,1,.187.105,0.273,0.273,0,0,1-.08.157,0.463,0.463,0,0,1,.348.105H39.92a0.542,0.542,0,0,1-.241.236,0.075,0.075,0,0,0,.027.026,0.313,0.313,0,0,1,.107.105c0.032,0.063-.028.111,0,0.131a0.37,0.37,0,0,0,.187.184,0.075,0.075,0,0,1-.027.026,1.1,1.1,0,0,1-.268.184,0.2,0.2,0,0,1,.134.21,0.14,0.14,0,0,0-.134.079h0.027a2.079,2.079,0,0,0,.214.21V26.3a2.9,2.9,0,0,0-.375.105,0.189,0.189,0,0,1,.107.21,0.463,0.463,0,0,0-.134.079,0.278,0.278,0,0,1,.134.263,0.49,0.49,0,0,1-.348.026v0.026a0.166,0.166,0,0,1,.053.158,0.348,0.348,0,0,1-.161.105,0.485,0.485,0,0,1,.107.289,1.2,1.2,0,0,1-.375-0.053v0.053a0.279,0.279,0,0,1,.027.157H38.956v0.026a0.3,0.3,0,0,0-.161.026,0.626,0.626,0,0,1,.027.289,1.048,1.048,0,0,1-.348-0.105c0.042,0.121.026,0.2-.134,0.21a0.307,0.307,0,0,0-.08-0.053,0.364,0.364,0,0,1-.08.341,1.089,1.089,0,0,0-.294-0.184,0.162,0.162,0,0,1-.161.236,0.061,0.061,0,0,0-.08,0,0.639,0.639,0,0,1-.134.184,0.318,0.318,0,0,0-.187-0.131c0,0.143,0,.2-0.107.236v0.026a0.3,0.3,0,0,0-.187-0.079,0.257,0.257,0,0,0-.268.236,0.179,0.179,0,0,0-.027.079c-0.064.03-.047,0.054-0.107,0.026A0.972,0.972,0,0,1,36.466,29c-0.075.057-.194,0.072-0.268,0.131a0.751,0.751,0,0,0-.053.21,0.161,0.161,0,0,1-.107,0,0.554,0.554,0,0,1-.134-0.105,0.483,0.483,0,0,1-.294.131,0.194,0.194,0,0,1-.161.236,0.282,0.282,0,0,0-.187-0.105,0.5,0.5,0,0,1-.241.105,0.27,0.27,0,0,1-.107.21,0.138,0.138,0,0,1-.08.026,0.28,0.28,0,0,0-.161-0.105,0.419,0.419,0,0,1-.294.105,0.786,0.786,0,0,0,0,.184,0.138,0.138,0,0,1-.08.026c-0.042.033-.014,0.017-0.054,0a0.642,0.642,0,0,0-.214-0.079,0.62,0.62,0,0,1-.268.105,0.877,0.877,0,0,1-.027.21,0.161,0.161,0,0,1-.107,0,0.285,0.285,0,0,1-.134-0.105,1.921,1.921,0,0,0-.321.131c-0.071.114,0,.173-0.187,0.184-0.03-.041-0.086-0.107-0.107-0.079a0.86,0.86,0,0,0-.348.053v0.157a0.3,0.3,0,0,0-.08.052,0.991,0.991,0,0,0-.321-0.131,0.288,0.288,0,0,1-.241.053,0.292,0.292,0,0,0,0,.131c-0.031.03-.076,0.048-0.107,0.079a1.627,1.627,0,0,1-.214-0.157,0.451,0.451,0,0,1-.268.053,1,1,0,0,1-.053.184H31.138a0.388,0.388,0,0,0-.428-0.131,0.175,0.175,0,0,1-.214.157l-0.027-.079a0.132,0.132,0,0,1-.027-0.079H30.067v0.052a0.228,0.228,0,0,1,.134.026,1.456,1.456,0,0,0-.321.105c-0.067-.159-0.1-0.2-0.348-0.184-0.021.018-.06,0.034-0.08,0.052-0.073.078,0.012,0.078-.107,0.105a0.391,0.391,0,0,1-.268-0.026h0.107V30.79l-0.375.026a0.168,0.168,0,0,1-.187.131c-0.086-.157-0.169-0.169-0.428-0.158a0.207,0.207,0,0,1-.214.158,0.905,0.905,0,0,1-.054-0.158H27.55a0.16,0.16,0,0,1-.187.158,1.808,1.808,0,0,0-.348-0.079h0.268V30.79H26.934a0.182,0.182,0,0,1-.214.158l-0.027-.079a0.132,0.132,0,0,1-.027-0.079H26.292c-0.029.123-.058,0.155-0.214,0.158a0.914,0.914,0,0,1-.053-0.158H25.676a0.212,0.212,0,0,1-.214.184c-0.061-.157-0.189-0.055-0.321-0.131a0.238,0.238,0,0,0,.241-0.053H25.034v0.079a0.283,0.283,0,0,1-.187.105c-0.09-.163-0.188-0.169-0.455-0.158a0.348,0.348,0,0,1-.054.105,0.814,0.814,0,0,1,.348.026c-0.179,0-.335.015-0.482,0.026a0.3,0.3,0,0,1-.08-0.158h-0.4a0.16,0.16,0,0,1-.187.158,0.393,0.393,0,0,1-.053-0.105,0.133,0.133,0,0,1-.027-0.079H23.079a0.2,0.2,0,0,1-.214.184,0.39,0.39,0,0,1-.054-0.105,0.132,0.132,0,0,1-.027-0.079H22.41a0.2,0.2,0,0,1-.214.184c-0.055-.2-0.19-0.2-0.455-0.184v0.053a0.131,0.131,0,0,1,.08.026c-0.162.019-.115,0.081-0.268,0.105a0.568,0.568,0,0,0-.509-0.105,0.135,0.135,0,0,1-.161.105,0.55,0.55,0,0,0-.509-0.105c-0.032.095-.04,0.1-0.161,0.105C20.1,30.78,20,30.938,19.839,30.843a0.333,0.333,0,0,0,.294-0.053H19.759a0.2,0.2,0,0,1-.214.184c-0.055-.2-0.19-0.2-0.455-0.184a0.289,0.289,0,0,1-.08.158,0.813,0.813,0,0,1,.348.026c-0.612,0-1.277,0-1.847-.026-0.093-.168-0.207-0.169-0.482-0.158-0.029.123-.058,0.155-0.214,0.158-0.093-.168-0.207-0.169-0.482-0.158v0.079a0.3,0.3,0,0,1-.214.079c-0.093-.168-0.207-0.169-0.482-0.158v0.079a0.3,0.3,0,0,1-.214.079c-0.093-.168-0.207-0.169-0.482-0.158v0.079a0.3,0.3,0,0,1-.214.079c-0.093-.168-0.207-0.169-0.482-0.158v0.079a0.3,0.3,0,0,1-.214.079c-0.093-.168-0.207-0.169-0.482-0.158v0.079a0.3,0.3,0,0,1-.214.079,0.226,0.226,0,0,0-.134-0.131c-0.009.132-.2,0.086-0.4,0.079a1.281,1.281,0,0,1-.589-0.026h0.348V30.79h-0.4v0.079a0.289,0.289,0,0,1-.187.079,0.392,0.392,0,0,1-.054-0.105,0.133,0.133,0,0,1-.027-0.079,1.176,1.176,0,0,0-.375.026c-0.059.06-.081,0.137-0.161,0.105a0.151,0.151,0,0,1-.134-0.158,0.852,0.852,0,0,1-.321-0.026c0,0.083.045,0.035-.027,0.079-0.015-.034,0-0.02-0.027-0.026a0.221,0.221,0,0,1-.214.105,0.4,0.4,0,0,0-.08-0.157,3.048,3.048,0,0,1-.375-0.026,0.328,0.328,0,0,0,.027.105c-0.1.017-.1,0.04-0.214,0.053a0.1,0.1,0,0,0-.054-0.026l-0.027-.157H9.531c-0.115.06,0.02,0.138-.241,0.157,0-.132-0.063-0.2-0.295-0.184a0.135,0.135,0,0,1-.134-0.026c-0.02.131-.062,0.156-0.214,0.157a0.184,0.184,0,0,0-.161-0.157,1.46,1.46,0,0,1-.295-0.026v0.079a0.289,0.289,0,0,1-.187.079,0.23,0.23,0,0,0-.161-0.158,0.66,0.66,0,0,0-.295-0.026,0.207,0.207,0,0,1-.214.158c-0.075-.175-0.134-0.2-0.4-0.184a0.279,0.279,0,0,1-.214.131A0.721,0.721,0,0,1,6.56,30.5s-0.29-.024-0.295-0.026a0.254,0.254,0,0,1-.214.131,1.1,1.1,0,0,0-.107-0.131A0.3,0.3,0,0,0,6,30.4c-0.207-.023-0.18-0.074-0.4-0.105a0.178,0.178,0,0,1-.134.079,0.443,0.443,0,0,1-.134-0.079,0.277,0.277,0,0,0,0-.157,0.558,0.558,0,0,0-.509-0.158V29.95H4.793a0.584,0.584,0,0,0-.187-0.473,0.327,0.327,0,0,1-.214.026l-0.027-.079a0.159,0.159,0,0,1,0-.131c-0.068-.01-0.042.015-0.054-0.079,0.088-.076.03-0.136,0-0.236L4.07,28.9a0.328,0.328,0,0,0-.027-0.105,0.312,0.312,0,0,0,.134-0.184,0.377,0.377,0,0,1-.054-0.21,0.269,0.269,0,0,1-.187-0.21H3.909V28.164c0.16-.084.172-0.166,0.161-0.42a0.224,0.224,0,0,1-.134-0.236A0.22,0.22,0,0,0,4.1,27.4a0.656,0.656,0,0,0,0-.473l0.027-.079H4.311c0.032-.119.1-0.167,0.134-0.289,0.016-.014-0.047-0.1-0.054-0.21,0.182-.082.378-0.04,0.4-0.289a4.968,4.968,0,0,1-.669-0.919H4.1v0.026a2.668,2.668,0,0,1-.562.368,0.865,0.865,0,0,1-1.044-.788H2.463v0.026a2.317,2.317,0,0,0-.134,1.5H2.142V26.222a2.547,2.547,0,0,1-.08-1.155,3.967,3.967,0,0,0,.187-0.5l-0.482-.105a2.229,2.229,0,0,1-.241-0.656H1.071a0.405,0.405,0,0,0-.027.131,0.132,0.132,0,0,1,.027.079,0.386,0.386,0,0,1-.107.026c-0.1-.163-0.395-0.116-0.482-0.289A4.6,4.6,0,0,1,.7,22.677,1.038,1.038,0,0,1,0,22.441a5.874,5.874,0,0,1,.75.105l0.134-.6a1.709,1.709,0,0,1-.348-0.026V21.863l0.08-.026a0.741,0.741,0,0,1,.321-0.026,0.61,0.61,0,0,1,.08-0.289c-0.041-.045-0.041.013-0.054-0.079H1.017a0.509,0.509,0,0,0,.348-0.079c0.061-.012.05,0.019,0.08,0.052a1.947,1.947,0,0,1,.241-0.026V21.285a0.283,0.283,0,0,1,.161-0.052c0.18,0.213.5-.054,0.723-0.105,0.01,0.069-.02.034,0.054,0.052a0.125,0.125,0,0,0,.027.079,8.536,8.536,0,0,0,1.232-.289A0.269,0.269,0,0,1,3.775,20.6a0.617,0.617,0,0,1,.348-0.131V20.5H4.15v0.026H4.123a1.063,1.063,0,0,1-.241.105c-0.022.158-.041,0.275,0.161,0.289a1.178,1.178,0,0,1,.482-0.131V20.708A0.8,0.8,0,0,0,4.98,20.6a0.877,0.877,0,0,0,.214.026c0.058-.017.121-0.087,0.187-0.105a6.917,6.917,0,0,0,.991-0.158,0.458,0.458,0,0,1,.268-0.131,0.151,0.151,0,0,0,.161.105,1.961,1.961,0,0,1,.991.053c0-.125.056-0.087,0.241-0.079a3.055,3.055,0,0,1,.616-0.026c0.189-.047.4,0.025,0.643-0.026a9.247,9.247,0,0,1,1.66-.079,0.509,0.509,0,0,1,.4-0.236,1.329,1.329,0,0,1,.589-0.026,1.119,1.119,0,0,0,.375.21,5.921,5.921,0,0,0,1.071-.079c0.014,0,1.071-.026,1.071-0.026v0.053a2.67,2.67,0,0,0,.348-0.053V19.946a0.284,0.284,0,0,1,.161-0.053,0.275,0.275,0,0,1,.054.131,3.188,3.188,0,0,1,.455.026c0.077-.19.237-0.17,0.509-0.158a1.506,1.506,0,0,0-.187-0.5c-0.112-.259-0.157-0.5-0.268-0.761a6.777,6.777,0,0,1-.295-0.656,0.866,0.866,0,0,1,.134-0.473H15.315V17.478H15.288V17.5a1,1,0,0,1-.161.289,0.1,0.1,0,0,0-.054-0.026,6.164,6.164,0,0,1-.482,1.313,2.04,2.04,0,0,1-.187.525,1.608,1.608,0,0,0-.616-0.21V19a0.587,0.587,0,0,1-.187-0.053,0.478,0.478,0,0,1-.241.289,1.857,1.857,0,0,0-.589-0.21V18.949a2.413,2.413,0,0,0,.241-0.656,4.95,4.95,0,0,0,.4-1.1,0.909,0.909,0,0,1-.08-0.079l0.321-.866,0.161-.052a2.427,2.427,0,0,1,.241-0.656c0.159-.381.241-0.764,0.4-1.129L15.02,14.59V10.206A13.362,13.362,0,0,1,15.047,8h0.027v4.647a1.857,1.857,0,0,1,.027.683v1.707ZM3.963,28.348a0.094,0.094,0,0,1,.027.053H3.963V28.348ZM4.043,28.4a0.094,0.094,0,0,1,.027.052H4.043V28.4Zm2.41,2.127H6.506v0.026A0.093,0.093,0,0,1,6.452,30.527Zm-0.214.052H6.292v0.026A0.093,0.093,0,0,1,6.238,30.58Zm0.83,0.026H7.122v0.026A0.092,0.092,0,0,1,7.068,30.606Zm0.723,0H7.845v0.026A0.092,0.092,0,0,1,7.791,30.606Zm-0.937.026H6.908v0.026A0.093,0.093,0,0,1,6.854,30.632Zm0.723,0H7.631v0.026A0.093,0.093,0,0,1,7.577,30.632Zm0.723,0H8.353v0.026A0.092,0.092,0,0,1,8.3,30.632Zm-1.071.052H7.282v0.026A0.093,0.093,0,0,1,7.229,30.685Zm0.643,0H7.925v0.026A0.093,0.093,0,0,1,7.871,30.685Zm-0.134.026H7.791v0.026A0.092,0.092,0,0,1,7.738,30.711Zm0.643,0H8.434v0.026A0.092,0.092,0,0,1,8.38,30.711Zm0.75,0H9.183v0.026A0.092,0.092,0,0,1,9.13,30.711Zm-0.884.026H8.3v0.026A0.093,0.093,0,0,1,8.246,30.737Zm0.669,0H8.969v0.026A0.093,0.093,0,0,1,8.916,30.737Zm0.723,0H9.692v0.026A0.093,0.093,0,0,1,9.639,30.737Zm0.723,0h0.054v0.026A0.093,0.093,0,0,1,10.361,30.737Zm-1.58.026H8.835V30.79A0.093,0.093,0,0,1,8.782,30.764ZM9.8,30.816H9.853v0.026A0.092,0.092,0,0,1,9.8,30.816Zm0.643,0H10.5v0.026A0.092,0.092,0,0,1,10.442,30.816Zm-0.134.026h0.053v0.026A0.092,0.092,0,0,1,10.308,30.843Zm0.643,0H11v0.026A0.092,0.092,0,0,1,10.951,30.843Zm0.75,0h0.054v0.026A0.092,0.092,0,0,1,11.7,30.843Zm18.983,0h0.054v0.026A0.092,0.092,0,0,1,30.683,30.843Zm-19.866.026H10.87V30.9A0.092,0.092,0,0,1,10.817,30.869Zm19.572,0.052h0.054v0.026A0.093,0.093,0,0,1,30.388,30.921Zm-4.739.026a0.732,0.732,0,0,1,.321.026A0.732,0.732,0,0,1,25.649,30.948Z" transform="translate(0 0.5)"/>
</svg>
