<?xml version="1.0" encoding="utf-8"?>
<!-- Generator: Adobe Illustrator 16.0.0, SVG Export Plug-In . SVG Version: 6.00 Build 0)  -->
<!DOCTYPE svg PUBLIC "-//W3C//DTD SVG 1.1//EN" "http://www.w3.org/Graphics/SVG/1.1/DTD/svg11.dtd">
<svg version="1.1" id="Layer_1" xmlns="http://www.w3.org/2000/svg" xmlns:xlink="http://www.w3.org/1999/xlink" x="0px" y="0px"
	 width="40px" height="40px" viewBox="0 0 40 40" enable-background="new 0 0 40 40" xml:space="preserve">
<path id="sw_sav_fm48_ico" fill="#FFFFFF" d="M30.4,15.179c0,0.218,0.037,0.363,0.045,0.539H34.6v0.086
	c0.034,0.024,0.064,0.053,0.09,0.086h1c0.395,0.04,0.79,0.047,1.185,0.022c0.379,0.031,0.759,0.038,1.14,0.021
	c0.246,0.013,0.565,0.022,0.848,0.022h0.425c0.161,0.037,0.327,0.044,0.491,0.022c0.071-0.026,0.146-0.041,0.223-0.043v0.949
	c-0.068-0.003-0.137-0.018-0.2-0.043l-1.3,0.022c-0.253-0.015-0.508-0.007-0.759,0.022c-0.38,0.079-0.854-0.052-1.206,0.022h-0.577
	c-0.456-0.019-0.912,0.01-1.362,0.086v1.035l-7.057,0.022v0.021c0.012,0.012,0.02,0.027,0.021,0.043h0.135v0.237h0.021
	c0.032-0.069,0.104-0.112,0.18-0.108c0.031,0.044,0.047,0.097,0.045,0.151c-0.035,0.052-0.058,0.111-0.067,0.173
	c0.073,0.018,0.088,0.043,0.156,0.064c0.05-0.093,0.142-0.157,0.245-0.173c0.032,0.044,0.048,0.097,0.045,0.151
	c-0.033,0.052-0.057,0.111-0.066,0.173c0.058,0.027,0.117,0.05,0.18,0.065c0.054-0.064,0.113-0.121,0.178-0.174l0.068,0.022
	c0.014,0.041,0.021,0.085,0.021,0.129c-0.043,0.047-0.059,0.111-0.045,0.173c0.033,0.04,0.082,0.064,0.134,0.064
	c0.065-0.084,0.162-0.138,0.269-0.15c0.014,0.041,0.021,0.086,0.021,0.13c-0.028,0.037-0.044,0.082-0.045,0.129
	c0.576,0,1.438,0.062,2.189,0.065c0.027,0.211,0.096,0.414,0.199,0.6c0.051,0.069,0.12,0.121,0.2,0.15
	c0.032-0.039,0.085-0.055,0.134-0.043l-0.021,0.194c0.07,0.048,0.125,0.115,0.156,0.194c0.051-0.013,0.104-0.013,0.155,0v0.086
	c-0.036,0.021-0.067,0.051-0.089,0.086c0.055,0.066,0.078,0.152,0.066,0.237l0.135,0.021v0.087c-0.036,0.012-0.074,0.02-0.112,0.021
	c0,0.062-0.032,0.262-0.022,0.28c0.031,0.055,0.084-0.016,0.113,0.13c-0.064-0.003-0.125,0.03-0.156,0.086
	c-0.045,0.064-0.076,0.138-0.09,0.216c0.043,0.018,0.07,0.062,0.067,0.107h-0.022v0.026c-0.1,0-0.127-0.024-0.155,0.022
	c-0.095,0.202-0.118,0.43-0.067,0.646H31.6l-0.02-0.068c-0.037-0.105-0.067-0.214-0.089-0.323c-0.091,0.043-0.175,0.101-0.246,0.172
	c0.04,0.03,0.058,0.081,0.045,0.13c-0.101-0.009-0.101-0.032-0.2-0.043c-0.07,0.039-0.125,0.1-0.156,0.173
	c0.021,0.033,0.021,0.075,0,0.108c-0.072-0.018-0.088-0.043-0.156-0.065c-0.051,0.054-0.111,0.099-0.178,0.13
	c0.012,0.05,0.02,0.101,0.021,0.151c-0.057-0.025-0.119-0.033-0.18-0.022c-0.084,0.012-0.153,0.07-0.178,0.151
	c0.016,0.025,0.023,0.056,0.021,0.086h-0.023v0.022c-0.078-0.022-0.074-0.047-0.156-0.065c-0.047,0.058-0.108,0.103-0.179,0.13
	c0.019,0.057,0.019,0.117,0,0.174c-0.036-0.037-0.083-0.06-0.134-0.065l-0.2,0.13c0.017,0.049,0.023,0.1,0.022,0.15
	c-0.05-0.021-0.103-0.036-0.156-0.043c-0.086,0.028-0.113,0.08-0.2,0.108c0.019,0.056,0.019,0.117,0,0.173
	c-0.048-0.03-0.103-0.052-0.159-0.062c-0.047,0.058-0.109,0.103-0.179,0.13c0.017,0.049,0.023,0.1,0.022,0.15
	c-0.058-0.006-0.111-0.028-0.156-0.064c-0.057,0.062-0.125,0.113-0.2,0.15c0.017,0.049,0.023,0.101,0.022,0.151
	c-0.05-0.021-0.103-0.036-0.156-0.043c-0.089,0.027-0.115,0.079-0.2,0.108c0.028,0.07,0.048,0.122,0,0.15v0.021H28.23v-0.023
	c-0.036-0.013-0.066-0.035-0.09-0.065c-0.066,0.062-0.141,0.112-0.223,0.151c0.016,0.048,0.023,0.1,0.021,0.15
	c-0.055-0.012-0.108-0.033-0.155-0.064c-0.058,0.066-0.137,0.111-0.224,0.129c0.023,0.039,0.023,0.089,0,0.129
	c-0.02,0.014-0.043,0.021-0.066,0.021c-0.02-0.039-0.053-0.068-0.094-0.083c-0.067,0.056-0.2,0.054-0.269,0.108
	c0.021,0.043,0.012,0.095-0.022,0.129h-0.041c-0.034-0.028-0.059-0.066-0.068-0.11l-0.29,0.022v0.086
	c-0.033,0.023-0.071,0.038-0.112,0.043v-0.043c-0.014-0.02-0.021-0.042-0.021-0.065c-0.139,0.011-0.275,0.048-0.4,0.108
	c-0.023-0.031-0.039-0.068-0.045-0.108h-0.179c-0.03,0.073-0.017,0.089-0.112,0.108c-0.037-0.009-0.075-0.009-0.111,0v-0.043
	c-0.015-0.02-0.022-0.042-0.022-0.065h-0.2l-0.021,0.108h-0.09c-0.029-0.011-0.061-0.011-0.09,0
	c-0.031-0.106-0.076-0.114-0.223-0.108c0.005,0.056-0.036,0.104-0.091,0.108c-0.007,0.001-0.015,0.001-0.021,0
	c-0.028-0.011-0.06-0.011-0.089,0c-0.048-0.1-0.082-0.115-0.246-0.108v0.087c-0.028,0.011-0.059,0.018-0.089,0.021
	c-0.036-0.009-0.075-0.009-0.112,0v-0.042c-0.014-0.02-0.021-0.042-0.021-0.065h-0.2l-0.022,0.108H24.1
	c-0.028-0.011-0.061-0.011-0.089,0c-0.013-0.035-0.021-0.071-0.021-0.108h-0.2c0.005,0.056-0.036,0.104-0.091,0.108
	c-0.007,0.001-0.015,0.001-0.021,0c-0.028-0.011-0.06-0.011-0.089,0c-0.024-0.031-0.039-0.068-0.045-0.108h-0.2l-0.022,0.108h-0.07
	c-0.037-0.009-0.075-0.009-0.111,0v-0.043c-0.015-0.02-0.022-0.042-0.022-0.065h-0.2l-0.021,0.108H22.8
	c-0.028-0.011-0.06-0.011-0.089,0c-0.045-0.1-0.066-0.114-0.223-0.108c0.004,0.056-0.036,0.104-0.092,0.108
	c-0.006,0.001-0.014,0.001-0.021,0c-0.028-0.011-0.06-0.011-0.089,0c-0.024-0.031-0.04-0.068-0.045-0.108h-0.2l-0.022,0.108h-0.065
	c-0.036-0.014-0.076-0.014-0.112,0v-0.043c-0.014-0.02-0.021-0.042-0.021-0.065h-0.2v0.065c-0.033,0.023-0.071,0.038-0.112,0.043
	c-0.028-0.011-0.061-0.011-0.089,0c-0.045-0.1-0.067-0.114-0.224-0.108c0.006,0.056-0.035,0.104-0.09,0.108
	c-0.008,0.001-0.015,0.001-0.021,0c-0.037-0.009-0.075-0.009-0.111,0v-0.043c-0.015-0.02-0.022-0.042-0.022-0.065h-0.2l-0.021,0.108
	h-0.092c-0.028-0.011-0.061-0.011-0.089,0v-0.043c-0.015-0.02-0.022-0.042-0.022-0.065h-0.199v0.065
	c-0.033,0.023-0.072,0.038-0.112,0.043c-0.029-0.011-0.06-0.011-0.089,0c-0.045-0.1-0.067-0.114-0.223-0.108
	c-0.03,0.073-0.017,0.089-0.112,0.108c-0.029-0.011-0.061-0.011-0.089,0c-0.024-0.031-0.04-0.068-0.045-0.108h-0.2l-0.022,0.108
	h-0.07c-0.036-0.014-0.076-0.014-0.112,0v-0.043c-0.014-0.02-0.022-0.042-0.022-0.065h-0.2v0.065
	c-0.033,0.023-0.072,0.038-0.112,0.043c-0.029-0.011-0.06-0.011-0.089,0c-0.048-0.1-0.082-0.115-0.246-0.108v0.087
	c-0.028,0.011-0.059,0.018-0.089,0.021c-0.029-0.011-0.061-0.011-0.089,0c-0.024-0.032-0.04-0.069-0.045-0.108h-0.2l-0.022,0.108
	h-0.07c-0.036-0.014-0.076-0.014-0.112,0v-0.042c-0.014-0.02-0.022-0.042-0.022-0.065h-0.2v0.065
	c-0.033,0.023-0.072,0.038-0.112,0.043c-0.029-0.011-0.061-0.011-0.089,0c-0.024-0.031-0.04-0.068-0.045-0.108h-0.2v0.087
	c-0.029,0.011-0.059,0.018-0.089,0.021c-0.037-0.009-0.075-0.009-0.112,0v-0.042c-0.014-0.02-0.022-0.042-0.022-0.065h-0.2
	l-0.022,0.108H16.75c-0.029-0.011-0.061-0.011-0.089,0c-0.031-0.106-0.077-0.114-0.223-0.108c0.005,0.056-0.036,0.104-0.091,0.108
	c-0.007,0.001-0.014,0.001-0.021,0c-0.029-0.011-0.061-0.011-0.089,0c-0.048-0.1-0.081-0.115-0.246-0.108v0.087
	c-0.029,0.011-0.059,0.018-0.089,0.021c-0.037-0.009-0.075-0.009-0.112,0v-0.042c-0.014-0.02-0.022-0.042-0.022-0.065h-0.2
	l-0.022,0.108h-0.091c-0.029-0.011-0.061-0.011-0.089,0c-0.014-0.035-0.021-0.071-0.022-0.108h-0.2
	c0.005,0.056-0.036,0.104-0.091,0.108c-0.007,0.001-0.014,0.001-0.021,0c-0.029-0.011-0.061-0.011-0.089,0
	c-0.024-0.031-0.04-0.068-0.045-0.108H14.7l-0.022,0.108h-0.072c-0.037-0.009-0.075-0.009-0.112,0v-0.043
	c-0.014-0.02-0.022-0.042-0.022-0.065h-0.2l-0.022,0.108h-0.09c-0.029-0.011-0.061-0.011-0.089,0
	c-0.045-0.1-0.067-0.114-0.223-0.108c0.005,0.056-0.036,0.104-0.091,0.108c-0.007,0.001-0.014,0.001-0.021,0
	c-0.029-0.011-0.06-0.011-0.089,0c-0.024-0.031-0.04-0.068-0.045-0.108H13.4l-0.022,0.108h-0.067c-0.036-0.014-0.076-0.014-0.112,0
	v-0.043c-0.015-0.02-0.022-0.042-0.022-0.065h-0.2v0.065c-0.033,0.023-0.072,0.038-0.112,0.043c-0.029-0.011-0.061-0.011-0.089,0
	c-0.045-0.1-0.067-0.114-0.223-0.108c0.005,0.056-0.036,0.104-0.091,0.108c-0.007,0.001-0.014,0.001-0.021,0
	c-0.037-0.009-0.075-0.009-0.112,0v-0.043c-0.014-0.02-0.022-0.042-0.022-0.065h-0.2l-0.022,0.108h-0.092
	c-0.029-0.011-0.061-0.011-0.089,0v-0.043c-0.014-0.02-0.022-0.042-0.022-0.065h-0.2v0.065c-0.033,0.023-0.072,0.038-0.112,0.043
	c-0.029-0.011-0.06-0.011-0.089,0c-0.045-0.1-0.067-0.114-0.223-0.108c-0.03,0.073-0.017,0.089-0.112,0.108
	c-0.029-0.011-0.06-0.011-0.089,0c-0.024-0.031-0.04-0.068-0.045-0.108h-0.2l-0.022,0.108h-0.07c-0.036-0.014-0.076-0.014-0.112,0
	v-0.043c-0.014-0.02-0.022-0.042-0.022-0.065h-0.2v0.065c-0.033,0.023-0.071,0.038-0.112,0.043c-0.029-0.011-0.06-0.011-0.089,0
	c-0.048-0.1-0.082-0.115-0.246-0.108v0.087C9.911,24.983,9.88,24.99,9.85,24.993c-0.029-0.011-0.061-0.011-0.089,0
	c-0.024-0.031-0.04-0.069-0.045-0.108h-0.2l-0.022,0.108H9.425c-0.036-0.014-0.076-0.014-0.112,0v-0.042
	c-0.014-0.02-0.022-0.042-0.022-0.065H9.09v0.065c-0.033,0.023-0.071,0.038-0.112,0.043c-0.029-0.011-0.06-0.011-0.089,0
	c-0.024-0.031-0.04-0.068-0.045-0.108h-0.2v0.087c-0.029,0.011-0.059,0.018-0.089,0.021c-0.037-0.009-0.075-0.009-0.112,0v-0.042
	c-0.014-0.02-0.022-0.042-0.022-0.065h-0.2L8.2,24.994H8.107c-0.029-0.011-0.06-0.011-0.089,0c-0.031-0.106-0.077-0.114-0.223-0.108
	c0.005,0.056-0.036,0.104-0.091,0.108c-0.007,0.001-0.014,0.001-0.021,0c-0.029-0.011-0.061-0.011-0.089,0
	c-0.024-0.031-0.04-0.068-0.045-0.108h-0.2v0.087C7.32,24.983,7.291,24.99,7.26,24.993c-0.029-0.005-0.059-0.005-0.089,0
	c-0.1-0.037-0.015-0.106-0.246-0.108L6.9,24.994H6.812C6.744,24.891,6.621,24.84,6.5,24.865v0.064
	c-0.027,0.017-0.05,0.039-0.067,0.065l-0.067-0.021l-0.022-0.131c-0.088-0.014-0.178-0.021-0.268-0.021
	c-0.029,0.048-0.079,0.079-0.134,0.086c-0.017-0.049-0.017-0.103,0-0.151c-0.104-0.013-0.203-0.05-0.29-0.107
	c-0.015,0.078,0,0.059-0.067,0.086v0.021c-0.023,0.021-0.022-0.021-0.022-0.021c-0.021-0.041-0.036-0.085-0.045-0.131
	c-0.069-0.061-0.155-0.098-0.246-0.107c-0.03,0.044-0.081,0.068-0.134,0.064c-0.01-0.049-0.01-0.101,0-0.15
	c-0.105-0.025-0.163-0.079-0.268-0.108c-0.013,0.035-0.037,0.065-0.067,0.087c-0.017-0.003-0.033-0.011-0.045-0.022
	C4.75,24.313,4.726,24.26,4.69,24.216c-0.065-0.048-0.143-0.077-0.223-0.086c-0.023,0.063-0.049,0.083-0.089,0.065
	c-0.019-0.052-0.042-0.103-0.067-0.151c-0.07-0.045-0.145-0.081-0.223-0.108c-0.027,0.08-0.035,0.08-0.135,0.088
	c-0.015-0.051-0.007-0.105,0.022-0.15c-0.093-0.039-0.19-0.068-0.29-0.086c-0.026,0.037-0.067,0.061-0.112,0.064v-0.043
	c-0.013-0.035-0.02-0.072-0.022-0.108c-0.109-0.082-0.254-0.099-0.38-0.043v-0.041c-0.019-0.034-0.019-0.075,0-0.108
	c-0.066-0.014-0.128-0.046-0.178-0.092c-0.061,0.034-0.131,0.049-0.2,0.043c-0.004-0.046-0.02-0.09-0.045-0.129
	c-0.115-0.067-0.253-0.083-0.38-0.043c-0.009-0.077,0.011-0.055-0.045-0.086c-0.058,0.024-0.122,0.024-0.179,0
	c-0.019-0.038-0.042-0.074-0.067-0.108c-0.027,0.017-0.058,0.024-0.089,0.022v-0.127H1.965c-0.03,0.043-0.081,0.068-0.134,0.064
	C1.8,23.016,1.747,23.004,1.72,22.967c-0.004-0.035-0.004-0.072,0-0.107H1.608v-0.131c-0.061,0.032-0.135,0.009-0.167-0.053
	c-0.006-0.01-0.01-0.021-0.012-0.033c-0.03-0.049-0.021-0.111,0.022-0.15c-0.049,0.006-0.098-0.01-0.134-0.043l0.045-0.086
	c-0.043,0.008-0.087-0.01-0.111-0.047c-0.049-0.072-0.049-0.166,0-0.237c-0.07-0.022-0.051-0.005-0.067-0.083
	c0.025-0.013,0.042-0.037,0.045-0.064c-0.135-0.061-0.065-0.135-0.045-0.238c-0.151-0.285-0.323-0.559-0.514-0.819
	c-0.076,0.003-0.151,0.017-0.223,0.043c0.01,0.171-0.02,0.343-0.089,0.5c-0.017,0.019-0.028,0.024-0.045,0.043
	c-0.017-0.002-0.033-0.01-0.045-0.022c-0.058-0.035-0.047-0.066-0.045-0.153c0.021-0.187,0.021-0.375,0-0.562
	c0.09-0.087,0.166-0.188,0.223-0.3C0.272,20.186,0.123,19.933,0,19.666h0.067c-0.013-0.1-0.071-0.168,0-0.216v0.022
	c0.033,0.043,0.047,0.129,0.089,0.172c0.072-0.052,0.2-0.054,0.268-0.107h0.023v-0.021c-0.029-0.011-0.059-0.018-0.089-0.021
	C0.33,19.513,0.3,19.527,0.269,19.538v-0.044c-0.014-0.019-0.022-0.041-0.022-0.065l0.38-0.129c0.098-0.106,0.235-0.169,0.38-0.173
	C1,19.054,1.015,18.98,1.05,18.916h1.027v-0.068h0.045c0.123-0.071,0.259-0.115,0.4-0.13l0.022,0.065
	c0.006,0.021,0.018,0.008,0,0.021c-0.051,0.018-0.097,0.047-0.134,0.086h0.136c0.12-0.029,0.233-0.081,0.335-0.15H2.859v-0.024
	L2.7,18.76v-0.107l0.447-0.129c0.013,0.034,0.021,0.07,0.022,0.107l-0.134,0.021v0.063h0.047c0.117-0.068,0.246-0.112,0.38-0.13
	v-0.128c0.024-0.01,0.047-0.024,0.067-0.042c0.078,0.019,0.145,0.072,0.2,0.086c0.191-0.03,0.378-0.081,0.558-0.151l0.023-0.065
	c0.098,0.003,0.197-0.012,0.29-0.043c0.108-0.079,0.036-0.19,0.223-0.216c0.018,0.032,0.041,0.061,0.067,0.086
	c0.059-0.046,0.189-0.035,0.246-0.086c0.057-0.051,0.064-0.211,0.157-0.151c0.042,0.026,0.087,0.048,0.134,0.065
	c0.151-0.07,0.31-0.121,0.473-0.151c0.353-0.151,0.733-0.225,1.117-0.216c-0.005-0.08,0.002-0.16,0.022-0.237H7.08v0.237
	c1.921,0,3.9,0.026,5.784-0.022l0.021-0.108L13,17.423c0.031,0.044,0.047,0.097,0.045,0.151h0.313l0.223-0.237h-0.024v-0.021h-0.045
	c-0.023,0.044-0.064,0.075-0.112,0.086c-0.019-0.026-0.034-0.055-0.045-0.086c0.079-0.051,0.146-0.117,0.2-0.194
	c-0.035-0.016-0.06-0.048-0.067-0.086c0.09-0.063,0.172-0.135,0.246-0.216c0.006-0.03-0.044-0.035,0-0.065
	c0.1-0.047,0.19-0.114,0.266-0.195c0.005-0.029,0.013-0.058,0.022-0.086c0.111-0.041,0.205-0.117,0.268-0.216
	c0.046,0.029,0.075,0.062,0.089,0.065c0.066-0.077,0.151-0.136,0.246-0.172c0.012,0.018,0.027,0.033,0.045,0.043
	c-0.025,0.035-0.125,0.11-0.089,0.129c0.012,0.012,0.028,0.02,0.045,0.021l0.315-0.329h-0.022v-0.017h-0.045
	c-0.023,0.044-0.064,0.075-0.112,0.086c-0.02-0.026-0.035-0.055-0.045-0.086c0.122-0.08,0.228-0.182,0.313-0.3l0.089,0.043v0.043
	c-0.044,0.021-0.077,0.061-0.089,0.108c0.009,0.005,0.017,0.013,0.021,0.022c0.009-0.005,0.017-0.013,0.022-0.022
	c0.131-0.078,0.239-0.19,0.313-0.324c-0.009-0.005-0.017-0.013-0.022-0.022c-0.037,0.024-0.114,0.121-0.134,0.086
	c-0.031-0.017-0.049-0.051-0.045-0.086c0.098-0.117,0.22-0.213,0.357-0.28c0.012,0.018,0.027,0.032,0.045,0.043
	c-0.025,0.035-0.125,0.11-0.089,0.129c0.012,0.012,0.028,0.02,0.045,0.022c0.28-0.312,0.718-0.429,1.117-0.3V15.05
	c0.13-0.036,0.265-0.05,0.4-0.043c0.029,0.011,0.06,0.011,0.089,0c0.005,0.015,0.093,0.139,0.022,0.151h1.876V15.05
	c0.036-0.019,0.073-0.033,0.112-0.043c0.126,0.008,0.253,0.008,0.38,0c0,0.015,0.093,0.139,0.022,0.151h0.759V12.31
	c-0.042-0.431-0.034-0.865,0.025-1.294h0.022v4.142h0.045c0.133-0.293,0.439-0.467,0.759-0.431c0.051,0.144,0.117,0.282,0.2,0.41
	c0.213,0.044,0.433,0.052,0.647,0.022h1.653L30.4,15.179z"/>
</svg>
