<svg xmlns="http://www.w3.org/2000/svg" width="40" height="40" viewBox="0 0 40 40">
  <defs>
    <style>
      .cls-1 {
        fill: #fff;
        fill-rule: evenodd;
      }
    </style>
  </defs>
  <path id="sw_sav_fm48_ico" class="cls-1" d="M30.4,17.163c0,0.218.038,0.363,0.045,0.539H34.6v0.086a0.421,0.421,0,0,1,.089.086H35.69a7.158,7.158,0,0,0,1.184.022,8.881,8.881,0,0,0,1.139.021c0.247,0.013.566,0.022,0.849,0.022h0.424a1.37,1.37,0,0,0,.491.022A0.714,0.714,0,0,1,40,17.918v0.949a0.622,0.622,0,0,1-.2-0.043l-1.3.022a4.369,4.369,0,0,0-.759.022c-0.38.079-.854-0.052-1.206,0.022H35.958a6.612,6.612,0,0,0-1.362.086v1.035l-7.057.022v0.021a0.078,0.078,0,0,1,.022.043h0.134v0.237h0.022a0.186,0.186,0,0,1,.179-0.108,0.242,0.242,0,0,1,.045.151,0.439,0.439,0,0,0-.067.173c0.073,0.018.088,0.043,0.156,0.065a0.336,0.336,0,0,1,.246-0.173,0.243,0.243,0,0,1,.045.151,0.439,0.439,0,0,0-.067.173,0.927,0.927,0,0,0,.179.065,1.331,1.331,0,0,1,.179-0.173l0.067,0.022a0.381,0.381,0,0,1,.022.129,0.194,0.194,0,0,0-.045.173,0.178,0.178,0,0,0,.134.065,0.4,0.4,0,0,1,.268-0.151,0.381,0.381,0,0,1,.022.13,0.219,0.219,0,0,0-.045.129c0.576,0,1.438.062,2.189,0.065a1.69,1.69,0,0,0,.2.6,0.432,0.432,0,0,0,.2.151,0.131,0.131,0,0,1,.134-0.043l-0.022.194a0.421,0.421,0,0,1,.156.194,0.322,0.322,0,0,1,.156,0v0.086a0.242,0.242,0,0,0-.089.086,0.31,0.31,0,0,1,.067.237l0.134,0.022v0.086a0.363,0.363,0,0,1-.112.021c0,0.061-.033.262-0.022,0.281,0.031,0.054.083-.016,0.112,0.129a0.174,0.174,0,0,0-.156.086,0.547,0.547,0,0,0-.089.216,0.11,0.11,0,0,1,.067.108H31.938V23.7c-0.1,0-.128-0.024-0.156.022a1,1,0,0,0-.067.647H31.6L31.58,24.3a2.256,2.256,0,0,1-.089-0.323,0.881,0.881,0,0,0-.246.172,0.122,0.122,0,0,1,.045.13c-0.1-.009-0.1-0.032-0.2-0.043a0.355,0.355,0,0,0-.156.173,0.1,0.1,0,0,1,0,.108c-0.073-.018-0.088-0.043-0.156-0.065a0.618,0.618,0,0,1-.179.13,0.751,0.751,0,0,1,.022.151,0.3,0.3,0,0,0-.179-0.022,0.216,0.216,0,0,0-.179.151,0.142,0.142,0,0,1,.022.086H30.262v0.022c-0.079-.022-0.074-0.046-0.156-0.065a0.433,0.433,0,0,1-.179.13,0.276,0.276,0,0,1,0,.173,0.231,0.231,0,0,0-.134-0.065l-0.2.13a0.446,0.446,0,0,1,.022.151,0.555,0.555,0,0,0-.156-0.043c-0.086.028-.113,0.079-0.2,0.108a0.277,0.277,0,0,1,0,.173A0.447,0.447,0,0,0,29.1,25.6a0.434,0.434,0,0,1-.179.13,0.449,0.449,0,0,1,.022.151,0.3,0.3,0,0,1-.156-0.065,0.707,0.707,0,0,1-.2.151,0.452,0.452,0,0,1,.022.151,0.548,0.548,0,0,0-.156-0.043c-0.089.027-.115,0.079-0.2,0.108,0.028,0.071.048,0.122,0,.151v0.021H28.23V26.331a0.188,0.188,0,0,1-.089-0.065,0.884,0.884,0,0,1-.223.151,0.452,0.452,0,0,1,.022.151,0.437,0.437,0,0,1-.156-0.065,0.4,0.4,0,0,1-.223.129,0.127,0.127,0,0,1,0,.129,0.116,0.116,0,0,1-.067.022A0.164,0.164,0,0,0,27.4,26.7c-0.067.056-.2,0.054-0.268,0.108a0.114,0.114,0,0,1-.022.129H27.069A0.2,0.2,0,0,1,27,26.827l-0.29.022v0.086a0.241,0.241,0,0,1-.112.043V26.935a0.108,0.108,0,0,1-.022-0.065,1.114,1.114,0,0,0-.4.108,0.225,0.225,0,0,1-.045-0.108H25.952c-0.03.073-.017,0.089-0.112,0.108a0.253,0.253,0,0,0-.112,0V26.935a0.108,0.108,0,0,1-.022-0.065h-0.2l-0.022.108H25.394a0.129,0.129,0,0,0-.089,0c-0.031-.106-0.077-0.114-0.223-0.108a0.1,0.1,0,0,1-.112.108,0.129,0.129,0,0,0-.089,0c-0.048-.1-0.082-0.115-0.246-0.108v0.086a0.327,0.327,0,0,1-.089.021,0.252,0.252,0,0,0-.112,0V26.935a0.108,0.108,0,0,1-.022-0.065h-0.2l-0.022.108H24.1a0.13,0.13,0,0,0-.089,0,0.331,0.331,0,0,1-.022-0.108h-0.2a0.1,0.1,0,0,1-.112.108,0.129,0.129,0,0,0-.089,0,0.225,0.225,0,0,1-.045-0.108h-0.2l-0.022.108H23.25a0.253,0.253,0,0,0-.112,0V26.935a0.108,0.108,0,0,1-.022-0.065h-0.2l-0.022.108H22.8a0.129,0.129,0,0,0-.089,0c-0.045-.1-0.067-0.114-0.223-0.108a0.1,0.1,0,0,1-.112.108,0.13,0.13,0,0,0-.089,0,0.225,0.225,0,0,1-.045-0.108h-0.2l-0.022.108H21.954a0.161,0.161,0,0,0-.112,0V26.935a0.108,0.108,0,0,1-.022-0.065h-0.2v0.065a0.241,0.241,0,0,1-.112.043,0.129,0.129,0,0,0-.089,0c-0.045-.1-0.067-0.114-0.223-0.108a0.1,0.1,0,0,1-.112.108,0.253,0.253,0,0,0-.112,0V26.935a0.108,0.108,0,0,1-.022-0.065h-0.2l-0.022.108H20.637a0.129,0.129,0,0,0-.089,0V26.935a0.108,0.108,0,0,1-.022-0.065h-0.2v0.065a0.241,0.241,0,0,1-.112.043,0.13,0.13,0,0,0-.089,0c-0.045-.1-0.067-0.114-0.223-0.108-0.03.073-.017,0.089-0.112,0.108a0.129,0.129,0,0,0-.089,0,0.225,0.225,0,0,1-.045-0.108h-0.2l-0.022.108H19.364a0.161,0.161,0,0,0-.112,0V26.935a0.108,0.108,0,0,1-.022-0.065h-0.2v0.065a0.241,0.241,0,0,1-.112.043,0.129,0.129,0,0,0-.089,0c-0.048-.1-0.082-0.115-0.246-0.108v0.086a0.327,0.327,0,0,1-.089.021,0.13,0.13,0,0,0-.089,0,0.225,0.225,0,0,1-.045-0.108h-0.2l-0.022.108H18.068a0.161,0.161,0,0,0-.112,0V26.935a0.108,0.108,0,0,1-.022-0.065h-0.2v0.065a0.241,0.241,0,0,1-.112.043,0.129,0.129,0,0,0-.089,0,0.225,0.225,0,0,1-.045-0.108h-0.2v0.086a0.326,0.326,0,0,1-.089.021,0.253,0.253,0,0,0-.112,0V26.935a0.108,0.108,0,0,1-.022-0.065h-0.2l-0.022.108H16.75a0.129,0.129,0,0,0-.089,0c-0.031-.106-0.077-0.114-0.223-0.108a0.1,0.1,0,0,1-.112.108,0.13,0.13,0,0,0-.089,0c-0.048-.1-0.081-0.115-0.246-0.108v0.086a0.328,0.328,0,0,1-.089.021,0.252,0.252,0,0,0-.112,0V26.935a0.108,0.108,0,0,1-.022-0.065h-0.2l-0.022.108H15.455a0.13,0.13,0,0,0-.089,0,0.329,0.329,0,0,1-.022-0.108h-0.2a0.1,0.1,0,0,1-.112.108,0.129,0.129,0,0,0-.089,0,0.224,0.224,0,0,1-.045-0.108H14.7l-0.022.108H14.606a0.253,0.253,0,0,0-.112,0V26.935a0.108,0.108,0,0,1-.022-0.065h-0.2l-0.022.108H14.16a0.129,0.129,0,0,0-.089,0c-0.045-.1-0.067-0.114-0.223-0.108a0.1,0.1,0,0,1-.112.108,0.129,0.129,0,0,0-.089,0,0.225,0.225,0,0,1-.045-0.108H13.4l-0.022.108H13.311a0.161,0.161,0,0,0-.112,0V26.935a0.108,0.108,0,0,1-.022-0.065h-0.2v0.065a0.241,0.241,0,0,1-.112.043,0.129,0.129,0,0,0-.089,0c-0.045-.1-0.067-0.114-0.223-0.108a0.1,0.1,0,0,1-.112.108,0.253,0.253,0,0,0-.112,0V26.935a0.108,0.108,0,0,1-.022-0.065h-0.2l-0.022.108H11.993a0.129,0.129,0,0,0-.089,0V26.935a0.108,0.108,0,0,1-.022-0.065h-0.2v0.065a0.241,0.241,0,0,1-.112.043,0.13,0.13,0,0,0-.089,0c-0.045-.1-0.067-0.114-0.223-0.108-0.03.073-.017,0.089-0.112,0.108a0.129,0.129,0,0,0-.089,0,0.224,0.224,0,0,1-.045-0.108h-0.2l-0.022.108H10.72a0.161,0.161,0,0,0-.112,0V26.935a0.108,0.108,0,0,1-.022-0.065h-0.2v0.065a0.242,0.242,0,0,1-.112.043,0.129,0.129,0,0,0-.089,0c-0.048-.1-0.082-0.115-0.246-0.108v0.086a0.327,0.327,0,0,1-.089.021,0.129,0.129,0,0,0-.089,0,0.224,0.224,0,0,1-.045-0.108h-0.2l-0.022.108H9.425a0.161,0.161,0,0,0-.112,0V26.935a0.108,0.108,0,0,1-.022-0.065H9.09v0.065a0.241,0.241,0,0,1-.112.043,0.129,0.129,0,0,0-.089,0,0.224,0.224,0,0,1-.045-0.108h-0.2v0.086a0.327,0.327,0,0,1-.089.021,0.252,0.252,0,0,0-.112,0V26.935a0.108,0.108,0,0,1-.022-0.065h-0.2L8.2,26.978H8.107a0.129,0.129,0,0,0-.089,0c-0.031-.106-0.077-0.114-0.223-0.108a0.1,0.1,0,0,1-.112.108,0.129,0.129,0,0,0-.089,0,0.224,0.224,0,0,1-.045-0.108h-0.2v0.086a0.327,0.327,0,0,1-.089.021,0.286,0.286,0,0,0-.089,0c-0.1-.037-0.015-0.106-0.246-0.108L6.9,26.978H6.812A0.3,0.3,0,0,0,6.5,26.849v0.065a0.2,0.2,0,0,0-.067.065l-0.067-.021-0.022-.13a1.659,1.659,0,0,0-.268-0.021,0.183,0.183,0,0,1-.134.086,0.232,0.232,0,0,1,0-.151,0.672,0.672,0,0,1-.29-0.108c-0.015.079,0,.059-0.067,0.086v0.021c-0.023.021-.022-0.021-0.022-0.021a0.489,0.489,0,0,1-.045-0.13,0.44,0.44,0,0,0-.246-0.108,0.149,0.149,0,0,1-.134.065,0.393,0.393,0,0,1,0-.151c-0.105-.025-0.163-0.079-0.268-0.108a0.182,0.182,0,0,1-.067.086,0.077,0.077,0,0,1-.045-0.022A0.311,0.311,0,0,0,4.69,26.2a0.469,0.469,0,0,0-.223-0.086c-0.023.063-.049,0.083-0.089,0.065a1.293,1.293,0,0,0-.067-0.151,0.991,0.991,0,0,0-.223-0.108C4.061,26,4.053,26,3.953,26.008a0.182,0.182,0,0,1,.022-0.151,1.383,1.383,0,0,0-.29-0.086,0.158,0.158,0,0,1-.112.065V25.792a0.4,0.4,0,0,1-.022-0.108,0.38,0.38,0,0,0-.38-0.043V25.6a0.109,0.109,0,0,1,0-.108A0.377,0.377,0,0,1,2.993,25.4a0.344,0.344,0,0,1-.2.043,0.289,0.289,0,0,0-.045-0.129,0.471,0.471,0,0,0-.38-0.043c-0.009-.077.011-0.054-0.045-0.086a0.226,0.226,0,0,1-.179,0,0.665,0.665,0,0,0-.067-0.108,0.155,0.155,0,0,1-.089.022V24.972H1.965a0.153,0.153,0,0,1-.134.065C1.8,25,1.747,24.988,1.72,24.951a0.444,0.444,0,0,1,0-.108H1.608V24.713a0.124,0.124,0,0,1-.179-0.086,0.12,0.12,0,0,1,.022-0.151,0.168,0.168,0,0,1-.134-0.043l0.045-.086A0.107,0.107,0,0,1,1.251,24.3a0.209,0.209,0,0,1,0-.237C1.181,24.04,1.2,24.058,1.184,23.98a0.084,0.084,0,0,0,.045-0.065c-0.135-.06-0.065-0.134-0.045-0.237a6.561,6.561,0,0,0-.514-0.82,0.72,0.72,0,0,0-.223.043,1.074,1.074,0,0,1-.089.5c-0.017.019-.028,0.024-0.045,0.043a0.077,0.077,0,0,1-.045-0.022C0.21,23.387.221,23.355,0.223,23.268a2.478,2.478,0,0,0,0-.561,1.149,1.149,0,0,0,.223-0.3A4.418,4.418,0,0,1,0,21.65H0.067c-0.013-.1-0.071-0.168,0-0.216v0.022C0.1,21.5.114,21.585,0.156,21.629c0.072-.052.2-0.054,0.268-0.108H0.447V21.5a0.327,0.327,0,0,0-.089-0.021,0.441,0.441,0,0,1-.089.043V21.478a0.108,0.108,0,0,1-.022-0.065l0.38-.129a0.531,0.531,0,0,1,.38-0.173A0.359,0.359,0,0,1,1.05,20.9H2.077V20.831H2.122a1.008,1.008,0,0,1,.4-0.129l0.022,0.065c0.006,0.021.018,0.008,0,.022a0.323,0.323,0,0,0-.134.086H2.546a1.04,1.04,0,0,0,.335-0.151H2.859V20.7L2.7,20.744V20.636l0.447-.129a0.329,0.329,0,0,1,.022.108l-0.134.022V20.7H3.082a1.011,1.011,0,0,1,.38-0.13V20.442A0.245,0.245,0,0,0,3.529,20.4c0.078,0.019.145,0.072,0.2,0.086a2.723,2.723,0,0,0,.558-0.151L4.31,20.27a0.822,0.822,0,0,0,.29-0.043c0.108-.079.036-0.19,0.223-0.216a0.392,0.392,0,0,0,.067.086c0.059-.046.189-0.035,0.246-0.086S5.2,19.8,5.293,19.86a0.788,0.788,0,0,0,.134.065A1.943,1.943,0,0,1,5.9,19.774a2.67,2.67,0,0,1,1.117-.216,0.737,0.737,0,0,1,.022-0.237H7.08v0.237c1.921,0,3.9.026,5.784-.022l0.022-.108L13,19.407a0.242,0.242,0,0,1,.045.151h0.313l0.223-.237H13.557V19.3H13.512a0.168,0.168,0,0,1-.112.086,0.322,0.322,0,0,1-.045-0.086,0.718,0.718,0,0,0,.2-0.194,0.118,0.118,0,0,1-.067-0.086,1.479,1.479,0,0,0,.246-0.216c0.006-.03-0.044-0.035,0-0.065A0.879,0.879,0,0,0,14,18.544a0.57,0.57,0,0,1,.022-0.086,0.534,0.534,0,0,0,.268-0.216c0.046,0.029.075,0.062,0.089,0.065a0.613,0.613,0,0,1,.246-0.172,0.135,0.135,0,0,0,.045.043c-0.025.035-.125,0.11-0.089,0.129a0.081,0.081,0,0,0,.045.022L14.941,18H14.919V17.983H14.874a0.168,0.168,0,0,1-.112.086,0.32,0.32,0,0,1-.045-0.086,1.2,1.2,0,0,0,.313-0.3l0.089,0.043v0.043a0.165,0.165,0,0,0-.089.108,0.062,0.062,0,0,1,.022.022,0.064,0.064,0,0,0,.022-0.022,0.849,0.849,0,0,0,.313-0.324,0.062,0.062,0,0,1-.022-0.022c-0.037.024-.114,0.121-0.134,0.086a0.086,0.086,0,0,1-.045-0.086,1.083,1.083,0,0,1,.357-0.28,0.135,0.135,0,0,0,.045.043c-0.025.035-.125,0.11-0.089,0.129a0.082,0.082,0,0,0,.045.022,1.062,1.062,0,0,1,1.117-.3V17.034a1.248,1.248,0,0,1,.4-0.043,0.129,0.129,0,0,0,.089,0c0.005,0.015.093,0.139,0.022,0.151h1.876V17.034a0.466,0.466,0,0,1,.112-0.043,2.944,2.944,0,0,0,.38,0c0,0.015.093,0.139,0.022,0.151h0.759V14.294A5.535,5.535,0,0,1,20.346,13h0.022v4.142h0.045a0.743,0.743,0,0,1,.759-0.431,1.944,1.944,0,0,0,.2.41,1.913,1.913,0,0,0,.648.022h1.653Z" transform="translate(0 0.016)"/>
</svg>
