<?xml version="1.0" encoding="utf-8"?>
<!-- Generator: Adobe Illustrator 16.0.0, SVG Export Plug-In . SVG Version: 6.00 Build 0)  -->
<!DOCTYPE svg PUBLIC "-//W3C//DTD SVG 1.1//EN" "http://www.w3.org/Graphics/SVG/1.1/DTD/svg11.dtd">
<svg version="1.1" id="Layer_1" xmlns="http://www.w3.org/2000/svg" xmlns:xlink="http://www.w3.org/1999/xlink" x="0px" y="0px"
	 width="39.938px" height="40px" viewBox="0 0 39.938 40" enable-background="new 0 0 39.938 40" xml:space="preserve">
<path id="Color_Fill_1" fill="#FFFFFF" d="M31.128,13.204v0.146l2.262,0.049c0.305-0.028,0.61-0.028,0.915,0
	c0.062,0.206,0.078,0.422,0.048,0.634c-0.985-0.07-2.08,0-3.177,0v0.051h-0.048v0.146h-0.866l-0.1,0.146
	c-0.415,0.053-0.834,0.069-1.251,0.049v0.2H28.77c0.001-0.053-0.016-0.104-0.048-0.146c-0.171,0.11-0.38,0.146-0.578,0.1v0.2
	c0.31-0.028,0.167-0.101,0.289-0.146c0.13-0.01,0.256,0.045,0.337,0.146h1.06l0.77-0.049c0.721,0.279,1.49,0.412,2.262,0.39v0.439
	c0.7,0.283,0.181,0.742,1.253,0.732c0.283,0.077,0.582,0.077,0.865,0v0.146h-0.914v0.049c0.041,0.025,0.075,0.059,0.101,0.1h-0.101
	c-0.155,0.057-0.325,0.057-0.48,0v0.049c0.21,0.323,0.342,0.69,0.385,1.073l0.433,0.1V17.74h0.049c-0.081-0.144-0.05,0-0.049-0.2
	c0.065-0.109,0.146-0.208,0.241-0.293h0.337l0.048-0.2c0.152-0.156,0.36-0.244,0.578-0.244c-0.013-0.1,0.004-0.202,0.048-0.293
	v0.293h0.192l-0.1,1.073c0.827,0.127,1.668,0.144,2.5,0.049c0.376-0.387,1.629,0.752,1.685,1.073
	c-0.389,0.07-0.753,0.238-1.059,0.488c0.783,0.563,0.468,2.104,0.144,2.878c-0.304,0.55-0.753,1.007-1.3,1.317
	c-0.869,0.713-1.823,1.318-2.84,1.799c-0.179,0.08-0.394,0.278-0.578,0.342c-0.813,0.127-1.639,0.144-2.455,0.049H7.831
	c-0.771,0.069-1.548,0.036-2.311-0.1c-0.901-0.354-1.758-0.813-2.551-1.366c-0.411-0.255-0.819-0.41-1.2-0.683
	c-0.205-0.202-0.432-0.383-0.674-0.537c-0.241-0.095-0.605,0.213-0.77-0.201c-0.026-0.193-0.026-0.391,0-0.584
	c-0.044-0.116-0.25-0.34-0.289-0.465v-0.101c-0.042-0.274-0.058-0.552-0.048-0.829c0.115-0.286,0.688-1.236,0.48-1.658
	c-0.051-0.08-0.147-0.121-0.241-0.1c-0.042,0.041-0.091,0.074-0.144,0.1v-0.199c0.358-0.122,0.664-0.363,0.866-0.684
	c0.028-0.128,0.028-0.262,0-0.39c0.088-0.409,0.234-0.803,0.433-1.171c0.254-0.235,0.573-0.388,0.915-0.439v-0.139
	c0.444-0.05,0.871-0.201,1.248-0.442c-0.085-0.112-0.104-0.261-0.048-0.39c0.267-0.146,0.563-0.229,0.866-0.244
	c0.029,0.105,0.078,0.205,0.144,0.293c0.964-0.667,2.206-0.778,3.273-0.293c0.241,0.216,0.544,0.352,0.865,0.39v-0.046h0.051
	c0.006-0.308-0.131-0.32-0.145-0.731c0.163-0.205,0.126-0.363,0.385-0.39v-0.1c-0.026-0.027-0.043-0.063-0.048-0.1
	c0.73-0.138,1.485-0.052,2.166,0.244h7.413v-0.239h-2.456v-0.244h-0.048v-0.049h-0.144v-0.683h-1.108v-0.1
	c0.026-0.027,0.043-0.063,0.048-0.1h-0.914v-0.1h0.048V12.96c0.639,0.092,1.287,0.092,1.925,0v-1.025
	c0.053,0,0.104-0.017,0.145-0.049h0.048V11.74c0.307-0.108,0.598-0.256,0.866-0.439h2.07l0.048-0.146
	c-0.194,0.006-0.264,0.027-0.337-0.1c0.306-0.207,0.09-0.349,0-0.634h0.144c0.366,0.291,0.845,0.398,1.3,0.293v0.146h1.638
	c0-0.17,0.006-0.162,0.289-0.146c-0.012,0.194-0.045,0.164,0.1,0.293c0.174-0.035,0.352-0.051,0.529-0.049
	c0.024-0.064,0.024-0.136,0-0.2h-0.101l-0.048,0.049v-0.1h0.193l0.1,0.2c0.126-0.088,0.281-0.124,0.433-0.1
	c0.035,0.11,0.051,0.225,0.049,0.341h0.142c-0.015-0.081-0.015-0.163,0-0.244l0.289,0.049c0.062,0.383,0.783,0.265,1.2,0.244v0.049
	h0.051c-0.01-0.419,0.072-0.835,0.241-1.219c0.675-0.085,0.744,0.463,0.722,1.171c0.461,0.091,0.931,0.125,1.4,0.1
	c0.189,0.171,0.4,0.319,0.626,0.439c0.287,0.1,0.614-0.008,0.817,0.1v-0.1l-0.289-0.341h0.101v0.049
	c0.415,0.148,0.179,0.479,0.385,0.829c0.378,0.09,0.771,0.107,1.155,0.049l0.192,0.341c0.25,0.177,0.233-0.07,0.241,0.39
	c-0.084,0.025-0.164,0.059-0.241,0.101h0.049C30.614,13.223,30.873,13.24,31.128,13.204z M22.945,10.911
	c0.004,0.115-0.012,0.231-0.048,0.341h0.048c0.073-0.048,0.168-0.048,0.241,0c-0.021-0.133-0.055-0.263-0.1-0.39
	C23.045,10.893,22.996,10.91,22.945,10.911z M22.271,11.155v0.1c0.062,0.026,0.127,0.042,0.193,0.049
	c0.028-0.055,0.082-0.093,0.144-0.1v-0.049H22.271L22.271,11.155z M14.907,13.106v0.1h0.144v-0.1H14.907z M15.196,13.106v0.1h0.627
	v-0.1H15.196z M9.227,14.326c-0.052,0.053-0.119,0.088-0.192,0.1v0.049h1.059c-0.022,0.046-0.022,0.1,0,0.146
	c0.137,0,0.019-0.038,0.144,0.049v-0.296C9.905,14.312,9.565,14.296,9.227,14.326z M8.601,14.57h0.101v0.049H8.649
	c-0.032,0.006-0.093,0.002-0.048-0.05V14.57z M8.501,14.67c0.054,0.056,0.054,0.145,0,0.2V14.67z M8.453,14.914
	c0.048,0.192,0.082,0.388,0.1,0.585H8.457v-0.588L8.453,14.914z M10.186,15.304c-0.075,0.082-0.125,0.184-0.144,0.293l0.194,0.046
	v-0.1c-0.002-0.083-0.018-0.164-0.047-0.242L10.186,15.304z M4.073,15.353c-0.145,0.1-0.309,0.168-0.481,0.2
	c-0.004,0.038-0.021,0.073-0.048,0.1c0.022,0.085,0.057,0.167,0.1,0.244c0.295-0.029,0.561-0.19,0.723-0.439
	c-0.026-0.027-0.044-0.063-0.049-0.1h-0.24L4.073,15.353z M7.491,15.841v0.1h0.1v-0.1H7.491z M33.537,16.423
	c0.026,0.027,0.062,0.044,0.1,0.049C33.61,16.445,33.574,16.428,33.537,16.423z M33.778,16.423c0.055,0.052,0.14,0.052,0.193,0
	h-0.195H33.778z M2.637,17.545c-0.456,0.4-0.67,0.126-1.011,0.829H1.67c0.386-0.209,0.787-0.389,1.2-0.537
	c-0.011-0.021-0.026-0.04-0.045-0.053C2.826,17.67,2.748,17.57,2.637,17.545z M38.209,20.277c-0.015,0.097-0.015,0.195,0,0.293
	v0.049l0.145-0.049v-0.147c-0.047-0.052-0.097-0.101-0.149-0.146H38.209z M37.92,20.326c-0.032,0.094-0.049,0.193-0.048,0.293h0.048
	c0.027-0.027,0.063-0.045,0.1-0.049v-0.244H37.92z M37.728,21.35v0.2l0.14,0.044c0.074,0.042,0.166,0.042,0.24,0v-0.049h-0.289
	c-0.009-0.074-0.043-0.143-0.096-0.195H37.728z M37.872,21.838l0.043,0.146h0.1c0.025-0.041,0.06-0.075,0.101-0.101v-0.046h-0.248
	H37.872z M37.15,22.082c-0.004,0.038-0.021,0.073-0.048,0.1c-0.005,0.104,0.052,0.2,0.146,0.244c0.043-0.041,0.077-0.09,0.1-0.146
	c-0.09-0.065-0.121-0.136-0.202-0.196L37.15,22.082z M0.519,22.766v0.146l0.241,0.146v-0.1L0.519,22.766z M3.219,22.965l0.048,0.342
	H3.066l-0.192-0.244l-0.289,0.1l-0.047,0.236c0.935,0.527,1.84,1.068,2.84,1.562v-0.147c-0.076-0.175-0.058-0.377,0.048-0.537
	c0.071-0.295,0.323-0.511,0.626-0.536c0.138-0.053,0.287-0.069,0.433-0.05c-0.019-0.268,0.031-0.535,0.145-0.779
	c0.196-0.008,0.391-0.041,0.578-0.1H6.58c-0.385,0.037-0.771,0.037-1.155,0c-0.841,0.002-1.448,0.146-2.215,0.149L3.219,22.965z
	 M8.032,22.818v0.101c0.291-0.007,0.58-0.04,0.865-0.101H8.024H8.032z M9.284,22.818v0.101c0.283-0.074,0.582-0.074,0.865,0v-0.101
	H9.275H9.284z M10.343,22.818v0.101c0.603-0.132,1.227-0.132,1.829,0v-0.101h-1.835H10.343z M12.99,22.818v0.101
	c0.682-0.147,1.388-0.147,2.069,0v-0.101H12.99z M15.252,22.818v0.101c0.363-0.089,0.743-0.089,1.106,0v-0.101h-1.114H15.252z
	 M16.792,22.818v0.101c0.092-0.04,0.196-0.04,0.289,0v-0.101h-0.297H16.792z M17.899,22.818v0.101c0.205-0.061,0.422-0.061,0.626,0
	v-0.101h-0.634H17.899z M21.413,22.818v0.101h0.626v-0.101h-0.634H21.413z M22.857,22.818v0.101h0.337v-0.101h-0.345H22.857z
	 M23.627,22.818v0.101c0.435,0.081,0.883,0.046,1.3-0.101H23.627z M25.071,22.818v0.101c0.628,0.061,1.261,0.027,1.878-0.101h-1.886
	H25.071z M27.771,22.818v0.101c0.691,0.061,1.388,0.026,2.07-0.101H27.771z M30.033,22.818v0.101h0.674v-0.101h-0.687H30.033z
	 M31.14,22.818v0.101h0.771v-0.101H31.14z M33.437,23.691c0.502-0.124,1.01,0.182,1.133,0.684c0.044,0.178,0.035,0.363-0.025,0.536
	h0.1c0.306-0.191,0.628-0.354,0.963-0.488c0.4-0.253,0.849-0.542,1.252-0.829c0.141-0.152,0.303-0.284,0.481-0.39v-0.049
	c-0.353,0.054-0.713,0.037-1.059-0.05c-0.161-0.059-0.375-0.241-0.529-0.293h-1.016c-0.857,0-1.3,0-2.021,0v0.101h0.529
	c0.047-0.013,0.018-0.038,0.048,0C33.396,23.158,33.446,23.424,33.437,23.691z M19.911,24.275H19.72
	c0.063,0.316,0.013,0.646-0.144,0.928h0.77v-0.048c-0.199-0.247-0.254-0.581-0.144-0.878h-0.193V23.35h-0.1v0.928L19.911,24.275z
	 M9.803,24.275c0.107,0.309,0.07,0.648-0.1,0.928h0.77v-0.048c-0.189-0.253-0.228-0.589-0.1-0.878H9.805L9.803,24.275z
	 M14.761,24.275c0.107,0.309,0.07,0.648-0.1,0.928h0.722v-0.048c-0.19-0.253-0.229-0.589-0.1-0.878h-0.53L14.761,24.275z
	 M24.677,24.275c0.061,0.316,0.01,0.645-0.144,0.928h0.722v-0.048c-0.191-0.251-0.245-0.58-0.145-0.878h-0.433L24.677,24.275z
	 M29.587,24.275c0.05,0.316,0,0.642-0.145,0.928h0.771v-0.048c-0.189-0.251-0.243-0.579-0.145-0.878h-0.48L29.587,24.275z
	 M7.157,24.96l-0.145,0.244h1.155v-0.101C7.852,24.959,7.501,24.909,7.157,24.96z M12.115,24.96l-0.145,0.244h1.2v-0.049
	C12.864,24.941,12.479,24.869,12.115,24.96z M17.025,24.96l-0.144,0.244h1.2v-0.101C17.749,24.958,17.384,24.908,17.025,24.96z
	 M21.983,24.96l-0.146,0.244h1.2v-0.049C22.73,24.941,22.346,24.87,21.983,24.96z M26.893,24.96l-0.144,0.244h1.154v-0.101
	C27.588,24.959,27.237,24.909,26.893,24.96z M31.851,24.96l-0.144,0.244h1.2v-0.049C32.602,24.935,32.214,24.863,31.851,24.96
	L31.851,24.96z"/>
</svg>
