<?xml version="1.0" encoding="utf-8"?>
<!-- Generator: Adobe Illustrator 16.0.0, SVG Export Plug-In . SVG Version: 6.00 Build 0)  -->
<!DOCTYPE svg PUBLIC "-//W3C//DTD SVG 1.1//EN" "http://www.w3.org/Graphics/SVG/1.1/DTD/svg11.dtd">
<svg version="1.1" id="Layer_1" xmlns="http://www.w3.org/2000/svg" xmlns:xlink="http://www.w3.org/1999/xlink" x="0px" y="0px"
	 width="40px" height="40px" viewBox="0 0 40 40" enable-background="new 0 0 40 40" xml:space="preserve">
<path id="Color_Fill_1" fill="#FFFFFF" d="M10.477,15.629c0.27-0.044,0.45-0.207,0.734-0.243c0.114-0.015,0.308,0.138,0.539,0.146
	l-0.049,0.438l0.343-0.049v-0.194h0.1c0.173,0.057,0.358,0.073,0.539,0.049c0.057-0.144,0.105-0.29,0.147-0.438
	c0.18-0.007,0.36-0.023,0.539-0.049c0.078,0.071,0.146,0.153,0.2,0.243c0.294-0.26,0.7-0.352,1.077-0.243V15.24
	c-0.037-0.109-0.054-0.225-0.049-0.34h0.049v-0.049h0.147v-0.195c0.111-0.035,0.227-0.052,0.343-0.049
	c0.068,0.033,0.223,0.012,0.343,0.049c0.041-0.158-0.024-0.074,0.1-0.146v-0.048l0.1,0.049v-0.049
	c0.032-0.07,0.013-0.044,0.245-0.049c0.072-0.123,0.061-0.089,0.245-0.1l0.049-0.535h-0.061v-0.045H16.01V13.1
	c0.229,0,0.458-0.017,0.685-0.049c0.076,0.219,0.093,0.454,0.049,0.681h-0.391l-0.049,0.583c0.322-0.022,0.684-0.008,1.126,0
	c0.095,0.188,0.145,0.201,0.441,0.195v-0.1c-0.076-0.01-0.147-0.045-0.2-0.1h0.392v0.195c0.355,0.064,0.717,0.081,1.077,0.049
	c0.42,0.077,0.848,0.093,1.273,0.05c0.124,0.052,0.259,0.068,0.392,0.049c0.059-0.104,0.186-0.146,0.295-0.101
	c0.399,0.101,0.813,0.134,1.224,0.101v0.193c-1.698-0.064-3.398-0.031-5.092,0.101c0.029,0.246,0.079,0.49,0.147,0.729l-0.686,0.146
	c-0.261-0.021-0.5-0.13-0.783-0.146v0.05c0.106,0.004,0.192,0.088,0.2,0.194c-0.062,0.091-0.111,0.188-0.147,0.292
	c0.159,0.04,0.075-0.023,0.147,0.1c0.034-0.026,0.068-0.133,0.1-0.146c0.197,0.001,0.393,0.018,0.587,0.049
	c0.373-0.061,0.749-0.094,1.126-0.1c-0.051,0.259-0.034,0.526,0.049,0.778c0.069,0.002,0.137,0.019,0.2,0.049
	c0.054-0.025,0.104-0.06,0.147-0.101c0.446-0.137,0.61,0.207,0.93,0.05l0.1,0.146c0.208-0.067,0.421-0.116,0.637-0.146
	c0.063,0.289,0.5,0.213,0.832,0.194v0.101c-0.213-0.031-0.43-0.014-0.635,0.049c0.404,0.071,0.815,0.088,1.224,0.049
	c0.024,0.041,0.06,0.075,0.1,0.1v0.1c-0.156,0.062-0.28,0.185-0.343,0.341h0.393c0.514,0.112,1.045,0.13,1.566,0.049
	c0.123,0.058,0.256,0.091,0.393,0.101c0.793-0.132,1.602-0.148,2.399-0.05c0.22,0.084,0.451,0.133,0.687,0.146v-0.1
	c0.106,0.055,0.223,0.089,0.342,0.1c0.9-0.258,3.168,0.25,3.673,0h0.831c0.559,0.007,2,0.17,2.351,0.101V18.3
	c0.958-0.16,1.937-0.144,2.89,0.05c0.238,0.1,0.625-0.117,0.93-0.05h1.455c0.298,0.106,0.613,0.156,0.93,0.146v0.729
	c-2.107,0.007-4.212-0.108-6.268-0.146c0.001,0.053-0.016,0.104-0.049,0.146c-0.1-0.133-0.153,0.095-0.392,0.05
	c-0.324-0.063-1.392-0.021-1.909-0.146H30.6v-0.1c-0.399-0.201-1.699,0.117-2.447-0.05c-0.797-0.085-1.601-0.102-2.4-0.049
	c-1.222-0.022-2.587-0.049-3.77-0.049v0.049c0.075,0.077,0.112,0.185,0.1,0.292c-0.117-0.016-0.235,0.002-0.343,0.049
	c0.466-0.033,0.933,0.033,1.37,0.195c0.064,0.098,0.178,0.154,0.295,0.146c0.187-0.201,0.951,0.119,1.371,0.049
	c-0.008-0.158-0.088-0.148,0.146-0.194c0.096,0.042,0.193,0.075,0.294,0.101c-0.039,0.084-0.129,0.09-0.049,0.146
	c0.321,0.074,0.652,0.091,0.979,0.049c0.224,0.062,0.929,0.101,1.125,0.195c0.098,0.103,0.214,0.186,0.344,0.243
	c0.164-0.023,0.333-0.007,0.49,0.049c0.242,0.221,0.441,0.484,0.588,0.777c0.225,0.196,0.393,0.447,0.49,0.729
	c-0.291,0.175-0.569,0.37-0.832,0.584c-0.121,0.167-0.127,0.419-0.246,0.583c-0.088,0.125-0.432,0.3-0.489,0.389v0.682h-0.101
	c0.029-0.196,0.012-0.396-0.049-0.584c-0.353,0.262-0.729,0.49-1.126,0.681c-0.602,0.495-1.279,0.889-2.007,1.167h-2.84
	c-2.208-0.098-8.063,0-8.81,0H6.316c-0.192-0.13-0.492-0.118-0.685-0.243c-0.337-0.217-0.652-0.549-0.979-0.778
	c-0.491-0.344-0.982-0.621-1.469-0.973l-0.245-0.292l-0.441-0.1c-0.078-0.106-0.145-0.221-0.2-0.341L2.15,22.432
	C2.1,22.35,2.147,22.162,2.105,22.1c-0.086,0.115-0.206,0.2-0.343,0.243v-0.052c-0.041-0.025-0.075-0.059-0.1-0.1l0.294-0.243
	c-0.065,0.018-0.135,0.018-0.2,0c0.008-0.12,0.042-0.235,0.1-0.341H1.812c-0.116,0.236-0.381,0.358-0.636,0.293
	c-0.083-0.066-0.15-0.149-0.2-0.243c-0.092-0.146-0.109-0.325-0.046-0.485c0.15-0.045,0.184-0.1,0.343-0.146v-0.047
	c-0.108-0.014-0.216,0.023-0.294,0.1c-0.005-0.284-0.013-0.189-0.343-0.243V20.3c-0.036-0.114-0.01-0.077,0.049-0.2H0.294v-0.24
	h0.342v-0.101H0.588v-0.045c-0.169,0.005-0.336-0.029-0.49-0.1C0.058,19.537,0.025,19.456,0,19.373h0.2
	c0.342,0.105,0.712,0.069,1.028-0.1c0.241-0.078,0.486-0.144,0.734-0.195H2.84c0.837-0.182,1.69-0.279,2.546-0.292
	c0.37,0.077,0.751,0.095,1.126,0.049H6.365c0.012-0.326,0.081-0.174,0.147-0.292c0.2-0.355-0.232-0.2,0.2-0.535
	c0.029-0.247-0.005-0.498-0.1-0.729C6.827,17.184,7.001,17.014,7.1,16.8c0.182,0.039,0.218,0.126,0.294,0
	c-0.094-0.172-0.176-0.351-0.245-0.534c0.237,0.007,0.472-0.043,0.685-0.146H8.47c0.303-0.081,0.617-0.115,0.93-0.1V15.58h0.049
	c0.071,0.124-0.011,0.055,0.147,0.1c0.006-0.063,0.044-0.117,0.1-0.146c0,0.141-0.047,0.067,0,0.146c0.16-0.05,0.331-0.05,0.49,0
	c0-0.053-0.017-0.104-0.049-0.146c-0.058-0.038-0.236-0.058-0.294-0.101c-0.026-0.027-0.044-0.062-0.049-0.1
	c0.062-0.156,0.062-0.33,0-0.486c0.111-0.035,0.227-0.051,0.343-0.049c0.065,0.072,0.15,0.123,0.245,0.146
	c-0.056-0.891-0.056-1.784,0-2.674V3.424c-0.043-0.308-0.028-0.622,0.046-0.924v8.266C10.428,12.372,10.371,14.1,10.477,15.629z
	 M19.143,14.754c0.139,0.068,0.302,0.068,0.441,0H19.143z M15.471,15.191c-0.215-0.021-0.429,0.051-0.588,0.195
	c0.037,0.059,0.054,0.127,0.049,0.195c0.179-0.011,0.359-0.011,0.538,0l0.049-0.34l0.1,0.049c-0.003-0.143-0.055-0.28-0.147-0.389
	v0.291L15.471,15.191z M9.743,15c0.026,0.027,0.044,0.063,0.049,0.1H9.743V15z M16.108,15.486c0.01,0.067-0.04-0.021-0.049,0.049
	c-0.094,0.038,0.1,0.049,0.1,0.049c-0.005-0.039-0.023-0.074-0.051-0.102V15.486z M15.374,15.632v0.101h0.146v-0.101H15.374
	L15.374,15.632z M7.345,16.361c0.029,0.056,0.084,0.093,0.147,0.1v-0.1H7.345L7.345,16.361z M19.879,17.236
	c0.014,0.126-0.023,0.086,0.2,0.1v-0.054h-0.054v-0.048h-0.147L19.879,17.236z M20.76,17.479v0.194h0.295
	c0.035-0.06,0.086-0.11,0.146-0.146v-0.051h-0.442L20.76,17.479z M7.05,18.838v0.1c0.751-0.082,1.511-0.049,2.252,0.101
	c0.027-0.155,0.051-0.058,0.2-0.195H7.05V18.838z M21.15,18.938c-0.204,0.079-0.418,0.129-0.637,0.146v0.1h0.101
	c0.257-0.063,0.525-0.063,0.782,0l-0.1-0.242H21.15V18.938z M20.416,19.132c-0.113,0.073-0.333,0.069-0.441,0.146
	c0.177,0.037,0.361-0.018,0.49-0.146H20.416z M22.178,19.277c0.08,0.074,0.187,0.11,0.295,0.101
	c0.026-0.027,0.043-0.062,0.049-0.101H22.18H22.178z M1.517,20.979c0.138,0.094,0.241,0.23,0.294,0.389H1.86v-0.195
	C1.776,21.064,1.653,20.995,1.517,20.979L1.517,20.979z M2.251,22.242c0,0.053,0.017,0.104,0.049,0.146v-0.146H2.251L2.251,22.242z
	 M26.584,22.534c0,0.12-0.035,0.238-0.1,0.34h0.1v-0.048C26.688,22.7,26.691,22.634,26.584,22.534L26.584,22.534z M26.829,22.634
	l-0.101,0.195h0.101c0.081-0.048,0.15-0.114,0.2-0.195H26.829z M26.29,22.926c-0.206,0.279-0.714,0.342-0.881,0.633h0.049
	c0.341-0.17,0.668-0.365,0.979-0.584h-0.049c-0.025-0.027-0.061-0.045-0.098-0.052L26.29,22.926z M8.762,23.072
	c-0.094,0.139-0.232,0.242-0.392,0.292c0.033,0.11,0.049,0.225,0.049,0.34c-0.087,0.255-0.202,0.499-0.343,0.729h1.03v-0.052
	c-0.506-0.396-0.142-0.965-0.342-1.313L8.762,23.072z M12.336,23.314c-0.133,0.023-0.264,0.057-0.392,0.101
	c-0.008,0.36-0.109,0.712-0.294,1.021h1.08v-0.054c-0.167-0.196-0.285-0.43-0.343-0.681l0.049-0.535h-0.1v0.146V23.314z
	 M5.09,23.364c0.081,0.054,0.052,0.086,0.1,0H5.09z M18.7,23.409c-0.167,0.331-0.314,0.673-0.441,1.021h1.031v-0.1
	c-0.171-0.266-0.288-0.563-0.343-0.875C18.871,23.415,18.785,23.399,18.7,23.409z M22.176,23.458
	c-0.004,0.353-0.125,0.695-0.343,0.974h0.685v-0.101c-0.17-0.266-0.285-0.563-0.338-0.873H22.176z M15.469,24.042
	c-0.048,0.138-0.115,0.269-0.2,0.39h0.441v-0.05c-0.092-0.098-0.142-0.241-0.239-0.341L15.469,24.042z"/>
</svg>
