<svg xmlns="http://www.w3.org/2000/svg" width="40" height="40" viewBox="0 0 40 40">
  <defs>
    <style>
      .cls-1 {
        fill: #fff;
        fill-rule: evenodd;
      }
    </style>
  </defs>
  <path id="Color_Fill_1" data-name="Color Fill 1" class="cls-1" d="M15.075,7a0.142,0.142,0,0,1,0,.2V7Zm0.1,11.961a2.758,2.758,0,0,0,.547-0.1,1.738,1.738,0,0,1,.149.588,0.609,0.609,0,0,1-.5.147l0.05,0.343h0.2a0.7,0.7,0,0,1,.05-0.245,5.188,5.188,0,0,0,1.045.1c0.041,0.159-.024.075,0.1,0.147v-0.1h0.1l0.05,0.1,1,0.049a21.68,21.68,0,0,0,3.234-.049c-0.02.144-.081,0.061,0.05,0.147a0.235,0.235,0,0,1,.05-0.147V19.99a0.223,0.223,0,0,1,0,.245,5.059,5.059,0,0,0-1.244-.049c0.02,0.111.046,0.053,0,.147-0.454.272-1.421-.082-1.99,0.049a14.117,14.117,0,0,1-1.492.343v0.441h-0.7V20.873h-0.05a0.48,0.48,0,0,0-.2.49,0.243,0.243,0,0,0-.149.049,0.575,0.575,0,0,1,0,.49,0.436,0.436,0,0,1-.249.049V22.2c0.284,0,.249.043,0.6,0.049V22.1a0.461,0.461,0,0,1-.348,0h0.1a2.533,2.533,0,0,1,1.642-.294c0,0.3.009,0.341,0,.588a14.911,14.911,0,0,1,1.791.245c0.165,0.019.411-.144,0.7-0.147-0.045-.233-0.223-0.368-0.249-0.588a3.346,3.346,0,0,1,.1-0.392,1.044,1.044,0,0,1,1.194-.343,9.559,9.559,0,0,0,0,1.471c-0.187.007-.175-0.023-0.249,0.1l0.1,0.049a1.547,1.547,0,0,1,.4,0,0.827,0.827,0,0,1,.149.2,9.993,9.993,0,0,0,1.443.049,4.282,4.282,0,0,0-.149.588h0.1a5.9,5.9,0,0,0,1.99.147c1.2,0,2.634-.053,4.03-0.049a3.587,3.587,0,0,1,.547.1,31.854,31.854,0,0,1,3.582-.049,17.639,17.639,0,0,1,1.791,0,5.968,5.968,0,0,0,2.09,0h0.846c0.912,0,1.959.078,2.587,0.1v0.686a1.138,1.138,0,0,0-.448.1h-0.7a17.851,17.851,0,0,0-1.94.049,1.825,1.825,0,0,1-.547-0.147h-2.04a16.767,16.767,0,0,1-3.134.049l-4.378.049a18.715,18.715,0,0,0-3.483.049c-0.551.128-1.055-.023-1.244,0.441H22.04v0.049h1.343a1.108,1.108,0,0,1,.746-0.049,0.313,0.313,0,0,0,.05.2,0.671,0.671,0,0,1,.6-0.2,0.683,0.683,0,0,1,.05.2c-0.058.042-.145,0.1-0.2,0.147a0.419,0.419,0,0,1,.05.245,0.317,0.317,0,0,0,.149-0.049,0.877,0.877,0,0,0,.1-0.294,1.36,1.36,0,0,1,1-.147,0.18,0.18,0,0,0,.1.049,0.559,0.559,0,0,1,.1.343,0.937,0.937,0,0,0-.149.2c0.134-.012.69,0.408,0.746,0.343a0.323,0.323,0,0,1,.249-0.1,2.976,2.976,0,0,0,1.194.343A3.4,3.4,0,0,1,29.3,27.588a0.167,0.167,0,0,1-.05.1,1.461,1.461,0,0,0-.6.637c0.069,0.149-.02.11-0.05,0.245a1.85,1.85,0,0,1-1.194,1.52,13.416,13.416,0,0,1-2.836,1.765,14.485,14.485,0,0,1-3.085.049H7.91a6.476,6.476,0,0,1-1.592-.049,6.753,6.753,0,0,1-1.592-.931A19.661,19.661,0,0,1,2.687,29.7c-0.12-.1-0.172-0.3-0.3-0.392a1.675,1.675,0,0,1-.448-0.343c-0.068-.108-0.035-0.339-0.1-0.441a0.791,0.791,0,0,1-.4-0.049,0.256,0.256,0,0,1-.149.245V28.667a0.275,0.275,0,0,0,.05-0.245,1.321,1.321,0,0,0-.3-0.147A1.094,1.094,0,0,1,.8,27a0.488,0.488,0,0,1,.4-0.343V26.608A1.506,1.506,0,0,1,0,25.971a0.566,0.566,0,0,0,.1-0.147c0.841,0.4,1.07-.151,1.791-0.245,0.064,0.121-.021.033,0.1,0.1a0.168,0.168,0,0,1,.05-0.1v-0.1a0.172,0.172,0,0,1-.1-0.049H2.09a0.194,0.194,0,0,0,.1.2V25.578l-0.05-.049h0.1c0.019,0.016.279-.058,0.4-0.049V25.333c0.355-.011,1.99,0,1.99,0a0.242,0.242,0,0,1-.149-0.049c0.154-.06.112-0.018,0.149-0.2h2.04a1.67,1.67,0,0,0,.945.1V25.137a0.336,0.336,0,0,1-.3,0H7.463V24.745H7.313V23.029l0.149-.049a1.9,1.9,0,0,0,0-.392h0.3V22.294h0.1c0.005,0.345.149,0.318,0.5,0.294a0.552,0.552,0,0,1,.3,0,0.406,0.406,0,0,1,.05-0.245,0.405,0.405,0,0,0,.05.245c-0.013-.354-0.01-0.309.4-0.294a0.886,0.886,0,0,1,.05.294,5.77,5.77,0,0,1,.7,0c0.063-.35.128-0.108,0.05-0.441a1.009,1.009,0,0,0,.4-0.2c-0.223,0-.274,0-0.348-0.147a0.794,0.794,0,0,0,0-.539,0.932,0.932,0,0,0,.249-0.049,0.339,0.339,0,0,0,.2.049,0.668,0.668,0,0,1,.2.539,0.215,0.215,0,0,0-.149.147,3.265,3.265,0,0,0,1.194-.049,0.658,0.658,0,0,0-.05-0.2,0.285,0.285,0,0,0,.2-0.245,2.9,2.9,0,0,0,.3.1,6.488,6.488,0,0,0,1.095-.392,2.086,2.086,0,0,0,.5.1c0.15-.033.172-0.151,0.348-0.2a1.84,1.84,0,0,1,.3.245c-0.125.072-.091,0.062-0.1,0.245a1.645,1.645,0,0,0,.4.147,0.29,0.29,0,0,0,.249-0.343,0.832,0.832,0,0,1-.1-0.294,0.708,0.708,0,0,1-.6-0.588h0.1c0.077,0.188.234,0.161,0.5,0.147a1.262,1.262,0,0,0,.1-0.245,0.269,0.269,0,0,1-.249-0.1c-0.117.122-.047,0.1-0.3,0.1V19.941a0.96,0.96,0,0,1,.348.147c0-.2-0.081-0.117.05-0.2a0.288,0.288,0,0,0,.3.1c-0.049-.768,0-1.917,0-2.941V8.275a2.607,2.607,0,0,1,.05-0.98C15.122,11.175,15.172,15.159,15.174,18.961ZM20.3,19.794a0.693,0.693,0,0,1,.05-0.245H20.4a0.693,0.693,0,0,0,.05.245H20.3Zm-5.522.049a0.325,0.325,0,0,1,.2.049A0.325,0.325,0,0,1,14.776,19.843Zm1.194,0a0.266,0.266,0,0,0,.3,0h-0.3Zm0.547,0.049v0.1C16.6,19.932,16.578,19.97,16.517,19.892Zm-0.846.392v0.147h0.2v-0.1h-0.05V20.284H15.672Zm0.9,0.1a0.267,0.267,0,0,0,.3,0h-0.3Zm0.846,0a0.181,0.181,0,0,0,.1.049A0.18,0.18,0,0,0,17.413,20.382Zm-1.692.294c0.1,0.118.047,0.01,0.149,0.049C15.9,20.637,15.77,20.686,15.721,20.677Zm-3.831.833a0.181,0.181,0,0,0,.1.049A0.18,0.18,0,0,0,11.891,21.51ZM14.826,22a0.235,0.235,0,0,0,.05.147V22.2h0.149V22h-0.2Zm-5.97.343v0.245H9.1V22.343H8.856ZM10,22.49v0.1h0.05V22.539H10.1A0.18,0.18,0,0,0,10,22.49Zm11.94,0.686v0.147a0.8,0.8,0,0,0,.4.049,0.57,0.57,0,0,0,.1-0.245H22.289a1.018,1.018,0,0,1-.6,0v0.049h0.05v0.049A0.709,0.709,0,0,1,21.94,23.177Zm-14.577,0v0.1h0.05v-0.1H7.363Zm0.05,0.2a1.585,1.585,0,0,0,.05.686A1.586,1.586,0,0,0,7.413,23.373Zm-0.05,1.079a0.313,0.313,0,0,0,.05.2A0.313,0.313,0,0,0,7.363,24.451Zm0.3,0.686a0.5,0.5,0,0,0,.05.2,1,1,0,0,1,.3-0.2H7.662Zm0.547,0a1.02,1.02,0,0,0,.7,0h-0.7Zm0.846,0c0.086,0.043.064,0.044,0.149,0H9.055ZM25.97,25.48v0.2h-0.3v0.1a0.171,0.171,0,0,1,.1.049,0.171,0.171,0,0,0,.1-0.049,0.458,0.458,0,0,0,.2-0.343,0.77,0.77,0,0,0-.448-0.1,5.1,5.1,0,0,1-.547,0,0.737,0.737,0,0,0-.1.2h0.05A1.113,1.113,0,0,1,25.97,25.48Zm-1.841-.049v0.1h0.05v-0.1h-0.05Zm1.343,0.245v0.1h0.149v-0.1H25.473Zm0.149,0.392c-0.041-.159.024-0.075-0.1-0.147v0.1h-0.05v0.049h0.149Zm0.149-.1c0.014,0.128,0,.1.249,0.1v-0.1H25.771Zm1.045,0.147a0.181,0.181,0,0,0,.1.049A0.18,0.18,0,0,0,26.816,26.118ZM1.891,27l0.05,0.147H1.99A0.186,0.186,0,0,0,1.891,27Zm-1,.049a2.484,2.484,0,0,0,.05.931,0.714,0.714,0,0,0,.448.2l0.448-.392a0.18,0.18,0,0,0-.1-0.049V27.686H1.692v0.049h0.05c0.1,0.038-.1.049-0.1,0.049A1.17,1.17,0,0,1,1,27.441C0.945,27.361.947,27.128,0.9,27.049Zm1.294,0.833a0.511,0.511,0,0,1-.05.294V27.931a1.317,1.317,0,0,0-.547.147v0.049H1.94a0.214,0.214,0,0,0,.249.049,1.532,1.532,0,0,0,.149-0.294H2.189Zm2.886,1.863A2.08,2.08,0,0,0,4.428,29.7v0.049h0.05a1.965,1.965,0,0,0,.647.343v-0.1A0.419,0.419,0,0,1,5.075,29.745Zm15.622,0a1.936,1.936,0,0,1-.547,1.372h2.139V31.069a1.389,1.389,0,0,1-.547-1.323H20.7Zm5.124,0v0.294h0.05a1.177,1.177,0,0,1,.5-0.245V29.745H25.821Zm-16.766.686a5.081,5.081,0,0,1-.4.686H9.5v-0.1A3.255,3.255,0,0,1,9.055,30.431Zm3.881,0.1a4.169,4.169,0,0,1-.4.588h0.8V31.069A4.5,4.5,0,0,1,12.935,30.529Zm3.781,0a1.912,1.912,0,0,1-.348.588h0.8V31.069C16.958,30.929,16.905,30.679,16.716,30.529Z" transform="translate(0 0.516)"/>
</svg>
