<?xml version="1.0" encoding="utf-8"?>
<!-- Generator: Adobe Illustrator 16.0.0, SVG Export Plug-In . SVG Version: 6.00 Build 0)  -->
<!DOCTYPE svg PUBLIC "-//W3C//DTD SVG 1.1//EN" "http://www.w3.org/Graphics/SVG/1.1/DTD/svg11.dtd">
<svg version="1.1" id="Layer_1" xmlns="http://www.w3.org/2000/svg" xmlns:xlink="http://www.w3.org/1999/xlink" x="0px" y="0px"
	 width="39.969px" height="40px" viewBox="0 0 39.969 40" enable-background="new 0 0 39.969 40" xml:space="preserve">
<path id="sw_veak_40_ico" fill="#FFFFFF" d="M22.828,11.122c0.186,0.022,0.163,0.065,0.365,0.081l2.523,5.131l3.133,0.041h2.891
	c0.861,0.125,1.738,0.125,2.6,0c0.381-0.006,0.763,0.021,1.139,0.081c0.477-0.068,0.983-0.285,1.506-0.326v1.06h-0.036
	c-0.601-0.399-2.37-0.284-3.418-0.284l-8.017,0.041c-0.19,0.811-0.421,1.612-0.691,2.399H22.95c0.034,0.133-0.021,0.063,0.081,0.122
	c0.3-0.155,1.839,0.093,2.318,0c0.393-0.036,0.788-0.036,1.181,0c0.495,0.027,0.852-0.06,1.262-0.041
	c0.487,0.032,0.978,0.032,1.465,0c0.515-0.067,1.08,0.105,1.628,0c0.005-0.056,0.019-0.111,0.041-0.163
	c0.4,0.102,0.794,0.225,1.18,0.367c0.658,0.2,1.371,0.2,1.914,0.407v0.041h-0.082c-0.035-0.026-0.078-0.04-0.123-0.041v0.61h0.449
	V20.2h0.08c0.069-0.038,0.475,0.143,0.692,0.163c0.019-0.501,0.188-0.984,0.487-1.385h1.466v0.041
	c-0.126,0.325-0.14,0.683-0.041,1.018h-0.122c-0.053,0.238-0.182,0.452-0.366,0.611c0.769,0.006,1.319,0.399,2.075,0.447
	c0.033,0.133-0.02,0.063,0.081,0.122c0.198,0.018,0.392,0.073,0.569,0.163c0.255-0.017,0.509,0.04,0.732,0.163v0.696
	c0.058,0.582,0.058,1.168,0,1.751c-0.289,0.175-0.611,0.333-0.936,0.489c0.004,0.031,0.018,0.06,0.041,0.082
	c0.103,0.043,0.178,0.134,0.199,0.244h-0.037v0.041c-0.123-0.018-0.249-0.004-0.365,0.04h0.041c0.113,0.063,0.199,0.164,0.244,0.285
	c-0.264-0.01-0.383,0.013-0.448,0.2c0.096,0.064,0.156,0.17,0.163,0.285c-0.064,0.023-0.132,0.038-0.2,0.041
	c-0.068-0.063-0.153-0.105-0.244-0.122v0.043c0.076,0.092,0.119,0.206,0.122,0.326h-0.044v0.041
	c-0.101-0.089-0.238-0.119-0.366-0.081c-0.031,0.1-0.015,0.271-0.041,0.326c-0.025,0.045-0.07,0.075-0.122,0.08
	c-0.042-0.127-0.151-0.222-0.284-0.244c-0.031,0.005-0.061,0.02-0.082,0.041c0.063,0.098,0.091,0.212,0.082,0.326h-0.123
	c-0.051-0.129-0.19-0.199-0.324-0.162c-0.031,0.162-0.03,0.209-0.2,0.244l-0.081-0.164h-0.045V26.6
	c0.021,0.022,0.036,0.051,0.041,0.082h-0.123c-0.197-0.182-0.471-0.256-0.732-0.201v0.041c0.074,0.123,0.103,0.267,0.081,0.407
	h-0.081c-0.051-0.132-0.184-0.214-0.324-0.2c-0.139,0.017-0.274,0.044-0.408,0.082c0.074,0.091,0.104,0.21,0.082,0.325h-0.041v0.041
	c-0.108-0.135-0.275-0.21-0.448-0.2c-0.112,0.01-0.222,0.037-0.325,0.082c0.058,0.098,0.086,0.211,0.081,0.325h-0.122
	c-0.18-0.186-0.459-0.234-0.691-0.122c0.026,0.086,0.052,0.282,0.08,0.367h-0.121c-0.18-0.186-0.459-0.234-0.691-0.122
	c0.032,0.14,0.093,0.284-0.041,0.366c-0.168-0.203-0.451-0.27-0.691-0.163c0.033,0.134,0.033,0.273,0,0.407
	c-0.099-0.126-0.248-0.199-0.408-0.2c-0.125,0.011-0.248,0.038-0.365,0.081c0.09,0.086,0.094,0.229,0.008,0.318
	c-0.003,0.002-0.006,0.005-0.008,0.008c-0.01,0.017-0.024,0.031-0.041,0.041c-0.047-0.213-0.186-0.217-0.448-0.2
	c-0.083-0.009-0.168,0.005-0.244,0.041c0.07,0.112,0.07,0.255,0,0.367c-0.01,0.017-0.024,0.03-0.041,0.041
	c-0.063-0.2-0.176-0.216-0.448-0.2c-0.083-0.023-0.172-0.008-0.244,0.041c0.033,0.119,0.047,0.242,0.041,0.366h-0.08
	c-0.213-0.213-0.525-0.29-0.813-0.2c0.071,0.112,0.038,0.262-0.073,0.332c-0.027,0.018-0.059,0.029-0.09,0.035v-0.151
	c-0.06-0.051-0.127-0.093-0.199-0.122c-0.16-0.094-0.345-0.137-0.529-0.122c0.071,0.112,0.038,0.262-0.074,0.333
	c-0.027,0.018-0.058,0.029-0.089,0.034l-0.041-0.2h-0.043v-0.045c-0.2-0.054-0.404-0.094-0.61-0.122l-0.041,0.367h-0.122
	c-0.13-0.276-0.433-0.429-0.733-0.367v0.041c0.027,0.11,0.014,0.227-0.041,0.326H26.49v-0.123c-0.061-0.051-0.127-0.093-0.2-0.122
	c-0.159-0.094-0.345-0.137-0.529-0.122c0.071,0.112,0.038,0.262-0.073,0.333c-0.027,0.018-0.058,0.029-0.09,0.034l-0.041-0.2h-0.043
	v-0.045c-0.201-0.039-0.404-0.066-0.609-0.081l-0.041,0.326h-0.122c-0.118-0.265-0.413-0.404-0.692-0.326
	c-0.018,0.11-0.045,0.22-0.081,0.326h-0.123v-0.123l-0.122-0.081c-0.172-0.101-0.371-0.143-0.57-0.122
	c-0.011,0.112-0.038,0.222-0.08,0.326H22.95l-0.041-0.2c-0.208-0.081-0.429-0.123-0.651-0.122l-0.041,0.326H22.1v-0.127
	c-0.076-0.074-0.178-0.118-0.285-0.122c-0.123-0.068-0.266-0.097-0.406-0.081c-0.012,0.112-0.039,0.222-0.081,0.326H21.2v-0.123
	l-0.122-0.081c-0.172-0.101-0.372-0.143-0.57-0.122c0.009,0.103-0.021,0.203-0.081,0.285v0.041h-0.122l-0.041-0.2
	c-0.208-0.081-0.428-0.123-0.651-0.122l-0.041,0.326h-0.121v-0.127c-0.077-0.074-0.178-0.118-0.285-0.122
	c-0.124-0.068-0.266-0.097-0.407-0.081c-0.011,0.112-0.039,0.222-0.081,0.326h-0.123v-0.123c-0.077-0.074-0.178-0.118-0.285-0.122
	c-0.122-0.074-0.266-0.103-0.407-0.081l-0.041,0.326c-0.044,0-0.087-0.015-0.122-0.041c-0.051-0.132-0.185-0.214-0.326-0.2
	c-0.122-0.073-0.266-0.102-0.407-0.081v0.041c0.015,0.097,0,0.196-0.041,0.285h-0.12v-0.127c-0.077-0.074-0.178-0.118-0.285-0.122
	c-0.124-0.068-0.266-0.097-0.407-0.081c-0.012,0.112-0.039,0.222-0.081,0.326h-0.122v-0.123c-0.077-0.074-0.178-0.118-0.285-0.122
	c-0.122-0.074-0.266-0.103-0.407-0.081L15.178,29h-0.122v-0.122c-0.055-0.042-0.097-0.099-0.122-0.163
	c-0.252-0.01-0.337-0.074-0.61-0.081v0.041c0.015,0.11,0,0.223-0.041,0.326h-0.122v-0.164c-0.088-0.082-0.205-0.126-0.325-0.122
	c-0.108-0.07-0.238-0.099-0.366-0.081L13.388,29h-0.122v-0.163c-0.077-0.074-0.178-0.118-0.285-0.122
	c-0.122-0.074-0.266-0.103-0.407-0.081L12.533,29h-0.122v-0.122c-0.055-0.042-0.097-0.099-0.122-0.163
	c-0.252-0.01-0.337-0.074-0.61-0.081v0.041c0.015,0.11,0,0.223-0.041,0.326h-0.122v-0.164c-0.088-0.083-0.206-0.126-0.326-0.122
	c-0.108-0.07-0.238-0.099-0.366-0.081L10.743,29h-0.122v-0.163c-0.088-0.082-0.205-0.126-0.325-0.122
	c-0.106-0.077-0.234-0.119-0.366-0.122v0.2c-0.052,0.061-0.122,0.104-0.2,0.122l-0.041-0.2c-0.188-0.136-0.393-0.246-0.61-0.326
	c0.015,0.142-0.067,0.275-0.2,0.326v-0.041c-0.042-0.09-0.069-0.186-0.081-0.285c-0.2-0.08-0.394-0.176-0.578-0.289
	c0.021,0.157-0.087,0.302-0.244,0.326c-0.001-0.109-0.015-0.219-0.041-0.326c-0.223-0.058-0.3-0.185-0.529-0.244
	c-0.022,0.131-0.094,0.248-0.2,0.326c-0.022-0.021-0.05-0.036-0.081-0.041c0.019-0.094,0.019-0.19,0-0.285
	c-0.195-0.083-0.386-0.178-0.57-0.284c0.024,0.155-0.083,0.301-0.238,0.325c-0.002,0-0.004,0-0.006,0
	c0-0.109-0.015-0.219-0.041-0.325c-0.17-0.095-0.347-0.177-0.529-0.244c-0.024,0.146-0.139,0.261-0.285,0.285
	c-0.001-0.11-0.015-0.22-0.041-0.326c-0.223-0.058-0.3-0.185-0.529-0.244c-0.022,0.13-0.094,0.247-0.2,0.326
	C4.662,27.346,4.632,27.333,4.6,27.33c0.009-0.095,0.009-0.19,0-0.285c-0.198-0.079-0.388-0.174-0.57-0.285
	c0.013,0.155-0.092,0.295-0.244,0.326v-0.041c-0.01-0.025-0.023-0.188-0.041-0.285c-0.226-0.059-0.288-0.186-0.529-0.244
	c-0.024,0.146-0.139,0.262-0.285,0.285v-0.244c-0.167-0.145-0.361-0.255-0.57-0.326c-0.022,0.131-0.094,0.248-0.2,0.326
	c-0.022-0.021-0.05-0.036-0.081-0.041c0.01-0.094,0.01-0.189,0-0.285c-0.17-0.094-0.347-0.176-0.529-0.243
	c-0.045,0.134-0.151,0.239-0.285,0.284V26.23c0.002-0.096-0.012-0.192-0.041-0.284c-0.084-0.152-0.3-0.291-0.407-0.448
	c-0.075,0.104-0.197,0.165-0.326,0.163c-0.037-0.084,0.025-0.292,0-0.448C0.245,25.092,0.065,24.867,0,24.6
	c0.25-0.16,0.403-0.436,0.407-0.732c-0.155-0.037-0.27-0.168-0.285-0.326c0.083,0.011,0.168-0.004,0.244-0.041
	c0.164-0.068,0.305-0.182,0.407-0.326C0.759,23.162,0.484,22.007,0.488,22c0.059-0.1-0.009-0.046,0.122-0.081v-0.86h0.407
	l0.041-1.588c0.064-0.023,0.131-0.038,0.2-0.041c0.488,0.061,0.981,0.047,1.465-0.041c1.362,0,2.48,0.008,3.825,0
	c0.098-0.883,0.057-1.776-0.122-2.646c0.075-0.43,0.102-0.865,0.081-1.301H6.429c-0.047-0.138,0.067-0.127,0.081-0.162v-0.817
	c0.008-0.114-0.021-0.229-0.081-0.326c0.007-0.139,0.034-0.276,0.081-0.407c0-0.354-0.027-0.708-0.081-1.059
	c0.188-0.053,0.212-0.116,0.2-0.366c-0.063-0.239-0.076-0.488-0.041-0.732l0.448-0.041v-0.163c0.105-0.031,0.216-0.045,0.326-0.041
	v-0.285C6.861,11.078,6.358,11.064,5.86,11c-0.214-0.214-0.319-0.514-0.285-0.814c0.144-0.175,0.266-0.367,0.366-0.57
	c0.247-0.354,0.579-0.7,0.814-1.059c0.128-0.194,0.197-0.42,0.2-0.652C7.241,7.32,7.522,6.675,7.81,6.072
	C7.66,6.094,7.506,6.08,7.362,6.031C7.295,5.765,7.281,5.488,7.321,5.216c0.297-0.054,0.6-0.068,0.9-0.041
	C8.284,5.004,8.366,4.84,8.465,4.686L8.424,4.564c0.051-0.056,0.125-0.085,0.2-0.081C8.806,4.772,9.057,5.01,9.356,5.175
	c0.136-0.122,0.259-0.258,0.366-0.407c0.19-0.3,0.154-1.046,0.326-1.385c0.079-0.155,0.515-0.529,0.57-0.652v-9.65h0.041v9.611H10.7
	c0.043-0.086,0.113-0.157,0.2-0.2v2.973c0.421,0.011,0.842-0.003,1.261-0.041v0.244C11.74,5.652,11.319,5.666,10.9,5.709V8.8h-0.076
	c-0.026-0.159-0.028-0.156-0.163-0.2v0.774c0.07,0.404,0.111,0.813,0.122,1.222c-0.055,0.07-0.083,0.156-0.081,0.244h0.081
	c0.016,0.081,0.016,0.164,0,0.244c0.992,0.19,2.007,0.232,3.011,0.122c-0.022-0.185,0.021-0.372,0.122-0.529l0.122-0.041L14,10.145
	c0.079-0.027,0.161-0.041,0.244-0.041c0.395,0.108,0.815,0.064,1.18-0.122l0.529,0.041c0.25,0.064,0.516,0.02,0.732-0.122h-0.368
	V9.167c-0.033-0.021-0.061-0.048-0.081-0.081H16.2c-0.035,0.209,0.008,0.208-0.285,0.2C15.912,9.172,15.94,9.06,15.996,8.96h-0.248
	c-0.132,0.2-0.27,0.138-0.488,0.081c-0.069-0.227-0.123-0.458-0.163-0.692c0.233-0.021,0.465-0.063,0.692-0.122
	c0.015-0.156,0.086-0.3,0.2-0.407v0.122l0.407-0.041v0.122l1.1-0.041c0.047-0.049,0.088-0.104,0.122-0.163
	c0.283-0.044,0.568-0.071,0.855-0.081c0.031,0.105,0.045,0.216,0.041,0.326c0.114-0.081,0.236-0.148,0.366-0.2
	c0.026,0.035,0.041,0.078,0.041,0.122c-0.033,0.037-0.061,0.078-0.081,0.122c0.757,0.052,1.661,0.04,2.482,0.041l0.041-0.285h0.08
	v0.163c0.027,0.036,0.041,0.078,0.041,0.122L22.1,8.19v0.122h-1.632v0.081c0.238,0,0.263-0.041,0.285,0.163
	c-0.425,0-0.557,0-0.977,0V8.6c0.052,0.171,0.066,0.352,0.041,0.529h-1.1V8.964h-0.08c-0.076,0.037-0.161,0.051-0.244,0.041
	c-0.03,0.299-0.043,0.6-0.041,0.9h-0.2v0.122c0.245,0.024,0.555,0,0.9,0V11h0.041c0.036-0.026,0.078-0.041,0.122-0.041v-0.692h0.651
	c0,0.381,0.066,0.638,0.081,0.937h1.139c0.075-0.307,0.103-0.623,0.081-0.937c0.118-0.143,0.201-0.31,0.244-0.489
	c0.066-0.007,0.134-0.007,0.2,0c0.192,0.151,0.396,0.287,0.609,0.407c0.141-1.291,0.081-3.1,0.081-4.643V-5.7
	C22.237-6.132,22.25-6.572,22.34-7v0.367c0.115,0.226,0.145,0.487,0.081,0.733V6.805c0.079,0.361,0.093,0.734,0.041,1.1
	c0,1.094-0.207,2.64,0.407,3.054C22.848,11.011,22.834,11.066,22.828,11.122z"/>
</svg>
