<?xml version="1.0" encoding="utf-8"?>
<!-- Generator: Adobe Illustrator 16.0.0, SVG Export Plug-In . SVG Version: 6.00 Build 0)  -->
<!DOCTYPE svg PUBLIC "-//W3C//DTD SVG 1.1//EN" "http://www.w3.org/Graphics/SVG/1.1/DTD/svg11.dtd">
<svg version="1.1" id="Layer_1" xmlns="http://www.w3.org/2000/svg" xmlns:xlink="http://www.w3.org/1999/xlink" x="0px" y="0px"
	 width="40px" height="40px" viewBox="0 0 40 40" enable-background="new 0 0 40 40" xml:space="preserve">
<path id="Color_Fill_1" fill="#FFFFFF" d="M17.772,8.031c0.715,0,1,0.145,1.652,0.147c-0.045,0.366,0.085,0.732,0.35,0.988
	c0.905,0.191,1.833,0.242,2.753,0.148c0.024,0.393,0.141,0.607,0.149,1.037h0.4l0.05-0.247h0.1c0.351,0.174,0.72,0.306,1.101,0.395
	c0.024,0.147,0.024,0.298,0,0.445h0.651c0.317-0.129,0.656-0.197,1-0.2l0.149,0.2h0.399c0.078,0.032,0.18,0.217,0.25,0.247h0.601
	c1.407,0,2.972,0.049,4.456,0.049h1.8c0.21-0.068,0.431-0.102,0.651-0.1v0.741c-0.403-0.016-0.805-0.066-1.2-0.148
	c-0.392-0.054-1.117,0.049-1.601,0.049c-1.5,0-3.027,0.05-4.455,0.049v0.199h-0.1c-0.045,0.031-0.097,0.048-0.15,0.049
	c0.004,0.199-0.012,0.397-0.051,0.593c-0.39,0.068-0.647,0.409-1.051,0.494c-0.418-0.207-0.891-0.277-1.352-0.2v0.938l-0.951,0.049
	l0.05,0.494h1.452c0.237,0.077,0.438,0.308,0.7,0.4c0.179-0.227,0.465-0.341,0.751-0.3v0.049h0.05
	c0.011,0.375,0.095,0.744,0.25,1.086h0.149v0.148c0.686,0.259,0.464,1.2,1.201,1.432v0.049h0.049
	c0.032-0.363,0.016-0.728-0.049-1.086h0.299c-0.023-0.046-0.023-0.102,0-0.148c0.066,0.075,0.153,0.127,0.25,0.148
	c0.041-0.142,0.009-0.253,0.051-0.4h0.05c-0.007,0.2-0.026,0.27,0.101,0.346c0.049,0.012,0.019,0.039,0.049,0
	c0.051-0.067,0.121-0.119,0.201-0.148c0,0.2-0.084,0.188,0.199,0.2c0.228,0.065,0.466,0.082,0.7,0.049
	c-0.021-0.145-0.082-0.062,0.05-0.148c0.079,0.135,0.045,0.124,0.25,0.148c0.006-0.13,0.059-0.253,0.15-0.346
	c0,0.193-0.025,0.222,0.1,0.3c0.106-0.036,0.207-0.085,0.301-0.148v0.052c-0.041,0.044-0.075,0.094-0.101,0.148
	c0.115,0.024,0.232,0.041,0.351,0.049c0.033-0.007,0.166-0.141,0.199-0.148c0.045-0.054,0.051,0.049,0.051,0.049
	c0.05,0.211,0.084,0.426,0.1,0.642h-0.25c-0.055-0.054-0.125-0.089-0.2-0.1c-0.011,0.106-0.046,0.208-0.101,0.3
	c-0.08-0.028-0.149-0.08-0.199-0.148v0.2l0.852-0.049l0.049,0.741c1.073,0.036,2.146-0.047,3.201-0.247
	c0.455,0.025,0.912-0.025,1.352-0.148c-0.264-0.053-0.533-0.069-0.801-0.049c-0.514-0.068-1.033-0.085-1.551-0.049l0.299,0.049v0.1
	H33.18l-0.051-0.1h0.051v-0.056c0.102,0.013,0.206-0.004,0.299-0.049c-0.123-0.064-0.033,0.021-0.1-0.1l3.454,0.1
	c0.003-0.117,0.02-0.233,0.05-0.346l0.2-0.049v0.2c-0.056,0.029-0.093,0.085-0.101,0.147c0.18,0.021,0.127-0.022,0.201,0.1h-0.051
	c-0.05,0.05,0.049,0.049,0.051,0.049c0.621,0.232,1.256,0.43,1.899,0.593c-0.012,0.462,0.005,0.924,0.05,1.383l0.2,0.148
	c0.043,0.118,0.093,0.233,0.149,0.346h0.15c0.036,0.25,0.086,0.497,0.15,0.741l0.15,0.049c0.047,0.118-0.093,0.113-0.101,0.2
	c0,0.031,0.149,0.74,0.149,0.74l-0.149,0.05c-0.065,0.243-0.065,0.498,0,0.741c-0.21,0.122-0.369,0.314-0.451,0.543l0.05,0.199
	h-0.199c-0.189,0.174-0.328,0.396-0.4,0.643c-0.359-0.081-1.007,0.72-1.3,0.938c-0.968,0.717-1.837,1.508-2.8,2.223
	c-0.396,0.418-0.873,0.754-1.4,0.988c-0.828,0.113-1.668,0.13-2.5,0.049H8.711c-1.189-0.263-2.376-0.506-3.5-0.84
	C2.978,26.432,1.546,26.574,1,24.179c-0.107-0.457-0.09-0.935,0.05-1.383c0.197-0.415,0.431-0.812,0.7-1.185h-0.2
	c-0.417,0.146-0.858,0.213-1.3,0.199v-0.1c-0.027-0.045-0.243-1.279-0.25-1.38h0.05v-0.054c0.196,0.026,0.394-0.026,0.55-0.146
	c-0.167-0.32-0.127-0.708,0.1-0.988c0.127-0.123,0.358-0.082,0.5-0.199l-0.05-0.2c0.052-0.255,0.218-0.472,0.45-0.588
	c0.093-0.044,0.197-0.062,0.3-0.049c0.069,0.2,0.028,0.27,0.3,0.3c0.344-0.083,0.701-0.101,1.051-0.049L3.2,17.661H2.753v-0.3
	c0.264,0,0.448-0.017,0.6,0c0.103,0.144,0.156,0.317,0.15,0.494c-0.056,0.158-0.073,0.328-0.05,0.494l1.8-0.049
	c0.079,0.166,0.065,0.3,0.15,0.494h0.1c0.063-0.224,0.205-0.417,0.4-0.543v-0.1c-0.17-0.037-0.316-0.146-0.4-0.3h0.15
	c0.095,0.091,0.219,0.144,0.35,0.148v-0.141c0.458-0.125,0.909-0.274,1.352-0.445c-0.015-0.134,0.002-0.27,0.05-0.395
	c0.333-0.23,0.706-0.398,1.1-0.494v0.1H8.461c-0.349,0.142-0.67,0.343-0.951,0.593c0.074,0.054,0.16,0.089,0.25,0.1
	c0.486-0.348,2.195-0.536,2.4-0.889c0.094-0.136,0.1-0.367,0.2-0.494c0.06-0.037,0.13-0.054,0.2-0.049
	c0.107,0.126,0.208,0.258,0.3,0.396c0.212-0.145,0.45-0.246,0.7-0.3c0.037-0.803,0.171-1.599,0.4-2.37h-0.25
	c-0.281-0.08-0.581-0.063-0.851,0.049c-0.424-0.146-0.888-0.129-1.3,0.049c-0.063,0.034-0.123-0.139-0.15-0.148
	c-0.184-0.019-0.368-0.019-0.551,0c0-1.39,0.774-2.8,0.7-4.1c0.087-0.102,0.216-0.156,0.35-0.148c0.499-0.053,1.001-0.053,1.5,0
	c-0.005-0.069-0.022-0.137-0.05-0.2h0.1c0.168,0.175,0.414,0.25,0.651,0.2c0-0.054,0.017-0.106,0.05-0.148
	c0.1,0.163,0.355-0.018,0.5-0.049h0.1c0.044,0.041,0.079,0.092,0.1,0.148l0.45-0.049c0.662,0.097,1.332,0.13,2,0.1
	c0.417-0.03,0.835-0.03,1.252,0c0.539,0.1,0.8-0.21,1.2-0.1V8.031H17.772z M33.842,11.488c0.027,0.026,0.063,0.043,0.1,0.049
	C33.914,11.511,33.88,11.493,33.842,11.488z M10.413,15.931c-0.02,0.112-0.046,0.054,0,0.148v0.052
	c0.038-0.005,0.073-0.022,0.1-0.049c0.027-0.027,0.044-0.062,0.05-0.1L10.413,15.931z M3.354,17.561
	c-0.055,0.192-0.072,0.394-0.05,0.593H3.4C3.447,17.957,3.431,17.75,3.354,17.561L3.354,17.561z M3.304,18.203
	c0,0.054,0.017,0.105,0.05,0.148c-0.001-0.054-0.02-0.105-0.054-0.147L3.304,18.203z M1.852,18.845v0.3
	c0.1,0.049,0.173,0.14,0.2,0.248H2.1C2.077,19.188,1.99,18.998,1.852,18.845L1.852,18.845z M2.2,19.73v0.101h0.05V19.73H2.2z
	 M0.25,20.771c-0.005,0.203,0.029,0.404,0.1,0.594c0.086-0.014,0.161-0.069,0.2-0.148c0.084-0.152,0.135-0.321,0.15-0.494
	L0.25,20.771z M1.65,20.723c0.086,0.043,0.064,0.045,0.15,0H1.652H1.65z M0.8,20.771v0.101h0.05
	C0.845,20.834,0.828,20.799,0.8,20.771z M1.15,21.172c0.108,0.064,0.242,0.064,0.35,0H1.15L1.15,21.172z M2.15,23.839
	c0.006,0.427,0.209,0.825,0.55,1.081v-0.049c0.219-0.188,0.39-0.425,0.5-0.691c-0.029-0.006-0.6-0.3-0.6-0.3l0.05-0.247H2.6
	c-0.119,0.12-0.279,0.19-0.447,0.198L2.15,23.839z M36.3,23.932l-0.399-0.05l-0.25,0.3c-0.043-0.043-0.094-0.078-0.15-0.1
	c-0.121,0.205-0.294,0.375-0.5,0.494h-3.561v0.049c0.131,0.353,0.23,0.716,0.3,1.086h0.05v-0.05c0.536-0.522,1.184-1.04,2.053-0.396
	c0.199,0.277,0.367,0.576,0.5,0.89c0.39-0.364,0.809-0.694,1.252-0.988c0.467-0.345,0.85-0.819,1.352-1.136v-0.049H36.7
	c-0.059,0.16-0.163,0.299-0.3,0.399v-0.1C36.337,24.176,36.303,24.055,36.3,23.932z M5.662,24.331
	c-0.287-0.003-0.572-0.036-0.851-0.101v0.101c0.165,0.214,0.349,0.413,0.551,0.593v-0.053c0.167-0.133,0.273-0.328,0.295-0.54H5.662
	z M4.762,25.368v-0.152c-0.206-0.181-0.375-0.398-0.5-0.642H4.205v0.049c-0.069,0.083-0.154,0.151-0.25,0.2
	c-0.043-0.115-0.135-0.205-0.25-0.247v0.049c-0.208,0.188-0.363,0.426-0.451,0.691c0.474,0.219,1.016,0.236,1.502,0.048
	L4.762,25.368z M6.562,24.578c-0.231,0.895-0.918,1.135-1.552,1.63l2.553,0.593v-0.1c-0.172-0.376-0.114-0.818,0.15-1.137
	c0.406-0.598,1.22-0.754,1.818-0.348c0.185,0.126,0.334,0.297,0.435,0.496h0.05v-0.497c0.056-0.176,0.089-0.358,0.1-0.543H7.96
	c-0.218-0.233-0.419,0.035-0.651,0l-0.1-0.1c-0.216-0.032-0.435-0.031-0.651,0.001L6.562,24.578z M16.324,24.924v-0.152
	c0.054,0,0.106,0.018,0.15,0.05c0.056,0.1,0.03,0.089,0,0.2c0.234,0.08,0.454,0.196,0.651,0.346l0.451-0.049
	c0.062,0.011,0.21,0.078,0.3,0.1c0.027,0.121,0.099,0.229,0.2,0.3c0.339-0.664,1.153-0.928,1.817-0.589
	c0.028,0.015,0.056,0.029,0.083,0.046c0.576,0.446,0.726,1.253,0.35,1.877h1.1v-0.058c-0.393-0.615-0.213-1.432,0.402-1.824
	c0.252-0.162,0.552-0.232,0.85-0.201c0.344,0.067,0.659,0.24,0.9,0.494c0.035,0.104,0.106,0.19,0.199,0.247
	c-0.027-0.138,0.063-0.272,0.201-0.3c0.279-0.193,0.93-0.079,1.15-0.494c-0.035-0.076-0.006-0.007,0-0.148h0.15
	c0.056,0.143,0.009,0.092,0.15,0.148c0.24-0.098,0.475-0.213,0.699-0.346h-10.91v0.049c0.379,0.053,0.749,0.153,1.101,0.301
	L16.324,24.924z M26.186,24.578c0.057,0.052,0.145,0.052,0.2,0H26.186z M28.286,24.578c0.164,0.203,0.315,0.418,0.45,0.642h0.051
	v-0.2c-0.18-0.203-0.122-0.42-0.502-0.445L28.286,24.578z M13.017,24.678c-0.052,0.2-0.143,0.251-0.2,0.444h0.1
	c0.103-0.118,0.187-0.251,0.25-0.396h0.05v-0.054h-0.2V24.678z M11.465,25.172c-0.227,0.062-0.422,0.203-0.551,0.4
	c0.041,0.043,0.075,0.094,0.1,0.147c0.172-0.165,0.323-0.351,0.45-0.553L11.465,25.172z M30.439,25.32
	c0.076,0.152,0.17,0.244,0.25,0.399h0.05v-0.059c0.037-0.06,0.055-0.13,0.05-0.2c-0.123-0.034-0.24-0.083-0.352-0.146L30.439,25.32z
	 M14.669,25.369c0,0.054,0.017,0.105,0.05,0.148c0.025-0.041,0.06-0.076,0.1-0.101v-0.053h-0.15V25.369z M24.732,25.568
	c0.041,0.16-0.024,0.076,0.1,0.148v-0.1h0.05v-0.055h-0.149V25.568z M13.418,25.618c0.166,0.471,0.129,0.989-0.1,1.432h1.352v-0.1
	c-0.253-0.364-0.292-0.835-0.1-1.235c-0.387,0.021-0.776-0.014-1.153-0.104L13.418,25.618z M16.918,25.618v0.1h0.1v-0.1H16.918z
	 M28.332,25.618l-1.15,0.1v0.101c0.178,0.408,0.121,0.881-0.15,1.234h1.4v-0.059c-0.267-0.414-0.303-0.936-0.097-1.383
	L28.332,25.618z M9.962,26.747c-0.011,0.106-0.045,0.208-0.1,0.3h1.3v-0.053c-0.071-0.067-0.123-0.152-0.15-0.247
	C10.665,26.807,10.31,26.807,9.962,26.747z M16.971,26.747c-0.031,0.108-0.082,0.21-0.15,0.3h1.352v-0.053
	c-0.071-0.094-0.155-0.177-0.25-0.247C17.611,26.832,17.283,26.832,16.971,26.747z M23.73,26.747c-0.031,0.108-0.082,0.21-0.15,0.3
	h1.3v-0.1c-0.05-0.082-0.118-0.15-0.2-0.2C24.369,26.832,24.041,26.832,23.73,26.747z M30.739,26.747l-0.15,0.3h1.3v-0.053
	c-0.063-0.074-0.113-0.157-0.149-0.247C31.409,26.818,31.068,26.818,30.739,26.747L30.739,26.747z"/>
</svg>
