<svg xmlns="http://www.w3.org/2000/svg" width="39.906" height="40" viewBox="0 0 39.906 40">
  <defs>
    <style>
      .cls-1 {
        fill: #fff;
        fill-rule: evenodd;
      }
    </style>
  </defs>
  <path id="Color_Fill_1" data-name="Color Fill 1" class="cls-1" d="M21.385,18.006h1.8V17.612h0.1v0.394H24.35v0.2a3.423,3.423,0,0,0,1.264.1h2.722a2.3,2.3,0,0,0,.875.049h2.333a18.319,18.319,0,0,0,2.479.049h4.812a4.238,4.238,0,0,1,1.021-.1,1.64,1.64,0,0,1,.049.492h0.049c0.048,0.05-.048.049-0.049,0.049a1.047,1.047,0,0,1-.875.148c-0.359-.277-2.117-0.148-2.867-0.148l-5.444.049a13.594,13.594,0,0,0-2.916.1H25.322a5.31,5.31,0,0,0-.826,0c-0.133.078-.122,0.044-0.146,0.246H23.961a1.64,1.64,0,0,0-.049.492c-0.74,0-1.475,0-2.09,0v0.049a0.918,0.918,0,0,1,.194.64l-0.049.148-0.1-.049v0.049c-0.075.107-.13,0.248-0.194,0.345h0.194a7.587,7.587,0,0,1,2.138,0,1.018,1.018,0,0,1,.486,0v0.148h0.34c0.05-.1.1-0.226,0.146-0.345,0.546-.084,1.131-0.184,1.118.492a0.566,0.566,0,0,0-.194.443,1.9,1.9,0,0,1,1.069.2l0.049-.345,0.1,0.049V21.5l-0.049-.049h0.1V21.5a0.539,0.539,0,0,1,.049.3,3.583,3.583,0,0,1,1.944.492c0.345,0.241.475,0.741,0.826,0.985v0.049H29.939a1.138,1.138,0,0,1-.437.3,1.739,1.739,0,0,1,.1.3H29.5a0.325,0.325,0,0,0-.194-0.049c-0.473,1.621-1.666,2.1-2.867,2.954a6.108,6.108,0,0,1-1.458.985,17.209,17.209,0,0,1-3.791.1H6.075a11.388,11.388,0,0,1-2.819-1.329,2.661,2.661,0,0,0-1.069-.492V25.932A4.009,4.009,0,0,0,1.6,25.588V25.342c-0.725-.324-1.65-0.653-1.555-1.772a1.584,1.584,0,0,1,.146-0.788,3.407,3.407,0,0,1,.583-0.394,0.19,0.19,0,0,1-.1-0.148H0.729a0.338,0.338,0,0,0,.34.1v-0.1H1.021V22.191a0.226,0.226,0,0,1-.243,0c0.176-.024.177-0.013,0.243-0.148a1.342,1.342,0,0,1-.146-0.492,0.621,0.621,0,0,0,.243,0,3.776,3.776,0,0,1,.292-0.492c-0.158-.041-0.074.024-0.146-0.1H1.409c0.077,0.134.044,0.124,0.243,0.148,0.394-.473,1.429-0.011,2.041-0.1a1.584,1.584,0,0,0,.437-0.3l1.993-.1v0.3a0.88,0.88,0,0,0,.292.049,0.634,0.634,0,0,1,.68.049,3.515,3.515,0,0,1,2.187,0,1.75,1.75,0,0,0,.729-0.049,1.474,1.474,0,0,1,.243.1,7.479,7.479,0,0,0,.875,0v-0.2l-2.722-.049v-0.3a0.568,0.568,0,0,1-.243-0.246,20.853,20.853,0,0,1-2.722.246,0.321,0.321,0,0,0-.049-0.2c-0.065.113-.059,0.09-0.1,0.1a4.034,4.034,0,0,1-.049-0.64H5.395a10.352,10.352,0,0,1,.826-3.1,5.412,5.412,0,0,0,1.215.049,1.1,1.1,0,0,1,1.069-1.182,1.808,1.808,0,0,1,.632.443,1.064,1.064,0,0,1,.1.64,0.525,0.525,0,0,0,.292-0.049,5.591,5.591,0,0,0,.535-0.345c0.232-.27-0.005-0.623.437-0.788a2.409,2.409,0,0,1,.923-0.049,8.862,8.862,0,0,1,2.625.1,0.886,0.886,0,0,0,.146.2v0.246h0.243v0.049h0.049c0,0.143-.047.068,0,0.148,0.121-.012.395,0.045,0.68,0.049l-0.049-.443a0.448,0.448,0,0,1,.243-0.148,3.791,3.791,0,0,1,.438,0V15.5c0.329-.546-0.233-2.953.1-3.5a33.81,33.81,0,0,0,.049,3.692c0.428,0.1.762,0.351,1.215,0.492h1.166a7.046,7.046,0,0,1,1.8.2v-0.1a0.678,0.678,0,0,1-.486-0.345h0.049V15.889a2.015,2.015,0,0,1,.583.394,0.727,0.727,0,0,1,.194-0.1c0,0.143-.047.068,0,0.148a2.418,2.418,0,0,0,.583.3v0.1H20.9a1.248,1.248,0,0,0-.486-0.2v0.049h0.049c0.269,0.277,1.089.7,1.118,1.132H21.531c-0.059-.153-0.018-0.111-0.194-0.148a0.7,0.7,0,0,0-.049.2A0.335,0.335,0,0,1,21.385,18.006Zm-11.13-1.822h1.993v-0.1a0.253,0.253,0,0,1-.049-0.148h0.049v0.049a0.973,0.973,0,0,1,.1.2c0.314-.07.5-0.24,0.826-0.3v0.049H13.123a0.694,0.694,0,0,1-.34.148v0.1h0.486V16.135a0.233,0.233,0,0,1-.146-0.049,0.582,0.582,0,0,0,.1-0.246H13.8a0.873,0.873,0,0,0,.1.2c0.094-.184.126,0.034,0.146-0.3a0.178,0.178,0,0,1-.049-0.1,16.525,16.525,0,0,0-3.451-.1,1.1,1.1,0,0,0-.194.3A0.532,0.532,0,0,0,10.255,16.185Zm5.152,0H15.8v-0.3H15.553A0.578,0.578,0,0,0,15.407,16.185Zm0.535-.246v0.246a1.574,1.574,0,0,0,.68-0.049C16.357,16.1,16.229,15.98,15.942,15.939Zm-2.382.2a0.324,0.324,0,0,0,.34,0H13.56Zm-4.423.394v0.1H9.186A0.17,0.17,0,0,0,9.137,16.529Zm16.768,4.283a0.607,0.607,0,0,0,.146.345v-0.2A1.718,1.718,0,0,0,25.905,20.812Zm-22.114.2a0.175,0.175,0,0,0,.1.049A0.175,0.175,0,0,0,3.791,21.009Zm2.333,0a0.175,0.175,0,0,0,.1.049A0.175,0.175,0,0,0,6.124,21.009Zm19.538,0.837a0.255,0.255,0,0,0,.292,0H25.662Zm-24.885.738a0.975,0.975,0,0,0-.389.345,1.6,1.6,0,0,0-.1,1.231H0.34V24.111a2.1,2.1,0,0,0,.826-0.886,3,3,0,0,1-.243-0.64H0.778Zm0.389,1.772H1.409a0.845,0.845,0,0,1,.049-0.3,0.319,0.319,0,0,0-.243,0A0.54,0.54,0,0,0,1.166,24.357Zm-0.486-.1a0.24,0.24,0,0,1-.049.148,0.228,0.228,0,0,0-.243-0.1v0.049a0.536,0.536,0,0,0,.389.148l0.194-.345H0.923A0.326,0.326,0,0,1,.68,24.259Zm3.4,1.428c-0.091.25,0.013,0.218,0.292,0.345v-0.3A0.88,0.88,0,0,0,4.083,25.686Zm5.152,0.246a0.24,0.24,0,0,0-.049-0.148,0.846,0.846,0,0,1-.632.148,2.267,2.267,0,0,1-.486,1.083h2.284V26.966a2.16,2.16,0,0,1-.535-1.083l-0.146.049a0.321,0.321,0,0,0-.049-0.2A0.416,0.416,0,0,1,9.235,25.932Zm4.812-.2a2.213,2.213,0,0,1-.535,1.28h2.868V26.966a2.145,2.145,0,0,1-.535-1.231h-1.8Zm6.027,0a1.99,1.99,0,0,1-.535,1.28h2.819V26.966a2.146,2.146,0,0,1-.535-1.231h-1.75Z" transform="translate(-0.063 0.016)"/>
</svg>
