<?xml version="1.0" encoding="utf-8"?>
<!-- Generator: Adobe Illustrator 16.0.0, SVG Export Plug-In . SVG Version: 6.00 Build 0)  -->
<!DOCTYPE svg PUBLIC "-//W3C//DTD SVG 1.1//EN" "http://www.w3.org/Graphics/SVG/1.1/DTD/svg11.dtd">
<svg version="1.1" id="Layer_1" xmlns="http://www.w3.org/2000/svg" xmlns:xlink="http://www.w3.org/1999/xlink" x="0px" y="0px"
	 width="39.906px" height="40px" viewBox="0 0 39.906 40" enable-background="new 0 0 39.906 40" xml:space="preserve">
<path id="Color_Fill_1" fill="#FFFFFF" d="M21.322,16.022h1.8v-0.394h0.101v0.394h1.064v0.2c0.411,0.112,0.84,0.146,1.264,0.1h2.723
	c0.285,0.072,0.582,0.089,0.875,0.049h2.332c0.824,0.072,1.653,0.089,2.479,0.049h4.812c0.336-0.074,0.678-0.108,1.021-0.1
	c0.041,0.161,0.058,0.327,0.049,0.492h0.049c0.049,0.05-0.048,0.049-0.049,0.049c-0.255,0.177-0.576,0.231-0.875,0.148
	c-0.359-0.277-2.117-0.148-2.867-0.148l-5.443,0.049c-0.973-0.071-1.951-0.038-2.916,0.1h-2.481c-0.274-0.021-0.551-0.021-0.825,0
	c-0.134,0.078-0.123,0.044-0.146,0.246h-0.389c-0.041,0.161-0.059,0.327-0.049,0.492c-0.74,0-1.476,0-2.091,0v0.049
	c0.144,0.182,0.212,0.41,0.194,0.64l-0.049,0.148l-0.1-0.049v0.049c-0.076,0.106-0.131,0.248-0.195,0.345h0.195
	c0.709-0.101,1.428-0.101,2.137,0c0.16-0.039,0.327-0.039,0.486,0v0.148h0.34c0.051-0.1,0.101-0.227,0.146-0.346
	c0.546-0.084,1.131-0.184,1.118,0.492c-0.128,0.111-0.199,0.274-0.194,0.443c0.368-0.039,0.74,0.031,1.069,0.2l0.049-0.345
	l0.101,0.049v-0.057l-0.05-0.049h0.101v0.049c0.045,0.094,0.062,0.197,0.049,0.301c0.682-0.025,1.355,0.146,1.943,0.492
	c0.346,0.24,0.476,0.74,0.826,0.984v0.049h-0.05c-0.12,0.133-0.27,0.236-0.437,0.301c0.042,0.096,0.075,0.196,0.1,0.299h-0.102
	c-0.059-0.035-0.127-0.053-0.194-0.049c-0.474,1.621-1.666,2.101-2.867,2.955c-0.437,0.396-0.927,0.729-1.458,0.984
	c-1.256,0.173-2.527,0.207-3.791,0.1H6.012c-0.997-0.312-1.945-0.759-2.819-1.328c-0.315-0.242-0.68-0.41-1.069-0.492v-0.163
	c-0.186-0.132-0.382-0.247-0.587-0.345v-0.246c-0.725-0.323-1.65-0.652-1.555-1.771c-0.02-0.271,0.031-0.542,0.146-0.788
	c0.18-0.151,0.375-0.283,0.583-0.394c-0.056-0.029-0.093-0.086-0.1-0.148h0.055c0.085,0.095,0.217,0.134,0.34,0.1v-0.1H0.958v-0.049
	c-0.074,0.047-0.169,0.047-0.243,0c0.176-0.023,0.177-0.014,0.243-0.148c-0.08-0.152-0.129-0.32-0.146-0.492
	c0.08,0.017,0.163,0.017,0.243,0c0.084-0.17,0.182-0.335,0.292-0.491c-0.158-0.041-0.074,0.024-0.146-0.101h0.145
	c0.077,0.135,0.044,0.125,0.243,0.148c0.394-0.473,1.429-0.012,2.041-0.1c0.162-0.075,0.31-0.177,0.437-0.301l1.993-0.1v0.3
	c0.094,0.032,0.192,0.05,0.292,0.05c0.217-0.118,0.482-0.099,0.68,0.049c0.71-0.232,1.477-0.232,2.187,0
	c0.244,0.035,0.492,0.018,0.729-0.049c0.083,0.025,0.165,0.059,0.243,0.1c0.292,0.017,0.583,0.017,0.875,0v-0.2l-2.722-0.049v-0.3
	c-0.104-0.055-0.189-0.141-0.243-0.247C7.2,18.418,6.291,18.5,5.379,18.523c0.006-0.071-0.011-0.141-0.049-0.2
	c-0.065,0.113-0.059,0.09-0.1,0.1c-0.033-0.211-0.05-0.426-0.049-0.64h0.151c0.112-1.07,0.391-2.116,0.826-3.1
	c0.402,0.062,0.809,0.078,1.215,0.049c-0.045-0.606,0.409-1.134,1.015-1.179c0.018-0.001,0.036-0.002,0.054-0.003
	c0.24,0.101,0.456,0.252,0.632,0.443c0.099,0.198,0.134,0.421,0.1,0.64c0.1,0.012,0.202-0.005,0.292-0.049
	c0.185-0.104,0.363-0.22,0.535-0.345c0.232-0.271-0.005-0.623,0.437-0.788c0.302-0.076,0.615-0.093,0.923-0.049
	c0.875-0.097,1.76-0.063,2.625,0.1c0.039,0.073,0.088,0.141,0.146,0.2v0.246h0.243v0.049h0.049c0,0.143-0.047,0.068,0,0.148
	c0.121-0.012,0.395,0.045,0.68,0.049l-0.049-0.443c0.063-0.074,0.148-0.126,0.243-0.148c0.146-0.008,0.292-0.008,0.438,0v-0.087
	c0.329-0.546-0.233-2.953,0.1-3.5c-0.051,1.23-0.035,2.463,0.049,3.692c0.428,0.1,0.762,0.351,1.215,0.492h1.166
	c0.606-0.011,1.211,0.056,1.8,0.2v-0.1c-0.207-0.034-0.386-0.161-0.486-0.345h0.049v-0.05c0.216,0.096,0.414,0.229,0.583,0.394
	c0.06-0.043,0.125-0.076,0.194-0.1c0,0.143-0.047,0.068,0,0.148c0.18,0.126,0.376,0.227,0.583,0.3v0.1h-0.152
	c-0.146-0.101-0.312-0.169-0.486-0.2v0.049H20.4c0.269,0.277,1.089,0.7,1.118,1.132h-0.05c-0.059-0.153-0.018-0.111-0.194-0.148
	c-0.025,0.064-0.042,0.131-0.049,0.2C21.289,15.844,21.324,15.932,21.322,16.022z M10.192,14.2h1.993v-0.1
	c-0.032-0.043-0.049-0.095-0.049-0.148h0.049v0.049c0.041,0.063,0.074,0.13,0.1,0.2c0.314-0.07,0.5-0.24,0.826-0.3v0.049H13.06
	c-0.098,0.079-0.215,0.13-0.34,0.148v0.1h0.486v-0.047c-0.053,0.001-0.104-0.017-0.146-0.049c0.052-0.073,0.086-0.158,0.1-0.246
	h0.577c0.025,0.071,0.059,0.138,0.1,0.2c0.094-0.184,0.126,0.034,0.146-0.3c-0.026-0.027-0.043-0.062-0.049-0.1
	c-1.144-0.154-2.3-0.188-3.451-0.1c-0.081,0.088-0.146,0.19-0.194,0.3C10.218,13.956,10.184,14.078,10.192,14.2L10.192,14.2z
	 M15.344,14.2h0.393v-0.3H15.49C15.413,13.984,15.362,14.088,15.344,14.2L15.344,14.2z M15.879,13.954V14.2
	c0.228,0.033,0.46,0.017,0.68-0.049C16.294,14.116,16.166,13.996,15.879,13.954L15.879,13.954z M13.497,14.154
	c0.104,0.064,0.236,0.064,0.34,0H13.497z M9.074,14.548v0.1h0.049c-0.004-0.039-0.021-0.075-0.049-0.103V14.548z M25.842,18.831
	c0.012,0.128,0.063,0.248,0.146,0.345v-0.199c-0.046-0.053-0.095-0.102-0.146-0.148V18.831z M3.728,19.031
	c0.027,0.026,0.062,0.044,0.1,0.049c-0.026-0.029-0.062-0.049-0.1-0.055V19.031z M6.061,19.031c0.027,0.026,0.062,0.044,0.1,0.049
	c-0.026-0.029-0.062-0.049-0.1-0.055V19.031z M25.6,19.868c0.087,0.062,0.203,0.062,0.291,0H25.6z M0.714,20.605
	c-0.158,0.078-0.293,0.197-0.389,0.346c-0.197,0.381-0.233,0.824-0.1,1.23h0.052v-0.055c0.356-0.208,0.644-0.516,0.826-0.886
	c-0.105-0.204-0.187-0.419-0.243-0.64H0.715L0.714,20.605z M1.103,22.378h0.243c-0.002-0.103,0.015-0.204,0.049-0.3
	c-0.078-0.032-0.165-0.032-0.243,0c-0.043,0.092-0.061,0.193-0.049,0.295V22.378z M0.617,22.277c0,0.055-0.017,0.106-0.049,0.148
	c-0.052-0.081-0.149-0.121-0.243-0.1v0.049c0.104,0.1,0.245,0.153,0.389,0.148l0.194-0.346H0.86c-0.064,0.064-0.152,0.1-0.243,0.098
	V22.277z M4.017,23.706c-0.091,0.25,0.013,0.218,0.292,0.345v-0.3c-0.093-0.032-0.191-0.049-0.289-0.049L4.017,23.706z
	 M9.169,23.952c0-0.054-0.017-0.105-0.049-0.148c-0.183,0.132-0.41,0.185-0.632,0.148c-0.063,0.397-0.231,0.771-0.486,1.083h2.284
	v-0.053c-0.278-0.303-0.463-0.679-0.535-1.084l-0.146,0.05c0.006-0.07-0.011-0.141-0.049-0.2c-0.081,0.133-0.229,0.211-0.384,0.2
	L9.169,23.952z M13.981,23.752c-0.037,0.473-0.224,0.922-0.535,1.28h2.868v-0.05c-0.305-0.343-0.493-0.774-0.535-1.231h-1.8
	L13.981,23.752z M20.008,23.752c-0.019,0.477-0.208,0.932-0.535,1.28h2.819v-0.05c-0.306-0.343-0.493-0.774-0.535-1.231
	L20.008,23.752L20.008,23.752z"/>
</svg>
