<svg xmlns="http://www.w3.org/2000/svg" width="40" height="40" viewBox="0 0 40 40">
  <defs>
    <style>
      .cls-1 {
        fill: #fff;
        fill-rule: evenodd;
      }
    </style>
  </defs>
  <path id="Color_Fill_1" data-name="Color Fill 1" class="cls-1" d="M20.723,6c1.008,0.038,2.118.1,3.11,0.107V6.141H23.8a2.747,2.747,0,0,1-1.013.071c-0.6.033-1.332,0.038-1.989,0.036V6.57h0.47a2.029,2.029,0,0,1,.326.749c0.06,0.294-.145.757-0.108,1a3.708,3.708,0,0,0,.072.571c0.012,0.034.1,0.136,0.108,0.178a1.433,1.433,0,0,1-.072.535,1.071,1.071,0,0,0,.145.5c-0.117.045-.1,0.031-0.108,0.178a0.128,0.128,0,0,1,.036.071,1.66,1.66,0,0,0,.47.036,0.316,0.316,0,0,1,.181-0.036,1.137,1.137,0,0,1,.072.535c-0.061.092-.289,0.963-0.289,0.963a4.476,4.476,0,0,0,1.23.357v-0.82h0.145v0.856h0.072a4.733,4.733,0,0,0,1.374.178c0.688,0.151,1.519.1,2.206,0.25L27.884,12.7c0.8,0.176,1.763.11,2.568,0.285l0.759,0.036c0.694,0.152,1.522.057,2.242,0.214,0.495,0.108,1.055.026,1.591,0.143,1.158,0.252,2.559.213,3.761,0.357V12.027a1.778,1.778,0,0,1,.036-0.678q0.018,1.195.036,2.39h0.072a1.628,1.628,0,0,0,.687.107,1.76,1.76,0,0,1,.289.392,3.442,3.442,0,0,1-.108,1.605c-0.832.5-2.082,0.4-3.183,0.642l-0.94.071c-1.405.316-2.932,0.257-4.34,0.571-0.431.1-.879,0.056-1.266,0.143-0.537.12-1.1,0.068-1.591,0.178-0.677.151-1.388,0.074-2.025,0.214l-0.687.036c-0.738.162-1.615,0.122-2.351,0.285a3.643,3.643,0,0,0-1.23.214,0.833,0.833,0,0,0-.181.285,6.71,6.71,0,0,0-.687,2l-0.072.749c-0.207.884-.157,1.932-0.362,2.854-0.111.5-.005,1.066-0.108,1.534v0.606c-0.1.47-.043,1.079-0.145,1.534-0.128.573-.036,1.164-0.145,1.712H20.94l3.834,0.285a0.567,0.567,0,0,1,.145.178,2.18,2.18,0,0,1,0,1.605,1.994,1.994,0,0,1-1.121.321H23.11a14.026,14.026,0,0,1-2.821.036,0.1,0.1,0,0,1-.036.036c0.006,0.753-.2,1.359-0.217,2.069H19.964V33.715a6.693,6.693,0,0,1-.217-1.427V31.931a9.718,9.718,0,0,0-1.338-.036,1.654,1.654,0,0,1-.9.071c-0.07-.019,0-0.056-0.036-0.071l-1.483-.036c-0.252-.056-0.536-0.119-0.759-0.178a2.061,2.061,0,0,1-.145-1.819,0.593,0.593,0,0,1,.325-0.107,4.19,4.19,0,0,1,1.049-.071c0.313-.067.691,0,1.049-0.071a10.328,10.328,0,0,1,1.989-.143V29.4a3.414,3.414,0,0,1-.072-0.856c-0.079-.354-0.066-0.823-0.145-1.177V26.83c-0.118-.53.017-1.147-0.109-1.712-0.1-.436,0-0.957-0.108-1.427-0.233-1.043-.186-2.214-0.434-3.21-0.207-.83-0.309-1.986-0.94-2.354a4.466,4.466,0,0,0-1.121-.143c-0.736-.163-1.613-0.122-2.351-0.285l-0.687-.036c-0.637-.141-1.348-0.062-2.025-0.214-0.492-.111-1.055-0.058-1.591-0.178-0.492-.111-1.055-0.058-1.591-0.178C7.021,16.8,5.6,16.848,4.3,16.557l-0.615-.036c-0.762-.174-1.66-0.148-2.423-0.321a1.239,1.239,0,0,1-1.085-.428,1.282,1.282,0,0,1-.072-0.428c-0.122-.539-0.172-1.49.47-1.5A4.11,4.11,0,0,1,1.7,13.7c0.772-.168,1.69-0.084,2.459-0.25l0.8-.036c0.735-.16,1.619-0.091,2.351-0.25H7.7c0.575-.125,1.235-0.045,1.844-0.178,0.461-.1.977-0.032,1.483-0.143,0.449-.1.957-0.036,1.447-0.143,1.289-.282,2.806-0.193,4.051-0.464V11.385h0.145v0.82a7.94,7.94,0,0,0,1.483-.428,0.351,0.351,0,0,0,.072-0.285,0.4,0.4,0,0,1-.108-0.071,0.668,0.668,0,0,0,.145-0.428,0.157,0.157,0,0,1-.108-0.107,0.756,0.756,0,0,0,.145-0.178c0.036-.142-0.1-0.107-0.072-0.25,0.006-.026.1-0.116,0.109-0.143a1.516,1.516,0,0,0-.072-0.357c0.008-.04.1-0.147,0.108-0.178A0.915,0.915,0,0,0,18.3,9.423,0.53,0.53,0,0,0,18.409,9.1H18.336c-0.045-.122.089-0.163,0.108-0.214a1.722,1.722,0,0,0,0-.749,1.981,1.981,0,0,1,.289-1.569h0.434V6.534A0.557,0.557,0,0,0,19.2,6.248a11.719,11.719,0,0,1-2.387-.071,2.414,2.414,0,0,1-.687-0.071C17.09,6.1,18.243,6.012,19.241,6a1.057,1.057,0,0,1,.832-1,0.428,0.428,0,0,0,.181.071A1.77,1.77,0,0,1,20.723,6Z"/>
</svg>
