<?xml version="1.0" encoding="UTF-8"?>
<svg id="Layer_1" data-name="Layer 1" xmlns="http://www.w3.org/2000/svg" width="128" height="128" xmlns:xlink="http://www.w3.org/1999/xlink" viewBox="0 0 128 128">
  <defs>
    <style>
      .cls-1 {
        fill: #a1a1a1;
      }

      .cls-1, .cls-2, .cls-3, .cls-4, .cls-5, .cls-6, .cls-7, .cls-8, .cls-9, .cls-10, .cls-11, .cls-12, .cls-13, .cls-14, .cls-15, .cls-16, .cls-17, .cls-18, .cls-19, .cls-20, .cls-21, .cls-22, .cls-23, .cls-24, .cls-25, .cls-26, .cls-27, .cls-28, .cls-29, .cls-30, .cls-31, .cls-32, .cls-33, .cls-34, .cls-35, .cls-36, .cls-37, .cls-38, .cls-39, .cls-40, .cls-41, .cls-42, .cls-43, .cls-44, .cls-45, .cls-46, .cls-47, .cls-48, .cls-49, .cls-50, .cls-51, .cls-52, .cls-53, .cls-54, .cls-55 {
        stroke-width: 0px;
      }

      .cls-1, .cls-2, .cls-3, .cls-4, .cls-5, .cls-7, .cls-8, .cls-9, .cls-10, .cls-11, .cls-12, .cls-13, .cls-16, .cls-17, .cls-18, .cls-19, .cls-20, .cls-21, .cls-22, .cls-23, .cls-24, .cls-25, .cls-26, .cls-28, .cls-29, .cls-30, .cls-31, .cls-32, .cls-33, .cls-34, .cls-36, .cls-37, .cls-38, .cls-40, .cls-41, .cls-42, .cls-43, .cls-48, .cls-50, .cls-52, .cls-53, .cls-54, .cls-55 {
        fill-rule: evenodd;
      }

      .cls-2 {
        fill: #b8b8b8;
      }

      .cls-3 {
        fill: #e7f1ae;
      }

      .cls-4 {
        fill: url(#radial-gradient-18);
      }

      .cls-5 {
        fill: #161616;
      }

      .cls-6 {
        fill: url(#linear-gradient);
      }

      .cls-7 {
        fill: #60625c;
      }

      .cls-8 {
        fill: #edeeee;
      }

      .cls-9 {
        fill: #555;
      }

      .cls-11 {
        fill: #2a2a2a;
      }

      .cls-12 {
        fill: url(#linear-gradient-3);
      }

      .cls-13 {
        fill: url(#radial-gradient-9);
      }

      .cls-15, .cls-32 {
        fill: #9c9c9c;
      }

      .cls-16 {
        fill: #1a2d18;
      }

      .cls-17 {
        fill: rgba(145, 221, 139, .5);
      }

      .cls-18 {
        fill: url(#radial-gradient-15);
      }

      .cls-19 {
        fill: #2d2d2d;
      }

      .cls-20 {
        fill: #4a8146;
      }

      .cls-21 {
        fill: #a1a5a3;
      }

      .cls-22 {
        fill: url(#radial-gradient-2);
      }

      .cls-23 {
        fill: #767676;
      }

      .cls-24 {
        fill: url(#radial-gradient-8);
      }

      .cls-25 {
        fill: url(#radial-gradient-3);
      }

      .cls-26 {
        fill: url(#radial-gradient-17);
      }

      .cls-27 {
        fill: #0c0c0c;
      }

      .cls-28 {
        fill: #4c4d48;
      }

      .cls-29 {
        fill: url(#radial-gradient-13);
      }

      .cls-30 {
        fill: url(#radial-gradient-4);
      }

      .cls-31 {
        fill: #b9bbba;
      }

      .cls-33 {
        fill: #fff;
      }

      .cls-34 {
        fill: url(#linear-gradient-2);
      }

      .cls-35 {
        fill: url(#radial-gradient-7);
      }

      .cls-36 {
        fill: #474747;
      }

      .cls-37 {
        fill: #070707;
      }

      .cls-38 {
        fill: url(#linear-gradient-5);
      }

      .cls-39 {
        fill: url(#radial-gradient);
      }

      .cls-40 {
        fill: url(#radial-gradient-16);
      }

      .cls-41 {
        fill: url(#radial-gradient-19);
      }

      .cls-42 {
        fill: url(#radial-gradient-5);
      }

      .cls-43 {
        fill: #dddede;
      }

      .cls-44 {
        fill: url(#radial-gradient-14);
      }

      .cls-45 {
        fill: #838383;
      }

      .cls-46 {
        fill: url(#radial-gradient-10);
      }

      .cls-47 {
        fill: #223c20;
      }

      .cls-48 {
        fill: #7b807d;
      }

      .cls-49 {
        fill: url(#radial-gradient-6);
      }

      .cls-50 {
        fill: url(#radial-gradient-12);
      }

      .cls-51 {
        fill: url(#radial-gradient-11);
      }

      .cls-52 {
        fill: #242424;
      }

      .cls-53 {
        fill: url(#linear-gradient-6);
      }

      .cls-54 {
        fill: url(#linear-gradient-4);
      }

      .cls-55 {
        fill: #525252;
      }
    </style>
    <linearGradient id="linear-gradient" x1="28.49" y1="30.99" x2="38.31" y2="30.99" gradientUnits="userSpaceOnUse">
      <stop offset="0" stop-color="#1a1b19"/>
      <stop offset=".08" stop-color="#3e413d"/>
      <stop offset=".18" stop-color="#5d5f5c"/>
      <stop offset=".31" stop-color="#cbcbcb"/>
      <stop offset=".49" stop-color="#cbcbcb"/>
      <stop offset=".66" stop-color="#393b37"/>
      <stop offset="1" stop-color="#181917"/>
    </linearGradient>
    <linearGradient id="linear-gradient-2" x1="34.96" y1="22.29" x2="29.97" y2="35.42" gradientUnits="userSpaceOnUse">
      <stop offset="0" stop-color="#090909"/>
      <stop offset=".08" stop-color="#3e413d"/>
      <stop offset=".13" stop-color="#1a1b19"/>
      <stop offset=".2" stop-color="#151614"/>
      <stop offset=".32" stop-color="#5d5f5c"/>
      <stop offset=".45" stop-color="#a4a5a4"/>
      <stop offset=".58" stop-color="#9d9e9b"/>
      <stop offset=".76" stop-color="#393b37"/>
      <stop offset=".87" stop-color="#181917"/>
      <stop offset="1" stop-color="#0c0c0c"/>
    </linearGradient>
    <radialGradient id="radial-gradient" cx="-931.37" cy="-62.91" fx="-931.37" fy="-62.91" r="1" gradientTransform="translate(-7263.55 1199.22) rotate(-179.61) scale(7.83 -19.41)" gradientUnits="userSpaceOnUse">
      <stop offset="0" stop-color="#c1c4c2"/>
      <stop offset=".05" stop-color="#afb1b0"/>
      <stop offset=".11" stop-color="#a9abaa"/>
      <stop offset=".39" stop-color="#313131"/>
      <stop offset="1" stop-color="#070707"/>
    </radialGradient>
    <linearGradient id="linear-gradient-3" x1="-935.11" y1="-73.2" x2="-934.47" y2="-73.2" gradientTransform="translate(-10069.17 18526.98) rotate(123.18) scale(22.44 -22.44)" gradientUnits="userSpaceOnUse">
      <stop offset="0" stop-color="#7c7c7c"/>
      <stop offset="1" stop-color="#4a4a4a"/>
    </linearGradient>
    <linearGradient id="linear-gradient-4" x1="38.13" y1="74.56" x2="36.44" y2="79.89" gradientUnits="userSpaceOnUse">
      <stop offset="0" stop-color="#636765"/>
      <stop offset=".5" stop-color="#4f524f"/>
      <stop offset="1" stop-color="#989996"/>
    </linearGradient>
    <radialGradient id="radial-gradient-2" cx="-924.1" cy="-122.93" fx="-924.1" fy="-122.93" r="1" gradientTransform="translate(311.72 -47202.53) rotate(-74.92) scale(49.46 -98.01)" gradientUnits="userSpaceOnUse">
      <stop offset="0" stop-color="#9c9c9c"/>
      <stop offset="1" stop-color="#636363"/>
    </radialGradient>
    <radialGradient id="radial-gradient-3" cx="-873.57" cy="-107.5" fx="-873.57" fy="-107.5" r="1" gradientTransform="translate(16781.84 5001.31) rotate(37.31) scale(18.64 -57.72)" gradientUnits="userSpaceOnUse">
      <stop offset="0" stop-color="#353736"/>
      <stop offset="1" stop-color="#111"/>
    </radialGradient>
    <radialGradient id="radial-gradient-4" cx="-773.53" cy="-104.23" fx="-773.53" fy="-104.23" r="1" gradientTransform="translate(5265.07 850.35) rotate(26.24) scale(6.46 -15.37)" gradientUnits="userSpaceOnUse">
      <stop offset="0" stop-color="#9e9e9e"/>
      <stop offset=".7" stop-color="#666"/>
      <stop offset="1" stop-color="#252525"/>
    </radialGradient>
    <linearGradient id="linear-gradient-5" x1="110.62" y1="55.44" x2="102.87" y2="76.72" xlink:href="#linear-gradient-2"/>
    <radialGradient id="radial-gradient-5" cx="-848.17" cy="-103.04" fx="-848.17" fy="-103.04" r="1" gradientTransform="translate(10550.2 3614.31) rotate(23.92) scale(12.94 -9.62) skewX(.72)" gradientUnits="userSpaceOnUse">
      <stop offset="0" stop-color="#696b64"/>
      <stop offset=".45" stop-color="#1d1e1c"/>
      <stop offset="1" stop-color="#000"/>
    </radialGradient>
    <radialGradient id="radial-gradient-6" cx="110.67" cy="62.98" fx="120.09" fy="62.98" r="9.55" gradientTransform="translate(137.66 -61.47) rotate(70.03)" gradientUnits="userSpaceOnUse">
      <stop offset="0" stop-color="#353736"/>
      <stop offset="1" stop-color="#242424"/>
    </radialGradient>
    <radialGradient id="radial-gradient-7" cx="-874.02" cy="-87.84" fx="-874.02" fy="-87.84" r="1" gradientTransform="translate(-6595.76 14754.91) rotate(121.38) scale(18.8 -21.86) skewX(-13.84)" gradientUnits="userSpaceOnUse">
      <stop offset="0" stop-color="#7b9de5"/>
      <stop offset=".45" stop-color="#0d1741"/>
      <stop offset="1" stop-color="#000"/>
    </radialGradient>
    <radialGradient id="radial-gradient-8" cx="-1041.92" cy="-126.69" fx="-1041.92" fy="-126.69" r="1" gradientTransform="translate(-8015.36 -2562.36) rotate(-155.24) scale(8.12 -8.02) skewX(.98)" gradientUnits="userSpaceOnUse">
      <stop offset="0" stop-color="#5c9fe9"/>
      <stop offset="1" stop-color="#b3e9f9"/>
    </radialGradient>
    <radialGradient id="radial-gradient-9" cx="-817.36" cy="-37.06" fx="-817.36" fy="-37.06" r="1" gradientTransform="translate(4092.64 6520.4) rotate(60.75) scale(9.43 -8.66) skewX(-21.19)" gradientUnits="userSpaceOnUse">
      <stop offset="0" stop-color="#fff"/>
      <stop offset=".45" stop-color="#1d1e1c"/>
      <stop offset="1" stop-color="#000"/>
    </radialGradient>
    <radialGradient id="radial-gradient-10" cx="-904.53" cy="-112.47" fx="-904.53" fy="-112.47" r="1" gradientTransform="translate(39953.3 18454.84) rotate(20.41) scale(54.04 29.58) skewX(-39.69)" xlink:href="#radial-gradient-5"/>
    <radialGradient id="radial-gradient-11" cx="-893.36" cy="-112.15" fx="-893.36" fy="-112.15" r="1" gradientTransform="translate(24584.67 11395.89) rotate(20.41) scale(33.67 18.43) skewX(-39.69)" xlink:href="#radial-gradient-5"/>
    <radialGradient id="radial-gradient-12" cx="-842.38" cy="50.76" fx="-842.38" fy="50.76" r="1" gradientTransform="translate(-184.29 3411.02) rotate(89.07) scale(3.98 -5.62)" gradientUnits="userSpaceOnUse">
      <stop offset="0" stop-color="#090909"/>
      <stop offset=".08" stop-color="#3e413d"/>
      <stop offset=".13" stop-color="#1a1b19"/>
      <stop offset=".2" stop-color="#151614"/>
      <stop offset=".32" stop-color="#5d5f5c"/>
      <stop offset=".45" stop-color="#a4a5a4"/>
      <stop offset=".58" stop-color="#9d9e9b"/>
      <stop offset=".76" stop-color="#393b37"/>
      <stop offset=".87" stop-color="#181917"/>
      <stop offset="1" stop-color="#0c0c0c"/>
    </radialGradient>
    <radialGradient id="radial-gradient-13" cx="-842.38" cy="31.76" fx="-842.38" fy="31.76" r="1" gradientTransform="translate(-101 3409.66) rotate(89.07) scale(3.98 -6.36)" gradientUnits="userSpaceOnUse">
      <stop offset="0" stop-color="#090909"/>
      <stop offset=".53" stop-color="#3e413d"/>
      <stop offset=".58" stop-color="#9d9e9b"/>
      <stop offset=".76" stop-color="#393b37"/>
      <stop offset=".87" stop-color="#181917"/>
      <stop offset="1" stop-color="#0c0c0c"/>
    </radialGradient>
    <radialGradient id="radial-gradient-14" cx="-902.38" cy="-114.63" fx="-902.38" fy="-114.63" r="1" gradientTransform="translate(29278.8 19907.64) rotate(28.88) scale(44.04 28.59) skewX(-42.1)" xlink:href="#radial-gradient-5"/>
    <radialGradient id="radial-gradient-15" cx="-848.07" cy="39.21" fx="-848.07" fy="39.21" r="1" gradientTransform="translate(-105.14 3666.74) rotate(89.07) scale(4.28 -6.04)" xlink:href="#radial-gradient-12"/>
    <radialGradient id="radial-gradient-16" cx="-854.99" cy="25.15" fx="-854.99" fy="25.15" r="1" gradientTransform="translate(-78.57 4077.88) rotate(89.07) scale(4.72 -6.66)" xlink:href="#radial-gradient-12"/>
    <linearGradient id="linear-gradient-6" x1="86.88" y1="66.04" x2="75.95" y2="96.04" gradientUnits="userSpaceOnUse">
      <stop offset="0" stop-color="#090909"/>
      <stop offset=".05" stop-color="#3e413d"/>
      <stop offset=".09" stop-color="#1a1b19"/>
      <stop offset=".12" stop-color="#151614"/>
      <stop offset=".18" stop-color="#5d5f5c"/>
      <stop offset=".25" stop-color="#a4a5a4"/>
      <stop offset=".71" stop-color="#9d9e9b"/>
      <stop offset=".83" stop-color="#393b37"/>
      <stop offset=".92" stop-color="#181917"/>
      <stop offset="1" stop-color="#0c0c0c"/>
    </linearGradient>
    <radialGradient id="radial-gradient-17" cx="82.73" cy="76.39" fx="95.16" fy="76.39" r="12.6" gradientTransform="matrix(1,0,0,1,0,0)" xlink:href="#radial-gradient-6"/>
    <radialGradient id="radial-gradient-18" cx="-933.75" cy="-154.98" fx="-933.75" fy="-154.98" r="1" gradientTransform="translate(-9488.31 55910.54) rotate(96.17) scale(64.07 22.69) skewX(-18.37)" gradientUnits="userSpaceOnUse">
      <stop offset="0" stop-color="#348b45"/>
      <stop offset=".45" stop-color="#1d1e1c"/>
      <stop offset="1" stop-color="#000"/>
    </radialGradient>
    <radialGradient id="radial-gradient-19" cx="-926.51" cy="-131" fx="-926.51" fy="-131" r="1" gradientTransform="translate(-5832.27 38204.38) rotate(88.82) scale(44.82 51.05) skewX(-30.85)" xlink:href="#radial-gradient-5"/>
  </defs>
  <path class="cls-10" d="m67.64,98.09s-1.4-.35-1.51-.38c-.08-.02-.15-.05-.22-.08l-31.45-13.54c-.28-.12-.53-.3-.73-.54l-3.29-3.84-21.17-10.43c-.57-.28-.98-.82-1.09-1.45,0,0-2.05-10.36-1.73-11.27,0,0,2.55-9.55,2.55-9.54-.7-2.49.1-5.23,2.86-7.56,1.66-1.4,3.86-2.47,6.33-3.15l3.36-2.79c.19-.16.42-.28.66-.36l4.01-1.31c0-.18,0-.37.02-.56.25-4.79,3.74-8.5,7.48-9.13.96-.16,1.86-.09,2.69.16,0,0,1.38.48,1.38.48.2.04.4.1.59.17,0,0,.43.15.5.17,1.12.41,2.07,1.22,2.75,2.36l9.24,1.19c.14.02.28.05.42.1l13.18,4.74s2.32.04,2.32.04c.26-.32.56-.62.88-.9,1.87-1.58,5.53-2.15,8.17-1.17,2.12.77,3.38,2.42,3.42,3.79,0,.26.13,1.04.21,1.77l2.47,2.75,22.45,8.08c.44.16.82.47,1.05.88l3.01,5,8.31,3.01c.08.03.17.06.25.11,2.94,1.5,4.76,3.73,4.52,8.53,0,.63-.03,1.29-.1,1.97-.42,3.81-2.06,7.58-4.23,10.29-1.58,1.96-3.46,3.37-5.34,3.96-1,.31-1.94.39-2.78.29-.11,0-.23-.02-.34-.05-.15-.02-1.6-.55-1.6-.55l-8.94-3.5c-1.5,1.36-4.23,3.84-4.23,3.84-2.15,5.75-5.93,13.59-6.7,14.88-1.55,2.57-3.66,4.44-5.71,5.06-.94.28-1.82.31-2.61.15h-.06s-.9-.1-.9-.1c-.62-.14-1.4-.46-2.14-.83-1.19.06-2.53-.13-3.35-.48l-4.87-.26Z"/>
  <path class="cls-6" d="m30.75,37.08c-1.89-.7-2.66-2.82-2.51-5.69.2-3.78,2.87-6.77,5.82-7.26.63-.11,1.23-.07,1.79.1h0s1.82.64,1.82.64l-4.95,13.06-1.97-.85Z"/>
  <path class="cls-34" d="m30.75,37.08c-1.89-.7-2.66-2.82-2.51-5.69.2-3.78,2.87-6.77,5.82-7.26.63-.11,1.23-.07,1.79.1h0s1.82.64,1.82.64l-4.95,13.06-1.97-.85Z"/>
  <ellipse class="cls-39" cx="35.66" cy="31.56" rx="7.02" ry="4.64" transform="translate(-6.86 52.99) rotate(-68.25)"/>
  <path class="cls-55" d="m33.04,38.09l-.16-.04c-1.74-.62-2.86-2.73-2.61-5.56.19-2.17,1.13-4.27,2.43-5.74.89-1.01,1.96-1.72,3.06-1.97.72-.17,1.39-.13,1.98.08l.45.16c-.47-.19-1.35-.23-1.96-.09-2.56.59-5.26,4.14-5.55,7.61-.22,2.61.75,4.9,2.36,5.57Z"/>
  <path class="cls-19" d="m11.09,46.97c-.78-1.95-.14-4.12,2.06-5.98,1.55-1.3,3.65-2.27,5.98-2.86l3.7-3.08,8.37-2.74,7.63-5.18,11.8,1.52,13.49,4.85,7.89.15,4.93,1.54,3.87,4.31,22.93,8.25,4.16,7.19-3.76,12.8-31.51,28.61-5.28-.28-32.09-13.82-3.56-4.15-21.54-10.6-1.83-10.09,2.76-10.44Z"/>
  <path class="cls-2" d="m8.33,57.41l33.87,14.23,3.49,7.61,20.7,9.38,2.13-13.4L10.04,50.96l-1.71,6.45Z"/>
  <path class="cls-12" d="m8.33,57.41l33.87,14.23,3.49,7.61,20.7,9.38,1.95-12.23L9.72,52.14l-1.39,5.27Z"/>
  <path class="cls-37" d="m37.38,73.05c1.54.24,3.2,2.1,3.5,4.3.15,1.1-.09,1.99-.56,2.57-.87.65-1.86.65-2.94.08-.65-.35-1.38-.96-1.85-1.86-.29-.55-.5-1.17-.58-1.82-.29-2.16.93-3.51,2.43-3.27Z"/>
  <path class="cls-54" d="m35.64,74.66c.31-.37.77-.54,1.28-.46,1.11.17,2.34,1.51,2.6,3.1.08.46.06.86-.03,1.2l-1.26-1.26c0-.05,0-.11-.02-.17-.1-.61-.57-1.12-1-1.19-.11-.02-.22,0-.31.04l-1.26-1.25Zm3.48,4.55c-.32.36-.79.53-1.3.43-1.09-.21-2.31-1.52-2.57-3.09-.07-.44-.06-.84.03-1.18l1.27,1.27s0,.09.02.14c.1.6.57,1.11.99,1.19.11.02.21.01.3-.02l1.27,1.27Z"/>
  <path class="cls-33" d="m39.45,76.96c-.6-.88-.67-.81-1.68-1.86-.57-.6-.9-.8-1.4-.89,1.11-.33,2.77.25,3.09,2.75Z"/>
  <path class="cls-22" d="m11.09,46.97c-.78-1.95-.14-4.12,2.06-5.98,1.55-1.3,3.96-2.58,6.29-3.17l3.39-2.77,8.37-2.74,7.63-5.18,11.8,1.52,13.49,4.85,7.89.15,4.93,1.54,3.87,4.31,22.93,8.25-6.31,1.47-28.93,25.99L10.04,50.96l1.06-3.99Z"/>
  <path class="cls-9" d="m97.43,49.24l-58.6-22.1,11.8,1.52,13.49,4.85,7.89.15,4.93,1.54,3.87,4.31,22.93,8.25-6.31,1.47Z"/>
  <path class="cls-36" d="m78.89,37.37c-.19.3-.45.59-.78.88-2.05,1.73-6.06,2.27-8.96,1.2-2.9-1.07-3.58-3.34-1.54-5.06.35-.3.76-.56,1.21-.79l3.18.06,4.93,1.54,1.95,2.17Z"/>
  <path class="cls-21" d="m66.43,88.62l1.36-12.45.19-1.15,29.45-25.78-31,39.39Z"/>
  <path class="cls-25" d="m66.39,88.63l2.13-13.4,28.9-25.99,6.31-1.47,4.16,7.19-3.76,12.8-31.28,28.81-5.5-.48-.96-7.45Z"/>
  <path class="cls-30" d="m88.97,72.15c-.62,4.47-7.26,18.44-8.33,20.22-1.31,2.19-2.07,3.77-3.81,4.3-1,.3-2.86.26-3.59-.18-1.57-.95-2.37-3.46-1.91-6.75.62-4.47,6.93-17.48,7.66-18.97,1.36-2.79,3.4-4.99,5.46-5.61,1.01-.3,2.5-.27,3.23.18.45.28,1.59,2.13,1.9,2.64.77,1.27-.28,1.84-.61,4.18Z"/>
  <path class="cls-38" d="m105.94,52.35l10.53,3.84c2.37,1.24,3.75,3.13,3.54,7.14-.33,6.48-4.07,14.35-9.24,15.21-.42.07-1.1.19-1.71,0l-11.69-4.58c-1.94-1.7-3.33-4.2-3.17-7.34.33-6.48,4.11-14.53,11.74-14.27Z"/>
  <path class="cls-42" d="m103.04,69.73l-7.39-3.1c.03-.4.08-.81.14-1.23l7.37,3.09c-.02.14-.04.28-.05.43-.03.28-.05.55-.07.82Zm.34-2.52l-7.37-3c.08-.39.18-.77.28-1.16l7.36,2.99c-.1.39-.2.78-.28,1.17Zm.65-2.4l-7.38-2.91c.13-.38.27-.74.42-1.11l7.37,2.91c-.15.36-.28.73-.41,1.1Zm.94-2.29l-7.38-2.82c.18-.36.37-.7.58-1.04l7.36,2.81c-.19.34-.38.7-.55,1.05Zm1.26-2.22l-7.41-2.64c.24-.34.5-.66.78-.97l7.35,2.62c-.25.31-.48.64-.71.99Zm1.55-1.96l-7.22-2.61c.34-.31.71-.59,1.09-.85l7.07,2.55c-.32.27-.63.57-.94.9Zm2.2-1.82l-6.92-2.43c.56-.25,1.15-.46,1.78-.6l6.67,2.34h-.02c-.51.16-1.01.39-1.5.69Zm-5.85,19.06l-7.09-3.14c-.36-.53-.66-1.11-.9-1.73l7.3,3.25c.18.6.41,1.15.68,1.62Zm-1-3.14l-7.39-3.19c-.08-.44-.13-.89-.14-1.36,0,0,0,0,.01,0l7.41,3.2c.01.46.05.92.11,1.34Z"/>
  <path class="cls-5" d="m97.46,73.99c-.98-.46-2.5-2.16-2.97-3.34-.6-1.52-.89-3.33-.79-5.32.33-6.37,4.59-12.21,9.5-13.03,1.41-.23,2.98-.08,4.12.48l-.04.07c-.92-.29-2.18-.3-3.24-.13-4.91.82-9.37,6.97-9.7,13.34-.08,1.62.09,3.12.49,4.44.36,1.2,1.76,2.97,2.62,3.5Z"/>
  <path class="cls-33" d="m110.46,58.86c-1.36,1.6-1.96,2.57-2.99,4.87-.91,2.04-1.45,3.45-1.96,5.71-.03-3.83.51-7.34,4.95-10.58Z"/>
  <ellipse class="cls-49" cx="112.7" cy="67.52" rx="11.61" ry="6.53" transform="translate(10.74 150.38) rotate(-70.03)"/>
  <ellipse class="cls-35" cx="112.93" cy="67.58" rx="10.1" ry="5.56" transform="translate(9 148.32) rotate(-68.74)"/>
  <path class="cls-48" d="m107.13,73.54c-.28-1.09-.36-2.39-.21-3.83.54-5.02,3.76-9.94,7.19-10.96h.02c.52,1.15.77,2.6.66,4.26-.32,4.8-3.52,9.47-7.15,10.43-.17.05-.34.08-.51.11Z"/>
  <path class="cls-24" d="m107.13,73.54c-.28-1.09-.36-2.39-.21-3.83.54-5.02,3.76-9.94,7.19-10.96h.02c.52,1.15.77,2.6.66,4.26-.32,4.8-3.52,9.47-7.15,10.43-.17.05-.34.08-.51.11Z"/>
  <path class="cls-43" d="m113.23,66.02l.91.25c-.49,1.45-1.21,2.81-2.09,3.95l-.78-.38c.83-1.09,1.51-2.4,1.96-3.82Z"/>
  <path class="cls-8" d="m111.33,66.55c-.74,2.32-2.25,4.15-3.79,4.42-.09.02-.18.03-.27.03-.08-.61-.08-1.3,0-2.05,1.46.38,2.86-.62,4.06-2.4Z"/>
  <path class="cls-13" d="m111.88,59.32c.44-.28.88-.49,1.33-.63h.02c.47,1.15.69,2.6.59,4.24-.31,4.76-3.34,9.07-6.68,9.96l-.18-.85c2.9-.98,5.34-4.98,5.49-9.12.05-1.37-.16-2.6-.56-3.6Z"/>
  <path class="cls-11" d="m63,94.2l-.95-.41-.7-7.39,1.76-13.41,28.77-25.85,6.29-1.38.89.32-6.1,1.47-28.91,25.83-1.86,13.34.79,7.47Z"/>
  <path class="cls-1" d="m62.43,86.83l-.22-.1,1.68-13.33,28.88-25.92,6.29-1.39c.09.03-5.68,1.62-5.68,1.62l-28.71,25.97-2.25,13.15Z"/>
  <ellipse class="cls-46" cx="24.5" cy="44.83" rx="12.25" ry="6.99" transform="translate(-2.35 1.37) rotate(-3.05)"/>
  <path class="cls-7" d="m14.84,49.48c-1.46-1.85-1.2-4.14,1.05-6.04,3.41-2.88,10.1-3.77,14.92-2,3.97,1.46,5.46,4.29,3.94,6.85-.08.08-.16.15-.25.22-3.9,3.29-11.55,4.32-17.07,2.28-1-.37-1.86-.81-2.59-1.32Z"/>
  <path class="cls-28" d="m29.13,48.81s-.06.1-.09.15c-.05.05-.1.09-.15.14-2.39,2.02-6.84,2.5-9.93,1.07-.56-.26-1.04-.56-1.43-.9-.76-1.22-.51-2.68.87-3.84,2.09-1.76,5.99-2.18,8.68-.94,1.38.64,2.19,1.59,2.36,2.61l3.96-.33.35,1.31-4.62.73Z"/>
  <ellipse class="cls-51" cx="46.08" cy="57.64" rx="7.64" ry="4.36" transform="translate(-3 2.53) rotate(-3.05)"/>
  <path class="cls-7" d="m40.28,60.19c-.87-1.11-.72-2.48.63-3.61,2.04-1.72,6.04-2.26,8.93-1.19,2.38.88,3.27,2.57,2.36,4.1-.05.05-.1.09-.15.13-2.33,1.97-6.91,2.58-10.21,1.37-.6-.22-1.11-.49-1.55-.79Z"/>
  <path class="cls-50" d="m41.94,58.66c-.04-.54-.15-2.52-.12-3.03.03-.44.5-.88.98-1.29,1.32-1.11,3.89-1.46,5.75-.77,1.11.41,1.94,1.12,1.96,1.84.02.42.32,2.27.29,2.89-.02.49-.29.98-.81,1.43-1.41,1.19-4.19,1.57-6.19.83-1.17-.43-1.82-1.15-1.87-1.9Z"/>
  <path class="cls-29" d="m41.94,58.66c-.04-.54-.15-2.52-.12-3.03.03-.44.5-.88.98-1.29,1.32-1.11,3.89-1.46,5.75-.77,1.11.41,1.94,1.12,1.96,1.84.02.42.32,2.27.29,2.89-.02.49-.29.98-.81,1.43-1.41,1.19-4.19,1.57-6.19.83-1.17-.43-1.82-1.15-1.87-1.9Z"/>
  <ellipse class="cls-44" cx="52.06" cy="41.3" rx="10.78" ry="6.26" transform="translate(-5.15 7.5) rotate(-7.85)"/>
  <path class="cls-7" d="m43.93,45.28c-1.5-1.63-1.51-3.77.29-5.65,2.73-2.85,8.59-4.05,13.08-2.68,3.7,1.13,5.32,3.67,4.24,6.12-.06.08-.13.15-.2.22-3.12,3.27-9.82,4.64-14.96,3.06-.93-.29-1.75-.65-2.45-1.08Z"/>
  <path class="cls-18" d="m68.05,36.84c-.04-.58-.16-2.71-.13-3.25.03-.48.54-.95,1.06-1.39,1.42-1.19,4.19-1.57,6.19-.83,1.2.44,2.09,1.2,2.11,1.98.02.45.35,2.45.32,3.11-.02.52-.31,1.06-.88,1.54-1.52,1.28-4.51,1.68-6.66.89-1.26-.46-1.96-1.23-2.01-2.05Z"/>
  <path class="cls-40" d="m18.09,47.42c-.05-.64-.18-2.99-.14-3.59.03-.53.6-1.05,1.17-1.53,1.56-1.32,4.61-1.73,6.82-.91,1.32.49,2.3,1.32,2.33,2.18.02.49.38,2.7.35,3.43-.03.58-.34,1.17-.96,1.69-1.68,1.42-4.96,1.86-7.34.98-1.39-.51-2.16-1.36-2.22-2.26Z"/>
  <ellipse class="cls-45" cx="72.6" cy="33.52" rx="4.45" ry="2.54" transform="translate(-1.68 3.91) rotate(-3.05)"/>
  <ellipse class="cls-15" cx="23.11" cy="43.78" rx="4.9" ry="2.79" transform="translate(-2.3 1.29) rotate(-3.05)"/>
  <path class="cls-53" d="m89.83,72.68c-.6,4.27-6.94,17.61-7.96,19.32-1.25,2.09-1.08,5.23-2.75,5.73-.96.29-3.62-1.38-4.32-1.8-1.5-.91-2.26-3.31-1.82-6.45.6-4.27,6.62-16.7,7.32-18.13,1.3-2.67,3.25-4.77,5.22-5.36.96-.29,2.39-.26,3.09.17.43.26,2.51.93,2.8,1.42.73,1.21-1.26,2.86-1.57,5.1Z"/>
  <path class="cls-26" d="m93.53,74.2c-.6,4.27-6.94,17.61-7.96,19.32-1.25,2.09-2.91,3.67-4.57,4.17-3.02.91-4.96-2.09-4.32-6.69.6-4.27,6.62-16.7,7.32-18.13,1.3-2.67,3.25-4.77,5.22-5.36,3.02-.91,4.96,2.09,4.32,6.69Z"/>
  <path class="cls-4" d="m92.26,74.03c-.58,4.17-6.79,17.17-7.79,18.83-1.07,1.78-2.42,3.18-3.84,3.6-1.11.33-1.95-.25-2.39-1.34-.41-1.01-.51-2.37-.29-3.95.58-4.19,6.52-16.35,7.2-17.74,1.12-2.3,2.73-4.18,4.43-4.69,1.11-.33,1.95.25,2.39,1.33.41,1.01.51,2.37.29,3.95Z"/>
  <path class="cls-16" d="m78.3,95.26s-.04-.09-.06-.14c-.41-1.01-.51-2.37-.29-3.95.58-4.19,6.52-16.35,7.2-17.74,1.06-2.17,2.55-3.97,4.15-4.59.25.23.46.55.61.94.39.97.49,2.28.28,3.8-.56,4.01-6.54,16.53-7.5,18.13-1.03,1.71-2.33,3.06-3.7,3.47-.25.07-.48.1-.69.09Z"/>
  <ellipse class="cls-14" cx="86.91" cy="75.11" rx="2.42" ry="1.33" transform="translate(-14.6 128.88) rotate(-68.74)"/>
  <ellipse class="cls-27" cx="80.61" cy="89.76" rx="2.42" ry="1.33" transform="translate(-32.27 132.34) rotate(-68.74)"/>
  <ellipse class="cls-47" cx="80.61" cy="89.77" rx="4.94" ry="2.72" transform="translate(-32.27 132.34) rotate(-68.74)"/>
  <path class="cls-20" d="m80.17,91.61l33.91,14.32-31.87-17.88c-1.99-.79-3.45,2.75-2.05,3.56Z"/>
  <path class="cls-17" d="m80.26,91.17l33.82,14.77-32.17-17.59c-1.22-.51-2.62,2.06-1.65,2.82Z"/>
  <path class="cls-3" d="m80.79,90.55l33.3,15.38-32.59-16.6c-.61.02-.87.83-.7,1.22Z"/>
  <path class="cls-32" d="m26.98,42.22l.19,1.76,5.36-.31-.35-1.37-5.19-.09Z"/>
  <path class="cls-52" d="m27.9,45.12c.08-.39-.4-1-.74-1.14l5.36-.31-.15,3.56-4.42.98-.05-3.1Z"/>
  <path class="cls-31" d="m50.12,54.95c.25.58.16,1.21-.27,1.75-.95,1.19-3.41,1.85-5.54,1.23-.61-.18-1.1-.43-1.46-.73l2.39-.74c.07.03.14.05.22.08.82.24,1.77-.02,2.13-.48.09-.12.15-.25.16-.38l2.38-.74Zm-7.92,1.42c-.24-.58-.14-1.22.32-1.76.97-1.15,3.4-1.8,5.51-1.2.6.17,1.08.42,1.44.71l-2.4.74c-.06-.02-.12-.04-.18-.06-.81-.23-1.74.02-2.12.46-.1.11-.15.24-.17.36l-2.4.74Z"/>
  <path class="cls-41" d="m58.69,56.73l12.02,4.88,15.83-13.56-11.61-4.28-16.24,12.95Z"/>
  <path class="cls-23" d="m59.6,56.92l11.44,4.65,15.06-12.9-11.05-4.07-15.46,12.32Z"/>
</svg>