<svg xmlns="http://www.w3.org/2000/svg" width="40" height="40" viewBox="0 0 40 40">
  <defs>
    <style>
      .cls-1 {
        fill: #fff;
        fill-rule: evenodd;
      }
    </style>
  </defs>
  <path id="Color_Fill_1" data-name="Color Fill 1" class="cls-1" d="M20.122,6.348H20.3V6.522h0.139a0.168,0.168,0,0,0,.035.1,1.894,1.894,0,0,0,.73.035,2.375,2.375,0,0,1,.625-0.035,4.8,4.8,0,0,1,1.6.07,0.545,0.545,0,0,1,.452.1l-1.043.1a3.809,3.809,0,0,1-1.251-.035,4.778,4.778,0,0,0-1.147,0,0.443,0.443,0,0,1-.035.139h0.8a0.6,0.6,0,0,0,.208.07,5.978,5.978,0,0,1,.243,2.574h0.035a0.741,0.741,0,0,1,.348-0.035,2.1,2.1,0,0,1-.1.835c-0.024.057-.121,0.15-0.139,0.209a1.891,1.891,0,0,0,.1.87,0.478,0.478,0,0,1-.139.417,1.4,1.4,0,0,0,.035.591l2.676,0.209,1.077,0.035c0.109,0.038.212,0.2,0.313,0.243a3.235,3.235,0,0,0,.869,0,17.213,17.213,0,0,0,2.989.174,4.382,4.382,0,0,1,.73.1c0.137,0.028.341-.046,0.556,0a7.641,7.641,0,0,0,1.772.1V11.7a1.015,1.015,0,0,0,0-.556h0.069c0.031,0.6.034,1.5,0.035,2.261a0.872,0.872,0,0,0,.278.035,11.869,11.869,0,0,0,1.6.1c0.833,0.181,1.809.049,2.85,0.174a5.628,5.628,0,0,1,1.077.209,1.2,1.2,0,0,0,.556.174v0.139a1.823,1.823,0,0,1,.626,2.122c-0.085.233-.41,0.526-0.452,0.661a2.573,2.573,0,0,1-1.321,1.044c-0.273.117-.534,0.112-0.834,0.209-1.249.4-2.573,0.63-3.858,1.043-0.53.17-1.1,0.271-1.668,0.452a3.952,3.952,0,0,1-.73.209,0.169,0.169,0,0,1-.035.1,0.742,0.742,0,0,1-.521.035c-0.184.039-.44,0.158-0.626,0.209a0.457,0.457,0,0,1-.174-0.035,7.67,7.67,0,0,1-1.494.452c-1.177.386-2.471,0.656-3.649,1.043-0.975.321-1.739,0.412-2.294,1.148a7.761,7.761,0,0,0-1.112,2.852l-0.035.591c-0.12.519-.108,1.157-0.208,1.67a8.759,8.759,0,0,1,1.494.626c1.186,0.513,2.39.951,3.545,1.461,0.556,0.245,1.373.571,1.147,1.5a1.625,1.625,0,0,1-1.494,1.287c-0.357.09-.751,0.024-1.077,0.1l-0.765.035-2.606.278c-0.225-.5-0.522-0.963-0.765-1.461H20.3v0.243A6.631,6.631,0,0,0,20.017,34H19.948V33.444a8.186,8.186,0,0,1-.278-1.565H19.635v0.035c-0.256.29-.526,1.4-0.938,1.426a5.233,5.233,0,0,0-1.286-.139c-1.45-.335-3.487.108-4.205-0.974a1.342,1.342,0,0,1-.278-1.078,1.8,1.8,0,0,1,1.321-1.078c1.067-.459,2.2-0.931,3.267-1.391,0.4-.173.805-0.322,1.182-0.487a0.649,0.649,0,0,0,.417-0.209,11.293,11.293,0,0,1-.209-1.913,8.889,8.889,0,0,0-.8-2.678c-0.859-1.382-2-1.344-3.649-1.878-0.85-.276-1.792-0.49-2.641-0.765a12.356,12.356,0,0,1-1.494-.452,0.5,0.5,0,0,1-.174.035c-0.185-.048-0.442-0.173-0.626-0.209-0.121-.023-0.1.057-0.139,0.07a0.967,0.967,0,0,1-.417-0.1v-0.1a14.234,14.234,0,0,1-2.537-.7C4.165,18.568.9,18.431,0.1,16.365a2.246,2.246,0,0,1,.243-1.809A0.962,0.962,0,0,0,.73,14.1a3.051,3.051,0,0,0,.938-0.278c0.475-.135.931-0.017,1.355-0.1,0.046-.009.3-0.069,0.348-0.069a20.788,20.788,0,0,0,2.919-.174c0.567-.1,1.1.035,1.6-0.07a6.136,6.136,0,0,1,.834-0.1c0.326-.011.778-0.05,1.182-0.069a4.931,4.931,0,0,0,.66,0l0.174-.07a9.594,9.594,0,0,0,1.112,0,11.155,11.155,0,0,1,2.259-.139c0.2-.315.4-0.259,0.9-0.243l3.2-.244a12.958,12.958,0,0,1,.1-2.609c0.052-.243-0.035-0.489,0-0.661V8.539a8,8,0,0,1,.1-1.322,1.653,1.653,0,0,1,1.112-.209V6.87a20.907,20.907,0,0,1-3.44-.1V6.7a7.577,7.577,0,0,0,1.46-.1,1.154,1.154,0,0,1,.417.035L19.5,6.661V6.626h0.035v-0.1H19.67V6.348h0.174a0.954,0.954,0,0,0-.035-0.313,0.388,0.388,0,0,1,.348.035A0.55,0.55,0,0,0,20.122,6.348Z"/>
</svg>
