<svg xmlns="http://www.w3.org/2000/svg" width="40" height="40" viewBox="0 0 40 40">
  <defs>
    <style>
      .cls-1 {
        fill: #fff;
        fill-rule: evenodd;
      }
    </style>
  </defs>
  <path id="Color_Fill_1" data-name="Color Fill 1" class="cls-1" d="M22.106,11.859a24.961,24.961,0,0,1,6.039.452c0.674,0.16,1.4.116,2.05,0.264l1.268,0.113c1.289,0.3,2.729.266,3.989,0.565l0.559,0.038c0.835,0.2,1.809.215,2.647,0.415a1.821,1.821,0,0,1,1.193.339,1.359,1.359,0,0,1,.112.867c-0.066.3,0,.669-0.075,1.018l-0.149,1.357a10.785,10.785,0,0,1-2.088.528c-1.281.348-2.632,0.474-3.952,0.829-1.206.324-2.833,0.613-4.138,1.018-0.662.2-1.348,0.259-1.976,0.452-0.869.268-1.792,0.331-2.647,0.565H22.106a21.614,21.614,0,0,1-.335,4.9l-0.186,1.847c-0.128.56-.184,1.2-0.335,1.734a1.7,1.7,0,0,0-.075.528,7.073,7.073,0,0,0,1.566.3c1.062,0.277,2.255.391,3.318,0.678a5.661,5.661,0,0,1,1.3.264,1.88,1.88,0,0,1,.3.377,2.21,2.21,0,0,1,.037.829,3.764,3.764,0,0,1-1.6,2.337l-1.417.188A11.955,11.955,0,0,1,22.106,35c-0.141-.224-0.379-0.387-0.522-0.6-0.182-.275-0.322-0.6-0.485-0.867a6.94,6.94,0,0,1-.41-0.754,2.02,2.02,0,0,0-.112-0.415V32.4a3.833,3.833,0,0,0-.112.6,1.579,1.579,0,0,1-.112.113,3.536,3.536,0,0,0-.112.6,2.126,2.126,0,0,1-.112.678,4.455,4.455,0,0,0-.3-1.432,1.232,1.232,0,0,0-.149-0.641,5.847,5.847,0,0,1-1.193,2.3,0.6,0.6,0,0,1-.6.377,3.717,3.717,0,0,0-.932-0.113c-0.571-.136-1.258-0.156-1.827-0.3l-0.82-.075c-0.845-.251-1.486-1.565-1.715-2.487a1.114,1.114,0,0,1,.3-1.055,6.782,6.782,0,0,1,1.752-.377c0.946-.254,1.956-0.312,2.945-0.565a7,7,0,0,1,1.566-.3,14.123,14.123,0,0,0-.373-1.847L18.6,26.106a25.373,25.373,0,0,1-.373-5.427h-2.87c-2.116-.515-4.316-0.882-6.375-1.47-0.512-.146-0.979-0.154-1.491-0.3-2.086-.6-4.582-0.974-6.822-1.508a7.3,7.3,0,0,1-.3-2.412H0A1.049,1.049,0,0,1,.075,14.5l0.037,0.377H0.373a2.739,2.739,0,0,1,.075-0.867A5.909,5.909,0,0,1,2.2,13.631c0.92-.219,1.987-0.23,2.908-0.452l0.82-.075c1.2-.285,2.615-0.244,3.84-0.528l0.969-.075c0.541-.125,1.141-0.089,1.715-0.226a25.716,25.716,0,0,1,5.778-.415c0-.762,0-1.392,0-2.111-0.181,0-.13-0.4-0.112-0.678a2.149,2.149,0,0,0,.112-1.055,5.123,5.123,0,0,1,.186-1.206c0.051-.093.165-0.15,0.224-0.264a9.541,9.541,0,0,1,1.007-.038,0.413,0.413,0,0,1,.075-0.113V6.319a0.876,0.876,0,0,0-.3-0.113,2.408,2.408,0,0,0-1.006.038,11.262,11.262,0,0,1-2.274-.151,0.569,0.569,0,0,1-.075-0.151c0.387-.046.875-0.1,1.267-0.188l2.349,0.038a0.94,0.94,0,0,0,.112-0.6,0.656,0.656,0,0,1,.149-0.113A0.428,0.428,0,0,1,20.28,5a0.435,0.435,0,0,1,.186.188,0.9,0.9,0,0,1,.075.528,4.558,4.558,0,0,0,1.118.075A1.937,1.937,0,0,1,22.4,5.754a8.608,8.608,0,0,1,1.789.226,0.569,0.569,0,0,1,.075.151,9.066,9.066,0,0,1-2.349.113,1.994,1.994,0,0,0-1.156,0,0.611,0.611,0,0,0-.186.113V6.394h0.037a1.38,1.38,0,0,0,.932.113,0.724,0.724,0,0,0,.149.075c0.06,0.1.178,0.2,0.224,0.3a9.212,9.212,0,0,1,.149,1.545,6.4,6.4,0,0,1,.112,1.357c-0.127-.008-0.075.281-0.075,0.49v1.583Z"/>
</svg>
