<svg xmlns="http://www.w3.org/2000/svg" width="40" height="40" viewBox="0 0 40 40">
  <defs>
    <style>
      .cls-1 {
        fill: #fff;
        fill-rule: evenodd;
      }
    </style>
  </defs>
  <path id="Color_Fill_1" data-name="Color Fill 1" class="cls-1" d="M28.746,10.808a3.04,3.04,0,0,1,.117-1.439L28.98,9.426v1.439h0.291V9.771L29.5,9.829v1.036h0.233a0.792,0.792,0,0,1,.117-0.576l0.117,0.057v0.576a15.607,15.607,0,0,1,3.44.23c2.49,0.414,5.693-.354,6.472,1.727a2.145,2.145,0,0,1-.175,1.727c-1.79,2.741-7.678,3.485-11.487,4.145-1.824.316-4.835-.172-6.122,0.748a66.609,66.609,0,0,1-1.166,11.8c1.241,0.217,6.312,1.658,6.822,2.418a1.724,1.724,0,0,1,.058,1.324c-1.327,1.016-6.885,2.756-7.347-.173H20.408L20.058,37H19.883l-0.35-2.13H19.475c-0.139,2.757-7.131,1.435-7.464-.288-0.3-1.575,5.61-2.933,7-3.281l-0.933-8.289c-0.186-1.183.153-2.9-.408-3.742-1.36-.4-3.183-0.151-4.723-0.4-3.821-.624-7.479-0.817-10.262-2.418-2.841-1.634-4.482-4.541.641-5.123L3.44,8.908H3.5v2.418c2.113-.063,5.07-0.462,6.531-0.4V10.29H10.2v0.576H10.5V9.771l0.233,0.058q-0.029.518-.058,1.036l0.35-.057A1.442,1.442,0,0,1,11.2,9.368v1.439l6.472-.461c0.393-1.6-.4-4.852.408-6.044,0.316-.469,1.165-0.135,1.749-0.345H19.534c-0.5-.216-5.32.062-5.947-0.518a46.273,46.273,0,0,1,6.064-.23A2,2,0,0,1,19.883,2l0.291,0.058a2.349,2.349,0,0,0,.408,1.209c0.515-.182,5.3-0.145,5.773.23V3.554c-1.742.076-5.325,0.01-6.181,0.461a3.252,3.252,0,0,1,1.691.23,23.8,23.8,0,0,1,.35,6.044l0.117,0.057A37.159,37.159,0,0,0,28.746,10.808Z" transform="translate(0 0.5)"/>
</svg>
