<svg xmlns="http://www.w3.org/2000/svg" width="80" height="40" viewBox="0 0 80 40">
  <defs>
    <style>
      .cls-1 {
        fill: #fff;
        fill-rule: evenodd;
      }
    </style>
  </defs>
  <path id="Color_Fill_1" data-name="Color Fill 1" class="cls-1" d="M49.351,8.97a0.573,0.573,0,0,1-.2.388c2.141,0.172,5.413.1,8.029,0.1h14c2.065,0,4.688-.313,6.561.1a7.686,7.686,0,0,1,1.763.1c-9.883.084-20.252,0.186-30.159,0.194v0.388l0.587-.1v0.194a4.748,4.748,0,0,0,.1.873c0.039-.855.555-0.832,1.469-0.776a3.575,3.575,0,0,1,1.469-.1,2.576,2.576,0,0,1,.49,1.941,6.92,6.92,0,0,0-.685.388h0.587a1.5,1.5,0,0,1,.294-0.582c0.054,0.126,0,.072.1,0.1a17.112,17.112,0,0,0,1.273-1.262v0.194a5.307,5.307,0,0,0-1.175,1.456,1.021,1.021,0,0,1,.685.194,0.477,0.477,0,0,0-.294.1h0.2a1.413,1.413,0,0,0,.685.291c-0.115-.112-0.278-0.178-0.392-0.291,1.553,0.2,2.447,1.446,3.721,1.844,1.013,0.316,1.546-.29,2.448-0.1a7.149,7.149,0,0,1,2.448.776,4.54,4.54,0,0,1,.49.679,0.977,0.977,0,0,1,.588.485h-0.1a0.6,0.6,0,0,0-.2-0.194v0.1l0.2,0.1a3.692,3.692,0,0,0,1.567.582c0,0.252-.127.221,0.2,0.388a8.538,8.538,0,0,0,2.35.776l0.686-.1c0.535,0.125,1.076.585,1.665,0.776,0.742,0.241,1.969.189,2.252,0.874a0.557,0.557,0,0,1,0,.776c-0.3.247-.874,0.245-1.175,0.485a2.01,2.01,0,0,1,.294.776H72.46a3.737,3.737,0,0,0,.1.874h0.686a1.305,1.305,0,0,1,.685-0.1c-0.019-.32-0.137-0.4.2-0.582v0.194c0.064,0.084.131,0.305,0.2,0.388,0.474-.274,1.008.115,1.665,0.1,0.677-.019,3.77-0.266,3.819-0.291a0.476,0.476,0,0,1-.294-0.1H79.9v0.1H80v0.1H79.9c-0.593.351-2.756,0.218-3.525,0.388H75.3a5.319,5.319,0,0,1-.392.388l-1.469.194a19.339,19.339,0,0,1-4.113.582,8.164,8.164,0,0,1,0-1.165,0.855,0.855,0,0,1,.49-0.1v0.1h0.1c-0.308-.323-0.7-0.195-0.881-0.679a0.682,0.682,0,0,0,.49-0.582,0.349,0.349,0,0,1-.1-0.194h-0.1a18.729,18.729,0,0,1-2.35,1.456l-1.567.388-0.294.679H63.452c-0.25.408-1,.321-1.665,0.291V24.013L61,24.11V24.4h0.2a0.5,0.5,0,0,1,.294-0.1V24.5H60.808V24.4a0.492,0.492,0,0,0,.1-0.291l-1.958-.291a20.24,20.24,0,0,0-1.371,2.038h0.2a1.07,1.07,0,0,1,.588-0.1v0.194a2.3,2.3,0,0,0-.686.873h-0.1V26.633a1.314,1.314,0,0,0,.392-0.679h-0.1a1.7,1.7,0,0,1-.588.194v0.1a1.066,1.066,0,0,1,.2.97,1.975,1.975,0,0,1-.881.873,1.673,1.673,0,0,1-1.077.194c-0.9-.8-1.28-0.748-0.881-2.329a2.259,2.259,0,0,1,1.371-.582A3.715,3.715,0,0,1,56.4,24.11H55.618c-0.56.335-1.526,0.034-2.252,0.194-1.41.311-2.983,0.051-4.5,0.388-0.245.054-.915,0.255-1.077,0.291-0.633.141-1.464-.181-2.252,0a6.377,6.377,0,0,1-.979.291,26.293,26.293,0,0,0-5.777-.1c-1.687.367-5.165,0.191-7.246,0.194v0.873H29.67a4.556,4.556,0,0,0-1.077-.388,1.382,1.382,0,0,0-.1-0.485,10.5,10.5,0,0,1-2.644.1l-4.015.1-2.252,2.329c-0.194.122-.45-0.023-0.685,0.1a8.342,8.342,0,0,0-1.273,1.553,1.471,1.471,0,0,1,.294.971,1.723,1.723,0,0,1-.392.291,0.818,0.818,0,0,1-1.273-.873c0.166-.484.811-0.406,1.077-0.776a0.71,0.71,0,0,1-.685-0.291,1.253,1.253,0,0,0,0-.776h0.1a0.464,0.464,0,0,0,.49.194V27.992c-1.039.01-2.417,0-3.721,0-0.145-.5-1.23-2.161-1.763-2.232-0.7-.421-1.761-0.163-2.252-0.776l0.685-.485V24.4H9.694a1.561,1.561,0,0,1-.783.1L7.931,23.43H7.246a0.67,0.67,0,0,1-.1-0.485,0.6,0.6,0,0,0,.2-0.194,20.229,20.229,0,0,1-3.133-3.105,6.077,6.077,0,0,0,2.056-.291c-0.806-.52-1.644-2.079-2.35-2.426-0.656-.323-0.74.06-1.175-0.582a0.336,0.336,0,0,0,.2-0.1l-2.448.194A2.276,2.276,0,0,1,0,15.57a6.415,6.415,0,0,0,2.35-.388,2.576,2.576,0,0,0-1.273-.194V14.7l0.588-.1V14.5a0.6,0.6,0,0,1-.2-0.194c0.758-.066,2.471,0,3.035-0.388A0.982,0.982,0,0,1,4.8,13.435c0.151-.069.013-0.012,0.294,0a3.06,3.06,0,0,0,1.86,1.359,14.845,14.845,0,0,1,1.469-3.3A2.558,2.558,0,0,1,9.2,10.038a0.56,0.56,0,0,1,.49-0.1c0.3,0.119.221,0.036,0.294,0.388-0.679.748-1.463,3.053-1.958,4.076a3,3,0,0,0-.685.1V14.7h0.1a2.29,2.29,0,0,1,.783.485,2.845,2.845,0,0,1,.2.776,8.7,8.7,0,0,1,.881.679H9.4a1.575,1.575,0,0,1,.49-0.679V15.764A1,1,0,0,1,9.3,15.376H9.5a12.18,12.18,0,0,0,1.763,1.165c1.416,0.983,2.882,1.992,4.309,3.008,0.9,0.644,1.408,1.626,2.937,1.65a7.727,7.727,0,0,1,2.056-.388c1.246-.317,2.764-0.559,4.015-0.873a5.168,5.168,0,0,0,1.567-.291c0.556-.686.66-1.61,1.371-2.135,1.622-1.2,5.745-2.226,8.323-2.426,0-.53-0.033-0.96,0-1.262,0.486-.366.778-1,1.273-1.359,2.014-1.441,4.727-1.928,8.127-1.941v-0.1c-0.039-.038-0.421-0.53-0.1-0.582H39.853c-0.464-.282-4.46-0.1-5.385-0.1h-14.1c-1.274,0-4.7.3-5.484-.194,7.232,0.016,14.837-.1,22.228-0.1h5.679a6.109,6.109,0,0,0,2.448-.194c-0.249-.141-0.111.021-0.2-0.291H44.651V8.776c0.921-.6,4.551-1.336,5.092.194H49.351Zm-3.427.291a0.664,0.664,0,0,0,.685,0H45.924Zm1.86,0a0.4,0.4,0,0,0,.49,0h-0.49Zm0.588,0a0.354,0.354,0,0,0,.2.1A0.354,0.354,0,0,0,48.372,9.262Zm-0.685.582v0.1h-0.1c-0.188.075,0.2,0.1,0.2,0.1A0.332,0.332,0,0,0,47.687,9.844Zm0.979,0v0.194h0.1V9.844h-0.1Zm-2.84.1a0.522,0.522,0,0,0,.587,0H45.826Zm0.783,0a0.354,0.354,0,0,0,.2.1A0.354,0.354,0,0,0,46.61,9.941Zm1.469,0a0.4,0.4,0,0,0,.49,0h-0.49Zm-2.546.388a0.822,0.822,0,0,0,.783,0H45.532Zm7.932,0.291a0.349,0.349,0,0,1,.1.194h-0.1V10.62Zm0.1,0.291a0.492,0.492,0,0,1,.1.291h-0.1V10.911Zm0.1,0.388a0.648,0.648,0,0,1,0,.679V11.3Zm-3.623,1.553h0.49v-0.1a0.811,0.811,0,0,1-.49-0.582h-0.1v0.194A0.833,0.833,0,0,1,50.037,12.852Zm4.5-.1h0.2v0.1A0.337,0.337,0,0,1,54.541,12.755Zm-44.553,3.3a1.91,1.91,0,0,1-.392.582,0.331,0.331,0,0,0,.1.194,24.281,24.281,0,0,0,4.015,2.717,1.063,1.063,0,0,1,.2-0.291v0.291a0.35,0.35,0,0,0-.1.194H14v-0.1a1.28,1.28,0,0,0,.392-0.582h0.1c0.1-.1-0.1-0.1-0.1-0.1A23.744,23.744,0,0,0,9.988,16.055Zm54.541,0.776a0.552,0.552,0,0,0,.587.388,1.153,1.153,0,0,0,.49.194v-0.1Zm-51.31,2.135a0.476,0.476,0,0,1,.294.1A0.476,0.476,0,0,1,13.219,18.966Zm0.294,0.1,0.294,0.1v0.1A0.372,0.372,0,0,1,13.513,19.063Zm1.077,0.1a1.91,1.91,0,0,1-.392.582,0.332,0.332,0,0,0,.1.194A3.929,3.929,0,0,0,17.528,21.3V21.2C16.469,20.671,15.734,19.542,14.59,19.16Zm54.933,2.232a0.681,0.681,0,0,1,.1.582c-0.131.269-.259,0.217-0.392,0.485h0.1a4.47,4.47,0,0,0,.685.194V22.266A2.293,2.293,0,0,0,69.523,21.392Zm2.644,0.582v0.1h-0.1c-0.188.075,0.2,0.1,0.2,0.1A0.332,0.332,0,0,0,72.167,21.975ZM56.989,24.013a5.307,5.307,0,0,1-.49,1.456h0.2v-0.1a1.658,1.658,0,0,1,.783-0.776V24.5a2.422,2.422,0,0,0,.49-0.582h-0.2A1.561,1.561,0,0,1,56.989,24.013ZM14.1,27.118a3.277,3.277,0,0,0-.1-0.776H13.219a1.76,1.76,0,0,0-.1.582,0.754,0.754,0,0,0,.294.291A1.308,1.308,0,0,1,14.1,27.118Zm3.721,0.874v0.291h0.392a0.6,0.6,0,0,1,.2-0.194v-0.1H17.821Z" transform="translate(0 0.453)"/>
</svg>
