<svg xmlns="http://www.w3.org/2000/svg" width="40" height="40" viewBox="0 0 40 40">
  <defs>
    <style>
      .cls-1 {
        fill: #fff;
        fill-rule: evenodd;
      }
    </style>
  </defs>
  <path id="Color_Fill_1" data-name="Color Fill 1" class="cls-1" d="M21.208,9.992h0.328v0.163c-0.22-.067-0.108.013-0.287,0.041v4.158a1.031,1.031,0,0,0,.328.041q0.02-1.3.041-2.609a7.917,7.917,0,0,1,0-1.386H21.74c-0.019.252,0,.554,0,0.978,0.114,0,.089-0.047.123,0.122-0.215.019-.123,0.379-0.123,0.693v2.242a16.8,16.8,0,0,0,2.907.163V14.558h0.041a18.038,18.038,0,0,1,.614-4.036H24.974a1.6,1.6,0,0,1-.45.041,5.6,5.6,0,0,1-2.17-.245,28.66,28.66,0,0,1,3.03-.122,1.661,1.661,0,0,1,.9-1.427,3.254,3.254,0,0,1,.737,1.427l1.556-.041a7.912,7.912,0,0,0,1.392.122v0.041H29.928a2.668,2.668,0,0,1-.778.122,5.557,5.557,0,0,1-2.047.082v0.041a2,2,0,0,1,.123.53c0.066,0.217.189,0.505,0.246,0.734v0.611c0.008,0.021.113,0.092,0.123,0.122a7.791,7.791,0,0,1,.041.9c0.155,0.709-.314,1.514.573,1.508,0.444,0.27,2.011.1,2.661,0.245,0.477,0.105,1.069.005,1.6,0.122,1.481,0.328,3.185.123,4.667,0.448,1.1,0.241,2.845-.082,2.866,1.182-0.1.132-.111,0.317-0.2,0.448a6.869,6.869,0,0,1-.778.693,2.19,2.19,0,0,1-.491.244,13.628,13.628,0,0,1-3.152,1.1A9.064,9.064,0,0,1,33.7,19.9v0.245l-1.392.326v-0.2H32.262a11.639,11.639,0,0,1-2.047.53c-1.7.554-3.578,0.874-5.281,1.427l-0.819.163a5.125,5.125,0,0,0-2.62,1.468c-0.609.819-.229,2.1-0.491,3.261v0.815c-0.081.366,0.01,0.809-.082,1.223a4.386,4.386,0,0,0-.082,1.386,31.361,31.361,0,0,0,3.726.815,4.917,4.917,0,0,0,1.8.326l0.082-.245a0.148,0.148,0,0,1,.041.081,7,7,0,0,1,.041,2.691,3.642,3.642,0,0,1-.082,1.141,3.31,3.31,0,0,0-.246-1.386c-0.88.823-2.77,0.719-4.012,1.06a9.353,9.353,0,0,0-1.842.285A3.168,3.168,0,0,1,19.98,36V35.919c-0.2-.237-0.081-0.611-0.491-0.652a7.944,7.944,0,0,0-1.679-.244c-0.8-.192-1.73-0.182-2.538-0.408-0.475-.133-0.923-0.409-1.392-0.489v-0.2H13.838v0.041c-0.334.406-.065,1.074-0.287,1.427-0.009-1.137-.381-2.922,0-3.954,0.136,0.16.062,0.272,0.368,0.285l5.24-1.141a2.339,2.339,0,0,0,.041-0.652,4.6,4.6,0,0,1-.082-1.182c-0.2-.94.005-2.1-0.2-3.057a6.2,6.2,0,0,0-.082-1.345,4.431,4.431,0,0,0-2.784-1.916c-0.434-.14-0.83-0.144-1.269-0.285-1.7-.55-3.575-0.878-5.281-1.427-0.6-.191-1.21-0.225-1.76-0.448a0.429,0.429,0,0,1-.041.245,4.916,4.916,0,0,0-1.351-.367V19.9A6.771,6.771,0,0,1,4.79,19.49,12.02,12.02,0,0,1,.983,18.023c-0.246-.173-1.25-0.844-0.9-1.386,0.331-.968,2.157-0.654,3.275-0.9,0.871-.19,1.915-0.1,2.784-0.285H6.633c0.429-.093,1-0.07,1.433-0.163H8.721c0.585-.127,1.249-0.025,1.883-0.163a8.159,8.159,0,0,1,1.556-.163c0.457-.676.053-1.209,0.246-2.079a2.493,2.493,0,0,1,.041-0.367c0.008-.02.113-0.092,0.123-0.122V11.745a9.927,9.927,0,0,0,.327-1.223c-0.7.022-2.423,0.142-2.907-.2a28.263,28.263,0,0,1,2.989-.122c0.174-.478.349-1.383,0.942-1.427a6.838,6.838,0,0,1,.614.978L14.657,10.2h0.409a1.938,1.938,0,0,1,.737-0.041l1.8,0.122v0.041H17.564a1.934,1.934,0,0,1-.532.082,5.115,5.115,0,0,1-2.293.122V10.6a8.766,8.766,0,0,1,.327,1.1V12.4c0.019,0.048.145,0.144,0.164,0.2v1.3c0.044,0.2.095,0.509,0.123,0.693a19.506,19.506,0,0,0,2.948-.163V11.582a7.669,7.669,0,0,1,0-1.182h0.123v0.082a3.437,3.437,0,0,1,0,1.06v2.854h0.328a5.575,5.575,0,0,0,.041-1.427V9.911L19,8.239a10.48,10.48,0,0,0,.7-3.017h0.082V6.079h0.041A0.164,0.164,0,0,1,19.98,6V4h0.082V6l0.164,0.041L20.266,5.1h0.082V6.242a1.838,1.838,0,0,1,.328.815A8.955,8.955,0,0,1,21.208,9.992Zm4.913,20.994H26.2v0.163H26.121V30.986Z"/>
</svg>
