<svg xmlns="http://www.w3.org/2000/svg" width="39.969" height="40" viewBox="0 0 39.969 40">
  <defs>
    <style>
      .cls-1 {
        fill: #fff;
        fill-rule: evenodd;
      }
    </style>
  </defs>
  <path id="Color_Fill_1" data-name="Color Fill 1" class="cls-1" d="M16.307,12.119h1.735a0.8,0.8,0,0,1,.446-0.587V11.483h-0.2a0.423,0.423,0,0,1-.3.343,0.6,0.6,0,0,0-.3-0.147V11.532c0.246-.311.265-0.8,0.5-1.126a1.347,1.347,0,0,0,.3-0.294H18.34a0.855,0.855,0,0,1-.3.392,1.274,1.274,0,0,0-.4-0.2,5.194,5.194,0,0,1,1.487-2.2h0.744V8.056H19.133c0.021-.633.359-1.584,0.942-1.664a2.678,2.678,0,0,1,.743,1.664,1.646,1.646,0,0,0-.694.049h0.744a3.164,3.164,0,0,0,.446.392l0.149,0.392,0.2,0.049a1.825,1.825,0,0,1,.347.734,1.186,1.186,0,0,1,.248.636c-0.084.078-.214,0.116-0.3,0.2a0.17,0.17,0,0,1-.1-0.049c-0.091-.094-0.168-0.242-0.248-0.343l-0.149.049a3.439,3.439,0,0,1,.843,1.518h-0.1a0.339,0.339,0,0,1-.347.1,0.492,0.492,0,0,0-.347-0.294v0.049a5.743,5.743,0,0,1,.446.587h1.784a9.478,9.478,0,0,1,.2-2.2V9.378c0.163-.717.141-1.632,0.347-2.252a1.137,1.137,0,0,1,.793-1.077,0.28,0.28,0,0,1,.2,0l0.5,0.538a12.233,12.233,0,0,1,.4,2.5,17.289,17.289,0,0,1,.3,3.475H34.25c1.447,0,2.976-.1,3.866.441,0.933,0.569,2.6,2.717,1.487,4.259a5.448,5.448,0,0,1-2.924,1.175,2.937,2.937,0,0,1-.644,2.056c-1.626,1.64-6.491,1.235-9.814,1.224a2.186,2.186,0,0,0-.05.636,13.213,13.213,0,0,0-.248,2.154c-0.16.7-.124,1.475-0.3,2.2a9.719,9.719,0,0,0-.3,1.958,1.718,1.718,0,0,1,.248,2.79c-0.832.592-3.088,0.649-4.51,0.636a4.023,4.023,0,0,0-.595-1.42h-0.05v0.1a2.944,2.944,0,0,0,0,.587c-0.128.526-.215,1.25-0.347,1.811a3.05,3.05,0,0,1-.1.832c-0.037-1.165-.377-2.355-0.4-3.329h-0.05a0.179,0.179,0,0,1-.1.049,3.891,3.891,0,0,0-.5,1.371c-1.685.031-4.107-.022-4.808-0.979a1.427,1.427,0,0,1-.347-1.273c0.167-.564.832-0.935,0.942-1.42a6.1,6.1,0,0,1-.248-1.615c-0.195-.805-0.148-1.717-0.347-2.594a15.363,15.363,0,0,1-.3-2.5c-2.959.03-7.175,0.341-9.12-.685a2.74,2.74,0,0,1-1.388-2.594A5.229,5.229,0,0,1,.347,17.21c-1.032-1.477.518-3.6,1.437-4.161,0.937-.574,2.472-0.49,4.015-0.489h7.782a13.347,13.347,0,0,1,.248-3.133c0.161-.716.053-1.5,0.248-2.1,0.172-.534.223-1.207,0.843-1.273a0.561,0.561,0,0,1,.3.049l0.446,0.587a13.905,13.905,0,0,1,.347,2.3A16.023,16.023,0,0,1,16.307,12.119Zm-0.2,9.007a40.435,40.435,0,0,1-.644,5.287c-0.142.588-.06,1.183-0.248,1.713h0.1A7.8,7.8,0,0,1,18.934,27.1c0.054-2.027-.511-3.893-0.545-5.923Zm7.831,0-2.33.049a7.619,7.619,0,0,0-.149,1.469l-0.4,3.035a3.377,3.377,0,0,0,0,1.371,7.387,7.387,0,0,0,1.537.294l1.586,0.489a5.217,5.217,0,0,0,.644.343V28.126a8.414,8.414,0,0,1-.3-1.909c-0.143-.6-0.095-1.287-0.248-1.958A16.644,16.644,0,0,1,23.941,21.126Z" transform="translate(0 -0.016)"/>
</svg>
