<svg xmlns="http://www.w3.org/2000/svg" width="39.969" height="40" viewBox="0 0 39.969 40">
  <defs>
    <style>
      .cls-1 {
        fill: #fff;
        fill-rule: evenodd;
      }
    </style>
  </defs>
  <path id="Color_Fill_1" data-name="Color Fill 1" class="cls-1" d="M21.6,10.2c-0.16.04-.075-0.024-0.148,0.1a12.977,12.977,0,0,1,.3,2.672c0.843-.056,1.985-0.014,2.509-0.049a1.671,1.671,0,0,0,.1-0.291H24.5v0.146a0.454,0.454,0,0,0,.246.146c0.282,0.122.729-.115,1.279,0a8.774,8.774,0,0,0,1.525.1v0.1h-0.3c-0.479.283-2.26-.087-2.657,0.194a0.324,0.324,0,0,1,.049.194L30.7,14.035v-0.1a3.735,3.735,0,0,1,.443-1.214c0.073-.054.15-0.1,0.2-0.049a1.572,1.572,0,0,1,.541,1.457,0.973,0.973,0,0,0,.3,0c0.08-.168-0.04-0.85.049-1.117h0.049v1.166a10.092,10.092,0,0,1,1.968.194c0.712,0.154,1.461.053,2.116,0.194H36.9c0.9,0.2,2.035.139,2.9,0.34a1.172,1.172,0,0,1,.1.34,2.215,2.215,0,0,1,.049.632,10.8,10.8,0,0,1-.344,2.526,8.569,8.569,0,0,0-1.722.34c-0.908.243-1.842,0.314-2.706,0.534-0.54.138-1,.1-1.525,0.243-2.333.624-4.9,0.837-7.232,1.457-1.6.424-3.829,0.3-4.674,1.457-0.368.506-.175,1.235-0.344,1.992-0.244,1.089-.267,2.32-0.443,3.4a8.778,8.778,0,0,0-.2,1.846c0.809,0.734,3.645.857,5.215,0.874L26.027,30.7c0.278,0.35-.066,1.29-0.1,1.749-1.784.179-3.447,0.907-5.264,1.02a4.967,4.967,0,0,0-.394-0.777v0.1A7.019,7.019,0,0,0,20.025,34a0.174,0.174,0,0,1-.049-0.1c-0.2-.311-0.041-0.909-0.246-1.214v0.049c-0.235.278-.128,0.705-0.64,0.729a5,5,0,0,0-1.23-.243c-0.759-.2-1.645-0.333-2.411-0.534a2.637,2.637,0,0,1-1.328-.34c-0.142-.193-0.322-1.665-0.049-1.8h0.394a3.1,3.1,0,0,1,.689-0.049c0.641-.138,1.474-0.057,2.116-0.194h0.689a8.96,8.96,0,0,1,1.328-.583l-0.64-5c-0.266-1.185.131-2.047-.738-2.672-1.06-.762-3.11-0.745-4.576-1.117-2.905-.738-6.056-1.029-8.954-1.8-0.925-.245-1.882-0.3-2.755-0.534a4.065,4.065,0,0,1-1.181-.243A9.4,9.4,0,0,1,.049,15.93,1.412,1.412,0,0,1,.3,14.91c0.4-.291,1.661-0.112,2.263-0.243l5.56-.534a1.782,1.782,0,0,1,.492-1.409c0.085-.064.079-0.084,0.148-0.049a1.485,1.485,0,0,1,.541,1.36l6.1-.534a0.2,0.2,0,0,1,.049-0.243,30.021,30.021,0,0,1-3-.146v-0.1c0.921-.1,2.37-0.029,3-0.1l0.1-.291a0.169,0.169,0,0,1,.1.049c0.106,0.133.037,0.188,0.246,0.243a17.653,17.653,0,0,0,2.411.049c0-.777.158-1.516,0.2-2.186,0.009-.156-0.119-0.062-0.148-0.146l0.049-.486c0.2-.055.2-0.085,0.2-0.34a1.263,1.263,0,0,0-.049-0.777H18.7A4.323,4.323,0,0,1,19.828,5.68h0.148V5h0.1V5.68A1.975,1.975,0,0,1,21.058,6.8V7.235c0.054,0.226.061,0.55,0.148,0.826a1.084,1.084,0,0,1,.148.34H21.3a0.166,0.166,0,0,0-.049-0.1V8.546c0.222,0.365-.033,1.1.2,1.457a0.35,0.35,0,0,1,.1-0.389V9.663H21.6A2.3,2.3,0,0,0,21.6,10.2ZM18.647,9.08a0.4,0.4,0,0,0,.049.243A0.4,0.4,0,0,0,18.647,9.08Zm-2.312,4.129V13.4a7.394,7.394,0,0,0,1.919.049,0.814,0.814,0,0,1,.049-0.291H17.368A2.717,2.717,0,0,1,16.335,13.209Zm5.412-.049v0.291h1.87V13.258Zm-5.707.291a0.692,0.692,0,0,0-.049-0.243,1.247,1.247,0,0,0-.246.1C15.928,13.4,15.71,13.432,16.039,13.452Zm7.921,0h0.246a0.612,0.612,0,0,1,.049-0.194,1.027,1.027,0,0,0-.3,0v0.194ZM9.692,19.233v0.1H9.742A0.166,0.166,0,0,0,9.692,19.233Zm20.566,0.389a1.148,1.148,0,0,0,.049.534A1.148,1.148,0,0,0,30.258,19.621ZM19.336,29.871a2.2,2.2,0,0,0-.935.389l0.984-.1A0.879,0.879,0,0,1,19.336,29.871Zm1.328,0v0.34a2.678,2.678,0,0,0,.935,0A9.246,9.246,0,0,0,20.664,29.871Z" transform="translate(0 0.5)"/>
</svg>
