<svg xmlns="http://www.w3.org/2000/svg" width="40" height="40" viewBox="0 0 40 40">
  <defs>
    <style>
      .cls-1 {
        fill: #fff;
        fill-rule: evenodd;
      }
    </style>
  </defs>
  <path id="Color_Fill_1" data-name="Color Fill 1" class="cls-1" d="M21.918,13.2h1.488v0.057h0.057a20.131,20.131,0,0,1,.057,3.9,13.008,13.008,0,0,0,1.03,1.722,7.159,7.159,0,0,0,.458.976,8.586,8.586,0,0,0,1.145.459c0.676,0.3,1.343.66,2.061,0.976,2.273,1,4.561,2.186,6.812,3.271,0.139,1.054.858,2.086,0.973,3.329a6.6,6.6,0,0,1-1.317-.344c-0.873-.271-1.761-0.421-2.576-0.689-1.325-.436-2.623-0.542-3.95-0.976-1.683-.55-3.5-1.043-5.267-1.435v1.664a2.61,2.61,0,0,0-.057,1.033,11.361,11.361,0,0,1,1.546,2.181c0.649,0.925,1.436,1.813,2.061,2.755,0.281,0.423.42,0.887,0.687,1.32a9.234,9.234,0,0,1,.744,1.148V36.9H27.757l-5.438-1.894a0.535,0.535,0,0,0,0-.459,0.607,0.607,0,0,1-.057.344c-0.008-.216.027-0.2-0.114-0.287a0.744,0.744,0,0,1-.057.4,2.966,2.966,0,0,1-1.832,0,0.745,0.745,0,0,0-.057-0.4,17.711,17.711,0,0,1-.114,3.386,4.553,4.553,0,0,0,.114.746l-0.114.057A6.229,6.229,0,0,1,19.971,40c0-1.221-.114-2.362-0.114-3.673a4.667,4.667,0,0,0-.057-1.664c0,0.224.028,0.258-.114,0.344a3.1,3.1,0,0,1-1.832,0,0.745,0.745,0,0,0-.057-0.4,0.607,0.607,0,0,1-.057.344,0.278,0.278,0,0,0-.057-0.172v0.287a5.716,5.716,0,0,0-1.546.517l-3.95,1.32V34.548a24.21,24.21,0,0,0,1.488-2.582c0.8-1.149,1.647-2.281,2.462-3.443a11.186,11.186,0,0,0,1.03-1.32V24.849a0.762,0.762,0,0,1-.057-0.4H16.995a4.065,4.065,0,0,1-1.088.287c-1.027.334-2.116,0.526-3.206,0.861-1.686.517-3.479,0.815-5.209,1.377A20.839,20.839,0,0,1,4,27.891V27.776a3.442,3.442,0,0,0,.229-0.918,8.636,8.636,0,0,1,.916-2.41l0.515-.172c0.632-.315,1.262-0.618,1.946-0.918,1.564-.686,3.129-1.609,4.694-2.3,0.719-.315,1.385-0.679,2.061-0.976a1.8,1.8,0,0,0,.687-0.287,8.6,8.6,0,0,0,.458-0.976,10.767,10.767,0,0,0,.973-1.607,4.743,4.743,0,0,0-.114-1.607,0.587,0.587,0,0,1,.114-0.287V13.773a3.633,3.633,0,0,0,.115-0.574h1.488v2.009H18.2V14.29a10.561,10.561,0,0,0,.057-2.525,0.3,0.3,0,0,1-.286-0.344h0.057a1.092,1.092,0,0,0,.229.172V11.248L18.483,7.4c0.207-.932.172-1.993,0.458-2.869,0.276-.848.683-1.709,0.973-2.525,0.178-.5-0.166-1.566.114-2.009-0.044,2.209.66,3.22,1.145,4.821,0.279,0.92.113,1.865,0.343,2.869a20.627,20.627,0,0,1,.343,3.845h0.057a0.207,0.207,0,0,1,.114-0.057,0.278,0.278,0,0,1,.057-0.172V11.65c-0.343.106-.251,0.712-0.229,1.148a9.927,9.927,0,0,0-.057,2.41h0.114V13.2ZM18.311,7.116a0.276,0.276,0,0,1,.172.057A0.276,0.276,0,0,1,18.311,7.116Zm3.263,0.057h0.114V7.231A0.2,0.2,0,0,1,21.574,7.174Zm0.8,27.03a0.372,0.372,0,0,0,.057.23A0.372,0.372,0,0,0,22.376,34.2Zm-4.751.172a0.481,0.481,0,0,0,.057.287A0.482,0.482,0,0,0,17.624,34.376Z"/>
</svg>
