<svg xmlns="http://www.w3.org/2000/svg" width="40" height="40" viewBox="0 0 40 40">
  <defs>
    <style>
      .cls-1 {
        fill: #fff;
        fill-rule: evenodd;
      }
    </style>
  </defs>
  <path id="Color_Fill_1" data-name="Color Fill 1" class="cls-1" d="M21.8,14.984h1.416a16.032,16.032,0,0,0,.193,2.058l-0.064.836a14.494,14.494,0,0,0,.773,1.8,12.528,12.528,0,0,0,.515,1.479,18.089,18.089,0,0,0,2.446,1.093c1.576,0.691,3.23,1.519,4.764,2.315,0.459,0.239,1.993.716,2.189,1.093A8.809,8.809,0,0,1,35,28.746H34.936a4.152,4.152,0,0,0-1.03-.257c-0.773-.238-1.615-0.372-2.446-0.643-1.8-.587-3.736-0.875-5.6-1.479a14.62,14.62,0,0,0-3.154-.836q-0.032,1.222-.064,2.444a10.2,10.2,0,0,0,1.223,1.608c0.394,0.558.7,1.114,1.094,1.672,0.348,0.493.836,0.965,1.159,1.479,0.266,0.424.382,0.859,0.644,1.286a7.116,7.116,0,0,1,.579.836v2.251H27.21a4.485,4.485,0,0,0-.966-0.322c-1.27-.52-2.705-0.878-3.991-1.415V35.5c-0.057.09-.07,0.361-0.129,0.45a0.415,0.415,0,0,0-.064-0.257v0.064c-0.045.065-.083,0.257-0.129,0.322a4.306,4.306,0,0,1-1.609.064,2.081,2.081,0,0,0-.129-0.386A23.824,23.824,0,0,1,20,40c-0.011-.991-0.128-1.786-0.129-2.83a4.029,4.029,0,0,0-.064-1.479,0.678,0.678,0,0,1-.064.386,4.505,4.505,0,0,1-1.674.064V36.077H18a0.678,0.678,0,0,0-.064-0.386,0.537,0.537,0,0,1-.064.322,0.888,0.888,0,0,0-.193-0.643,6.669,6.669,0,0,1-1.674.579,31.163,31.163,0,0,1-3.348,1.157V34.92a14.076,14.076,0,0,0,1.288-2.251c0.7-1.06,1.508-2.091,2.253-3.151a9.7,9.7,0,0,0,1.159-1.479V26.174a1.372,1.372,0,0,1-.064-0.643,10.733,10.733,0,0,0-2.639.707c-1.81.584-3.6,0.765-5.408,1.351A19.45,19.45,0,0,1,5,28.682V28.617a7.19,7.19,0,0,0,.451-1.672c0.144-.433.389-0.883,0.515-1.35,2.253-.978,4.465-2.231,6.7-3.215,0.518-.229,2.539-0.948,2.7-1.351a5.554,5.554,0,0,0,.515-1.286,15.868,15.868,0,0,0,.773-1.8l-0.064-.836a11.3,11.3,0,0,0,.193-2.122H18.2a7.136,7.136,0,0,0,.064,1.929h0.064V13.119a1.373,1.373,0,0,0,.064-0.643,0.4,0.4,0,0,1-.322-0.45h0.064a0.348,0.348,0,0,0,.258.257V11.254l0.193-3.022c0.25-1.1.164-2.328,0.451-3.473,0.279-1.115.617-2.281,0.9-3.28A7.112,7.112,0,0,1,20.064,0a9.469,9.469,0,0,0,.644,3.344c0.2,0.7.223,1.442,0.386,2.122,0.395,1.644.139,3.59,0.515,5.273,0.1,0.466-.013,1.087.064,1.479H21.8a0.393,0.393,0,0,1,.129-0.129v0.257c-0.389.134-.257,0.668-0.258,1.157v3.344h0.064v0.064H21.8V14.984Z"/>
</svg>
