<svg xmlns="http://www.w3.org/2000/svg" width="40" height="40" viewBox="0 0 40 40">
  <defs>
    <style>
      .cls-1 {
        fill: #fff;
        fill-rule: evenodd;
      }
    </style>
  </defs>
  <path id="Color_Fill_1" data-name="Color Fill 1" class="cls-1" d="M21.957,15.2V13.146h1.491L23.635,15.7a4.475,4.475,0,0,0-.062,1.558,12.361,12.361,0,0,0,.994,1.62c0.174,0.286.187,0.587,0.373,0.872a19.911,19.911,0,0,0,2.548,1.184c2.433,1.213,4.925,2.483,7.456,3.551A10.129,10.129,0,0,1,36,27.913H35.938L22.889,24.424v1.807a2.261,2.261,0,0,0-.062.935,10.589,10.589,0,0,1,1.615,2.243c0.643,0.918,1.437,1.8,2.051,2.741,0.331,0.5.493,1.041,0.808,1.558a7.29,7.29,0,0,1,.559.81v2.368a4.539,4.539,0,0,1-1.243-.436c-0.846-.348-1.754-0.546-2.548-0.872a6.9,6.9,0,0,1-1.678-.561,1.222,1.222,0,0,0-.248-0.374,0.659,0.659,0,0,1-.062.374,2.058,2.058,0,0,1-.87.062,4.481,4.481,0,0,1-.87,0V35.016H20.28a0.659,0.659,0,0,0-.062-0.374,15.188,15.188,0,0,1-.124,3.178,6.4,6.4,0,0,0,0,1A5.024,5.024,0,0,1,19.969,40c0-1.187-.122-2.347-0.124-3.614a4.884,4.884,0,0,0-.062-1.745,0.659,0.659,0,0,1-.062.374,1.871,1.871,0,0,1-.808.062,2.78,2.78,0,0,1-1.056-.062,0.659,0.659,0,0,0-.062-0.374,0.523,0.523,0,0,1-.062.312A0.4,0.4,0,0,0,17.67,34.7a1.061,1.061,0,0,1-.062.374L12.2,36.885a8.011,8.011,0,0,1-.062-2.243,7.893,7.893,0,0,1,.87-1.433c1.019-1.641,2.019-3.122,3.107-4.673a8.878,8.878,0,0,0,1.056-1.371V25.047a1.333,1.333,0,0,1-.062-0.623H17.049a4.672,4.672,0,0,1-1.181.311c-0.892.276-1.846,0.437-2.8,0.748C10.893,26.2,8.48,26.642,6.3,27.352c-0.778.253-1.55,0.287-2.3,0.561V27.726c0.5-.8.453-2.444,1.056-3.178a9.6,9.6,0,0,1,2.113-1c1.657-.828,3.406-1.745,5.1-2.492,0.737-.326,1.423-0.692,2.113-1a2.09,2.09,0,0,0,.684-0.249,9.525,9.525,0,0,0,.435-1,12.839,12.839,0,0,0,.994-1.62l-0.062-1.122a24.868,24.868,0,0,1,.186-2.928H18.1V15.2h0.124V11.713c-0.271-.065-0.3-0.1-0.311-0.436h0.062c0.07,0.21.07,0.206,0.311,0.249-0.013-1.546.142-2.958,0.248-4.361A0.3,0.3,0,0,1,18.353,7.1H18.54c0.044-2.208.975-3.619,1.429-5.3,0.143-.526-0.2-1.4.062-1.807-0.042,2.165.639,3.169,1.118,4.735,0.293,0.956.127,2,.373,3.053a17.855,17.855,0,0,1,.311,3.738H21.9a0.224,0.224,0,0,1,.124-0.062,0.3,0.3,0,0,1,.062-0.187v0.312a0.464,0.464,0,0,0-.249.249,1.136,1.136,0,0,1,.062.623c-0.172.778,0.106,2.073-.124,2.741h0.186ZM17.608,34.33a0.4,0.4,0,0,0,.062.249A0.4,0.4,0,0,0,17.608,34.33Zm4.722,0.125a0.659,0.659,0,0,0,.062.374A0.659,0.659,0,0,0,22.33,34.455Z"/>
</svg>
