<svg xmlns="http://www.w3.org/2000/svg" width="40" height="40" viewBox="0 0 40 40">
  <defs>
    <style>
      .cls-1 {
        fill: #fff;
        fill-rule: evenodd;
      }
    </style>
  </defs>
  <path id="Color_Fill_1" data-name="Color Fill 1" class="cls-1" d="M21.925,12.992h1.494a3.329,3.329,0,0,0,.115.57v1.823h0.115a10.773,10.773,0,0,0-.115,1.6,10.674,10.674,0,0,0,1.149,1.937,3.6,3.6,0,0,0,.287.684,6.18,6.18,0,0,0,1.436.627V19.6a1.941,1.941,0,0,0,.058-0.912h0.115v0.057a3.277,3.277,0,0,1,.172,1.709h0.115a1.13,1.13,0,0,0,.23.114,1.275,1.275,0,0,1,.172-0.969,1.772,1.772,0,0,0,.23,1.14,0.294,0.294,0,0,0,.172.057c-0.015-.513-0.057-1.912.287-2.108a21.4,21.4,0,0,1,.115,2.336l4.137,1.937V20.456a3.414,3.414,0,0,0,.057-0.741,5.9,5.9,0,0,1,.4-1.937v0.114a3.119,3.119,0,0,1,.23,1.14,21.746,21.746,0,0,1,.172,4.33,7.233,7.233,0,0,1,1.781.912A8.277,8.277,0,0,1,36,27.578a11.008,11.008,0,0,1-2.643-.684c-0.365-.118-0.8-0.03-1.092-0.114V26.61a8.716,8.716,0,0,1-2.183-.57c-1.328-.433-2.637-0.54-3.964-0.969a15.183,15.183,0,0,0-3.217-.855v0.114a10.684,10.684,0,0,0-.057,2.564A11.288,11.288,0,0,1,24.4,29.06c0.651,0.918,1.447,1.8,2.068,2.735,0.244,0.369.342,0.763,0.575,1.14a7.794,7.794,0,0,1,.8,1.254v2.279a5.041,5.041,0,0,1-1.206-.4c-0.863-.318-1.71-0.553-2.528-0.855a6.517,6.517,0,0,1-1.724-.57c-0.037-.049-0.077-0.179-0.115-0.228a0.365,0.365,0,0,1-.058.228,0.732,0.732,0,0,0-.057-0.4c0,0.222.029,0.256-.115,0.342a3.7,3.7,0,0,1-1.724.057V34.587H20.259a0.6,0.6,0,0,0-.057-0.342,18.384,18.384,0,0,1-.115,3.476,8.263,8.263,0,0,0,0,.912c-0.171.285,0.1,1.08-.115,1.367,0.007-1.319-.115-2.448-0.115-3.875a6.58,6.58,0,0,0-.115-1.88,0.6,0.6,0,0,1-.057.342,0.5,0.5,0,0,1-.287.057,3.248,3.248,0,0,1-1.551-.057c0-.222.029-0.256-0.115-0.342a0.356,0.356,0,0,1-.172.4,5.831,5.831,0,0,1-1.666.57,22.065,22.065,0,0,1-3.734,1.253V34.188a10.035,10.035,0,0,1,1.092-1.766c0.921-1.482,1.878-2.813,2.873-4.217a11.128,11.128,0,0,0,1.034-1.311V24.9a1.538,1.538,0,0,1-.057-0.684,14.414,14.414,0,0,0-3.217.855c-1.764.565-3.523,0.743-5.285,1.311a29.037,29.037,0,0,1-4.6,1.2c0.1-.8.728-3.066,1.206-3.419l1.666-.741V20.741c0.32-.546-0.016-2.6.517-2.906,0.077,0.632.2,1.4,0.345,2.051v1.026a9.354,9.354,0,0,1,0,2.051H7.849l4.079-1.937V20.114a3.735,3.735,0,0,1,.115-1.425H12.1v0.057a4.21,4.21,0,0,1,.172,2.051l0.345-.057c0.1-.3.056-0.89,0.115-1.2a0.2,0.2,0,0,1,.057.114c0.139,0.231.028,0.7,0.172,0.912,0.043-.047.2-0.071,0.23-0.114,0.338-.456-0.211-1.471.287-1.766V18.8a3.71,3.71,0,0,1,.115,1.425h0.115c0.33-.308,1.006-0.3,1.321-0.627a4.542,4.542,0,0,0,.345-0.8,10.173,10.173,0,0,0,1.092-1.823,5.5,5.5,0,0,0-.115-1.482,0.521,0.521,0,0,1,.115-0.228V13.5a5.218,5.218,0,0,0,.115-0.513h1.494v2.051H18.19V13.618a7.632,7.632,0,0,0,.058-1.994c-0.249-.069-0.29-0.13-0.287-0.456h0.058c0.043,0.236.074,0.228,0.287,0.285V9.687l0.287-3.419c0.185-.789.271-1.6,0.517-2.336,0.218-.651.62-1.336,0.8-1.994C20.068,1.383,19.739.452,20.029,0c-0.044,2.184.607,3.168,1.092,4.729,0.262,0.844.13,1.7,0.345,2.621A18.925,18.925,0,0,1,21.81,11.4h0.057a0.209,0.209,0,0,1,.115-0.057,0.274,0.274,0,0,1,.058-0.171V11.51c-0.3.14-.1,0.438-0.172,0.8a12.941,12.941,0,0,0-.057,2.735h0.115V12.992Zm0.46,20.627a0.275,0.275,0,0,0,.057.171A0.274,0.274,0,0,0,22.384,33.618Zm-4.826.114v0.114h0.058V33.732H17.558ZM17.731,33.9a0.274,0.274,0,0,0,.058.171A0.275,0.275,0,0,0,17.731,33.9Zm4.6,0.114a0.474,0.474,0,0,0,.058.285A0.473,0.473,0,0,0,22.327,34.017Zm-4.711.057a0.6,0.6,0,0,0,.057.342A0.6,0.6,0,0,0,17.616,34.074Z"/>
</svg>
