<svg xmlns="http://www.w3.org/2000/svg" width="40" height="40" viewBox="0 0 40 40">
  <defs>
    <style>
      .cls-1 {
        fill: #fff;
        fill-rule: evenodd;
      }
    </style>
  </defs>
  <path id="Color_Fill_1" data-name="Color Fill 1" class="cls-1" d="M21.908,13.137h1.468V13.2h0.059l0.176,2.356a5.939,5.939,0,0,0-.059,1.649,12.023,12.023,0,0,0,1.174,2,3.111,3.111,0,0,0,.235.589,12.734,12.734,0,0,0,2.114.943c1.893,0.83,3.854,1.821,5.7,2.769A12.611,12.611,0,0,1,35,24.566a3.352,3.352,0,0,1,.235.766A17.593,17.593,0,0,1,36,27.865H35.765a5.015,5.015,0,0,0-1.174-.294c-0.988-.322-2.064-0.484-3.112-0.825-1.644-.535-3.408-0.8-5.108-1.355a21.461,21.461,0,0,0-3.464-.943c-0.055.81-.058,1.808-0.059,2.71a14.334,14.334,0,0,1,1.7,2.415c0.607,0.866,1.376,1.693,1.938,2.592,0.3,0.487.466,0.983,0.763,1.473a5.866,5.866,0,0,1,.587.884v2.356H27.721a5.894,5.894,0,0,0-1.233-.412c-0.9-.372-1.962-0.719-2.877-1.06a4.551,4.551,0,0,1-1.233-.412A0.624,0.624,0,0,1,22.2,34.58H22.143c0.008,0.237.032,0.322-.117,0.412a4.363,4.363,0,0,1-1.7.059,0.36,0.36,0,0,0-.117-0.118,0.311,0.311,0,0,0,0-.294v0.118a3.759,3.759,0,0,0-.059,1.355,17.937,17.937,0,0,1-.059,2.651A4.307,4.307,0,0,1,19.971,40c0-1.232-.117-2.254-0.117-3.593a5.541,5.541,0,0,0-.117-1.767,0.623,0.623,0,0,1-.059.353,1.59,1.59,0,0,1-.7.059,2.563,2.563,0,0,1-1.057,0V34.993H17.857c0.008-.237.032-0.322-0.117-0.412a1.171,1.171,0,0,1-.117.471l-5.46,1.826V34.521a22.456,22.456,0,0,0,1.585-2.71c0.823-1.175,1.688-2.34,2.525-3.535a7.569,7.569,0,0,0,.881-1.119V24.8a0.64,0.64,0,0,1-.059-0.354,14.49,14.49,0,0,0-2.818.766c-1.942.605-3.877,0.84-5.813,1.473A26.273,26.273,0,0,1,4,27.865a13.013,13.013,0,0,1,1-3.3,8.28,8.28,0,0,1,2.114-1c1.935-.849,3.918-1.884,5.813-2.828a14,14,0,0,0,2.114-.943,3.737,3.737,0,0,0,.294-0.707A10.474,10.474,0,0,0,16.448,17.2a3.41,3.41,0,0,0-.059-1.3,10.431,10.431,0,0,1,.235-2.71,3.908,3.908,0,0,1,1.468-.059V15.2h0.117V12.018a0.4,0.4,0,0,0,.059-0.236,0.443,0.443,0,0,1-.352-0.53h0.059a0.307,0.307,0,0,0,.294.295v-1l0.294-4.006,0.352-2,1-2.651C20.053,1.4,19.77.414,20.029,0c-0.045,2.111.572,3.057,1.057,4.536,0.384,1.169.3,2.676,0.587,3.888,0.171,0.713-.11,2.575.235,3.063a0.211,0.211,0,0,1,.117-0.059,0.285,0.285,0,0,1,.059-0.177v0.354c-0.347.107-.258,0.68-0.235,1.119a10.2,10.2,0,0,0-.059,2.474h0.117V13.137ZM21.556,7.128a0.283,0.283,0,0,1,.176.059A0.283,0.283,0,0,1,21.556,7.128ZM17.622,34.4a0.624,0.624,0,0,0,.059.353A0.624,0.624,0,0,0,17.622,34.4Zm4.7,0a0.624,0.624,0,0,0,.059.353A0.624,0.624,0,0,0,22.319,34.4Z"/>
</svg>
