<svg xmlns="http://www.w3.org/2000/svg" style="isolation:isolate" width="100" height="100"><defs><clipPath id="a"><path d="M0 0H100V100H0z"/></clipPath></defs><g clip-path="url(#a)"><path d="M 39 34.5 L 39 13.5 C 39 7.425 43.925 2.5 50 2.5 C 56.075 2.5 61 7.425 61 13.5 L 61 34.5 L 39 34.5 Z M 61 38.5 L 61 69.97 C 61 71.553 60.602 73.111 59.843 74.5 L 53.828 85.5 L 61 85.5 L 61 97.5 L 39 97.5 L 39 85.5 L 46.172 85.5 L 40.158 74.5 C 39.398 73.111 39 71.553 39 69.97 L 39 38.5 L 61 38.5 Z" fill="none" vector-effect="non-scaling-stroke" stroke-width="4" stroke="#000" stroke-opacity="0.5" stroke-linejoin="round" stroke-linecap="round" stroke-miterlimit="3"/><path d="M 39 34.5 L 39 13.5 C 39 7.425 43.925 2.5 50 2.5 C 56.075 2.5 61 7.425 61 13.5 L 61 34.5 L 39 34.5 Z M 61 38.5 L 61 69.97 C 61 71.553 60.602 73.111 59.843 74.5 L 53.828 85.5 L 61 85.5 L 61 97.5 L 39 97.5 L 39 85.5 L 46.172 85.5 L 40.158 74.5 C 39.398 73.111 39 71.553 39 69.97 L 39 38.5 L 61 38.5 Z" fill-rule="evenodd" fill="#FFF"/></g></svg>