<svg xmlns="http://www.w3.org/2000/svg" width="39.938" height="40" viewBox="0 0 39.938 40">
  <defs>
    <style>
      .cls-1 {
        fill: #fff;
        fill-rule: evenodd;
      }
    </style>
  </defs>
  <path id="Color_Fill_1" data-name="Color Fill 1" class="cls-1" d="M24.642,9.105V8.918l-1.509-.113,1.509-.113a1.446,1.446,0,0,1,.038-0.338H24.642a9,9,0,0,1-1.509-.075L24.679,8.2a0.69,0.69,0,0,1,.3-0.638,0.256,0.256,0,0,1,.151-0.038,2.234,2.234,0,0,1,.226.3L25.4,8.167h0.075c0.34,0.2,1.284-.061,1.623.15l-1.66.075V8.73a3.922,3.922,0,0,1,1.358.113,4.136,4.136,0,0,1-1.358,0V9.105h0.189V9.181a2.025,2.025,0,0,1,.076.638,11.864,11.864,0,0,1-.076,2.889,5.757,5.757,0,0,1,.755.6c0.6,0.44,1.166.879,1.773,1.313a3.19,3.19,0,0,0,1.019.713q-0.019-1.126-.038-2.251a1.956,1.956,0,0,1,.113-0.976A0.255,0.255,0,0,1,29.4,12.07V11.845H29.359a8.358,8.358,0,0,1-1.509-.075l1.547-.113v-0.3a14.291,14.291,0,0,1-1.623-.113l1.66-.075a0.566,0.566,0,0,1,.453-0.675c0.047,0.078.15,0.151,0.189,0.225a4.058,4.058,0,0,0,.113.413,1.6,1.6,0,0,0,.642.038c0.26,0.156.8-.048,1.057,0.113-0.62,0-1.111.071-1.7,0.075v0.338a4.459,4.459,0,0,1,1.434.113,6.377,6.377,0,0,1-1.434.037V12.07H30.34l0.038,0.113a2.57,2.57,0,0,1,.075.75,2.489,2.489,0,0,1,0,.825V15a9.4,9.4,0,0,0-.075,1.276c0.532,0.3.981,0.744,1.472,1.088,1.124,0.789,2.209,1.621,3.321,2.4,1.035,0.727,2.032,1.5,3.057,2.214a15.488,15.488,0,0,1,1.736,1.276,14.1,14.1,0,0,1-.038,1.951,0.4,0.4,0,0,1-.189.075,0.136,0.136,0,0,0-.075-0.038,0.579,0.579,0,0,0-.038-0.3,0.483,0.483,0,0,1-.038.263,7.066,7.066,0,0,0-1.4-.675c-1.071-.554-2.157-1.082-3.283-1.576-0.9-.393-1.784-0.958-2.679-1.351-2.212-.972-4.326-2.082-6.491-3.115v0.938a2.613,2.613,0,0,0-.075.563c-0.106.409-.286,1.388-0.679,1.463a7.034,7.034,0,0,1-.6-3.64,18.564,18.564,0,0,1-2.189-1.051,2.479,2.479,0,0,1-.981-0.6v5.817Q21.189,23.44,21.17,24.9L20.755,31.4l5.321,4.991A4.307,4.307,0,0,1,26.038,38a0.129,0.129,0,0,1-.075-0.038,0.314,0.314,0,0,1-.226-0.225c-0.031.122,0.018,0.057-.075,0.113a6.312,6.312,0,0,0-1.321-.675c-0.832-.431-1.68-0.874-2.528-1.313a4.868,4.868,0,0,0-1.245-.6,4.371,4.371,0,0,0-.075.976,1.357,1.357,0,0,1-.264.413q-0.038.675-.076,1.351H20.076V37.475c-0.064-.106-0.01-0.383-0.076-0.488a0.242,0.242,0,0,1-.038.15V36.649l-0.189-.037a3.068,3.068,0,0,1-.226-1.389H19.472a2.337,2.337,0,0,1-.377.188c-0.595.36-1.275,0.605-1.887,0.976s-1.331.632-1.962,1.013a3.536,3.536,0,0,1-.868.45,0.892,0.892,0,0,0-.038-0.413,1.621,1.621,0,0,1-.038.488,0.642,0.642,0,0,1-.226.075V37.925A1.515,1.515,0,0,1,14,37.287c-0.006-1.246.341-1.128,0.943-1.726a26.523,26.523,0,0,1,2.566-2.4l0.6-.638a10.167,10.167,0,0,0,1.208-1.088V30.87a2.426,2.426,0,0,1-.038-0.563c-0.159-.729.014-1.6-0.151-2.364-0.118-.541-0.034-1.223-0.151-1.764V25.542c-0.138-.635.068-1.518-0.075-2.176a7.037,7.037,0,0,1-.038-1.276V16.948a2.814,2.814,0,0,0-.038-1.013v0.413a2.459,2.459,0,0,0-.793.375c-0.513.266-1.052,0.494-1.547,0.751l-0.793.338V19.35a2.116,2.116,0,0,0-.038.413c-0.112.47-.28,1.6-0.717,1.689a7.614,7.614,0,0,1-.566-1.614,5.666,5.666,0,0,0-.113-1.5c0,0.162.054,0.132-.038,0.188a3.606,3.606,0,0,1-.943.45c-0.324.143-.666,0.362-0.981,0.525l-0.642.263c-1.9.979-3.87,1.958-5.811,2.852-0.658.3-1.3,0.627-1.925,0.938a3.416,3.416,0,0,0-.717.3,1.294,1.294,0,0,0-.075.188c-0.031-.122.018-0.057-0.075-0.113a3.954,3.954,0,0,1-.868.413,8.514,8.514,0,0,1-2,.938l-0.038-.113a4.429,4.429,0,0,1-.038-1.951c0.592-.37,1.129-0.876,1.7-1.276,1.874-1.316,3.685-2.707,5.547-4.015,0.565-.4,1.107-0.812,1.66-1.2a0.908,0.908,0,0,0,.679-0.75A2.951,2.951,0,0,1,9.66,15.26a13.226,13.226,0,0,1,0-3.115c0.07-.038.144-0.077,0.226-0.112a0.529,0.529,0,0,1-.038-0.15c-0.427,0-.657-0.054-1.057-0.075v0.037a0.13,0.13,0,0,1,.075.038H8.717C8.6,11.807,8.348,11.847,8.226,11.77l1.623-.075V11.62a0.494,0.494,0,0,0,.038-0.263,6.076,6.076,0,0,1-1.019-.075,3.123,3.123,0,0,1-.83-0.037l1.849-.075a0.629,0.629,0,0,1,.453-0.675,0.137,0.137,0,0,0,.075.037,3.2,3.2,0,0,1,.226.638,5.136,5.136,0,0,1,1.132.075,2.963,2.963,0,0,1,.717.037,9.046,9.046,0,0,1-1.849.038v0.15a0.542,0.542,0,0,0,.6.225,5.914,5.914,0,0,1,.943.113l-1.51.075v0.15a0.2,0.2,0,0,1,.151.112,2.191,2.191,0,0,1,.113,1.013q-0.019,1.088-.038,2.176h0.113a3.394,3.394,0,0,1,.83-0.6c0.564-.395,1.069-0.909,1.623-1.313a8.38,8.38,0,0,0,.943-0.675V12.183a2.331,2.331,0,0,1-.038-0.6,6.919,6.919,0,0,1,.075-2.439A0.256,0.256,0,0,1,14.6,9.105V8.918l-1.547-.113L14.6,8.693a1.021,1.021,0,0,1,.038-0.338H14.6a10.328,10.328,0,0,1-1.585-.075L14.642,8.2a0.689,0.689,0,0,1,.3-0.638,0.255,0.255,0,0,1,.151-0.038l0.189,0.225a2.832,2.832,0,0,0,.113.413c0.359,0.215,1.381-.07,1.736.15-0.633,0-1.138.071-1.736,0.075V8.73a4.223,4.223,0,0,1,1.4.113,6.606,6.606,0,0,1-1.4.038V9.105h0.151l0.038,0.113a7.621,7.621,0,0,1,.075,2.514H15.7a3.91,3.91,0,0,1,.793-0.6c0.517-.378.993-0.858,1.509-1.238a4.914,4.914,0,0,0,.868-0.638V5.541a5.59,5.59,0,0,0,.038-1.576c0.1-.016.083-0.126,0.075-0.338a2.357,2.357,0,0,0,.075-0.563c0.137-.561.323-1.825,0.793-1.989A0.376,0.376,0,0,1,20.151,1c1.36,1.428,1.051,5.465,1.057,8.256l3.208,2.477V11.545a1.52,1.52,0,0,1-.038-0.6,4.316,4.316,0,0,1,.113-1.8A0.255,0.255,0,0,1,24.642,9.105ZM14.226,17.886v0.075h0.038V17.886H14.226Zm11.547,0.45a0.181,0.181,0,0,0,.038.113A0.181,0.181,0,0,0,25.774,18.337Z" transform="translate(-0.031 0.5)"/>
</svg>
