<svg width="24" height="24" viewBox="0 0 24 24" fill="none" xmlns="http://www.w3.org/2000/svg">
<circle opacity="0.6" cx="12" cy="12" r="7" fill="white"/>
<path d="M3.15723 22.2568C3.16454 22.2495 3.17239 22.2426 3.17969 22.2354C3.18702 22.228 3.19385 22.2202 3.20117 22.2129L3.28906 22.125C3.29636 22.1177 3.30423 22.1108 3.31152 22.1035C3.31882 22.0962 3.32573 22.0883 3.33301 22.0811L3.35449 22.0596C3.36174 22.0523 3.36971 22.0453 3.37695 22.0381C3.38421 22.0308 3.39119 22.0229 3.39844 22.0156L3.44141 21.9727C3.44863 21.9654 3.45666 21.9584 3.46387 21.9512C3.47106 21.944 3.47817 21.9359 3.48535 21.9287L3.63574 21.7783C3.64273 21.7713 3.65025 21.7648 3.65723 21.7578C3.66423 21.7508 3.67074 21.7433 3.67773 21.7363L3.95215 21.4619C3.95911 21.4549 3.96668 21.4484 3.97363 21.4414C3.98059 21.4345 3.9872 21.4269 3.99414 21.4199L4.01465 21.3994C4.02158 21.3925 4.02921 21.3858 4.03613 21.3789C4.04304 21.372 4.04974 21.3643 4.05664 21.3574L4.13867 21.2754C4.14554 21.2685 4.1533 21.2617 4.16016 21.2549C4.16702 21.248 4.17381 21.2403 4.18066 21.2334L4.2627 21.1514C4.26937 21.1447 4.27653 21.1385 4.2832 21.1318L4.30371 21.1113C4.31039 21.1047 4.31657 21.0975 4.32324 21.0908L4.38477 21.0293C4.39144 21.0226 4.3986 21.0164 4.40527 21.0098C4.41195 21.0031 4.41814 20.9959 4.4248 20.9893L4.50586 20.9082C4.51253 20.9015 4.5197 20.8953 4.52637 20.8887C4.53304 20.882 4.53923 20.8748 4.5459 20.8682L4.62598 20.7881C4.63263 20.7814 4.63984 20.7752 4.64648 20.7686C4.65313 20.7619 4.65938 20.7547 4.66602 20.748L4.74512 20.6689C4.7517 20.6624 4.75905 20.656 4.76562 20.6494C4.77222 20.6428 4.77857 20.6355 4.78516 20.6289L4.82422 20.5898C4.83079 20.5833 4.83816 20.5769 4.84473 20.5703C4.85128 20.5638 4.85772 20.5563 4.86426 20.5498L5.09863 20.3154C5.10498 20.3091 5.11182 20.3032 5.11816 20.2969C5.12451 20.2905 5.13038 20.2837 5.13672 20.2773L5.19531 20.2188C5.20166 20.2124 5.2085 20.2065 5.21484 20.2002C5.22119 20.1938 5.22705 20.187 5.2334 20.1807L5.31055 20.1035C5.3169 20.0972 5.32373 20.0913 5.33008 20.085C5.33642 20.0786 5.3423 20.0718 5.34863 20.0654L5.53906 19.875C5.54538 19.8687 5.55229 19.8628 5.55859 19.8564C5.56488 19.8502 5.57087 19.8432 5.57715 19.8369L5.5957 19.8184C5.602 19.8121 5.60894 19.8061 5.61523 19.7998C5.62152 19.7935 5.62751 19.7866 5.63379 19.7803L5.74609 19.668C5.75234 19.6617 5.75938 19.6557 5.76562 19.6494C5.77187 19.6432 5.77794 19.6361 5.78418 19.6299L5.89551 19.5186C5.90172 19.5123 5.90884 19.5062 5.91504 19.5L6.04492 19.3701C6.05095 19.3641 6.05648 19.3576 6.0625 19.3516L6.19238 19.2217C6.19839 19.2157 6.20494 19.2101 6.21094 19.2041C6.21696 19.1981 6.2225 19.1916 6.22852 19.1855L6.41211 19.002C6.41812 18.9959 6.42466 18.9904 6.43066 18.9844C6.43669 18.9784 6.44222 18.9718 6.44824 18.9658L6.4668 18.9473C6.4728 18.9413 6.47935 18.9357 6.48535 18.9297C6.49138 18.9237 6.49691 18.9172 6.50293 18.9111L6.55762 18.8564C6.56364 18.8504 6.57015 18.8449 6.57617 18.8389C6.58218 18.8329 6.58774 18.8263 6.59375 18.8203L6.68457 18.7295C6.69059 18.7235 6.69711 18.7179 6.70312 18.7119C6.70915 18.7059 6.71468 18.6994 6.7207 18.6934C6.72672 18.6873 6.73324 18.6818 6.73926 18.6758C6.74527 18.6698 6.75082 18.6632 6.75684 18.6572C6.76285 18.6512 6.76938 18.6457 6.77539 18.6396C6.7814 18.6336 6.78696 18.6271 6.79297 18.6211C6.79898 18.6151 6.80551 18.6095 6.81152 18.6035C6.81754 18.5975 6.82309 18.591 6.8291 18.585C6.83511 18.579 6.84165 18.5734 6.84766 18.5674C6.85365 18.5614 6.85924 18.5548 6.86523 18.5488L6.95508 18.459C6.96106 18.453 6.96765 18.4474 6.97363 18.4414C6.97963 18.4354 6.98522 18.4288 6.99121 18.4229L7.04492 18.3691C7.05089 18.3632 7.05751 18.3575 7.06348 18.3516C7.06946 18.3456 7.07507 18.339 7.08105 18.333L7.18848 18.2256C7.19445 18.2196 7.20106 18.214 7.20703 18.208C7.21299 18.202 7.21865 18.1954 7.22461 18.1895L7.24219 18.1719C7.24816 18.1659 7.25477 18.1603 7.26074 18.1543C7.26671 18.1483 7.27236 18.1417 7.27832 18.1357L7.2959 18.1182C7.30186 18.1122 7.30849 18.1066 7.31445 18.1006C7.32041 18.0946 7.32608 18.088 7.33203 18.082L7.47461 17.9395C7.48055 17.9335 7.48722 17.9278 7.49316 17.9219C7.49912 17.9159 7.50479 17.9093 7.51074 17.9033L7.59961 17.8145C7.60554 17.8085 7.61224 17.8028 7.61816 17.7969C7.62412 17.7909 7.62979 17.7843 7.63574 17.7783L7.65332 17.7607C7.65927 17.7548 7.66592 17.7491 7.67188 17.7432C7.6778 17.7372 7.68352 17.7305 7.68945 17.7246L7.72461 17.6895C7.73054 17.6835 7.73723 17.6778 7.74316 17.6719C7.74912 17.6659 7.75479 17.6593 7.76074 17.6533L7.77832 17.6357C7.78427 17.6298 7.79092 17.6241 7.79688 17.6182C7.8028 17.6122 7.80852 17.6055 7.81445 17.5996L7.90332 17.5107C7.90928 17.5048 7.91592 17.4991 7.92188 17.4932C7.92782 17.4872 7.93351 17.4806 7.93945 17.4746L8.08203 17.332C8.08798 17.3261 8.09463 17.3204 8.10059 17.3145C8.10655 17.3085 8.1122 17.3019 8.11816 17.2959L8.13574 17.2783C8.1417 17.2724 8.14833 17.2667 8.1543 17.2607C8.16026 17.2548 8.16591 17.2482 8.17188 17.2422L8.18945 17.2246C8.19541 17.2186 8.20205 17.213 8.20801 17.207C8.21398 17.2011 8.21961 17.1944 8.22559 17.1885L8.33301 17.0811C8.33899 17.0751 8.34558 17.0695 8.35156 17.0635C8.35753 17.0575 8.36317 17.0509 8.36914 17.0449L8.42285 16.9912C8.42884 16.9852 8.43541 16.9796 8.44141 16.9736C8.44739 16.9677 8.453 16.9611 8.45898 16.9551L8.54883 16.8652C8.55482 16.8592 8.56139 16.8537 8.56738 16.8477C8.57339 16.8416 8.57895 16.8351 8.58496 16.8291C8.59097 16.8231 8.5975 16.8175 8.60352 16.8115C8.60953 16.8055 8.61508 16.799 8.62109 16.793C8.6271 16.787 8.63364 16.7814 8.63965 16.7754C8.64566 16.7694 8.65121 16.7628 8.65723 16.7568C8.66324 16.7508 8.66977 16.7453 8.67578 16.7393C8.6818 16.7332 8.68734 16.7267 8.69336 16.7207C8.69938 16.7147 8.70589 16.7091 8.71191 16.7031C8.71793 16.6971 8.72347 16.6906 8.72949 16.6846L8.82031 16.5938C8.82632 16.5877 8.83286 16.5822 8.83887 16.5762C8.84489 16.5702 8.85042 16.5636 8.85645 16.5576L8.91113 16.5029C8.91715 16.4969 8.92366 16.4914 8.92969 16.4854C8.93569 16.4794 8.94126 16.4728 8.94727 16.4668L8.96582 16.4482C8.97184 16.4422 8.97835 16.4367 8.98438 16.4307C8.99038 16.4247 8.99595 16.4181 9.00195 16.4121L9.18555 16.2285C9.19157 16.2225 9.19808 16.217 9.2041 16.2109C9.2101 16.2049 9.21568 16.1984 9.22168 16.1924L9.35156 16.0625C9.35758 16.0565 9.36409 16.0509 9.37012 16.0449L9.5 15.915C9.5062 15.9088 9.51235 15.9017 9.51855 15.8955L9.62988 15.7842C9.63612 15.7779 9.64317 15.7719 9.64941 15.7656C9.65565 15.7594 9.66172 15.7523 9.66797 15.7461L9.78027 15.6338C9.78656 15.6275 9.79352 15.6215 9.7998 15.6152C9.8061 15.6089 9.81206 15.602 9.81836 15.5957L9.83691 15.5771C9.8432 15.5709 9.85016 15.5649 9.85645 15.5586C9.86275 15.5523 9.86869 15.5454 9.875 15.5391L10.0654 15.3486C10.0718 15.3423 10.0786 15.3364 10.085 15.3301C10.0913 15.3237 10.0972 15.3169 10.1035 15.3105L10.1807 15.2334C10.187 15.2271 10.1938 15.2212 10.2002 15.2148C10.2065 15.2085 10.2124 15.2017 10.2188 15.1953L10.2773 15.1367C10.2837 15.1304 10.2905 15.1245 10.2969 15.1182C10.3032 15.1118 10.3091 15.105 10.3154 15.0986L10.5498 14.8643C10.5563 14.8577 10.5638 14.8513 10.5703 14.8447C10.5769 14.8382 10.5833 14.8308 10.5898 14.8242L10.6289 14.7852C10.6355 14.7786 10.6428 14.7722 10.6494 14.7656C10.656 14.759 10.6624 14.7517 10.6689 14.7451L10.748 14.666C10.7547 14.6594 10.7619 14.6531 10.7686 14.6465C10.7752 14.6398 10.7814 14.6326 10.7881 14.626L10.8682 14.5459C10.8748 14.5392 10.882 14.533 10.8887 14.5264C10.8953 14.5197 10.9015 14.5125 10.9082 14.5059L10.9893 14.4248C10.9959 14.4181 11.0031 14.4119 11.0098 14.4053C11.0164 14.3986 11.0226 14.3914 11.0293 14.3848L11.0908 14.3232C11.0975 14.3166 11.1047 14.3104 11.1113 14.3037L11.1318 14.2832C11.1385 14.2765 11.1447 14.2694 11.1514 14.2627L11.2334 14.1807C11.2403 14.1738 11.248 14.167 11.2549 14.1602C11.2617 14.1533 11.2685 14.1455 11.2754 14.1387L11.3574 14.0566C11.3643 14.0497 11.372 14.043 11.3789 14.0361C11.3858 14.0292 11.3925 14.0216 11.3994 14.0146L11.4199 13.9941C11.4269 13.9872 11.4345 13.9806 11.4414 13.9736C11.4484 13.9667 11.4549 13.9591 11.4619 13.9521L11.7363 13.6777C11.7433 13.6707 11.7508 13.6642 11.7578 13.6572C11.7648 13.6502 11.7713 13.6427 11.7783 13.6357L11.9287 13.4854C11.9359 13.4782 11.944 13.4711 11.9512 13.4639C11.9584 13.4567 11.9654 13.4486 11.9727 13.4414L12.0156 13.3984C12.0229 13.3912 12.0308 13.3842 12.0381 13.377C12.0453 13.3697 12.0523 13.3617 12.0596 13.3545L12.0811 13.333C12.0883 13.3257 12.0962 13.3188 12.1035 13.3115C12.1108 13.3042 12.1177 13.2964 12.125 13.2891L12.2129 13.2012C12.2202 13.1939 12.228 13.187 12.2354 13.1797C12.2426 13.1724 12.2495 13.1645 12.2568 13.1572L12.707 12.707L11.293 11.293L10.8428 11.7432C10.8355 11.7505 10.8276 11.7574 10.8203 11.7646C10.813 11.772 10.8061 11.7798 10.7988 11.7871L10.7109 11.875C10.7036 11.8823 10.6958 11.8892 10.6885 11.8965C10.6812 11.9038 10.6743 11.9117 10.667 11.9189L10.6455 11.9404C10.6383 11.9477 10.6303 11.9547 10.623 11.9619C10.6158 11.9692 10.6088 11.9771 10.6016 11.9844L10.5586 12.0273C10.5514 12.0346 10.5433 12.0416 10.5361 12.0488C10.5289 12.056 10.5218 12.0641 10.5146 12.0713L10.3643 12.2217C10.3573 12.2287 10.3498 12.2352 10.3428 12.2422C10.3358 12.2492 10.3293 12.2567 10.3223 12.2637L10.0479 12.5381C10.0409 12.5451 10.0333 12.5516 10.0264 12.5586C10.0194 12.5655 10.0128 12.5731 10.0059 12.5801L9.98535 12.6006C9.97842 12.6075 9.97079 12.6142 9.96387 12.6211C9.95696 12.628 9.95026 12.6357 9.94336 12.6426L9.86133 12.7246C9.85446 12.7315 9.8467 12.7383 9.83984 12.7451C9.83298 12.752 9.82619 12.7597 9.81934 12.7666L9.7373 12.8486C9.73063 12.8553 9.72347 12.8615 9.7168 12.8682L9.69629 12.8887C9.68961 12.8953 9.68343 12.9025 9.67676 12.9092L9.61523 12.9707C9.60856 12.9774 9.6014 12.9836 9.59473 12.9902C9.58805 12.9969 9.58186 13.0041 9.5752 13.0107L9.49414 13.0918C9.48747 13.0985 9.4803 13.1047 9.47363 13.1113C9.46696 13.118 9.46077 13.1252 9.4541 13.1318L9.37402 13.2119C9.36737 13.2186 9.36016 13.2248 9.35352 13.2314C9.34687 13.2381 9.34062 13.2453 9.33398 13.252L9.25488 13.3311C9.2483 13.3376 9.24095 13.344 9.23438 13.3506C9.22778 13.3572 9.22143 13.3645 9.21484 13.3711L9.17578 13.4102C9.16921 13.4167 9.16184 13.4231 9.15527 13.4297C9.14872 13.4362 9.14228 13.4437 9.13574 13.4502L8.90137 13.6846C8.89502 13.6909 8.88818 13.6968 8.88184 13.7031C8.87549 13.7095 8.86962 13.7163 8.86328 13.7227L8.80469 13.7812C8.79834 13.7876 8.7915 13.7935 8.78516 13.7998C8.77881 13.8062 8.77295 13.813 8.7666 13.8193L8.68945 13.8965C8.6831 13.9028 8.67627 13.9087 8.66992 13.915C8.66358 13.9214 8.6577 13.9282 8.65137 13.9346L8.46094 14.125C8.45462 14.1313 8.44771 14.1372 8.44141 14.1436C8.43512 14.1498 8.42913 14.1568 8.42285 14.1631L8.4043 14.1816C8.398 14.1879 8.39106 14.1939 8.38477 14.2002C8.37848 14.2065 8.37249 14.2134 8.36621 14.2197L8.25391 14.332C8.24766 14.3383 8.24062 14.3443 8.23438 14.3506C8.22813 14.3568 8.22206 14.3639 8.21582 14.3701L8.10449 14.4814C8.09828 14.4877 8.09116 14.4938 8.08496 14.5L7.95508 14.6299C7.94905 14.6359 7.94352 14.6424 7.9375 14.6484L7.80762 14.7783C7.80161 14.7843 7.79506 14.7899 7.78906 14.7959C7.78304 14.8019 7.7775 14.8084 7.77148 14.8145L7.58789 14.998C7.58188 15.0041 7.57534 15.0096 7.56934 15.0156C7.56331 15.0216 7.55778 15.0282 7.55176 15.0342L7.5332 15.0527C7.5272 15.0587 7.52065 15.0643 7.51465 15.0703C7.50862 15.0763 7.50309 15.0828 7.49707 15.0889L7.44238 15.1436C7.43636 15.1496 7.42985 15.1551 7.42383 15.1611C7.41782 15.1671 7.41226 15.1737 7.40625 15.1797L7.31543 15.2705C7.30941 15.2765 7.30289 15.2821 7.29688 15.2881C7.29085 15.2941 7.28532 15.3006 7.2793 15.3066C7.27328 15.3127 7.26676 15.3182 7.26074 15.3242C7.25473 15.3302 7.24918 15.3368 7.24316 15.3428C7.23715 15.3488 7.23062 15.3543 7.22461 15.3604C7.2186 15.3664 7.21304 15.3729 7.20703 15.3789C7.20102 15.3849 7.19449 15.3905 7.18848 15.3965C7.18246 15.4025 7.17691 15.409 7.1709 15.415C7.16489 15.421 7.15835 15.4266 7.15234 15.4326C7.14635 15.4386 7.14076 15.4452 7.13477 15.4512L7.04492 15.541C7.03894 15.547 7.03235 15.5526 7.02637 15.5586C7.02037 15.5646 7.01478 15.5712 7.00879 15.5771L6.95508 15.6309C6.94911 15.6368 6.94249 15.6425 6.93652 15.6484C6.93054 15.6544 6.92493 15.661 6.91895 15.667L6.81152 15.7744C6.80555 15.7804 6.79894 15.786 6.79297 15.792C6.78701 15.798 6.78135 15.8046 6.77539 15.8105L6.75781 15.8281C6.75184 15.8341 6.74523 15.8397 6.73926 15.8457C6.73329 15.8517 6.72764 15.8583 6.72168 15.8643L6.7041 15.8818C6.69814 15.8878 6.69151 15.8934 6.68555 15.8994C6.67959 15.9054 6.67392 15.912 6.66797 15.918L6.52539 16.0605C6.51945 16.0665 6.51278 16.0722 6.50684 16.0781C6.50088 16.0841 6.49521 16.0907 6.48926 16.0967L6.40039 16.1855C6.39446 16.1915 6.38776 16.1972 6.38184 16.2031C6.37588 16.2091 6.37021 16.2157 6.36426 16.2217L6.34668 16.2393C6.34073 16.2452 6.33408 16.2509 6.32812 16.2568C6.3222 16.2628 6.31648 16.2695 6.31055 16.2754L6.27539 16.3105C6.26946 16.3165 6.26277 16.3222 6.25684 16.3281C6.25088 16.3341 6.24521 16.3407 6.23926 16.3467L6.22168 16.3643C6.21573 16.3702 6.20908 16.3759 6.20312 16.3818C6.1972 16.3878 6.19148 16.3945 6.18555 16.4004L6.09668 16.4893C6.09072 16.4952 6.08408 16.5009 6.07812 16.5068C6.07218 16.5128 6.06649 16.5194 6.06055 16.5254L5.91797 16.668C5.91202 16.6739 5.90537 16.6796 5.89941 16.6855C5.89345 16.6915 5.8878 16.6981 5.88184 16.7041L5.86426 16.7217C5.8583 16.7276 5.85167 16.7333 5.8457 16.7393C5.83974 16.7452 5.83409 16.7518 5.82812 16.7578L5.81055 16.7754C5.80459 16.7814 5.79795 16.787 5.79199 16.793C5.78602 16.7989 5.78039 16.8056 5.77441 16.8115L5.66699 16.9189C5.66101 16.9249 5.65442 16.9305 5.64844 16.9365C5.64247 16.9425 5.63683 16.9491 5.63086 16.9551L5.57715 17.0088C5.57116 17.0148 5.56459 17.0204 5.55859 17.0264C5.55261 17.0323 5.547 17.0389 5.54102 17.0449L5.45117 17.1348C5.44518 17.1408 5.43861 17.1463 5.43262 17.1523C5.42661 17.1584 5.42105 17.1649 5.41504 17.1709C5.40903 17.1769 5.4025 17.1825 5.39648 17.1885C5.39047 17.1945 5.38492 17.201 5.37891 17.207C5.3729 17.213 5.36636 17.2186 5.36035 17.2246C5.35434 17.2306 5.34879 17.2372 5.34277 17.2432C5.33676 17.2492 5.33023 17.2547 5.32422 17.2607C5.3182 17.2668 5.31266 17.2733 5.30664 17.2793C5.30062 17.2853 5.29411 17.2909 5.28809 17.2969C5.28207 17.3029 5.27653 17.3094 5.27051 17.3154L5.17969 17.4062C5.17368 17.4123 5.16714 17.4178 5.16113 17.4238C5.15511 17.4298 5.14958 17.4364 5.14355 17.4424L5.08887 17.4971C5.08285 17.5031 5.07634 17.5086 5.07031 17.5146C5.06431 17.5206 5.05874 17.5272 5.05273 17.5332L5.03418 17.5518C5.02816 17.5578 5.02165 17.5633 5.01562 17.5693C5.00962 17.5753 5.00405 17.5819 4.99805 17.5879L4.81445 17.7715C4.80843 17.7775 4.80192 17.783 4.7959 17.7891C4.7899 17.7951 4.78432 17.8016 4.77832 17.8076L4.64844 17.9375C4.64242 17.9435 4.63591 17.9491 4.62988 17.9551L4.5 18.085C4.4938 18.0912 4.48765 18.0983 4.48145 18.1045L4.37012 18.2158C4.36388 18.2221 4.35683 18.2281 4.35059 18.2344C4.34435 18.2406 4.33828 18.2477 4.33203 18.2539L4.21973 18.3662C4.21344 18.3725 4.20648 18.3785 4.2002 18.3848C4.19391 18.3911 4.18794 18.398 4.18164 18.4043L4.16309 18.4229C4.1568 18.4291 4.14984 18.4351 4.14355 18.4414C4.13725 18.4477 4.13131 18.4546 4.125 18.4609L3.93457 18.6514C3.92823 18.6577 3.92138 18.6636 3.91504 18.6699C3.90869 18.6763 3.90284 18.6831 3.89648 18.6895L3.81934 18.7666C3.81299 18.7729 3.80616 18.7788 3.7998 18.7852C3.79347 18.7915 3.7876 18.7983 3.78125 18.8047L3.72266 18.8633C3.71632 18.8696 3.70947 18.8755 3.70312 18.8818C3.69678 18.8882 3.69092 18.895 3.68457 18.9014L3.4502 19.1357C3.44365 19.1423 3.43624 19.1487 3.42969 19.1553C3.42312 19.1618 3.41673 19.1692 3.41016 19.1758L3.37109 19.2148C3.3645 19.2214 3.35718 19.2278 3.35059 19.2344C3.34401 19.241 3.33764 19.2483 3.33105 19.2549L3.25195 19.334C3.24532 19.3406 3.23809 19.3469 3.23145 19.3535C3.2248 19.3602 3.21857 19.3674 3.21191 19.374L3.13184 19.4541C3.12517 19.4608 3.11801 19.467 3.11133 19.4736C3.10466 19.4803 3.09847 19.4875 3.0918 19.4941L3.01074 19.5752C3.00408 19.5819 2.99691 19.5881 2.99023 19.5947C2.98357 19.6014 2.97738 19.6086 2.9707 19.6152L2.90918 19.6768C2.90251 19.6834 2.89535 19.6896 2.88867 19.6963L2.86816 19.7168C2.8615 19.7235 2.85531 19.7306 2.84863 19.7373L2.7666 19.8193C2.75975 19.8262 2.75198 19.833 2.74512 19.8398C2.73826 19.8467 2.73148 19.8545 2.72461 19.8613L2.64258 19.9434C2.63568 19.9503 2.628 19.957 2.62109 19.9639C2.61417 19.9708 2.60752 19.9784 2.60059 19.9854L2.58008 20.0059C2.57314 20.0128 2.56555 20.0194 2.55859 20.0264C2.55164 20.0333 2.54505 20.0409 2.53809 20.0479L2.26367 20.3223C2.25668 20.3293 2.24919 20.3358 2.24219 20.3428C2.23521 20.3498 2.22867 20.3573 2.22168 20.3643L2.07129 20.5146C2.0641 20.5218 2.05603 20.5289 2.04883 20.5361C2.04162 20.5433 2.03457 20.5514 2.02734 20.5586L1.98438 20.6016C1.97713 20.6088 1.96917 20.6158 1.96191 20.623C1.95467 20.6303 1.94768 20.6383 1.94043 20.6455L1.91895 20.667C1.91166 20.6743 1.90378 20.6812 1.89648 20.6885C1.88919 20.6958 1.8823 20.7036 1.875 20.7109L1.78711 20.7988C1.77979 20.8061 1.77198 20.813 1.76465 20.8203C1.75735 20.8276 1.75047 20.8355 1.74316 20.8428L1.29297 21.293L2.70703 22.707L3.15723 22.2568Z" fill="white"/>
</svg>
