<svg width="24" height="24" viewBox="0 0 24 24" fill="none" xmlns="http://www.w3.org/2000/svg">
<g clip-path="url(#clip0_2205_27292)">
<path fill-rule="evenodd" clip-rule="evenodd" d="M10.4901 20.8632V18.936H10.7493V18.3096H10.5669V17.9808L10.7493 16.956V16.0248L10.1277 15.9264V15.5904L10.7493 14.892V13.1592L9.18693 12.7248V11.8032L10.7493 9.372V4.4928L10.9605 3.5448L10.3581 3.456V3.18L11.0877 2.4096H11.2149L11.6973 0.4848C11.7285 0.3432 11.8557 0 12.0021 0C12.1485 0 12.2757 0.3408 12.3069 0.4848L12.7893 2.4096H12.9165L13.6461 3.18V3.456L13.0437 3.5448L13.2549 4.4928V9.372L14.8173 11.8032V12.7248L13.2549 13.1592V14.892L13.8765 15.5904V15.9264L13.2549 16.0248V16.956L13.4373 17.9808V18.3096H13.2549V18.936H13.5141V20.8632L15.3645 23.0928V23.9064L13.1733 23.8488L12.5973 22.8864H12.5565L12.7773 23.8632V24.0024H11.2317V23.8632L11.4525 22.8864H11.4309L10.8357 23.8488L8.64453 23.9064V23.0928L10.4949 20.8632H10.4901Z" fill="white"/>
</g>
<defs>
<clipPath id="clip0_2205_27292">
<rect width="24" height="24" fill="white"/>
</clipPath>
</defs>
</svg>
