<svg id="Layer_1" data-name="Layer 1" xmlns="http://www.w3.org/2000/svg" width="28" height="30" viewBox="0 0 28 30">
  <defs>
    <style>
      .cls-1 {
        opacity: 0.5;
      }

      .cls-2 {
        fill: #fff;
        fill-rule: evenodd;
      }
    </style>
  </defs>
  <path class="cls-1" d="M27.40515,13.50751l-.079-.37732-11.555-6.27991.03668-1.03577A1.87887,1.87887,0,0,0,15.0116,4.3l-.20783-.13526H13.19592L12.9881,4.3a1.88466,1.88466,0,0,0-.79535,1.54431l.03583,1.006L.67365,13.13019l-.079.37811A16.01469,16.01469,0,0,0,.505,16.40051l.05213,1.1026,8.439-2.8305L7.79578,15.873H7.795l-1.27911,1.2799L4.548,19.12079l.00061.00061L4.548,19.122l1.94764,1.94757L7.795,22.36981h.0008L14,28.574l9.453-9.452-.00061-.00061.00061-.00061L19.00568,14.674l8.43609,2.82916.053-1.10217A15.95526,15.95526,0,0,0,27.40515,13.50751Z"/>
  <g>
    <path class="cls-2" d="M26.58892,13.67926l-11.67-6.34235.05444-1.52215a1.04762,1.04762,0,0,0-.41681-.81549h-1.113a1.04773,1.04773,0,0,0-.41674.81549l.05438,1.52215-11.67,6.34235a16.11682,16.11682,0,0,0-.07244,2.68188L13.1173,12.41076l.32617,1.77588v1.31495H11.269v.89935h5.462v-.89935H14.5565V14.18664l.32617-1.77588,2.96283.99366,8.81592,2.95672A16.119,16.119,0,0,0,26.58892,13.67926Z"/>
    <polygon class="cls-2" points="14 23.258 7.796 17.054 5.728 19.122 14 27.394 22.272 19.122 20.204 17.054 14 23.258"/>
  </g>
</svg>
