<svg xmlns="http://www.w3.org/2000/svg" width="80" height="40" viewBox="0 0 80 40">
  <defs>
    <style>
      .cls-1 {
        fill: #fff;
        fill-rule: evenodd;
      }
    </style>
  </defs>
  <path id="Color_Fill_1" data-name="Color Fill 1" class="cls-1" d="M1.614,5H2.97v5.342c0,0.644.15,1.579-.258,1.844a1.561,1.561,0,0,1,.581,1.208c0.525-.071,1.963,1.361,2.454,1.717,1.713,1.243,3.337,2.592,5.036,3.816,0.139,0.1.311,0.081,0.452,0.191a7.717,7.717,0,0,0,1.808,1.4l17.369,0.763c2.684,0.148,5.332.171,7.942,0.318,1.164,0.065,2.671.192,2.97-.636a1.239,1.239,0,0,0,.129-0.254,1,1,0,0,0-.581-0.127,0.333,0.333,0,0,0-.194-0.064l0.71-2.671h0.129a0.485,0.485,0,0,0,.452.127c0.034-.042.02-0.2,0.065-0.254l0.387-.127a1.508,1.508,0,0,1,.387-0.827,0.441,0.441,0,0,1,.258-0.064,0.668,0.668,0,0,1,.129.318h1.033l0.194,0.318c0.069,0.025,1.106-.064,1.356-0.064h6a2.162,2.162,0,0,0,.323-0.254,3.42,3.42,0,0,1,1.485-.445,2.317,2.317,0,0,1,.065.7l0.387-.064V17.147a0.424,0.424,0,0,1-.065-0.254h0.194V15.748a0.223,0.223,0,0,0,.129-0.064,1.345,1.345,0,0,0,.71.191V15.684H54.818V15.3l0.129-.064a1.4,1.4,0,0,1,.839-0.127l-0.065-.382H55.464a2.364,2.364,0,0,1,.194-0.827c0.159-.59,0-1.258.129-1.781a1.143,1.143,0,0,0-.194-0.827,6.527,6.527,0,0,1,0-1.018H55.529c-0.567.346-2.106-.2-2.776,0.064v0.127a1.1,1.1,0,0,1-.581-0.127l-0.065-.191h-1.42c-1.861,0-3.859-.064-5.811-0.064H15.238a12.56,12.56,0,0,1-3.164-.064,0.986,0.986,0,0,0,.065-0.318H52.107a0.182,0.182,0,0,1,.065-0.064V9.452c0.76-.069,1.949.042,2.97,0V9.007L55.4,8.943V9.515h0.194A2.678,2.678,0,0,0,55.464,8.5h0.452a1.194,1.194,0,0,1,.71,0,0.182,0.182,0,0,0,.065.064,1.265,1.265,0,0,0,.065.445,0.512,0.512,0,0,1,.323,0V9.452c1.038,0.041,2.184-.054,2.97,0a0.3,0.3,0,0,0,.065.191V9.706H80v0.382c-6.65,0-13.4.061-19.952,0.064v0.191a13.468,13.468,0,0,1-3.422-.064,2.719,2.719,0,0,0,0,1.018c-0.04.083-.229,0.127-0.258,0.191a5.081,5.081,0,0,0,.129.954l0.065,1.654a1.2,1.2,0,0,1,.194.572c-0.218.085-.267,0.05-0.323,0.318a3.465,3.465,0,0,0,.775.191,4.236,4.236,0,0,1,.452,2.035,1.374,1.374,0,0,1,.839.127c0.55,0.642.368,1.873,1.614,1.844,0.8-.571,1.726.2,2.324-0.127l0.065-.191a7.57,7.57,0,0,1,2.647-.064v0.127a0.322,0.322,0,0,1,.065.191c1.149,0,2.369.045,3.422,0.064l0.065-.191c0.353-.48.162-1.426,0.517-1.908a3.173,3.173,0,0,1,1.227-.064,7.59,7.59,0,0,1,.065,2.035,6.949,6.949,0,0,1,.9-0.127,1.149,1.149,0,0,1,.065.382c1.115,0.053,1.6,1.382,2.131,1.971,0.452,0.5,1.129,1.2,1.614,1.844a3.941,3.941,0,0,0,.839,1.081,26.866,26.866,0,0,1,2.518,1.145c0.384,0.272.992,1.282,1.421,1.335a4.913,4.913,0,0,1-.646,2.989c-0.587.772-1.925,1.083-3.035,1.336l-1.42.064c-0.817.231-1.9-.008-2.841,0.191a20.047,20.047,0,0,1-3.616.064H66.57a6.308,6.308,0,0,0-1.1-.191c0,0.7.019,1.514,0,2.035a10.766,10.766,0,0,0,3.68-.254c0.475-.153,1.145-0.1,1.227-0.636a0.74,0.74,0,0,1-.129-0.318h1.872v0.127c0.177,0.383-.252.417-0.517,0.572a9.805,9.805,0,0,1-2.324.954,21.023,21.023,0,0,1-5.23.318H55.206a15.788,15.788,0,0,1-3.939-.254c-0.524-.151-1.115-0.061-1.162-0.7a0.229,0.229,0,0,0,.065-0.127,0.975,0.975,0,0,1,.258-0.127,6.185,6.185,0,0,0,3.035.445v-2.1a17.642,17.642,0,0,1-4.391-.382,10.882,10.882,0,0,0-1.55-.382,0.382,0.382,0,0,0-.258.191,0.524,0.524,0,0,1-.258-0.191c-0.186.087,0,.1-0.258,0.064l0.065-.191a25.15,25.15,0,0,1-2.906-.572,0.43,0.43,0,0,0-.258.064,7.034,7.034,0,0,1-1.679-.381c-0.886-.251-1.82-0.24-2.647-0.445l-1.937-.254c-2.3-.569-4.876-0.691-7.167-1.272-1.18-.3-2.307-0.2-3.487-0.509-1.343-.346-2.831-0.4-4.262-0.763-3.779-.956-7.931-1.213-11.687-2.162-0.9-.229-1.822-0.309-2.647-0.509a13.874,13.874,0,0,0-3.358.445c-0.623.144-1.327,0.068-1.872,0.191C1.753,24.275.443,24.036,0,23.379H0.065V23.316a10.751,10.751,0,0,0,1.227.572,2.089,2.089,0,0,0,.775-0.064h0.71c0.784-.176,1.712-0.263,2.518-0.445,0.687-.155,1.69.038,2.2-0.318A8.333,8.333,0,0,1,5.359,20.9a2.375,2.375,0,0,0-.323-0.509H4.262a0.669,0.669,0,0,1-.129-0.318H4.2V20.009a0.847,0.847,0,0,0,.452-0.064,3.517,3.517,0,0,1-.775-0.89,2.6,2.6,0,0,0-.517.318,6.756,6.756,0,0,0,.065,1.781H2.066V16.829a3.353,3.353,0,0,1-1.033-1.272,2.142,2.142,0,0,0,1.033-1.272A0.428,0.428,0,0,1,1.872,13.9H2a0.439,0.439,0,0,0,.323.127V13.967a1.256,1.256,0,0,1-.581-1.145,1.9,1.9,0,0,1,.581-0.509V12.059H2.131c-0.1-.365-0.41-0.626-0.517-0.954V8.434A4.6,4.6,0,0,0,.839,7.1a1.192,1.192,0,0,0,.581-0.572,0.473,0.473,0,0,1,0-.445H1.614V5ZM53.979,33.173c0.883,0.021,2.074.072,3.487,0.064a1.118,1.118,0,0,1,.129-0.254c0.114,0.428,1.037.254,1.55,0.254h4.843a4.2,4.2,0,0,1,.969-0.064V31.138a12.126,12.126,0,0,0-1.485.191h-1.55c-1.386,0-2.842-.057-4.132-0.064a9.073,9.073,0,0,0-.387.89l0.581,0.254v0.064H57.853c-0.659-.5-1.144.306-1.614,0-0.309-.2-0.022-0.53-0.194-0.89a0.724,0.724,0,0,1-.258-0.509c-0.476-.014-1.8.063-1.808,0v2.1Z"/>
</svg>
