<?xml version="1.0" encoding="utf-8"?>
<!-- Generator: Adobe Illustrator 16.0.0, SVG Export Plug-In . SVG Version: 6.00 Build 0)  -->
<!DOCTYPE svg PUBLIC "-//W3C//DTD SVG 1.1//EN" "http://www.w3.org/Graphics/SVG/1.1/DTD/svg11.dtd">
<svg version="1.1" id="Layer_1" xmlns="http://www.w3.org/2000/svg" xmlns:xlink="http://www.w3.org/1999/xlink" x="0px" y="0px"
	 width="39.938px" height="40px" viewBox="0 0 39.938 40" enable-background="new 0 0 39.938 40" xml:space="preserve">
<path id="uk_17_pdr_m10_achilles_norfolk_yeomanry_ico" fill="#FFFFFF" d="M23.026,13.169c0.115,0.001,0.229,0.009,0.344,0.023
	c0.119,0.078,0.228,0.172,0.32,0.28h1.101c0.136,0.177,0.258,0.364,0.366,0.559l2.633,0.022v-3.399
	c-0.042-0.513-0.035-1.028,0.022-1.539c0.01,0.005,0.018,0.013,0.023,0.022c0.033,0.131,0.041,0.267,0.022,0.4v4.523l9.2,0.093
	v-0.21h0.916v0.14c0.202,0.053,0.411,0.068,0.618,0.047c0.143-0.039,0.3-0.148,0.435-0.186c0.221-0.041,0.447-0.033,0.664,0.023
	c0.292,0.1,0.264,0.44,0.252,0.839c-0.086,0.094-0.188,0.172-0.3,0.233c-0.354,0.044-0.714-0.021-1.03-0.186
	c-0.213-0.021-0.429-0.014-0.641,0.023v0.14h-0.911v-0.193l-9.2,0.093v1.935c0.169,0.308,0.186,0.677,0.047,1
	c0.105,0.007,0.209,0.039,0.3,0.094c0.023,0.059,0.031,0.123,0.022,0.187l0.39-0.022l0.046-0.351l0.183,0.023
	c-0.04,0.438-0.198,0.856-0.458,1.212c0.002,0.018,0.011,0.034,0.023,0.047c0.062,0.069,0.131,0.131,0.206,0.186
	c0.042,0.021,0.09,0.029,0.137,0.023c0.02-0.028,0.035-0.061,0.046-0.093c0.006-0.023,0.018-0.009,0-0.023
	c-0.058-0.033-0.104-0.082-0.137-0.14c0.04-0.045,0.078-0.092,0.113-0.141c0.028,0.039,0.091,0.101,0.114,0.07
	c0.029-0.031,0.071-0.049,0.114-0.047c0.013,0.03,0,0.018,0.022,0.023c0.121-0.072,0.2-0.181,0.321-0.256v0.092l-0.137,0.233
	c-0.087-0.006-0.079-0.047-0.115,0.023c0.281,0.292,0.671,0.452,1.076,0.442v-0.041h0.252c0.008-0.027,0.024-0.053,0.046-0.07h0.046
	c0.019,0.087-0.021,0.072,0.069,0.093c0.192,0.085,0.394,0.148,0.6,0.187c0.191,0.112,0.368,0.246,0.527,0.4
	c0.039,0.014,0.077,0.029,0.114,0.047c0.191,0.267,0.406,0.516,0.641,0.746v0.02c-0.119,0.039-0.065,0.112-0.206,0.162
	c-0.198-0.097-0.421-0.138-0.641-0.117v0.023c0.075,0.057,0.138,0.128,0.183,0.21c-0.015,0.046-0.015,0.095,0,0.14
	c0.029,0.012,0.061,0.02,0.092,0.023c0.055,0.072,0.102,0.15,0.138,0.233c0.086,0.335,0.125,0.681,0.113,1.026
	c-0.028,0.116-0.11,0.299-0.137,0.399c-0.018,0.067,0.046,0.158,0.023,0.21c-0.042,0.026-0.089,0.043-0.138,0.047
	c-0.046,0.082-0.084,0.168-0.113,0.256c-0.066,0.088-0.144,0.166-0.229,0.233h-0.103c-0.033,0.05-0.057,0.104-0.069,0.163
	c-0.115,0.095-0.237,0.181-0.366,0.257c-0.065,0.044-0.135,0.083-0.206,0.116h-0.16c-0.033,0.021-0.033,0.113-0.068,0.14
	c-0.092,0.068-0.2,0.079-0.3,0.14c-0.059,0.051-0.119,0.098-0.184,0.141l-0.114-0.023c-0.046,0.035-0.078,0.084-0.092,0.141
	c-0.034,0.037-0.372,0.218-0.435,0.256c-0.101,0.059-0.211,0.021-0.275,0.07l-0.046,0.116L29,25.227
	c-0.108,0.086-0.223,0.164-0.343,0.232c-0.054-0.009-0.107-0.009-0.16,0c-0.021,0.037-0.037,0.076-0.046,0.117
	c-0.131,0.09-0.269,0.168-0.412,0.232c-0.14,0.061-0.32,0-0.39,0.047c-0.018,0.035-0.041,0.066-0.068,0.094l-0.601,0.023
	c-0.021-0.025-0.044-0.049-0.068-0.07h-0.018v0.022c-0.142,0.037-0.288,0.054-0.435,0.048c-0.113,0-0.461-0.054-0.481-0.048
	c-0.216,0.068-0.447,0.068-0.664,0c-0.072-0.012-0.146,0.005-0.206,0.048c-0.222,0.021-0.446,0.006-0.664-0.048
	c-0.033-0.01-0.557,0.07-0.663,0.07c-0.081-0.036-0.165-0.06-0.253-0.07c-0.019,0.021-0.034,0.045-0.046,0.07h-0.686
	c-0.012-0.026-0.027-0.05-0.046-0.07c-0.088-0.02-0.074,0.054-0.114,0.07h-0.642l-0.026-0.072c-0.057-0.019-0.118,0.013-0.137,0.07
	h-0.685l-0.046-0.07c-0.1-0.034-0.08,0.052-0.115,0.07h-0.662l-0.047-0.07c-0.062-0.009-0.124,0.019-0.159,0.07h-0.664l-0.046-0.07
	c-0.101-0.034-0.08,0.052-0.114,0.07h-0.642c-0.011-0.026-0.026-0.05-0.046-0.07c-0.055-0.002-0.106,0.024-0.137,0.07h-0.665
	l-0.046-0.07c-0.1-0.034-0.094,0.058-0.16,0.07h-0.618c-0.044-0.019-0.035-0.101-0.137-0.07c-0.024,0.022-0.048,0.046-0.069,0.07
	h-0.664l-0.046-0.07c-0.1-0.034-0.08,0.052-0.113,0.07H15.31c-0.012-0.026-0.027-0.05-0.046-0.07
	c-0.055-0.002-0.106,0.024-0.137,0.07h-0.665l-0.046-0.07c-0.101-0.034-0.08,0.052-0.114,0.07h-0.664l-0.046-0.07
	c-0.1-0.032-0.1,0.054-0.137,0.07h-0.687l-0.022-0.07c-0.068-0.003-0.135,0.022-0.184,0.07c-0.208,0.014-0.418-0.011-0.618-0.07
	c-0.05-0.007-0.101,0.011-0.137,0.047H11.12l-0.023-0.047c-0.039-0.021-0.087-0.006-0.108,0.033
	c-0.002,0.005-0.004,0.009-0.006,0.014h-0.688l-0.026-0.047c-0.051-0.011-0.104,0.007-0.137,0.047H9.448l-0.023-0.047
	c-0.257,0.044-0.518,0.06-0.778,0.047C8.636,25.944,8.62,25.92,8.601,25.9c-0.048,0.001-0.091,0.027-0.114,0.069H7.8L7.754,25.9
	c-0.086-0.025-0.077,0.055-0.114,0.069H7.113c-0.063-0.025-0.124-0.057-0.183-0.093c-0.064-0.01-0.131,0.007-0.183,0.047
	l-0.479-0.117c-0.073-0.023-0.144-0.053-0.21-0.091c-0.005-0.036-0.021-0.071-0.045-0.1l-0.137,0.022
	c-0.18-0.061-0.355-0.131-0.527-0.21l-0.068-0.112c-0.055-0.004-0.109,0.004-0.16,0.022c-0.195-0.066-0.387-0.144-0.572-0.233
	L4.48,24.989c-0.077-0.039-0.142,0.034-0.229,0c-0.172-0.059-0.339-0.129-0.5-0.21c-0.005-0.032-0.012-0.063-0.023-0.094
	c-0.067-0.014-0.138-0.014-0.206,0c-0.181-0.055-0.357-0.125-0.526-0.209c-0.041-0.052-0.087-0.099-0.138-0.141l-0.092,0.047
	c-0.01,0-0.465-0.185-0.5-0.21c-0.054-0.035-0.063-0.129-0.114-0.163c-0.091-0.062-0.156,0-0.252-0.07l-0.389-0.42v-0.114H1.16
	c-0.07-0.187-0.109-0.384-0.114-0.583c0.091-0.032,0.153-0.115,0.16-0.211c-0.083-0.032-0.073-0.071-0.069-0.187h0.068
	c-0.018-0.499,0.145-0.987,0.458-1.376c0.202-0.121,0.381-0.279,0.526-0.466c0.015-0.021,0.023-0.045,0.023-0.07H0.908
	c-0.04-0.101-0.094-0.194-0.16-0.28c-0.079-0.065-0.044,0.054-0.115-0.045c-0.097-0.303-0.269-0.576-0.5-0.793l0.042,0.021v-0.021
	c0.03-0.031,0.047-0.073,0.046-0.117l-0.114-0.069c0.001,0.025-0.008,0.05-0.022,0.069c0.003-0.061-0.022-0.121-0.069-0.161
	c0.109-0.16,0.181-0.344,0.206-0.536c-0.206-0.046-0.242-0.146-0.229-0.42c0.023-0.045,0.039-0.094,0.046-0.145
	c0.096,0.002,0.191-0.021,0.274-0.069c-0.076-0.051-0.12-0.139-0.114-0.23c0.037-0.018,0.063-0.053,0.07-0.094
	c-0.12-0.237-0.16-0.507-0.114-0.769h0.16v0.326h0.043v-0.232l0.301,0.022c0.046-0.017,0.1-0.1,0.159-0.117
	c0.101-0.035,0.191,0.061,0.229,0.023c0.05-0.05,0.083-0.116,0.092-0.186c0.111,0.054,0.226,0.101,0.343,0.14
	c0.088-0.115,0.136-0.256,0.138-0.4l0.365-0.022c0.034-0.058,0.058-0.121,0.069-0.187c-0.027-0.224-0.042-0.45-0.046-0.676
	l0.137-0.023c-0.024,0.091,0.002,0.189,0.069,0.256c0.346-0.261,0.791-0.355,1.213-0.256c0.194,0.061,0.363,0.179,0.6,0.233
	c0.345-0.01,0.688,0.006,1.03,0.047c0.192,0.085,0.369,0.373,0.527,0.42c-0.001,0.025,0.008,0.05,0.022,0.07
	c0.08,0.092,0.201,0.136,0.321,0.117c0.341-0.053,0.686-0.084,1.03-0.093h0.178c0.01,0.021,0.025,0.037,0.046,0.047v-0.115h0.457
	v0.117c0.545,0,1.039,0.045,1.534,0.047L9.15,16.225c0.387-0.06,0.779-0.068,1.168-0.023v-0.049
	c-0.398-0.121-0.709-0.436-0.823-0.837c-0.163-0.251-0.374-0.494-0.525-0.748c-0.041-0.069-0.06-0.28-0.092-0.326
	s-0.126-0.071-0.16-0.117c-0.212-0.264-0.441-0.513-0.688-0.746c-0.207-0.404-0.65-0.63-1.1-0.56H5.876v-0.42h1.692v-0.07
	c0.161,0.015,0.323,0.007,0.481-0.023v-0.023H7.369V12.26H7.342v-0.07H8.83c0.048-0.059,0.102-0.114,0.16-0.163
	c0.037,0.007,0.076,0.007,0.113,0v0.3h0.345v-0.044c-0.075-0.139,0.086-0.117,0.068-0.233c-0.061-0.236-0.1-0.479-0.114-0.723h0.066
	c0-0.13,0.04-0.389,0.023-0.42c-0.062-0.053-0.146-0.07-0.224-0.046c-0.02-0.015-0.044-0.023-0.068-0.023v-0.3H9.169v-0.027
	c-0.171-0.024-0.319-0.138-0.458-0.163c-0.065-0.012-0.37,0.1-0.481,0.117v0.117H8.097c-0.007-0.064-0.021-0.127-0.046-0.187H7.113
	c-0.046,0.036-0.102,0.06-0.159,0.07v-0.049c0.091-0.017,0.073,0,0.092-0.093H6.998c-0.09-0.026-0.186-0.026-0.275,0v-0.207H6.632
	V9.881h0.091V9.625c0.243,0.007,0.415-0.02,0.664-0.023V9.508C7.489,9.466,7.599,9.45,7.708,9.461
	c0.029,0.041,0.045,0.09,0.046,0.14c0.565,0,1.187,0.022,1.786,0.023V9.508h0.045c0.104,0.034,0.217,0.034,0.321,0
	c0,0.143-0.009,0.122,0.159,0.117c0.019-0.068,0.026-0.139,0.023-0.21h0.114c-0.013,0.249,0.042,0.362,0.3,0.35
	c0.191,0.12,0.881-0.073,1.1,0.023c0.464,0.069,0.932,0.1,1.4,0.093c0.288,0.034,0.58,0.042,0.87,0.023h1.648v0.212
	c-1.048,0-2.162,0.021-3.228,0.023v0.093h-0.052c-0.013-0.012-0.029-0.021-0.047-0.023c0.005,0.041-0.003,0.081-0.022,0.117v-0.118
	h-0.275c0.005,0.041-0.003,0.081-0.022,0.117v-0.117c-0.434-0.019-1.084,0.032-1.58,0.047c-0.044,0.191-0.06,0.388-0.046,0.583
	h-0.045c-0.07,0.043-0.251,0-0.321,0.047c0.072,0.433,0.072,0.874,0,1.306h0.114c-0.046-0.14-0.01-0.293,0.092-0.4
	c0.272-0.046,0.551-0.046,0.824,0c0.009,0.041,0.1,0.493,0.113,0.513c0.188,0.044,0.382,0.052,0.572,0.023
	c0.14,0.077,0.302,0.102,0.458,0.07v-0.044c-0.088-0.029-0.088-0.047-0.088-0.163c0.085-0.056,0.178-0.115,0.229,0.023
	c0.045,0.087-0.034,0.114-0.069,0.187h1.439c0.002-0.206,0.105-0.397,0.275-0.513c0.095-0.014,0.19,0.003,0.275,0.047
	c0.151,0.061,0.273,0.178,0.343,0.326l0.046,0.14h3.618l0.274-0.257v-0.027h-0.458c-0.024-0.035-0.04-0.075-0.046-0.117h0.046
	c0.188-0.044,0.382-0.052,0.572-0.023v-0.14h0.069v0.54h0.046c0.034,0.019,0.074,0.027,0.114,0.023v-0.583
	c0.019-0.012,0.034-0.028,0.046-0.047c0.117,0.188,0.15,0.417,0.092,0.63h0.022v-0.023c0.005-0.104,0.028-0.205,0.069-0.3
	c0.023,0.055,0.077,0.091,0.137,0.093c0.023-0.051,0.055-0.099,0.093-0.14c0.019-0.04-0.018-0.037-0.023-0.047
	c-0.004-0.089,0.065-0.165,0.155-0.169c0.017,0,0.034,0.001,0.051,0.006c0.214,0.073,0.438,0.105,0.664,0.093
	c0.428,0.06,0.819,0.243,1.236,0.28c-0.044,0.195-0.13,0.378-0.252,0.536h0.022c0.32,0.194,0.681,0.313,1.053,0.35v-0.445
	l0.069-0.023V8.016h0.046v0.023c0.054,0.41,0.062,0.824,0.023,1.236v3.241h0.021v-0.023c0.117-0.26,0.423-0.375,0.683-0.258
	c0.002,0,0.003,0.001,0.005,0.002c0.087,0.086,0.157,0.188,0.206,0.3C23.155,12.754,23.109,12.968,23.026,13.169z M11.852,10.324
	c0.013,0.013,0.021,0.029,0.023,0.047h-0.023V10.324z M12.195,10.324c0.013,0.013,0.021,0.029,0.023,0.047h-0.022L12.195,10.324
	L12.195,10.324z M12.218,10.371h0.051v0.023C12.25,10.393,12.233,10.385,12.218,10.371L12.218,10.371z M11.669,10.394
	c0.047-0.006,0.095,0.001,0.137,0.023C11.759,10.423,11.711,10.415,11.669,10.394z M12.269,10.394
	c0.047-0.006,0.095,0.001,0.138,0.023C12.359,10.423,12.312,10.415,12.269,10.394z M11.536,10.417
	c0.032-0.003,0.064,0.005,0.092,0.023c-0.034,0.003-0.068-0.005-0.096-0.024L11.536,10.417z M12.452,10.417
	c0.039-0.004,0.079,0.003,0.113,0.023c-0.041,0.005-0.082-0.003-0.117-0.024L12.452,10.417z M11.49,10.44
	c0.012,0.013,0.02,0.029,0.022,0.047h-0.027v-0.046L11.49,10.44z M12.59,10.463c0.03,0.05,0.03,0.113,0,0.163V10.463L12.59,10.463z
	 M11.468,10.486c0.025,0.035,0.025,0.083,0,0.117v-0.115V10.486z M11.491,10.603c0.365-0.042,0.735-0.035,1.1,0.023v0.023h-0.029
	c-0.349,0.05-0.702,0.058-1.053,0.023L11.491,10.603z M24.591,15.22v0.256h-0.649c-0.17,0.12-0.323,0.261-0.458,0.42
	c0.006,0.009,0.014,0.018,0.023,0.023c0.045-0.009,0.092-0.009,0.137,0c0.078,0.035,0.191,0.22,0.3,0.28
	c0.16,0.091,0.27-0.053,0.275,0.21c0.249,0.033,0.489,0.112,0.71,0.233c0.036-0.014,0.075-0.022,0.114-0.023
	c0.077,0.037,0.135,0.105,0.16,0.187c0.145,0.118,0.307,0.212,0.48,0.28c0.038-0.05,0.068-0.105,0.092-0.163h0.023v-0.024
	c-0.069-0.025-0.126-0.075-0.16-0.14c0.037-0.053,0.08-0.101,0.13-0.143c0.087,0.1,0.063,0.028,0.138,0
	c0.042,0.003,0.081,0.02,0.113,0.047c0.09-0.111,0.198-0.207,0.32-0.28v0.047c-0.062,0.096-0.115,0.196-0.16,0.3
	c-0.093,0-0.055-0.038-0.092,0.023c0.36,0.287,0.743,0.545,1.145,0.771c0.011-0.03,0.011-0.063,0-0.094
	c-0.047-0.041-0.093-0.076-0.137-0.117l0.023-0.07l0.05-0.017c0.103-0.064,0.222-0.097,0.343-0.093v0.117h0.069
	c-0.017,0.087-0.04,0.172-0.069,0.256l0.137,0.023v0.07h0.138v-0.561c-0.039-0.066-0.069-0.137-0.093-0.21h0.093v-1.913
	l-2.634,0.023c-0.062,0.223-0.199,0.269-0.5,0.256c-0.02,0.015-0.045,0.022-0.069,0.021L24.591,15.22z M0.106,19.348
	c0.013,0.014,0.021,0.029,0.023,0.047H0.106V19.348z M0.427,19.908H0.335c-0.012-0.029-0.02-0.061-0.023-0.092
	c0.02-0.012,0.035-0.028,0.046-0.047h0.023C0.401,19.813,0.416,19.859,0.427,19.908L0.427,19.908z"/>
</svg>
