<?xml version="1.0" encoding="utf-8"?>
<!-- Generator: Adobe Illustrator 16.0.0, SVG Export Plug-In . SVG Version: 6.00 Build 0)  -->
<!DOCTYPE svg PUBLIC "-//W3C//DTD SVG 1.1//EN" "http://www.w3.org/Graphics/SVG/1.1/DTD/svg11.dtd">
<svg version="1.1" id="Layer_1" xmlns="http://www.w3.org/2000/svg" xmlns:xlink="http://www.w3.org/1999/xlink" x="0px" y="0px"
	 width="40px" height="40px" viewBox="0 0 40 40" enable-background="new 0 0 40 40" xml:space="preserve">
<path id="uk_3_inch_gun_carrier_ico" fill="#FFFFFF" d="M20.378,13.4h0.112c0.008,0.076,0.026,0.15,0.056,0.221H20.6
	c-0.005-0.089,0.063-0.165,0.151-0.171c0.017-0.001,0.033,0.001,0.049,0.005c0,0,0.828,0.053,1.037,0.055v0.055
	c-0.105-0.003-0.21,0.015-0.308,0.055h0.027c0.268,0.051,0.541,0.069,0.813,0.055v-0.187h0.084c0.033,0.059,0.043,0.128,0.028,0.194
	h0.252c0.106-0.058,0.399,0,0.561-0.055V13.6H23.1c-0.033-0.021-0.072-0.031-0.111-0.028v-0.056c0.289,0.031,0.58,0.031,0.869,0
	c0.079-0.061,0.183-0.081,0.279-0.055c0.027,0.137,0.123,0.25,0.252,0.3v-1.214h0.084V8.754h0.057v3.792h0.084
	c0.009,0.443,0.019,0.886,0.027,1.329l0.25,0.025v-0.108h0.393V13.9l0.447,0.028c0.008-0.05,0.026-0.097,0.057-0.138
	c0.108,0.036,0.222,0.054,0.336,0.055v0.138l3.055,0.3V14.18h0.028v-0.028c0.067,0.01,0.138,0.001,0.2-0.028V12.99h0.14
	c-0.067,0.444-0.038,0.897,0.084,1.329c0.181,0.059,0.372,0.077,0.562,0.055v0.415c0.078,0.072,0.127,0.171,0.14,0.277
	c-0.04,0.086-0.087,0.17-0.14,0.248v1.219c0.052,0.05,0.1,0.105,0.14,0.166c0.005,0.126-0.046,0.248-0.14,0.332v0.691l3.979-0.082
	c0.493,0.141,1.002,0.215,1.515,0.221c0.021-0.099,0.101-0.175,0.199-0.194V17.7h-0.033c-0.055,0.021,0.056,0.028,0.056,0.028
	c0.168-0.07,0.079,0.254,0.2,0.332h1.037c0.275,0.059,0.561,0.068,0.84,0.027c0.649,0,1.324,0.006,1.963,0
	c0.041,0.229,0.05,0.461,0.027,0.692h-0.031v0.02c-0.304-0.063-0.617-0.072-0.924-0.028L37.085,18.8v0.03
	c0.215,0.324,0.349,0.693,0.392,1.08l0.028,0.359c0.079,0.104,0.146,0.215,0.2,0.332h-0.172l0.111,1.551h-1.736
	c-0.078,0.092-0.146,0.191-0.2,0.3c0.087,0.028,0.12,0.071,0.084,0.138c-0.061,0.079-0.128,0.153-0.2,0.221H35.57v-0.021
	c-0.045-0.027-0.083-0.066-0.111-0.111h-0.027v0.028c-0.188,0.104-0.342,0.257-0.449,0.442c0.057,0.027,0.098,0.078,0.112,0.139
	h-0.028c-0.063,0.089-0.161,0.129-0.224,0.222h-0.028V23.48c-0.035-0.05-0.084-0.088-0.141-0.11
	c-0.114,0.154-0.257,0.286-0.42,0.388c0.032,0.072,0.061,0.146,0.084,0.221c-0.085,0.076-0.179,0.142-0.279,0.194
	c-0.021-0.057-0.061-0.105-0.113-0.138c-0.121,0.166-0.273,0.307-0.448,0.415c0.044,0.056,0.073,0.123,0.084,0.194
	c-0.069,0.1-0.167,0.178-0.28,0.222c-0.01-0.063-0.039-0.12-0.084-0.166v0.028c-0.167,0.126-0.346,0.237-0.533,0.332
	c0.028,0.061,0.047,0.127,0.057,0.193c-0.15,0.02-0.215,0.086-0.364,0.111l-0.028-0.194h-0.056
	c-0.209,0.066-0.426,0.104-0.646,0.111v0.028c0.029,0.051,0.049,0.107,0.057,0.166h-0.168c-0.073,0.023-0.148,0.042-0.225,0.055
	v-0.112c-0.018-0.024-0.027-0.053-0.027-0.083l-0.7,0.083v0.056c0.069,0.031,0.042,0.026,0.056,0.139h-0.057
	c-0.106,0.043-0.221,0.062-0.336,0.055c0.004-0.074-0.027-0.146-0.084-0.193c-0.209,0.066-0.426,0.104-0.645,0.11v0.028
	c0.035,0.048,0.055,0.105,0.056,0.166c-0.133-0.004-0.266,0.016-0.392,0.055l-0.029-0.193l-0.672,0.027v0.055
	c0.022,0.045,0.041,0.091,0.056,0.139l-0.364,0.027c-0.02-0.063-0.029-0.128-0.027-0.193l-0.674,0.027v0.055
	c0.023,0.043,0.033,0.092,0.028,0.14h-0.058c-0.099,0.032-0.204,0.042-0.308,0.028v-0.194l-0.645,0.028v0.193h-0.364v-0.193H25.48
	v0.193h-0.336v-0.193h-0.674c0.005,0.064,0.014,0.13,0.028,0.193h-0.364v-0.193H23.49v0.193h-0.365v-0.193H22.48v0.055
	c0.021,0.043,0.031,0.09,0.028,0.139h-0.364v-0.193h-0.672v0.055c0.022,0.042,0.032,0.09,0.027,0.139h-0.365v-0.193h-0.644v0.193
	h-0.365v-0.193h-0.645v0.193h-0.336v-0.193H18.5v0.193h-0.364v-0.193h-0.645v0.193h-0.364v-0.193h-0.645v0.055
	c0.021,0.033,0.031,0.072,0.028,0.111c-0.119,0.026-0.242,0.035-0.364,0.027v-0.193h-0.673v0.055
	c0.023,0.042,0.033,0.09,0.028,0.139h-0.364v-0.193h-0.645v0.055c0.022,0.033,0.022,0.077,0,0.111
	c-0.118,0.035-0.242,0.045-0.364,0.027v-0.193h-0.645v0.055c0.023,0.042,0.033,0.09,0.028,0.139h-0.364v-0.193h-0.673v0.055
	c0.023,0.042,0.033,0.09,0.028,0.139h-0.365v-0.193h-0.644v0.193h-0.365v-0.193h-0.644v0.055c0.023,0.042,0.033,0.09,0.028,0.139
	h-0.393l0.028-0.195c-0.234-0.006-0.468-0.023-0.7-0.055v0.166c-0.118,0.008-0.236-0.021-0.336-0.082
	c-0.02-0.032-0.03-0.069-0.029-0.106c0.031-0.017,0.052-0.048,0.056-0.083C8.89,25.6,8.738,25.5,8.493,25.475v0.055
	c-0.021,0.033-0.031,0.072-0.028,0.111c-0.117,0.001-0.233-0.027-0.336-0.084c-0.021-0.033-0.031-0.071-0.029-0.11
	c0.031-0.017,0.052-0.048,0.056-0.083l-0.646-0.139l-0.028,0.166L7.12,25.309V25.28h0.028c-0.009-0.058,0-0.116,0.028-0.166
	c-0.15-0.021-0.557-0.248-0.589-0.222c-0.034,0.045-0.049,0.123-0.084,0.166c-0.092-0.084-0.246-0.107-0.336-0.193
	c0.059-0.033,0.092-0.099,0.084-0.165c-0.123-0.174-0.275-0.324-0.451-0.444c-0.006,0.059-0.025,0.115-0.056,0.166H5.69
	c-0.059-0.088-0.135-0.164-0.224-0.222l0.028-0.083c0.033-0.033,0.061-0.07,0.084-0.111c-0.151-0.146-0.311-0.285-0.478-0.414
	c-0.007,0.064-0.051,0.117-0.112,0.139c-0.087-0.082-0.163-0.175-0.224-0.277c0.041-0.037,0.07-0.085,0.084-0.139
	c-0.164-0.111-0.306-0.252-0.42-0.414H4.4c-0.014,0.053-0.043,0.101-0.084,0.138c-0.021-0.003-0.041-0.013-0.056-0.028
	c-0.114-0.046-0.192-0.154-0.2-0.277c0.044-0.017,0.083-0.045,0.112-0.082l-0.168-0.139l-0.5-0.166
	c-0.122-0.062-0.226-0.217-0.336-0.277L2.8,22.014l-0.028-0.082c-0.125,0.006-0.249,0.033-0.364,0.082
	c-0.169,0.026-0.341,0.008-0.5-0.055c-0.023-0.041-0.051-0.078-0.084-0.111c0.003-0.143,0.031-0.282,0.084-0.414
	c-0.008-0.148-0.008-0.296,0-0.443c0.067-0.115,0.142-0.227,0.224-0.332c0.075,0.031,0.059,0.053,0.14,0.083V20.52
	c0.015-0.016,0.025-0.035,0.028-0.056H2.271v-0.028L1.542,20.27v-0.11c0.05-0.143,0.078-0.292,0.084-0.443H1.6
	c-0.017,0.031-0.049,0.052-0.084,0.056c-0.012-0.08-0.041-0.155-0.086-0.222c-0.261,0.089-0.548,0.06-0.785-0.083
	c-0.549-0.259-0.785-0.914-0.525-1.464c0.06-0.127,0.143-0.241,0.246-0.336c0.063-0.138,0.187-0.239,0.335-0.276
	c0.083-0.018,0.167-0.027,0.252-0.027c1.053-0.264,1.28,0.585,1.934,0.664c0.185-0.057,0.372-0.104,0.562-0.139v-0.055
	c0.032-0.013,0.381,0.054,0.5,0.055c-0.006-0.093-0.06-0.065,0.028-0.111c0.053,0.027,0.115,0.027,0.168,0v0.056
	c-0.023,0.014-0.042,0.032-0.056,0.055H4.2c0.229-0.063,0.463-0.109,0.7-0.138c0.069-0.063,0.144-0.119,0.224-0.166
	c0.305-0.041,0.615-0.003,0.9,0.111c0.023,0.09-0.014,0.042,0.056,0.082V17.7c0.155,0,0.668,0.1,0.7,0.083v-0.061
	c0.138-0.03,0.278-0.049,0.42-0.055c0.114-0.031,0.258-0.139,0.364-0.166c0.192-0.049,0.217,0.158,0.448,0.111
	c0.08-0.03,0.156-0.068,0.229-0.113L9,17.446c0.071-0.036,0.146-0.064,0.224-0.083v0.083c0.022,0.014,0.042,0.032,0.056,0.055
	c0.434-0.139,1.009-0.009,1.486-0.11c0.185-0.038,0.373-0.066,0.561-0.084l0.028,0.084H11.8c0.014-0.056,0.057-0.099,0.112-0.111
	c0.157,0.127,0.367,0.168,0.561,0.111c0.476,0.046,0.956,0.036,1.43-0.028c0.06-0.034-0.024-0.052,0.112-0.083v0.083h0.757v0.249
	c-0.175,0.033-0.355,0.043-0.533,0.027v0.028c0.061,0.069,0.117,0.144,0.168,0.221h2.271v-0.3c-0.143-0.008-0.284-0.036-0.42-0.083
	v-0.169h0.42l0.028-0.525c-0.067-0.177-0.086-0.368-0.056-0.555c0.043-0.115,0.062-0.237,0.056-0.359
	c-0.07-0.215-0.09-0.441-0.056-0.664h0.056v-0.277h0.112c0.026-0.377,0.024-0.671,0.028-1.052h0.364v-0.111h0.39V13.9h1.654
	c0.267,0.039,0.539,0,0.785-0.111c0.099-0.106,0.159-0.244,0.171-0.389h0.112V2h0.056V13.4z"/>
</svg>
