<svg xmlns="http://www.w3.org/2000/svg" width="80" height="40" viewBox="0 0 80 40">
  <defs>
    <style>
      .cls-1 {
        fill: #fff;
        fill-rule: evenodd;
      }
    </style>
  </defs>
  <path id="Color_Fill_1" data-name="Color Fill 1" class="cls-1" d="M42.272,9.475a0.3,0.3,0,0,1,.2,0h0.051a0.7,0.7,0,0,0,0,.253h-0.1a0.635,0.635,0,0,0-.051-0.2h-0.1V9.576a0.359,0.359,0,0,1,.153.2H42.272v1.111a1.763,1.763,0,0,0,.408-0.05V8.919c0.086-.135-0.085-0.066.051-0.152,0.066-.125-0.022-0.034.1-0.1v0.1a5.084,5.084,0,0,1,.051,1.111h0.1a0.2,0.2,0,0,1,.153-0.1l0.051,0.3c-0.1,0-.014-0.052-0.1,0a0.364,0.364,0,0,1,0,.354,0.262,0.262,0,0,1-.153.05v-0.1c0.012-.031.028-0.331,0.051-0.455h-0.1v0.859h0.1a0.185,0.185,0,0,1,.1-0.051v0.3a0.523,0.523,0,0,1,0,.4,6.634,6.634,0,0,1,.766-0.05,2.4,2.4,0,0,1,.051-0.96v0.96h0.2a2.552,2.552,0,0,1,.051-1.01v1.01h0.153a2.093,2.093,0,0,1,.051-0.859,4.405,4.405,0,0,0,.051.859h0.1v-0.05a1.145,1.145,0,0,0,.1-0.808h0.051a6.574,6.574,0,0,1-.051,2.02v-1.01H44.365a2.552,2.552,0,0,1-.051,1.01v-1.01H44.161a2.246,2.246,0,0,1-.051.909,4.733,4.733,0,0,0-.051-0.909H43.906a2.245,2.245,0,0,1-.051.909,4.725,4.725,0,0,0-.051-0.909H43.4a0.557,0.557,0,0,0-.306-0.051,0.973,0.973,0,0,1,.051.4V11.95a1.9,1.9,0,0,1-.255-0.152v0.707a18.071,18.071,0,0,1,0,2.323h0.459V14.576a0.248,0.248,0,0,1,.153.051,0.481,0.481,0,0,0,0,.252c-0.646.648-.64,0.377-0.613,1.717h0.408V16.343H43.6v0.152h3.574q0.026-.48.051-0.96h-0.1a0.717,0.717,0,0,1-.051.253H47.02V15.636c0-.105.023-0.031-0.051-0.152H47.53v0.051c-0.151.079,0,.059-0.1,0.2v-0.05a0.391,0.391,0,0,0-.153-0.152v0.606h0.051a0.172,0.172,0,0,1,.051-0.1v0.151a4.533,4.533,0,0,0-.1,1.364h0.1a0.635,0.635,0,0,1,.051-0.2h0.051v0.151a0.772,0.772,0,0,1-.511.1V17.556c0.169-.109-0.015-0.093.153-0.2,0.021,0.181-.024.127,0.1,0.2V16.9a0.971,0.971,0,0,1-.051-0.253,2.768,2.768,0,0,0-1.021-.05h-2.5a4.776,4.776,0,0,1-.766.5V20.03a1.292,1.292,0,0,0,.408.05,1.489,1.489,0,0,1,.051-0.657v0.657c0.688-.044,1.4-0.1,2.144-0.1-0.017-.467-0.141-0.96.153-1.01a6.39,6.39,0,0,0,.051.859,7.258,7.258,0,0,0,2.2-.151,1.317,1.317,0,0,1,.562-0.808v0.1a3.491,3.491,0,0,0-.409.859,1.589,1.589,0,0,1,.664.707l0.562,0.3-0.051.151h-0.1a2.341,2.341,0,0,1-.715-0.05v0.05a4.042,4.042,0,0,1,.511,1.313c0.116-.02.055-0.046,0.153,0a11.832,11.832,0,0,1,.459,1.616h0.306a2.139,2.139,0,0,1,.919,0,0.275,0.275,0,0,1,0-.2,0.546,0.546,0,0,0,.408.2v-0.05A1.771,1.771,0,0,1,51,23.616h0.051v-0.05H51.1v0.05a0.337,0.337,0,0,1,.2.3h1.225v0.05a1.221,1.221,0,0,0-.357.354h0.051a0.62,0.62,0,0,1,.2-0.2v0.1a0.2,0.2,0,0,0-.1.151h0.357v-0.1c-0.068-.088-0.088-0.081-0.051-0.151V24.071a2.132,2.132,0,0,1,.562.152V22.758c-0.013-.049-0.04-0.019,0-0.05a0.2,0.2,0,0,1,.2-0.1c0.468,0.292,1.561-.1,1.94,0V22.4a0.359,0.359,0,0,1-.1-0.2,2.667,2.667,0,0,1-.97-0.2,0.927,0.927,0,0,0,.051-0.454,0.681,0.681,0,0,0-.408-0.1V21.6a1.091,1.091,0,0,0-.2.2h-0.1a0.172,0.172,0,0,0-.051-0.1,0.449,0.449,0,0,0,.2-0.455,0.764,0.764,0,0,1-.409-0.3h0.255a1.007,1.007,0,0,0,.2.1,0.531,0.531,0,0,1,.1.252,1.763,1.763,0,0,1,.408.05,0.762,0.762,0,0,1,.1.2,0.256,0.256,0,0,1,.051.151l0.664-.2a1.131,1.131,0,0,0-.919-0.454,0.185,0.185,0,0,1-.1.05V20.838h0.051a2.928,2.928,0,0,0,1.378.05,1.942,1.942,0,0,1,.051-0.808v1.01H55.546a0.956,0.956,0,0,0-.459-0.05v0.05a3.3,3.3,0,0,0,.715.657l0.051-.1a0.2,0.2,0,0,1-.1-0.152H55.8a1.2,1.2,0,0,0,.255.253,1.966,1.966,0,0,1-.153-0.808c0.033-.043.068-0.159,0.1-0.2a1.789,1.789,0,0,0,.051.758v-0.05a1.962,1.962,0,0,0,.051-0.808,0.36,0.36,0,0,1,.357-0.1,1.77,1.77,0,0,0,.562.1,2.221,2.221,0,0,1,.153.657,0.364,0.364,0,0,0-.2.4c0.693-.018,1.315.05,2.144,0.05l-0.051-.707a0.176,0.176,0,0,0,.1-0.051,0.175,0.175,0,0,1,.1.051,2.478,2.478,0,0,1,.153.707h0.357a2.475,2.475,0,0,0,.919.05c0.579,0,1.114.007,1.787,0a0.243,0.243,0,0,1-.051.152,11.761,11.761,0,0,1-2.655.05,0.558,0.558,0,0,1-.306.05l0.051,0.556,2.961,0.05,0.1,0.05c-0.282.54-.057,2.633-0.051,3.384a4.115,4.115,0,0,1,.766,0h0.051a1.164,1.164,0,0,0-.1.4l3.267-.05V26.394a0.2,0.2,0,0,1-.1-0.2,0.812,0.812,0,0,1,.255-0.05,0.955,0.955,0,0,0,.459.05,1.766,1.766,0,0,1,0-.657h0.2a1.256,1.256,0,0,0,.051-0.4,1,1,0,0,1-.357-1.01,2.052,2.052,0,0,1,.817.1,2.063,2.063,0,0,1,.306.808,0.441,0.441,0,0,1,.46.2,0.59,0.59,0,0,1,.1.4h0.255c0.025,0.217,0,.388,0,0.808h1.072a15.34,15.34,0,0,0-.051-1.768h0.2a16.936,16.936,0,0,0-.051,1.768H70.5a15.127,15.127,0,0,0,0-1.818h0.051v-0.05a0.175,0.175,0,0,1,.1.05,0.256,0.256,0,0,1,.051.151,4.562,4.562,0,0,0-.051,1.667l2.706-.1a1.707,1.707,0,0,0-.051-0.4c0.18-.036.127-0.062,0.306-0.1,0.17,0.264,1.277.073,1.583,0.05a4.161,4.161,0,0,0-.1.4h0.1c0.088,0.044.065,0.045,0.153,0-0.126-.065-0.035.022-0.1-0.1,0.529,0.028.852-.033,1.43-0.05v0.1H76.631c-0.039.035-.114,0.066-0.153,0.1a6.1,6.1,0,0,0,2.2-.151,0.433,0.433,0,0,0,.051-0.253h0.255l0.051,0.253a5.209,5.209,0,0,1,.97.05v0.151a4.572,4.572,0,0,0-.919,1.263A23.257,23.257,0,0,0,77.4,30.384c-0.069.131-.259,0.331-0.306,0.455V31.6a0.419,0.419,0,0,1,.2.3,1.922,1.922,0,0,1-.97.151,7.147,7.147,0,0,1-3.114,2.525,18.356,18.356,0,0,1-2.91.657l-1.787.05a19.415,19.415,0,0,1-3.369.1l-6.433-.05-3.523-.05a12.719,12.719,0,0,1-2.3-.05H51.87a16.409,16.409,0,0,1-2.961-.1h-0.97a14.792,14.792,0,0,1-2.757-.1H43.7a13.577,13.577,0,0,1-2.348-.1c-0.609-.13-1.395.066-1.94-0.05l-8.577-.151-7.2-.2-6.79-.152c-1.433.323-2.953,0.358-4.391,0.707-0.711.173-1.4,0.074-2.093,0.3-0.158.053-.419,0.2-0.613,0.253a2.663,2.663,0,0,0-.868.2c0.069,0.1.034,0.281,0.1,0.4,0.037,0.067.154,0.125,0.2,0.2a2.651,2.651,0,0,1-.562.152c-0.015-.01-0.022-0.1-0.1-0.05C8.4,36.62,8.355,36.9,8.22,37a1.317,1.317,0,0,1-.1-0.3,0.256,0.256,0,0,0,.051-0.152H8.117V36.6a2.661,2.661,0,0,1-.357.354V36.8a1.617,1.617,0,0,0,.1-0.808,0.476,0.476,0,0,1-.408-0.252c0.2-.083.125-0.159,0.153-0.3l0.1,0.05a0.809,0.809,0,0,0-.255-0.252,1.642,1.642,0,0,1-.1.758,2.384,2.384,0,0,1-1.327.151l-0.766-2.02a0.667,0.667,0,0,0,.357-0.05C4.717,34.013,5,33.267,5,32.4V27.556c-0.146-.24.132-0.343,0.2-0.556H5.054V26.849h0.2V26.8c-0.524-.574-0.521-1.621-1.021-2.222a6.177,6.177,0,0,1-1.378.606,7.917,7.917,0,0,1-1.991.909A8.1,8.1,0,0,1,0,24.02l2.451-1.162a1.348,1.348,0,0,0,.868-0.505,1.545,1.545,0,0,1-.255-0.5H3.114V21.8h0.1a0.264,0.264,0,0,0,.255.3v-0.05a0.181,0.181,0,0,0,.051-0.1,0.248,0.248,0,0,1-.153-0.05,1.008,1.008,0,0,1,.306,0c0.069,0.111.06,0.293,0.153,0.5A12.825,12.825,0,0,0,4.9,24.576H4.952v-0.1a0.175,0.175,0,0,1-.1-0.05l0.357-.05v0.3c-0.151-.029-0.158-0.1-0.255.05,0.376,0.249.572,0.737,0.919,1.01a1.211,1.211,0,0,1,.408.151c0.062,0.08.089,0.224,0.153,0.3a1.619,1.619,0,0,1,.408-1.061v0.1a2.768,2.768,0,0,1,.1.354A2.691,2.691,0,0,1,7.2,25.081c-0.118-.068-0.093-0.062-0.1-0.1a0.5,0.5,0,0,1,.2-0.2,0.964,0.964,0,0,0,.051.354,0.446,0.446,0,0,0,.255.05v-0.1c0.15-.255-0.06-0.439.2-0.5v0.05a0.256,0.256,0,0,0-.051.151,1.558,1.558,0,0,1,.766.152v0.1H8.475a0.833,0.833,0,0,0-.715-0.152,0.4,0.4,0,0,1,0,.2c0.21,0.07.518,0.162,0.715,0.253A14.95,14.95,0,0,1,8.526,26.9a0.248,0.248,0,0,0-.153.05H8.526a6.831,6.831,0,0,0,.051-1.818H8.628V26.95a1.289,1.289,0,0,0-.255.1H9.19v-0.1a15.775,15.775,0,0,1,.562-1.566,1.439,1.439,0,0,1,.817,0c0.062,0.2-.019.554,0.051,0.808L10.925,27l0.153,0.05V26.7c-0.126-.065-0.035.022-0.1-0.1A4.624,4.624,0,0,1,12,26.6v-0.1c0.1-.148.095-0.417,0.2-0.556a1.79,1.79,0,0,1,1.072-.1,1.084,1.084,0,0,0,.1.354h0.051V25.485a1.136,1.136,0,0,1,.255-1.616h0.255l0.2-.556a1.557,1.557,0,0,1,1.327-.555,3.74,3.74,0,0,0-.051.758c0.131,0.082.389-.026,0.562,0.05l0.255,0.3c0.051,0.019,1.072.05,1.072,0.05,0.368-.205.192-0.475,0.613-0.505l-0.051.253h0.2c-0.02-.168-0.051-0.143.2-0.151,0.006,0.192-.051.139,0.2,0.151,0.072,0.047.262-.008,0.357,0.05a0.671,0.671,0,0,0,.306.253c0.031-1,.723-1.012,1.532-1.263v0.2a1.715,1.715,0,0,0-.153,1.01V23.768a0.817,0.817,0,0,0,.357.05h0.051a2.577,2.577,0,0,1-.2-0.455,3.512,3.512,0,0,0,.919-0.3,2.79,2.79,0,0,1,1.736.2,2.317,2.317,0,0,1-.153-0.4h-0.2l-0.051-.151h0.459a1.091,1.091,0,0,1,.766.151c0.007-.206.046-0.162,0.357-0.151v-0.05a1.385,1.385,0,0,1-.613-0.05,0.3,0.3,0,0,0,.2-0.1,2.32,2.32,0,0,0,.97.2c0.02,0.128-.03.08,0.153,0.1v0.2H24.965v0.354c-0.124.046-.081,0.054-0.2,0.1a0.323,0.323,0,0,0-.051-0.2v0.152H24.557V23.263H24.046v0.4h0.2v-0.3h0.1v0.354a1.259,1.259,0,0,1,.664.2,4.6,4.6,0,0,0,1.583-.1c0.117-.015.289,0.1,0.511,0.1h1.94c0.166-.054.031-0.127,0.306-0.05,0.06-.875.742-0.882,1.48-1.111v0.4a3.44,3.44,0,0,0-.2.758h0.306c-0.1-.718-0.258-0.882.613-0.859a4.765,4.765,0,0,0,.97.252,1.391,1.391,0,0,1,1.276-.555c-0.058.536-.239,0.93-0.255,1.515h0.051v0.05h0.051v-0.05a1.513,1.513,0,0,1,.562-0.454,0.928,0.928,0,0,0,.664.1V23.566c0.546-.039.805,0,1.429,0a0.726,0.726,0,0,1,.715-0.556V22.96c-0.063-.079-0.033-0.026,0-0.1a0.172,0.172,0,0,1,.051-0.1,0.185,0.185,0,0,0,.1.05c-0.021.114-.047,0.055,0,0.151,0.325-.268,1.078-0.165,1.174-0.657a0.655,0.655,0,0,1,.2.05c0.02,0.132-.038.066,0.1,0.1a3.166,3.166,0,0,1,.766-0.252c0.555-.207,2.33-0.656,2.6-1.061l0.306-.909a0.175,0.175,0,0,1-.1-0.05h0.153a0.786,0.786,0,0,1-.1-0.555c0.08-.1.295-0.115,0.357-0.2V18.263a2.13,2.13,0,0,1-.459-0.05H42.119v-0.05H42.17a0.6,0.6,0,0,0,.459-0.151,3.644,3.644,0,0,0,.051-1.364h-0.2V16.6a0.433,0.433,0,0,0,.051-0.253H42.68V13.465H42.527a3.586,3.586,0,0,1-.255-0.505,0.359,0.359,0,0,0,.1-0.2H42.323v0.05a0.393,0.393,0,0,1-.153.152v-0.05a2.135,2.135,0,0,0-.051-0.253v0.1a0.481,0.481,0,0,0-.153.2l-0.153-.05V12.859c0.134-.12.078-0.147,0.051-0.354H42.17v-1.01c-0.062-.107-0.294-0.117-0.2-0.4a0.778,0.778,0,0,1,.2-0.152,2.813,2.813,0,0,0-.051-1.162c-0.068-.551.051-1.426,0.051-2.071V2h0.1V9.475Zm1.634,1.97c0.088,0.044.065,0.045,0.153,0H43.906Zm0.255,0c0.088,0.044.065,0.045,0.153,0H44.161Zm0.255,0a0.15,0.15,0,0,0,.2,0h-0.2Zm-2.144.05v1.01h0.1v-1.01h-0.1Zm0.255,0.051v0.1h0.051V11.6h0.051A0.184,0.184,0,0,0,42.527,11.546Zm0.408,0.1v0.1h0.051A0.172,0.172,0,0,0,42.936,11.647Zm-0.408.859H42.68V11.748h-0.1V11.8A1.659,1.659,0,0,0,42.527,12.505Zm-0.562.152v0.1h0.051v-0.05h0.051A0.184,0.184,0,0,0,41.966,12.657Zm0.562,0.051,0.051,0.252h0.1v-0.2Zm4.85,3.081c0.057,0.1.03,0.091,0,.2H47.326A0.632,0.632,0,0,1,47.377,15.788Zm-0.306.05a0.351,0.351,0,0,1,.1.354H47.122ZM47.122,16.9a0.377,0.377,0,0,1,0,.354H47.071V17.1A0.338,0.338,0,0,0,47.122,16.9Zm0.2,0.05a0.738,0.738,0,0,1,.1.354H47.377v-0.05A0.541,0.541,0,0,1,47.326,16.95Zm-3.982,2.424a0.668,0.668,0,0,1,.357.05A0.666,0.666,0,0,1,43.344,19.374Zm0.459,0.1a1.464,1.464,0,0,0,.1.505H43.446v-0.05c0.083-.1.078-0.292,0.153-0.4A0.347,0.347,0,0,1,43.8,19.475Zm10.313,0.859a0.146,0.146,0,0,1,0,.2v-0.2Zm2.91,0.556a0.785,0.785,0,0,0-.051.253h0.1A0.419,0.419,0,0,0,57.026,20.889Zm-0.051.354v0.1h0.051v-0.05h0.051A0.185,0.185,0,0,0,56.975,21.242Zm-1.276.151a0.182,0.182,0,0,1,.051.1H55.7v-0.1ZM3.012,21.95a0.256,0.256,0,0,1,.051.151h-0.1ZM3.625,22.4a15.084,15.084,0,0,0,.868,1.97h0.1v-0.1c-0.473-.544-0.527-1.713-1.021-2.222-0.117.185-.148,0.022-0.255,0.2A0.339,0.339,0,0,0,3.625,22.4Zm54.525,0v0.2h0.1a3.83,3.83,0,0,1,1.021,0l-0.051-.556-1.889.05v0.05h0.051A3.592,3.592,0,0,0,58.149,22.4Zm-1.48-.151a0.394,0.394,0,0,0-.153.151,0.256,0.256,0,0,0-.051.152,2.123,2.123,0,0,0,.613.051V22.556ZM23.74,22.3a0.182,0.182,0,0,1,.051.1H23.74V22.3Zm0.408,0.05h0.1V22.4h-0.1v-0.05Zm-0.459.05a0.256,0.256,0,0,1,.051.152H23.689V22.4Zm0.562,0c0.057,0.084.09,0.054,0,.1V22.4Zm29.151,0.4v1.465a0.452,0.452,0,0,1,.153.151,0.908,0.908,0,0,0,.2-0.1,0.309,0.309,0,0,1-.1-0.1h0.1c0.226,0.209.342-.007,0.357,0.4a0.338,0.338,0,0,0-.051.2h0.868v-2.02H53.4Zm1.889,2.02,1.889-.05a0.634,0.634,0,0,1,.051-0.2c-0.275-.019-0.264-0.068-0.255-0.354h0.153v-0.1a2.1,2.1,0,0,0,.306-1.263H57.384v-0.05H56.516l-0.051,1.111-0.306.253-0.664-.05a2.756,2.756,0,0,1-.153-1.313H55.29v2.02Zm4.288-2.02,0.2,1.111h-0.1a0.348,0.348,0,0,1-.2.05l-0.1-.96H58.4a5.124,5.124,0,0,0,.1,1.212H58.66v0.2h0.051c0.043-.136.032,0.021,0.1-0.1a0.182,0.182,0,0,1,.051.1,0.221,0.221,0,0,0-.153.152h0.2a0.635,0.635,0,0,1,.051-0.2h0.051v0.2h0.511a0.243,0.243,0,0,1,.051-0.152c0.042,0.164-.025.077,0.1,0.152,0.042-.164-0.025-0.077.1-0.152,0.075,0.128.023,0.078,0.2,0.1-0.019-.18.048-0.13,0.153-0.3h0.051v0.1a0.339,0.339,0,0,0-.051.2H60.4V24.475a0.308,0.308,0,0,1-.1-0.1h0.1a0.409,0.409,0,0,0,.408.152c0-.16-0.087-0.068.051-0.152v0.05a0.4,0.4,0,0,0,.255.2,0.309,0.309,0,0,0-.1.2h0.459v-1.97A7.255,7.255,0,0,0,59.579,22.808Zm2.2,0v2.02h0.613v-2.02H61.774Zm-6.688.05a7.814,7.814,0,0,0,.051,1.97A7.823,7.823,0,0,0,55.086,22.859Zm-30.581.354v-0.2a4.884,4.884,0,0,0-.715,0v0.05c0.044,0.1.024,0.037,0,.151h0.715Zm-0.97-.2a1.161,1.161,0,0,0,.051.2v-0.05a0.256,0.256,0,0,0,.051-0.151h-0.1Zm1.174,0v0.1h0.051A0.172,0.172,0,0,0,24.71,23.01Zm33.491,0a0.734,0.734,0,0,0,.1.505A0.523,0.523,0,0,0,58.2,23.01Zm-34.665.252v0.1h0.051v-0.1H23.535Zm0.255,0a0.3,0.3,0,0,0,0,.2,0.59,0.59,0,0,0,.153.1v-0.3H23.791Zm-8.526.657a0.614,0.614,0,0,0,.511,0H15.265Zm38.29,0.2c0.057,0.084.09,0.054,0,.1v-0.1Zm-0.459.151c-0.039.035-.114,0.066-0.153,0.1C53.019,24.36,53.249,24.317,53.1,24.273Zm5.922,0h0.1a0.143,0.143,0,0,1-.051.05v0.05H59.017v-0.1Zm1.583,0,0.153,0.05v0.05A0.194,0.194,0,0,1,60.6,24.273Zm-0.817.05a0.182,0.182,0,0,1,.051.1H59.783v-0.1Zm-55.29.253v0.1a3.5,3.5,0,0,0,.459.454A0.623,0.623,0,0,0,4.493,24.576ZM30.632,27a2.855,2.855,0,0,0,.766-0.1,7.242,7.242,0,0,0-.306-2.071,4.482,4.482,0,0,0-.46.3V27ZM4.544,24.879L5.31,26.293H5.361A2.147,2.147,0,0,0,4.544,24.879Zm0.408,0a1.072,1.072,0,0,0,.817.909v0.05H5.82v-0.1C5.481,25.512,5.3,25.106,4.952,24.879ZM50.8,25.485a0.248,0.248,0,0,0-.153.051,0.662,0.662,0,0,0-.051.354l0.306,0.05v0.606a1.562,1.562,0,0,1,.459,0q-0.025-.783-0.051-1.566h-0.1A0.768,0.768,0,0,0,50.8,25.485ZM8.526,25.03a0.181,0.181,0,0,1,.051.1H8.526v-0.1Zm-1.634.1a0.182,0.182,0,0,1,.051.1H6.892v-0.1Zm55.035,0.152a1.256,1.256,0,0,0-.051.4,0.729,0.729,0,0,0,.2.05,0.424,0.424,0,0,0,.1-0.152C62.295,25.41,62.164,25.294,61.927,25.283Zm-7.964.1a0.324,0.324,0,0,0,.051.2A0.323,0.323,0,0,0,53.963,25.384Zm-36.554.3v0.151h0.153V25.687H17.409Zm-1.225.05,0.051,0.151h0.051V25.737h-0.1Zm17.818,0a0.911,0.911,0,0,0,.051.454A0.911,0.911,0,0,0,34,25.737Zm20.319,0.1c-0.17.256-.244,0.607,0.255,0.606a0.609,0.609,0,0,0,.153-0.455A0.571,0.571,0,0,0,54.32,25.838ZM5,25.939c0.069,0.277.228,0.474,0.306,0.758H5.361V26.444C5.2,26.312,5.167,26.07,5,25.939Zm4.493,0.3a3.116,3.116,0,0,1-.1.707H9.5v-0.1A0.8,0.8,0,0,0,9.5,26.242Zm42.221,0a0.528,0.528,0,0,0,.051.3A0.528,0.528,0,0,0,51.717,26.242Zm-39.566.151a0.323,0.323,0,0,0,.051.2A0.324,0.324,0,0,0,12.151,26.394Zm1.123,0a0.573,0.573,0,0,0,.1.4A0.7,0.7,0,0,0,13.274,26.394Zm63.765,5.2-0.051-.455H76.937v0.1l-0.255.354h0.357Zm-0.051.151a0.192,0.192,0,0,0,.1.152A0.551,0.551,0,0,0,76.988,31.748ZM7.607,34.071l-0.051.4a3.993,3.993,0,0,1,.868-0.1,1.056,1.056,0,0,1,.357.96h0.1V34.626a0.791,0.791,0,0,1-.051-0.4,2,2,0,0,0-.868-0.1A0.683,0.683,0,0,0,7.607,34.071Zm2.348,0.1c-0.086.262-.049,0.788-0.1,1.061h0.408a2.755,2.755,0,0,0,1.072-.1c0.829-.212,1.82-0.3,2.655-0.505a4.449,4.449,0,0,0,1.378-.253,5.451,5.451,0,0,0-1.429-.05,3.608,3.608,0,0,0-1.276-.05Z" transform="translate(0 0.5)"/>
</svg>
