<svg xmlns="http://www.w3.org/2000/svg" width="80" height="40" viewBox="0 0 80 40">
  <defs>
    <style>
      .cls-1 {
        fill: #fff;
        fill-rule: evenodd;
      }
    </style>
  </defs>
  <path id="Color_Fill_1" data-name="Color Fill 1" class="cls-1" d="M42.183,4h2.481V4.5a1.954,1.954,0,0,0-1.149.229h0.046a0.235,0.235,0,0,0,.138.046c0.023,0.31.045,0.528,0.046,0.962h0.322V5.832H43.745a6.271,6.271,0,0,1-.138.641,6.7,6.7,0,0,1,0,.916c-0.1-.024-0.091-0.052-0.184,0a0.223,0.223,0,0,1,.138.046H43.423V7.984h0.046a0.874,0.874,0,0,1,.184-0.137V8.579h0.138V8.3h0.322V8.442h3.4V8.35a1.007,1.007,0,0,1-.138-0.5h0.092A0.5,0.5,0,0,0,47.6,8.3a0.774,0.774,0,0,1,.046-0.275H47.7V8.167a1.053,1.053,0,0,1-.184.549V8.579a19.524,19.524,0,0,0-3.4.046V8.762c-0.708.08-.726,0.427-0.689,1.236a10.154,10.154,0,0,1,0,1.786h0.322V11.326h0.322v0.5l-0.643.458v3.663c0.275,0.45-.186,1.475.092,1.923,0-.468.016-0.972,0.046-1.374h0.23v0.183h0.092V16.5h0.23c0.031,0.457.045,1.032,0.046,1.557l1.149-.046q-0.023-.481-0.046-0.962h0.046V17h0.138q0.023,0.458.046,0.916l2.619-.137V16.959H48.2a0.235,0.235,0,0,1,.138-0.046v0.87h0.322a1.307,1.307,0,0,0,.873.962V18.79H49.213a1.117,1.117,0,0,1-.505.046l0.368,1.1c0.173,0.007.162-.022,0.23,0.092a0.308,0.308,0,0,1,.046.183,0.5,0.5,0,0,0-.138.092,3.564,3.564,0,0,1,.551,1.191l-0.046.092a0.554,0.554,0,0,1,.184.046,1.271,1.271,0,0,0,.092.641,2.656,2.656,0,0,0,1.011.046,1.442,1.442,0,0,1,.413,0V19.66h2.16V19.615a8.618,8.618,0,0,0-2.252-.046,5.376,5.376,0,0,1,.046-0.733,4.111,4.111,0,0,0,.689-0.046h0.046c-0.025-.088-0.075-0.039,0-0.091a0.177,0.177,0,0,1,.138-0.092v0.229H52.43a0.578,0.578,0,0,1,.046-0.183h0.046V18.7a0.308,0.308,0,0,1,.046.183,0.7,0.7,0,0,0,.368-0.137c0.064-.02.285,0.045,0.413,0.046V18.607h0.092v0.229h0.827V18.7h1.516a3.437,3.437,0,0,1,.689-1.007c0.108-.225-0.029-0.3.184-0.412,0.05,0.366.36,0.343,0.781,0.32v0.046c-0.185-.006-0.251-0.025-0.322.092a0.548,0.548,0,0,0,.046.458c-0.092,0-.013-0.047-0.092,0a0.379,0.379,0,0,1,.184.275H57.163c-0.059-.148-0.04-0.12-0.23-0.137-0.035.031-.1,0.06-0.138,0.092,0.3,0.026.252,0.238,0.23,0.55l0.6,0.092V19.019a1,1,0,0,1-.368-0.55h0.092v0.046l0.46,0.6h0.046V19.065a0.4,0.4,0,0,0,.046-0.229h0.138v0.275h0.046v0.046a2.409,2.409,0,0,0,.781.092,0.4,0.4,0,0,0,.046-0.229h0.138a0.92,0.92,0,0,1-.046.32h0.046c0.16-.085.656,0.155,0.827,0.046V19.8c1.317,0,3-.108,4.09-0.046v0.5c-1.2,0-2.542-.044-3.814-0.046V20.3a0.424,0.424,0,0,1,.506.412,1.391,1.391,0,0,1-.414.275,0.36,0.36,0,0,0-.368-0.137c0,0.536.032,1.082,0.046,1.557H59.69V22.179H59.368a3.5,3.5,0,0,1,.092.458,1.632,1.632,0,0,0-.184,1.236H59.46v0.091H59.276v0.412H59.46v0.046H59.414c-0.035.031-.1,0.06-0.138,0.091H59.46l0.138-.5a2.357,2.357,0,0,1,.414-0.183v0.137a3.247,3.247,0,0,0-.092.5h0.689V24.239h0.459A10.471,10.471,0,0,0,61.022,23h0.184a11.8,11.8,0,0,0-.046,1.236h0.23V24.148a0.28,0.28,0,0,1-.092-0.092h0.23V23.919h0.138c0.038,0.149-.023.07,0.092,0.137V23.278a0.308,0.308,0,0,1-.046-0.183H61.9c-0.019.286-.046,0.618-0.046,0.962a3.073,3.073,0,0,0,.873-0.092,0.467,0.467,0,0,1-.414-0.229c0.729-.19,1.266-0.787,2.16-0.6a0.629,0.629,0,0,1,.138.366,1.617,1.617,0,0,0-.138.229h0.965a0.5,0.5,0,0,0,.276.046v0.641l5.468-.046L71.086,23.14h0.184c-0.023.36,0,.772,0,1.236h0.505a9.557,9.557,0,0,0-.046-1.145h0.046V23.186h0.138c0,0.239-.048.72-0.046,1.145a5.593,5.593,0,0,0,1.471.046,0.675,0.675,0,0,0-.092-0.458h0.184V23.781a15.54,15.54,0,0,0,1.746.092,2.227,2.227,0,0,0-.092.458,0.97,0.97,0,0,0,.46-0.046,1,1,0,0,1-.322-0.092V24.148h0.046V24.1a1.971,1.971,0,0,0,.551.092A1.245,1.245,0,0,1,76.37,24.1v0.092a1.237,1.237,0,0,1,.322-0.046h0.046v0.092H76.692c-0.035.031-.1,0.06-0.138,0.092,0.822,0,1.658-.034,2.435-0.092,0.042-.111.049-0.073,0.092-0.183a0.308,0.308,0,0,0,.046-0.183h0.23v0.275L80,24.194v0.092a9.093,9.093,0,0,0-.965,1.374,35.63,35.63,0,0,0-2.343,3.892c0.38-.025.59-0.056,0.6,0.321a1.067,1.067,0,0,1-.551.092,0.855,0.855,0,0,1-.414.046,7.188,7.188,0,0,1-4.135,2.839c-0.579.185-1.275,0.192-1.838,0.32h-0.6c-0.727.157-1.661-.075-2.435,0.092a8.455,8.455,0,0,1-1.516.046H62.952l-9.512-.092v0.275c-0.87.011-1.592,0.3-2.481,0.321a1.5,1.5,0,0,1-.046-0.458,0.4,0.4,0,0,1-.046-0.229l-31.338-.778a7.345,7.345,0,0,0-2.252.091,8.495,8.495,0,0,1-1.287.092,5.8,5.8,0,0,0-1.333.275c-0.823.209-1.66,0.22-2.435,0.412L10.89,33.4c-0.158.047-.336,0.177-0.505,0.229a1.2,1.2,0,0,0-.735.229,1.665,1.665,0,0,1,.23.549,0.716,0.716,0,0,1-.414-0.046V34.5H9.512v0.046H9.466v0.046a0.217,0.217,0,0,0-.23,0,2.015,2.015,0,0,1-.276.366,0.79,0.79,0,0,0-.092-0.321A0.233,0.233,0,0,0,8.914,34.5H8.868v0.092L8.5,34.908V34.725a1.639,1.639,0,0,0,.092-0.778,0.477,0.477,0,0,1-.322-0.092,0.233,0.233,0,0,1-.046-0.137,0.3,0.3,0,0,0,.092-0.366L8.271,33.26H8.225v0.092a1.454,1.454,0,0,0-.092.6H7.949v0.137H6.755a12.951,12.951,0,0,1-.735-1.969,0.4,0.4,0,0,0,.414-0.092H5.974c-0.067-.115-0.058-0.084-0.23-0.092V27.124a11.708,11.708,0,0,1,0-1.786c0.07-.13.259-0.205,0.322-0.321V24.194a9.976,9.976,0,0,1-.689-2.106c-0.569-1.529-1.107-3.154-1.608-4.716H3.814V17.325a1.735,1.735,0,0,0,.551.046v0.091l-0.138-.046c-0.018.12,0.034,0.06-.092,0.092a0.257,0.257,0,0,0-.184,0L5.56,22.316a0.154,0.154,0,0,1,.138,0l0.046,0.092c-0.131-.015-0.1-0.048-0.184,0a7.311,7.311,0,0,0,.919,1.007V23.049a0.177,0.177,0,0,1-.092-0.137,0.721,0.721,0,0,1,.23-0.046l-0.046.549H7.076l-0.046-.6A6.238,6.238,0,0,1,7.9,22.728V22.5H8A4.25,4.25,0,0,0,8,23a0.711,0.711,0,0,0,.322.091,0.131,0.131,0,0,1,.046-0.046c-0.04-.165-0.032-0.29.138-0.32-0.005.16-.031,0.1,0.138,0.183v0.046c-0.145,0-.062-0.078-0.138.046a0.254,0.254,0,0,0,0,.183,0.559,0.559,0,0,1,.276.32A1.643,1.643,0,0,0,8.685,23H8.731a0.311,0.311,0,0,0,.184.046c0.077,0.323.226,0.382,0.322,0.687a3.45,3.45,0,0,1-.092,1.236H9.833l0.046-.091a5.889,5.889,0,0,0,.322-1.328c0.37-.025.624-0.131,1.057-0.137,0.027,0.465.233,0.778,0.276,1.236h0.505c-0.027.17-.061,0.151-0.092,0.321,0.824,0,1.55.037,2.3,0.046V24.239a0.7,0.7,0,0,0-.368,0V24.148h0.368c-0.009-.606-0.752-1.177-0.322-1.786a1.33,1.33,0,0,1,.46-0.5c0.579,0.127.452-.521,0.873-0.824a2.768,2.768,0,0,1,1.011-.275v0.412a0.89,0.89,0,0,0-.092.366h0.368a0.833,0.833,0,0,0,.368.366c0.047-.145.073-0.186,0.184-0.137a0.352,0.352,0,0,1,.138.137,7.37,7.37,0,0,0,.873-0.046,0.4,0.4,0,0,1,.184-0.137l-0.046-.275H18.38a1.668,1.668,0,0,1,1.333-.687v0.412a3.57,3.57,0,0,0-.184.687,0.949,0.949,0,0,0,.23.092c0.067-.116.02-0.071,0.184-0.092V21.721a0.531,0.531,0,0,1,.322-0.092,0.368,0.368,0,0,1,.276-0.046,2.794,2.794,0,0,1,.276.275c0.2,0.092.638-.211,0.781-0.092,0.159,0.143,0,.177.368,0.183a3.287,3.287,0,0,1,1.195,0,15.579,15.579,0,0,1,.322-1.694H23.113a2.379,2.379,0,0,0-.873-0.046c-0.543-.007-1.184-0.051-1.792-0.046V20.027c1.057,0,2.146-.079,3.079-0.092l0.092-.733h0.23l-0.092.733h1.379a1.008,1.008,0,0,1,.781-0.046l0.046-.229a1.733,1.733,0,0,1-.23-0.229c0.048-.244.144-0.365,0.184-0.6l0.827-.091a1.071,1.071,0,0,1,.23.824c0.079,0.159-.075.2-0.138,0.366h0.046a0.507,0.507,0,0,1,.23-0.229V19.8s-0.133.06-.092,0.092h0.046a0.184,0.184,0,0,0,.184.092V19.8l0.551-.5a0.166,0.166,0,0,0-.092-0.046,0.514,0.514,0,0,0-.46.046V19.065h0.092a2.825,2.825,0,0,0,1.287.046,3.118,3.118,0,0,1,.092-0.55l0.046,0.733a1.719,1.719,0,0,0-.6-0.046l-0.413.5h0.459v0.137a0.586,0.586,0,0,1,.184.046,0.335,0.335,0,0,1,.184-0.366c0.07-.047.226,0.007,0.322-0.046,0.255-.141.012-0.354,0.6-0.366v0.092H29.454c-0.231.152-.366,0.055-0.368,0.458a0.245,0.245,0,0,1,.138.229v0.046a0.157,0.157,0,0,1-.092-0.046,0.729,0.729,0,0,0-.551-0.275v0.091a0.83,0.83,0,0,0,0,.55,1.582,1.582,0,0,0-.965.183,6.635,6.635,0,0,0-.092,1.328,7.593,7.593,0,0,0,2.16.137,0.931,0.931,0,0,1,.689-0.092V21.812A0.634,0.634,0,0,1,30.19,21.4a3.538,3.538,0,0,1,1.608-.412c0.2,0.039,1.011.229,1.011,0.229a3.473,3.473,0,0,1,.735-0.412c0.193-.053.453,0,0.6-0.046V20.9a6.313,6.313,0,0,0-.276,1.328c0.035,0.135.242,0.277,0.276,0.412,0.008,0.032-.046.3-0.046,0.412v1.786a0.39,0.39,0,0,0,.322.137V24.148h0.138a1.278,1.278,0,0,0-.092-0.55c0.163-.033.114-0.056,0.276-0.092a2.594,2.594,0,0,0,1.287.092,11.034,11.034,0,0,1,.643-1.74,0.927,0.927,0,0,1,.413-0.733,5.341,5.341,0,0,1,1.241-.412c0.875-.324,1.829-0.636,2.711-0.962,0.481-.178,1.211-0.2,1.378-0.687A5.608,5.608,0,0,0,42.6,18.1h0.138a0.993,0.993,0,0,1-.092-0.5l0.138-.183c0.186,0.074.057,0.023,0.322,0,0-1.6.09-3.124,0.092-4.808a6.7,6.7,0,0,1-1.379-1.786h0.092c0.166,0.522.556,0.575,1.287,0.55V10.5a0.807,0.807,0,0,1-.414-0.458,2.181,2.181,0,0,0,.138-1.328L42.6,8.625c-0.227-.464.135-0.565,0.6-0.6V6.7H43.1c-0.059.005-.057,0.046-0.184,0.092V6.7a1.755,1.755,0,0,0-.046-0.87H42.55V5.74c0.149-.038.07,0.022,0.138-0.092h0.046V5.6H42.688a0.235,0.235,0,0,1-.138.046V5.42h0.184l0.046-.137a2.227,2.227,0,0,0,.046-0.5h0.459l0.046-.137c-0.423-.014-0.7-0.128-1.149-0.137V4Zm1.011,1.191c-0.149.038-.07-0.022-0.138,0.092a0.722,0.722,0,0,1,.046.366h0.092V5.191Zm0,0.641h-0.23V5.877a0.951,0.951,0,0,1,.138.366h0.092V5.832Zm0.23,0V6.244h0.046V6.2a0.7,0.7,0,0,0,.138-0.366H43.423Zm0,1.053a0.3,0.3,0,0,0,.046.183A0.3,0.3,0,0,0,43.423,6.885ZM43.469,7.16V7.205H43.423c-0.088.035,0.092,0.046,0.092,0.046A0.157,0.157,0,0,0,43.469,7.16Zm0.184,0.183a0.134,0.134,0,0,1,0,.183V7.343ZM47.6,7.434a1.081,1.081,0,0,1-.092.549V7.434c-0.2.025-.208,0.126-0.276-0.046h0.643V7.48c-0.092,0-.013-0.047-0.092,0a0.133,0.133,0,0,1,0,.183C47.765,7.477,47.779,7.476,47.6,7.434Zm-0.322.092a0.233,0.233,0,0,1,.046.137H47.283V7.526ZM43.7,7.572a0.133,0.133,0,0,1,0,.183V7.572Zm3.676,0a0.273,0.273,0,0,1,0,.275H47.329V7.663A0.165,0.165,0,0,0,47.375,7.572Zm0.322,0a0.338,0.338,0,0,1,.092.275H47.743V7.755A0.308,0.308,0,0,1,47.7,7.572Zm-0.046.275c0.117,0.067.052-.01,0.092,0.137H47.651V7.846Zm-4.6.87A7.123,7.123,0,0,0,43.1,10h0.092V8.762Zm4.411,0a0.927,0.927,0,0,1,0,.5H47.375V9.037A0.673,0.673,0,0,0,47.467,8.716Zm0.138,0a0.93,0.93,0,0,1,.138.5H47.651V8.991A0.494,0.494,0,0,1,47.6,8.716Zm0,0.916h0.138L47.789,9.4h0.046V9.541a0.165,0.165,0,0,0-.046.092h0.046a0.157,0.157,0,0,1,.046-0.092V9.678H47.237a0.22,0.22,0,0,1,.046-0.137,0.157,0.157,0,0,0,.046.092L47.283,9.4h0.046V9.495a0.233,0.233,0,0,1,.046.137h0.138a1.36,1.36,0,0,1,.046-0.6ZM47.329,9.22a0.216,0.216,0,0,1,.092.229H47.375V9.357A0.232,0.232,0,0,1,47.329,9.22Zm0.414,0a0.238,0.238,0,0,1,0,.229H47.7A0.654,0.654,0,0,1,47.743,9.22Zm-6.157,1.374c0.149,0.038.07-.022,0.138,0.092H41.677V10.64c-0.064-.009.019,0.038-0.046,0.046C41.6,10.773,41.585,10.594,41.585,10.594Zm0.046,0.137a0.133,0.133,0,0,1,0,.183V10.731Zm0.138,0a0.165,0.165,0,0,1,.046.091H41.769V10.731Zm1.1,0.778H42.458v0.046a1.489,1.489,0,0,1,.368.55h0.046v-0.6ZM3.722,17.462a0.233,0.233,0,0,1,.046.137H3.676Zm53.716,0.183,0.138,0.046v0.046A0.175,0.175,0,0,1,57.438,17.646Zm-0.6.046v0.321h0.184V17.691H56.841Zm-53.165.046c0.113,0.059.031-.02,0.092,0.092A10.451,10.451,0,0,1,4.5,19.935H4.411a8.735,8.735,0,0,1-1.7.55,10.643,10.643,0,0,1-2.022.687C0.537,20.441.126,19.818,0,19.065c0.842-.449,2.06-0.717,2.849-1.053A4.019,4.019,0,0,0,3.676,17.737Zm53.073,0a1.71,1.71,0,0,0-.138.275l0.184,0.046v-0.32H56.749Zm0.873,0.046a0.165,0.165,0,0,1,.046.091H57.622V17.783Zm0.046,0.091a0.234,0.234,0,0,1,.046.137H57.668V17.874Zm-14.2.137V18.1h0.046A0.157,0.157,0,0,0,43.469,18.012Zm14.245,0a0.233,0.233,0,0,1,.046.137H57.714V18.012Zm0,0.183h0.092v0.229H57.714V18.2Zm-30.465.092a0.926,0.926,0,0,1,.092.641H27.295v0.046H27.249V18.287Zm23.8,0.549h0.138a7.89,7.89,0,0,1,.046.87H51.143C51.143,19.319,51.057,19.212,51.051,18.836Zm2.573,0.046v0.137a0.686,0.686,0,0,0,.413-0.092Zm0.505,0v0.137h0.138V18.882H54.13Zm-27.341.046q0.023,0.412.046,0.824h0.046V19.706a1.6,1.6,0,0,0,0-.733Zm24.859,0.229a0.22,0.22,0,0,0-.046-0.137,0.394,0.394,0,0,0-.184.137h0.23Zm0.23-.092V19.2H51.97a0.131,0.131,0,0,0,.046.046V19.157Zm-26.008.046a0.718,0.718,0,0,0-.046.229h0.092V19.111H25.87Zm33.866,0a0.165,0.165,0,0,1,.046.092H59.736V19.111ZM59.782,19.2a0.133,0.133,0,0,1,0,.183V19.2Zm-33.912.229,0.046,0.137h0.046V19.431H25.87Zm27.984,0.137V19.66H53.9V19.569H53.854Zm-26.743.046a0.165,0.165,0,0,1,.046.092H27.111V19.615Zm-3.4.641-0.092.549h1.1V20.713a0.232,0.232,0,0,0,.046-0.137,0.237,0.237,0,0,0,.276-0.183c0.1,0.08.111,0.144,0.23,0.092,0.151-.039.181-0.092,0.322-0.137V20.3Zm1.884,1.694h0.827a8.735,8.735,0,0,0-.046-1.465,0.519,0.519,0,0,0-.23,0,1.032,1.032,0,0,0-.689,1.053A0.821,0.821,0,0,1,25.595,21.95Zm-2.068-.733-0.092.733h1.1V21.9h0.046l0.138-.687H23.527Zm-3.171.412c-0.034.04-.058,0.052-0.092,0.092a2.617,2.617,0,0,1,.184.229,0.35,0.35,0,0,0,.23-0.183,0.7,0.7,0,0,0-.184-0.092A0.236,0.236,0,0,0,20.356,21.629Zm-0.322.092v0.092H20.08A0.158,0.158,0,0,0,20.035,21.721Zm0.138,0-0.046.229h0.092V21.9a0.165,0.165,0,0,0,.046-0.092C20.224,21.779,20.212,21.755,20.172,21.721Zm-4.09.137a0.31,0.31,0,0,0,.322,0H16.083ZM5.7,22.774a3.963,3.963,0,0,0,.368,1.007,0.482,0.482,0,0,1,.046-0.275c0.04-.03.144-0.061,0.184-0.091C6.064,23.236,5.945,22.938,5.7,22.774Zm1.7,0a0.4,0.4,0,0,0-.138.183,0.6,0.6,0,0,0-.046.32H7.26A2.891,2.891,0,0,0,7.9,22.911c-0.033-.071-0.006-0.006,0-0.137H7.4Zm23.113,2.152,0.827,0.046a0.417,0.417,0,0,1,.184-0.137,2.851,2.851,0,0,0-.459-1.694l-0.551.321v1.465Zm-13.234-1.1V23.69a1.814,1.814,0,0,1-.459.046v0.092h0.459Zm0.092-.137v0.137h0.368V23.69H17.369Zm-8.225.092a1.634,1.634,0,0,0,.046.687A1.634,1.634,0,0,0,9.144,23.781Zm2.068,0.046v0.092h0.046A0.157,0.157,0,0,0,11.212,23.827Zm40.8,0.092c0.008,0.271.005,0.31,0,.6,0.868,0,1.593,0,2.527,0V23.965C53.778,23.913,52.854,23.919,52.016,23.919Zm-40.758.137a0.744,0.744,0,0,0,.092.458A1.014,1.014,0,0,0,11.258,24.056Zm-1.1.137a1.619,1.619,0,0,0,0,.733A1.327,1.327,0,0,0,10.155,24.194Zm53.487,0.183a0.135,0.135,0,0,0,.184,0H63.642ZM11.35,24.56v0.092H11.4A0.156,0.156,0,0,0,11.35,24.56Zm8.731,0v0.275h0.046V24.789a0.309,0.309,0,0,0,.092-0.229H20.08Zm9.925,0.275c0.038,0.149-.023.07,0.092,0.137V24.926C30.058,24.892,30.046,24.869,30.006,24.835Zm47.007,4.991h0.138a0.58,0.58,0,0,0-.046-0.183H77.059v0.046A0.233,0.233,0,0,0,77.013,29.826Zm-68.65,2.2-0.046.458H8.363a1.186,1.186,0,0,1,.781-0.229,3.3,3.3,0,0,1,.368.366C9.595,32.8,9.505,33.1,9.6,33.26L9.558,32.207a1.105,1.105,0,0,0-.689-0.137A1.12,1.12,0,0,0,8.363,32.024Zm2.3,0.092-0.046,1.007a15.058,15.058,0,0,0,3.768-.55,7.253,7.253,0,0,0,1.608-.275ZM8.455,34.908A0.165,0.165,0,0,1,8.5,35H8.455V34.908Z" transform="translate(0 0.5)"/>
</svg>
