<?xml version="1.0" encoding="utf-8"?>
<!-- Generator: Adobe Illustrator 16.0.0, SVG Export Plug-In . SVG Version: 6.00 Build 0)  -->
<!DOCTYPE svg PUBLIC "-//W3C//DTD SVG 1.1//EN" "http://www.w3.org/Graphics/SVG/1.1/DTD/svg11.dtd">
<svg version="1.1" id="Layer_1" xmlns="http://www.w3.org/2000/svg" xmlns:xlink="http://www.w3.org/1999/xlink" x="0px" y="0px"
	 width="40px" height="40px" viewBox="0 0 40 40" enable-background="new 0 0 40 40" xml:space="preserve">
<path id="uk_a_43_black_prince_ico" fill="#FFFFFF" d="M13.746,13.056h0.066V7.08c-0.024-0.165-0.009-0.333,0.044-0.491
	c0.05,0.743,0.022,1.584,0.022,2.364v4.1h0.132v0.067h-0.087c-0.027,0.079-0.042,0.162-0.044,0.245
	c0.084,0.063,0.133,0.163,0.132,0.268H14.1c0.018-0.072-0.011-0.034,0.044-0.067c0,0.118,0.008,0.144,0.088,0.178
	c0.017-0.072,0.047-0.14,0.088-0.2c0.149,0.018,0.3,0.002,0.442-0.044c0.018-0.034,0.026-0.073,0.022-0.112
	c-0.056-0.094-0.071-0.206-0.044-0.312h0.044l0.044,0.446h1.238V13.19h0.2c-0.003-0.097,0.004-0.194,0.022-0.29h0.221
	c0.072,0.1,0.216-0.015,0.287,0.089c-0.11,0.018-0.222,0.018-0.332,0v0.2c0.4,0,0.618-0.065,0.995-0.067
	c0-0.024,0.007-0.048,0.022-0.067c0.042-0.02,0.087-0.028,0.133-0.022v0.022h0.021v0.067h0.354c0.017,0.021,0.032,0.043,0.044,0.067
	h0.575v-0.2c-0.162,0.018-0.324,0.018-0.486,0v-0.044c0.256,0,0.423-0.041,0.641-0.045v0.022h0.022
	c-0.011,0.087,0.013,0.175,0.066,0.245c0.078,0.026,0.161,0.034,0.243,0.022v0.134h0.022c0.023-0.05,0.078-0.078,0.133-0.067
	c0.15,0.07,0.28,0.177,0.376,0.312c0.013,0.059,0.013,0.12,0,0.178h0.022c0.058-0.059,0.086-0.024,0.177,0V13.7
	c0.056-0.28,0.093-0.563,0.111-0.847c0.356,0,0.472-0.249,0.818-0.268l-0.088,0.981c0.186,0.012,0.257,0.094,0.441,0.112v0.092
	c-0.082,0.033-0.1,0.021-0.11,0.134c0.053,0.01,0.091,0.057,0.088,0.111c0.024,0,0.047,0.007,0.065,0.022
	c0.081,0.005,0.143,0.074,0.137,0.155c0,0.007-0.002,0.015-0.003,0.022c0.048,0,0.095,0.016,0.133,0.045h0.022v0.067
	c0.12,0.004,0.238-0.035,0.332-0.111c0.372,0.022,0.731,0.146,1.039,0.357c0.15,0.01,0.301-0.013,0.441-0.067l0.2,0.067
	c0.062,0.2,0.252,0.34,0.331,0.535c-0.004,0.118,0.026,0.234,0.088,0.334c0.166-0.001,0.33-0.031,0.486-0.089
	c0.063,0.084,0.102,0.185,0.109,0.29c0.445,0.006,0.791,0.01,1.193,0v0.067l12.66,0.067v-0.111c0.209,0.054,0.426,0.069,0.641,0.045
	c0.07-0.022,0.173-0.112,0.243-0.134c0.287-0.096,0.604-0.007,0.8,0.223v0.49h-0.025c-0.162,0.233-0.459,0.333-0.729,0.245
	c-0.101-0.029-0.21-0.125-0.31-0.156c-0.207-0.023-0.416-0.008-0.619,0.045v-0.112l-6.519,0.045h-2.233
	c-0.375-0.027-0.752-0.02-1.127,0.022h-3.358c-0.284,0.058-0.572,0.087-0.862,0.089v0.067h-0.088v0.021
	c0.219,0.396,0.26,0.866,0.11,1.293h0.287c0.159-0.037,0.323-0.045,0.485-0.021c0.201,0.014,0.404-0.001,0.601-0.045
	c0.089-0.004,0.178,0.004,0.265,0.021c0.032-0.045,0.048-0.1,0.044-0.156c0.146,0.014,0.288,0.051,0.42,0.111
	c0.185-0.006,0.369-0.021,0.552-0.045v0.135l0.222-0.022v-0.244c0.241-0.04,0.485-0.047,0.729-0.022
	c-0.006,0.055-0.021,0.107-0.045,0.156c0.119-0.017,0.239-0.01,0.354,0.022c0.03,0.019,0.041,0.094,0.065,0.11
	c0.152,0.044,0.308,0.073,0.465,0.09l0.441,0.045c0.664,0.162,1.4,0.191,2.077,0.334c0-0.139,0.017-0.213,0.155-0.224
	c0.187,0.056,0.38,0.085,0.574,0.089c0.414,0.1,0.836,0.166,1.26,0.2c0.031,0.046,0.047,0.101,0.045,0.156
	c-0.019,0.034-0.026,0.073-0.022,0.11c0.076,0.029,0.145,0.075,0.2,0.135c0.061,0.029,0.128-0.008,0.177,0.021v0.045
	c0.139,0.037,0.278,0.067,0.421,0.09c0.303,0.106,0.592,0.249,0.861,0.424c0.139,0.1,0.494,0.6,0.6,0.624
	c0.079,0.026,0.16,0.041,0.243,0.045h-0.028c-0.086,0.085-0.227,0.114-0.31,0.2c-0.192-0.029-0.39-0.014-0.575,0.045V20.3
	c0.055,0.052,0.08,0.126,0.066,0.2c-0.027,0.016-0.051,0.039-0.066,0.066c0.109,0.304,0.184,0.618,0.221,0.938l-0.133,0.045
	c-0.051,0.234-0.117,0.465-0.199,0.691c0.02,0.019,0.034,0.041,0.044,0.066c-0.051,0.074-0.11,0.142-0.177,0.2
	c-0.035-0.05-0.037-0.047-0.066-0.045c-0.181,0.127-0.344,0.276-0.486,0.446c-0.017,0.031,0.016,0.058,0,0.089
	c-0.044,0.056-0.111,0.078-0.154,0.134c-0.047-0.029-0.074-0.064-0.088-0.066c-0.205,0.103-0.392,0.238-0.554,0.399
	c-0.001,0.031,0.007,0.063,0.022,0.089c-0.101,0.026-0.131,0.08-0.221,0.111c-0.009-0.041-0.047-0.07-0.089-0.066
	c-0.153,0.149-0.333,0.271-0.53,0.356c0.007,0.044,0.007,0.089,0,0.134L32.197,24.2c0.002-0.042-0.025-0.079-0.066-0.089
	c-0.148,0.179-0.477,0.193-0.619,0.379c-0.01,0.028-0.018,0.059-0.021,0.089c-0.066,0.057-0.141,0.103-0.221,0.134
	c-0.002-0.04-0.03-0.074-0.069-0.083c-0.194,0.154-0.421,0.261-0.663,0.312c0,0.076,0.048,0.054-0.021,0.09
	c-0.063,0.035-0.13,0.059-0.201,0.066c-0.021-0.076-0.008-0.068-0.088-0.089c-0.203,0.093-0.419,0.153-0.641,0.179
	c0,0.084,0.01,0.078-0.044,0.11c-0.061,0.035-0.13,0.052-0.2,0.045v-0.088L28.657,25.3c-0.024,0.032-0.039,0.071-0.044,0.111
	l-0.243,0.022v-0.09c-0.253-0.016-0.506,0.007-0.751,0.067v0.067h-0.238v-0.09h-0.773v0.09h-0.265v-0.09h-0.752
	c-0.005,0.01-0.013,0.018-0.022,0.022v0.067h-0.242v-0.09H24.6c-0.031,0.113-0.123,0.101-0.265,0.09v-0.09H23.6
	c-0.005,0.01-0.013,0.018-0.021,0.022v0.067h-0.241v-0.09h-0.729c-0.005,0.01-0.012,0.018-0.021,0.022v0.067h-0.243v-0.09h-0.729
	v0.09h-0.266c0.003-0.031,0.01-0.062,0.022-0.09h-0.729c-0.005,0.01-0.013,0.018-0.021,0.022v0.067h-0.265
	c0.002-0.031,0.01-0.062,0.022-0.09h-0.752v0.09h-0.243v-0.09H18.63v0.09h-0.243v-0.09h-0.729c-0.005,0.01-0.013,0.018-0.022,0.022
	v0.067h-0.244v-0.09h-0.729c-0.032,0.113-0.123,0.101-0.265,0.09v-0.09h-0.729c-0.005,0.01-0.013,0.018-0.022,0.022v0.067H15.4
	v-0.09h-0.726v0.022h-0.022v0.067h-0.243v-0.09H13.68v0.09h-0.266c0.002-0.031,0.01-0.062,0.022-0.09h-0.729v0.022h-0.022v0.067
	H12.42c0.002-0.031,0.01-0.062,0.022-0.09h-0.751v0.09h-0.243v-0.09H10.7v0.09h-0.247v-0.09H9.724v0.022H9.7v0.067H9.459v-0.09
	h-0.73c-0.032,0.113-0.123,0.101-0.265,0.09v-0.112l-0.685-0.111c-0.008,0.042-0.046,0.069-0.088,0.067
	c-0.054-0.035-0.114-0.058-0.177-0.067l0.022-0.11c-0.126-0.016-0.634-0.23-0.663-0.201c-0.039,0.021-0.076,0.043-0.111,0.067
	c-0.074-0.021-0.143-0.06-0.2-0.11c0.018-0.021,0.033-0.043,0.044-0.067c-0.23-0.104-0.465-0.194-0.706-0.271L5.856,24.63
	c-0.084-0.022-0.161-0.067-0.221-0.13c0.019-0.021,0.034-0.045,0.045-0.07c-0.217-0.058-0.411-0.183-0.552-0.356
	c-0.039,0.026-0.087,0.035-0.133,0.021c-0.054-0.034-0.099-0.08-0.133-0.134c0.035-0.018,0.06-0.051,0.066-0.089
	c-0.112-0.075-0.335-0.363-0.42-0.399c-0.044-0.006-0.089-0.006-0.133,0c-0.062-0.034-0.109-0.09-0.133-0.156
	c0.024-0.014,0.041-0.039,0.044-0.067c-0.134-0.171-0.299-0.315-0.486-0.425c-0.033,0.037-0.016,0.023-0.044,0.021
	c-0.062-0.033-0.109-0.089-0.133-0.156c0.029-0.039,0.038-0.035,0.022-0.066C3.51,22.462,3.361,22.313,3.2,22.177
	c-0.035,0.021-0.066,0.081-0.088,0.046c-0.062-0.034-0.109-0.09-0.133-0.156C3.008,22.051,3.032,22.027,3.05,22
	c-0.292-0.128-0.563-0.3-0.84-0.446c-0.136-0.027-0.254-0.107-0.331-0.223c0.018-0.011,0.033-0.026,0.044-0.045H1.856
	c-0.081,0.005-0.162,0.005-0.243,0c-0.271,0.085-0.565-0.015-0.729-0.246c-0.019-0.126-0.019-0.253,0-0.379
	c-0.09-0.065-0.165-0.149-0.221-0.245c0.003-0.127-0.004-0.254-0.022-0.379c-0.038,0.029-0.036,0.038-0.066,0.021
	c-0.078-0.1-0.022-0.19-0.2-0.199c0.006-0.059,0.029-0.114,0.067-0.159c-0.053-0.212-0.151-0.409-0.287-0.58
	C0.116,18.932,0.064,18.746,0,18.564c0.043-0.102,0.08-0.205,0.11-0.312c0.148-0.269,0.447-0.419,0.751-0.379
	c0.122,0.05,0.248,0.087,0.376,0.11l0.155-0.268c-0.03-0.049-0.052-0.101-0.066-0.156h0.066c0.032,0.116,0.076,0.088,0.2,0.135
	v0.021H1.569c-0.017,0.016-0.049,0.029-0.066,0.045h0.022v0.022c0.182,0.12,0.386,0.204,0.6,0.245
	c0.401-0.339,0.911-0.521,1.436-0.514c-0.002-0.041,0.025-0.078,0.066-0.089c0.185,0.114,0.409,0.147,0.619,0.089h1.942L6.166,17.07
	c-0.054-0.038-0.093-0.094-0.111-0.156c0.022-0.03,0.053-0.054,0.088-0.066c0.06-0.018,0.124-0.01,0.177,0.021v-0.088h0.2v0.134
	h1.723v-0.134h0.2v0.134h1.635v-0.134h0.2v0.134H12v-0.134h0.2v0.089h0.044c0.044-0.032,0.1-0.049,0.155-0.045
	c0.045,0.048,0.068,0.112,0.066,0.178c-0.065,0.024-0.109,0.086-0.111,0.156h-0.111c0,0.258,0,0.392,0,0.647
	c0.175-0.027,0.353-0.042,0.53-0.046c0.008-0.274,0.001-0.55-0.022-0.825h-0.088v-0.178c0.079-0.009,0.056,0.012,0.088-0.045h-0.088
	v-0.178h0.088v-0.089h-0.022c-0.203,0.044-0.413,0.052-0.619,0.021H10.5V16.4h-0.246v-1.671H10.5v-0.335h-0.025
	c-0.019,0.014-0.042,0.022-0.066,0.022c-0.014-0.15,0.001-0.302,0.044-0.446c0.019-0.014,0.042-0.021,0.066-0.021
	c0.197,0.047,0.403,0.047,0.6,0c0.52-0.08,1.144-0.084,1.613-0.2v0.022h0.022c0,0.07-0.037,0.03,0.022,0.067
	c0.181-0.019,0.357-0.064,0.524-0.137c0.02-0.042,0.028-0.088,0.022-0.134c0.105-0.028,0.083-0.086,0.2-0.111
	c0.012-0.143-0.069-0.277-0.2-0.334v-0.065h0.265C13.624,10.884,13.7,8.718,13.7,6.5h0.022v0.045
	c0.037,0.161,0.044,0.327,0.022,0.491v6.021L13.746,13.056z"/>
</svg>
