<?xml version="1.0" encoding="utf-8"?>
<!-- Generator: Adobe Illustrator 16.0.0, SVG Export Plug-In . SVG Version: 6.00 Build 0)  -->
<!DOCTYPE svg PUBLIC "-//W3C//DTD SVG 1.1//EN" "http://www.w3.org/Graphics/SVG/1.1/DTD/svg11.dtd">
<svg version="1.1" id="Layer_1" xmlns="http://www.w3.org/2000/svg" xmlns:xlink="http://www.w3.org/1999/xlink" x="0px" y="0px"
	 width="40px" height="40px" viewBox="0 0 40 40" enable-background="new 0 0 40 40" xml:space="preserve">
<path id="uk_a30_sp_avenger_ico" fill="#FFFFFF" d="M15.135,14.372l0.946-0.023V9.128c-0.021-0.145-0.006-0.293,0.045-0.431
	c0.045,0.659,0.022,1.414,0.022,2.111v3.541c0.182-0.006,0.363-0.029,0.541-0.068c0.1-0.062-0.019-0.082,0.2-0.091v0.026h0.023
	v0.068c0.216,0.039,0.434,0.062,0.653,0.068c-0.002-0.062,0.005-0.123,0.023-0.182c0.01,0.006,0.018,0.014,0.023,0.023
	c0.022,0.05,0.03,0.105,0.023,0.159c0.444,0.014,0.888-0.001,1.329-0.045l0.023-0.431h0.564c0.007,0.151,0.015,0.303,0.023,0.454
	h0.045c0.08-0.025,0.164-0.04,0.248-0.045v0.091c0.272,0.007,0.543,0.038,0.811,0.091l1.239,0.068c0.264,0.058,0.568,0,0.855,0.068
	c0.469,0.084,0.943,0.123,1.42,0.114v0.091H24.1l0.023,0.931h0.158v-0.096c0.174-0.017,0.35-0.001,0.518,0.045
	c0.037,0.032,0.067,0.07,0.09,0.113c0.071,0.1,0.045,0,0.135,0.045c0.041,0.047,0.071,0.101,0.091,0.159l0.067-0.023
	c0.033,0.043,0.063,0.089,0.09,0.136c0.209,0.086,0.43,0.14,0.653,0.159c0.253-0.032,0.505,0.062,0.677,0.25
	c-0.063-0.012-0.123,0.027-0.135,0.089c0,0,0,0.001-0.001,0.002l-1.1-0.2c0.019-0.027,0.019-0.063,0-0.091
	c-0.036,0.013-0.067,0.037-0.091,0.068c0.082,0.145,0.122,0.311,0.113,0.477c0.334,0.004,0.666,0.043,0.991,0.114l4.009,0.023
	c2.664,0,5.334,0.041,7.973,0.045v-0.117c0.199,0.05,0.404,0.065,0.609,0.045c0.086-0.023,0.188-0.111,0.27-0.136
	c0.277-0.086,0.58,0.003,0.766,0.228v0.431c-0.024,0.025-0.04,0.057-0.045,0.091c-0.205,0.155-0.469,0.214-0.721,0.159
	c-0.072-0.023-0.176-0.113-0.248-0.136c-0.211-0.025-0.426-0.011-0.631,0.045v-0.114l-12.032,0.067
	c-0.312,0.065-0.628,0.104-0.946,0.112c-0.018,0.127-0.057,0.249-0.113,0.363c0.06,0.322,0.06,0.653,0,0.977
	c-0.109,0.035-0.223,0.059-0.338,0.067v0.023h1.149v-0.343h0.271v0.362h0.314l0.023-0.227c-0.069-0.047-0.118-0.118-0.135-0.2H26.6
	c0.043,0.064,0.152,0.119,0.181,0.182c0.028,0.063-0.007,0.157,0.022,0.2c0.08-0.024,0.164-0.03,0.247-0.018v-0.159
	c0.092,0,0.183,0.016,0.271,0.045v-0.086h1.238v0.091c0.157-0.022,0.316-0.022,0.474,0v-0.118h0.022
	c0.146,0.101,0.338,0.039,0.36,0.272c0,0-0.065,0.03-0.045,0.045h0.022c0.07,0.035,0.146,0.059,0.226,0.067
	c0,0.101-0.007,0.101,0.067,0.137c0.365,0.187,0.764,0.302,1.172,0.34c0.137,0.085,0.28,0.16,0.428,0.227v-0.16h0.045v0.158
	c0.072,0,0.287,0.008,0.293,0c0.258-0.293,0.545-0.559,0.855-0.793c0.029,0.039,0.045,0.086,0.045,0.135
	c-0.251,0.2-0.478,0.429-0.676,0.682h0.721c0.156-0.031,0.317-0.031,0.474,0c0.165,0.059,0.324,0.134,0.474,0.227l0.27,0.301
	c0.16,0.064,0.284,0.197,0.338,0.362c-0.089,0.087-0.151,0.197-0.18,0.318c-0.162,0.249-0.299,0.516-0.405,0.794
	c0.118,0.084,0.204,0.203,0.248,0.341h0.045c0.009-0.078,0.032-0.155,0.069-0.225h0.067c0.049,0.216,0.063,0.438,0.046,0.657
	c-0.035,0.034-0.073,0.064-0.113,0.092l-0.248-0.023c-0.012,0.019-0.027,0.034-0.045,0.045l-0.158-0.022
	c-0.024,0.009-0.076,0.071-0.113,0.091v0.023c0.091,0.012,0.092,0,0.113,0.09c-0.016,0.019-0.029,0.052-0.045,0.068
	c-0.064,0.021-0.125,0.052-0.18,0.092c-0.052,0.055-0.083,0.125-0.091,0.199l0.113,0.068c-0.044,0.123-0.162,0.204-0.293,0.2
	c-0.029-0.056,0.01-0.015-0.045-0.046c-0.054,0.041-0.093,0.096-0.113,0.16c0.044,0.02,0.071,0.064,0.068,0.112
	c-0.062,0.017-0.118,0.048-0.164,0.093c-0.056-0.032-0.116-0.055-0.181-0.067c-0.107,0-0.202,0.075-0.225,0.182
	c0.03,0.039,0.039,0.037,0.023,0.068c-0.034,0.038-0.086,0.055-0.135,0.045c-0.059-0.041-0.076-0.091-0.136-0.068
	c-0.104,0-0.19,0.079-0.2,0.183c0.019,0.02,0.034,0.043,0.045,0.067c-0.058,0.022-0.118,0.037-0.18,0.045
	c-0.021-0.046-0.063-0.079-0.113-0.091c-0.082,0.071-0.183,0.04-0.199,0.182c0.029,0.039,0.039,0.037,0.022,0.068
	c-0.042,0.042-0.099,0.066-0.157,0.068c-0.023-0.055-0.076-0.09-0.136-0.092c-0.088,0.025-0.156,0.094-0.18,0.183
	c0.03,0.039,0.039,0.037,0.022,0.067c-0.016,0.031-0.063,0.043-0.09,0.068c-0.049-0.049-0.111-0.081-0.18-0.091
	c-0.095,0.003-0.176,0.067-0.2,0.159c0.019,0.028,0.034,0.059,0.045,0.091H30.5c-0.036,0.034-0.086,0.051-0.135,0.045
	c-0.035-0.058-0.059-0.09-0.113-0.067c-0.07,0.021-0.137,0.053-0.2,0.09l0.017,0.166c-0.052,0.018-0.104,0.033-0.158,0.045
	c-0.018-0.06-0.074-0.098-0.135-0.092c-0.078,0.028-0.143,0.085-0.181,0.159c0.025,0.034,0.048,0.069,0.023,0.091
	c-0.03,0.043-0.085,0.062-0.136,0.045c-0.04-0.018-0.072-0.05-0.09-0.09c-0.088,0.018-0.167,0.066-0.225,0.135
	c-0.014,0.043,0.04,0.115-0.023,0.137c-0.112,0.1-0.146-0.027-0.248-0.068c-0.071,0.037-0.146,0.068-0.225,0.092
	c0.02,0.042,0.028,0.089,0.023,0.136c-0.046,0.032-0.102,0.049-0.158,0.045c-0.063-0.129-0.166-0.122-0.36-0.113l0.023,0.134H28.02
	c-0.07-0.126-0.223-0.184-0.359-0.136v0.136c-0.018,0.003-0.033,0.011-0.045,0.023l-0.135-0.023
	c-0.062-0.141-0.129-0.146-0.338-0.136v0.159H26.96c-0.038-0.159-0.134-0.169-0.338-0.159v0.159h-0.181
	c-0.063-0.143-0.118-0.169-0.338-0.159c-0.016,0.052-0.023,0.104-0.022,0.159h-0.158c-0.063-0.136-0.217-0.203-0.36-0.159
	c0,0.167,0,0.165-0.18,0.159c-0.02-0.028-0.034-0.059-0.045-0.092c-0.015-0.02-0.022-0.043-0.023-0.067h-0.27
	c-0.016,0.052-0.023,0.104-0.023,0.159h-0.18v-0.046c-0.029-0.03-0.046-0.071-0.045-0.113H24.5v0.159h-0.18
	c-0.006-0.01-0.014-0.018-0.023-0.023l-0.023-0.136h-0.287c-0.005,0.01-0.013,0.018-0.022,0.022
	c-0.001,0.047,0.007,0.093,0.022,0.137h-0.199c-0.031-0.182-0.124-0.172-0.338-0.159c-0.017,0.052-0.024,0.104-0.023,0.159h-0.18
	c0-0.049-0.016-0.097-0.045-0.137c-0.095-0.028-0.195-0.036-0.293-0.022c-0.023,0.158,0,0.165-0.2,0.159
	c0-0.049-0.016-0.097-0.045-0.137c-0.095-0.028-0.194-0.036-0.293-0.022c-0.022,0.149,0.014,0.163-0.181,0.159
	c-0.061-0.166-0.127-0.171-0.359-0.159c-0.021,0.149,0.014,0.163-0.18,0.159c-0.062-0.166-0.129-0.171-0.36-0.159
	c-0.011,0.053-0.011,0.106,0,0.159H21.1c-0.061-0.166-0.127-0.171-0.359-0.159v0.159h-0.18c-0.062-0.166-0.128-0.171-0.36-0.159
	v0.159h-0.18v-0.046c-0.03-0.03-0.046-0.071-0.045-0.113h-0.313v0.159h-0.18c-0.005-0.01-0.013-0.018-0.023-0.023l-0.023-0.136
	h-0.292c-0.016,0.052-0.024,0.104-0.023,0.159h-0.18c-0.033-0.178-0.126-0.172-0.338-0.159c-0.016,0.052-0.024,0.104-0.023,0.159
	H18.4c-0.033-0.178-0.126-0.172-0.338-0.159c-0.016,0.052-0.024,0.104-0.023,0.159H17.86c-0.033-0.178-0.126-0.172-0.338-0.159
	c-0.016,0.052-0.024,0.104-0.023,0.159H17.32c-0.033-0.178-0.126-0.172-0.338-0.159c-0.016,0.052-0.024,0.104-0.023,0.159h-0.18
	c-0.033-0.178-0.126-0.172-0.338-0.159c-0.016,0.052-0.024,0.104-0.023,0.159h-0.18c-0.033-0.178-0.126-0.172-0.338-0.159
	c-0.005,0.01-0.013,0.018-0.023,0.022c0,0.047,0.007,0.093,0.023,0.137h-0.2c0-0.049-0.016-0.097-0.045-0.137
	c-0.095-0.028-0.195-0.036-0.293-0.022c-0.005,0.01-0.013,0.018-0.023,0.022c0,0.047,0.007,0.093,0.023,0.137h-0.2
	c-0.031-0.182-0.125-0.172-0.338-0.159c-0.023,0.158,0,0.165-0.2,0.159c0-0.049-0.016-0.097-0.045-0.137
	c-0.095-0.028-0.195-0.036-0.293-0.022c-0.023,0.158,0,0.165-0.2,0.159l-0.022-0.137c-0.104-0.021-0.209-0.029-0.315-0.022v0.159
	h-0.18c-0.061-0.166-0.128-0.171-0.36-0.159c-0.01,0.053-0.01,0.106,0,0.159h-0.18c-0.061-0.166-0.128-0.171-0.36-0.159
	c0,0.167,0,0.165-0.18,0.159c-0.058-0.16-0.112-0.171-0.338-0.159c-0.016,0.052-0.023,0.105-0.022,0.159h-0.18v-0.023h-0.035
	l-0.023-0.136H11.6c-0.017,0.052-0.024,0.104-0.023,0.159H11.4c-0.033-0.178-0.126-0.172-0.338-0.159
	c-0.016,0.052-0.024,0.104-0.023,0.159h-0.18c-0.058-0.16-0.112-0.171-0.338-0.159c-0.016,0.052-0.024,0.104-0.023,0.159h-0.2
	c0-0.049-0.016-0.097-0.045-0.137c-0.087-0.027-0.179-0.035-0.27-0.022c-0.016,0.052-0.024,0.104-0.023,0.159h-0.2
	c0-0.049-0.016-0.097-0.045-0.137c-0.087-0.027-0.179-0.035-0.27-0.022v0.022H9.414c0,0.156-0.018,0.144-0.2,0.137
	C9.182,25.816,9.1,25.821,8.9,25.834l-0.023,0.068c-0.017,0.027-0.025,0.059-0.023,0.091H8.671c-0.031-0.17-0.109-0.172-0.315-0.159
	c-0.032,0.047-0.047,0.103-0.045,0.159h-0.18c-0.055-0.169-0.109-0.172-0.338-0.159v0.045c-0.019,0.035-0.026,0.074-0.023,0.113
	H7.59v-0.021H7.568c0.004-0.039-0.004-0.078-0.023-0.113c-0.095-0.028-0.195-0.036-0.293-0.022
	c-0.016,0.052-0.024,0.104-0.023,0.159H7.072L7,25.789l-0.27-0.045c-0.015,0.043-0.023,0.09-0.023,0.136l-0.18-0.022l-0.018-0.182
	l-0.293-0.068c0,0.05-0.016,0.098-0.045,0.137c-0.03-0.028-0.081-0.042-0.112-0.068c-0.015-0.063-0.038-0.124-0.068-0.182
	c-0.073-0.053-0.159-0.084-0.248-0.092L5.72,25.539H5.7c-0.047-0.033-0.102-0.057-0.158-0.068c0.019-0.059,0.019-0.123,0-0.182
	l-0.27-0.091c0.01,0.056-0.018,0.11-0.068,0.136c-0.069-0.063-0.118-0.033-0.135-0.159c0.016-0.051,0.02-0.058-0.045-0.091
	c-0.065-0.049-0.143-0.08-0.224-0.089c-0.017,0.048-0.04,0.094-0.068,0.136c-0.103-0.035-0.162-0.145-0.135-0.25l-0.27-0.091
	c-0.018,0.062-0.071,0.106-0.135,0.112c-0.054-0.022-0.09-0.076-0.09-0.135c0.065-0.101-0.172-0.173-0.27-0.183
	c-0.009,0.052-0.032,0.099-0.068,0.136c-0.038-0.035-0.084-0.059-0.135-0.068c0.024-0.063,0.006-0.136-0.045-0.182
	c-0.065-0.05-0.143-0.081-0.225-0.091c-0.017,0.048-0.04,0.094-0.068,0.136c-0.057-0.023-0.11-0.053-0.158-0.091
	c0.005-0.045,0.005-0.091,0-0.136c-0.081-0.056-0.173-0.094-0.27-0.113c-0.002,0.062-0.051,0.111-0.113,0.113
	c-0.024-0.024-0.056-0.04-0.09-0.045v-0.067c0.022-0.024,0.036-0.057,0.04-0.09l-0.2-0.182c-0.042,0.042-0.099,0.066-0.158,0.067
	c-0.063-0.028-0.105-0.088-0.112-0.156c0.043-0.035,0.063-0.057,0.045-0.092c-0.036-0.092-0.098-0.171-0.18-0.227
	C2.068,23.52,2.033,23.527,2,23.516c-0.029-0.05-0.052-0.104-0.068-0.158c-0.046-0.051-0.13-0.066-0.18-0.114
	c-0.051-0.105-0.067-0.226-0.045-0.341c-0.162-0.06-0.313-0.144-0.45-0.25c-0.127-0.077-0.256-0.1-0.383-0.182
	c-0.059-0.056-0.126-0.102-0.2-0.136c-0.084,0-0.216,0.086-0.293,0.091l-0.225-0.068C0.119,22.269,0.066,22.187,0,22.116
	c0.037-0.071,0.037-0.156,0-0.228c0.154-0.092,0.267-0.24,0.315-0.412c0.08-0.037,0.163-0.067,0.248-0.091
	c0.225-0.155,0.436-0.33,0.631-0.521c-0.045-0.029-0.084-0.068-0.113-0.114l0.248-0.068l0.023-0.113
	c-0.135,0.02-0.274,0.013-0.406-0.022c-0.017-0.027-0.025-0.06-0.023-0.091c0.149-0.117,0.272-0.264,0.36-0.432
	C1.1,19.816,1.1,19.854,0.721,19.865v-0.2c0.117-0.02,0.217-0.094,0.27-0.2c-0.074-0.116-0.083-0.262-0.023-0.386
	c0.13-0.112,0.307-0.154,0.473-0.114c0.053,0.102,0.13,0.188,0.225,0.25c0-0.085-0.011-0.08,0.045-0.113
	c0.053-0.037,0.117-0.053,0.18-0.045v-0.123H1.869v-0.018H1.622v-0.05c0.059-0.029,0.112-0.067,0.158-0.114
	c0.071-0.042,0.135,0,0.2-0.045c0.011-0.025,0.026-0.048,0.045-0.068l0.135,0.023c0.111-0.025,0.248-0.051,0.383-0.091
	c0.115-0.034,0.191-0.157,0.293-0.183c0.063,0.002,0.124,0.018,0.18,0.045c0.015-0.043,0.023-0.09,0.023-0.136
	c0.028-0.036,0.014-0.012,0-0.045c-0.051-0.135-0.145-0.101-0.248-0.091c-0.044-0.02-0.085-0.067-0.135-0.091
	c-0.073-0.165-0.189-0.308-0.338-0.409h0.047c0.051,0.051,0.112,0.09,0.18,0.113c0.012-0.029,0-0.017,0.023-0.022
	c0.41,0.2,0.72,0.562,1.126,0.772c0,0.1,0.035,0.086,0.045,0.227c0.097,0.014,0.195,0.021,0.293,0.023
	c-0.003-0.062,0.005-0.123,0.023-0.182h0.022v0.022c0.008,0.058,0.032,0.112,0.068,0.159c0.035,0.019,0.074,0.026,0.113,0.022
	v-0.022h0.021c-0.023-0.064-0.005-0.136,0.045-0.182c-0.008,0.062,0,0.124,0.023,0.182c0.32,0.047,0.646,0.055,0.968,0.022h2.523
	c0.18-0.136,0.415-0.179,0.631-0.114c0.033,0.012,0.086,0.082,0.113,0.092c0.135,0.021,0.272-0.012,0.383-0.092v0.023h0.021v0.068
	c0.195,0,0.408,0.021,0.631,0.022v-0.159l-0.36-0.022v-0.022c0.072-0.134,0.182-0.244,0.315-0.318l0.608-0.022
	c0.1-0.021,0.28,0,0.405-0.022c0.429-0.18,0.924-0.039,1.194,0.34c-0.165-0.008-0.329,0.031-0.473,0.113
	c-0.019,0.034-0.027,0.074-0.023,0.113c0.23,0,0.452-0.017,0.653-0.023c0-0.023,0.008-0.048,0.023-0.067
	c0.02-0.015,0.043-0.022,0.067-0.022c0.129,0.096,0.294,0.129,0.45,0.09c0.247,0.023,0.573,0.027,0.856,0.023v-0.199h0.045v0.019
	c0.023,0.058,0.031,0.12,0.023,0.181c0.272-0.011,0.528-0.021,0.833-0.023v0.387h1.239v-0.521h-1.8l-0.2-1.657
	c-0.038-0.124-0.141-0.2-0.18-0.341c0.242-0.167,0.393-0.707,0.563-0.794c0.05-0.022,0.104-0.03,0.158-0.023v-0.068
	c0.083-0.066,0.187-0.099,0.293-0.091c0.057,0.074,0.136,0.13,0.225,0.159c0.158-0.083,0.326-0.144,0.5-0.182v-0.135h-0.684
	c0.004-0.162-0.019-0.323-0.068-0.477h0.36v-0.068h-0.36v-0.046c0.015-0.018,0.03-0.051,0.045-0.068
	c0.2-0.081,0.415-0.12,0.631-0.113c-0.008-0.093,0.008-0.187,0.045-0.273h-0.18v-0.09h0.248V8.516
	c-0.023-0.168-0.008-0.339,0.045-0.5c0.05,0.734,0.022,1.566,0.022,2.338V14.372z"/>
</svg>
