<svg xmlns="http://www.w3.org/2000/svg" width="40" height="40" viewBox="0 0 40 40">
  <defs>
    <style>
      .cls-1 {
        fill: #fff;
        fill-rule: evenodd;
      }
    </style>
  </defs>
  <path id="Color_Fill_1" data-name="Color Fill 1" class="cls-1" d="M18.338,14.229a0.237,0.237,0,0,1-.05.149,0.442,0.442,0,0,0-.252-0.05c0,0.426.007,0.672,0,1.09h0.05a0.443,0.443,0,0,1,.252-0.05v0.149c0.338-.009.185-0.086,0.3-0.149a0.477,0.477,0,0,1,.3.05h0.1v-0.1s-0.2-.01-0.1-0.05h0.1a1.086,1.086,0,0,1,.554-0.149,1.146,1.146,0,0,0,.151.3,0.978,0.978,0,0,1,.453-0.05V15.22a0.4,0.4,0,0,0,.151-0.1,0.948,0.948,0,0,0,.453.05,0.3,0.3,0,0,0,.1.1c-0.037.043-.064,0.056-0.1,0.1a3.63,3.63,0,0,1,.907.248,0.25,0.25,0,0,0-.05.149l0.554-.05a0.767,0.767,0,0,1,.05.248,0.191,0.191,0,0,0-.151.1h0.856a0.182,0.182,0,0,1,.1-0.05V15.864l0.655,0.05a3.275,3.275,0,0,1,.1-0.842,0.33,0.33,0,0,1-.2-0.05H23.98v0.05l-0.151.892a1.174,1.174,0,0,1,.554.149,0.191,0.191,0,0,0-.151.1,1.226,1.226,0,0,1,.806.248c0.071,0.064,0,.058-0.05.149a5.561,5.561,0,0,1,1.511.446,2.444,2.444,0,0,1,.453-0.1,0.479,0.479,0,0,0,.2.149L27,17.746h0.1a0.259,0.259,0,0,1,.151-0.049,0.237,0.237,0,0,0,.05.149,3.105,3.105,0,0,0,1.159.05,17.6,17.6,0,0,1,2.217,0,24.06,24.06,0,0,0,4.081,0l0.453,0.05a5.984,5.984,0,0,1,.957-0.2,3.6,3.6,0,0,1,.05.991,0.938,0.938,0,0,1-.3.05,6.364,6.364,0,0,0-2.519-.2l-3.224.05a21.107,21.107,0,0,0-3.073.1l-0.05.4a0.9,0.9,0,0,1-.5.1c0.03,0.237.113,0.317,0.151,0.545l3.476-.05a0.74,0.74,0,0,0,.1-0.2,0.529,0.529,0,0,1-.05-0.3,2.85,2.85,0,0,0,.806-0.049v0.1a0.529,0.529,0,0,0-.05.3,4.7,4.7,0,0,0,1.36.1,4.279,4.279,0,0,1,1.31-.1v-0.2H33.7v-0.05l0.252-.05c0.036,0.425.218,0.316,0.756,0.3a1.51,1.51,0,0,1,.6-0.05h1.259a2.113,2.113,0,0,0,1.36.1c0.006,0.216,0,.1.151,0.248a0.4,0.4,0,0,0,.151-0.1,3.784,3.784,0,0,0,.856.743,3.874,3.874,0,0,1,.756,1.932c0.163,0.041.077-.024,0.151,0.1-0.265.115-.165,0.969-0.151,1.337H38.186a5.439,5.439,0,0,1-1.864,1.684,8.957,8.957,0,0,1-2.166,1.486l-1.209.248a28.907,28.907,0,0,1-7.657.644H13.048a9.43,9.43,0,0,1-2.72-.149c-0.521-.188-1.1-0.481-1.612-0.694A12.215,12.215,0,0,1,7,26.415c-0.466-.284-0.913-0.682-1.36-0.991-0.81-.559-1.73-1-2.569-1.536A4.346,4.346,0,0,1,1.662,23.1a4.849,4.849,0,0,1-.252-1.684,3.931,3.931,0,0,0-.957.2A1.538,1.538,0,0,1,0,21.164H1.209a2.638,2.638,0,0,1-.1-0.248,0.548,0.548,0,0,0,.1-0.2H0V20.124a5.086,5.086,0,0,0,1.36-.049,1.273,1.273,0,0,1-.151-0.2l-0.453-.1V19.331a1.491,1.491,0,0,1,.705-0.1,2.323,2.323,0,0,0,.907.05v0.743h0.3v0.149H2.72v-0.05a0.593,0.593,0,0,0,.3-0.049c0,0.023-.024.152,0.05,0.1a0.3,0.3,0,0,1,.151-0.149c-0.02.112-.046,0.054,0,0.149,0.06-.054.723,0.032,0.856-0.05h0.05c0.05-.05-0.05-0.049-0.05-0.049-0.073-.126.011-0.056-0.151-0.1a0.629,0.629,0,0,1-.554.05,6.991,6.991,0,0,0,1.814-.5,5.558,5.558,0,0,1,1.36-.049,0.237,0.237,0,0,0,.05.149V19.48a2.3,2.3,0,0,1,.5.1l0.806-.05v-0.1a0.509,0.509,0,0,0,.1-0.3H8.161a0.163,0.163,0,0,0,0,.149l0.5,0.1a0.556,0.556,0,0,1,.151-0.2,1.547,1.547,0,0,0,.756.049c0.392-.069,1.046.015,1.562-0.1a3.575,3.575,0,0,0,1.259-.1c0.141-.02.051,0.031,0.1,0.1h0.6c1.075,0,1.553.006,2.569,0v0.3h-0.5v0.05a0.844,0.844,0,0,0,.705.347l0.05-.644c-0.018-.042-0.157.01-0.1-0.149,0.011-.032.084,0.011,0.1-0.248H13.3v-0.1A6.8,6.8,0,0,0,13.35,17a0.541,0.541,0,0,0-.2-0.2,1.434,1.434,0,0,1,.1-0.594,13.736,13.736,0,0,0,2.67-.149c0.042,0.161-.025.076,0.1,0.149,0.1-.087.25-0.116,0.353-0.2,0.043-.065,0-0.205.05-0.3a1.424,1.424,0,0,0,.353-0.4c0.183-.617-0.246-2.008.05-2.477v2.576a0.271,0.271,0,0,1,.151.2,0.178,0.178,0,0,0,.05-0.1c0.317-.511-0.219-1.671.1-2.179v2.328a0.525,0.525,0,0,1,.5.4h0.05v-0.05a1.945,1.945,0,0,0,.151-1.288,2.9,2.9,0,0,0,.05-0.4h-0.2a0.237,0.237,0,0,1-.05.149v-0.1a0.25,0.25,0,0,1-.05-0.149h0.3A8.35,8.35,0,0,0,17.935,12h0.05v2.18A1.1,1.1,0,0,0,18.338,14.229Zm-0.1.149a0.178,0.178,0,0,1,.05.1h-0.05v-0.1Zm-0.554.1a0.178,0.178,0,0,1,.05.1h-0.05v-0.1Zm0.5,0a0.178,0.178,0,0,1,.05.1h-0.05v-0.1Zm-0.453.1a0.177,0.177,0,0,1,.05.1h-0.05v-0.1Zm5.189,0.743a2.438,2.438,0,0,0-.05.644,0.259,0.259,0,0,1-.151.05,1.34,1.34,0,0,1,.2-0.941c0.06,0.039.243,0.059,0.3,0.1-0.2,0-.227-0.025-0.3.1a0.662,0.662,0,0,1,.353.05H22.922Zm0.3-.248a0.794,0.794,0,0,1,.4.05A0.794,0.794,0,0,1,23.224,15.071Zm0.1,0.248a0.663,0.663,0,0,1,.353.05A0.663,0.663,0,0,1,23.325,15.319ZM13.249,16.607a0.237,0.237,0,0,0,.05.149A0.237,0.237,0,0,0,13.249,16.607Zm22.066,1.486v0.3a2.008,2.008,0,0,0,.5,0,0.645,0.645,0,0,0,.05-0.347Zm-26.4,1.189v0.1a3.2,3.2,0,0,0,.554-0.1H8.917Zm29.27,0.3a0.316,0.316,0,0,1-.05.2V19.629h-0.2v-0.05h0.05v-0.05A0.723,0.723,0,0,0,38.186,19.579Zm-35.768.5a0.149,0.149,0,0,0,.2,0h-0.2Zm-0.4,1.932v0.3h0.05a0.8,0.8,0,0,1,.252-0.3h-0.3Zm0.151,0.248c0,0.144-.049.069,0,0.149v0.05h0.05V22.4a0.25,0.25,0,0,0,.05-0.149h-0.1Zm1.058,1.189c0.087,0.044.064,0.044,0.151,0H3.224Zm34.156,0.5a0.692,0.692,0,0,0-.05.2h0.05V24.087a0.178,0.178,0,0,0,.05-0.1h0.05v-0.05h-0.1Zm-1.965,1.437H35.265V24.83h-0.05v0.05c-0.056.074-.044,0.214-0.1,0.3a1.108,1.108,0,0,0-.3.3c0.105,0.123.058,0.4,0.151,0.545,0.434-.588,1.936-1.2,2.217-1.783h-0.1a0.26,0.26,0,0,0-.151-0.049l-0.1.347a0.573,0.573,0,0,0-.353-0.2,0.5,0.5,0,0,1-.2.248,0.279,0.279,0,0,0-.3-0.248,0.611,0.611,0,0,1-.2.2c-0.019-.227-0.03-0.3-0.252-0.347a0.764,0.764,0,0,0-.05.248A3.339,3.339,0,0,1,35.416,25.375Zm-2.972,0c0.163,0.9.417,0.916-.554,1.337a1.883,1.883,0,0,1-.1.347h0.1a7.269,7.269,0,0,1,1.763-.446V26.564c-0.548-.294-0.279-0.955-0.554-1.139A3.375,3.375,0,0,0,32.443,25.375Zm-5.239.1a1.2,1.2,0,0,1,.252.793c-0.162.577-.549,0.35-0.756,0.594l-0.252.594H26.5a2.255,2.255,0,0,1,1.159,0v-0.1C26.717,26.693,28.64,25.483,27.2,25.474Zm2.418,0a2.483,2.483,0,0,1,.252.842,2.238,2.238,0,0,1-.4.446,1.169,1.169,0,0,0-.353.1,4.022,4.022,0,0,0-.252.545h0.1a8.2,8.2,0,0,1,1.511-.149v-0.05c-0.517-.343-0.245-0.834,0-1.189,0-.122-0.02-0.4,0-0.545H29.622Zm2.015,0a0.644,0.644,0,0,0-.2.049,0.853,0.853,0,0,0,.05.3,0.792,0.792,0,0,0,.353.347V26.019A1.215,1.215,0,0,1,31.637,25.474Zm-3.023.049a2.369,2.369,0,0,1,.05.545c0.172,0.088.237,0.219,0.4,0.3V26.217a2.634,2.634,0,0,0-.353-0.644A0.183,0.183,0,0,0,28.615,25.523Zm-19.9.5a2.042,2.042,0,0,1-.6.347,2.739,2.739,0,0,1,.756.3c0.584,0.243,1.148.4,1.713,0.644v-0.1c-0.426-.34.062-0.94,0.2-1.189H9.471A0.831,0.831,0,0,1,8.715,26.019Zm3.023,0v0.1a2.608,2.608,0,0,1,.353.248V26.217c-0.034-.038-0.066-0.11-0.1-0.149A0.442,0.442,0,0,0,11.738,26.019Zm1.159,0a1.427,1.427,0,0,1-.1.5,1.6,1.6,0,0,0-.907.941h0.05a3.331,3.331,0,0,1,1.562,0v-0.1c-0.52-.389-0.046-0.927.05-1.337H12.9Zm1.663,0a0.926,0.926,0,0,0,.353.347V26.217c-0.034-.038-0.066-0.11-0.1-0.149A0.442,0.442,0,0,0,14.559,26.019Zm1.159,0v0.248h0.05v-0.05a0.966,0.966,0,0,0,.1-0.2H15.718Zm1.108,0c0.1,0.18.291,0.432,0.4,0.2A0.371,0.371,0,0,0,16.826,26.019Zm1.159,0a0.632,0.632,0,0,1-.05.347,0.9,0.9,0,0,1-.6.446,3.2,3.2,0,0,0-.353.644h0.05a2.125,2.125,0,0,1,1.108,0v-0.1c-0.5-.326-0.117-0.981.05-1.337h-0.2Zm1.159,0a1.3,1.3,0,0,0,.4.347V26.217c-0.034-.038-0.066-0.11-0.1-0.149A0.553,0.553,0,0,0,19.144,26.019Zm1.461,0H20.3c0.187,0.584-.335.576-0.655,0.793l-0.3.644H19.4a2.255,2.255,0,0,1,1.159,0v-0.1C20.031,26.967,20.508,26.433,20.6,26.019Zm0.957,0a1.3,1.3,0,0,0,.4.347V26.217c-0.034-.038-0.066-0.11-0.1-0.149A0.553,0.553,0,0,0,21.562,26.019Zm1.209,0a1.425,1.425,0,0,1-.1.5,1.588,1.588,0,0,0-.907.941h0.05a2.125,2.125,0,0,1,1.108,0v-0.1c-0.511-.333-0.117-0.987.05-1.337h-0.2Zm1.159,0c0.054,0.1.34,0.267,0.353,0.347a0.413,0.413,0,0,0-.05-0.347h-0.3Zm1.159,0c0.1,0.61-.265.547-0.655,0.793a3.217,3.217,0,0,0-.353.644h0.05a2.255,2.255,0,0,1,1.159,0v-0.1c-0.573-.263-0.108-1.008.05-1.337H25.088Zm1.209,0c0.054,0.1.34,0.267,0.353,0.347a0.413,0.413,0,0,0-.05-0.347H26.3Zm-10.781.545a3.789,3.789,0,0,1-.554.3c-0.023.026-.239,0.554-0.252,0.594h0.05a1.994,1.994,0,0,1,1.058,0v-0.1A1.916,1.916,0,0,1,15.516,26.564Z" transform="translate(0 0.016)"/>
</svg>
