<?xml version="1.0" encoding="utf-8"?>
<!-- Generator: Adobe Illustrator 16.0.0, SVG Export Plug-In . SVG Version: 6.00 Build 0)  -->
<!DOCTYPE svg PUBLIC "-//W3C//DTD SVG 1.1//EN" "http://www.w3.org/Graphics/SVG/1.1/DTD/svg11.dtd">
<svg version="1.1" id="Layer_1" xmlns="http://www.w3.org/2000/svg" xmlns:xlink="http://www.w3.org/1999/xlink" x="0px" y="0px"
	 width="39.969px" height="40px" viewBox="0 0 39.969 40" enable-background="new 0 0 39.969 40" xml:space="preserve">
<path id="Color_Fill_1" fill="#FFFFFF" d="M16.774,12.271c0-0.149,0.016-0.298,0.05-0.443c0.275-0.091,0.68-0.153,1.092-0.3
	l0.05-0.1c-0.082-0.053-0.121-0.151-0.1-0.246c0.064-0.075,0.151-0.127,0.248-0.148c0.004,0.117-0.013,0.234-0.05,0.345h0.2v0.148
	h0.248v-0.143h0.645v-0.2h0.1c0.375-0.096,0.767-0.096,1.141,0v0.2h0.645v0.148h0.247v-0.148h0.2v-0.049
	c-0.046-0.093-0.063-0.197-0.051-0.3h0.149c0.051,0.109,0.085,0.226,0.101,0.345c-0.041,0.025-0.076,0.06-0.101,0.1
	c0.405,0.105,0.804,0.237,1.191,0.394c-0.054,0.155-0.015,0.326,0.1,0.443c0.634,0.221,1.28,0.402,1.937,0.542h0.347
	c0.151,0.224,0.382,0.382,0.646,0.443c0.146-0.036,0.296-0.052,0.446-0.049c0.032-0.042,0.05-0.095,0.05-0.148
	c0.302,0.03,0.592,0.133,0.844,0.3l0.248,0.3h1.093c0.129,0.419,0.505,0.713,0.942,0.739c0.391,0.088,0.795,0.105,1.191,0.049H33.6
	c0.039,0.127,0.055,0.261,0.051,0.394c-0.377,0.065-0.761,0.082-1.142,0.049h-2.534c-0.272,0.165-0.809-0.084-1.142,0.049
	l-0.101,0.148h-0.94c-0.479,0.158-0.5,0.82-1.241,0.936c-0.024-0.071-0.059-0.138-0.1-0.2c-0.094,0.052-0.195,0.085-0.301,0.1
	c0.084,0.16,0.064,0.354-0.049,0.493c-0.035,0.06,0.028,0.037,0.049,0.049c0.162,0.155,0.377,0.243,0.601,0.246V16.9
	c0.2,0.014,0.4,0.014,0.601,0c0.121-0.146,0.082-0.489,0.199-0.64c0.215,0.116,0.452,0.184,0.695,0.2
	c0-0.054,0.018-0.105,0.05-0.148c0.076-0.041,0.163-0.058,0.248-0.049c0.202,0.104,0.42,0.171,0.646,0.2
	c0.022,0.163-0.024,0.234,0.1,0.3c0.274,0.151,0.58,0.235,0.893,0.246c0.035-0.174,0.205-0.286,0.379-0.251
	c0.007,0.001,0.014,0.003,0.021,0.005c0.27,0.076,0.136,0.175,0.248,0.246c0.265,0.171,0.49-0.14,0.645,0.148
	c0.032,0.042,0.05,0.094,0.051,0.148l0.6-0.1v-0.156c0.366,0.016,0.724,0.119,1.042,0.3h0.844c0.356,0.117,0.669,0.34,0.894,0.64
	c0.064,0.175,0.064,0.367,0,0.542c-0.487,0.124-0.986,0.191-1.489,0.199c-0.056,0.147-0.162,0.27-0.3,0.346v0.049
	c0.165,0.018,0.553,0.206,0.546-0.049c0-0.092,0.05,0.1,0.05,0.1c0.088,0.061,0.197,0.079,0.3,0.049
	c0.074-0.039,0.142-0.088,0.2-0.147c0.041,0.159-0.023,0.075,0.1,0.147c0.509,0.089,1.023,0.139,1.539,0.148
	c0.021,0.136,0.166,0.109,0.446,0.1c0.656,0.107,1.324,0.123,1.985,0.049c0-0.191-0.025-0.222,0.1-0.299
	c-0.009,0.229-0.055,0.28,0.051,0.344c0.368,0.196,0.773,0.314,1.19,0.346c-0.077,0.303-0.213,0.587-0.399,0.837
	c0.782,0.288,0.969,1.894,0.545,2.709c-0.449,0.612-1.099,1.048-1.836,1.231c-1.107,0.478-2.266,1.05-3.375,1.527
	c-0.722,0.334-1.475,0.597-2.248,0.783H9.082c-1.115-0.253-2.154-0.6-3.176-0.936c-1.623-0.533-3.589-0.7-4.417-2.021
	c-0.274-0.354-0.431-0.784-0.447-1.231c0.04-0.289,0.2-0.623,0.248-0.937H1.241c-0.268,0.191-0.572,0.325-0.893,0.394
	c-0.134-0.004-0.242-0.111-0.248-0.244c0.211-0.203,0.365-0.458,0.447-0.739c-0.028-0.053-0.062-0.103-0.1-0.148
	c0.344-0.199,0.607-0.513,0.744-0.887h-0.05c-0.093,0.045-0.198,0.062-0.3,0.049c-0.018-0.216-0.052-0.429-0.1-0.64L0,19.759v-0.444
	c0.075-0.271,0.255-0.501,0.5-0.64c0.145-0.121,0.355-0.121,0.5,0c0.002-0.084,0.019-0.167,0.05-0.246
	c0.359,0.036,0.722-0.034,1.042-0.2c0.035-0.062,0.087-0.113,0.149-0.147c0.064,0.122-0.021,0.034,0.1,0.101v-0.146h0.2v-0.148
	c0.315-0.014,0.631,0.002,0.943,0.049v-0.147h0.2c0.014,0.128,0,0.1,0.248,0.1v-0.1c-0.07,0.006-0.141-0.011-0.2-0.049
	c0.18,0.045,0.362,0.078,0.546,0.1c0.4-0.071,0.858-0.308,1.241-0.394c0.114,0.027,0.23,0.043,0.347,0.049
	c0.446-0.07,0.88-0.203,1.29-0.394c1.025-0.069,2.041-0.25,3.027-0.542c0.583-0.168,1.1-0.13,1.687-0.3
	c0.925-0.261,1.958-0.442,2.928-0.64c0,0.054,0.017,0.105,0.05,0.148c0.073-0.124,0.022-0.076,0.2-0.1
	c0.062,0.092,0.2,0.155,0.248,0.246c0.064,0.43,0.236,0.836,0.5,1.182c0.221-0.088,0.459-0.122,0.695-0.1v-0.043
	c-0.054-0.142-0.071-0.294-0.05-0.443c-0.391-0.333-0.755-0.695-1.092-1.084H14.64V14.98c-0.74,0.024-1.478-0.078-2.184-0.3
	c-0.087-0.355-0.104-0.723-0.05-1.084c-0.038-0.06-0.055-0.129-0.05-0.2h0.1c0.487-0.153,0.984-0.269,1.489-0.345
	c0.095-0.108,0.213-0.192,0.347-0.246c0.118,0.076,0.192,0.205,0.2,0.345c0.331-0.103,0.567-0.394,0.6-0.739
	c0.069-0.005,0.137-0.022,0.2-0.049c0.409-0.883,0.248-2.577,0.248-3.842C15.463,8.015,15.478,7.5,15.583,7v4.039
	c0,0.558-0.04,1.26,0.4,1.379C16.254,12.429,16.525,12.379,16.774,12.271z M14.491,14.783h0.149v-0.3
	c-0.137-0.292-0.172-0.622-0.1-0.936h0.05c-0.021,0.149-0.004,0.302,0.05,0.443v-0.64c-0.021-0.012-0.038-0.029-0.05-0.049h-0.05
	v0.246C14.445,13.952,14.429,14.372,14.491,14.783z M28.338,16.36v0.148h0.1c0.196,0.118,0.418,0.187,0.646,0.2l0.05-0.1l-0.1-0.049
	C28.822,16.435,28.583,16.366,28.338,16.36z M26.8,17.05c0.106,0.064,0.24,0.064,0.347,0H26.8z M2.73,17.887v0.101h0.148v-0.101
	H2.73z M38.313,19.956v0.2h0.101v-0.2H38.313z M36.18,23.8c-0.497,0.265-1.011,0.495-1.539,0.69l-0.05-0.148
	c-0.08,0.029-0.637,0.2-0.646,0.2c-0.107-0.101-0.252-0.153-0.399-0.147v0.049c0.169,0.338,0.187,0.731,0.05,1.084h0.051
	c0.246-0.152,0.514-0.268,0.793-0.346c0.529-0.23,1.108-0.557,1.639-0.787c0.348-0.064,0.672-0.217,0.943-0.443H36.82
	c-0.057,0.082-0.146,0.137-0.247,0.148c0.019-0.082,0.019-0.166,0-0.246V23.8h-0.4H36.18z M4.665,24.391
	c-0.181,0.207-0.218,0.094-0.5,0.049v0.101c0.497,0.083,0.981,0.231,1.439,0.442c0.83,0.273,1.66,0.414,2.432,0.74v-0.101
	c-0.183-0.387-0.201-0.831-0.05-1.231h-0.5c-0.245,0.125-0.526,0.16-0.794,0.1h-0.34v-0.1H4.665L4.665,24.391z M15.732,24.391
	c0.128,0.555,0.04,1.136-0.248,1.627h1.787v-0.052c-0.364-0.438-0.478-1.034-0.3-1.575H15.732L15.732,24.391z M24.715,24.391
	c0.208,0.549,0.114,1.165-0.248,1.627H26.1v-0.052c-0.24-0.254-0.383-0.586-0.399-0.936c-0.025-0.173,0.153-0.533,0.1-0.591
	c-0.354-0.086-0.724-0.103-1.085-0.051V24.391z M8.536,24.884c-0.027,0.063-0.043,0.132-0.05,0.2c0.064,0.026,0.131,0.043,0.2,0.049
	c0.026-0.063,0.043-0.131,0.05-0.199H8.685v-0.052H8.536V24.884z M14.988,24.884v0.2c0.064,0.026,0.131,0.043,0.2,0.049v-0.1
	c-0.007-0.094,0.036-0.133-0.2-0.151V24.884z M17.569,24.884c-0.026,0.063-0.043,0.132-0.05,0.2c0.064,0.026,0.131,0.043,0.2,0.049
	c0.005-0.038,0.022-0.073,0.05-0.1v-0.1h-0.05v-0.052h-0.151L17.569,24.884z M24.219,24.884H24.02v0.101
	c-0.035,0.076-0.006,0.007,0,0.147h0.148v-0.053h0.05v-0.2L24.219,24.884z M26.402,24.884c-0.025,0.063-0.043,0.132-0.049,0.2
	c0.063,0.026,0.131,0.043,0.199,0.049c0.027-0.063,0.043-0.131,0.051-0.199h-0.051v-0.052H26.4L26.402,24.884z M33.053,24.884
	h-0.199v0.101c-0.035,0.076-0.006,0.007,0,0.147H33v-0.053h0.05v-0.2L33.053,24.884z M11.266,24.934
	c-0.074,0.051-0.159,0.086-0.248,0.1c-0.013,0.355-0.134,0.699-0.347,0.984h2.382v-0.052c-0.25-0.2-0.276-0.823-0.447-0.936
	c-0.434-0.132-0.892-0.166-1.34-0.099V24.934z M20.298,24.934c-0.074,0.051-0.159,0.086-0.248,0.1
	c-0.023,0.363-0.164,0.708-0.4,0.984h2.432v-0.052c-0.3-0.217-0.262-0.8-0.5-0.936c-0.414-0.131-0.853-0.165-1.282-0.099
	L20.298,24.934z M29.132,24.934c-0.073,0.051-0.159,0.086-0.248,0.1c-0.051,0.348-0.169,0.682-0.347,0.984h2.382v-0.052
	c-0.284-0.212-0.265-0.81-0.5-0.936c-0.415-0.132-0.856-0.165-1.287-0.099V24.934z M9.38,25.719c-0.026,0.064-0.043,0.131-0.05,0.2
	c0.064,0.026,0.131,0.042,0.2,0.049c0.026-0.063,0.043-0.131,0.05-0.2H9.529v-0.049H9.38z M14.144,25.719v0.2h0.05v0.049h0.1
	c0.043-0.062,0.077-0.128,0.1-0.2h-0.05v-0.049H14.144z M18.362,25.719v0.2h0.05v0.049h0.1c0.043-0.062,0.077-0.128,0.1-0.2h-0.05
	v-0.049H18.362z M23.176,25.719c-0.02,0.112-0.046,0.053,0,0.148c0.03,0.056,0.086,0.094,0.149,0.1c0.024-0.041,0.06-0.075,0.1-0.1
	v-0.049h-0.05C23.3,25.693,23.354,25.742,23.176,25.719z M27.195,25.719v0.2h0.051v0.049h0.1c0.043-0.062,0.077-0.128,0.1-0.2
	h-0.049v-0.049H27.2H27.195z M32.01,25.719c0,0.144-0.048,0.068,0,0.148l0.051,0.1h0.1c0.025-0.041,0.059-0.075,0.1-0.1v-0.049
	h-0.05C32.136,25.693,32.188,25.742,32.01,25.719z"/>
</svg>
