<?xml version="1.0" encoding="utf-8"?>
<!-- Generator: Adobe Illustrator 16.0.0, SVG Export Plug-In . SVG Version: 6.00 Build 0)  -->
<!DOCTYPE svg PUBLIC "-//W3C//DTD SVG 1.1//EN" "http://www.w3.org/Graphics/SVG/1.1/DTD/svg11.dtd">
<svg version="1.1" id="Layer_1" xmlns="http://www.w3.org/2000/svg" xmlns:xlink="http://www.w3.org/1999/xlink" x="0px" y="0px"
	 width="39.969px" height="40px" viewBox="0 0 39.969 40" enable-background="new 0 0 39.969 40" xml:space="preserve">
<path id="uk_a30_challenger_ico" fill="#FFFFFF" d="M16.558,13.865h1v-0.249c0.237,0.046,0.479,0.069,0.721,0.068v0.046
	c-0.093-0.013-0.188-0.005-0.279,0.023h0.023c0.259,0.079,0.537,0.07,0.791-0.023v-0.139c0.05-0.039,0.066-0.1,0.116-0.136
	c0.34-0.034,0.683-0.034,1.023,0v0.068H19.6v0.023h0.023c0.021,0.015,0.045,0.023,0.07,0.023c0.019,0.074-0.011,0.035,0.046,0.068
	c0.084-0.019,0.171-0.019,0.256,0v-0.182h0.047c0,0.092-0.013,0.125,0.046,0.159c0.075,0.025,0.155,0.033,0.233,0.022l0.023-0.159
	h0.07v0.159h0.07v-0.182h0.047v0.182c0.063,0,0.125-0.008,0.186-0.022c0-0.092-0.013-0.124,0.047-0.159v0.182
	c0.1-0.01,0.199-0.01,0.299,0v-0.068c0.033-0.002,0.064-0.01,0.094-0.023v-0.023h-0.342v-0.068c0.162-0.016,0.324-0.023,0.487-0.023
	c0.091,0.024,0.186,0.032,0.279,0.023c0.042-0.026,0.091-0.042,0.14-0.046c0.07,0.009,0.131,0.052,0.163,0.114l0.349-0.091v0.046
	c-0.098,0.05-0.18,0.129-0.232,0.227h0.023c0.167,0.07,0.338,0.131,0.512,0.182v-0.021h0.023c-0.004-0.167,0.036-0.332,0.115-0.479
	c0.021,0.015,0.045,0.023,0.07,0.023l-0.094,0.523c0.256,0.015,0.49,0.131,0.722,0.159c0.099-0.02,0.199-0.027,0.3-0.023
	c0.007,0.04,0.033,0.074,0.07,0.091c0.422,0.137,0.857,0.229,1.3,0.273c-0.011,0.319,0.004,0.639,0.046,0.956
	c-0.031,0.147-0.007,0.302,0.07,0.432c0.339,0.048,0.682,0.056,1.023,0.022l2.58,0.023c3.113,0,6.237,0.049,9.326,0.068
	c0.014-0.037,0.021-0.075,0.023-0.114h0.115v0.068H38.7c0.312-0.147,0.658-0.202,1-0.159c0.114,0.066,0.21,0.161,0.278,0.273
	c0.087,0.248-0.01,0.521-0.232,0.66c-0.344,0.092-0.709,0.051-1.023-0.114h-0.49v0.067h-0.116v-0.089
	c-0.208-0.035-0.419-0.042-0.628-0.023c-0.301,0.045-0.605,0.053-0.907,0.023h-2.534C33.699,16.566,33.35,16.573,33,16.55h-2.023
	l-5.813,0.046c0,0.53,0.133,0.969,0.139,1.547h1.601v0.592c-0.357,0.1-0.68,0.297-0.93,0.569h0.047
	c0.244-0.051,0.496-0.059,0.744-0.022c0.256,0.023,0.516,0.008,0.768-0.047c0.08-0.018,0.164,0,0.232,0.047h0.674v-0.2
	c0.166-0.031,0.323-0.093,0.465-0.183h0.535c-0.026,0.079-0.075,0.148-0.14,0.201c0.253-0.072,0.524,0.005,0.7,0.199h-0.114
	c-0.013-0.012-0.029-0.021-0.047-0.023v0.141c0.187,0.068,0.224,0.12,0.209,0.387c0.118,0.207,0.151,0.452,0.093,0.684h1.674
	l-0.022-0.301H31.7c0.009-0.086-0.007-0.173-0.048-0.25c0.043-0.025,0.082-0.056,0.117-0.091h0.256
	c0.046,0.057,0.07,0.128,0.069,0.2c-0.033,0.009-0.06,0.035-0.069,0.068H31.93c0.031,0.119,0.047,0.241,0.047,0.363
	c0.2,0,0.395-0.011,0.559-0.022c0.275-0.31,0.607-0.563,0.977-0.751c0.016,0.043,0.023,0.09,0.023,0.136
	c-0.286,0.192-0.551,0.413-0.791,0.66c0.634,0.009,1.244,0.242,1.721,0.66c0.18,0.077,0.328,0.214,0.419,0.387
	c-0.206,0.358-0.37,0.741-0.487,1.138c0.137,0.055,0.223,0.193,0.209,0.342c-0.019,0.045-0.033,0.09-0.047,0.137
	c-0.074,0.127-0.431,0.354-0.488,0.479v0.5c-0.012,0.012-0.02,0.027-0.022,0.045H33.93V24.15c-0.039-0.156-0.047-0.319-0.022-0.479
	h-0.023v0.023c-0.033,0.049-0.072,0.096-0.116,0.137c0.042,0.033,0.067,0.083,0.07,0.136l-0.14,0.159
	c-0.104-0.078-0.251-0.059-0.329,0.045c-0.021,0.026-0.035,0.058-0.043,0.091c0.031,0.04,0.04,0.037,0.023,0.068
	c-0.054,0.046-0.117,0.077-0.187,0.091c-0.011-0.039-0.026-0.078-0.046-0.113l-0.279,0.137c0.021,0.042,0.028,0.09,0.023,0.137
	c-0.054,0.046-0.117,0.077-0.187,0.091c-0.011-0.04-0.026-0.078-0.047-0.114l-0.278,0.138c0.027,0.039,0.036,0.09,0.022,0.137
	c-0.042,0.046-0.102,0.07-0.163,0.067c-0.023-0.037-0.055-0.068-0.093-0.09c-0.107,0.038-0.192,0.121-0.233,0.228
	c0.029,0.036,0.016,0.012,0,0.046c-0.049,0.038-0.104,0.068-0.163,0.091c-0.006-0.053-0.042-0.097-0.093-0.114
	c-0.1,0.035-0.184,0.107-0.232,0.2c0.019,0.021,0.035,0.043,0.047,0.068c-0.063,0.013-0.12,0.044-0.164,0.091
	c-0.107-0.064-0.241-0.064-0.348,0c-0.013,0.029-0.021,0.06-0.023,0.091c0.019,0.021,0.034,0.044,0.046,0.068
	c-0.055,0.04-0.119,0.063-0.187,0.067c-0.019-0.02-0.034-0.043-0.046-0.067l-0.278,0.091c-0.082,0.116,0.113,0.109-0.094,0.2
	c-0.041,0.019-0.033,0.05-0.07,0.022c-0.018-0.02-0.033-0.043-0.045-0.067c-0.125-0.015-0.242,0.062-0.279,0.182
	c0.043,0.095-0.081,0.124-0.163,0.159c-0.007-0.053-0.042-0.098-0.093-0.114c-0.072,0.05-0.15,0.087-0.233,0.114
	c0.007,0.045,0.007,0.092,0,0.137c-0.065,0.039-0.136,0.07-0.209,0.092c0.007-0.051-0.011-0.102-0.047-0.137
	c-0.089,0.039-0.183,0.063-0.278,0.068c-0.035,0.117,0.031,0.133-0.14,0.136c-0.028,0.017-0.061,0.025-0.093,0.022
	c-0.038-0.147-0.088-0.148-0.326-0.137v0.047c-0.018,0.026-0.025,0.059-0.023,0.09h-0.207v-0.127H27.84
	c-0.016,0.043-0.023,0.09-0.023,0.137H27.6c-0.016-0.044-0.023-0.09-0.022-0.137h-0.3v0.045c-0.018,0.027-0.025,0.06-0.023,0.092
	h-0.207v-0.137h-0.3v0.045c-0.017,0.027-0.025,0.06-0.022,0.092h-0.213l-0.022-0.137h-0.3c-0.02,0.139-0.021,0.149-0.233,0.137
	v-0.137h-0.3v0.045c-0.018,0.027-0.025,0.06-0.023,0.092h-0.214v-0.137h-0.3c-0.016,0.043-0.023,0.09-0.023,0.137h-0.234v-0.137
	h-0.301v0.045c-0.017,0.027-0.024,0.06-0.022,0.092h-0.212v-0.137h-0.301c-0.015,0.043-0.022,0.09-0.022,0.137h-0.212v-0.137h-0.326
	l-0.023,0.137h-0.209v-0.137h-0.299v0.045c-0.018,0.027-0.025,0.06-0.023,0.092H22.7v-0.137h-0.3
	c-0.016,0.043-0.023,0.09-0.023,0.137h-0.236v-0.046c0.011-0.029,0.011-0.062,0-0.091H21.84v0.045
	c-0.018,0.027-0.025,0.06-0.023,0.092H21.6v-0.137h-0.3v0.045c-0.017,0.027-0.024,0.06-0.022,0.092H21.07v-0.137H20.77
	c-0.016,0.043-0.023,0.09-0.022,0.137h-0.235v-0.137h-0.3v0.045c-0.017,0.027-0.025,0.06-0.023,0.092h-0.212v-0.137h-0.3v0.045
	c-0.017,0.027-0.025,0.06-0.023,0.092h-0.212v-0.137h-0.326v0.137h-0.232v-0.137h-0.3v0.045c-0.017,0.027-0.025,0.06-0.023,0.092
	h-0.212v-0.137h-0.3v0.045c-0.017,0.027-0.025,0.06-0.023,0.092h-0.212v-0.137h-0.326c0.004,0.039-0.003,0.079-0.023,0.113
	c-0.066,0.025-0.138,0.033-0.209,0.023v-0.137h-0.3v0.045c-0.017,0.027-0.025,0.06-0.023,0.092h-0.212v-0.137h-0.3
	c-0.015,0.043-0.023,0.09-0.023,0.137c-0.078,0.004-0.156-0.004-0.232-0.023c0.014-0.036,0.021-0.074,0.023-0.113h-0.328v0.045
	c-0.017,0.027-0.025,0.06-0.023,0.092h-0.21v-0.137h-0.3v0.045c-0.017,0.027-0.025,0.06-0.023,0.092h-0.212v-0.137h-0.3
	c-0.016,0.043-0.023,0.09-0.023,0.137h-0.235v-0.137h-0.3v0.045c-0.017,0.027-0.025,0.06-0.023,0.092H14v-0.137h-0.3v0.045
	c-0.018,0.027-0.025,0.06-0.023,0.092h-0.212v-0.137H13.14v0.137h-0.233v-0.137H12.6v0.045c-0.017,0.027-0.025,0.06-0.023,0.092
	h-0.205v-0.137h-0.3c-0.016,0.043-0.023,0.09-0.023,0.137h-0.212v-0.137h-0.325c0.003,0.039-0.004,0.078-0.023,0.113
	c-0.067,0.025-0.139,0.033-0.209,0.023v-0.137h-0.3v0.045c-0.017,0.027-0.025,0.06-0.023,0.092h-0.213v-0.137h-0.3
	c-0.015,0.043-0.023,0.09-0.023,0.137h-0.235v-0.137h-0.3v0.045c-0.017,0.027-0.025,0.06-0.023,0.092H9.651v-0.137h-0.3v0.045
	c-0.017,0.027-0.025,0.06-0.023,0.092H9.093v-0.046c0.018-0.027,0.025-0.06,0.023-0.091H8.791v0.045
	c-0.017,0.027-0.025,0.06-0.023,0.092h-0.21v-0.137h-0.3v0.045c-0.017,0.027-0.025,0.06-0.023,0.092H8.023v-0.137h-0.3L7.7,26.402
	c-0.005,0.023-0.013,0.046-0.023,0.067c-0.066,0.024-0.138,0.032-0.209,0.023v-0.136h-0.3v0.045
	c-0.017,0.027-0.025,0.06-0.023,0.092H6.93v-0.137c-0.101,0.002-0.201-0.006-0.3-0.023c0,0.072,0.039,0.031-0.023,0.068
	C6.59,26.42,6.582,26.445,6.584,26.47l-0.233-0.022l0.021-0.131c-0.115-0.025-0.177-0.073-0.3-0.092
	c-0.011,0.04-0.027,0.078-0.047,0.114c-0.1-0.039-0.179-0.036-0.186-0.182c0.013-0.015,0.021-0.032,0.021-0.052
	c-0.125-0.017-0.172-0.07-0.3-0.09l-0.047,0.113l-0.186-0.068l0.023-0.158l-0.28-0.092c-0.018,0.048-0.05,0.088-0.093,0.114
	c-0.047-0.036-0.104-0.06-0.163-0.067l0.023-0.159c-0.088-0.04-0.183-0.063-0.279-0.068c-0.023,0.038-0.055,0.069-0.093,0.091
	C4.4,25.699,4.343,25.659,4.3,25.605c0.02-0.034,0.027-0.074,0.023-0.113c-0.098-0.033-0.198-0.057-0.3-0.068
	C4.021,25.455,4.013,25.486,4,25.516l-0.209-0.067v-0.024c0.021-0.042,0.029-0.09,0.023-0.137c-0.098-0.032-0.198-0.055-0.3-0.068
	c-0.002,0.031-0.01,0.063-0.023,0.092l-0.209-0.068v-0.026c0.031-0.029,0.048-0.071,0.047-0.114
	c-0.087-0.047-0.183-0.076-0.282-0.086c-0.031,0.023-0.055,0.055-0.07,0.092l-0.163-0.047c-0.012-0.028-0.02-0.059-0.023-0.091
	c0.019-0.02,0.035-0.043,0.047-0.067c-0.128-0.024-0.281-0.14-0.372,0c-0.405-0.151-0.743-0.441-0.953-0.819
	c0.014-0.02,0.022-0.043,0.022-0.067c-0.096-0.01-0.189-0.033-0.279-0.067c-0.084-0.11-0.126-0.249-0.116-0.388
	c0.043-0.061,0.075-0.128,0.093-0.199c-0.169-0.234-0.356-0.455-0.558-0.66H0.6v-0.03c-0.054-0.091-0.136-0.161-0.233-0.2v-0.119
	c-0.015-0.035-0.083-0.072-0.111-0.113c0.213-0.104,0.334-0.334,0.3-0.569c-0.026-0.099-0.026-0.202,0-0.3H0.535v0.027
	c-0.018,0.043-0.023-0.045-0.023-0.045c0.062-0.041,0.136-0.058,0.209-0.047c0.075-0.025,0.154-0.033,0.233-0.022
	c0.012-0.221,0.005-0.441-0.023-0.66c-0.03-0.013-0.061-0.021-0.093-0.022c-0.059,0.022-0.123,0.031-0.186,0.022V20.6H0.628
	L0.6,20.372H0.581c-0.082,0.073-0.191,0.107-0.3,0.091c-0.012-0.029-0.02-0.06-0.023-0.091c0.05-0.03,0.083-0.063,0.14-0.091v-0.022
	c-0.044,0.005-0.088-0.011-0.119-0.043L0.3,20.145c0.167-0.046,0.299-0.175,0.349-0.341c0.01,0.081-0.011,0.058,0.047,0.091
	c0.028-0.063,0.1-0.093,0.164-0.068c0.016,0.1,0,0.12,0.093,0.158v-0.269c0.03-0.097,0.038-0.199,0.023-0.3L0.72,19.439v-0.045
	c0.03-0.09,0.038-0.186,0.024-0.278C0.447,18.938,0.278,18.641,0,18.438v-0.021c0.208-0.071,0.377-0.246,0.6-0.318
	c0.611-0.192,1.274,0.063,1.6,0.613l0.2,0.505c0.167,0.054,0.346,0.054,0.512,0c-0.008-0.054,0-0.108,0.023-0.159
	c0,0.092-0.013,0.125,0.047,0.159c0.174,0.053,0.361,0.053,0.535,0c0.072,0.001,0.143,0.017,0.209,0.046h4.041v-0.072
	c0.263-0.035,0.53-0.027,0.791,0.022c0.051-0.046,0.118-0.069,0.186-0.067v0.021h0.023v0.068L9.4,19.257
	c-0.003-0.062,0.005-0.123,0.023-0.182H9.3c-0.035,0.019-0.076,0.026-0.116,0.022c-0.008-0.104,0.035-0.206,0.116-0.272
	c0.188-0.062,0.384-0.093,0.581-0.091c-0.009-0.2,0.05-0.217,0.256-0.2c0.105-0.03,0.217-0.038,0.326-0.023
	c0.023,0.07,0.054,0.138,0.093,0.2c0.353-0.066,0.712-0.089,1.07-0.068c0.073,0.113,0.127,0.235,0.163,0.364h-0.417v0.109H11.4
	c0.059-0.023,0.123-0.031,0.186-0.023v0.159l0.372-0.023c0.04-0.078,0.041-0.088,0.163-0.091c0.106,0.08,0.241,0.113,0.372,0.091
	v-0.176h0.046v0.182l0.372-0.022c0.219,0.063,0.449,0.08,0.674,0.046c0.088-0.038,0.184-0.054,0.279-0.046v-0.159h0.046
	c-0.003,0.068,0.004,0.135,0.023,0.2h0.046v-0.637c0.011-0.012,0.018-0.026,0.021-0.041c0.331-0.054,0.666-0.069,1-0.046v-0.068
	h-1.907c-0.061-0.047-0.133-0.078-0.209-0.091v-0.138H12.3v-0.316h0.326v0.114h0.046v-1.16c0.027-0.272,0.027-0.547,0-0.819h0.14
	c0.005-0.159,0.057-0.148,0.07-0.3h-0.44c-0.002-0.018-0.01-0.034-0.023-0.046v-0.02h0.023c0.14-0.058,0.293-0.074,0.442-0.046
	v-1.774c0.497,0.059,0.999,0.036,1.488-0.068c0.027-0.08,0.035-0.166,0.023-0.25h-0.07V13.5H14.4v-0.136h-0.07v-0.048
	c0.016-0.161-0.025-0.322-0.116-0.455h-0.098v-0.066h0.326v-0.227h0.046v-1.525c-0.034-0.227-0.026-0.458,0.023-0.683
	c0.008,0.733,0.016,1.469,0.023,2.207h0.046v0.227h0.326v0.068h-0.092c-0.041,0.146-0.104,0.284-0.186,0.41v0.524
	c0.01,0.006,0.018,0.014,0.023,0.023c0.088-0.007,0.176,0.008,0.256,0.046l0.023-0.137h0.046c0.024-0.016,0.093-0.029,0.116-0.046
	c0.013-0.013,0.021-0.029,0.023-0.046c-0.091-0.033-0.16-0.107-0.186-0.2h0.442c0.075,0.043,0.153,0.082,0.233,0.114
	c0.057-0.015,0.112-0.038,0.163-0.068c0.136-0.038,0.278-0.053,0.419-0.046v-0.049c0.042-0.416,0.05-0.834,0.023-1.251V8.79
	c-0.027-0.425-0.019-0.851,0.024-1.274c0.008,1.957,0.016,3.914,0.023,5.871c0.048,0.109,0.103,0.216,0.163,0.319
	C16.491,13.794,16.539,13.694,16.558,13.865z M23.419,13.296h0.093v0.683c-0.037,0.014-0.076,0.021-0.115,0.023
	c0,0.024-0.008,0.049-0.023,0.068v-0.137C23.443,13.728,23.459,13.509,23.419,13.296z"/>
</svg>
