<?xml version="1.0" encoding="utf-8"?>
<!-- Generator: Adobe Illustrator 16.0.0, SVG Export Plug-In . SVG Version: 6.00 Build 0)  -->
<!DOCTYPE svg PUBLIC "-//W3C//DTD SVG 1.1//EN" "http://www.w3.org/Graphics/SVG/1.1/DTD/svg11.dtd">
<svg version="1.1" id="Layer_1" xmlns="http://www.w3.org/2000/svg" xmlns:xlink="http://www.w3.org/1999/xlink" x="0px" y="0px"
	 width="39.969px" height="40px" viewBox="0 0 39.969 40" enable-background="new 0 0 39.969 40" xml:space="preserve">
<path id="uk_a_22b_mk_3_churchill_1942_ico" fill="#FFFFFF" d="M17.615,11.69h0.089v0.6h0.089V6.628h0.059v5.664h0.089
	c0.016,0.179,0.088,0.348,0.207,0.482c0.116-0.039,0.235-0.069,0.355-0.09c-0.028-0.194,0.042-0.317,0.326-0.3
	c0.327,0.095,0.671,0.116,1.007,0.06V12.5c-0.121,0-0.241,0.02-0.355,0.06h0.03c0.282,0.061,0.571,0.081,0.859,0.06v-0.207h0.118
	c0.018,0.069,0.018,0.142,0,0.211h0.267c0.187-0.031,0.377-0.031,0.563,0c0.014-0.024,0.035-0.045,0.059-0.06v-0.03l-0.355-0.03
	v-0.06c0.5,0,0.813-0.054,1.244-0.06c0.025,0.037,0.045,0.078,0.059,0.12c0.02,0.026,0.029,0.058,0.029,0.09
	c0.16-0.006,0.318-0.026,0.475-0.06c0.022,0.078,0.033,0.16,0.029,0.241c-0.016,0.017-0.025,0.037-0.029,0.06h0.326
	c0.054-0.092,0.078-0.051,0.178-0.03c0.011,0.079-0.021,0.039,0.059,0.06c0.065-0.029,0.137-0.039,0.207-0.03
	c0.01-0.282-0.054-0.251-0.059-0.542c0.318-0.014,0.636-0.054,0.947-0.12v0.06c-0.197,0.129-0.293,0.37-0.236,0.6
	c0.099,0.027,0.199,0.047,0.3,0.06c-0.001,0.119,0.095,0.216,0.213,0.217c0.019,0,0.036-0.002,0.054-0.006
	c0.326-0.124,0.691-0.079,0.978,0.121c0.075,0.101,0.136,0.212,0.179,0.331c0.104-0.039,0.216-0.049,0.325-0.03v0.09
	c0.268,0.078,0.499,0.249,0.651,0.482V15h0.5v-0.09h0.119v0.12c0.252,0.007,0.447,0,0.711,0v0.181h0.059
	c0.163,0.043,0.333,0.053,0.5,0.03h1.273c1.607,0,3.168-0.054,4.707-0.06v0.753c-0.404,0.026-0.813,0.007-1.213-0.06h-1.957
	c-1.606,0-3.166,0.06-4.707,0.06v0.696c-0.053,0.033-0.101,0.127-0.148,0.15h-0.207l-0.029,0.09c-0.101,0.047-0.25-0.019-0.326,0.03
	c0.028,0.066,0.039,0.14,0.029,0.211l4.441-0.12c0.327-0.106,0.664-0.177,1.007-0.211v0.03c-0.06,0.038-0.11,0.09-0.147,0.151h0.209
	c0.333-0.051,0.671-0.061,1.006-0.03c0.352-0.068,0.709-0.099,1.066-0.091h0.622c0.589-0.072,1.184-0.092,1.776-0.06v0.09
	c0.108-0.022,0.222,0.011,0.3,0.091l0.771,0.029c0.168,0.041,0.392,0.072,0.532,0.09c0.021-0.116,0.119-0.203,0.237-0.211V16.9
	h-0.03c-0.057,0.023,0.06,0.03,0.06,0.03c0.046-0.037,0.015-0.02,0.059,0c0.021,0.13,0.071,0.254,0.148,0.362
	c0.293,0.148,0.563,0.342,0.8,0.571c0.44,0.605,0.688,1.33,0.711,2.079h0.089c0.031,0.047,0.049,0.102,0.053,0.157h-0.178
	c0.018,0.542,0.113,1.082,0.118,1.658c-0.636,0-1.527,0.055-1.896,0c-0.156,0.154-0.296,0.326-0.414,0.512
	c0.042,0.025,0.082,0.055,0.117,0.09c-0.002,0.023-0.014,0.043-0.029,0.061c-0.061,0.107-0.154,0.191-0.268,0.24
	c-0.029-0.061-0.083-0.104-0.148-0.119c-0.127,0.188-0.288,0.35-0.474,0.48c0.037,0.043,0.077,0.082,0.118,0.121
	c-0.003,0.021-0.014,0.043-0.03,0.059c-0.06,0.109-0.153,0.193-0.267,0.242c-0.026-0.045-0.1-0.162-0.118-0.121
	c-0.2,0.127-0.362,0.305-0.474,0.514c0.049,0.035,0.127,0.117,0.089,0.15c-0.069,0.119-0.174,0.215-0.3,0.271
	c-0.008-0.07-0.053-0.129-0.118-0.152c-0.129,0.18-0.29,0.332-0.474,0.453c0.107,0.096,0.117,0.262,0.021,0.371
	c-0.065,0.072-0.164,0.104-0.26,0.08v-0.061c-0.019-0.025-0.029-0.057-0.029-0.09c-0.246,0.031-0.48,0.125-0.682,0.271
	c0.031,0.057,0.051,0.117,0.06,0.182h-0.166c-0.075,0.029-0.157,0.041-0.237,0.029v-0.061c-0.021-0.035-0.032-0.076-0.029-0.119
	c-0.25,0.004-0.498,0.033-0.74,0.09v0.029c0.03,0.057,0.051,0.119,0.059,0.182h-0.18c-0.075,0.031-0.156,0.041-0.236,0.029v-0.059
	c-0.022-0.037-0.033-0.078-0.031-0.121c-0.248,0.002-0.497,0.033-0.739,0.09v0.031c0.03,0.057,0.05,0.117,0.059,0.18h-0.207
	c-0.064,0.029-0.136,0.041-0.206,0.031v-0.061c-0.022-0.035-0.033-0.078-0.031-0.119c-0.248,0.002-0.497,0.031-0.739,0.09
	l0.06,0.205H30.73c-0.055,0.027-0.117,0.037-0.178,0.029c0-0.063-0.01-0.123-0.029-0.182c-0.065-0.027-0.137-0.039-0.207-0.029
	c-0.154,0.043-0.314,0.063-0.475,0.061l0.03,0.211l-0.386,0.029l-0.029-0.211l-0.65,0.029c-0.023,0.078-0.033,0.16-0.031,0.242
	l-0.385,0.029V25.76h-0.68v0.211h-0.384c0.002-0.072,0.012-0.143,0.03-0.211h-0.711v0.211h-0.386
	c0.002-0.072,0.013-0.143,0.03-0.211h-0.71v0.211h-0.356V25.76h-0.682v0.211h-0.384V25.76h-0.681v0.211h-0.386
	c-0.002-0.072,0.009-0.145,0.03-0.211h-0.711v0.211h-0.385V25.76h-0.682v0.211h-0.354V25.76H20.31v0.211h-0.385V25.76h-0.681v0.211
	h-0.385V25.76h-0.681v0.211c-0.139,0.01-0.279,0-0.415-0.031c0.02-0.059,0.03-0.119,0.03-0.18h-0.681v0.211h-0.385
	c0.005-0.072,0.015-0.143,0.03-0.211h-0.711v0.211h-0.355c-0.007-0.014-0.018-0.023-0.03-0.031l0.03-0.18H15.01v0.211h-0.385V25.76
	h-0.681v0.211h-0.385c-0.003-0.023-0.014-0.045-0.03-0.061c0.018-0.049,0.028-0.1,0.03-0.15h-0.681v0.211h-0.385
	c0.001-0.072,0.012-0.143,0.03-0.211h-0.711v0.211h-0.385V25.91c0.023-0.047,0.033-0.1,0.03-0.15h-0.711v0.211
	c-0.149,0.012-0.298,0.002-0.444-0.031c0.013-0.063,0.033-0.123,0.059-0.18L9.68,25.607c-0.008,0.074-0.028,0.145-0.059,0.211
	c-0.115-0.043-0.234-0.072-0.355-0.09c-0.004-0.074,0.016-0.148,0.059-0.211H9.269c-0.188-0.09-0.392-0.141-0.6-0.15
	c-0.041,0.115-0.027,0.162-0.178,0.182c-0.081-0.047-0.173-0.068-0.266-0.061c0.003-0.084,0.023-0.166,0.059-0.242
	c-0.256-0.008-0.4-0.1-0.651-0.119c-0.013,0.066-0.044,0.129-0.089,0.182c-0.14-0.004-0.271-0.07-0.355-0.182
	c0.02-0.025,0.048-0.084,0.089-0.15c-0.199-0.117-0.407-0.217-0.622-0.301c-0.007,0.068-0.053,0.127-0.118,0.15
	c-0.07-0.105-0.161-0.197-0.266-0.27l0.03-0.09c0.047-0.023,0.081-0.068,0.089-0.121c-0.176-0.133-0.326-0.295-0.444-0.482H5.92
	c-0.011,0.078-0.071,0.139-0.148,0.152v-0.031c-0.105-0.076-0.188-0.18-0.237-0.299c0.045-0.045,0.085-0.096,0.118-0.152
	c-0.148-0.178-0.315-0.34-0.5-0.48c-0.021,0.055-0.05,0.105-0.089,0.15H5.032v-0.029C4.927,23.1,4.838,23.008,4.769,22.9
	c0.068-0.051,0.112-0.127,0.118-0.211c-0.165-0.115-0.306-0.26-0.418-0.426c-0.1,0.027-0.117,0.061-0.207,0.09
	c-0.368-0.363-0.812-0.643-1.3-0.813c-0.27-0.102-0.821,0.316-0.977-0.092c-0.065-0.17-0.043-0.361,0.059-0.512l-0.03-0.15
	c-0.028-0.189,0.039-0.381,0.178-0.512c0.071-0.077,0-0.088,0.089-0.12c0.041,0.004,0.08,0.015,0.118,0.03
	C2.402,20.091,2.422,20,2.458,19.914l-0.8-0.211l-0.03-0.06c0.113-0.116-0.028-0.068,0-0.211c0.045-0.095,0.075-0.196,0.089-0.3
	H1.686c-0.026,0.023-0.056,0.045-0.089,0.06c0.006-0.099-0.025-0.196-0.088-0.272c-0.211,0.082-0.448,0.071-0.651-0.029
	c-0.598-0.191-0.955-0.802-0.829-1.416C0.16,17.15,0.351,16.853,0.591,16.6c0.127-0.03,0.255-0.05,0.385-0.06
	c1.118-0.244,1.389,0.506,2.073,0.752c0.179-0.119,0.449-0.041,0.651-0.15c0.015-0.033,0.035-0.063,0.059-0.09
	c0.146,0.029,0.295,0.049,0.444,0.06h0.03v-0.03c-0.033-0.019-0.055-0.052-0.059-0.09h0.059c0.056,0.029,0.123,0.029,0.178,0v0.061
	c-0.024,0.015-0.044,0.035-0.059,0.06H4.44c0.641-0.2,1.313-0.282,1.984-0.241v0.182h0.03v-0.03c0.022-0.036,0.032-0.078,0.03-0.12
	c0.235,0.043,0.473,0.063,0.711,0.061c0.031-0.01,0.136-0.08,0.178-0.091l0.355-0.03c0.085-0.03,0.214-0.129,0.3-0.15
	c0.2-0.052,0.19,0.08,0.326,0.12l0.385-0.06v-0.091c0.022-0.003,0.043-0.013,0.059-0.03c0.234,0.043,0.784-0.153,0.977-0.09
	c0.036,0.035,0.065,0.076,0.089,0.12l0.354-0.03c0.306-0.069,0.734-0.047,1.066-0.121c0.423-0.033,0.849-0.033,1.273,0
	c-0.003-0.056,0.035-0.105,0.089-0.119c0.054,0.207,0.311,0.164,0.563,0.15c0.292-0.063,0.593-0.074,0.888-0.029h0.671
	c0.039-0.021-0.013-0.112,0.089-0.09l0.03,0.09c0.253,0.055,0.516,0.055,0.77,0v0.3h-0.589v0.03
	c0.079,0.082,0.148,0.173,0.207,0.271h1.451v-0.241c-0.135-0.043-0.274-0.072-0.415-0.09v-0.572c-0.848-0.048-1.698-0.048-2.546,0
	c0-0.758-0.01-1.568-0.03-2.289h-0.088c-0.044-0.072-0.065-0.157-0.059-0.242c0.113-0.096,0.149-0.255,0.089-0.392
	c0.024-0.015,0.044-0.035,0.059-0.06c0.27,0.087,0.56,0.087,0.829,0l1.688-0.121c0.038-0.053,0.059-0.116,0.059-0.181
	c0.194-0.047,0.393-0.077,0.592-0.09v-0.09h0.264v0.09c0.098-0.037,0.198-0.067,0.3-0.09V11.69h0.089V0h0.059v11.69H17.615z"/>
</svg>
