<svg xmlns="http://www.w3.org/2000/svg" width="39.969" height="40" viewBox="0 0 39.969 40">
  <defs>
    <style>
      .cls-1 {
        fill: #fff;
        fill-rule: evenodd;
      }
    </style>
  </defs>
  <path id="uk_a_22_mk_1_churchill_1941_ico" class="cls-1" d="M17.628,15.229h0.085v1.25h0.043a0.133,0.133,0,0,0,.043-0.1,1.576,1.576,0,0,0,.406-0.083,0.36,0.36,0,0,1,.214-0.4,0.19,0.19,0,0,1,.107-0.021,1.154,1.154,0,0,0,.791.1,0.531,0.531,0,0,0,.235.021v0.083l-0.406.021v0.021a0.1,0.1,0,0,1,.085.1h0.705a2.014,2.014,0,0,1,0-.292h0.107a0.866,0.866,0,0,0,.064.167,0.111,0.111,0,0,1,.064-0.021V16.25c0.259-.006.565-0.02,0.855-0.021a0.149,0.149,0,0,1,.107-0.1V16.1H20.962a0.467,0.467,0,0,0-.214-0.021V16l0.94-.021a0.161,0.161,0,0,1,.171-0.1l0.171,0.146L22.051,16.1l0.128,0.021v0.188H22.2a0.337,0.337,0,0,0,.192.042,0.4,0.4,0,0,1,0-.125,1.5,1.5,0,0,1,.491-0.083,6.622,6.622,0,0,1,1.261-.125v0.021H24.1a0.262,0.262,0,0,0-.085.208,0.138,0.138,0,0,0-.021.083H23.91v0.146a4.515,4.515,0,0,0,.662.167,0.623,0.623,0,0,0,.021.146H24.68c0.067,0.034.427-.092,0.6-0.062a0.133,0.133,0,0,0,.021.083,1.534,1.534,0,0,1,.876.1h0.342a0.982,0.982,0,0,0,.577.708,1.638,1.638,0,0,1,.385.958c0.375,0,.811.02,1.218,0.021v0.063c1.92,0,3.827.02,5.705,0.021v0.354c-1.183,0-2.453.021-3.654,0.021H28.91a8.154,8.154,0,0,1-1.5.083,0.06,0.06,0,0,1-.021.021,2.761,2.761,0,0,1-.256.583v0.458a2.356,2.356,0,0,0-.321.021l-0.021.208h-0.32a1.271,1.271,0,0,0,.021.271h0.6V20.667a0.106,0.106,0,0,1-.021-0.062,0.47,0.47,0,0,1,.3-0.062,1.04,1.04,0,0,1,.385-0.021H28.7a0.133,0.133,0,0,1,.021-0.083v0.083h0.064V20.313l0.385-.021v0.229a3.059,3.059,0,0,0,1.132-.083,0.326,0.326,0,0,0,.043.125,0.493,0.493,0,0,1,.171-0.125,0.559,0.559,0,0,0,.064.229H30.6V20.646a0.4,0.4,0,0,0,.043-0.271c-0.243-.009-0.538-0.02-0.812-0.021V20.292c0.25-.01.552-0.02,0.833-0.021V20.208h0.171v0.063a6.691,6.691,0,0,0,.705-0.021v0.021a0.1,0.1,0,0,0-.043.1H31.41v0.167a2.579,2.579,0,0,0,.385.167,0.735,0.735,0,0,0,.385-0.042,0.85,0.85,0,0,1,.363.042c0.133,0.024.166-.074,0.32-0.042a6.526,6.526,0,0,0,1.154.042h2.521a2.9,2.9,0,0,0,.876.25l0.021-.042a0.391,0.391,0,0,0,.064-0.229,1.242,1.242,0,0,1,.406.042,0.318,0.318,0,0,1,.021.1c-0.022.038,0.027,0.055,0.021,0.063-0.022.03-.026-0.014-0.043,0.042a0.3,0.3,0,0,1,.086.1,4.229,4.229,0,0,0,.62.208,0.4,0.4,0,0,1,.171-0.187v0.021a0.55,0.55,0,0,1,.278.271,0.173,0.173,0,0,0-.043.25,1.637,1.637,0,0,0,.47.438,1.57,1.57,0,0,1,.192-0.062v0.042a0.741,0.741,0,0,1,.107.354c-0.1.018-.141,0.03-0.149,0.146a1.482,1.482,0,0,0,.128.646L40,23.188v0.021a0.984,0.984,0,0,0-.086.4,0.37,0.37,0,0,0-.171.021,6.414,6.414,0,0,1-.342.625c0.048,0.089.133,0.119,0.171,0.208a1.186,1.186,0,0,0-.235.313,0.325,0.325,0,0,0-.192-0.062,1.661,1.661,0,0,0-.47.438,0.5,0.5,0,0,1,.128.188H38.782c-0.246.264-.17,0.089-0.534,0.083a1.291,1.291,0,0,1-.385.333,0.547,0.547,0,0,1,.107.229,1.623,1.623,0,0,1-.3.188,0.184,0.184,0,0,0-.256-0.083l-0.449.313a0.828,0.828,0,0,1,.085.25,1.149,1.149,0,0,0-.256.188H36.752a0.211,0.211,0,0,0-.064-0.1,0.549,0.549,0,0,0-.192.021l-0.427.313a0.985,0.985,0,0,0,.064.25,1.149,1.149,0,0,0-.256.188H35.833c-0.03-.108-0.092-0.111-0.235-0.1a1.078,1.078,0,0,0-.427.4,0.3,0.3,0,0,1,.021.167,0.959,0.959,0,0,1-.321.063c-0.067-.079-0.034-0.116-0.15-0.125a0.941,0.941,0,0,0-.577.125,0.64,0.64,0,0,1-.064.25,0.707,0.707,0,0,1-.278.083,0.163,0.163,0,0,0-.15-0.146,0.986,0.986,0,0,0-.577.125,0.379,0.379,0,0,0-.021.25l-0.342.1c0-.111-0.017-0.155-0.128-0.167a1.053,1.053,0,0,0-.577.125,1.228,1.228,0,0,0-.043.25,0.635,0.635,0,0,1-.363.063,0.062,0.062,0,0,0-.021-0.021c0-.092.007-0.1-0.043-0.125a1.207,1.207,0,0,0-.705-0.083l-0.043.25H30.449V28.854a0.813,0.813,0,0,1-.192-0.146,2.053,2.053,0,0,1-.534.021,0.061,0.061,0,0,1-.021.021,0.38,0.38,0,0,1-.043.208,0.858,0.858,0,0,1-.342.021,0.218,0.218,0,0,0-.043-0.167,1.221,1.221,0,0,0-.684-0.083,0.372,0.372,0,0,0-.021.125,0.22,0.22,0,0,0-.021.125H28.184V28.854a0.709,0.709,0,0,1-.171-0.125H27.457a0.062,0.062,0,0,1-.021.021l-0.043.229H27.051V28.854c-0.039-.014-0.1-0.1-0.171-0.125H26.325a0.06,0.06,0,0,1-.021.021c-0.007.1-.033,0.128-0.043,0.229H25.919a0.693,0.693,0,0,0-.021-0.167,0.936,0.936,0,0,1-.149-0.083H25.192a0.374,0.374,0,0,0-.021.125,0.221,0.221,0,0,0-.021.125H24.786a0.7,0.7,0,0,0-.021-0.167,0.933,0.933,0,0,1-.15-0.083H24.06a0.438,0.438,0,0,0-.021.146,0.177,0.177,0,0,0-.021.1H23.654V28.833a1.424,1.424,0,0,0-.705-0.1l-0.021.063a0.385,0.385,0,0,0-.043.188H22.543a0.624,0.624,0,0,0-.021-0.146,1.425,1.425,0,0,0-.705-0.1,0.061,0.061,0,0,1-.021.021c-0.007.1-.033,0.128-0.043,0.229H21.41a0.618,0.618,0,0,0-.021-0.146,0.644,0.644,0,0,0-.385-0.1,0.86,0.86,0,0,1-.342.021c-0.007.1-.033,0.128-0.043,0.229H20.278a0.189,0.189,0,0,0-.043-0.146,1.227,1.227,0,0,0-.705-0.083v0.042a0.4,0.4,0,0,0-.043.208H19.124c0-.219-0.067-0.142-0.171-0.271a2.14,2.14,0,0,1-.556.021L18.355,29H18.013V28.875c-0.042-.016-0.082-0.095-0.15-0.125h-0.6L17.222,29H16.88a0.218,0.218,0,0,0-.043-0.167,1.221,1.221,0,0,0-.684-0.083,0.059,0.059,0,0,1-.021.021L16.111,29H15.748a0.218,0.218,0,0,0-.043-0.167,1.173,1.173,0,0,0-.684-0.083A0.435,0.435,0,0,0,15,28.9a0.177,0.177,0,0,0-.021.1H14.615a0.218,0.218,0,0,0-.043-0.167,1.173,1.173,0,0,0-.684-0.083v0.042a0.4,0.4,0,0,0-.043.208H13.483a0.218,0.218,0,0,0-.043-0.167,1.173,1.173,0,0,0-.684-0.083,0.44,0.44,0,0,0-.021.146,0.177,0.177,0,0,0-.021.1H12.35V28.875c-0.042-.016-0.082-0.095-0.149-0.125H11.624a0.438,0.438,0,0,0-.021.146,0.177,0.177,0,0,0-.021.1H11.261a1.025,1.025,0,0,0-.171-0.292,2.636,2.636,0,0,0-.577-0.125,0.509,0.509,0,0,1-.085.208,0.764,0.764,0,0,0-.321-0.1l0.021-.125c-0.049-.019-0.076-0.12-0.15-0.167a3.132,3.132,0,0,0-.534-0.146,0.94,0.94,0,0,0-.085.208,1.513,1.513,0,0,0-.342-0.1l0.021-.125c-0.049-.019-0.076-0.12-0.15-0.167a1.89,1.89,0,0,0-.513-0.125,0.733,0.733,0,0,0-.107.188,0.735,0.735,0,0,1-.342-0.146,0.221,0.221,0,0,0,.021-0.125c-0.06-.032-0.08-0.1-0.128-0.125s-0.491-.146-0.491-0.146a0.269,0.269,0,0,1-.171.125C7.1,27.621,6.989,27.583,6.923,27.5a0.144,0.144,0,0,0,.064-0.146A1.028,1.028,0,0,0,6.5,26.9a0.463,0.463,0,0,1-.192.146c-0.067-.1-0.188-0.135-0.256-0.229a0.159,0.159,0,0,0,.085-0.083c-0.014-.02-0.038-0.171-0.064-0.229-0.155,0-.25-0.237-0.449-0.271a0.451,0.451,0,0,1-.192.125c-0.067-.1-0.188-0.135-0.256-0.229a0.091,0.091,0,0,0,.085-0.083,0.8,0.8,0,0,1-.021-0.187,2.36,2.36,0,0,0-.47-0.312,0.477,0.477,0,0,1-.214.125,1.113,1.113,0,0,1-.235-0.229A0.209,0.209,0,0,0,4.4,25.292a1.256,1.256,0,0,0-.385-0.458,0.677,0.677,0,0,0-.278,0,0.508,0.508,0,0,1-.214-0.312C3.457,24.48,3.375,24.5,3.312,24.458c-0.246-.16-0.425-0.451-0.662-0.625a1.21,1.21,0,0,1-.321-0.271c-0.084-.146.049-0.413-0.021-0.583l-0.064-.042a0.207,0.207,0,0,1,.043-0.187c-0.114-.044-0.116-0.09-0.107-0.25H2.265a0.1,0.1,0,0,0-.021-0.062,1.946,1.946,0,0,0-.47-0.187,1.38,1.38,0,0,0-.128.083l-0.064-.021a0.534,0.534,0,0,1-.043.229v0.021H1.517c-0.013-.1-0.048-0.133-0.064-0.229A1.274,1.274,0,0,1,.192,21.9a1.314,1.314,0,0,1-.021-1.271,2.33,2.33,0,0,1,.3-0.271l0.043-.125A0.762,0.762,0,0,1,.9,20.167c0.136-.028.314,0,0.449-0.021A1.143,1.143,0,0,1,1.774,20.1a2.782,2.782,0,0,1,.726.354,1.4,1.4,0,0,0,.449.313,0.212,0.212,0,0,1,.043-0.146A0.136,0.136,0,0,0,3.077,20.5H3.355l0.021,0.063,0.641-.021V20.5A0.1,0.1,0,0,1,4,20.438c0.052-.019.034-0.022,0.085-0.042a0.113,0.113,0,0,0,.107,0c0,0.106-.028.108,0.064,0.146A6.761,6.761,0,0,1,5.214,20.5a1.88,1.88,0,0,1,.342-0.167,0.259,0.259,0,0,1-.021.083,0.561,0.561,0,0,0,.235.042c0.06-.035.179,0.013,0.256-0.021l0.085-.1a0.64,0.64,0,0,1,.256-0.062c-0.005.086-.04,0.094,0.021,0.125a0.689,0.689,0,0,0,.427-0.125,0.987,0.987,0,0,1,.449.042,0.993,0.993,0,0,0,.256-0.042v0.063H7.5c-0.021.021,0.021,0.021,0.021,0.021a0.225,0.225,0,0,0,.3,0,0.522,0.522,0,0,1-.3-0.417H8.184c0.164,0.253.714-.066,0.94-0.042a1.2,1.2,0,0,1,.385.083l0.043,0.063A1.047,1.047,0,0,0,10.021,20l1.218-.1a0.9,0.9,0,0,1,.256-0.083v-0.1h1.026V19.6a0.307,0.307,0,0,1,.085-0.021,0.372,0.372,0,0,1,.021.125h2.244V19.6a0.074,0.074,0,0,0,.043-0.021,0.074,0.074,0,0,1,.043.021c0.054,0.03.039,0.026,0.043,0.1h0.641V20H15.321v0.021a0.849,0.849,0,0,1,.214.479,1.376,1.376,0,0,1,.278.021V20.6a4.451,4.451,0,0,1,.47,0,0.483,0.483,0,0,0,.32.1V20.625h0.62v0.083h0.192c0.028-.051-0.009-0.014.043-0.042V20.458H16.6a2.81,2.81,0,0,0-.107-0.479V19.208a0.276,0.276,0,0,1-.085-0.021v0.188c-0.687,0-1.42,0-2.073.021a2.314,2.314,0,0,1-.021-0.6v-1.25a0.443,0.443,0,0,1-.064-0.292H14.188A0.352,0.352,0,0,1,14.124,17a0.506,0.506,0,0,0,.15-0.333l0.064,0.021V16.75c0.675,0,1.3-.056,1.944-0.062V16.6a0.4,0.4,0,0,1,.128-0.021,2.777,2.777,0,0,1,.021.75,0.037,0.037,0,1,0,.043.042,1.3,1.3,0,0,0,.021-0.5l0.256-.021a1.862,1.862,0,0,1,.085-0.417h0.086s0.009,0.083.021,0.042V16.458a0.71,0.71,0,0,0,.15-0.354h0.064a15.713,15.713,0,0,0,.021-1.687V11.375h0.043v2.688a1.527,1.527,0,0,1,.021.563V16.1h0.064a1.746,1.746,0,0,0,.107.292h0.043V15.229h0.085V13.188a5.536,5.536,0,0,1,.021-1.042A8.724,8.724,0,0,1,17.586,11C17.585,12.371,17.626,13.857,17.628,15.229Z" transform="translate(-0.031)"/>
</svg>
