<svg xmlns="http://www.w3.org/2000/svg" width="40" height="40" viewBox="0 0 40 40">
  <defs>
    <style>
      .cls-1 {
        fill: #fff;
        fill-rule: evenodd;
      }
    </style>
  </defs>
  <path id="Color_Fill_1" data-name="Color Fill 1" class="cls-1" d="M21.307,17.576v-0.2a0.235,0.235,0,0,0,.148-0.05c0.5-.571.3-3.14,0.3-4.394H21.8v0.05a4.073,4.073,0,0,1,.049,1.414,9.294,9.294,0,0,0,.247,2.98h0.148v0.2h2.565a5.006,5.006,0,0,0,1.184,1.414,3.149,3.149,0,0,0,.345-0.252,0.561,0.561,0,0,1-.148-0.4h0.2c0.073,0.128.1,0.1,0.3,0.1a1.494,1.494,0,0,1-.1.4h0.1c0.538,0.364,1.985.111,2.811,0.1,0.2,0,.985.022,0.986,0v1.414c3.357,0,6.4.04,9.519,0.05v1.111c-3.182,0-6.216.05-9.519,0.05v0.5H30.432a0.328,0.328,0,0,0-.2-0.05,4.924,4.924,0,0,0-.049.909,6.531,6.531,0,0,1,.986,1.364,1.12,1.12,0,0,1,.247.455c-0.342.186-.93-0.009-0.937,0.707l0.444,0.152v0.05H30.876c-0.084.057-.221,0-0.345,0.05a0.761,0.761,0,0,1-.345.252,0.175,0.175,0,0,0-.049-0.1V26.01h0.049v0.05c0.286-.008.353,0,0.395,0.252a6.237,6.237,0,0,0-.395,1.667,3.087,3.087,0,0,1-1.677,1.768,6.452,6.452,0,0,1-2.269.2H10.752c-1.6,0-3.869.266-4.883-.4a3.107,3.107,0,0,1-1.381-2.879,1.679,1.679,0,0,1-.345-0.354H4.094v0.051l-0.247.152a0.729,0.729,0,0,1-.1.606A3.093,3.093,0,0,0,3.6,26.263a0.542,0.542,0,0,0,.3-0.354c-0.312-.242-0.536-0.931-0.838-1.111l-0.543-.1a1.81,1.81,0,0,0-.543-0.4,0.3,0.3,0,0,1-.1.1,4.278,4.278,0,0,0-.493-0.656,0.54,0.54,0,0,0,.148-0.1c-0.519-.342-0.612-1.66-1.036-1.717-0.043.071,0.039,0.125-.1,0.1V21.97H0.345v-0.05a0.3,0.3,0,0,0,.1-0.1A0.513,0.513,0,0,1,.2,21.465H0.148v0.1a1,1,0,0,1,.1.4h-0.1v0.05H0.1V21.465c-0.065-.148.1-0.475,0.049-0.606A1.842,1.842,0,0,1,0,20.505c0.13-.038.118-0.06,0.247-0.1a0.387,0.387,0,0,0,.444.354,1.6,1.6,0,0,1,.691-0.05V20.96H1.332a0.919,0.919,0,0,0-.247-0.151V20.96a0.991,0.991,0,0,1,.148.657,1,1,0,0,0-.2.4,7.806,7.806,0,0,0,.69,1.414,0.3,0.3,0,0,0,.247-0.2H1.578v-0.05a11.208,11.208,0,0,1-.049-2.525,0.92,0.92,0,0,0,.444-0.4c-0.122-.065-0.034.022-0.1-0.1,0.12-.046.078-0.054,0.2-0.1,0,0,.328-0.074.444-0.1a0.4,0.4,0,0,0,0,.253h0.1L2.565,20l0.1,0.05V20c0.032,0.043.066,0.159,0.1,0.2a2.81,2.81,0,0,0-.148-1.061,1.13,1.13,0,0,1,.543-0.05,0.727,0.727,0,0,1-.049-0.2,2.416,2.416,0,0,1-.986.1H2.269l-0.049-.454a0.54,0.54,0,0,1-.148-0.1c0.906,0,1.293-.307,2.219-0.354v0.05c-0.185.113-.033,0.413,0.049,0.556H4a1,1,0,0,1-.543.1V19.04h0.1a6.089,6.089,0,0,1,1.184-.253,1.646,1.646,0,0,0,.3,1.01c0.09-.07.033,0.07,0.148,0l0.049-.151c0.09-.028.076,0.042,0.1,0.05a5.083,5.083,0,0,0,.937.05,1.27,1.27,0,0,0,.592.05,1.124,1.124,0,0,1,.691-0.354c0.159,0.25.208,0.094,0.395,0.2-0.082.075-.05,0.037-0.049,0.1a1.031,1.031,0,0,0,.493.05c-0.02-.114-0.045-0.055,0-0.151a0.945,0.945,0,0,0,.543.151,1.086,1.086,0,0,1,1.529-.4,1.288,1.288,0,0,0,.444.4,0.617,0.617,0,0,1,.543,0,0.612,0.612,0,0,1,.592-0.455c0.032-.543.315-0.939,0.395-1.465h3.453l0.1-.455c0.189-.333.389-0.014,0.395-0.707a0.184,0.184,0,0,1-.049-0.1h0.049a0.306,0.306,0,0,0,.1.1v-0.2a0.347,0.347,0,0,1-.049-0.2h-0.3c0.02,0.115.045,0.055,0,.152v-0.05a0.364,0.364,0,0,1-.1-0.2,0.88,0.88,0,0,0,.444-0.05,5,5,0,0,0,.049-1.717V10.051A0.141,0.141,0,0,0,16.572,10h0.049v6.162h0.049v0.05a0.426,0.426,0,0,1,.444.1,0.626,0.626,0,0,0-.345.051,0.884,0.884,0,0,0-.1.3h0.1a0.3,0.3,0,0,1,.1-0.1v0.1a1.7,1.7,0,0,0-.148.859h0.1a5.146,5.146,0,0,0,1.282.05h3.206Zm-4.932-.3a0.432,0.432,0,0,0,.049.253A0.432,0.432,0,0,0,16.375,17.273ZM4.587,17.98a0.313,0.313,0,0,1,.2.05A0.313,0.313,0,0,1,4.587,17.98Zm20.617,0a0.2,0.2,0,0,1,.1.151H25.253v-0.05A0.183,0.183,0,0,1,25.2,17.98Zm-20.912.05a0.51,0.51,0,0,1,.3.05A0.51,0.51,0,0,1,4.291,18.03Zm-2.515.454a0.51,0.51,0,0,1,.3.051A0.51,0.51,0,0,1,1.776,18.485Zm-0.247.051a0.4,0.4,0,0,1,.247.05h-0.2a0.332,0.332,0,0,1-.049.2V18.535Zm3.107,0a0.4,0.4,0,0,1,.247.05A0.406,0.406,0,0,1,4.636,18.535Zm-0.3.05a0.4,0.4,0,0,1,.247.05A0.406,0.406,0,0,1,4.34,18.586Zm-2.762.253a0.15,0.15,0,0,1,0,.2v-0.2Zm0.247,0.2a0.4,0.4,0,0,1,.247.05A0.4,0.4,0,0,1,1.825,19.04Zm-0.2.05a0.313,0.313,0,0,1,.2.05H1.677a0.332,0.332,0,0,1-.049.2V19.091Zm0.838,0.1h0.1v0.05A0.167,0.167,0,0,1,2.466,19.192Zm-0.2.05a0.235,0.235,0,0,1,.148.05A0.235,0.235,0,0,1,2.269,19.242Zm-0.148.05h0.1v0.05A0.167,0.167,0,0,1,2.121,19.293Zm-0.2.05a0.236,0.236,0,0,1,.148.05A0.234,0.234,0,0,1,1.924,19.343Zm-0.247.05h0.1v0.051A0.167,0.167,0,0,1,1.677,19.394Zm-0.74,1.364a0.385,0.385,0,0,0-.148.151,0.612,0.612,0,0,1,.2.05A0.332,0.332,0,0,0,.937,20.758Zm-0.444.05a0.191,0.191,0,0,0,.148.1v-0.05H0.691v-0.05h-0.2Zm-0.3.2a1.571,1.571,0,0,1-.049.354H0.2V21.313a0.533,0.533,0,0,0,.1-0.3H0.2Zm29.544,1.111v0.1l0.247,0.05v-0.1ZM2.072,23.333a0.57,0.57,0,0,1-.148.1v0.1a1.1,1.1,0,0,0,.3.2v-0.05a0.184,0.184,0,0,0,.049-0.1C2.194,23.511,2.147,23.408,2.072,23.333Zm-0.641.505a0.2,0.2,0,0,1,.1.151H1.48v-0.05A0.184,0.184,0,0,1,1.43,23.838ZM30.185,25.2a0.247,0.247,0,0,0,.049.151V25.2H30.185Zm-0.049.354v0.1h0.049v-0.1H30.136Zm0.148,0.859a0.545,0.545,0,0,0,.049.3A0.544,0.544,0,0,0,30.284,26.414ZM10.6,27.222a0.83,0.83,0,0,1-.691.1l-0.1.455a0.188,0.188,0,0,1,.148.1c-0.275.039-.207,0.149-0.345,0.3,0.037,0.133.059,0.12,0.1,0.253-0.165-.011-0.118-0.109-0.2.05a0.313,0.313,0,0,0-.148.4,0.361,0.361,0,0,0-.444.3H8.977a2.735,2.735,0,0,0,1.036.05h2.614v-0.05a2.216,2.216,0,0,1-1.134-1.869A4.373,4.373,0,0,1,10.6,27.222Zm6.017,0c-0.062,1.139-.675,1.374-1.134,2.02h3.847v-0.05A2.544,2.544,0,0,1,18.3,27.929a3.69,3.69,0,0,0-.148-0.657,0.327,0.327,0,0,0-.2-0.05A7.471,7.471,0,0,1,16.622,27.222Zm7.3,0a0.929,0.929,0,0,0-.592.252c-0.163.244-.147,0.6-0.3,0.859-0.212.363-.606,0.577-0.838,0.909h3.847v-0.05a2.369,2.369,0,0,1-1.134-1.869A2.708,2.708,0,0,1,23.921,27.222Z"/>
</svg>
