<?xml version="1.0" encoding="utf-8"?>
<!-- Generator: Adobe Illustrator 16.0.0, SVG Export Plug-In . SVG Version: 6.00 Build 0)  -->
<!DOCTYPE svg PUBLIC "-//W3C//DTD SVG 1.1//EN" "http://www.w3.org/Graphics/SVG/1.1/DTD/svg11.dtd">
<svg version="1.1" id="Layer_1" xmlns="http://www.w3.org/2000/svg" xmlns:xlink="http://www.w3.org/1999/xlink" x="0px" y="0px"
	 width="40px" height="40px" viewBox="0 0 40 40" enable-background="new 0 0 40 40" xml:space="preserve">
<path id="uk_a1e1_independent_ico" fill="#FFFFFF" d="M27.654,12.091l-0.022,0.129c0.359,0.163,0.538,0.571,0.414,0.945h0.3
	c0.064-0.036,0.1,0.033,0.174,0c0.012-0.023,0.027-0.045,0.045-0.064c0.082-0.023,0.078,0.056,0.131,0.064
	c0.152-0.009,0.305-0.009,0.457,0c0.084,0.027,0.173,0.034,0.261,0.022c0.01,0,0.05-0.06,0.065-0.065
	c0.047-0.015,0.07,0.076,0.131,0.065c0.02-0.023,0.042-0.044,0.064-0.065H29.7v0.022c0.077,0.034,0.157,0.063,0.239,0.086
	c0.183,0.048,0.842,0.04,0.871,0.064c0.041,0.021,0.078,0.05,0.108,0.086c0.231-0.051,0.091,0.015,0.239,0.064l0.218-0.022
	c0.024,0.031,0.039,0.068,0.044,0.107c0.062,0.01,0.121,0.032,0.174,0.063h0.437V13.7c0.2-0.025,0.403,0.028,0.565,0.15
	c0.014,0.018,0.021,0.041,0.022,0.064h1.2l0.457-0.021c0.144,0.116,0.316,0.19,0.5,0.215v0.066c0.023,0,0.046,0.007,0.064,0.021
	c0.017,0.025,0.023,0.056,0.021,0.086c-0.008,0.005-0.016,0.013-0.021,0.021h-0.066v0.064c-0.183,0.023-0.355,0.098-0.5,0.215
	l-0.435-0.021h-1.155v0.043h0.349c0.2,0.043,0.407,0.05,0.61,0.021H33.9c0.016,0.005,0.055,0.06,0.064,0.064H34.8
	c0.507,0.054,1.017,0.061,1.524,0.021c1,0,2.058,0.007,3.027,0.021v0.322l-5.379,0.021c-0.025,0.032-0.055,0.061-0.087,0.086h-1.137
	c-0.011,0.072-0.025,0.144-0.044,0.215c0.807-0.112,1.627-0.068,2.417,0.129c-0.009,0.102,0.066,0.191,0.168,0.201
	c0.024,0.002,0.048,0,0.071-0.007c0,0,0.252,0.089,0.326,0.106c0.052-0.002,0.103-0.009,0.152-0.021
	c0.025,0.018,0.047,0.04,0.065,0.064c0.075,0.039,0.177,0,0.239,0.043c0.028,0.044,0.039,0.134,0.064,0.172
	c0.152-0.018,0.307-0.011,0.457,0.021v0.215c0.143-0.013,0.27,0.092,0.283,0.235c0.001,0.015,0.001,0.029,0,0.044h1.415
	c0.059,0.116,0.171,0.196,0.3,0.215c0.026,0.136,0.02,0.276-0.021,0.408c-0.111-0.045-0.23-0.06-0.349-0.043v0.063h-1.351v0.15
	c-0.064,0.022-0.124,0.059-0.174,0.107h-0.101v0.344h-0.479c-0.001,0.023,0.007,0.046,0.021,0.063
	c0.085-0.03,0.048,0.037,0.109,0.064c0.102,0.016,0.206,0.001,0.3-0.043c0.06,0.005,0.118,0.02,0.174,0.043v0.107
	c0.312-0.035,0.625-0.035,0.937,0c0.166,0.02,0.335,0.013,0.5-0.021c0.205-0.021,0.412,0.001,0.609,0.064
	c0.037,0.058,0.059,0.125,0.065,0.193c-0.101,0.266-0.181,0.539-0.24,0.816c1.071,0.419,1.6,1.627,1.18,2.7
	c-0.021,0.053-0.044,0.105-0.069,0.156c-0.398,0.574-0.929,1.045-1.545,1.374c-0.631,0.445-1.23,0.929-1.866,1.378
	c-0.257,0.226-0.534,0.426-0.827,0.6c-0.743,0.188-1.501,0.311-2.266,0.365c-2.164,0.297-4.352,0.383-6.531,0.258H13.217
	c-0.414,0.025-0.83,0.011-1.241-0.043c-0.254-0.055-0.514-0.015-0.74-0.063c-0.337-0.073-0.69-0.019-1-0.086l-1.72-0.129
	c-0.874-0.208-1.7-0.484-2.526-0.752c-0.826-0.269-1.627-0.474-2.417-0.73c-0.282-0.092-0.542-0.12-0.806-0.235
	c-0.467-0.22-0.865-0.561-1.154-0.988C1.377,22.49,1.237,22.021,1.2,21.539l0.044-0.494H1.219v-0.021
	C0.663,20.978,0.187,20.609,0,20.084c0.416-0.247,0.82-0.477,1.2-0.751c0.152-0.121,0.291-0.258,0.414-0.408
	c0.012-0.019-0.042-0.05,0-0.086c0.041-0.02,0.086-0.027,0.131-0.021c0.075-0.063,0.143-0.135,0.2-0.215
	c0.087-0.067,0.168,0.008,0.218-0.129c-0.063-0.112-0.089-0.242-0.073-0.37c-0.139-0.074-0.14-0.166-0.131-0.386
	c0.079-0.023,0.159-0.038,0.241-0.044v-0.043c0.015-0.022,0.028-0.086,0.044-0.107c0.033-0.018,0.071-0.025,0.109-0.021
	c0.131,0.082,0.243,0.192,0.327,0.322c0.013,0.13,0.058,0.256,0.131,0.365c0.343-0.115,0.706-0.159,1.067-0.129v-0.043
	c0.076-0.014,0.153,0.001,0.218,0.043l0.392-0.021c0.193,0.046,0.393,0.054,0.588,0.021c0.139-0.06,0.482,0.056,0.74,0
	c0.16-0.013,0.32-0.013,0.479,0h1.13c0.019-0.026,0.034-0.055,0.044-0.086c-0.049,0.016-0.103,0.016-0.152,0
	c-0.004-0.087-0.019-0.174-0.044-0.258c-0.533-0.036-1.152-0.021-1.72-0.021v-0.43c0.568,0,1.188,0.016,1.72-0.021
	c0.024-0.085,0.039-0.173,0.043-0.261H7.36c0.108-0.016,0.219-0.016,0.327,0h0.87v-0.43l0.218-0.021v-0.061l0.283-0.064v0.086H9.08
	c0.158-0.025,0.318-0.04,0.479-0.043c0.027-0.024,0.056-0.047,0.087-0.067c0.054,0,0.106,0.015,0.152,0.043
	c0.133-0.017,0.264-0.045,0.392-0.086c0.184-0.048,0.361,0.052,0.566,0c0.036-0.009,0.12-0.057,0.152-0.064
	c0.152,0.014,0.305,0.014,0.457,0l0.043-0.064l0.2,0.021c0.065-0.039-0.029-0.064,0.109-0.086l0.022,0.107h0.041v-0.041l0.2,0.043
	c0.1,0,0.062-0.047,0.109-0.064c0.075-0.004,0.15,0.01,0.218,0.043v-0.065l0.174-0.021v0.064c0.158-0.031,0.318-0.045,0.479-0.043
	v-0.064l0.17-0.023c0.036,0.035,0.082,0.057,0.131,0.064c0.12-0.037,0.245-0.051,0.37-0.043c0-0.09,0.038-0.07,0.174-0.064
	c0.165,0.029,0.334,0.029,0.5,0v-0.063c0.192,0.045,0.392,0.053,0.588,0.021c0.097-0.063,0.211-0.094,0.327-0.086
	c0.022-0.114,0.124-0.196,0.24-0.193c0.168-0.034,0.342,0.023,0.457,0.15c0.009-0.077-0.01-0.054,0.044-0.086v-0.021h0.022
	L16,15.871c0.237,0.009,0.472,0.045,0.7,0.107l0.022-0.129h0.131c0.195,0.023,0.385,0.074,0.566,0.15
	c-0.018,0.033-0.025,0.07-0.022,0.107h0.044c0.127,0.036,0.261,0.043,0.392,0.022c0.079-0.131-0.006-0.235,0.218-0.236
	c0.176,0.061,0.359,0.097,0.544,0.107c0.017,0.056,0.024,0.114,0.022,0.172c-0.018,0.033-0.026,0.07-0.022,0.107
	c0.051,0.001,0.102,0.008,0.152,0.021v0.065l0.241,0.02l0.022-0.172c0.081-0.016,0.161-0.037,0.239-0.064
	c0.131-0.072-0.031-0.126,0.261-0.129c0.267-0.041,0.538-0.048,0.806-0.021c0.033-0.184,0.04-0.372,0.022-0.558
	c0.049-0.015,0.101-0.022,0.152-0.021c0.033,0.191,0.041,0.387,0.021,0.58h0.219v-0.15c0.064-0.022,0.125-0.059,0.174-0.107h0.109
	c0.023-0.129,0.084-0.248,0.174-0.344c-0.038-0.033-0.062-0.079-0.065-0.129c0.212-0.101,0.37-0.289,0.435-0.515
	c-0.061-0.029-0.054-0.03-0.064-0.107c0.031-0.023,0.068-0.038,0.107-0.043c0.15,0.092,0.336,0.108,0.5,0.043
	c0.26,0.033,0.522,0.048,0.784,0.043c0.084-0.059,0.182-0.096,0.283-0.107v0.064c0.052,0.009,0.103,0.024,0.151,0.043v-0.043
	c0.205-0.026,0.412-0.011,0.611,0.043c0.088,0,0.176-0.014,0.26-0.043c0.129,0.03,0.261,0.044,0.393,0.043
	c0.148-0.351,0.371-0.667,0.652-0.923c-0.046-0.378-0.046-0.76,0-1.138c0.07-0.207,0.375-0.319,0.414-0.472
	c-0.014-0.019-0.021-0.041-0.021-0.064c0.293,0.009,0.586-0.02,0.871-0.086c0.287-0.018,0.575,0.019,0.85,0.107
	C27.4,12.12,27.566,12.092,27.654,12.091z"/>
</svg>
