<?xml version="1.0" encoding="utf-8"?>
<!-- Generator: Adobe Illustrator 16.0.0, SVG Export Plug-In . SVG Version: 6.00 Build 0)  -->
<!DOCTYPE svg PUBLIC "-//W3C//DTD SVG 1.1//EN" "http://www.w3.org/Graphics/SVG/1.1/DTD/svg11.dtd">
<svg version="1.1" id="Layer_1" xmlns="http://www.w3.org/2000/svg" xmlns:xlink="http://www.w3.org/1999/xlink" x="0px" y="0px"
	 width="40px" height="40px" viewBox="0 0 40 40" enable-background="new 0 0 40 40" xml:space="preserve">
<path id="uk_a27m_cromwell_1_ico" fill="#FFFFFF" d="M19.247,12.372c0.005-0.066,0.005-0.134,0-0.2h0.128
	c-0.003,0.035-0.012,0.068-0.026,0.1h0.281c0.293-0.043,0.593-0.009,0.868,0.1h-0.434V12.4c0.061,0.012,0.103,0.066,0.1,0.128
	c0.084,0.05,0.184,0.069,0.281,0.051c0.02-0.008,0.017-0.082,0.1-0.051c0.058,0.031,0.117,0.057,0.18,0.077
	c0-0.1-0.015-0.14,0.051-0.179V12.6h0.076c-0.003-0.036,0.006-0.07,0.025-0.1c0.021,0.083-0.012,0.039,0.051,0.077
	c0.166-0.05,0.34-0.067,0.512-0.051c0.012-0.062,0.048-0.116,0.1-0.153h-0.403v-0.052c0.374-0.038,0.748-0.055,1.123-0.051v-0.1
	h0.128c-0.005,0.066-0.005,0.134,0,0.2h0.077c0.13,0.206,0.106,0.243,0.459,0.23c0.03-0.019,0.065-0.028,0.101-0.026v-0.1h0.152
	c-0.005-0.086-0.055-0.061,0.026-0.1c0.048-0.031,0.099-0.057,0.153-0.077c-0.02,0.208,0.133,0.393,0.34,0.412
	c0.031,0.003,0.063,0.002,0.094-0.003c0.125,0.031,0.258,0.031,0.383,0c0-0.184-0.025-0.109-0.025-0.307
	c0.01-0.006,0.02-0.015,0.025-0.026c0.396,0.073,0.801,0.082,1.2,0.026v0.051c-0.021,0.013-0.038,0.03-0.052,0.051H25.6
	c0.125-0.035,0.256-0.043,0.383-0.025v0.051c-0.07,0.036-0.132,0.088-0.178,0.153c0.244,0.012,0.486,0.063,0.715,0.153
	c0.027,0.038,0.045,0.082,0.051,0.128h0.152c0.045,0.114,0.041,0.2,0.2,0.2c0.166,0.049,0.338,0.075,0.511,0.077
	c0.392,0.092,0.873,0.125,1.301,0.179v-1.172H28.9c0,0.469-0.023,0.945-0.026,1.38c-0.158,0-0.174,0.044-0.332,0.051V13.8
	c0.126,0.114,0.237,0.242,0.332,0.383c-0.027,0.083-0.027,0.173,0,0.256c-0.053,0.08-0.096,0.166-0.128,0.255
	c0.05,0.037,0.082,0.155,0.128,0.179l0.533,0.027c0.024-0.087,0.01-0.079,0.1-0.1c0.019,0.065,0.027,0.133,0.025,0.2
	c0.513,0,0.899-0.023,1.379-0.025v0.23c-0.472,0-0.868-0.024-1.379-0.025v0.13c1.086,0.074,2.291,0.026,3.421,0.026h6.126v-0.1H40
	V16h-0.919v-0.1h-9.394c-0.285,0.063-0.576,0.097-0.869,0.1c-0.061,0.128-0.158,0.235-0.28,0.307v1.073
	c-0.196-0.019-0.394-0.01-0.587,0.026v0.025h1.123c0.143-0.068,0.305-0.087,0.459-0.051c0.205,0.071,0.424,0.089,0.638,0.051V17.38
	c0.29-0.011,0.581,0.006,0.868,0.052v-0.101c0.083-0.021,0.039,0.013,0.077-0.051c0.005-0.102,0.039-0.2,0.1-0.281
	c0.106-0.033,0.208-0.076,0.306-0.128c0.195-0.035,0.396-0.025,0.588,0.025l0.306-0.076v0.076c-0.071,0.039-0.126,0.104-0.153,0.18
	c0.205,0.029,0.389,0.141,0.512,0.307c0.047,0.057,0.074,0.127,0.076,0.2h0.131c0.07,0.082,0.147,0.159,0.229,0.229
	c0.144,0.238,0.198,0.519,0.153,0.793h0.051c0.073,0.027,0.152,0.036,0.23,0.025v-0.1c0.08,0.023,0.157,0.057,0.229,0.1h1.071
	v-0.076h0.129v0.153h0.97v0.229l-0.229-0.025v0.179c-0.08,0.018-0.151,0.063-0.2,0.128c0.321,0.079,0.638,0.182,0.944,0.307
	c0.021-0.08,0.096-0.133,0.178-0.129c0.006,0.01,0.101,0.23,0.101,0.23c0.07,0.015,0.138,0.041,0.2,0.077
	c0.053,0.1-0.082,0.129,0.1,0.2l1.563,0.337c0.114,0.22,0.243,0.434,0.383,0.639c0.14,0.228,0.218,0.461,0.356,0.69
	c0.127,0.15,0.222,0.324,0.281,0.511l-0.842,0.511v0.768c-0.083,0.054-0.166,0.125-0.23,0c-0.045-0.193-0.055-0.393-0.025-0.588
	H38.57c-0.115,0.119-0.254,0.215-0.407,0.28c-0.169,0.056-0.257-0.043-0.332,0.101c0.063,0.033,0.017-0.012,0.051,0.051
	c-0.062,0.039-0.113,0.092-0.153,0.152c-0.048-0.029-0.1-0.056-0.152-0.076c-0.064,0.109-0.159,0.294-0.2,0.357
	c-0.044,0.057-0.108,0.092-0.179,0.101c-0.025-0.052-0.072-0.089-0.129-0.101c-0.096,0.162-0.215,0.309-0.356,0.435
	c-0.06-0.022-0.105-0.069-0.128-0.128h-0.029v0.025c-0.135,0.155-0.279,0.301-0.435,0.434c-0.017-0.055-0.042-0.106-0.077-0.152
	h-0.025c-0.066,0.102-0.152,0.189-0.254,0.256c-0.029,0.034,0.074,0.073-0.052,0.128c-0.034,0.034-0.08,0.053-0.128,0.052
	c-0.012-0.045-0.029-0.088-0.051-0.129h-0.051c-0.057,0.084-0.188,0.147-0.23,0.23c0.003,0.025,0.003,0.051,0,0.077
	c-0.054,0.054-0.124,0.089-0.2,0.1C35.04,24.92,35.022,24.879,35,24.839h-0.055c-0.023,0.039-0.28,0.332-0.28,0.332
	c-0.042,0.04-0.096,0.067-0.153,0.077c-0.014-0.043-0.031-0.086-0.051-0.128H34.41c-0.057,0.084-0.188,0.147-0.23,0.229
	c0.003,0.025,0.003,0.052,0,0.077c-0.046,0.05-0.111,0.077-0.18,0.073c-0.032-0.038-0.059-0.082-0.077-0.128H33.9V25.4
	c-0.111,0.092-0.214,0.194-0.307,0.306c-0.046,0.034-0.098,0.06-0.152,0.077c0.005-0.065-0.044-0.123-0.109-0.128
	c-0.006-0.001-0.013-0.001-0.02,0c-0.057,0.086-0.137,0.155-0.229,0.2c0,0.073,0.024,0.035,0,0.076
	c-0.054,0.043-0.114,0.076-0.179,0.101c-0.016-0.056-0.042-0.107-0.076-0.153H32.8v0.026c-0.1,0.06-0.157,0.146-0.255,0.2
	c0,0.073,0.025,0.035,0,0.076c-0.047,0.047-0.114,0.066-0.179,0.051c-0.032-0.038-0.059-0.081-0.077-0.127
	c-0.082,0.07-0.178,0.122-0.281,0.152c0.004,0.035,0.012,0.068,0.026,0.1l-0.2,0.026l-0.051-0.153l-0.307,0.129
	c0,0.1,0.018,0.076-0.127,0.076c-0.015,0.014-0.032,0.023-0.052,0.026c-0.001-0.056-0.01-0.11-0.028-0.162L30.913,26.4v0.076h-0.229
	v-0.155h-0.026V26.3L30.3,26.4v0.076H30.07L30.045,26.3h-0.051c-0.102,0.06-0.215,0.095-0.332,0.101v0.076h-0.23V26.3h-0.051
	c-0.169,0.106-0.362,0.168-0.563,0.179V26.3h-0.051c-0.103,0.055-0.215,0.089-0.332,0.101v0.076h-0.229
	c0.002-0.061-0.007-0.121-0.026-0.179l-0.356,0.101v0.076h-0.23c0.002-0.061-0.007-0.121-0.026-0.179l-0.356,0.101v0.076H26.98V26.3
	H26.93c-0.104,0.055-0.216,0.089-0.332,0.101v0.076h-0.229v-0.155h-0.025V26.3L25.986,26.4v0.076h-0.23v-0.155H25.73V26.3
	L25.374,26.4v0.076h-0.229v-0.155h-0.026V26.3L24.761,26.4v0.076h-0.229c-0.002-0.061-0.01-0.12-0.025-0.179h-0.052
	c-0.12,0.028-0.233,0.081-0.332,0.153c-0.072,0.031-0.152,0.04-0.229,0.025V26.3h-0.051l-0.332,0.128
	c-0.011,0.07-0.086,0.057-0.229,0.051V26.3h-0.052c-0.095,0.052-0.198,0.085-0.306,0.101v0.076h-0.255
	c0.002-0.061-0.007-0.121-0.025-0.179l-0.357,0.101v0.076h-0.23V26.3H22c-0.104,0.055-0.216,0.089-0.332,0.101v0.076h-0.23V26.3
	h-0.047c-0.104,0.055-0.216,0.089-0.332,0.101v0.076H20.83v-0.155H20.8V26.3L20.443,26.4v0.076h-0.23v-0.155h-0.022V26.3
	L19.834,26.4v0.076H19.6v-0.155h-0.021V26.3L19.222,26.4v0.076h-0.23v-0.155h-0.026V26.3L18.609,26.4v0.076h-0.255
	c0.024-0.064,0.002-0.137-0.054-0.177l-0.332,0.128c-0.011,0.069-0.063,0.057-0.2,0.051c-0.006-0.01-0.015-0.02-0.026-0.025
	c0-0.1,0.013-0.115-0.051-0.153c-0.095,0.052-0.199,0.085-0.306,0.101v0.076h-0.257V26.3h-0.051
	c-0.104,0.055-0.216,0.089-0.332,0.101v0.076h-0.23V26.3h-0.05c-0.103,0.055-0.216,0.089-0.332,0.101v0.076H15.9V26.3h-0.048
	c-0.103,0.055-0.216,0.089-0.332,0.101v0.076h-0.23v-0.155h-0.025V26.3L14.908,26.4v0.076h-0.23v-0.155h-0.026V26.3L14.295,26.4
	v0.076h-0.23v-0.155H14.04V26.3L13.683,26.4v0.076h-0.23v-0.155h-0.026V26.3L13.07,26.4v0.076h-0.256
	c0.007-0.064,0.049-0.123-0.051-0.179c-0.094,0.054-0.198,0.088-0.306,0.101v0.076h-0.23c-0.002-0.059-0.011-0.117-0.027-0.175
	h-0.049c-0.094,0.054-0.198,0.088-0.306,0.101v0.076h-0.256V26.3h-0.051c-0.104,0.055-0.216,0.089-0.332,0.101v0.076h-0.23V26.3
	h-0.051c-0.103,0.055-0.216,0.089-0.332,0.101v0.076h-0.23V26.3h-0.05c-0.103,0.055-0.216,0.089-0.332,0.101v0.076h-0.23v-0.155
	H9.726V26.3L9.369,26.4v0.076H9.138v-0.155H9.113V26.3L8.756,26.4v0.076h-0.23V26.3c-0.148,0.017-0.241,0.079-0.383,0.101v0.076
	h-0.23V26.3C7.72,26.348,7.524,26.381,7.326,26.4v-0.028c0.026-0.048,0.043-0.1,0.051-0.153H6.969c-0.063,0.1-0.122,0.037-0.255,0
	L6.74,26.04c-0.206,0.03-0.416,0.013-0.613-0.051c-0.017-0.022-0.026-0.05-0.027-0.077c0.019-0.03,0.028-0.064,0.026-0.1
	c-0.214,0.064-0.445,0.036-0.638-0.078c0.027-0.037,0.044-0.081,0.051-0.127l-0.408-0.051c0,0.027-0.009,0.055-0.026,0.076
	c-0.082-0.026-0.153-0.08-0.2-0.152c0.021-0.039,0.03-0.084,0.026-0.129c-0.216,0.037-0.438,0.011-0.638-0.076
	c0.038-0.043,0.056-0.1,0.047-0.155c-0.115,0-0.242-0.046-0.332-0.052c-0.09-0.004-0.047,0.031-0.077,0.078
	c-0.095-0.018-0.178-0.072-0.23-0.153c0.034-0.034,0.052-0.08,0.051-0.128c-0.13,0-0.256-0.044-0.357-0.051
	c-0.076-0.006-0.041,0.047-0.077,0.076l-0.23-0.1c0.026-0.047,0.044-0.1,0.051-0.153c-0.032-0.013-0.066-0.022-0.1-0.025
	c-0.104,0.026-0.216,0.009-0.306-0.052c0,0.028-0.009,0.056-0.026,0.077c-0.058-0.044-0.127-0.07-0.2-0.077l0.026-0.199H2.476
	c-0.017,0.054-0.072,0.087-0.128,0.076c-0.071-0.027-0.125-0.087-0.148-0.16c-0.062,0.022-0.041,0.026-0.1,0.051
	c-0.051-0.057-0.115-0.102-0.186-0.128c0.036-0.043,0.054-0.098,0.051-0.153v-0.025c-0.045,0.029-0.101,0.039-0.153,0.026
	C1.754,24.007,1.74,23.9,1.685,23.869l-0.1,0.025l-0.128-0.229c0.051-0.026,0.087-0.073,0.1-0.128
	c-0.064,0.01-0.129-0.01-0.179-0.051c-0.025-0.079-0.027-0.101-0.051-0.2c-0.208,0-0.669-0.025-1-0.025v-0.03
	c0.09-0.075,0.159-0.172,0.2-0.281c-0.223-0.01-0.294-0.131-0.281-0.383h-0.2V22.54h-0.02L0,22.387
	c0.085-0.057,0.126-0.144,0.2-0.199v-0.03C0.125,22.146,0.055,22.11,0,22.057c0.129-0.157,0.338-0.227,0.536-0.179v-0.053
	C0.466,21.8,0.404,21.757,0.357,21.7h0.026l0.511-0.563l0.153-0.128v-1.89c-0.023-0.075-0.023-0.155,0-0.229H1.021
	c-0.1,0.058-0.219,0.076-0.332,0.051l-0.026-0.077c-0.032-0.083-0.032-0.174,0-0.257C0.773,18.582,0.887,18.572,1,18.58
	c0.014,0.014,0.032,0.022,0.051,0.025V18.3H0.97v-0.153c0.286-0.17,0.566-0.369,0.842-0.563c0.061-0.065,0.128-0.125,0.2-0.179
	h0.924c0.03-0.019,0.065-0.028,0.1-0.026v0.026h0.027c0,0.1,0.023,0.082,0.179,0.077c0.014,0.014,0.031,0.022,0.051,0.025
	c0.034-0.121,0.1-0.111,0.255-0.1c0.077,0.045,0.167,0.063,0.255,0.051v0.051c0.248,0.032,0.5,0.015,0.74-0.051l0.511,0.025v-0.131
	l0.077-0.025c0.15-0.043,0.309-0.043,0.459,0v0.052c0.017,0.022,0.026,0.05,0.026,0.077H6c0.074-0.056,0.163-0.09,0.255-0.1
	c0.013,0.021,0.03,0.037,0.051,0.051v0.076c0.406,0.013,0.883,0.026,1.327,0.026h0.51c0.073-0.041,0.15-0.075,0.23-0.1v-0.185h0.051
	v0.179c0.083,0.017,0.161,0.052,0.23,0.1H9.19v-0.1H9.5v-0.179h0.047v0.179h0.613v0.051h0.357c0.068-0.056,0.146-0.1,0.23-0.128
	c0.04,0.043,0.066,0.096,0.077,0.152l0.664,0.026c-0.004-0.077,0.004-0.155,0.025-0.229h-0.358
	c-0.014,0.014-0.032,0.022-0.051,0.025v-0.076c0.141-0.17,0.045-0.339,0.383-0.332c0.174-0.052,0.356-0.069,0.536-0.052v-0.229
	c0.06-0.037,0.13-0.056,0.2-0.051c0.189-0.062,0.393-0.071,0.587-0.026v0.128c0.019,0.029,0.028,0.064,0.026,0.1
	c0.482-0.059,0.97-0.076,1.455-0.051c0.089,0.143,0.156,0.298,0.2,0.46h-0.528v0.332l0.536-0.026v-0.1
	c0.078-0.065,0.18-0.094,0.281-0.079c0.169,0.124,0.376,0.188,0.587,0.179c0.015-0.039,0.042-0.074,0.077-0.1
	c0.031,0.206,0.346,0.128,0.562,0.128h1.787c0.003-0.034,0.011-0.067,0.025-0.1h-1.251c-0.269-0.059-0.545-0.067-0.817-0.026
	c-0.015-0.174-0.048-0.345-0.1-0.511c-0.084-0.097-0.161-0.199-0.23-0.308c0.031-0.047,0.057-0.099,0.077-0.152
	c-0.038-0.072-0.064-0.15-0.077-0.23c0.332-0.34,0.209-1.523,0.2-2.2c-0.151-0.069-0.217-0.247-0.148-0.398
	c0.006-0.012,0.012-0.024,0.02-0.036l0.128-0.1V12.73h0.051c0.176-0.042,0.357-0.051,0.536-0.026c0.46,0,0.968-0.034,1.353-0.051
	c-0.011-0.419,0.022-0.839,0.1-1.252V5.755h0.051v4.139c0.059,0.277,0.067,0.563,0.026,0.843c0,0.716,0.078,1.269,0.077,1.941h0.026
	c0.095-0.015,0.191-0.005,0.281,0.026c0.037-0.144,0.098-0.281,0.179-0.405c0.071,0.025,0.133,0.069,0.179,0.128
	c-0.044,0.059-0.071,0.128-0.077,0.2h0.028c0.113-0.047,0.234-0.073,0.357-0.077c0.045-0.134,0.105-0.262,0.179-0.383l0.026-4.65
	V6.062c-0.026-0.187-0.018-0.378,0.025-0.562c0.009,2.239,0.017,4.479,0.026,6.719C19.088,12.295,19.162,12.35,19.247,12.372z"/>
</svg>
