<?xml version="1.0" encoding="utf-8"?>
<!-- Generator: Adobe Illustrator 16.0.0, SVG Export Plug-In . SVG Version: 6.00 Build 0)  -->
<!DOCTYPE svg PUBLIC "-//W3C//DTD SVG 1.1//EN" "http://www.w3.org/Graphics/SVG/1.1/DTD/svg11.dtd">
<svg version="1.1" id="Layer_1" xmlns="http://www.w3.org/2000/svg" xmlns:xlink="http://www.w3.org/1999/xlink" x="0px" y="0px"
	 width="39.969px" height="40px" viewBox="0 0 39.969 40" enable-background="new 0 0 39.969 40" xml:space="preserve">
<path id="Color_Fill_1" fill="#FFFFFF" d="M22.426,9.939c-0.814-0.051-1.631,0.016-2.426,0.2v0.131h0.262
	c0.537-0.479,1.033,0.08,1.835-0.066c0.439-0.013,0.872,0.102,1.246,0.332c0.189-0.023,0.369-0.092,0.525-0.2
	c0.498-0.124,1.021-0.101,1.508,0.066c0.416,0.3,0.883,0.525,1.377,0.663c0.075,0.619,0.424,1.18,0.525,1.857h-0.2
	c-0.187,0.543-0.341,1.097-0.459,1.658c0.13,0.033,0.229,0.135,0.262,0.265H26.82c-0.129,0.142-0.285,0.255-0.459,0.332
	c0.016,0.12,0.061,0.234,0.131,0.332c0.14-0.03,0.068-0.063,0.199,0.066h0.066v0.065c-0.072-0.002-0.143,0.021-0.199,0.066
	c0.049,0.079,0.071,0.172,0.065,0.266h-0.2c-0.078,0.235-0.123,0.48-0.131,0.729c0.162,0.081,0.1,0.116,0.262,0.2v-0.065
	c0.096-0.135,0.143-0.299,0.131-0.464c1.545-0.066,3.444,0,5.181,0v0.464c0.138,0.097,0.294,0.164,0.459,0.2
	c0.329-0.223,0.718-0.339,1.114-0.332c0.105,0.111,0.174,0.25,0.201,0.4c0.004,0.092-0.019,0.185-0.066,0.265H33.7
	c-0.001-0.072,0.022-0.143,0.065-0.2c-0.082,0.539-0.012,1.09,0.2,1.592v-0.068h0.066c0.084-0.271,0.106-0.685,0.2-0.928
	c0.201-0.109,0.438-0.134,0.656-0.066c0.125,0.293,0.193,0.608,0.199,0.928h0.59v-0.663c0.496-0.089,1.001-0.11,1.502-0.063v0.6
	c0.633,0.188,1.247,0.433,1.836,0.73l0.131,0.662c0.249-0.021,0.492,0.077,0.656,0.266c0.124,0.41,0.124,0.85,0,1.26
	c-0.453-0.027-0.678-0.013-0.721,0.4c-0.095,0.303-0.095,0.626,0,0.929v0.133l-0.328-0.065c-0.028,0.095-0.072,0.184-0.131,0.265
	h0.984v-0.14h0.131v0.065c0.193,0.484,0.262,1.009,0.199,1.526h-0.068V24.6c-0.473,0.01-0.661,0-1.18,0
	c-0.084,0.1-0.152,0.212-0.2,0.332c0.267,0.013,0.474,0.239,0.46,0.506c0,0.009,0,0.018-0.001,0.025
	c-0.118,0.251-0.187,0.523-0.2,0.8h-0.059v-0.073c-0.074-0.213-0.097-0.44-0.066-0.664h-0.2c0.162,2.5-2.243,2.89-3.8,3.848
	c-0.693,0.506-1.471,0.887-2.295,1.127H12.721c-0.944-0.219-1.934-0.509-2.82-0.8c-0.991-0.177-1.959-0.466-2.885-0.862
	c-0.495-0.335-0.864-0.825-1.049-1.393c0.004-0.354-0.018-0.707-0.067-1.058v0.663H5.7v-0.6H5.443c-0.084-0.1-0.152-0.211-0.2-0.332
	L5.9,25.791c-0.032-0.094-0.076-0.183-0.131-0.266c-0.058-0.043-0.128-0.065-0.2-0.065c-0.083,0.116-0.129,0.257-0.131,0.399
	c-0.145,0.018-0.289-0.031-0.393-0.133c0.03,0.27-0.135,0.521-0.393,0.601c-0.338-0.46-0.824-0.787-1.377-0.929
	c-0.306,0.148-0.65,0.195-0.984,0.134v-0.14l0.328-0.133v-0.066H2.557c-0.012-0.261-0.201-0.48-0.457-0.53
	c-0.122,0.06-0.258,0.083-0.393,0.065v-0.265l-0.59,0.066l-0.066-0.2c-0.299-1.084-0.497-2.195-0.59-3.316h0.064v-0.064l0.525-0.066
	v-0.332h0.261v-0.4l0.656-0.065L1.508,17.5C1.009,17.429,0.503,17.406,0,17.434v-0.465c1.174-0.161,2.362-0.184,3.541-0.068
	c-0.007-0.094,0.016-0.187,0.066-0.266c0.002,0.113,0.024,0.227,0.066,0.332h0.065v-0.329c-0.05-0.007-0.096-0.03-0.131-0.065
	c0.668,0,1.378,0.014,1.7,0c-0.008-0.103-0.055-0.197-0.131-0.266c0.332,0.045,0.661,0.112,0.984,0.2v0.263h0.66v0.266
	c0.658-0.022,1.217-0.094,2.033-0.066l0.787,0.066c0.5-0.061,1.007-0.061,1.508,0l1.508-0.066c1.111,0.152,2.24,0.129,3.344-0.068
	v-0.063h-0.918c-0.337-0.665-1.313-0.347-2.164-0.53c-0.741-0.085-1.488-0.085-2.229,0c-1.373,0.02-2.721-0.069-4.131-0.066
	c-0.057-0.082-0.101-0.171-0.131-0.266c0.053-0.418,0.053-0.842,0-1.26c0.058-0.043,0.128-0.066,0.2-0.066
	c-0.063-0.639-0.085-1.281-0.066-1.924c-0.142,0-0.28-0.047-0.393-0.133c-0.042-0.058-0.065-0.128-0.066-0.199
	c0.042-0.059,0.065-0.129,0.066-0.201h0.258l0.066-0.199c-0.073-0.193-0.073-0.406,0-0.6c0.05,0.006,0.096,0.03,0.131,0.066
	c0.045,0.067,0.084,0.265,0.131,0.332V11.2H6.361v-0.134c0.204-0.384,0.379-0.784,0.525-1.194C6.71,9.596,6.662,9.258,6.755,8.944
	C6.911,8.965,7.07,8.942,7.214,8.878H5.443l0.066-0.332h0.524C6.275,8.675,6.56,8.699,6.82,8.612V8.546
	C6.682,8.388,6.501,8.273,6.3,8.214c0.019-1.033,0.173-2.059,0.459-3.051l0.066-0.8c0.202-0.321,0.42-0.631,0.656-0.928
	c0.05-0.383,0.3-0.711,0.656-0.862c0.394,0.335,1.076,0.294,1.115,0.995C8.953,4.28,8.84,5.056,8.924,5.823
	c0.219,0.317,0.417,0.65,0.59,0.995C8.946,7.17,8.28,7.332,7.614,7.282v0.2h0.058C7.906,7.41,8.148,7.365,8.393,7.349
	c0.898-0.344,1.874-0.436,2.82-0.265l0.066-0.464l-0.721-0.066v-0.13c0.103-0.161,0.17-0.342,0.2-0.531h0.131
	c0.315,0.362,0.721,0.131,0.721,0.862c-0.067,0.168-0.09,0.352-0.066,0.531l-0.2,0.066c-0.434,0.107-0.891,0.084-1.312-0.066
	L7.671,7.817c0.459,0.06,0.926,0.038,1.377-0.066H9.7l0.066-0.2l1.246,0.066v0.066c-0.082,0.258-0.104,0.532-0.066,0.8h-0.59
	L10.29,8.815c-0.096,0.054-0.185,0.122-0.262,0.2c-0.5,0-0.851-0.19-1.115-0.133v0.066c0.235,0.028,0.165-0.031,0.262,0.133
	c0.034,0.387-0.035,0.776-0.2,1.128c0.105,0.04,0.216,0.063,0.328,0.066c0.538-0.126,1.094-0.148,1.639-0.066
	c0.054-0.215-0.032-0.1,0.131-0.2c0.055,0,0.057-0.032,0.262-0.066c0.129,0.413-0.012,0.349,0.656,0.332V10.2
	c-0.264,0.009-0.359,0.036-0.459-0.133c0.33-0.447,0.594-0.938,0.787-1.459C12.3,8.442,12.348,8.275,12.45,8.144h1.18
	C13.645,2.468,13.7-2.367,13.7-8.235h0.2v6.169c0.022,0.708,0.044,1.415,0.066,2.122L13.9,0.587c0.113,0.115,0.202,0.251,0.262,0.4
	c-0.268,0-0.22,0.357-0.2,0.8c-0.129,0.588-0.151,1.195-0.066,1.791c0.022,1.525,0.044,3.051,0.066,4.577h0.2
	c0.183,0.393,0.252,0.829,0.2,1.26c0.087,0.169,0.154,0.347,0.2,0.531c0.188,0.071,0.391,0.094,0.59,0.065V9.674h0.131
	c-0.005,0.186,0.04,0.369,0.131,0.531c0.188,0.071,0.391,0.094,0.59,0.066c0.464-0.645,1.021-0.2,1.508,0h1.443
	c0.1-1.662,0.19-3.9,0.2-5.9h0.59c0.168,1.275,0.19,2.566,0.066,3.847c0.144,0.563,0.167,1.151,0.066,1.724h0.066
	c0.137-0.321,0.935-0.219,1.377-0.2c0.15-0.138,0.244-0.328,0.262-0.531c-0.093-0.069-0.18,0.012-0.131-0.2l0.199-0.133
	c0.035-0.443,0.013-0.889-0.065-1.327H21.7c-0.007,0.093,0.016,0.187,0.065,0.265c0-5.542,0.063-10.614,0.066-16.316h0.131v7.628
	c0.104,0.992,0.104,1.993,0,2.985c-0.088,1.792-0.043,3.587,0.131,5.373c-0.039,0.286-0.061,0.574-0.066,0.862l0.201,0.133
	c0.112,0.345,0.112,0.716,0,1.061c0.123-0.005,0.234,0.079,0.262,0.2C22.449,9.799,22.426,9.868,22.426,9.939z M14.033,1.051
	c0.162,0.185,0.188,0.451,0.066,0.663L14.033,1.051z M14.164,1.851c0.083,0.121,0.083,0.279,0,0.4V1.851z M14.23,2.382
	c0.083,0.121,0.083,0.28,0,0.4V2.382z M14.3,2.908c0.077,0.097,0.077,0.234,0,0.332V2.908z M14.366,3.372
	c0.083,0.121,0.083,0.279,0,0.4V3.372z M14.426,3.9c0.077,0.098,0.077,0.235,0,0.332V3.9z M14.492,4.431
	c0.076,0.097,0.076,0.234,0,0.332V4.434V4.431z M14.557,4.9c0.083,0.121,0.083,0.28,0,0.4V4.9z M14.623,5.431
	c0.076,0.097,0.076,0.234,0,0.332V5.429V5.431z M14.689,5.962c0.077,0.098,0.077,0.234,0,0.332V5.959V5.962z M14.755,6.426
	c0.077,0.098,0.077,0.235,0,0.332V6.424V6.426z M14.821,6.957c0.077,0.098,0.077,0.234,0,0.332V6.954V6.957z M14.887,7.488
	c0.076,0.097,0.076,0.234,0,0.332V7.485V7.488z M14.953,7.952c0.076,0.097,0.076,0.234,0,0.332V7.949V7.952z M21.707,8.152v0.133
	h0.066C21.766,8.232,21.74,8.184,21.7,8.148L21.707,8.152z M8.068,8.218v0.133c0.236,0.058,0.479,0.081,0.721,0.066
	c0.058-0.057,0.103-0.125,0.131-0.2H8.066L8.068,8.218z M10.232,8.55c-0.235,0.011-0.467-0.06-0.656-0.2
	C9.581,8.507,9.559,8.664,9.51,8.814H9.377V8.745c0.108-0.073,0.16-0.205,0.131-0.332H9.443V8.347
	C9.344,8.468,9.234,8.579,9.115,8.679v0.066H9.18c0.202,0.164,0.463,0.236,0.721,0.2c0.082-0.054,0.17-0.099,0.262-0.133
	c0.035-0.085,0.058-0.174,0.067-0.266L10.232,8.55z M15.019,8.484c0.077,0.098,0.077,0.235,0,0.332V8.48V8.484z M15.085,8.948
	c0.119,0.199,0.165,0.433,0.131,0.663h-0.068v-0.07c-0.07-0.19-0.093-0.396-0.066-0.597L15.085,8.948z M11.216,10.076V10.2h0.066
	v-0.063h0.066c-0.037-0.036-0.084-0.06-0.135-0.066L11.216,10.076z M14.495,10.142c0.029,0.183,0.22,0.147,0.59,0.133v-0.137h-0.59
	V10.142z M14.561,10.342c0.113,0.058,0.084,0.059,0.2,0H14.561z M23.02,10.674V10.8h0.066v-0.065h0.066
	c-0.037-0.037-0.085-0.06-0.137-0.067L23.02,10.674z M6.689,11.995c-0.001,0.072,0.022,0.143,0.066,0.2
	C6.756,12.123,6.733,12.053,6.689,11.995z M23.018,14.913v0.399h0.131c-0.066-0.133-0.04-0.294,0.065-0.399h-0.2H23.018z
	 M23.936,16.836v0.133h1.311v-0.132h-1.313L23.936,16.836z M33.182,16.969c-0.036,0.035-0.082,0.059-0.132,0.066V17.1h0.328v-0.131
	h-0.2H33.182z M32.98,17.169c-0.057,0.081-0.1,0.171-0.131,0.265h0.066c0.006-0.05,0.029-0.097,0.066-0.133
	c-0.002,0.072,0.021,0.143,0.065,0.2c0.118-0.082,0.21-0.197,0.263-0.332h-0.326H32.98z M33.639,18.1l-0.065,0.133
	C33.688,18.137,33.639,18.1,33.639,18.1z M39.082,21.35v0.131h0.066v-0.133h-0.066V21.35z M6.23,24.133
	c-0.1,0.186-0.257,0.211,0,0.266C6.284,24.318,6.284,24.213,6.23,24.133z M2.43,24.598c0.047,0.162,0.114,0.317,0.2,0.463h0.124
	v-0.399c-0.105-0.038-0.216-0.06-0.328-0.062L2.43,24.598z M5.446,24.997c-0.028,0.095-0.073,0.185-0.131,0.265h0.128
	c0.127-0.033,0.241-0.102,0.328-0.199L5.446,24.997z M5.971,25.063v0.201H6.23c0.063-0.071,0.129-0.139,0.2-0.201H6.361v-0.067
	c-0.126,0.044-0.26,0.066-0.394,0.065L5.971,25.063z M10.889,27.385h-0.856c-0.19,0.386-0.433,0.742-0.721,1.062
	c0.625,0.1,1.239,0.255,1.836,0.464v-0.135c-0.248-0.419-0.341-0.912-0.263-1.393L10.889,27.385z M15.089,27.385
	c0.062,0.725-0.176,1.443-0.656,1.99h1.836V29.24c-0.501-0.478-0.724-1.178-0.59-1.857h-0.59V27.385z M19.876,27.385
	c0.046,0.724-0.188,1.437-0.656,1.99h1.837v-0.068c-0.531-0.487-0.757-1.223-0.591-1.924h-0.59V27.385z M24.598,27.385
	c0.043,0.713-0.166,1.417-0.591,1.99h1.836v-0.068c-0.538-0.484-0.786-1.213-0.655-1.924H24.59L24.598,27.385z M29.384,27.385
	c0.056,0.725-0.181,1.441-0.655,1.99h1.836v-0.068c-0.487-0.514-0.705-1.226-0.59-1.924h-0.591V27.385z M34.105,27.385
	c0.094,0.352,0.071,0.725-0.066,1.062H34.1c0.394-0.358,1.332-0.511,1.574-0.995h-0.133c-0.471-0.116-0.961-0.14-1.441-0.068
	L34.105,27.385z M7.613,27.518H7.279v0.133h0.065c0.114,0.089,0.105,0.115,0.2,0.066c0.042-0.059,0.064-0.129,0.063-0.201
	L7.613,27.518z M8.99,27.518c0.017,0.141,0.061,0.277,0.131,0.4c0.078,0.049,0.17,0.072,0.262,0.066
	c0.071-0.098,0.117-0.213,0.131-0.332l-0.2-0.066c-0.1-0.057-0.215-0.082-0.33-0.07L8.99,27.518z M7.941,27.783
	c-0.093,0.268-0.118,0.191,0.2,0.332v-0.268L7.941,27.783z M8.531,27.783l-0.066,0.4H8.59c0.078,0.049,0.17,0.071,0.262,0.065
	l0.066-0.2c-0.116-0.109-0.248-0.2-0.393-0.268L8.531,27.783z"/>
</svg>
