<?xml version="1.0" encoding="utf-8"?>
<!-- Generator: Adobe Illustrator 16.0.0, SVG Export Plug-In . SVG Version: 6.00 Build 0)  -->
<!DOCTYPE svg PUBLIC "-//W3C//DTD SVG 1.1//EN" "http://www.w3.org/Graphics/SVG/1.1/DTD/svg11.dtd">
<svg version="1.1" id="Layer_1" xmlns="http://www.w3.org/2000/svg" xmlns:xlink="http://www.w3.org/1999/xlink" x="0px" y="0px"
	 width="40px" height="40px" viewBox="0 0 40 40" enable-background="new 0 0 40 40" xml:space="preserve">
<path id="Color_Fill_1" fill="#FFFFFF" d="M18.338,11.245c0.001,0.054-0.017,0.106-0.05,0.149c-0.077-0.042-0.165-0.059-0.252-0.05
	c0,0.426,0.007,0.672,0,1.09h0.05c0.077-0.042,0.165-0.059,0.252-0.05v0.149c0.338-0.009,0.185-0.086,0.3-0.149
	c0.103-0.017,0.208,0.001,0.3,0.05h0.1v-0.1c0,0-0.2-0.01-0.1-0.05h0.1c0.168-0.099,0.359-0.15,0.554-0.149
	c0.036,0.107,0.086,0.208,0.151,0.3c0.145-0.052,0.3-0.069,0.453-0.05v-0.149c0.058-0.021,0.109-0.055,0.151-0.1
	c0.145,0.054,0.299,0.071,0.453,0.05c0.024,0.041,0.06,0.075,0.101,0.1c-0.037,0.043-0.064,0.056-0.101,0.1
	c0.312,0.043,0.616,0.126,0.907,0.248c-0.032,0.043-0.05,0.096-0.05,0.149l0.554-0.05c0.03,0.08,0.047,0.163,0.05,0.248
	c-0.063,0.006-0.12,0.043-0.151,0.1h0.856c0.027-0.027,0.063-0.044,0.101-0.05V12.88l0.654,0.05c-0.003-0.284,0.031-0.566,0.1-0.842
	c-0.069,0.005-0.14-0.012-0.199-0.05h0.359v0.05l-0.151,0.892c0.194,0.003,0.384,0.054,0.554,0.149
	c-0.064,0.006-0.121,0.043-0.15,0.1c0.289-0.015,0.574,0.073,0.806,0.248c0.071,0.064,0,0.058-0.05,0.149
	c0.521,0.076,1.031,0.227,1.511,0.446c0.147-0.048,0.3-0.082,0.453-0.1c0.052,0.066,0.121,0.118,0.2,0.149L27,14.762h0.1
	c0.045-0.031,0.098-0.049,0.151-0.049c-0.001,0.054,0.017,0.106,0.05,0.149c0.38,0.089,0.773,0.106,1.159,0.05
	c0.738-0.047,1.479-0.047,2.217,0c1.358,0.115,2.724,0.115,4.081,0l0.453,0.05c0.313-0.093,0.633-0.159,0.957-0.2
	c0.063,0.327,0.079,0.66,0.05,0.991c-0.097,0.033-0.198,0.05-0.3,0.05c-0.818-0.234-1.674-0.302-2.52-0.2l-3.224,0.05
	c-1.025-0.042-2.052-0.008-3.073,0.1l-0.05,0.4c-0.153,0.081-0.327,0.116-0.5,0.1c0.03,0.237,0.113,0.317,0.151,0.545l3.477-0.05
	c0.043-0.062,0.076-0.129,0.1-0.2c-0.046-0.093-0.063-0.197-0.051-0.3c0.27,0.022,0.541,0.005,0.807-0.049v0.1
	c-0.046,0.093-0.063,0.197-0.051,0.3c0.447,0.099,0.904,0.133,1.36,0.1c0.429-0.101,0.871-0.135,1.311-0.1v-0.2H33.7v-0.05
	l0.252-0.05c0.036,0.425,0.218,0.316,0.756,0.3c0.194-0.057,0.398-0.074,0.601-0.05h1.258c0.431,0.183,0.908,0.218,1.36,0.1
	c0.007,0.216,0,0.1,0.151,0.248c0.057-0.021,0.109-0.056,0.15-0.1c0.247,0.289,0.535,0.54,0.856,0.743
	c0.423,0.563,0.685,1.231,0.756,1.933c0.163,0.04,0.077-0.024,0.151,0.1c-0.266,0.115-0.165,0.969-0.151,1.337h-1.655
	c-0.48,0.698-1.119,1.275-1.863,1.684c-0.646,0.599-1.375,1.101-2.166,1.486l-1.209,0.248c-2.513,0.554-5.088,0.771-7.657,0.644
	H13.048c-0.909,0.082-1.825,0.032-2.72-0.148c-0.521-0.188-1.1-0.481-1.612-0.694C8.127,23.939,7.554,23.707,7,23.432
	c-0.466-0.285-0.913-0.683-1.36-0.992c-0.81-0.559-1.73-1-2.569-1.535c-0.515-0.173-0.993-0.439-1.409-0.788
	c-0.183-0.542-0.268-1.112-0.252-1.685c-0.326,0.027-0.647,0.094-0.957,0.2C0.272,18.515,0.118,18.361,0,18.18h1.209
	c-0.038-0.08-0.071-0.164-0.1-0.248c0.047-0.059,0.081-0.127,0.1-0.199H0V17.14c0.454,0.044,0.911,0.028,1.36-0.049
	c-0.057-0.062-0.107-0.128-0.151-0.2l-0.453-0.1v-0.444c0.224-0.09,0.465-0.125,0.705-0.1c0.296,0.076,0.604,0.093,0.907,0.05v0.743
	h0.3v0.149H2.72v-0.05c0.103,0.01,0.206-0.007,0.3-0.049c0,0.023-0.024,0.152,0.05,0.1c0.031-0.066,0.084-0.12,0.151-0.149
	c-0.02,0.112-0.046,0.054,0,0.149c0.06-0.054,0.723,0.032,0.856-0.05h0.05c0.05-0.05-0.05-0.049-0.05-0.049
	c-0.073-0.126,0.011-0.056-0.151-0.1c-0.167,0.102-0.372,0.12-0.554,0.05c0.625-0.084,1.234-0.252,1.814-0.5
	c0.45-0.072,0.906-0.088,1.36-0.049c0,0.054,0.017,0.106,0.05,0.149v-0.145c0.169,0.015,0.337,0.048,0.5,0.1l0.806-0.05v-0.1
	c0.064-0.087,0.1-0.192,0.1-0.3h0.159c-0.024,0.047-0.024,0.102,0,0.149l0.5,0.1c0.034-0.077,0.086-0.146,0.151-0.2
	c0.244,0.079,0.504,0.096,0.756,0.049c0.392-0.069,1.046,0.015,1.562-0.1c0.422,0.042,0.849,0.008,1.259-0.1
	c0.141-0.02,0.051,0.031,0.1,0.1h0.6c1.075,0,1.553,0.006,2.569,0v0.3h-0.5v0.05c0.163,0.225,0.427,0.354,0.705,0.347l0.05-0.644
	c-0.018-0.042-0.157,0.01-0.1-0.149c0.011-0.032,0.084,0.011,0.1-0.248H13.3v-0.1c0.086-0.557,0.104-1.123,0.05-1.684
	c-0.048-0.083-0.117-0.152-0.2-0.2c-0.009-0.203,0.025-0.405,0.1-0.594c0.893,0.037,1.787-0.013,2.67-0.149
	c0.042,0.161-0.025,0.076,0.1,0.149c0.1-0.087,0.25-0.116,0.353-0.2c0.043-0.065,0-0.205,0.05-0.3c0.142-0.11,0.262-0.246,0.353-0.4
	c0.183-0.617-0.246-2.008,0.05-2.478v2.576c0.08,0.038,0.136,0.113,0.151,0.2c0.027-0.027,0.044-0.063,0.05-0.1
	c0.317-0.511-0.219-1.671,0.1-2.179v2.328c0.238,0.004,0.443,0.169,0.5,0.4h0.05v-0.05c0.196-0.399,0.25-0.854,0.151-1.288
	c0.026-0.132,0.042-0.266,0.05-0.4h-0.2c0.001,0.054-0.017,0.106-0.05,0.149v-0.1c-0.032-0.043-0.05-0.095-0.05-0.149h0.3
	c0.118-0.733,0.137-1.478,0.057-2.216h0.05v2.18C18.099,11.231,18.218,11.248,18.338,11.245z M18.238,11.394
	c0.027,0.027,0.045,0.062,0.05,0.1h-0.05V11.394z M17.684,11.494c0.027,0.027,0.044,0.062,0.05,0.1h-0.05V11.494z M18.184,11.494
	c0.027,0.027,0.044,0.062,0.05,0.1h-0.05V11.494z M17.731,11.594c0.027,0.027,0.044,0.063,0.05,0.1h-0.05V11.594z M22.92,12.337
	c-0.045,0.211-0.063,0.428-0.05,0.644c-0.044,0.032-0.097,0.049-0.151,0.05c-0.052-0.328,0.02-0.663,0.2-0.941
	c0.06,0.039,0.243,0.059,0.3,0.1c-0.199,0-0.227-0.025-0.3,0.1c0.12-0.016,0.242,0.001,0.353,0.05h-0.35L22.92,12.337z
	 M23.22,12.089c0.136-0.018,0.273-0.001,0.4,0.05c-0.134,0.017-0.271-0.001-0.396-0.052L23.22,12.089z M23.32,12.337
	c0.119-0.016,0.242,0.001,0.353,0.05c-0.118,0.015-0.239-0.003-0.348-0.052L23.32,12.337z M13.249,13.623
	c-0.001,0.054,0.017,0.106,0.05,0.149C13.3,13.718,13.282,13.666,13.249,13.623z M35.314,15.109v0.3c0.166,0.021,0.334,0.021,0.5,0
	c0.049-0.109,0.066-0.229,0.051-0.347L35.314,15.109z M8.915,16.298v0.1c0.187-0.017,0.373-0.05,0.554-0.1H8.917H8.915z
	 M38.186,16.598c0.006,0.07-0.012,0.141-0.051,0.2v-0.153h-0.199v-0.05h0.049v-0.05c0.064,0.026,0.133,0.043,0.201,0.05V16.598z
	 M2.417,17.098c0.057,0.051,0.143,0.051,0.2,0H2.417z M2.017,19.03v0.3h0.05c0.058-0.119,0.145-0.223,0.252-0.3h-0.3H2.017z
	 M2.168,19.277c0,0.145-0.049,0.07,0,0.149v0.05h0.05v-0.061c0.032-0.043,0.05-0.096,0.05-0.148h-0.1V19.277z M3.226,20.467
	c0.087,0.044,0.064,0.044,0.151,0H3.224H3.226z M37.382,20.967c-0.026,0.064-0.044,0.131-0.05,0.2h0.05v-0.063
	c0.027-0.027,0.045-0.063,0.05-0.101h0.051v-0.05h-0.101V20.967z M35.417,22.404h-0.151v-0.559h-0.051v0.051
	c-0.056,0.073-0.044,0.213-0.1,0.3c-0.119,0.079-0.221,0.181-0.301,0.3c0.105,0.123,0.059,0.4,0.151,0.545
	c0.435-0.588,1.937-1.2,2.218-1.783h-0.101c-0.044-0.031-0.097-0.049-0.151-0.049l-0.1,0.348c-0.09-0.108-0.215-0.18-0.354-0.201
	c-0.037,0.103-0.107,0.189-0.199,0.248c-0.017-0.15-0.149-0.26-0.301-0.248c-0.05,0.082-0.118,0.15-0.199,0.201
	c-0.02-0.228-0.03-0.301-0.252-0.348c-0.031,0.079-0.047,0.163-0.051,0.248c0.023,0.313,0.004,0.627-0.061,0.934L35.417,22.404z
	 M32.445,22.404c0.162,0.899,0.416,0.916-0.555,1.337c-0.021,0.118-0.055,0.234-0.1,0.347h0.1c0.566-0.222,1.159-0.371,1.764-0.445
	V23.58c-0.549-0.294-0.279-0.955-0.555-1.139c-0.217-0.039-0.437-0.055-0.656-0.051L32.445,22.404z M27.206,22.504
	c0.176,0.227,0.265,0.508,0.252,0.793c-0.162,0.577-0.549,0.35-0.756,0.594l-0.252,0.594h0.05c0.38-0.101,0.779-0.101,1.159,0v-0.1
	c-0.942-0.676,0.981-1.886-0.459-1.895L27.206,22.504z M29.624,22.504c0.134,0.264,0.219,0.549,0.252,0.842
	c-0.112,0.166-0.247,0.316-0.399,0.446c-0.123,0.015-0.242,0.048-0.354,0.101c-0.098,0.175-0.182,0.356-0.252,0.545h0.1
	c0.498-0.097,1.004-0.146,1.512-0.149v-0.05c-0.518-0.344-0.246-0.834,0-1.189c0-0.122-0.021-0.4,0-0.545h-0.86H29.624z
	 M31.639,22.504c-0.068,0.006-0.137,0.021-0.199,0.049c-0.002,0.103,0.016,0.204,0.05,0.301c0.077,0.15,0.201,0.271,0.353,0.347
	v-0.165c-0.111-0.162-0.182-0.35-0.205-0.545L31.639,22.504z M28.616,22.553c0.038,0.18,0.054,0.362,0.05,0.545
	c0.172,0.088,0.236,0.219,0.4,0.301v-0.166c-0.088-0.229-0.206-0.446-0.354-0.644c-0.027-0.026-0.061-0.044-0.098-0.05
	L28.616,22.553z M8.716,23.053c-0.179,0.149-0.381,0.267-0.6,0.348c0.265,0.062,0.52,0.162,0.756,0.3
	c0.584,0.243,1.148,0.399,1.713,0.644v-0.1c-0.426-0.34,0.062-0.94,0.2-1.189H9.471c-0.241,0.115-0.522,0.107-0.756-0.02
	L8.716,23.053z M11.739,23.053v0.1c0.124,0.073,0.242,0.156,0.353,0.248v-0.168c-0.034-0.037-0.066-0.109-0.1-0.148
	c-0.078-0.041-0.167-0.059-0.254-0.049L11.739,23.053z M12.898,23.053c-0.003,0.172-0.037,0.341-0.1,0.5
	c-0.422,0.17-0.752,0.513-0.907,0.941h0.05c0.513-0.124,1.049-0.124,1.562,0v-0.1c-0.52-0.39-0.046-0.928,0.05-1.338H12.9
	L12.898,23.053z M14.561,23.053c0.084,0.146,0.206,0.266,0.353,0.348v-0.168c-0.034-0.037-0.066-0.109-0.1-0.148
	c-0.078-0.041-0.167-0.059-0.255-0.049L14.561,23.053z M15.72,23.053v0.248h0.05v-0.05c0.041-0.063,0.075-0.13,0.1-0.2h-0.152
	L15.72,23.053z M16.828,23.053c0.1,0.18,0.291,0.432,0.4,0.2c-0.068-0.156-0.234-0.246-0.402-0.218L16.828,23.053z M17.987,23.053
	c0.017,0.118,0,0.238-0.05,0.348c-0.126,0.229-0.345,0.391-0.6,0.445c-0.142,0.201-0.26,0.417-0.353,0.645h0.05
	c0.363-0.098,0.745-0.098,1.108,0v-0.1c-0.5-0.326-0.117-0.981,0.05-1.338h-0.2H17.987z M19.146,23.053
	c0.108,0.143,0.244,0.26,0.4,0.348v-0.168c-0.034-0.037-0.066-0.109-0.1-0.148c-0.094-0.045-0.199-0.062-0.302-0.049L19.146,23.053z
	 M20.607,23.053H20.3c0.187,0.584-0.335,0.576-0.655,0.793l-0.3,0.645H19.4c0.38-0.102,0.779-0.102,1.159,0v-0.1
	c-0.527-0.408-0.051-0.941,0.041-1.355L20.607,23.053z M21.564,23.053c0.107,0.143,0.244,0.26,0.399,0.348v-0.168
	c-0.034-0.037-0.065-0.109-0.1-0.148c-0.095-0.045-0.199-0.062-0.302-0.049L21.564,23.053z M22.773,23.053
	c-0.004,0.172-0.037,0.341-0.101,0.5c-0.423,0.169-0.753,0.512-0.907,0.941h0.051c0.362-0.098,0.744-0.098,1.107,0v-0.1
	c-0.511-0.334-0.117-0.987,0.051-1.338h-0.201V23.053z M23.932,23.053c0.055,0.1,0.34,0.268,0.354,0.348
	c0.035-0.117,0.018-0.245-0.051-0.348h-0.299H23.932z M25.091,23.053c0.101,0.61-0.265,0.547-0.655,0.793
	c-0.142,0.201-0.26,0.417-0.353,0.645h0.05c0.38-0.102,0.779-0.102,1.159,0v-0.1c-0.573-0.264-0.108-1.009,0.05-1.338h-0.254H25.091
	z M26.3,23.053c0.054,0.1,0.341,0.268,0.353,0.348c0.036-0.117,0.018-0.245-0.049-0.348H26.3z M15.519,23.598
	c-0.176,0.115-0.361,0.216-0.554,0.301c-0.023,0.025-0.239,0.554-0.252,0.594h0.05c0.346-0.096,0.711-0.096,1.058,0v-0.1
	c-0.162-0.244-0.267-0.522-0.305-0.813L15.519,23.598z"/>
</svg>
