<svg xmlns="http://www.w3.org/2000/svg" width="40" height="40" viewBox="0 0 40 40">
  <defs>
    <style>
      .cls-1 {
        fill: #fff;
        fill-rule: evenodd;
      }
    </style>
  </defs>
  <path id="uk_a39_tortoise_ico" class="cls-1" d="M13.852,15.772h0.867V12.065h0.044v0.022a4.674,4.674,0,0,1,.022,1.105c0,0.983.025,2,.022,2.948l0.311-.022V16.27l-0.311-.022a1.458,1.458,0,0,0,.111.607c0.065-.018.093-0.043,0.133,0.022a0.229,0.229,0,0,1,.022.13h0.267a0.312,0.312,0,0,0,.133.217V17.2l0.067-.022,0.022-.325a1.331,1.331,0,0,0,.267-0.108,0.2,0.2,0,0,1,.067-0.108c0.076,0.055.133,0,.222,0.065a0.394,0.394,0,0,0,.178.13V12.087a0.063,0.063,0,0,0,.022-0.022,0.062,0.062,0,0,1,.022.022,0.947,0.947,0,0,1,.022.368v4.422a0.691,0.691,0,0,0,.245.065,0.234,0.234,0,0,1,.089-0.108,1.517,1.517,0,0,1,.6.065v0.043a0.281,0.281,0,0,1,.022.152l0.2,0.022V17.094h0.022c0-.134,0-0.165.133-0.173a2.18,2.18,0,0,0,.378.065,1.4,1.4,0,0,1,.022.325,2.161,2.161,0,0,0,.378.087,1.459,1.459,0,0,0,.022-0.238H18.61a2.807,2.807,0,0,0,.311.087v0.022c-0.093,0-.072.038-0.067,0.174a0.239,0.239,0,0,0,.111.043c0.03-.057.05-0.213,0.067-0.238a0.3,0.3,0,0,1,.156-0.022,2.724,2.724,0,0,0,.289.087v0.022c-0.106,0-.073.046-0.067,0.2h0.045a2.842,2.842,0,0,0,.311.043c0.032,0.013.077,0.094,0.111,0.108a1.548,1.548,0,0,0,.6,0,1.341,1.341,0,0,0,.378.108V17.723h0.111v0.087l0.445,0.043V17.744H21.5a0.381,0.381,0,0,0,.044.087,2.121,2.121,0,0,1,.578.043,0.187,0.187,0,0,0,.111.087H22.59c0.053,0.075.145,0.107,0.2,0.173V18.2a2.631,2.631,0,0,1,.289.412v0.022c0.027,0.127-.063.115-0.089,0.174v0.412a0.468,0.468,0,0,0,.334-0.043,0.1,0.1,0,0,1-.045-0.13h0.045V18.936h0.044V18.46a0.612,0.612,0,0,1,.267.022,0.544,0.544,0,0,1,.089.5h0.133v0.238H23.724v0.108h0.133v0.065H23.9a3.483,3.483,0,0,0,1.134.065H27.86l10.428,0.022V19.413h0.156V19.24h0.6v0.152a0.351,0.351,0,0,0,.178-0.087H40v0.26H39.867V20H40v0.26H39.244a1.4,1.4,0,0,0-.2-0.108v0.173h-0.6V20.15H38.288V20.085l-9.894.022H25.37a5.759,5.759,0,0,0-1.512.065v0.065H23.724v0.087h0.133v0.26H23.724v0.433a2.439,2.439,0,0,1,.445.108c-0.007.062-.024,0.045,0,0.087a0.9,0.9,0,0,0,.511.043l0.067,0.173a1.174,1.174,0,0,1,.334.022v0.065L25.3,21.559a0.185,0.185,0,0,1,.178-0.108c0.242-.152.323,0.2,0.423,0.26,0.108,0.045.44-.033,0.6,0a1.136,1.136,0,0,1,.178.108h0.245l0.667,0.043a3.51,3.51,0,0,1,1.023.477,0.063,0.063,0,0,1-.022.022l-0.511.542a0.706,0.706,0,0,0-.222.238,0.52,0.52,0,0,0,.267.217,0.115,0.115,0,0,1,.067-0.022c0.013,0.105.051,0.155,0.067,0.26h0.067V23.532h0.067v0.087a0.109,0.109,0,0,1,.067.022h0.022v0.065a0.57,0.57,0,0,1,.4.26c0.017,0.221-.041.321-0.044,0.564H28.9v0.585H28.861a0.224,0.224,0,0,0-.022-0.13,0.246,0.246,0,0,1-.133.022v0.108H28.66a0.507,0.507,0,0,0-.022-0.239V24.9a0.184,0.184,0,0,0-.022.108H28.483V24.854H28.3v0.152H28.149V24.854H28.082v0.152a0.98,0.98,0,0,0-.178,0,0.326,0.326,0,0,0-.133.217,0.31,0.31,0,0,1,.044.087,2.648,2.648,0,0,0-.267.2,0.251,0.251,0,0,0-.178-0.065,0.917,0.917,0,0,1-.467.217l0.022,0.152a0.625,0.625,0,0,1-.267.087,0.715,0.715,0,0,0-.6.152,0.221,0.221,0,0,1,0,.13,0.592,0.592,0,0,1-.267.108c-0.025-.073-0.025-0.072-0.111-0.087a0.937,0.937,0,0,0-.489.3,0.109,0.109,0,0,1,.022.065,1.067,1.067,0,0,0-.267.108,0.131,0.131,0,0,0-.111-0.108,1.149,1.149,0,0,1-.489.217,0.372,0.372,0,0,0,.022.152l-0.378.043V26.87a2.315,2.315,0,0,0-.6-0.022v0.13H23.1l-0.022-.13h-0.6v0.13H22.19l-0.022-.13H21.59v0.043a0.117,0.117,0,0,0,0,.087H21.3c-0.045-.2-0.386-0.14-0.622-0.13v0.043a0.117,0.117,0,0,0,0,.087H20.389l-0.022-.13H19.789v0.043a0.144,0.144,0,0,0-.022.087H19.478l-0.022-.13H18.877v0.13H18.588c-0.045-.2-0.386-0.14-0.623-0.13v0.13H17.677l-0.022-.13H17.076a0.062,0.062,0,0,1-.022.022l0.022,0.108H16.787c-0.045-.194-0.366-0.14-0.6-0.13a0.387,0.387,0,0,0-.022.13H15.876l-0.022-.13H15.275c-0.025.171-.066,0.146-0.311,0.13V26.87a2.316,2.316,0,0,0-.6-0.022,0.061,0.061,0,0,1-.022.022l0.022,0.108H14.052V26.87a2.316,2.316,0,0,0-.6-0.022V26.87H13.43l0.022,0.108H13.163c-0.045-.194-0.367-0.14-0.6-0.13a0.387,0.387,0,0,0-.022.13H12.251l-0.022-.13H11.651a0.387,0.387,0,0,0-.022.13H11.34l-0.022-.13H10.739v0.043a0.118,0.118,0,0,0,0,.087H10.45c-0.045-.2-0.386-0.14-0.623-0.13v0.043a0.118,0.118,0,0,0,0,.087H9.539l-0.022-.13H8.938v0.13H8.649c-0.045-.2-0.386-0.14-0.623-0.13v0.13H7.738l-0.022-.13H7.137a0.387,0.387,0,0,0-.022.13H6.826V26.87a2.316,2.316,0,0,0-.6-0.022V26.87H6.2l0.022,0.108H5.937c-0.045-.194-0.367-0.14-0.6-0.13a0.387,0.387,0,0,0-.022.13H5.025L5,26.848a2.362,2.362,0,0,1-.667-0.087,0.113,0.113,0,0,1-.067.108,0.981,0.981,0,0,0-.222-0.108,0.224,0.224,0,0,0-.022-0.13,1.5,1.5,0,0,0-.511-0.238,0.456,0.456,0,0,1-.044.108L3.2,26.393a0.765,0.765,0,0,0,0-.152,1.2,1.2,0,0,1-.467-0.217,0.076,0.076,0,0,0-.044.022,0.464,0.464,0,0,1-.089.087,0.528,0.528,0,0,0-.222-0.108c0-.087.012-0.119-0.044-0.152a1.485,1.485,0,0,0-.467-0.217,0.218,0.218,0,0,1-.089.108,0.727,0.727,0,0,0-.222-0.108,0.344,0.344,0,0,0,0-.152,0.52,0.52,0,0,0-.2-0.108,0.883,0.883,0,0,1-.311-0.3,0.229,0.229,0,0,1-.133.043,0.564,0.564,0,0,1-.2-0.26,0.9,0.9,0,0,1-.4-0.108c0.008-.115-0.062-0.189-0.044-0.3A1.98,1.98,0,0,0,.334,24.1c0.084,0,.078.01,0.111-0.043-0.088-.016-0.071,0-0.089-0.087a0.184,0.184,0,0,0,.022-0.108H0.445a4.7,4.7,0,0,0,.2-0.954,5.425,5.425,0,0,0-.378-0.629,4.938,4.938,0,0,0,.467-0.282,0.5,0.5,0,0,0,.311-0.152,2.181,2.181,0,0,1-.089-0.412C0.922,21.36.8,21.3,0.756,21.234a2.869,2.869,0,0,1-.712.065V21.278H0.022L0,21.147a3.416,3.416,0,0,1,.6-0.325,0.352,0.352,0,0,1,.178-0.282,0.648,0.648,0,0,1,.712-0.325,0.958,0.958,0,0,0,.267.065,1.128,1.128,0,0,1,.222-0.824,0.453,0.453,0,0,1,.334-0.022l0.133,0.152a4.858,4.858,0,0,1-.067.607H2.424a1.01,1.01,0,0,1,.334-0.043,0.178,0.178,0,0,1,.022-0.108,0.274,0.274,0,0,0,.022.152,0.833,0.833,0,0,1,.445-0.043h1.2a0.1,0.1,0,0,1,.022-0.065,0.635,0.635,0,0,0,.578.022,1.106,1.106,0,0,0,.378-0.065,0.389,0.389,0,0,1,.089-0.087,1.975,1.975,0,0,0,.311-0.022c0.059-.024.08-0.1,0.133-0.13a2.881,2.881,0,0,1,.689-0.152,0.139,0.139,0,0,1,.156-0.13,0.448,0.448,0,0,0,.156-0.043,0.63,0.63,0,0,0,.467-0.043,0.574,0.574,0,0,0,.356-0.043,2.771,2.771,0,0,1,.845-0.3,0.1,0.1,0,0,0,.022.065c0.031-.051.062-0.057,0.089-0.108H8.516c0-.084.031-0.209,0.022-0.26a0.577,0.577,0,0,1-.044-0.3c0.038-.117.165-0.245,0.2-0.347v-0.65A0.187,0.187,0,0,0,8.8,17.376a1.077,1.077,0,0,0,0-.152,0.669,0.669,0,0,1,.334-0.13c0.043,0.072.08,0.07,0.2,0.065a1.2,1.2,0,0,0,.133-0.152c-0.084,0-.078.01-0.111-0.043H9.383V16.942c0.128-.008.268-0.021,0.422-0.022a1.239,1.239,0,0,1,.156-0.108,1.163,1.163,0,0,0,.156-0.824c-0.032-.04-0.062-0.091-0.089-0.13a3.3,3.3,0,0,0,.267-0.325h0.467a0.56,0.56,0,0,1,0-.217h0.356a1.521,1.521,0,0,1,.556-0.022V15.121a1.248,1.248,0,0,1,.445.043v0.022c-0.072.018-.034-0.011-0.067,0.043,0.015,0.017.029,0.048,0.044,0.065,0.081,0.05.259-.029,0.356,0.022,0.067,0.035-.006.059,0.156,0.065V15.273h0.045a0.416,0.416,0,0,1,.245,0,0.227,0.227,0,0,1,.044.108c0.106,0,.288.034,0.356,0.022a0.655,0.655,0,0,1,.489-0.087V12.022h0.022V12H13.83v0.022a4.21,4.21,0,0,1,.022,1.019v2.731Z" transform="translate(0 0.5)"/>
</svg>
