<?xml version="1.0" encoding="utf-8"?>
<!-- Generator: Adobe Illustrator 16.0.0, SVG Export Plug-In . SVG Version: 6.00 Build 0)  -->
<!DOCTYPE svg PUBLIC "-//W3C//DTD SVG 1.1//EN" "http://www.w3.org/Graphics/SVG/1.1/DTD/svg11.dtd">
<svg version="1.1" id="Layer_1" xmlns="http://www.w3.org/2000/svg" xmlns:xlink="http://www.w3.org/1999/xlink" x="0px" y="0px"
	 width="40px" height="40px" viewBox="0 0 40 40" enable-background="new 0 0 40 40" xml:space="preserve">
<path id="Color_Fill_1" fill="#FFFFFF" d="M3.417,12.024c0.173,0.007,0.342,0.047,0.5,0.118l0.287,0.024
	c0.061,0.036,0.125,0.067,0.191,0.094c0.076,0.009,0.033-0.054,0.072-0.071l0.24,0.027v0.071l-0.215-0.024v0.024h0.024
	c0.051,0.025,0.099,0.057,0.143,0.094c0.052-0.043,0.032-0.072,0.1-0.047c0.068,0.025,0.027-0.005,0.048,0.071
	c0.157,0.034,0.318,0.042,0.478,0.024c0.128-0.053,0.269-0.07,0.406-0.047c0.176,0.154,0.368,0.289,0.573,0.4
	c0.021,0.015,0.046,0.023,0.072,0.023c0.039,0.242,0.063,0.486,0.072,0.731c0.059,0.03,0.016-0.01,0.048,0.047h0.02v-0.451
	c-0.04-0.035-0.024-0.017-0.024-0.047c0.165-0.037,0.332-0.06,0.501-0.069v-0.073h0.1v0.024h0.02v0.071L7.6,13.085
	c-0.016,0.124-0.013,0.17,0.167,0.165c0.013,0.013,0.03,0.021,0.048,0.024l0.024-0.189c-0.052-0.042-0.1-0.09-0.143-0.142
	l0.024-0.047h0.022v0.02c0.056,0.105,0.167,0.169,0.287,0.165c0.156,0.039,0.319,0.047,0.478,0.024v0.071
	c0.21,0.01,0.418,0.042,0.621,0.094c0.321,0.071,0.738-0.014,1,0.047v0.099H10.2c-0.02-0.521-0.118-0.7,0.454-0.684
	c0.013,0.013,0.03,0.021,0.048,0.024c0.011,0.105,0.035,0.208,0.072,0.307c0.009,0.052-0.024,0.173-0.024,0.259
	c0.077,0.019,0.036-0.012,0.072,0.047c-0.015,0.021-0.023,0.045-0.024,0.071c0.073-0.004,0.146,0.004,0.215,0.024v-0.356h-0.045
	c-0.021-0.015-0.046-0.024-0.072-0.024c0.003-0.103,0.038-0.201,0.1-0.283c-0.055-0.003-0.107-0.029-0.143-0.071
	c0.026-0.012,0.051-0.027,0.072-0.047h-0.172v-0.235c-0.195-0.074-0.374-0.187-0.526-0.33c-0.061,0.048-0.137,0.073-0.215,0.071
	c0-0.081,0.035-0.085-0.1-0.094C9.9,12.128,9.884,12.16,9.864,12.189c-0.01-0.026-0.024-0.051-0.043-0.073
	c-0.006,0.136-0.105,0.143-0.119,0.33H9.534c0.024-0.12,0.058-0.238,0.1-0.354c-0.119-0.08-0.264-0.114-0.406-0.094
	c-0.154,0.128-0.35,0.195-0.55,0.189v-0.022H8.65c-0.017-0.155-0.057-0.307-0.12-0.449c0.188,0.085,0.394,0.125,0.6,0.118
	c0.154-0.037,0.242-0.128,0.406-0.165c0-0.089-0.011-0.083,0.048-0.118v0.095l0.263-0.047v0.071l0.836-0.024
	c-0.002-0.024,0.004-0.049,0.017-0.07c0.135,0.012,0.271,0.012,0.406,0c0.011,0.049,0.027,0.096,0.048,0.142
	c0.152-0.013,0.305-0.005,0.454,0.023h1.266V11.67H13v0.071c0.127,0.015,0.254,0.023,0.382,0.024v0.071c-0.36,0-0.681,0-1.027,0.024
	v0.046c0.15-0.007,0.16-0.054,0.167,0.094c-0.399-0.045-0.804-0.021-1.195,0.071c0.024,0.06,0.033,0.125,0.024,0.189
	c0.292,0.046,0.575,0.142,0.836,0.283l0.048,0.141c0.047,0.034,0.175,0,0.215,0.024c0.02,0.036,0.028,0.077,0.024,0.118
	l-0.143,0.424c-0.165,0.143-0.393,0.188-0.6,0.118c-0.164-0.202-0.285-0.435-0.358-0.684c0,0.084,0,0.074-0.1,0.118v0.024h0.077
	l0.024,0.259c-0.136,0.041-0.105,0.231-0.1,0.4h-0.019v0.023c0.093,0,0.107-0.012,0.143,0.047c0.016,0.02,0.024,0.045,0.024,0.071
	c-0.049,0-0.097,0.008-0.143,0.024v0.024h0.239c0,0,1.009-0.005,1.195-0.024c-0.017-0.556-0.136-0.538,0.454-0.542v-0.092
	c0.041,0,0.081,0.008,0.119,0.023v0.024h-0.024c-0.018,0.016-0.053,0.031-0.072,0.047c0.205-0.032,0.415,0.001,0.6,0.094
	c-0.02,0.109-0.02,0.221,0,0.33h0.072c0.063-0.08,0.156-0.125,0.215-0.212L14,13.344v-0.071h0.05c0.035-0.005,0.071,0.003,0.1,0.024
	c0.06-0.059,0.134-0.099,0.215-0.118v0.024h0.024c0,0.069-0.023,0.033,0,0.071c0.038,0.015,0.079,0.023,0.12,0.024
	c0.023,0.246,0.232,0.432,0.478,0.425c0.111,0.06,0.352-0.011,0.526,0.047c0.055,0.039,0.103,0.087,0.143,0.141
	c0.124,0.057,0.251,0.104,0.382,0.142c0.003-0.032,0.011-0.064,0.024-0.094l0.5-0.023c0.017,0.053,0.025,0.109,0.024,0.165h-0.1
	v0.307c0.129,0.083,0.235,0.196,0.311,0.33h0.048l0.263-0.684h0.024c-0.028,0.083-0.028,0.175,0,0.259
	c-0.013-0.153,0.012-0.307,0.072-0.448c0,0.025,0.008,0.051,0.024,0.071v-0.168c-0.013-0.013-0.021-0.029-0.024-0.047H17.18
	c0,0.025-0.008,0.05-0.024,0.071v-0.118c0.095,0,0.075,0,0.072-0.142h0.932v0.118c0.056,0.001,0.112,0.01,0.167,0.024
	c0.103,0.274,0.175,0.559,0.215,0.85c-0.435,0.061-0.875,0.076-1.314,0.047c-0.003,0.063,0.005,0.127,0.024,0.188
	c0.385-0.079,0.779-0.103,1.171-0.071h2.222c0.037,0.031,0.063,0.072,0.072,0.119c0.059,0.159,0.076,0.332,0.049,0.5
	c0.107,0.001,0.211-0.041,0.287-0.119c0.038,0.097,0.095,0.185,0.166,0.26c0.035-0.031,0.061-0.072,0.072-0.118
	c0.013,0.013,0.021,0.029,0.023,0.047c0.037,0.04,0.063,0.089,0.072,0.142h0.023V15.49c0.035-0.031,0.061-0.072,0.072-0.118
	c0.012,0.013,0.021,0.029,0.023,0.047c0.041,0.032,0.075,0.072,0.1,0.118h0.024l0.048-0.143c0.014,0.014,0.021,0.029,0.024,0.047
	c0.036,0.036,0.075,0.067,0.118,0.095c0.004-0.063,0.043-0.118,0.101-0.142c0.019,0.049,0.043,0.098,0.072,0.142
	c0.028-0.056,0.069-0.104,0.118-0.142c0.02,0.049,0.043,0.098,0.072,0.142c0.039-0.04,0.058-0.101,0.101-0.142v0.021
	c0.05,0.033,0.085,0.084,0.1,0.143c0.006-0.014,0.008-0.028,0.007-0.043c0.029-0.028,0.063-0.052,0.1-0.07l0.072,0.117h0.023v-0.025
	c0.025-0.046,0.059-0.086,0.1-0.118c0.015,0.049,0.078,0.151,0.101,0.118c0.024-0.046,0.059-0.086,0.101-0.118
	c0.015,0.058,0.061,0.103,0.118,0.118c0.011-0.041,0.027-0.081,0.048-0.118c0.035,0.052,0.086,0.093,0.143,0.118
	c0.012-0.041,0.027-0.081,0.049-0.118c0.041,0.047,0.09,0.087,0.143,0.118l0.049-0.143c0.037,0.057,0.086,0.105,0.143,0.143
	c0.011-0.041,0.027-0.081,0.048-0.118h0.024v0.024c0.037,0.035,0.071,0.074,0.1,0.117h0.023c0.01-0.045,0.047-0.162,0.072-0.117
	c0.039,0.035,0.072,0.074,0.1,0.117h0.025c0.008-0.053,0.033-0.103,0.071-0.142c0.024,0.038,0.093,0.134,0.12,0.095
	c0.02-0.049,0.055-0.091,0.1-0.119c0.024,0.048,0.068,0.082,0.12,0.095c0.011-0.042,0.027-0.081,0.048-0.118h0.024v0.023
	c0.029,0.043,0.071,0.076,0.119,0.095c0.009-0.054,0.034-0.103,0.071-0.142c0.025,0.048,0.068,0.082,0.121,0.094v-0.025
	c0.024-0.039,0.059-0.071,0.1-0.094c0.291,0.158,0.631,0.209,0.955,0.141h2.652c0,0.025,0.008,0.051,0.024,0.071
	c0.331,0.106,0.682,0.14,1.026,0.094l2.175,0.024l3.774,0.023c0.624,0.055,1.252,0.016,1.864-0.117
	c0.231-0.006,0.464,0.01,0.692,0.047l0.789-0.26c0.35-0.045,0.701-0.053,1.052-0.023l0.118,0.141
	c0.09,0.481,0.049,0.978-0.118,1.438h-0.802c-0.109-0.027-0.222-0.043-0.334-0.047c-0.223-0.062-0.473-0.177-0.693-0.235h-0.335
	c-0.256,0.005-0.512-0.011-0.765-0.048h-0.601c-0.228-0.045-0.462-0.054-0.692-0.023h-1.526l-5.329,0.023
	c-0.113,0.053-0.234,0.084-0.357,0.095v0.094c-0.041-0.006-0.08,0.013-0.101,0.048c-0.082,0.003-0.164-0.014-0.239-0.048h-0.832
	c-0.766,0-1.627,0.017-2.318,0c-0.005,0.011-0.014,0.019-0.023,0.024c0.002,0.056-0.006,0.111-0.023,0.165
	c-0.039-0.024-0.101-0.109-0.119-0.071c-0.03,0.035-0.055,0.075-0.072,0.118h-0.023v-0.021c-0.029-0.027-0.053-0.059-0.072-0.094
	h-0.023v0.023c-0.04,0.027-0.066,0.07-0.072,0.119c-0.013-0.014-0.021-0.029-0.023-0.047c-0.032-0.025-0.057-0.058-0.072-0.095
	h-0.047c-0.01,0.054-0.034,0.103-0.072,0.142v-0.024c-0.04-0.022-0.074-0.056-0.1-0.095h-0.02c-0.002,0.063-0.041,0.119-0.1,0.143
	L24.01,16.93h-0.02v0.023c-0.036,0.037-0.07,0.076-0.1,0.117v-0.024c-0.041-0.032-0.076-0.072-0.101-0.118h-0.015
	c-0.008,0.056-0.047,0.102-0.101,0.118c-0.024-0.054-0.058-0.101-0.1-0.142v0.023c-0.036,0.037-0.069,0.076-0.101,0.118v-0.024
	c-0.041-0.031-0.074-0.072-0.1-0.117h-0.006c-0.016,0.051-0.039,0.1-0.072,0.142c-0.041-0.047-0.09-0.087-0.143-0.118
	c-0.012,0.041-0.027,0.081-0.049,0.118h-0.047c-0.018-0.05-0.043-0.098-0.072-0.142c-0.049,0.043-0.084,0.101-0.1,0.164
	c-0.013-0.012-0.021-0.028-0.023-0.047c-0.032-0.023-0.057-0.057-0.072-0.094h-0.043c-0.008,0.056-0.047,0.102-0.1,0.118
	c-0.033-0.071-0.055-0.101-0.101-0.094c-0.028,0.036-0.062,0.067-0.101,0.094c-0.03-0.048-0.071-0.087-0.119-0.118l-0.072,0.118
	c-0.034-0.06-0.084-0.108-0.143-0.142c-0.008,0.055-0.047,0.102-0.1,0.117c-0.02-0.049-0.043-0.098-0.072-0.142
	c-0.047,0.046-0.081,0.103-0.101,0.165c-0.013-0.013-0.021-0.029-0.024-0.047c-0.035-0.028-0.068-0.061-0.1-0.094v0.023
	c-0.041,0.032-0.074,0.072-0.1,0.118h0.008c-0.019-0.05-0.043-0.098-0.072-0.142h-0.023v0.023c-0.032,0.024-0.057,0.057-0.072,0.094
	c-0.039-0.049-0.088-0.089-0.143-0.117c-0.025,0.033-0.061,0.058-0.101,0.07c-0.022-0.072-0.05-0.088-0.071-0.164
	c-0.014,0.012-0.021,0.029-0.024,0.047c-0.067,0.061-0.123,0.133-0.167,0.211c-0.056-0.051-0.12-0.091-0.191-0.117
	c0.055,0.193,0,0.4-0.143,0.542h-3.03c-0.044-0.021-0.094-0.03-0.143-0.024v0.047h-0.025c-0.024,0.024,0.024,0.023,0.024,0.024
	c0.051,0.06,0.099,0.123,0.143,0.188c0.111-0.043,0.154-0.148,0.239-0.094c0.046,0.037,0.081,0.086,0.1,0.143l-0.143,0.117
	l0.018,0.071c0.035,0.022,0.066,0.08,0.1,0.095h0.143c0.008,0,0.115,0.162,0.143,0.188l-0.026,0.067l-0.1,0.023v0.024h0.24
	c0.049-0.121,0.083-0.248,0.1-0.378c0.245-0.039,0.494-0.048,0.741-0.023c0.018,0.062,0.026,0.125,0.024,0.189
	c0.108,0.013,0.205,0.073,0.263,0.164c0.021-0.019,0.045-0.035,0.072-0.047c-0.045-0.119-0.051-0.221-0.1-0.307h0.05
	c0.13,0.105,0.53-0.1,0.741,0.023c-0.081-0.011-0.162-0.002-0.239,0.024c0.542,0.041,1.088,0.017,1.625-0.071
	c0.063-0.023,0.069,0.06,0.1,0.071h2.581c0.002,0.019,0.012,0.034,0.024,0.048c-0.007,0.071,0,0.158,0,0.282h0.071v0.8l0.191,0.024
	L24.568,19c0.178,0.013,0.354,0.036,0.527,0.07c-0.003-0.141,0.005-0.283,0.023-0.424c0.209,0.01,0.418,0.041,0.621,0.095
	c0.02-0.077-0.012-0.036,0.048-0.071c0.146,0.056,0.298,0.087,0.454,0.094c0.053-0.02,0.109-0.027,0.167-0.023
	c0.208,0.076,0.425,0.123,0.646,0.141c0.02,0.077-0.013,0.036,0.047,0.071c0.12-0.018,0.242-0.01,0.358,0.024
	c0.218,0.053,0.5,0.072,0.741,0.117c0.143-0.017,0.286-0.024,0.43-0.023c0.014-0.129,0.043-0.146,0.191-0.143
	c-0.008,0.057,0,0.113,0.023,0.165c0.016-0.137,0.057-0.147,0.215-0.141v0.024c-0.029,0.091-0.037,0.188-0.023,0.282
	c0.082-0.003,0.164,0.013,0.238,0.048c0.072,0.014,0.127,0.069,0.144,0.141c-0.048,0.041-0.075,0.102-0.071,0.164h0.1
	c-0.006-0.063-0.006-0.125,0-0.188h0.048c0.03,0.017,0.056,0.041,0.071,0.071c-0.043,0.033-0.062,0.09-0.047,0.142h0.071
	l-0.024,0.118c-0.088,0-0.058-0.027-0.071,0.071c-0.02,0.108-0.02,0.221,0,0.329c0.087-0.002,0.17,0.043,0.215,0.119
	c0.071,0.276,0.095,0.563,0.072,0.849c0.06,0.126,0.099,0.262,0.118,0.399h-0.055v-0.019c-0.052-0.058-0.05-0.171-0.101-0.235v0.049
	c0.003,0.221,0.02,0.44,0.048,0.66c-0.041,0.355-0.2,0.688-0.454,0.942c-0.303,0.2-0.622,0.374-0.956,0.519
	c-0.467,0.239-0.938,0.47-1.434,0.685c-0.572,0.325-1.172,0.602-1.792,0.825c-0.444,0.055-0.893,0.063-1.339,0.022H6.476
	l-0.693-0.022c-0.354-0.121-0.698-0.271-1.027-0.448c-0.82-0.354-1.6-0.743-2.413-1.085v0.094c0.025,0.061,0.033,0.125,0.024,0.189
	c-0.046,0.016-0.095,0.023-0.143,0.023c-0.03,0.02-0.065,0.027-0.1,0.024c-0.002-0.157,0.006-0.315,0.024-0.472
	c-0.261-0.147-0.451-0.395-0.526-0.685H1.6v0.8c-0.036,0.188-0.06,0.377-0.072,0.566H1.481v-0.189
	c-0.048-0.24-0.064-0.486-0.048-0.73c-0.063-0.637-0.039-1.279,0.072-1.91c0.069-0.172,0.287-0.366,0.335-0.5
	c0.021-0.044,0.03-0.093,0.024-0.141H1.84c0.004,0.041-0.004,0.082-0.024,0.117c-0.01-0.026-0.028-0.11-0.048-0.047
	c-0.003,0.033-0.011,0.064-0.024,0.094v-0.041c-0.047-0.021-0.076-0.068-0.072-0.118c0.08-0.054,0.132-0.141,0.143-0.236
	c0.021,0.017,0.027,0.03,0.048,0.047c-0.002-0.033,0.006-0.065,0.024-0.094c0.007,0.062,0.032,0.118,0.072,0.165
	c-0.086,0.033-0.077,0.072-0.072,0.212h0.025v-0.024c0.139-0.131,0.246-0.292,0.311-0.472c-0.114,0-0.133,0.011-0.167-0.071
	c-0.029-0.067-0.029-0.145,0-0.211c0.035-0.012,0.069-0.027,0.1-0.048c-0.106-0.149-0.18-0.319-0.215-0.5
	c-0.194-0.313-0.339-0.655-0.43-1.014c0.023-0.065,0.064-0.122,0.119-0.165c0.229-0.079,0.473-0.101,0.712-0.063h1.744v-0.1
	l-1.314-0.023c-0.019-0.03-0.035-0.063-0.048-0.095c-0.159-0.091-0.278,0.122-0.454,0.047c-0.339-0.063-0.686-0.071-1.027-0.024
	v-0.204H1.171V17.4h0.072c0-0.2-0.045-0.254-0.048-0.448c-0.343,0.03-0.688,0.015-1.027-0.048c0.041,0.006,0.083-0.003,0.119-0.023
	H0.048l0.071-1.765H0v-0.192h0.119l0.048-0.778H0v-0.189h0.167v-0.259c0.19-0.018,0.382-0.026,0.573-0.024
	c0.006-0.305,0.054-0.608,0.143-0.9h0.168c0.158-0.288,0.425-0.501,0.741-0.59l0.382-0.047c0.02-0.034,0.044-0.066,0.072-0.094
	c0.043,0.005,0.084,0.021,0.119,0.047l0.6-0.047V3.346h0.046v8.7h0.358v-9.03h0.048V12.024z M11.47,11.859
	c0.202,0.063,0.418,0.063,0.621,0H11.47z M12.187,11.859v0.047h0.072v-0.048L12.187,11.859L12.187,11.859z M9.893,12.189
	c0.035,0.011,0.069,0.027,0.1,0.047c-0.05,0.008-0.102,0.001-0.148-0.02C9.863,12.212,9.88,12.203,9.893,12.189L9.893,12.189z
	 M0.98,13.226c-0.003,0.088-0.02,0.175-0.048,0.259H1c0.039-0.084,0.072-0.17,0.1-0.259H0.98z M7.742,13.486v0.07h0.072v-0.07H7.742
	z M13.763,13.557v0.047c0.035,0.003,0.07-0.005,0.1-0.024L13.763,13.557z M7.622,13.628v0.047h0.144v-0.048L7.622,13.628
	L7.622,13.628z M16.822,13.722h0.048v0.023C16.852,13.743,16.835,13.734,16.822,13.722L16.822,13.722z M18.16,13.722v0.566h0.287
	c-0.01-0.188-0.059-0.373-0.143-0.542C18.259,13.724,18.209,13.715,18.16,13.722L18.16,13.722z M16.702,13.745h0.048v0.024
	c-0.019-0.002-0.037-0.01-0.05-0.024H16.702z M16.582,13.769h0.048v0.024C16.612,13.79,16.596,13.781,16.582,13.769L16.582,13.769z
	 M16.391,13.84h0.049v0.023C16.422,13.86,16.405,13.852,16.391,13.84L16.391,13.84z M16.2,13.911h0.048v0.024
	C16.229,13.932,16.213,13.923,16.2,13.911L16.2,13.911z M16.1,14.1c0.013,0.013,0.03,0.021,0.048,0.024
	c-0.012-0.013-0.026-0.021-0.043-0.025L16.1,14.1z M17.08,14.336c-0.002,0.145-0.026,0.287-0.072,0.424h0.048v-0.166
	c0.047-0.078,0.058-0.173,0.029-0.26L17.08,14.336z M18.155,14.336v0.118h0.024c0.105-0.029,0.218-0.012,0.311,0.047l-0.024-0.142
	h-0.019v-0.025H18.16L18.155,14.336z M39.206,15.609c-0.052,0.319-0.06,0.645-0.024,0.967c0.162,0.049,0.332,0.064,0.5,0.047
	c0.066-0.326,0.074-0.661,0.024-0.99c-0.163-0.029-0.329-0.038-0.494-0.025L39.206,15.609z M38.871,16.509
	c0.027-0.259,0.027-0.519,0-0.778c-0.231,0.039-0.451,0.127-0.645,0.26v0.226c0.196,0.137,0.417,0.234,0.65,0.288L38.871,16.509z
	 M0.305,16.886c0.293,0.042,0.591,0.042,0.884,0H0.311H0.305z M19.636,17.994c0.041,0.021,0.03,0.021,0.072,0h-0.066H19.636z
	 M19.827,17.994c0.027,0.027,0.072,0.027,0.1,0H19.827z M1.763,18.184c-0.058,0.044-0.085,0.117-0.072,0.188
	c0.046,0.016,0.094,0.024,0.143,0.024c0.013-0.03,0.031-0.058,0.054-0.08c-0.002-0.019-0.011-0.035-0.024-0.047
	c-0.012-0.047-0.049-0.082-0.096-0.092L1.763,18.184z M24.129,18.277c0.032,0.07-0.023,0.057,0.1,0.07v-0.052
	c-0.032-0.003-0.064-0.011-0.095-0.024L24.129,18.277z M5.729,18.348c0.132,0.043,0.274,0.043,0.406,0h-0.4H5.729z M25.156,18.702
	l-0.024,0.142h0.024v0.024h0.023v-0.171h-0.019L25.156,18.702z M26.445,18.938l0.216,0.024l0.024-0.071h-0.043
	c-0.068-0.029-0.141-0.045-0.215-0.047v0.024c0.014,0.019,0.022,0.04,0.024,0.063L26.445,18.938z M25.92,19.197v0.047h0.048v-0.053
	h-0.042L25.92,19.197z M26.35,19.197c0.014,0.013,0.03,0.021,0.049,0.023c-0.012-0.014-0.025-0.023-0.043-0.029L26.35,19.197z
	 M26.374,19.339c0.001-0.025-0.009-0.051-0.024-0.071c-0.098,0.002-0.194-0.015-0.287-0.047v0.047
	c0.154,0.002,0.174,0.049,0.317,0.065L26.374,19.339z M26.518,19.292c-0.024,0.082-0.037,0.053,0.047,0.071
	c0.117,0.049,0.25,0.04,0.358-0.024L26.518,19.292z M27.139,19.363c0.027,0.039,0.07,0.065,0.118,0.07V19.38
	c-0.036-0.013-0.073-0.021-0.112-0.022L27.139,19.363z M27.354,19.504c0.052,0.006,0.104-0.012,0.143-0.047
	c0.043,0.047,0.023,0.044,0.119,0.047v-0.076l-0.287-0.047v0.023c0.02,0.027,0.031,0.061,0.031,0.094L27.354,19.504z M27.879,19.48
	c0,0.025,0.008,0.051,0.023,0.07v-0.053c-0.002-0.016,0.015-0.012-0.018-0.023L27.879,19.48z M29.266,19.527l-0.024,0.07h0.024
	v-0.029c0.034-0.036,0.021-0.012,0.006-0.047L29.266,19.527z M1.881,20.164h0.054c-0.006,0.01-0.014,0.018-0.024,0.023v0.019
	c-0.013-0.013-0.021-0.029-0.023-0.047L1.881,20.164z M2.055,20.206H2.1v0.024C2.083,20.227,2.067,20.219,2.055,20.206z
	 M29.582,20.516c0.006-0.095,0.037-0.117-0.048-0.164c-0.021-0.016-0.046-0.024-0.072-0.024v0.024
	c0.024,0.059,0.032,0.125,0.024,0.188h0.023C29.531,20.524,29.557,20.516,29.582,20.516z M29.682,22.116
	c-0.037,0.026-0.07,0.058-0.1,0.094h0.023c0.016,0.026,0.043,0.044,0.072,0.047V22.21l0.049,0.024
	c-0.013-0.041-0.029-0.081-0.05-0.118H29.682z M1.7,22.422c0.02,0.077-0.012,0.036,0.048,0.071
	C1.745,22.463,1.727,22.436,1.7,22.422z M1.628,22.469l0.024,0.094h0.021c-0.005-0.035-0.021-0.068-0.048-0.094H1.628z
	 M3.345,22.516c-0.011,0.041-0.027,0.081-0.048,0.118h0.1c0.015-0.037,0.04-0.069,0.072-0.094v-0.024H3.345z M4.062,22.587
	c-0.033,0.04-0.05,0.091-0.048,0.142c0.013,0.013,0.03,0.021,0.048,0.023l0.1-0.118L4.062,22.587z M4.349,22.775
	c-0.041,0.074-0.058,0.157-0.049,0.24c0.008,0.096,0,0.191-0.024,0.283h0.049c0.022,0.014,0.049,0.02,0.075,0.018
	c0.056-0.064,0.103-0.135,0.14-0.211c-0.028-0.083-0.036-0.172-0.024-0.258c-0.031-0.021-0.064-0.037-0.1-0.048
	C4.396,22.785,4.373,22.777,4.349,22.775z M29.271,22.775c-0.016,0.038-0.023,0.078-0.024,0.119h0.024
	c0.045-0.067,0.055-0.08,0.119-0.071C29.363,22.784,29.316,22.766,29.271,22.775z M4.158,22.895c-0.03,0.016-0.055,0.041-0.072,0.07
	c-0.035,0.049-0.06,0.105-0.072,0.165c0.143-0.026,0.069,0.088,0.143,0.024C4.227,23.082,4.227,22.967,4.158,22.895z M4.612,22.895
	c0.018,0.172-0.018,0.347-0.1,0.5H4.54c0.015-0.027,0.042-0.045,0.072-0.047c0.041,0.063,0.032,0.1,0.072,0.047
	c0.074-0.121,0.108-0.26,0.1-0.4L4.612,22.895z M3.752,22.965v0.094H3.8c0.021,0.016,0.046,0.023,0.072,0.024
	c0.03-0.035,0.055-0.075,0.072-0.118h0.023v-0.023H3.895C3.85,22.963,3.8,22.971,3.752,22.965L3.752,22.965z M27.313,23.016
	c0.002,0.031,0.021,0.057,0.047,0.071v0.019c0.024,0.023,0.024-0.022,0.024-0.022h0.024v-0.024
	C27.379,23.04,27.346,23.025,27.313,23.016z M2.055,23.063l0.024,0.071h0.048v-0.051h0.024v-0.024h-0.1L2.055,23.063z
	 M27.169,23.105c0.04,0.026,0.024,0.043,0.048,0H27.169z M28.674,23.105v0.143H28.7c0.032-0.023,0.058-0.057,0.071-0.094
	L28.674,23.105z M2.031,23.13L2.1,23.2C2.088,23.168,2.063,23.143,2.031,23.13z M12.019,23.271v0.07h-0.048
	c-0.136,0.084-0.296,0.117-0.454,0.094c-0.096,0.203-0.216,0.394-0.358,0.566c0.042,0.08,0.066,0.169,0.072,0.259
	c0.062-0.069,0.081-0.043,0.143,0v-0.259h0.072v0.047c0.038,0.074,0.062,0.154,0.072,0.236h0.1c0.021-0.037,0.037-0.077,0.048-0.118
	c0.03-0.05,0.046-0.106,0.048-0.165h0.066v0.236h0.048c0.068-0.039,0.069-0.01,0.119,0.022v-0.259c0.026,0,0.051,0.008,0.072,0.023
	c0.042,0.08,0.067,0.168,0.072,0.259h0.12v-0.046c0.038-0.074,0.062-0.154,0.072-0.236h0.072v0.236H12.4
	c0.068-0.039,0.069-0.01,0.119,0.022v-0.188c-0.152-0.158-0.259-0.354-0.311-0.566c0.002-0.099-0.023-0.196-0.072-0.282
	C12.105,23.255,12.063,23.271,12.019,23.271z M14.819,24.002c0.026,0,0.051,0.008,0.072,0.023l0.072,0.211
	c0.049,0.011,0.098,0.026,0.143,0.048c0.006-0.099,0.03-0.194,0.072-0.283h0.072v0.235c0.047-0.026,0.107-0.017,0.143,0.023
	c-0.006-0.087,0.002-0.174,0.024-0.259h0.072c-0.001,0.099,0.023,0.196,0.072,0.283c0.05-0.081,0.065-0.037,0.119,0
	c0.011-0.097,0.035-0.192,0.072-0.283h0.072v0.235h0.024c0.067-0.041,0.088-0.006,0.143,0.023v-0.258h0.072l0.048,0.283h0.048
	c0.025-0.033,0.06-0.059,0.1-0.071c0.018-0.038,0.031-0.077,0.041-0.118c-0.235-0.227-0.357-0.547-0.334-0.873h-0.219
	c-0.005,0.049-0.032,0.092-0.072,0.118c-0.187,0.058-0.378,0.098-0.573,0.118c-0.051,0.066-0.047,0.161-0.1,0.236
	c-0.098,0.13-0.21,0.248-0.335,0.354v0.189c0.047-0.027,0.107-0.018,0.143,0.022v-0.259H14.819z M19.455,23.225v0.117
	c-0.241,0.066-0.491,0.098-0.741,0.094c-0.077,0.251-0.189,0.489-0.335,0.707c0.02,0.036,0.028,0.078,0.024,0.118
	c0.046,0.017,0.095,0.024,0.143,0.024v-0.047c0.044-0.071,0.069-0.152,0.072-0.236h0.072v0.259h0.02
	c0.049-0.057,0.071-0.046,0.143-0.022v-0.236h0.072v0.047c0.038,0.074,0.062,0.154,0.072,0.236h0.119v-0.047
	c0.037-0.074,0.062-0.154,0.072-0.236h0.072v0.259h0.024c0.04-0.069,0.076-0.047,0.143-0.022v-0.236H19.5v0.047
	c0.038,0.074,0.062,0.154,0.072,0.236h0.119v-0.024h0.024l0.048-0.259h0.072v0.259h0.024c0.062-0.069,0.081-0.043,0.143,0v-0.188
	c-0.143-0.151-0.242-0.339-0.287-0.542c-0.002-0.097-0.018-0.191-0.048-0.283c-0.069-0.025-0.144-0.034-0.217-0.023H19.455z
	 M23.154,23.225v0.117c-0.232,0.064-0.475,0.096-0.717,0.094c-0.119,0.258-0.215,0.525-0.287,0.801
	c0.048-0.027,0.107-0.018,0.144,0.022v-0.257c0.026,0,0.052,0.008,0.072,0.023c0.077,0.119,0.028,0.238,0.215,0.259l0.048-0.283
	H22.7v0.047c0.026,0.044,0.021,0.169,0.048,0.212c0.014-0.019,0.105-0.1,0.119-0.023v-0.234c0.025,0,0.051,0.008,0.072,0.023
	c0.08,0.121,0.039,0.223,0.215,0.259l0.048-0.283h0.101v0.259h0.023c0.041-0.068,0.052-0.044,0.119-0.023v-0.234
	c0.025,0,0.051,0.008,0.072,0.023h0.023l0.048,0.211c0.051,0.006,0.1,0.021,0.144,0.048l0.023-0.212
	c-0.246-0.222-0.406-0.521-0.453-0.85h-0.148V23.225z M3.37,23.248v0.047h0.023C3.391,23.277,3.382,23.261,3.37,23.248L3.37,23.248z
	 M7.623,24.285c0.013-0.098,0.037-0.191,0.072-0.283h0.071v0.259H7.79c0.071-0.108,0.093,0.038,0.119-0.118
	c0.021-0.043,0.03-0.092,0.024-0.141H8c0.021,0.139,0.033,0.268,0.191,0.283c0-0.092,0.024-0.182,0.072-0.26v-0.023h0.076v0.259
	h0.024c0.038-0.061,0.081-0.032,0.119-0.094c0.023-0.052,0.031-0.108,0.024-0.165h0.072v0.047c0.034,0.057,0.051,0.123,0.048,0.189
	c0.084,0.017,0.059,0.029,0.143,0.047c0.028-0.154-0.038-0.311-0.167-0.4c-0.095-0.182-0.144-0.385-0.143-0.59
	C8.3,23.332,8.146,23.389,8,23.46c-0.055,0.099-0.103,0.201-0.143,0.308c-0.142,0.117-0.277,0.244-0.406,0.377
	c0.024,0.043,0.041,0.091,0.048,0.141H7.623L7.623,24.285z M28.123,23.385v0.118h0.048c0.013-0.013,0.03-0.021,0.048-0.024v-0.063
	H28.2v-0.027h-0.076L28.123,23.385z M2.676,23.416l-0.024,0.07l0.072,0.024C2.712,23.478,2.696,23.445,2.676,23.416z M26.189,23.436
	c0.039,0.069,0.098,0.127,0.166,0.166c0.028-0.027,0.068-0.043,0.101-0.072c-0.017-0.018-0.031-0.053-0.048-0.07
	C26.338,23.434,26.263,23.426,26.189,23.436z M26.141,23.577c0.004,0.03,0.021,0.057,0.049,0.071
	C26.177,23.622,26.16,23.599,26.141,23.577L26.141,23.577z M27.575,23.648c0.015,0.06-0.019,0.074,0.048,0.117
	c0.014-0.013,0.029-0.021,0.048-0.023v-0.07h-0.024v-0.023H27.575z M3.226,23.671c0,0.063-0.032,0.038,0.048,0.071v-0.026
	C3.253,23.702,3.247,23.689,3.226,23.671L3.226,23.671z M3.776,23.907l-0.024,0.071H3.8C3.8,23.953,3.791,23.928,3.776,23.907
	L3.776,23.907z M27.025,23.907c0.001,0.048,0.009,0.097,0.024,0.142c0.028-0.027,0.068-0.043,0.101-0.07h-0.029
	C27.109,23.935,27.069,23.906,27.025,23.907L27.025,23.907z M11.088,24.236l0.048-0.211h-0.025
	c-0.094,0.082-0.182,0.058-0.191,0.235c0.032,0.013,0.066,0.021,0.1,0.024c0.03-0.061-0.01-0.027,0.067-0.047L11.088,24.236z
	 M4.326,24.143L4.3,24.238h0.049c0.002-0.033-0.006-0.066-0.024-0.094L4.326,24.143z M7.313,24.167
	c-0.013,0.013-0.03,0.021-0.048,0.024c0.013,0.013,0.03,0.021,0.048,0.023c0.006,0.01,0.014,0.019,0.024,0.024v-0.048
	C7.329,24.176,7.343,24.18,7.313,24.167L7.313,24.167z M26.501,24.167c-0.001,0.04-0.009,0.081-0.024,0.118h0.072
	c0.021-0.02,0.039-0.043,0.051-0.069C26.569,24.194,26.535,24.178,26.501,24.167L26.501,24.167z M14.53,24.285
	c-0.001-0.025-0.012-0.051-0.03-0.069v0.024h-0.02l-0.024,0.047h0.072L14.53,24.285z M20.12,24.216
	c0.009,0.046,0.053,0.077,0.1,0.071v-0.026L20.12,24.216z M22.008,24.287c0-0.025-0.008-0.051-0.023-0.071v0.024h-0.025
	l-0.023,0.047H22.008L22.008,24.287z M16.393,24.24v0.047h0.024c-0.002-0.02-0.011-0.036-0.025-0.049L16.393,24.24z M4.876,24.381
	l-0.048,0.094L4.9,24.497v-0.022c-0.012-0.031-0.02-0.063-0.025-0.096L4.876,24.381z M25.95,24.427
	c-0.001,0.04-0.009,0.081-0.024,0.118h0.1c0.014-0.013,0.03-0.021,0.049-0.023v-0.024C26.037,24.467,25.995,24.443,25.95,24.427z
	 M5.4,24.639c0,0.069-0.023,0.033,0,0.071c0.021,0.02,0.046,0.035,0.072,0.047c-0.015-0.038-0.023-0.077-0.024-0.118H5.4z
	 M25.376,24.686l-0.024,0.143H25.4c0.018-0.016,0.053-0.031,0.072-0.047H25.5v-0.024C25.463,24.727,25.421,24.703,25.376,24.686z
	 M13.285,24.922h0.1v-0.047c-0.026-0.014-0.044-0.041-0.048-0.07c-0.01,0.005-0.018,0.014-0.024,0.023
	C13.294,24.855,13.285,24.889,13.285,24.922L13.285,24.922z M13.885,24.922h0.1v-0.047c-0.027-0.014-0.045-0.041-0.048-0.07
	c-0.01,0.005-0.018,0.014-0.024,0.023c-0.02,0.027-0.03,0.061-0.03,0.094H13.885z M14.506,24.805
	c-0.02,0.037-0.036,0.076-0.048,0.117h0.12v-0.047c-0.028-0.021-0.054-0.046-0.078-0.07H14.506z M15.079,24.922h0.1v-0.047
	c-0.027-0.014-0.045-0.041-0.048-0.07c-0.01,0.005-0.018,0.014-0.024,0.023C15.087,24.855,15.077,24.889,15.079,24.922
	L15.079,24.922z M15.679,24.922h0.1v-0.047c-0.02-0.021-0.036-0.045-0.048-0.07c-0.01,0.005-0.018,0.014-0.024,0.023
	c-0.021,0.027-0.032,0.061-0.032,0.094H15.679z M16.279,24.922c0.09,0,0.084,0.012,0.119-0.047c-0.035-0.009-0.063-0.036-0.072-0.07
	c-0.013,0.012-0.021,0.028-0.024,0.047c-0.018,0.02-0.028,0.044-0.03,0.07H16.279z M16.9,24.805
	c-0.018,0.062-0.029,0.055-0.048,0.117h0.143v-0.047c-0.037-0.019-0.071-0.042-0.101-0.07H16.9z M17.473,24.922h0.12v-0.047
	c-0.029-0.028-0.063-0.053-0.1-0.07v0.047c-0.016,0.02-0.025,0.045-0.026,0.07H17.473z M18.073,24.922h0.12v-0.047
	c-0.029-0.028-0.063-0.053-0.1-0.07v0.047c-0.017,0.02-0.026,0.045-0.028,0.07H18.073z M18.718,24.805
	c-0.02,0.037-0.036,0.076-0.048,0.117h0.12v-0.047h-0.032c-0.003-0.03-0.021-0.057-0.048-0.07H18.718z M19.291,24.805
	c-0.01,0.041-0.026,0.08-0.048,0.117h0.143v-0.047c-0.031-0.029-0.065-0.053-0.103-0.07H19.291z M19.912,24.805
	c-0.02,0.037-0.036,0.076-0.048,0.117H20v-0.023c-0.04-0.03-0.055-0.064-0.1-0.094H19.912z M20.512,24.805
	c-0.018,0.062-0.029,0.055-0.048,0.117H20.6v-0.047c-0.037-0.019-0.07-0.043-0.1-0.07H20.512z M21.111,24.805
	c-0.018,0.062-0.028,0.055-0.047,0.117h0.143v-0.047c-0.031-0.029-0.068-0.053-0.107-0.07H21.111z M21.712,24.805
	c-0.019,0.062-0.028,0.055-0.048,0.117h0.143v-0.023c-0.026-0.041-0.063-0.072-0.106-0.094H21.712z M22.333,24.805l-0.071,0.117
	h0.129v-0.047h-0.024c-0.003-0.03-0.021-0.057-0.048-0.07H22.333z M22.934,24.805c-0.019,0.062-0.029,0.055-0.049,0.117h0.119
	v-0.047h-0.041c-0.003-0.03-0.021-0.057-0.048-0.07H22.934z M23.602,24.922v-0.07c-0.02-0.012-0.035-0.028-0.047-0.047h-0.041
	c-0.019,0.062-0.029,0.055-0.049,0.117h0.119H23.602z M24.202,24.922v-0.07c-0.02-0.012-0.036-0.028-0.048-0.047h-0.045
	c-0.018,0.062-0.028,0.055-0.047,0.117h0.119H24.202z M24.803,24.922l-0.025-0.117h-0.07c-0.01,0.041-0.025,0.08-0.048,0.117h0.118
	H24.803z M6.092,24.922c0.078-0.02,0.037,0.012,0.072-0.047c-0.013-0.013-0.021-0.029-0.024-0.047H6.093v0.023
	c-0.015,0.021-0.023,0.045-0.024,0.07H6.092z M7.311,24.922c0.078-0.02,0.037,0.012,0.072-0.047l-0.048-0.023
	c-0.006-0.011-0.014-0.019-0.024-0.024V24.922L7.311,24.922z M8.53,24.828l-0.024,0.094h0.048v-0.047
	c-0.02-0.018-0.027-0.03-0.047-0.048L8.53,24.828z M9.13,24.922c0.078-0.02,0.037,0.012,0.072-0.047l-0.048-0.023v-0.024H9.1v0.094
	L9.13,24.922z M9.73,24.828c0,0.068-0.023,0.033,0,0.07c0.021,0.016,0.046,0.024,0.072,0.024v-0.048
	c-0.038-0.006-0.074-0.021-0.102-0.048L9.73,24.828z M10.33,24.922c0.078-0.02,0.037,0.012,0.072-0.047l-0.048-0.023v-0.024H10.3
	v0.094L10.33,24.922z M10.93,24.922c0.077-0.02,0.037,0.012,0.072-0.047l-0.048-0.023v-0.024H10.9v0.094L10.93,24.922z
	 M11.53,24.922c0.078-0.02,0.037,0.012,0.072-0.047c-0.013-0.013-0.021-0.029-0.024-0.047h-0.085v0.094H11.53z M12.13,24.922
	c0.078-0.02,0.037,0.012,0.072-0.047c-0.013-0.013-0.021-0.029-0.024-0.047h-0.087v0.094H12.13z M12.73,24.922
	c0.085-0.01,0.06,0.012,0.1-0.047c-0.058-0.021-0.038-0.025-0.1-0.047V24.922z M6.73,24.922c0.078-0.02,0.037,0.012,0.072-0.047
	H6.714c-0.006-0.01-0.014-0.018-0.024-0.023v0.07H6.73z M7.925,24.922c0.078-0.02,0.037,0.012,0.072-0.047
	c-0.01-0.006-0.018-0.014-0.024-0.023H7.885v0.07H7.925z"/>
</svg>
