<svg xmlns="http://www.w3.org/2000/svg" width="79.844" height="40" viewBox="0 0 79.844 40">
  <defs>
    <style>
      .cls-1 {
        fill: #fff;
        fill-rule: evenodd;
      }
    </style>
  </defs>
  <path id="Color_Fill_1" data-name="Color Fill 1" class="cls-1" d="M48.593,18.512a0.481,0.481,0,0,1,.1-0.3v0.2c0.27,0.157.248,0.089,0.3,0.5a0.785,0.785,0,0,0-.593.695h1.481V20.3a3.976,3.976,0,0,0-1.284,1.191c0.038,0.415,0,1.287,0,1.985h0.3v-0.5a3.771,3.771,0,0,0,.691-0.5,0.641,0.641,0,0,1-.2-0.5,2.145,2.145,0,0,1,1.185.695v0.2a5.172,5.172,0,0,0,.988.1,17.865,17.865,0,0,0,0,1.886,1.242,1.242,0,0,0,1.185-.3H51.753V23.473h0.1v-0.1a15.217,15.217,0,0,1,3.358.3,3.062,3.062,0,0,0,.593-0.2c1.165,0.726,2.633.6,4.543,0.6v0.3c-1.182-.033-3.742-0.277-3.852.5a1.106,1.106,0,0,1,0,.893h0.593a0.5,0.5,0,0,1,.3-0.1V24.763c1.3-.467,2.207.4,3.654,0.2a5.691,5.691,0,0,1,1.58.4h3.259v0.3c-0.8-.016-2.6-0.266-3.16.1l15.6-.1a2.145,2.145,0,0,0,.1-0.695,4.554,4.554,0,0,1-1.778-.893,12.275,12.275,0,0,1,1.877.794,5.09,5.09,0,0,1,.1-1.985,21.794,21.794,0,0,0,.2,5.16c0.262,0.954.86,1.787,1.086,2.679A1.94,1.94,0,0,1,79.21,32.5c-1,.726-3.6.4-5.235,0.4h-63.8c-0.213-1.1-.943-1.052-2.272-0.992a1.3,1.3,0,0,1-.691.1c-0.075.261-.118,0.237-0.2,0.5h-0.1l-0.1-.6a0.476,0.476,0,0,1-.3-0.1H6.42v-0.1a1.08,1.08,0,0,0,.494-0.2,1.943,1.943,0,0,1-.2-0.4,2.455,2.455,0,0,0-.691-0.2v0.2a2.129,2.129,0,0,1,.1.992,3.7,3.7,0,0,1-1.975.695,3.17,3.17,0,0,1-.3-1.786h0.1v-0.1H2.963c-0.769-.489-1.484-0.332-1.975-1.092-0.529-.684.074-1.654-0.1-2.084,0.244-.129.067,0.043,0.2-0.2H0.1v-0.1H0.3c0.461-.324.938-0.1,0.988-0.893l7.111,0.2c0.631,0,2.1.2,2.37-.2H9.383v-0.2a22.315,22.315,0,0,0,3.753-.1c0.19-.061.508-0.439,0.691-0.5l0.988,0.1a18.481,18.481,0,0,1,2.37-.4,1.42,1.42,0,0,0,.691.2v1.191h0.889a6.885,6.885,0,0,1,.1-1.389,35.731,35.731,0,0,1-3.753-.1v-0.3c1.132,0.014,2.918.273,3.852-.1,0.1-.039.5-0.367,0.593-0.4a0.567,0.567,0,0,1,.4.1l1.975-.2a2.727,2.727,0,0,1,.988-0.4,0.951,0.951,0,0,0,.691.4v0.992a2.033,2.033,0,0,0,.494.2v-1.29a1.546,1.546,0,0,0-.494-0.1,2.64,2.64,0,0,1,.4-1.588,3.376,3.376,0,0,0,0,.893,4.95,4.95,0,0,1,1.482-.4l0.1,0.6,1.383-.1V22.481l-1.087-.5c0.249-.145.153-0.044,0.2-0.4h-0.1v0.1c-0.067.077-.13,0.221-0.2,0.3l0.1-1.389h0.1v0.1c0.1,0.162.095,0.634,0.2,0.794a0.644,0.644,0,0,1,.1-0.4,1.553,1.553,0,0,0,0,.893v-0.4h0.4c-0.039-.576.065-0.225,0.3-0.6V19.6c0.028-.363.384-2.282,0-2.878a4.652,4.652,0,0,1-.3,1.886,0.481,0.481,0,0,0-.1-0.3,1.525,1.525,0,0,1,0,.992,0.356,0.356,0,0,0-.2-0.1v-0.5a8.906,8.906,0,0,0,.593-2.481h-0.1a7.176,7.176,0,0,1-1.778,1.786v-0.2l1.482-1.389c-0.055-.191-0.162-0.085,0-0.2a1.934,1.934,0,0,1,.4-0.2,1.287,1.287,0,0,1,.2-0.893,1.29,1.29,0,0,0,.1.695,8.159,8.159,0,0,1,1.975-.6c1.1-.369,2.261-0.692,3.457-1.092,2.97-.994,6.025-1.854,9.086-2.878a17.782,17.782,0,0,1,3.753-1.191v0.1L27.259,16.031v0.5a2.878,2.878,0,0,1,.3,1.885,3.159,3.159,0,0,0-.3-1.389l0.395,4.962a1.273,1.273,0,0,1,.691.1c-1.246.128-.42,1.808-0.691,2.084,0.076,0.068.22,0.13,0.3,0.2-0.676.291-.168,1.951-0.1,2.481h0.79v-0.2h0.1c0.479,0.274,2.192-.013,3.16.2v-0.3c-1.24-.081-2.5-0.194-3.852-0.2v-0.2c3.467,0.035,5.664-.782,8.593-0.695V26.55h-0.1v0.1a2.067,2.067,0,0,0-.988.1h0.1a2.672,2.672,0,0,0,1.185.1c0.012-1.817-.313-3.017-0.3-4.763,0.321-.082.151,0.049,0.3-0.2-0.19-.45.158-0.21,0.3-0.5V20a0.508,0.508,0,0,1-.1-0.3c0.258-.038.129,0.074,0.2-0.2a2.284,2.284,0,0,0,0-.4,5.87,5.87,0,0,0,1.679-.1,38.438,38.438,0,0,0,.3,6.252H39.8c-0.007-1.618-.285-5.115,0-6.252-0.29.039-.124,0.162-0.3-0.1h0.4c0.076,0.068.22,0.13,0.3,0.2h0.1v0.3l0.494-.1v0.1a0.6,0.6,0,0,0-.2.2c0.224-.04.107-0.091,0.3,0h-0.1a0.7,0.7,0,0,1-.4.2,0.481,0.481,0,0,0-.1-0.3v0.3a1.818,1.818,0,0,0,.1.6,1.028,1.028,0,0,1,.4-0.695h0.2v0.1a0.663,0.663,0,0,0-.4.6h0.1a1.575,1.575,0,0,1,.494-0.5v0.2a0.751,0.751,0,0,0-.4.5c-0.348-.042-0.3-0.2-0.494.1,0.369,0.012.241-.12,0.3,0.3,0.526-.007.578-0.026,0.988,0a15.016,15.016,0,0,1,.691-2.282h-0.1v0.1a2.489,2.489,0,0,1-1.086.794V19.5a1.049,1.049,0,0,0,.2-0.3,3.313,3.313,0,0,1,.889-0.6v-0.1c-0.281.032-.2,0.1-0.4,0h0.1a1.281,1.281,0,0,1,.79-0.3c0.076,0.7.366,1.241-.1,1.786a2.213,2.213,0,0,0-.2-0.992c-0.246,2.144-1.709,3.811-1.877,6.054h0.1a0.727,0.727,0,0,1,.593-0.2v-0.3a12.549,12.549,0,0,0,1.481.1,1.993,1.993,0,0,1,.593-0.4,0.481,0.481,0,0,0,.1.3c0-1.619-.139-3.772,0-5.061a2.725,2.725,0,0,1,1.877-.4v0.1h0.1a16.546,16.546,0,0,0-.1,2.779h0.593a0.644,0.644,0,0,0,.1.4c-0.016-.624-0.215-2.253.2-2.878a3.988,3.988,0,0,1,0,1.092h0.2a13.881,13.881,0,0,1,.2-1.886,0.481,0.481,0,0,0,.1.3v-0.3c-0.256-.41.138-1.156,0.2-1.687h-0.4a4.24,4.24,0,0,0-.79-0.992h0.2a1.971,1.971,0,0,0,.593.6,0.644,0.644,0,0,1,.1-0.4,2.008,2.008,0,0,0,.1.695h0.1V16.229h0.1v-0.1c-0.4-.04-1.284-0.2-1.284-0.2a0.507,0.507,0,0,1-.1-0.3h0.1a2.1,2.1,0,0,0,.988.1,5.146,5.146,0,0,1,.2-1.786c0.106-.434-0.064-1.376.1-1.985,0.04-.149-0.175-0.136-0.2-0.2V9.779h-0.1a0.58,0.58,0,0,1-.691.1c1.135-.118.845-1.578,0.79-2.779h0.1V7h0.1V9.481a0.358,0.358,0,0,1,.1.2l0.593,0.2v0.1h-0.3c-0.155-.123-0.05-0.064-0.2,0a1.08,1.08,0,0,0-.1.6,6.811,6.811,0,0,1,.494,1.489h-0.1a1.085,1.085,0,0,0-.2-0.3v0.5c0.2,0.3-.144,1.862.2,2.382A3.172,3.172,0,0,1,47.8,13.55c0,0.537-.075.611,0.3,0.695,0.22-.322.21-0.092,0.593,0-0.04-.225-0.091-0.108,0-0.3v0.1a0.71,0.71,0,0,1,.2.4c-0.25.038-.156-0.058-0.2,0.3a0.358,0.358,0,0,1,.1.2h0.3c0.083-.268.061,0.042,0.2-0.2a0.358,0.358,0,0,1,.1.2,1.714,1.714,0,0,1,.2.6c-0.258.038-.129-0.074-0.2,0.2h0.2s0.019-.388.1-0.2v0.2h0.1v0.1a2.612,2.612,0,0,0-1.086.2,1.576,1.576,0,0,0-.1.794c-0.8.151-.748,0.628-0.691,1.588A2.116,2.116,0,0,0,48.593,18.512ZM45.531,9.977a0.476,0.476,0,0,1,.3.1A0.476,0.476,0,0,1,45.531,9.977Zm1.481,0a0.358,0.358,0,0,1,.1.2h-0.1v-0.2Zm0.494,0h0.2v0.1A0.338,0.338,0,0,1,47.506,9.977Zm0.2,0.1h0.2v0.1A0.338,0.338,0,0,1,47.7,10.076Zm-0.593.1a0.358,0.358,0,0,1,.1.2h-0.1v-0.2Zm0.79,0h0.2v0.1A0.338,0.338,0,0,1,47.9,10.176Zm0.2,0.1h0.2v0.1A0.337,0.337,0,0,1,48.1,10.275Zm-0.889.1a0.359,0.359,0,0,1,.1.2h-0.1v-0.2Zm1.086,0a10.7,10.7,0,0,1,1.679.695v0.1h-0.3C49.3,10.821,48.666,10.731,48.3,10.374Zm-0.988.2a0.358,0.358,0,0,1,.1.2h-0.1v-0.2Zm0.1,0.2a1.993,1.993,0,0,1,.494,1.092H47.8v-0.2A1.5,1.5,0,0,1,47.407,10.771Zm2.568,0.4h0.2v0.1A0.338,0.338,0,0,1,49.975,11.168Zm0.2,0.1h0.2v0.1A0.338,0.338,0,0,1,50.173,11.267Zm0.2,0.1h0.2v0.1A0.337,0.337,0,0,1,50.37,11.366Zm0.2,0.1h0.2v0.1A0.338,0.338,0,0,1,50.568,11.466Zm0.2,0.1h0.2v0.1A0.338,0.338,0,0,1,50.765,11.565Zm0.2,0.1a10.7,10.7,0,0,1,1.679.695v0.1h-0.3C51.967,12.111,51.332,12.021,50.963,11.664Zm-3.062.2a0.358,0.358,0,0,1,.1.2H47.9v-0.2Zm-0.494.2a0.384,0.384,0,0,1,.2.3h-0.1v-0.1A0.358,0.358,0,0,1,47.407,12.061Zm0.593,0a0.359,0.359,0,0,1,.1.2H48v-0.2Zm0.1,0.2a0.359,0.359,0,0,1,.1.2H48.1v-0.2Zm-0.494.1a3.465,3.465,0,0,1,.3.3v0.2H47.8v-0.1A0.71,0.71,0,0,1,47.6,12.359Zm0.593,0.1a0.358,0.358,0,0,1,.1.2H48.2v-0.2Zm4.445,0h0.2v0.1A0.338,0.338,0,0,1,52.642,12.458Zm0.2,0.1h0.2v0.1A0.339,0.339,0,0,1,52.84,12.557Zm-4.543.1a0.359,0.359,0,0,1,.1.2H48.3v-0.2Zm4.741,0h0.2v0.1A0.338,0.338,0,0,1,53.037,12.657Zm0.2,0.1h0.2v0.1A0.338,0.338,0,0,1,53.235,12.756Zm-5.333.1a0.384,0.384,0,0,1,.2.3H48v-0.1A0.358,0.358,0,0,1,47.9,12.855Zm0.494,0a1.994,1.994,0,0,1,.494,1.092h-0.1v-0.2A1.5,1.5,0,0,1,48.4,12.855Zm5.037,0a10.692,10.692,0,0,1,1.679.695v0.1h-0.3C54.437,13.3,53.8,13.212,53.432,12.855Zm-5.333.3a3.479,3.479,0,0,1,.3.3v0.2H48.3v-0.1A0.709,0.709,0,0,1,48.1,13.153Zm-0.494.2h0.2v0.1A0.338,0.338,0,0,1,47.6,13.351Zm-1.185.3a0.342,0.342,0,0,1,0,.4h-0.1v-0.2A0.358,0.358,0,0,0,46.42,13.649Zm1.975,0a0.384,0.384,0,0,1,.2.3h-0.1v-0.1A0.358,0.358,0,0,1,48.4,13.649Zm6.716,0h0.2v0.1A0.338,0.338,0,0,1,55.111,13.649Zm0.2,0.1h0.2v0.1A0.338,0.338,0,0,1,55.309,13.748Zm0.2,0.1h0.2v0.1A0.338,0.338,0,0,1,55.506,13.847Zm-6.617.1a0.359,0.359,0,0,1,.1.2h-0.1v-0.2Zm6.815,0h0.2v0.1A0.338,0.338,0,0,1,55.7,13.947Zm-9.481.1a0.358,0.358,0,0,1,.1.2h-0.1v-0.2Zm9.679,0h0.2v0.1A0.338,0.338,0,0,1,55.9,14.046Zm-6.914.1a0.359,0.359,0,0,1,.1.2h-0.1v-0.2Zm7.111,0a10.7,10.7,0,0,1,1.679.695v0.1h-0.3c-0.352-.346-0.469-0.223-0.889-0.1v-0.1a0.6,0.6,0,0,0,.2-0.2h-0.1C56.523,14.384,56.265,14.306,56.1,14.145Zm-9.975.1a0.358,0.358,0,0,1,.1.2h-0.1v-0.2Zm2.963,0.1a0.358,0.358,0,0,1,.1.2h-0.1v-0.2Zm-3.062.1a0.359,0.359,0,0,1,.1.2h-0.1v-0.2Zm2.864,0a0.384,0.384,0,0,1,.2.3h-0.1v-0.1A0.358,0.358,0,0,1,48.889,14.443Zm0.3,0.1a0.358,0.358,0,0,1,.1.2h-0.1v-0.2Zm-3.259.1a0.358,0.358,0,0,1,.1.2h-0.1v-0.2Zm-0.1.2a0.358,0.358,0,0,1,.1.2h-0.1v-0.2Zm11.951,0.1h0.2v0.1A0.338,0.338,0,0,1,57.778,14.939Zm-12.049.1a0.359,0.359,0,0,1,.1.2h-0.1v-0.2Zm10.469,0h0.2c-0.038.063-.321,0.534-0.494,0.4Zm1.778,0h0.2v0.1A0.338,0.338,0,0,1,57.975,15.038Zm0.2,0.1h0.2v0.1A0.337,0.337,0,0,1,58.173,15.137Zm-12.543.1a0.358,0.358,0,0,1,.1.2h-0.1v-0.2Zm12.741,0h0.2v0.1A0.338,0.338,0,0,1,58.37,15.237Zm0.2,0.1a12.261,12.261,0,0,1,1.877.794v0.1h-0.3C59.717,15.835,58.988,15.742,58.568,15.336Zm-13.037.1a0.358,0.358,0,0,1,.1.2h-0.1v-0.2Zm9.975,0.2h0.2a0.91,0.91,0,0,1-.593.5Zm-8.3.3v0.2h0.1v-0.2h-0.1Zm7.6,0.3h0.2a0.909,0.909,0,0,1-.593.5Zm5.63,0h0.2v0.1A0.337,0.337,0,0,1,60.444,16.229Zm-34.37.1a0.477,0.477,0,0,1,.3.1h-0.2c-0.17.087-.126,0.088-0.3,0A0.338,0.338,0,0,0,26.074,16.328Zm34.568,0h0.2v0.1h-0.2v-0.1Zm0.2,0.1h0.2v0.1A0.338,0.338,0,0,1,60.84,16.428Zm-35.259.1a0.475,0.475,0,0,1,.3.1h-0.2c-0.17.087-.126,0.088-0.3,0A0.337,0.337,0,0,0,25.58,16.527Zm35.457,0h0.2v0.1A0.338,0.338,0,0,1,61.037,16.527Zm0.2,0.1a10.692,10.692,0,0,1,1.679.695v0.1h-0.3C62.239,17.073,61.6,16.983,61.235,16.626Zm-36.148.1a0.476,0.476,0,0,1,.3.1h-0.2c-0.17.087-.126,0.088-0.3,0A0.338,0.338,0,0,0,25.086,16.725Zm29.037,0.1h0.2a0.909,0.909,0,0,1-.593.5Zm-29.531.1a0.476,0.476,0,0,1,.3.1h-0.2c-0.17.087-.126,0.088-0.3,0A0.338,0.338,0,0,0,24.593,16.924Zm21.728,0.1a2.446,2.446,0,0,1-.1,1.687Zm-22.222.1a0.477,0.477,0,0,1,.3.1H24.2c-0.17.087-.126,0.088-0.3,0A0.338,0.338,0,0,0,24.1,17.122Zm22.815,0.1a0.644,0.644,0,0,0,.1.4A0.643,0.643,0,0,0,46.914,17.221Zm-23.309.1a0.476,0.476,0,0,1,.3.1H23.7c-0.17.088-.126,0.088-0.3,0A0.337,0.337,0,0,0,23.6,17.321Zm23.7,0.1a2.1,2.1,0,0,0,.1.992A2.1,2.1,0,0,0,47.309,17.42Zm6.124,0h0.2a0.909,0.909,0,0,1-.593.5Zm9.482,0h0.2v0.1A0.338,0.338,0,0,1,62.914,17.42Zm-39.8.1a0.476,0.476,0,0,1,.3.1h-0.2c-0.17.087-.126,0.088-0.3,0A0.338,0.338,0,0,0,23.111,17.519Zm40,0h0.2v0.1A0.338,0.338,0,0,1,63.111,17.519Zm0.2,0.1h0.2v0.1A0.338,0.338,0,0,1,63.309,17.618Zm-40.691.1a0.476,0.476,0,0,1,.3.1h-0.2c-0.17.087-.126,0.088-0.3,0A0.338,0.338,0,0,0,22.617,17.718Zm24.2,0a0.482,0.482,0,0,0,.1.3A0.481,0.481,0,0,0,46.815,17.718Zm16.691,0h0.2v0.1A0.338,0.338,0,0,1,63.506,17.718Zm0.2,0.1h0.2v0.1A0.338,0.338,0,0,1,63.7,17.817Zm-41.58.1a0.476,0.476,0,0,1,.3.1h-0.2c-0.17.087-.126,0.088-0.3,0A0.338,0.338,0,0,0,22.124,17.916Zm41.778,0a10.7,10.7,0,0,1,1.679.695v0.1h-0.3C64.906,18.363,64.271,18.273,63.9,17.916Zm-38.914.1a0.291,0.291,0,0,1,0,.4v-0.4Zm2.173,3.573h0.3a13.93,13.93,0,0,0-.3-3.573v3.573Zm19.951-3.573a1.691,1.691,0,0,1-.1.6h0.2v-0.6h-0.1Zm-25.481.1a0.476,0.476,0,0,1,.3.1h-0.2c-0.17.088-.126,0.088-0.3,0A0.337,0.337,0,0,0,21.63,18.115Zm31.012,0h0.2c-0.038.063-.321,0.534-0.494,0.4Zm-27.259.1a0.291,0.291,0,0,1,0,.4v-0.4Zm-4.247.1a0.476,0.476,0,0,1,.3.1h-0.2c-0.17.087-.126,0.088-0.3,0A0.338,0.338,0,0,0,21.136,18.313Zm3.753,0.1a1.556,1.556,0,0,1-.2,1.29Zm2.765,0a4.084,4.084,0,0,1,.4,2.382Zm-7.012.1a0.476,0.476,0,0,1,.3.1h-0.2c-0.17.087-.126,0.088-0.3,0A0.339,0.339,0,0,0,20.642,18.512Zm26.667,0a0.356,0.356,0,0,0,.2.1A0.356,0.356,0,0,0,47.309,18.512Zm-21.827.1a0.4,0.4,0,0,1,0,.5v-0.5Zm16.1,0h0.2l-0.1.2-0.889.5v-0.1h0.1C41.084,18.957,41.386,18.861,41.58,18.611Zm-21.432.1a0.475,0.475,0,0,1,.3.1h-0.2c-0.17.087-.126,0.088-0.3,0A0.337,0.337,0,0,0,20.148,18.71Zm25.975,0a0.83,0.83,0,0,1,0,.794V18.71Zm1.679,0v0.2H48v-0.2H47.8Zm4.148,0h0.2c-0.038.063-.321,0.534-0.494,0.4Zm13.63,0h0.2v0.1A0.338,0.338,0,0,1,65.58,18.71Zm-39.111.1a0.482,0.482,0,0,0,.1.3v-0.3h-0.1Zm39.309,0h0.2v0.1A0.338,0.338,0,0,1,65.778,18.809Zm-46.123.1a0.476,0.476,0,0,1,.3.1h-0.2a6.875,6.875,0,0,1-2.568.893h0.2C18.009,19.423,19.047,19.408,19.654,18.908Zm46.321,0h0.2v0.1h-0.2v-0.1Zm0.2,0.1h0.2v0.1A0.338,0.338,0,0,1,66.173,19.008Zm-40.593.1a0.4,0.4,0,0,1,0,.5v-0.5Zm16.988,0v0.2h0.2v-0.2h-0.2Zm3.753,0a0.291,0.291,0,0,1,0,.4v-0.4Zm20.049,0a10.692,10.692,0,0,1,1.679.695v0.1h-0.3C67.375,19.554,66.74,19.464,66.37,19.107Zm-40.1.1a0.4,0.4,0,0,1,0,.5v-0.5Zm0.2,0.1a0.4,0.4,0,0,1,0,.5v-0.5Zm14.519,0h0.2v0.1h-0.1C41.018,19.418,40.894,19.41,40.988,19.305Zm0.593,0c0.123,0.155.063,0.051,0,.2a1.207,1.207,0,0,1-.395.4A2.047,2.047,0,0,1,41.58,19.305Zm9.679,0h0.2c-0.038.063-.321,0.534-0.494,0.4Zm-25.58.3a0.4,0.4,0,0,1,0,.5V19.6Zm20.543,0a0.291,0.291,0,0,1,0,.4V19.6Zm-21.63.1a0.291,0.291,0,0,1,0,.4V19.7Zm1.58,0a0.4,0.4,0,0,1,0,.5V19.7ZM46.914,20c0.354-.041.248,0.047,0.395-0.2l-0.395-.1V20Zm-0.2-.2-0.1.794h0.2A1.546,1.546,0,0,0,46.716,19.8Zm-20.346.1a0.4,0.4,0,0,1,0,.5V19.9Zm24.2,0h0.2a0.909,0.909,0,0,1-.593.5Zm17.482,0h0.2V20A0.338,0.338,0,0,1,68.049,19.9ZM16.889,20a0.476,0.476,0,0,1,.3.1h-0.2c-0.17.087-.126,0.088-0.3,0A0.338,0.338,0,0,0,16.889,20Zm51.358,0h0.2v0.1A0.338,0.338,0,0,1,68.247,20Zm-43.753.1a1.556,1.556,0,0,1-.2,1.29Zm1.284,0a0.4,0.4,0,0,1,0,.5V20.1Zm42.667,0h0.2v0.1A0.338,0.338,0,0,1,68.444,20.1ZM16.4,20.2a0.476,0.476,0,0,1,.3.1h-0.2c-0.17.087-.126,0.088-0.3,0A0.338,0.338,0,0,0,16.4,20.2Zm9.679,0a0.4,0.4,0,0,1,0,.5V20.2Zm42.568,0h0.2v0.1A0.338,0.338,0,0,1,68.642,20.2Zm0.2,0.1h0.2v0.1A0.337,0.337,0,0,1,68.84,20.3ZM15.9,20.4a0.477,0.477,0,0,1,.3.1H16c-0.17.087-.126,0.088-0.3,0A0.338,0.338,0,0,0,15.9,20.4Zm53.136,0a10.7,10.7,0,0,1,1.679.695v0.1h-0.3C70.041,20.844,69.406,20.754,69.037,20.4Zm-42.765.1a0.527,0.527,0,0,1,0,.6V20.5Zm23.6,0h0.2a0.91,0.91,0,0,1-.593.5Zm-34.469.1a0.475,0.475,0,0,1,.3.1h-0.2c-0.17.087-.126,0.088-0.3,0A0.338,0.338,0,0,0,15.407,20.6Zm25.383,0a0.375,0.375,0,0,1,.3.2h0.1v0.1A0.534,0.534,0,0,1,40.79,20.6Zm5.333,0.1a1.823,1.823,0,0,0-.1.6h0.1v-0.2A0.291,0.291,0,0,0,46.124,20.695Zm0.691,0.6h0.3a0.567,0.567,0,0,1,.2-0.6H46.914A1.823,1.823,0,0,0,46.815,21.29Zm-31.9-.5a0.476,0.476,0,0,1,.3.1h-0.2c-0.17.087-.126,0.088-0.3,0A0.338,0.338,0,0,0,14.914,20.794Zm13.234,0a2.955,2.955,0,0,1,.3,1.191h-0.1v-0.2A1.93,1.93,0,0,1,28.148,20.794Zm12.247,0.3a0.481,0.481,0,0,0-.1-0.3v0.3c0.23,0.611-.357,2.641.1,3.374l1.086-3.275H40.988A1.066,1.066,0,0,0,40.4,21.092Zm-25.975-.1a0.476,0.476,0,0,1,.3.1h-0.2c-0.17.087-.126,0.088-0.3,0A0.338,0.338,0,0,0,14.42,20.992Zm34.765,0.1h0.2a0.91,0.91,0,0,1-.593.5Zm-35.259.1a0.477,0.477,0,0,1,.3.1h-0.2c-0.17.087-.126,0.088-0.3,0A0.338,0.338,0,0,0,13.926,21.191Zm56.79,0h0.2v0.1A0.338,0.338,0,0,1,70.716,21.191Zm0.2,0.1h0.2v0.1A0.338,0.338,0,0,1,70.914,21.29Zm-57.482.1a0.476,0.476,0,0,1,.3.1h-0.2c-0.17.088-.126,0.088-0.3,0A0.337,0.337,0,0,0,13.432,21.389Zm10.765,0a1.556,1.556,0,0,1-.2,1.29Zm46.914,0h0.2v0.1A0.337,0.337,0,0,1,71.111,21.389Zm0.2,0.1h0.2v0.1A0.338,0.338,0,0,1,71.309,21.489Zm-58.37.1a0.476,0.476,0,0,1,.3.1h-0.2c-0.17.087-.126,0.088-0.3,0A0.338,0.338,0,0,0,12.938,21.588Zm58.568,0a10.711,10.711,0,0,1,1.679.695v0.1h-0.3C72.511,22.035,71.876,21.944,71.506,21.588Zm-44.049.1a0.481,0.481,0,0,0,.1.3A0.482,0.482,0,0,0,27.457,21.687Zm-15.012.1a0.476,0.476,0,0,1,.3.1h-0.2c-0.17.087-.126,0.088-0.3,0A0.337,0.337,0,0,0,12.444,21.786Zm33.877,0.1-0.1.5h0.4a0.644,0.644,0,0,1,.1-0.4,0.644,0.644,0,0,0,.1.4,1.429,1.429,0,0,1,.1-0.5H46.321Zm-34.37.1a0.475,0.475,0,0,1,.3.1h-0.2c-0.17.087-.126,0.088-0.3,0A0.338,0.338,0,0,0,11.951,21.985Zm-0.494.2a0.476,0.476,0,0,1,.3.1h-0.2c-0.17.088-.126,0.088-0.3,0A0.337,0.337,0,0,0,11.457,22.183Zm-0.494.2a0.476,0.476,0,0,1,.3.1h-0.2c-0.17.087-.126,0.088-0.3,0A0.338,0.338,0,0,0,10.963,22.382Zm16.3,0a3.271,3.271,0,0,0,.1,1.389C27.407,23.337,27.64,22.622,27.259,22.382Zm45.926,0h0.2v0.1A0.338,0.338,0,0,1,73.185,22.382Zm0.2,0.1h0.2v0.1h-0.2v-0.1Zm-62.914.1a0.476,0.476,0,0,1,.3.1h-0.2c-0.17.087-.126,0.088-0.3,0A0.339,0.339,0,0,0,10.469,22.58Zm63.111,0h0.2v0.1A0.339,0.339,0,0,1,73.58,22.58Zm0.2,0.1h0.2v0.1A0.338,0.338,0,0,1,73.778,22.679Zm-63.8.1a0.475,0.475,0,0,1,.3.1h-0.2c-0.17.087-.126,0.088-0.3,0A0.338,0.338,0,0,0,9.975,22.779Zm64,0h0.2v0.1A0.338,0.338,0,0,1,73.975,22.779Zm-27.259.1a3.032,3.032,0,0,1-.1.695h0.2v-0.5h0.1c0.1-.1-0.1-0.1-0.1-0.1v-0.1h-0.1Zm27.457,0a10.693,10.693,0,0,1,1.679.695v0.1h-0.3C75.177,23.325,74.542,23.235,74.173,22.878Zm-64.691.1a0.476,0.476,0,0,1,.3.1H9.58c-0.17.087-.126,0.088-0.3,0A0.338,0.338,0,0,0,9.481,22.977Zm35.753,0v1.886h0.1v-0.2a3.022,3.022,0,0,0,.3-1.389A1.885,1.885,0,0,0,45.235,22.977Zm1.185,0a1.032,1.032,0,0,0-.494.893h-0.1v0.1H46.42v-0.2a1.939,1.939,0,0,0,.2-0.794h-0.2Zm4.247,0.1a0.287,0.287,0,0,0,.4,0h-0.4Zm-41.679.1a0.476,0.476,0,0,1,.3.1h-0.2c-0.17.087-.126,0.088-0.3,0A0.338,0.338,0,0,0,8.988,23.176Zm-0.494.2a0.477,0.477,0,0,1,.3.1h-0.2c-0.17.087-.126,0.088-0.3,0A0.338,0.338,0,0,0,8.494,23.374ZM0.1,24.466a1.949,1.949,0,0,1,0-.6,5.956,5.956,0,0,0,1.086-.4v0.695a6.008,6.008,0,0,1,.2,2.183,0.355,0.355,0,0,1-.2.1V25.16a1.577,1.577,0,0,1-.1-0.794h-0.2A1.554,1.554,0,0,1,.1,24.466ZM8,23.573a0.475,0.475,0,0,1,.3.1H8.1c-0.17.087-.126,0.088-0.3,0A0.338,0.338,0,0,0,8,23.573Zm38.124,0h0.2l-0.1.2h0.1a0.356,0.356,0,0,1-.2.1v-0.3Zm0.593,0.1-0.1.3h0.2A0.481,0.481,0,0,0,46.716,23.672Zm29.136,0h0.2v0.1A0.337,0.337,0,0,1,75.852,23.672Zm-68.346.1a0.476,0.476,0,0,1,.3.1H7.6a9.682,9.682,0,0,1-3.062,1.092h0.2C5.5,24.382,6.768,24.379,7.506,23.771Zm68.543,0h0.2v0.1A0.338,0.338,0,0,1,76.049,23.771Zm-50.469.1v0.4h0.691a0.481,0.481,0,0,0-.1-0.3A1.065,1.065,0,0,0,25.58,23.87Zm50.667,0h0.2v0.1A0.338,0.338,0,0,1,76.247,23.87Zm-49.58.1a0.382,0.382,0,0,0,.3.2v-0.2h-0.3Zm49.778,0h0.2v0.1A0.338,0.338,0,0,1,76.444,23.97Zm-39.6.5a0.355,0.355,0,0,0,.2.1A0.356,0.356,0,0,0,36.84,24.466Zm8.79,0.3a0.644,0.644,0,0,0,.1.4A0.643,0.643,0,0,0,45.63,24.763Zm-41.383.3a0.476,0.476,0,0,1,.3.1h-0.2c-0.17.087-.126,0.088-0.3,0A0.338,0.338,0,0,0,4.247,25.061Zm36.049,0v0.2h0.1v-0.2H40.3Zm-36.543.2a0.477,0.477,0,0,1,.3.1h-0.2c-0.17.087-.126,0.088-0.3,0A0.338,0.338,0,0,0,3.753,25.26Zm-0.494.2a0.475,0.475,0,0,1,.3.1h-0.2c-0.17.087-.126,0.088-0.3,0A0.338,0.338,0,0,0,3.259,25.458Zm20.346,0.4v-0.3H22.519v0.1h0.1A5.561,5.561,0,0,0,23.6,25.855Zm-20.839-.2a0.476,0.476,0,0,1,.3.1h-0.2c-0.17.087-.126,0.088-0.3,0A0.338,0.338,0,0,0,2.765,25.657Zm74.765,0.1v0.1h-0.1c-0.19.077,0.2,0.1,0.2,0.1,0.129-.062.425,0.161,0.593-0.2H77.531Zm-75.259.1a0.476,0.476,0,0,1,.3.1H2.37c-0.17.087-.126,0.088-0.3,0A0.338,0.338,0,0,0,2.272,25.855Zm68.938,0a0.832,0.832,0,0,0,.593.2v-0.2H71.21Zm-69.432.2a0.477,0.477,0,0,1,.3.1h-0.2c-0.17.087-.126,0.088-0.3,0A0.338,0.338,0,0,0,1.778,26.053Zm75.358,0c0.17,0.087.126,0.088,0.3,0h-0.3Zm-66.173.5c0.054,0.316,1.132.218,1.778,0.2a0.356,0.356,0,0,0,.2.1v-0.1C12.447,26.591,11.453,26.714,10.963,26.55Zm-6.519.2c0.082,0.322-.048.152,0.2,0.3,0.2-.3.1,0.1,0.3-0.2h0.2v-0.1H4.444Zm-1.383.695c0.082,0.322-.048.152,0.2,0.3v-0.3h-0.2Zm2.667,0v0.2h0.2v-0.2h-0.2Zm-5.333.3a0.358,0.358,0,0,1,.1.2H0.4v-0.2Zm-0.2.4a1.15,1.15,0,0,1,.593.2C0.4,28.339.346,28.385,0.2,28.137Z" transform="translate(-0.094 0.016)"/>
</svg>
