<svg xmlns="http://www.w3.org/2000/svg" width="79.969" height="40" viewBox="0 0 79.969 40">
  <defs>
    <style>
      .cls-1 {
        fill: #fff;
        fill-rule: evenodd;
      }
    </style>
  </defs>
  <path id="Color_Fill_1" data-name="Color Fill 1" class="cls-1" d="M28.538,16.571V16.191h0.19v0.762a0.486,0.486,0,0,1,.1.286H28.347v6.952H29.2v0.286h1.142v0.191h0.1v0.1a2.833,2.833,0,0,0-1.237.1H30.63v-0.1a0.882,0.882,0,0,1,0-.762h-0.1a4.447,4.447,0,0,1-1.9-.191,14,14,0,0,0,2.188,0V23.619h-0.1v-0.1a1.475,1.475,0,0,1-.761-0.1,0.852,0.852,0,0,0,.856-0.286,5.6,5.6,0,0,1-2.188-.1c0.976-.014,3.878-0.279,4.471.1a14.207,14.207,0,0,1-2.188,0v0.1h0.1v0.1a3.723,3.723,0,0,1,.666.191,2.249,2.249,0,0,0-.761.1V23.81h0.19c0.374,0.2,1.5-.213,2,0.1a13.116,13.116,0,0,1-2,.1v0.1a1.023,1.023,0,0,0,.19.762V24.476h1.9l0.285-1.619H32.628a1.5,1.5,0,0,0-.761-0.1l0.1-.762h-0.1c-0.18.15-.2,0.18-0.381,0.1h-0.1V22a1.242,1.242,0,0,0,.571-0.381h-0.1a0.64,0.64,0,0,1-.381.1V21.429a4.1,4.1,0,0,0,1.237-.381c0.5-.133.493,0.307,0.951,0.191a4.316,4.316,0,0,1,1.332-.571v0.571H35.2a5.74,5.74,0,0,0,1.237.191v-2c0.067-.147.012-0.013,0-0.286h2.378A2.68,2.68,0,0,0,39,20.191c-0.133.02,0.038-.078-0.1-0.1-0.074-.183-0.1.191-0.1,0.191,0.3,0,.128-0.161.285,0.1a1.069,1.069,0,0,1,.38.667c-0.328-.006-0.393-0.015-0.38.571a0.343,0.343,0,0,1,.1.191,0.614,0.614,0,0,1,.38.1H39v0.286h0.19a0.766,0.766,0,0,0,.666,0V21.714a0.883,0.883,0,0,1-.381-0.667h0.1v0.1a1.1,1.1,0,0,1,.19.286h0.1V21.143h0.285v0.381h0.19V21.143h0.285v0.381h0.19V21.143h0.285v0.381h0.19V21.143a5.182,5.182,0,0,0,1.332.19c-0.04-1.172-.2-2.674.38-2.857a12.868,12.868,0,0,0,1.9,0,1.69,1.69,0,0,1,.19-0.381,0.378,0.378,0,0,0,.19.381,1.35,1.35,0,0,1-.1-0.381h0.1v0.191a4.93,4.93,0,0,0,.1.952,1.207,1.207,0,0,1,.1-0.381h0.1c-0.008.386-.156,0.227,0.1,0.381a1.367,1.367,0,0,1,.1-0.476h-0.1v0.1c-0.074.183-.1-0.19-0.1-0.19,0.424-.474.269-1.485,0.666-2a1.147,1.147,0,0,0,0,.762,3.641,3.641,0,0,1,.38-1.238c-0.21.049-.189,0.107-0.38,0h0.19a4.357,4.357,0,0,0,.571-0.667,2.349,2.349,0,0,0,0-1.333h0.1v0.1a0.486,0.486,0,0,1,.1.286h0.476V14.1a1.04,1.04,0,0,0,.285-0.19,0.326,0.326,0,0,1,.19.1,0.548,0.548,0,0,1,.19.571H48.8a0.461,0.461,0,0,0,.1.286c0.858,0.567,2.187.516,3.234,0.857,2.041,0.664,4.239,1.02,6.373,1.714,4.127,1.343,8.537,2.062,12.747,3.428,1.57,0.51,3.284.794,4.946,1.333a16.839,16.839,0,0,0,3.52.952,0.461,0.461,0,0,1-.1.286c-0.354-.518-1.525-0.45-2.188-0.667-1.924-.629-3.971-1-5.993-1.619-3.556-1.1-7.406-1.9-10.939-3.048-1.234-.4-2.375-0.454-3.615-0.857-1.575-.512-3.277-0.792-4.946-1.333a14.825,14.825,0,0,0-3.139-.857,1.75,1.75,0,0,0-.1.571h0.1v0.1h0.285c-0.014,2.05.132,3.821,0.285,5.9h0.1a0.486,0.486,0,0,1,.285-0.1,0.8,0.8,0,0,0,.1.476,0.618,0.618,0,0,1,.285-0.476h-0.1l-0.1-.286H49.655V20.571h0.666c0.131,0.292-.013.277,0.571,0.286v0.1h0.1a3.546,3.546,0,0,1,.285.571,0.327,0.327,0,0,0-.19.1,2.974,2.974,0,0,1,.951.1V22h0.285v0.381H52.033v1.238H53.27V23.048a2.247,2.247,0,0,1-.761-0.1c0.06-.19.074-0.727,0.1-0.762a5.843,5.843,0,0,1,2.378,0,23.364,23.364,0,0,0,4.661.381v0.191h-0.1v0.1a7.9,7.9,0,0,0-3.139.1,2.843,2.843,0,0,0,.1,1.238,1.166,1.166,0,0,1,.19-1.048v0.19a2.312,2.312,0,0,0-.1,1.048,12.689,12.689,0,0,1,1.9,0V24a1.916,1.916,0,0,0-.666.1,4.022,4.022,0,0,1-.285-1.048,8.855,8.855,0,0,1,2.093.191c0.39,0.086,1.014-.17,1.237-0.1v0.19l0.476-.1a4.334,4.334,0,0,0,.38.286c0.959,0.271,2.48-.188,3.044.1a0.343,0.343,0,0,1,.1.191H62.021a1.864,1.864,0,0,1-.38.191v0.191a1.466,1.466,0,0,0,.666.191c1.12-.7,2.674.258,4.281-0.1,1.986-.437,4.135-0.019,6.183-0.286,0.477-.062,1.925.056,2.568-0.1l3.234-.1a3.168,3.168,0,0,0,1.142-.1V24.1c0.079,0.139-.633,1.656-0.38,2.572A6.993,6.993,0,0,1,80,29.619a6.506,6.506,0,0,1-2.473.191c-0.444.274-4.338,0.1-5.232,0.1H7.61a6.017,6.017,0,0,1-.476-0.476,3.955,3.955,0,0,0-1.522-.1l-0.19.381h-0.1c-0.04-.341.045-0.24-0.19-0.381V29.81H2.854V29.619A3.944,3.944,0,0,1,2.568,28.1,2,2,0,0,0,3.52,28c-1.1.041-2.986-.129-3.329-0.857-0.337-.387-0.019-2.272.1-2.667h0.1v0.476a14.757,14.757,0,0,1,1.9.1l6.659,0.1c0.752,0,2.937.367,3.52,0a29.378,29.378,0,0,0-3.044-.1V24.857a8.774,8.774,0,0,0,3.425-.381c0.087-.042,1.62,0,2.093-0.1-0.024-.362-0.193-0.33.1-0.476a0.27,0.27,0,0,0,.1.1,1.348,1.348,0,0,0-.1.381,2.251,2.251,0,0,1,1.046-.191,0.392,0.392,0,0,0,.381.191v0.857h0.38a6.077,6.077,0,0,1,.1-1.714,1.423,1.423,0,0,0,1.046,0,0.8,0.8,0,0,1-.476-0.1c0.681-.016.7-0.236,1.332-0.286a0.563,0.563,0,0,0,.285.476,1.5,1.5,0,0,1,.761-0.1V23.9h0.1V24a0.327,0.327,0,0,0,.19-0.1,2.723,2.723,0,0,0,.19-0.476,4.835,4.835,0,0,0-.761-0.476l0.1-.286a8.452,8.452,0,0,0,2.283-.191v-0.1a0.46,0.46,0,0,1-.285-0.1,4.664,4.664,0,0,1,1.141,0v0.381h0.476A2.062,2.062,0,0,0,23.115,22a1.2,1.2,0,0,1,.38.1,0.616,0.616,0,0,1,.1-0.381,0.342,0.342,0,0,0,.19.1,1.041,1.041,0,0,0,.1.572v-0.1c0.065-.073.125-0.212,0.19-0.286,0.04,0.341-.045.24,0.19,0.381V22.191C24.248,22.18,24.067,22,24.067,22V21.81c0.016-.017.452-0.881,0-1.048v-0.1h0.1a0.546,0.546,0,0,1,.571-0.191,1.747,1.747,0,0,1,.1.571,1.872,1.872,0,0,0-.19,1.238c0.2,0,.235.067,0.666,0.1,0.365-1.7,1.372-3.724,1.332-5.429H25.684V16.286a5.347,5.347,0,0,0,1.141-.1,4.88,4.88,0,0,1,.285-2.1l-0.285,3.143H27.3V17.048a4.9,4.9,0,0,0,.1-1.809c0-1.533-.37-4.2.285-5.238-0.014,2.311.19,4.474,0.285,6.476h0.19A0.641,0.641,0,0,0,28.538,16.571Zm-0.666-2.1,4.661,0.381h1.9c0.8,0.174,2.027-.1,2.949.1a21.848,21.848,0,0,0,4.09.1l4-.19a3.893,3.893,0,0,1,1.522,0,0.622,0.622,0,0,0-.476.19,1.517,1.517,0,0,1,.476.476H46.8a1.358,1.358,0,0,0-1.522-.571,15.061,15.061,0,0,1-3.615.19c-2.486,0-5.613.283-7.8-.19-0.559-.121-1.367,0-1.807-0.1C30.966,14.621,28.531,15.045,27.872,14.476Zm-0.285.286a5.453,5.453,0,0,0,.1,2.1A5.449,5.449,0,0,0,27.586,14.762ZM46.9,19.238a0.8,0.8,0,0,1,.1-0.476,0.8,0.8,0,0,0,.1.476l0.381-2.476a1,1,0,0,1-.571-0.1,0.7,0.7,0,0,0,.571-0.857h-0.1c-0.073.065-.212,0.125-0.285,0.191a11.536,11.536,0,0,0-1.141,3.238H46.9Zm2.093-2.952V15.81H48.419a1.035,1.035,0,0,1-.476.381v0.1h0.285c0.14-.242.2-0.191,0.571-0.191C48.836,16.344,48.728,16.22,48.989,16.286Zm-21.213,0a2.005,2.005,0,0,0,.1.952A2.005,2.005,0,0,0,27.777,16.286ZM45.47,16.762a0.461,0.461,0,0,1-.1.286V16.667a1.963,1.963,0,0,1,.856-0.381v0.1H46.04a0.679,0.679,0,0,1-.38.19v0.1a0.614,0.614,0,0,1,.38.1H45.47Zm-17.5-.191a0.946,0.946,0,0,0,.19.572A0.69,0.69,0,0,0,27.967,16.571Zm-0.856.191a0.344,0.344,0,0,1,.1.191h-0.1V16.762Zm18.454,0.1a0.486,0.486,0,0,1,.1.286h-0.1V16.857Zm0.19,0a0.487,0.487,0,0,1,.1.286h-0.1V16.857Zm3.234,0.381V16.857l-0.666.1v0.191A0.928,0.928,0,0,1,48.989,17.238Zm-3.71-.191a0.56,0.56,0,0,1-.1.667Zm2.759,0-0.1.286h0.1a0.582,0.582,0,0,1,.19-0.19A0.343,0.343,0,0,0,48.038,17.048Zm-2.568.1a0.486,0.486,0,0,1,.1.286h-0.1V17.143Zm0.19,0a0.486,0.486,0,0,1,.1.286h-0.1V17.143ZM26.159,20.1H26.73v0.381h0.19a0.669,0.669,0,0,1,.476-0.286c-0.008.386-.156,0.227,0.1,0.381v-0.19a5.341,5.341,0,0,0,.285-1.81,0.784,0.784,0,0,1-.38-0.381c0.319,0,.307-0.111.285-0.667h-0.19a4.3,4.3,0,0,0-.666-0.191v0.1a0.368,0.368,0,0,1,.19.286h-0.1a0.581,0.581,0,0,0-.19-0.191v0.191l-0.761,2.667h0.19V20.1Zm19.215-2.667a0.486,0.486,0,0,1,.1.286h-0.1V17.429Zm0.19,0a0.486,0.486,0,0,1,.1.286h-0.1V17.429Zm-17.788.1a2.005,2.005,0,0,0,.1.952,8.233,8.233,0,0,1,.1-0.857A0.343,0.343,0,0,0,27.777,17.524Zm-0.761.191a0.721,0.721,0,0,1,.381.476H27.3V18.1h-0.1A1.432,1.432,0,0,1,27.016,17.714Zm18.074,0a0.278,0.278,0,0,1,0,.381V17.714Zm0.381,0a0.486,0.486,0,0,1,.1.286h-0.1V17.714Zm2.473,1.238h1.142V17.714A1.069,1.069,0,0,0,47.943,18.952ZM45.279,17.81a0.643,0.643,0,0,1,.19.476h-0.1V18.1A0.486,0.486,0,0,1,45.279,17.81Zm2.283,1.429a3.127,3.127,0,0,0-.1-1.333,3.743,3.743,0,0,1-.19,1.333h0.285Zm-4.376-.952h0.19v0.1h-0.19v-0.1Zm1.332,0h0.19v0.1A0.326,0.326,0,0,1,44.518,18.286Zm0.761,1.143a2.279,2.279,0,0,0,.1,1.048A2.28,2.28,0,0,0,45.279,19.429Zm-17.408.1-0.1.952h0.1v-0.1A0.959,0.959,0,0,0,27.872,19.524ZM45.66,20a3.341,3.341,0,0,1-.38,1.143h0.666V20.381c0.42-.041.393,0.081,0.476-0.286h-0.19A1.1,1.1,0,0,0,45.66,20ZM48.8,21.143h0.38V20h-0.1v0.1h-0.1A2.208,2.208,0,0,0,48.8,21.143Zm-22.544,1.81h0.381V22.667h0.476V22.476a0.486,0.486,0,0,0,.1-0.286A1.625,1.625,0,0,1,26.35,21.9a0.343,0.343,0,0,1-.1-0.191H26.54l-0.1-.381a2.175,2.175,0,0,1,.476-0.286,2.4,2.4,0,0,1-.951-0.571v0.191l-0.285.857c0.57,0.095.516,0.486,0.476,1.143A0.486,0.486,0,0,1,26.255,22.952Zm20.357-2.19v0.381H46.8a1.211,1.211,0,0,1,.1-0.381H46.611Zm0.381,0.1v0.191h0.1A0.327,0.327,0,0,0,46.992,20.857Zm-12.461.1a0.343,0.343,0,0,0,.19.1A0.343,0.343,0,0,0,34.53,20.952Zm1.522,0a0.343,0.343,0,0,1,.1.191h-0.1V20.952Zm-2,.191a0.8,0.8,0,0,0-.19.286h0.1a0.343,0.343,0,0,1,.19-0.1A0.326,0.326,0,0,0,34.055,21.143Zm-9.227.381c0.184,0.147.265,0.234,0.19,0.381V22h-0.1Zm17.6,0a0.342,0.342,0,0,0,.19.1A0.343,0.343,0,0,0,42.426,21.524Zm3.329,0v0.191H46.04V21.524H45.755Zm-20.071.191-0.1.286c0.235,0.123.065-.041,0.19,0.191h0.1A1.046,1.046,0,0,0,25.684,21.714ZM41.57,22.476h0.285a1.209,1.209,0,0,1,.1-0.381c0.222,0.123.3,0.254,0.571,0.1l-0.285-.1V21.714H41.665A2.39,2.39,0,0,0,41.57,22.476ZM25.113,21.9a0.368,0.368,0,0,1,.19.286h-0.1V22.1A0.343,0.343,0,0,1,25.113,21.9ZM32.342,22v0.476h0.571V22.286a0.816,0.816,0,0,0-.285-0.381A0.485,0.485,0,0,1,32.342,22Zm-7.515,0a0.344,0.344,0,0,1,.1.191h-0.1V22Zm20.452,0v0.191h0.1A0.326,0.326,0,0,0,45.279,22Zm0.571,0a0.342,0.342,0,0,0,.19.1A0.342,0.342,0,0,0,45.85,22Zm-13.7.1a0.461,0.461,0,0,0,.1.286A0.461,0.461,0,0,0,32.152,22.1Zm-8.656.1v0.191h0.1V22.191H23.5Zm3.9,0.476h0.476v0.1c-0.242.14-.191,0.2-0.19,0.571h0.285c0-.577-0.017-0.663,0-1.143H27.491A1.493,1.493,0,0,0,27.4,22.667Zm13.6-.1v1.143h0.476a0.461,0.461,0,0,1,.1-0.286c0.116,0.3.036,0.215,0.38,0.286a1.224,1.224,0,0,1,.1-0.762c0.315,0.026.368,0.158,0.38-.381C42.022,22.55,41.607,22.571,41,22.571Zm-7.8.1a0.342,0.342,0,0,0,.19.1A0.342,0.342,0,0,0,33.2,22.667Zm5.9,0v0.762h0.666V22.667H39.1Zm-16.361.476v0.476h0.1a0.438,0.438,0,0,1,.476,0V23.143H22.735ZM75.91,23.524a0.487,0.487,0,0,1,.1.286h-0.1V23.524Zm-5.137.191a0.344,0.344,0,0,1,.1.191h-0.1V23.714Zm-3.615.1a0.487,0.487,0,0,1,.1.286h-0.1V23.81ZM0.19,23.9a0.343,0.343,0,0,1,.1.19H0.19V23.9Zm33.2,0a0.461,0.461,0,0,0,.1.286V23.9h-0.1Zm45.755,0a2.377,2.377,0,0,0-1.807.381h0.1a2.174,2.174,0,0,1,1.712-.1V23.9ZM29.2,24l0.285,0.1v0.1H29.2V24Zm3.139,0,0.19,0.191C32.278,24.276,32.215,24.132,32.342,24ZM76,24a0.382,0.382,0,0,0,.476,0H76Zm0.571,0a0.278,0.278,0,0,0,.38,0h-0.38Zm-3.139.1a0.791,0.791,0,0,0,.761,0H73.436Zm0.856,0a0.791,0.791,0,0,0,.761,0H74.293Zm-3.425.1a0.278,0.278,0,0,0,.381,0H70.868Zm0.476,0a1.921,1.921,0,0,0,1.332,0H71.344Zm4.281,0c0.163,0.084.121,0.085,0.285,0H75.624Zm0.38,0a1.712,1.712,0,0,0,1.237,0H76Zm-8.561.1a0.343,0.343,0,0,0,.19.1A0.344,0.344,0,0,0,67.444,24.286Zm-3.52.1a2.136,2.136,0,0,0,1.427,0H63.924Zm1.617,0a0.344,0.344,0,0,0,.19.1A0.343,0.343,0,0,0,65.541,24.381Zm0.285,0a0.278,0.278,0,0,0,.38,0h-0.38Zm5.232,0a0.343,0.343,0,0,0,.19.1A0.343,0.343,0,0,0,71.058,24.381Zm0.951,0a0.64,0.64,0,0,0,.666,0H72.01Zm-41.284.1c0.164,0.084.122,0.085,0.285,0H30.725Zm35.672,0c0.164,0.084.122,0.085,0.285,0H66.4Zm0.381,0c0.164,0.084.122,0.085,0.285,0H66.778Zm3.139,0c0.164,0.084.122,0.085,0.285,0H69.917Zm-69.441.1h0.19v0.1A0.326,0.326,0,0,1,.476,24.571Zm28.728,0a0.5,0.5,0,0,0,.571,0H29.2Zm0.761,0c0.164,0.084.122,0.085,0.285,0H29.964Zm32.533,0a0.344,0.344,0,0,0,.19.1A0.344,0.344,0,0,0,62.5,24.571Zm1.332,0a2.356,2.356,0,0,0,1.522,0H63.829Zm-62.117.1a0.343,0.343,0,0,1,.1.19h-0.1v-0.19Zm55.363,0a0.343,0.343,0,0,0,.19.1A0.343,0.343,0,0,0,57.075,24.667Zm0.571,0a0.382,0.382,0,0,0,.476,0H57.646Zm-52.224.1a0.343,0.343,0,0,1,.1.191h-0.1V24.762Zm1.9,0a0.343,0.343,0,0,1,.1.191h-0.1V24.762Zm-6.754.286a1.51,1.51,0,0,0,1.142,0H0.571Zm1.522,0.1a4.505,4.505,0,0,0,2.378,0H2.093Zm-1.712.1a1.4,1.4,0,0,0,1.332,0H0.38Zm4.471,0a0.5,0.5,0,0,0,.571,0H4.851Zm0.666,0a0.343,0.343,0,0,0,.19.1A0.343,0.343,0,0,0,5.517,25.238Zm0.285,0a2.136,2.136,0,0,0,1.427,0H5.8Zm1.617,0a0.343,0.343,0,0,0,.19.1A0.343,0.343,0,0,0,7.42,25.238Zm0.476,0a0.343,0.343,0,0,0,.19.1A0.343,0.343,0,0,0,7.9,25.238Zm0.571,0c0.164,0.084.122,0.085,0.285,0H8.466Zm-6.659.1a0.278,0.278,0,0,0,.381,0H1.807Zm0.476,0c0.164,0.084.122,0.085,0.285,0H2.283Zm0.38,0a3.946,3.946,0,0,0,2.188.1C4.207,25.385,3.434,25.334,2.663,25.333Zm6.944,0c0.164,0.084.122,0.085,0.285,0H9.608Zm0.761,0a0.278,0.278,0,0,0,.38,0h-0.38Zm1.046,0a1.13,1.13,0,0,0,.951,0H11.415Zm4.376,0a0.278,0.278,0,0,0,.38,0h-0.38Zm-10.844.1a1.316,1.316,0,0,0,1.046,0H4.946Zm1.237,0a0.343,0.343,0,0,0,.19.1A0.343,0.343,0,0,0,6.183,25.429Zm0.38,0a0.64,0.64,0,0,0,.666,0H6.564Zm0.856,0a0.343,0.343,0,0,0,.19.1A0.343,0.343,0,0,0,7.42,25.429Zm0.381,0c0.164,0.084.122,0.085,0.285,0H7.8Zm1.617,0.1a0.382,0.382,0,0,0,.476,0H9.417Zm0.951,0a0.343,0.343,0,0,0,.19.1A0.344,0.344,0,0,0,10.369,25.524ZM5.042,28.857c0.2,0.229.09,0.02,0.285,0.1C5.385,28.779,5.134,28.875,5.042,28.857Zm0.476,0a0.278,0.278,0,0,0,.38,0H5.517Zm-1.046.1c-0.114.074-.458,0.114-0.571,0.191C4.1,29.149,4.808,29.05,4.471,28.952Z" transform="translate(-0.031 0.016)"/>
</svg>
