<svg xmlns="http://www.w3.org/2000/svg" width="79.969" height="40" viewBox="0 0 79.969 40">
  <defs>
    <style>
      .cls-1 {
        fill: #fff;
        fill-rule: evenodd;
      }
    </style>
  </defs>
  <path id="Color_Fill_1" data-name="Color Fill 1" class="cls-1" d="M45.428,13.2h0.385a5.992,5.992,0,0,0,0-.84c-0.2,0-.068.1-0.231-0.076a4.147,4.147,0,0,0,.308-1.222v0.153a0.645,0.645,0,0,0,.231.153c0.125-.193,0-0.033.231,0V11.291a0.3,0.3,0,0,1-.154-0.229h0.077v0.076a1.124,1.124,0,0,1,.539.687c-0.2.022-.161,0.063-0.154,0.458,0.1,0.042.057,0,.077,0.076-0.1.137-.127-0.035-0.154,0.306a0.3,0.3,0,0,1,.154.229,0.26,0.26,0,0,0-.231,0,0.477,0.477,0,0,0,.077.229,1.612,1.612,0,0,0,.616.076V12.742H47.43V13.2a1.516,1.516,0,0,1,.462,0h0.077v0.076c-0.707.1-.959,0.559-1.771,0.611a6.418,6.418,0,0,0,.077,2.367,1.284,1.284,0,0,1,.077-0.458h1.463V14.5a2.412,2.412,0,0,1,.77,0V14.8a1.677,1.677,0,0,1,.539.153,0.706,0.706,0,0,0,.231.305l-0.077.382H49.047v0.535c0.9-.047,2.233-0.082,3.773-0.076a1.07,1.07,0,0,1,.077.305,0.3,0.3,0,0,0-.154.229,2.43,2.43,0,0,0,.77-0.076v0.153a0.265,0.265,0,0,0-.154.076,2.028,2.028,0,0,0-.77,0,4.1,4.1,0,0,1-.154,1.451c-0.047.071-.335,0.083-0.385,0.153v3.284a3.836,3.836,0,0,0,1.078.076c0.092-.059.371-0.091,0.462-0.153h-1V20.531a1.1,1.1,0,0,1,.308-0.076,0.278,0.278,0,0,0,.154.076V20.3a3.24,3.24,0,0,0,1.232.153A0.822,0.822,0,0,0,54.36,20a1.312,1.312,0,0,1,1.078.076,1,1,0,0,1,.077.535h0.231V20.3H55.9c0.011,0.288-.036.268,0.154,0.382,0.359-.259.381,0.02,0.847,0,0.181-.008.572,0.224,0.924,0.306l3.7,0.076a0.961,0.961,0,0,1-.077.305,12.409,12.409,0,0,0-4.081.229v0.076a0.387,0.387,0,0,1,.077.229h0.231V22.9h0.693V21.829l0.385,0.076c0.108-.044.04-0.341,0.385-0.229l0.154,0.229c0.345,0.137,1.749.074,2.156,0.153,0.278,0.054.627-.21,0.77-0.153l0.077,0.229,0.539-.153a1.624,1.624,0,0,0,.231.305c0.935,0.353,2.951.157,4.158,0.153v0.305H66.6V22.9h1.54c0.44-.266,1.843.1,2.618-0.076a14.245,14.245,0,0,1,2.926.076,2.9,2.9,0,0,1,1.463-.153h3.7a14.076,14.076,0,0,0-.077-2.52H79v0.153a9.336,9.336,0,0,0,0,2.978c0.191,0.875.016,1.6,0.231,2.367,0.241,0.863,1.039,2.07.616,3.207a2.569,2.569,0,0,1-.847.916c-8.108.2-16.556,0.076-24.793,0.076H11.088a1.539,1.539,0,0,0-.616-0.687c-0.244-.065-0.532.4-0.616,0.229a0.657,0.657,0,0,1-.077-0.382c-0.884-.009-1.381.074-2.387,0.076v0.305c-0.178,0-.364.114-0.385,0.076a0.821,0.821,0,0,1-.077-0.458H6.622l-0.077-.153a1.219,1.219,0,0,1,.385-0.076,1.988,1.988,0,0,0,.077-0.687,1.008,1.008,0,0,0-.693-0.229,5.117,5.117,0,0,1-.154,1.375c-0.414.227-1.551,0.75-1.848,0a2.173,2.173,0,0,1,.077-1.527H3.311l-1.386-.458c-0.567-.381-0.607-1.363-1-1.909a0.264,0.264,0,0,0,.154-0.076,2.8,2.8,0,0,0-.539-0.076V24.807H0.847v0.076a0.512,0.512,0,0,0-.077.305H1.232l0.077-.229H1.232V24.884a0.5,0.5,0,0,1-.308-0.076H1.309V24.578A1.632,1.632,0,0,1,.539,24.5a1.189,1.189,0,0,0,.924-0.382,0.512,0.512,0,0,0,.077-0.306H4.158l0.616-.305c0.082,0.025.457,0.276,0.539,0.305,0.545,0.2,1.407-.192,1.848.076a0.374,0.374,0,0,0-.231.076c1.407-.095,3.09-0.076,4.62-0.076a0.45,0.45,0,0,1,.154-0.305,7.889,7.889,0,0,0-2.079-.076,0.217,0.217,0,0,0-.077-0.076V23.2l3.773-.076c0.571-.135.647-0.431,1.232-0.229V22.669a13.641,13.641,0,0,0,3,0,0.883,0.883,0,0,1,.462-0.229c0.227,0.344.058-.085,0.385,0.153a2.4,2.4,0,0,1,.077,1.145H19.1V23.662h0.077a0.694,0.694,0,0,1,0-.458h0.077v0.458h0.385a2.487,2.487,0,0,1,.077-1.145H19.557c-0.75-.657-3.132.06-3.927-0.306a0.387,0.387,0,0,1-.077-0.229l3.7-.076a3.579,3.579,0,0,1,1.925-.305,1.087,1.087,0,0,1,.077-0.382h0.154v0.305h0.231V20.913h0.539V20.76a1.644,1.644,0,0,0,.539.153v0.458a0.732,0.732,0,0,0,.693-0.153,0.62,0.62,0,0,1,.693.229,1.092,1.092,0,0,1,.385-0.076,0.8,0.8,0,0,0,.077.458V21.295a1.237,1.237,0,0,1-.77-0.382h0.154a0.719,0.719,0,0,0,.539.153,0.275,0.275,0,0,0,.077-0.153,0.842,0.842,0,0,1-.231-0.153h0.231a1.578,1.578,0,0,1,.308-1.146,0.671,0.671,0,0,1,.385-0.076,4.875,4.875,0,0,1,.616,0v0.687a1.1,1.1,0,0,0,.308.076,3.888,3.888,0,0,0,.308-0.458,5.01,5.01,0,0,1,.077-0.764,0.776,0.776,0,0,0,.154.535,0.883,0.883,0,0,0-.154.229H27.1a2.087,2.087,0,0,1,.231-0.458c0.064,0.248-.038.117,0.154,0.229a2.71,2.71,0,0,0-.231.229c0.29,0.011.271-.036,0.385,0.153a0.511,0.511,0,0,0-.077.305h0.077V20.226c0.111-.138.453-2.3,0.154-2.673a0.291,0.291,0,0,1-.154.229V17.629A0.885,0.885,0,0,0,27.8,17.4l0.154,0.076V17.4c-0.165-.359.162-0.853-0.154-1.374,0.19-.1.052,0.033,0.154-0.153H27.873V15.8H27.719c0,0.241.13,0.1-.077,0.229l-0.231-.306a1.2,1.2,0,0,0,.616-0.076c-0.17-.151-0.232-0.24,0-0.382V15.186H28.1v1.527c0.344,0.531.062,2.485,0,3.284a1.373,1.373,0,0,0,.77.153,1.273,1.273,0,0,1,1.232-.229,23.156,23.156,0,0,0,3.85.229,6.42,6.42,0,0,1,0-.764c1.017,0.005,1.233-.11,2.233-0.153v0.305a3.466,3.466,0,0,0,1.078-.458h0.308c0.263,0.027.1,0.159,0.231,0.229H38.73l0.077,0.229a6.591,6.591,0,0,0,.847,0c0.009,0.286-.093.186,0.231,0.229,0.122-.209.069-0.192,0.385-0.229v-2.9h0.077V16.56a0.649,0.649,0,0,0,.385-0.076,0.374,0.374,0,0,1-.231-0.076,11.915,11.915,0,0,1,3.234,0c-0.046.282,0.117,0.98,0.077,0.993l-0.077.153c0.219-.024.159-0.081,0.308,0a0.823,0.823,0,0,0-.308.916h0.154V18.316c0.05-.066.1-0.24,0.154-0.306a0.635,0.635,0,0,0,.077.382,1.062,1.062,0,0,1,.154-0.611l-0.077.84h0.231a2.484,2.484,0,0,0-.077-1.069,0.367,0.367,0,0,1-.077.229,1.179,1.179,0,0,0,0-.687,0.49,0.49,0,0,1-.077.305,5.261,5.261,0,0,0-.308-2.214h0.077a0.47,0.47,0,0,0,.154.153V15.186a16.319,16.319,0,0,1-.308-3.971,0.374,0.374,0,0,1-.231-0.076c0.306-.145.175-1.5,0.154-2.138h0.154v2.062c0.043,0.137-.08.782,0,1.146,0.309,1.409.233,3.021,0.462,4.2h0.077c0-1.111.546-1.856,0.616-2.978a0.578,0.578,0,0,1-.385-0.306,1.42,1.42,0,0,0,.462.076,10.789,10.789,0,0,0,.154-2.6H45.2a0.367,0.367,0,0,1-.077.229,3.687,3.687,0,0,1,.154-1.145,1.1,1.1,0,0,0-.308-0.076V9.687h0.077c0.148,0.059-.154.076-0.154,0.076a2.686,2.686,0,0,0-.231-0.229,0.562,0.562,0,0,0,.616-0.153C45.08,9.27,45.155,9.348,45.12,9.076h0.154V9h0.077a5.88,5.88,0,0,0,.154,1.451l-0.154-.076v0.076c0.052,0.059.1,0.17,0.154,0.229a0.367,0.367,0,0,1,.077-0.229,0.29,0.29,0,0,0,.154.229l-0.077-.306a0.488,0.488,0,0,1,.231.076,0.512,0.512,0,0,1,.077.305c-0.2.058-.184,0.091-0.385,0.153-0.03-.2.057-0.1-0.154-0.153v0.153S45.419,13.023,45.428,13.2Zm-0.616-2.6a0.374,0.374,0,0,1,.231.076H44.889c-0.132.067-.1,0.068-0.231,0A0.264,0.264,0,0,0,44.812,10.6Zm-0.308.153h0.154v0.076A0.265,0.265,0,0,1,44.5,10.756Zm1.463,0a0.3,0.3,0,0,1,.154.229H46.044V10.909A0.274,0.274,0,0,1,45.967,10.756Zm-1.617.076H44.5v0.076A0.265,0.265,0,0,1,44.35,10.833Zm0.693,0a0.4,0.4,0,0,1,0,.458V10.833Zm-0.924.076a0.374,0.374,0,0,1,.231.076A0.375,0.375,0,0,1,44.119,10.909Zm1.617,0a0.275,0.275,0,0,1,.077.153H45.736V10.909Zm-1.771.076h0.154v0.076A0.265,0.265,0,0,1,43.965,10.986Zm-0.539.229H43.58v0.076A0.264,0.264,0,0,1,43.426,11.215Zm-0.154.076h0.154v0.076A0.265,0.265,0,0,1,43.272,11.291Zm1.694,0a0.4,0.4,0,0,1,0,.458V11.291Zm-1.925.076a0.375,0.375,0,0,1,.231.076H43.118c-0.132.067-.1,0.068-0.231,0A0.264,0.264,0,0,0,43.041,11.367Zm-0.308.153h0.154V11.6A0.265,0.265,0,0,1,42.733,11.52ZM42.5,11.6a0.374,0.374,0,0,1,.231.076A0.375,0.375,0,0,1,42.5,11.6Zm-0.154.076H42.5v0.076A0.264,0.264,0,0,1,42.348,11.673Zm-0.231.076a0.374,0.374,0,0,1,.231.076A0.375,0.375,0,0,1,42.117,11.749Zm2.772,0a0.4,0.4,0,0,1,0,.458V11.749Zm-2.926.076h0.154V11.9H41.963V11.826Zm-0.231.076a0.374,0.374,0,0,1,.231.076A0.374,0.374,0,0,1,41.732,11.9Zm-0.154.076h0.154v0.076A0.265,0.265,0,0,1,41.578,11.978Zm5.39,0a0.3,0.3,0,0,1,.154.229H47.045V12.131A0.275,0.275,0,0,1,46.968,11.978Zm-5.621.076a0.374,0.374,0,0,1,.231.076H41.424c-0.132.067-.1,0.068-0.231,0A0.264,0.264,0,0,0,41.347,12.055Zm-0.308.153a1.261,1.261,0,0,1,.385.229C41.319,12.676,41.153,12.387,41.04,12.207Zm3.773,0a0.4,0.4,0,0,1,0,.458V12.207Zm-4,.076a0.374,0.374,0,0,1,.231.076A0.374,0.374,0,0,1,40.809,12.284Zm-0.154.076h0.154v0.076H40.655V12.36Zm6.622,0a0.3,0.3,0,0,1,.154.229H47.353V12.513A0.275,0.275,0,0,1,47.276,12.36Zm-6.853.076a0.374,0.374,0,0,1,.231.076A0.375,0.375,0,0,1,40.424,12.436Zm-0.154.076h0.154v0.076A0.264,0.264,0,0,1,40.27,12.513Zm-0.231.076a0.374,0.374,0,0,1,.231.076A0.375,0.375,0,0,1,40.039,12.589Zm-0.154.076h0.154v0.076A0.264,0.264,0,0,1,39.885,12.666Zm4.851,0a0.387,0.387,0,0,1,.077.229H44.735V12.666Zm2.772,0c0.149,0.123.3,0.133,0.077,0.229V12.818A0.275,0.275,0,0,1,47.507,12.666Zm-7.854.076a0.374,0.374,0,0,1,.231.076A0.374,0.374,0,0,1,39.654,12.742Zm-0.231.076a0.375,0.375,0,0,1,.231.076H39.5c-0.132.067-.1,0.068-0.231,0A0.264,0.264,0,0,0,39.423,12.818Zm-0.385.153a0.374,0.374,0,0,1,.231.076H39.115c-0.132.067-.1,0.068-0.231,0A0.265,0.265,0,0,0,39.038,12.971Zm-0.385.153a0.374,0.374,0,0,1,.231.076H38.73c-0.132.067-.1,0.068-0.231,0A0.264,0.264,0,0,0,38.653,13.124Zm3.311,0a0.976,0.976,0,0,1,.462.535H42.348A2.1,2.1,0,0,1,41.963,13.124Zm-3.7.153a0.374,0.374,0,0,1,.231.076A0.374,0.374,0,0,1,38.268,13.276Zm-0.231.076a0.374,0.374,0,0,1,.231.076H38.114c-0.132.067-.1,0.068-0.231,0A0.265,0.265,0,0,0,38.037,13.353Zm-0.385.153a0.374,0.374,0,0,1,.231.076A0.375,0.375,0,0,1,37.652,13.506ZM44.735,15.8h1.078v-0.84L45.2,14.5a1.483,1.483,0,0,0,0-.993v0.153A6.313,6.313,0,0,0,44.735,15.8ZM37.5,13.582h0.154v0.076A0.264,0.264,0,0,1,37.5,13.582Zm-0.231.076a0.375,0.375,0,0,1,.231.076A0.374,0.374,0,0,1,37.267,13.658Zm8.162,0.764h0.385V13.811a1.99,1.99,0,0,0-.385-0.153v0.764Zm-8.393-.687a0.375,0.375,0,0,1,.231.076A0.374,0.374,0,0,1,37.036,13.735Zm-0.154.076h0.154v0.076A0.265,0.265,0,0,1,36.882,13.811Zm-0.231.076a0.375,0.375,0,0,1,.231.076A0.374,0.374,0,0,1,36.651,13.887Zm-0.231.076a0.374,0.374,0,0,1,.231.076A0.374,0.374,0,0,1,36.42,13.964Zm-0.154.076H36.42v0.076A0.265,0.265,0,0,1,36.266,14.04Zm-0.231.076a0.374,0.374,0,0,1,.231.076A0.375,0.375,0,0,1,36.035,14.116Zm6.853,0a0.976,0.976,0,0,1,.462.534H43.272A2.1,2.1,0,0,1,42.887,14.116Zm5.159,0H48.2v0.153H48.046V14.116ZM35.8,14.193a0.374,0.374,0,0,1,.231.076A0.374,0.374,0,0,1,35.8,14.193Zm-0.231.076a0.374,0.374,0,0,1,.231.076H35.65c-0.133.067-.1,0.068-0.231,0A0.265,0.265,0,0,0,35.573,14.269Zm-0.385.153a0.374,0.374,0,0,1,.231.076A0.374,0.374,0,0,1,35.188,14.422Zm-0.231.076a0.375,0.375,0,0,1,.231.076H35.034c-0.132.067-.1,0.068-0.231,0A0.264,0.264,0,0,0,34.957,14.5Zm-0.385.153a0.374,0.374,0,0,1,.231.076A0.374,0.374,0,0,1,34.572,14.651Zm-0.231.076a0.375,0.375,0,0,1,.231.076A0.374,0.374,0,0,1,34.341,14.727ZM34.11,14.8a0.374,0.374,0,0,1,.231.076A0.374,0.374,0,0,1,34.11,14.8Zm-0.231.076a0.374,0.374,0,0,1,.231.076H33.956c-0.132.067-.1,0.068-0.231,0A0.265,0.265,0,0,0,33.879,14.88Zm-0.385.153a0.374,0.374,0,0,1,.231.076A0.374,0.374,0,0,1,33.494,15.033Zm-0.231.076a0.374,0.374,0,0,1,.231.076A0.375,0.375,0,0,1,33.263,15.109Zm-0.231.076a0.374,0.374,0,0,1,.231.076A0.374,0.374,0,0,1,33.032,15.186Zm-0.231.076a0.374,0.374,0,0,1,.231.076A0.374,0.374,0,0,1,32.8,15.262Zm-0.231.076a0.375,0.375,0,0,1,.231.076H32.647c-0.132.067-.1,0.068-0.231,0A0.265,0.265,0,0,0,32.57,15.338Zm-0.385.153a0.374,0.374,0,0,1,.231.076A0.374,0.374,0,0,1,32.185,15.491Zm-0.231.076a0.375,0.375,0,0,1,.231.076A0.374,0.374,0,0,1,31.954,15.567Zm-0.231.076a0.374,0.374,0,0,1,.231.076A0.374,0.374,0,0,1,31.723,15.644Zm-0.231.076a0.374,0.374,0,0,1,.231.076A0.374,0.374,0,0,1,31.492,15.72Zm-0.231.076a0.374,0.374,0,0,1,.231.076H31.338c-0.132.067-.1,0.068-0.231,0A0.264,0.264,0,0,0,31.261,15.8Zm13.705,2.825a0.5,0.5,0,0,1,0-.382c0.113-.193.034-0.118,0.308-0.153V17.4a1.67,1.67,0,0,1,.539-0.076V15.873H44.735v0.076H44.658a9.044,9.044,0,0,0,.077,2.673h0.231Zm-14.09-2.673a0.374,0.374,0,0,1,.231.076A0.375,0.375,0,0,1,30.876,15.949Zm-0.231.076a0.374,0.374,0,0,1,.231.076A0.374,0.374,0,0,1,30.645,16.026Zm-0.231.076a0.374,0.374,0,0,1,.231.076A0.374,0.374,0,0,1,30.414,16.1Zm-0.231.076a0.375,0.375,0,0,1,.231.076A0.374,0.374,0,0,1,30.183,16.178Zm15.014,0h0.154v0.076H45.2V16.178Zm-15.245.076a0.375,0.375,0,0,1,.231.076A0.374,0.374,0,0,1,29.952,16.255Zm-0.231.076a0.374,0.374,0,0,1,.231.076H29.8c-0.132.067-.1,0.068-0.231,0A0.265,0.265,0,0,0,29.721,16.331Zm-0.385.153a0.374,0.374,0,0,1,.231.076A0.374,0.374,0,0,1,29.336,16.484ZM29.1,16.56a0.374,0.374,0,0,1,.231.076A0.374,0.374,0,0,1,29.1,16.56Zm-0.231.076a0.374,0.374,0,0,1,.231.076A0.375,0.375,0,0,1,28.874,16.636Zm-0.231.076a0.374,0.374,0,0,1,.231.076A0.374,0.374,0,0,1,28.643,16.713Zm-0.154.076h0.154v0.076A0.265,0.265,0,0,1,28.489,16.789Zm24.485,0a0.374,0.374,0,0,1,.231.076H53.051a0.27,0.27,0,0,1-.385.076H52.82C52.877,16.875,52.917,16.856,52.974,16.789Zm-6.776.153a0.711,0.711,0,0,0,.308.687V17.247a0.543,0.543,0,0,1-.154-0.305H46.2Zm-17.94.305a0.374,0.374,0,0,1,.231.076A0.374,0.374,0,0,1,28.258,17.247Zm0.231,0.076h0.154V17.4A0.265,0.265,0,0,1,28.489,17.324ZM28.643,17.4l0.385,0.076v0.076H28.8C28.74,17.486,28.7,17.467,28.643,17.4Zm15.476,0a0.222,0.222,0,0,1,0,.306V17.4Zm-15.091.153h0.154v0.076A0.264,0.264,0,0,1,29.028,17.553Zm0.154,0.076a0.374,0.374,0,0,1,.231.076A0.375,0.375,0,0,1,29.182,17.629Zm0.231,0.076h0.154v0.076A0.264,0.264,0,0,1,29.413,17.706Zm14.629,0a0.222,0.222,0,0,1,0,.305V17.706Zm-16.477.076a0.275,0.275,0,0,1,.077.153H27.565V17.782Zm0.231,0a0.388,0.388,0,0,1,.077.229H27.8V17.782Zm1.771,0a0.374,0.374,0,0,1,.231.076A0.374,0.374,0,0,1,29.567,17.782ZM29.8,17.858h0.154v0.076A0.264,0.264,0,0,1,29.8,17.858Zm-2.31.076a0.275,0.275,0,0,1,.077.153H27.488V17.935Zm2.464,0,0.385,0.076v0.076H30.106C30.049,18.021,30.009,18,29.952,17.935Zm-2.233.076a0.388,0.388,0,0,1,.077.229H27.719V18.011Zm-0.308.076a0.275,0.275,0,0,1,.077.153H27.411V18.087Zm2.926,0h0.154v0.076A0.264,0.264,0,0,1,30.337,18.087Zm0.154,0.076a0.374,0.374,0,0,1,.231.076A0.374,0.374,0,0,1,30.491,18.164Zm-3.157.076c0.066,0.144.037,0.056,0,.229H27.257Zm0.308,0a0.388,0.388,0,0,1,.077.229H27.642V18.24Zm3.08,0h0.154v0.076A0.265,0.265,0,0,1,30.722,18.24Zm13.782,0a0.635,0.635,0,0,0,.077.382A0.634,0.634,0,0,0,44.5,18.24Zm-13.628.076a0.374,0.374,0,0,1,.231.076A0.375,0.375,0,0,1,30.876,18.316Zm0.231,0.076h0.154v0.076A0.265,0.265,0,0,1,31.107,18.393Zm14.09,0c0,0.153-.12.057,0,0.153,0.012,0.107.077,0.076,0.077,0.076V18.393H45.2Zm-18.017.076a0.275,0.275,0,0,1,.077.153H27.18V18.469Zm0.385,0a0.388,0.388,0,0,1,.077.229H27.565V18.469Zm3.7,0,0.385,0.076v0.076H31.415C31.358,18.555,31.318,18.536,31.261,18.469Zm-4.158.153a0.275,0.275,0,0,1,.077.153H27.1V18.622Zm4.543,0H31.8V18.7A0.264,0.264,0,0,1,31.646,18.622Zm12.089,0a0.956,0.956,0,0,0,.077.764h0.077V19.309a0.274,0.274,0,0,0,.077-0.153A1.113,1.113,0,0,0,43.734,18.622ZM27.488,18.7a0.388,0.388,0,0,1,.077.229H27.488V18.7Zm4.312,0a0.375,0.375,0,0,1,.231.076A0.374,0.374,0,0,1,31.8,18.7Zm-4.774.076a0.275,0.275,0,0,1,.077.153H27.026V18.775Zm5,0h0.154v0.076A0.264,0.264,0,0,1,32.031,18.775Zm0.154,0.076,0.385,0.076V19H32.339C32.282,18.937,32.242,18.918,32.185,18.851Zm-5.236.076c0.066,0.144.036,0.056,0,.229H26.872Zm0.462,0a0.388,0.388,0,0,1,.077.229H27.411V18.927ZM32.57,19l0.385,0.076v0.076H32.724C32.667,19.09,32.627,19.07,32.57,19Zm-5.775.153a0.275,0.275,0,0,1,.077.153H26.8V19.156Zm0.539,0a0.388,0.388,0,0,1,.077.229H27.334V19.156Zm5.621,0h0.154v0.076A0.264,0.264,0,0,1,32.955,19.156Zm0.154,0.076a0.374,0.374,0,0,1,.231.076A0.374,0.374,0,0,1,33.109,19.233Zm-6.391.076a0.275,0.275,0,0,1,.077.153H26.718V19.309Zm6.622,0h0.154v0.076A0.265,0.265,0,0,1,33.34,19.309Zm0.154,0.076,0.385,0.076v0.076H33.648C33.591,19.472,33.551,19.452,33.494,19.386Zm-5.929.076h0.154v0.076H27.565V19.462Zm16.246,0a0.8,0.8,0,0,0-.154.382c0.034,0.072.076,0.281,0.154,0.458h0.154a0.261,0.261,0,0,1,.077-0.153,1.214,1.214,0,0,1-.077-0.687H43.811Zm-16.169.229a0.275,0.275,0,0,1,.077.153H27.642V19.691Zm0.231,0.076A0.368,0.368,0,0,0,27.95,20,0.367,0.367,0,0,0,27.873,19.767ZM29.259,20v0.153L32.57,20.3a3.691,3.691,0,0,0,1.386-.076Zm15.553,1.222v0.305c0.346,0.114.448,0.061,0.462,0.535a1.2,1.2,0,0,0,0,.916l0.077-1.451H45.274V21.447H45.043A6.919,6.919,0,0,1,45.274,20H44.889v0.076h0.077c0.148,0.059-.154.076-0.154,0.076A0.655,0.655,0,0,0,44.2,20a0.657,0.657,0,0,0-.154.458A1.567,1.567,0,0,0,44.812,21.218Zm-18.479-.993a0.278,0.278,0,0,0,.154.076A0.278,0.278,0,0,0,26.333,20.226Zm18.71,0H45.2V20.3A0.264,0.264,0,0,1,45.043,20.226ZM30.8,20.3a0.41,0.41,0,0,0,.462,0H30.8Zm-6.006.076a0.646,0.646,0,0,0,.616,0H24.793Zm1.155,0a0.278,0.278,0,0,0,.154.076A0.278,0.278,0,0,0,25.948,20.378Zm0.308,0c0.132,0.067.1,0.068,0.231,0H26.256Zm3.927,0a0.226,0.226,0,0,0,.308,0H30.183Zm1.155,0a5.977,5.977,0,0,0,1.463.153,12.586,12.586,0,0,1,1.463.382V20.836c-0.105-.078.022-0.049,0.077-0.229H34.11v0.076h0.077c0.148,0.059-.154.076-0.154,0.076C33.564,20.247,32.325,20.361,31.338,20.378Zm-3.08,1.833h0.385v0.076a0.843,0.843,0,0,0-.231.153c0.438,0.016.471,0.078,0.462,0.534h1.309c0.34,0.132.913,0.594,1.155,0-0.126-.206-0.11-0.324,0-0.382V22.44H31.184a3.155,3.155,0,0,1-1.386-.076v0.153a0.387,0.387,0,0,1,.077.229,0.375,0.375,0,0,1-.231-0.076H29.567V22.593a0.3,0.3,0,0,0,.154-0.229H28.874V22.287h0.077a10.18,10.18,0,0,1,2.464,0c0-.241-0.13-0.1.077-0.229a0.368,0.368,0,0,0,.077.229V21.982H31.415a3.662,3.662,0,0,1-.847-0.153,0.793,0.793,0,0,0,.847-0.306H31.107c-0.539-.32-1.777.159-2.233-0.229,1.044,0.011,2.628.071,3,0,0.578-.109,1.579.208,2-0.076a8.617,8.617,0,0,1-2.618-.382c0.753,0.012,2.854.553,3.311,0.305-0.386-.075-3.173-0.611-3.542-0.382a0.374,0.374,0,0,1,.231.076,4.888,4.888,0,0,1-1.54-.229c0,0.242.13,0.1-.077,0.229a0.451,0.451,0,0,0-.154-0.306,3.682,3.682,0,0,0-1,0,1.3,1.3,0,0,0-.231.764A1.6,1.6,0,0,1,28.258,22.211ZM30.8,20.455a0.226,0.226,0,0,0,.308,0H30.8Zm-4.851.076a0.522,0.522,0,0,0,.539,0H25.948Zm3.927,0a0.226,0.226,0,0,0,.308,0H29.875Zm1.54,0a0.311,0.311,0,0,0,.385,0H31.415Zm-1,.076a0.522,0.522,0,0,0,.539,0H30.414Zm1.54,0a0.522,0.522,0,0,0,.539,0H31.954Zm0.616,0V20.76a1,1,0,0,0,.539-0.076A1.563,1.563,0,0,1,32.57,20.607Zm0.616,0.153a0.226,0.226,0,0,0,.308,0H33.186Zm-9.24.076a0.649,0.649,0,0,1,.385.076A0.649,0.649,0,0,1,23.946,20.836Zm20.1,0.382H44.35V21.142a1.162,1.162,0,0,0-.308-0.153v0.229ZM34.726,22.9v-1.6a14.6,14.6,0,0,1-3,.153v0.076a0.275,0.275,0,0,1,.077.153l0.847,0.229a3.6,3.6,0,0,0-.847.076l-0.154.076v0.153H31.8c0.62,0.379,1.969-.141,2.618.076v0.076H33.34a3.907,3.907,0,0,1-1.386.153H31.877a4.867,4.867,0,0,1,.077.611l0.077,0.153a4.612,4.612,0,0,0,1.386-.229,0.648,0.648,0,0,1-.385-0.076C33.769,22.97,34.013,22.931,34.726,22.9ZM0,22.593V21.829a5.42,5.42,0,0,1,1.463-.076V21.676H1.54V23.2H1.617c0.076,0.077-.076.075-0.077,0.076v0.076H1.463C1.47,22.416,1.018,22.566,0,22.593Zm33.648,0.153a0.375,0.375,0,0,1-.231-0.076,0.218,0.218,0,0,1-.077-0.076l0.154-.076c0.075-.019.029-0.06,0.077,0A0.387,0.387,0,0,1,33.648,22.746Zm-10.164-.229a0.366,0.366,0,0,0,.462.076h0.077V22.516H23.484Zm0.924,0H24.1v0.076h0.077v0.076l0.231,0.076V22.516Zm39.269,0.229a0.278,0.278,0,0,1-.154.076V22.9H64.37c0.344-.171,1.33.125,1.771-0.153H63.677ZM73.84,22.822a0.226,0.226,0,0,0,.308,0H73.84Zm0.693,0a12.2,12.2,0,0,0,3.157,0H74.533Zm3.234,0a1.089,1.089,0,0,0,.539.229,0.671,0.671,0,0,1,.308-0.229H77.767Zm-8.316.076a0.278,0.278,0,0,0,.154.076A0.278,0.278,0,0,0,69.451,22.9Zm0.231,0a1.075,1.075,0,0,0,.847,0H69.682Zm1.848,0c0.132,0.067.1,0.068,0.231,0H71.53Zm-13.859.076a0.278,0.278,0,0,0,.154.076A0.279,0.279,0,0,0,57.671,22.975Zm0.231,0a0.311,0.311,0,0,0,.385,0H57.9Zm0.616,0a0.226,0.226,0,0,0,.308,0H58.518Zm0.385,0a0.311,0.311,0,0,0,.385,0H58.9Zm7.931,0a0.779,0.779,0,0,0,.693,0H66.834Zm1,0a0.226,0.226,0,0,0,.308,0H67.835Zm5.082,0a0.278,0.278,0,0,0,.154.076A0.279,0.279,0,0,0,72.916,22.975Zm0.462,0a0.311,0.311,0,0,0,.385,0H73.378Zm1.232,0a0.311,0.311,0,0,0,.385,0H74.61Zm1.309,0a0.226,0.226,0,0,0,.308,0H75.919Zm-46.968.076a1.744,1.744,0,0,0,1.155,0H28.951Zm5,0a0.279,0.279,0,0,0,.154.076A0.279,0.279,0,0,0,33.956,23.051Zm34.726,0a0.279,0.279,0,0,0,.154.076A0.279,0.279,0,0,0,68.681,23.051Zm-36.959.076V23.28H31.8A0.26,0.26,0,0,0,31.723,23.127Zm-2.772.076a0.311,0.311,0,0,0,.385,0H28.951Zm0.462,0a0.522,0.522,0,0,0,.539,0H29.413Zm3.7,0a0.226,0.226,0,0,0,.308,0H33.109Zm-21.02.458v0.229H12.32a0.367,0.367,0,0,0-.077-0.229,0.522,0.522,0,0,0-.385-0.153,0.218,0.218,0,0,1-.077.076v0.076h0.308Zm0.385,0.229a4.321,4.321,0,0,0,1.232-.076,0.278,0.278,0,0,0-.154-0.076,1.874,1.874,0,0,0-1.232-.229v0.076A0.3,0.3,0,0,1,12.474,23.891Zm-10.857,0a0.226,0.226,0,0,0,.308,0H1.617Zm0.385,0a4.3,4.3,0,0,0,2.156,0H2Zm3.542,0c0.132,0.067.1,0.068,0.231,0H5.544Zm0.539,0a0.78,0.78,0,0,0,.693,0H6.083Zm3.7,0.076c-0.078.053-.308,0.1-0.385,0.153a1.445,1.445,0,0,0,.77-0.153H9.779Zm0.539,0a0.924,0.924,0,0,0,.77,0h-0.77Zm0.847,0a0.226,0.226,0,0,0,.308,0H11.165Zm1,0a0.278,0.278,0,0,0,.154.076A0.278,0.278,0,0,0,12.166,23.967Zm0.231,0a0.646,0.646,0,0,0,.616,0H12.4Zm0.693,0a0.522,0.522,0,0,0,.539,0H13.09Zm-11.319.076a0.279,0.279,0,0,0,.154.076A0.279,0.279,0,0,0,1.771,24.044Zm0.308,0a0.522,0.522,0,0,0,.539,0H2.079Zm3.542,0a0.279,0.279,0,0,0,.154.076A0.279,0.279,0,0,0,5.621,24.044Zm1,0a1.233,1.233,0,0,0,.924,0H6.622Zm1.848,0a0.923,0.923,0,0,0,.77,0H8.47Zm9.779,0.076a0.311,0.311,0,0,0,.385,0H18.248Zm0.77,0a0.279,0.279,0,0,0,.154.076A0.279,0.279,0,0,0,19.018,24.12Zm-18.4.84v0.153H0.693V24.96H0.616Zm4.7,2.9c0.132,0.067.1,0.068,0.231,0H5.313Zm0.462,0a0.279,0.279,0,0,0,.154.076A0.279,0.279,0,0,0,5.775,27.862Zm1.617,0.916H7.7V28.7L7.315,28.4v0.153A0.387,0.387,0,0,1,7.392,28.778Z" transform="translate(0 0.5)"/>
</svg>
