<svg xmlns="http://www.w3.org/2000/svg" xmlns:xlink="http://www.w3.org/1999/xlink" width="80.031" height="40" viewBox="0 0 80.031 40">
  <defs>
    <style>
      .cls-1 {
        fill: #fff;
        fill-rule: evenodd;
      }
    </style>
    <clipPath id="clip-path">
      <rect x="0.016" width="80" height="40"/>
    </clipPath>
  </defs>
  <g clip-path="url(#clip-path)">
    <path id="Color_Fill_1" data-name="Color Fill 1" class="cls-1" d="M33.048,12.976a2.266,2.266,0,0,1,0,.951c-0.109.3,0.093,0.857,0,.951,0.063,0.047.229,0.1,0.291,0.146-0.261.03-.183-0.034-0.291,0.146,0.434,0.093.321,0.74,0.291,1.244a16.392,16.392,0,0,1,.218,3.073h0.51c0-.964-0.029-1.976,0-2.561,0.339-.09,1.279-0.8,1.456-0.659a2.22,2.22,0,0,1,.364.659h0.146a0.615,0.615,0,0,1,.073-0.366v0.951a0.606,0.606,0,0,1,.364.073c-0.392.028-.376,0.1-0.364,0.512a0.351,0.351,0,0,1,.218.073H36.106v0.293h0.146a0.928,0.928,0,0,1,.582.073,0.265,0.265,0,0,1,.073.146,0.5,0.5,0,0,1,.073.293,0.351,0.351,0,0,1,.218.073,0.4,0.4,0,0,0-.218.293c0.161-.038.144-0.083,0.291,0-0.485.274-.528,1.21-0.51,1.976a0.943,0.943,0,0,1,.51.073V21.024a1.285,1.285,0,0,1-.291-0.585,14.456,14.456,0,0,0,1.747-.146v0.22h0.291V20.439l-0.8-.732a0.89,0.89,0,0,0,.291-0.293,0.446,0.446,0,0,1-.146-0.146l0.51-.073a1.725,1.725,0,0,1,.073.512v0.073a2.582,2.582,0,0,0-.218-0.22v0.512a2.211,2.211,0,0,0,.51.293v-0.22a1.081,1.081,0,0,1-.364-0.22,0.265,0.265,0,0,0,.073-0.146c0.193,0.087.131-.066,0.218,0.146,0.069,0.129.016,0,0,.146a0.673,0.673,0,0,1,.437.366l0.291-.073V20.293a0.428,0.428,0,0,1-.291,0H39.527V20.22h0.437a3.95,3.95,0,0,0,1.383.366c0,0.524,0,.646,0,1.171h0.364V20.512a3.732,3.732,0,0,1-.51-0.22,0.578,0.578,0,0,1,.218-0.439,0.251,0.251,0,0,0,.073.146l-0.073-.659h0.073v0.073c0.05,0.056.1,0.163,0.145,0.22V19.561a10.315,10.315,0,0,0,.073-2.634,7.735,7.735,0,0,0,1.529-.732,5.637,5.637,0,0,0,.51,1.1,7.348,7.348,0,0,0-.146,2.122h0.218a5.675,5.675,0,0,1,0-.8,0.37,0.37,0,0,1,.218-0.073V16.268l-0.291-.146c-0.141-.313.318-0.828-0.146-1.1a0.355,0.355,0,0,1-.073.22V14.878c0.283,0,.257-0.2.218-0.659-0.25-.443.385-2.063,0.073-2.634a2.111,2.111,0,0,0-.8-0.293,1.026,1.026,0,0,0,.874-0.146A0.444,0.444,0,0,1,43.749,11H44.04v0.293a1.732,1.732,0,0,1,.8.073c-0.683-.035-0.9.112-0.874,0.8a2.3,2.3,0,0,1,0,.659,0.469,0.469,0,0,1,.291.073,0.351,0.351,0,0,0-.218.073h0.218v0.293H44.04l-0.073.659h0.291V14H44.186v0.073c-0.241.109-.231,0.142-0.218,0.659H44.04c0.04-.1,0-0.054.073-0.073,0.047,0.063.1,0.23,0.146,0.293V14.8c0.05-.056.1-0.163,0.146-0.22,0.03,0.262-.034.184,0.146,0.293v0.073h0.073a2.307,2.307,0,0,1,.146-0.8h0.073a1.4,1.4,0,0,0,.073.659c0.215-.123,0-0.075.291-0.073v0.439h0.218a0.355,0.355,0,0,1-.073.22c-0.127-.181-0.612.026-0.728,0.293a13.013,13.013,0,0,0,.364,2.854,2.532,2.532,0,0,1,1.165,0V17.293a6.089,6.089,0,0,0,0-1.829,1.819,1.819,0,0,1,.582-0.073v0.073h0.073a0.9,0.9,0,0,0-.146.659h0.146a0.37,0.37,0,0,0,.218.073,16.066,16.066,0,0,1,0,1.976h0.8v0.366c0.456,0.006.491,0.074,0.51-.366a2.438,2.438,0,0,0,.073-1.024c0.236-.061.111,0.036,0.218-0.146a0.249,0.249,0,0,1-.146-0.073,0.469,0.469,0,0,0,.291-0.073c-0.184-.107-0.133-0.092-0.146-0.366a1.231,1.231,0,0,1,.437.073,1.318,1.318,0,0,0,0,.878,1.558,1.558,0,0,0,.509.073q-0.036.622-.073,1.244h0.073c0.107-.185.032-0.113,0.291-0.146,0.06-.238-0.036-0.112.146-0.22a0.281,0.281,0,0,0,.218.146c-0.054-.064-0.092-0.083-0.146-0.146,0.51,0.059.584,0.109,1.019,0.146a0.474,0.474,0,0,1,.073-0.293c0.03,0.262-.034.184,0.146,0.293a0.474,0.474,0,0,1,.073-0.293c0.03,0.262-.034.184,0.146,0.293a0.474,0.474,0,0,1,.073-0.293l-0.073.8a1.125,1.125,0,0,1,.582.073,2.739,2.739,0,0,1-.728,0c0.135,0.9-.287,4.48.509,4.537,0.033-.448.144-0.8,0.146-1.39h-0.51V21.317a0.9,0.9,0,0,1,.728-0.293,1.3,1.3,0,0,0,.146.293V21.024h0.437l0.073-.439h0.146a0.563,0.563,0,0,0,0,.512c-0.013-.48.127-0.732,0.291-0.732a0.584,0.584,0,0,1,.073.293,1.275,1.275,0,0,1,.8.146c-0.274.01-.256-0.035-0.364,0.146,0.068,0.139.028,0.086,0,.293a0.606,0.606,0,0,0-.364.073h0.51V21.024h0.146V21.1c0.142,0.03.052-.113,0.146,0a0.5,0.5,0,0,1,.073.293c0.637,0.055.4,0.214,0.655,0.366l3.276,0.073v0.22h-3.13v0.22h0.364v1.244a0.607,0.607,0,0,0,.364-0.073H55.687V22.488c0.577-.136,2.03-0.222,2.184.146,0.13,0.1.047-.134,0.073-0.146l1.092,0.146a2.558,2.558,0,0,1,.146.293L61.074,23a8.724,8.724,0,0,1,2.038.22,13.634,13.634,0,0,0,1.456-.073c0.06,0.238-.036.112,0.146,0.22a1.538,1.538,0,0,1,1.456-.22V22.854c0.937-.017,1.13-0.14,2.184-0.146v0.146a0.7,0.7,0,0,0-.218.293h0.437c0.134-.232.206-0.229,0.582-0.22v-0.22c0.43-.012.978,0.171,1.6,0.22v-0.22l0.655-.073v0.22c0.486,0.022.612,0.084,0.655-.293l0.8-.073c0.069,0.248.028,0.228,0.291,0.293a20.038,20.038,0,0,1,4.222-.293c0.373,0.06.991-.282,1.237-0.073,0.05-.056.1-0.163,0.146-0.22,0.127,0.148.447-.031,0.8,0.146a0.476,0.476,0,0,1,.073-0.293v0.293c0.221-.034.229-0.145,0.291-0.073a0.636,0.636,0,0,1,.073.366c-0.1.015,0.029-.06-0.073-0.073-0.056-.141-0.073.146-0.073,0.146a0.374,0.374,0,0,1,.073.22H79.854a0.251,0.251,0,0,0-.073-0.146,5.917,5.917,0,0,1-.582,1.61c-0.43,1.03-.687,2.1-1.092,3.073-0.2.489-.16,1.249-0.582,1.317A3.378,3.378,0,0,1,76,28.927H9.39a10.977,10.977,0,0,0-2.329-.8c-0.055.192-.087,0.175-0.146,0.366-0.14-.04-0.062-0.12-0.146,0H6.7v0.073H6.624a1.977,1.977,0,0,0-.437-0.732,0.249,0.249,0,0,0,.146-0.073,1.523,1.523,0,0,0-.728.073H5.823v0.951H5.751v0.073a8.327,8.327,0,0,1-2.257,0l-0.073-.22A4.125,4.125,0,0,1,3.2,27.1H3.276V27.024a0.765,0.765,0,0,0,.437-0.073l-2.839-.22L0.8,23.439c0.176-.066.116-0.078,0.291-0.146,0.111,0.183.148,0.129,0.437,0.146,0.01-.307.126-0.238,0.582-0.22V23.146c-0.185-.108-0.146-0.155-0.146-0.439A0.606,0.606,0,0,1,1.6,22.634a0.607,0.607,0,0,0,.364-0.073c0.05-.056.1-0.163,0.146-0.22a0.852,0.852,0,0,0,.946-0.073,1.285,1.285,0,0,0,.146.366H3.276a0.93,0.93,0,0,1,.073-0.293H3.421v0.22a1.163,1.163,0,0,0-.073.585,0.468,0.468,0,0,0-.291.073H3.64V22.634c0.236-.061.111,0.036,0.218-0.146-0.234-.134-0.176-0.291-0.146-0.512a1.229,1.229,0,0,0,.8-0.146v0.659c-0.18.095-.05-0.031-0.146,0.146H4.8a2.66,2.66,0,0,0,.073.878,2.253,2.253,0,0,0,.728-0.146V23.073l0.728,0.073a1.155,1.155,0,0,1,.073.366h0.51c0.06-.238-0.036-0.112.146-0.22v0.22H7.643v-0.22H7.862v0.22H8.153c0.028-.192-0.054-0.1.146-0.146a0.694,0.694,0,0,0,.582.146V23.439c-0.348-.232.1-0.346-0.582-0.366V23a1.187,1.187,0,0,0,1.019-.22c0.047-.063.1-0.23,0.146-0.293a1.506,1.506,0,0,1,0,.439,0.441,0.441,0,0,1,.364,0,0.687,0.687,0,0,0,.291.659,1.832,1.832,0,0,1,1.019,0,0.985,0.985,0,0,1,0-.512h-0.8V23a8.039,8.039,0,0,1,1.237,0V22.927L11.5,22.854h0.146c0.007,0.461-.058.51,0.437,0.512a0.355,0.355,0,0,0,.073.22c0.026-.373.053-0.363,0.437-0.366,0.172,0.3.223,0.14,0.51,0.073a0.93,0.93,0,0,1-.073.293H13.1a0.728,0.728,0,0,1,.582,0c0.015-.1-0.06.029-0.073-0.073-0.14-.057.146-0.073,0.146-0.073a1.325,1.325,0,0,0,1.019.146c0-.244-0.049-0.229.364-0.22,0.01,0.3.066,0.234,0.51,0.22a2.044,2.044,0,0,1,.874,0,1.515,1.515,0,0,0,.146-0.366h-3.2V23l3.349-.073,0.073-.22a1.726,1.726,0,0,1,1.31-.073c-0.029-.215-0.119-0.092.073-0.22a1.773,1.773,0,0,1,.874-0.146v0.22h0.291c0.1-.295.192-0.3,0.582-0.293a1.844,1.844,0,0,1,.291,1.244H19.945v0.146c0.355-.008.366,0.061,0.437-0.073,0.242-.041.161-0.564,0.145-1.024a0.264,0.264,0,0,1-.073-0.146c0.3-.024.268,0.014,0.364-0.22h0.073V22.049h-3.2v-0.22l3.348-.073,0.073-.293a8.075,8.075,0,0,1,2.548-.146,0.354,0.354,0,0,1,.073-0.22,1.146,1.146,0,0,1,.582-0.073,7.974,7.974,0,0,1,.146,1.244H23.8v0.22H24.24a1.287,1.287,0,0,1-.146.366h0.582q0.036-1.207.073-2.415l0.509-.073a2.125,2.125,0,0,0,.146-0.585s-0.123-.024-0.146-0.366h0.073V19.342a0.249,0.249,0,0,1,.146.073c0.184,0.107.112,0.032,0.146,0.293a0.249,0.249,0,0,0-.146.073H25.7V20c0.236,0.061.111-.036,0.218,0.146a2.128,2.128,0,0,0,.073,1.1h0.364a0.589,0.589,0,0,0,.291.585V21.756a0.374,0.374,0,0,1-.073-0.22,0.724,0.724,0,0,0,.8-0.732,2.521,2.521,0,0,1-1.019-.439,0.446,0.446,0,0,1,.291-0.146c0.107,0.186.154,0.147,0.437,0.146V19.927a0.765,0.765,0,0,1-.437-0.073h0.437a0.47,0.47,0,0,1,.291-0.366c0.155,0.382.486,0.162,0.728,0a2.243,2.243,0,0,0,0,.512V19.927c0.05-.056.1-0.163,0.146-0.22a0.251,0.251,0,0,0,.073.146,0.929,0.929,0,0,1,.073-0.293h0.073v0.366a0.637,0.637,0,0,0-.073.366,0.35,0.35,0,0,0-.218.073H28.9a1.389,1.389,0,0,0-.073-0.951c0.373-.03.4-0.085,0.8-0.146v0.073H29.7a2.913,2.913,0,0,1-.218.659h0.291V19.488l0.655,0.073V19.488H30.5a1.637,1.637,0,0,1,.146-0.951,0.579,0.579,0,0,0,.291,0L30.864,17.8h0.582v0.146a0.351,0.351,0,0,0-.218.073,2.294,2.294,0,0,1,.218,1.317,0.525,0.525,0,0,0,.509-0.22L32.029,20H32.32V19.122a0.607,0.607,0,0,1-.364-0.073h0.437l0.146,0.293h0.073V19.268a2.664,2.664,0,0,0,.073-1.1c-0.323-.056-0.468-0.068-0.51-0.439h0.073V17.659H32.32v0.073a0.374,0.374,0,0,1,.073.22h0.364V17.878H32.684a0.331,0.331,0,0,0-.073-0.439c0.13-.12.118,0.036,0.145-0.22H32.684a0.252,0.252,0,0,1-.073.146v-0.22c0.282-.18.162-1.306,0.145-1.756a0.674,0.674,0,0,1-.291-0.22,0.919,0.919,0,0,0,.291-0.073V15.024a0.606,0.606,0,0,1-.364-0.073,0.606,0.606,0,0,0,.364-0.073,0.249,0.249,0,0,1-.145-0.073c0.31-.21.061-0.788,0.073-1.1,0-.018.112-0.422,0.145-0.585a9.344,9.344,0,0,1,0-1.463,0.688,0.688,0,0,1-.437-0.293h0.218V11h0.145c0.113,0.052.01,0.009,0.218,0v0.366a6.721,6.721,0,0,1,0,1.537,0.372,0.372,0,0,1,.364.073H33.048Zm-0.291-1.829v0.146H32.83A0.251,0.251,0,0,0,32.757,11.146ZM43.6,11.585a0.215,0.215,0,0,1,0,.293V11.585Zm-11.283.293a0.352,0.352,0,0,1,.218.073A0.351,0.351,0,0,1,32.32,11.878Zm0.218,0.073h0.146v0.073A0.249,0.249,0,0,1,32.539,11.951ZM44.331,12.39a0.215,0.215,0,0,1,0,.293V12.39Zm-0.364.659a0.845,0.845,0,0,0,.218.146V13.049H43.967Zm0.364,0.439a0.215,0.215,0,0,1,0,.293V13.488Zm-0.728.878a0.389,0.389,0,0,1,0,.439V14.366Zm0.364,0.659v0.146H44.04A0.251,0.251,0,0,0,43.967,15.024Zm0.218,0v0.146h0.073V15.024H44.186Zm1.31,0a0.265,0.265,0,0,1,.073.146H45.5V15.024Zm-1.893.293a0.375,0.375,0,0,1,.073.22H43.6v-0.22Zm1.6,0.073H45.35v0.073H45.278v0.073A0.265,0.265,0,0,1,45.2,15.39Zm-1.238.073a1.142,1.142,0,0,0,.073.585A1.14,1.14,0,0,0,43.967,15.463Zm2.257,0.073a0.476,0.476,0,0,0,.073.293,0.434,0.434,0,0,1,.146-0.293H46.224ZM33.048,17.8h0.218a5.631,5.631,0,0,0-.218-2.2v2.2Zm10.628-2.2a0.375,0.375,0,0,1,.073.22H43.676V15.61Zm0.582,0.073v0.366H44.4V15.976C44.357,15.913,44.307,15.746,44.258,15.683ZM46.3,15.976v0.146h0.218V15.976H46.3Zm-2.038,1.317H44.55L44.4,16.342H44.258v0.951Zm-10.482-.146a0.389,0.389,0,0,1,0,.439V17.146Zm15.359,0h0.146V17.22H49.136V17.146Zm0.218,0a0.351,0.351,0,0,1,.218.073A0.35,0.35,0,0,1,49.354,17.146Zm-5.1.22a7.535,7.535,0,0,1,0,1.171h0.218c0.113-.052.01-0.009,0.218,0V18.39a9.047,9.047,0,0,1-.146-1.024H44.258Zm-11.21.512v1.39a1.04,1.04,0,0,1,.364.073l-0.146-1.463H33.048Zm15.068,0.293a0.283,0.283,0,0,1,.146.22H48.189a0.371,0.371,0,0,1-.218.073A0.983,0.983,0,0,1,48.117,18.171Zm-16.67.073a0.265,0.265,0,0,1,.073.146H31.447V18.244Zm-0.364.146c0.028,0.192-.054.1,0.146,0.146V18.39H31.083Zm0.437,0a0.375,0.375,0,0,1,.073.22H31.52V18.39Zm20.6,0.366a0.215,0.215,0,0,1,0,.293V18.756Zm-14.85.293h0.291v0.073H37.416C37.3,19.172,37.187,19.19,37.27,19.049Zm0.364,0.073a1.35,1.35,0,0,1,.728.146,0.609,0.609,0,0,0-.437.146A0.544,0.544,0,0,0,37.634,19.122Zm-0.218.073a0.288,0.288,0,0,1,.218.293H37.416c-0.054-.064-0.092-0.082-0.146-0.146C37.469,19.288,37.4,19.394,37.416,19.2Zm0.291,0.073h0.146v0.073A0.25,0.25,0,0,1,37.707,19.268Zm-11.938.146a0.375,0.375,0,0,1,.073.22H25.769v-0.22Zm12.448,0a0.351,0.351,0,0,1,.218.073A0.35,0.35,0,0,1,38.217,19.415Zm-0.582.073H38a0.281,0.281,0,0,0,.218.146v0.073H38C37.893,19.623,37.731,19.58,37.634,19.488Zm0.437,0h0.146v0.073A0.249,0.249,0,0,1,38.071,19.488Zm0.51,0.146a0.475,0.475,0,0,0,.073.293A0.474,0.474,0,0,0,38.581,19.634Zm-13.03.22a0.355,0.355,0,0,0,.073.22v-0.22H25.551ZM50.81,19.927v0.146h0.073V19.927H50.81Zm0.146,0v0.146h0.073A0.251,0.251,0,0,0,50.955,19.927Zm28.9,0a4.472,4.472,0,0,1,0,2.2C79.811,21.578,79.854,20.682,79.854,19.927Zm-46.224.22v0.366h0.437V20H33.995C33.888,20.185,33.9,20.134,33.631,20.146Zm2.329,0.146a0.474,0.474,0,0,0,.073.293A0.476,0.476,0,0,0,35.96,20.293Zm0,0.366a0.354,0.354,0,0,0,.073.22v-0.22H35.96Zm5.532,0.366a0.215,0.215,0,0,1,0,.293V21.024Zm11.429,0.146v0.146h0.218V21.244Zm-0.437.073a0.291,0.291,0,0,0,.364,0H52.484ZM0,21.317H1.019v0.659H0.073A2.125,2.125,0,0,1,0,21.317Zm33.776,0.512h0.218V21.39a0.919,0.919,0,0,1-.291-0.073v0.22A0.5,0.5,0,0,1,33.776,21.829Zm-0.291-.439a0.775,0.775,0,0,0,.073.439A0.776,0.776,0,0,0,33.485,21.39Zm3.276,0.293v0.146h0.073V21.683H36.761Zm4.586,0.146a2.121,2.121,0,0,0,.146.732l-0.073,1.1h0.146c0-.75.141-1.065,0.145-1.829H41.347Zm-4.44.146a0.261,0.261,0,0,0,.146.073A0.262,0.262,0,0,0,36.906,21.976Zm42.8,0.073a0.263,0.263,0,0,1,.073.146H79.709V22.049Zm-70.464.22c0.164,0.174.079,0.026,0.073,0.293H9.245V22.268Zm69.882,0a0.262,0.262,0,0,0,.146.073A0.262,0.262,0,0,0,79.127,22.268Zm-2.839.073a0.263,0.263,0,0,1,.073.146H76.288V22.342Zm-75.2.439a0.264,0.264,0,0,1,.073.146H1.092V22.781Zm3.494,0.073a0.355,0.355,0,0,0,.073.22V22.927l0.073-.073H4.586ZM79.782,23a0.374,0.374,0,0,1,.073.22H79.782V23Zm-78.617.073a0.264,0.264,0,0,1,.073.146H1.165V23.073ZM4.877,23.22c0.236,0.061.111-.036,0.218,0.146H5.023C4.969,23.3,4.931,23.283,4.877,23.22Zm54.45,0v0.22a1.26,1.26,0,0,0,.874-0.22H59.327Zm1.82,0L61,23.512h0.8a1.128,1.128,0,0,0,.364-0.293H61.147Zm-50.737.073a0.265,0.265,0,0,1,.073.146H10.41V23.293Zm53.867,0c0.005,0.163-.016.052,0.146,0.073V23.293H64.277Zm15.432,0a0.374,0.374,0,0,1,.073.22H79.709v-0.22ZM11.5,23.366a0.318,0.318,0,0,0,.218.22V23.512Zm51.756,0a0.212,0.212,0,0,0,.291,0H63.258Zm-43.676.073a0.212,0.212,0,0,0,.291,0H19.581Zm60.055,0.146a0.374,0.374,0,0,1,.073.22H79.636v-0.22Zm-0.073.293a0.264,0.264,0,0,1,.073.146H79.563V23.878Zm-0.073.22a0.374,0.374,0,0,1,.073.22H79.49V24.1Zm-0.073.293a0.264,0.264,0,0,1,.073.146H79.418V24.39Zm-0.073.22a0.264,0.264,0,0,1,.073.146H79.345V24.61Zm-0.073.293a0.265,0.265,0,0,1,.073.146H79.272V24.9Zm-0.073.22a0.265,0.265,0,0,1,.073.146H79.2V25.122Zm-0.073.22a0.265,0.265,0,0,1,.073.146H79.127V25.342Zm-0.073.22a0.265,0.265,0,0,1,.073.146H79.054V25.561Zm-0.073.22a0.265,0.265,0,0,1,.073.146H78.981V25.781ZM78.908,26a0.265,0.265,0,0,1,.073.146H78.908V26Zm-0.073.22a0.265,0.265,0,0,1,.073.146H78.835V26.22Zm-0.073.146a0.265,0.265,0,0,1,.073.146H78.763V26.366Zm-0.073.22a0.264,0.264,0,0,1,.073.146H78.69V26.585Zm-0.146.366a0.264,0.264,0,0,1,.073.146H78.544V26.951Zm-74.686.073a1.19,1.19,0,0,0,.8.22V27.1H4.44A1.146,1.146,0,0,0,3.858,27.024Zm74.613,0.146a0.264,0.264,0,0,1,.073.146H78.471V27.171Zm-0.146.366a0.263,0.263,0,0,1,.073.146H78.326V27.537ZM5.314,27.9l-0.073.146C5.368,27.946,5.314,27.9,5.314,27.9Zm72.648,0.439a0.265,0.265,0,0,1,.073.146H77.962V28.342Z" transform="translate(0.016)"/>
  </g>
</svg>
