<svg xmlns="http://www.w3.org/2000/svg" width="79.906" height="40" viewBox="0 0 79.906 40">
  <defs>
    <style>
      .cls-1 {
        fill: #fff;
        fill-rule: evenodd;
      }
    </style>
  </defs>
  <path id="Color_Fill_1" data-name="Color Fill 1" class="cls-1" d="M27.305,14.6a11.65,11.65,0,0,1-.1-1.93h0.1v0.1h0.1a6.773,6.773,0,0,0,.1,1.93,2.9,2.9,0,0,1,.671.1V13.439a0.364,0.364,0,0,1-.288-0.193,0.529,0.529,0,0,0,.288-0.386h0.1v0.1c0.261,0.435-.075,1.5.192,1.93V14.5a0.765,0.765,0,0,0,.766-0.29c-0.461-.032-0.444-0.021-0.479-0.482a1.893,1.893,0,0,0,.192-0.386,5.583,5.583,0,0,1,.862.386c0.255,0.42-.017.635,0.671,0.675v0.675h0.479a0.688,0.688,0,0,1,.287-0.772v0.772H32.1v0.1H31.9a12.091,12.091,0,0,1-1.629,0,1.546,1.546,0,0,1-.479.386c0.215,0.453.326,0.83,0.671,1.447h0.287a3.412,3.412,0,0,1-.192-0.965,1.741,1.741,0,0,1,.575-0.1,2.192,2.192,0,0,0,1.054.579,3.5,3.5,0,0,0-.1.675,0.461,0.461,0,0,1,.287.1,1.6,1.6,0,0,0,0,.675,0.8,0.8,0,0,0,.479-0.1,0.616,0.616,0,0,1-.383-0.1,1.165,1.165,0,0,0,1.054-.193,12.11,12.11,0,0,1-.958-2.509h0.192v0.1a6.424,6.424,0,0,1,.479,1.351c0.476,1.156.866,2.132,1.341,3.377,0.269,0.706.221,1.772,1.15,1.833v0.386a1.744,1.744,0,0,0,.575.1,1.385,1.385,0,0,1-.383.772c-0.051.149,0.1,0.844,0.1,1.158H36.79l0.1-.965H36.6V22.316c1.967,0.01,2.822.009,5.078,0a4.4,4.4,0,0,0,.1,1.351h3.066a1.648,1.648,0,0,0,1.15,0v0.289c-1.11-.021-3.267-0.3-4.024.193,1.857,0.013,2.784-.08,4.311-0.1a1.237,1.237,0,0,1,.192-0.772H45.509V23.088a1.387,1.387,0,0,1,0-.965h0.383v-0.29c0.7-.1,1.562-0.4,2.012-0.1,0.066,0.1.123,0.386,0.192,0.483a0.824,0.824,0,0,1,.479-0.1,0.622,0.622,0,0,1,.287-0.482s1.138,0.282,1.15.289a0.349,0.349,0,0,0-.1.193c0.578,0.144.347,0.459,1.15,0.482,0.416,0.263,3.389.172,4.024,0.193v0.386h0.192V22.8a5.149,5.149,0,0,1,2.012.1,4.859,4.859,0,0,0-1.916.1,4.858,4.858,0,0,1,1.916.1,3.122,3.122,0,0,0-1.341.1h1.437l0.1,0.482h3.162a1.443,1.443,0,0,0,1.054,0v0.289l18.108-.289a4.664,4.664,0,0,1,.1-1.833,17.911,17.911,0,0,1-.862,6.561,8.852,8.852,0,0,1-.575,2.316c-0.615.382-4.07,0.1-5.078,0.1H9.485a3.7,3.7,0,0,0-2.4-.579,0.469,0.469,0,0,0-.1-0.29,2.469,2.469,0,0,0-.958-0.386v1.158c-0.8.021-1.908,0.286-2.4-.1a4.745,4.745,0,0,1-.287-2.219,8.478,8.478,0,0,0,1.341.193,0.349,0.349,0,0,0,.1-0.193H3.928c-1.094-.628-3.667.239-3.832-1.351-0.25-.425.294-2.385,0.383-2.991a5.147,5.147,0,0,0,2.012-.1,0.327,0.327,0,0,1-.192-0.1,0.615,0.615,0,0,0,.383-0.1,0.616,0.616,0,0,1-.383-0.1,2.388,2.388,0,0,1,.958,0,0.469,0.469,0,0,1,.1-0.29v0.1a1.01,1.01,0,0,0,.383.29l-0.1.289h1.82c0.617-.357,1.592.262,2.012-0.386H6.515v-0.1c0.876,0,1.5-.047,2.2,0V23.86c0.311-.08.146,0.047,0.287-0.193-0.241-.393.132-1.645,0.1-2.123,0.538-.059.47-0.244,1.054-0.29v-0.29h0.383a2.806,2.806,0,0,1,.1.868,0.5,0.5,0,0,0-.1.29H11.21V21.737a3.128,3.128,0,0,1,.958-0.1c0.133,0.169.067,0.272,0.192,0.1,0.652-1.1-.344-5.329-0.575-6.368H11.5a1.382,1.382,0,0,1-.862.193,1.89,1.89,0,0,1-.192-0.772c0.55-.027,1.133-0.344,1.341-0.29h0.1a9.572,9.572,0,0,0,.479,2.509h0.1a5,5,0,0,1,.671-2.7H12.934a2.248,2.248,0,0,1-.958.482V14.6a1.05,1.05,0,0,0,1.054-1.254,8.034,8.034,0,0,1-.287-2.412h0.192V11.8a5.777,5.777,0,0,1,.287,2.123h0.1V13.728A3.052,3.052,0,0,0,13.8,11.7a0.519,0.519,0,0,1-.383-0.29c0.211,0.05.19,0.109,0.383,0A4.605,4.605,0,0,1,13.8,9a13.067,13.067,0,0,0,.287,3.088,12.016,12.016,0,0,1,2.97.579c1.553,0.4,2.957.354,4.5,0.772A34.857,34.857,0,0,0,27.305,14.6Zm0.767-3.667h0.192v0.1A0.327,0.327,0,0,1,28.072,10.93Zm0.1,1.254a0.514,0.514,0,0,1,0,.579V12.184Zm-14.084.1a2.124,2.124,0,0,0,.383,1.447c0.672,0.558,2.644.586,3.641,0.868,2.144,0.607,4.567,1.038,6.707,1.64,0.936,0.264,1.847.257,2.683,0.579V15.851a2.075,2.075,0,0,1-.1-0.965ZM27.5,12.956h0.192v0.1A0.327,0.327,0,0,1,27.5,12.956Zm-13.8.29-0.192.579H13.7v-0.1A0.39,0.39,0,0,0,13.7,13.246Zm0.383,0.193c0.079,0.313-.047.147,0.192,0.29v-0.1C14.192,13.56,14.167,13.51,14.084,13.439Zm0,0.482a5.763,5.763,0,0,0,.671,2.123c0.18-.083.071-0.046,0.287,0v-0.29a5.145,5.145,0,0,1-.671-1.737Zm-0.671,1.64H13.8V14.018H13.509a1.718,1.718,0,0,0-.192.965A1.052,1.052,0,0,1,13.413,15.561Zm10.539,3.86a0.461,0.461,0,0,1,.287.1H23.952v1.64h0.192c0.182-.311.687-0.038,1.15,0v0.289h0.383a1.148,1.148,0,0,1-.287.868h0.287a0.847,0.847,0,0,1,1.054-.29l0.1,0.29h1.533V19.711H27.88V19.228a1,1,0,0,0,.958-0.193H28.359a3.419,3.419,0,0,0-1.054-2.026c-0.854-.57-2.3-0.453-3.353-0.772-2.014-.609-4.3-0.977-6.323-1.544-1.057-.3-2.107-0.306-3.066-0.675v0.29a3.01,3.01,0,0,1,.575,1.737,1.028,1.028,0,0,0-.479.386c0.206,0.241.147,0.246,0.1,0.579a4.6,4.6,0,0,1,1.82,1.061C17.985,19,20.78,20.1,21.27,21.544h0.1V20.1a2.531,2.531,0,0,1,.287-1.833,7.468,7.468,0,0,1,2.108,0A2.247,2.247,0,0,1,23.952,19.421Zm-9.964-3.86h0.383v-0.1c-0.2-.3-0.171-0.862-0.383-1.158v1.254ZM13.03,14.79c-0.07.518-.3,0.739-0.383,1.254a3.066,3.066,0,0,0,.575-0.1,0.5,0.5,0,0,0,.1-0.29A1.991,1.991,0,0,0,13.03,14.79Zm14.659,2.123c0.4-.021.448-0.008,0.958,0V17.3H29.03V16.333H28.168V15.079a1.742,1.742,0,0,0-.575-0.1v-0.1H27.5v0.386A4.047,4.047,0,0,1,27.689,16.912Zm0.671-1.447a0.8,0.8,0,0,0,.479-0.1,0.975,0.975,0,0,1-.479-0.289v0.386Zm0.575-.29v0.193h0.1V15.175h-0.1Zm0.958,0a0.344,0.344,0,0,0,.192.1A0.345,0.345,0,0,0,29.892,15.175Zm1.533,0.1h0.192v0.1A0.327,0.327,0,0,1,31.425,15.272Zm-0.192.1h0.192v0.1A0.327,0.327,0,0,1,31.234,15.368Zm-0.287.1h0.192v0.1A0.328,0.328,0,0,1,30.946,15.465Zm-0.287.1H30.85v0.1A0.327,0.327,0,0,1,30.659,15.561Zm-0.192.1h0.192v0.1A0.327,0.327,0,0,1,30.467,15.658Zm-0.287.1h0.192v0.1A0.328,0.328,0,0,1,30.18,15.754ZM13.8,16.43a7.491,7.491,0,0,1-1.245-.29v0.1c0.039,0.063.37,3.285,0.383,3.474,0.217-.039.1-0.089,0.287,0a0.827,0.827,0,0,0,.287.386c0.085-.847.377-1.734,0.479-2.509C14,17.572,13.712,17.332,13.7,17.3A3.661,3.661,0,0,1,13.8,16.43Zm0.1,0V17.2h0.1V17.009a1.007,1.007,0,0,0,.192-0.579H13.892Zm0.671,0.29v0.193h0.1V16.719h-0.1Zm0.192,0.675a0.469,0.469,0,0,0,.1.29L19.066,20.1A23.957,23.957,0,0,0,14.755,17.395Zm0,0.482c0.028,1.263-.088,2.992-0.192,4.439h0.192c0.7-.452,3.942-0.749,4.982-0.965v-0.1a15.012,15.012,0,0,1-3.449-1.833c-0.472-.259-1.187-0.29-1.341-0.868h0.1a14.126,14.126,0,0,0,2.4,1.254,14.714,14.714,0,0,0,2.683,1.544c0.1-.067.383-0.124,0.479-0.193ZM32.767,18.07v0.482h0.862v0.1a9.58,9.58,0,0,0,0,3.088c-0.012-.65.1-0.877,0.767-0.868a2.527,2.527,0,0,0,.479.386c-0.247-.6-1.006-3.155-1.437-3.377A1.4,1.4,0,0,1,32.767,18.07ZM14.18,19.325a2.894,2.894,0,0,0-.1-1.254,3.316,3.316,0,0,1-.192,1.254H14.18Zm14.276-1.061a1.319,1.319,0,0,0,1.054,0H28.455Zm3.353,0.675-0.1.29h0.1A0.809,0.809,0,0,0,32,18.939H31.808Zm-2.874.1v0.193h0.575V19.035H28.934ZM12.838,20.1l-0.192-.965h-0.1v0.29a0.732,0.732,0,0,1,0,.675h0.287ZM13.7,20.868a1.369,1.369,0,0,1,.479.1V19.711a0.462,0.462,0,0,0-.287.1A2.273,2.273,0,0,0,13.7,20.868Zm25.773-.579a1.415,1.415,0,0,1,0,.868h0.1v0.1a12.353,12.353,0,0,1,1.245.193,0.469,0.469,0,0,1-.1.289c-0.493.457-3.827-.113-3.928-0.289a0.327,0.327,0,0,0,.192-0.1c-0.418-.077-0.377-0.107-0.383-0.579a1,1,0,0,1,.575-0.193,1.074,1.074,0,0,0,1.341.772,0.344,0.344,0,0,1,.192-0.1V20.772a3.118,3.118,0,0,1-.1-0.482h0.862ZM12.647,22.123h0.479a2.09,2.09,0,0,0,.1-0.675H13.03a0.486,0.486,0,0,0-.287-0.1,1.77,1.77,0,0,0-.1-0.868v1.64ZM38.9,20.483c0.165,0.085.122,0.086,0.287,0H38.9Zm0.1,0.675a1.206,1.206,0,0,1,.383.1V20.868a0.761,0.761,0,0,1-.383,0v0.29ZM38.8,20.965v0.193h0.1A0.332,0.332,0,0,0,38.8,20.965ZM14.755,22.412a1.072,1.072,0,0,1-.192.675h0.575c0.373-.715.705-0.227,0.958-0.482,0.172-.128-0.044-0.159.383-0.193a0.652,0.652,0,0,0,.862-0.193c0.091,0.327.037,0.3,0.383,0.386v-0.1a0.328,0.328,0,0,1-.192-0.1l0.766-.1c0.113,0.256-.086.173,0.192,0.29,0.018-.057.419-0.715,0.1-0.772h0.287a1.227,1.227,0,0,0,.479.386,0.461,0.461,0,0,0-.287.1,0.882,0.882,0,0,0,.479.29,2.6,2.6,0,0,1,1.246-.1c0-.585.017-0.672,0-1.158H20.6a7.235,7.235,0,0,1-2.108.386A18.017,18.017,0,0,1,14.755,22.412Zm-1.245-.289a0.461,0.461,0,0,0,.287-0.1c-0.13-.148-0.167-0.416-0.287-0.579v0.675Zm21.365-.579v0.193h0.1A0.331,0.331,0,0,0,34.874,21.544Zm-20.886.289-0.1.29H14.18A0.367,0.367,0,0,0,13.988,21.833Zm34.108,0h0.192v0.1A0.327,0.327,0,0,1,48.1,21.833Zm-26.73.1a0.469,0.469,0,0,0,.1.29A0.469,0.469,0,0,0,21.365,21.93Zm16.766,0a0.349,0.349,0,0,1,.1.193h-0.1V21.93Zm0.862,0.1a0.349,0.349,0,0,1,.1.193h-0.1V22.026Zm-12.838.1a0.344,0.344,0,0,0,.192.1A0.345,0.345,0,0,0,26.156,22.123Zm-7.282.1v0.193h0.1V22.219h-0.1Zm-7.665.868V22.509H10.635a1.027,1.027,0,0,0-.192.482A2.385,2.385,0,0,0,11.21,23.088Zm1.437-.579v0.579a0.461,0.461,0,0,0,.287-0.1,0.839,0.839,0,0,0,.1-0.482H12.647Zm24.144,0a0.279,0.279,0,0,0,.383,0H36.79Zm0.479,0c0.165,0.085.122,0.086,0.287,0H37.27Zm0.479,0a0.641,0.641,0,0,0,.671,0H37.749Zm2.108,0c-0.2.123-.759,0.066-0.958,0.193a15.811,15.811,0,0,1,2.587,0A2.926,2.926,0,0,0,39.856,22.509Zm-26.539.1a0.812,0.812,0,0,0,.1.482A0.813,0.813,0,0,0,13.317,22.605ZM36.79,22.8v0.193h0.383v-0.1h0.1V22.8H36.79Zm3.258,0a0.344,0.344,0,0,1-.192.1v0.1h0.287c0.062-.042.293-0.034,0.479-0.1V22.8A1.961,1.961,0,0,1,40.048,22.8Zm-2.587.1a0.344,0.344,0,0,0,.192.1A0.345,0.345,0,0,0,37.461,22.895Zm0.287,0a0.278,0.278,0,0,0,.383,0H37.749Zm2.97,0a0.344,0.344,0,0,0,.192.1A0.346,0.346,0,0,0,40.719,22.895Zm13.892,0a0.278,0.278,0,0,0,.383,0H54.611ZM50.97,24.053H52.6V23.184c0.343-.04.241,0.046,0.383-0.193h-2.3v0.193C51,23.37,50.99,23.532,50.97,24.053Zm2.2-.965a0.344,0.344,0,0,0,.192.1A0.346,0.346,0,0,0,53.174,23.088Zm0.575,0a0.5,0.5,0,0,0,.575,0H53.749Zm0.671,0a0.5,0.5,0,0,0,.575,0H54.419Zm0.958,0a0.383,0.383,0,0,0,.479,0H55.377ZM2.2,24.246a0.344,0.344,0,0,0,.192.1A0.345,0.345,0,0,0,2.2,24.246Zm2.587,0v0.193H4.982V24.246H4.79Zm62.563,0a0.344,0.344,0,0,0,.192.1A0.345,0.345,0,0,0,67.353,24.246Zm-23.569.1v0.193h0.192v-0.1h0.1v-0.1H43.784Z" transform="translate(0 0.047)"/>
</svg>
