<svg xmlns="http://www.w3.org/2000/svg" width="40" height="40" viewBox="0 0 40 40">
  <defs>
    <style>
      .cls-1 {
        fill: #fff;
        fill-rule: evenodd;
      }
    </style>
  </defs>
  <path id="uk_centurion_mk_1_ico" class="cls-1" d="M14.491,16.691h0.223V16.623h0.111l0.022-.069a0.824,0.824,0,0,0,.089-0.343h0.089V16.3h0.4V16.212h0.089v0.023h0.022c0.008,0.146.044,0.248,0.044,0.434a3.012,3.012,0,0,1,.356-0.023V16.508c0.077,0,.092,0,0.089-0.137h0.668v0.274h0.022c0.056-.036.2,0.019,0.267-0.023a0.174,0.174,0,0,1,.089-0.091,0.4,0.4,0,0,0,.4.16v0.183a0.366,0.366,0,0,0,.289.137V16.965a0.118,0.118,0,0,0,.022-0.069h0.134a0.462,0.462,0,0,1,.044-0.183l0.067,0.023a0.5,0.5,0,0,0-.022.16H18.5v0.069c0.06,0,.059-0.019.089,0.069a0.2,0.2,0,0,0-.067.069h0.067v0.069l0.4,0.069a3.068,3.068,0,0,0,.134-0.411,0.064,0.064,0,0,1,.022.023c0.045,0.062,0,.124.044,0.206,0.127-.086.135,0.047,0.245,0.023a0.7,0.7,0,0,1,.067-0.069,0.94,0.94,0,0,0,.312.069,0.172,0.172,0,0,1,.089-0.091v0.069a0.082,0.082,0,0,0-.022.046,2.16,2.16,0,0,1,.49.137l0.445-.023a6.5,6.5,0,0,1,.846.183l-0.044.091c0.295,0,.181.217,0.245,0.365a0.2,0.2,0,0,0,.2.069l0.022-.069c-0.069-.028-0.05-0.009-0.067-0.091a0.676,0.676,0,0,1,.178-0.068c0.155,0.1.447,0.031,0.6,0.137a0.554,0.554,0,0,1,.067.069c-0.032.042-.062,0.1-0.089,0.137h0.044a0.7,0.7,0,0,0,.512-0.091,1.252,1.252,0,0,1,.668.069,1.532,1.532,0,0,1,.4.434,0.714,0.714,0,0,0,.089.251c0.177,0.126.414,0.04,0.445,0.32a0.119,0.119,0,0,0-.022.069,7.027,7.027,0,0,1,.735.137l3.272,0.023h2a4.67,4.67,0,0,0,.868.023h1.759c1.6,0.008,3.231.044,4.852,0.046V19.295H38.42V19.226a1.111,1.111,0,0,0,.512.069c0.117-.029.234-0.128,0.334-0.16a0.663,0.663,0,0,1,.735.251V19.82a1,1,0,0,1-.267.228,1.116,1.116,0,0,1-.779-0.137,1.384,1.384,0,0,0-.534.046c-0.047-.138-0.231-0.091-0.4-0.091H36.795a2.106,2.106,0,0,1-.757.023H33.99a4.112,4.112,0,0,1-.757.023H31.185a4.335,4.335,0,0,1-.8.023h-1.6l-2.07.023H25.665a3.381,3.381,0,0,1-.668.114v0.046c-0.074.105-.034,0.332-0.111,0.434a1.488,1.488,0,0,1-.312.137,0.333,0.333,0,0,0,.067.114,0.263,0.263,0,0,0,.133.069,0.215,0.215,0,0,0,0,.137l-0.133-.023v0.023a1.484,1.484,0,0,1,.156.343H23.862v0.023a0.083,0.083,0,0,1,.022.046,11.432,11.432,0,0,0,1.914.023,0.16,0.16,0,0,1,.178-0.183,1.274,1.274,0,0,0,.067.114c0.01,0.008.381-.019,0.423,0s-0.012.06,0.067,0.046h0.044c0.017-.1.012-0.083,0.111-0.091a0.064,0.064,0,0,0,.022.023c0,0.133.048,0.106,0.223,0.091l0.022-.183H27a1.829,1.829,0,0,0,.534.114,0.3,0.3,0,0,0-.022.183,7.275,7.275,0,0,0,1.091.206,0.768,0.768,0,0,1,.134-0.183,0.086,0.086,0,0,0,.067.046V21.67a0.073,0.073,0,0,0-.067,0,0.079,0.079,0,0,0,.022.046c0.019,0.015.07,0.031,0.089,0.046a0.052,0.052,0,0,0,0,.069l0.49,0.365a1.884,1.884,0,0,1,.49,0V22.058h0.378v0.228h0.223V22.24a1.167,1.167,0,0,1-.111-0.434,0.431,0.431,0,0,0-.067.114H30.228v-0.3a0.156,0.156,0,0,1-.022-0.091H30.25v0.046a0.72,0.72,0,0,1,.156.548h0.022A0.111,0.111,0,0,1,30.5,22.1a0.3,0.3,0,0,1,.022-0.091H30.54v0.023a0.118,0.118,0,0,1,.022.069h0.067v0.16a6.755,6.755,0,0,1,.913.023,1.832,1.832,0,0,0,.267.091,0.98,0.98,0,0,1,.022-0.388V22.4c0.3,0,.567.087,0.89,0.091a1.607,1.607,0,0,0,.49.343l0.111,0.16c0.09,0.071.2,0.146,0.289,0.206a0.994,0.994,0,0,1,.4.274,3,3,0,0,0-.067.685c-0.033.1-.176,0.191-0.2,0.274a0.657,0.657,0,0,0,.044.183h0.134v0.251H33.879a0.148,0.148,0,0,1-.089.023,0.862,0.862,0,0,1-.044.411l0.134,0.023-0.044.251a0.226,0.226,0,0,0-.134,0,0.755,0.755,0,0,0-.178.365c0.07,0.023.091,0.036,0.067,0.091a0.583,0.583,0,0,1-.111.16,0.824,0.824,0,0,0-.134-0.069,0.917,0.917,0,0,1-.267.274c0.021,0.044.072,0.094,0.045,0.114a0.3,0.3,0,0,1-.2.114,0.412,0.412,0,0,0-.067-0.091,1.064,1.064,0,0,1-.334.183l0.044,0.137a0.481,0.481,0,0,1-.2.069,0.481,0.481,0,0,0-.089-0.091,0.514,0.514,0,0,0-.312.251,0.118,0.118,0,0,1,.022.069,0.477,0.477,0,0,1-.2.068,0.268,0.268,0,0,0-.089-0.091,0.514,0.514,0,0,0-.312.251,0.118,0.118,0,0,1,.022.069,0.892,0.892,0,0,0-.2.091,0.5,0.5,0,0,0-.045-0.114,0.076,0.076,0,0,0-.044.023,0.526,0.526,0,0,0-.312.183c0.035,0.043.042,0.047,0.022,0.091a0.332,0.332,0,0,1-.2.091c-0.021-.078-0.008-0.071-0.089-0.091a1.178,1.178,0,0,1-.289.16c0.006,0.094.042,0.1-.022,0.137a0.387,0.387,0,0,1-.178.091A0.12,0.12,0,0,0,29.983,28a0.514,0.514,0,0,0-.312.251,0.118,0.118,0,0,1,.022.069,0.477,0.477,0,0,1-.2.069,0.267,0.267,0,0,0-.089-0.091,0.513,0.513,0,0,0-.312.251,0.118,0.118,0,0,1,.022.069,0.894,0.894,0,0,0-.2.091V28.658a0.118,0.118,0,0,1-.022-0.069,0.889,0.889,0,0,0-.378.16,0.333,0.333,0,0,1,.022.137,0.344,0.344,0,0,1-.223.069V28.909a0.157,0.157,0,0,1-.022-0.091l-0.423.046V29H27.646V28.863h-0.4V29H27.023V28.863h-0.4V29H26.4V28.863H26.021V29H25.8a0.425,0.425,0,0,1-.022-0.137H25.4V29H25.175l-0.022-.137H24.775V29H24.552l-0.022-.137H24.151V29H23.929V28.863h-0.4V29H23.306V28.863H22.9V29H22.682V28.863h-0.4V29H22.059a0.485,0.485,0,0,1,0-.137h-0.4V29H21.436V28.863h-0.4V29H20.813V28.863h-0.4V29H20.189V28.863h-0.4V29H19.566V28.863h-0.4V29H18.943V28.863H18.564V29H18.342l-0.022-.137H17.941V29H17.718V28.863h-0.4V29H17.1V28.863h-0.4V29H16.472V28.863H16.093V29H15.871a0.269,0.269,0,0,1,0-.137h-0.4V29H15.248V28.863h-0.4V29H14.6V28.863H14.2V29H13.979l-0.022-.137H13.578V29H13.333V28.863h-0.4V29H12.71l-0.022-.137H12.309L12.287,29H12.065V28.863h-0.4V29H11.441V28.863h-0.4V29H10.818V28.863H10.44L10.417,29H10.195V28.863H9.816V29H9.572V28.863H9.193V29H8.971V28.863H8.57V29H8.347V28.863H7.969L7.947,29H7.724V28.863H7.7V28.84a1.76,1.76,0,0,1-.4-0.046l-0.022.137c-0.226-.025-0.192-0.1-0.245-0.228a1,1,0,0,0-.378-0.183,0.5,0.5,0,0,1-.045.114A0.356,0.356,0,0,1,6.388,28.5a0.2,0.2,0,0,0,.022-0.114,2.825,2.825,0,0,1-.4-0.16,0.119,0.119,0,0,1-.067.114,0.621,0.621,0,0,1-.2-0.137,0.2,0.2,0,0,0,.022-0.114,0.775,0.775,0,0,1-.334-0.16,0.076,0.076,0,0,0-.045.023,0.481,0.481,0,0,1-.089.091,0.779,0.779,0,0,0-.2-0.114,0.156,0.156,0,0,0,.022-0.114,0.651,0.651,0,0,0-.378-0.16,0.616,0.616,0,0,0-.067.091,0.967,0.967,0,0,0-.223-0.114L4.5,27.493c-0.164-.037-0.248-0.132-0.423-0.16a0.254,0.254,0,0,1-.045.114,0.332,0.332,0,0,0-.2-0.091,0.712,0.712,0,0,1,.022-0.16,1.95,1.95,0,0,1-.4-0.183c-0.015.1-.019,0.1-0.111,0.114a0.252,0.252,0,0,1-.156-0.16A0.262,0.262,0,0,0,3.228,26.9a0.981,0.981,0,0,1-.245-0.114A0.156,0.156,0,0,1,2.8,26.762a0.1,0.1,0,0,1-.067.069,0.537,0.537,0,0,0-.156-0.114l0.045-.137A1.219,1.219,0,0,0,2.337,26.4a0.148,0.148,0,0,1-.111.046l-0.134-.16a0.113,0.113,0,0,0,.089-0.114,0.915,0.915,0,0,1-.2-0.3,0.242,0.242,0,0,1-.134.023,0.3,0.3,0,0,1-.067-0.206,0.116,0.116,0,0,0,.111-0.069,1.527,1.527,0,0,1-.089-0.3,0.434,0.434,0,0,1-.467.023C0.93,25.185.985,24.907,1.091,24.478H1.247C1.228,24.4,1.257,24.444,1.2,24.41a0.977,0.977,0,0,1-.423.069v-0.16a1.709,1.709,0,0,0,1.113-.754c-0.408-.044-0.759-0.181-1.18-0.206a3.482,3.482,0,0,1,.022-0.434c-0.228,0-.265.064-0.467,0.069a0.77,0.77,0,0,1-.022-0.228,0.272,0.272,0,0,0,.045-0.114H0.312c0.023,0.015,0,.05.022,0.023A0.685,0.685,0,0,0,.49,22.218l-0.067.023a0.254,0.254,0,0,0-.089-0.228A0.71,0.71,0,0,0,.423,21.6,0.656,0.656,0,0,1,0,21.007,0.888,0.888,0,0,1,.134,20.87H0.846V20.8c0.575,0,1.231-.005,1.736-0.046A0.2,0.2,0,0,1,2.6,20.642c0,0.086-.01.08,0.045,0.114a3.992,3.992,0,0,1,.824-0.069,14.623,14.623,0,0,1,2.782-.069l0.957,0.069a1.585,1.585,0,0,0,.312.046c0.133-.017.563-0.227,0.646-0.206a0.712,0.712,0,0,1,.089.069,4.825,4.825,0,0,0,.779.206H13v-0.16h0.045V20.8H13.89V20.071c-0.812,0-1.672-.01-2.448-0.023-0.18-.337.1-0.453-0.534-0.434a0.079,0.079,0,0,1-.022.046V19.272H10.8l0.022-.137h0.067v-0.32H10.818l0.022-.571a0.694,0.694,0,0,1-.067-0.228h0.044a0.794,0.794,0,0,0,.022.183h0.045V17.65h0.022a0.61,0.61,0,0,0,.512,0v0.434h0.067l0.022-.274a1.021,1.021,0,0,1,.467-0.251,0.276,0.276,0,0,1,.089-0.183,1.828,1.828,0,0,1-.111-0.365,2.021,2.021,0,0,0-.223-0.388,0.423,0.423,0,0,1-.111-0.069h0.022V16.531a0.336,0.336,0,0,0,.267-0.091c-0.032-.081-0.056-0.486-0.111-0.685-0.147-.53-0.225-1.09-0.378-1.644-0.225-.815-0.348-1.673-0.579-2.512a5.848,5.848,0,0,1-.267-1.165c0.054-.021.035-0.024,0.089-0.046v0.023a2.6,2.6,0,0,1,.134.571c0.127,0.426.186,0.874,0.312,1.325,0.229,0.824.366,1.686,0.6,2.535,0.09,0.326.142,0.68,0.245,1.028a2.691,2.691,0,0,1,.133.548,0.76,0.76,0,0,1,.245-0.023,0.083,0.083,0,0,1,.022.046c-0.131.028-.1,0.211-0.089,0.365a0.46,0.46,0,0,0,.334.5l0.022,0.183a3.1,3.1,0,0,0,.868-0.206,1.8,1.8,0,0,0,.556-0.137,3.358,3.358,0,0,0,.334-2.169V10h0.044v1.85a1.049,1.049,0,0,1,.022.388v0.936C14.446,14.336,14.444,15.6,14.491,16.691Z" transform="translate(0 0.5)"/>
</svg>
