<?xml version="1.0" encoding="utf-8"?>
<!-- Generator: Adobe Illustrator 16.0.0, SVG Export Plug-In . SVG Version: 6.00 Build 0)  -->
<!DOCTYPE svg PUBLIC "-//W3C//DTD SVG 1.1//EN" "http://www.w3.org/Graphics/SVG/1.1/DTD/svg11.dtd">
<svg version="1.1" id="Layer_1" xmlns="http://www.w3.org/2000/svg" xmlns:xlink="http://www.w3.org/1999/xlink" x="0px" y="0px"
	 width="39.906px" height="40px" viewBox="0 0 39.906 40" enable-background="new 0 0 39.906 40" xml:space="preserve">
<path id="Color_Fill_1" fill="#FFFFFF" d="M24,10.825v0.387h-0.158v-0.233h-0.871v0.309h0.157l1.427,0.232
	c1.682,0.749,3.474,1.219,5.307,1.392c0.084,0.192,0.19,0.373,0.316,0.541c0.122,0.238,0.177,0.506,0.158,0.773
	c2.2-0.006,4.329,0.148,6.652,0.155v0.232c-2.352-0.008-4.534,0.223-6.652,0.232c0.108,0.494,0.053,1.009-0.158,1.469h5.941
	c0.104,0.561,0.131,1.132,0.079,1.7h0.079c0.26,0.251,0.592,0.413,0.949,0.464v0.232c0.061,0.008,0.115,0.034,0.158,0.077
	c0.344-0.254,0.761-0.39,1.188-0.387c0.083,0.073,0.163,0.15,0.237,0.232c0.068,0.229,0.121,0.464,0.158,0.7l0.555,0.464
	c0.008,0.132,0.034,0.263,0.078,0.388c0.008-0.06,0.036-0.114,0.08-0.156c0.047,0.289,0.104,0.256,0.157,0.541
	c-0.317,0.191,0.121,0.348,0.079,0.619c-0.068,0.066-0.148,0.119-0.238,0.154c-0.063,0.229-0.088,0.465-0.078,0.7
	c-0.256,0.156-0.473,0.368-0.635,0.619c-0.111,0.029-0.23,0.001-0.316-0.077l0.078,0.154c-0.226,0.096-0.467,0.148-0.713,0.156
	c-0.115,0.035-0.186,0.129-0.078,0.231c-0.424,0.207-0.879,0.338-1.348,0.388c0.044,0.148,0.131,0.065,0,0.154
	c-0.355,0.23-0.766,0.363-1.188,0.387c0.043,0.149,0.13,0.066,0,0.155c-0.345,0.253-0.762,0.389-1.188,0.388
	c0.06,0.066,0.101,0.086,0.158,0.154c-0.869,0.145-1.247,0.669-2.06,0.541c-0.029,0.2,0.06,0.1-0.158,0.155
	c-0.658-0.051-1.32-0.051-1.979,0H9.426c0.001-0.085-0.027-0.166-0.079-0.232c-0.1,0.191,0.034,0.054-0.158,0.155l0.079-0.155h-0.08
	v0.077L9.03,25.206c-0.016,0.108,0.065-0.031,0.079,0.077c0.152,0.06-0.158,0.076-0.158,0.076c-0.511-0.451-0.376-0.063-0.792-0.231
	c-0.122-0.117-0.256-0.221-0.4-0.31v0.078c0.06,0.007,0.115,0.034,0.158,0.076H7.6c-0.111-0.129-0.248-0.233-0.4-0.309
	c-0.016,0.107,0.065-0.031,0.079,0.077c0.152,0.06-0.158,0.077-0.158,0.077c-0.406-0.301-0.755-0.125-1.109-0.387
	c0.06-0.008,0.115-0.035,0.158-0.078l-0.317,0.078l0.079-0.156H5.861c-0.447,0.092-0.912-0.021-1.267-0.309
	c-0.606-0.082-1.18-0.323-1.663-0.699c0.014-0.16-0.013-0.319-0.079-0.465L2.694,22.88v-0.071c-0.152-0.169-0.184-0.415-0.079-0.617
	H2.376v-0.387C2.171,21.8,1.987,21.68,1.9,21.495c-0.105-0.195-0.186-0.403-0.238-0.619h0.081v-0.077h0.079v0.077
	c0.215,0.291,0.066,0.437,0.4,0.541v0.077H2.3v-0.077c0.171-0.18,0.307-0.39,0.4-0.619H2.535v-0.075h-0.08v0.076
	c-0.16,0.12-0.226,0.271-0.4,0.387v-0.154c0.084-0.084,0.14-0.191,0.158-0.309H1.267v-0.311H0.95v-0.154
	c0.174-0.053,0.299-0.205,0.317-0.387c-0.097-0.058-0.178-0.138-0.237-0.232c0.615-0.195,1.271-0.223,1.9-0.078v-0.617
	c-0.326-0.259-0.425-0.711-0.238-1.083v-0.078h0.239c0.015-0.142,0.07-0.276,0.158-0.387H2.931v0.077
	c-0.252,0.186-0.423,0.463-0.475,0.773c-0.257-0.087-0.535-0.087-0.792,0c0.038,0.073,0.038,0.159,0,0.232
	c-0.146-0.009-0.286-0.063-0.4-0.155c0.06-0.008,0.115-0.035,0.158-0.077c-0.693-0.02-1.266-0.547-1.343-1.236
	c-0.109-0.229-0.078-0.5,0.079-0.7c0.161-0.518,0.646-0.865,1.188-0.851H1.9c0.175-0.1-0.053-0.224,0.4-0.309
	c0.1,0.063,0.206,0.116,0.317,0.155c0.214,0.4,0.382,1.241,0.951,1.315c0.541,0.154,1.11,0.18,1.663,0.077
	c1.452,0.104,2.909,0.078,4.356-0.077v-0.382c-0.024-0.386-0.024-0.773,0-1.16c0.56,0.032,1.116,0.11,1.663,0.232
	c0.507-0.023,1.01-0.101,1.5-0.232c0.272-0.013,0.544,0.04,0.792,0.155v1.082c0.952,0.095,1.912,0.069,2.858-0.077
	c-0.104-0.048-0.188-0.129-0.238-0.232c-0.522-0.3-1.191,0.253-1.347-0.541h-0.241c-0.11-0.323-0.164-0.663-0.158-1.005l0.238-0.7
	c0.316-0.129,0.59-0.343,0.792-0.618h-0.317v0.077H15.05v0.232c-0.085,0.001-0.169-0.026-0.238-0.077h0.079
	c0.325-0.344,0.821-0.464,1.267-0.309v0.077h0.079v-0.075c0.065-0.058,0.151-0.085,0.238-0.077c0.226-0.103,0.439-0.233,0.634-0.387
	c-0.179,0.031-0.086,0.071-0.238,0h0.079c0.73-0.48,1.373-1.081,1.9-1.778c0.283,0.016,0.563-0.066,0.792-0.232
	c-0.111,0.009-0.222-0.018-0.317-0.077c0.266-0.037,0.538-0.011,0.792,0.077c-0.284,0.032-0.2-0.036-0.317,0.155h0.24
	c0.466,0,0.927,0.106,1.346,0.309c0.185-0.007,0.356-0.091,0.476-0.232H24z M21.941,10.98c-0.069,0.065-0.123,0.144-0.158,0.232h0.4
	c0.1-0.053,0.182-0.134,0.237-0.232H21.941z M15.525,13.145V13.3h0.158c0.061-0.053,0.177-0.1,0.238-0.155h-0.4H15.525z
	 M14.891,13.686l-0.158,0.232C14.76,13.932,15.108,13.712,14.891,13.686L14.891,13.686z M2.059,15.309
	c0.176,0.268,0.423,0.482,0.713,0.619v-0.155H2.693C2.635,15.477,2.359,15.275,2.059,15.309z M16.559,16.16
	c0.047,0.26,1.267,0.169,1.822,0.155c0.11,0.171,0.338,0.221,0.51,0.111c0.016-0.01,0.031-0.022,0.045-0.034h-0.4
	c-0.013-0.377-1.351-0.264-1.981-0.232H16.559z M19.648,16.392V16.16h-0.48v0.155h0.079c0.122,0.064,0.26,0.091,0.397,0.077H19.648z
	 M29.311,16.16c0.236,0.147,0.519,0.203,0.793,0.155V16.16H30.02c-0.23,0.081-0.482,0.081-0.713,0H29.311z M29.549,16.469v0.155
	c0.094,0.092,0.201,0.17,0.317,0.232v-0.155h0.079c0.078-0.078-0.078-0.076-0.079-0.077c-0.101-0.063-0.208-0.116-0.321-0.155
	H29.549z M38.262,18.479c-0.043,0.042-0.098,0.068-0.158,0.078c0.044,0.041,0.1,0.068,0.158,0.076
	c0.07,0.05,0.152,0.077,0.238,0.077v-0.153L38.262,18.479z M38.341,18.943v0.154h0.317v-0.076h-0.084v-0.078h-0.237H38.341z
	 M34.618,22.964c-0.013,0.241-0.066,0.478-0.159,0.7l0.4,0.077v-0.159c-0.129-0.186-0.11-0.275,0.078-0.387
	c0.094,0.17,0.284,0.262,0.476,0.231c-0.05-0.177-0.05-0.364,0-0.541c0.202,0.122,0.413,0.226,0.634,0.31v-0.157
	c-0.129-0.185-0.109-0.276,0.079-0.388c0.124,0.178,0.34,0.269,0.554,0.232c-0.079-0.168-0.106-0.356-0.078-0.541
	c0.145,0.116,0.279,0.246,0.399,0.387c0.086-0.377,0.089,0.01,0.237-0.309c-0.104-0.107-0.25-0.164-0.399-0.154
	c-0.586-0.058-1.259,0.678-2.226,0.698H34.618z M37.549,22.732c-0.043,0.041-0.1,0.068-0.158,0.076v0.077h0.158
	c0.043-0.041,0.099-0.068,0.158-0.077v-0.076h-0.162H37.549z M5.949,23.505c-0.001,0.084,0.027,0.166,0.079,0.231
	c0.15-0.154,0.343-0.262,0.554-0.309c-0.025,0.185,0.002,0.372,0.079,0.541c0.139-0.184,0.333-0.319,0.554-0.387
	c-0.025,0.184,0.002,0.371,0.079,0.541c0.115-0.09,0.218-0.193,0.306-0.309c-0.197-0.241-0.309-0.541-0.317-0.852
	c-0.3-0.048-0.607,0.006-0.871,0.155c0.04,0.187,0.128,0.1-0.079,0.231c-0.007-0.008-0.1-0.223-0.158-0.154v0.076
	c-0.068,0.146-0.038,0.058,0,0.232H5.941L5.949,23.505z M12.523,22.964c-0.115,0.554-0.461,1.032-0.951,1.313
	c0.046,0.21,0.157,0.399,0.317,0.541c0.05-0.193,0.205-0.343,0.4-0.387c0.039,0.15,0.122,0.285,0.238,0.387
	c0.085-0.215,0.258-0.383,0.475-0.463c-0.034,0.189,0.063,0.38,0.238,0.463c0.078-0.234,0.156-0.23,0.238-0.463
	c-0.013,0-0.539-1.342-0.963-1.392H12.523z M16.959,24.82h0.317l0.158-0.465H17.5v0.078c0.105,0.1,0.163,0.24,0.159,0.387
	c0.087,0,0.172-0.029,0.241-0.082c0.063-0.158,0.174-0.294,0.317-0.387v0.154c0.059,0.092,0.086,0.2,0.079,0.309h0.317
	c-0.034-0.189,0.063-0.38,0.238-0.463v0.076c0.065,0.118,0.093,0.254,0.079,0.387h0.317c0.008-0.059,0.036-0.113,0.079-0.154
	c-0.2-0.676-0.751-0.835-0.871-1.7H17.98l-0.4,0.929c-0.309,0.229-0.531,0.558-0.629,0.93L16.959,24.82z M23.454,22.964
	c0.001,0.53-0.268,1.026-0.713,1.313l0.237,0.541h0.238l0.079-0.463h0.158v0.076c0.171,0.213,0.06,0.301,0.399,0.387L24,24.355
	h0.079v0.078c0.099,0.115,0.18,0.246,0.237,0.387h0.238c0.041-0.178,0.068-0.359,0.079-0.541c-0.28-0.402-0.495-0.846-0.634-1.315
	h-0.555H23.454z M29.078,22.964c-0.064,0.819-0.7,1.047-0.95,1.624c0.114,0.031,0.204,0.119,0.238,0.232h0.159
	c-0.003-0.158,0.023-0.316,0.078-0.465h0.158c0.049,0.212,0.198,0.386,0.4,0.465c0.016-0.318,0.009-0.354,0.238-0.465
	c0.088,0.166,0.193,0.322,0.316,0.465h0.079c0.017-0.318,0.009-0.354,0.238-0.465c0.087,0.17,0.228,0.307,0.399,0.388
	c0.051-0.067,0.079-0.148,0.08-0.232c-0.556-0.353-0.953-0.907-1.109-1.546h-0.336L29.078,22.964z M36.365,23.273
	c-0.043,0.041-0.099,0.068-0.158,0.076v0.078h0.158l0.078-0.154h-0.088H36.365z M35.02,23.893c0.043,0.041,0.098,0.068,0.157,0.076
	c-0.046-0.043-0.104-0.07-0.167-0.076H35.02z M5.319,24.124c0.043,0.042,0.099,0.068,0.158,0.077
	c-0.046-0.044-0.106-0.071-0.17-0.077H5.319z M34.389,24.124v0.153h0.078c-0.012-0.06-0.043-0.114-0.091-0.153H34.389z
	 M33.913,24.355l-0.079,0.155c0.126-0.108,0.066-0.155,0.066-0.155H33.913z M11.413,24.434l-0.079,0.154
	c0.131-0.109,0.072-0.154,0.072-0.154H11.413z M13.631,24.434c0.017,0.158,0.104,0.3,0.238,0.387v-0.082
	c0.042-0.042,0.07-0.097,0.079-0.155L13.631,24.434z M22.582,24.82c0.002-0.133,0.029-0.264,0.079-0.387h-0.087
	c-0.084,0.104-0.193,0.184-0.317,0.231v0.155h0.317H22.582z M24.8,24.434c0.03,0.205,0.194,0.363,0.4,0.387v-0.155L24.8,24.434z
	 M6.574,24.588h0.159v0.077H6.574V24.588z M11.168,24.588l-0.079,0.232h0.079v-0.082C11.267,24.621,11.219,24.703,11.168,24.588z
	 M19.643,24.665v0.155h0.238v-0.082L19.643,24.665z M8.475,25.129h0.159v0.077C8.574,25.199,8.518,25.172,8.475,25.129z
	 M32.95,25.206h0.157v0.077C33.049,25.275,32.994,25.248,32.95,25.206L32.95,25.206z"/>
</svg>
