<?xml version="1.0" encoding="utf-8"?>
<!-- Generator: Adobe Illustrator 16.0.0, SVG Export Plug-In . SVG Version: 6.00 Build 0)  -->
<!DOCTYPE svg PUBLIC "-//W3C//DTD SVG 1.1//EN" "http://www.w3.org/Graphics/SVG/1.1/DTD/svg11.dtd">
<svg version="1.1" id="Layer_1" xmlns="http://www.w3.org/2000/svg" xmlns:xlink="http://www.w3.org/1999/xlink" x="0px" y="0px"
	 width="40px" height="40px" viewBox="0 0 40 40" enable-background="new 0 0 40 40" xml:space="preserve">
<path id="Color_Fill_1" fill="#FFFFFF" d="M13.879,15.844c0.563,0,0.947,0.079,1.462,0.086c0.007-0.229,0.015-0.457,0.022-0.685
	h1.091v0.129h0.022c0.041-0.038,0.017-0.04,0.066-0.021h0.022c-0.015,0.053-0.051,0.04-0.022,0.064
	c0.031,0.039,0.083,0.056,0.131,0.043c-0.001-0.053-0.016-0.104-0.044-0.15l0.218-0.021c0-0.023,0.007-0.046,0.022-0.064
	c0.048-0.021,0.101-0.028,0.153-0.021c0.012,0.011,0.027,0.019,0.044,0.021v0.064c0.208,0.045,0.424,0.045,0.633,0
	c0.019-0.012,0.044-0.1,0.065-0.107h0.807V15.2h0.022l0.022,0.193c0.307-0.009,0.613,0.012,0.916,0.064l2.249,0.021v0.107
	l-1.964,0.021c-0.015,0.04-0.037,0.076-0.066,0.107v-0.062c-0.277,0.024-0.556,0.01-0.829-0.043
	c-0.038,0.035,0.011,0.032-0.066,0.043V15.63h0.022c0.042-0.017-0.044-0.021-0.044-0.021c-0.039,0.041-0.083,0.077-0.131,0.107
	h0.131v0.236H18.9v0.086l0.218,0.021v0.514c-0.097-0.015-0.196,0-0.284,0.043h0.611v0.428c0.186,0.014,0.369,0.05,0.546,0.107
	c0.315,0.082,0.634,0.105,0.938,0.171v0.193c0.266,0.106,0.563,0.106,0.828,0c0.014-0.019,0.021-0.042,0.021-0.064l0.263-0.064
	c0.092-0.143,0.194-0.279,0.306-0.407h1.461c0.156-0.05,0.324-0.05,0.48,0v0.128H24.4c0.018,0.069-0.012,0.033,0.043,0.064
	c0.145-0.041,0.299-0.033,0.438,0.021l0.109,0.129c0.027,0.248,0.074,0.6-0.2,0.621c-0.165,0.039-0.339,0.032-0.5-0.021v0.471
	c0.068,0.004,0.136,0.019,0.2,0.043c0.08,0.01,0.162,0.003,0.24-0.021c0.051,0.002,0.103,0.009,0.152,0.021
	c0.203-0.02,0.408-0.02,0.611,0c0.275-0.014,0.553-0.014,0.829,0c0.465,0.066,0.937,0.059,1.399-0.021l0.394,0.043
	c0.356,0.006,0.714-0.009,1.069-0.043c0.044,0.011,0.088,0.026,0.131,0.043h0.916c0.092-0.034,0.188-0.049,0.285-0.043
	c0.557,0.089,1.123,0.089,1.68,0v-0.108c0.691,0,1.455,0.021,2.182,0.021v0.063h0.087V18.5c1.015,0,2.009-0.021,3.056-0.021h1.025
	c0.115-0.02,0.233-0.02,0.35,0c-0.045-0.043-0.082-0.094-0.109-0.149h0.253c0.187-0.039,0.376-0.061,0.567-0.063
	c-0.01-0.063-0.037-0.027,0.021-0.064v0.019c0.02,0.034,0.02,0.074,0,0.107c0.091,0.054,0.161,0.137,0.2,0.235
	c0.069,0.049,0.065-0.059,0.131,0.043c0.042,0.16,0.042,0.33,0,0.492h-1.073c0,0.022-0.008,0.045-0.021,0.063
	c-0.106,0.029-0.218,0.036-0.327,0.021c-0.376-0.049-0.757-0.057-1.136-0.021l-0.916,0.021c-0.34-0.055-0.687-0.055-1.026,0
	c-0.289,0.063-0.741-0.063-1-0.021v0.086h-0.09v0.063c-0.726,0-1.49,0.019-2.183,0.021v-0.105c-1.265,0-2.506-0.021-3.752-0.021
	V20.6c0.015,0.128,0.022,0.257,0.021,0.385h0.087v0.258c0.143,0.037,0.276,0.103,0.394,0.193c0.056,0.123,0.1,0.252,0.131,0.385
	c0.053,0.125,0.142,0.279,0.199,0.406c0.043,0.088,0.072,0.182,0.088,0.278c-0.201,0.168-0.619,0.095-0.83,0.257l-0.108,0.236
	c-0.044,0-0.006-0.021-0.044,0h-0.025v0.021c0.029,0-0.01-0.019,0.021-0.021c0.018-0.041,0.021,0.043,0.021,0.043h-0.021v0.021
	c-0.044,0-0.006-0.022-0.044,0H28.3v0.021c0.031,0-0.009-0.019,0.022-0.021c0.017-0.041,0.021,0.043,0.021,0.043
	c-0.1,0.074-0.18,0.211-0.283,0.277c-0.056,0.036-0.06-0.009-0.088,0.021H28c0.021,0.021-0.021,0.021-0.021,0.021
	c-0.313,0.233-0.648,0.435-1,0.601c-0.039,0.02,0,0-0.045,0c0,0.029,0.019-0.01,0.022,0.021c0.042,0.017-0.044,0.021-0.044,0.021
	v-0.022h-0.027c-0.115,0.123-0.258,0.218-0.414,0.278V24.3h-0.022v0.021h0.022c0.021,0.022-0.022,0.021-0.022,0.021
	c-0.146,0.115-0.308,0.209-0.48,0.278V24.6h-0.021c-0.124,0.139-0.282,0.242-0.459,0.301c-0.203,0.157-0.423,0.293-0.654,0.406
	c-0.104,0.066-0.232,0.083-0.35,0.043c0,0.077,0.033,0.045-0.043,0.064c-0.101,0.021-0.203,0.037-0.305,0.043
	c-0.1-0.033-0.203-0.049-0.307-0.043c-0.139,0.053-0.289,0.068-0.436,0.043l-0.022-0.043c-0.048-0.02-0.104-0.002-0.131,0.043
	c-0.153,0.026-0.312,0.012-0.458-0.043H22.65c-0.052,0.033-0.113,0.048-0.174,0.043c-0.109,0-0.379-0.059-0.416-0.043
	c-0.146,0.057-0.304,0.07-0.457,0.043v-0.043c-0.049-0.023-0.106-0.004-0.131,0.043c-0.154,0.027-0.313,0.013-0.459-0.043
	c-0.194,0.033-0.392,0.048-0.589,0.043c-0.145-0.064-0.413,0.077-0.589,0v-0.043h-0.152v0.043c-0.146,0.026-0.297,0.012-0.436-0.043
	h-0.154c-0.139,0.055-0.29,0.07-0.436,0.043v-0.043c-0.195,0.032-0.392,0.047-0.589,0.043v-0.043
	c-0.083-0.012-0.167,0.004-0.24,0.043H17.48v-0.043c-0.11,0-0.22,0.015-0.327,0.043c-0.137-0.022-0.276-0.037-0.415-0.043
	c-0.146,0.057-0.304,0.071-0.458,0.043v-0.043c-0.048-0.023-0.105-0.004-0.131,0.043c-0.154,0.027-0.312,0.013-0.458-0.043h-0.132
	c-0.146,0.057-0.304,0.07-0.458,0.043v-0.043H14.97c-0.146,0.055-0.304,0.069-0.458,0.043c-0.027-0.045-0.083-0.063-0.131-0.043
	c-0.153,0.056-0.319,0.07-0.48,0.043v-0.043c-0.194,0.035-0.392,0.049-0.589,0.043v-0.043c-0.194,0.035-0.392,0.049-0.589,0.043
	v-0.043c-0.194,0.035-0.392,0.049-0.589,0.043v-0.043c-0.194,0.035-0.392,0.049-0.589,0.043v-0.043h-0.11
	c-0.161,0.055-0.333,0.07-0.5,0.043c-0.015-0.041-0.059-0.062-0.1-0.047c-0.003,0.001-0.006,0.002-0.009,0.004
	c-0.161,0.056-0.333,0.07-0.5,0.043v-0.043c-0.209,0.033-0.421,0.049-0.633,0.043v-0.043c-0.202,0.035-0.406,0.05-0.611,0.043
	v-0.043H8.969c-0.161,0.057-0.333,0.07-0.5,0.043c-0.014-0.04-0.058-0.062-0.098-0.048c-0.004,0.001-0.007,0.003-0.011,0.005
	c-0.16,0.057-0.332,0.07-0.5,0.043v-0.043c-0.224,0.037-0.452,0.037-0.676,0c0.017-0.002,0.032-0.01,0.044-0.021
	c-0.381-0.008-0.742-0.17-1-0.449c0,0.029,0.018-0.01,0.022,0.021c0.042,0.017-0.044,0.021-0.044,0.021
	C6.09,24.88,5.922,24.85,5.8,24.751c-0.011-0.03-0.025-0.06-0.044-0.086c0,0.03,0.018-0.009,0.022,0.021
	c0.042,0.018-0.044,0.021-0.044,0.021c-0.155-0.117-0.323-0.219-0.5-0.3c-0.335-0.207-0.7-0.413-1.026-0.642
	c-0.141-0.158-0.302-0.295-0.48-0.408c-0.088,0.045-0.19,0.053-0.284,0.022c-0.078-0.097-0.174-0.177-0.284-0.235V23H3.142v0.043
	c-0.254,0.177-0.061,0.244-0.567,0.234v-0.754H2.488V22.46c-0.234,0.009-0.461-0.076-0.633-0.235v0.6H1.811
	c0.021,0.063,0.036,0.127,0.044,0.193c-0.011,0.213-0.011,0.428,0,0.642v0.3H1.833v0.021c-0.2,0.012-0.321,0.08-0.546,0.086
	c-0.021-0.103-0.005-0.209,0.044-0.301c0.011-0.059-0.031-0.018-0.044-0.043V23.4c0.032-0.328,0.032-0.658,0-0.985
	c0.03-0.2,0.023-0.403-0.022-0.601c-0.119-0.124-0.27-0.213-0.436-0.256v-0.49c-0.167,0.045-0.344,0.029-0.5-0.043
	c-0.03-0.05-0.075-0.088-0.129-0.107c-0.058,0.045-0.053,0.027-0.153,0.021C0.041,20.894,0.025,20.85,0,20.811
	c0.072,0.002,0.131-0.055,0.132-0.127c0-0.008,0-0.016-0.001-0.022c-0.143-0.212,0.176-0.45,0.262-0.535
	c0.143-0.036,0.293-0.036,0.436,0v-0.3c0.05-0.146,0.08-0.297,0.087-0.45H0.895c-0.034,0.018-0.071,0.024-0.109,0.021v-0.342H0.96
	c0.044-0.121,0.075-0.091,0.284-0.086c0.034-0.015,0,0,0.065,0c0.009,0.077-0.01,0.055,0.044,0.086v-0.063H1.7v0.063h0.22v0.129
	c0.013,0,0.327,0.064,0.327,0.064l0.022-0.064c0,0,0.371,0.016,0.415,0.021c0.126,0.046,0.263,0.054,0.393,0.021
	c-0.023,0-0.046-0.008-0.065-0.021c0.099-0.076,0.224-0.114,0.349-0.105c0.1-0.031,0.207-0.031,0.306,0
	c0.154-0.006,0.308,0.008,0.458,0.043c0.13,0.015,0.262,0.015,0.393,0c0.008-0.082,0.03-0.161,0.065-0.235
	c0.066-0.007,0.133-0.007,0.2,0L4.8,18.948c0.045,0.085,0.068,0.181,0.065,0.278h0.2v-0.063c0.631-0.072,1.462,0.06,2.139-0.043
	c0.326,0.038,0.654,0.06,0.982,0.063c0.011-0.029,0.025-0.057,0.041-0.084c0.216-0.1,0.767,0.101,0.96-0.021H9.056V18.97
	c-0.732-0.046-1.467-0.054-2.2-0.021c-0.224,0-0.451,0.177-0.524,0.15c-0.04-0.041-0.063-0.094-0.065-0.15L6,18.927
	c-0.007,0.071-0.047,0.136-0.109,0.171v-0.149h-0.13v-1.605c0.376,0,0.813,0.021,1.222,0.021c0-0.072-0.047-0.051,0.022-0.086
	c0.096-0.045,0.201-0.067,0.306-0.064l-0.022-0.278c0.023,0,0.046-0.007,0.065-0.021c0.064-0.102,0.087-0.225,0.065-0.343
	c0.073-0.532,0.095-1.07,0.065-1.606V9.057C7.46,8.893,7.468,8.726,7.506,8.565v7.858c0.042,0.131,0.058,0.27,0.044,0.407
	c0.036,0.053,0.091,0.091,0.153,0.107v0.086c0.095,0,0.19-0.007,0.284-0.023c0.024,0.031,0.039,0.068,0.044,0.107l0.524-0.043
	c0.22-0.115,0.419-0.268,0.589-0.45v-0.385H9.122v-0.021h0.131v-1.585c-0.197,0.009-0.395-0.006-0.589-0.043v-0.213
	c-0.154,0.024-0.312,0.009-0.458-0.043H8.183V14.3c0.196-0.017,0.392-0.024,0.589-0.021V13.36h0.24c0.01,0.259,0,0.584,0,0.9H9.8
	c-0.015-0.294,0.007-0.589,0.065-0.878l0.022-2.591V9.828c-0.018-0.129-0.01-0.259,0.022-0.385v3.04h0.109
	c-0.05,0.549-0.036,1.103,0.044,1.649c-0.025,0.009-0.047,0.024-0.065,0.043c0.023,0,0.046,0.007,0.065,0.021
	c-0.026,0.016-0.049,0.038-0.065,0.064h0.873c0.157,0.038,0.32,0.044,0.48,0.021V9.314c-0.019-0.136-0.011-0.274,0.022-0.407v5.374
	c0.205-0.019,0.411-0.004,0.611,0.043v0.043h-0.134v1.82l0.066,0.021c0.056,0.022,0.116,0.029,0.175,0.021v0.129h0.175V15.93h0.415
	c0.043,0.014,0.03,0.079,0.109,0.064c0.328-0.146,0.691-0.198,1.047-0.15V8.5h0.044L13.879,15.844L13.879,15.844z M11.522,14.367
	v0.257h-0.153v1.263c0.059-0.003,0.118,0.004,0.175,0.021c-0.007,0.028-0.007,0.058,0,0.086l0.109,0.021v-1.648H11.522z
	 M10.867,15.909c0.067-0.001,0.134,0.006,0.2,0.021v-0.043c-0.014-0.019-0.021-0.041-0.022-0.064
	c0.101-0.051,0.223-0.033,0.306,0.043v-1.243h-0.96c-0.281,0.053-0.57,0.053-0.851,0v0.921h0.018
	c0.17-0.046,0.348-0.061,0.524-0.044c0.086-0.033,0.173-0.062,0.262-0.086c0.064,0.034,0.131,0.063,0.2,0.086
	c0.035-0.016,0.06-0.048,0.066-0.086c0.049,0.037,0.124,0.066,0.174,0.107C10.769,15.656,10.798,15.792,10.867,15.909L10.867,15.909
	z M10.474,15.331c0.027,0.038,0.027,0.09,0,0.128V15.331L10.474,15.331z M19.116,15.417c0.012,0.012,0.027,0.019,0.044,0.021
	C19.148,15.426,19.133,15.418,19.116,15.417L19.116,15.417z M10.78,15.545c0.012,0.012,0.02,0.027,0.022,0.043H10.78V15.545
	L10.78,15.545z M19.443,15.759c0.024,0,0.047,0.007,0.066,0.021C19.485,15.78,19.463,15.772,19.443,15.759L19.443,15.759z
	 M19.814,15.759c0.031-0.002,0.061,0.005,0.087,0.021C19.871,15.782,19.841,15.774,19.814,15.759L19.814,15.759z M19.314,15.845
	c0.012,0.011,0.02,0.026,0.022,0.043h-0.023v-0.044L19.314,15.845z M19.991,15.845c0.012,0.011,0.019,0.026,0.022,0.043h-0.024
	v-0.044L19.991,15.845z M19.336,15.888h0.655v0.042h-0.657v-0.043L19.336,15.888z M16.652,15.974V16.1h-0.2l0.022,0.128H16.41v0.043
	c-0.02,0.04-0.027,0.085-0.022,0.129c0.109,0.004,0.219-0.003,0.327-0.021v-0.107c-0.027-0.016-0.049-0.038-0.066-0.064l0.066-0.021
	v-0.022c0.022-0.021,0.021,0.021,0.022,0.021c0.05,0.085,0.08,0.18,0.087,0.278c0.294,0.018,0.605,0.1,0.938,0.107
	c0.046-0.073,0.083-0.152,0.109-0.235l-0.393-0.107c-0.039-0.042-0.083-0.077-0.131-0.107v0.021c0.028,0.012,0.016,0,0.022,0.021
	c-0.019,0.014-0.042,0.021-0.065,0.021c-0.027-0.063-0.064-0.121-0.109-0.171c0.054-0.028,0.015,0.009,0.044-0.043h-0.065v0.021
	H17.2c0.042,0.017-0.044,0.021-0.044,0.021c-0.046-0.029-0.104-0.036-0.156-0.019c-0.016,0.027-0.039,0.049-0.066,0.064
	c-0.034,0.015,0,0-0.066,0c-0.002-0.03-0.01-0.059-0.022-0.086h-0.2L16.652,15.974z M12.724,16.081v0.064
	c0.032,0.017,0.061,0.039,0.087,0.064l0.066-0.021v-0.066c0.071-0.018,0.033,0.011,0.065-0.043h-0.22L12.724,16.081z M15.343,16.081
	h-0.089v0.043c0.03,0.002,0.06,0.009,0.087,0.021v-0.066L15.343,16.081z M11.917,16.252l0.022,0.107h0.109v-0.108h-0.133
	L11.917,16.252z M15.317,16.316v0.043h0.022v-0.044h-0.02L15.317,16.316z M17.917,16.359c0.04,0.027,0.091,0.027,0.131,0H17.917
	L17.917,16.359z M11.938,16.38v0.064h0.109v-0.065L11.938,16.38L11.938,16.38z M12.091,16.38v0.17h0.2l-0.022-0.171L12.091,16.38
	L12.091,16.38z M12.047,16.551v-0.086h-0.11v0.043C11.966,16.537,12.005,16.552,12.047,16.551L12.047,16.551z M12.309,16.508v0.128
	h0.2v-0.128H12.309z M11.96,16.594v0.064h0.087v-0.065L11.96,16.594L11.96,16.594z M12.091,16.594c0,0.023,0.008,0.046,0.022,0.064
	c0.063-0.007,0.123-0.029,0.175-0.064h-0.2H12.091z M0.24,17.171c0.012,0.012,0.019,0.027,0.022,0.043H0.24V17.171z M0.262,17.214
	c0.012,0.012,0.019,0.027,0.022,0.043H0.262V17.214z M24.4,17.278c-0.003,0.031,0.005,0.061,0.021,0.086
	c0.002-0.03,0.01-0.059,0.021-0.086H24.4z M0.352,17.364c0.012,0.011,0.02,0.026,0.022,0.043H0.349v-0.043H0.352z M24.4,17.385
	c-0.004,0.037,0.003,0.075,0.021,0.107C24.426,17.455,24.418,17.417,24.4,17.385z M0.374,17.406c0.012,0.011,0.02,0.026,0.022,0.043
	H0.371v-0.042L0.374,17.406z M6.593,17.406c0.128,0.04,0.265,0.04,0.393,0H6.59H6.593z M24.4,17.514V17.6h0.043v-0.021
	C24.426,17.563,24.412,17.53,24.4,17.514z M0.461,17.557c0.011,0.012,0.018,0.027,0.019,0.043H0.458v-0.043H0.461z M21.716,17.643
	c0.001-0.023-0.007-0.045-0.022-0.063c-0.013,0.024-0.037,0.04-0.064,0.043v0.021H21.716z M0.48,17.6
	c0.012,0.012,0.02,0.027,0.022,0.043H0.48V17.6z M24.4,17.771h-0.112C24.3,17.887,24.3,17.9,24.419,17.9v-0.045
	c-0.023,0.001-0.047-0.006-0.065-0.021h0.065c0.006-0.044-0.002-0.089-0.022-0.129v0.063L24.4,17.771z M0.57,17.75
	c0.012,0.012,0.02,0.027,0.022,0.043H0.567v-0.044L0.57,17.75z M0.592,17.793c0.012,0.012,0.02,0.027,0.022,0.043H0.589v-0.044
	L0.592,17.793z M0.7,17.984c0.012,0.012,0.019,0.027,0.022,0.043H0.7V17.984z M0.809,18.178c0.012,0.012,0.02,0.027,0.022,0.043
	H0.807v-0.043H0.809z M0.829,18.22c0.012,0.012,0.02,0.026,0.022,0.044H0.829V18.22z M0.916,18.37
	c0.012,0.011,0.02,0.026,0.022,0.043H0.917L0.916,18.37L0.916,18.37z M0.938,18.413c0.012,0.012,0.02,0.026,0.022,0.043H0.938
	V18.413z M38.887,18.563c0.023,0.001,0.047-0.007,0.065-0.021L38.887,18.5v0.064V18.563z M1.026,18.563
	c0.012,0.012,0.02,0.027,0.022,0.043H1.026V18.563z M1.048,18.605c0.012,0.012,0.02,0.027,0.022,0.043H1.047L1.048,18.605
	L1.048,18.605z M1.135,18.756c0.012,0.012,0.02,0.027,0.022,0.043H1.135V18.756z M1.157,18.8c0.012,0.012,0.019,0.026,0.022,0.043
	H1.157V18.8z M6.023,18.843v0.043h0.022c-0.002-0.017-0.009-0.032-0.022-0.045V18.843z M6.743,18.907c0.231,0.037,0.468,0.037,0.7,0
	H6.743z M0.829,18.971c0.038-0.004,0.076,0.004,0.109,0.021l-0.109,0.021V18.971L0.829,18.971z M1.484,19.014v0.043
	c0.078-0.009,0.055,0.01,0.087-0.043H1.484z M12.766,19.549v0.064c0.383-0.01,0.776,0,1.2,0v-0.088c-0.255,0-0.438,0-0.655,0
	c-0.222-0.191-0.52-0.27-0.807-0.213c-0.589-0.125-1.317-0.023-1.92-0.15c-0.195-0.025-0.394-0.025-0.589,0
	c0.474,0.092,0.941,0.213,1.4,0.363c0.212,0.008,0.424-0.006,0.633-0.043C12.275,19.482,12.522,19.505,12.766,19.549L12.766,19.549z
	 M22.542,19.592c0.36-0.007,0.72,0.036,1.069,0.128c0.459,0.117,0.938,0.101,1.375,0.214l0.414,0.043
	c0.063,0.021,0.131,0.111,0.199,0.127c0.084,0.021,0.2-0.041,0.284-0.021c0.07,0.034,0.144,0.063,0.218,0.086
	c0-0.023,0.008-0.046,0.022-0.063c0.146,0.111,0.317,0.186,0.5,0.213c0.031-0.028,0.068-0.05,0.108-0.063
	c0.047,0.037,0.098,0.066,0.154,0.086c-0.008-0.028-0.008-0.058,0-0.086c0.038,0.017,0.074,0.038,0.108,0.063l0.218,0.021
	l0.021,0.061c0.115,0.014,0.232,0.014,0.349,0c0.092,0.026,0.267,0.078,0.349,0.106v-1.302h-0.021c-0.13,0.03-0.264,0.03-0.394,0
	h-1.156c-0.296,0.051-0.598,0.058-0.896,0.021c-0.304,0.109-0.639,0.102-0.938-0.021c-0.047,0.013-0.092,0.034-0.131,0.064h-0.479
	v0.043c0.024,0.012,0.041,0.036,0.044,0.063c-0.045,0.05-0.107,0.08-0.175,0.086c-0.114,0.024-0.232,0.031-0.349,0.021
	c-0.17,0.023-0.578,0-0.873,0v0.043C22.55,19.545,22.542,19.567,22.542,19.592L22.542,19.592z M27.954,19.207v1.307h0.131
	c0.072,0.082,0.104,0.191,0.087,0.299h0.066v0.15c0.049,0.016,0.102,0.022,0.152,0.021c-0.021-0.475,0.021-1.2,0.022-1.777H27.954z
	 M1.025,19.464c-0.007,0.052,0.001,0.103,0.022,0.15c0.008-0.052,0-0.104-0.021-0.152L1.025,19.464z M21.825,19.527v0.064h0.61
	v-0.066h-0.613L21.825,19.527z M0.985,19.828c0.052,0.004,0.104-0.006,0.15-0.028H1.047V19.65H1v0.086
	c-0.016,0.027-0.022,0.059-0.018,0.09L0.985,19.828z M1.094,19.721c0.018,0.069-0.011,0.033,0.044,0.064
	c-0.003-0.029-0.021-0.054-0.047-0.066L1.094,19.721z M0.985,19.871v0.169h0.041c0.002-0.063,0.024-0.123,0.065-0.171H0.982
	L0.985,19.871z M0.985,20.085C0.978,20.128,0.982,20.172,1,20.212c0.007-0.044,0.001-0.089-0.018-0.129L0.985,20.085z M27.43,20.426
	c-0.012,0.012-0.027,0.02-0.043,0.021v0.021h0.086c0.012-0.011,0.027-0.019,0.045-0.021v-0.021H27.43z M1.13,20.727
	c-0.006,0.061-0.029,0.12-0.065,0.17H1.2v-0.172H1.135L1.13,20.727z M1.2,21.111v-0.172H1c-0.018,0.063-0.025,0.129-0.022,0.193H1
	C1.064,21.109,1.132,21.102,1.2,21.111z M1.331,20.982c-0.007,0.052,0,0.104,0.022,0.15C1.36,21.082,1.353,21.029,1.331,20.982
	L1.331,20.982z M2.331,21.004c0,0.03-0.018-0.009-0.022,0.021c-0.042,0.017,0.044,0.021,0.044,0.021
	c0-0.017-0.007-0.033-0.018-0.046L2.331,21.004z M2.353,21.111c0.038,0.019,0.028,0.019,0.065,0H2.357H2.353z M0.978,21.154v0.193H1
	c0.064-0.023,0.133-0.031,0.2-0.021v-0.172H0.982H0.978z M1.327,21.154V21.2h0.026v-0.046H1.331H1.327z M1.873,21.154
	c0.017,0.044,0.062,0.07,0.109,0.063l0.065-0.043v-0.021h-0.17H1.873z M1.48,21.175c0.025,0.034,0.067,0.051,0.109,0.043
	c0.012-0.011,0.02-0.026,0.022-0.043c-0.042,0.013-0.085,0.013-0.127,0H1.48z M0.98,21.389v0.129H1.2v-0.129H0.982H0.98z
	 M2.442,21.41v0.09h0.111c0-0.023-0.008-0.046-0.022-0.064c-0.025-0.017-0.056-0.025-0.087-0.024L2.442,21.41z M2.422,21.5v-0.068
	c-0.059,0-0.118,0.008-0.175,0.021c0.005,0.009,0.013,0.016,0.022,0.021C2.317,21.496,2.37,21.506,2.422,21.5z M2.313,21.521
	c0.023,0.036,0.067,0.053,0.109,0.043v-0.047H2.313V21.521z M2.444,21.521v0.043h0.109v-0.047H2.444V21.521z M1.135,21.542
	c0.04,0.026,0.092,0.026,0.131,0H1.135z M1.288,21.6H1.026v0.021h0.043c0.059,0.068,0.134,0.119,0.218,0.15v-0.019
	c0.012-0.012,0.02-0.026,0.022-0.043C1.291,21.676,1.283,21.638,1.288,21.6z M1.332,21.6v0.15h0.021v-0.018
	c0.021-0.041,0.028-0.088,0.022-0.133H1.332L1.332,21.6z M1.463,21.6c0,0.044-0.007,0.088-0.022,0.129h0.043V21.6H1.463L1.463,21.6z
	 M1.572,21.6L1.55,21.729h0.021V21.71C1.598,21.678,1.598,21.632,1.572,21.6L1.572,21.6z M2.379,21.6
	c0.036,0.024,0.023,0.039,0.044,0H2.379z M2.444,21.6v0.086h0.109V21.6H2.444z M1.744,22.027L1.722,22.07
	c0.04-0.026,0.024-0.038,0.024-0.038L1.744,22.027z M1.373,22.049c0,0.023,0.007,0.046,0.022,0.064v-0.061h-0.02L1.373,22.049z
	 M2.42,22.434v-0.06c-0.146,0.008-0.291-0.03-0.415-0.106v0.021h0.024c0.058,0.057,0.14,0.091,0.2,0.149h0.2L2.42,22.434z
	 M1.787,22.348c-0.017,0.056-0.024,0.113-0.022,0.172h0.046c0.007-0.057,0-0.114-0.022-0.166L1.787,22.348z M1.678,22.369
	c-0.007,0.051,0,0.104,0.022,0.15c0.006-0.05,0-0.1-0.02-0.146L1.678,22.369z M2.442,22.369c0.018,0.068-0.011,0.033,0.044,0.064
	c0.027-0.016,0.05-0.037,0.065-0.064H2.444H2.442z M1.571,22.4c-0.007,0.051,0.001,0.103,0.022,0.149
	C1.6,22.499,1.592,22.447,1.571,22.4z M1.331,22.421v0.171h0.022v-0.025c0.021-0.047,0.029-0.098,0.022-0.149H1.331V22.421z
	 M1.462,22.421C1.46,22.472,1.453,22.521,1.44,22.57h0.044v-0.149H1.462z M1.746,22.828c0,0.029-0.018-0.01-0.022,0.021
	c-0.042,0.017,0.044,0.021,0.044,0.021c-0.001-0.018-0.009-0.034-0.022-0.046V22.828z M1.593,22.893
	c0.012,0.011,0.028,0.018,0.044,0.021C1.625,22.9,1.61,22.891,1.593,22.889V22.893z M1.375,22.913v0.043H1.4
	c-0.002-0.019-0.011-0.035-0.025-0.047V22.913z M3.275,23.127c0.012,0.012,0.027,0.02,0.044,0.021
	c-0.012-0.014-0.028-0.022-0.046-0.025L3.275,23.127z M3.45,23.127v0.086h0.042v-0.025c0.014-0.018,0.021-0.041,0.022-0.063H3.448
	L3.45,23.127z M1.77,23.191v0.127h0.041v-0.131H1.768L1.77,23.191z M1.683,23.212c-0.004,0.037,0.003,0.075,0.022,0.106
	c0.004-0.037-0.005-0.076-0.025-0.109L1.683,23.212z M1.574,23.232C1.57,23.27,1.578,23.308,1.596,23.34
	c0.003-0.038-0.005-0.076-0.025-0.109L1.574,23.232z M1.334,23.254v0.126h0.041v-0.128H1.331L1.334,23.254z M1.465,23.254
	c-0.004,0.037,0.003,0.074,0.022,0.107c0.004-0.039-0.005-0.076-0.025-0.109L1.465,23.254z M27.041,23.297
	c-0.023,0.061-0.055,0.029,0,0.064c0.02-0.018,0.042-0.032,0.066-0.043v-0.023h-0.069L27.041,23.297z M26.801,23.383
	c0.036,0.024,0.023,0.038,0.045,0H26.801L26.801,23.383z M26.602,23.426c-0.084,0.09-0.189,0.155-0.306,0.193
	c0.019,0.019,0.032,0.041,0.044,0.064c0.035-0.021,0.078-0.072,0.109-0.086c0.047-0.022,0.048,0.1,0.087,0.043
	c0.067-0.018,0.129-0.055,0.175-0.107c-0.031-0.042-0.068-0.079-0.111-0.11L26.602,23.426z M4.015,23.555
	c-0.007,0.029,0.031,0.03,0.044,0.043c0.015-0.025-0.038-0.039-0.044-0.046V23.555z M5.259,23.575
	c0.041,0.024,0.035,0.034,0.066,0.02h0.021v-0.021H5.259V23.575z M6.023,23.575c-0.187-0.027-0.377,0.003-0.546,0.086H5.456
	c0.002,0.017,0.01,0.031,0.022,0.043c0.076,0.073,0.165,0.131,0.262,0.171c0.035-0.094,0.087-0.182,0.153-0.257l0.065,0.021
	c0.015,0.041,0.022,0.085,0.022,0.129c-0.054,0.057-0.098,0.121-0.131,0.192c0.071,0.026,0.138,0.063,0.2,0.106V23.98
	c-0.048-0.131-0.057-0.271-0.026-0.407V23.575z M4.583,23.596c0.062,0.07,0.147,0.115,0.24,0.129
	c0.012-0.012,0.02-0.027,0.022-0.043C4.762,23.641,4.674,23.612,4.583,23.596L4.583,23.596z M1.746,23.617
	c0.008,0.056-0.016,0.027,0.044,0.043v-0.044L1.746,23.617L1.746,23.617z M26.1,23.617v0.107c-0.098,0.038-0.187,0.096-0.262,0.17
	c0.012,0.012,0.02,0.027,0.021,0.043H25.9c0.047-0.023,0.101-0.031,0.152-0.021c0.078-0.008,0.145-0.057,0.176-0.128h-0.021
	C26.194,23.721,26.156,23.658,26.1,23.617L26.1,23.617z M1.375,23.725v0.043H1.4c-0.003-0.018-0.012-0.033-0.025-0.045V23.725z
	 M4.975,23.788c0.053,0.097,0.138,0.172,0.24,0.214C5.231,24,5.247,23.992,5.259,23.98h0.022v-0.022L4.975,23.788z M8.575,24.988
	h0.067v-0.131c0.057-0.016,0.116-0.023,0.175-0.021v0.149h0.174v-0.299c0.049-0.016,0.101-0.023,0.153-0.021v0.021h0.021v0.299
	h0.088v-0.129c0.057-0.016,0.116-0.023,0.175-0.021v0.043c0.018,0.032,0.025,0.07,0.022,0.106h0.13
	c-0.004-0.107,0.002-0.215,0.02-0.321h0.155v0.043c0.028,0.09,0.036,0.185,0.022,0.278h0.087c0.001-0.051,0.009-0.102,0.022-0.15
	h0.153v0.043c0.018,0.033,0.026,0.07,0.022,0.107h0.131v-0.235C9.974,24.549,9.834,24.275,9.8,23.98H9.318
	c0.01-0.059,0.003-0.117-0.018-0.172c-0.038,0.311-0.194,0.594-0.436,0.793c-0.162,0.063-0.273,0.211-0.288,0.385L8.575,24.988z
	 M25.422,23.875c-0.023,0.105-0.038,0.213-0.044,0.32H25.4v0.021c0.051-0.005,0.102-0.005,0.152,0
	c0.082-0.024,0.156-0.068,0.219-0.128c-0.119-0.135-0.071-0.224-0.349-0.216L25.422,23.875z M15.254,24.986v-0.129
	c0.042-0.014,0.086-0.021,0.131-0.021l0.022-0.171h0.153v0.32h0.284c0.001-0.05,0.008-0.101,0.022-0.149h0.109v-0.149
	c0.049-0.016,0.101-0.023,0.153-0.021v0.32h0.305c0.001-0.05,0.009-0.101,0.022-0.149h0.087v-0.149
	c0.049-0.016,0.101-0.023,0.153-0.021c0.008,0.1,0,0.182,0,0.32h0.327v-0.107c-0.32-0.194-0.53-0.527-0.567-0.9H15.8
	c-0.134,0.42-0.422,0.771-0.807,0.985v0.021h0.262L15.254,24.986z M19.291,23.98c-0.02,0.205-0.088,0.403-0.2,0.578l-0.131,0.106
	c0.001,0.107,0.009,0.214,0.022,0.321h0.393c-0.003-0.107,0.004-0.215,0.022-0.321h0.131v0.021h0.022
	c0.007,0.101,0.007,0.201,0,0.301h0.393v-0.15c-0.279-0.203-0.46-0.514-0.5-0.857h-0.152V23.98z M21.932,24.986h0.283v-0.021h0.021
	c-0.014-0.093-0.006-0.188,0.022-0.277c0.041-0.02,0.087-0.027,0.132-0.021c0.008,0.057,0.008,0.114,0,0.171H22.5v0.043
	c0.018,0.032,0.025,0.07,0.021,0.106H22.8c-0.022-0.118,0.001-0.24,0.066-0.342c-0.198-0.175-0.336-0.407-0.394-0.664H22.3V24
	h-0.021c-0.049,0.324-0.211,0.619-0.457,0.835c0.078,0.009,0.055-0.01,0.087,0.043C21.928,24.911,21.936,24.949,21.932,24.986z
	 M5.39,24.044v0.063c0.098,0.059,0.2,0.108,0.306,0.15v-0.043H5.674C5.592,24.139,5.496,24.08,5.39,24.044z M12.133,24.986h0.153
	c0.001-0.051,0.009-0.102,0.022-0.15h0.152v0.15h0.066c-0.003-0.107,0.004-0.215,0.022-0.321h0.131
	c0.022,0.105,0.03,0.214,0.022,0.321h0.175c0.001-0.051,0.009-0.102,0.022-0.15h0.152v0.15h0.044
	c0.007-0.115,0.022-0.23,0.044-0.344c-0.057-0.1-0.124-0.192-0.2-0.277c-0.007-0.108-0.045-0.213-0.109-0.301v0.043
	c-0.051,0.09-0.095,0.183-0.131,0.278C12.468,24.542,12.274,24.746,12.133,24.986z M4.888,24.13
	c-0.007,0.03,0.031,0.031,0.044,0.043C4.947,24.15,4.894,24.136,4.888,24.13z M5.827,24.3L5.8,24.365
	c0.094,0.064,0.197,0.115,0.306,0.15h0.026v-0.021L5.827,24.3z M25.27,24.344v0.043h0.022C25.289,24.371,25.282,24.355,25.27,24.344
	z M6.241,24.579c0.019,0.058,0.07,0.1,0.131,0.106v-0.021C6.336,24.627,6.291,24.597,6.241,24.579z M13.268,24.986h0.2V24.9
	l-0.2-0.107V24.986z M22.979,24.793v0.043h0.066v-0.021L22.979,24.793z M18.789,24.986c0.001-0.051,0.009-0.102,0.022-0.15h-0.022
	c-0.057,0.062-0.125,0.112-0.2,0.15H18.789z M23.109,24.986c0.053,0.007,0.105,0,0.154-0.021c-0.064-0.025-0.123-0.062-0.176-0.107
	v0.021C23.105,24.912,23.113,24.949,23.109,24.986z M8.38,24.986V24.9H8.336c-0.041,0.025-0.085,0.047-0.131,0.063v0.021H8.38
	V24.986z M10.366,24.986c0.082,0,0.077,0.01,0.109-0.043c-0.057-0.017-0.052-0.026-0.109-0.043V24.986z M21.6,24.965
	c0.013,0.012,0.027,0.02,0.045,0.021C21.632,24.975,21.617,24.967,21.6,24.965z"/>
</svg>
