<svg xmlns="http://www.w3.org/2000/svg" width="40" height="40" viewBox="0 0 40 40">
  <defs>
    <style>
      .cls-1 {
        fill: #fff;
        fill-rule: evenodd;
      }
    </style>
  </defs>
  <path id="Color_Fill_1" data-name="Color Fill 1" class="cls-1" d="M15.082,13.187h1.124V13H16.3v0.373c0.119,0.15.058,0.116,0,.28a1.391,1.391,0,0,1,.984.14c-0.118.068-.072,0.021-0.094,0.187a0.545,0.545,0,0,1,.422.187,0.54,0.54,0,0,0-.094.14h0.468a0.51,0.51,0,0,0,.281.047v-0.28h0.656v0.42H18.97V14.54l0.7,0.093v-0.28a1.933,1.933,0,0,1,.562-0.047v0.42a3.444,3.444,0,0,1,.656.187c0.528,0.144.858,0.1,1.218,0.233a6.691,6.691,0,0,0,1.358.093,2.471,2.471,0,0,0,1.171.233v0.233a10.483,10.483,0,0,1,1.124.093V15.66a0.273,0.273,0,0,1,.234.093c0.041-.048.027-0.207,0.094-0.093,0.041,0.035.053,0.059,0.094,0.093a0.225,0.225,0,0,1,.047-0.14c0.112,0.231.3,0.036,0.468,0.093a0.531,0.531,0,0,0,.421.187,2.4,2.4,0,0,0,.89.047h2.155l7.869,0.047v-0.14c0.431,0.037,1.822-.17,1.967.14v0.56a0.168,0.168,0,0,0-.047.093,1.092,1.092,0,0,1-.375.093,1.8,1.8,0,0,1-.984-0.093c-0.714-.026-1.55-0.047-2.436-0.047-3.024,0-6.266-.029-9.274.093a0.261,0.261,0,0,1-.14.28,1.391,1.391,0,0,0-.328-0.047,0.538,0.538,0,0,0-.094.14,0.406,0.406,0,0,0-.187-0.14c-0.075.1-.077,0.1-0.14,0.093-0.041-.035-0.053-0.059-0.094-0.093-0.39.32-1.747,0.024-1.827,0.56a0.6,0.6,0,0,0-.515.047v0.047a4.729,4.729,0,0,0,.843.187,0.546,0.546,0,0,0,.094-0.233h0.047v0.14a0.313,0.313,0,0,0-.047.187,7.135,7.135,0,0,1,1.405.513c0.062-.188.124-0.191,0.375-0.187a10.27,10.27,0,0,0,2.2.793,1.514,1.514,0,0,0,.141.327,0.987,0.987,0,0,1,.609-0.233,1.471,1.471,0,0,0,.375.28c0.13,0.1.151,0.373,0.281,0.467a4.949,4.949,0,0,0,.984.373V19.953h0.468a4,4,0,0,0,.14.42,1.06,1.06,0,0,0,.984.047,3.5,3.5,0,0,1,.094,1.073,2.411,2.411,0,0,1,0,.56c0.129,0.366.523,0.67,0.656,1.073-0.3.106-.121,0.21-0.234,0.42a0.225,0.225,0,0,0-.047-0.14,7.464,7.464,0,0,0-1.218,1.167H31.85c0.052-.134.008-0.086,0.14-0.14v0.14a1.226,1.226,0,0,1-.609.093,2.822,2.822,0,0,1-1.827,2.147,2.774,2.774,0,0,1-3.607-2.24H23.513a2.741,2.741,0,0,1-5.433,0H15.6a2.077,2.077,0,0,1-.422,1.073,2.7,2.7,0,0,1-5.012-1.073H7.682A2.8,2.8,0,0,1,3.326,26.44,3.027,3.027,0,0,1,2.3,24.993a4.446,4.446,0,0,0-.141-0.747,1.986,1.986,0,0,0-.8-0.047V24.013a10.752,10.752,0,0,1-1.218.14A1.3,1.3,0,0,1,0,23.407H0.047a0.541,0.541,0,0,0,.141.093V23.173a5.708,5.708,0,0,1,.8.28V23.407A0.735,0.735,0,0,0,.749,23.36c0-.581.015-0.894,0.047-1.4a0.673,0.673,0,0,0-.234.047V21.773H0.749V21.68A1.5,1.5,0,0,0,.8,21.073H0.562A0.5,0.5,0,0,1,.281,20.7a0.653,0.653,0,0,0,.281-0.373c0.212,0.091.254-.1,0.234-0.373a10.579,10.579,0,0,1,0-1.867A0.633,0.633,0,0,0,1.311,17.9V17.853c-0.189.006-.256,0.025-0.328-0.093a2.567,2.567,0,0,1,1.5-.187,1.739,1.739,0,0,1,.141.28A0.609,0.609,0,0,0,2.3,17.9a1.092,1.092,0,0,0,.8.187,0.842,0.842,0,0,0,.141-0.233c-0.183,0-.211.023-0.281-0.093a2.567,2.567,0,0,1,1.5-.187c0.046,0.142.092,0.14,0.141,0.28a0.609,0.609,0,0,0-.328.047,0.994,0.994,0,0,0,.749.187A0.7,0.7,0,0,0,5.105,17.9H5.152V17.853H4.824V17.807H4.871c0.179-.351.931-0.249,1.452-0.233l0.187,0.28a0.609,0.609,0,0,0-.328.047,0.908,0.908,0,0,0,.8.187A0.252,0.252,0,0,1,7.119,17.9V17.853c-0.189.006-.256,0.025-0.328-0.093a2.664,2.664,0,0,1,1.5-.187,1.74,1.74,0,0,1,.141.28c-0.183,0-.211-0.023-0.281.093a1.369,1.369,0,0,0,.8.14,1.157,1.157,0,0,1,.187-0.513H12.6v-0.14H9.133V17.387a4.317,4.317,0,0,0,.375-0.98c0.166-.4.393-0.86,0.562-1.26l0.281-.84h3.372a0.669,0.669,0,0,0-.047-0.233c0.292,0.007.381-.033,0.422-0.28a0.227,0.227,0,0,1-.141-0.047c0.281,0.012.387,0,.468-0.187h-0.14a0.105,0.105,0,0,1-.14,0,0.168,0.168,0,0,1-.047-0.093h0.656V13.233h0.234V13h0.094v0.187Zm2.763,0.933c-0.039.151,0.023,0.071-.094,0.14V14.213A0.168,0.168,0,0,1,17.7,14.12h0.141Zm6.089,1.167h0.094v0.047A0.161,0.161,0,0,1,23.934,15.287Zm14.988,0.747a0.405,0.405,0,0,0-.14.187,0.237,0.237,0,0,0-.047.14,0.5,0.5,0,0,0,.328.14,0.411,0.411,0,0,0,.14-0.327A0.972,0.972,0,0,0,38.923,16.033Zm0.562,0a0.384,0.384,0,0,0-.141.373,0.542,0.542,0,0,0,.328.093,0.39,0.39,0,0,0,.094-0.14,0.288,0.288,0,0,0-.094-0.327H39.485Zm-16.862,1.4c0.1,0.21.342,0.151,0.749,0.14V17.527A4.746,4.746,0,0,0,22.623,17.433Zm6.651,1.82a0.72,0.72,0,0,0,.14.373,0.488,0.488,0,0,0,.281.093V19.627H29.649A0.7,0.7,0,0,0,29.274,19.253Zm-0.14.187,0.047,0.14h0.094V19.487Zm3.372,2.24a0.227,0.227,0,0,0-.141.047,0.538,0.538,0,0,1,.094.14h0.047V21.68Zm0.281,0.28h0.094v0.047H32.834a0.335,0.335,0,0,1-.187.093V22.053h0.047C32.728,22.013,32.752,22,32.787,21.96Zm-32.6,1.727v0.14a0.492,0.492,0,0,0,.281.093,0.487,0.487,0,0,0,.094-0.28Z" transform="translate(0 0.016)"/>
</svg>
