<svg xmlns="http://www.w3.org/2000/svg" width="39.938" height="40" viewBox="0 0 39.938 40">
  <defs>
    <style>
      .cls-1 {
        fill: #fff;
        fill-rule: evenodd;
      }
    </style>
  </defs>
  <path id="Color_Fill_1" data-name="Color Fill 1" class="cls-1" d="M29.707,18.294l7.366,0.048v0.482l-7.415.1a1.43,1.43,0,0,1-.39.772c0.417,0.15.978,0.581,1.22,0.048a13.759,13.759,0,0,1,3.854.338,4,4,0,0,0,.732.579c0.752,0.171,2.7-.064,2.683.53H37.707l-1.463-.145-0.293.434L36,21.574l0.2,0.1c0.042-.126-0.02-0.168.1-0.1,0.044,0.176,0,.1.1,0.193,0.741,0.378,1.309-.109,1.8.048a2.637,2.637,0,0,0,.781.386c0.24,0.674.956,1.32,1.024,1.977-0.82.3-.839,1.367-1.512,1.832l-5.61,2.6c-1.6.637-5.491,0.241-7.707,0.241-5.966,0-13.754.608-18.39-.82-2.084-.642-3.815-0.614-4.244-2.942H2.293L2.244,23.5a5.386,5.386,0,0,0,.634-0.82,0.93,0.93,0,0,1-.39-0.627c0.186-.019.061,0.054,0.2-0.048l-0.341-.434-0.78.193c0.089,0.04.031,0.022,0,.1a0.175,0.175,0,0,1-.146.1c-0.31-.5-1.02-0.505-1.268-1.109a1.516,1.516,0,0,1,.829-1.929l0.878-.048c0.2-.1.08-0.38,0.488-0.241a2.185,2.185,0,0,1,.829,1.4L4.2,20.32c0.316-.515,3.167-0.026,3.8-0.1a8.514,8.514,0,0,0,2-.53c1.148-.4,2.319.285,3.366,0.1,0.647-.117,3.491.052,5.317,0.1V19.548h-1.8l-1.415-.627-0.341.386-0.976-.82,0.293-1.3,0.585-.289v0.241l0.1-.048,0.341-.434a1.368,1.368,0,0,1,.927.241V16.8l0.049-.193a0.7,0.7,0,0,1-.537-0.1l0.585-.048c-0.009-1.083.2-2.505,0.2-4.292V10.1h0.049c0,2.169.207,4.861,0.2,6.221,0.742,0.052,4.133-.067,4.488-0.482l0.049-.386,0.927-.1q0.024-2.7.049-5.4c-0.022.9-.1,5.3,0.341,5.3l-0.293.241a0.433,0.433,0,0,0,.2.386,1.745,1.745,0,0,0,1.61.193,1.094,1.094,0,0,1,.39.338l1.171,0.241c0.372-.69,1.213-0.313,1.561.1a0.314,0.314,0,0,1,.1-0.241l0.1,0.53C28.6,16.813,29.677,17.179,29.707,18.294Zm-12.78-1.688a0.7,0.7,0,0,0-.1.434l0.341-.434H16.927ZM2.049,18.777l0.1,0.241,0.585,0.337a0.69,0.69,0,0,0-.341-0.482A0.435,0.435,0,0,0,2.049,18.777Zm0.78,1.013v0Zm0.049,0.145v0.193H2.927Zm26.341,0,0.2,0.386,0.293-.145v-0.1Zm-26.244.434a1.273,1.273,0,0,1-.585,1.061l0.2,0.193a0.41,0.41,0,0,0,.341.338C2.636,21.309,3.309,20.907,2.976,20.368Zm-1.8,1.206,0.2,0.1Zm36.683,0.386-0.1.048,0.537,0.048ZM36.39,25.624c-0.8.54-1.925,0.558-2.39,1.447l2.732-1.206Zm-30,.82c-0.139.222-.08,0.31-0.2,0.482l-0.244-.145-0.1.048v0.048l1.9,0.53-0.439-.964H6.39Zm6,0a4.614,4.614,0,0,1-.927,1.495h2.244l-0.146-.193a2.3,2.3,0,0,1-.78-1.3H12.39Zm5.464,0a4.593,4.593,0,0,1-.927,1.495h2.244l-0.146-.193a2.361,2.361,0,0,1-.78-1.3h-0.39Zm5.463,0a4.26,4.26,0,0,1-.927,1.495h2.244l-0.146-.193a2.388,2.388,0,0,1-.78-1.3h-0.39Zm5.463,0a3.937,3.937,0,0,1-.927,1.495l2.293-.048h-0.1a5.4,5.4,0,0,1-.878-1.447h-0.39Z" transform="translate(-0.063 0.547)"/>
</svg>
