<svg xmlns="http://www.w3.org/2000/svg" width="40" height="40" viewBox="0 0 40 40">
  <defs>
    <style>
      .cls-1 {
        fill: #fff;
        fill-rule: evenodd;
      }
    </style>
  </defs>
  <path id="uk_crusader_aa_mk_2_ico" class="cls-1" d="M19.565,17.189h0.377V17.3c-0.041.006,0.012-.023-0.029-0.029-0.022-.055-0.029.057-0.029,0.057h0.029a3.116,3.116,0,0,0,.551.029,4.9,4.9,0,0,0,.928.342c0.143-.4,1.771-0.265,2.377-0.257a1.386,1.386,0,0,1,.029.4c-0.142.056-.082,0.235-0.058,0.371a1.8,1.8,0,0,1,1.217.343,0.3,0.3,0,0,0-.087.171,4.182,4.182,0,0,0,1.015.143l-0.029.086a3.97,3.97,0,0,1,.812.2c0.456,0.128.909,0.188,1.333,0.314,0.209,0.062.428,0.1,0.609,0.143H28.87a1.259,1.259,0,0,0,.319.114V19.615l0.319-.028,0.029,0.428H29.71a0.886,0.886,0,0,0,.2.285,1.227,1.227,0,0,1-.174.314v0.057H29.594v0.171h1.623a0.081,0.081,0,0,0,.029.029v0.086c1.835,0,3.574.055,5.449,0.057V21.27c-0.753-.012-1.607-0.029-2.406-0.029H33.275a9.693,9.693,0,0,1-2.029.086,0.137,0.137,0,0,1-.029.086,5.886,5.886,0,0,1-1.362.028c-0.023.146-.023,0.2-0.2,0.2l0.029,0.343a0.194,0.194,0,0,1,.145,0,1.724,1.724,0,0,0,.232.285,0.446,0.446,0,0,1-.319.343v0.257H29.42V22.754H29.044v0.114a3.524,3.524,0,0,1,.725.2,0.136,0.136,0,0,1,.029-0.086,1.318,1.318,0,0,1,.493-0.029h5.739V24.78c0.088,0.028.087,0.056,0.174,0.086a0.182,0.182,0,0,1,.029-0.114v0.2a1.046,1.046,0,0,1,.348.114,3.346,3.346,0,0,0,.348,0v0.057a2.249,2.249,0,0,0,.406.057,3.925,3.925,0,0,1,.783-0.171,1.7,1.7,0,0,0,.812.371,2.2,2.2,0,0,0,.348.571L40,27.291c-0.04.012-.682,0.438-0.7,0.457-0.044.061-.02,0.174-0.058,0.228a0.572,0.572,0,0,0-.116-0.057v0.057a0.738,0.738,0,0,0-.116.371c0.09,0.035.066,0.011,0.087,0.114l-0.145.2c-0.056-.027-0.119-0.092-0.145-0.057a2.228,2.228,0,0,1-.29.285c0.036,0.062.085,0.1,0.058,0.143a0.581,0.581,0,0,1-.261.171,0.34,0.34,0,0,0-.116-0.114,0.92,0.92,0,0,0-.29.2,0.2,0.2,0,0,1,.058.114l-0.261.086c-0.04-.08-0.041-0.113-0.116-0.086l-0.29.114a0.188,0.188,0,0,1,.029.143c-0.049.046-.125,0.068-0.174,0.114-0.1-.037-0.078-0.077-0.174-0.114L36.7,29.8a0.136,0.136,0,0,1,.029.143,0.512,0.512,0,0,1-.232.114,0.273,0.273,0,0,0-.087-0.143c-0.086.078-.227,0.1-0.319,0.171,0.038,0.037.095,0.086,0.058,0.114a1.029,1.029,0,0,1-.261.143,0.609,0.609,0,0,0-.058-0.143,1.187,1.187,0,0,0-.348.171,0.191,0.191,0,0,1,.058.143,1.182,1.182,0,0,0-.261.114,0.608,0.608,0,0,0-.058-0.143,0.1,0.1,0,0,0-.058.029,0.271,0.271,0,0,0-.261.2,0.144,0.144,0,0,1,.029.086l-0.261.086c-0.027-.1-0.011-0.089-0.116-0.114a0.425,0.425,0,0,0-.261.2,0.144,0.144,0,0,1,.029.086,1.5,1.5,0,0,1-.261.114A0.608,0.608,0,0,0,34,31.03a0.457,0.457,0,0,0-.319.228,0.332,0.332,0,0,1,.058.086,1.163,1.163,0,0,0-.29.114,0.608,0.608,0,0,0-.058-0.143,0.643,0.643,0,0,0-.348.2,0.552,0.552,0,0,1,.058.114l-0.29.114a0.149,0.149,0,0,0-.087-0.143,0.739,0.739,0,0,1-.348.086l0.029,0.171H32.348a0.453,0.453,0,0,1-.261.057V31.772l-0.406.029v0.143H31.623a0.466,0.466,0,0,1-.232.029V31.8H31.015v0.171h-0.29V31.8H30.348v0.171H30.087V31.914a0.19,0.19,0,0,1-.029-0.114H29.71l-0.029.171H29.42V31.8H29.044v0.171h-0.29V31.8H28.377v0.171h-0.29V31.8H27.71v0.171H27.42V31.8H27.044v0.171H26.783V31.914a0.19,0.19,0,0,1-.029-0.114H26.406l-0.029.171h-0.29V31.8H25.71v0.171H25.42V31.8H25.073v0.171h-0.29V31.914a0.19,0.19,0,0,1-.029-0.114H24.406v0.171h-0.29L24.087,31.8H23.739v0.171h-0.29V31.8H23.1l-0.029.171h-0.29V31.8H22.435v0.171H22.116V31.8H21.768v0.171H21.449V31.8H21.13l-0.029.171H20.783V31.8H20.464l-0.029.171H20.116V31.8H19.8v0.143a1.088,1.088,0,0,1-.319.029V31.8H19.13v0.171H18.812V31.8a1.66,1.66,0,0,0-.348.029v0.143H18.145V31.829H17.8v0.143h-0.29V31.829H17.13v0.143h-0.29V31.829H16.464v0.143h-0.29V31.829H15.826a0.441,0.441,0,0,0-.029.143h-0.29V31.829H15.159v0.143H14.841V31.829H14.493v0.143H14.2V31.829H13.826v0.143h-0.29V31.829H13.159v0.143H12.87V31.829H12.493v0.143H12.2V31.829H11.855l-0.029.143H11.565V31.914a0.144,0.144,0,0,1-.029-0.086H11.188v0.143H10.9V31.829H10.522v0.143h-0.29V31.829L9.826,31.8v0.171a1.11,1.11,0,0,1-.377-0.057,0.442,0.442,0,0,0,.029-0.143l-0.406-.057-0.029.143H8.986a0.433,0.433,0,0,0-.2-0.057,0.477,0.477,0,0,1,.029-0.171H8.754l-0.319-.114a0.2,0.2,0,0,1-.058.171A0.7,0.7,0,0,0,8.116,31.6V31.572c0.032-.042.06-0.087,0.029-0.114A1.184,1.184,0,0,0,7.8,31.344c-0.015.116-.006,0.116-0.116,0.143-0.048-.044-0.151-0.012-0.2-0.057,0.033-.1.041-0.139-0.029-0.171a0.615,0.615,0,0,0-.29-0.086l-0.029.143H7.072C7.027,31.28,6.944,31.265,6.9,31.23c-0.062-.087.024-0.1-0.058-0.143a1.323,1.323,0,0,0-.319-0.114c-0.016.125-.012,0.129-0.145,0.143-0.046-.035-0.129-0.05-0.174-0.086a0.808,0.808,0,0,0,.058-0.143L5.884,30.8c-0.014.1-.008,0.1-0.087,0.143a0.433,0.433,0,0,0-.2-0.057,0.478,0.478,0,0,1,.029-0.171H5.565a0.648,0.648,0,0,0-.319-0.086,0.311,0.311,0,0,1-.058.143,0.7,0.7,0,0,0-.261-0.086V30.659a0.244,0.244,0,0,0,.029-0.143,2.373,2.373,0,0,1-.348-0.086c-0.015.116-.006,0.116-0.116,0.143a0.3,0.3,0,0,0-.174-0.057l0.029-.171H4.29c-0.03,0-.052.014-0.145,0.029a0.654,0.654,0,0,0-.087-0.143A0.1,0.1,0,0,0,4,30.259c-0.033.034-.053,0.081-0.087,0.114l-0.261-.143,0.087-.143a1.631,1.631,0,0,1-.232-0.057l0.029-.086c-0.076-.022-0.069-0.034-0.145-0.057a0.158,0.158,0,0,1-.116.086A0.941,0.941,0,0,1,3.1,29.746a0.156,0.156,0,0,0,.087-0.114,1.363,1.363,0,0,0-.261-0.257c-0.05.038-.047,0.049-0.087,0.028A0.861,0.861,0,0,1,2.7,29.146a0.152,0.152,0,0,0,.145-0.086,0.443,0.443,0,0,1-.116-0.314,0.246,0.246,0,0,1-.145-0.029,0.445,0.445,0,0,1-.029-0.228H2.522V28.461c0.132-.005.146,0,0.174-0.114a0.176,0.176,0,0,1-.058-0.057c-0.75.363-.965-0.157-1.043-0.856l0.174,0.028a1.06,1.06,0,0,0,.145.4V27.834a0.821,0.821,0,0,0,.232-0.485H1.42V27.006H1.043a0.4,0.4,0,0,1-.029-0.114,0.851,0.851,0,0,0,.406-0.343A1.078,1.078,0,0,1,1.1,26.264,3.312,3.312,0,0,1,2.7,26.178a1.394,1.394,0,0,0,.174-0.257c-0.02-.022-0.038-0.064-0.058-0.086-0.088.04-.111,0.011-0.145-0.086a0.176,0.176,0,0,0,.058-0.057,4.254,4.254,0,0,1-.29-0.428,0.337,0.337,0,0,0,.2-0.143,0.753,0.753,0,0,0-.406-0.4,0.873,0.873,0,0,1-.754.143v0.086H1.594v0.086H1.478v0.086H1.391V25.037H1.275a0.166,0.166,0,0,0,0-.114,2.017,2.017,0,0,0-.551-0.228,1.492,1.492,0,0,1-.493-0.457,1.46,1.46,0,0,1,.812-2.14,2.264,2.264,0,0,1,.783-0.029L1.855,21.9A0.719,0.719,0,0,0,2,21.784H2.261a2.377,2.377,0,0,1,.464.428,5.706,5.706,0,0,1,.232.77C3,23.074,3.082,23.147,3.13,23.239a4.254,4.254,0,0,0,1.072.228V23.325c0.4-.061,1.266,0,1.855,0a6.3,6.3,0,0,1,.841,0h0.7c0.042,0.01.143,0.076,0.174,0.086a0.849,0.849,0,0,0,.406-0.057L8.9,23.325a3.769,3.769,0,0,1,.58-0.086c0.041-.4.024-1.038,0.058-1.512a3.065,3.065,0,0,1,1.014,0,3.416,3.416,0,0,0,.464.171,0.327,0.327,0,0,0,.174-0.057,3.022,3.022,0,0,1,.551.029c0.125-.012.374-0.082,0.522-0.114a2.033,2.033,0,0,1,1.13.143,5.714,5.714,0,0,0,.029,1,0.228,0.228,0,0,0,.232.086,0.182,0.182,0,0,1,.029-0.114v0.114a2.62,2.62,0,0,0,.348,0V22.868h0.058v0.114a0.272,0.272,0,0,0,.2-0.086,1.385,1.385,0,0,1,.261.114h2.522a6.791,6.791,0,0,0,1.1-.029v0.086a11.252,11.252,0,0,0,1.246-.029V22.754H16.435a6.107,6.107,0,0,0-1.681-.257,0.516,0.516,0,0,0-.087-0.114l0.058-.485a0.142,0.142,0,0,1-.087-0.029H14.609V21.841a0.2,0.2,0,0,0,.116-0.2,0.178,0.178,0,0,1-.174,0,1.547,1.547,0,0,1-.087-0.514c-0.041-.006.012,0.024-0.029,0.029-0.022.055-.029-0.057-0.029-0.057a0.979,0.979,0,0,1,.348-0.485,0.215,0.215,0,0,0,.116.114,0.97,0.97,0,0,1,.261-0.656,5.142,5.142,0,0,1,1.507-.171c0.029,0.09-.005.106,0.058,0.143V20.014a5.55,5.55,0,0,0,.58-0.713c0.339-.447.8-0.833,1.13-1.284,0.053-.072.106-0.17,0.058-0.2V17.788c0.039-.046.137-0.035,0.174-0.086,0.06-.082.087-0.193,0.116-0.228a4.073,4.073,0,0,1,.406-0.143,0.1,0.1,0,0,0,.029-0.057c-0.073-.011-0.046.017-0.058-0.086h0.377v-4.88a14.178,14.178,0,0,1,.029-2.4v-1.4A1.346,1.346,0,0,1,19.565,8v9.189Z" transform="translate(0 0.016)"/>
</svg>
