<svg xmlns="http://www.w3.org/2000/svg" width="39.969" height="40" viewBox="0 0 39.969 40">
  <defs>
    <style>
      .cls-1 {
        fill: #fff;
        fill-rule: evenodd;
      }
    </style>
  </defs>
  <path id="uk_centurion_mk_5_avre_era_ico" class="cls-1" d="M23.557,22.3a3.332,3.332,0,0,0,.348.063,1.352,1.352,0,0,1-.158-0.5,0.172,0.172,0,0,0,.095-0.252,0.187,0.187,0,0,0,.127-0.063,0.4,0.4,0,0,0,.032.126,6.065,6.065,0,0,1,.917.284h0.759v0.158l0.063-.032c0.053,0.09-.053.089,0.063,0.126a2.14,2.14,0,0,1,.316-0.032,0.441,0.441,0,0,1,.127.189l0.443,0.126a0.346,0.346,0,0,1,.063-0.095c0.013,0.113-.015.079,0.063,0.126,0.041,0,.04-0.032.127-0.063v0.032a0.16,0.16,0,0,0-.032.095c0.226,0.032.279,0.108,0.411,0v0.126a6.493,6.493,0,0,1,.854.252,0.12,0.12,0,0,1,.063-0.095v0.063a1.22,1.22,0,0,0-.063.315h0.032a0.452,0.452,0,0,1,.411-0.221,3.948,3.948,0,0,1,.759.694,0.655,0.655,0,0,0,.095.252h0.19a0.114,0.114,0,0,0,.063.032V23.941a0.548,0.548,0,0,1,.095-0.252,2.085,2.085,0,0,0,.759.032,11.873,11.873,0,0,0,2.055-.032v0.252a0.421,0.421,0,0,1,.253.063h2.308a0.9,0.9,0,0,1,.632-0.063v1.072a2.027,2.027,0,0,0-.38.095V25.045c-0.071-.038-0.167.008-0.253-0.032V24.95H32.885v0.095H32.632v0.221H32.569a2.085,2.085,0,0,0-.759-0.032,11.874,11.874,0,0,0-2.055.032l-0.032-.315H29.66a0.344,0.344,0,0,1-.19.032,0.309,0.309,0,0,1-.19.221c-0.026-.044-0.066-0.144-0.095-0.095a0.244,0.244,0,0,1-.095.095,0.193,0.193,0,0,0-.063-0.063,0.191,0.191,0,0,1-.158.126,0.674,0.674,0,0,0-.063-0.158H28.775V25.14a0.6,0.6,0,0,0-.095.126H28.648V25.234a0.6,0.6,0,0,1-.095-0.126H28.522v0.063a0.161,0.161,0,0,0-.032.095,1.546,1.546,0,0,0-.822.5,0.533,0.533,0,0,0-.411.158,0.408,0.408,0,0,1,0,.315h0.79c0.031-.128.037-0.145,0.19-0.158l0.032,0.095,0.538,0.063a0.332,0.332,0,0,1,.285-0.158h0.032l-0.032.158h0.095V26.149l0.095-.063a1.769,1.769,0,0,1,1.138.095,0.416,0.416,0,0,0-.032.221H30.7a0.511,0.511,0,0,1,.095-0.252,0.137,0.137,0,0,0,.095.095V26.212a1.244,1.244,0,0,0,.19-0.473,1.6,1.6,0,0,1,.316-0.252H32a1.544,1.544,0,0,1,.095.757c0.1,0.049,0,.018.063,0.095a0.263,0.263,0,0,0,.19.095,0.184,0.184,0,0,1,.19-0.032,0.264,0.264,0,0,0,.221.252,0.42,0.42,0,0,1,.221-0.032c0.029-.206.029-0.318,0.285-0.315a0.481,0.481,0,0,1,.063.284h0.285a1.219,1.219,0,0,1,.032-0.284h0.221c0.047,0.14.041,0.261,0.221,0.284a0.113,0.113,0,0,1,.063-0.032,0.385,0.385,0,0,1,.063-0.347,0.165,0.165,0,0,0,.095.158c0.017,0.018.125-.056,0.253-0.063a0.113,0.113,0,0,0,.063.032V26.4a0.329,0.329,0,0,1,0,.252,1.331,1.331,0,0,0,.316.032,0.5,0.5,0,0,1,.221-0.252,0.619,0.619,0,0,0,.126.063,0.5,0.5,0,0,1,.032.158,0.272,0.272,0,0,0-.032.158c0.188,0.081.2,0.159,0.19,0.442a0.113,0.113,0,0,0-.032.063,0.978,0.978,0,0,1,.538.441h0.063a3.35,3.35,0,0,1,.632-1.135,2.3,2.3,0,0,0,.38.315,0.713,0.713,0,0,1,.443-0.126c0-.123-0.016-0.142.063-0.189a0.162,0.162,0,0,1,.095-0.032c0.153,0.355.242,0.821,0.379,1.2a1.13,1.13,0,0,1,.032.347L38.988,29.4h0.348A1.929,1.929,0,0,0,40,29.46v0.032c-0.216.136-.374,0.376-0.6,0.5-0.117.066-.3,0.03-0.411,0.095a7.789,7.789,0,0,1-1.17.694c-0.524.2-1.1,0.3-1.613,0.473l-0.443.095a4.726,4.726,0,0,1-.474.315H35.257a0.732,0.732,0,0,0-.443.063v0.032c0.042,0.055.055,0.051,0.032,0.095s-0.09.058-.126,0.095a0.239,0.239,0,0,0-.19-0.063l-0.316.126c0.018,0.093.064,0.1-.032,0.158a0.371,0.371,0,0,1-.158.063,0.138,0.138,0,0,0-.095-0.095,3.826,3.826,0,0,0-.348.189c0.042,0.055.055,0.051,0.032,0.095a0.333,0.333,0,0,1-.221.095V32.423a0.773,0.773,0,0,0-.411.189c0.042,0.055.055,0.051,0.032,0.095a0.333,0.333,0,0,1-.221.095c-0.066-.154-0.384-0.012-0.411.158a0.113,0.113,0,0,1,.032.063,0.207,0.207,0,0,0-.158.063,1.1,1.1,0,0,0-.19-0.095,0.744,0.744,0,0,1-.316.158c0.018,0.093.064,0.1-.032,0.158a0.592,0.592,0,0,1-.158.095,0.123,0.123,0,0,0-.095-0.126c-0.077.071-.2,0.091-0.285,0.158-0.055.093,0.028,0.093-.063,0.158a0.372,0.372,0,0,1-.158.063,0.137,0.137,0,0,0-.095-0.095,0.694,0.694,0,0,1-.285.126,0.272,0.272,0,0,1-.095.189,0.343,0.343,0,0,1-.19.032V33.779H30.261a0.9,0.9,0,0,1-.411.063v0.126H29.6V33.842H29.186c-0.031.145-.026,0.132-0.253,0.126-0.067-.172-0.132-0.141-0.443-0.126v0.126H28.269a0.091,0.091,0,0,0-.032-0.032V33.842H27.826v0.126H27.573V33.842H27.162c-0.031.145-.026,0.132-0.253,0.126V33.842H26.466v0.126H26.213V33.842H25.8c-0.031.145-.026,0.132-0.253,0.126V33.842H25.138c-0.031.145-.026,0.132-0.253,0.126V33.842H24.443v0.126H24.221V33.842H23.779v0.126H23.526V33.842H23.115c-0.031.145-.026,0.132-0.253,0.126V33.842H22.451c-0.031.145-.026,0.132-0.253,0.126V33.842H21.755v0.126H21.5V33.842H21.091v0.126H20.838V33.842H20.427c-0.031.145-.026,0.132-0.253,0.126V33.842H19.731v0.126H19.51c-0.065-.183-0.136-0.134-0.443-0.126v0.126H18.814V33.842H18.4c-0.031.145-.026,0.132-0.253,0.126V33.842H17.708v0.126H17.486V33.842H17.044v0.126H16.791V33.842H16.379v0.126H16.127V33.842H15.715c-0.031.145-.026,0.132-0.253,0.126-0.065-.183-0.136-0.134-0.443-0.126v0.126H14.8c-0.065-.183-0.136-0.134-0.443-0.126v0.126H14.1V33.842H13.692c-0.031.145-.026,0.132-0.253,0.126V33.842H13.028C13,33.987,13,33.974,12.775,33.969c-0.065-.183-0.136-0.134-0.443-0.126v0.126H12.079V33.842H11.668v0.126H11.415V33.842H11c-0.031.145-.027,0.132-0.253,0.126V33.842H10.308v0.126H10.055V33.842H9.644c-0.031.145-.026,0.132-0.253,0.126V33.842H8.98c-0.038.137-.077,0.133-0.253,0.126V33.842H8.285v0.126H8.032V33.842l-0.411-.063v0.032H7.589v0.095a1.659,1.659,0,0,1-.253-0.063c0-.136.045-0.111-0.032-0.158a0.842,0.842,0,0,0-.348-0.158c-0.013.113,0.015,0.079-.063,0.126a0.377,0.377,0,0,0-.19-0.095c0.018-.093.064-0.1-0.032-0.158a0.652,0.652,0,0,0-.316-0.126,0.137,0.137,0,0,1-.095.095A0.371,0.371,0,0,0,6.1,33.306c0-.136.045-0.111-0.032-0.158a0.842,0.842,0,0,0-.348-0.158,0.4,0.4,0,0,1-.032.126,1.041,1.041,0,0,1-.221-0.095c-0.066-.091.1-0.066-0.032-0.158a0.653,0.653,0,0,0-.316-0.126,0.137,0.137,0,0,1-.095.095,1,1,0,0,0-.19-0.095c0.016-.07.036-0.062,0-0.126-0.076-.069-0.208-0.088-0.285-0.158a1.1,1.1,0,0,1-.19.095c-0.042-.039-0.113-0.058-0.158-0.095a0.225,0.225,0,0,0,.063-0.126A2.615,2.615,0,0,0,3.858,32.2a0.346,0.346,0,0,1-.063.095,0.371,0.371,0,0,0-.158-0.063c-0.03-.11.03-0.133-0.095-0.189a0.682,0.682,0,0,0-.379-0.063,0.584,0.584,0,0,1-.19-0.095C3,31.816,3.029,31.806,3,31.761a3.161,3.161,0,0,1-.6-0.378c0.071-.052.1-0.054,0.063-0.126A0.688,0.688,0,0,0,2.15,30.91a0.463,0.463,0,0,1-.063-0.221,0.153,0.153,0,0,0,.095-0.032,0.114,0.114,0,0,0,.032-0.063A0.16,0.16,0,0,1,2.182,30.5l-0.759-.221c-0.047.186-.177,0.172-0.411,0.158A2.851,2.851,0,0,1,.6,30.153c0.107-.03.1-0.012,0.126-0.126C0.543,29.99.562,29.878,0.379,29.838a0.93,0.93,0,0,1-.316.063V29.838a0.192,0.192,0,0,0,.063-0.063,0.246,0.246,0,0,1-.063-0.347,4.1,4.1,0,0,1,.379-0.536A0.172,0.172,0,0,0,.664,28.86a1.056,1.056,0,0,0,.158-0.284L0.949,28.64a1.468,1.468,0,0,0-.063.473,0.109,0.109,0,0,1,.063.032,0.827,0.827,0,0,0,.379-0.252,0.331,0.331,0,0,0-.19-0.063l-0.032-.252a1.7,1.7,0,0,0,.316-0.189H1.391c-0.013-.062.049-0.023,0-0.063L1.36,28.23a0.6,0.6,0,0,1-.221,0V28.135a1.949,1.949,0,0,0,.032-0.441A3.57,3.57,0,0,0,.7,27.6c-0.021.027-.042,0.1-0.063,0.126L0.7,27.189c-0.111-.019-0.12,0-0.158-0.063,0.179,0,.236-0.022.253-0.189a0.369,0.369,0,0,1-.063-0.158,0.35,0.35,0,0,1-.221-0.063c0.013-.062.012-0.152,0.032-0.252a0.294,0.294,0,0,0,.126-0.095c0.061,0.046.069,0.1,0.126,0.063a0.61,0.61,0,0,0,.158-0.158A0.427,0.427,0,0,1,.727,25.8a0.113,0.113,0,0,0,.032-0.063c0.137-.06.269-0.039,0.411-0.095,0.087-.034.254-0.162,0.348-0.189a4.409,4.409,0,0,0,.6-0.032,2.685,2.685,0,0,1,.727-0.158L2.877,25.36a0.311,0.311,0,0,1,.032.252H3.162a0.518,0.518,0,0,1,.126-0.221c0,0.119-.015.111,0.063,0.158v-0.5a14.861,14.861,0,0,1,2.53.032c0.346,0.078.8-.038,1.107,0.032,0.346,0.078.8-.038,1.107,0.032L10.941,25.2l2.5,0.315v0.095h1.012a0.332,0.332,0,0,1,.032-0.189v0.189h0.7a2.73,2.73,0,0,0-.253-0.662H14.64a2.137,2.137,0,0,0-.569-0.063c-0.559-.123-1.11.007-1.644-0.095a0.557,0.557,0,0,1-.063-0.315c-0.646-.006-1.488-0.048-2.087-0.095a0.846,0.846,0,0,1-.379-0.5,0.161,0.161,0,0,1-.032-0.095H9.739a6.118,6.118,0,0,1-.032-1.608,0.846,0.846,0,0,1,.443-1.482,0.917,0.917,0,0,1,.348-0.063,2.536,2.536,0,0,1,.885.347,0.854,0.854,0,0,0,.316.221,0.991,0.991,0,0,1,.917.126,1.423,1.423,0,0,1,1.012-.158,3.741,3.741,0,0,0,.6.6,0.885,0.885,0,0,1,.664.063,1.1,1.1,0,0,1,.095-0.347V17.793a6.615,6.615,0,0,1,.032-1.545v5.234a0.863,0.863,0,0,1,.095.347,1.24,1.24,0,0,0,.411.063,0.088,0.088,0,0,1,.032-0.032V21.766H15.81v0.126h0.063V21.23a4.434,4.434,0,0,0,.664-0.158,1.684,1.684,0,0,0,.032-0.473,2.273,2.273,0,0,0,.6-0.063,1.5,1.5,0,0,1,.506.063V20.536a0.193,0.193,0,0,1-.063-0.063c0.155-.147,0-0.2.348-0.189a0.4,0.4,0,0,1,.032-0.126H17.644V20.126a1.426,1.426,0,0,1-.032-0.568,0.161,0.161,0,0,1-.032-0.095h-0.19v0.158H17.265a0.09,0.09,0,0,0-.032-0.032V19.5H17.075l-0.095.252c-0.063,0-.009-0.032-0.063,0-0.064.052,0.022,0.037-.063,0.063a0.166,0.166,0,0,0-.19,0V19.559H16.379a1.424,1.424,0,0,0,0-.315H16.19a0.089,0.089,0,0,1-.032.032l-0.063.378H15.937a0.677,0.677,0,0,1-.032-0.221,0.394,0.394,0,0,0,.127-0.347h0.348a0.3,0.3,0,0,1,.348-0.315,2.691,2.691,0,0,0,1.391.189V18.8h0.063v0.284h2.435v0.189c-0.8.011-1.739,0.031-2.5,0.032a1.232,1.232,0,0,0,0,.315,0.537,0.537,0,0,1,.221.5H18.245v0.158h0.411a0.329,0.329,0,0,0,.158.189c-0.025.054-.083,0.058-0.032,0.095a2.509,2.509,0,0,0,.917.032l0.032-.662h0.316v0.189h0.063v0.946c0.224,0.024.36,0.108,0.569,0.126V17.225a6.267,6.267,0,0,1,.032-1.482V21.23a3.525,3.525,0,0,0,.727.347c0.06-.052.183-0.048,0.253-0.095a0.212,0.212,0,0,0,.032-0.126h0.759a0.09,0.09,0,0,0,.032.032,0.483,0.483,0,0,0,.127.378,0.214,0.214,0,0,0,.127.032c0.024-.083.038-0.075,0.063-0.158a0.181,0.181,0,0,1-.063-0.189,0.189,0.189,0,0,0,.158-0.158c-0.026-.034.032-0.722,0.032-1.009V6H23.02V21.009h0.032a0.307,0.307,0,0,1,.316-0.158,0.542,0.542,0,0,1,.19.189,2.4,2.4,0,0,1-.095.473A6.68,6.68,0,0,1,23.557,22.3Zm-5.913-2.113a0.114,0.114,0,0,1,.032.063H17.644V20.189ZM0.727,26.212a0.114,0.114,0,0,1,.032.063H0.727V26.212Zm0.19,1.482a0.493,0.493,0,0,1,.063.158c-0.078.041-.022-0.014-0.063,0.063a0.113,0.113,0,0,1-.032-0.063c-0.039-.05-0.02-0.016,0-0.063Z" transform="translate(-0.031)"/>
</svg>
