<svg xmlns="http://www.w3.org/2000/svg" width="80" height="40" viewBox="0 0 80 40">
  <defs>
    <style>
      .cls-1 {
        fill: #fff;
        fill-rule: evenodd;
      }
    </style>
  </defs>
  <path id="uk_cruiser_kent_ico" class="cls-1" d="M50.164,9a0.428,0.428,0,0,1,.041.456Zm-27.7.041a0.122,0.122,0,0,1,0,.166V9.041ZM22.5,9.207a0.221,0.221,0,0,1,0,.249V9.207Zm0.041,0.249a0.168,0.168,0,0,1,0,.207V9.456Zm27.7,0a0.221,0.221,0,0,1,0,.249V9.456Zm-27.664.207a0.221,0.221,0,0,1,0,.249V9.663ZM50.287,9.7a0.281,0.281,0,0,1,0,.29V9.7ZM25.369,23.625v0.456H25.7a14.094,14.094,0,0,1,1.025-1.16,0.781,0.781,0,0,1,.574-0.5V22.217H27.7a3.456,3.456,0,0,1-.123-0.663,0.2,0.2,0,0,1,.041-0.124,1.635,1.635,0,0,1,.287-0.042,0.292,0.292,0,0,0,.287.083V21.429c0.041-.041.041,0.041,0.041,0.041a1.39,1.39,0,0,1,.041.58H28.115v0.166H28.2a1.893,1.893,0,0,0,.943,0V22.009a0.63,0.63,0,0,1-.328-0.041h0.246a1.312,1.312,0,0,0-.041-0.414h0.328v-0.58a0.757,0.757,0,0,1,.574.124,0.662,0.662,0,0,1,.041-0.58,0.381,0.381,0,0,1,.41-0.124,0.749,0.749,0,0,0,.287.124,4.441,4.441,0,0,1,.041.539h-0.2v0.083a1.923,1.923,0,0,1,.041.29H30.9a1.147,1.147,0,0,1,.041-0.456h0.164a0.48,0.48,0,0,1,.328,0v0.456H31.6v0.041a1.9,1.9,0,0,0-.041.746,0.638,0.638,0,0,0,.2.041V21.927h0.123l-0.041.331h0.082a3.2,3.2,0,0,0,.369,0v0.456h0.041a0.866,0.866,0,0,1,.41-0.041,4.488,4.488,0,0,1,.041-0.829h0.287c0.185-.116.552,0.057,0.779-0.041a0.628,0.628,0,0,1,.246-0.166v-0.5a3.688,3.688,0,0,1-.861-0.041,0.746,0.746,0,0,0-.123-0.166c0.092-.292.112-0.528,0.492-0.539a2.285,2.285,0,0,1,.246.166,0.619,0.619,0,0,0,.164.29,10.015,10.015,0,0,1,1.434-.29,0.812,0.812,0,0,0,.082-0.166,0.263,0.263,0,0,1-.164-0.041c0.277-.011.453-0.1,0.656-0.083a0.768,0.768,0,0,1,.041.249l0.615,0.041V20.477a0.482,0.482,0,0,1-.041-0.456c0.017,0.161.132,0.656,0.123,0.663-0.134.191-.559,0.29-0.615,0.414a0.652,0.652,0,0,0,.656.332,0.385,0.385,0,0,1,.41.041H37.172v0.041a4.384,4.384,0,0,1-.656.249V21.8h1.066a0.2,0.2,0,0,0,.041.124,0.234,0.234,0,0,1,.246-0.083,1.045,1.045,0,0,1,.041.331,0.662,0.662,0,0,1,.041.331,0.263,0.263,0,0,1,.164.041,0.326,0.326,0,0,0-.246.124V22.548h-0.41v0.207H37.377V22.548h-0.41v0.207c-0.093-.017-0.044-0.038-0.123,0a4.2,4.2,0,0,1,0,.787h1.311v0.249H38.32V23.667h0.246c0.034,0.134-.02.063,0.082,0.124V23.584a7.4,7.4,0,0,1-.246-1.533c-0.136-.556-0.141-1.183-0.287-1.781a7.333,7.333,0,0,1-.246-1.533,0.2,0.2,0,0,1-.123-0.041h0.082a0.224,0.224,0,0,1,.246-0.124,0.53,0.53,0,0,0-.041-0.166h0.082a0.117,0.117,0,0,0,.041.041l-0.041.124h0.369a0.71,0.71,0,0,0-.041-0.249h0.123v0.041a0.361,0.361,0,0,0-.041.207,0.861,0.861,0,0,0,.574-0.083c0.026,0.162.028,0.159,0.164,0.207v0.041c-0.133.034-.063-0.02-0.123,0.083a3.961,3.961,0,0,1,.246,1.326h0.041V20.1c0.088-.114.031-0.161,0.2-0.207-0.141,1.116.345,2.238,0.41,3.356a5.675,5.675,0,0,0,.656.041c0.143-.454.827-0.4,1.352-0.332A0.117,0.117,0,0,0,42.09,23v0.124a0.2,0.2,0,0,1,.123.041,0.872,0.872,0,0,1,.041.29,0.46,0.46,0,0,1,.123.124,0.156,0.156,0,0,0-.123.083,0.2,0.2,0,0,1,.123.041H42.254v0.663h0.123v0.083a0.41,0.41,0,0,1,0,.331h0.164a1.166,1.166,0,0,0,.246,0,8.7,8.7,0,0,0-.328-3.066,6.951,6.951,0,0,0-.369-1.782,0.575,0.575,0,0,1,.164-0.041c0.046,0.119.007,0.076,0.123,0.124v-0.29a2.635,2.635,0,0,1-.164-0.994,0.2,0.2,0,0,1-.123-0.041,0.374,0.374,0,0,0,.2-0.207c0.06,0.1.018,0.064,0.164,0.083V18.488a0.14,0.14,0,0,1-.082-0.041H42.5v0.124c0.458,0,.511.006,1.025,0,0-.12-0.039-0.057,0-0.124a0.642,0.642,0,0,1,.328-0.041c0.048,0.11-.037.074,0.082,0.124a0.215,0.215,0,0,0,.287-0.041c0.019,0.172.013,0.139,0.123,0.207a2.906,2.906,0,0,0,.2,1.326c0.05-.128.015-0.094,0.164-0.124a10.425,10.425,0,0,0,.369,2.9,2.284,2.284,0,0,0,.2,1.077,1.7,1.7,0,0,0,.574-0.29,0.251,0.251,0,0,1-.082-0.083,0.529,0.529,0,0,0,.164-0.207H46.23c0.213-.142,0-0.317.451-0.332a0.449,0.449,0,0,1,.246,0L47.049,23l-0.041.124c0.188,0.034.1,0.1,0.2,0.166h0.246v0.083c0.029,0.028.059,0.089,0.123,0.166a0.366,0.366,0,0,0-.123.124h0.41a12.672,12.672,0,0,0-.369-2.2,5.939,5.939,0,0,0-.328-1.533,0.575,0.575,0,0,1,.164-0.041c0.053,0.1-.018.028,0.082,0.083V19.814a2.5,2.5,0,0,1-.164-1.077,0.242,0.242,0,0,0-.164.083V18.695a2.279,2.279,0,0,1,.779-0.124,0.71,0.71,0,0,0-.041-0.249h0.123v0.041H47.91c-0.079.032,0.082,0.041,0.082,0.041a2.911,2.911,0,0,1,.369-0.166,0.455,0.455,0,0,0,.287.456v0.041c-0.133.034-.063-0.02-0.123,0.083a18.546,18.546,0,0,1,.451,2.445l0.2-.083v0.083a0.2,0.2,0,0,0-.123.041,2.021,2.021,0,0,1,.041.912c0.107,0.016.054-.031,0.082,0.083a0.363,0.363,0,0,0-.041.207c0.057,0.009-.017-0.034.041-0.041,0.032-.08.041,0.083,0.041,0.083a0.363,0.363,0,0,0-.041.207c0.057,0.009-.017-0.034.041-0.041,0.032-.08.041,0.083,0.041,0.083a0.361,0.361,0,0,0-.041.207c0.057,0.009-.017-0.034.041-0.041,0.032-.08.041,0.083,0.041,0.083-0.029.064-.005,0.006,0,0.124,0.313-.019.907,0.041,1.393,0.041v0.083h-0.82a0.94,0.94,0,0,1-.287.083,0.756,0.756,0,0,1,0,.29h0.041v0.041a0.973,0.973,0,0,0,.369,0,0.71,0.71,0,0,0,.041.249,0.14,0.14,0,0,0,.082-0.041,0.364,0.364,0,0,0,.082-0.373c0.544-.028.915-0.021,1.475,0V23.211h0.246l-0.041-.373h0.082c0.063-.029.006-0.005,0.123,0v0.249a0.213,0.213,0,0,0-.041.124H52.3v0.207a0.2,0.2,0,0,1,.123.041H52.3a2.107,2.107,0,0,0-.082.29,0.256,0.256,0,0,0,.2-0.083c0.012,0.13,0,.114.041,0.124,0.093,0.017.044,0.038,0.123,0h0.041c-0.182-.721-0.122-1.666-0.328-2.486-0.147-.583-0.153-1.421-0.328-2.154a6.45,6.45,0,0,1-.2-1.326,0.262,0.262,0,0,1-.164-0.041h0.123a3.179,3.179,0,0,0-.246-1.2c-0.052-.094.12-0.226-0.041-0.331a0.274,0.274,0,0,1-.164.041,12.4,12.4,0,0,0-.164-1.326,0.2,0.2,0,0,1-.123-0.041,4.226,4.226,0,0,0-.082-1.367c-0.148-.645-0.114-1.359-0.287-2.03a9.342,9.342,0,0,1-.287-1.533,0.583,0.583,0,0,0,.2-0.041v0.083a4.586,4.586,0,0,0,.082.829,0.2,0.2,0,0,1,.123.041,1.348,1.348,0,0,0,0,.746c0.182,0.689.218,1.558,0.41,2.237a1.615,1.615,0,0,0,.2.953,0.423,0.423,0,0,1,.246-0.083,3.666,3.666,0,0,0,.082-0.414,0.629,0.629,0,0,1-.328-0.041l0.369-.041L51.762,14.8H51.516a0.812,0.812,0,0,0,.123.373c-0.107.012-.081,0-0.082,0.207a3.683,3.683,0,0,1,.164.911,0.567,0.567,0,0,0,.246-0.083l-0.041.083h0.041a0.439,0.439,0,0,1-.246.041c0.335,2.235.741,4.983,1.107,7.209a1.181,1.181,0,0,0,.369.083V23.542a0.614,0.614,0,0,0,.041-0.332,0.782,0.782,0,0,1-.2-0.787h0.2V22.175c-0.245-.133-0.264-0.261-0.246-0.663H52.951V21.471H53.2q0.021-.7.041-1.409H53.2V20.021H53.074a3.8,3.8,0,0,1,.041-1.367,1.5,1.5,0,0,0,.041.621,0.147,0.147,0,0,1,.082-0.041,1.124,1.124,0,0,1,.041-0.5v0.5h0.533V18.819h0.041V18.778c0.429,0,.646-0.081.9-0.083,0.04,0.092.2,0.183,0.123,0.249a0.3,0.3,0,0,0-.082.29H55.41v0.041a5.881,5.881,0,0,0-.041,1.492h0.082a4.607,4.607,0,0,1,.533,0v0.083a1.93,1.93,0,0,0-.574.041c-0.028.246,0.009,0.456,0,.621h0.574V21.1a1.364,1.364,0,0,1,.41-0.166c0.06,0.105-.009.047,0.123,0.083a0.427,0.427,0,0,1,.164-0.249v0.124a1.056,1.056,0,0,0-.041.166h0.082a1.4,1.4,0,0,1,.246.041,0.233,0.233,0,0,1,.123-0.249c0,0.162-.02.186,0.082,0.249,0.067-.1,0-0.018.123,0a0.27,0.27,0,0,1,.041-0.166V21.1h0.123a0.446,0.446,0,0,1,.164.332c-0.39.251-.3,0.972-0.287,1.616a0.349,0.349,0,0,0-.287.29c0.154,0.072.092,0.044,0.082,0.249a0.978,0.978,0,0,1,.328.041v0.083l-0.287.207a0.118,0.118,0,0,0,.041.041c0.083,0.142.18,0.135,0.41,0.124,0.088-.137.076,0.012,0.164-0.124a1.114,1.114,0,0,0,.164-0.29,1.064,1.064,0,0,1,.246.29,0.711,0.711,0,0,1,.451-0.166V24a1.637,1.637,0,0,1,.492.083l-0.041-.29a1.378,1.378,0,0,1,.328.041v0.041a0.363,0.363,0,0,0-.041.207h0.164V23.75H59.59a0.274,0.274,0,0,0,.164.041V23.584l-0.984.083V22.59a19.311,19.311,0,0,1,2.336.041v-0.29c0.133,0.034.063-.02,0.123,0.083-0.078.049-.05,0-0.041,0.083a0.933,0.933,0,0,0,.7.249c0.084,0.035.179,0.179,0.246,0.207a14.118,14.118,0,0,0,2.7.041v0.249H62.3a2,2,0,0,1-.041.5H62.5a0.992,0.992,0,0,1-.041.331h0.287a0.762,0.762,0,0,1,.041-0.373,0.27,0.27,0,0,0,.041.166c0.154-.184.318-0.023,0.451,0.041V23.708h0.287l-0.041.373a0.616,0.616,0,0,1,.2.166c0.094-.109.14-0.072,0.287-0.041v0.083a0.363,0.363,0,0,1,.041.207,0.47,0.47,0,0,1-.287.083,0.147,0.147,0,0,0-.082-0.041v0.414h0.287a0.712,0.712,0,0,0,.123.29h0.943c-0.021-.183-0.058-0.149-0.082-0.331H65.2l-0.041.331h0.082a0.641,0.641,0,0,1,.328-0.041V24.62l-0.984.124V23.667a14.613,14.613,0,0,1,2.336,0V23.418a0.2,0.2,0,0,1,.123.041c-0.12.077-.062,0.088-0.041,0.249a1.978,1.978,0,0,1,.779.124c0.062,0.032.146,0.182,0.2,0.207h2.664v0.249H68.115a3.211,3.211,0,0,1-.041.539l0.082-.041c0.069,0.118-.068.117,0.082,0.166V24.827h0.246a0.6,0.6,0,0,1-.041.207h0.082a0.994,0.994,0,0,1,.492-0.083c0.055-.226.168-0.223,0.451-0.207a1.384,1.384,0,0,1,.246.083l0.041-.083a1.01,1.01,0,0,0,.369.041l0.041-.124a2.929,2.929,0,0,0,.41.041,0.46,0.46,0,0,0,.123.414V24.993c0.672,0,.811.082,1.516,0.083a1.14,1.14,0,0,1,.123-0.249v0.124h0.123A0.649,0.649,0,0,1,72.5,24.62v0.124h0.328a0.209,0.209,0,0,0,.082.207h0.082a0.6,0.6,0,0,0-.041-0.207,0.3,0.3,0,0,0,.328-0.166,0.83,0.83,0,0,0,.082.331h0.082V24.7h0.246v0.249h0.164a0.484,0.484,0,0,0,0-.249H74.1c0.034,0.134-.02.063,0.082,0.124a0.148,0.148,0,0,1,.082-0.041,0.441,0.441,0,0,1,.041-0.249v0.29a6.856,6.856,0,0,0,.779.083,2.212,2.212,0,0,1,.943-0.083,5.6,5.6,0,0,0,1.188-.083v0.083a1.011,1.011,0,0,0,.492-0.041A12.261,12.261,0,0,1,79.18,24.7V24.578a0.582,0.582,0,0,0,.2-0.041V24.7a0.2,0.2,0,0,0,.123-0.041,4.42,4.42,0,0,0,.369-2.362h0.082v0.042c-0.241.4,0.106,2.067,0,2.569-0.408,1.924-.238,4.072-0.615,6.008H63.238a3.06,3.06,0,0,1-1.107.041H48.443L8.566,31a1.122,1.122,0,0,0-1.27-.456,0.2,0.2,0,0,1-.164.207,5.759,5.759,0,0,0-.984-0.622H5.533v0.041a0.791,0.791,0,0,1,.123.663,1.059,1.059,0,0,1-.533.083,4.213,4.213,0,0,1-1.639-.041,3.383,3.383,0,0,1-.164-1.367,0.178,0.178,0,0,1,.164-0.166,2.016,2.016,0,0,1,1.311.166V29.26a14.307,14.307,0,0,1-2.787-.29,8.071,8.071,0,0,1-1.23-.124,2.059,2.059,0,0,1-.656-0.622,9,9,0,0,1,.246-1.616H0.328V26.567a0.8,0.8,0,0,1-.246,0A2.927,2.927,0,0,1,.041,25.49H0.123l0.7-.248A1.123,1.123,0,0,0,.7,24.868,0.252,0.252,0,0,1,.738,24.7a0.608,0.608,0,0,0-.082-0.248C0.65,24.432.7,24.213,0.7,24.122H0.738c0,0.55.111,0.576,0.123,1.119,0.718,0,1.2,0,1.885,0,0.07-.143.073-0.159,0.287-0.166a1.159,1.159,0,0,0,.246,0,0.653,0.653,0,0,0,.738.207,0.88,0.88,0,0,1,.041-0.414v0.414h0.2l-0.041-.207H5a0.2,0.2,0,0,1,.041-0.124,1.208,1.208,0,0,1,0,.331h1.8v-0.29H7.09v0.041a0.453,0.453,0,0,0-.041.249h0.2a1.949,1.949,0,0,1,.123-0.621c0.043,0.093.117,0.088,0.328,0.083a0.438,0.438,0,0,1,.123-0.456V24.33a0.627,0.627,0,0,0-.082.414,2.5,2.5,0,0,0,.7.041,8.776,8.776,0,0,0,2.254-.041,1.091,1.091,0,0,1-.328.539h0.984a0.65,0.65,0,0,1,.041-0.331v0.331h0.615a1.464,1.464,0,0,1,.082-0.7,0.881,0.881,0,0,0,.041.414,0.44,0.44,0,0,1,.246-0.041c-0.021.183-.058,0.149-0.082,0.331h0.492c0-.443-0.043-0.652-0.041-0.994L10.2,24.247V24.04h2.664l0.082-.124a1.891,1.891,0,0,1,.943-0.207,0.369,0.369,0,0,0-.082-0.29h0.123v0.249h0.082a1.475,1.475,0,0,1,.615,0H16.27v1.077l-0.984-.124v0.622h0.164a1.4,1.4,0,0,1-.082-0.373H15.7l-0.041.373c0.35,0,.691.009,0.984,0.041a1.765,1.765,0,0,1,.082-0.787,1.882,1.882,0,0,0,.041.746,0.41,0.41,0,0,1,.369-0.083c0.052,0.12-.047.085,0.123,0.124,0-.5,0-0.674,0-1.2H17.5l-0.041-.7h0.328c-0.011.27-.08,0.382-0.082,0.7h0.328c-0.014-.216-0.064-0.2-0.082-0.414H18.2v0.414A0.357,0.357,0,0,0,18.566,24a3.367,3.367,0,0,0,0-.87H16.025V22.88h2.7c0.027-.015.089-0.145,0.123-0.166a1.848,1.848,0,0,1,.861-0.166,0.842,0.842,0,0,0-.041-0.29h0.082L19.8,22.507a1.162,1.162,0,0,1,.287-0.041,9.625,9.625,0,0,0,2.008.041v1.077l-0.984-.124v0.622h0.328a0.88,0.88,0,0,1,.041-0.414v0.414h0.7c0-.426.059-0.694,0.041-1.119h0.451a2.42,2.42,0,0,0-.041.622c0.321-.014.561,0,0.9,0V23.128h0.082v0.953h0.369a2.346,2.346,0,0,0,0-.373,0.344,0.344,0,0,1-.123-0.332H24.18c0.225,0.271.462,0.152,0.451,0.7h0.246a16,16,0,0,0-.533-3.19,9,9,0,0,0-.369-1.823,0.653,0.653,0,0,0,.041-0.249c-0.083-.247-0.1-0.759-0.2-1.16-0.226-.876-0.322-1.7-0.533-2.776a0.575,0.575,0,0,1,.164-0.041,0.148,0.148,0,0,0,.082.041,16.439,16.439,0,0,0-.492-2.61c-0.143-.481-0.064-0.886-0.164-1.284a5.158,5.158,0,0,1-.246-1.077h0.041c0.072,0.117.047,0.071,0.164,0.041a0.7,0.7,0,0,0,.164.58c0.041,0.029.164,0.053,0.2,0.083-0.165-.005-0.224-0.023-0.287.083a7.6,7.6,0,0,1,.328,1.74c0.331,1.333.539,2.589,0.738,3.812-0.147.017-.1-0.02-0.164,0.083a1.029,1.029,0,0,0,.123.58,4.636,4.636,0,0,0,.123,1.2c0.295,1.182.4,2.507,0.7,3.687a7.637,7.637,0,0,0,.328,1.782,1.112,1.112,0,0,1,.738.041H25.369Zm-1.639-9.4c0.1,0.06.046-.009,0.082,0.124H23.73V14.22Zm-2.418,1.036c0.046,0.069.073,0.044,0,.083V15.256Zm30.41,0a0.16,0.16,0,0,1,.082.124H51.762V15.339A0.15,0.15,0,0,1,51.721,15.256Zm-30.451.083a0.151,0.151,0,0,1,.041.083H21.271V15.339Zm0.123,0h0.082V15.38A0.14,0.14,0,0,1,21.393,15.339Zm0.082,0.041h0.082v0.041A0.14,0.14,0,0,1,21.475,15.38ZM21.6,15.463H21.68V15.5A0.14,0.14,0,0,1,21.6,15.463ZM21.68,15.5h0.082v0.041A0.14,0.14,0,0,1,21.68,15.5Zm0.082,0.041,0.123,0.042v0.041A0.156,0.156,0,0,1,21.762,15.546Zm0.123,0.083h0.082V15.67A0.14,0.14,0,0,1,21.885,15.629Zm0.082,0.041,0.123,0.041v0.041A0.156,0.156,0,0,1,21.967,15.67Zm0.123,0.083h0.082v0.041A0.14,0.14,0,0,1,22.09,15.753Zm0.082,0.041h0.082v0.041A0.14,0.14,0,0,1,22.172,15.795ZM22.3,15.878h0.082v0.041A0.14,0.14,0,0,1,22.3,15.878Zm0.082,0.041h0.082v0.041A0.14,0.14,0,0,1,22.377,15.919ZM22.5,16h0.082v0.041A0.14,0.14,0,0,1,22.5,16Zm0.082,0.041h0.082v0.041A0.139,0.139,0,0,1,22.582,16.043Zm0.082,0.041,0.123,0.041v0.041A0.156,0.156,0,0,1,22.664,16.085Zm0.123,0.083h0.082v0.041A0.14,0.14,0,0,1,22.787,16.168Zm0.082,0.041,0.123,0.041v0.041A0.156,0.156,0,0,1,22.869,16.209Zm0.123,0.083h0.082v0.041A0.14,0.14,0,0,1,22.992,16.292Zm0.082,0.041L23.2,16.375v0.041A0.156,0.156,0,0,1,23.074,16.333ZM23.2,16.416h0.082v0.041A0.14,0.14,0,0,1,23.2,16.416Zm0.082,0.041h0.082V16.5A0.14,0.14,0,0,1,23.279,16.458ZM23.4,16.541h0.082v0.041A0.14,0.14,0,0,1,23.4,16.541Zm29.672,1.781a0.221,0.221,0,0,1,0,.249V18.322ZM38.2,18.364a0.263,0.263,0,0,1,.164.041C38.238,18.413,38.118,18.5,38.2,18.364Zm0.451,0h0.164v0.083H38.771C38.739,18.418,38.679,18.392,38.648,18.364Zm8.935,0a0.262,0.262,0,0,1,.164.041C47.623,18.413,47.5,18.5,47.582,18.364Zm-4.959.041a0.63,0.63,0,0,1,.328.041C42.668,18.459,42.679,18.526,42.623,18.4Zm0.451,0h0.082v0.041A0.14,0.14,0,0,1,43.074,18.4Zm4.344,0,0.123,0.041v0.041A0.156,0.156,0,0,1,47.418,18.4Zm-4.467.041h0.082v0.041A0.14,0.14,0,0,1,42.951,18.446Zm1.025,0a0.2,0.2,0,0,1,.123.041A0.2,0.2,0,0,1,43.975,18.446Zm7.746,0.29a0.2,0.2,0,0,1,.123.041A0.2,0.2,0,0,1,51.721,18.736Zm0.041,0.29a0.2,0.2,0,0,1,.123.041A0.2,0.2,0,0,1,51.762,19.026Zm-27.7.953a0.2,0.2,0,0,1,.123.041A0.2,0.2,0,0,1,24.057,19.979Zm27.828,0a0.2,0.2,0,0,1,.123.041A0.2,0.2,0,0,1,51.885,19.979Zm-15.164.787a1.385,1.385,0,0,1,.123.539H36.8V21.264A0.86,0.86,0,0,1,36.721,20.767Zm-12.541.166a0.2,0.2,0,0,1,.123.041A0.2,0.2,0,0,1,24.18,20.932Zm27.828,0a0.2,0.2,0,0,1,.123.041A0.2,0.2,0,0,1,52.008,20.932Zm-18.238.249h0.082v0.041A0.14,0.14,0,0,1,33.771,21.181Zm-9.549.041a0.2,0.2,0,0,1,.123.041A0.2,0.2,0,0,1,24.221,21.222Zm27.787,0a0.262,0.262,0,0,1,.164.041A0.262,0.262,0,0,1,52.008,21.222Zm-51.639.539a0.281,0.281,0,0,1,0,.29v-0.29Zm0.041,0.29a0.282,0.282,0,0,1,0,.29v-0.29Zm23.934,0.124a0.2,0.2,0,0,1,.123.041A0.2,0.2,0,0,1,24.344,22.175Zm27.787,0a0.2,0.2,0,0,1,.123.041A0.2,0.2,0,0,1,52.131,22.175Zm-51.68.166a0.281,0.281,0,0,1,0,.29v-0.29Zm23.934,0.124h0.082v0.041H24.385V22.465Zm27.787,0h0.082v0.041A0.14,0.14,0,0,1,52.172,22.465Zm-51.68.166a0.281,0.281,0,0,1,0,.29v-0.29Zm0.041,0.29a0.281,0.281,0,0,1,0,.29v-0.29Zm23.975,0.207H24.59V23.17A0.14,0.14,0,0,1,24.508,23.128Zm27.787,0h0.082V23.17A0.14,0.14,0,0,1,52.3,23.128Zm-51.721.124a0.281,0.281,0,0,1,0,.29v-0.29Zm23.893,0.166a0.2,0.2,0,0,1,.123.041A0.2,0.2,0,0,1,24.467,23.418Zm-23.852.124a0.281,0.281,0,0,1,0,.29v-0.29Zm0.041,0.29a0.281,0.281,0,0,1,0,.29v-0.29Zm7.172,0.58a0.15,0.15,0,0,1,.041.083H7.828V24.412Zm-5.861.414a0.122,0.122,0,0,1,0,.166V24.827Z" transform="translate(0 -0.016)"/>
</svg>
