<svg xmlns="http://www.w3.org/2000/svg" width="79.938" height="40" viewBox="0 0 79.938 40">
  <defs>
    <style>
      .cls-1 {
        fill: #fff;
        fill-rule: evenodd;
      }
    </style>
  </defs>
  <path id="Color_Fill_1" data-name="Color Fill 1" class="cls-1" d="M46.22,9.1a1.923,1.923,0,0,0,1.148-.19h0.1a1.333,1.333,0,0,0,.766.19,1.433,1.433,0,0,1,.287-1.048,4.374,4.374,0,0,1,0,.762l-0.191-.1v0.1a0.64,0.64,0,0,1,.1.381h-2.2c0.013,0.874,0,1.076,0,2h3.923a1.735,1.735,0,0,0,.1-0.572c-0.107-.189-0.057-0.172,0-0.381h0.1v1.048H46.316v0.191a4.378,4.378,0,0,0-.1,1.619,13.2,13.2,0,0,1,2.3,0v1.524a1.023,1.023,0,0,0-.861.857,5.8,5.8,0,0,1,.383,2h1.148V15.857c-0.131-.237-0.212.074-0.287-0.476h0.191a0.832,0.832,0,0,1,.479-0.1v0.191a6.637,6.637,0,0,0,0,2h0.765v0.1a0.778,0.778,0,0,0,0,1.048c-0.209.128-.161-0.03-0.191,0.286a8.256,8.256,0,0,0,2.2.1,0.345,0.345,0,0,1,.191-0.1c0.013-.557-0.045-1.53.287-1.714,0.069,0.337.117,0.236,0.191,0.571-0.417.306-.2,0.5-0.1,1.143H53.11a0.346,0.346,0,0,0,.191.1c-0.061-.883-0.142-1.6.574-1.524L53.971,19H55.12a2.833,2.833,0,0,0-.1-1.809,1.014,1.014,0,0,1,.574.1H55.311c-0.016,1.017.075,0.972,0.1,1.714a0.464,0.464,0,0,1,.287.1H55.5a1.482,1.482,0,0,1-.861.191,8.784,8.784,0,0,0-.287,2.1h0.957v1.048h-0.1v0.1a2.637,2.637,0,0,0-.861.1,5.947,5.947,0,0,1,.1,1.143,1.492,1.492,0,0,1,.765.1,1.906,1.906,0,0,0-.765.1c0.545,0.282.291,0.927,0.1,1.333q0.048,0.762.1,1.524h0.191V26.429a0.485,0.485,0,0,1-.1-0.286,3.176,3.176,0,0,1,1.34.19,1.34,1.34,0,0,0-.1.381l1.244-.1a3.109,3.109,0,0,1,.1-1.333,2.824,2.824,0,0,0,.1,1.238V26.333a1.129,1.129,0,0,0,.1-0.952,3.328,3.328,0,0,0,1.722-.286l0.1-.1H59.139a0.672,0.672,0,0,0-.67-0.191c-0.093.024-.036,0.075-0.1,0h-0.1v-0.1c0.3-.2.034-0.933,0-1.524a5.355,5.355,0,0,1,.861-0.857,3.21,3.21,0,0,1,2.679,0c0.317,0.216.344,0.862,0.67,1.048h0.67s3.577,0.1,4.4.1c-0.079.309,0.047,0.146-.191,0.286a26.665,26.665,0,0,0-4.019,0v0.191a0.557,0.557,0,0,1,.383.571H63.541a0.922,0.922,0,0,0-1.148-.476l-0.1,1.238a1.654,1.654,0,0,1,1.531.667V25.286H63.541V24.81h0.766v1.333l3.828-.191a3.109,3.109,0,0,1,.1-1.333v1.333l1.722-.1a3.4,3.4,0,0,1,.1-1.428v1.428c0.572-.022.741-0.167,1.34-0.19a3.027,3.027,0,0,0-.191-1.048h0.287c0.143,0.159.069,0.1,0.191,0.1,0.2-.269-0.1-0.229.191-0.381,0.181,0.128.212-.286,0.574-0.1l0.1,0.286a2.661,2.661,0,0,0,.67.191v0.1c-0.431,0-.21-0.086-0.478.1-0.079-.309.047-0.146-0.191-0.286v0.952h0.287a1,1,0,0,1,.1-0.571v0.571h0.574a1.737,1.737,0,0,0,.1-0.571H73.4s0.251-.808.287-0.857a0.937,0.937,0,0,0,.191.857,1.793,1.793,0,0,0-.191.476,1.889,1.889,0,0,0,.957-0.1,0.328,0.328,0,0,1-.191-0.1,22.712,22.712,0,0,0,2.871-.1,3.4,3.4,0,0,1,.1-1.429,1.953,1.953,0,0,0,.191,1.429,9.012,9.012,0,0,1,1.531-.286c-0.266-.858,0-4.059,0-5.81h0.1v0.191c0.178,0.5-.339,2.114,0,2.857a6.948,6.948,0,0,1,.191,2.762H80V25.1a12.3,12.3,0,0,0-1.34,2.381c-0.912,1.491-1.86,3.088-2.775,4.571-0.493.8-.782,2.152-1.722,2.476-1.115.384-3.61,0.1-4.976,0.1H12.345c-1.134-.313-2.032-1.138-3.541-0.857a1.59,1.59,0,0,1,0,.476l-0.766.381a0.833,0.833,0,0,0-.191-0.857,18.867,18.867,0,0,1-3.254.476A2.243,2.243,0,0,1,4.5,35a3.359,3.359,0,0,1-.287-0.286C4.131,35.023,4.257,34.86,4.019,35V34.81a0.437,0.437,0,0,1,0-.476c-0.4-.063-0.41-0.081-0.478-0.476a1.536,1.536,0,0,0,.67-1.048H4.4a0.771,0.771,0,0,0,.383.762,0.734,0.734,0,0,1,.574,0l0.1-1.238h-0.1v-0.1l-2.488-.381v0.1c0.375,0.333.086,1.71,0,2.286H1.531L1.34,31.952a2.781,2.781,0,0,1,.861-0.1,0.28,0.28,0,0,0,.383,0l-2.3-.286L0.1,26.619c-0.114-.666.163-0.537,0.287-0.762A1.511,1.511,0,0,0,.1,24.524C0.659,24.093.379,21.94,0.383,21H0.67l0.1,4.286H0.957A0.553,0.553,0,0,1,1.34,24.81v0.381a0.464,0.464,0,0,0-.287.1H1.531v0.381h1.34a4.961,4.961,0,0,0,.1,1.524,0.345,0.345,0,0,0,.191.1c0-.371-0.048-0.428.191-0.571a1.781,1.781,0,0,1,.861-0.1V26.81c-0.243.139-.108-0.021-0.191,0.286h0.1a0.326,0.326,0,0,1,.1-0.19v0.381H5.072l-0.1-.952H5.167a0.271,0.271,0,0,0,.1.1,2.039,2.039,0,0,0-.1.667c0.25,0.037.125-.071,0.191,0.191H6.124a3.11,3.11,0,0,1,.1-1.333,4.5,4.5,0,0,0,.1,1.333,1.76,1.76,0,0,1,.574-0.1,1.61,1.61,0,0,0-.1-0.572H7.368v-0.1a0.485,0.485,0,0,1-.1-0.286H7.56V25.667H8.23V25.286h0.1v0.1a0.484,0.484,0,0,1,.1.286H9.665v0.952H9.474v-0.1c-0.1-.094-0.095.094-0.1,0.1a1.028,1.028,0,0,0-.1.572h0.861a3.6,3.6,0,0,1,.191-1.524h0.191a0.326,0.326,0,0,0,.1.19,5.14,5.14,0,0,0-.191,1.333h0.383l0.1-1.143h0.765v0.476h0.287v-0.1a0.344,0.344,0,0,1-.1-0.191h0.287a2.642,2.642,0,0,1,.191-0.952l0.1,1.9h1.34c-0.043-.611-0.249-0.5-0.287-1.143a0.464,0.464,0,0,1-.287-0.1h-0.1v-0.1c0.375-.1.367-0.109,0.383-0.571a1.519,1.519,0,0,1,.766.1v0.19h2.105V24.9h0.1V25c0.034,0.057.216,0.541,0,.571h1.053a1.092,1.092,0,0,1,0-.571c0.144,0.082.071,0.271,0.191,0.1h0.1V24.9c0.084-.106.1,0.1,0.1,0.1a1.026,1.026,0,0,1,.1.571c0.7-.049,1.206-0.006,2.01,0a5.851,5.851,0,0,1,.1,1.619,1.287,1.287,0,0,1,.67,0V27c-0.311-.079-0.146.047-0.287-0.191a11.34,11.34,0,0,0,.191-3.333,22.907,22.907,0,0,0-2.679-1.619,1.263,1.263,0,0,1-.574.476,3.82,3.82,0,0,1-.479-1.714h0.1v-0.1a10.816,10.816,0,0,0,1.914-.1v0.1a0.793,0.793,0,0,0-.287.571,16.47,16.47,0,0,1,3.828,2,1.12,1.12,0,0,1,0,.762l-0.67.381a6.389,6.389,0,0,1,.383.571c0.2,0.676-.14,1.487.191,2-0.013-.383-0.052-0.521.191-0.667a0.647,0.647,0,0,1,.479-0.191V25.1a2.068,2.068,0,0,1,.67-0.1,5,5,0,0,1,.191-0.762H23.636c0.079-.309-0.047-0.145.191-0.286a0.648,0.648,0,0,0,.383.1,12.7,12.7,0,0,1,.287-1.429c-0.217.038-.1,0.087-0.287,0h0.1a0.63,0.63,0,0,0,.287-0.571,0.64,0.64,0,0,0,.1-0.381l-0.287.1V21.571h0.383l0.287-1.333H25.55a3.232,3.232,0,0,1,.1-0.762A1.443,1.443,0,0,1,26.7,19.1a1.7,1.7,0,0,0,.957.762,5.335,5.335,0,0,1,1.818-.381,11.762,11.762,0,0,0,.478,2.952c2.519,0,5.283.091,7.943,0.1a2.2,2.2,0,0,0,.191-0.762H37.895v0.1H37.8v-0.1c-0.082-.179-0.045-0.07,0-0.286l0.287,0.1A1.322,1.322,0,0,1,38.278,21c0.083,0.07.108,0.12,0.191,0.191a2.968,2.968,0,0,1,.1-0.952h0.287c-0.16-.875-1.165-3.717-0.574-4.571,0.187,1.687.719,3.485,0.766,5.048a1.684,1.684,0,0,0,.383.286,0.647,0.647,0,0,1,.383-0.1v0.286A2.389,2.389,0,0,0,40.766,21a2.984,2.984,0,0,1,.191-0.762,1.885,1.885,0,0,0,.191.762l0.861-.191,0.1-1.048h-0.1v0.1c-0.229.267-.08,0.328-0.574,0.381a1.343,1.343,0,0,1-.1-0.381,2.381,2.381,0,0,0,.383-0.571h1.818V19.1c-0.66-.391-0.809-0.684-0.766-1.809a0.342,0.342,0,0,0,.1-0.191,1.731,1.731,0,0,1,.478-0.286,1.071,1.071,0,0,1,.957.1,15.163,15.163,0,0,1,.861-3.619c0.143-.469,0-0.922.383-1.143,0.148-.067.013-0.012,0.287,0v-0.1c-0.236-.123-0.065.041-0.191-0.19a0.7,0.7,0,0,0,.191-0.571,2.773,2.773,0,0,1-1.531-.1,3.444,3.444,0,0,0,1.435-.1,3.432,3.432,0,0,0,.1-1.429h-0.1a8.691,8.691,0,0,1-1.914,1.714c-0.482.362-.856,0.972-1.34,1.333-0.676.5-1.325,0.929-2.01,1.429a6.021,6.021,0,0,1-2.2,1.429v-0.1c0.316-.174.543-0.566,0.957-0.857,1.093-.769,2.1-1.5,3.158-2.286,0.522-.391.918-1.04,1.435-1.428,0.678-.51,2.013-1.354,2.01-2.476a1.5,1.5,0,0,1-.1-0.762,2.731,2.731,0,0,1-1.531-.1h1.627A1.459,1.459,0,0,0,46.029,7a5.24,5.24,0,0,1,.1-2C46.1,7.032,46.245,7.747,46.22,9.1ZM45.455,6.9a1.2,1.2,0,0,1,.1-0.381h0.1a1.2,1.2,0,0,0,.1.381H45.455ZM44.88,6.619a1.285,1.285,0,0,1,.383.19V6.9h-0.1l-0.1.19A0.328,0.328,0,0,1,44.88,7C44.6,6.8,44.753,6.895,44.88,6.619Zm1.531,0.857V6.9H46.6V7.381h0.1v0.1H46.412ZM44.88,7.19a0.485,0.485,0,0,1,.1.286h-0.1V7.19ZM48.8,7.476a0.638,0.638,0,0,1,0,.667,0.562,0.562,0,0,0-.191-0.381C48.856,7.623,48.72,7.783,48.8,7.476Zm-0.287.381a0.342,0.342,0,0,1,.1.19h-0.1V7.857Zm-2.105,2.1V9.381H46.6V9.857h0.1v0.1H46.412ZM44.88,11.381h0.191v0.1A0.329,0.329,0,0,1,44.88,11.381Zm0.287,0.19h0.191v0.1A0.328,0.328,0,0,1,45.168,11.571Zm3.923,0.1a8.25,8.25,0,0,1,.861.286,6.672,6.672,0,0,1-2.488-.1C47.97,11.882,48.891,11.981,49.091,11.667Zm-3.636.1h0.191v0.1A0.328,0.328,0,0,1,45.455,11.762Zm1.244,0.1a1.244,1.244,0,0,1,.67.1A1.244,1.244,0,0,1,46.7,11.857Zm-0.191.1a4.3,4.3,0,0,1,.191.667H46.507v-0.1A0.567,0.567,0,0,1,46.507,11.952ZM46.22,13.667h0.287V13.191H46.316v0.1A0.64,0.64,0,0,0,46.22,13.667Zm0.383-.476v0.476h1.053V13.191H46.6Zm1.148,0a1.727,1.727,0,0,0,.1.857A1.727,1.727,0,0,0,47.751,13.191Zm0.67,0.476V13.191H48.23l-0.1.476h0.287Zm-2.2.1v0.286h0.287V13.762H46.22Zm0.383,0v0.286H46.89V13.762H46.6Zm0.383,0v0.286h0.67V13.762h-0.67Zm1.148,0v0.286h0.287V13.762H48.134Zm-1.818.381c0.079,0.309-.047.146,0.191,0.286V14.143H46.316Zm0.574,0c-0.31.079-.146-0.047-0.287,0.19l0.287,0.1V14.143Zm0.766,0.286V14.143h-0.67v0.19h0.1A1.042,1.042,0,0,0,47.656,14.429Zm0.1-.286v0.19h0.1v-0.19h-0.1Zm0.67,0c-0.31.079-.146-0.047-0.287,0.19l0.287,0.1V14.143Zm-2.105,1.048c0.31-.079.146,0.047,0.287-0.191a0.582,0.582,0,0,1-.191-0.191L46.7,14.9V14.619H46.316A2.168,2.168,0,0,1,46.316,15.191Zm0.957-.572H46.89a1.379,1.379,0,0,0,.1.476,0.49,0.49,0,0,0,.287.1V15.1a0.328,0.328,0,0,1-.191-0.1A0.381,0.381,0,0,0,47.273,14.619Zm0.287,0c0.079,0.309-.047.146,0.191,0.286,0.071-.083.12-0.107,0.191-0.191h-0.1v-0.1H47.56Zm-2.775,4.667c0.018-.94.584-3.938,0.287-4.476a16.829,16.829,0,0,1-.574,2.381v1.428a3.367,3.367,0,0,0-.383.191,3.107,3.107,0,0,0-.1.476h0.766Zm1.435-3.9v0.667a3.051,3.051,0,0,1,.67,0V15.381H46.22Zm0.765,0.667h0.479v-0.1a0.52,0.52,0,0,1-.287-0.381h0.1a0.583,0.583,0,0,0,.191.191V15.571a0.588,0.588,0,0,0-.383-0.19C47.078,15.58,47.014,15.616,46.986,16.048Zm-0.478-.571a0.381,0.381,0,0,1,0,.476V15.476Zm-8.9.286H37.99v0.1a0.344,0.344,0,0,0-.1.19c-1.042.5-2.074,1.218-3.062,1.81A17.148,17.148,0,0,1,31.866,19c-0.417.154-1.761,0.778-2.105,0.571a0.483,0.483,0,0,1-.1-0.286h0.191l2.584-.762C33.785,17.972,36.714,16.692,37.608,15.762Zm7.56,3.524h0.287c0.013-.7.173-2.917-0.1-3.333Q45.263,17.619,45.168,19.286Zm0.67-3.333c-0.013.7-.173,2.917,0.1,3.333C45.946,18.585,46.106,16.369,45.837,15.952Zm0.383,1.81a0.662,0.662,0,0,0,.67-0.191,0.562,0.562,0,0,0,.861,0,0.364,0.364,0,0,1-.287-0.19c0.344-.018.2,0.141,0.287-0.191a2.221,2.221,0,0,1-.191-1.048,9.18,9.18,0,0,1-1.34,0v0.1l0.191,0.1a1.207,1.207,0,0,1,.287.1c-0.082.179-.045,0.07,0,0.286H46.507a0.717,0.717,0,0,0-.383-0.381V17A1.5,1.5,0,0,1,46.22,17.762Zm0.67-1.429a0.484,0.484,0,0,1,.1.286h-0.1V16.333Zm-0.383.476H46.7l-0.1.286h-0.1V16.81Zm0.287,0a0.364,0.364,0,0,1,.287.191h0.1v0.1A0.517,0.517,0,0,1,46.794,16.81Zm-0.287.381H46.7l-0.1.191h0.1a0.346,0.346,0,0,1-.191.1V17.191Zm0.383,0a1.1,1.1,0,0,1,.191.286H46.89V17.191Zm7.847,0.191a0.342,0.342,0,0,1,.1.19h-0.1v-0.19Zm1.053,0.1a0.485,0.485,0,0,1,.1.286h-0.1V17.476Zm-7.464.1a0.464,0.464,0,0,0-.287.1c0.143,0.22.136,0.648,0.287,0.857V17.571Zm0.1,0v0.952h0.287V17.571H48.421Zm0.383,0v0.952H49V18.048a0.821,0.821,0,0,0,.1-0.476H48.8Zm0.957,0.952h0.287V17.571H49.569v0.1A2.317,2.317,0,0,1,49.761,18.524Zm4.88-.952a0.277,0.277,0,0,1,0,.381V17.571ZM46.22,20.333c0.34,0.074.339,0.19,0.478,0.191a1.908,1.908,0,0,0,0-.667c-0.026-.012-0.316.051-0.191-0.1,0.091-.107.106,0.062,0.191-0.1a0.364,0.364,0,0,1-.287-0.191H46.6v0.1a1.285,1.285,0,0,1,.383.191,0.8,0.8,0,0,0-.191.286h0.287c0.042-.247.257-0.177,0.383-0.571h0.1v-0.1a2.021,2.021,0,0,1-.957-0.1,0.342,0.342,0,0,1-.1-0.191H46.7c0.213,0.25.168,0.071,0.478-.1,0.011,0.369-.063.283,0.479,0.286l0.1-.286a0.583,0.583,0,0,1-.191-0.191c0.413,0.018.394,0.114,0.383-.476-0.227-.217-0.142-0.135-0.1-0.476H46.22v0.1h0.191a5.153,5.153,0,0,0-.191.762C46.223,19.551,46.23,19.408,46.22,20.333Zm9.569-2.476a0.344,0.344,0,0,1,.1.191h-0.1V17.857Zm-9.378.191H46.7v0.191h0.1v0.1A0.517,0.517,0,0,1,46.412,18.048ZM55.5,18.238h0.191v0.1A0.328,0.328,0,0,1,55.5,18.238Zm-9,.1a0.381,0.381,0,0,1,.191.381c-0.082.179-.045,0.07,0,0.286H46.507V18.333Zm0.287,0,0.287,0.1-0.1.286h-0.1A1.2,1.2,0,0,0,46.794,18.333Zm0.766,0c0.082,0.179.045,0.07,0,.286h-0.1Zm-0.479.191h0.191v0.1A0.328,0.328,0,0,1,47.081,18.524Zm0.191,0.1,0.287,0.1v0.1H47.273V18.619Zm0.957,0a0.459,0.459,0,0,0,.1.286A0.46,0.46,0,0,0,48.23,18.619Zm0.191,0a1.206,1.206,0,0,0,.1.381h0.191V18.619H48.421Zm0.383,0a0.613,0.613,0,0,0,.1.381,1.2,1.2,0,0,1,.1-0.381H48.8Zm0.957,0V19h0.287V18.619H49.761Zm-2.871.191a0.343,0.343,0,0,1,.1.191h-0.1V18.81Zm0.287,0a0.343,0.343,0,0,1,.1.191h-0.1V18.81Zm0.1,0.286a0.62,0.62,0,0,1,.383.1A0.62,0.62,0,0,1,47.273,19.1Zm0.67,0.1v0.191h0.1A0.326,0.326,0,0,0,47.943,19.191Zm-5.742.191a1.391,1.391,0,0,0,.191.952V19.381H42.2Zm0.287,0v0.667h0.191a4.316,4.316,0,0,1,.67,0v0.1c-0.236.123-.065-0.041-0.191,0.19h0.287l0.1-.952H42.488Zm1.723,1.048a0.465,0.465,0,0,1-.287-0.1c0.311-.079.146,0.047,0.287-0.19a0.329,0.329,0,0,1-.191-0.1c0.247-.143.2-0.285,0.191-0.667H44.019v0.19a2.2,2.2,0,0,0-.191.952l0.383,0.286V20.429Zm0.1-1.048v0.952c0.36-.014.336,0.045,0.479-0.19a0.62,0.62,0,0,1-.383-0.1,0.621,0.621,0,0,0,.383-0.1h-0.1c-0.047-.263.053-0.112,0.191-0.191a2.765,2.765,0,0,1,.574,0V19.381a0.427,0.427,0,0,0-.383.19A3.11,3.11,0,0,1,44.306,19.381Zm1.531,0a0.613,0.613,0,0,0,.1.381A0.612,0.612,0,0,0,45.837,19.381Zm1.914,0.667V19.476h-0.1v0.191a0.52,0.52,0,0,0-.287.381h0.383Zm0.1-.571a2.968,2.968,0,0,0,.1.952h0.1V19.952C47.972,19.856,47.915,19.572,47.847,19.476Zm0.191,0.1v0.191h0.1A0.326,0.326,0,0,0,48.038,19.571Zm-2.2.572v0.19h0.1A0.325,0.325,0,0,0,45.837,20.143Zm0.957,0v0.19h0.1v-0.1h0.1A0.345,0.345,0,0,0,46.794,20.143Zm0.383,0v0.19H47.56a0.345,0.345,0,0,1,.191-0.1v-0.1A2.1,2.1,0,0,1,47.177,20.143Zm-6.507.1a0.484,0.484,0,0,1,.1.286h-0.1V20.238Zm2.488,0.191V20.81h0.1V20.619a0.583,0.583,0,0,0,.191-0.19H43.158Zm1.148,0V20.81H44.5a0.49,0.49,0,0,1,.287-0.1V20.429H44.306Zm1.531,0a0.459,0.459,0,0,0,.1.286A0.459,0.459,0,0,0,45.837,20.429Zm1.914,0.286V20.429H46.986l-0.191.286h0.957Zm0.1-.191v0.191h0.287v-0.1Zm-29.474.1c-0.074.065-.213,0.125-0.287,0.191h0.383A0.327,0.327,0,0,0,18.373,20.619Zm22.2,0a0.485,0.485,0,0,1,.1.286h-0.1V20.619Zm-1.627.286a0.653,0.653,0,0,0,.287.476V21.191h-0.1A0.362,0.362,0,0,0,38.947,20.9Zm-21.531.476a0.942,0.942,0,0,0,.191.571v-0.1C17.749,21.594,17.636,21.54,17.416,21.381Zm1.053,0a19.706,19.706,0,0,0,3.254,2l0.287-.191a0.346,0.346,0,0,0-.191-0.1A16.239,16.239,0,0,0,18.469,21.381Zm19.809,0v0.19h0.1A0.326,0.326,0,0,0,38.278,21.381Zm0.191,0a0.281,0.281,0,0,0,.383,0H38.469Zm15.885,0.1a1.942,1.942,0,0,1,0,.952H55.12V21.476H54.354Zm24.88,0.857a1.229,1.229,0,0,0,.1.667A1.227,1.227,0,0,0,79.234,22.333Zm-61.818.286a1.129,1.129,0,0,1,0,.952V22.619ZM31.292,23V22.619H31.1c-0.232.345-.986,0.078-1.34,0.286a0.817,0.817,0,0,0,.287.381C30.079,22.81,30.6,22.974,31.292,23Zm0.191-.381,0.1,0.667c0.385,0.013.523,0.052,0.67-.191H31.962V22.81h0.574v0.1a0.64,0.64,0,0,0-.1.381h0.67V22.619H31.483Zm1.723,0v0.667h0.957V22.619H33.971A2.239,2.239,0,0,1,33.206,22.619Zm1.053,0.667c0.426-.022.975,0,1.627,0V22.619c-0.7,0-.931.018-1.531,0V22.81A0.821,0.821,0,0,0,34.258,23.286Zm1.722-.667v0.667h0.191V22.619H35.981Zm0.287,0v0.667h0.957V23h0.383V22.619h-1.34Zm1.435,0V23h0.191V22.619H37.7Zm-3.349.191a0.344,0.344,0,0,1,.1.191h-0.1V22.81ZM34.45,23a0.344,0.344,0,0,1,.1.191h-0.1V23Zm3.636,0.1v0.191h0.1A0.326,0.326,0,0,0,38.086,23.1Zm-6.507.286v0.19h0.67v-0.19h-0.67Zm0.861,0v0.19h0.67v-0.19H32.44Zm0.766,0v0.19h0.957v-0.19H33.206Zm1.053,0a2.647,2.647,0,0,0,1.627.19v-0.19H34.737A1.052,1.052,0,0,1,34.258,23.381Zm1.722,0v0.19h0.191v-0.19H35.981Zm0.287,0v0.19h0.957v-0.19H36.268Zm-14.354.1v0.191l0.287,0.1A0.488,0.488,0,0,0,21.914,23.476Zm-4.5.191a0.344,0.344,0,0,1,.1.19h-0.1v-0.19Zm14.163,0v0.381h0.67V23.667h-0.67Zm0.861,0.381h0.67V23.667H32.536v0.1h-0.1v0.286Zm0.766-.381v0.381h0.957V23.667H33.206Zm1.053,0.381c0.732-.042.645,0.009,1.627,0V23.667a3.559,3.559,0,0,1-1.531,0A0.639,0.639,0,0,0,34.258,24.048Zm1.722-.381v0.381h0.191V23.667H35.981Zm0.287,0v0.381h1.053v-0.1a0.484,0.484,0,0,1-.1-0.286H36.268Zm1.818,0a0.459,0.459,0,0,0,.1.286A0.459,0.459,0,0,0,38.086,23.667Zm40.383,0H78.66v0.1A0.329,0.329,0,0,1,78.469,23.667Zm0.765,0a1.228,1.228,0,0,0,.1.667A1.226,1.226,0,0,0,79.234,23.667Zm-58.373.1a6.664,6.664,0,0,0,0,3.143l0.191-2.572a1.818,1.818,0,0,0,.383-0.381l-0.287-.1A0.49,0.49,0,0,0,20.861,23.762Zm13.589,0a0.344,0.344,0,0,1,.1.191h-0.1V23.762Zm-4.5.191v0.191h0.1A0.325,0.325,0,0,0,29.952,23.952Zm45.359,0H75.5v0.1A0.328,0.328,0,0,1,75.311,23.952Zm-57.99.191h0.191v0.1A0.329,0.329,0,0,1,17.321,24.143Zm37.129,0.19v0.191h0.1v-0.1h0.1A0.346,0.346,0,0,0,54.45,24.333Zm24.019,0H78.66v0.191H78.469V24.333Zm0.765,0.1a0.613,0.613,0,0,0,.1.381A0.613,0.613,0,0,0,79.234,24.429Zm-16.651.1h0.191C62.661,24.677,62.735,24.64,62.584,24.524Zm15.885,0.1c0.107,0.158.169,0.1,0,.191V24.619Zm-3.158.1H75.5v0.1H75.311v-0.1Zm-9.187.1h0.191a6.471,6.471,0,0,1-.191,1.143V24.81Zm7.081,0H73.4v0.1H73.206v-0.1Zm-57.7.1a0.449,0.449,0,0,1,.191.476H15.6v0.1H15.5V24.9ZM75.311,25H75.5v0.1A0.328,0.328,0,0,1,75.311,25Zm-1.435.1h0.191v0.1A0.328,0.328,0,0,1,73.876,25.1Zm-9.761.1a2,2,0,0,0,.1.952A1.993,1.993,0,0,0,64.115,25.191Zm10.048,0h0.191v0.1A0.329,0.329,0,0,1,74.163,25.191Zm-18.947.286a0.5,0.5,0,0,1,0,.571V25.476Zm-51.1.476a0.277,0.277,0,0,1,0,.381V25.952Zm6.124,0.1a2.546,2.546,0,0,0,.1,1.143A2.543,2.543,0,0,0,10.239,26.048Zm9.665,0a2.09,2.09,0,0,0-.1,1.048H20A2.266,2.266,0,0,0,19.9,26.048Zm-19.617.191a0.794,0.794,0,0,0,.1.476A0.794,0.794,0,0,0,.287,26.238Zm19.234,0.1a0.8,0.8,0,0,0,.1.476A0.794,0.794,0,0,0,19.522,26.333Zm-11.483.381a0.459,0.459,0,0,0,.1.286A0.459,0.459,0,0,0,8.038,26.714Zm4.019,0a0.459,0.459,0,0,0,.1.286A0.459,0.459,0,0,0,12.057,26.714Zm2.2,0.476c0.31-.079.146,0.047,0.287-0.191a0.342,0.342,0,0,1-.1-0.191H14.258v0.381Zm0.574-.381v0.381a0.464,0.464,0,0,0,.287-0.1h0.1V26.81H14.833Zm0.574,0v0.381H15.6V26.81H15.407Zm0.765,0a0.464,0.464,0,0,0-.287.1,0.738,0.738,0,0,0,.287.286V26.81ZM0.287,27.1v0.191C0.441,27.173.4,27.246,0.287,27.1Zm0.766,0a2.16,2.16,0,0,0,1.435,0H1.053Zm4.785,5.333v1.048c0.736,0.075,2.338.309,2.679-.286h-0.1V33.1C7.441,33.036,6.785,32.566,5.837,32.429Zm2.871,0.762c0.079,0.309-.047.145,0.191,0.286,0.071-.083.121-0.108,0.191-0.191H9v-0.1H8.708Z" transform="translate(-0.063 -0.016)"/>
</svg>
