<svg xmlns="http://www.w3.org/2000/svg" width="39.969" height="40" viewBox="0 0 39.969 40">
  <defs>
    <style>
      .cls-1 {
        fill: #fff;
        fill-rule: evenodd;
      }
    </style>
  </defs>
  <path id="uk_centurion_mk_3_ico" class="cls-1" d="M13.935,15.989a25.6,25.6,0,0,1,2.705-.022l0.021-.421H17v0.133h0.086l0.022,0.288H17V16.41a2.837,2.837,0,0,1,1.052.443c0.024,0.008.295-.059,0.365-0.067V16.654h0.644V16.7a0.88,0.88,0,0,1,.086.332,1.441,1.441,0,0,1,.3.022v0.066h0.064a1.933,1.933,0,0,0,.215.244,0.353,0.353,0,0,0,.107-0.067,0.228,0.228,0,0,1,.043.089,0.256,0.256,0,0,0-.043.066,2.624,2.624,0,0,1,.537.177c0.247,0.084.461,0.114,0.709,0.2a3.839,3.839,0,0,0,.837.266l0.043-.089a0.062,0.062,0,0,1,.021.022h0.021l-0.043.111a1.259,1.259,0,0,0,.236-0.022,0.98,0.98,0,0,0,.687.31l0.279,0.022a2.718,2.718,0,0,1,.236.177c0.185,0.1.386,0.137,0.58,0.244,0.041,0.023.073,0.115,0.107,0.133h1.761a3.459,3.459,0,0,0,.88.022l2.34,0.022a5.028,5.028,0,0,0,.945.022L31.5,19.091h0.773a5.243,5.243,0,0,0,.988.022L34.8,19.136,37.96,19.18h0.365V19.136h1.2V19.047H40v0.8H39.528V19.778c-0.812-.036-1.611-0.045-2.426-0.044a6.872,6.872,0,0,0-1.31.022H35.427a6.548,6.548,0,0,0-1.245.022l-3.2.022a5.354,5.354,0,0,1-1.009.022l-1.589.022c-1.479,0-2.954.043-4.466,0.044-0.106.192-.271,0.339-0.386,0.51a1.019,1.019,0,0,1-.172.332,1.046,1.046,0,0,1-.172.044,0.223,0.223,0,0,1,.021.266h0.666c0.033-.2.146-0.147,0.236-0.044a0.981,0.981,0,0,1,.451.022,0.483,0.483,0,0,1,.043-0.111,0.074,0.074,0,0,1,.043.022c0.054,0.032.039,0.028,0.043,0.111h0.172l0.021-.111a0.226,0.226,0,0,1,.15-0.066,4.038,4.038,0,0,1,.9.089v0.022a0.423,0.423,0,0,0-.021.2,1.162,1.162,0,0,0,.258,0,0.354,0.354,0,0,1,.107-0.2,2.949,2.949,0,0,0,.945.51,0.133,0.133,0,0,0-.043.044h0.064a0.349,0.349,0,0,1,.3,0,3.966,3.966,0,0,0,.988.266,0.145,0.145,0,0,1,.15-0.089,0.764,0.764,0,0,0,.6.177c-0.007-.261,0-0.391,0-0.643H29.243l-0.022.111H29.179V21.019h0.043v0.044a1.75,1.75,0,0,1,.15.643,0.294,0.294,0,0,1,.086-0.022,0.109,0.109,0,0,1,.021-0.067v0.044a0.939,0.939,0,0,1,.086.222c0.173,0.106.657,0.038,0.837,0.133l0.15,0.177a0.533,0.533,0,0,1,.193.111,1.932,1.932,0,0,0,.365.443,1.081,1.081,0,0,1,.408.377,1.851,1.851,0,0,0-.086.51,0.908,0.908,0,0,1-.236.377,0.454,0.454,0,0,0-.129.067v0.155H30.939v0.022a0.584,0.584,0,0,1-.021.377h0.043a0.108,0.108,0,0,0,.064.022l-0.043.244H30.918a0.108,0.108,0,0,0-.064-0.022,0.926,0.926,0,0,0-.129.355c0.026,0.055.038,0.034,0.064,0.089H30.768a0.22,0.22,0,0,1-.15.155c-0.035-.049-0.037-0.067-0.086-0.044a0.783,0.783,0,0,0-.236.288c0.038,0.042.04,0.018,0.021,0.066a0.255,0.255,0,0,1-.172.089,0.2,0.2,0,0,0-.107-0.066,0.68,0.68,0,0,1-.279.155,0.173,0.173,0,0,1,.021.111c-0.037.035-.093,0.053-0.129,0.089a1.13,1.13,0,0,0-.15-0.089,1.13,1.13,0,0,1-.279.155,0.11,0.11,0,0,1,.022.111,0.275,0.275,0,0,1-.172.066,0.6,0.6,0,0,1-.064-0.089,0.991,0.991,0,0,0-.322.2,0.161,0.161,0,0,1,.043.089H28.685a0.3,0.3,0,0,1-.15.067c-0.03-.062-0.031-0.088-0.086-0.067a0.3,0.3,0,0,0-.279.2c0.027,0.035.014,0.011,0,.044a0.372,0.372,0,0,1-.172.089,0.483,0.483,0,0,0-.043-0.111l-0.322.155,0.021,0.133-0.193.066a0.061,0.061,0,0,0-.021-0.022V27.091a0.573,0.573,0,0,0-.343.177,0.441,0.441,0,0,1,.043.089c-0.086.022-.129,0.064-0.215,0.089a0.248,0.248,0,0,0-.043-0.111,0.906,0.906,0,0,1-.322.155,0.253,0.253,0,0,1,0,.155c-0.082.011-.09,0.031-0.172,0.044a0.086,0.086,0,0,0-.064-0.089c-0.1.089-.266,0.052-0.279,0.244,0.005,0.021.017,0.008,0,.022a0.424,0.424,0,0,1-.193.066V27.889a0.115,0.115,0,0,1-.021-0.066,1.692,1.692,0,0,0-.387.044v0.111H25.228V27.867H24.863v0.111H24.648c-0.018-.171-0.168-0.118-0.386-0.111l0.021,0.111H24.069V27.934a0.116,0.116,0,0,1-.021-0.066H23.682L23.7,27.978H23.489V27.934a0.116,0.116,0,0,1-.021-0.066H23.1v0.111H22.888V27.867H22.523v0.111H22.308V27.867a1.328,1.328,0,0,0-.386.022c0,0.064.021,0.031,0,.067a0.386,0.386,0,0,1-.193.022V27.934a0.116,0.116,0,0,1-.021-0.066H21.363v0.044c-0.057.063-.019,0.073-0.215,0.066V27.934a0.115,0.115,0,0,1-.022-0.066H20.762v0.111H20.548V27.867H20.183v0.111H19.968V27.867H19.6v0.044c-0.057.063-.019,0.073-0.215,0.066V27.867H19.023v0.044c-0.057.063-.019,0.073-0.215,0.066V27.867H18.443v0.044c-0.057.063-.019,0.073-0.215,0.066V27.934a0.115,0.115,0,0,1-.021-0.066H17.842v0.111H17.628V27.867H17.263v0.111H17.048V27.867H16.683v0.111H16.468V27.867H16.1v0.111H15.888V27.867H15.523v0.044c-0.057.063-.019,0.073-0.215,0.066-0.03-.169-0.159-0.118-0.386-0.111v0.111H14.729V27.934a0.115,0.115,0,0,1-.021-0.066H14.343v0.111H14.149V27.934a0.115,0.115,0,0,1-.021-0.066H13.763v0.111H13.57V27.956H13.548V27.867H13.183v0.111H12.968V27.867H12.6v0.044c-0.057.063-.019,0.073-0.215,0.066V27.867H12.024v0.111H11.809V27.867H11.444v0.044c-0.057.063-.019,0.073-0.215,0.066V27.867H10.864v0.044c-0.057.063-.019,0.073-0.215,0.066V27.934a0.115,0.115,0,0,1-.021-0.066H10.263v0.111H10.048V27.867H9.683v0.111H9.469V27.867H9.1v0.111H8.889V27.867H8.524v0.044c-0.057.063-.019,0.073-0.215,0.066V27.934a0.115,0.115,0,0,1-.021-0.066H7.923v0.111H7.708V27.867H7.343v0.111H7.128V27.867H6.763v0.111H6.549V27.845L6.162,27.8v0.044a0.115,0.115,0,0,0-.021.067,1.135,1.135,0,0,1-.215-0.067c0.026-.072.049-0.1,0-0.133a0.5,0.5,0,0,0-.3-0.111,0.116,0.116,0,0,0-.021.067A0.743,0.743,0,0,1,5.389,27.6V27.579a0.642,0.642,0,0,0,.043-0.111,2.2,2.2,0,0,1-.344-0.133,0.116,0.116,0,0,1-.064.111,0.543,0.543,0,0,0-.172-0.089c0.044-.17-0.162-0.232-0.3-0.266a0.484,0.484,0,0,1-.043.111l-0.172-.089c-0.025-.052.025-0.087-0.043-0.133a0.5,0.5,0,0,0-.279-0.111,0.439,0.439,0,0,0-.043.089L3.8,26.892a0.192,0.192,0,0,0-.043-0.155,0.558,0.558,0,0,0-.279-0.111,0.6,0.6,0,0,0-.064.089,0.235,0.235,0,0,1-.172-0.155,0.116,0.116,0,0,0,.021-0.067,1.545,1.545,0,0,0-.322-0.111,0.465,0.465,0,0,1-.086.089,0.223,0.223,0,0,0-.15-0.067l0.021-.133a2.138,2.138,0,0,0-.365-0.111,0.109,0.109,0,0,1-.021.066c-0.054-.055-0.138-0.079-0.193-0.133a0.788,0.788,0,0,0,.064-0.111,0.543,0.543,0,0,1-.236-0.177,0.256,0.256,0,0,1-.172,0,0.39,0.39,0,0,1-.129-0.177c0.048-.036.065-0.038,0.043-0.089a1.233,1.233,0,0,0-.129-0.266,0.37,0.37,0,0,1-.129-0.022,0.924,0.924,0,0,0-.107-0.222c-0.177-.106-0.342-0.02-0.365-0.288a0.283,0.283,0,0,1-.021-0.222A0.742,0.742,0,0,0,1.2,24.188H1.374v0.177a0.1,0.1,0,0,0,.064-0.022,1.141,1.141,0,0,0,.086-0.355H1.5a0.848,0.848,0,0,1-.687.155V24.055a1.5,1.5,0,0,0,.988-0.6c0.031-.026-0.039-0.071-0.064-0.111a0.647,0.647,0,0,0,.215-0.2H1.868a3.279,3.279,0,0,0-.773-0.2c-0.1-.035-0.258-0.11-0.365-0.133a0.268,0.268,0,0,1-.172-0.022A2.121,2.121,0,0,0,.6,22.327a1.533,1.533,0,0,1-.365-0.044c0-.07.026-0.053-0.064-0.066a0.235,0.235,0,0,1-.043.155l0.043-.488a0.429,0.429,0,0,0-.129,0V21.839h0.15a0.109,0.109,0,0,1,.021-0.066V21.8H0.236C0.2,21.9.207,22.065,0.172,22.172H0.236V22.15H0.258L0.3,21.8a1.483,1.483,0,0,1-.086-0.288,0.424,0.424,0,0,1-.172,0A0.312,0.312,0,0,1,.021,21.33a0.456,0.456,0,0,1,.15-0.177,0.234,0.234,0,0,0,.107.089,0.335,0.335,0,0,1,.107-0.155H0.408V21.064a0.273,0.273,0,0,1-.172-0.177,0.2,0.2,0,0,1-.021-0.177C0.3,20.417.4,20.594,0.623,20.488c0.068-.032.192-0.13,0.258-0.155a1.318,1.318,0,0,0,.279.022,2.445,2.445,0,0,1,.9-0.177A0.623,0.623,0,0,1,2.1,20.4a0.115,0.115,0,0,1,.021.066H2.34a0.541,0.541,0,0,1,.086-0.2c0,0.087-.011.1,0.043,0.133V19.978h1.46c0.13,0,.361.038,0.451,0.022a1.915,1.915,0,0,1,.6,0c0.235,0.053.543-.025,0.751,0.022H6.119a5.578,5.578,0,0,1,1.116.044H7.794l1.589,0.066c0.578,0.134,1.227.191,1.825,0.266v0.066h0.9a0.3,0.3,0,0,1,.021-0.155v0.155h0.6V20.421c-0.133-.194-0.049-0.54-0.386-0.532a2.09,2.09,0,0,0-.558-0.066,3.634,3.634,0,0,0-.816-0.111,2.358,2.358,0,0,1-.644.022,1.364,1.364,0,0,1-.043-0.355,3.913,3.913,0,0,1-.537-0.089,3.391,3.391,0,0,1-.021-0.864,5.192,5.192,0,0,1,0-.753,0.829,0.829,0,0,1,.344-0.111c0.026,0.069.008,0.05,0.086,0.066a0.247,0.247,0,0,1,.064-0.044V17.518H10.091l-0.021-.044h0.258V17.407a1.034,1.034,0,0,0,.064-0.089c0.052-.037.146-0.011,0.193-0.044a0.153,0.153,0,0,0,.021-0.089,0.2,0.2,0,0,1-.021-0.111,2.6,2.6,0,0,1,.708-0.022,0.764,0.764,0,0,1,.429.089V17.031a0.477,0.477,0,0,1,.193-0.022,0.77,0.77,0,0,0-.086-0.355h0.129V14.615a3.089,3.089,0,0,1,.022-0.776v2.814H12.11V16.7H12.088V16.72a0.07,0.07,0,0,0-.064,0,1.331,1.331,0,0,1,0,.266c0.144,0.016.253,0.026,0.365,0.044v0.089H12.41a0.085,0.085,0,0,1,.086-0.044,0.367,0.367,0,0,1,.064-0.244,5.156,5.156,0,0,1,0-.665q0.011-.787.021-1.573a4.178,4.178,0,0,1,.021-0.975v2.3a2.031,2.031,0,0,0,.064.887,0.1,0.1,0,0,0-.064.022,0.5,0.5,0,0,1,.086.244,0.8,0.8,0,0,0,.344.067c0.04-.122.048-0.141,0.215-0.133a0.181,0.181,0,0,0,.086.133V16.565h0.021V16.543a1.147,1.147,0,0,0,.279-0.089V13.219A7.775,7.775,0,0,1,13.655,12v4.454H13.7a1.408,1.408,0,0,1,.215-0.067A1.5,1.5,0,0,0,13.935,15.989ZM0.215,21a0.116,0.116,0,0,1,.021.067H0.215V21Z" transform="translate(-0.031 0.016)"/>
</svg>
