<?xml version="1.0" encoding="utf-8"?>
<!-- Generator: Adobe Illustrator 16.0.0, SVG Export Plug-In . SVG Version: 6.00 Build 0)  -->
<!DOCTYPE svg PUBLIC "-//W3C//DTD SVG 1.1//EN" "http://www.w3.org/Graphics/SVG/1.1/DTD/svg11.dtd">
<svg version="1.1" id="Layer_1" xmlns="http://www.w3.org/2000/svg" xmlns:xlink="http://www.w3.org/1999/xlink" x="0px" y="0px"
	 width="40px" height="40px" viewBox="0 0 40 40" enable-background="new 0 0 40 40" xml:space="preserve">
<path id="uk_chieftain_mk_3_ico" fill="#FFFFFF" d="M12.257,13.689v0.089c0.255,0.05,0.514,0.08,0.774,0.089l-0.022-0.222
	c0.019-0.038,0.043,0.02,0.066-0.089c-0.074-0.009-0.148-0.009-0.221,0c-0.015-0.043-0.022-0.088-0.022-0.133h0.044
	c0.136,0.001,0.271-0.021,0.4-0.067c0.013-0.036,0.036-0.066,0.066-0.089c0.131-0.034,0.267-0.041,0.4-0.022l0.022,0.245
	l0.642-0.022c0.018-0.072-0.011-0.034,0.044-0.067c0.125,0.018,0.251,0.018,0.376,0c0.005,0.047,0.021,0.092,0.044,0.133
	c0.111-0.016,0.224-0.008,0.332,0.022h0.948v-2.712c-0.033-0.34-0.025-0.683,0.022-1.021v3.733H16.5
	c0.006-0.054,0.021-0.107,0.044-0.156h0.044v0.089c0.014,0.019,0.022,0.042,0.022,0.067l0.376,0.022v0.067h-0.813
	c0.007,0.371,0.015,0.741,0.022,1.111h0.044c0.018-0.114,0.018-0.153,0.155-0.156c0.146,0.021,0.288,0.066,0.42,0.133
	c0.041,0.122,0.056,0.25,0.044,0.378c0.364-0.013,0.728,0.017,1.084,0.089c0.27,0.068,0.588,0,0.841,0.067
	c0.194,0.01,0.387,0.04,0.575,0.089h0.022v0.022c0.051-0.057,0.124-0.089,0.2-0.089c0.168,0.12,0.548,0.072,0.553,0.355
	c-0.014,0.02-0.021,0.043-0.022,0.067c0.077,0.013,0.381,0.181,0.4,0.156c0.044-0.033,0.07-0.066,0.111-0.045
	c0.019,0.02,0.041,0.035,0.065,0.045c0.054-0.084,0.045-0.024,0.133-0.067l0.022,0.133c0.229,0,0.472,0,0.8,0v0.111h-0.8v0.044
	c0.12,0.02,0.239,0.05,0.354,0.089h0.177l0.044,0.089l0.2-0.044c0.05,0.038,0.095,0.083,0.133,0.133h0.133V16.4
	c0.047-0.005,0.093-0.02,0.134-0.044l0.53,0.022h1.283c0.019,0.072-0.011,0.034,0.044,0.067c0.211-0.049,0.431-0.049,0.643,0
	c0.185,0.007,0.371-0.008,0.553-0.044c0.197,0.039,0.398,0.053,0.6,0.044c0.279-0.032,0.562-0.032,0.841,0l0.929-0.022
	c0.138,0.036,0.279,0.051,0.42,0.044c0.225-0.057,0.457-0.072,0.687-0.044c0.15,0.047,0.309,0.062,0.465,0.044
	c0.294-0.03,0.591-0.03,0.886,0c0.5,0,1.127,0,1.593,0.022c0.023-0.041,0.038-0.086,0.044-0.133H31.6v-0.112h1.99
	c0.011,0.067,0.025,0.134,0.044,0.2h0.089v-0.066c0.024-0.009,0.047-0.024,0.065-0.044c0.279,0.167,0.614,0.215,0.929,0.133
	c0.184,0.025,0.368,0.04,0.553,0.044c0.109-0.023,0.221-0.03,0.332-0.021c0.214,0.02,0.429,0.02,0.643,0l0.62,0.021
	c0.102-0.022,0.206-0.03,0.31-0.021c0.114,0.037,0.234,0.052,0.354,0.044c0.144-0.045,0.294-0.061,0.443-0.044
	c0.107,0.027,0.219,0.042,0.331,0.044c0.115-0.034,0.234-0.049,0.354-0.044c0.445,0.077,0.898,0.107,1.35,0.089V17.2
	c-0.451-0.005-0.902,0.024-1.35,0.089c-0.082-0.007-0.164-0.021-0.243-0.045c-0.12-0.014-0.241,0.002-0.354,0.045
	c-0.178,0.022-0.359,0.008-0.531-0.045c-0.135-0.012-0.271,0.003-0.399,0.045c-0.067,0.007-0.136-0.001-0.2-0.021
	c-0.222-0.029-0.447-0.015-0.664,0.043c-0.254,0.06-0.414-0.1-0.664-0.043c-0.17,0.039-0.408-0.06-0.664,0
	c-0.115,0.029-0.234,0.044-0.354,0.043l-0.4-0.043c-0.146,0.068-0.304,0.113-0.465,0.133v-0.067h-0.089v0.089h-2.101v-0.089
	c-0.054-0.029-0.115-0.044-0.176-0.044c-0.27,0.057-0.547,0.063-0.819,0.021c-0.098,0.003-0.194,0.018-0.288,0.045
	c-0.098,0.004-0.195-0.012-0.288-0.045c-0.179-0.012-0.357,0.003-0.531,0.045l-0.664-0.045c-0.196,0.048-0.397,0.07-0.6,0.067
	c-0.157-0.05-0.322-0.073-0.487-0.067c-0.268,0.065-0.545,0.08-0.818,0.045c-0.146-0.033-0.295-0.041-0.442-0.022
	c-0.239,0.057-0.487,0.064-0.729,0.022c-0.109-0.027-0.222-0.035-0.332-0.022c-0.243,0.021-0.488,0.021-0.73,0l-0.354,0.044
	l-0.442-0.044c-0.312,0.092-0.63,0.159-0.951,0.2c-0.351-0.008-0.698-0.053-1.04-0.133c-0.008,0.092-0.068,0.17-0.154,0.199
	c-0.033-0.039-0.082-0.064-0.134-0.066l-0.022,0.111c-0.088,0.002-0.174,0.033-0.242,0.088c-0.024-0.023-0.055-0.039-0.088-0.043
	c-0.09,0.082-0.214,0.115-0.332,0.088c-0.01,0.101-0.033,0.101-0.045,0.201H21v0.043c0.018,0.035,0.025,0.073,0.021,0.111h0.222
	v-0.244l0.133,0.022V17.8h0.288c0.017,0.058,0.024,0.118,0.021,0.179c-0.026,0.034-0.014,0.011,0,0.043
	c0.086,0.051,0.174,0.096,0.266,0.134c0.15-0.017,0.303,0.006,0.441,0.067c0.064-0.006,0.126-0.029,0.178-0.067h0.265V18.2
	c-0.018,0.011-0.032,0.026-0.044,0.044h0.044c0.224,0.134,0.942,0.008,1.149,0.156c0.006,0.078,0.029,0.153,0.066,0.222
	c0.219,0.052,0.44,0.089,0.664,0.11c0.094-0.121,0.257-0.166,0.4-0.11c0.08,0.042,0.154,0.095,0.221,0.155
	c-0.007,0.082-0.007,0.164,0,0.244h0.111c0.015-0.111,0.037-0.223,0.066-0.332c0.325,0,0.553-0.086,0.906-0.09
	c0.021,0.103,0.029,0.207,0.021,0.312h0.377v0.044c-0.061-0.009-0.121-0.001-0.178,0.021h0.022c0.244,0.147,0.731-0.014,0.951,0.155
	c0.081,0.106,0.155,0.218,0.221,0.333c0.084,0.111,0.211,0.209,0.288,0.333c0.061,0.101,0.068,0.216,0.133,0.312
	c0.094,0.085,0.176,0.182,0.243,0.289h-0.024c-0.22,0.153-0.469,0.26-0.73,0.311c0.01,0.07-0.006,0.141-0.044,0.2
	c-0.044,0.024-0.04,0.013-0.089,0c-0.002,0.03-0.01,0.061-0.021,0.089c0.033,0.004,0.064,0.02,0.088,0.044
	c-0.104,0.136-0.152,0.3-0.242,0.445c-0.101,0.161-0.373,0.217-0.487,0.378c-0.035-0.021-0.066-0.081-0.089-0.045l-0.043,0.021
	c0.019,0.027,0.033,0.058,0.043,0.09c-0.168,0.053-0.25,0.209-0.42,0.267c-0.029-0.052-0.026-0.04-0.043-0.044
	c-0.025,0.014-0.042,0.039-0.045,0.066c0,0,0.064,0.029,0.045,0.045h-0.024c-0.132,0.088-0.257,0.184-0.376,0.288
	c-0.035-0.021-0.066-0.081-0.088-0.044l-0.044,0.022l0.044,0.089c-0.154,0.064-0.291,0.163-0.4,0.289
	c-0.048-0.041-0.029-0.068-0.088-0.044c-0.002,0.036-0.002,0.073,0,0.11c-0.018,0.031-0.32,0.207-0.376,0.268
	c-0.034-0.02-0.072-0.034-0.11-0.044c-0.006,0.009-0.014,0.017-0.022,0.022c0.013,0.055,0.052,0.065,0.022,0.088
	c-0.113,0.117-0.25,0.209-0.4,0.268c-0.019-0.02-0.041-0.034-0.066-0.044v0.022c-0.01,0.035-0.018,0.072-0.021,0.11
	c-0.129,0.107-0.279,0.184-0.442,0.222v-0.066c-0.024,0-0.047,0.008-0.065,0.021c-0.052,0.078,0.03,0.079-0.111,0.09
	c-0.135,0.047-0.277,0.069-0.42,0.066v-0.089h-0.088c0.003,0.03,0.011,0.061,0.022,0.089h-0.509v-0.089h-0.089V24h-0.509v-0.089
	h-0.088c0.002,0.03,0.01,0.061,0.021,0.089h-0.509v-0.089H21.57V24h-0.508v-0.089h-0.088V24h-0.51v-0.089h-0.089
	c0.003,0.03,0.011,0.061,0.024,0.089h-0.511v-0.089H19.8V24h-0.508v-0.089H19.2c0.002,0.03,0.01,0.061,0.022,0.089h-0.505v-0.089
	h-0.089V24H18.12v-0.089h-0.089c0.002,0.03,0.01,0.061,0.021,0.089h-0.509v-0.089h-0.088V24h-0.509v-0.089h-0.089V24H16.35
	c0.002-0.031,0.01-0.061,0.022-0.089h-0.089V24h-0.509v-0.089h-0.088V24h-0.509v-0.089h-0.088c0.002,0.03,0.01,0.061,0.022,0.089
	H14.6v-0.089h-0.087V24H14v-0.089h-0.084c0.002,0.03,0.01,0.061,0.022,0.089h-0.509v-0.089h-0.088V24h-0.509v-0.089h-0.089V24
	h-0.508v-0.044c0.012-0.013,0.02-0.027,0.022-0.044h-0.089V24h-0.509v-0.089h-0.088V24h-0.509v-0.089h-0.088
	C10.978,23.941,10.986,23.972,11,24h-0.513v-0.089H10.4V24H9.889v-0.089H9.8c0.003,0.03,0.011,0.061,0.023,0.089H9.314v-0.089H9.226
	V24H8.717v-0.089H8.628V24H8.119v-0.089H8.053V24H7.544v-0.089H7.456V24H6.947v-0.089H6.858c0.003,0.03,0.011,0.061,0.023,0.089
	H6.372v-0.089H6.283V24H5.774v-0.089H5.686v0.067c-0.172-0.003-0.343-0.025-0.509-0.067c0-0.088,0.044-0.087-0.044-0.111v-0.022
	H5.111c-0.002,0.031-0.01,0.062-0.022,0.09c-0.158-0.069-0.3-0.15-0.442-0.223c0.005-0.084,0.045-0.076-0.022-0.11v-0.023
	C4.6,23.489,4.6,23.533,4.6,23.533c-0.019,0.02-0.041,0.034-0.066,0.044c-0.168-0.084-0.307-0.216-0.4-0.378
	c-0.055,0.017-0.072,0.07-0.088,0.044c-0.159-0.056-0.302-0.147-0.42-0.267c0.025-0.014,0.042-0.039,0.044-0.067H3.65v-0.021H3.584
	c0,0.024-0.007,0.048-0.022,0.067c-0.158-0.077-0.301-0.183-0.42-0.312c0.018-0.011,0.033-0.026,0.044-0.045
	c-0.028-0.002-0.053-0.019-0.066-0.043C3.071,22.6,3.09,22.624,3.031,22.6c-0.179-0.054-0.326-0.184-0.4-0.355
	c-0.055,0.038-0.036,0.056-0.088,0.045c-0.156-0.048-0.295-0.141-0.4-0.268c0.012-0.012,0.02-0.027,0.022-0.043
	c-0.017-0.003-0.032-0.011-0.044-0.022c-0.055,0.015-0.041,0.052-0.066,0.022c-0.142-0.074-0.269-0.172-0.376-0.289
	c-0.066,0.016-0.133,0.022-0.2,0.021c-0.03-0.008-0.09-0.035-0.133-0.044c-0.079-0.119-0.146-0.245-0.2-0.378
	c0.05-0.041,0.112-0.064,0.177-0.066c0.031,0.1,0.014,0.155,0.133,0.178v-0.045c-0.138-0.338-0.161-0.713-0.066-1.066l-0.863-0.133
	c0.007-0.098,0-0.194-0.022-0.289c-0.05,0.02-0.102,0.034-0.155,0.044c-0.027,0.052-0.008,0.188-0.04,0.245
	c0-0.2,0.013-0.246,0.022-0.4H0.2v0.133H0.177v-0.021l-0.066-0.2H0.044v-0.134h0.022v-0.022h0.067v-0.422H0.111v-0.022H0.044v-0.133
	c0.121-0.037,0.1-0.18,0.088-0.334H0.044L0,18.467c0.115-0.035,0.21-0.115,0.265-0.222C0.2,18.253,0.22,18.289,0.177,18.223
	c-0.029-0.03-0.045-0.07-0.044-0.111C0.2,18.093,0.167,18.122,0.2,18.066c-0.038-0.059-0.054-0.13-0.044-0.199
	c-0.06,0-0.036,0.029-0.066-0.045c0.119-0.03,0.231-0.083,0.33-0.155c0.071,0.043,0.145,0.08,0.221,0.11
	c0.014-0.019,0.022-0.042,0.022-0.066H0.73v-0.066c0.24,0,0.506-0.021,0.774-0.022v0.089c0.077,0.033,0.16,0.048,0.243,0.045
	c0.01-0.073,0.01-0.148,0-0.222h0.111c0.01,0.032,0.034,0.057,0.066,0.067c0.087-0.142,0.226,0,0.265,0.021
	c0.075,0.006,0.15-0.002,0.223-0.023c0.011-0.137,0.079-0.121,0.221-0.11c0.011,0.038,0.025,0.075,0.044,0.11
	c0.064-0.021,0.133-0.029,0.2-0.021v0.066h0.154c0.032-0.112,0.123-0.1,0.265-0.088c0.034-0.02,0.073-0.027,0.111-0.022
	c0.042,0.1,0.054,0.114,0.2,0.11c0.101-0.083,0.244-0.092,0.354-0.021v-0.134h0.22v0.11H4.2c0.33-0.056,0.666-0.07,1-0.043v-0.201
	c0.273-0.008,0.613,0.022,0.929,0.022c0.31-0.021,0.621-0.015,0.929,0.022h1.216c0.36,0.039,0.723,0.046,1.084,0.021
	c0.47,0.006,1.056,0.037,1.527,0.044v-0.11h-0.022v-0.022c-0.335,0.007-0.67-0.022-1-0.089C9.653,17.2,9.4,17.243,9.2,17.2H8.783
	c-0.344-0.032-0.684-0.093-1.018-0.179v0.244h-1.57v-0.109c-0.024,0-0.047,0.008-0.066,0.021c0.027,0.035,0.014,0.012,0,0.045
	c-0.044-0.025-0.04-0.014-0.089,0v-0.045c0.032-0.063,0.054-0.13,0.066-0.199H5.885v0.11C5.726,17.092,5.567,17.062,5.42,17
	c-0.018-0.034-0.024-0.072-0.02-0.111c0.052-0.165,0.082-0.337,0.088-0.511c0.087-0.304,0.14-0.617,0.155-0.933
	c0.181,0,0.36,0.031,0.531,0.089c-0.051,0.159-0.088,0.323-0.111,0.489c0.049,0.028,0.101,0.05,0.155,0.067v-0.623H6.35v-0.134
	c-0.045,0.006-0.092-0.002-0.133-0.022h0.044c0.06-0.038,0.2-0.009,0.265-0.044c0.185-0.188,0.447-0.278,0.708-0.244
	c0.072,0.091,0.163,0.167,0.265,0.222c0.057-0.034,0.168,0.011,0.243-0.022c0.067-0.06,0.141-0.112,0.221-0.155
	c0.066,0.009,0.134,0.009,0.2,0c0.064-0.038,0.1-0.158,0.177-0.2c0.192-0.078,0.394-0.13,0.6-0.156
	c0.148-0.032,0.147,0.081,0.221,0.111c0.228,0.03,0.458,0.03,0.686,0c-0.01-0.304-0.003-0.608,0.022-0.911
	c0.105-0.397,0.083-0.817-0.066-1.2c0.089-0.061,0-0.117,0.088-0.178c0.042-0.022,0.091-0.022,0.133,0
	c0.002,0.067,0.01,0.134,0.022,0.2c-0.128,0.38-0.144,0.789-0.046,1.177c0.025,0.303,0.033,0.607,0.022,0.911h0.044
	c0.026,0.016,0.057,0.024,0.088,0.021v0.089c0.091,0.006,0.182-0.009,0.266-0.044c0.109-0.646,0.146-1.302,0.111-1.956
	c0.007-1.015,0.015-2.029,0.021-3.044V8.533C10.528,8.355,10.535,8.175,10.575,8v2.8c0,0.541-0.023,1.141,0.022,1.644
	c-0.032,0.764-0.01,1.529,0.066,2.289c0.086-0.003,0.167-0.044,0.221-0.111c-0.038-0.063-0.067-0.13-0.088-0.2
	c0.076,0.025,0.16,0.008,0.221-0.044l-0.044-0.022c-0.047-0.035-0.147-0.032-0.2-0.067c0.113-0.068-0.011-0.1,0.177-0.111
	c0.084-0.066,0.173-0.125,0.267-0.178c0.096-0.012,0.192-0.012,0.288,0c0.163-0.019,0.309-0.108,0.4-0.244
	c-0.029-0.012-0.016,0-0.022-0.022C12,13.683,12.131,13.667,12.257,13.689z M12.832,13.556c0.023,0.025,0.023,0.064,0,0.089V13.556z
	 M12.854,13.756c0.014,0.02,0.022,0.043,0.022,0.067h-0.022V13.756z"/>
</svg>
