<svg xmlns="http://www.w3.org/2000/svg" xmlns:xlink="http://www.w3.org/1999/xlink" width="40.125" height="40" viewBox="0 0 40.125 40">
  <defs>
    <style>
      .cls-1 {
        fill: #fff;
        fill-rule: evenodd;
      }
    </style>
    <clipPath id="clip-path">
      <rect x="0.063" y="0.516" width="40" height="40"/>
    </clipPath>
  </defs>
  <g clip-path="url(#clip-path)">
    <path id="Color_Fill_1" data-name="Color Fill 1" class="cls-1" d="M9.32,17.054H8.738V16.812a1.355,1.355,0,0,1-.485-0.1H8.835a7.183,7.183,0,0,0-.049-0.92H9.078a8.361,8.361,0,0,1,.049.92,4.675,4.675,0,0,0,.68,0,5.163,5.163,0,0,0,.049-1.259L9.9,13.131a3.635,3.635,0,0,1,.049-1.308v3.051a7.451,7.451,0,0,1,.1,1.889H10.1a2.27,2.27,0,0,1,1.165,0V11.145h0.049v5.57h0.68v0.048c-0.259.119-.126,2.066-0.146,2.373a0.807,0.807,0,0,0,.728-0.145H12.379V18.41c0.207,0,.394.1,0.486,0.1a2.759,2.759,0,0,1,1.068-.194V11h0.049v7.313c0.557,0,.834.092,1.359,0.1V17.732a4.558,4.558,0,0,1,1.214-.048v0.194l0.146,0.1V17.781a7.048,7.048,0,0,0,1.068-.1V17.393h0.049V17.345l0.243-.048a2.031,2.031,0,0,0,.146.291c0.283,0.2.4-.192,0.437,0.291l1.117,0.048c0.058-.025.032-0.218,0.1-0.1,0.075,0.049.255,0.087,0.34,0.145-0.337.005-.451,0-0.825,0v0.048a0.185,0.185,0,0,1,.146.1h-0.68v0.242c0.28,0.1.311,0.233,0.291,0.63a0.7,0.7,0,0,0-.243.048v0.048a1.163,1.163,0,0,1,.534.049,1.564,1.564,0,0,0,.1.339c0.177,0.117,1.227.194,1.5,0.291a0.285,0.285,0,0,0,0,.194,1.99,1.99,0,0,0,.777.194,1.765,1.765,0,0,1,.777-0.533,5.318,5.318,0,0,1,1.7,0,0.376,0.376,0,0,0,.146.145,2.2,2.2,0,0,0,.534.1,2.19,2.19,0,0,1,.049.63,0.835,0.835,0,0,1-.582.145,0.175,0.175,0,0,0-.1-0.049v0.436h0.1c0.364,0.225,1.483-.059,1.99.049,0.445,0.095,1.12-.085,1.553,0,0.374,0.073.943-.072,1.311,0a3.332,3.332,0,0,0,1.02,0l0.485,0.048,1.456-.048a8.154,8.154,0,0,1,2.136-.1c0.253,0.383.706,0.051,1.165,0.145,0.964,0.2,2.594-.2,3.447.1V21.171a0.59,0.59,0,0,1-.194-0.194,2.3,2.3,0,0,0,.874-0.1,0.337,0.337,0,0,0,.34.339,1.8,1.8,0,0,1-.048.533,2.052,2.052,0,0,1-1.02,0,11.8,11.8,0,0,1-3.107.1c-1.037,0-1.608.145-2.621,0.145l-0.971.048L32.185,21.9H30a37.055,37.055,0,0,0-4.806.145L24.757,21.9a9.12,9.12,0,0,0-1.942.194,8.435,8.435,0,0,1,2.136.339,8.459,8.459,0,0,1,1.213.194c0.091,0.04.207,0.213,0.291,0.242a2.494,2.494,0,0,0,.485-0.048c-0.036.042-.061,0.055-0.1,0.1H26.99a2.152,2.152,0,0,1,1.068.194c0.049,0.079.047,0.309,0.1,0.387a4.244,4.244,0,0,1,.049-1.55c0,0.646.069,1.267,0.1,1.792a1.577,1.577,0,0,1,.874,1.308,1.888,1.888,0,0,0-.825.242,2.837,2.837,0,0,1-.34.533c-0.7.533-1.523,0.887-2.281,1.356a4.993,4.993,0,0,1-1.408.775H8.592A5.146,5.146,0,0,1,7.233,27.9a7.984,7.984,0,0,1-1.65-1.017c-0.48-.3-1.338-0.571-1.5-1.162a0.175,0.175,0,0,0-.049.1,0.46,0.46,0,0,1-.437.145A0.525,0.525,0,0,1,3.4,25.724a0.691,0.691,0,0,1,.194-0.048,0.175,0.175,0,0,0,.1.048V25.482a0.175,0.175,0,0,1-.049-0.1,0.175,0.175,0,0,0-.049.1,0.709,0.709,0,0,1-.631.291V25.046a6.513,6.513,0,0,0-.777-0.194c-0.092-.143-0.289-0.479-0.34-0.533-0.076.06-.025,0.031-0.1,0H1.7V24.271c0.158-.04.074,0.024,0.146-0.1a0.688,0.688,0,0,0-.194-0.048v0.1a3.361,3.361,0,0,1-.049.726L1.65,25.288c0.015,0.511,0,.772,0,1.308h-0.1V25.917c-0.141-.3.039-1.329-0.049-1.792a0.263,0.263,0,0,1-.194-0.145,3.494,3.494,0,0,1-.1-0.823h-0.1a0.326,0.326,0,0,1-.243.387A0.878,0.878,0,0,1,0,23.4c0.377-.382-0.14-0.791.825-0.775,0.062,0.068.2,0.208,0.243,0.145a0.93,0.93,0,0,1,.194-0.484C1.056,22.11,1.277,21.927.874,21.9V21.558a1.862,1.862,0,0,1,1.068.048,0.491,0.491,0,0,0,.146.242c0.054-.08,0-0.03.1,0L2.136,21.7H2.379A1.642,1.642,0,0,0,3.4,21.558a6.6,6.6,0,0,1,1.214.1V21.413H4.806V21.7a0.891,0.891,0,0,0,.291.048,1.747,1.747,0,0,1,1.214-.1,9.359,9.359,0,0,1,1.117-.049,2.268,2.268,0,0,0,.825.145A1.924,1.924,0,0,0,8.4,21.607H9.223V21.462c-0.83,0-1.489,0-2.233,0a5.806,5.806,0,0,1-.874,0,4.451,4.451,0,0,1-.049-1.6,10.019,10.019,0,0,0,1.068.049V19.766l0.291-.049a4.233,4.233,0,0,1,.194-0.775V13.422A10.442,10.442,0,0,1,7.67,11c0,2.781.031,5.677,0.049,8.379a0.664,0.664,0,0,0,.437.145v0.1l1.116-.145a0.323,0.323,0,0,0,.049-0.242A13.419,13.419,0,0,1,9.32,17.054Zm2.233-.291v0.242a0.762,0.762,0,0,1-.243.048,11.814,11.814,0,0,0,.048,2.083H11.7V16.764H11.553Zm-2.039.291v2.325a3.648,3.648,0,0,0,1.7-.291,8.34,8.34,0,0,0,.049-2.034H9.515Zm9.223,0.92a0.405,0.405,0,0,0,.388,0H18.738ZM16.7,18.41V18.6H16.5l-0.049.242h0.291c-0.01-.162-0.1-0.116.049-0.194V18.7a0.326,0.326,0,0,1,.049.194l0.922,0.145a1.692,1.692,0,0,0,.1-0.291h-0.1c-0.125-.1-0.343-0.044-0.485-0.145l-0.049-.194a0.553,0.553,0,0,0-.291.1C16.865,18.506,16.831,18.429,16.7,18.41Zm-3.932.145v0.1a0.167,0.167,0,0,1,.1.049c0.12-.063.033,0.021,0.1-0.1H13.01V18.556H12.767Zm2.524,0a0.176,0.176,0,0,0,.1.048A0.174,0.174,0,0,0,15.291,18.556Zm-8.107,1.55V19.96H6.6v0.048A1.125,1.125,0,0,0,7.184,20.105Zm-0.34.048a0.4,0.4,0,0,0,.388,0H6.845Zm17.427,0.291a0.188,0.188,0,0,0,.146.1v-0.1H24.272ZM6.65,20.59a2.549,2.549,0,0,1,0,.387H7.233v-0.1a0.374,0.374,0,0,1-.1-0.291H6.65Zm0.631,0.581V21.026H6.65v0.1H6.7A1.323,1.323,0,0,0,7.282,21.171Zm2.67,0.484c0.6,0.434,1.721.19,2.476,0.339a1.512,1.512,0,0,0,.971-0.048H13.252a3.606,3.606,0,0,0-.922-0.1A11.765,11.765,0,0,0,9.951,21.655Zm-8.738.339v0.1H1.262A0.166,0.166,0,0,0,1.214,21.994Zm21.359,0a0.175,0.175,0,0,0,.1.048A0.175,0.175,0,0,0,22.573,21.994Zm-21.408.581v0.1H1.214v-0.1H1.165ZM1.65,23.69a1.5,1.5,0,0,0,.68.387v-0.1a0.419,0.419,0,0,1-.146-0.194,0.3,0.3,0,0,0,.1-0.1H1.65Zm1.165,0.387a0.973,0.973,0,0,0-.049-0.339H2.718l0.049,0.145a2.409,2.409,0,0,0-.388.145v0.048H2.816Zm-0.777-.242h0.1v0.048A0.167,0.167,0,0,1,2.039,23.835ZM2.913,23.98v0.1H2.961A0.166,0.166,0,0,0,2.913,23.98Zm-0.68.145c0.094,0.16.175,0.155,0.437,0.145,0.077-.059.216-0.085,0.291-0.145H2.233Zm0.728,0.533a0.312,0.312,0,0,0-.049-0.194,0.234,0.234,0,0,1-.049.145V24.561a0.359,0.359,0,0,0-.049-0.1,0.646,0.646,0,0,1-.291.145v0.048H2.961Zm2.524,1.453a2.324,2.324,0,0,0,.874.533V26.6a0.679,0.679,0,0,1-.049-0.484H5.485ZM26.068,26.16l-0.049.145h0.049a0.346,0.346,0,0,1,.194-0.1V26.16H26.068ZM10,26.5H9.612V26.353H9.175V26.4H9.126a2.175,2.175,0,0,1-.437.969h1.748v-0.1A1.051,1.051,0,0,1,10,26.5Zm15.728-.1a0.77,0.77,0,0,1-.388.048v0.1a0.568,0.568,0,0,0-.1.242h0.049a1.529,1.529,0,0,1,.534-0.339A0.176,0.176,0,0,0,25.728,26.4Zm-6.359.048-0.194.581a2.769,2.769,0,0,0-.291.339H19.9V27.322A7.127,7.127,0,0,1,19.369,26.45Zm-6.553.049a2.937,2.937,0,0,1-.437.872h1.068V27.322a1.534,1.534,0,0,1-.485-0.823H12.816Zm3.01,0a3.958,3.958,0,0,1-.485.872H16.99V27.322A1.25,1.25,0,0,1,16.5,26.5h-0.68Zm6.456,0a2.205,2.205,0,0,1-.486.872h1.165V27.322A2.745,2.745,0,0,0,22.282,26.5Z" transform="translate(0.063 0.516)"/>
  </g>
</svg>
