<?xml version="1.0" encoding="utf-8"?>
<!-- Generator: Adobe Illustrator 16.0.0, SVG Export Plug-In . SVG Version: 6.00 Build 0)  -->
<!DOCTYPE svg PUBLIC "-//W3C//DTD SVG 1.1//EN" "http://www.w3.org/Graphics/SVG/1.1/DTD/svg11.dtd">
<svg version="1.1" id="Layer_1" xmlns="http://www.w3.org/2000/svg" xmlns:xlink="http://www.w3.org/1999/xlink" x="0px" y="0px"
	 width="39.969px" height="40px" viewBox="0 0 39.969 40" enable-background="new 0 0 39.969 40" xml:space="preserve">
<path id="uk_crusader_mk_3_ico" fill="#FFFFFF" d="M19.846,12.988v-0.117c0.074-0.057,0.168-0.082,0.261-0.071v-0.094
	c0.082-0.004,0.163,0.012,0.237,0.047c0.012-0.1,0-0.1,0.095-0.118c0.2,0.323,0.293,0.343,0.829,0.329
	c0.258-0.055,0.524-0.055,0.782,0v0.071h0.189v-0.094h0.213v-0.729c0.151-0.281,0.193-0.608,0.118-0.918
	c0.018-0.028,0.027-0.113,0.047-0.141v0.988c0.146,0.239,0.189,0.528,0.117,0.8h0.285v0.094c0.56,0.073,1.113,0.183,1.658,0.329
	v-0.093h0.568c0.24-0.086,0.484-0.157,0.734-0.212v0.047h-0.024c-0.189,0.082-0.33,0.247-0.379,0.447h0.142v0.071
	c0.213,0.008,0.059-0.032,0.189-0.094c0.057-0.006,0.113,0.002,0.166,0.022c0.085-0.036,0.172-0.067,0.261-0.094l0.565,0.094
	l0.521-0.165v0.071c-0.099,0.064-0.194,0.135-0.284,0.212v0.024h0.024c0.095,0.103,0.198,0.197,0.308,0.282
	c0.029,0.018,0.063,0.026,0.096,0.024c0.335-0.306,0.838-0.335,1.207-0.071c0.08,0.144,0.219,0.247,0.379,0.282
	c0.054-0.01,0.104-0.034,0.143-0.071c-0.033-0.003-0.064-0.011-0.095-0.024V14c0.108-0.013,0.095-0.038,0.213-0.047
	c0.028,0.05,0.045,0.107,0.047,0.165c-0.149,0.1,0.062,0.23,0,0.377h-0.044c0.006,0.181,0.021,0.361,0.047,0.541
	c0,0.01-0.088,0.06-0.095,0.071c0.018,0.079,0.009,0.162-0.024,0.235h0.238c0.193,0.049,0.393,0.073,0.592,0.071v-0.072h0.166v0.165
	c0.45,0.019,0.9,0.01,1.35-0.024v0.094h6.418c0.359-0.071,0.727-0.087,1.09-0.047c0.081,0.258,0.105,0.531,0.07,0.8
	c-0.381,0.082-0.773,0.098-1.16,0.047c-0.174-0.065-0.361-0.082-0.545-0.047h-6.039c-0.25,0.054-0.549-0.013-0.828,0.047
	c-0.432,0.057-0.867,0.072-1.301,0.047c-0.037,0.114-0.053,0.233-0.047,0.353c0.033,0.023,0.058,0.056,0.071,0.094
	c0.11,0.064,0.23,0.112,0.354,0.141c0.092,0.06,0.188,0.115,0.285,0.165l0.117-0.047v0.047c0.11,0.003,0.219-0.03,0.309-0.094
	l0.709-0.212c0.188,0.009,0.371,0.049,0.545,0.118c0.174,0.023,0.348,0.031,0.521,0.023c0.094,0.018,0.219,0.058,0.331,0.071
	c0-0.026,0.009-0.051,0.024-0.071c0.044-0.021,0.094-0.029,0.142-0.023c0.021,0.076,0.028,0.156,0.024,0.235h0.188
	c-0.013,0.239,0.046,0.476,0.166,0.682c0.015-0.051,0.039-0.099,0.071-0.141l0.213,0.118c0.014,0.099,0.047,0.195,0.096,0.282
	c0.32,0.052,0.645,0.076,0.971,0.071c0.043-0.145,0.125-0.275,0.236-0.377v-0.023h0.024v0.023c0.112,0.159,0.034,0.468,0.284,0.494
	c0.215,0.065,0.438,0.097,0.662,0.094l-0.023,0.071l0.521,0.306c0-0.089-0.012-0.083,0.047-0.118v0.188
	c0.116,0.021,0.229,0.061,0.332,0.118c0.125,0.05,0.256-0.044,0.354,0v0.048c0.187,0.045,0.377,0.076,0.568,0.094
	c0.176-0.135,0.395-0.201,0.616-0.188c0.166,0.146,0.358,0.258,0.567,0.329c0.063,0.038,0.183,0.028,0.237,0.071
	c0.132,0.175,0.243,0.364,0.332,0.564c0.171,0.28,0.357,0.574,0.521,0.871c0.092,0.139,0.163,0.289,0.213,0.447
	c-0.153,0.192-0.521,0.306-0.664,0.471c-0.045,0.054-0.03,0.183-0.07,0.235c-0.038-0.02-0.078-0.035-0.118-0.047v0.047
	c-0.063,0.108-0.103,0.229-0.118,0.354l0.118,0.07c-0.047,0.104-0.11,0.199-0.188,0.282c-0.036-0.042-0.088-0.068-0.143-0.071
	c-0.076,0.111-0.172,0.207-0.284,0.282c0.046,0.032,0.072,0.085,0.071,0.141c-0.07,0.093-0.171,0.159-0.284,0.188
	c-0.011-0.041-0.026-0.081-0.047-0.118c-0.128,0.025-0.244,0.091-0.332,0.188c0.032,0.03,0.049,0.073,0.047,0.117
	c-0.091,0.029-0.179,0.068-0.26,0.118c-0.002-0.062-0.039-0.116-0.095-0.141c-0.086,0.073-0.228,0.088-0.309,0.165
	c0.031,0.043,0.056,0.09,0.071,0.141l-0.284,0.094c-0.01-0.041-0.026-0.08-0.047-0.117c-0.115,0.034-0.227,0.082-0.332,0.141
	l0.047,0.165c-0.077,0.014-0.15,0.046-0.213,0.094c-0.059-0.024-0.08-0.106-0.118-0.118l-0.332,0.141
	c0.024,0.053,0.04,0.108,0.048,0.166c-0.086,0.036-0.173,0.067-0.262,0.094c-0.002-0.064-0.054-0.115-0.117-0.118
	c-0.111,0.034-0.205,0.11-0.262,0.212c0.031,0.041,0.041,0.038,0.023,0.071c-0.072,0.065-0.163,0.106-0.26,0.118
	c0.004-0.061-0.041-0.113-0.102-0.118c-0.006-0.001-0.012-0.001-0.018,0c-0.08,0.06-0.168,0.106-0.261,0.141
	c0.02,0.054,0.035,0.109,0.048,0.165c-0.082,0.042-0.17,0.066-0.262,0.071c-0.022-0.048-0.066-0.083-0.117-0.095
	c-0.089,0.059-0.185,0.106-0.285,0.142c0.033,0.039,0.051,0.09,0.047,0.142c-0.077,0.057-0.166,0.097-0.26,0.117
	c-0.01-0.053-0.034-0.102-0.072-0.141c-0.121,0.037-0.229,0.111-0.308,0.212c0.027,0.035,0.05,0.071,0.024,0.094
	c-0.066,0.058-0.149,0.091-0.237,0.095c-0.03-0.036-0.054-0.076-0.071-0.119c-0.141,0.021-0.264,0.108-0.33,0.235
	c0.018,0.028,0.025,0.062,0.023,0.095c-0.099,0.027-0.194,0.067-0.284,0.117l-0.024-0.141c-0.136,0.018-0.27,0.049-0.399,0.094
	v0.024c0.021,0.044,0.03,0.093,0.024,0.141c-0.106,0.006-0.211,0.03-0.309,0.07c0-0.175-0.058-0.177-0.236-0.165
	c-0.053,0.022-0.109,0.031-0.166,0.023v0.166H31.4v-0.048c-0.021-0.036-0.029-0.077-0.024-0.118h-0.353v0.166H30.74l-0.024-0.166
	h-0.354v0.166h-0.284v-0.142H29.7v0.142h-0.286v-0.142h-0.379v0.142h-0.284v-0.142h-0.379v0.142h-0.284v-0.142h-0.379v0.142h-0.284
	v-0.142h-0.379v0.142h-0.285v-0.142h-0.378c0.03,0.163-0.084,0.157-0.283,0.142v-0.142h-0.381v0.142h-0.283v-0.142h-0.379v0.142
	h-0.285v-0.142h-0.354l-0.024,0.142h-0.283v-0.142h-0.355v0.142h-0.309v-0.117c-0.053-0.018-0.109-0.025-0.165-0.023
	c-0.011,0.063-0.06,0.052-0.189,0.047v0.094h-0.308l-0.024-0.141h-0.331v0.141H22.12L22.1,25.835h-0.312
	c-0.006,0.01-0.015,0.018-0.024,0.022c0.008,0.039,0.008,0.08,0,0.119h-0.307l-0.023-0.142h-0.309l-0.023,0.142h-0.309l-0.023-0.142
	h-0.308v0.142H20.13v-0.142H19.8l-0.024,0.142h-0.309v-0.142h-0.331l-0.024,0.142H18.8v-0.142h-0.327l-0.024,0.142h-0.284v-0.048
	c-0.018-0.028-0.026-0.061-0.024-0.094h-0.332l-0.024,0.142H17.5v-0.142h-0.377v0.142h-0.285v-0.142h-0.379v0.142h-0.284v-0.142
	H15.82v0.142h-0.308v-0.142h-0.355v0.142h-0.308v-0.142h-0.355v0.142h-0.308v-0.142h-0.355v0.142h-0.308v-0.142h-0.355v0.142h-0.285
	v-0.048c-0.018-0.028-0.026-0.061-0.024-0.094H12.5v0.142c0.095-0.015,0.192-0.007,0.284,0.022H12.22
	c-0.001-0.056-0.009-0.111-0.024-0.165h-0.355V26h-0.284v-0.165h-0.379V26h-0.284v-0.165h-0.379V26h-0.26
	c-0.017-0.053-0.025-0.109-0.024-0.165c-0.126-0.01-0.253-0.01-0.379,0c-0.021,0.044-0.03,0.093-0.024,0.142l-0.355-0.024v-0.164
	H9.426c-0.106-0.04-0.218-0.063-0.332-0.071c0.007,0.072-0.046,0.135-0.118,0.141c-0.008,0.002-0.016,0.002-0.024,0l-0.189-0.07
	c0.022-0.043,0.031-0.093,0.024-0.141c-0.103-0.055-0.216-0.087-0.332-0.095c-0.015,0.052-0.039,0.099-0.071,0.142
	c-0.094-0.021-0.183-0.062-0.261-0.118c0.02-0.038,0.035-0.077,0.047-0.118H8.123c-0.094-0.054-0.2-0.086-0.308-0.094
	c-0.008,0.059-0.043,0.111-0.095,0.141c-0.061-0.045-0.177-0.047-0.237-0.094c0.024-0.044,0.041-0.092,0.047-0.141H7.484
	c-0.092-0.057-0.201-0.08-0.308-0.069c-0.019,0.048-0.052,0.089-0.095,0.118c-0.065-0.045-0.176-0.047-0.237-0.094
	c0.024-0.045,0.041-0.092,0.047-0.142l-0.355-0.094c0.004,0.07-0.048,0.132-0.118,0.141c-0.067-0.038-0.141-0.063-0.218-0.071
	v-0.023c0.024-0.044,0.04-0.092,0.047-0.141C6.127,24.879,6.011,24.847,5.9,24.8c-0.018,0.095-0.017,0.121-0.118,0.142
	c-0.044-0.03-0.125-0.039-0.166-0.071c-0.017-0.054-0.025-0.109-0.024-0.165c-0.114-0.016-0.226-0.047-0.332-0.094
	c-0.007,0.061-0.032,0.117-0.071,0.164c-0.07-0.047-0.153-0.071-0.237-0.07c0.001-0.056,0.009-0.111,0.024-0.165H4.95v-0.022
	l-0.332-0.07c-0.006,0.05-0.021,0.098-0.047,0.141c-0.083-0.019-0.164-0.05-0.237-0.094c-0.013-0.013-0.021-0.029-0.024-0.047
	c0.02-0.036,0.028-0.077,0.024-0.118c-0.058,0.006-0.114,0.021-0.166,0.047c-0.025-0.034-0.042-0.075-0.047-0.118
	c-0.038-0.016-0.08-0.016-0.118,0c-0.024,0.057-0.08,0.094-0.142,0.094c-0.061-0.052-0.155-0.08-0.214-0.14
	c0.042-0.035,0.068-0.086,0.071-0.141H3.671c-0.039-0.011-0.078-0.019-0.118-0.023c-0.025-0.071-0.075-0.13-0.142-0.165
	c-0.023,0.047-0.067,0.082-0.118,0.094v-0.023c-0.088-0.045-0.156-0.121-0.193-0.212c0.049-0.022,0.086-0.065,0.1-0.117
	c-0.04-0.021-0.11-0.038-0.118-0.047c-0.061-0.08,0.007-0.173-0.142-0.212c-0.026,0.025-0.059,0.041-0.095,0.047
	c-0.064-0.081-0.105-0.179-0.118-0.282c0.057,0.002,0.107-0.038,0.118-0.094H2.818c-0.034-0.06,0.005-0.026-0.071-0.047
	c0-0.126,0.007-0.111,0-0.259l-0.166,0.023v-0.048c-0.04-0.08-0.056-0.17-0.047-0.259h0.047c0.028-0.018,0.062-0.026,0.095-0.024
	v-0.116H2.629c-0.162,0.055-0.33,0.095-0.5,0.117c-0.363-0.199-0.57-0.6-0.521-1.012l0.142,0.023l0.142,0.377h0.026v-0.024
	c0.076-0.042,0.134-0.108,0.166-0.188c-0.02-0.1,0.006-0.203,0.071-0.281H1.421v-0.354H1.042c-0.015-0.037-0.022-0.078-0.024-0.117
	c0.168-0.059,0.31-0.176,0.4-0.33c-0.13-0.069-0.237-0.176-0.308-0.306c0.089-0.034,0.177-0.073,0.261-0.118h0.9
	c0.134,0.008,0.268,0.023,0.4,0.047c0.099-0.064,0.167-0.166,0.189-0.281c-0.016-0.019-0.031-0.053-0.047-0.071
	c-0.02,0.032-0.057,0.051-0.095,0.047L2.7,19.766c-0.033-0.063-0.005-0.063,0.024-0.119c-0.109-0.131-0.205-0.272-0.284-0.424h0.023
	c0.047-0.078,0.143-0.062,0.189-0.141c-0.125-0.129-0.237-0.271-0.332-0.424c-0.154,0.04-0.294,0.16-0.45,0.188
	C1.8,18.859,1.819,18.805,1.8,18.8c-0.073-0.02-0.067,0.039-0.095,0.048l-0.237-0.024c0.032,0.071-0.016,0.063,0.118,0.071v0.094
	H1.468v0.094H1.4v-0.094H1.279c0.009-0.039,0.009-0.08,0-0.118c-0.157-0.123-0.346-0.196-0.545-0.212
	c-0.209-0.133-0.387-0.31-0.521-0.518c-0.396-0.706-0.144-1.599,0.562-1.994c0.092-0.052,0.19-0.093,0.291-0.124
	c0.25-0.048,0.506-0.055,0.758-0.022c0.013-0.092,0.045-0.18,0.095-0.259c0.097-0.044,0.203-0.06,0.308-0.047
	c0.297,0.136,0.521,0.393,0.616,0.706c0.027,0.276,0.134,0.538,0.308,0.753c0.192,0.069,0.39,0.116,0.592,0.141
	c0.056,0.021,0.118,0.125,0.166,0.141c0.015,0.005,0.2-0.023,0.261-0.024c0.016-0.045,0.024-0.093,0.024-0.141H4.31
	c0-0.025,0.008-0.05,0.024-0.07v0.071h3.387v0.071c0.589,0.005,1.2-0.138,1.753-0.165c0.019-0.094,0.06-0.183,0.118-0.259
	c0.132,0.026,0.267,0.034,0.4,0.024v-0.118h1.328c0.074-0.05,0.153-0.09,0.237-0.118c0.482,0.148,0.992,0.188,1.492,0.118v0.118
	c0.182-0.006,0.249-0.081,0.426-0.094v0.07h0.189L13.641,16.8h0.047v0.118c0.157,0,0.2,0,0.355,0V16.8h0.024v0.023
	c0.018,0.028,0.026,0.061,0.024,0.094c0.7-0.021,1.91,0.024,2.866,0.024c0.402,0.025,0.807,0.017,1.208-0.024
	c0.249,0.126,0.534,0.159,0.805,0.094c0.124-0.034,0.252-0.042,0.379-0.023V16.8h-2.44c-0.339-0.302-0.695-0.585-1.066-0.847H15.8
	c-0.044,0.163-0.135,0.311-0.261,0.424c-0.044,0.021-0.094,0.029-0.142,0.023c-0.256-0.237-0.988-0.494-0.995-0.918l0.189-0.353
	c-0.026-0.014-0.044-0.041-0.047-0.071c0.1-0.008,0.087,0,0.118-0.071c0.013-0.013,0.021-0.029,0.024-0.047H14.66
	c-0.027,0.037-0.073,0.055-0.118,0.047c-0.08-0.026-0.078-0.027-0.095-0.118c0.053-0.079,0.093-0.167,0.118-0.259l-0.024-0.118
	c0.029-0.018,0.054-0.042,0.071-0.071c-0.033,0,0.01,0.019-0.024,0.024c-0.018,0.045-0.024-0.047-0.024-0.047
	c0.147-0.125,0.306-0.235,0.474-0.329c0.038,0.014,0.071,0.039,0.095,0.071l-0.047,0.141h0.047c0.12-0.405,0.538-0.643,0.947-0.541
	c0.245,0.143,0.507,0.254,0.781,0.329c0.068-0.109-0.042-0.343,0.024-0.471c0.109-0.088,0.205-0.191,0.284-0.306L17.194,10h0.024
	v0.024c0.046,0.296,0.054,0.596,0.024,0.894l0.023,2.282h0.024c0.059-0.125,0.202-0.185,0.332-0.141
	c0.226-0.049,0.458-0.057,0.687-0.024L19.846,12.988z"/>
</svg>
