<?xml version="1.0" encoding="utf-8"?>
<!-- Generator: Adobe Illustrator 16.0.0, SVG Export Plug-In . SVG Version: 6.00 Build 0)  -->
<!DOCTYPE svg PUBLIC "-//W3C//DTD SVG 1.1//EN" "http://www.w3.org/Graphics/SVG/1.1/DTD/svg11.dtd">
<svg version="1.1" id="Layer_1" xmlns="http://www.w3.org/2000/svg" xmlns:xlink="http://www.w3.org/1999/xlink" x="0px" y="0px"
	 width="40px" height="40px" viewBox="0 0 40 40" enable-background="new 0 0 40 40" xml:space="preserve">
<path id="uk_charioteer_mk_7_ico" fill="#FFFFFF" d="M14.668,12.862c0.06,0.038,0.13,0.054,0.2,0.045
	c-0.009,0.067-0.001,0.136,0.023,0.2c0.034-0.018,0.073-0.026,0.112-0.022c0,0.024,0.008,0.048,0.023,0.067
	c0.035-0.018,0.073-0.025,0.112-0.022l0.09-0.224c0.086-0.075,0.105,0.051,0.135-0.134h0.495v0.134c0.292-0.019,0.585-0.019,0.877,0
	c-0.003-0.068,0.004-0.135,0.023-0.2h0.045c-0.022,0.07-0.005,0.146,0.045,0.2v-0.133h0.495v0.09
	c0.061,0.013,0.115,0.043,0.157,0.089c0.028,0.05,0.05,0.103,0.067,0.157c0.042,0.02,0.089,0.028,0.135,0.022
	c-0.009-0.171-0.001-0.344,0.022-0.514c0.253-0.041,0.51-0.048,0.765-0.022V8.254h0.045v4.429c0.054,0.02,0.036,0.024,0.09,0.045
	c0.138-0.044,0.282-0.067,0.427-0.067l0.023-0.067c0.041-0.011,0.035,0.02,0.045,0.022c0.01,0.003,0.135,0.134,0.135,0.134
	c0.01,0.13,0.041,0.259,0.09,0.38h0.296l0.09-0.738l1.081-0.045v0.045c-0.082,0.292-0.134,0.592-0.158,0.895
	c0.646,0.034,1.286,0.131,1.912,0.291c0.012,0.038,0.068,0.358,0.068,0.358c0.086,0.087,0.176,0.169,0.27,0.246
	c0.049,0.108,0.117,0.207,0.201,0.291h0.18c0.308,0.083,0.626,0.122,0.945,0.112c0.748,0.16,1.636-0.026,2.385,0.134h0.765
	c0.376,0.081,0.878-0.063,1.282,0.022c0.344,0.038,0.689,0.046,1.035,0.021c0.5,0,1.062,0.022,1.6,0.022h6.254
	c0.597-0.08,1.2-0.096,1.801-0.045v-0.09h0.606c0.046,0.289,0.054,0.582,0.022,0.872c-0.207,0.035-0.42,0.042-0.629,0.022v-0.09
	c-2.162,0-4.315-0.045-6.524-0.045h-2.88c-0.276,0.032-0.555,0.04-0.832,0.022l-1.125,0.022H27.4l-3.487,0.157v0.026h0.022
	c0.08,0.026,0.164,0.034,0.248,0.022v0.179l-0.811,0.022c-0.027,0.161-0.116,0.305-0.248,0.4c-0.088-0.024-0.182-0.024-0.27,0
	c0.023,0.024,0.039,0.056,0.045,0.089c-0.076,0.025-0.075,0.025-0.09,0.112c0.026,0.11,0.041,0.223,0.045,0.336
	c0.016,0.052,0.069,0.133,0.09,0.2c0.009,0.029-0.008,0-0.022,0.021H22.9c-0.01,0.054-0.002,0.109,0.022,0.157h-0.18v-0.09h-0.336
	v0.179h-0.136v0.053h0.022c0.021,0.014,0.044,0.021,0.067,0.021v0.067c0.086,0.06,0.19,0.083,0.293,0.067
	c0.023-0.025,0.056-0.041,0.09-0.046c-0.001-0.083,0.055-0.157,0.135-0.179l0.021,0.068c0.019,0.033,0.026,0.072,0.022,0.111h0.157
	v0.088c0.178,0.031,0.359,0.039,0.54,0.022c0.013-0.013,0.029-0.021,0.047-0.022c0-0.127,0.022-0.137,0.157-0.134l0.023-0.2h0.045
	c0.233,0.075,0.485,0.075,0.719,0v0.045c-0.027,0.004-0.053,0.021-0.066,0.045c0.189,0.013,0.241,0.101,0.428,0.112v0.132h0.067
	c0.093,0.081,0.19,0.156,0.292,0.225v0.4c0.105,0.09,0.17,0.219,0.18,0.357c-0.062,0.063-0.107,0.14-0.135,0.225h1.553v-0.045
	c0.028-0.094,0.036-0.193,0.022-0.291c-0.032,0.003-0.063-0.005-0.091-0.021c0.058-0.033,0.035-0.01,0.046-0.09
	c-0.066-0.021-0.105-0.09-0.091-0.157c0.088-0.058,0.189-0.089,0.293-0.089l0.022,0.066c0.03,0.066,0.022,0.143-0.022,0.2h-0.067
	v0.067l0.135,0.021v0.112c0.021,0.058,0.021,0.121,0,0.179c0.093-0.023,0.19-0.007,0.271,0.045h0.225
	c0.25-0.025,0.502-0.003,0.742,0.067c0.186,0.087,0.365,0.185,0.54,0.291c0.179,0.159,0.366,0.309,0.562,0.446
	c-0.218,0.346-0.354,0.736-0.399,1.142c-0.08,0.017-0.131,0.096-0.114,0.176c0,0.001,0.001,0.002,0.001,0.003
	c0.023,0.05,0.038,0.104,0.045,0.157H29.2v0.179c-0.054,0.002-0.106,0.009-0.157,0.022v0.157c-0.027,0.035-0.016,0.011,0,0.045
	c0.018,0.015,0.05,0.029,0.066,0.045c-0.018,0.02-0.033,0.042-0.045,0.066c0.032-0.002,0.063,0.006,0.091,0.022
	c-0.06,0.08-0.024,0.139-0.158,0.157v0.066h-0.043c-0.007,0.018,0.008,0.228,0,0.269c-0.063,0.032-0.123,0.069-0.181,0.112
	c-0.055-0.008-0.107-0.022-0.157-0.045c-0.064,0.047-0.118,0.108-0.157,0.178c0.028,0.034,0.051,0.072,0.066,0.113
	c-0.069,0.036-0.146,0.059-0.225,0.066c-0.02-0.044-0.064-0.07-0.113-0.066c-0.08,0.033-0.146,0.098-0.18,0.178
	c0.026,0.027,0.049,0.058,0.067,0.091c-0.051,0.009-0.098,0.031-0.136,0.067c-0.057-0.037-0.116-0.066-0.18-0.09
	c-0.081,0.034-0.146,0.098-0.18,0.18c0.035,0.041,0.042,0.045,0.021,0.09c-0.044,0.041-0.098,0.072-0.156,0.089
	c-0.027-0.062-0.092-0.097-0.157-0.089c-0.065,0.03-0.115,0.088-0.136,0.156c0.045,0.057,0.031,0.037,0.023,0.112l-0.199,0.067
	c-0.023-0.055-0.076-0.09-0.136-0.09c-0.087,0.023-0.155,0.092-0.18,0.179c0.062,0.028,0.024,0.012,0.045,0.089
	c-0.058,0.021-0.118,0.037-0.181,0.045c-0.034-0.057-0.059-0.088-0.112-0.066c-0.095,0.002-0.176,0.065-0.2,0.156
	c0.025,0.033,0.047,0.068,0.023,0.09c-0.024,0.021-0.064,0.041-0.09,0.066c-0.059-0.018-0.107-0.058-0.136-0.111
	c-0.114,0.01-0.212,0.089-0.247,0.199c0.019,0.02,0.033,0.043,0.045,0.067c-0.047,0.028-0.102,0.044-0.158,0.045
	c-0.042-0.045-0.096-0.076-0.156-0.09c-0.063,0.043-0.131,0.081-0.2,0.112l0.067,0.133c-0.055,0.033-0.117,0.049-0.18,0.045
	c-0.033-0.056-0.093-0.09-0.158-0.09c-0.068,0.032-0.129,0.078-0.18,0.135c0.023,0.033,0.039,0.071,0.045,0.111
	c-0.047,0.029-0.102,0.045-0.158,0.045c-0.051-0.057-0.123-0.089-0.199-0.09l-0.2,0.067c0,0.101,0.024,0.128-0.022,0.157
	c-0.058,0.022-0.119,0.029-0.181,0.021c-0.062-0.139-0.129-0.144-0.338-0.134c-0.022,0.156,0,0.162-0.2,0.156
	c-0.057-0.14-0.082-0.167-0.293-0.156c-0.066,0.142-0.009,0.161-0.248,0.156c-0.031-0.156-0.125-0.146-0.314-0.134v0.134h-0.2
	v-0.042c-0.017-0.027-0.025-0.059-0.023-0.09h-0.27l-0.023,0.134H22l-0.021-0.134H21.71c-0.015,0.043-0.022,0.088-0.022,0.134
	h-0.201c-0.031-0.156-0.125-0.146-0.314-0.134v0.134h-0.199c-0.054-0.144-0.113-0.146-0.315-0.134v0.111
	c-0.065,0.018-0.133,0.025-0.2,0.022c-0.053-0.144-0.111-0.146-0.315-0.134v0.045c-0.017,0.026-0.025,0.058-0.023,0.089h-0.2
	l-0.023-0.134h-0.27c-0.015,0.043-0.023,0.088-0.023,0.134h-0.2c-0.032-0.156-0.126-0.146-0.315-0.134v0.134h-0.2
	c-0.053-0.144-0.111-0.146-0.315-0.134l-0.022,0.134h-0.18c-0.053-0.144-0.112-0.146-0.315-0.134
	c-0.015,0.043-0.023,0.088-0.023,0.134h-0.2L17.8,24.359h-0.27c-0.016,0.043-0.023,0.088-0.023,0.134H17.3
	c-0.032-0.156-0.125-0.146-0.315-0.134v0.134h-0.2c-0.054-0.144-0.112-0.146-0.315-0.134l-0.022,0.134h-0.2l-0.022-0.134h-0.27
	c-0.015,0.043-0.022,0.088-0.022,0.134h-0.2c-0.032-0.156-0.126-0.146-0.315-0.134v0.134h-0.2c-0.032-0.156-0.126-0.146-0.315-0.134
	v0.134h-0.2c-0.053-0.144-0.112-0.146-0.315-0.134v0.045c-0.017,0.026-0.025,0.058-0.023,0.089h-0.2l-0.023-0.134h-0.27
	c-0.015,0.043-0.022,0.088-0.022,0.134h-0.2c-0.032-0.156-0.126-0.146-0.315-0.134v0.134h-0.2c-0.032-0.156-0.126-0.146-0.315-0.134
	l-0.023,0.134H12.6c-0.053-0.144-0.112-0.146-0.315-0.134c-0.015,0.043-0.023,0.088-0.023,0.134h-0.2l-0.023-0.134h-0.27
	c-0.015,0.043-0.023,0.088-0.023,0.134h-0.2c-0.032-0.156-0.126-0.146-0.315-0.134v0.134h-0.2c-0.053-0.144-0.112-0.146-0.315-0.134
	l-0.023,0.134h-0.18c-0.032-0.156-0.126-0.146-0.315-0.134v0.134h-0.2c-0.053-0.144-0.112-0.146-0.315-0.134L9.66,24.493h-0.2
	l-0.022-0.134H9.156c-0.015,0.043-0.022,0.088-0.022,0.134h-0.2c-0.032-0.156-0.126-0.146-0.315-0.134v0.134h-0.2
	c-0.032-0.156-0.126-0.146-0.315-0.134v0.134H7.9c-0.034-0.095-0.025-0.128-0.157-0.134C7.699,24.338,7.649,24.33,7.6,24.337
	c-0.053,0.151-0.017,0.162-0.247,0.156l-0.022-0.134c-0.081-0.02-0.164-0.027-0.247-0.022c-0.031,0.046-0.047,0.101-0.045,0.156
	h-0.2c-0.017-0.101-0.021-0.144-0.135-0.156c-0.065-0.023-0.135-0.03-0.204-0.021c-0.014,0.048-0.037,0.094-0.067,0.134l-0.2-0.067
	l-0.022-0.179l-0.2-0.045c-0.012,0.049-0.044,0.09-0.09,0.112l-0.18-0.067c0.023-0.063,0.006-0.135-0.045-0.179
	c-0.037-0.033-0.085-0.05-0.135-0.045c-0.033,0.035-0.063,0.072-0.09,0.111c-0.058-0.04-0.149-0.046-0.2-0.09
	c0.021-0.049,0.029-0.104,0.022-0.157l-0.225-0.067c-0.022,0.092-0.026,0.101-0.135,0.113c-0.03-0.03-0.07-0.047-0.112-0.046v-0.179
	c-0.06-0.039-0.128-0.063-0.2-0.066c-0.078,0.064-0.015,0.088-0.112,0.111c-0.03-0.027-0.081-0.041-0.112-0.066
	c-0.023-0.057-0.03-0.119-0.022-0.18c-0.11-0.016-0.127-0.055-0.247-0.066c-0.035,0.08-0.005,0.093-0.09,0.111
	c-0.033-0.023-0.072-0.039-0.112-0.045c-0.013-0.061-0.032-0.121-0.056-0.179c-0.074-0.068-0.17-0.108-0.27-0.112
	c-0.005,0.041-0.021,0.079-0.045,0.112c-0.05-0.038-0.131-0.05-0.18-0.089c-0.023-0.037-0.022-0.145-0.045-0.182
	c-0.055-0.049-0.127-0.072-0.2-0.066c-0.021,0.046-0.063,0.079-0.112,0.09c-0.038-0.035-0.084-0.059-0.135-0.066
	c0.003-0.061-0.005-0.121-0.023-0.18c-0.055-0.051-0.125-0.082-0.2-0.089c-0.031,0.037-0.069,0.067-0.112,0.089
	c-0.067-0.04-0.117-0.104-0.141-0.177c0.02-0.042,0.027-0.089,0.022-0.134c-0.061-0.034-0.114-0.08-0.157-0.135
	c-0.046,0.032-0.101,0.048-0.157,0.045c-0.042-0.044-0.073-0.098-0.09-0.156c0.051-0.054,0.075-0.127,0.067-0.2H2.07v-0.025
	c-0.193,0.067-0.407-0.007-0.517-0.179c-0.053-0.113-0.053-0.244,0-0.357C1.279,21.341,1,21.182,0.742,21.027
	c-0.075-0.048-0.159-0.078-0.247-0.09c-0.114,0.021-0.232,0.006-0.337-0.045C0.099,20.808,0.046,20.718,0,20.624
	c0.295-0.187,0.534-0.466,0.81-0.671c0.208-0.121,0.397-0.271,0.562-0.447c-0.019-0.012-0.034-0.026-0.045-0.045
	c0.079-0.086,0.17-0.162,0.27-0.225c0.013,0.025,0.039,0.043,0.067,0.046v-0.466c-0.043-0.041-0.052-0.106-0.022-0.157H0.607v-0.228
	c0.268-0.088,0.525-0.209,0.765-0.357c0.095-0.012,0.187-0.043,0.27-0.09c0.006-0.117,0.037-0.231,0.09-0.336H1.485v-0.045
	c0.091-0.029,0.178-0.111,0.27-0.134c0.05-0.005,0.099,0.012,0.135,0.046h0.7c0.001-0.121-0.014-0.24-0.045-0.357
	c-0.342,0.075-0.697,0.068-1.035-0.022h0.132v-0.157c-0.046,0.006-0.093-0.002-0.135-0.022c0.285-0.013,0.571-0.005,0.855,0.022
	c0.269,0.023,0.471-0.033,0.675,0V17H3.06c0.019,0.074,0.034,0.148,0.045,0.225H3.06v0.245c0.078,0.011,0.154,0.033,0.225,0.067
	l0.292-0.021v-0.158h0.45v0.158h0.54c0.05-0.212,0.306-0.168,0.562-0.156c0.013,0.061,0.045,0.115,0.09,0.156
	c0.207,0.047,0.421,0.054,0.63,0.022c-0.003-0.101-0.026-0.2-0.067-0.291h0.09c0.038-0.03,0.089-0.039,0.135-0.022
	c0.012,0.046,0.027,0.091,0.045,0.135h0.4c0.054,0.117,0.034,0.183,0.225,0.179c0.082-0.25,0.227-0.192,0.54-0.179
	c0.03-0.004,0.061-0.004,0.09,0c0.023,0.049,0.032,0.103,0.027,0.156h0.428c0.028-0.037,0.091-0.054,0.112-0.09
	c0.021-0.035,0-0.066,0.022-0.089v0.022c0.014,0.02,0.022,0.043,0.022,0.066c0.465,0,0.549,0.087,0.99,0.09
	c0.023-0.082,0.015-0.078,0.112-0.09c0.04,0.076,0.042,0.09,0.159,0.09c0.049,0.021,0.104,0.029,0.157,0.022v-0.2
	c-0.038,0.021-0.085,0.012-0.112-0.021c0.049-0.076,0.087-0.159,0.112-0.246c0.028-0.014,0.072-0.061,0.09-0.067h0.225
	c0.02-0.021,0.036-0.044,0.049-0.069l0.45,0.021c0.011,0,0.051-0.063,0.067-0.067c0.209-0.034,0.424-0.026,0.63,0.022
	c0.255-0.057,0.523-0.033,0.765,0.066c0.073,0.109,0.127,0.23,0.158,0.358c-0.017,0.002-0.033,0.01-0.045,0.022
	c-0.119-0.019-0.24-0.025-0.36-0.022v0.2l0.244-0.02c0.01-0.054,0.058-0.093,0.113-0.09v0.022h0.022v0.067
	c0.539,0.049,1.081,0.049,1.62,0v-0.09c0.016-0.026,0.024-0.058,0.021-0.089h0.068c0.011-0.019,0.026-0.034,0.045-0.045V17.27
	h-0.136v-0.18c-0.608-0.092-1.199-0.272-1.755-0.537h-0.36c-0.406,0.023-0.813,0.008-1.215-0.045c0.022,0.034,0.022,0.078,0,0.112
	c-0.042,0.021-0.089,0.027-0.135,0.022l-0.022-0.067c-0.092-0.148,0.07-0.5,0-0.716c-0.039,0.029-0.086,0.044-0.135,0.045
	c-0.055-0.111-0.078-0.235-0.067-0.358c-0.066-0.134-0.066-0.291,0-0.425l-0.4-0.067v-0.045l0.4-0.067
	c0.007-0.152-0.016-0.304-0.067-0.447h0.067v-0.246c0.035-0.053,0.094-0.087,0.157-0.09c0.044,0.037,0.099,0.061,0.157,0.067v-0.4
	c0.027-0.026,0.057-0.049,0.09-0.067c0.242-0.061,0.492-0.091,0.742-0.09c0.342-0.078,0.738-0.041,1.1-0.134
	c0.211-0.068,0.431-0.106,0.652-0.112v-0.046c0.018-0.034,0.026-0.073,0.021-0.112c0.22-0.012,0.426-0.076,0.63-0.09l0.022-0.112
	c0.05-0.022,0.113-0.075,0.158-0.09c0.283-0.002,0.563-0.047,0.832-0.134c-0.105-0.132-0.139-0.308-0.09-0.47
	c-0.082-0.09-0.194-0.146-0.315-0.156c-0.045-0.051-0.117-0.069-0.18-0.045v-0.111h0.18V11.99h0.157
	c0.062-0.1,0.175-0.143,0.225-0.246c-0.053-0.035-0.086-0.094-0.09-0.157h0.023v-0.022H14.2c0.022,0.057,0.052,0.109,0.09,0.157
	c0.09-0.047,0.191-0.07,0.293-0.067v0.895c-0.067,0.004-0.135-0.004-0.2-0.022v0.112c0.087,0.064,0.144,0.161,0.158,0.268
	c0.119-0.444,0.15-0.908,0.09-1.364v-3.78c0.032-0.052,0.012-0.194,0.045-0.246v5.346L14.668,12.862z"/>
</svg>
