<svg xmlns="http://www.w3.org/2000/svg" width="39.969" height="40" viewBox="0 0 39.969 40">
  <defs>
    <style>
      .cls-1 {
        fill: #fff;
        fill-rule: evenodd;
      }
    </style>
  </defs>
  <path id="Color_Fill_1" data-name="Color Fill 1" class="cls-1" d="M14.095,16.635V16.306a5.294,5.294,0,0,1,1.361-.047V16.118a2.438,2.438,0,0,1,.972-0.094c0.152,0.26.592-.036,0.68,0.094a2.012,2.012,0,0,0,.826.141,8.122,8.122,0,0,1,.049-2.024v2.024l0.68,0.047a0.826,0.826,0,0,1,.1-0.188c0.088,0.227.2,0.122,0.389,0.235-0.351.007-.49,0-0.875,0V16.4c0.12,0.061.033-.02,0.1,0.094H17.983v0.941h0.778c0.074-.024.169-0.17,0.243-0.188l0.486,0.094v0.141a2.809,2.809,0,0,0-.437,0,0.168,0.168,0,0,0-.049.094h1.021c0.184,0.108.644-.016,0.826,0.094a0.389,0.389,0,0,1,.146.282,2.74,2.74,0,0,0,.923-0.141,0.836,0.836,0,0,1,.049.282,8.889,8.889,0,0,1,2.527.471v0.094a0.545,0.545,0,0,0-.243.094H24.3a2.646,2.646,0,0,0,.583.047c1.134,0.25,2.665-.108,3.937.094a8.41,8.41,0,0,0,1.993,0l1.6,0.047,0.049-.094c0.341-.1,1.427.183,1.9,0.047l0.049-.094a0.342,0.342,0,0,1,.243.141h0.778l3.451,0.047V18.941a0.363,0.363,0,0,1-.243-0.188h1.118a0.46,0.46,0,0,0,.194.282,1.361,1.361,0,0,1,0,.518H38.979a3.832,3.832,0,0,1-1.312.047l-3.013.047a18.039,18.039,0,0,1-3.645,0c-2.1,0-3.886.04-6.124,0.094a0.224,0.224,0,0,1-.049.141,10.323,10.323,0,0,1-2.333.047c-0.058.037-.234,0.056-0.292,0.094a11.872,11.872,0,0,1,2.916.282,4.694,4.694,0,0,0,1.118.235c-0.14-.053-0.09-0.008-0.146-0.141a5.371,5.371,0,0,1,1.021-.047c0.117,0.03.32,0.162,0.437,0.188a2.269,2.269,0,0,1,.535,0,8.048,8.048,0,0,1,.826.706,3.19,3.19,0,0,0,.389.094,2.5,2.5,0,0,0,.292.988l-0.583.047v0.094c0.526,0.8-.725,1.484-1.069,1.694-0.568.346-1.161,0.677-1.75,1.035a5.551,5.551,0,0,1-1.118.659,9.957,9.957,0,0,1-2.527.047H8.943a5.854,5.854,0,0,1-1.507-.047,6.874,6.874,0,0,1-1.312-.753A19.563,19.563,0,0,1,4.18,24.024,1.758,1.758,0,0,1,3.937,23.6a0.817,0.817,0,0,0-.34-0.094,1.8,1.8,0,0,0-.437-0.565,0.322,0.322,0,0,1-.243-0.047C3,22.8,3.03,22.664,3.111,22.565c0.079,0.124.036,0.115,0.146,0.094,0.12-.061.033,0.02,0.1-0.094a0.426,0.426,0,0,1-.146-0.141c0.164-.035.14,0.029,0.194-0.094H3.354V22.282a0.987,0.987,0,0,1-.583.141,0.16,0.16,0,0,0-.049-0.094,2.606,2.606,0,0,0,.1-0.612h-0.1v0.047H2.673a0.6,0.6,0,0,0-.583.094,0.4,0.4,0,0,0-.146-0.282,4.418,4.418,0,0,1-.826.329,1.886,1.886,0,0,1-.826-0.941,0.31,0.31,0,0,1-.049-0.188H0.1a0.657,0.657,0,0,1-.049.235H0V20.777l0.146-.471a0.3,0.3,0,0,0,.194,0,0.5,0.5,0,0,0,.194-0.471,0.235,0.235,0,0,0,.049-0.141,5.149,5.149,0,0,1,1.409.141V19.694c0.536-.016,1.354,0,2.139,0V19.412a0.783,0.783,0,0,1,.243-0.047v0.329a13.4,13.4,0,0,1,1.507-.047,3.442,3.442,0,0,0,1.264.047L7.193,19.6l0.923,0.094a0.413,0.413,0,0,0,.194-0.141H9.866c0.364,0.1.807,0.359,1.215,0.471a3.446,3.446,0,0,0,1.264-.094,0.351,0.351,0,0,1,.243.094H13.9V19.977a0.406,0.406,0,0,0-.146-0.188,8.681,8.681,0,0,0-1.6-.141,7.951,7.951,0,0,0-1.555-.094H9.915a15.7,15.7,0,0,0-2.527-.235,6.489,6.489,0,0,1-.049-1.129,1.646,1.646,0,0,1,.486-0.047,1.49,1.49,0,0,0,.1.282V18.094a0.419,0.419,0,0,0,.243-0.047,0.289,0.289,0,0,1-.194-0.329,0.511,0.511,0,0,1,.049-0.282,0.754,0.754,0,0,1,.389-0.141,0.4,0.4,0,0,1,.292.235,0.378,0.378,0,0,1,.049.377,1.43,1.43,0,0,0,.437,0C9.2,18.025,9.158,17.98,9.332,18a0.842,0.842,0,0,1,.389-0.094c0.246,0.042,0,.05.243,0.094l-0.049-.141a0.308,0.308,0,0,0,.34-0.141,1.322,1.322,0,0,0,.1-0.235H10.4v0.047c0.083,0.125-.055.171,0.194,0.235a0.7,0.7,0,0,0,.1-0.188,11.519,11.519,0,0,0,.1-2.541,2.466,2.466,0,0,1,.049-0.988,32.655,32.655,0,0,1,0,3.294,0.308,0.308,0,0,1,.1.329c0.307-.012.38-0.089,0.729-0.094V17.482c-0.028-.075.049-0.65,0.049-0.941V14h0.1v0.047a3.072,3.072,0,0,0,0,1.223,7.188,7.188,0,0,0,.049,2.259h0.049a0.252,0.252,0,0,1,.146-0.047c0.021,0.13.163,0.1,0.437,0.094a1.474,1.474,0,0,1,.875-0.282V17.106a0.9,0.9,0,0,1-.146-0.188,0.931,0.931,0,0,0,.438-0.282A3.153,3.153,0,0,1,14.095,16.635Zm3.5-.282a0.336,0.336,0,0,0,.34,0h-0.34Zm-2.527.094a0.914,0.914,0,0,0-.437.047,1.019,1.019,0,0,1,.437.094V16.447Zm2.187,0.094v0.376H16.817v0.047a1.036,1.036,0,0,1,.292.377,0.3,0.3,0,0,1,.049-0.188,0.777,0.777,0,0,0,.049.282,3.477,3.477,0,0,1,.68,0,8.4,8.4,0,0,0,.049-0.941Zm-3.84.424a0.178,0.178,0,0,0,.1.047A0.177,0.177,0,0,0,13.414,16.965ZM16.865,17.2l0.049,0.141h0.049V17.294h0.049V17.247H16.962A0.177,0.177,0,0,0,16.865,17.2Zm-8.554.377a0.393,0.393,0,0,0-.1.141H8.165v0.047H8.214a0.284,0.284,0,0,0,.292.094l0.049-.141H8.505A0.266,0.266,0,0,0,8.311,17.577Zm13.463,0.329V18H21.92V17.906H21.774ZM7.825,19.224v0.094H7.971V19.271Zm-6.318.612a0.563,0.563,0,0,0,.146.094V19.835H1.507Zm0.68,1.459v0.094H2.236V21.294H2.187Zm0.68,0.141H2.673v0.047a0.366,0.366,0,0,1,.146.141V21.577A0.235,0.235,0,0,0,2.868,21.435Zm-0.437.047a0.188,0.188,0,0,0,.146.094V21.529Zm26.634,0c0.081,0.053.052,0.083,0.1,0h-0.1Zm-26,.894a0.168,0.168,0,0,1,.049.094H3.062V22.377Zm0.292,0.094a0.177,0.177,0,0,0,.1.047A0.177,0.177,0,0,0,3.354,22.471Zm-0.194.047h0.1v0.047A0.168,0.168,0,0,1,3.159,22.518Zm-0.243.141a0.168,0.168,0,0,1,.049.094H2.916V22.659Zm0.632,0.047a0.671,0.671,0,0,0,.194.329,0.136,0.136,0,0,0,.049.047V22.988C3.686,22.907,3.653,22.787,3.548,22.706Zm-0.437.282a0.182,0.182,0,0,1,.1.141H3.159V23.082A0.168,0.168,0,0,1,3.111,22.988Zm25.176,0-0.049.235h0.1V23.129a0.182,0.182,0,0,0,.1-0.141H28.287Zm-24.836.047a0.178,0.178,0,0,0,.1.047A0.177,0.177,0,0,0,3.451,23.035Zm23.524,0.894a0.9,0.9,0,0,1-.632.094,0.928,0.928,0,0,1-.437.047v0.094a0.78,0.78,0,0,1,0,.518h0.049a3.9,3.9,0,0,1,1.215-.706V23.929H26.975Zm-20.462.094a2.555,2.555,0,0,1-1.021.047v0.047h0.1a2.931,2.931,0,0,0,1.021.565,1.937,1.937,0,0,1,0-.659h-0.1Zm2.77,0.047a1.631,1.631,0,0,1-.437,1.224H10.79V25.247a1.1,1.1,0,0,1-.389-1.177H9.283Zm3.791,0a1.631,1.631,0,0,1-.437,1.224h1.215V25.247a1.24,1.24,0,0,1-.389-1.177H13.074Zm3.062,0a1.432,1.432,0,0,1-.437,1.224h1.8V25.247a1.17,1.17,0,0,1-.389-1.177H16.136Zm3.645,0a1.6,1.6,0,0,1-.437,1.224H20.51V25.247a1.209,1.209,0,0,1-.389-1.177h-0.34Zm3.013,0a1.431,1.431,0,0,1-.437,1.224H23.67V25.247a1.21,1.21,0,0,1-.437-1.177H22.795Z" transform="translate(0 0.016)"/>
</svg>
