<?xml version="1.0" encoding="utf-8"?>
<!-- Generator: Adobe Illustrator 16.0.0, SVG Export Plug-In . SVG Version: 6.00 Build 0)  -->
<!DOCTYPE svg PUBLIC "-//W3C//DTD SVG 1.1//EN" "http://www.w3.org/Graphics/SVG/1.1/DTD/svg11.dtd">
<svg version="1.1" id="Layer_1" xmlns="http://www.w3.org/2000/svg" xmlns:xlink="http://www.w3.org/1999/xlink" x="0px" y="0px"
	 width="39.875px" height="40px" viewBox="0 0 39.875 40" enable-background="new 0 0 39.875 40" xml:space="preserve">
<path id="Color_Fill_1" fill="#FFFFFF" d="M16.43,13.057c0.297-0.109,0.63-0.061,0.885,0.127H16.43c0.021,0.399,0.021,0.8,0,1.2
	h0.063c0.125-0.214,0.332-0.1,0.569-0.063v0.195l3.54,0.317c0.73,0.254,1.024,0.991,1.832,1.077c0.292-0.054,0.592-0.054,0.885,0
	c0.359-0.036,0.721-0.015,1.074,0.063c0.548,0.012,1.097-0.009,1.643-0.063l0.758,0.063c1.072-0.102,2.15-0.102,3.223,0h1.453
	c0.506-0.233,1.395,0.072,2.149-0.063c0.466,0.008,0.931,0.051,1.39,0.127c0.313-0.062,0.631-0.083,0.948-0.063
	c0.944,0.101,1.896,0.122,2.844,0.063v-0.066c-0.092-0.026-0.164-0.098-0.19-0.19h1.074l0.063,0.19
	c0.128,0.209,0.173,0.459,0.126,0.7c-1.035-0.036-2.071,0.006-3.1,0.127c-0.212-0.01-0.423-0.031-0.633-0.063
	c-0.785,0.013-1.274,0.02-2.084,0c-0.092,0.053-0.178,0.117-0.254,0.19c-0.354,0.1-1.318-0.174-1.832-0.063
	c-0.381,0.019-0.762-0.002-1.138-0.063H26.73c-1.141-0.039-2.283,0.025-3.412,0.19c-0.594,0.121-1.381-0.183-1.644,0.253
	c0.825,0.225,1.628,0.521,2.4,0.887c0.919,0.144,1.851,0.186,2.78,0.127l0.125,0.38c0.564-0.019,1.127,0.089,1.644,0.317
	c0.307,0.414,0.522,0.89,0.632,1.395c-0.248,0.063-0.51,0.063-0.758,0c-0.082,0.373-0.209,0.734-0.379,1.076H27.93
	c-0.459,0.467-0.993,0.852-1.58,1.141c-0.578,0.488-1.19,0.933-1.834,1.33c-0.609,0.044-1.223,0.044-1.832,0
	c-0.733,0.111-1.591-0.135-2.465,0c-0.65,0.081-1.308,0.081-1.959,0c-1.533-0.285-3.492,0.268-4.929,0
	c-0.401-0.029-0.804-0.008-1.2,0.063c-0.952,0.025-1.9-0.165-2.907-0.063c-0.672,0.071-1.35,0.071-2.022,0
	c-0.674,0.037-1.349,0.037-2.022,0c-0.338-0.088-0.609-0.362-0.885-0.443c-0.592-0.287-1.144-0.648-1.643-1.077
	c-0.531-0.275-1.038-0.596-1.515-0.958c-0.127-0.281-0.212-0.58-0.253-0.887c0.117-0.191,0.183-0.41,0.19-0.633H0.758
	c-0.246-0.084-0.512-0.084-0.758,0c-0.051-0.322-0.007-0.652,0.126-0.951H0V18.82l0.126-0.127c0.02-0.339-0.001-0.68-0.063-1.014
	c0.031-0.089,0.101-0.158,0.19-0.189c0.095-0.06,0.31,0.007,0.442-0.063c0.035-0.068,0.077-0.131,0.126-0.19
	c0.15-0.032,0.307-0.01,0.442,0.063c0.215-0.031,0.846-0.192,1.074-0.253c0.317-0.013,0.635,0.008,0.948,0.063
	c1.278-0.161,2.564-0.246,3.852-0.252c0.6,0.007,2.893,0.293,3.349,0c-0.893,0.002-1.782-0.104-2.649-0.317
	c-0.891-0.213-1.706,0.478-2.085-0.253c-0.141-0.43-0.163-0.889-0.063-1.33l1.074-0.127c0.066,0.026-0.022,0.165,0.19,0.127
	c0.086-0.071-0.052-0.135,0.126-0.127c0.069,0.067,0.158,0.111,0.253,0.127c0.092-0.076,0.177-0.161,0.253-0.253l0.442,0.063
	l0.063-0.19l0.567-0.062c0.01-0.678-0.032-1.356-0.126-2.027h0.063c0.136,0.243,0.185,0.2,0.379,0.063v0.253L8.847,12.74v0.063
	c0.058,0.505,0.058,1.015,0,1.521l0.19,0.064c0.3,0.004,0.598-0.039,0.885-0.127c0.073-0.375,0.094-0.759,0.063-1.14
	c0.096-0.481,0.096-0.976,0-1.457h0.19c-0.076,0.887-0.055,1.779,0.063,2.661h0.063c0.182-0.067,0.377-0.089,0.569-0.063
	c-0.008-0.388,0.056-0.775,0.19-1.14c-0.067,0.179-0.017,0.38,0.126,0.507c0.223-0.313,0.342-0.019,0.7-0.19
	c0.29-0.14,0.016-0.31,0.569-0.317c0.306,0.233,0.706,0.304,1.074,0.19v-0.064h-0.132c-0.07-0.056,0.063-0.063,0.063-0.063
	c0.054-0.078,0.097-0.163,0.126-0.253h-0.063c-0.006,0.048-0.028,0.093-0.063,0.127V12.74c0.118-0.155,0.244-0.304,0.379-0.444
	c0.4,0.164,0.839,0.208,1.264,0.127c-0.053,0.145-0.095,0.293-0.126,0.444c0.437,0.191,0.918,0.257,1.39,0.19
	c-0.098-1.013-0.077-2.033,0.063-3.041V13.057z M8.657,12.357c0.108,0.002,0.215,0.023,0.316,0.063
	c-0.035,0.034-0.079,0.056-0.126,0.063c-0.15,0.176-0.186-0.067-0.19-0.123V12.357z M15.671,13.181c0.136,0.083,0.307,0.083,0.442,0
	H15.671L15.671,13.181z M16.371,13.308c-0.517-0.008-1.031,0.077-1.517,0.253c-0.013,0.128-0.083,0.245-0.19,0.317
	c0.035,0.068,0.077,0.131,0.126,0.19c0.318,0.352,0.805,0.498,1.264,0.38v-0.124c0.109-0.023,0.224,0,0.316,0.063V13.31
	L16.371,13.308z M11.063,13.752c0.052,0.206-0.031,0.1,0.126,0.19V13.88c-0.059-0.047-0.075-0.079-0.13-0.126L11.063,13.752z
	 M26.225,18.316c0.109,0.056,0.082,0.056,0.19,0H26.225z M27.736,20.596c-0.086,0.006-0.172,0.027-0.252,0.063v0.127h0.125
	c0.062,0.016,0.024,0.05,0.063,0C27.714,20.73,27.736,20.664,27.736,20.596z M26.221,21.355c-0.205,0.205-0.441,0.377-0.701,0.506
	c0.054,0.166,0.054,0.343,0,0.508c0.127-0.008,0.254-0.008,0.379,0h0.139c0.048-0.186-0.049-0.266,0.126-0.381
	c0.065,0,0.114,0.033,0.315,0.063c0.052-0.145,0.094-0.292,0.127-0.442c0.268,0.074,0.319,0.207,0.441-0.127
	c-0.363-0.014-0.461-0.105-0.822-0.127H26.221z M3.537,21.672c-0.305,0.102-0.627,0.145-0.948,0.127v0.063
	c0.093,0.069,0.202,0.113,0.316,0.127c0.15-0.143,0.022-0.068,0.253-0.063c-0.062,0.16-0.01,0.34,0.126,0.443
	c0.094-0.107,0.239-0.155,0.379-0.127c-0.062,0.159-0.011,0.341,0.126,0.443h0.066v-0.063c0.122-0.112,0.17-0.284,0.126-0.442
	c-0.03-0.082-0.051-0.168-0.063-0.254C3.837,21.787,3.696,21.693,3.537,21.672z M10.737,22.622h0.2
	c0.012,0.097,0.057,0.185,0.126,0.253c0.076-0.047,0.164-0.068,0.253-0.063c-0.047-0.357-0.068-0.717-0.063-1.078h-0.131
	c-0.124,0.438-0.366,0.832-0.7,1.141h0.126c0.119-0.055,0.047-0.029,0.19,0L10.737,22.622L10.737,22.622z M17.878,21.734
	c-0.002,0.364-0.043,0.727-0.121,1.082h0.063v0.06h0.063c0.007-0.087,0.028-0.173,0.063-0.253h0.191v0.253h0.126
	c0.119-0.054,0.047-0.03,0.19,0c0.007-0.087,0.028-0.173,0.063-0.253h0.121c0.012,0.096,0.057,0.186,0.126,0.253
	c0.101-0.036,0.189-0.103,0.253-0.19c-0.228-0.271-0.38-0.6-0.442-0.949h-0.7L17.878,21.734z M14.339,22.368
	c-0.038,0.166-0.059,0.336-0.063,0.507h0.126c0.119-0.055,0.047-0.029,0.189,0c0.007-0.088,0.029-0.173,0.063-0.253h0.133
	l0.063,0.253h0.063v-0.189c-0.066-0.094-0.109-0.203-0.126-0.316h-0.442L14.339,22.368z M21.984,22.368
	c-0.033,0.167-0.033,0.339,0,0.507c0.102-0.045,0.217-0.045,0.316,0c0.011-0.217-0.112-0.417-0.31-0.506L21.984,22.368z
	 M25.523,22.432c-0.027,0.109-0.07,0.217-0.125,0.316h0.125v-0.063c0.069-0.069,0.071-0.182,0.006-0.254H25.523z M7.457,22.816
	c0.025-0.111,0.068-0.219,0.126-0.317H7.52c-0.112,0.159-0.268,0.222-0.379,0.38h0.126C7.322,22.838,7.389,22.816,7.457,22.816z
	 M6.825,23.259v0.253h0.379v-0.256h0.19c0.068,0.248,0.072,0.243,0.379,0.253c-0.005-0.118,0.074-0.226,0.19-0.253v-0.063
	c-0.581-0.059-1.167,0.028-1.706,0.252v0.063h0.315c0.06-0.215,0.024-0.192,0.253-0.253V23.259z M10.237,23.509v-0.253h0.19
	c0.068,0.248,0.072,0.243,0.379,0.253c0.06-0.215,0.024-0.2,0.253-0.253c-0.001,0.068,0.021,0.136,0.063,0.189
	c0.097,0.053,0.207,0.074,0.316,0.063c-0.001-0.068,0.021-0.136,0.063-0.19v-0.063h0.19v0.253c0.13,0.017,0.262-0.005,0.379-0.063
	c-0.179-0.062-0.236-0.199-0.379-0.252h-1.58c-0.095,0.096-0.18,0.202-0.253,0.316L10.237,23.509L10.237,23.509z M13.902,23.256
	h0.19c0,0.068,0.021,0.136,0.063,0.189c0.097,0.053,0.207,0.074,0.316,0.063c0.06-0.215,0.024-0.2,0.253-0.253
	c-0.001,0.068,0.021,0.136,0.063,0.189c0.097,0.053,0.207,0.074,0.316,0.063c-0.007-0.119,0.039-0.235,0.126-0.317h-1.392
	c-0.078,0.115-0.188,0.203-0.316,0.254v0.063h0.316v-0.063H13.9v-0.189H13.902z M17.757,23.256c0,0.068,0.021,0.136,0.063,0.189
	c0.097,0.053,0.207,0.074,0.316,0.063c0.007-0.087,0.028-0.173,0.063-0.253c0.048,0.006,0.092,0.029,0.126,0.063
	c0.041,0.056,0.063,0.122,0.063,0.19h0.316v-0.063h0.063v-0.189h0.189c0.068,0.248,0.072,0.243,0.379,0.253v-0.126
	c0.041-0.055,0.063-0.121,0.063-0.189h-2.02c-0.08,0.094-0.144,0.201-0.19,0.316h0.316C17.564,23.294,17.529,23.316,17.757,23.256z
	 M21.422,23.509h0.314v-0.063H21.8v-0.189h0.19c0.068,0.248,0.072,0.243,0.379,0.253c0-0.069,0.023-0.138,0.068-0.192v-0.061h0.189
	c-0.001,0.068,0.021,0.136,0.063,0.189v0.063h0.316v-0.253c-0.479-0.086-0.968-0.107-1.453-0.063
	c-0.034,0.033-0.078,0.056-0.126,0.063v0.253H21.422z M8.022,23.256c-0.001,0.068,0.021,0.136,0.063,0.189
	c0.076,0.048,0.164,0.07,0.253,0.063v-0.063c-0.115-0.043-0.221-0.107-0.313-0.189H8.022z M15.352,23.509
	c0.089,0.007,0.178-0.015,0.253-0.063c-0.116-0.043-0.223-0.107-0.316-0.189v0.061c0.042,0.055,0.066,0.123,0.067,0.192H15.352z
	 M19.586,23.382c0.039,0.071,0.11,0.118,0.19,0.127c-0.055-0.052-0.119-0.094-0.187-0.126L19.586,23.382z"/>
</svg>
