<svg xmlns="http://www.w3.org/2000/svg" width="39.969" height="40" viewBox="0 0 39.969 40">
  <defs>
    <style>
      .cls-1 {
        fill: #fff;
        fill-rule: evenodd;
      }
    </style>
  </defs>
  <path id="Color_Fill_1" data-name="Color Fill 1" class="cls-1" d="M19.163,19.624v-0.7c-0.006,0-.173.015-0.1-0.05h0.1c0.02-.178-0.023-0.125.1-0.2a0.363,0.363,0,0,1,.443.149,0.315,0.315,0,0,0-.2.05,1.025,1.025,0,0,1,.493.05,0.618,0.618,0,0,0-.2.05l0.049,0.149H20.2c0.173-.26.718,0.025,1.035-0.1,0.289-.114,1.249.1,1.773,0.05v-0.2a0.338,0.338,0,0,1-.246-0.149,1.384,1.384,0,0,1,.542-0.05v0.447a0.3,0.3,0,0,0-.2.348,1.123,1.123,0,0,1,.394,0,0.433,0.433,0,0,1,.049.249c0.318,0,.372-0.006.69,0a0.434,0.434,0,0,1,.148-0.348c0.167,0.1.295-.082,0.394-0.2a0.388,0.388,0,0,1,.3.149,0.255,0.255,0,0,0-.049.149,0.767,0.767,0,0,0,.246.05v0.3a2.834,2.834,0,0,1,.542.348l0.148-.05a0.708,0.708,0,0,1,.788.4c0.145-.092.07-0.069,0.3-0.05v0.149a1.914,1.914,0,0,1,.837.5,0.3,0.3,0,0,1,0-.3,1.327,1.327,0,0,1,.591-0.05v0.4a0.237,0.237,0,0,0-.148.05s0.142,0.065.1,0.1H28.374a0.8,0.8,0,0,0-.148.646,1.545,1.545,0,0,1,.64.2V21.713a3.467,3.467,0,0,1,.887.1h3V23.4h-2.02a5.382,5.382,0,0,0-.788,0,1.072,1.072,0,0,0-.049.5,9.371,9.371,0,0,0,1.675-.05V23.7h0.936v0.149l3.5-.149a6.673,6.673,0,0,1,1.33,0,0.793,0.793,0,0,1,.049.4,0.255,0.255,0,0,0-.049.149h0.2l-0.049.149a2.653,2.653,0,0,1,1.97,4.177A11.784,11.784,0,0,1,37,30.812a7.419,7.419,0,0,1-2.069,1.541l-0.837.05c-0.785.178-1.731,0.173-2.512,0.348l-1.823.1a11.941,11.941,0,0,1-2.315.1H10.394C9.755,32.8,9,32.628,8.374,32.453l-1.133-.2C5.51,31.6,5.15,29.407,3.547,28.624a3.909,3.909,0,0,0-1.33-.05,0.752,0.752,0,0,1-.1-0.2,2.479,2.479,0,0,1,.246-1.293H2.512a0.235,0.235,0,0,0,.1.249c-0.033-.1-0.038-0.428-0.049-0.447-0.188-.14-0.547-0.109-0.739-0.249a0.18,0.18,0,0,1-.049-0.1c0.07-.134.106-0.522,0.2-0.746h-0.1a0.178,0.178,0,0,1-.1.05c-0.007.187,0.023,0.175-.1,0.249v-0.05a0.255,0.255,0,0,1-.049-0.149c-0.82.028-1.468-.235-1.527-0.945A1.39,1.39,0,0,1,.64,23.5a0.44,0.44,0,0,1,.345-0.05c1.452-.181,1.358.443,2.266,0.746a1.564,1.564,0,0,1,1.182-.149v-0.1a0.169,0.169,0,0,1-.1-0.05h0.3v0.05a0.3,0.3,0,0,0-.1.1H4.581A4.724,4.724,0,0,1,7,23.8l0.493,0.05c0.213-.052.56-0.194,0.739-0.249,0.321-.1.388,0.195,0.69,0.1A6.122,6.122,0,0,1,9.9,23.453a2.137,2.137,0,0,0,.542.1,28.66,28.66,0,0,1,5.665-.149v0.3H15.517v0.05h0.1A1.387,1.387,0,0,0,16.9,24V23.9a0.267,0.267,0,0,1-.2-0.149H16.453a2.456,2.456,0,0,1-.148-0.945h-0.1v0.4a13.331,13.331,0,0,0-2.66,0v-1.84c-0.072-.111.026-0.354-0.049-0.5l-0.148-.05a1.9,1.9,0,0,1,.1-0.646,6.661,6.661,0,0,0,2.857-.348c0.327-.178,1.036.014,1.33-0.2a3.66,3.66,0,0,0,.049-1.343,1.322,1.322,0,0,0,.1-0.8v-8.9A11.324,11.324,0,0,1,17.833,6V18.232a5.364,5.364,0,0,1,.1,1.392h0.1v0.05h0.049v-0.05a2.46,2.46,0,0,0,.246-1.591V14.652a6.374,6.374,0,0,1,.1-1.591c-0.011,2.111-.206,4.919.246,6.613,0.156-.033.143,0.076,0.3,0.05C19.056,19.645,18.976,19.642,19.163,19.624Zm-2.956.6a0.41,0.41,0,0,0,.246-0.05H16.305c-0.041-.161.024-0.076-0.1-0.149v0.2Zm10.246,0.2a0.177,0.177,0,0,0,.1.05A0.177,0.177,0,0,0,26.453,20.42Zm-10.246.149v1.89h0.1v-0.3a1.244,1.244,0,0,1,.148-0.845H16.305v-0.3h0.148V20.569H16.207Zm-2.759.05a0.242,0.242,0,0,0,.049.149V20.619H13.448Zm14.433,2.287a2.384,2.384,0,0,1-.049.7,0.822,0.822,0,0,0-.591.4h0.887a6.331,6.331,0,0,1,1.675-.05,0.712,0.712,0,0,0,.049-0.2,0.893,0.893,0,0,0-.3-0.05,0.25,0.25,0,0,0-.148-0.05V23.9h-0.1V23.652h-0.2a1.3,1.3,0,0,0,0-.7,1.373,1.373,0,0,1-.049.448H29.015v-0.05a0.731,0.731,0,0,0-.148-0.348,0.53,0.53,0,0,0-.3-0.05c0.024,0.161.05,0.182-.148,0.249v-0.05a0.338,0.338,0,0,1-.049-0.2Zm-18.424.646a0.329,0.329,0,0,0,.345,0H9.458ZM2.02,23.6A2.171,2.171,0,0,0,3,24.4V24.3a0.237,0.237,0,0,1-.148-0.05A0.237,0.237,0,0,0,3,24.2,4.182,4.182,0,0,1,2.02,23.6ZM6.7,23.851v0.1H6.749v-0.1H6.7Zm-2.66.5v-0.2l-0.887.1V24.3a0.3,0.3,0,0,1,.1.1A6.417,6.417,0,0,1,4.039,24.348Zm33.645,0.7a0.374,0.374,0,0,0,.246.2v-0.05H37.98a0.177,0.177,0,0,0-.1-0.05A0.351,0.351,0,0,0,37.685,25.044Zm0.591,0.249a0.57,0.57,0,0,0,.148.1v-0.1H38.276Zm-36.207.348c0.016,0.11-.051.054,0.049,0.1A0.171,0.171,0,0,0,2.069,25.641ZM2.02,25.79l-0.148.646H1.921v-0.1A0.719,0.719,0,0,0,2.02,25.79ZM36.9,26.785l-0.1.149C36.815,26.943,37.031,26.8,36.9,26.785Zm1.379,0v0.149h0.3V26.785h-0.3Zm0,0.646h0.3a0.241,0.241,0,0,0-.049-0.149,0.33,0.33,0,0,0-.2-0.05v0.05H38.276v0.149ZM2.414,27.282a0.787,0.787,0,0,0-.049.249H2.414v-0.05A0.146,0.146,0,0,0,2.414,27.282Zm-0.1.994a0.242,0.242,0,0,0,.049.149v0.05H2.512v-0.2h-0.2Zm36.01,0.547a0.754,0.754,0,0,0-.1.2h0.049a0.44,0.44,0,0,1,.148-0.149A0.177,0.177,0,0,0,38.325,28.823Zm-0.985.149a1.245,1.245,0,0,1-1.182.7,1.4,1.4,0,0,1-.542.845,1.041,1.041,0,0,1,.1.646h0.1a4.37,4.37,0,0,1,1.034-.895c0.212-.161.379-0.436,0.591-0.6a1.53,1.53,0,0,0,.64-0.6,0.512,0.512,0,0,0-.3-0.1,0.409,0.409,0,0,1-.2.3A0.356,0.356,0,0,0,37.34,28.972Zm-0.443.249a0.351,0.351,0,0,1-.2.1v0.05h0.2C36.916,29.258,36.942,29.316,36.9,29.221Zm-31.576.3,1.034,1.343H6.4v-0.05l0.148-.448a1.08,1.08,0,0,0,.246-0.3A12.6,12.6,0,0,1,5.32,29.519Zm2.759,0.646a0.65,0.65,0,0,0,.246.547V30.166H8.079Zm24.68,0.05a1.842,1.842,0,0,1,.049,1.044,1.181,1.181,0,0,0-.69.547,1.568,1.568,0,0,0-.148.3h0.148c0.512-.311,1.79-0.006,2.266-0.348a1.036,1.036,0,0,1-.443-1.243H33.892a0.249,0.249,0,0,1-.148.05,0.637,0.637,0,0,1,.049-0.2l-0.1.05v-0.05a0.18,0.18,0,0,1-.049-0.1,0.3,0.3,0,0,0,.1-0.1H33.695A2.747,2.747,0,0,1,32.759,30.216Zm-23.547,0a2.508,2.508,0,0,1-.049.746,1.962,1.962,0,0,1-.542.348H8.128a2.168,2.168,0,0,1-.394.4v0.05L9.8,32.2v-0.05C9.384,31.7,9.937,31,10.148,30.812H10V30.663a0.316,0.316,0,0,0,.2-0.05H10V30.464a0.237,0.237,0,0,0,.148-0.05H10a0.633,0.633,0,0,1,.049-0.2H9.212Zm2.857,0a4.56,4.56,0,0,1,.246,1.044,2.537,2.537,0,0,1-.788.547,1.3,1.3,0,0,1-.246.6h1.232v-0.05a1.059,1.059,0,0,1,.049-1.442c0.038-.034.11-0.065,0.148-0.1a0.2,0.2,0,0,1-.2-0.1,0.873,0.873,0,0,0,.2-0.1,0.2,0.2,0,0,1-.2-0.1,0.869,0.869,0,0,0,.2-0.1,0.618,0.618,0,0,1-.2-0.05C12.512,30.171,12.381,30.189,12.069,30.216Zm3,0.6V30.663a0.316,0.316,0,0,0,.2-0.05h-0.2V30.464a0.237,0.237,0,0,0,.148-0.05,0.64,0.64,0,0,0-.64-0.2v0.1a1.2,1.2,0,0,1,.3.895,2.4,2.4,0,0,1-.443.5,1.521,1.521,0,0,0-.394.1c-0.006.007-.211,0.535-0.246,0.6h1.231v-0.05c-0.585-.394-0.067-1.256.2-1.541H15.074Zm2.069-.6a2.011,2.011,0,0,1,.148,1.243,1.609,1.609,0,0,0-.936.945h1.232v-0.05c-0.574-.445-0.057-1.018.049-1.492a0.238,0.238,0,0,0,.148-0.05,0.2,0.2,0,0,1-.2-0.1,0.873,0.873,0,0,0,.2-0.1,0.2,0.2,0,0,1-.2-0.1,0.869,0.869,0,0,0,.2-0.1H17.636v-0.2H17.143Zm2.512,0a2.908,2.908,0,0,1,.3.994,3.042,3.042,0,0,1-.3.4,1.913,1.913,0,0,0-.542.249v0.2l-0.246.348H20.1v-0.05a1.012,1.012,0,0,1,.2-1.492,1.752,1.752,0,0,1-.148-0.149,0.87,0.87,0,0,0,.2-0.1,0.2,0.2,0,0,1-.2-0.1,0.54,0.54,0,0,0,.148-0.1c-0.172-.075-0.13-0.044-0.1-0.2H19.655Zm5.123,0a4.429,4.429,0,0,1,.246.994,3.033,3.033,0,0,1-.3.4,2.745,2.745,0,0,0-.493.2c-0.063.078-.223,0.48-0.3,0.6h1.182V32.3a1.212,1.212,0,0,1,.2-1.492,0.3,0.3,0,0,1-.1-0.1,0.87,0.87,0,0,0,.2-0.1,0.2,0.2,0,0,1-.2-0.1,0.54,0.54,0,0,0,.148-0.1A0.613,0.613,0,0,0,24.778,30.216Zm3,0.6V30.663a0.316,0.316,0,0,0,.2-0.05h-0.2V30.464a0.236,0.236,0,0,0,.148-0.05c-0.153-.061-0.111-0.019-0.148-0.2H27.291v0.1a0.9,0.9,0,0,1,.246.895,1.824,1.824,0,0,1-.739.646c-0.1.16-.16,0.4-0.246,0.547h1.232v-0.05c-0.606-.386-0.147-1.212.148-1.541H27.783Zm2.069-.6A2.012,2.012,0,0,1,30,31.459a1.664,1.664,0,0,0-.936.895h0.2a4.413,4.413,0,0,1,1.281-.1V32.2a1.079,1.079,0,0,1,.148-1.541,0.306,0.306,0,0,1-.1-0.2,0.169,0.169,0,0,0,.1-0.05c-0.139-.088-0.084-0.057-0.049-0.2H29.852Zm-7.143.646a0.237,0.237,0,0,0,.148-0.05H22.709V30.663a0.237,0.237,0,0,0,.148-0.05H22.709V30.464a0.236,0.236,0,0,0,.148-0.05H22.709V30.265H22.217v0.05a1.49,1.49,0,0,1,.3.845,3.091,3.091,0,0,1-.394.5l-0.443.149v0.249a0.858,0.858,0,0,0-.2.348H22.66V32.3C22.054,31.889,22.636,31.264,22.709,30.862Zm-11.724-.547a1.145,1.145,0,0,0,.493.895V31.16a4.008,4.008,0,0,0-.394-0.8A0.178,0.178,0,0,0,10.985,30.315Zm2.562,0a0.9,0.9,0,0,0,.443.895V31.061a1.894,1.894,0,0,1-.3-0.7Zm2.512,0a1.145,1.145,0,0,0,.493.895v-0.1A1.457,1.457,0,0,0,16.059,30.315Zm2.562,0a0.922,0.922,0,0,0,.443.895v-0.2A1.472,1.472,0,0,0,18.621,30.315Zm2.562,0a1.846,1.846,0,0,0,.049.5,2.4,2.4,0,0,1,.345.4h0.049V31.061A2.4,2.4,0,0,0,21.182,30.315Zm2.512,0a1.19,1.19,0,0,1,.1.348l-0.049.149,0.345,0.4h0.1v-0.1A1.766,1.766,0,0,0,23.695,30.315Zm2.562,0a4.715,4.715,0,0,1,0,.5,1.461,1.461,0,0,1,.394.4H26.7V31.061A2.221,2.221,0,0,0,26.256,30.315Zm2.512,0a1.7,1.7,0,0,1,.049.5l0.345,0.4h0.1v-0.1A1.457,1.457,0,0,0,28.769,30.315Zm3.2,0.547,0.049,0.149h0.049A0.189,0.189,0,0,0,31.97,30.862Z" transform="translate(0 0.5)"/>
</svg>
