<svg xmlns="http://www.w3.org/2000/svg" width="80" height="40" viewBox="0 0 80 40">
  <defs>
    <style>
      .cls-1 {
        fill: #fff;
        fill-rule: evenodd;
      }
    </style>
  </defs>
  <path id="uk_cruiser_hawkins_ico" class="cls-1" d="M53.744,12.391h0.492v0.042H54.154a0.7,0.7,0,0,0-.328.545c0.172,0.271.1,1.8,0.369,1.971a4.071,4.071,0,0,1,.451,0V14.865a0.463,0.463,0,0,0,.041-0.252h0.738v0.042a0.38,0.38,0,0,0,0,.294h0.533v0.8c-0.1.038-.065,0.045-0.164,0.084a2.437,2.437,0,0,1-.944.042,0.668,0.668,0,0,0-.041.21c0.1,0.016.065-.024,0.082,0.126a0.288,0.288,0,0,0-.041.168,1.443,1.443,0,0,1,.287,0V16a5.153,5.153,0,0,1,.615-0.042v0.294a0.308,0.308,0,0,1,.287,0H55.836v0.126h0.369v0.461a1.93,1.93,0,0,0,.9-0.084v0.126a12.6,12.6,0,0,0-2.051.419,1.875,1.875,0,0,0,.082.713,0.865,0.865,0,0,1,.287-0.042c0-.284-0.005-0.341,0-0.587h0.862c0,0.246,0,.3,0,0.587a0.337,0.337,0,0,1,.205.042H56.328v0.21h0.164V18.3c-0.483.025-.394,0.5-0.369,1.007h0.164V19.06h1.149v0.294h0.123a0.445,0.445,0,0,1,.082.252c-0.149.176-.085,0.36-0.41,0.377a2.787,2.787,0,0,0,.082.881c0.037,0.088-.082.731-0.082,0.965h0.656a2.671,2.671,0,0,0-.205-0.671h0.164a4.963,4.963,0,0,0,1.19.084,1.37,1.37,0,0,1,.328.21,7.693,7.693,0,0,0,1.805.084V21.66a4.783,4.783,0,0,0-1.723.126v0.042H61.58a2.846,2.846,0,0,1,1.026,0H63.1l0.041-.084c0.152-.04.133,0.065,0.205,0.084a2.559,2.559,0,0,0,.944-0.084,0.288,0.288,0,0,1,.123-0.252,0.4,0.4,0,0,0,.246.084,0.342,0.342,0,0,1,.123-0.084V21.66h0.369c0.017,0.113.1,0.092,0.328,0.084v0.21h0.739c0-.163-0.027-0.125.205-0.126v0.126h0.615l-0.041.252-0.369.126a0.117,0.117,0,0,0,.041.042,4.873,4.873,0,0,0,1.477.126c0.088,0.2.15,0.224,0.451,0.21a5.635,5.635,0,0,0,1.477.042v0.168a4.452,4.452,0,0,0-1.723.126,0.271,0.271,0,0,0,.041.21c0.148-.049.46-0.053,0.615-0.084V23.3a0.218,0.218,0,0,0-.041.126h0.205l0.082-.252a4.686,4.686,0,0,0,1.108-.126v0.042a0.213,0.213,0,0,0-.082.21c0.072,0.128.086,0.126,0.287,0.126a0.605,0.605,0,0,1,.615-0.042,0.679,0.679,0,0,1,.082-0.252c0,0.164-.02.189,0.082,0.252a2.7,2.7,0,0,0,.246-0.21c-0.021-.1-0.066-0.052.041-0.126a0.471,0.471,0,0,1,.369,0V23.17c0.491,0.007.467-.1,0.9-0.084,0,0.133-.058.078,0.082,0.126,0.149-.087.2,0.045,0.369,0.084V23.17h0.082a0.349,0.349,0,0,1,.205-0.042V23.17a0.217,0.217,0,0,0-.041.126,1.352,1.352,0,0,1,.287,0,0.54,0.54,0,0,0-.041-0.168h0.328c0,0.2.169,0.149,0.451,0.126,0.1-.17.229-0.039,0.369,0,0.046-.141.046-0.139,0.205-0.168a1.175,1.175,0,0,0,.985.126,7.858,7.858,0,0,0,1.969,0h0.821c0.061-.023.1-0.146,0.164-0.168a0.7,0.7,0,0,1,.492.126,0.6,0.6,0,0,0,.328-0.084v0.042H80a22.444,22.444,0,0,1-.862,2.684,28.977,28.977,0,0,1-.9,2.978,26.266,26.266,0,0,1-2.79.042H8.7c-0.383-.611-0.723-0.688-1.723-0.671-0.058.146-.1,0.234-0.164,0.126a1.1,1.1,0,0,1-.123-0.336,2.548,2.548,0,0,0-1.19-.084,0.721,0.721,0,0,1,.246.21,1.812,1.812,0,0,1,.041.713,0.38,0.38,0,0,1-.328.126,10.263,10.263,0,0,1-2.01.042,0.426,0.426,0,0,1-.205-0.168,3.037,3.037,0,0,1-.287-1.426,0.74,0.74,0,0,0,.164-0.126c0.615-.008.865,0.193,1.395,0.21V27.155c-1.39.028-3.441-.1-3.979-0.923a1.824,1.824,0,0,1-.164-1.007,0.368,0.368,0,0,1-.246,0A1.018,1.018,0,0,1,0,25.1c0.035-.079.019-0.031,0-0.126,0.119,0,.057.04,0.123,0a2.288,2.288,0,0,0,.451-0.8,0.338,0.338,0,0,1-.205-0.042H0.574C0.608,24,.554,24.071.656,24.009c0.06,0.107-.009.047,0.123,0.084,0.034-.136-0.02-0.064.082-0.126,0.06,0.107-.009.047,0.123,0.084l0.041-.126c0.129,0.071.058,0.022,0.287,0a0.25,0.25,0,0,0-.082-0.168H1.436V23.8c-0.1.062-.063,0.018-0.082,0.168H1.395c0.1-.1.473-0.052,0.7-0.168a0.613,0.613,0,0,0,.041.21,0.524,0.524,0,0,1,.328,0V23.757H2.79v0.419H2.913V23.757H3.282v0.419H4.759A0.78,0.78,0,0,1,4.8,23.8v0.168H4.964l-0.041.252H5.292V24.135a0.288,0.288,0,0,1-.041-0.168H5.5l-0.041.252H5.621v-0.21H5.908v0.21H6.195v-0.21H6.4c0.012-.206.159-0.138,0.451-0.126v0.042c-0.1.062-.082,0.089-0.082,0.252a7.345,7.345,0,0,0,1.969.042c0.021-.16.057-0.176,0.082-0.335L8.7,23.841a4.04,4.04,0,0,0-1.641-.084V23.589a5.872,5.872,0,0,0,1.764-.042,1.351,1.351,0,0,0,.164-0.21H9.477c0.315-.071.754-0.062,1.067-0.126v0.042a2.593,2.593,0,0,0-.328.965l1.026,0.042V23.128l0.123,0.042V23.086l0.041-.042,0.451,0.042a0.637,0.637,0,0,1,.082.168,2.78,2.78,0,0,1,.041.755h0.082a1.371,1.371,0,0,1,.082-0.713v0.965L13.087,24.3a2.257,2.257,0,0,1,.082-0.587h0.7V23.589h0.082V23.548H13.99c0.046,0.141.046,0.139,0.205,0.168,0.018-.048.047-0.2,0.082-0.084a0.339,0.339,0,0,1,.041.168h0.41a1.274,1.274,0,0,1,.78-0.168,0.339,0.339,0,0,1,.041.168,0.521,0.521,0,0,1,.287.042,1.037,1.037,0,0,0-.041.461c0.23-.013.249-0.073,0.492-0.084V24.093h0.205v0.126H16.7a2.188,2.188,0,0,1,.041-0.839,1.858,1.858,0,0,0,.041.545,0.322,0.322,0,0,1,.164,0V23.38a1.763,1.763,0,0,0,.944-0.168v0.8c0.107,0.012.081,0,.082,0.21,0.475,0,.591,0,1.067,0V23.841H18.092V23.673a5.868,5.868,0,0,0,1.764-.042,1.345,1.345,0,0,0,.164-0.21h0.492c0.316-.071.759-0.063,1.067-0.126v0.042a4.83,4.83,0,0,0-.369,1.007h0.246v-0.21H21.7v0.21l0.328-.042a0.923,0.923,0,0,0,.041-0.294,2.757,2.757,0,0,1,0-.671,2.725,2.725,0,0,1-.615-0.461,0.805,0.805,0,0,0-.533.084V22.876a0.879,0.879,0,0,1,0-.545h0.082v0.084h0.082V22.331a0.861,0.861,0,0,0,.533-0.084H21.087V22.205c0.279,0,.515-0.012.7,0a0.543,0.543,0,0,1,.041-0.168h0.082c0.034,0.136-.02.064,0.082,0.126a1.986,1.986,0,0,1,.246-0.084l0.041,0.252h0.287V22.163h0.082a0.348,0.348,0,0,0,.205.042v0.126h0.656a0.231,0.231,0,0,1,.041-0.21,6.758,6.758,0,0,0,.779.042V21.828c0.618,0,1.031.082,1.682,0.084V21.7a11.384,11.384,0,0,0,1.846-.042,1.13,1.13,0,0,1,.082-0.168h0.41c0.322-.073.8-0.02,1.108-0.126v0.126a4.5,4.5,0,0,0-.328.923H29.5a1.334,1.334,0,0,0,.574.042V22.331H29.99a1.124,1.124,0,0,0-.205-0.084H29.744V22.205h0.041V22.163a0.636,0.636,0,0,0,.287.084,6.093,6.093,0,0,0-.082-0.923h0.123c0-.287-0.068-0.326-0.082-0.587h0.082v0.168h0.123V20.737h0.082v0.252H30.195c0,0.175.1,0.441,0.082,0.5H30.195v0.671h0.041v0.042h0.123V21.576h0.287V21.492a1.436,1.436,0,0,0,.041-0.965h0.205c0.068-1.3.7-2.465,0.78-3.775a0.14,0.14,0,0,1-.082-0.042h0.123l0.041-.252c-0.236-.138-0.463-0.391-0.7-0.5-0.08-.038-0.152,0-0.205-0.042h0.944V15.62h0.164a5.485,5.485,0,0,0-.246-1.594c-0.371-.363-0.636-0.144-0.615-0.965h0.615V13.1h0.041c0.007,0.412.143,0.745,0.123,1.091,0.133,0.035.063-.021,0.123,0.084-0.2.134,0.144,1.125,0.164,1.636h0.861V15.62h0.082v0.335H32.985a5.327,5.327,0,0,1-.779.629,14.688,14.688,0,0,1,.205,1.51c0.216,1.138.284,2.043,0.492,3.271h0.7V21.45a0.907,0.907,0,0,0-.7.126c0.028,0.032.054,0.094,0.082,0.126a0.348,0.348,0,0,0,.205.042c0.111,0.02.446,0.008,0.9,0V21.576H33.764V21.492c-0.054-.115.008-0.1,0.041-0.252a1.251,1.251,0,0,1,.41.084c0.034-.136-0.02-0.064.082-0.126v0.126c0.336-.014.965,0.042,1.477,0.042V21.45H35.323v0.168h0.041a1.211,1.211,0,0,1,.533-0.042v0.755H35.569v0.5H35.61a1.131,1.131,0,0,1,.369-0.084,0.145,0.145,0,0,0,.041.084c-0.091.247-.307,0.441-0.369,0.671h0.164V23.38a0.423,0.423,0,0,1,.246-0.084v0.042H35.939a0.205,0.205,0,0,0,.041.126,0.348,0.348,0,0,0,.205.042c-0.016-.516.04-1.162,0.041-1.8h0.41V21.45h-0.41a0.615,0.615,0,0,1-.246-0.587,3.276,3.276,0,0,1,.574-0.084V20.7a0.461,0.461,0,0,1,.123-0.252,1,1,0,0,0,.041.335c0.1-.02.543-0.017,0.574-0.042,0.109-.168-0.017-0.244.164-0.294v0.042H37.415c-0.079.033,0.082,0.042,0.082,0.042a0.69,0.69,0,0,1,.615-0.378,1.662,1.662,0,0,0,.779.252q0.021,0.4.041,0.8H38.892v0.042a1.417,1.417,0,0,1-.451-0.042v1.384h0.164v0.294h0.082V22.121h0.574a7.123,7.123,0,0,1,.082-0.839c0.62,0,1.25-.007,1.846,0,0,0.591.006,0.874,0,1.384h0.492c0.039-.142.016-0.13,0.164-0.168l-0.123-1.09c-0.056-.037-0.368-0.23-0.246-0.294H40.246V20.276h0.779v0.252h0.533c-0.012-.5-0.116-0.459-0.123-0.923a3.2,3.2,0,0,1-.492-0.168V19.06h0.41V18.976c-0.04-.064-0.223-0.6-0.246-0.671h0.041V18.263c0.109,0.048.086,0.08,0.205,0.126a2.022,2.022,0,0,1,.082-0.587c-0.057-.009.017,0.034-0.041,0.042-0.032.081-.041-0.084-0.041-0.084l0.123-.042a0.709,0.709,0,0,1,.7-0.084,0.358,0.358,0,0,1,.041-0.21v0.084a0.217,0.217,0,0,1,.041.126c0.382,0,.6-0.009.944,0v0.042H43.159c-0.079.032,0.082,0.042,0.082,0.042,0.073,0.051.072,0,.123,0.042a6.741,6.741,0,0,0,.246.713V18.431a0.359,0.359,0,0,1,.123-0.168V18.3a4.407,4.407,0,0,1,.123,1.007,21.018,21.018,0,0,0,.451,2.559,0.842,0.842,0,0,0,.246.126V21.45H45.5a1.074,1.074,0,0,1,.041.336h0.821V21.534H46.031V21.45a0.217,0.217,0,0,1-.041-0.126,0.782,0.782,0,0,1,.369-0.084c0.1,0.116.045,0.018,0.205-.042,0.019,0.092,0,.073.041,0.084a11.477,11.477,0,0,0,1.436.084V21.45H46.974v0.126H46.851a0.118,0.118,0,0,0,.041.042,0.6,0.6,0,0,0-.041.168h0.985v0.042a1.331,1.331,0,0,0,.328.755l-0.041.084h0.41c0.063-.03.006-0.005,0.123,0V21.828h0.082v0.839h0.287a1.007,1.007,0,0,0,.123-0.336,3.5,3.5,0,0,1-.123-0.881c-0.167-.708-0.2-1.551-0.369-2.265a1.668,1.668,0,0,1-.041-0.545,0.544,0.544,0,0,1-.164-0.336V18.263c0.136,0.054.111,0.113,0.246,0.168a0.807,0.807,0,0,1,.123-0.713,5.53,5.53,0,0,1,1.846-.084V17.382h0.164v0.252a0.733,0.733,0,0,1,.369.042H50.913v0.168a1.385,1.385,0,0,1,.615.084,0.35,0.35,0,0,0-.082.126,0.636,0.636,0,0,1,.164.252c0.078-.039.048-0.016,0.164,0v0.168a0.326,0.326,0,0,0,0,.252,0.2,0.2,0,0,1,.123.042H51.774c0.1,1,.42,2.132.451,3.272h0.082V21.66a2.564,2.564,0,0,1,0-.8h0.451c0.006-.748,0-1.14,0-1.762h1.026a18.943,18.943,0,0,0,.615-2.013,1.561,1.561,0,0,0-1.108-.168V16.795h0.041a1.7,1.7,0,0,0,.7.042V16.375h0.164l-0.041-.545a0.605,0.605,0,0,1-.123-0.084L53.99,14.656c-0.222-.886-0.237-1.757-0.369-2.433a2.053,2.053,0,0,1-.574-0.378H53.5V11.678H53.456s-0.054.121-.082,0.084V11.72a0.42,0.42,0,0,1-.123-0.377c0.3-.236-0.037-1,0.164-1.342a4.929,4.929,0,0,0,.041,1.3c0.071-.033.075-0.11,0.123-0.042A2.757,2.757,0,0,1,53.744,12.391ZM30.154,15.7l0.123,0.042v0.042H30.154V15.7Zm0.164,0.126H30.4v0.042A0.14,0.14,0,0,1,30.318,15.83Zm0.123,0.084h0.082v0.042A0.139,0.139,0,0,1,30.441,15.914ZM30.564,16h0.082V16.04A0.14,0.14,0,0,1,30.564,16Zm0.123,0.084h0.082v0.042A0.14,0.14,0,0,1,30.687,16.082Zm0.123,0.084,0.123,0.042v0.042A0.156,0.156,0,0,1,30.81,16.166Zm0.164,0.126h0.082v0.042A0.139,0.139,0,0,1,30.974,16.291ZM31.1,16.375H31.18v0.042A0.14,0.14,0,0,1,31.1,16.375Zm0.123,0.084H31.3V16.5A0.14,0.14,0,0,1,31.221,16.459Zm0.123,0.084h0.082v0.042A0.14,0.14,0,0,1,31.344,16.543Zm0.123,0.084h0.082v0.042A0.14,0.14,0,0,1,31.467,16.627Zm19.774,1.049a0.156,0.156,0,0,1,.123.042C51.263,17.776,51.312,17.734,51.241,17.676Zm0.164,0.084a0.152,0.152,0,0,1,.041.084H51.405V17.759ZM37.867,19.9a0.217,0.217,0,0,1,.041.126H37.867V19.9Zm0.082,0.084c0.046,0.07.073,0.045,0,.084a0.118,0.118,0,0,1-.041.042Zm41.887,0.042h0.082V23H79.836V22A12.279,12.279,0,0,1,79.836,20.024Zm-0.164,2.307a0.152,0.152,0,0,1,.041.084H79.672V22.331Zm-0.041.126a0.152,0.152,0,0,1,.041.084H79.631V22.457Zm-0.041.126a0.152,0.152,0,0,1,.041.084H79.59V22.583Zm-0.041.126a0.152,0.152,0,0,1,.041.084H79.549V22.709Zm-0.041.126a0.152,0.152,0,0,1,.041.084H79.508V22.834Zm-0.041.126a0.152,0.152,0,0,1,.041.084H79.467V22.96Zm-77.5.671H2.051v0.042H2.01v0.042A0.152,0.152,0,0,1,1.969,23.631Zm-0.246.042a0.337,0.337,0,0,1,.205.042C1.759,23.718,1.814,23.774,1.723,23.673Zm-0.246.042a0.337,0.337,0,0,1,.205.042A0.337,0.337,0,0,1,1.477,23.715ZM0.985,23.8a0.337,0.337,0,0,1,.205.042A0.337,0.337,0,0,1,.985,23.8Zm-0.246.042a0.337,0.337,0,0,1,.205.042A0.338,0.338,0,0,1,.738,23.841Zm-0.205.042a0.261,0.261,0,0,1,.164.042A0.26,0.26,0,0,1,.533,23.883Z" transform="translate(0 0.5)"/>
</svg>
