<svg xmlns="http://www.w3.org/2000/svg" width="80.001" height="40" viewBox="0 0 79.969 39.984">
  <defs>
    <style>
      .cls-1 {
        fill: #fff;
        fill-rule: evenodd;
      }
    </style>
  </defs>
  <path id="uk_cruiser_york_ico" class="cls-1" d="M46.246,8H46.4V8.026A2.852,2.852,0,0,0,46.557,9a0.192,0.192,0,0,0-.1.1,2.145,2.145,0,0,1,.078.564,6.518,6.518,0,0,1,.181,1.308h0.362V10.744a0.168,0.168,0,0,1-.1-0.026,0.476,0.476,0,0,1,.233.026H47.1a1.36,1.36,0,0,0,.026.385H47.048V11.077A0.13,0.13,0,0,0,47.074,11H46.945a0.365,0.365,0,0,0-.181.333,0.093,0.093,0,0,1,.026.051h0.078V11.333a0.3,0.3,0,0,1-.052-0.077h0.362v0.051a1.108,1.108,0,0,0-.052.59,0.921,0.921,0,0,1-.285-0.026V11.9A5.311,5.311,0,0,1,47,13.026c0.094,0.4.07,0.858,0.181,1.282,0.018,0.069.091,0.151,0.1,0.205a3.069,3.069,0,0,0-.026.359,2.346,2.346,0,0,0,.078.487c0.063,0.118.114-.012,0.129,0.231a1.011,1.011,0,0,0,0,.692,1.731,1.731,0,0,1,.647.026,1.8,1.8,0,0,0-.905.538,2.4,2.4,0,0,1,.078.615c0.121,0.52.08,1.093,0.207,1.641,0.135,0.584.124,1.262,0.259,1.846L47.8,21.564c0.105,0.454.07,0.954,0.181,1.436a7.827,7.827,0,0,1,.181,1.41H48.7v0.462h0.026a0.8,0.8,0,0,1,.285-0.1,1.3,1.3,0,0,1,.026-0.513v0.513h0.31c0-.7,0-1.372,0-2.077a5.4,5.4,0,0,0-.621-0.205V22c0.117-.013.349,0.028,0.621,0.026,0.013-.439.05-0.743-0.336-0.795a1.465,1.465,0,0,0-.052-0.59H49.35V20.41c-0.336-.135-0.409-0.093-0.388-0.59a0.177,0.177,0,0,1-.1-0.051H50.1a10.163,10.163,0,0,1,.052-1.256h0.595l0.026,0.077a0.221,0.221,0,0,1,.026.128h0.155V17.923h0.078v0.795h0.1V18.9a0.857,0.857,0,0,1,.8.872h0.285v0.026c-0.089.052-.084,0.113-0.078,0.256h1.707v0.026c-0.031.048,0,.137-0.026,0.205l-0.1.077v0.59c-0.105.192-.286-0.088-0.285,0.41H52.92c0,0.9.037,2.056,0,2.949h0.026a0.255,0.255,0,0,1,.31,0,3.29,3.29,0,0,1,0,.462h0.1V24.564a0.315,0.315,0,0,1,.259-0.077,0.323,0.323,0,0,1,.026.231h0.078a1.142,1.142,0,0,1,.026-0.462v0.282c0.1,0,.113-0.031.155,0.077a0.179,0.179,0,0,1-.026.1,1.008,1.008,0,0,0,.285.051c0-.117-0.026-0.462-0.026-0.462a1.615,1.615,0,0,1,.621-0.051c-0.005-.363.045-0.8,0.052-1.205H54.73V23a0.616,0.616,0,0,1-.026-0.282h1.474a0.791,0.791,0,0,1,.052-0.256,0.368,0.368,0,0,0-.1-0.026,1.908,1.908,0,0,0-.285.051V22.436a0.1,0.1,0,0,0,.052-0.077c-0.068-.01-0.034.019-0.052-0.051a1.381,1.381,0,0,0,.388-0.077c0.083,0.179.063,0.17,0.388,0.154,0.036,0.023.145,0.028,0.181,0.051a2,2,0,0,0-.44.026v0.051a0.223,0.223,0,0,1,.026.205,1.173,1.173,0,0,1,.466.026H56.385a0.507,0.507,0,0,0,.052.205,0.371,0.371,0,0,0,.1.026,0.787,0.787,0,0,1,.336-0.026c0.012,0.074.133,0.057,0.284,0.051a0.786,0.786,0,0,0,.336.026l0.026-.231a0.4,0.4,0,0,1-.207-0.026l0.621,0.026v0.026H57.911c-0.05.02,0.052,0.026,0.052,0.026a0.483,0.483,0,0,1,.233-0.026v0.026H58.17c-0.05.02,0.052,0.026,0.052,0.026a0.379,0.379,0,0,1,.336.026,0.093,0.093,0,0,0-.026.051l-0.052-.026v0.026a0.092,0.092,0,0,1,.026.051l-0.052-.026V23a0.092,0.092,0,0,1,.026.051l-0.052-.026v0.026a0.13,0.13,0,0,1,.026.077,3.368,3.368,0,0,1,.569.308l3.026,0.051v0.179l-2.871.051a1.8,1.8,0,0,1-.155.205l-0.129-.051V24a0.429,0.429,0,0,1,.052.256c0.165,0,.2-0.044.362-0.051a0.641,0.641,0,0,0,.1.128,2.956,2.956,0,0,0-.026.359,0.311,0.311,0,0,0,.336.077,0.615,0.615,0,0,1,.362,0l0.1-.205a0.244,0.244,0,0,0,.285,0c0.022,0.125.035,0.193,0.181,0.205V25.9l1.06-.026a1.143,1.143,0,0,1,.026-0.462v0.462h0.207a1.949,1.949,0,0,1,.155-0.513H60.834l0.052-1.231H61.17a0.123,0.123,0,0,1,.026-0.077,0.945,0.945,0,0,1,.388-0.026v0.1a9.977,9.977,0,0,1,2.3.1c0.224,0.05.37-.056,0.595,0,0.242,0.06.379,0.269,0.595,0.333,0.334,0.1.77-.053,1.138,0.026a4.771,4.771,0,0,0,.854.026l1.06,0.026v0.18H68.076a2.083,2.083,0,0,0-.776,0l-2.043.051a0.231,0.231,0,0,1-.233.18A0.156,0.156,0,0,0,64.973,25v0.1a3.163,3.163,0,0,1,.181.692h0.517c0.027-.016.047-0.107,0.078-0.128a1.472,1.472,0,0,1,.75-0.128,0.857,0.857,0,0,0,0-.231h0.155a1.214,1.214,0,0,1,.569,0v0.026a0.275,0.275,0,0,0-.026.154h0.129v-0.1h0.259v0.077a2.357,2.357,0,0,0,.647-0.051c0,0.1-.012.09,0.052,0.128a0.212,0.212,0,0,1,.026-0.128v0.282h0.129l0.026-.154a0.409,0.409,0,0,1,.181-0.051v0.051c-0.126.008-.136,0.015-0.155,0.128a0.858,0.858,0,0,0,.259.026,0.283,0.283,0,0,1,.155-0.026l0.026-.077a1.243,1.243,0,0,1-.181-0.1,0.794,0.794,0,0,1,.181.026c0.075,0.194.249,0.167,0.517,0.154,0.236-.14,1.028.039,1.241-0.1a0.92,0.92,0,0,0,.026-0.385H70.74V25.154a0.168,0.168,0,0,1-.1-0.026l0.569-.026v0.051H71.128V25.41a0.275,0.275,0,0,1,.155.026H71.154v0.128c0.133-.016.139-0.063,0.284-0.077V25.359H71.387a0.093,0.093,0,0,1-.052.026,0.679,0.679,0,0,0-.052-0.154,0.1,0.1,0,0,0,.078-0.1,1.572,1.572,0,0,1,.595.026H71.878v0.231H71.93a1.446,1.446,0,0,0,.259.026c0.043-.117-0.022-0.229.207-0.231a0.637,0.637,0,0,1,.31,0v0.205c0.671-.06,1.389-0.06,2.1-0.1a0.91,0.91,0,0,1,.026-0.385v0.179h0.259V25.1a0.171,0.171,0,0,0,0,.179,0.9,0.9,0,0,1,.233-0.051c-0.007-.213.01-0.164,0.259-0.154V25.1a0.221,0.221,0,0,0-.026.128,12.382,12.382,0,0,0,1.242-.1c0.288-.046.6,0.072,0.931,0a6.224,6.224,0,0,1,1.242-.1,0.123,0.123,0,0,1,.026-0.077c0.027-.022.065,0,0.1-0.026a0.549,0.549,0,0,1,.1-0.128c0.1-.033.122,0.074,0.155,0.026a1.464,1.464,0,0,0,.155-0.333,4.1,4.1,0,0,0,.284-0.539V23.282a11.064,11.064,0,0,1,.026-1.9,0.092,0.092,0,0,1,.026.051,5.1,5.1,0,0,1,0,1c0,0.819,0,1.56,0,2.333L80,24.744a3.4,3.4,0,0,1-.155.974c-0.1.383-.115,0.773-0.207,1.128-0.247.953-.267,1.967-0.517,2.9a5.21,5.21,0,0,1-.362,1.59,4.929,4.929,0,0,1-1.371.051c-1.072-.013-2.337,0-3.492,0l-8.949.077H60.394a6.406,6.406,0,0,1-1.19.026h-12.6a6.937,6.937,0,0,1-1.293.026H42.806c-2.486,0-5.052.026-7.578,0.026-6.243,0-12.233.1-18.467,0.1l-7.734.077a2.41,2.41,0,0,1-.414-0.256c-0.163-.1-0.329-0.133-0.491-0.231A0.874,0.874,0,0,0,7.941,31.1a2.065,2.065,0,0,0-.466.051,2.5,2.5,0,0,1-.647-0.026,0.765,0.765,0,0,1-.181.436c-0.025.006-.01,0.02-0.026,0a0.516,0.516,0,0,1-.078-0.154c-0.076.01-.032,0.042-0.078-0.026A0.616,0.616,0,0,1,6.44,31.1a0.264,0.264,0,0,1-.233-0.154,0.229,0.229,0,0,0,.078-0.077A1.392,1.392,0,0,0,5.9,30.846a2.157,2.157,0,0,1-.543.051,6.49,6.49,0,0,0-.75.154v0.026a1.8,1.8,0,0,1,.362.026,1.722,1.722,0,0,1,.052.872,12.812,12.812,0,0,1-1.5,0,1.591,1.591,0,0,1-.672-0.051,0.559,0.559,0,0,1-.259-0.539,5.8,5.8,0,0,1-.207-1.436,0.244,0.244,0,0,0,.078-0.1,5.181,5.181,0,0,1,1.216.051,2.333,2.333,0,0,0,.44.128V29.795c-0.63-.066-1.382.028-1.992-0.1-0.185-.04-0.442.007-0.595-0.026H0.879c-0.248-.053-0.592-0.049-0.8-0.1a5.825,5.825,0,0,1-.026-1.359,2.342,2.342,0,0,0,.155-0.949H0.285c0.018-.3.169-0.468,0.181-0.769H0.44v0.026c-0.02.049-.026-0.051-0.026-0.051,0.066-.037.029,0.006,0.052-0.077a1.271,1.271,0,0,1-.052-0.564C0.368,25.685.452,25.284,0.388,25S0.4,24.4.336,24.1A5.7,5.7,0,0,1,.259,23H0.233v0.026c-0.02.049-.026-0.051-0.026-0.051,0.135-.078-0.05-0.159.1-0.205v0.026a3.8,3.8,0,0,0,.052,1l0.026,0.9c0.066,0.268-.022.6,0.052,0.9s0.075,0.64.129,0.718H0.621c0.071,0.13-.026.36,0.207,0.385a2.016,2.016,0,0,0,.466.026,13.367,13.367,0,0,0,1.862.077V26.564H3.13V26.59c-0.02.049-.026-0.051-0.026-0.051a0.717,0.717,0,0,0,.078-0.231,0.987,0.987,0,0,0,.026.41,0.233,0.233,0,0,1,.233-0.154v0.051c-0.126.008-.136,0.015-0.155,0.128a0.073,0.073,0,0,1,.026.026,0.906,0.906,0,0,1,.155-0.077c0.01,0.067-.019.034,0.052,0.051,0.065-.076.044,0,0.155,0.026L3.7,26.692H3.673c-0.039-.075-0.089-0.057-0.129-0.128H3.6a0.506,0.506,0,0,0,.1.051c0.079,0.2.121,0.22,0.414,0.205a0.812,0.812,0,0,1,.026-0.487c0.017,0.136.053,0.135,0.207,0.128a2.585,2.585,0,0,1-.052.359l0.8,0.026a1.22,1.22,0,0,1,.026-0.487v0.487l0.854,0.026V26.41c0.143,0,.292,0,0.491,0V26.333A1.473,1.473,0,0,1,6,26.282c0.246,0,.585-0.018.75,0-0.006-.15-0.055-0.146.1-0.154a0.433,0.433,0,0,0,.026.154,0.862,0.862,0,0,1,.207-0.026v0.026H7.113c-0.008.073-.027,0.053,0,0.1a0.71,0.71,0,0,0,.31.026V26.9l1.629,0.026a1.143,1.143,0,0,1,.026-0.462v0.462l0.414,0.026a1.281,1.281,0,0,1-.052-0.179h0.621a0.682,0.682,0,0,1,.026-0.308v0.256a0.126,0.126,0,0,1,.078.026c-0.052.03-.032,0.084-0.026,0.205l0.828,0.026a1.756,1.756,0,0,0-.026-0.359,1.4,1.4,0,0,1,.388-0.026,0.156,0.156,0,0,0,.052.051,0.672,0.672,0,0,0-.052.333h0.724a1.221,1.221,0,0,1,.026-0.487,0.912,0.912,0,0,0,.026.385,0.6,0.6,0,0,1,.31-0.051c0.034,0.03.046,0.132,0.078,0.154h0.492A2.144,2.144,0,0,0,13.76,27V26.974h0.026c0.032-.285.162-0.5,0.181-0.821H13.941a0.1,0.1,0,0,1-.1.051A1.126,1.126,0,0,0,12.829,26a1.724,1.724,0,0,0-.621-0.026l-1.4-.026V25.769a6.692,6.692,0,0,0,1.448-.026c0.275-.06.636,0.027,0.879-0.026h0.7a4.769,4.769,0,0,0,.491-0.308l0.362-.051c0.026,0.005.011,0.059,0.078,0.051,0.152-.018.347-0.064,0.517-0.077a0.879,0.879,0,0,0-.052-0.282h0.052a0.094,0.094,0,0,1,.052-0.026v0.18a0.22,0.22,0,0,1,.026.128l0.957-.1a1.02,1.02,0,0,0,.569.051,0.442,0.442,0,0,1,.285-0.051c0.011,0.067.041,0.056,0.181,0.051v-0.1a1.4,1.4,0,0,1,.388-0.026,0.4,0.4,0,0,1,.026.128h0.284l0.052,1.231H16.864c0.018,0.153.08,0.258,0.1,0.41h1.552a6.827,6.827,0,0,0-.129-1.513,4.7,4.7,0,0,0-.1-0.9,4.039,4.039,0,0,0-.078-1.179c-0.071-.292-0.014-0.608-0.078-0.872C18.019,22,18.112,21.426,18,20.974l-0.181-2.359-0.259-.154-0.1.026a1.153,1.153,0,0,0-.543-0.333c-0.605-.316-1.253-0.647-1.836-1a3.25,3.25,0,0,1-.931-0.513h0.078a3.562,3.562,0,0,0,.491.231,6.163,6.163,0,0,0,.647.359c0.478,0.288.993,0.532,1.5,0.795a3.883,3.883,0,0,0,.879.436c0.066-.038.052-0.054,0.052-0.154a6.064,6.064,0,0,1-.1-1.18c-0.04-.171,0-0.389-0.052-0.59a0.191,0.191,0,0,0-.078-0.128V16.359h0.052q-0.013-.205-0.026-0.41a6.692,6.692,0,0,1-.129-1.487,0.126,0.126,0,0,1-.078-0.026h0.285a10.888,10.888,0,0,0-.207-2.051,6.931,6.931,0,0,0-.1-1.513c-0.043-.2,0-0.47-0.052-0.692a6.153,6.153,0,0,1-.1-1.1A0.153,0.153,0,0,1,17.071,9c0.11-.036.109-0.085,0.1-0.231A2.817,2.817,0,0,1,17.1,8.077h0.078a2.263,2.263,0,0,0,.129.9,4.168,4.168,0,0,0,0,.513c0.108,0.459.06,1.031,0.181,1.487q0.013,0.256.026,0.513c0.109,0.47.057,1.045,0.181,1.513l0.026,0.487a2.034,2.034,0,0,0,.233,1.051C18,14.56,17.9,14.564,17.9,14.564a0.294,0.294,0,0,0-.052.18,2.024,2.024,0,0,1,.052.513c0.089,0.387.081,1.007,0.155,1.256H17.873v-0.1h-0.1l0.983,10.513H18.83a2.932,2.932,0,0,0,0-.872h0.078v0.026a5.689,5.689,0,0,0,0,.846h0.155a0.833,0.833,0,0,1,.026-0.359v0.359h0.1v-1.9H19.037V24.949H18.856L18.8,24.462h0.1V23.949h0.621v0.026a1.153,1.153,0,0,0-.026.462,4.969,4.969,0,0,1,.569,0,0.526,0.526,0,0,0,.388-0.051h0.026V24.359H20.33a1.518,1.518,0,0,0-.026-0.436h0.673V23.846c-0.151,0-.116-0.295-0.1-0.513h0.052a0.485,0.485,0,0,1,.44.026,0.228,0.228,0,0,1,.078.205,1.385,1.385,0,0,0-.026.282,0.05,0.05,0,0,1-.026.051v0.026h0.595a0.945,0.945,0,0,0,.388.026V23.513H22.3a5.067,5.067,0,0,1,.026-0.615H22.3a0.1,0.1,0,0,1-.1.051l-0.026-.077a0.654,0.654,0,0,0,.1-0.205,0.668,0.668,0,0,0,.129.051V22.59l0.31-.026a0.365,0.365,0,0,1-.026.128h0.388s0.034-.074.052-0.051v0.026a1.211,1.211,0,0,1,.078.744h0.207v0.1H24.08a3.624,3.624,0,0,1,.052-0.564l-0.207.026a1.86,1.86,0,0,0-.052-0.59,1.016,1.016,0,0,1,.672-0.282,0.576,0.576,0,0,1,.259.231,2.4,2.4,0,0,1,0,.615H24.649q0.013,0.654.026,1.308a6.249,6.249,0,0,0,.026,1.051h0.207a1.631,1.631,0,0,0,.595.026c0.52,0,1.007-.04,1.474-0.077V24.821H25.529c0-.366-0.062-0.7-0.052-0.949a0.44,0.44,0,0,1,.362-0.128,1.241,1.241,0,0,0,.466.026h1.138v-0.1H27.52a3.016,3.016,0,0,0-.026-0.82,4.54,4.54,0,0,0-1.19-.205,0.905,0.905,0,0,0-.078.128,0.561,0.561,0,0,0-.181-0.026V22.667A0.378,0.378,0,0,0,26.3,22.41c-0.293.105-.455-0.133-0.44-0.436a0.65,0.65,0,0,1,.285-0.436c0.554-.418.763,0.734,0.983,0.846a2.235,2.235,0,0,0,1.138-.026,0.089,0.089,0,0,1-.052-0.026,1.192,1.192,0,0,0,.31-0.077,1.777,1.777,0,0,1-.052-0.487,0.135,0.135,0,0,1-.129-0.077,0.15,0.15,0,0,0,.129-0.128,0.472,0.472,0,0,1-.026-0.231,0.421,0.421,0,0,1-.207-0.077,2.342,2.342,0,0,1,.905-0.1l0.362,0.1v0.051H29.486a0.132,0.132,0,0,1-.078.026v0.128c0.184,0,.282.046,0.285,0.231-0.231.131-.248,0.141-0.233,0.513a0.093,0.093,0,0,1,.026.051,2.959,2.959,0,0,0,.776.026,0.918,0.918,0,0,0,.828.256,0.384,0.384,0,0,1,.052.1l-0.1.282a3.78,3.78,0,0,1-2.147.154V23.1H28.865a4.251,4.251,0,0,1-.1.59,0.159,0.159,0,0,1,.129,0c0,0.1-.031.063,0.078,0.077a3.382,3.382,0,0,1,.8,0h2.25V23.59H32.2v0.128h0.026a0.323,0.323,0,0,1,.31-0.1,0.481,0.481,0,0,0,.155.231v-0.1h0.129v-0.18h0.388l0.026,0.564h0.052V23.641H33.34v0.487h0.1v0.026c-0.088.057-.016,0.109,0,0.231H33.236a1.492,1.492,0,0,0,.1.333,0.321,0.321,0,0,1,.259.205,0.229,0.229,0,0,0,.1-0.18,8.262,8.262,0,0,1-.207-1.308c-0.09-.326-0.133-0.884-0.233-1.282l-0.026-.333c-0.1-.275-0.087-0.748-0.181-1.128a6.9,6.9,0,0,1-.207-1.256h0.129V19.385a0.129,0.129,0,0,1-.026-0.077H32.745V19.282h0.026a1.023,1.023,0,0,0,.129-0.1,0.524,0.524,0,0,1,.052-0.205,1.717,1.717,0,0,1,1.371,0,0.345,0.345,0,0,0,.155.333H34.349v0.1a0.479,0.479,0,0,0,.155.026,4,4,0,0,0,.207,1.154V20.564a0.28,0.28,0,0,1,.155-0.205,0.512,0.512,0,0,0,.1.051,3.6,3.6,0,0,0,.129,1.718,1.3,1.3,0,0,0,.129.641,0.377,0.377,0,0,1,.362-0.18c0.047,0.074.139,0.065,0.181,0.128s0.033,0.147.078,0.205c0.049-.022.019-0.012,0.078,0a1.36,1.36,0,0,1-.155.461h0.052a1.5,1.5,0,0,1,.621-0.051,1.722,1.722,0,0,0,.233-0.128,0.453,0.453,0,0,1,.026-0.154,0.133,0.133,0,0,1,.078-0.026c0.056,0.158.248,0.139,0.466,0.128a2.057,2.057,0,0,0,.724.051l-0.31-1.846a3.985,3.985,0,0,0-.207-0.949h0.026c0.128-.089.209-0.023,0.207-0.256a1.566,1.566,0,0,1-.078-0.82H37.452V19.308a0.262,0.262,0,0,0,.155-0.333c0.327-.039.721-0.081,1.06-0.154a5.759,5.759,0,0,1,1.422.077c0.005,0.036-.021-0.01-0.026.026-0.05.02,0.052,0.026,0.052,0.026a0.175,0.175,0,0,1,.1-0.026c0.005,0.036-.021-0.01-0.026.026-0.05.02,0.052,0.026,0.052,0.026a0.17,0.17,0,0,1,.155,0,0.611,0.611,0,0,0,.181.359c-0.1,0-.142-0.014-0.181.051a2.374,2.374,0,0,1,.207.744,0.271,0.271,0,0,1,.181-0.1,0.7,0.7,0,0,0,0-.205h0.129V19.795c0.026-.025.026,0.025,0.026,0.026a0.13,0.13,0,0,1,.026.077H40.918a0.133,0.133,0,0,0-.078-0.026v0.051a1.465,1.465,0,0,1,0,.436,0.535,0.535,0,0,1,.233.026c-0.024.1-.083,0.177-0.1,0.256a1.451,1.451,0,0,0,.078.539c0.112,0.47.074,0.946,0.181,1.385,0.059,0.241,0,.71.052,0.82a1.706,1.706,0,0,0,.595.41,7.482,7.482,0,0,0,1.242.744,4.822,4.822,0,0,1,.285-1.026,0.092,0.092,0,0,1,.026.051,7.486,7.486,0,0,1,.336,1.128H44.2v0.154h0.1v0.026a0.13,0.13,0,0,0-.026.077C44.5,24.939,44.627,25,44.953,25V24.41a2.223,2.223,0,0,0,1.035-.077H45.91V24.256H45.833a1.586,1.586,0,0,1,.052-0.333l0.207,0.026a0.475,0.475,0,0,1,.052.18h0.078v0.077H46.143a0.5,0.5,0,0,0,0,.154,0.819,0.819,0,0,0,.336.026l-0.026-1.641h0.285q-0.013.833-.026,1.667a6.6,6.6,0,0,1,.8.026,4.538,4.538,0,0,1,.492,0V24.308a5.162,5.162,0,0,1-.129-1.051c-0.166-.717-0.146-1.539-0.31-2.256a4.346,4.346,0,0,0-.155-1.1,5.488,5.488,0,0,0-1.4-.051V19.769h0.052c0.252-.089,1.006.038,1.345-0.026v-0.18a7.673,7.673,0,0,1-.155-1.231c-0.113-.451-0.061-0.958-0.181-1.436-0.064-.255-0.019-0.566-0.1-0.846a3.657,3.657,0,0,1-.1-0.769h0.155v0.077H47.2a2.148,2.148,0,0,0-.129-0.744,0.92,0.92,0,0,0,.026-0.179c-0.049-.23-0.073-0.452-0.129-0.692a3.533,3.533,0,0,1-.026-0.487,3.588,3.588,0,0,0-.129-0.667,0.388,0.388,0,0,0,.026-0.128c-0.071-.326-0.08-0.668-0.155-0.974q-0.013-.205-0.026-0.41c-0.085-.354-0.1-0.729-0.181-1.1a1.639,1.639,0,0,0,0-.282c-0.055-.231-0.092-0.48-0.129-0.667A0.359,0.359,0,0,0,46.376,8.9,4.839,4.839,0,0,1,46.246,8ZM14.1,16.615h0.052v0.026A0.089,0.089,0,0,1,14.1,16.615Zm65.7,4.692c0.084,0.021.04-.013,0.078,0.051H79.793V21.308ZM56.9,22.744a0.855,0.855,0,0,1,.362.026A0.855,0.855,0,0,1,56.9,22.744Zm-7.734,1.949h0.052C49.19,24.734,49.21,24.724,49.169,24.692ZM3.078,26.641a0.13,0.13,0,0,1,.026.077H3.078V26.641Z" transform="translate(-0.031 -0.008)"/>
</svg>
