<?xml version="1.0" encoding="utf-8"?>
<!-- Generator: Adobe Illustrator 16.0.0, SVG Export Plug-In . SVG Version: 6.00 Build 0)  -->
<!DOCTYPE svg PUBLIC "-//W3C//DTD SVG 1.1//EN" "http://www.w3.org/Graphics/SVG/1.1/DTD/svg11.dtd">
<svg version="1.1" id="Layer_1" xmlns="http://www.w3.org/2000/svg" xmlns:xlink="http://www.w3.org/1999/xlink" x="0px" y="0px"
	 width="40px" height="40px" viewBox="0 0 40 40" enable-background="new 0 0 40 40" xml:space="preserve">
<path id="uk_crusader_aa_mk_2_ico" fill="#FFFFFF" d="M19.565,11.205h0.377v0.111c-0.041,0.006,0.012-0.023-0.029-0.029
	c-0.022-0.055-0.029,0.057-0.029,0.057h0.029c0.183,0.026,0.367,0.036,0.551,0.029c0.297,0.145,0.608,0.26,0.929,0.342
	c0.143-0.4,1.771-0.265,2.377-0.257c0.028,0.131,0.038,0.266,0.028,0.4c-0.142,0.056-0.082,0.235-0.058,0.371
	c0.434-0.037,0.865,0.085,1.217,0.343c-0.047,0.046-0.078,0.105-0.087,0.171c0.331,0.089,0.672,0.137,1.015,0.143l-0.029,0.086
	c0.277,0.038,0.55,0.105,0.813,0.2c0.456,0.128,0.909,0.188,1.333,0.314c0.209,0.062,0.429,0.1,0.608,0.143h0.261
	c0.101,0.052,0.208,0.091,0.319,0.114v-0.112l0.318-0.028l0.029,0.428h0.173c0.048,0.107,0.115,0.204,0.2,0.285
	c-0.043,0.113-0.102,0.218-0.174,0.314v0.058h-0.143v0.17h1.623c0.008,0.013,0.018,0.022,0.029,0.029v0.086
	c1.835,0,3.574,0.055,5.449,0.058v0.256c-0.754-0.013-1.607-0.029-2.406-0.029h-1.014c-0.672,0.1-1.352,0.129-2.029,0.086
	c0,0.031-0.01,0.062-0.029,0.086c-0.451,0.063-0.908,0.071-1.361,0.028c-0.023,0.146-0.023,0.2-0.2,0.2L29.684,16
	c0.047-0.019,0.099-0.019,0.146,0c0.067,0.104,0.145,0.198,0.231,0.285c-0.032,0.165-0.156,0.298-0.318,0.343v0.257H29.42V16.77
	h-0.376v0.114c0.248,0.041,0.491,0.108,0.726,0.2c-0.001-0.031,0.01-0.062,0.028-0.086c0.161-0.041,0.329-0.051,0.493-0.029h5.739
	v1.827c0.088,0.028,0.087,0.056,0.174,0.086c-0.003-0.04,0.007-0.08,0.028-0.114v0.2c0.123,0.018,0.24,0.056,0.349,0.114
	c0.116,0.006,0.231,0.006,0.349,0v0.057c0.133,0.031,0.269,0.051,0.405,0.058c0.255-0.084,0.517-0.142,0.783-0.171
	c0.232,0.193,0.513,0.321,0.812,0.371c0.086,0.207,0.204,0.398,0.348,0.57L40,21.307c-0.04,0.012-0.682,0.438-0.7,0.457
	c-0.044,0.062-0.02,0.174-0.058,0.229c-0.037-0.023-0.076-0.043-0.116-0.057v0.057c-0.071,0.111-0.111,0.239-0.116,0.371
	c0.09,0.035,0.066,0.011,0.088,0.113l-0.146,0.2c-0.056-0.026-0.119-0.092-0.146-0.057c-0.088,0.104-0.185,0.199-0.289,0.285
	c0.035,0.062,0.084,0.1,0.058,0.143c-0.069,0.08-0.16,0.14-0.261,0.171c-0.029-0.047-0.069-0.086-0.116-0.113
	c-0.108,0.047-0.208,0.115-0.29,0.199c0.031,0.031,0.051,0.071,0.058,0.114l-0.261,0.086c-0.04-0.08-0.041-0.112-0.116-0.086
	l-0.29,0.114c0.029,0.041,0.039,0.094,0.029,0.143c-0.049,0.047-0.125,0.068-0.174,0.114c-0.1-0.037-0.078-0.077-0.174-0.114
	l-0.28,0.141c0.036,0.037,0.048,0.094,0.028,0.143c-0.066,0.057-0.146,0.097-0.231,0.114c-0.013-0.056-0.044-0.106-0.087-0.144
	c-0.086,0.078-0.227,0.101-0.319,0.172c0.038,0.036,0.095,0.086,0.058,0.113c-0.079,0.061-0.167,0.108-0.26,0.143
	c-0.014-0.049-0.033-0.098-0.059-0.143c-0.125,0.037-0.242,0.096-0.348,0.171c0.038,0.038,0.059,0.09,0.058,0.144
	c-0.091,0.027-0.179,0.065-0.261,0.113c-0.014-0.05-0.033-0.098-0.059-0.143c-0.021,0.003-0.042,0.014-0.058,0.029
	c-0.122,0-0.229,0.082-0.261,0.199c0.019,0.025,0.028,0.056,0.029,0.086L34.67,24.9c-0.027-0.1-0.011-0.088-0.115-0.113
	c-0.111,0.029-0.205,0.102-0.262,0.199c0.019,0.025,0.029,0.056,0.029,0.087c-0.084,0.046-0.171,0.084-0.262,0.114
	c-0.014-0.05-0.034-0.098-0.061-0.142c-0.135,0.024-0.252,0.108-0.318,0.228c0.023,0.025,0.043,0.055,0.058,0.086
	c-0.102,0.025-0.199,0.063-0.29,0.115c-0.014-0.051-0.033-0.099-0.059-0.144c-0.134,0.028-0.256,0.098-0.348,0.2
	c0.023,0.035,0.043,0.074,0.059,0.113l-0.291,0.114c0.004-0.061-0.031-0.117-0.086-0.143c-0.107,0.057-0.228,0.086-0.349,0.086
	l0.028,0.171h-0.057c-0.079,0.045-0.17,0.064-0.261,0.057v-0.142l-0.405,0.028v0.144h-0.059c-0.074,0.029-0.153,0.039-0.232,0.029
	v-0.173h-0.375v0.17h-0.291v-0.17h-0.377v0.17h-0.261V25.93c-0.021-0.033-0.032-0.074-0.028-0.113H29.71l-0.028,0.17H29.42v-0.17
	h-0.376v0.17h-0.29v-0.17h-0.377v0.17h-0.29v-0.17H27.71v0.17h-0.29v-0.17h-0.376v0.17h-0.261V25.93
	c-0.021-0.033-0.031-0.074-0.029-0.113h-0.348l-0.029,0.17h-0.29v-0.17H25.71v0.17h-0.29v-0.17h-0.347v0.17h-0.29V25.93
	c-0.021-0.033-0.031-0.074-0.029-0.113h-0.348v0.17h-0.29l-0.029-0.17h-0.348v0.17h-0.29v-0.17H23.1l-0.029,0.17h-0.289v-0.17
	h-0.346v0.17h-0.319v-0.17h-0.349v0.17h-0.318v-0.17H21.13l-0.028,0.17h-0.318v-0.17h-0.319l-0.029,0.17h-0.319v-0.17H19.8v0.143
	c-0.104,0.025-0.211,0.035-0.319,0.029v-0.172H19.13v0.17h-0.318v-0.17c-0.117-0.003-0.233,0.007-0.348,0.028v0.144h-0.319v-0.144
	H17.8v0.144h-0.29v-0.144h-0.38v0.144h-0.29v-0.144h-0.376v0.144h-0.29v-0.144h-0.348c-0.018,0.046-0.027,0.095-0.029,0.144h-0.29
	v-0.144h-0.348v0.144h-0.318v-0.144h-0.348v0.144H14.2v-0.144h-0.374v0.144h-0.29v-0.144h-0.377v0.144H12.87v-0.144h-0.377v0.144
	H12.2v-0.144h-0.345l-0.029,0.144h-0.261V25.93c-0.019-0.024-0.029-0.055-0.029-0.086h-0.348v0.143H10.9v-0.142h-0.378v0.144h-0.29
	v-0.144l-0.406-0.028v0.17C9.698,25.99,9.57,25.971,9.449,25.93c0.018-0.045,0.027-0.094,0.029-0.143L9.072,25.73l-0.029,0.143
	H8.986c-0.061-0.035-0.129-0.055-0.2-0.057c-0.001-0.059,0.009-0.117,0.029-0.172H8.754l-0.319-0.113
	c0.009,0.063-0.013,0.126-0.058,0.171c-0.081-0.046-0.169-0.075-0.261-0.086v-0.028c0.032-0.042,0.06-0.087,0.029-0.113
	C8.037,25.418,7.92,25.38,7.8,25.359c-0.015,0.117-0.006,0.117-0.116,0.144c-0.048-0.044-0.151-0.012-0.2-0.057
	c0.033-0.101,0.041-0.14-0.029-0.171c-0.088-0.053-0.188-0.082-0.29-0.086l-0.029,0.143H7.072c-0.045-0.036-0.128-0.051-0.172-0.086
	c-0.062-0.087,0.024-0.1-0.058-0.143c-0.101-0.052-0.208-0.09-0.319-0.114c-0.016,0.125-0.012,0.129-0.145,0.143
	c-0.046-0.034-0.129-0.05-0.174-0.086C6.228,25,6.247,24.952,6.262,24.902l-0.378-0.086c-0.014,0.1-0.008,0.1-0.087,0.143
	c-0.061-0.035-0.129-0.055-0.2-0.057c-0.001-0.059,0.009-0.117,0.029-0.172H5.565c-0.097-0.055-0.207-0.085-0.319-0.086
	c-0.007,0.053-0.027,0.102-0.058,0.144c-0.081-0.046-0.169-0.075-0.261-0.086v-0.027c0.024-0.044,0.034-0.093,0.029-0.143
	c-0.118-0.021-0.234-0.049-0.348-0.086c-0.015,0.116-0.006,0.116-0.116,0.143c-0.051-0.036-0.112-0.057-0.174-0.057l0.029-0.171
	H4.29c-0.03,0-0.052,0.014-0.145,0.029c-0.023-0.052-0.052-0.1-0.087-0.144C4.036,24.25,4.016,24.26,4,24.275
	c-0.033,0.033-0.053,0.08-0.087,0.113l-0.261-0.143l0.087-0.143C3.66,24.09,3.583,24.07,3.507,24.046l0.029-0.086
	c-0.076-0.022-0.069-0.034-0.145-0.058c-0.022,0.047-0.066,0.078-0.116,0.087c-0.069-0.066-0.128-0.144-0.175-0.228
	c0.045-0.021,0.078-0.064,0.087-0.113c-0.075-0.098-0.163-0.184-0.261-0.258c-0.05,0.038-0.047,0.049-0.087,0.028
	c-0.061-0.077-0.107-0.164-0.139-0.257c0.061,0.003,0.118-0.031,0.145-0.086c-0.078-0.086-0.12-0.198-0.116-0.314
	c-0.05,0.006-0.101-0.004-0.145-0.029c-0.029-0.071-0.04-0.15-0.029-0.228H2.522v-0.028c0.132-0.004,0.146,0,0.174-0.113
	c-0.023-0.015-0.043-0.034-0.058-0.057c-0.75,0.362-0.965-0.158-1.043-0.856l0.174,0.028c0.021,0.141,0.07,0.277,0.145,0.399V21.85
	c0.129-0.131,0.211-0.302,0.232-0.484H1.42v-0.344H1.043c-0.015-0.036-0.025-0.074-0.029-0.113c0.168-0.068,0.311-0.188,0.406-0.344
	c-0.125-0.072-0.233-0.169-0.32-0.284c0.518-0.159,1.067-0.188,1.6-0.087c0.067-0.078,0.125-0.164,0.174-0.256
	c-0.02-0.022-0.038-0.064-0.058-0.086c-0.088,0.039-0.111,0.01-0.145-0.086c0.023-0.015,0.043-0.034,0.058-0.058
	c-0.105-0.137-0.202-0.279-0.29-0.428c0.083-0.021,0.154-0.072,0.2-0.144c-0.078-0.182-0.224-0.324-0.406-0.4
	c-0.216,0.162-0.494,0.215-0.754,0.144v0.086h0.115v0.086H1.478v0.086H1.391v-0.085H1.275c0.014-0.037,0.014-0.077,0-0.113
	c-0.171-0.104-0.357-0.18-0.551-0.229c-0.197-0.113-0.366-0.27-0.493-0.457c-0.413-0.692-0.187-1.589,0.505-2.002
	c0.097-0.058,0.199-0.104,0.307-0.138c0.257-0.056,0.522-0.065,0.783-0.029l0.029-0.169C1.908,15.884,1.957,15.845,2,15.8h0.261
	c0.173,0.122,0.329,0.266,0.464,0.429c0.095,0.25,0.173,0.508,0.232,0.77C3,17.09,3.082,17.163,3.13,17.255
	c0.346,0.122,0.707,0.198,1.072,0.228v-0.142c0.4-0.061,1.266,0,1.855,0c0.28-0.019,0.561-0.019,0.841,0h0.7
	c0.042,0.011,0.143,0.076,0.174,0.086c0.138,0.015,0.277-0.005,0.406-0.057L8.9,17.341c0.191-0.044,0.385-0.072,0.58-0.086
	c0.041-0.399,0.024-1.038,0.058-1.512c0.335-0.057,0.678-0.057,1.014,0c0.15,0.067,0.306,0.125,0.464,0.171
	c0.062-0.002,0.123-0.021,0.174-0.057c0.184-0.008,0.369,0.002,0.551,0.028c0.125-0.012,0.374-0.082,0.522-0.114
	c0.382-0.061,0.774-0.011,1.13,0.144c-0.02,0.333-0.01,0.668,0.029,1c0.054,0.071,0.145,0.105,0.232,0.086
	c-0.003-0.04,0.007-0.08,0.029-0.114v0.114c0.116,0.008,0.232,0.008,0.348,0v-0.117h0.058v0.114c0.076,0,0.148-0.031,0.2-0.086
	c0.091,0.029,0.178,0.066,0.261,0.113h2.522c0.367,0.021,0.734,0.011,1.1-0.028v0.086c0.416,0.013,0.832,0.004,1.246-0.029V16.77
	h-2.983c-0.545-0.163-1.111-0.25-1.681-0.257c-0.023-0.042-0.053-0.08-0.087-0.114l0.058-0.484c-0.032,0-0.062-0.01-0.087-0.029
	h-0.029v-0.027c0.077-0.035,0.124-0.115,0.116-0.2c-0.054,0.03-0.12,0.03-0.174,0c-0.058-0.165-0.087-0.339-0.087-0.515
	c-0.041-0.006,0.012,0.024-0.029,0.029c-0.022,0.055-0.029-0.057-0.029-0.057c0.063-0.194,0.184-0.363,0.348-0.485
	c0.022,0.052,0.064,0.093,0.116,0.114c0.001-0.244,0.095-0.478,0.261-0.656c0.491-0.131,0.999-0.188,1.507-0.171
	c0.029,0.09-0.005,0.106,0.058,0.143v-0.03c0.213-0.222,0.407-0.46,0.58-0.713c0.339-0.447,0.8-0.833,1.13-1.284
	c0.053-0.072,0.106-0.17,0.058-0.2v-0.029c0.039-0.046,0.137-0.035,0.174-0.086c0.06-0.082,0.087-0.193,0.116-0.228
	c0.133-0.055,0.269-0.103,0.406-0.143c0.016-0.016,0.026-0.036,0.029-0.057c-0.073-0.011-0.046,0.017-0.058-0.086h0.377v-4.88
	c-0.058-0.8-0.048-1.603,0.029-2.4v-1.4c-0.023-0.169-0.014-0.342,0.028-0.508V11.205z"/>
</svg>
