<svg xmlns="http://www.w3.org/2000/svg" width="80" height="40" viewBox="0 0 80 40">
  <defs>
    <style>
      .cls-1 {
        fill: #fff;
        fill-rule: evenodd;
      }
    </style>
  </defs>
  <path id="uk_destroyer_battle_tobruk_ico" class="cls-1" d="M42.538,12.581h0.336l0.042-.172a0.364,0.364,0,0,0,.168.129,0.569,0.569,0,0,1,.042-0.3v0.129h0.294a0.211,0.211,0,0,1,.042-0.129v0.129H43.8v-0.3H43.335V11.893h1.594v0.043c-0.1.072-.041,0.007,0,0.129H44.174a2.269,2.269,0,0,1-.042.645c-0.158,0-.221.065-0.21,0.258-0.11,0-.037-0.056-0.126.043-0.026.036-.074,0.15-0.126,0.258a0.138,0.138,0,0,0-.126,0,0.258,0.258,0,0,1-.084.086,0.242,0.242,0,0,1,0,.172,0.2,0.2,0,0,1,.126.043c-0.1.056-.029-0.019-0.084,0.086a0.2,0.2,0,0,1,.126.043,0.261,0.261,0,0,1-.21-0.043v0.817a0.223,0.223,0,0,1,.042.129h0.294a1.5,1.5,0,0,1,.042-0.344H43.671v0.129H43.5V14.043h0.168v0.172a0.636,0.636,0,0,1,.336.043,0.266,0.266,0,0,0-.168.043,1.029,1.029,0,0,1,0,.344,0.736,0.736,0,0,0-.378.172L43.5,16.323c0.224,1.513,0,3.274.294,4.731h0.126a0.12,0.12,0,0,1,.042-0.043l0.042-.6h0.965V18.387l-0.629-.043v-0.43l-0.21-.043V17.742h0.042V17.7h0.168a1.215,1.215,0,0,0,.042-0.344H44.51a0.677,0.677,0,0,0,.587-0.086,0.462,0.462,0,0,1,.042-0.258v0.43h0.168V17.355a0.322,0.322,0,0,1-.084-0.258h0.252V17.14h0.042v0.086a1.174,1.174,0,0,0-.168.129,0.157,0.157,0,0,1,.042.086H45.6v-0.43a0.362,0.362,0,0,0,.378-0.086c-0.6-.026-0.531-0.6-0.5-1.247a0.476,0.476,0,0,0,.042-0.258,5.976,5.976,0,0,1,2.056.043v0.43c0.095-.017.046-0.04,0.126,0a0.726,0.726,0,0,1-.042.774,0.516,0.516,0,0,0-.126.043,0.475,0.475,0,0,0-.042.258h-0.21V16.925H47.237V16.8H47.069c0.01,0.2,0,.472,0,0.774h0.755V17.183h0.084a3.7,3.7,0,0,1,.629,0,0.562,0.562,0,0,0,.042.387l0.21-.258h0.042A0.354,0.354,0,0,0,49,17.57a0.8,0.8,0,0,1,.042-0.387V17.57h0.168l-0.042-.43a0.645,0.645,0,0,1,.21-0.043,0.622,0.622,0,0,1,.042.172,0.582,0.582,0,0,0-.042.3h0.21a0.57,0.57,0,0,1,.042-0.3c-0.006.173-.023,0.235,0.084,0.3a1.734,1.734,0,0,1,.042-0.516H49.8V17.14a0.224,0.224,0,0,0-.042.129,0.879,0.879,0,0,0,.294.043V17.57h0.084c0.065-.459.137-0.152,0.336-0.344a0.551,0.551,0,0,0,.084-0.3l0.126,0.043c-0.011.116-.079,0.114,0.042,0.172,0.1-.1.119-0.043,0.294,0,0.008,0.155-.062.089,0.084,0.129a0.283,0.283,0,0,1,.042-0.172v0.172h0.671v0.387a5.02,5.02,0,0,0,1.384.387v-0.3a0.2,0.2,0,0,1-.126-0.043h0.294V18c-0.123-.017-0.053-0.07-0.126.043a0.222,0.222,0,0,1,.042.129c-0.072.037-.2,0.069-0.21,0.086-0.085.07,0.029,0.05-.084,0.086a0.12,0.12,0,0,0-.042-0.043c-0.006.168-.1,0.065-0.168,0.215v2.237h0.21c0.024,0.2-.051.245,0.21,0.258a1.847,1.847,0,0,1,.042-0.731,0.8,0.8,0,0,0,.042.387,1.378,1.378,0,0,1,.587,0,0.622,0.622,0,0,0,.042-0.172c-0.059-.009.017,0.035-0.042,0.043-0.032.083-.042-0.086-0.042-0.086a2.728,2.728,0,0,1-.084-0.817,1.771,1.771,0,0,1,.377-0.387,0.119,0.119,0,0,0,.042.043c-0.033.074-.11,0.079-0.042,0.129a1.562,1.562,0,0,0,.629.387c0.031-.013.149-0.024,0.252-0.043a7.187,7.187,0,0,0,1.888.086v0.129c-0.619,0-1.29.017-1.846,0.043v0.043h0.042a0.277,0.277,0,0,0,.168.043l0.042,0.215c0.11,0.017.091,0.069,0.084,0.3,0.328,0.009.545,0.006,0.881,0A0.683,0.683,0,0,1,56.3,20.28v0.387l0.713-.086v0.086H57.3a0.8,0.8,0,0,1,.042-0.387v0.387a1.251,1.251,0,0,0,.294-0.043V20.538c0.141-.253-0.067-1.289.126-1.763a5.247,5.247,0,0,1,.629-0.043V18.387h0.419c0.087,0.256.1,0.358,0.461,0.344a15.772,15.772,0,0,0,1.72.215,0.8,0.8,0,0,1,.084.344v0.086h2.14v0.215H61.08a4.034,4.034,0,0,1-.042,1.075h0.419A0.8,0.8,0,0,1,61.5,20.28a0.367,0.367,0,0,0,.042.215V20.452a1.292,1.292,0,0,0,.252-0.516h0.084v0.172a2.2,2.2,0,0,0,.042,1.333,2.419,2.419,0,0,1-.084.774l0.378,0.043v0.3h0.629a1.444,1.444,0,0,1,.042-0.6v0.258h0.252l-0.042.344a6.627,6.627,0,0,1,.755-0.043l-0.042-.344h0.21a0.569,0.569,0,0,1,.042-0.3A0.211,0.211,0,0,0,64.1,22V21.957c0.164-.3-0.221-1.406.21-1.591a1.237,1.237,0,0,1,.545-0.043V19.979h0.419c0.056,0.284.141,0.363,0.5,0.344a2.29,2.29,0,0,0,.5.043c0.615,0.14,1.084-.089,1.3.516a0.259,0.259,0,0,0-.084.086h2.139v0.215H67.5v1.032a2.868,2.868,0,0,0-.545.172v0.086h0.252a1.788,1.788,0,0,1,.839-0.043c0.193-.259.464-0.158,0.462-0.645h0.042v0.3c0.329-.013.707-0.042,1.091-0.043a0.57,0.57,0,0,1,.042-0.3c0,0.324.042,0.612,0.336,0.645a1.237,1.237,0,0,1,.545-0.043V22.258a0.224,0.224,0,0,1-.042-0.129h0.21a0.927,0.927,0,0,1,.042-0.43,1.052,1.052,0,0,0,.042.473,0.553,0.553,0,0,1,.252-0.129,2,2,0,0,0-.042-0.215h0.336a0.211,0.211,0,0,0,.042.129,2.241,2.241,0,0,0,1.259.086,1.554,1.554,0,0,0-.042-0.473H72.7v0.516h0.042a0.313,0.313,0,0,1,.252,0,0.3,0.3,0,0,1,.084-0.172,0.257,0.257,0,0,0,.294.129c0.051-.106.074-0.066,0.126-0.172,0.012-.027-0.013-0.02.042-0.043a0.168,0.168,0,0,0,.126.172,1.053,1.053,0,0,1,.042-0.473,2.761,2.761,0,0,0,.042.559h0.042A2.276,2.276,0,0,1,74.756,22a4.956,4.956,0,0,1,0-.559H74.8a2.471,2.471,0,0,0,.042.516,0.325,0.325,0,0,1,.294.086H75.092v0.043h0.126V21.957a2.293,2.293,0,0,0,.629-0.043,0.958,0.958,0,0,0,0-.516h0.084v0.516h0.042a2.645,2.645,0,0,1,1.007.043V21.914h0.042a0.683,0.683,0,0,1,.042-0.344v0.344l1.133-.043a1.578,1.578,0,0,1,.042-0.645v0.645a1.792,1.792,0,0,0,.713-0.086A1.541,1.541,0,0,0,79.2,21.14h0.042c0.043,0.027.008,0.093,0.042,0.043l0.545-.946V19.548h0.084a15.647,15.647,0,0,0,0-1.764h0.042v0.043H80a4.325,4.325,0,0,0-.042,1.075V21.4c-0.108.012-.074-0.02-0.084,0.172a1.439,1.439,0,0,1-.252.946c-0.33.751-.8,1.54-1.175,2.28-0.519,1.016-.978,2.127-1.426,3.183a7.27,7.27,0,0,1-.378,1.075H14.473a3.253,3.253,0,0,0-.881-0.086c-0.547-.122-1.165-0.039-1.762-0.172-2.451-.546-5.08.171-7.383,0.172A2.245,2.245,0,0,1,4.111,30l-0.126-.043a2.4,2.4,0,0,1-.252-0.989,0.9,0.9,0,0,1-.42-0.172H3.356a1.992,1.992,0,0,0,.42-0.3,0.522,0.522,0,0,1-.042-0.559H3.859a0.168,0.168,0,0,0,.126.172,0.242,0.242,0,0,1,.252-0.215,1.481,1.481,0,0,0,.294.6,2.055,2.055,0,0,1,.5-0.086V27.893a0.476,0.476,0,0,1-.042-0.258l-2.1-.344v0.086a0.419,0.419,0,0,1,.21.43c-0.263.32-.222,1.179-0.629,1.333a2.725,2.725,0,0,1-1.846-.172,4.647,4.647,0,0,1-.252-1.806H0.839a1.716,1.716,0,0,0,1.049,0H1.594A5.194,5.194,0,0,0,.21,27.032a12.548,12.548,0,0,1-.126-2.925,2.764,2.764,0,0,1,.042-0.473,0.806,0.806,0,0,0,.084.6,0.446,0.446,0,0,1,.21,0L0.336,22.989H0.168V22.946a1.1,1.1,0,0,0,.042-0.86L0.126,20.71H0.168v0.043a11.248,11.248,0,0,1,.168,1.892,6.372,6.372,0,0,1,.5,1.548H0.965a1.445,1.445,0,0,1,.042-0.6v0.645H1.552a0.823,0.823,0,0,1,.084-0.516,0.165,0.165,0,0,0,.21,0c0.029-.033.055-0.1,0.084-0.129v0.645h0.21l-0.042-.3h0.21V23.763h0.21l-0.042-.387a0.63,0.63,0,0,1,.378-0.086,0.21,0.21,0,0,0,.126.043c0.035,0.14-.021.066,0.084,0.129A3.561,3.561,0,0,1,3.692,23.2V23.161H3.02V23.075c0.859,0.018,2.411.058,2.769-.43,0.018-.028.015-0.131,0.042-0.215H5.915a0.375,0.375,0,0,0,.378.43c0.032-.029.094-0.056,0.126-0.086a0.672,0.672,0,0,0,0-.473H6.544V22l1.594,0.043c0.1,0.2.248,0.187,0.545,0.172a1.489,1.489,0,0,1,.21-0.645H7.635V21.441H9.019c0.044-.03.036-0.18,0.084-0.215a3.667,3.667,0,0,1,.5-0.086,0.211,0.211,0,0,0,.042.129,0.15,0.15,0,0,1,.084-0.043c0.026-.291.138-0.183,0.168-0.473H9.816a0.149,0.149,0,0,1-.042.086V20.71a0.754,0.754,0,0,0,.084-0.258H9.9a0.753,0.753,0,0,1,.042.344h0.126l0.042,0.086a1.851,1.851,0,0,0,.084.43,2.091,2.091,0,0,1,.252-0.3,0.577,0.577,0,0,0,.294.129,0.713,0.713,0,0,0-.042.43h0.042a0.543,0.543,0,0,1,.294-0.043,2.02,2.02,0,0,1-.084.688h1.217a0.543,0.543,0,0,1,.294-0.043,1.3,1.3,0,0,1,.21-0.6H11.411V21.441H12.8a0.429,0.429,0,0,1,.168-0.215,1.549,1.549,0,0,1,.377-0.086,0.211,0.211,0,0,0,.042.129,0.211,0.211,0,0,1,.126-0.043,1.589,1.589,0,0,1,.126-0.731,0.506,0.506,0,0,1,.084.3h0.168a1.545,1.545,0,0,0,.042.516,0.431,0.431,0,0,0,.336-0.172A0.266,0.266,0,0,1,14.1,21.1a0.156,0.156,0,0,0,.042-0.086h0.042v0.043a0.381,0.381,0,0,1,.294.344,0.584,0.584,0,0,0-.042.3h0.084V21.527h0.252a0.926,0.926,0,0,1,.042-0.43v0.688h0.965a0.3,0.3,0,0,1,.126-0.258V21.57a0.229,0.229,0,0,1,0,.215h0.462V21.312a0.2,0.2,0,0,0,.126-0.086,0.555,0.555,0,0,0,.378,0,0.3,0.3,0,0,0,.042-0.172c-0.144-.258.1-0.931,0-1.333a11.941,11.941,0,0,1,0-1.979,0.433,0.433,0,0,1-.252-0.043h0.084a2.782,2.782,0,0,0,.168-1.548,2.374,2.374,0,0,1,0-.473c0.054-.106-0.018-0.029.084-0.086v0.086a0.94,0.94,0,0,0-.042.43c0.221,0.021.126,0.479,0.126,0.817v2.624a11.156,11.156,0,0,1,.21,1.677c0.01,0.029.119,0.11,0.126,0.129a3.385,3.385,0,0,0,0,.473c0.048,0.067.081,0.015,0.084,0.258a1.716,1.716,0,0,1,.713.043H17.493v0.3c0.888,0,1.718-.082,2.685-0.086A1.579,1.579,0,0,1,20.22,21.7v0.645c1.047,0.01,1.724-.1,2.685-0.129V22a2.09,2.09,0,0,1-.839-0.043h0.839a0.571,0.571,0,0,1,.042-0.3v0.172h0.671a3.659,3.659,0,0,1,.168-0.6,3.236,3.236,0,0,0-1.216-.043V21.054h1.384c0.068-.037.089-0.223,0.168-0.258l0.252,0.043a0.478,0.478,0,0,1,.126-0.086c0.035,0.14-.02.066,0.084,0.129a0.28,0.28,0,0,0,.084-0.215h0.126V20.581a0.38,0.38,0,0,0,.042-0.215c-0.157-.005-0.1.052-0.126-0.129a0.5,0.5,0,0,0,.084-0.129,1.051,1.051,0,0,1,.126.129,0.3,0.3,0,0,0-.042.172h0.168a2.334,2.334,0,0,1,0,.344c0.11,0.017.055-.032,0.084,0.086H25.087v0.043h0.126a0.211,0.211,0,0,1,.042-0.129v0.129a0.2,0.2,0,0,0,.126-0.043c0.126-.171.194-0.135,0.587-0.129a3.223,3.223,0,0,1-.084,1.032c0.1,0.029.078,0.1,0.126,0.043a2.163,2.163,0,0,0,.671.043V21.355H27.52c0.017-.984.2-1.883,0.21-2.925H27.688V18.387a1.137,1.137,0,0,1-.587-0.172h0.629V17.1h0.042V17.14a3.288,3.288,0,0,1,.084,1.376c0.008,0.98.005,2.28,0,3.4a0.736,0.736,0,0,1,.168.086,0.294,0.294,0,0,0-.168.258,9.328,9.328,0,0,0,1.007.043V22.043A0.979,0.979,0,0,1,28.4,22h0.462a0.57,0.57,0,0,1,.042-0.3V22a0.979,0.979,0,0,1,.462.043H28.9V22.3l1.217,0.043V22.086a0.747,0.747,0,0,1-.378-0.043h0.378a0.57,0.57,0,0,1,.042-0.3v0.3a1.221,1.221,0,0,1,.545.043H30.163v0.258l1.217,0.043V22.129a0.531,0.531,0,0,1-.294-0.043h0.294a0.367,0.367,0,0,1,.042-0.215v0.215a1.344,1.344,0,0,1,.587.043H31.421v0.258a5.034,5.034,0,0,1,.839.043V22.172l0.377-.043a3.773,3.773,0,0,0-.084-1.161s0.084-.762.084-0.946h0.923a0.563,0.563,0,0,1,.21-0.258H33.728V19.72a16.646,16.646,0,0,0-1.762-.043V19.548c0.87,0.023,2.4.072,2.643-.3,0.224-.126-0.016-0.232.252-0.3a0.8,0.8,0,0,0,.294.473,0.891,0.891,0,0,0-.084.6H35.91c0.035-.17-0.041-0.147.168-0.172a0.12,0.12,0,0,1,.042-0.043V19.763H36.078V19.72a8.427,8.427,0,0,0-.923-0.043V19.548a2.877,2.877,0,0,0,1.8-.3c0.224-.126-0.016-0.232.252-0.3a1,1,0,0,0,.126.387l0.126,0.043a6.1,6.1,0,0,1-.042.645h0.336a9.839,9.839,0,0,0-.252-2.107c-0.04-.175-0.084-0.6-0.084-0.6a0.945,0.945,0,0,0,.419-0.258c-0.054-.121.021-0.141,0.084-0.258h0.084a0.418,0.418,0,0,0,.168.215,1.585,1.585,0,0,1,.462-0.215,3.582,3.582,0,0,1,1.51-.516c0.1,0.106.218,0.5,0.294,0.559a1.893,1.893,0,0,0,.21.043c-0.023.023-.208,0.47,0.042,0.6a0.21,0.21,0,0,1,.126-0.043,8.342,8.342,0,0,0,.21,1.677c0.132,0.594.087,1.21,0.21,1.763a4.19,4.19,0,0,0,.168,1.247,0.845,0.845,0,0,0,.5.086v-0.3h0.545V21.828a1.33,1.33,0,0,0,.042-0.559H42.119V20.71H42.37v0.344h0.168l0.21-4.688c0-.263.069-1.549,0.084-1.548H42.244a3.593,3.593,0,0,1,.126-1.161c-0.024.5,0.009,0.931,0.462,0.946V14.215c-0.059-.009.017,0.035-0.042,0.043-0.033.083-.042-0.086-0.042-0.086a0.439,0.439,0,0,0,.126-0.43c-0.118-.054-0.591-0.161-0.671-0.215a0.433,0.433,0,0,0,.252-0.043,2.268,2.268,0,0,0,.042-0.86,0.52,0.52,0,0,0-.168.043,0.558,0.558,0,0,0-.042-0.172c0.257-.054.229-0.286,0.21-0.6-0.1,0-.08.015-0.168-0.086h0.084A4.807,4.807,0,0,0,42.5,10H42.58v0.086a7.132,7.132,0,0,0-.042,1.72,0.318,0.318,0,0,1,.168,0l-0.042.129a0.351,0.351,0,0,0-.126-0.086v0.731Zm-4.363-.774a0.232,0.232,0,0,1,0,.258V11.806Zm0.042,0.344a0.176,0.176,0,0,1,0,.215V12.151Zm6.083,0.3a0.222,0.222,0,0,1,.042.129H44.258Zm-6.041.043a0.176,0.176,0,0,1,0,.215V12.495ZM38.3,12.8a0.176,0.176,0,0,1,0,.215V12.8Zm0.042,0.344a0.176,0.176,0,0,1,0,.215V13.14Zm0.042,0.3a1.015,1.015,0,0,1,.084.3H38.385v-0.3Zm0.042,0.344a0.176,0.176,0,0,1,0,.215V13.785Zm0.042,0.3a0.176,0.176,0,0,1,0,.215V14.086Zm5.5,0.215h0.084v0.086H43.964V14.3Zm-5.454.129a0.176,0.176,0,0,1,0,.215V14.43Zm0.042,0.3a0.232,0.232,0,0,1,0,.258V14.731Zm-21.647.258H16.99C16.94,15.058,16.973,15.042,16.906,14.989Zm21.689,0.086a0.232,0.232,0,0,1,0,.258V15.075Zm-21.9.3a0.442,0.442,0,0,1,0,.387V15.376Zm21.94,0.086a0.849,0.849,0,0,1,.042.645Zm-21.479.129a0.815,0.815,0,0,1,.042.387H17.158V15.936A2.8,2.8,0,0,1,17.158,15.591Zm21.563,0.6a0.3,0.3,0,0,1,0,.3v-0.3ZM15.983,18.774a0.572,0.572,0,0,0,.21,0v0.043c-0.165.087,0.037,0.083-.168,0.129C16.046,18.774,16.005,18.95,15.983,18.774Zm9.187,1.763h0.084v0.043A0.142,0.142,0,0,1,25.17,20.538Zm18.626,0.3a0.156,0.156,0,0,1,.042.086H43.8V20.839ZM76.98,21.312a0.176,0.176,0,0,1,0,.215V21.312Zm-55.417.731A3.22,3.22,0,0,1,20.346,22h1.175a0.683,0.683,0,0,1,.042-0.344v0.387Zm-2.727,0a2.717,2.717,0,0,1,1.049.043H18.836a0.368,0.368,0,0,1-.042.215V22.086a0.2,0.2,0,0,1-.126-0.043h0.126a0.57,0.57,0,0,1,.042-0.3v0.3ZM5.2,22.774H5.286v0.043A0.143,0.143,0,0,1,5.2,22.774Zm-5.16.731a0.223,0.223,0,0,1,.042.129H0.042V23.505Z"/>
</svg>
