<?xml version="1.0" encoding="utf-8"?>
<!-- Generator: Adobe Illustrator 16.0.0, SVG Export Plug-In . SVG Version: 6.00 Build 0)  -->
<!DOCTYPE svg PUBLIC "-//W3C//DTD SVG 1.1//EN" "http://www.w3.org/Graphics/SVG/1.1/DTD/svg11.dtd">
<svg version="1.1" id="Layer_1" xmlns="http://www.w3.org/2000/svg" xmlns:xlink="http://www.w3.org/1999/xlink" x="0px" y="0px"
	 width="39.969px" height="40px" viewBox="0 0 39.969 40" enable-background="new 0 0 39.969 40" xml:space="preserve">
<path id="Color_Fill_1" fill="#FFFFFF" d="M12.029,10.376h1.055c0.107-0.24,0.281-0.445,0.5-0.592
	c0.088-0.018,0.475,0.049,0.653,0.049c0.467-0.059,0.94-0.059,1.407,0c0.499,0.194,1.024,0.311,1.558,0.345v0.148
	c0.391-0.02,0.782,0.031,1.156,0.148V9.143l0.5,0.049v0.2h-0.1c-0.044-0.032-0.097-0.049-0.151-0.049
	c0.022,0.3,0.073,0.598,0.151,0.888V12c0.788-0.031,1.485,0,2.211,0c0.17,0.294,0.437,0.521,0.754,0.641
	c0.34-0.342,0.336-0.038,0.653-0.1c0.073-0.014,0.229-0.186,0.3-0.2c0.1-0.015,0.193,0.05,0.4,0.049
	c0.432,0.862,1.736,0.837,3.064,0.838c2.09,0,4.329,0.062,6.281,0.049v0.353c-1.807,0-3.781,0.049-5.779,0.049l-2.461,0.049
	l-0.051,0.148h-0.242c-0.139,0.107-0.273,0.223-0.399,0.345c-0.409,0.117-0.84,0.134-1.257,0.049
	c-0.041,0.207-0.169,0.386-0.352,0.493c-0.074-0.081-0.036-0.05-0.1-0.049c-0.027,0.027-0.045,0.063-0.051,0.101
	c0.395,0.029,0.784,0.113,1.156,0.246c-0.023,0.064-0.023,0.136,0,0.2c0.417-0.059,0.84-0.059,1.256,0
	c0.006-0.13,0.06-0.253,0.151-0.345c0.212-0.063,0.435-0.08,0.653-0.049l0.05,0.148c0.042,0.074,0.06,0.161,0.05,0.246
	c0.252,0.001,0.504-0.016,0.754-0.049c0.006-0.168,0.078-0.328,0.2-0.443v0.199c0.032,0.043,0.05,0.095,0.05,0.148
	c0.113-0.045,0.215-0.113,0.301-0.2c0.121,0.015,0.24,0.049,0.352,0.101v-0.101c0.127,0.021,0.248,0.071,0.352,0.147
	c0.343-0.047,0.691,0.004,1.006,0.148c0.131,0.217-0.113,0.249,0.199,0.301c0.607-0.438,1.527,0.063,2.211,0.246
	c-0.068,0.051-0.121,0.12-0.15,0.2c0.634,0.142,0.566,0.681,1.256,0.789c0.025-0.096,0.077-0.182,0.15-0.247
	c0.301-0.004,0.576,0.17,0.7,0.444c-0.026,0.026-0.044,0.062-0.05,0.1h0.05v-0.063c0.234-0.217,0.036-0.444,0.5-0.492l0.554,0.247
	c0.017-0.224-0.006-0.206,0.199-0.247c0.127,0.05,0.266,0.066,0.4,0.049c-0.043-0.243-0.157-0.286-0.2-0.542h0.101v0.101
	c0.299,0.313,0.537,0.682,0.699,1.084c0.197,0.047,0.398,0.08,0.6,0.101V17.23c-0.045-0.094-0.063-0.197-0.049-0.301h0.199v0.247
	h0.051c0.062-0.153,0.019-0.11,0.199-0.147v0.147c0.348-0.138,0.74-0.101,1.055,0.101c0.027,0.027,0.045,0.062,0.051,0.1
	c-0.07-0.006-0.141,0.012-0.2,0.049c0.032,0.043,0.05,0.095,0.05,0.148l0.301-0.049c-0.013,0.131-0.013,0.264,0,0.395
	c0.08,0.076,0.189,0.112,0.299,0.1l0.101-0.3h0.05v0.2c-0.055,0.055-0.09,0.124-0.1,0.2c0.652,0.104,1.281,0.321,1.859,0.641v0.05
	c-0.144-0.017-0.101-0.053-0.201,0h0.051c0.223,0.068,0.404,0.23,0.5,0.443c-0.006,0.16-0.059,0.314-0.151,0.444
	c0.309-0.026,0.579,0.204,0.604,0.512c0.004,0.043,0.002,0.087-0.004,0.129c-0.116,0.128-0.28,0.2-0.452,0.2
	c-0.094,0.044-0.198,0.061-0.3,0.049v1.331c-0.081,0.03-0.166,0.046-0.252,0.049c-0.039-0.505-0.232-0.987-0.553-1.381
	c-0.361,0.44-1.314,0.507-1.306,1.479l-0.452-0.049c-0.021,1.666-1.794,2.149-2.863,2.811c-0.861,0.692-1.818,1.256-2.842,1.672
	H7.306c-0.61-0.198-1.174-0.518-1.658-0.938c-0.874-0.6-1.754-1.183-2.613-1.774c-0.702-0.488-1.466-0.958-1.207-2.22h-0.3
	c-0.093,0.045-0.197,0.062-0.3,0.05c-0.042,0.161-0.059,0.327-0.05,0.493c-0.082,0.356-0.082,0.728,0,1.085
	c-0.014,0.434-0.081,0.864-0.2,1.282l-0.151,0.049v-0.2c0.447-0.388,0.173-2.507,0.3-2.959c0.071-0.309,0.071-0.629,0-0.937h0.05
	v-0.046h0.1v0.05c0,0-0.145,0.064-0.1,0.1h0.05v0.049c0.139-0.059,0.326-0.129,0.452-0.2v-0.048
	c-0.651-0.141-0.586-0.291-0.553-1.184c0.192-0.044,0.377-0.111,0.553-0.199c-0.382-0.067-0.771-0.084-1.156-0.049
	c-0.044,0.07,0.04,0.121-0.1,0.1v-0.048c-0.191-0.741-0.292-1.503-0.3-2.269c0.065-0.344-0.2-0.789-0.1-0.985
	c0.218-0.103,0.462-0.137,0.7-0.101v0.049c-0.038,0.006-0.073,0.022-0.1,0.05h0.246c0.782-0.11,1.572-0.16,2.362-0.148v-0.2h0.2
	c-0.001-0.053,0.017-0.105,0.05-0.147c0.044-0.032,0.097-0.049,0.151-0.049c0.493,0.121,1.003,0.155,1.508,0.1
	c-0.001-0.054,0.017-0.105,0.05-0.147c0.352-0.143,0.743-0.16,1.106-0.049v-0.146h0.256v0.148c0.68,0,1.352-0.039,1.91,0
	c0.008,0.062,0.045,0.117,0.1,0.147c0.198,0.043,0.402,0.043,0.6,0c0.066,0.024,0.152,0.181,0.2,0.2
	c0.089,0.029,0.246-0.077,0.4-0.049c0.516,0.075,1.038,0.092,1.558,0.049l0.05-0.148c0.351-0.03,0.704-0.03,1.055,0
	c-0.024-0.412-0.04-0.682-0.5-0.689c-0.436-0.264-1.773,0.089-2.211-0.101H9.669c0.077-0.556,0.077-1.12,0-1.677
	c-0.054,0.001-0.107-0.017-0.151-0.049c0.098-0.201,0.149-0.421,0.151-0.644l1.106-0.1c0.074-0.256,0.107-0.522,0.1-0.789
	c0.032-0.042,0.05-0.095,0.05-0.148h-0.2c-0.064-0.087-0.1-0.192-0.1-0.3h0.044v-0.042h0.05v0.247h0.15V9.636
	c-0.091-0.112-0.145-0.25-0.151-0.395c0.211-0.184,0.29-0.476,0.2-0.74h0.151v0.641c0.116,0.191,0.177-0.036,0.2,0.394
	c-0.246,0.416-0.317,0.912-0.2,1.381h0.1v-0.1c0.054-0.141,0.071-0.294,0.05-0.444h0.76V3.916c-0.08-0.805-0.063-1.615,0.05-2.416
	V10.376z M18.31,10.82c-0.027,0.182-0.01,0.368,0.05,0.542C18.387,11.18,18.37,10.994,18.31,10.82L18.31,10.82z M11.074,11.067
	c-0.01,0.085,0.007,0.172,0.05,0.247C11.134,11.229,11.117,11.142,11.074,11.067L11.074,11.067z M11.074,11.367v0.1h0.05v-0.1
	H11.074z M18.31,11.416c-0.014,0.103,0.003,0.208,0.05,0.3c0.016-0.104-0.001-0.21-0.049-0.305L18.31,11.416z M11.476,12.156
	l-0.3,0.049v0.045c0.222,0.023,0.2,0.018,0.251,0.2h0.05v-0.3L11.476,12.156z M9.569,13.384c0.066,0.106,0.066,0.24,0,0.345V13.384z
	 M31.428,13.384c0,0.054,0.018,0.106,0.051,0.148c0-0.054-0.019-0.106-0.053-0.148H31.428z M31.579,13.384
	c-0.001,0.054,0.017,0.106,0.05,0.148v-0.148H31.579z M31.68,13.384c-0.002,0.054,0.016,0.106,0.049,0.148v-0.148H31.68z
	 M31.83,13.384c-0.006,0.07,0.012,0.141,0.05,0.2c0.006-0.07-0.013-0.141-0.052-0.2H31.83z M31.93,13.384
	c0,0.054,0.018,0.106,0.051,0.148v-0.1l0.049-0.049L31.93,13.384L31.93,13.384z M32.081,13.384c-0.007,0.07,0.011,0.141,0.05,0.2
	C32.137,13.514,32.119,13.443,32.081,13.384L32.081,13.384z M32.182,13.384c-0.013,0.081,0.027,0.161,0.1,0.2
	c-0.026-0.064-0.026-0.136,0-0.2H32.182z M32.332,13.384c-0.006,0.07,0.012,0.141,0.05,0.2
	C32.388,13.514,32.37,13.443,32.332,13.384L32.332,13.384z M6.401,14.962c0.019,0.129-0.037,0.065,0.1,0.101v-0.052L6.401,14.962z
	 M21.777,14.962c0.131,0.094,0.295,0.13,0.453,0.101v-0.052C22.083,14.972,21.93,14.955,21.777,14.962z M24.24,15.262h0.699v-0.251
	c-0.214-0.047-0.434-0.063-0.652-0.049c-0.032,0.095-0.049,0.194-0.047,0.295V15.262z M21.677,15.162
	c0.126,0.104,0.294,0.141,0.452,0.1v-0.1H21.677L21.677,15.162z M22.277,15.162v0.1h0.05v-0.054h0.05
	c-0.026-0.025-0.06-0.043-0.096-0.049L22.277,15.162z M3.533,15.211v0.1h0.05c-0.003-0.038-0.02-0.074-0.046-0.103L3.533,15.211z
	 M30.27,16l-0.101,0.247h0.101c0.152,0.081,0.326,0.115,0.5,0.101l0.049-0.101L30.27,16z M31.727,16.592l-0.101,0.2
	c0.249,0.054,0.383,0.158,0.653,0.2c0.026-0.064,0.043-0.131,0.05-0.2L31.727,16.592z M1.175,19.6c0.142,0.052,0.3,0.012,0.4-0.1
	c-0.086-0.002-0.171-0.018-0.251-0.049c0-0.192,0.025-0.223-0.1-0.301v0.05C1.172,19.326,1.155,19.465,1.175,19.6z M1.175,19.7
	c-0.008,0.149,0.009,0.3,0.05,0.444h0.1c-0.007-0.135,0.01-0.268,0.05-0.396c0.159,0,0.068,0.084,0.151-0.049H1.175z M39.466,20
	c-0.054,0.072-0.089,0.157-0.1,0.247c0.026,0.026,0.044,0.062,0.05,0.101h0.3v-0.101c0.032-0.043,0.05-0.095,0.05-0.147
	c-0.041-0.025-0.074-0.06-0.1-0.101h-0.197L39.466,20z M33.637,23.2c-0.085,0.112-0.121,0.255-0.1,0.394
	c-0.027,0.027-0.045,0.063-0.051,0.1h0.101l0.399-0.246v-0.053C33.861,23.347,33.744,23.281,33.637,23.2z M5.949,23.891h-0.6v0.049
	h0.05c0.141,0.137,0.313,0.239,0.5,0.3v-0.2c0.033-0.044,0.051-0.098,0.05-0.152V23.891z M18.713,24.136
	c-0.017,0.486-0.154,0.961-0.4,1.382h1.656v-0.053c-0.369-0.436-0.501-1.025-0.352-1.578h-0.048
	c-0.219,0.232-0.547,0.326-0.856,0.246V24.136z M23.639,24.136c-0.01,0.487-0.148,0.964-0.4,1.382h0.854v-0.101
	c-0.499-0.358-0.193-0.872-0.455-1.284L23.639,24.136z M28.211,24.336c-0.152,0.008-0.305-0.008-0.452-0.049
	c-0.034,0.437-0.171,0.859-0.399,1.232h1.256v-0.1c-0.288-0.287-0.436-0.686-0.405-1.09L28.211,24.336z M10.523,24.336h-0.4v0.044
	c0.031,0.417-0.114,0.829-0.4,1.134h1.206v-0.049c-0.291-0.304-0.438-0.716-0.407-1.135L10.523,24.336z M14.593,24.536
	c-0.065,0.353-0.202,0.688-0.4,0.985h0.854v-0.057c-0.199-0.287-0.353-0.604-0.455-0.938L14.593,24.536z"/>
</svg>
