<svg xmlns="http://www.w3.org/2000/svg" width="80" height="40" viewBox="0 0 80 40">
  <defs>
    <style>
      .cls-1 {
        fill: #fff;
        fill-rule: evenodd;
      }
    </style>
  </defs>
  <path id="uk_destroyer_g_grafton_ico" class="cls-1" d="M48.757,8a0.284,0.284,0,0,1,.208.128H48.632V8.085C48.767,8.05,48.7,8.106,48.757,8Zm0.5,4.932a0.588,0.588,0,0,1,.208.043,0.373,0.373,0,0,0-.042.34c-0.135.035-.064-0.021-0.125,0.085a1.91,1.91,0,0,1,.083.893h0.083c0.061-.107.018-0.066,0.166-0.085V14.25c-0.139.089-.038,0.164-0.042,0.213a0.334,0.334,0,0,0-.166.3,5.386,5.386,0,0,1,.125,1.36,18.139,18.139,0,0,1,.291,2.933h0.624c0-.571-0.081-0.9-0.083-1.488h0.083v0.043a1.836,1.836,0,0,1,.042.723h0.333v-0.3a0.265,0.265,0,0,1-.166-0.043h0.166A9.321,9.321,0,0,0,51,16.758a1.983,1.983,0,0,0-.25-0.34l-0.25-.6h0.083c0.082,0.048.075,0.025,0.166,0-0.017-.31,0-0.545.25-0.6,0.093,0.141.076,0.049,0.208,0a0.389,0.389,0,0,1,.167.34,0.318,0.318,0,0,0-.083.255,2.314,2.314,0,0,0,.624,0v0.085a1.657,1.657,0,0,0-.374,1.488,0.646,0.646,0,0,0,.333.042v-0.17a0.264,0.264,0,0,1-.166-0.043h0.083a1.815,1.815,0,0,0,.25-0.085V15.78a2.624,2.624,0,0,1,.666,0v0.34a0.992,0.992,0,0,1,.749.213,0.882,0.882,0,0,1,.042.638,0.53,0.53,0,0,1,.208,0,1.09,1.09,0,0,0-.042.34h1.165l0.083-.383h0.166a1.238,1.238,0,0,0,0,.383h0.083a0.992,0.992,0,0,1,.416-0.255c0,0.166-.021.191,0.083,0.255a0.21,0.21,0,0,1,.125-0.043,0.458,0.458,0,0,1,.042-0.255v0.255a2.344,2.344,0,0,1,.832,0,0.457,0.457,0,0,1,.042-0.255,0.279,0.279,0,0,0,.042.17V17.141c0.028-.033.054-0.095,0.083-0.128,0.034,0.138-.02.065,0.083,0.128,0.013-.134,0-0.117.042-0.128,0.105,0.017.066-.025,0.083,0.128l0.624,0.17v0.468a2.162,2.162,0,0,0-.915,1.275,4.591,4.591,0,0,0,0,1.445h0.166v-0.51a3.6,3.6,0,0,0,.707-0.043v0.043a0.927,0.927,0,0,0-.042.425H57.66c-0.005-.171-0.023-0.232.083-0.3V20.5l1.248-.042a0.671,0.671,0,0,1,.042-0.34v0.34l1.04,0.042a1.061,1.061,0,0,1,.083-0.468,0.235,0.235,0,0,1-.208-0.255H60.78a1.485,1.485,0,0,1,.042-0.34,0.454,0.454,0,0,1-.125-0.085,1.953,1.953,0,0,1,.666.085V19.181l1.123,0.085,0.042,0.34a13.772,13.772,0,0,0,2.787.043v0.213c-0.817,0-1.654.038-2.413,0.043,0.013,0.121.044,0.088,0,.17a0.443,0.443,0,0,1-.25.043V20.5a1.954,1.954,0,0,1,.79.043,0.43,0.43,0,0,0-.25.043,0.22,0.22,0,0,1,.042.128,0.342,0.342,0,0,1,.208.043H63.235v0.17l0.333-.043v-0.3h0.042V20.542h0.125V20.8l0.374-.043V20.669a0.334,0.334,0,0,1-.083-0.425c0.274-.139.476-0.075,0.458,0.34H64.441v0.043h0.208a0.6,0.6,0,0,1,.333-0.085V20.2a1.234,1.234,0,0,1,.374,0v0.255H65.4a2.039,2.039,0,0,1,1.581,0,0.149,0.149,0,0,1-.083.042,6.976,6.976,0,0,1-1.623.68l-0.582.17v1.445c0.1,0.069.018,0,0,.128h0.166v-0.34a3.494,3.494,0,0,1,.957-0.043,3.345,3.345,0,0,0,0-.468,0.934,0.934,0,0,1-.291-0.255l-0.042-.128h0.874a1.19,1.19,0,0,0-.042-0.383,1.321,1.321,0,0,1,.582.043,0.873,0.873,0,0,1,.042-0.3h0.042a4.248,4.248,0,0,1,1.082.255,1.063,1.063,0,0,1,.042.255h2.746v0.213l-2.413.043V21.9a0.291,0.291,0,0,1,.042.17H68.352V22.5a0.634,0.634,0,0,1,.333.043H68.393v0.17h0.541V22.5h0.125V22.71a0.528,0.528,0,0,1,.291.043c-0.167-.006-0.227-0.023-0.291.085h0.5V22.5a0.2,0.2,0,0,1-.125-0.043h0.125a0.279,0.279,0,0,1,.042-0.17v0.17a1.707,1.707,0,0,1,.707.043H69.6v0.34c0.39-.025.748-0.041,1.206-0.043a3.114,3.114,0,0,1,0-.425h0.042a0.913,0.913,0,0,0,.042.425,0.871,0.871,0,0,1,.416-0.042,1.337,1.337,0,0,0,0-.3,0.209,0.209,0,0,1,.125-0.043c0.1-.049.163,0.049,0.25-0.085,0.007-.009.011-0.09,0.042-0.213A0.453,0.453,0,0,1,71.6,22.03h0.582v0.043c-0.105.062-.064,0.019-0.083,0.17a0.378,0.378,0,0,1,.125.085,1.041,1.041,0,0,1,.416,0,1.392,1.392,0,0,0,.666.255,1.688,1.688,0,0,1,.042-0.68v0.723h0.042a1.162,1.162,0,0,1,.416-0.043v-0.17h0.041v0.043c0.071,0.078-.04.1,0.166,0.128a0.95,0.95,0,0,0,.333,0v-0.3l0.416,0.043a0.322,0.322,0,0,0-.083.255,3.954,3.954,0,0,0,.707-0.085v-0.17a2.184,2.184,0,0,0,.374.085,1.425,1.425,0,0,1,.042-0.6,3.562,3.562,0,0,0,.042.68,1.021,1.021,0,0,0,.333.043,5.163,5.163,0,0,0,.749-0.085,1.686,1.686,0,0,1,.042-0.68,1.208,1.208,0,0,0,.083.765,5.938,5.938,0,0,0,1,0,1.165,1.165,0,0,1,.042-0.51v0.553l1-.043a1.817,1.817,0,0,1,.042-0.723,1.684,1.684,0,0,0,.042.68V22.455a3.618,3.618,0,0,0,.291-0.935c0.129-.364.261-0.831,0.416-1.19V17.566h0.083v4.379a0.7,0.7,0,0,0-.083.553c0.135,0.035.064-.021,0.125,0.085a7.82,7.82,0,0,0-.291,1.828c-0.411,1.784-.391,3.815-0.832,5.569a10.049,10.049,0,0,1-2.746.085H70.224v0.3c0.248,0.11.268,0.215,0.25,0.6a5.04,5.04,0,0,1-1.123,0V30.49a0.348,0.348,0,0,0,.208-0.425H13.687c-1.067-.253-2.261-0.435-3.328-0.68a6.925,6.925,0,0,0-1.5.128L7.072,29.6a9.642,9.642,0,0,1-2,.255,2.949,2.949,0,0,1-.042.765,0.715,0.715,0,0,1-.624.085,2.1,2.1,0,0,1-.042-0.808,0.972,0.972,0,0,1-.624-0.128A0.155,0.155,0,0,1,3.7,29.682a1.36,1.36,0,0,0,.624-0.34A2.278,2.278,0,0,1,4.243,28.7a2.877,2.877,0,0,0,.666-0.085l0.042,0.128a1.153,1.153,0,0,1,0,.638,0.58,0.58,0,0,0,.166.043,0.645,0.645,0,0,1,.333-0.043l-0.083-.935a6.835,6.835,0,0,1-1.789-.34v0.085H3.619a0.314,0.314,0,0,1,.166.17,0.574,0.574,0,0,1,.042.3,12.412,12.412,0,0,1-.749,1.19,1.857,1.857,0,0,1-1.165,0c-0.087-.116-0.254-0.179-0.333-0.3A4.315,4.315,0,0,1,1.206,27.9,0.472,0.472,0,0,1,1.5,27.812a0.794,0.794,0,0,0,.749.043H2.038a2.9,2.9,0,0,0-1.206-.213V25.558a5.041,5.041,0,0,0,0-.85,0.661,0.661,0,0,0-.541-0.34,0.435,0.435,0,0,1-.125.213,0.142,0.142,0,0,1-.083-0.043A0.2,0.2,0,0,1,0,24.325c0.16-.1.113-0.136,0.083-0.34a5.011,5.011,0,0,1,1.082.17,8.2,8.2,0,0,0,.458-0.68c0.17-.506-0.283-0.553.291-0.765V22.667a0.27,0.27,0,0,1-.208-0.085c0.036-.08.02-0.031,0-0.128H1.872L1.456,19.776H1.581a8.6,8.6,0,0,0,.291,1.956,2.891,2.891,0,0,0,.166.978,7,7,0,0,1,1.04-.383L3.162,22.37v0.042H3.12c-0.251.273-1.045,0.258-1.082,0.723a4.8,4.8,0,0,1,.166.85c0.46-.125,1.317.379,1.706,0.128,0.034,0.138-.02.065,0.083,0.128a0.251,0.251,0,0,0,.25.043,0.322,0.322,0,0,1,.333-0.213,0.68,0.68,0,0,1,.042.213c-0.047.072-.066,0.172-0.125,0.3H4.659v0.127c0.646,0,.912.084,1.581,0.085v0.085a0.22,0.22,0,0,0-.042.128H6.7V24.623a5.717,5.717,0,0,1-1.5-.043,7.708,7.708,0,0,1,1.872.043H6.823v0.383H7.2V24.751a2.092,2.092,0,0,1,.333.085V24.751a1.277,1.277,0,0,1,.042-0.68H7.239V23.858l-2.371-.043V23.6a13.714,13.714,0,0,0,2.787-.043,0.683,0.683,0,0,1,0-.3,7.529,7.529,0,0,1,1.123-.128c0.037,0.06.045,0.238,0.083,0.3A0.422,0.422,0,0,1,9.4,23.39a0.686,0.686,0,0,0-.042.34h0.874v0.085c-0.105.093-.236,0.193-0.333,0.3a9.194,9.194,0,0,0-1.082.043v0.468H9.277A0.912,0.912,0,0,1,9.319,24.2v0.425h1.872V23.6a0.2,0.2,0,0,0,.125-0.043,0.293,0.293,0,0,0,.042-0.17,3.058,3.058,0,0,1-.832-0.34c-0.654-.291-1.3-0.579-1.914-0.85V21.817H8.736c0.106,0.385.422,0.363,0.915,0.34a2.5,2.5,0,0,0,.874.213V22.157a2.983,2.983,0,0,1,.749,0v0.425l0.291,0.043a1.553,1.553,0,0,1,.042-0.638,1.554,1.554,0,0,0,.042.638v0.043L11.9,22.71a0.873,0.873,0,0,1,.042-0.3,0.142,0.142,0,0,1,.083.043,0.574,0.574,0,0,1,.042.3l0.416,0.085a2.216,2.216,0,0,1,.042-0.85v0.85h0.083a0.379,0.379,0,0,1,.083-0.383V22.412c0.042-.042.041,0.042,0.042,0.043a0.8,0.8,0,0,1,.042.383,0.36,0.36,0,0,0,.374-0.085c-0.219-.035-0.219-0.124-0.208-0.383a1.058,1.058,0,0,0,.083-0.383H12.689V21.775l-2.371-.043V21.519h2.039a1.067,1.067,0,0,0,.707-0.085,0.658,0.658,0,0,0,.042-0.3,5.334,5.334,0,0,0,1.165-.128c-0.006.171-.023,0.233,0.083,0.3a0.977,0.977,0,0,1,.5-0.085v-0.34c-0.139,0-.13.029-0.125-0.213H14.81a0.362,0.362,0,0,0,.291,0v0.255a0.519,0.519,0,0,1-.166-0.043v0.765h0.749v0.085a1.06,1.06,0,0,0-.291,1.105H15.6a2.787,2.787,0,0,1,0-.383h0.125v0.383a2.034,2.034,0,0,0,.458-0.043V21.987a5.494,5.494,0,0,0,.208-1.658c0.221-.992.134-2.357,0.333-3.231a1.579,1.579,0,0,0-.042-0.3l0.083-.085c0.091-.3-0.09-0.3,0-0.51H16.6a4.253,4.253,0,0,1-.749.127V16.248a1.557,1.557,0,0,0,.915-0.17,0.158,0.158,0,0,1-.125-0.085c0.212,0.007.19-.079,0.166-0.383L16.349,9.743h0.125a4.682,4.682,0,0,0,.083,1.36c0.166,0.674,0,1.553.166,2.211l0.624,8.545c0.345,0.022.6,0.042,1.04,0.043V22.88a1.383,1.383,0,0,0-.333.043,0.732,0.732,0,0,0-.125.425c0.156,0,.1-0.051.125,0.128-0.108.012-.082,0-0.083,0.213h0.083A0.147,0.147,0,0,1,18.1,23.6v0.17c-0.108.012-.082,0-0.083,0.213H18.1a0.147,0.147,0,0,1,.042-0.085,0.279,0.279,0,0,0,.042.17,1.914,1.914,0,0,1,.915,0v0.34H18.929a1.254,1.254,0,0,0,.166.553,0.275,0.275,0,0,0,.166.043A1.95,1.95,0,0,1,19.3,24.24v0.765h0.25l0.042-.255c0.063,0.037.031,0.121,0.083,0.043a1.3,1.3,0,0,0,.083-0.765c0.1-.059.109-0.118,0.208-0.17a0.354,0.354,0,0,0,.125.17,2.271,2.271,0,0,0,.042.765,0.6,0.6,0,0,0,.333.085v0.128H20.8a2.809,2.809,0,0,1,.083-0.893H20.343a0.149,0.149,0,0,0-.083-0.043V23.815h2.787a1.078,1.078,0,0,1,.083-0.213,0.242,0.242,0,0,0,.208.17l0.083-.255a0.2,0.2,0,0,1-.125-0.043,0.291,0.291,0,0,0,.042-0.17h0.208v0.17l0.374-.085c-0.019-.2-0.086-0.244.125-0.3v0.085a1.069,1.069,0,0,1,.042.3h0.125c0.047-.143.047-0.141,0.208-0.17a1.083,1.083,0,0,0,.083.213,1.844,1.844,0,0,0,.333.127,0.155,0.155,0,0,1,.083-0.085c0.016,0.108-.024.067,0.125,0.085L25,23.22h0.125a3.875,3.875,0,0,1-.042.553h0.083c0.294-.348.723-0.16,1.415-0.128V23.56a1.636,1.636,0,0,0-.291-0.425c-0.3-.18-1.166-0.249-1.248-0.6h0.083c0.439,0.3,1.406.216,1.581,0.765,0.3,0.418-.047,1.181.25,1.616a0.21,0.21,0,0,1,.125-0.043c-0.032-.636-0.036-1.54,0-2.126a4.2,4.2,0,0,1-.832,0,0.232,0.232,0,0,1-.125-0.17,4.582,4.582,0,0,0,0-1.02l0.832-.043v-0.3c-0.268-.094-0.267-0.342-0.25-0.723a2.587,2.587,0,0,0,.374-0.213c0.067,0.271.153,0.049,0.25,0.213v0.553a3.129,3.129,0,0,1-.25.212c-0.058.027-.045,0.056-0.042,0.255,0.739,0.032,1.244.006,1.789,0.043V21.477a0.171,0.171,0,0,1-.083-0.17h0.042a0.226,0.226,0,0,0,.166.17,0.353,0.353,0,0,1,.416-0.34V22.37a3.658,3.658,0,0,1-.79.3,4.611,4.611,0,0,1,0,.51l0.333-.043a0.8,0.8,0,0,1,.042.255c-0.025.012-.35,0.239-0.374,0.085v1.4c0.439,0,.639-0.08,1.04-0.085,0.012,0.113.034,0.089,0.25,0.085a0.358,0.358,0,0,1,.374-0.085c0.012,0.113.034,0.089,0.25,0.085a0.358,0.358,0,0,1,.374-0.085,1.084,1.084,0,0,0,.749.085,0.667,0.667,0,0,0,.083-0.3H31.576v-0.3a15.624,15.624,0,0,1-2.746-.213V23.815h2.787a0.229,0.229,0,0,1,.125-0.17,0.158,0.158,0,0,0,.166.128,0.988,0.988,0,0,0,.083-0.255c-0.083-.106-0.069.016-0.083-0.213h0.208a0.547,0.547,0,0,0,.042.17l0.333-.085c-0.021-.225-0.116-0.269.125-0.3a0.119,0.119,0,0,0,.042.042,1.215,1.215,0,0,0,0,.34h0.125c0.047-.143.047-0.141,0.208-0.17a0.631,0.631,0,0,0,.416.34c0.054-.1-0.018-0.029.083-0.085,0.016,0.108-.024.067,0.125,0.085,0.018-.448.239-0.412,0.25-0.893A0.2,0.2,0,0,1,33.7,22.54h0.125V22.412l0.915-.042a2.172,2.172,0,0,1,.042-0.468h0.042a1.709,1.709,0,0,0,.832.468,3.821,3.821,0,0,0-.125-0.85c-0.1-.456-0.04-1.094-0.166-1.658a2.684,2.684,0,0,1-.125-0.85,0.5,0.5,0,0,0,.208-0.51,0.785,0.785,0,0,1-.042-0.51,5.965,5.965,0,0,0,1.5-.213,1.755,1.755,0,0,1,.582-0.042,0.3,0.3,0,0,1,.083.3,1.294,1.294,0,0,1,.083.6,0.315,0.315,0,0,1,.291.043c0,0.669.191,1.145,0.208,1.871h0.083a0.674,0.674,0,0,1,.042-0.34v0.723h0.25V20.2a0.738,0.738,0,0,1,.125.723c0.108,0.064.088,0.127,0.083,0.3H38.69V20.967H38.232v0.085l0.208,1.4h0.083A3.349,3.349,0,0,1,39.4,21.9v0.085a1.969,1.969,0,0,1,.042.765,1.463,1.463,0,0,0,.707-0.213v0.638a1.9,1.9,0,0,1,.333,0,1.774,1.774,0,0,1,.166-0.425,0.181,0.181,0,0,1-.166-0.17H40.52a1.953,1.953,0,0,1,.125-0.213c-0.129-.052-0.094-0.016-0.125-0.17a0.5,0.5,0,0,1,.333-0.17,3.56,3.56,0,0,0,.874.043V21.647h1.248v1.19h0.083a0.21,0.21,0,0,0,.125.043V22.242c0.137-.036.164-0.085,0.291-0.128v0.043a1.838,1.838,0,0,0-.042.723c0.108,0.012.074-.02,0.083,0.17,0.333,0.461.158,1.356,0.458,1.786a1.724,1.724,0,0,0,.707.043v-0.17h0.291a1.178,1.178,0,0,0-.083-0.85c-0.114.1-.25,0.146-0.291,0.085L44.514,23.9v0.17H44.306V23.73c-0.176-.06-0.175-0.141-0.166-0.383a0.928,0.928,0,0,0,.125-0.935H44.68a0.645,0.645,0,0,1,.333-0.042c-0.024-.217-0.1-0.408.083-0.51a1.343,1.343,0,0,0,.582.255l-0.291-2.466a4.5,4.5,0,0,1-.083-0.893,0.536,0.536,0,0,0,.25-0.34,1.314,1.314,0,0,1-.042-0.808,7.7,7.7,0,0,0,1.04-.085,0.362,0.362,0,0,1,.042-0.213c0.006,0.16-.02.149,0.083,0.213a2.82,2.82,0,0,1,1-.127c-0.047-.352-0.144-0.847-0.166-1.318h0.208a17.656,17.656,0,0,0,.5,3.4,20.63,20.63,0,0,0,.333,2.806,2.4,2.4,0,0,0,.541-0.425,0.665,0.665,0,0,1,.125-0.255,0.6,0.6,0,0,1,.333,0,0.208,0.208,0,0,1,.042-0.127c0.047,0.122.007,0.078,0.125,0.127l0.042-.085a0.94,0.94,0,0,0,.083-0.68c-0.058-.009.017,0.035-0.042,0.042-0.032.082-.042-0.085-0.042-0.085a7.374,7.374,0,0,0-.083-1.956L49.215,13.7c-0.118.014-.086,0.045-0.166,0H49.09a0.284,0.284,0,0,0,.125-0.255,4.83,4.83,0,0,1-.125-1.275c-0.208-1.114-.157-2.78-0.375-3.869l0.166-.043V8.383a5.419,5.419,0,0,0,.083,1.148c0.105,0.016.066-.025,0.083,0.128,0.143,0.21-.133.507,0,1.063A10.362,10.362,0,0,1,49.256,12.932ZM48.674,8.893a0.154,0.154,0,0,1,.042.085H48.674V8.893Zm-32.449.638a0.743,0.743,0,0,1,.375.043C16.408,9.59,16.308,9.661,16.225,9.531ZM48.341,9.7h0.166V9.786c-0.029.066-.005,0.006,0,0.128H48.424a0.232,0.232,0,0,1-.208.043,0.437,0.437,0,0,1-.042-0.213A0.264,0.264,0,0,0,48.341,9.7Zm0.416,0.553a0.155,0.155,0,0,1,.042.085H48.757V10.253Zm0.125,1.488a0.155,0.155,0,0,1,.042.085H48.882V11.741Zm0.083,0.893a0.155,0.155,0,0,1,.042.085H48.965V12.634Zm0.125,1.488a0.155,0.155,0,0,1,.042.085H49.09V14.122ZM15.559,15.27l0.125,0.043v0.043A0.158,0.158,0,0,1,15.559,15.27Zm0.125,0.085L15.809,15.4V15.44A0.158,0.158,0,0,1,15.684,15.355Zm0.125,0.085,0.125,0.043v0.043A0.158,0.158,0,0,1,15.809,15.44Zm0.125,0.085,0.125,0.043V15.61A0.158,0.158,0,0,1,15.933,15.525Zm0.125,0.085a1.357,1.357,0,0,1,.333.17v0.043H16.308A2.539,2.539,0,0,1,16.058,15.61Zm0.333,0.213,0.125,0.043v0.043A0.158,0.158,0,0,1,16.391,15.823Zm0.125,0.085,0.125,0.043v0.042A0.158,0.158,0,0,1,16.516,15.908ZM46.8,17.141a0.43,0.43,0,0,1,.25.043A0.431,0.431,0,0,1,46.8,17.141Zm0.582,0h0.083v0.043A0.142,0.142,0,0,1,47.384,17.141Zm-1,.043h0.083v0.043A0.141,0.141,0,0,1,46.386,17.183Zm0.125,0a0.155,0.155,0,0,1,.042.085H46.511V17.183Zm0.707,0H47.3v0.043A0.142,0.142,0,0,1,47.218,17.183Zm-1.082.043h0.083v0.043A0.142,0.142,0,0,1,46.136,17.226Zm1.248,0.043a0.158,0.158,0,0,1,.125.043C47.407,17.37,47.456,17.327,47.384,17.268Zm-0.374.043a0.2,0.2,0,0,1,.125.043A0.2,0.2,0,0,1,47.01,17.311Zm-0.333.043H46.76V17.4A0.141,0.141,0,0,1,46.677,17.353ZM46.3,17.4h0.083v0.042A0.142,0.142,0,0,1,46.3,17.4Zm-0.374.042a0.2,0.2,0,0,1,.125.043A0.2,0.2,0,0,1,45.928,17.438Zm-0.374.043a0.2,0.2,0,0,1,.125.043A0.2,0.2,0,0,1,45.554,17.481Zm-8.653.043h0.083v0.043A0.142,0.142,0,0,1,36.9,17.523Zm-0.458.043a0.2,0.2,0,0,1,.125.043A0.2,0.2,0,0,1,36.443,17.566Zm-0.042.043a0.155,0.155,0,0,1,.042.085H36.4V17.608Zm0.79,0a0.2,0.2,0,0,1,.125.043H37.234C37.207,17.639,37.214,17.664,37.192,17.608Zm-1.206.043h0.083v0.043A0.142,0.142,0,0,1,35.985,17.651Zm0.957,0h0.083v0.043A0.142,0.142,0,0,1,36.942,17.651Zm-1.165.043a0.154,0.154,0,0,1,.042.085H35.777V17.693Zm-0.083.085h0.083v0.043A0.142,0.142,0,0,1,35.694,17.778Zm-0.042.043a0.154,0.154,0,0,1,.042.085H35.653V17.821Zm-0.208.043h0.083v0.043A0.142,0.142,0,0,1,35.445,17.863Zm14.269,3.061c0.015,0.013.083,0.022,0.042,0.085C49.709,20.989,49.626,20.934,49.714,20.924Zm-0.042.128a0.155,0.155,0,0,1,.042.085H49.672V21.052Zm-0.042.128a0.155,0.155,0,0,1,.042.085H49.631V21.179Zm-0.042.127a0.155,0.155,0,0,1,.042.085H49.589V21.307Zm16.641,0a0.154,0.154,0,0,1,.042.085H66.23V21.307Zm-27.5.043a1.389,1.389,0,0,1,0,.808V21.349ZM74.55,21.86a0.436,0.436,0,0,1,0,.383V21.86Zm-31.077.383h0.083v0.043A0.142,0.142,0,0,1,43.474,22.242Zm0.166,0.17a0.219,0.219,0,0,1,.042.128H43.64V22.412Zm0.042,0.213a0.219,0.219,0,0,1,.042.128H43.682V22.625Zm26.251,0.043a1.954,1.954,0,0,1,.79.043A1.956,1.956,0,0,1,69.932,22.667Zm-26.209.17a0.154,0.154,0,0,1,.042.085H43.723V22.837Zm0.042,0.17a0.219,0.219,0,0,1,.042.127H43.765V23.007Zm0.042,0.213a0.154,0.154,0,0,1,.042.085H43.807V23.22Zm-34.363.128a0.155,0.155,0,0,1,.042.085H9.444V23.348Zm34.4,0.043a0.22,0.22,0,0,1,.042.128H43.848V23.39ZM43.89,23.6a0.22,0.22,0,0,1,.042.128H43.89V23.6Zm0.042,0.213a0.155,0.155,0,0,1,.042.085H43.931V23.815Z" transform="translate(0 0.5)"/>
</svg>
