<svg xmlns="http://www.w3.org/2000/svg" width="79.906" height="40" viewBox="0 0 79.906 40">
  <defs>
    <style>
      .cls-1 {
        fill: #fff;
        fill-rule: evenodd;
      }
    </style>
  </defs>
  <path id="Color_Fill_1" data-name="Color Fill 1" class="cls-1" d="M41.612,9.3V9.69h0.2a0.654,0.654,0,0,1,.391-0.1v0.1H42a0.654,0.654,0,0,1-.391.1v0.493c0.372-.051.411-0.138,0.782-0.2v0.2H42a0.655,0.655,0,0,1-.391.1v2.761h0.2a0.479,0.479,0,0,1,.1-0.3v0.3l0.586-.1a0.642,0.642,0,0,1,.1-0.394v0.394a0.627,0.627,0,0,0,.391-0.1,0.671,0.671,0,0,1-.293-0.592h0.293c-0.006.287-.094,0.137,0,0.3a0.39,0.39,0,0,1,.391-0.2v0.1a1.709,1.709,0,0,0-.2.591h0.586a0.479,0.479,0,0,1,.1-0.3c0.264,0.575,1.249.094,1.758,0.394a3.469,3.469,0,0,0-1.465.1,13.843,13.843,0,0,1,3.126.592c1.454,0.38,2.954.424,4.3,0.789,0.959,0.26,1.773.143,2.735,0.394,2.907,0.76,6.177,1.019,9.084,1.775,0.964,0.25,1.771.144,2.735,0.394,2.907,0.756,6.176,1.021,9.084,1.775,1.487,0.385,3.032.292,4.4,0.789v0.1h-0.2c-0.822-.52-2.2-0.324-3.223-0.592-2.057-.536-4.285-0.62-6.447-1.183-6.072-1.58-12.679-1.984-18.755-3.549-2.337-.6-4.855-0.485-7.033-1.282v0.394a5.883,5.883,0,0,1,.391,1.578,12.021,12.021,0,0,1,.879,4.338c0.278-.032.2-0.1,0.391,0a0.356,0.356,0,0,0-.1.2h0.293v-0.3a1.091,1.091,0,0,0,.488,0,2.5,2.5,0,0,0,.1-0.394,0.334,0.334,0,0,1,.2.1,3.016,3.016,0,0,0,.391.592V18.563a1.352,1.352,0,0,1-.684-0.2h0.684a1.685,1.685,0,0,0-.1-0.592,0.588,0.588,0,0,1-.488,0,0.641,0.641,0,0,1-.1.394V16.493h0.1v-0.1c0.629,0,2.042-.108,2.051-0.1a0.732,0.732,0,0,1,.2.591c-0.572.575-.507,1.9-0.488,3.056h0.2c0.184-.085.072-0.047,0.293,0v-0.2a1.976,1.976,0,0,1-.293-0.592,0.545,0.545,0,0,0,.586-0.3,1.519,1.519,0,0,0,0-.394c-0.067-.246-0.23-0.183-0.1-0.3a0.884,0.884,0,0,1,.684-0.789c0.1,0.183.2,0.378,0.293,0.592h0.1a1.048,1.048,0,0,1,.1-0.592,1.854,1.854,0,0,0,.1.789,0.86,0.86,0,0,1,.293-0.887,5.025,5.025,0,0,0,.684.69,4.468,4.468,0,0,1,.1-1.775,5.078,5.078,0,0,0,.1,1.972,0.48,0.48,0,0,1,.1-0.3v0.3h0.293V17.676h0.2v-0.1h0.1v0.3c0.913-.027,1.819-0.167,2.735-0.2a6.161,6.161,0,0,1,.293,2.563,0.223,0.223,0,0,0,0,.3,5.279,5.279,0,0,0,2.051.1,7.5,7.5,0,0,1,.1-1.479,2.084,2.084,0,0,1,.684-0.1v-0.3c0.565,0.073.243,0.158,0.488,0.3l1.758,0.1a1.848,1.848,0,0,1,.293.493,9.378,9.378,0,0,0,1.954,0v0.2H60.366v0.789a2.036,2.036,0,0,1,.977.1,3.809,3.809,0,0,0-1.172.1v0.1h0.977a0.351,0.351,0,0,1,.2-0.1,4.99,4.99,0,0,0,.1.887h-0.1v0.1H61.05v0.394h0.1a6.764,6.764,0,0,1,2.54-.1,8.791,8.791,0,0,1,.1-1.676,3.5,3.5,0,0,1,.684-0.1c0-.283-0.091-0.255.391-0.3,0.207,0.5,1.407.489,2.051,0.493l0.1,0.493a4.94,4.94,0,0,1,1.954.1,16.391,16.391,0,0,0-2.051.1v0.69a1.372,1.372,0,0,0,.391.1c0.572-.359,1.785.064,2.54-0.1,2.263-.486,4.924-0.016,7.131-0.493a4.88,4.88,0,0,1,2.051,0l-6.545.493a20.963,20.963,0,0,0,5.47-.3,5.112,5.112,0,0,1,1.758.2c-0.013-.746-0.255-3.581.1-4.141,0,0.8.131,4.353,0.1,4.437-0.6,1.418-1.908,2.519-2.344,4.141-0.24.891,0.273,2.146-.2,2.761a5.2,5.2,0,0,1-1.954.1H70.525a1.406,1.406,0,0,0-.1.394c0.174,0.185.18,0.078,0.1,0.3a2.067,2.067,0,0,1-.977.1l0.1-.789H16.508l-6.545-.789a34.251,34.251,0,0,1-4.982.592,1.294,1.294,0,0,1,0,.493c-0.4.015-.163-0.027-0.488,0.2v-0.2a0.458,0.458,0,0,1,0-.493,1.006,1.006,0,0,1-.684-0.2c0.637-.167.493-0.494,0.684-1.084a0.334,0.334,0,0,1,.2.1c0.281,0.388.105,0.649,0.781,0.69v-0.69h-0.1v-0.1l-1.661-.2L3.321,29.113H2.344a3.264,3.264,0,0,1-.293-1.972c-0.465.009-.544,0.043-0.684-0.3a7.444,7.444,0,0,1-.391-2.958l2.247,0.1a0.48,0.48,0,0,1,.1-0.3,2.709,2.709,0,0,1,.781,0,1.072,1.072,0,0,1,.586-0.3,1.36,1.36,0,0,0,.586.493,6.178,6.178,0,0,0,2.442.2V23.592H7.228v-0.1h0.1a0.839,0.839,0,0,1,.488-0.1V23.1c0.94-.518.9-0.045,1.856,0V22.8c1.773,0.077,1.979.11,3.614,0.2a0.479,0.479,0,0,0,.1.3c0.021-.412,0-0.77,0-1.38H11.331v-0.2h1.954c0.132-.537.4-0.531,1.075-0.493a10.031,10.031,0,0,1,1.563-.394v0.3h0.586v0.2a1.735,1.735,0,0,1-.2,1.676H16.7v0.3a7.364,7.364,0,0,0,1.758,0,0.4,0.4,0,0,0,.2-0.394c-0.069-.152-0.013-0.013,0-0.3h-0.1a0.6,0.6,0,0,1-.2.2v-0.2a1.448,1.448,0,0,0,.391-1.282,0.469,0.469,0,0,0,.293-0.1c-0.373-.162-0.26-0.426-0.293-0.986h0.1v-0.1a1.446,1.446,0,0,0,1.172-.3,3.823,3.823,0,0,0,.586-0.986h0.1v0.2c-0.515.528-.395,0.87-0.391,1.775h1.27a6.746,6.746,0,0,0-.391-2.563H21.1v0.1a1.843,1.843,0,0,0-.293.493h-0.1v-0.2a2.551,2.551,0,0,0,.488-1.38h0.1c-0.021.33-.21,0.236,0.1,0.394v-0.2a0.985,0.985,0,0,0,.293-0.493h-0.1a0.739,0.739,0,0,1-.781,0l0.781-.1a3.564,3.564,0,0,1,.1-1.479,1.406,1.406,0,0,0,.2,1.183,4.709,4.709,0,0,1,1.368-.2c0.559-.131,2.856-0.683,3.321-0.394a24.65,24.65,0,0,0-4.786.69v0.2h0.488a17.073,17.073,0,0,1,4.3-.69,16.421,16.421,0,0,0-4.493.887,1.029,1.029,0,0,1,.391.592h-0.1a3.055,3.055,0,0,1-.391-0.69h-0.1v1.183c-0.328.516-.111,2.122-0.1,2.859h2.344v0.887l0.586,0.1a0.831,0.831,0,0,0,.1.493c0.043-.522.18-0.669,0.2-1.282a2.106,2.106,0,0,1-.586-0.887h0.1a1.656,1.656,0,0,0,.488.592V18.366h0.1a49.7,49.7,0,0,0,.293,5.028h0.782a0.6,0.6,0,0,1,.2-0.2V23.1h-0.1c-0.125-.38-0.358-0.5-0.488-0.887h0.1a1.656,1.656,0,0,0,.488.591v-0.69h0.782a2.125,2.125,0,0,1,.2-0.493H26.276v-0.1c0.981-.007,2.216-0.32,2.54,0a1.358,1.358,0,0,0,.1.394,1.283,1.283,0,0,0,.684.1v-0.1h0.1a1.243,1.243,0,0,1,.2-0.69,19.868,19.868,0,0,0,.1-2.662h1.27c0.156,0.269-.015.081,0.293,0.1v2.366a2.669,2.669,0,0,1,.293,1.676h0.293c0.014-.927.19-1.008,0.2-1.972a7.83,7.83,0,0,1,1.465,0c0.081-.32-0.048-0.151.2-0.3,0,0.314-.117.238,0.293,0.3v0.986h0.1a1.833,1.833,0,0,1,.879-0.789v0.1a2.359,2.359,0,0,0-.684.69h0.586a1.049,1.049,0,0,1,.1-0.591v0.789l-0.488.1v0.1h4.493c0.081-.479.107-0.669,0.684-0.69a2.99,2.99,0,0,0,.293.592,4.979,4.979,0,0,1,1.367,0V19.155c-0.33-.682.072-2.265,0.1-3.747h-0.1a5.2,5.2,0,0,1-1.27,1.085c-1.222.929-2.272,2.109-3.517,3.056a6.835,6.835,0,0,1-1.563,1.38v-0.1h0.1a6.8,6.8,0,0,1,1.661-1.479c1-.761,1.812-1.785,2.833-2.563,0.7-.533,1.2-1.507,2.051-1.873l-0.1.2h0.1v-0.1H42c0.114-.318.329-0.463,0.488-0.887a1.031,1.031,0,0,1-.2-0.592H42v-0.1h0.1c0.188-.076-0.2-0.1-0.2-0.1a2.062,2.062,0,0,1,0,.592c-0.427.025-.1,0.011-0.488,0.2-0.041-.353.046-0.248-0.2-0.394a14.6,14.6,0,0,1-4,.493,13.588,13.588,0,0,0,4.1-.69,0.358,0.358,0,0,0,.1-0.2h-0.1c-0.05.075-2.767,0.722-3.126,0.493a9.262,9.262,0,0,0,2.735-.493v-0.1H39.463v-0.1a2.927,2.927,0,0,0,.781-1.479h0.1v0.3a2.944,2.944,0,0,0-.586,1.183h0.879a6.113,6.113,0,0,1,.782,0v-0.2a12.427,12.427,0,0,1,0-2.563l-0.782-.1v-0.2h0.2a1.009,1.009,0,0,0,.586.2V9.789H40.928l-0.1-.2h0.293a0.5,0.5,0,0,0,.293.1V9.3H41.026A3.449,3.449,0,0,0,40.733,9,8.562,8.562,0,0,0,42.2,9V9.1H42.1A0.656,0.656,0,0,1,41.612,9.3ZM40.83,10.479a0.8,0.8,0,0,1-.1.591h-0.1v-0.3A1.141,1.141,0,0,0,40.83,10.479Zm-0.293.591a0.356,0.356,0,0,1,.1.2h-0.1v-0.2Zm-0.1.2a0.357,0.357,0,0,1,.1.2h-0.1v-0.2Zm-0.1.2a0.358,0.358,0,0,1,.1.2h-0.1v-0.2Zm3.321,0.789a0.479,0.479,0,0,1-.1.3c-0.082-.266-0.06.042-0.2-0.2h-0.1v-0.1h0.391Zm-0.293.394,0.293,0.1-0.1.3h-0.1A1.26,1.26,0,0,0,43.37,12.648Zm2.344,0.493a0.812,0.812,0,0,1,.488.1A0.81,0.81,0,0,1,45.714,13.141Zm-4.689.1a0.351,0.351,0,0,0,.2.1A0.351,0.351,0,0,0,41.026,13.239Zm0.586,0.1v0.394h0.2V13.338h-0.2Zm0.977,0a0.351,0.351,0,0,0,.2.1,0.821,0.821,0,0,0,.1.789c0.153-.123.05-0.063,0.2,0a0.537,0.537,0,0,0-.293.394,20.7,20.7,0,0,1,1.563,3.746c0.268,0.672.047,1.243,0.391,1.479a0.9,0.9,0,0,1,.391-0.69,0.394,0.394,0,0,0,.1-0.2l-1.465-5.62C43.571,13.37,43.041,13.342,42.589,13.338Zm0.781,0.1h0.2a0.9,0.9,0,0,1-.586.493Zm0.2,0.1h0.2c-0.038.062-.317,0.531-0.488,0.394Zm-5.959.394a1.022,1.022,0,0,1,.586.1,1.788,1.788,0,0,1-1.075,0A0.812,0.812,0,0,0,37.607,13.93Zm-1.074.2a1.021,1.021,0,0,1,.586.1,0.811,0.811,0,0,0-.488.1,1.023,1.023,0,0,1,.586.1,16.04,16.04,0,0,0-3.321.493c-1.471.346-2.779,0.228-4.2,0.591-0.559.143-2.652,0.766-3.126,0.493a0.812,0.812,0,0,0,.488-0.1,0.812,0.812,0,0,1-.488-0.1,11.922,11.922,0,0,0,2.637-.394c1.66-.395,3.284-0.395,4.786-0.789,0.562-.147,2.33-0.168,2.54-0.3a0.811,0.811,0,0,1-.488-0.1A0.812,0.812,0,0,0,36.532,14.127Zm5.275,0.1a0.4,0.4,0,0,1,0,.493V14.225Zm-6.154.2a0.351,0.351,0,0,0,.2.1A0.351,0.351,0,0,0,35.653,14.423Zm6.74,0.3c-0.157.33-.428,0.361-0.586,0.69,0.177,0.328-.053,1.339.1,1.578l0.1,0.2a0.818,0.818,0,0,1,.293-0.2,1.271,1.271,0,0,0,.391.986h0.1V17.479C42.365,16.772,42.826,15.4,42.393,14.718Zm0.781,0h0.2V15.31h-0.2V14.718Zm-0.2,2.465h0.586v-0.1h0.1a14.993,14.993,0,0,1-.781-2.07h-0.1v0.394a1.862,1.862,0,0,1,0,1.183h0.1a0.339,0.339,0,0,1,.1-0.2v0.789Zm-0.586-1.577v0.3c-0.241.128-.067-0.042-0.2,0.2H42.1V15.8C42.293,15.657,42.046,15.662,42.393,15.606Zm-15.14.2c0.168,0.087.125,0.088,0.293,0H27.253Zm16.606,0.69a0.357,0.357,0,0,1,.1.2h-0.1v-0.2Zm-1.758.3c0.317,0.082.149-.048,0.293,0.2H42.3C42.223,16.9,42.173,16.875,42.1,16.789Zm-21.685.3a0.627,0.627,0,0,1,.391.1,0.885,0.885,0,0,1-.684,0A0.469,0.469,0,0,0,20.415,17.085Zm-0.684.2a0.626,0.626,0,0,1,.391.1,0.885,0.885,0,0,1-.684,0A0.47,0.47,0,0,0,19.731,17.282Zm23.541,3.155a2.291,2.291,0,0,1,.781.1V19.944a1.8,1.8,0,0,0-.1-0.887c0.391,0.017.323,0.192,0.391-.3-0.268-.354-0.307-0.936-0.586-1.282a0.657,0.657,0,0,1-.488.2v-0.2a1.393,1.393,0,0,0,.488-0.1v-0.1h-0.2c-0.062.024-.451,0.055-0.684,0.1v0.3h0.1a0.339,0.339,0,0,1,.1-0.2v0.887a0.67,0.67,0,0,0-.1.394h0.1a0.339,0.339,0,0,1,.1-0.2v0.986a0.506,0.506,0,0,0-.1.3h0.1a0.479,0.479,0,0,1,.1-0.3v0.887ZM21.587,17.38a3.85,3.85,0,0,0-.293.887c0.215,0.341.151,0.971,0.391,1.282A7.864,7.864,0,0,0,21.587,17.38Zm-2.54.1a0.626,0.626,0,0,1,.391.1,0.885,0.885,0,0,1-.684,0A0.47,0.47,0,0,0,19.048,17.479Zm-0.684.2a0.627,0.627,0,0,1,.391.1,0.885,0.885,0,0,1-.684,0A0.47,0.47,0,0,0,18.364,17.676Zm4.1,0a0.538,0.538,0,0,1,.293.394h-0.1v-0.1h-0.1Zm-4.786.2a0.627,0.627,0,0,1,.391.1c-0.8.106-3.192,1.164-3.712,0.887A12.08,12.08,0,0,0,17.68,17.873Zm5.079,0.2a0.538,0.538,0,0,1,.293.394h-0.1v-0.1h-0.1Zm0.293,0.394a2.242,2.242,0,0,1,.781,1.084h-0.1A5.322,5.322,0,0,1,23.053,18.465Zm-9.084.493a0.627,0.627,0,0,1,.391.1,0.885,0.885,0,0,1-.684,0A0.469,0.469,0,0,0,13.968,18.958Zm-0.684.2a0.627,0.627,0,0,1,.391.1,0.884,0.884,0,0,1-.684,0A0.469,0.469,0,0,0,13.285,19.155Zm-0.684.2a0.627,0.627,0,0,1,.391.1,0.885,0.885,0,0,1-.684,0A0.47,0.47,0,0,0,12.6,19.352Zm-0.684.2a0.627,0.627,0,0,1,.391.1,0.885,0.885,0,0,1-.684,0A0.47,0.47,0,0,0,11.917,19.549Zm11.917,0a0.538,0.538,0,0,1,.293.394h-0.1v-0.1h-0.1Zm-12.6.2a0.626,0.626,0,0,1,.391.1,0.885,0.885,0,0,1-.684,0A0.47,0.47,0,0,0,11.233,19.747Zm-0.684.2a0.626,0.626,0,0,1,.391.1,0.885,0.885,0,0,1-.684,0A0.469,0.469,0,0,0,10.549,19.944Zm13.578,0a0.537,0.537,0,0,1,.293.394h-0.1v-0.1h-0.1Zm-14.261.2a0.627,0.627,0,0,1,.391.1c-0.8.106-3.192,1.164-3.712,0.887A12.08,12.08,0,0,0,9.866,20.141Zm33.309,0.394a0.832,0.832,0,0,0,.1.493A0.832,0.832,0,0,0,43.175,20.535Zm12.015,0.2a1.5,1.5,0,0,0,.879.2v-0.2H55.189Zm24.322,0a0.506,0.506,0,0,1,.1.3h-0.1v-0.3ZM2.051,22.408a1.828,1.828,0,0,1,1.074-.1,2.138,2.138,0,0,0-.977.3,0.67,0.67,0,0,0-.1.394,0.506,0.506,0,0,1,.1.3h-0.1V23.1a1.573,1.573,0,0,1-.1-0.789,14.388,14.388,0,0,0-1.856.1A4.5,4.5,0,0,1,0,21.127a4.943,4.943,0,0,0,2.051-.2v1.479ZM55.58,21.127v0.2h0.488v-0.2H55.58Zm4.3,0a0.559,0.559,0,0,0,.586.2,0.839,0.839,0,0,0,.684-0.2h-1.27Zm19.536,0a0.356,0.356,0,0,1,.1.2h-0.1v-0.2Zm-73.26.1a0.627,0.627,0,0,1,.391.1,0.884,0.884,0,0,1-.684,0A0.469,0.469,0,0,0,6.154,21.225Zm25.3,0.1v0.592h0.2V21.324h-0.2Zm-25.983.1a0.627,0.627,0,0,1,.391.1,0.884,0.884,0,0,1-.684,0A0.469,0.469,0,0,0,5.47,21.423Zm19.731,0a0.538,0.538,0,0,1,.293.394H25.4v-0.1H25.3Zm54.115,0a0.505,0.505,0,0,1,.1.3h-0.1v-0.3Zm-49.524.1a0.832,0.832,0,0,0,.1.493A0.832,0.832,0,0,0,29.792,21.521Zm13.675,0.592h0.488v0.2a1.031,1.031,0,0,0-.2.591h0.488a8.31,8.31,0,0,1,0-1.38H43.272v0.2C43.519,21.863,43.423,21.762,43.468,22.113ZM4.786,21.62a0.627,0.627,0,0,1,.391.1,0.885,0.885,0,0,1-.684,0A0.47,0.47,0,0,0,4.786,21.62Zm73.358,0.1a0.652,0.652,0,0,0,.684,0H78.144Zm-74.042.1a0.627,0.627,0,0,1,.391.1,0.885,0.885,0,0,1-.684,0A0.47,0.47,0,0,0,4.1,21.817Zm21.392,0a0.537,0.537,0,0,1,.293.394h-0.1v-0.1h-0.1Zm8.987,0c0.02,0.138-.08-0.04-0.1.1-0.188.076,0.2,0.1,0.2,0.1a0.351,0.351,0,0,1,.2-0.1v-0.1H34.481Zm5.372,0-0.1.3h0.2v-0.1a0.357,0.357,0,0,0,.1-0.2h-0.2Zm37.216,0a0.283,0.283,0,0,0,.391,0H77.07Zm-6.838.1c-0.835.509-2.622-.211-3.419,0.3a26.348,26.348,0,0,0,5.079-.2v-0.1h-1.66Zm5.079,0a0.513,0.513,0,0,0,.586,0H75.311Zm-71.893.1a0.626,0.626,0,0,1,.391.1,0.885,0.885,0,0,1-.684,0A0.47,0.47,0,0,0,3.419,22.014Zm70.232,0a0.351,0.351,0,0,0,.2.1A0.351,0.351,0,0,0,73.651,22.014Zm0.293,0a0.351,0.351,0,0,0,.2.1A0.351,0.351,0,0,0,73.944,22.014Zm-49.524.2,0.1,0.3h0.1v-0.3h-0.2Zm2.051,0v0.2h0.586v-0.2A2,2,0,0,1,26.471,22.211Zm12.308,0.394V22.211h-0.2c-0.342.534-2.335,0.223-3.223,0.2-0.046-.283-0.5-0.219-1.075-0.2v0.2a0.47,0.47,0,0,1,.293.1,0.47,0.47,0,0,0-.293.1h4.493Zm-3.223-.394a2.63,2.63,0,0,0,1.66,0h-1.66Zm2.247,0a0.39,0.39,0,0,0,.488,0H37.8Zm1.075,0a1.127,1.127,0,0,0,.293.2v-0.2H38.877Zm0.781,0v0.2h0.293v-0.2H39.658Zm22.076,0c-0.137.087-.548,0.107-0.684,0.2,0.973,0.024,2.65.133,3.126-.2A23.9,23.9,0,0,1,61.734,22.211Zm8.5,0a0.351,0.351,0,0,0,.2.1A0.351,0.351,0,0,0,70.232,22.211Zm-3.712.1a0.974,0.974,0,0,0,.879,0H66.52Zm-2.735.1a0.283,0.283,0,0,0,.391,0H63.785Zm-37.314.1a0.351,0.351,0,0,0,.2.1A0.351,0.351,0,0,0,26.471,22.507Zm34.97,0a0.389,0.389,0,0,0,.488,0H61.441Zm-26.667,1.38h1.27V23.1h1.074a0.677,0.677,0,0,0,.293.493c0.568,0.415.986,0.145,1.758,0.1a1.284,1.284,0,0,0-.2-0.887V23.2c-0.317-.082-0.149.048-0.293-0.2a0.506,0.506,0,0,0,.1-0.3c-0.883-.013-3.97-0.237-4.493.1a1.627,1.627,0,0,1,.684.2,0.506,0.506,0,0,1,.1.3h-0.1v0.1c-0.309,0-.131-0.167-0.293.1A0.669,0.669,0,0,1,34.774,23.887ZM24.518,22.8V23h0.1V22.8h-0.1Zm1.954,0.1-0.1,1.38h0.488a1.423,1.423,0,0,1-.1.493H27.35v-0.1h0.1v-0.3h0.293a0.6,0.6,0,0,1,.2-0.2,1.9,1.9,0,0,1-.1-0.592,2.286,2.286,0,0,1-.684.1,0.356,0.356,0,0,1-.1-0.2,0.732,0.732,0,0,0,.2-0.592H26.471ZM39.56,23.2v0.394h0.2a0.5,0.5,0,0,1,.293-0.1,0.277,0.277,0,0,0-.1-0.1l0.1-.2H39.56Zm-37.411.1a0.356,0.356,0,0,1,.1.2h-0.1V23.3Zm10.159,0a0.284,0.284,0,0,0,.391,0H12.308Zm0.488,0a0.284,0.284,0,0,0,.391,0H12.8Zm21.49,0.1c0.039,0.343.015,0.135,0.2,0.3,0.151,0.134-.192.1-0.2,0.1a0.517,0.517,0,0,0,.2.592h-0.2v0.2c0.278,0,.038-0.078.293,0.1V24.183a3.517,3.517,0,0,1-.1-0.493A0.375,0.375,0,0,0,34.286,23.394Zm-32.039.2a0.357,0.357,0,0,1,.1.2h-0.1v-0.2Zm26.569,0.69H29.3V23.887a0.47,0.47,0,0,1,.293.1,1.142,1.142,0,0,0-.2.3h0.1c0.112-.155.188-0.035,0.2-0.592a2.008,2.008,0,0,1-.781-0.1v0.1C28.92,23.781,28.847,23.931,28.816,24.282Zm11.038-.69a0.759,0.759,0,0,0-.293.3,0.846,0.846,0,0,0,.293.394C39.943,23.911,40.2,23.828,39.854,23.592Zm-38.779.394v0.2h0.1A0.339,0.339,0,0,0,1.074,23.986Zm0.488,0v0.2H2.051v-0.1h-0.1v-0.1A0.532,0.532,0,0,1,1.563,23.986Zm0.684,0.1a0.283,0.283,0,0,0,.391,0H2.247Zm0.781,0c0.168,0.087.125,0.088,0.293,0H3.028Zm1.856,0a0.351,0.351,0,0,1-.2.1v0.1C4.8,24.239,5.148,24.168,4.884,24.085Zm0.488,0c0.058,0.332,1.563.215,2.247,0.2a0.279,0.279,0,0,0,.1.1v-0.2H5.958A1.05,1.05,0,0,0,5.372,24.085Zm29.5,0.1v0.591h0.2c0.043-.113.113-0.463,0.2-0.2a0.818,0.818,0,0,0,.293.2c0.081-.32-0.048-0.151.2-0.3v0.3a1.012,1.012,0,0,0,.977-0.2H36.142v-0.3Zm-33.309.1a0.283,0.283,0,0,0,.391,0H1.563Zm5.177,0.1a0.513,0.513,0,0,0,.586,0H6.74Zm22.076,0a0.787,0.787,0,0,0,.879,0H28.816Zm10.159,0.394v-0.3c0.137-.02-0.039.081,0.1,0.1,0.076,0.19.1-.2,0.1-0.2H38.584c-0.088.239-.1,0.157-0.2,0.394h0.586Zm0.586-.394v0.2h0.488v-0.2H39.56Zm-33.7,3.352v0.591a8.791,8.791,0,0,0,2.735-.2v-0.1H7.814A5.521,5.521,0,0,0,5.861,27.732Z" transform="translate(0 0.531)"/>
</svg>
