<?xml version="1.0" encoding="utf-8"?>
<!-- Generator: Adobe Illustrator 16.0.0, SVG Export Plug-In . SVG Version: 6.00 Build 0)  -->
<!DOCTYPE svg PUBLIC "-//W3C//DTD SVG 1.1//EN" "http://www.w3.org/Graphics/SVG/1.1/DTD/svg11.dtd">
<svg version="1.1" id="Layer_1" xmlns="http://www.w3.org/2000/svg" xmlns:xlink="http://www.w3.org/1999/xlink" x="0px" y="0px"
	 width="40px" height="40px" viewBox="0 0 40 40" enable-background="new 0 0 40 40" xml:space="preserve">
<path id="Color_Fill_1" fill="#FFFFFF" d="M9.521,12.654l0.736-0.05v-0.2H10.6c0-0.251-0.033-0.5-0.1-0.742
	c-0.31-0.002-0.602-0.15-0.785-0.4c-0.152,0.042-0.133,0.101-0.245,0.05c-0.067-0.241-0.084-0.494-0.049-0.742h0.248v0.1
	c-0.087,0.093-0.091,0.039-0.049,0.148c0.147,0.229,0.35,0.416,0.589,0.544l0.54-0.049v-0.2c-0.185-0.091-0.469-0.386-0.147-0.544
	c0.515-0.125,1.049-0.142,1.571-0.05c0.2-0.021,0.591-0.15,0.834-0.2c0.641-0.011,1.271,0.162,1.816,0.5
	c0.127,0.093,0.205,0.252,0.343,0.346c-0.044,0.042-0.078,0.093-0.1,0.149h0.1c0.151-0.171,0.362-0.278,0.589-0.3
	c-0.054-0.133-0.035-0.284,0.049-0.4c0.074,0.048,0.17,0.048,0.245,0c0.01,0.225-0.038,0.288,0.147,0.347
	c0.075-0.041,0.16-0.059,0.245-0.05c0.062-0.418,0.011-0.846-0.147-1.238h-0.049c0.046,0.317,0.012,0.641-0.1,0.941v-0.2
	c-0.214,0.016-0.429,0-0.638-0.049c0.059-0.31,0.076-0.627,0.049-0.941h-0.2v-0.3h-1.319c-0.1,0.056,0.043,0.1-0.2,0.148V9.139
	h-0.389v-0.05H13.4c0.028-0.146,0.1-0.154-0.049-0.247c-0.075-0.041-0.16-0.058-0.245-0.05v0.05h-0.051
	c-0.017,0.343-0.014,0.676-0.393,0.693c-0.025-0.055-0.059-0.105-0.1-0.149c0.076-0.207,0.231-0.689,0.295-0.792
	c0.115-0.07,0.426-0.027,0.54-0.1c0.085-0.112,0.184-0.213,0.294-0.3c-0.125-0.072-0.055,0.011-0.1-0.149h0.491V8.2
	c0.47,0,0.638,0.144,1.178,0.149V8.2h0.147v0.149c0.31-0.03,0.623-0.03,0.933,0c0-0.193-0.024-0.223,0.1-0.3v0.5h1.865V8.5
	c-0.256-0.427-0.058-2.128-0.2-2.772L17.62-0.96h0.049v0.1l0.687,9.406c0.768,0,1.557,0.041,2.258,0.049v0.3
	c-0.7,0.005-1.49,0.048-2.258,0.05l0.344,4.303c0.335,0.093,0.663,0.208,0.982,0.347c0.374,0.108,0.679-0.311,1.031-0.2
	c0.314,0.1,0.555,0.391,0.834,0.5c-0.014-0.102,0.004-0.207,0.049-0.3c0.061-0.038,0.13-0.055,0.2-0.05
	c0.603,0.072,1.21,0.089,1.815,0.05v0.101h-0.445v0.199c0.664,0.004,1.3,0.271,1.768,0.743l3.092,0.05h5.938
	c1.084,0.074,2.173,0.007,3.239-0.2c0.488-0.16,2.664-0.257,2.8,0.2c-0.085,0.324-0.085,0.665,0,0.989h-0.052v0.05
	c-0.774,0.164-1.57,0.198-2.356,0.1c-0.333-0.078-0.594-0.221-0.933-0.301h-2.553l-10.012,0.051c-0.696,0.12-1.404,0.154-2.109,0.1
	l0.049,0.346l-0.146,0.05c-0.529,0.161-1.072,0.276-1.621,0.347v0.1h0.246c0.23-0.107,0.492-0.125,0.735-0.05
	c0.15,0.02,0.298,0.053,0.442,0.101c0.075,0.088,0.157,0.171,0.244,0.248l0.295-0.051c0.145,0.03,0.433,0.112,0.539,0.149
	c0.035-0.077,0.119-0.118,0.201-0.101c-0.023,0.248-0.023,0.496,0,0.744c0.328,0.25,0.671,0.48,1.027,0.689V18.2
	c0.041-0.063,0.074-0.13,0.1-0.2h0.049v0.05c0.058,0.143,0.092,0.293,0.101,0.446c0.125,0.057,0.269,0.057,0.394,0
	c0.013,0.49,0.373,0.474,0.883,0.445v-0.248h0.049c0.024,0.041,0.059,0.074,0.1,0.1c-0.064,0.086-0.082,0.198-0.049,0.3
	c0.394-0.231,0.741-0.534,1.025-0.893v-0.99c0.078-0.029,0.16-0.046,0.244-0.049v0.049h0.049c-0.008,0.15,0.009,0.301,0.05,0.446
	c0.262-0.119,0.358-0.413,0.589-0.5h1.08c0.122,0.919,0.139,1.849,0.049,2.771h0.1c0.041-0.4,0.041-0.57,0.59-0.545
	c0.004-0.037,0.021-0.073,0.049-0.1c0,0.229,0,0.318,0.244,0.347c0.075-0.041,0.16-0.059,0.246-0.05
	c0.002-0.131,0.08-0.247,0.199-0.3v0.1c-0.185,0.253-0.318,0.538-0.393,0.843c0.48,0.115,0.4,0.535,0.736,0.842
	c-0.027,0.162-0.092,0.295-0.101,0.347c0.208,0.287,0.53,0.47,0.884,0.5c0.025-0.027,0.043-0.063,0.049-0.101h-0.051v0.049
	c-0.037,0.101-0.049-0.1-0.049-0.1c0.137-0.092,0.254-0.209,0.344-0.347c-0.143,0-0.194-0.072-0.199-0.347
	c0.121,0.002,0.24,0.036,0.344,0.1c0.126,0.021,0.225,0.121,0.245,0.248c0.053,0.143,0.069,0.295,0.049,0.445
	c-0.162,0.293-0.343,0.574-0.54,0.843c-0.588,0.45-1.137,0.953-1.718,1.386c-0.253,0.133-0.483,0.301-0.688,0.5
	c-0.108,0.322-0.19,0.654-0.245,0.99c-0.368,0.844-1.008,1.54-1.815,1.98c-1.926,0.951-4.259,0.162-5.21-1.764
	c-0.158-0.319-0.271-0.658-0.336-1.009h-0.541c-0.026-0.026-0.062-0.044-0.1-0.05v1.188h-0.044c-0.04-0.378-0.04-0.761,0-1.139
	c-0.617-0.097-1.244-0.113-1.865-0.05H14.92c-0.5-0.107-1.015-0.124-1.521-0.049H9.374c-0.352,2.125-2.36,3.563-4.485,3.21
	c-0.441-0.073-0.866-0.222-1.257-0.438c-0.675-0.42-1.219-1.02-1.571-1.732c-0.079-0.374-0.194-0.738-0.344-1.09
	c-0.196,0.006-0.375-0.115-0.442-0.3c0.134-0.06,0.215-0.199,0.2-0.346l-0.2-0.149c0.062,0.195,0.004,0.407-0.147,0.544v-0.049
	c0.132-0.415,0.166-0.856,0.1-1.287h-0.1c-0.275,0.133-0.577,0.201-0.883,0.2C0.215,22.387,0.133,21.526,0,20.673h0.2
	c-0.03-0.347-0.013-0.696,0.049-1.04c0.157-0.162,0.339-0.297,0.54-0.4v-0.049c-0.149,0.021-0.301,0.004-0.442-0.05
	c-0.1-0.438-0.118-0.89-0.053-1.334l0.638,0.05c-0.002-0.238,0.047-0.475,0.147-0.692l0.147,0.049
	c-0.036,0.043-0.062,0.056-0.1,0.101h0.15c0.322-0.414,1-0.052,1.227-0.148c0.045-0.07,0.094-0.137,0.147-0.2h0.295
	c0.456-0.123,0.878-0.142,1.472-0.3l0.54-0.049l0.1-0.149c0.086,0.021,0.168,0.055,0.245,0.101c0.297-0.033,0.592-0.084,0.883-0.149
	c0.426-0.101,1,0.022,1.374-0.05V16.02c-0.839,0.014-2.835,0.168-3.288-0.199c-0.031-0.043-0.048-0.096-0.049-0.148
	c0.037-0.06,0.054-0.13,0.049-0.199c0.126-0.05,0.258-0.083,0.393-0.101c0.024,0.07,0.058,0.138,0.1,0.2v-0.051
	c0.026-0.027,0.043-0.062,0.049-0.1c-0.063-0.006-0.118-0.044-0.147-0.1c0.112-0.055,0.172-0.179,0.147-0.301H4.761
	c-0.2,0.129-0.588-0.057-0.834,0.051c-0.171,0.145-0.351,0.278-0.54,0.4c-0.649,0.086-1.302-0.134-1.767-0.595
	c0.121-0.571,0.121-1.161,0-1.733c0.2,0.007,0.268,0.027,0.344-0.1C1.911,13.047,1.859,13.031,1.816,13
	c0.506-0.167,1.043-0.217,1.571-0.148C3.743,13.108,4.206,13.164,4.613,13c0.108-0.126,0.034-0.152,0.245-0.2
	c0.116,0.155,0.298,0.246,0.491,0.247c-0.048,0.095-0.048,0.206,0,0.3c0.075,0.041,0.16,0.058,0.245,0.05
	c0.169-0.256,1.505-0.124,1.669-0.2h0.1v-0.05c-0.07,0.006-0.141-0.011-0.2-0.049c0.168,0.079,0.354,0.114,0.54,0.1
	c0.2-0.063,0.395-0.323,0.589-0.4c0.331-0.019,0.66-0.068,0.982-0.148c-0.143-0.396-0.211-0.816-0.2-1.238
	C8.82,10.489,8.648,9.454,8.338,8.491C7.9,7.131,7.621,5.609,7.209,4.234L6.92,2.851c-0.275-0.857-0.4-1.815-0.687-2.723
	C5.978-0.56,5.796-1.273,5.693-2h0.049c0.106,0.71,0.287,1.407,0.54,2.079c0.3,0.906,0.409,1.867,0.687,2.723
	c0.175,0.54,0.178,1.041,0.344,1.584c0.517,1.7,0.8,3.5,1.325,5.248c0.182,0.6,0.259,1.313,0.491,1.931
	C9.321,11.903,9.454,12.271,9.521,12.654z M13.251,9.04h0.1v0.049C13.313,9.084,13.278,9.067,13.251,9.04L13.251,9.04z M16.736,9.04
	c-0.095,0.042-0.193,0.075-0.294,0.1v0.1h0.294c0.005-0.038,0.022-0.073,0.049-0.1C16.78,9.102,16.763,9.067,16.736,9.04z
	 M17.423,9.04c0.025,0.189,0.069,0.208,0.1,0.4c-0.207,0.144-0.304,0.399-0.245,0.644c-0.213,0.03-0.431,0.013-0.638-0.05
	c0.053,0.361,0.086,0.724,0.1,1.089c-0.241,0.197-0.505,0.365-0.785,0.5c-0.01-0.069,0.04,0.02,0.049-0.05
	c0.094-0.038-0.1-0.049-0.1-0.049v0.049c-0.097,0.148-0.148,0.322-0.147,0.5H15.9v0.247h0.245c0.229,0.268,0.59,0.384,0.933,0.3
	c0.108-0.178,0.16-0.386,0.147-0.594h0.2v0.4l0.344,0.05v-0.367h0.245l0.049,0.446l0.244,0.045v0.1c0.042,0.077,0.042,0.17,0,0.248
	c-0.184,0.006-0.12-0.061-0.147,0.147h0.1c0.091,0.052,0.191,0.085,0.294,0.101V13.1c0.053-0.364,0.035-0.734-0.054-1.09
	c-0.091-1.019-0.115-1.992-0.2-2.97H17.423z M13.889,9.14v0.1h0.049v-0.1H13.889L13.889,9.14z M16.883,9.14v0.1h0.1v-0.1H16.883z
	 M16.245,9.486c0.122,0.068,0.271,0.068,0.393,0H16.245z M16.539,9.635v0.1h0.245v-0.1H16.539L16.539,9.635z M15.607,10.476
	c0.032,0.043,0.049,0.095,0.049,0.149h-0.049V10.476L15.607,10.476z M16.1,10.624c0.032,0.043,0.049,0.095,0.049,0.149H16.1V10.624z
	 M15.658,10.674c0.026,0.027,0.043,0.063,0.049,0.1h-0.051v-0.1H15.658z M15.858,10.723v0.1h0.1v-0.1H15.858z M11.293,11.317h0.295
	v-0.1c-0.033-0.038-0.064-0.111-0.1-0.149c-0.063,0.041-0.129,0.075-0.2,0.1v0.149H11.293z M16,11.267
	c-0.117-0.016-0.236,0.001-0.344,0.05c0.117,0.022,0.232,0.056,0.344,0.1V11.267z M15.755,12.406
	c0.078,0.135,0.044,0.125,0.245,0.149V12.6h0.049v-0.045c0.063-0.006,0.118-0.044,0.147-0.1h-0.049v-0.05L15.755,12.406
	L15.755,12.406z M16.589,12.706c0.199,0.097,0.417,0.148,0.638,0.149v-0.1h0.049V12.7h-0.687V12.706z M18.061,13.349
	c0.066,0.124,0.208,0.186,0.344,0.149c0.042,0.031,0.094,0.049,0.146,0.05v-0.1L18.061,13.349z M18.797,13.549
	c0.158,0.116,0.345,0.186,0.54,0.2v-0.056h-0.049v-0.051L18.797,13.549z M19.484,13.648c0.01,0.069-0.04-0.02-0.049,0.051
	c-0.094,0.038,0.1,0.049,0.1,0.049c-0.004-0.039-0.022-0.076-0.05-0.104L19.484,13.648z M5.2,13.693
	c-0.104,0.257-0.185,0.521-0.245,0.791h0.1v-0.049c0.125-0.23,0.208-0.482,0.245-0.742H5.2z M21.838,13.693
	c0.291,0.23,0.676,0.306,1.031,0.199l0.049-0.199H21.838z M4.905,14.634l-0.049,0.2h0.052c0.043-0.062,0.077-0.129,0.1-0.2h-0.1
	H4.905z M38.182,15.575v-0.892h-0.488c-0.053,0.26-0.07,0.526-0.049,0.791c0.166,0.084,0.354,0.118,0.539,0.1L38.182,15.575z
	 M39.408,15.575v-0.892c-0.279-0.024-0.561-0.008-0.834,0.049c0.043,0.263,0.043,0.53,0,0.793c0.275,0.055,0.557,0.071,0.837,0.049
	L39.408,15.575z M4.808,14.932c0.027,0.026,0.062,0.043,0.1,0.049c-0.027-0.027-0.061-0.044-0.098-0.049H4.808z M21.2,15.921
	c0.029,0.079,0.08,0.148,0.147,0.2C21.334,16.034,21.279,15.959,21.2,15.921z M27.236,18.891c0.07,0.006,0.137,0.021,0.201,0.049
	c-0.109-0.178-0.16-0.385-0.147-0.594c0.215-0.179,0.412-0.377,0.589-0.594c-0.1-0.124-0.064-0.081-0.049-0.248
	c0.16-0.042,0.326-0.059,0.49-0.05c0.027,0.026,0.063,0.044,0.101,0.05c0.026,0.064,0.042,0.131,0.05,0.2
	c-0.072,0.021-0.128,0.077-0.147,0.149c0.311,0.114,0.213,0.867,0.2,1.287c-0.12,0.209-0.172,0.451-0.147,0.692
	c0.071,0.021,0.14,0.056,0.2,0.101v-2.677h-0.895l-0.541,0.595c0.051,0.28,0.065,0.748,0.099,1.039H27.236z M26.943,18.891H26.7
	v-0.05h-0.05c0.02-0.148,0.002-0.3-0.051-0.44c-0.156,0.238-0.388,0.39-0.539,0.644h0.146c0.241-0.06,0.488-0.093,0.736-0.101
	c0.162-0.1,0.156-0.178,0.146-0.445c-0.068-0.116-0.027-0.43-0.1-0.544c-0.014,0.312-0.029,0.624-0.045,0.937H26.943z M0.933,18.248
	c-0.07,0.191-0.07,0.402,0,0.594C0.973,18.646,0.973,18.443,0.933,18.248z M29.792,19.189h0.344v0.05h-0.1
	c-0.135,0.076-0.294,0.094-0.442,0.049h0.1c0.037-0.044,0.062-0.058,0.098-0.101L29.792,19.189z M29.154,19.438l0.046,0.146h0.049
	v-0.1L29.154,19.438z M29.354,19.537v0.049H29.3c-0.094,0.038,0.101,0.05,0.101,0.05v0.05h0.049v-0.101L29.354,19.537z
	 M29.747,19.686c-0.038,0.033-0.11,0.064-0.147,0.1c-0.063,0.159-0.096,0.328-0.1,0.5h0.049v0.049H29.6
	c0-0.053,0.018-0.105,0.049-0.148c0.005,0.038,0.022,0.074,0.05,0.101v-0.101c0.001-0.177,0.052-0.35,0.146-0.5h-0.1H29.747z
	 M30.434,21.368h0.982c-0.1,0.223-0.357,0.159-0.785,0.149c-0.061-0.035-0.13-0.053-0.199-0.051v-0.1L30.434,21.368z M1.526,21.715
	v0.1h0.045v-0.1h-0.05H1.526z M29.158,23.25l-0.049,0.348c0.127,0.04,0.26,0.057,0.393,0.049c0.096-0.166,0.146-0.354,0.146-0.545
	c-0.154,0.08-0.322,0.13-0.496,0.146L29.158,23.25z M1.281,23.75h0.142c-0.002-0.186-0.036-0.37-0.1-0.545L1.281,23.75z"/>
</svg>
