<svg xmlns="http://www.w3.org/2000/svg" width="40" height="40" viewBox="0 0 40 40">
  <defs>
    <style>
      .cls-1 {
        fill: #fff;
        fill-rule: evenodd;
      }
    </style>
  </defs>
  <path id="uk_fv4202_ico" class="cls-1" d="M15.322,16.639H15.41v0.045a0.224,0.224,0,0,1,.044.179,0.316,0.316,0,0,1,.111.023,0.314,0.314,0,0,0-.089.157,2.081,2.081,0,0,1,.4.022,1.016,1.016,0,0,0,.066.56c0.12-.061.348,0.017,0.377-0.2a2.241,2.241,0,0,1-.443-0.56h0.089a0.756,0.756,0,0,0,.333.291l0.022-.426c0.016-.02.028-0.025,0.044-0.045l0.6,0.09c0-1.107.022-2.287,0.022-3.429v-0.9a1.013,1.013,0,0,1,.022-0.381v4.706a4.6,4.6,0,0,1,.954.291l-0.022.067a0.348,0.348,0,0,1-.111.022,0.386,0.386,0,0,1-.022.134,0.184,0.184,0,0,1,.111.022,0.316,0.316,0,0,0-.111.022,1.017,1.017,0,0,1-.044.269,0.508,0.508,0,0,0,.266.045,1.385,1.385,0,0,0,.6.067,8.879,8.879,0,0,1,1.153.448,0.414,0.414,0,0,1,.377.269,2.134,2.134,0,0,1,.266.112,1.1,1.1,0,0,1,.222-0.045,0.872,0.872,0,0,1,.066.067l0.665,0.022v0.179H21.22v0.045a0.172,0.172,0,0,0,.067.067c0.117,0.082.449,0.09,0.665,0.179a4.081,4.081,0,0,1,.687.291l0.089,0.112a0.329,0.329,0,0,1,.222.067,0.2,0.2,0,0,1,.022.112c1.994,0.145,4.057.173,6.164,0.179V19.709h0.31a0.846,0.846,0,0,1,.089-0.112l0.133,0.022V19.507H31.22v0.112a0.511,0.511,0,0,1,.2,0l0.022,0.067a0.244,0.244,0,0,1,.022.134c2.844,0,5.728-.021,8.537-0.022v0.583a2.782,2.782,0,0,1-.865-0.045H31.463v0.157a0.267,0.267,0,0,1-.2.067,1.311,1.311,0,0,0-.488-0.022c-0.42,0-.878,0-1.264.022a0.344,0.344,0,0,0-.377-0.112v-0.09H27.783a4.033,4.033,0,0,0-.732.023c-0.229.05-.53-0.021-0.732,0.022H25.942a5.448,5.448,0,0,0-1.042.045H24.368a7.513,7.513,0,0,0-1.286.067,1.055,1.055,0,0,1-.022.426,1.3,1.3,0,0,0-.2.067,0.117,0.117,0,0,1,.022.157c0.027,0.047.113,0.107,0.133,0.157v0.515a2.451,2.451,0,0,0,.333,0,0.224,0.224,0,0,1,.044-0.134c0.064-.067.182-0.089,0.244-0.157s0.054-.184.111-0.246a0.08,0.08,0,0,0,.044.022v0.135a1.288,1.288,0,0,0-.044.426h0.2a0.237,0.237,0,0,1,.022-0.134v0.134h0.177a2.888,2.888,0,0,1,.044-0.359h0.067l0.044,0.4c0.181,0,.281.043,0.488,0.045,0.01-.16,0-0.385.022-0.515h0.044a0.51,0.51,0,0,0,.288.022l0.044,0.2h0.2v0.09l-0.2-.022v0.224h0.754V21.726h0.71a2.16,2.16,0,0,0,.022.381L30.8,22.868a1.789,1.789,0,0,0,.2.493,5.227,5.227,0,0,1,.466,1.726,0.5,0.5,0,0,0-.089.112c-0.018-.073.011-0.034-0.044-0.067a2.578,2.578,0,0,0-.421-0.045,1.109,1.109,0,0,1-.089.224,0.373,0.373,0,0,0-.133-0.045,0.652,0.652,0,0,1-.244.291c0.023,0.035.1,0.091,0.067,0.112-0.044.066-.11,0.093-0.155,0.157H30.333V25.8a0.548,0.548,0,0,1-.066-0.067,0.636,0.636,0,0,0-.355.2c0.035,0.042.042,0.046,0.022,0.09l-0.177.09a0.134,0.134,0,0,0-.089-0.112,1.271,1.271,0,0,1-.31.157,0.109,0.109,0,0,1,.022.112,0.388,0.388,0,0,1-.177.09,0.217,0.217,0,0,0-.066-0.112c-0.09.082-.246,0.1-0.333,0.179a0.152,0.152,0,0,1,.044.112l-0.2.067a0.1,0.1,0,0,0-.089-0.09l-0.311.157a0.152,0.152,0,0,1,.044.112,0.446,0.446,0,0,1-.2.067c-0.021-.076-0.009-0.07-0.089-0.09a0.608,0.608,0,0,0-.288.2,0.153,0.153,0,0,1,.022.09,0.457,0.457,0,0,1-.177.045,0.426,0.426,0,0,1-.067-0.09l-0.333.157,0.044,0.134c-0.1.015-.121,0.05-0.222,0.067l-0.022-.112H26.94a1.123,1.123,0,0,0-.333.2,0.443,0.443,0,0,1,.044.09,0.481,0.481,0,0,1-.2.067,0.437,0.437,0,0,1-.044-0.09,1.635,1.635,0,0,0-.355.157,0.151,0.151,0,0,1,.022.112,0.566,0.566,0,0,1-.177.09,0.116,0.116,0,0,0-.111-0.112,0.6,0.6,0,0,1-.333.067l0.022,0.134L25.233,28V27.866h-0.4V27.91a0.153,0.153,0,0,1,.022.09H24.634l-0.022-.134H24.235V28h-0.2l-0.022-.134H23.636V28h-0.2l-0.022-.134H23.038V28H22.816V27.866h-0.4v0.023a0.2,0.2,0,0,1,.022.112H22.217L22.2,27.866H21.818V28h-0.2L21.6,27.866H21.22V28h-0.2L21,27.866H20.621V28H20.4V27.866H20v0.023a0.2,0.2,0,0,1,.022.112H19.8V27.866H19.4V28H19.2l-0.022-.134H18.8V28H18.6l-0.022-.134H18.2V28H17.982V27.866H17.605V28H17.384V27.866h-0.4v0.023a0.2,0.2,0,0,1,.022.112H16.785l-0.022-.134H16.386V28h-0.2l-0.022-.134H15.787V28h-0.2V27.955a0.152,0.152,0,0,1-.022-0.09H15.189V28H14.967V27.866H14.59V28H14.368V27.866h-0.4V28h-0.2V27.866h-0.4V28h-0.2V27.955a0.152,0.152,0,0,1-.022-0.09H12.772V28H12.55V27.866H12.173V28H11.951V27.866h-0.4V27.91a0.153,0.153,0,0,1,.022.09H11.353V27.866h-0.4V28h-0.2V27.955a0.152,0.152,0,0,1-.022-0.09H10.355V28H10.133V27.866H9.756V28H9.534V27.866h-0.4a0.518,0.518,0,0,1,0,.134h-0.2V27.866h-0.4V28H8.315V27.866H7.938V28l-0.222-.022V27.843a1.881,1.881,0,0,1-.4-0.067l-0.022.112H7.228A0.229,0.229,0,0,0,7.1,27.843a0.442,0.442,0,0,0,0-.134A0.774,0.774,0,0,0,6.763,27.6l-0.044.112-0.177-.067c0.009-.089.044-0.09-0.022-0.134a0.9,0.9,0,0,0-.31-0.112V27.44a0.115,0.115,0,0,0-.022.067l-0.2-.045a0.443,0.443,0,0,0,0-.134,0.775,0.775,0,0,0-.333-0.112,0.117,0.117,0,0,1-.067.112,0.316,0.316,0,0,0-.155-0.067c0.009-.089.044-0.09-0.022-0.134a0.9,0.9,0,0,0-.31-0.112c-0.011.091,0,.091-0.089,0.112a0.23,0.23,0,0,0-.133-0.045L4.9,26.947H4.878V26.924c-0.13-.016-0.2-0.07-0.333-0.09l-0.022.112H4.479a0.422,0.422,0,0,1-.155-0.112,0.437,0.437,0,0,0,.044-0.09,1.284,1.284,0,0,0-.355-0.09,0.16,0.16,0,0,1-.111.09A0.229,0.229,0,0,0,3.769,26.7l0.022-.134H3.769V26.543a0.858,0.858,0,0,0-.31-0.067c-0.026.026-.041,0.064-0.067,0.09a0.391,0.391,0,0,1-.177-0.112,0.441,0.441,0,0,0,.044-0.09,1.287,1.287,0,0,0-.355-0.09c-0.049.057-.015,0.069-0.111,0.09a0.32,0.32,0,0,1-.133-0.09,0.442,0.442,0,0,0,.044-0.09H2.661c-0.1-.063-0.071,0-0.2.022a0.194,0.194,0,0,0-.067-0.134,0.258,0.258,0,0,0-.067-0.045,0.484,0.484,0,0,1-.044.112,0.468,0.468,0,0,1-.222-0.157,0.087,0.087,0,0,0,.044-0.067c0.006-.022.017-0.009,0-0.022a0.223,0.223,0,0,0-.133-0.112c-0.052.05-.017,0.026-0.111,0.022a0.688,0.688,0,0,1,.022-0.157,0.2,0.2,0,0,1-.067-0.067,0.258,0.258,0,0,1-.133.067,0.933,0.933,0,0,1-.111-0.224,0.1,0.1,0,0,0,.089-0.09A0.42,0.42,0,0,1,1.6,25.221a0.285,0.285,0,0,1-.111,0,0.077,0.077,0,0,0-.022-0.045,0.368,0.368,0,0,1,.067-0.112L0.909,24.93V25a0.075,0.075,0,0,0-.044.022A0.075,0.075,0,0,1,.82,25,0.2,0.2,0,0,1,.71,24.84c0.056-.033.044-0.047,0.044-0.134a1.456,1.456,0,0,1-.466-0.067,0.48,0.48,0,0,0-.222-0.291A0.2,0.2,0,0,0,0,24.168l0.089-.627H0.155c0.051-.267.108-0.638,0.177-0.919l0.044-.448A1.1,1.1,0,0,0,.466,21.95,1.477,1.477,0,0,0,.421,21.77a2.046,2.046,0,0,1,.044-0.65H0.377v0.067A0.494,0.494,0,0,1,.044,21.12H0.067A0.113,0.113,0,0,1,.133,21.1V21.031H0.022V20.986a1.284,1.284,0,0,0,.333-0.112L0.4,20.807a1.485,1.485,0,0,0,.2.045c0.218-.046.459-0.125,0.687-0.157V20.583h0.2c0.018,0.073-.011.034,0.044,0.067V20.471H2.55c0.06,0.084.162,0.117,0.222,0.2h0.82L3.614,20.9H3.747V20.762h2V20.9H5.809V20.829c0.27-.033.692-0.062,1-0.067v-0.09H7.029v0.09c0.6,0.009,1.166.022,1.818,0.022V20.74a0.615,0.615,0,0,0,.022-0.269h1.663V20.74a6.015,6.015,0,0,0,1.508.045V20.74a0.667,0.667,0,0,1-.6-0.448L11.4,20.067H11.109c-0.108-.03-0.264-0.084-0.4-0.112a3.063,3.063,0,0,1-.022-1.255c0.05-.207-0.013-0.49.022-0.672a1.159,1.159,0,0,0,.222-0.022l0.022-.09h0.155c0.027,0.1.054,0.094,0.177,0.09a0.69,0.69,0,0,1,.022-0.157H11.33a0.112,0.112,0,0,0,.067.022V17.8h0.089a1.416,1.416,0,0,0,.111-0.739A2.417,2.417,0,0,0,12.04,17a1.1,1.1,0,0,1,0-.358h0.111V13.322a7.925,7.925,0,0,1,.022-1.255v4.572c0.155,0,.431-0.033.488-0.023a0.842,0.842,0,0,0,.244.067V16.392a0.233,0.233,0,0,1,.111-0.045l0.022,0.067c0.022,0.037.021,0.143,0.044,0.179,0.1-.086.217-0.022,0.222-0.224h0.155V16.235h0.155l0.022,0.134h0.51a5.2,5.2,0,0,0,.022-0.627h0.089a2.627,2.627,0,0,0,.044.762,0.142,0.142,0,0,0-.089.022h0.022a0.59,0.59,0,0,0,.466.157,0.8,0.8,0,0,1,.089-0.067,3.2,3.2,0,0,1,.466.023L15.277,13.3V12.381A1.013,1.013,0,0,1,15.3,12C15.3,13.539,15.283,15.136,15.322,16.639Z"/>
</svg>
