<svg xmlns="http://www.w3.org/2000/svg" width="80" height="40" viewBox="0 0 80 40">
  <defs>
    <style>
      .cls-1 {
        fill: #fff;
        fill-rule: evenodd;
      }
    </style>
  </defs>
  <path id="uk_flower_class_ico" class="cls-1" d="M41.846,4a0.2,0.2,0,0,1,.123.04c-0.028.041-.053,0.162-0.082,0.2A0.679,0.679,0,0,0,41.846,4Zm-0.41.04h0.082v0.04A0.141,0.141,0,0,1,41.436,4.04Zm0.492,0.444a0.211,0.211,0,0,1,0,.242V4.485Zm0.041,0.444a0.268,0.268,0,0,1,0,.283V4.929Zm0.246,0.242a0.2,0.2,0,0,1,.123.04A0.2,0.2,0,0,1,42.215,5.172Zm-0.451.04a0.2,0.2,0,0,1,.123.04A0.2,0.2,0,0,1,41.764,5.212ZM42.01,5.374a0.332,0.332,0,0,1,0,.323V5.374Zm1.641,0.444h0.082v0.04A0.141,0.141,0,0,1,43.651,5.818Zm-1.6.04h0.123a4.808,4.808,0,0,0,.164.646,12.056,12.056,0,0,0,.041,1.576c0.123,0.535.03,1.153,0.164,1.737a10.414,10.414,0,0,1,.205,2.141h0.205a0.42,0.42,0,0,1,.041-0.242v0.2l0.738-.04a0.334,0.334,0,0,1,.041-0.2v0.2l0.328-.04a0.952,0.952,0,0,1,.041-0.444c0,0.643.064,1.142,0.082,1.778h0.041a0.28,0.28,0,0,1,.164-0.04,0.58,0.58,0,0,0,.164.4,3.615,3.615,0,0,1-.7.081,0.133,0.133,0,0,1,0,.121,1.938,1.938,0,0,1-.205.04,0.133,0.133,0,0,1,0,.121,0.967,0.967,0,0,0-.164.04c0.039,0.071.009,0,0,.081a1.938,1.938,0,0,1-.205.04,0.133,0.133,0,0,1,0,.121,1.939,1.939,0,0,1-.205.04c-0.011.2-.049,0.05-0.123,0.162l0.082,0.97,0.287,2.788c0.157,0.589.018,1.232,0.164,1.778a8.187,8.187,0,0,0,.205,1.859,3.094,3.094,0,0,0,1.026.566V22.061a1.959,1.959,0,0,1-.082-1.253,0.592,0.592,0,0,0,.164.04V19.717a3.819,3.819,0,0,0-.821-0.242,2.155,2.155,0,0,1,.041-0.848c0,0.294,0,.372,0,0.687h0.533v-0.4a0.349,0.349,0,0,1-.205-0.04h0.205l-0.041-.364H44.513v-0.04a0.437,0.437,0,0,1-.246-0.04h0.287q-0.02-.646-0.041-1.293h0.246V16.97a0.116,0.116,0,0,1-.041-0.04H44.595v0.121H44.472l0.041-.2h0.082a0.216,0.216,0,0,1,.205,0c0.087,0.264.117,0.3,0.492,0.283a6.89,6.89,0,0,1,1.395-.081q0.02,0.646.041,1.293H47.3v0.485H46.769v0.4l0.574-.04a0.718,0.718,0,0,1-.082.364c-0.006-.152.019-0.142-0.082-0.2-0.057.073-.2,0.1-0.246,0.162-0.036.05-.013,0.165-0.041,0.2-0.017-.145.019-0.1-0.082-0.162a0.487,0.487,0,0,1-.205.081v0.081a1.805,1.805,0,0,1,.041.727h0.082v-0.2h0.205a0.334,0.334,0,0,1,.041-0.2c0.006,0.152-.019.142,0.082,0.2a0.326,0.326,0,0,1,.615-0.162,0.9,0.9,0,0,1,.041.606h0.082a2.269,2.269,0,0,1,.861-0.04V20.323a2,2,0,0,1-.779-0.04h0.615a0.662,0.662,0,0,1,.082-0.444,0.268,0.268,0,0,0,.246,0v0.2a0.394,0.394,0,0,1-.041.242,1.132,1.132,0,0,1,.328.121c0.138,0.167.006,0.232,0.328,0.242a0.55,0.55,0,0,1,.287-0.04l-0.041-.768c0.353-.079.309-0.383,0.287-0.808,0.238,0.008.483-.037,0.985-0.04a2.155,2.155,0,0,1,.451-0.566h0.082l0.041,0.162c-0.145.005-.2,0.177-0.164,0.364-0.082,0-.012-0.041-0.082,0,0.038,0.077.016,0.047,0,.162H51.9V18.99a0.875,0.875,0,0,1-.41-0.04h0.779v0.121h0.164a0.193,0.193,0,0,1,.041-0.121,0.6,0.6,0,0,0,.574.121V18.95a0.994,0.994,0,0,1-.451-0.04h0.451V18.061a0.706,0.706,0,0,0,.123-0.444c-0.722-.281-0.457-1.081.328-0.848a0.749,0.749,0,0,1,.164.485,0.83,0.83,0,0,0-.369.727,1.7,1.7,0,0,1,.205,1.05,0.2,0.2,0,0,1,.123.04H53.58c-0.082.081-.2,0.122-0.287,0.2a1.563,1.563,0,0,1,.041.646l0.944-.04V19.96H53.5a0.28,0.28,0,0,1-.164.04,0.494,0.494,0,0,0,.082.444,1.13,1.13,0,0,0,.492.04V20.121l0.492-.04,0.041-.323a0.98,0.98,0,0,1,.328-0.121,0.583,0.583,0,0,0,.205.162c0.046-.116.007-0.074,0.123-0.121v0.081a0.637,0.637,0,0,0-.041.323h0.164a0.658,0.658,0,0,1,.328-0.04V19.879a0.3,0.3,0,0,0,.205-0.283h0.123a0.117,0.117,0,0,1-.041.04,1.471,1.471,0,0,1,.041.444h0.205a0.676,0.676,0,0,0,.041.242,0.283,0.283,0,0,0-.287.162,4.22,4.22,0,0,1,.082,1.172H55.385V21.7a3.5,3.5,0,0,1,.41.768c0.2,0.371.437,0.777,0.656,1.131a0.989,0.989,0,0,0,.287.485,0.916,0.916,0,0,1,.492-0.525,0.2,0.2,0,0,1-.123-0.04h0.164a2.57,2.57,0,0,1,.246-0.929V22.141a1.066,1.066,0,0,0-1.19-1.212,0.334,0.334,0,0,1-.041.2l-0.041-.283h0.041v-0.04c0.514,0.157,1.191.164,1.231,0.768a8.451,8.451,0,0,1,.164,1.01,1.583,1.583,0,0,1,.164.4h0.246a3.773,3.773,0,0,0-.041-0.727H59.2V22.99h1.313a2.492,2.492,0,0,0-.041-0.525H60.308a0.5,0.5,0,0,1,.041-0.162c-0.225-.047-0.114-0.151-0.246-0.242-0.1-.07-0.207-0.008-0.287-0.081H59.9c0.145-.072.26,0.061,0.287-0.242a1.488,1.488,0,0,1-.041-0.283l0.246-.04a0.573,0.573,0,0,1,.082-0.283c0.514,0.326,1.5.021,2.01,0.2,0.217,0.078.413,0.355,0.657,0.444a11.549,11.549,0,0,0,2.585.081v0.283l-1.928.04a3.456,3.456,0,0,1-1.149.242V22.99h2.42l0.041-.444a0.647,0.647,0,0,1,.205-0.162,0.464,0.464,0,0,1,.369-0.121V22.99a0.759,0.759,0,0,1,.369.04,0.364,0.364,0,0,0-.369.081c0.165-.005.224-0.022,0.287,0.081a0.432,0.432,0,0,1,.041.242h0.164c0-.444,0-0.646,0-1.091h0.082v0.04a1.315,1.315,0,0,0,0,.525,10.089,10.089,0,0,0-.123,1.535l0.574-.04V24.323a0.2,0.2,0,0,0,.041-0.121,0.442,0.442,0,0,1-.205-0.525,3.637,3.637,0,0,0,.41-0.323,0.343,0.343,0,0,0,.123.081c0-.158-0.02-0.182.082-0.242a0.857,0.857,0,0,0,.246.485c0.036,0.092,0,.183.041,0.242a1.055,1.055,0,0,0-.164.364,1.053,1.053,0,0,0,.7.081q-0.021-.848-0.041-1.7h0.082a0.115,0.115,0,0,1,.041-0.04v0.081a7.5,7.5,0,0,0,.041,1.657h0.041a0.705,0.705,0,0,0,.082-0.4,0.2,0.2,0,0,0,.123-0.04,0.345,0.345,0,0,0,.041-0.2,0.4,0.4,0,0,0,0-.081,0.714,0.714,0,0,1,.082-0.162v0.081a0.266,0.266,0,0,0,.205.081,0.148,0.148,0,0,1,.082-0.04,1.394,1.394,0,0,1,.082-0.849V22.99a7.418,7.418,0,0,0,1.313-.04V23.03s-0.118.053-.082,0.081h0.041a0.146,0.146,0,0,0,.164,0c0.111-.12-0.018-0.12.164-0.162a1.9,1.9,0,0,1,.492.283,5.525,5.525,0,0,1,1.436.081,1.539,1.539,0,0,0-.041-0.364h0.123V23.03a0.432,0.432,0,0,0-.041.242,0.859,0.859,0,0,1,.287.081,2.6,2.6,0,0,0,.082-1.01,0.145,0.145,0,0,0,.041-0.081,0.866,0.866,0,0,1,.41-0.2c-0.009.135-.088,0.1,0.041,0.162a0.2,0.2,0,0,1,.246-0.081,1.081,1.081,0,0,1,.041.485,0.927,0.927,0,0,0-.164.727,2.2,2.2,0,0,1,.7.081V22.909H74.051v-0.04h0.123v0.525c0.507,0.034.962,0.069,1.6,0.081a1.154,1.154,0,0,0,.041-0.364,0.63,0.63,0,0,1-.041-0.323h0.082v0.646a0.145,0.145,0,0,1,.041.081,1.721,1.721,0,0,1,.779.4v-0.04a0.249,0.249,0,0,0,.082-0.081,0.222,0.222,0,0,1-.164-0.121h0.328a0.5,0.5,0,0,0,.615.323L77.5,22.707H77.58v0.646a2.132,2.132,0,0,1,.041.646H77.7a3.327,3.327,0,0,1,1.026-.081,4.671,4.671,0,0,1,.082-1.253c0,0.506.08,0.765,0.082,1.253a5.542,5.542,0,0,1,1.067,0,0.732,0.732,0,0,1,.041.242,10.3,10.3,0,0,0-.369,1.9c-0.5,1.954-.566,4.111-2.01,5.131-2.139,1.511-5.312,1.9-8.246,2.626l-2.462.323-5.087.283-6.277.162-18.995.727-5.5.162c-1.033.22-2.29-.059-3.323,0.162-0.345.074-.813-0.022-1.108,0.04-0.345.074-.813-0.022-1.108,0.04-0.554.118-1.261-.067-1.764,0.04H21.621a12.008,12.008,0,0,1-2.215.081h-0.78c-0.4.083-.985-0.053-1.436,0.04a7.193,7.193,0,0,1-1.354.081A4.4,4.4,0,0,1,15.1,35.6c-0.522-.224-0.994-0.381-1.518-0.606a8.941,8.941,0,0,0-.82-0.4L7.59,34.505V34.343H7.426v0.2a1.605,1.605,0,0,0-.369.04v0.081a1.267,1.267,0,0,0,.123.606H7.1c-0.047-.061-0.2-0.27-0.246-0.2a2.923,2.923,0,0,0-.246.283H6.523v-0.2a0.741,0.741,0,0,0,.041-0.687,4.2,4.2,0,0,1-.656-0.283v-0.04H5.949a3.337,3.337,0,0,0,.7-0.444,1.317,1.317,0,0,1-.123-1.212,0.576,0.576,0,0,1,.287-0.162,0.641,0.641,0,0,1,.164.2,1.25,1.25,0,0,1-.041,1.131H7.426v0.2H7.549v-0.2c0.662-.15.716-0.665,0.533-1.293C7.772,32.287,7.445,32.1,7.138,32c-0.442-.145-0.823-0.188-1.272-0.323a2.125,2.125,0,0,0-.862-0.2c-0.1.059-.075,0.051-0.082,0.2,0.365,0.125.664,0.141,0.656,0.646a4.214,4.214,0,0,1,.041,1.091c0.183,0.9.2,2.263-.656,2.343a1.7,1.7,0,0,1-1.559-.283C2.828,35.062,1.9,33,2.544,31.96c0.442-.707,1.124-0.6,1.928-0.4V31.273a7.681,7.681,0,0,1-2.338-.849,2.29,2.29,0,0,1-.574-1.01c-0.373-.851-0.744-1.752-1.108-2.626a0.646,0.646,0,0,1-.328-0.04H0.287a0.453,0.453,0,0,0,.082-0.242A5.394,5.394,0,0,0,0,25.7H0.287a4.118,4.118,0,0,0,1.805-.04l0.041-.121c0.017-.011.495,0.077,0.533,0.081V25.535a0.27,0.27,0,0,0,.041-0.162,0.141,0.141,0,0,1-.082-0.04H2.79l-0.041-.768c0.478-.01.843-0.058,1.313-0.04L4.1,25.253H4.841c-0.057.245,0.1,0.265,0.41,0.242a0.449,0.449,0,0,1,.369-0.081v0.04H5.662a0.437,0.437,0,0,0,.082.242,0.492,0.492,0,0,0-.082.323H5.7a0.176,0.176,0,0,1,.205-0.04H5.949v0.04c0.01,0.039.032,0.015,0,.04a0.315,0.315,0,0,0-.123.121H6.318a0.211,0.211,0,0,0,.123.04V25.7l0.205-.04V25.495a6.109,6.109,0,0,1-.082-1.212,1.657,1.657,0,0,0-1.928-1.212l-0.041.2H4.554a0.442,0.442,0,0,0-.082-0.283,1.094,1.094,0,0,0,.123-0.162,0.887,0.887,0,0,0,.7.121,2.474,2.474,0,0,1,.862.364,1.077,1.077,0,0,0,.41.364,2.684,2.684,0,0,1,.041-0.687,0.145,0.145,0,0,1,.041.081,1.749,1.749,0,0,1,.082.849c0.019,0.559.086,1.129,0.082,1.737H6.892a0.212,0.212,0,0,0,.123.04,2.481,2.481,0,0,0,.082.566H7.344a2.427,2.427,0,0,0,.533.04c0.671,0.15,1.521.007,2.215,0.162a3.027,3.027,0,0,0,1.477.04,2.612,2.612,0,0,0,1.108.121,19.517,19.517,0,0,0,2.79.2c0-.21-0.066-1.139-0.041-1.212a2.613,2.613,0,0,1,.246-0.242,0.8,0.8,0,0,1,.164-0.768,0.22,0.22,0,0,1-.123-0.242,0.356,0.356,0,0,1,.164-0.121,1.06,1.06,0,0,1,.574-0.04,1.158,1.158,0,0,0-.082-0.323H15.713V23.717a1.278,1.278,0,0,1-.369-0.242h0.123c-0.005-.473-0.056-0.489-0.082-1.01h0.041c0.244,0.352,1.093.162,1.641,0.162a0.98,0.98,0,0,0,.656-0.081c-0.106-.061-0.087-0.121-0.082-0.283H17.354v-0.04a0.2,0.2,0,0,0,.041-0.121c-0.583,0-1.2.026-1.723,0.04V21.859c0.606,0.016,1.363.016,1.969,0V21.778a0.353,0.353,0,0,1-.082-0.162,0.359,0.359,0,0,1,.205-0.04V21.455a0.643,0.643,0,0,0,.369,0c0.108-.085.149-0.229,0.246-0.323a0.922,0.922,0,0,0,.533.323c-0.005.174-.059,0.142,0.041,0.2a0.66,0.66,0,0,0,.328.04,1.965,1.965,0,0,1,.164.323c0.065,0.125-.036.122-0.082,0.323a0.382,0.382,0,0,1-.287-0.081,0.528,0.528,0,0,0-.041.283,0.144,0.144,0,0,0-.041.081h0.533a1.255,1.255,0,0,1,.533-0.04,3.254,3.254,0,0,0-.041-0.646H20.1V21.9h0.041v0.687h0.328c0-.528-0.032-1.062-0.041-1.535h1.108a0.931,0.931,0,0,1,.082-0.566,1.406,1.406,0,0,1,.7-0.081V20.04H22.277v0.04C22.245,20.159,22.236,20,22.236,20h0.041V19.96h0.041V20l0.123,0.081a0.587,0.587,0,0,0,0,.323h0.164L22.523,19.6h0.082a0.211,0.211,0,0,1,.123-0.04V19.394a1.249,1.249,0,0,1,.369-0.162c0,0.166-.068.154,0.164,0.162v0.2a0.384,0.384,0,0,1,.205.04,0.2,0.2,0,0,1,.041.121c-0.106.011-.073-0.019-0.082,0.162h0.041v0.04a0.586,0.586,0,0,1,.164-0.04,0.677,0.677,0,0,0,.041.242H23.549c-0.128-.022-0.157.039-0.246,0.2h0.082a2.526,2.526,0,0,0,.944.04c0,0.391.006,1.022,0.041,1.333a0.438,0.438,0,0,1,.246.04h-0.78a0.681,0.681,0,0,0-.205.323q0.02,1.333.041,2.667h0.082a0.838,0.838,0,0,1,.041-0.4v0.4h0.246a1.331,1.331,0,0,1,1.108-1.616q-0.021.626-.041,1.253a1.367,1.367,0,0,1,.574.04H25.354v0.162l0.944,0.04v-0.04h0.041a0.567,0.567,0,0,1-.041-0.162h0.123V24.323c0.435,0.014.729,0.116,1.19,0.121V24.4h0.041a1.1,1.1,0,0,1,1.108-1.131v0.081a2.757,2.757,0,0,0,.041,1.333h0.287v0.081H28.8l0.041,0.2h1.19a0.783,0.783,0,0,0-.082-0.485,10.874,10.874,0,0,0,1.764,0c0,0.153-.041.111,0.164,0.121v0.323c0.158-.027.171-0.112,0.246-0.04h0.041a0.626,0.626,0,0,0-.041.2H32v0.444h0.574a1.426,1.426,0,0,1,.041-0.606v0.606h0.205a3.886,3.886,0,0,0,.041-1.051h0.164v0.646h0.082c0.048-.2.12-0.241,0.369-0.242a0.583,0.583,0,0,0,.205.162V24.768a0.332,0.332,0,0,1-.246-0.323,3.22,3.22,0,0,0,.492-0.808c0.171-.486-0.016-1.071.615-1.131a1.027,1.027,0,0,1,.246-0.04v0.162H34.708c-0.016-.1.024-0.064-0.123-0.081a0.28,0.28,0,0,1-.164.04,1.2,1.2,0,0,0-.328.808c-0.082,0-.011-0.041-0.082,0a4.85,4.85,0,0,1,0,1.01,2.907,2.907,0,0,0,.41-0.121,2.909,2.909,0,0,0,.533-0.04,1.212,1.212,0,0,1,.041-0.283h0.041a1.529,1.529,0,0,0,.533.081V23.96c-0.046-.08-0.024-0.073,0-0.162h0.082a0.274,0.274,0,0,0,.123.242V23.717a3.787,3.787,0,0,1-1.354-.04h1.354V23.111a3.017,3.017,0,0,1-1.108-.04h1.108c0-1.452-.334-3.046-0.41-4.566H35.241a3.924,3.924,0,0,1-.779-1.091H34.5v0.081a1.3,1.3,0,0,1,.328.4,2.336,2.336,0,0,1,.451-0.04c-0.025-.242-0.416-0.813-0.041-0.687a3.3,3.3,0,0,0,.328.444V17.131a0.145,0.145,0,0,1-.041-0.081,0.268,0.268,0,0,1-.164-0.04h0.082a0.358,0.358,0,0,0,.082-0.283,0.145,0.145,0,0,1-.041-0.081,0.349,0.349,0,0,1-.205-0.04h0.041a1.546,1.546,0,0,1,.41-0.283v-0.04a0.347,0.347,0,0,1-.205-0.04c0.8,0.013,1.343-.2,2.051-0.2a1.828,1.828,0,0,0,1.149-.162,0.486,0.486,0,0,1-.082-0.444h0.369a1.23,1.23,0,0,0,.082.849H38.974c0.026,0.263.068,0.317,0.082,0.606-0.107.011-.081,0-0.082,0.2a0.117,0.117,0,0,1,.041.04,0.393,0.393,0,0,0,.123,0L39.3,17.01a0.571,0.571,0,0,0,.041.2l-0.123.04a9.009,9.009,0,0,1,.287,2.263c0.82,0.447,1.687.845,2.5,1.333a5.276,5.276,0,0,0,1.19.646,0.194,0.194,0,0,1,.041-0.121c0.017,0.145-.019.1,0.082,0.162V21.091a18.9,18.9,0,0,1-.205-2.384c-0.134-.107-0.049-1.738-0.164-2.222-0.147-.619-0.054-1.4-0.205-2.02V13.939c-0.1-.4,0-0.957-0.123-1.495a13.5,13.5,0,0,1-.205-2.263,0.2,0.2,0,0,1-.123-0.04h0.123c-0.018-1.269-.262-2.391-0.287-3.6a1.47,1.47,0,0,0-.451.04V6.505l0.41-.04Zm1.108,0a0.348,0.348,0,0,1,.205.04A0.348,0.348,0,0,1,43.159,5.859Zm-0.451.04a0.348,0.348,0,0,1,.205.04A0.348,0.348,0,0,1,42.708,5.9Zm-0.492.04a0.348,0.348,0,0,1,.205.04A0.348,0.348,0,0,1,42.215,5.939ZM42.051,7.273a0.269,0.269,0,0,1,0,.283V7.273ZM42.092,7.8a0.269,0.269,0,0,1,0,.283V7.8Zm0.041,0.485a0.268,0.268,0,0,1,0,.283V8.283Zm0.041,0.525a0.269,0.269,0,0,1,0,.283V8.808Zm0.041,0.485a0.269,0.269,0,0,1,0,.283V9.293Zm0.041,0.525a0.268,0.268,0,0,1,0,.283V9.818ZM42.3,10.3a0.268,0.268,0,0,1,0,.283V10.3Zm0.041,0.444a0.332,0.332,0,0,1,0,.323V10.748ZM44.1,11.071h0.246v0.04H44.308v0.04A1.04,1.04,0,0,1,44.1,11.071Zm-0.451.04a0.759,0.759,0,0,1,.369.04,2.851,2.851,0,0,1-1.272.04A2.218,2.218,0,0,0,43.651,11.111Zm-1.272.2a0.269,0.269,0,0,1,0,.283V11.313Zm0.492,0a0.145,0.145,0,0,1,.041.081H42.872V11.313Zm0.041,0.162a0.2,0.2,0,0,1,.041.121H42.913V11.475Zm-0.492.283a0.332,0.332,0,0,1,0,.323V11.758Zm0.041,0.566a0.268,0.268,0,0,1,0,.283V12.323ZM42.5,12.768a0.332,0.332,0,0,1,0,.323V12.768Zm0.041,0.566a0.269,0.269,0,0,1,0,.283V13.333Zm2.092,0.121h0.082v0.04H44.636v-0.04Zm-2.051.323a0.332,0.332,0,0,1,0,.323V13.778Zm0.041,0.566a0.268,0.268,0,0,1,0,.283V14.343Zm0.041,0.444a0.332,0.332,0,0,1,0,.323V14.788Zm0.041,0.566a0.269,0.269,0,0,1,0,.283V15.354ZM42.749,15.8a0.332,0.332,0,0,1,0,.323V15.8Zm0.041,0.525a0.332,0.332,0,0,1,0,.323V16.323Zm0.041,0.485a0.332,0.332,0,0,1,0,.323V16.808Zm0.041,0.525a0.269,0.269,0,0,1,0,.283V17.333Zm0.041,0.485a0.332,0.332,0,0,1,0,.323V17.818Zm0.041,0.525a0.268,0.268,0,0,1,0,.283V18.343Zm8.574,0.081a0.145,0.145,0,0,1,.041.081H51.528V18.424Zm0.287,0.121a0.2,0.2,0,0,1,.041.121H51.815V18.546Zm0.041,0.2a0.117,0.117,0,0,1,0,.162V18.748Zm-8.861.121a0.269,0.269,0,0,1,0,.283V18.869Zm0.041,0.485a0.269,0.269,0,0,1,0,.283V19.354Zm0.041,0.525a0.268,0.268,0,0,1,0,.283V19.879Zm0.041,0.485a0.268,0.268,0,0,1,0,.283V20.364Zm0.041,0.525a0.269,0.269,0,0,1,0,.283V20.889Zm-8.246,1.98a0.2,0.2,0,0,1-.123-0.04,0.27,0.27,0,0,1-.041-0.162H34.79c0.035,0.109.025-.017,0.082,0.081A0.2,0.2,0,0,1,34.913,22.869Zm33.682-.162a0.347,0.347,0,0,1,.205.04A0.348,0.348,0,0,1,68.595,22.707Zm-34.174.364a0.718,0.718,0,0,1,0,.525V23.071Zm-0.205.04a0.2,0.2,0,0,1,.123.04A0.2,0.2,0,0,1,34.215,23.111Zm34.133,0.242a0.529,0.529,0,0,1,.164.04v0.081H68.472A1.433,1.433,0,0,0,68.349,23.354Z" transform="translate(0 0.016)"/>
</svg>
