<?xml version="1.0" encoding="utf-8"?>
<!-- Generator: Adobe Illustrator 16.0.0, SVG Export Plug-In . SVG Version: 6.00 Build 0)  -->
<!DOCTYPE svg PUBLIC "-//W3C//DTD SVG 1.1//EN" "http://www.w3.org/Graphics/SVG/1.1/DTD/svg11.dtd">
<svg version="1.1" id="Layer_1" xmlns="http://www.w3.org/2000/svg" xmlns:xlink="http://www.w3.org/1999/xlink" x="0px" y="0px"
	 width="40px" height="40px" viewBox="0 0 40 40" enable-background="new 0 0 40 40" xml:space="preserve">
<path id="uk_fv4004_conway_ico" fill="#FFFFFF" d="M18.425,14.354h0.094V14.4c-0.026,0-0.051,0.008-0.071,0.024
	c0.056,0.058,0.089,0.133,0.094,0.213c0.075,0.016,0.142,0.057,0.188,0.118c-0.015,0.021-0.023,0.046-0.023,0.071
	c0.291,0,0.4,0.089,0.658,0.095c-0.001-0.025,0.007-0.051,0.023-0.071c0.02-0.015,0.044-0.024,0.07-0.024
	c0.13,0.071,0.275,0.111,0.423,0.118c0.426,0.144,0.823,0.36,1.176,0.638l0.022,0.283l8.461,0.213v-0.046
	c0.108-0.023,0.218-0.039,0.329-0.047v-0.119c0.666,0.05,1.334,0.05,2,0v0.142h0.047c0.082-0.058,0.186-0.075,0.282-0.047v0.118
	c1.519,0,3.049,0.024,4.536,0.024c0.861-0.044,1.725-0.037,2.584,0.024c0.203-0.075,0.422-0.099,0.636-0.071
	c0.041,0.25,0.048,0.504,0.022,0.756c-0.221,0.044-0.451,0.02-0.658-0.071c-0.121,0.037-0.25,0.045-0.375,0.024h-1.5
	c-0.555,0.062-1.113,0.07-1.67,0.024c-1.183,0-2.428-0.024-3.571,0.024v0.095c-0.112,0.006-0.224-0.01-0.329-0.047V17
	c-0.666-0.047-1.334-0.047-2,0v-0.118h-0.025c-0.036,0.02-0.077,0.028-0.117,0.024v-0.071c-2.774-0.053-5.771,0.158-8.625,0.165
	v0.047c0.055,0.128,0.094,0.263,0.117,0.4c0.281,0.514,0.185,1.151-0.236,1.559c0.125,0.192-0.036,0.055,0,0.236
	c0.039,0.113,0.086,0.225,0.142,0.331c0.035,0.065,0.044,0.142,0.022,0.213h0.683c0.022-0.101,0.028-0.109,0.142-0.118
	c0.139,0.088,0.307,0.122,0.469,0.095c0.016-0.021,0.024-0.045,0.024-0.071h0.095v0.096c0.115-0.026,0.221-0.084,0.306-0.165
	l0.823,0.095v0.189l0.258,0.023c0-0.063,0.008-0.127,0.023-0.188c0.271,0.154,0.555,0.288,0.846,0.399
	c0.048,0.024,0.039,0.068,0.095,0.096c0.115-0.045,0.244-0.036,0.353,0.023c0.267,0.097,0.542,0.168,0.822,0.213
	c0.032-0.059,0.1-0.088,0.165-0.07c0.143,0.122,0.332,0.174,0.517,0.142c-0.008-0.248,0-0.33,0-0.567h-0.024V20
	c-0.02,0.021-0.035,0.045-0.047,0.071h-0.023v-0.284H26.7v0.023c0.035,0.043,0.074,0.083,0.116,0.118
	c-0.032,0.159-0.016,0.324,0.048,0.474c0.026-0.036,0.059-0.068,0.094-0.096c0.028,0.084,0.044,0.172,0.047,0.26
	c0.3,0,0.489,0.08,0.776,0.096c0.085,0.129,0.264,0.162,0.328,0.26c0.082,0.141,0.186,0.268,0.306,0.378
	c0.161,0.083,0.299,0.204,0.399,0.354c-0.053,0.162-0.084,0.33-0.094,0.5c-0.137,0.146-0.248,0.316-0.328,0.5H28.3
	c-0.008,0.117-0.016,0.236-0.022,0.354h0.094c-0.002,0.084-0.026,0.165-0.07,0.236c-0.027-0.018-0.061-0.026-0.094-0.024
	c-0.03,0.123-0.1,0.194-0.141,0.308c0.045,0.041,0.065,0.048,0.047,0.095c-0.01,0.07-0.07,0.122-0.141,0.118
	c0,0-0.031-0.068-0.048-0.047v0.023c-0.096,0.059-0.177,0.141-0.235,0.236c0.031,0.041,0.041,0.038,0.024,0.07
	c-0.046,0.045-0.103,0.078-0.165,0.096c-0.018-0.037-0.053-0.064-0.094-0.071c-0.073,0.067-0.162,0.116-0.26,0.142
	c0.021,0.054,0.043,0.062,0.023,0.096c-0.044,0.043-0.103,0.068-0.164,0.07c-0.01-0.034-0.036-0.061-0.07-0.07
	c-0.108,0.026-0.201,0.094-0.26,0.189c0.029,0.036,0.016,0.012,0,0.047c-0.044,0.043-0.103,0.068-0.164,0.07
	c-0.012-0.033-0.027-0.065-0.047-0.095c-0.086,0.063-0.182,0.111-0.283,0.142c0.006,0.09,0.049,0.082-0.023,0.118
	c-0.027,0.037-0.072,0.056-0.117,0.047c-0.02-0.021-0.035-0.045-0.047-0.071l-0.282,0.119c-0.01,0.038-0.01,0.078,0,0.117
	c-0.044,0.044-0.103,0.069-0.165,0.071c-0.009-0.044-0.049-0.074-0.094-0.071c-0.057,0.053-0.15,0.068-0.212,0.118
	c-0.041,0.07,0.021,0.07-0.047,0.118c-0.04,0.037-0.089,0.062-0.142,0.07c-0.004-0.035-0.021-0.068-0.047-0.094
	c-0.088,0.059-0.182,0.105-0.281,0.142c0.006,0.09,0.047,0.082-0.024,0.118c-0.043,0.031-0.091,0.055-0.142,0.07
	c0.003-0.045-0.027-0.084-0.07-0.095c-0.072,0.065-0.162,0.106-0.258,0.118c0.016,0.037,0.016,0.08,0,0.117
	c-0.027,0.027-0.067,0.044-0.094,0.072c-0.019-0.003-0.035-0.012-0.047-0.024c-0.017-0.019-0.031-0.054-0.048-0.071
	c-0.084,0.074-0.225,0.088-0.306,0.165c0.02,0.03,0.035,0.062,0.047,0.095h-0.048c-0.048,0.035-0.106,0.052-0.165,0.047
	c0-0.025-0.008-0.05-0.023-0.07c-0.051-0.023-0.108-0.031-0.164-0.024c-0.061,0.009-0.118,0.033-0.166,0.071
	c-0.043,0.047-0.035,0.076-0.211,0.07v-0.125h-0.328v0.119h-0.188c-0.015-0.039-0.022-0.078-0.022-0.119h-0.33v0.119H22v-0.119
	h-0.355v0.119h-0.188v-0.119h-0.329v0.048c-0.044,0.047-0.036,0.075-0.212,0.071v-0.119h-0.328v0.119h-0.212v-0.119h-0.329v0.119
	h-0.188v-0.119h-0.352v0.119h-0.189v-0.119h-0.329v0.048c-0.044,0.047-0.036,0.075-0.212,0.071v-0.119h-0.328v0.119h-0.188
	c-0.031-0.174-0.113-0.127-0.353-0.119v0.119H17.72v-0.119h-0.329v0.048c-0.044,0.047-0.036,0.075-0.212,0.071v-0.119h-0.328v0.119
	h-0.188c-0.031-0.174-0.113-0.127-0.353-0.119v0.119h-0.188c-0.03-0.166-0.111-0.132-0.352-0.119v0.119h-0.188v-0.119h-0.329v0.048
	c-0.042,0.046-0.019,0.075-0.188,0.071c-0.031-0.174-0.113-0.127-0.353-0.119v0.119h-0.188v-0.119H14.2
	c-0.015,0.038-0.022,0.078-0.024,0.119h-0.192v-0.119h-0.329v0.048c-0.044,0.047-0.036,0.075-0.212,0.071v-0.119h-0.329v0.119
	h-0.188v-0.119H12.6c-0.022,0.134-0.022,0.125-0.211,0.119v-0.119h-0.333v0.048c-0.044,0.047-0.036,0.075-0.211,0.071v-0.119h-0.329
	v0.048c-0.043,0.046-0.019,0.075-0.188,0.071v-0.119h-0.353v0.119h-0.188v-0.119h-0.329v0.048c-0.044,0.047-0.036,0.075-0.211,0.071
	v-0.119H9.918v0.119H9.73C9.7,25.8,9.617,25.852,9.377,25.857v0.119H9.189v-0.119H8.86v0.048c-0.044,0.047-0.036,0.075-0.212,0.071
	v-0.119H8.32v0.048c-0.044,0.047-0.036,0.075-0.212,0.071v-0.119H7.779v0.119H7.568c0.023-0.174-0.082-0.129-0.329-0.119v0.119
	H7.051v-0.119H6.722v0.048H6.7c-0.01,0.046,0.036,0.017,0,0.047c-0.06,0.024-0.125,0.032-0.188,0.024v-0.119H6.181v0.048
	c-0.044,0.047-0.036,0.075-0.212,0.071v-0.119c-0.107-0.023-0.219-0.032-0.329-0.023c-0.013,0.038-0.038,0.071-0.07,0.095
	c-0.032-0.028-0.084-0.043-0.118-0.071c-0.05-0.071,0.019-0.08-0.047-0.117c-0.088-0.059-0.183-0.105-0.282-0.141v0.047
	c-0.013,0.021-0.021,0.047-0.024,0.071c-0.053-0.029-0.108-0.053-0.165-0.071c0-0.1,0.034-0.082-0.023-0.117
	c-0.075-0.062-0.164-0.102-0.259-0.118c-0.037,0.065-0.021,0.059-0.118,0.071c-0.026-0.025-0.059-0.042-0.094-0.047
	c0.009-0.039,0.009-0.08,0-0.119c-0.082-0.061-0.178-0.102-0.28-0.116c-0.009,0.044-0.049,0.074-0.094,0.071
	c-0.035-0.025-0.076-0.041-0.118-0.047c0.009-0.039,0.009-0.08,0-0.119c-0.087-0.06-0.182-0.107-0.282-0.142
	c-0.022,0.08-0.009,0.073-0.094,0.095c-0.036-0.029-0.075-0.053-0.118-0.07c0.011-0.031,0.011-0.064,0-0.094
	c-0.079-0.069-0.178-0.111-0.282-0.119c-0.019,0.021-0.035,0.046-0.047,0.072c-0.018-0.003-0.035-0.012-0.047-0.024
	c-0.061,0.004-0.113-0.042-0.118-0.103c0-0.007,0-0.014,0-0.021c0.013-0.013,0.021-0.029,0.023-0.048
	c-0.095-0.049-0.199-0.08-0.306-0.094c-0.019,0.021-0.035,0.045-0.047,0.071c-0.05-0.018-0.097-0.042-0.141-0.071
	c-0.003-0.039-0.003-0.078,0-0.117c-0.107-0.166-0.442,0.086-0.517-0.189c0.02-0.014,0.037-0.031,0.048-0.052
	c-0.089-0.027-0.164-0.086-0.212-0.165c-0.052,0.025-0.113,0.025-0.165,0C1.601,24,1.562,23.96,1.526,23.917
	c0.02-0.046,0.036-0.093,0.047-0.142c-0.049-0.051-0.065-0.168-0.118-0.213c-0.081-0.069-0.086,0.041-0.141-0.047
	c-0.112-0.141,0.042-0.19-0.235-0.189c-0.025-0.025-0.059-0.042-0.094-0.047c-0.085-0.115-0.127-0.258-0.118-0.4
	c0.05-0.077,0.125-0.136,0.212-0.165v-0.092c0.054-0.017,0.11-0.024,0.167-0.022c-0.002,0.057,0.006,0.112,0.024,0.166h0.046
	c0.006-0.114,0.03-0.226,0.071-0.332H1.363c-0.189,0.095-0.399,0.143-0.611,0.143c-0.002-0.018-0.011-0.035-0.024-0.047V22.48
	c0.369-0.062,0.703-0.254,0.94-0.543c-0.046-0.021-0.074-0.068-0.07-0.119c0.2-0.104,0.085-0.057,0.235-0.047
	C1.859,21.758,1.877,21.73,1.88,21.7c-0.467-0.048-0.956-0.252-1.363-0.33v-0.095c0.015-0.109,0.023-0.22,0.024-0.33l-0.329-0.024
	V20.85H0.141c0.006,0.049-0.002,0.099-0.024,0.143c0.004-0.15,0.02-0.301,0.047-0.449H0.047V20.5h0.071
	c0.013,0.013,0.029,0.021,0.047,0.023v-0.074h0.07l-0.047-0.236H0.047v-0.023H0.024L0,20.023l0.141-0.117
	c0.037,0.022,0.07,0.086,0.094,0.047c0.026-0.041,0.07-0.067,0.118-0.071v-0.071c-0.103-0.045-0.167-0.147-0.165-0.26
	c-0.029-0.037-0.015-0.012,0-0.047c0.008-0.059,0.042-0.111,0.094-0.142c0.084-0.023,0.171-0.039,0.259-0.048
	c0.11-0.037,0.213-0.093,0.305-0.164c0.17,0.046,0.351,0.037,0.517-0.024c0.146-0.072,0.308-0.105,0.47-0.095
	c0.225,0.119-0.071,0.251,0.282,0.26c0.028-0.048,0.057-0.137,0.094-0.189c0,0.09-0.011,0.084,0.047,0.118v-0.377
	c0.705-0.038,1.412-0.03,2.115,0.024c0.541,0.081,1.119-0.07,1.622,0.047l2.162,0.047c0.168,0.038,0.409,0,0.588,0.047
	c0.4,0.1,0.81,0.154,1.222,0.165v-0.094H9.706c-0.03-0.251-0.03-0.505,0-0.756H9.542v-0.732H9.283V17.26h0.212v0.165h0.047v-1.346
	c-0.058-0.03-0.016,0.01-0.047-0.047l0.141-0.024c-0.048-0.261-0.024-0.531,0.071-0.78c-0.018-0.111-0.002-0.226,0.046-0.328
	c0.021-0.015,0.045-0.023,0.07-0.024V14.78c0.09-0.003,0.179-0.028,0.259-0.071c0.118-0.148,0.206-0.318,0.258-0.5l-0.375-1.39
	c-0.342-1.005-0.513-2.066-0.846-3.094C9,9.372,8.934,8.99,8.813,8.614c-0.077-0.19-0.132-0.389-0.165-0.591h0.024V8.07
	C8.757,8.249,8.813,8.44,8.837,8.637c0.123,0.376,0.2,0.785,0.329,1.181c0.254,0.773,0.4,1.59,0.658,2.386
	c0.206,0.635,0.408,1.323,0.564,1.984h0.094c0.437-0.31,1.6-0.1,2.28-0.095c-0.017-0.077-0.025-0.156-0.024-0.236
	c0.075-0.057,0.169-0.082,0.262-0.07c0.114,0.041,0.232,0.064,0.353,0.071c0.08,0.009,0.158,0.024,0.235,0.047l0.024,0.071h0.748
	v-0.118h0.681l0.024-0.165c0.036,0.006,0.068,0.022,0.094,0.047c0.045-0.056,0.117-0.083,0.188-0.071
	c0.065,0.098,0.098,0.213,0.094,0.331h0.094c-0.005,0.041,0.003,0.082,0.023,0.118c0.05,0.134,0.136,0.151,0.329,0.142
	c0.138,0.037,0.282,0.045,0.423,0.024v-0.048c-0.041-0.055-0.065-0.121-0.07-0.189h-0.07V14h0.047
	c0.068,0.025,0.141,0.034,0.212,0.024c0.079-1.393,0.157-2.787,0.235-4.181c-0.011-0.435,0.021-0.871,0.094-1.3
	c0.01,1.724-0.225,3.362-0.235,5.079h0.024c0.183-0.057,0.373-0.089,0.564-0.094V13.6c-0.051,0.232-0.067,0.472-0.047,0.709
	c0.031-0.008,0.063-0.008,0.094,0c-0.027,0.024-0.044,0.059-0.047,0.095L17.65,14.5c0.014-0.035,0.03-0.068,0.05-0.1l0.259,0.024
	c0.062-0.014,0.133-0.082,0.188-0.095l0.235,0.024c-0.005-0.221,0.011-0.443,0.047-0.661c0.065-0.3-0.012-0.625,0.047-0.9
	c0.065-0.3-0.012-0.625,0.047-0.9v-0.42c0.09-0.414,0-0.932,0.094-1.346V9.677C18.724,9.183,18.58,8.463,18.734,8h0.024v0.284
	C18.646,10.308,18.535,12.331,18.425,14.354z M0.188,19.764c0.013,0.014,0.021,0.029,0.024,0.047H0.188V19.764z"/>
</svg>
