<svg xmlns="http://www.w3.org/2000/svg" width="80" height="40" viewBox="0 0 80 40">
  <defs>
    <style>
      .cls-1 {
        fill: #fff;
        fill-rule: evenodd;
      }
    </style>
  </defs>
  <path id="Color_Fill_1" data-name="Color Fill 1" class="cls-1" d="M42.4,8a0.355,0.355,0,0,1,.1.2H42.4V8Zm-0.3.593a0.355,0.355,0,0,1,.1.2H42.1v-0.2Zm0.3,0a0.355,0.355,0,0,1,.1.2H42.4v-0.2Zm0.3,0a0.355,0.355,0,0,1,.1.2H42.7v-0.2Zm-0.2,2.667,0.6-.1v0.1H42.9a0.681,0.681,0,0,1-.4.1,5.148,5.148,0,0,1,0,.79,0.846,0.846,0,0,1,.5.1c-0.676.06-.549,0.595-0.5,1.284a4.737,4.737,0,0,1,0,1.086H43a0.474,0.474,0,0,1,.1-0.3c0.16,0.39.555,0.327,1.1,0.3V13.926a0.487,0.487,0,0,0,.3-0.1c-0.376-.014-0.352.046-0.5-0.2h0.1v-0.1a3.849,3.849,0,0,0,1.1-.2v0.2a1.279,1.279,0,0,0-.4.1,8.635,8.635,0,0,1-.1.889,2.925,2.925,0,0,0,.9.1,1.031,1.031,0,0,1,.1-0.593v0.593a7.409,7.409,0,0,1,2.4,0c-1.03.069-2.322,0.1-3.5,0.1l0.1,2.667h0.5L45.3,16.1c0.325,0.082.153-.048,0.3,0.2a1.717,1.717,0,0,0,.2,1.185l-1.1.1a19.789,19.789,0,0,0,1.1,4.247c0.429-.269,1.111.1,1.6-0.2-0.252-.144-0.183-0.124-0.2-0.494,0.316-.1.372,0.018,0.5-0.2a2.8,2.8,0,0,1,0-.593H47.6a0.514,0.514,0,0,1-.3.1,1.516,1.516,0,0,1,.1-0.79v0.593h0.5a1.238,1.238,0,0,1,.1-0.395H47.7c0.062-.467.193-1.16,0.3-1.679a1.068,1.068,0,0,1,.5-0.2c0.361,0.808.413,0.182,0.9,0.593a0.887,0.887,0,0,0,.3.4,0.679,0.679,0,0,1,.5-0.2,1.293,1.293,0,0,1,.2.79c-0.2.248-.132,0.162-0.1,0.494h0.4v0.593H50.2l-0.1.691c0.861-.006,1.095-0.266,1.9-0.3V20.642h0.1v0.1a0.5,0.5,0,0,1,.1.3h0.3V20.642h0.3V20.148H53a1.041,1.041,0,0,1,.2.494c1.041-.208.395-0.177,1.2,0.2h4l-0.1,1.383h0.1a0.606,0.606,0,0,1,.2-0.2v0.2a0.5,0.5,0,0,0-.3.494h0.6V23.6l2-.1V21.827a1.334,1.334,0,0,1,.8-0.2V21.235h0.5v0.1h0.1v0.3a11.473,11.473,0,0,1,2.3.2c0.333,0.753,1.236.518,2.5,0.494v0.2H64.7v0.889a23.507,23.507,0,0,0,5.8-.79h2.3a42.509,42.509,0,0,1,5.2-.3,1.515,1.515,0,0,0,.1.79V22.519c0.55,0.037,1.134.1,1.8,0.1,0.376,1.844-.792,3.924-1.4,5.728-0.258.766-.277,2.083-1,2.37-0.406.345-1.573,0.2-2.3,0.2H69V31.8a2.34,2.34,0,0,1-1.2.2,4.575,4.575,0,0,0-.7-0.2,0.908,0.908,0,0,0,0-.79c-0.559-.353-2.309-0.112-3.1-0.1-0.559.341-3.489,0.1-4.4,0.1H48l-22.8.1H14.9c-1.475-.32-3.312-0.513-4.7-0.691-1.471-.189-3.344.395-4.9,0.4a1.783,1.783,0,0,1,0,.79c-0.385-.221-0.206-0.274-0.6-0.1a3.089,3.089,0,0,0,0-.691c-0.376-.014-0.352.047-0.5-0.2a1.855,1.855,0,0,0,.6-0.3,0.829,0.829,0,0,1-.2-0.79l-1.3-.2v0.1H3.5a1.6,1.6,0,0,0,.8.1L4,31.21H2.1a0.282,0.282,0,0,0-.1-0.1L1.6,29.235H1.8a0.842,0.842,0,0,0,.8,0l-1.6-.1v-0.2c-0.478-.708-0.272-2.006-0.8-2.667a1.434,1.434,0,0,1-.2.988,3.4,3.4,0,0,1,.4-1.975c0.386-.664-0.573-1.248,0-2.074l0.1,2.074c1.674,0.024,3.262.1,4.9,0.1v-0.3a2.536,2.536,0,0,0,1.7-.3,1,1,0,0,0,.6.494,11.209,11.209,0,0,1,2.2-.79c-0.22-.95,1.171-0.75,2.4-0.691V24a3.016,3.016,0,0,0-1.3.1h1.3a0.632,0.632,0,0,0,.1.395V23.8h2.5V22.914H12.5v-0.2h2.4c-0.031-.237-0.105-0.328.2-0.494,0.538-.332,1.468.107,2.1-0.2a0.9,0.9,0,0,1,.6-0.4v0.1h0.1v0.3h0.6l0.1,0.3a7.465,7.465,0,0,1,.2,1.778,1.066,1.066,0,0,0-.6.1h0.6a0.632,0.632,0,0,0,.1.4c-0.032-.944.363-0.949,1.3-0.889,0.2,0.354.645,0.23,1.3,0.2a10.12,10.12,0,0,1,.1-2.173h0.1a0.387,0.387,0,0,0,.3.2V21.531c0.079-.17-0.151-0.052,0-0.3a0.337,0.337,0,0,1,.1-0.2,3.434,3.434,0,0,0,2-.1v0.3a10.151,10.151,0,0,0-.2,1.284,1.066,1.066,0,0,1,.6.1,3.284,3.284,0,0,0,0,1.284,0.874,0.874,0,0,0,.5.1V23.309a0.687,0.687,0,0,0,.5-0.3,1.708,1.708,0,0,1,.3-0.79,1.071,1.071,0,0,0,0,.79,0.96,0.96,0,0,1,.7,0v-0.3a0.382,0.382,0,0,1-.2-0.3h0.1a3.055,3.055,0,0,0,.3.494V21.432h0.4v0.1h0.1a5.034,5.034,0,0,0,.1,1.481,1.589,1.589,0,0,1,.5-0.1,1.515,1.515,0,0,1,.1-0.79v0.79l0.8-.1V22.222H28v-0.3H27.5a1.264,1.264,0,0,1,.2-0.889,0.632,0.632,0,0,0,.1.4,1.106,1.106,0,0,1,.6,0v-0.2a1.026,1.026,0,0,1,.1-0.988,3.319,3.319,0,0,1-1.4-.1,6.117,6.117,0,0,0,2.3-.3,1.942,1.942,0,0,1,.3-0.691,3.464,3.464,0,0,0,.3.988c0.178-.258,0-0.139.3-0.1a0.474,0.474,0,0,1,.1-0.3v0.1c0.139,0.318-.269.7,0.2,0.988a2.019,2.019,0,0,1,0-.593h0.3a1.91,1.91,0,0,0,0,.593,0.95,0.95,0,0,0-.5.593H31a0.564,0.564,0,0,1,.4,0,2.462,2.462,0,0,1,.2-0.494,0.818,0.818,0,0,0,.1.494,0.818,0.818,0,0,1,.1-0.494,0.632,0.632,0,0,0,.1.395,0.474,0.474,0,0,1,.1-0.3,4.489,4.489,0,0,0,.1,1.383h0.1V21.531a6.736,6.736,0,0,0-.1-1.383,0.632,0.632,0,0,1-.1.4V17.086h1.4l0.1-1.778h0.1a1.254,1.254,0,0,0,.2.79,1.016,1.016,0,0,0-.2.988A15.292,15.292,0,0,0,39,15.7l1.8-.593V14.025a12.17,12.17,0,0,0,.3-3.062h0.2v0.1h0.1a13.7,13.7,0,0,0-.4,3.951h0.1a2.125,2.125,0,0,1,1.3-.395c0.005-1.367-.012-2.309,0-3.259H42v-0.2h0.1a0.515,0.515,0,0,0,.3.1,5.215,5.215,0,0,1,.1-2.272C42.5,9.859,42.533,10.617,42.5,11.259ZM42,9.58h0.2v0.1A0.344,0.344,0,0,1,42,9.58Zm0.7,0h0.2v0.1A0.344,0.344,0,0,1,42.7,9.58Zm-0.7.988h0.2v0.2H42v-0.2Zm0.7,0h0.2v0.2H42.7v-0.2Zm-0.8,1.086a0.54,0.54,0,0,1,.3.4H42.1v-0.1H42Zm-8.5.2c0.254,0.144.113-.021,0.2,0.3H33.4v-0.3Zm8.3,0.4a0.474,0.474,0,0,1,.1-0.3,0.763,0.763,0,0,0,.3.3H41.7Zm1.4-.2h0.2v0.1H43.2v0.1A0.355,0.355,0,0,1,43.1,12.049Zm-9.6.593a1.81,1.81,0,0,1,.1.889H33.5v-0.1A6.13,6.13,0,0,1,33.5,12.642ZM33.4,15.21a11.984,11.984,0,0,0,0-1.58h0.3v0.1a3.508,3.508,0,0,0,0,1.481H33.4ZM45,13.63h0.2v0.1A0.344,0.344,0,0,1,45,13.63Zm-2.3.2a0.354,0.354,0,0,1,.1.2H42.7v-0.2Zm1.8,0.4v0.2h0.1v-0.2H44.5Zm0.7,0a0.355,0.355,0,0,1,.1.2H45.2v-0.2Zm-4.9,7.7h1.1c0.076-.26.12-0.236,0.2-0.494a0.355,0.355,0,0,1,.1.2c0.252,0.145.154,0.044,0.2,0.4,1,0.055,1.221.168,1.2-.79a1,1,0,0,0,.5-0.4,6.13,6.13,0,0,1,0-.79H43.3a1.779,1.779,0,0,1-.1.889c-0.016-.714-0.224-2.27.1-2.766l0.1,0.494h0.1a3.381,3.381,0,0,1,0-.691h0.3a1.377,1.377,0,0,1,.4.691,0.487,0.487,0,0,0,.3-0.1c-0.324-.441-0.07-1.541-0.6-1.876a0.874,0.874,0,0,0-.5-0.1,2.46,2.46,0,0,1-.1,1.482V16.593a3.128,3.128,0,0,1-.9,0H42.3a6.816,6.816,0,0,0,.1-1.877H42.2c-0.79.567-1.352,0.2-1.3,1.679a5.006,5.006,0,0,0-.1,1.185Zm2.2-5.432h0.8a5.491,5.491,0,0,1,.1-1.185h0.2v0.1a1.213,1.213,0,0,0-.1,1.086H44V16.3a3.13,3.13,0,0,1-.1-1.58H43.5a0.819,0.819,0,0,1-.1.494V14.716H42.6A6.421,6.421,0,0,0,42.5,16.494Zm1.6-1.778a3.787,3.787,0,0,0,0,.691,0.387,0.387,0,0,0,.3.2v-0.3a0.382,0.382,0,0,1-.2-0.3l0.2,0.1a0.78,0.78,0,0,1,0-.4H44.1Zm1.1,0.2h0.2v0.1A0.344,0.344,0,0,1,45.2,14.914Zm-1.6.2a0.355,0.355,0,0,1,.1.2H43.6v-0.2ZM33.2,18.469q0.05,1.975.1,3.951a3.108,3.108,0,0,0,.7,0,1.81,1.81,0,0,0,.1-0.889H33.9v0.1H33.8v-0.1a1.545,1.545,0,0,1-.1-0.79h1v0.691H35V20.741a3.447,3.447,0,0,0,.7-0.2v0.2h0.7a8.057,8.057,0,0,1-.3,1.284h0.1a0.337,0.337,0,0,1,.1-0.2l0.1,0.691a2.882,2.882,0,0,1,1.3.2c0.137,0.1-.028.063-0.1,0.3a1.451,1.451,0,0,1,.5.1,1.516,1.516,0,0,0,.1.79c0.01-1.023.195-2.028,0.2-3.259h0.2v0.1a5.922,5.922,0,0,0-.1,2.272H39V23.8h0.1V23.6a0.819,0.819,0,0,0,.4-0.593h0.3a2.328,2.328,0,0,1,.1-1.284c0.014,0.372-.047.347,0.2,0.494V21.63a6.339,6.339,0,0,0,.2-1.778,22.576,22.576,0,0,0,.4-4.444A6.874,6.874,0,0,0,39,16l-3.4.988c-0.455.131-1.76,0.033-2,.395,0.273,0.164-.117.632,0.1,0.889,0.086,0.064.314,0.132,0.4,0.2H33.2ZM44.4,15.7a0.486,0.486,0,0,0-.3.1,2.263,2.263,0,0,1,.2.691h0.1V16.2A1.065,1.065,0,0,1,44.4,15.7Zm-0.8.3a0.355,0.355,0,0,1,.1.2H43.6V16Zm0.8,0.593a0.474,0.474,0,0,0,.1.3A0.474,0.474,0,0,0,44.4,16.593ZM33,17.185a0.487,0.487,0,0,0-.3.1,0.382,0.382,0,0,1,.2.3,0.811,0.811,0,0,0-.4,0v-0.4a0.487,0.487,0,0,0-.3.1,0.66,0.66,0,0,0-.1.4,0.355,0.355,0,0,1,.1.2h0.3c0.224-.276.074-0.082,0.5,0a0.337,0.337,0,0,1,.1-0.2Zm0.4,0a0.487,0.487,0,0,0-.3.1c0.065,0.085.134,0.311,0.2,0.4v-0.1A0.66,0.66,0,0,0,33.4,17.185Zm-1.1.2a0.355,0.355,0,0,1,.1.2H32.3v-0.2Zm11.3,0h0.2v0.1A0.344,0.344,0,0,1,43.6,17.383Zm0.3,0h0.2v0.2H43.9v-0.2Zm0.2,0.3a0.355,0.355,0,0,1,.1.2H44.1v-0.2Zm1.1,0a0.355,0.355,0,0,1,.1.2H45.2v-0.2Zm-12,.1V18.37h0.1v-0.1A0.532,0.532,0,0,0,33.2,17.778Zm-1.1.2a0.717,0.717,0,0,0,.4.2v-0.2H32.1Zm1,0H32.7v0.1a2.173,2.173,0,0,1,.2.691H33V18.37A0.66,0.66,0,0,0,33.1,17.975Zm11.8,0.2a0.355,0.355,0,0,1,.1.2H44.9v-0.2Zm34.9,0.1a0.355,0.355,0,0,1,.1.2H79.8v-0.2Zm-36.5.494a5.49,5.49,0,0,0,.1,1.185h0.2v-0.4A1.138,1.138,0,0,0,43.3,18.765Zm1,0a6.118,6.118,0,0,1,.1,1.185h0.2l-0.1-.4,0.2,0.1a2.175,2.175,0,0,1-.2-0.889H44.3Zm-12.2.691a1.031,1.031,0,0,0,.1.593A1.031,1.031,0,0,0,32.1,19.457Zm12.8,0.1,0.5,2.272h0.2v-0.2C45.2,21.087,45.3,20.1,44.9,19.556Zm-0.5.494c0,0.636.012,0.712,0,1.284h0.2v-0.3A1.452,1.452,0,0,0,44.4,20.049Zm-11.4.2a0.632,0.632,0,0,0,.1.4A0.632,0.632,0,0,0,33,20.247Zm11.8,1.58h0.4v-0.1c-0.236-.363-0.153-1.027-0.4-1.383v1.482Zm3-1.284a1.031,1.031,0,0,0,.1.593A1.031,1.031,0,0,0,47.8,20.543Zm32,0a0.286,0.286,0,0,1,0,.4v-0.4Zm-47.8.1a0.5,0.5,0,0,1,.1.3H32v-0.3Zm16.1,0a2.1,2.1,0,0,0-.1.691h0.2v-0.2A3.477,3.477,0,0,1,48.1,20.642Zm0.2,0a1.031,1.031,0,0,0,.1.593C48.429,20.822,48.55,20.879,48.3,20.642Zm5.7,0.1a0.362,0.362,0,0,0,.2.1A0.363,0.363,0,0,0,54,20.741Zm-21,.2a0.818,0.818,0,0,0,.1.494A0.819,0.819,0,0,0,33,20.938Zm10.1,0a0.354,0.354,0,0,1,.1.2H43.1v-0.2Zm-15.3.1H28v0.2H27.8v-0.2Zm52,0a0.393,0.393,0,0,1,0,.494V21.037Zm-49.8.2c0.021,0.138-.082-0.04-0.1.1-0.192.077,0.2,0.1,0.2,0.1A0.337,0.337,0,0,0,30,21.235Zm-29.9.1a0.393,0.393,0,0,1,0,.494V21.333Zm29,0a0.3,0.3,0,0,0,.4,0H29.1Zm14.1,0.1a1.264,1.264,0,0,0,.1.691l0.1-.691H43.2Zm1.2,0v0.4h0.2v-0.4H44.4Zm5.7,0.1v0.494h0.7a1.659,1.659,0,0,0-.1-0.593A1.853,1.853,0,0,1,50.1,21.531Zm8.9-.1a1.684,1.684,0,0,1-.1,1.284A7.146,7.146,0,0,1,59,21.432Zm-33.4.1h0.2v0.2H25.6v-0.2Zm7.4,0a1.515,1.515,0,0,0,.1.79A1.516,1.516,0,0,0,33,21.531Zm1.2,0.889a1,1,0,0,0,.6-0.2,1.464,1.464,0,0,0,.3.494V21.531a6.516,6.516,0,0,1-.9,0v0.2A4.379,4.379,0,0,1,34.2,22.42Zm1.8-.889a6.143,6.143,0,0,0-.7.1,0.66,0.66,0,0,0-.1.4,0.355,0.355,0,0,1,.1.2h0.6v-0.2A0.847,0.847,0,0,0,36,21.531Zm11.9,0c0.028,0.256-.047.175,0.4,0.2v-0.1H48.2v-0.1H47.9Zm-12.5.2a0.355,0.355,0,0,1,.1.2H35.4v-0.2Zm-4,.2v0.3H30.7v0.2h0.6a0.362,0.362,0,0,1,.2-0.1,0.474,0.474,0,0,1,.1-0.3,0.474,0.474,0,0,0,.1.3,0.474,0.474,0,0,1,.1-0.3,0.632,0.632,0,0,0,.1.4V21.926H31.4Zm48.2,0a0.355,0.355,0,0,1,.1.2H79.6v-0.2Zm-79.4.1a1.162,1.162,0,0,1,0,.988V22.025Zm24,0a0.286,0.286,0,0,1,0,.4v-0.4Zm1.9,0.1a0.382,0.382,0,0,1,.2.3H26.2v-0.1A0.355,0.355,0,0,1,26.1,22.124Zm24,0.1a0.362,0.362,0,0,0,.2.1A0.362,0.362,0,0,0,50.1,22.222Zm29.4,0h0.4l0.1,0.4H79.9a2.114,2.114,0,0,0-1.3-.1v-0.2A1.844,1.844,0,0,0,79.5,22.222Zm-57.5.1c0.028,0.256-.047.175,0.4,0.2v-0.2H22Zm13.2,0v0.2h0.2v-0.1h0.1v-0.1H35.2Zm8,0v0.2h0.1v-0.2H43.2Zm-19.7.1c0.172,0.087.128,0.088,0.3,0H23.5Zm16.8,0a0.362,0.362,0,0,0,.2.1A0.362,0.362,0,0,0,40.3,22.42Zm37.4,0.1c-0.486.3-3.386,0.206-4.2,0.2v0.2h0.3c0.73-.425,3.7.191,4.1-0.4H77.7Zm-42.3.1v0.2h0.1v-0.2H35.4Zm37.5,0.1a9.179,9.179,0,0,1-2.9.2v0.2h0.1c0.486-.291,3.008.033,3.3-0.4H72.9Zm5.6,0a0.632,0.632,0,0,0,.1.4A0.632,0.632,0,0,0,78.5,22.716Zm1.1,0.2c-0.086.064-.314,0.132-0.4,0.2,0.39,0,.45.049,0.6-0.2H79.6Zm-0.7.1a0.362,0.362,0,0,0,.2.1A0.363,0.363,0,0,0,78.9,23.012Zm-20.2.1a0.474,0.474,0,0,0,.1.3v-0.3H58.7Zm9.8,0c-0.186.127-.526,0.161-0.7,0.3h0.4a1.18,1.18,0,0,1,.5-0.2v-0.1H68.5Zm8.6,0a0.406,0.406,0,0,0,.5,0H77.1Zm-38.7.1a1.381,1.381,0,0,0-.1.395h0.1A0.575,0.575,0,0,0,38.4,23.21Zm28.8,0.2v0.2a1.775,1.775,0,0,0,.4-0.2H67.2Zm-30,.2a0.632,0.632,0,0,0,.1.4A0.632,0.632,0,0,0,37.2,23.6Zm27.3,0c0.047,0.284.514,0.219,1.1,0.2,0.1-.068.4-0.127,0.5-0.2H64.5Zm-26.2.1v0.2h0.1V23.8h0.1A0.362,0.362,0,0,0,38.3,23.7Zm22.1,0c-0.354.211-1.249-.019-1.6,0.2,0.7,0.016,2.216.211,2.7-.1A5.689,5.689,0,0,0,60.4,23.7ZM13.9,24v0.2a1.893,1.893,0,0,0,1.2-.2H13.9Zm6.5,0.1v0.2h1.1V24.1H20.4Zm4,0.1a0.68,0.68,0,0,0,.7,0H24.4Zm-11.8.3c0.172,0.087.128,0.088,0.3,0H12.6Zm0.4,0a0.362,0.362,0,0,0,.2.1A0.362,0.362,0,0,0,13,24.494Zm0.3,0a0.3,0.3,0,0,0,.4,0H13.3Zm5.9,0.1a0.363,0.363,0,0,0,.2.1A0.362,0.362,0,0,0,19.2,24.593Zm0.3,0a0.68,0.68,0,0,0,.7,0H19.5Zm-18.9.2a0.355,0.355,0,0,1,.1.2H0.6v-0.2Zm-0.3.691a0.362,0.362,0,0,0,.2.1A0.362,0.362,0,0,0,.3,25.482Zm0.3,0v0.2H1v-0.2A0.81,0.81,0,0,1,.6,25.482Zm0.8,0.1a4.006,4.006,0,0,0,2.2,0H1.4Zm2.6,0a2.273,2.273,0,0,0,1.5,0H4ZM2.7,29.333a0.3,0.3,0,0,0,.4,0H2.7Zm2.5,0.3a1.612,1.612,0,0,1,0,.79H5.6a0.362,0.362,0,0,1,.2-0.1V29.827H5.9v-0.1Zm1.1,0.2v0.494a5.738,5.738,0,0,0,2.6-.1Z"/>
</svg>
