<svg xmlns="http://www.w3.org/2000/svg" width="40" height="40" viewBox="0 0 40 40">
  <defs>
    <style>
      .cls-1 {
        fill: #fff;
        fill-rule: evenodd;
      }
    </style>
  </defs>
  <path id="uk_fv4004_conway_ico" class="cls-1" d="M18.425,17.354h0.094V17.4a0.113,0.113,0,0,0-.071.024,0.33,0.33,0,0,1,.094.213,0.313,0.313,0,0,1,.188.118,0.121,0.121,0,0,0-.023.071c0.291,0,.4.089,0.658,0.095a0.114,0.114,0,0,1,.023-0.071,0.119,0.119,0,0,1,.07-0.024,0.98,0.98,0,0,0,.423.118,3.908,3.908,0,0,1,1.175.638l0.023,0.283,8.461,0.213V19.032a2.589,2.589,0,0,1,.329-0.047V18.866a13.4,13.4,0,0,0,2,0v0.142h0.047a0.33,0.33,0,0,1,.282-0.047v0.118c1.519,0,3.049.024,4.536,0.024a21.3,21.3,0,0,1,2.585.024,1.336,1.336,0,0,1,.635-0.071,2.879,2.879,0,0,1,.023.756,1.1,1.1,0,0,1-.658-0.071,0.815,0.815,0,0,1-.376.024h-1.5a8.639,8.639,0,0,1-1.669.024c-1.183,0-2.428-.024-3.572.024v0.095a0.835,0.835,0,0,1-.329-0.047V20a14.306,14.306,0,0,0-2,0V19.882H29.847a0.2,0.2,0,0,1-.117.024V19.835c-2.774-.053-5.77.158-8.625,0.165v0.047a1.712,1.712,0,0,1,.117.4,1.3,1.3,0,0,1-.235,1.559c0.125,0.192-.037.054,0,0.236a2.256,2.256,0,0,0,.141.331,0.283,0.283,0,0,1,.023.213h0.682c0.023-.1.028-0.109,0.141-0.118a0.674,0.674,0,0,0,.47.095,0.122,0.122,0,0,0,.024-0.071h0.094v0.095a0.652,0.652,0,0,0,.306-0.165l0.823,0.095v0.189l0.258,0.024a0.807,0.807,0,0,1,.024-0.189,6.16,6.16,0,0,0,.846.4c0.047,0.024.038,0.068,0.094,0.095a0.416,0.416,0,0,1,.352.024,4.547,4.547,0,0,0,.823.213,0.145,0.145,0,0,1,.165-0.071,0.628,0.628,0,0,0,.517.142c-0.008-.248,0-0.33,0-0.567H26.745V23a0.272,0.272,0,0,0-.047.071H26.675V22.787H26.7v0.024a0.892,0.892,0,0,0,.117.118,0.8,0.8,0,0,0,.047.473,0.51,0.51,0,0,1,.094-0.095,0.916,0.916,0,0,1,.047.26c0.3,0,.489.079,0.776,0.095,0.085,0.129.264,0.162,0.329,0.26a1.619,1.619,0,0,0,.305.378,1.066,1.066,0,0,1,.4.354,1.926,1.926,0,0,0-.094.5,1.814,1.814,0,0,0-.329.5H28.3q-0.012.177-.023,0.354h0.094a0.471,0.471,0,0,1-.07.236,0.159,0.159,0,0,0-.094-0.024c-0.03.123-.1,0.194-0.141,0.307,0.046,0.041.066,0.048,0.047,0.095a0.135,0.135,0,0,1-.141.118s-0.031-.068-0.047-0.047v0.024a0.71,0.71,0,0,0-.235.236c0.031,0.041.041,0.038,0.024,0.071a0.4,0.4,0,0,1-.165.095,0.129,0.129,0,0,0-.094-0.071,0.608,0.608,0,0,1-.259.142c0.021,0.053.042,0.061,0.023,0.095a0.247,0.247,0,0,1-.165.071,0.1,0.1,0,0,0-.07-0.071,0.42,0.42,0,0,0-.259.189c0.029,0.037.015,0.012,0,.047a0.246,0.246,0,0,1-.165.071,0.421,0.421,0,0,0-.047-0.095,0.929,0.929,0,0,1-.282.142c0.006,0.09.048,0.082-.024,0.118a0.118,0.118,0,0,1-.117.047,0.272,0.272,0,0,1-.047-0.071l-0.282.118a0.232,0.232,0,0,0,0,.118,0.246,0.246,0,0,1-.165.071,0.089,0.089,0,0,0-.094-0.071c-0.057.053-.15,0.068-0.212,0.118-0.041.07,0.021,0.07-.047,0.118a0.28,0.28,0,0,1-.141.071,0.162,0.162,0,0,0-.047-0.095,1.267,1.267,0,0,1-.282.142c0.006,0.09.048,0.082-.024,0.118a0.475,0.475,0,0,1-.141.071,0.092,0.092,0,0,0-.071-0.095,0.47,0.47,0,0,1-.258.118,0.157,0.157,0,0,1,0,.118c-0.027.027-.067,0.043-0.094,0.071a0.08,0.08,0,0,1-.047-0.024c-0.016-.018-0.031-0.053-0.047-0.071-0.084.074-.225,0.088-0.306,0.165a0.465,0.465,0,0,1,.047.095H23.784a0.251,0.251,0,0,1-.165.047,0.115,0.115,0,0,0-.023-0.071,0.31,0.31,0,0,0-.165-0.024,0.344,0.344,0,0,0-.165.071c-0.044.047-.036,0.076-0.212,0.071V28.858H22.726v0.118H22.538a0.373,0.373,0,0,1-.023-0.118H22.186v0.118H22V28.858H21.645v0.118H21.457V28.858H21.128v0.047c-0.044.047-.036,0.076-0.212,0.071V28.858H20.588v0.118H20.376V28.858H20.047v0.118H19.859V28.858H19.507v0.118H19.318V28.858H18.989v0.047c-0.044.047-.036,0.076-0.212,0.071V28.858H18.449v0.118H18.261c-0.031-.173-0.113-0.126-0.353-0.118v0.118H17.72V28.858H17.391v0.047c-0.044.047-.036,0.076-0.212,0.071V28.858H16.851v0.118H16.663c-0.031-.173-0.113-0.126-0.353-0.118v0.118H16.122c-0.03-.166-0.111-0.131-0.352-0.118v0.118H15.582V28.858H15.253v0.047c-0.042.046-.019,0.075-0.188,0.071-0.031-.173-0.113-0.126-0.353-0.118v0.118H14.524V28.858H14.2a0.372,0.372,0,0,0-.024.118H13.984V28.858H13.655v0.047c-0.044.047-.036,0.076-0.212,0.071V28.858H13.114v0.118H12.926V28.858H12.6c-0.022.133-.022,0.124-0.211,0.118V28.858H12.056v0.047c-0.044.047-.036,0.076-0.211,0.071V28.858H11.516v0.047c-0.043.046-.019,0.075-0.188,0.071V28.858H10.975v0.118H10.787V28.858H10.458v0.047c-0.044.047-.036,0.076-0.211,0.071V28.858H9.918v0.118H9.73C9.7,28.8,9.617,28.851,9.377,28.858v0.118H9.189V28.858H8.86v0.047c-0.044.047-.036,0.076-0.212,0.071V28.858H8.32v0.047c-0.044.047-.036,0.076-0.212,0.071V28.858H7.779v0.118H7.568c0.023-.173-0.082-0.128-0.329-0.118v0.118H7.051V28.858H6.722v0.047H6.7c-0.01.046,0.036,0.017,0,.047a0.372,0.372,0,0,1-.188.024V28.858H6.181v0.047c-0.044.047-.036,0.076-0.212,0.071V28.858a1.1,1.1,0,0,0-.329-0.024,0.2,0.2,0,0,1-.07.095c-0.032-.029-0.084-0.043-0.118-0.071-0.05-.072.019-0.081-0.047-0.118A1.265,1.265,0,0,0,5.123,28.6v0.047a0.165,0.165,0,0,0-.024.071,0.88,0.88,0,0,0-.165-0.071c0-.1.034-0.083-0.023-0.118a0.554,0.554,0,0,0-.259-0.118c-0.037.065-.021,0.059-0.118,0.071a0.168,0.168,0,0,0-.094-0.047,0.267,0.267,0,0,0,0-.118A0.616,0.616,0,0,0,4.16,28.2a0.089,0.089,0,0,1-.094.071,0.274,0.274,0,0,0-.118-0.047,0.267,0.267,0,0,0,0-.118,1.171,1.171,0,0,0-.282-0.142c-0.022.08-.009,0.073-0.094,0.095a0.441,0.441,0,0,0-.118-0.071,0.14,0.14,0,0,0,0-.094,0.48,0.48,0,0,0-.282-0.118,0.273,0.273,0,0,0-.047.071,0.08,0.08,0,0,1-.047-0.024A0.11,0.11,0,0,1,2.961,27.7a0.085,0.085,0,0,0,.023-0.047,0.9,0.9,0,0,0-.306-0.094,0.273,0.273,0,0,0-.047.071,0.646,0.646,0,0,1-.141-0.071,0.7,0.7,0,0,1,0-.118c-0.107-.166-0.442.086-0.517-0.189A0.144,0.144,0,0,0,2.021,27.2a0.374,0.374,0,0,1-.212-0.165,0.189,0.189,0,0,1-.165,0,0.891,0.891,0,0,1-.118-0.118,0.831,0.831,0,0,0,.047-0.142c-0.049-.05-0.065-0.168-0.118-0.213-0.081-.069-0.086.041-0.141-0.047-0.112-.14.042-0.19-0.235-0.189a0.168,0.168,0,0,0-.094-0.047,0.606,0.606,0,0,1-.118-0.4,0.405,0.405,0,0,1,.212-0.165V25.622A0.5,0.5,0,0,1,1.246,25.6a0.478,0.478,0,0,0,.024.165H1.316a1.1,1.1,0,0,1,.071-0.331H1.363a1.363,1.363,0,0,1-.611.142,0.081,0.081,0,0,0-.024-0.047V25.48a1.542,1.542,0,0,0,.94-0.543,0.12,0.12,0,0,1-.07-0.118c0.2-.105.085-0.057,0.235-0.047A0.092,0.092,0,0,0,1.88,24.7C1.413,24.652.924,24.448,0.517,24.37V24.276a2.538,2.538,0,0,0,.024-0.331l-0.329-.024V23.85H0.141a0.25,0.25,0,0,1-.024.142,2.866,2.866,0,0,1,.047-0.449H0.047V23.5H0.118a0.085,0.085,0,0,0,.047.024V23.449H0.235l-0.047-.236H0.047V23.189H0.024L0,23.024l0.141-.118c0.037,0.023.07,0.086,0.094,0.047a0.155,0.155,0,0,1,.118-0.071V22.811a0.278,0.278,0,0,1-.165-0.26c-0.029-.037-0.015-0.012,0-0.047a0.194,0.194,0,0,1,.094-0.142,1.5,1.5,0,0,1,.259-0.047A1.037,1.037,0,0,0,.846,22.15a0.846,0.846,0,0,0,.517-0.024,0.922,0.922,0,0,1,.47-0.095c0.225,0.119-.071.251,0.282,0.26,0.028-.048.057-0.137,0.094-0.189,0,0.089-.011.083,0.047,0.118V21.843a16.073,16.073,0,0,1,2.115.024c0.541,0.081,1.119-.07,1.622.047l2.162,0.047c0.168,0.038.409,0,.588,0.047a5.673,5.673,0,0,0,1.222.165V22.079H9.706a3.233,3.233,0,0,1,0-.756H9.542V20.591H9.283V20.26H9.495v0.165H9.542V19.079c-0.058-.03-0.016.01-0.047-0.047l0.141-.024a1.443,1.443,0,0,1,.071-0.78A0.563,0.563,0,0,1,9.753,17.9a0.12,0.12,0,0,1,.07-0.024V17.78a0.583,0.583,0,0,0,.259-0.071,1.44,1.44,0,0,0,.258-0.5L9.965,15.819c-0.342-1.005-.513-2.066-0.846-3.094C9,12.372,8.934,11.99,8.813,11.614a2.717,2.717,0,0,1-.165-0.591H8.672v0.047a1.827,1.827,0,0,1,.165.567c0.123,0.376.2,0.785,0.329,1.181,0.254,0.773.4,1.59,0.658,2.386,0.206,0.635.408,1.323,0.564,1.984h0.094c0.437-.31,1.6-0.1,2.28-0.095a1.054,1.054,0,0,1-.024-0.236A0.357,0.357,0,0,1,13,16.787a1.247,1.247,0,0,0,.353.071,1.343,1.343,0,0,1,.235.047l0.024,0.071H14.36V16.858h0.681l0.024-.165a0.174,0.174,0,0,1,.094.047,0.2,0.2,0,0,1,.188-0.071,0.555,0.555,0,0,1,.094.331h0.094a0.2,0.2,0,0,0,.023.118c0.05,0.134.136,0.151,0.329,0.142a1.061,1.061,0,0,0,.423.024V17.236a0.362,0.362,0,0,1-.07-0.189h-0.07V17h0.047a0.433,0.433,0,0,0,.212.024q0.118-2.09.235-4.181a6.7,6.7,0,0,1,.094-1.3c0.01,1.724-.225,3.362-0.235,5.079h0.024a2.084,2.084,0,0,1,.564-0.094V16.6a2.348,2.348,0,0,0-.047.709,0.187,0.187,0,0,1,.094,0,0.145,0.145,0,0,0-.047.095L17.65,17.5A0.615,0.615,0,0,1,17.7,17.4l0.259,0.024c0.062-.014.133-0.082,0.188-0.095l0.235,0.024a3.491,3.491,0,0,1,.047-0.661c0.065-.3-0.012-0.625.047-0.9,0.065-.3-0.012-0.625.047-0.9V14.472c0.09-.414,0-0.932.094-1.346V12.677c0.107-.494-0.037-1.214.117-1.677h0.024v0.284Q18.59,14.319,18.425,17.354ZM0.188,22.764a0.085,0.085,0,0,1,.024.047H0.188V22.764Z"/>
</svg>
