<svg xmlns="http://www.w3.org/2000/svg" width="80" height="40" viewBox="0 0 80 40">
  <defs>
    <style>
      .cls-1 {
        fill: #fff;
        fill-rule: evenodd;
      }
    </style>
  </defs>
  <path id="uk_fairmile_b_ml345_ico" class="cls-1" d="M43.765,5a0.088,0.088,0,0,1,.025.049H43.765V5ZM43.79,5.22a0.163,0.163,0,0,1,0,.171V5.22Zm0.025,0.244a0.242,0.242,0,0,1,0,.22V5.464Zm0.149,0.415c-0.057.838,0.21,1.819,0.223,2.761,0.073-.009.051-0.049,0.1,0.024a0.2,0.2,0,0,1,0,.1h0.05a0.69,0.69,0,0,1-.05.269c0.007,0.025.078,0.139,0.074,0.147a0.137,0.137,0,0,0-.074.122,0.953,0.953,0,0,1,.1.073,2.025,2.025,0,0,1,0,.366H44.31l0.049,0.66h0.025a1.021,1.021,0,0,1,.421-0.073V10.4l-0.322.025v0.024a0.515,0.515,0,0,1,.025.244h0.05a0.935,0.935,0,0,1,.025-0.22h0.1a0.805,0.805,0,0,1,.05.293,0.4,0.4,0,0,0,.124.024,0.117,0.117,0,0,0,.025.073,1.8,1.8,0,0,1,.545-0.073v0.1H45.35a3.108,3.108,0,0,1-.867.782,3.493,3.493,0,0,0,.124.66,0.121,0.121,0,0,0-.074.024,3.9,3.9,0,0,1,.1.855h0.124c0.071,0.146.229,0.141,0.3,0.269a0.81,0.81,0,0,0-.1.1V13.551a0.453,0.453,0,0,0-.322-0.22l0.4,4.006a12.615,12.615,0,0,0,.2,1.832v0.513a8.2,8.2,0,0,0,.2,1.49,1.041,1.041,0,0,1,.52-0.269,1.159,1.159,0,0,1,.074-0.415,5.468,5.468,0,0,1,2.279-.244V20.2a0.385,0.385,0,0,1,0-.2H48v0.073H47.926L47.9,19.9a0.161,0.161,0,0,1-.1-0.024h0.1V19.731H47.629V19.609h0.3V19.536H48v0.073h0.173a1.1,1.1,0,0,1,.074-0.122H48.173a0.1,0.1,0,0,1-.025-0.049c0.073-.043.018-0.062,0.1-0.122a0.433,0.433,0,0,1,.149-0.049c0,0.077.013-.016,0.074,0.024,0.086,0.057.013,0.075-.025,0.122a0.088,0.088,0,0,1,.025.049,0.162,0.162,0,0,1,.1.024c-0.089.01-.062-0.012-0.1,0.049H48.446V19.56a0.772,0.772,0,0,0,.273.049V19.536h0.074v0.073h0.272v0.122H48.817a2.988,2.988,0,0,1-.025.342H48.718V20h-0.3a1.056,1.056,0,0,1,0,.244h0.793a1.138,1.138,0,0,1,.446-0.024,0.76,0.76,0,0,1-.049-0.366l0.074-.1a1.4,1.4,0,0,0,.223,0,0.942,0.942,0,0,1,.173.22V19.707a1.881,1.881,0,0,1,0-.22H49.808V19.463H49.783a1.076,1.076,0,0,1,.025-0.489,2.058,2.058,0,0,1,.545-0.024c0,0.253,0,.283,0,0.562H50.3a0.271,0.271,0,0,0-.149-0.024c0,0.225,0,.394,0,0.66l0.421-.024c0.019-.153.084-0.229,0.1-0.391H50.8v0.024a1.067,1.067,0,0,0-.149.44H51.1c0.01,0.14.025,0.295,0.025,0.464H51.046L50.8,21h0.619a4.717,4.717,0,0,0,1.114.024l2.724,0.049a0.445,0.445,0,0,1,.074-0.147h0.025v0.024c0.1,0.059.2,0.134,0.3,0.2a0.427,0.427,0,0,1-.049.1c-0.131.074-.235-0.008-0.248,0.2a5.979,5.979,0,0,1,.669,1.27,0.937,0.937,0,0,0,.322.537,2.835,2.835,0,0,0,.322.806h0.05V23.494l0.1-.342a1.174,1.174,0,0,1,.545-0.342v0.122a1.837,1.837,0,0,0-.05.489,0.949,0.949,0,0,1-.149.269v0.562a0.932,0.932,0,0,0,.347.049,4.407,4.407,0,0,0,.05.855,1.547,1.547,0,0,0,.4.025,8.277,8.277,0,0,0,.05-1.49c-0.113,0-.421.024-0.421,0.024a0.123,0.123,0,0,1-.025-0.073c0.04-.047.038-0.141,0.074-0.2a0.127,0.127,0,0,1,.074-0.024,0.3,0.3,0,0,0,.3.049V23.347H57.783V23.225h0.223V21.2a1.8,1.8,0,0,0,.1-1.05,1.9,1.9,0,0,1-.025-0.709H58.3q-0.012.794-.025,1.588a0.9,0.9,0,0,0,.124.2v1.906a7.417,7.417,0,0,0,.991-0.049v0.391H60.8V23.64c0.113-.015.313,0,0.545,0v0.049a1.981,1.981,0,0,0-.025.733h0.223A1.815,1.815,0,0,0,61.6,23.86,4.592,4.592,0,0,1,61.523,23h0.1a0.381,0.381,0,0,1,.025.122,0.584,0.584,0,0,0-.025.269h0.025V23.371a0.93,0.93,0,0,1,.57-0.415v0.22a1.967,1.967,0,0,0-.05.464,0.681,0.681,0,0,1-.124.146,1.532,1.532,0,0,0,.025.635h0.2a0.738,0.738,0,0,0,.074.537v-0.2a3.784,3.784,0,0,1-.025-0.489,1.149,1.149,0,0,1-.1-0.269c0.165-.01.29,0,0.5,0a0.434,0.434,0,0,1,.05-0.22l0.025,0.2a0.406,0.406,0,0,0,.322-0.049,0.158,0.158,0,0,1-.149-0.147h0.05a0.225,0.225,0,0,0,.173.1,0.31,0.31,0,0,1-.05.171c-0.012.03,0.085,0.023,0.05,0.1l-0.074.024c-0.032.083,0.05,0.626,0.025,0.757h0.124a0.168,0.168,0,0,1,.1-0.024c0.038-.162.13-0.369,0.173-0.562H63.406V24.2h0.619l-0.1-1.344h0.1c0.019,0.383.048,0.848,0.049,1.319a2.46,2.46,0,0,0,.619.025h1.387c0.035-.12.117-0.107,0.272-0.1a3.616,3.616,0,0,1,.173-0.489,2.932,2.932,0,0,0-.05-0.9,0.352,0.352,0,0,1,.1-0.024v0.049a2.285,2.285,0,0,1,.025.562h0.025V23.274a2.064,2.064,0,0,0,.074-0.953l-0.3.025V22.272a0.54,0.54,0,0,1-.3-0.244v-0.22a0.72,0.72,0,0,1-.272-0.2,0.991,0.991,0,0,1-.3-0.024V21.466c-0.115.01-.109,0.036-0.223,0.049v0.2h-0.1l-0.025.2H65.115a2.229,2.229,0,0,0,0-.318H64.941c-0.009.064,0.018,0.032-.05,0.049-0.046-.043-0.02-0.045-0.074-0.024a0.262,0.262,0,0,0-.025.147h-0.1a1.271,1.271,0,0,1,.049-0.2c0.251-.077.215-0.123,0.2-0.44a0.088,0.088,0,0,0,.025-0.049,0.631,0.631,0,0,1,.2-0.024,0.55,0.55,0,0,1,.371.049c0.016-.18.054-0.087,0.1-0.171a1.2,1.2,0,0,0-.025-0.342l0.124-.024a0.566,0.566,0,0,0,.594.269V20.782a1.586,1.586,0,0,1-.223-0.391c-0.073.01-.031,0.04-0.074-0.024a0.65,0.65,0,0,1-.1-0.171H65.907a0.253,0.253,0,0,1-.025.147,0.819,0.819,0,0,0-.025-0.2c-0.067,0-.065.02-0.1-0.073a0.873,0.873,0,0,0,.248-0.049l0.223,0.44a0.522,0.522,0,0,1,.248-0.122c0.028,0.07,0,.045.074,0.073a0.16,0.16,0,0,1,0-.122,0.9,0.9,0,0,0,.074-0.073H66.65a5.335,5.335,0,0,0,.52.928L69.325,21.2v0.171l-1.982.024a1.1,1.1,0,0,0,.2.415c0.036,0.05.139,0.071,0.173,0.122v0.1c0.106,0.2.264,0.4,0.371,0.611a0.22,0.22,0,0,1,.223.049c-0.1,0-.135-0.013-0.173.049a4.982,4.982,0,0,1,.446.708V23.86H67.988a2.866,2.866,0,0,0-.644-1.49H67.319V23.1a3.487,3.487,0,0,1,.3.757l0.049,0.22a0.494,0.494,0,0,0,.248.024l0.025,0.1h1.214c-0.053-.533-0.04-1.119-0.124-1.661a0.4,0.4,0,0,1,.124-0.024c-0.021.543,0.125,1.145,0.074,1.661h0.025a1.246,1.246,0,0,1,.471-0.049V24.2h0.3V24.129h0.049a1.063,1.063,0,0,1,.421-0.024,0.308,0.308,0,0,1-.025.1h0.149v0.146h-0.1L70.539,24.5h0.124v0.073h0.322V24.5l0.371-.024,0.074-.88h-0.4a0.339,0.339,0,0,1-.025-0.1,1.647,1.647,0,0,1,.446-0.024,2.348,2.348,0,0,1,.124-0.611,1.121,1.121,0,0,0-.05-0.513h0.124c-0.008.184,0,.321,0,0.513l0.5-.024v0.049c0.079,0.119.025,0.3,0.1,0.44,0.035,0.065.166,0.125,0.2,0.2a0.893,0.893,0,0,0,.124.415V23.909a0.208,0.208,0,0,1,.074-0.1v0.1a7.453,7.453,0,0,1,.892-0.073,0.262,0.262,0,0,1,.025.147,0.39,0.39,0,0,0-.1.391,0.088,0.088,0,0,1,.025.049H73.61a0.259,0.259,0,0,1,.149-0.049,1.381,1.381,0,0,1,.2-0.318,0.944,0.944,0,0,1-.272-0.513,0.764,0.764,0,0,1,.743-0.073V23.225a0.523,0.523,0,0,0-.1-0.269,0.214,0.214,0,0,1-.173-0.024,0.426,0.426,0,0,0,.149-0.024,0.161,0.161,0,0,1,.173-0.147,0.342,0.342,0,0,1,.025.1,1.6,1.6,0,0,0,0,.635h0.025v0.024a1.8,1.8,0,0,1,.743.318H75.245a1.578,1.578,0,0,1-.421.244V24.1h0.4a1.364,1.364,0,0,1,.4-0.024,6.128,6.128,0,0,1,.867-0.073,0.319,0.319,0,0,1,.025.171,0.45,0.45,0,0,0-.124.025,0.087,0.087,0,0,1,.025.049h0.173c0.094-.058.277,0.024,0.4-0.024a0.784,0.784,0,0,1,.446-0.244v0.049a0.362,0.362,0,0,0-.124.024v0.073h0.3l0.025-.073a0.392,0.392,0,0,0-.124-0.024V23.958a0.806,0.806,0,0,1,.421.2,3.055,3.055,0,0,0,1.164-.122V24.007H79.059a0.183,0.183,0,0,0-.1-0.1l0.173-.024a0.412,0.412,0,0,1-.025.146,1.8,1.8,0,0,0,.371.024c0-.236.011-0.3,0-0.489h0.1v0.171H79.7v0.293h0.272a0.379,0.379,0,0,1,.025.122,1.9,1.9,0,0,0-.248.513c-0.159.354-.353,0.7-0.52,1.075-0.208.465-.481,0.944-0.718,1.393-0.193.364-.326,0.731-0.52,1.1-0.133.253-.258,0.518-0.4,0.782a1.229,1.229,0,0,0-.124.2,3.185,3.185,0,0,1,.1.342,4.782,4.782,0,0,1-.421.928,6.578,6.578,0,0,1-1.635,2.59,5.178,5.178,0,0,1-1.758.709c-0.468.121-1.007,0.045-1.461,0.147-0.361.081-.546-0.13-0.916-0.049a4.252,4.252,0,0,1-.768.024H69.152c-1.371,0-2.826.025-4.235,0.025l0.025,0.2a0.7,0.7,0,0,1,.644.2,0.374,0.374,0,0,1-.049.513,3.657,3.657,0,0,1-2.031.024,0.961,0.961,0,0,1-.3-0.293l0.025-.073a1.013,1.013,0,0,1,.619-0.318,1.767,1.767,0,0,0,.52-0.073,0.556,0.556,0,0,0,.05-0.171H62.935a4.589,4.589,0,0,1-1.09.024H58.972L48,34a4.958,4.958,0,0,1-.892.024H45.35l-4.9.049h-2.2l-6.019.073H30.415a8.818,8.818,0,0,1-1.635.025H28.31a7.54,7.54,0,0,1-1.387.024l-2.328.024-6.935.1c-0.521-.081-1.123-0.168-1.635-0.293-0.407-.1-0.833-0.1-1.214-0.2-0.6-.146-1.213-0.153-1.783-0.293L10.3,33.119l-2.056.147v0.1c-0.311.073-.741,0.081-1.09,0.122l-0.025-.122H7.059v0.122H6.91l0.05,0.831a0.76,0.76,0,0,0-.223,0,1.24,1.24,0,0,1-.149-0.88,0.169,0.169,0,0,1-.149-0.1c-0.059-.115.042-0.1,0.074-0.171a1.772,1.772,0,0,0,.025-0.513c-0.226-.073-0.482-0.038-0.743-0.1-0.554-.127-1.207-0.106-1.783-0.22C3.986,32.855,3.755,33.88,3.344,34a0.551,0.551,0,0,1-.52-0.269,1.719,1.719,0,0,1-.669-1.588H2.006a0.127,0.127,0,0,0-.074-0.024,4.345,4.345,0,0,0-.347-1.368c-0.253-.773-0.318-1.555-0.57-2.321C0.872,27.993.8,27.521,0.644,27.06A2.423,2.423,0,0,1,.5,26.523c-0.177-.03-0.235-0.069-0.223-0.293l0.57-.024a0.441,0.441,0,0,1,.074-0.1c0-.472,0-0.8,0-1.27a1.015,1.015,0,0,1-.248-0.1l-0.025-.073a1.909,1.909,0,0,0-.421-0.024A0.848,0.848,0,0,1,.173,24.5,0.324,0.324,0,0,1,0,24.471a1.219,1.219,0,0,1,.272,0V24.5A0.121,0.121,0,0,0,.2,24.52a1.233,1.233,0,0,0,.743.1c0-.227-0.01-0.467-0.025-0.66h0.05a0.114,0.114,0,0,1,.1.024,0.123,0.123,0,0,1,.025.073,1.112,1.112,0,0,0-.074.586h0.3V24.178a0.312,0.312,0,0,1-.149,0,0.071,0.071,0,0,1,.025-0.024,0.538,0.538,0,0,1,.421.024,0.6,0.6,0,0,1-.223,0,4.169,4.169,0,0,0-.025.464,0.39,0.39,0,0,1,.2.024,0.147,0.147,0,0,1,.124.122,0.124,0.124,0,0,1,.025.073h0.2c0.038-.128.158-0.108,0.322-0.1v0.1L2.6,24.886v0.733H2.65A0.58,0.58,0,0,1,2.8,25.155a0.107,0.107,0,0,1,.124-0.024,3.239,3.239,0,0,1,.5.44A0.563,0.563,0,0,1,3.567,25.4v0.073a0.576,0.576,0,0,0-.149.171H3.765a0.439,0.439,0,0,1,.025-0.22v0.22l0.57,0.049V25.643a1.218,1.218,0,0,0,.025-0.464c0-.36.017-0.69,0-1.026h0.1a12.551,12.551,0,0,0,0,1.539l0.248,0.024a2.118,2.118,0,0,0-.05.464H5.028a1.389,1.389,0,0,0,.025-0.391,0.124,0.124,0,0,1-.025-0.073A0.735,0.735,0,0,0,5.3,25.643,1.323,1.323,0,0,0,5.35,25.4a0.664,0.664,0,0,1,.173-0.244,4.465,4.465,0,0,1,.57.464,2.415,2.415,0,0,1,.3-0.44,0.069,0.069,0,0,1,.025.024,1.589,1.589,0,0,1,.05.489,2.987,2.987,0,0,0,.545,0V25.008H6.985a0.225,0.225,0,0,1-.2-0.024l0.223-.024V24.275H6.985a0.225,0.225,0,0,1-.2-0.024,0.738,0.738,0,0,1,.52.024,0.6,0.6,0,0,1-.223,0v0.708h0.05a0.214,0.214,0,0,1,.173.024,0.6,0.6,0,0,1-.223,0v0.709h0.05a0.27,0.27,0,0,1,.1-0.1v0.122L7.5,25.717V25.595h0.05v0.049a0.123,0.123,0,0,0-.025.073l0.223,0.024a3.631,3.631,0,0,0-.025.415H7.752V26.132a0.79,0.79,0,0,0,.05-0.415H8V25.668a0.69,0.69,0,0,1,.2-0.44A0.169,0.169,0,0,1,8.3,25.2a0.713,0.713,0,0,0,.248.22V25.179a3.665,3.665,0,0,1,0-.635c0.417,0,.773.1,1.164,0.122l-0.025-.44h0.1a0.379,0.379,0,0,1,.025.122,0.8,0.8,0,0,0-.025.342l0.966,0.1V24.642h0.025a2.136,2.136,0,0,0,.57.073,4.955,4.955,0,0,0,1.015.122V24.349a0.173,0.173,0,0,1-.173-0.024h0.05a0.513,0.513,0,0,1,.446.024,1.266,1.266,0,0,1-.248,0v0.708h0.025a0.226,0.226,0,0,1,.2.024,0.946,0.946,0,0,1-.223,0V25.79h0.025a0.226,0.226,0,0,1,.2.024,0.946,0.946,0,0,1-.223,0V26.3H13a17.729,17.729,0,0,0-.074-2.467,8.835,8.835,0,0,1,.074-1h0.2V23.1a0.978,0.978,0,0,1,.223.024V22.834h0.248v0.293h0.941V22.834h0.223v0.293H16.1a0.442,0.442,0,0,0,.025-0.146h0.1a0.151,0.151,0,0,1,.05-0.049v-0.1h0.173v0.1H16.5l0.2-.122V22.785H16.4a2.819,2.819,0,0,0-.867-0.024c-0.782,0-1.542-.079-2.378-0.073v-0.1c1.319,0,2.653-.082,3.789-0.073a0.735,0.735,0,0,1,.025-0.171,1.28,1.28,0,0,1-.173-0.171c0.032-.165.1-0.237,0.124-0.391l0.57-.073a0.422,0.422,0,0,1,.149.318,0.484,0.484,0,0,1-.05.44h0.074a0.09,0.09,0,0,1,.05-0.024c0,0.078-.018.094,0.124,0.1a0.807,0.807,0,0,1,.421-0.464V22.052a1,1,0,0,0-.4.024V21.93a2.8,2.8,0,0,0,0-.562h0.049v0.586a3.079,3.079,0,0,0,.916-0.024c0.049-.081,0-0.287.05-0.366L18.9,22.077a0.588,0.588,0,0,0-.718.342h0.347v0.073l0.149,0.024V22.345a0.619,0.619,0,0,0,.124-0.1h0.223a0.22,0.22,0,0,1,.173-0.22,0.207,0.207,0,0,1,.2-0.024,0.116,0.116,0,0,1-.025.073c-0.163.1-.252,0.023-0.248,0.293a0.236,0.236,0,0,1,.124.171H19.22v0.024a0.085,0.085,0,0,1-.049-0.024,0.25,0.25,0,0,1-.149-0.22l-0.248.025a1.292,1.292,0,0,0-.025.366,0.088,0.088,0,0,1,.025.049H18.328v0.073H18.105c0,0.166.046,0.193,0.05,0.366H18.4V23.1a0.633,0.633,0,0,0,.173-0.122v0.049a0.163,0.163,0,0,0-.1.147H18.5V23.2h0.05V23.1a0.541,0.541,0,0,0,.2-0.122v0.049a0.163,0.163,0,0,0-.1.147,0.627,0.627,0,0,0,.2.024,0.465,0.465,0,0,1,.223-0.024V22.834h0.248V23.2h0.124a14.275,14.275,0,0,0-.149-2.834c-0.038-.143-0.2-0.9-0.2-0.9a1.711,1.711,0,0,1,.594-0.146l0.025,0.146c-0.2.006-.182,0.084-0.372,0.1a0.126,0.126,0,0,0-.124-0.073,0.09,0.09,0,0,1-.049.024V19.56a2.35,2.35,0,0,1,.2.782,11.132,11.132,0,0,1,.149,2.492h0.2V23.2h0.149v0.049a3.5,3.5,0,0,0-.025.9c0,0.749-.052,1.349-0.049,2.1a1.405,1.405,0,0,0,.3-0.024V25.912a0.1,0.1,0,0,0,.049-0.1H20.087a0.214,0.214,0,0,1-.173-0.024l0.223-.024a3.768,3.768,0,0,0-.025-0.684,0.273,0.273,0,0,1-.223-0.024l0.223-.024V24.349h-0.05a0.214,0.214,0,0,1-.173-0.024,0.753,0.753,0,0,1,.52.024,0.946,0.946,0,0,1-.223,0v0.708h0.025a0.481,0.481,0,0,1,.124-0.024,1.265,1.265,0,0,0,.2-0.147V23.371a0.593,0.593,0,0,0-.2.024V23.347a1.278,1.278,0,0,0,.2-0.391h0.025a17.1,17.1,0,0,1,.074,1.881h0.025a0.668,0.668,0,0,1,.173-0.1v0.2a1.386,1.386,0,0,0-.049.586c-0.116.035-.129,0.09-0.124,0.244a0.446,0.446,0,0,0,.149.122V25.766h0.273a2.41,2.41,0,0,1,.1-0.489,0.457,0.457,0,0,1,.149-0.024,1.469,1.469,0,0,1,.347.391H21.8a0.9,0.9,0,0,1,.347-0.415v0.024c0.068,0.078.052,0.312,0.1,0.342a0.53,0.53,0,0,0,.322,0v0.146h0.1v0.464h0.149c0-.64-0.02-1.3-0.049-1.954h0.124c-0.026.6,0,1.264,0,1.857a2.045,2.045,0,0,0,.52-0.073,0.656,0.656,0,0,0,.025-0.293H23.6a0.517,0.517,0,0,0,.025-0.171q0.012-1.148.025-2.3a1.424,1.424,0,0,1,.817-1.026c0.231-.1.469-0.093,0.718-0.171a1.9,1.9,0,0,1,.52-0.171,0.32,0.32,0,0,1,.05.2,4.969,4.969,0,0,0-1.09.366,0.163,0.163,0,0,1,.025.1,0.444,0.444,0,0,0-.149-0.049,0.9,0.9,0,0,0-.471.464,0.287,0.287,0,0,0,.074.049l-0.025.073c-0.094-.006-0.086-0.049-0.124.024a1.36,1.36,0,0,0-.049.611h0.025a0.206,0.206,0,0,1,.248-0.1,0.347,0.347,0,0,1,.1.244,0.364,0.364,0,0,0-.124.146,0.121,0.121,0,0,1,.074.024,1.546,1.546,0,0,0,.025.44,0.089,0.089,0,0,1-.05.024l-0.1-.464H24.074a2.258,2.258,0,0,0-.124,1.173,1.411,1.411,0,0,0,.446.415,0.758,0.758,0,0,1,.4-0.44,1.228,1.228,0,0,0,.1.366,0.272,0.272,0,0,1,.149-0.024,0.745,0.745,0,0,1,.173-0.244q0.012-.574.025-1.148a0.3,0.3,0,0,1,.2-0.1,0.726,0.726,0,0,0,.2.024,2.68,2.68,0,0,1,.05.953h0.025v0.024h0.05c0.034-.054.223-0.342,0.223-0.342a0.616,0.616,0,0,1,.273,0L26.4,24.837l-0.025.244a3.469,3.469,0,0,0,.52.513V25.57a0.955,0.955,0,0,1,.421-0.415v0.025h0.025c0.024,0.189.063,0.321,0.074,0.489H27.79v0.44h0.248V25.692H28.012a0.09,0.09,0,0,1-.05.024V25.643h0.074V24.959H28.012a0.281,0.281,0,0,1-.2-0.024l0.223-.024V24.226H27.988a0.215,0.215,0,0,1-.173-0.024l0.223-.025V22.712h0.05a2.486,2.486,0,0,0,.768.1,1.643,1.643,0,0,1,.842.44,4.3,4.3,0,0,1,.669-0.342v0.122a1.043,1.043,0,0,0-.025.244,2.83,2.83,0,0,1-.149.757c-0.02.031-.037,0.031,0,0.049a0.169,0.169,0,0,0,.1.024v0.562h0.2V24.617a1.49,1.49,0,0,1-.05-0.611,7.954,7.954,0,0,0-.049-1.368,1.132,1.132,0,0,0,.272-0.049V22.516a0.468,0.468,0,0,0,.173-0.1h0.025a0.3,0.3,0,0,0-.1.2H30.91c0-.071-0.024-0.034,0-0.073a1.754,1.754,0,0,1,.644-0.024V22.467a0.1,0.1,0,0,1-.05-0.073h0.025a0.212,0.212,0,0,0,.173.122c-0.005-.082-0.053-0.059.025-0.1a4.251,4.251,0,0,0,1.536.1,1.123,1.123,0,0,0,.025-0.293,1.712,1.712,0,0,0-.57-0.318v0.049a0.449,0.449,0,0,0-.025.293l-0.1.024V22.248h0.025a1.331,1.331,0,0,1,.074-0.562H32.5a4.561,4.561,0,0,0-.991,0c-0.7,0-1.434-.076-2.2-0.073v-0.1c1.128,0,2.108-.048,3.22-0.049V21.393h0.2V21.368h0.025a3.317,3.317,0,0,1,.1-0.733h0.025v0.147a1.77,1.77,0,0,0-.05.66h0.248V21.393a0.373,0.373,0,0,1,0-.122,0.4,0.4,0,0,1-.149-0.342,0.555,0.555,0,0,0,.124-0.22,1.707,1.707,0,0,0,.545-0.073,0.516,0.516,0,0,1,.149.391,0.354,0.354,0,0,1-.074.391,0.3,0.3,0,0,1,.223.073L34.155,21H33.907c-0.032.06,0.011,0.017-.05,0.049V20.928c0.271,0.009.554,0.023,0.867,0.024a0.992,0.992,0,0,0,.025-0.293,0.318,0.318,0,0,0,.1-0.024v0.122c-0.1,0-.079.022-0.074,0.171A0.124,0.124,0,0,1,34.8,21H34.328a0.132,0.132,0,0,1-.074.1,0.088,0.088,0,0,1,.025.049c-0.049,0-.007-0.025-0.049,0a0.784,0.784,0,0,1-.074.342,0.121,0.121,0,0,0,.074-0.024,0.209,0.209,0,0,0,.025-0.122H34.6v0.1a0.12,0.12,0,0,0,.074-0.025,0.341,0.341,0,0,1,.173-0.22,1.126,1.126,0,0,1,.248,0l0.025-.1a0.437,0.437,0,0,1,.446-0.122v0.1H35.319a0.387,0.387,0,0,0-.1.122,0.259,0.259,0,0,0-.05.171,0.576,0.576,0,0,1,.2.293,0.121,0.121,0,0,1-.074-0.024,0.32,0.32,0,0,1-.223-0.366l-0.223-.024a1.093,1.093,0,0,0-.05.464l-0.446-.024V21.71a0.325,0.325,0,0,1,.074.269c-0.041.047-.054,0.127-0.1,0.171-0.07.069-.284,0.128-0.3,0.171a0.868,0.868,0,0,0,0,.171,8.2,8.2,0,0,0,1.61.024,8.659,8.659,0,0,0-.05-2c-0.085-.335-0.138-0.675-0.248-0.977-0.024-.067-0.134-0.123-0.149-0.171a1.2,1.2,0,0,0,.05-0.122c-0.023-.122-0.117-0.233-0.149-0.366h0.025V18.852l0.05,0.024a2.131,2.131,0,0,0,.5.928,1.067,1.067,0,0,1,.3-0.269h0.025c0.024,0.074.049,0.073,0.074,0.147H36.037a0.461,0.461,0,0,1-.322.2,0.169,0.169,0,0,0-.1-0.024,7.562,7.562,0,0,0,.52,2.125,2.591,2.591,0,0,1,.2.635H36.26a0.609,0.609,0,0,0-.273-0.024v1.954h0.892a3.664,3.664,0,0,0-.025-0.977c-0.068-.311.012-0.647-0.05-0.928q-0.012-.452-0.025-0.9c-0.06-.273.017-0.6-0.05-0.9a9.485,9.485,0,0,1-.1-1.2,2.74,2.74,0,0,0,.594-0.073,0.842,0.842,0,0,1,.273.024l0.446-.073,0.322,0.024c0.355-.067.729-0.052,1.09-0.122l0.322,0.024a5.168,5.168,0,0,1,.991-0.073V18.632a1.533,1.533,0,0,1-.347-0.073c-0.059-.188-0.141-0.5.173-0.513a2.366,2.366,0,0,1,.57-0.1,1.917,1.917,0,0,0,.372-0.171v1.1H41.412a0.717,0.717,0,0,0-.57-0.2q0.012,0.647.025,1.295a3.014,3.014,0,0,1-.149.293,3.031,3.031,0,0,0,.05.88q0.012,0.452.025,0.9l0.1,1.49h0.173a0.435,0.435,0,0,1,.05-0.22,0.277,0.277,0,0,0,.074.22,0.987,0.987,0,0,1,.4-0.024V23.469a0.253,0.253,0,0,1-.149-0.147h0.025a0.34,0.34,0,0,1,.173.342,2.156,2.156,0,0,0-.05.782c0.308-.007.672-0.024,1.016-0.024a2.034,2.034,0,0,0-.05-0.611h0.074V21.026h0.05a2.054,2.054,0,0,0,.718.1,1.681,1.681,0,0,1,1.016.586,1.443,1.443,0,0,0,.694-0.489H44.978a0.15,0.15,0,0,0-.049-0.049,0.744,0.744,0,0,0-.025-0.366,0.458,0.458,0,0,1,.149-0.024l-0.594-7.109h-0.1a1.129,1.129,0,0,1,0-.44,0.358,0.358,0,0,0,.05-0.244,2.574,2.574,0,0,1-.05-0.513H44.334a0.61,0.61,0,0,1-.173.171,0.808,0.808,0,0,0-.1-0.1,0.26,0.26,0,0,0,.124-0.2H44.112a0.53,0.53,0,0,1-.223.147,0.365,0.365,0,0,0-.05-0.147h0.05a1.478,1.478,0,0,1,.2-0.024,0.913,0.913,0,0,1,.248-0.122l-0.1-1.2H44.161a5.58,5.58,0,0,0-.025-1.1H44.112V9.935a0.163,0.163,0,0,0-.05.122l-0.124-.024-0.025-.049a0.639,0.639,0,0,0,.124-0.366h0.074a0.7,0.7,0,0,0-.05-0.244c-0.067,0-.065.02-0.1-0.073a0.458,0.458,0,0,0-.05-0.342l0.149-.024V8.884l-0.2-2.125H43.74c0-.175-0.008-0.332,0-0.44,0.091-.017.068,0,0.1-0.073a0.849,0.849,0,0,1-.025-0.513,0.255,0.255,0,0,0,.025.147A0.174,0.174,0,0,1,43.963,5.879ZM45.6,19.609a0.863,0.863,0,0,1-.025.366V19.609H45.325V19.56a0.671,0.671,0,0,0,.124-0.464,0.085,0.085,0,0,1-.05-0.024l0.223-.024a0.289,0.289,0,0,0,.074.049,2.668,2.668,0,0,0,.124.513H45.6ZM45.325,19.1h0.05v0.024A0.085,0.085,0,0,1,45.325,19.1Zm-0.1.049h0.05v0.024A0.085,0.085,0,0,1,45.226,19.145ZM48.5,19.389h0.05v0.024A0.085,0.085,0,0,1,48.5,19.389Zm-2.947.708a0.1,0.1,0,0,1,0,.122V20.1Zm-11.666.293a0.773,0.773,0,0,1,0,.464V20.391Zm-0.025.855a0.088,0.088,0,0,1,.025.049H33.858V21.246Zm-0.025.049a0.088,0.088,0,0,1,.025.049H33.833V21.295ZM17.759,22.321a0.088,0.088,0,0,1,.025.049H17.759V22.321Zm-0.025.049a0.087,0.087,0,0,1,.025.049H17.734V22.37Zm8.05,0.366a2.237,2.237,0,0,0-.05-0.244h0.05a1.156,1.156,0,0,1,.074.244,0.288,0.288,0,0,1-.173.049,0.342,0.342,0,0,1-.025-0.1h0.025A0.1,0.1,0,0,0,25.783,22.736ZM3.715,25.13h0.05a0.44,0.44,0,0,1-.025.22A0.255,0.255,0,0,0,3.715,25.2a0.149,0.149,0,0,1-.05.049V25.2A0.284,0.284,0,0,0,3.715,25.13Zm-0.074.122c0.021,0.046.012,0.018,0,.073H3.616Zm-0.05.073c0.021,0.046.012,0.018,0,.073H3.567Z" transform="translate(0 0.016)"/>
</svg>
