<svg xmlns="http://www.w3.org/2000/svg" width="79.906" height="40" viewBox="0 0 79.906 40">
  <defs>
    <style>
      .cls-1 {
        fill: #fff;
        fill-rule: evenodd;
      }
    </style>
  </defs>
  <path id="Color_Fill_1" data-name="Color Fill 1" class="cls-1" d="M39.468,9h0.193V9.1A0.33,0.33,0,0,1,39.468,9Zm-0.29.489h0.194C39.256,9.646,39.331,9.609,39.178,9.489Zm0.581,0a0.354,0.354,0,0,1,.1.2h-0.1v-0.2Zm-0.1,2.053v0.391h0.194a0.646,0.646,0,0,1,.387-0.1v0.2a2.191,2.191,0,0,0-.58,0c0.009,1.208-.014,1.921,0,3.129a1.213,1.213,0,0,0,.387-0.1v-0.1h-0.1a0.777,0.777,0,0,0-.193-0.293h0.29a0.825,0.825,0,0,1,.1-0.489v0.391a0.464,0.464,0,0,0,.29-0.1c0.129-.206.194-0.693,0.29-0.88-0.281.006-.134,0.094-0.29,0h-0.1V13.5h0.1V13.4a2.1,2.1,0,0,1,.774-0.1h0.1c-0.394.707-.1,1.186-0.193,2.151h0.1c0.164-.42,1.442-0.493,1.838-0.2H41.4c-0.011.379,0.063,0.29-.484,0.293V15.258h-0.58c-0.045,1.661.022,3.558,0.871,4.6a0.637,0.637,0,0,1,.1-0.391v0.2a1.627,1.627,0,0,0,.194.978,0.648,0.648,0,0,0,.387.1v-0.2a0.331,0.331,0,0,1-.193-0.1,0.331,0.331,0,0,0,.193-0.1,0.818,0.818,0,0,1-.387-0.293h0.58v0.1c-0.258.167-.107,0.1,0.1,0.293a0.981,0.981,0,0,0-.193.293h0.29a2.479,2.479,0,0,1,.193-0.489,1.839,1.839,0,0,0,.194.978,0.455,0.455,0,0,1,.484-0.2v0.391a1.978,1.978,0,0,1-.58,0v0.391h0.193c0.3-.617.826,0,1.161-0.489h-0.1l0.1-.2h-0.1a1.681,1.681,0,0,1-.871-0.391h0.1a1.037,1.037,0,0,0,.58.1V20.049h-0.1a0.336,0.336,0,0,1-.1.2V19.951a1.625,1.625,0,0,0-.58.1V19.364h0.1v0.489h0.774V19.462c-0.25-.027-0.172.046-0.194-0.391a6.032,6.032,0,0,0,.29-1.271h0.387v0.1h0.1v0.293a0.8,0.8,0,0,1,.484.1c0.268,0.131.216,0.259,0.484,0.391a0.649,0.649,0,0,1,.484-0.2,1.136,1.136,0,0,1,.194.684c-0.152.185-.183,0.2-0.1,0.391a0.49,0.49,0,0,0,.29.1v0.587a1.216,1.216,0,0,1-.387-0.1v0.2a0.935,0.935,0,0,0-.1.489h0.967a0.529,0.529,0,0,1,.29-0.391l-0.1.293h0.29V20.44h0.58V20.049a1.213,1.213,0,0,1,.387.1l-0.1.2h0.1a0.441,0.441,0,0,0,.484,0v0.293c1.012-.013,3.488-0.334,3.676-0.2,0.293,0.356.094,1.474,0.29,2.053-0.253.038-.127-0.073-0.194,0.2a4.7,4.7,0,0,0,2.418.293,11.119,11.119,0,0,1,0-1.662,2.059,2.059,0,0,1,.677-0.1V20.831h0.484c0.153,0.524.7,0.432,1.354,0.391,0.157,0.1.618,0.094,0.774,0.2a0.664,0.664,0,0,1,.1.391,4.821,4.821,0,0,1,2.128.2H58.138v0.978a11.532,11.532,0,0,0,3.87-.391c0.134-.051.284-0.351,0.387-0.391l0.967,0.1c0.718-.164,1.672-0.41,2.418-0.587l13.833-.293c-0.013-.749-0.185-3.173.1-3.618V22a0.822,0.822,0,0,1,.194.587,38.43,38.43,0,0,1-1.354,4.6c-0.176.546-.392,2.354-0.774,2.542h-2.9a4.846,4.846,0,0,1-1.838.1H68.489v0.782a5.911,5.911,0,0,1-1.645.1V29.924a3.936,3.936,0,0,0-1.161-.1c-0.523.339-2.158,0.111-2.9,0.1a0.476,0.476,0,0,1-.1.293,4.929,4.929,0,0,1-1.935.1v-0.1h-0.1V29.924l-34.534.391-12.576.1c-0.275-.112-0.483-0.582-0.774-0.684a4.964,4.964,0,0,0-2.225.2c-1.257.276-2.32,0.165-3.482,0.391a1.931,1.931,0,0,1,0,.587,0.49,0.49,0,0,1-.29.1,2.873,2.873,0,0,1-.387-0.489,0.354,0.354,0,0,0,.1-0.2,1.012,1.012,0,0,1-.58-0.1,0.354,0.354,0,0,1-.1-0.2l0.58-.2a2.031,2.031,0,0,1,.29-0.88l0.193,0.1a2.478,2.478,0,0,1,.1.782l0.58-.1V28.458a4.725,4.725,0,0,0-1.354-.1,1.775,1.775,0,0,0-.871-0.1L5.127,30.12H3.676L3.482,28.164H2.418a5.017,5.017,0,0,0-.58-2.053,1.532,1.532,0,0,1-.1.782V26.8a2.686,2.686,0,0,1-.1-1.173,6.489,6.489,0,0,0,.387-0.88v0.293c1.069,0.02,3.357.1,5.127,0.1a1.041,1.041,0,0,1,.1-0.587v0.587H8.8a2.125,2.125,0,0,1,.1.684H9.19V25.231a1.762,1.762,0,0,0,.484.1,3.228,3.228,0,0,0,1.258-1.076,1.306,1.306,0,0,0,.1-0.684c3.652-.067,8.344-0.172,11.705-0.2a1.694,1.694,0,0,1,.193-0.88H21.669V22.4a3.314,3.314,0,0,0,2.128-.489,2.226,2.226,0,0,0,.1-0.489h0.1a2.8,2.8,0,0,0,.29.88c0.149-.189.238-0.272,0.387-0.2h0.1a1.91,1.91,0,0,0-.194.88h0.194V22.4h0.29V23.08c-0.2.027-.322,0.07-0.387,0.489h0.58V22.4h0.774V22.1c-0.275,0-.038.077-0.29-0.1v-0.1h0.1a1.268,1.268,0,0,1,.677-0.1V22.2h0.1v0.1H26.8V22.2a9.9,9.9,0,0,1,0-1.858H26.7v0.1c-0.066.075-.127,0.218-0.193,0.293a2.632,2.632,0,0,0-.1-0.978,6,6,0,0,1-1.161.1v-0.1a2.871,2.871,0,0,0,.29-0.587v0.489h0.967v-0.2a1.449,1.449,0,0,1-.1-0.782,0.593,0.593,0,0,0,.194-0.2h0.1v0.2a1.994,1.994,0,0,1,.1.978,9.434,9.434,0,0,0,3.1-.978c1.561-.592,3.028-0.927,4.546-1.564a35.656,35.656,0,0,1,3.869-1.662c-0.072-.085-0.122-0.11-0.193-0.2a0.331,0.331,0,0,0,.193-0.1,1.014,1.014,0,0,1-.871-0.1H38.21V13.693c0.314-.081.148,0.048,0.29-0.2a3.046,3.046,0,0,1-.1-1.858,0.354,0.354,0,0,1,.1.2c0.1,0.289.1,1.364,0.194,1.858h0.774V13.5a5.312,5.312,0,0,1,0-1.467,0.7,0.7,0,0,1-.581-0.2l0.581,0.1V11.542a0.62,0.62,0,0,1-.387-0.1h0.387c-0.048-.413.008-0.836,0-1.662h0.1v0.1a4.457,4.457,0,0,1,.1,1.564c0.306,0,.13-0.166.29,0.1h-0.29Zm-0.484-1.271a0.354,0.354,0,0,1,.1.2h-0.1v-0.2Zm0.581,0.1h0.193v0.1A0.33,0.33,0,0,1,39.758,10.369Zm-0.677.489c0.034,0.029.193,0.051,0.1,0.2C39.07,11.006,38.877,10.88,39.081,10.858Zm0.871,0a0.354,0.354,0,0,1,.1.2h-0.1v-0.2Zm-1.064,1.858a0.354,0.354,0,0,1,.1.2h-0.1v-0.2Zm1.161,0a0.371,0.371,0,0,1,.29.1C40.1,12.949,40.215,12.851,40.048,12.716ZM41.4,13.3a0.354,0.354,0,0,1,.1.2H41.4V13.3Zm-3.1.489,0.1,1.271a0.465,0.465,0,0,1,.29.1c-0.314.081-.148-0.048-0.29,0.2h0.1a0.951,0.951,0,0,1,.871-0.293,0.825,0.825,0,0,0-.1-0.489c-0.04.35,0.046,0.246-.194,0.391v-0.1a1.445,1.445,0,0,0,.387-0.978Zm1.451,0.587a0.354,0.354,0,0,1,.1.2h-0.1v-0.2Zm0.387,0.293V15.16h0.194v-0.1a0.5,0.5,0,0,0,.1-0.293Zm-1.354,6.062h0.29q0.048-2.786.1-5.573h-0.1a1.928,1.928,0,0,1-.677.391A30.352,30.352,0,0,1,38.791,20.733Zm0.871-5.475a4.624,4.624,0,0,0,.29,1.173h0.194v-0.1c-0.085-.178-0.059-0.616-0.194-0.88,0.239-.127.066,0.042,0.194-0.2H39.952s-0.019.382-.1,0.2v-0.2H39.661Zm0.774,0.293a0.5,0.5,0,0,1,.1.293h-0.1V15.551Zm-13.253,4.2v0.489c0.987-.04,1.3,0,2.322,0v1.369H29.7V19.951a0.8,0.8,0,0,1,.1-0.587v2.249h0.58v1.565a2.062,2.062,0,0,0,.677.1,0.49,0.49,0,0,1,.29-0.1,7.154,7.154,0,0,1,.29-2.151,2.078,2.078,0,0,0,.1.978V21.027a1.429,1.429,0,0,1,.871.2,0.621,0.621,0,0,1,.484.587,1.651,1.651,0,0,1,1.064-.2,7.11,7.11,0,0,1,.29-1.173,0.864,0.864,0,0,0,.194.88,0.348,0.348,0,0,0,.194.1,0.476,0.476,0,0,1,.1-0.293,2.549,2.549,0,0,0,.194,1.467v-0.1a1.354,1.354,0,0,0,.1-0.587,1.587,1.587,0,0,0,.774.2L35.7,18.484c1.23-.62,1.669-0.765,2.805,0V17.507a5.225,5.225,0,0,1-.194-1.858H38.114c-0.744.675-2.017,0.85-3,1.271-1.764.756-3.6,1.337-5.514,2.053A9.189,9.189,0,0,1,27.183,19.756ZM41.5,18.778l-0.1.489h-0.1V18.778h-0.29v-0.2c0.239-.127.066,0.042,0.194-0.2-0.239-.127-0.066.042-0.194-0.2l0.194,0.1v-0.1c0.067,0.1.124,0.391,0.194,0.489a1.372,1.372,0,0,1,.193-0.587c-0.239-.127-0.066.042-0.193-0.2,0.709-.466-0.272-1.584.484-2.151v-0.1h0.1a1.188,1.188,0,0,0,0,.782,0.336,0.336,0,0,1,.1-0.2v0.293c-0.367.243,0.015,1.848,0,1.858a1.458,1.458,0,0,0-.387,0,0.378,0.378,0,0,0-.194.293h0.194a0.594,0.594,0,0,1,.193-0.2v0.2h0.1v0.1H41.5Zm-1.258,1.369a0.62,0.62,0,0,1-.387-0.1h0.387a7.911,7.911,0,0,1-.1-1.564l-0.484.1v-0.2h0.484a2.227,2.227,0,0,1-.194-0.978,0.465,0.465,0,0,1-.29-0.1c0.282-.183-0.043-1.182-0.29-1.467a20.528,20.528,0,0,1-.1,4.889h0.967v-0.2c-0.246-.142-0.109.021-0.193-0.293h0.1a0.337,0.337,0,0,0,.1.2V20.147Zm-0.29-3.618,0.1,0.293h0.1V16.529H39.952ZM41.113,17.9h0.193v0.2H41.113V17.9Zm1.064,0.88c-0.08.317,0.047,0.149-.193,0.293v-0.2c0.063-.084.129-0.307,0.193-0.391a0.844,0.844,0,0,0,.387.293H42.177Zm-2.322-.2a0.5,0.5,0,0,1,.1.293h-0.1V18.582Zm-1.354.1a0.827,0.827,0,0,0,.1.489A0.825,0.825,0,0,0,38.5,18.68Zm1.935,2.053a1.627,1.627,0,0,1,.58.1V20.538a5.029,5.029,0,0,1-.58-1.662h-0.1v0.587A2.982,2.982,0,0,1,40.435,20.733Zm0.58-1.858a0.5,0.5,0,0,1,.1.293h-0.1V18.876Zm1.161,0.2a0.288,0.288,0,0,1,0,.391V19.071Zm-0.58.1c0.28,0.125.2-.111,0.29,0.293-0.293-.019-0.066-0.038-0.29.2V19.169Zm-1.935.391a0.465,0.465,0,0,1,.29.1h-0.1a0.348,0.348,0,0,1-.194.1v-0.2Zm2.515,0.1H42.37a1.417,1.417,0,0,0,.1.489H42.273v-0.2A0.5,0.5,0,0,1,42.177,19.658Zm-17.219.1h0.193v0.1A0.33,0.33,0,0,1,24.958,19.756Zm1.741,0v0.2c0.2,0.152.276,0.342,0.484,0.489A0.867,0.867,0,0,0,26.7,19.756Zm14.8,0a0.8,0.8,0,0,1,.484.1A0.8,0.8,0,0,1,41.5,19.756Zm2.322,0.391a3.562,3.562,0,0,0-.1.684h0.194c0.1-.257.1,0.065,0.193-0.2a0.221,0.221,0,0,0,0-.293A1.117,1.117,0,0,0,43.821,20.147Zm-9.383.1c0.108,0.162.171,0.1,0,.2v-0.2Zm8.8,0h0.194l-0.194.391h-0.1v-0.2A0.354,0.354,0,0,0,43.241,20.244Zm-1.741.1h0.194v0.1A0.331,0.331,0,0,1,41.5,20.342Zm-14.607.1a3.987,3.987,0,0,1,0,.978h0.1v-0.2A0.761,0.761,0,0,0,26.892,20.44Zm1.354,1.173V21.124a3.153,3.153,0,0,0-.967-0.1v0.1h-0.1a1.024,1.024,0,0,0,.1.391A2.045,2.045,0,0,0,28.247,21.613Zm0.1,0a6.06,6.06,0,0,1,1.064,0V21.222a1.86,1.86,0,0,0-.871-0.2A1.514,1.514,0,0,0,28.343,21.613Zm17.316-.587V22.3h0.29V21.711H45.756a1.357,1.357,0,0,1,.194-0.684h-0.29Zm-16.542.2a0.354,0.354,0,0,1,.1.2h-0.1v-0.2Zm-27.57.1a0.354,0.354,0,0,1,.1.2h-0.1v-0.2Zm24.958,0a0.288,0.288,0,0,1,0,.391V21.32Zm26.022,0a0.821,0.821,0,0,1,0,.782A4.237,4.237,0,0,1,52.527,21.32ZM1.741,22.689l-1.644.1L0,21.809a5.69,5.69,0,0,0,1.645-.2v0.2A1.831,1.831,0,0,1,1.741,22.689Zm74.486-1.076c-0.5.32-3.323,0.109-4.16,0.1v0.2h0.194c0.505-.273,4.32.188,4.643-0.293H76.421C76.25,21.706,76.42,21.635,76.227,21.613Zm0.774,0v0.2h0.774v-0.2H77Zm0.871,0v0.2a2.417,2.417,0,0,0,.484-0.2H77.872Zm0.58,0a0.507,0.507,0,0,0,.58,0h-0.58Zm0.677,0a0.385,0.385,0,0,0,.484,0H79.129Zm-7.932.1c-0.49.315-3.241,0.109-4.063,0.1V22h0.387c0.458-.269,3.841.184,4.16-0.293H71.2Zm-44.3.1,0.1,0.293h0.1A0.371,0.371,0,0,0,26.892,21.809Zm0.29,0.489H27.57a0.476,0.476,0,0,0-.1-0.293,1.121,1.121,0,0,0-.29-0.2V22.3Zm4.45-.2,0.1,0.391h0.1V22.2Zm32.213,0.2c-0.075.067-.216,0.128-0.29,0.2h0.387A0.336,0.336,0,0,0,63.845,22.3Zm-28.44.293v0.2C35.561,22.671,35.524,22.746,35.405,22.591Zm-33.664.1a0.664,0.664,0,0,1,0,.684V22.689Zm29.117,0a0.62,0.62,0,0,1,.387.1A0.62,0.62,0,0,1,30.859,22.689Zm30.568,0.1c0.166,0.086.124,0.087,0.29,0h-0.29Zm-25.925.1a0.647,0.647,0,0,1-.387.1v0.2h-0.1v0.1h0.194a3.846,3.846,0,0,1,.967,0V22.982h-0.1v-0.1H35.5Zm25.054,0.1a2.6,2.6,0,0,1-1.161.1v0.2h0.1a7.929,7.929,0,0,1,1.258-.2A0.348,0.348,0,0,0,60.556,22.982Zm-1.935.1c-0.115.076-.466,0.117-0.58,0.2a1.553,1.553,0,0,0,1.258-.2H58.622Zm-5.9.1v0.2c0.567-.1,2.131.116,2.612-0.2H52.721Zm4.837,0a0.281,0.281,0,0,0,.387,0H57.557Zm-55.719.391a1.306,1.306,0,0,1,.1.684h-0.1v-0.2a0.331,0.331,0,0,1-.193-0.1A0.392,0.392,0,0,0,1.838,23.569Zm34.148,0V23.96h0.1a0.348,0.348,0,0,1,.194-0.1v-0.2h-0.1A0.348,0.348,0,0,0,35.986,23.569Zm23.7,0c0.166,0.086.124,0.087,0.29,0h-0.29Zm-45.272.1c-0.083.063-.3,0.131-0.387,0.2,0.389,0.013.529,0.053,0.677-.2h-0.29Zm0.387,0v0.2c0.734,0,1.056-.013,1.645,0v-0.2H14.8Zm3.386,0a0.281,0.281,0,0,0,.387,0H18.186Zm0.484,0c0.166,0.086.124,0.087,0.29,0H18.67Zm1.645,0a0.347,0.347,0,0,0,.194.1A0.348,0.348,0,0,0,20.314,23.667Zm0.967,0c0.166,0.086.124,0.087,0.29,0h-0.29Zm-10.157.1a0.507,0.507,0,0,0,.581,0H11.125Zm23.99,0v0.2h0.193v-0.1h0.1v-0.1h-0.29Zm-9.577.2a0.348,0.348,0,0,0,.194.1A0.348,0.348,0,0,0,25.538,23.96Zm-23.6.391a0.5,0.5,0,0,1,.1.293h-0.1V24.351Zm4.837,0H6.965v0.1H6.771v-0.1Zm-5.127.1c0.108,0.162.171,0.1,0,.2v-0.2Zm5.32,0H7.158v0.1A0.331,0.331,0,0,1,6.965,24.449Zm-4.837.293a0.354,0.354,0,0,1,.1.2h-0.1v-0.2Zm0.677,0.489v0.2a1.241,1.241,0,0,0,.677-0.1Zm0.871,0a2.6,2.6,0,0,0,1.935.1A15.229,15.229,0,0,1,3.676,25.231Zm3,0.1a3.067,3.067,0,0,0,1.838,0H6.675Zm-3.386.391a0.348,0.348,0,0,0,.193.1A0.347,0.347,0,0,0,3.289,25.72Zm0.387,0c0.166,0.086.124,0.087,0.29,0H3.676Zm4.353,2.738a4.292,4.292,0,0,0,.1,1.271c0.782-.2,3.036.117,3.773-0.391C10.661,29.076,9.434,28.646,8.029,28.458Z"/>
</svg>
