<svg xmlns="http://www.w3.org/2000/svg" width="80" height="40" viewBox="0 0 80 40">
  <defs>
    <style>
      .cls-1 {
        fill: #fff;
        fill-rule: evenodd;
      }
    </style>
  </defs>
  <path id="Color_Fill_1" data-name="Color Fill 1" class="cls-1" d="M47.721,20.793a16.573,16.573,0,0,0,2.889-.2c0.563-.125,1.386.161,1.793-0.1l-1-.1V19.9l0.3-.1V19a2.7,2.7,0,0,1,.4-0.2V18.7a0.46,0.46,0,0,0-.1-0.4,0.654,0.654,0,0,0,.2-0.3,1.053,1.053,0,0,1-.6-0.1,8.868,8.868,0,0,0,1.893-.4c0.064-.455.223-0.541,0.3-0.994a2.124,2.124,0,0,1,1.494.7,0.507,0.507,0,0,0-.1.3h0.5l-0.1-.5a0.342,0.342,0,0,0,.2-0.1,3.937,3.937,0,0,0,.8.1v0.1a0.507,0.507,0,0,0-.1.3,17.979,17.979,0,0,1,1.893.4h6.276v0.4c-1.468-.007-3.083-0.1-4.682-0.1H58.481a4.851,4.851,0,0,1-2.889.4v0.2h0.8c0.331-.183.926,0.237,1.494,0.3-0.123.571-.588,0.427-0.7,1.193a22.568,22.568,0,0,0,4.683-.4c1.377-.3,2.832-0.027,4.085-0.3h1.395c1.756-.386,4.078-0.2,5.778-0.6,0.256,0.482,3.417,2.171,4.085,2.386a16.693,16.693,0,0,1,.9-3.381l0.3-.2c0.1-.3-0.237-1.028,0-1.392a36.971,36.971,0,0,0,.4,5.17l1.2-.1a2.326,2.326,0,0,1-.4.7L79,24.173a10.059,10.059,0,0,0-.8,2.287h0.5v0.1c-0.246.129-.068-0.043-0.2,0.2h0.1a0.608,0.608,0,0,1,.2-0.2v0.2H78.7c-0.175.132-.516,0.166-0.7,0.3a6.47,6.47,0,0,0-.6,1.492,6.289,6.289,0,0,1-2.59,2.784c-1.838,1.105-4.438,1.062-6.874,1.591-0.941.2-1.954,0.019-2.79,0.2-1.468.316-3.108-.1-4.483,0.2H56.189a29.692,29.692,0,0,1-5.48.1H22.316c-3.322.78-6.871,1.376-10.261,2.088v0.3c-0.594.039-.929,0.183-1.594,0.2v0.2a1.032,1.032,0,0,1,.2.6,0.608,0.608,0,0,0-.2.2,2.349,2.349,0,0,1-.7-0.8c-0.083-.057-1.159-0.146-1.3-0.2a0.332,0.332,0,0,0,0-.3,7.7,7.7,0,0,0,1.2-.7,1.212,1.212,0,0,1-.3-0.994h0.4a2.087,2.087,0,0,1,.5.994,0.482,0.482,0,0,0,.3-0.1,5.429,5.429,0,0,0,.2-1.293l-0.3-.1a4.831,4.831,0,0,0-1.893-.1,15.41,15.41,0,0,1-.4,3.281h-0.9a3.737,3.737,0,0,0-.6-0.2c-0.057-.715-0.8-3.047-0.6-3.082H5.28c0.02-.6-0.013-1.761-0.4-1.989a0.608,0.608,0,0,1-.2.2v-0.2h0.1v-0.1h0.3l-0.1-.994a0.482,0.482,0,0,1-.3-0.1,0.867,0.867,0,0,0,.2-0.895h-0.1v-0.1a1.335,1.335,0,0,0-.4.2v-0.2h0.1v-0.1h0.3l-0.1-.994h-0.2a0.608,0.608,0,0,1-.2.2v-0.2h0.1v-0.1h0.3a1.713,1.713,0,0,0-.4-1.094c0.257-.149.211-0.3,0.2-0.7a2.508,2.508,0,0,1-.5-0.2h0.2a0.743,0.743,0,0,0,.2-0.6,1.292,1.292,0,0,1-.7-0.1c0.324-.192.161-0.422,0.1-0.8h0.7v0.8h0.2v-0.6c-0.425-.659-0.278-2.558-1.1-2.784a10.08,10.08,0,0,1-3.088.8v-0.2a4.994,4.994,0,0,1-.5-1.79H0.1v-0.1a10.542,10.542,0,0,0,3.088-.8c0.2-.147-0.056-0.142.3-0.2a24.245,24.245,0,0,0,1.3,4.773,14.752,14.752,0,0,0-.1-1.889,27.091,27.091,0,0,0,4.682,0V21.29h1.993v-0.2a0.844,0.844,0,0,0,.2-0.7c-2.121-.006-4.016-0.1-6.376-0.1V20.1c1.851,0,3.709-.194,5.28-0.1a1.283,1.283,0,0,1,0-.5h-0.1v0.1c-0.077.191-.1-0.2-0.1-0.2,0.445-.283-0.117-0.512,1-0.5a8.556,8.556,0,0,1,0,1.094h0.1a0.36,0.36,0,0,1,.2-0.1V15.821a27.38,27.38,0,0,0,4.682-.994c3.965-1.088,8.1-1.391,11.955-2.486,1.614-.458,3.275-0.565,4.782-0.994a3.554,3.554,0,0,0,1-.2,0.358,0.358,0,0,0,.1-0.2,1.071,1.071,0,0,1-.1-0.994h2.092a2.661,2.661,0,0,0,.3,1.094,5.883,5.883,0,0,0,1.494,1.492v-1.69h-0.1v-0.1h0.4a0.732,0.732,0,0,0,.7.6,1.64,1.64,0,0,1,.8-0.6v0.4h0.3v0.2h0.1c0.1,0.1-.1.1-0.1,0.1v0.1l-0.2-.1v0.1a0.506,0.506,0,0,0-.1.3,1.634,1.634,0,0,1,.1.895h0.8l0.2,0.895h-0.2c-0.154.07-.014,0.013-0.3,0v-0.2a1.032,1.032,0,0,0,.2-0.6h-0.6c-0.186.421-.666,1.321-0.7,1.491a0.7,0.7,0,0,0,.2.895h-0.3v0.895a2.065,2.065,0,0,1,.6,0v-0.4a0.507,0.507,0,0,1-.3-0.5,1.83,1.83,0,0,1,.6-0.1,1.94,1.94,0,0,1-.2.994h0.3a7.075,7.075,0,0,1,1.494-.1c0.083-.323-0.049-0.152.2-0.3v0.3h0.7V5.878c0-.826-0.216-3.371.1-3.878V16.02h0.1a2.713,2.713,0,0,1,1.2-.1,1.785,1.785,0,0,1,.6-0.8l2.092-.2v0.2c-0.408.63,0.267,1.025,0.4,1.392l-0.3,1.492,0.5,1.094a1.412,1.412,0,0,1,.4-0.1v0.1a0.376,0.376,0,0,0-.3.4A2.928,2.928,0,0,1,47.721,20.793ZM36.663,8.761h0.6a2.869,2.869,0,0,1,.1.895,7.653,7.653,0,0,1,.2,1.193h-1.1v-0.1C36.683,10.515,36.493,9.294,36.663,8.761Zm-2.291,2.287a2.392,2.392,0,0,0,1.395-.3c-0.589-.145-1.04-0.513-1.594-0.7v0.3A1.463,1.463,0,0,1,34.371,11.048Zm1.494-.5v-0.5h-0.2c-0.162.1-.636,0.1-0.8,0.2C35.325,10.317,35.412,10.475,35.866,10.551Zm0.1,0.6a7.8,7.8,0,0,1-1.494.4,42.244,42.244,0,0,1,1.2,4.773,0.359,0.359,0,0,0,.1-0.2,12.374,12.374,0,0,0,1.893-3.48h-0.1c-0.127.23-.182,0.086-0.5,0.2v-0.6c0.226,0.04.108,0.091,0.3,0C36.866,11.907,36.64,11.285,35.965,11.148Zm2.092,0V12.44h0.1v-0.1A0.829,0.829,0,0,0,38.057,11.148Zm1.3,0a3.669,3.669,0,0,0-.1,1.094h0.1v0.1h0.2v-0.2C39.425,11.934,39.483,11.354,39.352,11.148ZM11.656,19.4l0.1,0.6h0.4a1.729,1.729,0,0,1,.6,0,1.638,1.638,0,0,1,.2-0.3v0.7h-0.8V21.29c1.559,0,3.54,0,5.38,0v-0.2a3.96,3.96,0,0,1-1-1.79,0.334,0.334,0,0,0,.3,0V19.2c-0.323-.082-0.152.049-0.3-0.2h1c1.055,0.678,1.84.531,1.893,2.287,1.079,0,1.564,0,2.59,0v0.8h0.2c-0.029-1.4.441-1.773,1.594-1.989a2.959,2.959,0,0,0,.1,1.293,3.614,3.614,0,0,0,1.494.1,19.645,19.645,0,0,1,2.889-.3v-0.3c1.03-.14,2.423.3,3.985,0v-0.2a16.683,16.683,0,0,0,.7-2.884c0.645-.357,1.63-0.487,2.391-0.8a1.089,1.089,0,0,1,.2-0.3c-0.455-1.661-1-3.427-1.395-5.17h-0.1c-1,.63-3.911.723-5.28,1.094-3.7,1-7.772,1.45-11.457,2.486-1.14.32-4.989,1.1-5.679,0.895V19.2h0.1v0.1a8.187,8.187,0,0,0,1.1-.1v0.2h-1.2Zm28.991-7.656h0.2a1.659,1.659,0,0,0,.1.994h-0.4v-0.1C40.611,12.5,40.559,12.011,40.648,11.744Zm-2.192.5a1.794,1.794,0,0,1-.3.4v0.2h0.2a2.421,2.421,0,0,1,1.1-.1v-0.1A1.148,1.148,0,0,0,38.456,12.242Zm-0.6.7-1.793,3.381h1.3a2.714,2.714,0,0,1,1.2-.1,1.924,1.924,0,0,0,.2-0.895h-0.1v0.1c-0.077.119-.119,0.479-0.2,0.6v-0.7a1.06,1.06,0,0,0,.3-1.094C38.191,13.982,38.373,13.214,37.858,12.938Zm1.594,2.883a0.359,0.359,0,0,1,.1.2h-0.1v-0.2Zm-3.587.8-0.2.4h0.4l1.1-.3v-0.1h-1.3ZM54,16.716a0.385,0.385,0,0,0,.3.2A1.154,1.154,0,0,0,54,16.716Zm-0.1.3a0.359,0.359,0,0,0,.2.1A0.36,0.36,0,0,0,53.9,17.014Zm-0.1.3c0.171,0.088.127,0.088,0.3,0H53.8ZM52.9,18.8a0.48,0.48,0,0,1,.1-0.3c0.143,0.247.167,0.235,0.4,0.1a0.39,0.39,0,0,1-.4-0.3,0.506,0.506,0,0,0,.1-0.3,1.828,1.828,0,0,0-.7.1c-0.087.074-.112,0.125-0.2,0.2l0.1,0.3A3.489,3.489,0,0,0,52.9,18.8Zm25.7,2.685c0.02-.754.069-2.318-0.3-2.784a7.176,7.176,0,0,1-.9,2.884h0.8A0.672,0.672,0,0,1,78.605,21.489ZM12.852,18.8c0.111,0.165.176,0.106,0,.2V18.8ZM53,18.9v0.8a2.465,2.465,0,0,0,.9.2V19.8a0.9,0.9,0,0,1-.5-0.5c0.008,0.4.163,0.237-.1,0.4V19.5A2.588,2.588,0,0,0,53,18.9Zm-41.644.2a0.668,0.668,0,0,1,0,.7V19.1Zm5.579,0.1a8.058,8.058,0,0,0,2.092,1.293V20.3a1.881,1.881,0,0,0-.8-0.8A1.753,1.753,0,0,0,16.937,19.2Zm38.854,0a1.285,1.285,0,0,0,.1.7A1.285,1.285,0,0,0,55.791,19.2Zm-42.242.1a1.694,1.694,0,0,1,.6.1v0.1a1.053,1.053,0,0,0-.6.1,0.67,0.67,0,0,0-.1.4,0.885,0.885,0,0,1,.3.3h-0.2a2.723,2.723,0,0,0-.6-0.7A0.545,0.545,0,0,0,13.549,19.3Zm54.994,1.392,4.383-.3V19.3h-0.1c-0.49.3-3.486,0.247-4.284,0.4v0.994ZM11.856,19.5l0.3,0.1v0.1h-0.3V19.5Zm42.839,0a0.359,0.359,0,0,0,.2.1A0.36,0.36,0,0,0,54.695,19.5Zm2.491,0a0.36,0.36,0,0,0,.2.1A0.36,0.36,0,0,0,57.186,19.5Zm15.94,0v0.895h0.1v0.1c0.79,0.1,2.283.9,2.889,0.6C75,20.8,74.208,19.862,73.126,19.5Zm-9.465.5v1.094l4.682-.3V19.7ZM19.228,21.29a1.029,1.029,0,0,0-.2-0.7c-0.647.415-1.3-.519-1.793-0.7V20C18.015,20.668,17.595,21.331,19.228,21.29ZM53,20.1v0.2h0.4V20.2H53.3V20.1H53Zm5.48,0.3v1.094l4.981-.4V20.1Zm-2.192,1.193,1.992-.1V20.494a4.762,4.762,0,0,0-2.291.3A1.291,1.291,0,0,1,56.289,21.588Zm12.254,0.2a11.628,11.628,0,0,0,2.391-.5v0.2a0.507,0.507,0,0,1,.1.3h0.3v-0.3l0.8-.1v0.2a0.835,0.835,0,0,0-.5.1,0.358,0.358,0,0,1,.1.2h0.8a0.672,0.672,0,0,1,.4-0.1V20.693h-0.2a22.365,22.365,0,0,1-4.085.3A2.488,2.488,0,0,0,68.543,21.787Zm-20.224-.7v1.094h0.1a26.428,26.428,0,0,1,4.184-.3,3.5,3.5,0,0,0-.1-1.094A18.565,18.565,0,0,1,48.319,21.091Zm4.384-.3v1.094h0.4v-0.1h0.1a5.35,5.35,0,0,1,.3-0.994H52.7Zm-4.782.3,0.1,0.4h0.1v-0.4h-0.2Zm19.427,0.2-0.1.7,1.1-.1v-0.8l-4.682.3v0.2h1.993A2.62,2.62,0,0,1,67.347,21.29Zm5.778-.2v0.2C73.286,21.172,73.248,21.248,73.126,21.091Zm-14.645.7v1.094l2.491-.1v-0.6h0.6v0.5a2.734,2.734,0,0,0,.9-0.1l-0.2-.895a1.582,1.582,0,0,0,1.2-.3h-0.2A31.209,31.209,0,0,1,58.481,21.787Zm14.645-.4a0.48,0.48,0,0,0,.1.3v-0.2l0.1-.1h-0.2Zm0.3,0-0.1.3h1.494v-0.1A4.306,4.306,0,0,1,73.425,21.389Zm-63.96.1v0.994h1.3V21.588a0.836,0.836,0,0,0,.5-0.1H9.465Zm2.59,0v0.4h0.2c0.1,0.025.038,0.078,0.1,0a0.678,0.678,0,0,0,.6-0.4h-0.9Zm2.291,0.895V21.489h-1.3v0.2h0.2A3.356,3.356,0,0,0,14.346,22.384Zm0.1-.895v0.895l2.491-.1v-0.8H14.446Zm2.59,0v0.8h0.3a3.765,3.765,0,0,1,.6-0.5h-0.1C17.691,21.429,17.527,21.47,17.036,21.489Zm2.291,0h-1.1v0.1h0.1v0.1a5.239,5.239,0,0,1,1,.5v-0.7Zm0.3,0v0.7a1.672,1.672,0,0,0,1.2-.7h-1.2Zm2.291,0.6v-0.6h-1v0.2h0.1A2.164,2.164,0,0,0,21.918,22.085Zm53.6-.6a0.36,0.36,0,0,1-.2.1v0.1h0.3a5.414,5.414,0,0,0,.8-0.1Zm-52.1.3a0.48,0.48,0,0,0,.1.3v-0.1a0.359,0.359,0,0,0,.1-0.2h-0.2Zm33.574,0.994h0.4c0.028,0.259,0,.2.5,0.2a0.673,0.673,0,0,1,.4-0.1V21.787l-1.793.1v0.2h0.1a1.215,1.215,0,0,1,.6.3C56.934,22.529,57.032,22.427,56.986,22.781Zm10.461-.7a0.36,0.36,0,0,1-.2.1v0.1C67.362,22.241,67.716,22.169,67.447,22.085ZM50.71,23.378v-0.5h0.6v0.5l0.6-.1c0-.6.09-0.615,0.7-0.6v-0.3H52.3c-0.028-.259,0-0.2-0.5-0.2a11.574,11.574,0,0,1-3.188.2,1.4,1.4,0,0,0-.1.4c0.576,0.681.214,0.749,1.594,0.7A1.081,1.081,0,0,1,50.71,23.378ZM12.852,22.284c0.033,0.22-.1.107,0.1,0.2A0.34,0.34,0,0,0,12.852,22.284Zm0.2,0a0.359,0.359,0,0,0,.2.1A0.36,0.36,0,0,0,13.051,22.284Zm7.372,0.2a0.831,0.831,0,0,0,.8,0h-0.8Zm1.893,0.994V22.483c-0.323.082-.152-0.049-0.3,0.2a0.918,0.918,0,0,1,0,.8h0.3Zm-9.963-.7,0.1,0.6a1.15,1.15,0,0,0,.7.2c0.206-.245.139-0.072,0.4-0.2a2.136,2.136,0,0,0,.1-0.7h-0.2A2.419,2.419,0,0,1,12.354,22.781Zm1.594,1.69h0.4a4.461,4.461,0,0,0-.1-1.79A15.315,15.315,0,0,1,13.948,24.472Zm0.5-1.79v1.79h0.9v-1.79h-0.9Zm1.1,0v1.094a7.6,7.6,0,0,1,1.395-.2V22.682H15.542Zm1.494,0v0.2h0.1v-0.2h-0.1Zm0.7,0v0.7a1.766,1.766,0,0,0,1,.2v-0.1h0.1v-0.1h-0.1C18.612,22.814,18.463,22.656,17.734,22.682Zm2.491,0a3.374,3.374,0,0,0,.1.8h0.2a0.887,0.887,0,0,0,.7,0v-0.8h-1Zm1.1,0v0.7h0.1v-0.2C21.582,22.942,21.558,22.825,21.32,22.682Zm2.092,0c-0.033.138,0.141,0.144,0.2,0.2C23.681,22.775,23.44,22.712,23.412,22.682Zm-13.948.2v1.094l0.8-.1V22.781h-0.1A1.321,1.321,0,0,1,9.465,22.881Zm1-.1v1.69h0.2v-0.2a3.591,3.591,0,0,0,.1-1.492h-0.3Zm-5.479.1v1.293l1.793-.1V22.881H4.981Zm1.993,0v1.094a7.555,7.555,0,0,1,2.391,0V22.881H6.974Zm16.339,0v0.5h0.1v0.1a0.341,0.341,0,0,0,.2-0.1,0.358,0.358,0,0,0,.1-0.2h-0.1A0.434,0.434,0,0,0,23.313,22.881Zm8.269,0v0.2h0.3v-0.2h-0.3Zm-14.545.2v0.5h0.2v-0.1C17.171,23.392,17.1,23.165,17.036,23.08Zm10.76,0.1c0.171,0.088.127,0.088,0.3,0H27.8Zm-8.169.2v0.2h0.1v-0.2h-0.1Zm3.686,0.4,0.1,1.094h0.4v-0.1h0.1c-0.025-.985-0.057-0.687.5-1.094Zm-1.594,0c-0.1.178-.473,0.347-0.1,0.4v-0.1c0.091-.107.1,0.1,0.1,0.1,0.068,0.077.131,0.222,0.2,0.3A0.831,0.831,0,0,0,21.719,23.776Zm0.3,0v1.094h0.2l0.1-1.094h-0.3Zm-9.763.2,0.1,0.4h0.2v-0.3Zm1.594,0.5c-0.04-.392.044-0.392-0.2-0.5-0.077.068-.222,0.13-0.3,0.2a0.645,0.645,0,0,1,.4.1,3.913,3.913,0,0,0-1,0,0.359,0.359,0,0,0-.1.2h1.2Zm14.047-.5c-0.323.082-.152-0.049-0.3,0.2l0.3,0.1v-0.3Zm-12.354.1v0.4h0.5a0.48,0.48,0,0,0-.1-0.3A0.673,0.673,0,0,0,15.542,24.074Zm10.66,0,0.1,0.3h0.1v-0.1a0.358,0.358,0,0,0,.1-0.2H26.2Zm-21.22.2v1.193a14.4,14.4,0,0,1,1.793,0V24.173h-0.2A3.916,3.916,0,0,1,4.981,24.273Zm19.726-.1v0.2h0.3v-0.2h-0.3Zm-17.733.1v0.3h0.9v-0.3h-0.9Zm2.291,0a2.373,2.373,0,0,0,.1,1.094A2.373,2.373,0,0,0,9.265,24.273Zm0.2,0v0.2h0.8v-0.2h-0.8Zm-5.38,2.784h0.2v0.2h-0.1Zm0.5,3.281a0.358,0.358,0,0,1,.1.2h-0.1v-0.2Zm7.273,4.574a27.447,27.447,0,0,0,5.38-1.094,7.606,7.606,0,0,0,2.092-.4H14.446a5.35,5.35,0,0,0-1.992.1,0.587,0.587,0,0,0-.5.7A1.314,1.314,0,0,0,11.856,34.912Z" transform="translate(0 0.5)"/>
</svg>
