<svg xmlns="http://www.w3.org/2000/svg" width="79.938" height="40" viewBox="0 0 79.938 40">
  <defs>
    <style>
      .cls-1 {
        fill: #fff;
        fill-rule: evenodd;
      }
    </style>
  </defs>
  <path id="Color_Fill_1" data-name="Color Fill 1" class="cls-1" d="M51.208,1a0.358,0.358,0,0,1,.1.2h-0.1V1Zm0,3.572a0.358,0.358,0,0,1,.1.2h-0.1v-0.2Zm0,0.695a0.358,0.358,0,0,1,.1.2h-0.1v-0.2Zm0,2.183a0.358,0.358,0,0,1,.1.2h-0.1v-0.2Zm0,2.877a0.358,0.358,0,0,1,.1.2h-0.1v-0.2Zm0,0.694a0.358,0.358,0,0,1,.1.2h-0.1v-0.2Zm0,0.695a0.358,0.358,0,0,1,.1.2h-0.1v-0.2Zm0,0.694a0.358,0.358,0,0,1,.1.2h-0.1v-0.2Zm0,2.183a0.358,0.358,0,0,1,.1.2h-0.1v-0.2Zm0.1,5.556a0.483,0.483,0,0,1,.3.1c-0.323.082-.152-0.049-0.3,0.2h0.3c0.315-.3.246,0.1,0.6,0a5.224,5.224,0,0,1,.6-0.3v0.5l2.291,0.1v0.2h-1a1.581,1.581,0,0,0-.8-0.1c0.052,0.219.112,0.2,0,.4-0.176-.357-0.247-0.222-0.8-0.2v0.3a0.379,0.379,0,0,1,.3.2,2.05,2.05,0,0,1,1-.2,1.449,1.449,0,0,0,1.694,1.191v-0.2c-0.23-.133-0.182-0.121-0.2-0.2a1.343,1.343,0,0,1,1-.2v0.4a1.766,1.766,0,0,0-.4.2,40.279,40.279,0,0,1,8.468.694c1.693,0.367,3.483.052,5.081,0.4l9.863,0.5v-0.2a0.667,0.667,0,0,1-.1-0.4h0.4c-0.045.861,0.593,2.9,0.2,3.473a0.478,0.478,0,0,0-.1-0.3v0.2c-0.767.836-.987,2.184-1.594,3.175a17.3,17.3,0,0,0-1.793,2.778c0.252,0.145.154,0.044,0.2,0.4a0.732,0.732,0,0,0-.5-0.1c-0.583.445-.9,1.243-1.494,1.687a16.24,16.24,0,0,1-3.686,1.984c-2.923,1.171-8.845,1.19-12.852,1.191a29.824,29.824,0,0,1-5.679-.1H50.61a23.877,23.877,0,0,1-4.682-.2H43.437c-2.573-.561-5.807.074-8.369-0.5l-4.085-.1c-3.035-.657-6.638.075-9.664-0.6H19.427a12.576,12.576,0,0,0-5.28.5c-1.376.344-2.559,0.086-3.885,0.4a10.507,10.507,0,0,1-2.79.4c0.038,0.6.091,0.969-.4,1.091a4.773,4.773,0,0,1-.3-1.389,2.6,2.6,0,0,1-1.1.2L5.579,38.8c-0.511,0-.888.192-1.694,0.2V35.825h-0.9c-0.62-1.444-1.2-3.038-1.793-4.465-0.269-.65-0.279-1.27-0.6-1.885A4.7,4.7,0,0,1,0,28.781H0.1v-0.1H0.4v-0.3H0.7a0.478,0.478,0,0,0,.1.3v-0.1a0.5,0.5,0,0,0,.1-0.3,0.543,0.543,0,0,1-.3-0.6c0.49-.513,1.342-0.751,1.395.4a0.505,0.505,0,0,0-.3.5h0.2c0.06-.144,1.719.092,2.291-0.3-0.175-.138-0.281-0.07-0.1-0.2,0.356-.389,1.879-0.218,2.59-0.2,0.085,0.141.291,0.258,0.1,0.4,0.3,0.181.411-.142,0.3,0.2h0.6a7.642,7.642,0,0,1,0-1.091,4.457,4.457,0,0,1,1.694-.1l3.786-.1v0.893h0.1a3.018,3.018,0,0,1,1.3-.1c0.019,0.357-.148.206,0.2,0.3a6.2,6.2,0,0,1,1.893-.2,1.255,1.255,0,0,0-.1-0.4,5.075,5.075,0,0,1-1.395,0,3.011,3.011,0,0,1,.1-0.694,2.637,2.637,0,0,0-.7-0.4V26.2a3.226,3.226,0,0,0,1.1-.4l1.2,0.1v-0.2H15.442c-0.54.274-1.2-.353-1.793-0.4-2.008-.148-4.222.067-6.077,0.1a1.42,1.42,0,0,1,.1-0.5,8.52,8.52,0,0,0,2.192.1h4.085a12.226,12.226,0,0,1,1.993-.4,1.255,1.255,0,0,0-.1-0.4h0.2a0.98,0.98,0,0,1,.8,0,1.552,1.552,0,0,0-.1.5,1.4,1.4,0,0,1,.5,0l-0.1-.5a3.96,3.96,0,0,1,1.395-.5,2.475,2.475,0,0,1,.5.992,13.434,13.434,0,0,1,1.893.5,1.294,1.294,0,0,0-.7.1,1.96,1.96,0,0,0,.3.695v0.1h0.1a1.534,1.534,0,0,1,.1-0.794,15.087,15.087,0,0,1,0,1.687h0.3v0.6a0.791,0.791,0,0,0-.3.2,5.149,5.149,0,0,0-1.992-.1v0.1h-0.1v0.3c1.272-.009,2.682-0.1,4.085-0.1a10.04,10.04,0,0,0,.1-2.679,1.058,1.058,0,0,0-.5-0.2V23.82h0.2a8.528,8.528,0,0,0,.8.5,11.851,11.851,0,0,1,.7-1.191c0.248-.712.139-1.423,0.4-1.984,0.257,0.162.557,0.586,0.8,0.695l2.69,0.1a31.031,31.031,0,0,0,6.077.3l0.1,0.3a0.505,0.505,0,0,1,.1.3c1.755,0,3.221-.082,4.782-0.1v-0.2c-0.07-.153-0.013-0.013,0-0.3-0.139-.02.04,0.082-0.1,0.1-0.077.191-.1-0.2-0.1-0.2,0.445-.282-0.117-0.511,1-0.5V22.53a0.883,0.883,0,0,1,.3.3,6.68,6.68,0,0,0,1.395-.4v0.694c-0.769.084-1.61,0.03-2.291,0.1v0.4a1.093,1.093,0,0,0,1.3.5,1.241,1.241,0,0,1,.8-0.4v0.3a13.456,13.456,0,0,0,3.587-.4,2.041,2.041,0,0,1,.5.2,22.147,22.147,0,0,0,2.79-.4V22.53a2.98,2.98,0,0,0,.1-1.29h-0.2a1.037,1.037,0,0,1-.6.2l-0.6-2.084,3.188-.893a1.989,1.989,0,0,0-.1-0.694l0.8-.1a2.89,2.89,0,0,0-.2-0.992,1.263,1.263,0,0,0,.4-0.1c0.021,0.631-.113,2.256.3,2.877a1.043,1.043,0,0,1,.1-0.6v1.29Zm-1.1-2.183a6.075,6.075,0,0,0,.8,2.48,12,12,0,0,0-.3-2.58h-0.2A0.51,0.51,0,0,1,50.212,17.966Zm1,0.2a0.358,0.358,0,0,1,.1.2h-0.1v-0.2Zm-1.3,2.48a0.36,0.36,0,0,0,.2.1A0.36,0.36,0,0,0,49.913,20.645Zm-0.6.2a0.292,0.292,0,0,0,.4,0h-0.4Zm0.9,0h-0.4v0.2a1.5,1.5,0,0,0,.4.2v-0.4Zm0.1,0.2v0.6h-0.1a0.34,0.34,0,0,0-.1-0.2v0.5a0.856,0.856,0,0,1,.1.5h1a1.734,1.734,0,0,0-.2-0.5,0.341,0.341,0,0,0,.2-0.1,2.06,2.06,0,0,1-.3-0.794h-0.6Zm1.1,0v0.794h0.2c0.095-.157.362-0.3,0.2-0.4A0.428,0.428,0,0,0,51.407,21.042Zm-27.9,6.945a16.192,16.192,0,0,1,1.793-.1v-0.5a0.432,0.432,0,0,0,.3-0.3,1.036,1.036,0,0,1-1-.5c-0.561-.6.107-1.035,0.3-1.389,0.055-.1-0.061-0.524,0-0.695,0.665-.063.3-0.169,0.6-0.3,0.6-.262,1.821.276,2.491,0.3v-0.2A5.046,5.046,0,0,1,26.3,22.828h0.2c0.513,0.762,1.482,1.121,1.992,1.885-0.375.014-.35-0.047-0.5,0.2h0.5a2.046,2.046,0,0,1,1.395-.1,3.682,3.682,0,0,0,.3-0.6c0.9,0.642.979,0.538,1.893,0.1a4.794,4.794,0,0,0,2.192.2,5.75,5.75,0,0,0-.2-1.488c-0.375-.014-0.35.047-0.5-0.2a0.838,0.838,0,0,0,.5-0.1,0.505,0.505,0,0,1-.1-0.3l-8.468-.5v0.2a1.552,1.552,0,0,1,.8.695H26.1a5.7,5.7,0,0,0-1.694-1.488l-0.3,1.984a8.019,8.019,0,0,0-.7.992ZM52.2,21.339a0.478,0.478,0,0,0,.1.3A0.479,0.479,0,0,0,52.2,21.339Zm-10.959.2h0.2v0.2h-0.2v-0.2Zm-1.395.3a0.666,0.666,0,0,1,0,.695V21.836Zm0.2,0.2a2.98,2.98,0,0,1,1.3.1C40.719,22.151,40.193,22.29,40.05,22.034Zm2.092,0h0.5v0.2c-0.471-.037-0.6-0.081-0.6.6a0.379,0.379,0,0,1,.3.2h-0.2a4.954,4.954,0,0,0-.7-0.694A0.617,0.617,0,0,0,42.142,22.034Zm-1.793.3a0.483,0.483,0,0,1,.3.1A0.483,0.483,0,0,1,40.349,22.332Zm7.871,1.091,0.5-.1c-0.076-.519-0.175-0.3,0-0.695h-0.4A2.478,2.478,0,0,0,48.219,23.423Zm12.154,1.389a5.408,5.408,0,0,1-.2,1.091L64.359,26l0.1-.3a15.078,15.078,0,0,1,2.291,0V26c1.814,0,3.429,0,5.38,0a0.807,0.807,0,0,0,.3-0.6,0.483,0.483,0,0,1-.3-0.1h0.3v-0.4a0.957,0.957,0,0,1,.7.3h-0.3V25.9a8.184,8.184,0,0,1,1.893.2,14.335,14.335,0,0,0,3.686-.1v0.3a0.646,0.646,0,0,0,.4-0.1,0.483,0.483,0,0,1-.3-0.1c0.513-.009.608-0.065,0.7-0.5a3.279,3.279,0,0,0,.1-1.389H79.1a3.728,3.728,0,0,1-1.594,0c-1.488,0-2.907-.152-4.284-0.2-5.589-.188-10.964-0.74-16.139-1.389v0.1h0.1v0.1a9.05,9.05,0,0,1,2.192,2.282C59.768,24.745,59.661,24.771,60.374,24.812Zm-24.01-.893a0.478,0.478,0,0,0,.1.3,2.425,2.425,0,0,0,1.1.1,0.509,0.509,0,0,1,.3-0.1,7.714,7.714,0,0,0,.3-1.091l-3.985-.1v0.1a2.48,2.48,0,0,1,.2,1.389h0.2A16.676,16.676,0,0,1,36.364,23.919Zm2.192-.794a0.36,0.36,0,0,0,.2.1A0.361,0.361,0,0,0,38.555,23.125Zm-0.3.5-0.1.2C38.331,23.681,38.257,23.621,38.257,23.621Zm0.7,0c-0.033.137,0.141,0.144,0.2,0.2C39.223,23.714,38.981,23.651,38.954,23.621Zm-6.575.5a0.5,0.5,0,0,1,.1.3h-0.1v-0.3Zm-14.147.1c0.171,0.087.127,0.088,0.3,0h-0.3Zm0.1,0.3a0.36,0.36,0,0,0,.2.1A0.36,0.36,0,0,0,18.331,24.514Zm9.365,0.2c0.038,0.26-.074.13,0.2,0.2v-0.2H27.7ZM79.4,25.9c0.323-.082.152,0.049,0.3-0.2-0.178-.209-0.141-0.648-0.3-0.893V25.9Zm-60.075-.695L19.626,26h0.2a0.99,0.99,0,0,0,.4-0.6,0.608,0.608,0,0,1-.2-0.2A3.462,3.462,0,0,1,19.328,25.209Zm53.8,0a0.836,0.836,0,0,1,.5.1A0.837,0.837,0,0,1,73.126,25.209Zm0.5,0.1a0.836,0.836,0,0,1,.5.1A0.836,0.836,0,0,1,73.624,25.308Zm-1.893.1a0.483,0.483,0,0,1,.3.1A0.483,0.483,0,0,1,71.731,25.407Zm2.391,0a0.837,0.837,0,0,1,.5.1A0.837,0.837,0,0,1,74.122,25.407Zm-2.889.1a0.646,0.646,0,0,1,.4.1A0.645,0.645,0,0,1,71.233,25.507Zm3.387,0a0.838,0.838,0,0,1,.5.1A0.836,0.836,0,0,1,74.62,25.507Zm-3.786.1a0.646,0.646,0,0,1,.4.1A0.646,0.646,0,0,1,70.834,25.606Zm4.284,0a1.055,1.055,0,0,1,.6.1A1.054,1.054,0,0,1,75.118,25.606Zm-55.791.1a0.36,0.36,0,0,1-.2.1v0.1h0.3A0.339,0.339,0,0,0,19.328,25.705Zm50.909,0a0.836,0.836,0,0,1,.5.1A0.838,0.838,0,0,1,70.237,25.705Zm5.48,0a1.054,1.054,0,0,1,.6.1A1.055,1.055,0,0,1,75.716,25.705Zm-30.486.1a1.749,1.749,0,0,0-.2.992h0.2l0.2-.992h-0.2Zm24.209,0a1.294,1.294,0,0,1,.7.1A1.3,1.3,0,0,1,69.44,25.8Zm6.874,0a1.054,1.054,0,0,1,.6.1A1.055,1.055,0,0,1,76.314,25.8Zm0.6,0.1a1.552,1.552,0,0,1,.8.1A1.552,1.552,0,0,1,76.912,25.9ZM40.947,26a0.36,0.36,0,0,1-.2.1v0.1C41.027,26.165,41.121,26.223,40.947,26Zm0.4,0a0.529,0.529,0,0,0,.6,0h-0.6Zm-22.017.1a7.322,7.322,0,0,0-.2.794h-0.2c0.052-.219.112-0.2,0-0.4a0.8,0.8,0,0,1-.4.6h0.6a0.36,0.36,0,0,1,.2-0.1A1.1,1.1,0,0,0,19.328,26.1Zm20.224,0v0.2a2.508,2.508,0,0,0,.5-0.2h-0.5Zm38.456,0.1a0.36,0.36,0,0,0,.2.1A0.36,0.36,0,0,0,78.008,26.2Zm-33.375.1v0.4h0.1V26.6C44.779,26.386,44.827,26.5,44.633,26.3Zm-28.095.1a1.28,1.28,0,0,0,.1.695A1.28,1.28,0,0,0,16.538,26.4Zm27.8,0a0.479,0.479,0,0,0,.1.3A0.478,0.478,0,0,0,44.334,26.4Zm-11.059.1a3.621,3.621,0,0,1-1.494.1v0.2h0.1c0.5-.295,1.549.014,1.993-0.3h-0.6Zm0.8,0c0.171,0.087.127,0.088,0.3,0h-0.3Zm0.4,0a0.292,0.292,0,0,0,.4,0h-0.4Zm8.269,0a0.478,0.478,0,0,0,.1.3A0.479,0.479,0,0,0,42.74,26.5Zm0.8,0v0.2h0.1A0.34,0.34,0,0,0,43.537,26.5Zm-28.493.2a0.36,0.36,0,0,0,.2.1A0.36,0.36,0,0,0,15.044,26.7Zm2.491,0a0.36,0.36,0,0,0,.2.1A0.36,0.36,0,0,0,17.534,26.7Zm12.752,0c0.021,0.139-.082-0.04-0.1.1-0.192.077,0.2,0.1,0.2,0.1,0.086-.064.313-0.133,0.4-0.2h-0.5Zm0.7,0a0.529,0.529,0,0,0,.6,0h-0.6Zm48.717,0.3a0.357,0.357,0,0,1,.1.2H79.7v-0.2Zm-0.1.2a0.5,0.5,0,0,1,.1.3H79.6v-0.3Zm-60.374.1a0.36,0.36,0,0,1-.2.1v0.1h0.5v-0.2h-0.3Zm8.169,0.1a0.36,0.36,0,0,0,.2.1A0.36,0.36,0,0,0,27.4,27.392Zm52.1,0.1a0.358,0.358,0,0,1,.1.2H79.5v-0.2Zm-0.1.2a0.5,0.5,0,0,1,.1.3H79.4v-0.3Zm-0.1.3a0.357,0.357,0,0,1,.1.2H79.3v-0.2Zm-0.1.2a0.786,0.786,0,0,1-.1.694H79v-0.3A0.707,0.707,0,0,0,79.2,28.185Zm-0.3.694a0.357,0.357,0,0,1,.1.2H78.9v-0.2Zm-0.1.2a0.358,0.358,0,0,1,.1.2H78.8v-0.2Zm-0.1.2a0.358,0.358,0,0,1,.1.2H78.7v-0.2Zm-0.1.2a0.357,0.357,0,0,1,.1.2h-0.1v-0.2Zm-0.1.2a0.357,0.357,0,0,1,.1.2h-0.1v-0.2Zm-0.1.2a0.358,0.358,0,0,1,.1.2h-0.1v-0.2Zm-0.1.2a0.358,0.358,0,0,1,.1.2h-0.1v-0.2Zm-0.1.2a0.493,0.493,0,0,1-.1.5h-0.1v-0.2A1.15,1.15,0,0,0,78.207,30.269Zm-0.3.5a0.357,0.357,0,0,1,.1.2h-0.1v-0.2Zm-0.2.3c0.086,0.187.047,0.073,0,.3h-0.1Zm-0.2.3c0.086,0.187.047,0.073,0,.3h-0.1Zm-0.2.3c0.086,0.187.047,0.073,0,.3h-0.1Zm-0.2.3c0.047,0.212.095,0.1-.1,0.3v0.1h-0.1A1.327,1.327,0,0,1,77.111,31.956Zm-0.4.5c0.086,0.187.047,0.073,0,.3h-0.1ZM5.579,35.924a13.529,13.529,0,0,0,0,1.587h0.2v-0.1a3.659,3.659,0,0,0,.4-1.488h-0.6Zm2.491,0h-1a1.8,1.8,0,0,0-.3.893l0.2,0.3a4.117,4.117,0,0,0,.9,0Zm1,0.1a3.086,3.086,0,0,0-.4.992h0.1c1.066-.65,3.038-0.142,3.985-0.893Zm5.28,0.2a0.609,0.609,0,0,0-.2.4h0.1v0.1c0.6-.186,1.776-0.056,2.291-0.4Zm-5.878.992c0.082,0.322-.049.152,0.2,0.3a27.823,27.823,0,0,1,4.782-.694,1.25,1.25,0,0,1,.1-0.4h-0.3Zm-1.893-.1v0.2h0.1A0.339,0.339,0,0,0,6.575,37.115Zm0.9,0.3c0.038,0.26-.074.13,0.2,0.2a0.283,0.283,0,0,1,.1-0.1v-0.1h-0.3Z"/>
</svg>
