<svg xmlns="http://www.w3.org/2000/svg" width="39.938" height="40" viewBox="0 0 39.938 40">
  <defs>
    <style>
      .cls-1 {
        fill: #fff;
        fill-rule: evenodd;
      }
    </style>
  </defs>
  <path id="Color_Fill_1" data-name="Color Fill 1" class="cls-1" d="M13.039,13.441v0.147c-1.58,0-2.792.1-4.216,0.1a1.608,1.608,0,0,0-.049.489,8.1,8.1,0,0,1,.1.832H8.627v0.245h-0.1a0.409,0.409,0,0,0-.049-0.245c-0.337.3-.869,0.3-0.882,0.93,0.643,0.044,1.438.049,2.157,0.049V15.741H9.9V14.86a0.317,0.317,0,0,1-.2-0.049,0.955,0.955,0,0,0,.147-0.489c0.221-.021.3-0.1,0.392-0.1,0.178,0.262.109,0.359,0.588,0.343a6.988,6.988,0,0,0,1.128.245V14.86c-0.243,0-.254,0-0.343.147A2.98,2.98,0,0,0,10.2,14.86v0.1a1.917,1.917,0,0,0-.049.783h0.49V15.692a3.841,3.841,0,0,1,.049-0.685h0.392l0.049,0.734h0.686v0.245c0.508,0,1.03.028,1.471,0.049V15.888a0.3,0.3,0,0,0,.1-0.1,0.168,0.168,0,0,1,.1.049c0.152,0.06.111,0.018,0.147,0.2a0.189,0.189,0,0,0-.1.147,2.758,2.758,0,0,1,.588.049,0.722,0.722,0,0,0,.49.587,6.231,6.231,0,0,1,1.569,0,0.284,0.284,0,0,1,.245-0.245v0.245h0.1a1.048,1.048,0,0,1,.49-0.049,6.187,6.187,0,0,1,.049.685c3.472,0,7.209.05,10.882,0.049a2.528,2.528,0,0,0,.882-0.049l0.1-.147h0.833a10.513,10.513,0,0,1,2.5.049,1.571,1.571,0,0,1,.147.245h2.157c1.973,0,3.209-.289,5.245-0.294a3.576,3.576,0,0,1,.147,1.42,2.976,2.976,0,0,1-1.912.245,3.616,3.616,0,0,0-1.961-.245,0.417,0.417,0,0,1-.245-0.1H32.4a1.549,1.549,0,0,1-.1.2,7.186,7.186,0,0,1-2.451.1H28.922l-0.1-.147-0.784-.049c-3.652,0-7.478.051-10.784,0.049-0.058.113-.2,0.242-0.245,0.343a0.365,0.365,0,0,1,0,.294H15.539v0.049c0.208,0.247-.02.335,0.441,0.343a0.96,0.96,0,0,0,.2.1c0.01,0.069-.04-0.02-0.049.049-0.094.038,0.1,0.049,0.1,0.049,0.063-.121-0.021-0.033.1-0.1a0.334,0.334,0,0,1-.1-0.343,2.224,2.224,0,0,1,.931-0.1,0.323,0.323,0,0,0,.392.2v-0.1h0.2l0.049,0.1c0.235,0.085.359-.173,0.637-0.1a0.977,0.977,0,0,0,.588.1,1.827,1.827,0,0,1,.882-0.1c0.728,0.19,2.673-.149,2.892.441a0.2,0.2,0,0,0-.1.2h0.049v0.049a14.872,14.872,0,0,1,2.745.979,3.084,3.084,0,0,1,1.029.294c0.285,0.493-.521,1.051-0.686,1.322a0.752,0.752,0,0,1,.539.245,0.249,0.249,0,0,1,.049.147,0.3,0.3,0,0,0-.147.343,0.29,0.29,0,0,1,.2,0,0.176,0.176,0,0,1,.049.1h-0.1a0.4,0.4,0,0,1-.343,0,0.5,0.5,0,0,0-.2-0.294c-0.038.033-.109,0.064-0.147,0.1a0.774,0.774,0,0,1,.049.392c-0.159.041-.075-0.024-0.147,0.1a1.266,1.266,0,0,1-.245,1.175,2.944,2.944,0,0,1-1.029.587c-0.68.352-1.412,0.835-2.108,1.126a5.4,5.4,0,0,1-1.716.1H3.676A8.427,8.427,0,0,1,2.5,26.413C1.194,25.846-.327,25.75.2,23.769c-0.18-.034-0.134,0-0.2-0.147a0.388,0.388,0,0,0,.294-0.294,0.653,0.653,0,0,1-.147-0.636H0.2a0.83,0.83,0,0,0,.049.294H0.294V21.371a4.123,4.123,0,0,1,.539-1.615h0.1v0.1A2.966,2.966,0,0,1,.98,20.979a0.6,0.6,0,0,0,.441.147V21.077a1.786,1.786,0,0,1-.294-0.245,2.085,2.085,0,0,1,0-.881c0.459-.322,1.884.387,2.5-0.147H2.059V19.266a3.6,3.6,0,0,1-.784-0.2l-0.98.049a4.39,4.39,0,0,1-.049-1.175H0.98A0.236,0.236,0,0,0,.931,17.8a1.523,1.523,0,0,1-.686.049A0.692,0.692,0,0,1,.2,17.65a2.516,2.516,0,0,0,.049-0.979c0.714,0.011.822,0,1.52,0v-0.1a0.176,0.176,0,0,1-.049-0.1H2.059a0.236,0.236,0,0,1,.049-0.147A0.531,0.531,0,0,1,2.4,16.28c0-.157-0.036-0.189.245-0.2a1.049,1.049,0,0,1,.49-0.049l0.049-.245a0.649,0.649,0,0,1,.392-0.1,3.784,3.784,0,0,1,.2.392l0.294,0.049V16.084A3.531,3.531,0,0,1,3.48,15.2a1.692,1.692,0,0,1,.049-0.294h0.2c-0.02.111-.045,0.053,0,0.147a2.4,2.4,0,0,0,.833.392,0.186,0.186,0,0,1,.1-0.147c0.02,0.175-.023.123,0.1,0.2a2.4,2.4,0,0,0,1.176.1V15.4a2.831,2.831,0,0,1,.784-0.049,0.481,0.481,0,0,0,.245.147c0.033,0.038.064,0.109,0.1,0.147v-0.1c0.088-.074.066-0.222,0.147-0.294,0.291-.257,1.264-0.58,1.324-0.979a0.176,0.176,0,0,1-.049-0.1,1.09,1.09,0,0,1-.637-0.1L7.794,13.93a1.386,1.386,0,0,0-.931.147c-0.017-.028-0.106-0.227,0-0.245H6.176a0.167,0.167,0,0,0-.049-0.1,0.41,0.41,0,0,0,.1-0.147H6.078a0.139,0.139,0,0,1-.049.049l0.049,0.1H6.029a0.177,0.177,0,0,1-.1.049,1.8,1.8,0,0,0-.1-0.343,1.263,1.263,0,0,1,.2-0.245,0.373,0.373,0,0,1,.049.245H6.225c-0.023-.149-0.1-0.154-0.049-0.2,0.064-.045.206,0,0.294-0.049l0.049-.147c0.062-.025.373,0.145,0.637,0.147,0.649,0,1.54-.085,1.569-0.049a0.379,0.379,0,0,0,.147.147,4.339,4.339,0,0,0,1.029.049A16.112,16.112,0,0,0,13.039,13.441Zm-6.765.1a1.218,1.218,0,0,0,.784,0H6.275Zm3.48,0.44a2.356,2.356,0,0,1,.931.049A2.356,2.356,0,0,1,9.755,13.979Zm-2.99.147h0.1a0.139,0.139,0,0,1-.049.049v0.049A0.176,0.176,0,0,1,6.765,14.126Zm0.2,0h0.1C7,14.2,7.038,14.186,6.961,14.126Zm2.7,0.783a0.249,0.249,0,0,1,.049.147H9.657V14.909Zm-0.049.2a0.677,0.677,0,0,1,0,.538V15.1Zm-5.882.1a0.568,0.568,0,0,0,.147.1A0.189,0.189,0,0,0,3.725,15.2Zm2.353,0.245v0.147h0.2l0.049-.147H6.078Zm3.578,0.294a0.176,0.176,0,0,1,.049.1H9.657v-0.1Zm-6.324.294h0.2a0.619,0.619,0,0,0-.049-0.2,0.168,0.168,0,0,0-.1.049A0.25,0.25,0,0,0,3.333,16.035Zm10.049-.147a0.619,0.619,0,0,0,.049.2H13.48V16.035a0.25,0.25,0,0,0,.049-0.147H13.382Zm-12.108.881a1.53,1.53,0,0,0,.049.489H1.373V17.21a0.33,0.33,0,0,0,.049-0.2H1.569v0.245H2.01V16.818a0.694,0.694,0,0,0-.2-0.049A2.378,2.378,0,0,1,1.275,16.769Zm0.441,0.1a0.547,0.547,0,0,1,.1.343H1.765V17.161A0.53,0.53,0,0,1,1.716,16.867Zm0.049,0.538a1.183,1.183,0,0,0,.1.538,0.168,0.168,0,0,0,.1-0.049A0.53,0.53,0,0,0,2.01,17.6c-0.046-.093-0.019-0.057,0-0.2H1.765Zm36.422,0.049v1.322c0.412,0.018.717,0,1.176,0a0.511,0.511,0,0,0,.1-0.294,1.822,1.822,0,0,0,0-.93,1.744,1.744,0,0,0-.784-0.1A1.253,1.253,0,0,0,38.186,17.455Zm-0.441.049c-0.313.274-.737,0.168-0.735,0.783a3.021,3.021,0,0,0,.833.441V18.385A0.98,0.98,0,0,0,37.745,17.5Zm-35.833.832H2.059a0.327,0.327,0,0,0-.147-0.294v0.294Zm-0.637.245h0.2v-0.2l-0.2-.049V18.58Zm0,0.1,0.049,0.245h0.1V18.678H1.275ZM23.48,20.685a5.16,5.16,0,0,0-.539-0.1v0.1l0.1,0.049a0.537,0.537,0,0,0,.392.1A0.251,0.251,0,0,0,23.48,20.685Zm0.49,0.2a0.389,0.389,0,0,1-.1.147l0.539,0.1v-0.1Zm0.588,0.2v0.1a0.317,0.317,0,0,0,.2-0.049A0.621,0.621,0,0,1,24.559,21.077Zm-22.843.685H1.863a0.139,0.139,0,0,0-.049-0.049l0.049-.1H1.814a0.177,0.177,0,0,0-.1-0.049v0.2Zm-0.1.538a0.237,0.237,0,0,0,.049.147,0.427,0.427,0,0,1,.2-0.147H1.814V22.252A0.69,0.69,0,0,1,1.618,22.3Zm21.716,2.692a1.037,1.037,0,0,0-.392.392,0.249,0.249,0,0,0-.049.147h0.049a4.45,4.45,0,0,0,.686-0.392A0.573,0.573,0,0,0,23.333,24.993Zm-21.078.049c-0.343.5-.05,0.354,0.49,0.587v-0.2a0.33,0.33,0,0,1-.049-0.2A3.036,3.036,0,0,1,2.255,25.042Zm17.7,0.685a1.076,1.076,0,0,1-.2.441h0.49V26.119A1.719,1.719,0,0,0,19.951,25.727Zm-5.735.049a1.607,1.607,0,0,1-.2.392h0.441V26.119A3.145,3.145,0,0,1,14.216,25.776Zm-5.686.049-0.2.343H8.725v-0.1A2.272,2.272,0,0,1,8.529,25.825Zm2.843,0-0.2.343h0.392v-0.1A1.1,1.1,0,0,1,11.373,25.825Zm5.686,0a0.954,0.954,0,0,1-.2.343H17.3v-0.1A1.235,1.235,0,0,0,17.059,25.825Zm-11.373.049a2.858,2.858,0,0,1-.2.294H5.882v-0.1C5.8,26.008,5.769,25.936,5.686,25.874Z" transform="translate(0 -0.016)"/>
</svg>
