<svg xmlns="http://www.w3.org/2000/svg" width="39.969" height="40" viewBox="0 0 39.969 40">
  <defs>
    <style>
      .cls-1 {
        fill: #fff;
        fill-rule: evenodd;
      }
    </style>
  </defs>
  <path id="Color_Fill_1" data-name="Color Fill 1" class="cls-1" d="M16.311,13.708h3.033a9.824,9.824,0,0,1,1.229-.042v0.042c-0.026.043-.089,0.008-0.041,0.042a2.1,2.1,0,0,0,1.066.083,1.661,1.661,0,0,0,.369.042l0.9,0.25a8,8,0,0,1,1.107.625A1.83,1.83,0,0,0,24.3,15c0.437,0.145.757-.223,1.23-0.083A16.329,16.329,0,0,0,29.016,15l0.041,0.542H29.1V15.458a4.733,4.733,0,0,1,.738-0.917h1.557a1.142,1.142,0,0,1,.738-0.083c0.214,0,.486-0.115.615-0.083a2.535,2.535,0,0,0,.779.125,1.345,1.345,0,0,1-.082.5h0.123a4.606,4.606,0,0,1,.123.625,3.937,3.937,0,0,0-.164.75h0.082a3.578,3.578,0,0,1,.574-0.042V16.5a7.894,7.894,0,0,0,.9-0.042,0.666,0.666,0,0,1,.041.208c0.483,0.01.483-.051,0.943-0.042a0.537,0.537,0,0,1-.041.167h0.082a2.5,2.5,0,0,0,.9,0v0.167c0.447,0.029.509-.053,0.943,0v0.167a2,2,0,0,1,.287.083c0.35,0.067.428-.182,0.738,0.125-0.073.078-.076,0.033-0.041,0.125a2.7,2.7,0,0,0,.369.333l0.2-.042a6.553,6.553,0,0,1,.287,1c0.188-.015.187,0.089,0.164,0.375H39.918v0.042H39.8a3.254,3.254,0,0,1-.082.583l0.123,0.042a1.842,1.842,0,0,1-.738.708c0.036,0.094.073,0.108,0.041,0.167a2.775,2.775,0,0,1-.246.208,0.291,0.291,0,0,0-.328,0,0.409,0.409,0,0,0-.287.208,0.253,0.253,0,0,1,.082.083,1.73,1.73,0,0,0-.287.167c-0.111.047-.523-0.12-0.615,0.25H37.5c0.02,0.115-.023.049-0.082,0.083a5.79,5.79,0,0,1-.779.292,0.249,0.249,0,0,1,0,.167,0.88,0.88,0,0,1-.574.125,1.694,1.694,0,0,1-.287.167l0.041,0.208a3.274,3.274,0,0,0-.861.292c0.013,0.118.043,0.086,0,.167-0.07.067-.177,0.1-0.246,0.167a0.361,0.361,0,0,0-.246-0.042,5.508,5.508,0,0,0-.533.5l-0.164-.042a0.482,0.482,0,0,0-.492.375,0.7,0.7,0,0,0-.2.125,0.335,0.335,0,0,0-.287-0.042,2.086,2.086,0,0,1-.369.167c0.013,0.118.043,0.086,0,.167-0.221.2-.753-0.051-0.861,0.375H31.6c0.04,0.042-.04.041-0.041,0.042a0.515,0.515,0,0,1-.492.042,3.261,3.261,0,0,0-.41.167c0.009,0.139.088,0.1-.041,0.167a7.071,7.071,0,0,0-.861.208c0.021,0.1.066,0.051-.041,0.125a0.606,0.606,0,0,1-.492,0c-0.081.011-.219,0.1-0.328,0.125v0.208a1.975,1.975,0,0,0-.943.083l0.041,0.167H27.828a0.351,0.351,0,0,0-.123.083,0.853,0.853,0,0,0-.656-0.042v0.167H26.967a0.256,0.256,0,0,1-.369-0.042l-0.533.083a0.533,0.533,0,0,0,.041.167H25.861a0.207,0.207,0,0,1-.123.042,0.454,0.454,0,0,0-.164-0.167,0.946,0.946,0,0,1-.451.083v0.083h0.041c0.041,0.042-.04.041-0.041,0.042a0.468,0.468,0,0,1-.41.042V26.583l-0.533.042v0.167a1.01,1.01,0,0,1-.328.042,0.752,0.752,0,0,0-.123-0.167,1.1,1.1,0,0,1-.492.042v0.167c-0.413,0-.508-0.122-0.984-0.125v0.167H21.885V26.75H21.312v0.167H20.943V26.792H20.369v0.125L20,26.958V26.792H19.426c-0.052.19-.13,0.179-0.369,0.167V26.792H18.484c-0.041.153-.027,0.146-0.2,0.167a0.35,0.35,0,0,0-.2-0.042V26.792a2.525,2.525,0,0,1-.533-0.042c-0.041.213-.169,0.183-0.41,0.167V26.75H16.6v0.083a0.339,0.339,0,0,1,.2.042l-0.574.042c-0.1-.239-0.238-0.227-0.574-0.208v0.125H15.574a0.639,0.639,0,0,1-.328.042V26.708a2.525,2.525,0,0,1-.533-0.042,0.247,0.247,0,0,1-.082.167,1.035,1.035,0,0,1-.574-0.083c0.154-.006.144,0.02,0.2-0.083H13.893a0.206,0.206,0,0,0-.123-0.042V26.75H13.689a0.99,0.99,0,0,1-.7-0.042,0.3,0.3,0,0,0,.328-0.083H12.828a0.735,0.735,0,0,1-.779.042,0.294,0.294,0,0,0,.328-0.083H11.885a0.426,0.426,0,0,1-.451.125,0.2,0.2,0,0,0-.041-0.125,0.979,0.979,0,0,0-.451-0.042,0.481,0.481,0,0,1-.615.042c0.133-.035.063,0.02,0.123-0.083H10.123A0.207,0.207,0,0,0,10,26.458v0.125a1.375,1.375,0,0,1-.492,0V26.417a4.488,4.488,0,0,1-.943.083V26.333a1.423,1.423,0,0,1-.451-0.042v0.125a1.556,1.556,0,0,1-.492,0c-0.042-.22-0.2-0.184-0.451-0.167a0.458,0.458,0,0,1-.451.125c-0.088-.222-0.176-0.225-0.492-0.208a0.426,0.426,0,0,1-.492.083A0.117,0.117,0,0,0,5.7,26.208V26.083c-0.491,0-.482.094-0.9,0.083C4.759,26,4.826,26.012,4.59,26c-0.068-.04-0.546.05-0.779,0.042V25.875c-0.453-.032-0.48.041-0.943,0.042V25.75a0.867,0.867,0,0,0-.287-0.042c-0.083-.031-0.45.062-0.656,0.042-0.033-.156.04-0.129-0.123-0.167a0.768,0.768,0,0,0-.656-0.042c-0.081-.1-0.206-0.145-0.287-0.25a0.253,0.253,0,0,0,.082-0.083,3.025,3.025,0,0,0-.492-0.375,0.252,0.252,0,0,1-.082.083A0.7,0.7,0,0,0,.2,24.583a1.248,1.248,0,0,0-.041-0.667H0L0.041,23.5H0.164A1.007,1.007,0,0,1,.287,23C0.246,22.874.164,22.915,0.2,22.792a1.308,1.308,0,0,1,.615-0.5C0.956,22.173.781,22.127,0.861,22c0.038-.061.194-0.1,0.246-0.167a0.7,0.7,0,0,0,.615-0.167L1.639,21.5a1.793,1.793,0,0,0,.9-0.417A0.215,0.215,0,0,1,2.5,20.958a0.392,0.392,0,0,0,.2-0.125,0.7,0.7,0,0,0,.369,0,0.635,0.635,0,0,0,.246-0.292,0.152,0.152,0,0,1-.041-0.083,2.931,2.931,0,0,0,.861-0.333c-0.013-.118-0.043-0.086,0-0.167a3.822,3.822,0,0,1,.82-0.333l-0.041-.208a1.591,1.591,0,0,0,.82-0.333,0.577,0.577,0,0,1,.041-0.167,1.738,1.738,0,0,0,.2-0.167,0.209,0.209,0,0,0,.246.042A0.49,0.49,0,0,0,6.6,18.375c0.05-.023.136-0.116,0.164-0.125a1.209,1.209,0,0,0,.287.042,1.5,1.5,0,0,0,.369-0.25c0-.033-0.091-0.1-0.041-0.167,0.038-.052.2-0.076,0.246-0.125a0.335,0.335,0,0,0,.287.042,2,2,0,0,0,.369-0.208,0.692,0.692,0,0,1,.041-0.167,0.841,0.841,0,0,1,.41,0,1.738,1.738,0,0,0,.451-0.25,2.371,2.371,0,0,1,.451-0.083c1.046-.375,2.17-0.817,3.2-1.25,0.244-.1.452-0.1,0.7-0.208A6.467,6.467,0,0,0,14.508,15a1.361,1.361,0,0,0,.328-0.167V13.125c0.028-.032.054-0.093,0.082-0.125a0.2,0.2,0,0,0,.041.125c0.087-.161.277-0.07,0.369,0A0.2,0.2,0,0,1,15.369,13c0.035,0.373,0,.964,0,1.458H15.41A2.78,2.78,0,0,0,16.311,13.708Zm4.426,0.542v1.333a1.125,1.125,0,0,1,.41.083c-0.165-.006-0.224-0.023-0.287.083h0.41V15.292h0.615a1.013,1.013,0,0,0,.041.458V15c0.588,0,1.1-.008,1.6,0V14.958c-0.238-.118-0.459-0.312-0.7-0.417A5.22,5.22,0,0,0,20.738,14.25Zm-5.861.25a0.446,0.446,0,0,0,.041.25A0.446,0.446,0,0,0,14.877,14.5Zm1.189,1.125V14.5H15.984a1.734,1.734,0,0,0-.615.542,2.124,2.124,0,0,1,.041.833h0.123a0.414,0.414,0,0,0,.2-0.125s-0.163-.018-0.082-0.042H15.7A0.987,0.987,0,0,1,16.066,15.625Zm-1.189-.375a1.263,1.263,0,0,0,.041.542A1.26,1.26,0,0,0,14.877,15.25Zm-1.557.833a0.2,0.2,0,0,0,.041.125,1.115,1.115,0,0,1,.492-0.083V15.958h0.082c0.239-.133.653,0.27,0.861-0.083-0.011-.027.038-0.38,0.041-0.583H14.8A3.076,3.076,0,0,1,13.32,16.083ZM4.467,26.042H4.549v0.042A0.139,0.139,0,0,1,4.467,26.042ZM6.434,26.25H6.516v0.042A0.14,0.14,0,0,1,6.434,26.25Zm0.984,0.083H7.5v0.042A0.139,0.139,0,0,1,7.418,26.333Zm0.943,0.083H8.443v0.042A0.139,0.139,0,0,1,8.361,26.417Zm0.9,0.083H9.344v0.042A0.14,0.14,0,0,1,9.262,26.5Zm1.967,0.125a0.261,0.261,0,0,1,.164.042A0.262,0.262,0,0,1,11.23,26.625Zm13.115,0.083h0.082V26.75A0.139,0.139,0,0,1,24.344,26.708Zm-1.025.083a0.523,0.523,0,0,1,.287.042A0.523,0.523,0,0,1,23.32,26.792Zm-0.943.042a0.262,0.262,0,0,1,.164.042A0.261,0.261,0,0,1,22.377,26.833Z" transform="translate(0 0.016)"/>
</svg>
