<svg xmlns="http://www.w3.org/2000/svg" width="80" height="40" viewBox="0 0 80 40">
  <defs>
    <style>
      .cls-1 {
        fill: #fff;
        fill-rule: evenodd;
      }
    </style>
  </defs>
  <path id="Color_Fill_1" data-name="Color Fill 1" class="cls-1" d="M79.256,18.571c0.1,1.1.074,2.468,0.074,3.686a1.578,1.578,0,0,0,.223,1.279,0.9,0.9,0,0,1,.447.226c-0.729.44-1.458,2.08-1.935,2.858-1.43,2.334-2.689,5.2-4.837,6.77a9.019,9.019,0,0,1-3.2,1.2c-0.559.144-1.27,0.023-1.786,0.151h-3.2a23.556,23.556,0,0,1-4.54.075H51.423v0.3H51.349v0.075l-2.53.451-0.149-.9H43.981a10.7,10.7,0,0,0-2.754-.075H33.935l-16.3-.15c-3.432,0-6.758-.186-9.377.526-1.5.408-3.05,0.617-4.391,1.053a2.352,2.352,0,0,0-.67.151,1.2,1.2,0,0,1,.074.6H3.126a0.268,0.268,0,0,0-.149-0.075V37a0.358,0.358,0,0,1-.223-0.075,0.272,0.272,0,0,1-.074-0.151A1,1,0,0,1,2.6,36.248h-0.3a7.274,7.274,0,0,1,.223-1.5H2.679a3.433,3.433,0,0,1,.447.978H3.2V35.646a2.3,2.3,0,0,0,0-1.2,5.729,5.729,0,0,0-1.563-.075V34.292H1.563v0.075a5.078,5.078,0,0,1,.074,1.88,0.852,0.852,0,0,1-.521.15,2.14,2.14,0,0,0-.6-0.15C0.434,35.514.071,34.994,0,34.217H0.67c0.156-.328.49-0.667,0.6-0.978a4.98,4.98,0,0,0-.074-1.655c-0.05-1.5-.037-3.106,0-4.212H1.34c0.011,0.283-.035.264,0.149,0.376a0.212,0.212,0,0,1,.074-0.075,10.978,10.978,0,0,1-.074-3.009v-0.9a5.311,5.311,0,0,1-.372-0.9H1.265v0.15L2.828,26.77H2.977c0.029-.19-0.043-0.119.223-0.15a0.268,0.268,0,0,1,.149-0.075V26.77a1.743,1.743,0,0,1,.6.075v-0.3C4.3,26.6,4.25,26.717,4.614,26.77a1.089,1.089,0,0,0-.074-0.376,1.135,1.135,0,0,1,.447-0.15,7.077,7.077,0,0,0,1.637.075,0.408,0.408,0,0,0,0,.376,0.5,0.5,0,0,0,.3.075c0.271-.445.537,0.02,0.6-0.6a0.624,0.624,0,0,1,.223-0.15,5.308,5.308,0,0,1,2.158-.15V25.792a0.291,0.291,0,0,1-.149-0.226H9.823a0.562,0.562,0,0,1,.223.226H9.972v0.075h0.6a0.8,0.8,0,0,1,.075-0.451,1.287,1.287,0,0,0,.074.451,2.657,2.657,0,0,1,.744.15l0.744-.15a4.182,4.182,0,0,1-.074-1.053h0.3l0.074-.978c0.151-.117.213-0.263,0.372-0.376a0.768,0.768,0,0,1,.447-0.151,7.28,7.28,0,0,1-.3,1.429h0.967a0.8,0.8,0,0,1,.149.376,3.028,3.028,0,0,0-.074,1.58,31.034,31.034,0,0,0,4.168-.151,10.112,10.112,0,0,1,.446-3.761,3.221,3.221,0,0,1,2.381,2.332c0.136,0.515-.1,1.079,0,1.429h0.223c0-1.094,0-2.395,0-3.535a3.029,3.029,0,0,1,.893-0.075,5.315,5.315,0,0,1,1.042,0c0,1,.006,2.379,0,3.535h0.3V25.642a0.358,0.358,0,0,1-.223-0.075h0.223a30.659,30.659,0,0,1,.074-4.137h0.893v-0.15c-0.417-.388-0.1-0.3-0.223-0.527-0.144-.272-1.155-0.16-1.563-0.15a3.3,3.3,0,0,0-.968,0V20.376L22.7,20.451V20.376h0.074V20.15a10.907,10.907,0,0,0,3.87-.752V19.323a1.065,1.065,0,0,1-.744-0.15c0.494-.022.755-0.014,1.265,0a1.343,1.343,0,0,0,.67.827l-0.075.226c-0.44.066-.539,0.3-0.521,0.827,0.264,0.075.444,0.3,0.67,0.376,0.37,0.129.924-.076,1.116,0.226a0.936,0.936,0,0,0-.223.9H28.428a1.907,1.907,0,0,0-.074.6H29.4l0.075-.9a2.043,2.043,0,0,1,.521-0.376,0.5,0.5,0,0,1,.3-0.075,5.463,5.463,0,0,1-.3,1.2h0.447a3.943,3.943,0,0,0,1.86,0,0.366,0.366,0,0,1,.074-0.226v0.226a4.211,4.211,0,0,1,1.637.075H32.372V23.31a15.671,15.671,0,0,0,1.86-.075,5.419,5.419,0,0,1,.3-1.2L35.051,19.1a13.392,13.392,0,0,0,.521-2.407l-2.753.3L32.6,14.659H32.67V14.584l3.423-.376V14.058a2.569,2.569,0,0,0,.149-0.752c0.111-.425.276-0.995,0.372-1.429l-0.149-1.73H36.316a9.517,9.517,0,0,1-2.009.752c-1.684.707-3.469,1.227-5.209,1.956-4.613,1.932-9.526,3.484-14.14,5.416-1.228.514-2.421,0.768-3.646,1.279-2.077.867-4.267,1.52-6.4,2.407-1.006.419-2.28,1.175-3.423,1.128V22.934a5.248,5.248,0,0,0,.521-0.376c0.668-.3,1.39-0.493,2.009-0.752,2.742-1.145,5.578-1.967,8.261-3.084,1.377-.573,2.718-0.856,4.093-1.429,3.853-1.605,7.977-2.905,11.833-4.513,2-.836,4.078-1.447,6.028-2.257,0.528-.219,2.034-0.461,2.158-0.978a1.336,1.336,0,0,1,0-1.053h0.744l-0.67-5.416A1.848,1.848,0,0,1,37.061,3V3.15c-0.437-.01-0.383-0.075-0.372.451a11.021,11.021,0,0,1,.372,2.934h0.149a4.5,4.5,0,0,1,1.488,0,12.744,12.744,0,0,1-1.414.075,1,1,0,0,0-.149.6c0.149,0.246.068,0.74,0.223,0.978,0.011-.283-0.035-0.264.149-0.376a16.793,16.793,0,0,1,2.53.752c2.662,0.893,5.431,1.387,8.037,2.257,1.415,0.472,2.792.6,4.242,1.053,3.577,1.107,7.437,1.753,11.014,2.858l2.977,0.677c2.422,0.752,4.967,1.151,7.516,1.881A31.772,31.772,0,0,0,79.256,18.571ZM37.73,3h0.149V3.075A0.254,0.254,0,0,1,37.73,3ZM38.4,14.584h0.372V14.208H39v0.15a0.386,0.386,0,0,1,.075.226,0.544,0.544,0,0,0-.521.451c0.416,0.7.02,2.413,0.447,3.084a0.5,0.5,0,0,0,.3.075,9.506,9.506,0,0,0,.074-2.482h0.074a2.264,2.264,0,0,0,.074.978,3.614,3.614,0,0,0-.074-1.053h0.744v0.075H39.665a11.573,11.573,0,0,1,0,2.557,0.885,0.885,0,0,1-.447.226v0.075h0.744a8.175,8.175,0,0,0,3.126-.075l0.744,0.075a1.763,1.763,0,0,1,.149-0.3,0.6,0.6,0,0,1,.6.3H46.14v1.2H45.247v0.151a0.477,0.477,0,0,1,.3.075c-0.266.031-.187-0.035-0.3,0.15h0.372a0.854,0.854,0,0,0,.67.075,0.811,0.811,0,0,1-.372-0.151H46.14V19.85l1.116,0.075V20.3a1.393,1.393,0,0,0-.893,0l1.712,0.3V20.527a15.194,15.194,0,0,1-2.381-2.858C44.255,15.731,42.458,14.053,41,12.1c-0.659-.885-1.486-1.656-2.158-2.558a4.792,4.792,0,0,1-.967-1.128H37.8v0.3c0.132,0.322.142,1.3,0.3,2.031v1.429Zm12.2,6.394c0.032,0.494.226,0.27,0.372,0.526a0.45,0.45,0,0,1-.074.376,2.648,2.648,0,0,0,.893,1.354v-0.3c1.1,0.155.563,0.729,0.968,1.429a1.166,1.166,0,0,0,.6.075,2.833,2.833,0,0,1,1.414-.15l3.2-.075c0.062-.244-0.036-0.115.149-0.226v0.226h0.521V23.836l2.084-.075v0.15a0.385,0.385,0,0,0-.074.226h0.3v-0.3H61.1v0.3c1.365,0.006,4.207.185,5.284-.3a6.688,6.688,0,0,1,.223-1.053,3.054,3.054,0,0,1-.223-0.226l-0.074-.827,0.447,0.075c0.09,0.152.3,0.242,0.372,0.376,0.364,0.664-.333.933,0.893,0.9v0.6c0.773,0.015,2.175.318,2.679-.075a0.657,0.657,0,0,0,.074-0.376s-0.291-.015-0.149-0.075h0.149c0.109-.19.033-0.116,0.3-0.151a0.456,0.456,0,0,0,.149.151,0.487,0.487,0,0,0-.149.376,1.238,1.238,0,0,0,.819.226v-0.15a0.385,0.385,0,0,1-.074-0.226L73.9,23.31v0.376h0.149c0.411-.26,3.224-0.157,4.019-0.15l0.074-.3h0.074c0.007,0.488.26,0.326,0.893,0.3v-0.15a6.244,6.244,0,0,0,.074-2.257H79.107v0.151a0.272,0.272,0,0,0-.074.15H78.958V21.2c0.359-.381.237-1.527,0.223-2.257a17.669,17.669,0,0,1-3.051-.752c-1.61-.465-3.25-0.661-4.763-1.128-3.425-1.059-7.013-1.545-10.344-2.633-1.6-.522-3.159-0.633-4.763-1.128-4.28-1.322-8.788-2.169-12.949-3.535C41.66,9.227,39.979,9.027,38.4,8.416V8.491a18.407,18.407,0,0,1,1.861,2.257c0.722,0.967,1.645,1.8,2.381,2.783l0.521,0.451c1.031,1.38,2.348,2.572,3.349,3.911,0.455,0.609,1.978,2.8,2.753,2.858A3.257,3.257,0,0,0,50.6,20.978ZM36.688,9.619l0.372-.075,0.149-.827a2.423,2.423,0,0,0-.744-0.075V8.717A1.108,1.108,0,0,1,36.688,9.619Zm0.744-.451v0.15h0.149V9.168H37.433Zm0.074,0.527V10h0.149A0.3,0.3,0,0,0,37.507,9.695Zm-0.744.3a1.289,1.289,0,0,0,.074.451h0.074V10.071h0.074V10H36.763Zm0.521,4.739H37.8a5.612,5.612,0,0,0,.075-1.5,1.44,1.44,0,0,1-.149-0.978,0.366,0.366,0,0,0,.074.226V12.1H37.656a0.258,0.258,0,0,1-.074.15L37.358,10H37.284v0.075C36.557,11.1,37.255,13.3,37.284,14.735Zm0.3-4.513a2.5,2.5,0,0,0,.149,1.128A1.72,1.72,0,0,0,37.581,10.221ZM36.688,12.7a4.034,4.034,0,0,0-.149,1.128c0.1,0.162.2,0.27,0.3,0.451h0.149V14.208C36.753,13.816,36.936,13.071,36.688,12.7Zm0,1.58c0.212,2.095.757,4.159,0.819,6.319h0.149V20.451a3.434,3.434,0,0,0-.074-1.5C37.355,17.97,37.3,14.7,36.688,14.283Zm0.893,0.526c-0.055.066-.094,0.085-0.149,0.151h0.074a1.72,1.72,0,0,0,.447.527v-0.6A1.156,1.156,0,0,0,37.581,14.81Zm-0.223.226A20.8,20.8,0,0,0,37.8,18.42a4.065,4.065,0,0,0,.223,1.429V19.7a3,3,0,0,0,.074-1.2l-0.149-2.858C37.707,15.468,37.6,15.205,37.358,15.035Zm-2.679,7.9a2.862,2.862,0,0,1,1.191.075,4.4,4.4,0,0,0-1.265.075v0.15h1.414a0.638,0.638,0,0,1,.372-0.075V22.934a0.477,0.477,0,0,1-.3-0.075c0.479-.077.385-0.429,0.6-0.752a3.314,3.314,0,0,0,.521-0.677l-0.6-4.889-0.67.075v0.151a6.034,6.034,0,0,0-.3,1.5A35.986,35.986,0,0,0,34.679,22.934ZM38.4,16.841l0.074,2.031h0.074V18.8A3.366,3.366,0,0,0,38.4,16.841Zm1.042,0.677a0.8,0.8,0,0,0,.074.451A0.8,0.8,0,0,0,39.442,17.518ZM26.94,19.4a0.288,0.288,0,0,0,.223.151V19.474Zm-0.3.075a4.816,4.816,0,0,1-1.637.6V20.15h0.223A18.462,18.462,0,0,1,27.386,20V19.925C27.056,19.808,27,19.582,26.642,19.474ZM45.619,20a0.358,0.358,0,0,1,.223.075H45.619V20Zm-21.135.6,0.074,0.226h0.149v-0.15h0.074V20.6h-0.3Zm54.4,0.827a0.4,0.4,0,0,1,0,.376H78.809V21.58A0.272,0.272,0,0,0,78.884,21.429Zm-0.149.376a0.6,0.6,0,0,1-.074.527H78.586V22.106A0.539,0.539,0,0,0,78.735,21.805Zm-0.223.527a0.6,0.6,0,0,1-.074.526H78.363V22.633A0.539,0.539,0,0,0,78.512,22.332Zm-0.223.526a0.4,0.4,0,0,1,0,.376H78.214V23.009A0.272,0.272,0,0,0,78.288,22.858Zm-47.777.3v0.15a7.8,7.8,0,0,0,1.34.075V23.31A2.677,2.677,0,0,0,30.512,23.159Zm1.637,0v0.075H32.074c-0.143.058,0.149,0.075,0.149,0.075A0.259,0.259,0,0,0,32.149,23.159Zm-2.754.3V23.235a3.5,3.5,0,0,0-1.042.075V23.46h0.3A2.934,2.934,0,0,1,29.4,23.46Zm22.326,0L51.8,23.686H51.87V23.46H51.721Zm7.219,0.226a0.357,0.357,0,0,1,.223.075H58.94V23.686Zm-6.921.3v0.151h0.074V23.987H52.019ZM2.6,26.77a8.63,8.63,0,0,0-1.042-2.633V27H1.637V26.845a0.455,0.455,0,0,1,.3-0.15A0.592,0.592,0,0,0,2.6,26.77Zm6.474-1.805H9.228V25.04A0.254,0.254,0,0,1,9.079,24.965Zm1.34,0h0.149v0.15H10.419v-0.15Zm-1.488.15A0.273,0.273,0,0,1,9,25.266H8.93V25.115Zm1.34,0.075a0.272,0.272,0,0,1,.074.15H10.27V25.19Zm-1.414.075a0.386,0.386,0,0,1,.074.226H8.856V25.266Zm1.265,0.15a0.272,0.272,0,0,1,.074.151H10.121V25.416Zm20.688,0.226c0.128,0.066.1,0.067,0.223,0H30.809Zm-2.381.075a0.216,0.216,0,0,0,.3,0h-0.3Zm0.521,0c0.128,0.066.1,0.067,0.223,0H28.949ZM7.963,26.77c0.128,0.066.1,0.067,0.223,0H7.963Zm0.744,0a0.877,0.877,0,0,0,.744,0H8.707Zm-7.293,1.2-0.074.15H1.414C1.4,28.229,1.488,28.2,1.488,28.2,1.579,28.106,1.414,27.973,1.414,27.973Zm0,0.376c0,1.489.059,3.061,0.074,4.438H1.563V32.712a2.518,2.518,0,0,0,.074-1.053C1.618,31.1,1.667,28.64,1.414,28.35ZM1.265,33.916a0.366,0.366,0,0,0-.074-0.226v0.075H1.116l-0.074.15H1.265Zm3.051,0.451a0.463,0.463,0,0,0-.149.3,2.006,2.006,0,0,0-.223.828,1.353,1.353,0,0,0,.447.075,3.771,3.771,0,0,1,1.042-.226C6.286,35.1,7.325,34.9,8.186,34.668a3.423,3.423,0,0,0,1.042-.226C8.02,34.452,5.257,34.685,4.316,34.367Z"/>
</svg>
