<svg xmlns="http://www.w3.org/2000/svg" width="40" height="40" viewBox="0 0 40 40">
  <defs>
    <style>
      .cls-1 {
        fill: #fff;
        fill-rule: evenodd;
      }
    </style>
  </defs>
  <path id="Color_Fill_1" data-name="Color Fill 1" class="cls-1" d="M16.209,18.168a3.3,3.3,0,0,1,.095-1.259h0.047L16.3,18.168l1.611-.048-0.663-.291a11.982,11.982,0,0,0-.095-2.422L16.4,15.359v-1.55a8.609,8.609,0,0,1,2.085,0,2.819,2.819,0,0,1,.711-0.823c0.322-.362,1.956-0.136,2.37-0.1V12.55h1v0.291l0.711,0.048a0.721,0.721,0,0,1,.379.581l0.616,0.1V12.986H24.55v0.581c1.116-.533,2.065.417,3.128,0.194,0.177,1.095,1.566.931,1.848,1.889l-0.19.145c2.4,0.082,5.414.155,8.1,0.145l-0.047.581-8.057.048a12.537,12.537,0,0,1-1.043,1.114l0.19,0.436-0.237.048h2.322v0.581c0.859,0.054,1.193.4,2.085,0.436-0.018.26-.1,0.236,0.095,0.339,0.113,0.172.267,0.166,0.379,0.339l0.142,0.678,3.175,0.387,0.047-.581H36.54L36.777,20.4v0.581l1.185,0.387,0.284-.339h0.142l0.806,0.969a3.115,3.115,0,0,1,.758.291A1.345,1.345,0,0,0,40,23.5H39.905a5,5,0,0,0-1.469.436A5.2,5.2,0,0,1,37.962,25a14.3,14.3,0,0,1-3.839,2.518c-1.851.588-4.193,0.436-6.493,0.436H9.289A13.969,13.969,0,0,1,5.308,26.16a6.215,6.215,0,0,0-1.043-1.065,3.156,3.156,0,0,0-.284-1.55l-0.521.291a1.48,1.48,0,0,0-.047-1.114l0.142,0.1a2.506,2.506,0,0,1-.332-0.92H3.175a1.719,1.719,0,0,1-1.469-.242c-0.129-.213-0.046-0.528-0.142-0.63A2.114,2.114,0,0,1,1,20.784,5.114,5.114,0,0,1,.9,19.04a1.209,1.209,0,0,1-.806-1.017L0,17.926l0.9-.775a2.21,2.21,0,0,1,0-.969l1.09-.678L3.981,11l1.374,0.63-0.095.436,0.19,0.1-0.332.775-0.284-.1L3.412,16.182l5.4-.484,0.095,0.1c-0.2,1.045,1.288,2.257,1.9,2.712a0.48,0.48,0,0,0,.474-0.291h0.142C12.183,18.352,14.646,18.159,16.209,18.168Zm1.327-2.761,0.095,0.145,0.19-.145H17.536Zm-8.768.533-0.379.048v0.048l0.047,0.242H8.815ZM8.1,15.989v0.339H8.341V15.989H8.1Zm-0.569.048v0.339H7.867V16.037H7.536Zm-0.427.387,0.379-.048V16.328c-0.1-.238-0.085-0.244-0.427-0.242Zm-0.569.048-0.047-.339-0.379.048,0.047,0.339Zm0.095-.339v0.339l0.379-.048V16.134H6.635Zm-0.569.387-0.047-.339H5.972l-0.332.048v0.048L5.735,16.57Zm-0.9-.242,0.047,0.339,0.379-.048-0.047-.339Zm-0.095.339V16.279l-0.427.048,0.047,0.339Zm-0.758-.291-0.19.049,0.047,0.339L4.6,16.667,4.55,16.328H4.313Zm-0.237.387V16.376l-0.427.048v0.339Zm4.36-.339v0.242l0.379-.048V16.376H8.436Zm-4.882.387V16.425H3.27l-0.095.194,0.047,0.1H3.318Zm4.028-.291v0.242l0.332-.048V16.425ZM8.1,16.425l0.047,0.242,0.237-.048-0.047-.194H8.1Zm-0.758.048-0.237.049,0.047,0.242,0.332-.048V16.473H7.346Zm-0.521.049-0.19.048,0.047,0.242,0.379-.049-0.047-.242H6.825Zm-0.663.339c0.31,0,.378,0,0.427-0.291l-0.427.048V16.86Zm-0.474.048,0.427-.048-0.047-.242H5.829l-0.142.048v0.242Zm-0.427-.242a0.384,0.384,0,0,0-.047.291H5.4l0.237-.049-0.047-.242H5.261Zm-0.569.048v0.291l0.427-.048V16.715H4.692Zm-0.521.048,0.047,0.291H4.5l0.142-.048C4.54,16.76,4.527,16.752,4.171,16.764ZM3.7,16.812v0.194l0.427,0.1V16.957l-0.047-.145H3.7Zm-0.19.048L3.6,16.909ZM0.9,17.248a2.364,2.364,0,0,0-.758.969c0.239,0.246.5,0.553,0.758,0.775A5.172,5.172,0,0,0,.9,17.248Zm17.251,1.017,0.142,0.387V18.313Zm-6.588.436-0.047.1h0.095ZM30.9,18.895l0.474,0.387v-0.1l0.047-.194Zm5.687,1.6v0Zm-34.645.678,0.047,0.291a0.31,0.31,0,0,0,.284-0.145l-0.047-.1Zm1,0.242L3.081,21.8l-0.142.048a0.307,0.307,0,0,0,.237-0.1A0.42,0.42,0,0,0,2.938,21.413Zm0.853,0.533,0.142,0.1Zm35.877,0.339,0.095,0.145,0.047-.145H39.668ZM3.7,22.866l-0.142.048L3.6,23.06,3.7,23.254c0.072-.111.087-0.059,0.047-0.194C3.758,22.894,3.8,22.988,3.7,22.866ZM8.673,26.45l-0.9-.242v0.048l0.047,0.1,0.853,0.339V26.45Zm4.171,0-0.095.533h0.616V26.935L13.27,26.45H12.844Zm4.6,0a1.031,1.031,0,0,1-.095.533H18.1a0.68,0.68,0,0,1-.095-0.533H17.441Zm5.213,0H22.133a0.818,0.818,0,0,1-.095.533h0.711V26.935Zm4.171,0-0.095.533h0.711V26.935l-0.095-.484H26.825Zm4.692,0-0.047.484,1.469-.194V26.692l-0.095-.1V26.5Zm-21.327.387-0.047.1,1.232,0.048V26.935A2.5,2.5,0,0,0,10.19,26.838Zm4.6,0-0.047.145h1.28A1.947,1.947,0,0,0,14.787,26.838Zm4.692,0-0.047.145h1.28A1.946,1.946,0,0,0,19.479,26.838Zm4.692,0-0.047.145H25.4l-0.095-.145H24.171Zm4.692,0-0.047.145h1.28A1.946,1.946,0,0,0,28.863,26.838Z" transform="translate(0 0.516)"/>
</svg>
