<?xml version="1.0" encoding="utf-8"?>
<!-- Generator: Adobe Illustrator 16.0.0, SVG Export Plug-In . SVG Version: 6.00 Build 0)  -->
<!DOCTYPE svg PUBLIC "-//W3C//DTD SVG 1.1//EN" "http://www.w3.org/Graphics/SVG/1.1/DTD/svg11.dtd">
<svg version="1.1" id="Layer_1" xmlns="http://www.w3.org/2000/svg" xmlns:xlink="http://www.w3.org/1999/xlink" x="0px" y="0px"
	 width="39.969px" height="40px" viewBox="0 0 39.969 40" enable-background="new 0 0 39.969 40" xml:space="preserve">
<path id="uk_mk1_grant_ico" fill="#FFFFFF" d="M14.113,8.816V8.668c0.064-0.028,0.124-0.067,0.173-0.117
	c0.086-0.005,0.173-0.005,0.26,0c-0.028-0.075-0.048-0.154-0.058-0.234H14.6V8.229c0.076,0,0.433-0.029,0.433-0.029l0.029-0.088
	c0,0,0.578,0.11,0.635,0.117c-0.002-0.148,0.017-0.296,0.058-0.439c0.214-0.109,0.453-0.159,0.693-0.146
	c0.028,0.208,0.119,0.401,0.26,0.556c0.173,0.006,0.347-0.004,0.519-0.029c0.536,0.109,1.09,0.089,1.616-0.059
	c0.111-0.03,0.068,0.063,0.115,0.088c0.189-0.001,0.376,0.039,0.548,0.117c-0.008,0.081-0.028,0.159-0.058,0.234
	c0.148,0.006,0.294,0.036,0.433,0.088v0.177c0.32-0.039,0.645-0.009,0.952,0.088c0.139,0.161,0.294,0.309,0.462,0.438
	c0.137,0.016,0.274-0.004,0.4-0.059l0.635,0.088c0.195,0.083,0.38,0.191,0.548,0.322l0.231,0.293
	c0.132,0.061,0.32-0.036,0.433,0.029c0.06,0.034,0.086,0.172,0.144,0.2h1.935v0.088c2.092,0,4.16,0.091,6.147,0.088v0.384
	c-1.988-0.011-4.058,0.084-6.147,0.088v0.088H23.9v0.088h0.173v0.029H24.1v0.088h0.088c0.039,0.082,0.06,0.172,0.058,0.264
	c-0.046,0.026-0.094,0.046-0.144,0.059c-0.018,0.12-0.047,0.237-0.088,0.351c0.029,0.395,0.436,0.291,0.145,0.878
	c-0.11,0.015-0.121,0.041-0.231,0.059v0.117h0.722v-0.089h0.26v0.12h0.199v-0.53c0.378-0.27,0.881-0.281,1.271-0.029v0.559
	c0.088,0.014,0.175,0.034,0.261,0.059v-0.121h0.23c0,0.032,0.01,0.063,0.029,0.088c0.418,0.075,0.844,0.104,1.27,0.088
	c0.463,0.116,0.938,0.175,1.414,0.176l0.029,0.234c0.233,0.133,0.521,0.143,0.52,0.527c-0.072,0.043-0.045,0.013-0.058,0.117h-0.146
	l-0.029,0.088c-0.027,0.064-0.037,0.135-0.028,0.205c0.313,0.383,0.661,0.735,1.039,1.054c0.208,0.062,0.421,0.111,0.635,0.146
	c1.921,0.366,3.878,0.494,5.83,0.381v-0.264h0.837v0.263h0.115v0.82h-0.115v0.264h-0.837v-0.264l-3.03,0.059l-1.732,0.029
	c-0.029,0.015-0.047,0.1-0.086,0.117c-0.341,0.057-0.654,0.221-0.896,0.468c0.032,0.014,0.062,0.034,0.087,0.059
	c0.063-0.025,0.133-0.035,0.2-0.028c0.055,0.146,0.144,0.276,0.26,0.381c0.096,0.017,0.192,0.026,0.289,0.029
	c0,0.059,0.01,0.119,0.029,0.176c0.14,0.137,0.324,0.22,0.521,0.233c-0.001,0.06,0.009,0.12,0.028,0.177
	c0.052,0.055,0.122,0.09,0.173,0.146c0.066-0.017,0.133-0.026,0.2-0.029c-0.001,0.032,0.01,0.063,0.028,0.089
	c0.346,0.195,0.716,0.343,1.101,0.438c0.081-0.205,0.235-0.372,0.433-0.468c0.035-0.021,0.075-0.032,0.115-0.029
	c-0.015,0.275,0.196,0.512,0.473,0.526c0.016,0.001,0.031,0.001,0.048,0.001v0.266h-0.175v0.029c0.042,0.101,0.09,0.198,0.145,0.293
	h0.837c0.004,0.137-0.005,0.274-0.028,0.41h1.1l0.722,0.199c0.022,0.038,0.042,0.077,0.058,0.117
	c0.085,0.044,0.172,0.083,0.261,0.117c0.161,0.116,0.274,0.318,0.433,0.439c0.354,0.252,0.689,0.526,1.01,0.819
	c0,0.5,0,1.044-0.029,1.493h-0.812c-0.007,0.541-0.167,1.068-0.462,1.521c-0.127,0.106-0.261,0.204-0.4,0.293l-0.028,0.146
	c-0.015,0.018-0.667,0.486-0.693,0.5h-0.176c-0.062,0.036-0.082,0.188-0.144,0.234c-0.184,0.148-0.377,0.285-0.578,0.41
	c-0.067-0.012-0.137-0.002-0.199,0.028l-0.029,0.146c-0.031,0.036-0.643,0.474-0.693,0.5h-0.146c-0.061,0.032-0.2,0.26-0.289,0.321
	c-0.128,0.105-0.262,0.203-0.4,0.293h-0.176c-0.036,0.055-0.065,0.114-0.087,0.177c-0.17,0.152-0.353,0.29-0.548,0.409
	c-0.107,0.014-0.215,0.004-0.318-0.028c-0.041,0.011-0.074,0.1-0.115,0.116c-0.254,0.063-0.518,0.082-0.778,0.06l-0.058-0.088
	c-0.103,0.006-0.201,0.036-0.289,0.088c-0.301,0.015-0.604-0.015-0.896-0.088c-0.296,0.115-0.622,0.126-0.924,0.028
	c-0.022-0.008-0.601,0.06-0.75,0.06s-0.415-0.082-0.491-0.06c-0.303,0.081-0.621,0.081-0.924,0c0,0-0.659,0.06-0.809,0.06
	c-0.143-0.03-0.289-0.03-0.433,0h-0.835c-0.032-0.046-0.088-0.069-0.145-0.06l-0.057,0.06c-0.316,0.101-0.873-0.067-1.068,0
	c-0.355,0.021-0.713,0.021-1.068,0c-0.355,0.021-0.713,0.021-1.068,0c-0.318,0.009-0.637-0.011-0.951-0.06
	c-0.303,0.08-0.621,0.08-0.924,0c0,0-0.611,0.06-0.75,0.06c-0.143-0.032-0.291-0.032-0.433,0c-0.355,0.021-0.712,0.021-1.068,0
	c-0.319,0.009-0.637-0.011-0.952-0.06l-0.029,0.06h-0.895c-0.031-0.048-0.088-0.071-0.144-0.06c-0.293,0.079-0.602,0.079-0.895,0
	c-0.021-0.006-0.649,0.06-0.808,0.06c-0.153-0.026-0.309-0.026-0.462,0h-0.808c-0.035-0.06-0.109-0.085-0.173-0.06l-0.029,0.06H12.9
	c-0.016-0.053-0.071-0.083-0.125-0.067c-0.007,0.002-0.013,0.005-0.02,0.008l-0.029,0.06h-0.808c-0.035-0.06-0.108-0.085-0.173-0.06
	l-0.029,0.06c-0.319,0.052-0.647,0.021-0.952-0.088c-0.265,0.11-0.556,0.142-0.837,0.088c-0.052-0.021-0.031-0.11-0.144-0.088
	c-0.031,0.027-0.061,0.057-0.087,0.088H8.889l-0.058-0.088c-0.125-0.039-0.123,0.119-0.289,0.088
	c-0.225,0.003-0.448-0.027-0.664-0.088L7.85,28.282l-0.289,0.034c-0.198-0.04-0.391-0.1-0.577-0.176
	c-0.08-0.088-0.179-0.156-0.289-0.201c-0.283-0.07-0.554-0.178-0.808-0.321L5.8,27.462l-0.289-0.028
	c-0.228-0.094-0.449-0.201-0.664-0.322L4.76,26.965c-0.076-0.014-0.154-0.014-0.231,0c-0.167-0.069-0.331-0.147-0.491-0.234
	c-0.12-0.055-0.238-0.232-0.315-0.264c-0.06-0.011-0.121-0.001-0.173,0.029c-0.268-0.108-0.528-0.235-0.779-0.38L2.684,25.97
	l-0.173,0.029c-0.247-0.12-0.479-0.267-0.693-0.438c-0.004-0.061-0.014-0.119-0.029-0.177c-0.146-0.079-0.28-0.178-0.4-0.293
	c-0.113-0.176-0.21-0.362-0.289-0.556c0.023-0.076,0.033-0.155,0.029-0.234c-0.013-0.031-0.1-0.074-0.115-0.117
	c-0.082-0.287-0.082-0.591,0-0.877H0.895C0.601,23.371,0.297,23.381,0,23.335v-0.03c0.131-0.217,0.228-0.453,0.289-0.699
	c0.156-0.367,0.364-0.752,0.519-1.112c0.021-0.104,0.06-0.202,0.115-0.293c0.404-0.267,0.773-0.581,1.1-0.938l-1.01,0.234
	c-0.025-0.036-0.045-0.075-0.058-0.117c-0.088-0.225-0.146-0.46-0.173-0.7c-0.192-0.51-0.32-1.043-0.382-1.585
	c0.123-0.065,0.188-0.167,0.317-0.233v-0.03c-0.13,0-0.133,0.009-0.173-0.088c0.046-0.019,0.085-0.049,0.115-0.088
	c0.066,0.052,0.047,0.061,0.091,0.061c0.097-0.026,0.179-0.09,0.231-0.176c0.004-0.166,0.054-0.328,0.144-0.468
	c0.319-0.017,0.628-0.117,0.895-0.293c-0.015-0.038-0.015-0.08,0-0.117c-0.042,0.004-0.085-0.008-0.12-0.031l0.375-0.029
	c0.136-0.04,0.27-0.089,0.4-0.146H3l0.75-0.146c0.016-0.034,0.036-0.065,0.06-0.094c0.11-0.047,0.113,0.037,0.173-0.058
	c-0.045-0.063-0.083-0.13-0.115-0.2c0.155-0.257,0.177-0.573,0.058-0.849c-0.022-0.064-0.16-0.208-0.173-0.264
	C3.74,14.789,3.83,14.667,3.84,14.582l1.1-0.117v-0.088l0.4-0.059v0.117H5.4c0.26-0.075,0.529-0.115,0.8-0.119
	c0.712-0.165,1.436-0.273,2.165-0.322v-0.115c0.136,0.013,0.273-0.007,0.4-0.059v0.117c0.457-0.148,0.946-0.169,1.414-0.059
	c-0.145,0.369-0.135,0.781,0.029,1.142H10.3c-0.029,0.155-0.048,0.311-0.058,0.468h0.029v0.028c0.129-0.032,0.258-0.112,0.375-0.146
	c0.248-0.045,0.5-0.055,0.75-0.029c0.043,0,0.162-0.1,0.231-0.117v0.092c-0.079,0.047-0.028,0-0.029,0.117
	c0.195,0.07,0.413,0.011,0.548-0.146c-0.031-0.085-0.051-0.173-0.058-0.263l-0.115-0.029v-0.443c0.103-0.28,0.132-0.583,0.087-0.878
	c0.068-0.044,0.149-0.064,0.231-0.059c0.054,0.026,0.114,0.036,0.173,0.029v-0.116h0.173v-0.147
	c0.213-0.111,0.331-0.348,0.289-0.585c-0.448-0.279-1.642-0.331-1.9-0.732c-0.137-0.435-0.176-0.895-0.115-1.347
	c-0.093-0.373,0.005-0.767,0.26-1.054l0.375-0.088c0.456-0.15,0.967-0.3,1.414-0.468c0.13-0.022,0.256-0.061,0.375-0.117
	c0.305-0.329,0.057-0.942,0.173-1.493c0.028-0.282,0.028-0.567,0-0.849V4.541c-0.034-0.341-0.024-0.686,0.027-1.025h0.029v1.552
	c0.055,0.358,0.065,0.722,0.029,1.083c-0.058,0.908-0.028,1.82,0.087,2.722h0.12C13.895,8.819,14.005,8.799,14.113,8.816z
	 M1.76,16.66c0.032-0.001,0.063,0.01,0.087,0.029C1.815,16.689,1.785,16.68,1.76,16.66z"/>
</svg>
