<?xml version="1.0" encoding="utf-8"?>
<!-- Generator: Adobe Illustrator 16.0.0, SVG Export Plug-In . SVG Version: 6.00 Build 0)  -->
<!DOCTYPE svg PUBLIC "-//W3C//DTD SVG 1.1//EN" "http://www.w3.org/Graphics/SVG/1.1/DTD/svg11.dtd">
<svg version="1.1" id="Layer_1" xmlns="http://www.w3.org/2000/svg" xmlns:xlink="http://www.w3.org/1999/xlink" x="0px" y="0px"
	 width="40px" height="40px" viewBox="0 0 40 40" enable-background="new 0 0 40 40" xml:space="preserve">
<path id="Color_Fill_1" fill="#FFFFFF" d="M8.011,15.46H8.25c-0.011-2.868,0.026-6.066,0.027-9.064H8.33v5.323
	c-0.051,0.323-0.06,0.65-0.027,0.975c-0.058,0.931-0.04,1.865,0.053,2.793l0.452,0.079c0.006,0.056,0.024,0.11,0.053,0.158
	c0.271-0.068,0.552-0.076,0.826-0.024l-0.053-0.105h0.08V15.7c0.186-0.006,0.551-0.065,0.559-0.053
	c0.064,0.08,0.165,0.12,0.266,0.105c0.021-0.042,0.061-0.071,0.107-0.079V15.7h-0.027c-0.051,0.02,0.053,0.026,0.053,0.026
	c0.022-0.085-0.013-0.04,0.053-0.079v0.026H10.7c-0.051,0.02,0.053,0.026,0.053,0.026c0.03-0.028,0.077-0.028,0.107,0
	c-0.029,0-0.057,0.008-0.08,0.026h0.08V15.7h0.027l-0.027-0.053h0.027c0.048-0.035,0.103-0.062,0.16-0.079
	c0.054-0.043-0.019-0.031,0.053-0.053c0.029,0.06,0.095,0.092,0.16,0.079v-0.029c-0.021-0.013-0.04-0.031-0.053-0.053h0.053
	c0.088,0.063,0.188,0.108,0.293,0.132c-0.003-0.063,0.027-0.123,0.08-0.158c0.021,0.018,0.059,0.035,0.08,0.053
	c-0.021,0.023-0.04,0.05-0.053,0.079h0.13v-0.026c-0.066-0.034-0.018,0.011-0.053-0.053c0.039-0.029,0.085-0.047,0.133-0.053
	c-0.03,0.058-0.006,0.129,0.052,0.159c0.034,0.018,0.074,0.017,0.108,0c0.124-0.072,0.135,0.011,0.266,0.026
	c0.058,0.007,0.07-0.044,0.16-0.053v-0.078c0.13,0.027,0.072,0.064,0.106,0.079c0.091,0.041,0.1-0.07,0.133-0.079
	c0.023-0.029,0.027,0.026,0.027,0.026c0.12,0.039,0.248,0.048,0.373,0.026c-0.028-0.074-0.007-0.159,0.053-0.211
	c0.083-0.043,0.173-0.07,0.266-0.079v-0.447c-0.067-0.039-0.041-0.012-0.053-0.105c0.391,0.028,0.783,0.02,1.171-0.026l0.506,0.026
	c0.278-0.112,0.579-0.157,0.878-0.132V14.59c-0.115-0.161-0.204-0.339-0.266-0.527h0.05c0.282-0.128,0.591-0.183,0.9-0.158
	c0.072,0.243,0.18,0.473,0.319,0.685c0.048,0.069,0.067,0.154,0.053,0.237h0.985c0.177,0.064,0.373,0.055,0.543-0.027h-0.057v0.026
	h-0.026c-0.017-0.151-0.043-0.301-0.08-0.448h-0.054c0.007,0.054-0.003,0.109-0.027,0.158v-0.025
	c-0.014-0.014-0.023-0.033-0.027-0.053c0.031-0.075,0.049-0.155,0.053-0.237c-0.015-0.012-0.033-0.019-0.052-0.021v0.079h-0.106
	v-0.031c0.021-0.013,0.04-0.031,0.053-0.053c-0.1-0.046-0.213-0.055-0.319-0.026c0-0.077,0.026-0.037,0-0.079
	c-0.097,0.015-0.196,0.015-0.293,0c0.066-0.034,0.018,0.011,0.053-0.053c-0.043-0.016-0.088-0.024-0.133-0.026
	c-0.032,0.02-0.069,0.029-0.106,0.026l-0.027-0.158H17.3c-0.004-0.127,0.023-0.254,0.08-0.369c0.16,0.011,0.32,0.011,0.479,0
	c0-0.028,0.009-0.056,0.027-0.079c0.077-0.028,0.159-0.037,0.24-0.026v0.026h0.024v0.079c0.242,0.026,0.486-0.029,0.692-0.158
	c-0.068-0.038-0.03,0.006-0.053-0.079h0.027v-0.027l0.08,0.026v0.079h0.133v-0.026H19c-0.051-0.02,0.053-0.026,0.053-0.026
	c0.01,0.05,0.056,0.084,0.107,0.079c0.031-0.094-0.027-0.124,0.133-0.132v0.026c-0.038,0.021-0.059,0.063-0.053,0.105
	c0.06,0.019,0.123,0.027,0.186,0.026c-0.01-0.043-0.01-0.088,0-0.132c0.023-0.017,0.051-0.026,0.08-0.026v0.026h0.027
	c-0.02,0.069-0.032,0.063-0.053,0.132h0.24c0.044-0.06,0.072-0.011,0.213,0c-0.009-0.034-0.009-0.07,0-0.105
	c0.044,0.042,0.1,0.069,0.16,0.079c0-0.071-0.035-0.042,0.053-0.079c0.007-0.011,0.016-0.02,0.027-0.026
	c0,0.1-0.026,0.072,0.106,0.079c0.041-0.022,0.087-0.031,0.133-0.026c0.014-0.073,0.084-0.12,0.157-0.105c0.001,0,0.002,0,0.003,0
	c0.093,0.038,0.192,0.056,0.293,0.053c0-0.107-0.043-0.063,0.027-0.105l0.026,0.053c0.019,0.041,0,0,0,0.079
	c0.245,0.052,0.495,0.087,0.745,0.105c0.08,0.094,0.143,0.2,0.186,0.316h1.601c0.192,0.042,0.392,0.042,0.585,0v0.158
	c-0.666-0.053-1.336-0.045-2,0.026c-0.125-0.007-0.25,0.002-0.373,0.026h0.213v0.184c-0.052,0.017-0.105,0.026-0.16,0.026v0.105
	h0.105v0.026H21.8c-0.168,0.085-0.347,0.147-0.532,0.184c0.004-0.037-0.006-0.074-0.026-0.105c0,0.175-0.011,0.24,0,0.4h-0.08v0.079
	h-0.11v0.079H20.2v0.026c0.051,0.046,0.071,0.118,0.053,0.184c-0.029,0-0.057,0.008-0.08,0.026H20.2
	c0.123,0.067,0.26,0.103,0.399,0.105c0-0.029,0.01-0.057,0.027-0.079v0.053c0.029,0.041,0.065,0.076,0.107,0.105l-0.027-0.079h0.027
	v0.026c0.021,0.033,0.039,0.068,0.053,0.105c0.078-0.01,0.033-0.043,0.08,0.026c0.035,0.048,0.063,0.101,0.08,0.158
	c0.117,0.001,0.228,0.06,0.293,0.158c0-0.1-0.012-0.093,0.053-0.132v-0.026h0.027v0.026c0.018,0.023,0.026,0.051,0.027,0.079
	c-0.033,0.02-0.061,0.047-0.08,0.079c0.024-0.013,0.055-0.013,0.08,0v-0.026L21.316,15.7h0.054c0.3,0.1,0.614,0.153,0.931,0.158
	c-0.035,0.015-0.02,0-0.027,0.026l0.026,0.05h0.054c0.029-0.076,0-0.049,0.08-0.079c0.006,0.011,0.016,0.02,0.026,0.026
	c-0.028,0.025-0.055,0.051-0.08,0.079c0.164,0.021,0.319,0.084,0.452,0.184V16.2c-0.029-0.001-0.057,0.008-0.08,0.026h0.027
	c0.033,0.021,0.069,0.04,0.107,0.053c-0.05,0.077-0.037,0.038-0.027,0.158h0.053c0.023,0.017,0.051,0.026,0.08,0.026v-0.028
	c-0.042-0.016-0.078-0.043-0.105-0.079h0.079c0.095,0.169,0.296,0.247,0.479,0.184c0.003,0.034,0.023,0.063,0.053,0.079v-0.026
	l-0.027-0.026h0.053c0.127,0.08,0.277,0.117,0.427,0.105v-0.025c-0.034-0.023-0.046-0.068-0.027-0.105h0.027v0.025h0.026
	c-0.006,0.053-0.006,0.105,0,0.158c0.037-0.002,0.073-0.012,0.107-0.025c-0.033-0.056-0.043-0.121-0.027-0.184h0.027l0.027,0.053
	c0.006,0.053,0.006,0.105,0,0.158c0.02,0.002,0.039,0.012,0.053,0.025c0.055-0.021,0.101-0.057,0.133-0.105
	c0.012,0.095-0.013,0.066,0.053,0.105c0.016,0.014,0.033,0.023,0.053,0.025c0-0.078-0.008-0.076,0.134-0.078
	c0.042-0.033,0.014-0.018,0.053,0h0.027c-0.011,0.06-0.024,0.029,0,0.078c0.076,0.031,0.159,0.04,0.239,0.027v-0.08h0.08
	c-0.003,0.037-0.012,0.072-0.026,0.105h0.106v-0.053c0.053-0.043-0.02-0.031,0.053-0.053v0.025c0.017,0.023,0.026,0.051,0.027,0.079
	c0.125,0.017,0.25,0.044,0.372,0.079c-0.025-0.041-0.025-0.092,0-0.133V16.8c0.018,0.022,0.026,0.051,0.027,0.079
	c0.063-0.01,0.126-0.027,0.187-0.053c0.039,0.051,0.096,0.088,0.159,0.105c0.028-0.024,0.056-0.051,0.08-0.08h0.373v0.08
	c-0.134-0.012-0.269-0.002-0.399,0.025v0.053c0.172,0.131,0.372,0.221,0.584,0.264l0.027,0.158c-0.057,0.006-0.111,0.023-0.16,0.053
	v0.025h1.678v0.158c0.195-0.003,0.391,0.006,0.584,0.025v-0.021c-0.032-0.02-0.06-0.046-0.08-0.079h0.08
	c0.068,0.078,0.035,0.094,0.16,0.105c0.023,0.017,0.052,0.025,0.08,0.025v-0.052c-0.041-0.021-0.071-0.06-0.08-0.104h0.08
	c0.11,0.189,0.11,0.164,0.452,0.158V17.7c-0.042-0.021-0.071-0.06-0.079-0.105h0.053c0.078,0.109,0.11,0.11,0.346,0.105
	c0.049-0.101,0.08-0.036,0.213-0.054c0.01-0.068-0.02-0.033,0.053-0.053c0.051,0.022,0.109,0.022,0.16,0
	c0.1-0.078,0.021-0.15,0.105-0.211c-0.004,0.046,0.005,0.092,0.027,0.133c0.023-0.018,0.052-0.026,0.08-0.026l-0.027-0.158h0.029
	c0.015,0.014,0.033,0.022,0.053,0.026c0.006,0.095-0.039,0.055,0.054,0.078c0.13-0.07,0.282-0.089,0.426-0.053
	c0.022-0.051,0.04-0.104,0.054-0.158l0.079,0.026c0.017,0.042,0.025,0.087,0.027,0.132c0.052-0.014,0.107-0.014,0.159,0
	c0-0.083-0.045-0.035,0.027-0.078c0.079,0.072,0.188,0.102,0.293,0.078c0.076-0.066-0.018-0.1,0.133-0.132
	c0.016,0.014,0.033,0.022,0.054,0.026c-0.02,0.041-0.02,0.09,0,0.132c0.021-0.003,0.038-0.012,0.053-0.026
	c0.054-0.07-0.022-0.07,0.134-0.078v0.025c-0.068,0.038-0.031-0.006-0.054,0.079h0.026c0.281-0.017,0.563,0.028,0.826,0.132
	c0.023-0.1,0.025-0.09,0.133-0.105v0.026c-0.051,0.028-0.155,0.088-0.106,0.132c0.05,0.045,0.08,0.049,0.106,0
	c0.018-0.022,0.026-0.051,0.027-0.078h0.079c-0.021,0.055-0.047,0.107-0.079,0.157c0.036,0.003,0.072,0.012,0.106,0.026
	c0-0.083-0.045-0.035,0.026-0.079v0.08l0.453,0.053v-0.106h0.026v-0.025h0.08v0.132h0.024c0.063-0.042,0.138-0.06,0.213-0.053v0.079
	c0.187-0.007,0.373,0.002,0.559,0.025c-0.008-0.055-0.025-0.109-0.053-0.158h0.027v-0.025h0.026v0.025
	c0.027,0.049,0.046,0.104,0.054,0.158c0.07,0.004,0.142,0.004,0.213,0c0.018-0.033,0.046-0.061,0.08-0.078l-0.027,0.078l0.293,0.026
	v-0.104h0.025V17.7h0.053v0.026c-0.02,0.031-0.029,0.067-0.027,0.104h0.559c-0.011-0.06-0.023-0.029,0-0.079
	c0.035,0.055,0.097,0.084,0.16,0.079c0.012-0.046,0.029-0.091,0.053-0.132c0.021,0.002,0.039,0.012,0.054,0.025
	c0.05,0.077-0.042,0.082,0.106,0.105c0.16-0.018,0.32-0.018,0.479,0c0.082-0.004,0.163-0.022,0.239-0.053
	c0.101-0.025,0.5,0.027,0.666,0.025c0.144-0.015,0.285-0.041,0.426-0.078c0.018,0.021,0.026,0.05,0.027,0.078
	c0.121-0.031,0.246-0.049,0.373-0.053c0.086,0.021,0.176,0.031,0.266,0.025c0.051-0.021,0.105-0.029,0.16-0.025
	c0.229,0.051,0.511,0.15,0.744,0.184c0.004-0.035,0.013-0.071,0.027-0.104c-0.106-0.001-0.197-0.079-0.213-0.185h0.027
	c0.227,0.049,0.459,0.076,0.691,0.08v0.131c-0.076,0.029-0.049,0-0.08,0.08h0.293c0.023,0.201,0.023,0.404,0,0.605
	c-0.313-0.024-0.627,0.002-0.931,0.079L38.616,18.6c-0.069,0.039-0.14,0.074-0.214,0.105c-0.105-0.031-0.219-0.021-0.318,0.025
	L37.9,18.675c-0.311-0.025-0.621-0.025-0.932,0h-0.562c-0.554,0.093-1.116,0.128-1.677,0.105h-0.719
	c-0.078-0.035,0.018-0.064-0.16-0.079c0,0.076,0.025,0.068-0.105,0.079c0.003-0.036,0.012-0.071,0.027-0.105h-0.027
	c-0.109,0.045-0.23,0.054-0.346,0.026v0.079c-0.404-0.086-0.824-0.04-1.2,0.132c0.003-0.037-0.007-0.074-0.027-0.105
	c-0.091,0.044-0.192,0.063-0.293,0.053v0.026c0.046-0.005,0.093,0.004,0.134,0.026h-0.025c-0.187,0.068-0.386,0.096-0.584,0.079
	c-0.016-0.085-0.012-0.101-0.027-0.158c-0.032,0.038-0.068,0.073-0.105,0.104c-0.004-0.035-0.013-0.071-0.027-0.104
	c-0.055,0.007-0.11-0.002-0.16-0.026c0.029,0.001,0.057-0.008,0.08-0.025h-0.4v0.025c0.021,0.014,0.04,0.031,0.053,0.053h-0.051
	c-0.021-0.037-0.064-0.058-0.106-0.053c-0.021,0.043-0.062,0.072-0.107,0.079c-0.271-0.14-0.582-0.177-0.878-0.104
	c-0.352,0.065-0.711,0.074-1.064,0.025c-0.25,0.004-0.499-0.014-0.746-0.053c-0.09,0.001-0.181,0.02-0.266,0.053l-0.053-0.078
	c-0.18,0.012-0.357,0.037-0.531,0.078c-0.016-0.027-0.033-0.055-0.054-0.078h-0.293c-0.021,0.254-0.085,0.503-0.187,0.737
	c-0.043,0.029-0.057-0.024-0.106,0.054c0.036,0.002,0.073,0.012,0.106,0.025v0.025h-0.026V19.6
	c-0.078-0.074-0.194-0.096-0.293-0.053c0-0.076,0.026-0.037,0-0.079c-0.063,0.057-0.11,0.13-0.134,0.212
	c0.074-0.021,0.145-0.047,0.214-0.08v0.026c-0.022,0.013-0.04,0.031-0.054,0.054c0.081-0.005,0.162,0.004,0.24,0.025V19.65
	c-0.022-0.014-0.041-0.031-0.054-0.053h0.054c0.106,0.211,0.328,0.055,0.452,0.025c0.005,0.095-0.04,0.055,0.054,0.079
	c0.199-0.057,0.411-0.057,0.611,0c0.223,0.029,0.449,0.011,0.665-0.054c0.16,0.066,0.336,0.084,0.506,0.054
	c0.005,0.037-0.022-0.011-0.026,0.026c-0.051,0.02,0.053,0.025,0.053,0.025c0.053-0.014,0.225,0.057,0.318,0.053
	c0-0.104-0.052-0.087,0.08-0.104v0.026h0.027c-0.023,0.021-0.041,0.049-0.053,0.078H29.3c-0.009-0.034-0.009-0.07,0-0.104
	c0.021,0.003,0.039,0.012,0.054,0.026h0.026c-0.01,0.076-0.043,0.032,0.027,0.078c0.038-0.066,0.012-0.041,0.106-0.053
	c0.01,0.066-0.016,0.042,0.079,0.053c0.059,0.025,0.123,0.035,0.187,0.026c-0.012-0.06-0.024-0.028,0-0.079
	c0.014,0.014,0.033,0.023,0.053,0.025c0,0.101,0.025,0.091,0.186,0.08v-0.025c-0.06-0.063-0.029-0.009-0.026-0.105h0.079
	l-0.026,0.158h0.08c0.01-0.068-0.021-0.035,0.053-0.053c0.08,0.076,0.184,0.123,0.294,0.132c0.027-0.024,0.055-0.051,0.079-0.079
	c-0.013,0.072,0.019,0.145,0.08,0.184c0.021-0.041,0.06-0.07,0.106-0.078v0.078c-0.029,0-0.057,0.01-0.08,0.027
	c0.239-0.012,0.479-0.004,0.718,0.025c0.021-0.086,0.052-0.131,0.106-0.105h0.029c-0.035,0.056-0.076,0.088-0.08,0.105
	c0.041,0.021,0.088,0.031,0.133,0.025c0.018-0.07,0.066-0.129,0.133-0.157v0.079c-0.061,0.035-0.049,0.031-0.053,0.053
	c0.016,0.03,0.047,0.05,0.08,0.053V20.15c-0.021-0.013-0.039-0.029-0.053-0.051h0.053c0.032,0.023,0.075,0.023,0.107,0
	c0.012,0.06,0.039,0.113,0.08,0.158c0.096-0.018,0.194-0.027,0.293-0.025c-0.004,0.036-0.012,0.072-0.027,0.105h0.08
	c0.015-0.014,0.033-0.023,0.053-0.025c0.018,0.106,0.064,0.207,0.133,0.289h0.027c0.022-0.086-0.013-0.039,0.053-0.078v-0.03h0.027
	v0.079c-0.021,0.014-0.039,0.031-0.053,0.053H32.6c0.013,0.034,0.013,0.071,0,0.105c0.264,0.113,0.467,0.334,0.56,0.605
	c-0.021,0.181-0.117,0.344-0.267,0.448c-0.029,0.063,0.006,0.14-0.026,0.184c-0.014-0.021-0.032-0.04-0.054-0.053v0.026
	c0.045,0.025,0.081,0.061,0.106,0.104c-0.07,0.185-0.098,0.384-0.08,0.58c0.054,0.124,0.233,0.211,0.106,0.399
	c-0.022-0.084,0.013-0.039-0.053-0.078v0.022h-0.024c0.047,0.081,0.023,0.185-0.054,0.237v0.025h-0.026
	c-0.011-0.094,0.013-0.065-0.054-0.104c0.026,0.062,0.016,0.132-0.026,0.185c-0.106-0.049-0.093,0.08-0.133,0
	c-0.016-0.043-0.044-0.079-0.08-0.105c0.01,0.071,0.001,0.145-0.027,0.211c0.013-0.051-0.009-0.104-0.053-0.132V23.26
	c-0.026-0.025-0.026,0.026-0.026,0.026h-0.027c0.039,0.036,0.066,0.081,0.08,0.132h-0.159c0.015-0.148,0.017-0.216,0.026-0.369
	h-0.026V23.1c-0.018,0.023-0.026,0.051-0.027,0.08h-0.08c0.014-0.034,0.014-0.072,0-0.105c-0.069,0.002-0.136,0.031-0.187,0.078
	c0-0.07-0.009-0.141-0.026-0.211c-0.022,0.021-0.03,0.033-0.053,0.054v-0.131c0.028,0,0.057-0.009,0.079-0.026
	c0.015-0.015,0.024-0.033,0.027-0.053c-0.055-0.182-0.1-0.366-0.133-0.553H31.83c-0.032,0.064-0.047,0.041-0.08,0.104
	c0.059,0.072,0.047,0.179-0.025,0.236c-0.001,0-0.002,0.001-0.002,0.001c-0.021-0.037-0.063-0.059-0.105-0.053
	c0.022,0.428-0.192,0.832-0.559,1.054c-0.012,0.103-0.086,0.187-0.187,0.211V23.76c0.07-0.072,0.133-0.151,0.187-0.236H31
	c-0.047,0.084-0.123,0.148-0.213,0.184v0.025h0.08l-0.027,0.026c0,0.054,0.027,0.007,0,0.054c-0.131,0.119-0.302,0.186-0.479,0.184
	c-0.01,0.068,0.02,0.035-0.053,0.053c-0.043,0.033-0.015,0.018-0.054,0h-0.022v-0.025c0.051,0.005,0.096-0.029,0.106-0.078h-0.053
	c-0.065,0.044-0.138,0.08-0.213,0.104c0.011,0.038,0.029,0.073,0.053,0.105c-0.159,0.075-0.331,0.12-0.506,0.132
	c-0.005,0.037,0.022-0.012,0.026,0.025c0.052,0.021-0.053,0.026-0.053,0.026v-0.024c-0.015-0.024-0.023-0.051-0.027-0.08
	c-0.104,0.021-0.197,0.077-0.266,0.158c0.034,0.004,0.064,0.023,0.08,0.053c-0.193,0.041-0.337,0.138-0.531,0.185
	c-0.012-0.05-0.057-0.083-0.107-0.079c-0.066,0.045-0.138,0.08-0.213,0.105v0.025h0.08c0.031-0.022,0.074-0.022,0.106,0v0.026
	c-0.2,0.019-0.325,0.176-0.612,0.211c-0.01-0.048-0.055-0.081-0.104-0.078c-0.066,0.045-0.138,0.08-0.213,0.104
	c0.012,0.039,0.029,0.074,0.053,0.105c-0.199,0.042-0.328,0.151-0.531,0.184V25.21h-0.029c0.011-0.06,0.023-0.028,0-0.079
	c-0.08,0.053-0.172,0.089-0.266,0.105v0.053c0.051-0.018,0.107-0.018,0.159,0v0.025c-0.233,0.031-0.38,0.172-0.612,0.211
	c-0.002-0.027-0.011-0.055-0.026-0.078c-0.029,0.028-0.067,0.047-0.107,0.053c0.028,0.025,0.056,0.051,0.08,0.079h-0.08
	c-0.02-0.032-0.047-0.06-0.079-0.079v0.025c0.032,0.02,0.06,0.047,0.079,0.08h-0.053c-0.032,0.021-0.074,0.021-0.106,0
	c-0.004,0.037,0.022-0.012,0.027,0.025c0.051,0.02-0.053,0.026-0.053,0.026c-0.145,0.095-0.309,0.158-0.479,0.184l-0.027-0.053
	c0.065-0.034,0.018,0.011,0.053-0.054h-0.055c-0.093,0.047-0.191,0.082-0.293,0.105v0.026c0.055-0.001,0.109,0.008,0.16,0.026v0.025
	c-0.045,0-0.09-0.01-0.133-0.025c-0.008,0.067,0.012,0.047-0.107,0.053c-0.103,0.031-0.211,0.041-0.318,0.025v-0.023h-0.025v-0.079
	H24.7v0.104h-0.455v-0.025h-0.027v-0.079H23.9v0.104h-0.455v-0.025H23.42v-0.079H23.1v0.104h-0.451v-0.025h-0.027v-0.079H22.3v0.104
	h-0.45v-0.025h-0.026v-0.079H21.5v0.104h-0.449v-0.025h-0.025v-0.079h-0.32v0.104h-0.452v-0.025h-0.027v-0.079h-0.319v0.104h-0.453
	v-0.104h-0.346v0.104h-0.452v-0.104H18.31v0.104h-0.479v-0.104h-0.319c0,0.028-0.01,0.056-0.027,0.079
	c-0.156,0.04-0.319,0.049-0.479,0.025v-0.104h-0.319c0,0.028-0.009,0.056-0.027,0.079c-0.157,0.04-0.319,0.049-0.479,0.025v-0.104
	h-0.319c0,0.028-0.009,0.056-0.027,0.079c-0.156,0.04-0.319,0.049-0.479,0.025v-0.104h-0.319c0,0.028-0.009,0.056-0.027,0.079
	c-0.156,0.04-0.319,0.049-0.479,0.025v-0.104h-0.319c0,0.028-0.009,0.056-0.027,0.079c-0.156,0.04-0.319,0.049-0.479,0.025v-0.104
	h-0.293v0.079H13.36c-0.156,0.04-0.319,0.049-0.479,0.025v-0.104h-0.293v0.079h-0.053c-0.157,0.04-0.319,0.049-0.479,0.025v-0.104
	h-0.293v0.079H11.71c-0.156,0.04-0.319,0.049-0.479,0.025v-0.104h-0.293v0.079h-0.053c-0.156,0.04-0.319,0.049-0.479,0.025v-0.104
	h-0.293v0.079H10.06c-0.156,0.04-0.319,0.049-0.479,0.025v-0.104H9.288v0.079c-0.186,0.019-0.373,0.027-0.559,0.025v-0.104H8.436
	v0.079H8.383c-0.165,0.041-0.337,0.051-0.506,0.025v-0.104H7.611v0.079c-0.173,0.012-0.378,0.025-0.585,0.025v-0.104H6.76v0.079
	c-0.173,0.012-0.378,0.025-0.585,0.025v-0.104c-0.148,0.038-0.299,0.064-0.452,0.079c-0.445-0.147-0.847-0.4-1.171-0.738
	C3.988,24.8,3.464,24.357,2.9,23.945c-0.197-0.213-0.42-0.398-0.665-0.553c-0.016,0.029-0.046,0.05-0.08,0.053L2.1,23.365
	c-0.01-0.067-0.038-0.131-0.08-0.184c-0.05,0.027-0.11,0.027-0.16,0c0.01,0.191,0,0.34-0.16,0.368
	c-0.015-0.014-0.033-0.022-0.053-0.026c-0.027-0.121-0.036-0.244-0.027-0.368c-0.015-0.024-0.022-0.052-0.02-0.08H1.411V23
	c-0.13-0.041-0.242-0.125-0.319-0.236c0.031-0.277,0.084-0.551,0.16-0.818H0.931l0.08,1.266l-0.293,0.025c0-0.48,0-0.807,0-1.291
	H0.559c-0.018-0.051-0.027-0.104-0.027-0.157c-0.029,0.001-0.057-0.009-0.08-0.026c0.029,0.001,0.057-0.008,0.08-0.025
	c-0.095,0.001-0.188-0.027-0.266-0.079H0.4v-0.11c-0.046,0.006-0.093-0.004-0.134-0.027H0.4c0-0.028-0.009-0.057-0.027-0.078
	c-0.032-0.02-0.069-0.029-0.106-0.026v-0.158H0.4v-0.104c-0.046,0.005-0.092-0.004-0.133-0.026H0.4V21.02
	c-0.037,0.004-0.074-0.006-0.106-0.025H0.4v-0.105c-0.029,0-0.057-0.01-0.08-0.027H0.4c-0.005-0.069-0.005-0.141,0-0.211
	c-0.046,0.006-0.092-0.004-0.133-0.025H0.4V20.52H0.266v-0.158H0.4v-0.105c-0.046,0.006-0.092-0.004-0.133-0.025
	c0.1,0,0.094,0.013,0.133-0.054c-0.035-0.036-0.083-0.056-0.133-0.053L0.24,19.809C0.159,19.819,0.077,19.811,0,19.781
	c0.083,0.029,0.176,0.008,0.24-0.053c-0.058-0.298-0.058-0.604,0-0.9c0.322,0,0.668,0.008,0.985,0L1.251,18.7H1.3
	c0.49-0.104,0.99-0.149,1.49-0.132c0.02-0.069,0.032-0.063,0.053-0.133c-0.055,0.007-0.11-0.002-0.16-0.025
	c-0.003,0.036-0.012,0.071-0.027,0.105c-0.079-0.026-0.133-0.102-0.133-0.185c0.119-0.259,0.119-0.558,0-0.817H2.5
	c0.009,0.044,0.009,0.089,0,0.133H2.475v-0.131c-0.002-0.197,0.075-0.387,0.213-0.527v-0.026l0.053,0.026v-0.026h0.027
	c-0.091-0.471-0.005-0.958,0.24-1.37h0.026v0.079L3.593,15.7c0.064-0.04,0.138-0.059,0.213-0.053
	c0.156,0.031,0.418,0.072,0.506,0.079c0.104-0.033,0.21-0.05,0.319-0.053l0.026,0.077c0,0,0.238,0.024,0.293,0.026V15.7
	c0.086,0.022,0.041-0.013,0.08,0.053C5,15.764,5.01,15.75,5,15.776c0.077,0.028,0.159,0.037,0.24,0.026
	c0.071-0.127,0.171-0.235,0.293-0.316c0.048-0.005,0.094-0.023,0.133-0.053c-0.021-0.013-0.04-0.032-0.053-0.053h0.056
	c0.145,0.062,0.308,0.062,0.452,0c0.281,0.067,0.575,0.059,0.852-0.026c-0.009-0.493,0-1.011,0-1.581h0.346
	c-0.068,0.48-0.068,0.968,0,1.449L7.585,15.2c0.021,0.039,0.049,0.074,0.08,0.105c0.005,0.07,0.005,0.141,0,0.211
	c0.072-0.012,0.144-0.03,0.213-0.053v-0.056c0.058-0.25,0.076-0.508,0.053-0.764V6h0.053v9.2C8.014,15.283,8.023,15.373,8.011,15.46
	z M20.893,13.326c0.014,0.014,0.033,0.022,0.053,0.026C20.931,13.338,20.912,13.329,20.893,13.326L20.893,13.326z M19.056,13.405
	c0.029,0.028,0.066,0.047,0.107,0.053v-0.027h-0.028V13.4h-0.08L19.056,13.405z M17.646,13.721v-0.106l-0.08-0.026
	c-0.023-0.017-0.051-0.026-0.08-0.026v0.053c0.051-0.005,0.097,0.029,0.107,0.079c-0.078-0.009-0.055-0.053-0.107,0.026H17.646z
	 M17.486,13.879v0.105h0.16v-0.105H17.486z M16.342,13.932v0.053h0.027v-0.053H16.342L16.342,13.932z M20.148,14.064v0.026H20.12
	c-0.051,0.02,0.053,0.026,0.053,0.026c-0.002-0.021-0.012-0.039-0.027-0.053L20.148,14.064z M16.076,14.09
	c-0.023,0.022-0.042,0.049-0.053,0.079c0.053,0.231,0.198,0.43,0.4,0.553V14.7C16.34,14.479,16.223,14.273,16.076,14.09
	L16.076,14.09z M20.52,14.459c-0.085-0.03-0.175-0.048-0.266-0.053v-0.079h-0.08v-0.185H20.12v0.369h0.027v0.026
	c0.129,0.017,0.254,0.052,0.373,0.105V14.459z M17.885,14.169c0.052,0.042,0.1,0.046,0.027,0.079v-0.027
	C17.897,14.207,17.888,14.189,17.885,14.169L17.885,14.169z M21.797,14.169c0.014,0.015,0.023,0.033,0.027,0.053H21.8v-0.053H21.797
	z M18.79,14.248V14.3h0.027v-0.052H18.79L18.79,14.248z M18.045,14.301H18.1v0.026C18.079,14.325,18.059,14.315,18.045,14.301
	L18.045,14.301z M18.1,14.327c0.038-0.003,0.075,0.006,0.107,0.026C18.169,14.356,18.132,14.347,18.1,14.327z M18.845,14.327
	c-0.014,0.033-0.023,0.069-0.027,0.105h0.027c0.011-0.035,0.01-0.072-0.003-0.105H18.845z M18.552,14.353v0.053h0.027
	c-0.003-0.021-0.014-0.04-0.029-0.053H18.552z M18.392,14.379c0.015,0.014,0.033,0.023,0.053,0.026
	c-0.015-0.014-0.034-0.023-0.055-0.026H18.392z M18.685,14.616v0.053h0.027v-0.052h-0.029L18.685,14.616z M19.217,14.616
	c-0.015,0.159-0.135,0.289-0.293,0.316c-0.116-0.015-0.233-0.006-0.346,0.026l0.559,0.026c0.1-0.094,0.131-0.24,0.078-0.367
	L19.217,14.616z M16.955,14.932c0.214,0.081,0.451,0.081,0.665,0h-0.667H16.955z M17.966,14.932
	c-0.015,0.014-0.033,0.023-0.053,0.026v0.026h0.24c0.075-0.045,0.272-0.007,0.346-0.053h-0.535L17.966,14.932z M7.5,15.091h0.058
	v0.026H7.532C7.513,15.121,7.48,15.119,7.5,15.091z M17.161,15.565h0.266c-0.013,0.089-0.003,0.18,0.027,0.264
	c0-0.207,0.051-0.3,0.053-0.527h-0.08c-0.012-0.071-0.03-0.142-0.053-0.211h-0.368c-0.032,0.069-0.077,0.132-0.133,0.184V15.3
	c0.176,0.029,0.299,0.037,0.293,0.265H17.161z M20.779,15.196c0.015,0.015,0.024,0.033,0.027,0.053h-0.021V15.2L20.779,15.196z
	 M5.98,15.328c0.014,0.015,0.023,0.033,0.027,0.053H5.988v-0.053H5.98z M5.368,15.381c0.061,0.024,0.108,0.072,0.133,0.132H5.456
	c-0.024-0.022-0.051-0.04-0.08-0.053v-0.079H5.368z M20.431,15.434c0.015,0.014,0.033,0.023,0.053,0.026
	c-0.012-0.013-0.028-0.021-0.045-0.026H20.431z M21.043,15.434H21.1v0.026c-0.018-0.003-0.035-0.013-0.049-0.026H21.043z
	 M10.957,15.46h0.053v0.026c-0.017-0.004-0.033-0.013-0.045-0.026H10.957z M20.938,15.46c0.037-0.003,0.074,0.006,0.105,0.026
	c-0.035,0.001-0.068-0.007-0.098-0.026H20.938z M7.604,15.513v0.053h0.034v-0.053H7.611H7.604z M9.547,15.592
	c0,0.029-0.009,0.057-0.027,0.079l-0.053-0.079H9.547z M3.3,15.618c0.014,0.014,0.024,0.033,0.027,0.053H3.3V15.618z M11.178,15.618
	c0.039,0.03,0.094,0.03,0.133,0H11.178z M11.391,15.618l-0.027,0.053C11.41,15.634,11.391,15.618,11.391,15.618z M8.463,15.644
	c0.021,0.038,0.063,0.058,0.106,0.053v-0.026H8.543v-0.027H8.463z M3.063,15.697c0.046,0.022,0.034,0.022,0.08,0H3.061H3.063z
	 M4.474,15.697v0.053h0.05v-0.027L4.474,15.697z M10.648,15.855c0.015,0.014,0.033,0.023,0.053,0.026
	c-0.016-0.014-0.035-0.023-0.056-0.026H10.648z M4.687,15.987c0.046,0.023,0.034,0.023,0.08,0H4.684H4.687z M2.9,16.171v0.053h0.027
	v-0.053H2.9z M2.794,16.3v0.053l0.08-0.026V16.3H2.794z M23.605,16.432c0.041,0.042,0.061,0.1,0.054,0.158h-0.026v-0.05
	c-0.034-0.022-0.046-0.068-0.027-0.105V16.432z M24.645,16.7H24.7v0.053h-0.056V16.7z M24.512,16.727
	c0.021,0.084-0.014,0.039,0.053,0.078c-0.004-0.033-0.023-0.064-0.053-0.08V16.727z M2.794,16.779l0.027,0.078h0.027
	c-0.003-0.034-0.023-0.064-0.054-0.08V16.779z M25.895,17.253c0.043,0.029,0.027,0.047,0.053,0H25.895L25.895,17.253z
	 M32.148,17.279l0.08,0.025c-0.004,0.021-0.013,0.039-0.027,0.053v0.026c-0.02-0.003-0.039-0.012-0.053-0.026
	c-0.022-0.051-0.012-0.02,0-0.08V17.279z M30.871,17.305v0.053H30.9c-0.002-0.021-0.012-0.042-0.028-0.058L30.871,17.305z
	 M25.971,17.463l0.16,0.026v-0.026l-0.16-0.132V17.463z M31.507,17.331v0.053h0.027c-0.002-0.02-0.011-0.038-0.024-0.053H31.507z
	 M32.279,17.384c0.029,0.044,0.047,0.028,0,0.054V17.384L32.279,17.384z M32.439,17.463h0.053v0.026h-0.051v-0.026H32.439z
	 M2.605,17.489v0.053h0.03v-0.053H2.608H2.605z M29.751,17.516c0.086,0.021,0.041-0.014,0.08,0.053
	c-0.032-0.004-0.062-0.023-0.077-0.053H29.751z M29.964,17.516l0.08,0.025c-0.03,0.077-0.035,0.023-0.077-0.025H29.964z
	 M38.055,17.646c0.03,0.045,0.047,0.028,0,0.054V17.646z M2.5,17.673c0.017,0.022,0.027,0.051,0.027,0.079H2.5V17.673z M34.064,17.7
	c0.015,0.015,0.023,0.032,0.027,0.053h-0.027V17.7z M29.354,17.727c0.047,0.022,0.035,0.022,0.08,0H29.354z M2.794,18.068v0.054
	h0.027v-0.027h0.027C2.833,18.081,2.814,18.072,2.794,18.068z M3.513,18.095l0.027,0.079h0.026
	C3.563,18.141,3.543,18.111,3.513,18.095z M4.258,18.095c0.015,0.015,0.033,0.022,0.053,0.026
	C4.296,18.107,4.278,18.098,4.258,18.095z M4.684,18.095c0.001,0.046,0.01,0.091,0.027,0.132H4.657
	c-0.1-0.141-0.172,0.028-0.24-0.104v0.053c-0.022,0.023-0.05,0.042-0.08,0.054c-0.039-0.067,0.006-0.03-0.08-0.054
	c-0.018,0.051-0.027,0.104-0.027,0.158h0.028v0.026c0.076-0.008,0.055-0.028,0.106,0c-0.028,0.028-0.047,0.064-0.053,0.104
	c-0.078-0.063-0.168-0.108-0.266-0.132c0.003-0.036,0.012-0.072,0.027-0.105c-0.068-0.007-0.133-0.035-0.186-0.078
	c0.014,0.051,0.014,0.105,0,0.158C3.819,18.26,3.843,18.24,3.78,18.253c-0.084,0.095-0.131,0.216-0.133,0.343h0.611
	c0.174,0.045,0.306,0.137,0.452,0.185l0.346-0.026c0.416,0.076,0.843,0.059,1.251-0.054v-0.025H6.094
	c-0.229-0.145-0.715,0.122-0.958-0.026c-0.118-0.039-0.114-0.105-0.106-0.264c-0.043-0.092-0.07-0.189-0.08-0.29H4.87
	C4.822,18.161,4.818,18.107,4.684,18.095z M4.178,18.174l-0.027,0.105h0.027v-0.026C4.2,18.208,4.2,18.219,4.178,18.174z
	 M3.3,18.279c0.009,0.063-0.001,0.126-0.027,0.184c0-0.1,0.013-0.119-0.053-0.158c-0.053,0.084-0.252,0.11-0.186,0.237
	c0.181,0.052,0.371,0.069,0.559,0.053v-0.026c-0.161-0.078-0.234-0.021-0.24-0.157c0.054,0.019,0.114,0.009,0.16-0.026
	c0.012,0.03,0.031,0.124,0.053,0.053C3.59,18.389,3.6,18.334,3.593,18.28H3.566c-0.037,0.046-0.019,0.073-0.053,0.026
	c-0.019-0.034-0.046-0.062-0.08-0.08C3.404,18.27,3.351,18.291,3.3,18.279z M2.981,18.357c0,0.029,0.009,0.057,0.027,0.08v-0.08
	H2.981z M3.141,18.622v0.053h0.106v-0.026h0.026v-0.026H3.141L3.141,18.622z M33.561,18.622c0.014,0.014,0.033,0.022,0.053,0.026
	C33.598,18.635,33.58,18.625,33.561,18.622z M36.807,18.622c0.016,0.014,0.033,0.022,0.053,0.026
	C36.846,18.634,36.826,18.625,36.807,18.622L36.807,18.622z M3.487,18.675v0.054H3.54V18.7L3.487,18.675z M3.86,18.675
	c0.046,0.023,0.034,0.023,0.08,0H3.86L3.86,18.675z M4.02,18.675v0.054h0.025v-0.054H4.02L4.02,18.675z M2.741,18.7v0.026H2.715
	c-0.051,0.02,0.053,0.025,0.053,0.025v-0.025h0.026C2.779,18.713,2.761,18.703,2.741,18.7z M7.425,18.7
	c-0.06,0.022-0.123,0.04-0.186,0.053v0.027H7.5c0.033-0.022,0.069-0.04,0.106-0.054V18.7H7.425z M35.425,18.7
	c0.017,0.03,0.046,0.05,0.08,0.053v-0.026L35.425,18.7z M38.432,18.7h0.053v0.026c-0.02-0.003-0.039-0.012-0.055-0.026H38.432z
	 M7.64,18.727c0.046,0.022,0.034,0.022,0.08,0H7.638H7.64z M29.41,18.727c0.015,0.014,0.033,0.022,0.053,0.025
	c-0.016-0.014-0.034-0.022-0.055-0.025H29.41z M32.363,18.727c0.031,0.027,0.078,0.027,0.107,0h-0.109H32.363z M6.922,18.752
	c0.048,0.033,0.112,0.033,0.16,0H6.919H6.922z M7.822,18.752c0.029,0.043,0.082,0.064,0.133,0.053V18.78
	c-0.045-0.001-0.089-0.011-0.131-0.026L7.822,18.752z M28.768,18.752c0.045,0.023,0.033,0.023,0.08,0H28.768z M8.862,18.78
	c0.046,0.022,0.034,0.022,0.08,0H8.862z M32.361,18.807c0.022,0.023,0.04,0.049,0.054,0.078h-0.08v-0.025
	C32.35,18.845,32.359,18.826,32.361,18.807z M9.954,18.885c0.015,0.014,0.033,0.023,0.053,0.026
	C9.992,18.896,9.973,18.888,9.954,18.885L9.954,18.885z M10.406,18.964c0.015,0.014,0.033,0.022,0.053,0.026
	C10.444,18.977,10.426,18.967,10.406,18.964z M10.672,18.964l-0.027,0.054C10.692,18.98,10.672,18.964,10.672,18.964z M10.778,18.99
	c0,0.028,0.009,0.057,0.027,0.078c0.207-0.017,0.416,0.01,0.612,0.08v-0.025C11.4,19.1,11.39,19.072,11.39,19.044L10.778,18.99z
	 M11.47,19.07l0.03,0.104h0.08v-0.052c-0.014-0.015-0.023-0.033-0.027-0.053H11.47z M11.71,19.1v0.08h0.107l0.027-0.08H11.71z
	 M26.268,19.18l-0.026,0.053c0.046-0.041,0.026-0.058,0.026-0.058V19.18z M11.923,19.232c0.046,0.022,0.034,0.022,0.08,0H11.923z
	 M26.322,19.364c0,0.028,0.01,0.056,0.027,0.079c0.001-0.031-0.01-0.061-0.029-0.084L26.322,19.364z M24.859,19.391v0.053h0.027
	v-0.031h0.023c-0.015-0.014-0.033-0.023-0.053-0.026L24.859,19.391z M26.059,19.443h-0.08v0.025H26l-0.027,0.079
	c0.082-0.039,0.066,0.022,0.082-0.108L26.059,19.443z M25.367,19.469v0.053h0.027v-0.057h-0.031L25.367,19.469z M25.768,19.469
	c-0.023,0.04-0.076,0.021-0.027,0.053c0.023,0.018,0.051,0.026,0.08,0.026c0.014-0.021,0.031-0.04,0.053-0.053v-0.03h-0.111
	L25.768,19.469z M25.527,19.521v0.054c0.054,0,0.009-0.027,0.054,0c0.015-0.015,0.024-0.033,0.026-0.054H25.527z M26.729,19.575
	c0.014,0.015,0.023,0.032,0.026,0.053h-0.034V19.57L26.729,19.575z M28.271,19.732c0.047,0.023,0.035,0.023,0.08,0H28.271z
	 M27.953,19.786c0.029,0.028,0.076,0.028,0.107,0h-0.117H27.953z M28.5,19.809c0.039,0.029,0.094,0.029,0.133,0H28.5z
	 M30.734,19.913h0.107v0.026h-0.023c-0.075,0.037-0.074,0.035-0.08-0.026H30.734z M29.564,19.939
	c0.021,0.037,0.063,0.059,0.106,0.053v-0.026c-0.036-0.003-0.07-0.013-0.103-0.026H29.564z M30.9,19.992l0.08,0.025v0.026
	C30.883,20.033,30.9,20.061,30.9,19.992z M31.007,19.992c0.086,0.021,0.041-0.014,0.08,0.053h-0.028v0.025h-0.027v-0.025
	c-0.016-0.014-0.027-0.032-0.031-0.053H31.007z M30.262,20.018c0.021,0.038,0.063,0.059,0.106,0.053v-0.025
	c-0.038-0.003-0.073-0.012-0.108-0.027H30.262z M30.182,20.044c0.016,0.014,0.033,0.022,0.053,0.026
	c-0.015-0.014-0.033-0.023-0.055-0.025L30.182,20.044z M31.752,20.148c0.044,0.029,0.029,0.047,0.053,0H31.75H31.752z
	 M31.779,20.229c0.014,0.014,0.033,0.022,0.053,0.025c-0.016-0.014-0.035-0.022-0.057-0.025H31.779z M32.045,20.334
	c0.046,0.023,0.034,0.023,0.08,0H32.045z M32.178,20.359c0.016,0.015,0.033,0.023,0.053,0.026c-0.015-0.014-0.034-0.022-0.055-0.024
	L32.178,20.359z M0.348,20.386c-0.003,0.037,0.006,0.074,0.027,0.105c0.002-0.037-0.008-0.073-0.029-0.104L0.348,20.386z
	 M32.896,21.229c0.02,0.073,0.047,0.144,0.08,0.211v-0.051c0.009-0.064-0.023-0.128-0.082-0.158L32.896,21.229z M32.843,21.255
	v0.056h0.027v-0.054h-0.029L32.843,21.255z M0.343,21.281C0.34,21.318,0.35,21.355,0.37,21.386c0.003-0.036-0.005-0.071-0.024-0.103
	L0.343,21.281z M32.918,21.386l-0.133-0.026c0.006,0.076-0.008,0.063,0,0.158h0.027c0.045-0.025,0.061,0,0.105-0.025h0.027
	c-0.014-0.033-0.021-0.068-0.024-0.104L32.918,21.386z M1.3,21.758v0.053h0.031v-0.053H1.3z M1.38,22.18
	c-0.028,0.074-0.067,0.036,0,0.079v-0.026c0.037-0.041,0.02-0.015,0.004-0.053H1.38z M31.641,22.313
	c-0.001,0.028,0.009,0.057,0.026,0.078c0.001-0.028-0.007-0.057-0.024-0.08L31.641,22.313z M0.9,22.391
	c-0.013,0.088-0.003,0.179,0.027,0.264C0.94,22.564,0.931,22.475,0.9,22.391z M1.326,22.574c0.012,0.046,0.03,0.09,0.053,0.132
	h0.032V22.6L1.326,22.574z M31.452,22.785c-0.019,0.119-0.054,0.234-0.106,0.343h0.026V23.1c0.071-0.088,0.103-0.202,0.085-0.314
	H31.452z M1.831,22.811l0.027,0.211h0.058c0.015,0.014,0.033,0.023,0.053,0.026c-0.025-0.077-0.042-0.156-0.053-0.237h-0.08H1.831z
	 M32.064,22.811c0.014,0.014,0.033,0.023,0.053,0.026c-0.014-0.013-0.03-0.021-0.049-0.024L32.064,22.811z M0.926,22.891
	C0.923,22.93,0.935,22.969,0.958,23c0.004-0.038-0.006-0.076-0.027-0.109H0.926z M32.389,23v0.053h0.027
	C32.413,23.033,32.404,23.014,32.389,23z M32.708,23v0.053h0.054V23H32.708z M28.85,23.369c-0.008,0.055,0.002,0.109,0.026,0.158
	c0.008-0.056-0.002-0.112-0.026-0.162V23.369z M2.608,23.553c0.031,0.039,0.067,0.074,0.106,0.105
	c-0.022-0.047-0.06-0.086-0.106-0.109V23.553z M2.555,23.579l0.08,0.079c-0.013-0.038-0.042-0.068-0.08-0.082V23.579z M27.7,24.023
	c-0.081-0.004-0.161,0.005-0.239,0.026l0.027,0.158c0.021,0.013,0.039,0.031,0.053,0.053c0.083-0.018,0.12-0.04,0.213-0.053
	c0.036,0.058,0.073,0.094,0.107,0.158c0.02-0.003,0.039-0.012,0.053-0.026c0.061-0.059,0.105-0.131,0.133-0.211
	C28.017,24.063,28,23.99,28,23.918c0.065-0.039,0.138-0.066,0.213-0.079c0.029,0.058,0.076,0.104,0.133,0.132
	c0.041-0.044,0.102-0.064,0.16-0.053c0.043,0.049,0.098,0.086,0.16,0.105v-0.053c-0.07,0-0.023,0.034-0.08-0.025
	c0.126-0.012,0.172-0.027,0.186-0.158c-0.037-0.064-0.056-0.137-0.053-0.211c-0.336,0.005-0.67,0.066-0.984,0.184
	c0.033,0.039,0.061,0.084,0.08,0.133C27.723,23.941,27.719,23.893,27.7,24.023z M28.844,23.576c-0.025,0.086-0.025,0.178,0,0.264
	h0.027c0.057-0.029,0.104-0.075,0.133-0.132L28.844,23.576z M29.004,23.602c0.012,0.039,0.041,0.068,0.08,0.08
	c0.036-0.033,0.1-0.049,0.133-0.08h-0.208H29.004z M29.244,23.602c0.046,0.023,0.033,0.023,0.08,0H29.244z M2.737,23.655
	c-0.009,0.036,0.038,0.038,0.053,0.053c0.023-0.028-0.041-0.045-0.049-0.053H2.737z M29.324,23.655v0.053h0.027v-0.026h0.026
	c-0.014-0.014-0.031-0.023-0.05-0.026H29.324z M2.711,23.708c-0.009,0.037,0.038,0.038,0.053,0.053
	c0.022-0.028-0.042-0.046-0.049-0.053H2.711z M27.621,23.761c0.015,0.015,0.033,0.022,0.053,0.026
	c-0.014-0.014-0.03-0.023-0.049-0.027L27.621,23.761z M27.328,23.84c0.055,0.063,0.025,0.005,0.08,0.026
	c0.02-0.048-0.051-0.022-0.076-0.027L27.328,23.84z M28.928,23.84c0.01,0.069-0.02,0.034,0.053,0.053v-0.026h0.027v-0.027
	L28.928,23.84L28.928,23.84z M26.799,23.893l0.027,0.158c0.078-0.01,0.033-0.043,0.08,0.026h0.027V24.1
	c-0.039,0.008-0.078-0.002-0.107-0.025c-0.033,0.056-0.073,0.343-0.105,0.422c0.033,0.003,0.063,0.023,0.079,0.053
	c0.083-0.018,0.12-0.04,0.214-0.053c0.016,0.076,0.082,0.131,0.159,0.132c0.2-0.172,0.144-0.079,0.106-0.399l0.16-0.054v-0.019
	c-0.037,0.003-0.074-0.006-0.106-0.026c0.06-0.028,0.093-0.093,0.08-0.157c-0.052-0.018-0.105-0.027-0.16-0.027
	c-0.028,0.039-0.047,0.085-0.053,0.133c0.03,0.052,0.016,0.048,0,0.105l-0.08-0.026l-0.027-0.079
	c0.048-0.049,0.05-0.021,0.027-0.079c-0.012-0.03-0.03-0.058-0.054-0.079c-0.086,0.023-0.104,0.053-0.186,0.079
	C26.873,23.952,26.844,23.912,26.799,23.893L26.799,23.893z M28.1,23.919v0.211c0.063,0.037,0.069,0.073,0.133,0.104v-0.026
	c0.027-0.049,0.045-0.103,0.053-0.158c-0.049-0.032-0.086-0.078-0.107-0.132L28.1,23.919L28.1,23.919z M28.4,24v0.05l0.08-0.026V24
	H28.4z M30.156,24.053c0.037,0.003,0.072,0.012,0.107,0.026V24.1c-0.043,0.018-0.091,0.018-0.134,0H30.1v-0.023
	c0.021-0.003,0.039-0.012,0.053-0.026L30.156,24.053z M3.276,24.079l0.08,0.079c-0.014-0.039-0.044-0.068-0.083-0.082L3.276,24.079z
	 M3.249,24.132c-0.009,0.037,0.038,0.038,0.053,0.054c0.017-0.031-0.048-0.049-0.055-0.057L3.249,24.132z M4.074,24.132
	c0.055,0.063,0.025,0.007,0.08,0.026c0.014-0.051-0.054-0.024-0.082-0.029L4.074,24.132z M23.342,24.132
	c-0.031,0.449-0.308,0.845-0.719,1.028h0.346l0.027-0.211h0.213v0.025h0.027l0.027,0.185h0.451V25.13h0.027
	c0-0.187,0.047-0.2,0.238-0.185c0.002,0.065,0.02,0.129,0.054,0.185c0.059,0.025,0.122,0.034,0.187,0.026V25.13
	c-0.299-0.242-0.459-0.616-0.427-1H23.34L23.342,24.132z M28.212,24.132c0.015,0.015,0.023,0.033,0.026,0.054H28.21v-0.057
	L28.212,24.132z M4.233,24.158c-0.041,0.055-0.041,0.129,0,0.184l0.053,0.026c-0.039-0.058-0.074-0.05,0-0.079
	c0,0,0.035,0.076,0.053,0.053v-0.027c0.03-0.039,0.056-0.08,0.027-0.105c-0.036-0.035-0.084-0.055-0.134-0.053L4.233,24.158z
	 M4.499,24.158c0.061,0.077,0.145,0.133,0.24,0.158c-0.072-0.063-0.153-0.117-0.239-0.16L4.499,24.158z M4.446,24.264
	C4.42,24.302,4.41,24.35,4.419,24.395c0.027,0.072,0.073,0.137,0.133,0.185L4.5,24.5h0.051c0.024,0.045,0.051,0.09,0.08,0.132
	c0.044,0.011,0.088,0.021,0.133,0.026c0.063-0.027,0.104-0.09,0.106-0.158c-0.137-0.088-0.279-0.168-0.426-0.239L4.446,24.264z
	 M27.387,24.264V24.5c0.039,0.011,0.068,0.041,0.08,0.079l0.053-0.026c0.023-0.049,0.033-0.104,0.027-0.158
	c-0.01-0.08-0.08-0.14-0.162-0.134L27.387,24.264z M27.652,24.289v0.105h0.027c0.028-0.025,0.055-0.052,0.08-0.08H27.73v-0.027
	h-0.08L27.652,24.289z M27.866,24.289c0.03,0.044,0.047,0.027,0,0.053v-0.055V24.289z M29.488,24.314
	c0.037,0.004,0.073,0.012,0.107,0.026v0.026C29.552,24.373,29.51,24.352,29.488,24.314L29.488,24.314z M29.436,24.341l0.08,0.026
	c-0.014,0.014-0.033,0.022-0.053,0.025c-0.023,0.018-0.051,0.026-0.08,0.026l-0.027-0.053
	C29.385,24.366,29.412,24.357,29.436,24.341L29.436,24.341z M27.786,24.367v0.053h0.026v-0.054h-0.028L27.786,24.367z
	 M20.201,25.158h0.479V25.1c-0.169-0.195-0.304-0.418-0.4-0.658c-0.064,0.184-0.164,0.354-0.293,0.5
	c0.063-0.002,0.126,0.006,0.186,0.025L20.201,25.158z M27.466,24.473c0.03,0.045,0.048,0.028,0,0.053V24.473L27.466,24.473z
	 M3.78,24.552c-0.009,0.037,0.038,0.038,0.053,0.054C3.851,24.575,3.786,24.559,3.78,24.552L3.78,24.552z M26.693,24.578
	l-0.026,0.263c0.039,0.028,0.085,0.048,0.133,0.054v-0.027h0.027v-0.026l-0.106,0.026v-0.053
	C26.91,24.766,26.789,24.634,26.693,24.578L26.693,24.578z M26.907,24.578v0.158h0.026c0.084-0.06,0.086-0.036,0.16,0
	C27.058,24.658,26.989,24.6,26.907,24.578L26.907,24.578z M3.939,24.6l0.08,0.08C4.005,24.643,3.976,24.613,3.939,24.6z
	 M28.738,24.6c0.037,0.003,0.074,0.012,0.107,0.026v0.026c-0.043,0.017-0.09,0.017-0.133,0h-0.023V24.63
	c0.021-0.003,0.039-0.014,0.054-0.03H28.738z M4.9,24.63c-0.06,0.067-0.06,0.169,0,0.237h0.023v-0.026H4.9
	c0.016-0.012,0.034-0.021,0.053-0.026c0.006,0.012,0.016,0.021,0.027,0.026v-0.106C4.957,24.697,4.93,24.662,4.9,24.63z
	 M3.915,24.656c-0.009,0.037,0.038,0.037,0.053,0.053c0.016-0.027-0.048-0.045-0.056-0.053H3.915z M27.175,24.656
	c0,0.059-0.006,0.019,0.054,0.025v-0.025h-0.057H27.175z M26.563,24.761l-0.16,0.212h0.027c0.036-0.033,0.1-0.049,0.133-0.08
	c0.023-0.04,0.032-0.086,0.027-0.132h-0.029H26.563z M17.089,25.161h0.319V25.13l-0.239-0.343c-0.011,0.006-0.021,0.016-0.027,0.025
	l-0.133,0.105c0.048,0.07,0.075,0.154,0.077,0.239L17.089,25.161z M28.027,24.896L28.1,24.92v0.025h-0.049L28.027,24.896z
	 M13.922,25.161H14.4V25.13c-0.095-0.042-0.17-0.116-0.213-0.211c-0.081,0.064-0.17,0.118-0.266,0.158v0.079L13.922,25.161z
	 M27.947,24.924c0.037,0.003,0.072,0.012,0.107,0.026v0.026c-0.045,0.006-0.09-0.016-0.111-0.057L27.947,24.924z M27.895,24.95
	l0.08,0.026c-0.016,0.014-0.033,0.022-0.054,0.025c-0.022,0.018-0.052,0.025-0.08,0.025l-0.026-0.053
	c0.027,0,0.055-0.011,0.076-0.029L27.895,24.95z M19.91,25.161l0.027-0.185h-0.03c-0.071,0.066-0.152,0.119-0.24,0.158v0.026h0.24
	H19.91z M11.124,25c-0.065,0.061-0.137,0.113-0.213,0.158h0.319l0.027-0.053C11.21,25.073,11.166,25.038,11.124,25z M16.873,25.158
	h0.16V25.13c-0.028-0.038-0.046-0.083-0.054-0.13h-0.053v0.025C16.891,25.061,16.872,25.107,16.873,25.158L16.873,25.158z
	 M19.987,25.158h0.133L20.093,25H20.04v0.025C20.005,25.061,19.986,25.107,19.987,25.158L19.987,25.158z M23.048,25.158h0.132
	v-0.107c-0.046-0.021-0.049-0.068-0.08-0.025C23.064,25.06,23.045,25.107,23.048,25.158L23.048,25.158z M23.848,25l-0.053,0.158
	h0.16V25.1c-0.018-0.02-0.035-0.059-0.053-0.078c-0.017-0.014-0.036-0.021-0.057-0.021H23.848z M26.43,25
	c0.014,0.014,0.032,0.023,0.053,0.025c-0.016-0.014-0.035-0.022-0.056-0.025H26.43z M4.5,25.051
	c-0.009,0.037,0.038,0.038,0.053,0.053C4.569,25.076,4.505,25.059,4.5,25.051z M5.165,25.051C5.154,25.088,5.2,25.09,5.216,25.1
	c0.019-0.023-0.046-0.041-0.053-0.049H5.165z M4.446,25.077c-0.009,0.037,0.038,0.038,0.053,0.053
	c0.017-0.03-0.047-0.044-0.055-0.052L4.446,25.077z M8.119,25.077l-0.027,0.079H8.2c-0.018-0.035-0.047-0.063-0.083-0.078
	L8.119,25.077z M7.959,25.104c-0.015,0.014-0.033,0.022-0.053,0.025v0.025h0.105V25.1H7.957L7.959,25.104z M16.741,25.104
	c-0.015,0.014-0.033,0.022-0.053,0.025v0.025h0.107V25.1H16.74L16.741,25.104z M4.6,25.13l0.08,0.079
	C4.666,25.172,4.637,25.144,4.6,25.13z M13.808,25.13c0.015,0.014,0.033,0.022,0.053,0.026c-0.013-0.014-0.03-0.022-0.049-0.026
	H13.808z M4.573,25.184c-0.009,0.036,0.038,0.037,0.053,0.053c0.023-0.028-0.041-0.045-0.048-0.053H4.573z M7.873,25.184v0.053
	h0.111V25.21h0.027v-0.026H7.878H7.873z M8.086,25.184c0.008,0.069,0.022,0.055,0.16,0.053V25.21
	c-0.05-0.018-0.103-0.026-0.156-0.026H8.086z M10.774,25.184v0.053h0.186v-0.053h-0.182H10.774z M11.2,25.184v0.053h0.027v-0.053
	H11.2z M11.306,25.184v0.053h0.08V25.21L11.306,25.184z M13.728,25.184c-0.015,0.014-0.033,0.022-0.053,0.025v0.025h0.186v-0.051
	h-0.128H13.728z M13.941,25.184v0.053h0.319v-0.053h-0.315H13.941z M16.549,25.184c-0.015,0.014-0.033,0.022-0.053,0.025v0.025
	h0.213v-0.051H16.549z M16.949,25.184c0.016,0.029,0.046,0.049,0.08,0.053v-0.053H16.949z M17.109,25.184v0.053
	c0.143,0.021,0.288,0.012,0.426-0.026c-0.14-0.021-0.282-0.03-0.423-0.026H17.109z M19.509,25.184
	c-0.015,0.014-0.033,0.022-0.053,0.025v0.025h0.424v-0.051H19.509L19.509,25.184z M20.201,25.184
	c0.141,0.064,0.299,0.082,0.451,0.053v-0.053H20.201L20.201,25.184z M22.57,25.184v0.053h0.373v-0.053h-0.375H22.57z M23.021,25.184
	v0.053c0.037-0.004,0.072-0.012,0.106-0.026v-0.026H23.021L23.021,25.184z M23.341,25.184c0.114,0.061,0.247,0.08,0.373,0.053
	v-0.053H23.341L23.341,25.184z M23.793,25.184v0.053c0.1-0.012,0.066,0.012,0.107-0.053H23.793L23.793,25.184z M24.139,25.184v0.053
	c0.063,0.008,0.128-0.001,0.187-0.026C24.264,25.195,24.201,25.186,24.139,25.184L24.139,25.184z M9.98,25.21
	c0.015,0.014,0.033,0.022,0.053,0.026C10.019,25.223,10,25.213,9.98,25.21z M12.987,25.21c0.015,0.014,0.033,0.022,0.053,0.026
	C13.025,25.223,13.007,25.213,12.987,25.21z M27.199,25.21c0.037,0.003,0.072,0.012,0.107,0.026v0.025
	c-0.043,0.018-0.091,0.018-0.134,0h-0.026v-0.025C27.166,25.234,27.186,25.225,27.199,25.21L27.199,25.21z M7.053,25.236
	c0.015,0.014,0.033,0.022,0.053,0.025C7.091,25.248,7.073,25.239,7.053,25.236z M7.346,25.262v0.053H7.4v-0.053H7.346L7.346,25.262z
	 M7.692,25.262v0.053h0.132v-0.025C7.781,25.273,7.736,25.264,7.692,25.262L7.692,25.262z M8.144,25.262l0.026,0.079
	c0.015-0.014,0.026-0.032,0.03-0.052c0.011-0.006,0.02-0.016,0.027-0.025H8.144V25.262z M9.794,25.262
	c0,0.071-0.035,0.043,0.053,0.079v-0.079H9.794z M10.22,25.262c0.01,0.069-0.02,0.035,0.053,0.053v-0.053H10.22z M10.646,25.262
	c-0.086,0.022-0.041-0.013-0.08,0.053h0.053v0.026h0.027V25.262z M11.046,25.262v0.053h0.027v-0.053H11.046L11.046,25.262z
	 M11.446,25.262c-0.086,0.022-0.041-0.013-0.08,0.053l0.08,0.026V25.262z M13.046,25.262h-0.112v0.053l0.106,0.026v-0.079H13.046z
	 M13.312,25.262v0.053c0.1-0.01,0.067,0.013,0.107-0.053h-0.112H13.312z M13.738,25.262v0.053c0.077,0,0.037,0.025,0.08,0
	c0.014-0.014,0.024-0.032,0.027-0.053h-0.112H13.738z M14.084,25.262v0.053h0.16v-0.053H14.084z M16.16,25.262l0.027,0.079h0.027
	v-0.079h-0.06H16.16z M16.453,25.262v0.053h0.186v-0.053h-0.192H16.453z M16.985,25.262v0.053h0.027v-0.053h-0.033H16.985z
	 M17.251,25.262v0.053h0.16v-0.053H17.251z M19.22,25.262c0.021,0.043,0.061,0.072,0.107,0.079v-0.026
	c0.011-0.006,0.02-0.015,0.027-0.025c-0.044-0.017-0.091-0.025-0.139-0.027H19.22z M19.566,25.262v0.053h0.186v-0.053h-0.191H19.566
	z M20.018,25.262v0.079c0.029,0.001,0.057-0.009,0.08-0.026c0.014-0.014,0.023-0.032,0.027-0.053h-0.112H20.018z M20.337,25.262
	v0.053h0.187v-0.053h-0.19H20.337z M20.816,25.262c0,0.029,0.009,0.057,0.026,0.079v-0.026h0.027v-0.025L20.816,25.262z
	 M22.652,25.262v0.053h0.16v-0.053H22.652z M23.052,25.262l0.027,0.079H23.1v-0.079h-0.053H23.052z M23.425,25.262v0.053h0.16
	v-0.053H23.42H23.425z M23.825,25.262l0.026,0.079h0.027v-0.026c0.014-0.014,0.023-0.032,0.027-0.053H23.825L23.825,25.262z
	 M24.171,25.262v0.053h0.187v-0.053h-0.192H24.171z M14.537,25.288c-0.009,0.037,0.038,0.038,0.053,0.053
	c0.01-0.028-0.052-0.041-0.059-0.052L14.537,25.288z M6.58,25.393v0.053l0.1,0.027c-0.032-0.03-0.067-0.057-0.106-0.078L6.58,25.393
	z M5.728,25.445c0.015,0.015,0.033,0.023,0.053,0.027c-0.016-0.016-0.037-0.023-0.059-0.025L5.728,25.445z M6.068,25.5v0.053h0.026
	V25.5H6.068z M6.414,25.5v0.053h0.133V25.5H6.414z M26.48,25.5l0.08,0.025v0.026C26.527,25.55,26.496,25.53,26.48,25.5L26.48,25.5z
	 M26.295,25.525c-0.009,0.037,0.038,0.039,0.053,0.054C26.366,25.55,26.3,25.534,26.295,25.525L26.295,25.525z M5.164,25.579
	c0.066,0.07,0.149,0.124,0.24,0.157C5.335,25.668,5.253,25.613,5.164,25.579L5.164,25.579z M5.11,25.6
	c-0.009,0.037,0.038,0.039,0.053,0.053C5.182,25.629,5.117,25.613,5.11,25.6z M25.656,25.811c0.036,0.004,0.072,0.012,0.105,0.026
	v0.026c-0.041,0.008-0.084-0.012-0.107-0.047L25.656,25.811z M25.576,25.837c0.036,0.003,0.072,0.012,0.105,0.026v0.025
	c-0.041,0.007-0.083-0.012-0.105-0.047V25.837z M5.909,25.916h0.24v0.025H6.121c-0.085,0.03-0.177,0.039-0.266,0.026v-0.021
	c0.02-0.003,0.039-0.012,0.053-0.026L5.909,25.916z"/>
</svg>
