<?xml version="1.0" encoding="utf-8"?>
<!-- Generator: Adobe Illustrator 16.0.0, SVG Export Plug-In . SVG Version: 6.00 Build 0)  -->
<!DOCTYPE svg PUBLIC "-//W3C//DTD SVG 1.1//EN" "http://www.w3.org/Graphics/SVG/1.1/DTD/svg11.dtd">
<svg version="1.1" id="Layer_1" xmlns="http://www.w3.org/2000/svg" xmlns:xlink="http://www.w3.org/1999/xlink" x="0px" y="0px"
	 width="39.938px" height="40px" viewBox="0 0 39.938 40" enable-background="new 0 0 39.938 40" xml:space="preserve">
<path id="Color_Fill_1" fill="#FFFFFF" d="M13.039,11.425v0.147c-1.58,0-2.792,0.1-4.216,0.1c-0.042,0.16-0.059,0.325-0.05,0.489
	c0.048,0.275,0.081,0.553,0.101,0.832H8.627v0.245H8.527c0.01-0.085-0.007-0.171-0.049-0.245c-0.337,0.3-0.869,0.3-0.882,0.93
	c0.644,0.044,1.438,0.049,2.157,0.049v-0.247H9.9v-0.881c-0.07,0.007-0.141-0.011-0.199-0.049c0.092-0.146,0.143-0.315,0.146-0.489
	c0.221-0.021,0.3-0.1,0.393-0.1c0.178,0.262,0.108,0.359,0.588,0.343c0.368,0.113,0.745,0.195,1.128,0.245v0.05
	c-0.243,0-0.254,0-0.344,0.147c-0.451-0.162-0.936-0.213-1.411-0.147v0.1c-0.07,0.255-0.087,0.521-0.05,0.783h0.49v-0.051
	c-0.004-0.229,0.013-0.458,0.049-0.685h0.393l0.049,0.734h0.686v0.245c0.509,0,1.03,0.028,1.472,0.049v-0.147
	c0.04-0.025,0.075-0.059,0.1-0.1c0.038,0.004,0.073,0.022,0.1,0.049c0.152,0.06,0.111,0.018,0.147,0.2
	c-0.056,0.029-0.093,0.084-0.1,0.147c0.197-0.005,0.394,0.012,0.588,0.049c0.037,0.273,0.228,0.501,0.489,0.587
	c0.521-0.066,1.049-0.066,1.569,0c0.017-0.127,0.117-0.228,0.245-0.245v0.245h0.1c0.157-0.055,0.325-0.071,0.49-0.049
	c0.029,0.228,0.046,0.456,0.049,0.685c3.473,0,7.209,0.05,10.883,0.049c0.294,0.035,0.593,0.019,0.882-0.049l0.1-0.147h0.833
	c0.832-0.083,1.672-0.066,2.5,0.049c0.057,0.077,0.105,0.159,0.147,0.245h2.156c1.974,0,3.209-0.289,5.245-0.294
	c0.145,0.459,0.194,0.941,0.147,1.42c-0.593,0.292-1.266,0.378-1.912,0.245c-0.618-0.262-1.297-0.347-1.961-0.245
	c-0.091-0.006-0.177-0.041-0.245-0.1H32.4c-0.028,0.069-0.062,0.136-0.1,0.2c-0.806,0.173-1.635,0.208-2.451,0.1h-0.927l-0.1-0.147
	l-0.784-0.049c-3.652,0-7.479,0.051-10.784,0.049c-0.059,0.113-0.2,0.242-0.245,0.343c0.041,0.094,0.041,0.201,0,0.294h-1.47v0.049
	c0.208,0.247-0.021,0.335,0.44,0.343c0.063,0.041,0.13,0.075,0.2,0.1c0.01,0.069-0.04-0.02-0.049,0.049
	c-0.094,0.038,0.1,0.049,0.1,0.049c0.063-0.121-0.021-0.033,0.101-0.1c-0.097-0.085-0.136-0.219-0.101-0.343
	c0.3-0.099,0.617-0.133,0.932-0.1c0.058,0.159,0.229,0.246,0.392,0.2v-0.1h0.2l0.049,0.1c0.235,0.085,0.359-0.173,0.637-0.1
	c0.181,0.094,0.387,0.129,0.588,0.1c0.282-0.105,0.585-0.14,0.883-0.1c0.728,0.19,2.673-0.149,2.892,0.441
	c-0.071,0.04-0.11,0.119-0.1,0.2h0.049v0.049c0.944,0.235,1.864,0.563,2.745,0.979c0.357,0.037,0.705,0.137,1.028,0.295
	c0.285,0.492-0.521,1.051-0.686,1.321c0.205,0.005,0.4,0.093,0.539,0.245c0.031,0.043,0.049,0.094,0.049,0.146
	c-0.123,0.066-0.184,0.209-0.147,0.344c0.065-0.023,0.136-0.023,0.2,0c0.027,0.027,0.044,0.063,0.049,0.1h-0.1
	c-0.108,0.052-0.234,0.052-0.343,0c-0.028-0.119-0.1-0.224-0.2-0.294c-0.038,0.033-0.109,0.063-0.146,0.101
	c0.05,0.123,0.066,0.259,0.049,0.392c-0.159,0.041-0.075-0.024-0.147,0.1c0.121,0.408,0.029,0.85-0.245,1.175
	c-0.3,0.264-0.649,0.463-1.028,0.588c-0.681,0.352-1.412,0.834-2.108,1.125c-0.563,0.125-1.143,0.159-1.716,0.101H3.676
	c-0.406-0.155-0.799-0.343-1.176-0.56c-1.307-0.566-2.827-0.662-2.3-2.644c-0.181-0.034-0.135,0-0.2-0.147
	c0.146-0.032,0.261-0.146,0.294-0.293c-0.159-0.171-0.215-0.414-0.147-0.637H0.2c-0.002,0.101,0.015,0.2,0.049,0.294h0.045v-1.614
	c0.065-0.57,0.249-1.121,0.539-1.615h0.1v0.1c0.087,0.368,0.104,0.749,0.047,1.123c0.121,0.106,0.28,0.159,0.441,0.146v-0.049
	c-0.106-0.07-0.205-0.152-0.294-0.244c-0.063-0.291-0.063-0.591,0-0.881c0.459-0.322,1.884,0.387,2.5-0.147H2.059V17.25
	c-0.268-0.037-0.531-0.104-0.784-0.2l-0.979,0.049c-0.069-0.388-0.086-0.783-0.049-1.175H0.98c-0.001-0.051-0.018-0.1-0.049-0.14
	c-0.222,0.068-0.456,0.085-0.686,0.049C0.22,15.77,0.205,15.702,0.2,15.634c0.08-0.32,0.097-0.652,0.049-0.979
	c0.714,0.011,0.821,0,1.52,0v-0.1c-0.026-0.027-0.044-0.063-0.049-0.1h0.339c0-0.053,0.017-0.105,0.049-0.147
	C2.199,14.266,2.3,14.251,2.4,14.264c0-0.157-0.035-0.189,0.245-0.2c0.157-0.055,0.325-0.072,0.49-0.049l0.049-0.245
	c0.117-0.074,0.254-0.109,0.393-0.1c0.074,0.127,0.141,0.258,0.199,0.392l0.294,0.049v-0.043c-0.239-0.263-0.438-0.561-0.59-0.884
	c0.008-0.099,0.024-0.198,0.049-0.294h0.2c-0.02,0.111-0.045,0.053,0,0.147c0.25,0.183,0.533,0.316,0.833,0.392
	c0.007-0.063,0.044-0.118,0.101-0.146c0.02,0.175-0.023,0.123,0.1,0.2c0.378,0.131,0.782,0.165,1.176,0.1v-0.198
	c0.258-0.053,0.521-0.069,0.784-0.049c0.065,0.073,0.15,0.124,0.245,0.147c0.033,0.038,0.064,0.109,0.1,0.147v-0.1
	c0.089-0.074,0.066-0.222,0.147-0.294c0.291-0.257,1.264-0.58,1.324-0.979c-0.027-0.027-0.044-0.062-0.049-0.1
	c-0.218,0.031-0.44-0.003-0.638-0.1l-0.058-0.142c-0.318-0.062-0.647-0.009-0.932,0.147c-0.017-0.028-0.105-0.227,0-0.245H6.176
	c-0.005-0.038-0.021-0.073-0.049-0.1c0.044-0.041,0.078-0.091,0.1-0.147H6.078c-0.013,0.021-0.029,0.037-0.05,0.049l0.05,0.1h-0.05
	c-0.026,0.027-0.062,0.044-0.1,0.049c-0.021-0.118-0.056-0.232-0.1-0.343c0.056-0.09,0.123-0.172,0.199-0.245
	c0.045,0.074,0.062,0.16,0.05,0.245h0.146c-0.022-0.149-0.1-0.154-0.049-0.2c0.064-0.045,0.206,0,0.294-0.049l0.049-0.147
	c0.063-0.025,0.373,0.145,0.638,0.147c0.648,0,1.539-0.085,1.568-0.049c0.034,0.062,0.085,0.113,0.147,0.147
	c0.34,0.057,0.685,0.074,1.028,0.049C10.942,11.458,11.992,11.493,13.039,11.425z M6.274,11.525c0.255,0.086,0.53,0.086,0.784,0
	H6.274L6.274,11.525z M9.754,11.965c0.311-0.046,0.627-0.029,0.931,0.049c-0.311,0.045-0.626,0.028-0.93-0.051L9.754,11.965z
	 M6.764,12.112h0.101c-0.013,0.02-0.029,0.037-0.05,0.049v0.049c-0.026-0.027-0.044-0.062-0.05-0.1L6.764,12.112z M6.964,12.112h0.1
	C7,12.184,7.038,12.17,6.961,12.11L6.964,12.112z M9.664,12.895c0.031,0.042,0.049,0.094,0.049,0.147H9.657v-0.149L9.664,12.895z
	 M9.615,13.095c0.074,0.172,0.074,0.367,0,0.538v-0.549V13.095z M3.733,13.195c0.044,0.041,0.094,0.074,0.147,0.1
	c-0.028-0.062-0.087-0.104-0.155-0.111L3.733,13.195z M6.086,13.44v0.147h0.2l0.049-0.147H6.078H6.086z M9.664,13.734
	c0.026,0.027,0.044,0.063,0.049,0.1H9.657v-0.1H9.664z M3.34,14.028h0.2c-0.005-0.069-0.021-0.136-0.049-0.2
	c-0.038,0.004-0.073,0.021-0.101,0.049c-0.033,0.04-0.054,0.09-0.058,0.142L3.34,14.028z M13.389,13.881
	c0.005,0.069,0.021,0.137,0.049,0.2h0.042v-0.062c0.032-0.042,0.049-0.094,0.049-0.147h-0.146L13.389,13.881z M1.281,14.762
	c-0.011,0.165,0.006,0.33,0.049,0.489h0.043v-0.057c0.037-0.06,0.054-0.129,0.049-0.2h0.146v0.245H2.01v-0.438
	c-0.063-0.026-0.131-0.042-0.2-0.049c-0.178,0.021-0.357,0.021-0.535,0L1.281,14.762z M1.722,14.862
	c0.071,0.1,0.106,0.221,0.101,0.343H1.765v-0.06c-0.044-0.091-0.061-0.193-0.049-0.294L1.722,14.862z M1.771,15.4
	c-0.009,0.185,0.025,0.369,0.101,0.538c0.038-0.004,0.073-0.022,0.1-0.049c0.043-0.096,0.057-0.202,0.039-0.305
	c-0.046-0.093-0.019-0.057,0-0.2H1.765L1.771,15.4z M38.193,15.449v1.322c0.412,0.018,0.718,0,1.177,0
	c0.063-0.085,0.098-0.188,0.1-0.294c0.08-0.305,0.08-0.625,0-0.93c-0.25-0.093-0.519-0.127-0.784-0.1
	c-0.164-0.036-0.334-0.039-0.499-0.008L38.193,15.449z M37.752,15.498c-0.313,0.274-0.737,0.168-0.735,0.783
	c0.253,0.189,0.534,0.338,0.833,0.441v-0.353c0.109-0.295,0.07-0.624-0.104-0.885L37.752,15.498z M1.919,16.33h0.14
	c0.008-0.117-0.049-0.229-0.146-0.294v0.294H1.919z M1.282,16.575h0.199v-0.2l-0.199-0.049v0.238V16.575z M1.282,16.675l0.049,0.245
	h0.1v-0.258H1.275L1.282,16.675z M23.48,18.669c-0.178-0.043-0.357-0.076-0.539-0.101v0.101l0.101,0.049
	c0.112,0.083,0.253,0.119,0.392,0.101C23.464,18.774,23.481,18.723,23.48,18.669z M23.97,18.869c-0.021,0.056-0.056,0.106-0.1,0.146
	l0.539,0.101v-0.101L23.97,18.869z M24.558,19.068v0.101c0.07,0.007,0.141-0.011,0.2-0.049c-0.069-0.009-0.137-0.028-0.199-0.06
	L24.558,19.068z M1.715,19.754h0.147c-0.012-0.02-0.028-0.037-0.049-0.049l0.049-0.1H1.814c-0.027-0.027-0.062-0.045-0.1-0.049
	v0.199L1.715,19.754z M1.615,20.292c-0.001,0.054,0.017,0.104,0.049,0.147c0.051-0.068,0.12-0.119,0.2-0.147H1.814v-0.056
	c-0.063,0.025-0.128,0.041-0.195,0.048L1.615,20.292z M23.331,22.984c-0.164,0.092-0.3,0.228-0.393,0.392
	c-0.031,0.042-0.049,0.095-0.049,0.147h0.049c0.24-0.11,0.47-0.242,0.687-0.393c-0.08-0.078-0.182-0.133-0.292-0.154L23.331,22.984z
	 M2.253,23.033c-0.343,0.5-0.05,0.354,0.49,0.587v-0.2c-0.038-0.06-0.055-0.13-0.05-0.2c-0.15-0.053-0.298-0.118-0.438-0.194
	L2.253,23.033z M19.953,23.718c-0.032,0.161-0.101,0.312-0.2,0.441h0.49v-0.056c-0.078-0.145-0.177-0.276-0.292-0.393L19.953,23.718
	z M14.218,23.768c-0.049,0.139-0.115,0.271-0.2,0.392h0.441v-0.056c-0.089-0.109-0.17-0.224-0.243-0.344L14.218,23.768z
	 M8.532,23.816l-0.2,0.343h0.393v-0.101c-0.071-0.078-0.137-0.162-0.196-0.25L8.532,23.816z M11.375,23.816l-0.2,0.343h0.392v-0.101
	c-0.076-0.073-0.142-0.157-0.193-0.25L11.375,23.816z M17.061,23.816c-0.042,0.127-0.109,0.244-0.2,0.343H17.3v-0.101
	c-0.068-0.094-0.149-0.178-0.241-0.25L17.061,23.816z M5.688,23.865c-0.061,0.102-0.127,0.2-0.2,0.294h0.395v-0.101
	C5.8,23.992,5.769,23.92,5.686,23.857L5.688,23.865z"/>
</svg>
