<svg xmlns="http://www.w3.org/2000/svg" width="80" height="40" viewBox="0 0 80 40">
  <defs>
    <style>
      .cls-1 {
        fill: #fff;
        fill-rule: evenodd;
      }
    </style>
  </defs>
  <path id="uk_mtb_2series_ico" class="cls-1" d="M36.287,5.026c0.041,0.57,0,1.555,0,2.295V12.3H36.55V12.38H36.314v0.313H36.55v0.1H36.419V12.85a0.344,0.344,0,0,0-.026.183h-0.1v1.539a0.342,0.342,0,0,1,.21.1,0.964,0.964,0,0,0,.6-0.078v0.261H37.074a1.019,1.019,0,0,0-.63-0.052,1.427,1.427,0,0,1-.157.156v3.625H36.209v0.522h0.367c0.1-.395.806-0.274,1.286-0.261,0.075-.114.209-0.159,0.289-0.261a2.23,2.23,0,0,1,.551-0.574V17.987H38.57v-0.1H38.386v0.078H38.019a0.1,0.1,0,0,0-.079-0.13,1.962,1.962,0,0,0-.892-0.13V17.231a1.626,1.626,0,0,1,.577.261,1.766,1.766,0,0,0,.656.078,0.364,0.364,0,0,0,.026-0.1,0.467,0.467,0,0,1-.079-0.235l0.184-.026a1.628,1.628,0,0,0,.079.339,0.1,0.1,0,0,0,.052.026,0.688,0.688,0,0,0,.053-0.287,0.462,0.462,0,0,1-.079-0.157,0.141,0.141,0,0,0,.105-0.1c-0.056-.072-0.02-0.1-0.131-0.13a0.074,0.074,0,0,1-.026.026l-0.053.235a0.485,0.485,0,0,0-.157-0.026l-0.026-.078a0.451,0.451,0,0,0,.079-0.261,3.531,3.531,0,0,0-1.259.313V16.631c0.123,0,.585.015,0.63,0a0.753,0.753,0,0,1,.315-0.1V16.449a1.09,1.09,0,0,1,.394-0.052c0.039,0.067.079,0.055,0.184,0.052v-0.1h0.341a0.853,0.853,0,0,0,.026-0.261h0.079v0.235h0.026v0.026a1.173,1.173,0,0,1,.5.078c0.032,0.014.4,0,.525,0h1.076a0.141,0.141,0,0,1,.079-0.1v0.1h0.735v0.313H40.512V17.6a8.2,8.2,0,0,0,1.443,0v0.313a6.323,6.323,0,0,0-.735.026v0.1H41.168v-0.1a8.152,8.152,0,0,1-1.81-.052v0.1H39.042a0.851,0.851,0,0,0-.026.261H38.937V18.014a0.413,0.413,0,0,0-.131-0.026,0.439,0.439,0,0,0-.131.209,1.221,1.221,0,0,1,.289.47,0.757,0.757,0,0,0,.131.443H39.62a8.72,8.72,0,0,0-.052.991,3.792,3.792,0,0,0,.866-0.209c0.442-.133.892-0.187,1.312-0.313a3.181,3.181,0,0,0,.866-0.209,0.174,0.174,0,0,0,.026-0.1c-0.1-.047-0.106-0.061-0.1-0.209a0.371,0.371,0,0,1,0-.209,0.41,0.41,0,0,1,.21-0.182,0.1,0.1,0,0,0,.079.052,0.7,0.7,0,0,1,.053-0.313l0.079-.026a1.609,1.609,0,0,1,.551.782l0.262-.052c0.017-.245.026-0.552,0.026-0.834h0.052V19a0.132,0.132,0,0,1,.026.078h0.079a3.925,3.925,0,0,0,1,1.252c0.039-.043.019-0.026,0.052-0.026,0.181,0.12.284,0.4,0.472,0.5a3.022,3.022,0,0,0,.394.052v0.026H45.681a0.228,0.228,0,0,0-.131-0.026v0.026c0.066,0.046.092,0.11,0.157,0.156a0.468,0.468,0,0,0-.079.13h0.026V21.2a0.276,0.276,0,0,1,.157-0.052,0.939,0.939,0,0,0,.236.261,3.165,3.165,0,0,0,.682.756c0.1-.171.525,0.13,0.525,0.13,0.072,0.09.065,0.242,0.131,0.339a5.07,5.07,0,0,1,.84,1.2,1.154,1.154,0,0,1-.026.391l-0.131-.026v0.052a0.248,0.248,0,0,1,.079.1H48.8v-1.1H48.7V22.473h4.8c0.014,0.275.195,0.266,0.21,0.548-0.054.033-.009,0.1,0,0.235-0.085.022-.04-0.013-0.079,0.052a2.951,2.951,0,0,1,.367.7c0.04,0.088.077,0.166,0.105,0.235a0.168,0.168,0,0,1-.026.1h1.994a0.641,0.641,0,0,1,.289-0.026A1.317,1.317,0,0,1,57.3,23.36a9.651,9.651,0,0,0,1.207-.1,1.622,1.622,0,0,1-.053-0.782h4.959a1.019,1.019,0,0,0,0,.261A8.315,8.315,0,0,1,64.7,23.1a0.983,0.983,0,0,1,.157.469h0.052v-0.1a3.76,3.76,0,0,1-.131-1.069h0.053c0.185,0.139.488,0.133,0.656,0.287a2.206,2.206,0,0,1,.341,1.617h0.394a0.653,0.653,0,0,1,.761-0.391V23.673h3.647l-0.026.235h0.42c0.053,0.069.154,0.069,0.21,0.13,0.035,0.039.157,0.273,0.184,0.287h0.21a2.826,2.826,0,0,1,.394-0.469l0.236-.7c0.049-.1.135-0.271,0.236-0.235a1.588,1.588,0,0,1,.21,1.043,1.567,1.567,0,0,0,.394.235V24.142a0.282,0.282,0,0,1,0-.13c-0.084,0-.063.031-0.079-0.078a0.371,0.371,0,0,1,.184-0.209v-0.1h0.42a1.68,1.68,0,0,0,.157.5,0.2,0.2,0,0,0-.105.1c0.072,0.042.026,0,.026,0.1H73.677a0.1,0.1,0,0,0-.052-0.026v0.078L73.992,24.4v-0.13c0.156-.011.238-0.049,0.42-0.052a0.651,0.651,0,0,1,0-.209h0.026v0.026a0.342,0.342,0,0,1,.026.183c0.134-.01.26-0.014,0.42-0.026a0.438,0.438,0,0,1,.026-0.156h0.026v0.026a0.224,0.224,0,0,1,.026.13,7.064,7.064,0,0,0,1.1-.078,0.343,0.343,0,0,1,.052.209,0.418,0.418,0,0,0-.131.13h0.289V24.4a1.4,1.4,0,0,0,.026-0.522v-1.33c0.053-1.532.055-3.208,0.053-4.746h0.131l0.053,6.624h1.076V24.4h0.026a6.332,6.332,0,0,0,0-.913h0.052a0.917,0.917,0,0,1,.63,0v0.261a1.04,1.04,0,0,0,0,.678h0.5v0.052a0.279,0.279,0,0,1,.052.183H79a0.958,0.958,0,0,0,.026-0.287h0.157v0.261a1.425,1.425,0,0,0,.472.052,1.15,1.15,0,0,0,.341.052v0.13a1.1,1.1,0,0,0-.42.261,9.1,9.1,0,0,0-.472,1.382c-0.4,1.072-.71,2.229-1.154,3.286l0.21,0.078a0.089,0.089,0,0,1-.026.052c-0.029.075,0,.048-0.079,0.078-0.037.023-.147,0.028-0.184,0.052a1.508,1.508,0,0,0-.131.339,6.713,6.713,0,0,1-.525,1.043,4.755,4.755,0,0,1-2.125,1.617,15.766,15.766,0,0,1-2.309.469c-0.2.047-.409,0.013-0.577,0.052l-0.918.026a8.9,8.9,0,0,1-1.732.078H68.9a11.155,11.155,0,0,1-1.994.026c-1.428,0-2.917-.025-4.3-0.026-0.6,0-1.249-.023-1.81-0.026a6.077,6.077,0,0,1-1.154-.026c-0.418-.1-0.951.064-1.338-0.026-0.418-.1-0.951.064-1.338-0.026H55.651c-0.35-.077-0.818.031-1.207-0.026a11.771,11.771,0,0,0-1.522-.052,4.907,4.907,0,0,1-.945-0.026c-0.385-.09-0.88.056-1.233-0.026-0.385-.09-0.88.056-1.233-0.026l-2.44-.026c-0.686-.152-1.52.029-2.2-0.13-0.178-.042-0.431.008-0.577-0.026-0.17-.04-0.413.006-0.551-0.026-0.364-.085-0.768.026-1.1-0.052-0.364-.085-0.768.026-1.1-0.052H41.01c-0.35-.052-0.812,0-1.154-0.078l-2.2-.078c-0.837-.185-1.9.038-2.729-0.156-0.357-.083-0.751.024-1.076-0.052-0.357-.083-0.751.024-1.076-0.052h-0.5c-0.333-.049-0.776,0-1.1-0.078l-1.6-.052c-0.821-.181-1.86.034-2.676-0.156H26.343c-0.319-.07-0.7.024-1.05-0.052a5.99,5.99,0,0,0-2.125.052c-0.361.085-.745,0.026-1.076,0.1-0.289.068-.557-0.043-0.761,0-0.67.141-1.458,0.077-2.125,0.235l-0.525.026c-0.621.14-1.4,0.113-1.968,0.261-0.214.055-.877-0.006-0.971,0.052a0.252,0.252,0,0,0-.131.078c0.14,0.143.294,0.776-.026,0.834a1.309,1.309,0,0,1-.472-0.861H14.982V32.983a0.359,0.359,0,0,0,.21-0.078,0.074,0.074,0,0,0,.026-0.026,0.074,0.074,0,0,1-.026-0.026,2.19,2.19,0,0,1-.394.026,0.38,0.38,0,0,1-.1.1,0.933,0.933,0,0,1,.131.809,0.278,0.278,0,0,1-.131.052,1.469,1.469,0,0,1-.5-0.861H14.116l-0.026-.157h0.079c0.035-.072.069-0.058,0.1-0.13a1.047,1.047,0,0,1-.131-0.913H13.67a0.1,0.1,0,0,0-.053-0.026,3.216,3.216,0,0,1-.236.991,3.485,3.485,0,0,1-.1.782,0.718,0.718,0,0,1-.315.026,2.423,2.423,0,0,0-.525-0.235,11.726,11.726,0,0,0-.315-1.147,0.074,0.074,0,0,0,.026-0.026h0.079a0.937,0.937,0,0,0-.053-0.261l0.394-.156V31.705H12.1a1.371,1.371,0,0,0-.472-0.026l-0.84-.052v-3.7H10.758a3.452,3.452,0,0,1-.971.1c-0.442.1-.975,0.06-1.417,0.157l-0.577.026c-0.816.179-1.755,0.083-2.571,0.261l-0.866.052c-0.528.116-1.16,0.037-1.705,0.157-0.359.079-.766,0.019-1.154,0.1a7.253,7.253,0,0,1-1.417.13c0.009-.244-0.045-0.576-0.052-0.861,0-.1-0.026-0.313-0.026-0.313a3.251,3.251,0,0,1,.787-0.078L3.358,27.4C4,27.181,4.631,26.786,5.248,26.515,6.4,26.01,7.5,25.507,8.659,25c0.509-.223,1.018-0.473,1.548-0.7a1.73,1.73,0,0,1,.84-0.287v0.365l0.341-.026q0.013-2.373.026-4.746V18.3a3.035,3.035,0,0,1,0-.5,0.417,0.417,0,0,1,.21-0.026l0.053,0.078H11.6c0,1.309.025,2.671,0.026,3.938a23.95,23.95,0,0,0,.026,2.556c0.207,0.014.465,0.026,0.708,0.026V24.064h0.157a1.971,1.971,0,0,0-.052-0.391h1.968a3.235,3.235,0,0,0-.184-0.652l-0.1-.5a1.69,1.69,0,0,1-.184-0.548,0.074,0.074,0,0,0,.026-0.026l1.548-.156c0.25-.055.516,0,0.735-0.052h0.367c0.333-.073.742-0.069,1.023-0.156a0.531,0.531,0,0,1,.236.026l0.577-.052c0.866-.2,1.858-0.193,2.7-0.391l0.63-.052c0.118-.028.248-0.082,0.367-0.1l0.315,0.026c0.608-.13,1.311-0.088,1.942-0.235a4.542,4.542,0,0,1,1.784-.13V20.7c-0.083.089-.078,0.242-0.157,0.339-0.041.051-.144,0.048-0.184,0.1l-0.184.417c-0.183.3-.348,0.62-0.551,0.913a3.3,3.3,0,0,1-2.624,1.069v0.652h2.545a4.046,4.046,0,0,0,.026-1.069,2.058,2.058,0,0,1,.551-0.026,0.658,0.658,0,0,1,.341-0.7,3.506,3.506,0,0,0,.656.574,1.971,1.971,0,0,1,.63-0.574,0.921,0.921,0,0,1,.079.078,1.085,1.085,0,0,1,.131.626H28.1v0.887h0.63a0.372,0.372,0,0,1-.052.183h1.233a0.229,0.229,0,0,0,.131.026,6.34,6.34,0,0,1,.026-1.121h0.525V23.021c0.106-.172,0-0.567.315-0.6V22.395c0.026-.026.026,0.026,0.026,0.026a7.209,7.209,0,0,0,.656.548,1.542,1.542,0,0,1,.6-0.574c0.02,0.018.058,0.034,0.079,0.052a1.076,1.076,0,0,1,.157.626h0.63v1.174h0.184v0.13h0.577c0.107-1.658.026-3.344,0.026-5.007a4.779,4.779,0,0,1,.236-2.269,1.547,1.547,0,0,1,1.05-.391v0.078a8.29,8.29,0,0,1-.341,1.3,0.172,0.172,0,0,0-.157,0,1.76,1.76,0,0,0-.079.756v1.513a1.083,1.083,0,0,0,.1.7,0.49,0.49,0,0,1,.262-0.026V20.882h-0.1V20.8a9.212,9.212,0,0,0,1.259-.052V19.213a2.442,2.442,0,0,1,0-.626,0.183,0.183,0,0,1-.131-0.13,3.87,3.87,0,0,0,.105-1.513L36,13.893a5.343,5.343,0,0,1,.026-1.3,0.529,0.529,0,0,1-.184-0.026,3.74,3.74,0,0,0-.971-1.069l-0.892-.913-0.42-.391a7.241,7.241,0,0,0-.708-0.73,2.6,2.6,0,0,0-.367-0.365V9.016h0.079a5.736,5.736,0,0,0,.787.782c0.582,0.578,1.176,1.143,1.758,1.721a2.879,2.879,0,0,0,.945.835c0-2.514,0-4.734,0-7.2-0.066-.01-0.041.015-0.053-0.078,0.064-.024.042-0.028,0.1-0.052A0.234,0.234,0,0,1,36.287,5.026ZM7.137,27.037l0.971-.078,1.837-2.425H9.866a2.191,2.191,0,0,1-.577.261c-0.483.212-.985,0.492-1.469,0.7-0.088.038-.744,0.289-0.761,0.313v0.365A3.773,3.773,0,0,1,7.137,27.037Zm3.07-.287-0.157-2.165H10.023v0.026a7.246,7.246,0,0,0-.735.991c-0.323.447-.733,0.852-1.023,1.33H8.422a1.991,1.991,0,0,1,.525-0.052A7.283,7.283,0,0,1,10.207,26.75Zm-3.385-.834a2.4,2.4,0,0,1-.63.287c-0.428.188-.893,0.411-1.312,0.626-0.205.105-.573,0.109-0.577,0.417a0.094,0.094,0,0,1,.026.052H4.618a3.926,3.926,0,0,1,1-.1,3.373,3.373,0,0,1,.472-0.469A5.216,5.216,0,0,1,6.9,25.942V25.916H6.822Z" transform="translate(0 0.484)"/>
</svg>
