<svg xmlns="http://www.w3.org/2000/svg" width="40" height="40" viewBox="0 0 40 40">
  <defs>
    <style>
      .cls-1 {
        fill: #fff;
        fill-rule: evenodd;
      }
    </style>
  </defs>
  <path id="Color_Fill_1" data-name="Color Fill 1" class="cls-1" d="M17.821,16.65h0.343V16.456L18.7,16.5a0.235,0.235,0,0,1-.049.146,0.167,0.167,0,0,0-.049-0.1v0.195c0.068,0.01-.02-0.04.049-0.049,0.038-.094.049,0.1,0.049,0.1a0.419,0.419,0,0,1,.049.243,3.388,3.388,0,0,1,.392.195c0.027,0.008,1.38-.114,1.518-0.146a2.542,2.542,0,0,1,1.175-.243c0.247,0.069.381,0.321,0.637,0.39a2.6,2.6,0,0,0,.2,1.218,0.25,0.25,0,0,0,.147.049,0.405,0.405,0,0,1,.49-0.195v0.049c-0.184.007-.172-0.023-0.245,0.1,0.3,0.033.41,0.15,0.685,0.195a0.7,0.7,0,0,0,.2-0.39,0.623,0.623,0,0,0,.2-0.049V18.4a0.764,0.764,0,0,0-.343.438h0.049c0.063-.12-0.021-0.033.1-0.1a0.389,0.389,0,0,0,0,.195c0.176-.081.122-0.034,0.294,0.049a0.39,0.39,0,0,1,.294-0.1c0.046,0.165.019,0.151,0.2,0.195a2.787,2.787,0,0,0,1.028.049c0.892,0,1.878.015,2.693-.049,0.041-.158-0.024-0.074.1-0.146a5.588,5.588,0,0,0,2.007,0c0.02,0.174-.023.123,0.1,0.195,0.192-.074,2,0.049,2.644.049L40,19.232v0.585l-9.106.049a12.892,12.892,0,0,1-2.546.049H25.116a0.787,0.787,0,0,0-.539.1v0.1a0.543,0.543,0,0,1-.294,0,0.278,0.278,0,0,1-.1.1v-0.1H24.137V20.06a1.733,1.733,0,0,1-.147.146,0.234,0.234,0,0,0-.049-0.146,1.427,1.427,0,0,1-.538.244H23.354V20.255c-0.06-.065-0.089-0.174-0.147-0.243-0.043.042-.158,0.054-0.2,0.1a2.022,2.022,0,0,0-.049.39,3.422,3.422,0,0,1-.441.244v0.292h0.637v-0.1a0.194,0.194,0,0,1,.245.1,0.522,0.522,0,0,0,.441-0.1,1.421,1.421,0,0,1,.441.1c0.055-.14.009-0.09,0.147-0.146V20.742c0.473,0,.4-0.133.832-0.146a0.7,0.7,0,0,1-.049.244h0.245a0.425,0.425,0,0,0,.245.049v0.146l-0.343-.049c0.036,0.2.024,0.216,0.2,0.243a1.44,1.44,0,0,0,.392.1,8.409,8.409,0,0,1,.734.536c0.1-.439.08-0.124,0.343-0.292,0.185-.119-0.052-0.253.294-0.292,0.067,0.2.027,0.267,0.294,0.292,0.038-.2.036-0.251,0.245-0.292a0.489,0.489,0,0,0,.2.244,0.636,0.636,0,0,1,.49-0.1,0.418,0.418,0,0,0,.294.195c0,0.314.049,0.442,0.392,0.438,0.189,0.114.541,0.038,0.734,0.146,0.508,0.283.923,0.723,1.42,1.023a0.166,0.166,0,0,1-.049.1A4.161,4.161,0,0,1,30.5,24.4a4.563,4.563,0,0,1-.832,1.218c-0.746.54-1.649,0.833-2.448,1.315a6.717,6.717,0,0,1-1.811.974H8.274a9.06,9.06,0,0,1-2.4-.049c-0.675-.228-1.4-0.689-2.056-0.974A11.924,11.924,0,0,1,1.812,26a2.113,2.113,0,0,1-.588-0.779,1.058,1.058,0,0,0-.2-0.585,0.5,0.5,0,0,1-.49.146,0.641,0.641,0,0,1-.1-0.39,1.741,1.741,0,0,1,0-.877H0.294v-0.1c0.188-.075.161-0.229,0.147-0.487L0.1,22.885C0.087,22.332,0,22.32,0,21.716H0.049V21.668H0.1v0.1a0.767,0.767,0,0,0-.049.39h0.1V21.814A1.268,1.268,0,0,0,.1,21.424c0.085-.107.112,0.01,0.147-0.195H0.1A0.332,0.332,0,0,0,0,21.034V20.986H0.049a0.786,0.786,0,0,1,.832-0.341,0.429,0.429,0,0,1,.1-0.341,0.626,0.626,0,0,1-.294-0.195,1.133,1.133,0,0,0,.49.1V20.06c-0.391,0-.556-0.069-0.832-0.049V19.865a6.017,6.017,0,0,1,1.518,0,0.717,0.717,0,0,0,.1.487c0.142-.062.3,0.094,0.539,0.049a8.953,8.953,0,0,1,1.518-.146,0.7,0.7,0,0,1,.049-0.243H4.113V20.06c0.032,0.042.065,0.153,0.1,0.195a4.838,4.838,0,0,1,.832-0.1,1.84,1.84,0,0,0,.147-0.146,1.354,1.354,0,0,0,.685.146A5.728,5.728,0,0,1,7,20.012v-0.39H7.344a0.139,0.139,0,0,0,.049.049c0,0.19-.024.219,0.1,0.292a5.152,5.152,0,0,0,1.028.049c-0.124-.072-0.1-0.1-0.1-0.292a2.611,2.611,0,0,1,1.518.584c-0.01-.161-0.068-0.2.1-0.292a8.662,8.662,0,0,1,2.35.1V20.06a2.542,2.542,0,0,0-.832-0.39H10.526a1.805,1.805,0,0,0-.881-0.244v0.049c0.046,0.106.07,0.145-.049,0.195v0.049a0.486,0.486,0,0,1-.245-0.049A0.42,0.42,0,0,1,9.3,19.427a12.331,12.331,0,0,0-2.105.049v-0.39a7.578,7.578,0,0,0,.049-1.9,0.317,0.317,0,0,1-.2-0.049h0.2a0.306,0.306,0,0,1,.1-0.244c-0.155,0-.066.083-0.147-0.049h0.2a10.4,10.4,0,0,0,1.077.049,0.485,0.485,0,0,1,.245-0.1V16.6a0.9,0.9,0,0,1,.294-0.049,0.166,0.166,0,0,0,.049.1l-0.049.244c0.494,0,1.068.077,1.371,0.049a1.014,1.014,0,0,1,.343-0.731,0.533,0.533,0,0,1,.294-0.049V12.851a3.641,3.641,0,0,1,.049-1.315V16.31h0.1a0.4,0.4,0,0,1,.49-0.244,2.005,2.005,0,0,1,.441.925h0.734V16.65a3.637,3.637,0,0,1,.636-0.049V16.456H13.17V16.31a5.418,5.418,0,0,0,1.322-.292,4.059,4.059,0,0,1,1.714.244V15.774H16.5a2.459,2.459,0,0,1,0,.828h0.1a0.391,0.391,0,0,1,.2-0.049,0.441,0.441,0,0,1,.294-0.39,0.25,0.25,0,0,1,.147-0.049v-3.7A3.941,3.941,0,0,1,17.283,11v5.115A0.87,0.87,0,0,1,17.821,16.65ZM12,17.04a1.46,1.46,0,0,0-.441-0.877,0.168,0.168,0,0,0-.1.049,0.5,0.5,0,0,0-.1.779A1.485,1.485,0,0,0,12,17.04Zm-1.567.049,0.392,0.049v-0.1a1.156,1.156,0,0,0,.147-0.731H10.918V16.261a0.168,0.168,0,0,0-.1.049A1.074,1.074,0,0,0,10.428,17.089Zm6.659-.828a1.415,1.415,0,0,0-.2.39h0.2V16.6c-0.125-.071-0.055.011-0.1-0.146h0.1a0.177,0.177,0,0,0,.1.049V16.31h0.049V16.261H17.087Zm0.2,0V16.5h0.049v0.049a0.623,0.623,0,0,1,.2.049V16.456a1.731,1.731,0,0,0-.147-0.146A0.178,0.178,0,0,0,17.283,16.261ZM8.911,16.6a0.314,0.314,0,0,0,.049.195A0.314,0.314,0,0,0,8.911,16.6Zm-0.147.049v0.1H8.813A0.167,0.167,0,0,0,8.764,16.65Zm2.3,0.049a2.394,2.394,0,0,1,.147.341h0.049A0.382,0.382,0,0,0,11.065,16.7Zm0.832,0.39c0.084,0.043.063,0.043,0.147,0H11.9Zm6.854,0a0.177,0.177,0,0,0,.1.049A0.177,0.177,0,0,0,18.752,17.089Zm2.791,0.049a0.617,0.617,0,0,1-.049.195h0.049a0.436,0.436,0,0,1,.147-0.146V17.138H21.542Zm-1.028.292V17.284a2.145,2.145,0,0,0-.979.195Zm0.1-.146c0.041,0.158-.024.074,0.1,0.146V17.381a0.176,0.176,0,0,0,.049-0.1H20.612Zm0.734,0.146-0.1.146C21.265,17.585,21.48,17.447,21.346,17.43Zm0.685,0c-0.069.123-.2,0.124-0.049,0.195a0.434,0.434,0,0,1,.147-0.146A0.177,0.177,0,0,0,22.032,17.43Zm-2.105.146a0.2,0.2,0,0,0,.245,0H19.927Zm2.252,0.049a0.434,0.434,0,0,0-.1.341h0.1C22.276,17.837,22.322,17.752,22.179,17.625Zm0.2,0.049a0.314,0.314,0,0,0,.049.195A0.313,0.313,0,0,0,22.375,17.673Zm-0.588.146v0.049H21.738c-0.094.038,0.1,0.049,0.1,0.049A0.167,0.167,0,0,0,21.787,17.82Zm0.147,0.049c-0.037.128-.059,0.116-0.1,0.243h0.049a0.178,0.178,0,0,1,.1-0.049V17.868H21.934Zm0.49,0.049a1.657,1.657,0,0,0,.1.633H22.57v-0.1C22.485,18.321,22.512,18.05,22.424,17.917Zm-0.2.1a0.518,0.518,0,0,0-.1.39,1.266,1.266,0,0,0,.245.1V18.355A0.711,0.711,0,0,0,22.228,18.014Zm-0.343.146c0.019,0.127-.036.064,0.1,0.1v-0.1h-0.1Zm1.665,0.1a0.637,0.637,0,0,1,.343.049A0.638,0.638,0,0,1,23.55,18.258Zm-0.049.195h0.1V18.5A0.168,0.168,0,0,1,23.5,18.453Zm-0.2.244c-0.037.128-.059,0.116-0.1,0.244h0.1a0.212,0.212,0,0,1,.147-0.146V18.745Zm0.2,0.1-0.049.146H23.5V18.891C23.562,18.815,23.532,18.866,23.5,18.794Zm0.1,0.049v0.1h0.1v-0.1H23.6ZM9.89,19.622h0.1v0.049A0.168,0.168,0,0,1,9.89,19.622Zm0.441,0.146h0.1v0.049h-0.1V19.768Zm0.147,0h0.1v0.049h-0.1V19.768Zm-9.107.244c0.041,0.158-.024.074,0.1,0.146V20.012h-0.1Zm-0.979.731-0.049.146h0.2v-0.1H0.49A0.177,0.177,0,0,0,.392,20.742Zm27.76,0.779c0.084,0.043.063,0.043,0.147,0H28.152Zm-1.322.1-0.049.146H26.83v-0.1h0.1V21.619h-0.1Zm0.588,0c0.084,0.043.063,0.043,0.147,0H27.417Zm0.685,0a0.177,0.177,0,0,0,.1.049A0.177,0.177,0,0,0,28.1,21.619Zm0.49,0a0.686,0.686,0,0,0-.049.195h0.049v0.049c0.043-.036.055-0.061,0.1-0.1a0.235,0.235,0,0,0,.049.146v-0.1a0.248,0.248,0,0,0,.049-0.146H28.739V21.619H28.592Zm-1.224.341V21.814a0.99,0.99,0,0,0-.343.049v0.1h0.343Zm0.245-.146v0.049H27.564c-0.094.038,0.1,0.049,0.1,0.049A0.167,0.167,0,0,0,27.613,21.814Zm0.147,0v0.1h0.1V21.863h0.049V21.814H27.76ZM0.588,24.006a0.313,0.313,0,0,0-.1.244,0.694,0.694,0,0,0,.2.049,0.733,0.733,0,0,0,.1-0.195A0.737,0.737,0,0,0,.588,24.006Zm0.1,0.585c0.011,0.073-.018.173,0.1,0.1H0.832V24.639H0.783A0.177,0.177,0,0,0,.685,24.59Zm28.641,0.341v0.1h0.049V24.98h0.049A0.178,0.178,0,0,0,29.327,24.931Zm-0.93.049a0.237,0.237,0,0,0-.147.049c-0.064.064-.16,0.146-0.1,0.195a0.35,0.35,0,0,0,.2.1v-0.1A0.42,0.42,0,0,0,28.4,24.98Zm0.392,0.1h-0.2v0.049H28.544l-0.049.243a0.326,0.326,0,0,0,.245,0A0.525,0.525,0,0,0,28.788,25.077Zm0.294,0a0.377,0.377,0,0,0-.147.146h0.049v0.049a0.365,0.365,0,0,0,.2-0.195h-0.1Zm-2.4.633a5,5,0,0,1-.1.877h0.1a10.53,10.53,0,0,1,1.762-1.023V25.516a6.574,6.574,0,0,0-.783-0.146A0.892,0.892,0,0,1,26.683,25.711Zm-14.982,0a2.036,2.036,0,0,1-.588,1.559h1.469V27.221A1.556,1.556,0,0,1,12,25.711H11.7Zm7.148,0a2.061,2.061,0,0,1-.587,1.559h2.154V27.221a1.42,1.42,0,0,1-.588-1.51H18.849ZM4.8,25.954c-0.271.232-.9-0.006-1.224,0.195a10.219,10.219,0,0,1,1.42.584v-0.1C4.869,26.468,4.919,26.14,4.8,25.954ZM8.029,26.49a1.172,1.172,0,0,1-.539.731v0.049H9.058V27.221a1.523,1.523,0,0,1-.539-0.731H8.029Zm7.148,0a3.208,3.208,0,0,1-.539.779h1.567V27.221a1.26,1.26,0,0,1-.539-0.731h-0.49Zm7.785,0a1.65,1.65,0,0,1-.49.779H23.99V27.221a1.26,1.26,0,0,1-.49-0.731H22.962Z" transform="translate(0 0.516)"/>
</svg>
