<?xml version="1.0" encoding="utf-8"?>
<!-- Generator: Adobe Illustrator 16.0.0, SVG Export Plug-In . SVG Version: 6.00 Build 0)  -->
<!DOCTYPE svg PUBLIC "-//W3C//DTD SVG 1.1//EN" "http://www.w3.org/Graphics/SVG/1.1/DTD/svg11.dtd">
<svg version="1.1" id="Layer_1" xmlns="http://www.w3.org/2000/svg" xmlns:xlink="http://www.w3.org/1999/xlink" x="0px" y="0px"
	 width="40px" height="40px" viewBox="0 0 40 40" enable-background="new 0 0 40 40" xml:space="preserve">
<path id="Color_Fill_1" fill="#FFFFFF" d="M21.6,3c0.07,0.14,0.07,0.304,0,0.444V3z M21.4,3.148c0.094,0.306,0.094,0.632,0,0.938
	V3.148z M21.646,3.448c0.086,0.572,0.086,1.155,0,1.728V3.444V3.448z M21.445,4.09c0.104,0.355,0.104,0.731,0,1.086v-1.09V4.09z
	 M25.382,4.19c0.032,0.043,0.049,0.095,0.05,0.148h-0.043V4.185L25.382,4.19z M25.432,4.338c0.031,0.043,0.048,0.095,0.049,0.148
	h-0.043V4.333L25.432,4.338z M25.48,4.538c0.031,0.043,0.048,0.095,0.049,0.148h-0.043V4.531L25.48,4.538z M25.529,4.686
	c0.031,0.043,0.049,0.095,0.049,0.148h-0.043V4.679L25.529,4.686z M25.578,4.834c0.053,0.056,0.053,0.144,0,0.2V4.834z
	 M25.627,5.034c0.031,0.043,0.049,0.095,0.049,0.148h-0.042V5.025L25.627,5.034z M21.494,5.182c0.1,0.338,0.1,0.698,0,1.037V5.173
	V5.182z M25.676,5.182c0.031,0.043,0.049,0.095,0.049,0.148h-0.041V5.173L25.676,5.182z M21.691,5.231
	c0.086,0.573,0.086,1.155,0,1.728V5.222V5.231z M25.727,5.331c0.053,0.056,0.053,0.144,0,0.2V5.331z M25.775,5.531
	c0.031,0.043,0.049,0.095,0.049,0.147h-0.043v-0.16L25.775,5.531z M25.824,5.679c0.053,0.056,0.053,0.145,0,0.2V5.679z
	 M25.873,5.879c0.031,0.043,0.049,0.095,0.049,0.148H25.88V5.864L25.873,5.879z M25.922,6.027c0.031,0.043,0.049,0.095,0.049,0.148
	H25.93V6.012L25.922,6.027z M25.971,6.175c0.054,0.056,0.054,0.144,0,0.2V6.175z M21.543,6.224c0.102,0.354,0.102,0.731,0,1.086
	v-1.1V6.224z M26.02,6.372c0.031,0.043,0.049,0.095,0.049,0.148h-0.041V6.358L26.02,6.372z M26.068,6.52
	c0.054,0.056,0.054,0.144,0,0.2V6.52z M26.118,6.72c0.031,0.043,0.048,0.095,0.049,0.148h-0.041V6.7L26.118,6.72z M26.167,6.868
	c0.031,0.043,0.049,0.095,0.049,0.148h-0.041V6.852L26.167,6.868z M21.739,6.968c0.087,0.573,0.087,1.155,0,1.729V6.951V6.968z
	 M26.225,7c0.053,0.056,0.053,0.144,0,0.2V7z M26.273,7.2c0.031,0.043,0.049,0.095,0.049,0.148h-0.049V7.2z M21.6,7.3
	c0.1,0.339,0.1,0.699,0,1.037V7.3z M26.322,7.349c0.031,0.043,0.049,0.095,0.049,0.148h-0.049V7.346V7.349z M26.371,7.549
	c0.031,0.043,0.049,0.095,0.049,0.148h-0.048V7.543L26.371,7.549z M26.42,7.697c0.031,0.043,0.049,0.095,0.049,0.147h-0.048V7.691
	L26.42,7.697z M26.47,7.84c0.054,0.056,0.054,0.144,0,0.2V7.84z M26.52,8.04c0.031,0.043,0.048,0.095,0.049,0.148H26.52V8.037V8.04z
	 M26.568,8.188c0.031,0.043,0.049,0.095,0.049,0.148h-0.049V8.185V8.188z M21.648,8.336c0.102,0.355,0.102,0.732,0,1.087v-1.09
	V8.336z M26.617,8.336c0.053,0.056,0.053,0.144,0,0.2V8.336z M26.666,8.536c0.031,0.043,0.049,0.095,0.049,0.148h-0.048V8.531
	L26.666,8.536z M26.715,8.684c0.054,0.056,0.054,0.144,0,0.2V8.684z M21.795,8.733c0.086,0.54,0.086,1.09,0,1.63V8.733z
	 M26.764,8.881c0.031,0.043,0.049,0.095,0.049,0.148h-0.047V8.877L26.764,8.881z M26.813,9.029c0.032,0.042,0.049,0.095,0.049,0.147
	h-0.047V9.025L26.813,9.029z M26.861,9.177c0.055,0.056,0.055,0.145,0,0.2V9.177z M26.911,9.377
	c0.031,0.043,0.049,0.095,0.049,0.148h-0.047V9.37L26.911,9.377z M21.7,9.42c0.1,0.338,0.1,0.699,0,1.037V9.42z M26.965,9.52
	c0.054,0.056,0.054,0.144,0,0.2V9.52z M27.014,9.72c0.031,0.043,0.049,0.095,0.049,0.148h-0.052V9.716L27.014,9.72z M27.063,9.868
	c0.032,0.043,0.049,0.095,0.049,0.148h-0.051V9.864L27.063,9.868z M29.621,10.268c0.117-0.016,0.236,0.001,0.344,0.049h-0.248
	l-0.1,0.444h1.476v0.2c-0.494-0.047-0.993-0.014-1.476,0.1c0.278,0.015,0.558,0.015,0.836,0v0.2c-0.352,0-0.512,0.014-0.787,0
	l-0.049,0.3h0.344v0.543h-0.539c0,0.346,0.021,0.6,0,0.839c0.227,0.049,0.462,0.049,0.689,0v0.049h-0.049
	c-0.12,0.062-0.209,0.17-0.246,0.3c0.081,0.025,0.151,0.078,0.199,0.148c0.137,0.072,0.328-0.017,0.443,0.049
	c0.151,0.222,0.379,0.379,0.641,0.444c0.438,0.273,1.334-0.124,1.869,0.049c0.036,0.011,0.124,0.139,0.148,0.148l2.115,0.049
	c1.664,0,3.291-0.045,4.772-0.049v0.247c-2.083,0-4.378-0.1-6.642,0c-0.163,0.026-0.316,0.095-0.443,0.2
	c-0.671,0.066-1.346,0.066-2.018,0V14.8c-0.072,0.083-0.091,0.199-0.049,0.3H33.6c0.137,0.252,0.301,0.069,0.492,0v0.049
	c-0.133,0.127-0.189,0.315-0.148,0.494H34.1c0.156-0.078,0.116,0.036,0.344-0.049v0.246c-0.168,0.149,0.684,1.305,0.787,1.68h0.05
	l-0.05-0.201h0.05v0.052c0.075,0.104,0.157,0.205,0.245,0.3c-0.057,0.051-0.094,0.123-0.1,0.2c0.038,0.005,0.073,0.021,0.1,0.049
	h0.101c0.05-0.182,0.032-0.174,0.246-0.2c0.116,0.082,0.252,0.133,0.394,0.148v-0.4c-0.076-0.127-0.02-0.467-0.1-0.593
	c0.024,0.29-0.106,0.572-0.344,0.741c-0.043,0.031-0.095,0.049-0.148,0.049v-1.727h0.301c0.033,0.223,0.102,0.439,0.199,0.643
	c0.145,0.154,0.128-0.073,0.2,0.2c-0.072,0.342-0.072,0.694,0,1.036c0.431,0.247,0.896,0.43,1.378,0.543
	c0.195-0.031,0.395-0.031,0.59,0c-0.027,0.08-0.08,0.15-0.148,0.201c-0.145-0.1-0.316-0.15-0.491-0.148v0.1l0.886,0.247v0.101
	c-0.168,0.207-0.302,0.439-0.395,0.69c-0.383,0.509-0.713,1.054-0.983,1.63l0.049,0.741h-0.407v0.049
	c0.047,0.108,0.063,0.229,0.049,0.347h0.05v0.049h0.2c0.025,0.172,0.015,0.063,0.1,0.147c-0.071,0.14-0.071,0.305,0,0.444
	c-0.071,0.083-0.107,0.191-0.1,0.3c-0.139,0.029-0.271,0.079-0.395,0.148h-0.889V23.3c0.178-0.2,0.313-0.436,0.394-0.69h-0.345
	l0.1,0.443h-0.05V23.1c-0.515,0.035-0.885,0.006-1.476,0c0.15,1.894-0.49,2.865-1.723,3.5c-0.616,0.334-1.33,0.439-2.017,0.301
	c-0.345-0.087-0.675-0.221-0.983-0.396c-0.646-0.421-1.133-1.047-1.379-1.778c-0.016-0.365-0.066-0.729-0.147-1.086
	c-0.538,0.564-1.114,1.093-1.722,1.58h-1.771v-0.443c-0.327-0.1-0.59-0.399-0.887-0.493c-0.508-0.053-1.021-0.036-1.524,0.049
	c-0.26-0.009-0.7-0.049-1.032-0.049c-0.313,0.047-0.631,0.03-0.936-0.05h0.1c-0.114-0.159-0.183-0.347-0.2-0.543h-0.1
	c-0.151,0.194-0.406,0.273-0.64,0.201c-0.05,1.307-0.884,2.455-2.112,2.907c-1.665,0.557-3.465-0.342-4.021-2.007
	c-0.124-0.371-0.179-0.762-0.161-1.152h-0.787c0.077,1.463-0.858,2.79-2.263,3.209c-1.53,0.438-3.144-0.351-3.739-1.826
	c-0.282-0.584-0.353-1.248-0.2-1.877h-0.44l-1.181,0.1H4.576c-0.007,0-0.221-0.128-0.246-0.148H4.28v-0.146
	C3.886,22.967,3.491,22.95,3.1,22.9v-0.147h0.393V22.6H2.9c-0.056-0.275-0.309-0.467-0.59-0.443
	c0.061-0.175-0.032-0.366-0.207-0.427c-0.044-0.016-0.091-0.021-0.138-0.018v-0.144c-0.194-0.088-0.089-0.135-0.2-0.301l-0.59-0.543
	c-0.123-0.229-0.271-0.445-0.443-0.642v-0.046H0.689c0.056,0.187,0.019,0.389-0.1,0.543v-0.592c0.023-0.081,0.041-0.164,0.051-0.247
	c-0.666-0.007-0.522-0.732-0.492-1.384c-0.243-0.391,0.132-1.752,0-2.123C0.095,16.172,0.045,16.105,0,16.037l0.1-0.1l0.049-0.05
	v-0.444H0.2v0.049c0.181-0.038,0.369-0.021,0.541,0.049c-0.02-0.112-0.045-0.053,0-0.148c0.093-0.018,0.093,0.023,0.1-0.2
	c0.07,0.006,0.141-0.011,0.2-0.049c-0.124-0.072-0.09-0.062-0.1-0.247c0.105-0.06,0.223-0.095,0.344-0.1
	c0.288-0.091,0.598-0.091,0.886,0v-0.144c-0.193-0.05-0.377-0.133-0.541-0.247c0,0-0.022,0.2-0.049,0.1v-0.05
	c-0.052-0.142-0.069-0.295-0.049-0.445h0.141c-0.016,0.14-0.052,0.101,0,0.2c0.159,0.184,0.399,0.276,0.64,0.247l0.049-0.1
	c-0.156-0.068-0.254-0.225-0.246-0.395h0.1c0.323-0.07,0.656-0.087,0.984-0.05c0.54-0.118,1.102-0.083,1.624,0.1
	c0.136,0.146,0.284,0.279,0.443,0.4c0.111-0.023,0.225,0.015,0.3,0.1c0.032,0.042,0.049,0.095,0.049,0.148
	c-0.032,0.043-0.049,0.095-0.049,0.148c0.079-0.032,0.167-0.032,0.246,0c0.125,0.072,0.055-0.011,0.1,0.148H5.658V15.1
	c0.188,0.074,0.388,0.108,0.59,0.1c-0.012-0.252-0.1-0.227,0-0.3l0.2-0.346c-0.134,0.019-0.27,0.002-0.394-0.049
	C5.96,13.917,5.942,13.32,6,12.728c0.336-0.112,0.729-0.012,1.132-0.1c0.49-0.06,0.985-0.076,1.478-0.048
	c1.25,0,2.457,0.093,3.592,0.1c0.044,0.674,0.044,1.351,0,2.025h0.492v0.1c0.051,0.126,0.068,0.265,0.049,0.4h0.3
	c0.095-0.152,0.163-0.319,0.2-0.494c0.085,0.01,0.171-0.007,0.246-0.049h-0.156v-1.538h5.461V14.6c0.6,0,1.149,0.072,1.624,0.1
	c0.384,0.641,0.882,0.518,1.87,0.494v-0.046c-0.037-0.06-0.054-0.13-0.049-0.2c-0.208,0.028-0.42-0.025-0.591-0.148
	c-0.025-0.027-0.043-0.062-0.049-0.1c0.041-0.079,0.075-0.162,0.101-0.247c0.112,0.02,0.053,0.045,0.147,0
	c-0.487-0.082-0.983-0.099-1.476-0.049v-0.046c0.023-0.395,0.023-0.791,0-1.185h0.1c0.439-0.07,0.883-0.104,1.328-0.1
	c-0.059-0.593-0.042-1.19,0.05-1.778c-0.035-0.264-0.02-0.532,0.049-0.79c-0.023,0.944-0.116,2.4,0.344,2.765v0.049h0.049
	l0.049-0.346h2.018c0.017-0.113,0.068-0.218,0.147-0.3h-0.052V12.63c-0.064,0.026-0.131,0.043-0.2,0.049v-0.3h0.101
	c0.043,0.032,0.094,0.049,0.147,0.049v-0.045c-0.176-0.114-0.366-0.266-0.541-0.395c0.035-0.194,0.052-0.391,0.05-0.588h-0.3v-0.351
	c0.163,0.017,0.329,0.017,0.492,0v0.444c-0.101,0.058-0.06,0.162-0.05,0.4h0.101c0.253,0.098,0.518,0.165,0.787,0.2
	c0.47-0.72,1.761-0.565,2.706-0.494v-0.253h-1.079c0.005-0.068,0.022-0.136,0.049-0.2h-0.1c-0.069-0.006-0.137-0.022-0.2-0.049
	h-0.044V10.9h-0.2v0.049h-0.046c0.008,0.14-0.026,0.28-0.101,0.4c-0.043,0.032-0.094,0.049-0.147,0.049V11.3
	c-0.012-0.187,0.022-0.373,0.101-0.543h0.394c0.036-0.272,0.092-0.357,0.442-0.346c0.282,0.07,0.58,0.035,0.836-0.1l0.05-0.3
	c0.366-0.108,0.751-0.142,1.132-0.1c0.197,0.221,0.508,0.3,0.787,0.2v0.148L29.621,10.268z M27.111,10.021
	c0.055,0.056,0.055,0.144,0,0.2V10.021z M27.898,10.021c-0.073,0.086-0.124,0.189-0.147,0.3h0.492v-0.101
	c-0.063-0.027-0.037,0-0.05-0.049c0.217-0.008,0.432-0.042,0.641-0.1c-0.309-0.047-0.621-0.067-0.934-0.061L27.898,10.021z
	 M27.161,10.221c0.031,0.043,0.049,0.095,0.049,0.148h-0.051V10.21L27.161,10.221z M21.749,10.567c0.095,0.306,0.095,0.632,0,0.938
	v-0.949V10.567z M29.176,11.1c0.085,0.043,0.063,0.044,0.148,0H29.176z M29.422,11.1c0.027,0.027,0.063,0.043,0.1,0.049
	C29.494,11.122,29.46,11.105,29.422,11.1z M29.668,11.1c0.085,0.043,0.063,0.044,0.148,0H29.668L29.668,11.1z M27.503,11.4
	c0.032,0.043,0.049,0.095,0.049,0.148H27.5V11.4H27.503z M28.585,11.844v0.1h0.049v-0.1H28.585L28.585,11.844z M29.273,12.044
	h-0.299v-0.2h-0.301v0.049c0.027,0.147,0.027,0.297,0,0.444c0.135,0.082,0.471,0.086,0.59,0.148v-0.448L29.273,12.044z
	 M27.848,11.995l-0.05,0.148h0.05v-0.057c0.062-0.077,0.031-0.025,0-0.098V11.995z M27.355,12.095
	c0.027,0.027,0.063,0.044,0.1,0.049c-0.025-0.03-0.061-0.05-0.1-0.058V12.095z M28.438,12.441v-0.2h-0.049
	c-0.047,0.072-0.176,0.108-0.1,0.148c0.044,0.03,0.096,0.044,0.148,0.043V12.441z M28.093,12.392
	c0.027,0.026,0.063,0.043,0.101,0.049c-0.025-0.03-0.061-0.05-0.1-0.058L28.093,12.392z M29.175,12.54
	c-0.019,0.134-0.001,0.27,0.05,0.395c0.02-0.137,0.004-0.276-0.049-0.404L29.175,12.54z M28.24,12.64l-0.049,0.148h0.1
	c0.003-0.057-0.016-0.113-0.05-0.158L28.24,12.64z M28.289,12.84v0.1c0.08-0.073,0.063-0.035,0.001-0.113L28.289,12.84z
	 M13.627,13.383v0.988h2.313V13.37h-2.311L13.627,13.383z M16.186,13.383v0.988h2.362V13.37h-2.361L16.186,13.383z M21.992,13.778
	v0.2h0.148v-0.2H21.992L21.992,13.778z M2.8,14.309c-0.053-0.001-0.105,0.017-0.148,0.049c0.046,0.038,0.096,0.072,0.148,0.1V14.309
	z M12.1,14.709v-0.153l-1.673,0.049v0.1h0.492c0.389,0.089,0.793,0.087,1.181-0.005V14.709z M7.229,14.609v0.1
	c0.439,0.105,0.898,0.088,1.328-0.049c-0.385-0.032-0.867-0.055-1.325-0.06L7.229,14.609z M9.4,14.654V15.1h0.44
	c0-0.135,0.017-0.269,0.049-0.4c0.166,0.023,0.334,0.007,0.492-0.049c-0.16-0.042-0.326-0.059-0.492-0.051
	C9.732,14.657,9.565,14.675,9.4,14.654z M8.613,14.654c0.073,0.056,0.174,0.056,0.246,0H8.61H8.613z M16.485,14.654
	c0.239,0.085,0.5,0.085,0.738,0h-0.741H16.485z M9.25,14.7c-0.16,0.041-0.075-0.024-0.148,0.1c0.024,0.095,0.076,0.181,0.148,0.247
	V14.7z M10.972,14.9v0.2h0.3V15c-0.034-0.038-0.064-0.11-0.1-0.148C11.112,14.889,11.042,14.906,10.972,14.9z M11.366,14.9v0.2h0.2
	c0.016-0.082,0.016-0.166,0-0.247C11.502,14.879,11.434,14.895,11.366,14.9L11.366,14.9z M7.43,14.9v0.3h0.59v-0.3H7.43L7.43,14.9z
	 M1.23,15.147c0.206,0.08,0.434,0.08,0.64,0H1.23z M34.49,15.494c0.017,0.015,0.1,0.025,0.049,0.1
	C34.484,15.568,34.386,15.5,34.49,15.494z M36.064,17.864v0.2h0.101v-0.101h0.049v-0.05L36.064,17.864z M37.2,18.21l-0.689-0.2
	v0.148l0.689,0.199V18.21z M37.3,18.311v0.1H37.4v-0.1H37.3z M36.7,22.063c-0.026,0.063-0.043,0.131-0.05,0.199
	c0.121,0.061,0.076,0.088,0.201,0.148v-0.301L36.7,22.063z M19.775,22.21l0.053,0.39h-0.541V22.7c0.114,0.133,0.094,0.392,0.2,0.543
	c0.193-0.114,0.417-0.166,0.64-0.148l-0.148-0.889h-0.2L19.775,22.21z M12.5,22.6h-0.3v0.049c0.033,0.235,0.157,0.448,0.344,0.594
	c0.042-0.032,0.155-0.066,0.2-0.1c-0.121-0.033-0.236-0.08-0.344-0.143C12.449,22.871,12.482,22.736,12.5,22.6z M13.09,22.848
	c0.116-0.004,0.232-0.02,0.344-0.05c0.005-0.069,0.022-0.136,0.049-0.2h-0.346v0.101c-0.033,0.044-0.051,0.099-0.05,0.153
	L13.09,22.848z M26.962,22.8h0.394v-0.1c-0.1-0.069-0.221-0.104-0.344-0.101v0.049h-0.05V22.8z M27.454,22.6v0.2h0.983v-0.047h0.049
	V22.6H27.454z M34.342,22.6V22.7c0.34,0.076,0.686,0.126,1.033,0.147V22.8c-0.034-0.038-0.064-0.11-0.1-0.147V22.6H34.342z
	 M5.117,22.848c0.085,0.043,0.063,0.043,0.148,0H5.117z M36.802,23.047c-0.029,0.057-0.085,0.094-0.147,0.1
	c0.027,0.027,0.063,0.045,0.1,0.05v0.049C36.8,23.3,36.8,23.2,36.8,23.2c0.056-0.03,0.093-0.085,0.101-0.148H36.8L36.802,23.047z
	 M19.926,23.4v0.3h0.1v-0.3H19.926z M20.615,24.189c0.055,0.055,0.145,0.055,0.199,0H20.615z M26.47,24.832
	c0.001,0.102,0.017,0.203,0.05,0.3c0.063-0.1,0.146-0.185,0.246-0.247v-0.058h-0.301L26.47,24.832z M25.092,25.032v0.1h0.346v-0.1
	H25.092z M25.781,25.032v0.1h0.344v-0.1H25.781z"/>
</svg>
