<svg xmlns="http://www.w3.org/2000/svg" width="40" height="40" viewBox="0 0 40 40">
  <defs>
    <style>
      .cls-1 {
        fill: #fff;
        fill-rule: evenodd;
      }
    </style>
  </defs>
  <path id="uk_ram_90mm_aa_ico" class="cls-1" d="M13.013,11.289c0.171-.017.1-0.073,0.179-0.111L13.415,11.2a0.143,0.143,0,0,1,.156-0.066,0.311,0.311,0,0,1,.022.089,0.086,0.086,0,0,0-.045.067h0.134a4.741,4.741,0,0,1,1.295.222V11.444h0.179V11.51c0.072,0.018.034-.011,0.067,0.044a0.113,0.113,0,0,0-.022.067,0.6,0.6,0,0,1,.223.133v0.022h0.022V11.755a0.162,0.162,0,0,0,.022-0.044h0.424l0.022-.133A0.338,0.338,0,0,1,16,11.533a1.1,1.1,0,0,1,.513-0.044c0.406,0,1.022-.132,1.027.289a8.613,8.613,0,0,0,1.5-.022,0.463,0.463,0,0,1,.022-0.222,1.532,1.532,0,0,0,1.049-.022V11.377c0.25,0,.505,0,0.8,0V11.51h0.022a0.991,0.991,0,0,1,.915-0.289,1.137,1.137,0,0,1,.357.333l0.022,0.222,0.6-.022V12h0.022a0.378,0.378,0,0,1,.179-0.2c0.077,0.331.368,0.258,0.759,0.244v0.133h-0.58v0.044a2.884,2.884,0,0,1,.313.6,0.56,0.56,0,0,0,.089.222h2.678a8.129,8.129,0,0,0,1.094.044c0.335,0.071.731-.033,1.094,0.044a9.044,9.044,0,0,0,1.808.044v0.111L35,13.353l1.763,0.022a6.118,6.118,0,0,1,1.116.022h0.536c0.556,0,1.07-.043,1.585-0.044v0.821c-3.191-.082-6.485.063-9.71,0.067v0.111c-1.973-.005-3.9.106-5.982,0.111a1.3,1.3,0,0,0,.179.377c0.136,0.308.27,0.585,0.4,0.888,0.066-.009.028-0.036,0.067,0.022a0.292,0.292,0,0,1,.045.178L25.067,16.1c0.065-.009.028-0.036,0.067,0.022a3.062,3.062,0,0,1,.134.422,7.022,7.022,0,0,1,.558,1.154H24.732v1.376a0.816,0.816,0,0,1,.045.266,1.975,1.975,0,0,0,.6.111,0.191,0.191,0,0,1,.067-0.089,4.885,4.885,0,0,0,.938.222c0.018-.072-0.011-0.034.045-0.067a1.084,1.084,0,0,0,.223.067c0,0.083-.027.054,0.067,0.067a1.952,1.952,0,0,0,.513.111,2.245,2.245,0,0,0,1.183.155,0.279,0.279,0,0,0,.022.089,0.729,0.729,0,0,1,.29.044v0.067c0.276,0.014.528,0.145,0.781,0.178a0.457,0.457,0,0,1,.357.022,0.079,0.079,0,0,0-.022.044c0.328,0.036.616,0.178,0.96,0.2l-0.022.133a3.449,3.449,0,0,1,.692.133,0.645,0.645,0,0,0,.4.222,10.958,10.958,0,0,0,.067-1.909h0.045v1.842a0.092,0.092,0,0,1,.067.111l-0.089.178a0.259,0.259,0,0,1,.179.311,2.051,2.051,0,0,0-.089.533,4.284,4.284,0,0,0-.156.91,2.886,2.886,0,0,1,.134.377,0.142,0.142,0,0,1-.045.089,0.234,0.234,0,0,0,.067.177,2.982,2.982,0,0,1-.134.932,2.654,2.654,0,0,1-.424.621H31.384a0.417,0.417,0,0,0-.067.178c-0.026.036-.46,0.367-0.513,0.4s-0.106-.006-0.156.022a0.3,0.3,0,0,0-.045.133,0.683,0.683,0,0,1-.134.067c-0.114.082-.22,0.21-0.335,0.289-0.074.051-.144,0-0.2,0.044l-0.067.155a4.564,4.564,0,0,1-.536.4H29.219c-0.048.029-.064,0.141-0.112,0.178a4.689,4.689,0,0,1-.446.333H28.549c-0.047.026-.045,0.123-0.089,0.155a3.555,3.555,0,0,1-.536.244l-0.2.044a0.15,0.15,0,0,0-.067-0.067,0.563,0.563,0,0,0-.089.089,1.366,1.366,0,0,1-.714,0,0.334,0.334,0,0,0-.2.044l-0.67.022-0.045-.067a0.248,0.248,0,0,0-.179.067H25.134a0.293,0.293,0,0,0-.045-0.067c-0.1-.032-0.108.053-0.134,0.067H24.219c-0.037-.014-0.028-0.09-0.112-0.067l-0.045.067H23.348a0.353,0.353,0,0,0-.067-0.067c-0.055-.012-0.128.064-0.223,0.067h-0.6a0.172,0.172,0,0,0-.156-0.044,1.886,1.886,0,0,1-.692.044c-0.168-.077-0.606.1-0.893,0-0.16-.055-0.614.081-0.848,0a3.906,3.906,0,0,0-.759,0,0.8,0.8,0,0,0-.268-0.044,1.89,1.89,0,0,1-.692.044,0.356,0.356,0,0,0-.067-0.067,0.137,0.137,0,0,0-.089.067,2.128,2.128,0,0,1-.737-0.044,0.133,0.133,0,0,0-.134.044h-0.67l-0.022-.044a5.139,5.139,0,0,1-.871.044c-0.154-.067-0.56.09-0.8,0a0.812,0.812,0,0,0-.067-0.067,0.226,0.226,0,0,0-.112.067,1.838,1.838,0,0,1-.8-0.067H13.75v0.022a2,2,0,0,1-.737.044,0.74,0.74,0,0,0-.067-0.067c-0.085-.02-0.073.051-0.112,0.067H12.121a0.148,0.148,0,0,0-.112-0.067l-0.045.067h-0.67c-0.034-.017-0.024-0.086-0.112-0.067a0.679,0.679,0,0,0-.067.067h-0.67L10.4,27.889c-0.1-.035-0.08.048-0.112,0.067H9.621L9.6,27.889a2.96,2.96,0,0,1-.826.067L8.75,27.889c-0.02-.011-0.248.044-0.335,0.044a1.74,1.74,0,0,1-.469-0.044c-0.045-.015-0.306.044-0.424,0.044S7,27.886,6.987,27.889a1.1,1.1,0,0,1-.491.044,1.012,1.012,0,0,1-.2-0.044A0.546,0.546,0,0,0,6.25,27.8a0.187,0.187,0,0,0-.156.044A2.525,2.525,0,0,1,5.6,27.712c-0.094-.04-0.186-0.178-0.246-0.2l-0.134.022-0.6-.288a0.321,0.321,0,0,0-.045-0.111,0.347,0.347,0,0,0-.156.022,7.129,7.129,0,0,1-.647-0.311l-0.067-.111-0.134.022a2.211,2.211,0,0,1-.246-0.111c-0.1-.044-0.214-0.128-0.312-0.178H2.946a0.448,0.448,0,0,0-.089-0.133l-0.134.022A6.023,6.023,0,0,1,2.1,26.069l-0.089-.133c-0.065-.029-0.121.032-0.2,0a1.209,1.209,0,0,1-.536-0.444,1.221,1.221,0,0,0-.156-0.067,1.977,1.977,0,0,1-.424-0.688A0.129,0.129,0,0,0,.737,24.6,0.443,0.443,0,0,0,.647,24.56,2.646,2.646,0,0,1,.58,23.85,0.742,0.742,0,0,0,.67,23.761a1.186,1.186,0,0,0-.045-0.133L0.692,23.3a2.13,2.13,0,0,1,.8-0.932V22.341H0.982v-0.4c-0.051.009-.024,0.02-0.067,0a3.612,3.612,0,0,1-.268-0.777c-0.158-.389-0.259-0.812-0.424-1.221A4.449,4.449,0,0,1,0,19.367l0.223-.71A0.39,0.39,0,0,0,.29,18.435c-0.078-.059-0.12-0.022-0.134-0.155a2.943,2.943,0,0,0,.558-1.287A0.131,0.131,0,0,1,.6,16.9a2.055,2.055,0,0,0,.112-0.244,0.207,0.207,0,0,1-.089-0.2,0.211,0.211,0,0,0,.067-0.089,0.518,0.518,0,0,1,.2,0,0.583,0.583,0,0,1,.022-0.2A0.152,0.152,0,0,1,1,16.149a0.313,0.313,0,0,1,.022.089A0.08,0.08,0,0,0,1,16.282H1.071a0.151,0.151,0,0,1,.089-0.022c0-.344.042-0.6,0.045-0.91H1.317c0,0.251.043,0.415,0.045,0.688H1.384V16.016a0.4,0.4,0,0,1,.223-0.222,0.7,0.7,0,0,0,.335.422,0.107,0.107,0,0,0,.022.067,3.033,3.033,0,0,0,.781.022,0.531,0.531,0,0,1,.134.111,1.321,1.321,0,0,1,.045.6H7.679v0.577a0.591,0.591,0,0,1,.29-0.044v0.044H8.1a5.514,5.514,0,0,1,.692-0.821V16.748H8.616a3.4,3.4,0,0,1,0-1.221,1.374,1.374,0,0,1,.022-0.422H8.884a2.727,2.727,0,0,1,.4-0.044,3.364,3.364,0,0,1,.893-0.111V14.44h0.268v0.133h0.022V14.551c0.043-.055.048-0.141,0.089-0.2a2.859,2.859,0,0,0,.223-0.222,0.421,0.421,0,0,0,.156,0,0.664,0.664,0,0,0,.045-0.4h0.045a1.313,1.313,0,0,0,.022.377h0.022V14.085a2.19,2.19,0,0,0,.022-0.6c0.009-.033.058-0.118,0.067-0.155V13.042a1.392,1.392,0,0,1,.089-0.289,1.752,1.752,0,0,0,.134-0.133q0.011-.455.022-0.91c0.2,0,.254.059,0.446,0.067a0.308,0.308,0,0,0-.045-0.133,0.673,0.673,0,0,0,.156-0.288,0.842,0.842,0,0,1,.737-0.311A0.325,0.325,0,0,1,13.013,11.289Z" transform="translate(0 0.484)"/>
</svg>
