<svg xmlns="http://www.w3.org/2000/svg" width="40" height="40" viewBox="0 0 40 40">
  <defs>
    <style>
      .cls-1 {
        fill: #fff;
        fill-rule: evenodd;
      }
    </style>
  </defs>
  <path id="Color_Fill_1" data-name="Color Fill 1" class="cls-1" d="M11.555,10a0.18,0.18,0,0,1,.049.1H11.555V10Zm0,0.248a0.266,0.266,0,0,1,0,.3v-0.3ZM12.876,16.6h0.538v0.844H12.974v0.1h0.1a3.055,3.055,0,0,0,1.126.05H16.01a4.586,4.586,0,0,0,.734.149c0.083-.128.146-0.357,0.245-0.5a1.121,1.121,0,0,0,.343.1v0.248a0.256,0.256,0,0,0-.049.149,0.571,0.571,0,0,0,.294.149,0.241,0.241,0,0,1,.049-0.149,3.749,3.749,0,0,0,1.028.2c0.962,0.251,2.032.3,3.035,0.6,0.478,0.139.835,0.551,1.273,0.695h1.713c1.046,0.232,2.541.037,3.574,0.2a0.62,0.62,0,0,0,.441-0.248h1.42a3.521,3.521,0,0,1,.294.3l3.574-.05h4.308A7.692,7.692,0,0,0,40,19.578v0.645a7.54,7.54,0,0,0-1.714.149H32.705l-2.3-.05a1.911,1.911,0,0,1-.538.1,9.863,9.863,0,0,0-1.812.05l-5.092.1c-0.383.125-.737,0.518-1.126,0.645a3.811,3.811,0,0,0-.587.05,1.146,1.146,0,0,1,.392.05c0.014,0.129,0,.1.245,0.1v0.149a5.647,5.647,0,0,1,1.714.1h0.049a1.008,1.008,0,0,1,.685,0l0.147,0.2c0.339,0.158,1.059-.03,1.42.1a1.012,1.012,0,0,0,.049.347,2.058,2.058,0,0,1,.832.2c0.191,0.038.556-.052,0.783,0a0.788,0.788,0,0,1,.147.149,0.781,0.781,0,0,0,.441-0.248,0.433,0.433,0,0,1,.294.1c0.107,0.028.375-.05,0.637-0.05v0.4h0.049V22.9a0.871,0.871,0,0,1,.636.3V22.208H29.719a1.645,1.645,0,0,1-.147.5H29.523v-1.39h0.1a0.524,0.524,0,0,0,.294.546c-0.016.4-.048,0.872-0.049,1.34a0.683,0.683,0,0,0,.2.05,0.754,0.754,0,0,1,.685.149V23.1h0.392v0.4c0.324,0.091.719,0.216,1.077,0.3v0.05a0.891,0.891,0,0,0-.2.6,0.783,0.783,0,0,1,.588.447,0.319,0.319,0,0,1-.294.2,1,1,0,0,0-.49-0.2,0.729,0.729,0,0,0-.2.645c0.388,0.207.094,0.142,0.2,0.4h0.1c0.016,0.029.1,0.2,0.1,0.2,0.032,0.137-.077.049-0.1,0.1a0.455,0.455,0,0,0,.1.4c-0.43.05-.669-0.007-0.636,0.645H31.236v-0.5H30.991a2.6,2.6,0,0,1-.49.943,0.17,0.17,0,0,0-.049-0.1,2.788,2.788,0,0,1-4.847,1.29,2.2,2.2,0,0,1-.636-1.29H23.648v0.05H23.6a2.787,2.787,0,0,1-5.483-.05H14.59A2.859,2.859,0,0,1,10.331,29.5,3.136,3.136,0,0,1,9.2,28.164a2.829,2.829,0,0,0-.147-0.5,4.413,4.413,0,0,0-1.616-.05,2.87,2.87,0,0,1-3.77,2.134A2.954,2.954,0,0,1,1.86,26.625a1.409,1.409,0,0,1-.392-0.1,1.98,1.98,0,0,1-.049.6h-0.1V26.476a0.686,0.686,0,0,1-.2.05,0.393,0.393,0,0,0-.1-0.149c0.172-.171.033-0.791,0.245-1.141v0.248H1.518v-0.1a0.6,0.6,0,0,1-.147-0.3H0.979v-0.3a1.037,1.037,0,0,0-.343-0.05,14.011,14.011,0,0,0,0-1.638A1.021,1.021,0,0,0,0,23.1l0.049-1.39a6.223,6.223,0,0,0,.734.05v-0.2c-0.156,0-.118.06-0.147-0.149a1.445,1.445,0,0,0,0-.3h0.1c0.13-.081.375-0.059,0.49-0.149-0.025-.12-0.079-0.061.049-0.149a0.566,0.566,0,0,0,.147.1V20.769a0.234,0.234,0,0,1-.147-0.05H4.7v0.2a0.388,0.388,0,0,1,.147.1c0.231-.256,1.184.056,1.665-0.05a5.986,5.986,0,0,1,2.889.546,1.25,1.25,0,0,0,.539-0.05,3,3,0,0,1,1.371.1V21.414H11.6V21.266a0.626,0.626,0,0,0,.343-0.05,8.924,8.924,0,0,1-2.2-.347H5.092V20.72c-0.127-.014-0.087.023-0.1-0.2a0.406,0.406,0,0,1-.245-0.05H4.994a27.645,27.645,0,0,0-.049-3.027,1.136,1.136,0,0,0,.343.05,1.136,1.136,0,0,0,.1-0.744H5.924v0.695H6.218A0.439,0.439,0,0,1,6.365,17.3V17.146H6.022a2.977,2.977,0,0,1,.2-1.092,0.332,0.332,0,0,1-.2-0.1,0.612,0.612,0,0,1,.2.05v-0.2c-0.154.029-.2,0.02-0.245-0.2,0.253-.074.308-0.194,0.294-0.546H7.1v0.149H7.442v0.4H7.1v0.3H7.442v0.4H7.1a0.171,0.171,0,0,1-.049.1,3.469,3.469,0,0,1,.1.744H6.805a0.242,0.242,0,0,0,.049.149,0.432,0.432,0,0,0,.441.149,6.117,6.117,0,0,1,1.322,0v-0.05H8.666v-0.05a0.626,0.626,0,0,1-.343-0.05H8.666V17H9.058v0.4h0.1a8.177,8.177,0,0,0,1.616.05c0.019,0.126-.028.078,0.147,0.1a0.315,0.315,0,0,0,.245,0h0.1V16.4h0.294V12.233a4.552,4.552,0,0,1,.049-1.588v4.169a4.549,4.549,0,0,0,.049,1.588,0.465,0.465,0,0,1,.441-0.6,6.863,6.863,0,0,1,.734.05A1.594,1.594,0,0,1,12.876,16.6ZM6.659,15.161a0.256,0.256,0,0,0,.294,0H6.659Zm-0.441.347a0.53,0.53,0,0,0-.1.248h0.1v-0.05A0.146,0.146,0,0,0,6.218,15.509Zm-0.245.347a0.18,0.18,0,0,1,.049.1H5.973v-0.1ZM4.5,20.869a0.242,0.242,0,0,0,.049.149V20.769H1.518v0.1h0.1A25.881,25.881,0,0,1,4.5,20.869Zm-3.574.4c0.084,0.044.063,0.044,0.147,0H0.93ZM0.2,21.911v0.4a1.44,1.44,0,0,0,.636-0.05C0.461,22.035.919,21.911,0.2,21.911Zm-0.049.546V22.9H0.832V22.457H0.147Zm29.229,0.6a0.569,0.569,0,0,0,.147.1v-0.1H29.376ZM1.077,24.64l-0.049.2H1.175v-0.1C1.132,24.7,1.12,24.677,1.077,24.64Zm0.245,0.993v0.1H1.469v-0.1H1.322Zm30.159,0.248L31.53,26.03h0.049V25.881h-0.1Zm0.294,0.1-0.049.149h0.049v-0.05C31.836,26,31.806,26.054,31.775,25.98Zm0,0.5V26.228h-0.1v0.1a0.577,0.577,0,0,0-.1.149h0.2Z" transform="translate(0 0.016)"/>
</svg>
