<?xml version="1.0" encoding="utf-8"?>
<!-- Generator: Adobe Illustrator 16.0.0, SVG Export Plug-In . SVG Version: 6.00 Build 0)  -->
<!DOCTYPE svg PUBLIC "-//W3C//DTD SVG 1.1//EN" "http://www.w3.org/Graphics/SVG/1.1/DTD/svg11.dtd">
<svg version="1.1" id="Layer_1" xmlns="http://www.w3.org/2000/svg" xmlns:xlink="http://www.w3.org/1999/xlink" x="0px" y="0px"
	 width="40px" height="40px" viewBox="0 0 40 40" enable-background="new 0 0 40 40" xml:space="preserve">
<path id="uk_ram_90mm_aa_ico" fill="#FFFFFF" d="M13.013,9.773c0.171-0.017,0.1-0.073,0.179-0.111l0.223,0.022
	c0.032-0.054,0.095-0.081,0.156-0.066c0.012,0.028,0.019,0.058,0.022,0.089c-0.025,0.014-0.042,0.039-0.045,0.067h0.134
	c0.44,0.014,0.875,0.088,1.295,0.222V9.928h0.179v0.066c0.072,0.018,0.034-0.011,0.067,0.044c-0.015,0.02-0.022,0.043-0.022,0.067
	c0.083,0.028,0.159,0.073,0.223,0.133v0.021h0.022v-0.021c0.01-0.014,0.017-0.028,0.022-0.044h0.424l0.022-0.133
	c0.026-0.019,0.055-0.034,0.086-0.045c0.165-0.055,0.341-0.07,0.513-0.044c0.406,0,1.022-0.132,1.027,0.289
	c0.5,0.037,1.001,0.029,1.5-0.021c-0.011-0.075-0.003-0.151,0.022-0.222c0.341,0.116,0.713,0.108,1.049-0.022V9.861
	c0.25,0,0.505,0,0.8,0v0.133h0.022c0.234-0.248,0.58-0.356,0.914-0.289c0.143,0.084,0.264,0.197,0.357,0.333l0.021,0.222
	l0.601-0.021v0.246h0.022c0.033-0.086,0.096-0.157,0.178-0.2c0.078,0.331,0.369,0.258,0.76,0.244v0.133h-0.58v0.044
	c0.127,0.187,0.232,0.388,0.313,0.6c0.014,0.08,0.044,0.155,0.09,0.222h2.678c0.363,0.04,0.729,0.054,1.094,0.044
	c0.335,0.071,0.73-0.033,1.094,0.044c0.6,0.075,1.205,0.09,1.809,0.044v0.111L35,11.837l1.764,0.022
	c0.371-0.027,0.744-0.019,1.115,0.022h0.536c0.556,0,1.069-0.043,1.585-0.044v0.821c-3.191-0.082-6.484,0.063-9.71,0.067v0.111
	c-1.974-0.005-3.899,0.106-5.981,0.111c0.039,0.134,0.099,0.262,0.178,0.377c0.137,0.308,0.271,0.585,0.4,0.888
	c0.066-0.009,0.028-0.036,0.067,0.022c0.034,0.053,0.05,0.116,0.045,0.178l0.067,0.172c0.065-0.009,0.028-0.036,0.067,0.022
	c0.056,0.137,0.1,0.278,0.134,0.422c0.221,0.367,0.408,0.753,0.559,1.154h-1.094v1.376c0.029,0.085,0.045,0.175,0.045,0.266
	c0.193,0.067,0.395,0.105,0.6,0.111c0.014-0.036,0.036-0.067,0.066-0.089c0.305,0.105,0.619,0.18,0.938,0.222
	c0.019-0.072-0.011-0.034,0.045-0.067c0.071,0.03,0.146,0.053,0.224,0.067c0,0.083-0.027,0.054,0.066,0.067
	c0.166,0.06,0.338,0.098,0.514,0.111c0.373,0.157,0.781,0.211,1.183,0.155c0.003,0.031,0.01,0.061,0.022,0.089
	c0.098-0.005,0.197,0.01,0.289,0.044v0.067c0.276,0.014,0.528,0.145,0.781,0.178c0.117-0.042,0.246-0.033,0.357,0.021
	c-0.012,0.012-0.02,0.027-0.022,0.044c0.328,0.036,0.616,0.179,0.96,0.2l-0.021,0.133c0.234,0.021,0.467,0.065,0.691,0.133
	c0.102,0.121,0.244,0.199,0.4,0.223c0.078-0.633,0.1-1.272,0.066-1.909h0.045v1.842c0.05,0.013,0.08,0.062,0.067,0.111l-0.089,0.178
	c0.133,0.039,0.213,0.177,0.18,0.312c-0.054,0.173-0.084,0.352-0.09,0.533c-0.084,0.297-0.137,0.602-0.156,0.909
	c0.054,0.122,0.099,0.249,0.135,0.377c-0.004,0.034-0.02,0.065-0.045,0.089c-0.004,0.066,0.021,0.131,0.066,0.178
	c0.006,0.315-0.04,0.63-0.134,0.932c-0.111,0.227-0.254,0.436-0.424,0.621h-0.109c-0.036,0.053-0.059,0.114-0.067,0.178
	c-0.025,0.036-0.459,0.367-0.512,0.4c-0.054,0.033-0.106-0.006-0.156,0.021c-0.025,0.041-0.041,0.086-0.045,0.133
	c-0.043,0.027-0.088,0.051-0.135,0.067c-0.113,0.082-0.22,0.21-0.335,0.289c-0.073,0.051-0.144,0-0.2,0.044l-0.066,0.155
	c-0.169,0.146-0.348,0.28-0.536,0.399h-0.112c-0.048,0.029-0.063,0.142-0.111,0.179c-0.143,0.12-0.291,0.23-0.446,0.333h-0.112
	c-0.047,0.025-0.045,0.123-0.089,0.154c-0.171,0.097-0.351,0.178-0.536,0.244l-0.199,0.045c-0.016-0.029-0.039-0.053-0.067-0.067
	c-0.033,0.026-0.063,0.056-0.089,0.089c-0.234,0.063-0.48,0.063-0.715,0c-0.069-0.007-0.139,0.009-0.199,0.044l-0.67,0.022
	l-0.045-0.067c-0.066-0.003-0.131,0.021-0.18,0.067h-0.626c-0.012-0.025-0.026-0.047-0.045-0.067
	c-0.1-0.032-0.108,0.053-0.134,0.067h-0.736c-0.037-0.015-0.027-0.091-0.111-0.067l-0.045,0.067h-0.715
	c-0.02-0.025-0.041-0.049-0.066-0.067c-0.055-0.013-0.129,0.063-0.223,0.067h-0.601c-0.042-0.04-0.101-0.057-0.156-0.045
	c-0.226,0.058-0.46,0.072-0.692,0.045c-0.168-0.078-0.605,0.1-0.893,0c-0.16-0.056-0.614,0.08-0.848,0
	c-0.252-0.025-0.507-0.025-0.759,0c-0.086-0.03-0.177-0.045-0.268-0.045c-0.226,0.058-0.46,0.072-0.692,0.045
	c-0.019-0.025-0.042-0.049-0.067-0.067c-0.038,0.009-0.07,0.033-0.089,0.067c-0.247,0.027-0.496,0.013-0.737-0.045
	c-0.049-0.012-0.101,0.006-0.134,0.045h-0.67l-0.022-0.045c-0.289,0.039-0.58,0.055-0.871,0.045c-0.154-0.067-0.56,0.09-0.8,0
	c-0.021-0.024-0.043-0.047-0.067-0.067c-0.043,0.011-0.082,0.034-0.112,0.067c-0.269,0.036-0.542,0.014-0.8-0.067H13.75v0.022
	c-0.241,0.06-0.491,0.074-0.737,0.043c-0.021-0.023-0.043-0.046-0.067-0.066c-0.085-0.02-0.073,0.051-0.112,0.066h-0.713
	c-0.025-0.038-0.066-0.063-0.112-0.066l-0.045,0.066h-0.67c-0.034-0.017-0.024-0.086-0.112-0.066
	c-0.024,0.021-0.046,0.043-0.067,0.066h-0.67L10.4,26.373c-0.1-0.035-0.08,0.048-0.112,0.066H9.621L9.6,26.373
	c-0.271,0.061-0.549,0.084-0.826,0.066L8.75,26.373c-0.02-0.011-0.248,0.044-0.335,0.044c-0.158,0.007-0.315-0.009-0.469-0.044
	c-0.045-0.016-0.306,0.044-0.424,0.044S7,26.37,6.987,26.373c-0.158,0.052-0.326,0.066-0.491,0.044
	c-0.068-0.008-0.135-0.022-0.2-0.044c-0.013-0.031-0.028-0.061-0.046-0.089c-0.056-0.01-0.113,0.007-0.156,0.044
	C5.925,26.301,5.76,26.257,5.6,26.196c-0.094-0.04-0.186-0.179-0.246-0.2L5.22,26.018l-0.6-0.287
	c-0.008-0.04-0.023-0.078-0.045-0.111c-0.053-0.005-0.106,0.003-0.156,0.021c-0.221-0.092-0.437-0.196-0.647-0.311l-0.067-0.111
	l-0.134,0.022c-0.084-0.032-0.166-0.069-0.246-0.111c-0.1-0.044-0.214-0.128-0.312-0.178H2.946c-0.021-0.05-0.051-0.095-0.089-0.134
	l-0.134,0.022C2.51,24.757,2.302,24.66,2.1,24.553L2.011,24.42c-0.065-0.029-0.121,0.032-0.2,0
	c-0.218-0.092-0.405-0.246-0.536-0.443c-0.05-0.026-0.103-0.049-0.156-0.067c-0.188-0.198-0.332-0.433-0.424-0.688
	c0.041-0.033,0.057-0.087,0.042-0.137c-0.028-0.017-0.059-0.03-0.09-0.04c-0.054-0.232-0.077-0.472-0.067-0.71
	c0.032-0.027,0.063-0.057,0.09-0.089c-0.012-0.046-0.027-0.09-0.045-0.133l0.067-0.328c0.169-0.383,0.448-0.707,0.8-0.933v-0.026
	h-0.51v-0.4c-0.051,0.009-0.024,0.021-0.067,0c-0.119-0.248-0.208-0.509-0.268-0.776c-0.158-0.39-0.259-0.813-0.424-1.222
	C0.135,18.24,0.061,18.048,0,17.851l0.223-0.71c0.044-0.065,0.067-0.143,0.067-0.222c-0.078-0.059-0.12-0.022-0.134-0.155
	c0.287-0.378,0.478-0.819,0.558-1.287c-0.053-0.005-0.099-0.042-0.114-0.093c0.042-0.079,0.08-0.16,0.112-0.244
	c-0.065-0.044-0.1-0.122-0.089-0.2c0.03-0.023,0.053-0.054,0.067-0.089c0.066-0.013,0.134-0.013,0.2,0
	c-0.004-0.067,0.003-0.135,0.022-0.2C0.939,14.636,0.97,14.63,1,14.633c0.012,0.028,0.019,0.059,0.022,0.089
	C1.01,14.734,1.002,14.75,1,14.766h0.071c0.027-0.017,0.058-0.024,0.089-0.022c0-0.344,0.042-0.6,0.045-0.91h0.112
	c0,0.251,0.043,0.415,0.045,0.688h0.022V14.5c0.041-0.102,0.122-0.182,0.223-0.222c0.051,0.18,0.171,0.332,0.335,0.422
	c0,0.024,0.007,0.048,0.022,0.067c0.258,0.041,0.521,0.048,0.781,0.022c0.05,0.029,0.096,0.067,0.134,0.111
	c0.061,0.194,0.077,0.399,0.045,0.6h4.755v0.577c0.091-0.039,0.191-0.054,0.29-0.044v0.044H8.1c0.203-0.296,0.435-0.571,0.692-0.821
	v-0.024H8.616c-0.074-0.404-0.074-0.817,0-1.221c-0.015-0.141-0.007-0.283,0.022-0.422h0.246c0.132-0.024,0.266-0.039,0.4-0.044
	c0.291-0.077,0.592-0.114,0.893-0.111v-0.51h0.268v0.133h0.022v-0.022c0.043-0.055,0.048-0.141,0.089-0.2
	c0.078-0.07,0.153-0.144,0.223-0.222c0.052,0.009,0.104,0.009,0.156,0c0.056-0.126,0.072-0.266,0.045-0.4h0.045
	c-0.011,0.126-0.003,0.253,0.022,0.377h0.022v-0.021c0.035-0.198,0.042-0.4,0.022-0.6c0.009-0.033,0.058-0.118,0.067-0.155v-0.288
	c0.019-0.099,0.049-0.196,0.089-0.289c0.047-0.042,0.092-0.086,0.134-0.133c0.007-0.303,0.015-0.607,0.022-0.91
	c0.2,0,0.254,0.059,0.446,0.067c-0.005-0.047-0.02-0.092-0.045-0.133c0.075-0.082,0.128-0.181,0.156-0.288
	c0.178-0.221,0.455-0.338,0.737-0.311C12.846,9.528,12.976,9.629,13.013,9.773z"/>
</svg>
