<?xml version="1.0" encoding="utf-8"?>
<!-- Generator: Adobe Illustrator 16.0.0, SVG Export Plug-In . SVG Version: 6.00 Build 0)  -->
<!DOCTYPE svg PUBLIC "-//W3C//DTD SVG 1.1//EN" "http://www.w3.org/Graphics/SVG/1.1/DTD/svg11.dtd">
<svg version="1.1" id="Layer_1" xmlns="http://www.w3.org/2000/svg" xmlns:xlink="http://www.w3.org/1999/xlink" x="0px" y="0px"
	 width="40px" height="40px" viewBox="0 0 40 40" enable-background="new 0 0 40 40" xml:space="preserve">
<path id="Color_Fill_1" fill="#FFFFFF" d="M18.244,10.542h0.146c-0.039,0.161,0.018,0.33,0.146,0.435v0.048h0.049v-0.047
	c0.058-0.171,0.074-0.354,0.049-0.532c-0.159-0.142-0.115-0.154-0.1-0.435h0.1c0.303-0.075,0.618-0.091,0.927-0.048
	c0.629,0,1.347,0.087,2.1,0.1V9.672h0.1v0.387l0.294-0.048V8.947c0.125-0.133,0.305-0.204,0.487-0.194V8.56
	c0.078-0.029,0.161-0.045,0.244-0.048v0.242c0.403,0.278,0.696,0.689,0.829,1.161c0.065,0.351,0.082,0.708,0.049,1.064l0.634,0.048
	v-0.146h0.146c-0.022-0.045-0.022-0.099,0-0.145h0.05v0.145h0.146v-0.145c0.073-0.039,0.141-0.087,0.2-0.145
	c0.063,0.026,0.132,0.042,0.2,0.048c0.055,0.126,0.104,0.255,0.146,0.387c0.946,0.055,1.681,0.715,2.584,0.87v1.064
	c0.331-0.079,0.656-0.175,0.977-0.29c-0.032-0.078-0.032-0.165,0-0.242h0.146c-0.002,0.083-0.019,0.165-0.05,0.242
	c0.299,0.047,0.583,0.163,0.829,0.338h2.049c1.58,0,3.301,0.006,4.635,0v0.484c-1.916-0.079-4.182,0-6.244,0v0.048
	c0.199,0.839,0.248,1.707,0.146,2.563h0.293v0.1c-0.181,0.236-0.329,0.497-0.438,0.774c-0.319,0.062-0.631,0.158-0.928,0.29
	l-2.438,0.145v0.1h0.341v0.146c0.553-0.035,1.109-0.019,1.659,0.048l0.39-0.048l0.036,0.144c0.121,0.035,0.101-0.09,0.146-0.101
	l0.732,0.101c0.091,0.07,0.172,0.152,0.244,0.242h0.488c0.418,0.077,0.843,0.11,1.268,0.1c0.039,0.141,0.057,0.288,0.049,0.435
	l0.342-0.048v0.145c0.232,0.016,0.463,0.064,0.683,0.146c0.42,0.06,0.844,0.093,1.269,0.101c-0.001,0.052,0.016,0.104,0.049,0.145
	c0.181-0.162,0.398-0.278,0.634-0.338c0.22,0.113,0.448,0.211,0.683,0.29c-0.023,0.046-0.023,0.099,0,0.145
	c0.221,0.121,0.624,0.101,0.878,0.242c0.093,0.12,0.21,0.218,0.343,0.291c0.066-0.435,0.049-0.878-0.05-1.307l-0.2,0.678h-0.1
	v-1.655h0.1v0.048c0.113,0.174,0.182,0.373,0.2,0.58h0.2c-0.016,0.549-0.032,1.096-0.049,1.645c0.071,0.054,0.155,0.088,0.244,0.1
	c0.02-0.07,0.075-0.125,0.146-0.145c0.554,0.291,1.145,0.502,1.757,0.629C39.501,20.26,39.772,20.343,40,20.5
	c-0.291,0.51-0.535,1.047-0.732,1.6c-0.012,0.145-0.012,0.291,0,0.436c0.053,0.053,0.254,0.092,0.293,0.145
	c0.184,0.256-0.185,0.373,0.244,0.629c-0.27,0.381-0.066,0.301-0.049,0.533c-0.055,0.084-0.145,0.137-0.244,0.145
	c-0.142-0.223-0.349,0.043-0.537,0.1c0.016,0.211,0,0.424-0.049,0.629h-0.1v-0.1c-0.058-0.172-0.074-0.354-0.049-0.531
	c-0.115,0.002-0.23,0.018-0.342,0.047l-0.488,1.111H37.9c-0.041-0.156,0.023-0.072-0.101-0.145
	c-0.155,2.207-3.306,3.664-5.415,2.273c-0.499-0.357-0.914-0.82-1.219-1.354c-0.075-0.129-0.229-0.873-0.293-0.92h-1.609v0.049
	H29.22c-0.116,2.004-2.882,3.412-4.976,2.465c-0.615-0.309-1.137-0.777-1.512-1.354c-0.2-0.324-0.215-0.791-0.439-1.111
	c-0.4-0.09-0.813-0.105-1.219-0.049H17.9c-0.251,1.361-1.286,2.443-2.634,2.756c-1.906,0.449-3.815-0.73-4.264-2.635
	c-0.01-0.039-0.018-0.08-0.026-0.119H8.927v0.049H8.878c-0.093,0.609-0.384,1.172-0.829,1.6c-1.223,1.594-3.68,1.41-5.122,0.193
	c-0.482-0.496-0.82-1.115-0.976-1.789c-0.08-0.301,0.05-1.045-0.049-1.209c-0.153-0.076-0.318-0.125-0.488-0.145
	c0.02,0.242,0.003,0.486-0.049,0.725c-0.038-0.004-0.073-0.021-0.1-0.049c-0.067-0.234-0.084-0.482-0.049-0.725h-0.24
	c-0.044-0.117-0.052-0.076-0.1-0.193c0.247-0.109,0.08-0.316,0-0.484C1.115,22.77,1.222,22.383,1.171,22H0.829v-0.1
	c-0.044-0.09-0.061-0.191-0.049-0.291H0.39v-2.072h0.049v-0.048c0.084,0.009,0.169-0.008,0.244-0.049
	c-0.078-0.3-0.094-0.612-0.049-0.919H0.488c-0.042-0.109-0.075-0.223-0.1-0.338c0.083-0.154,0.151-0.316,0.2-0.484H0.537
	c-0.042,0.031-0.094,0.048-0.146,0.048c0.008-0.276,0.009-0.3,0-0.579c0.24-0.066,0.485-0.114,0.732-0.146
	c-0.047-0.074-0.047-0.168,0-0.242c0.042,0.031,0.093,0.048,0.146,0.048c-0.005,0.068,0.012,0.137,0.049,0.194l0.049-0.29
	c-0.07,0.007-0.141-0.01-0.2-0.048h0.1c0.37-0.064,0.748-0.081,1.122-0.048c1.04-0.082,2.085-0.066,3.122,0.048
	c-0.025,0.062-0.042,0.127-0.049,0.194c0.077,0.043,0.159,0.077,0.244,0.1c0.599-0.04,1.201-0.04,1.8,0
	c0.352-0.084,0.712-0.117,1.073-0.1c0.089,0.053,0.189,0.087,0.293,0.1c0.058-0.104,0.184-0.146,0.293-0.1l0.055,0.145l0.537,0.048
	c0.554,0.235,1.125,0.429,1.707,0.58l0.488-0.048c0.618-0.018,1.237-0.002,1.854,0.048v-0.146c-0.451-0.03-0.895-0.128-1.317-0.289
	l-1.756-0.388c-0.416-0.136-0.856-0.321-1.317-0.435v-0.387c-0.068-0.011,0.02,0.039-0.049,0.048
	c-0.038,0.093-0.049-0.101-0.049-0.101h0.1c-0.036-0.042-0.061-0.055-0.1-0.1c0.123-0.071,0.089-0.061,0.1-0.242h-0.15v-0.041
	c0.152-1.042,0.152-2.101,0-3.143c-0.078-0.318,0.083-0.286,0.146-0.387v-1.016H9.366c-0.069,0.043-0.274,0.052-0.341,0.1
	c-0.17,0.007-0.302,0.151-0.294,0.321c0,0.005,0,0.011,0.001,0.017c0.088,0.364,0.104,0.742,0.049,1.112h0.048
	c0.123-0.059,0.267-0.059,0.39,0c-0.342,0.444-0.462,0.029-0.438,0.967c0.047,0.106,0.063,0.223,0.049,0.338h0.244v0.1
	c-0.451,0.019-0.87,0.41-1.22,0.1c-0.11,0.063-0.028,0.1-0.146,0.048c-0.053-0.14-0.086-0.286-0.1-0.435
	c-0.027,0.027-0.044,0.063-0.049,0.1c-0.266,0.324-0.374,0.75-0.293,1.161c-0.108-0.05-0.223-0.084-0.341-0.1
	c-0.055,0.154-0.072,0.32-0.049,0.484c-0.053,0-0.104-0.017-0.146-0.049c-0.055-0.157-0.071-0.326-0.046-0.49
	c-0.22,0.019-0.155,0-0.244,0.145c-0.067-0.094-0.177-0.148-0.293-0.145c0.003,0.178-0.013,0.356-0.049,0.531H5.951
	C5.907,15.158,5.89,14.979,5.9,14.8c-0.116-0.008-0.228,0.048-0.293,0.145c-0.034-0.102-0.136-0.162-0.241-0.145
	c0.003,0.178-0.013,0.356-0.049,0.531H5.171c-0.043-0.174-0.06-0.354-0.049-0.531c-0.117-0.008-0.228,0.048-0.293,0.145
	c-0.034-0.103-0.138-0.164-0.244-0.145c0.003,0.178-0.013,0.356-0.049,0.531H4.39v-0.1c-0.052-0.138-0.069-0.286-0.049-0.432
	c-0.116-0.008-0.228,0.048-0.293,0.145C4.014,14.84,3.907,14.779,3.8,14.8v0.483c-0.063,0.026-0.131,0.042-0.2,0.048v-0.1
	c-0.048-0.139-0.062-0.287-0.039-0.432c-0.117-0.012-0.231,0.045-0.293,0.145c-0.052-0.161-0.05-0.127-0.244-0.145v0.483H2.976
	v0.046H2.829L2.78,14.8h-0.2c-0.04,0.156,0.024,0.074-0.1,0.145c-0.062-0.157-0.043-0.127-0.244-0.145v0.483H2.2v0.046H2.049v-0.484
	C1.969,14.817,1.885,14.801,1.8,14.8c-0.04,0.156,0.024,0.074-0.1,0.145V14.8H1.5c-0.012,0.02-0.029,0.036-0.049,0.048
	c0.01,0.163-0.007,0.326-0.049,0.483c-0.038-0.004-0.073-0.021-0.1-0.048c-0.055-0.09-0.04-0.346-0.1-0.435
	C1.165,14.821,1.12,14.804,1.073,14.8c-0.021,0.07-0.076,0.125-0.146,0.145V14.8h-0.2c-0.043,0.174-0.06,0.353-0.049,0.531
	c-0.052,0.001-0.104-0.016-0.146-0.048c-0.17-0.532-0.188-1.102-0.049-1.644H0v-1.5c2.429-0.016,4.932-0.054,7.22-0.048V11.9h0.048
	v0.048c0.033,0.037,0.064,0.108,0.1,0.145c0.105-0.527,0.25-1.045,0.432-1.551c-0.01-0.28-0.059-0.556-0.146-0.822
	c0.938-0.122,1.887-0.138,2.829-0.048h6.293V9.72h0.049c0.134,0.445,0.297,0.882,0.488,1.306h0.439
	c0.053-0.089,0.087-0.188,0.1-0.29c0.036-0.058,0.053-0.125,0.049-0.193h0.146C18,9.244,18.1,7.47,18.1,5.948
	c-0.045-0.967-0.029-1.935,0.049-2.9V0.87C18.11,0.58,18.127,0.284,18.2,0C18.193,3.472,18.3,7.31,18.244,10.542z M22.634,8.559v0.1
	h0.101v-0.1H22.634z M10.634,9.865c0.019,0.127-0.036,0.063,0.1,0.1v-0.1H10.634z M14.39,10.155l-0.049-0.29h-0.2
	c-0.025,0.054-0.059,0.103-0.1,0.145v0.1h0.1C14.218,10.15,14.304,10.166,14.39,10.155z M14.683,10.155h0.146
	c0.058-0.057,0.106-0.122,0.146-0.193c-0.178-0.081-0.114-0.086-0.293,0L14.683,10.155L14.683,10.155z M8.1,10.3h0.241
	c0.089-0.135,0.205-0.25,0.341-0.338V9.914H8v0.048C8.062,10.064,8.096,10.181,8.1,10.3z M13.661,9.913
	c0.027,0.026,0.063,0.043,0.1,0.048c-0.028-0.026-0.063-0.043-0.102-0.047L13.661,9.913z M15.368,9.961
	c0.027,0.026,0.062,0.043,0.1,0.048c-0.028-0.026-0.063-0.043-0.102-0.047L15.368,9.961z M13.514,10.061v0.1
	c0.06,0.036,0.109,0.086,0.146,0.146h0.049v-0.054c0.041-0.025,0.075-0.059,0.1-0.1h-0.053c-0.073-0.049-0.156-0.081-0.244-0.093
	L13.514,10.061z M14.88,10.161c-0.027,0.026-0.063,0.043-0.1,0.048v0.048h0.146V10.2h0.049c-0.027-0.024-0.061-0.04-0.097-0.045
	L14.88,10.161z M15.904,10.161c-0.683,0.331-1.449,0.449-2.2,0.339c-1.222,0-2.4,0-3.61,0.048v0.1h0.2
	c0.497-0.105,1.009-0.122,1.512-0.048h3.854c0.103-0.154,0.235-0.286,0.39-0.387v-0.058H15.9L15.904,10.161z M16.294,10.161
	c0.019,0.207,0.087,0.406,0.2,0.58c0.202-0.09,0.292-0.327,0.201-0.528c0-0.001-0.001-0.002-0.001-0.003
	c-0.129-0.04-0.265-0.058-0.401-0.054L16.294,10.161z M14.148,10.261c-0.016,0.067,0.069,0.07,0.1,0.1
	c0.03-0.061-0.088-0.094-0.102-0.109L14.148,10.261z M16.197,10.261c0.029,0.127,0.046,0.257,0.049,0.387h0.1V10.4
	c-0.046-0.052-0.095-0.102-0.146-0.148L16.197,10.261z M9.612,10.599c0.027,0.026,0.063,0.043,0.1,0.048
	c-0.026-0.03-0.063-0.05-0.102-0.056L9.612,10.599z M7.812,10.647c0,0.052,0.017,0.104,0.049,0.145v-0.056
	c0.027-0.027,0.044-0.062,0.049-0.1H7.8L7.812,10.647z M24.739,10.889h0.146c0-0.053,0.018-0.104,0.049-0.146
	c0.041,0.157-0.023,0.074,0.101,0.146v-0.101c-0.041-0.024-0.075-0.059-0.101-0.1c-0.037,0.004-0.072,0.021-0.1,0.048
	c-0.129,0.069-0.061-0.012-0.102,0.144L24.739,10.889z M10.983,10.989c0.253,0.086,0.528,0.086,0.781,0H10.983L10.983,10.989z
	 M13.276,10.989c0.072,0.056,0.172,0.056,0.244,0h-0.252H13.276z M13.715,10.989c0.253,0.086,0.528,0.086,0.781,0H13.715
	L13.715,10.989z M14.593,10.989c0.072,0.056,0.172,0.056,0.244,0h-0.252H14.593z M14.886,10.989c0.027,0.026,0.063,0.043,0.1,0.048
	c-0.028-0.032-0.066-0.053-0.108-0.059L14.886,10.989z M8.349,11.037H8v0.048c0.063,0.073,0.149,0.124,0.244,0.145
	c0.076,0.06,0.025,0.031,0.1,0H8.39c-0.027-0.065-0.043-0.134-0.049-0.204L8.349,11.037z M7.9,11.074v0.1l0.146,0.1
	C8.007,11.201,7.958,11.133,7.9,11.074z M28.777,12.474v0.048h-0.045c-0.094,0.038,0.1,0.048,0.1,0.048
	c-0.006-0.036-0.024-0.068-0.051-0.093L28.777,12.474z M1.22,13.734l-0.049,0.242H1.22v-0.048
	C1.272,13.874,1.272,13.788,1.22,13.734z M2,13.734l-0.049,0.242H2v-0.048C2.052,13.874,2.052,13.788,2,13.734z M2.78,13.734
	c-0.047,0.074-0.047,0.168,0,0.242C2.812,13.898,2.812,13.812,2.78,13.734z M4.292,13.734C4.286,13.8,4.27,13.866,4.243,13.927h0.1
	v-0.193H4.292L4.292,13.734z M5.072,13.734C5.066,13.8,5.05,13.866,5.023,13.927h0.1v-0.193H5.072L5.072,13.734z M5.852,13.734
	C5.846,13.8,5.83,13.866,5.803,13.927H5.9c0.006-0.067-0.01-0.135-0.046-0.193H5.852z M6.632,13.734l-0.049,0.193h0.1
	c0.005-0.068-0.012-0.136-0.049-0.193H6.632z M3.51,13.782c0,0.053,0.017,0.104,0.049,0.145v-0.145H3.512H3.51z M5.22,16.829v0.194
	h0.1v-0.29h-3.8v0.101h0.1c0.134-0.069,0.465,0.045,0.732,0C3.307,16.764,4.265,16.763,5.22,16.829z M0.586,17.264
	c0.027,0.026,0.063,0.043,0.1,0.048C0.658,17.285,0.623,17.269,0.586,17.264L0.586,17.264z M0.44,17.312
	c0.029,0.055,0.084,0.093,0.146,0.1C0.542,17.372,0.493,17.337,0.44,17.312L0.44,17.312z M0.733,17.312
	c0.029,0.055,0.084,0.093,0.146,0.1v-0.1H0.733L0.733,17.312z M32.05,18.618c0.027,0.026,0.063,0.044,0.101,0.048
	C32.123,18.639,32.087,18.623,32.05,18.618L32.05,18.618z M36.15,19.392v0.1l0.537,0.145v-0.051
	c-0.162-0.068-0.364-0.127-0.541-0.194H36.15z M0.732,19.44c0.081,0.054,0.052,0.086,0.1,0H0.732z M1.025,21.713l-0.049-0.289H0.927
	l-0.049,0.289H1.025L1.025,21.713z M1.22,22c-0.036,0.176-0.036,0.357,0,0.531c0.095-0.031,0.193-0.047,0.293-0.047v-0.045
	C1.427,22.285,1.329,22.139,1.22,22z M1.269,22.678c0,0.127-0.01,0.072,0.146,0.145v-0.1H1.366
	c-0.028-0.023-0.062-0.039-0.098-0.041L1.269,22.678z M39.123,22.967v0.193h0.1c0.009-0.078-0.031-0.152-0.101-0.189L39.123,22.967z
	 M39.465,23.111l-0.049,0.146h0.1c-0.001-0.053-0.02-0.102-0.053-0.143L39.465,23.111z M39.514,23.74v-0.334
	c-0.068,0.004-0.137,0.021-0.199,0.047c-0.037,0.076-0.053,0.16-0.049,0.242c0.075,0.041,0.161,0.059,0.246,0.049L39.514,23.74z"/>
</svg>
