<svg xmlns="http://www.w3.org/2000/svg" width="40" height="40" viewBox="0 0 40 40">
  <defs>
    <style>
      .cls-1 {
        fill: #fff;
        fill-rule: evenodd;
      }
    </style>
  </defs>
  <path id="Color_Fill_1" data-name="Color Fill 1" class="cls-1" d="M13.251,14.174v0.145c0.426-.027.7-0.229,1.137-0.29a0.269,0.269,0,0,1,.148-0.29,5.042,5.042,0,0,1,1.384-.145V13.158a2.457,2.457,0,0,0,.89-0.1v0.145h0.2v0.242h0.445l0.049,0.29a10.185,10.185,0,0,1,2.373-.048c0.627,0.159,1.084.563,1.681,0.725V13.932h0.3v0.483a0.243,0.243,0,0,1,.148.048c-0.055.1-.03,0.088,0,0.193a2.9,2.9,0,0,0,.89.387,0.664,0.664,0,0,1,.4-0.1,0.5,0.5,0,0,1,.049.387c0.2,0.052.335,0.192,0.494,0.242a3,3,0,0,0,1.088-.048l1.088,0.048v0.145h3.56v0.29c-1.153-.079-2.433,0-3.609,0a0.262,0.262,0,0,1-.148.193,0.739,0.739,0,0,0,.148.1,1.264,1.264,0,0,0-.1.242l0.4,0.338L26.3,17.075h0.643a3.456,3.456,0,0,1,.3.193,1.084,1.084,0,0,0,.148.242v0.048h3.362A0.257,0.257,0,0,1,30.9,17.51V17.8H27.293c-0.2.358-.658,0.31-0.692,0.822l0.89,0.145a1.75,1.75,0,0,1,.1-0.338h0.2v0.1h-0.05c-0.049.049,0.049,0.048,0.05,0.048a1.083,1.083,0,0,1,.544.193,0.6,0.6,0,0,0,.148.29,0.542,0.542,0,0,1,.544-0.387l-0.049.483a1.385,1.385,0,0,1,.445.048V19.057c0.16,0.04.076-.024,0.148,0.1l-0.049.048h0.1c0.041-.157-0.024-0.074.1-0.145v0.193a3.539,3.539,0,0,0,.643-0.29,0.955,0.955,0,0,1-.049.338L30.9,19.4l0.692,1.064h0.049v-0.1c0.043-.054.049,0.048,0.049,0.048l0.3,0.387h0.1a1.4,1.4,0,0,1,.791-0.725,2.26,2.26,0,0,0,1.088.725c0,0.112.025,0.083,0.049,0.29a0.367,0.367,0,0,0-.2.193,1.551,1.551,0,0,0,.544.1,2.028,2.028,0,0,0-.247-0.967h0.2a1.046,1.046,0,0,1-.1,1.45h1.73A0.746,0.746,0,0,1,36,22.1a7.888,7.888,0,0,1-2.027.048V22.2h0.049A15.134,15.134,0,0,0,35.2,23.264h1.829c0.31,0.2.727,0.2,1.038,0.387A6.78,6.78,0,0,1,40,26.262c-0.472-.009-0.846-0.093-1.384-0.1,0,1.909-1.385,2.362-2.522,3.143a8.887,8.887,0,0,1-2.324,1.547,7.423,7.423,0,0,1-1.78.048H10.828a9.95,9.95,0,0,1-2.472-.048,20.078,20.078,0,0,1-1.829-.87C5.473,29.534,4.5,29.1,3.461,28.631c-0.153-.069-0.342-0.281-0.494-0.338a0.675,0.675,0,0,0-.346.048l-0.494-.1c-0.146-.268-0.224-0.6.148-0.725a1.3,1.3,0,0,0,.049.435,0.17,0.17,0,0,0,.1-0.048,0.17,0.17,0,0,0,.1-0.048,1.921,1.921,0,0,1-.346-1.741H1.829A7.364,7.364,0,0,1,0,26.31V26.165l0.247-.048L1.78,23.457a1.628,1.628,0,0,1,.445-0.145H2.274V23.119H1.384a0.873,0.873,0,0,0-.148-0.193A8.372,8.372,0,0,1,1.384,20.8a0.962,0.962,0,0,1,.742-0.048,0.491,0.491,0,0,0,.2.29,0.646,0.646,0,0,0,.148-0.484H1.928l-0.049-.145H1.928V20.363a6.314,6.314,0,0,0,1.137-.193v-0.1a0.33,0.33,0,0,1,.2.145,1.733,1.733,0,0,0,.494,0,1.717,1.717,0,0,1,.692-0.193c0.034,0.037.065,0.108,0.1,0.145a0.937,0.937,0,0,1,.445-0.048c0.041-.157-0.024-0.074.1-0.145a0.139,0.139,0,0,0,.049.048c0.041-.157-0.024-0.074.1-0.145a1.312,1.312,0,0,0,.4,0,1.518,1.518,0,0,1,.247.193l1.533-.048c0.212-.063.554-0.321,0.643-0.338a0.243,0.243,0,0,1,.049.145c0.456-.038.679-0.046,1.088-0.048l0.049-.145a1.9,1.9,0,0,1-.1-0.484,0.562,0.562,0,0,0,.4-0.193h0.4c0.241-.056.607-0.138,0.841-0.193a12.228,12.228,0,0,1,2.423-.048,0.35,0.35,0,0,0,.3.242,0.868,0.868,0,0,0-.049.29L13.7,19.2V19.154a0.405,0.405,0,0,1-.1-0.338h0.247V17.607a9.7,9.7,0,0,1-1.681-.048,0.744,0.744,0,0,1-.05-0.242,4.271,4.271,0,0,1,.3-2.031,4.032,4.032,0,0,1-.1-0.629,1.1,1.1,0,0,1,.2-0.1,2.808,2.808,0,0,0,.2-0.677c-0.057-.041-0.144-0.1-0.2-0.145a0.544,0.544,0,0,0,.148-0.1,7.624,7.624,0,0,1-.494-1.741,13.91,13.91,0,0,1-.841-2.853h0.05l1.335,4.593h0.1v-0.1a5.037,5.037,0,0,1-.4-1.354c-0.233-.695-0.4-1.436-0.643-2.176A4.5,4.5,0,0,1,11.471,9h0.05l1.335,4.593h0.2a0.178,0.178,0,0,1,.1-0.048v0.048a0.743,0.743,0,0,0-.049.58h0.148Zm-0.3-.532v0.193H13V13.787a0.244,0.244,0,0,0,.05-0.145h-0.1Zm-0.2.1v0.1h0.049A0.165,0.165,0,0,0,12.757,13.739ZM26.7,17.268l-0.049.145H26.7a0.38,0.38,0,0,1,.346,0l-0.1-.145H26.7Zm1.286,1.451v0.1a0.858,0.858,0,0,1,.3.048v-0.1A0.925,0.925,0,0,0,27.985,18.719Zm0.692,0.387a0.231,0.231,0,0,0-.049-0.145v0.048H28.579l-0.049.1h0.148Zm4.5,2.321h0.247l0.049-.145a0.243,0.243,0,0,0,.05-0.145H33.375a0.5,0.5,0,0,1-.1-0.29,0.89,0.89,0,0,0,.2-0.145l-0.643-.58-0.148.048a1.781,1.781,0,0,1-.346.435h0.1a0.582,0.582,0,0,1,.593,0,0.719,0.719,0,0,1,.1.193A0.81,0.81,0,0,1,33.177,21.426ZM3.263,20.459c0.085,0.043.063,0.043,0.148,0H3.263Zm-0.593.048V20.7h0.1a0.58,0.58,0,0,0,.2-0.193H2.67Zm29.864,0.242a0.378,0.378,0,0,0-.2.338,3.025,3.025,0,0,1,.643.338V20.895A0.609,0.609,0,0,0,32.534,20.749Zm-30.309.338a1.27,1.27,0,0,0,.049.58A1.27,1.27,0,0,0,2.225,21.088Zm31.792,0.483v0.193h0.049V21.717a0.559,0.559,0,0,0,.1-0.145H34.017Zm-31.792.242a1.552,1.552,0,0,0,.049.677A1.552,1.552,0,0,0,2.225,21.813Zm31.743,0.629v0.193c0.127,0.054.172,0.128,0.3,0.193v0.048a0.636,0.636,0,0,0-.2.048v0.048h0.148a0.558,0.558,0,0,1,.3-0.1A5.058,5.058,0,0,1,33.968,22.442ZM6.625,27.954a0.567,0.567,0,0,1-.544.242,2.505,2.505,0,0,1-1.088.1v0.048h0.1a5.071,5.071,0,0,0,1.088.484,6.73,6.73,0,0,0,1.137.532V29.308a1.507,1.507,0,0,1,.247-1.354H6.625Zm2.027,0h-0.3a0.6,0.6,0,0,0-.3.435,1.822,1.822,0,0,0,.4.1A0.57,0.57,0,0,0,8.653,27.954Zm0.494,0v0.387h0.1c0.011-.287.128-0.053,0.148-0.387H9.147Zm1.286,0a0.3,0.3,0,0,0-.1.194,0.793,0.793,0,0,0,.247.048,0.5,0.5,0,0,0,.247-0.145A0.641,0.641,0,0,1,10.433,27.954Zm2.324,0v0.1a0.653,0.653,0,0,0-.346.048H12.46a0.777,0.777,0,0,0,.445.1L12.954,28A0.635,0.635,0,0,1,12.757,27.954Zm1.335,0H13.844v0.1c0.1,0.086.158,0.2,0.247,0.29V28.292A0.514,0.514,0,0,0,14.092,27.954Zm0.544,0-0.05.338a0.947,0.947,0,0,0,.4.193,0.587,0.587,0,0,1,.247-0.1V28.244a0.173,0.173,0,0,1-.05-0.1,0.633,0.633,0,0,1-.3-0.194H14.635Zm1.088,0a2.129,2.129,0,0,1,.2,1.6c-0.067.164-.23,0.288-0.3,0.484h0.05a3.016,3.016,0,0,1,1.434,0v-0.1c-0.6-.4-0.366-1.453-0.1-1.982H15.723Zm2.373,0H17.8a0.649,0.649,0,0,0-.3.435,1.821,1.821,0,0,0,.4.1A0.57,0.57,0,0,0,18.1,27.954Zm0.544,0a1.189,1.189,0,0,0-.049.387h0.1a1.729,1.729,0,0,1,.2-0.387H18.64Zm1.236,0a0.3,0.3,0,0,0-.1.194,0.926,0.926,0,0,0,.3.048,1.433,1.433,0,0,1,.247-0.1V28.051A0.923,0.923,0,0,1,19.876,27.954Zm2.324,0v0.1a0.653,0.653,0,0,0-.346.048H21.9a0.777,0.777,0,0,0,.445.1A0.672,0.672,0,0,0,22.4,28Zm1.088,0a0.66,0.66,0,0,0,.3.387v-0.29a0.172,0.172,0,0,1-.05-0.1H23.288Zm0.791,0v0.387a0.828,0.828,0,0,0,.4.145,0.315,0.315,0,0,0,.2-0.29l-0.346-.242H24.079Zm1.088,0a1.934,1.934,0,0,1,.2,1.6c-0.074.171-.229,0.3-0.3,0.484h0.049a2.884,2.884,0,0,1,1.384,0v-0.1c-0.62-.463-0.3-1.4-0.1-1.982H25.167Zm2.324,0a0.422,0.422,0,0,0-.247.048,0.413,0.413,0,0,0-.3.242,0.243,0.243,0,0,0-.049.145c0.154,0.033.223,0.073,0.4,0.1a0.577,0.577,0,0,0,.247-0.338A0.321,0.321,0,0,1,27.491,27.954Zm0.544,0a0.865,0.865,0,0,0,0,.387h0.049c0.049-.2.137-0.191,0.2-0.387H28.035Zm1.285,0a0.379,0.379,0,0,0-.148.145,0.375,0.375,0,0,0,.3.1,1.433,1.433,0,0,1,.247-0.1V28.051A0.532,0.532,0,0,1,29.32,27.954Zm2.324,0a1.854,1.854,0,0,0-.346.194h0.247a0.339,0.339,0,0,0,.2.048A0.669,0.669,0,0,0,31.792,28Zm3.708,0.29a0.977,0.977,0,0,1-.495.1,0.674,0.674,0,0,0-.049.193,1.148,1.148,0,0,1,.049.532h0.1a4.257,4.257,0,0,0,.89-0.725,0.922,0.922,0,0,0-.3-0.048A0.339,0.339,0,0,0,35.352,28.244Zm-1.73.145a0.235,0.235,0,0,0,.247.1,0.179,0.179,0,0,1,.1-0.048V28.389H33.622Zm-21.36.58h-0.2a0.23,0.23,0,0,0-.05-0.145,0.586,0.586,0,0,0-.247-0.1c-0.025.2-.01,0.2-0.2,0.242a0.291,0.291,0,0,0-.2-0.242v0.048a2.637,2.637,0,0,1-.346.193c-0.082-.192-0.258-0.1-0.495-0.048a2.206,2.206,0,0,1-.4,1.112h0.049a1.92,1.92,0,0,1,.742-0.048,8.475,8.475,0,0,1,2.176.048v-0.1c-0.277-.222-0.283-0.883-0.494-1.015a1.162,1.162,0,0,0-.346-0.1v0.145Zm8.554-.242a0.638,0.638,0,0,1-.346.242c-0.083-.194-0.215-0.1-0.445-0.048a4.463,4.463,0,0,1-.4,1.112h0.049a1.918,1.918,0,0,1,.742-0.048,8.279,8.279,0,0,1,2.126.048v-0.1c-0.2-.2-0.322-0.916-0.494-1.015-0.238-.157-0.282-0.008-0.494.048a0.515,0.515,0,0,0-.2-0.242h-0.1a0.254,0.254,0,0,1-.247.242A0.291,0.291,0,0,0,20.816,28.728Zm9.246,0.242h-0.2c-0.041-.157.024-0.074-0.1-0.145a1.163,1.163,0,0,1-.346.1,2.667,2.667,0,0,1-.4,1.112h0.049a1.92,1.92,0,0,1,.742-0.048,8.475,8.475,0,0,1,2.176.048v-0.1a1.224,1.224,0,0,1-.4-0.629V28.969l-0.445-.145c-0.108.046,0.032,0.087-.2,0.145a0.515,0.515,0,0,0-.2-0.242h-0.1a0.254,0.254,0,0,1-.247.242,0.252,0.252,0,0,0-.148-0.242,0.983,0.983,0,0,1-.2.1v0.145Zm-22.2-.1a0.81,0.81,0,0,0,.148.677h0.1a1.078,1.078,0,0,0,.2-0.29,0.454,0.454,0,0,0-.1-0.29A0.74,0.74,0,0,0,7.862,28.873Zm7.367,0a0.34,0.34,0,0,1-.2.048v0.1a0.5,0.5,0,0,0-.1.29,0.887,0.887,0,0,0,.3.242,0.738,0.738,0,0,0,.2-0.58C15.354,28.847,15.4,28.895,15.229,28.873Zm2.077,0a0.869,0.869,0,0,0,.148.677h0.1a1.327,1.327,0,0,0,.247-0.338,1.506,1.506,0,0,1-.148-0.29Zm7.367,0c-0.038.033-.11,0.063-0.148,0.1a0.687,0.687,0,0,0-.148.338,1.357,1.357,0,0,0,.346.242V29.5a0.943,0.943,0,0,0,.2-0.58H24.87V28.873h-0.2Zm2.027,0a0.165,0.165,0,0,1-.049.1,0.608,0.608,0,0,0,.346.58,0.91,0.91,0,0,0,.2-0.387,0.559,0.559,0,0,1-.1-0.242H26.9A0.339,0.339,0,0,0,26.7,28.873Zm7.417,0a0.339,0.339,0,0,1-.2.048v0.048H33.869a0.626,0.626,0,0,0-.05.29,0.388,0.388,0,0,0,.3.29V29.5a0.8,0.8,0,0,0,.2-0.58h-0.05V28.873H34.116Zm-24.623.242v0.242a1.1,1.1,0,0,0,.3.193,0.72,0.72,0,0,0,.1-0.193,0.511,0.511,0,0,0,.1-0.338h-0.1A0.98,0.98,0,0,1,9.493,29.114Zm3.758-.1a0.7,0.7,0,0,0,.247.483c0.111,0.108.276-.175,0.3-0.338Zm6.131,0c-0.106.067-.3,0.072-0.4,0.145a0.321,0.321,0,0,0-.049.193,1.1,1.1,0,0,0,.3.193,0.718,0.718,0,0,0,.1-0.193A0.28,0.28,0,0,0,19.382,29.018Zm3.362,0,0.1,0.435a0.75,0.75,0,0,0,.2.1,0.748,0.748,0,0,0,.2-0.387h-0.05V29.114Zm6.032,0c-0.106.067-.3,0.072-0.4,0.145a0.243,0.243,0,0,0-.049.145,0.783,0.783,0,0,1,.2.242,0.17,0.17,0,0,0,.1-0.048c0.122-.063.034,0.021,0.1-0.1a1.623,1.623,0,0,0,.148-0.387h-0.1Zm3.857,0.1-0.495-.1v0.193a0.559,0.559,0,0,1,.1.242,0.752,0.752,0,0,0,.2.1V29.5l0.2-.145V29.114ZM8.7,29.549a1.115,1.115,0,0,0-.148.387h0.1a0.919,0.919,0,0,0,.593,0V29.791A0.486,0.486,0,0,0,8.7,29.549Zm5.488,0a0.47,0.47,0,0,0-.148.338,0.8,0.8,0,0,0,.593.1c0.039-.083.13-0.089,0.049-0.145C14.624,29.581,14.53,29.538,14.19,29.549Zm3.956,0a0.463,0.463,0,0,1-.148.242,0.165,0.165,0,0,0,.05.1,0.8,0.8,0,0,0,.593.1,0.742,0.742,0,0,0,.049-0.242A0.6,0.6,0,0,0,18.146,29.549Zm5.488,0a0.657,0.657,0,0,0-.148.387,2.076,2.076,0,0,0,.593.048,0.722,0.722,0,0,0,.1-0.193,0.339,0.339,0,0,1-.148-0.242h-0.4Zm3.956,0a0.47,0.47,0,0,0-.148.338,0.8,0.8,0,0,0,.593.1c0.039-.083.13-0.089,0.049-0.145C28.023,29.581,27.929,29.538,27.59,29.549Zm5.439,0a1.116,1.116,0,0,0-.148.387h0.1a0.919,0.919,0,0,0,.593,0V29.791a0.9,0.9,0,0,1-.148-0.242h-0.4Z" transform="translate(0 0.016)"/>
</svg>
