<svg xmlns="http://www.w3.org/2000/svg" width="39.969" height="40" viewBox="0 0 39.969 40">
  <defs>
    <style>
      .cls-1 {
        fill: #fff;
        fill-rule: evenodd;
      }
    </style>
  </defs>
  <path id="Color_Fill_1" data-name="Color Fill 1" class="cls-1" d="M21.422,16.571v0.143a6,6,0,0,0,.882.1V16.762a0.239,0.239,0,0,1-.049-0.143H22.99v0.048a0.169,0.169,0,0,0-.1.048h0.147c0.048-.193.058-0.219,0.294-0.238,0.126,0.074.463,0.019,0.588,0.1a0.421,0.421,0,0,0-.245.048,0.3,0.3,0,0,1,.1.1,1.465,1.465,0,0,1,1.029-.048v-0.1a0.323,0.323,0,0,1-.2-0.048l0.784-.048a0.731,0.731,0,0,1,.049.238,5.884,5.884,0,0,1,1.029.333L26.716,17l0.1,0.143a5.376,5.376,0,0,1,.735.19,1.259,1.259,0,0,1,.049.572,0.4,0.4,0,0,1,.049.238c2.032,0.127,4.428.1,6.618,0.1a17.362,17.362,0,0,1,3.137.048,4.564,4.564,0,0,0,2.059-.191,0.664,0.664,0,0,1,.539.143v0.476a0.885,0.885,0,0,0-.2.143,1.889,1.889,0,0,1-.637-0.143,1.326,1.326,0,0,0-.392.048c-0.947-.089-2.108-0.048-3.137-0.048-2.637,0-5.4-.074-7.892.1L27.892,20h0.833V19.762h0.49c-0.018.14-.1,0.1,0.049,0.191,0.1,0.061.388,0.033,0.49,0.1a1.958,1.958,0,0,1,.049.809,0.259,0.259,0,0,1,0,.191,0.421,0.421,0,0,1,.245.048,0.242,0.242,0,0,0-.147.048,0.241,0.241,0,0,1,.147.048,0.241,0.241,0,0,0-.147.048,0.93,0.93,0,0,1,.294.381,0.922,0.922,0,0,1,.539-0.19c0.032,0.041.066,0.15,0.1,0.19a2.866,2.866,0,0,1,1.029-.143c1.1-.263,2.563.29,2.6,1.524H34.118a2.978,2.978,0,0,1-.049,1.286c-0.328.719-2.49,1.792-3.284,2.191-1.45.728-4.761,0.429-6.912,0.429H11.961c-2.454,0-5.119.112-6.863-.524-1.189-.434-2.427-0.725-3.578-1.143C0.9,25.014.17,24.758,0.1,24.191a1.352,1.352,0,0,1-.049-0.857A1.758,1.758,0,0,1,.98,22.048a5.8,5.8,0,0,0,.686-0.191,0.565,0.565,0,0,0,.147-0.381l-0.588-.048v-0.1a0.951,0.951,0,0,0,.833-0.1,4.3,4.3,0,0,0,1.912.238L4.02,21H4.069c-0.006.253-.1,0.225,0.2,0.238A1.613,1.613,0,0,0,5.441,21a7.494,7.494,0,0,1,1.667-.714L7.6,20.333c0.533-.113,1.517-0.022,1.912-0.1,0.608-.112,1.369.068,1.912-0.048a1.106,1.106,0,0,0,.686-0.1H11.863a3.122,3.122,0,0,0-.833-0.143v-0.1a8.885,8.885,0,0,0,1.029-.238c0.321-.053,1.6.051,2.206,0.048V19.524l4.559-.1V19.9a0.631,0.631,0,0,1,.441.1V19.667a0.239,0.239,0,0,1-.2-0.238,1.793,1.793,0,0,0,.2-0.143V18.952a7.893,7.893,0,0,0,0-1.333c-0.123-.22-0.2-0.049-0.2-0.381a0.4,0.4,0,0,0,.2-0.429,3.149,3.149,0,0,0,.637-0.048l0.049-.143a13.015,13.015,0,0,0,.1-2.762A2.216,2.216,0,0,1,20.1,13q0.025,1.857.049,3.714l0.147,0.048a1.4,1.4,0,0,0,.686-0.048C20.989,16.487,21.084,16.558,21.422,16.571Zm17.892,1.762c-0.057.114-.1,0.083-0.049,0.191,0.072,0.12.022,0.074,0.2,0.1a0.161,0.161,0,0,1,.049-0.1v-0.1A0.748,0.748,0,0,0,39.314,18.333Zm0.294,0a0.731,0.731,0,0,0-.049.238,0.788,0.788,0,0,0,.245.048,0.162,0.162,0,0,1,.049-0.1v-0.1A0.529,0.529,0,0,0,39.608,18.333ZM18.824,19.952v0.1h0.343v-0.1H18.824Zm-5.735.238V20.048l-0.931.048v0.1h0.931Zm0.2-.143a0.373,0.373,0,0,0-.147.143h0.147c0.234-.134.861,0.1,1.029-0.143H13.628A2.258,2.258,0,0,1,13.284,20.048Zm19.657,3.143v0.1H32.99V23.238h0.049A0.178,0.178,0,0,0,32.941,23.191Zm-1.177.524a0.5,0.5,0,0,0,.2.333,0.17,0.17,0,0,0,.049-0.1A0.559,0.559,0,0,0,31.765,23.714Zm-2.206,2.476a3.28,3.28,0,0,1-.49.1v0.1h0.2l0.49-.143V26.191h-0.2Zm-22.647.143a0.146,0.146,0,0,0,.2,0h-0.2Zm20.637,0.048a0.266,0.266,0,0,0,.294,0H27.549Z" transform="translate(-0.031 0.016)"/>
</svg>
