<svg xmlns="http://www.w3.org/2000/svg" width="40" height="40" viewBox="0 0 40 40">
  <defs>
    <style>
      .cls-1 {
        fill: #fff;
        fill-rule: evenodd;
      }
    </style>
  </defs>
  <path id="uk_vickers_mbt_mk_1_ico" class="cls-1" d="M10.883,11a0.119,0.119,0,0,1,.022.069H10.883V11Zm0.022,0.161a0.119,0.119,0,0,1,.023.069H10.905V11.161Zm10.95,0.115a0.083,0.083,0,0,1,.023.046H21.855V11.275Zm-10.927.046a0.119,0.119,0,0,1,.022.069H10.928V11.321ZM21.81,11.436a0.083,0.083,0,0,1,.023.046H21.81V11.436Zm-10.86.023a0.068,0.068,0,0,1,0,.092V11.459Zm3.89,6.286h0.067v0.321h0.135V18.043h0.022v-0.5h0.765v0.5a0.064,0.064,0,0,1,.022.023,2.018,2.018,0,0,1,.315.046V17.768a2.842,2.842,0,0,1,.765-0.023c0,0.218.043,0.3,0.045,0.5h0.18c0.012-.128.034-0.2,0.135-0.207a1.3,1.3,0,0,0,.045.184,0.715,0.715,0,0,1,.225-0.069,0.305,0.305,0,0,0,.09.161c0.019-.075-0.011-0.035.045-0.069a0.221,0.221,0,0,0,.18.092,1.073,1.073,0,0,0,.067-0.5c-0.122-.359-0.382-0.971.315-0.986v0.826l-0.225-.023v0.023a0.122,0.122,0,0,1,0,.115H18.3a1,1,0,0,0,.4.023,0.426,0.426,0,0,0,.023-0.138,1.844,1.844,0,0,0,.36.046,0.518,0.518,0,0,1-.045.3A0.342,0.342,0,0,0,19,17.791v0.023a1.333,1.333,0,0,0-.045.275c0.017,0.016.05,0.03,0.067,0.046a0.187,0.187,0,0,0-.067.206l0.067,0.023a1.037,1.037,0,0,0,.472.138l-0.023-.275a0.064,0.064,0,0,0,.023-0.023,0.607,0.607,0,0,0,.337-0.023,3.894,3.894,0,0,0,.36-1.147c0.288-.879.523-1.827,0.809-2.707a5.172,5.172,0,0,1,.292-1.009v0.092A4.712,4.712,0,0,0,21,14.441c-0.273.857-.476,1.787-0.764,2.638-0.092.273-.14,0.55-0.225,0.8a0.809,0.809,0,0,0-.045.344,0.477,0.477,0,0,1,.157.023,0.317,0.317,0,0,0-.113.023l-0.022.206h0.022V18.5a7.048,7.048,0,0,1,.9.3,0.245,0.245,0,0,0,.112.161c0.074,0.059.529,0.166,0.4,0.252h0.135a1.261,1.261,0,0,0,.7-0.115,2.787,2.787,0,0,0,.854.229V19.4a1.6,1.6,0,0,0,.382.321V19.81c1.359,0,2.631.091,3.935,0.092l1.034,0.023a0.8,0.8,0,0,0,.45-0.023h0.023V19.718a9.851,9.851,0,0,0,2.069,0v0.161h0.112v0.069h0.067a0.112,0.112,0,0,1,.022-0.069v0.069h7.667A3.624,3.624,0,0,1,40,19.9V20.59a3.618,3.618,0,0,1-1.124-.046H31.209a0.112,0.112,0,0,1-.022.069V20.544H31.119v0.069a10.2,10.2,0,0,1-2.293-.069l-1.6.069-1.416.023c-0.19.042-.479-0.025-0.7,0.023a9.493,9.493,0,0,1-1.709.023,3.277,3.277,0,0,1-.427.826,0.422,0.422,0,0,1-.292.069,1.613,1.613,0,0,0-.675-0.023v0.161a4.832,4.832,0,0,0,1.192-.138,1.761,1.761,0,0,1,.787.115l0.787-.023V21.6H24.89V21.439h0.36V21.6h0.09v0.092H25.25v0.275H25.3a0.175,0.175,0,0,1,.18-0.138,0.914,0.914,0,0,0,.27.459V22.31h0.022V22.287a0.083,0.083,0,0,0,.023-0.046,3.429,3.429,0,0,0,.337.229h0.225a0.46,0.46,0,0,1,.023.183,3.6,3.6,0,0,0,.562.367,0.079,0.079,0,0,1,.023-0.046c-0.032-.088-0.037-0.079-0.067-0.161h0.067V21.347H26.914a0.2,0.2,0,0,1-.023.115,0.767,0.767,0,0,1,.023-0.321v0.115l0.112,0.023v0.046a0.611,0.611,0,0,0-.045.39v1.124c0.066-.009.028-0.038,0.067,0.023H27.026v0.023h0.068v0.161a0.878,0.878,0,0,0,.562-0.367c0.165-.007.347-0.022,0.54-0.023a1.538,1.538,0,0,1,.023.413,1.639,1.639,0,0,1,1.327.551,0.688,0.688,0,0,1,.27.321c-0.168.084-.265,0.234-0.427,0.321a1.661,1.661,0,0,1-.2,1.835,2.993,2.993,0,0,1-1.416.619c-1.065.359-2.15,0.69-3.238,1.055-0.152.051-.336,0.14-0.495,0.183l-0.675.023H8.184a4.589,4.589,0,0,1-1.1-.023,8.631,8.631,0,0,1-1.057-.436C5.265,27.19,4.5,26.9,3.755,26.578a3.7,3.7,0,0,0-.4-0.161c-0.212-.06-0.382,0-0.562-0.069a2.182,2.182,0,0,1-.517-0.3A1.769,1.769,0,0,1,1.8,25.362a1.545,1.545,0,0,0-.09-0.321c-0.083.13-.251,0.052-0.27-0.092a0.568,0.568,0,0,0,.067-0.161,0.645,0.645,0,0,0-.292-0.206v0.459a0.139,0.139,0,0,0-.045.046H1.147V25.063A0.826,0.826,0,0,1,1.1,24.6c-0.558.016-.844-0.1-0.9-0.665A0.1,0.1,0,0,0,.27,23.87C-0.024,23.8.008,23.534,0.022,23.159A0.157,0.157,0,0,1,0,23.068H0.427A4.506,4.506,0,0,1,.36,21.989H0.4a0.292,0.292,0,0,1,.157-0.023L0.54,21.806a3.525,3.525,0,0,0,.9-0.069,0.11,0.11,0,0,1,0-.115c0.148-.093.567,0.007,0.72-0.069V21.507l0.2-.046c0.027,0.024-.007.087,0.067,0.069l0.022-.069H2.473l0.112,0.023c0.029-.009.018-0.056,0.09-0.046a2.306,2.306,0,0,0,.292.069,3.349,3.349,0,0,0,.495-0.046,0.6,0.6,0,0,1,.27-0.115v0.069H3.957V21.324h0.2l0.022,0.069,0.72-.069V21.255l0.2-.023V21.3a0.205,0.205,0,0,0,.225-0.069,0.35,0.35,0,0,1,.2-0.023,0.853,0.853,0,0,0,.562,0V21.117H6.138a0.541,0.541,0,0,1,.472.069,0.471,0.471,0,0,0,.022.161H6.678c0.009-.082-0.011-0.058.045-0.092a0.239,0.239,0,0,1,.135-0.023V21.072A0.238,0.238,0,0,1,7.015,21a1.771,1.771,0,0,0,.495,0c0.411-.095.94,0.033,1.349-0.069l1.349-.023c0.183-.042.464,0.025,0.675-0.023a2.764,2.764,0,0,1,.922,0,0.26,0.26,0,0,1,.135-0.046,7.376,7.376,0,0,0,.742.092v-0.39a5.967,5.967,0,0,1-.922-0.184c-0.22-.061-0.487-0.049-0.652-0.092a0.142,0.142,0,0,1,0,.138,0.409,0.409,0,0,1-.2.023,1.2,1.2,0,0,0-.45-0.023c-0.319,0-.666,0-0.922,0a1.08,1.08,0,0,1-.495-0.046c-0.352-.115-0.232-1.023-0.225-1.491a1.984,1.984,0,0,1,.517-0.023h1.124a2.031,2.031,0,0,1,.967-0.275c0.019,0.075-.011.035,0.045,0.069a1.538,1.538,0,0,0,.337-0.3,1.072,1.072,0,0,1,.045-0.39,5.682,5.682,0,0,0-.09-0.665c-0.239-.991-0.208-2.108-0.45-3.1-0.082-.336-0.058-0.678-0.135-0.986a0.611,0.611,0,0,1,0-.344,3.047,3.047,0,0,0,.112.78c0.1,0.359.068,0.742,0.157,1.078l0.45,3.258a2.015,2.015,0,0,0,.157.229,0.345,0.345,0,0,1,0,.138c0.044,0.021.125,0.077,0.157,0.092a1,1,0,0,0,.495-0.069c0.18-.043.694,0.039,0.832-0.023V18.3h0.337q0.011-.275.022-0.551h0.2v0.184H14.12a0.162,0.162,0,0,1,.18-0.092,0.112,0.112,0,0,1,.022-0.069,1.134,1.134,0,0,1,.45-0.023c0-1.449.023-2.987,0.023-4.474V12.078a1.334,1.334,0,0,1,.022-0.482ZM21.765,11.6a0.083,0.083,0,0,1,.023.046H21.765V11.6Zm-10.792.023a0.068,0.068,0,0,1,0,.092V11.619Zm10.77,0.046a0.084,0.084,0,0,1,.022.046H21.743V11.665Zm-0.023.092a0.084,0.084,0,0,1,.023.046H21.72V11.757Zm-10.725.023a0.094,0.094,0,0,1,0,.115V11.78Zm10.7,0.046a0.083,0.083,0,0,1,.022.046H21.7V11.826Zm-0.023.092a0.083,0.083,0,0,1,.023.046H21.675V11.918Zm-10.658.023a0.094,0.094,0,0,1,0,.115V11.941Zm10.635,0.046a0.083,0.083,0,0,1,.023.046H21.653V11.987Zm-0.023.069a0.119,0.119,0,0,1,.023.069H21.63V12.055Zm-10.59.023a0.123,0.123,0,0,1,0,.138V12.078Zm10.568,0.069a0.083,0.083,0,0,1,.022.046H21.608V12.147Zm-0.022.069a0.118,0.118,0,0,1,.022.069H21.585V12.216Zm-10.523.023a0.123,0.123,0,0,1,0,.138V12.239Zm10.5,0.046a0.119,0.119,0,0,1,.023.069H21.563V12.285Zm-0.023.092a0.119,0.119,0,0,1,.023.069H21.54V12.377ZM11.085,12.4a0.123,0.123,0,0,1,0,.138V12.4Zm10.433,0.046a0.119,0.119,0,0,1,.022.069H21.518V12.445Zm-0.023.092a0.119,0.119,0,0,1,.023.069H21.5V12.537Zm-10.388.023a0.123,0.123,0,0,1,0,.138V12.56Zm10.365,0.046a0.118,0.118,0,0,1,.023.069H21.473V12.606Zm-0.022.069a0.068,0.068,0,0,1,0,.092V12.675ZM11.13,12.7a0.157,0.157,0,0,1,0,.161V12.7Zm10.3,0.069a0.119,0.119,0,0,1,.022.069H21.428V12.767Zm-0.023.069a0.068,0.068,0,0,1,0,.092V12.835Zm-0.023.092a0.119,0.119,0,0,1,.023.069H21.383V12.927ZM21.36,13a0.137,0.137,0,0,1-.022.16Zm-0.045.16a0.137,0.137,0,0,1-.022.161ZM18.977,18.2h0.045v0.023A0.077,0.077,0,0,1,18.977,18.2Z" transform="translate(0 0.5)"/>
</svg>
