<svg xmlns="http://www.w3.org/2000/svg" width="40" height="40" viewBox="0 0 40 40">
  <defs>
    <style>
      .cls-1 {
        fill: #fff;
        fill-rule: evenodd;
      }
    </style>
  </defs>
  <path id="uk_valentine_mk_9_ico" class="cls-1" d="M14.266,17.195V9.4a1.751,1.751,0,0,1,.027-0.631c0.008,2.8.026,5.717,0.027,8.563H14.4l0.027,0.384h0.163a0.2,0.2,0,0,0,.082.22V17.606c0.387,0,.646.012,1.005,0l0.272-.027a3.961,3.961,0,0,0,.951,0,1.319,1.319,0,0,0-.027-0.384h0.109v-0.11a3.024,3.024,0,0,1,1.141.137,0.836,0.836,0,0,0-.027.357,0.422,0.422,0,0,0,.19,0c0.069-.04.042-0.012,0.054-0.11a2.921,2.921,0,0,0,.951-0.055l1.413,0.055v0.137c0.17-.012.367-0.027,0.571-0.027a1.319,1.319,0,0,0-.027-0.384h0.462a1.452,1.452,0,0,1,.6-0.11l-0.027.247h0.489v0.055a0.658,0.658,0,0,0-.081.247h0.326a3.073,3.073,0,0,0,.435.027,1.052,1.052,0,0,1,.136.137,0.2,0.2,0,0,0,.136-0.082l0.652,0.055v0.22a4.884,4.884,0,0,1,1.087.082,2.711,2.711,0,0,1,.707-0.055l-0.027.082h0.272c0.066,0.1.214,0.128,0.272,0.22a2.211,2.211,0,0,1,.054.412c0.033,0.1.106,0.23,0.136,0.357a0.619,0.619,0,0,1-.38.631v0.055h2.989a2.869,2.869,0,0,0,.679.027,13.605,13.605,0,0,0,2.283.027c2.517,0,5.065.029,7.554,0.027v0.768H38.967a0.281,0.281,0,0,0-.217-0.055,5.649,5.649,0,0,1-.978.027H35.054a5.659,5.659,0,0,1-1.033.027H31.929c-1.784,0-3.512.08-5.326,0.082V20.79c-0.1.07-.143,0.208-0.245,0.274s-0.258.059-.353,0.137a0.473,0.473,0,0,1-.571.329v0.055H25.408v0.027a1.445,1.445,0,0,0,.19.055,4.6,4.6,0,0,1,1.169-.055l0.109,0.137,0.679,0.027,0.054-.329a3.507,3.507,0,0,1,.815.165v0.027l-0.081.3H28.4a1.413,1.413,0,0,0,.217.11c0.023-.089-0.013-0.042.054-0.082A0.234,0.234,0,0,0,28.8,22v0.11a0.647,0.647,0,0,1,.326.082,1.426,1.426,0,0,1,.027.549h0.38a2.253,2.253,0,0,0,.136.933,0.3,0.3,0,0,1,.054-0.082,0.93,0.93,0,0,0,.706.11l0.082-.11,1.223-.027-0.027-.439,0.815-.027V23.15a1.331,1.331,0,0,0-.136.549h0.054a1.026,1.026,0,0,1,.734-0.247,0.288,0.288,0,0,1,.054.165,0.187,0.187,0,0,1,.027.11,1.783,1.783,0,0,1,1.141.467,3.775,3.775,0,0,0,.3.384,0.078,0.078,0,0,1-.027.027,1.862,1.862,0,0,1-.489.439,0.093,0.093,0,0,0,.027.055,2.105,2.105,0,0,0,.244.329,4.508,4.508,0,0,1,.217.768,0.776,0.776,0,0,1-.027.3l-0.027.6a2.715,2.715,0,0,1-.571.933c-0.927,1.054-2.186,1.4-3.587,1.976a21.329,21.329,0,0,1-3.451.961L20.544,31H6.44A12.024,12.024,0,0,1,3.1,29.491C2.139,28.9,1.035,28.413.571,27.322,0.562,27.3.5,27.255,0.489,27.24A3.564,3.564,0,0,1,.38,25.9a5.439,5.439,0,0,0,.3-0.768A2.773,2.773,0,0,1,0,24.715c0.144-.185.216-0.419,0.353-0.6a2.21,2.21,0,0,1,1.576-.686V23.178H1.984a0.242,0.242,0,0,0,.054.247,10.967,10.967,0,0,1,1.223,0l0.027-.165a3.328,3.328,0,0,1,.842-0.466,0.272,0.272,0,0,0,.217.165A0.7,0.7,0,0,0,4.783,22.6a0.617,0.617,0,0,1-.109-0.247l0.19-.11A0.541,0.541,0,0,0,5,22.492a2,2,0,0,0,.516-0.3,0.382,0.382,0,0,1-.054-0.3,1.972,1.972,0,0,1,.87-0.467l0.136,0.165A5.166,5.166,0,0,1,7.12,21.2a0.288,0.288,0,0,1,.136.165c0.22-.1.429-0.171,0.707-0.274a1.647,1.647,0,0,1,.707.055v-0.11a1.881,1.881,0,0,1,.516-0.027v0.137H9.321v0.247a1.682,1.682,0,0,0,.353-0.027c-0.005-.181.015-0.218,0.19-0.22a0.134,0.134,0,0,1,.027-0.082,1.221,1.221,0,0,1,.489-0.027v0.11a0.819,0.819,0,0,1,.19.027c0.031,0.21.073,0.235,0.326,0.22a0.1,0.1,0,0,1,.054-0.027c-0.005-.181.015-0.218,0.19-0.22a0.134,0.134,0,0,1,.027-0.082,1.221,1.221,0,0,1,.489-0.027v0.11a0.818,0.818,0,0,1,.19.027c0.054,0.191.038,0.233,0.3,0.22a0.306,0.306,0,0,1,.136-0.247,0.182,0.182,0,0,1,.109-0.027,0.133,0.133,0,0,1,.027-0.082,1.221,1.221,0,0,1,.489-0.027v0.11l0.163,0.027c0.069,0.184.05,0.26,0.326,0.247a0.1,0.1,0,0,1,.054-0.027,0.655,0.655,0,0,1,.027-0.22l0.163-.027a0.133,0.133,0,0,1,.027-0.082,0.183,0.183,0,0,1,.109-0.027,3.148,3.148,0,0,0,.38,0v0.11a0.194,0.194,0,0,1,.19.082c0.021,0.033.033,0.132,0.054,0.165a0.5,0.5,0,0,0,.244.027,0.1,0.1,0,0,1,.054-0.027c-0.005-.137-0.015-0.179.082-0.22a0.182,0.182,0,0,1,.109-0.027,0.133,0.133,0,0,1,.027-0.082,1.221,1.221,0,0,1,.489-0.027v0.11l0.163,0.027c0.034,0.067.01,0.177,0.054,0.274a0.651,0.651,0,0,1,.217.384,0.39,0.39,0,0,0,.245-0.055,0.37,0.37,0,0,1,.19.027c0.07-.047.1-0.114,0.163-0.165V21.586H15.9a0.638,0.638,0,0,0-.217-0.6,3.268,3.268,0,0,0-1.386-.137,0.709,0.709,0,0,1-.109-0.247,1.681,1.681,0,0,1-.027-0.631H14.049v-0.11H13.016c-0.432-.12-0.879-0.327-1.332-0.439a1.309,1.309,0,0,0-.109-0.274,4.243,4.243,0,0,0,.353-1.262h0.082a1.714,1.714,0,0,1,0-.3h0.027l1.63,0.549a0.149,0.149,0,0,1-.082.11V18.21H13.56v0.027a0.869,0.869,0,0,0-.081.192h0.19A0.138,0.138,0,0,1,13.75,18.4V17.743a0.494,0.494,0,0,1,.163-0.027,1.565,1.565,0,0,1,.245-0.521V8.768A2.173,2.173,0,0,1,14.185,8c0.006,2.089.027,4.289,0.027,6.422v1.866a3.606,3.606,0,0,1-.027.906h0.082Z" transform="translate(0 0.5)"/>
</svg>
