<svg xmlns="http://www.w3.org/2000/svg" width="40" height="40" viewBox="0 0 40 40">
  <defs>
    <style>
      .cls-1 {
        fill: #fff;
        fill-rule: evenodd;
      }
    </style>
  </defs>
  <path id="Color_Fill_1" data-name="Color Fill 1" class="cls-1" d="M10.977,12a0.18,0.18,0,0,1,.05.1h-0.05V12Zm3.807,0.2a0.266,0.266,0,0,1,0,.3V12.2Zm-3.758.149a0.256,0.256,0,0,1,.049.149H11.026V12.349ZM21.459,12.6a0.18,0.18,0,0,1,.049.1H21.459V12.6Zm-10.383.05a0.146,0.146,0,0,1,0,.2v-0.2Zm3.758,3.24a1.128,1.128,0,0,0,.643.1,0.584,0.584,0,0,1,.494-0.2l0.05,0.1h0.346a0.7,0.7,0,0,0,.1.15,3.586,3.586,0,0,0,1.73-.15,1.392,1.392,0,0,0,.494.2v0.05H18.344c-0.134.075-.494-0.014-0.692,0.05v0.05c0.161,0.041.076-.024,0.148,0.1H17.75a4.167,4.167,0,0,0-.791,0l0.05,0.1h-0.05c-0.116.075-.339-0.02-0.494,0.05l-0.2.249a1.149,1.149,0,0,1-.742.05v0.847a0.707,0.707,0,0,0,.495.249c0.089-.209.293-0.12,0.593-0.1v-0.2h0.346a2.385,2.385,0,0,0,.05.7,0.169,0.169,0,0,0,.1-0.05,0.574,0.574,0,0,0,.1-0.149,0.3,0.3,0,0,0,.346.1,0.242,0.242,0,0,0,.05.149,0.287,0.287,0,0,1,.247.05,3.4,3.4,0,0,0,.1-0.548H18.69c0.041-.162-0.024-0.076.1-0.15a1.66,1.66,0,0,0,.94.15v0.4h0.1v-0.1c0.408-.559.262-1.6,0.692-2.143v0.2a6.689,6.689,0,0,0-.544,2.343,4.176,4.176,0,0,1,.791.249,0.411,0.411,0,0,1,.445,0c0.208,0.29.1,0.466,0.643,0.449a3.418,3.418,0,0,1,0-.5,3.492,3.492,0,0,1,1.78-.05v0.05h0.049v0.149c-0.16.041-.076-0.024-0.148,0.1h0.148c0.041,0.162-.024.076,0.1,0.149,0.352-.537.787-0.181,1.236-0.3,0.016,0.117.633,0.843,0.4,1h0.593a2.487,2.487,0,0,0,.939.05l1.928,0.05v-0.05h0.049V19.726h2.027v0.149c1.872,0.17,4.406.049,6.527,0.05,0.55,0,1.954.126,2.077-.149-0.125-.073-0.076-0.022-0.1-0.2a0.988,0.988,0,0,1,.346.05c-0.057.12-.1,0.086-0.049,0.2,0.066,0.061.177,0.091,0.247,0.15a1.365,1.365,0,0,0-.049.6c-3.917,0-8.186-.014-11.718,0a17.228,17.228,0,0,0-3.56.149c-0.4.1-.959-0.207-1.285,0.05a1.207,1.207,0,0,1-.742.8A1.48,1.48,0,0,0,22,21.52v0.15c0.47,0,.741-0.094,1.137-0.1a8.108,8.108,0,0,0,1.73,0V21.421h0.346c0.042,0.226.066,0.2,0.1,0.4-0.129.019-.065-0.037-0.1,0.1h0.1c0.072-.127-0.011-0.056.148-0.1a1.575,1.575,0,0,0,.2.449c0.688,0.022.631,0.477,1.236,0.648,0.009-.18-0.073-0.1.1-0.149a1.551,1.551,0,0,0,.148.249c0.038-.034.11-0.065,0.148-0.1a1.058,1.058,0,0,0,0-.4,0.692,0.692,0,0,0,.148-0.249h0.4v0.249a0.238,0.238,0,0,0-.148.05h0.494v0.449a1.571,1.571,0,0,1,1.582.9,3.5,3.5,0,0,0-.4.3,1.77,1.77,0,0,1-.1,1.695,2.829,2.829,0,0,1-1.483.7c-1.057.39-2.151,0.68-3.263,1.047-1.58.521-4.824,0.249-6.873,0.249H10.433a16.564,16.564,0,0,1-3.412-.05A30.338,30.338,0,0,1,3.56,26.405a10.588,10.588,0,0,1-1.088-.249,2.259,2.259,0,0,1-.593-0.6,1.248,1.248,0,0,0-.247-0.548c-0.094.047-.058,0.019-0.2,0a1.142,1.142,0,0,0-.1-0.5H1.187v0.5h-0.1V24.561a0.8,0.8,0,0,1-.791-0.3,0.838,0.838,0,0,1-.049-0.449C0.209,23.753.035,23.766,0,23.713v-0.7H0.445v-0.05a2.059,2.059,0,0,1-.1-1H0.4v-0.05H0.544V21.77l0.89-.05a0.168,0.168,0,0,1,0-.149,5.108,5.108,0,0,0,1.137-.149l0.643,0.05c0.315-.076.5-0.1,0.692-0.149a6.577,6.577,0,0,0,.939,0l0.049-.1,0.4,0.05v-0.1l0.692,0.05a0.407,0.407,0,0,1,.3-0.149H6.428c0.058,0.027-.027.064,0.148,0.1,0.041,0.162-.024.076,0.1,0.15,0.072-.127-0.011-0.056.148-0.1V21.072l0.1-.05a11.907,11.907,0,0,1,1.335-.05c0.4-.1,1.024.062,1.483-0.05a9.849,9.849,0,0,1,2.027-.1,0.242,0.242,0,0,0,.05.15v-0.15l0.841,0.1v-0.4a3.435,3.435,0,0,0-1.582-.15c-0.041-.162.024-0.076-0.1-0.149v0.149a0.169,0.169,0,0,1,.1.05H9.147a0.577,0.577,0,0,0-.247-0.1,4.35,4.35,0,0,1-.1-1.446,6.673,6.673,0,0,0,2.225-.249,0.969,0.969,0,0,0,.742-0.2v-0.3a1.017,1.017,0,0,0-.049-0.648c-0.168-.726-0.141-1.463-0.3-2.143a1.242,1.242,0,0,1,0-.7,11.149,11.149,0,0,0,.4,2.692,2.51,2.51,0,0,0,.247,1,4.434,4.434,0,0,0,1.829-.05l0.049-.548h0.05c0.179,0.109.585,0.046,0.742,0.149v-1.1a0.4,0.4,0,0,1,.05-0.349,0.273,0.273,0,0,1-.148-0.2h-0.3v-0.1c0.705-.042.45-2.444,0.445-3.389h0.049v3.14Zm6.576-3.14a0.255,0.255,0,0,1,.05.149h-0.05V12.748Zm-10.284.2a0.265,0.265,0,0,1,0,.3v-0.3Zm10.235,0a0.18,0.18,0,0,1,.049.1H21.36v-0.1Zm-0.049.15a0.256,0.256,0,0,1,.049.149H21.31V13.1Zm-0.05.149a0.256,0.256,0,0,1,.05.149h-0.05V13.246Zm-10.086.05a0.266,0.266,0,0,1,0,.3V13.3Zm10.037,0.15a0.256,0.256,0,0,1,.049.15H21.211v-0.15Zm-9.988.15a0.338,0.338,0,0,1,0,.349V13.6Zm9.938,0a0.255,0.255,0,0,1,.05.149h-0.05V13.6Zm-0.049.149a0.147,0.147,0,0,1,0,.2v-0.2Zm-9.839.2a0.338,0.338,0,0,1,0,.349V13.944Zm9.79,0a0.255,0.255,0,0,1,.05.15h-0.05v-0.15Zm-0.049.15a0.146,0.146,0,0,1,0,.2v-0.2Zm-9.691.2a0.338,0.338,0,0,1,0,.349V14.293Zm9.642,0a0.256,0.256,0,0,1,.049.15H20.964v-0.15Zm-0.05.15a0.3,0.3,0,0,1-.049.349Zm-0.1.349a0.294,0.294,0,0,1-.049.349Zm-0.1.349a0.512,0.512,0,0,1-.1.5Zm-0.148.5a0.3,0.3,0,0,1-.049.349Zm-3.609.5a0.543,0.543,0,0,0,.346.05h0.05v-0.05h-0.4Zm0.494,0v0.1H17.5A0.17,0.17,0,0,0,17.454,16.137Zm-2.126.648h-0.2a0.53,0.53,0,0,1-.1-0.249,0.237,0.237,0,0,0,.148-0.05H15.13v-0.05l-0.148.05a3.5,3.5,0,0,0-.148,1.4h0.05a0.342,0.342,0,0,1,.247,0A5.461,5.461,0,0,0,15.328,16.785Zm0-.349v0.1a0.9,0.9,0,0,0,.3.05v-0.05h0.05v-0.05Zm0.692,0.05v0.1l0.2-.05v-0.05h-0.2Zm3.461,1.894a0.894,0.894,0,0,0-.445.05l0.445,0.1V18.38Zm-8.5.349a0.178,0.178,0,0,0,.1.05A0.177,0.177,0,0,0,10.977,18.729Zm-0.247.05c-0.043.032-.155,0.067-0.2,0.1h0.346v-0.05h0.05v-0.05h-0.2Zm0.247,0.1v0.3h0.1v-0.1a0.338,0.338,0,0,0,.049-0.2H10.977Zm-1.78.05H8.9a0.711,0.711,0,0,0-.049.2H8.9c0.081-.193.115-0.124,0.3-0.05v-0.15Zm0.1,0v0.249a0.71,0.71,0,0,1,.346.1V18.928H9.3Zm0.544,0v0.4h0.3V18.978h-0.05v-0.05H9.839Zm0.346,0.349a0.622,0.622,0,0,0,.2-0.05,0.922,0.922,0,0,1-.05-0.3h-0.1v0.05A0.544,0.544,0,0,0,10.185,19.277Zm0.593-.15v-0.2h-0.3v0.1A0.368,0.368,0,0,0,10.779,19.128Zm-0.346,0v0.1h0.05A0.172,0.172,0,0,0,10.433,19.128Zm0.544,0.1v0.1h0.1v-0.1h-0.1Zm12.559,0.05a0.242,0.242,0,0,0,.05.149v-0.05a0.18,0.18,0,0,0,.049-0.1h-0.1Zm-12.509.4a0.61,0.61,0,0,0,0,.449A0.783,0.783,0,0,0,11.026,19.676Zm-0.148.349c-0.16.041-.075-0.024-0.148,0.1l0.148,0.05v-0.15Zm-0.3.1a0.418,0.418,0,0,0-.1.149h-0.05v0.05h0.445v-0.1A1.308,1.308,0,0,1,10.581,20.125Zm-0.4.149c0.085,0.044.063,0.044,0.148,0H10.185Zm-4.054.847a0.2,0.2,0,0,0,.247,0H6.131Zm21.261,1.4a0.242,0.242,0,0,0,.049.15,0.57,0.57,0,0,1,.148-0.1v-0.05h-0.2Zm-1.038.15v0.1a0.66,0.66,0,0,1,.2.1v-0.1A0.663,0.663,0,0,1,26.354,22.667Zm1.681,0.05v0.3h0.1v-0.3h-0.1Zm-0.544.05v0.1H27.54A0.171,0.171,0,0,0,27.491,22.766Zm-0.84.149a0.191,0.191,0,0,0,.148.1A0.57,0.57,0,0,0,26.65,22.916Zm0.3,0a0.178,0.178,0,0,0,.1.05A0.177,0.177,0,0,0,26.947,22.916Zm-26.551,1v0.1a0.521,0.521,0,0,0,.247.1v-0.1A1.057,1.057,0,0,1,.4,23.913Zm28.48,0.7a0.877,0.877,0,0,0-.148.2,0.7,0.7,0,0,1,.247.05V24.611h-0.1Zm-0.1.5c-0.035.176-.061,0.124-0.1,0.3a0.742,0.742,0,0,0,.2.1,2.8,2.8,0,0,0,.1-0.349A0.3,0.3,0,0,1,28.776,25.109Zm-0.445.449c-0.042.163-.1,0.2-0.148,0.349h0.1a0.768,0.768,0,0,0,.346-0.249l-0.148-.05A0.251,0.251,0,0,0,28.331,25.558Zm-0.791.3c0.091,0.124.3,0.222,0.4,0.05A1.668,1.668,0,0,1,27.54,25.857Zm-0.346.05-0.247.4h0.1c0.119-.09.329-0.106,0.445-0.2A2.887,2.887,0,0,1,27.194,25.907Zm-21.211.548H5.142V26.5h0.1a2.615,2.615,0,0,0,.841.349v-0.1A0.521,0.521,0,0,1,5.983,26.455Zm2.818,0a1.264,1.264,0,0,1-.445.847H9.642v-0.05C9.3,26.986,9.427,26.452,8.8,26.455Zm3.263,0a2.124,2.124,0,0,1-.445.847h1.236v-0.05a1.354,1.354,0,0,1-.445-0.8H12.064Zm3.214,0a2.124,2.124,0,0,1-.445.847h1.385v-0.05C15.836,26.934,16.03,26.439,15.278,26.455Zm3.362,0a1.661,1.661,0,0,1-.445.847h1.285v-0.05C19.135,26.986,19.266,26.452,18.64,26.455Zm3.263,0a2.179,2.179,0,0,1-.445.847h1.236v-0.05a1.23,1.23,0,0,1-.445-0.8H21.9Zm3.214,0a1.991,1.991,0,0,1-.2.5h0.148c0.367-.273,1.024-0.212,1.384-0.5H25.117Zm-18.442.3a0.635,0.635,0,0,0,.049.2h0.1V26.8Zm1.335,0a0.709,0.709,0,0,0-.049.2h0.1V26.9a0.256,0.256,0,0,0,.049-0.149H8.01Zm1.879,0v0.1a0.3,0.3,0,0,1,.1.1h0.1v-0.1A0.742,0.742,0,0,0,9.889,26.754Zm1.384,0a0.75,0.75,0,0,0-.1.2h0.1a0.758,0.758,0,0,0,.1-0.2h-0.1Zm1.829,0v0.1a0.3,0.3,0,0,1,.1.1h0.1v-0.1A0.744,0.744,0,0,0,13.1,26.754Zm1.384,0a0.757,0.757,0,0,0-.1.2h0.1a0.752,0.752,0,0,0,.1-0.2h-0.1Zm2.027,0a0.632,0.632,0,0,0,.05.2h0.1V26.8Zm1.335,0c-0.053.148-.1,0.178,0.049,0.149a0.255,0.255,0,0,0,.05-0.149h-0.1Zm1.879,0v0.1a0.3,0.3,0,0,1,.1.1h0.1v-0.1A0.743,0.743,0,0,0,19.728,26.754Zm1.384,0a0.75,0.75,0,0,0-.1.2h0.1a0.758,0.758,0,0,0,.1-0.2h-0.1Zm1.829,0v0.1a0.3,0.3,0,0,1,.1.1h0.1v-0.1A0.742,0.742,0,0,0,22.942,26.754Zm1.384,0a0.757,0.757,0,0,0-.1.2h0.1a0.752,0.752,0,0,0,.1-0.2h-0.1Zm-17.009.3c0,0.138-.057.108,0.148,0.149l0.049-.1H7.466v-0.05H7.318Zm3.214,0,0.05,0.149a0.169,0.169,0,0,0,.1-0.05,0.18,0.18,0,0,0,.049-0.1h-0.2Zm3.214,0L13.795,27.2a0.169,0.169,0,0,0,.1-0.05,0.179,0.179,0,0,0,.049-0.1h-0.2Zm3.56,0.149V27.053a0.623,0.623,0,0,0-.2.05v0.05h0.049A0.251,0.251,0,0,0,17.305,27.2Zm3.066-.149L20.42,27.2a0.169,0.169,0,0,0,.1-0.05,0.18,0.18,0,0,0,.049-0.1h-0.2Zm3.214,0L23.634,27.2a0.169,0.169,0,0,0,.1-0.05,0.179,0.179,0,0,0,.049-0.1h-0.2Z"/>
</svg>
