<svg xmlns="http://www.w3.org/2000/svg" width="40" height="40" viewBox="0 0 40 40">
  <defs>
    <style>
      .cls-1 {
        fill: #fff;
        fill-rule: evenodd;
      }
    </style>
  </defs>
  <path id="uk_vickers_mk7_ico" class="cls-1" d="M7.7,13a3.486,3.486,0,0,1,.022.876v2.107A3.159,3.159,0,0,1,7.7,16.8V13Zm4.119,4.59a0.424,0.424,0,0,1,.086-0.209c0.109-.31-0.157-0.809.151-0.918a1.7,1.7,0,0,1,.884-0.021,1.148,1.148,0,0,1,.129.146,0.431,0.431,0,0,1,.022.209h1.488a0.283,0.283,0,0,1,.065.23,1.306,1.306,0,0,0,.367.042V17.027H14.943a9.362,9.362,0,0,1,.043-1.085H15.03a2.763,2.763,0,0,1,.841,0L15.892,16a4.034,4.034,0,0,1,.021.855,0.355,0.355,0,0,0-.086.167,3.951,3.951,0,0,1,1.207.584,16.385,16.385,0,0,1-.043.084,4.046,4.046,0,0,0-.733-0.355,0.418,0.418,0,0,0-.216-0.063,1.444,1.444,0,0,0-.172.334h0.172V17.9a5.159,5.159,0,0,1,.841.125c0.466,0.105.94,0.089,1.38,0.188a2.781,2.781,0,0,0,.539.063,0.382,0.382,0,0,1,.129-0.042c0.006,0,.088.057,0.108,0.063,0.351,0.093.684,0.076,1.013,0.188,0.1,0.035.176,0.156,0.259,0.188l0.172-.021c0.048,0.016.069,0.063,0.129,0.084a0.259,0.259,0,0,1,.216-0.146,0.457,0.457,0,0,0,.194.083,0.528,0.528,0,0,1,.172.229,0.3,0.3,0,0,0-.086.042,0.427,0.427,0,0,1,.151.271l-0.129.063V19.3H21.8v0.146h-0.41v0.021h0.022a5.206,5.206,0,0,0,.841.042,5.583,5.583,0,0,0,1.143.042l1.811,0.021,4.658,0.042H31.2a3.976,3.976,0,0,0,.819-0.042l0.6,0.021a13.1,13.1,0,0,0,1.639-.042,1.263,1.263,0,0,0,.5.083l2.027,0.021a6.358,6.358,0,0,1,1.164.021,3.965,3.965,0,0,0,.97-0.042,0.539,0.539,0,0,1-.28-0.188h1.186c0.013,0.1.049,0.149,0.065,0.25H40v0.584c-0.894-.005-1.6.042-2.5,0.042a9.544,9.544,0,0,0-1.639.021H35.385a5.645,5.645,0,0,0-1.057.063l-0.259-.021H33.057c-0.954,0-1.8-.021-2.8-0.021l-6.426.042a6.635,6.635,0,0,1-1.186.021c-0.282,0-.476.04-0.733,0.042l-0.259.584h-1.66v0.167c0.332,0,.706.061,1.078,0.063a0.23,0.23,0,0,1,.259-0.1,0.979,0.979,0,0,0,.5.021l-0.022.167a0.33,0.33,0,0,0,.129-0.083l0.561-.021V21.6a1.039,1.039,0,0,1,.388.084l0.6,0.083V21.638h0.194v0.209a1.781,1.781,0,0,0,.431.021V21.8H24.043V21.721h0.194v0.188a0.96,0.96,0,0,1,.323.063c0.118,0.027.214-.035,0.3,0a1.638,1.638,0,0,0,.561.083,0.134,0.134,0,0,1,0-.1c0.024-.06,0-0.038.065-0.063a1.177,1.177,0,0,1,.216-0.021V21.93a0.45,0.45,0,0,1,.194.042c-0.008.064-.053,0.122,0.021,0.167l0.022-.063a0.884,0.884,0,0,0,.474.1,0.15,0.15,0,0,1,.129-0.1,0.152,0.152,0,0,0,.108.063,0.209,0.209,0,0,1,.086-0.209,0.164,0.164,0,0,1,.173.021,1.988,1.988,0,0,1,.022.271,1.669,1.669,0,0,0,.28.042c0.026,0.04.088,0.069,0.108,0.1a0.377,0.377,0,0,0,.022.125l0.129,0.042a1.1,1.1,0,0,0,.216.355,0.192,0.192,0,0,1,.108-0.021,1.548,1.548,0,0,1-.022.417l-0.129.1c-0.1,0-.237-0.033-0.259-0.021a0.636,0.636,0,0,0-.216.209c0.076,0.015.053,0.026,0.129,0.042,0.005,0.183,0,.333,0,0.522a0.269,0.269,0,0,0-.151.063,0.138,0.138,0,0,1,.043.146,0.615,0.615,0,0,1-.28.376,0.312,0.312,0,0,1-.151,0v0.042a0.605,0.605,0,0,1,0,.1,2.857,2.857,0,0,0-.367.334,0.68,0.68,0,0,0-.172-0.042v0.042a0.153,0.153,0,0,1,0,.125c-0.1.119-.257,0.186-0.345,0.313a0.937,0.937,0,0,1-.173-0.021,0.8,0.8,0,0,1-.367.48c-0.079-.012-0.093-0.008-0.172-0.021v0.042a0.127,0.127,0,0,1,0,.1c-0.094.136-.265,0.206-0.367,0.334-0.078-.024-0.094-0.021-0.172-0.042a0.175,0.175,0,0,1-.021.167,0.961,0.961,0,0,1-.625.188v0.063l-0.539.021V26.9a0.288,0.288,0,0,0-.173.063,1.575,1.575,0,0,1-.561-0.021c-0.5-.015-0.846.022-1.38,0.021-0.018-.068.011-0.032-0.043-0.063v0.063H20.615c-0.018-.068.011-0.032-0.043-0.063v0.063H19.9V26.917H19.86a4.782,4.782,0,0,1-1.38.021,2.159,2.159,0,0,1-.733-0.042v0.063c-0.332,0-.636,0-0.863,0a5.075,5.075,0,0,0-.561,0h-0.41a7.424,7.424,0,0,0-.992,0c-0.487.082-1-.071-1.423,0a1.4,1.4,0,0,1-.668-0.042H12.787v0.042H12.55a0.76,0.76,0,0,1-.431-0.042c-0.028-.013-0.034.039-0.043,0.042H11.407c-0.662-.067-1.441.082-2.135-0.021-0.126-.019-0.394.021-0.561,0.021a17.755,17.755,0,0,1-2.264-.021c-0.015,0-.085.02-0.129,0.021a1.717,1.717,0,0,1-.6-0.063v0.063c-0.21,0-.422-0.013-0.6-0.021,0.011-.088,0,0-0.065-0.063,0.017-.055.042-0.052-0.022-0.083a0.251,0.251,0,0,1-.216.063A2.74,2.74,0,0,0,4.4,26.6a0.175,0.175,0,0,0-.022-0.167,0.241,0.241,0,0,1-.129.021c-0.088-.128-0.3-0.2-0.367-0.334a0.786,0.786,0,0,1-.022-0.167,0.238,0.238,0,0,1-.129.021A1.722,1.722,0,0,1,3.342,25.6a0.164,0.164,0,0,0-.022-0.125,0.169,0.169,0,0,1-.129,0l-0.367-.313a0.227,0.227,0,0,0-.043-0.146,0.681,0.681,0,0,1-.108,0,1.3,1.3,0,0,1-.345-0.334c-0.048-.08.037-0.129-0.043-0.167A0.241,0.241,0,0,0,2.156,24.5l-0.022-.125L1.941,24.35a0.623,0.623,0,0,1-.388.438,0.692,0.692,0,0,1-.194-0.167c-0.025-.039,0-0.113-0.022-0.167s-0.1-.123-0.129-0.188H1.186v0.626H1.143V24.1A1.432,1.432,0,0,1,1.1,23.7a3.6,3.6,0,0,0-.151-0.772,1.267,1.267,0,0,0-.323-0.313,2.547,2.547,0,0,1-.453-0.584A1.958,1.958,0,0,1,.065,21.8a0.871,0.871,0,0,1,.5-1.106c0.164-.061.387,0,0.561-0.063a0.358,0.358,0,0,1,.194-0.063c0.018,0.068-.011.032,0.043,0.063a0.235,0.235,0,0,1,.173.021c0.326-.005.832,0,1.229,0l0.561,0.021a1.97,1.97,0,0,1,.97,0c0.211,0.055.344-.084,0.539-0.042,0.024,0.005.277,0.028,0.3,0.042l0.022,0.063L5.3,20.762V20.8H5.348a0.2,0.2,0,0,1,.108-0.021v0.042H5.5a0.064,0.064,0,0,1,.086-0.042,0.358,0.358,0,0,0,.3.125c0.1-.165.213,0.045,0.431-0.021,0.025-.008.019-0.059,0.086-0.042a0.4,0.4,0,0,0,.3.063V20.866l0.345,0.083a2.2,2.2,0,0,0,.712-0.021V20.866c0.089-.025.157-0.083,0.237-0.1a1.674,1.674,0,0,1,.582.021c0.274,0.058.571-.011,0.819,0.042,0.326,0.069.586-.053,0.582,0.334a0.974,0.974,0,0,1,.41.125L11.6,21.325V21.262c0.217,0,.328-0.038.518-0.042V21.054H11.364l-0.6-.605H10.437L6.62,20.01V19.864H6.534V19.781H6.447a3.754,3.754,0,0,0-.022-0.688H6.383a0.132,0.132,0,0,1-.022.083V19.03H6.426V18.988a1.04,1.04,0,0,0,.022-0.417c0.1-.011.077-0.029,0.172-0.042V18.362l0.237-.042V18.237l0.712-.1a0.931,0.931,0,0,1,.065-0.271,0.553,0.553,0,0,0-.043-0.188,4.7,4.7,0,0,1,.086-0.709,0.075,0.075,0,0,1,.043.021,1.29,1.29,0,0,1,.043.48,0.4,0.4,0,0,1,.043.209,0.9,0.9,0,0,0-.043.188,1.431,1.431,0,0,1,.065.313l0.216-.021c-0.01-.1-0.045-0.144.043-0.188,0.048-.016.194,0,0.3-0.021A6.362,6.362,0,0,1,9.6,17.8V17.757a0.329,0.329,0,0,1-.022-0.209H9.617v0.021a0.509,0.509,0,0,1,.065.209,0.309,0.309,0,0,1,.216,0,0.138,0.138,0,0,1,.022.084c0.39-.022.862-0.076,1.272-0.125V17.653a0.347,0.347,0,0,1,.108-0.021,1.546,1.546,0,0,1,.065-0.376,2.746,2.746,0,0,1-.043-0.313,0.443,0.443,0,0,0,.043-0.188,0.4,0.4,0,0,1-.022-0.188,1.152,1.152,0,0,0,.065-0.229,3.877,3.877,0,0,1,.022-0.9,7.28,7.28,0,0,0,.108,1.523l-0.043.292a1.759,1.759,0,0,1,.065.4H11.58A0.218,0.218,0,0,1,11.817,17.59Z"/>
</svg>
