<svg xmlns="http://www.w3.org/2000/svg" xmlns:xlink="http://www.w3.org/1999/xlink" width="20" height="24" viewBox="0 0 20 24">
  <defs>
    <style>
      .cls-1 {
        fill: url(#linear-gradient);
      }

      .cls-2 {
        fill: #ffa53b;
        opacity: 0.26;
      }

      .cls-3 {
        opacity: 0.61;
        fill: url(#linear-gradient-2);
      }

      .cls-4 {
        opacity: 0.66;
      }

      .cls-5 {
        fill: url(#linear-gradient-3);
      }

      .cls-6 {
        fill: url(#linear-gradient-4);
      }

      .cls-7 {
        opacity: 0.57;
      }

      .cls-8 {
        opacity: 0.11;
        fill: url(#New_Gradient_Swatch_copy_6);
      }

      .cls-9 {
        opacity: 0.25;
      }

      .cls-10 {
        opacity: 0.48;
        fill: url(#linear-gradient-5);
      }
    </style>
    <linearGradient id="linear-gradient" x1="10" y1="22.71596" x2="10" y2="1" gradientUnits="userSpaceOnUse">
      <stop offset="0" stop-color="#734511"/>
      <stop offset="0.2275" stop-color="#683e11"/>
      <stop offset="0.26341" stop-color="#663d11"/>
      <stop offset="0.3758" stop-color="#714610"/>
      <stop offset="0.57161" stop-color="#8e5f0f"/>
      <stop offset="0.58049" stop-color="#8f600f"/>
      <stop offset="1" stop-color="#d9c180"/>
    </linearGradient>
    <linearGradient id="linear-gradient-2" x1="10" y1="22.71594" x2="10" y2="1" gradientUnits="userSpaceOnUse">
      <stop offset="0" stop-color="#ba833c"/>
      <stop offset="0.82439" stop-color="#f3e09c"/>
      <stop offset="0.92195" stop-color="#f3e09c"/>
      <stop offset="0.93209" stop-color="#f3e6b6"/>
      <stop offset="0.94542" stop-color="#f3ecd2"/>
      <stop offset="0.95713" stop-color="#f3f0e3"/>
      <stop offset="0.96585" stop-color="#f3f1e9"/>
    </linearGradient>
    <linearGradient id="linear-gradient-3" x1="10" y1="21.33048" x2="10" y2="19.5504" gradientUnits="userSpaceOnUse">
      <stop offset="0" stop-color="#ffffa0"/>
      <stop offset="0.21596" stop-color="#ffffa0" stop-opacity="0.76266"/>
      <stop offset="0.6041" stop-color="#ffffa0" stop-opacity="0.35634"/>
      <stop offset="0.87374" stop-color="#ffffa0" stop-opacity="0.09981"/>
      <stop offset="1" stop-color="#ffffa0" stop-opacity="0"/>
    </linearGradient>
    <linearGradient id="linear-gradient-4" x1="10" y1="12.98913" x2="10" y2="0.31588" gradientUnits="userSpaceOnUse">
      <stop offset="0" stop-color="#703f11"/>
      <stop offset="0.33438" stop-color="#532e0d"/>
      <stop offset="0.76091" stop-color="#351b09"/>
      <stop offset="1" stop-color="#291407"/>
    </linearGradient>
    <linearGradient id="New_Gradient_Swatch_copy_6" data-name="New Gradient Swatch copy 6" x1="9.99991" y1="14.23969" x2="9.99991" y2="2.69763" gradientUnits="userSpaceOnUse">
      <stop offset="0" stop-color="#ffe46e"/>
      <stop offset="0.5" stop-color="#ffffa0"/>
      <stop offset="1" stop-color="#fff"/>
    </linearGradient>
    <linearGradient id="linear-gradient-5" x1="10" y1="14.44287" x2="10" y2="7.5" gradientUnits="userSpaceOnUse">
      <stop offset="0" stop-color="#ffa133"/>
      <stop offset="0.37904" stop-color="#ffc866" stop-opacity="0.75294"/>
      <stop offset="0.80066" stop-color="#ffef9a" stop-opacity="0.49957"/>
      <stop offset="1" stop-color="#ffffaf" stop-opacity="0.4"/>
    </linearGradient>
  </defs>
  <g id="Layer_1" data-name="Layer 1">
    <path d="M17,0H3A3.00328,3.00328,0,0,0,0,3V14.22363a2.7581,2.7581,0,0,0,.90332,2.03858L8.784,23.23779a1.84006,1.84006,0,0,0,2.44532.02588l7.82441-6.98486A2.75233,2.75233,0,0,0,20,14.20117V3A3.00328,3.00328,0,0,0,17,0Z"/>
    <path class="cls-1" d="M18.39755,15.52443l-7.82426,6.985a.84029.84029,0,0,1-1.1166-.01172L1.57493,15.52208A1.75423,1.75423,0,0,1,1,14.2234V3A2,2,0,0,1,3,1H17a2,2,0,0,1,2,2V14.20127A1.75426,1.75426,0,0,1,18.39755,15.52443Z"/>
    <path class="cls-2" d="M10,16.538a2.49946,2.49946,0,1,0,2.49946,2.49946A2.50229,2.50229,0,0,0,10,16.538Z"/>
    <path class="cls-3" d="M17,2a1.00115,1.00115,0,0,1,1,1V14.20129a.754.754,0,0,1-.259.56885L10.02385,21.662,2.24725,14.7818A.75585.75585,0,0,1,2,14.22339V3A1.00115,1.00115,0,0,1,3,2H17m0-1H3A2,2,0,0,0,1,3V14.22339a1.75434,1.75434,0,0,0,.575,1.2987l7.88176,6.97565a.84029.84029,0,0,0,1.11658.01172l7.82423-6.98505A1.75413,1.75413,0,0,0,19,14.20129V3a2,2,0,0,0-2-2Z"/>
    <circle cx="10" cy="19" r="2"/>
    <g class="cls-4">
      <path class="cls-5" d="M12.20985,18.387a2.01559,2.01559,0,0,1,.04483.41835A2.19737,2.19737,0,0,1,10,20.93508,2.19737,2.19737,0,0,1,7.74532,18.8053a2.01559,2.01559,0,0,1,.04483-.41835,2.29539,2.29539,0,0,0-.118.69558,2.32784,2.32784,0,0,0,4.65568,0A2.29539,2.29539,0,0,0,12.20985,18.387Z"/>
    </g>
    <path class="cls-6" d="M13.56541,13.83315,9.99922,11.27986l-3.567,2.552L7.75849,9.65124,4.22909,7.04741,8.615,7.017l1.38578-4.16133L11.385,7.01745l4.38591.032L12.24051,9.652Z"/>
    <g class="cls-7">
      <polygon points="7.579 10.219 6.432 13.832 6.719 13.626 7.758 10.351 7.579 10.219"/>
      <polygon points="8.615 8.017 10.001 3.556 11.385 8.017 14.47 8.008 15.771 7.049 11.385 7.017 10.001 2.856 8.615 7.017 4.229 7.047 5.53 8.007 8.615 8.017"/>
      <polygon points="12.24 10.352 13.279 13.628 13.565 13.833 12.42 10.219 12.24 10.352"/>
    </g>
    <path class="cls-8" d="M10.00073,2.85559,11.385,7.01746l4.38593.032L12.24048,9.652l1.32495,4.18109L9.99921,11.27985l-3.567,2.55206L7.75848,9.65125,4.22906,7.04742,8.61493,7.017l1.3858-4.16138m-.47436-.158L8.2536,6.51947l-4.028.02795-.2934.90235L7.17371,9.84113l-1.21808,3.8396.76751.5578,3.27594-2.34382,3.27527,2.345.7677-.55762L12.82526,9.84216,16.06763,7.452l-.293-.90247-4.02808-.02942L10.47516,2.69775l-.94879-.00012Z"/>
    <path class="cls-9" d="M10.00061,3.64728l1.14716,3.44909.05651.1698.1789.00129,3.63476.02655-2.92578,2.1568-.144.1062.054.17053,1.098,3.465-2.95538-2.116-.14551-.10419-.14551.10413-2.95612,2.115L7.99677,9.72687l.05413-.1706-.144-.1062-2.925-2.15789L8.6167,7.267l.17889-.00122.05652-.1698,1.1485-3.44867m.00012-.79169L8.61493,7.017l-4.38587.03045L7.75848,9.65125,6.43219,13.83191l3.567-2.55206,3.56622,2.55328L12.24048,9.652,15.77094,7.0495l-4.38593-.032L10.00073,2.85559Z"/>
    <polygon class="cls-10" points="16.166 7.5 15.16 7.5 12.24 9.652 13.565 13.833 9.999 11.28 6.432 13.832 7.758 9.651 4.843 7.5 3.833 7.5 3.784 7.651 6.882 9.936 5.718 13.605 6.869 14.442 9.999 12.202 13.129 14.443 14.28 13.606 13.117 9.937 16.216 7.653 16.166 7.5"/>
  </g>
</svg>
