<?xml version="1.0" encoding="utf-8"?>
<!-- Generator: Adobe Illustrator 16.0.0, SVG Export Plug-In . SVG Version: 6.00 Build 0)  -->
<!DOCTYPE svg PUBLIC "-//W3C//DTD SVG 1.1//EN" "http://www.w3.org/Graphics/SVG/1.1/DTD/svg11.dtd">
<svg version="1.1" id="Layer_1" xmlns="http://www.w3.org/2000/svg" xmlns:xlink="http://www.w3.org/1999/xlink" x="0px" y="0px"
	 width="39.969px" height="40px" viewBox="0 0 39.969 40" enable-background="new 0 0 39.969 40" xml:space="preserve">
<path id="Color_Fill_1" fill="#FFFFFF" d="M0.68,2.516c0.027,0.027,0.045,0.062,0.051,0.1H0.68V2.516z M0.68,2.666
	c0.033,0.043,0.05,0.096,0.051,0.15H0.68V2.666z M0.832,16.835h1.675v0.3h0.457c0.005-0.151-0.012-0.303-0.051-0.449
	c0.327,0.106,0.673,0.141,1.015,0.101c0.313-0.104,0.636-0.171,0.964-0.2v0.15c0.439-0.043,0.881-0.043,1.32,0
	c0.013-0.021,0.03-0.038,0.051-0.051c-0.048-0.686-0.202-1.36-0.457-2c-0.419-0.072-0.846-0.089-1.269-0.05
	c-0.31-0.125-0.636-0.208-0.968-0.246c-0.6-0.178-1.246-0.359-1.878-0.5v-1.4c0.771-0.311,1.577-0.5,2.386-0.8
	c0.211-0.077,0.486-0.24,0.711-0.3h3.6c0.58,0.139,1.248,0.357,1.827,0.5c0.444,0.035,0.885,0.102,1.32,0.2
	c0.093,0.077,0.193,0.144,0.3,0.2h5.034c0.116,0.225,0.271,0.428,0.457,0.6c0.476,0.289,2.029-0.1,2.69,0.05
	c0.589,0.07,1.184,0.086,1.777,0.05c1.023,0,2.256,0,3.146,0c1.049,0.064,2.1,0.064,3.147,0v0.15c3.992,0,8.024,0,11.878,0v0.748
	c-4.045,0-8.628-0.11-12.335,0.101v0.3h-3.042v-0.3c-0.608-0.037-1.219-0.037-1.827,0c-0.644-0.035-1.288-0.019-1.929,0.05h-3.5
	c-0.043,0.115-0.1,0.184-0.152,0.3c-0.087,0.005-0.172,0.022-0.254,0.05v0.4c-0.521,0.017-1.035,0.118-1.523,0.3
	c-0.24,0.005-0.479,0.039-0.711,0.1c-0.057,0.16-0.075,0.332-0.051,0.5l0.2,0.101l-0.051,0.149c-0.078-0.047-0.176-0.047-0.254,0
	h0.051c0.505,0.363,1.105,0.571,1.726,0.601c-0.054-0.134-0.035-0.285,0.051-0.4c0.06-0.036,0.129-0.054,0.2-0.05
	c0.037,0.113,0.054,0.23,0.051,0.35c0,0-0.146,0.065-0.1,0.1h0.054c0.078,0.041,0.167,0.059,0.254,0.05l0.051-0.3h1.624
	c0.325-0.18,0.704-0.232,1.066-0.15v0.249h0.051c0.045-0.098,0.146-0.157,0.254-0.149v0.1c-0.049,0.109-0.066,0.23-0.051,0.35
	c0.413,0.013,0.823,0.08,1.218,0.199c0.249,0.062,0.569-0.015,0.761,0.051c0-0.158-0.086-0.067,0.051-0.15
	c-0.029,0.15,0.056,0.299,0.2,0.349c0.228,0.085,0.47,0.118,0.711,0.101v-0.2h0.101c0.129,0.051,0.268,0.067,0.406,0.05v0.249
	c0.268,0.056,0.539,0.089,0.812,0.101c0.088-0.041,0.015-0.201,0.254-0.15c0.235,0.178,0.518,0.281,0.812,0.3
	c0.438-0.279,0.961-0.386,1.473-0.3c0.403,0.261,0.851,0.446,1.32,0.549v0.2c0.837,0.043,1.67,0.159,2.486,0.349
	c0.245,0.038,0.344-0.146,0.711-0.15c0.33,0.303,0.773,0.448,1.219,0.4c0.6,0.132,2.357,0.42,2.588,0.948v0.649
	c0.07,0.228,0.07,0.471,0,0.699H34.74v-0.1c0.037-0.06,0.055-0.13,0.051-0.2c-0.244,0.059-0.482,0.142-0.711,0.249l-0.254-0.5
	h-0.051v0.1c0.174,0.512,0.078,1.075-0.254,1.5c-0.289,0.297-0.635,0.535-1.015,0.7c-0.729,0.45-1.481,0.888-2.233,1.347
	c-0.715,0.551-1.5,1.002-2.334,1.343l-1.523,0.05H12.558c-2.175,0-5.16,0.32-6.5-0.549c-0.871-0.566-1.759-1.2-2.64-1.746
	c-0.65-0.281-1.237-0.688-1.726-1.2c-0.486-0.812-0.223-1.862,0.588-2.349c0.269-0.16,0.576-0.245,0.889-0.243V18.98h-3.1V18.93
	c0.451-0.746-0.76-2.1,0.508-2.1v-0.1c-0.056-0.281-0.038-0.572,0.052-0.844v-2.345L0.68,5.809V3.716
	c-0.04-0.284-0.022-0.573,0.05-0.851v13.121C0.796,16.265,0.83,16.549,0.832,16.835z M13.218,14.291
	c0.001,0.054-0.017,0.107-0.051,0.15c-0.476-0.307-2.247,0.079-2.538,0.2v0.051h0.3c0.108-0.063,0.23-0.097,0.355-0.101
	c0.333,0.481,0.927,0.466,1.777,0.449v-0.149c0.289-0.299,0.709-0.43,1.117-0.35c-0.069,0.385-0.034,0.78,0.1,1.146v-0.05
	c0.068-0.227,0.085-0.466,0.051-0.7c0.19-0.087,0.4-0.121,0.609-0.1c0.055,0.02,0.024,0.129,0.2,0.1
	c0.466-0.076,0.949-0.3,1.472-0.349v-0.2c-0.373,0.009-0.519-0.1-1.015-0.1c0.001,0.054-0.017,0.107-0.051,0.15v-0.15h-0.702
	c-0.042,0.162,0.025,0.076-0.1,0.15v-0.15H14.03c0,0.054-0.017,0.107-0.051,0.15v-0.15h-0.761V14.291z M16.618,14.291
	c0.087,0.044,0.065,0.044,0.152,0H16.618L16.618,14.291z M11.136,14.991c0.027,0.026,0.063,0.044,0.1,0.05
	c-0.027-0.027-0.061-0.045-0.099-0.052L11.136,14.991z M9.867,15.091c0.087,0.044,0.065,0.044,0.152,0h-0.15H9.867z M11.238,15.091
	c0.057,0.052,0.143,0.052,0.2,0H11.238z M12.253,15.091c0.027,0.026,0.063,0.044,0.1,0.05c-0.027-0.027-0.062-0.045-0.1-0.052
	V15.091z M12.553,15.091c0.162,0.073,0.347,0.073,0.508,0h-0.503H12.553z M16.563,16.191c-0.055-0.001-0.108,0.017-0.152,0.05
	c-0.038,0.06-0.056,0.13-0.051,0.2h0.051v0.05l0.1-0.05c0.034-0.082,0.054-0.168,0.058-0.256L16.563,16.191z M4.431,16.691
	c0.087,0.043,0.065,0.043,0.152,0H4.436H4.431z M3.928,21.924c-0.063,0.091-0.151,0.16-0.254,0.2v0.05
	c0.092,0.01,0.181,0.044,0.254,0.1c0.059-0.133,0.1-0.1,0.152-0.248H4.03C3.969,21.9,4.052,21.99,3.928,21.924z M30.27,22.074
	c-0.125,0.226-0.354,0.375-0.609,0.4c-0.228,0.153-0.433,0.338-0.609,0.549c0.076,0.209,0.076,0.439,0,0.648h0.1
	c0.5-0.594,1.675-0.829,2.233-1.4H31.34v-0.049C30.977,22.236,30.614,22.187,30.27,22.074z M4.736,22.574
	c-0.114,0.158-0.193,0.078-0.254,0.199c0.499,0.24,0.974,0.523,1.421,0.849v-0.601c0.052-0.092,0.086-0.194,0.1-0.299
	c-0.412-0.046-0.799-0.14-1.262-0.15L4.736,22.574z M10.929,22.824H9.411c-0.137,0.26-0.19,0.557-0.152,0.848
	c-0.17,0.238-0.3,0.563-0.457,0.801h2.538v-0.057c-0.43-0.41-0.587-1.029-0.406-1.594L10.929,22.824z M14.381,22.824
	c-0.075,0.075-0.143,0.158-0.2,0.249c0.325,0.469-0.252,1.17-0.406,1.399h2.487v-0.057c-0.404-0.427-0.541-1.042-0.354-1.6h-1.522
	L14.381,22.824z M19.356,22.824c-0.133,0.088-0.208,0.24-0.2,0.4c0.059,0.455-0.091,0.912-0.406,1.246h2.486v-0.055
	c-0.436-0.41-0.576-1.045-0.354-1.6H19.36L19.356,22.824z M25.803,22.824h-1.519c-0.137,0.26-0.19,0.557-0.152,0.848
	c-0.187,0.264-0.263,0.563-0.457,0.801h2.538v-0.057c-0.43-0.41-0.588-1.029-0.406-1.594L25.803,22.824z"/>
</svg>
