<svg xmlns="http://www.w3.org/2000/svg" width="39.938" height="40" viewBox="0 0 39.938 40">
  <defs>
    <style>
      .cls-1 {
        fill: #fff;
        fill-rule: evenodd;
      }
    </style>
  </defs>
  <path id="Color_Fill_1" data-name="Color Fill 1" class="cls-1" d="M22.552,11a2.172,2.172,0,0,1,0,.748h0.34V11.8h-0.1a0.188,0.188,0,0,1-.146.1c-0.019-.13.036-0.065-0.1-0.1-0.208.15-.4,0.049-0.437,0.4,0.11-.02.053-0.046,0.146,0a0.574,0.574,0,0,0-.146.6h0.049c0.04-.162-0.024-0.076.1-0.15v0.05c0.126,0.223-.025.437,0.1,0.648,0.411,0.709.87,1.424,1.312,2.144a3.184,3.184,0,0,1,.486.8H24.2v-0.2a5.718,5.718,0,0,1-.34-1.5,17.311,17.311,0,0,1-.68-2.942h0.049V11.6h0.146l1.166,5.286a6.4,6.4,0,0,1,.924,1.646H25.419a0.174,0.174,0,0,0-.1-0.05c-0.11-.425-0.461-0.67-0.583-1.1H24.69v0.2a1.506,1.506,0,0,1,.146.947,0.735,0.735,0,0,1-.292-0.15c-0.34-.4-0.422-1.541-1.069-1.546a0.756,0.756,0,0,1-.194.549c0.124,0.073.055-.011,0.1,0.15h0.194a2.87,2.87,0,0,1,.049-0.6,0.181,0.181,0,0,1,.049.1h0.1v0.05H23.621V17.53h0.146v0.15H23.524v0.5H23.67v0.1a0.232,0.232,0,0,1-.049.2c-0.09,0-.043-0.047-0.1.05h0.049c0.1,0.056.088,0.03,0.194,0v0.15a2.369,2.369,0,0,0,1.021-.1c0.061-.08.049,0.1,0.049,0.1a0.977,0.977,0,0,0,.729-0.1,0.4,0.4,0,0,0,.389.1,0.641,0.641,0,0,0-.1-0.449H26v0.449a5.315,5.315,0,0,0,.923-0.1v0.05H26.877c-0.094.039,0.1,0.05,0.1,0.05a0.931,0.931,0,0,1,.049-0.449,0.445,0.445,0,0,0,.1.449,1.4,1.4,0,0,0-.049-0.449h0.1v0.449H27.8V18.228H28v0.449a3.022,3.022,0,0,1,.875.05,1.681,1.681,0,0,0-.049.5,0.666,0.666,0,0,0,.292-0.1v0.1h0.049v0.05c-0.279.085-.357,0.248-0.34,0.648,0.155,0,.117-0.06.146,0.15-0.138,0-.019-0.039-0.146.05,0.029,0.218,0,.6,0,0.948h0.34v0.848a0.77,0.77,0,0,0-.34.249,0.935,0.935,0,0,1,0,.4h0.34v-0.05c-0.124-.073-0.055.011-0.1-0.15l0.1,0.05v-0.05a1.449,1.449,0,0,0,.1-0.249h0.049c0.013,0.2-.027.226,0.1,0.3a3.341,3.341,0,0,1,0-.449c0.027-.065,0-0.037.049-0.05,0.032,0.043.065,0.157,0.1,0.2v-0.1A1.2,1.2,0,0,0,29.7,21.57h0.049v0.2a1.353,1.353,0,0,0-.146.648h1.118v0.05a1.94,1.94,0,0,0-.924.1h0.972a0.73,0.73,0,0,0-.049-0.249H31.3a1.291,1.291,0,0,1,.583-0.05v0.15a2.436,2.436,0,0,0,.34-0.1c0.085,0.077-.022.072,0.146,0.1v-0.05a0.557,0.557,0,0,1-.146-0.249,3.408,3.408,0,0,0-.389.05v-0.3a2.318,2.318,0,0,0,.34-0.05c0-.158-0.082-0.067.049-0.15a1.188,1.188,0,0,0,.389.05c0.107-.054-0.039-0.117.243-0.15a0.985,0.985,0,0,0,.1.349h1.7v0.05H34.7v0.05H33.341a0.412,0.412,0,0,1-.243.05,0.46,0.46,0,0,0-.1.3,6.34,6.34,0,0,0,1.847-.05l4.909-.349a14.857,14.857,0,0,1,0-2.493h0.049v2.493c0.294,0.276.084,1.855-.049,2.444-0.211.938-.086,1.913-0.292,2.793a1.913,1.913,0,0,1-.1.6,1.991,1.991,0,0,1-1.361.4,24.867,24.867,0,0,1-5.055.15,2.559,2.559,0,0,1-.049.549,1.347,1.347,0,0,1-.972-0.05,1.21,1.21,0,0,1-.1-0.5H5.006c-0.32-.132-0.6-0.567-0.923-0.7H2.868a1.716,1.716,0,0,1-.729.05v0.5H2.09v-0.05a1.188,1.188,0,0,1-.146-0.5A0.231,0.231,0,0,1,1.8,27.6a0.181,0.181,0,0,1-.049-0.1,0.421,0.421,0,0,0,.292-0.5h-0.1a0.412,0.412,0,0,0-.243-0.05,6.307,6.307,0,0,1-.049.9H1.021v-0.1a8.052,8.052,0,0,1,0-.947C0.908,26.494.7,26.092,0.583,25.759a4.355,4.355,0,0,0-.194-0.748,1.615,1.615,0,0,1-.34-0.349c0.114-.139.015-0.178-0.049-0.4l0.1-.05c0.091-.087.15-0.005,0.146-0.349a0.306,0.306,0,0,0,.146-0.3,0.322,0.322,0,0,0-.194-0.05,0.3,0.3,0,0,1-.1.1v-0.1a0.3,0.3,0,0,0,.1-0.1,0.673,0.673,0,0,0,.194.05,1.019,1.019,0,0,0-.243-0.7A0.244,0.244,0,0,0,0,22.717v-0.2H0.1a0.549,0.549,0,0,0,.1.15v-0.15a0.545,0.545,0,0,1-.1-0.349h0.1a4.072,4.072,0,0,0,.632,1.945,0.32,0.32,0,0,1,.146-0.2v0.15a1.227,1.227,0,0,0,.632-0.2v0.15H1.75v-0.3l0.243-.05a1.6,1.6,0,0,1,.146-0.549L3.6,22.368a9.466,9.466,0,0,1,.486,1.346H4.617v0.4H4.763v-0.2H4.812v0.1a3.19,3.19,0,0,1,.535.349H5.395c0.048,0.05-.048.049-0.049,0.05-0.1.105-.192,0.186-0.292,0.3-0.063-.123.021-0.034-0.1-0.1v0.3H5.1a0.328,0.328,0,0,1,.049-0.2v0.2H5.3V24.661a2.117,2.117,0,0,0,.68,0,1.8,1.8,0,0,0,.194-0.349v0.249H6.95v-0.15a1.274,1.274,0,0,1-.583-0.05H7.1a6.565,6.565,0,0,1,.389-0.6l0.146,0.05c0.037,0.617.633,0.628,1.312,0.6v-0.5c0.068-.01-0.02.041,0.049,0.05,0.038,0.1.049-.1,0.049-0.1a0.568,0.568,0,0,1,.049-0.449,0.406,0.406,0,0,0,.146.1v-0.05a0.756,0.756,0,0,1-.194-0.449,1.663,1.663,0,0,0,.292-0.15,3.768,3.768,0,0,1,.68.15,0.537,0.537,0,0,1,.049-0.3v0.8h0.486V23.066H10.4a0.427,0.427,0,0,1-.049.249,1.371,1.371,0,0,1,.049-0.6,0.866,0.866,0,0,0,.049.3,5.191,5.191,0,0,1,.923-0.05V22.717a2.274,2.274,0,0,0,.924-0.05H10.838v-0.1a5.558,5.558,0,0,0,1.7-.05,0.9,0.9,0,0,1,.243-0.15c0.04,0.162-.024.076,0.1,0.15a0.252,0.252,0,0,1,.292-0.2c0.114,0.114.213,0.19,0.34,0.3a0.308,0.308,0,0,0-.194.05h0.049c0.009,0.005,1.417.155,1.75,0.15a1.379,1.379,0,0,0-.1-0.549h0.34V21.719H15.067V19.126h0.194a1.1,1.1,0,0,1,.049.349,8.834,8.834,0,0,0-.049,2.095h0.1v-1.3c-0.388-.638.812-1.631,1.069-1.895a14.7,14.7,0,0,0,1.312-1.5l0.535-.5a14.175,14.175,0,0,0,1.264-1.446,3.949,3.949,0,0,0,1.118-1.3,8.051,8.051,0,0,1-.535-1.6,2.565,2.565,0,0,1-.632.2L19.344,11.8a2.132,2.132,0,0,0,.632-0.2c0.015-.2,0-0.242.1-0.3a2.577,2.577,0,0,0,.826.4v0.05H20.753a1.432,1.432,0,0,0-.583-0.3v0.1c0.386,0.547.27,1.521,0.68,2.045a7.819,7.819,0,0,1,.972-1,0.386,0.386,0,0,1,.049-0.349,1.072,1.072,0,0,1-.583-0.3,1.657,1.657,0,0,1,.583.249v-0.2c-0.112-.049-0.288-0.167-0.389-0.2a1.68,1.68,0,0,1-.583-0.05h0.972V10.9a0.715,0.715,0,0,1-.34-0.8h0.1a1.149,1.149,0,0,1,.778-0.05,1.681,1.681,0,0,1,.049.5,1.817,1.817,0,0,0-.34.449h0.437Zm-0.778-.449,0.049,0.2h0.049v-0.2h-0.1Zm0.34,0v0.2h0.049v-0.1a0.181,0.181,0,0,0,.049-0.1h-0.1ZM21.482,11a0.616,0.616,0,0,1,.34.05A0.615,0.615,0,0,1,21.482,11Zm0.632,0.05V11.3H22.5V11.047H22.114Zm-0.632.249a0.615,0.615,0,0,1,.34.05,0.644,0.644,0,0,1-.389,0c-0.11-.119-0.053-0.018-0.049-0.2h0.1V11.3Zm0.632,0.05v0.4H22.5v-0.4h-0.1A1.37,1.37,0,0,1,22.114,11.347Zm1.069,0.15h0.1v0.05H23.232a0.345,0.345,0,0,1-.194.1V11.6h0.049C23.122,11.552,23.148,11.54,23.184,11.5Zm-0.243.15h0.1V11.7H22.989C22.956,11.7,22.895,11.7,22.941,11.646Zm-1.847.2h0.1V11.9A0.165,0.165,0,0,1,21.094,11.845Zm0.1,0.05h0.1v0.05A0.165,0.165,0,0,1,21.191,11.9Zm1.361,0h0.1v0.05H22.6C22.567,11.952,22.506,11.948,22.552,11.9Zm-0.146.1h0.1v0.05H22.454a0.344,0.344,0,0,1-.194.1v-0.05h0.049C22.345,12.051,22.37,12.038,22.406,11.995Zm-0.535,3.092H21.628a0.281,0.281,0,0,0,0-.2,0.615,0.615,0,0,1-.34-0.05,0.181,0.181,0,0,1-.049-0.1h0.437v-0.05h0.049v0.249h0.146c0-.772-0.077-1.487-0.1-2.144H21.725A2.6,2.6,0,0,0,20.9,13.94a3.428,3.428,0,0,1,.292.947c0.192,0.593.459,1.412,0.632,1.9h0.049v-0.2A8.426,8.426,0,0,1,21.871,15.087Zm0.68,1.7h0.34a0.281,0.281,0,0,1,.146-0.3,0.2,0.2,0,0,1,.243-0.05c0.357,0.135.015,0.308,0.486,0.349v-0.05a4.9,4.9,0,0,1-.486-1.047,13.409,13.409,0,0,1-1.118-2.344H22.114V13.89h0.049c0.063-.123-0.021-0.034.1-0.1v0.1A25.874,25.874,0,0,0,22.552,16.782Zm-5.978,4.887a8.471,8.471,0,0,1,.583-2.294c0.225-.005.238,0.191,0.389,0.4a0.331,0.331,0,0,0,.146-0.249,0.777,0.777,0,0,1-.535-0.4,3.058,3.058,0,0,0,1.458-.8c0.437-.283.874-0.465,1.312-0.748,0.523-.338,1.042-0.749,1.6-1.047L20.9,14.588a1.2,1.2,0,0,0-.243-0.648c-0.3.473-.8,0.76-1.118,1.2-0.825,1.121-1.945,1.971-2.77,3.092-0.266.362-.667,0.7-0.972,1.047l-0.243.15V21.57h0.1A2.7,2.7,0,0,0,16.574,21.669ZM22.6,13.99a29.439,29.439,0,0,0,1.264,2.743,7.651,7.651,0,0,1,.778,1.646H24.69v-0.15a8.622,8.622,0,0,1-.34-1.446,13.354,13.354,0,0,0-1.118-1.745A3.965,3.965,0,0,0,22.6,13.99Zm-0.486,2.793h0.194a3.59,3.59,0,0,0-.194-1.2v1.2Zm-0.68-.05a15.2,15.2,0,0,0-1.507,1h0.049a8.1,8.1,0,0,0,1.555-1h-0.1Zm0.389,0.1v0.1h0.049A0.173,0.173,0,0,0,21.823,16.832Zm0.292,0v0.2H22.26v-0.2H22.114Zm0.535,0.7h0.34V17.081a0.615,0.615,0,0,1-.34-0.05,0.5,0.5,0,0,0,.292-0.05,0.257,0.257,0,0,1-.049-0.15h-0.34v0.1A1.246,1.246,0,0,1,22.649,17.53Zm-0.972-.6a4.193,4.193,0,0,0-1.41.8c-0.885.556-1.813,1.064-2.722,1.546v0.05h0.049a11.4,11.4,0,0,0,1.458.947c0.536,0.347,1.075.787,1.6,1.147a2.744,2.744,0,0,1,1.167.848h0.049V20.273a3.388,3.388,0,0,0-.146-1c0.255-.021.155-1.249,0.146-1.7A1.265,1.265,0,0,1,21.677,16.932Zm0.437,0.15V17.53H22.26a4.1,4.1,0,0,1,0-.449H22.114Zm0.194,0V17.53h0.1A1.175,1.175,0,0,0,22.309,17.081Zm0.729,0.15V17.48h0.049v-0.1a0.259,0.259,0,0,0,.049-0.15h-0.1Zm-0.875.449a1.267,1.267,0,0,0,.389.748,2.3,2.3,0,0,1-.1-0.748H22.163Zm0.535,0a3.7,3.7,0,0,0,.632,2.194,0.174,0.174,0,0,1,.1-0.05v-0.5l-0.34-.15-0.049-.6,0.292,0.05v-0.2c-0.122-.073-0.089-0.063-0.1-0.249h0.243v-0.5H22.7Zm-2.867.05a1.724,1.724,0,0,0-.146.15h0.049C19.818,17.774,19.829,17.806,19.83,17.73Zm6.318,0.5a0.308,0.308,0,0,1,.194.05A0.308,0.308,0,0,1,26.148,18.228Zm1.264,0a0.616,0.616,0,0,1,.34.05A0.615,0.615,0,0,1,27.412,18.228Zm0.437,0.05v0.4h0.1v-0.4h-0.1Zm-5.541.1a3.093,3.093,0,0,0,.34,1.047v-0.3A3.324,3.324,0,0,0,22.309,18.378Zm-0.194.15v1.247l0.146,0.05a1.784,1.784,0,0,0,.292.1v-0.15C22.314,19.444,22.363,18.847,22.114,18.528Zm1.7,0h0.1v0.05A0.165,0.165,0,0,1,23.815,18.528Zm-2.284.549h0.1a0.576,0.576,0,0,1,0,.249v0.05H21.58v-0.05A0.44,0.44,0,0,1,21.531,19.076Zm7.339,0.2-0.049.15H28.87a0.3,0.3,0,0,1,.1-0.1A0.174,0.174,0,0,0,28.87,19.276Zm-10.838.1,2.479,0.549a3.582,3.582,0,0,1,1.215.3,9.259,9.259,0,0,1-2.625-.5,3.078,3.078,0,0,1-1.215-.3A0.232,0.232,0,0,0,18.032,19.375Zm3.6,0a0.232,0.232,0,0,1,.146.05A0.232,0.232,0,0,1,21.628,19.375Zm-4.374.15a10.521,10.521,0,0,1-.437,2.095h0.049v-0.1C17.071,21.259,17.59,19.84,17.254,19.525Zm0.486,0.05v0.1a3.613,3.613,0,0,1,.875.6,20.858,20.858,0,0,0,1.993,1.247,4.8,4.8,0,0,0-1.215-.8C18.843,20.366,18.305,19.923,17.74,19.575Zm5.3,0.449h0.146l-0.146-.449H22.989v0.3A0.259,0.259,0,0,1,23.038,20.024Zm-1.41,2.793-0.049-.449c-0.79-.6-1.672-1.092-2.527-1.646a4.312,4.312,0,0,0-1.409-.9v0.05H17.594a7.227,7.227,0,0,0,.34,1.895h0.389a18.93,18.93,0,0,0,2.381.2,2.95,2.95,0,0,0-.049.8A3.5,3.5,0,0,0,21.628,22.816Zm0.486-2.543v0.748a0.681,0.681,0,0,1,.243.05V20.722a0.924,0.924,0,0,1,.486.1v-0.1a0.912,0.912,0,0,1-.146-0.449H22.114Zm0.972,0,0.1,0.748h0.729v-0.05a0.8,0.8,0,0,1-.146-0.349,0.185,0.185,0,0,0,.146-0.1c-0.133-.079-0.122-0.045-0.146-0.249h-0.68Zm-5.638.05-0.486,1.4h0.729v0.05H17.74v-0.05A3.469,3.469,0,0,0,17.448,20.323ZM39.563,21.37a0.181,0.181,0,0,1,.049.1H39.563v-0.1Zm-0.1.249a0.182,0.182,0,0,1,.049.1H39.465v-0.1Zm-23.912.15v0.5a0.5,0.5,0,0,1,.292.05c-0.19,0-.219-0.025-0.292.1H15.8a1.117,1.117,0,0,0,.583.1l0.146-.7H16.136A1.291,1.291,0,0,0,15.553,21.769Zm16.719,0a0.335,0.335,0,0,0,.34.1v-0.05A1.709,1.709,0,0,0,32.272,21.769Zm0.535,0v0.1h0.049A0.172,0.172,0,0,0,32.807,21.769Zm-15.942.1a2.105,2.105,0,0,1-.243.7h0.243v0.05h0.049a0.634,0.634,0,0,1,.34-0.4,0.533,0.533,0,0,1-.146-0.1,0.561,0.561,0,0,0,.583-0.05h-0.1a3.255,3.255,0,0,1-.583,0l-0.049-.15h0.049a0.635,0.635,0,0,0,.535.1v-0.1h-0.1A1.29,1.29,0,0,0,16.865,21.869Zm12.054,0v0.1h0.049v-0.1H28.919Zm-11.324.05v0.1H17.74v-0.1H17.594Zm0.194,0v0.1h0.049A0.173,0.173,0,0,0,17.789,21.919Zm0.194,0v0.1a1.133,1.133,0,0,0,.535-0.05Zm4.131,0c0.019,0.269,0,.371,0,0.8h0.049v-0.05a1.826,1.826,0,0,0,.389-0.648H22.6c0.048-.05-0.048-0.049-0.049-0.05A0.879,0.879,0,0,0,22.114,21.919Zm-3.548.05c0.084,0.044.062,0.044,0.146,0H18.566Zm-0.778.1v0.1h0.049A0.173,0.173,0,0,0,17.789,22.068Zm2.527,0.349a0.557,0.557,0,0,1,.146-0.3h-0.34a12.075,12.075,0,0,0-2.09-.05v0.1h1.944v0.05a0.232,0.232,0,0,0-.146.05h0.1l0.146,0.2A0.748,0.748,0,0,1,20.316,22.417Zm2.673,0.4V22.068H22.746l-0.486.8h0.389A0.629,0.629,0,0,1,22.989,22.816Zm16.331-.7a4.463,4.463,0,0,1-.729.1v0.1h0.34a1.992,1.992,0,0,0,.826-0.2H39.32Zm0.486,0v0.1h0.049v-0.1H39.806Zm-18.177.05,0.049,0.15h0.049A0.19,0.19,0,0,0,21.628,22.168Zm8.214,0a0.181,0.181,0,0,1,.049.1H29.842v-0.1Zm2.527,0-0.049.1C32.406,22.2,32.369,22.168,32.369,22.168Zm-14.824.05v0.1h0.1v-0.1h-0.1Zm0.243,0v0.2h0.1v-0.2h-0.1Zm0.243,0,0.049,0.2h1.264a0.266,0.266,0,0,1,.194-0.15v-0.05H18.032Zm14.435,0v0.05H32.418c-0.093.039,0.1,0.05,0.1,0.05A0.173,0.173,0,0,0,32.467,22.218Zm5.492,0a2.7,2.7,0,0,1-.923.1v0.1H37.57c0.262-.155.81,0.057,0.972-0.2H37.959Zm-17.546.05a1.223,1.223,0,0,0,.049.549A1.22,1.22,0,0,0,20.413,22.268Zm9.478,0a0.181,0.181,0,0,1,.049.1H29.891v-0.1Zm-14.629.05a0.175,0.175,0,0,0,.1.05A0.173,0.173,0,0,0,15.261,22.318Zm13.706,0h0.1v0.05H29.016v0.05A0.181,0.181,0,0,1,28.967,22.318Zm6.318,0.1c0.04,0.162-.024.076,0.1,0.15,0.375-.224,1.386.125,1.6-0.249H36.549A4.284,4.284,0,0,1,35.286,22.417Zm4.083-.05a0.32,0.32,0,0,0,.34,0h-0.34Zm-17.643.05a0.786,0.786,0,0,0,.1.4h0.049v-0.3A0.386,0.386,0,0,1,21.725,22.417Zm12.539,0.05v0.15l0.972-.05c-0.04-.162.024-0.076-0.1-0.15A2.149,2.149,0,0,1,34.265,22.467Zm4.471-.05a0.4,0.4,0,0,0,.389,0H38.736Zm-1.7.15v0.3c0.435,0.052.77,0.165,0.778-.3h0.049c0,0.195-.024.224,0.1,0.3a0.871,0.871,0,0,0,.486-0.4H38.056A2.726,2.726,0,0,1,37.035,22.567Zm-7.728-.05a0.173,0.173,0,0,0,.1.05A0.173,0.173,0,0,0,29.307,22.517Zm0.194,0v0.1H29.55A0.171,0.171,0,0,0,29.5,22.517Zm7.485,0.2v-0.15l-1.507.1v0.1h0.826A1.573,1.573,0,0,1,36.987,22.717Zm-34.751,1.3c0.27,0,.264-0.006.535,0,0.04-.162-0.024-0.076.1-0.15a0.58,0.58,0,0,0,.535.1v-0.15c0.127-.019.064,0.037,0.1-0.1H3.937v-0.05A3.463,3.463,0,0,1,3.5,22.717a3.751,3.751,0,0,0-1.264.748A0.523,0.523,0,0,0,2.236,24.013Zm32.126-1.3a0.561,0.561,0,0,1-.146.1v0.05h0.146c0.072-.1.069,0.028,0.1-0.15h-0.1Zm0.194,0v0.15a1.769,1.769,0,0,0,.583-0.1v-0.05H34.557Zm2.236,0.1c0.116,0.112.017,0.054,0.194,0.05v-0.05H36.792Zm-0.486.05a0.174,0.174,0,0,0,.1.05A0.174,0.174,0,0,0,36.306,22.866Zm0.34,0a0.174,0.174,0,0,0,.1.05A0.174,0.174,0,0,0,36.646,22.866Zm-22.017.05a0.265,0.265,0,0,0,.292.15,0.418,0.418,0,0,0,.1-0.15H14.629Zm5.784,0a0.245,0.245,0,0,0,.049.15A0.245,0.245,0,0,0,20.413,22.916Zm0.292,0a1.411,1.411,0,0,0,.972.15v-0.05A2.307,2.307,0,0,0,20.7,22.916Zm1.118,0a0.245,0.245,0,0,0,.049.15A0.245,0.245,0,0,0,21.823,22.916Zm0.389,0v0.2a1.275,1.275,0,0,1,.389.1,1.122,1.122,0,0,1-.389-0.05v0.249a1.438,1.438,0,0,0,.437,0c0-.267-0.009-0.252,0-0.5h-0.1A0.421,0.421,0,0,1,22.211,22.916Zm0.583,0v0.15h0.194v-0.1H22.941v-0.05H22.795Zm-2.527.05v0.1h0.049A0.172,0.172,0,0,0,20.267,22.966Zm14.338,0v0.1h0.1v-0.1h-0.1Zm0.146,0v0.1h0.243v-0.1H34.751Zm-32.175.05a0.173,0.173,0,0,0,.1.05A0.174,0.174,0,0,0,2.576,23.016Zm-0.1.05-0.049.1C2.515,23.1,2.479,23.066,2.479,23.066Zm7.242,0a0.4,0.4,0,0,1-.146.449H9.818a0.265,0.265,0,0,1,.194,0V23.066H9.721Zm-7.436.1a0.173,0.173,0,0,0,.1.05A0.173,0.173,0,0,0,2.284,23.165Zm18.129,0a0.246,0.246,0,0,0,.049.15A0.244,0.244,0,0,0,20.413,23.165Zm-0.292.05c0.081,0.056.052,0.088,0.1,0h-0.1Zm0.146,0v0.1h0.049A0.172,0.172,0,0,0,20.267,23.215Zm0.389,0v0.1h0.1v-0.1h-0.1Zm1.458,0a0.245,0.245,0,0,0,.049.15v-0.15H22.114Zm0.583,0,0.049,0.15a1.115,1.115,0,0,0,.194-0.05,0.183,0.183,0,0,0,.049-0.1A0.979,0.979,0,0,1,22.7,23.215Zm-12.928.15a0.181,0.181,0,0,1,.049.1H9.769v-0.1Zm0.583,0a0.182,0.182,0,0,1,.049.1H10.352v-0.1Zm4.374,0.1v0.1h0.049v-0.1H14.727Zm0.826,0v0.1l0.146-.05v-0.05H15.553Zm0.243,0a0.471,0.471,0,0,0,.486,0H15.8Zm0.583,0a0.252,0.252,0,0,0,.292,0H16.379Zm3.888,0a0.173,0.173,0,0,0,.1.05A0.173,0.173,0,0,0,20.267,23.465Zm0.389,0a0.4,0.4,0,0,0,.389,0H20.656Zm0.729,0a0.191,0.191,0,0,0,.243,0H21.385Zm0.826,0a0.173,0.173,0,0,0,.1.05A0.173,0.173,0,0,0,22.211,23.465Zm-21.531.15a0.181,0.181,0,0,1,.049.1H0.68v-0.1Zm-0.243.05c0.04,0.162-.024.076,0.1,0.15v-0.15h-0.1Zm-0.1.2v0.3h0.1v-0.3H0.34Zm0.194,0v0.3H0.583v-0.1C0.649,23.943.652,23.939,0.535,23.864Zm6.95,0.1a0.173,0.173,0,0,0,.1.05A0.173,0.173,0,0,0,7.485,23.963Zm-4.617.1v0.15l0.535-.05v-0.15Zm-0.1.2v-0.2H2.236v0.1a0.285,0.285,0,0,1,0,.2h0.1a0.14,0.14,0,0,1,.049-0.05c-0.036-.043-0.061-0.056-0.1-0.1Zm-1.8.15H1.118v-0.05a0.266,0.266,0,0,1,0-.249h-0.1v0.05A0.441,0.441,0,0,0,.972,24.412Zm0.194-.3v0.15a0.957,0.957,0,0,1,.34.05v-0.15Zm-0.243.05H0.729v0.1a0.415,0.415,0,0,1,.1.2,0.173,0.173,0,0,1,.1-0.05A0.715,0.715,0,0,1,.923,24.163Zm0.68,0,0.049,0.15h0.1v-0.1H1.7A0.174,0.174,0,0,0,1.6,24.163Zm-1.069.05v0.1h0.1v-0.1h-0.1Zm-0.34.05v0.1H0.243v-0.1H0.194Zm0.146,0v0.1h0.1v-0.1H0.34Zm0.632,0.2,0.1,0.349H1.118C1.124,24.473,1.11,24.55.972,24.462Zm0.194,0v0.1a0.349,0.349,0,0,0,.34-0.1H1.166Zm0.437,0v0.1H1.75v-0.1H1.6Zm7.339,0.2v-0.2a2.42,2.42,0,0,0-.972.05A7.272,7.272,0,0,1,8.943,24.661Zm-8.214-.1v0.15l0.1,0.05v0.05H0.875V24.562H0.729Zm2.479,0c0.014,0.129-.023.089,0.194,0.1v-0.05Zm1.652,0.05a0.328,0.328,0,0,1-.049.2,0.245,0.245,0,0,0-.049-0.15,0.245,0.245,0,0,1-.049.15c-0.04-.162.024-0.076-0.1-0.15v0.249H4.666c0.085-.136,0-0.02.194,0v-0.1A0.149,0.149,0,0,0,4.86,24.612Zm-3.694.05v0.15a1.506,1.506,0,0,1,.34,0v-0.1H1.312A0.244,0.244,0,0,0,1.166,24.661ZM1.6,24.711v0.1H1.75v-0.1H1.6Zm1.458,0.15a0.245,0.245,0,0,0-.049-0.15,0.563,0.563,0,0,1-.146.1v0.05H3.062Zm0.1-.15v0.15a0.28,0.28,0,0,0,.194,0,0.181,0.181,0,0,0,.049-0.1A0.743,0.743,0,0,0,3.159,24.711ZM2.139,27.4H2.43V27.055a0.806,0.806,0,0,1-.292-0.05v0.4Zm0.486-.249V27.4a1.442,1.442,0,0,0,1.118,0A4.644,4.644,0,0,0,2.625,27.155Z" transform="translate(0 0.516)"/>
</svg>
