<svg xmlns="http://www.w3.org/2000/svg" width="40" height="40" viewBox="0 0 40 40">
  <defs>
    <style>
      .cls-1 {
        fill: #fff;
        fill-rule: evenodd;
      }
    </style>
  </defs>
  <path id="us_adats_bradley_ico" class="cls-1" d="M12.049,10.555a4.832,4.832,0,0,1-.612-0.09,0.152,0.152,0,0,1-.031-0.09,1.385,1.385,0,0,0,.183-0.482h0.061a1.432,1.432,0,0,1,.7.512,1.243,1.243,0,0,0-.061.663,0.544,0.544,0,0,1-.336.151c-0.041-.08-0.055-0.094-0.122-0.06a0.614,0.614,0,0,0-.122.09,5.616,5.616,0,0,1-.887-0.151,4.951,4.951,0,0,0-.734.181C9.623,11.4,9.15,11.4,8.716,11.549v0.03H9.083a4.391,4.391,0,0,1,.612.03c0.344,0,.533-0.093.948-0.09v-0.09a0.69,0.69,0,0,1,.459-0.09,1.787,1.787,0,0,0,.673.03v0.753a2.5,2.5,0,0,0-.581.06v0.211a0.921,0.921,0,0,1-.887.181,1.016,1.016,0,0,0-.275-0.151l-0.092.121h0.214a2.349,2.349,0,0,1,.122.3,0.338,0.338,0,0,0-.092.362H10.092a4.515,4.515,0,0,0-.061.633,7.728,7.728,0,0,1,.8-0.03l0.031-.06a0.117,0.117,0,0,1-.061-0.09,0.187,0.187,0,0,0,.061-0.06l0.092,0.03-0.031.181h0.7v-0.06a0.152,0.152,0,0,1-.031-0.09,0.553,0.553,0,0,1,.153-0.09c0.024,0.021.068,0.04,0.092,0.06,0.029,0.041,0,.123.03,0.181,0.061,0.109.135,0.007,0.153,0.211a1.136,1.136,0,0,0,0,.783c0.007,0.105-.059.125-0.061,0.271,0.449,0,.865.059,1.376,0.06V11.61h3.089V11.7a0.165,0.165,0,0,1,.153.09h0.948a4.635,4.635,0,0,0,.765.3,0.144,0.144,0,0,0,.03.09A0.338,0.338,0,0,1,18.593,12a0.42,0.42,0,0,1,.122.211h0.306V11.941a3.954,3.954,0,0,1,1.346-.06,0.111,0.111,0,0,0,.061.03l0.031,0.3h0.428a3.264,3.264,0,0,0,.612.452h0.428v0.12c2.82,0,5.632.057,8.318,0.06l0.031,0.362c-2.694,0-5.562.057-8.349,0.06v0.12H21.468c-0.4.5-1.088,0.428-1.988,0.422v0.542h0.153v0.271h0.153v0.121H19.633v0.181h1.988a5.893,5.893,0,0,0,.7.06c0.2-.064.43-0.21,0.673-0.271a2.37,2.37,0,0,1,2.171.723,0.771,0.771,0,0,1,.214-0.06l0.153,0.542h0.122l0.031,0.09c0.053,0.1-.042.207,0,0.361a5.369,5.369,0,0,0,.214.573,0.6,0.6,0,0,0-.245.09,0.152,0.152,0,0,1,.031.09H25.6v0.06a6.041,6.041,0,0,0-.275.874,0.919,0.919,0,0,0-.031.331,0.6,0.6,0,0,0,.245.151,0.3,0.3,0,0,1-.092.181c-0.084.057-.227,0.059-0.306,0.12a0.322,0.322,0,0,0-.092.181c0.076,0.043.046,0.077,0.122,0.12a0.321,0.321,0,0,0,.184.06,0.178,0.178,0,0,0,.061.12,0.4,0.4,0,0,0-.214.03c0.1,0.058.1,0.108,0.092,0.271H25.2l0.031,0.331a0.41,0.41,0,0,1-.214.09v0.331l1.04-.03a0.506,0.506,0,0,1,.031-0.181,4.1,4.1,0,0,0,.428.03l0.03,0.06a0.329,0.329,0,0,1,.183,0,0.4,0.4,0,0,0,.061.09,2.755,2.755,0,0,0,.734.03c0.009,0.148.119,0.1,0.336,0.09v-0.06a0.47,0.47,0,0,1-.031-0.241,0.158,0.158,0,0,1,.275.151,0.259,0.259,0,0,1,.031.151h1.988a0.087,0.087,0,0,0,.031.03,0.314,0.314,0,0,0,.031.181c0.208-.134.344,0.243,0.367,0.271a1.083,1.083,0,0,1,.092.09,0.617,0.617,0,0,1,.4-0.181,1.058,1.058,0,0,1,.245.181l0.55,0.211a1.131,1.131,0,0,1-.061.181,1.068,1.068,0,0,0-.184.151h0.031a2.242,2.242,0,0,0,1.131.512,2.3,2.3,0,0,1,.642-0.3,0.671,0.671,0,0,1,.245.241c0.053,0.166-.1.237,0.031,0.331,0.038-.156.1-0.185,0.306-0.181a5.342,5.342,0,0,0,.918.482A11.122,11.122,0,0,0,37,23.841c0.554,0.177,1.122.284,1.651,0.452a0.789,0.789,0,0,1,.459.151,0.794,0.794,0,0,0-.214.422,1.452,1.452,0,0,1,.4.512,0.414,0.414,0,0,1-.061.211c0.171,0.043.252,0.146,0.428,0.181a0.858,0.858,0,0,1,.092.392,0.82,0.82,0,0,0-.122.361c0.064,0.266.258,0.588,0.336,0.934H39.908a0.216,0.216,0,0,0-.214-0.06v0.06a0.429,0.429,0,0,1,.153.3,0.27,0.27,0,0,1-.092.09,2.626,2.626,0,0,1,.153.452,0.53,0.53,0,0,0-.031.361c0.055,0.086.1,0.015,0.122,0.181l-0.092.03a0.157,0.157,0,0,1-.092.03,2.251,2.251,0,0,1-.061.392,1,1,0,0,0-.275.361c0.048,0.057.058,0.062,0.031,0.121a0.239,0.239,0,0,1-.061.09,0.235,0.235,0,0,0-.153-0.03,0.788,0.788,0,0,0-.275.3l-0.092-.03v0.06a1.862,1.862,0,0,0-.275.06c-0.047.034-.046,0.154-0.092,0.181a1.035,1.035,0,0,1-.245,0,0.709,0.709,0,0,0-.122.151,0.43,0.43,0,0,1-.245.03,3.761,3.761,0,0,0-.55.271l-0.061.121-0.214.03a3.488,3.488,0,0,0-.55.241,0.944,0.944,0,0,0-.031.12,2.251,2.251,0,0,1-.4.09c-0.112.056-.569,0.384-0.612,0.392a1.723,1.723,0,0,0-.551.181,0.815,0.815,0,0,0-.122.151c-0.074.062-.325,0.066-0.489,0.151a2.923,2.923,0,0,0-.306.151c-0.031.021-.035,0.1-0.061,0.12a0.521,0.521,0,0,1-.275.03c-0.2.053-.505,0.242-0.7,0.3a1,1,0,0,1-.306-0.06c-0.394.036-.859,0.047-1.193,0.06-0.014-.086-0.157-0.067-0.336-0.06a3.44,3.44,0,0,1-.612.06,0.473,0.473,0,0,0-.336-0.06l-0.03.06a0.342,0.342,0,0,1-.245-0.06,2.307,2.307,0,0,1-.367.06,0.356,0.356,0,0,0-.275-0.06,0.4,0.4,0,0,1-.275.06,0.107,0.107,0,0,0-.153-0.06,0.331,0.331,0,0,1-.275.06c-0.036-.016.023-0.048-0.061-0.06a1.407,1.407,0,0,1-.459.06,6.021,6.021,0,0,0-1.284,0,7.552,7.552,0,0,0-.826-0.03,2.317,2.317,0,0,0-.459,0c-0.037.012-.011,0.067-0.092,0.06a0.865,0.865,0,0,0-.4-0.06,4.882,4.882,0,0,1-1.162,0,1.163,1.163,0,0,0-.336.06,0.687,0.687,0,0,0-.367-0.06c-0.04.013-.024,0.077-0.122,0.06a0.425,0.425,0,0,0-.336-0.06l-0.031.06a2.341,2.341,0,0,0-.459-0.06l-0.031.06c-0.094.023-.205-0.067-0.336-0.06a0.728,0.728,0,0,0-.153.06h-0.03a0.724,0.724,0,0,0-.367-0.06,1.879,1.879,0,0,1-.7,0,1.039,1.039,0,0,0-.336.06,0.707,0.707,0,0,0-.367-0.06c-0.037.012-.011,0.067-0.092,0.06a1.164,1.164,0,0,0-.306-0.06,0.6,0.6,0,0,1-.153.06,0.836,0.836,0,0,0-.367-0.06l-0.061.06a0.508,0.508,0,0,1-.183-0.06,1.249,1.249,0,0,0-.336.06,0.66,0.66,0,0,0-.367-0.06l-0.031.06a2.7,2.7,0,0,0-.428-0.06,0.3,0.3,0,0,1-.183.06H17.339V32.91a0.336,0.336,0,0,0-.275.06,0.294,0.294,0,0,1-.214-0.06,0.448,0.448,0,0,0-.306.06,0.927,0.927,0,0,0-.367-0.06l-0.031.06H16.055a0.509,0.509,0,0,0-.306-0.06,0.259,0.259,0,0,1-.214.06H15.5a0.335,0.335,0,0,0-.275-0.06,0.6,0.6,0,0,1-.153.06,0.5,0.5,0,0,0-.245-0.06l-0.031.06a3.052,3.052,0,0,0-.489-0.06,0.372,0.372,0,0,1-.245.06c-0.053-.011-0.04-0.091-0.153-0.06l-0.031.06H13.792a1.192,1.192,0,0,0-.245-0.06,2.06,2.06,0,0,1-.428.06V32.91a0.614,0.614,0,0,0-.245.06,0.25,0.25,0,0,1-.122,0V32.91a0.538,0.538,0,0,0-.367.06,0.255,0.255,0,0,1-.214-0.06,2.8,2.8,0,0,0-.367.06c-0.014-.085-0.13-0.067-0.306-0.06-0.168.137-.216-0.03-0.367,0l-0.031.06a2.188,2.188,0,0,0-.55-0.06,0.319,0.319,0,0,1-.245.06c-0.03-.011.009-0.076-0.092-0.06a1.248,1.248,0,0,1-.275.06c-0.014-.085-0.13-0.067-0.306-0.06-0.139.12-.183,0.03-0.275,0a0.846,0.846,0,0,0-.214.06,3.534,3.534,0,0,0-.887-0.12,0.985,0.985,0,0,1-.489-0.241c-0.118-.062-0.207-0.12-0.306-0.181a0.145,0.145,0,0,1-.122.03,1.016,1.016,0,0,1-.153-0.181,2.028,2.028,0,0,0-.734-0.331v-0.09a3.148,3.148,0,0,1-.52-0.3,0.129,0.129,0,0,0-.122.03l-0.031-.09a0.155,0.155,0,0,1-.122,0,0.31,0.31,0,0,0-.092-0.151c-0.185-.116-0.466-0.151-0.642-0.271a0.054,0.054,0,0,1,0-.09l-0.245-.09A1.829,1.829,0,0,0,4.4,30.68l-0.122.03a3.456,3.456,0,0,1-.55-0.09,2.729,2.729,0,0,0-.612-0.482,1.441,1.441,0,0,1-.52-0.12,2.43,2.43,0,0,0-.031.663,0.108,0.108,0,0,0-.031.06H2.416V30.68a1.984,1.984,0,0,1-.031-0.753,3.007,3.007,0,0,1-.734.06,0.981,0.981,0,0,1-.336-0.723A1.812,1.812,0,0,1,1.5,28.993a0.678,0.678,0,0,0,.367-0.241,1.256,1.256,0,0,1,.52.181,0.956,0.956,0,0,0,.153.241v-0.12a0.322,0.322,0,0,1-.031-0.181H2.63v-0.06a3.344,3.344,0,0,1-.092-0.331,0.287,0.287,0,0,1-.275.121,0.473,0.473,0,0,0-.092-0.151,2.3,2.3,0,0,1,.153-0.422,2.134,2.134,0,0,0-.245-0.392v0.03H2.049a0.416,0.416,0,0,0-.061-0.241v0.03c-0.082.121-.063,0.34-0.153,0.452V27.758A0.919,0.919,0,0,0,1.9,27.517a0.9,0.9,0,0,0,.122-0.572l-0.092.03L1.9,26.914l0.031-.09a0.437,0.437,0,0,1-.183-0.12,0.269,0.269,0,0,0,.214-0.181,0.258,0.258,0,0,0,.031-0.151H1.835v-0.09c-0.416.042-.715,0.175-1.162,0.211A2.184,2.184,0,0,0,.55,25.83H0.489l0.031-.151a3.751,3.751,0,0,0-.061-0.693c-0.074-.3-0.061-0.661-0.153-0.994a2.174,2.174,0,0,0-.153-0.271l0.061-.331C0.2,23.2.128,23.017,0.122,22.787l0.245-.03V22.7A2.19,2.19,0,0,1,0,21.4a6.117,6.117,0,0,0,1.774-.331v-0.09H1.468a1.155,1.155,0,0,0-.061-0.331H1.59a1.16,1.16,0,0,1,.581-0.09,0.9,0.9,0,0,0,.031.211H2.294c0.034-.087.005-0.055,0.092-0.09v0.09H2.538c0.025-.1-0.015-0.046.061-0.09a1.436,1.436,0,0,0,.887.09V20.045a1.823,1.823,0,0,1,.367.211V20.045c0.183,0,.968.053,1.04,0.03,0.05-.016.158-0.122,0.214-0.151a3.726,3.726,0,0,1,.673-0.241,0.983,0.983,0,0,1,.581.09H6.972v-0.12H7.034v0.12c0.564,0,1.025.074,1.529,0.09a1.512,1.512,0,0,1,.245.9h3.731v-0.09c0.732,0.006,1.305-.106,1.927-0.12V20.2a8.907,8.907,0,0,0-2.569-.3,1.04,1.04,0,0,1-.061-0.241,0.814,0.814,0,0,0,0-.663A0.232,0.232,0,0,1,11.9,18.78H7.859a0.411,0.411,0,0,0-.214-0.03v-0.09H7.523a0.449,0.449,0,0,1,.061-0.271,2.809,2.809,0,0,0-.061-0.964H7.737V17.032H7.645a4.507,4.507,0,0,0,.031-0.482,0.446,0.446,0,0,1-.122-0.181c0.015-.147.1-0.222,0.122-0.361A0.26,0.26,0,0,1,7.309,15.8c0.077-.044.056-0.038,0.061-0.151a0.951,0.951,0,0,0,.214-0.03V15.345a1.148,1.148,0,0,1-.031-0.452,0.149,0.149,0,0,1-.092-0.03h0.4V14.652H7.492l0.092-.572a0.508,0.508,0,0,0,.275-0.271A0.141,0.141,0,0,1,7.8,13.658a0.271,0.271,0,0,0,.092-0.09,0.105,0.105,0,0,1,.061.03l0.092,0.03a0.6,0.6,0,0,1-.031.211H8.1c0-.227-0.016-0.444-0.031-0.633H7.982a1.8,1.8,0,0,0-.092-0.482,0.2,0.2,0,0,0,.122-0.181,0.5,0.5,0,0,0,.4-0.06H6.82c0.019-.161.067-0.117,0.092-0.271H7.37V12.3l0.7-.06v-0.06a0.73,0.73,0,0,1-.428-0.512,0.915,0.915,0,0,0,.122-0.542H7.706v0.09c-0.1-.025-0.047.015-0.092-0.06a4.979,4.979,0,0,0,.153-0.723l-0.031-.151a19.574,19.574,0,0,0,.4-1.958H8.257a0.965,0.965,0,0,1,.061-0.181c0.053,0.027.039,0.027,0.092,0A4.361,4.361,0,0,1,9.144,7c0.3,0.219,1.077.336,1.1,0.783a3.859,3.859,0,0,0-.306,1.6,2.923,2.923,0,0,0,.031.482,2.956,2.956,0,0,1,.489.844,6.925,6.925,0,0,1-.887.331v0.03H9.755a9.12,9.12,0,0,1,1.5-.3c0.221,0.045.515,0.123,0.734,0.151v-0.06A0.875,0.875,0,0,0,12.049,10.555ZM24.771,32.97h0.061V33H24.771V32.97Z"/>
</svg>
