<svg xmlns="http://www.w3.org/2000/svg" width="40" height="40" viewBox="0 0 40 40">
  <defs>
    <style>
      .cls-1 {
        fill: #fff;
        fill-rule: evenodd;
      }
    </style>
  </defs>
  <path id="Color_Fill_1" data-name="Color Fill 1" class="cls-1" d="M40,26H4.625a2.2,2.2,0,0,0-1.049-.514l-0.1.233a0.165,0.165,0,0,1-.1-0.047,0.31,0.31,0,0,1-.048-0.187,1.3,1.3,0,0,0-.572.047H3.29v0.42H1.478a4.469,4.469,0,0,1-.048-1.214H1.478V24.693a0.172,0.172,0,0,0,.191,0,0.466,0.466,0,0,1-.381-0.327c-0.27-.334.064-1.114,0.1-1.541H1.526v-0.28H1.573a0.327,0.327,0,0,0,.191.047A0.3,0.3,0,0,1,1.812,22.4a0.3,0.3,0,0,0,.048.187c0.044-.1.025,0.032,0.1-0.047A0.167,0.167,0,0,0,2,22.451c-0.189-.035-0.153,0-0.191-0.187H1.859c0.069,0.119-.01.053,0.143,0.093V22.031H1.955v0.047c-0.037.09-.048-0.093-0.048-0.093A7.678,7.678,0,0,1,4,20.444v0.093a12.546,12.546,0,0,0-.572,2.008H5.626V22.5H4L3.957,22.4a6.082,6.082,0,0,1,1.573-.047,3.719,3.719,0,0,1,.763-0.047,1.718,1.718,0,0,0,.286-0.187c0.429-.175,1.413.1,1.716-0.047a0.119,0.119,0,0,1,.1.047,0.333,0.333,0,0,1,.1.374H8.772a1.255,1.255,0,0,0-.048-0.42,0.405,0.405,0,0,0,.238-0.047c-0.658-.009-1.42-0.045-2.145-0.047v-0.14c0.874,0.005,1.712-.038,2.479-0.093a1.2,1.2,0,0,1,.286-0.514,0.246,0.246,0,0,1,.143-0.047v0.42h1.287a0.222,0.222,0,0,1,.048-0.14c0.061,0.151.042,0.123,0.238,0.14v0.467H10.918a1.148,1.148,0,0,0-.048.374H11.3c0.038-.6.288-0.985,0.286-1.588h0.143v-0.14H11.585a1.444,1.444,0,0,1-.1-0.934v0.233c0.171-.019.12,0.022,0.191-0.093a2.456,2.456,0,0,1,0-.42,0.614,0.614,0,0,1,.191.047l0.048-.28a1.188,1.188,0,0,1-.238-0.187,4.255,4.255,0,0,0,.62-1.868H12.253v0.093c-0.289.288-.822,1.491-1,1.587V18.856H11.2l0.048-.14a7.817,7.817,0,0,0,.858-1.4,1.9,1.9,0,0,0,.238-0.28,5.331,5.331,0,0,1,.143-1.261,2.867,2.867,0,0,1-.048.607c0.123,0.013.085-.022,0.1,0.187a0.4,0.4,0,0,1,.048.233,12.809,12.809,0,0,0,2.718-.28c0.655-.145,1.318-0.1,1.907-0.233l1.335-.14c1.363-.324,2.886-0.438,4.2-0.794,0.819-.223,1.632-0.307,2.384-0.514a1.971,1.971,0,0,0,.62-0.14c0.108-.172.03-0.528,0.143-0.7a0.173,0.173,0,0,0,.1.047,11.286,11.286,0,0,0,1.335,1.914,3.726,3.726,0,0,0,.1.607,4.739,4.739,0,0,0,.811.373,20.01,20.01,0,0,0,2.336,1.167c1.128,0.486,2.284,1.142,3.433,1.634,1.757,0.753,3.549,1.362,5.34,2.1a1.1,1.1,0,0,1,.048-0.514v0.981c0.011,0.033.109,0.021,0.1,0.093a3.151,3.151,0,0,0-.143,1.4A6.11,6.11,0,0,1,40,26ZM25.936,14.234v0.42a0.688,0.688,0,0,0,.191.047V14.607C26.039,14.51,26.019,14.336,25.936,14.234Zm0,0.514a0.271,0.271,0,0,0,0,.187,6.413,6.413,0,0,0,1.24.981c-0.3-.5-0.727-0.924-1-1.447H26.126V14.56c0.063,0.081.082,0.075,0.048,0.14A0.42,0.42,0,0,1,25.936,14.747Zm-0.334,1.4,0.143-1.354h-0.1a9.471,9.471,0,0,1-2.1.467c-1.613.445-3.461,0.58-5.149,0.98-0.578.137-1.188,0.11-1.716,0.233-0.649.151-1.35,0.1-1.955,0.234a3.872,3.872,0,0,0-1,.093,22.446,22.446,0,0,0,3.909-.14c0.64-.135,1.329.029,1.907-0.093l2.193-.093c0.56-.119,1.2-0.008,1.812-0.14A10.592,10.592,0,0,1,25.6,16.148Zm0.191-1.261a0.484,0.484,0,0,0,.048.28A0.484,0.484,0,0,0,25.793,14.887Zm0.191,0.887H26.7v0.187a0.9,0.9,0,0,0,.524.14V16.055a8.3,8.3,0,0,0-1.335-1.027v0.28a1.079,1.079,0,0,1,0,.654h0.1V15.774ZM25.793,15.4l-0.1.7h0.1V16.055A0.926,0.926,0,0,0,25.793,15.4Zm0.572,0.514H26.6V15.868H26.555V15.821a1.06,1.06,0,0,1-.286,0v0.047H26.222a0.254,0.254,0,0,0,.143.187v-0.14Zm-13.4.98L12.92,19.043a10.466,10.466,0,0,0,2.289-.233c0.655-.145,1.318-0.1,1.907-0.233l1.669-.187c1.124-.267,2.385-0.38,3.48-0.654,0.868-.217,1.723-0.285,2.527-0.514a3.588,3.588,0,0,0,1-.234,2.672,2.672,0,0,1-.191-0.794H25.364a3.958,3.958,0,0,1-1,.093c-0.709.152-1.515,0.023-2.288,0.187-0.636.135-1.458,0.052-2.1,0.187H19.118c-0.619.131-1.363-.052-2.05,0.093-0.357.076-.918-0.041-1.335,0.047A15.843,15.843,0,0,1,12.968,16.895Zm12.777-.7a0.493,0.493,0,0,0,.1.42v-0.28c-0.092-.107-0.064-0.015,0-0.14h-0.1Zm1.049,0a0.725,0.725,0,0,0,.429.187,0.178,0.178,0,0,1,.1-0.14V16.195H26.794Zm-0.906.047c0.027,0.261.007,0.521,0.048,0.747a0.167,0.167,0,0,0,.048-0.093A0.618,0.618,0,0,0,25.888,16.241Zm0.191,0v0.654h0.1c0.078-.118,0-0.02.143,0a0.485,0.485,0,0,1,.048-0.42,16.054,16.054,0,0,1-.286,1.821,0.234,0.234,0,0,1,.143.047c-0.171.019-.12-0.022-0.191,0.093h0.334V18.3H26.6c0-.3-0.006-0.337,0-0.607a0.888,0.888,0,0,0-.286-0.047,0.159,0.159,0,0,1-.048.093V17.549h0.048a0.526,0.526,0,0,0,.286.047V16.988a0.848,0.848,0,0,1-.191-0.093H26.46c0.087-.079.129,0.038,0.143-0.233a1.43,1.43,0,0,1,0-.42H26.079Zm0.572,0v0.934H26.7V17.128a1.8,1.8,0,0,0,.429-0.7C26.936,16.381,26.841,16.293,26.651,16.241Zm-0.191.14a0.382,0.382,0,0,1,0,.374V16.381Zm-0.334.047a0.9,0.9,0,0,1,.1.187h-0.1V16.428Zm1.049,0.093a2.409,2.409,0,0,0-.524,1.728H26.7V18.2A2.993,2.993,0,0,0,27.175,16.521Zm-14.732.047-0.048.14h0.1A0.223,0.223,0,0,0,12.443,16.568Zm14.875,0.047a3.42,3.42,0,0,1-.667,1.728c-0.076.043-.148-0.045-0.238,0.093a2.108,2.108,0,0,1,.62.047,1.524,1.524,0,0,0,0,.747H26.746v0.28h0.572V19.323H27.6v0.093a3.791,3.791,0,0,0,.143.794,3.514,3.514,0,0,1,.858-0.747l0.334-.373c0.445-.329.866-0.67,1.287-1.027a20.316,20.316,0,0,1-2.1-1.027A2.386,2.386,0,0,0,27.318,16.615Zm-14.732.28c0.016,0.471,0,1.448,0,2.195h0.238c0.005-.68.046-1.45,0.048-2.195H12.586Zm13.54,0.093a0.4,0.4,0,0,1-.191.093,0.5,0.5,0,0,0-.048.28c0.077,0.121.061,0.355,0.143,0.467A1.849,1.849,0,0,0,26.126,16.988Zm0.381,0.047a0.634,0.634,0,0,1,0,.514V17.035Zm-13.588,2.1,0.048,2.008h-0.1V19.6H12.825a8.059,8.059,0,0,1-.191,1.167c-0.013.07,0.09,0.207,0.1,0.374a1.793,1.793,0,0,1-.286.14c-0.01-.065.039,0.019,0.048-0.047,0.092-.036-0.1-0.047-0.1-0.047v0.887c0.045,0.089.018,0.055,0,.187h0.191V22.171a0.2,0.2,0,0,1-.048-0.28c0.13-.464,1.411-0.3,2-0.28a2.294,2.294,0,0,1,.238.467,1.051,1.051,0,0,0-.62.14h0.381a6.2,6.2,0,0,1,2.336-.233,1.255,1.255,0,0,0,.048.42h0.048V21.938a0.234,0.234,0,0,0,.143-0.047l-2.1-.047V21.7c0.811,0,1.638-.041,2.384-0.047V21.611H17.354V21.564c-0.5-.034-0.931-0.218-1.526-0.233V21.1h0.1c0.045,0.158.018,0.145,0.191,0.187,0.159-.222.511,0.036,0.668-0.187H16.5a0.525,0.525,0,0,0-.286-0.047V20.957c0.258,0.005.314,0,.381-0.187a2.067,2.067,0,0,1-.953-0.14,0.31,0.31,0,0,1-.048-0.187h0.048V20.4a3.928,3.928,0,0,1,.381.187l0.62-.047c0.008-.223.1-0.154,0.429-0.14v0.14a0.284,0.284,0,0,0,.191-0.093v0.373H17.211c-0.077-.128,0-0.045-0.191-0.047v0.047a0.167,0.167,0,0,1,.048.093,2.769,2.769,0,0,1,.477.093H17.5v0.047a0.328,0.328,0,0,0-.238.14h1.192a0.524,0.524,0,0,0,.381-0.093H18.308v-0.14h0.334v-0.14l-0.906-.093a0.489,0.489,0,0,1-.1-0.233,0.76,0.76,0,0,1,.238-0.047,1.229,1.229,0,0,0,.858.14V20.49s-0.186-.009-0.1-0.047h0.1a1.91,1.91,0,0,1,.381-0.047v0.047h0.048l-0.048.14h0.143a0.223,0.223,0,0,1,.048-0.14V20.77H19.261v0.047c-0.151,0-.064-0.079-0.143.047,0.109,0.068.4,0.063,0.524,0.14H19.595v0.047a1.313,1.313,0,0,0-.286.14,5.706,5.706,0,0,1,1.621.047v0.093a0.627,0.627,0,0,0-.429.093h0.143a1.129,1.129,0,0,1,.477-0.047V21.331a0.274,0.274,0,0,1,0-.28h-0.1a4.485,4.485,0,0,1-.477,0V20.49a7.74,7.74,0,0,1,.81,0V20.444a1.362,1.362,0,0,1-.381-0.327H20.93V20.21a0.235,0.235,0,0,0-.048.14,0.234,0.234,0,0,1-.143-0.047,1.887,1.887,0,0,1-.143-0.467l-0.143.047a3.248,3.248,0,0,0-1.192-.84,0.844,0.844,0,0,1-.1.654V18.949a0.686,0.686,0,0,1,.191-0.047,3.319,3.319,0,0,0,.906.467,7.723,7.723,0,0,0,1.573.934c-0.012.144-.063,0.238,0.1,0.327,0.067,0.041.267,0.051,0.334,0.093a0.513,0.513,0,0,0-.286.047h0.048a0.79,0.79,0,0,0,.429,0,0.3,0.3,0,0,0,.048.187V20.444H22.455V20.4a0.406,0.406,0,0,1-.238-0.047h0.238a4.458,4.458,0,0,0,0-.887H22.5V19.51c0.095,0.154,0,.548.1,0.7a5.346,5.346,0,0,1,0-.98,1.893,1.893,0,0,1,1,0,1.779,1.779,0,0,0,.048,1.027c0.14-.018.06-0.076,0.143,0.047-0.238.149,0.105,1.017,0.191,1.354h0.1V21.611h0.048a1.653,1.653,0,0,1,0-.327h1.239a16.1,16.1,0,0,0,.334-2.848h0.238a2.229,2.229,0,0,0-.191-1.354,3.46,3.46,0,0,1-.858.187c-0.781.218-1.629,0.3-2.479,0.514-1.012.257-2.119,0.3-3.194,0.56-0.944.231-1.989,0.193-3,.42A24.131,24.131,0,0,1,12.92,19.136Zm13.159-2.054a0.167,0.167,0,0,1,.048.093H26.079V17.082Zm-0.048.14a0.168,0.168,0,0,1,.048.093H26.031V17.222Zm0.763,0h0.143v0.047H26.889a0.5,0.5,0,0,1-.048.467A2.052,2.052,0,0,0,26.794,17.222Zm-0.429.047h0.1l-0.048.14H26.365v-0.14Zm0,0.187a0.167,0.167,0,0,1,.048.093H26.365V17.455Zm0.1,0.28a0.461,0.461,0,0,1,0,.42v-0.42Zm-0.191.047h0.1v0.047A0.165,0.165,0,0,1,26.269,17.782Zm-13.921.093a5.069,5.069,0,0,0-.1.981h0.1V18.809A1.579,1.579,0,0,0,12.348,17.876Zm13.969,0a0.5,0.5,0,0,1,.048.28h-0.1V18.109A0.632,0.632,0,0,0,26.317,17.876Zm-14.112.047-0.286.934h0.1V18.809A1.473,1.473,0,0,0,12.205,17.922ZM27.08,20.4v0.327h0.143a0.482,0.482,0,0,1,.048-0.28c-0.005.266,0.019,0.3,0.191,0.373a0.514,0.514,0,0,1,.381,0,0.9,0.9,0,0,1,0,.42h0.286a0.223,0.223,0,0,1,.048-0.14v0.14h0.858a0.609,0.609,0,0,1,.191-0.28,0.326,0.326,0,0,0,.191.047v0.14a0.452,0.452,0,0,0,.381.14,7.86,7.86,0,0,0,2.574.233v0.093H31.085a0.526,0.526,0,0,1-.286.047v0.093h0.048c0.376,0.227,1.128-.13,1.573.047l0.1,0.14a11.543,11.543,0,0,0,2.479.093,0.224,0.224,0,0,0,.048.14V21.938l4.053-.047a0.223,0.223,0,0,1-.048.14,0.962,0.962,0,0,0-.715-0.093,14.706,14.706,0,0,1-2.479.047v0.14c1.111,0.008,2.113-.039,3.48-0.047V21.984a11.006,11.006,0,0,0-2.241-.887c-1.566-.657-3.2-1.256-4.72-2.008-0.5-.249-1-0.444-1.526-0.7a0.991,0.991,0,0,0-.572-0.233c-0.66.586-1.331,1.151-2.05,1.681-0.3.222-.532,0.539-0.858,0.747V20.49a0.289,0.289,0,0,0,.1-0.093H27.08ZM26.269,18.2a0.236,0.236,0,0,1,.048.14H26.269V18.2Zm-14.112.374-0.048.28h0.048V18.763A0.134,0.134,0,0,0,12.157,18.576Zm-0.286.327-0.048.233h0.1A0.385,0.385,0,0,0,11.871,18.9ZM11.49,19h0.1v0.047A0.164,0.164,0,0,1,11.49,19ZM22.932,19.09h0.1v0.047A0.165,0.165,0,0,1,22.932,19.09Zm0.191,0h0.1v0.047A0.165,0.165,0,0,1,23.123,19.09Zm-10.3.047H12.634v0.047H12.586a2.747,2.747,0,0,0,0,.84h0.048Zm-0.81.047v0.093h0.1V19.183h-0.1Zm0.381,0v0.093h0.048A0.159,0.159,0,0,0,12.4,19.183ZM25.84,19.23c-0.109.881-.386,1.155-0.143,1.868h0.048V20.35A1.536,1.536,0,0,0,25.84,19.23Zm-13.874.093-0.1.7h0.1l0.143-.654Zm7.962,0a0.551,0.551,0,0,0,.143.093A0.184,0.184,0,0,0,19.929,19.323Zm6.2,0.467a0.234,0.234,0,0,0-.143.047c0.033,0.047.061,0.187,0.1,0.233a0.384,0.384,0,0,1,.048-0.233v0.28c-0.155.039-.073-0.023-0.143,0.093a0.3,0.3,0,0,0,.143-0.047,2.075,2.075,0,0,0,.048-0.84H26.126c-0.053.077,0,.029-0.1,0v0.42h0.048a0.223,0.223,0,0,1,.048-0.14V19.79Zm0.1-.467v0.42h0.1c0.046-.012.018-0.037,0.048,0,0.031-.04.064-0.147,0.1-0.187a0.184,0.184,0,0,0,.1.187,1.969,1.969,0,0,0-.048-0.42,0.223,0.223,0,0,1-.048.14v-0.14H26.222Zm0.381,0a0.3,0.3,0,0,0,.048.187A0.3,0.3,0,0,0,26.6,19.323ZM12.4,19.37a0.222,0.222,0,0,0,.048.14A0.224,0.224,0,0,0,12.4,19.37Zm13.969,0a0.235,0.235,0,0,1,.048.14H26.365V19.37Zm-6.245.047a1.144,1.144,0,0,0,.334.233A0.727,0.727,0,0,0,20.119,19.416Zm-7.914.093a0.222,0.222,0,0,0,.048.14A0.224,0.224,0,0,0,12.205,19.51Zm14.112,0.047a0.167,0.167,0,0,1,.048.093H26.317V19.556Zm-14.16.14v0.327h0.1V19.79C12.211,19.755,12.2,19.731,12.157,19.7Zm8.439,0a0.337,0.337,0,0,0,.238.14V19.743h-0.1A0.247,0.247,0,0,0,20.6,19.7Zm6.055,0.28v-0.14L26.46,19.79v0.047c0.118,0.06.032-.02,0.1,0.093H26.412V19.79H26.365v0.047l-0.143-.047v0.28h0.1C26.337,19.948,26.394,19.969,26.651,19.977Zm-5.769-.14V19.93c0.242,0.084.284,0.287,0.524,0.373V20.257A4.9,4.9,0,0,1,20.882,19.837ZM1,19.93a1.747,1.747,0,0,1,.143.7A5.177,5.177,0,0,0,.1,20.77V20.677A1.074,1.074,0,0,1,0,20.163H0.048V20.117A1.942,1.942,0,0,0,1,19.93Zm19.69,0a0.319,0.319,0,0,0,.143.233V20.07h0.048c0.047-.047-0.047-0.046-0.048-0.047A0.551,0.551,0,0,0,20.691,19.93Zm-8.868.14v0.093h0.048V20.07H11.824Zm0.763,0c-0.038.224-.187,0.384,0.048,0.514V20.35A0.17,0.17,0,0,0,12.586,20.07Zm-1.049.467a0.323,0.323,0,0,0,.238,0,0.31,0.31,0,0,0,.048-0.187c-0.033-.036-0.062-0.1-0.1-0.14a0.343,0.343,0,0,0-.191-0.093V20.3A0.5,0.5,0,0,1,11.538,20.537Zm14.684-.42V20.21h0.048V20.117H26.222Zm-14.207.14a1,1,0,0,1-.1.327h0.238V20.49A0.472,0.472,0,0,0,12.014,20.257Zm0.143,0a0.98,0.98,0,0,0,.1.327C12.259,20.4,12.279,20.328,12.157,20.257Zm0.238,0a0.593,0.593,0,0,0,.048.327A0.594,0.594,0,0,0,12.4,20.257Zm9.011,0.093c0.079,0.052.051,0.083,0.1,0h-0.1ZM23.552,20.4a3.86,3.86,0,0,0,.191.841H23.695V21.144c-0.058-.074-0.083-0.207-0.143-0.28v0.747h0.1a0.419,0.419,0,0,0,.238.047V21.611a0.6,0.6,0,0,1-.143-0.373H23.79a0.159,0.159,0,0,0,.048.093A2.332,2.332,0,0,0,23.552,20.4Zm2.956,0.28V20.4a1.088,1.088,0,0,1-.477,0V20.49h0.048A0.734,0.734,0,0,0,26.508,20.677Zm0.048-.28v0.187H26.6a0.558,0.558,0,0,0,.191-0.187H26.746v0.047C26.58,20.4,26.709,20.5,26.555,20.4Zm-0.667.093a1.058,1.058,0,0,0,.1.42V20.49h-0.1Zm0.953,0a0.657,0.657,0,0,0,.048.233h0.048V20.49h-0.1Zm-0.477.047a0.167,0.167,0,0,1,.048.093H26.365V20.537Zm0.381,0a0.174,0.174,0,0,1-.1.047,0.174,0.174,0,0,0,.1.047v0.047h0.048A0.222,0.222,0,0,0,26.746,20.537ZM2.193,22.358H2.384c0.3-.576,1.177-1.177,1.383-1.728H3.814V20.584H3.766A9.481,9.481,0,0,1,2.05,21.844a2.194,2.194,0,0,1,0,.514h0.1a0.223,0.223,0,0,1,.048-0.14v0.14Zm23.838-1.774a0.222,0.222,0,0,0,.048.14V20.63l0.048-.047h-0.1ZM1.144,20.63a0.184,0.184,0,0,1,0,.233V20.63Zm25.03,0v0.093C26.251,20.668,26.232,20.7,26.174,20.63Zm-14.255.093c0.063,0.157.073,0.135,0.286,0.14V20.77A0.894,0.894,0,0,0,11.919,20.724Zm0.477,0c0.04,0.152-.023.071,0.1,0.14v-0.14H12.4Zm0.143,0a0.223,0.223,0,0,0,.048.14v-0.14H12.539Zm9.249,0a1.637,1.637,0,0,0,.477.42,0.454,0.454,0,0,1,.1-0.233H22.217c-0.062.115,0.021,0.032-.1,0.093A0.526,0.526,0,0,0,21.788,20.724Zm4.291,0.047-0.048.14C26.124,20.854,26.137,20.845,26.079,20.77Zm13.206,0.047a0.167,0.167,0,0,1,.048.093H39.285V20.817Zm-38.093.047a0.185,0.185,0,0,1,0,.233V20.864Zm17.783,0a0.172,0.172,0,0,0,.1.047A0.173,0.173,0,0,0,18.975,20.864Zm2.86,0.047a1.8,1.8,0,0,1-.048.56,2.977,2.977,0,0,0,.572,0V21.377Zm-18.307.14c-0.249.416-.638,0.724-0.906,1.121H2.67V22.125c0.359-.236.511-0.693,0.858-0.934v0.093a8.193,8.193,0,0,0-.954,1.074H2.765c0.126-.189.345-0.293,0.477-0.467A4.822,4.822,0,0,0,3.671,21.1H3.623a0.289,0.289,0,0,1-.1.093C3.531,21.055,3.574,21.126,3.528,21.051Zm18.832,0a0.778,0.778,0,0,0,.048.28h0.1v-0.28H22.36ZM1.24,21.1a0.184,0.184,0,0,1,0,.233V21.1Zm15.638,0v0.093h0.286V21.1H16.877Zm2.193,0.047c0.082,0.041.061,0.042,0.143,0H19.07Zm7.2,0v0.093h0.048V21.191h0.048A0.172,0.172,0,0,0,26.269,21.144Zm0.143,0v0.093a0.3,0.3,0,0,0,.143-0.047H26.6V21.144H26.412Zm0.238,0v0.093C26.728,21.182,26.709,21.218,26.651,21.144Zm0.286,0v0.14h0.191v-0.14H26.937Zm-15.113.047a0.174,0.174,0,0,0,.1.047A0.173,0.173,0,0,0,11.824,21.191Zm0.191,0a0.174,0.174,0,0,0,.1.047A0.173,0.173,0,0,0,12.014,21.191Zm13.921,0.047v0.093h0.1V21.237h-0.1Zm-14.207.047-0.286,1.167h0.1l0.048-.187a2.017,2.017,0,0,0,.62.187V22.358a9.492,9.492,0,0,0,.048-1.074H11.728Zm-10.441.047a0.185,0.185,0,0,1,0,.233V21.331Zm15.447,0a0.173,0.173,0,0,0,.1.047A0.174,0.174,0,0,0,16.734,21.331Zm9.917,0v0.233h0.1A0.218,0.218,0,0,0,26.651,21.331Zm0.286,0v0.233h0.191V21.331H26.937ZM3.385,22.545l0.286-1.167H3.623v0.093a8.236,8.236,0,0,0-.763.887,0.351,0.351,0,0,1,.381.093H3.194a0.806,0.806,0,0,0-.477,0l-0.1.14H2.67A1.764,1.764,0,0,1,3.385,22.545Zm23.457-1.167a0.251,0.251,0,0,0,0,.187h0.048A0.329,0.329,0,0,0,26.842,21.377Zm-0.572.047v0.093h0.048V21.424H26.269Zm-8.963.047a0.173,0.173,0,0,0,.1.047A0.174,0.174,0,0,0,17.306,21.471Zm0.62,0a0.173,0.173,0,0,0,.1.047A0.174,0.174,0,0,0,17.926,21.471Zm3.576,0a0.242,0.242,0,0,0,.238.093A0.325,0.325,0,0,0,21.5,21.471Zm-1.859.047a0.141,0.141,0,0,0,.191,0H19.642Zm4.768,0a0.173,0.173,0,0,0,.1.047A0.174,0.174,0,0,0,24.41,21.518Zm0.143,0a0.4,0.4,0,0,0,.381,0H24.553Zm0.429,0a0.327,0.327,0,0,0,.334,0H24.982Zm-5.483.047a0.384,0.384,0,0,0,.048.233A0.384,0.384,0,0,0,19.5,21.564Zm8.343,0v0.093H27.89A0.158,0.158,0,0,0,27.843,21.564Zm-26.508.047a0.185,0.185,0,0,1,0,.233V21.611ZM30.417,21.7v0.514h0.1a0.835,0.835,0,0,1,.048-0.42,0.409,0.409,0,0,0,.191-0.14H30.274V21.7h0.143Zm-17.688,0a0.224,0.224,0,0,0,.048.14v0.047H12.92V21.7H12.729Zm0.238,0v0.187a0.614,0.614,0,0,1,.191.047V21.7H12.968Zm0.286,0v0.233h0.191V21.7H13.254Zm0.238,0v0.233h0.238V21.7H13.492Zm0.286,0v0.233h0.191V21.7H13.778Zm0.286,0v0.233a0.234,0.234,0,0,0,.143-0.047h0.048V21.7H14.064Zm0.238,0v0.187h0.191V21.7H14.3Zm9.44,0c0.082,0.041.061,0.041,0.143,0H23.743Zm-1.335.187v-0.14H22.265v0.093H22.217v0.047h0.191ZM1.383,21.844a0.184,0.184,0,0,1,0,.233V21.844Zm18.212,0-0.048.14H19.69V21.938C19.649,21.9,19.636,21.879,19.595,21.844Zm8.629,0.093v0.093h0.1V21.938h-0.1Zm-15.781.047a0.168,0.168,0,0,1,.048.093H12.443V21.984Zm6.722,0.233V21.984h-0.1v0.233c0.146,0.043.179,0.1,0.334,0.14V22.265A0.9,0.9,0,0,1,19.166,22.218Zm15.924-.187a0.222,0.222,0,0,0,.048.14,1.613,1.613,0,0,1,.667-0.047v-0.14ZM1.43,22.078a0.134,0.134,0,0,1,0,.187V22.078Zm0.667,0a0.235,0.235,0,0,1,.048.14H2.1v-0.14Zm-0.238.047a0.235,0.235,0,0,1,.048.14H1.859v-0.14Zm9.917,0a0.234,0.234,0,0,1,.143.047A0.234,0.234,0,0,1,11.776,22.125Zm0.858,0v0.14c0.186,0,.214.023,0.286-0.093H12.777A0.246,0.246,0,0,0,12.634,22.125Zm-0.953.047h0.1v0.047A0.165,0.165,0,0,1,11.681,22.171Zm1.478,0.047a0.174,0.174,0,0,0,.1.047A0.173,0.173,0,0,0,13.159,22.218Zm0.238,0a0.4,0.4,0,0,0,.381,0H13.4ZM1.43,22.311h0.1v0.233H1.478a0.173,0.173,0,0,0-.1-0.047A0.582,0.582,0,0,1,1.43,22.311Zm35.662,0a0.2,0.2,0,0,0,.238,0H37.092Zm0.286,0c0.082,0.041.061,0.041,0.143,0H37.378Zm0.667,0a1.8,1.8,0,0,0,1,0h-1Zm1.049,0a0.141,0.141,0,0,0,.191,0H39.094Zm-26.7.047v0.093c0.171-.02.12,0.022,0.191-0.093H12.4Zm0.238,0v0.093H12.92V22.358H12.634Zm22.265,0a0.174,0.174,0,0,0,.1.047A0.172,0.172,0,0,0,34.9,22.358Zm1,0a0.174,0.174,0,0,0,.1.047A0.172,0.172,0,0,0,35.9,22.358Zm0.191,0a0.327,0.327,0,0,0,.334,0H36.091ZM2.574,22.4a0.945,0.945,0,0,1-.191.093v0.093h0.1C2.562,22.475,2.6,22.516,2.574,22.4Zm10.584,0a0.142,0.142,0,0,0,.191,0H13.159Zm0.286,0a0.2,0.2,0,0,0,.238,0H13.445Zm-11.252.047c-0.155.039-.073-0.023-0.143,0.093l0.143,0.047v-0.14Zm14.589,0.14a0.141,0.141,0,0,0,.191,0H16.782Zm-8.1.093a0.173,0.173,0,0,0,.1.047A0.173,0.173,0,0,0,8.677,22.685Zm-3.957.047c0.082,0.041.061,0.041,0.143,0H4.72Zm0.191,0a0.173,0.173,0,0,0,.1.047A0.173,0.173,0,0,0,4.911,22.732Zm0.143,0a0.2,0.2,0,0,0,.238,0H5.054Zm-3.29.047a0.173,0.173,0,0,0,.1.047A0.173,0.173,0,0,0,1.764,22.778Zm0.572,0c0.082,0.041.061,0.042,0.143,0H2.336Zm0.238,0c0.082,0.041.061,0.042,0.143,0H2.574Zm0.286,0c0.082,0.041.061,0.042,0.143,0H2.861Zm0.62,0a0.173,0.173,0,0,0,.1.047A0.173,0.173,0,0,0,3.48,22.778Zm1.478,0.187a0.528,0.528,0,0,1,0,.28H5.2v-0.28H4.958ZM1.907,24.786a0.684,0.684,0,0,0,.715,0H1.907Zm0.81,0a0.223,0.223,0,0,0,.048.14A0.223,0.223,0,0,0,2.718,24.786Z"/>
</svg>
