<svg xmlns="http://www.w3.org/2000/svg" width="79.938" height="40" viewBox="0 0 79.938 40">
  <defs>
    <style>
      .cls-1 {
        fill: #fff;
        fill-rule: evenodd;
      }
    </style>
  </defs>
  <path id="Color_Fill_1" data-name="Color Fill 1" class="cls-1" d="M31.166,13.436a1.7,1.7,0,0,1,.516.043v0.086H31.553a0.8,0.8,0,0,0-.387-0.043c0,0.474.021,1.072,0,1.416H31.037a0.147,0.147,0,0,0-.043-0.086,1.545,1.545,0,0,0,.043-0.3H30.822a1.941,1.941,0,0,0-.043.558,2.78,2.78,0,0,1-.086,1.073H30.65a0.523,0.523,0,0,0-.086-0.472v0.043a1.234,1.234,0,0,0-.086.215H30.435c0.011-.266.079-0.256-0.215-0.257a0.712,0.712,0,0,1,0,.472,0.554,0.554,0,0,0-.043-0.3,0.207,0.207,0,0,1-.043.129l0.043-.3H30.005l-0.086.257H29.876V15.71H29.747a1.791,1.791,0,0,1-.129.6h0.043v0.043H29.7a0.277,0.277,0,0,1,.043-0.172c0.018,0.154-.02.108,0.086,0.172a0.665,0.665,0,0,1,.043-0.343,0.311,0.311,0,0,0,.086.343,0.533,0.533,0,0,1,0-.386,0.49,0.49,0,0,0,.129.386,0.444,0.444,0,0,1,.086-0.3v0.129c0,0.036-.021.037-0.043,0.172H30.22a0.293,0.293,0,0,1,.086-0.172c0.018,0.154-.02.108,0.086,0.172a1.307,1.307,0,0,1,.043-0.3h0.043v0.214a0.156,0.156,0,0,0-.043.086H30.65V16.31c0.043-.042.042,0.042,0.043,0.043a0.219,0.219,0,0,0,.043-0.129c0.061-.1.023-0.373,0.086-0.472v0.515h0.43a1.182,1.182,0,0,1,0,.515,0.454,0.454,0,0,1,.258.043,0.793,0.793,0,0,1,.043.386c-0.232.16-.3,0.473-0.516,0.644a0.727,0.727,0,0,1,.086.257H31.08V18.026a0.394,0.394,0,0,1-.172-0.343H30.865V17.9c0.093,0.107.066,0.109,0.043,0.257L31.123,18.2c0.006-.019-0.027-0.134.043-0.086V18.2h0.258v0.944c-0.075.184-.321,0.391-0.387,0.6a2.315,2.315,0,0,0,.129.9,4.612,4.612,0,0,0,0,.643,11.644,11.644,0,0,1,.215,1.845,1.035,1.035,0,0,1,.387,0v0.043H31.51c-0.066.03-.006,0.006-0.129,0V23.3a2.572,2.572,0,0,1,.086.644c0.094,0.413.1,1.1,0.215,1.545a2.526,2.526,0,0,1,0,.3v0.043h0.043V25.578a1.256,1.256,0,0,1,.559.043c0.021-.156.011-0.156,0.129-0.215a1.6,1.6,0,0,0,.258.086V25.234a0.371,0.371,0,0,1-.043-0.215,3.41,3.41,0,0,1,.516,0V24.934a0.991,0.991,0,0,1-.086-0.3,0.724,0.724,0,0,1,.258-0.129,0.155,0.155,0,0,0,.086.043A0.83,0.83,0,0,1,33.96,23.6a0.324,0.324,0,0,1,.258-0.086L34.3,23.561a2.023,2.023,0,0,0-.086.6h0.258V24.033a0.361,0.361,0,0,1-.215-0.043h0.215V23.776h0.043c0.048,0.071,0,.026.086,0,0.006,0.162-.02.151,0.086,0.215a1.02,1.02,0,0,0,.215-0.086c0.127-.188-0.074-0.262.086-0.343a0.155,0.155,0,0,0,.086.043V23.432c-0.03-.066-0.005-0.006,0-0.129h0.258v0.043h0.043a0.223,0.223,0,0,0,.043.3V23.6l-0.043-.043h0.086l0.043,0.086a2.8,2.8,0,0,0,.043.3c0.107-.029.08-0.1,0.129-0.043a0.527,0.527,0,0,0,.387.086V23.776h0.086V23.99a0.976,0.976,0,0,0,.516-0.129,0.523,0.523,0,0,1,.129-0.3,0.115,0.115,0,0,1,.086.043V23.3a0.868,0.868,0,0,1,.3.043c-0.05.1-.088,0.075-0.043,0.172v0.043c0.142-.012.166-0.071,0.172,0.172a0.288,0.288,0,0,0-.043.172,0.61,0.61,0,0,0,.172.043c0.024-.056,0-0.032.043-0.043a0.264,0.264,0,0,0,.172.086V23.776h0.086v0.086a0.218,0.218,0,0,0-.043.129h0.086a0.9,0.9,0,0,1,.043-0.429,0.447,0.447,0,0,0,.086.429,0.383,0.383,0,0,1,.129-0.386v0.129l0.215,0.043V23.432a2.24,2.24,0,0,0-.043-0.6l0.129-.043a0.358,0.358,0,0,0-.043-0.257c-0.017-.065.076-0.058,0.086-0.086a0.978,0.978,0,0,0-.043-0.429V21.888h0.086l-0.043-.129H38.6c0.111,0.283,2.237.253,2.407,0.257a0.541,0.541,0,0,0-.043-0.172,0.268,0.268,0,0,0,.258-0.129,4.481,4.481,0,0,0,0-1.5h0.3V20.3a0.37,0.37,0,0,0-.043.215h0.086V20.172a5.1,5.1,0,0,0-.086-0.729,0.928,0.928,0,0,0,.172-0.172c0.138,0.023.161,0.02,0.258,0.043V19.271l-0.043-.043h0.086a1.841,1.841,0,0,0,1.161.043,0.277,0.277,0,0,1-.172-0.043,3.318,3.318,0,0,1,.516.086,0.382,0.382,0,0,0,.129.129,2.17,2.17,0,0,0-.129,1.159h0.086c0.048-.123.008-0.079,0.129-0.129v0.172a1.681,1.681,0,0,0-.043.686H43.89a0.554,0.554,0,0,1-.043.3V21.373H43.633V21.63h0.215v0.043a0.989,0.989,0,0,1-.344.257c0.015,0.464,0,1.384,0,2.1l0.559-.043a0.665,0.665,0,0,1,.043-0.343,0.665,0.665,0,0,0,.043.343,0.628,0.628,0,0,1,.086-0.429,0.9,0.9,0,0,0,.043.429V23.9c0.177-.071.183-0.174,0.172-0.429a3.94,3.94,0,0,0,.129-1.116,14.832,14.832,0,0,0,.258-2.66c-0.059-.184-0.276-0.391-0.344-0.558a3.169,3.169,0,0,1,0-.944l0.516-.043V18.069a1.862,1.862,0,0,1,.043-0.729,1.771,1.771,0,0,0-.516-0.043V17.34c0.136,0.136.206,0.338,0.344,0.472a0.469,0.469,0,0,1,.086-0.129v0.129a0.223,0.223,0,0,0,0,.214H44.922a0.155,0.155,0,0,0-.086-0.043c-0.081-.5-0.465-0.521-0.473-1.158a0.789,0.789,0,0,1,.258-0.043V16.267a1.521,1.521,0,0,1,.473.043V14.594a0.672,0.672,0,0,0-.215-0.043,1.174,1.174,0,0,1-.043.386H44.75V14.852a12.478,12.478,0,0,1-.043-1.33l-0.473.043V13.436h0.473V13.264c-0.116,0-.069.057-0.129-0.086,0.329-.349.159-2.273,0.172-2.832H44.707c-0.069.117,0.007,0.035-.129,0.043V10.3a1.23,1.23,0,0,0,.172-0.9c-0.147.009-.086-0.319-0.086-0.558V7a0.208,0.208,0,0,1,.129.043,6.943,6.943,0,0,0-.086,1.845H44.75V8.8c0.05-.1-0.05-0.168.086-0.257V8.888a1.6,1.6,0,0,1,0,.644c0.1,0.754.035,2.488,0.043,3.475h0.086V12.964a0.583,0.583,0,0,0,.215-0.429,0.3,0.3,0,0,1-.215-0.129h0.258a2.306,2.306,0,0,1,1.161,0v0.086c-0.249.152,0.086,0.6,0.086,0.6-0.05.067-.083,0.015-0.086,0.257a1.413,1.413,0,0,1,.6.043h-0.6c-0.054.856-.086,1.872-0.086,2.917h0.043a0.433,0.433,0,0,1,.387,0,1.039,1.039,0,0,1,.043.472h0.258v0.472H46.943a1.476,1.476,0,0,1-.6.043,0.932,0.932,0,0,0,.559.9,2.587,2.587,0,0,1-.172,1.2H46.685V19.314a0.306,0.306,0,0,0,.086-0.172h-0.3a3.884,3.884,0,0,0,.086.815,1.841,1.841,0,0,1,.344,0L47.029,20.3a0.285,0.285,0,0,1-.215,0,0.208,0.208,0,0,1-.129-0.043A0.316,0.316,0,0,0,46.771,20H46.556l0.086,0.987c0.173,0,.4-0.112.473-0.086a0.169,0.169,0,0,0,.172.086,0.9,0.9,0,0,1,.043-0.429v0.257l0.86,0.043a0.556,0.556,0,0,1,.043-0.3v0.257h0.215a0.451,0.451,0,0,1,.043-0.257v0.129h0.172V20.129l0.43,0.043v0.086a0.686,0.686,0,0,1,.086.429,0.359,0.359,0,0,1,.215.043,0.616,0.616,0,0,0-.215.043v0.043h0.258a0.452,0.452,0,0,1,.043-0.257v0.257h0.129a0.452,0.452,0,0,1,.043-0.257v0.3a1.189,1.189,0,0,0-.3.129,1.981,1.981,0,0,1,.043.472c0.03,0.038.044,0.054,0.086,0a1.1,1.1,0,0,0,.043.172,0.545,0.545,0,0,1,.043-0.172h0.043v0.558h0.473a1.277,1.277,0,0,1,.043-0.558c-0.019.326,0.018,0.526,0.3,0.558V21.845h0.129v0.172a2.632,2.632,0,0,1,.774.043,8.093,8.093,0,0,1,.043,1.931h0.6a1.685,1.685,0,0,0,.946.086c-0.032-.384-0.422-0.272-0.9-0.257a0.155,0.155,0,0,0-.086-0.043V23.132H51.671V22.317H52.23V22.66c0.941-.005,2.343.137,2.88,0.043a3.1,3.1,0,0,0,.731,0c0.089,0.051.173,0.213,0.258,0.257a1.7,1.7,0,0,1,.344,0c0.059,0.017.2,0.111,0.258,0.129l1.247,0.043a8.141,8.141,0,0,0,1.5.043c0.574,0,1.216.045,1.849,0.043v0.257a20.912,20.912,0,0,0-3.052.043,2.216,2.216,0,0,0-1.333.258,0.751,0.751,0,0,1,.215.086c-0.289.421,0.126,0.981,0,1.373h0.3a2.085,2.085,0,0,0-.086-0.643,0.751,0.751,0,0,0,.086-0.644c0.944-.007,1.895.056,2.794,0.086a9.688,9.688,0,0,1,1.419.043,2.532,2.532,0,0,0,.3-0.043,3.562,3.562,0,0,1,.473.386,3.02,3.02,0,0,0,.688.172l1.848,0.043a11.965,11.965,0,0,0,2.149.043c1.06,0.008,2.268.043,3.4,0.043h4.256a6.485,6.485,0,0,1,1.633.043H74.455v0.386H75.4a0.665,0.665,0,0,1,.043-0.343v0.343h0.215a0.665,0.665,0,0,1,.043-0.343v0.343h0.946a0.664,0.664,0,0,1,.043-0.343v0.343H76.9a0.78,0.78,0,0,1,.043-0.386v0.386h0.946a0.781,0.781,0,0,1,.043-0.386v0.386h0.129a0.78,0.78,0,0,1,.043-0.386v0.386h0.473a3.122,3.122,0,0,1,.258-0.558,3.874,3.874,0,0,0,.043-0.772h0.043v1.63a0.749,0.749,0,0,1,0,.729,4.2,4.2,0,0,0-.172,1.845l0.172,1.03a11.923,11.923,0,0,0,.86,1.8,1.207,1.207,0,0,1,.129,1.03c-0.283.962-2.585,0.619-3.7,0.858-0.583.125-1.287-.053-1.934,0.086a19.034,19.034,0,0,1-3.353.043c-2.944,0-5.673.086-8.64,0.086C51.477,32.957,40.577,33,29.7,33L16.55,32.957a4.119,4.119,0,0,0-1.29-.086H11.779a7.762,7.762,0,0,1-1.161-.343c-0.246-.107-0.52-0.348-0.774-0.429H9.285a10.99,10.99,0,0,0-3.009.086,2.194,2.194,0,0,1,0,.686H6.19V32.828a0.428,0.428,0,0,1-.129-0.215H6.018a0.731,0.731,0,0,1-.129.343A0.559,0.559,0,0,1,5.631,32.7c-0.1.038-.111,0.076-0.172,0.043-0.04-.084.047-0.144,0-0.3a1.835,1.835,0,0,0-.3-0.472L5.5,31.756a1.348,1.348,0,0,1,0-.9H5.459a10.24,10.24,0,0,1-1.075.472,3.532,3.532,0,0,0-.688.043H4.3L4.385,31.5A1.582,1.582,0,0,1,4.3,32.871H1.376a1.524,1.524,0,0,1-.129-0.129,1.383,1.383,0,0,1-.086-0.772c0.054-.583.018-1.4,0.129-1.931H1.376a16,16,0,0,1,2.106.129V29.954c-0.929.015-2.907,0.178-3.267-.343a3.684,3.684,0,0,1-.129-1.845A1.471,1.471,0,0,0,.43,27.723V27.637a6.474,6.474,0,0,1-.043-0.815H0.3a3.519,3.519,0,0,0,.086-0.515c-0.1-1.028-.221-2.109-0.215-2.918H0.215v0.043c0.224,0.356.006,1.784,0.258,2.188V25.363c0.14,0.036.066-.021,0.129,0.086a2.915,2.915,0,0,0,0,1.33,1.593,1.593,0,0,0,.344-0.215c0.086-.115-0.024-0.122.258-0.129-0.017.1-.039,0.047,0,0.129a2.881,2.881,0,0,0,1.591.043V26.65a0.147,0.147,0,0,0-.086.043H3.052V26.522H3.31v0.172A6.444,6.444,0,0,0,4,26.65a0.207,0.207,0,0,1,.043-0.129,0.29,0.29,0,0,1,.172-0.043c0.036,0.139-.021.066,0.086,0.129a0.383,0.383,0,0,1,.129-0.129V26.436H3.74a2.728,2.728,0,0,0-.688,0,1.774,1.774,0,0,0-.645-0.086,1.142,1.142,0,0,1,.086-0.515v0.129a1.909,1.909,0,0,1,.559,0c0.036-.139-0.021-0.066.086-0.129,0,0.156.041,0.147,0.3,0.129v0.172H6.964a10.47,10.47,0,0,0,1.805-.043,7.107,7.107,0,0,1,1.677.043,0.291,0.291,0,0,1,.172-0.086l0.043,0.129a0.218,0.218,0,0,1,.043.129h0.817a0.207,0.207,0,0,1,.043-0.129v0.129h0.473a0.207,0.207,0,0,1,.043-0.129v0.129a4.13,4.13,0,0,0,.817-0.129c0.128-.019.357,0.083,0.559,0.086V26.221H13.412c-0.083-.033.086-0.043,0.086-0.043a0.394,0.394,0,0,0,.344.086V25.878c-0.444.014-1.325,0-2.02,0V25.621a14.917,14.917,0,0,1,2.02,0V25.406a2.4,2.4,0,0,1,.043-0.772h0.043v0.987a2.162,2.162,0,0,0,.473-0.043V25.363a1.808,1.808,0,0,1,.043-0.686q0.022,0.45.043,0.9a7.357,7.357,0,0,0,2.106-.129c0.2-.08.591-0.444,0.688-0.472s0.167,0.071.3,0.043a11.992,11.992,0,0,1,2.192-.086c0.4,0,2.02-.086,2.02-0.086h0.043a0.923,0.923,0,0,0-.043.3l0.387,0.043a0.591,0.591,0,0,1,0-.386c0.052-.106.076-0.066,0.129-0.172H22.053a2.052,2.052,0,0,0-1.118-.172,15.9,15.9,0,0,0-3.009-.043V24.162c0.668,0.006,1.371-.04,1.978-0.043a6.818,6.818,0,0,0,1.419-.043l1.247-.043a0.912,0.912,0,0,1,.559-0.129,2.76,2.76,0,0,1,.258-0.257h0.043V23.69a1.766,1.766,0,0,0,.645,0c0.412-.048,1.345-0.048,2.106-0.043a0.207,0.207,0,0,1,.043-0.129c0.079,0.136.122,0.134,0.344,0.129V23.261H26.48a0.158,0.158,0,0,1-.215-0.043h0.129A0.359,0.359,0,0,1,26.437,23v0.215c0.139-.035.066,0.021,0.129-0.086a0.627,0.627,0,0,1,.129-0.558,2.264,2.264,0,0,1,.344-0.086v0.644H27v0.043a0.619,0.619,0,0,1,.215.043A0.359,0.359,0,0,1,27.254,23a0.358,0.358,0,0,0,.043.215A0.359,0.359,0,0,1,27.34,23v0.257c-0.15.059-.132,0.1-0.129,0.3H27.34v1.2c-0.095-.022-0.085-0.048-0.172,0a0.208,0.208,0,0,1,.129.043c-0.336,0-.666-0.022-0.946-0.043,0,0.447-.052.9-0.043,1.587h0.215c0-.375,0-0.324,0-0.729h0.3V25.449a0.667,0.667,0,0,1-.344-0.043h0.086a0.924,0.924,0,0,1,.731,0v0.043H27.254v0.043a0.93,0.93,0,0,0-.3-0.043v0.172l0.43-.043v0.043a0.162,0.162,0,0,0-.129.172,0.155,0.155,0,0,1,.043.086,0.154,0.154,0,0,0,.043-0.086,0.731,0.731,0,0,0,.086-0.472,0.411,0.411,0,0,1,.129,0H27.6c0.018,0.084-.066.031,0,0.086l0.258-.3H27.813v0.043c-0.033.083-.043-0.086-0.043-0.086,0.177-.043.029-0.018,0.129-0.129a0.151,0.151,0,0,0,.172,0,0.547,0.547,0,0,0,.258-0.429,0.262,0.262,0,0,0,.086.086V24.548a0.172,0.172,0,0,1,.086-0.043l-0.043.086H28.5a0.773,0.773,0,0,1,.387-0.386V24.162c-0.061-.055,0-0.05.043-0.129a0.279,0.279,0,0,1-.172-0.043h0.129a14.413,14.413,0,0,1,.258-1.8l0.086-1.244a4.611,4.611,0,0,0,.129-1.244c-0.073-.184-0.311-0.418-0.387-0.6V18.2h0.215a1.823,1.823,0,0,0,.344-0.9,1.1,1.1,0,0,1-.516-0.043V17.3a0.219,0.219,0,0,1,.129.215c-0.111.012-.076-0.02-0.086,0.172a0.5,0.5,0,0,1-.086.343V17.984a2.465,2.465,0,0,1,0-.729l-0.129-.043V16.782h0.3V16.7a1.231,1.231,0,0,1-.043-0.429h0.473V16.053a0.557,0.557,0,0,1-.3-0.043h0.344c-0.008-.885-0.017-1.662-0.086-2.617-0.291,0-.35.005-0.6,0V13.35h0.043V13.307a1.946,1.946,0,0,0,.559.043,0.483,0.483,0,0,1,0-.214,0.29,0.29,0,0,0-.172-0.043V13.05a0.512,0.512,0,0,0,.258-0.558,0.163,0.163,0,0,1-.129-0.086h0.258a2.324,2.324,0,0,1,1.161,0v0.086a0.48,0.48,0,0,0-.086.429c0.105,0.026.128,0.1,0.172,0.043a3.488,3.488,0,0,0,.043-1.244c0-1.122.051-2.259,0-3.175h0.086a0.555,0.555,0,0,0,.043.3A6.908,6.908,0,0,0,31.123,7h0.086V9.446a1.711,1.711,0,0,0-.043.772h0.086v0.043a10.248,10.248,0,0,0-.086,2.746h0.043c0.063-.108.054-0.078,0.215-0.086v0.086c-0.158.03-.117,0-0.172,0.129-0.034.074,0.065,0.023,0,.129C31.2,13.341,31.181,13.244,31.166,13.436Zm13.283-3.089h0.086a0.122,0.122,0,0,1-.043.043v0.043A0.154,0.154,0,0,1,44.449,10.347Zm0.086,0.086h0.086v0.086H44.535V10.432Zm-0.129.043a0.155,0.155,0,0,1,.043.086H44.406V10.475Zm-13.154.6h0.086C31.287,11.145,31.32,11.128,31.252,11.076ZM31.3,11.2a0.154,0.154,0,0,1,.043.086H31.3V11.2Zm-1.634,1.33v0.172H29.79V12.535H29.662Zm0.172,0v0.172c0.168,0,.193.021,0.258-0.086-0.106-.056-0.029.018-0.086-0.086H29.833Zm0.6,0.172V12.535H30.22v0.086A0.34,0.34,0,0,0,30.435,12.706Zm0.043-.172v0.172h0.215V12.535H30.478Zm0.258,0a0.277,0.277,0,0,0,.043.172A0.276,0.276,0,0,0,30.736,12.535Zm14.487,0v0.172h0.172V12.535H45.223Zm0.258,0v0.172H45.61a0.26,0.26,0,0,1,.043-0.172H45.481Zm0.559,0.172V12.535H45.868l-0.043.172H46.04Zm0.086-.172v0.172h0.129V12.535H46.126Zm-14.874.3a0.208,0.208,0,0,1,.129.043A0.208,0.208,0,0,1,31.252,12.835Zm-0.344.3c0.036,0.139-.021.066,0.086,0.129V13.221h0.043V13.178H30.994A0.155,0.155,0,0,0,30.908,13.135Zm13.971,0,0.043,0.129h0.043V13.135H44.879Zm-13.842.3a0.207,0.207,0,0,0-.043-0.129,0.166,0.166,0,0,1-.129.086v0.043h0.172Zm13.842,0a0.208,0.208,0,0,0,.129-0.043l-0.129-.086v0.129Zm-15.991,0h0.086v0.086H28.888V13.436Zm18.012,0h0.086v0.086H46.9V13.436Zm-17.754.086a0.218,0.218,0,0,1,.043.129H29.146V13.522Zm1.633,0.987h0.258V13.522H30.865a3.164,3.164,0,0,0-.043.858A0.219,0.219,0,0,0,30.779,14.508Zm14.1-.987v0.987h0.215a3.041,3.041,0,0,0-.086-0.987H44.879Zm-15.132.343h0.172a0.276,0.276,0,0,1,.043-0.172,0.542,0.542,0,0,0,.043.172h0.086l0.043-.257a0.485,0.485,0,0,1-.215,0,0.371,0.371,0,0,0-.043.214H29.833c-0.017-.169.019-0.169-0.086-0.214V13.564H29.7V13.65A0.37,0.37,0,0,1,29.747,13.865Zm0.516-.257a0.207,0.207,0,0,1-.043.129,0.207,0.207,0,0,0-.043-0.129,0.726,0.726,0,0,1-.043.257h0.129a0.207,0.207,0,0,1,.043-0.129c0.036,0.139-.021.066,0.086,0.129a0.468,0.468,0,0,1,.086-0.129v0.129H30.65a0.62,0.62,0,0,1,.086-0.3H30.65C30.5,13.719,30.541,13.633,30.263,13.607Zm14.917-.043a0.456,0.456,0,0,0,.129.3V13.607Zm0.946,0a1.551,1.551,0,0,0-.043.3h0.086v-0.3H46.126Zm-0.516.3V13.607c-0.258.007-.257-0.028-0.258,0.257h0.086C45.513,13.748,45.439,13.847,45.61,13.865Zm0.086-.257a0.208,0.208,0,0,0,.043.129A0.208,0.208,0,0,0,45.7,13.607Zm0.086,0v0.257h0.129a0.207,0.207,0,0,1,.043-0.129,0.207,0.207,0,0,0,.043.129V13.822a0.219,0.219,0,0,0,.043-0.129A0.154,0.154,0,0,1,46,13.607H45.782Zm-16.12.3v0.6h0.086a0.207,0.207,0,0,1,.043-0.129,1.029,1.029,0,0,0,.129.129,0.147,0.147,0,0,0-.086.043h0.086a0.276,0.276,0,0,0,.086-0.215s-0.062-.226-0.086-0.343h0.043a0.187,0.187,0,0,0,.129.129V14.079H30.048c0.015-.127.086-0.089-0.043-0.172-0.06.108,0,.016-0.172,0.043l0.043,0.429H29.79V14.294C29.714,14.2,29.73,14.013,29.662,13.908Zm0.516,0a0.155,0.155,0,0,0,.086.043A0.155,0.155,0,0,0,30.177,13.908Zm0.129,0a0.726,0.726,0,0,0,.043.257c0.038-.032.049-0.054,0.086-0.086v0.172c-0.067.081-.081,0.089-0.043,0.172l0.043,0.129c0.207-.084.123-0.091,0.3-0.043V13.951H30.65V13.908H30.607v0.086c0.14,0.08.077,0.2,0.043,0.343-0.114-.051-0.077.038-0.129-0.086a0.4,0.4,0,0,0,0-.343l-0.129.086C30.337,13.888,30.411,13.964,30.306,13.908Zm14.831,0.6h0.129l-0.086-.6H45.137v0.6Zm0.387,0a0.656,0.656,0,0,1,0-.429,0.207,0.207,0,0,0,.043.129,1.355,1.355,0,0,1,0-.3H45.481c-0.072.107-.007,0.042-0.129,0v0.214c-0.041.076-.006,0.283-0.043,0.343v0.043h0.215Zm0.086-.6a0.207,0.207,0,0,0,.043.129A0.207,0.207,0,0,0,45.61,13.908Zm0.172,0a1.077,1.077,0,0,0,.086.214c0.024-.056,0-0.032.043-0.043h0.043a0.759,0.759,0,0,1-.086.172,0.147,0.147,0,0,0-.043-0.086v0.129a0.866,0.866,0,0,1,.129.258H46a0.332,0.332,0,0,1,0-.172H46.04a0.208,0.208,0,0,0,.043.129V14.38a1.038,1.038,0,0,1-.043-0.472A0.537,0.537,0,0,1,45.782,13.908Zm0.3,0a0.359,0.359,0,0,0,.043.214A0.357,0.357,0,0,0,46.083,13.908Zm-16.335.043v0.086H29.79V13.951H29.747Zm15.519,0v0.086h0.043V13.951H45.266Zm0.86,0.558c0.139-.036.066,0.021,0.129-0.086-0.061-.1-0.023-0.373-0.086-0.472Zm-15.948-.515a1.024,1.024,0,0,0,.043.472A1.023,1.023,0,0,0,30.177,13.993Zm15.561,0a0.359,0.359,0,0,0,.043.215A0.357,0.357,0,0,0,45.739,13.993Zm-0.172.472H45.7a0.554,0.554,0,0,0-.086-0.386A2.01,2.01,0,0,0,45.567,14.465Zm-15.476-.3v0.086h0.043A0.147,0.147,0,0,0,30.091,14.165Zm0.172,0a0.359,0.359,0,0,0,.043.215A0.359,0.359,0,0,0,30.263,14.165Zm15.475,0.086v0.214h0.043V14.422A0.2,0.2,0,0,0,45.739,14.251Zm-15.647.043a0.276,0.276,0,0,0,.043.172A0.276,0.276,0,0,0,30.091,14.294Zm0.3,0.043a0.155,0.155,0,0,1,.043.086H30.392V14.337Zm0.172,0a0.154,0.154,0,0,1,.043.086H30.564V14.337Zm-0.086.043c0.037,0.081.02,0.032,0,.129H30.435Zm-0.817.215c-0.008.273,0.017,0.437,0.172,0.472V15.023A2.563,2.563,0,0,0,29.662,14.594Zm0.172,0a0.887,0.887,0,0,0,0,.257h0.043V14.809a0.172,0.172,0,0,0,.086-0.172C29.84,14.636,29.946,14.671,29.833,14.594Zm0.645,0c-0.077.116-.124,0.318-0.215,0.429a2.167,2.167,0,0,0,.043-0.343,0.219,0.219,0,0,0-.129-0.043c-0.057.077-.071-0.02-0.086,0.172a0.125,0.125,0,0,1,0,.172c-0.027-.175-0.027-0.076-0.129-0.172v0.043a0.246,0.246,0,0,0-.086.257h0.043V15.066c0.028-.037.058-0.135,0.086-0.172,0.006,0.162-.02.151,0.086,0.215,0.043-.069.128-0.033,0.3,0a0.452,0.452,0,0,1,.043-0.257c0,0.167-.021.193,0.086,0.257a0.981,0.981,0,0,0,.043-0.386C30.529,14.584,30.585,14.657,30.478,14.594Zm0.172,0a1.248,1.248,0,0,1-.086.515h0.043a0.155,0.155,0,0,1,.086-0.043l0.043-.472H30.65Zm14.487,0a1.8,1.8,0,0,0,.086.472,1.509,1.509,0,0,1,.043-0.472H45.137Zm0.086,1.073a0.209,0.209,0,0,0,.129-0.043,1.327,1.327,0,0,1,.043-0.343,0.147,0.147,0,0,0,.043.086V15.152H45.309a0.554,0.554,0,0,1,.043-0.3,0.729,0.729,0,0,0,.043.257,1.516,1.516,0,0,1,.215-0.043,0.155,0.155,0,0,0,.043-0.086H45.61a0.147,0.147,0,0,1-.043.086v-0.3H45.61a0.207,0.207,0,0,0,.043.129V14.637H45.567V14.68c-0.043.07-.041,0.274-0.086,0.343a1.341,1.341,0,0,0-.043-0.429c-0.124.055-.088-0.049-0.129,0.129A2.41,2.41,0,0,0,45.223,15.667Zm0.86-1.073a0.616,0.616,0,0,0-.215.043c0.035,0.109.049,0.364,0.086,0.472H46V15.066A1.186,1.186,0,0,0,46.083,14.594Zm0.043,0a1.4,1.4,0,0,0,.086.472A0.524,0.524,0,0,0,46.126,14.594Zm-0.387.043c0.008,0.106-.037.243-0.043,0.472a0.344,0.344,0,0,1,.172,0V14.723a0.155,0.155,0,0,1-.043-0.086H45.739Zm0.258,0a0.155,0.155,0,0,1,.043.086H46V14.637Zm-17.023.043a0.219,0.219,0,0,1,.043.129H28.974V14.68Zm1.2,0.043a0.154,0.154,0,0,1,.043.086H30.177V14.723Zm15.6,0a0.172,0.172,0,0,1,0,.215V14.723ZM27.3,14.809q0.022,0.408.043,0.815l-1.462.129q-0.022-.408-0.043-0.815h0.043V14.894Zm18.786,0.343H45.954a0.452,0.452,0,0,0,.043.257,0.359,0.359,0,0,1,.043-0.215,2.715,2.715,0,0,1-.043.472h0.172a3.236,3.236,0,0,0-.086-0.815v0.3Zm0.387-.214a0.208,0.208,0,0,1,.129.043A0.209,0.209,0,0,1,46.47,14.937Zm0,0.129a0.208,0.208,0,0,1,.129.043A0.209,0.209,0,0,1,46.47,15.066Zm-16.593.6c-0.013-.289-0.045-0.276-0.043-0.558H29.79v0.043a1.008,1.008,0,0,0-.043.472A0.22,0.22,0,0,0,29.876,15.667Zm0-.515a0.207,0.207,0,0,0,.043.129V15.238a0.154,0.154,0,0,0,.043-0.086H29.876Zm0.129,0-0.043.515h0.215l0.043-.258h0.043v0.172a0.154,0.154,0,0,0-.043.086h0.258c0.066-.1.011-0.015,0.215,0l0.043-.258H30.693a0.147,0.147,0,0,1-.043.086V15.152a1.992,1.992,0,0,1-.344,0l-0.043.172H30.22a0.277,0.277,0,0,0-.043-0.172,0.663,0.663,0,0,1-.043.343V15.152H30.005Zm15.175,0v0.086h0.043V15.152H45.18Zm0.258,0.515h0.215l-0.043-.515c-0.125.055-.089-0.049-0.129,0.129A1.986,1.986,0,0,1,45.438,15.667Zm0.516,0-0.043-.515c-0.214.023-.069,0.085-0.215,0v0.215a0.346,0.346,0,0,1,0,.3h0.258Zm0.215-.515a1.329,1.329,0,0,0,.086.515A0.857,0.857,0,0,0,46.169,15.152Zm-15.819.043a0.156,0.156,0,0,1,.043.086H30.349V15.195Zm0.086,0.043a0.154,0.154,0,0,1,.043.086c0.037-.032.049-0.054,0.086-0.086v0.214a0.155,0.155,0,0,0-.043.086H30.435a0.284,0.284,0,0,1,0-.215V15.238Zm-0.774.086v0.086H29.7V15.323H29.662Zm-0.688.086a0.219,0.219,0,0,1,.043.129H28.974V15.409Zm16.163,0.043a0.359,0.359,0,0,0,.043.215A0.359,0.359,0,0,0,45.137,15.452Zm-15.991.215a0.218,0.218,0,0,1,.043.129H29.146V15.667ZM45.137,15.71V15.8H45.18A0.147,0.147,0,0,0,45.137,15.71Zm0.086,0a3.091,3.091,0,0,1-.043.644h0.129a1.7,1.7,0,0,1,.086-0.644H45.223Zm0.215,0-0.086.644h0.086a0.452,0.452,0,0,1,.043-0.257v0.257a0.894,0.894,0,0,1,.258,0,1.361,1.361,0,0,1,0-.3h0.043v0.3H46.04l-0.086-.644H45.739a1.013,1.013,0,0,1-.043.343H45.653V15.71H45.438Zm0.731,0H46V15.8c0.086,0.142.039,0.425,0.129,0.558a0.277,0.277,0,0,1,.043-0.172,0.276,0.276,0,0,0,.043.172Zm0.043,0a0.359,0.359,0,0,0,.043.214A0.359,0.359,0,0,0,46.212,15.71ZM30.564,15.8a0.154,0.154,0,0,1,.043.086H30.564V15.8Zm-1.419.043h0.086a0.759,0.759,0,0,1-.086.172V15.838Zm0.9,0.043a0.155,0.155,0,0,1,.043.086H30.048V15.881Zm15.733,0.043a0.154,0.154,0,0,1,.043.086H45.782V15.924Zm-15.261.086a0.227,0.227,0,0,1,0,.257V16.01Zm15.39,0a0.227,0.227,0,0,1,0,.257V16.01Zm-0.3.043a1.234,1.234,0,0,1,.086.214H45.61V16.053ZM29.662,16.4v0.386h0.086V16.7C29.709,16.636,29.7,16.456,29.662,16.4Zm0.172,0a1.659,1.659,0,0,1-.043.386h0.215L29.962,16.4H29.833Zm0.172,0c0.036,0.139-.021.066,0.086,0.129V16.4H30.005Zm0.6,0.386L30.564,16.4H30.306l-0.043.172H30.22a0.277,0.277,0,0,0-.043-0.172,0.738,0.738,0,0,0-.086.343,0.155,0.155,0,0,0,.086.043,0.2,0.2,0,0,1,0-.215,0.207,0.207,0,0,0,.043.129,0.147,0.147,0,0,1,.043-0.086,0.277,0.277,0,0,0,.043.172,0.554,0.554,0,0,1,.043-0.3,0.147,0.147,0,0,0,.043.086,0.208,0.208,0,0,1,.043-0.129,1.016,1.016,0,0,1-.043.343h0.215Zm0-.386v0.086H30.65A0.147,0.147,0,0,0,30.607,16.4Zm0.086,0v0.386h0.086V16.739C30.736,16.669,30.738,16.465,30.693,16.4Zm14.487,0a1.238,1.238,0,0,0-.043.386h0.086V16.4H45.18Zm0.129,0.386a0.208,0.208,0,0,0,.129-0.043,1.214,1.214,0,0,0,.129-0.343c-0.252.01-.175,0.073-0.3,0v0.086A0.567,0.567,0,0,1,45.309,16.782Zm0.774,0L46.04,16.4H45.825a0.554,0.554,0,0,1-.043.3,1.3,1.3,0,0,0-.043-0.3H45.653a0.614,0.614,0,0,1-.043.215c-0.113.016-.056-0.032-0.086,0.086a0.154,0.154,0,0,1,.043.086h0.086a0.541,0.541,0,0,1,.043-0.172h0.043c0.018,0.154-.02.108,0.086,0.172A1.235,1.235,0,0,1,46.083,16.782Zm0-.386a0.208,0.208,0,0,0,.043.129A0.208,0.208,0,0,0,46.083,16.4Zm0.086,0v0.386h0.086V16.739C46.211,16.669,46.214,16.465,46.169,16.4Zm-0.3.043a0.227,0.227,0,0,1,0,.258V16.439Zm-16.034.815V17.64h0.086l0.043-.386H29.833Zm0.3,0.386h0.129l-0.043-.386c-0.14.035-.066-0.021-0.129,0.086C30.225,17.421,30.159,17.478,30.134,17.64Zm0.129-.386a0.207,0.207,0,0,0,.043.129A0.207,0.207,0,0,0,30.263,17.254Zm0.172,0a0.348,0.348,0,0,0,.129.386V17.254H30.435Zm14.788,0a0.554,0.554,0,0,0,.043.3A0.554,0.554,0,0,0,45.223,17.254Zm0.086,0V17.64h0.086V17.6a0.834,0.834,0,0,0,.086-0.343H45.309Zm0.43,0.386a1.669,1.669,0,0,1,.043-0.386,0.6,0.6,0,0,1-.215,0,0.122,0.122,0,0,1-.043.043l-0.043.343h0.086a0.311,0.311,0,0,1,.086-0.343v0.258a0.154,0.154,0,0,0-.043.086h0.129Zm0.172-.386L46,17.64l0.129-.043a0.605,0.605,0,0,0,.043-0.172H46.126a0.207,0.207,0,0,1-.043.129v-0.3H45.911Zm-15,.043a0.706,0.706,0,0,0,.086.515h0.043V17.769a1.656,1.656,0,0,0,.3-0.472h-0.43Zm14.186,0c-0.014.059,0.061,0.062,0.086,0.086C45.21,17.337,45.106,17.31,45.094,17.3ZM46.9,17.469H46.771V17.34h0.086A0.123,0.123,0,0,1,46.9,17.3v0.086a0.686,0.686,0,0,1,0,.644,2.156,2.156,0,0,0-.086-0.343S46.89,17.664,46.9,17.469ZM29.662,17.34l-0.043.258h0.043a0.207,0.207,0,0,1,.043-0.129v0.043c0.052,0.076,0,.075.043,0.129V17.6a0.155,0.155,0,0,0,.043-0.086C29.741,17.461,29.711,17.39,29.662,17.34Zm16.163,0a0.447,0.447,0,0,0,0,.258,0.155,0.155,0,0,0,.086.043V17.555C45.881,17.511,45.856,17.383,45.825,17.34Zm-15.175.043a0.292,0.292,0,0,0,.172.258V17.6H30.779a0.182,0.182,0,0,0-.043-0.172A0.155,0.155,0,0,0,30.65,17.383Zm-0.6.043a0.673,0.673,0,0,0-.043.215h0.086A0.358,0.358,0,0,0,30.048,17.426Zm0.258,0.215a0.208,0.208,0,0,0,.129-0.043c-0.028-.037-0.057-0.135-0.086-0.172v0.086A0.219,0.219,0,0,0,30.306,17.64Zm16.421-.172a0.155,0.155,0,0,1,.043.086H46.728V17.469Zm-17.582.043a0.166,0.166,0,0,1,.086.129H29.189V17.6A0.155,0.155,0,0,1,29.146,17.512Zm17.066,0V17.6h0.043A0.147,0.147,0,0,0,46.212,17.512Zm-1.118.043V17.64a0.144,0.144,0,0,1,.129,0A0.166,0.166,0,0,0,45.094,17.555ZM46.642,17.6a0.155,0.155,0,0,1,.043.086H46.642V17.6Zm-17.41.043a0.154,0.154,0,0,1,.043.086H29.232V17.64Zm0.387,0.043a0.741,0.741,0,0,0,0,.472A0.879,0.879,0,0,0,29.619,17.683Zm0.086,0a0.664,0.664,0,0,0,.043.343,0.452,0.452,0,0,1,.043-0.257,0.383,0.383,0,0,0,.129.129c-0.037-.073-0.069-0.2-0.086-0.215C29.767,17.714,29.828,17.689,29.7,17.683Zm0.3,0v0.3c-0.111.012-.076-0.02-0.086,0.172h0.043a0.541,0.541,0,0,1,.043-0.172c0.152,0.09.023,0.107,0.172,0.043a0.207,0.207,0,0,0,.043.129,0.368,0.368,0,0,0,.086-0.257H30.263a0.207,0.207,0,0,1-.043.129,1.459,1.459,0,0,1,.043-0.343H30.134a0.327,0.327,0,0,1,0,.3,0.207,0.207,0,0,0-.043-0.129,0.207,0.207,0,0,1-.043.129C30.064,17.8,30.13,17.766,30.005,17.683Zm0.3,0a0.6,0.6,0,0,0,.086.3v-0.3H30.306Zm0.344,0-0.129.215h0.086a0.207,0.207,0,0,1,.043-0.129l-0.043.386H30.65V18.112c0.038-.06.047-0.241,0.086-0.3v0.043c0.03,0.043.055,0.172,0.086,0.214V17.812A0.324,0.324,0,0,0,30.65,17.683Zm14.444,0a0.452,0.452,0,0,0,.043.257A0.452,0.452,0,0,0,45.094,17.683Zm0.086,0a1.044,1.044,0,0,0,0,.472,0.444,0.444,0,0,1,.086-0.3,0.554,0.554,0,0,0,.043.3l0.043-.343-0.086.043C45.194,17.733,45.338,17.733,45.18,17.683Zm0.3,0a1.169,1.169,0,0,0,.129.472,1.52,1.52,0,0,1,.129-0.129,0.207,0.207,0,0,0,.043.129l0.043-.129a0.757,0.757,0,0,0,.172.129V18.069a1.189,1.189,0,0,0-.172-0.386,0.663,0.663,0,0,1-.043.343V17.941a0.522,0.522,0,0,0-.129-0.257,0.665,0.665,0,0,1-.043.343V17.941a0.464,0.464,0,0,1-.043-0.257H45.481Zm0.645,0a0.359,0.359,0,0,0,.043.215A0.359,0.359,0,0,0,46.126,17.683Zm-16.636.472c0-.2.033-0.163,0.043-0.429H29.49v0.086a2.186,2.186,0,0,0-.215.386h0.043A0.291,0.291,0,0,1,29.49,18.155ZM46,17.726c-0.014.059,0.061,0.062,0.086,0.086C46.113,17.766,46.009,17.739,46,17.726Zm0.559,0a0.154,0.154,0,0,1,.043.086H46.556V17.726Zm-0.3.043a0.359,0.359,0,0,0,.043.215A0.359,0.359,0,0,0,46.255,17.769Zm0.129,0a1.63,1.63,0,0,1,0,.386,0.619,0.619,0,0,1,.215.043V18.112C46.51,18.016,46.474,17.863,46.384,17.769Zm-0.516.172a0.154,0.154,0,0,1,.043.086H45.868V17.941Zm-15.433.043-0.086.172h0.043C30.427,18.106,30.529,18.134,30.435,17.984Zm14.358,0a0.154,0.154,0,0,1,.043.086H44.793V17.984Zm0.6,0v0.172C45.55,18.082,45.52,18.077,45.395,17.984Zm0.688,0a0.277,0.277,0,0,0,.043.172A0.276,0.276,0,0,0,46.083,17.984Zm-16.335.086v0.086H29.79A0.147,0.147,0,0,0,29.747,18.069Zm0.258,0v0.086h0.043A0.147,0.147,0,0,0,30.005,18.069Zm14.745,0a0.154,0.154,0,0,1,.043.086H44.75V18.069Zm1.462,0v0.086h0.043A0.147,0.147,0,0,0,46.212,18.069Zm-17.152.215v0.258h0.086V18.284H29.06Zm0.129,0a0.452,0.452,0,0,0,.043.258A0.452,0.452,0,0,0,29.189,18.284Zm0.215,0a0.729,0.729,0,0,0,.043.258H29.49V18.284H29.4Zm0.473,0v0.258h0.086V18.284H29.876Zm0.172,0v0.258h0.086V18.284H30.048Zm0.215,0.258a0.208,0.208,0,0,0,.129-0.043,0.37,0.37,0,0,1-.043-0.215H30.263v0.258Zm0.172-.258v0.258h0.086V18.284H30.435Zm0.473,0a0.359,0.359,0,0,0,.043.215A0.359,0.359,0,0,0,30.908,18.284Zm0.129,0a0.452,0.452,0,0,0,.043.258A0.452,0.452,0,0,0,31.037,18.284Zm0.129,0a0.452,0.452,0,0,0,.043.258A0.451,0.451,0,0,0,31.166,18.284Zm0.086,0v0.258h0.086V18.284H31.252Zm13.326,0a0.452,0.452,0,0,0,.043.258A0.452,0.452,0,0,0,44.578,18.284Zm0.086,0v0.258H44.75V18.284H44.664Zm0.172,0a0.452,0.452,0,0,0,.043.258A0.452,0.452,0,0,0,44.836,18.284Zm0.086,0a0.452,0.452,0,0,0,.043.258A0.452,0.452,0,0,0,44.922,18.284Zm0.43,0.258h0.129V18.284H45.395v0.043A0.371,0.371,0,0,0,45.352,18.541Zm0.172-.258v0.258h0.129V18.284H45.524Zm0.215,0.258h0.129l-0.043-.258H45.782v0.043A0.372,0.372,0,0,0,45.739,18.541Zm0.172-.258v0.258H46V18.284H45.911Zm0.516,0a0.452,0.452,0,0,0,.043.258A0.451,0.451,0,0,0,46.427,18.284Zm0.215,0a0.257,0.257,0,0,0,.086.258V18.284H46.642Zm0.129,0a0.452,0.452,0,0,0,.043.258A0.451,0.451,0,0,0,46.771,18.284Zm-0.258.086a0.207,0.207,0,0,0,.043.129V18.37H46.513Zm-1.419.043,0.043,0.129H45.18V18.413H45.094Zm-15.69.729H29.1v0.043a1.9,1.9,0,0,1,.258.472H29.4V19.142Zm0.258,0a0.155,0.155,0,0,0,.086.043A0.155,0.155,0,0,0,29.662,19.142ZM29.919,19.4h0.129V19.142H29.962Zm0.215-.257V19.4h0.129V19.142H30.134Zm0.215,0v0.086h0.086V19.142H30.349Zm0.645,0a1.51,1.51,0,0,0,.043.472,0.156,0.156,0,0,0,.043-0.086,1.519,1.519,0,0,0,.215-0.386h-0.3Zm13.928,0h-0.3v0.086a1.01,1.01,0,0,1,.215.429h0.043v-0.3A0.371,0.371,0,0,0,44.922,19.142Zm0.086,0a1.5,1.5,0,0,0,0,.729A1.5,1.5,0,0,0,45.008,19.142Zm0.43,0v0.086h0.129V19.142H45.438ZM45.61,19.4h0.172V19.314a0.369,0.369,0,0,0-.129-0.172v0.043A0.371,0.371,0,0,0,45.61,19.4Zm0.215-.257V19.4h0.129V19.142H45.825Zm0.344,0a0.155,0.155,0,0,0,.086.043A0.155,0.155,0,0,0,46.169,19.142Zm-3.912.043a1.156,1.156,0,0,1,.516.043A1.155,1.155,0,0,1,42.257,19.185Zm-11.564.043L30.736,19.4h0.043V19.271Zm11.306,0a0.208,0.208,0,0,1,.129.043A0.208,0.208,0,0,1,42,19.228Zm3.138,0a0.207,0.207,0,0,0,.043.129A0.207,0.207,0,0,0,45.137,19.228Zm-15.6.043a0.609,0.609,0,0,0-.043.172h0.043V19.356C29.586,19.289,29.56,19.335,29.533,19.271Zm0.086,0c0.036,0.139-.021.066,0.086,0.129V19.271H29.619Zm0.129,0a0.207,0.207,0,0,0,.043.129V19.271H29.747Zm0.6,0.129c0.14-.035.066,0.021,0.129-0.086H30.392V19.271H30.349V19.4Zm0.516-.129a0.207,0.207,0,0,0,.043.129A0.207,0.207,0,0,0,30.865,19.271Zm14.7,0.129a0.207,0.207,0,0,0-.043-0.129,0.5,0.5,0,0,1-.129.086V19.4h0.172Zm0.516-.129a0.207,0.207,0,0,0,.043.129A0.207,0.207,0,0,0,46.083,19.271ZM46.169,19.4a0.207,0.207,0,0,0,.129-0.043,0.154,0.154,0,0,1-.043-0.086H46.169V19.4Zm0.172-.129a0.554,0.554,0,0,0,.043.3A0.556,0.556,0,0,0,46.341,19.271Zm-15.776.043V19.4H30.65V19.314H30.564Zm14.7,0c0,0.065-.083.063,0,0.086h0.086C45.359,19.33,45.285,19.348,45.266,19.314ZM46.642,19.4a0.155,0.155,0,0,1,.043.086H46.642V19.4Zm-17.023.043a2.678,2.678,0,0,0,.043.558H29.7V19.871a0.288,0.288,0,0,1,0-.3l0.043,0.214H29.79v-0.3H29.747a0.147,0.147,0,0,1-.043.086C29.669,19.432,29.726,19.505,29.619,19.442Zm0.344,0a1.174,1.174,0,0,0,.043.386h0.043A0.334,0.334,0,0,0,29.962,19.442Zm0.172,0a0.147,0.147,0,0,1-.043.086l0.129,0.343a1,1,0,0,0,.043-0.429H30.134Zm0.215,0a1.028,1.028,0,0,0,.043.386h0.043a0.439,0.439,0,0,1,.043-0.343Zm0.215,0a5.368,5.368,0,0,1-.043.558l0.086-.043V20a0.289,0.289,0,0,0,.043-0.172,0.678,0.678,0,0,0,.043-0.343Zm0.172,0a0.208,0.208,0,0,0,.043.129A0.208,0.208,0,0,0,30.736,19.442Zm0.129,0a0.781,0.781,0,0,0,.043.386A0.453,0.453,0,0,0,30.865,19.442Zm14.229,0a0.666,0.666,0,0,0,.043.343A0.664,0.664,0,0,0,45.094,19.442Zm0.172,0a0.805,0.805,0,0,0,0,.558h0.043a0.451,0.451,0,0,1,.043-0.257,0.452,0.452,0,0,0,.043.257V19.743a0.566,0.566,0,0,1-.043-0.3H45.266Zm0.516,0H45.61a0.277,0.277,0,0,1-.043.172V19.442H45.438a0.122,0.122,0,0,0,.043.043,0.679,0.679,0,0,0,.043.515,0.781,0.781,0,0,1,.043-0.386c0.048,0.071,0,.026.086,0a2.742,2.742,0,0,1,0,.386h0.086A2.793,2.793,0,0,1,45.782,19.442Zm0.043,0a1.143,1.143,0,0,0,.086.515l0.043-.515H45.825Zm0.258,0a0.666,0.666,0,0,0,.043.343c0.018-.154-0.02-0.108.086-0.172V19.7a0.289,0.289,0,0,1,.043.172H46.212a0.147,0.147,0,0,0-.043-0.086V20c0.154-.069.139-0.186,0.129-0.515H46.255V19.442H46.212a0.207,0.207,0,0,1-.043.129A0.163,0.163,0,0,0,46.083,19.442Zm-16.593.043-0.043.386H29.49V19.828A0.356,0.356,0,0,0,29.49,19.485Zm17.109,0c0.041,0.094.061,0.128-.043,0.172A0.542,0.542,0,0,1,46.6,19.485Zm-0.215.172a0.884,0.884,0,0,0,0,.257h0.043V19.657H46.384Zm-0.6.043a0.556,0.556,0,0,0,.043.3A0.554,0.554,0,0,0,45.782,19.7Zm-0.215.043A0.452,0.452,0,0,0,45.61,20,0.452,0.452,0,0,0,45.567,19.743Zm-15.261.129a0.207,0.207,0,0,0,.043.129A0.207,0.207,0,0,0,30.306,19.871Zm-0.215.043v0.043H30.048C29.966,19.99,30.134,20,30.134,20A0.147,0.147,0,0,0,30.091,19.914Zm0.086,0V20H30.22V19.914H30.177Zm14.831,0V20h0.043V19.914H45.008Zm-15.347.129-0.043.6H29.7A1.406,1.406,0,0,0,29.662,20.043Zm0.215,0a0.665,0.665,0,0,0,.043.343,0.6,0.6,0,0,1,.086-0.257h0.043v0.215a0.567,0.567,0,0,0-.043.3h0.387l-0.043-.6C30.11,20.047,30.115,20.048,29.876,20.043Zm0.516,0a5.712,5.712,0,0,1,.086.6h0.129l-0.043-.6H30.392Zm0.473,0v0.6h0.086a0.207,0.207,0,0,1,.043-0.129,0.207,0.207,0,0,0,.043.129V20.386c-0.151,0-.142-0.085-0.129-0.343H30.865Zm14.186,0.6a1.4,1.4,0,0,0-.043-0.6,2.1,2.1,0,0,1-.086.6h0.129Zm0.215,0h0.172l0.043-.6H45.438c-0.055.086-.051,0.04-0.172,0v0.043A0.925,0.925,0,0,1,45.266,20.644Zm0.215,0h0.172a0.639,0.639,0,0,0-.129-0.6v0.386A0.372,0.372,0,0,0,45.481,20.644Zm0.344-.6H45.653v0.086c0.121,0.019.1,0.182,0.086,0.429a0.155,0.155,0,0,0-.043.086h0.215V20.558A1.673,1.673,0,0,1,45.825,20.043Zm0.086,0a0.91,0.91,0,0,0,.086.3C46,20.171,46.02,20.109,45.911,20.043Zm0.258,0.6H46.3a2.6,2.6,0,0,0-.086-0.6H46.169v0.6Zm0.172-.6v0.6h0.086V20.386A3.362,3.362,0,0,0,46.341,20.043Zm-16.851.043-0.043.429c-0.037-.032-0.049-0.054-0.086-0.086v0.215H29.4c0.07-.108,0-0.019.129,0V20.086H29.49Zm0.645,0.043a0.381,0.381,0,0,1,.129.386H30.22v0.043H30.177Zm0.559,0.043v0.086h0.043A0.147,0.147,0,0,0,30.693,20.172Zm14.186,0.043a0.665,0.665,0,0,0,.043.343A0.666,0.666,0,0,0,44.879,20.215ZM46.47,20.3a0.556,0.556,0,0,0,.043.3A0.554,0.554,0,0,0,46.47,20.3Zm-1.333.086a0.277,0.277,0,0,0,.043.172A0.277,0.277,0,0,0,45.137,20.386Zm0.817,0v0.258H46.04V20.472C46,20.44,45.991,20.418,45.954,20.386Zm-16.077.043a0.359,0.359,0,0,0,.043.215A0.359,0.359,0,0,0,29.876,20.429Zm11.607,0.129v1.33h0.043V21.845a3.517,3.517,0,0,0,.043-1.287H41.483Zm1.977,0.086c0,0.315.005,0.429,0,.686h0.086V20.644H43.461Zm-14.1.043a0.576,0.576,0,0,0,.129.386l0.043-.386H29.447C29.371,20.727,29.446,20.7,29.361,20.687Zm0.129,0.772h0.129V21.373a3.626,3.626,0,0,0,.086-0.644,0.155,0.155,0,0,0-.086-0.043v0.129a1.072,1.072,0,0,1-.043.472,0.554,0.554,0,0,0-.043-0.3,0.359,0.359,0,0,1-.043.215,0.147,0.147,0,0,0-.043-0.086v0.172A0.289,0.289,0,0,1,29.49,21.459Zm0.9-.772H30.22v0.043a0.678,0.678,0,0,1,.043.343c-0.135-.06-0.131-0.021-0.129-0.3a0.154,0.154,0,0,0,.043-0.086H30.005l-0.043.172H29.919a0.276,0.276,0,0,0-.043-0.172,1.506,1.506,0,0,0,0,.772,0.207,0.207,0,0,1,.043-0.129,0.207,0.207,0,0,0,.043.129,0.554,0.554,0,0,0-.043-0.3,0.207,0.207,0,0,1-.043.129,1.46,1.46,0,0,1,.043-0.343h0.043v0.043a2.3,2.3,0,0,1,.129.472,0.616,0.616,0,0,1,.043-0.215h0.043a0.359,0.359,0,0,0,.043.215,0.554,0.554,0,0,1,.043-0.3v0.086c0.03,0.043.055,0.172,0.086,0.215a0.311,0.311,0,0,1,.086-0.343,0.665,0.665,0,0,0,.043.343A5.006,5.006,0,0,0,30.392,20.687Zm0.086,0q0.022,0.365.043,0.729a0.673,0.673,0,0,0,.215.043l-0.043-.429c-0.116-.018-0.094-0.106-0.086-0.343H30.478Zm0.473,0.772a0.208,0.208,0,0,0,.129-0.043c-0.167-.146-0.037-0.609-0.215-0.729l-0.043.343h0.043a0.147,0.147,0,0,1,.043-0.086,0.875,0.875,0,0,0,0,.515,0.277,0.277,0,0,1,.043-0.172v0.172Zm0.043-.772a0.207,0.207,0,0,0,.043.129V20.687H30.994Zm13.842,0a0.359,0.359,0,0,0,.043.215A0.359,0.359,0,0,0,44.836,20.687Zm0.086,0a1.533,1.533,0,0,0,.043.643,0.207,0.207,0,0,1,.043-0.129,0.208,0.208,0,0,0,.043.129,0.555,0.555,0,0,0-.043-0.3,0.207,0.207,0,0,1-.043.129A0.443,0.443,0,0,0,44.922,20.687Zm0.344,0v0.558c-0.112.012-.085,0-0.086,0.215h0.172l0.086-.772H45.266Zm0.215,0-0.086.772h0.086a1.024,1.024,0,0,1,.043-0.472,0.524,0.524,0,0,0,.086.472V21.073a0.794,0.794,0,0,0,.043-0.386H45.481Zm0.258,0q0.022,0.386.043,0.772h0.086v-0.6a0.289,0.289,0,0,0,.043-0.172H45.739Zm0.215,0a0.578,0.578,0,0,1,0,.386,0.207,0.207,0,0,0-.043-0.129v0.515H46V21.373a0.227,0.227,0,0,1,0-.257,0.788,0.788,0,0,0,.086.343A1.452,1.452,0,0,0,45.954,20.687Zm0.43,0.772V21.33c0.111-.012.076,0.02,0.086-0.172-0.086,0-.012.044-0.086,0a0.37,0.37,0,0,0-.043.215H46.3a0.974,0.974,0,0,0-.086-0.686,0.122,0.122,0,0,1-.043.043c0.041,0.236.062,0.355,0.086,0.6-0.06.009,0.017-.035-0.043-0.043-0.033-.082-0.043.086-0.043,0.086A0.277,0.277,0,0,0,46.384,21.459Zm-0.043-.772c0.044,0.156.04,0.265,0.086,0.429H46.47a0.452,0.452,0,0,1,.043-0.257,0.147,0.147,0,0,0,.043.086V20.687H46.513a0.207,0.207,0,0,1-.043.129C46.422,20.692,46.462,20.736,46.341,20.687Zm-15.6.043v0.086h0.043A0.147,0.147,0,0,0,30.736,20.729Zm17.754,0v0.086h0.172V20.772H48.619V20.729H48.49Zm-17.453.215a0.726,0.726,0,0,0,.043.257h0.043V21.116C31.1,21.079,31.066,20.981,31.037,20.944Zm14.057,0a0.277,0.277,0,0,0,.043.172A0.277,0.277,0,0,0,45.094,20.944Zm-15.776.086-0.043.257h0.043V21.2A0.125,0.125,0,0,0,29.318,21.03Zm15.519,0.043a0.608,0.608,0,0,0-.043.172h0.043A0.252,0.252,0,0,0,44.836,21.073Zm3.052,0V21.33h0.086V21.073H47.888Zm0.344,0a0.452,0.452,0,0,0,.043.257A0.452,0.452,0,0,0,48.232,21.073Zm-2.579.043v0.343h0.086V21.244C45.71,21.211,45.683,21.149,45.653,21.116Zm1.848,0a0.665,0.665,0,0,0,.043.343A0.663,0.663,0,0,0,47.5,21.116Zm0.086,0v0.343H47.8V21.116H47.587Zm1.376,0v0.257h0.129V21.116H48.963Zm0.215,0v0.257h0.086V21.116H49.178Zm-2.665.043,0.043,0.129H46.6A0.163,0.163,0,0,0,46.513,21.158ZM46.9,21.244V21.33C46.969,21.279,46.952,21.312,46.9,21.244Zm-2.063.043a0.54,0.54,0,0,1-.043.172h0.129V21.416C44.893,21.383,44.866,21.32,44.836,21.287Zm-1.376.086c0.007,0.189-.015.214,0.086,0.258V21.373H43.461Zm1.5,0v0.086h0.043V21.373H44.965Zm-15.647.043c0.074,0.038.055,0.038,0.129,0H29.318ZM29.4,22.274h0.129a0.277,0.277,0,0,1,.043-0.172c0.018,0.154-.02.108,0.086,0.172V21.888H29.619a0.359,0.359,0,0,1-.043.215V21.759h0.043a0.147,0.147,0,0,0,.043.086,2.376,2.376,0,0,0-.086-0.343c-0.083.026-.188,0.025-0.215,0.043a5.042,5.042,0,0,0-.129.729h0.086a0.779,0.779,0,0,1,.043-0.386v0.086A0.566,0.566,0,0,1,29.4,22.274Zm0.43,0a0.208,0.208,0,0,0,.129-0.043,1.024,1.024,0,0,1,.129-0.429V21.759h0.043V22.1a0.289,0.289,0,0,0-.043.172h0.215l-0.043-.6h0.043v0.086a0.881,0.881,0,0,1,.086.515h0.172q-0.021-.386-0.043-0.772H30.435a0.671,0.671,0,0,1-.516,0,0.293,0.293,0,0,1-.086.172A1.921,1.921,0,0,1,29.833,22.274Zm0.817,0h0.129L30.736,21.5H30.693c-0.081.037-.032,0.02-0.129,0v0.3A0.661,0.661,0,0,1,30.65,22.274Zm0.215-.772a2.307,2.307,0,0,0,.129.772,1.023,1.023,0,0,1,.043-0.472v0.043a1.024,1.024,0,0,0,.129.429,2.274,2.274,0,0,1,0-.6H31.123a0.148,0.148,0,0,1-.043.086c-0.006-.162.02-0.151-0.086-0.215A0.3,0.3,0,0,0,30.865,21.5Zm13.971,0a5.57,5.57,0,0,0-.086.772h0.086A2,2,0,0,0,44.836,21.5Zm0.129,0c-0.012.343-.069,0.421-0.086,0.772h0.086V21.888A0.431,0.431,0,0,0,44.965,21.5Zm0.129,0.772h0.172a3.839,3.839,0,0,1,.086-0.772H45.309c-0.076.052-.075,0-0.129,0.043A1.784,1.784,0,0,0,45.094,22.274Zm0.215,0h0.215L45.481,21.5H45.395Zm0.215-.772a0.452,0.452,0,0,0,.043.258L45.61,21.5H45.524Zm0.258,0.772q-0.021-.386-0.043-0.772H45.653l-0.086.772h0.215Zm0.086,0h0.215V22.231a1.439,1.439,0,0,0-.172-0.729,0.207,0.207,0,0,1-.043.129,0.163,0.163,0,0,0-.086-0.129V21.63A0.879,0.879,0,0,1,45.868,22.274ZM46.04,21.5a0.277,0.277,0,0,0,.043.172A0.276,0.276,0,0,0,46.04,21.5Zm0.473,0.772a0.876,0.876,0,0,1,0-.343h0.043a0.311,0.311,0,0,0,.086.343V22.1a1.363,1.363,0,0,1-.086-0.558,0.7,0.7,0,0,1-.3-0.043,4.463,4.463,0,0,1-.043.644c0.029,0.033.056,0.1,0.086,0.129C46.348,22.147,46.345,22.255,46.513,22.274Zm-1.462-.729a0.208,0.208,0,0,0,.043.129V21.545H45.051ZM29.4,21.588a0.218,0.218,0,0,1,0,.3v-0.3Zm1.548,0.043a0.125,0.125,0,0,1,0,.172V21.63Zm15.433,0.043,0.129,0.043v0.129H46.47V21.8A0.5,0.5,0,0,1,46.384,21.673Zm3.1,0a0.554,0.554,0,0,0,.043.3A0.556,0.556,0,0,0,49.479,21.673Zm-5.889.043V21.8h0.043V21.716H43.59ZM46.255,21.8a0.317,0.317,0,0,1,.086.257H46.3V22.017A0.371,0.371,0,0,1,46.255,21.8Zm3.1,0a0.277,0.277,0,0,0,.043.172A0.277,0.277,0,0,0,49.35,21.8Zm-10.618.172a0.228,0.228,0,0,0,.258,0H38.732Zm0.516,0.043a1.928,1.928,0,0,0,1.032,0H39.248Zm-0.516.6a1.825,1.825,0,0,1,.387-0.043,1.141,1.141,0,0,1,.043.686,0.208,0.208,0,0,1,.129.043,0.192,0.192,0,0,0-.129.215,0.148,0.148,0,0,0,.043.086V23.561c0.6-.39,1.068-0.983,1.676-1.373V22.145H40.709c-0.092.055-1.555-.079-1.977-0.086-0.029.107-.1,0.08-0.043,0.129,0,0.173.054,0.027,0.086,0.172a0.874,0.874,0,0,0-.043.429V22.617Zm1.805-.558a0.6,0.6,0,0,0,.473,0H40.537ZM47.115,22.7h0.129l0.043-.6H46.943c0,0.014.023,0.139-.043,0.086s0.006-.085-0.129-0.129v0.172a2.391,2.391,0,0,0,.086.558,0.4,0.4,0,0,1,.129-0.257v0.086l0.086,0.043a1.392,1.392,0,0,1-.129-0.472h0.043a0.466,0.466,0,0,0,.215.386C47.091,22.637,47.152,22.565,47.115,22.7Zm1.72-.215h0.172V22.1a0.546,0.546,0,0,1-.172-0.043v0.429Zm30.005-.429c0.109,0.063.049-.009,0.086,0.129H78.839V22.059ZM44.664,22.1a0.207,0.207,0,0,0,.043.129V22.1H44.664Zm0.344,0v0.086h0.043V22.1H45.008Zm4.084,0v0.386h0.172V22.1H49.092Zm-7.609.086a0.155,0.155,0,0,0,.086.043A0.155,0.155,0,0,0,41.483,22.188Zm5.2,0v0.086h0.043V22.188H46.685Zm3.7,0.043a0.155,0.155,0,0,0,.086.043A0.155,0.155,0,0,0,50.382,22.231Zm-8.9.043v0.644h0.043V22.875a1.421,1.421,0,0,0,.043-0.6H41.483Zm-12.251.558a0.208,0.208,0,0,0-.129.043,1.6,1.6,0,0,1,.086.257h0.043a1.394,1.394,0,0,1,.086-0.472,0.45,0.45,0,0,0,.129.472,1.575,1.575,0,0,1,.086-0.687,1.663,1.663,0,0,0,.043.687V23.046a1.163,1.163,0,0,0,0-.729,0.207,0.207,0,0,1-.043.129V22.317H29.4a0.617,0.617,0,0,1-.043.215H29.318c-0.006-.162.02-0.151-0.086-0.215v0.515Zm0.6-.515-0.086.815h0.215c0.006-.363.044-0.429,0.043-0.815H29.833Zm0.43,0.815V22.66h0.086a0.75,0.75,0,0,1,.086.472H30.65V23.046a1.363,1.363,0,0,1-.086-0.729H30.392v0.3H30.349V22.531a0.371,0.371,0,0,1-.043-0.215H30.091V22.4a1.153,1.153,0,0,1-.043.729h0.215Zm0.387-.815a3.8,3.8,0,0,0,.086.815h0.086V22.918a5.02,5.02,0,0,0,0-.6H30.65Zm0.3,0a1.878,1.878,0,0,0,.086.815,0.923,0.923,0,0,1,.086-0.515,0.857,0.857,0,0,0,.086.515l0.086-.386-0.086.043V22.746a1.024,1.024,0,0,0-.129-0.429,0.276,0.276,0,0,1-.043.172C31.019,22.335,31.057,22.381,30.951,22.317Zm0.258,0a0.207,0.207,0,0,0,.043.129A0.207,0.207,0,0,0,31.209,22.317Zm8.813,1.2a1.559,1.559,0,0,0,.43-0.043,0.779,0.779,0,0,0,.043.386c0.456-.668.788-0.286,0.774-1.545H41.182a3.794,3.794,0,0,0-.344.3,1.712,1.712,0,0,1-.043.257H40.752V22.832a0.538,0.538,0,0,0-.043-0.129A1.247,1.247,0,0,0,40.022,23.518Zm4.729-1.2a1.618,1.618,0,0,0-.043.815c0.027-.226.043-0.334,0.086-0.558h0.043a1.276,1.276,0,0,0,.043.558,1.413,1.413,0,0,0,0-.815l-0.043.172H44.793V22.317H44.75Zm0.344,0q-0.021.408-.043,0.815c0.2-.019.191,0.041,0.215-0.172H45.223a0.147,0.147,0,0,1-.043.086V22.789a1.051,1.051,0,0,0,.086-0.472H45.094Zm0.215,0c0,0.33.009,0.578,0,.815a0.208,0.208,0,0,0,.129-0.043c0.028-.037.057-0.135,0.086-0.172a0.359,0.359,0,0,0,.043.215,0.9,0.9,0,0,0-.043-0.429,0.277,0.277,0,0,1-.043.172l0.043-.558H45.309Zm0.258,0c0.021,0.285.042,0.429,0.043,0.815h0.172a2.9,2.9,0,0,1,.043-0.815H45.567Zm0.3,0a1.368,1.368,0,0,1,0,.644,0.207,0.207,0,0,0-.043-0.129v0.3h0.043c0.07-.108,0-0.019.129,0a0.451,0.451,0,0,1,.043-0.257l0.043,0.257h0.086V23.046a1.18,1.18,0,0,1-.086-0.729H45.868Zm0.387,0.6H46.47a0.27,0.27,0,0,1-.086.215h0.172V22.96H46.6a0.775,0.775,0,0,0,.129.172V22.96a1.4,1.4,0,0,0-.172-0.644,0.2,0.2,0,0,1,0,.215V22.488a0.289,0.289,0,0,1-.043-0.172c-0.219.029-.083,0.077-0.258,0v0.6Zm0.559-.6a0.154,0.154,0,0,1,.043.086H46.814V22.317Zm-17.668.043a0.207,0.207,0,0,0,.043.129A0.207,0.207,0,0,0,29.146,22.36ZM47.072,22.4a0.208,0.208,0,0,1,.129.043A0.207,0.207,0,0,1,47.072,22.4Zm-2.45.043a0.207,0.207,0,0,0,.043.129V22.446H44.621Zm1.719,0.086a0.2,0.2,0,0,1,.086.214H46.341V22.531Zm0.387,0v0.086h0.043V22.531H46.728Zm-7.953.129a0.173,0.173,0,0,0,.215,0H38.775Zm7.781,0a0.2,0.2,0,0,1,.086.215H46.6V22.832A0.289,0.289,0,0,1,46.556,22.66Zm-1.59.043v0.086h0.043V22.7H44.965Zm-6.19.043a0.277,0.277,0,0,0,.043.172A0.276,0.276,0,0,0,38.775,22.746Zm0.086,0V23H38.99V22.746H38.861Zm7.867,0.086v0.086h0.043A0.147,0.147,0,0,0,46.728,22.832ZM31.6,22.96a0.209,0.209,0,0,1,.129.043A0.208,0.208,0,0,1,31.6,22.96Zm-1.247.086v0.086h0.043V23.046H30.349Zm9.07,0h0.086v0.043A0.148,0.148,0,0,1,39.42,23.046Zm-0.688.043v0.086h0.043A0.147,0.147,0,0,0,38.732,23.089Zm0.817,0.043h0.086v0.043H39.549V23.132ZM29.06,24.805h0.129l0.043-.214h0.043v0.214H29.49a5.587,5.587,0,0,0-.043-1.63,0.663,0.663,0,0,1-.043.343,0.665,0.665,0,0,0-.043-0.343,0.665,0.665,0,0,1-.043.343,0.661,0.661,0,0,0-.086-0.343H29.189V23.3a0.371,0.371,0,0,1,.043.215H29.189a0.47,0.47,0,0,0-.086-0.129,0.284,0.284,0,0,0,0,.215,0.207,0.207,0,0,0,.043.129,0.147,0.147,0,0,1,.043-0.086v0.215c-0.008.014-.118,0.346-0.129,0.386a1.189,1.189,0,0,1,0,.429,0.951,0.951,0,0,0-.086-0.429l-0.043.558h0.043a0.468,0.468,0,0,1,.086-0.129v0.129Zm0.473-1.63a1.277,1.277,0,0,0,.043.558A1.277,1.277,0,0,0,29.533,23.175Zm0.215,0-0.043.772H29.79a2.164,2.164,0,0,1,.086-0.644v0.558a0.836,0.836,0,0,0,.387.086V23.9a1.038,1.038,0,0,1-.043-0.472h0.043v0.086a0.915,0.915,0,0,1,.043.429h0.129V23.776h0.043a0.147,0.147,0,0,0,.043.086,0.554,0.554,0,0,1,.043-0.3v0.386h0.172q-0.022-.386-0.043-0.772H29.747Zm0.989,0a1.573,1.573,0,0,0,.086.686A0.982,0.982,0,0,0,30.736,23.175Zm0.258,0v0.086h0.043V23.175H30.994Zm0.129,0a2.091,2.091,0,0,0-.086.644H31.08v0.043h0.043a0.207,0.207,0,0,1,.043-0.129l-0.043.9c0.119,0.057.1,0.113,0.215,0.172a0.276,0.276,0,0,1,.043-0.172V24.72a0.155,0.155,0,0,1,.043.086h0.043V24.548c-0.049-.08-0.035-0.307-0.086-0.386a1.2,1.2,0,0,1-.086.472H31.252V24.505a3.214,3.214,0,0,0,.129-0.515H31.3a0.277,0.277,0,0,1-.043.172,1.133,1.133,0,0,0-.086-0.515c0.146-.041.134-0.017,0.172-0.172a0.333,0.333,0,0,0-.129-0.129,0.207,0.207,0,0,1-.043.129C31.182,23.289,31.248,23.258,31.123,23.175Zm10.4,0-0.043.129h0.086A0.207,0.207,0,0,0,41.526,23.175Zm3.138,0V23.3c0.109,0.017.068-.025,0.086,0.129H44.707v0.043c-0.074-.034-0.079-0.113-0.129-0.043a0.155,0.155,0,0,0-.043.086c0.1-.006.163,0.088,0.172,0.258a0.172,0.172,0,0,0-.086.172h0.086V23.9c0.03-.043.055-0.172,0.086-0.214a0.359,0.359,0,0,0,.043.214,1.309,1.309,0,0,0,0-.729,0.276,0.276,0,0,1-.043.172V23.175H44.664Zm0.387,0.686,0.258-.043a0.78,0.78,0,0,1,.043-0.386v0.515H45.61l-0.043-.772H45.524v0.043c-0.028.037-.057,0.135-0.086,0.172V23.175H45.309a0.276,0.276,0,0,1-.043.172,0.277,0.277,0,0,0-.043-0.172l-0.043.257H45.137a0.835,0.835,0,0,0,0-.257c-0.076.04,0,.009-0.086,0v0.043A5.18,5.18,0,0,1,45.051,23.861Zm0.731,0.086h0.172V23.9a0.356,0.356,0,0,1,0-.343,0.147,0.147,0,0,0,.043.086V23.261H45.954a0.359,0.359,0,0,1-.043.215V23.389c-0.03-.043-0.055-0.171-0.086-0.214v0.086c-0.038.06-.047,0.241-0.086,0.3V23.175c-0.139.035-.066-0.021-0.129,0.086a1.683,1.683,0,0,1,.043.686H45.7V23.861c0.033-.051.051-0.207,0.086-0.257v0.343Zm0.3,0h0.129c-0.016-.236-0.043-0.486-0.043-0.772H46.083C46.105,23.3,46.085,23.69,46.083,23.947Zm0.645-.772H46.6a0.554,0.554,0,0,1-.043.3v-0.3H46.384c0.019,0.109,0,.451,0,0.686h0.043V23.819a1.219,1.219,0,0,0,.086-0.215,0.2,0.2,0,0,0,.215-0.043C46.615,23.39,46.692,23.406,46.728,23.175Zm0.043,0v0.086h0.043A0.147,0.147,0,0,0,46.771,23.175Zm-16.378.043a0.642,0.642,0,0,1,.086.429H30.435V23.561A0.677,0.677,0,0,1,30.392,23.218Zm8.34,0a0.452,0.452,0,0,0,.043.257A0.451,0.451,0,0,0,38.732,23.218Zm0.645,0a0.219,0.219,0,0,1,.043.129H39.377V23.218Zm-13.154.043a0.172,0.172,0,0,1,.086.172H26.265V23.389A0.218,0.218,0,0,1,26.223,23.261Zm0.774,0v0.129h0.043V23.347c0.033-.082.043,0.086,0.043,0.086A0.172,0.172,0,0,0,27,23.6h0.172V23.261H27Zm19.43,0h0.086v0.172H46.47v0.043H46.427V23.261Zm1.5,0a1.519,1.519,0,0,0-.129.129H47.759v0.043l0.215,0.043A0.359,0.359,0,0,0,47.931,23.261Zm0.086,0a0.276,0.276,0,0,0,.043.172A0.277,0.277,0,0,0,48.017,23.261Zm0.129,0.686a0.546,0.546,0,0,1,.172.043,0.672,0.672,0,0,0-.043.214h0.387V23.475h0.473V23.3a1.9,1.9,0,0,0-.989.086,0.207,0.207,0,0,0-.043-0.129v0.129A1.292,1.292,0,0,1,48.146,23.947Zm-13.2-.644c0.048,0.071.076,0.046,0,.086V23.3Zm-5.03.043h0.086v0.3H29.962V23.69H29.919V23.347Zm0.215,0a0.878,0.878,0,0,1,0,.558H30.091V23.389h0.043V23.347Zm6.663,0c0.015,0.013.086,0.023,0.043,0.086C36.793,23.411,36.707,23.356,36.8,23.347Zm0.43,0c0.015,0.013.086,0.023,0.043,0.086C37.222,23.411,37.136,23.356,37.227,23.347Zm1.72,0-0.043.086C38.979,23.372,38.947,23.347,38.947,23.347Zm0.473,1.03h0.473V24.29a3.3,3.3,0,0,1-.086-0.515h0.172V23.347H39.936a5.891,5.891,0,0,0-.774.6h0.129a0.262,0.262,0,0,1,.086-0.086v0.086A0.915,0.915,0,0,1,39.42,24.376Zm2.063-1.03v0.086h0.086V23.347H41.483Zm5.889,0a0.155,0.155,0,0,0,.086.043,0.276,0.276,0,0,0-.086.215h0.043V23.561a1.3,1.3,0,0,1,.258-0.172V23.347h-0.3Zm1.806,0.043v0.086h0.043A0.147,0.147,0,0,0,49.178,23.389Zm-3.74.043a0.467,0.467,0,0,1-.043.472Zm-4.213.043a4.086,4.086,0,0,0-.516.515h0.129a1.928,1.928,0,0,1,.43-0.515H41.225Zm-11.864.043a0.357,0.357,0,0,1,0,.343V23.518Zm15.776,0a0.323,0.323,0,0,1,0,.3H45.094V23.6A0.155,0.155,0,0,0,45.137,23.518Zm-5.115.043a0.323,0.323,0,0,0,.086.3,0.121,0.121,0,0,0,.043.043V23.6Zm0.172,0V23.9h0.215V23.561H40.193Zm4.772,0.086a0.451,0.451,0,0,0,.043.257A0.452,0.452,0,0,0,44.965,23.647Zm2.665,0.6v-0.3c0.173,0.006.235,0.023,0.3-.086h0.043V23.819H47.888c-0.138.133-.335,0.02-0.43-0.172H47.415V23.69a1.735,1.735,0,0,0-.043.815h0.086a0.727,0.727,0,0,1,.043-0.258H47.63Zm-18.4-.515a0.371,0.371,0,0,1,.043.214h0.043V23.9c0.033-.082.043,0.086,0.043,0.086a1.7,1.7,0,0,1-.086.6Zm15.3,0v0.043H44.492c-0.083.033,0.086,0.043,0.086,0.043A0.147,0.147,0,0,0,44.535,23.733Zm-13.154.043-0.043.086C31.413,23.8,31.381,23.776,31.381,23.776Zm4.041,0v0.043H35.379c-0.083.033,0.086,0.043,0.086,0.043A0.147,0.147,0,0,0,35.422,23.776Zm-6.448.043,0.043,0.129H29.06A0.163,0.163,0,0,0,28.974,23.819Zm10.919,0a0.155,0.155,0,0,0,.086.043A0.155,0.155,0,0,0,39.893,23.819Zm-10.231.987H29.79V23.99H29.7v0.257A1.292,1.292,0,0,0,29.662,24.805Zm0.3-.815a0.46,0.46,0,0,1-.129.343,0.472,0.472,0,0,1,0,.472H30.22V24.677c-0.123-.02-0.1-0.221-0.086-0.472a0.154,0.154,0,0,0,.043-0.086H30.22v0.215a1.038,1.038,0,0,1,.043.472h0.3a0.6,0.6,0,0,0-.086-0.214c-0.092-.309.187-0.507-0.172-0.6A2.715,2.715,0,0,1,29.962,23.99Zm0.645,0v0.815h0.215Q30.8,24.4,30.779,23.99H30.607Zm0.3,0a0.907,0.907,0,0,0,.086.815V24.548C30.921,24.427,30.983,24.11,30.908,23.99Zm14.444,0v0.086h0.043V23.99H45.352Zm0.086,0a3.47,3.47,0,0,0-.043.6h0.258l0.043-.129a0.881,0.881,0,0,1-.086-0.472H45.438Zm0.344,0a2.835,2.835,0,0,0-.043.6h0.043a0.236,0.236,0,0,1,.172-0.129L46,24.033H45.911A0.22,0.22,0,0,0,45.782,23.99Zm0.3,0v0.3h0.086V24.248a0.464,0.464,0,0,0,.043-0.257H46.083Zm-17.066.043v0.086H29.1V24.033H29.017Zm8.6,0a0.207,0.207,0,0,0,.043.129A0.207,0.207,0,0,0,37.614,24.033Zm0.086,0v0.129h0.129V24.033H37.7Zm-3.525.172a1.45,1.45,0,0,0,0,.386c0.1-.05.075-0.088,0.172-0.043,0.178,0.105.1,0.366,0.258,0.472V24.762a0.472,0.472,0,0,1,0-.386,0.374,0.374,0,0,0-.215-0.043A0.675,0.675,0,0,0,34.175,24.2Zm5.33,0a0.166,0.166,0,0,1,.086.129H39.549V24.29A0.155,0.155,0,0,1,39.506,24.2Zm12.9,0.3V24.248H51.929V24.29a0.224,0.224,0,0,1,0,.215h0.129a0.22,0.22,0,0,1,.129-0.043l-0.043.086h0.043A0.372,0.372,0,0,1,52.4,24.505Zm0.172,0V24.248H52.488a0.37,0.37,0,0,1-.043.258h0.129Zm0.086-.258v0.086h0.086V24.248H52.66Zm0.129,0v0.086h0.129V24.248H52.789Zm-24.2.086h0.086v0.043H28.63v0.043H28.587V24.333Zm-0.559,1.416h0.344c0,0.277,0,.324,0,0.6h0.086c0.1-.125.022-0.047,0.172,0a1.5,1.5,0,0,0,.086-0.257,12.431,12.431,0,0,1,.172-1.759H28.845c-0.28.387-1.239,0.873-1.333,1.33h0.043a0.466,0.466,0,0,1,.473-0.043v0.129ZM37.7,24.333v1.33l0.43,0.043c-0.012-.493-0.034-0.981-0.043-1.33H38A0.57,0.57,0,0,0,37.7,24.333Zm8.426,0v0.086h0.043V24.333H46.126Zm-17.668.043c0.048,0.071.076,0.046,0,.086V24.376Zm24.159,0v0.129H52.66V24.462H52.7v0.043a0.218,0.218,0,0,0,.043-0.129H52.617Zm0.172,0v0.258h0.129V24.376H52.789Zm-15.175.043a0.207,0.207,0,0,0,.043.129A0.207,0.207,0,0,0,37.614,24.419Zm1.376,0v0.086h0.043V24.419H38.99Zm18.141,0,0.129,0.043v0.043A0.163,0.163,0,0,1,57.131,24.419Zm-22.483.043V25.02H34.82l-0.043-.558H34.648Zm2.923,0H37.4v0.043a1.64,1.64,0,0,1-.043,1.073,0.616,0.616,0,0,1,.215.043V24.462Zm7.695,0v0.086h0.043V24.462H45.266Zm0.86,0.043a0.207,0.207,0,0,0,.043.129V24.505H46.126Zm11.134,0h0.086v0.086H57.3Zm-4.643.043a0.155,0.155,0,0,0,.086.043A0.154,0.154,0,0,0,52.617,24.548Zm-17.668.215h0.172V24.72l-0.172-.129v0.172Zm0.129-.172a0.693,0.693,0,0,0,.688.172,0.187,0.187,0,0,1,.129-0.129V24.591H35.078Zm0.9,0v0.043H35.938c-0.083.033,0.086,0.043,0.086,0.043V24.72h0.043V24.591H35.981Zm0.172,0.172h0.215V24.72a0.754,0.754,0,0,0-.172-0.129v0.043A0.218,0.218,0,0,0,36.153,24.762Zm0.172-.172a0.155,0.155,0,0,0,.086.043A0.155,0.155,0,0,0,36.325,24.591Zm0.688,0c0.074,0.038.055,0.038,0.129,0H37.012Zm0.258,0.3v-0.3H37.227a0.684,0.684,0,0,1-.215.214v0.086H37.27Zm0.344-.3a0.207,0.207,0,0,0,.043.129A0.207,0.207,0,0,0,37.614,24.591Zm9.758,0.043a0.155,0.155,0,0,0,.086.043A0.155,0.155,0,0,0,47.372,24.634Zm30.994,0a0.454,0.454,0,0,1,.258.043A0.454,0.454,0,0,1,78.367,24.634Zm-1.118.043a2.725,2.725,0,0,1,1.032.043A2.729,2.729,0,0,1,77.249,24.677Zm-49.221.086a0.154,0.154,0,0,1,.043.086H28.028V24.762Zm9.586,0a0.452,0.452,0,0,0,.043.257A0.452,0.452,0,0,0,37.614,24.762Zm30.263,0.043v0.386h0.9a0.665,0.665,0,0,1,.043-0.343v0.343h0.344V24.762Zm1.333-.043v0.429h0.9a0.665,0.665,0,0,1,.043-0.343v0.343H70.5V24.762H69.21Zm1.333,0v0.429h0.9a0.78,0.78,0,0,1,.043-0.386v0.386h0.344V24.762h-1.29Zm1.333,0v0.429h0.9a0.663,0.663,0,0,1,.043-0.343v0.343a0.557,0.557,0,0,1,.3.043c-0.173-.006-0.235-0.023-0.3.086h0.344V24.762h-1.29Zm1.333,0V25.32c0.329,0,.483,0,0.86,0V25.191a1.543,1.543,0,0,1-.645-0.043h0.645V24.762h-0.86Zm0.9,0v0.386h0.3V24.762h-0.3Zm4.729,0.386V24.762H78.8v0.086a1.146,1.146,0,0,0-.172.3h0.215Zm-40.064-.343a0.505,0.505,0,0,0,.086.386H38.775v0.086h0.043a0.52,0.52,0,0,0,.129-0.386A0.646,0.646,0,0,0,38.775,24.805Zm28.63,0v0.129H66.244v0.257h0.344a0.358,0.358,0,0,1,.043-0.215v0.215h0.86a0.664,0.664,0,0,1,.043-0.343v0.343h0.3V24.805H67.4Zm-39.463.043a0.155,0.155,0,0,1,.043.086H27.942V24.848Zm1.247,0.858H29.4l0.086-.858H29.275v0.086a4.338,4.338,0,0,1-.043.686l-0.043-.772H29.017v0.086a0.677,0.677,0,0,1,.043.343H29.017V25.191c-0.043-.07-0.041-0.274-0.086-0.343a5.532,5.532,0,0,1-.129.858h0.043c0.07-.108,0-0.019.129,0a0.474,0.474,0,0,1,0-.386,0.383,0.383,0,0,0,.129.386V25.621c0.038-.06.047-0.241,0.086-0.3v0.386Zm0.387-.858a0.277,0.277,0,0,0,.043.172A0.277,0.277,0,0,0,29.576,24.848Zm0.086,0q-0.022.429-.043,0.858h0.129v-0.3h0.086a0.554,0.554,0,0,0,.043.3V25.191c-0.116-.018-0.094-0.106-0.086-0.343H29.662Zm0.258,0.858c0.272,0,.341-0.008.559,0a0.781,0.781,0,0,1,.043-0.386,0.376,0.376,0,0,0,.086.386V25.663a0.678,0.678,0,0,1-.043-0.343h0.043v0.086a0.567,0.567,0,0,1,.043.3h0.3a1.79,1.79,0,0,0-.086-0.558,0.277,0.277,0,0,1-.043.172V24.848H30.607v0.343H30.564V25.106a0.464,0.464,0,0,1-.043-0.257H29.833v0.043A1.635,1.635,0,0,1,29.919,25.706Zm0.989-.858a1.922,1.922,0,0,0,.129.858q-0.022-.429-0.043-0.858H30.908Zm0.3,0a1.344,1.344,0,0,0,0,.644,0.277,0.277,0,0,1,.043-0.172v0.386h0.129a0.7,0.7,0,0,1,.086-0.429l-0.043.429h0.043c0.045-.113.045,0.029,0.086-0.086a2.025,2.025,0,0,0-.129-0.772,0.665,0.665,0,0,1-.043.343V25.149a0.567,0.567,0,0,1-.043-0.3H31.209Zm-0.989.043a0.872,0.872,0,0,1-.043.686,5.042,5.042,0,0,1-.043-0.6C30.247,24.96,30.191,25.009,30.22,24.891Zm-8.383.043h0.086C21.873,25,21.906,24.987,21.838,24.934Zm25.32,0a0.92,0.92,0,0,0-.043.3H47.2A0.583,0.583,0,0,0,47.157,24.934ZM66.2,25.191V24.934a13.569,13.569,0,0,0-3.1.214v0.043h3.1Zm-9.156-.172a0.359,0.359,0,0,0,.043.215A0.359,0.359,0,0,0,57.045,25.02Zm-19.43.043a0.207,0.207,0,0,0,.043.129A0.207,0.207,0,0,0,37.614,25.063Zm-9.93.086H27.77v0.043H27.727v0.043A0.155,0.155,0,0,1,27.684,25.149Zm46.427,0.043V25.32h0.3V25.191h-0.3Zm0.344,0V25.32a1.675,1.675,0,0,1,.688.043,0.988,0.988,0,0,0-.688.086H74.5a3.31,3.31,0,0,1,1.161,0V25.191H75.443a0.207,0.207,0,0,1-.043.129V25.191H74.455Zm1.247,0v0.257h0.946V25.32a1.028,1.028,0,0,1-.473-0.043,0.527,0.527,0,0,0,.473-0.086H75.7Zm0.989,0v0.086H76.9V25.191H76.69Zm0.258,0v0.086a1.661,1.661,0,0,0,.946-0.086H76.948Zm0.989,0v0.086h0.129V25.191H77.937Zm0.172,0v0.086H78.5a0.123,0.123,0,0,1,.043-0.043V25.191h-0.43Zm0.473,0v0.086h0.258V25.191H78.581Zm-40.967.043a0.78,0.78,0,0,0,.043.386A0.781,0.781,0,0,0,37.614,25.234Zm26.394,0.129V25.234a2.09,2.09,0,0,0-.817.086v0.043h0.817Zm0.043-.129v0.129a0.312,0.312,0,0,0,.344-0.086H64.266A0.373,0.373,0,0,0,64.052,25.234Zm1.29,0.129V25.234H65.083v0.043h0.086A0.172,0.172,0,0,0,65.341,25.363Zm0.043-.129v0.129H66.2V25.234H65.384Zm0.86,0a0.228,0.228,0,0,0,.258,0H66.244Zm0.688,0a1.475,1.475,0,0,0,.9,0h-0.9Zm0.946,0V25.32h0.9V25.234h-0.9Zm0.946,0V25.32h0.344V25.234H68.823Zm0.387,0V25.32h0.9V25.234h-0.9Zm0.946,0V25.32H70.5V25.234H70.156Zm0.387,0V25.32h0.9V25.234h-0.9Zm0.946,0V25.32h0.344V25.234H71.488Zm0.387,0V25.32h0.9V25.234h-0.9ZM32.2,25.277a0.125,0.125,0,0,1,0,.172V25.277Zm24.847,0a0.207,0.207,0,0,0,.043.129A0.207,0.207,0,0,0,57.045,25.277Zm0.086,0v0.129h0.344V25.277H57.131Zm0.387,0v0.129h1.247V25.277H57.518Zm6.921,0a0.154,0.154,0,0,0,.086.043A0.155,0.155,0,0,0,64.439,25.277Zm-25.664.043a0.614,0.614,0,0,0,.086.3C38.867,25.448,38.884,25.386,38.775,25.32Zm8.383,0a0.207,0.207,0,0,0,.043.129A0.207,0.207,0,0,0,47.157,25.32Zm19.087,0c0.074,0.038.055,0.038,0.129,0H66.244Zm10.446,0v0.129H76.9V25.32H76.69Zm0.258,0v0.129h0.258c0.017-.112-0.032-0.056.086-0.086a0.608,0.608,0,0,0,.559.086v0.043a0.7,0.7,0,0,0-.559.086h0.6V25.32H76.948Zm0.989,0v0.215h0.086a0.614,0.614,0,0,1,.043-0.215H77.937Zm0.172,0a0.445,0.445,0,0,0,.043.172,1.043,1.043,0,0,1,.3-0.172H78.109Zm0.731,0h-0.3v0.086a0.29,0.29,0,0,0-.043.172h0.086a0.513,0.513,0,0,1,.258-0.129V25.32Zm-49.35.043a0.277,0.277,0,0,0,.043.172A0.277,0.277,0,0,0,29.49,25.363Zm38.173,0a0.126,0.126,0,0,0,.172,0H67.663Zm0.215,0a1.506,1.506,0,0,0,.559.129c0.018-.115.106-0.094,0.344-0.086V25.363h-0.9Zm1.29,0.129V25.363a0.669,0.669,0,0,0-.344.043,0.361,0.361,0,0,1,.215.043,0.148,0.148,0,0,0-.086.043h0.215Zm0.043-.129v0.129h0.258c0.012-.114.035-0.09,0.258-0.086v0.086c0.059,0.059.043-.076,0.043-0.086a0.476,0.476,0,0,1,.344.086A1.1,1.1,0,0,0,69.21,25.363Zm0.946,0a0.45,0.45,0,0,0,.344.043V25.363H70.156Zm1.29,0.129V25.363a2.331,2.331,0,0,0-.9.043,0.7,0.7,0,0,0,.559,0l-0.043.086h0.387Zm0.043-.129v0.129h0.344V25.363H71.488Zm0.387,0v0.086c0.095-.022.085-0.048,0.172,0-0.106.056-.029-0.018-0.086,0.086h0.258c0-.163-0.043-0.118.172-0.129,0,0.123-.04.111,0.172,0.129a1.168,1.168,0,0,0,.215-0.172h-0.9Zm0.946,0v0.129a0.933,0.933,0,0,0,.344-0.129H72.821Zm0.387,0a0.29,0.29,0,0,0,.3,0h-0.3Zm0.344,0v0.086a2.562,2.562,0,0,1,.516,0V25.406A1.771,1.771,0,0,0,73.552,25.363Zm0.645,0a0.155,0.155,0,0,1-.086.043v0.043h0.3V25.363H74.2Zm-59.882.043a0.155,0.155,0,0,1,.043.086H14.315V25.406Zm48.877,0v0.086a2.187,2.187,0,0,0,.817-0.086H63.192Zm0.86,0v0.086a0.556,0.556,0,0,0,.387-0.086H64.052Zm1.247,0v0.043H65.255c-0.083.033,0.086,0.043,0.086,0.043A0.147,0.147,0,0,0,65.3,25.406Zm0.516,0a0.29,0.29,0,0,0,.215.086,0.124,0.124,0,0,1,.043-0.043V25.406H65.814Zm-52.058.043a0.155,0.155,0,0,1,.043.086H13.756V25.449Zm13.111,0a0.277,0.277,0,0,0,.043.172A0.277,0.277,0,0,0,26.867,25.449Zm12.036,0v0.086h0.043V25.449H38.9Zm18.356,0a0.173,0.173,0,0,0,.215,0H57.26Zm0.258,0a0.173,0.173,0,0,0,.215,0H57.518Zm0.387,0a0.2,0.2,0,0,0,.215.086c0.033-.029.1-0.056,0.129-0.086H57.9Zm0.688,0.172V25.492H58.506a0.225,0.225,0,0,0-.215,0v0.086h0.043A0.468,0.468,0,0,0,58.592,25.621Zm0.043-.172a0.5,0.5,0,0,0,.129.086V25.449H58.635Zm-44.363.043a0.155,0.155,0,0,1,.043.086H14.272V25.492Zm18.442,0c0.074,0.038.055,0.038,0.129,0H32.714Zm41.01,0v0.086H73.81V25.492H73.724Zm0.129,0c0.032,0.037.054,0.048,0.086,0.086l0.129-.043V25.492H73.853Zm0.3,0c0.071,0.048.046,0.076,0.086,0H74.154Zm0.774,0,0.043,0.129h0.086V25.578A0.36,0.36,0,0,0,74.928,25.492Zm0.731,0.129V25.492h-0.6v0.043a0.5,0.5,0,0,0,.3.086A0.706,0.706,0,0,1,75.658,25.621Zm0.043-.129a0.772,0.772,0,0,0,.688.129,0.525,0.525,0,0,0,.258-0.129H75.7Zm0.989,0a0.172,0.172,0,0,0,.172.086,0.121,0.121,0,0,1,.043-0.043V25.492H76.69Zm0.258,0v0.086h0.215V25.492H76.948Zm-49.78.043h0.086v0.043A0.148,0.148,0,0,1,27.168,25.535Zm36.024,0v0.086h0.043V25.535H63.192Zm0.3,0v0.086h0.086V25.535H63.493Zm0.344,0v0.129a0.208,0.208,0,0,0,.129-0.043,0.154,0.154,0,0,0,.043-0.086H63.837Zm0.215,0v0.129h0.172V25.535H64.052Zm0.3,0a0.155,0.155,0,0,0,.086.043A0.155,0.155,0,0,0,64.353,25.535Zm1.633,0.129c0.139-.036.066,0.021,0.129-0.086H66.072V25.535H65.986v0.129Zm3.224-.129a0.155,0.155,0,0,0,.086.043A0.155,0.155,0,0,0,69.21,25.535Zm0.129,0a0.155,0.155,0,0,0,.086.043A0.154,0.154,0,0,0,69.339,25.535ZM38.9,25.578v0.086h0.043V25.578H38.9Zm19.044,0a0.173,0.173,0,0,0,.215,0H57.947Zm0.774,0v0.086h0.043V25.578H58.721Zm-11.607.043a0.155,0.155,0,0,0,.086.043A0.155,0.155,0,0,0,47.115,25.621Zm-18.184.129,0.043,0.6H29.06v-0.3a0.566,0.566,0,0,0,.043-0.3H29.017a0.277,0.277,0,0,1-.043.172A0.277,0.277,0,0,0,28.931,25.749Zm0.258,0a1.175,1.175,0,0,0,0,.6,0.277,0.277,0,0,1,.043-0.172c0.018,0.154-.02.108,0.086,0.172a1.391,1.391,0,0,1,.129-0.6H29.189Zm0.43,0v0.086h0.258V25.749H29.619Zm0.3,0v0.086c0.154-.018.108,0.02,0.172-0.086H29.919Zm0.215,0v0.086H30.22V25.792h0.043V25.749H30.134Zm0.172,0v0.086c0.154-.018.108,0.02,0.172-0.086H30.306Zm0.215,0v0.086a0.556,0.556,0,0,0,.43-0.086h-0.43Zm0.473,0a0.6,0.6,0,0,0,.086.343A0.363,0.363,0,0,0,30.994,25.749Zm0.3,0-0.043.343H31.3V26.05c0.1,0.017.047,0.039,0.129,0a0.567,0.567,0,0,0,.043-0.3A0.344,0.344,0,0,1,31.3,25.749Zm0.215,0a0.8,0.8,0,0,0,.086.429A0.628,0.628,0,0,0,31.51,25.749Zm-9.457.086a2.74,2.74,0,0,1,0,.515h0.129V25.835H22.053Zm-8.082.043a1.012,1.012,0,0,1-.043.343h0.086a0.533,0.533,0,0,0,.387,0V25.878C14.171,25.882,14.184,25.886,13.971,25.878Zm0.516,0a1.012,1.012,0,0,0,.043.343h0.043l0.043-.215h0.043v0.215l0.473-.043a0.277,0.277,0,0,1,.043-0.172c0.047,0.2.091,0.158,0.258,0.129v0.172h0.258a0.207,0.207,0,0,1,.043-0.129v0.129h0.3a0.36,0.36,0,0,1,.086-0.214A7.935,7.935,0,0,0,14.487,25.878Zm7.351,0.472H22.01V25.878H21.795v0.043A0.914,0.914,0,0,1,21.838,26.35Zm6.921-.429a0.8,0.8,0,0,0,.086.429A0.51,0.51,0,0,0,28.759,25.921Zm-15.218.043a0.154,0.154,0,0,1,.043.086H13.541V25.964Zm17.41,0a0.207,0.207,0,0,0,.043.129A0.207,0.207,0,0,0,30.951,25.964Zm-3.654.3h0.172V26.221a0.435,0.435,0,0,0-.129-0.215V26.05A0.371,0.371,0,0,0,27.3,26.264Zm18.657-.257v0.086h0.3V26.007h-0.3Zm1.075,0v0.172h0.387V26.007H47.029Zm0.473,0a0.277,0.277,0,0,0,.043.172A0.277,0.277,0,0,0,47.5,26.007Zm0.129,0v0.215H47.8V26.007H47.63ZM2.708,26.05v0.086h0.6V26.05h-0.6Zm11.349,0a0.155,0.155,0,0,1,.043.086H14.057V26.05Zm-0.559.043a0.154,0.154,0,0,1,.043.086H13.5V26.092Zm-10.747.214V26.178H2.579v0.086H2.622A0.219,0.219,0,0,0,2.751,26.307Zm7.351-.129-0.043.086H10.1c-0.009.06,0.043,0.043,0.043,0.043C10.2,26.254,10.1,26.178,10.1,26.178Zm0.086,0a0.207,0.207,0,0,0,.043.129V26.264a0.155,0.155,0,0,0,.043-0.086H10.188Zm21.967,0a0.277,0.277,0,0,0,.043.172A0.277,0.277,0,0,0,32.155,26.178ZM3.1,26.221c0.017,0.109-.025.068,0.129,0.086V26.221H3.1Zm0.3,0v0.086a0.285,0.285,0,0,0,.215,0,0.154,0.154,0,0,0,.043-0.086H3.4Zm0.473,0V26.35H4.041l0.043-.086H4.041V26.221H3.869Zm0.387,0c0,0.1-.01.188,0.129,0.129,0.106-.055.029,0.018,0.086-0.086A0.678,0.678,0,0,0,4.256,26.221Zm0.387,0v0.172H4.815l0.043-.129H4.815V26.221H4.643Zm3.783,0-0.043.129a0.148,0.148,0,0,1,.086.043,0.147,0.147,0,0,0,.086-0.043,0.262,0.262,0,0,0,.086-0.086A0.678,0.678,0,0,0,8.426,26.221Zm0.387,0c0,0.119-.05.093,0.129,0.129a0.359,0.359,0,0,0,.086-0.129H8.812Zm0.387,0a0.247,0.247,0,0,0,.258.086V26.221H9.2Zm0.43,0v0.086H9.887V26.221H9.629Zm10.833,0V26.35h0.9V26.221h-0.9Zm0.946,0V26.35H21.58V26.221H21.408Zm0.387,0.129V26.221H21.666v0.086H21.623V26.35h0.172Zm7.093-.129a0.207,0.207,0,0,0,.043.129V26.221H28.888Zm3.4,0,0.043,0.129H32.37V26.221H32.284Zm-21.838.043a0.155,0.155,0,0,0,.086.043A0.155,0.155,0,0,0,10.446,26.264Zm0.129,0a0.154,0.154,0,0,0,.086.043A0.155,0.155,0,0,0,10.575,26.264Zm-2.493.043c0.017,0.109-.025.068,0.129,0.086V26.307H8.082Zm-2.966.043a0.126,0.126,0,0,0,.172,0H5.116Zm0.387,0a0.166,0.166,0,0,0,.129.086V26.393H5.674V26.35H5.5Zm0.387,0c0.074,0.038.055,0.038,0.129,0H5.889Zm0.3,0c0.074,0.038.055,0.038,0.129,0H6.19Zm0.645,0c0.074,0.038.055,0.038,0.129,0H6.835Zm0.344,0a0.166,0.166,0,0,0,.129.086V26.393H7.351V26.35H7.179Zm0.387,0a0.126,0.126,0,0,0,.172,0H7.566Zm2.579,0.386V26.35L9.2,26.393v0.086a0.36,0.36,0,0,1,.215.043,0.125,0.125,0,0,0,0,.172A1.824,1.824,0,0,0,10.145,26.736Zm0.043-.386v0.086h0.473V26.35H10.188ZM10.7,26.479v0.129h0.817V26.35H10.7v0.086a1.675,1.675,0,0,1,.688.043H10.7Zm0.86-.129v0.258h0.043c0.106-.174.257-0.032,0.43,0V26.35H11.564Zm0.516,0v0.258a0.953,0.953,0,0,0,.43-0.086l-0.043.086H12.6V26.35H12.08Zm3.353,0v0.129h0.6V26.35c-0.213,0-.2-0.032-0.3.086-0.057.067-.043-0.086-0.043-0.086H15.433Zm31.6,0v0.086h0.387V26.35H47.029Zm0.473,0v0.086h0.043A0.147,0.147,0,0,0,47.5,26.35Zm0.129,0v0.086c0.154-.018.108,0.02,0.172-0.086H47.63ZM8.6,26.736l0.344-.043V26.479H9.156V26.393H9.113c-0.277.166-.85-0.039-1.118,0.129a0.359,0.359,0,0,1,.215.043c0.017,0.087.03,0.1,0.258,0.086,0.008-.155-0.064-0.089.086-0.129A0.672,0.672,0,0,1,8.6,26.736Zm11.865-.343v0.086h0.9V26.393h-0.3A1.277,1.277,0,0,1,20.462,26.393Zm0.946,0v0.086c0.154-.018.108,0.02,0.172-0.086H21.408Zm0.215,0v0.086c0.154-.018.108,0.02,0.172-0.086H21.623Zm0.215,0v0.086c0.154-.018.108,0.02,0.172-0.086H21.838Zm0.215,0v0.086h0.086V26.436h0.043V26.393H22.053Zm4.256,0v0.086h0.215V26.393H26.308Zm2.063,0v0.086h0.086V26.393H28.372Zm0.172,0v0.086H28.63V26.393H28.544Zm0.172,0v0.086C28.785,26.428,28.768,26.461,28.716,26.393Zm0.172,0v0.086h0.043V26.393H28.888Zm0.086,0v0.086h0.043V26.393H28.974Zm0.3,0v0.043H29.232c-0.083.033,0.086,0.043,0.086,0.043A0.147,0.147,0,0,0,29.275,26.393Zm2.88,0.043a0.154,0.154,0,0,0,.086.043A0.154,0.154,0,0,0,32.155,26.436Zm-27.426.043H4.557v0.043H4.643c0.056,0.106-.018.029,0.086,0.086V26.479ZM4.9,26.65a1.7,1.7,0,0,0,.86,0c-0.154-.018-0.108.02-0.172-0.086a0.155,0.155,0,0,0,.043-0.086H5.416a2.772,2.772,0,0,1-.559,0v0.043A0.218,0.218,0,0,1,4.9,26.65Zm2.321-.172L7.265,26.65c-0.154.018-.108-0.02-0.172,0.086h0.3c0.1-.091.2-0.166,0.3-0.258C7.456,26.483,7.461,26.484,7.222,26.479ZM7.738,26.65H7.953L8,26.564a0.47,0.47,0,0,1-.129-0.086,0.147,0.147,0,0,0-.086.043A0.218,0.218,0,0,0,7.738,26.65Zm2.45-.172v0.258a2.155,2.155,0,0,1,.473.043V26.65a0.239,0.239,0,0,1,0-.172H10.188Zm5.2,0.043a0.755,0.755,0,0,0,.645.086V26.522H15.39Zm5.073,0v0.215a0.121,0.121,0,0,1,.043.043h0.086a0.613,0.613,0,0,1,.043-0.215h0.129a0.235,0.235,0,0,0,0,.172h0.043V26.522H20.462Zm0.9,0.215V26.522a0.557,0.557,0,0,0-.3.043,0.277,0.277,0,0,1,.172.043H21.15v0.086h0.043A0.291,0.291,0,0,0,21.365,26.736Zm0.215-.215H21.408v0.043h0.086a0.263,0.263,0,0,0,.086.086V26.522Zm0.043,0v0.215a0.122,0.122,0,0,1,.043.043h0.129V26.522H21.623Zm0.215,0v0.257a0.209,0.209,0,0,0,.129-0.043,0.372,0.372,0,0,0,.043-0.215H21.838Zm0.215,0a0.358,0.358,0,0,0,.043.215,0.75,0.75,0,0,1,.086-0.215H22.053Zm4.3,0,0.043,0.215h0.129a0.553,0.553,0,0,1,0-.215H26.351Zm2.02,0a0.155,0.155,0,0,0,.086.043A0.155,0.155,0,0,0,28.372,26.522Zm0.172,0c0.074,0.038.055,0.038,0.129,0H28.544Zm0.172,0a1.067,1.067,0,0,0,.129.129C28.8,26.527,28.837,26.571,28.716,26.522Zm0.172,0V26.65h0.129V26.522H28.888Zm0.387,0a0.207,0.207,0,0,0,.043.129V26.522H29.275Zm2.88,0v0.086h0.086V26.522H32.155Zm0.172,0v0.086H32.37A0.147,0.147,0,0,0,32.327,26.522Zm0.6,0,0.043,0.129a1.018,1.018,0,0,1,.387,0V26.607H33.315V26.564a0.637,0.637,0,0,1-.344-0.043H32.929Zm-11.521.086v0.086h0.043A0.147,0.147,0,0,0,21.408,26.607Zm-10.7.043v0.129h0.817V26.65H10.7Zm1.848,0v0.129H12.9V26.65H12.552Zm0.387,0,0.043,0.129h0.086V26.693h0.043V26.65H12.939Zm0.258,0a0.155,0.155,0,0,0,.086.043A0.155,0.155,0,0,0,13.2,26.65Zm0.172,0c0.071,0.048.046,0.076,0.086,0H13.369Zm0.129,0a0.207,0.207,0,0,0,.043.129A0.207,0.207,0,0,0,13.5,26.65Zm0.43,0v0.086h0.043A0.147,0.147,0,0,0,13.928,26.65Zm0.559,0v0.129a0.208,0.208,0,0,0,.129-0.043,0.154,0.154,0,0,0,.043-0.086H14.487Zm0.43,0a0.207,0.207,0,0,0,.043.129V26.65H14.917Zm0.6,0-0.043.129h0.215c0.119-.056.248,0.054,0.344-0.129H15.519Zm13.369,0.043c0.074,0.038.055,0.038,0.129,0H28.888Zm4.084,0a0.29,0.29,0,0,0,.3,0h-0.3Zm-32.413.172a2.834,2.834,0,0,1-.086.858l0.172,0.043V27.508A0.579,0.579,0,0,0,.559,26.865ZM3.7,29.954a0.359,0.359,0,0,0,.043.214A0.359,0.359,0,0,0,3.7,29.954ZM6.964,30.9v0.815H7.05A7.242,7.242,0,0,0,9.2,31.8V31.756A6.248,6.248,0,0,0,6.964,30.9Z" transform="translate(-0.063)"/>
</svg>
