<?xml version="1.0" encoding="utf-8"?>
<!-- Generator: Adobe Illustrator 16.0.0, SVG Export Plug-In . SVG Version: 6.00 Build 0)  -->
<!DOCTYPE svg PUBLIC "-//W3C//DTD SVG 1.1//EN" "http://www.w3.org/Graphics/SVG/1.1/DTD/svg11.dtd">
<svg version="1.1" id="Layer_1" xmlns="http://www.w3.org/2000/svg" xmlns:xlink="http://www.w3.org/1999/xlink" x="0px" y="0px"
	 width="39.938px" height="40px" viewBox="0 0 39.938 40" enable-background="new 0 0 39.938 40" xml:space="preserve">
<path id="Color_Fill_1" fill="#FFFFFF" d="M19.2,16.078c0.008-0.176,0.059-0.348,0.146-0.5c0.387-0.092,0.786-0.109,1.179-0.05v0.1
	c-0.026,0.027-0.043,0.063-0.049,0.1c0.3,0.034,0.314,0.151,0.295,0.5c0.146,0,0.414-0.013,0.442,0l0.147,0.2h0.983
	c0.069,0.046,0.137,0.096,0.2,0.149h1.474l2.506,0.05h0.935c0.039-0.073,0.089-0.141,0.146-0.2h1.77
	c0.059,0.06,0.107,0.127,0.146,0.2h0.737l7.125,0.05v-0.2c-0.113-0.014-0.209-0.092-0.246-0.2h0.786
	c0.025,0.064,0.042,0.131,0.049,0.2c-0.071,0.021-0.127,0.078-0.146,0.15h1.671c0.076-0.035,0.007-0.006,0.147,0v0.15h0.292v0.648
	c-0.126,0.017-0.245,0.068-0.344,0.149l-3.489-0.051l-8.3,0.051l-5.209,0.05c-0.043,0.014-0.154,0.135-0.2,0.149
	c-0.437,0.148-1-0.106-1.327,0c-0.15,0.071-0.284,0.174-0.393,0.3c-0.379,0.017-0.748,0.119-1.081,0.3
	c-0.417,0.252,0.034,0.411-0.884,0.4c0.01,0.168-0.007,0.336-0.049,0.5h0.049c0.109-0.162,0.295-0.256,0.491-0.25
	c0.079,0.074,0.187,0.111,0.295,0.101l0.295-0.249c0.949-0.006,1.149,0.243,2.063,0.249l-0.049,0.399l0.147,0.051
	c0.191,0.138,0.29,0.006,0.49-0.1v0.149c-0.026,0.027-0.043,0.063-0.049,0.101c0.483,0.063,0.476,0.625,1.032,0.699
	c0.2,0.1,0.288-0.064,0.541,0.051v0.049h0.049c0.13-0.088,0.296-0.106,0.442-0.049c-0.054-0.001-0.105,0.017-0.147,0.049
	c0.034,0.039,0.064,0.111,0.101,0.149v-0.05c0.034-0.063,0.085-0.115,0.147-0.15v0.2c-0.038,0.005-0.073,0.022-0.1,0.05h0.344v-0.1
	c-0.1-0.061-0.109-0.07-0.049-0.15v-0.05c0.149,0.021,0.302,0.005,0.442-0.05v-0.2c0.2-0.185,0.468-0.277,0.739-0.257v1.146
	l1.18,0.25c0.029,0.079,0.046,0.164,0.049,0.248c-0.056,0.162-0.089,0.33-0.101,0.5h-0.1c0.006-0.199,0.027-0.272-0.1-0.349
	c-0.118,0.102-0.251,0.186-0.394,0.249c0.009,0.166,0.009,0.334,0,0.5h-0.1c0.01-0.086-0.008-0.173-0.049-0.249v0.05
	c-0.187,0.338-0.351,0.688-0.491,1.047c-0.289,0.258-0.622,0.461-0.983,0.601c-0.786,0.562-1.626,1.046-2.506,1.446
	c-0.532,0.115-1.079,0.149-1.622,0.1H6.669L5.437,25.4c-0.504-0.186-0.996-0.402-1.474-0.648C3.379,24.5,2.837,24.364,2.247,24.1
	c-0.354-0.254-0.732-0.471-1.13-0.647c-0.008-0.188,0.022-0.175-0.101-0.249c-0.065,0.124-0.208,0.187-0.344,0.15
	c-0.052-0.047-0.102-0.098-0.147-0.15c-0.072-0.102-0.107-0.225-0.1-0.35c0.062-0.043,0.129-0.076,0.2-0.1
	c0.042-0.031,0.094-0.049,0.146-0.05c0.03-0.247,0.047-0.495,0.05-0.744c-0.189-0.267-0.354-0.551-0.491-0.848l0.048-2.242
	c-0.174,0.036-0.122,0.062-0.295,0.1c-0.039-0.146-0.055-0.298-0.047-0.448c-0.058-0.178-0.075-0.364-0.049-0.549
	c0.268-0.008,0.533-0.059,0.785-0.148h3.931C5.037,17.9,5.356,18,5.737,18.072c0.021-0.143,0.071-0.278,0.147-0.4h0.1v0.301
	c-0.036,0.06-0.054,0.129-0.049,0.199c0.149,0.021,0.288,0.092,0.394,0.2c0.393-0.203,0.875-0.05,1.078,0.343
	c0.001,0.002,0.002,0.004,0.003,0.006c0.688,0.082,1.206,0.477,1.916,0.549c0.011-0.194-0.041-0.387-0.147-0.549
	c-0.662-0.335-1.377-0.555-2.113-0.647c0.005-0.284,0.09-0.563,0.246-0.8c0.346-0.29,0.63-0.646,0.835-1.047
	c-0.133,0.006-0.266-0.011-0.393-0.05c-0.021-0.229-0.073-0.219-0.101-0.449c0.069,0.005,0.137,0.022,0.2,0.05v-0.1
	c-0.037-0.281-0.053-0.564-0.049-0.848h0.1c0.076-0.666,0.043-1.339-0.1-1.994h0.533v0.1c-0.357,0.312-0.06,1.978-0.049,2.493
	c0.155-0.048,0.304-0.115,0.441-0.2h0.889c0-0.491,0-1.123,0-1.745h0.1v1.346c0.177,0.044,0.359,0.061,0.541,0.05
	c0.4-0.612,1.277-0.02,1.818,0v-0.5c0.408-0.063,0.825-0.045,1.228,0.05h-0.148c0,0.454,0.079,0.739,0.1,1.101h0.781
	c0-0.159-0.06-0.12,0.146-0.149c0.424,0.064,0.854,0.064,1.278,0c0.337,0.067,0.666,0.168,0.982,0.3
	c0.101,0.016,0.359-0.134,0.541-0.15c-0.01-1.635,0.05-3.379,0.05-5.085C16.972,9.797,16.99,9.144,17.087,8.5v7.179h0.05v0.05
	c0.165-0.005,0.33,0.011,0.491,0.05v0.05h0.049c-0.036,0.044-0.062,0.056-0.1,0.1C18.166,15.948,18.544,16.063,19.2,16.078z
	 M7.948,13.685v0.15h0.199v-0.15H7.948z M8.93,15.58c0.065,0.073,0.151,0.125,0.246,0.149c0.029-0.056,0.085-0.093,0.147-0.1v-0.05
	L8.93,15.58L8.93,15.58z M17.284,15.829v0.1c0.085,0.01,0.171-0.008,0.246-0.05L17.284,15.829z M20.478,15.829
	c-0.048,0.073-0.065,0.163-0.049,0.249l0.049,0.1h0.101c0.043-0.061,0.076-0.128,0.1-0.2h-0.053
	C20.57,15.835,20.616,15.886,20.478,15.829L20.478,15.829z M37.531,16.577v0.1l0.147-0.05v-0.05h-0.149H37.531z M37.63,16.777
	c0.027,0.027,0.063,0.045,0.1,0.05c-0.027-0.028-0.063-0.046-0.103-0.051L37.63,16.777z M37.777,16.777
	c0.027,0.027,0.063,0.045,0.101,0.05c-0.027-0.028-0.063-0.046-0.103-0.051L37.777,16.777z M37.925,16.777
	c0.027,0.027,0.063,0.045,0.1,0.05c-0.027-0.028-0.063-0.046-0.103-0.051L37.925,16.777z M38.073,16.777
	c0.026,0.027,0.062,0.045,0.1,0.05c-0.027-0.028-0.063-0.046-0.103-0.051L38.073,16.777z M38.219,16.777
	c0.027,0.027,0.063,0.045,0.1,0.05c-0.027-0.028-0.063-0.046-0.102-0.051L38.219,16.777z M38.366,16.777
	c0.026,0.027,0.062,0.045,0.1,0.05C38.439,16.799,38.404,16.781,38.366,16.777L38.366,16.777z M38.513,16.777
	c0.027,0.027,0.063,0.045,0.101,0.05C38.586,16.799,38.55,16.781,38.513,16.777L38.513,16.777z M38.661,16.777
	c0.026,0.027,0.062,0.045,0.1,0.05c-0.027-0.028-0.063-0.046-0.102-0.051L38.661,16.777z M38.808,16.777
	c0.027,0.027,0.063,0.045,0.101,0.05C38.881,16.799,38.845,16.781,38.808,16.777L38.808,16.777z M38.955,16.777
	c0.026,0.027,0.062,0.045,0.1,0.05C39.028,16.799,38.992,16.781,38.955,16.777L38.955,16.777z M39.102,16.777
	c0.027,0.027,0.063,0.045,0.101,0.05C39.175,16.8,39.14,16.782,39.102,16.777L39.102,16.777z M37.775,17.026
	c0.027,0.027,0.063,0.044,0.101,0.05C37.848,17.049,37.813,17.031,37.775,17.026L37.775,17.026z M38.07,17.026
	c0.027,0.027,0.063,0.045,0.101,0.05C38.143,17.049,38.108,17.031,38.07,17.026L38.07,17.026z M38.365,17.026
	c0.026,0.027,0.062,0.044,0.1,0.05C38.438,17.049,38.403,17.031,38.365,17.026L38.365,17.026z M38.66,17.026
	c0.026,0.027,0.062,0.045,0.1,0.05C38.733,17.048,38.698,17.03,38.66,17.026L38.66,17.026z M38.955,17.026
	c0.026,0.027,0.062,0.044,0.1,0.05C39.028,17.048,38.992,17.03,38.955,17.026L38.955,17.026z M39.25,17.026
	c0.026,0.027,0.062,0.044,0.1,0.05C39.323,17.048,39.287,17.03,39.25,17.026L39.25,17.026z M37.628,17.126
	c0.027,0.027,0.062,0.044,0.1,0.05C37.7,17.148,37.665,17.13,37.628,17.126L37.628,17.126z M37.923,17.126
	c0.027,0.027,0.063,0.045,0.1,0.05C37.996,17.148,37.96,17.13,37.923,17.126L37.923,17.126z M38.218,17.126
	c0.027,0.027,0.063,0.044,0.1,0.05C38.291,17.148,38.255,17.13,38.218,17.126L38.218,17.126z M38.513,17.126
	c0.027,0.027,0.063,0.044,0.1,0.05C38.586,17.148,38.55,17.13,38.513,17.126L38.513,17.126z M38.808,17.126
	c0.027,0.027,0.063,0.045,0.101,0.05C38.881,17.148,38.845,17.13,38.808,17.126L38.808,17.126z M39.103,17.126
	c0.027,0.027,0.063,0.044,0.101,0.05C39.176,17.148,39.14,17.13,39.103,17.126L39.103,17.126z M39.398,17.126
	c0.027,0.027,0.063,0.045,0.101,0.05C39.471,17.148,39.436,17.13,39.398,17.126L39.398,17.126z M38.071,17.226
	c0.027,0.027,0.063,0.044,0.101,0.05c-0.027-0.028-0.063-0.046-0.102-0.052L38.071,17.226z M38.366,17.226
	c0.026,0.027,0.062,0.044,0.1,0.05c-0.027-0.028-0.063-0.046-0.101-0.052L38.366,17.226z M37.776,17.376
	c0.027,0.027,0.063,0.044,0.101,0.05c-0.027-0.028-0.063-0.046-0.102-0.052L37.776,17.376z M37.924,17.376
	c0.027,0.027,0.063,0.045,0.1,0.05c-0.027-0.028-0.063-0.046-0.102-0.052L37.924,17.376z M38.071,17.376
	c0.027,0.027,0.063,0.045,0.101,0.05c-0.027-0.028-0.063-0.046-0.102-0.052L38.071,17.376z M38.218,17.376
	c0.027,0.027,0.063,0.044,0.1,0.05c-0.026-0.028-0.063-0.046-0.101-0.052L38.218,17.376z M38.365,17.376
	c0.026,0.027,0.062,0.044,0.1,0.05c-0.026-0.027-0.062-0.046-0.1-0.052V17.376z M38.512,17.376c0.027,0.027,0.063,0.044,0.1,0.05
	c-0.026-0.027-0.062-0.046-0.1-0.052V17.376z M38.66,17.376c0.026,0.027,0.062,0.045,0.1,0.05c-0.027-0.028-0.063-0.046-0.101-0.052
	L38.66,17.376z M7.309,17.525v0.101h0.048c-0.004-0.038-0.021-0.074-0.049-0.103L7.309,17.525z M18.857,19.321
	c0.056,0.055,0.145,0.055,0.2,0H18.857z M19.103,19.371c0.027,0.027,0.063,0.045,0.101,0.05c-0.027-0.028-0.063-0.047-0.102-0.053
	L19.103,19.371z M23.673,20.471c0.063,0.041,0.13,0.075,0.2,0.101v-0.101H23.673z M25.393,20.82v0.05h-0.051
	c-0.095,0.039,0.1,0.05,0.1,0.05c-0.003-0.04-0.021-0.078-0.05-0.105L25.393,20.82z M0.823,22.12v0.548
	c0.127,0.042,0.244,0.109,0.344,0.2v-0.359c-0.089-0.153-0.206-0.289-0.345-0.399L0.823,22.12z M0.676,22.968
	c0.006,0.069,0.021,0.137,0.049,0.2h0.047v-0.05c0.032-0.044,0.049-0.096,0.049-0.149H0.674L0.676,22.968z M1.167,23.417
	c0.159-0.041,0.075,0.024,0.146-0.101h-0.05v-0.049h-0.1v0.149H1.167z M23.133,23.766c0.004,0.119-0.013,0.236-0.049,0.35h0.1
	c0.29-0.232,0.625-0.402,0.983-0.5v-0.051c-0.338,0.102-0.685,0.165-1.036,0.19L23.133,23.766z M3.233,23.766
	c0.432,0.245,0.895,0.43,1.376,0.549v-0.16c-0.043-0.07-0.053-0.28-0.1-0.35v-0.05h-1.28L3.233,23.766z M7.508,23.766
	c-0.032,0.412-0.206,0.801-0.491,1.101h0.101c0.32-0.093,0.661-0.093,0.982,0v-0.101c-0.301-0.241-0.466-0.614-0.441-1H7.505H7.508z
	 M10.8,23.766c-0.054,0-0.105,0.018-0.147,0.051c-0.042,0.164-0.076,0.331-0.1,0.5c-0.087,0.211-0.3,0.343-0.393,0.548h0.1
	c0.32-0.096,0.662-0.096,0.983,0v-0.101c-0.319-0.232-0.489-0.617-0.446-1.009L10.8,23.766z M13.749,23.766
	c-0.047,0.4-0.199,0.779-0.442,1.101h0.049c0.338-0.092,0.694-0.092,1.032,0V24.8c-0.307-0.262-0.485-0.644-0.491-1.047h-0.151
	L13.749,23.766z M16.894,23.766c-0.034,0.412-0.207,0.8-0.491,1.101h1.081v-0.101c-0.301-0.241-0.466-0.614-0.441-1H16.89H16.894z
	 M19.994,23.766c0.003,0.411-0.156,0.807-0.442,1.101h1.081v-0.101c-0.324-0.223-0.496-0.609-0.442-1h-0.199H19.994z"/>
</svg>
