<svg xmlns="http://www.w3.org/2000/svg" width="80" height="40" viewBox="0 0 80 40">
  <defs>
    <style>
      .cls-1 {
        fill: #fff;
        fill-rule: evenodd;
      }
    </style>
  </defs>
  <path id="Color_Fill_1" data-name="Color Fill 1" class="cls-1" d="M38.428,12.586h0.688a5.043,5.043,0,0,1-.2-0.7,1.525,1.525,0,0,1,.491-0.1,1.578,1.578,0,0,1,.1.5c-0.337.229-.1,1.187-0.2,1.79h0.1a1.8,1.8,0,0,1,.983,0,2.347,2.347,0,0,1,.2-1.492,7.6,7.6,0,0,1-.1,1.492,0.63,0.63,0,0,1,.393.1H40.59a2.215,2.215,0,0,0,.1.995,0.5,0.5,0,0,0,.295.1,0.884,0.884,0,0,1,.491-0.5v0.2c-0.26.135-.1,0.3,0,0.4a1.139,1.139,0,0,0,.295.2v0.1h-0.2a0.873,0.873,0,0,0-.786-0.3v0.2c0.79,0.529.675,3.069,2.261,3.084v-0.9h-0.2c0,0.315.14,0.186-.2,0.3v-0.2h0.1c0.12-.245.174-0.153,0.295-0.4a1.091,1.091,0,0,0-.2-1.094c0.368-.012.24,0.12,0.295-0.3h-0.1v-0.1h0.295a1.136,1.136,0,0,1,0-.5,0.842,0.842,0,0,1,.491-0.1v0.1h0.1a0.918,0.918,0,0,0-.295.5h0.1c0.143-.253-0.021-0.112.295-0.2v0.2a1.691,1.691,0,0,1,.1,1.194,2.964,2.964,0,0,1,.59.3v0.1h-0.2a1.877,1.877,0,0,0-.393-0.3v0.7a1.864,1.864,0,0,1,.1.9,1.5,1.5,0,0,0,.59.2c0.327-.27.642-0.033,1.278,0a1.579,1.579,0,0,0,.1-0.5,0.911,0.911,0,0,1-.393-0.3H46a0.7,0.7,0,0,0,.393.2v-0.2c-0.3-.182-0.167-0.266-0.1-0.6,0.311,0,.132.168,0.295-0.1a0.677,0.677,0,0,1-.1-0.4,2.957,2.957,0,0,0,.59-0.3v0.5h-0.1c-0.234-.224-0.035-0.109-0.393-0.1v0.1a1.152,1.152,0,0,1,.2.3l0.59,0.1c0.015,0.45.035,1.2,0.393,1.293l0.1-.2a0.509,0.509,0,0,0,.491.2c0.159-.068.37-0.433,0.491-0.3h0.1a2.874,2.874,0,0,1-.2.7,1.545,1.545,0,0,1,1.179.3c-0.352.556-.111,2.3-0.1,3.084h0.1a0.353,0.353,0,0,1,.2-0.1c0.127-.5.171-0.715,0.983-0.7v-0.1c-0.628-.026-0.629-0.227-0.59-0.9,0.238-.233.14-0.186,0.1-0.6,0.443,0.084,1.1.408,1.671,0.6,0.489,0.163.928-.2,1.179,0.2a1.191,1.191,0,0,0-1.081.2,1.042,1.042,0,0,1,.2.6l1.081,0.1v0.5l0.295,0.1a2.357,2.357,0,0,0,1.081.1v-0.2h-0.1v-0.1a0.875,0.875,0,0,1-.885-0.3h0.295a0.667,0.667,0,0,1,0-.5c0.148-.257.294-0.21,0.688-0.2a1.289,1.289,0,0,1,.884-0.2c0.13-1.351.033-3.214,0.491-4.178a0.335,0.335,0,0,1,.2.1c0.633,0.693.32,3.242,0.786,4.278,0.572-.131.393,0.221,0.786,0.4h2.555v0.2H58.182a6.811,6.811,0,0,0-.2,1.094h1.671a5.1,5.1,0,0,1,0-.8,5.018,5.018,0,0,0,1.474-.2,10.325,10.325,0,0,1,1.278.2,5.143,5.143,0,0,1,.688-0.1,2.759,2.759,0,0,1,.295.5,4.693,4.693,0,0,0,.688.1c0.609,0.145,1.513-.185,1.966.1a8.032,8.032,0,0,0-2.555.2c4.216,0.024,7.279-.45,11.4-0.5a2.052,2.052,0,0,1-.1-0.9v-0.2h0.1a1.273,1.273,0,0,0,.1.4h0.1l0.1-1.194a0.815,0.815,0,0,1-.491-0.1h0.491a6.063,6.063,0,0,0-.1-2.288,2.41,2.41,0,0,1-.295,1.194c-0.11-.165-0.01-0.061-0.2,0v-0.3a7.5,7.5,0,0,0,.59-1.393h0.2l0.491,1.592h-0.1c-0.11-.165-0.01-0.061-0.2,0a2.41,2.41,0,0,0-.295-1.194v2.387a2.3,2.3,0,0,0,.786-0.1v0.2c-0.067.077-.129,0.222-0.2,0.3v-0.3h-0.59l0.1,1.194h0.2c0.072-.272-0.071-0.181.2-0.2a1.417,1.417,0,0,1-.1-0.4h0.1s0.019,0.389.1,0.2v-0.2a2.556,2.556,0,0,0,.393-0.8h0.1v0.3a3.64,3.64,0,0,0-.786,1.691l4.423-.3v0.2a17.832,17.832,0,0,0-.786,6.168c-1.248.415-4.7,0.1-6.29,0.1H12.482a1.23,1.23,0,0,0-1.474-.8,14.69,14.69,0,0,1-3.342.2v0.4a1.472,1.472,0,0,1-.393.2,1.2,1.2,0,0,0-.393-0.8H7.273v-0.6h0.1a0.918,0.918,0,0,1,.295.5H8.059v-0.4a2.09,2.09,0,0,0-.688-0.1,1.287,1.287,0,0,0-.688-0.1L6.486,28.8H3.735a6.622,6.622,0,0,1-.1-1.79h0.1v-0.1a2.485,2.485,0,0,0,1.474.1l-3.44-.4c-0.321-1.33-1.155-2.276-1.474-3.681h0.1a2.168,2.168,0,0,0,1.278,0c-0.1-.755-0.4-0.433-0.491-1.094h0.2a4.361,4.361,0,0,1,.688,0v0.1h-0.2c-0.236.149-.234-0.123-0.393,0.2,0.161,0.158.229,0.56,0.393,0.7H2.26c0.006,0.2-.168.1,0,0.2a17.667,17.667,0,0,1,2.654-.5v-0.1a0.815,0.815,0,0,1-.491-0.1c0.691,0.023,1.554.476,1.966,0.3a3.224,3.224,0,0,0,.295-1.99c-0.018.635-.27,1.809-0.59,1.89v-0.2a1.477,1.477,0,0,0,.2-0.7h-0.1c-0.051.673-.159,0.743-0.688,0.8v-0.1c0.8-.662,1.306-2.431,1.572-3.581h0.2v2.487a3.34,3.34,0,0,1,.1,1.393c-0.319.082-.15-0.049-0.295,0.2H7.568c0.478,0.312,1.184.043,1.867,0.2,1.777,0.407,4.912.138,6.781,0.2a9.919,9.919,0,0,1,1.671,0v-0.3a9.073,9.073,0,0,1-2.654-.2c1.192,0.038,2.586.133,3.047-.6a1.528,1.528,0,0,0,.491.1,0.994,0.994,0,0,1,.2-0.6c-0.025.41-.185,0.451,0.1,0.6v-0.6c-0.359-.613.168-3.319,0.393-3.78l0.2,0.1c0.463,1.014.215,2.86,0.491,4.178h0.59v0.1h0.1a0.484,0.484,0,0,1,.1-0.3c0.073,0.393.009,0.319,0.393,0.4a0.656,0.656,0,0,1,.393-0.1v0.8c1.1,0.016,1.718-.163,1.966-1.094a2.608,2.608,0,0,1-1.179-.1,5.552,5.552,0,0,0,2.85-.7,5.49,5.49,0,0,1,0,1.691h0.59a3.012,3.012,0,0,1,0-1.293,0.386,0.386,0,0,1-.393-0.3c0.361,0.1.848-.084,1.179,0v-0.3a7.945,7.945,0,0,1,.2-1.094h0.2a0.656,0.656,0,0,1,.393-0.1c0.081-.323-0.048-0.152.2-0.3v0.1h0.1c-0.073.087-.124,0.112-0.2,0.2a0.992,0.992,0,0,1,.59.4,1.206,1.206,0,0,1,.393-0.4v0.2l-0.688.6a2.162,2.162,0,0,1,.1.7H28.6v-0.3a3.179,3.179,0,0,1,.885.3c-0.015-.79.1-1.383,0.1-2.387h-0.1a1.967,1.967,0,0,1-.59.6v-0.2a3.837,3.837,0,0,0,.983-1.393l-0.1-.3c0.213-.3.513,0.11,0.786,0a7.675,7.675,0,0,0,.59-0.6v0.2a1.854,1.854,0,0,0-.786.9c0.35,0.224.266,1.053,0.295,1.791a0.471,0.471,0,0,0,.295-0.1,2.189,2.189,0,0,0,.393-0.9h0.1v0.3c-0.213.245-.27,0.659-0.491,0.9a0.5,0.5,0,0,0-.295-0.1v0.4h0.1c0.136-.174.069-0.28,0.2-0.1,0.311,0.066.375,0.128,0.393,0.2a1.484,1.484,0,0,1,0,.8h0.1a2.07,2.07,0,0,1,.491-0.5l0.295,0.1v-0.1a4.781,4.781,0,0,1,.295-0.995c0,0.388-.049.448,0.2,0.6a0.352,0.352,0,0,1,.2-0.1l-0.1.2h0.1v-0.1a0.7,0.7,0,0,0,.1-0.3h0.2l-0.1.2h0.1v-0.1c0.331-.487.012-3.047,0-3.681h-0.1v0.1c-0.183.3-.1,0.9-0.295,1.194l0.1-1.194c-0.04-.011-0.31.057-0.2-0.1a0.494,0.494,0,0,0,.2-0.1H32.531c-0.116.474-.362,0.813-0.491,1.293h-0.1v-0.3a3.289,3.289,0,0,0,.393-0.8,0.335,0.335,0,0,1-.2-0.1,0.336,0.336,0,0,0,.2-0.1,1.616,1.616,0,0,0-.885.3,0.736,0.736,0,0,0-.1-0.6c0.425,0,.283.218,0.393-0.2h-0.1v-0.1a1.78,1.78,0,0,1-.59.1v-0.3h0.491l0.1-.6h0.491v0.1c-0.174.2-.319,0.4-0.491,0.6h0.59c0.194-.3.138-0.118,0.491,0a6.7,6.7,0,0,0,.393-1.492H30.958a0.842,0.842,0,0,1,.1-0.5,0.485,0.485,0,0,0,.1.3v-0.3a15.936,15.936,0,0,1,.1-3.084v3.482h1.769a3.961,3.961,0,0,1,.1-1.194c-0.223.04-.107,0.091-0.295,0a0.512,0.512,0,0,0,.1-0.3h0.1v0.1a0.639,0.639,0,0,1,.491.1,0.625,0.625,0,0,1,.295-0.7v0.1a2.722,2.722,0,0,0,0,1.492h-0.1v-0.2a1.438,1.438,0,0,0-.393-0.6,0.5,0.5,0,0,1-.2.5c0.391,0.012.306,0.01,0.295,0.6h0.1c0.3,0.213.336-.081,0.491,0.2h-0.59v0.4a6.387,6.387,0,0,0,1.769.1,14.493,14.493,0,0,1,3.44-.2l-0.2-.995h-0.2a1.884,1.884,0,0,1-.983.2,3.065,3.065,0,0,0-.1-0.7,3.018,3.018,0,0,0,1.081-.3c0.37-.617-0.179-2.073.2-2.686C38.414,11.227,38.414,11.327,38.428,12.586ZM34,12.387c0.282,0.249.426,0.67,0,.9v-0.9Zm-1.769.2a0.471,0.471,0,0,1,.295.1,0.821,0.821,0,0,0,.1.9h-0.2A1.493,1.493,0,0,1,32.236,12.586Zm6.781,0.1c-0.526.015-.536-0.1-0.59,0.4a1.946,1.946,0,0,1,.2.995h0.1v-0.2A2.985,2.985,0,0,0,39.017,12.686Zm0.1,1.393a1.834,1.834,0,0,0-.1-0.9,2.6,2.6,0,0,1-.2.9h0.295Zm-5.9-.6c0.02,0.139-.081-0.04-0.1.1-0.189.077,0.2,0.1,0.2,0.1A0.342,0.342,0,0,0,33.219,13.482Zm-0.1.3a0.353,0.353,0,0,0,.2.1A0.354,0.354,0,0,0,33.12,13.78Zm5.6,0.4v0.3H39.41l0.1-.3H38.722Zm0.885,0.1a0.353,0.353,0,0,0,.2.1A0.353,0.353,0,0,0,39.607,14.278Zm0.688,0a1.444,1.444,0,0,0,.1.5h0.1v-0.5h-0.2Zm0.59,0.1a0.426,0.426,0,0,1,.393.4,1.01,1.01,0,0,0-.393.1c0.26,0.076.079,0.221-.1,0.3v-0.1h-0.1A2.5,2.5,0,0,0,40.885,14.377Zm-8.55.2h0.2v0.1h-0.2v-0.1Zm1.278,0.995c0.049,0.724-.017.849,0,1.492h0.2a0.609,0.609,0,0,1,0-.6,0.648,0.648,0,0,0,.1.4,1.444,1.444,0,0,1,.1-0.5,0.335,0.335,0,0,1,.2.1,2.031,2.031,0,0,1,.2.7,1.325,1.325,0,0,1-.786,0v1.094a3.339,3.339,0,0,1,.1,1.393h0.1a0.77,0.77,0,0,1,.59-0.3c0.2,0.163-.069.116,0.2,0.2,0.011-.372-0.118-0.243.295-0.3v0.2a2.839,2.839,0,0,1,.295.8,0.336,0.336,0,0,0-.2.1h0.295c0.315-.551.618-0.2,0.884-0.6a1.119,1.119,0,0,1-.393-0.7h0.1v0.1a0.714,0.714,0,0,1,.2.4h0.1v-0.9a1.56,1.56,0,0,1,.1-1.492c0.23,0.24.241,0.136,0.688,0.1v-0.4h0.295v-0.6a0.471,0.471,0,0,1,.295.1,1.01,1.01,0,0,0,.295.5l0.1-.6a0.36,0.36,0,0,1,.1.2,0.677,0.677,0,0,1,.1.4,1.394,1.394,0,0,1,.688.2c0.038-.26-0.073-0.13.2-0.2v0.1a1.608,1.608,0,0,0-.1.8c0.354,0.019.2-.148,0.295,0.2-0.328-.039-0.279-0.1-0.295.4h0.1a0.648,0.648,0,0,1,.1-0.4,15.228,15.228,0,0,1-.2,1.89h0.2a1.4,1.4,0,0,1,.2-0.7,2.27,2.27,0,0,1-.2,1.094,0.485,0.485,0,0,0-.1-0.3v0.3a0.826,0.826,0,0,1,0,.9H39.8v-0.5c-0.257-.038-0.129.074-0.2-0.2a1.98,1.98,0,0,0-.2-1.791,0.84,0.84,0,0,1-.1.5c0.063-1.684-.495-2.917-0.59-4.576-1.212-.019-5.182.151-5.307,0.5a0.853,0.853,0,0,0,.295.4,0.667,0.667,0,0,1,0-.5v0.1a2.352,2.352,0,0,1,.491.995H34.1v-0.1A0.71,0.71,0,0,0,33.612,15.571Zm5.209-.995,0.393,2.387h0.1v-0.1c0.127-.185.16-0.523,0.295-0.7-0.065.674-.445,1.188-0.1,1.691a3.508,3.508,0,0,1,.295-1.492c-0.056,1.3-.528,2.914.2,3.979,0.013-.869.226-3.862-0.1-4.377a0.648,0.648,0,0,1-.1.4c0-.25,0-1.592,0-1.592A1.011,1.011,0,0,0,38.821,14.576Zm1.474,0.3v0.4h0.2v-0.2C40.406,15,40.381,14.948,40.295,14.874Zm-7.666,1.393h0.393a0.841,0.841,0,0,1,.1-0.5,0.841,0.841,0,0,0,.1.5,4.767,4.767,0,0,1,0-1.293h-0.1v0.1a2.189,2.189,0,0,0-.393.9c-0.337-.131-0.444-0.156-0.59.2h-0.1v0.1h0.393a1.089,1.089,0,0,1,.2-0.3v0.3ZM39.9,15.073l-0.1.5h0.1v-0.2C39.988,15.2,39.989,15.245,39.9,15.073Zm1.278,4.874h0.393a1.562,1.562,0,0,0-.393-1.293,1.258,1.258,0,0,0,.295-0.6v0.1a0.523,0.523,0,0,1,0,.5h0.688v-0.2a12.851,12.851,0,0,1-1.572-3.084h-0.2v0.5a1.237,1.237,0,0,1,.1,1.094,1.5,1.5,0,0,0-.2-0.9q0.1,1.89.2,3.78a0.616,0.616,0,0,1,.59.1,0.484,0.484,0,0,1,.1-0.3v0.3Zm-0.2-4.277a0.629,0.629,0,0,1,.393.1A0.629,0.629,0,0,1,40.983,15.67Zm0.786,0,0.295,0.1v0.1A0.374,0.374,0,0,1,41.769,15.67Zm-9.828.1v0.2h0.1v-0.1h0.1A0.353,0.353,0,0,0,31.941,15.77Zm7.666,0a0.293,0.293,0,0,1,0,.4v-0.4Zm2.457,0.1a3.215,3.215,0,0,1,.786.4v0.1h-0.2A5.933,5.933,0,0,1,42.064,15.869Zm-8.55.2v0.2h0.1A0.342,0.342,0,0,0,33.514,16.068Zm0.688,0a0.36,0.36,0,0,1,.1.2H34.2v-0.2Zm0.1,0.2a0.361,0.361,0,0,1,.1.2H34.3v-0.2Zm0.1,0.2a1.6,1.6,0,0,1,.491.9h-0.1v-0.1A1.752,1.752,0,0,1,34.4,16.466Zm2.654,0.5v0.2h0.295c0.076-.068.219-0.13,0.295-0.2h-0.59Zm3.538,0a0.4,0.4,0,0,1,0,.5v-0.5Zm-1.867.2v0.2h0.1v-0.2h-0.1Zm10.024,0a0.36,0.36,0,0,1,.1.2h-0.1v-0.2Zm-14.84.2a0.4,0.4,0,0,1,0,.5v-0.5Zm0.983,0a0.359,0.359,0,0,1,.1.2h-0.1v-0.2Zm5.8,0.1a1.351,1.351,0,0,1,.1,1.094Zm-5.7.1a0.36,0.36,0,0,1,.1.2h-0.1v-0.2Zm9.73,0a4.762,4.762,0,0,1,1.081.6v0.1H45.6A8.733,8.733,0,0,1,44.717,17.56Zm4.029,0a0.36,0.36,0,0,1,.1.2h-0.1v-0.2Zm7.568,0c-0.124.458-.458,1.931-0.1,2.487a0.485,0.485,0,0,1,.1-0.3c-0.038.593-.181,0.928-0.2,1.592h0.2v-0.7A11.531,11.531,0,0,0,56.315,17.56Zm0.295,0a4.055,4.055,0,0,0,.295,2.288A3.845,3.845,0,0,0,56.609,17.56Zm-24.766.1a1.975,1.975,0,0,1-.295,1.194h-0.1v-0.3A2.191,2.191,0,0,0,31.843,17.66Zm0.884,0.1a3.125,3.125,0,0,1-.2,1.989Zm2.359,0a1.6,1.6,0,0,1,.491.9h-0.1v-0.1A1.752,1.752,0,0,1,35.086,17.759Zm-5.111.1v0.2h0.1A0.342,0.342,0,0,0,29.975,17.859Zm4.029,0a0.4,0.4,0,0,1,0,.5v-0.5Zm-14.447.3a17.971,17.971,0,0,0,.295,3.979C19.872,21.2,20.051,18.685,19.558,18.157Zm-0.393,4.079H19.46a26.259,26.259,0,0,1,0-3.979h-0.1v0.2a2.95,2.95,0,0,0-.1,2.089,0.485,0.485,0,0,1,.1-0.3C19.313,20.892,19.169,21.41,19.165,22.236Zm29.582-3.979a0.36,0.36,0,0,1,.1.2h-0.1v-0.2Zm-14.644.1a0.293,0.293,0,0,1,0,.4v-0.4Zm6.781,0.2a1.237,1.237,0,0,1,.1,1.094Zm8.157,0a0.511,0.511,0,0,1,.1.3h-0.1v-0.3Zm-13.464.1a0.361,0.361,0,0,1,.1.2h-0.1v-0.2Zm-1.376.1a0.4,0.4,0,0,1,0,.5v-0.5Zm1.474,0.1a0.361,0.361,0,0,1,.1.2h-0.1v-0.2Zm-8.55.1a0.677,0.677,0,0,1,.491.3h0.1v0.1h-0.2c-0.187-.093-0.115-0.038-0.393,0A0.553,0.553,0,0,0,27.125,18.953ZM56.609,21.44H56.9v-0.1c-0.029-.051-0.233-1.609-0.295-1.89h-0.1v0.2A4.565,4.565,0,0,1,56.609,21.44Zm19.066-1.89a0.293,0.293,0,0,1,0,.4v-0.4Zm0.2,0a2.051,2.051,0,0,1,.393,1.094h-0.1v-0.2A1.8,1.8,0,0,1,75.872,19.55Zm-41.376.1a0.484,0.484,0,0,0,.1.3A0.485,0.485,0,0,0,34.5,19.649Zm6.781,0h0.2v0.2h-0.2v-0.2Zm33.219,0a1.056,1.056,0,0,1-.1.8H74.3v-0.3A1.174,1.174,0,0,0,74.5,19.649Zm0.2,0a0.293,0.293,0,0,1,0,.4v-0.4Zm-40.491.1c0.038,0.26-.073.13,0.2,0.2v-0.2H34.2Zm41.573,0.2a0.512,0.512,0,0,1,.1.3h-0.1v-0.3Zm-42.064.1,0.1,0.3h0.1v-0.3h-0.2Zm40.885,0a0.511,0.511,0,0,1,.1.3h-0.1v-0.3Zm-39.41,1.194h0.983V20.147h-0.59A1.59,1.59,0,0,0,35.184,21.241Zm40.688-.995a0.293,0.293,0,0,1,0,.4v-0.4Zm-42.85.995v-0.4h0.393v-0.5h-0.2a5.345,5.345,0,0,0-.688.5,1.956,1.956,0,0,0-.2.4h0.688Zm41.474-.9a1.332,1.332,0,0,1,.1.7H74.5v-0.2A1.1,1.1,0,0,1,74.5,20.346Zm-0.295.1a2.654,2.654,0,0,1,.295.995H74.4v-0.2c-0.113-.116-0.181-0.282-0.295-0.4Zm-42.064.5a0.38,0.38,0,0,1-.295.2v0.1h0.393v-0.2l0.1-.1h-0.2ZM57,21.042v0.4h0.2v-0.1C57.132,21.264,57.07,21.118,57,21.042Zm17.592,0a0.511,0.511,0,0,1,.1.3h-0.1v-0.3Zm1.179,0.1a0.512,0.512,0,0,1,.1.3h-0.1v-0.3Zm-69.484.2v0.2h0.1A0.342,0.342,0,0,0,6.29,21.34Zm29.189,0.7h0.393v-0.1h0.1v-0.6a2.663,2.663,0,0,0-.885.1c0.061,0.192.058,0.434,0.1,0.5a0.352,0.352,0,0,0,.2.1,0.649,0.649,0,0,1,.1-0.4v0.4Zm39.214-.7a0.512,0.512,0,0,1,.1.3h-0.1v-0.3Zm-67.813.1-0.1,1.094h0.2A2.4,2.4,0,0,0,6.88,21.44Zm67.617,0a0.36,0.36,0,0,1,.1.2H74.5v-0.2Zm0.1,0.2a0.361,0.361,0,0,1,.1.2h-0.1v-0.2Zm-35.577.1a0.484,0.484,0,0,0,.1.3A0.485,0.485,0,0,0,39.017,21.738Zm-31.941.1a1.3,1.3,0,0,0,.1.7A1.3,1.3,0,0,0,7.076,21.838Zm-4.914.1a0.815,0.815,0,0,1,.491.1A0.814,0.814,0,0,1,2.162,21.937Zm-0.295.1a0.472,0.472,0,0,1,.295.1A0.471,0.471,0,0,1,1.867,22.037Zm0.786,0a1.027,1.027,0,0,1,.59.1A1.026,1.026,0,0,1,2.654,22.037Zm-0.491.1a0.472,0.472,0,0,1,.295.1A0.472,0.472,0,0,1,2.162,22.136Zm1.081,0a1.026,1.026,0,0,1,.59.1A1.026,1.026,0,0,1,3.243,22.136Zm49.533,0a0.353,0.353,0,0,1-.2.1,1.377,1.377,0,0,0,.393.5v-0.6h-0.2ZM0,22.236a0.36,0.36,0,0,1,.1.2H0v-0.2Zm2.457,0a0.629,0.629,0,0,1,.393.1A0.63,0.63,0,0,1,2.457,22.236Zm1.376,0a1.026,1.026,0,0,1,.59.1A1.026,1.026,0,0,1,3.833,22.236Zm-0.983.1a1.026,1.026,0,0,1,.59.1A1.026,1.026,0,0,1,2.85,22.335Zm0.59,0.1a0.472,0.472,0,0,1,.295.1A0.472,0.472,0,0,1,3.44,22.435Zm0.393,0a1.026,1.026,0,0,1,.59.1A1.026,1.026,0,0,1,3.833,22.435Zm54.349,0a1.026,1.026,0,0,1,.59.1A1.026,1.026,0,0,1,58.182,22.435Zm-51.4.2a0.353,0.353,0,0,0,.2.1A0.353,0.353,0,0,0,6.781,22.634Zm-1.572.1c0.081,0.323-.048.152,0.2,0.3v-0.3h-0.2Zm74.2,0a0.391,0.391,0,0,0,.491,0H79.41Zm-6.192.2a0.391,0.391,0,0,0,.491,0H73.219Zm-51.5.2c0.169,0.088.126,0.088,0.295,0H21.72Zm49.533,0.2c0.169,0.088.126,0.088,0.295,0H71.253Zm-1.867.1a1.156,1.156,0,0,0,.983,0H69.386Zm-2.752.1c0.169,0.088.126,0.088,0.295,0H66.634Zm1.671,0a0.353,0.353,0,0,0,.2.1A0.353,0.353,0,0,0,68.3,23.529Zm-9.337.1a0.655,0.655,0,0,0,.688,0H58.968Zm0.786,0a0.515,0.515,0,0,0,.59,0h-0.59Zm4.324,0a0.391,0.391,0,0,0,.491,0H64.079Zm0.59,0a0.285,0.285,0,0,0,.393,0H64.668ZM8.354,27.508v0.4a4.861,4.861,0,0,0,2.359-.1A16.58,16.58,0,0,1,8.354,27.508Z" transform="translate(0 0.531)"/>
</svg>
