<svg xmlns="http://www.w3.org/2000/svg" width="80" height="40" viewBox="0 0 80 40">
  <defs>
    <style>
      .cls-1 {
        fill: #fff;
        fill-rule: evenodd;
      }
    </style>
  </defs>
  <path id="Color_Fill_1" data-name="Color Fill 1" class="cls-1" d="M43.016,12.087V11h0.1v0.1a2.11,2.11,0,0,1,.1.988,0.478,0.478,0,0,1,.3.1c-0.416.162-.292,0.395-0.2,0.791h0.3a0.358,0.358,0,0,1,.2-0.1c-0.026.47,0.772,2.217,1.384,2.372,0.131-.225.047-0.193,0.4-0.2,0.929-.012.868,1.02,0.791,1.977a13.054,13.054,0,0,1,1.879,0l-0.1-.593a0.678,0.678,0,0,0,.495-0.3c-0.249-.145-0.181-0.124-0.2-0.494h0.593a1.6,1.6,0,0,0,.1,1.087l0.3,0.1s-0.1.533-.1,0.692a0.478,0.478,0,0,1,.3.1c-0.284.111-.182,0.017-0.3,0.3a2.177,2.177,0,0,1,.989,0,5.318,5.318,0,0,1-.3.692h0.4V19.3h-0.4v0.4h0.989v0.4a3.255,3.255,0,0,1-.989.1l0.1,1.186h0.1c0.236-.419.435-0.184,0.89-0.1V19.8h0.1a7.872,7.872,0,0,1,1.384.2,1.5,1.5,0,0,1,.2.3c0.359,0.185.995-.078,1.286,0.1a4.959,4.959,0,0,0-1.088.1v0.3h0.3a0.88,0.88,0,0,1-.3.494h0.4a0.622,0.622,0,0,1-.2.494h0.4v-0.4a3.032,3.032,0,0,1,1.286,0v0.4h0.989v0.3l0.495,0.1v-0.2a4.436,4.436,0,0,1,0-.692,3.255,3.255,0,0,0-.989-0.1V20.093H55.97a3.611,3.611,0,0,1,.3-0.3l0.1,0.3H57.75a0.9,0.9,0,0,1,.4-0.2c0.549,0.813,2.173.711,3.56,0.692v0.2h-0.1a6.235,6.235,0,0,0-2.571.1,4.674,4.674,0,0,1,0,1.285h0.3a2.4,2.4,0,0,1,1.088-.1,4.947,4.947,0,0,1,.1-1.087,2.858,2.858,0,0,1,.89-0.1c0.368,0.576,1.646-.061,1.879,0a1.7,1.7,0,0,0,.791.3v0.3h0.2a6.913,6.913,0,0,0,2.571.1v0.2H64.277v0.1h-0.1v0.2h0.791c0.827-.563,3.64.227,3.956-0.4h-0.1c-0.1-.1.1-0.1,0.1-0.1a0.5,0.5,0,0,1,.3-0.1,1.187,1.187,0,0,1,.89.2c-0.372.014-.348-0.047-0.494,0.2h0.4a32.447,32.447,0,0,1,4.252-.3v-0.1h-0.1c-0.19-.077.2-0.1,0.2-0.1,0.32,0.5,2.423.022,2.769,0v-0.1a0.356,0.356,0,0,1-.1-0.2h0.1v0.1a7.544,7.544,0,0,1,.791.3l1.978-.2A5.345,5.345,0,0,1,80,19.2a21.315,21.315,0,0,1-.791,5.634,12.192,12.192,0,0,0,0,2.866H12.262a1.63,1.63,0,0,0-1.879-.889,18.557,18.557,0,0,1-3.164.3,0.625,0.625,0,0,1-.1.494,0.339,0.339,0,0,1-.2-0.1,0.266,0.266,0,0,1,0-.4,2.189,2.189,0,0,1-.4-0.2c0.3-.174.3-0.208,0.3-0.692H6.23a2.421,2.421,0,0,1-.3,1.581,6.609,6.609,0,0,1-2.472.1V25.826a14.282,14.282,0,0,1-2.077-.2C1.267,24.4.939,22.741,0.89,22.07h-0.4v0.1a0.879,0.879,0,0,1,.3.3h-0.2A1.308,1.308,0,0,0,0,21.971a0.623,0.623,0,0,1,.1-0.3,1.447,1.447,0,0,0,.692-0.3,0.639,0.639,0,0,1-.4-0.1l1.088-.1v0.3a0.639,0.639,0,0,0,.4-0.1,0.516,0.516,0,0,1-.494-0.494c0.739-.54,1.093-1.951,2.176-2.076,0.664-.42,2.172-0.262,2.868-0.3a1.552,1.552,0,0,1,.1.494h-0.1a0.339,0.339,0,0,0-.1-0.2c-0.082.321,0.048,0.151-.2,0.3-0.082-.321.048-0.151-0.2-0.3-0.672.426-1.65,0.332-2.274,0.791a4.4,4.4,0,0,0-.2.593,3.21,3.21,0,0,1-.593.494c0.259,0.038.13-.073,0.2,0.2-0.272.331-.086,0.34,0,0.791a0.478,0.478,0,0,0-.3.1,20.743,20.743,0,0,0,3.758.2l-0.89-.1c0.006-.287.1-0.137,0-0.3a3.215,3.215,0,0,0-1.384-.2v-0.2h0.3v-0.3h-0.2c-0.211-.137-0.6-0.147-0.791-0.3a0.84,0.84,0,0,0,.2-0.692h0.4c0.129,0.457.281,0.514,0.89,0.494a4,4,0,0,1,1.978,0v0.494H6.527v0.3H7.515v0.1a3.067,3.067,0,0,0-.494.3c2.2-.011,4.907-0.291,6.922.1a0.28,0.28,0,0,1-.1.1c-0.625.392-1.848-.017-2.472,0.4a7.95,7.95,0,0,0,2.967-.3c0.228-.109,1.71.2,2.571,0.2v-0.2h-0.1v-0.1a8.567,8.567,0,0,1-2.571-.2,6.094,6.094,0,0,0,3.263-.593l0.3,0.1v-0.3c0.192-.107.2,0.072,0.2,0.2a1.8,1.8,0,0,0,1.681-.3,0.84,0.84,0,0,0,.692.1,2.577,2.577,0,0,1,.2,1.285h0.1a3.584,3.584,0,0,0,1.483.1,2.335,2.335,0,0,0-.1-0.791h0.494a0.5,0.5,0,0,1,.3-0.1v-0.3h-0.2c-0.184-.112-0.708-0.082-0.89-0.2a4.883,4.883,0,0,0,2.571-.593c0.237,0.172.093,0.181,0.4,0.1v1.285h0.692c0.038,0.259-.074.129,0.2,0.2a1.043,1.043,0,0,1,.1-0.593c0.017,0.427.087,0.467,0.2,0.494l0.3,0.1v-0.89c-0.409-.172-1.109-0.229-1.187-0.791,0.41,0,.413.015,0.593-0.2,0.132-.154.1,0.2,0.1,0.2h0.495a5.816,5.816,0,0,0-.1-1.581h0.3a5.007,5.007,0,0,0,.1-1.087H27.1a0.979,0.979,0,0,1-.2.593h0.2a0.5,0.5,0,0,0,.3.1l-0.1.593h1.681V17.128a1.491,1.491,0,0,1,1.187-.3,1.555,1.555,0,0,1,.1.494,1.321,1.321,0,0,0-.2,1.087h0.4v-0.1h0.1l0.2-1.483a10.205,10.205,0,0,1-.791-1.878l-1.187.2-0.1-.692h0.2a4.287,4.287,0,0,1,1.187-.4,6.776,6.776,0,0,0,.89,2.471c0.069-.8.655-2.072,0.2-2.471a0.491,0.491,0,0,1-.593-0.1h0.4a5.108,5.108,0,0,1,.4-1.977V12.68a0.467,0.467,0,0,0-.2.494c0.266,0.042.217,0.245,0.2,0.791h0.2c0.1-.068.4-0.127,0.494-0.2a2.687,2.687,0,0,0,.1-1.186,2.777,2.777,0,0,0,0-1.581h0.2v0.2c0.091,0.149.509,2.141,0.593,2.57h0.89c0.632-.374,1.675-0.111,2.472-0.3,1.447-.337,5.186-0.6,6.131-1.285a0.338,0.338,0,0,1-.2-0.1h0.791Zm-8.01,4.942a33.012,33.012,0,0,0,3.857,0v-0.1a9.679,9.679,0,0,0-.791-0.791H34.907c-0.155.123-.05,0.063-0.2,0h-0.1v-0.1h2.077c0.149-.092,3.234-0.456,3.56-0.494v0.2a4.415,4.415,0,0,0-2.077.4,2.2,2.2,0,0,0,1.681.791c0.076-.067.221-0.13,0.3-0.2a1.261,1.261,0,0,1,.3-0.89,3.51,3.51,0,0,1,1.187-.494,0.376,0.376,0,0,0,.2.3c-0.01-.406-0.163-0.376.4-0.4v0.2a0.478,0.478,0,0,0-.3.1,2.686,2.686,0,0,0,.3.89c0.115-.961.757-1.738,0.89-2.57,0.051-.319-0.127-0.488-0.1-0.791h-0.3a0.356,0.356,0,0,1-.2.1v-0.1a0.356,0.356,0,0,0,.1-0.2,1.4,1.4,0,0,0,.4.1V12.285a26.885,26.885,0,0,0-3.758.89c-1.643.426-3.2,0.2-4.944,0.593a6.3,6.3,0,0,1-2.67.3v0.1a0.55,0.55,0,0,1,0,.4c0.595,0.47.878,1.446,1.582,1.779a3.688,3.688,0,0,1,1.285-.494C34.6,16.478,34.909,16.449,35.006,17.029Zm-2.571-3.163h0.3a2.939,2.939,0,0,0-.4-1.483Zm10.878-.791c0.23,1.324.872,1.806,1.187,2.866h0.1A10.676,10.676,0,0,0,43.313,13.076Zm-13.152.89h0.2v0.1A0.339,0.339,0,0,1,30.161,13.965Zm-0.3.2c0.152,0.793.493,1.447,0.692,2.174h0.1A6.012,6.012,0,0,0,29.864,14.163Zm15.822,0.1c0.223,0.235.108,0.035,0.1,0.4a1.16,1.16,0,0,0-.593,0v-0.2A0.647,0.647,0,0,0,45.686,14.262Zm-1.582.2a9.3,9.3,0,0,1,.692,1.68h0.2v-0.2a0.4,0.4,0,0,1-.2-0.4h0.1v0.2a0.382,0.382,0,0,1,.2.3h0.1c-0.134-.529-0.444-0.761-0.593-1.285-0.19.055-.085,0.162-0.2,0A3.5,3.5,0,0,0,44.1,14.459Zm-0.593.1L44.7,18.413a0.639,0.639,0,0,1,.1-0.4,1.254,1.254,0,0,0,.1.4h0.1V17.721h0.1v-0.1c-0.336-.093-0.308-0.038-0.4-0.4a0.389,0.389,0,0,0,.3-0.4C44.571,16.724,44.055,15,43.511,14.558Zm-1.187,3.558c0.047,0.487.174,0.529,0.2,1.087h0.593c-0.039-.393-0.2-0.4.1-0.593a1.042,1.042,0,0,0,.1.593c0.107-1.475-.09-2.971-0.1-4.546h-0.2a17.273,17.273,0,0,1-.692,3.36,0.478,0.478,0,0,1,.3.1h-0.3Zm0.494-3.36v0.2h0.1A0.339,0.339,0,0,0,42.818,14.756Zm1.681,0.2a0.357,0.357,0,0,1,.1.2H44.5v-0.2Zm-1.78.1c-0.122.835-.894,1.786-0.4,2.57C42.381,16.886,43.016,15.6,42.719,15.052Zm-10.779.1a7.061,7.061,0,0,0,.989,2.372l-0.1-1.087h0.1v0.1c0.068,0.076.13,0.221,0.2,0.3v-0.3C32.629,16.179,32.42,15.522,31.941,15.151ZM44.1,18.413h0.4v-0.2l-0.989-3.064v0.3A11.581,11.581,0,0,1,44.1,18.413ZM44.6,15.151a0.356,0.356,0,0,1,.1.2H44.6v-0.2Zm-13.251.1a3.964,3.964,0,0,0,0,2.57h0.1A6.857,6.857,0,0,0,31.347,15.25Zm13.35,0.1a0.356,0.356,0,0,1,.1.2H44.7v-0.2ZM32.534,19.9a1.421,1.421,0,0,1,.494.1V19.2a14.24,14.24,0,0,1-1.187-3.756h-0.1v0.2c0.653,0.991.523,3.515,0.593,4.645h0.2V19.9ZM29.666,16.14a1.419,1.419,0,0,1,.494.1v0.1h-0.4v-0.1h-0.1v0.1c-0.086-.073-0.112-0.124-0.2-0.2l0.1-.3h0.1v0.3Zm1.879,0.3c-0.029.74-.108,1.651,0.3,1.977A9.745,9.745,0,0,0,31.545,16.436Zm0.791,0.2,0.692,2.273h0.1A4.792,4.792,0,0,0,32.336,16.634Zm7.812,0.4a3.369,3.369,0,0,0-.791.1v0.1h0.1a1.548,1.548,0,0,0,.791.692v-0.2A1.308,1.308,0,0,1,40.148,17.029Zm-5.142.2a37.972,37.972,0,0,0,.494,3.855,3.978,3.978,0,0,0,1.483.1v-0.1a0.467,0.467,0,0,1-.2-0.494,1.172,1.172,0,0,0,.494-0.692,3.674,3.674,0,0,0,1.582,0c0.072,0.559.313,0.53,0.4,1.087a0.857,0.857,0,0,1,.989.3h0.1v0.1h-0.3a3.839,3.839,0,0,0,.1.889h0.1a14.064,14.064,0,0,0,.2-1.68,1.083,1.083,0,0,1-.3-0.2,0.478,0.478,0,0,0,.3-0.1,4.959,4.959,0,0,1-.2-2.076c-0.591-.406-0.7-1.056-1.681-1.087C38.118,17.413,35.755,17.238,35.006,17.227Zm-4.153,0-0.1.791h0.2c-0.021-.331-0.213-0.237.1-0.4l0.1,0.4h0.1v-0.3C31.1,17.574,31,17.373,30.853,17.227Zm12.855,0.2v0.2h0.1A0.339,0.339,0,0,0,43.708,17.424Zm0.1,0.4a1.041,1.041,0,0,0,.1.593A1.043,1.043,0,0,0,43.807,17.82Zm-12.559.692V19.2h0.2V18.512h-0.2Zm0.89,0v0.2h0.1A0.338,0.338,0,0,0,32.138,18.512Zm11.669,0a3.567,3.567,0,0,1,.1.692h0.2v-0.2A1,1,0,0,0,43.807,18.512ZM44.2,19.2h0.3a3,3,0,0,1,.1-0.692H44.1v0.2A0.854,0.854,0,0,1,44.2,19.2Zm0.495-.692c0.17,0.087.126,0.088,0.3,0H44.7Zm-39.555.3a0.357,0.357,0,0,0,.2.1A0.357,0.357,0,0,0,5.142,18.808Zm-0.791.1v0.2h0.2v-0.2h-0.2Zm0.4,0a0.356,0.356,0,0,0,.2.1A0.356,0.356,0,0,0,4.747,18.907Zm-1.483.1a0.661,0.661,0,0,0,.593.4V19.3A1.093,1.093,0,0,1,3.263,19.006Zm0.692,0a0.357,0.357,0,0,0,.2.1A0.357,0.357,0,0,0,3.956,19.006Zm-0.989.3c-0.3.68-1.029,1.054-1.286,1.779,0.292,0.195.424,0.485,0.692,0.692v-0.1A14.9,14.9,0,0,1,3.164,19.3h-0.2Zm28.282,0a0.357,0.357,0,0,0,.2.1A0.357,0.357,0,0,0,31.249,19.3Zm12.658,0v0.2h0.2V19.3h-0.2Zm0.4,0v0.3h0.1V19.5h0.1v0.1a0.5,0.5,0,0,0,.1-0.3H44.3Zm3.758,0v0.3h0.593V19.3H48.059Zm-16.415.2v0.2h0.3V19.6Zm18.888,0h0.2v0.1A0.338,0.338,0,0,1,50.532,19.5Zm-11.669.2a0.357,0.357,0,0,1,.1.2h-0.1V19.7Zm-35.8.3a0.478,0.478,0,0,0,.1.3A0.478,0.478,0,0,0,3.066,19.994Zm28.48,0.1v0.2a1.42,1.42,0,0,1,.494.1v-0.3A0.6,0.6,0,0,1,31.545,20.093Zm-6.032.593a0.4,0.4,0,0,1,0,.494V20.686Zm6.527,0v0.791h0.2v-0.1C32.15,21.239,32.13,20.824,32.04,20.686Zm-27.293.2v0.3h0.89v-0.3H4.747Zm1.187,0a0.828,0.828,0,0,0-.2.3c0.286-.126.2,0.112,0.3-0.3h-0.1Zm0.2,0v0.2h0.3v-0.2h-0.3Zm32.831,0.2v0.2h0.2v-0.2h-0.2Zm0.494,0.1a0.357,0.357,0,0,0,.2.1A0.357,0.357,0,0,0,39.456,21.18Zm-13.548.2a0.356,0.356,0,0,1,.1.2h-0.1v-0.2Zm11.174,0.889V21.378h-0.4c-0.109.356-.289,0.507-0.4,0.889h0.791Zm-14.635-.791,0.1,0.3h0.3v-0.2Zm13.844,0.1v0.2h0.1v-0.2h-0.1Zm3.659,0.494v-0.4h-0.1a0.764,0.764,0,0,0-.3.3h0.1A0.5,0.5,0,0,0,39.951,22.07Zm34.71-.4a0.523,0.523,0,0,0,.593,0H74.66Zm-68.43.1a0.358,0.358,0,0,0,.2.1A0.356,0.356,0,0,0,6.23,21.773Zm0.4,0v0.2h0.1A0.338,0.338,0,0,0,6.625,21.773Zm0.593,0.1a0.356,0.356,0,0,0,.2.1A0.357,0.357,0,0,0,7.219,21.872Zm4.45,0a0.523,0.523,0,0,0,.593,0H11.669Zm0.89,0c0.17,0.087.126,0.088,0.3,0h-0.3Zm27.886,0.1-0.1.3C40.539,22.148,40.566,22.128,40.445,21.971Zm-29.864.1a0.357,0.357,0,0,0,.2.1A0.356,0.356,0,0,0,10.581,22.07Zm28.381,0.1a0.356,0.356,0,0,0,.2.1A0.358,0.358,0,0,0,38.962,22.169Zm28.579,0.1c0.17,0.087.126,0.088,0.3,0h-0.3ZM7.219,26.715h0.4v-0.4H7.12v0.1A0.5,0.5,0,0,1,7.219,26.715Zm0.692-.3a0.374,0.374,0,0,0,.4.3,4.186,4.186,0,0,0,1.978-.1Z" transform="translate(0 0.516)"/>
</svg>
