<svg xmlns="http://www.w3.org/2000/svg" width="80" height="40" viewBox="0 0 80 40">
  <defs>
    <style>
      .cls-1 {
        fill: #fff;
        fill-rule: evenodd;
      }
    </style>
  </defs>
  <path id="Color_Fill_1" data-name="Color Fill 1" class="cls-1" d="M39.221,11.2l-0.1.685c0.308,0,.131-0.166.292,0.1H39.124l0.195,2.152h0.876c-0.031-.472-0.23-0.33,0-0.489,0.109-.281.017-0.18,0.292-0.293a3.254,3.254,0,0,0-.1.783h0.487v0.1H40.681a0.5,0.5,0,0,1-.292.1,7.753,7.753,0,0,1-.195,1.37c0.35,0.019.2-.145,0.292,0.2h-0.1v-0.1c-0.075-.188-0.1.2-0.1,0.2a1.36,1.36,0,0,1,.195,1.467,6.985,6.985,0,0,0-.292-1.565H40.1v0.391a22.916,22.916,0,0,1,.195,4.5h0.973a0.475,0.475,0,0,1,.1-0.293v0.1c0.192,0.145-.054.139,0.292,0.2a3.307,3.307,0,0,0,0-.685h0.1a0.336,0.336,0,0,0,.1.2V19.9a0.5,0.5,0,0,1-.1-0.294h0.1v0.2a0.6,0.6,0,0,0,.389.2l0.1-.294c-0.029-.073-0.054-0.347-0.1-0.587H41.655c-0.109.162-.009,0.06-0.195,0a0.635,0.635,0,0,1-.1.391,1.244,1.244,0,0,0-.1-0.391H41.071a0.822,0.822,0,0,1-.1.489,1.531,1.531,0,0,1,0-.88v0.293a0.469,0.469,0,0,0,.292-0.1,0.725,0.725,0,0,1-.195-0.587h0.1a0.474,0.474,0,0,0,.1.293V18.239a2.592,2.592,0,0,1-.389-1.174h0.1v0.2a4.331,4.331,0,0,1,.584,1.761,9.592,9.592,0,0,1,1.265.2l0.1-1.37H42.725l0.1,0.294H42.53a0.475,0.475,0,0,1,.1-0.294v-0.1H42.92a4.561,4.561,0,0,1,.292-2.152c0.072-.085.123-0.11,0.195-0.2a0.333,0.333,0,0,1,.195.1L43.8,15.6a0.9,0.9,0,0,0-.292.489h0.1c0.142-.249-0.021-0.11.292-0.2l0.195,3.13c0.255,0.038.127-.073,0.195,0.2a4.656,4.656,0,0,0,1.654-.1,1.13,1.13,0,0,0,.1-1.174,4.711,4.711,0,0,0,.487-0.2,0.819,0.819,0,0,1-.195-0.294h0.292a1.244,1.244,0,0,0,.1.391,1.355,1.355,0,0,1,.487,0,2.193,2.193,0,0,0,.389,1.37,2.731,2.731,0,0,1,1.071-.1v0.293c-0.205.5,0.321,0.431,1.071,0.391v0.685a0.812,0.812,0,0,0-.487.1h0.487v1.957h0.487c0-.256-0.126-0.086.1-0.294A1.42,1.42,0,0,0,51,21.957H50.414a1.632,1.632,0,0,1,.292-1.467,6.707,6.707,0,0,0,1.46.685c0.4,0.154.964-.088,1.265,0.1a1.372,1.372,0,0,0-1.168.2,1.393,1.393,0,0,1,.389.489c-0.24.127-.066-0.042-0.195,0.2a1.022,1.022,0,0,1,.584.1c-0.516,0-.546-0.008-0.584.489a4.3,4.3,0,0,1,1.071-.2c0.018,0.007.271,0.381,0.292,0.391h1.071V22.641a1.165,1.165,0,0,1-.973-0.294h0.292V21.565l0.779,0.1a0.634,0.634,0,0,1,.1-0.391v0.294h1.362c-0.031-.278-0.1-0.2,0-0.391v0.1a0.5,0.5,0,0,1,.1.294,5.422,5.422,0,0,1,1.168,0c0.86,0.674,1.53.516,3.017,0.489v0.1a25.06,25.06,0,0,1-2.628.1v0.2a1.3,1.3,0,0,0-.195.88H58a9.656,9.656,0,0,1,1.557,0l0.1-.978h1.265c0.224,0.326,1.4.245,1.946,0.2,0.229-.021.673,0.368,1.168,0.489,0.63,0.154,1.569-.194,2.044.1a9.047,9.047,0,0,0-2.628.2c1.091,0,2.741.184,3.5-.2L69,23.228a6.446,6.446,0,0,0,.681-0.587s1.4,0.257,1.46.293a2.037,2.037,0,0,0-.973.1h0.1c0.461,0.3,1.722.017,2.433,0V22.544a1.26,1.26,0,0,1,.779,0v0.391l1.46-.1V22.348a1.261,1.261,0,0,1,.779,0v0.391l1.168-.1a1.794,1.794,0,0,1,.389-0.391,8.244,8.244,0,0,1,1.46.294l1.265-.1a8.371,8.371,0,0,1-.487,2.348,17.824,17.824,0,0,0-.195,3.913c-0.99.507-4.11,0.2-5.547,0.2H12.165c-0.411-.7-0.768-0.824-1.946-0.783a11.9,11.9,0,0,1-2.92.2v0.391a1.3,1.3,0,0,0-.389.2V28.315H6.521v-0.2c0.486-.153.269-0.215,0.389-0.587L7.2,27.63c0.085,0.4-.072.364,0.487,0.391V27.533l-1.363-.1a2.982,2.982,0,0,1-.292,1.37c-0.492.318-2.018,0.111-2.725,0.1V27.044a3.291,3.291,0,0,0,1.557.1,11.876,11.876,0,0,1-3.5-.587A9.078,9.078,0,0,1,0,23.13c0.482,0.015.452,0.012,0.973,0V22.837A2.036,2.036,0,0,1,0,22.739a1.372,1.372,0,0,0,1.168-.2,0.493,0.493,0,0,1-.389-0.587,1.37,1.37,0,0,1,.389-0.1c0.116,0.076.469,0.117,0.584,0.2a1.805,1.805,0,0,0-.779.1h0.1c0.323,0.6.7,0.464,1.071,0.978,1.171-.643.774,0.038,1.946-0.293,0.11-.031.4-0.267,0.487-0.293l1.752,0.293a5.2,5.2,0,0,0,1.265.1,16.576,16.576,0,0,1,3.309,0,5.862,5.862,0,0,1,1.265-.2,5.117,5.117,0,0,1,.487.391c0.04-.35-0.046-0.246.195-0.391-0.006.284-.094,0.136,0,0.293,0.644,0.434,1.262-.047,1.849.1a15.074,15.074,0,0,0,2.92.2v-0.2a4.381,4.381,0,0,0-1.265-.1c-0.3-.18-1.068-0.01-1.363-0.2l2.628-.1,0.292-.489c0.136-.052.861,0.1,1.168,0.1a1.247,1.247,0,0,1,.1-0.391h0.1c-0.018.48,0.1,0.445,0.779,0.391,0.224-.377.721-0.227,1.265-0.2v0.2a0.861,0.861,0,0,1,.1.783,7.173,7.173,0,0,0,1.849-.293,0.425,0.425,0,0,1-.292-0.293,0.486,0.486,0,0,0,.389-0.489,2.6,2.6,0,0,1-1.168-.1,9.059,9.059,0,0,0,2.92-.685,8.087,8.087,0,0,1,0,1.663h0.1v-0.2c0.454-.087.5-0.237,0.487-0.783a4.413,4.413,0,0,1,0-.685h0.1a2.163,2.163,0,0,0,.681.1V21.076a7.3,7.3,0,0,1,.195-1.174,0.84,0.84,0,0,0,.487-0.1,0.662,0.662,0,0,0,.1-0.391c-0.369-.011-0.267.1-0.292-0.391h0.1v0.2c0.33,0.092.3,0.038,0.389,0.391,0.133,0.1-.027.063-0.1,0.294,0.361,0,.433-0.048.487,0.489-0.3.187-.14,0.439-0.1,0.88a1.776,1.776,0,0,0,.584.1,0.761,0.761,0,0,1,0-.391c0.35,0.127.577,0.279,0.876,0.391V20.685a10.262,10.262,0,0,0,.195-2.641,0.611,0.611,0,0,1,.487.2V17.946c-0.279-.11-0.179-0.017-0.292-0.293a1.373,1.373,0,0,1,.389-0.1,0.35,0.35,0,0,0,.195.1,11.151,11.151,0,0,0,.389,2.25V20h0.1l0.195-.587h0.1v0.293a1.827,1.827,0,0,0-.389.881h0.1c0.135-.171.068-0.276,0.195-0.1a1.644,1.644,0,0,0,.584.2,27.042,27.042,0,0,1,.292-2.739c-0.255-.038-0.127.073-0.195-0.2,0.347-.405.214-1.819,0.195-2.739H30.56v-0.1a1.064,1.064,0,0,0,.1-0.587,1.9,1.9,0,0,0,1.168-.2v2.935h0.1v-0.2a18.261,18.261,0,0,0,.681-3.228,0.26,0.26,0,0,0-.1-0.2,0.424,0.424,0,0,1-.292.293v-0.1a1.85,1.85,0,0,0,.1-0.587,0.354,0.354,0,0,1,.1.2,0.508,0.508,0,0,1,.487.489c-0.069.151-.013,0.013,0,0.293a1.776,1.776,0,0,1,.681.1c0-.746.34-2.607,0.681-2.739V11.88c-0.379.344,0.087,2.018,0.292,2.544H34.355a1.761,1.761,0,0,0-1.168,0v0.2a2.306,2.306,0,0,1,.487.978h-0.1a3.037,3.037,0,0,0-.292-0.489c0.036,0.593.452,1.321,0.195,1.761a1.373,1.373,0,0,0-.195-0.783l0.389,5.283c0.382-.015.252-0.22,0.389,0.2a2.814,2.814,0,0,0,0,.587h0.389l0.1-.2h-0.1v-0.1H34.161V21.272c0.316-.081.149,0.048,0.292-0.2a0.394,0.394,0,0,1,0-.489c0.018,0.447,0,.493.389,0.587,0.374,0.208.466-.145,0.779-0.293v0.293a0.818,0.818,0,0,0,0,.783,2.693,2.693,0,0,1,.1-0.88,3.466,3.466,0,0,0,.292.293v-0.2c-0.286-.445.025-0.777-0.1-1.272-0.116-.469-0.538-0.837-0.681-1.37h0.1v0.1h0.1l0.389,0.88h0.1v-1.37a1.878,1.878,0,0,1,.1-0.88c0.6,0.384,1.824-.255,2.822-0.293v0.1a0.818,0.818,0,0,0,0,.783,0.475,0.475,0,0,1,.1-0.293c-0.095,1.1-.3,4.212.292,4.5v0.1h0.1v-0.1c-0.127-.3-0.153-0.389.389-0.391v-0.1a16.848,16.848,0,0,0,0-5.674,1.037,1.037,0,0,1-.1.587,1.273,1.273,0,0,0-.1-0.685,2.452,2.452,0,0,1-.389,1.174V16.576a4.048,4.048,0,0,0,.487-1.467h0.1a0.474,0.474,0,0,0,.1.293V15.109a3.5,3.5,0,0,0-.195-0.783,4.705,4.705,0,0,1-1.071,0,10.04,10.04,0,0,0,.1-2.641h0.1c0.126,0.241-.042.067,0.195,0.2a1.327,1.327,0,0,1,0-.88C39.071,11.249,38.908,11.11,39.221,11.2Zm-0.389,1.565-0.195,1.467h0.1a0.35,0.35,0,0,1,.195-0.1A3.223,3.223,0,0,0,38.832,12.761Zm-4.963.2L33.674,14.13h0.195V13.348A0.287,0.287,0,0,0,33.869,12.957Zm0.195,0V14.13h0.195v0.1h0.1V13.935C34.2,13.69,34.227,13.2,34.063,12.957Zm0.973,1.37a0.47,0.47,0,0,1,.292.1A0.469,0.469,0,0,1,35.037,14.326Zm0.389,0a2.6,2.6,0,0,1,1.168.1A2.6,2.6,0,0,1,35.426,14.326Zm1.265,0a0.47,0.47,0,0,1,.292.1A0.47,0.47,0,0,1,36.691,14.326Zm3.5,0a0.629,0.629,0,0,0,.1.685A1.272,1.272,0,0,0,40.195,14.326Zm-7.688.2-0.1,1.174h0.1V15.5a0.354,0.354,0,0,0,.1-0.2h0.1V15.6c-0.687.762-.072,2.405-0.584,3.228a1.273,1.273,0,0,0-.1-0.685,3.564,3.564,0,0,1,0,1.761,2.068,2.068,0,0,0-.1-0.978,4.567,4.567,0,0,1-.195,1.565H32.02a4.111,4.111,0,0,1,.292-0.783c0.075,0.067.217,0.128,0.292,0.2a3.672,3.672,0,0,1,.195.587h0.195c0.088-.237.1-0.155,0.195-0.391-0.525-.871.252-3.426-0.292-4.3a14.008,14.008,0,0,1-.584,3.913l0.584-4.6H32.8a0.335,0.335,0,0,1-.1.2V15.011A0.7,0.7,0,0,0,32.9,14.62Zm1.946,0a0.354,0.354,0,0,1,.1.2h-0.1v-0.2Zm6.229,0.294h0.195v0.1H40.681v-0.1Zm-6.131.1a0.354,0.354,0,0,1,.1.2h-0.1v-0.2Zm0.1,0.391a0.354,0.354,0,0,1,.1.2h-0.1V15.3Zm5.645,0a0.5,0.5,0,0,1,.1.293h-0.1V15.3Zm-0.681.2v0.2h0.1A0.336,0.336,0,0,0,39.611,15.5Zm1.071,0h0.195v0.1h-0.1v0.1A0.353,0.353,0,0,1,40.681,15.5Zm-7.007.1a1.573,1.573,0,0,1,.487.881h-0.1v-0.1A1.718,1.718,0,0,1,33.674,15.6Zm1.071,0.1a0.5,0.5,0,0,1,.1.293h-0.1V15.7Zm-1.168.1a0.353,0.353,0,0,1,.1.2h-0.1v-0.2Zm6.91,0.1a0.5,0.5,0,0,1,.1.293h-0.1V15.891Zm-6.423,1.957a8.852,8.852,0,0,0-.389-1.761h0.1v0.2a5.078,5.078,0,0,0,.584.88,0.566,0.566,0,0,0,0,.587A0.5,0.5,0,0,1,34.063,17.848Zm0.779-1.663a0.353,0.353,0,0,1,.1.2h-0.1v-0.2Zm5.742,0a0.5,0.5,0,0,1,.1.294h-0.1V16.185Zm-6.423.294a0.354,0.354,0,0,1,.1.2h-0.1v-0.2Zm5.353,0a1.2,1.2,0,0,1-.1,1.076Zm1.168,0a0.5,0.5,0,0,1,.1.293h-0.1V16.478Zm-5.742.1a0.354,0.354,0,0,1,.1.2h-0.1v-0.2Zm-0.681.1a0.353,0.353,0,0,1,.1.2h-0.1v-0.2Zm6.521,0.1a0.5,0.5,0,0,1,.1.294h-0.1V16.772Zm-7.2.1a0.394,0.394,0,0,1,0,.489V16.87Zm0.779,0a2.083,2.083,0,0,1,.584,1.076h-0.1v-0.1A2.307,2.307,0,0,1,34.355,16.87Zm-2.336.1a7.567,7.567,0,0,0-.195,1.859h0.1A6.6,6.6,0,0,0,32.02,16.967Zm3.017,0a0.353,0.353,0,0,1,.1.2h-0.1v-0.2Zm3.99,0a0.5,0.5,0,0,1,.1.293h-0.1V16.967Zm7.786,0a0.85,0.85,0,0,1,.1.489h-0.1a1.43,1.43,0,0,0-.487-0.2h0.195A3.458,3.458,0,0,0,46.813,16.967Zm-8.37.1a0.35,0.35,0,0,0,.195.1A0.351,0.351,0,0,0,38.443,17.065Zm2.239,0.1a0.5,0.5,0,0,1,.1.293h-0.1V17.163Zm-2.141.1v0.2h0.1v-0.2h-0.1Zm0.389,0a0.5,0.5,0,0,1,.1.293h-0.1V17.261Zm-5.255.1a1.714,1.714,0,0,1,.195,1.37Zm1.46,0.1a0.353,0.353,0,0,1,.1.2h-0.1v-0.2Zm5.45,0a0.287,0.287,0,0,1,0,.391V17.457Zm0.195,0a0.5,0.5,0,0,1,.1.294h-0.1V17.457Zm-1.46.1a2.381,2.381,0,0,1-.195,1.663Zm1.557,0.2a0.5,0.5,0,0,1,.1.294h-0.1V17.75Zm-5.645.1a0.353,0.353,0,0,1,.1.2h-0.1v-0.2Zm5.45,0a0.871,0.871,0,0,1,.1.881Zm-5.742.1a0.354,0.354,0,0,1,.1.2h-0.1v-0.2Zm-3.5.1a0.781,0.781,0,0,1-.1.685h-0.1V18.435A0.7,0.7,0,0,0,31.436,18.044Zm9.538,0a0.5,0.5,0,0,1,.1.293h-0.1V18.044Zm-5.937.1a0.353,0.353,0,0,1,.1.2h-0.1v-0.2Zm0.292,0.1a0.354,0.354,0,0,1,.1.2h-0.1v-0.2Zm-0.195.1a0.352,0.352,0,0,1,.1.2h-0.1v-0.2Zm-3.99.391a0.781,0.781,0,0,1-.1.685h-0.1V19.12A0.7,0.7,0,0,0,31.144,18.728Zm2.822,0a0.394,0.394,0,0,1,0,.489V18.728Zm0.779,0.2a0.353,0.353,0,0,1,.1.2h-0.1v-0.2Zm-0.681.294a0.871,0.871,0,0,1,.1.88Zm0.779,0a0.353,0.353,0,0,1,.1.2h-0.1v-0.2Zm4.185,0a1.2,1.2,0,0,1-.1,1.076Zm2.628,0.1a0.5,0.5,0,0,1,.1.293h-0.1V19.315Zm0.195,0a0.353,0.353,0,0,1,.1.2h-0.1v-0.2Zm-0.389.2a0.5,0.5,0,0,1,.1.293h-0.1V19.511Zm-6.715.1a0.353,0.353,0,0,1,.1.2h-0.1v-0.2Zm6.326,0a0.871,0.871,0,0,1,.1.88Zm0.487,0.2a0.5,0.5,0,0,1,.1.293h-0.1V19.8Zm-9.635.1a0.287,0.287,0,0,1,0,.391V19.9Zm2.92,0a0.353,0.353,0,0,1,.1.2h-0.1V19.9Zm0.876,0a0.287,0.287,0,0,1,0,.391V19.9Zm-0.584.1a0.353,0.353,0,0,1,.1.2h-0.1V20Zm-4.769.1v0.391h0.1v-0.2a0.353,0.353,0,0,0,.1-0.2H30.365Zm3.893,0a0.4,0.4,0,0,1,0,.489V20.1Zm-1.168.294v0.2h0.1v-0.2h-0.1Zm8.759,0.1a0.475,0.475,0,0,0,.1.293V20.489h-0.1Zm-10.316.685h0.292V20.685h-0.1v0.2C31.48,21.023,31.618,20.859,31.533,21.174Zm0.389-.489v0.489h0.1v-0.2a0.5,0.5,0,0,0,.1-0.294H31.922Zm0.292,0a1.411,1.411,0,0,1-.1.489c0.374,0.005.86,0.12,0.876,0.1a0.85,0.85,0,0,0,.1-0.489h-0.1v-0.1A5.026,5.026,0,0,1,32.214,20.685Zm3.406,0a0.353,0.353,0,0,1,.1.2h-0.1v-0.2Zm-4.477.1v0.489h0.195A0.587,0.587,0,0,0,31.144,20.783Zm3.99,0.1a0.353,0.353,0,0,1,.1.2h-0.1v-0.2Zm14.793,0.293h0.195v0.2H49.927v-0.2ZM25.3,21.663H25.5v0.1H25.4v0.1A0.353,0.353,0,0,1,25.3,21.663Zm9.83,0.489c-0.081-.317.048-0.149-0.195-0.294l-0.1.294h0.292Zm-33.285-.1a0.811,0.811,0,0,1,.487.1A0.811,0.811,0,0,1,1.849,22.054Zm-0.389.1a0.469,0.469,0,0,1,.292.1A0.469,0.469,0,0,1,1.46,22.152Zm0.876,0a1.022,1.022,0,0,1,.584.1A1.022,1.022,0,0,1,2.336,22.152Zm-0.584.1a0.469,0.469,0,0,1,.292.1A0.469,0.469,0,0,1,1.752,22.25Zm1.168,0a1.022,1.022,0,0,1,.584.1A1.022,1.022,0,0,1,2.92,22.25Zm-0.876.1a0.811,0.811,0,0,1,.487.1A0.811,0.811,0,0,1,2.044,22.348Zm1.46,0a1.021,1.021,0,0,1,.584.1A1.023,1.023,0,0,1,3.5,22.348Zm-0.973.1a1.022,1.022,0,0,1,.584.1A1.022,1.022,0,0,1,2.53,22.446Zm1.557,0a0.811,0.811,0,0,1,.487.1,1.89,1.89,0,0,1-1.168,0A1.256,1.256,0,0,0,4.088,22.446Zm-0.973.1H3.309v0.1A0.333,0.333,0,0,1,3.114,22.544Zm76.3,0.293c0.167,0.086.124,0.087,0.292,0H79.416Zm-10.024.2c0.191,0.17.219,0.2,0.487,0H69.392Zm-58.783.1a0.35,0.35,0,0,0,.195.1A0.35,0.35,0,0,0,10.608,23.13Zm10.9,0.1a0.351,0.351,0,0,0,.195.1A0.35,0.35,0,0,0,21.509,23.228Zm49.732,0.2a0.283,0.283,0,0,0,.389,0H71.241Zm-12.263.294a0.652,0.652,0,0,0,.681,0H58.978Zm0.779,0a0.389,0.389,0,0,0,.487,0H59.757Zm4.282,0a0.389,0.389,0,0,0,.487,0H64.039Zm0.584,0a0.806,0.806,0,0,0,.779,0H64.623ZM7.981,27.63v0.391a6.425,6.425,0,0,0,2.433-.1Z"/>
</svg>
