<svg xmlns="http://www.w3.org/2000/svg" width="79.969" height="40" viewBox="0 0 79.969 40">
  <defs>
    <style>
      .cls-1 {
        fill: #fff;
        fill-rule: evenodd;
      }
    </style>
  </defs>
  <path id="Color_Fill_1" data-name="Color Fill 1" class="cls-1" d="M40.15,9.252h1a2.042,2.042,0,0,1,.1-0.985,5.791,5.791,0,0,0,.1,1.675,0.92,0.92,0,0,1,.9,0v-0.3a0.849,0.849,0,0,1-.5-0.1h0.6a1.232,1.232,0,0,0,.1.394,4.525,4.525,0,0,1,1,0v-0.2a1.053,1.053,0,0,1,.1-0.887h0.3c0.058,0.572.116,0.221,0.3,0.493,0.25,0.368-.291.318-0.1,0.493a2.807,2.807,0,0,0,1,.1,0.362,0.362,0,0,1-.2.1,3.742,3.742,0,0,1-1.4.394,11.878,11.878,0,0,0,.5,2.168,5.021,5.021,0,0,0,1.4.1V12.5c-0.255-.143-0.113.021-0.2-0.3h0.7c-0.034.244-.1,0.591-0.1,0.591a3.135,3.135,0,0,0-.4.2c-0.225.333,0.258,0.213-.2,0.493a0.628,0.628,0,0,0-.1-0.394,0.629,0.629,0,0,1-.1.394v-0.3a5.362,5.362,0,0,0-.8.2v0.1c0.268,0.394.207,1.11,0.5,1.478a3.375,3.375,0,0,0,1.4.1,2.806,2.806,0,0,0,.1-0.887h0.4v0.2a7.655,7.655,0,0,0,0,.887l-1.7.493V16.15a0.5,0.5,0,0,1,.1.3h4v0.887a0.489,0.489,0,0,1,.3.1,0.949,0.949,0,0,0,0,.985h0.6a0.63,0.63,0,0,1,.1-0.394v0.394a3.951,3.951,0,0,0,1.6-.1,2.953,2.953,0,0,0-1.2,0c-0.078-.467-0.229-0.4-0.3-0.887h0.4a2.007,2.007,0,0,1,0,.591h0.8a1.905,1.905,0,0,1,.4-0.3,0.63,0.63,0,0,1-.2-0.493h0.4a1.377,1.377,0,0,1,.1.394,0.808,0.808,0,0,0-.2.788,6.793,6.793,0,0,1,2.8.591,3.262,3.262,0,0,0-.2,2.069l4.105,0.493c-0.014-.936-0.258-4.274.1-4.828v4.828a2.939,2.939,0,0,0,.9.1,0.653,0.653,0,0,0,.8-0.1,0.472,0.472,0,0,0,.1.3,1.394,1.394,0,0,1,.1-0.493l0.6,0.1v0.1h-0.2a1.175,1.175,0,0,0-.4.394,6.508,6.508,0,0,1,.9,2.168h0.2a0.757,0.757,0,0,1,0-.591h0.1v0.887a1.578,1.578,0,0,0,.8-0.1,1.071,1.071,0,0,1-.6-0.1h0.1a0.683,0.683,0,0,1,.4-0.1,1.23,1.23,0,0,0-.1-0.394c-0.291.006-.139,0.095-0.3,0h-0.1v-0.1h1.2a5.858,5.858,0,0,1,2.2-.1V23.047c-0.265-.146-0.31-0.068-0.4-0.3,0.157-.113.035-0.189,0.6-0.2a0.352,0.352,0,0,1,.5-0.2,1.208,1.208,0,0,1,.2.3l3.5,0.1v0.2h-2.4a0.363,0.363,0,0,1-.2.1v0.394c3.739,0.026,7.468-.422,11.014-0.591v0.2a11.347,11.347,0,0,0-2.2.2v0.3l2.2-.1a0.774,0.774,0,0,1,.3-0.591v0.887a2.261,2.261,0,0,1,0,.788l0.6-.1a43.579,43.579,0,0,0-.2-5.026h0.3a28.214,28.214,0,0,0,.1,5.026,1.315,1.315,0,0,1,.7.1,1.263,1.263,0,0,0-.6.69c0.424,0.207.666,0.085,0.7,0.69H79.9V26a4.379,4.379,0,0,0-1.3-.3c-1,1.5-2.714,2.522-3.8,3.942a4.684,4.684,0,0,1-2,1.774,11.5,11.5,0,0,1-3.3.2H40.951c-3.128,0-8.178-.419-10.413.3v-0.3H16.921c-0.99-.049-1.285-1.1-2.4-0.887-2.2.417-4.168,0.429-6.208,0.887l-3,.3c-0.631.239-.7,0.932-1.4,1.084a0.282,0.282,0,0,0-.1-0.1c0.331-.963-0.061-1.4-0.1-2.168a1.593,1.593,0,0,1,.5-0.1,6.9,6.9,0,0,0,.4.69l0.2-.887H3.6a0.282,0.282,0,0,1-.1.1,2.1,2.1,0,0,1-.2,1.183,1.345,1.345,0,0,1-.7.1v-1.38H0.2a7.554,7.554,0,0,1-.1-2.069,3.808,3.808,0,0,0,.1-1.577H0.3v0.2c0.132,0.253-.157.75,0.2,0.985v-0.1a4.153,4.153,0,0,0,1.6-3.252A0.842,0.842,0,0,1,2,24.131H2.2v0.1c0.185,0.3.011,1.081,0.2,1.38v-3.35H2.7a5.945,5.945,0,0,0-.1,1.971,0.489,0.489,0,0,1,.3.1H2.8v0.1c-0.29.126-.206-0.112-0.3,0.3H2.7c0.163-.248,0-0.043.3,0a1.025,1.025,0,0,1,.1-0.591,1.986,1.986,0,0,0,1.3,0,1.956,1.956,0,0,0,.1.69,1.593,1.593,0,0,1,.5-0.1v-0.3h-0.4v-0.2h0.4a4.521,4.521,0,0,1-.2-1.084,7.05,7.05,0,0,0,.2-2.365,2.4,2.4,0,0,1,.7-0.394,0.282,0.282,0,0,0,.1.1v0.3l5.407,0.788a0.657,0.657,0,0,1,.1.394c-0.44-.013-2.337-0.327-2.4-0.3l-0.1.3a13.837,13.837,0,0,1-1.7.69,2.36,2.36,0,0,0-1.2.493c0.255,0.314.011,0.221-.1,0.69h0.3l0.1-.591a3.945,3.945,0,0,1,.9.1c-0.02.326,3.122,0.21,3.9,0.2-0.047-.3-0.2-0.309-0.1-0.394a2.531,2.531,0,0,1,.6-0.3v0.394a0.5,0.5,0,0,1,.1.3c0.714-.029,2.111-0.254,2.4.3a0.681,0.681,0,0,1-.1.394h1.4a11.729,11.729,0,0,1,2.1,0,2.832,2.832,0,0,1,.3.887h-0.1a0.375,0.375,0,0,0-.2-0.3v0.985c0.575-.006.6-0.018,1.1,0V25.412h-0.4v-0.2h0.4V24.821a1.315,1.315,0,0,1-.7-0.1h0.7V24.329a1.852,1.852,0,0,1-.9-0.1h0.9V22.358h-1.6v-0.1h0.1c-0.008-.262.1-1.194,0.1-1.872h0.1a5.1,5.1,0,0,0,2.2.1v-0.2a0.5,0.5,0,0,0,.1-0.3h-0.2c-0.541-.393-1.9.073-2.5-0.3a14.328,14.328,0,0,0,3.6-.2,1.174,1.174,0,0,1,.7-0.3,1.662,1.662,0,0,1,.5.591c-0.324-.006-0.084.1-0.4,0.493-0.112-.283-0.017-0.181-0.3-0.3v0.493h0.2c0.227-.08,1.385.037,1.8-0.1a3.181,3.181,0,0,0,.1,1.38,3.184,3.184,0,0,1,.1-1.38c0.474,0.295,1.549-.065,2,0a43.71,43.71,0,0,0,5.307.1v-0.1h0.1v-0.3h0.8v0.394c0.673,0,.759-0.007,1.4,0V20.091h0.9v0.394l0.9-.1a5,5,0,0,0,.2.788h-0.1a0.336,0.336,0,0,0-.1-0.2v0.69h0.1l0.1-.493a0.353,0.353,0,0,1,.1.2,0.345,0.345,0,0,1,.2.1,0.393,0.393,0,0,0-.2.394h0.2a10.319,10.319,0,0,1,1.1,0V21.471a5.706,5.706,0,0,1-.9,0h-0.1v-0.1h1v-0.3h-1.2v-0.2h1.2v-0.3h-1.4v-0.2h3.4V19.993h2.9a0.815,0.815,0,0,0,.1.493V19.5c-0.317,0-.135.167-0.3-0.1a3.873,3.873,0,0,1-.2-1.084c-0.29-1.111-.686-4.915-1.2-5.617a15.393,15.393,0,0,1-3.7.69c-0.029-.629-0.495-1.937-0.3-2.266a14.592,14.592,0,0,1,3.6-.69c0.039-.4.227-0.581-0.1-0.788,0,0.312.17,0.133-.1,0.3V9.449a11,11,0,0,1,0-1.281h0.3V6h0.2a4.448,4.448,0,0,0,.7,3.055,1.507,1.507,0,0,1,.1-0.788V9.252Zm-3-1.38a1.823,1.823,0,0,1,.9.2c-0.456,0-1,0-1,0a0.381,0.381,0,0,1-.3-0.2c0.5-.031.329-0.475,0.3-1.182h0.1V7.872Zm2.1,0,0.1,0.3h0.1A0.375,0.375,0,0,0,39.249,7.872Zm-1.2.2a1.577,1.577,0,0,1,.8.1A1.577,1.577,0,0,1,38.048,8.069Zm-0.9.1,0.3,0.1v0.1A0.381,0.381,0,0,1,37.146,8.168Zm1.9,0.1a2.484,2.484,0,0,0,0,1.182v0.1h0.1V8.266h-0.1Zm0.3,0.985h0.6v-0.1a5.32,5.32,0,0,0-.5-0.788v-0.1h-0.1V9.252Zm-1.9-.887a0.381,0.381,0,0,1,.3.2,0.281,0.281,0,0,1,.1.1A0.541,0.541,0,0,1,37.447,8.365Zm3,0a0.489,0.489,0,0,1,.3.1A0.488,0.488,0,0,1,40.451,8.365Zm0.4,0h0.2v0.1A0.344,0.344,0,0,1,40.851,8.365Zm-2.9.394,0.3,0.1v0.1h-0.2Zm0.4,0.3,0.3,0.1v0.1A0.381,0.381,0,0,1,38.348,9.055Zm1,0.3a20.718,20.718,0,0,0,1,5.715,7.463,7.463,0,0,0,.4,2.069q-0.05-2.217-.1-4.434a0.655,0.655,0,0,1,.4.1,0.489,0.489,0,0,0-.3.1c0.175,0.394.057,1.941,0.4,2.168V12.5a11.8,11.8,0,0,1,0-2.463,2.972,2.972,0,0,1-1.1-.1,1.511,1.511,0,0,0-.1-0.493A1.1,1.1,0,0,0,39.349,9.35Zm1.8,0h-1v0.2c0.115,0.115.184,0.279,0.3,0.394a0.765,0.765,0,0,1,.7,0V9.35Zm-1.2.591a3.756,3.756,0,0,0,.2.69h-0.1v-0.1a4.2,4.2,0,0,0-.3-0.493c-0.13-.083-0.307-0.028-0.4-0.1h0.1A0.707,0.707,0,0,1,39.95,9.942Zm5.206-.1a0.489,0.489,0,0,1,.3.1,4.4,4.4,0,0,0-.2.69h-0.1V9.843Zm-3.8.2c0,0.861,0,1.375,0,2.365h0.1v-0.1c0.078-.189.1,0.2,0.1,0.2h-0.1v0.1h0.3c-0.066-.354-0.2-0.277-0.1-0.493a3.613,3.613,0,0,1,.5-0.887h0.1v0.2a2.669,2.669,0,0,0-.5.788h0.6a1.394,1.394,0,0,0,.1.493c0.193-.06.662-0.075,0.7-0.1a0.5,0.5,0,0,0,.1-0.3c-0.3-.464-0.163-1.345-0.5-1.774v0.1a2.077,2.077,0,0,0-.4.591h-0.1v-0.2a1.376,1.376,0,0,0,.5-0.985h-0.9a5.791,5.791,0,0,1-.1,1.675h-0.1V10.139h0.1v-0.1h-0.4Zm1.7,0.1a6.144,6.144,0,0,0,.5,2.562h0.1V12.6a0.354,0.354,0,0,0,.1-0.2C43.343,11.8,43.49,10.73,43.054,10.139Zm1.9,0.2a0.354,0.354,0,0,1,.1.2h-0.1v-0.2Zm-4.806.3a0.354,0.354,0,0,1,.1.2h-0.1v-0.2Zm0.8,0.1a0.354,0.354,0,0,1,.1.2h-0.1v-0.2Zm-0.7.1a3.169,3.169,0,0,1,.8,1.478h-0.1v-0.1A3.537,3.537,0,0,1,40.25,10.829Zm1.6,1.478V12.7h0.1c0.189-.085.074-0.047,0.3,0V12.307h-0.4Zm-0.4.493a0.387,0.387,0,0,0,.3.2V12.8h-0.3Zm0.4,0c0.019,0.607,0,1.414,0,2.266a6.9,6.9,0,0,0,1.9-.1,4.135,4.135,0,0,0-.4-0.69c0.247-.128.068,0.042,0.2-0.2-0.212-.324-0.175-0.877-0.4-1.182V12.8h-1.3Zm1.9,1.774c0.325,0.082.153-.048,0.3,0.2-0.247.128-.068-0.042-0.2,0.2h0.1v0.1a1.34,1.34,0,0,0,.4-0.394,4.117,4.117,0,0,1-.5-1.872,0.489,0.489,0,0,0-.3.1,0.842,0.842,0,0,0-.1.493A1.825,1.825,0,0,1,43.755,14.573Zm-2.4.493a1.288,1.288,0,0,0,.4-0.1,3.965,3.965,0,0,1,0-1.774l-0.3-.1V13h-0.1v2.069ZM43.554,13a0.354,0.354,0,0,1,.1.2h-0.1V13Zm-1.6.3a3.07,3.07,0,0,1,1.3.887h0.1v0.1h-0.2C42.827,13.873,42.259,13.721,41.952,13.292Zm1.9,0.887a0.353,0.353,0,0,1,.1.2h-0.1v-0.2Zm-3,.985a6.406,6.406,0,0,0,.3,2.759V15.164h-0.3Zm0.5,0v2.759h0.1a0.6,0.6,0,0,1,.5-0.493v0.1a1.213,1.213,0,0,0-.4.394h1.5a5.192,5.192,0,0,0,.1-1.478,0.488,0.488,0,0,1,.3.1,1.538,1.538,0,0,0-.2,1.281h0.2c0.333,0.16.207-.182,0.5-0.1a0.326,0.326,0,0,0,.2.2c0-.312-0.17-0.133.1-0.3v0.3c0.325-.082.153,0.048,0.3-0.2-0.392-.209-0.244-1.644-0.8-1.971a3.512,3.512,0,0,1-1.4,1.281v-0.1h0.1c0.389-.571,1.154-0.9,1.4-1.577h-0.1v-0.2h-1.9a8.116,8.116,0,0,1-.1,2.267h-0.1V15.164h-0.3Zm2.6,0v0.2h0.1v-0.2h-0.1Zm0.4,0a1.146,1.146,0,0,0-.3.591c0.464,0.594.243,1.864,0.9,2.069a1.779,1.779,0,0,0,.1-0.591C44.657,16.7,44.773,15.686,44.355,15.164Zm0.7,1.38a2.617,2.617,0,0,0,.4,1.281,2.17,2.17,0,0,0,1,.1l0.1-.69a0.689,0.689,0,0,1-.5-0.3l1.2-.1v0.394a1.457,1.457,0,0,1-.5-0.1v0.493a1.858,1.858,0,0,0,.6.1c0.368-.232,1.041-0.151,1.4-0.394a1.536,1.536,0,0,0,.1-0.788h-3.8Zm-1.4.3a0.354,0.354,0,0,1,.1.2h-0.1v-0.2Zm0.3,0.394a0.353,0.353,0,0,1,.1.2h-0.1v-0.2Zm2.2,0.1c0.035,0.03.2,0.052,0.1,0.2C46.146,17.481,45.946,17.354,46.158,17.332Zm-2.6.1a0.353,0.353,0,0,1,.1.2h-0.1v-0.2Zm-2.6.591a2.3,2.3,0,0,0,.2,1.183A1.377,1.377,0,0,0,40.951,18.022Zm0.4,2.365h0.6l1.2-2.267h-1v0.3h-0.7a0.472,0.472,0,0,0-.1-0.3v2.267Zm2.4-2.267c0.172,0.087.128,0.088,0.3,0h-0.3Zm-0.5,2.464a0.472,0.472,0,0,0-.1-0.3,0.878,0.878,0,0,1-.5.1v-0.3a3.478,3.478,0,0,0,1-.1,0.829,0.829,0,0,0,.2-0.69,4.041,4.041,0,0,0-.7-0.985,8.244,8.244,0,0,1-1.1,2.069A5.453,5.453,0,0,0,43.254,20.584Zm0.5-2.168v0.2h0.1v-0.2h-0.1Zm-0.3.788a0.654,0.654,0,0,1,0,.69V19.2Zm-0.1,1.084v0.3h0.1v-0.1l0.3,0.1v-0.2A1.285,1.285,0,0,1,43.354,20.288Zm-2,.2V20.88a0.489,0.489,0,0,0,.3-0.1,1.138,1.138,0,0,0,.2-0.3h-0.5Zm0.6,0c0.172,0.087.128,0.088,0.3,0h-0.3Zm-24.731.1v0.394h0.2A0.389,0.389,0,0,0,17.222,20.584Zm0.3,0v0.394h0.9v0.2a0.888,0.888,0,0,0-.9.2,1.315,1.315,0,0,1,.7.1h-0.1a1.1,1.1,0,0,1-.6.1v0.394a0.85,0.85,0,0,0,.5-0.1,0.345,0.345,0,0,1-.2-0.1h0.2a2.53,2.53,0,0,0,.3-0.394l0.3,0.1v-0.1a0.345,0.345,0,0,1-.2-0.1,1.285,1.285,0,0,0,.1-0.69h-1Zm1.2,0a3.1,3.1,0,0,0,.2,1.084h0.5v-0.1a0.654,0.654,0,0,1-.4-0.1h0.1a1.018,1.018,0,0,0,.5-0.3h-0.2a2,2,0,0,0-.4-0.1h-0.1v-0.1a0.85,0.85,0,0,0,.5-0.1,0.354,0.354,0,0,0,.1-0.2A2.548,2.548,0,0,0,18.723,20.584Zm2.1,0.394h1.7v0.2h-1.5a0.363,0.363,0,0,0-.2-0.1v0.3a3.733,3.733,0,0,1,1.6.2,3.95,3.95,0,0,0-1.6.1h1.4c0.083,0.32-.049.151,0.2,0.3,0.174-.268,0-0.04.4,0V21.569h-0.2a0.336,0.336,0,0,1-.1.2v-0.3a1.08,1.08,0,0,0,.3-0.788,7.1,7.1,0,0,0-1.9-.1v0.1h-0.1v0.3Zm2.8,0.788h5.607a1.232,1.232,0,0,1,.1-0.394,1.435,1.435,0,0,0,.4.1V21.077c-0.14-.02.04,0.081-0.1,0.1-0.078.189-.1-0.2-0.1-0.2a0.7,0.7,0,0,0,.2-0.394h-2.4v0.2c-0.138.135-.1-0.174-0.1-0.2h-1.4c-0.877.005-1.462,0.006-2.7,0v0.2A1.315,1.315,0,0,1,23.63,21.766Zm6.208-1.183,0.1,0.3a0.345,0.345,0,0,0,.2-0.1,0.354,0.354,0,0,0,.1-0.2A0.788,0.788,0,0,1,29.837,20.584Zm1.5,0v0.3h0.6l0.1-.3h-0.7Zm1.4,0.3v-0.3h-0.6v0.2h0.1A0.878,0.878,0,0,0,32.741,20.88Zm1.1-.3a1.473,1.473,0,0,1,.2.394h0.1v-0.1a0.5,0.5,0,0,0,.1-0.3A0.813,0.813,0,0,1,33.842,20.584Zm2.4,0v0.3h1.9v-0.3h-1.9Zm-5.807.1c0.021,0.138-.082-0.04-0.1.1-0.193.076,0.2,0.1,0.2,0.1A0.336,0.336,0,0,0,30.438,20.683Zm3.2,0.1a0.363,0.363,0,0,0,.2.1A0.363,0.363,0,0,0,33.642,20.781Zm-10.113.1h5.807v0.2H23.529v-0.2Zm17.822,0.1v0.394h0.1v-0.2a0.354,0.354,0,0,0,.1-0.2h-0.2Zm-18.223.493a0.489,0.489,0,0,0,.3-0.1,0.768,0.768,0,0,0-.3-0.3v0.394Zm6.708,0a0.6,0.6,0,0,1,.4,0,0.5,0.5,0,0,1,.1.3h-0.1c-0.147-.249-0.044-0.152-0.4-0.2v0.394c0.733-.007,1.292,0,2.2,0v-0.3a1.1,1.1,0,0,1-.7-0.1v0.3h-0.8a2.791,2.791,0,0,1,0-.788h-0.4a0.472,0.472,0,0,1-.1.3c-0.083-.32.049-0.151-0.2-0.3v0.394Zm1.5-.394v0.3h0.4v-0.3h-0.4Zm0.6,0-0.1.3h0.2A0.472,0.472,0,0,0,31.94,21.077Zm0.8,0.3v-0.3c-0.5.016-.516-0.077-0.6,0.3h0.2C32.515,21.1,32.343,21.332,32.741,21.372Zm0.9-.3v0.788a1.852,1.852,0,0,0-.9.1c0.707,0,.908-0.012,1.5,0V21.569a1.285,1.285,0,0,0-.4.1v-0.3h0.1v-0.1a0.84,0.84,0,0,0,.3.2V21.077h-0.1C33.989,21.313,34.117,21.111,33.642,21.077Zm2.6,0v0.3h1.9v-0.3h-1.9Zm5.407,0a0.363,0.363,0,0,0,.2.1A0.363,0.363,0,0,0,41.652,21.077Zm-24.431.1v0.2h0.2v-0.2h-0.2Zm3.3,0c0.166,0.11.107,0.174,0.2,0h-0.2Zm8.911,0a0.354,0.354,0,0,1,.1.2h-0.1v-0.2Zm-23.93.1a7.554,7.554,0,0,0,.4,1.478,7.927,7.927,0,0,1,2.4-.985v-0.1A11.538,11.538,0,0,0,5.507,21.274Zm36.045,0v0.2h0.1v-0.2h-0.1Zm-17.822.1h5.407v0.2C28.17,21.586,24.1,21.765,23.73,21.372Zm12.516,0.1v0.394h1.9V21.471h-1.9Zm4.806,0a0.63,0.63,0,0,0,.1.394A0.629,0.629,0,0,0,41.051,21.471Zm37.747,0a0.5,0.5,0,0,1,.1.3H78.8v-0.3Zm-61.577.1v0.394h0.1v-0.1a0.5,0.5,0,0,0,.1-0.3h-0.2Zm1.1,0a0.363,0.363,0,0,0,.2.1A0.363,0.363,0,0,0,18.323,21.569Zm4.806,0v0.2c0.358-.041.252,0.046,0.4-0.2h-0.4Zm6.208,0v0.2c0.358-.041.252,0.046,0.4-0.2h-0.4Zm2.8,0.1v0.3h0.5l0.1-.394h-0.1C32.495,21.816,32.571,21.675,32.14,21.668Zm2.8-.1a0.354,0.354,0,0,1,.1.2h-0.1v-0.2Zm6.408,0v0.394h0.1v-0.1a0.5,0.5,0,0,0,.1-0.3h-0.2Zm-7.61.1a0.354,0.354,0,0,1,.1.2h-0.1v-0.2Zm-15.019.1v0.2h0.2v-0.2h-0.2Zm0.3,0v0.2h0.1A0.336,0.336,0,0,0,19.024,21.766Zm2,0a0.476,0.476,0,0,0,.5.2v-0.2h-0.5Zm0.6,0v0.2h0.5v-0.2h-0.5Zm57.071,0a0.5,0.5,0,0,1,.1.3H78.7v-0.3ZM34.844,24.131h0.7V22.161a8.329,8.329,0,0,1,2.2-.1,7.554,7.554,0,0,1,.1,2.069,8.313,8.313,0,0,1,1.4,0v0.1h-1.4v0.394a3.318,3.318,0,0,1,1.2,0v0.1a4.418,4.418,0,0,0-1.3.1v0.1h1.3a0.566,0.566,0,0,1,.4,0v-0.2c-0.317,0-.135.167-0.3-0.1a1.932,1.932,0,0,1,.4-0.591v0.1h0.1a3.027,3.027,0,0,0-.1.788h1.1v-0.2h-0.9v-0.1a3.588,3.588,0,0,0,1.1-.1v-0.3h-1.1v-0.1h0.1a1.391,1.391,0,0,1,.9,0V22.456a0.489,0.489,0,0,0,.3-0.1,0.657,0.657,0,0,0,.1-0.394H34.944a1.035,1.035,0,0,0-.2.493A4.1,4.1,0,0,1,34.844,24.131ZM23.93,22.161c0,0.906.181,1.268,0.2,2.069a7.867,7.867,0,0,1,1.1,0,1.325,1.325,0,0,1,.2.69h3.1v-0.1c-0.745.016-2.384,0.232-2.9-.1h2.9a0.472,0.472,0,0,0-.1-0.3c-0.542-.342-2.233-0.112-3-0.1v-0.1h3.1V22.161a1.852,1.852,0,0,0,.9-0.1H24.931a4.827,4.827,0,0,0-1.8.1h0.8Zm54.668-.1a0.353,0.353,0,0,1,.1.2H78.6v-0.2Zm-44.155.2v1.872h0.2V22.259h-0.2Zm44.055,0a0.5,0.5,0,0,1,.1.3H78.5v-0.3Zm-16.921.3v0.69h-0.4a1.956,1.956,0,0,0-.1-0.69h0.5Zm16.821,0a0.5,0.5,0,0,1,.1.3H78.4v-0.3Zm-69.587.3-0.1.591h-0.1V22.949h-0.1v-0.1h0.3Zm0.8,0h0.3l-0.1.591h-0.2V22.85Zm55.77,0.69a0.488,0.488,0,0,0,.3-0.1,1.229,1.229,0,0,0-.3-0.394V23.54Zm7.309-.2v0.394l3.1-.2v-0.3Zm-3.1.2v0.3a3.152,3.152,0,0,0,1-.2l-0.1.2h0.1c0.51-.378.943-0.115,2-0.1V23.343Zm-2.5.1v0.3c0.841,0.006,1.7-.046,2.4-0.1v-0.3Zm10.613-.1a4.611,4.611,0,0,1-1.8.1v0.2h0.2a8.2,8.2,0,0,1,1.9-.2v-0.1H77.7Zm0.4,0a1.41,1.41,0,0,0,0,.788,0.489,0.489,0,0,0-.3.1h0.1a0.515,0.515,0,0,0,.3.1v-0.1h0.1a1.42,1.42,0,0,1,0-.887H78.1Zm-12.716.493h0.4v-0.3l-0.4-.1v0.394Zm-1-.3h-1.2v0.1c0.25,0.164.1,0.017,0,.3h1.1v-0.1h0.1v-0.3Zm0.1,0v0.3h0.8v-0.3h-0.8Zm9.712,0c-0.33.2-1.174,0-1.5,0.2a11.12,11.12,0,0,0,3.1-.2h-1.6Zm-1.9.1c-0.21.125-.793,0.068-1,0.2h1.2v-0.1h0.1v-0.1h-0.3Zm4.806,0a0.845,0.845,0,0,0,.8,0H77.1Zm-75.394.1a0.49,0.49,0,0,1,.3.1A0.488,0.488,0,0,1,1.7,23.934Zm68.586,0c-0.141.087-.561,0.107-0.7,0.2h0.8A0.336,0.336,0,0,0,70.288,23.934Zm4.806,0c-0.593.35-1.853-.059-2.4,0.3,0.768,0.008,2.573.069,3.1-.3h-0.7Zm0.8,0a1.208,1.208,0,0,0,1,0h-1Zm2.6,0a0.66,0.66,0,0,1,.2.493H78.6v-0.2A0.5,0.5,0,0,1,78.5,23.934Zm-10.313.1c-0.234.139-.87,0.054-1.1,0.2a7.824,7.824,0,0,0,2.4-.2h-1.3Zm10.513,0h0.2C78.78,24.191,78.857,24.153,78.7,24.033Zm-72.891.1c0.172,0.087.128,0.088,0.3,0h-0.3Zm59.875,0c-0.077.067-.223,0.129-0.3,0.2h0.5v-0.1Zm5.707,0a0.363,0.363,0,0,1-.2.1v0.1h0.4c0.086-.064.315-0.132,0.4-0.2h-0.6Zm1,0a0.363,0.363,0,0,0,.2.1A0.363,0.363,0,0,0,72.391,24.131Zm3.7,0a0.363,0.363,0,0,1-.2.1v0.1h0.2c0.1-.068.4-0.127,0.5-0.2H76.1Zm1.3,0a0.3,0.3,0,0,0,.4,0H77.4Zm-15.92.1v0.2h0.1A0.336,0.336,0,0,0,61.477,24.23Zm1.9,0v0.2a5.783,5.783,0,0,0,1-.2h-1Zm1.1,0c0.172,0.087.128,0.088,0.3,0h-0.3Zm5.207,0a0.363,0.363,0,0,0,.2.1A0.363,0.363,0,0,0,69.687,24.23Zm4.606,0a0.3,0.3,0,0,0,.4,0h-0.4Zm0.8,0c0.172,0.087.128,0.088,0.3,0h-0.3Zm-71.99.1v0.394h1.2V24.329H3.1ZM15.72,25.314h0.4v0.493h0.3V25.314h0.4v0.493h0.5V24.821h-1.9v-0.2a0.5,0.5,0,0,1-.1-0.3c-0.749-.029-1.673-0.107-2,0.3h-0.1v0.1h1.6v0.2a1.052,1.052,0,0,1,.1.591,11.949,11.949,0,0,0-1.2.3,19.5,19.5,0,0,1,2,0V25.314Zm-0.2-.591h1.8V24.329h-1.9v0.1A0.5,0.5,0,0,1,15.519,24.723Zm7.509-.394v0.394h0.1v-0.1C23.176,24.414,23.224,24.522,23.029,24.329Zm1.1,0v0.394a0.849,0.849,0,0,1,.5.1,0.848,0.848,0,0,0-.5.1h0.7a1.352,1.352,0,0,1,.3-0.591h-1Zm10.313,0c0.083,0.32-.049.151,0.2,0.3v-0.3h-0.2Zm1.1,0.3v-0.3h-0.8C34.888,24.646,34.863,24.636,35.544,24.624Zm31.64-.3a0.364,0.364,0,0,1-.2.1v0.1h0.3c0.476-.283,1.63.092,2.1-0.2h-2.2Zm5.707,0a0.3,0.3,0,0,0,.4,0h-0.4Zm0.8,0a0.364,0.364,0,0,0,.2.1A0.363,0.363,0,0,0,73.692,24.329Zm3.5,0v0.2a0.848,0.848,0,0,0,.5-0.1Zm-71.389.1v0.3l0.6-.1v-0.1Zm0.9,0.3a0.489,0.489,0,0,0,.3-0.1,1.927,1.927,0,0,0-.3-0.2v0.3Zm58.673-.3a0.407,0.407,0,0,0,.5,0h-0.5Zm9.912,0a0.362,0.362,0,0,1-.2.1v0.1h0.3A0.336,0.336,0,0,0,75.294,24.427Zm0.6,0v0.2a1.59,1.59,0,0,1,.9,0v-0.2h-0.9Zm-14.218.1v0.2h0.1v-0.1h0.1A0.363,0.363,0,0,0,61.677,24.526Zm0.5,0c0.172,0.087.128,0.088,0.3,0h-0.3Zm1.2,0a0.363,0.363,0,0,0,.2.1A0.363,0.363,0,0,0,63.379,24.526Zm10.313,0v0.2h0.2c0.086-.064.315-0.132,0.4-0.2h-0.6Zm0.8,0a0.363,0.363,0,0,0,.2.1A0.363,0.363,0,0,0,74.493,24.526Zm-7.209.1a1.021,1.021,0,0,0,.9,0h-0.9Zm-42.053.1v0.2h0.1v-0.2h-0.1Zm10.213,0c-0.12.077-.482,0.118-0.6,0.2C35.373,24.959,35.677,25.035,35.444,24.723Zm0.3,0v0.2h0.5v-0.2h-0.5Zm0.6,0v0.2h1.3v-0.2h-1.3Zm27.334,0c0.172,0.087.128,0.088,0.3,0h-0.3Zm0.4,0c0.172,0.087.128,0.088,0.3,0h-0.3Zm1.3,0c0.172,0.087.128,0.088,0.3,0h-0.3Zm5.607,0a0.363,0.363,0,0,0,.2.1A0.363,0.363,0,0,0,70.989,24.723Zm-58.673.2v0.887h0.8a5.731,5.731,0,0,1,0-.985Zm3-.1a0.854,0.854,0,0,1,.2.788h-0.2V24.821Zm9.612,0a0.363,0.363,0,0,0,.2.1A0.363,0.363,0,0,0,24.931,24.821Zm3.9,0a0.537,0.537,0,0,0,.6,0h-0.6Zm38.448,0v0.2h1.2v-0.2h-0.9C67.43,24.891,67.571,24.834,67.284,24.821Zm1.3,0v0.2h0.7v-0.1h0.1v-0.1h-0.8ZM2.5,24.92v0.3c0.325-.082.153,0.048,0.3-0.2H2.9v-0.1H2.5Zm2.1,0a0.432,0.432,0,0,0,.3.3v-0.2h0.1v-0.1h-0.4Zm2.1,0.887a2.1,2.1,0,0,1,.6,0v-0.2h-0.1v0.1c-0.078.19-.1-0.2-0.1-0.2a0.659,0.659,0,0,0,.2-0.493,13.043,13.043,0,0,0-1.5-.1v0.1a0.354,0.354,0,0,1,.1.2,2.657,2.657,0,0,1,1.1,0v0.2C6.7,25.533,6.782,25.449,6.708,25.807Zm5.307-.887a1.1,1.1,0,0,1-.6.1v0.2h0.8A0.375,0.375,0,0,0,12.015,24.92Zm53.367,0c0.172,0.087.128,0.088,0.3,0h-0.3Zm-57.872.1c0.083,0.32-.049.151,0.2,0.3v-0.3h-0.2Zm0.9,0.788V25.412H8.11v-0.2c0.325-.082.153,0.048,0.3-0.2H7.81v0.2a0.675,0.675,0,0,1,0,.493A1.858,1.858,0,0,0,8.411,25.807Zm1.8-.788a1.2,1.2,0,0,0,1,.2v-0.2h-1Zm51.464,0c0.166,0.11.107,0.174,0.2,0h-0.2Zm1.7,0v0.2C63.54,25.1,63.5,25.174,63.379,25.018Zm0.3,0v0.2h0.3v-0.2h-0.3Zm0.4,0v0.2l0.3-.1v-0.1h-0.3Zm0.4,0a0.845,0.845,0,0,0,.8,0h-0.8Zm-46.758.1a0.393,0.393,0,0,1,.2.394h-0.1v-0.2A0.354,0.354,0,0,1,17.722,25.117Zm45.056,0a0.363,0.363,0,0,0,.2.1A0.363,0.363,0,0,0,62.779,25.117Zm-52.866.2v0.493h0.2V25.314h-0.2Zm0.4,0v0.394a2.939,2.939,0,0,0,.9.1V25.314h-0.9Zm1.1,0v0.493h0.8V25.314h-0.8Zm-8.611.1c-0.325.082-.153-0.048-0.3,0.2H2.7a0.282,0.282,0,0,0,.1.1v-0.3Zm1.8,0a1.314,1.314,0,0,1-.2.394h0.3a0.336,0.336,0,0,1,.1-0.2v-0.2h-0.2Zm1.4,0v0.2h0.1A0.336,0.336,0,0,0,6.008,25.412Zm0.2,0.394h0.4v-0.3l-0.4-.1v0.394Zm1.3-.394v0.394h0.2V25.412h-0.2Zm1,0v0.394h0.2V25.412h-0.2Zm9.412,0.1a0.354,0.354,0,0,1,.1.2h-0.1v-0.2Zm61.477,0a0.363,0.363,0,0,0,.2.1A0.363,0.363,0,0,0,79.4,25.511Zm-76.5.1v0.2H3A0.336,0.336,0,0,0,2.9,25.61Zm0.5,0.1a0.537,0.537,0,0,0,.6,0H3.4Zm0.7,0a0.363,0.363,0,0,0,.2.1A0.363,0.363,0,0,0,4.105,25.708Zm9.111,0a0.3,0.3,0,0,0,.4,0h-0.4Zm-11.514.1a0.354,0.354,0,0,1,.1.2H1.7v-0.2Zm8.511,4.533-4.506.1c-0.1.4-.289,0.592-0.4,0.985h0.3l4.606-.69V30.339Zm0.7,0a0.511,0.511,0,0,0,.5.3c0.354-.211,1.064-0.076,1.4-0.3h-1.9Z" transform="translate(-0.031 0.5)"/>
</svg>
