<svg xmlns="http://www.w3.org/2000/svg" width="80" height="40" viewBox="0 0 80 40">
  <defs>
    <style>
      .cls-1 {
        fill: #fff;
        fill-rule: evenodd;
      }
    </style>
  </defs>
  <path id="Color_Fill_1" data-name="Color Fill 1" class="cls-1" d="M58.373,12.033c0.616-.031,2.3-0.094,2.3-0.094v1.5c-0.616.2-1.074,0.145-1.053,1.033a5.163,5.163,0,0,1,.191,2.442,4.746,4.746,0,0,1,1.435.188v-0.47h0.383a2.506,2.506,0,0,0,.67.657,0.474,0.474,0,0,0-.1.282h-0.67v0.564a7.772,7.772,0,0,1,1.435,0h0.1a1.792,1.792,0,0,1-.383.845h1.053a0.586,0.586,0,0,0-.191-0.47l0.67-.094a0.449,0.449,0,0,1,.1-0.282v0.094c0.065,0.073.126,0.21,0.191,0.282,0.165-.083.122-0.084,0.287,0a1,1,0,0,1,.1.564,0.468,0.468,0,0,0-.287.094H64.5v0.282a12.957,12.957,0,0,1,2.2.188V20.2H66.6V20.3a1.026,1.026,0,0,0-.574.094,1.97,1.97,0,0,0-.1.939H66.7V20.392a1.788,1.788,0,0,0,.67-0.376,9.835,9.835,0,0,0,2.2.376v0.282h2.2v0.094h-0.1a0.819,0.819,0,0,0-.383.282H72.44a0.6,0.6,0,0,1,.1-0.376v0.282a36.867,36.867,0,0,0,7.177-.47V18.044h0.1v2.818H80V21.05c-0.01.124-.242,0.674-0.287,0.845L79.33,24.713a16.723,16.723,0,0,0-.67,2.818c-21.562-.126-44.37.093-66.411,0.094a0.369,0.369,0,0,1-.287.376c-0.313-.541-1.174-0.375-2.01-0.376-1.641,0-2.826-.3-4.5-0.282a2.809,2.809,0,0,1-.1.657H5.167V27.906a1.887,1.887,0,0,1-.287-0.564,2.58,2.58,0,0,1-.574-0.188,0.707,0.707,0,0,1,0,.658,6.512,6.512,0,0,1-2.392.094,3.877,3.877,0,0,1-.191-1.691,0.337,0.337,0,0,0,.1-0.188c-0.519.011-.631,0-0.766-0.376a3.736,3.736,0,0,0,.287-0.939C1.9,23.228,1.5,23.324,1.148,21.9H0.766a0.8,0.8,0,0,1-.574.094A3.462,3.462,0,0,1,0,21.425l1.053-.188c-0.012-.035-0.038-0.3.1-0.188v0.188l0.766,2.63h0.1a5.914,5.914,0,0,1,0-.845h0.1V23.3c1.12,0.014,2.389.091,3.636,0.094v0.564a3.768,3.768,0,0,1,1.531,0A1.4,1.4,0,0,1,7.464,23.4h0.1v0.094h0.1a1.451,1.451,0,0,0-.1.47H7.943a0.269,0.269,0,0,1,.1-0.094,1.986,1.986,0,0,1-.1-0.657,7.974,7.974,0,0,1-2.2-.188l2.2-.094V22.646c1.158-.075,2.929-1.247,2.871.845h1.34a1.977,1.977,0,0,1,.287-0.939c0.286-.17,1.04.007,1.244-0.282H12.536V22.177a4.8,4.8,0,0,0,1.531-.094,5.745,5.745,0,0,0,.861-0.939,27.18,27.18,0,0,0,2.488-2.536l1.244-1.127,2.392-2.536A17.387,17.387,0,0,0,23.445,12.5a2.1,2.1,0,0,0,.67.094,10.185,10.185,0,0,1,.1-1.127,0.336,0.336,0,0,1,.1.188,3.828,3.828,0,0,1,.1.939h0.574c0.064,0.346,2.4.2,3.158,0.188a6.113,6.113,0,0,0,2.2.094L35.5,12.972a35.868,35.868,0,0,0,7.081-.282h1.627c0.811-.182,1.97-0.1,2.775-0.282H48.23c1.267-.285,2.876-0.183,4.115-0.47,1.525-.353,4.591-0.031,5.455-0.657a1.631,1.631,0,0,0,.1.751h0.1A2.087,2.087,0,0,1,58.182,11a4.408,4.408,0,0,0,.191,1.691V12.033Zm-19.9,4.321c-0.038,2.044.706,3.178,0.957,4.79H40V20.392h0.1V20.3a2.636,2.636,0,0,1,1.34.094,2.316,2.316,0,0,0-.1.751c1.063,0.005,1.4.147,2.105,0.188V20.3h0.478a0.775,0.775,0,0,1,.1-0.47V20.3H44.5v1.033h0.479c0.213-1.622,1.126-2.931.478-4.79l0.287,0.094c0.008-.344-0.179-0.223.191-0.376a1.392,1.392,0,0,1,1.34,0,4.911,4.911,0,0,0,.287,2.348h-0.1a0.319,0.319,0,0,0-.1-0.188v0.47c0.527,0.863-.052,2.858.478,3.1a0.494,0.494,0,0,0,.287.094c0.04-.366.395-1.325,0.383-1.409-0.1-.687-0.824-1.28-0.957-2.066h0.1V18.8c0.446,0.5.541,1.857,1.34,1.972a0.409,0.409,0,0,1,.383,0c0.1-.76.563-1.48,0.67-2.16l-0.287-2.254h0.1a1.028,1.028,0,0,0,.191.282c-0.018-.646.284-0.613,1.148-0.564,0.148-.066.013-0.012,0.287,0-0.01,1.017.28,3.416,0.861,4.133a5.315,5.315,0,0,0,2.01.094,2.86,2.86,0,0,1,.957-0.188v0.658a7.982,7.982,0,0,1-2.105.094,1.288,1.288,0,0,1-.67.094V21.05c0.282,0.143.212,0.321,0.478,0.47,0.032-.425-0.012-0.393.383-0.47a1.8,1.8,0,0,0,.861.094c-0.035.277-.192,0.194,0.1,0.376V21.425a0.474,0.474,0,0,0,.1-0.282,4.336,4.336,0,0,0,1.435.188,6.847,6.847,0,0,1-.191,1.033h0.191V22.177c0.593-.844-0.288-2.129-0.67-2.442a0.336,0.336,0,0,0,.1-0.188h0.1v0.094c0.95,0.655.415,1.612,0.765,2.16V21.707a0.953,0.953,0,0,0,.1-0.657c0.157-.191.112,0.066,0.191-0.188-0.241-.137-0.175-0.118-0.191-0.47h0.479c0.072-.582.32-0.906,0.383-1.5-0.552-.023-0.556.019-0.957,0a2.314,2.314,0,0,1-.1-0.751c0.535-.5.359-1.415,0.574-2.254a20.017,20.017,0,0,0,.766-4.226l-9.952,1.033c-2.016.429-4.185-.035-6.124,0.376H38.565a23.47,23.47,0,0,1-4.21.094l-9.378-.188V13.16h0.191a4.882,4.882,0,0,0,1.435.658c1.247,0.534,2.408,1.22,3.732,1.784a12.746,12.746,0,0,0,2.105,1.127,0.625,0.625,0,0,0,.383-0.282,6.043,6.043,0,0,1,1.34,0,2.206,2.206,0,0,0,.1,1.033A9.649,9.649,0,0,0,36.938,18.8V17.762a4.174,4.174,0,0,1-.191-1.033h0.191a0.449,0.449,0,0,0,.1.282,1.041,1.041,0,0,1,0-.47A2.92,2.92,0,0,1,38.469,16.354Zm18.086,1.878h0.287V17.95h0.191a0.743,0.743,0,0,1,.574,0,8.025,8.025,0,0,1,.1-0.939,4.864,4.864,0,0,1,.383-0.376V12.785a8.4,8.4,0,0,1-.383-0.845h-0.1Zm-38.947,2.16h0.478c0.079-.3-0.047-0.143.191-0.282v0.282h0.479v0.47h0.1V20.768a3.5,3.5,0,0,0,.383-0.845h0.191c0.172,0.4.24,0.152,0.574,0.376a3.787,3.787,0,0,1,.287.47c0.134-.02-0.039.077,0.1,0.094,0.074,0.181.1-.188,0.1-0.188a3.317,3.317,0,0,0,.287-0.657,0.468,0.468,0,0,1-.287-0.094,0.813,0.813,0,0,0,.478-0.094,1.619,1.619,0,0,1,.287-0.751,1.915,1.915,0,0,1,.383-0.094,7.506,7.506,0,0,0,.957-2.066c0.418-.934.968-1.963,1.435-2.912a1.494,1.494,0,0,1-.478-0.376h0.191c0.181,0.148.2,0.178,0.383,0.094a0.336,0.336,0,0,0,.1-0.188,1.461,1.461,0,0,1-.1-0.751,1.1,1.1,0,0,0-.478,0l-0.574.376v0.094h0.1a0.908,0.908,0,0,0,.383.282V13.63H23.349c-0.125-.123-0.287-0.307-0.383-0.188a12.262,12.262,0,0,0-2.584,2.724l-0.957.845L16.077,20.58h0.191a0.632,0.632,0,0,1,.479-0.188,1.084,1.084,0,0,1,.191.282,0.468,0.468,0,0,0-.287.094h0.191c0.127,0.064.523,0.018,0.766,0.094v-0.47Zm40.67-6.2h0.574V14.1c-0.32-.349-0.361-1.078-0.574-1.221,0.036,0.287-.087,1.429-0.1,2.348h0.1V14.193Zm-33.493-.939a0.6,0.6,0,0,0,.1.376A0.6,0.6,0,0,0,24.785,13.254Zm1.531,9.111V22.083h5.072V21.989c-0.466-.143-1.216-0.13-1.627-0.282V21.613h0.1c0.238-.144.534-0.13,0.861-0.282V21.238H30.239c-0.266-.163-0.8-0.111-1.053-0.282a1.711,1.711,0,0,1-.1-0.845,1.525,1.525,0,0,1,.479-0.094l0.1,0.282a0.474,0.474,0,0,1,.1.282,1.857,1.857,0,0,0,1.148-.282H30.718c-0.134-.083-0.537-0.1-0.67-0.188L32.153,20.2V20.3a0.363,0.363,0,0,0-.191.282h0.191V20.486a4.108,4.108,0,0,0,.478-2.348c-2.523-1.5-4.918-3.361-7.56-4.7V15.32a7.333,7.333,0,0,1,.1,1.691c0.367,1.651.335,3.61,0.67,5.26h0.1v0.094h0.383Zm32.44-8.923v0.094h-0.1c-0.184.073,0.191,0.094,0.191,0.094A0.32,0.32,0,0,0,58.756,13.442Zm1.053,0v0.094h-0.1c-0.184.073,0.191,0.094,0.191,0.094A0.32,0.32,0,0,0,59.809,13.442Zm-1.34.376a0.336,0.336,0,0,1,.1.188h-0.1V13.818Zm-32.153.094a6.191,6.191,0,0,0,1.818,1.127c1.456,0.9,2.91,1.937,4.4,2.818V17.011a0.336,0.336,0,0,1-.1-0.188,11.532,11.532,0,0,1-1.914-.939C29.041,15.243,27.726,14.591,26.316,13.912Zm32.919,0.094v0.188h0.1V14.006h-0.1Zm-37.32,7.42a1.774,1.774,0,0,1,.861.094H21.723v1.033l1.244-.094V22.083h0.191v0.376a4.06,4.06,0,0,1,1.531.188,17.694,17.694,0,0,0,0-3.757,1.371,1.371,0,0,1-.766-0.376h0.67L24.211,14.1h-0.1v0.188a6.259,6.259,0,0,0-.765,1.691c-0.351.786-.843,1.663-1.244,2.442a3.255,3.255,0,0,0-.479,1.409c0.1,0.065.383,0.121,0.479,0.188a0.468,0.468,0,0,0-.287.094A2.476,2.476,0,0,1,21.914,21.425Zm37.895-6.668a0.336,0.336,0,0,1,.1.188h-0.1V14.757Zm-1.531.751a1.692,1.692,0,0,0-.1.563h0.1A0.963,0.963,0,0,0,58.278,15.508Zm0.191,1.127c0.4-.021.448-0.007,0.957,0V15.6a0.33,0.33,0,0,1-.191-0.094,0.873,0.873,0,0,0-.574.376,2.513,2.513,0,0,0-.383,1.6h0.191v-0.47A0.514,0.514,0,0,1,58.469,16.635ZM59.9,15.79a0.336,0.336,0,0,1,.1.188H59.9V15.79Zm-9.282.094h0.191v0.094A0.33,0.33,0,0,1,50.622,15.884Zm-4.88,1.033a1.434,1.434,0,0,0,.1.751A1.432,1.432,0,0,0,45.742,16.917Zm4.306,0a1.434,1.434,0,0,0,.1.751A1.432,1.432,0,0,0,50.048,16.917ZM32.632,17.2a0.449,0.449,0,0,0,.1.282V17.2h-0.1Zm4.4,0.188a0.975,0.975,0,0,0,.1.564A0.975,0.975,0,0,0,37.034,17.387Zm-12.153.282a0.448,0.448,0,0,0,.1.282V17.669h-0.1Zm7.847,0a0.448,0.448,0,0,0,.1.282V17.669h-0.1Zm1.531,0.094c-0.014,1.469.943,1.48,2.488,1.409l0.1-.188A18.591,18.591,0,0,0,34.258,17.762Zm11.579,0.094a0.449,0.449,0,0,0,.1.282V17.856h-0.1Zm-22.105.094h0.191v0.094A0.33,0.33,0,0,1,23.732,17.95Zm0.478,0H24.4v0.094A0.33,0.33,0,0,1,24.211,17.95Zm12.823,0.094v0.188h0.1V18.044h-0.1Zm-13.3.094h0.191v0.094A0.33,0.33,0,0,1,23.732,18.138Zm9,0a0.448,0.448,0,0,0,.1.282V18.138h-0.1Zm-9,.282h0.191v0.094A0.33,0.33,0,0,1,23.732,18.42Zm26.411,0a0.775,0.775,0,0,0,.1.47A0.773,0.773,0,0,0,50.144,18.42ZM24.4,18.608a0.347,0.347,0,0,0,.191.094A0.347,0.347,0,0,0,24.4,18.608Zm9.952,0.564a0.468,0.468,0,0,0,.287-0.094A0.666,0.666,0,0,1,34.45,18.7h-0.1v0.47ZM61.531,18.8v0.845h0.574c0.117-.321.346-0.515,0.478-0.845H61.531Zm-15.6.094a0.6,0.6,0,0,0,.1.376A0.6,0.6,0,0,0,45.933,18.89ZM57.7,19.829V18.89h-0.1v0.094a2.431,2.431,0,0,0-.287.751A0.654,0.654,0,0,0,57.7,19.829Zm0.1-.939a1.941,1.941,0,0,0,.1.939A1.94,1.94,0,0,0,57.8,18.89Zm-7.655,3.1c0.029-.863.273-2.254-0.191-2.912-0.029.334-.509,1.615-0.478,1.691l0.287,0.188a3.476,3.476,0,0,1,.191.845c-0.311.078-.146-0.046-0.287,0.188h0.478Zm1.627-2.912a3.985,3.985,0,0,0,.191,1.221h0.191A2.693,2.693,0,0,0,51.77,19.077ZM38.852,21.144h0.383a3.778,3.778,0,0,0-.574-1.972v0.282A4.213,4.213,0,0,1,38.852,21.144ZM57.99,19.171v0.188h0.1V19.171h-0.1Zm-23.636.094a29.042,29.042,0,0,1,.287,3.006h0.287V21.238a1.118,1.118,0,0,1,.67-0.188L35.311,20.2h0.1V20.3a0.667,0.667,0,0,1,.191.376,2.1,2.1,0,0,1,.478-0.376,0.6,0.6,0,0,0,.1.376l0.479-1.409H34.833A1.064,1.064,0,0,1,34.354,19.265Zm1.818,1.785,0.574,0.094v0.376H36.459a4.308,4.308,0,0,0,.383.845h0.1v-2.63a1.008,1.008,0,0,0,0-.47h-0.1v0.094A3.92,3.92,0,0,0,36.172,21.05Zm9.378-1.221h0.287a1.568,1.568,0,0,0-.1-0.564h-0.1Zm4.689-.564a1.2,1.2,0,0,0,.1.657A1.2,1.2,0,0,0,50.239,19.265Zm-29.569.094h0.191v0.094A0.33,0.33,0,0,1,20.67,19.359Zm11.962,0-0.287,1.315h0.1V20.58c0.217,0.038.1,0.086,0.287,0a0.625,0.625,0,0,0,.1-0.376C32.714,20.03,32.744,19.532,32.632,19.359Zm2.2,0a1.5,1.5,0,0,1,.478.845h-0.1V20.111A1.635,1.635,0,0,1,34.833,19.359Zm11.1,0a0.6,0.6,0,0,0,.1.376A0.6,0.6,0,0,0,45.933,19.359Zm-20.67.094a5.432,5.432,0,0,0,.287,2.536A8.893,8.893,0,0,0,25.263,19.453Zm-4.785.094a0.337,0.337,0,0,1,.1.188h-0.1V19.547Zm1.34,0a0.337,0.337,0,0,1,.1.188h-0.1V19.547Zm21.914,0.094c0.107,0.156.169,0.1,0,.188V19.641Zm14.258,0v0.188h0.1V19.641h-0.1Zm-20.766.094a0.774,0.774,0,0,0,.1.47A0.775,0.775,0,0,0,37.225,19.735Zm-4.306.188a0.449,0.449,0,0,0,.1.282V19.923h-0.1Zm24.5,0c0.079,0.3-.047.144,0.191,0.282a0.733,0.733,0,0,0,.287-0.282A1.266,1.266,0,0,1,57.416,19.923Zm-20.383.094V20.2h0.1V20.017h-0.1Zm8.421,0-0.191.939h0.1V21.05l0.287-.094V20.017H45.455Zm11.675,0V20.2h0.1V20.017h-0.1Zm-6.794.094a1.434,1.434,0,0,0,.1.751A1.432,1.432,0,0,0,50.335,20.111Zm5.837,0a0.473,0.473,0,0,1,.1.282h-0.1V20.111Zm-34.163.282a0.337,0.337,0,0,1,.1.188h-0.1V20.392Zm9.091,0a0.347,0.347,0,0,0,.191.094A0.348,0.348,0,0,0,31.1,20.392Zm5.933,0v0.845h0.191V21.144C37.129,20.991,37.133,20.544,37.034,20.392Zm-21.053.282a0.347,0.347,0,0,0,.191.094A0.347,0.347,0,0,0,15.981,20.674Zm6.124,0a0.338,0.338,0,0,1,.1.188h-0.1V20.674Zm15.215,0.094a0.774,0.774,0,0,0,.1.47A0.775,0.775,0,0,0,37.321,20.768Zm19.522,0c0.079,0.3-.047.143,0.191,0.282V20.862ZM22.2,20.862a0.473,0.473,0,0,1,.1.282H22.2V20.862Zm47.368,0a2.187,2.187,0,0,1-.1.751h0.191c0.517,0.287.535-.141,0.67-0.188a1.614,1.614,0,0,1,.478.188V21.332a1.232,1.232,0,0,1,.383.094V20.862H69.569Zm-19.235.094v1.033h0.1V21.9A1.024,1.024,0,0,0,50.335,20.956Zm1.627,0v0.188H52.44V20.956H51.962Zm27.273,0c-0.082.061-.3,0.126-0.383,0.188,0.373,0,.431.047,0.574-0.188H79.234Zm-36.268.094h0.191v0.094A0.33,0.33,0,0,1,42.967,21.05Zm1.722,0H44.88v0.094A0.33,0.33,0,0,1,44.689,21.05Zm9.569,0H54.45v0.094A0.33,0.33,0,0,1,54.258,21.05Zm0.765,0a0.336,0.336,0,0,1,.1.188h-0.1V21.05Zm0.191,0h0.191v0.094A0.33,0.33,0,0,1,55.215,21.05Zm22.871,0a0.346,0.346,0,0,1-.191.094v0.094h0.287A0.319,0.319,0,0,0,78.086,21.05Zm0.287,0a0.283,0.283,0,0,0,.383,0H78.373ZM22.3,21.144a0.336,0.336,0,0,1,.1.188H22.3V21.144Zm10.335,0a1.451,1.451,0,0,0-.1.47h0.191A0.775,0.775,0,0,0,32.632,21.144Zm24.115,0a4.988,4.988,0,0,0-.383,1.221h0.1a1.545,1.545,0,0,0,.479-1.127Zm20.1,0v0.188a3.793,3.793,0,0,0,.67-0.188h-0.67Zm-34.067.094H41.627a0.843,0.843,0,0,1-.287.282v0.094h0.1a1.336,1.336,0,0,0,1.34.47V21.989A1.09,1.09,0,0,1,42.775,21.238Zm9.187,0a1.172,1.172,0,0,0,.1.376h0.191V21.238H51.962Zm23.923,0a0.283,0.283,0,0,0,.383,0H75.885Zm0.478,0a0.284,0.284,0,0,0,.383,0H76.364ZM15.311,22.271v0.376h0.1V22.74a1.651,1.651,0,0,1,.574.094V22.74c-0.006-.075.094-0.84,0.1-1.315H15.885a1.054,1.054,0,0,0-.574-0.094l-1.053,1.127h0.287A1.415,1.415,0,0,1,15.311,22.271Zm16.842-.939a0.45,0.45,0,0,0,.1.282V21.332h-0.1ZM21.34,22.365h0.287a3.578,3.578,0,0,0-.1-0.845H21.053c-0.148.337-.219,0.236-0.287,0.47a1.137,1.137,0,0,0,.287.564V22.365a1.748,1.748,0,0,0,.287-0.47h0.1v0.188A0.474,0.474,0,0,0,21.34,22.365Zm13.684-.845V21.9h0.191V21.8a0.474,0.474,0,0,0,.1-0.282H35.024Zm32.536,0v0.188h0.191c0.082-.061.3-0.126,0.383-0.188H67.56Zm-46.124.188a0.336,0.336,0,0,1,.1.188h-0.1V21.707Zm-0.479.188a0.363,0.363,0,0,1,.191.282h-0.1V22.083A0.338,0.338,0,0,1,20.957,21.9Zm27.273,0v0.188h0.287V21.9H48.23Zm-15.6.094a0.347,0.347,0,0,0,.191.094A0.347,0.347,0,0,0,32.632,21.989Zm0.287,0a0.347,0.347,0,0,0,.191.094A0.347,0.347,0,0,0,32.919,21.989Zm8.612,0a0.347,0.347,0,0,0,.191.094A0.347,0.347,0,0,0,41.531,21.989ZM26.6,22.177c0.159,0.1.1,0.166,0.191,0H26.6Zm1.435,0c0.111,0.118.2,0.308,0.287,0.188h0.1V22.271h-0.1V22.177H28.038Zm3.349,0a1.108,1.108,0,0,0,.287.188V22.177H31.388Zm1.531,0v0.188h0.1A0.32,0.32,0,0,0,32.919,22.177Zm-0.383.094a0.346,0.346,0,0,0,.191.094A0.348,0.348,0,0,0,32.536,22.271Zm21.531,0v0.188h0.191V22.271H54.067Zm0.287,0v0.188a7.166,7.166,0,0,0,1.244-.188H54.354Zm-2.2.094a0.514,0.514,0,0,0,.574,0H52.153Zm1.531,0c0.165,0.083.122,0.084,0.287,0H53.684Zm-5.646.094a0.347,0.347,0,0,1-.191.094v0.094h0.287A0.32,0.32,0,0,0,48.038,22.459Zm0.191,0v0.188l0.191-.094v0.094a0.336,0.336,0,0,0,.1-0.188H48.23Zm-35.5.282v0.188h0.1V22.74h-0.1Zm8.421,0v0.282h0.383V22.74H21.148Zm0.574,0v0.282h0.67V22.928l-0.287-.094A0.655,0.655,0,0,0,21.723,22.74Zm1.723,0.094v0.188h0.287V22.834H23.445Zm4.976,0v0.188H28.9V22.834H28.612v0.094Zm2.3,0a0.284,0.284,0,0,0,.383,0H30.718Zm0.861,0a0.81,0.81,0,0,0,.766,0H31.579Zm1.053,0a0.347,0.347,0,0,0,.191.094A0.346,0.346,0,0,0,32.632,22.834Zm-4.5.094a0.347,0.347,0,0,0,.191.094A0.348,0.348,0,0,0,28.134,22.928Zm-26.029.845v0.188l0.287-.094V23.774H2.105Zm0.383,0a1.97,1.97,0,0,0,1.34,0H2.488Zm1.627,0v0.188H4.306V23.774H4.115Zm0.478,0v0.188a2.328,2.328,0,0,0,1.053-.094A4.882,4.882,0,0,1,4.593,23.774Zm4.785,0a1.542,1.542,0,0,0,1.148.188V23.774H9.378Zm1.244,0.094v0.188H11.1V23.867H10.622Zm0.861,0.094c0.165,0.083.122,0.083,0.287,0H11.483Zm0.383,0c0.165,0.083.122,0.083,0.287,0H11.866Z" transform="translate(0 0.5)"/>
</svg>
