<svg xmlns="http://www.w3.org/2000/svg" width="79.906" height="40" viewBox="0 0 79.906 40">
  <defs>
    <style>
      .cls-1 {
        fill: #fff;
        fill-rule: evenodd;
      }
    </style>
  </defs>
  <path id="Color_Fill_1" data-name="Color Fill 1" class="cls-1" d="M2.336,33.613L0,33.516a17.863,17.863,0,0,1,.584-4.941l-0.292.194a7.723,7.723,0,0,0,0-3H0.487a7.48,7.48,0,0,0,.779,3.294l0.195-.194c2.486-1.22,5.889-6.169,8.175-8.526l3.212-3.391,0.681-4.941H13.82c-0.033.97-.279,3.158,0.292,3.779,1.929,2.479,8.369,1.336,12.166,1.163,8.444-.386,16.6-1.714,22.579-4.747l3.8-2.325c0.8-.621,1.3-1.76,2.238-2.228V6h0.1l0.1,0.1c0.079,2.629,3.4,4,5.158,5.329L74.063,22.18c1.234,0.94,4.269,4,5.547,4.166V26.152l0.195-1.938h0.1c0.032,2.946.035,7.942-1.849,9.2-1.177.788-3.858,0.485-5.742,0.484H10.706c-1.626-.459-3.161-1.229-5.645-0.581L4.964,34l-0.292-.1a0.976,0.976,0,0,0-.681-0.872H2.336v0.581ZM54.793,7.938l-1.849,2.713,1.947,4.166h0.1C55.019,12.783,55.645,9.941,54.793,7.938Zm0.584,0,3.8,8.429L69.684,21.6l1.265-1.453-0.292-.387Zm-0.195.1,0.779,4.747a0.64,0.64,0,0,1,.487.194c-0.035.123-.186,1.776-0.195,1.938l2.725,1.356Zm-0.876.291-1.557,1.744,0.1,0.387,0.292-.194ZM52.36,10.166c-5.477,5.563-23.275,7.307-34.744,7.363l-0.292.678,0.1,0.194,5.45,3.875,4.477,0.678c-0.019-.4-0.116-0.409.195-0.678a0.461,0.461,0,0,1,.584.1,0.525,0.525,0,0,1,.1.678l7.591,0.194a8.855,8.855,0,0,1,1.362-.291l-0.1-.872c0.566-.114,1.711-0.339,1.654.291,6.1-1.222,10.5-7.581,14.015-11.626l-0.1-.291A0.413,0.413,0,0,0,52.36,10.166Zm3.017,0.387v0Zm-14.6,12.208-0.1-.775h0.195a1.759,1.759,0,0,1,1.46,0c-0.033-.563-0.073-0.767.292-0.969l0.1,1.647,4.282,0.1-0.1-.969a4.831,4.831,0,0,1,1.752,0v0.581l0.195-.1L54.891,15.2c-0.173-.971-1.741-4.24-2.238-4.166-1.567,3.785-9.543,10.378-13.917,11.529v0.194h2.044Zm14.7-10.367v0.387h0.1Zm0.195,0.1v0Zm-42.141.291-0.584,3.972,0.779-.678Zm42.433,0.194,0.195,0.1Zm-0.292,1.841,0.1,0.678Zm5.45,7.654v2.035L61.606,24.8c0.068,0.244-.31,1.446-0.292,2.131l2.433-.1v-0.1C62,22.976,60.35,16.387,56.253,15.107a17.36,17.36,0,0,0,1.071,5.038c0.295,0.739-.3,1.346,0,2.422h0.1l0.389-.194A0.672,0.672,0,0,1,58,21.7a1.22,1.22,0,0,0,.487.291l-0.1-.388c0.92-.062,1.15-0.25,1.557.194l-0.292.775h0.487l-0.1-.581h0.292c0.192,0.275.143,0.191,0.1,0.581ZM55.864,15.2l0.1,0.484Zm-2.53,11.142v0.872h0.681a22.362,22.362,0,0,1,.195-3.391h0.1a0.844,0.844,0,0,1,.487.291c-0.063.341-.136,0.338,0.1,0.581a3.053,3.053,0,0,1,.681-1.163q-0.243-4.117-.487-8.235l-0.195.1-6.229,7.267v0.1c0.864-.029,1.941-0.211,2.044,0h0.1L50.608,21.7l0.1-.1H52.36c-0.006,1.564.948,3.057,0.389,4.747h0.584ZM56.058,15.3v0Zm-0.1.581,0.292,4.263C56.627,19.632,56.44,16.895,55.961,15.882Zm0.195,0.1v0Zm-42.044.194L14.5,19.564l1.752,0.872L17.129,18.4Zm-0.487.1-0.779,1.066,0.292,0.388L14.112,18.4A10.476,10.476,0,0,0,13.625,16.27Zm1.071,0.1,2.53,1.841,0.292-.775Zm41.07,0,0.1,0.581Zm0.487,0.291v0Zm3.114,0L63.942,26.83H65.11l4.38-5.135Zm-46.715.678-1.46,1.647,1.557-.1V18.6Zm43.7,0v0ZM14.112,19.37H13.625c0.1-.9-0.223-0.836-0.584-1.647h-0.1L13.528,24.6l0.487-.1V23.633L14.209,21.4c-0.522-.087-0.337.078-0.487-0.388C14.4,20.728,14.169,20.216,14.112,19.37Zm41.752-1.55,0.1,0.581Zm0.584,0.194v0Zm-43.017.1a1.36,1.36,0,0,0,.681.581Zm3.8,0.291L16.35,20.533l5.937,1.55Zm-4.38.194,0.1,0.581Zm43.7,0.1v0Zm-42.628.291,0.195,0.291Zm41.849,0v0Zm0.195,0.291,0.1,0.581Zm-43.114.872-1.947.1V19.37L2.433,28.478l3.5-.194a1.559,1.559,0,0,1-1.071-.194,6.275,6.275,0,0,1,2.822.291V27.606a1.136,1.136,0,0,1-.973-1.453l0.1-.194c1.976-.054,5.113-0.692,6.521.1Zm43.8-.678v0Zm-43.7.194,0.1,0.581ZM14.5,19.952l0.292,3.682V23.439l1.362-2.906Zm56.545,0.194L69.781,21.6l0.1,0.194,8.954,4.457Zm-15.182.194,0.1,0.484Zm0.389,0.194v0.291l0.487-.1A0.871,0.871,0,0,1,56.253,20.533Zm-40,.1c-0.672,2.1-1.527,3.067-1.46,6.007,3.182-1.207,5.728-2.521,9.732-2.907l-0.1-.194-1.849-1.259C20.449,21.516,18.16,21.436,16.253,20.63Zm-3.212.291,0.1,0.484Zm1.071,0-0.1.291a0.347,0.347,0,0,0,.195-0.291h-0.1Zm41.947,0v0Zm0.195,0c0.221,0.2.1,0.161,0.389,0.1Zm0.779,0,0.292,0.194A0.349,0.349,0,0,0,57.032,20.92Zm-0.779.291,0.389,0.1Zm0.876,0,0.195,0.1Zm-0.876.291,0.195,1.066h0.1C56.585,21.992,56.623,21.708,56.253,21.5Zm0.487,0,0.1,1.066h0.1Zm0.195,0v0ZM58.589,21.7l0.292,0.194Zm0.389,0v0.581a1.926,1.926,0,0,1,.487.291A1,1,0,0,0,58.978,21.7Zm10.608,0.1-3.893,4.651h0.389l0.292-.1-0.1-.387a2.979,2.979,0,0,1,1.07.484c1.381,0.513,5.476,0,7.3,0l0.292-.775a3.335,3.335,0,0,0,3.309.484Zm-28.321.1,0.195,0.1Zm14.7,0v0.388h0.1Zm-42.822.1,0.1,0.484Zm45.45,0v0.387l0.292-.1Zm-2.433.194v0Zm0.876,0v0Zm1.168,0.1c0.163,0.309-.049.11,0.292,0.194Zm-15.864.1v0Zm-19.173.1a3.8,3.8,0,0,0,3.7,1.163,0.926,0.926,0,0,1,.195-0.581Zm32.8,0v0.387h0.1Zm-41.752.1,0.1,0.969Zm26.569,0.291H38.735v0.1L38.929,24.6l1.849-.1V22.858Zm1.947,0v0.581h1.557L44.477,24.6c0.76-.258,1.314-0.036,2.628,0l-0.1-1.744H42.725Zm6.91,0.969V24.6l0.292-.194a4.686,4.686,0,0,0,.779,2.228l-0.292-3.779c-0.746-.061-1.725-0.2-1.655.388v0.775Zm1.071-.969v0Zm-37.47.194,0.1,0.484Zm13.723,0.194,0.1,0.194C27.015,23.35,27.134,23.374,26.959,23.246Zm0.292,0c0.215,0.208.189,0.192,0.487,0.1Zm0.681,0a0.45,0.45,0,0,0,.584.1Zm0.681,0,0.1,0.194C28.669,23.35,28.789,23.374,28.613,23.246Zm8.272,1.259a1.245,1.245,0,0,0-.195-1.066c-1.73-.654-5.743.335-7.786-0.194v0.387l1.363,0.1,4.963,0.775-0.1-.388h0.973l0.1-.581h0.1a1.787,1.787,0,0,1,0,.969h0.584Zm0.195-1.259v0Zm13.625,0.1v0Zm-23.747.194,0.195,0.1Zm0.292,0,0.389,0.1Zm0.779,0h0Zm0.584,0,0.195,0.1Zm14.209,0.1c0.089,0.354,0,.2.195,0.388Zm-0.389.1,0.1,0.484Zm-15.377.1a1.8,1.8,0,0,0-1.557.387l1.752,1.163Zm1.557,0a1.6,1.6,0,0,0,1.46,0h-1.46Zm1.752,0,0.292,0.387L35.231,24.7Zm-6.813.1-1.07.194L22.676,24.6l1.947-.581v-0.1H23.552Zm4.088,0L27.932,24.6c0.478-.144.342-0.03,0.389-0.581H28.127Zm-5.45.1-7.3,2.81v0.1c1.056-.161,6.661-1.757,7.1-2.325Zm2.725,0-2.141.678,0.1,0.775H24.72c-0.018-.428.375-1.039,0.389-1.453H24.915Zm3.5,0,0.1,1.55,1.849-.1-0.389-1.259Zm8.759,0,0.1,0.484Zm6.131,0c0.083,0.707.211,0.347,0.584,0.484V24.021H43.309Zm7.494,0L50.9,24.7Zm-37.47.1,0.1,0.485Zm22.093,0.1a0.838,0.838,0,0,0,.681.1Zm-5.158.1,0.292,1.066,0.487-.1Zm-4.769.1c0.277,0.706.274,1.1,1.363,1.066V25.28Zm1.947,0v0Zm8.662,1.259-0.973-.1V24.99l-4.282-.581c0.628,0.9.57,2.058,0.876,2.907,0.8-.249,1.719.117,2.238-0.291,0-.1-0.071-0.094.292-0.291l-0.292-.1h0.779l-0.292.1a1.288,1.288,0,0,0,1.168.581,0.755,0.755,0,0,1,.487-0.678V25.668Zm7.2-1.066v0.291H43.5C43.381,24.6,43.505,24.777,43.309,24.6Zm0.292,0c0.131,0.26.226,0.283,0.292,0H43.6Zm-18.394.1-0.1.484H25.5L25.4,24.7H25.207Zm-11.582.1,0.1,1.26h0.1l0.195-1.26H13.625Zm0.681,0.1v1.163l0.195-.194Zm7.883,0-0.1.388h0.389V24.893H22.19Zm0.389,0v0Zm28.224,0v0Zm-35.426,3.1V27.315c1.144,0.106,2.868.777,3.406-.388-0.3,0-.136.093-0.389-0.1H19.27c-0.209.873,1.518,0.69,2.238,0.678A8.118,8.118,0,0,1,21.9,24.99l-6.91,2.228c0.245,0.644.307,1.177,1.168,1.259a5.1,5.1,0,0,0,1.46-.291Zm27.932-3,0.1,0.194,0.1-.194H43.309Zm0.292,0L43.8,25.28l0.1-.291H43.6Zm0.681,0v0Zm0.292,0,0.1,0.291h0.487l-0.195-.291H44.574Zm1.265,0-0.1.291C45.945,25.059,45.855,25.244,45.839,24.99Zm0.292,0c0.181,0.5.2,0.085,0.487,0.291C46.418,24.976,46.572,25.08,46.131,24.99Zm0.584,0a1.055,1.055,0,0,0,.487.291V24.99H46.715Zm-33.285.194,0.1,0.484ZM25.3,25.28l0.292,0.1Zm5.742,0.1-0.1.581a1.8,1.8,0,0,1-1.557.678v0.291h1.752Zm12.652,0a0.349,0.349,0,0,0,.292.194Zm0.973,0h0Zm1.071,0,0.1,0.194,0.1-.194H45.742Zm0.389,0,0.1,0.194,0.1-.194H46.131Zm0.389,0,0.195,0.1Zm3.5,0.194,0.1,0.775h0.195Zm0.876,0L51,26.152Zm-14.6.1,0.292,1.647,0.487-.194-0.1-1.453H36.3Zm0.973,0,0.1,0.969Zm1.654,0,0.195,1.55c0.159-.507.428-0.439,1.071-0.388v0.194l0.195-.1,0.195,0.678V27.412l0.389-1.066a2.133,2.133,0,0,0-.487-0.484Zm15.767,0v0.388h0.1Zm20.341,0.291-0.195.484h0.292l-0.1-.388,0.389,0.291Zm-65.3.1a1.377,1.377,0,0,0-.292.291h0.1Zm-2.822.1v0Zm0.195,0v0.291H7.786V26.152H7.1Zm0.779,0v0.291a4.05,4.05,0,0,0,1.46-.194v-0.1H7.883Zm4.282,0,0.1,0.291a0.347,0.347,0,0,0,.195-0.291H12.165Zm0.487,0v0.291h0.487V26.152H12.652Zm0.584,0,0.1,0.194C13.292,26.256,13.411,26.281,13.236,26.152Zm1.071,0v0.291l0.1-.291h-0.1Zm7.786,0v0.291l0.195-.291H22.093Zm-12.068.194,0.292,0.1Zm1.557,0,0.292,0.1Zm39.319,0v0Zm27.543,0L76.5,26.54v0.1l2.336-.194Zm-28.224.1,0.389,0.775h0.1v-0.1A0.989,0.989,0,0,0,50.219,26.443Zm25.693,0L76.2,26.637Zm3.7,0v0Zm-72.7.1v0Zm0.973,0V26.83l0.1-.291h-0.1Zm0.195,0V26.83l0.195-.1Zm0.487,0,0.1,0.291c0.406-.143.316,0.083,0.487-0.291H8.564Zm1.363,0c0.264,0.259.212,0.183,0.487,0H9.927Zm1.168,0v0Zm0.389,0c0.227,0.207.064,0.181,0.292,0.1h0.195v-0.1H11.484Zm2.822,0V26.83l0.1-.291h-0.1Zm7.689,0,0.292,0.387,1.46-.1Zm32.312,0-0.1.291L54.5,27.024l0.1-.387Zm19.173,0-0.389.1v0.1l0.779-.1Zm0.487,0c0.265,0.263.311,0.2,0.584,0H73.966Zm0.681,0h0Zm0.876,0,0.292,0.1Zm-25.5.1v0Zm21.022,0a5.207,5.207,0,0,0-1.46.291,5.184,5.184,0,0,0,1.752-.291H71.046Zm0.487,0a0.912,0.912,0,0,0,1.071,0H71.533Zm6.813,0-1.557.194,0.195,0.1c0.533-.044,1.651.148,1.849-0.291H78.346Zm0.681,0,0.1,0.484V26.927C79.172,26.653,79.289,26.8,79.027,26.637Zm-52.555.1,0.1,0.194C26.528,26.837,26.647,26.862,26.472,26.734Zm0.584,0-0.1.194h0.195Zm27.64,0-0.1.484h0.195Zm10.608,0,0.195,0.1Zm2.92,0a3.159,3.159,0,0,0-.973.291l1.557-.194Zm0.779,0c0.251,0.277.126,0.152,0.389,0H69Zm6.715,0,0.389,0.194Zm0.487,0L76.4,26.927A0.369,0.369,0,0,0,76.2,26.734Zm0.292,0a0.37,0.37,0,0,0,.195.194Zm-52.457.1,0.389,0.1Zm0.876,0h0Zm2.822,0h0Zm0.973,0h0Zm12.263,0a1.3,1.3,0,0,1-.292.775h0.389Zm31.63,0-0.195.1v0.194h0.1L72.7,26.83H72.6Zm0.389,0c0.374,0.494.413,0,.876,0.388C73.718,26.726,73.607,26.8,72.993,26.83Zm0.973,0c0.221,0.2.1,0.161,0.389,0.1Zm0.584,0-0.1.194,0.973-.1Zm0.973,0,0.195,0.194Zm3.893,0-0.1.194,0.389,0.1V26.83H79.416Zm-72.506.1v0Zm0.973,0v0Zm0.195,0a0.37,0.37,0,0,0,.195.194Zm0.584,0a0.584,0.584,0,0,0,.584.194A0.745,0.745,0,0,0,8.662,26.927Zm0.973,0a0.349,0.349,0,0,0,.292.194Zm1.654,0,0.389,0.194Zm52.263,0-2.141.194v0.1c0.568-.01,2.091.03,2.433-0.291H63.552Zm0.487,0a0.594,0.594,0,0,0,.876,0H64.039Zm1.071,0h0Zm5.645,0-1.168.194v0.1h1.265Zm-16.642.1a0.349,0.349,0,0,0,.292.194Zm14.307,0-1.362.194v0.1c0.8,0.041,1.593.107,1.752-.291H68.419Zm0.973,0-0.1.194h0.195Zm7.883,0h0Zm1.168,0c0.222,0.148.118,0.177,0.389,0.1Zm-56.35.1,0.292,0.1-0.195.291,0.292-.1c0.5,0.108.918-.037,1.265,0.1V27.121H22.093Zm3.893,0c0.245,0.158.016,0.1,0.292,0H25.985Zm0.487,0,0.195,0.1Zm2.92,0,0.195,0.1Zm0.389,0h0Zm0.973,0,0.195,0.1Zm35.134,0-1.071.291a2.692,2.692,0,0,0,1.46-.194Zm0.584,0v0Zm7.591,0,0.195,0.1Zm0.292,0,0.292,0.1Zm0.487,0h0Zm0.779,0h0Zm2.433,0,0.195,0.1Zm-63.26.1L14.988,27.7Zm48.37,0-0.292.1v0.194h0.681l0.292-.194Zm0.973,0,0.195,0.194,0.389-.194H64.136Zm8.272,0,0.195,0.1Zm-42.53.1h0Zm31.533,0a0.867,0.867,0,0,0,.973.1Zm2.53,0c0.123,0.293,0,.116.195,0.291Zm5.256,0,0.292,0.1Zm1.168,0,0.292,0.1Zm-3.212.1,0.195,0.1Zm-2.53.1,0.195,0.1Zm-3.212.1L61.7,27.7Zm-20.925.1v0.291l0.1-.291h-0.1Zm0.195,0v0.291l0.195-.1Zm-25.693.1a0.649,0.649,0,0,0,.195.678A0.844,0.844,0,0,0,14.988,27.8Zm21.508,0v0Zm0.195,0c0.2,0.2.1,0.132,0.487,0.194A0.665,0.665,0,0,0,36.691,27.8Zm-3.6.1-0.195.1a1.409,1.409,0,0,0,1.265-.1H33.09Zm-3.7.1h0Zm1.557,0,0.195,0.1Zm9.538,0.1v0Zm0.195,0v0Zm0.292,0v0Zm-21.9.1a2.258,2.258,0,0,0,1.46.194A2.508,2.508,0,0,0,19.075,28.187Zm2.92,0,0.389,0.194C22.193,28.181,22.348,28.28,22,28.187Zm1.654,0v0Zm6.618,0,0.292,0.1Zm2.628,0a1.791,1.791,0,0,0,1.265,0H32.9Zm3.8,0,0.389,0.1Zm-36.01.1,0.1,1.163,0.292-.194v-0.1Zm22.482,0,0.389,0.1Zm-7.883.1,0.195,0.1Zm-10.608.1a1.19,1.19,0,0,0,1.168.291V28.478H4.672Zm2.433,0v0.291l0.584-.194v-0.1H7.1Zm10.414,0v0Zm1.46,0,0.292,0.1Zm0.389,0h0Zm2.628,0v0.194C22.09,28.5,22.084,28.65,22,28.478Zm-18.783.1-0.292.1v0.1l0.779-.1Zm0.584,0v0Zm0.292,0c0.221,0.2.1,0.161,0.389,0.1Zm10.511,0v0Zm0.681,0,0.195,0.1Zm0.292,0h0Zm-13.236.1c0.246,0.213.042,0.105,0.487,0.1v-0.1H2.336Zm13.431,0.1,0.292,0.1Zm1.071,0,0.389,0.1Zm-12.165.1a4.261,4.261,0,0,0,1.168.194A1.584,1.584,0,0,0,4.672,28.865Zm2.822,0,0.195,0.1Zm-3.406.1h0Zm-1.752.1-0.779.388c0.549-.049,1.89.032,2.141-0.388H2.336Zm1.46,0v0Zm3.7,0,0.195,0.1Zm-6.131.1V29.35C1.458,29.18,1.451,29.328,1.363,29.156Zm3.212,0,0.292,0.1Zm0.487,0,0.195,0.1Zm-3.99.194,0.195,0.1Z"/>
</svg>
