<svg xmlns="http://www.w3.org/2000/svg" width="80" height="40" viewBox="0 0 80 40">
  <defs>
    <style>
      .cls-1 {
        fill: #fff;
        fill-rule: evenodd;
      }
    </style>
  </defs>
  <path id="Color_Fill_1" data-name="Color Fill 1" class="cls-1" d="M52.647,18.1a8.528,8.528,0,0,1,.1-2.3c0.546,0.159,2.167.16,2.255,1.1a0.769,0.769,0,0,0-.392,0V17c0.318,0.083.15-.049,0.294,0.2H54.608v0.3a1.636,1.636,0,0,0,.588-0.1v0.2a1.709,1.709,0,0,0-.98.3V18a2.3,2.3,0,0,1,1.078.1,2.3,2.3,0,0,0-1.078.1h0.1v0.1a3.359,3.359,0,0,1,.882,0h0.1v0.1a0.468,0.468,0,0,0-.294.1h0.1a2.056,2.056,0,0,0,.98.1V16.3a0.6,0.6,0,0,0,.2-0.2h0.1v0.1l0.2,0.1a3.277,3.277,0,0,0-.1,1.6,0.494,0.494,0,0,1-.294.1v0.5a1.492,1.492,0,0,1,1.373,1.2h-0.1V19.2a6.3,6.3,0,0,0-1.275-.4,3.659,3.659,0,0,0-.1,1.5h0.784a0.49,0.49,0,0,1,.1-0.3,5.124,5.124,0,0,1,.2.7H56.078a5.763,5.763,0,0,0,.1,1.1,0.494,0.494,0,0,0,.294.1v0.6h0.1a0.669,0.669,0,0,1,.49,0,0.706,0.706,0,0,1,.1-0.7v0.7a0.691,0.691,0,0,0,.784-0.3c-0.169-.3-0.006-0.321.1-0.6h-0.1V21.5a1.363,1.363,0,0,1-.392.1V21.4a0.522,0.522,0,0,0,.49-0.2,0.825,0.825,0,0,0,.784.2,0.489,0.489,0,0,1-.1.3,0.558,0.558,0,0,0-.588-0.2v0.6a0.468,0.468,0,0,1,.294.1c-0.351.042-.247-0.047-0.392,0.2h0.588a3.036,3.036,0,0,0,0-.6,4.809,4.809,0,0,1,1.078-.2,0.379,0.379,0,0,0,.294.2,8.316,8.316,0,0,1,.392-1.9V19.8a1.636,1.636,0,0,1,.588.1c0.041-.358-0.046-0.252.2-0.4v0.1a0.517,0.517,0,0,0-.1.3,4.214,4.214,0,0,1,2.451.5l0.2,0.3h2.059v0.2H63.627a3.353,3.353,0,0,0-.1,1,0.568,0.568,0,0,0,0,.4h0.49v1h0.588V23.1a2.3,2.3,0,0,0,.294-1.6,1.939,1.939,0,0,1,.686.1c0.041-.358-0.046-0.252.2-0.4v0.1a0.517,0.517,0,0,0-.1.3c1.682-.013,1.76.469,2.941,0.8,0.551,0.155,1.356-.169,1.765.1a6.727,6.727,0,0,0-2.255.2,0.6,0.6,0,0,0,0,.4,13.956,13.956,0,0,0,3.137,0l8.431-.5a3.961,3.961,0,0,1,.1-1.6c0.016,0.964.15,1.837,0.2,2.6a9.046,9.046,0,0,1-.588,2l-0.98,5.7h-9.51v0.2a0.4,0.4,0,0,1,.2.4,3.163,3.163,0,0,1-.98.1,2.1,2.1,0,0,1,.2-0.7H62.157c-0.486.306-2.84,0.1-3.627,0.1h-45.1a0.841,0.841,0,0,0-1.078-.6c-0.426.269-1.28-.027-1.863,0.1a17.38,17.38,0,0,1-3.627.3,0.717,0.717,0,0,1-.294.8,2.105,2.105,0,0,1-.2-0.8,0.636,0.636,0,0,1-.49-0.2c0.57-.076.532-0.348,0.49-1h0.2a2.086,2.086,0,0,0,.392.9,0.835,0.835,0,0,1,.49-0.1V29.7l-2.157-.2v0.1h0.1a1.044,1.044,0,0,0,.588.1L5.588,31.4H3.431v-2c0.392,0.014,1.444.235,1.471,0.2A0.363,0.363,0,0,0,5,29.4l-2.059-.3A14.758,14.758,0,0,0,2.353,27a10.455,10.455,0,0,1-.1-1.6h0.2c0.433,0.277.529-.088,0.784-0.2,0.142,0.414,1.058,0,1.569,0L9.51,25.3a1,1,0,0,1,.2-0.6,0.457,0.457,0,0,1-.49-0.2h2.255a4.51,4.51,0,0,1,2.255-.4,3.777,3.777,0,0,0,.294.7,1.627,1.627,0,0,0-1.177.2,0.968,0.968,0,0,1,.588,0v0.3h0.49V24.9h0.1V25c0.119,0.177,0,.175.1,0.3a2.9,2.9,0,0,0,1.275.1,2.191,2.191,0,0,0,.1-0.7,1.913,1.913,0,0,1-.98-1.1h0.1a6.344,6.344,0,0,0,1.471.5,0.655,0.655,0,0,1,.1-0.4,1.461,1.461,0,0,0,.1.5,12.162,12.162,0,0,0,1.765.2V24.2h0.1V24.1H17.843a1.79,1.79,0,0,1,.294-1H16.765c-0.252-.156-0.926-0.04-1.177-0.2,2.037,0.025,2.657-.391,4.412-0.4,0.176,0.317.4,0.451,0.2,0.6a4.055,4.055,0,0,1-.98.1v0.2h0.1c0.075-.212.205-0.143,0.294,0,0.438,0.278-.007.438,0.49,0.6a3.891,3.891,0,0,1,.294-0.7v0.1a1.888,1.888,0,0,1,.1.9h-0.2a0.5,0.5,0,0,0-.49,0v0.1h2.059a5.371,5.371,0,0,0-.1-1.5V22.8a0.769,0.769,0,0,1-.392,0V22.3h-0.49V22.1h0.588v0.6h0.294a1.58,1.58,0,0,1,.1-0.8v0.8h0.784V22.6c-0.245-.392.167-0.557,0-0.8V21.7a1.765,1.765,0,0,1-.588.1V21.6h0.686a0.327,0.327,0,0,1,.49.2c-0.351.042-.247-0.047-0.392,0.2,0.7,0.478-.256.646,0.784,0.7V21.9h0.1c0.145,0.254.208,0.2,0.588,0.2l0.1-.5h0.294a0.6,0.6,0,0,1,0-.4,0.351,0.351,0,0,1,.2-0.1v0.5c1.968,0.067,3.645-.929,5.2-1.7a0.851,0.851,0,0,1,.1-0.5,0.494,0.494,0,0,1,.294-0.1,1.781,1.781,0,0,0,.2.4l5.784-2.8c2.387-1.483,4.775-3.044,7.059-4.6,0.786-.536,3.84-2.3,4.118-3a9.136,9.136,0,0,0,0-2.3h0.2V8.1c0.178,0.3.485,3.112,0.588,3.6,0.188-.055.084-0.164,0.2,0a1.432,1.432,0,0,1,.2,1.2c-0.184.3,0.352,1.332,0.49,1.7,0.449,1.194,1.7,4.537,2.549,4.7h0.1V19.2a0.431,0.431,0,0,1-.294-0.3,2.151,2.151,0,0,1,1.471-.3V18.5h0.1V18.4c-0.318-.083-0.15.049-0.294-0.2,0.288,0.085.409,0.2,0.588-.1H52.647Zm-5.2-8.3c-0.782.991-2.085,0.932-2.059,2.8L44.8,17a0.387,0.387,0,0,1,.2.3h0.1c-0.012-.532-0.192-0.473.392-0.5v0.1a1.054,1.054,0,0,0-.2,1h0.1V17.7a9.588,9.588,0,0,0,.588-2.3c0.356-1.125.722-2.475,1.078-3.6A6.147,6.147,0,0,0,47.451,9.8Zm0.2,0a11.2,11.2,0,0,1-.784,2.9c-0.47,1.39-.543,2.7-0.98,4.1a2.6,2.6,0,0,0-.294,1.5,2.866,2.866,0,0,0-.392.9,7.775,7.775,0,0,0,1.667.5,20.489,20.489,0,0,0,1.471-2.3l-0.1-1.4a21.572,21.572,0,0,0-.294-4C47.775,11.223,48.113,10.244,47.647,9.8Zm0.49,1.5a1.318,1.318,0,0,0,.1.7A1.319,1.319,0,0,0,48.137,11.3Zm-14.8,12.4H34.02a0.656,0.656,0,0,1-.1.4V23.8H33.333V24c0.2,0.132.075,0.116,0,.5h0.588a0.489,0.489,0,0,1,.1-0.3v0.4H33.333v0.7c0.944,0,1.423-.01,2.255,0l-0.1-.5h0.2v0.5c0.318-.083.15,0.049,0.294-0.2-0.268-.16-0.081.016-0.1-0.3h0.2a0.851,0.851,0,0,0,.1.5V25.1a2.582,2.582,0,0,0,.882.2c0.093-.037-0.043-0.159.392-0.2v0.1c-0.208.159,0.092,0.128,0.2,0.6a7.062,7.062,0,0,1-.882,0,0.49,0.49,0,0,1-.1.3,0.431,0.431,0,0,0-.294-0.3,0.639,0.639,0,0,0,.1.3,4.361,4.361,0,0,0,1.765.1,5.479,5.479,0,0,1,.2-1.6c0.888-.491,1.609-1.171,2.451-1.7a2.758,2.758,0,0,0,.98-0.5V21.5a17.656,17.656,0,0,1-.392-3.9h0.1v0.1a2.344,2.344,0,0,1,.2.7h0.2V17.8c-0.226-.134-0.179-0.122-0.2-0.2,0.164-.29.141-0.28,0.588-0.3a5.186,5.186,0,0,1,2.255-.2V16.9c0.608-1,.26-3.9.686-5.2H45.1a17.207,17.207,0,0,1-3.431,2.6c-2.211,1.621-4.334,3.5-6.569,5.1A22.549,22.549,0,0,1,32.549,21l-1.078.4V22a1.2,1.2,0,0,1,0,.8h1.961v0.1A1.611,1.611,0,0,0,33.333,23.7Zm9.9-11-0.1.2C43.308,12.76,43.235,12.7,43.235,12.7Zm-0.294.2-0.1.2C43.014,12.96,42.941,12.9,42.941,12.9Zm7.647,6.4H50.98V19.1a20.706,20.706,0,0,1-2.353-6.2H48.235c0.082,0.269-.034.979,0.1,1.6a29.827,29.827,0,0,1,.392,5.8l0.294,0.1a3,3,0,0,0,1.471.4c0.131-.256.278-0.343,0.392-0.6A0.908,0.908,0,0,1,50.588,19.3Zm-7.941-6.2-0.1.2C42.72,13.16,42.647,13.1,42.647,13.1Zm-0.294.2-0.1.2C42.426,13.36,42.353,13.3,42.353,13.3Zm-10.98,7.1a2.41,2.41,0,0,0,.1.8c2.418-.537,5.274-3.442,7.157-4.8,1-.724,3.038-1.877,3.725-2.8l-0.294.1,0.1-.2h-0.1a3.512,3.512,0,0,0-.294.3c0.222-.04.106-0.092,0.294,0h-0.1A11.59,11.59,0,0,1,39.9,15.1a53.079,53.079,0,0,1-6.765,3.8,11.75,11.75,0,0,0-2.745,1.2c0.209,0.222.107,0.028,0.1,0.3h0.882Zm10.2-6.6-0.1.2C41.642,13.86,41.569,13.8,41.569,13.8Zm-0.294.2-0.1.2C41.347,14.06,41.275,14,41.275,14Zm-0.294.2a3.5,3.5,0,0,0-.294.3h0.1C40.956,14.29,40.978,14.354,40.98,14.2Zm-0.49.3-0.1.2C40.563,14.56,40.49,14.5,40.49,14.5Zm-0.294.2a3.5,3.5,0,0,0-.294.3H40C40.172,14.79,40.193,14.854,40.2,14.7Zm-0.49.3-0.1.2C39.779,15.06,39.706,15,39.706,15Zm16.471,1.4a3.343,3.343,0,0,0,.1,1.4A3.343,3.343,0,0,0,56.177,16.4ZM44.9,17.4a1.074,1.074,0,0,0,.294.7V17.6a0.363,0.363,0,0,1-.1-0.2H44.9Zm3.333,0.2c-0.218.886-.9,1.454-1.177,2.3a9.566,9.566,0,0,1,1.471.4V19.9C48.2,19.331,48.574,18.128,48.235,17.6Zm-2.647.4a0.363,0.363,0,0,1,.1.2h-0.1V18Zm10,0h0.2v0.1A0.334,0.334,0,0,1,55.588,18Zm-10.49.2-0.1.3h0.2V18.3l0.1-.1H45.1Zm7.549,0h0.1c0.048,0.276-.055.118-0.2,0.2Zm2.941,0.1h0.2v0.1A0.334,0.334,0,0,1,55.588,18.3Zm-13.824.2,0.294,3.7h0.1V22.1A7.626,7.626,0,0,0,41.765,18.5ZM45.2,19.3l0.294,2.6h0.2V21.8a6.713,6.713,0,0,0,1.078-1.9Zm11.569,0.3a0.468,0.468,0,0,1,.294.1A0.468,0.468,0,0,1,56.765,19.6Zm-0.1.1a0.363,0.363,0,0,1,.1.2h-0.1V19.7Zm0.392,0a0.363,0.363,0,0,1,.1.2h-0.1V19.7Zm0.392,0.1a0.363,0.363,0,0,1,.1.2h-0.1V19.8Zm-10.49.2c-0.32.592-.865,1.523-1.078,1.9h0.1c0.084,0.065.308,0.134,0.392,0.2-0.318.083-.15-0.049-0.294,0.2h0.2a1.133,1.133,0,0,0,.294.2c0.042-.442-0.083-0.413.294-0.5a1.358,1.358,0,0,0,.882.5c0.761-.476.8-0.613,0.784-2ZM29.9,20.2c-0.076.068-.219,0.131-0.294,0.2,0.383,0,.441.05,0.588-0.2H29.9ZM51.078,22h0.686a7.332,7.332,0,0,1,0-1.3,9.06,9.06,0,0,1-.98-0.2,5.455,5.455,0,0,0-.2,1.6,0.769,0.769,0,0,1,.392,0c-0.009-.476-0.2-0.391.2-0.5v0.1A0.517,0.517,0,0,0,51.078,22ZM27.451,25.3c0.658-.023.993,0,1.765,0,0-2.142,0-2.883,0-4.7A14.67,14.67,0,0,0,25.588,22a11.554,11.554,0,0,1-.1,2.3,0.835,0.835,0,0,0,.49.1,6.131,6.131,0,0,1,.294-0.7c0.014,0.376-.046.352,0.2,0.5a1.169,1.169,0,0,1,.98.1v0.3A4.569,4.569,0,0,0,27.451,25.3Zm21.373-4.7a7.251,7.251,0,0,0,.1,1.4H49.8a0.819,0.819,0,0,1,.392-0.6v0.3a0.545,0.545,0,0,0-.294.4h0.2V22c0.192-.042.071,0.154,0.2,0a1.476,1.476,0,0,0,.1-0.7h-0.1v0.1c-0.076.192-.1-0.2-0.1-0.2a0.6,0.6,0,0,0,.2-0.2C49.808,20.93,49.406,20.689,48.824,20.6Zm3.039,0.1a3.038,3.038,0,0,0,.1,1.3A2.056,2.056,0,0,0,51.863,20.7Zm-6.274.4a0.408,0.408,0,0,1,0,.5V21.1Zm-16.274.1a1.318,1.318,0,0,0,.1.7C29.457,21.51,29.623,21.4,29.314,21.2Zm0.98,0.5V21.2H29.706v0.2a1.971,1.971,0,0,0-.2.4H29.8a0.361,0.361,0,0,1,0-.4C29.929,21.724,29.89,21.663,30.294,21.7Zm0.1-.5v0.4h0.2c0.076-.068.219-0.131,0.294-0.2a0.363,0.363,0,0,0,.1-0.2H30.392Zm0.686,0c0.169,0.088.125,0.089,0.294,0H31.078Zm0.1,0.3a0.49,0.49,0,0,1-.1.3,0.392,0.392,0,0,0-.588,0,1.347,1.347,0,0,0-.1.7c0.084,0.188.046,0.074,0,.3h0.98V22.7a0.609,0.609,0,0,1,0-.6c-0.248-.039-0.155.058-0.2-0.3h0.1a0.345,0.345,0,0,0,.1.2V21.5h-0.2ZM49.51,21.6h0.2v0.1A0.334,0.334,0,0,1,49.51,21.6Zm7.059,0h0.2v0.1A0.334,0.334,0,0,1,56.569,21.6ZM30.2,21.8a0.352,0.352,0,0,1-.2.1V22h0.294A0.345,0.345,0,0,0,30.2,21.8Zm0.49,0a0.808,0.808,0,0,1-.1.7h-0.1V22.2A0.72,0.72,0,0,0,30.686,21.8Zm25.882,0h0.2v0.1A0.334,0.334,0,0,1,56.569,21.8Zm0.686,0a0.807,0.807,0,0,1,.49.1A0.807,0.807,0,0,1,57.255,21.8ZM29.8,21.9c-0.076.068-.219,0.131-0.294,0.2a2.347,2.347,0,0,0-.2.7H30.2V22.7C30.03,22.475,29.989,22.1,29.8,21.9Zm30.2,0c0.108,0.306.062,0.363,0.2,0.4a1.422,1.422,0,0,0,1.373-.1h0.1V22.1A4.41,4.41,0,0,1,60,21.9ZM32.255,22h0.2v0.1h-0.2V22Zm0.294,0h0.2v0.1A0.334,0.334,0,0,1,32.549,22Zm-2.451.1a1.785,1.785,0,0,0,.2.4C30.253,22.142,30.34,22.248,30.1,22.1Zm26.471,0h0.2v0.1A0.334,0.334,0,0,1,56.569,22.1Zm0.686,0a0.807,0.807,0,0,1,.49.1A0.807,0.807,0,0,1,57.255,22.1Zm-24.9.1a0.363,0.363,0,0,1,.1.2h-0.1V22.2Zm16.569,0v0.3c0.382,0,.441.05,0.588-0.2h0.1V22.2H48.922Zm0.784,0-0.1.3H50.1a0.765,0.765,0,0,0,.294-0.3H49.706Zm0.882,0v0.2c0.351-.042.247,0.047,0.392-0.2H50.588Zm0.49,0v0.3h0.588l0.1-.3H51.078Zm0.784,0v0.2h0.1A0.344,0.344,0,0,0,51.863,22.2Zm-19.314.1h0.2v0.1A0.334,0.334,0,0,1,32.549,22.3Zm14.412,0,0.1,0.5a0.334,0.334,0,0,1,.2.1,0.334,0.334,0,0,0,.2-0.1,0.363,0.363,0,0,0,.1-0.2A2.94,2.94,0,0,1,46.961,22.3Zm1.177,0c-0.231.4-.369,0.336,0.1,0.6A1.073,1.073,0,0,0,48.137,22.3Zm-24.314.2v0.2a0.807,0.807,0,0,0,.49-0.1Zm8.529,0a0.363,0.363,0,0,1,.1.2h-0.1V22.5Zm0.2,0h0.2v0.2h-0.2V22.5Zm0.784,0a0.363,0.363,0,0,1,.1.2h-0.1V22.5Zm15.2,0.1a1.6,1.6,0,0,0-.1.5h0.1v0.1h0.2V23.1C48.658,23,48.6,22.7,48.529,22.6Zm0.588,0.8a6.884,6.884,0,0,1,.98,0V22.7a3.394,3.394,0,0,1-1.078-.1V23A0.684,0.684,0,0,1,49.118,23.4Zm-47.157.7c-0.526.044-1.413,0.557-1.667,0.4A1.762,1.762,0,0,1,0,23.5a4.107,4.107,0,0,0,1.667-.7Zm45.686-1.3c0,0.3.145,0.395,0.588,0.5V23.2A2.192,2.192,0,0,0,47.647,22.8Zm31.176,0c-0.466.3-3.184,0.3-3.921,0.3v0.2h0.2c0.854-.521,3.816.114,4.608-0.5H78.824Zm-5.2.3a0.835,0.835,0,0,1-.49.1v0.2h0.2c0.378-.221,1.227.076,1.471-0.3H73.627Zm-2.451.1a5.539,5.539,0,0,1-2.157.1v0.2H70.1c0.252-.122,1.7.113,1.961-0.3H71.177Zm0.98,0v0.2h0.294V23.2H72.157Zm0.588,0v0.2h0.294V23.2H72.745Zm-4.216.1c-0.1.069-.392,0.129-0.49,0.2a0.849,0.849,0,0,0,.882-0.2H68.529Zm-4.51.2a0.51,0.51,0,0,0,.588,0H64.02Zm-46.667.2h0.2v0.1A0.334,0.334,0,0,1,17.353,23.7Zm0,0.2h0.2V24h-0.1v0.1A0.363,0.363,0,0,1,17.353,23.9Zm27.451,0a0.352,0.352,0,0,0,.2.1A0.352,0.352,0,0,0,44.8,23.9Zm-42.843.2a0.589,0.589,0,0,1,.1.6,0.363,0.363,0,0,1-.1-0.2A0.568,0.568,0,0,1,1.961,24.1Zm41.373,0a1.131,1.131,0,0,1-.294.2v0.1h0.588V24.2Zm0.882,0.3a0.489,0.489,0,0,0-.1-0.3,0.765,0.765,0,0,0-.294.3h0.392Zm0.294-.3v0.2a1.765,1.765,0,0,0,.588.1,2.428,2.428,0,0,1,.392-0.1V24.2A3.013,3.013,0,0,1,44.51,24.1Zm-27.157.1h0.2v0.1A0.334,0.334,0,0,1,17.353,24.2Zm24.118,1.9V24.3A1.349,1.349,0,0,0,40.2,25.5H40.1V25.2a0.719,0.719,0,0,0,.2-0.4H40.2a1.2,1.2,0,0,0-.588,1.3h0.2l0.2-.6h0.1v0.3a1.159,1.159,0,0,0-.2.3h1.569Zm4.314-.8a0.468,0.468,0,0,0,.294-0.1,6.009,6.009,0,0,1-.2-0.9h-0.1v1Zm1.373-1v1h1.667V25.1h-0.1A3.1,3.1,0,0,0,47.157,24.3Zm-4.51.2a1.318,1.318,0,0,0,.1.7A1.319,1.319,0,0,0,42.647,24.5Zm-17.157.1v0.5a1.7,1.7,0,0,1,.49.2V24.6H25.49Zm-23.431.1a0.3,0.3,0,0,1,0,.4V24.7ZM10,24.7a0.351,0.351,0,0,1-.2.1v0.1H10.1A0.345,0.345,0,0,0,10,24.7Zm0.294,0v0.5H10.1c-0.143-.25-0.069-0.108-0.49-0.1v0.2h1.863a0.88,0.88,0,0,1,.294-0.3V24.7H10.294Zm-8.137.4a0.363,0.363,0,0,1,.1.2h-0.1V25.1ZM25.49,25.2v0.2h0.1A0.345,0.345,0,0,0,25.49,25.2Zm-20.2.2a6.951,6.951,0,0,0,1.667.2V25.4H5.294Zm1.765,0v0.2c0.6,0.024,2.108.187,2.353-.2H9.118A10.439,10.439,0,0,1,7.059,25.4Zm-3.824.1v0.2h0.2V25.6Zm6.373,0a4.283,4.283,0,0,0,1.863.2V25.5H9.608Zm3.922,0v0.2h0.2V25.5h-0.2Zm0.588,0v0.2H15.49V25.6A4.751,4.751,0,0,0,14.118,25.5Zm31.667,0v0.2h0.2V25.6h0.1V25.5H45.784Zm1.373,0a2.613,2.613,0,0,0,1.667,0H47.157Zm-44.706.1v0.2H3.039a0.28,0.28,0,0,1,.1-0.1V25.6H2.451Zm26.176,0.2v0.4h0.588V25.7h-0.1A0.835,0.835,0,0,1,28.627,25.8Zm4.706-.1v0.5a1.588,1.588,0,0,0,1.373-.4C34.221,25.825,33.945,25.728,33.333,25.7Zm-7.843.5h0.882V26c-0.265-.007-0.488-0.14-0.882-0.2v0.4ZM3.235,25.9a0.351,0.351,0,0,0,.2.1A0.351,0.351,0,0,0,3.235,25.9Zm4.706,3.9v0.9h0.2c0.592,0.386,3.814-.084,4.8-0.1V30.4a1.013,1.013,0,0,0-.588-0.2A29.6,29.6,0,0,0,7.941,29.8Z" transform="translate(0 0.5)"/>
</svg>
