<svg xmlns="http://www.w3.org/2000/svg" width="79.906" height="40" viewBox="0 0 79.906 40">
  <defs>
    <style>
      .cls-1 {
        fill: #fff;
        fill-rule: evenodd;
      }
    </style>
  </defs>
  <path id="Color_Fill_1" data-name="Color Fill 1" class="cls-1" d="M47.51,8a1.1,1.1,0,0,1,.613.1,0.871,0.871,0,0,0-.511.1,19.36,19.36,0,0,1,0,2.3h1.839c0.052-.443.144-0.359,0.2-0.8h-0.1a0.34,0.34,0,0,1-.1.2V9.3c0.376-.295.2-0.595,0.511-0.8v1.8a1.316,1.316,0,0,1-.409-0.1v0.1a0.358,0.358,0,0,1,.1.2,2.193,2.193,0,0,1,1.022.1h-0.92V11h0.2a0.591,0.591,0,0,1,.715.1,1.083,1.083,0,0,0-1.022.2c0.211,0.132.03,0.1,0,.6a1.825,1.825,0,0,1,.409.2,0.85,0.85,0,0,0-.1.5h1.124a0.623,0.623,0,0,0-.2-0.5,1.028,1.028,0,0,0,.613-0.2c-0.133-.056-0.076,0-0.1-0.1V11.7h0.1v0.1c0.089,0.074.115,0.126,0.2,0.2a0.739,0.739,0,0,0-.2.6,0.67,0.67,0,0,1,.409.1,10.532,10.532,0,0,0-1.941.1v0.7h0.1c0.1,0.1-.1.1-0.1,0.1a4.413,4.413,0,0,0,1.737.1v0.1a0.453,0.453,0,0,0,0,.5c-0.455.023-1.041,0-1.737,0q0.051,0.9.1,1.8a1.618,1.618,0,0,0,.817-0.1,0.5,0.5,0,0,1-.306-0.1,1.3,1.3,0,0,0,.1-0.7,1.12,1.12,0,0,0,.306-0.2,0.353,0.353,0,0,1,.2.1,0.834,0.834,0,0,1,.2.8c-0.3.287-.13,0.255,0,0.6h-0.2a9.587,9.587,0,0,1-1.022,0c0,1.127.506,2.472,0.2,3.5h0.307l0.1-.5h0.1V20H51.29a0.823,0.823,0,0,1,.1-0.5v0.7H51.7a1.787,1.787,0,0,1,.1-0.9v0.9h0.306V18.7h0.2a1.379,1.379,0,0,1,.715-0.1v0.1a3.977,3.977,0,0,0-.1,1.5h0.2V20.1a0.808,0.808,0,0,0,.511-0.6,0.353,0.353,0,0,1,.2.1c0.213,0.282-.1.241,0.2,0.4a0.636,0.636,0,0,1,.1-0.4,0.636,0.636,0,0,0,.1.4,3.049,3.049,0,0,1,.306-1.9,0.477,0.477,0,0,0,.1.3c-0.047-.772.2-1.507,0.2-3a4.208,4.208,0,0,1,.1-1.7v2.8h0.1a0.9,0.9,0,0,1,.307-0.3V17h-0.1c-0.153-.166-0.074-0.1-0.2-0.1a0.664,0.664,0,0,0-.1.4,0.691,0.691,0,0,1,.511,0c0.538,0.366.536,1.292,0.511,2.2H56.6v0.7h0.2a1.035,1.035,0,0,1,.1-0.6v0.6h0.306a1.035,1.035,0,0,1,.1-0.6v0.6h0.511a3.067,3.067,0,0,1,.1-1c0.426,0.139.865,0.111,1.43,0.3-0.157.507-.07,1.241-0.2,1.7,0.3-.036.211-0.2,0.409,0.1a4.428,4.428,0,0,0-.1,1.1h0.511v0.1a0.353,0.353,0,0,0-.2.1h0.409c0.012-.388-0.067-0.3.511-0.3V22.2h0.1l-0.1.4c0.321-.141.311-0.05,0.306-0.7a1.769,1.769,0,0,0,.613-0.1v1.9a0.5,0.5,0,0,1,.306.1,0.353,0.353,0,0,0-.2.1h0.2a3,3,0,0,1,.613,0V23.2h0.2V23.1h0.1v0.4h0.511c0.019,0.037-.064.319,0.1,0.2V23.5l0.511-.1c0.029,0.259-.048.178,0.409,0.2v0.1h0.1a0.34,0.34,0,0,1,.1-0.2V23.3c-0.617-.133-0.441-0.585-0.409-1.5a0.359,0.359,0,0,0,.1-0.2,9.737,9.737,0,0,0,1.328-.5,2.664,2.664,0,0,1,.1-1.5v1.5c0.309-.019.07-0.039,0.307,0.2,0,0,.02-0.391.1-0.2v0.2a0.5,0.5,0,0,1,.1.3h0.409l0.511,0.6h2.656v0.2H67.126v0.1a0.617,0.617,0,0,1,.2.2c-0.382.012-.249-0.121-0.306,0.3a0.85,0.85,0,0,0-.1.5h0.1a1.932,1.932,0,0,1,.919-0.1c-0.022-.335-0.22-0.24.1-0.4a0.477,0.477,0,0,0,.1.3,1.035,1.035,0,0,1,.1-0.6v0.6c0.738,0,1.431-.193,1.839-0.2V23c-0.133-.055-0.076,0-0.1-0.1V22.8a4.759,4.759,0,0,0,.511.3,0.562,0.562,0,0,1,.1-0.6,0.823,0.823,0,0,0,.1.5,2.074,2.074,0,0,1,1.43-.4c0.085,0.324-.05.153,0.2,0.3a4.743,4.743,0,0,1,.409-0.7v0.2c0.252,0.122.158,0.177,0.409,0.3,0.149-.254-0.022-0.113.306-0.2a0.636,0.636,0,0,1,.1-0.4v0.4h1.022a0.823,0.823,0,0,1,.1-0.5v0.4a1.132,1.132,0,0,1,.715.1c0.029-.26,0-0.2.511-0.2a0.9,0.9,0,0,1,.511-0.1c0.039-.262-0.076-0.131.2-0.2a0.441,0.441,0,0,0,.306.3V22.2a0.358,0.358,0,0,1-.1-0.2h0.2a2.051,2.051,0,0,0,.817.2,0.477,0.477,0,0,1,.1-0.3,2.453,2.453,0,0,1,.919-0.7,2.319,2.319,0,0,0,.1.8,1.133,1.133,0,0,0,.511-0.2,2.663,2.663,0,0,0,.1-1.2,6.292,6.292,0,0,1,.1-2.3v3.1a0.851,0.851,0,0,1,.2.6,5.128,5.128,0,0,1-.817,1.2,20.747,20.747,0,0,0-1.43,2.9c-0.251.594-.535,2.922-0.92,3.2a5.208,5.208,0,0,1-1.533.1,25.075,25.075,0,0,1-4.9.2v0.9l-0.306.1c-1.072.723-3.7,0-4.8-.1a1.5,1.5,0,0,1-.2-0.9H14.2a9.544,9.544,0,0,0-.92-0.5l-1.022.1c-1.57-.021-3.724.231-5.313,0.3v0.4H6.641a0.477,0.477,0,0,1-.1.3c-0.192-.579-0.715-0.558-1.124-1,0.766-.165.751-0.594,1.226-0.8v0.1a2.151,2.151,0,0,0,.409.4V28L4.8,27.7v1.4H2.656c0-1.333-.837-4.334-0.409-4.9l0.1,0.5h0.2a1.27,1.27,0,0,1,.1-0.7,3.29,3.29,0,0,1,0,.7H3.372c0.012-.379-0.1-0.274.409-0.3a0.341,0.341,0,0,1,.1-0.2,0.848,0.848,0,0,0,.307.6h0.2a2.1,2.1,0,0,1,.2-0.7,0.636,0.636,0,0,0,.1.4c0.091-.169.493-0.105,0.613,0.2,0,0,.042.229,0.1,0.1V24.6a4.291,4.291,0,0,0,.511-0.4,0.7,0.7,0,0,0,.409.1,1.084,1.084,0,0,0,.2.5l0.1-.5c0.089,0.074.115,0.126,0.2,0.2a0.477,0.477,0,0,1,.1-0.3,1.036,1.036,0,0,0,.1.6,1.035,1.035,0,0,1,.1-0.6c0,0.39-.051.45,0.2,0.6,0.028-.259-0.048-0.178.409-0.2v0.1a0.353,0.353,0,0,0-.2.1h0.2V24.7l0.2,0.1V24.7a0.409,0.409,0,0,1,.2-0.1,0.286,0.286,0,0,1,.1-0.1v0.3H8.582a0.823,0.823,0,0,1,.1-0.5c0.048,0.5-.083.474,0.511,0.5a0.528,0.528,0,0,0,.307.1c0.039-.262-0.076-0.131.2-0.2,0.149,0.254-.022.113,0.307,0.2a1.27,1.27,0,0,1,.1-0.7,1.036,1.036,0,0,0,.1.6,0.528,0.528,0,0,0,.306.1V24.8a0.5,0.5,0,0,1-.306-0.1,3.823,3.823,0,0,0,.715-0.2l-0.1-1.2h0.2c0.227-.118.462,0.044,0.715-0.1-0.223-.047-0.178,0-0.2-0.1a2.46,2.46,0,0,1-.1-0.8c0.422-.129.877-0.5,1.226-0.6L13.9,21.9a2.985,2.985,0,0,1-.1.7l-0.511-.1v0.1a0.468,0.468,0,0,1,.2.5c-0.332.083-.156-0.049-0.306,0.2h0.409a1.207,1.207,0,0,1,.613-0.1c0.111,0.541.592,0.442,1.226,0.4a1.271,1.271,0,0,1,.1-0.7v0.7h3.985a2.6,2.6,0,0,1,0-1h-0.1a0.617,0.617,0,0,1-.2.2c0-.656-1.532-0.448-2.452-0.4V22.3l2.759-.1a1.579,1.579,0,0,1,.817-0.6V21.3a0.5,0.5,0,0,0,.306-0.1,0.353,0.353,0,0,1-.2-0.1,5.162,5.162,0,0,1,1.839.6,5.387,5.387,0,0,1-.1,1.9h1.022a1.035,1.035,0,0,1,.1-0.6v0.6h0.1V23.5c0.35,0.115.546,0.148,0.715-.2a0.353,0.353,0,0,1-.2-0.1H26.36c-0.076-.639-0.605-2.279-0.409-2.6V20.5h0.2v0.2a1.422,1.422,0,0,1,.1.7h0.306a0.477,0.477,0,0,1,.1-0.3,1.271,1.271,0,0,1-.1.7c-0.085-.325.05-0.153-0.2-0.3v0.3h0.2c-0.3.276,0,.755,0,1.4h0.817V23a4.964,4.964,0,0,1,0-2c0.331-.083.156,0.049,0.306-0.2h0.1V20.7a0.87,0.87,0,0,1-.511-0.1,0.87,0.87,0,0,0,.511-0.1,1.3,1.3,0,0,0,.1-0.7h-0.1a1.609,1.609,0,0,1-.511.5V20.1a4.1,4.1,0,0,0,.511-1.3h0.1v0.4a0.546,0.546,0,0,1,0,.4H28.2a2.955,2.955,0,0,1,.409.5c-0.366.042-.257-0.047-0.409,0.2,0.264,0.15.216,0.3,0.2,0.7h0.409a1.035,1.035,0,0,1,.1-0.6v0.5h0.511l0.1-.3a0.5,0.5,0,0,1-.307-0.1h0.307a0.477,0.477,0,0,1,.1-0.3c0,0.39-.051.45,0.2,0.6a0.837,0.837,0,0,0,.2-0.3,0.5,0.5,0,0,1-.306-0.1h0.306V19a1.493,1.493,0,0,0,.511-0.1V18.8a0.871,0.871,0,0,1-.511-0.1,0.871,0.871,0,0,0,.511-0.1,1.7,1.7,0,0,0,.2-0.6h-0.1V17.9l-0.511.4V18l0.511-1.1h0.1c0.017,0.538-.023.263,0,0.8a1.527,1.527,0,0,1,.613.2v0.2a0.67,0.67,0,0,0-.409.1,1.853,1.853,0,0,1,.306.7,0.7,0.7,0,0,0,.409.1l0.1,1a12.957,12.957,0,0,1,1.43-.1v0.4h0.613c-0.059-1.378-1.035-3.859.715-3.9a1.089,1.089,0,0,1,.817-0.1l0.1,0.5a4.005,4.005,0,0,0,1.328.3V16.5a1.349,1.349,0,0,1-.715-0.1,0.752,0.752,0,0,0,.817-0.2,10.62,10.62,0,0,0,0-1.2c0.143-.021-0.041.082,0.1,0.1,0.079,0.192.1-.2,0.1-0.2a0.773,0.773,0,0,1-.2-0.7h0.2A2.017,2.017,0,0,1,37.5,14l0.511,1.9c-0.375.069-.279,0-0.409,0.3-0.089-.074-0.115-0.126-0.2-0.2v0.2a0.632,0.632,0,0,0,.409.2v0.7a0.871,0.871,0,0,1,.511.1c-0.692.046-1.523,0.1-2.35,0.1v0.1a5.075,5.075,0,0,1,.2,2.1,2.193,2.193,0,0,1,1.022.1,2.859,2.859,0,0,0-.919.1v0.1a0.752,0.752,0,0,1,.817.2h-0.1v0.1a0.8,0.8,0,0,0-.715,0c0.416,0.3.23,1.622,0.409,2.2h0.1V22.2a5.9,5.9,0,0,0,.919-1.6,5.765,5.765,0,0,1,.1-0.9,1.409,1.409,0,0,0,.2.7h0.1a1.271,1.271,0,0,1,.1-0.7,33.53,33.53,0,0,0,.306,3.9l1.226-.1a1.035,1.035,0,0,1,.1-0.6v0.6a1.472,1.472,0,0,0,1.226-.2h0.1V23.2a0.788,0.788,0,0,1-.715-0.6,0.4,0.4,0,0,0,.2-0.4H39.847v-1a17.931,17.931,0,0,1,2.861,0,2.092,2.092,0,0,1,.1,1,2.492,2.492,0,0,0-1.124.1,0.526,0.526,0,0,1,.613.4,1.063,1.063,0,0,1,.1.6l-0.511-.1v0.1a0.359,0.359,0,0,1,.1.2H42.81a1.271,1.271,0,0,1,.1-0.7v0.7l1.022-.1a1.035,1.035,0,0,1,.1-0.6v0.6h0.409a0.8,0.8,0,0,1,.613-0.9,1.093,1.093,0,0,0,.2.3,4.531,4.531,0,0,1,0-.8,1.539,1.539,0,0,0,.817,0V21.4h0.1c0.149,0.254-.022.113,0.307,0.2V21.4a8.481,8.481,0,0,1,.1-1.1H45.977a0.636,0.636,0,0,1,.1-0.4v0.3H46.59V20h-0.1V19.9a0.671,0.671,0,0,1-.409-0.1h0.409V19.7h-0.1a1.276,1.276,0,0,0,0-.8,1.9,1.9,0,0,1-.919-0.1h0.919l-0.306-2.6c0.079-.227.4-0.611,0.511-0.9a4.519,4.519,0,0,0,1.328,0,1.4,1.4,0,0,0,.613.7l0.306-1.5a1.358,1.358,0,0,1,0-1.6,1.7,1.7,0,0,0,.306.8c0.046-.562-0.078-0.691,0-1.2a0.349,0.349,0,0,0,.306,0,1.48,1.48,0,0,1-.1-1.1h-0.1c-0.057.13,0,.074-0.1,0.1a0.781,0.781,0,0,0-.306-0.3,0.543,0.543,0,0,1-.306.4V11.4a0.387,0.387,0,0,0,.2-0.3H47.714a0.581,0.581,0,0,1-.409,0C47.345,10.212,47.507,9.138,47.51,8Zm2.248,1.3V9.5h0.1A0.34,0.34,0,0,0,49.757,9.3Zm0,0.3a0.478,0.478,0,0,0,.1.3A0.477,0.477,0,0,0,49.757,9.6Zm-2.35,1a0.636,0.636,0,0,0,.1.4A0.636,0.636,0,0,0,47.407,10.6Zm0.2,0V11c0.632,0,1-.026,1.43,0V10.6h-1.43Zm1.635,0V11h0.2V10.8C49.362,10.726,49.336,10.674,49.247,10.6Zm1.941,0.7a0.709,0.709,0,0,1,.2.4h-0.2A0.76,0.76,0,0,1,51.188,11.3Zm-0.2.2a0.709,0.709,0,0,1,.2.4h-0.1V11.8A0.5,0.5,0,0,1,50.983,11.5Zm-0.2.2a0.387,0.387,0,0,1,.2.3h-0.1V11.9A0.359,0.359,0,0,1,50.779,11.7Zm-1.43,1.8v0.2C49.513,13.581,49.474,13.658,49.349,13.5Zm-0.409.3a0.477,0.477,0,0,0,.1.3A0.477,0.477,0,0,0,48.94,13.8Zm0.511,0a0.636,0.636,0,0,0,.1.4A0.636,0.636,0,0,0,49.451,13.8Zm0.511,0a1.243,1.243,0,0,1-.1.4h1.022V13.8H49.962Zm1.022,0v0.4h0.511V13.8H50.983Zm-2.248.1v0.2h0.1A0.34,0.34,0,0,0,48.736,13.9Zm0.511,0a0.477,0.477,0,0,0,.1.3V13.9h-0.1Zm-0.1.4-0.306,1.4h0.817l-0.1-1.4H49.144Zm-12.363.2a0.5,0.5,0,0,1,.1.3h-0.1V14.5Zm12.261,3.4H49.86c0.025-.673-0.437-2.069-0.2-2.1H49.144a2.017,2.017,0,0,1-.409.2,2.631,2.631,0,0,0,.2.8,0.823,0.823,0,0,1,.1-0.5c0.009,0.341.235,0.671,0.2,0.8h-0.2v0.8Zm0.613-1.7v0.2h0.1V16.2h-0.1Zm0.511,0c0.039,0.262-.076.131,0.2,0.2a0.371,0.371,0,0,1,.2-0.1V16.2H50.166Zm0.511,0a0.371,0.371,0,0,0,.2.1A0.371,0.371,0,0,0,50.677,16.2Zm-13.18.3a3.193,3.193,0,0,0,.2.6C37.7,16.71,37.752,16.65,37.5,16.5Zm13.384,0.2a0.358,0.358,0,0,1,.1.2h-0.1V16.7ZM55.172,17a0.358,0.358,0,0,1,.1.2h-0.1V17Zm-6.539.1a0.635,0.635,0,0,0,.1.4A0.636,0.636,0,0,0,48.634,17.1Zm0.2,0a1.521,1.521,0,0,0,.1.8A1.522,1.522,0,0,0,48.838,17.1Zm0.2,0.9a1.036,1.036,0,0,0,.1.6A1.035,1.035,0,0,0,49.042,18Zm0.2,0v0.6h0.511V18H49.247Zm-12.669.1a0.359,0.359,0,0,1,.1.2h-0.1V18.1Zm12.261,0.1a0.636,0.636,0,0,0,.1.4A0.636,0.636,0,0,0,48.838,18.2Zm1.022,0a0.636,0.636,0,0,0,.1.4A0.636,0.636,0,0,0,49.86,18.2Zm-13.384.1a0.358,0.358,0,0,1,.1.2h-0.1V18.3Zm-0.1.2a0.358,0.358,0,0,1,.1.2h-0.1V18.5Zm19.413,0.1v0.2h0.1A0.34,0.34,0,0,0,55.785,18.6Zm-28.71.1a0.87,0.87,0,0,1,.511.1A0.871,0.871,0,0,1,27.075,18.7Zm9.2,0a0.359,0.359,0,0,1,.1.2h-0.1V18.7Zm16.041,0.1a2.833,2.833,0,0,0-.1.9h0.1A1.791,1.791,0,0,0,52.312,18.8Zm0.306,0c-0.033.138,0.145,0.145,0.2,0.2C52.894,18.894,52.646,18.83,52.618,18.8Zm0,0.5a0.38,0.38,0,0,0,.2.3A1.093,1.093,0,0,0,52.618,19.3Zm0.715,0.4a0.358,0.358,0,0,1,.1.2h-0.1V19.7Zm-1.022.2-0.1.3h0.1C52.318,19.909,52.41,20.061,52.312,19.9Zm-22.682.2h0.2v0.1h-0.2V20.1Zm2.146,0v0.2h0.511V20.1H31.775Zm-2.656.1h0.2v0.1A0.353,0.353,0,0,1,29.119,20.2Zm2.656,0.2v0.3h0.511V20.4H31.775Zm1.533,0a0.477,0.477,0,0,0,.1.3c0.28-.236.047-0.072,0.511,0V20.5A1.908,1.908,0,0,0,33.308,20.4Zm12.771,0.1a0.671,0.671,0,0,1,.409.1A0.671,0.671,0,0,1,46.079,20.5Zm10.932,0v0.2h0.2V20.5h-0.2Zm0.817,0v0.2h0.1V20.6h0.1A0.371,0.371,0,0,0,57.829,20.5Zm0.613,0v0.2a1.845,1.845,0,0,0,.613-0.1h0.1V20.5A3.308,3.308,0,0,1,58.442,20.5Zm-31.877.4h0.2V21A0.353,0.353,0,0,1,26.565,20.9Zm10.217,2.7h1.43l-0.306-2.7H37.7v0.2A3.851,3.851,0,0,0,36.782,23.6ZM26.769,21h0.2v0.1A0.353,0.353,0,0,1,26.769,21Zm0.306,0.1h0.2v0.1A0.353,0.353,0,0,1,27.075,21.1ZM0.1,22.6L0,21.6a2.809,2.809,0,0,0,1.635-.3v0.3a0.5,0.5,0,0,0-.1.3c0.267,0.038.134-.074,0.2,0.2-0.07.077-.134,0.223-0.2,0.3A3.386,3.386,0,0,1,.1,22.6Zm78.365-1-0.1.2h0.1c-0.022.14,0.1,0.1,0.1,0.1C78.695,21.776,78.467,21.6,78.467,21.6Zm-32.286.1c0.085,0.325-.05.153,0.2,0.3V21.7h-0.2Zm31.877,0.2a0.371,0.371,0,0,0,.2.1A0.371,0.371,0,0,0,78.059,21.9Zm-76.322.4a0.5,0.5,0,0,1,.1.3h-0.1V22.3Zm58.544,0.1v0.2h0.306V22.4H60.281Zm-33.512.1h0.2v0.1A0.353,0.353,0,0,1,26.769,22.5Zm32.388,0a0.371,0.371,0,0,0,.2.1A0.371,0.371,0,0,0,59.157,22.5Zm0.306,0v0.2h0.1V22.6h0.1A0.371,0.371,0,0,0,59.464,22.5Zm15.326,0c0.176,0.088.13,0.089,0.306,0H74.789Zm-47.816.1h0.2v0.1A0.353,0.353,0,0,1,26.973,22.6Zm-25.134.1a0.5,0.5,0,0,1,.1.3h-0.1V22.7ZM67.024,23a0.5,0.5,0,0,1,.1.3h-0.1V23Zm-65.083.2c0.23,0.238.112,0.035,0.1,0.4h-0.1V23.2Zm20.026,0.1-0.1.3h0.2A0.477,0.477,0,0,0,21.967,23.3Zm2.248,0v0.2h0.1A0.341,0.341,0,0,0,24.215,23.3Zm0.2,0v0.2h0.2V23.3h-0.2Zm0.613,0v0.4a2.492,2.492,0,0,0,1.124-.1,2.193,2.193,0,0,1-1.022-.1,1.083,1.083,0,0,0,1.022-.2H25.032Zm1.226,0v0.2h0.1A0.341,0.341,0,0,0,26.258,23.3Zm0.409,0v0.2h0.306C26.836,23.194,26.942,23.448,26.667,23.3Zm0.409,0v0.2h0.307V23.3H27.075Zm-0.409.3c0.176,0.088.131,0.089,0.306,0H26.667Zm0.409,0c0.176,0.088.131,0.089,0.307,0H27.075Zm35.76,0v0.2h0.1A0.34,0.34,0,0,0,62.835,23.6Zm-60.792.1a0.5,0.5,0,0,1,.1.3h-0.1V23.7Zm4.7,0.9v0.2h0.1A0.341,0.341,0,0,0,6.743,24.6Zm1.022,3.5-0.1.7,0.307,0.1a13.227,13.227,0,0,0,3.882-.1Z" transform="translate(0 0.547)"/>
</svg>
