<svg xmlns="http://www.w3.org/2000/svg" width="79.906" height="40" viewBox="0 0 79.906 40">
  <defs>
    <style>
      .cls-1 {
        fill: #fff;
        fill-rule: evenodd;
      }
    </style>
  </defs>
  <path id="Color_Fill_1" data-name="Color Fill 1" class="cls-1" d="M44.54,14.8a1.978,1.978,0,0,0,1.434-.19c-0.236-.123-0.065.041-0.191-0.19a1.026,1.026,0,0,1-.765.19v-0.38a1.936,1.936,0,0,1,.669.1c-0.056-.52-0.1-0.9.574-0.95v0.19a1.842,1.842,0,0,0-.382.855,1.675,1.675,0,0,1,.86,0,0.458,0.458,0,0,1,.1-0.285,0.684,0.684,0,0,0,.382.19v0.19H46.834a3.324,3.324,0,0,1-.573-0.1v0.19c0.253,0.165.409,0.127,0.191,0.285a7.833,7.833,0,0,1-1.72,0v0.095a2.3,2.3,0,0,0,.573.76,0.489,0.489,0,0,0,.287.095,4.975,4.975,0,0,1,0-.76,0.9,0.9,0,0,1,.765.1,1.013,1.013,0,0,0-.573.095,1.023,1.023,0,0,0-.1.57,1.731,1.731,0,0,0,1.338-.285v0.285H47.5v0.1h-0.1v0.1a6.019,6.019,0,0,0-1.72-.1v0.855c0.217-.038.1-0.087,0.287,0a1.047,1.047,0,0,0-.287.19,5.237,5.237,0,0,1,1.147,2.281,0.464,0.464,0,0,0,.287-0.095,2.628,2.628,0,0,0,.1-1.14h0.191c0.381,0.168,1.1-.136,1.816.1a13.713,13.713,0,0,1,.287-1.71c0.227,0.183.156,0.1,0.382,0.285a0.791,0.791,0,0,1,.1-0.475,1.356,1.356,0,0,0,.1.475,2.2,2.2,0,0,1,.574,0,11.9,11.9,0,0,1,.1,1.806h0.1V18.6h1.625v0.095a1.025,1.025,0,0,0-.1.57l1.051,0.1a0.738,0.738,0,0,0,.191.475c-0.569.775-.328,2.074-0.287,3.041a5.351,5.351,0,0,0,1.816-.19,8.478,8.478,0,0,0-1.625.1v-0.19a5.738,5.738,0,0,0,1.625-.095V22.4H54.863a2.16,2.16,0,0,1-1.434,0l1.816-.095a1.989,1.989,0,0,1,.1-0.95v0.475h0.287v-0.57H55.245a1.847,1.847,0,0,1-.382-0.855,0.818,0.818,0,0,1-.1-0.475c0.886-.036,1.663.441,2.581,0.285V20.5h-0.1v0.1a2.067,2.067,0,0,0-.669-0.1,1.083,1.083,0,0,1,0,.76H56.3v0.285H57.73v0.1a1.025,1.025,0,0,0-.1.57l1.147-.1,0.1-.95a4.2,4.2,0,0,1,1.529-.475,3.475,3.475,0,0,0,.765.76c0.385,0.231,1.339-.046,1.721.19H61.458a1.065,1.065,0,0,0,0,.475,0.831,0.831,0,0,0,.478.1,3.794,3.794,0,0,0,.1,1.14,9.72,9.72,0,0,1,2.772-.19v-0.1h0.1c-0.032-.563-0.117-1.157.287-1.33a4.667,4.667,0,0,1,1.338-.38v0.19a0.483,0.483,0,0,1,.1.285c0.733,0.062.44,0.311,0.765,0.475,0.592,0.3,1.923-.172,2.485.19H67.479v0.095a0.582,0.582,0,0,1,.191.19c-0.344.018-.2-0.141-0.287,0.19h0.191c0.592-.352,1.628-0.024,2.389-0.19,2.126-.464,4.668-0.206,6.786-0.665,1.082-.234,2.4.128,3.154-0.38v0.285a0.463,0.463,0,0,0-.287.095,0.347,0.347,0,0,1,.287.475,14.9,14.9,0,0,0-2.1,3.991c-0.18.676,0.052,2.342-.478,2.661-0.514.309-3,.1-3.823,0.1H63.465v0.57a1.76,1.76,0,0,1-.573.095,0.346,0.346,0,0,0-.191-0.095v-0.57H55.245v0.57a3.163,3.163,0,0,1-.956.095A0.49,0.49,0,0,0,54,29.905v-0.57c-13.067,0-26.373-.088-39.283-0.1-0.192-.608-0.7-0.61-1.529-0.57-0.637.39-1.733,0.009-2.581,0.19a20.688,20.688,0,0,1-4.014.38,0.981,0.981,0,0,1-.191.665A0.49,0.49,0,0,1,6.117,30a5.318,5.318,0,0,0-.573-0.95,1.052,1.052,0,0,0,.382-0.76,0.608,0.608,0,0,0,.573.19c0.04,0.34-.045.239,0.191,0.38V28.29a0.638,0.638,0,0,1-.1-0.38l-1.816-.1a0.271,0.271,0,0,1-.1.1L4.492,29.335H3.25V27.72H2.676c-0.062-.785-0.8-2.95-0.382-3.611v0.38c0.406,0,1.586-.2,1.625-0.19a4.432,4.432,0,0,0,.382.285H5.83a1.6,1.6,0,0,1-.1.57H5.926c0.167-.259,0-0.039.382,0,0.081-.218.186-0.351,0.287-0.57a31.662,31.662,0,0,0,5.448.19v0.475h0.478V24.774H13.19v-0.38H13a0.325,0.325,0,0,1-.1.19V24.3a7.863,7.863,0,0,1-2.2-.19l2.485-.095a0.908,0.908,0,0,1,.669-0.475V23.253a1.017,1.017,0,0,1,.478-0.19c0.291,0.422.745,0.169,1.147,0.475a1.877,1.877,0,0,1,.191,1.235h2.389a3.477,3.477,0,0,1,.1-1.235v-0.1a1.46,1.46,0,0,0,1.051,0,0.819,0.819,0,0,0,.1-0.475,3.733,3.733,0,0,1-1.529-.095,10.315,10.315,0,0,0,1.912-.095,0.9,0.9,0,0,1,.956-0.76,0.969,0.969,0,0,0,.86.19,2.374,2.374,0,0,0,.382.475v0.665h3.154c0.073-.381.07-0.489,0.478-0.57a1.163,1.163,0,0,0,1.051.19V22.873a1.828,1.828,0,0,1-.1-0.475A1.481,1.481,0,0,1,26,22.018c0.216,0.051.266,0.041,0.574,0.095a3.246,3.246,0,0,1,0-1.235,2.778,2.778,0,0,1,.86-0.095v0.095a7.644,7.644,0,0,0-.1,1.235h0.191V22.018l0.191,0.095V22.018c0.062-.082.128-0.3,0.191-0.38v1.14c0.761,0.009,1.065.184,1.912,0.19V22.4a0.5,0.5,0,0,1-.478-0.285c0.327,0.017.089-.171,0.287-0.475a1.605,1.605,0,0,0,.1.57h0.1v-0.95h0.1V21.163h-0.1a3.38,3.38,0,0,1-.287-0.285H30.2a5.56,5.56,0,0,1,.1-1.33,0.769,0.769,0,0,1-.382,0V19.453h0.1l0.1-.19a3.31,3.31,0,0,1,.669.19,0.8,0.8,0,0,1,.1-0.76,1.29,1.29,0,0,1,0,.76h0.765v-0.76h0.1v0.095a1.335,1.335,0,0,1,.1,1.33H31.637v-0.57H30.872a1.225,1.225,0,0,1-.1.665c0.013-.383.052-0.52-0.191-0.665v0.095a0.6,0.6,0,0,1-.1.76c0.224,0.141.19,0.116,0.191,0.475h0.573v0.1c-0.429.262-.315,1.219-0.287,1.9h0.191a15.76,15.76,0,0,0,3.441.285c-0.057-.747-0.79-2.7-0.478-3.231,0.07,0.486.128,0.5,0.191,1.045H34.6V20.308a0.464,0.464,0,0,1-.287-0.095,0.464,0.464,0,0,0,.287-0.1,1.751,1.751,0,0,1-.1-0.855H33.931a0.458,0.458,0,0,1-.1.285l-0.1-.95h0.1v0.19c0.229,0.266.08,0.327,0.574,0.38a0.346,0.346,0,0,1,.191-0.1,1.052,1.052,0,0,1,1.242-1.045,4.97,4.97,0,0,0,.287.855c0.265,0.36.441,0,.574,0.475-0.372,0-.337.254-0.287,0.855,0.4,0.685-.184,2.44.478,2.851v-0.1a3.144,3.144,0,0,1,.191-0.665,0.489,0.489,0,0,1,.287-0.1,0.458,0.458,0,0,1,.1-0.285,0.458,0.458,0,0,0,.1.285c0-.371-0.047-0.428.191-0.57v0.57h0.287l-0.1-.475h0.1a2.8,2.8,0,0,0,2.007-.095,1.492,1.492,0,0,0,.669.475A0.787,0.787,0,0,1,41,21.638v0.38l0.478,0.095V22.018a2.226,2.226,0,0,1-.1-1.045,2.3,2.3,0,0,1-1.051-.1h0.287a1.9,1.9,0,0,1,.1-0.665h0.1v0.665h0.574v-0.19c-0.333-.505-0.123-2.514,0-3.041,0.291-.175.753-0.349,1.051-0.57-0.119-.149-0.061-0.048,0-0.19v0.095a4.011,4.011,0,0,0,.669,1.14v-0.19a0.668,0.668,0,0,1-.287-0.475,0.829,0.829,0,0,0,.287-0.38v0.1a23.277,23.277,0,0,1,.382,4.561,2.869,2.869,0,0,0,.478,0,0.341,0.341,0,0,0,.1-0.19h-0.1v0.1c-0.074.183-.1-0.19-0.1-0.19a2.73,2.73,0,0,0,.191-1.71c-0.2-.858.078-2.371-0.191-3.326a4.941,4.941,0,0,1-.287-0.76h0.1a0.361,0.361,0,0,0,.191.285V15.652c-0.275-.452-0.038-2.432-0.1-3.041H43.011v0.095a1.49,1.49,0,0,1,.669.76h-0.1a4.887,4.887,0,0,1-.86-1.045h0.1a1.78,1.78,0,0,0,.86.1c0.031-1.066-.415-0.892-1.529-0.855v0.1a0.367,0.367,0,0,1,.191.285h-0.1a2.291,2.291,0,0,0-.669-0.665v0.095a1,1,0,0,1,.287.665h-0.1v-0.19A3.062,3.062,0,0,1,41.29,11h0.956V9h0.1V9.1h0.1c-0.216.713,0.379,1.762,0.191,2.471h1.147v-0.1h0.1a4.182,4.182,0,0,1,.191-1.33h0.1a1,1,0,0,0,.1.57c0.155-.251.072-0.232,0.287-0.19a0.638,0.638,0,0,1,.1.38c-0.3,0-.128-0.161-0.287.1a0.616,0.616,0,0,1,0,.57c0.282-.034.2-0.191,0.382,0.1a2.566,2.566,0,0,1,0,1.235l-0.287.1A4.079,4.079,0,0,0,44.54,14.8Zm-2.2-4.561v1.33h0.191v-0.76C42.459,10.692,42.418,10.348,42.342,10.235Zm-1.051.285a0.342,0.342,0,0,1,.1.19h-0.1V10.52Zm2.676,0.285v0.665h0.191V11.376A1.9,1.9,0,0,0,43.967,10.805Zm0.86,0a0.343,0.343,0,0,1,.1.19h-0.1v-0.19Zm-2.581.285H41.577v0.095a2.136,2.136,0,0,0,.573.38v-0.1A0.638,0.638,0,0,0,42.246,11.091Zm2.867,0.475c0.033,0.029.191,0.05,0.1,0.19C45.1,11.709,44.912,11.587,45.114,11.566Zm-1.816.285h0.191v0.1h-0.1a0.684,0.684,0,0,1-.382.19v-0.1h0.1C43.177,11.958,43.227,11.934,43.3,11.851Zm-1.434.285a3.35,3.35,0,0,1,.86,1.806h-0.1v-0.19a1.79,1.79,0,0,0-.765-0.95,1.075,1.075,0,0,1-.669.38V13.086h0.1a1.217,1.217,0,0,0,.669-0.665A0.482,0.482,0,0,1,41.864,12.136Zm0.956,0h0.191v0.1h-0.1a1.144,1.144,0,0,1-.573.285v-0.1h0.1A2.581,2.581,0,0,1,42.82,12.136Zm1.147,0.855a1.467,1.467,0,0,0,.1.76A1.466,1.466,0,0,0,43.967,12.991Zm-10.7,2.566a1.944,1.944,0,0,1,0,1.14,2.1,2.1,0,0,0-.191-0.95c-0.352-.218-0.351.159-0.478-0.285,0.211,0.049.19,0.107,0.382,0,0.254-.453-0.113-1.451.191-1.9v1.9a18.966,18.966,0,0,0,4.588-1.14l2.389-.57a7.733,7.733,0,0,1,1.051-.57v0.1H41.1c-0.818.786-1.918,0.689-3.25,1.14A18.419,18.419,0,0,1,33.262,15.557Zm10.7-1.71a1.988,1.988,0,0,0,.1.95A1.986,1.986,0,0,0,43.967,13.846Zm-3.632.1a0.367,0.367,0,0,1,.191.285h-0.1v-0.1A0.342,0.342,0,0,1,40.335,13.941Zm2.389,0a0.342,0.342,0,0,1,.1.19h-0.1v-0.19Zm0.1,0.19a0.342,0.342,0,0,1,.1.19h-0.1v-0.19Zm-2.294.1a0.367,0.367,0,0,1,.191.285h-0.1v-0.1A0.342,0.342,0,0,1,40.526,14.226Zm2.389,0.1a0.342,0.342,0,0,1,.1.19h-0.1v-0.19Zm-2.2.19a0.368,0.368,0,0,1,.191.285h-0.1V14.7A0.343,0.343,0,0,1,40.717,14.511Zm2.294,0a2.231,2.231,0,0,1,.478.95h-0.1V15.367A1.427,1.427,0,0,1,43.011,14.511Zm-2.1.285a0.368,0.368,0,0,1,.191.285H41v-0.1A0.342,0.342,0,0,1,40.908,14.8Zm-8.6.1h0.382v0.19h-0.1C32.519,15.017,32.379,14.957,32.306,14.891Zm11.661,0a3.672,3.672,0,0,0,.1,1.52A3.668,3.668,0,0,0,43.967,14.891Zm0.478,0.095a0.458,0.458,0,0,0,.1.285V14.986h-0.1Zm-3.345.1a1.129,1.129,0,0,1,.478.665h-0.1v-0.1h-0.1A3.528,3.528,0,0,1,41.1,15.081Zm3.536,0v0.19h0.1A0.326,0.326,0,0,0,44.636,15.081Zm-11.852.1c0.107,0.158.169,0.1,0,.19v-0.19Zm11.947,0.665c0.31-.079.146,0.047,0.287-0.19a1.1,1.1,0,0,1-.191-0.285c-0.278.005-.133,0.092-0.287,0a0.819,0.819,0,0,0-.1.475h0.191a0.611,0.611,0,0,1,.1-0.38v0.38Zm-1.243-.38a0.342,0.342,0,0,1,.1.19h-0.1v-0.19Zm6.5,0.1h0.191v0.76h-0.1c-0.262-.222-0.111-0.163-0.382,0V16.032C49.552,15.913,49.894,15.765,49.988,15.557Zm-17.3.19a0.342,0.342,0,0,1,.1.19h-0.1v-0.19Zm8.889,0a0.367,0.367,0,0,1,.191.285h-0.1v-0.1A0.343,0.343,0,0,1,41.577,15.747Zm-8.793.19a0.342,0.342,0,0,1,.1.19h-0.1v-0.19Zm0.573,0a0.342,0.342,0,0,1,.1.19h-0.1v-0.19Zm11.087,1.045h0.478a0.458,0.458,0,0,1,.1-0.285v0.285h0.574V16.887a3.192,3.192,0,0,0-.574-0.855,0.345,0.345,0,0,0-.191-0.1,0.611,0.611,0,0,1-.1.38,1.2,1.2,0,0,0-.1-0.38H44.444v1.045Zm0.86-1.045,0.191,0.57h0.1V16.032Zm-3.536.1a0.367,0.367,0,0,1,.191.285h-0.1v-0.1A0.342,0.342,0,0,1,41.768,16.032Zm-8.889.095a0.341,0.341,0,0,1,.1.19h-0.1v-0.19Zm0.669,0.095a0.343,0.343,0,0,1,.1.19h-0.1v-0.19Zm-0.574.1a0.343,0.343,0,0,1,.1.19h-0.1v-0.19Zm8.985,0a0.367,0.367,0,0,1,.191.285h-0.1v-0.1A0.342,0.342,0,0,1,41.959,16.317Zm2.867,0a0.276,0.276,0,0,1,0,.38v-0.38Zm1.434,0h0.191v0.1h-0.1C46.29,16.424,46.17,16.417,46.261,16.317Zm-12.617.1a0.367,0.367,0,0,1,.191.285h-0.1V16.6A0.342,0.342,0,0,1,33.644,16.412Zm-0.573.095a0.342,0.342,0,0,1,.1.19h-0.1v-0.19Zm9.08,0.1a0.368,0.368,0,0,1,.191.285h-0.1v-0.1A0.343,0.343,0,0,1,42.151,16.6Zm1.816,0a5.113,5.113,0,0,0,.1,2A5.111,5.111,0,0,0,43.967,16.6Zm-10.8.095a0.343,0.343,0,0,1,.1.19h-0.1V16.7Zm0.86,0.57a0.457,0.457,0,0,1,.1-0.285v0.19c0.083,0.07.108,0.12,0.191,0.19a2.382,2.382,0,0,1-.191.475V17.362H33.548a2.087,2.087,0,0,1,.1,1.235,8.345,8.345,0,0,1-.287-1.71V16.7h0.1C33.455,17.235,33.486,17.263,34.026,17.267Zm-0.191-.57a0.343,0.343,0,0,1,.1.19h-0.1V16.7Zm11.756,3.041c-0.027-.89,0-1.458,0-2.661H45.114a0.611,0.611,0,0,1-.1.38v-0.38H44.444v0.19a1.066,1.066,0,0,1,.382.665h-0.1V17.837a1.1,1.1,0,0,1-.191-0.285h-0.1v2.09A3.948,3.948,0,0,0,45.591,19.738Zm0.1-2.471a7.153,7.153,0,0,0,.1,2,6.927,6.927,0,0,1,.86,0v-0.19C46.2,18.591,46.14,17.735,45.687,17.267Zm-11.374.19a0.342,0.342,0,0,1,.1.19h-0.1v-0.19Zm10.8,0a0.558,0.558,0,0,1,.1.665ZM34.5,17.742a0.342,0.342,0,0,1,.1.19H34.5v-0.19Zm15.006,0a1.331,1.331,0,0,0,1.051,0H49.51Zm-15.484.095a0.38,0.38,0,0,1,0,.475V17.837Zm14.241,0h0.191v0.095A0.328,0.328,0,0,1,48.268,17.837Zm0.669,0h0.191v0.095A0.328,0.328,0,0,1,48.937,17.837Zm-4.11.095a1.866,1.866,0,0,1,.573.95H45.3v-0.1A1.746,1.746,0,0,1,44.827,17.932Zm-10.131.1a0.342,0.342,0,0,1,.1.19H34.7v-0.19Zm10.609,0.1a0.483,0.483,0,0,1,.1.285H45.3V18.122Zm-11.374.19a0.38,0.38,0,0,1,0,.475V18.312ZM45.4,18.407a0.483,0.483,0,0,1,.1.285H45.4V18.407Zm-14.528.1a0.342,0.342,0,0,1,.1.19h-0.1V18.5Zm-1.529.38v0.665a0.464,0.464,0,0,1,.287.095H29.343a1.46,1.46,0,0,0,.191.76H29.343V20.308c-0.488-.168-0.418-0.683-0.382-1.33h0.1V18.882h0.287Zm1.051,0.095h0.191v0.095H30.394V18.977Zm0.956,0.285h0.191v0.1H31.35v-0.1Zm14.337,0.1v0.19h0.1A0.325,0.325,0,0,0,45.687,19.358Zm-15.866.19c0.119,0.149.061,0.049,0,.19-0.02.038-.07,0.2-0.191,0.095Zm4.11,0a0.276,0.276,0,0,1,0,.38v-0.38Zm-3.536.475v0.19h0.1A0.325,0.325,0,0,0,30.394,20.023Zm49.415,0.665a0.787,0.787,0,0,1,0,.76v-0.76Zm-35.364.1v0.19h0.1A0.325,0.325,0,0,0,44.444,20.783Zm-10.036.285a4.677,4.677,0,0,0,.287,1.615h0.1v-0.19C34.534,22.047,34.863,21.333,34.409,21.068Zm9.271,0.19h0.191v0.1H43.68v-0.1Zm0.765,0.1a0.612,0.612,0,0,0,.1.38A0.611,0.611,0,0,0,44.444,21.353Zm-3.345.1a0.367,0.367,0,0,1,.191.285h-0.1V21.638A0.342,0.342,0,0,1,41.1,21.448Zm38.614,0.095H79.9v0.1A0.328,0.328,0,0,1,79.713,21.543Zm-42.82.475h0.191v0.19H36.894v-0.19Zm41.195,0.095c-0.5.3-1.519-.022-2.007,0.285l2.1-.095A0.325,0.325,0,0,0,78.088,22.113Zm0.191,0a1.143,1.143,0,0,0,.956,0H78.28Zm-50.466.1-0.478.1v0.475h0.191a0.49,0.49,0,0,0,.287.095A3.414,3.414,0,0,1,27.814,22.208Zm30.49,0c-0.134.084-.536,0.1-0.669,0.19h0.86c0.074-.065.213-0.125,0.287-0.19H58.3Zm-32.019.19a0.341,0.341,0,0,1,.1.19h-0.1V22.4Zm32.4,0c-0.223.134-.83,0.052-1.051,0.19,0.769,0,1.258.028,1.625,0V22.493Zm16.344,0a0.8,0.8,0,0,0,.765,0H75.03ZM0.1,23.824L0,22.683l2.007-.19v0.19a3.071,3.071,0,0,1,.191,1.33H2.1V23.919c-0.195-.233.117-0.138-0.191-0.285A4.15,4.15,0,0,1,.1,23.824Zm41.1-.76c0.31-.079.146,0.047,0.287-0.19a0.526,0.526,0,0,1,0-.38h-0.1v0.19a0.846,0.846,0,0,0-.287.76h0.1v-0.38Zm32.4-.57c-0.223.134-.83,0.052-1.051,0.19a4.5,4.5,0,0,0,2.007-.19H73.6Zm1.051,0a0.345,0.345,0,0,0,.191.095A0.346,0.346,0,0,0,74.648,22.493Zm-2.963.19a0.8,0.8,0,0,0,.765,0H71.685Zm-1.434.1c-0.178.108-.684,0.078-0.86,0.19a4.58,4.58,0,0,0,1.912-.19H70.251Zm-1.243.095c-0.246.148-.9,0.038-1.147,0.19a2.48,2.48,0,0,0,1.434-.19H69.008Zm-31.924.095a0.988,0.988,0,0,0,0,.57,0.648,0.648,0,0,0,.382.1v-0.1h0.1a1.34,1.34,0,0,1-.1-0.38C37.236,23.072,37.315,23.057,37.085,22.968Zm-11.183.1a0.725,0.725,0,0,0,.573.19v-0.19H25.9Zm5.257,0v0.19h0.573v-0.19H31.159Zm0.669,0v0.19h0.287V23.158Zm8.984,0.38v-0.38h-0.1a6.034,6.034,0,0,1-2.867.1v0.475h0.191A9.714,9.714,0,0,1,40.812,23.443Zm26.571-.38c0.164,0.084.122,0.084,0.287,0H67.384Zm-30.681.1c0.164,0.084.122,0.084,0.287,0H36.7Zm-3.25.095c-0.1.066-.382,0.122-0.478,0.19,0.385,0.013.523,0.052,0.669-.19H33.453Zm0.287,0v0.19a1.7,1.7,0,0,0,.382-0.19H33.74Zm0.765,0a0.346,0.346,0,0,0,.191.1A0.346,0.346,0,0,0,34.5,23.253Zm29.247,0c-0.453.269-1.411,0-1.816,0.285a12.356,12.356,0,0,0,2.963-.285H63.752Zm-38.136.1a0.966,0.966,0,0,0,.86,0h-0.86Zm5.352,0a1.527,1.527,0,0,0,1.147,0H30.968Zm-9.08.095a3.317,3.317,0,0,0,1.912,0H21.888Zm2.007,0a0.28,0.28,0,0,0,.382,0H23.895Zm9.08,0.1a1.528,1.528,0,0,0,1.147,0H32.975Zm-10.992.1a2.843,2.843,0,0,0,1.72,0h-1.72Zm2.007,0a0.346,0.346,0,0,0,.191.095A0.346,0.346,0,0,0,23.99,23.634Zm-21.6.95a0.346,0.346,0,0,0,.191.095A0.345,0.345,0,0,0,2.389,24.584Zm0.573,0a0.28,0.28,0,0,0,.382,0H2.963ZM4.97,24.679a0.8,0.8,0,0,0,.765,0H4.97Zm1.051,0a0.62,0.62,0,0,1,.382.1A0.62,0.62,0,0,1,6.022,24.679Zm0.573,0.1a0.8,0.8,0,0,0,.765,0H6.595Zm1.147,0a3.678,3.678,0,0,0,1.72.095A9.886,9.886,0,0,0,7.742,24.774Zm1.816,0.095a4.557,4.557,0,0,0,2.389,0H9.558Zm3.059,0a0.508,0.508,0,0,0,.573,0H12.617Zm3.059,0v0.19h0.573v-0.19A1.991,1.991,0,0,1,15.675,24.869Zm0.765,0v0.19h1.243v-0.19H16.44Zm1.434,0v0.19h0.191v-0.19H17.873ZM7.36,27.91v0.855a14.5,14.5,0,0,0,4.11-.285V28.195Zm4.683,0.57a2.976,2.976,0,0,0,1.147-.19,3.786,3.786,0,0,1-1.147-.095V28.48Z" transform="translate(0 0.5)"/>
</svg>
