<svg xmlns="http://www.w3.org/2000/svg" width="80.001" height="40" viewBox="0 0 79.969 39.984">
  <defs>
    <style>
      .cls-1 {
        fill: #fff;
        fill-rule: evenodd;
      }
    </style>
  </defs>
  <path id="us_destroyer_fletcher_ico" class="cls-1" d="M49.042,8h1.886V9.619c-0.261-.008-0.559-0.01-0.82,0V9.7a1.54,1.54,0,0,0,0,.706H50.6c0-.26.041-0.28-0.2-0.291V10.076c0.032-.05.049-0.2,0.082-0.249v0.249h0.164V9.993A0.283,0.283,0,0,1,50.6,9.827a0.742,0.742,0,0,1,.246-0.042q-0.02.311-.041,0.623a0.2,0.2,0,0,1,.123.042,0.72,0.72,0,0,0-.533.249,0.314,0.314,0,0,1-.041.083,2,2,0,0,1-.205.083,4.828,4.828,0,0,1,.123,1.287c0.137,0,.133.048,0.123,0.291-0.108.012-.086,0.034-0.082,0.249h0.082a0.27,0.27,0,0,1,.041-0.166c0,0.386.04,0.408,0.041,0.789-0.108.017-.089,0.067-0.082,0.291h0.082a0.351,0.351,0,0,1,.041-0.208q0.02,0.394.041,0.789c-0.108.017-.089,0.067-0.082,0.291h0.082a0.35,0.35,0,0,1,.041-0.207c0,0.386.04,0.408,0.041,0.789-0.11.018-.09,0.1-0.082,0.332h0.082a0.443,0.443,0,0,1,.041-0.249c0,0.386.04,0.408,0.041,0.789-0.109.012-.086,0.034-0.082,0.249h0.082a0.271,0.271,0,0,1,.041-0.166V16.22a0.2,0.2,0,0,0-.123.042,3.536,3.536,0,0,1,.082.913,11.867,11.867,0,0,1,.2,2.034h0.738a1.76,1.76,0,0,1,.041-0.706v0.706h0.451A1.76,1.76,0,0,1,52.2,18.5v0.706h0.492l0.082-.249c-0.3-.026-0.306-0.245-0.287-0.581,0.149-.075.2-0.219,0.369-0.291,0.053,0.1-.018.028,0.082,0.083v-0.54H52.855a1.9,1.9,0,0,0,.123-0.457H52.609v-0.83a0.357,0.357,0,0,0,.369-0.083H52.9s0.206-.772.205-0.872,0.017-.046.041-0.083c0.307-.272.553-0.146,0.533-0.789l0.492-.208v0.083c-0.311.023-.446,0.289-0.369,0.374a0.543,0.543,0,0,0,.246.208c-0.146.129-.323,0.219-0.246,0.374a0.413,0.413,0,0,0,.287.208V15.6H53.962a0.586,0.586,0,0,0-.287-0.125,0.543,0.543,0,0,0-.041-0.291,0.6,0.6,0,0,0-.246.374c0.192,0.124.277,0.379,0.451,0.5l0.369,0.083c0.034,0.024.042,0.138,0.082,0.166a1.727,1.727,0,0,1,.779.623,1.094,1.094,0,0,0,0,.623v0.083h0.41a0.217,0.217,0,0,1,.123-0.208v0.125a0.629,0.629,0,0,1,.328.042c-0.254-.008-0.312.009-0.328,0.249h-0.41v1.245h0.369a1.761,1.761,0,0,1,.041-0.706v0.706c0.565,0,1.393-.094,1.763-0.042v0.125a0.15,0.15,0,0,0-.041.083H57.078c0.06,0.539-.08,1.226,0,1.868a0.968,0.968,0,0,1,.041.374h0.2a0.352,0.352,0,0,1,.205-0.041V21.7l0.246,0.042a0.351,0.351,0,0,1,.041-0.208V21.7a2.287,2.287,0,0,1,.861.083,1.452,1.452,0,0,0-.861.083h0.041a1.681,1.681,0,0,0,.9,0v0.706l2.132-.083a0.9,0.9,0,0,1,.123-0.291H60.769a5.676,5.676,0,0,0-1.271-.208,2.487,2.487,0,0,1,.287-1.079,2.318,2.318,0,0,1-.082-0.291h0.082c0.136-.324-0.183-0.589.123-0.664a2.353,2.353,0,0,0,.492.083,0.846,0.846,0,0,1,.041-0.291,0.223,0.223,0,0,0,.164,0v0.166H60.482V20H60.441V20.04a5.108,5.108,0,0,1,2.214.415,3.051,3.051,0,0,1,.287.332h2.132v0.208c-0.489-.011-2.106-0.1-2.255.166a3.246,3.246,0,0,0,0,1.163l-0.246-.041v0.124c0.63,0,1.052-.1,1.558-0.083a0.279,0.279,0,0,1-.123.249,1.169,1.169,0,0,1-.656.083,1.635,1.635,0,0,0,.041.374h0.041a0.286,0.286,0,0,1,.287-0.041,0.374,0.374,0,0,1,.082.207c-0.12,0-.059.02-0.164,0.125a0.785,0.785,0,0,0-.246-0.125,4.529,4.529,0,0,1-.041.83l1.312-.042V23.361a0.584,0.584,0,0,1-.082-0.415c0.054-.2.244-0.5,0.287-0.664s-0.092-.118-0.123-0.208a2.1,2.1,0,0,0,.123-1h0.369v0.249c0.089,0.052.137,0.122,0.205,0.083a0.316,0.316,0,0,0,0-.291c0.133-.034.063,0.02,0.123-0.083a0.343,0.343,0,0,0,.123.083,0.27,0.27,0,0,1,.041-0.166v0.207c-0.028.032-.054,0.093-0.082,0.125-0.034-.135.02-0.063-0.082-0.125v0.208c-0.01.04-.032,0.016,0,0.041a4.292,4.292,0,0,0,1.312.083,4.4,4.4,0,0,1,.984.415,1.914,1.914,0,0,0,.164.249h2.05v0.208h-2.05a0.453,0.453,0,0,1-.164.166c0.043,0.279.032,0.811,0.041,1.162l-0.287-.042v0.042a0.214,0.214,0,0,1,.041.125H68.4a0.117,0.117,0,0,1,.041-0.041,1.505,1.505,0,0,1,.041-0.623v0.623l1.845-.083a1.634,1.634,0,0,1,.041-0.664v0.664h0.492l-0.041-.415h0.041c0.007,0,.747.045,0.984,0.042v0.041a0.454,0.454,0,0,0-.041.249h0.41A1.76,1.76,0,0,1,72.25,22.9c0.014,0.21.022,0.112,0.123,0.208a0.288,0.288,0,0,1,.205-0.124V23.07a0.283,0.283,0,0,1,.041.166h0.246v0.041a0.282,0.282,0,0,0,0,.291,0.147,0.147,0,0,1,.082-0.041,0.881,0.881,0,0,0,.041-0.5H73.4V23.07a0.455,0.455,0,0,0-.041.249,0.536,0.536,0,0,0,.328.083,0.642,0.642,0,0,1,.328-0.041,1.253,1.253,0,0,1,.041-0.54v0.5a3.848,3.848,0,0,0,.738.083,5.7,5.7,0,0,1,1.189-.166,1.253,1.253,0,0,1,.041-0.54,0.68,0.68,0,0,0,.082.54V23.195a0.318,0.318,0,0,1,.123-0.125c0.052,0.248.415,0.183,0.7,0.166a1.765,1.765,0,0,0,.574.041,0.245,0.245,0,0,1,.123-0.125,0.227,0.227,0,0,0,.246.125,4.664,4.664,0,0,1,0-.706h0.041v0.706l0.779-.041V23.112a0.537,0.537,0,0,1,.328-0.083,0.285,0.285,0,0,0,.123.208,1.1,1.1,0,0,1,.492-0.042,2.368,2.368,0,0,0,0-.374A0.352,0.352,0,0,0,79.8,22.7a0.176,0.176,0,0,1,0-.166,0.262,0.262,0,0,1-.164-0.041H79.8a5.9,5.9,0,0,1,.041-1.495q0.02,1.079.041,2.159c0.03,0.073.124-.009,0.123,0.125a2.627,2.627,0,0,1-.164.415c-0.186.578-.3,1.183-0.451,1.744-0.383,1.38-.512,2.923-0.82,4.318a2.1,2.1,0,0,0-.287.249l-6.766.208v0.415a2.337,2.337,0,0,1-.656.041,1.552,1.552,0,0,1-.041-0.457H12.67a0.774,0.774,0,0,0-.533-0.664c-0.156.1-.46-0.042-0.656,0.041a2.007,2.007,0,0,1-.164.166l-0.984.041a1.622,1.622,0,0,0-.861-0.124c-0.553.121-1.284,0.039-1.845,0.124H6.766a2.9,2.9,0,0,0-.287.166l-1.312.083A1.057,1.057,0,0,1,4.716,31a3.727,3.727,0,0,1-.287-0.54,0.3,0.3,0,0,1-.205.166,2.631,2.631,0,0,1,.041-0.54A0.891,0.891,0,0,1,3.731,29.8a3.67,3.67,0,0,1,.492-0.208c-0.042-.373-0.192-0.956.246-1.038,0.089,0.188.194,0.38,0.287,0.581A0.333,0.333,0,0,1,5,29.007a0.538,0.538,0,0,0,.369.5l0.041-.083a1.9,1.9,0,0,0,.082-0.913H5.454V28.468l-1.6-.125a1.722,1.722,0,0,1-.205.747,0.631,0.631,0,0,1,.041.207,6.412,6.412,0,0,1-.246,1.287,9.691,9.691,0,0,1-2.214.042V28.052H0.779l-0.041-.124a3.309,3.309,0,0,1-.246-0.913A12.076,12.076,0,0,1,.041,25.52a5.337,5.337,0,0,1,.164-0.955H0.041V24.524c0.035-.078.019-0.031,0-0.125H0.246v0.457H0.328a3.016,3.016,0,0,1,.943-0.125V24.9a1.831,1.831,0,0,0,.533.042c0.06-.105-0.009-0.047.123-0.083V24.69H2.009v0.125a8.793,8.793,0,0,0,.943.041,0.271,0.271,0,0,1,.041-0.166v0.166a6.733,6.733,0,0,1,.943.041V24.69H4.018V25.1a1.207,1.207,0,0,1,0,.249,1.421,1.421,0,0,0,.82.125,1.632,1.632,0,0,1,.041-0.664v0.664H5.864V25.063H6.151a0.351,0.351,0,0,1,.041-0.208v0.208H6.4V24.773a0.339,0.339,0,0,1,.205.041,0.514,0.514,0,0,0-.164.041c0.235,0.339.028,0.613,0.82,0.623V25.188H7.34a0.208,0.208,0,0,1,.123-0.041v0.041a0.556,0.556,0,0,0-.041.291H7.627V25.146a1.837,1.837,0,0,1,.615,0,0.893,0.893,0,0,1,.082-0.291v0.291a0.36,0.36,0,0,0,.287-0.083v0.125a0.556,0.556,0,0,0-.041.291,2.078,2.078,0,0,1,.615-0.125c0.076,0.041-.036.08,0.164,0.125a1.76,1.76,0,0,1,.041-0.706v0.706h0.943V25.312h0.123a1,1,0,0,1,.041-0.457,1.41,1.41,0,0,0,.164.623h0.9a0.658,0.658,0,0,0,.041-0.207H11.522a0.274,0.274,0,0,1-.164.041,6.313,6.313,0,0,0,0-1.245,14.648,14.648,0,0,0-2.173-.083V23.776h2.05c0.207-.592,1.675-0.74,2.46-0.747V22.9H13.573V22.738c0.1-.054.028,0.018,0.082-0.083a0.15,0.15,0,0,1,.041.083,1.55,1.55,0,0,0,.164.291,0.32,0.32,0,0,0,.123-0.125,0.9,0.9,0,0,0,.041-0.415,0.89,0.89,0,0,1,.41,0,2.343,2.343,0,0,0,.041,1.121,1.014,1.014,0,0,0-.082.291,0.857,0.857,0,0,1,.123.083,2.258,2.258,0,0,1,.164.913,0.638,0.638,0,0,1,.082.581h0.082V25.4a6.923,6.923,0,0,0,.123-2.283,1.62,1.62,0,0,1,.451,0,0.692,0.692,0,0,1,.082.332l-0.123.083a0.275,0.275,0,0,1,.041.249h0.7a1.634,1.634,0,0,1,.041-0.664v0.664h0.9V23.693a0.213,0.213,0,0,0,.041-0.125H17.017a0.274,0.274,0,0,1-.164.041c0.011-.392.011-0.811,0-1.2a10.433,10.433,0,0,0-2.173-.083V22.116h2.009c0.418-.652,1.536-0.749,2.5-0.747V21.285c-0.054-.1.044-0.123-0.082-0.208,0,0-.008.162-0.041,0.083V21.078H19.026V21.036a0.482,0.482,0,0,1,.369.041H19.272v0.291h0.041a1.172,1.172,0,0,1,.574-0.125v0.581c0.027,0.035.067,0.116,0.123,0.208-0.133.053-.108,0.037-0.123,0.208a1.439,1.439,0,0,1,.287,1.038H19.887a0.2,0.2,0,0,1-.041.125,3.454,3.454,0,0,0-1.066.083v0.291h1.886V21.742H20.42V20.995H20.215V20.123c0.378-.016.7,0,1.148,0a1.3,1.3,0,0,0,.082-0.332,0.34,0.34,0,0,0,.205-0.042,0.15,0.15,0,0,0,.041-0.083H20.256V19.5a4.708,4.708,0,0,0,2.214-.291,0.378,0.378,0,0,0,.369.332,0.2,0.2,0,0,1,.041-0.124v0.706h1.23V19.832h0.123a1.5,1.5,0,0,1,.041-0.623v0.623h0.164c0-.166,0-0.133-0.082-0.208-0.062-.058.079-0.039,0.082-0.042a0.151,0.151,0,0,0-.082-0.207c-0.063-.057.081-0.04,0.082-0.042V19.126h0.574c0.034-.135-0.02-0.064.082-0.125,0.093,0.031.062,0.009,0.164-.041a0.34,0.34,0,0,1-.164-0.249c0.028-.032.054-0.093,0.082-0.125,0.113,0.213.4,0.024,0.41,0.042h0.041V18.67a0.932,0.932,0,0,1,.082.457h0.328v0.83L25.218,20a7.643,7.643,0,0,0-.533,1.162h0.082a0.158,0.158,0,0,1,.123-0.083c0.011,0.163-.023.189,0.082,0.249a0.624,0.624,0,0,1,.287.042V21.078H25.136a0.2,0.2,0,0,1,.041-0.125,0.273,0.273,0,0,0,.287.083A0.271,0.271,0,0,1,25.5,20.87l-0.041.374H25.341v0.083H25.3v0.042a6.247,6.247,0,0,1,2.337.5c0.04,0.044.08,0.219,0.123,0.249h2.091v0.208H27.514v0.083a2,2,0,0,1,.164.789A0.18,0.18,0,0,1,27.8,23.07v0.374a0.429,0.429,0,0,1,.246.042H27.8v0.249c1.167,0.007,2.153-.111,3.28-0.125a0.992,0.992,0,0,1,.041-0.332H30.959v0.208a0.139,0.139,0,0,0-.082.041,0.14,0.14,0,0,1-.082-0.041,0.363,0.363,0,0,1-.041-0.208,0.478,0.478,0,0,0-.328.125,0.643,0.643,0,0,1-.492-0.083,1.383,1.383,0,0,0,.041-0.415,0.469,0.469,0,0,1,.287-0.083,0.533,0.533,0,0,1,.041-0.166H30.179a0.147,0.147,0,0,1-.082.042V22.614h0.041V22.572a2.036,2.036,0,0,1,.287,0,0.811,0.811,0,0,0,.123.125c-0.023-.569-0.1-0.924.41-0.913a1.062,1.062,0,0,1,.861,0,1.153,1.153,0,0,1,.123.332h0.041v0.041c-0.133.034-.063-0.02-0.123,0.083a0.665,0.665,0,0,1,.082.581,7.311,7.311,0,0,0,.82-0.125c0.058,0.13.02,0.126,0.287,0.125a4.343,4.343,0,0,0,.779,0c0.628,0,1.012.005,1.64,0v0.166l-2.419.291a0.142,0.142,0,0,1-.041.083l0.041,0.208,2.419-.083V23.195h0.287a1.347,1.347,0,0,0-.533-1.245c-0.031-.032-0.051-0.142-0.082-0.166h-1.23V21.576h1.476a2.067,2.067,0,0,0-.41-1.287,0.117,0.117,0,0,1,.041-0.041,0.274,0.274,0,0,1,.164-0.041c-0.028-.483-0.219-0.912-0.246-1.328h0.082a0.224,0.224,0,0,0,.164.124V18.877a2.409,2.409,0,0,1-.246-0.415,1.182,1.182,0,0,0,.328-0.083c0.011,0.108,0,.082.2,0.083a2.028,2.028,0,0,1,1.476-.872,0.6,0.6,0,0,0,.246.415c0.125-.065.157-0.186,0.2-0.083a1.112,1.112,0,0,1,.164.457,1.847,1.847,0,0,1,.287.415,0.881,0.881,0,0,1-.041.291,2.064,2.064,0,0,1,.082.623H37.97c0.106,0.245,0,.535.082,0.664a0.581,0.581,0,0,0-.205.042v0.041h0.328a1.631,1.631,0,0,1,.041-0.664v0.664H38.38a1.634,1.634,0,0,1,.041-0.664v0.664H38.5v2.906h0.984V23.195h0.205V23.32h0.574a1.152,1.152,0,0,1,.041-0.374H40.144v0.208a0.14,0.14,0,0,0-.082.041,0.14,0.14,0,0,1-.082-0.041,0.362,0.362,0,0,1-.041-0.208H39.652a0.535,0.535,0,0,1-.041.166,4.107,4.107,0,0,0-.492-0.124V22.946a1.682,1.682,0,0,0,.082-0.415c0.194-.011.214,0.048,0.246-0.166h0.041V22.323H39.364a0.147,0.147,0,0,1-.082.041V22.282h0.041V22.24c0.1,0.03.231,0.013,0.287,0.041,0.147,0.181-.049.237,0.287,0.249a0.147,0.147,0,0,1,.082-0.041V22.365H40.1c0.047-.111.079-0.087,0.123-0.208a1.267,1.267,0,0,1-.123-0.5,0.639,0.639,0,0,1,.2-0.041V21.7a0.233,0.233,0,0,1,0,.166c0.219,0,.24.011,0.41,0v0.042c-0.08.1-.054,0.068-0.041,0.208h0.082V21.95h0.2a3.13,3.13,0,0,0-.082.54,0.14,0.14,0,0,1,.082.041,6.316,6.316,0,0,0,.656,0c0.157-.081-0.009-0.146.328-0.166a0.2,0.2,0,0,0,.041.125,0.352,0.352,0,0,0,.2.041,2.058,2.058,0,0,1,.779-0.041c0.645,0,1.041-.005,1.681,0v0.166l-2.378.291a0.253,0.253,0,0,1-.082.083l0.041,0.208,1.148-.042V23.029h0.369a0.117,0.117,0,0,0,.041.041v0.125c0.671,0,.907-0.2,1.6-0.207v0.124h0.246a2.805,2.805,0,0,1-.041-0.664c-0.107-.012-0.081,0-0.082-0.208a6.264,6.264,0,0,1-.082-0.913c-0.031-.045-0.172-0.032-0.205-0.083a2.084,2.084,0,0,1-.123-0.789C45,20.007,45.029,19.489,44.9,19a1.467,1.467,0,0,1-.164-0.5h0.041a0.685,0.685,0,0,0,.287.208V18.587a1.333,1.333,0,0,1-.164-0.249c0.209-.015.2-0.03,0.2-0.249a0.2,0.2,0,0,1-.123-0.041,0.151,0.151,0,0,0,.041-0.083,7.581,7.581,0,0,0,.656-0.664,1.924,1.924,0,0,1,1.148-.291,2.039,2.039,0,0,1-.082-0.415H47.4v0.249l-0.328.041v0.125a0.2,0.2,0,0,1,.123.041c-0.054.054-.134,0.125-0.082,0.166a5.891,5.891,0,0,0,.41.664,3.276,3.276,0,0,0,.082.415,0.865,0.865,0,0,0,.41.041,1.887,1.887,0,0,1,.041-0.747v0.789H48.016v0.041c-0.082,0-.011-0.043-0.082,0a1.048,1.048,0,0,0-.041.166,0.136,0.136,0,0,0-.123,0,1.942,1.942,0,0,1-.041.208c-0.082,0-.012-0.043-0.082,0a6.825,6.825,0,0,1,.123,1.038A12.267,12.267,0,0,1,48.1,22.24a2.964,2.964,0,0,1,1.148-.083,1.585,1.585,0,0,0,.574.042,5.468,5.468,0,0,1,1.066-.125L50.8,20.953a0.614,0.614,0,0,1-.287-0.166,0.315,0.315,0,0,0-.082-0.374h0.123v-0.5H50.6c0.046,0.119.007,0.076,0.123,0.125V19.666a11.871,11.871,0,0,1-.164-1.993c-0.1-.455-0.011-1-0.123-1.495-0.093-.41,0-0.879-0.123-1.412a11.605,11.605,0,0,1-.205-2.574,0.2,0.2,0,0,1-.123-0.041,0.5,0.5,0,0,0,.082-0.415c-0.13,0-.1.05-0.123-0.125a2.044,2.044,0,0,0-.041-1.2,0.686,0.686,0,0,1-.41-0.249H49.9l-0.041-.54c-0.283-.018-0.478-0.008-0.82,0V8Zm1.517,4.069a0.2,0.2,0,0,1,.041-0.125,0.8,0.8,0,0,1,.082.125,0.117,0.117,0,0,1,.041.041H50.436V12.069h0.123ZM54,14.809a0.151,0.151,0,0,1,.041.083H54V14.809Zm0.123,0.747c0.014,0.013.082,0.022,0.041,0.083C54.121,15.619,54.039,15.565,54.126,15.556Zm0.984,1.536a0.149,0.149,0,0,1,.041.083H55.11V17.092Zm-17.8.664a0.151,0.151,0,0,1,.041.083H37.314V17.756Zm-2.009.581h0.082v0.042A0.139,0.139,0,0,1,35.305,18.338Zm-0.656.166a0.428,0.428,0,0,1,.246.042A0.428,0.428,0,0,1,34.649,18.5Zm-0.369.789c0.035,0.078.019,0.031,0,.125H34.239Zm-8.2.041a0.2,0.2,0,0,1,.123.042A0.2,0.2,0,0,1,26.079,19.334ZM34.4,19.459a0.151,0.151,0,0,1,.041.083H34.4V19.459Zm26.2,0.083a0.168,0.168,0,0,1,0,.208V19.542Zm-26.079.083a0.151,0.151,0,0,1,.041.083H34.526V19.625Zm25.751,0a0.214,0.214,0,0,1,.041.125H60.277V19.625Zm0.2,0.042a0.15,0.15,0,0,1,.041.083H60.482V19.666Zm-0.123.041a0.151,0.151,0,0,1,.041.083H60.359V19.708Zm-25.71.083a0.151,0.151,0,0,1,.041.083H34.649V19.791Zm0.123,0.166a0.15,0.15,0,0,1,.041.083H34.772V19.957Zm0.123,0.166a0.161,0.161,0,0,1,.082.125H34.936V20.206A0.151,0.151,0,0,1,34.895,20.123Zm-9.8.5h0.082v0.042A0.14,0.14,0,0,1,25.095,20.621Zm-0.082.042h0.082V20.7A0.14,0.14,0,0,1,25.013,20.663Zm-0.123.083h0.082v0.041A0.14,0.14,0,0,1,24.89,20.746Zm40.472,0.249a0.122,0.122,0,0,1,0,.166V20.995Zm-6.561.913a0.262,0.262,0,0,1,.164.042A0.263,0.263,0,0,1,58.8,21.908Zm-45.269.706a0.214,0.214,0,0,1,.041.125H13.532V22.614ZM13.778,22.7a0.15,0.15,0,0,1,.041.083H13.778V22.7ZM29.072,23.4a0.428,0.428,0,0,1,.246.041A0.428,0.428,0,0,1,29.072,23.4ZM6.028,28.551a4.773,4.773,0,0,0,.041.872,6.658,6.658,0,0,0,2.747.041l1.353-.041a0.805,0.805,0,0,1,.451-0.166V28.966Z" transform="translate(-0.031 0.492)"/>
</svg>
