<svg xmlns="http://www.w3.org/2000/svg" width="80" height="40" viewBox="0 0 80 40">
  <defs>
    <style>
      .cls-1 {
        fill: #fff;
        fill-rule: evenodd;
      }
    </style>
  </defs>
  <path id="us_elco_80ft_pt_boat_mod01_ico" class="cls-1" d="M44.707,16.593h0.654v0.05h0.025v0.025H45.362a1.782,1.782,0,0,1-.654.025,1.48,1.48,0,0,0,.025.572,0.791,0.791,0,0,0,.252.273l0.4,0.448a1.61,1.61,0,0,1,.327.273c0.119,0.155.3,0.27,0.4,0.423a0.227,0.227,0,0,0,.025.1h0.4a4.26,4.26,0,0,1,1.032-.025A2.4,2.4,0,0,0,47.6,18.11h0.05v0.1h0.075v0.1a0.778,0.778,0,0,0,.176-0.025c0.054,0.325.237,0.266,0.6,0.249,0.2-.289.467-0.009,0.629-0.075a1.687,1.687,0,0,0,.126-1.119H48.634a0.085,0.085,0,0,0-.025-0.05V17.265h0.025a0.841,0.841,0,0,1,.629-0.348v-0.5h0.1v0.5a0.726,0.726,0,0,1,.654.423H49.364v1.442a1.676,1.676,0,0,1,1.208.671c0.61,0.453,1.152.966,1.762,1.417a4.236,4.236,0,0,0,.78.647V21.393h0.176c-0.008-.12-0.06-0.084,0-0.124a0.132,0.132,0,0,1,.126,0,0.159,0.159,0,0,0-.05.124l1.334-.05,0.025-.075a3.588,3.588,0,0,1,.428-0.025,0.674,0.674,0,0,1,.05.249H55.179v0.025h0.1c0.092-.128.874-0.056,0.957-0.174a0.744,0.744,0,0,1-.2-0.05v-0.05a2,2,0,0,0,.554-0.075,2.97,2.97,0,0,0,.227-0.8c0.123-.372.246-0.815,0.378-1.169a1.294,1.294,0,0,0-.1-0.622h-0.1l-0.025-.05c0.095,0,.089.012,0.126-0.05-0.05-.037.014-0.035-0.075-0.05a0.393,0.393,0,0,0-.05-0.2,0.329,0.329,0,0,0,.151-0.1,1.326,1.326,0,0,1-.227-0.224h-0.05v0.025a1.13,1.13,0,0,1,0,.273,2.5,2.5,0,0,1-.227,1.517,0.653,0.653,0,0,1-.075.3,0.625,0.625,0,0,1-.856-0.249,3.128,3.128,0,0,1-.025-0.423c-0.034-.105-0.135-0.225-0.176-0.323a1.864,1.864,0,0,1-.1-0.622l-0.025-.149a1.444,1.444,0,0,0,.151-0.472c0.082-.021.038,0.012,0.075-0.05a0.2,0.2,0,0,0-.176-0.1,0.679,0.679,0,0,1-.554.124V17.638l-0.277.05a1.016,1.016,0,0,1-.05-0.373,0.178,0.178,0,0,0,.05-0.2,0.441,0.441,0,0,0-.1-0.075,1.06,1.06,0,0,0-.529.124,0.46,0.46,0,0,1-.252.522,0.5,0.5,0,0,1-.1.05v-0.05a0.165,0.165,0,0,1-.025-0.1,0.715,0.715,0,0,0,.227-0.2,1.079,1.079,0,0,0-.05-0.348,0.538,0.538,0,0,0-.579-0.05,0.085,0.085,0,0,0-.025-0.05v-0.05a0.233,0.233,0,0,1,.126-0.075c0.313-.241.544,0.209,0.806,0.224a0.8,0.8,0,0,1,.453-0.1,1.4,1.4,0,0,0,.176.149,0.572,0.572,0,0,0,.076.2V17.165a3.531,3.531,0,0,0,.453-0.025l0.025,0.174h0.05a0.221,0.221,0,0,0,.126.025,0.349,0.349,0,0,0,.025-0.1,2.372,2.372,0,0,1-.277-0.547,4.766,4.766,0,0,0-.629.025,0.654,0.654,0,0,1,.05-0.274v0.174a7.244,7.244,0,0,0,1.158-.075c0.016-.021.034-0.078,0.05-0.1l0.025,0.3H55.758V16.668a1.853,1.853,0,0,0-.327,0v0.05a6.246,6.246,0,0,1,.4.6,0.092,0.092,0,0,1,.05-0.025c0.01-.1-0.011-0.1.05-0.124a0.172,0.172,0,0,0,.1.025c0.023-.06.027-0.04,0.05-0.1h0.025V17.066c-0.264-.047-0.187-0.545-0.176-0.846a0.306,0.306,0,0,0,.176-0.2c0.254,0.016.5,0.048,0.78,0.05V16.2a0.34,0.34,0,0,1,.176.348c0.069,0.14-.13.205-0.176,0.3l0.025,0.2a0.365,0.365,0,0,0-.05.149,0.469,0.469,0,0,0,.151.025,0.471,0.471,0,0,1,.226-0.025c0.021-.081-0.012-0.038.05-0.075a0.56,0.56,0,0,0,.352,0c0.041,0.136.2,0.11,0.378,0.1a6.293,6.293,0,0,1,1.334-.075,7.867,7.867,0,0,0,.906.025c0.293-.063.708,0.045,1.032-0.025a4.389,4.389,0,0,1,.806-0.05V17.24a8.835,8.835,0,0,0-1.812.1,5.433,5.433,0,0,0-.68.025,1,1,0,0,1-.1.075H58.955a3.058,3.058,0,0,1-.78.05,0.755,0.755,0,0,0-.277-0.025c-0.124.027-.241,0.072-0.352,0.1v0.025h0.025a0.565,0.565,0,0,1,.327.224,0.431,0.431,0,0,0,.076.2c0.008,0,.21.068,0.252,0.075,0,0.128,0,.2,0,0.373h-0.3c0.008-.071.027-0.052,0-0.1-0.022.016-.079,0.033-0.1,0.05a0.166,0.166,0,0,1,.025.1,0.213,0.213,0,0,1,.126.025H57.848a1.462,1.462,0,0,0-.05.6c0.054,0.163.182,0.38,0.252,0.547a1.09,1.09,0,0,0,.151.423h0.554a1.049,1.049,0,0,1,.4-0.025,5.59,5.59,0,0,1,1.007,0v0.2a5.908,5.908,0,0,0,0,.97,1.883,1.883,0,0,0,.5.025,5.325,5.325,0,0,1,.982-0.05V21.094h0.227a0.541,0.541,0,0,1,.05-0.249,0.821,0.821,0,0,1,.478-0.1l-0.05.348h0.554v0.1c0.241,0,.5-0.018.7-0.025a6.019,6.019,0,0,0,.906-0.025,0.84,0.84,0,0,0,.453-0.05,0.145,0.145,0,0,1-.151-0.05h0.353a0.867,0.867,0,0,0,.1-0.572h0.151A2.134,2.134,0,0,0,65.6,19.9h0.076V19.826a0.868,0.868,0,0,0,.2-0.025V19.453a0.126,0.126,0,0,0,.025-0.075H65.274V19.3H65a0.272,0.272,0,0,1-.05.075,0.414,0.414,0,0,0,.076.1h-0.05a0.129,0.129,0,0,0-.076-0.025,0.373,0.373,0,0,1,.05-0.149H64.493v0.075a0.564,0.564,0,0,1-.3-0.149h-0.3a2.936,2.936,0,0,0-.478-0.025c0.008-.048,0-0.183,0-0.3,0.312-.035.5-0.031,0.78-0.05a0.95,0.95,0,0,0-.025-0.224h0.277a5.016,5.016,0,0,0-.05-1.169,0.291,0.291,0,0,1,.075-0.348c0.029,0.018.721,0.07,0.78,0.075a0.159,0.159,0,0,1,.025-0.1c0.007,0.34.025,0.743,0.025,1.119v0.448c0.067,0.134.055,0,.05,0.224l5.387-.025V19.03c-1.088,0-2.172,0-3.222.075V19.13a0.389,0.389,0,0,1,.025.2c-0.39.041-.949-0.024-1.334,0.05v0.05a0.8,0.8,0,0,1,.05.348,0.432,0.432,0,0,0,.2.05V19.9c0.082,0.021.038-.012,0.075,0.05a1.4,1.4,0,0,0,.2.5,0.268,0.268,0,0,1,.151.025,0.484,0.484,0,0,0,.2.547,0.222,0.222,0,0,1,.227-0.05,0.889,0.889,0,0,1,.05-0.249,0.8,0.8,0,0,1,.478-0.124l-0.025.273a0.123,0.123,0,0,1,.076.025c-0.082.021-.038-0.012-0.076,0.05H67.791V20.97H68.37a1.054,1.054,0,0,0,.579.05V20.945L69.4,20.92a0.169,0.169,0,0,0,.076.149c0.18-.11.543,0.065,0.755-0.025a1.819,1.819,0,0,1,.6,0L72,21.02V20.9h0.05a2.793,2.793,0,0,0,1.385.124V20.8a0.8,0.8,0,0,1,.327-0.075,0.633,0.633,0,0,1,.126.124,0.325,0.325,0,0,0-.025.174h4.128v0.249h0.856c-0.014-.211-0.025-0.475-0.025-0.721a8.811,8.811,0,0,0,1.133-.1,2.976,2.976,0,0,1,.025.8,0.356,0.356,0,0,1-.1.025,0.1,0.1,0,0,0-.076-0.05v0.05a0.668,0.668,0,0,1,.025.3H79.547c-0.333.592-.666,1.192-1.032,1.765-0.225.351-.534,0.671-0.73,1.044H77.86a0.219,0.219,0,0,1,.126-0.025l-0.1.3-0.378.075a11.007,11.007,0,0,1-1.284,1.567,11.131,11.131,0,0,1-3.046,2.586,4.4,4.4,0,0,1-.579.249c-0.165.072-.338,0.2-0.5,0.273-0.442.191-.941,0.338-1.385,0.5l-0.529.1c-0.825.244-1.817,0.322-2.719,0.522l-0.6.025c-0.593.128-1.288,0.045-1.888,0.174-0.352.076-.735-0.019-1.057,0.05-0.345.074-.718-0.017-1.032,0.05l-1.586.05c-0.141.03-.382-0.012-0.554,0.025-0.854.183-1.864-.034-2.719,0.149-0.22.047-.516-0.015-0.7,0.025-0.388.083-.877-0.051-1.233,0.025H54.877c-0.349.074-.828-0.056-1.208,0.025a7.743,7.743,0,0,1-1.41.025,6.526,6.526,0,0,1-1.183-.025H44.707l-12.612-.1c-4.474,0-8.941-.2-13.367-0.2l-3.147-.05c-0.132.031-.3,0.09-0.428,0.124a2.817,2.817,0,0,0-.931.249,0.072,0.072,0,0,1,.025.025c-0.319.031-.634,0.17-0.931,0.224-0.119.021-.082-0.071-0.2-0.05-0.337.059-.73,0.181-1.057,0.273-0.685.193-1.382,0.276-2.039,0.472-0.323.1-.657,0.14-0.957,0.224a0.629,0.629,0,0,0-.4.124,0.07,0.07,0,0,1,.025.025c-0.322.033-.63,0.173-0.931,0.224-0.119.02-.082-0.071-0.2-0.05a5.243,5.243,0,0,0-.78.2,0.233,0.233,0,0,1,0,.174l-0.277.05a1.669,1.669,0,0,0,.05.273c-0.064.01-.04-0.014-0.05,0.075a1.745,1.745,0,0,1-.227.572c-0.024.006-.01,0.02-0.025,0a1.983,1.983,0,0,1-.076-0.821,1.094,1.094,0,0,1-.352.05,4.314,4.314,0,0,1-.176-1.02l0.227-.025,0.025-.075a0.624,0.624,0,0,1-.025-0.622,0.672,0.672,0,0,1,.1-0.174,0.4,0.4,0,0,0,.126.025,1.187,1.187,0,0,1,.176.274,0.879,0.879,0,0,0,.1.473l0.277-.075a0.169,0.169,0,0,0,.076.149,3.008,3.008,0,0,1,.806-0.2V31.862a3.043,3.043,0,0,0,.78-1.243H8.156a3.592,3.592,0,0,0-.831-0.025c-0.221-.047-0.553.029-0.806-0.025-0.229-.048-0.57.03-0.831-0.025a6.542,6.542,0,0,0-1.233-.05A6.472,6.472,0,0,1,4.3,32.06a0.861,0.861,0,0,1-.126.6A0.542,0.542,0,0,1,3.7,32.632c-0.178-.672-0.574-0.8-0.378-1.666,0.072-.046.11-0.131,0.176-0.174,0.13-.086.333-0.088,0.453-0.174L4,30.469H3.5a3.737,3.737,0,0,0-.856-0.05,1.427,1.427,0,0,0-.176-0.6A5.277,5.277,0,0,1,2.316,29.1H2.266v0.1a1.742,1.742,0,0,1,.076.547H2.215a0.589,0.589,0,0,1-.176.05,3.269,3.269,0,0,0-.227-0.622c-0.122-.431-0.129-0.838-0.252-1.268a7.088,7.088,0,0,1-.277-1.243,1.68,1.68,0,0,1-.227.025l-0.025-.249H0.906v-0.05H1.032a0.279,0.279,0,0,1,.1-0.274l0.025-1.094c-0.064-.01-0.04.014-0.05-0.075,0.1-.055.025-0.093,0.076-0.2l0.126-.1a2.71,2.71,0,0,0-.076-0.622A0.838,0.838,0,0,0,.982,24a0.219,0.219,0,0,0-.126-0.025V23.531l0.277-.025V23.332h0.05a0.133,0.133,0,0,1,.126,0c0,0.1-.014.136,0.05,0.174V23.332a2.762,2.762,0,0,0,.025-0.572,0.786,0.786,0,0,1,.277-0.5,0.687,0.687,0,0,1,1.007.4,3.78,3.78,0,0,1,.025.8H3.323c0-.753-0.046-1.527-0.05-2.213l0.1-.025a2.828,2.828,0,0,0,.453,1.442,1.459,1.459,0,0,1,.2.423H4.279v0.075l1.334-.025a0.277,0.277,0,0,1,0-.124,0.22,0.22,0,0,1,.126-0.025v0.05c-0.064.037-.039,0.011-0.05,0.1l0.2-.025c-0.011.115-.037,0.109-0.05,0.224l2.417-.075c0.085-.343.357-0.586,0.453-0.92H8.483a0.617,0.617,0,0,1-.277.025V22.288h0.3V22.014a0.889,0.889,0,0,1,.2-0.05v-0.1a1.378,1.378,0,0,1-.3.05,1.058,1.058,0,0,0-.252-0.05l-0.05.1a0.462,0.462,0,0,0-.2.025V21.965c-0.024-.016-0.063-0.006-0.1-0.025V21.89a0.446,0.446,0,0,0-.3.05c-0.073-.082-0.117-0.038-0.126-0.2H7.451V21.567H7.678a0.714,0.714,0,0,0-.05-0.2H7.653v0.025a0.36,0.36,0,0,0,.378.149V21.393l0.73-.124-0.025-.646a17.461,17.461,0,0,0-1.863.174,0.326,0.326,0,0,0-.05.2c-0.126.2-.043,0.555-0.176,0.746A4.307,4.307,0,0,1,6.8,20.97a4,4,0,0,0-.076-0.522h0.05a0.171,0.171,0,0,0,.1.025V20.448H6.9a2.006,2.006,0,0,1,.076-0.423c-0.162.007-.213,0-0.227-0.149,0.062-.032.017,0.011,0.05-0.05H6.369a0.282,0.282,0,0,0-.277-0.075V19.677c-0.342,0-.729.008-1.032,0.025a6.859,6.859,0,0,0-.881.025c-0.3.064-.688-0.032-0.957,0.025H2.266c-0.269.058-.656-0.039-0.957,0.025L0.025,19.9A2.011,2.011,0,0,0,0,19.5a0.637,0.637,0,0,1,.2-0.025A1.458,1.458,0,0,0,.73,19.5H1.838l4.254-.1V19.3h0.05c0.033,0.061-.011.017,0.05,0.05V19.279H6.344c0.021-.081-0.012-0.038.05-0.075a3.312,3.312,0,0,0,.73,0V19.179H7.149a0.776,0.776,0,0,1,.076-0.373l-0.05.4a1.151,1.151,0,0,0,.73-0.1H7.451s-0.033.072-.05,0.05V19.13a0.1,0.1,0,0,1-.05-0.1,0.361,0.361,0,0,1,.1-0.025,6.654,6.654,0,0,0,.856,0,0.713,0.713,0,0,1,.05-0.348,1.378,1.378,0,0,0,.076.348,0.525,0.525,0,0,0,.151,0c0.029-.141.189-0.11,0.352-0.1a0.338,0.338,0,0,0,.378.1v-0.05a3.6,3.6,0,0,1-.151-0.423H9.239c0.033,0.061-.011.017,0.05,0.05a0.759,0.759,0,0,1,.352-0.2,3.939,3.939,0,0,1,.327-0.249l0.126,0.025a2.689,2.689,0,0,0,.428-0.224,1.409,1.409,0,0,0,.428.746l0.025,0.274h0.3V19.03h0.05a1.411,1.411,0,0,0,.5.149,0.982,0.982,0,0,1,.957-0.249,3.071,3.071,0,0,1,.025.821,1.794,1.794,0,0,1,.025.647q0.025,0.684.05,1.368c-0.649-.045-1.286.023-2.089,0.025v0.124a1.832,1.832,0,0,1,.227.05v0.249h0.3v0.075h-0.5v0.025a2.8,2.8,0,0,0,.6.87,2.6,2.6,0,0,1,.68-0.025c0.425-.069,1.173-0.007,1.636-0.1V22.835a0.465,0.465,0,0,1-.025-0.149h0.252a0.27,0.27,0,0,0,.1.174V22.711a0.166,0.166,0,0,0,.025-0.1h0.151l-0.025-.87H14.2v0.025a0.239,0.239,0,0,0-.05.124H14.122v-0.1a0.489,0.489,0,0,0,0-.274h0.05a1.437,1.437,0,0,1,.629-0.05l-0.025-.97H14.7c-0.029-.066-0.048-0.052-0.076-0.124a0.427,0.427,0,0,1,.151-0.075l-0.025-.423a1.113,1.113,0,0,0,.1-0.473,6.871,6.871,0,0,0-.3-0.671c-0.219-.513-0.388-1.014-0.6-1.517H13.921v5.4H13.745V17.14a3.678,3.678,0,0,1,0-.547h0.05a1.016,1.016,0,0,1,.352.672c0.2,0.46.407,0.958,0.6,1.417A2.637,2.637,0,0,0,15,19.3a1.085,1.085,0,0,1,.68-0.348v0.273a3.712,3.712,0,0,1,.025.945h-0.05a0.149,0.149,0,0,0-.277.1,0.523,0.523,0,0,0,.126.05,6.387,6.387,0,0,0,.327,1.119,14.982,14.982,0,0,1,1.712-.025,1.122,1.122,0,0,1-.025.373,0.116,0.116,0,0,0-.05-0.124V21.641H17.445v0.622a0.6,0.6,0,0,1,.025.274l0.629-.025V22.139a1.368,1.368,0,0,0,.151-0.224,2.6,2.6,0,0,0,0-.87H18.125a0.3,0.3,0,0,1-.126.05V20.9h0.05a0.4,0.4,0,0,0,.2.025c0-.357-0.085-0.66-0.05-0.92l0.176-.025v-0.05c0.09-.146.043-0.384,0.126-0.522a1.684,1.684,0,0,1,.806-0.522v0.05a6.062,6.062,0,0,1,.025,1.194,0.422,0.422,0,0,0-.3-0.05,0.451,0.451,0,0,0-.025.149,0.764,0.764,0,0,1,.151.075v0.05a0.208,0.208,0,0,0-.151.224,0.67,0.67,0,0,1,.025.3l1.233-.025s0.338-.618.378-0.671a1.7,1.7,0,0,1,.352-0.3c0.117-.087.208-0.242,0.327-0.323a2.722,2.722,0,0,1,1.032-.373,0.374,0.374,0,0,1,.05-0.149h0.025v0.025a0.358,0.358,0,0,0,.378.1c0-.266.049-0.38,0.05-0.646h0.126V18.384h0.252a1.518,1.518,0,0,0-.126-0.423V17.314H22.454a2.217,2.217,0,0,0,0-.622H22.5a0.463,0.463,0,0,1,.3,0,1.662,1.662,0,0,1,.176.249,0.609,0.609,0,0,0,.075.273h1.41v-0.3h-0.1V16.767c0.082-.021.038,0.012,0.076-0.05a0.39,0.39,0,0,1-.076-0.124l0.1,0.025a0.648,0.648,0,0,1,.277-0.448,0.251,0.251,0,0,0,.2.05,1.073,1.073,0,0,1-.1.4h0.68a0.613,0.613,0,0,1,.252-0.05,1.1,1.1,0,0,1,.176-0.124,0.6,0.6,0,0,1,.428.174,1.025,1.025,0,0,1,.151-0.025v0.1c0.089-.018.063-0.03,0.151-0.05V16.394a0.236,0.236,0,0,0,.076-0.1,4.978,4.978,0,0,1,.529-0.025,0.335,0.335,0,0,1,.151.249,0.852,0.852,0,0,0-.05.224H29.1a0.091,0.091,0,0,0,.05.025v0.124H29.1a1.29,1.29,0,0,1-.478.025H27.388a1.693,1.693,0,0,0,.05.4H27.061v0.348c0.009,0,.08-0.016.05,0.025a2.361,2.361,0,0,0-.2.821h0.126c0,0.266.049,0.381,0.05,0.646H26.86c-0.008.159-.048,0.233-0.05,0.423l0.7-.025a6.441,6.441,0,0,0,.025-1.492h0.025V18.036a0.087,0.087,0,0,1,.05.025,1.094,1.094,0,0,1,.025.423v1.044c1.5,0.012,3.048-.2,4.607-0.2a0.119,0.119,0,0,1,.025-0.075c0.035-.033.086-0.017,0.126-0.05a0.713,0.713,0,0,0,.05-0.124c0.167-.228.334-0.459,0.5-0.7,0.395-.554.808-1.1,1.208-1.666s0.809-1.1,1.208-1.666A6.353,6.353,0,0,0,35.9,14.33h0.025v0.224a7.171,7.171,0,0,0-.73,1.02c-0.537.755-1.094,1.5-1.636,2.263-0.229.322-.47,0.64-0.7,0.97a1.835,1.835,0,0,0-.352.5H32.65a2.385,2.385,0,0,0,.378-0.025,6.911,6.911,0,0,0,1.133-.025V19.13a0.94,0.94,0,0,1,.277-0.025v-0.1a0.4,0.4,0,0,1,.2.025v0.05l0.68-.025,0.025-.075a0.331,0.331,0,0,1,.277.075,3.172,3.172,0,0,0,.428-0.547,1.039,1.039,0,0,1-.025-0.423,2.282,2.282,0,0,1-.579-0.1V17.712h0.075v-0.9H36l0.025-5.794h-0.2a2.157,2.157,0,0,1-.076-0.7,0.972,0.972,0,0,1-.982-0.845,1.963,1.963,0,0,0,.453-0.4,1.492,1.492,0,0,1,.957-0.249v-0.1h0.076a1.623,1.623,0,0,0-.025-0.448c-0.236-.053-0.162-0.52-0.151-0.8H36.1V7.467a4.026,4.026,0,0,1,1.183.05l0.025,0.075a0.854,0.854,0,0,1,0,.6,4.741,4.741,0,0,0-.78.124,0.856,0.856,0,0,0-.05.423h0.1v0.1a0.726,0.726,0,0,1,.176.075c0.1,0.134.079,0.339,0.176,0.472,0.027,0.038.131,0.038,0.151,0.075V9.606a0.814,0.814,0,0,0-.352.572c-0.111.013-.09,0.035-0.2,0.05v0.124h0.856V10.4h-0.2a0.376,0.376,0,0,1-.277.373,0.474,0.474,0,0,0-.151-0.174,0.522,0.522,0,0,0-.1.423h-0.2v1.741h0.025a12.148,12.148,0,0,0,.956-0.771h-0.6a0.348,0.348,0,0,1-.025-0.1,1.352,1.352,0,0,1,.6-0.348,3.537,3.537,0,0,0-.05-0.92h0.126a8.518,8.518,0,0,1,.05.92H37.81a1.187,1.187,0,0,0,.4.3,0.085,0.085,0,0,1-.025.05,1.219,1.219,0,0,1-.629.075,0.67,0.67,0,0,1-.428.7,0.452,0.452,0,0,0-.2-0.149,1.2,1.2,0,0,0-.478,1.268h0.4V14.33h-0.4v2.487h0.7v0.9h0.076v0.075h-0.2v0.2h-0.05a1.076,1.076,0,0,1-.529.1l-0.025,1.069,0.151,0.025a0.159,0.159,0,0,0,.025.1,1.912,1.912,0,0,1,.629-0.448,5.015,5.015,0,0,1,2.442-.671V16.369a5.487,5.487,0,0,1-.956-0.025V16.22h0.05a3.579,3.579,0,0,1,.906-0.025,2.664,2.664,0,0,1,.076-1.144c0.013,0.166.03,0.068,0.075,0.149a3.437,3.437,0,0,0-.025.995h0.629v-0.05a0.831,0.831,0,0,1-.05-0.373,1.376,1.376,0,0,1,.806-0.1,1.2,1.2,0,0,1,.075.448h0.076v-0.1a1.064,1.064,0,0,0,.428-0.149,0.378,0.378,0,0,1,.327.124,2.471,2.471,0,0,0,.831.025,2.881,2.881,0,0,0,.025-0.348c-0.035-.005.01,0.02-0.025,0.025-0.02.048-.025-0.05-0.025-0.05a0.469,0.469,0,0,1,.227,0,0.559,0.559,0,0,1,.252.224c0.026,0.071,0,.151.025,0.2a0.222,0.222,0,0,1,.1-0.05,0.126,0.126,0,0,1,.025.075c-0.074-.01-0.032-0.041-0.075.025a0.126,0.126,0,0,0-.025.075H43.5v0.149H43.4v0.249h1.208V7.02A3.953,3.953,0,0,1,44.632,6h0.05v7.883a2.963,2.963,0,0,1,0,.821Zm-7.779-6.565h0.453v0.05H36.929v-0.05Zm6.218,5.545c0.009,0.008.05,0.013,0.025,0.05C43.144,15.611,43.093,15.579,43.147,15.574ZM55.733,15.8a0.1,0.1,0,0,1,0,.124V15.8Zm-31.038.323a0.089,0.089,0,0,1,.025.05H24.695v-0.05ZM55.758,16.2a0.292,0.292,0,0,1,0,.249V16.2Zm-1.334.025L54.6,16.245a0.256,0.256,0,0,1-.05.174,0.119,0.119,0,0,0-.025-0.075c-0.043.022-.032,0.022-0.076,0A0.214,0.214,0,0,1,54.424,16.22Zm-12.587.5a0.759,0.759,0,0,0-.025.448A5.1,5.1,0,0,0,43,17.19v0.7h0.378V17.414h0.076v0.472h0.5V17.862h0.025a0.746,0.746,0,0,1,.076-0.4,0.256,0.256,0,0,0,.126-0.075,2.276,2.276,0,0,0,.025-0.7C43.419,16.692,42.583,16.705,41.838,16.718Zm13.921,0.273a0.089,0.089,0,0,1,.025.05H55.758v-0.05Zm0.025,0.05a0.1,0.1,0,0,1,.05.075H55.809V17.091A0.089,0.089,0,0,1,55.784,17.041Zm-28.647.671h0.05v0.025A0.087,0.087,0,0,1,27.137,17.712Zm-19.761.746a0.1,0.1,0,0,1,0,.124V18.458Zm-0.1.025a0.486,0.486,0,0,1-.05.323V18.657A0.569,0.569,0,0,0,7.275,18.483Zm57.747,0.995h0.05C65.043,19.518,65.062,19.508,65.022,19.478Zm6.872,1.368h0.05V20.87A0.087,0.087,0,0,1,71.894,20.846Zm0.05,0.025H72V20.9A0.087,0.087,0,0,1,71.945,20.87Zm-64.418.3a0.09,0.09,0,0,1,.025.05H7.527v-0.05Zm0.025,0.05a0.089,0.089,0,0,1,.025.05H7.552v-0.05Zm45.916,0a0.214,0.214,0,0,1,.126.025A0.213,0.213,0,0,1,53.468,21.219Zm-0.05.025h0.05v0.025A0.087,0.087,0,0,1,53.417,21.243Zm0.176,0h0.05v0.025A0.086,0.086,0,0,1,53.594,21.243Zm-46.016.025a0.089,0.089,0,0,1,.025.05H7.577v-0.05ZM7.6,21.318a0.09,0.09,0,0,1,.025.05H7.6v-0.05Zm-0.982.423a0.1,0.1,0,0,1,0,.124V21.741ZM6.6,21.865a0.089,0.089,0,0,1,.025.05H6.6v-0.05ZM5.387,22.959a0.213,0.213,0,0,1,.126.025A0.212,0.212,0,0,1,5.387,22.959Zm-0.076.025a0.123,0.123,0,0,1,.076.025A0.123,0.123,0,0,1,5.312,22.984Zm0.2,0a0.123,0.123,0,0,1,.076.025A0.123,0.123,0,0,1,5.513,22.984Zm3.549,7.659c-0.12.258-.273,0.5-0.4,0.746a0.681,0.681,0,0,0-.1.274,0.129,0.129,0,0,0,.076.025,5.014,5.014,0,0,1,1.082-.249c0.647-.182,1.367-0.317,2.014-0.5a3.208,3.208,0,0,0,.957-0.249H11.479a2.077,2.077,0,0,0-.73-0.025Z" transform="translate(0 0.016)"/>
</svg>
