<svg xmlns="http://www.w3.org/2000/svg" width="80" height="40" viewBox="0 0 80 40">
  <defs>
    <style>
      .cls-1 {
        fill: #fff;
        fill-rule: evenodd;
      }
    </style>
  </defs>
  <path id="Color_Fill_1" data-name="Color Fill 1" class="cls-1" d="M44.165,3h0.194V3.1A0.334,0.334,0,0,1,44.165,3Zm-9.3,8.5h0.291c0.2,3.327.472,6.747,0.484,10.41h0.1v0.1l0.484,0.1a3.991,3.991,0,0,1,3-1.05V19.236H38.257V19.045h0.968v-1.05h0.194v1.05H40c-0.041-.336-0.194-0.289.1-0.477a1.3,1.3,0,0,1,.678-0.1c0.092,0.324.037,0.3,0.387,0.382,0.45-.237,1.239.281,1.55-0.287a0.333,0.333,0,0,1-.194-0.1h0.291a1.431,1.431,0,0,1,.194.382,0.708,0.708,0,0,1,0,.573h1.162v-0.86h0.194v0.86a1.268,1.268,0,0,1,.678.1H44.358v0.668c1.143,0.772.789,1.461,2.906,1.433V21.051h0.1a0.968,0.968,0,0,0,.775.573v-0.1c-0.347-.04-0.244.045-0.387-0.191a5.312,5.312,0,0,0,1.162-.1v0.287a0.333,0.333,0,0,0-.194.1c2,0.027,2.13,2.192,3.971,2.292,0.62-.375,3.7-0.391,4.649-0.573V20.955a3.8,3.8,0,0,1,.872.1,0.584,0.584,0,0,0-.194.382h0.1a1.568,1.568,0,0,1,1.065-.477A1.174,1.174,0,0,1,59.855,20a3.226,3.226,0,0,1,1.162.669,0.483,0.483,0,0,0-.1.287h0.872a0.458,0.458,0,0,1,.1-0.287v0.287a2.062,2.062,0,0,1,.969.1,1.034,1.034,0,0,0-.581.1,8.045,8.045,0,0,1,1.937.191h1.55l4.552-.1v0.382c-1.691-.019-5.812-0.507-6.877.191h0.1a8.311,8.311,0,0,0,2.131,0v1.433a17.384,17.384,0,0,1,5.133.669c0.8,0.352,2.542-.231,3-0.287v0.287h4.165a1.362,1.362,0,0,0,.872.191,1.9,1.9,0,0,0-.1-0.669h0.775a0.848,0.848,0,0,1,.484-0.1v0.764a0.474,0.474,0,0,0-.291.1,0.483,0.483,0,0,1,.1.287,0.472,0.472,0,0,0-.291.1c-0.712.717-.93,1.967-1.743,2.579,0.136,0.227.164,0.055,0.1,0.287-1.931,1.842-3.415,3.945-6.1,5.062-2.2.916-4.805,0.677-7.458,1.242l-4.068.1a21.37,21.37,0,0,1-4.165.191h-1.55a31.288,31.288,0,0,1-5.714.1l-11.913-.1-8.329-.1a28.377,28.377,0,0,1-5.133-.1c-1.773-.375-3.966.253-5.618-0.1a9.207,9.207,0,0,0-4.455.477c-0.949.332-1.87,0.219-2.809,0.478A20.181,20.181,0,0,1,6,35.758v0.286H5.714L5.617,37H5.424a1.221,1.221,0,0,0-.194-0.86c-0.152.119-.049,0.061-0.194,0a0.817,0.817,0,0,1-.1-0.477,2.987,2.987,0,0,1,.194-1.337H5.327v0.1a0.7,0.7,0,0,1,.194.573,3.454,3.454,0,0,0,1.259-.1,3.2,3.2,0,0,0,.678-1.337l-3.777-.1a5.41,5.41,0,0,1-.291,2.1,0.848,0.848,0,0,1-.484.1,2.507,2.507,0,0,1-.387-1.815L3.2,33.562v-0.1a3.876,3.876,0,0,1-1.453-.191,2.422,2.422,0,0,0-.291-1.146V32.7H1.162V32.511a7.989,7.989,0,0,1-.678-2.865H0.194V29.073H0.775L0.581,27.927H0.387a1.982,1.982,0,0,1-.1.955,11.537,11.537,0,0,0,.1-1.719l-0.1-.287H0V26.4a1.1,1.1,0,0,1,.872,0V26.208a0.851,0.851,0,0,1-.291-0.86c0.575-.371,1.26-0.425,1.259.573a0.486,0.486,0,0,0-.291.478H1.743c0.143-.267.075,0.119,0.291-0.1a0.483,0.483,0,0,0,.1-0.287,9.7,9.7,0,0,1-.678-3.534A12.107,12.107,0,0,0,2.421,26.4,3.865,3.865,0,0,1,3.2,26.3a8.1,8.1,0,0,0-.1-1.146c0.369-.315,3.453-0.276,4.165-0.287a0.273,0.273,0,0,0,.1.1,5.294,5.294,0,0,0-.1,1.051c0.342-.069.24-0.117,0.581-0.191a5.256,5.256,0,0,0-.1-0.764A0.7,0.7,0,0,0,8.136,24.3a1.249,1.249,0,0,0,.1-0.669H8.039a0.968,0.968,0,0,1-.484.287v-0.1a1.576,1.576,0,0,0,.872-1.337h-0.1v-0.1l-0.872-.1a2.03,2.03,0,0,1-.194.478h-0.1V22.579a1.1,1.1,0,0,0,.194-0.287H6.489a6.862,6.862,0,0,0-2.518-.1V22.006l3.584-.1L7.942,20.86h0.1v0.287a3.121,3.121,0,0,0-.387.764H8.039a5.069,5.069,0,0,0,1.162,0V21.433c-0.245-.037-0.153.055-0.194-0.287H9.1a0.326,0.326,0,0,0,.1.191,1.225,1.225,0,0,1,0-.478H9.976v0.86a0.813,0.813,0,0,1,.387.287v-0.1a0.342,0.342,0,0,0,.1-0.191c0.451,0.312.259,0.053,1.065,0.191a1.271,1.271,0,0,1,1.259-.669v0.191c-0.4-.106-0.557-0.066-0.581.477a0.418,0.418,0,0,1,.29.287H12.3a0.731,0.731,0,0,0-.581-0.573,2.028,2.028,0,0,0-.1.669,10.012,10.012,0,0,0-2.034.1c-0.245.14-.15,0.042-0.194,0.382a0.343,0.343,0,0,0-.1.191h0.1s0.042-.379.1-0.191v0.1c0.324,0.287.213,1.316,0.194,1.91a3.628,3.628,0,0,0,1.065.1,2.961,2.961,0,0,1,1.259-.1v0.191a2.564,2.564,0,0,0-.1,1.146l1.065-.1v-6.59h0.194v0.1c0.478,0.633.536,2.219,1.259,2.579a0.875,0.875,0,0,1,.581-0.287v1.242c-0.284-.038-0.121-0.156-0.291.1a2.94,2.94,0,0,1,.387,1.146h1.743l-0.1,1.146h0.678c0.024-.591.177-0.79,0.194-1.433-0.257-.113-0.174.086-0.29-0.191,0.546-.384.036-1.572,0.968-1.91a0.66,0.66,0,0,1,.387-0.1v1.146H18.305v0.1c0.2,0.2.117,0.206,0.1,0.668h1.259a2.576,2.576,0,0,1,2.518-1.719,1.024,1.024,0,0,1,.1-0.573,2.6,2.6,0,0,1,.387-0.287,0.483,0.483,0,0,1-.1-0.287h0.484V20.191H22.567a1.22,1.22,0,0,1-.1.669V20.191H21.792c-0.006-.56-0.1-0.615.387-0.668a0.723,0.723,0,0,0,0,.573h0.1V19.809a0.343,0.343,0,0,1-.1-0.191h0.1v0.1c0.428,0.483.636,0.416,1.55,0.382a2.142,2.142,0,0,1,.1-0.955l0.387-.1c-0.039.216-.089,0.1,0,0.287,0.452,0.273,1.283.017,1.743,0.191,0.086-.454.247-0.407,0.775-0.382v0.478h1.743v0.191H26.828v0.382H26.538a4.357,4.357,0,0,1-.194.86l0.194,0.955c-0.091.193-.219-0.075-0.291,0.477h0.194a5.419,5.419,0,0,1,1.84-.1l3.487-.191a1.5,1.5,0,0,1,.678-0.764v0.191a1.915,1.915,0,0,0-.581.573h1.162a2.707,2.707,0,0,1,2.325-.191V20a3.985,3.985,0,0,1-.1-1.624h-0.1a0.855,0.855,0,0,1-.291.287V18.472c0.411-.3.332-1.285,0.291-2.006Zm9.3,5.157h0.194v0.477H44.165V16.657Zm0,1.337h0.194v0.382H44.165V17.994Zm-3.874.573v0.477a0.472,0.472,0,0,0,.291-0.1,0.637,0.637,0,0,0,.1-0.382H40.291Zm-5.521.1c0.12,0.15.062,0.049,0,.191a1.532,1.532,0,0,1-.484.478A2.441,2.441,0,0,1,34.77,18.663Zm-8.523.573v0.382h0.387V19.236H26.247Zm13.172,0V20h0.968V19.523H40V19.236H39.419Zm0.678,0v0.191l0.291-.1v-0.1H40.1Zm-5.908.1c0.12,0.15.062,0.049,0,.191A1.531,1.531,0,0,1,33.7,20,2.439,2.439,0,0,1,34.189,19.332Zm6.392,0.191v0.1h-0.1c-0.186.074,0.194,0.1,0.194,0.1v-0.1h0.1A0.351,0.351,0,0,0,40.581,19.523ZM41.356,20l2.421,0.1V19.523a13.563,13.563,0,0,0-2.421.1V20Zm2.615-.477a1.481,1.481,0,0,0-.1.477h0.1v0.1h0.194V19.523H43.971Zm-3,.191-0.1.287h0.194A0.458,0.458,0,0,0,40.969,19.714ZM26.634,20.1c-0.08-.31.047-0.146-0.194-0.287,0,0.272.076,0.037-.1,0.287h0.291ZM24.7,20a0.518,0.518,0,0,0,.581,0H24.7Zm8.91,0c0.12,0.15.062,0.049,0,.191a1.912,1.912,0,0,1-.581.573A2.964,2.964,0,0,1,33.608,20ZM14.044,24.393a7.537,7.537,0,0,0-.775-4.2h-0.1v0.191c0.373,0.594,0,4.534.194,5.539h0.1v-0.1h0.1c-0.1-.2-0.043-0.91-0.194-1.433h0.678Zm9.1-4.2,0.1,1.146h1.743V21.051a0.633,0.633,0,0,1-.387-0.1,0.725,0.725,0,0,0,.872-0.764H23.148Zm3,0a0.351,0.351,0,0,0,.194.1A0.351,0.351,0,0,0,26.15,20.191Zm33.608,0.1a0.351,0.351,0,0,0,.194.1A0.351,0.351,0,0,0,59.758,20.287Zm-51.622.1a0.343,0.343,0,0,1,.1.191h-0.1V20.382Zm-0.1.191a0.483,0.483,0,0,1,.1.287h-0.1V20.573Zm17.627,0c-0.132.2-.28,0.32-0.291,0.382a0.351,0.351,0,0,0,.194.1,1.721,1.721,0,0,0,.291-0.478H25.666Zm-14.141.191c0.034,0.029.194,0.05,0.1,0.191C11.514,20.908,11.321,20.785,11.525,20.764Zm21.4,0c0.12,0.15.062,0.049,0,.191a1.532,1.532,0,0,1-.484.477A2.441,2.441,0,0,1,32.93,20.764Zm26.634,0c0.166,0.084.124,0.085,0.291,0H59.564Zm-33.7.1a0.351,0.351,0,0,0,.194.1A0.351,0.351,0,0,0,25.86,20.86Zm-15.787.1a0.5,0.5,0,0,1,0,.573V20.955Zm47.361,0.191v0.287h0.484V21.146H57.433Zm-47.07.1a2.633,2.633,0,0,1,1.162.1C10.9,21.361,10.519,21.531,10.363,21.242Zm47.845,0.191a0.99,0.99,0,0,0-.194.573,2.305,2.305,0,0,1,.484.764h0.1a3.4,3.4,0,0,1,.291-1.337H58.6a0.351,0.351,0,0,1-.194.1,1.356,1.356,0,0,1-.1.478h-0.1V21.815A0.276,0.276,0,0,0,58.208,21.433Zm-47.651.1c0.314,0.079.148-.047,0.291,0.191h-0.1C10.679,21.636,10.629,21.611,10.557,21.528Zm46.877,0v0.764h0.484V22.1a0.614,0.614,0,0,1,0-.573H57.433Zm0,0.955v0.86h0.484v-0.86H57.433Zm0.581,0.764H58.5v-0.1a1.26,1.26,0,0,1-.387-0.573h-0.1v0.669ZM8.523,22.77l-0.1.191C8.6,22.827,8.523,22.77,8.523,22.77Zm0.872,0.287a0.351,0.351,0,0,0,.194.1A0.351,0.351,0,0,0,9.395,23.056Zm5.327,0.764V24.3h0.194V24.107C14.849,24.033,14.788,23.894,14.722,23.82Zm3.68,0.1v0.478h0.1l1.065-.382v-0.1H18.4Zm53.559,0.1a0.518,0.518,0,0,0,.581,0H71.961Zm3.1,0a0.518,0.518,0,0,0,.581,0H75.061Zm1.55,0a0.66,0.66,0,0,0,.678,0H76.61ZM0.872,29.646v0.191h0.1V29.646h-0.1Zm0.1,0.287a0.458,0.458,0,0,0,.1.287V29.933h-0.1Zm0.1,0.477a0.458,0.458,0,0,0,.1.287V30.41h-0.1Zm0.1,0.382a0.611,0.611,0,0,0,.1.382A0.611,0.611,0,0,0,1.162,30.792Zm0.1,0.478a0.458,0.458,0,0,0,.1.287V31.27h-0.1Zm7.07,2.292a6.244,6.244,0,0,0-.484,1.051H8.232c0.973-.637,2.741-0.281,3.68-0.955A13.569,13.569,0,0,1,8.329,33.562Zm3.68,0.382c-0.768.47-3.79,0.544-4.165,1.146H8.039A23.917,23.917,0,0,1,12.4,34.039v-0.1H12.01ZM6.683,35.185A2.263,2.263,0,0,1,6,35.376v0.1H6.392a2.8,2.8,0,0,1,.484-0.191A0.351,0.351,0,0,0,6.683,35.185Z"/>
</svg>
