<svg xmlns="http://www.w3.org/2000/svg" width="80" height="40" viewBox="0 0 80 40">
  <defs>
    <style>
      .cls-1 {
        fill: #fff;
        fill-rule: evenodd;
      }
    </style>
  </defs>
  <path id="us_elco_80ft_pt_boat_ico" class="cls-1" d="M44.243,2h0.075c0,5.644.023,11.5,0.025,16.951a2.471,2.471,0,0,1,.68.026,0.088,0.088,0,0,1-.025.051,1.735,1.735,0,0,1-.655.026v0.613a2.026,2.026,0,0,1,.352.383c0.254,0.289.561,0.543,0.831,0.817,0.06,0.061.226,0.331,0.277,0.357h0.4a4.287,4.287,0,0,1,1.058-.025V20.534H47.34c0.013,0.113.035,0.092,0.05,0.2a0.4,0.4,0,0,0,.2-0.051,0.527,0.527,0,0,0,.075.255,1.354,1.354,0,0,0,.529.026,0.217,0.217,0,0,1,.252-0.128,0.337,0.337,0,0,1,.3.076l0.2-.076v0.332H48.927a0.3,0.3,0,0,0-.151-0.076v0.076a0.093,0.093,0,0,1,.025.051h0.554c0.052,0.035.14,0.017,0.2,0.051a6.926,6.926,0,0,1,.68.613c0.558,0.424,1.054.9,1.612,1.328a4.6,4.6,0,0,0,.982.817,0.152,0.152,0,0,1,.05-0.1h0.126a0.373,0.373,0,0,0-.025-0.128,0.165,0.165,0,0,1,.126,0h0.05a0.165,0.165,0,0,0-.05.128l1.259-.026a0.423,0.423,0,0,0,.076-0.077A1.276,1.276,0,0,1,54.92,23.8v0.051a0.174,0.174,0,0,1,.025.1l1.259-.026-0.025-.511a0.724,0.724,0,0,1,.73.179c0.053,0.063.029,0.206,0.076,0.281a0.27,0.27,0,0,0,.151.026,2.716,2.716,0,0,1,.755-0.026,8.891,8.891,0,0,1,1.234-.051h0.529c0.245-.053.605,0.035,0.881-0.026a6.68,6.68,0,0,1,.982-0.051h0.806a10.542,10.542,0,0,1,1.083-.025c0.285-.062.691,0.043,1.007-0.026,0.293-.064.708,0.045,1.032-0.026a9.722,9.722,0,0,1,1.637-.051l-0.025-.485a2.553,2.553,0,0,1,.629.051,1.286,1.286,0,0,0,.151.2v0.153H68.82l0.025-.077,0.453-.026a0.707,0.707,0,0,0,.075.153c0.186-.117.562,0.07,0.781-0.026s0.614,0.074.957,0a4.479,4.479,0,0,1,.806-0.026h1.46v-0.23a0.759,0.759,0,0,1,.353-0.077,0.362,0.362,0,0,1,.1.306h4.18V23.8h0.831v-0.74c0.416,0,.794-0.08,1.158-0.1v0.817a0.355,0.355,0,0,1-.1.026,0.1,0.1,0,0,0-.076-0.051V23.8a0.781,0.781,0,0,1,.025.332h-0.3a27.7,27.7,0,0,1-1.763,2.885h0.151a0.127,0.127,0,0,1,.076-0.026v0.026a0.563,0.563,0,0,1-.176.281c-0.082.058-.2,0.023-0.3,0.076a3.241,3.241,0,0,0-.4.587c-0.3.419-.7,0.781-1.007,1.2l-0.6.587a3.725,3.725,0,0,1-.781.74c-0.185.14-.341,0.348-0.529,0.485a12.361,12.361,0,0,1-2.367,1.353,18.155,18.155,0,0,1-2.72.791c-0.581.145-1.182,0.152-1.737,0.281h-0.3c-0.478.107-1.059,0.047-1.536,0.153l-2.216.128H62.8c-0.838.184-1.828-.032-2.669,0.153-0.164.036-.4,0-0.529,0.026H59.049c-0.141.031-.382-0.012-0.554,0.026a7.175,7.175,0,0,1-1.41.077H56.229c-0.349.076-.828-0.058-1.209,0.026-0.349.076-.828-0.058-1.209,0.026a4.829,4.829,0,0,1-.881.026H51.193l-5.641-.026H43.639a5.179,5.179,0,0,1-.957-0.026H40.34l-3.022-.026c-0.72,0-1.514.037-2.191-.026H33.063a4.28,4.28,0,0,1-.781-0.026H29.814a8.924,8.924,0,0,0-1.687-.026H27.649c-0.512-.112-1.265.089-1.788-0.026s-1.265.089-1.788-.026a7.567,7.567,0,0,0-1.385-.026l-1.964-.051a6.2,6.2,0,0,1-1.158-.026c-0.468-.1-1.049.071-1.486-0.026H16.821c-0.366-.078-0.861.058-1.259-0.026a1.862,1.862,0,0,0-.655-0.026c-0.157.04-.374,0.106-0.529,0.153a2.719,2.719,0,0,0-.856.23h0.025v0.026H13.522a6.284,6.284,0,0,1-1.007.255V34.243l-4.608,1.1v0.077c-0.311.034-.62,0.177-0.907,0.23-0.121.022-.105-0.074-0.227-0.051-0.242.045-.528,0.146-0.781,0.2v0.051a0.223,0.223,0,0,1,.025.128l-0.3.051a0.966,0.966,0,0,0,.076.332H5.766a0.155,0.155,0,0,0-.05-0.051A1.475,1.475,0,0,1,5.489,37H5.439a7.981,7.981,0,0,1-.05-0.868l-0.378.077c-0.019-.2-0.106-0.407-0.126-0.587-0.009-.081.043-0.021,0.05-0.077a1.256,1.256,0,0,0-.1-0.408,0.294,0.294,0,0,0,.277-0.1c-0.207-.164-0.142-0.808.176-0.817a1.092,1.092,0,0,1,.2.332,1.575,1.575,0,0,0,.076.46,1,1,0,0,1,.3-0.077,0.41,0.41,0,0,0,.05.153,4.479,4.479,0,0,1,.856-0.23,0.573,0.573,0,0,1,.2-0.179l0.176-.409A4.053,4.053,0,0,0,7.529,33.5H7.3A3.388,3.388,0,0,0,6.5,33.477c-0.229-.05-0.571.031-0.831-0.025-0.221-.048-0.553.029-0.806-0.026a6.316,6.316,0,0,0-1.209-.051A7.026,7.026,0,0,1,3.5,34.983a1.014,1.014,0,0,1-.126.638,0.558,0.558,0,0,1-.453,0,5.331,5.331,0,0,1-.5-1.123,1.636,1.636,0,0,1,.1-0.664,2.909,2.909,0,0,1,.252-0.2c0.166-.078.312,0,0.378-0.179a0.5,0.5,0,0,0,.05-0.1H2.669a7.287,7.287,0,0,0-.856-0.077,1.878,1.878,0,0,0-.176-0.613l-0.151-.74H1.435v0.1a2.662,2.662,0,0,1,.076.562H1.46a1.2,1.2,0,0,1-.252.077,0.409,0.409,0,0,0-.151-0.306,2.269,2.269,0,0,1-.1-0.434c-0.081-.295-0.07-0.548-0.151-0.842-0.148-.536-0.256-1.128-0.378-1.685H0.353a0.169,0.169,0,0,1-.126.051A0.851,0.851,0,0,1,.2,29.188H0.05V29.112H0.2V28.856H0.277a4.8,4.8,0,0,0-.025-1.225c0.118-.053.041-0.123,0.1-0.23l0.126-.077A5.69,5.69,0,0,0,.4,26.661L0,26.61V26.15l0.3-.026A0.171,0.171,0,0,1,.3,26c0.032-.083.022-0.067,0.126-0.077C0.457,25.953.482,26,.5,25.972a1.5,1.5,0,0,0,.05-0.715,1.4,1.4,0,0,1,.252-0.408,0.7,0.7,0,0,1,1.007.306,4.754,4.754,0,0,1,.05.919H2.04V26H2.115a5.758,5.758,0,0,0-.378-1.659l-0.05-.332c-0.1-.337-0.124-0.759-0.227-1.123a3.373,3.373,0,0,1-.176-0.766,0.351,0.351,0,0,1,.1-0.026L1.41,22.142a6.7,6.7,0,0,1,.151.766c0.1,0.354.2,0.716,0.3,1.072,0.105,0.378.131,0.781,0.227,1.123a2.7,2.7,0,0,0,.227.868,0.564,0.564,0,0,0,.453.1,1.127,1.127,0,0,1,.453-0.026,7.1,7.1,0,0,0-.076-1.123h-0.1V24.772a6.173,6.173,0,0,1,1.36-.128H5.162c0.285-.062.691,0.043,1.007-0.026a3.94,3.94,0,0,1,1.209,0v0.153a0.316,0.316,0,0,0-.1.026,5.389,5.389,0,0,1,0,.945,1.422,1.422,0,0,0,.3-0.051V25.563a0.3,0.3,0,0,0,.252-0.1,0.937,0.937,0,0,0,.025-0.383,0.12,0.12,0,0,1-.076-0.026,0.3,0.3,0,0,0,.025-0.23h-0.1V24.67a1.285,1.285,0,0,0,.428-0.128,7.272,7.272,0,0,0,.126-1.251,0.453,0.453,0,0,1-.1-0.077,0.071,0.071,0,0,0-.025.026c-0.218.07-.338,0.283-0.554,0.357V23.572a0.183,0.183,0,0,1-.05-0.1,1.334,1.334,0,0,0,.554-0.459c0.02-.024.11-0.026,0.126-0.051s0.035-.355.076-0.434a0.631,0.631,0,0,0,.2-0.332,0.963,0.963,0,0,1-.05-0.153,7.054,7.054,0,0,0-.932-0.2,0.774,0.774,0,0,1-.327.536V22.347H7.151c0.078-.174.172-0.32,0.252-0.511H6.522a1.269,1.269,0,0,0-.655-0.051l-1.889-.026V21.606H6.522V21.53H7.529a12.341,12.341,0,0,0,.68-1.634h0.05v0.077a5.331,5.331,0,0,0-.4,1.072,0.765,0.765,0,0,0-.151.409,1.3,1.3,0,0,0,.73.1V21.53H8.461V21.453c0.358,0,.426.05,0.781,0.051V21.453c-0.071-.082-0.032-0.09,0-0.179a0.438,0.438,0,0,1-.2-0.536c0.024-.055.127-0.1,0.151-0.153l-0.025-.128H9.317l0.655-.1a0.908,0.908,0,0,0,.2.23v0.408a0.509,0.509,0,0,1-.05.434h0.1a0.31,0.31,0,0,1,.1-0.1v0.051c-0.056.042-.076,0.044-0.05,0.1,0.031,0.079.01,0.058,0.1,0.077l0.353-.664h-0.3c-0.021.083,0.012,0.039-.05,0.077a1.193,1.193,0,0,1,.025-0.536,0.85,0.85,0,0,0,.025.357,4.151,4.151,0,0,0,1.032.025,4.163,4.163,0,0,0,.025-0.459l0.176-.026v0.179l-0.151-.026v0.332a0.131,0.131,0,0,1,.025.077H10.954a2,2,0,0,0-.227.664H10.9V21.376h0.478v0.1h0.1a0.273,0.273,0,0,1,.025-0.153,0.448,0.448,0,0,1,.151-0.179,0.8,0.8,0,0,1,.453-0.026,0.51,0.51,0,0,1,.579-0.332,0.23,0.23,0,0,1,.151.153,0.072,0.072,0,0,0-.025.026,0.674,0.674,0,0,0-.453,0,1.3,1.3,0,0,1-.151.2,0.494,0.494,0,0,0,.3.511c-0.016.022-.034,0.08-0.05,0.1a0.168,0.168,0,0,0-.1-0.026,0.887,0.887,0,0,1-.227-0.255,0.388,0.388,0,0,1-.05-0.255c-0.154-.007-0.2-0.048-0.378-0.051a0.462,0.462,0,0,1-.076.1l0.025,0.587-0.3-.026v0.077H10.778c-0.077-.043.015-0.066-0.176-0.077a0.763,0.763,0,0,1-.63.1,0.618,0.618,0,0,0-.554.026,0.894,0.894,0,0,1-.05.281,0.993,0.993,0,0,1,.327,1,0.412,0.412,0,0,0-.05.255,5.328,5.328,0,0,1,.1,1,20.811,20.811,0,0,1,2.291-.026v0.153a0.12,0.12,0,0,0-.075.025,5.658,5.658,0,0,0-.025,1.123,7.829,7.829,0,0,0,.906-0.077,1.936,1.936,0,0,0,.025-0.689h0.176V20.789c0-.574-0.054-1.339-0.025-1.787a0.621,0.621,0,0,0,.075-0.077A0.131,0.131,0,0,1,13.22,19a3.177,3.177,0,0,1,.2.587c0.188,0.449.392,0.931,0.579,1.378a2.329,2.329,0,0,0,.327.766,1.254,1.254,0,0,1,.655-0.332,0.985,0.985,0,0,1,.025.383,3.1,3.1,0,0,1,0,.893,0.339,0.339,0,0,0-.277-0.077,0.269,0.269,0,0,0-.05.153,0.263,0.263,0,0,1,.151.153,4.331,4.331,0,0,0,.327,1.072,9.824,9.824,0,0,1,1.712-.026v0.332a0.092,0.092,0,0,1,.025.051h-0.05c0-.1.012-0.09-0.05-0.128V24.185H16.771v0.281a0.625,0.625,0,0,1,.025.281h0.025V24.721a1.9,1.9,0,0,1,.352-0.766c0.024-.006.01-0.02,0.025,0a1.087,1.087,0,0,1,.378.715h0.05a3.568,3.568,0,0,1,.151-0.689l-0.025-1.021H17.677c-0.029-.068-0.048-0.054-0.075-0.128a0.279,0.279,0,0,0,.151-0.332,1.05,1.05,0,0,1,.5-1.021,4.11,4.11,0,0,1,.4-0.128,0.983,0.983,0,0,1,.025.383,3.125,3.125,0,0,1,0,.894,0.338,0.338,0,0,0-.277-0.077,0.3,0.3,0,0,0-.05.179h0.076a0.111,0.111,0,0,0,.075.077,0.087,0.087,0,0,1-.025.051,0.622,0.622,0,0,0-.126.128,6.347,6.347,0,0,1,.05,1.047h0.076a6.862,6.862,0,0,1,.73-0.255H19.49l0.075-.281a3.547,3.547,0,0,1,.277-0.587,2.758,2.758,0,0,1,2.367-1.3c0-.279.049-0.406,0.05-0.689h0.126v-0.1h0.252a1.627,1.627,0,0,0-.126-0.434V19.717H21.857a0.088,0.088,0,0,0-.025-0.051,2.324,2.324,0,0,0,.025-0.613h0.05a0.532,0.532,0,0,1,.252-0.026,1.367,1.367,0,0,1,.227.306,0.618,0.618,0,0,0,.076.281h1.41V19.309h-0.1V19.155h0.075L23.821,19c-0.08,0-.034.043-0.076-0.025a0.309,0.309,0,0,1,.151,0,0.546,0.546,0,0,1,.252-0.434c0.048,0.01.145,0.01,0.227,0.026v0.051a0.229,0.229,0,0,0-.2.076c0.017,0.026.032,0.1,0.05,0.128a0.39,0.39,0,0,1,.126.1,0.316,0.316,0,0,0-.1.026v0.026h0.705a0.6,0.6,0,0,1,.252-0.051,1.1,1.1,0,0,1,.176-0.128,0.572,0.572,0,0,1,.428.179,0.986,0.986,0,0,1,.151-0.026v0.1c0.089-.018.063-0.031,0.151-0.051l0.025-.281a0.231,0.231,0,0,1,.126-0.077,0.735,0.735,0,0,1,.453,0,0.233,0.233,0,0,1,.176.179,0.606,0.606,0,0,0-.05.281,9.869,9.869,0,0,1,1.763.026v0.128h-0.05a1.259,1.259,0,0,1-.478.026H26.843a1.592,1.592,0,0,0,.05.409,1.432,1.432,0,0,1-.4.025,2.173,2.173,0,0,1,0,.638,1.947,1.947,0,0,0-.126.562H26.49l0.025,0.689H26.289c0,0.177-.048.238-0.05,0.434a4.89,4.89,0,0,0,.755-0.051c0.169-.025.436,0.039,0.529,0.026a1.324,1.324,0,0,0,.453,0,0.374,0.374,0,0,1,.076-0.077,2.328,2.328,0,0,0,.554,0c0.123-.046.139-0.233,0.277-0.281h0.352a2.188,2.188,0,0,1,.73.026,0.124,0.124,0,0,0,.025.077,0.452,0.452,0,0,1,.4-0.077V21.606a0.947,0.947,0,0,0,.378.026,0.569,0.569,0,0,1,.05.2h0.025V21.81a4.022,4.022,0,0,0,.881,0,6.594,6.594,0,0,1,.755-0.894c0.559-.75,1.23-1.394,1.788-2.144a5.887,5.887,0,0,0,.957-1.174l-0.2-4.391h-0.1V13.156H35l-0.076-1.481a3.735,3.735,0,0,1-.025-0.536,0.437,0.437,0,0,1,.327-0.026v0.026a1.528,1.528,0,0,0,.025.562v0.766a6.569,6.569,0,0,1,.05.664h0.1v0.051H35.3a6.781,6.781,0,0,0,.076,1.353c0.069,0.316-.012.658,0.05,0.945V15.99c0.1,0.474.04,1.106,0.126,1.557,0.041,0.215-.059.645,0,0.919,0.073,0.34-.03.748,0.05,1.123q0.05,1,.1,1.991a0.154,0.154,0,0,1,.05.051,2.278,2.278,0,0,1,.378,0v0.1H36.16a4.159,4.159,0,0,1,1.989-1.021,7.554,7.554,0,0,0,1.083-.153,1.389,1.389,0,0,0,.025-0.511V18.721a5.5,5.5,0,0,1-.982-0.026V18.568h0.05a3.616,3.616,0,0,1,.932-0.026,2.969,2.969,0,0,1,.076-1.2c0.013,0.165.052,0.088,0.075,0.153s-0.025.875-.025,1.047l0.63-.026V18.466a0.933,0.933,0,0,1-.05-0.357,1.559,1.559,0,0,1,.781-0.128,1.126,1.126,0,0,1,.1.128,0.57,0.57,0,0,0,.075.357v-0.1a2.709,2.709,0,0,1,.6-0.153,0.752,0.752,0,0,1,.176.128,2.353,2.353,0,0,0,.907-0.026,0.628,0.628,0,0,1-.075-0.332,0.624,0.624,0,0,1,.2-0.026V17.93h0.025a1.115,1.115,0,0,0,.2.2l0.076,0.255c0.061-.013.031-0.041,0.076,0.025a0.135,0.135,0,0,0-.076.128H43.11V18.7h-0.1v0.255h1.234V2ZM33.667,21.708V21.581h0.05c0.048-.03.165,0.01,0.227-0.026l0.025-.077a3.224,3.224,0,0,1,.529.051,1,1,0,0,1,.025-0.23,0.5,0.5,0,0,0,.176-0.153l0.227-.026a0.533,0.533,0,0,0,.453-0.638,2.761,2.761,0,0,1-.025-0.638c-0.035-.167.017-0.439-0.025-0.638a7.1,7.1,0,0,1-.075-1.378H35.228c-0.2.315-.512,0.549-0.73,0.842-0.551.741-1.212,1.378-1.763,2.119a8.216,8.216,0,0,0-.856,1h0.5Zm9.09-3.829a0.092,0.092,0,0,1,.025.051H42.757V17.879ZM24.1,18.492h0.05C24.119,18.533,24.138,18.523,24.1,18.492Zm15.285,0.23v0.817a1.953,1.953,0,0,0,.856,0c0.088-.028.114-0.073,0.2-0.1V19.053a1.682,1.682,0,0,1-.478-0.026,0.756,0.756,0,0,0,.05-0.332Zm2.065,0.357a0.622,0.622,0,0,0-.025.255c-0.1,0-.113-0.013-0.151.051,0.1,0,.113-0.013.151,0.051a0.731,0.731,0,0,0-.05.128h1.234v0.715h0.4v-0.46h0.05v0.46h0.529V20.228a0.632,0.632,0,0,0,.05-0.306,0.294,0.294,0,0,1,.151-0.077c0.016-.235.049-0.5,0.05-0.791C43.046,19.052,42.2,19.066,41.448,19.079ZM14.1,24.006l-0.025-1a0.551,0.551,0,0,1-.151-0.1c0.033-.044.127-0.088,0.151-0.128V22.219a0.822,0.822,0,0,0,.1-0.306,5.907,5.907,0,0,0-.352-0.817c-0.209-.5-0.355-1-0.579-1.481H13.22v5.412h0.05V25a1.592,1.592,0,0,0,.151-0.945h0.05A1.9,1.9,0,0,1,14.1,24.006Zm9.065-4.289a2.9,2.9,0,0,0,.151,1.174,1.256,1.256,0,0,0,.478.025H24.98a0.091,0.091,0,0,1,.05-0.025V20.84a1.16,1.16,0,0,1,0-.179H25V20.636a0.739,0.739,0,0,1-.327-0.026,0.223,0.223,0,0,1-.025-0.128H24.7a2.331,2.331,0,0,1,.3-0.026,1.124,1.124,0,0,0,.453-0.306,1.564,1.564,0,0,0,.05-0.409A21.835,21.835,0,0,0,23.167,19.717ZM10.349,21.223a0.093,0.093,0,0,1,.025.051H10.349V21.223Zm-0.025.051a0.092,0.092,0,0,1,.025.051H10.324V21.274Zm42.883,2.476a0.208,0.208,0,0,1,.126.026,0.275,0.275,0,0,1-.176,0A0.085,0.085,0,0,0,53.207,23.751Zm0.126,0.026h0.05V23.8A0.086,0.086,0,0,1,53.333,23.776ZM8.31,33.528a4.565,4.565,0,0,0-.529,1.1h0.05a6.165,6.165,0,0,1,1.184-.281c0.647-.186,1.367-0.326,2.015-0.511,0.305-.087.605-0.1,0.881-0.2V33.6h-0.1a4.3,4.3,0,0,0-1.058-.026C9.956,33.569,9.139,33.526,8.31,33.528Z" transform="translate(0 0.5)"/>
</svg>
