<svg xmlns="http://www.w3.org/2000/svg" width="80" height="40" viewBox="0 0 80 40">
  <defs>
    <style>
      .cls-1 {
        fill: #fff;
        fill-rule: evenodd;
      }
    </style>
  </defs>
  <path id="us_elco_77ft_pt20_ico" class="cls-1" d="M43.1,9.593a0.139,0.139,0,0,1,.149.074H43.22A0.711,0.711,0,0,0,43.1,9.617v8.321l0.644-.074V15.741H43.591v-0.42H43.74v-0.1h-0.1V15.173c0.1-.019.09-0.013,0.1-0.123a0.188,0.188,0,0,1,0-.148,0.134,0.134,0,0,1-.1-0.074h0.272v0.049h-0.1a1.215,1.215,0,0,0,0,.272,0.213,0.213,0,0,1,.1.074h-0.1v1.457a2.071,2.071,0,0,1,.372.469c0.083,0.112.214,0.209,0.3,0.321a0.578,0.578,0,0,0,.347.346,2.307,2.307,0,0,1,.718-0.1V17.642a2.09,2.09,0,0,0,.471-0.667,1.24,1.24,0,0,1,.619-0.272V16.63a0.571,0.571,0,0,1-.2,0,0.088,0.088,0,0,1-.025-0.049,7.092,7.092,0,0,0,1.015-.173V16.358a0.571,0.571,0,0,1-.05-0.247,0.35,0.35,0,0,1,.1-0.025v0.025H47.5a0.583,0.583,0,0,0,.05.3,5.55,5.55,0,0,1,1.015-.148q-0.012-.21-0.025-0.42h0.05V15.815h0.025V15.84a0.788,0.788,0,0,1,.074.4,6.842,6.842,0,0,0,1.362-.148v-0.4h0.025V15.667h0.074a2.576,2.576,0,0,1-.05-0.543,1.015,1.015,0,0,0,.371-0.247,0.568,0.568,0,0,1-.05-0.173,0.208,0.208,0,0,1-.124-0.025c0.093,0,.087.012,0.124-0.049a0.861,0.861,0,0,0,.074-0.321,3.432,3.432,0,0,0,.619-0.025V15.1H50.749v0.025a0.476,0.476,0,0,1,0,.37c0.156,0.011.17,0.067,0.347,0.074a0.12,0.12,0,0,1,.025-0.074v0.049c0.141,0.1.3,0.485,0.421,0.543h0.5v-0.2h0.074a0.379,0.379,0,0,1,.05.148,5.9,5.9,0,0,0,.941-0.049,2.774,2.774,0,0,0,.718-0.049,0.66,0.66,0,0,1,.2-0.123v0.519a0.981,0.981,0,0,1,.5.469c0.034,0.036.117,0.11,0.149,0.074a2.792,2.792,0,0,0,.2.346l0.1,0.025V17.37c0.042,0.089.188,0.184,0.223,0.272l-0.025.123a1.5,1.5,0,0,0,.149.222,2.974,2.974,0,0,0,.644.272A0.607,0.607,0,0,0,56.2,18.21c0.035,0,.115.061,0.173,0.074v0.049c-0.083-.005-0.059-0.053-0.1.025H56.3a0.565,0.565,0,0,0,.322.123c0.032-.061-0.011-0.017.05-0.049a0.888,0.888,0,0,0,.594.37c0.375,0.258.772,0.54,1.139,0.815a0.866,0.866,0,0,0,.718.444,1.857,1.857,0,0,1,.421-0.025c0.309-.067.676,0.024,1.015-0.049,0.642-.139,1.413.015,2.056-0.123,0.193-.042.457,0.01,0.619-0.025,0.232-.05.542,0.019,0.743-0.025H64.4a5.757,5.757,0,0,0,1.09-.049l1.461-.025a0.982,0.982,0,0,0,.545-0.049H67.121V19.568c0.18,0,.354-0.049.471-0.049s0.291,0.049.471,0.049v0.123a1.28,1.28,0,0,0-.371.025v0.025h0.916a1.192,1.192,0,0,1,.446-0.025l0.892-.025a5.875,5.875,0,0,0,.025-1.358,0.321,0.321,0,0,1-.124-0.346c0.02-.073.1-0.157,0.124-0.222V16.259a0.315,0.315,0,0,1-.149-0.074h0.149V15.963h0.074a0.377,0.377,0,0,0,.074.222c-0.078,0-.033-0.042-0.074.025a6.711,6.711,0,0,1,0,1.037,0.668,0.668,0,0,1,.3.025c-0.089.01-.062-0.012-0.1,0.049s-0.014.273-.05,0.37a0.169,0.169,0,0,1,.149.074h-0.3v0.593c0.021,0.048.123,0.1,0.149,0.148l0.025,0.148a7.926,7.926,0,0,0,.57.642,2.291,2.291,0,0,0,.248.346h0.3c0.154-.093.516,0.045,0.669-0.049,0.061-.03.038-0.044,0.1-0.074v0.074c0.259,0.01.572,0.024,0.867,0.025,0.021-.08-0.012-0.038.05-0.074v0.074h0.817a0.277,0.277,0,0,0,0-.123,0.9,0.9,0,0,0-.372-0.025V19.346h0.372a0.788,0.788,0,0,1,.074-0.074,0.177,0.177,0,0,1,.149.074H74.4v0.123H74.056a0.35,0.35,0,0,0-.025.1,0.089,0.089,0,0,1,.025.049h1.313v-0.1l0.273,0.025v0.074L77.1,19.667v-0.42a1.124,1.124,0,0,1,.322-0.025,1.671,1.671,0,0,1-.025.469,0.551,0.551,0,0,1,.4.074,0.327,0.327,0,0,0,.05.1,1.293,1.293,0,0,1,.3.049l0.025,0.1,0.5,0.025a4.853,4.853,0,0,0,.867.049V19.84A1.079,1.079,0,0,0,80,19.765v0.346l-0.124-.025v0.025a0.371,0.371,0,0,1,0,.247H79.8v0.1a0.741,0.741,0,0,0-.322.025,1.086,1.086,0,0,0-.272.247,4.6,4.6,0,0,0-.892.889c-0.22.291-.528,0.543-0.743,0.84a17.988,17.988,0,0,0-1.362,2.321,5.471,5.471,0,0,0-.52,1.012,0.339,0.339,0,0,1,.173.074,1.335,1.335,0,0,1-.124.2,0.46,0.46,0,0,1-.223.025,6.186,6.186,0,0,1-.916,1.383,7.163,7.163,0,0,1-3.913,2.543l-1.957.272-0.743.025c-0.34.074-.753,0-1.115,0.074a7.5,7.5,0,0,1-1.437.049l-2.031.025-3.517.025H58.353a7.323,7.323,0,0,0-1.362-.025l-2.353-.025a10.5,10.5,0,0,1-1.66-.049c-0.318-.071-0.728.04-1.015-0.025h-0.5a8.367,8.367,0,0,1-1.536-.049H49.338a5.226,5.226,0,0,1-.842-0.049c-0.224-.05-0.525.018-0.718-0.025l-3.517-.1c-0.63-.138-1.4.042-2.031-0.1-0.208-.046-0.491.015-0.669-0.025-0.216-.048-0.508.017-0.694-0.025-0.409-.091-0.964.04-1.362-0.049h-0.4a5.239,5.239,0,0,1-1.016-.049c-0.416-.093-0.981.041-1.387-0.049l-2.081-.049c-0.625-.136-1.432.04-2.056-0.1-0.208-.046-0.491.015-0.669-0.025-0.216-.048-0.508.017-0.694-0.025-0.216-.048-0.508.017-0.694-0.025-0.409-.091-0.963.04-1.362-0.049l-1.412-.025c-0.655-.143-1.5.047-2.155-0.1-0.224-.05-0.525.018-0.718-0.025-0.224-.05-0.525.018-0.718-0.025l-1.412-.025c-0.615-.134-1.368.038-1.981-0.1-0.2-.044-0.474.013-0.644-0.025H19.468c-0.388-.084-0.879.038-1.288-0.049-0.178-.038-0.46.02-0.669-0.025a5.032,5.032,0,0,0-1.833.049l-1.362.148c-0.141.037-.317,0.11-0.471,0.148l-0.916.1c-0.023,0-.146-0.048-0.173-0.049a5.578,5.578,0,0,0-.966.148L11,29.79c-0.676.156-1.456,0.138-2.13,0.3l-0.4.025c-0.175.04-.4,0.018-0.594,0.074a3.356,3.356,0,0,1-.793.173L7.059,30.8a0.151,0.151,0,0,0-.05.049l-0.074-.025a0.179,0.179,0,0,0-.124-0.148,2.32,2.32,0,0,1-.2.321H6.563a0.3,0.3,0,0,0-.149-0.148,0.138,0.138,0,0,1-.149.123,0.458,0.458,0,0,1-.05-0.494c-0.029-.065-0.089-0.148-0.124-0.222a0.1,0.1,0,0,0,.1-0.074,0.8,0.8,0,0,1-.05-0.79,0.265,0.265,0,0,1,.173-0.074c0.029,0.117.091,0.181,0.124,0.3a0.071,0.071,0,0,0,.025-0.025c0.1-.179,0-0.4.248-0.445a4.9,4.9,0,0,0,.272.593V29.716A2.025,2.025,0,0,0,7.307,28.9a2.152,2.152,0,0,0-.693-0.1L4.9,28.728a2.966,2.966,0,0,1-.248.765l-0.025.42a1.894,1.894,0,0,0-.1.494,0.594,0.594,0,0,1-.272-0.025,1.013,1.013,0,0,1-.446-0.321L3.467,29l0.149-.025a0.561,0.561,0,0,1-.025-0.3H3.1a3.041,3.041,0,0,0-.124-0.716L2.749,26.531a6.593,6.593,0,0,1-.223-1.284,0.12,0.12,0,0,0-.074.025H2.427v0.074H2.3l0.025-.123a0.29,0.29,0,0,1,.149-0.074l-0.025-.173h-0.1a0.071,0.071,0,0,0-.025-0.025,1.325,1.325,0,0,0-.074-0.444h0.1a12.076,12.076,0,0,0-.2-1.358H2.006a5.426,5.426,0,0,1-.05-0.642H2.13V22.383H2.477a2.233,2.233,0,0,0-.594-1.062c-0.448-.669-0.866-1.33-1.313-2-0.046-.07-0.363-0.569-0.4-0.593-0.066-.047-0.081.077-0.149-0.074A0.166,0.166,0,0,1,0,18.556a0.275,0.275,0,0,1,.2-0.074,0.448,0.448,0,0,1,.05.222,5.132,5.132,0,0,0,.471.617c0.34,0.481.681,0.958,1.015,1.432a15,15,0,0,0,1.189,1.63l0.124-.025A1.086,1.086,0,0,0,2.9,21.79a0.254,0.254,0,0,0-.124.173H2.7a0.811,0.811,0,0,0,.074-0.247,0.186,0.186,0,0,1-.124-0.1H2.7a0.07,0.07,0,0,1,.025-0.025,0.217,0.217,0,0,0,.173.123V21.2a0.966,0.966,0,0,1-.025-0.4H2.848a0.439,0.439,0,0,1-.223.148V20.877a0.532,0.532,0,0,0,.124-0.049c-0.034-.094-0.077-0.16-0.1-0.247H2.724a0.2,0.2,0,0,0,.149.148c0.014-.221.09-0.4,0.1-0.642a0.588,0.588,0,0,0-.223.025V20.037H2.774V20.012l0.074,0.025V19.963c-0.061-.032-0.017.011-0.05-0.049H2.824V19.889a0.459,0.459,0,0,0,.2.1,0.126,0.126,0,0,0,.025-0.074H2.972A0.312,0.312,0,0,1,3,19.815a0.69,0.69,0,0,0,.347.123l0.025-.074a0.382,0.382,0,0,1-.322-0.37,3.071,3.071,0,0,1,.272-0.247,5.5,5.5,0,0,1,.991-0.025,0.643,0.643,0,0,0,.223.1A1.323,1.323,0,0,1,5.226,19.3a1.9,1.9,0,0,1,.1.173c0.062-.017.046-0.058,0.074-0.025,0.062,0.072.037,0.091,0,.173H5.375c-0.021-.08.012-0.038-0.05-0.074a0.222,0.222,0,0,1-.2.222,1.753,1.753,0,0,1-.693-0.025,0.592,0.592,0,0,1-.322.148,0.348,0.348,0,0,0-.025.1,0.533,0.533,0,0,1,.272.2H5.077a3.615,3.615,0,0,1,.916-0.025l1.461-.049a3.67,3.67,0,0,0,.916-0.025,0.206,0.206,0,0,1-.05-0.074,1.541,1.541,0,0,1,.694-0.025,0.464,0.464,0,0,1-.124.074v0.025H9.437a1.2,1.2,0,0,1,.471-0.025,0.2,0.2,0,0,1,.248-0.173,1.206,1.206,0,0,0,.644-0.025,0.872,0.872,0,0,0,.817.173,6.123,6.123,0,0,1,1.09-.025c0.18-.038.75,0.036,0.892-0.025l0.074-.1a0.638,0.638,0,0,1,.322.074c0.352,0.012.725-.017,1.04-0.025a0.119,0.119,0,0,1,.025-0.074c0.03-.022.08,0,0.124-0.025l0.025-.074a0.746,0.746,0,0,1,.471.049v0.123l1.139-.025v-0.1h-0.1a0.333,0.333,0,0,0-.05-0.1c0.083,0.005.059,0.053,0.1-.025a0.138,0.138,0,0,0-.149-0.222l-0.149-1.235a1.3,1.3,0,0,1,.991,1.654l1.065-.025a0.218,0.218,0,0,1,.273-0.173c0.074,0.163.146,0.184,0.4,0.173a0.163,0.163,0,0,1,.173-0.173,0.138,0.138,0,0,1,.1,0,0.405,0.405,0,0,0,.471.148,0.179,0.179,0,0,1,.2-0.1,2.132,2.132,0,0,0,1.04.074c-0.016-1.036.076-1.692,0.991-1.876v0.148a6.239,6.239,0,0,0-.149,1.086H21.944a0.221,0.221,0,0,0-.1.173,0.166,0.166,0,0,1,.025.1,0.314,0.314,0,0,0,.1-0.025v0.049a0.19,0.19,0,0,0-.074.074c-0.014-.032,0-0.018-0.025-0.025a0.6,0.6,0,0,0-.025.272l1.04-.025,0.05-.074h0.248a0.887,0.887,0,0,1,.149.42h0.025V20.086a4.153,4.153,0,0,0,1.214-.123l1.313-.123c0.328-.074.712-0.038,1.065-0.123a2.347,2.347,0,0,1,.3-0.1V19.543c-0.08-.02-0.038.012-0.074-0.049H27.2V19.469h0.05c0.032,0.08.022,0.065,0.124,0.074V19.494h0.025V19.469a0.1,0.1,0,0,1-.1-0.049h0.025V19.4a1.152,1.152,0,0,0,.347.1,0.151,0.151,0,0,0,.05-0.049,0.477,0.477,0,0,1-.322-0.37,0.744,0.744,0,0,1,.3-0.247,3.621,3.621,0,0,1,.966-0.074c0.037,0.053.085,0.073,0.124,0.123a1.788,1.788,0,0,1,.793-0.074,1.394,1.394,0,0,1,.124.2c0.06-.022.039-0.026,0.1-0.049a0.833,0.833,0,0,1,0,.173h-0.05c-0.029-.047,0-0.03-0.049-0.025a0.426,0.426,0,0,0-.1.2c-0.156,0-.791,0-0.793,0-0.106.051-.265,0.112-0.372,0.173v0.049h0.248a2.037,2.037,0,0,1,.669-0.074,5.288,5.288,0,0,1,1.04-.123,1.365,1.365,0,0,1,1.015-1.531v0.173a5.672,5.672,0,0,0-.149,1.086h-0.1a0.288,0.288,0,0,0-.074.148,0.621,0.621,0,0,0,.2.025,3.1,3.1,0,0,1,.867-0.1,1.2,1.2,0,0,1,.991-1.383v0.148c-0.159.26-.032,0.855-0.223,1.136h0.1A0.214,0.214,0,0,1,33.139,19v0.074H32.916a0.372,0.372,0,0,0-.05.1h0.074a2.092,2.092,0,0,1,.545-0.049,8.739,8.739,0,0,1,1.61-.2,2.984,2.984,0,0,0-.05-0.864h0.2a1.567,1.567,0,0,0-.074-0.395h-0.1a0.692,0.692,0,0,0-.149-0.568,1.317,1.317,0,0,0-.594-0.049A8.015,8.015,0,0,1,32.941,17V16.877h0.049a1.085,1.085,0,0,1,.5,0c0.278,0.026.691,0,1.04,0a1.042,1.042,0,0,0,.4-0.025,1.815,1.815,0,0,0,.471-0.889,2.325,2.325,0,0,1,2.031-1.111v0.123a2.022,2.022,0,0,1,1.56.716c0.041,0.055.288,0.512,0.3,0.519h1.362a4.032,4.032,0,0,1,.025,1.062,3.717,3.717,0,0,0-.025.938h0.025a4.726,4.726,0,0,1,.594-0.049,10.687,10.687,0,0,1,1.56-.2V9.741l-1.486-.494a1.171,1.171,0,0,1-.545-0.2c0.022-.018.028-0.031,0.05-0.049a1.943,1.943,0,0,0,.471.148,5.915,5.915,0,0,0,1.511.444c-0.009-.114-0.045-0.151.025-0.2a0.46,0.46,0,0,1,.223-0.025A0.712,0.712,0,0,1,43.1,9.593Zm-5.8,5.852v-0.37a1.909,1.909,0,0,0-1.635.914H35.69c0.064,0.06.16,0.087,0.223,0.148a1.571,1.571,0,0,0,.347-0.321A1.747,1.747,0,0,1,37.3,15.444Zm0.149-.37v0.37a2,2,0,0,1,1.387.716l0.248-.123V16.012a2.3,2.3,0,0,1-.322-0.395A2.108,2.108,0,0,0,37.449,15.074Zm13.5,0.42a0.089,0.089,0,0,1,.025.049H50.947V15.494Zm-13.647.3V15.568a1.862,1.862,0,0,0-1.263.617,0.072,0.072,0,0,0,.025.025c0.051,0.048.124,0.073,0.173,0.123a1.215,1.215,0,0,0,.3-0.272A1.617,1.617,0,0,1,37.3,15.79Zm0.149-.222v0.247a1.143,1.143,0,0,1,.991.568,0.687,0.687,0,0,0,.273-0.173A2.132,2.132,0,0,0,37.449,15.568Zm-0.743,1.21a0.12,0.12,0,0,1,.025-0.074,0.753,0.753,0,0,0,.545.074q0.012-.4.025-0.79a1.093,1.093,0,0,0-1.04.79h0.446Zm0.743-.79q-0.012.407-.025,0.815h0.347a0.6,0.6,0,0,1-.025.42,0.9,0.9,0,0,0-.173-0.025c-0.021.08,0.012,0.038-.05,0.074a0.167,0.167,0,0,0-.1-0.025l-0.025.346a3.782,3.782,0,0,1,.4,0l0.025,0.074h0.644a2.312,2.312,0,0,0,.025-0.617,4.245,4.245,0,0,1-.124-0.469A1.108,1.108,0,0,0,37.449,15.988Zm-2.13.913a0.931,0.931,0,0,0,.2-0.074,1.545,1.545,0,0,1,.05-0.445,0.507,0.507,0,0,0,.05.37V16.728a2.386,2.386,0,0,0,.223-0.469c0.006-.024.019-0.009,0-0.025a0.636,0.636,0,0,0-.272-0.148A3.563,3.563,0,0,0,35.319,16.9Zm3.344,0.765,0.322,0.025V16.309a0.394,0.394,0,0,0-.124-0.025,1.41,1.41,0,0,1-.347.2c0.035,0.136.114,0.278,0.149,0.42v0.765Zm-2.576-.889a1.787,1.787,0,0,1,.124-0.346,0.6,0.6,0,0,0-.248-0.1,0.967,0.967,0,0,0-.223.42h0.149C35.939,16.694,35.967,16.755,36.087,16.778Zm3.022-.469v1.383h0.272C39.392,17.309,39.446,16.33,39.108,16.309Zm0.248,0c0.022,0.144.091,0.288,0.124,0.42L39.5,17.469v0.3a0.351,0.351,0,0,1-.074.049,2.6,2.6,0,0,0-.05.37,0.312,0.312,0,0,0-.1.025l-0.025.222H39.43c0-.092-0.03-0.06.074-0.074a6.039,6.039,0,0,1,1.04-.123,17.369,17.369,0,0,1,.025-1.926H39.356ZM8.545,28.852L8,29.84a7.413,7.413,0,0,0,2.031-.173l0.644-.049c0.732-.166,1.579-0.136,2.3-0.3a0.365,0.365,0,0,0,.074-0.173c-0.172-.185-0.163-0.159-0.52-0.148Z"/>
</svg>
