<svg xmlns="http://www.w3.org/2000/svg" width="39.969" height="40" viewBox="0 0 39.969 40">
  <defs>
    <style>
      .cls-1 {
        fill: #fff;
        fill-rule: evenodd;
      }
    </style>
  </defs>
  <path id="us_halftrack_m15_ico" class="cls-1" d="M19.811,13.243h0.216a0.7,0.7,0,0,0,.054.219c-0.406.065-.294,0.7-0.27,1.149l3.4-.985,0.054,0.383a4.481,4.481,0,0,0-.972.328c-0.85.285-1.685,0.428-2.483,0.766a1.6,1.6,0,0,1,.054.492,0.952,0.952,0,0,0,.216.164,0.426,0.426,0,0,1,.486-0.219c0.558,0.152,1.265.347,1.889,0.492,0.582,0.136,1.127-.145,1.457.11a2.063,2.063,0,0,1,.324.711,9.343,9.343,0,0,1,1.134,2.024H25.263s-0.011-.214-0.054-0.109v0.109H25.155v0.055l1.134,0.11L26.235,18.6H26.4v0.438a10.729,10.729,0,0,1,2.375.328c0.684,0.17,1.461-.057,2.051.109,0.35,0.1.937,0.172,1.349,0.274a13.779,13.779,0,0,1,1.943.219H34.6c0.155,0.11-.011.224,0.324,0.328l-0.054-.273a0.185,0.185,0,0,0,.108-0.055,0.184,0.184,0,0,1,.108.055c0.258,0.419.083,0.967,0.324,1.313a1.136,1.136,0,0,0,.324.219v0.055c-0.153-.018-0.112-0.058-0.216,0a2.537,2.537,0,0,1,.216.383,2.507,2.507,0,0,1,.432.328c-0.119-.028-0.107-0.062-0.216,0a1.833,1.833,0,0,0,.81.766,1.936,1.936,0,0,0,.54-0.109,0.386,0.386,0,0,0,.162-0.274H37.3V22.544a0.56,0.56,0,0,1,.324-0.11,0.847,0.847,0,0,1,.108.492,4.693,4.693,0,0,0-.27.438h0.054a1.667,1.667,0,0,1,.756-0.383,2.334,2.334,0,0,0,.324.547,1.033,1.033,0,0,1,1.3,1.258,1.729,1.729,0,0,1-.648.711,1.047,1.047,0,0,1-.756-0.055c-0.649-.225-0.38-0.973-1.026-1.04a0.722,0.722,0,0,1-.216.328,2.262,2.262,0,0,1-.27.875,0.194,0.194,0,0,0-.108-0.055,1.757,1.757,0,0,0,0-.93c-0.208.248-.115,0.432-0.594,0.438l0.054,1.2c-0.332,1.424-1.758,3.2-3.833,2.572a3.983,3.983,0,0,1-.972-0.438,3.381,3.381,0,0,1-1.08-1.313,3.235,3.235,0,0,0-.324-1.094c-0.626.4-2.965,0.062-3.833,0.055a1.013,1.013,0,0,0-.7-0.547,2.743,2.743,0,0,0-1.08-.055V25.5H24.453a0.463,0.463,0,0,1-.054.273,2.09,2.09,0,0,1-.864.055,0.474,0.474,0,0,0-.162-0.328c-0.369-.224-0.653.215-1.026,0.055A9.89,9.89,0,0,0,21,25.444a4.948,4.948,0,0,1-1.026-.328c-0.135,1.086-.908,1.41-1.619,1.915a10.165,10.165,0,0,1-2.645,1.751,5.491,5.491,0,0,1-1.4.055H11.282a18.641,18.641,0,0,1-3.725-.055,7.331,7.331,0,0,1-1.619-1.094c-0.618-.439-1.28-0.754-1.889-1.2A2.5,2.5,0,0,1,3.4,25.5a1.252,1.252,0,0,0-.054-0.492H2.429a18.057,18.057,0,0,1-.108,2.243,0.258,0.258,0,0,1-.162-0.055,0.2,0.2,0,0,1-.054-0.109c0.332-.513.06-1.491,0.27-2.134-0.191-.039-0.134-0.067-0.324-0.11a0.755,0.755,0,0,1-.432.711,0.273,0.273,0,0,1-.162.055l-0.054-.6a0.783,0.783,0,0,1-.486-0.821A1.75,1.75,0,0,0,1.08,23.8a1.661,1.661,0,0,1,.378-0.219,2.412,2.412,0,0,0,.54.547H2.213a0.8,0.8,0,0,1,.054-0.274A0.446,0.446,0,0,1,2,23.8H2.321a4.068,4.068,0,0,0-.108-0.766,0.678,0.678,0,0,1,.108-0.383L2.267,21.5a0.638,0.638,0,0,0,.216-0.11,6.181,6.181,0,0,1,.648.11V21.231H3.239a0.36,0.36,0,0,1,.216-0.055v0.109a0.373,0.373,0,0,1,.054.219h3.4a0.611,0.611,0,0,1,.108-0.383h-3.4a7.187,7.187,0,0,0-1.889-.055V20.793a1.813,1.813,0,0,0,.432-0.055v-0.93C2,19.747,2.06,19.8,2,19.644c0.077-.025.288-0.127,0.108-0.164H3.347v0.11a0.376,0.376,0,0,0,.054.383A1.082,1.082,0,0,1,4.265,19.7l-0.108-.547a1.06,1.06,0,0,1-.54,0H3.725a0.643,0.643,0,0,0,.216-0.219h-0.7V18.878a0.2,0.2,0,0,1-.054-0.109,0.389,0.389,0,0,0,.432-0.109,2.069,2.069,0,0,0-.81-0.055,0.7,0.7,0,0,1-.054.219H2.645V18.55A0.259,0.259,0,0,1,2.483,18.5a0.9,0.9,0,0,1-.108-0.766H2.159V17.456H2.051v0.055A0.282,0.282,0,0,0,2,17.675a0.917,0.917,0,0,0-.486.109V17.675a0.612,0.612,0,0,0,.324-0.164,1.543,1.543,0,0,0-.486-0.055V17.292H1.727V17.128a6.8,6.8,0,0,1-1.4-.055,0.918,0.918,0,0,1-.108-0.492A1.653,1.653,0,0,0,.27,15.924,4.426,4.426,0,0,1,0,14.775H0.324a0.154,0.154,0,0,0,.054.055,2.453,2.453,0,0,1,.108.821c-0.042.037-.12,0.072-0.162,0.109a10.1,10.1,0,0,0,.432.93,3.721,3.721,0,0,1,1.4-.055c-0.046-.811,0-1.975,0-2.955a6.663,6.663,0,0,1,1.781-.055V13.571c-0.2-.038-0.148,0-0.216-0.164a1.54,1.54,0,0,1,.486-0.055,5.364,5.364,0,0,1,.27-1.094,0.154,0.154,0,0,1,.054.055A0.806,0.806,0,0,0,4.7,12.7a2.255,2.255,0,0,0,1.08.328A2.313,2.313,0,0,1,5.938,12.7H6.8V12.587a0.286,0.286,0,0,1,.108-0.328v0.055a0.733,0.733,0,0,1,.054.383H7.5V12.86H6.964V12.97c0.085,0.1.1,0.113,0.054,0.219-0.045.148-.033-0.023-0.108,0.11,0,0.05-.037.134-0.054,0.328,1.4,0,2.942,0,4.48,0,0.457,0,1.306-.258,1.4-0.219,0.311,0.348,1.3.233,1.943,0.219a7.094,7.094,0,0,0,.7-1.094,3.172,3.172,0,0,0,.054-0.492H15.6a2.486,2.486,0,0,0,.486-0.766,0.393,0.393,0,0,1-.108-0.219A0.154,0.154,0,0,0,16.032,11H16.14a10.206,10.206,0,0,0,1.08,2.3,0.765,0.765,0,0,0,.486.656c0.353-.255,1.866-0.391,2.051-0.656V11.875h0.054v1.368Zm-3.077.164H17v0.055h0.054l0.054,0.274H17a1.347,1.347,0,0,0-.216-0.055v0.492a1.985,1.985,0,0,0,.594-0.164c-0.271-.612-0.6-1.174-0.864-1.806a2.425,2.425,0,0,0-1.457,1.422H16.68v0.055h0.054V13.407Zm-12.146-.6a1.736,1.736,0,0,0,.054.547l1.026-.219V13.079C5.234,13.05,5.021,12.849,4.588,12.806Zm13.063,1.368a3.933,3.933,0,0,0,.378.985L19,14.885a0.8,0.8,0,0,1,.054-0.274,0.184,0.184,0,0,1,.108.055c0.037,0.042.071,0.122,0.108,0.164a0.961,0.961,0,0,1,.486-0.164V13.571A19.514,19.514,0,0,0,17.652,14.173Zm-0.864.274v0.93h0.054a0.424,0.424,0,0,1,.378.055,3.156,3.156,0,0,0,.54-0.656,0.808,0.808,0,0,0-.432-0.492A1.122,1.122,0,0,1,16.788,14.447Zm1.4,1.149v0.274H18.084a1.57,1.57,0,0,0-1.242.328,1.771,1.771,0,0,1,.27.656H17a0.36,0.36,0,0,1-.216.055c0,1.5,0,2.986,0,4.213h-5.4v0.055a0.317,0.317,0,0,1,.108.328h5.56a23.381,23.381,0,0,1,0-3.337,2.415,2.415,0,0,1,1.026-.11c-0.021-.16-0.088-0.069.054-0.164a0.36,0.36,0,0,1,.216-0.055v0.055h0.054v0.164a5.386,5.386,0,0,1,1.026.055V18.058a0.478,0.478,0,0,1-.054-0.274c-0.539-.177-0.673-0.643-0.648-1.422a1.264,1.264,0,0,0,.162-0.985H18.839A1.412,1.412,0,0,1,18.192,15.6Z" transform="translate(0 0.016)"/>
</svg>
