<?xml version="1.0" encoding="utf-8"?>
<!-- Generator: Adobe Illustrator 16.0.0, SVG Export Plug-In . SVG Version: 6.00 Build 0)  -->
<!DOCTYPE svg PUBLIC "-//W3C//DTD SVG 1.1//EN" "http://www.w3.org/Graphics/SVG/1.1/DTD/svg11.dtd">
<svg version="1.1" id="Layer_1" xmlns="http://www.w3.org/2000/svg" xmlns:xlink="http://www.w3.org/1999/xlink" x="0px" y="0px"
	 width="40px" height="40px" viewBox="0 0 40 40" enable-background="new 0 0 40 40" xml:space="preserve">
<path id="us_halftrack_m16_ico" fill="#FFFFFF" d="M16.784,13.139h0.123c0,0.077-0.021,0.151-0.061,0.217
	c-0.009,0.157,0.012,0.314,0.061,0.464c-0.011,0.29-0.039,0.6-0.031,0.929l5.942-0.031v-0.093h0.092v0.091H23
	c0.061-0.109,0.128-0.222,0.184-0.341c0.04-0.014,0.083-0.014,0.123,0c0.078,0.109,0.149,0.223,0.213,0.341l0.123,0.062v0.155
	c0.121,0.244,0.377,0.485,0.521,0.712c0.21,0.379,0.395,0.772,0.551,1.177h-0.059c-0.042,0.007-0.061,0-0.153,0v0.063h0.031
	c0.35,0.095,0.711,0.137,1.072,0.124c-0.02-0.144-0.029-0.289-0.031-0.434H25.7c0,0.145-0.011,0.29-0.031,0.434
	c0.25,0.005,0.497,0.047,0.735,0.124c0.188,0.043,0.219-0.111,0.429-0.062c0.285,0.065,0.606,0.127,0.979,0.217
	s0.742,0.044,1.072,0.124c0.196-0.01,0.393,0.011,0.582,0.062c0.178-0.06,0.368-0.071,0.551-0.031c0.073,0.023,0.18,0.1,0.276,0.124
	l0.552,0.031c0.891,0.21,2.023,0.109,2.756,0.341l0.336,0.587H34c-0.006-0.096,0.016-0.192,0.061-0.278
	c-0.117,0.003-0.214-0.09-0.217-0.207c0-0.014,0.001-0.027,0.004-0.041c0.149-0.087,0.316-0.14,0.489-0.155v0.155h0.093v0.155
	h-0.096c-0.001,0.053-0.012,0.105-0.031,0.155h0.215c0.032,0.32,0.021,0.643-0.031,0.96h0.275c0.146-0.514,0.188-1.05,0.123-1.58
	h0.184v1.548l-0.428,0.4l0.184,0.31c0.12,0.026,0.222,0.106,0.275,0.217h-0.031c-0.039-0.041-0.095-0.063-0.152-0.062v0.03
	c0.09,0.128,0.172,0.262,0.245,0.4c0.118,0.089,0.24,0.172,0.366,0.248c-0.024,0.016-0.045,0.036-0.061,0.062
	c0.284,0.045,0.572,0.056,0.858,0.031c0-0.117-0.015-0.109,0.061-0.154c0.025,0.1-0.015,0.047,0.062,0.092
	c0.027-0.606,0.541-1.076,1.148-1.049c0.178,0.008,0.352,0.06,0.506,0.149c0.23,0.215,0.408,0.479,0.521,0.774
	c0.05-0.019,0.093-0.051,0.123-0.094c-0.062-0.015-0.108-0.063-0.123-0.123h0.03v-0.025c0.102-0.039,0.215-0.027,0.307,0.031
	c0.074,0.113-0.025,0.121,0.214,0.123c0-0.09-0.028-0.043,0-0.093c0.06-0.015,0.112-0.048,0.153-0.093
	c-0.04-0.042-0.096-0.064-0.153-0.063c-0.026,0.021-0.059,0.031-0.092,0.031v-0.124c0.094-0.05,0.2-0.071,0.306-0.062
	c0.119,0.041,0.243,0.062,0.368,0.062v0.433h0.062c0.057,0.03,0.126,0.03,0.184,0v0.466c-0.012,0.032-0.014,0.31-0.031,0.399
	c-0.072,0.003-0.145-0.008-0.214-0.031v0.4c-0.022,0.037-0.034,0.08-0.03,0.124c-0.141,0.159-0.307,0.295-0.49,0.4l-0.613,0.062
	v-0.24c-1.186-0.021-2.253-0.039-2.787,0.588c-0.073,0.004-0.143-0.031-0.184-0.092c0.064-0.086,0.115-0.18,0.152-0.279h-0.121
	c-0.066,0.029-0.141,0.04-0.214,0.031v0.095c-0.116-0.009-0.229,0.036-0.306,0.124c0.174,0.568,0.152,1.179-0.061,1.734
	c-0.327,1.014-1.188,1.765-2.236,1.95c-0.361,0.087-0.735,0.097-1.1,0.031c-0.967-0.206-1.775-0.862-2.176-1.765
	c-0.1-0.239-0.131-0.838-0.245-1.022c-0.212,0.038-0.427,0.06-0.643,0.062l-0.062,0.125h-2.117v-0.127h-0.949
	c-0.387-0.621-0.725-0.572-1.715-0.557v0.311c-0.323,0.068-0.657,0.068-0.98,0v-0.279l-0.643-0.063v0.125h-0.43v-0.125
	c-0.556,0-1.152,0-1.623,0v-0.093c-0.264-0.038-0.521-0.11-0.766-0.217c0.037,0.099,0.047,0.206,0.031,0.31h-0.092
	c0.029,0.047,0.04,0.102,0.031,0.155c-0.03,0.126-0.036,0.144-0.184,0.155c0.016,0.082,0.016,0.166,0,0.248l-0.184,0.062
	c0.038,0.224-0.09,0.2-0.245,0.248c0.06,0.206-0.08,0.142-0.184,0.187c-0.016,0.039-0.026,0.081-0.031,0.123
	c-0.049,0.02-0.101,0.029-0.153,0.031c-0.017-0.016-0.038-0.027-0.061-0.031c0.005,0.084-0.029,0.164-0.092,0.218
	c-0.073-0.036-0.053-0.063-0.123-0.031H18.1c0.012,0.07,0.028,0.034,0,0.093c-0.054,0.039-0.118,0.061-0.184,0.063
	c-0.016,0.039-0.026,0.081-0.031,0.124c-0.049,0.019-0.101,0.028-0.153,0.03c-0.017-0.016-0.038-0.027-0.061-0.03
	c0.006,0.083-0.028,0.163-0.092,0.217c-0.073-0.036-0.053-0.063-0.123-0.031h-0.029c0.019,0.069-0.005,0.142-0.061,0.187
	c-0.073-0.036-0.053-0.063-0.122-0.031c-0.017,0.039-0.027,0.082-0.031,0.124c-0.034,0.016-0.065,0.036-0.092,0.062
	c-0.037-0.027-0.078-0.049-0.121-0.064c0.006,0.083-0.028,0.164-0.092,0.217c-0.074-0.036-0.053-0.063-0.123-0.031h-0.032
	c0.019,0.068-0.005,0.143-0.061,0.187c-0.074-0.036-0.053-0.063-0.122-0.031c-0.016,0.04-0.026,0.081-0.031,0.124
	c-0.034,0.016-0.065,0.036-0.092,0.063c-0.038-0.027-0.079-0.048-0.122-0.063c0.005,0.083-0.029,0.164-0.092,0.217
	c-0.074-0.035-0.053-0.063-0.123-0.031h-0.03c0.019,0.069-0.005,0.143-0.061,0.187c-0.074-0.036-0.053-0.063-0.123-0.031h-0.031
	c0,0.091,0.03,0.043,0,0.093c-0.089,0.031-0.183,0.042-0.276,0.031c-0.046,0.075-0.109,0.139-0.184,0.186
	c-0.046-0.037-0.098-0.068-0.153-0.092c0,0.033-0.011,0.066-0.031,0.092c-0.047,0.026-0.1,0.037-0.153,0.031
	c-0.039,0-0.038-0.031-0.122-0.062c-0.094,0.165-0.154,0.051-0.276,0c-0.073,0.178-0.155,0.038-0.276,0v0.093h-0.152V26.33
	c-0.086,0.046-0.18,0.078-0.276,0.093c-0.025-0.1,0.015-0.047-0.061-0.093c-0.146,0.236-0.158-0.023-0.276,0
	c-0.034,0.107-0.052,0.089-0.184,0.093V26.33h-0.091v0.093c-0.089-0.007-0.174-0.04-0.245-0.093c-0.04,0.1-0.047,0.09-0.184,0.093
	V26.33h-0.092v0.093c-0.066,0-0.131-0.022-0.184-0.062V26.33c-0.073-0.016-0.117,0.082-0.245,0.093V26.33h-0.092v0.093
	c-0.066,0-0.131-0.022-0.184-0.062V26.33c-0.073-0.016-0.117,0.082-0.245,0.093V26.33h-0.091v0.093
	c-0.074,0.008-0.146-0.028-0.184-0.093c-0.056-0.018-0.129,0.084-0.245,0.093V26.33h-0.092v0.093
	c-0.205-0.009-0.117-0.062-0.184-0.093c-0.092-0.044-0.093,0.172-0.245,0.093c-0.022-0.038-0.054-0.069-0.092-0.093
	c-0.04,0.1-0.047,0.09-0.184,0.093V26.33h-0.091v0.093c-0.089-0.007-0.174-0.04-0.245-0.093c-0.04,0.1-0.047,0.09-0.184,0.093V26.33
	H9.954v0.093c-0.089-0.007-0.174-0.04-0.245-0.093c-0.04,0.1-0.047,0.09-0.184,0.093V26.33H9.433v0.093
	c-0.089-0.007-0.174-0.04-0.245-0.093c-0.04,0.1-0.047,0.09-0.184,0.093V26.33H8.913v0.093c-0.074,0.008-0.146-0.028-0.184-0.093
	c-0.056-0.014-0.129,0.086-0.245,0.093V26.33H8.392v0.093c-0.074,0.008-0.146-0.028-0.184-0.093
	c-0.056-0.018-0.129,0.084-0.245,0.093V26.33c-0.092,0.056-0.205,0.066-0.306,0.031l-0.031-0.094
	c-0.052,0.008-0.103,0.018-0.153,0.031c-0.054-0.014-0.105-0.035-0.153-0.063c0.016-0.039,0.016-0.084,0-0.123
	c-0.1,0.025-0.083,0.061-0.153,0.031c-0.142-0.043-0.109-0.086-0.123-0.187c-0.075,0.019-0.091,0.073-0.123,0.031
	c-0.138-0.089,0-0.128-0.184-0.155c-0.047,0.021,0,0-0.092,0c-0.006-0.063-0.04-0.119-0.092-0.155
	c-0.026,0.021-0.059,0.031-0.092,0.031c-0.039-0.054-0.06-0.118-0.061-0.185c-0.049,0.02-0.104,0.02-0.153,0l-0.092-0.031
	c0.011-0.092,0.061-0.064-0.031-0.124C6.087,25.394,6.043,25.404,6,25.4c-0.024-0.06-0.044-0.121-0.058-0.185
	c-0.038,0.026-0.079,0.048-0.123,0.062c-0.045-0.064-0.077-0.139-0.092-0.217c-0.055,0.035-0.121,0.047-0.184,0.031
	c-0.04-0.127,0.039-0.134-0.123-0.154c-0.047,0.021,0,0-0.092,0c-0.006-0.063-0.04-0.12-0.092-0.155
	c-0.026,0.02-0.059,0.03-0.092,0.03c-0.022-0.072-0.065-0.137-0.123-0.186c-0.062,0.029-0.135,0.017-0.184-0.031
	c0.011-0.091,0.061-0.063-0.031-0.123c-0.037,0.022-0.08,0.033-0.123,0.03c-0.025-0.061-0.044-0.123-0.058-0.187
	c-0.069,0.026-0.079,0.055-0.123,0.031C4.458,24.334,4.423,24.3,4.41,24.256c0.017-0.017,0.027-0.039,0.031-0.063
	c-0.071,0.009-0.143,0.009-0.214,0c-0.017-0.05-0.017-0.104,0-0.154c-0.077,0.012-0.155-0.012-0.214-0.063
	C3.99,23.898,4,23.869,3.982,23.791c-0.087,0.01-0.063,0.033-0.123,0c-0.058-0.069-0.07-0.166-0.031-0.248H3.706
	c-0.021-0.092-0.031-0.186-0.031-0.279l-0.123-0.031c-0.021-0.097,0.001-0.199,0.061-0.278c-0.089-0.031-0.142-0.124-0.123-0.218
	c-0.4,0-0.79-0.045-1.1-0.062c0-0.12,0.02-0.092-0.153-0.093c0.021,0.359-0.228,0.678-0.582,0.743v-0.029H1.623v-0.558
	c-0.193-0.079-0.354-0.22-0.459-0.4c-0.131-0.398,0.086-0.827,0.484-0.958c0.002-0.001,0.004-0.001,0.006-0.002
	c0.132,0.28,0.394,0.478,0.7,0.526v-0.188H2.45v-0.092H2.205v-0.062h0.276c0-0.438-0.03-0.736-0.031-1.146H0.123v-2.787H0.092v0.031
	c-0.021,0.024-0.04,0.069-0.061,0.093c0-0.251-0.015-0.5-0.031-0.712c0.346,0.034,0.695,0.034,1.041,0
	c0.417-0.196,0.799-0.458,1.133-0.774c0.448,0.045,0.899,0.056,1.348,0.031v-0.062c0.338-0.021,0.678,0,1.011,0.062v-0.31H4.288
	c0.005-0.178,0.005-0.194,0-0.372H4.41c-0.01-0.289-0.148-0.576-0.153-0.8c0.049-0.024,0.083-0.07,0.092-0.124
	c-0.029,0.015-0.063,0.015-0.092,0l0.031-0.093c-0.029,0.015-0.063,0.015-0.092,0l0.031-0.093c-0.088,0-0.132-0.035-0.153-0.186
	c0.082-0.085,0.015-0.139,0-0.31H3.92v-0.252h0.215c0.047-0.151,0.18-0.261,0.337-0.279v-0.092c0.335,0,0.333-0.119,0.674-0.124
	c0.065,0.172,0.041,0.2,0.337,0.187l-0.031-0.588c0.113,0.002,0.226-0.008,0.337-0.031v-0.063c-0.163-0.121-0.196-0.35-0.076-0.512
	c0.021-0.029,0.047-0.055,0.076-0.076C5.86,12.174,5.931,12.164,6,12.148c0.087-0.16,0.248-0.264,0.429-0.279
	c0.067-0.03,0.141-0.041,0.214-0.031v-0.122c0.413-0.255,0.843-0.483,1.286-0.681c0.314,0.027,0.63-0.026,0.919-0.155v-0.559H9.77
	l0.03,0.341c0.056,0.035,0.107,0.077,0.153,0.124c0.148,0.1,0.112-0.008,0.214-0.031c0.054,0.013,0.105,0.034,0.153,0.062v0.155
	h-0.09c-0.033,0.057-0.054,0.12-0.061,0.186c-0.102-0.008-0.204-0.008-0.306,0c-0.109,0.142-0.143,0.328-0.092,0.5h0.122
	c-0.008,0.063,0.003,0.128,0.031,0.186c0.024,0.065,0.055,0.128,0.092,0.187c0.543-0.012,1.087,0.03,1.623,0.124h0.95
	c0.365,0.044,0.733,0.055,1.1,0.031h2.144v0.248H12.19v0.124l-0.09-0.041c0.006,0.053-0.005,0.108-0.031,0.155v-0.155l-0.674-0.031
	v0.062h-0.43c-0.018,0.115-0.041,0.1-0.061,0.217c0.17,0.045,0.306,0.169,0.459,0.217h1.164v0.035H12.5
	c-0.302,0.067-0.613,0.078-0.919,0.031v0.031h0.031c0.042,0.041,0.1,0.021,0.153,0.062c0.106,0.089,0.3,0.588,0.4,0.65h1.409
	c0.129-0.04,0.266-0.05,0.4-0.031v0.247h-1.631v0.031c0.254,0.32,0.48,0.662,0.674,1.022c0.103,0.104,0.195,0.219,0.276,0.341v0.867
	h0.031c0.255-0.019,0.513-0.009,0.766,0.031h2.144v-1.549h0.306c0.009-0.317-0.02-0.645-0.031-0.929
	c0.049-0.149,0.07-0.307,0.061-0.464c-0.04-0.065-0.061-0.141-0.061-0.217h0.122c0.01-0.723,0.021-1.446,0.031-2.168
	c-0.03-0.485-0.021-0.971,0.03-1.455h0.031v3.127C16.79,12.799,16.811,12.971,16.784,13.139z M11.7,12.639
	c0.017,0.017,0.027,0.039,0.031,0.062H11.7v-0.057V12.639z M11.639,12.701H11.7v0.035c-0.023-0.002-0.045-0.014-0.061-0.031V12.701z
	 M12.098,12.701h0.061v0.035c-0.023-0.003-0.043-0.014-0.059-0.031L12.098,12.701z M11.398,12.732
	c0.083-0.012,0.167-0.001,0.245,0.031c-0.084,0.014-0.17,0.005-0.249-0.027L11.398,12.732z M12.164,12.732
	c0.083-0.012,0.167-0.001,0.245,0.031c-0.084,0.014-0.171,0.005-0.25-0.027L12.164,12.732z M11.306,12.763h0.061v0.031
	c-0.025,0-0.049-0.01-0.067-0.027L11.306,12.763z M12.47,12.763h0.062c-0.041,0.053-0.017,0.042-0.065,0.004L12.47,12.763z
	 M12.531,12.825c0.036,0.045,0.036,0.109,0,0.155v-0.151V12.825z M10.326,14.625H9.862c-0.235,0.278-0.44,0.58-0.613,0.9H9.28
	c0.121,0.166,0.293,0.285,0.49,0.341c0.195-0.068,0.38-0.162,0.551-0.279v-0.96L10.326,14.625z M9.188,15.709
	c-0.045,0.032-0.098,0.054-0.153,0.062l-0.153,0.217H9c0.168,0.063,0.357,0.027,0.49-0.093C9.399,15.818,9.297,15.755,9.188,15.709z
	 M9.556,15.957c-0.22,0.098-0.466,0.12-0.7,0.062c-0.015,0.025-0.036,0.046-0.061,0.062c0.003,0.023,0.014,0.045,0.031,0.062
	c0.208,0.188,0.501,0.248,0.766,0.155c0.063-0.063,0.114-0.137,0.153-0.217L9.556,15.957z"/>
</svg>
