<?xml version="1.0" encoding="utf-8"?>
<!-- Generator: Adobe Illustrator 16.0.0, SVG Export Plug-In . SVG Version: 6.00 Build 0)  -->
<!DOCTYPE svg PUBLIC "-//W3C//DTD SVG 1.1//EN" "http://www.w3.org/Graphics/SVG/1.1/DTD/svg11.dtd">
<svg version="1.1" id="Layer_1" xmlns="http://www.w3.org/2000/svg" xmlns:xlink="http://www.w3.org/1999/xlink" x="0px" y="0px"
	 width="40px" height="40px" viewBox="0 0 40 40" enable-background="new 0 0 40 40" xml:space="preserve">
<path id="us_hstv_l_ico" fill="#FFFFFF" d="M11.868,14.248h0.178v-0.11c0.128-0.03,0.3-0.138,0.424-0.176
	c0.067,0.001,0.134,0.009,0.2,0.022c0.025,0.091,0.091,0.165,0.178,0.2V14.16C12.917,14.074,13,14,13.093,13.94
	c-0.025,0.083-0.008,0.173,0.045,0.242c0.006-0.1,0.038-0.071,0.045-0.088c-0.019-0.079-0.026-0.16-0.022-0.242
	c0.11-0.078,0.249-0.102,0.379-0.066c0.022,0.049,0.038,0.101,0.045,0.154c-0.027,0.093-0.027,0.193,0,0.286h0.045
	c0.072,0.025,0.148,0.032,0.223,0.022V14.16h0.112v0.088l0.982-0.022c0.029,0.054,0.044,0.114,0.045,0.176
	c-0.085,0.033-0.177,0.048-0.268,0.044c-0.242-0.052-0.492-0.059-0.736-0.022v0.11h-0.045c-0.02,0.014-0.043,0.021-0.067,0.022
	v-0.11c-0.095-0.021-0.193-0.029-0.29-0.022v0.462h-0.067v0.176c-0.245,0.015-0.491-0.03-0.714-0.132
	c-0.215,0.016-0.432,0.016-0.647,0v0.022c0.126,0.079,0.188,0.229,0.156,0.374h-0.133v0.726h0.268V15.59h0.045
	c0.131-0.032,0.267-0.04,0.4-0.022l0.982,0.022l0.022-0.11h0.089V15.3c0.061-0.034,0.13-0.05,0.2-0.044
	c0.012,0.012,0.028,0.02,0.045,0.022V15.5h0.022c0.27,0.064,0.548,0.087,0.825,0.066c0.013-0.03,0.028-0.06,0.045-0.088
	c0.072-0.001,0.142-0.024,0.2-0.066c-0.023-0.056-0.03-0.117-0.022-0.176c0.132-0.025,0.267-0.033,0.4-0.022
	c0.289,0.147,0.616,0.201,0.937,0.154c0.503-0.037,1.009,0.007,1.498,0.132c0.011,0.028,0.019,0.058,0.022,0.088
	c0.477-0.025,0.955-0.003,1.428,0.066c0.389,0.083,0.858-0.035,1.228,0.044c0.369,0.079,0.881-0.034,1.248,0.044h0.514
	c0.439-0.011,0.879,0.011,1.316,0.066h0.625c0.159,0.034,0.414-0.018,0.6,0.022c0.167,0.035,0.43-0.019,0.625,0.022
	c0.568,0.12,1.261-0.032,1.828,0.088h0.63c0.569,0.12,1.261-0.032,1.829,0.088c0.216,0.042,0.438,0.026,0.646-0.044
	c-0.056-0.032-0.033-0.01-0.045-0.088h0.045c0.035-0.018,0.074-0.026,0.112-0.022c0.013,0.035,0.021,0.072,0.022,0.11
	c-0.014,0.043-0.014,0.089,0,0.132h0.312v0.066c1.954,0,3.7,0.066,5.644,0.066h2.074l0.021-0.044
	c0.238-0.023,0.477-0.031,0.715-0.022v-0.174c-0.024-0.063-0.032-0.132-0.021-0.2h0.021c0.071,0.025,0.148,0.032,0.223,0.022v0.352
	H40v0.594h-0.2v0.154h-0.224V16.8c-0.242-0.049-0.49-0.064-0.736-0.044c-0.197-0.042-0.4-0.05-0.6-0.022h-1.52
	c-1.906,0-3.685,0.041-5.6,0.044v0.484h-0.469c-0.003-0.176,0.004-0.353,0.022-0.528h-3.146c-0.131,0.031-0.266,0.046-0.4,0.044
	h-1.34c-0.223-0.015-0.447-0.007-0.669,0.022h-0.647c-0.453,0.108-1.061-0.02-1.494,0.088c-0.172,0.043-0.412-0.014-0.559,0.022
	l-3.235,0.088l-0.022,0.066l-0.424,0.11c-0.048,0.052-0.085,0.111-0.111,0.176c-0.121,0.117-0.265,0.208-0.424,0.264
	c-0.15,0.06-0.32,0.035-0.446-0.066c-0.023,0.039-0.065,0.064-0.111,0.066v0.22c0.367,0.022,0.732,0.066,1.093,0.132
	c0.165-0.126,0.38-0.167,0.58-0.11c0.152,0.011,0.304-0.011,0.446-0.066c0.02,0.079,0.027,0.161,0.022,0.242
	c-0.024,0.063-0.032,0.132-0.022,0.2H19.9c0.145,0.172,0.355,0.276,0.58,0.286c0.042,0.033,0.079,0.07,0.112,0.11l0.848,0.132
	c0.027-0.031,0.058-0.061,0.09-0.088c0.158,0.006,0.314,0.028,0.469,0.066l0.021-0.242c0.051-0.016,0.104-0.023,0.156-0.022
	c0.075,0.045,0.241,0.011,0.313,0.066c0.539,0.335,1.137,0.567,1.762,0.682v-0.046h0.021c0.022-0.021-0.021-0.021-0.021-0.021
	c-0.195-0.102-0.406-0.17-0.625-0.2v-0.02c0.055-0.08,0.052-0.212,0.111-0.286c0.027-0.016,0.059-0.024,0.09-0.022
	c0.168,0.088,0.348,0.147,0.535,0.176c0.023-0.053,0.076-0.087,0.134-0.088c0,0.11,0.089,0.2,0.2,0.2l0,0
	c0.094,0.026,0.191,0.041,0.289,0.044c0.387,0.155,0.928,0.212,1.361,0.33c0.217-0.018,0.434,0.028,0.625,0.132
	c0.033,0.1,0.041,0.205,0.022,0.309l0.558,0.131c0.028,0.033,0.051,0.07,0.067,0.11c-0.062,0.04-0.031,0.021-0.022,0.11
	c-0.23,0.041-0.384,0.262-0.343,0.492c0.002,0.012,0.005,0.023,0.008,0.035c0.05,0.23,0.065,0.467,0.046,0.701h-0.135
	c0.008-0.147,0.015-0.294,0.021-0.44h-0.021c-0.034,0.032-0.071,0.062-0.111,0.088V21.6c-0.016,0.028-0.039,0.051-0.066,0.066
	c-0.042,0.02-0.018,0.01-0.067,0c-0.028,0.5-0.771,0.756-1.2,0.968c-0.002-0.028-0.02-0.053-0.045-0.065
	c-0.127,0.158-0.311,0.261-0.513,0.285c-0.462,0.342-1.183,0.465-1.628,0.771c-0.152,0.086-0.318,0.146-0.491,0.176
	c-0.149,0.146-0.35,0.225-0.558,0.22c-0.119,0.136-0.273,0.234-0.446,0.287c-0.032-0.01-0.062-0.025-0.089-0.045
	c-0.002,0.031-0.01,0.061-0.021,0.088c-0.149,0.02-0.274,0.084-0.425,0.11c-0.034-0.003-0.065-0.019-0.089-0.044
	c-0.172,0.066-0.363,0.066-0.535,0c-0.183,0.042-0.371,0.057-0.558,0.044c-0.001-0.038-0.008-0.075-0.022-0.11h-0.028v0.11
	c-0.79,0-1.443,0.007-2.231,0c0-0.024-0.007-0.047-0.022-0.065c-0.095,0.074-0.219,0.098-0.335,0.065
	c-0.259,0.03-0.521,0.03-0.781,0c-0.218-0.063-0.772,0.039-1.138,0c-0.7-0.075-1.489,0.008-2.253,0c0-0.038-0.008-0.075-0.022-0.11
	h-0.022v0.11c-0.454,0-0.641,0-1.093,0c0-0.024-0.007-0.047-0.022-0.065c-0.172,0.086-0.37,0.109-0.558,0.065
	c-0.37-0.042-0.738,0.044-1.138-0.022c-0.193,0.017-0.388,0.01-0.58-0.021c-0.173,0.055-0.355,0.07-0.535,0.044
	c0-0.024-0.007-0.047-0.022-0.065c-0.165,0.084-0.354,0.107-0.535,0.065v-0.092H8.946v0.088c-0.83,0.007-1.4,0.007-2.231,0
	c0-0.024-0.007-0.048-0.022-0.065c-0.171,0.089-0.37,0.112-0.558,0.065c-0.009-0.011,0.021-0.065-0.022-0.044
	c-0.192,0.06-0.402,0.018-0.558-0.11c-0.136,0.009-0.268-0.049-0.355-0.153c-0.257-0.11-0.492-0.268-0.692-0.463
	c-0.033,0.037-0.016,0.022-0.045,0.022c-0.176-0.068-0.336-0.173-0.47-0.308c-0.195-0.057-0.372-0.163-0.513-0.309
	c-0.183-0.063-0.355-0.151-0.513-0.264c0.009-0.061,0.04-0.033-0.022-0.066c-0.164-0.037-0.316-0.113-0.446-0.22
	c-0.009-0.028-0.016-0.059-0.022-0.088c-0.154-0.013-0.297-0.085-0.4-0.2H1.74c-0.296-0.177-0.524-0.447-0.647-0.77
	c0.015-0.02,0.022-0.043,0.022-0.066H1.049v-0.284C0.96,21.102,0.876,21.057,0.8,21c-0.028,0.033-0.05,0.07-0.067,0.109H0.714
	v-0.041c0.135-0.216,0.233-0.453,0.29-0.7l0.045-0.528c-0.042-0.02-0.088-0.027-0.134-0.021l-0.335-0.99H0.134v-0.4
	C0.049,18.339,0.001,18.222,0,18.1c0.1-0.11,0.068-0.22,0.29-0.22c0.149-0.091,0.447,0.05,0.625-0.022v-0.046
	c0.103,0.021,0.207,0.036,0.312,0.044l0.022-0.066H1.74c0.091,0.061,0.203,0.085,0.312,0.066v-0.044l0.089-0.022
	c0.078-0.01,0.09,0.051,0.2,0.044c0.029-0.001,0.055-0.018,0.067-0.044c0,0,0.246,0.044,0.312,0.044
	c0.143,0.01,0.287-0.005,0.424-0.044c0.134,0.002,0.268,0.017,0.4,0.044V17.7h1.498v-0.174h0.624
	c0.138,0.042,0.28,0.072,0.424,0.088v0.2c0.187-0.008,0.373,0,0.558,0.022c0.027-0.138,0.034-0.278,0.022-0.418l-0.245-0.044
	c-0.179-0.153-0.343-0.322-0.491-0.506c0.17-0.122,0.327-0.263,0.466-0.42c0.261-0.186,0.5-0.4,0.714-0.638
	c0.152-0.048,0.276-0.162,0.337-0.31c-0.016-0.058-0.023-0.117-0.022-0.176h0.089c0.022,0.044,0.063,0.077,0.112,0.088v-0.02
	c0.017-0.026,0.027-0.106,0.045-0.132c0.049-0.021,0.103-0.028,0.156-0.021v-0.506H7.92v0.506h0.111V14.71
	c-0.053-0.077-0.077-0.171-0.067-0.264h0.023c0.042,0.02,0.088,0.027,0.134,0.021v-0.88h0.334l0.022,0.946l1.2,0.154
	c0.117,0.06,0.249,0.083,0.379,0.066l0.022-0.066c0.123-0.052,0.25-0.096,0.379-0.132c0.065-0.327,0.065-0.664,0-0.99l0.067-0.022
	c0.117-0.03,0.238-0.038,0.357-0.022c0.32-0.02,0.641-0.013,0.959,0.022C11.881,13.776,11.89,14.013,11.868,14.248z M11.98,14.292
	L12,14.468h0.045c0.321,0.134,0.657,0.229,1,0.286V14.71c-0.104-0.125-0.244-0.217-0.4-0.264v0.11c-0.036,0.014-0.076,0.014-0.112,0
	c-0.019-0.034-0.026-0.072-0.022-0.11C12.224,14.444,12.26,14.3,11.98,14.292z M8.48,14.864v0.308h0.042
	c0.206-0.111,0.422-0.2,0.647-0.264c0.092,0.016,0.186,0,0.268-0.044h-0.96H8.48z M17.78,15.264c0.023,0.024,0.023,0.063,0,0.088
	V15.26V15.264z M18.516,17.244c-0.186,0.087-0.38,0.154-0.58,0.2c-0.002-0.03-0.01-0.06-0.022-0.088l-0.045,0.022
	c-0.014,0.035-0.037,0.065-0.067,0.088c0.006,0.009,0.013,0.017,0.022,0.022c0.074,0.063,0.173,0.087,0.268,0.065
	c0.108-0.077,0.497-0.161,0.425-0.313L18.516,17.244z M22.465,18.674l-0.021,0.242h0.021v0.022l0.893,0.132v-0.048
	c-0.318-0.074-0.573-0.272-0.893-0.352V18.674z M24.65,18.762c0.031-0.002,0.063,0.006,0.09,0.022
	c-0.031,0.001-0.063-0.008-0.09-0.026V18.762z M24.83,18.78h0.045v0.02C24.858,18.798,24.842,18.792,24.83,18.78z M24.964,18.8
	h0.045v0.022C24.992,18.82,24.977,18.812,24.964,18.8z M25.12,18.932c0.015,0.019,0.022,0.042,0.022,0.066H25.12v-0.064V18.932z
	 M0.692,21.112c0.01,0.047,0.021,0.022-0.022,0.065V21.2H0.647C0.657,21.168,0.672,21.139,0.692,21.112z M0.625,21.2
	c0.01,0.047,0.021,0.022-0.022,0.065v0.022H0.58C0.59,21.256,0.605,21.227,0.625,21.2z M0.558,21.288
	c0.028,0.035,0.014,0.011,0,0.044c-0.026,0.055-0.075,0.096-0.134,0.109L0.558,21.288z M0.335,21.488h0.044l-0.022,0.044
	L0.29,21.554L0.335,21.488z M0.246,21.554H0.29L0.268,21.6L0.2,21.618L0.246,21.554z M0.157,21.62H0.2v0.021
	c-0.017-0.003-0.032-0.011-0.044-0.022L0.157,21.62z"/>
</svg>
