<?xml version="1.0" encoding="utf-8"?>
<!-- Generator: Adobe Illustrator 16.0.0, SVG Export Plug-In . SVG Version: 6.00 Build 0)  -->
<!DOCTYPE svg PUBLIC "-//W3C//DTD SVG 1.1//EN" "http://www.w3.org/Graphics/SVG/1.1/DTD/svg11.dtd">
<svg version="1.1" id="Layer_1" xmlns="http://www.w3.org/2000/svg" xmlns:xlink="http://www.w3.org/1999/xlink" x="0px" y="0px"
	 width="40px" height="40px" viewBox="0 0 40 40" enable-background="new 0 0 40 40" xml:space="preserve">
<path id="us_halftrack_m3_75mm_gmc_ico" fill="#FFFFFF" d="M16.407-2c0.018,0.018,0.029,0.041,0.033,0.066h-0.033V-2z M16.44-1.934
	c0.033,0.038,0.033,0.094,0,0.132V-1.934z M16.473-1.8c0.033,0.038,0.033,0.094,0,0.132V-1.8z M16.506-1.668
	c0.021,0.029,0.033,0.064,0.033,0.1h-0.034L16.506-1.668L16.506-1.668z M16.539-1.536c0.021,0.029,0.033,0.064,0.033,0.1h-0.034
	L16.539-1.536L16.539-1.536z M16.572-1.436c0.033,0.038,0.033,0.094,0,0.132V-1.436L16.572-1.436z M16.6-1.3
	c0.033,0.038,0.033,0.094,0,0.132V-1.3z M16.633-1.168c0.033,0.038,0.033,0.094,0,0.132v-0.136V-1.168z M16.669-1.04
	c0.033,0.038,0.033,0.094,0,0.132V-1.04z M16.7-0.908c0.033,0.038,0.033,0.094,0,0.132V-0.908z M16.733-0.776
	c0.033,0.038,0.033,0.094,0,0.132V-0.776L16.733-0.776z M16.766-0.644c0.06,0.062,0.073,0.155,0.033,0.232L16.766-0.644z
	 M16.832-0.412c0.033,0.038,0.033,0.094,0,0.132V-0.412L16.832-0.412z M16.865-0.28c0.033,0.038,0.033,0.094,0,0.132V-0.28
	L16.865-0.28z M16.9-0.146c0.033,0.038,0.033,0.094,0,0.132V-0.146z M16.933-0.014c0.033,0.038,0.033,0.094,0,0.132V-0.014z
	 M16.966,0.118c0.033,0.038,0.033,0.095,0,0.132V0.118L16.966,0.118z M17,0.251c0.098,0.147,0.134,0.327,0.1,0.5L17,0.251z
	 M17.131,0.751c0.033,0.038,0.033,0.094,0,0.132V0.748V0.751z M17.162,0.88c0.033,0.038,0.033,0.094,0,0.132V0.88z M17.195,1.012
	c0.033,0.038,0.033,0.094,0,0.132V1.012L17.195,1.012z M17.228,1.144c0.033,0.038,0.033,0.094,0,0.132V1.144L17.228,1.144z
	 M17.26,1.277c0.114,0.188,0.16,0.411,0.131,0.629L17.26,1.277z M17.424,1.906c0.033,0.038,0.033,0.094,0,0.132V1.906z
	 M17.457,2.038c0.033,0.038,0.033,0.095,0,0.132V2.038L17.457,2.038z M17.49,2.171c0.126,0.281,0.194,0.585,0.2,0.894L17.49,2.171z
	 M20.246,12.632l0.361,0.068c0.123-0.053,0.258-0.076,0.393-0.068c0.26,0.049,0.523,0.072,0.787,0.066
	c0.372-0.023,0.746-0.012,1.115,0.033c0.424,0.094,0.748-0.174,1.117-0.066c0.618,0.091,1.246,0.113,1.869,0.066
	c0.328,0.037,0.66,0.026,0.984-0.033H27.3v0.066h0.69l2.986,0.036v0.629L27.3,13.46v0.065h0.23v0.364h-1.9v0.066
	c0.083,0.047,0.037-0.008,0.065,0.1c-0.115,0.019-0.123,0-0.163,0.065c-0.041,0.13-0.052,0.267-0.033,0.4h-2.562
	c-0.01,0.089,0.045,0.173,0.131,0.2l-0.066,0.1h0.525c0.127-0.041,0.262-0.052,0.394-0.033c0.249,0.567,0.601,1.111,0.886,1.655
	c0.042,0.255,0.199,0.478,0.428,0.601c0.035-0.036,0.081-0.059,0.131-0.066v-0.1h0.1c0-0.037,0.012-0.072,0.033-0.101
	c0.025,0.022,0.072,0.044,0.1,0.065c0.012,0.062-0.023,0.041,0.066,0.066c0.098,0.027,0.199,0.038,0.3,0.033
	c0.015-0.042,0.056-0.068,0.101-0.066c0.041,0.107,0.028,0.088,0.164,0.101V16.8h0.032v-0.029c0.091-0.01,0.179-0.031,0.263-0.066
	c-0.008,0.111-0.071,0.079,0.033,0.133c0.175-0.028,0.354-0.017,0.524,0.033H27.1c-0.031,0.051-0.031,0.115,0,0.165
	c0.109,0.022,0.219,0.044,0.328,0.066c-0.004,0.046-0.015,0.09-0.033,0.132c0.184,0.005,0.362,0.05,0.525,0.132h0.264
	c0.35,0.082,0.799,0.086,1.147,0.166l0.892,0.068v-0.068h0.065c0.176,0.013,0.351,0.035,0.524,0.066l0.033,0.1l0.555,0.033
	c0.359,0.082,0.82,0.084,1.181,0.166l0.755,0.065c0.035-0.013,0.016-0.082,0.131-0.065c0.211,0.042,0.419,0.098,0.623,0.165
	c0.346,0.094,0.282-0.043,0.492,0.199c0.082-0.045,0.17-0.079,0.262-0.1v0.066c0.086,0.2,0.143,0.413,0.164,0.629l0.2,0.1
	c-0.017,0.027-0.039,0.049-0.065,0.066c-0.057,0.049-0.043-0.039-0.101,0.066c0.074,0.078,0.088,0.221,0.164,0.299
	c0.146,0.08,0.278,0.182,0.394,0.301H35.57c-0.025,0.023-0.073,0.043-0.101,0.066c0.075,0.15,0.163,0.295,0.263,0.43
	c0.082,0.076,0.217,0.09,0.301,0.166c-0.018,0.018-0.029,0.041-0.033,0.066h-0.036c-0.035-0.037-0.081-0.061-0.131-0.066v0.066
	c0.141,0.238,0.345,0.434,0.591,0.563v-0.137h0.164c0,0.035,0.012,0.07,0.033,0.1c0.029,0.021,0.064,0.033,0.1,0.033
	c0.063-0.031,0.132-0.043,0.2-0.033c-0.013-0.088-0.013-0.178,0-0.266l0.361-0.1l0.032-0.1h-0.037
	c-0.029,0.021-0.064,0.033-0.101,0.033c0-0.037,0.011-0.072,0.033-0.102c0.043-0.043,0.103-0.066,0.164-0.064
	c0.153-0.004,0.303,0.041,0.427,0.131c0.106,0.137,0.051,0.244,0.164,0.4c0.097-0.109,0.222-0.189,0.361-0.232
	c0.16,0.166,0.293,0.355,0.395,0.564c0.561-0.123,1.113,0.232,1.236,0.793c0.072,0.332-0.022,0.678-0.253,0.928
	c-0.463,0.4-1.163,0.35-1.564-0.113c-0.015-0.018-0.03-0.035-0.044-0.053c-0.046-0.221-0.123-0.432-0.229-0.629
	c-0.066-0.055-0.146-0.09-0.23-0.102c-0.13,0.416-0.306,0.816-0.524,1.193c-0.057-0.027-0.061-0.088-0.101-0.033
	c-0.11,0.115-0.059,0.189-0.163,0.299c-0.078-0.072-0.027-0.037-0.164-0.031c-0.037-0.049-0.059-0.107-0.066-0.166
	c0.223-0.152,0.367-0.395,0.394-0.662h-0.03V22.6c-0.07,0.045-0.148,0.08-0.229,0.1v0.102l-0.36,0.033v0.1
	c-0.104,0.004-0.205,0.027-0.301,0.066c0.105,0.523,0.117,1.061,0.033,1.588c-0.41,1.643-2.057,2.656-3.708,2.283
	c-0.311-0.08-0.608-0.203-0.886-0.363c-0.576-0.375-1.023-0.918-1.28-1.557c-0.05-0.313-0.116-0.621-0.2-0.926
	c-0.225,0.055-0.459,0.066-0.689,0.033c0.001,0.035-0.011,0.07-0.032,0.1c-0.204,0.051-0.415,0.063-0.623,0.033h-1.567v-0.1h-0.951
	c-0.154-0.287-0.414-0.502-0.723-0.602c-0.355,0.078-0.723,0.09-1.083,0.033v0.301c-0.338,0.035-0.679,0.035-1.017,0v-0.301
	l-0.656-0.033v0.133h-0.459V23.49H20.9v-0.133h-0.063v0.102h-0.229v-0.102l-0.492-0.033c-0.077-0.09-0.184-0.148-0.3-0.164h-0.028
	c0.041,0.096,0.063,0.197,0.066,0.301h-0.132c0.022,0.117,0.064,0.092,0.033,0.166c-0.015,0.057-0.037,0.111-0.066,0.164l-0.1-0.033
	c0.014,0.111,0.003,0.225-0.033,0.332c-0.053-0.02-0.111-0.02-0.164,0c0.017,0.041,0.028,0.086,0.033,0.131
	c-0.053,0.033-0.098,0.078-0.131,0.133c-0.042-0.018-0.086-0.029-0.131-0.033v0.166c-0.041,0.025-0.075,0.059-0.1,0.1
	c-0.079-0.037-0.057-0.068-0.131-0.033H18.9c0.013,0.076,0.03,0.037,0,0.1c-0.065,0.051-0.147,0.074-0.23,0.066
	c0.013,0.076,0.03,0.037,0,0.1c-0.065,0.051-0.147,0.074-0.23,0.066c0.013,0.076,0.03,0.037,0,0.1
	c-0.087,0.076-0.1,0.049-0.23,0.033c0.024,0.074-0.003,0.154-0.066,0.201c-0.074-0.029-0.085-0.061-0.131-0.033
	c-0.04,0.059-0.045,0.109-0.1,0.199c-0.074-0.029-0.085-0.059-0.131-0.033c-0.018,0.043-0.029,0.088-0.033,0.133
	c-0.091,0.027-0.148,0.012-0.23,0.033c0,0.1,0.032,0.047,0,0.1c-0.024,0.029-0.041,0.037-0.066,0.066l-0.164-0.033
	c0.004,0.047,0.015,0.09,0.033,0.133c-0.042,0.004-0.08,0.027-0.1,0.066l-0.164-0.033v0.131c-0.04,0.029-0.084,0.051-0.131,0.066
	c0,0-0.043-0.1-0.066-0.066v0.033c-0.017,0.072-0.065,0.133-0.131,0.166c-0.033,0.004-0.067,0.004-0.1,0
	c-0.017,0.072-0.065,0.133-0.131,0.166c-0.043-0.004-0.087-0.004-0.131,0h-0.027c0.018,0.043,0.028,0.088,0.033,0.133
	c-0.042,0.004-0.08,0.027-0.1,0.066c-0.079-0.039-0.057-0.068-0.131-0.033h-0.031c0.013,0.074,0.03,0.035,0,0.1
	c-0.083,0.033-0.173,0.045-0.262,0.033l-0.033,0.1c-0.117,0.109-0.187,0.025-0.328,0v0.1h-0.066
	c-0.087,0.037-0.187,0.023-0.262-0.033v0.102c-0.095-0.01-0.186-0.043-0.262-0.102c-0.042,0.107-0.029,0.088-0.164,0.102
	c-0.037-0.102-0.006-0.063-0.1-0.102c-0.052,0.09-0.029,0.084-0.164,0.102c-0.012-0.063-0.068-0.105-0.131-0.102v0.102
	c-0.092-0.021-0.18-0.055-0.263-0.102v0.102h-0.164v-0.102c-0.083,0.045-0.172,0.078-0.263,0.102
	c-0.013-0.049-0.051-0.088-0.1-0.102c-0.052,0.09-0.029,0.084-0.164,0.102c-0.013-0.049-0.051-0.088-0.1-0.102
	c-0.055,0.102-0.047,0.094-0.2,0.102v-0.102h-0.1v0.102H12.83v-0.102c-0.083,0.045-0.171,0.078-0.262,0.102
	c-0.037-0.102-0.006-0.063-0.1-0.102c-0.078,0.191-0.166,0.041-0.3,0v0.102H12.01v-0.102h-0.1v0.102h-0.163v-0.102
	c-0.083,0.045-0.171,0.078-0.262,0.102c-0.037-0.102-0.006-0.063-0.1-0.102c-0.078,0.191-0.166,0.041-0.3,0v0.102
	c-0.092-0.021-0.181-0.055-0.263-0.102v0.102h-0.157v-0.102c-0.083,0.045-0.172,0.078-0.263,0.102v-0.102
	c-0.083,0.045-0.171,0.078-0.262,0.102c-0.037-0.102-0.006-0.063-0.1-0.102c-0.052,0.09-0.03,0.084-0.164,0.102
	c-0.012-0.063-0.068-0.105-0.131-0.102v0.102H9.582v-0.102h-0.1v0.102c-0.095-0.01-0.187-0.043-0.263-0.102
	c-0.042,0.107-0.029,0.088-0.164,0.102c-0.037-0.102-0.006-0.063-0.1-0.102c-0.052,0.09-0.029,0.084-0.164,0.102
	c-0.012-0.063-0.068-0.105-0.131-0.102v0.102H8.5v-0.102H8.4v0.102H8.236v-0.102c-0.083,0.045-0.171,0.078-0.263,0.102
	c-0.14-0.051-0.272-0.117-0.394-0.201c-0.052,0.033-0.1,0.121-0.131,0.066l-0.131-0.045c-0.001-0.057-0.012-0.111-0.033-0.166
	c-0.083,0.039-0.18,0.039-0.263,0c-0.001-0.055-0.012-0.111-0.033-0.164c-0.04,0.027-0.084,0.051-0.131,0.066
	c-0.024-0.078-0.069-0.146-0.131-0.201c-0.029,0.021-0.064,0.033-0.1,0.033c-0.024-0.078-0.069-0.146-0.131-0.199
	c0,0-0.043,0.1-0.066,0.066v-0.029c-0.041-0.066-0.097-0.125-0.164-0.166c-0.051,0.041-0.017,0.021-0.066,0
	c-0.125-0.053-0.073-0.07-0.1-0.166c-0.221,0.037-0.181-0.012-0.23-0.166c-0.074,0.029-0.085,0.061-0.131,0.033
	c-0.037-0.07-0.094-0.127-0.164-0.164c-0.057,0.02-0.12,0.008-0.164-0.033c0.012-0.1,0.066-0.068-0.033-0.133
	c-0.039,0.023-0.085,0.035-0.131,0.033c-0.031-0.035-0.065-0.07-0.1-0.102c0.081-0.043,0.022,0.016,0.066-0.064H5.185v-0.031
	c-0.057,0.025-0.06,0.086-0.1,0.033c-0.176-0.07-0.033-0.115-0.2-0.166c-0.051,0.041-0.017,0.02-0.066,0
	c-0.037-0.061-0.081-0.117-0.131-0.166c-0.051,0.027-0.113,0.027-0.164,0c0.001-0.057-0.006-0.111-0.024-0.164
	c-0.045,0.037-0.107,0.051-0.164,0.033c-0.021-0.055-0.033-0.109-0.036-0.166c-0.052,0.021-0.111,0.021-0.164,0
	c-0.046-0.043-0.07-0.104-0.066-0.166c-0.131,0.014-0.12,0.037-0.2-0.066c-0.018-0.055-0.028-0.109-0.033-0.166
	c-0.093,0.01-0.068,0.035-0.131,0c-0.062-0.074-0.075-0.178-0.033-0.266H3.544c-0.007-0.049-0.03-0.096-0.066-0.131
	c0.015-0.049,0.037-0.094,0.066-0.133c-0.058-0.01-0.106-0.047-0.131-0.1c-0.03-0.09-0.018-0.188,0.033-0.266h-0.1
	c0-0.359-0.323-0.244-0.722-0.232c0.061,0.949,0.117,2.207,0.131,3.244H2.494c-0.002-0.412-0.046-0.822-0.131-1.225
	c-0.147-0.676,0.114-1.5,0-2.086c-0.222-0.014-0.084-0.055-0.328-0.066c0.001,0.371-0.26,0.689-0.623,0.762v-0.6
	c-0.308-0.127-0.514-0.422-0.526-0.754l0.131-0.365c0.065-0.1,0.192-0.16,0.263-0.264H0.23C0.153,21.277,0.088,20.75,0,20.313
	c0.038-0.049,0.082-0.094,0.131-0.133c0.162-0.037,0.326-0.059,0.492-0.066c0.445-0.133,0.967-0.258,1.411-0.43
	c0.025-0.086,0.036-0.176,0.033-0.264H0.755v-0.033c0.063-0.283,0.074-0.574,0.033-0.861c0-0.8-0.073-1.655-0.066-2.285
	c0.118-0.029,0.24-0.04,0.361-0.032c0.328,0.026,0.658,0.016,0.984-0.033v-0.431c-0.039-0.096-0.039-0.204,0-0.3
	c0.173-0.021,0.173-0.068,0.164-0.265c-0.021-0.12-0.021-0.244,0-0.364h4.1v-0.363c-0.188,0.074-0.389,0.107-0.591,0.1
	c-0.146-0.095-0.321-0.131-0.492-0.1c-0.05-0.079-0.073-0.172-0.066-0.265c0.067-0.047,0.148-0.069,0.23-0.066
	c0.028,0.062,0.101,0.091,0.164,0.066l0.033-0.101c0.234-0.064,0.483-0.027,0.689,0.101v-0.132h0.396v0.133l4.036,0.132h0.525
	c0.47-0.038,0.943-0.027,1.411,0.033v0.265h-0.2v0.2h1.509v-0.2c-0.542-0.145-0.484-0.914-0.427-1.556
	c0.233-0.206,0.553-0.281,0.853-0.2V12.8c0.058-0.616,0.069-1.236,0.033-1.854h0.033c0.407,0.113,0.825,0.18,1.247,0.2
	c0.59,0.145,1.305,0.13,1.9,0.3c0.245,0.098,0.497,0.176,0.755,0.232l0.164,0.894c0.529,0,1.1,0.019,1.575,0.033v-0.072
	c-0.067-0.215-0.111-0.437-0.131-0.662c-0.221-0.688-0.326-1.431-0.558-2.152c-0.438-1.36-0.661-2.8-1.083-4.2
	c-0.122-0.406-0.188-0.855-0.328-1.291c-0.141-0.375-0.242-0.763-0.3-1.159h0.033c0.051,0.339,0.139,0.672,0.262,0.993
	c0.195,0.6,0.284,1.219,0.459,1.788c0.363,1.181,0.549,2.4,0.919,3.542c0.129,0.4,0.134,0.76,0.263,1.159
	c0.162,0.5,0.233,1.108,0.427,1.622C20.157,12.314,20.216,12.469,20.246,12.632z M6.628,14.817h5.48v-0.165
	c-0.292-0.059-0.589-0.081-0.886-0.066c-0.413-0.061-0.832-0.071-1.247-0.033c-0.35-0.075-0.855,0.052-1.247-0.032
	c-0.674-0.085-1.355-0.106-2.034-0.066C6.639,14.566,6.616,14.692,6.628,14.817z M12.141,14.817h0.3v-0.2
	c-0.101-0.001-0.202,0.01-0.3,0.033V14.817L12.141,14.817z M14.041,14.817c0.776,0.068,1.559,0.046,2.33-0.065v-0.033h-2.064
	c-0.084-0.035-0.173-0.057-0.263-0.066v0.166L14.041,14.817z"/>
</svg>
