<svg xmlns="http://www.w3.org/2000/svg" width="39.969" height="40" viewBox="0 0 39.969 40">
  <defs>
    <style>
      .cls-1 {
        fill: #fff;
        fill-rule: evenodd;
      }
    </style>
  </defs>
  <path id="Color_Fill_1" data-name="Color Fill 1" class="cls-1" d="M26.305,9a0.173,0.173,0,0,1,.049.1H26.305V9Zm0.049,0.1a0.172,0.172,0,0,1,.049.1H26.355V9.1Zm0.049,0.1a0.172,0.172,0,0,1,.049.1H26.4v-0.1Zm0.049,0.1a0.173,0.173,0,0,1,.049.1H26.453v-0.1Zm0.049,0.1a0.173,0.173,0,0,1,.049.1H26.5v-0.1Zm0.2,0.337a0.173,0.173,0,0,1,.049.1H26.7v-0.1Zm0.049,0.1a0.172,0.172,0,0,1,.049.1H26.749v-0.1Zm0.049,0.1a0.173,0.173,0,0,1,.049.1H26.8v-0.1Zm0.049,0.1a0.172,0.172,0,0,1,.049.1H26.847v-0.1Zm0.049,0.1a0.173,0.173,0,0,1,.049.1H26.9v-0.1Zm0.049,0.1a0.173,0.173,0,0,1,.049.1H26.946V10.2ZM27,10.3a0.172,0.172,0,0,1,.049.1H27V10.3Zm0.049,0.1a0.172,0.172,0,0,1,.049.1H27.044V10.4Zm0.049,0.1a0.173,0.173,0,0,1,.049.1H27.094v-0.1Zm0.049,0.1a0.173,0.173,0,0,1,.049.1H27.143v-0.1Zm0.049,0.1a0.173,0.173,0,0,1,.049.1H27.192v-0.1Zm0.049,0.1a0.172,0.172,0,0,1,.049.1H27.241v-0.1Zm0.049,0.1a0.172,0.172,0,0,1,.049.1H27.291v-0.1Zm0.049,0.1a0.173,0.173,0,0,1,.049.1H27.34v-0.1Zm0.049,0.1a0.173,0.173,0,0,1,.049.1H27.389v-0.1Zm0.049,0.1a0.173,0.173,0,0,1,.049.1H27.438v-0.1Zm0.049,0.1a0.172,0.172,0,0,1,.049.1H27.488v-0.1Zm0.049,0.1a0.172,0.172,0,0,1,.049.1H27.537v-0.1Zm0.049,0.1a0.173,0.173,0,0,1,.049.1H27.586v-0.1Zm0.049,0.1a0.171,0.171,0,0,1,.049.1H27.636v-0.1Zm0.049,0.1a0.173,0.173,0,0,1,.049.1H27.685v-0.1Zm0.049,0.1a0.173,0.173,0,0,1,.049.1H27.734v-0.1Zm0.049,0.1a0.173,0.173,0,0,1,.049.1H27.783v-0.1Zm0.049,0.1a0.173,0.173,0,0,1,.049.1H27.833v-0.1Zm0.049,0.1a0.172,0.172,0,0,1,.049.1H27.882v-0.1Zm0.049,0.1a0.172,0.172,0,0,1,.049.1H27.931v-0.1Zm0.049,0.1a0.172,0.172,0,0,1,.049.1H27.98v-0.1Zm0.049,0.1a0.173,0.173,0,0,1,.049.1H28.03v-0.1Zm0.049,0.1a0.173,0.173,0,0,1,.049.1H28.079v-0.1Zm0.049,0.1a0.172,0.172,0,0,1,.049.1H28.128v-0.1Zm0.049,0.1a0.172,0.172,0,0,1,.049.1H28.177v-0.1Zm0.049,0.1a0.173,0.173,0,0,1,.049.1H28.227v-0.1Zm0.049,0.1a0.173,0.173,0,0,1,.049.1H28.276v-0.1Zm0.049,0.1a0.173,0.173,0,0,1,.049.1H28.325V12.9ZM28.374,13a0.172,0.172,0,0,1,.049.1H28.374V13Zm0.049,0.1a0.172,0.172,0,0,1,.049.1H28.424v-0.1Zm0.049,0.1a0.172,0.172,0,0,1,.049.1H28.473v-0.1Zm0.049,0.1a0.172,0.172,0,0,1,.049.1H28.522v-0.1Zm0.049,0.1a0.173,0.173,0,0,1,.049.1H28.571v-0.1Zm0.049,0.1a0.172,0.172,0,0,1,.049.1H28.621v-0.1Zm0.1,0.241a0.173,0.173,0,0,1,.049.1H28.719v-0.1Zm0.049,0.1a0.172,0.172,0,0,1,.049.1H28.769v-0.1Zm0.049,0.1a0.173,0.173,0,0,1,.049.1H28.818v-0.1Zm0.049,0.1a0.173,0.173,0,0,1,.049.1H28.867v-0.1Zm0.049,0.1a0.173,0.173,0,0,1,.049.1H28.916v-0.1Zm0.049,0.1a0.173,0.173,0,0,1,.049.1H28.966V14.2Zm0.049,0.1a0.172,0.172,0,0,1,.049.1H29.015V14.3Zm0.049,0.1a0.172,0.172,0,0,1,.049.1H29.064v-0.1Zm0.049,0.1a0.173,0.173,0,0,1,.049.1H29.113v-0.1Zm0.049,0.145a0.173,0.173,0,0,1,.049.1H29.163v-0.1Zm0.049,0.1a0.172,0.172,0,0,1,.049.1H29.212v-0.1Zm0.049,0.1a0.172,0.172,0,0,1,.049.1H29.261v-0.1Zm-12.118.048a0.618,0.618,0,0,1,.3.337H17.389V15.165A0.41,0.41,0,0,1,17.143,14.876ZM29.31,14.924a0.172,0.172,0,0,1,.049.1H29.31v-0.1Zm-11.527.337h0.394a0.23,0.23,0,0,1,.049-0.144,0.931,0.931,0,0,1,.443-0.048c0.119,0.285.324,0.262,0.739,0.241a0.306,0.306,0,0,1,.049-0.193v0.144h0.394a0.423,0.423,0,0,1,.443-0.241,0.338,0.338,0,0,1,.2-0.048v0.048c-0.16.061-.13,0.042-0.148,0.241a3.8,3.8,0,0,1,1.576.385l0.493,0.1a0.551,0.551,0,0,1,.148.385H23V15.936a6.032,6.032,0,0,0,.887.289,0.6,0.6,0,0,1-.049.193,0.723,0.723,0,0,1,.246.048l0.049,0.289c1.859,0,3.565.092,5.468,0.1v0.241l-5.32.1v0.1a0.272,0.272,0,0,1,.3.289c-0.133.1-.163,0.242-0.3,0.337a3.415,3.415,0,0,1-.936.193c-0.091-.047.043-0.091-0.2-0.145-0.135.1-.191,0.037-0.246,0.241a0.35,0.35,0,0,1,.246.289c1.73,0,3.663.056,5.172,0.048a0.229,0.229,0,0,1,.049-0.145,0.338,0.338,0,0,1,.2-0.048,6.261,6.261,0,0,0,1.034.193v0.145a0.987,0.987,0,0,0,.3,0,0.634,0.634,0,0,1,.493-0.193v0.048c-0.135.076-.124,0.043-0.148,0.241H30.3a1.578,1.578,0,0,1,.443,0c0.043-.069.171-0.135,0.2-0.193a0.761,0.761,0,0,1,0-.289v0.1a4.784,4.784,0,0,1,.394.482,5.794,5.794,0,0,0,.788.241c0.191,0.428.443,0.835,0.69,1.3h0.148L33,19.789l0.887,0.048a0.667,0.667,0,0,1,.049.193,1.143,1.143,0,0,0-.049.53l0.985,0.1V20.415h0.049v0.048c0.055,0.08-.047.1,0.1,0.193a3.2,3.2,0,0,0,.837.1c0.589,0.129,1.464.164,2.069,0.337a0.274,0.274,0,0,0,.3-0.1v0.145a2.084,2.084,0,0,1,.788.1c-0.034.12-.116,0.09-0.049,0.145a0.337,0.337,0,0,0,.2.048V21.041h0.1v0.385a0.948,0.948,0,0,1,.64.241h0.049c0.049,0.049-.048.048-0.049,0.048-0.124.09-.351,0.057-0.493,0.145a3.121,3.121,0,0,0-.64.771,22.651,22.651,0,0,1-1.823,1.734,6.394,6.394,0,0,1-.739.915c-1,.709-2.149,1.191-3.2,1.83a25.332,25.332,0,0,1-4.68,2.5l-1.823.193a15.218,15.218,0,0,1-2.956.144H13l-1.724-.482L10.2,29.229C9.824,29.077,9.43,28.79,9.064,28.6l-0.788-.337L8.03,27.977A15.386,15.386,0,0,0,5.764,26.2l-0.049.144-0.148-.048a1.307,1.307,0,0,0-.788-0.578,18.273,18.273,0,0,0-2.463-1.252,4.206,4.206,0,0,1-.936-0.1,0.173,0.173,0,0,1-.049-0.1,2.264,2.264,0,0,0,.2-0.337C1.7,23.82,1.7,24,1.724,23.69a4.758,4.758,0,0,0,.2-1.638H1.034a3.028,3.028,0,0,1-.2-1.638H0.788V20.367a1.7,1.7,0,0,1-.493.1c-0.014-.127-0.041-0.1-0.3-0.1V19.982l0.2-.048c0.014,0.125,0,.095.246,0.1a0.261,0.261,0,0,1,.148-0.193V19.789c-0.14.015-.1,0.051-0.2,0H0.443a1.983,1.983,0,0,1,.985-0.723,0.775,0.775,0,0,1,.936.337,3.347,3.347,0,0,1,1.084-.241,1.769,1.769,0,0,1,1.527-.048H5.961c0.153,0.048.34,0.241,0.493,0.289H6.9c0.078,0.026.168,0.167,0.246,0.193h0.64a5.472,5.472,0,0,0,1.232.193c0.064,0.119-.021.033,0.1,0.1v0.048a0.941,0.941,0,0,0-.591.1c0.488,0,.952-0.036,1.379-0.048a0.721,0.721,0,0,0,.1-0.193H9.9a0.626,0.626,0,0,1-.591.048A1.592,1.592,0,0,0,10,19.693c0.135-.186.048-0.239,0.394-0.241a0.865,0.865,0,0,1,.049.289,0.51,0.51,0,0,0-.3.241h0.3a1.272,1.272,0,0,0,.2.048v-1.3a0.625,0.625,0,0,0,.049-0.337,1.576,1.576,0,0,0-.493.048V18.3a1.773,1.773,0,0,0,.1-0.289H8.67a0.434,0.434,0,0,0-.246-0.048V17.766h1.97a1.2,1.2,0,0,1,.1-0.241V17.67a2.83,2.83,0,0,1,.591.048,0.5,0.5,0,0,1,.049-0.289v0.193a1.547,1.547,0,0,0,.69-0.1,0.585,0.585,0,0,0,.493.1,1.47,1.47,0,0,1,.591-0.193v0.048h0.049c-0.027.093-.081,0.041,0,0.1,0.1,0.186.146,0.2,0.443,0.193a2.552,2.552,0,0,0,.148.482h1.182V19.6a0.637,0.637,0,0,1,.2.048l-0.049.145c0.317,0.041.374,0.191,0.69,0.241V18.489a0.8,0.8,0,0,1,.493-0.289,0.435,0.435,0,0,1,.246-0.048,6.137,6.137,0,0,1,0-2.119,0.359,0.359,0,0,1-.345-0.144,3.175,3.175,0,0,1,.3-0.53c0.109-.071.32-0.025,0.443-0.1l0.049-.144a1.538,1.538,0,0,0,.3.1,0.4,0.4,0,0,1,.049-0.241c0,0.291.045,0.3,0.345,0.289a0.717,0.717,0,0,1,.443-0.289v0.1C17.757,15.139,17.806,15.09,17.783,15.262Zm11.576-.241a0.173,0.173,0,0,1,.049.1H29.36v-0.1Zm0.049,0.1a0.173,0.173,0,0,1,.049.1H29.409v-0.1ZM18.67,15.31V15.165H18.227v0.1h0.2A0.435,0.435,0,0,0,18.67,15.31Zm10.788-.1a0.173,0.173,0,0,1,.049.1H29.458v-0.1Zm0.049,0.1a0.242,0.242,0,0,1,.049.145H29.507V15.31Zm0.049,0.145a0.172,0.172,0,0,1,.049.1H29.557v-0.1Zm0.049,0.1a0.172,0.172,0,0,1,.049.1H29.606v-0.1Zm0.049,0.1a0.172,0.172,0,0,1,.049.1H29.655v-0.1Zm-13.6.1v0.193a0.17,0.17,0,0,1,.1.048,0.17,0.17,0,0,0,.1-0.048,0.242,0.242,0,0,0,.049-0.145A0.787,0.787,0,0,0,16.059,15.743Zm13.645,0a0.173,0.173,0,0,1,.049.1H29.7v-0.1Zm0.049,0.1a0.173,0.173,0,0,1,.049.1H29.754v-0.1Zm0.049,0.1a0.242,0.242,0,0,1,.049.145H29.8V15.936Zm0.049,0.145a0.173,0.173,0,0,1,.049.1H29.852v-0.1Zm0.049,0.1a0.172,0.172,0,0,1,.049.1H29.9v-0.1Zm0.049,0.1a0.172,0.172,0,0,1,.049.1H29.951v-0.1ZM30,16.369a0.172,0.172,0,0,1,.049.1H30v-0.1Zm0.049,0.1a0.173,0.173,0,0,1,.049.1H30.049v-0.1ZM30.1,16.61a0.173,0.173,0,0,1,.049.1H30.1v-0.1Zm0.049,0.1a0.172,0.172,0,0,1,.049.1H30.148v-0.1ZM30.2,16.8a0.172,0.172,0,0,1,.049.1H30.2V16.8Zm0.049,0.1a0.173,0.173,0,0,1,.049.1H30.246V16.9ZM30.3,17a0.242,0.242,0,0,1,.049.145H30.3V17Zm-19.7.145a0.173,0.173,0,0,1,.049.1H10.591v-0.1Zm19.754,0a0.173,0.173,0,0,1,.049.1H30.345v-0.1Zm-19.8.1a0.242,0.242,0,0,1,.049.145H10.542V17.236Zm19.852,0a0.172,0.172,0,0,1,.049.1H30.394v-0.1Zm0.049,0.1a0.172,0.172,0,0,1,.049.1H30.443v-0.1Zm-19.951.048a0.243,0.243,0,0,1,.049.145H10.493V17.381Zm20,0.048a0.173,0.173,0,0,1,.049.1H30.493v-0.1Zm0.049,0.145a0.172,0.172,0,0,1,.049.1H30.542v-0.1Zm0.049,0.1a0.173,0.173,0,0,1,.049.1H30.591v-0.1Zm-19.212.048v0.1c0.176-.02.124,0.023,0.2-0.1h-0.2ZM30.64,17.766a0.172,0.172,0,0,1,.049.1H30.64v-0.1Zm0.049,0.1a0.242,0.242,0,0,1,.049.145H30.69V17.862ZM13,18.151a2.8,2.8,0,0,0-.591,0,0.554,0.554,0,0,0-.1.145c-0.338-.045-0.772.087-1.478,0.1v0.337h0.049c0.514-.344,1.811.624,1.872,0.867h0.788V18.344c-0.145.017-.1,0.1-0.2-0.048a0.922,0.922,0,0,1-.1-0.385h-0.2A0.743,0.743,0,0,0,13,18.151Zm17.734-.144a0.173,0.173,0,0,1,.049.1H30.739v-0.1Zm0.049,0.1a0.172,0.172,0,0,1,.049.1H30.788V18.1Zm0.049,0.1a0.172,0.172,0,0,1,.049.1H30.837V18.2Zm-18.719.145c0.131,0.057.088-.043,0.148,0.1H12.118v-0.1Zm-1.97.1a0.278,0.278,0,0,1-.049.337Zm18.227,0v0.1c0.453,0.008.7,0.089,1.133,0.1v-0.1H29.163A1.692,1.692,0,0,0,28.374,18.44Zm-18.325.337a0.173,0.173,0,0,1,.049.1H10.049v-0.1Zm-7.734.337a0.324,0.324,0,0,1,.2.048A0.324,0.324,0,0,1,2.315,19.115Zm-2.02.723h0.1v0.048A0.171,0.171,0,0,1,.3,19.837Zm-0.1.048H0.3v0.048A0.17,0.17,0,0,1,.2,19.885Zm14.68,0c0.065,0.162.076,0.14,0.3,0.145v-0.1H15.025A0.255,0.255,0,0,0,14.877,19.885Zm-14.828.193v0.241h0.1V20.271A0.319,0.319,0,0,0,.2,20.078H0.049Zm0.542,0.434a0.324,0.324,0,0,1,.2.048A0.324,0.324,0,0,1,.591,20.512Zm35.566,0.53a0.179,0.179,0,0,0,.1.048A0.179,0.179,0,0,0,36.158,21.041Zm1.773,0.145c0.014,0.125-.023.085,0.2,0.1V21.234Zm0.246,0.048v0.1h0.246v-0.1H38.177ZM1.97,23.161c0,0.373-.079.539-0.1,0.867H1.921a0.179,0.179,0,0,1,.1-0.048A1.974,1.974,0,0,0,1.97,23.161ZM36.5,24.7a3.964,3.964,0,0,1-1.281.867c-0.691.42-1.406,0.82-2.118,1.252a32.729,32.729,0,0,1-4.286,2.312c-0.183.078-.4,0.277-0.591,0.337H27.636c-0.356.079-.772,0.052-1.182,0.145a15.585,15.585,0,0,1-3.054.145H12.956c-0.5-.129-1.112-0.327-1.626-0.482-0.34-.1-0.65-0.062-0.985-0.193-0.393-.154-0.844-0.477-1.231-0.674l-0.788-.337c-0.505-.336-0.843-1.118-1.478-1.3v0.048c0.545,0.343.9,0.952,1.429,1.3a15.82,15.82,0,0,0,4.581,1.686H23.645a15.632,15.632,0,0,0,3.1-.145l1.527-.145a22.625,22.625,0,0,0,4.581-2.456c0.874-.533,1.756-1.021,2.611-1.541a2.059,2.059,0,0,0,1.084-.819H36.5ZM7.882,27.014a0.371,0.371,0,0,0,.246.193V27.158a0.173,0.173,0,0,0,.049-0.1ZM30.64,27.351a0.434,0.434,0,0,1-.246.048v0.048c0.11,0.108.146,0.266,0.246,0.385a1.914,1.914,0,0,1,.493-0.289V27.5A1.7,1.7,0,0,1,30.64,27.351Zm-20.837.1a0.543,0.543,0,0,1-.3.048,1.331,1.331,0,0,0-.2.53,1.632,1.632,0,0,0,.64.337,1.184,1.184,0,0,1,.3-0.626,0.235,0.235,0,0,0,.246,0A2.489,2.489,0,0,0,9.8,27.447Zm1.33,0.434V27.736l-0.493-.1v0.1h0.1A0.911,0.911,0,0,0,11.133,27.881Zm17.98-.241a1.158,1.158,0,0,1-.345.1,0.942,0.942,0,0,1-.246.482,0.662,0.662,0,0,0,.394.482,1.607,1.607,0,0,1,.493-0.241,4.255,4.255,0,0,0-.345-0.674c0.16-.04.075,0.024,0.148-0.1h0.049V27.64H29.113Zm-2.168.482v0.289a0.334,0.334,0,0,0-.246,0,1.155,1.155,0,0,0-.443.482,0.626,0.626,0,0,1,.049.337l1.133-.144V29.037a2,2,0,0,1-.246-0.433,3.718,3.718,0,0,0,.739-0.578,0.377,0.377,0,0,0-.148-0.145,0.188,0.188,0,0,1-.148.241,3.024,3.024,0,0,1-.394.145C27.177,28.1,27.166,28.127,26.946,28.122ZM12.02,27.929a0.179,0.179,0,0,0,.1.048A0.179,0.179,0,0,0,12.02,27.929Zm1.429,0c0.041,0.156-.024.074,0.1,0.145a0.3,0.3,0,0,1,.1-0.1V27.929h-0.2Zm0.739,0h-0.2v0.048l0.148,0.1v0.048h0.049V27.929Zm1.33,0c0.041,0.156-.024.074,0.1,0.145a0.3,0.3,0,0,1,.1-0.1V27.929h-0.2Zm0.788,0h-0.2v0.1l0.2,0.048V27.929Zm1.33,0c0.041,0.156-.024.074,0.1,0.145a0.3,0.3,0,0,1,.1-0.1V27.929h-0.2Zm0.739,0h-0.2v0.048l0.148,0.1v0.048h0.049V27.929Zm1.33,0c0.041,0.156-.024.074,0.1,0.145a0.3,0.3,0,0,1,.1-0.1V27.929H19.7Zm0.739,0h-0.2v0.048l0.148,0.1v0.048h0.049V27.929Zm1.379,0-0.049.145h0.1a0.3,0.3,0,0,1,.1-0.1V27.929H21.823Zm0.739,0h-0.2v0.048l0.148,0.1v0.048h0.049V27.929Zm1.33,0c0.041,0.156-.024.074,0.1,0.145a0.3,0.3,0,0,1,.1-0.1V27.929h-0.2Zm0.788,0H24.434v0.048c0.078,0.046.148,0.175,0.2,0.1A0.242,0.242,0,0,0,24.68,27.929Zm1.33,0c0.041,0.156-.024.074,0.1,0.145a0.3,0.3,0,0,1,.1-0.1V27.929h-0.2Zm0.739,0h-0.2v0.048l0.148,0.1v0.048h0.049V27.929Zm-15.419.482a0.769,0.769,0,0,1-.148.434,9.541,9.541,0,0,1,1.182.289V28.892c0.085-.136.012-0.177-0.049-0.289h0.049V28.555a5.708,5.708,0,0,1,.887-0.145V28.122H13.2a1.008,1.008,0,0,1-.985,0,0.468,0.468,0,0,1-.1.241A1.109,1.109,0,0,0,11.33,28.411Zm3.1-.241v0.193a0.707,0.707,0,0,0-.69.674,1.346,1.346,0,0,1,0,.289h0.739v-0.1a0.523,0.523,0,0,1,.049-0.482,0.266,0.266,0,0,1-.1-0.193,0.81,0.81,0,0,0,.246.048,0.965,0.965,0,0,1,.2-0.193c0.21-.075.386,0.006,0.493-0.048a0.409,0.409,0,0,1-.049-0.241H15.271A0.883,0.883,0,0,1,14.434,28.17Zm1.379,1.156h0.739A1.528,1.528,0,0,0,16.5,28.6a2.561,2.561,0,0,1,.936-0.193V28.122H17.389a0.856,0.856,0,0,1-.887,0,0.4,0.4,0,0,1-.049.241,0.744,0.744,0,0,0-.64.674A0.36,0.36,0,0,1,15.813,29.326Zm2.759-.915a0.334,0.334,0,0,0-.246,0,1.746,1.746,0,0,0-.443.434,0.649,0.649,0,0,1,0,.482H18.67v-0.1a3.822,3.822,0,0,1-.1-0.626,3.051,3.051,0,0,1,.936-0.193V28.122H19.458a0.862,0.862,0,0,1-.887,0v0.289Zm2.168,0.915c-0.039-.354-0.01-0.5-0.049-0.771,0.288,0.067.443-.167,0.936-0.145V28.362c-0.034-.049-0.063-0.193-0.1-0.241v0.145a2.729,2.729,0,0,1-.837-0.145c-0.009.22,0,.243-0.2,0.289a0.179,0.179,0,0,0-.1-0.048,3.867,3.867,0,0,1-.443.482,0.617,0.617,0,0,1,0,.482h0.788Zm2.02-.915a0.568,0.568,0,0,0-.246,0,0.773,0.773,0,0,0-.443.53,0.493,0.493,0,0,1,0,.385h0.788V29.278a3.931,3.931,0,0,1-.1-0.674,3.262,3.262,0,0,1,.936-0.193V28.122H23.645a0.862,0.862,0,0,1-.887,0v0.289Zm3.054,0V28.122H25.764a0.946,0.946,0,0,1-.936,0,0.474,0.474,0,0,1,0,.289l-0.246-.048a4.523,4.523,0,0,1-.443.482,0.617,0.617,0,0,1,0,.482h0.838V29.278a3.922,3.922,0,0,1-.1-0.674A2.953,2.953,0,0,1,25.813,28.411Zm-8.325,0a0.179,0.179,0,0,0,.1.048A0.179,0.179,0,0,0,17.488,28.411Zm2.069,0a0.179,0.179,0,0,0,.1.048A0.179,0.179,0,0,0,19.557,28.411Zm6.306,0a0.179,0.179,0,0,0,.1.048A0.179,0.179,0,0,0,25.862,28.411Z" transform="translate(0 0.531)"/>
</svg>
