<?xml version="1.0" encoding="utf-8"?>
<!-- Generator: Adobe Illustrator 16.0.0, SVG Export Plug-In . SVG Version: 6.00 Build 0)  -->
<!DOCTYPE svg PUBLIC "-//W3C//DTD SVG 1.1//EN" "http://www.w3.org/Graphics/SVG/1.1/DTD/svg11.dtd">
<svg version="1.1" id="Layer_1" xmlns="http://www.w3.org/2000/svg" xmlns:xlink="http://www.w3.org/1999/xlink" x="0px" y="0px"
	 width="40px" height="40px" viewBox="0 0 40 40" enable-background="new 0 0 40 40" xml:space="preserve">
<path id="Color_Fill_1" fill="#FFFFFF" d="M15.47,9.048c-0.012-0.176,0.004-0.353,0.048-0.524c0.173,0.051,0.351,0.084,0.53,0.1
	V8.81l-0.289-0.048v0.286h2.458c0.119,1.012,0.135,2.033,0.048,3.048h-2.313v0.333H16.1c-0.032,0.141-0.048,0.284-0.048,0.428
	c0.436,0.14,0.898,0.174,1.349,0.1h3.855c0.075-0.034,0.006-0.006,0.145,0v0.9c-0.076,0.029-0.158,0.045-0.24,0.048
	c-0.283-0.083-0.584-0.083-0.867,0c-0.208,0.041-0.562-0.038-0.627,0c-0.021,0.062-0.037,0.126-0.048,0.19
	c-0.173-0.043-0.352-0.059-0.53-0.049v0.477H18.8c-0.04,0.154,0.024,0.072-0.1,0.143v-0.475h-0.146v0.333h-0.1v-0.333h-0.719v0.048
	c0.239,0.138,0.465,0.298,0.675,0.476c-0.128,0.111-0.213,0.263-0.241,0.43c0.098,0.076,0.214,0.125,0.337,0.143
	c0.043-0.041,0.092-0.074,0.145-0.1c-0.017-0.141-0.1-0.1,0.048-0.191c0.314-0.158,0.62-0.334,0.916-0.523
	c0.038,0.004,0.073,0.021,0.1,0.048c0.056,0.056,0.089,0.135,0.145,0.19c0.122-0.1,0.277-0.15,0.434-0.143l0.048,0.143
	c0.077,0.234,0.141,0.473,0.193,0.715c-0.387,0.08-0.73,0.301-0.964,0.619h0.578c0.092,0.039,0.076,0.207,0.241,0.19
	c0.11-0.011,0.338-0.2,0.482-0.238c0.319-0.042,0.644-0.042,0.964,0c0.183-0.077,0.381-0.111,0.578-0.1
	c0.57,0.119,1.154,0.153,1.734,0.1v-0.282h0.049v0.047c0.017,0.027,0.1,0.222,0,0.238H25.2c0.43-0.099,0.878-0.082,1.3,0.049
	c0.04-0.154-0.023-0.073,0.1-0.144c0,0.193-0.078,0.114,0.049,0.19c0.279,0.092,0.572,0.14,0.867,0.143l0.1-0.143
	c0.134,0.008,0.265,0.041,0.386,0.1c0.142-0.021,0.483-0.2,0.675-0.238c0.416,0.004,0.826,0.102,1.2,0.286
	c0.06-0.042,0.124-0.076,0.192-0.1c0.301,0.02,0.643,0.095,1.013,0.1v0.333c0.399,0.164,0.822,0.26,1.253,0.286l-0.1-3.619
	c0.213-0.007,0.426,0.027,0.627,0.1v0.143l-0.338-0.048c0.111,0.974,0.252,2.2,0.289,3.333L33.3,16.9
	c0.032,0.092,0.048,0.188,0.048,0.286H33.3v-0.043c-0.019-0.057-0.054-0.106-0.1-0.144c-0.112-0.083-0.247-0.133-0.386-0.143V17.1
	c0.093,0.012,1.086,0.319,1.107,0.333h0.048c0.033,0.1,0.103,0.185,0.193,0.238c0.362,0.168,0.7,0.213,1.06,0.381
	c0.293,0.218,0.648,0.334,1.012,0.332c0.168,0.15,0.365,0.264,0.578,0.334c0-0.484,0.096-0.717,0.101-1.334h-0.101
	c0.028,0.192,0.012,0.388-0.047,0.572c-0.066-0.429-0.051-0.865,0.047-1.287v0.571h0.193l-0.048,0.381h0.048
	c0.146-0.16,0.365-0.232,0.578-0.189c0.042,0.156,0.076,0.315,0.1,0.476c-0.049,0.123-0.082,0.25-0.1,0.381h-0.139
	c-0.006,0.063-0.044,0.116-0.1,0.144v0.048h0.1c0.189-0.113,0.408-0.164,0.628-0.143v0.047c-0.046,0.284-0.046,0.574,0,0.857
	l0.386,0.143c0.139-0.264,0.205-0.559,0.193-0.856H38.7c0.214,0.119,0.44,0.215,0.675,0.286c-0.173,0.24-0.288,0.518-0.337,0.809
	c0.256,0.221,0.347-0.07,0.578-0.143c0.026,0.026,0.062,0.043,0.1,0.047c0.12,0.213,0.217,0.436,0.289,0.668
	c-0.347,0.238-0.655,0.527-0.916,0.857c-0.852,0.674-1.657,1.406-2.409,2.189c-0.317,0.355-0.655,0.689-1.013,1H34.6v0.049h-0.045
	c0.016,0.207-0.001,0.416-0.049,0.619h-0.1v-0.625c-0.018-0.012-0.289-0.143-0.289-0.143c-0.032-0.133-0.081-0.26-0.145-0.381
	c-0.326,0.201-0.91,0.1-1.201,0.334c0.348-0.027,0.689-0.107,1.013-0.238c0.036,0.172,0.052,0.348,0.048,0.523H33.59
	c-0.07-0.178-0.045-0.215-0.289-0.238c-0.041,0.031-0.15,0.064-0.193,0.1c-0.041,0.037-0.01,0.123-0.047,0.191
	c-0.063,0.037-0.127,0.072-0.193,0.1c-0.034,0.049,0.087,0.602,0.048,0.764c-0.079,0.432-0.226,0.85-0.435,1.236
	c-0.986,1.432-2.945,1.791-4.375,0.805c-0.281-0.193-0.528-0.432-0.732-0.703c-0.231-0.383-0.395-0.801-0.482-1.238
	c0.039-0.428,0.039-0.859,0-1.287v0.287h-0.24C26.617,24.301,26.6,24.201,26.6,24.1h-0.287c-0.049,0.264-0.145,0.146-0.192,0.238
	c-0.038,0.072,0.1,0.869,0.048,1.1c-0.168,0.832-0.651,1.566-1.35,2.049c-0.287,0.164-0.596,0.293-0.916,0.381
	c-0.666,0.139-1.36,0.055-1.976-0.238c-1.27-0.574-1.773-1.539-1.735-3.285h-2.264c-0.088,0.113-0.154,0.242-0.193,0.381
	c0.063,0.494-0.039,0.996-0.289,1.428c-0.027,0.113-0.061,0.225-0.1,0.334c-0.667,1.027-1.867,1.578-3.081,1.414
	c-1.812-0.434-2.581-1.549-2.506-3.572H11.47c-0.145,0.465-0.241,0.943-0.289,1.43c-0.254,0.754-0.766,1.395-1.446,1.809
	c-1.472,0.799-3.313,0.254-4.112-1.219c-0.326-0.602-0.439-1.293-0.323-1.967H5.253c-0.373,0.18-0.795,0.23-1.2,0.143
	c-0.1-0.057-0.196-0.121-0.289-0.189H2.651V24.1c-0.5,0-0.452,0.217-0.916,0.238c-0.089-0.051-0.17-0.115-0.241-0.189
	c-0.092-0.158-0.128-0.344-0.1-0.523c0.367-0.201,0.796-0.252,1.2-0.145l0.048-0.143c-0.063-0.082-0.098-0.182-0.1-0.285
	c-0.247,0.039-0.489,0.104-0.723,0.189c-0.142,0.01-0.284-0.008-0.419-0.051V23.1h0.142C1.533,22.393,1,21.529,1.06,21.049
	c-0.073-0.201-0.122-0.408-0.145-0.619c0.227-0.152,0.5-0.221,0.771-0.191c0.047,0.188,0.129,0.365,0.241,0.523v-0.1
	c-0.045-0.174-0.127-0.336-0.241-0.477C1.56,20.146,1.431,20.119,1.3,20.1c-0.025-0.066-0.059-0.131-0.1-0.189
	c-0.195,0.164-0.48,0.164-0.675,0c0.142-0.066,0.132-0.092,0.145-0.285c-0.071-0.186-0.118-0.379-0.14-0.577
	c-0.033-0.148-0.082-0.292-0.146-0.43H0.241c0.027-0.098,0.06-0.193,0.1-0.285C0.26,17.958,0.146,17.592,0,17.238l0.1-0.048
	c0.173-0.126,0.505-0.106,0.675-0.238c-0.125-0.182-0.012-0.104,0.048-0.333H0.771v-0.048c-0.149,0.075-0.315,0.11-0.482,0.101
	c-0.027-0.027-0.043-0.063-0.048-0.101c0.339-0.14,0.696-0.236,1.06-0.286v-0.142C1.596,16.045,1.906,15.997,2.217,16v0.144H2.6
	v0.143h0.388c0.073-0.062,0.124-0.145,0.145-0.237c0.087-0.377,0.104-0.766,0.048-1.148V0.952h0.048V1h0.048
	c-0.09,0.327-0.09,0.672,0,1v13.143c-0.051,0.353-0.017,0.712,0.1,1.048c0.372,0.125,0.769,0.159,1.157,0.1h2.984v-0.434H6.506
	V15.81h0.048c0.058-0.035,0.125-0.053,0.193-0.049c-0.016-0.299,0.015-0.74,0-0.899c0-0.03-0.141-0.101-0.1-0.19
	c0.132-0.074,0.234-0.191,0.289-0.332C6.882,13.889,6.803,13.441,6.7,13c-0.267-1.018-0.267-1.979-0.53-3
	C5.894,9.085,5.716,8.144,5.64,7.191h0.047c0.092,0.71,0.237,1.412,0.434,2.1c0.283,1.092,0.344,2.2,0.627,3.238
	c0.071,0.639,0.233,1.265,0.482,1.857c0.012,0.02,0.028,0.036,0.048,0.048V12.81c-0.027-0.094-0.027-0.193,0-0.286
	c-0.125-0.013-0.086,0.022-0.1-0.191h0.051c0,0,0.009,0.186,0.048,0.1v-0.1c0.108-0.486,0.108-0.99,0-1.476v-0.571
	c-0.069-0.1-0.113,0.047-0.145-0.1c0.042-0.031,0.093-0.048,0.145-0.048c0-1.629-0.066-3.426,0.048-5.238h0.53v2.9H8
	C7.88,8.266,7.847,8.75,7.9,9.229C7.939,9.322,7.973,9.417,8,9.515c-0.02,0.044-0.056,0.08-0.1,0.1l0.048,2.762
	c0.331-0.003,0.659,0.062,0.964,0.19L8.867,12.1H8.482v-3C8.848,9.037,9.22,9.021,9.59,9.052H12L13.4-1h0.1v0.048
	c-0.063,0.217-0.097,0.441-0.1,0.667c-0.155,0.644-0.124,1.358-0.289,2.048l-1.06,7.286L15.47,9.048L15.47,9.048z M4.867,3.333
	c0.026,0.027,0.043,0.062,0.048,0.1H4.867V3.333z M4.916,3.571c0.027,0.027,0.043,0.063,0.048,0.1H4.916V3.571z M4.964,3.81
	c0.027,0.027,0.044,0.062,0.048,0.1H4.964V3.81z M5.012,4.048c0.026,0.027,0.043,0.062,0.048,0.1H5.012V4.048z M5.06,4.286
	c0.031,0.042,0.048,0.092,0.048,0.143H5.06V4.286z M5.108,4.524c0.031,0.041,0.048,0.091,0.048,0.143H5.108V4.524z M5.156,4.762
	C5.185,4.802,5.2,4.851,5.2,4.9H5.157L5.156,4.762L5.156,4.762z M5.2,5.048c0.026,0.027,0.043,0.062,0.048,0.1H5.2V5.048z
	 M5.248,5.286c0.026,0.027,0.043,0.063,0.048,0.1H5.253v-0.1H5.248z M5.3,5.524c0.031,0.041,0.048,0.091,0.048,0.143H5.3V5.524z
	 M5.348,5.762C5.379,5.801,5.397,5.85,5.4,5.9H5.349L5.348,5.762L5.348,5.762z M5.4,6c0.031,0.041,0.048,0.091,0.048,0.143H5.4V6z
	 M5.448,6.238C5.479,6.279,5.496,6.33,5.496,6.381h-0.05V6.238H5.448z M5.496,6.476c0.051,0.053,0.051,0.138,0,0.191V6.476z
	 M5.544,6.714c0.051,0.053,0.051,0.138,0,0.191V6.714z M5.59,7c0.031,0.041,0.048,0.091,0.048,0.143H5.59V7z M7.325,9.381h0.241
	C7.567,9.329,7.55,9.279,7.518,9.238c-0.06,0.033-0.133,0.033-0.193,0V9.381z M7.662,9.381H7.9v-0.1H7.855V9.238
	c-0.062,0.024-0.131,0.024-0.193,0V9.381z M8.962,12.238c-0.013,0.098,0.004,0.198,0.048,0.286c0.014-0.098-0.002-0.197-0.046-0.286
	H8.962z M15.082,12.381v0.143c0.12-0.069,0.267-0.069,0.386,0v-0.286h-0.046c-0.235,0.066-0.481,0.082-0.723,0.048v0.1h0.386
	L15.082,12.381z M9.154,12.281v0.1H9.3v-0.1H9.157H9.154z M9.4,12.524c0.181-0.007,0.169,0.022,0.241-0.1H9.446v-0.043H9.4V12.524z
	 M16.34,12.624c0.027,0.027,0.044,0.062,0.048,0.1h-0.051v-0.1H16.34z M16.292,12.767c0.031,0.041,0.048,0.091,0.048,0.143h-0.051
	v-0.148L16.292,12.767z M17.111,13.867c0.027,0.026,0.063,0.043,0.1,0.048c-0.026-0.031-0.063-0.051-0.103-0.058L17.111,13.867z
	 M17.545,13.867c0.083,0.042,0.062,0.042,0.144,0h-0.147H17.545z M17.786,13.867c0.202,0.077,0.425,0.077,0.627,0h-0.63H17.786z
	 M17.738,13.967L17.69,14.11h0.289v-0.062h0.048C18,14.021,17.965,14.004,17.927,14c-0.057-0.035-0.125-0.052-0.192-0.048
	L17.738,13.967z M18.22,13.967l-0.048,0.143h0.289V14c-0.078-0.029-0.161-0.045-0.244-0.048L18.22,13.967z M17.353,14.205
	c0.129,0.099,0.229,0.23,0.289,0.381H17.59l0.048,0.101c0.126,0.108,0.274,0.189,0.434,0.237c0.003-0.037,0.021-0.072,0.048-0.1
	v-0.1c-0.19-0.26-0.461-0.447-0.771-0.533L17.353,14.205z M19.04,14.253h-0.197V14.3c0.058,0.057,0.123,0.105,0.193,0.144v-0.206
	L19.04,14.253z M22.173,15.966c0.055,0.051,0.139,0.051,0.193,0h-0.197H22.173z M26.6,16.191c0.055,0.051,0.139,0.051,0.193,0H26.6z
	 M26.889,16.191c0.084,0.042,0.063,0.042,0.146,0h-0.142H26.889z M19.612,16.239c0.169,0.072,0.361,0.072,0.53,0H19.612z M0.867,17
	V17.1h0.049C0.912,17.062,0.895,17.027,0.867,17z M0.915,17.333l0.048,0.143h0.049v-0.143h-0.1H0.915z M1.015,17.666L1.06,17.81
	h0.048c-0.006-0.061-0.042-0.115-0.096-0.143L1.015,17.666z M0.196,18.237c0.051,0.054,0.051,0.138,0,0.19V18.237L0.196,18.237z
	 M36.967,18.237v0.101h0.1v-0.101H36.967z M1.2,18.38c0.029,0.134,0.078,0.262,0.145,0.381v-0.19
	C1.317,18.495,1.266,18.428,1.2,18.38z M36.718,18.38c0.031,0.042,0.048,0.092,0.048,0.144h-0.043V18.38H36.718z M1.4,19.857
	c-0.019,0.107-0.044,0.051,0,0.143c0.027,0.027,0.063,0.043,0.1,0.049C1.51,19.969,1.47,19.893,1.4,19.857z M1.06,21.43
	c0.05,0.053,0.05,0.137,0,0.189V21.43z M1.783,23.762c-0.057,0.049-0.093,0.117-0.1,0.191c0.041,0.025,0.075,0.059,0.1,0.1L1.928,24
	c0.004-0.037,0.021-0.074,0.048-0.1v-0.1H1.928v-0.039H1.783z M25.977,23.762V23.9c0.32,0.047,0.648,0.031,0.963-0.049
	C26.548,23.854,26.4,23.766,25.977,23.762z"/>
</svg>
