<?xml version="1.0" encoding="utf-8"?>
<!-- Generator: Adobe Illustrator 16.0.0, SVG Export Plug-In . SVG Version: 6.00 Build 0)  -->
<!DOCTYPE svg PUBLIC "-//W3C//DTD SVG 1.1//EN" "http://www.w3.org/Graphics/SVG/1.1/DTD/svg11.dtd">
<svg version="1.1" id="Layer_1" xmlns="http://www.w3.org/2000/svg" xmlns:xlink="http://www.w3.org/1999/xlink" x="0px" y="0px"
	 width="39.969px" height="40px" viewBox="0 0 39.969 40" enable-background="new 0 0 39.969 40" xml:space="preserve">
<path id="Color_Fill_1" fill="#FFFFFF" d="M26.305,5.531c0.027,0.027,0.045,0.062,0.049,0.1h-0.049V5.531z M26.354,5.631
	c0.027,0.027,0.045,0.063,0.049,0.1h-0.047v-0.1H26.354z M26.402,5.731c0.027,0.027,0.045,0.062,0.05,0.1H26.4v-0.1H26.402z
	 M26.452,5.831c0.026,0.027,0.044,0.062,0.049,0.1h-0.048L26.452,5.831L26.452,5.831z M26.501,5.931
	c0.026,0.027,0.044,0.062,0.049,0.1H26.5L26.501,5.931L26.501,5.931z M26.701,6.268c0.027,0.027,0.044,0.062,0.049,0.1H26.7
	L26.701,6.268L26.701,6.268z M26.75,6.368c0.027,0.027,0.044,0.062,0.049,0.1h-0.05L26.75,6.368L26.75,6.368z M26.799,6.468
	c0.027,0.027,0.045,0.063,0.049,0.1H26.8L26.799,6.468L26.799,6.468z M26.848,6.568c0.027,0.027,0.045,0.062,0.049,0.1h-0.049V6.568
	L26.848,6.568z M26.896,6.668c0.027,0.027,0.045,0.063,0.049,0.1H26.9v-0.1H26.896z M26.945,6.768c0.027,0.027,0.045,0.062,0.05,0.1
	h-0.05V6.731V6.768z M27,6.831c0.027,0.027,0.044,0.062,0.049,0.1H27V6.831z M27.049,6.931c0.027,0.027,0.045,0.062,0.049,0.1
	h-0.054v-0.1H27.049z M27.098,7.031c0.027,0.027,0.045,0.062,0.049,0.1h-0.053v-0.1H27.098z M27.146,7.131
	c0.027,0.027,0.045,0.063,0.049,0.1h-0.053v-0.1H27.146z M27.195,7.231c0.027,0.027,0.045,0.062,0.05,0.1h-0.054v-0.1H27.195z
	 M27.245,7.331c0.026,0.027,0.044,0.062,0.049,0.1h-0.053v-0.1H27.245z M27.294,7.431c0.026,0.027,0.044,0.062,0.049,0.1h-0.052
	v-0.1H27.294z M27.343,7.531c0.027,0.027,0.044,0.062,0.05,0.1H27.34v-0.1H27.343z M27.393,7.631c0.026,0.027,0.043,0.063,0.049,0.1
	h-0.053v-0.1H27.393z M27.441,7.731c0.026,0.027,0.044,0.062,0.049,0.1h-0.053v-0.1H27.441z M27.49,7.831
	c0.027,0.027,0.044,0.062,0.049,0.1h-0.051v-0.1H27.49z M27.539,7.931c0.027,0.027,0.044,0.062,0.049,0.1h-0.051v-0.1H27.539z
	 M27.588,8.031c0.027,0.027,0.045,0.062,0.049,0.1h-0.051v-0.1H27.588z M27.637,8.131c0.027,0.027,0.045,0.063,0.049,0.1h-0.05
	L27.637,8.131L27.637,8.131z M27.686,8.231c0.027,0.027,0.045,0.062,0.049,0.1h-0.049V8.231L27.686,8.231z M27.734,8.331
	c0.027,0.027,0.045,0.062,0.05,0.1h-0.05V8.331L27.734,8.331z M27.784,8.431c0.026,0.027,0.044,0.062,0.049,0.1h-0.05L27.784,8.431
	L27.784,8.431z M27.833,8.531c0.026,0.027,0.044,0.062,0.049,0.1h-0.049V8.531z M27.882,8.631c0.027,0.027,0.044,0.063,0.05,0.1
	h-0.05V8.631z M27.932,8.731c0.026,0.027,0.043,0.062,0.049,0.1h-0.049V8.731L27.932,8.731z M27.98,8.831
	c0.026,0.027,0.044,0.062,0.049,0.1H27.98V8.831z M28.029,8.931c0.026,0.027,0.044,0.062,0.049,0.1H28.03L28.029,8.931L28.029,8.931
	z M28.078,9.031c0.027,0.027,0.044,0.062,0.049,0.1h-0.048L28.078,9.031L28.078,9.031z M28.127,9.131
	c0.027,0.027,0.045,0.063,0.049,0.1h-0.048L28.127,9.131L28.127,9.131z M28.176,9.231c0.027,0.027,0.045,0.062,0.049,0.1h-0.048
	L28.176,9.231L28.176,9.231z M28.225,9.331c0.027,0.027,0.045,0.062,0.049,0.1h-0.047v-0.1H28.225z M28.273,9.431
	c0.027,0.027,0.045,0.062,0.05,0.1h-0.048v-0.1H28.273z M28.323,9.531c0.026,0.027,0.044,0.062,0.049,0.1h-0.047v-0.2L28.323,9.531z
	 M28.374,9.531c0.026,0.027,0.044,0.062,0.049,0.1h-0.049V9.531z M28.423,9.631c0.027,0.027,0.044,0.063,0.05,0.1h-0.049
	L28.423,9.631L28.423,9.631z M28.473,9.731c0.026,0.027,0.043,0.062,0.049,0.1h-0.049V9.731L28.473,9.731z M28.521,9.831
	c0.026,0.027,0.044,0.062,0.049,0.1h-0.049V9.831L28.521,9.831z M28.57,9.931c0.026,0.027,0.044,0.062,0.049,0.1H28.57V9.931
	L28.57,9.931z M28.619,10.031c0.027,0.027,0.044,0.062,0.049,0.1h-0.047v-0.1H28.619z M28.719,10.272
	c0.027,0.027,0.045,0.062,0.049,0.1h-0.049V10.272z M28.768,10.372c0.027,0.027,0.045,0.062,0.049,0.1H28.77v-0.1H28.768z
	 M28.816,10.472c0.027,0.027,0.045,0.062,0.05,0.1h-0.048v-0.1H28.816z M28.866,10.572c0.026,0.027,0.044,0.062,0.049,0.1h-0.048
	L28.866,10.572L28.866,10.572z M28.915,10.672c0.026,0.027,0.044,0.063,0.049,0.1h-0.048L28.915,10.672L28.915,10.672z
	 M28.964,10.772c0.026,0.027,0.044,0.062,0.05,0.1h-0.048v-0.141L28.964,10.772z M29.014,10.872c0.026,0.027,0.043,0.062,0.049,0.1
	h-0.047v-0.141L29.014,10.872z M29.063,10.972c0.026,0.027,0.044,0.062,0.049,0.1h-0.047v-0.1H29.063z M29.111,11.072
	c0.026,0.027,0.044,0.062,0.049,0.1h-0.047v-0.1H29.111z M29.16,11.217c0.027,0.027,0.044,0.063,0.049,0.1h-0.046v-0.1H29.16z
	 M29.209,11.317c0.027,0.027,0.045,0.062,0.049,0.1h-0.046v-0.1H29.209z M29.258,11.417c0.027,0.027,0.045,0.062,0.049,0.1h-0.046
	v-0.1H29.258z M17.14,11.465c0.139,0.071,0.246,0.191,0.3,0.337h-0.051v-0.105c-0.125-0.051-0.216-0.159-0.246-0.289L17.14,11.465z
	 M29.311,11.455c0.026,0.027,0.043,0.062,0.049,0.1h-0.049V11.455z M17.783,11.792h0.394c0-0.052,0.017-0.103,0.049-0.144
	c0.142-0.051,0.293-0.068,0.443-0.048c0.119,0.285,0.324,0.262,0.739,0.241c-0.006-0.068,0.011-0.136,0.049-0.193v0.144h0.394
	c0.078-0.169,0.258-0.267,0.443-0.241c0.06-0.036,0.13-0.053,0.2-0.048v0.048c-0.16,0.062-0.13,0.042-0.148,0.241
	c0.546,0.014,1.084,0.145,1.576,0.385l0.493,0.1c0.097,0.104,0.15,0.243,0.147,0.385H23v-0.195c0.287,0.119,0.584,0.216,0.887,0.289
	c-0.006,0.067-0.021,0.132-0.049,0.193c0.084,0.001,0.168,0.018,0.246,0.048l0.049,0.289c1.859,0,3.565,0.092,5.469,0.1v0.241
	l-5.32,0.1v0.1c0.148-0.016,0.283,0.092,0.299,0.242c0.002,0.016,0.002,0.032,0.001,0.047c-0.133,0.1-0.163,0.242-0.3,0.337
	c-0.302,0.108-0.617,0.173-0.937,0.193c-0.091-0.047,0.044-0.091-0.2-0.145c-0.135,0.1-0.19,0.037-0.246,0.241
	c0.133,0.04,0.229,0.152,0.246,0.289c1.73,0,3.664,0.056,5.172,0.048c0-0.053,0.018-0.104,0.05-0.145
	c0.06-0.037,0.13-0.053,0.2-0.048c0.338,0.094,0.684,0.158,1.033,0.193v0.145c0.1,0.015,0.201,0.015,0.301,0
	c0.128-0.133,0.309-0.204,0.492-0.193v0.048c-0.135,0.076-0.123,0.043-0.147,0.241H30.3c0.147-0.021,0.296-0.021,0.443,0
	c0.043-0.069,0.171-0.135,0.2-0.193c-0.019-0.096-0.019-0.193,0-0.289v0.1c0.141,0.152,0.273,0.313,0.394,0.482
	c0.257,0.099,0.521,0.18,0.788,0.241c0.191,0.428,0.443,0.835,0.689,1.3h0.148L33,16.32l0.887,0.048
	c0.026,0.062,0.043,0.126,0.049,0.192c-0.058,0.171-0.074,0.353-0.049,0.53l0.985,0.101v-0.245h0.049v0.048
	c0.056,0.08-0.047,0.1,0.101,0.193c0.273,0.069,0.555,0.104,0.836,0.1c0.59,0.129,1.465,0.164,2.069,0.337
	c0.111,0.034,0.231-0.007,0.3-0.101v0.146c0.268-0.018,0.535,0.017,0.789,0.101c-0.035,0.119-0.117,0.09-0.05,0.145
	c0.06,0.036,0.13,0.053,0.2,0.048v-0.39h0.1v0.385c0.236-0.002,0.465,0.084,0.641,0.241h0.049c0.049,0.049-0.048,0.048-0.049,0.048
	c-0.124,0.09-0.352,0.057-0.493,0.145c-0.253,0.221-0.47,0.481-0.64,0.771c-0.576,0.611-1.184,1.189-1.823,1.734
	c-0.218,0.326-0.466,0.633-0.739,0.914c-1,0.709-2.148,1.191-3.2,1.83c-1.468,0.995-3.036,1.833-4.68,2.5l-1.823,0.193
	c-0.979,0.145-1.969,0.192-2.956,0.145H13l-1.724-0.482L10.2,25.76c-0.376-0.152-0.77-0.438-1.136-0.629l-0.788-0.337L8.03,24.508
	c-0.698-0.662-1.457-1.257-2.266-1.777l-0.049,0.145l-0.148-0.048c-0.178-0.288-0.46-0.495-0.788-0.578
	c-0.788-0.479-1.611-0.897-2.463-1.252c-0.315,0.002-0.628-0.032-0.936-0.101c-0.027-0.026-0.044-0.062-0.049-0.1
	c0.076-0.106,0.143-0.219,0.2-0.337C1.7,20.352,1.7,20.531,1.724,20.221c0.162-0.529,0.229-1.084,0.2-1.638h-0.89
	c-0.217-0.517-0.287-1.084-0.2-1.638H0.788v-0.047c-0.159,0.057-0.325,0.091-0.493,0.1c-0.014-0.127-0.041-0.1-0.3-0.1v-0.385
	l0.2-0.049c0.014,0.125,0,0.096,0.246,0.1c0.015-0.084,0.07-0.156,0.148-0.192V16.32c-0.14,0.015-0.1,0.051-0.2,0h0.054
	c0.244-0.338,0.589-0.591,0.985-0.723c0.353-0.129,0.747,0.013,0.937,0.337c0.345-0.14,0.711-0.222,1.084-0.241
	c0.475-0.246,1.037-0.264,1.527-0.048h0.986c0.153,0.048,0.34,0.241,0.493,0.289H6.9c0.078,0.026,0.168,0.167,0.246,0.193h0.64
	c0.402,0.111,0.815,0.176,1.232,0.193c0.064,0.119-0.021,0.033,0.1,0.1v0.048c-0.203-0.032-0.41,0.003-0.591,0.101
	c0.488,0,0.952-0.036,1.379-0.049c0.042-0.059,0.076-0.124,0.1-0.192H9.9c-0.176,0.114-0.398,0.132-0.591,0.048
	c0.239,0.002,0.475-0.049,0.691-0.151c0.135-0.186,0.048-0.239,0.394-0.241c0.033,0.093,0.049,0.191,0.049,0.289
	c-0.127,0.038-0.235,0.125-0.3,0.242h0.3c0.065,0.021,0.132,0.037,0.2,0.047v-1.3c0.047-0.105,0.064-0.222,0.049-0.337
	c-0.166-0.01-0.332,0.006-0.493,0.048v-0.141c0.042-0.093,0.075-0.19,0.1-0.289H8.67c-0.075-0.04-0.161-0.057-0.246-0.048v-0.197
	h1.97c0.024-0.083,0.058-0.165,0.1-0.241v0.145c0.198-0.005,0.396,0.011,0.591,0.048c-0.013-0.099,0.004-0.2,0.049-0.289v0.193
	c0.235,0.02,0.471-0.014,0.69-0.1c0.141,0.106,0.322,0.143,0.493,0.1c0.181-0.105,0.382-0.171,0.591-0.193v0.048h0.049
	c-0.027,0.093-0.081,0.041,0,0.1c0.1,0.186,0.146,0.2,0.443,0.193c0.033,0.166,0.083,0.327,0.148,0.482h1.182v1.348
	c0.069,0.005,0.136,0.021,0.2,0.048l-0.049,0.146c0.317,0.041,0.374,0.191,0.69,0.24V15.02c0.124-0.154,0.299-0.257,0.493-0.289
	c0.076-0.04,0.161-0.056,0.246-0.048c-0.123-0.701-0.123-1.418,0-2.119c-0.133,0.021-0.266-0.035-0.345-0.144
	c0.083-0.186,0.184-0.363,0.3-0.53c0.109-0.071,0.32-0.025,0.443-0.1l0.049-0.144c0.097,0.043,0.197,0.077,0.3,0.1
	c-0.009-0.083,0.008-0.168,0.049-0.241c0,0.291,0.045,0.3,0.345,0.289c0.105-0.149,0.264-0.252,0.443-0.289v0.1
	C17.757,11.67,17.806,11.621,17.783,11.792L17.783,11.792z M29.359,11.551c0.026,0.027,0.044,0.063,0.049,0.1h-0.049V11.551
	L29.359,11.551z M29.408,11.651c0.027,0.027,0.044,0.062,0.049,0.1h-0.048L29.408,11.651L29.408,11.651z M18.67,11.841v-0.145
	h-0.443v0.1h0.2C18.502,11.834,18.586,11.85,18.67,11.841z M29.458,11.741c0.026,0.027,0.044,0.062,0.049,0.1h-0.049V11.741z
	 M29.507,11.841c0.032,0.042,0.049,0.093,0.05,0.145h-0.05V11.841z M29.557,11.986c0.026,0.027,0.043,0.063,0.049,0.1h-0.049V11.986
	L29.557,11.986z M29.605,12.086c0.026,0.027,0.044,0.063,0.049,0.1h-0.049V12.086L29.605,12.086z M29.654,12.186
	c0.027,0.027,0.044,0.062,0.049,0.1h-0.048L29.654,12.186L29.654,12.186z M16.054,12.286v0.193c0.038,0.004,0.073,0.021,0.1,0.048
	c0.038-0.004,0.073-0.021,0.1-0.048c0.032-0.042,0.049-0.093,0.049-0.145c-0.077-0.033-0.16-0.053-0.244-0.06L16.054,12.286z
	 M29.699,12.286c0.027,0.027,0.044,0.062,0.049,0.1H29.7L29.699,12.286L29.699,12.286z M29.748,12.386
	c0.027,0.027,0.044,0.063,0.049,0.1h-0.043v-0.1H29.748z M29.797,12.486c0.031,0.042,0.049,0.093,0.049,0.145H29.8v-0.164
	L29.797,12.486z M29.846,12.631c0.027,0.027,0.045,0.063,0.049,0.1h-0.043v-0.1H29.846z M29.895,12.731
	c0.027,0.027,0.045,0.062,0.049,0.1H29.9v-0.1H29.895z M29.943,12.831c0.027,0.027,0.045,0.062,0.05,0.1h-0.042v-0.1H29.943z
	 M30,12.9c0.027,0.027,0.044,0.062,0.049,0.1H30V12.9z M30.049,13c0.027,0.027,0.045,0.062,0.049,0.1h-0.049V13z M30.1,13.141
	c0.027,0.027,0.045,0.062,0.049,0.1H30.1V13.141z M30.148,13.241c0.027,0.027,0.045,0.062,0.05,0.1h-0.05V13.241L30.148,13.241z
	 M30.2,13.331c0.026,0.027,0.044,0.062,0.049,0.1H30.2V13.331z M30.249,13.431c0.026,0.027,0.044,0.062,0.049,0.1h-0.052v-0.1
	H30.249z M30.3,13.531c0.032,0.042,0.049,0.092,0.05,0.145H30.3V13.531z M10.6,13.676c0.027,0.027,0.044,0.063,0.049,0.1h-0.058
	v-0.1H10.6z M30.354,13.676c0.027,0.027,0.045,0.063,0.049,0.1h-0.058v-0.1H30.354z M10.554,13.776
	c0.031,0.042,0.048,0.093,0.049,0.145h-0.061v-0.154L10.554,13.776z M30.406,13.776c0.027,0.027,0.044,0.062,0.049,0.1h-0.061v-0.1
	H30.406z M30.455,13.876c0.027,0.027,0.044,0.062,0.049,0.1h-0.061v-0.1H30.455z M10.504,13.924
	c0.032,0.042,0.049,0.093,0.049,0.145h-0.06v-0.157L10.504,13.924z M30.504,13.972c0.027,0.027,0.045,0.062,0.049,0.1h-0.06v-0.1
	H30.504z M30.553,14.117c0.027,0.027,0.045,0.062,0.049,0.1h-0.06v-0.1H30.553z M30.602,14.217c0.027,0.027,0.045,0.063,0.049,0.1
	h-0.06v-0.1H30.602z M11.39,14.265v0.1c0.176-0.021,0.124,0.023,0.2-0.1H11.39z M30.641,14.297c0.026,0.027,0.043,0.063,0.049,0.1
	h-0.049V14.297z M30.689,14.397c0.031,0.042,0.049,0.093,0.049,0.145h-0.049v-0.149V14.397z M13,14.682
	c-0.196-0.021-0.395-0.021-0.591,0c-0.041,0.042-0.075,0.091-0.1,0.145c-0.338-0.045-0.772,0.087-1.478,0.1v0.337h0.049
	c0.514-0.344,1.811,0.624,1.872,0.867h0.788v-1.256c-0.145,0.017-0.1,0.1-0.2-0.048c-0.061-0.12-0.095-0.251-0.1-0.385h-0.2
	C13.014,14.52,13,14.601,13,14.682z M30.734,14.538c0.026,0.027,0.044,0.062,0.049,0.1h-0.044v-0.1H30.734z M30.783,14.638
	c0.027,0.027,0.044,0.062,0.049,0.1h-0.044v-0.107L30.783,14.638z M30.832,14.738c0.027,0.027,0.044,0.062,0.049,0.1h-0.044v-0.107
	L30.832,14.738z M12.113,14.883c0.131,0.057,0.088-0.043,0.148,0.1h-0.143v-0.1H12.113z M10.143,14.983
	c0.063,0.11,0.042,0.249-0.049,0.337L10.143,14.983z M28.37,14.983v0.1c0.453,0.008,0.7,0.089,1.133,0.1v-0.1h-0.34
	c-0.251-0.1-0.521-0.138-0.789-0.112L28.37,14.983z M10.045,15.32c0.027,0.027,0.044,0.062,0.049,0.1h-0.045v-0.1H10.045z
	 M2.311,15.657c0.07-0.006,0.14,0.011,0.2,0.048c-0.07,0.002-0.139-0.019-0.196-0.059L2.311,15.657z M0.291,16.38h0.1v0.048
	c-0.036-0.009-0.068-0.03-0.091-0.06L0.291,16.38z M0.191,16.428H0.3v0.048c-0.039-0.008-0.075-0.029-0.1-0.06L0.191,16.428z
	 M14.871,16.428c0.065,0.162,0.076,0.141,0.3,0.146v-0.1h-0.146c-0.042-0.035-0.094-0.054-0.148-0.057L14.871,16.428z M0.043,16.621
	v0.241h0.1v-0.061c0.039-0.056,0.059-0.124,0.057-0.192H0.049L0.043,16.621z M0.585,17.055c0.07-0.006,0.141,0.011,0.2,0.049
	c-0.069,0.001-0.138-0.021-0.194-0.061L0.585,17.055z M36.15,17.585c0.027,0.026,0.063,0.043,0.101,0.048
	c-0.023-0.029-0.056-0.051-0.093-0.061L36.15,17.585z M37.924,17.73c0.014,0.125-0.023,0.084,0.2,0.1v-0.064L37.924,17.73z
	 M38.17,17.777v0.101h0.246v-0.101h-0.239H38.17z M1.97,19.691c0,0.373-0.079,0.539-0.1,0.867h0.051
	c0.027-0.025,0.063-0.043,0.1-0.048C2.062,20.237,2.044,19.959,1.97,19.691z M36.5,21.23c-0.365,0.371-0.801,0.666-1.281,0.867
	c-0.691,0.42-1.406,0.82-2.117,1.252c-1.369,0.877-2.803,1.649-4.287,2.313c-0.183,0.078-0.399,0.277-0.59,0.337h-0.589
	c-0.355,0.079-0.771,0.052-1.182,0.146c-1.011,0.148-2.034,0.196-3.054,0.145H12.956c-0.5-0.129-1.112-0.327-1.626-0.482
	c-0.34-0.1-0.65-0.062-0.985-0.192c-0.393-0.154-0.844-0.478-1.23-0.675l-0.788-0.336c-0.505-0.336-0.843-1.119-1.478-1.301v0.049
	c0.545,0.342,0.9,0.951,1.429,1.299c1.431,0.797,2.976,1.365,4.581,1.687h10.787c1.036,0.055,2.074,0.006,3.101-0.146l1.526-0.145
	c1.617-0.64,3.154-1.464,4.582-2.456c0.873-0.532,1.756-1.021,2.61-1.541c0.444-0.143,0.825-0.431,1.084-0.819H36.5z M7.882,23.545
	c0.05,0.098,0.14,0.168,0.246,0.193v-0.049c0.027-0.027,0.044-0.063,0.049-0.101L7.882,23.545z M30.641,23.882
	c-0.076,0.04-0.162,0.057-0.246,0.048v0.049c0.109,0.107,0.146,0.266,0.246,0.385c0.148-0.121,0.314-0.219,0.492-0.289v-0.043
	C30.962,24.007,30.796,23.957,30.641,23.882z M9.803,23.982c-0.093,0.044-0.197,0.061-0.3,0.048c-0.104,0.16-0.172,0.341-0.2,0.53
	c0.186,0.158,0.404,0.273,0.64,0.336c0.035-0.233,0.14-0.451,0.3-0.625c0.075,0.046,0.17,0.046,0.246,0
	c-0.214-0.133-0.446-0.23-0.689-0.293L9.803,23.982z M11.133,24.416v-0.148l-0.493-0.101v0.101h0.1
	c0.118,0.078,0.252,0.127,0.393,0.145V24.416z M29.113,24.175c-0.109,0.052-0.226,0.085-0.346,0.101
	c-0.033,0.181-0.118,0.349-0.246,0.481c0.043,0.216,0.191,0.397,0.395,0.482c0.149-0.108,0.316-0.19,0.493-0.241
	c-0.095-0.234-0.21-0.46-0.345-0.674c0.16-0.04,0.074,0.023,0.147-0.1h0.049v-0.054h-0.147V24.175z M26.945,24.657v0.289
	c-0.079-0.032-0.168-0.032-0.246,0c-0.191,0.114-0.346,0.282-0.443,0.481c0.047,0.105,0.064,0.223,0.049,0.338l1.133-0.145v-0.053
	c-0.1-0.134-0.182-0.279-0.246-0.434c0.271-0.16,0.519-0.354,0.74-0.578c-0.035-0.061-0.087-0.111-0.148-0.145
	c0.03,0.1-0.025,0.204-0.124,0.235c-0.008,0.002-0.017,0.004-0.024,0.005c-0.127,0.059-0.26,0.106-0.394,0.146
	c-0.064-0.167-0.075-0.14-0.296-0.146V24.657z M12.02,24.46c0.027,0.026,0.063,0.043,0.1,0.048
	C12.093,24.482,12.058,24.465,12.02,24.46z M13.449,24.46c0.041,0.156-0.024,0.074,0.1,0.146c0.025-0.041,0.06-0.076,0.1-0.101
	V24.46H13.449z M14.188,24.46h-0.2v0.048l0.148,0.1v0.049h0.049V24.46H14.188z M15.518,24.46c0.041,0.156-0.024,0.074,0.1,0.146
	c0.025-0.041,0.059-0.076,0.1-0.101V24.46H15.518z M16.306,24.46h-0.2v0.101l0.2,0.047V24.46z M17.636,24.46
	c0.041,0.156-0.024,0.074,0.1,0.146c0.025-0.041,0.059-0.076,0.1-0.101V24.46H17.636z M18.375,24.46h-0.2v0.048l0.148,0.1v0.049
	h0.049V24.46H18.375z M19.705,24.46c0.041,0.156-0.024,0.074,0.1,0.146c0.025-0.041,0.059-0.076,0.1-0.101V24.46H19.7H19.705z
	 M20.444,24.46h-0.2v0.048l0.148,0.1v0.049h0.049V24.46H20.444z M21.823,24.46l-0.05,0.146h0.101
	c0.024-0.041,0.06-0.076,0.101-0.101V24.46H21.823z M22.563,24.46h-0.201v0.048l0.148,0.1v0.049h0.049V24.46H22.563z M23.893,24.46
	c0.041,0.156-0.024,0.074,0.1,0.146c0.025-0.041,0.059-0.076,0.1-0.101V24.46H23.893z M24.68,24.46h-0.246v0.048
	c0.078,0.046,0.148,0.176,0.2,0.1C24.665,24.564,24.682,24.514,24.68,24.46z M26.01,24.46c0.041,0.156-0.023,0.074,0.1,0.146
	c0.025-0.041,0.06-0.076,0.101-0.101V24.46H26.01z M26.749,24.46h-0.2v0.048l0.148,0.1v0.049h0.049V24.46H26.749z M11.33,24.941
	c-0.004,0.157-0.056,0.309-0.148,0.435c0.399,0.071,0.794,0.167,1.182,0.289v-0.242c0.085-0.136,0.012-0.177-0.049-0.289h0.049
	v-0.048c0.291-0.071,0.588-0.12,0.887-0.145v-0.289H13.2c-0.306,0.172-0.679,0.172-0.985,0c-0.01,0.089-0.044,0.172-0.1,0.242
	C11.856,24.813,11.577,24.83,11.33,24.941z M14.43,24.701v0.193c-0.372,0.008-0.673,0.303-0.69,0.674c0.01,0.096,0.01,0.192,0,0.289
	h0.739v-0.101c-0.063-0.159-0.045-0.339,0.049-0.481c-0.059-0.047-0.096-0.117-0.1-0.193c0.079,0.029,0.162,0.045,0.246,0.048
	c0.057-0.073,0.125-0.139,0.2-0.192c0.21-0.075,0.386,0.006,0.493-0.049c-0.041-0.073-0.058-0.157-0.049-0.24h-0.047
	c-0.252,0.157-0.567,0.177-0.837,0.053H14.43z M15.809,25.857h0.739c0.043-0.242,0.026-0.492-0.048-0.727
	c0.297-0.122,0.615-0.188,0.936-0.193v-0.285h-0.047c-0.273,0.166-0.615,0.166-0.887,0c0.009,0.084-0.008,0.168-0.049,0.242
	c-0.345,0.047-0.611,0.326-0.64,0.674c0.04,0.091,0.036,0.195,0,0.289H15.809z M18.568,24.941c-0.079-0.031-0.167-0.031-0.246,0
	c-0.173,0.117-0.323,0.265-0.443,0.435c0.062,0.155,0.062,0.327,0,0.481h0.791v-0.1c-0.051-0.205-0.084-0.414-0.1-0.626
	c0.3-0.112,0.616-0.179,0.936-0.192v-0.287h-0.048c-0.273,0.164-0.614,0.164-0.887,0v0.289H18.568z M20.736,25.857
	c-0.039-0.354-0.01-0.5-0.049-0.771c0.287,0.066,0.442-0.167,0.936-0.145v-0.049c-0.034-0.049-0.063-0.192-0.1-0.24v0.145
	c-0.285-0.004-0.568-0.053-0.838-0.145c-0.009,0.22,0,0.242-0.199,0.289c-0.028-0.026-0.063-0.043-0.101-0.049
	c-0.134,0.174-0.282,0.334-0.443,0.482c0.065,0.154,0.065,0.328,0,0.482h0.788H20.736z M22.756,24.941
	c-0.081-0.018-0.165-0.018-0.246,0c-0.223,0.098-0.387,0.294-0.443,0.531c0.053,0.123,0.053,0.262,0,0.385h0.789v-0.049
	c-0.053-0.221-0.087-0.446-0.101-0.674c0.301-0.109,0.616-0.175,0.937-0.193v-0.289h-0.047c-0.272,0.164-0.613,0.164-0.887,0v0.289
	H22.756z M25.811,24.941v-0.289h-0.047c-0.29,0.166-0.646,0.166-0.936,0c0.029,0.095,0.029,0.195,0,0.289l-0.246-0.047
	c-0.136,0.171-0.284,0.332-0.443,0.481c0.065,0.154,0.065,0.328,0,0.481h0.838v-0.049c-0.053-0.221-0.086-0.446-0.1-0.674
	c0.299-0.114,0.615-0.18,0.936-0.193H25.811z M17.485,24.941c0.027,0.027,0.063,0.043,0.1,0.049
	c-0.026-0.025-0.061-0.043-0.097-0.049H17.485z M19.554,24.941c0.027,0.027,0.062,0.043,0.1,0.049
	c-0.026-0.025-0.06-0.043-0.097-0.049H19.554z M25.859,24.941c0.027,0.027,0.063,0.043,0.101,0.049
	c-0.026-0.025-0.062-0.043-0.099-0.049H25.859z"/>
</svg>
