<svg xmlns="http://www.w3.org/2000/svg" width="40" height="40" viewBox="0 0 40 40">
  <defs>
    <style>
      .cls-1 {
        fill: #fff;
        fill-rule: evenodd;
      }
    </style>
  </defs>
  <path id="us_m56_scorpion_ico" class="cls-1" d="M16.794,15.043a0.31,0.31,0,0,1,.188.047h1.034v0.141H17.686v0.023a0.356,0.356,0,0,0,.329.094c0.027,0.063.045,0.049,0.07,0.117a1.1,1.1,0,0,1,.024.258h0.352a2.3,2.3,0,0,1,.094-0.493,0.713,0.713,0,0,1,.305-0.188,4.329,4.329,0,0,1,.235.61,0.261,0.261,0,0,1,.164,0c0.031,0.277.169,0.482,0.188,0.774h4.064a0.621,0.621,0,0,1,.07.211c-0.059.042-.012,0.046,0,0.164a6.572,6.572,0,0,0,1.527.047l12.4,0.094V16.826a1.512,1.512,0,0,0,.54-0.07,0.776,0.776,0,0,1,.258.047A11.6,11.6,0,0,1,40,16.779v1.243H37.51V17.858l-13.858.094a0.2,0.2,0,0,0-.07.164c-0.059.042-.012,0.047,0,0.164a0.324,0.324,0,0,0-.07.094H19.988V18.4c0.034,0.029.06,0.065,0.094,0.094a0.122,0.122,0,0,1-.07.117,0.12,0.12,0,0,1-.07.024v-0.07H19.918c-0.037.029-.012,0.015-0.047,0-0.051-.064-0.018-0.091-0.117-0.117a0.245,0.245,0,0,1-.141.047V18.444c0.087-.041.054-0.04,0.047-0.164a0.067,0.067,0,0,1-.024-0.023,1.646,1.646,0,0,0-.564.258v-0.07a4.164,4.164,0,0,1,.4-0.164V18.257H18.18V18.046H17.733v0.586a1.143,1.143,0,0,1,.916.3,0.677,0.677,0,0,1-.047.493H18.79a0.226,0.226,0,0,1,.282-0.07V18.937a0.449,0.449,0,0,1,.235-0.188,0.485,0.485,0,0,1,.329,0c0.012-.007.2,0.114,0.282,0.141,0.271,0.092.726,0.067,0.752,0.4h0.024v0.023c-0.1,0-.083-0.034-0.117.023a0.284,0.284,0,0,1,.117.328,7.138,7.138,0,0,0,.8-0.07c0.162-.03.484,0.037,0.658,0H22.83a2.608,2.608,0,0,1,.939-0.023v0.07a0.992,0.992,0,0,1-.023.188,5.76,5.76,0,0,1,.728,0,1.085,1.085,0,0,1,.423,0l0.094,0.117a1.86,1.86,0,0,0,.305-0.023c0.006,0.12,0,.311,0,0.493,0.063,0.049.1,0.146,0.164,0.188a3.748,3.748,0,0,0,.752.117v0.047h-0.07a0.967,0.967,0,0,0-.423-0.07,0.143,0.143,0,0,1-.047.047v0.023a3.689,3.689,0,0,0,.7.164v0.023c-0.012.057-.038,0.029,0.024,0.07A4.416,4.416,0,0,1,26.941,21a0.659,0.659,0,0,0,.07-0.235l-0.446-.141,0.023-.141H26.565a0.159,0.159,0,0,1-.094.023c-0.019.076,0.011,0.036-.047,0.07a3.655,3.655,0,0,0-.446-0.164,0.461,0.461,0,0,1-.047-0.117c-0.086-.088-0.174.015-0.211-0.141a0.158,0.158,0,0,0,.047-0.117,1.939,1.939,0,0,1,.822.211c-0.028.057-.021,0.052,0.023,0.094v0.023h0.023V20.344a0.268,0.268,0,0,0,.047-0.07,2.738,2.738,0,0,0,.54.188,0.129,0.129,0,0,1,.094-0.094,0.358,0.358,0,0,0,.188.07,0.231,0.231,0,0,0,.047.117c-0.084.01-.059-0.011-0.094,0.047h0.023a5.346,5.346,0,0,0,.987.352c0.6,0.246,1.257.458,1.856,0.7a3.115,3.115,0,0,1,.892.281,2.871,2.871,0,0,1,.047,1.009l0.024,0.3c-0.017.051-.1,0.09-0.117,0.141a4.4,4.4,0,0,0-.024.61,0.368,0.368,0,0,1-.117.024V23.98c-0.03-.049-0.016-0.186-0.047-0.235a4.476,4.476,0,0,0-.658.8,0.218,0.218,0,0,1-.024.188c-0.281.4-.692,0.734-0.986,1.126a1.851,1.851,0,0,1-1.9.962,0.806,0.806,0,0,1-.07.07,0.245,0.245,0,0,1,.094.141c-0.076.037,0,.013-0.047,0.07a0.362,0.362,0,0,1-.235.141,0.234,0.234,0,0,0-.141-0.117,2.761,2.761,0,0,1-.329.281L26.8,27.569c-0.074,0-.032-0.04-0.071.024,0.006,0.023.018,0.009,0,.023a2.087,2.087,0,0,1-.235.188V27.78a0.4,0.4,0,0,1-.117-0.141H26.354v0.023a0.651,0.651,0,0,0-.329.3,0.245,0.245,0,0,1,.094.141c-0.071-.012-0.173.164-0.329,0.211a0.71,0.71,0,0,0-.07-0.141H25.672a1,1,0,0,1-.305.235l0.07,0.188a0.813,0.813,0,0,1-.305.141c-0.074-.067-0.031-0.121-0.164-0.141-0.065.044-.175,0.046-0.235,0.094a0.351,0.351,0,0,0,0,.188,1.711,1.711,0,0,1-.329.047l-0.023-.188L24,28.765v0.211a1.691,1.691,0,0,0-.305,0V28.765H23.324v0.211a1.691,1.691,0,0,0-.305,0V28.765H22.642v0.211c-0.048-.008-0.192,0-0.305,0V28.765H21.961v0.211H21.938V28.953a0.617,0.617,0,0,1-.305,0V28.765H21.28v0.047c-0.006.015-.013,0.108-0.024,0.164-0.214-.036-0.31.117-0.305-0.211H20.576v0.211a1.692,1.692,0,0,0-.305,0V28.765H19.894v0.211a1.691,1.691,0,0,0-.305,0V28.765H19.213v0.211a1.692,1.692,0,0,0-.305,0V28.765H18.532v0.211a1.691,1.691,0,0,0-.305,0V28.765H17.851v0.211c-0.049-.008-0.192,0-0.305,0V28.765H17.17v0.211c-0.048-.008-0.192,0-0.305,0V28.765H16.489v0.211c-0.048-.008-0.192,0-0.305,0V28.789a1.355,1.355,0,0,0-.376-0.024v0.188a1,1,0,0,1-.329,0V28.765H15.126a0.905,0.905,0,0,1-.023.211c-0.214-.036-0.31.117-0.305-0.211H14.422v0.211a1.691,1.691,0,0,0-.305,0V28.765H13.741v0.211a1.692,1.692,0,0,0-.305,0V28.765H13.059v0.211a1.691,1.691,0,0,0-.305,0V28.765H12.378v0.211c-0.049-.008-0.192,0-0.305,0V28.765H11.7v0.211c-0.048-.008-0.192,0-0.305,0V28.765H11.016v0.188H10.969a0.428,0.428,0,0,1-.282,0V28.765H10.335v0.047c-0.006.015-.013,0.108-0.024,0.164-0.214-.036-0.31.117-0.305-0.211H9.63v0.211a1.692,1.692,0,0,0-.305,0V28.765H8.949v0.211a1.692,1.692,0,0,0-.305,0V28.765H8.268v0.211a1.692,1.692,0,0,0-.305,0V28.765H7.61a1.3,1.3,0,0,1-.047.188,2.515,2.515,0,0,0-.329-0.023l0.023-.211-0.376-.07a1.3,1.3,0,0,1-.047.188,0.72,0.72,0,0,1-.282-0.07,0.2,0.2,0,0,1-.023-0.117,0.119,0.119,0,0,0,.023-0.07l-0.4-.07a0.269,0.269,0,0,1-.047.188A0.786,0.786,0,0,0,5.8,28.648V28.554a0.2,0.2,0,0,0,.023-0.117H5.8V28.414l-0.352-.047c-0.007.044-.044,0.219-0.07,0.164A0.893,0.893,0,0,1,5.1,28.484V28.367c0.026-.047.014-0.042,0-0.094l-0.352-.047a0.693,0.693,0,0,1-.07.188A1.129,1.129,0,0,1,4.369,28.3a0.4,0.4,0,0,0,.047-0.141H4.392V28.132a1.248,1.248,0,0,0-.352-0.047,0.347,0.347,0,0,1-.094.164A2.283,2.283,0,0,0,3.664,28.2l0.047-.211a1.92,1.92,0,0,1-.4-0.07,0.68,0.68,0,0,1-.047.188c-0.068-.015-0.2-0.033-0.305-0.047l0.023-.211a1.078,1.078,0,0,0-.329-0.07,0.5,0.5,0,0,0-.094.141A0.31,0.31,0,0,1,2.3,27.71a0.2,0.2,0,0,0,.07-0.141,0.512,0.512,0,0,1-.188-0.141,0.172,0.172,0,0,1-.164.07,0.4,0.4,0,0,1-.188-0.211,0.223,0.223,0,0,0,.141-0.164,0.275,0.275,0,0,1-.047-0.117l-0.305-.023a0.471,0.471,0,0,1-.211-0.3,6.049,6.049,0,0,1-.047-0.751l-0.07-.047-0.023-.234a0.113,0.113,0,0,1-.07-0.024,0.471,0.471,0,0,1-.211-0.61,1.182,1.182,0,0,0,.188-0.141H1.362V24.543H1.315a3.455,3.455,0,0,1-.423.282,2.376,2.376,0,0,0-.7,1.2A0.167,0.167,0,0,1,0,25.951a2.566,2.566,0,0,0,.188-0.563A2.25,2.25,0,0,1,.869,24.5a1.382,1.382,0,0,0,.611-0.422,0.337,0.337,0,0,1-.07-0.164H1.433V23.886H1.48a0.931,0.931,0,0,0,.094.235l0.235-.07a1.73,1.73,0,0,0,.023-0.469,0.143,0.143,0,0,0,.117,0,0.2,0.2,0,0,1-.07-0.094,0.581,0.581,0,0,0,.094-0.258,3.771,3.771,0,0,1,.4.094,0.507,0.507,0,0,1,.352-0.446,0.811,0.811,0,0,1,.423,0,1.626,1.626,0,0,0,.141.328V23.183a0.742,0.742,0,0,1,.258-0.164,1.177,1.177,0,0,1,.282.258c0.131-.052.248-0.137,0.376-0.188,0.278-.111.514-0.127,0.775-0.235a3.8,3.8,0,0,1,.54-0.211,1.388,1.388,0,0,1,.07-0.188,0.3,0.3,0,0,0,.305.023,1.058,1.058,0,0,0,.047-0.258A0.43,0.43,0,0,1,6.083,22.2a2.238,2.238,0,0,0,.634,0,4.423,4.423,0,0,1,1.48-.211l-0.023-.751a0.113,0.113,0,0,0,.07-0.024,0.158,0.158,0,0,0,.023-0.094,0.714,0.714,0,0,1,.164.023V21l-0.211-.023A0.677,0.677,0,0,1,8.2,20.767H8.221V20.743A0.943,0.943,0,0,0,8.432,20.7V19.969c-0.016-.063-0.078-0.166-0.094-0.235A2.027,2.027,0,0,1,8.6,18.726H8.479A0.085,0.085,0,0,0,8.432,18.7a0.55,0.55,0,0,1-.235.516l-0.164.024v0.094l-0.258-.047a0.827,0.827,0,0,1-.258-0.563,1.616,1.616,0,0,0-.329.047,0.859,0.859,0,0,0-.846-0.188,0.284,0.284,0,0,1-.094-0.211,1.417,1.417,0,0,1,0-.61V16.122a1.846,1.846,0,0,1,.869-0.094l0.023-.117H7.422v0.117H7.939l0.023-.211H7.986V15.794c0.187,0,.525-0.143.611-0.117a2.038,2.038,0,0,0,.211.094c0.012-.1.033-0.084,0.047-0.188H8.785V15.489h0.07V15.372a1.467,1.467,0,0,0,.517-0.047,0.25,0.25,0,0,1-.047-0.188,1.223,1.223,0,0,0,.188-0.047,4.306,4.306,0,0,1,.282-0.938,1.5,1.5,0,0,1,.916.024,1.72,1.72,0,0,1,.188.985c0.273,0,.445-0.046.681-0.047h0.493a0.529,0.529,0,0,1,.4-0.094,1.266,1.266,0,0,1,.141.094h0.446c0.376,0,.876.032,1.174,0V15.02H14.4v0.094h0.024v0.023h0.047V14.691a10.216,10.216,0,0,1-.047-1.29c-0.036-.168.019-0.436-0.024-0.633-0.038-.176.021-0.452-0.024-0.657a5.885,5.885,0,0,1-.047-1.1A4.3,4.3,0,0,1,14.3,10h0.024v0.024a9.7,9.7,0,0,1,.07,1.548,5.469,5.469,0,0,1,.047,1.032v0.375c0.043,0.2-.025.5,0.024,0.727a7.618,7.618,0,0,1,.047,1.407,4.578,4.578,0,0,0,1.2.023,3.637,3.637,0,0,0,1.057,0V15.114h0.024v-0.07Z" transform="translate(0 0.5)"/>
</svg>
