<?xml version="1.0" encoding="utf-8"?>
<!-- Generator: Adobe Illustrator 16.0.0, SVG Export Plug-In . SVG Version: 6.00 Build 0)  -->
<!DOCTYPE svg PUBLIC "-//W3C//DTD SVG 1.1//EN" "http://www.w3.org/Graphics/SVG/1.1/DTD/svg11.dtd">
<svg version="1.1" id="Layer_1" xmlns="http://www.w3.org/2000/svg" xmlns:xlink="http://www.w3.org/1999/xlink" x="0px" y="0px"
	 width="40px" height="40px" viewBox="0 0 40 40" enable-background="new 0 0 40 40" xml:space="preserve">
<path id="us_m42_duster_ico" fill="#FFFFFF" d="M25.783,9.59h0.895v1.445h-0.8v0.034c0.108,0.188,0.271,0.339,0.464,0.437
	c0.166-0.12,0.398-0.082,0.518,0.084c0.02,0.026,0.034,0.054,0.046,0.083c0.059,0.154,0.046,0.326-0.033,0.47
	c0.115,0.239,0.272,0.455,0.464,0.638c0.289,0.416,0.543,0.854,0.762,1.31c0.48,0,0.885,0.063,1.293,0.067v0.134h0.066
	c0.063-0.03,0.131-0.043,0.2-0.034v0.168c2.776,0,5.516,0.064,8.252,0.067v-0.133c0.666,0.052,1.278,0.039,2.055,0.033
	c0.025,0.088,0.036,0.179,0.033,0.27h-0.759V15c0.254-0.024,0.511-0.013,0.762,0.034v0.034l-0.762,0.1
	c0,0.036-0.012,0.071-0.033,0.1v-0.1L37.912,15.1v-0.168L29.66,15v0.134c-0.088-0.001-0.176-0.013-0.26-0.034v0.168l-0.762,0.034
	v0.034h0.032c0.056,0.081,0.138,0.141,0.231,0.168v0.2h0.066c0-0.131-0.017-0.151,0.066-0.2v0.4l0.365,0.035
	c0.052,0.324,0.078,0.383,0.464,0.371v0.066c0.019,0.077,0.029,0.156,0.032,0.235c0.058,0.001,0.113,0.013,0.166,0.034v0.033
	c-0.179,0.014-0.17,0.047-0.166,0.235h0.066c0.296-0.241,0.716-0.255,1.027-0.034c0.1,0.133,0.04,0.434,0.133,0.571
	c0.018-0.019,0.041-0.03,0.066-0.034v-0.5h0.8v0.4h0.032c0.384-0.063,0.773-0.074,1.16-0.034c0.008,0.014,0.02,0.025,0.033,0.034
	c-0.012,0.12,0.024,0.24,0.1,0.336c0.107-0.04,0.127,0.049,0.232,0.1c0.016-0.091,0.104-0.151,0.193-0.135
	c0.002,0,0.005,0,0.007,0.001c0.054,0.072,0.099,0.151,0.133,0.235h-0.044c-0.086,0.022-0.176,0.033-0.266,0.033
	c0.004,0.068-0.008,0.137-0.032,0.2c0.082,0.067,0.114,0.213,0.2,0.269c0.085,0.029,0.164,0.075,0.231,0.135
	c0.029,0.086,0.074,0.166,0.134,0.234h0.662c0.049-0.11,0.131-0.204,0.234-0.268c0.16,0.003,0.317,0.037,0.464,0.1v-0.199h0.231
	c0.012,0.494,0,1.125,0,1.713h0.101v-0.301h0.3l-0.033,0.537c0.387,0.257,0.705,0.603,0.929,1.008
	c-0.348,0.133-0.681,0.301-0.994,0.5c0.003,0.025,0.015,0.05,0.033,0.067c0.063,0.208,0.282,0.354,0.331,0.538
	c-0.012,0.111-0.012,0.225,0,0.336c0.164,0.29,0.266,0.61,0.3,0.941c-0.062,0.037-0.116,0.082-0.166,0.134
	c-0.344,0.031-0.69,0.009-1.027-0.067c-0.237,0.443-0.612,0.798-1.067,1.01c-0.254,0.18-0.4,0.507-0.664,0.672l-0.399,0.1
	c-0.313,0.184-0.538,0.441-0.862,0.672c-0.115,0.082-0.314,0.155-0.365,0.2c0.031,0.06,0.008,0,0,0.067
	c-0.784,0.359-1.308,1.1-2.153,1.41c-0.503,0.092-1.016,0.114-1.524,0.067H10.34c-0.697,0.074-1.401,0.04-2.088-0.1
	c-0.514-0.255-1.002-0.559-1.458-0.907c-0.536-0.275-1.037-0.613-1.494-1.006c-0.3-0.105-0.574-0.275-0.8-0.5H4.4
	c-0.233-0.141-0.466-0.357-0.7-0.5c-0.09-0.029-0.179-0.063-0.265-0.1c-0.233-0.174-0.445-0.376-0.63-0.601
	c-0.051-0.138-0.13-0.265-0.232-0.37c-0.173,0.104-0.39,0.104-0.563,0c-0.037-0.06-0.049-0.131-0.033-0.199h0.144
	c0.065,0.076,0.165,0.113,0.265,0.1l0.066-0.1c-0.024-0.041-0.036-0.088-0.033-0.135H2.386V23.5h-0.1
	c0-0.486,0.127-0.616,0.133-1.075c-0.07-0.053-0.126-0.121-0.166-0.2c-0.058,0.01-0.107,0.047-0.133,0.101
	c0.035,0.096,0.046,0.198,0.033,0.3H2.022v-0.37H1.856v-0.6h-0.63v-0.3l-0.1-0.034c0.027-0.103,0.061-0.202,0.1-0.3
	c-0.595,0.08-1.143-0.336-1.224-0.932C0.001,20.084,0.001,20.078,0,20.072L0.1,19.8c0.18-0.23,0.492-0.313,0.762-0.2
	c0.247,0.073,0.255,0.314,0.5,0.37c0.145-0.11,0.279-0.234,0.4-0.37c0.083,0.059,0.053,0.086,0.133,0.067
	c0.2-0.053,0.368-0.187,0.464-0.37c-0.235-0.27-0.425-0.576-0.563-0.906h0.6v-0.166H2.154c-0.058-0.355-0.069-0.717-0.033-1.076
	c0.151-0.045,0.313-0.045,0.464,0c-0.036,0-0.071,0.012-0.1,0.035h0.034c0.029,0.021,0.064,0.033,0.1,0.033
	c0.028-0.109,0.039-0.223,0.033-0.336h0.53v0.301h0.7v0.738h0.029v-0.032c0.518-0.236,1.097-0.306,1.657-0.2
	c-0.017-0.34,0.356-0.291,0.762-0.269c0.007-0.067,0.043-0.13,0.1-0.168v0.067c0.021,0.029,0.033,0.063,0.033,0.1
	c0.048-0.014,0.094-0.036,0.133-0.066h0.1l0.033,0.066h0.86v0.066c0.531,0.027,1.064,0.006,1.591-0.066v-0.2h0.232l0.033,0.235
	c0.188-0.012,0.375-0.012,0.563,0c-0.001-0.068,0.01-0.136,0.033-0.2h0.066c0,0.068,0.01,0.136,0.033,0.2
	c0.526,0.035,1.154,0.033,1.756,0.034c0.017-0.043,0.028-0.089,0.033-0.134c-0.032-0.357-0.043-0.717-0.033-1.076h2.187v0.067
	c-0.018,0.019-0.029,0.042-0.033,0.067h0.331v-0.137c0.364,0.017,0.762,0.131,0.762-0.234h-0.2c0,0.105,0.047,0.063-0.066,0.1
	c-0.225-0.107-0.428-0.256-0.6-0.437c-0.021-0.319,0.025-0.64,0.133-0.941c0.22-0.162,0.508-0.2,0.762-0.1
	c0.027-0.109-0.016-0.052,0.066-0.101c0.051,0.024,0,0,0.1,0v-0.27c-0.143-0.15-0.327-0.255-0.53-0.3v-0.237h-0.425
	c0.052-0.45,0.018-0.906-0.1-1.344h0.729v0.034c-0.057,0.195-0.09,0.396-0.1,0.6c0.057,0.003,0.112,0.015,0.166,0.034
	c0.044-0.085,0.077-0.176,0.1-0.269h0.033v0.034c0.08,0.036,0.131,0.113,0.133,0.2h0.5l0.033-0.437c0.177,0,0.167,0.006,0.331,0
	c0.084,0.195,0.291,0.306,0.5,0.269c0.224-0.159,0.488-0.252,0.762-0.269v0.1l0.2,0.034v0.067c0.038,0.078,0.024,0.17-0.033,0.235
	c0.155-0.012,0.312,0,0.464,0.034c-0.029,0.1-0.011,0.21-0.033,0.336h1.524v-0.128c0.117-0.039,0.212-0.124,0.265-0.235
	c0.023-0.062-0.064-0.007-0.033-0.134c0.095-0.206,0.218-0.398,0.365-0.571c0.063-0.249,0.164-0.487,0.3-0.706
	c0.138,0.048,0.255,0.143,0.331,0.269c-0.148,0.199-0.251,0.429-0.301,0.672h0.061c0.184,0.099,0.392,0.146,0.6,0.134
	c0.07-0.251,0.183-0.49,0.331-0.705c0.128,0.117,0.341,0.148,0.464,0.27c-0.125,0.178-0.205,0.384-0.231,0.6h0.032v0.034
	c0.189,0.026,0.33,0.106,0.531,0.134c-0.029-0.23,0.134-0.441,0.364-0.47c0.046,0.069,0.069,0.151,0.065,0.235
	c-0.088,0.074-0.138,0.185-0.133,0.3c0.037,0.036,0.083,0.06,0.133,0.066c-0.014-0.116,0.01-0.233,0.066-0.336
	c0.096-0.042,0.176-0.112,0.232-0.2c-0.139-0.026-0.12-0.018-0.133-0.168c0.188-0.133,0.403-0.224,0.63-0.269
	c0.034,0.044,0.08,0.079,0.133,0.1c0,0.138-0.056,0.128,0.133,0.134c-0.007-0.248,0.104-0.485,0.3-0.638
	c-0.24-0.266-0.431-0.573-0.563-0.907c0.146-0.228,0.338-0.422,0.563-0.571c0.022-0.002,0.045-0.002,0.066,0
	c0.034-0.056,0-0.151,0.033-0.235c0.155-0.238,0.416-0.387,0.699-0.4v0.034c-0.027,0.029-0.049,0.063-0.065,0.1
	c0.038,0.041,0.071,0.086,0.101,0.134h0.065c0.239-0.198,0.374-0.496,0.364-0.806c0.057-0.253,0.068-0.515,0.033-0.773v-9.471h0.032
	v0.034c0.058,0.253,0.069,0.516,0.033,0.773v9.474h0.065V8.28c0.059-0.254,0.069-0.516,0.033-0.773V0.52
	C25.498-0.319,25.506-1.162,25.584-2h0.033v9.575c0.052,0.22,0.063,0.448,0.033,0.672v0.974l0.1,0.034
	C25.768,9.366,25.778,9.478,25.783,9.59z M14.483,14.563h0.066V14.6h-0.067L14.483,14.563L14.483,14.563z M0.53,19.736
	c-0.029,0.021-0.064,0.033-0.1,0.033c-0.158,0.133-0.244,0.332-0.232,0.537c0.117,0.268,0.429,0.389,0.696,0.271
	c0.001-0.001,0.002-0.002,0.004-0.002c0.189-0.186,0.23-0.476,0.1-0.706C0.853,19.794,0.693,19.748,0.53,19.736z"/>
</svg>
