<svg xmlns="http://www.w3.org/2000/svg" width="40" height="40" viewBox="0 0 40 40">
  <defs>
    <style>
      .cls-1 {
        fill: #fff;
        fill-rule: evenodd;
      }
    </style>
  </defs>
  <path id="us_m1a2_abrams_ico" class="cls-1" d="M12.627,22.007a1.862,1.862,0,0,1-.03-0.357,4.917,4.917,0,0,0,.515-0.03V21.056h1.665a0.372,0.372,0,0,1,.03-0.119h0.06v0.119h0.454a1.345,1.345,0,0,1,.091-0.149,0.106,0.106,0,0,1-.03-0.059h0.091c0.025,0.1-.015.045,0.061,0.089a0.257,0.257,0,0,1,.151-0.208,1.689,1.689,0,0,0,.606.089,0.142,0.142,0,0,1,.03-0.089,1.368,1.368,0,0,0,.363-0.238,0.115,0.115,0,0,1-.061-0.089,0.32,0.32,0,0,1,.182-0.059,1.136,1.136,0,0,0-.03-0.268H16.684V19.926h0.091l0.03-.3a0.449,0.449,0,0,0,.212-0.149l0.091,0.03v0.119a0.659,0.659,0,0,0-.151.059v0.03h0.3a0.142,0.142,0,0,1,.03-0.089A0.406,0.406,0,0,1,17.5,19.6a0.086,0.086,0,0,0,.03.03v0.089h1.756a0.458,0.458,0,0,0,.03-0.149H19.41v0.208a1.269,1.269,0,0,0,.454.059c0.09,0.032.421-.042,0.606,0a15.383,15.383,0,0,0,2.968.089v0.149c-0.821,0-1.677.027-2.453,0.03a0.442,0.442,0,0,1-.091.149V20.164c-0.433,0-.892,0-1.393,0l-0.061.089a0.3,0.3,0,0,1,.151.059l-0.03.089c-0.187.041-.224,0.117-0.212,0.357H18.834v0.149h0.848V21H19.288c-0.012.075,0.018,0.047-.091,0.059a0.206,0.206,0,0,1-.151.059V21.71a5.685,5.685,0,0,1,1.484.03c-0.012.087-.05,0.037,0.03,0.089a4.528,4.528,0,0,0,.848.089v0.149a1.533,1.533,0,0,0-.061.625,17.735,17.735,0,0,1,1.877.238,2.376,2.376,0,0,1,.333-0.059v0.059l0.787,0.119a1.538,1.538,0,0,0,.242-0.03c0.025,0.006.219,0.077,0.273,0.089l0.273-.03v0.059l0.394,0.03a0.629,0.629,0,0,1,.636-0.238v0.089a0.827,0.827,0,0,0-.363.03,1.364,1.364,0,0,0-.3.208,0.1,0.1,0,0,0,.03.059l0.151,0.268h0.394a9.332,9.332,0,0,0,1.787.03v0.238c0.405-.044.936,0,1.423,0h0.485a1.553,1.553,0,0,0,.3-0.059l0.212-.238h1.847a0.757,0.757,0,0,0,.727.327,5.539,5.539,0,0,0,1.6.089,43.618,43.618,0,0,1,4.815.059V23.941a0.332,0.332,0,0,1-.212-0.178,3.4,3.4,0,0,1,.727.059V23.97a0.1,0.1,0,0,0-.091,0V24.03H40v0.625c-2.248,0-4.814.044-7.146,0.059V24.8l-3.089.059a3.232,3.232,0,0,0-1.544,0,0.922,0.922,0,0,1-.454-0.059,4.792,4.792,0,0,0-1.575.089v0.089H25.647l-0.03.3h-0.03v0.03a1.75,1.75,0,0,0-.454.119H24.8c-0.332.083-.758,0.146-1.09,0.268v0.03h0.212v0.119h0.061a0.945,0.945,0,0,0,.424-0.03,0.582,0.582,0,0,0,.061-0.119c0.289,0,.462-0.058.787-0.059,0.039,0.073-.013.02,0.061,0.059a0.5,0.5,0,0,0-.061.327h0.03a0.421,0.421,0,0,1,.394,0,0.2,0.2,0,0,1,.03.119,0.106,0.106,0,0,0-.03.059c0.245,0.028.551,0.094,0.818,0.149a0.453,0.453,0,0,1,.03-0.238,1.021,1.021,0,0,1,.424-0.03,0.085,0.085,0,0,0,.03.03,0.379,0.379,0,0,0,.03.208,1.587,1.587,0,0,0,.606.03,1.336,1.336,0,0,1,.939,0l1.817,0.03a4.9,4.9,0,0,0,1.06.357,0.421,0.421,0,0,1,.03-0.149c0.106,0.021.24-.027,0.485-0.03a0.142,0.142,0,0,0,.03.089,0.762,0.762,0,0,1,.394.03c0.027,0.072.032,0.047,0.061,0.119a1.11,1.11,0,0,0,.091.773,0.148,0.148,0,0,1-.091-0.03,1.178,1.178,0,0,0-.212-0.357v0.03a0.871,0.871,0,0,0-.273.357,1.543,1.543,0,0,1,.212.476,0.164,0.164,0,0,0-.121.089h-0.03a1.149,1.149,0,0,0-.182-0.446l-0.515.625V28.58a2.216,2.216,0,0,1-.121.387c-0.121-.005-0.1-0.058-0.121.089,0.089,0.038.088,0.018,0.061,0.089a0.9,0.9,0,0,1-.484.535l-0.061.3a0.253,0.253,0,0,0,.091.059,0.549,0.549,0,0,0,.242,0v0.089h-0.03v0.03l-0.273.03a1.425,1.425,0,0,0-.273-0.268,0.466,0.466,0,0,1-.484.089,0.725,0.725,0,0,0,.03.119,2.606,2.606,0,0,1-.666.3,0.13,0.13,0,0,0-.091-0.089v0.06a0.367,0.367,0,0,1-.03.089,2.006,2.006,0,0,1-.575.3,0.493,0.493,0,0,0-.151-0.059h-0.03c0.016,0.066.034,0.059,0,.119a1.347,1.347,0,0,1-.636.268c-0.013-.034-0.035-0.14-0.061-0.059h-0.03v0.03a0.163,0.163,0,0,0,0,.119,1.508,1.508,0,0,0-.575.268,1.056,1.056,0,0,0-.182-0.089,0.085,0.085,0,0,1-.03.03c0.016,0.066.034,0.059,0,.119a1.215,1.215,0,0,1-.636.268c-0.013-.034-0.035-0.14-0.061-0.059H26.1v0.03a0.37,0.37,0,0,1-.03.089,1.136,1.136,0,0,1-.606.119,0.086,0.086,0,0,0-.03-0.03V31.851H25.314V31.97H24.648c-0.029-.1-0.012-0.093-0.121-0.119V31.97H23.861a0.084,0.084,0,0,0-.03-0.03V31.851H23.74V31.97H23.073a0.084,0.084,0,0,0-.03-0.03V31.851H22.952a0.142,0.142,0,0,1-.03.089,1.681,1.681,0,0,1-.636.03,0.085,0.085,0,0,0-.03-0.03V31.851H22.165a0.142,0.142,0,0,1-.03.089,1.68,1.68,0,0,1-.636.03,0.086,0.086,0,0,0-.03-0.03V31.851H21.378a0.142,0.142,0,0,1-.03.089,1.681,1.681,0,0,1-.636.03,0.085,0.085,0,0,0-.03-0.03V31.851H20.56V31.97H19.894V31.851H19.773V31.97H19.107c-0.026-.118.03-0.1-0.121-0.119V31.97H18.32a0.086,0.086,0,0,0-.03-0.03V31.851H18.2V31.97H17.5a0.084,0.084,0,0,0-.03-0.03V31.851H17.381V31.97h-0.7V31.851H16.563V31.97H15.9a0.085,0.085,0,0,0-.03-0.03V31.851H15.746V31.97h-0.7V31.851H14.928V31.97h-0.7V31.851H14.111V31.97h-0.7V31.851H13.293V31.97H12.6V31.851H12.475V31.97h-0.7V31.851H11.658V31.97h-0.7v-0.03h-0.03V31.851H10.84V31.97h-0.7v-0.03h-0.03V31.851H10.023V31.97h-0.7v-0.03H9.3V31.851H9.205a0.142,0.142,0,0,1-.03.089,1.871,1.871,0,0,1-.7.03v-0.03H8.448V31.851H8.357a0.142,0.142,0,0,1-.03.089,1.87,1.87,0,0,1-.7.03v-0.03H7.6V31.851H7.509a0.142,0.142,0,0,1-.03.089,1.87,1.87,0,0,1-.7.03v-0.03H6.752V31.851H6.662a0.142,0.142,0,0,1-.03.089,1.776,1.776,0,0,1-.666.03,0.2,0.2,0,0,0-.091-0.149v0.03a0.15,0.15,0,0,0-.03.089,0.923,0.923,0,0,1-.666-0.208,0.659,0.659,0,0,1-.03-0.149c-0.081.034-.064,0.057-0.151,0.089a1.233,1.233,0,0,1-.484-0.506,0.107,0.107,0,0,0,.03-0.059H4.421c-0.039.073,0.013,0.02-.061,0.059a2.127,2.127,0,0,1-.515-0.476,0.182,0.182,0,0,0,.061-0.059,0.433,0.433,0,0,0-.121-0.03s-0.04.086-.061,0.059v-0.03a1,1,0,0,1-.515-0.446A0.15,0.15,0,0,0,3.24,30.1a0.819,0.819,0,0,0-.182.059,1.329,1.329,0,0,1-.484-0.505c0-.055.029-0.027-0.03-0.059-0.031,0-.054.015-0.151,0.03A1.618,1.618,0,0,1,1.938,29,0.183,0.183,0,0,0,2,28.937H1.635a0.335,0.335,0,0,1-.363.327,0.207,0.207,0,0,0-.121-0.03,0.416,0.416,0,0,1-.03-0.119h0.03v-0.03a1.727,1.727,0,0,0,.212.059,0.339,0.339,0,0,0,.061-0.208,2.518,2.518,0,0,1-.3-0.03c-0.234.168-.714,0.34-0.727-0.178a0.386,0.386,0,0,1-.03-0.208,2.985,2.985,0,0,0,.484-0.327c-0.083-.047-0.076-0.027-0.091-0.149H0.182V27.9c-0.071,0-.052.026-0.121-0.03,0.076-.044.047-0.013,0.061-0.119H0.03a1.249,1.249,0,0,1,.061-0.238A0.163,0.163,0,0,1,0,27.39c0.1-.059.114-0.093,0.03-0.178,0.065-.041.051,0.01,0.061-0.089a0.1,0.1,0,0,1-.061-0.03H0.091V27a1.3,1.3,0,0,0-.061-0.3c0.023-.033.088,0.01,0.061-0.089C0.07,26.543-.01,26.595.03,26.5a0.6,0.6,0,0,0,.061-0.149A0.1,0.1,0,0,1,.03,26.32c0.114,0,.106.014,0.151-0.059a0.422,0.422,0,0,1,.061-0.446,0.627,0.627,0,0,0-.151-0.446,1.153,1.153,0,0,1,.151-0.416,4.3,4.3,0,0,0,.848-0.03l0.03-.089H0.908V24.773a1.24,1.24,0,0,0,.545,0A2.163,2.163,0,0,1,2.3,24.714a3.34,3.34,0,0,0,1.211.119,0.456,0.456,0,0,1,.182,0l0.03,0.089a4.4,4.4,0,0,0,.666-0.03c0.6,0.046.868,0,1.453,0s1.184,0.024,1.665.03a1.21,1.21,0,0,0,.666-0.059,0.942,0.942,0,0,1-.545-0.476,2.581,2.581,0,0,1-.818.089c-0.069.3-.356,0.255-0.727,0.238-0.109-.382-0.4-0.316-0.878-0.3v-0.03H5.178V24.3c-0.231-.02-0.135-0.077-0.242-0.149,0,0-.493.03-0.545,0.03H2.725V24H2.786V23.465a6.206,6.206,0,0,1,.061-1.219H3.089A1.9,1.9,0,0,1,3.3,21.383,2.359,2.359,0,0,0,3.694,21c0.109,0.023.195,0.1,0.273,0.119l0.333-.03a1.058,1.058,0,0,1,.394.327l0.03,0.238a0.736,0.736,0,0,0,.151.089,1.077,1.077,0,0,1,.091.714H5.117a0.448,0.448,0,0,0,.061-0.268H5.057a0.631,0.631,0,0,1,.061-0.357c0,0.112-.014.1,0.061,0.149a0.649,0.649,0,0,1,.061-0.387,5.655,5.655,0,0,1,1.332-.03A3.2,3.2,0,0,0,6.6,20.7a5.513,5.513,0,0,0,0-.862H6.934c0.029,0.692.069,1.491,0.061,2.141,0.3-.016.451-0.042,0.454,0.208L7.6,22.216V21.77a3.085,3.085,0,0,0,.091-0.625,4.757,4.757,0,0,0,.03-0.922V8H7.782V21.145a2.656,2.656,0,0,0,.182.833,5.76,5.76,0,0,0,1.393,0,1.944,1.944,0,0,0,.727.03,0.1,0.1,0,0,1,.151-0.059,3.49,3.49,0,0,0,1.423.03A4.5,4.5,0,0,1,12.627,22.007Zm7.843-1.725a0.257,0.257,0,0,1,.151.03A0.257,0.257,0,0,1,20.469,20.283Zm0.485,0a0.257,0.257,0,0,1,.151.03A0.257,0.257,0,0,1,20.954,20.283Zm-0.575.149H21.2a0.142,0.142,0,0,1,.03-0.089v0.119a3.253,3.253,0,0,1-.848.03,0.461,0.461,0,0,1-.03-0.149h0.03v0.089Z"/>
</svg>
