<?xml version="1.0" encoding="utf-8"?>
<!-- Generator: Adobe Illustrator 16.0.0, SVG Export Plug-In . SVG Version: 6.00 Build 0)  -->
<!DOCTYPE svg PUBLIC "-//W3C//DTD SVG 1.1//EN" "http://www.w3.org/Graphics/SVG/1.1/DTD/svg11.dtd">
<svg version="1.1" id="Layer_1" xmlns="http://www.w3.org/2000/svg" xmlns:xlink="http://www.w3.org/1999/xlink" x="0px" y="0px"
	 width="40px" height="40px" viewBox="0 0 40 40" enable-background="new 0 0 40 40" xml:space="preserve">
<path id="Color_Fill_1" fill="#FFFFFF" d="M26.936,0v7.549c0.174,0.074,0.292,0.237,0.309,0.424
	c-0.031,0.034-0.058,0.073-0.077,0.116h-0.076C27.057,8.001,26.988,7.933,26.9,7.9v0.039c-0.052,0.051-0.08,0.121-0.077,0.193
	c0.071,0.077,0.124,0.169,0.153,0.27c0.112,0,0.055-0.037,0.116,0c0.144,0.164,0.091,0.48,0.231,0.655
	c0.061,0.076,1.121,0.656,1.271,0.732c-0.041-0.542,0.319-1.032,0.848-1.155c0.055,0.08,0.082,0.174,0.078,0.27
	c-0.016,0.093-0.041,0.184-0.078,0.27c0.27,0.192,0.543,1.078,0.964,1.155c0.383,0.059,0.772,0.059,1.155,0
	c-0.253-0.098-0.469-0.272-0.617-0.5c0.185-0.048,0.027-0.03,0.117-0.154c0.033-0.024,0.074-0.038,0.115-0.039
	c0.012,0.067,0.055,0.125,0.116,0.154c0.11,0.041,0.229,0.054,0.347,0.038c-0.022-0.636,0.11-1.25,0.694-1.271
	c0.312-0.162,0.521,0.327,0.886,0.347c0.154-0.292,0.492-0.437,0.809-0.347c0.134,0.213,0.366,0.344,0.617,0.347
	c0.06-0.206,0.248-0.348,0.463-0.347c0.102-0.045,0.221-0.03,0.308,0.039c0.433,0.246,0.64,0.755,0.5,1.233h0.271
	c-0.008-0.132-0.057-0.138,0.153-0.154v0.154c0.236,0.095,0.458,0.225,0.655,0.385h0.54c0.615-0.055,1.234-0.055,1.851,0
	c0.107,0.4,0.481,0.677,0.616,1.078h-0.041c-0.325,0.447-1.012,0.6-1.349,1.04c-0.822-0.319-1.722-0.386-2.582-0.192l-2.352,0.116
	c-0.533,0.116-1.223-0.008-1.772,0.116c-0.228,0.089-0.459,0.166-0.694,0.231v-0.162h-0.152v-0.077H31.1
	c0.111-0.095,0.243-0.161,0.385-0.193v-0.038c-0.45-0.042-0.905-0.015-1.348,0.077c-0.596,0.295-1.215,0.54-1.851,0.732v0.385h0.038
	v0.039h0.115v0.27c0.26-0.015,0.521,0.011,0.771,0.077c-0.086,0.057-0.152,0.137-0.193,0.231h0.078
	c0.111-0.115,0.263-0.184,0.424-0.193v0.039c-0.082,0.126-0.122,0.274-0.117,0.424h0.078c0.527,0.371,0.933-0.547,1.463-0.231
	c0.108,0.014,0.199,0.088,0.231,0.192c0.126,0.218,0.11,0.49-0.038,0.693c0.09,0.032,0.16,0.104,0.193,0.192l0.154,0.039
	c0.262,0.243,0.546,0.463,0.848,0.655h1.387c0-0.042,0.013-0.083,0.038-0.116c0.071-0.034,0.151-0.048,0.231-0.039
	c0.01,0.017,0.022,0.029,0.039,0.039l-0.039,0.116h0.154v-0.116h0.308v0.115h0.925v0.27H35.3V17.1
	c-0.054,0.02-0.106,0.045-0.153,0.077l0.347,0.116v0.038H35.3c-0.065-0.034-0.049-0.034-0.116,0c0.355,0.061,0.695,0.191,1,0.385
	c0.978,0.389,1.728,1.196,2.043,2.2c0.249,0.486,0.344,1.037,0.27,1.579c-0.146,0.039-0.287,0.091-0.424,0.153
	c-0.326,0.036-0.655-0.004-0.963-0.115v0.076h0.076c0.034,0.025,0.074,0.039,0.116,0.039l-0.038,0.308
	c-0.212,0.04-0.242,0.083-0.23,0.347c0.006,0.117-0.008,0.234-0.039,0.348c-0.084,0.041-0.161,0.093-0.23,0.154
	c0.01,0.076,0.052,0.146,0.115,0.192c-0.039,0.138-0.164,0.232-0.309,0.231c0,0-0.051-0.111-0.076-0.078v0.039
	c-0.174,0.117-0.213,0.4-0.385,0.5c-0.066-0.002-0.133,0.011-0.193,0.039v0.151c0.064,0.058,0.039,0.028,0.039,0.077
	c-0.041,0.087-0.137,0.135-0.23,0.116C35.691,24.02,35.63,23.99,35.568,24c-0.221,0.134-0.406,0.318-0.539,0.539
	c0.043,0.023,0.072,0.066,0.076,0.115c-0.08,0.03-0.158,0.068-0.23,0.115c-0.006-0.082-0.071-0.148-0.154-0.153
	c-0.21,0.159-0.404,0.34-0.578,0.538c0.088,0.062,0.082,0.063,0.078,0.117c-0.057,0.047-0.107,0.098-0.154,0.153
	c-0.064-0.069-0.144-0.122-0.231-0.153c-0.137,0.191-0.492,0.326-0.578,0.5c0.052,0.049,0.126,0.115,0.077,0.153
	c-0.056,0.047-0.107,0.099-0.154,0.154h-0.039c-0.018-0.092-0.1-0.157-0.192-0.154c-0.167,0.2-0.379,0.358-0.617,0.462
	c0.017,0.137,0.077,0.117-0.038,0.193c-0.066,0.049-0.148,0.076-0.23,0.077c-0.029-0.069-0.085-0.125-0.154-0.154
	c-0.188,0.136-0.396,0.239-0.617,0.308c-0.075-0.023-0.156-0.023-0.23,0c-0.029,0.047-0.042,0.101-0.039,0.154h-0.27V26.77
	c-0.322,0-0.516,0.013-0.809,0c-0.023,0.062-0.036,0.127-0.039,0.192h-0.27v-0.155c-0.113-0.03-0.23-0.043-0.347-0.037
	c-0.15,0.047-0.312,0.047-0.462,0c-0.025,0.074-0.039,0.152-0.039,0.23h-0.27v-0.23c-0.324,0-0.516,0.013-0.81,0v0.076
	c-0.028,0.047-0.042,0.1-0.038,0.154h-0.232c-0.026-0.074-0.039-0.152-0.039-0.23c-0.301,0-0.5,0.019-0.771,0
	c-0.049,0.066-0.076,0.147-0.077,0.23h-0.271v-0.23c-0.299,0-0.5,0.019-0.771,0c-0.025,0.074-0.038,0.152-0.038,0.23H25.2
	c-0.026-0.074-0.039-0.152-0.039-0.23c-0.3,0-0.5,0.019-0.771,0c-0.026,0.074-0.039,0.152-0.039,0.23h-0.271v-0.23
	c-0.317,0-0.526,0.02-0.81,0c-0.025,0.074-0.039,0.152-0.039,0.23h-0.27v-0.23c-0.313,0-0.516,0.013-0.809,0
	c-0.024,0.074-0.036,0.152-0.034,0.23H21.85v-0.23c-0.3,0-0.5,0.019-0.771,0c-0.025,0.074-0.038,0.152-0.038,0.23h-0.27v-0.193
	c-0.113-0.03-0.23-0.043-0.348-0.037c-0.15,0.049-0.312,0.049-0.462,0c-0.026,0.074-0.039,0.152-0.039,0.23h-0.27v-0.23
	c-0.317,0-0.526,0.02-0.809,0c-0.025,0.074-0.039,0.152-0.039,0.23h-0.27v-0.23c-0.3,0-0.5,0.019-0.771,0
	c-0.067,0.199-0.064,0.239-0.347,0.23v-0.23c-0.3,0-0.5,0.019-0.771,0c-0.026,0.074-0.039,0.152-0.039,0.23h-0.27v-0.193
	c-0.113-0.03-0.23-0.043-0.347-0.037c-0.15,0.049-0.312,0.049-0.462,0c-0.025,0.074-0.039,0.152-0.039,0.23h-0.271v-0.23
	c-0.317,0-0.526,0.02-0.809,0L14.374,27H14.1v-0.23c-0.313,0-0.516,0.013-0.809,0L13.256,27h-0.27v-0.23
	c-0.317,0-0.526,0.02-0.809,0L12.139,27h-0.27v-0.23c-0.317,0-0.526,0.02-0.809,0v0.192h-0.077c-0.085,0.037-0.178,0.05-0.27,0.038
	l0.039-0.23H10.4c-0.137,0.049-0.287,0.049-0.424,0c-0.015,0.147-0.147,0.255-0.295,0.24C9.665,27.008,9.649,27.004,9.634,27v-0.23
	c-0.323,0-0.515,0.013-0.809,0v0.153C8.72,26.984,8.599,27.011,8.478,27l0.039-0.23c-0.317,0-0.526,0.02-0.809,0v0.153
	C7.603,26.984,7.481,27.011,7.36,27c0.033-0.113,0.076-0.161-0.039-0.23c-0.235-0.123-0.479-0.227-0.732-0.309
	c-0.042,0.035-0.081,0.074-0.116,0.116L6.2,26.5l-0.039-0.116c0.051-0.067,0.067-0.062,0.039-0.114
	C6.064,26.153,5.909,26.063,5.742,26c-0.06,0.074-0.095,0.107-0.154,0.077L5.28,25.807c0.049-0.058,0.088-0.123,0.116-0.192
	l-0.463-0.425l-0.116-0.424H4.624c-0.037,0.01-0.015,0.03-0.039,0c-0.067-0.089-0.107-0.195-0.116-0.308h0.155
	c-0.035-0.134-0.087-0.264-0.154-0.385c-0.031-0.189-0.044-0.382-0.038-0.573c-0.2-0.066-0.24-0.064-0.231-0.348h0.192
	c-0.006-0.193,0.007-0.387,0.039-0.577H4.355c-0.281-0.11-0.585-0.15-0.886-0.115c-0.133-0.331-0.089-0.708,0.116-1l0.193,0.039
	L3.738,21.8c0.095,0.058,0.199,0.097,0.308,0.116c0.078-0.107,0.143-0.225,0.193-0.348h0.038v-0.037H4.239
	c-0.005-0.049-0.034-0.093-0.077-0.116c-0.299-0.097-0.619-0.11-0.925-0.038L3.2,19.759c0.134-0.413,0.225-0.839,0.27-1.271
	c-0.108-0.013-0.199-0.086-0.233-0.188c0.295-0.321,0.398-0.776,0.27-1.194c-0.765-0.115-1.541-0.141-2.312-0.076
	c-0.211-0.068-0.434-0.094-0.655-0.077c-0.081-0.103-0.187-0.183-0.308-0.231c-0.028-0.12-0.067-0.237-0.116-0.351v-2.388
	C0.064,13.912,0.024,13.833,0,13.75c0.058-0.253,0.097-0.511,0.116-0.77h0.077c0.375-0.117,0.764-0.182,1.156-0.193
	c0.968-0.154,1.95-0.206,2.929-0.154h1.233c0.225,0.106,0.457,0.197,0.694,0.27c0.077-0.092,0.188-0.147,0.308-0.154
	c0.089,0.136,0.227,0.232,0.385,0.27c0.095-0.042,0.186-0.093,0.27-0.154c0.029-0.046,0.042-0.1,0.039-0.154
	c0.458-0.158,0.945-0.211,1.426-0.154c0.158,0.068,0.313,0.146,0.462,0.231c0.193,0.076,0.358,0.04,0.5,0.116
	c0-0.201,0.102-0.389,0.27-0.5c0.465,0.275,1,0.409,1.541,0.385v-0.156c0.214,0,0.21,0,0.424,0v0.154
	c0.061,0.034,0.125,0.06,0.193,0.077c-0.042-0.154-0.028-0.317,0.039-0.462h0.655c0.072-0.034,0.152-0.047,0.231-0.038
	c0.315,0.536,1.065,0.4,1.888,0.385c0.04,0.193,0.146,0.373,0.193,0.539v0.347l0.116,0.039c0.056,0.087,0.107,0.178,0.154,0.27
	h0.116v-0.155h0.077c0.046,0.028,0.1,0.042,0.154,0.038v-0.115h0.27v-0.193l-0.54-0.039c0.015-0.38,0.038-0.837,0.039-1.271h-1.349
	c-0.078,0-0.424-0.039-0.424-0.039c-0.021,0.042-0.046,0.081-0.077,0.116c-0.269,0.05-0.546,0.037-0.809-0.038
	c-0.248-0.21-0.423-0.493-0.5-0.809c-0.103-0.043-0.195-0.109-0.27-0.193c0.115-0.211,0.258-0.405,0.424-0.578
	c-0.021-0.074-0.063-0.033,0-0.077c0.303-0.359,0.729-0.593,1.195-0.655c-0.021-0.234-0.1-0.24-0.116-0.5H13.6V9.013h0.231
	l-0.039-0.27h0.231c0.1,0.358,0.547,0.289,1,0.27l0.154-0.27c0.306,0.057,0.62,0.057,0.925,0c0.023,0.062,0.036,0.127,0.038,0.193
	c-0.031,0.019-0.058,0.045-0.077,0.077h0.5c0.201-0.056,0.411-0.069,0.617-0.039c0.012-0.097,0.069-0.183,0.154-0.231
	c0.029,0.004,0.057,0.018,0.077,0.039c0.046,0.059,0.085,0.124,0.116,0.193h3.353c0.074-0.644,0.369-0.707,0.963-0.847
	c0.167-0.085,0.353-0.125,0.54-0.116c0.044,0.084,0.331,0.952,0.348,0.963h0.385c0.119-0.336,0.197-0.685,0.23-1.04h0.193
	c0,0.042,0.013,0.082,0.038,0.115c0.065-0.028,0.143-0.012,0.192,0.039c0.092-0.068,0.013-0.1,0.193-0.116
	c-0.016,0.146-0.055,0.29-0.115,0.424c0.953,0,2-0.025,2.889,0.039V8.4c-0.184-0.147-0.273-0.384-0.23-0.616
	c0.023-0.059,0.17-0.139,0.193-0.193v-5.28C26.656,1.539,26.697,0.764,26.82,0h0.117H26.936z M29.248,8.666
	c-0.049,0.067-0.076,0.148-0.077,0.231c0.079,0.054,0.175,0.081,0.271,0.077C29.467,8.9,29.48,8.822,29.48,8.743
	C29.413,8.694,29.332,8.667,29.248,8.666L29.248,8.666z M15.337,8.9v0.116h0.617V8.974c-0.067-0.049-0.148-0.076-0.231-0.077
	C15.596,8.923,15.465,8.924,15.337,8.9z M34.451,9.17c0.021,0.021,0.048,0.034,0.076,0.038c-0.02-0.021-0.047-0.036-0.076-0.041
	V9.17z M13.451,10.017c-0.081,0.057-0.173,0.097-0.27,0.116v0.038h0.116c0.085-0.06,0.176-0.111,0.27-0.154h-0.118H13.451z
	 M13.528,10.094c-0.048,0.032-0.1,0.058-0.154,0.077c0.063,0.112,0.141,0.216,0.231,0.308v-0.388h-0.079L13.528,10.094z
	 M38.807,10.864c-0.1,0.06-0.363,0.015-0.461,0.077c0.219,0.007,0.438-0.006,0.654-0.041v-0.038h-0.195L38.807,10.864z M12.254,10.9
	L12.1,11.17h0.039v-0.077c0.083-0.02,0.136-0.104,0.116-0.187C12.255,10.904,12.254,10.902,12.254,10.9z M38.729,11.016
	c-0.055,0.034-0.217,0.042-0.271,0.077h0.347c0.03-0.026,0.086-0.05,0.116-0.077H38.729z M12.563,11.9
	c0.018,0.057,0.091,0.319,0.231,0.231C12.733,12.04,12.654,11.961,12.563,11.9z M13.488,12.054l-0.039,0.077
	c0.067-0.052,0.039-0.075,0.039-0.075V12.054z M31.368,12.4v0.077l0.116-0.038V12.4H31.368z M12.254,12.477
	c0.218,0.096,0.46,0.123,0.694,0.077v-0.075h-0.694V12.477z M9.788,12.516l-0.039,0.231c0.067,0.018,0.132,0.043,0.193,0.077
	c0.008-0.079,0.051-0.149,0.116-0.193c-0.021-0.021-0.048-0.034-0.077-0.039c-0.051-0.05-0.121-0.077-0.193-0.074V12.516z
	 M12.062,12.593c-0.001,0.042,0.013,0.083,0.038,0.116c0-0.041-0.013-0.081-0.038-0.114V12.593z M28.361,12.593
	c-0.033,0.033-0.06,0.072-0.076,0.116h0.038c0.023-0.043,0.067-0.072,0.116-0.077v-0.037h-0.078V12.593z M10.062,12.901
	c0.142,0.003,0.285-0.01,0.424-0.038v-0.037c-0.121-0.06-0.251-0.099-0.386-0.116c-0.033,0.058-0.047,0.124-0.042,0.19
	L10.062,12.901z M12.297,12.67l0.039,0.347h0.54l0.116-0.347h-0.699H12.297z M13.106,12.67v0.077
	c0.058-0.047,0.043-0.014-0.006-0.075L13.106,12.67z M13.106,13.094h0.116c0.034-0.117-0.013-0.242-0.116-0.308V13.1V13.094z
	 M13.299,13.132c0.41,0.139,0.809,0.306,1.195,0.5l0.077-0.154h0.039v0.039c0.018,0.05,0.031,0.102,0.038,0.154
	c0,0,0.051-0.111,0.077-0.077v0.038c0.047,0.068,0,0.067,0.039,0.116c0.057,0.04,0.124,0.066,0.193,0.077v-0.5
	c-0.1-0.132-0.091-0.373-0.193-0.5c-0.497-0.076-1-0.089-1.5-0.039v0.039c0.037,0.099,0.047,0.205,0.031,0.309L13.299,13.132z
	 M12.991,12.862l-0.038,0.193h0.077c0.006-0.066-0.009-0.133-0.043-0.19L12.991,12.862z M5.7,12.942V13.1h0.042
	c0.019-0.031,0.045-0.058,0.077-0.077V12.98L5.7,12.942z M11.9,12.942v0.077c0.07-0.046,0.055-0.019,0.008-0.077H11.9z M0.07,13.635
	v0.077h0.046v-0.077H0.077H0.07z M30.79,14.174c0.085,0.122,0.101,0.325,0.192,0.462V14.6c0.06-0.092,0.074-0.205,0.039-0.308
	c-0.048-0.028-0.088-0.068-0.117-0.116H30.79V14.174z M30.52,14.251l0.039,0.385c0.049,0.021,0.102,0.034,0.154,0.039V14.6
	C30.8,14.439,30.641,14.318,30.52,14.251z M31.753,15.521c-0.013,0.054,0.056,0.057,0.077,0.078
	C31.857,15.559,31.764,15.534,31.753,15.521z M31.869,15.6c0.04,0.092,0.131,0.152,0.23,0.154v-0.039
	C32.02,15.686,31.941,15.646,31.869,15.6z M6.127,22.8c0.119-0.005,0.237-0.03,0.347-0.077c-0.021-0.02-0.046-0.032-0.074-0.037
	c-0.063-0.057-0.146-0.084-0.231-0.076C6.136,22.667,6.122,22.733,6.127,22.8z M23.661,25.96h0.271
	c0.061-0.15,0.113-0.305,0.153-0.462c-0.256-0.336-0.451-0.714-0.578-1.117l0.116-0.963h-0.811v0.038
	c0.238,0.629,0.195,1.33-0.115,1.926c-0.107,0.07-0.199,0.163-0.271,0.271c0.152,0.183,0.058,0.312,0.425,0.308
	c0.006-0.296,0.211-0.55,0.5-0.616C23.496,25.525,23.602,25.735,23.661,25.96z M6.936,23.648c-0.105,0.061-0.226,0.088-0.347,0.078
	c-0.103,0.131-0.158,0.295-0.154,0.461C6.55,24.311,6.7,24.631,6.9,24.535C7.114,24.307,7.226,24,7.208,23.688H7.129
	C7.07,23.656,7.003,23.643,6.936,23.648z M9.788,25.96c0.041,0,0.08-0.014,0.112-0.038c0.065-0.078,0.081-0.236,0.154-0.308
	c0.138-0.075,0.267-0.166,0.385-0.271c0.091,0.002,0.182,0.016,0.27,0.038c-0.007,0.225,0.093,0.439,0.27,0.578
	c0.111-0.245,0.283-0.457,0.5-0.616h0.231c0.02,0.256,0.163,0.486,0.385,0.616v-0.153c0.138-0.244,0.378-0.414,0.655-0.463
	c0.109,0.192,0.187,0.4,0.231,0.616h0.193c0.031-0.327,0.29-0.586,0.617-0.616c0.026,0.275,0.205,0.514,0.462,0.616
	c0.023-0.062,0.036-0.127,0.038-0.192c-0.385-0.282-0.659-0.691-0.771-1.156l0.077-0.963h-1.111c-0.232,0.14-0.5,0.207-0.771,0.193
	c-0.182-0.092-0.376-0.157-0.578-0.193v0.039H11.1c-0.077,0.49-0.322,0.94-0.694,1.271c-0.061,0.126-0.139,0.242-0.231,0.347
	c-0.183,0.072-0.342,0.191-0.462,0.348C9.76,25.748,9.785,25.854,9.788,25.96z M8.94,23.688c0.115,0.303,0.271,0.588,0.462,0.848
	l0.27,0.039c0.106-0.115,0.162-0.268,0.154-0.424c-0.06-0.064-0.101-0.145-0.116-0.231C9.461,23.817,9.204,23.74,8.94,23.688z
	 M33.025,23.688c-0.001,0.043,0.013,0.084,0.039,0.117C33.064,23.762,33.051,23.721,33.025,23.688z M33.68,23.766
	c-0.046,0.027-0.1,0.041-0.154,0.037c-0.045,0.046-0.084,0.098-0.115,0.154h0.038c0.071,0.041,0.226,0.059,0.347,0.116v-0.154
	C33.751,23.874,33.725,23.809,33.68,23.766z M33.834,24.073c-0.014,0.053,0.055,0.056,0.077,0.077
	C33.938,24.109,33.846,24.084,33.834,24.073z M8.054,24.15c-0.194,0.371-0.473,1.058,0.308,1.039v-0.076
	C8.395,24.764,8.284,24.416,8.054,24.15z M17.919,24.15c-0.128,0.037-0.247,0.104-0.347,0.192c-0.123,0.2-0.047,0.523-0.154,0.732
	c-0.161,0.146-0.281,0.331-0.347,0.539c0.167,0.2,0.063,0.354,0.462,0.347c-0.013-0.302,0.202-0.566,0.5-0.615
	c0.116,0.28,0.14,0.627,0.578,0.615c-0.03-0.308,0.193-0.582,0.5-0.615c0.11,0.276,0.122,0.621,0.539,0.615
	c0.019-0.043,0.045-0.082,0.077-0.115v-0.078c-0.217-0.167-0.411-0.361-0.578-0.578L19,24.342
	C18.675,24.148,18.291,24.08,17.919,24.15z M26.975,25.96h0.154c-0.024-0.302,0.17-0.577,0.462-0.655
	c0.12,0.124,0.249,0.24,0.386,0.348c0.029,0.12,0.098,0.229,0.192,0.308v-0.038c0.044-0.228,0.167-0.433,0.347-0.578
	c0.034-0.024,0.074-0.038,0.116-0.039c0.046,0.081,0.097,0.158,0.154,0.231c0.093,0.017,0.183,0.042,0.271,0.077
	c0.039,0.128,0.104,0.246,0.192,0.347v-0.077c0.097-0.135,0.151-0.296,0.153-0.462c-0.185-0.135-0.342-0.305-0.461-0.5
	c-0.139-0.353,0.064-0.755-0.424-0.771c-0.154,0.016-0.31,0.016-0.463,0c-0.119,0.031-0.25,0.119-0.386,0.154
	c-0.021,0.26-0.059,0.517-0.116,0.771c-0.179,0.265-0.386,0.511-0.617,0.731C26.957,25.855,26.97,25.907,26.975,25.96L26.975,25.96z
	 M33.064,24.65l-0.039,0.115H33.1C33.102,24.725,33.088,24.684,33.064,24.65L33.064,24.65z M9.827,26v0.077h0.038V26H9.827z
	 M10.867,26l0.039,0.116c0.021-0.021,0.034-0.048,0.039-0.077c0.016-0.01,0.029-0.023,0.038-0.039H10.867z M11.946,26
	c0.032,0.125-0.019,0.059,0.077,0.116v-0.04c0.021-0.021,0.034-0.047,0.039-0.076H11.946L11.946,26z M13.025,26v0.116h0.116V26
	H13.025z M14.065,26c0.015,0.072,0.081,0.121,0.154,0.116v-0.079c0.016-0.009,0.029-0.021,0.039-0.037H14.065L14.065,26z
	 M17.495,26.116V26h-0.231v0.077H17.3c0.062,0.032,0.131,0.046,0.2,0.037L17.495,26.116z M18.343,26v0.116
	c0.145-0.005,0.135,0.018,0.193-0.077c0.016-0.01,0.029-0.023,0.038-0.039H18.343z M19.383,26c0.064,0.111,0.056,0.107,0.231,0.116
	v-0.079h0.039V26H19.383z M22.62,26v0.116c0.146-0.005,0.136,0.018,0.192-0.077h0.039V26H22.62z M23.893,26.116V26H23.7v0.039
	c0.021,0.021,0.034,0.048,0.038,0.077H23.893L23.893,26.116z M27.014,26l0.038,0.116h0.039V26H27.014z M16.3,26.037
	c-0.021,0.021-0.048,0.033-0.077,0.038v0.038h0.193v-0.076H16.3z"/>
</svg>
