<svg xmlns="http://www.w3.org/2000/svg" width="40" height="40" viewBox="0 0 40 40">
  <defs>
    <style>
      .cls-1 {
        fill: #fff;
        fill-rule: evenodd;
      }
    </style>
  </defs>
  <path id="us_m4a3_105_sherman_ico" class="cls-1" d="M14.186,10.964h0.966V10.9a0.113,0.113,0,0,1-.031-0.062h0.405V10.808h0.031v0.031c0.06,0.1-.038.122,0.187,0.125a0.412,0.412,0,0,0,.062-0.25h0.125c-0.008.385,0.163,0.428,0.561,0.406,0.24,0.151.848-.094,1.122,0.031a10.081,10.081,0,0,0,1.4.094,6.179,6.179,0,0,0,1.154.031h2.182v0.25c-1.25,0-2.618.029-3.9,0.031V11.65c-0.2,0-.8-0.079-0.842-0.062a2.031,2.031,0,0,1-.811.031c-0.214-.006-0.479.063-0.748,0.062a2.218,2.218,0,0,0-.062.687H15.931c-0.08.049-.295,0.012-0.374,0.062,0.212,0.2-.067,1.008.062,1.311h0.062v0.187c0.21,0,.548.078,0.592,0.063a0.285,0.285,0,0,0,.249-0.281c-0.1-.33.267-0.194,0.374-0.343a0.6,0.6,0,0,0,.093-0.562h0.156l0.031,0.25a0.169,0.169,0,0,1,.125.094,0.348,0.348,0,0,1-.031.281h0.094a1.84,1.84,0,0,1,1.122-.156,0.57,0.57,0,0,1,.031-0.281,0.978,0.978,0,0,0,.031.312l0.218,0.031,0.062-.125,0.125,0.031A1.323,1.323,0,0,1,19.3,12.93a0.366,0.366,0,0,0,.156.062v0.468c0.355,0.01.675,0.153,1.029,0.187a0.245,0.245,0,0,0,.218.281,4.8,4.8,0,0,1,.281-0.874h0.125v0.063c-0.066.1-.056,0.279-0.125,0.374a1.114,1.114,0,0,1-.156.031,0.941,0.941,0,0,0-.062.5c0.152,0.038.244,0.116,0.405,0.156a0.465,0.465,0,0,1,.5-0.125,1.714,1.714,0,0,0,.842.062l0.031-.094a0.359,0.359,0,0,1-.249-0.343,2.247,2.247,0,0,0-.281.063l-0.031-.094c-0.094-.13,0-0.242.156-0.25,0.046,0.079.039,0.057,0.156,0.062a0.389,0.389,0,0,1,.187-0.312,1.835,1.835,0,0,1,1-.125v1.092H23.289v0.219h0.187V14.272c0.067-.025.249,0.06,0.405,0.031V14.241a1.131,1.131,0,0,0,.031-0.468h0.093a1.831,1.831,0,0,1-.062.655h0.062a0.522,0.522,0,0,1,.468,0l0.187,0.218a6.713,6.713,0,0,0-.031.718h0.031a0.177,0.177,0,0,1,.156-0.031h0.031a0.469,0.469,0,0,0-.062.125,0.15,0.15,0,0,1,.094.031c-0.077.04-.021-0.013-0.062,0.062a0.524,0.524,0,0,1,.187.312c0.071-.012.034-0.029,0.093,0,0,0-.09.041-0.062,0.062h0.031L25.1,16.051c0.132,0,.329.128,0.5,0.156l0.561-.094a0.96,0.96,0,0,1,.125-0.406h0.031c0.026,0.1-.015.048,0.062,0.094V15.739c0.231-.277.088-0.507,0.655-0.5,0.1,0.085.212,0.174,0.312,0.25,0.015,0.148-.024.473,0,0.531a1.065,1.065,0,0,0,.842.375v0.094h0.624v0.281q0.933,0.062,1.933.063h1.029c0.561,0.121,1.3-.1,1.9.031a6.866,6.866,0,0,0,1.247.031l1.839,0.031V17.83c-2.639-.007-5.35.083-7.95,0.156v0.281a1.719,1.719,0,0,0-1.029.187,0.242,0.242,0,0,1,.031.187c-0.231-.086-0.2.03-0.374,0.094H27.03a0.219,0.219,0,0,0-.156-0.156,2.007,2.007,0,0,1-.218.156,0.632,0.632,0,0,0,.187.312,2.573,2.573,0,0,0,1.341.031c0.129-.048.182-0.218,0.312-0.281a0.481,0.481,0,0,0,.312.187,0.712,0.712,0,0,1,.5-0.187,0.27,0.27,0,0,0,.156.031,0.878,0.878,0,0,0,.249.312l0.5,0.031V19.3h0.53a1.231,1.231,0,0,1,.249-0.187v0.031a0.147,0.147,0,0,0-.062.156,1.119,1.119,0,0,1,.405.063,0.279,0.279,0,0,1,.094-0.156H31.4V19.172a0.408,0.408,0,0,1-.281-0.156l0.031-.062H31.115a0.158,0.158,0,0,1,.094-0.031V18.891h0.031v0.031c0.091,0.062.125,0.167,0.218,0.219a0.121,0.121,0,0,1,.094-0.062l0.218,0.25,0.093-.031a1.238,1.238,0,0,1,.281.375h0.031V19.64a2.689,2.689,0,0,1,.249-0.187,1.2,1.2,0,0,1,.031-0.811c0.071-.012.034-0.029,0.093,0,0.09,0.035.057,0.005,0.094,0.094a2.238,2.238,0,0,1,.062,1.03c0.1,0.026.048-.015,0.093,0.062-0.127.052-.1,0.2-0.093,0.375a1.027,1.027,0,0,0,.249.187,0.484,0.484,0,0,1,.686.156,3.1,3.1,0,0,1,.156.624,0.29,0.29,0,0,0,.249.156,0.624,0.624,0,0,1,.53-0.25v0.156H34.7v0.156H34.575v0.156h0.218v0.312h0.561a1.028,1.028,0,0,0,.094-0.375A3.029,3.029,0,0,1,35.2,20.92l0.218-.031a1.211,1.211,0,0,1,.187.968l-0.343.406h0.748l0.062-.406,0.218,0.031-0.031.406h0.312v0.25H36.539v0.031H36.1c-0.072.289-.291,0.444-0.343,0.749a2.583,2.583,0,0,0,.53.531h0.436a2.73,2.73,0,0,1,.842.094c0.411,0.134.638,0.419,1,.531-0.012.071-.029,0.034,0,0.094L38.6,24.634c0.075-.036.054-0.064,0.125-0.031a0.448,0.448,0,0,1,0,.125h0.031a6.455,6.455,0,0,0,.468.5c0.044,0.059.045,0.134,0.094,0.187a0.558,0.558,0,0,1,.156.094,5.508,5.508,0,0,1,.437,1.186H40v0.125H39.907v0.125l-0.748-.125a1.47,1.47,0,0,0,0,.718H39.065a1.112,1.112,0,0,1-.218.531c-0.058,0-.028-0.029-0.062.031H38.753a0.215,0.215,0,0,0,.125.218,0.482,0.482,0,0,0,.343-0.062,0.19,0.19,0,0,0,.062.062,0.107,0.107,0,0,1-.031.062c-0.035.09-.006,0.058-0.094,0.094a0.694,0.694,0,0,1-.592-0.031c-0.124.209-.337,0.308-0.468,0.5-0.054-.025-0.057-0.082-0.093-0.031a1.275,1.275,0,0,1-.094.187,4.837,4.837,0,0,1-.592.468l-0.094-.031c-0.082.044-.053,0.172-0.156,0.25a2.12,2.12,0,0,0-.53.437,0.26,0.26,0,0,0-.094-0.062l-0.031.062c-0.121.222-.469,0.382-0.655,0.624-0.047-.027-0.023-0.089-0.062-0.031a4.132,4.132,0,0,1-.686.655c-0.053.023-.1-0.018-0.156,0a0.242,0.242,0,0,1,0,.125,5.806,5.806,0,0,1-.592.281,2.286,2.286,0,0,1-.405-0.031l-0.031.094a4.583,4.583,0,0,1-1-.062v0.062a1.751,1.751,0,0,1-.842-0.062s-0.579.063-.686,0.062H30.99V31.875H30.9v0.062a1.856,1.856,0,0,1-.873-0.062,0.756,0.756,0,0,0-.281.062H29.026V31.875H28.9v0.062a1.751,1.751,0,0,1-.842-0.062c-0.106-.037-0.1.052-0.125,0.062H27.249a1.885,1.885,0,0,0-.281-0.062v0.062a1.854,1.854,0,0,1-.873-0.062,0.756,0.756,0,0,0-.281.062H25.1V31.875H24.973v0.062a4.489,4.489,0,0,1-.966-0.062v0.062a4.35,4.35,0,0,1-.966-0.062v0.062a4.939,4.939,0,0,1-1-.062v0.062a4.765,4.765,0,0,1-1-.062v0.062a1.751,1.751,0,0,1-.842-0.062,0.756,0.756,0,0,0-.28.062H19.2c-0.037-.015.026-0.062-0.062-0.062s-0.026.048-.062,0.062a4.489,4.489,0,0,1-.966-0.062v0.062a4.766,4.766,0,0,1-1-.062,1.733,1.733,0,0,1-.842.062V31.875a1.084,1.084,0,0,0-.312.062H15.277c-0.027-.011-0.019-0.1-0.125-0.062-0.022.008,0.013,0.055-.125,0.062-0.157.009-.873-0.062-0.873-0.062a1.712,1.712,0,0,1-.842.062V31.875s-0.578.063-.686,0.062a2.291,2.291,0,0,1-.343-0.062c-0.1-.006-0.057.047-0.093,0.062H11.629c-0.745,0-1.483-.025-2.307-0.031-0.042-.094.021-0.084-0.156-0.094a2.743,2.743,0,0,1-.9-0.343c0.012-.091.051-0.039-0.031-0.094a0.355,0.355,0,0,0-.125,0A5.085,5.085,0,0,1,7.42,31l0.031-.062H7.42a0.224,0.224,0,0,0-.125,0,6.381,6.381,0,0,1-.717-0.375l0.031-.094a0.521,0.521,0,0,0-.218,0A6.753,6.753,0,0,0,5.705,30.1C5.718,30,5.756,30.057,5.674,30A2.108,2.108,0,0,1,4.8,29.5c-0.074.044-.018,0.053-0.094,0.031A1.18,1.18,0,0,1,4.053,29.1a0.142,0.142,0,0,0-.156,0,3.363,3.363,0,0,1-.5-0.343c-0.137-.133-0.076-0.328-0.187-0.437a0.2,0.2,0,0,1-.156-0.031,2.4,2.4,0,0,1-.343-1.373,0.62,0.62,0,0,1-.187-0.187c-0.265.048-.666-0.036-0.966,0.031A7.453,7.453,0,0,1,0,26.975V26.913a3.771,3.771,0,0,0,.125-0.5l0.125-.062c0.078-.106.088-0.232,0.156-0.343,0.1-.16.26-0.331,0.343-0.5A0.663,0.663,0,0,1,.779,25.29,0.146,0.146,0,0,0,.9,25.258c0.091-.131.172-0.283,0.249-0.406a2.142,2.142,0,0,1,.436-0.718,0.571,0.571,0,0,1-.031-0.187l0.53-.031V23.885H2.12A0.473,0.473,0,0,1,2.182,23.7a0.329,0.329,0,0,1-.249-0.281A0.223,0.223,0,0,0,2,23.292a0.744,0.744,0,0,0,.343-0.031,0.792,0.792,0,0,0,.156-0.406,0.107,0.107,0,0,1-.062-0.031H2.369a0.342,0.342,0,0,1-.062.156,0.678,0.678,0,0,0-.249-0.125c0.012,0.071.029,0.034,0,.094a0.8,0.8,0,0,0-.343.031,0.1,0.1,0,0,1,0,.094,0.549,0.549,0,0,0-.125.062,3.278,3.278,0,0,1-1.4-.749,0.832,0.832,0,0,0,.062-0.25A0.952,0.952,0,0,1,.094,21.95H0.187c0.059,0.027.023,0.015,0.094,0v0.062a0.107,0.107,0,0,0,0,.125C0.4,22.153.412,22.181,0.53,22.2A1.234,1.234,0,0,0,.9,21.95c-0.483-.4.155-1.849,0.9-1.592a4.338,4.338,0,0,1,.779.437,0.831,0.831,0,0,0,.218.343,0.216,0.216,0,0,1,.281-0.125V20.92H3.242V20.858a0.306,0.306,0,0,1,0-.25H3.367a0.112,0.112,0,0,0,.062.031v0.094L3.9,20.7a1.323,1.323,0,0,0-.031-0.312H4.178a1.669,1.669,0,0,0,.873-0.062c0,0.177.011,0.186,0.187,0.187a1.617,1.617,0,0,1,.624-0.094V20.327H5.924c0.089-.054.262-0.036,0.343-0.094,0.063-.051-0.022-0.036.062-0.062a0.4,0.4,0,0,1,.405.063c0.351-.1.739-0.065,1.122-0.156l2.245-.343,0.655-.062c0.186-.044.444-0.024,0.655-0.094a0.753,0.753,0,0,1,.343-0.187,0.964,0.964,0,0,0,.748.031c0.263-.064.616-0.03,0.9-0.125a3.185,3.185,0,0,1,.811-0.187V18.923a1.212,1.212,0,0,1-1-.406l0.031-1.373a2.818,2.818,0,0,0-1.278-.125,0.723,0.723,0,0,1-.062-0.374,1.038,1.038,0,0,0,.031-0.437H12.5V16.114a3.539,3.539,0,0,1-.748-1.092,1.317,1.317,0,0,0,.312-0.25h0.249a0.779,0.779,0,0,1,.249.25,1.943,1.943,0,0,0,.062.343,0.159,0.159,0,0,0,.094.031,1.994,1.994,0,0,1,.374-0.281,0.59,0.59,0,0,1,.093.125,0.514,0.514,0,0,0-.343.219,2.118,2.118,0,0,0,.5.062V14.959H14c0-.486-0.06-0.877-0.062-1.4,0.178-.054.137-0.306,0.125-0.531a4.718,4.718,0,0,0,.031-1.186,1.7,1.7,0,0,0-.53.125v0.094H13.406L13.375,11.9a3.158,3.158,0,0,0-1.122-.062,0.351,0.351,0,0,1-.218.094V11.9a0.118,0.118,0,0,0,.094-0.125,0.668,0.668,0,0,0-.218-0.031,0.27,0.27,0,0,1-.156.031v-0.25H11.629v-0.25h0.125V10.964c0.29,0.014.48-.025,0.779-0.031V10.808a0.814,0.814,0,0,1,.405-0.062c0.07,0.179.059,0.2,0.374,0.187a2.083,2.083,0,0,0,.78.031V8.342A8.113,8.113,0,0,1,14.123,7h0.031A37.156,37.156,0,0,1,14.186,10.964Zm3.741,0.811a0.112,0.112,0,0,1,.031.062H17.927V11.775Zm-3.585,1.779c0,0.463-.056.846-0.062,1.248H14.31l0.624-.374a0.721,0.721,0,0,0,.374-0.125v-0.25H15.121V14.21a0.09,0.09,0,0,0-.031.031,0.106,0.106,0,0,1-.062-0.031A1.131,1.131,0,0,1,15,13.742a0.489,0.489,0,0,0,.062-0.406A4.244,4.244,0,0,1,15.09,12.4l-0.374-.031V12.025a0.09,0.09,0,0,1-.031-0.031,3.346,3.346,0,0,1-.5-0.156v1.28a2.78,2.78,0,0,1,.062.437h0.094Zm3.523-1.717h0.062v0.031A0.106,0.106,0,0,1,17.864,11.838Zm-0.312.031a0.568,0.568,0,0,1,.281.031A0.567,0.567,0,0,1,17.553,11.869Zm0.9,0a0.568,0.568,0,0,1,.281.031A0.567,0.567,0,0,1,18.457,11.869ZM17.49,11.9h0.062v0.031A0.106,0.106,0,0,1,17.49,11.9Zm1.247,0H18.8v0.031A0.107,0.107,0,0,1,18.737,11.9Zm-1.278.062a0.126,0.126,0,0,1,0,.156V11.963Zm1.341,0a0.126,0.126,0,0,1,0,.156V11.963Zm-1.309.156H18.8V12.15H18.769A3.562,3.562,0,0,1,17.49,12.119Zm-13.749,8.3a0.159,0.159,0,0,1,.031.094H3.741V20.421Zm0.031,0.156a0.159,0.159,0,0,1,.031.094H3.772V20.577Z" transform="translate(0 0.516)"/>
</svg>
