<?xml version="1.0" encoding="utf-8"?>
<!-- Generator: Adobe Illustrator 16.0.0, SVG Export Plug-In . SVG Version: 6.00 Build 0)  -->
<!DOCTYPE svg PUBLIC "-//W3C//DTD SVG 1.1//EN" "http://www.w3.org/Graphics/SVG/1.1/DTD/svg11.dtd">
<svg version="1.1" id="Layer_1" xmlns="http://www.w3.org/2000/svg" xmlns:xlink="http://www.w3.org/1999/xlink" x="0px" y="0px"
	 width="39.969px" height="40px" viewBox="0 0 39.969 40" enable-background="new 0 0 39.969 40" xml:space="preserve">
<path id="us_m6a1_ico" fill="#FFFFFF" d="M15.597,12.741c0.301,0.045,0.609,0.021,0.9-0.071c0.029-0.03,0.305-0.369,0.306-0.377
	c-0.015-0.054-0.023-0.109-0.024-0.165h0.047c0.028-0.018,0.061-0.026,0.094-0.024v-0.092c0.055-0.005,0.11-0.005,0.165,0
	c-0.022,0.035-0.03,0.077-0.024,0.118c0.021,0.016,0.045,0.024,0.071,0.024v0.071c-0.05,0.028-0.107,0.044-0.165,0.047
	c-0.013-0.013-0.029-0.021-0.047-0.024c0.336,0.101,0.69,0.125,1.037,0.071c0.125-0.058,0.265-0.074,0.4-0.047v-0.19
	c0.128-0.075,0.276-0.108,0.424-0.094c0.031,0.107,0.119,0,0.118,0.282c0.226,0,0.389,0.038,0.566,0.047
	c-0.01-0.121,0.08-0.228,0.201-0.238c0.02-0.001,0.039,0,0.059,0.003c0.168,0.279,0.265,0.248,0.707,0.235
	c0.035,0.025,0.075,0.041,0.118,0.047v-0.376c0.018-0.028,0.026-0.061,0.024-0.094L20.29,11.87v-0.282
	c-0.134-0.032-0.255-0.111-0.377-0.141c-0.16-0.003-0.319,0.02-0.471,0.07c-0.025,0.035-0.042,0.075-0.047,0.118h-0.126v-0.117
	c-0.295-0.069-0.6-0.085-0.9-0.047c-0.028,0.018-0.061,0.026-0.094,0.024c0.012-0.052,0.027-0.047,0-0.094
	c-0.043-0.021-0.093-0.03-0.141-0.024c-0.036,0.02-0.077,0.028-0.118,0.024v-0.189H17.93v-0.188h0.094v-0.236l0.613-0.024v-0.117
	c0.092-0.022,0.188-0.03,0.283-0.024c0.03,0.041,0.046,0.09,0.047,0.141c0.528,0,1.111,0.023,1.674,0.024v-0.047
	c-0.016-0.021-0.023-0.045-0.023-0.071h0.023c0.1,0.035,0.207,0.035,0.307,0v0.071c-0.014,0.013-0.021,0.029-0.024,0.047h0.166
	c0.012-0.019,0.028-0.035,0.047-0.047V10.6h0.095l0.023,0.259c0.131,0.035,0.266,0.051,0.4,0.047c0,0.025,0.008,0.05,0.023,0.071
	c0.036,0.02,0.077,0.028,0.118,0.024c0.037-0.064,0.021-0.059,0.118-0.071v0.024c-0.031,0.013-0.018,0-0.023,0.024
	c0.035,0.02,0.076,0.028,0.117,0.024c0.03-0.068-0.027-0.048,0.071-0.071c0.135,0.168,0.19-0.1,0.424,0
	c0.214,0.063,0.438,0.087,0.66,0.071c0.967,0,2,0.027,2.946,0.024v0.188c-0.95,0-1.991,0.022-2.971,0.024v0.071h-0.07
	c0.005,0.041-0.004,0.082-0.023,0.118v-0.121h-0.259c0.003,0.033-0.006,0.066-0.024,0.094c0-0.041-0.009-0.081-0.023-0.118
	l-0.236-0.024c-0.076,0.051-0.17,0.068-0.259,0.047v-0.046c-0.052-0.025-0.113-0.025-0.165,0c-0.01,0.059,0.014,0.037-0.071,0.047
	c0-0.071,0.007-0.069-0.118-0.071c-0.029,0.068,0.027,0.048-0.07,0.071c-0.039-0.068-0.034-0.066-0.142-0.071
	c-0.05,0.139-0.122,0.1-0.354,0.094c-0.073,0.17-0.097,0.357-0.071,0.541h-0.045c-0.055,0.033-0.2,0.013-0.259,0.047
	c0.054,0.151,0.069,0.313,0.047,0.471c0.481,0,0.753-0.458,1.272-0.165c-0.017,0.093-0.024,0.187-0.023,0.282
	c0.15,0.164,0.367,0.25,0.589,0.235c0.379,0.085,0.768,0.117,1.155,0.094c0.263,0.057,0.582,0,0.849,0.071
	c0.122,0.06,0.227,0.149,0.306,0.259c0.056,0.03,0.147,0,0.189,0.023c0.02,0.038,0.035,0.077,0.047,0.118
	c0.101-0.08,0.195-0.166,0.283-0.259c0.096,0.001,0.191,0.017,0.283,0.047c0.111,0.132,0.17,0.299,0.164,0.471
	c0.197,0.067,0.371,0.19,0.5,0.353c0.059,0.113,0.121,0.223,0.189,0.329h1.532v0.165c3.899-0.008,7.778,0.136,11.644,0.165v0.471
	c-0.179,0.031-0.361,0.039-0.541,0.023H38.27c-0.271,0.057-0.551,0.065-0.826,0.024l-2.026,0.023c-2.358,0-4.71,0.093-7.095,0.094
	v0.165h-1.529c-0.117,0.258-0.305,0.479-0.542,0.635c-0.167,0.038-0.321,0.119-0.448,0.235c-0.016,0.081-0.039,0.159-0.07,0.235
	c-0.072,0.046-0.215,0.006-0.283,0.047h0.02c0.153,0.083,0.33,0.108,0.5,0.071c0.195-0.103,0.42-0.136,0.637-0.094
	c0.399,0,0.799-0.047,1.248-0.047c0.143-0.014,0.285-0.006,0.424,0.024c0.201,0.078,0.254,0.347,0.449,0.424
	c0.088-0.051,0.184-0.091,0.282-0.118v0.047h-0.024c-0.064,0.042-0.137,0.074-0.211,0.094c0.149,0.116,0.291,0.242,0.424,0.377
	l0.141,0.306h0.5c-0.01-0.057-0.025-0.112-0.047-0.165c0.035-0.026,0.075-0.042,0.118-0.047c0.076,0.145,0.116,0.307,0.118,0.471
	c0.455,0.032,0.911,0.04,1.367,0.023l0.471-0.07l0.023,0.07h0.354v0.142h0.047c0.162-0.05,0.328-0.089,0.495-0.118
	c0.089-0.113,0.13-0.256,0.118-0.4c0.076-0.019,0.035,0.013,0.07-0.047c-0.031-0.031-0.049-0.073-0.047-0.118
	c0.036-0.005,0.068-0.021,0.094-0.047c0.018,0.002,0.035,0.01,0.047,0.023c0.031,0.12,0.119,0.218,0.236,0.259
	c0.012,0.246,0.094,0.482,0.236,0.682c0.015,0.092,0.047,0.18,0.094,0.26h0.307c0.1-0.021,0.203-0.029,0.306-0.023
	c0.394-0.053,0.792,0.029,1.132,0.235c0.001,0.069,0.025,0.136,0.071,0.188c-0.138,0.058-0.265,0.138-0.378,0.235
	c-0.26,0.165-0.52,0.314-0.777,0.471v0.023h0.047c0.073,0,0.146,0.017,0.212,0.047c0.011,0.064,0.044,0.123,0.095,0.165
	c0.032,0.001,0.064-0.007,0.094-0.022c0.049,0.069,0.082,0.149,0.094,0.234c0.094,0.082,0.195,0.154,0.307,0.212
	c0.006,0.047,0.006,0.095,0,0.142c0.053,0.064,0.116,0.121,0.188,0.164c-0.017,0.153,0.008,0.308,0.071,0.447
	c0.074,0,0.072,0.01,0.07,0.141c-0.125,0.101,0.068,0.188,0.047,0.282c-0.01,0.046-0.1,0.119-0.117,0.188
	c-0.005,0.134,0.004,0.268,0.023,0.4H35.35c-0.008,0.071,0.001,0.143,0.023,0.211c-0.131,0.115-0.184,0.28-0.307,0.4
	c0.033,0.057,0.041,0.014,0.024,0.071c-0.034,0.06,0.005,0.026-0.071,0.047v-0.022h-0.023v0.022
	c-0.035,0.043-0.075,0.082-0.118,0.118c0.021,0.02,0.036,0.044,0.047,0.07C34.867,23.008,34.8,23.016,34.736,23
	c-0.069,0.085-0.125,0.18-0.166,0.282c-0.125-0.005-0.145-0.019-0.211,0.071c-0.017,0.028-0.025,0.061-0.024,0.094
	c-0.03,0.012-0.062,0.021-0.094,0.023c-0.029-0.042-0.063-0.029-0.095,0c-0.076,0.025-0.143,0.074-0.188,0.142
	c-0.036,0.047,0.015,0.095-0.118,0.118c-0.013-0.031,0-0.018-0.023-0.023c-0.037,0.015-0.069,0.039-0.094,0.07
	c-0.035,0.041,0.028,0.031-0.047,0.072c-0.059,0.023-0.124,0.031-0.188,0.022c-0.047,0.019-0.109,0.09-0.165,0.118
	c0.004,0.041-0.005,0.082-0.024,0.117c-0.08,0.02-0.158,0.044-0.236,0.071c0.006,0.041,0.035,0.089-0.023,0.118l-0.118-0.023
	c-0.094,0.029-0.177,0.088-0.235,0.166c-0.014,0.029-0.021,0.062-0.024,0.094c-0.073-0.002-0.146,0.014-0.212,0.047
	c-0.015,0.051-0.039,0.1-0.071,0.141l-0.142-0.023c-0.066,0.032-0.13,0.072-0.188,0.117c-0.014,0.052-0.038,0.1-0.071,0.142
	c-0.037,0.015-0.08,0.015-0.117,0c-0.031,0.067-0.08,0.124-0.143,0.165c-0.117,0.001-0.229,0.053-0.306,0.141
	c-0.013,0.03-0.021,0.063-0.022,0.094c-0.027,0.012-0.051,0.028-0.072,0.047c-0.041-0.018-0.043-0.062-0.07-0.022
	c-0.07,0.048-0.127,0.112-0.165,0.188c-0.058-0.027-0.041-0.049-0.095-0.023c-0.09,0.007-0.17,0.061-0.211,0.141
	c-0.006,0.024-0.014,0.049-0.024,0.07c-0.088,0.027-0.175,0.059-0.259,0.094c0.014,0.041,0.004,0.086-0.024,0.118
	c-0.052-0.022-0.108-0.03-0.165-0.024c-0.074,0.051-0.145,0.105-0.212,0.166c0.001,0.04-0.007,0.08-0.022,0.117
	c-0.066-0.033-0.147-0.014-0.189,0.047c-0.005,0.025-0.014,0.049-0.023,0.071c-0.018,0.021-0.03,0.026-0.047,0.048
	c-0.043-0.024-0.094-0.033-0.142-0.024c-0.06,0.051-0.123,0.098-0.188,0.141c-0.002,0.032-0.01,0.065-0.024,0.095
	c-0.054,0.016-0.109,0.023-0.165,0.022c-0.037,0.063-0.085,0.118-0.141,0.165h-0.022c-0.108-0.055-0.24-0.035-0.33,0.047
	c-0.019,0.029-0.034,0.061-0.047,0.094c-0.123,0-0.132-0.009-0.283,0V27c-0.124-0.084-0.276-0.117-0.424-0.094
	C28.005,26.95,27.955,26.982,27.9,27c-0.137-0.2-0.143,0.047-0.307-0.023c-0.094-0.07-0.215-0.097-0.33-0.07
	c-0.039,0.017-0.029,0.109-0.141,0.07v-0.048c-0.139-0.054-0.166,0.101-0.283,0.048c-0.021-0.027-0.045-0.051-0.07-0.071
	c-0.136,0.013-0.27,0.036-0.4,0.071v-0.048c-0.096,0.007-0.19,0.022-0.283,0.048c-0.095-0.07-0.215-0.096-0.33-0.071
	c-0.039,0.017-0.029,0.11-0.141,0.071v-0.048c-0.143-0.055-0.178,0.106-0.307,0.048c-0.012-0.026-0.027-0.05-0.047-0.071
	c-0.143,0.015-0.284,0.038-0.424,0.071v-0.048c-0.131-0.05-0.141,0.101-0.259,0.048c-0.021-0.027-0.045-0.051-0.071-0.071h-0.261
	l-0.022,0.071c-0.053,0.016-0.109-0.004-0.143-0.048c-0.087,0.011-0.174,0.026-0.259,0.048c-0.009,0-0.056-0.066-0.071-0.071
	c-0.137,0.003-0.271,0.027-0.4,0.071c-0.045-0.04-0.105-0.058-0.164-0.048c-0.026,0.038-0.073,0.058-0.119,0.048
	c-0.008,0-0.055-0.066-0.07-0.071c-0.135,0.01-0.27,0.034-0.4,0.071v-0.048c-0.096,0.009-0.189,0.024-0.283,0.048
	c-0.084-0.072-0.198-0.099-0.306-0.071c-0.041,0.021-0.024,0.1-0.141,0.071c-0.044-0.043-0.106-0.061-0.165-0.048
	c-0.014,0.044-0.06,0.067-0.104,0.054c-0.005-0.002-0.01-0.004-0.015-0.006c-0.013-0.026-0.028-0.05-0.047-0.071h-0.354
	c0,0.075,0.027,0.057-0.072,0.071c-0.034-0.076-0.043-0.076-0.211-0.07c0.009,0.078,0.022,0.066-0.094,0.07
	c-0.031-0.067,0.026-0.049-0.072-0.07c-0.101-0.02-0.205-0.02-0.307,0c0,0.068,0.022,0.061-0.094,0.07c0-0.1-0.041-0.076-0.189-0.07
	c0,0.068,0.022,0.061-0.094,0.07c-0.031-0.069,0.023-0.057-0.094-0.07c-0.092-0.041-0.199-0.032-0.283,0.023
	c0.013,0.014,0.021,0.029,0.023,0.047H19.58c-0.034-0.076-0.028-0.074-0.189-0.07c0,0.07,0.008,0.068-0.118,0.07
	c0-0.088,0.028-0.058-0.071-0.07c-0.092-0.032-0.191-0.032-0.283,0c0,0.07,0.008,0.068-0.118,0.07
	c-0.032-0.076-0.01-0.076-0.164-0.07c0,0.07,0.008,0.068-0.118,0.07v-0.07c-0.125-0.014-0.251-0.014-0.377,0
	c0,0.068,0.022,0.061-0.094,0.07c-0.034-0.076-0.028-0.074-0.189-0.07c0,0.068,0.022,0.061-0.094,0.07
	c-0.03-0.067,0.027-0.049-0.071-0.07c-0.099-0.032-0.207-0.032-0.306,0v0.07c-0.092-0.032-0.187-0.056-0.283-0.07v0.07
	c-0.136-0.052-0.279-0.084-0.424-0.094c-0.013,0.064-0.075,0.107-0.14,0.095c0-0.001-0.001-0.001-0.001-0.001
	c-0.033-0.074-0.012-0.071-0.165-0.07c-0.07,0.154-0.129,0-0.212-0.023h-0.236c-0.006,0.01-0.014,0.018-0.024,0.023v0.07
	c-0.048,0.005-0.097-0.003-0.141-0.023v-0.047c-0.092-0.01-0.185,0.016-0.259,0.07c-0.043-0.114-0.171-0.1-0.33-0.094
	c-0.033,0.064-0.056,0.1-0.118,0.07c-0.056-0.035-0.122-0.052-0.188-0.047c-0.022,0.045-0.029,0.1-0.118,0.07
	c-0.021-0.032-0.045-0.064-0.071-0.094c-0.119-0.035-0.247,0.002-0.33,0.094c-0.08-0.02-0.159-0.043-0.236-0.07
	c-0.037,0.063-0.021,0.059-0.118,0.07c-0.08-0.097-0.211-0.135-0.33-0.094c-0.021,0.034-0.044,0.065-0.071,0.094
	c-0.06-0.064-0.15-0.092-0.236-0.07c-0.032,0.016-0.015,0.109-0.118,0.07c-0.021-0.032-0.045-0.064-0.071-0.094H12.91l-0.024,0.07
	c-0.095-0.01-0.189-0.025-0.283-0.047v0.047c-0.146-0.043-0.296-0.066-0.448-0.07l-0.024,0.07h-0.07
	c-0.06,0-0.043-0.039-0.071-0.047c-0.094,0.02-0.188,0.036-0.283,0.047c-0.013-0.025-0.028-0.049-0.047-0.07
	c-0.103-0.02-0.208-0.012-0.306,0.023v0.047c-0.074,0.003-0.146-0.014-0.212-0.047c-0.033,0.012-0.065,0.027-0.094,0.047
	c-0.125-0.058-0.263-0.082-0.4-0.07c-0.045,0.02-0.025,0.1-0.142,0.07c-0.043-0.043-0.105-0.061-0.165-0.047
	c-0.028,0.049-0.089,0.069-0.141,0.047c-0.043-0.045-0.103-0.07-0.165-0.07c-0.096,0.045-0.2,0.068-0.306,0.07v-0.047
	c-0.087,0.01-0.174,0.025-0.259,0.047c-0.009,0-0.055-0.066-0.071-0.07c-0.136,0.004-0.271,0.027-0.4,0.07l-0.03-0.047
	c-0.093,0.021-0.188,0.036-0.283,0.047v-0.047c-0.106-0.037-0.22-0.045-0.33-0.023c-0.04,0.021-0.008,0.1-0.118,0.07
	c-0.045-0.04-0.105-0.057-0.165-0.047C8.047,26.945,8,26.964,7.955,26.953l-0.047-0.07H7.606v0.07
	c-0.104-0.017-0.206-0.04-0.306-0.07c0,0.067,0.022,0.061-0.094,0.07c-0.048-0.105-0.172-0.076-0.377-0.07
	c0.009,0.078,0.024,0.067-0.094,0.07c-0.034-0.076-0.028-0.073-0.189-0.07c0.009,0.078,0.024,0.067-0.094,0.07v-0.07
	c-0.125-0.013-0.252-0.013-0.377,0c0,0.067,0.022,0.061-0.094,0.07c-0.034-0.076-0.028-0.073-0.189-0.07
	c0,0.067,0.022,0.061-0.094,0.07c-0.031-0.07,0.023-0.057-0.094-0.07c-0.092-0.031-0.191-0.031-0.283,0
	c0,0.067,0.022,0.061-0.094,0.07c-0.034-0.076-0.028-0.073-0.189-0.07c0,0.067,0.022,0.061-0.094,0.07
	c-0.038-0.094-0.139-0.144-0.236-0.118c-0.102-0.026-0.209-0.019-0.306,0.022c-0.023-0.064-0.064-0.121-0.118-0.164
	c-0.07,0.039,0,0.023-0.094,0.023c-0.037-0.176-0.198-0.296-0.377-0.281c-0.001-0.062-0.038-0.117-0.094-0.142
	c-0.015-0.01-0.072-0.008-0.118-0.022c-0.027-0.145-0.139-0.256-0.283-0.282c-0.021,0.015-0.045,0.023-0.071,0.023
	C3.208,25.937,3.16,25.865,3.104,25.8c-0.02,0.021-0.044,0.037-0.071,0.048c-0.022-0.025-0.046-0.049-0.071-0.072
	c0.019-0.012,0.035-0.027,0.047-0.047c-0.066-0.066-0.137-0.129-0.212-0.188c-0.047-0.004-0.094-0.004-0.141,0
	C2.605,25.5,2.65,25.47,2.633,25.447c-0.029-0.04-0.086-0.047-0.118-0.094c-0.056,0.032-0.014,0.039-0.071,0.023
	C2.378,25.25,2.27,25.15,2.138,25.095c-0.021,0.015-0.045,0.023-0.071,0.023c-0.015-0.017-0.03-0.032-0.047-0.047L2.043,25
	c-0.076-0.03-0.155-0.055-0.236-0.071c-0.06-0.05,0.011-0.213-0.236-0.259c-0.024-0.032-0.015,0.007-0.071,0.023
	c-0.031-0.08-0.08-0.152-0.141-0.213c-0.037,0.007-0.1,0.052-0.141,0v-0.093c-0.047-0.062-0.103-0.118-0.165-0.165
	c-0.046-0.008-0.094-0.008-0.141,0c-0.064-0.031-0.01-0.1-0.024-0.117c-0.043-0.067-0.148-0.071-0.189-0.142
	c-0.001-0.071-0.009-0.142-0.024-0.212c-0.03-0.011-0.062-0.02-0.094-0.023l0.024-0.095c-0.046-0.056-0.102-0.104-0.165-0.141
	c0.023-0.052,0.031-0.108,0.024-0.165c-0.061-0.031-0.098-0.095-0.095-0.163C0.422,23.128,0.45,23.064,0.44,23
	c-0.029-0.018-0.053-0.042-0.071-0.071c0.037-0.018,0.063-0.053,0.071-0.094l-0.071-0.022v-0.071c0-0.083,0.051-0.032,0.071-0.071
	c0.008-0.095,0-0.189-0.024-0.282c0.089-0.015,0.152-0.098,0.142-0.188c-0.122-0.124-0.167-0.305-0.118-0.472
	c0.003-0.051,0.043-0.091,0.094-0.094c0.15-0.055,0.313-0.07,0.471-0.047v-0.07H1.1c0.017-0.028,0.041-0.053,0.069-0.07
	c-0.005-0.032-0.013-0.063-0.024-0.094c-0.118-0.254-0.317-0.461-0.566-0.588h-0.28c-0.133-0.041-0.245-0.135-0.306-0.26
	c-0.011-0.163,0.084-0.315,0.236-0.377L0.323,19.8h-0.33v-0.518h0.212l0.024-0.071c0.03-0.041,0.046-0.09,0.047-0.141
	c-0.085,0.013-0.112,0.013-0.118-0.118c0.186-0.283,0.329-0.593,0.424-0.918c0.02-0.233,0.093-0.458,0.212-0.659
	c0.395-0.164,0.822-0.237,1.249-0.212c0.486-0.11,1.019-0.093,1.532-0.212c0.38-0.088,0.795-0.072,1.2-0.165
	c0.201-0.049,0.406-0.081,0.613-0.094v-0.045c-0.012-0.057-0.038-0.029,0.024-0.071c0.361-0.094,0.736-0.126,1.108-0.094
	c0-0.026,0.008-0.051,0.024-0.071c0.052-0.023,0.109-0.031,0.165-0.024c0,0.026,0.008,0.051,0.024,0.071
	c0.392-0.147,0.808-0.219,1.226-0.212c0,0.106-0.046,0.079,0.071,0.094c0.052-0.022,0.109-0.031,0.165-0.024
	c-0.001-0.1,0.042-0.195,0.118-0.259c0.094-0.051,0.2-0.076,0.306-0.071c0.047,0.044,0.08,0.102,0.094,0.165
	c-0.037,0.018-0.064,0.053-0.071,0.094h0.072c0.15-0.057,0.311-0.081,0.471-0.071l-0.024-0.118l0.071-0.024
	c0.25-0.092,0.513-0.14,0.778-0.141c0.015,0.038,0.023,0.078,0.024,0.118c-0.02,0.012-0.035,0.028-0.047,0.047h0.094
	c0.109-0.022,0.219-0.038,0.33-0.047c0.046-0.019,0.048-0.1,0.094-0.118l0.519-0.047c0.019-0.021,0.035-0.045,0.047-0.071
	c0.103-0.018,0.208-0.009,0.306,0.024c0.155-0.035,0.313-0.059,0.471-0.071V15.8l0.236-0.024c0.156,0.292,0.253,0.612,0.283,0.941
	c0.196-0.01,0.393-0.01,0.589,0v-0.07c0.067-0.022,0.131-0.054,0.189-0.094c0.352-0.092,0.724-0.067,1.061,0.071
	c0.018,0.028,0.026,0.061,0.024,0.094l0.613-0.024l0.071-0.188c0.095,0,0.129,0.013,0.165-0.047
	c-0.251-0.134-0.438-0.362-0.518-0.635v-0.706h-0.049c-0.245,0.178-0.549,0.254-0.848,0.212c-0.067-0.06-0.138-0.115-0.212-0.165
	c-0.114-0.114-0.191-0.264-0.306-0.377c0.014-0.172,0.014-0.346,0-0.518c0.053-0.234,0.186-0.442,0.377-0.588
	c0.104-0.025,0.206-0.057,0.306-0.094c0.242,0.088,0.506,0.097,0.754,0.024c0.018-0.271,0.046-0.552,0.047-0.871h0.684
	c-0.009-0.232-0.023-0.511-0.024-0.776c0.123-0.036,0.1-0.15,0.094-0.306c0.074-0.396,0.09-0.8,0.047-1.2V8.082
	c-0.039-0.36-0.03-0.724,0.024-1.082c0.013,0.013,0.021,0.029,0.024,0.047c0.034,0.131,0.042,0.267,0.024,0.4v0.94
	c0,1.181,0.026,2.409,0.024,3.553c0.123,0.205,0.157,0.452,0.094,0.682C15.601,12.659,15.593,12.7,15.597,12.741z M22.739,11.4
	c0.013,0.013,0.021,0.029,0.024,0.047h-0.024V11.4z M22.691,11.447h0.048v0.022C22.721,11.468,22.704,11.46,22.691,11.447
	L22.691,11.447z M23.068,11.447h0.048v0.022C23.098,11.468,23.082,11.459,23.068,11.447z M22.503,11.47
	c0.063-0.009,0.13,0,0.188,0.024C22.628,11.503,22.563,11.495,22.503,11.47L22.503,11.47z M23.116,11.47
	c0.063-0.009,0.129,0,0.188,0.024C23.241,11.503,23.176,11.495,23.116,11.47L23.116,11.47z M18.237,11.494h0.047v0.024
	C18.266,11.516,18.25,11.507,18.237,11.494z M22.409,11.494h0.047v0.024C22.438,11.516,22.422,11.507,22.409,11.494z M23.352,11.494
	h0.047v0.024C23.381,11.516,23.363,11.507,23.352,11.494L23.352,11.494z M23.398,11.518c0.014,0.013,0.021,0.029,0.024,0.047h-0.024
	V11.518z M22.385,11.542c0.029,0.042,0.029,0.099,0,0.141V11.542L22.385,11.542z M22.432,11.66h0.99v0.024
	c-0.013,0.013-0.021,0.029-0.023,0.047C23.074,11.777,22.745,11.752,22.432,11.66L22.432,11.66z M13.593,13.613h0.047v0.023h-0.047
	V13.613L13.593,13.613z M13.074,14.225c0.013,0.013,0.021,0.029,0.024,0.047h-0.023L13.074,14.225L13.074,14.225z M13.098,14.531
	c0.013,0.013,0.021,0.029,0.024,0.047h-0.024v-0.049V14.531z M9.091,16.035h0.047v0.024C9.12,16.057,9.104,16.048,9.091,16.035z"/>
</svg>
