<?xml version="1.0" encoding="utf-8"?>
<!-- Generator: Adobe Illustrator 16.0.0, SVG Export Plug-In . SVG Version: 6.00 Build 0)  -->
<!DOCTYPE svg PUBLIC "-//W3C//DTD SVG 1.1//EN" "http://www.w3.org/Graphics/SVG/1.1/DTD/svg11.dtd">
<svg version="1.1" id="Layer_1" xmlns="http://www.w3.org/2000/svg" xmlns:xlink="http://www.w3.org/1999/xlink" x="0px" y="0px"
	 width="40px" height="40px" viewBox="0 0 40 40" enable-background="new 0 0 40 40" xml:space="preserve">
<path id="Color_Fill_1" fill="#FFFFFF" d="M22.794,9.963c1.386,0.1,3.063,0.12,4.5,0.1c0.03,0.08,0.046,0.164,0.049,0.249
	c-0.989-0.008-3.335-0.176-3.708,0.249v-0.15h-0.3c0.006,0.07-0.011,0.141-0.049,0.2v-0.2c-0.149-0.004-0.3,0.012-0.445,0.05v2.59
	c0.229,0.007,0.451,0.076,0.644,0.2c-0.036,0.113-0.053,0.23-0.051,0.349c0.283-0.002,0.566,0.031,0.842,0.1
	c0.211,0.052,0.572-0.095,0.691-0.05l0.15,0.25c0.514,0.154,1.046,0.238,1.582,0.249v-0.3c0.408,0.088,0.82,0.154,1.236,0.199V13.5
	c0.302-0.1,0.622-0.134,0.938-0.1c0.372,0.09,0.759,0.106,1.137,0.05c-0.056,0.276-0.003,0.563,0.148,0.8
	c-0.156,0-0.066-0.084-0.148,0.051c0.086,0.107,0.21,0.18,0.347,0.199v-0.1c-0.123-0.064-0.034,0.021-0.101-0.1h0.101
	c0.057,0.051,0.093,0.123,0.1,0.199H31.1V14.6h-0.593c-0.042-0.032-0.095-0.05-0.147-0.05v0.199c1.529,0,3.1,0,4.846,0V15
	c0.6,0,0.91-0.101,1.482-0.101c0.101-0.3,0.472-0.2,0.84-0.2H40v0.1l-0.2,0.101v1.241c0.075,0.057,0.144,0.124,0.2,0.199h-3.264
	c-0.077-0.267-0.356-0.22-0.691-0.199c-0.26-0.131-0.557-0.166-0.84-0.1v0.25h-2.424c-0.38,0.031-0.762,0.016-1.137-0.051
	c-0.041,0.162,0.023,0.076-0.101,0.149c-0.882-0.143-1.779-0.177-2.67-0.101c0.013,0.1,0.013,0.201,0,0.301
	c-0.239,0.033-0.464,0.138-0.644,0.3H26.8c-0.032,0.097-0.05,0.198-0.049,0.3c0.284,0.008,0.567-0.026,0.841-0.1h0.643
	c0.126-0.096,0.26-0.18,0.4-0.25c0.423-0.052,0.852,0.018,1.236,0.201v0.199c-0.031,0.043-0.049,0.096-0.049,0.149h-0.2v0.05
	c0.026,0.027,0.044,0.063,0.049,0.1c0.228,0.05,0.46,0.066,0.692,0.051v0.3h0.049l0.247-0.3c-0.026,0.184-0.01,0.371,0.049,0.547
	c0.071-0.127-0.011-0.055,0.147-0.1c0.138,0.116,0.287,0.217,0.445,0.301c0.035,0.24,0.103,0.477,0.2,0.699
	c0.382,0.301,0.583-0.058,0.89,0c0.383,0.128,0.785,0.179,1.188,0.149v-0.05c-0.041-0.025-0.075-0.06-0.1-0.101h0.246
	c0.213,0.448,0.75,0.086,1.088,0.2c0.029,0.053,0.063,0.103,0.101,0.148c0.095,0.021,0.192-0.02,0.247-0.1
	c0.111,0.046,0.227,0.08,0.346,0.1c0.014-0.086,0.069-0.161,0.148-0.199l0.05,0.4c0.38-0.029,0.769-0.142,0.791,0.349
	c-0.114,0.015-0.22,0.067-0.3,0.149c0.174,0.022,0.334,0.111,0.445,0.248c-0.115,0.129-0.199,0.282-0.248,0.448
	c0.155,0.078,0.558,0.217,0.494,0.5c-0.125,0.113-0.181,0.283-0.147,0.449c0.034,0.092,0.211,0.285,0.247,0.4
	c0.141,0.766-0.27,1.527-0.986,1.832c-0.943,0.629-1.91,1.137-2.868,1.742c-0.596,0.484-1.263,0.869-1.978,1.146
	c-1.216,0.133-2.441,0.15-3.659,0.051H10.68L8.7,26.852C8.165,26.646,7.666,26.359,7.219,26c-0.676-0.43-1.35-0.766-2.027-1.199
	C4.87,24.6,4.534,24.301,4.2,24.111c-0.221-0.125-0.626,0.064-0.89-0.051c-0.107-0.092-0.208-0.191-0.3-0.299
	c-0.214-0.156-0.425-0.244-0.643-0.4c-0.428-0.34-0.781-0.764-1.038-1.246c-0.075-0.25-0.192-0.486-0.346-0.699H0.3v0.699H0.148
	C0.124,21.766,0.075,21.416,0,21.072c0.239-0.063,0.438-0.227,0.544-0.447c-0.17-0.463-0.115-0.979,0.148-1.396
	c0.038-0.034,0.11-0.065,0.148-0.101c-0.053,0.001-0.105-0.017-0.148-0.05c0.135-0.052,0.254-0.137,0.346-0.249l0.247,0.051
	c0.358-0.197,0.705-0.413,1.038-0.648c-0.027-0.1-0.081-0.043,0-0.1c0.091-0.491,0.435-0.265,0.494-0.7
	c0.163-0.044,0.328-0.078,0.494-0.101c0.035,0.111,0.132,0.189,0.247,0.2c0.048-0.013,0.019-0.039,0.049,0
	c0.051-0.056,0.1-0.141,0.148-0.2L4,17.386c0-0.055,0.017-0.106,0.049-0.149L4.5,17.087v-0.051H4.153v-0.3l1.582,0.05v0.2
	c0.366-0.042,0.736-0.008,1.088,0.101c0.509-0.216,1.087-0.197,1.582,0.049c0.291,0.134,0.546-0.334,0.938-0.148
	c0.403,0.182,0.853,0.233,1.286,0.148c0.253,0.092,0.523,0.126,0.791,0.101l0.049-0.149c0.142-0.076,0.112,0.129,0.148,0.149h0.4
	c0.266-0.007,0.161-0.057,0.247-0.101c0.343-0.053,0.691-0.069,1.038-0.049v0.1c-0.053,0-0.105,0.018-0.147,0.05H13.3
	c0.246-0.26,0.655,0.14,0.791-0.149c-0.16-0.058-0.299-0.162-0.4-0.3c-0.163,0.033-0.331,0.033-0.494,0
	c0-0.054-0.018-0.106-0.05-0.148c-0.446-0.169-0.911-0.286-1.384-0.349c-0.162,0.145-0.376,0.217-0.593,0.199
	c-0.177-0.078-0.343-0.18-0.494-0.3h-0.441c-0.2-0.083-0.456-0.315-0.692-0.399l0.049-0.149c-0.296-0.05-0.552-0.235-0.692-0.5
	c0.04-0.272,0.106-0.541,0.2-0.8c0.1-0.088,0.262-0.152,0.346-0.25l0.049-0.249c0.147-0.1,0.281-0.217,0.4-0.349
	c-0.054,0.001-0.106-0.017-0.148-0.05c0.488-0.072,0.968-0.188,1.434-0.349c0.357-0.024,0.715,0.044,1.038,0.2v0.1
	c0.042,0.076,0.059,0.163,0.05,0.249l0.4-0.05l0.049-0.149c0.063-0.142,0.11-0.292,0.137-0.445c0.688-0.104,1.381-0.171,2.077-0.2
	c0.295-3.94,0.145-8.515,0.148-12.7h0.1v12.155c0.027,0.027,0.044,0.062,0.05,0.1h0.049c0.424-0.652,3.408-0.565,3.807,0.05
	c0.684-0.175,1.313-0.519,1.829-1c0.072,0.054,0.157,0.089,0.247,0.1c0.019-0.133,0.019-0.267,0-0.4h-0.791v-0.4
	c-0.215-0.009-0.379-0.119-0.544-0.1c-0.208,0.073-0.424,0.123-0.643,0.149c-0.338-0.162-0.719-0.214-1.088-0.149
	c-0.043,0.032-0.095,0.049-0.148,0.05c0-0.138,0.057-0.108-0.148-0.149c-0.042,0.032-0.094,0.049-0.148,0.05v-0.244
	c-0.053,0-0.105-0.018-0.148-0.05c0.054-0.179,0.138-0.348,0.247-0.5c0.209,0.064,0.434,0.064,0.643,0V9.614
	c0.241,0.026,0.475,0.094,0.692,0.2c0.56,0.043,1.122,0.043,1.682,0c0.006-0.209,0.086-0.162,0.399-0.15v0.15
	c0.054,0,0.105-0.017,0.147-0.05c0.037-0.06,0.055-0.13,0.05-0.2h0.147v0.3c0.385,0.111,0.789,0.146,1.188,0.1V0h0.049v0.05
	c0.118,0.892,0.135,1.794,0.05,2.69v7.223H22.794z M18.047,10.063c-0.005-0.069-0.022-0.137-0.05-0.2
	c-0.065,0.018-0.135,0.018-0.2,0v0.05c0.123,0.083,0.049,0.008,0,0.149h0.247L18.047,10.063z M17.899,9.963H18v0.05
	C17.962,10.008,17.927,9.99,17.899,9.963L17.899,9.963z M18.146,10.212c0.355,0.104,0.733,0.104,1.088,0H18.146z M17.8,10.312v0.149
	h0.247v-0.149H17.8z M21.607,12.105c-0.717,0.018-1.41,0.263-1.979,0.7c0.075,0.12,0.205,0.195,0.346,0.2
	c0.062-0.139,0.194-0.234,0.346-0.249V12.8h0.049c0,0.151,0.05,0.335,0.05,0.648h0.148c0.041-0.162-0.024-0.076,0.1-0.149
	c0.174,0.159,0.418,0.216,0.643,0.149V13.4h0.049c-0.031-0.217-0.014-0.438,0.05-0.648c0.157-0.056,0.325-0.074,0.491-0.052
	c0.088,0.204,0.122,0.427,0.1,0.648h-0.05V13.4h0.399c0.095-0.089,0.195-0.172,0.301-0.249v-2.64
	c-0.342-0.064-0.691-0.081-1.039-0.05c-0.026,0.027-0.062,0.044-0.1,0.05v0.648C21.623,11.461,21.655,11.787,21.607,12.105z
	 M23.041,10.611c0.07-0.006,0.141,0.012,0.2,0.05C23.171,10.667,23.1,10.649,23.041,10.611z M23.732,10.611
	c0.086-0.01,0.172,0.008,0.248,0.05C23.895,10.67,23.809,10.653,23.732,10.611z M24.079,10.711c0.031,0.043,0.049,0.095,0.049,0.149
	h-0.049V10.711L24.079,10.711z M22.893,10.86c0.395-0.06,0.798-0.043,1.187,0.05C23.684,10.961,23.283,10.945,22.893,10.86
	L22.893,10.86z M19.431,12.8c0.027,0.027,0.062,0.044,0.1,0.05C19.504,12.823,19.469,12.805,19.431,12.8z M21.854,13.4v-0.548
	c-0.111-0.036-0.229-0.053-0.346-0.05c-0.043,0.179-0.06,0.364-0.049,0.548C21.587,13.388,21.721,13.405,21.854,13.4z M9.691,13.5
	c0.023,0.106,0.047,0.052-0.049,0.149V13.7h-0.05C9.614,13.628,9.647,13.561,9.691,13.5z M9.491,13.7h0.1v0.05h-0.1V13.7z
	 M9.391,13.75h0.1v0.05c-0.037-0.006-0.071-0.024-0.097-0.051L9.391,13.75z M30.157,14.25h0.1V14.3
	c-0.037-0.007-0.071-0.025-0.096-0.054L30.157,14.25z M29.712,14.65c0.106,0.064,0.239,0.064,0.347,0h-0.343H29.712z M37.623,15.25
	c-0.082,0.187-0.158,0.383,0.049,0.5c0.026-0.17,0.012-0.344-0.045-0.506L37.623,15.25z M38.563,15.3
	c-0.028,0.114-0.045,0.23-0.049,0.349c0.025,0.027,0.043,0.063,0.049,0.101h0.049v-0.457h-0.049V15.3z M12.654,16.046
	c-0.027,0.027-0.062,0.045-0.1,0.051v0.05c0.137,0.014,0.272,0.048,0.4,0.1c-0.062-0.11-0.171-0.187-0.296-0.206L12.654,16.046z
	 M26.254,17.147v-0.2c0.116-0.006,0.225-0.061,0.301-0.148h-0.4c-0.072,0.061-0.14,0.127-0.2,0.199
	c-0.011,0.052-0.026,0.102-0.049,0.149c-0.05,0.034-0.2,0.063-0.247,0.1c0.25,0.07,0.519,0.034,0.742-0.1H26.254L26.254,17.147z
	 M4.548,17.046l0.052,0.14h0.1v-0.101H4.648c-0.027-0.025-0.062-0.043-0.099-0.049L4.548,17.046z M7.416,17.046
	c0.131,0.086,0.29,0.122,0.445,0.101v-0.05H7.812v-0.051h-0.4H7.416z M32.188,19.189c0.195,0.113,0.432,0.131,0.643,0.05
	L32.188,19.189z M33.077,19.289c0.09,0.064,0.21,0.064,0.3,0H33.077z M33.477,19.339c0.125,0.069,0.276,0.069,0.4,0H33.477z
	 M34.021,19.389c0.252,0.1,0.528,0.116,0.791,0.05L34.021,19.389z M34.96,19.439c0.086,0.103,0.235,0.124,0.347,0.05
	c-0.115-0.032-0.231-0.052-0.35-0.062L34.96,19.439z M35.455,19.439c0.027,0.027,0.063,0.045,0.1,0.05
	c-0.026-0.032-0.063-0.054-0.104-0.062L35.455,19.439z M36.395,19.739v0.101h0.045v-0.101h-0.049H36.395z M34.516,19.888
	c0.139,0.07,0.305,0.07,0.444,0h-0.448H34.516z M35.01,19.938c0.141,0.07,0.305,0.07,0.445,0h-0.449H35.01z M35.555,19.988
	c0.09,0.063,0.209,0.063,0.299,0H35.555z M35.8,21.969v0.1h0.148V22.02L35.8,21.969z M36.1,22.219c0,0.105,0.014,0.211,0.101,0.1
	c-0.05-0.037-0.063-0.063-0.106-0.1H36.1z M32.738,24.061v0.748h0.049c0.418-0.381,2.133-1.014,2.324-1.396
	c-0.147-0.113-0.315-0.197-0.495-0.248c-0.13,0.34-0.332,0.646-0.593,0.9h-1.291L32.738,24.061z M35.309,23.16
	c-0.016,0.07,0.07,0.072,0.101,0.102c0.026-0.051-0.093-0.082-0.109-0.098L35.309,23.16z M7.027,24.061H5.834v0.051h0.1
	c0.308,0.287,0.681,0.492,1.088,0.6V24.66c-0.066-0.193-0.066-0.404-0.001-0.6H7.027z M11.774,24.061
	c0.047,0.73-0.203,1.449-0.692,1.994h1.879V26c-0.561-0.479-0.824-1.219-0.692-1.943h-0.501L11.774,24.061z M17.015,24.061
	c0.051,0.732-0.199,1.451-0.692,1.994H18V26c-0.554-0.482-0.816-1.219-0.692-1.943h-0.3L17.015,24.061z M22.059,24.061
	c0.084,0.736-0.171,1.469-0.692,1.994h2.077V26c-0.559-0.48-0.821-1.219-0.692-1.943h-0.699L22.059,24.061z M27.497,24.061
	c0.054,0.732-0.196,1.453-0.692,1.994h1.879V26c-0.559-0.479-0.822-1.219-0.691-1.943h-0.501L27.497,24.061z"/>
</svg>
