<svg xmlns="http://www.w3.org/2000/svg" width="40" height="40" viewBox="0 0 40 40">
  <defs>
    <style>
      .cls-1 {
        fill: #fff;
        fill-rule: evenodd;
      }
    </style>
  </defs>
  <path id="Color_Fill_1" data-name="Color Fill 1" class="cls-1" d="M15.569,13.1a0.238,0.238,0,0,1-.049.147,0.529,0.529,0,0,1-.294.049,3.372,3.372,0,0,0-1.42,0c-1.279.01-1.795,0.089-3.084,0.1a1.82,1.82,0,0,0-.049.54H10.379c0,0.748.1,1.21,0.1,1.916a0.791,0.791,0,0,0,.979-0.442,0.321,0.321,0,0,1,0-.295,0.323,0.323,0,0,0,.392-0.295,0.672,0.672,0,0,0-.049-0.2h0.147a1.893,1.893,0,0,0,.245.442c0.033,0.018.677-.1,0.979-0.1a0.413,0.413,0,0,1,.049-0.246v0.246l0.294,0.049a0.542,0.542,0,0,1,.294-0.344v0.049c0.125,0.072.1,0.1,0.1,0.295,0.035,0.076.006,0.007,0,.147H14a3.059,3.059,0,0,1,.734.1v0.2a1.872,1.872,0,0,1,.636.148v0.2l0.2,0.049a1.384,1.384,0,0,1,.294-0.737,1.5,1.5,0,0,0,.147.737,0.646,0.646,0,0,0,.343.049V15.7H16.108a2.4,2.4,0,0,1-.1-0.983h0.1a2.066,2.066,0,0,0,.049.835,2.212,2.212,0,0,0,.881.049c0.063-.121-0.021-0.034.1-0.1v0.2H16.891v0.2c0.517,0,.547-0.181,1.028-0.2a1.227,1.227,0,0,0,.2.246v0.295a1.357,1.357,0,0,1,.441.1,0.594,0.594,0,0,1,.392-0.393V16H19a1.546,1.546,0,0,0-.245.54H18.9l0.049,0.295h0.147a0.319,0.319,0,0,0,.392.344,0.329,0.329,0,0,0,.2.049c0-.437.089-0.59,0.1-0.983h0.2v0.393a1.74,1.74,0,0,1,.832.2,1.309,1.309,0,0,0,1.322.688,0.416,0.416,0,0,0,.343.1v0.2c-0.159.041-.075-0.024-0.147,0.1H35.838a2.092,2.092,0,0,0,1.126-.049,4.508,4.508,0,0,0,1.224-.246l1.518-.049a1.472,1.472,0,0,0,.245.393,1.766,1.766,0,0,1-.049.737c-0.148.5-.988,0.365-1.616,0.344C37.87,18.724,37.3,18.963,36.72,18.8a12.656,12.656,0,0,0-2.938-.1c-3.778.011-7.61,0.094-11.456,0.1l-0.049.295a2.832,2.832,0,0,1-.881.1,1.736,1.736,0,0,1-1.518.884,1.91,1.91,0,0,0-.049-0.442H19.682a0.507,0.507,0,0,1-.294.1,2.6,2.6,0,0,0,.1.393,2.808,2.808,0,0,0,.783.049,1.679,1.679,0,0,0,.881-0.147,0.284,0.284,0,0,1,.2.1c0.23,0.049.16-.107,0.245-0.147l0.392,0.049v0.147h0.1a1.827,1.827,0,0,0,1.028.2V20.319H23.06a1.126,1.126,0,0,0-.147-0.295H23.06a0.744,0.744,0,0,1,.1.2h0.049v-0.1c0.043-.055.049,0.049,0.049,0.049a0.7,0.7,0,0,1,.392.393,0.54,0.54,0,0,0,.294-0.147v0.147a0.352,0.352,0,0,0-.1.2,0.915,0.915,0,0,1,.441.393,0.419,0.419,0,0,1,.588.1c0.091,0.124.059,0.4,0.147,0.541a0.349,0.349,0,0,0,.2.1V21.745a1.138,1.138,0,0,1-.2-0.147V21.548h0.049a0.636,0.636,0,0,1,.392-0.147v0.1a0.376,0.376,0,0,1,0,.295c0.155,0,.066-0.083.147,0.049a0.251,0.251,0,0,1,.049.147h0.2A1.237,1.237,0,0,0,25.9,21.6a0.517,0.517,0,0,1-.147-0.344,0.236,0.236,0,0,1,.147.049,0.871,0.871,0,0,1,.147.737,0.678,0.678,0,0,0-.294.393,0.2,0.2,0,0,1,.1.2h1.273v0.2l-1.273.049v0.049h0.1a5.1,5.1,0,0,0,1.077.934c0.483,0.169.885-.16,1.322,0.049a3.577,3.577,0,0,1,1.616,2.064,0.429,0.429,0,0,0-.441.1,1.668,1.668,0,0,1-.245,1.327,4.27,4.27,0,0,1-1.126.884,9.954,9.954,0,0,1-2.2,1.572,7.127,7.127,0,0,1-2.056.1H7.589L6.169,29.9a12.676,12.676,0,0,1-2.4-1.229c-1.141-.6-2.664-0.829-2.644-2.6C0.69,26.076.448,26.2,0,26.216V26.167c0.26-.375.3-0.836,0.588-1.278A1.13,1.13,0,0,0,.979,24.1a0.775,0.775,0,0,0,.245-0.295H0.93a0.738,0.738,0,0,0-.539,0v-0.2A2.378,2.378,0,0,0,.539,22.58c-0.13-.058-0.231-0.082-0.1-0.147,0.063-.121-0.021-0.033.1-0.1a4.473,4.473,0,0,0,.734.1V22.187h0.1s0.01,0.192.049,0.1v-0.1a1.364,1.364,0,0,0,.1-0.54H1.763A1.132,1.132,0,0,1,1.909,21.4a3.716,3.716,0,0,1,.685-0.049l0.049,0.1a1.014,1.014,0,0,0,.539.147V21.45A2.024,2.024,0,0,1,3.917,21.2a0.7,0.7,0,0,0,.734.1,3.6,3.6,0,0,1,1.714-.2c0.346,0.018.584-.221,0.734-0.147V20.516c0.283-.038.1-0.072,0.245-0.147a6.773,6.773,0,0,1,1.028-.2c0.554-.13,1.277.116,1.763-0.049V20.074H10.086c-0.16-.4-0.669-0.281-1.126-0.393-0.774-.19-1.707-0.354-2.4-0.541-0.017-.061-0.221-0.848-0.245-0.884-0.325-.183-0.916.18-0.979-0.295a0.534,0.534,0,0,0,.049-0.295,0.833,0.833,0,0,1-.539-0.786,1.208,1.208,0,0,1,.392-0.688C5.6,15.923,6.45,16.31,6.952,15.9c0.133,0,.127.105,0.2-0.049a1.484,1.484,0,0,0,.1-0.885,0.486,0.486,0,0,1,.049-0.442A9.815,9.815,0,0,0,7.442,16a0.24,0.24,0,0,1,.245.1H8.274l0.049-.147H8.372a0.578,0.578,0,0,1,.441.1L9.694,16a3.381,3.381,0,0,0,.049-0.344l0.2-.1a15.7,15.7,0,0,0,0-1.622H9.694V13.686l-0.147-.049c-0.369-.286-0.494,0-0.783.049-0.1.015-.063-0.031-0.1-0.049-0.241-.126-0.886,0-1.077-0.1a0.167,0.167,0,0,0,.1-0.049,0.9,0.9,0,0,0-.294-0.049A0.626,0.626,0,0,1,7.442,12.8a2.867,2.867,0,0,0,.245.2,0.236,0.236,0,0,0-.147.049h0.2v-0.1a0.536,0.536,0,0,1-.147-0.1,0.792,0.792,0,0,0,.441-0.2,1.044,1.044,0,0,1,.588.2H9.988a0.238,0.238,0,0,1,.049-0.147,0.423,0.423,0,0,0,.245.049A11.892,11.892,0,0,1,10.331,10h0.049v1.572a3.083,3.083,0,0,0,0,1.278l0.147-.049c0.041-.159-0.024-0.075.1-0.147,0.023,0.466.816,0.318,1.273,0.295a2.805,2.805,0,0,0,1.224.1C13.887,13.049,14.737,13.1,15.569,13.1ZM7.05,10.246a3.151,3.151,0,0,1,.1,1.474H7.1A8.294,8.294,0,0,0,7.05,10.246Zm0.1,1.474a2.866,2.866,0,0,1,0,1.425V11.72Zm0.636,1.474a1.563,1.563,0,0,0,.93,0H7.785ZM7.2,13.243a2.468,2.468,0,0,1,0,1.278V13.243ZM7.54,13.292v0.1c0.175-.021.123,0.023,0.2-0.1H7.54Zm4.26,0.442a2.638,2.638,0,0,1,1.028.049A2.638,2.638,0,0,1,11.8,13.735ZM14.884,15.5a1.017,1.017,0,0,0,.294.2V15.6a0.3,0.3,0,0,1-.1-0.1h-0.2Zm2.84,0.344v0.295a0.689,0.689,0,0,0,.2.049v-0.1C18,16.007,17.85,15.889,17.723,15.848ZM8.372,16v0.1A1.91,1.91,0,0,0,8.715,16H8.372Zm-2.056.2c-0.038.034-.109,0.064-0.147,0.1h0.1a0.524,0.524,0,0,0,.2.246,1.067,1.067,0,0,1,.1-0.344H6.316Zm0,1.278c0.016,0.109-.051.053,0.049,0.1a0.139,0.139,0,0,1,.049-0.049A0.176,0.176,0,0,0,6.316,17.469Zm-0.49.2v0.148H5.973V17.666H5.826Zm33.146,0.148a1.438,1.438,0,0,0-.147.934h0.1a1.11,1.11,0,0,0,.587.049V17.912a0.3,0.3,0,0,1-.1-0.1H38.972Zm-0.587.049a0.428,0.428,0,0,0-.49.2,0.9,0.9,0,0,0,0,.59,0.815,0.815,0,0,0,.49.1A7.859,7.859,0,0,0,38.384,17.862ZM21.836,20.221l0.049,0.147h0.049V20.221h-0.1Zm1.42,0.049c0.047,0.131-.044.115,0.1,0.2,0.08-.1.057,0.035,0.1-0.1A0.655,0.655,0,0,1,23.256,20.27Zm-13.219.049a0.176,0.176,0,0,0,.1.049A0.176,0.176,0,0,0,10.037,20.319Zm13.219,0.295a0.371,0.371,0,0,0,.245.2V20.762ZM23.6,20.958a6.223,6.223,0,0,0,.441.442A1.446,1.446,0,0,0,23.6,20.958ZM24.48,21.3a0.791,0.791,0,0,0,.245.2V21.351A0.767,0.767,0,0,0,24.48,21.3ZM1.371,22.383v0.1H1.42A0.169,0.169,0,0,0,1.371,22.383ZM26,23.317a0.916,0.916,0,0,0,.245.147A0.249,0.249,0,0,0,26,23.317Zm0.441,0.295v0.147a0.518,0.518,0,0,0,.245.1v-0.1A0.8,0.8,0,0,1,26.438,23.612ZM3.917,27.2a1.4,1.4,0,0,1-.392.295,0.176,0.176,0,0,0,.1.049,6.556,6.556,0,0,0,1.665.737,2.026,2.026,0,0,1,.294-0.835H4.357A1.376,1.376,0,0,0,3.917,27.2Zm8.372,0.246a0.933,0.933,0,0,0,.294.491,0.97,0.97,0,0,1,.245-0.491H12.289Zm7.05,0a1.56,1.56,0,0,1,.1,1.622h0.636v-0.1a1.388,1.388,0,0,1,.1-1.523H19.339Zm8.078,0.147c-0.241.041-.434,0.247-0.539,0.246a0.672,0.672,0,0,1-.049-0.344,1.411,1.411,0,0,0-.441-0.049v0.049a2.827,2.827,0,0,1,.343.737,2.566,2.566,0,0,1,.686-0.491V27.592Zm0.2-.147c0.084,0.043.063,0.044,0.147,0H27.613Zm-4.994.246c-0.04-.159.024-0.075-0.1-0.147a0.379,0.379,0,0,0-.147.147h0.049V27.74A0.688,0.688,0,0,1,22.619,27.69Zm1.371-.147-0.049.147a1.007,1.007,0,0,0,.294,0V27.641A1.263,1.263,0,0,0,23.99,27.543Zm-7.3.786a3.014,3.014,0,0,0-1.224,0,2.3,2.3,0,0,1-.2.737h1.616v-0.1A0.72,0.72,0,0,1,16.7,28.329Zm-7.05.737a1.569,1.569,0,0,0-.294-0.737,1.685,1.685,0,0,0-.93,0,4.794,4.794,0,0,1-.245.737H9.645Zm12.876-.737a2.034,2.034,0,0,1-.2.737h1.909v-0.1a0.93,0.93,0,0,1-.2-0.639A5.213,5.213,0,0,0,22.521,28.329Zm-10.037.344a1.02,1.02,0,0,1-.147.393H12.73V29.017A1.2,1.2,0,0,0,12.485,28.673Z" transform="translate(0 0.016)"/>
</svg>
