<svg xmlns="http://www.w3.org/2000/svg" width="39.969" height="40" viewBox="0 0 39.969 40">
  <defs>
    <style>
      .cls-1 {
        fill: #fff;
        fill-rule: evenodd;
      }
    </style>
  </defs>
  <path id="Color_Fill_1" data-name="Color Fill 1" class="cls-1" d="M12.5,21.658l0.344-.049a0.592,0.592,0,0,1,.246.3H12.841v0.3a5.737,5.737,0,0,0,.689.049l0.148-.4a0.321,0.321,0,0,0,.049.2v-0.1c0.156-.091.154-0.14,0.148-0.4a23.54,23.54,0,0,0,2.411-.05,6.556,6.556,0,0,1,0-.841,1.018,1.018,0,0,0,.443-0.049,0.254,0.254,0,0,0,.049-0.149,0.618,0.618,0,0,1,.2.05c-0.02.112-.045,0.054,0,0.148a0.177,0.177,0,0,1,.1-0.049v-0.05a0.3,0.3,0,0,1-.1-0.1,1.316,1.316,0,0,1,.541-0.148,2.842,2.842,0,0,0,.246.148h1.476a0.851,0.851,0,0,1,.148-0.148c0.02,0.177-.023.125,0.1,0.2a3.9,3.9,0,0,0,.935.049,14.689,14.689,0,0,0,2.9.1v0.149a22.8,22.8,0,0,0-2.558.049v0.148h0.246v0.05H20.959c-0.038.034-.11,0.065-0.148,0.1a0.633,0.633,0,0,1,.344.049c-0.561.007-1.194,0.048-1.82,0.05v0.247H19.287c-0.117-.076-0.4.035-0.541-0.049a1.323,1.323,0,0,0-.1-0.2,3.618,3.618,0,0,0-.935,0,5.02,5.02,0,0,0-.689.445,0.466,0.466,0,0,1,0,.3,0.743,0.743,0,0,1,.3.1,0.24,0.24,0,0,1,.049-0.149v0.3c0.218,0.025.177,0.07,0.394,0.1,0.055-.166.056-0.164,0.246-0.2a0.525,0.525,0,0,1,.1.247,8.678,8.678,0,0,0,.886.05,1.648,1.648,0,0,1,.2-0.594,5.608,5.608,0,0,1,1.968-.049,0.409,0.409,0,0,0-.246.049l1.082,0.05-0.049.792c0.7,0.021,1.332.216,1.968,0.247a0.167,0.167,0,0,1,0-.148,3.031,3.031,0,0,0,1.181.247,2.9,2.9,0,0,1,1.033.05,1.122,1.122,0,0,0-.787.1,0.757,0.757,0,0,0,.689.346,1.621,1.621,0,0,0,.689.049v-0.2c0.241-.015.162-0.192,0.148-0.544h1.328V23.34c0.375,0.034.482-.187,0.738-0.148a0.652,0.652,0,0,0,.3.1,2.068,2.068,0,0,1,.836-0.1,5.61,5.61,0,0,0,1.132.148V23.291a0.3,0.3,0,0,1-.1-0.1h0.148c0.17,0.241.254,0.1,0.59,0.148a0.427,0.427,0,0,0,.246.495,0.992,0.992,0,0,1,.836-0.594c0.18,0.169.016-.082,0.246,0a1.428,1.428,0,0,0,.246.248c0.357-.366.654-0.033,0.935,0.049a0.857,0.857,0,0,1,.443-0.1,2.361,2.361,0,0,1,.2.2,1.813,1.813,0,0,0,.64,0v-0.2H35.67a1.539,1.539,0,0,0,.3.148,1.062,1.062,0,0,1,.1-0.247c0.184,0.133.131,0.188,0.394,0.149v0.148a1.525,1.525,0,0,1,1.082,0c0.063-.053.058-0.169,0.2-0.148,0.032,0,.163.139,0.2,0.148a4.588,4.588,0,0,0,.492-0.1,0.4,0.4,0,0,0,.3.2,1.006,1.006,0,0,1,.59,0c0.081-.055.252-0.278,0.3-0.2a1.8,1.8,0,0,1,.394.4,3.926,3.926,0,0,0,0,.742H39.852v0.2a1.614,1.614,0,0,0-.394.247,5.741,5.741,0,0,1-.541-0.247,0.525,0.525,0,0,1-.049.3,0.178,0.178,0,0,0-.1-0.049,0.364,0.364,0,0,1-.344.4c-0.289-.25-0.6.17-0.787,0.1-0.057-.058-0.09-0.14-0.148-0.2-0.183.122-.482,0.035-0.689,0.148l-0.1.2a2.29,2.29,0,0,1-.59-0.1,1.783,1.783,0,0,0-.148.148c-0.092.016-.072-0.04-0.1-0.049a0.964,0.964,0,0,1-.1-0.2,1.82,1.82,0,0,1-.59-0.1c-0.069-.1-0.077-0.3-0.148-0.4a0.277,0.277,0,0,1-.148.3,1.378,1.378,0,0,0-.689.346,0.739,0.739,0,0,0-.2-0.1v0.247H33.8a0.416,0.416,0,0,0-.049-0.247c-0.02.177,0.023,0.125-.1,0.2V25.765H33.6c-0.021.177,0.023,0.125-.1,0.2a0.948,0.948,0,0,0-.787,0v-0.3a0.823,0.823,0,0,1-.492-0.149,3.324,3.324,0,0,1-.246-0.346H31.931v0.05a5.216,5.216,0,0,0-.394.643h-0.1a1.056,1.056,0,0,0-1.033-.4v0.148a7.248,7.248,0,0,1-1.378.1c-0.221-.04-0.391-0.162-0.64-0.2a0.489,0.489,0,0,1,.1-0.247,0.38,0.38,0,0,1-.246-0.2,1.69,1.69,0,0,0,.049.4H28.143c-0.3-.227-0.352.177-0.59,0.1a0.743,0.743,0,0,0-.59-0.148,4.009,4.009,0,0,1-.3-0.445,0.444,0.444,0,0,1-.344.1,0.538,0.538,0,0,1-.049-0.3h-0.3a0.833,0.833,0,0,1-.984.693,2.181,2.181,0,0,1-.689.2v0.049h0.148v0.148c0.533-.021.667-0.2,1.328-0.2v0.346H25.83c0.035-.069.348-0.175,0.344,0.2a6.543,6.543,0,0,0,.787.148V26.111a1.609,1.609,0,0,1,.492-0.049v0.1a0.336,0.336,0,0,1,.049.2c0.633,0,1.071-.092,1.624-0.1l-0.049.1h0.049a1.071,1.071,0,0,1,.443,0,5.628,5.628,0,0,1,2.214.4V26.606a1.343,1.343,0,0,1,.64,0c0.278,0.233.4,0.622,0.689,0.841,0.257,0.2.616,0.4,0.787,0.544h0.049l0.1,0.891a0.355,0.355,0,0,0-.1.346,7.845,7.845,0,0,0-.049,1.188l-0.2.05V29.773a3.249,3.249,0,0,0,.1-1.633,2.151,2.151,0,0,0-.886.4c-0.633.319-1.878,0.631-1.919,1.485h0.049V30.07l0.246-.049v0.1H31.242a0.648,0.648,0,0,1-.344.05,0.372,0.372,0,0,0-.2-0.247,6.908,6.908,0,0,1-1.574.742,17.151,17.151,0,0,1-2.706,1.287L13.038,32l-6.445-.049a4.572,4.572,0,0,1-1.476-1.039C4.57,30.5,4.05,30.132,3.493,29.724a4.717,4.717,0,0,0-.738-0.841,0.428,0.428,0,0,1-.246.346,0.319,0.319,0,0,1-.3,0v-0.1H2.263V29.08c0.109,0.026.1,0.056,0.2,0a0.253,0.253,0,0,0,.049-0.148,0.191,0.191,0,0,1-.1-0.148,0.179,0.179,0,0,0-.049.1,0.427,0.427,0,0,1-.2.148,0.51,0.51,0,0,1-.3.1,0.526,0.526,0,0,1-.3-0.445,0.4,0.4,0,0,0,.049-0.2,1.447,1.447,0,0,1,.443-0.148l0.344,0.2c0.05-.182.032-0.174,0.246-0.2V28.19l-0.148-.1V28.041l-0.1.049V28.041a0.382,0.382,0,0,0-.148-0.148,0.573,0.573,0,0,0-.1.346,3.713,3.713,0,0,1-.836-0.149,1.871,1.871,0,0,1-.2-0.346c0.213-.214-0.1-0.148,0-0.445h0.1c0.048-.082-0.044-0.327,0-0.445a0.567,0.567,0,0,1-.1-0.495,3.16,3.16,0,0,0,.246-0.693,1.766,1.766,0,0,1-.64-0.841H0.59l-0.049-.2H0.59a0.186,0.186,0,0,0,.2.149v-0.1a1.125,1.125,0,0,1-.64-1.534A1.244,1.244,0,0,1,1.771,22.4a2.172,2.172,0,0,1,.738.792,1.679,1.679,0,0,1-.344,1.336,1.058,1.058,0,0,0-.344.248,0.237,0.237,0,0,1,.148.049,0.237,0.237,0,0,0-.148.049,5.551,5.551,0,0,1,1.574-.1s0.173,0.038.2,0.049v0.1l1.181-.05a5.113,5.113,0,0,0,1.427,0,1.514,1.514,0,0,1,.394.05,6.752,6.752,0,0,0,1.378-.05c0.561-.082,2.18.321,2.608,0.05a11.162,11.162,0,0,1-1.427-.2c-0.493-.77-1.247-1.3-1.673-2.128,0.16-.041.075,0.024,0.148-0.1a3.485,3.485,0,0,0,.049-0.841,10.2,10.2,0,0,0,.049-1.88H7.97a9.688,9.688,0,0,0,.049,1.88,3.483,3.483,0,0,0,.049.841,0.844,0.844,0,0,1,.049-0.3c0.428,0.162.607,0.02,0.59-.445a2.727,2.727,0,0,0,.1-1.138V8h0.1V21.361A1.859,1.859,0,0,1,9,22.2H9.053c0.15-.068.022,0.065,0.2,0.049,0.925-.084,2.427.134,3.247-0.049V21.658Zm6.445-1.138a0.178,0.178,0,0,0,.1.049A0.177,0.177,0,0,0,18.942,20.52Zm-1.87.495a0.631,0.631,0,0,1-.049.2H16.974V21.064l-0.246.049a1.246,1.246,0,0,0-.049.4,0.168,0.168,0,0,1,.1.05,0.168,0.168,0,0,0,.1-0.05,1.031,1.031,0,0,0,.59-0.495H17.073Zm0.935,0.05a0.19,0.19,0,0,1-.148.1v0.049h0.492V21.163H18.4v-0.05H18.155A0.25,0.25,0,0,0,18.007,21.064Zm2.8,0.94-0.049.346h0.049V22.3A0.263,0.263,0,0,0,20.812,22Zm17.565,1.633c-0.016.069,0.07,0.072,0.1,0.1C38.509,23.684,38.39,23.652,38.376,23.637Zm-12.6.049a0.259,0.259,0,0,0,.3,0h-0.3Zm0.1,0.1a0.143,0.143,0,0,0,.2,0h-0.2Zm9.2,0-0.1.148C35,23.943,35.215,23.8,35.08,23.786Zm-33.112.891a0.178,0.178,0,0,1,.049.1H1.968v-0.1Zm8.659,0.3a0.259,0.259,0,0,0,.3,0h-0.3Zm0.344,0.05a16.787,16.787,0,0,0,1.722.495v-0.1a0.518,0.518,0,0,0-.344-0.2A4.905,4.905,0,0,0,10.972,25.023Zm-9.988.049c0.133,0.211.179,0.215,0.3,0h-0.3Zm0.344,0.148a0.24,0.24,0,0,0,.049.148V25.221H1.328Zm22.927,0.445H24.01v0.049H23.961v0.1c0.13,0.038.117,0.059,0.246,0.1v-0.1A0.253,0.253,0,0,0,24.256,25.666Zm2.755,0.693H27.4V26.111H27.06v0.049H27.011v0.2Zm1.87-.049a0.178,0.178,0,0,0,.1.049A0.177,0.177,0,0,0,28.881,26.309ZM32.522,27.2a1.942,1.942,0,0,0-.2.445,0.863,0.863,0,0,1,.148.495H32.423V28.19a0.168,0.168,0,0,1-.1-0.049,0.943,0.943,0,0,0-.2-0.4,1.319,1.319,0,0,0-.443.891,1.15,1.15,0,0,0-.1.346h0.1c0.394-.354,1.711-0.624,1.919-1.039a7.819,7.819,0,0,1-.787-0.643v0.148a0.253,0.253,0,0,1,.049.149h-0.1v-0.05A0.941,0.941,0,0,0,32.522,27.2ZM33.9,27.794c0.042,0.093.023,0.037,0,.148H33.85Zm-32.128.841,0.049,0.2H2.066l0.049-.148h-0.1A0.424,0.424,0,0,0,1.771,28.635Zm25.486,1.237a1.375,1.375,0,0,1,0,.594H27.4c0.549-.475,1.554-0.427,2.116-0.891a1.53,1.53,0,0,0-.541-0.148,0.775,0.775,0,0,1-.394.049c-0.051.216-.078,0.242-0.344,0.247A2.383,2.383,0,0,1,27.257,29.872Zm-3.444.3a1.6,1.6,0,0,1-.394,1.039h1.033v-0.1a2.245,2.245,0,0,1-.394-0.891A0.423,0.423,0,0,0,23.813,30.169Zm-3.1.495a4.3,4.3,0,0,1-.3.544h0.64v-0.1A1.37,1.37,0,0,1,20.713,30.664Zm-3.05.2-0.2.346h0.443V31.159A3.342,3.342,0,0,1,17.663,30.862Zm-5.9.1a0.811,0.811,0,0,1-.148.247h0.344V31.159A1.642,1.642,0,0,0,11.759,30.961Zm2.952,0-0.148.247h0.394V31.159A1.447,1.447,0,0,0,14.711,30.961Zm-5.953.05a0.748,0.748,0,0,0-.1.2h0.3V31.159a0.179,0.179,0,0,1-.049-0.1Z" transform="translate(-0.031)"/>
</svg>
