<?xml version="1.0" encoding="utf-8"?>
<!-- Generator: Adobe Illustrator 16.0.0, SVG Export Plug-In . SVG Version: 6.00 Build 0)  -->
<!DOCTYPE svg PUBLIC "-//W3C//DTD SVG 1.1//EN" "http://www.w3.org/Graphics/SVG/1.1/DTD/svg11.dtd">
<svg version="1.1" id="Layer_1" xmlns="http://www.w3.org/2000/svg" xmlns:xlink="http://www.w3.org/1999/xlink" x="0px" y="0px"
	 width="40px" height="40px" viewBox="0 0 40 40" enable-background="new 0 0 40 40" xml:space="preserve">
<path id="us_m47_patton_ii_ico" fill="#FFFFFF" d="M10.194,13.992c0.317-0.097,0.661-0.034,0.922,0.17
	c0.026,0.034,0.035,0.079,0.024,0.121c-0.062,0.024-0.128,0.033-0.194,0.024c0,0.026,0.008,0.052,0.024,0.073
	c0.103,0.031,0.21,0.039,0.316,0.024c0.267-0.01,0.53-0.068,0.777-0.17c0.216,0.085,0.451,0.11,0.68,0.073v-0.048
	c0.019-0.03,0.027-0.064,0.024-0.1h0.1c0.05-0.165,0.067-0.338,0.048-0.509c-0.024-0.079-0.033-0.161-0.024-0.243
	c0.207-1.005,0.264-2.035,0.17-3.057c-0.041-0.38-0.024-0.765,0.049-1.14L13.131,12c-0.057,0.423-0.023,0.853,0.1,1.261V13.24h0.024
	c0.022-0.142,0.081-0.275,0.17-0.388c0.427-0.058,0.859-0.058,1.286,0v0.1c0.428,0.057,0.86,0.064,1.289,0.021
	c0.065-0.064,0.152-0.1,0.243-0.1v-0.385c0.211,0,0.429,0.011,0.607,0.023c-0.02,0.15-0.1,0.217-0.121,0.364
	c0.229,0.022,0.451,0.088,0.655,0.194c0.07,0.1,0.036,0.125,0.219,0.121v-0.51h-0.079v-0.048c-0.055-0.147-0.071-0.306-0.049-0.461
	c0.01-0.006,0.018-0.014,0.024-0.024c0.081,0.005,0.058,0.052,0.1-0.024c0.02-0.012,0.037-0.029,0.049-0.049
	C17.629,12.057,17.614,12.021,17.6,12c-0.2-0.041-0.403-0.057-0.607-0.049v-0.288c-0.115-0.027-0.229-0.06-0.34-0.1
	c-0.062,0.011-0.12,0.036-0.17,0.073c-0.065,0-0.13-0.009-0.194-0.023c-0.07,0.038-0.143,0.072-0.218,0.1
	c-0.254-0.157-0.562-0.201-0.85-0.121c-0.021,0.016-0.047,0.024-0.073,0.024V11.59c0.016-0.021,0.024-0.047,0.024-0.073H14.9v-0.17
	h-0.1v-0.17h0.1V10.96l0.558-0.024v-0.1c0.087-0.021,0.177-0.029,0.267-0.024c0.013,0.013,0.03,0.021,0.049,0.024v0.1
	c0.477,0,1.016,0.023,1.529,0.024v-0.049c-0.013-0.013-0.021-0.03-0.024-0.048h0.291v-0.025h0.03c0,0.136-0.038,0.121,0.121,0.121
	c0.034-0.05,0.051-0.109,0.049-0.17h0.1l0.024,0.242h0.049c0.363,0.04,0.728,0.056,1.092,0.049c0.289,0.044,0.581,0.068,0.874,0.073
	c0.282,0.034,0.566,0.042,0.85,0.024h1.601v0.17l-2.718,0.024v0.073H19.3c0,0.026-0.008,0.052-0.024,0.073
	c-0.002-0.035-0.01-0.068-0.024-0.1c-0.335-0.037-0.9,0.043-1.311,0.048c-0.045,0.183-0.062,0.371-0.049,0.558
	c0.101,0.462,0.125,0.937,0.073,1.407h0.045c0.031-0.06-0.01-0.017,0.049-0.049c0.036,0.084,0.052,0.176,0.049,0.267
	c0.029,0.086,0.037,0.177,0.024,0.267H18.2v-0.141h0.1c0.011-0.142,0.046-0.216,0.049-0.388h0.073V13.24
	c0.213-0.034,0.432-0.009,0.631,0.073c-0.072,0.105-0.129,0.219-0.17,0.34c0.116,0.03,0.219,0.099,0.291,0.194h0.558v-0.025h0.024
	c-0.006-0.125-0.017-0.181,0.073-0.218c0.046-0.024,0.1-0.024,0.146,0c0.006,0.075,0.022,0.148,0.049,0.218
	c0.263,0.056,0.535,0.064,0.8,0.023c0.232,0.229,0.434-0.087,0.8-0.1c0.095,0.069,0.169,0.161,0.218,0.267
	c-0.027,0.141-0.068,0.279-0.121,0.412l0.027,0.075c0.183,0.029,0.361,0.078,0.534,0.146c0.286,0.069,0.543-0.044,0.752,0
	c0.221,0.315,0.473,0.608,0.752,0.873c0.122,0.229,0.349,0.383,0.606,0.412v0.073h0.049c0.646,0.189,1.317,0.279,1.99,0.267
	l0.559-0.024c0.661,0.061,1.326,0.077,1.99,0.049c0.621,0.063,1.246,0.071,1.869,0.024c1.193,0,2.437,0.022,3.592,0.024v-0.12
	c1.147,0.072,2.299,0.072,3.447,0V16.3h0.363v-0.052H40v0.922c-0.704,0.037-1.41,0.021-2.111-0.048v0.073
	c-1.148-0.092-2.301-0.092-3.447,0v-0.122L26.99,17.1c-0.567,0.202-1.152,0.348-1.748,0.437H24.49
	c-0.269,0.149-0.514,0.338-0.729,0.558l-0.606,0.171c-0.271,0.063-0.528-0.061-0.777,0.023v0.021c0.147,0.014,0.3,0.106,0.437,0.121
	c0.042-0.012,0.078-0.037,0.101-0.074l0.315,0.024c0.007,0.06,0.023,0.116,0.05,0.17c0.304,0.217,0.642,0.38,1,0.485
	c0,0.077-0.041,0.033,0.024,0.072c0.084,0.07,0.184,0.121,0.29,0.146c-0.011-0.104,0.049-0.203,0.146-0.243
	c0.03-0.019,0.065-0.026,0.1-0.023v-0.146h0.146L25,19.354c0.2,0.02,0.255,0.135,0.484,0.146v-0.073
	c0.104-0.082,0.201-0.171,0.291-0.267c0.141-0.004,0.279,0.013,0.414,0.049c0.066,0.073,0.124,0.155,0.17,0.243
	c-0.02,0.107-0.002,0.218,0.049,0.314c0.066-0.043,0.151-0.043,0.218,0c0.099-0.225,0.258-0.418,0.461-0.558
	c0.14-0.017,0.276-0.041,0.413-0.073c0.013-0.013,0.021-0.029,0.023-0.048c-0.018-0.03-0.026-0.065-0.023-0.1l0.146-0.024
	c0.145,0.322,0.346,0.665,0.484,0.995L28.18,20.2l0.364,0.388h0.606v0.194l-0.437,0.024v0.023c0.134,0.195,0.217,0.42,0.243,0.654
	c-0.246,0-0.464,0.013-0.655,0L28.35,22h-0.121l-0.024,0.121c0.046-0.002,0.089,0.016,0.121,0.049
	c-0.05,0.218-0.122,0.43-0.218,0.631c-0.027-0.026-0.063-0.043-0.101-0.048l-0.024,0.121c0.072,0.031,0.072,0.015,0.05,0.073
	c-0.103,0.182-0.233,0.345-0.388,0.484c-0.037-0.03-0.078-0.055-0.121-0.072c-0.019,0.029-0.043,0.055-0.073,0.072
	c0.022,0.038,0.088,0.073,0.049,0.101c-0.122,0.122-0.251,0.235-0.388,0.34c-0.061-0.019-0.079-0.076-0.101-0.049
	c-0.036,0.011-0.069,0.026-0.1,0.049c0.022,0.038,0.088,0.073,0.049,0.101c-0.108,0.154-0.261,0.272-0.437,0.34
	c-0.047-0.043-0.02-0.045-0.073-0.024l-0.073,0.024c0.023,0.037,0.088,0.072,0.048,0.1c-0.127,0.133-0.265,0.254-0.413,0.363
	c-0.037-0.022-0.072-0.088-0.1-0.047c-0.027,0.012-0.052,0.027-0.073,0.047c0.033,0.027,0.059,0.062,0.073,0.101
	c-0.188,0.065-0.271,0.271-0.461,0.34c-0.039-0.063-0.018-0.059-0.073-0.049l-0.073,0.049c0.021,0.038,0.037,0.079,0.049,0.121
	c-0.164,0.076-0.307,0.193-0.412,0.34c-0.029-0.03-0.054-0.063-0.073-0.1c-0.042,0.021-0.083,0.045-0.121,0.073
	c0.026,0.026,0.044,0.062,0.049,0.1c-0.215,0.101-0.444,0.166-0.68,0.193v-0.1H24c-0.006,0.049-0.032,0.094-0.073,0.121
	c-0.175,0.043-0.356,0.051-0.534,0.024v-0.136h-0.115v0.121h-0.56v-0.121H22.6v0.121h-0.584v-0.121h-0.101v0.121h-0.58
	c0.001-0.041,0.009-0.082,0.024-0.121h-0.146v0.121h-0.559v-0.121h-0.121v0.121h-0.558v-0.121h-0.122v0.121H19.3v-0.121h-0.125
	v0.121h-0.558v-0.121h-0.146v0.121h-0.558c0-0.041,0.009-0.082,0.024-0.121h-0.121v0.121h-0.583
	c0.001-0.041,0.009-0.082,0.024-0.121h-0.121l-0.024,0.121h-0.559v-0.121h-0.121v0.121h-0.558v-0.121h-0.122v0.121h-0.558v-0.121
	h-0.121v0.121h-0.558v-0.121h-0.122v0.121h-0.582v-0.121h-0.1v0.121h-0.58c0.001-0.041,0.009-0.082,0.024-0.121H13.01v0.121h-0.558
	v-0.121H12.33v0.121h-0.558v-0.121h-0.121v0.121h-0.559v-0.121h-0.121v0.121h-0.558v-0.121h-0.146v0.121H9.733v-0.121H9.612v0.121
	H9.029c0.001-0.041,0.009-0.082,0.024-0.121H8.932v0.121H8.35v-0.121H8.228v0.121H7.67v-0.121H7.549v0.121H6.99v-0.121H6.869v0.121
	l-0.607-0.049c-0.033-0.1-0.013-0.133-0.146-0.145c0,0.026-0.008,0.052-0.024,0.072c-0.045,0.022-0.096,0.031-0.146,0.024
	c-0.136-0.066-0.286-0.101-0.437-0.101l0.024-0.12H5.485c-0.021-0.016-0.046-0.024-0.073-0.024v0.1
	c-0.189-0.022-0.376-0.063-0.558-0.12c0-0.042,0.009-0.083,0.024-0.121l-0.146-0.024c-0.002,0.035-0.01,0.068-0.024,0.1
	l-0.534-0.146c0.005-0.044,0.022-0.086,0.049-0.121l-0.146-0.024c-0.002,0.035-0.011,0.068-0.024,0.101
	c-0.18-0.045-0.353-0.118-0.51-0.218c0.027-0.027,0.044-0.063,0.049-0.1L3.471,25.03L3.447,25.1c-0.214-0.07-0.396-0.217-0.51-0.412
	c0.02-0.012,0.037-0.028,0.049-0.049c-0.027-0.012-0.051-0.028-0.073-0.049c-0.03,0.029-0.063,0.054-0.1,0.073l-0.461-0.388
	c0.047-0.037,0.068-0.061,0.049-0.101c-0.026-0.022-0.05-0.047-0.073-0.073c-0.031,0.037-0.074,0.063-0.121,0.073
	c-0.126-0.129-0.263-0.249-0.407-0.358c0.029-0.029,0.054-0.063,0.073-0.1c-0.064-0.018-0.058-0.029-0.121-0.049
	c-0.039,0.055-0.04,0.051-0.073,0.049c-0.181-0.094-0.333-0.236-0.437-0.412c0.027-0.015,0.045-0.042,0.049-0.072
	c-0.03-0.019-0.055-0.043-0.073-0.073c-0.038,0.022-0.073,0.088-0.1,0.049c-0.052-0.058-0.119-0.1-0.194-0.121
	c-0.013,0.013-0.03,0.021-0.049,0.024c0,0.09-0.059,0.17-0.146,0.193c-0.053,0.023-0.112,0.031-0.17,0.024
	c-0.036-0.03-0.07-0.063-0.1-0.101c-0.036-0.084-0.053-0.175-0.049-0.267C0.236,22.98,0.07,22.885,0,22.725
	c0.082-0.046,0.182-0.1,0.267-0.146c-0.021-0.021-0.039-0.046-0.049-0.073c0.107-0.061,0.222-0.109,0.34-0.145l-0.048-0.51h0.121
	v-0.17h-0.1c0.01-0.182,0.044-0.36,0.1-0.533c-0.155-0.031-0.288-0.129-0.364-0.268c0.206-0.252,0.27-0.59,0.17-0.9H0.364
	c0.007-0.174,0.066-0.156,0.073-0.34c-0.042,0-0.083-0.006-0.121-0.021v0.1c0.013,0.014,0.021,0.03,0.024,0.05H0.316v-0.028H0.291
	c-0.021-0.087-0.029-0.178-0.024-0.267c-0.029-0.104-0.001-0.215,0.073-0.291c0.148-0.159,0.346-0.262,0.56-0.291l0.024-0.146
	c0.047-0.016,0.097-0.024,0.146-0.023v-0.195c0.047-0.02,0.096-0.037,0.146-0.049c0.019,0.018,0.054,0.032,0.073,0.049
	c0.019,0.03,0.027,0.065,0.024,0.101c-0.043,0.006-0.081,0.034-0.1,0.073h0.219c0.045-0.045,0.106-0.07,0.17-0.073v-0.075
	C1.669,18.518,1.744,18.5,1.82,18.5c0.078-0.03,0.165-0.03,0.243,0c0.018,0.061,0.076,0.079,0.049,0.1
	c-0.027,0.021-0.054,0.032-0.073,0.049h0.024c0.021,0.016,0.047,0.024,0.073,0.024c0.087-0.017,0.169-0.052,0.243-0.1
	c0-0.021-0.012-0.021-0.024-0.101c0.092-0.036,0.192-0.053,0.291-0.049c0.037-0.02,0.079-0.028,0.121-0.023
	c0.026,0.053,0.068,0.095,0.121,0.121c-0.026,0.022-0.05,0.047-0.073,0.072h0.1c0.088-0.012,0.171-0.047,0.243-0.1
	c-0.061-0.036-0.037-0.012-0.049-0.1c0.1-0.022,0.3-0.037,0.413-0.073c0.032,0.055,0.073,0.104,0.121,0.146
	c-0.02,0.013-0.037,0.029-0.049,0.049h0.1c0.03-0.018,0.065-0.026,0.1-0.023C3.823,18.397,3.903,18.328,4,18.311
	c0.029,0,0.234-0.013,0.34,0c0.014,0.094,0.01,0.127,0.1,0.146c0.075-0.101,0.206-0.155,0.291-0.243
	c0.026,0.04,0.075,0.06,0.121,0.049v-0.121c0.672,0,1.15-0.063,1.723-0.05c-0.007-0.048-0.007-0.097,0-0.145
	C6.603,17.936,6.628,17.92,6.65,17.9c0.019,0.002,0.036,0.01,0.049,0.023c0.083,0.039,0.132,0.127,0.121,0.219
	c-0.03,0.018-0.055,0.043-0.073,0.072c0.07,0.031,0.135,0.072,0.194,0.121c-0.026,0.023-0.05,0.047-0.073,0.073h0.147v-0.075
	c0.159-0.041,0.326-0.041,0.485,0c0.029,0.023,0.063,0.041,0.1,0.049c-0.021-0.139-0.07-0.271-0.146-0.388H8.01
	c0.138,0.008,0.276,0.008,0.413,0c0.117,0.118,0.258,0.209,0.413,0.267c-0.005,0.052-0.021,0.102-0.049,0.146H9
	c0-0.07-0.023-0.034,0-0.073c0.259-0.068,0.535-0.043,0.777,0.073c0-0.07-0.023-0.034,0-0.073c0.259-0.071,0.536-0.045,0.777,0.073
	v-0.073c0.136-0.092,0.296-0.143,0.461-0.145c0.055,0.036,0.111,0.069,0.17,0.1c0.012-0.088,0.006-0.088,0.073-0.121
	c0.257-0.04,0.518-0.048,0.777-0.023c0.069,0.051,0.134,0.107,0.194,0.17h0.413c0.043,0.018-0.005,0.071,0.073,0.072
	c0.078,0.001,0.195-0.083,0.291-0.1v-0.074c-0.199-0.098-0.38-0.229-0.534-0.388c-0.088-0.13-0.1-0.283-0.194-0.412
	c-0.077-0.07-0.158-0.135-0.243-0.194l-2.52-0.049c-0.18-0.048-0.34-0.15-0.461-0.291c-0.022-0.063-0.056-0.121-0.1-0.17H8.811
	v0.364C8.609,17.108,8.404,17.117,8.2,17.1H6.8c-0.013-0.013-0.03-0.021-0.049-0.024v-0.1c-0.035,0.003-0.07-0.005-0.1-0.024h0.1
	c0-0.62,0-1.114,0-1.747H6.675c0-0.073,0.009-0.017-0.049-0.073h0.1c-0.027-0.062-0.043-0.127-0.049-0.194
	c0-0.019,0.057,0.02,0.049-0.048v-0.025l-0.1-0.073c-0.03-0.102-0.039-0.209-0.026-0.315h0.026
	c-0.009,0.065-0.001,0.132,0.024,0.194c0.07-0.049,0.109-0.132,0.1-0.218c-0.016-0.021-0.024-0.047-0.024-0.073H6.7v0.02
	c-0.069,0-0.01-0.019-0.073,0.024v-0.068H6.65v-0.024c0.309,0.027,0.621,0.003,0.922-0.073c0.146-0.022,0.294-0.014,0.437,0.024
	c0.129,0.017,0.259,0.017,0.388,0c0.162,0,0.238,0.027,0.437,0.024c0.013,0.032,0.021,0.065,0.024,0.1
	c-0.063,0.153-0.08,0.322-0.049,0.485C8.874,14.9,8.94,14.891,9,14.865c0.197-0.129,0.336-0.329,0.388-0.558H9.175l0.024-0.17
	c0.182-0.151,0.426-0.206,0.655-0.146v-0.217h0.073C9.876,13.562,9.902,13.338,10,13.143c0.001-0.244-0.015-0.487-0.049-0.728
	l0.024-0.388c-0.052-0.41-0.068-0.824-0.049-1.237v-0.461c-0.039-0.174,0.021-0.451-0.024-0.655C9.831,9.119,9.807,8.559,9.83,8
	h0.049v0.655c0.044,0.418,0.06,0.84,0.049,1.261c0.062,0.458,0.078,0.922,0.048,1.384v0.485c0.042,0.208,0.067,0.419,0.073,0.631
	V12.9C10.135,13.258,10.184,13.624,10.194,13.992z M19.539,11.518c0.013,0.013,0.021,0.031,0.024,0.049h-0.024V11.518z
	 M19.029,11.591c0.058-0.008,0.117,0,0.17,0.024C19.141,11.623,19.082,11.614,19.029,11.591L19.029,11.591z M19.611,11.591
	c0.058-0.008,0.117,0,0.17,0.024C19.724,11.622,19.665,11.614,19.611,11.591L19.611,11.591z M15.097,11.615h0.049v0.024H15.1v-0.024
	H15.097z M18.956,11.615H19v0.024C18.983,11.636,18.968,11.627,18.956,11.615z M19.83,11.615h0.048
	C19.85,11.654,19.869,11.644,19.83,11.615z M19.878,11.664c0.027,0.027,0.027,0.072,0,0.1V11.664z M18.931,11.764h0.947v0.024
	c-0.013,0.013-0.021,0.03-0.024,0.049h-0.9L18.931,11.764z M24.586,18.848c0.058-0.008,0.117,0.001,0.17,0.024
	c-0.058,0.007-0.116-0.003-0.169-0.028L24.586,18.848z M24.514,18.872c0.025-0.001,0.051,0.008,0.072,0.024
	c-0.025-0.002-0.051-0.012-0.07-0.028L24.514,18.872z M25.12,18.872h0.05v0.024c-0.02-0.004-0.036-0.014-0.049-0.028L25.12,18.872z
	 M24.439,18.896h0.051v0.023c-0.02-0.004-0.036-0.014-0.049-0.027L24.439,18.896z M24.318,18.969h0.05v0.024
	c-0.019-0.004-0.036-0.014-0.048-0.028L24.318,18.969z M25.219,18.969c0.014,0.014,0.021,0.031,0.024,0.049h-0.025v-0.053
	L25.219,18.969z M25.318,19.139c0.014,0.014,0.021,0.031,0.024,0.049h-0.026v-0.053L25.318,19.139z M25.393,19.26
	c0.013,0.014,0.021,0.031,0.023,0.049h-0.027v-0.053L25.393,19.26z M25.413,19.3c0.013,0.014,0.021,0.03,0.024,0.05h-0.024V19.3z"/>
</svg>
