<svg xmlns="http://www.w3.org/2000/svg" width="39.969" height="40" viewBox="0 0 39.969 40">
  <defs>
    <style>
      .cls-1 {
        fill: #fff;
        fill-rule: evenodd;
      }
    </style>
  </defs>
  <path id="Color_Fill_1" data-name="Color Fill 1" class="cls-1" d="M14.027,14.048h0.145V14.1H14.123c0.122,0.537-.24,1.41.1,1.88a0.876,0.876,0,0,1,.048-0.434,4.947,4.947,0,0,1,.871,0,9.058,9.058,0,0,1,2.322-.723c-0.021-.318-0.077-0.509-0.1-0.771a1.475,1.475,0,0,1,.338.048,0.569,0.569,0,0,0,.677.434,0.4,0.4,0,0,1,.435.048V14.53a1.211,1.211,0,0,1,1.064-.626c0-.885.094-1.758,0.1-2.747l-0.145-.1a2.161,2.161,0,0,1-.145.916V11.783a0.953,0.953,0,0,0-.58.1,10.818,10.818,0,0,1-.1-1.253,13.581,13.581,0,0,1-1.741-.048v0.1a0.333,0.333,0,0,1,.339.193c0.012,0.047.038,0.018,0,.048l-0.048.1a1.566,1.566,0,0,1-.435-0.193,2.1,2.1,0,0,1-.1-0.337,1.063,1.063,0,0,0-.242-0.145h0.145V10.145H16.59v0.048H16.542l-0.145.675h-0.29v-0.1A2.262,2.262,0,0,1,16.3,9.9h0.58a2.416,2.416,0,0,1,.29-0.434c-0.119-.062-0.033.021-0.1-0.1a1.6,1.6,0,0,1,.484-0.048V9.373h0.048V9.518a2.842,2.842,0,0,0,1.209.1c0.041-.018-0.01-0.15.145-0.1a2.376,2.376,0,0,0,.967.1,0.488,0.488,0,0,1,.145-0.241V9.855c1.432,0,2.948.038,4.3,0.048v0.337h-4.4v0.1a0.521,0.521,0,0,1,.048.289H19.831v0.048h0.048a0.832,0.832,0,0,1,.629.482,1.5,1.5,0,0,0-.1.916c0,0.921.08,1.6,0.1,2.554h0.1a2.649,2.649,0,0,0,1.016.048,0.966,0.966,0,0,1,.048-0.337,0.174,0.174,0,0,1,.048.1c0.1,0.136-.048.116,0.1,0.193a0.525,0.525,0,0,1,.29-0.048V14.386a0.166,0.166,0,0,0,.1-0.048l0.145,0.048a0.681,0.681,0,0,0-.048.193h0.193a1.971,1.971,0,0,1,.871-0.723,1.29,1.29,0,0,1-.193-0.337,1.182,1.182,0,0,1-.339.1v-0.1a0.416,0.416,0,0,1-.048-0.241,0.515,0.515,0,0,1,.242-0.1c0.071,0.122.021,0.075,0.193,0.1l0.048-.241a2.158,2.158,0,0,1,1.4-.337,5.254,5.254,0,0,1,.048,1.4h-0.58v0.048a0.848,0.848,0,0,1,.242.53,8.7,8.7,0,0,1,1.644.53c0.287,0.094.509,0.077,0.774,0.193,0.53,0.231-.013.511,0.871,0.53a0.326,0.326,0,0,0,.193.048V15.928c-0.17-.119-0.127-0.156-0.1-0.386h0.29a1.677,1.677,0,0,0,1.209.627,1.012,1.012,0,0,0,.145.867h2.273a3.6,3.6,0,0,0,1.6.1l3.241,0.048a5.846,5.846,0,0,0,1.5-.048v0.482c-1.268-.061-2.844-0.024-4.16.048a8.215,8.215,0,0,0-2.177.1c-0.457.2-1.537-.2-1.935,0.048h0.338v0.145h0.242v0.337H30.133v0.434a10.867,10.867,0,0,1-1.6.53,1.064,1.064,0,0,0-.145-0.386,1.216,1.216,0,0,1-.484.241,0.416,0.416,0,0,0-.048.241,0.245,0.245,0,0,1,.048.145,1.885,1.885,0,0,0-.774.048l1.161,0.1c0.079,0.117.148,0.306,0.242,0.434V20.024a0.482,0.482,0,0,1,.29-0.241c0.254,0.152.324-.094,0.484-0.145l0.677,0.048a0.755,0.755,0,0,1,.048.241H30.23a0.583,0.583,0,0,0,.29.434,0.52,0.52,0,0,0,.338.1,0.754,0.754,0,0,1,.29-0.241c0.314,0.25.327-.095,0.677-0.1a1.9,1.9,0,0,0,.242.048,0.7,0.7,0,0,1,.194.819H32.31a0.614,0.614,0,0,0,.145-0.048c0.11-.119.22-0.375,0.387-0.289a0.348,0.348,0,0,1,.29.386,0.659,0.659,0,0,0-.29.578,7.948,7.948,0,0,0,1.838.916,0.628,0.628,0,0,1,.677-0.337v0.193h0.1a0.247,0.247,0,0,0,.145.048c0.006-.31.081-0.333,0.1-0.626h0.29a7.53,7.53,0,0,0,.1,1.2c0.346,0.111.6,0.429,0.967,0.53l1.6,0.048v0.337a3.051,3.051,0,0,0-1.161.1c1.172,0.215,2.459,2.224,2.515,3.614a0.3,0.3,0,0,0-.242.289,2.194,2.194,0,0,1-1.209.048c-0.016,1.762-1.407,2.438-2.467,3.181a15.267,15.267,0,0,1-3.289,2.265l-0.822.048a18.833,18.833,0,0,1-3.531.048H25.3A19.532,19.532,0,0,1,22.588,34l-0.435-.482H8.319A3.566,3.566,0,0,0,7.5,33.374a5.939,5.939,0,0,1-.726-0.289,3.887,3.887,0,0,1-2.08-4L3.628,28.94a3.49,3.49,0,0,1-.1-0.868,1.042,1.042,0,0,1,.435-0.145v0.1a0.52,0.52,0,0,0-.048.289,0.559,0.559,0,0,0,.339.1,0.945,0.945,0,0,1,.193-0.1A0.681,0.681,0,0,0,4.5,28.121c0.012-.047.038-0.018,0-0.048a0.78,0.78,0,0,0-.774-0.241c-0.13-.1-0.226,0-0.387-0.1a0.245,0.245,0,0,1-.048-0.145,1.548,1.548,0,0,0,.193-0.916c-0.047-.154-0.229-0.38-0.29-0.53A5.8,5.8,0,0,1,3,25.325,7.456,7.456,0,0,1,3.1,23.3H1.112v0.048a0.94,0.94,0,0,1,0,.53h-0.1V23.639A0.636,0.636,0,0,0,1.064,23.3a0.924,0.924,0,0,1-.822-0.578,2.557,2.557,0,0,0,.1-1.3h-0.1V22.53c-0.157-.04-0.074.024-0.145-0.1a7.884,7.884,0,0,0,.048-1.108,0.194,0.194,0,0,1,.193-0.1V20.554l-0.193-.048V20.94a0.227,0.227,0,0,1,.1.241H0.193v0.048H0.1V20.892a0.555,0.555,0,0,1,.048-0.578,0.327,0.327,0,0,1,.193-0.048A0.311,0.311,0,0,0,.29,20.072c-0.04.156,0.024,0.074-.1,0.145a0.725,0.725,0,0,1-.1-0.193,0.25,0.25,0,0,1,0-.241c0.155,0,.235,0,0.242-0.289H0.29v0.048a0.564,0.564,0,0,0-.1.241H0.145V19.639a1.058,1.058,0,0,0,.193-0.627,3.14,3.14,0,0,0,1.4-.145l0.048-.145c0.024-.011,1.027.048,1.209,0.048a15,15,0,0,0,2.9-.1,0.622,0.622,0,0,0,.048.337,0.915,0.915,0,0,0,.58-0.289H6.578v0.048a1.131,1.131,0,0,0,1.064.337c0.246-.451,1.33-0.4,1.886-0.241a2.139,2.139,0,0,0,.58.1,0.668,0.668,0,0,1,.339-0.337c0.5,0.4.792,0.058,1.354,0.241V18.723h0.532v0.193a1.179,1.179,0,0,0,.339.1V18.627a0.617,0.617,0,0,1,.194.048l-0.1.337h0.29a3.849,3.849,0,0,0,.822.193,9.849,9.849,0,0,0,1.354.53,1.03,1.03,0,0,1,.1-0.241h0.1v0.145a0.343,0.343,0,0,0-.1.193h0.1a0.358,0.358,0,0,0,.29.1V19.59h0.1v0.386H16.01l-0.048-.145a7.334,7.334,0,0,0,1.209-.337,1.461,1.461,0,0,1-.871-0.1,1.48,1.48,0,0,0,.484-0.626H15.091a1.35,1.35,0,0,0-.871-0.1c0-.565,0-0.966,0-1.59a0.684,0.684,0,0,1-.484-0.675l-0.29-.048V16.217a1.308,1.308,0,0,0,.145-1.349,0.438,0.438,0,0,1,.1-0.337,3.056,3.056,0,0,0-.048-0.482h0.145a0.634,0.634,0,0,1,.1-0.386V6H13.93V6.048a9.3,9.3,0,0,1,.048,2.217C13.978,10.184,14.015,12.208,14.027,14.048Zm5.127-2.169a0.141,0.141,0,0,1,0,.193V11.88Zm0.435,0.482H19.25a0.5,0.5,0,0,1,0-.289c0.063-.119-0.021-0.033.1-0.1a0.224,0.224,0,0,0,.242,0A1.387,1.387,0,0,1,19.589,12.361Zm0.048-.386a0.245,0.245,0,0,1,.048.145H19.637V11.976Zm-0.242.1v0.1h0.1v-0.1H19.4ZM19.444,14a3.035,3.035,0,0,0-.532.578h0.1a1.2,1.2,0,0,1,.677-0.53V14H19.444Zm0.29,0.482h0.145V14H19.831A0.85,0.85,0,0,0,19.734,14.482ZM23.168,14c-0.122.172-.315,0.254-0.435,0.434h0.145a0.7,0.7,0,0,1,.435-0.386V14H23.168Zm-3.918.386c0.019,0.126-.036.063,0.1,0.1v-0.1h-0.1Zm3.386,0.1v0.1h0.048V14.53h0.048A0.175,0.175,0,0,0,22.636,14.482Zm-8.077,1.2v0.289H14.9a1.05,1.05,0,0,1,.194-0.385H14.752C14.681,15.712,14.731,15.665,14.559,15.687ZM14.8,16.072v0.1h0.1v-0.1H14.8Zm-0.58.868V16.554h-0.1V16.506H14.075v0.048l-0.1.048a0.669,0.669,0,0,1,0,.241A0.515,0.515,0,0,0,14.22,16.94Zm0.338-.241v0.193h0.048a0.4,0.4,0,0,0,.1-0.145h0.048V16.7H14.559Zm0,1.3a1.775,1.775,0,0,1,.339.1V16.747H14.849a1.932,1.932,0,0,1-.29.241V18Zm0,0.193v0.289c0.259,0.018.255,0.082,0.532,0.1v-0.1a0.243,0.243,0,0,1-.194-0.289H14.559Zm-4.16.53a0.755,0.755,0,0,0-.048.241,1.044,1.044,0,0,0,.338.048v-0.1A0.781,0.781,0,0,0,10.4,18.723Zm-8.561.193a0.232,0.232,0,0,0,.048.144A0.232,0.232,0,0,0,1.838,18.916Zm0,0.193a0.174,0.174,0,0,0,.1.048A0.175,0.175,0,0,0,1.838,19.108Zm9.383,0.1v0.1h0.1V19.253Zm1.6,0v0.1h0.1V19.2h-0.1Zm1.209,0.289a0.175,0.175,0,0,0,.1.048A0.174,0.174,0,0,0,14.027,19.494Zm12.285,0v0.193H26.7l0.048-.193H26.312Zm-12.044.1a2.135,2.135,0,0,0,.822.434V19.976h0.048a0.175,0.175,0,0,0-.1-0.048A1.846,1.846,0,0,0,14.268,19.59Zm15.091,0.145c0.019,0.126-.036.063,0.1,0.1V19.783H29.5V19.735H29.359ZM29.7,19.783c0.014,0.125-.023.086,0.194,0.1v-0.1H29.7Zm-14.462.241a0.318,0.318,0,0,0,.339.193l0.145-.048V20.121A1.753,1.753,0,0,1,15.236,20.024Zm0.58,0.145a0.187,0.187,0,0,0,.145.1v-0.1H15.816Zm-15.478.289V20.313a0.614,0.614,0,0,0-.193.048V20.41H0.193A0.247,0.247,0,0,0,.339,20.458ZM32.116,20.8V20.506a0.668,0.668,0,0,0-.387-0.145,0.556,0.556,0,0,1-.145.1l0.048,0.1A1.294,1.294,0,0,0,32.116,20.8ZM0.193,20.747a0.174,0.174,0,0,1,.048.1H0.193v-0.1Zm4.45,0.434a3.749,3.749,0,0,0-.629.723H4.063A1.624,1.624,0,0,0,4.643,21.181Zm27.473,0a0.187,0.187,0,0,0,.145.1A0.562,0.562,0,0,0,32.116,21.181Zm1.064,0.867a4.719,4.719,0,0,1,.339.578,1.07,1.07,0,0,0,.774,0,1.021,1.021,0,0,1-.484-0.048,0.628,0.628,0,0,0,.339-0.048C33.79,22.437,33.528,22.164,33.18,22.048Zm2.176,0.675a0.406,0.406,0,0,0,.242-0.048,0.313,0.313,0,0,1-.193-0.048H35.6c-0.04-.156.024-0.074-0.1-0.145A0.444,0.444,0,0,0,35.357,22.723ZM3.337,23.3a6.646,6.646,0,0,0-.1,2.072c0.088,0.354.249,0.728,0.339,1.06H3.628l0.339-1.542a0.336,0.336,0,0,1-.339-0.337A1.3,1.3,0,0,0,3.966,23.4a0.184,0.184,0,0,1-.145-0.1H3.337Zm-2.322.627,0.145,0.048a1.034,1.034,0,0,0-.048.337h-0.1V23.928Zm2.95,0.578v0.1H4.015v-0.1H3.966Zm20.653,5.349a2.2,2.2,0,0,1-.871.048v0.048c0.5,0.613-.084,1.682-0.29,2.072h1.5v-0.1a1.774,1.774,0,0,1-.435-1.59A1.088,1.088,0,0,0,24.619,29.855ZM34.1,29.9l0.1,0.289h0.048V30a0.174,0.174,0,0,1-.048-0.1H34.1Zm0.774,0.145a1.135,1.135,0,0,0-.629.675h0.048a3.618,3.618,0,0,0,.822-0.675H34.873ZM11.56,30.1a2.868,2.868,0,0,1-.677,1.542,3.071,3.071,0,0,0-.435.434H10.5a3.2,3.2,0,0,1,1.161-.048h3V31.976a2.071,2.071,0,0,1-.435-1.88H13.108a1.06,1.06,0,0,1-.774.193A1.927,1.927,0,0,0,11.56,30.1Zm7.013,0.53a1.022,1.022,0,0,0-.242.145l-0.048.53c-0.086.262-.3,0.477-0.387,0.723h2.273V31.976a8.463,8.463,0,0,1-.532-1.253A2.2,2.2,0,0,0,18.573,30.627Zm10.351,0a0.567,0.567,0,0,1-.242.1,2.741,2.741,0,0,1-.435,1.3H30.52V31.976a11.723,11.723,0,0,1-.532-1.253A2.2,2.2,0,0,0,28.924,30.627Z" transform="translate(-0.031)"/>
</svg>
