<?xml version="1.0" encoding="utf-8"?>
<!-- Generator: Adobe Illustrator 16.0.0, SVG Export Plug-In . SVG Version: 6.00 Build 0)  -->
<!DOCTYPE svg PUBLIC "-//W3C//DTD SVG 1.1//EN" "http://www.w3.org/Graphics/SVG/1.1/DTD/svg11.dtd">
<svg version="1.1" id="Layer_1" xmlns="http://www.w3.org/2000/svg" xmlns:xlink="http://www.w3.org/1999/xlink" x="0px" y="0px"
	 width="40px" height="40px" viewBox="0 0 40 40" enable-background="new 0 0 40 40" xml:space="preserve">
<path id="Color_Fill_1" fill="#FFFFFF" d="M13.085,10.218h0.149c0,0.571-0.088,0.951-0.1,1.447c0.339,0.003,0.677-0.048,1-0.15
	v-0.05c-0.073-0.066-0.125-0.153-0.149-0.25h0.1c0.022,0.087,0.056,0.171,0.1,0.25c0.158-0.044,0.309-0.111,0.448-0.2
	c0.146-0.191,0.28-0.392,0.4-0.6c0.07-0.064,0-0.058-0.05-0.15c0.132-0.112,0.284-0.197,0.448-0.25v0.05h0.05l-0.1,0.15l0.149,0.05
	l-0.1,0.15h1.293c0.093-0.045,0.197-0.063,0.3-0.05v-0.25c0.242,0.008,0.482-0.044,0.7-0.15l0.05,0.4l0.746,0.05
	c0.007-0.173,0.153-0.309,0.326-0.302c0.008,0,0.015,0.001,0.022,0.002c0.35,0.255,0.762,0.411,1.194,0.449v-0.7H20.1
	c0.049-0.05-0.049-0.049-0.05-0.05c-0.109-0.048-0.229-0.065-0.348-0.05v-0.4c-0.186-0.057-0.369-0.124-0.547-0.2l-0.647,0.15v0.15
	h-0.15l-0.05-0.249h-1.144c-0.043,0.032-0.095,0.05-0.149,0.05c0-0.181-0.047-0.171-0.348-0.15V9.12c-0.13-0.014-0.1,0-0.1-0.25
	c0.126-0.074,0.1-0.106,0.1-0.3l0.8-0.05c0.2-0.131-0.037-0.175,0.4-0.2c0.108,0.2,0.068,0.206,0.448,0.2
	c0.609,0.095,1.228,0.112,1.841,0.05V8.421H20.6c0.006,0.187-0.06,0.122,0.149,0.15v-0.05H20.8v-0.2h0.149L21,8.671h0.1
	c0.365,0.226,1.096-0.1,1.543,0.05c1.049,0.358,3.6,0.157,4.825,0.15v0.25h-2.841c-0.525,0.092-1.059,0.143-1.592,0.15
	c0,0.054-0.018,0.107-0.051,0.15c-0.041-0.228-0.09-0.206-0.348-0.2c-0.385,0.232-1.242-0.1-1.592,0.15
	c-0.063,0.21-0.08,0.432-0.05,0.649h-0.448v0.05c0.096,0.238,0.146,0.493,0.148,0.749h0.945c0.116,0.08,0.248,0.122,0.349,0.2
	c0.089-0.109,0.079-0.148,0.2-0.1h0.05c-0.054,0.228-0.116,0.29,0.2,0.3c0.054,0.083,0.152,0.122,0.248,0.1v-0.05h0.051
	c0.012-0.371,0.062-0.739,0.148-1.1c0.088-0.063,0.192-0.099,0.301-0.1c0.125,0.248,0.093,0.757,0.199,0.948
	c0.168,0.095,0.306,0.233,0.4,0.4c-0.067,0.245-0.067,0.504,0,0.749c0.108,0.079,0.225,0.146,0.348,0.2v-0.352
	c0.055,0,0.106,0.017,0.149,0.05c0.05,0.081,0.048,0.319,0.1,0.4c0.144,0.054,0.297,0.071,0.448,0.05
	c-0.036-0.079-0.036-0.17,0-0.249c0.266-0.132,0.551-0.217,0.846-0.249c0.23,0.29,0.633,0.433,0.846,0.749l0.349,0.8h1
	c0.362,0.008,0.2,0.069,0.348,0.15H29.4c1.156,0.125,2.322,0.142,3.482,0.05l5.672,0.1v0.649l-10.348,0.1
	c0,0.054-0.018,0.107-0.05,0.15c-0.3,0.184-0.968-0.141-1.293,0.05c-0.088,0.174-0.188,0.341-0.3,0.5
	c-0.137,0.079-0.293,0.113-0.448,0.1c-0.022-0.087-0.057-0.171-0.101-0.25c-0.037,0.005-0.072,0.022-0.1,0.05
	c-0.169,0.047-0.155,0.019-0.2,0.2c0.073,0.101,0.108,0.225,0.101,0.349h0.994c0.047-0.053,0.097-0.104,0.149-0.15
	c0.159,0.01,0.314,0.062,0.448,0.15c0.173,0.025,0.35-0.01,0.5-0.1l0.9,0.05c-0.001,0.054,0.017,0.107,0.049,0.15
	c0.033-0.209,0.043-0.214,0.25-0.249c0.093,0.045,0.197,0.063,0.3,0.05v0.1c0.052,0.128,0.085,0.262,0.1,0.4
	c0.13,0.038,0.265,0.055,0.4,0.05c0.36,0.08,0.726,0.13,1.095,0.15c0.076,0.313,0.252,0.594,0.5,0.8c0.2,0.1,0.145-0.128,0.3,0.1
	c0.062,0.18,0.11,0.363,0.149,0.549c0.1-0.027,0.043-0.082,0.1,0c0.05,0.082,0.118,0.15,0.2,0.201
	c0.129-0.095,0.291-0.131,0.448-0.101c0.077,0.106,0.18,0.192,0.3,0.249v-0.05c0.213-0.405,0.463-0.789,0.746-1.148
	c0.267-0.05,0.54,0.023,0.746,0.2c0.476,0.26,0.899,0.58,1.393,0.9c0.276,0.045,0.507,0.236,0.601,0.5
	c-0.212,0.272-0.381,0.576-0.5,0.899c0.221,0.22,0.497,0.375,0.8,0.449l0.249-0.349c0.038,0.004,0.073,0.021,0.1,0.05
	c0.123,0.064,0.034-0.021,0.1,0.1c-0.088,0.095-0.172,0.195-0.248,0.3c0.005,0.038,0.022,0.073,0.05,0.101
	c0.269,0.257,0.571,0.476,0.899,0.648c0.092,0.145,0.176,0.295,0.25,0.449c0.145,0.091,0.294,0.175,0.447,0.25
	c0.696,0.628,1.176,1.46,1.369,2.378l-0.846-0.15c-0.006,2.453-2.354,2.91-3.881,3.842c-0.475,0.35-0.992,0.635-1.541,0.848
	c-0.775,0.111-1.561,0.129-2.338,0.05l-4.328,0.05H15.274c-0.514,0.03-1.031,0.014-1.542-0.05H8.209
	c-0.804-0.21-1.586-0.493-2.338-0.848c-0.84-0.356-1.682-0.657-2.488-1c-1.358-0.575-2.214-0.921-2.189-2.894h-0.1
	C0.746,23.821,0.372,23.874,0,23.84v-0.049c0.127-0.193,0.084-0.429,0.2-0.648c0.091-0.174,0.338-0.375,0.448-0.55
	C0.74,22.445,0.7,22.309,0.8,22.145l0.149-0.051c0.19-0.268,0.358-0.551,0.5-0.848l-0.05-0.15c0.054-0.078,0.185-0.107,0.249-0.199
	c-0.041-0.025-0.075-0.06-0.1-0.101h0.05v-0.05c0.065,0.017,0.134,0.017,0.2,0v-0.5H1.343c-0.026-0.064-0.043-0.131-0.05-0.2
	c0.105-0.407,0.139-0.829,0.1-1.247c0.241-0.117,0.15-0.199,0.249-0.449h0.149V17.65h0.05V17.6l1.095-0.1
	c0.166-0.191,0.396-0.316,0.647-0.35c0.03,0.08,0.047,0.164,0.05,0.25c0.16-0.059,0.332-0.076,0.5-0.051
	c0-0.13-0.065-0.112,0.1-0.199c0.324-0.098,0.664-0.131,1-0.101c0.471-0.123,0.958-0.174,1.443-0.149
	c0.313,0.055,0.633,0.055,0.945,0c0.074-0.021,0.265-0.133,0.348-0.15c0.271,0.037,0.547,0.003,0.8-0.1
	c0.027-0.027,0.044-0.063,0.05-0.101c-0.063-0.176-0.097-0.361-0.1-0.549c0.9,0,1.531-0.3,2.438-0.3
	c0.529,0.079,1.068,0.062,1.592-0.05c-0.314,0.055-0.613-0.156-0.667-0.47c-0.016-0.093-0.009-0.188,0.02-0.278h-0.1
	c-0.439,0.063-0.882-0.085-1.194-0.4c-0.104-0.256-0.104-0.543,0-0.8c0.492-0.328,0.943-0.713,1.343-1.148
	c0.077-0.294,0.094-0.6,0.05-0.9h0.647c-0.017-0.482-0.034-0.965-0.05-1.447h0.149V5.831c-0.047-0.767-0.031-1.536,0.05-2.3
	c0.027,0.027,0.044,0.062,0.05,0.1c0.094,0.596,0.111,1.2,0.05,1.8C13.085,7.042,13.09,8.747,13.085,10.218z M17.115,8.871
	c0-0.054-0.017-0.107-0.05-0.15c-0.054-0.054-0.125-0.089-0.2-0.1v0.05c0.145,0.112,0.055,0.025,0,0.2H17.115L17.115,8.871z
	 M17.015,8.721c0.017,0.015,0.1,0.026,0.05,0.101C17.009,8.796,16.91,8.731,17.015,8.721z M17.215,9.021
	c0.382,0.138,0.794,0.173,1.194,0.1v-0.1H17.215L17.215,9.021z M16.867,9.321h0.249v-0.2h-0.05c-0.095,0.047-0.058,0.019-0.2,0
	L16.867,9.321L16.867,9.321z M23.384,9.371c0.026,0.027,0.044,0.062,0.05,0.1h-0.05V9.371z M22.639,9.471
	c0.102-0.013,0.207,0.004,0.299,0.05c-0.103,0.013-0.207-0.005-0.301-0.052L22.639,9.471z M23.484,9.471
	c0.103-0.013,0.207,0.004,0.3,0.05c-0.104,0.013-0.208-0.005-0.302-0.052L23.484,9.471z M22.539,9.72h1.343v0.05h-0.05
	c-0.424,0.098-0.863,0.115-1.294,0.05c-0.03-0.08-0.047-0.164-0.05-0.249h0.05L22.539,9.72L22.539,9.72z M17.066,10.42v0.2h0.149
	c0.037-0.062,0.088-0.113,0.149-0.15v-0.05h-0.3H17.066z M15.225,10.57v0.1h0.05c-0.004-0.039-0.022-0.075-0.051-0.103L15.225,10.57
	z M23.434,11.37c-0.006,0.07,0.012,0.141,0.051,0.2c0.006-0.072-0.012-0.144-0.051-0.205V11.37z M12.041,12.87
	c-0.02,0.152-0.053,0.303-0.1,0.449c0.016-0.119-0.001-0.239-0.05-0.349c-0.091,0.118-0.212,0.172-0.3,0.3
	c0.177,0.04,0.345,0.107,0.5,0.2c0.03-0.204,0.013-0.412-0.051-0.607L12.041,12.87z M11.991,14.67
	c-0.052,0.067-0.121,0.119-0.2,0.15v0.05h0.2c0.005-0.038,0.022-0.073,0.05-0.1c-0.003-0.042-0.021-0.082-0.051-0.111L11.991,14.67z
	 M12.837,15.718c0.113,0.15,0.064,0.108,0.249,0.1v-0.1H12.837L12.837,15.718z M28.011,15.718c0.021,0.131,0.08,0.108,0.349,0.1
	c0.043,0.032,0.095,0.05,0.148,0.05v-0.1L28.011,15.718z M28.956,15.718c-0.05,0.111-0.084,0.229-0.101,0.349h0.051v-0.1
	c0.145-0.077,0.294-0.144,0.447-0.2c-0.129-0.042-0.264-0.062-0.398-0.06L28.956,15.718z M28.607,15.818
	c0.027,0.027,0.063,0.044,0.101,0.05c-0.026-0.032-0.062-0.054-0.101-0.062V15.818z M29.255,16.167H29.4v-0.3H29.3v0.05
	c-0.038,0.074-0.054,0.157-0.046,0.239L29.255,16.167z M12.787,15.967c0.086,0.044,0.064,0.044,0.149,0H12.787L12.787,15.967z
	 M32.787,17.714h0.1c-0.05,0.081-0.118,0.149-0.199,0.2c0.02-0.076,0.053-0.146,0.099-0.211L32.787,17.714z M32.936,17.714h0.101
	v0.05h-0.101V17.714z M33.036,17.764h0.1v0.051c-0.04-0.008-0.075-0.029-0.101-0.062L33.036,17.764z M33.436,17.764
	c-0.033,0.097-0.05,0.198-0.05,0.301h0.05v-0.051c0.066-0.065,0.104-0.156,0.101-0.25H33.436z M33.287,18.113v0.1h0.05v-0.05h0.05
	c-0.025-0.032-0.063-0.054-0.103-0.062L33.287,18.113z M31.844,18.163l0.051,0.149h0.1v-0.049L31.844,18.163z M32.443,18.163
	c-0.025,0.063-0.043,0.132-0.049,0.2c0.102,0.07,0.224,0.105,0.348,0.1v-0.1c-0.047-0.053-0.097-0.104-0.149-0.15
	c-0.043-0.037-0.098-0.059-0.155-0.061L32.443,18.163z M6.915,26.884c-0.101-0.485-0.049-0.991,0.149-1.446H5.821
	c-0.21-0.177-0.472-0.281-0.746-0.301c-0.161,0.322-0.453,0.559-0.8,0.649v0.1C5.228,26.01,5.971,26.721,6.915,26.884z M10.1,25.438
	c-0.161,0.041-0.076-0.024-0.149,0.1h0.1v0.05H10.1V25.438z M12.438,25.438l-0.05,0.149h0.05c0.044-0.042,0.078-0.093,0.1-0.149
	H12.438z M15.473,25.438c0.167,0.428,0.219,0.893,0.149,1.347c-0.074,0.239-0.267,0.418-0.348,0.649h1.493v-0.051
	c-0.535-0.415-0.366-1.33-0.2-1.945H15.473z M19.453,25.438v0.1c0.069,0.006,0.136,0.022,0.2,0.05v-0.1H19.6v-0.05H19.453z
	 M21.941,25.438c-0.001,0.054,0.017,0.106,0.05,0.149c0.044-0.042,0.077-0.093,0.1-0.149h-0.151H21.941z M24.977,25.438
	c0.201,0.4,0.271,0.855,0.199,1.3c-0.074,0.265-0.271,0.432-0.348,0.7h1.492v-0.051c-0.6-0.414-0.371-1.322-0.2-1.945h-1.146
	L24.977,25.438z M29.155,25.438c-0.161,0.041-0.076-0.024-0.149,0.1h0.1v0.05h0.051L29.155,25.438L29.155,25.438z M31.493,25.438
	l-0.05,0.149h0.05c0.044-0.042,0.077-0.093,0.1-0.149H31.493z M35.523,25.438h-0.996v0.1c0.197,0.349,0.25,0.76,0.148,1.148h0.1
	c0.322-0.313,1.392-0.629,1.543-1c-0.08-0.031-0.164-0.048-0.25-0.051c-0.143,0.18-0.332,0.317-0.547,0.4v-0.248
	c0.049-0.111,0.047-0.238,0-0.35H35.523z M10.15,26.337c-0.037,0.37-0.156,0.728-0.35,1.046h2.637
	c0.093,0.045,0.197,0.062,0.3,0.051v-0.103c-0.268-0.263-0.413-0.625-0.4-1c-0.119-0.024-0.235-0.058-0.348-0.101
	c-0.104,0.021-0.205,0.055-0.3,0.101c-0.074-0.1-0.18-0.17-0.3-0.2c-0.024,0.099-0.102,0.176-0.2,0.2
	c-0.047-0.169-0.019-0.155-0.2-0.2c-0.247,0.166-0.545,0.236-0.84,0.2L10.15,26.337z M19.702,26.337
	c-0.066,0.388-0.202,0.761-0.4,1.101h2.985v-0.051c-0.283-0.271-0.431-0.656-0.4-1.048c-0.135-0.026-0.269-0.06-0.4-0.1
	c-0.185-0.038-0.111,0.149-0.248,0.1c-0.1-0.092-0.219-0.16-0.348-0.2c0.002,0.094-0.06,0.177-0.149,0.2
	c-0.022-0.118-0.128-0.203-0.249-0.2c-0.231,0.16-0.514,0.229-0.792,0.192L19.702,26.337z M29.202,26.337
	c-0.004,0.401-0.146,0.79-0.4,1.101H30.9c0.293-0.089,0.605-0.089,0.899,0v-0.106c-0.247-0.276-0.389-0.63-0.399-1
	c-0.118-0.026-0.234-0.06-0.349-0.101c-0.103,0.023-0.204,0.057-0.3,0.101c-0.067-0.106-0.176-0.179-0.3-0.2
	c-0.024,0.099-0.102,0.176-0.2,0.2c-0.047-0.169-0.02-0.155-0.2-0.2c-0.25,0.168-0.553,0.24-0.852,0.2L29.202,26.337z"/>
</svg>
