<?xml version="1.0" encoding="utf-8"?>
<!-- Generator: Adobe Illustrator 16.0.0, SVG Export Plug-In . SVG Version: 6.00 Build 0)  -->
<!DOCTYPE svg PUBLIC "-//W3C//DTD SVG 1.1//EN" "http://www.w3.org/Graphics/SVG/1.1/DTD/svg11.dtd">
<svg version="1.1" id="Layer_1" xmlns="http://www.w3.org/2000/svg" xmlns:xlink="http://www.w3.org/1999/xlink" x="0px" y="0px"
	 width="40px" height="40px" viewBox="0 0 40 40" enable-background="new 0 0 40 40" xml:space="preserve">
<path id="us_m60a1_ico" fill="#FFFFFF" d="M9.209,13.583H9.4V13.8h0.459c-0.016-0.104-0.001-0.209,0.041-0.305
	c0.047-0.1,0.123-0.184,0.217-0.241c0.116,0,0.232,0.007,0.347,0.022c0.053,0.048,0.104,0.1,0.152,0.153
	c-0.008,0.176,0.066,0.346,0.2,0.46c0.016-0.049,0.023-0.101,0.022-0.153c0,0,0.019-0.285,0.022-0.438h0.2
	c0.027,0.145,0.034,0.292,0.022,0.438h-0.074v0.131c0.323,0.05,0.65,0.058,0.975,0.022c-0.004-0.059,0.001-0.118,0.017-0.175h-0.5
	c-0.08-0.123-0.2-0.2-0.282-0.329c0.076-0.088,0.144-0.183,0.2-0.285c0.126-0.138,0.272-0.256,0.433-0.351
	c-0.053-0.077-0.077-0.17-0.065-0.263c0.091-0.08,0.224-0.088,0.325-0.022c0.073-0.181,0.225-0.317,0.412-0.372
	c0.041-0.02,0.085-0.027,0.13-0.022V9.53c-0.031-0.321-0.023-0.645,0.022-0.964v3.483c0.19-0.014,0.378-0.043,0.563-0.088
	l0.715-0.022c0.179-0.037,0.363-0.037,0.542,0c0.124,0.03,0.241,0.082,0.347,0.153c0.022,0.018,0.022,0.095,0.043,0.109h0.13v-0.108
	c0.046,0.002,0.089-0.024,0.108-0.066c0.034-0.159,0.056-0.32,0.065-0.482c-0.053-0.028-0.015,0.009-0.043-0.044
	c0.127,0,0.693-0.022,0.693-0.022c0.014,0.019,0.022,0.042,0.022,0.066c-0.1,0.041-0.049,0.2-0.022,0.307
	c0.19,0.006,0.376,0.059,0.542,0.153h-0.042v0.022l-0.043-0.022v0.022c-0.003,0.03-0.01,0.06-0.022,0.088h0.043
	c0.152-0.024,0.307-0.017,0.455,0.021c0.195,0.022,0.392,0.015,0.585-0.021c0.1,0.065,0.194,0.139,0.282,0.219
	c0.116,0.073,0.274,0.075,0.39,0.153c0.062,0.077,0.128,0.15,0.2,0.219h1.04c0.338,0.039,0.679,0.046,1.018,0.022l0.043-0.066
	l0.5,0.066v0.11c-0.139,0.013-0.276,0.035-0.412,0.066c-0.1,0.015-0.084-0.047-0.13-0.066h-2.129
	c-0.043,0.555-0.593,0.353-0.823,0.7H17.4c0.08-0.041,0.171-0.056,0.26-0.044v0.022h0.022v0.066h0.108v0.263h-0.108v0.022
	c0.144,0.11,0.319,0.171,0.5,0.175v-0.416h0.672v0.154c0.226-0.011,0.452,0.012,0.672,0.065v0.022H19.5v0.022
	c-0.207-0.042-0.419-0.049-0.628-0.022c-0.019,0.071-0.026,0.145-0.022,0.219c0.023,0,0.046,0.007,0.065,0.022
	c-0.055,0.032-0.034,0.01-0.043,0.088h0.043c0.203,0.091,0.413,0.164,0.628,0.219c0.374,0.208,0.787,0.336,1.213,0.373v0.066h0.064
	l0.022-0.11c0.065,0.004,0.124-0.044,0.13-0.11h0.067v-0.11h0.043c0.048,0.021,0.101,0.029,0.151,0.022V14.5
	c-0.012-0.012-0.02-0.027-0.021-0.044c0.148-0.089,0.31-0.156,0.477-0.2c0.062,0.085,0.129,0.166,0.201,0.241
	c0.123-0.171,0.348-0.234,0.541-0.153c0.051,0.079,0.109,0.152,0.174,0.219c-0.008,0.141-0.03,0.28-0.065,0.416
	c0.117,0.063,0.24,0.115,0.368,0.153l0.107-0.131c0.035,0.019,0.07,0.033,0.108,0.044v-0.082c-0.056-0.032-0.034-0.01-0.043-0.088
	h0.065c0.039-0.193,0.168-0.355,0.347-0.438c-0.021-0.086-0.036-0.174-0.043-0.263c0.026-0.084,0.044-0.086,0.151-0.088
	c0.031,0.045,0.046,0.099,0.043,0.153c-0.041,0.058-0.057,0.13-0.043,0.2h0.088v0.044c-0.019,0.034-0.026,0.072-0.022,0.11
	c-0.15,0.064-0.278,0.171-0.368,0.307c0.055,0.032,0.034,0.01,0.043,0.088h-0.07v0.044c-0.009,0.005-0.016,0.013-0.021,0.021
	c0.07,0.019,0.033-0.011,0.064,0.044h-0.15c-0.018,0.077-0.047,0.151-0.087,0.219H23.1c0.074,0.094,0.209,0.125,0.282,0.219
	c0.033-0.02,0.06-0.075,0.087-0.088c0.104,0.003,0.207-0.02,0.301-0.066c-0.04-0.031-0.057-0.083-0.043-0.132
	c0.044-0.031,0.098-0.046,0.151-0.044c0.018,0.032,0.04,0.062,0.065,0.088c-0.049,0.156-0.064,0.32-0.043,0.482h0.238v0.066
	c0.03,0.01,0.055,0.035,0.064,0.066c0.018-0.034,0.049-0.059,0.087-0.066c0.01,0.025,0.024,0.047,0.043,0.066
	c0.039-0.025,0.084-0.04,0.13-0.044c0.04,0.04,0.084,0.077,0.13,0.11c-0.002-0.042,0.025-0.078,0.065-0.088
	c-0.002,0.042,0.025,0.078,0.064,0.088c0.035-0.049,0.035-0.046,0.065-0.044c0.03,0.002,0.024,0.028,0.043,0.044
	c0.017-0.035,0.049-0.06,0.087-0.066c0.018,0.071-0.011,0.034,0.043,0.066l0.064-0.088c0.049,0.023,0.1,0.038,0.152,0.044
	c0.019-0.02,0.041-0.035,0.065-0.044c0.009,0.032,0.034,0.056,0.065,0.066c-0.001-0.024,0.007-0.047,0.021-0.066V15.9
	c0.039,0.06,0.062,0.129,0.064,0.2c0.211,0.009,0.42,0.032,0.629,0.066h0.822l1.409,0.044v-0.086h0.13
	c0.146-0.263,0.301-0.175,0.672-0.175h1.561c0.031,0.079,0.084,0.148,0.152,0.2c0.064-0.018,0.132-0.025,0.199-0.022v0.088
	c3.008,0,6.063-0.021,9.036-0.022v0.679c-2.973,0-6.028-0.021-9.036-0.022v0.066c-0.117-0.006-0.234,0.009-0.347,0.044h-2.171
	c-0.06-0.038-0.131-0.053-0.2-0.044v-0.069c-0.399,0-0.819,0.021-1.192,0.022c-0.289-0.019-0.579-0.012-0.867,0.022
	c-0.262-0.018-0.524,0.004-0.779,0.066c-0.006,0.071-0.028,0.139-0.064,0.2c-0.014-0.035-0.036-0.065-0.065-0.088l-0.022,0.11
	h-0.016v-0.026c-0.018-0.02-0.032-0.042-0.043-0.066H25.18v0.023c-0.016,0.028-0.038,0.051-0.065,0.066
	c-0.035-0.049-0.036-0.046-0.065-0.044c-0.029,0.023-0.051,0.054-0.064,0.088c-0.024-0.023-0.045-0.105-0.065-0.065
	c-0.018,0.02-0.032,0.042-0.043,0.065c-0.021-0.036-0.052-0.066-0.087-0.088c-0.01,0.031-0.033,0.056-0.064,0.066L24.7,17.131
	c-0.041,0.04-0.095,0.063-0.152,0.066c-0.021-0.036-0.052-0.066-0.087-0.088c-0.002,0.03-0.01,0.06-0.021,0.088H24.4
	c-0.01-0.032-0.024-0.062-0.043-0.088c-0.018,0.035-0.05,0.059-0.088,0.066c-0.018-0.02-0.031-0.042-0.043-0.066
	c-0.021,0.053-0.072,0.088-0.129,0.088c-0.022-0.03-0.053-0.054-0.088-0.066l-0.107,0.351c-0.088,0.1-0.187-0.03-0.217,0.2
	c-0.184-0.004-0.366,0.018-0.543,0.066c-0.033-0.015-0.07-0.021-0.107-0.021c-0.057,0.063-0.134,0.102-0.217,0.109
	c-0.059,0.04-0.142,0.045-0.2,0.088c0.044,0.113,0.073,0.23,0.087,0.352h0.285c0.316,0.045,0.637,0.045,0.953,0
	c-0.003-0.034-0.018-0.066-0.043-0.088h0.217c0,0.023,0.008,0.047,0.021,0.065c0.194-0.023,0.391-0.03,0.586-0.022
	c0.082-0.025,0.16-0.136,0.237-0.152c0.04-0.002,0.08,0.015,0.108,0.044c0.081-0.001,0.161-0.017,0.238-0.044v0.044h-0.021
	c-0.09,0.048-0.161,0.125-0.2,0.219h0.043c0.034-0.05,0.093-0.075,0.152-0.065c-0.007,0.045,0,0.179,0,0.285h0.065v0.109l0.217,0.11
	c0.061,0.004,0.121-0.012,0.172-0.044c0.031,0.011,0.061,0.025,0.088,0.044c0.109-0.007,0.218-0.021,0.324-0.044
	c0.063,0.033,0.131,0.055,0.201,0.065h0.477c0.324,0.072,0.699,0.022,1,0.11l0.474,0.125c0.034-0.008,0.101-0.077,0.13-0.088h0.607
	c0.038-0.108,0.089-0.211,0.152-0.307c0.049,0.039,0.109,0.062,0.172,0.065c0.021-0.045,0.061-0.077,0.108-0.088v0.022
	c-0.163,0.217-0.288,0.462-0.368,0.723h0.043c0,0,0.028-0.063,0.043-0.044v0.021c0.133,0.115,0.256,0.239,0.369,0.372
	c0.051,0.125,0.117,0.243,0.199,0.352c-0.047,0.179-0.135,0.344-0.26,0.481c-0.068,0.034-0.075-0.034-0.107,0
	c0.018,0.034,0.025,0.072,0.021,0.11c-0.174,0.077-0.317,0.207-0.412,0.372c0.075,0.422,0.022,0.856-0.152,1.249
	c0.038,0.027,0.084,0.043,0.131,0.044c0.041-0.034,0.045-0.041,0.086-0.022c0.043,0.02,0.016-0.009,0.043,0.044
	c0.006,0.021,0.018,0.009,0,0.022c-0.023,0.063,0,0.04-0.064,0.066c-0.107,0.035-0.224,0.027-0.325-0.022
	c-0.044,0.05-0.095,0.095-0.151,0.131c-0.003,0.031,0.005,0.062,0.021,0.088c-0.119,0.143-0.258,0.268-0.412,0.372
	c-0.07-0.032-0.154-0.023-0.217,0.021c-0.008,0.047-0.021,0.09-0.043,0.132c-0.104,0.097-0.221,0.178-0.348,0.241
	c-0.08-0.01-0.16-0.002-0.237,0.021c-0.028,0.041-0.035,0.115-0.065,0.153c-0.107,0.092-0.223,0.173-0.347,0.241
	c-0.062,0.019-0.165-0.024-0.217,0c-0.05,0.045-0.035,0.153-0.087,0.199c-0.12,0.066-0.236,0.14-0.348,0.219
	c-0.08-0.009-0.159-0.023-0.238-0.043c0.006,0.075-0.01,0.15-0.043,0.219c-0.154,0.151-0.369,0.225-0.584,0.199
	c0.006,0.068-0.002,0.136-0.022,0.201c0,0-0.362,0.238-0.368,0.24c-0.1,0.045-0.193-0.074-0.238,0.021l-0.043,0.022
	c0.012,0.043,0.012,0.089,0,0.132c-0.199,0.027-0.318,0.162-0.52,0.199c-0.037-0.048-0.092-0.079-0.152-0.088
	c-0.287,0.289-1.426,0.055-1.8,0.131h-0.632c-0.037-0.016-0.059-0.066-0.107-0.088c-0.189,0.113-0.416,0.145-0.629,0.088
	c-0.033-0.063-0.103-0.098-0.173-0.088c-0.246,0.12-0.534,0.12-0.78,0c-0.082,0.227-0.608,0.02-0.715,0
	c-0.176,0.104-0.386,0.137-0.585,0.088c-0.022-0.063-0.086-0.1-0.152-0.088c-0.006,0-0.037,0.084-0.043,0.088
	c-0.235,0.028-0.473-0.002-0.693-0.088c-0.181,0.112-0.401,0.145-0.607,0.088c-0.023-0.052-0.074-0.086-0.13-0.088
	c-0.181,0.112-0.401,0.145-0.607,0.088c-0.025-0.04-0.063-0.07-0.108-0.088c-0.229,0.127-0.508,0.127-0.737,0
	c-0.229,0.129-0.508,0.129-0.737,0c-0.229,0.129-0.509,0.129-0.737,0c-0.229,0.13-0.508,0.13-0.737,0
	c-0.229,0.13-0.509,0.13-0.737,0c-0.094,0.219-0.624,0.031-0.737,0c-0.181,0.112-0.401,0.145-0.607,0.088
	c-0.023-0.052-0.074-0.086-0.13-0.088c-0.174,0.111-0.387,0.144-0.585,0.088c-0.031-0.044-0.077-0.075-0.13-0.088
	c-0.229,0.126-0.507,0.126-0.737,0c-0.166,0.111-0.372,0.143-0.563,0.088c-0.034-0.063-0.103-0.098-0.173-0.088
	c-0.08,0.225-0.562,0.025-0.672,0c-0.181,0.112-0.401,0.145-0.607,0.088c-0.015-0.019-0.661,0-0.845,0
	c-0.514,0.021-1.028-0.002-1.538-0.066c-0.122-0.023-0.129,0.072-0.26,0.045L4.615,25.29c-0.028-0.077-0.064-0.149-0.108-0.219
	c-0.064,0.024-0.135,0.024-0.2,0c-0.16-0.07-0.291-0.194-0.368-0.352c0.013-0.058,0.013-0.117,0-0.175
	c-0.065,0.017-0.133,0.023-0.2,0.021c-0.081-0.119-0.183-0.223-0.3-0.307c0.013-0.072,0.02-0.146,0.022-0.219H3.445
	c-0.064,0.021-0.132,0.028-0.2,0.021c-0.066-0.1-0.233-0.18-0.282-0.285c0.005-0.08-0.017-0.16-0.063-0.228
	c-0.02-0.011-0.11,0.011-0.13,0c-0.127-0.081-0.231-0.194-0.3-0.329c0.012-0.05,0.012-0.103,0-0.152
	c-0.112,0.014-0.224-0.027-0.3-0.11L2.1,22.871c-0.094-0.001-0.188-0.009-0.282-0.021c-0.01-0.028-0.016-0.058-0.018-0.088
	c0.072-0.015,0.141-0.045,0.2-0.088c-0.015-0.033,0,0,0-0.066c-0.018-0.011-0.032-0.025-0.043-0.043
	c-0.058,0.004-0.115,0.004-0.173,0c-0.068-0.109-0.231-0.2-0.282-0.308c0.005-0.062-0.01-0.123-0.043-0.175
	c-0.043,0.01-0.087,0.01-0.13,0c-0.04-0.045-0.093-0.076-0.152-0.088v0.066c-0.086-0.004-0.17-0.034-0.238-0.088
	C0.918,21.954,0.9,21.9,0.888,21.885c-0.16,0.206-0.447,0.262-0.672,0.131c-0.121-0.163-0.161-0.373-0.108-0.569l0.2-0.153h0.169
	c0.054-0.035-0.032-0.055,0.087-0.088c0.076,0.063,0.165,0.107,0.26,0.131v-0.107c-0.019-0.033-0.027-0.072-0.024-0.109
	c-0.051,0.008-0.103,0.001-0.15-0.02c-0.304-0.209-0.49-0.551-0.5-0.92c0.033-0.244-0.021-0.493-0.15-0.703
	c0.175-0.275,0.637-0.449,0.758-0.701c0.034,0.019,0.074,0.019,0.108,0c0.052-0.397,0.059-0.8,0.022-1.199h0.044
	c0.079-0.004,0.159-0.004,0.238,0c0.011-0.042-0.006-0.087-0.043-0.11c0.007-0.06,0.021-0.118,0.043-0.175
	c-0.032-0.056,0-0.025-0.065-0.044c-0.101,0.071-0.227,0.095-0.347,0.066c-0.002-0.017-0.01-0.032-0.022-0.044l0.022-0.11
	c0.536-0.019,1.221-0.106,1.885-0.11v0.022h0.022c-0.007,0.052,0.001,0.104,0.022,0.153c0.234-0.049,0.474-0.073,0.713-0.071
	c0.631-0.092,1.27-0.122,1.907-0.088V17h0.13v0.066h1.194V17h0.13v0.066c1.027-0.017,2.05,0.123,3.034,0.416
	c0.247,0.066,0.502,0.096,0.758,0.088c0.102,0.023,0.209,0.008,0.3-0.045h-0.105c-0.318-0.102-0.644-0.175-0.975-0.218
	c-0.681-0.2-1.407-0.379-2.1-0.526v-0.044c0.018-0.011,0.032-0.026,0.043-0.044c-0.035-0.022-0.065-0.052-0.087-0.088
	c-0.122,0.03-0.25,0.023-0.368-0.022c-0.009-0.1-0.032-0.1-0.043-0.2H7.3c0.002-0.027,0.019-0.053,0.043-0.066V16.3H6.934
	c-0.17-0.041-0.346-0.056-0.52-0.044c-0.018-0.032-0.04-0.062-0.065-0.088C6.287,15.51,6.323,14.847,6.457,14.2
	c-0.09-0.007-0.08,0-0.108-0.066l0.065-0.021c0.186-0.037,0.377-0.037,0.563,0c0.074-0.002,0.148-0.017,0.217-0.044
	c0.048-0.022,0.105-0.002,0.13,0.044h0.65c-0.1-0.184-0.187-0.374-0.26-0.57l0.065-0.022c0.011-0.006,0.183,0.02,0.282,0.022v-0.047
	c-0.022-0.033-0.037-0.07-0.043-0.109c-0.086-0.063-0.193-0.095-0.3-0.088c-0.036-0.061-0.058-0.129-0.065-0.2
	c0.042-0.015,0.086-0.022,0.13-0.022c0.249-0.001,0.489,0.093,0.672,0.263l0.043,0.2c0.112,0.064,0.229,0.123,0.347,0.175v-0.131
	h0.2C9.024,13.188,9.043,12.792,9.1,12.4V8.5h0.044v3.9C9.218,12.79,9.239,13.188,9.209,13.583z"/>
</svg>
