<svg xmlns="http://www.w3.org/2000/svg" width="40" height="40" viewBox="0 0 40 40">
  <defs>
    <style>
      .cls-1 {
        fill: #fff;
        fill-rule: evenodd;
      }
    </style>
  </defs>
  <path id="Color_Fill_1" data-name="Color Fill 1" class="cls-1" d="M8.782,21.742a3.516,3.516,0,0,1,1.882.245h1.882a0.187,0.187,0,0,1,.145-0.1V21.448a0.524,0.524,0,0,1,.338,0,0.253,0.253,0,0,1,.241.245H13.076v0.2a2.2,2.2,0,0,1,.241.147V21.6h0.145a1.694,1.694,0,0,0,.048.393,0.67,0.67,0,0,0,.193.049,1.056,1.056,0,0,1,.1-0.343v0.2h0.145a1.929,1.929,0,0,0,.1-0.54,3,3,0,0,1,.531-0.049V21.252a0.589,0.589,0,0,1-.145-0.294,1.168,1.168,0,0,0,.145-0.147s0.009,0.192.048,0.1v-0.1a0.985,0.985,0,0,1,.241-0.1,1.534,1.534,0,0,0,.531.1,0.487,0.487,0,0,1,.241-0.294h0.338v0.245a0.742,0.742,0,0,0,.338,0,0.585,0.585,0,0,0,.1-0.393,1.454,1.454,0,0,0,.338,0,0.345,0.345,0,0,0,.048-0.147h0.1v0.147a0.231,0.231,0,0,0,.145-0.049,0.163,0.163,0,0,1-.1-0.049,1.846,1.846,0,0,0,.386-0.2,0.781,0.781,0,0,1,.483.1h1.544c0.04-.159-0.024-0.075.1-0.147V20.27c1.223,0.029,2.706.126,3.908,0.1v0.2c-1.029-.027-2.248.035-3.184,0.049v0.147H20.41v0.1a0.52,0.52,0,0,0-.386.147H19.4l-0.048.1c-0.4.113-1.114-.33-1.5-0.1a6.181,6.181,0,0,0-.579.491H17.226v0.049h0.338v0.54h0.1a0.552,0.552,0,0,0,.434-0.1,0.354,0.354,0,0,0,.338.245,0.5,0.5,0,0,1,.386,0,2.856,2.856,0,0,0-.1-0.589,3.5,3.5,0,0,1,1.206-.1,12.788,12.788,0,0,0,1.978.344q-0.024.393-.048,0.785a7.488,7.488,0,0,1,1.4.2,7.27,7.27,0,0,0,1.11.049,8.451,8.451,0,0,0,1.544.245,0.76,0.76,0,0,1,.627-0.245v0.049H26.49v0.049a0.87,0.87,0,0,0-.29-0.049,0.706,0.706,0,0,0-.29.393,0.465,0.465,0,0,1,.145.2c0.659,0,1.4.047,2.123,0.049v0.245h0.1c0.32-.193,1.566.167,2.027-0.049a3.137,3.137,0,0,1,.29-0.294H32.28a2.894,2.894,0,0,1,.338.344h0.434v0.1h1.785c1.465,0,3.054-.052,4.439.049V23.951a0.6,0.6,0,0,1-.193-0.2h0.627a0.173,0.173,0,0,0,.1.049v0.147a0.165,0.165,0,0,0-.1.049H40v0.638H39.132a0.585,0.585,0,0,1-.338.1,17.862,17.862,0,0,0-2.557-.049,19.011,19.011,0,0,0-3.619.147,11.416,11.416,0,0,1-2.606-.049,4.375,4.375,0,0,0-1.448.049,1.179,1.179,0,0,1-.434-0.049,8.053,8.053,0,0,0-1.544.049v0.147H26.056v0.1a0.336,0.336,0,0,0-.048.2,14.954,14.954,0,0,0-2.219.491h0.048a0.24,0.24,0,0,0,.241.1,0.253,0.253,0,0,0,.048-0.147h0.241v0.147h0.482c0.093-.19.143-0.2,0.434-0.2a0.88,0.88,0,0,1,.434-0.049,1.071,1.071,0,0,1,.048.344,0.518,0.518,0,0,1,.29.049c0.09,0.144-.077.153,0.193,0.2a1.311,1.311,0,0,0,.579.1v-0.2a1.562,1.562,0,0,1,.482-0.049,0.914,0.914,0,0,1,.048.294,4.348,4.348,0,0,1,1.206-.1,4.282,4.282,0,0,0,.965.1h1.013a6.794,6.794,0,0,0,1.11.393V26.6a4.825,4.825,0,0,1,.868.049,0.3,0.3,0,0,0,.1.1,2.006,2.006,0,0,0,.1.834h-0.1V27.534c-0.081-.093-0.11-0.252-0.193-0.343v0.049c-0.124.085-.175,0.2-0.289,0.294a1.422,1.422,0,0,1,.193.54H32.28v0.049h-0.1l-0.145-.393H31.99v0.049c-0.541.39-.345,0.976-0.675,1.521a1.451,1.451,0,0,0-.483.736h0.048v0.049a0.547,0.547,0,0,1,.29,0v0.049H31.122a0.629,0.629,0,0,1-.338.049l-0.145-.245c-0.008,0-.9.39-1.013,0.442A22.53,22.53,0,0,1,26.152,32H7.189c-1.225,0-1.576-.7-2.268-1.227-0.423-.32-0.833-0.611-1.255-0.933A2.748,2.748,0,0,0,2.7,28.957V29.1a0.647,0.647,0,0,1-.483.147c0.04-.159-0.024-0.075.1-0.147a0.244,0.244,0,0,0,.145.049A0.138,0.138,0,0,1,2.509,29.1V28.957c-0.462.015-1.035,0.459-1.013-.442a3.15,3.15,0,0,0,.483-0.294,0.708,0.708,0,0,1-.193-0.2,0.88,0.88,0,0,1-.434.049A3.107,3.107,0,0,0,.193,27.19c-0.047.012-.018,0.038-0.048,0A0.782,0.782,0,0,1,0,26.7l0.338-.1a2.554,2.554,0,0,1-.145-0.687H1.255A0.889,0.889,0,0,0,1.4,25.669H1.11l0.048-.344a0.231,0.231,0,0,1-.145-0.049c0.157-.041.074,0.024,0.145-0.1-0.025-.118-0.078-0.06.048-0.147,0.242-.165.83-0.017,1.062-0.2a0.4,0.4,0,0,1-.241-0.049,3.818,3.818,0,0,1,1.351-.1,19.52,19.52,0,0,0,4.294.2,7.9,7.9,0,0,0,2.268,0A1.187,1.187,0,0,1,8.589,24.1a1.472,1.472,0,0,1-.338.294,6.9,6.9,0,0,1-1.351-.1,3.456,3.456,0,0,1-.869-0.049,0.709,0.709,0,0,1-.145-0.2H4.053A10.75,10.75,0,0,1,4.1,22.184a1.991,1.991,0,0,1,1.11-.245l0.048-.491H5.452c0.048-.155-0.009-0.183.1-0.245a0.949,0.949,0,0,0,.965-0.147,2.2,2.2,0,0,0,1.013.2c0-.57,0-0.88,0-1.472H7.865a14.177,14.177,0,0,1,.048,2.111H7.961v0.049l0.579-.2c0.116-1.07.1-2.664,0.1-4.024V9.08A3,3,0,0,1,8.685,8v8.589C8.685,18.294,8.621,20.343,8.782,21.742Zm8.54-.982c-0.037.034-.108,0.064-0.145,0.1h0.386V20.81h0.048V20.761h-0.29Zm3.04,0.147a1.986,1.986,0,0,1,.82.049A1.99,1.99,0,0,1,20.362,20.908Zm-3.571.049a0.252,0.252,0,0,0,.29,0h-0.29Zm0.338,0a0.139,0.139,0,0,0,.193,0H17.129Zm-0.29.147-0.048.147c0.215,0.017.1,0.05,0.193,0.1a0.459,0.459,0,0,1,.193-0.147V21.153H17.129V21.1H16.84Zm-0.531.049c-0.016.068,0.069,0.071,0.1,0.1C16.439,21.2,16.322,21.168,16.309,21.153Zm-1.592.049a0.173,0.173,0,0,0,.1.049A0.173,0.173,0,0,0,14.717,21.2Zm-0.193.2v0.1h0.048V21.4H14.524ZM6.031,22.429v0.1H6.08v-0.1H6.031Zm0,0.2v0.1H6.08v-0.1H6.031Zm-0.241.589c-0.039.179-.326,0.616-0.29,0.638a0.412,0.412,0,0,0,.241.049V23.8A0.684,0.684,0,0,0,5.79,23.215Zm2.171,0.834H8.154L8.2,23.9c-0.437-.018-0.042-0.078-0.241-0.393v0.54Zm0.1-.245c0.157-.041.074,0.024,0.145-0.1l-0.1-.049V23.607H8.058v0.2Zm1.93,1.129a3.257,3.257,0,0,0,.724.1,8.4,8.4,0,0,0,2.171.589V25.571a1.159,1.159,0,0,0-.868-0.393A7.488,7.488,0,0,0,9.988,24.933Zm16.888,1.374c0.17-.035.12-0.06,0.289-0.1,0.062,0.142-.055.1,0.145,0.147v-0.2a1.192,1.192,0,0,0-.386-0.049V26.16H26.876v0.147Zm1.158,0a0.32,0.32,0,0,0,.338,0H28.034ZM0.1,26.7a0.956,0.956,0,0,0,.048.442H0.386V27.092H0.434a3.688,3.688,0,0,1-.1-0.393H0.1Zm2.123,1.08a0.811,0.811,0,0,0-.241.245H2.027c0.072-.105.166-0.146,0.241-0.245H2.22Zm0.1,0.049a0.6,0.6,0,0,0-.145.491s-0.189.01-.1,0.049h0.1c0.047,0.012.018,0.039,0.048,0a0.877,0.877,0,0,0,.386-0.245H2.461a0.138,0.138,0,0,1-.048.049A0.693,0.693,0,0,0,2.316,27.828Zm-0.531.785a0.4,0.4,0,0,0,0,.2H1.93l0.048-.147H1.93V28.614H1.785Zm26.972,0.834a0.515,0.515,0,0,1-.29.049c-0.091.212-.118,0.253-0.434,0.245a2.756,2.756,0,0,0-.917.245,1.065,1.065,0,0,1,.048.491h0.1c0.4-.348,1.854-0.536,2.075-0.933A1.9,1.9,0,0,0,28.758,29.448Zm-4.777.736H23.739v0.049H23.691a2.032,2.032,0,0,1-.338.982h1.013V31.166A1.141,1.141,0,0,1,23.981,30.184Zm-3.378.54a1.509,1.509,0,0,1-.29.491h0.627v-0.1A4.309,4.309,0,0,0,20.6,30.724Zm-3.04.2a2.864,2.864,0,0,1-.193.294H17.8v-0.1A1.423,1.423,0,0,0,17.563,30.92Zm-2.9.049-0.145.245h0.338A0.368,0.368,0,0,0,14.668,30.969Zm-5.935.049a0.745,0.745,0,0,0-.1.2h0.29A0.522,0.522,0,0,0,8.733,31.018Zm2.992,0-0.145.2h0.338A0.574,0.574,0,0,0,11.725,31.018Z"/>
</svg>
