<?xml version="1.0" encoding="utf-8"?>
<!-- Generator: Adobe Illustrator 16.0.0, SVG Export Plug-In . SVG Version: 6.00 Build 0)  -->
<!DOCTYPE svg PUBLIC "-//W3C//DTD SVG 1.1//EN" "http://www.w3.org/Graphics/SVG/1.1/DTD/svg11.dtd">
<svg version="1.1" id="Layer_1" xmlns="http://www.w3.org/2000/svg" xmlns:xlink="http://www.w3.org/1999/xlink" x="0px" y="0px"
	 width="40px" height="40px" viewBox="0 0 40 40" enable-background="new 0 0 40 40" xml:space="preserve">
<path id="us_m22_locust_ico" fill="#FFFFFF" d="M13.046,8.739h0.123C13.192,8.818,13.203,8.9,13.2,8.982
	c-0.048,0.2-0.048,0.408,0,0.608c-0.083,0.493-0.083,0.996,0,1.489c0.046,0.055,0.113,0.088,0.185,0.091v-1h0.031
	c0.426,0.312,0.459,0.006,0.432,0.82c0.23,0.063,0.469,0.094,0.709,0.091v0.089c0.259-0.01,0.563-0.03,0.864-0.03
	c0.196-0.328,0.521-0.559,0.894-0.638c0.057,0.039,0.162,0.049,0.216,0.091H16.5c-0.243,0.214-0.324,0.075-0.308,0.577h1.234
	c0.009-0.126,0.063-0.245,0.154-0.334c0.354-0.145,0.749-0.155,1.11-0.03c0.109,0.095,0.185,0.223,0.216,0.365h0.586
	c-0.063-0.238-0.074-0.486-0.031-0.729l0.154,0.03v0.7c0.15,0.043,0.308,0.054,0.463,0.03v-0.093h0.339
	c-0.028-0.214,0.067-0.426,0.247-0.547c0.164-0.021,0.33,0.022,0.463,0.122c0.037,0.022,0.025-0.018,0.031-0.03
	c0.288-0.18,0.586-0.342,0.894-0.486c0.082,0.02,0.157,0.063,0.216,0.122c-0.261,0.058-0.326,0.175-0.308,0.516
	c0.531-0.013,1.849-0.179,1.912,0.3c0.022,0.036,0.034,0.079,0.03,0.121c0.123-0.013,0.248-0.013,0.371,0
	c0.186,0.061,0.191,0.224,0.369,0.273c0.113-0.088,0.26-0.121,0.4-0.091c0.051,0.054,0.092,0.115,0.123,0.182
	c0.027,0.057,0.039,0.12,0.031,0.182c-0.043,0.059-0.095,0.11-0.154,0.152v0.03c0.277,0.057,0.54,0.17,0.771,0.334
	c0.086,0.107,0.19,0.199,0.308,0.273v-0.086c-0.259-0.228-0.386-0.57-0.339-0.911h0.185c-0.012,0.398,0.239,0.756,0.617,0.881
	c0.178,0.182,0.374,0.345,0.586,0.486h3.763v0.122c3.088-0.006,6.1,0.127,9.066,0.122v0.547h-0.031
	c-0.232-0.053-0.473-0.063-0.709-0.03l-1.758,0.03c-2.148,0.01-4.365,0.113-6.568,0.122v0.122h-2.406v0.03
	c0.129,0.108,0.234,0.243,0.308,0.395l-0.03,0.091c0.041,0.004,0.083,0.014,0.122,0.03c-0.005,0.072-0.015,0.143-0.03,0.213h-0.029
	v0.03c-0.043-0.003-0.084-0.014-0.123-0.03c-0.102,0.212-0.249,0.399-0.432,0.547l-0.771,0.03v0.03
	c0.063,0.064,0.086,0.157,0.063,0.243c0.318,0.019,0.637,0.019,0.955,0c0.07-0.068,0.123-0.151,0.154-0.243
	c0.176-0.146,0.391-0.241,0.617-0.273c0.068,0.039,0.141,0.069,0.216,0.091c-0.017,0.016-0.038,0.027-0.062,0.03
	c-0.085,0.063-0.178,0.115-0.277,0.152c0.002,0.112-0.008,0.224-0.031,0.334h0.278c0.308,0.175,0.846-0.063,0.987,0.273
	c0.099,0.335,0.15,0.683,0.153,1.033c0.034,0,0.066,0.01,0.093,0.03c0.078,0.101,0.101,0.215,0.186,0.3
	c0.322,0.008,0.646-0.033,0.956-0.121c0.062-0.601,0.546-0.601,1.233-0.578v-0.147h0.4c0.078,0.116,0.111,0.257,0.094,0.396
	c0.033,0.096,0.044,0.198,0.03,0.299c0.103-0.008,0.206-0.008,0.308,0v-0.299h0.063c0.153-0.041,0.316-0.031,0.463,0.029
	c0.191,0.004,0.38,0.045,0.555,0.122c0.104,0.141,0.229,0.264,0.37,0.365c0.105,0.038,0.431-0.177,0.648-0.183
	c0.007,0.013,0.019,0.023,0.03,0.03c-0.032,0.223-0.021,0.45,0.031,0.668c0.012,0.093-0.113,0.244-0.093,0.3l0.093,0.03v0.03h-0.033
	c-0.027,0.025-0.059,0.045-0.092,0.061c0.046,0.115,0.057,0.242,0.03,0.364c0.878,0.355,1.607,1.002,2.065,1.831
	c-0.215-0.004-0.428,0.049-0.616,0.152h0.03c0.17,0.17,0.4,0.24,0.586,0.395c0.062,0.051,0.09,0.2,0.154,0.243h0.247
	c0.135,0.083,0.207,0.238,0.185,0.396c-0.068,0.049-0.064,0.049-0.062,0.09c0.022,0.075,0.054,0.146,0.093,0.214
	c0.19-0.024,0.375,0.072,0.463,0.243c0.272,0.351-0.187,0.47-0.246,0.576v0.668c-0.045,0.025-0.087,0.056-0.123,0.092H38.7v-0.03
	c-0.153-0.199-0.199-0.461-0.123-0.7h-0.458c0.053,0.194-0.08,0.211-0.217,0.3h0.031c0.063,0.028,0.108,0.085,0.123,0.152
	c0,0.012-0.041,0.253-0.062,0.365c-0.048,0.045-0.1,0.085-0.154,0.122c-0.062,0.006-0.123,0.006-0.185,0
	c0.09,0.063,0.147,0.162,0.154,0.272c-0.055,0.025-0.105,0.056-0.154,0.091c0.041,0.053,0.053,0.049,0.031,0.092
	c-0.014,0.078-0.076,0.14-0.154,0.151c-0.082,0.039-0.178,0.027-0.247-0.03v0.062c0.063,0.052,0.099,0.131,0.093,0.213
	c-0.07,0.024-0.143,0.045-0.216,0.062c0.027,0.056,0.038,0.119,0.03,0.182c-0.094,0.05-0.201,0.07-0.308,0.061
	c-0.041-0.045-0.095-0.076-0.153-0.091c0.03,0.077,0.041,0.161,0.031,0.243c-0.046,0.033-0.1,0.055-0.154,0.061V25.3
	c-0.077,0.066-0.178,0.1-0.278,0.091c-0.03-0.049-0.073-0.092-0.123-0.121c-0.028,0.094-0.096,0.172-0.185,0.213
	c0.055,0.028,0.08,0.093,0.062,0.151c0.003,0.058-0.036,0.108-0.093,0.121c-0.047,0.025-0.102,0.036-0.154,0.03
	c-0.039-0.062-0.092-0.113-0.154-0.152c-0.02,0.092-0.093,0.163-0.185,0.182c0.057,0.056,0.081,0.137,0.062,0.213
	c-0.033,0.088-0.004,0.057-0.092,0.092c-0.115,0.041-0.244,0.018-0.339-0.061l-0.216,0.151c0.054,0.058,0.084,0.132,0.086,0.21
	c-0.074,0.093-0.191,0.139-0.309,0.121c-0.039-0.074-0.105-0.129-0.186-0.152c-0.037,0.082-0.103,0.146-0.186,0.183
	c0.053,0.045,0.076,0.114,0.063,0.182c-0.005,0.065-0.057,0.118-0.123,0.122c-0.037,0.022-0.08,0.033-0.123,0.03
	c-0.066-0.067-0.139-0.128-0.216-0.183c-0.021,0.086-0.097,0.148-0.185,0.152c0.02,0.09,0.029,0.182,0.031,0.273
	c-0.063,0.048-0.138,0.079-0.217,0.091l-0.216-0.183c-0.033,0.078-0.103,0.135-0.185,0.152c0.021,0.09,0.021,0.184,0,0.273
	c-0.076,0.04-0.161,0.061-0.248,0.061c-0.041-0.064-0.084-0.109-0.123-0.182c-0.08,0.063-0.175,0.105-0.276,0.121
	c0.072,0.207-0.03,0.287-0.278,0.274c-0.029-0.075-0.084-0.14-0.154-0.182c-0.046,0.06-0.111,0.103-0.185,0.122
	c-0.026,0.078-0.081,0.143-0.153,0.182c-0.135,0.012-0.27,0.001-0.4-0.029c-0.16,0.088-0.342,0.13-0.523,0.121
	c-0.14-0.043-0.261-0.166-0.433-0.213c-0.019,0.254-0.219,0.229-0.494,0.213v-0.029c-0.077-0.066-0.16-0.127-0.247-0.183
	l-0.031,0.152l-0.093,0.03c-0.183,0.031-0.369,0.042-0.555,0.029c-0.032-0.028-0.063-0.059-0.093-0.091
	c-0.09,0.065-0.198,0.097-0.309,0.091c-0.063-0.021-0.085-0.089-0.154-0.121c-0.173,0.138-0.403,0.184-0.616,0.121
	c-0.056-0.057-0.089-0.133-0.093-0.213H27.51v0.121c-0.151,0.078-0.323,0.109-0.492,0.091c-0.057-0.057-0.09-0.133-0.094-0.213
	h-0.309c-0.003,0.079-0.051,0.149-0.123,0.183c-0.109,0.039-0.229,0.039-0.34,0c-0.039-0.053-0.061-0.117-0.062-0.183h-0.247v0.091
	c-0.036,0.036-0.078,0.066-0.123,0.092c-0.141,0.04-0.287,0.05-0.432,0.029c-0.039-0.086-0.122-0.144-0.216-0.152
	c-0.05,0.158-0.154,0.162-0.37,0.152c-0.143-0.027-0.287-0.048-0.432-0.061c-0.064,0.043-0.14,0.064-0.217,0.061
	c-0.043-0.049-0.084-0.1-0.123-0.152l-0.185,0.152c-0.145,0.022-0.292,0.013-0.433-0.029c-0.025-0.059-0.047-0.12-0.062-0.183
	h-0.215v0.091c-0.1,0.093-0.235,0.138-0.37,0.122c-0.061-0.058-0.104-0.131-0.123-0.213H22.3v0.121
	c-0.14,0.079-0.303,0.111-0.463,0.091c-0.052-0.062-0.114-0.113-0.185-0.152c-0.057,0.1-0.164,0.159-0.278,0.152
	c-0.134-0.1-0.493,0.075-0.679-0.029c-0.063-0.07-0.151-0.114-0.246-0.123c-0.119,0.339-0.567,0.019-0.833,0
	c-0.064,0.123-0.205,0.187-0.339,0.152c-0.066-0.141-0.214-0.227-0.37-0.213c-0.052,0.213-0.184,0.227-0.463,0.213
	c-0.055-0.109-0.157-0.188-0.278-0.213v0.121c-0.077,0.066-0.177,0.1-0.278,0.091c-0.082-0.042-0.147,0.042-0.277,0
	c-0.056-0.018-0.117-0.149-0.154-0.091c-0.077,0.066-0.177,0.1-0.278,0.091c-0.255-0.042-0.514-0.052-0.771-0.03
	c-0.003-0.078-0.051-0.149-0.123-0.182c-0.056,0.23-0.227,0.227-0.524,0.213c-0.017-0.016-0.039-0.026-0.062-0.029l-0.031-0.092
	c-0.02-0.025-0.031-0.058-0.031-0.091h-0.186c-0.046,0.194-0.145,0.226-0.4,0.213c-0.017-0.017-0.039-0.026-0.062-0.03
	c-0.024-0.073-0.055-0.145-0.093-0.213c-0.089,0.033-0.184,0.043-0.278,0.03v0.121c-0.108,0.075-0.24,0.107-0.37,0.091
	c-0.046-0.074-0.098-0.146-0.154-0.213c-0.175,0.162-0.411,0.24-0.648,0.213c-0.056-0.08-0.149-0.126-0.247-0.121
	c-0.081,0.082-0.193,0.127-0.308,0.121c-0.092-0.013-0.186-0.013-0.278,0c-0.047-0.082-0.11-0.154-0.185-0.213
	c-0.009,0.139-0.014,0.145-0.123,0.182c-0.164,0.02-0.329,0.029-0.493,0.03c-0.04-0.046-0.094-0.079-0.154-0.091
	c-0.029,0.032-0.061,0.063-0.093,0.091c-0.102,0.021-0.208-0.013-0.277-0.091c-0.091,0.162-0.3,0.061-0.4,0
	c-0.045,0.074-0.132,0.11-0.216,0.091c-0.044-0.038-0.085-0.078-0.123-0.122c-0.074,0.018-0.139,0.062-0.185,0.122
	c-0.188,0.011-0.375-0.011-0.555-0.061c-0.007-0.063-0.041-0.118-0.093-0.152c-0.067,0.269-0.376,0.216-0.617,0.183
	c-0.024-0.103-0.112-0.176-0.216-0.183l-0.031,0.152c-0.159,0.05-0.329,0.061-0.493,0.03c-0.048-0.051-0.081-0.114-0.093-0.183H8.08
	v0.091l-0.093,0.062c-0.134,0.074-0.297,0.074-0.432,0v-0.06c-0.02-0.025-0.031-0.058-0.031-0.091H7.278
	c-0.05,0.158-0.218,0.246-0.376,0.196c-0.031-0.01-0.06-0.025-0.086-0.044l-0.062-0.183c-0.101,0.025-0.204,0.036-0.308,0.03v0.091
	c-0.097,0.072-0.218,0.105-0.339,0.092C6.07,27.857,6.029,27.777,5.983,27.7c-0.1,0.032-0.203,0.054-0.308,0.061
	c-0.139,0.084,0,0.175-0.339,0.183c-0.017-0.017-0.039-0.027-0.062-0.03c-0.041-0.101-0.03-0.121-0.062-0.213
	c-0.092,0.026-0.226-0.062-0.308-0.03l-0.031,0.091c-0.131,0.078-0.298,0.052-0.4-0.061c-0.027-0.043-0.033-0.17-0.062-0.213
	c-0.092,0.084-0.1-0.009-0.247,0c-0.313,0.018-0.178,0.211-0.493-0.091c0.026-0.07,0.047-0.141,0.062-0.213
	c-0.087,0.012-0.175-0.011-0.247-0.062c-0.111,0.028-0.225,0.049-0.339,0.062C3,27.146,2.988,27.116,2.992,26.938
	C3.028,26.9,3.06,26.86,3.085,26.816c-0.08-0.024-0.146-0.08-0.185-0.153c-0.105,0.053-0.226,0.063-0.339,0.03
	C2.517,26.609,2.496,26.515,2.5,26.42c0.053-0.009,0.099-0.043,0.123-0.091c-0.084-0.033-0.15-0.099-0.185-0.183
	c-0.081,0.019-0.164,0.029-0.247,0.03c-0.079-0.08-0.123-0.188-0.123-0.3l0.247-0.122v-0.03c-0.208-0.02-0.1-0.109-0.216-0.182
	c-0.089-0.059-0.268,0.093-0.308-0.122c-0.023-0.069-0.023-0.144,0-0.213C1.876,25.2,1.953,25.154,2,25.084
	c-0.055-0.062-0.097-0.135-0.123-0.213c-0.059-0.053-0.186-0.01-0.247-0.061c-0.026-0.022-0.035-0.101-0.062-0.121
	c0.004-0.139,0.119-0.248,0.257-0.245c0.007,0.001,0.014,0.001,0.021,0.002v-0.274l-0.185-0.029C1.615,24.07,1.594,23.985,1.6,23.9
	c0.114-0.04,0.218-0.102,0.308-0.183c-0.015-0.028,0.015-0.153,0-0.182c-0.046-0.05-0.1-0.106-0.154-0.152
	c-0.023-0.142,0.037-0.283,0.154-0.364c0.069,0.026,0.08,0.054,0.123,0.029c0.059-0.082,0.1-0.175,0.123-0.273
	c-0.088-0.139-0.15-0.294-0.185-0.455C1.7,21.9,1.389,21.455,1.11,21.043c0.018-0.059,0.028-0.12,0.031-0.182
	c0.056-0.037,0.109-0.077,0.159-0.122l-0.031-0.517c0.02-0.087,0.071-0.252,0.093-0.334c-0.023-0.164-0.056-0.328-0.098-0.488
	c0.073-0.127,0.135-0.259,0.185-0.396H0.093l0.031-0.942H0V17c0.221,0.029,0.438,0.08,0.648,0.152
	c0.581-0.254,1.193-0.427,1.82-0.517v-0.118c0.188,0.012,0.375-0.009,0.555-0.062c0.051-0.133,0.124-0.256,0.216-0.365l0.093-0.03
	c0.003-0.051,0.003-0.102,0-0.152c0.271-0.079,0.551-0.12,0.833-0.122v-0.06c0.086-0.023,0.062,0.067,0.123,0.061
	c0.096-0.033,0.188-0.074,0.278-0.121c0.081,0.026,0.164,0.046,0.247,0.061c0.138-0.052,0.285-0.073,0.432-0.061
	c0.053,0.04,0.118,0.062,0.185,0.061c0.052-0.012,0.136-0.073,0.216-0.091c0.029,0.101,0.012,0.095,0.123,0.122
	c0.083-0.075,0.176-0.136,0.278-0.182c0.026,0.1-0.015,0.046,0.062,0.091c0.416-0.208,0.864-0.342,1.326-0.395l0.586,0.061
	L7.99,15.395h0.028c0.12,0.037,0.246,0.047,0.37,0.03c0.031,0.107,0.065,0.1,0.093,0.213c0.026,0.047,0.026,0.104,0,0.152
	c-0.262,0.025-0.339,0.143-0.308,0.425H8.2c0.099-0.034,0.204-0.044,0.308-0.03c0.031-0.062,0.087-0.106,0.154-0.122V15.97H8.82
	v0.091c1.15,0,2.46,0,3.608,0V15.97h0.154v0.091h0.092v0.091c0.225-0.007,0.134-0.09,0.247-0.152h0.247
	c0.269-0.035,0.29-0.2,0.278-0.517c-0.067-0.086-0.085-0.22-0.154-0.3c-0.46-0.219-0.974-0.303-1.48-0.243
	c-0.077-0.077-0.148-0.158-0.216-0.243c-0.066-0.422-0.077-0.852-0.031-1.276c-0.552-0.108-1.089-0.281-1.6-0.516
	c-0.244-0.09-0.493-0.021-0.493-0.365c0.664-0.075,1.334-0.085,2-0.03c0.103-0.281,0.134-0.584,0.092-0.881
	c0.121-0.235,0.333-0.411,0.586-0.486c0.058-0.255,0.152-0.5,0.278-0.729l0.278,0.086V9.985c-0.06-0.02-0.122-0.03-0.185-0.03V9.8
	h0.123c0-0.378,0.006-0.68,0-1.033c0.049-0.018,0.102-0.028,0.154-0.03c-0.001-0.154,0.02-0.308,0.062-0.456
	c0.074-0.25-0.017-0.631,0.031-0.851v-2.1C12.848,4.887,12.858,4.44,12.922,4c0,0.844,0.031,1.783,0.031,2.673V8.01
	C13.013,8.249,13.044,8.493,13.046,8.739z"/>
</svg>
