<?xml version="1.0" encoding="utf-8"?>
<!-- Generator: Adobe Illustrator 16.0.0, SVG Export Plug-In . SVG Version: 6.00 Build 0)  -->
<!DOCTYPE svg PUBLIC "-//W3C//DTD SVG 1.1//EN" "http://www.w3.org/Graphics/SVG/1.1/DTD/svg11.dtd">
<svg version="1.1" id="Layer_1" xmlns="http://www.w3.org/2000/svg" xmlns:xlink="http://www.w3.org/1999/xlink" x="0px" y="0px"
	 width="40px" height="40px" viewBox="0 0 40 40" enable-background="new 0 0 40 40" xml:space="preserve">
<path id="us_m4a3_105_sherman_ico" fill="#FFFFFF" d="M14.186,6.48h0.966V6.416c-0.017-0.017-0.027-0.039-0.031-0.062h0.405v-0.03
	h0.031v0.031c0.06,0.1-0.038,0.122,0.187,0.125c0.047-0.075,0.068-0.162,0.062-0.25h0.125c-0.008,0.385,0.163,0.428,0.561,0.406
	c0.24,0.151,0.848-0.094,1.122,0.031c0.464,0.064,0.932,0.095,1.4,0.094c0.383,0.047,0.769,0.057,1.154,0.031h2.182v0.25
	c-1.25,0-2.618,0.029-3.899,0.031v0.093c-0.2,0-0.8-0.079-0.842-0.062c-0.265,0.065-0.542,0.075-0.811,0.031
	c-0.214-0.006-0.479,0.063-0.748,0.063c-0.056,0.224-0.077,0.456-0.062,0.687h-0.056c-0.08,0.049-0.295,0.012-0.374,0.063
	c0.212,0.2-0.067,1.008,0.062,1.311h0.062v0.187c0.21,0,0.548,0.078,0.592,0.063c0.142-0.018,0.248-0.138,0.249-0.281
	c-0.1-0.33,0.267-0.194,0.374-0.343c0.124-0.16,0.159-0.371,0.093-0.562h0.156l0.031,0.25c0.055,0.009,0.102,0.044,0.125,0.094
	c0.03,0.094,0.019,0.196-0.031,0.281h0.094c0.348-0.169,0.741-0.224,1.122-0.156c-0.013-0.095-0.002-0.191,0.031-0.281
	c-0.006,0.105,0.004,0.21,0.031,0.313l0.218,0.031l0.062-0.125l0.125,0.031c0.096-0.124,0.214-0.229,0.347-0.312
	c0.047,0.032,0.1,0.053,0.156,0.062v0.468c0.355,0.01,0.675,0.153,1.029,0.187c-0.021,0.134,0.072,0.259,0.205,0.279
	c0.005,0,0.01,0.001,0.014,0.001c0.065-0.299,0.16-0.592,0.281-0.874h0.125v0.063c-0.066,0.1-0.057,0.279-0.125,0.374
	c-0.052,0.014-0.104,0.024-0.156,0.031c-0.066,0.158-0.088,0.331-0.063,0.5c0.152,0.038,0.244,0.116,0.405,0.156
	c0.126-0.139,0.323-0.188,0.5-0.125c0.271,0.091,0.561,0.112,0.843,0.062l0.03-0.094c-0.149-0.048-0.249-0.187-0.249-0.343
	C22.2,9.209,22.106,9.23,22.014,9.257l-0.031-0.094c-0.094-0.13,0-0.242,0.156-0.25c0.047,0.079,0.039,0.057,0.156,0.062
	c0.007-0.128,0.077-0.246,0.188-0.312c0.314-0.134,0.661-0.178,1-0.125V9.63h-0.193v0.219h0.188V9.788
	c0.066-0.025,0.248,0.06,0.404,0.031V9.757c0.043-0.152,0.054-0.312,0.031-0.468h0.093c0.019,0.22-0.002,0.442-0.062,0.655h0.062
	c0.147-0.074,0.321-0.074,0.468,0l0.188,0.218c-0.023,0.238-0.033,0.478-0.031,0.718h0.031c0.044-0.034,0.102-0.046,0.156-0.031
	h0.031c-0.027,0.038-0.049,0.081-0.063,0.125c0.033,0,0.066,0.01,0.094,0.031c-0.077,0.04-0.021-0.013-0.063,0.062
	c0.098,0.079,0.164,0.189,0.188,0.312c0.071-0.012,0.034-0.029,0.094,0c0,0-0.091,0.041-0.063,0.062h0.031l0.033,0.126
	c0.133,0,0.33,0.128,0.5,0.156l0.562-0.094c0.011-0.143,0.054-0.282,0.125-0.406h0.03c0.026,0.1-0.015,0.048,0.063,0.094v-0.062
	c0.23-0.277,0.088-0.507,0.655-0.5c0.1,0.085,0.212,0.174,0.312,0.25c0.016,0.148-0.023,0.473,0,0.531
	c0.209,0.246,0.52,0.384,0.842,0.375v0.094h0.625v0.281c0.621,0.041,1.266,0.062,1.933,0.063h1.028c0.562,0.121,1.301-0.1,1.9,0.031
	c0.414,0.048,0.832,0.059,1.247,0.031l1.839,0.031v0.904c-2.639-0.007-5.35,0.083-7.949,0.156v0.281
	c-0.354-0.046-0.715,0.019-1.029,0.187c0.035,0.056,0.047,0.123,0.031,0.188c-0.231-0.086-0.201,0.03-0.375,0.094H27.03
	c-0.021-0.076-0.08-0.136-0.156-0.156c-0.069,0.057-0.142,0.109-0.218,0.156c0.03,0.12,0.096,0.229,0.187,0.312
	c0.437,0.128,0.899,0.139,1.341,0.031c0.129-0.048,0.183-0.218,0.313-0.281c0.075,0.101,0.188,0.168,0.313,0.187
	c0.136-0.125,0.314-0.192,0.5-0.187c0.047,0.026,0.102,0.037,0.155,0.031c0.058,0.122,0.144,0.229,0.249,0.313l0.5,0.031v0.129h0.53
	c0.075-0.073,0.158-0.135,0.249-0.187v0.031c-0.051,0.034-0.076,0.096-0.063,0.156c0.139-0.004,0.275,0.017,0.405,0.063
	c0.013-0.061,0.046-0.116,0.095-0.156H31.4v-0.035c-0.111-0.011-0.213-0.068-0.281-0.156l0.031-0.063h-0.035
	c0.027-0.02,0.061-0.031,0.094-0.031v-0.032h0.031v0.031c0.091,0.062,0.125,0.167,0.218,0.219c0.019-0.035,0.054-0.059,0.094-0.063
	l0.218,0.25l0.094-0.031c0.116,0.106,0.212,0.233,0.281,0.375h0.03v-0.033c0.079-0.067,0.163-0.13,0.249-0.188
	c-0.084-0.266-0.073-0.552,0.031-0.811c0.07-0.012,0.034-0.029,0.093,0c0.091,0.035,0.058,0.005,0.095,0.094
	c0.1,0.334,0.121,0.687,0.062,1.03c0.101,0.026,0.048-0.015,0.093,0.062c-0.127,0.052-0.1,0.2-0.093,0.375
	c0.073,0.074,0.157,0.138,0.249,0.188c0.223-0.148,0.522-0.09,0.672,0.133c0.004,0.008,0.01,0.016,0.014,0.023
	c0.074,0.201,0.126,0.41,0.156,0.623c0.049,0.094,0.145,0.153,0.249,0.156c0.124-0.166,0.323-0.26,0.53-0.25v0.156H34.7v0.156
	h-0.125v0.156h0.218v0.312h0.561c0.055-0.118,0.087-0.245,0.095-0.375c-0.102-0.179-0.185-0.366-0.248-0.562l0.218-0.03
	c0.197,0.281,0.265,0.634,0.188,0.968l-0.344,0.406h0.748l0.063-0.406l0.218,0.031l-0.031,0.406h0.312v0.25h-0.031v0.03H36.1
	c-0.072,0.289-0.291,0.444-0.343,0.749c0.149,0.202,0.329,0.381,0.53,0.531h0.436c0.284-0.013,0.568,0.02,0.842,0.094
	c0.412,0.135,0.639,0.419,1,0.531c-0.012,0.07-0.028,0.034,0,0.094L38.6,20.15c0.075-0.036,0.055-0.064,0.125-0.031
	c0.006,0.041,0.006,0.084,0,0.125h0.031c0.146,0.175,0.303,0.342,0.469,0.5c0.043,0.059,0.045,0.134,0.094,0.188
	c0.057,0.021,0.109,0.054,0.156,0.094c0.189,0.377,0.337,0.775,0.437,1.186H40v0.125h-0.093v0.125l-0.748-0.125
	c-0.06,0.236-0.06,0.482,0,0.718h-0.095c-0.024,0.193-0.1,0.376-0.217,0.531c-0.059,0-0.029-0.028-0.063,0.031h-0.032
	c-0.009,0.092,0.041,0.18,0.125,0.218c0.118,0.023,0.24,0.001,0.343-0.063c0.016,0.025,0.037,0.047,0.063,0.063
	c-0.004,0.023-0.014,0.045-0.031,0.063c-0.035,0.09-0.006,0.058-0.094,0.094c-0.192,0.078-0.409,0.067-0.592-0.031
	c-0.125,0.209-0.338,0.309-0.469,0.5c-0.054-0.025-0.057-0.082-0.093-0.031c-0.026,0.064-0.058,0.127-0.094,0.188
	c-0.185,0.171-0.383,0.327-0.593,0.468l-0.094-0.031c-0.082,0.044-0.053,0.173-0.156,0.25c-0.199,0.116-0.377,0.264-0.529,0.438
	c-0.026-0.027-0.059-0.049-0.094-0.063l-0.031,0.063c-0.121,0.222-0.469,0.382-0.655,0.624c-0.047-0.027-0.022-0.09-0.062-0.031
	c-0.203,0.244-0.434,0.464-0.687,0.654c-0.053,0.023-0.1-0.018-0.155,0c0.011,0.041,0.011,0.085,0,0.125
	c-0.192,0.105-0.391,0.199-0.592,0.281c-0.137,0.002-0.271-0.008-0.406-0.031l-0.03,0.095c-0.335,0.016-0.67-0.005-1-0.062v0.062
	c-0.282,0.048-0.571,0.026-0.843-0.062c0,0-0.578,0.063-0.686,0.062H30.99v-0.065H30.9v0.063c-0.292,0.049-0.592,0.027-0.873-0.063
	c-0.098,0.003-0.192,0.023-0.281,0.063h-0.721v-0.063H28.9v0.063c-0.281,0.049-0.57,0.027-0.842-0.063
	c-0.106-0.037-0.101,0.053-0.125,0.063h-0.685c-0.092-0.027-0.187-0.049-0.281-0.063v0.063c-0.292,0.049-0.591,0.027-0.873-0.063
	c-0.097,0.003-0.192,0.023-0.28,0.063H25.1v-0.063h-0.127v0.063c-0.322,0.014-0.646-0.007-0.966-0.063v0.063
	c-0.323,0.016-0.647-0.006-0.966-0.063v0.063c-0.334,0.014-0.67-0.008-1-0.063v0.063c-0.334,0.015-0.67-0.006-1-0.063v0.063
	c-0.281,0.049-0.571,0.027-0.842-0.063c-0.097,0.003-0.192,0.023-0.28,0.063H19.2c-0.037-0.016,0.026-0.063-0.062-0.063
	c-0.088,0-0.026,0.049-0.062,0.063c-0.323,0.014-0.647-0.007-0.966-0.063v0.063c-0.334,0.015-0.669-0.006-1-0.063
	c-0.271,0.09-0.561,0.111-0.842,0.063v-0.063c-0.106,0.006-0.211,0.026-0.312,0.063h-0.679c-0.027-0.012-0.019-0.1-0.125-0.063
	c-0.022,0.008,0.013,0.056-0.125,0.063c-0.157,0.009-0.873-0.063-0.873-0.063c-0.271,0.091-0.561,0.112-0.842,0.063v-0.063
	c0,0-0.578,0.063-0.686,0.063c-0.116-0.012-0.23-0.033-0.343-0.063c-0.1-0.006-0.057,0.047-0.093,0.063h-0.561
	c-0.745,0-1.483-0.025-2.307-0.031c-0.042-0.094,0.021-0.084-0.156-0.094c-0.318-0.061-0.623-0.177-0.9-0.344
	c0.012-0.09,0.051-0.038-0.031-0.094c-0.041-0.007-0.083-0.007-0.125,0c-0.239-0.106-0.47-0.232-0.69-0.375l0.031-0.062H7.42
	c-0.041-0.012-0.084-0.012-0.125,0c-0.247-0.11-0.486-0.235-0.717-0.375l0.031-0.095c-0.072-0.015-0.146-0.015-0.218,0
	c-0.222-0.136-0.451-0.259-0.686-0.368c0.013-0.101,0.051-0.043-0.031-0.101c-0.327-0.094-0.627-0.265-0.874-0.5
	c-0.074,0.045-0.018,0.053-0.094,0.031c-0.26-0.064-0.491-0.217-0.653-0.431c-0.047-0.031-0.108-0.031-0.156,0
	c-0.177-0.099-0.344-0.214-0.5-0.343c-0.137-0.133-0.076-0.328-0.187-0.438c-0.054,0.012-0.11,0-0.156-0.031
	c-0.25-0.412-0.37-0.891-0.343-1.373c-0.075-0.048-0.139-0.111-0.187-0.187c-0.265,0.048-0.666-0.036-0.966,0.03
	C1.048,22.402,0.525,22.475,0,22.491v-0.063c0.053-0.163,0.095-0.331,0.125-0.5l0.125-0.062c0.078-0.106,0.088-0.232,0.156-0.344
	c0.1-0.159,0.26-0.33,0.343-0.5c-0.002-0.073,0.008-0.146,0.03-0.217c0.043,0.008,0.088-0.004,0.121-0.033
	c0.091-0.131,0.172-0.282,0.249-0.405c0.097-0.267,0.245-0.51,0.436-0.718c-0.021-0.061-0.031-0.124-0.031-0.188l0.53-0.031V19.4
	H2.12c0.007-0.064,0.028-0.128,0.062-0.185c-0.134-0.032-0.233-0.145-0.249-0.28C1.969,18.901,1.992,18.856,2,18.809
	c0.115,0.016,0.232,0.006,0.343-0.031c0.089-0.119,0.143-0.26,0.156-0.406c-0.023-0.004-0.045-0.014-0.062-0.031H2.369
	c-0.007,0.057-0.029,0.11-0.062,0.156c-0.074-0.059-0.158-0.102-0.249-0.125c0.012,0.07,0.029,0.034,0,0.094
	c-0.115-0.015-0.232-0.004-0.343,0.031c0.016,0.029,0.016,0.064,0,0.094c-0.044,0.016-0.086,0.036-0.125,0.063
	c-0.521-0.131-1.001-0.389-1.4-0.75c0.034-0.079,0.055-0.163,0.062-0.25c-0.061-0.055-0.113-0.117-0.158-0.187h0.093
	c0.059,0.027,0.023,0.015,0.094,0v0.062c-0.027,0.038-0.027,0.088,0,0.125c0.119,0.017,0.131,0.045,0.249,0.063
	c0.137-0.06,0.263-0.145,0.37-0.25c-0.483-0.399,0.155-1.849,0.9-1.592c0.274,0.118,0.535,0.265,0.779,0.437
	c0.043,0.131,0.118,0.249,0.218,0.344c0.042-0.111,0.167-0.168,0.278-0.127c0.001,0.001,0.002,0.002,0.003,0.002v-0.094h0.164
	v-0.062c-0.036-0.079-0.036-0.171,0-0.25h0.125c0.017,0.017,0.039,0.027,0.062,0.031v0.094L3.9,16.216
	c0.002-0.104-0.008-0.21-0.031-0.312h0.309c0.292,0.057,0.593,0.035,0.873-0.063c0,0.178,0.011,0.186,0.187,0.188
	c0.2-0.072,0.412-0.104,0.624-0.094v-0.093h0.062c0.089-0.054,0.262-0.036,0.343-0.094c0.063-0.051-0.022-0.036,0.062-0.062
	c0.136-0.056,0.292-0.031,0.405,0.063c0.351-0.1,0.739-0.064,1.122-0.156l2.245-0.343l0.655-0.062
	c0.186-0.044,0.444-0.024,0.655-0.094c0.096-0.091,0.214-0.156,0.343-0.187c0.235,0.11,0.505,0.122,0.748,0.031
	c0.263-0.064,0.616-0.03,0.9-0.125c0.261-0.098,0.534-0.161,0.811-0.187v-0.188c-0.378,0.029-0.749-0.122-1-0.406l0.031-1.373
	c-0.411-0.14-0.848-0.183-1.278-0.125c-0.053-0.117-0.075-0.246-0.062-0.374c0.042-0.142,0.052-0.291,0.031-0.437H12.5V11.63
	c-0.316-0.313-0.569-0.684-0.748-1.092c0.116-0.067,0.221-0.151,0.312-0.25h0.249c0.101,0.063,0.186,0.148,0.249,0.25
	c0.01,0.116,0.031,0.23,0.062,0.343c0.027,0.021,0.06,0.031,0.094,0.031c0.113-0.108,0.239-0.202,0.374-0.281
	c0.037,0.038,0.068,0.08,0.093,0.125c-0.14,0.023-0.264,0.102-0.343,0.219c0.164,0.041,0.332,0.061,0.5,0.062v-0.562H14
	c0-0.486-0.06-0.877-0.062-1.4c0.178-0.054,0.137-0.306,0.125-0.531c0.06-0.393,0.071-0.791,0.031-1.186
	c-0.182,0.013-0.361,0.055-0.53,0.125v0.094h-0.158l-0.031-0.161c-0.367-0.088-0.747-0.108-1.122-0.062
	c-0.06,0.056-0.137,0.089-0.218,0.094V7.416c0.058-0.012,0.099-0.065,0.094-0.125c-0.07-0.022-0.144-0.033-0.218-0.031
	c-0.048,0.026-0.102,0.037-0.156,0.031v-0.25h-0.126v-0.25h0.125V6.48c0.29,0.014,0.48-0.025,0.779-0.031V6.324
	c0.127-0.055,0.267-0.076,0.405-0.063c0.07,0.179,0.059,0.2,0.374,0.188c0.256,0.059,0.521,0.07,0.78,0.031V3.858
	c-0.026-0.447-0.016-0.896,0.031-1.342h0.031C14.235,3.836,14.246,5.159,14.186,6.48z M17.927,7.291
	c0.017,0.017,0.028,0.039,0.031,0.062h-0.031V7.291z M14.342,9.07c0,0.463-0.056,0.846-0.062,1.248h0.03l0.624-0.374
	c0.134-0.006,0.263-0.049,0.374-0.125v-0.25h-0.187v0.157c-0.013,0.007-0.023,0.018-0.031,0.031
	c-0.023-0.003-0.045-0.014-0.062-0.031C14.986,9.574,14.977,9.414,15,9.258c0.079-0.12,0.102-0.268,0.062-0.406
	c-0.025-0.312-0.016-0.626,0.028-0.936l-0.374-0.031V7.541c-0.013-0.008-0.023-0.019-0.031-0.031c-0.17-0.039-0.338-0.091-0.5-0.156
	v1.28c0.032,0.144,0.053,0.29,0.062,0.438h0.094L14.342,9.07z M17.865,7.353h0.062v0.031C17.903,7.381,17.881,7.371,17.865,7.353
	L17.865,7.353z M17.553,7.384c0.095-0.013,0.192-0.003,0.281,0.031C17.739,7.429,17.643,7.418,17.553,7.384L17.553,7.384z
	 M18.453,7.384c0.095-0.013,0.191-0.003,0.281,0.031c-0.093,0.013-0.188,0.003-0.277-0.03L18.453,7.384z M17.49,7.416h0.062v0.031
	C17.528,7.444,17.507,7.433,17.49,7.416z M18.737,7.416H18.8v0.031C18.776,7.444,18.754,7.433,18.737,7.416z M17.459,7.478
	c0.036,0.045,0.036,0.11,0,0.156V7.478L17.459,7.478z M18.8,7.478c0.036,0.045,0.036,0.11,0,0.156V7.478L18.8,7.478z M17.491,7.634
	H18.8v0.032h-0.031C18.344,7.733,17.911,7.723,17.491,7.634L17.491,7.634z M3.742,15.934c0.02,0.027,0.031,0.061,0.031,0.094H3.741
	v-0.09L3.742,15.934z M3.773,16.09c0.02,0.027,0.031,0.061,0.031,0.094H3.772v-0.091L3.773,16.09z"/>
</svg>
