<?xml version="1.0" encoding="utf-8"?>
<!-- Generator: Adobe Illustrator 16.0.0, SVG Export Plug-In . SVG Version: 6.00 Build 0)  -->
<!DOCTYPE svg PUBLIC "-//W3C//DTD SVG 1.1//EN" "http://www.w3.org/Graphics/SVG/1.1/DTD/svg11.dtd">
<svg version="1.1" id="Layer_1" xmlns="http://www.w3.org/2000/svg" xmlns:xlink="http://www.w3.org/1999/xlink" x="0px" y="0px"
	 width="40px" height="40px" viewBox="0 0 40 40" enable-background="new 0 0 40 40" xml:space="preserve">
<path id="us_m60a1_rise_passive_era_ico" fill="#FFFFFF" d="M9.209,13.583h0.173v-0.022H9.4l0.043-0.351
	c0.605,0.063,1.212,0.092,1.82,0.088c0.156-0.22,0.355-0.406,0.585-0.548c-0.053-0.077-0.077-0.17-0.065-0.263
	c0.091-0.08,0.224-0.089,0.325-0.022c0.073-0.181,0.225-0.317,0.412-0.372c0.033-0.018,0.071-0.025,0.108-0.021V8.566h0.043v3.483
	c0.19-0.014,0.378-0.043,0.563-0.088l0.715-0.022c0.179-0.037,0.363-0.037,0.542,0c0.114,0.028,0.224,0.072,0.325,0.132
	c0.091,0.065,0.023,0.12,0.2,0.131v-0.109c0.046,0.002,0.089-0.024,0.108-0.066c0.034-0.159,0.056-0.32,0.065-0.482
	c-0.053-0.028-0.015,0.009-0.043-0.044c0.127,0,0.693-0.022,0.693-0.022c0.014,0.019,0.022,0.042,0.022,0.066
	c-0.1,0.041-0.049,0.2-0.022,0.307c0.19,0.006,0.376,0.059,0.542,0.153h-0.043v0.022l-0.043-0.022v0.022
	c-0.003,0.03-0.01,0.06-0.022,0.088h0.043c0.152-0.024,0.307-0.017,0.455,0.021c0.195,0.022,0.392,0.015,0.585-0.021
	c0.1,0.065,0.194,0.139,0.282,0.219c0.116,0.073,0.274,0.075,0.39,0.153c0.062,0.077,0.128,0.15,0.2,0.219h1
	c0.353,0.039,0.708,0.047,1.062,0.022l0.043-0.066l0.5,0.066v0.11c-0.139,0.013-0.276,0.035-0.412,0.066
	c-0.1,0.015-0.084-0.047-0.13-0.066h-2.133c-0.043,0.555-0.593,0.353-0.823,0.7H17.4c0.08-0.041,0.171-0.056,0.26-0.044v0.022h0.022
	v0.066h0.108v0.263h-0.108v0.022c0.098,0.094,0.232,0.142,0.368,0.131c0.055-0.032,0.024,0,0.043-0.066
	c0.027-0.07,0.042-0.144,0.043-0.219h-0.063c-0.002-0.017-0.01-0.032-0.022-0.044v-0.043c0.032-0.024,0.069-0.039,0.108-0.044
	c0.026,0.017,0.056,0.024,0.087,0.022c0.002-0.069,0.017-0.136,0.043-0.2c0.1-0.046,0.218-0.029,0.3,0.044
	c0.02,0.022,0.022-0.022,0.022-0.022c0.1-0.134,0.271-0.195,0.433-0.153c-0.019,0.094-0.056,0.183-0.108,0.263H19
	c0.033-0.019,0.071-0.026,0.108-0.022v0.022H19.09c-0.042,0.017,0.043,0.022,0.043,0.022c0.095-0.018,0.192-0.01,0.282,0.022v0.066
	c0.237,0.013,0.259,0.017,0.5,0.044c0,0.024,0.007,0.047,0.022,0.066c0.023-0.036,0.066-0.054,0.108-0.044
	c0,0.082-0.026,0.053,0.065,0.066c0.015,0.01,0.485,0.066,0.52,0.066v0.066c0.142,0.008,0.277,0.076,0.39,0.088h0.043v-0.043
	c0.066,0.002,0.131,0.01,0.195,0.022v0.066c0.023,0,0.047,0.007,0.065,0.022c0.017,0.026,0.024,0.057,0.021,0.088
	c-0.026,0.049-0.048,0.1-0.065,0.153h0.238c0.078-0.054,0.182-0.054,0.26,0c0.044,0.063,0.08,0.129,0.108,0.2
	c0.009-0.005,0.017-0.013,0.022-0.022c0.078-0.07,0.166-0.129,0.26-0.175c-0.054-0.067-0.044-0.017-0.043-0.109
	c0.076-0.064,0.144-0.138,0.2-0.219c0.04,0.022,0.085,0.03,0.13,0.022c0.02,0.024,0.041,0.046,0.064,0.066
	c0.041-0.02,0.025-0.008,0.088,0c-0.01,0.064-0.035,0.027,0.021,0.066c0.148,0.106,0.309,0.195,0.477,0.263l0.108-0.022l0.022,0.066
	c0.034-0.015,0.073-0.015,0.107,0c0.037,0.041-0.037,0.028,0,0.066c0.051,0.067,0.145,0.086,0.217,0.044
	c0.023,0.024,0.038,0.055,0.043,0.088c0.119-0.016,0.063,0.035,0.131,0.066c0.227,0.147,0.476,0.258,0.736,0.329
	c0,0.07,0.01,0.049,0.065,0.109c-0.044,0.05-0.073,0.11-0.087,0.175c0.068,0.023,0.119,0.082,0.13,0.153
	c-0.082,0-0.126-0.008-0.152,0.044c-0.032,0.033-0.053,0.077-0.087,0.11v0.044c0.086,0.04,0.166,0.091,0.238,0.153
	c-0.02,0.043-0.07,0.09-0.043,0.11c0.013,0.024,0.037,0.041,0.064,0.044c-0.002-0.041,0.025-0.078,0.065-0.088
	c-0.003,0.041,0.024,0.078,0.065,0.088c0.035-0.049,0.035-0.046,0.064-0.044c0.03,0.002,0.023,0.028,0.043,0.044
	c0.017-0.035,0.049-0.06,0.087-0.066c0.019,0.071-0.011,0.034,0.043,0.066l0.065-0.088c0.048,0.022,0.1,0.038,0.152,0.044
	c0.018-0.019,0.04-0.034,0.064-0.044c0.01,0.031,0.033,0.056,0.064,0.066c0-0.024,0.008-0.047,0.022-0.066V15.9
	c0.039,0.06,0.062,0.129,0.065,0.2c0.21,0.009,0.42,0.032,0.627,0.066h0.846l1.387,0.044v-0.086h0.131
	c0.146-0.263,0.299-0.175,0.672-0.175h1.56c0.031,0.079,0.084,0.148,0.151,0.2c0.065-0.018,0.133-0.025,0.201-0.022v0.088
	c3.008,0,6.062-0.021,9.035-0.022v0.679c-2.973,0-6.027-0.021-9.035-0.022v0.066c-0.118-0.006-0.235,0.009-0.348,0.044h-2.178
	c-0.06-0.038-0.131-0.053-0.2-0.044v-0.069c-0.399,0-0.819,0.021-1.192,0.022c-0.289-0.019-0.579-0.012-0.867,0.022
	c-0.262-0.018-0.524,0.004-0.779,0.066c-0.006,0.071-0.028,0.139-0.064,0.2c-0.014-0.035-0.036-0.065-0.065-0.088l-0.022,0.11
	h-0.016v-0.026c-0.018-0.02-0.032-0.042-0.043-0.066H25.18v0.023c-0.016,0.028-0.038,0.051-0.065,0.066
	c-0.035-0.049-0.036-0.046-0.065-0.044c-0.029,0.023-0.051,0.054-0.064,0.088c-0.024-0.023-0.045-0.105-0.065-0.065
	c-0.018,0.02-0.032,0.042-0.043,0.065c-0.021-0.036-0.052-0.066-0.087-0.088c-0.01,0.031-0.033,0.056-0.064,0.066L24.7,17.131
	c-0.041,0.04-0.095,0.063-0.152,0.066c-0.021-0.036-0.052-0.066-0.087-0.088c-0.002,0.03-0.01,0.06-0.021,0.088H24.4
	c-0.01-0.032-0.024-0.062-0.043-0.088c-0.018,0.035-0.05,0.059-0.088,0.066c-0.018-0.02-0.031-0.042-0.043-0.066
	c-0.021,0.053-0.072,0.088-0.129,0.088c-0.041-0.034-0.046-0.041-0.088-0.022c-0.054,0.069-0.06,0.25-0.107,0.307
	c-0.092,0.105-0.192,0-0.217,0.2H23.51V17.7h0.022c0.393,0.077,0.792,0.122,1.192,0.131c0.107,0.104,0.223,0.199,0.346,0.285
	c0.119,0.032,0.164-0.101,0.238,0h-0.021c-0.039,0.028-0.084,0.052-0.13,0.065v0.045c0.045,0.018,0.088,0.04,0.13,0.065
	c0,0.03,0,0.151,0,0.263h0.064v0.11c0.211,0.095,0.443,0.132,0.672,0.11V18.73c-0.023,0.001-0.046-0.007-0.064-0.021h0.021
	c0.035-0.014,0.074-0.014,0.108,0c0.019-0.081,0.056-0.156,0.111-0.219c0.149,0.034,0.295,0.086,0.433,0.152h-0.023
	c-0.012,0.061,0.012,0.026,0.043,0.045c0.1,0.058,0.146,0.031,0.26,0.088c0.105,0.061,0.23,0.076,0.347,0.043
	c0.156,0.041,0.316,0.063,0.478,0.066c0.146,0.041,0.361,0.131,0.5,0.153c0.072-0.009,0.141-0.039,0.195-0.088h0.606
	c0.038-0.108,0.089-0.212,0.151-0.308c0.05,0.039,0.11,0.063,0.174,0.066c0.02-0.045,0.061-0.077,0.107-0.088v0.021
	c-0.164,0.219-0.288,0.463-0.367,0.724h0.043c0,0,0.027-0.063,0.043-0.044v0.021c0.166,0.165,0.311,0.349,0.433,0.549
	c0.024,0.043,0.166,0.174,0.108,0.219c0.068,0.038,0.141,0.067,0.217,0.088l-0.022,0.044h0.022c0.02,0.018,0.041,0.032,0.064,0.044
	c-0.033,0.087-0.08,0.154-0.107,0.24h0.199v0.152h-0.049v-0.108c-0.067,0.007-0.135,0.007-0.201,0v0.021
	c0.02,0.041,0.011,0.017,0,0.066c0.082-0.005,0.076-0.044,0.108,0.022c0.046,0.032,0.063,0.075,0.108,0.109v0.021
	c-0.086,0.051-0.16,0.119-0.217,0.2c-0.041,0.02-0.017,0.011-0.065,0c0,0.091,0.006,0.037-0.043,0.11
	c-0.019-0.02-0.04-0.034-0.065-0.044c-0.053,0.067-0.121,0.119-0.199,0.153c0.008,0.028,0.008,0.059,0,0.088
	c-0.035,0.012-0.073,0.012-0.108,0c0.011,0.027,0.011,0.06,0,0.088c-0.062-0.012-0.124,0.004-0.173,0.044
	c0.009,0.05,0.02,0.024,0,0.065c-0.061,0.047-0.053-0.021-0.088,0.045c0.007,0.021,0.018,0.008,0,0.021
	c-0.077,0.066-0.109-0.009-0.107,0.175c-0.094,0.161-0.152,0.341-0.173,0.526c0.038,0.027,0.083,0.043,0.13,0.044
	c0.041-0.034,0.045-0.041,0.087-0.022c0.042,0.02,0.015-0.009,0.043,0.045c0.005,0.021,0.017,0.008,0,0.021
	c-0.024,0.063,0,0.04-0.065,0.066c-0.106,0.035-0.223,0.027-0.324-0.022c-0.045,0.051-0.096,0.095-0.152,0.131
	c-0.002,0.031,0.006,0.062,0.021,0.088c-0.119,0.143-0.258,0.268-0.411,0.372c-0.071-0.032-0.154-0.023-0.218,0.022
	c-0.007,0.046-0.021,0.09-0.043,0.131c-0.103,0.097-0.22,0.178-0.347,0.241c-0.079-0.009-0.161-0.002-0.237,0.021
	c-0.028,0.041-0.035,0.115-0.065,0.153c-0.107,0.092-0.224,0.173-0.347,0.241c-0.063,0.019-0.166-0.024-0.217,0
	c-0.051,0.046-0.035,0.154-0.088,0.199c-0.119,0.066-0.235,0.14-0.347,0.219c-0.08-0.009-0.159-0.023-0.237-0.043
	c0.004,0.075-0.011,0.15-0.044,0.219c-0.154,0.151-0.37,0.225-0.585,0.199c-0.045,0.205-0.192,0.371-0.39,0.438
	c-0.101,0.045-0.194-0.075-0.238,0.022l-0.043,0.021c0.011,0.043,0.011,0.088,0,0.131c-0.2,0.028-0.319,0.163-0.521,0.2
	c-0.037-0.048-0.092-0.079-0.151-0.088c-0.287,0.289-1.426,0.054-1.8,0.131h-0.617c-0.037-0.016-0.059-0.067-0.107-0.088
	c-0.189,0.113-0.416,0.146-0.629,0.088c-0.033-0.062-0.103-0.097-0.173-0.088c-0.246,0.12-0.534,0.12-0.78,0
	c-0.082,0.226-0.608,0.019-0.715,0c-0.176,0.104-0.386,0.136-0.585,0.088c-0.022-0.062-0.086-0.099-0.152-0.088
	c-0.006,0-0.037,0.084-0.043,0.088c-0.235,0.028-0.473-0.002-0.693-0.088c-0.181,0.112-0.401,0.145-0.607,0.088
	c-0.023-0.052-0.074-0.086-0.13-0.088c-0.181,0.112-0.401,0.145-0.607,0.088c-0.025-0.04-0.063-0.071-0.108-0.088
	c-0.229,0.127-0.508,0.127-0.737,0c-0.229,0.13-0.508,0.13-0.737,0c-0.229,0.13-0.509,0.13-0.737,0c-0.229,0.13-0.508,0.13-0.737,0
	c-0.229,0.13-0.509,0.13-0.737,0c-0.094,0.22-0.624,0.031-0.737,0c-0.181,0.112-0.401,0.145-0.607,0.088
	c-0.023-0.052-0.074-0.086-0.13-0.088c-0.174,0.112-0.387,0.144-0.585,0.088c-0.031-0.044-0.077-0.075-0.13-0.088
	c-0.229,0.126-0.507,0.126-0.737,0c-0.166,0.11-0.372,0.144-0.563,0.088c-0.034-0.062-0.103-0.097-0.173-0.088
	c-0.08,0.224-0.562,0.025-0.672,0c-0.181,0.112-0.401,0.145-0.607,0.088c-0.015-0.019-0.661,0-0.845,0
	c-0.514,0.021-1.028-0.001-1.538-0.065c-0.122-0.024-0.129,0.072-0.26,0.044l-0.412-0.153c-0.028-0.076-0.064-0.15-0.108-0.219
	c-0.064,0.024-0.135,0.024-0.2,0c-0.16-0.07-0.291-0.194-0.368-0.352c0.013-0.057,0.013-0.117,0-0.175
	c-0.065,0.017-0.133,0.024-0.2,0.022c-0.081-0.12-0.183-0.225-0.3-0.308c0.013-0.072,0.02-0.146,0.022-0.219H3.445
	c-0.064,0.021-0.132,0.028-0.2,0.022c-0.066-0.101-0.233-0.181-0.282-0.285c0.006-0.082-0.017-0.164-0.063-0.231
	c-0.02-0.011-0.11,0.011-0.13,0c-0.127-0.081-0.231-0.194-0.3-0.329c0.012-0.05,0.012-0.103,0-0.152
	c-0.112,0.014-0.224-0.027-0.3-0.11L2.1,22.871c-0.094-0.001-0.188-0.009-0.282-0.021c-0.01-0.028-0.016-0.058-0.018-0.088
	c0.072-0.015,0.141-0.045,0.2-0.088c-0.015-0.033,0,0,0-0.066c-0.018-0.011-0.032-0.025-0.043-0.043
	c-0.058,0.004-0.115,0.004-0.173,0c-0.068-0.107-0.231-0.2-0.282-0.308c0.005-0.062-0.01-0.123-0.043-0.175
	c-0.043,0.01-0.087,0.01-0.13,0c-0.04-0.045-0.093-0.076-0.152-0.088v0.066c-0.086-0.004-0.17-0.034-0.238-0.088
	C0.918,21.954,0.9,21.9,0.888,21.885c-0.16,0.206-0.447,0.262-0.672,0.131l-0.13-0.199c-0.014-0.125-0.006-0.25,0.022-0.373
	l0.2-0.152h0.169c0.054-0.035-0.032-0.055,0.087-0.088c0.076,0.063,0.165,0.107,0.26,0.131v-0.105
	c-0.019-0.033-0.027-0.072-0.024-0.109c-0.051,0.008-0.103,0.001-0.15-0.02c-0.304-0.209-0.49-0.551-0.5-0.92
	c0.033-0.244-0.021-0.493-0.15-0.703c0.175-0.275,0.637-0.449,0.758-0.701c0.034,0.019,0.074,0.019,0.108,0
	c0.052-0.397,0.059-0.8,0.022-1.199h0.044c0.079-0.004,0.159-0.004,0.238,0c0.011-0.042-0.006-0.087-0.043-0.11
	c0.007-0.06,0.021-0.118,0.043-0.175c-0.032-0.056,0-0.025-0.065-0.044c-0.101,0.071-0.227,0.095-0.347,0.066
	c-0.002-0.017-0.01-0.032-0.022-0.044l0.022-0.11c0.536-0.019,1.221-0.106,1.885-0.11v0.022h0.022
	c-0.007,0.052,0.001,0.104,0.022,0.153c0.234-0.049,0.474-0.073,0.713-0.071c0.631-0.092,1.27-0.122,1.907-0.088V17h0.13v0.066
	h1.194V17h0.13v0.066c1.027-0.014,2.049,0.126,3.034,0.416c0.241,0.057,0.489,0.079,0.737,0.066
	c0.106,0.039,0.225,0.031,0.325-0.022h-0.109c-0.318-0.101-0.644-0.175-0.975-0.218c-0.681-0.2-1.407-0.379-2.1-0.526v-0.044
	c0.018-0.011,0.032-0.026,0.043-0.044c-0.106-0.093-0.134-0.248-0.065-0.372H7.367c-0.316-0.043-0.634-0.065-0.953-0.066
	c-0.018-0.032-0.04-0.062-0.065-0.088c-0.063-0.657-0.026-1.32,0.108-1.967c-0.09-0.007-0.08,0-0.108-0.066l0.065-0.021
	c0.186-0.037,0.377-0.037,0.563,0c0.074-0.002,0.148-0.017,0.217-0.044c0.048-0.022,0.105-0.002,0.13,0.044h0.65
	c-0.1-0.184-0.187-0.374-0.26-0.57l0.065-0.022c0.011-0.006,0.183,0.02,0.282,0.022v-0.047c-0.022-0.033-0.037-0.07-0.043-0.109
	c-0.086-0.063-0.193-0.095-0.3-0.088c-0.036-0.061-0.058-0.129-0.065-0.2c0.042-0.015,0.086-0.022,0.13-0.022
	c0.249,0,0.489,0.094,0.672,0.263l0.043,0.2c0.112,0.064,0.229,0.123,0.347,0.175v-0.131h0.2C9.024,13.188,9.043,12.792,9.1,12.4
	V8.5h0.044v3.9C9.218,12.79,9.239,13.188,9.209,13.583z"/>
</svg>
