<?xml version="1.0" encoding="utf-8"?>
<!-- Generator: Adobe Illustrator 16.0.0, SVG Export Plug-In . SVG Version: 6.00 Build 0)  -->
<!DOCTYPE svg PUBLIC "-//W3C//DTD SVG 1.1//EN" "http://www.w3.org/Graphics/SVG/1.1/DTD/svg11.dtd">
<svg version="1.1" id="Layer_1" xmlns="http://www.w3.org/2000/svg" xmlns:xlink="http://www.w3.org/1999/xlink" x="0px" y="0px"
	 width="40px" height="40px" viewBox="0 0 40 40" enable-background="new 0 0 40 40" xml:space="preserve">
<path id="Color_Fill_1" fill="#FFFFFF" d="M15.569,9.116c0,0.053-0.017,0.104-0.049,0.146c-0.091,0.044-0.193,0.062-0.294,0.049
	c-0.468-0.101-0.952-0.101-1.42,0c-1.279,0.01-1.795,0.089-3.084,0.1c-0.043,0.176-0.06,0.358-0.049,0.54h-0.294
	c0,0.748,0.1,1.21,0.1,1.916c0.392,0.131,0.818-0.062,0.979-0.442c-0.048-0.092-0.048-0.202,0-0.295
	c0.174,0.039,0.347-0.071,0.385-0.246c0.004-0.016,0.006-0.033,0.007-0.049c-0.006-0.069-0.022-0.136-0.049-0.2h0.147
	c0.062,0.158,0.144,0.307,0.245,0.442c0.033,0.018,0.677-0.1,0.979-0.1c-0.009-0.085,0.008-0.171,0.049-0.246v0.246l0.294,0.049
	c0.043-0.152,0.15-0.278,0.294-0.344v0.049c0.125,0.072,0.1,0.1,0.1,0.295c0.035,0.076,0.006,0.007,0,0.147H14
	c0.248,0.004,0.494,0.037,0.734,0.1v0.2c0.219,0.012,0.435,0.062,0.636,0.148v0.2l0.2,0.049c0.024-0.269,0.126-0.525,0.294-0.737
	c-0.015,0.254,0.036,0.508,0.146,0.737c0.108,0.047,0.227,0.064,0.343,0.049v-0.204h-0.246c-0.101-0.317-0.135-0.652-0.1-0.983h0.1
	c-0.041,0.279-0.024,0.563,0.049,0.835c0.287,0.076,0.587,0.092,0.881,0.049c0.063-0.121-0.021-0.034,0.1-0.1v0.2h-0.247v0.2
	c0.517,0,0.547-0.181,1.028-0.2c0.056,0.09,0.123,0.173,0.2,0.246v0.295c0.151,0.009,0.3,0.042,0.441,0.1
	c0.058-0.188,0.205-0.335,0.392-0.393v0.051H19c-0.116,0.163-0.199,0.346-0.245,0.54H18.9l0.049,0.295h0.147
	c-0.019,0.175,0.108,0.333,0.283,0.351c0.036,0.004,0.073,0.001,0.108-0.007c0.06,0.038,0.13,0.055,0.2,0.049
	c0-0.437,0.089-0.59,0.1-0.983h0.2v0.394c0.29-0.004,0.576,0.065,0.833,0.2c0.254,0.482,0.781,0.756,1.322,0.688
	c0.093,0.083,0.219,0.12,0.342,0.1v0.2c-0.158,0.041-0.074-0.024-0.146,0.1h13.5c0.373,0.087,0.762,0.07,1.126-0.049
	c0.417-0.025,0.829-0.108,1.224-0.246l1.519-0.049c0.061,0.143,0.144,0.276,0.245,0.393c0.035,0.246,0.02,0.497-0.049,0.737
	c-0.148,0.5-0.988,0.365-1.616,0.344c-0.416-0.332-0.986-0.093-1.566-0.256c-0.972-0.147-1.958-0.181-2.938-0.1
	c-3.778,0.011-7.61,0.094-11.456,0.1l-0.049,0.295c-0.287,0.08-0.584,0.113-0.881,0.1c-0.309,0.548-0.89,0.886-1.519,0.884
	c0.001-0.148-0.016-0.297-0.049-0.442h-0.147c-0.085,0.063-0.188,0.098-0.294,0.1c0.023,0.133,0.056,0.265,0.1,0.393
	c0.258,0.053,0.521,0.069,0.783,0.049c0.301,0.032,0.606-0.019,0.881-0.147c0.077,0.005,0.149,0.041,0.199,0.1
	c0.23,0.049,0.16-0.107,0.246-0.147l0.392,0.049v0.147h0.1c0.315,0.165,0.673,0.235,1.028,0.2v-0.062h-0.057
	c-0.035-0.105-0.084-0.204-0.147-0.295h0.147c0.043,0.061,0.076,0.129,0.1,0.2h0.049v-0.1c0.043-0.055,0.049,0.049,0.049,0.049
	c0.18,0.071,0.321,0.213,0.393,0.393c0.11-0.018,0.213-0.068,0.293-0.147v0.147c-0.054,0.054-0.089,0.124-0.1,0.2
	c0.187,0.078,0.342,0.217,0.441,0.393c0.188-0.135,0.449-0.093,0.584,0.096c0.002,0.001,0.003,0.003,0.004,0.005
	c0.091,0.123,0.059,0.399,0.146,0.541c0.055,0.054,0.125,0.089,0.2,0.1v-0.155c-0.071-0.041-0.139-0.091-0.2-0.146v-0.05h0.049
	c0.111-0.092,0.249-0.145,0.393-0.147v0.101c0.04,0.094,0.04,0.2,0,0.295c0.155,0,0.066-0.084,0.146,0.049
	c0.032,0.042,0.049,0.094,0.05,0.146h0.2c0.035-0.127,0.049-0.26,0.043-0.392c-0.091-0.093-0.143-0.216-0.147-0.345
	c0.054,0,0.104,0.018,0.147,0.05c0.158,0.21,0.211,0.481,0.146,0.737c-0.144,0.089-0.248,0.229-0.294,0.393
	c0.071,0.04,0.11,0.119,0.101,0.199h1.272v0.201L25.854,18.9v0.049h0.1c0.313,0.359,0.676,0.674,1.077,0.934
	c0.483,0.169,0.885-0.16,1.321,0.049c0.781,0.459,1.358,1.197,1.616,2.064c-0.153-0.053-0.325-0.015-0.44,0.1
	c0.108,0.457,0.02,0.939-0.245,1.327c-0.323,0.356-0.704,0.655-1.126,0.884c-0.658,0.622-1.398,1.15-2.2,1.572
	c-0.677,0.133-1.37,0.166-2.056,0.1H7.589l-1.42-0.063c-0.841-0.323-1.646-0.735-2.4-1.229c-1.141-0.601-2.664-0.83-2.644-2.601
	C0.69,22.092,0.448,22.216,0,22.232v-0.049c0.26-0.375,0.3-0.836,0.588-1.278c0.232-0.2,0.373-0.484,0.391-0.789
	c0.105-0.076,0.189-0.178,0.245-0.295H0.93c-0.173-0.068-0.366-0.068-0.539,0v-0.2c0.124-0.326,0.174-0.677,0.148-1.025
	c-0.13-0.058-0.231-0.082-0.1-0.146c0.063-0.121-0.021-0.033,0.1-0.1c0.241,0.053,0.487,0.086,0.734,0.1v-0.246h0.1
	c0,0,0.01,0.191,0.049,0.1v-0.1c0.07-0.172,0.104-0.355,0.1-0.54h0.241c0.038-0.089,0.087-0.171,0.146-0.247
	c0.226-0.037,0.456-0.054,0.685-0.049l0.049,0.1c0.162,0.099,0.349,0.149,0.539,0.147v-0.148c0.227-0.13,0.476-0.215,0.735-0.25
	c0.206,0.171,0.49,0.21,0.734,0.101c0.547-0.205,1.135-0.273,1.714-0.2c0.346,0.018,0.584-0.222,0.734-0.147v-0.437
	c0.283-0.038,0.1-0.072,0.245-0.147c0.337-0.093,0.681-0.16,1.028-0.2c0.554-0.13,1.277,0.116,1.763-0.049V16.09h-0.049
	c-0.16-0.4-0.669-0.281-1.126-0.393c-0.774-0.19-1.707-0.354-2.4-0.541c-0.017-0.062-0.221-0.848-0.245-0.884
	c-0.325-0.183-0.916,0.18-0.979-0.295c0.044-0.092,0.061-0.194,0.049-0.295c-0.326-0.124-0.542-0.437-0.539-0.786
	c0.049-0.267,0.188-0.509,0.392-0.688c0.362-0.269,1.212,0.118,1.714-0.292c0.133,0,0.127,0.105,0.2-0.049
	c0.124-0.278,0.158-0.587,0.1-0.885c-0.056-0.146-0.038-0.311,0.049-0.442c0.01,0.495,0.057,0.988,0.141,1.476
	c0.094-0.019,0.191,0.021,0.245,0.1h0.587l0.049-0.147h0.049c0.154-0.028,0.313,0.008,0.441,0.1l0.881-0.053
	c0.022-0.114,0.039-0.229,0.049-0.344l0.2-0.1c0.028-0.541,0.028-1.082,0-1.622H9.694V9.702L9.547,9.653
	c-0.369-0.286-0.494,0-0.783,0.049c-0.1,0.015-0.063-0.031-0.1-0.049c-0.241-0.126-0.886,0-1.077-0.1
	c0.038-0.004,0.073-0.021,0.1-0.049C7.592,9.472,7.493,9.455,7.393,9.455C7.291,9.249,7.31,9.004,7.442,8.816
	c0.078,0.071,0.16,0.138,0.245,0.2C7.634,9.015,7.582,9.033,7.54,9.065h0.2v-0.1c-0.055-0.025-0.104-0.059-0.147-0.1
	c0.165-0.02,0.319-0.089,0.441-0.2c0.211,0.005,0.417,0.075,0.588,0.2h1.366c0-0.053,0.017-0.105,0.049-0.147
	c0.075,0.041,0.16,0.058,0.245,0.049c-0.09-0.916-0.074-1.839,0.049-2.751h0.049v1.572c-0.089,0.421-0.089,0.857,0,1.278
	l0.147-0.049c0.041-0.159-0.024-0.075,0.1-0.147c0.023,0.466,0.816,0.318,1.273,0.295c0.396,0.124,0.814,0.158,1.224,0.1
	C13.887,9.065,14.737,9.116,15.569,9.116z M7.05,6.262c0.15,0.477,0.184,0.982,0.1,1.474H7.1C7.127,7.244,7.11,6.751,7.05,6.262z
	 M7.15,7.736c0.12,0.467,0.12,0.958,0,1.425V7.736z M7.786,9.21c0.303,0.094,0.627,0.094,0.93,0H7.786L7.786,9.21z M7.2,9.259
	c0.112,0.419,0.112,0.859,0,1.278V9.259z M7.54,9.308v0.1c0.175-0.021,0.123,0.023,0.2-0.1H7.54z M11.8,9.75
	c0.343-0.051,0.692-0.035,1.028,0.049C12.485,9.851,12.136,9.834,11.8,9.75L11.8,9.75z M14.884,11.516
	c0.086,0.083,0.185,0.151,0.294,0.2v-0.1c-0.041-0.025-0.075-0.06-0.1-0.1h-0.2H14.884z M17.724,11.86v0.295
	c0.064,0.026,0.131,0.042,0.2,0.049v-0.1c0.076-0.081-0.074-0.199-0.201-0.24L17.724,11.86z M8.372,12.016v0.1
	c0.117-0.022,0.232-0.056,0.343-0.1H8.372z M6.316,12.216c-0.038,0.034-0.109,0.064-0.147,0.1h0.1c0.04,0.101,0.109,0.187,0.2,0.246
	c0.014-0.12,0.048-0.236,0.1-0.344H6.316V12.216z M6.316,13.494c0.016,0.109-0.051,0.053,0.049,0.1
	c0.012-0.02,0.028-0.037,0.049-0.049c-0.025-0.03-0.06-0.052-0.098-0.06V13.494z M5.826,13.694v0.148h0.147v-0.16H5.826V13.694z
	 M38.973,13.842c-0.153,0.286-0.205,0.615-0.147,0.934h0.1c0.188,0.069,0.391,0.086,0.587,0.049v-0.897
	c-0.041-0.024-0.074-0.059-0.1-0.1h-0.439V13.842z M38.385,13.891c-0.189-0.055-0.393,0.028-0.49,0.2
	c-0.066,0.191-0.066,0.399,0,0.59c0.149,0.083,0.32,0.119,0.49,0.1c0.018-0.301,0.017-0.603-0.001-0.903L38.385,13.891z
	 M21.836,16.237l0.049,0.147h0.049v-0.147h-0.1H21.836z M23.256,16.286c0.047,0.131-0.044,0.115,0.1,0.2
	c0.08-0.1,0.058,0.036,0.101-0.1C23.385,16.364,23.316,16.331,23.256,16.286z M10.037,16.335c0.027,0.027,0.062,0.044,0.1,0.049
	C10.11,16.357,10.075,16.34,10.037,16.335z M23.256,16.63c0.048,0.101,0.138,0.173,0.245,0.2v-0.053L23.256,16.63z M23.6,16.975
	c0.14,0.154,0.287,0.302,0.441,0.441C23.928,17.238,23.777,17.088,23.6,16.975z M24.48,17.316c0.066,0.082,0.15,0.15,0.244,0.199
	v-0.148C24.646,17.337,24.564,17.319,24.48,17.316z M1.371,18.398v0.101H1.42C1.416,18.461,1.398,18.426,1.371,18.398z M26,19.333
	c0.073,0.062,0.156,0.111,0.245,0.147C26.202,19.385,26.104,19.326,26,19.333z M26.441,19.628v0.147
	c0.071,0.054,0.156,0.088,0.244,0.1v-0.1c-0.09-0.034-0.174-0.084-0.248-0.147H26.441z M3.917,23.216
	c-0.112,0.121-0.245,0.221-0.392,0.295c0.027,0.026,0.063,0.044,0.1,0.05c0.518,0.321,1.079,0.569,1.665,0.736
	C5.325,24,5.426,23.715,5.584,23.462H4.357C4.227,23.354,4.078,23.27,3.917,23.216z M12.289,23.462
	c0.044,0.19,0.147,0.362,0.294,0.491c0.033-0.184,0.118-0.354,0.245-0.491H12.289z M19.339,23.462
	c0.334,0.479,0.373,1.105,0.1,1.622h0.636v-0.1c-0.274-0.482-0.235-1.081,0.1-1.523L19.339,23.462L19.339,23.462z M27.417,23.609
	c-0.241,0.041-0.435,0.246-0.539,0.246c-0.046-0.109-0.063-0.228-0.049-0.345c-0.144-0.039-0.292-0.056-0.44-0.049v0.049
	c0.148,0.228,0.264,0.477,0.342,0.737c0.201-0.2,0.433-0.366,0.687-0.491v-0.149V23.609z M27.617,23.462
	c0.084,0.043,0.063,0.044,0.146,0h-0.15H27.617z M22.623,23.708c-0.04-0.159,0.023-0.075-0.1-0.147
	c-0.063,0.035-0.113,0.086-0.147,0.147h0.049v0.048c0.062-0.025,0.128-0.043,0.194-0.05L22.623,23.708z M23.994,23.561l-0.049,0.147
	c0.098,0.015,0.196,0.015,0.294,0v-0.051c-0.079-0.042-0.163-0.074-0.249-0.099L23.994,23.561z M16.694,24.348
	c-0.404-0.084-0.82-0.084-1.224,0c-0.025,0.254-0.092,0.504-0.2,0.736h1.616v-0.1c-0.162-0.17-0.232-0.408-0.186-0.64L16.694,24.348
	z M9.644,25.084c-0.033-0.267-0.134-0.521-0.294-0.736c-0.304-0.088-0.626-0.088-0.93,0c-0.062,0.251-0.144,0.498-0.245,0.736H9.644
	L9.644,25.084z M22.52,24.348c-0.02,0.256-0.087,0.506-0.199,0.736h1.908v-0.1c-0.143-0.182-0.215-0.409-0.199-0.64
	c-0.5-0.073-1.008-0.073-1.508,0L22.52,24.348z M12.483,24.691c-0.021,0.14-0.071,0.273-0.147,0.393h0.394v-0.051
	c-0.061-0.129-0.144-0.245-0.245-0.344L12.483,24.691z"/>
</svg>
