<?xml version="1.0" encoding="utf-8"?>
<!-- Generator: Adobe Illustrator 16.0.0, SVG Export Plug-In . SVG Version: 6.00 Build 0)  -->
<!DOCTYPE svg PUBLIC "-//W3C//DTD SVG 1.1//EN" "http://www.w3.org/Graphics/SVG/1.1/DTD/svg11.dtd">
<svg version="1.1" id="Layer_1" xmlns="http://www.w3.org/2000/svg" xmlns:xlink="http://www.w3.org/1999/xlink" x="0px" y="0px"
	 width="39.969px" height="40px" viewBox="0 0 39.969 40" enable-background="new 0 0 39.969 40" xml:space="preserve">
<path id="us_m4a5_ram_2_ico" fill="#FFFFFF" d="M12.507,10.5c0.419-0.013,0.644-0.19,1.09-0.2v-0.169l0.341-0.067l0.068-0.235h0.239
	c0.031-0.035,0.065-0.068,0.1-0.1c0.04,0.033,0.086,0.056,0.136,0.067c0.002-0.026,0.014-0.05,0.034-0.067V9.695
	c0.1-0.029,0.056,0.083,0.1,0.1h0.2c0.222,0.005,0.952,0.034,1.431,0.034V9.762c0.095-0.531,0.118-1.072,0.068-1.609V4.13h0.068
	v5.33c0.038,0.107,0.05,0.222,0.034,0.335l0.272,0.034V9.494h0.92v0.3c0.249-0.034,0.5-0.034,0.749,0c0.045-0.028,0-0.122,0.1-0.1
	l0.034,0.1c0.062,0.032,0.1-0.055,0.136-0.067c0.102,0.065,0.22,0.1,0.341,0.1c0.1,0.387,0.37,0.089,0.409,0.469
	c0.593,0,1.118-0.064,1.635-0.067V10.1H20.65V9.963c0.241-0.123,0.515-0.17,0.783-0.134V8.924h-0.1v0.1
	C21.286,9.031,21.348,8.996,21.3,8.99c-0.026-0.064-0.034,0.067-0.034,0.067c0.021,0.029,0.034,0.063,0.034,0.1
	c-0.048,0.007,0.015-0.028-0.034-0.034C21.24,9.058,21.232,9.19,21.232,9.19c0.018,0.018,0.029,0.042,0.033,0.067
	c-0.067,0-0.01-0.034-0.067,0c0.007,0.066,0.007,0.133,0,0.2h-0.275c-0.008-0.089-0.008-0.179,0-0.268
	c-0.048-0.007,0.015,0.028-0.034,0.034c-0.025,0.063-0.033-0.067-0.033-0.067c0.018-0.018,0.029-0.042,0.033-0.067
	C20.8,9.076,20.844,9.114,20.82,9.022c0.02-0.019,0.031-0.042,0.035-0.067c-0.049-0.007,0.014,0.028-0.035,0.034
	c-0.025,0.064-0.033-0.067-0.033-0.067c0.009-0.148-0.053-0.745-0.068-1.006h-0.273v0.2c-0.014,0.009-0.025,0.021-0.034,0.034
	c-0.044,0.016-0.092,0.016-0.136,0c-0.167-0.156,0-0.208-0.375-0.2c0.009,0.2,0.011,0.292-0.1,0.335V8.253h-0.032
	c0.017,0.043,0.017,0.091,0,0.134l-0.068-0.034c-0.013,0.085,0.02,0.053-0.1,0.067c-0.029-0.025-0.071-0.025-0.1,0
	c-0.018-0.018-0.03-0.042-0.034-0.067c0.019-0.019,0.03-0.042,0.034-0.067c-0.068,0-0.01,0.034-0.068,0
	c-0.02,0.054-0.054,0.101-0.1,0.134V8.052h-0.386c0.004-0.157-0.007-0.314-0.034-0.469H18.64v0.033h-0.034
	c0.048,0.247-0.079,0.495-0.307,0.6c-0.029-0.028-0.053-0.062-0.068-0.1c-0.136-0.219,0.147-0.375,0.2-0.5
	c-0.016-0.077-0.028-0.156-0.034-0.235h0.482c0.028-0.081,0.062-0.159,0.1-0.235c0.019,0.018,0.042,0.03,0.068,0.034
	c-0.012-0.08,0-0.162,0.034-0.235c0.132-0.041,0.272-0.053,0.409-0.034V7.08h0.034c0.244-0.153,0.312,0.057,0.409,0.101h0.613V7.08
	h0.101V7.18c0.343,0,0.6-0.02,0.886,0V6.912h0.036v0.034c0.042,0.129,0.054,0.266,0.035,0.4c1.224,0,2.508,0.03,3.68,0.034v0.27
	c-1.193,0-2.5,0.032-3.748,0.034c-0.025,0.155-0.037,0.312-0.034,0.469c0.265,0.16,0.401,0.468,0.341,0.771h-0.135v0.905
	c0.239-0.011,0.479,0,0.716,0.033c0.029,0.041,0.052,0.086,0.068,0.134c0.021,0.029,0.033,0.064,0.034,0.1H22.15v0.134
	c0.224,0.044,0.452,0.067,0.681,0.067l0.034-0.1c0.207-0.035,0.418-0.012,0.613,0.067c0.031,0.192,0.143,0.363,0.307,0.469
	c0.385,0.178,0.784,0.323,1.193,0.436c0.127,0.007,0.253,0.03,0.375,0.067c0.018,0.018,0.029,0.042,0.033,0.067
	c0.041,0.367,0.052,0.737,0.034,1.106l1.193,0.034c0.005,0.101-0.007,0.203-0.034,0.3h8.245v0.771h-8.416
	c-0.327,0.055-0.657,0.077-0.988,0.067c-0.048,0.389-0.069,0.781-0.067,1.172c-0.143-0.002-0.284,0.032-0.41,0.101
	c-0.024,0.04-0.037,0.087-0.033,0.134c0.322,0.02,0.744,0.066,1.158,0.067c0.064-0.177,0.08-0.212,0.341-0.2
	c0.544,0.053,1.092,0.053,1.636,0v-0.2h0.954v0.235c0.183,0,0.784-0.1,0.784-0.1c0.078,0.027,0.158,0.049,0.238,0.066
	c0.155,0.089-0.043,0.163,0.308,0.168v-0.066c-0.036-0.001-0.071-0.013-0.101-0.035h0.03c0.093-0.039,0.148-0.135,0.136-0.234
	c0.068,0,0.137,0.011,0.2,0.034c-0.048,0.106-0.048,0.229,0,0.335c-0.065,0.045-0.079,0.127-0.136,0.168s-0.18,0.059-0.238,0.1
	c0.005,0.043,0.03,0.08,0.068,0.1c0.072,0.004,0.141,0.027,0.2,0.067c0.003,0.046,0.015,0.092,0.034,0.134
	c0.125,0.07,0.271,0,0.375,0.067c0.129,0.086,0.131,0.294,0.271,0.369c0.233-0.072,0.482-0.072,0.716,0
	C32.59,15.977,33.3,15.957,34.007,16V16.3c-1.129,0.007-1.94-0.006-2.899,0c-0.021,0.053-0.032,0.11-0.034,0.168
	c0.137,0.1,0.079,0.16,0.034,0.3c0.115,0.011,0.229,0.034,0.341,0.067l0.034,0.199c0.654,0.055,0.91,0.742,1.431,0.939
	c0.244,0.093,0.562-0.03,0.853,0.066l0.033,0.067c0.185,0.01,0.369-0.013,0.545-0.067c0.081-0.003,0.162,0.008,0.239,0.034
	c0.226,0.013,0.578-0.011,0.817,0v0.136c0.769,0.368,1.24,1,2.352,1.006c0.006,0.117,0.106,0.207,0.225,0.201
	c0.004,0,0.01-0.001,0.015-0.002l-0.034-0.369h0.17c0.007,0.26,0.041,0.518,0.1,0.772c0.367,0.264,0.754,0.498,1.158,0.699
	c0.207,0.063,0.396,0.18,0.545,0.336c0.043,0.115,0.018,0.244-0.068,0.334c-0.049-0.041-0.094-0.086-0.135-0.133
	c-0.084,0.086-0.191,0.148-0.273,0.234l-0.545-0.168v0.066c0.287,0.313,0.486,0.693,0.578,1.107
	c-0.033,0.049-0.057,0.107-0.067,0.168c0.029,0.047,0.063,0.092,0.101,0.133c0.068,0.338-0.004,0.689-0.201,0.973v0.234
	c-0.123,0.314-0.352,0.574-0.646,0.738l-0.17,0.268c-0.186,0.145-0.379,0.277-0.579,0.4l-0.272,0.066v0.102
	c-0.211,0.186-0.439,0.354-0.682,0.5h-0.17L36.6,26.145c-0.134,0.1-0.273,0.141-0.41,0.234c-0.063,0.07-0.129,0.137-0.199,0.199
	c-0.056-0.016-0.115-0.016-0.17,0c-0.027,0.055-0.05,0.111-0.068,0.168c-0.221,0.182-0.477,0.318-0.75,0.4
	c-0.222,0.244-0.474,0.459-0.75,0.637l-0.341-0.031l-0.034,0.1c-0.158,0.031-0.316,0.053-0.477,0.066
	c-0.229,0.021-0.441-0.111-0.58-0.066c-0.297,0.092-0.611,0.115-0.92,0.066c-0.049-0.057-0.125-0.082-0.199-0.066
	c-0.285,0.094-0.59,0.117-0.887,0.066c-0.021-0.063-0.09-0.096-0.152-0.074c-0.006,0.002-0.012,0.004-0.018,0.008
	c-0.322,0.092-0.664,0.092-0.987,0c0,0-0.688,0.07-0.853,0.066c-0.121-0.037-0.248-0.059-0.375-0.066
	c-0.301,0.072-0.611,0.096-0.92,0.066l-0.199-0.066c-0.288,0.082-0.59,0.104-0.887,0.066c-0.039-0.053-0.105-0.078-0.17-0.066
	c-0.179,0.041-0.361,0.064-0.545,0.066c-0.203-0.025-0.41-0.025-0.613,0c-0.354,0.012-0.707-0.01-1.056-0.066
	c-0.311,0.086-0.635,0.107-0.954,0.066c-0.043-0.047-0.105-0.072-0.17-0.066c-0.275,0.084-0.566,0.107-0.852,0.066
	c-0.041-0.014-0.013-0.072-0.101-0.066c-0.036,0.016-0.07,0.039-0.1,0.066c-0.319,0.041-0.644,0.02-0.954-0.066
	c-0.109-0.023-0.094,0.053-0.137,0.066h-0.736c-0.097-0.043-0.201-0.066-0.307-0.066c-0.298,0.086-0.612,0.109-0.92,0.066
	c-0.043-0.047-0.106-0.072-0.17-0.066c-0.289,0.086-0.597,0.086-0.886,0c-0.36,0.053-0.726,0.076-1.09,0.066l-0.034-0.066
	c-0.337,0.055-0.68,0.076-1.022,0.066c-0.243-0.08-0.751,0.1-1.124,0c-0.037-0.037-0.084-0.061-0.136-0.066
	c-0.299,0.086-0.612,0.109-0.92,0.066v-0.053c-0.139-0.004-0.278,0.02-0.409,0.068c-0.17,0-0.81-0.07-0.818-0.068
	c-0.275,0.088-0.567,0.111-0.852,0.068l-0.034-0.068c-0.106-0.008-0.213,0.016-0.307,0.068h-0.749
	c-0.038-0.055-0.105-0.082-0.17-0.068c-0.263,0.088-0.544,0.111-0.818,0.068l-0.068-0.1c-0.061-0.023-0.213,0.1-0.341,0.1
	l-0.818-0.068c-0.224,0.047-0.454,0.059-0.681,0.033c-0.118-0.029-0.224-0.146-0.307-0.168c-0.24,0.008-0.48-0.016-0.715-0.066
	C6.223,27.582,6.109,27.494,6,27.4H5.761c-0.244-0.1-0.482-0.211-0.715-0.336c-0.005-0.045-0.017-0.09-0.034-0.133H4.769
	c-0.2-0.088-0.393-0.188-0.579-0.301l-0.17-0.033l-0.1-0.168c-0.059-0.014-0.121-0.002-0.17,0.033
	c-0.271-0.1-0.533-0.227-0.781-0.373c-0.035-0.064-0.081-0.121-0.136-0.168c-0.059-0.012-0.12,0-0.17,0.033
	c-0.17-0.064-0.4-0.176-0.579-0.268c-0.1-0.053-0.274-0.248-0.341-0.268l-0.17,0.033c-0.223-0.09-0.43-0.215-0.613-0.369
	c-0.038-0.076-0.071-0.154-0.1-0.234c-0.157-0.086-0.305-0.188-0.443-0.301c-0.767-1.174-0.466-2.746,0.681-3.555v-0.033H0.48
	v-1.375H0.105v-2.18c-0.083-0.283-0.006-0.589,0.2-0.8c0.263-0.136,0.556-0.204,0.852-0.2l1.772-0.234L2.969,16h-0.2
	c-0.074,0.045-0.166,0.045-0.239,0h0.063c0.138-0.067,0.29-0.102,0.443-0.1c0-0.145,0.009-0.421,0-0.436
	c-0.029-0.021-0.064-0.033-0.1-0.034c0.024-0.07,0.071-0.13,0.133-0.171L3.035,14.96c0.085-0.107,0.189-0.199,0.307-0.269
	c0.57,0.006,1.223,0.022,1.738,0.034c0.382-0.07,0.758-0.171,1.124-0.301H6.92c0.145-0.032,0.377-0.111,0.511-0.133
	c0.089,0.02,0.181,0.031,0.273,0.033c0.683-0.266,1.417-0.369,2.147-0.3c0.16,0.362,0.263,0.747,0.307,1.14
	c0.31-0.047,0.618-0.114,0.92-0.199c0.105,0.003,0.209,0.025,0.307,0.066c0.062-0.009,0.12-0.031,0.17-0.066L12.305,15l0.068,0.101
	c0.154,0.005,0.306-0.03,0.443-0.101c0.013-0.055,0.013-0.112,0-0.168c-0.112-0.023-0.226-0.035-0.341-0.033
	c-0.46-0.041-0.916-0.119-1.363-0.235l-0.034-0.3h-0.209c-0.037-0.049-0.061-0.107-0.068-0.168c0.023-0.156,0.035-0.313,0.034-0.469
	l-0.068-0.1c0.017-0.047,0.04-0.092,0.068-0.134c0.017-0.233,0.017-0.467,0-0.7c0.016-0.182-0.007-0.364-0.068-0.536
	c0.017-0.047,0.04-0.092,0.068-0.134c0.014-0.212,0.014-0.425,0-0.637c0.083-0.008,0.164-0.031,0.239-0.067
	c0.205-0.279,0.291-0.629,0.239-0.972c0.036,0,0.071-0.012,0.1-0.034h0.034V10.2h0.136c0.064-0.2,0.248-0.325,0.307-0.5V-1h0.068
	V9.695c0.117,0.135,0.153,0.335,0.273,0.469c0.095,0.05,0.186,0.106,0.272,0.168V10.5H12.507z M18.844,7.751h0.068v0.034
	C18.886,7.781,18.863,7.769,18.844,7.751L18.844,7.751z M18.776,7.785h0.068v0.034h-0.033v0.034h-0.034L18.776,7.785L18.776,7.785z"
	/>
</svg>
