<svg xmlns="http://www.w3.org/2000/svg" width="40" height="40" viewBox="0 0 40 40">
  <defs>
    <style>
      .cls-1 {
        fill: #fff;
        fill-rule: evenodd;
      }
    </style>
  </defs>
  <path id="us_m8_scott_ico" class="cls-1" d="M21.422,9H21.6a4.187,4.187,0,0,0,.05.437,9.719,9.719,0,0,0,2.039.1V9.617a5.312,5.312,0,0,1,.931.077H26.1a6.718,6.718,0,0,0,1.259.026c0.76,0,1.506,0,2.266,0v0.308c-1.616,0-3.245.025-4.909,0.026v0.026a0.226,0.226,0,0,1,.025.129,0.46,0.46,0,0,0-.126-0.026,0.284,0.284,0,0,0-.025.154,0.3,0.3,0,0,0,.1.1,1.236,1.236,0,0,1,.478.129,0.3,0.3,0,0,1,.05.231,4.466,4.466,0,0,1-1.661.1,0.675,0.675,0,0,1-.076-0.308,0.3,0.3,0,0,0,.05-0.077l0.529-.077a0.885,0.885,0,0,0,.05-0.257h-0.05a0.742,0.742,0,0,0-.378-0.051v0.077l-1.938.026c-0.035.061-.07,0.067-0.1,0.129a4.31,4.31,0,0,1,0,.771,9.1,9.1,0,0,1-.957.026v0.668h-0.4l-0.025.077a0.415,0.415,0,0,0-.025.206l1.712,0.026V12.084a1.554,1.554,0,0,1,.151-0.925,1.248,1.248,0,0,1,1.46-.026,0.556,0.556,0,0,1,.151.386,0.94,0.94,0,0,0-.252.231,0.674,0.674,0,0,1,.126.257,0.275,0.275,0,0,0-.076.051,0.093,0.093,0,0,1,.025.051,1.622,1.622,0,0,0,.453.026,2.173,2.173,0,0,1,.1-0.437,1.357,1.357,0,0,1,.227-0.154V11.519c-0.089-.018-0.062-0.032-0.151-0.051V11.339h0.076A1.567,1.567,0,0,0,24.217,11h0.227v0.129h0.025a0.288,0.288,0,0,1,.227.026,0.126,0.126,0,0,1,.025-0.077,0.268,0.268,0,0,1,.151-0.026c0,0.241-.089.243-0.1,0.463h3.147c0.059,0.214.176,0.088,0.252,0.206a0.4,0.4,0,0,0,0,.334,2.186,2.186,0,0,0,.453.231c0.25,0.156.523,0.3,0.78,0.463a1.625,1.625,0,0,0,.352.231,3.16,3.16,0,0,1,.3-1.054c0.029-.02.111,0,0.151-0.026V11.879a0.608,0.608,0,0,0,.05-0.129l0.151-.129c0.252-.006.315,0.094,0.3,0.36a1.229,1.229,0,0,0-.126.283,0.467,0.467,0,0,1,.2.077,0.789,0.789,0,0,0,.3.565,1.334,1.334,0,0,0,.478.566L32.02,13.5l1.334,0.026a3.053,3.053,0,0,1,.554.026l0.1,0.129h1.208v1.516H34.009l-0.05.1a1.086,1.086,0,0,1-.227.051l-2.19.051a7.164,7.164,0,0,0-1.133.488,4.587,4.587,0,0,0-1.082.437,0.791,0.791,0,0,1,.025.334h0.2v0.386a1.046,1.046,0,0,1,.654.1,0.471,0.471,0,0,0-.176.18h0.151a0.641,0.641,0,0,1,.453-0.206v0.026H30.61a0.237,0.237,0,0,0-.1.257h0.05l0.755,0.257a0.654,0.654,0,0,1,.73-0.283,0.891,0.891,0,0,1,.227.257,0.586,0.586,0,0,1,.025.463,2.179,2.179,0,0,1,.529.334c0.264,0.179.526,0.327,0.78,0.514a0.957,0.957,0,0,0,.554.334,2.05,2.05,0,0,1,.68,0,0.327,0.327,0,0,1,0-.154h0.1a0.214,0.214,0,0,1,.126-0.026,0.115,0.115,0,0,0,.05.1c-0.044.043-.04-0.013-0.05,0.077h0.6V19.023h0.3V19.28h0.478v0.283H36.4q0.012,0.463.025,0.925a5.2,5.2,0,0,0,.755.36v0.026H36.929a1.435,1.435,0,0,0-.378-0.077v0.051h0.025a1.808,1.808,0,0,0,.428.18,5.7,5.7,0,0,1,1.032.514,5.041,5.041,0,0,1,1.712,2.39c0.124,0.347.129,0.724,0.252,1.079H39.8v0.231c-0.17.046-.326,0.158-0.478,0.206a2.044,2.044,0,0,1-.856-0.1,0.412,0.412,0,0,0-.025.128h0.075a1.7,1.7,0,0,1-.025.334H38.238a0.62,0.62,0,0,0-.1.334,0.225,0.225,0,0,1,.2.231,0.748,0.748,0,0,0-.05.129,0.4,0.4,0,0,0-.378.1,0.226,0.226,0,0,0-.025.128,1.338,1.338,0,0,1,.151.077,0.089,0.089,0,0,1-.025.051,0.429,0.429,0,0,1-.252.308,0.118,0.118,0,0,0-.151-0.077,0.317,0.317,0,0,0-.227.231,0.467,0.467,0,0,1,.076.231,0.562,0.562,0,0,1-.151.1,0.3,0.3,0,0,0-.252-0.1,0.182,0.182,0,0,0-.05.18,0.426,0.426,0,0,1,.076.154,0.347,0.347,0,0,0-.176.128H36.879V27.993a0.506,0.506,0,0,0-.227-0.154,1.558,1.558,0,0,1-.176.18l0.075,0.257c-0.055.032-.084,0.075-0.126,0.051a0.586,0.586,0,0,0-.277-0.1,0.391,0.391,0,0,0-.05.1,0.636,0.636,0,0,1,.075.231,1.006,1.006,0,0,1-.2.129,0.284,0.284,0,0,0-.2-0.18,0.366,0.366,0,0,0-.176.206,0.324,0.324,0,0,1,.05.231,0.25,0.25,0,0,1-.126.077,0.384,0.384,0,0,0-.277-0.129,0.564,0.564,0,0,0-.025.18,0.216,0.216,0,0,1,.075.154c-0.077.039-.125,0.088-0.2,0.128a0.2,0.2,0,0,0-.2-0.154,0.269,0.269,0,0,0-.2.18,0.245,0.245,0,0,1,.076.206,0.838,0.838,0,0,1-.1.1,1.162,1.162,0,0,0-.3-0.128,0.273,0.273,0,0,0-.05.154,0.35,0.35,0,0,1,.1.18c-0.1.033-.127,0.094-0.227,0.128a0.232,0.232,0,0,0-.2-0.18,0.415,0.415,0,0,0-.176.206,0.479,0.479,0,0,1,.05.231,0.251,0.251,0,0,1-.126.077,0.354,0.354,0,0,0-.277-0.129l-0.025.077a1.339,1.339,0,0,0-.025.257c-0.083.078-.221,0.1-0.3,0.18a0.086,0.086,0,0,1-.05-0.026,0.947,0.947,0,0,0-.126-0.154,0.353,0.353,0,0,0-.352.257,0.227,0.227,0,0,0-.025.128,0.757,0.757,0,0,1-.176,0,2.876,2.876,0,0,1-.2-0.257l-0.126.051c0,0.083-.04.114-0.05,0.257H31.718V30.769l-0.076-.026a0.339,0.339,0,0,0-.252,0c-0.009.122-.038,0.135-0.05,0.257h-0.2a0.251,0.251,0,0,0-.176-0.283,0.29,0.29,0,0,1-.076.051L30.862,31H30.61a0.945,0.945,0,0,0-.05-0.257H30.51a0.34,0.34,0,0,0-.252,0c0,0.185-.024.265-0.226,0.257a0.366,0.366,0,0,0-.2-0.283,0.222,0.222,0,0,0-.076.1,0.345,0.345,0,0,0-.025.18H29.453a0.241,0.241,0,0,0-.076-0.257,0.34,0.34,0,0,0-.252,0c-0.025.171-.04,0.263-0.252,0.257a0.26,0.26,0,0,0-.176-0.283,0.472,0.472,0,0,0-.1.283H28.345l-0.025-.257h-0.05a0.34,0.34,0,0,0-.252,0,0.072,0.072,0,0,1-.025.026L27.942,31H27.766a0.249,0.249,0,0,0-.2-0.283,0.6,0.6,0,0,0-.1.283H27.187V30.743h-0.05a0.34,0.34,0,0,0-.252,0,2.1,2.1,0,0,0-.075.257H26.633a0.284,0.284,0,0,0-.2-0.283,0.464,0.464,0,0,1-.075.1V31H26.079l-0.025-.257H26a0.458,0.458,0,0,0-.227-0.026c-0.059.157-.041,0.288-0.277,0.283a0.3,0.3,0,0,0-.2-0.283,0.214,0.214,0,0,0-.05.077,0.414,0.414,0,0,0-.025.206H24.947l-0.025-.231a0.5,0.5,0,0,0-.277-0.051c-0.058.14-.065,0.282-0.277,0.283a0.284,0.284,0,0,0-.2-0.283l-0.025.051a0.346,0.346,0,0,0-.05.231H23.814a0.426,0.426,0,0,0-.05-0.257,0.458,0.458,0,0,0-.227-0.026,0.09,0.09,0,0,1-.05.026C23.462,30.9,23.456,31,23.26,31a0.264,0.264,0,0,0-.226-0.283,0.073,0.073,0,0,1-.025.026,2.015,2.015,0,0,0-.05.257H22.681V30.769l-0.076-.026a0.339,0.339,0,0,0-.252,0A2.015,2.015,0,0,0,22.3,31H22.1a0.261,0.261,0,0,0-.176-0.283,0.288,0.288,0,0,1-.075.051L21.825,31H21.573a0.26,0.26,0,0,0-.1-0.257,0.339,0.339,0,0,0-.252,0c0,0.191-.044.265-0.252,0.257a0.3,0.3,0,0,0-.176-0.283,0.285,0.285,0,0,0-.1.283H20.415a0.24,0.24,0,0,0-.076-0.257,0.339,0.339,0,0,0-.252,0c-0.026.165-.043,0.263-0.252,0.257a0.271,0.271,0,0,0-.176-0.283,0.472,0.472,0,0,0-.1.283H19.308l-0.025-.257h-0.05a0.339,0.339,0,0,0-.252,0l-0.025.077a0.383,0.383,0,0,0-.05.18H18.729a1.38,1.38,0,0,0-.05-0.206,0.292,0.292,0,0,0-.151-0.077,0.514,0.514,0,0,0-.1.283H18.15V30.743H18.1a0.339,0.339,0,0,0-.252,0,2.066,2.066,0,0,0-.075.257H17.6a0.317,0.317,0,0,0-.2-0.283,0.09,0.09,0,0,1-.05.026,1.281,1.281,0,0,0-.05.257H17.042l-0.025-.257h-0.05a0.457,0.457,0,0,0-.226-0.026C16.672,30.867,16.7,31,16.463,31a0.332,0.332,0,0,0-.2-0.283,0.214,0.214,0,0,0-.05.077,0.229,0.229,0,0,0-.025.206H15.909a0.072,0.072,0,0,0-.025-0.026c0.012-.244-0.04-0.271-0.277-0.257C15.542,30.851,15.541,31,15.33,31a0.318,0.318,0,0,0-.2-0.283,0.391,0.391,0,0,0-.05.1,0.28,0.28,0,0,0-.05.18H14.777l-0.025-.257a0.81,0.81,0,0,0-.252-0.026,0.291,0.291,0,0,1-.075.051L14.374,31H14.2a1.381,1.381,0,0,0-.05-0.206A0.292,0.292,0,0,0,14,30.717a0.515,0.515,0,0,0-.1.283H13.619V30.743h-0.05a0.339,0.339,0,0,0-.252,0,2.083,2.083,0,0,0-.076.257h-0.2a0.243,0.243,0,0,0-.176-0.283,0.421,0.421,0,0,0-.1.283H12.511l-0.025-.257h-0.05a0.458,0.458,0,0,0-.227-0.026c-0.072.154-.059,0.287-0.3,0.283l-0.076-.257a0.346,0.346,0,0,0-.1-0.026,0.09,0.09,0,0,1-.05.026,0.884,0.884,0,0,0-.05.257H11.353V30.769a0.5,0.5,0,0,0-.277-0.051,0.328,0.328,0,0,1-.3.283,1.416,1.416,0,0,0-.075-0.257,0.348,0.348,0,0,0-.1-0.026,0.472,0.472,0,0,0-.1.283H10.22V30.743H10.17a0.339,0.339,0,0,0-.252,0C9.865,30.884,9.873,31,9.666,31a0.263,0.263,0,0,0-.2-0.283,0.472,0.472,0,0,0-.1.283h-0.3V30.974a0.485,0.485,0,0,0,.025-0.231H9.037a0.339,0.339,0,0,0-.252,0A0.24,0.24,0,0,1,8.508,31a0.243,0.243,0,0,0-.176-0.283,0.09,0.09,0,0,1-.05.026,1.221,1.221,0,0,0-.076.231L7.93,30.949V30.923H7.9c0.011-.185.019-0.27-0.151-0.283a0.39,0.39,0,0,0-.2-0.026,0.207,0.207,0,0,1-.227.206,0.179,0.179,0,0,0-.1-0.051,0.62,0.62,0,0,0-.05-0.308,0.268,0.268,0,0,0-.151-0.026L6.9,30.64a0.856,0.856,0,0,1-.277-0.18A0.411,0.411,0,0,0,6.7,30.229c-0.378-.256-0.164-0.071-0.529-0.026a0.752,0.752,0,0,1-.1-0.128,0.444,0.444,0,0,0,.05-0.283H6.067a0.323,0.323,0,0,0-.277.077,1,1,0,0,1-.176-0.231,0.363,0.363,0,0,0,.126-0.257l-0.2-.18a0.59,0.59,0,0,1-.252.051,0.273,0.273,0,0,1-.076-0.18,0.441,0.441,0,0,0,.126-0.283,0.3,0.3,0,0,1-.05-0.077,0.654,0.654,0,0,1-.277.026,0.4,0.4,0,0,1-.126-0.308,0.225,0.225,0,0,0,.2-0.257l-0.1-.231a0.668,0.668,0,0,1-.277-0.026l-0.05-.257a0.308,0.308,0,0,0,.252-0.231,0.094,0.094,0,0,1-.025-0.051A0.539,0.539,0,0,0,4.632,27.3l-0.025-.308,0.252-.026V26.914a0.635,0.635,0,0,0,.025-0.283,2.64,2.64,0,0,0-1.259-.283,1.547,1.547,0,0,1-.151-0.874A0.562,0.562,0,0,0,3.7,25.269a0.621,0.621,0,0,0,.2.026,1.15,1.15,0,0,0,0,.437l0.076,0.026a0.551,0.551,0,0,0,.327,0A0.431,0.431,0,0,0,4.456,25.5a0.275,0.275,0,0,0-.025-0.206,0.933,0.933,0,0,0-.2-0.128c-0.3-.065-0.663.228-0.655-0.283a1.872,1.872,0,0,0-.126-1,7.983,7.983,0,0,1,.076-2.622,3.074,3.074,0,0,0-.076-0.72H1.611a2.62,2.62,0,0,1-.957-0.077,0.991,0.991,0,0,1-.3-0.334,0.292,0.292,0,0,1-.126.051V20.129a0.271,0.271,0,0,1-.05-0.154L0.3,19.949V18.664a0.093,0.093,0,0,1-.025-0.051,0.353,0.353,0,0,1-.126-0.026,0.122,0.122,0,0,1-.025.129H0.076V18.664c0.006-.015.014-0.144,0.025-0.206H0.2a0.127,0.127,0,0,1,.076-0.026,1.167,1.167,0,0,0-.1-0.72,0.193,0.193,0,0,1-.126-0.1,0.176,0.176,0,0,1-.025-0.1A0.416,0.416,0,0,0,.2,17.379,0.3,0.3,0,0,1,0,17.1a2.363,2.363,0,0,0,.151-0.488c0.033,0.053.035,0.022,0.126,0.026V16.556a0.981,0.981,0,0,1-.025-0.411A0.452,0.452,0,0,1,.4,16.119a1.717,1.717,0,0,0,1.284-.128c0.071-.075-0.025-0.088.1-0.129a2.286,2.286,0,0,0,.78.052,3.268,3.268,0,0,0,1.133,0H4.355a6.878,6.878,0,0,0,1.485-.1,0.371,0.371,0,0,1,.025.1,0.56,0.56,0,0,0-.025.257H5.865a0.388,0.388,0,0,1,.378-0.051,1.347,1.347,0,0,0,.252-0.257H6.52v0.026a0.905,0.905,0,0,0,.4.334,1.638,1.638,0,0,1,.73,0v-0.1a2.122,2.122,0,0,1,1.133-.206H9.138c0.294,0.081.617,0.246,0.931,0.308a0.936,0.936,0,0,1,.227-0.437,2.1,2.1,0,0,1,.755.283,0.473,0.473,0,0,0,.226-0.1,0.848,0.848,0,0,1,.478.026V15.862h0.529v0.206h0.1a0.173,0.173,0,0,0,.176.129l-0.05-.437h0.05a4.472,4.472,0,0,1,1.032-.026,0.317,0.317,0,0,1,.1.206,0.284,0.284,0,0,1,.025.154h1.259a1.085,1.085,0,0,1,.529.051c0.2,0.246.108,0.774,0.3,1.028a0.268,0.268,0,0,0,.151.026V17.07h0.579V16.813H15.985V15.374H14.147a0.56,0.56,0,0,1-.1.129,2.737,2.737,0,0,1-.931-0.051c-0.017-.054-0.421-0.9-0.428-0.9a0.539,0.539,0,0,0-.151,0,0.093,0.093,0,0,1-.025-0.051c0.036-.053.018-0.141,0.05-0.206,0.048-.094.182-0.161,0.226-0.257a0.807,0.807,0,0,0,0-.231,0.811,0.811,0,0,0,.1-0.026,1.473,1.473,0,0,1,.252-0.36,1.164,1.164,0,0,1,.327-0.129h0.227a0.6,0.6,0,0,0,.126-0.129c0.1-.067.232-0.04,0.327-0.1a0.486,0.486,0,0,0,.025-0.231h-0.1c-0.018-.091-0.031-0.064-0.05-0.154a0.141,0.141,0,0,0,.075-0.1h0.075V12.136h0.2a1.185,1.185,0,0,1-.025-0.386h0.1a0.138,0.138,0,0,0,.1,0c0.062,0.117.122,0.228,0.176,0.36,0.311,0,.579,0,0.856-0.026a0.324,0.324,0,0,1,.352-0.334c0.223,0.234.7-.16,0.806,0.026a0.283,0.283,0,0,1,.025.154,0.38,0.38,0,0,1-.227.051,0.682,0.682,0,0,0-.579-0.1,0.659,0.659,0,0,0-.025.206,0.484,0.484,0,0,1,.2.051h1.133a0.913,0.913,0,0,1,1.158-.386,0.267,0.267,0,0,1,.151,0,0.861,0.861,0,0,1,.252.36H19.66V10.594H19.635a7.9,7.9,0,0,1-1.385.154,0.6,0.6,0,0,1,0-.283H16.916a0.718,0.718,0,0,1-.252.1V10.516c0.1-.025.116-0.03,0.126-0.154a0.554,0.554,0,0,0-.252-0.051,0.39,0.39,0,0,1-.2.026l-0.025-.283H16.161V9.694h0.151l0.025-.386L16.79,9.334a2.214,2.214,0,0,1,.529-0.077V9.1l0.076-.026a0.968,0.968,0,0,1,.4-0.026,0.289,0.289,0,0,1,.076.206H18.3V9.308h2.316V9.257C20.553,9.2,20.576,9.194,20.592,9.1h0.025a0.571,0.571,0,0,0,.5,0V9.154c0.036,0.069,0,.076-0.025.154h0.252a0.1,0.1,0,0,1,.075-0.051V9Zm-21.4,8.713c0.022,0.048.012,0.019,0,.077H0ZM0.2,17.893c0.022,0.048.012,0.019,0,.077H0.176ZM0,17.944A0.094,0.094,0,0,1,.025,18H0V17.944ZM0.151,17.97a0.094,0.094,0,0,1,.025.051H0.151V17.97Zm-0.126.051a0.1,0.1,0,0,1,.05.077H0.025V18.021ZM0.1,18.175h0.05V18.2A0.085,0.085,0,0,1,.1,18.175ZM0.076,18.2a0.394,0.394,0,0,1,.05.18,0.089,0.089,0,0,1-.05.026V18.2Zm0.1,0.488a0.093,0.093,0,0,1,.025.051H0.176V18.689ZM0.1,18.895a0.133,0.133,0,0,1,.025.077H0.151V18.946C0.171,18.9.176,19,.176,19l-0.05.026v0.026H0.1V18.895ZM0.176,19a0.093,0.093,0,0,1,.025.051H0.176V19ZM0.1,19.2a0.133,0.133,0,0,1,.025.077H0.076Zm-0.025.1a0.12,0.12,0,0,1,.076.026H0.126v0.026l-0.05.026V19.306ZM0.1,19.512a0.148,0.148,0,0,1,.025.128L0.1,19.717H0.076v-0.1A0.66,0.66,0,0,0,.1,19.512Zm0.05,0.051a0.093,0.093,0,0,1,.025.051H0.151V19.563Zm0.856,1.079a0.176,0.176,0,0,1,0,.18v-0.18Zm0,0.257h0.05v0.026A0.085,0.085,0,0,1,1.007,20.9Zm-0.025.026a0.29,0.29,0,0,1,.025.18v0.026H0.982V20.925Zm0.076,0.026a0.133,0.133,0,0,1,.025.077H1.057V20.951Zm-0.076.308a0.475,0.475,0,0,1,.05.154,0.091,0.091,0,0,1-.05.026v-0.18Z"/>
</svg>
