<?xml version="1.0" encoding="utf-8"?>
<!-- Generator: Adobe Illustrator 16.0.0, SVG Export Plug-In . SVG Version: 6.00 Build 0)  -->
<!DOCTYPE svg PUBLIC "-//W3C//DTD SVG 1.1//EN" "http://www.w3.org/Graphics/SVG/1.1/DTD/svg11.dtd">
<svg version="1.1" id="Layer_1" xmlns="http://www.w3.org/2000/svg" xmlns:xlink="http://www.w3.org/1999/xlink" x="0px" y="0px"
	 width="39.969px" height="40px" viewBox="0 0 39.969 40" enable-background="new 0 0 39.969 40" xml:space="preserve">
<path id="Color_Fill_1" fill="#FFFFFF" d="M3.469,13.542h3.328c0.756-0.023,1.512-0.001,2.265,0.067v0.2
	c0.094,0.036,0.2,0.009,0.266-0.067H9.161c0.012-0.056,0.012-0.113,0-0.168c-0.029-0.022-0.064-0.034-0.1-0.034v-0.234
	c0.234,0.01,0.468-0.001,0.7-0.034v-0.64c-0.027-0.051-0.039-0.11-0.033-0.168h3.963V12.6h0.067v-0.472
	c0.186-0.132-0.06-0.239,0-0.4l0.1-0.034v-0.711l0.167-0.2c0.088,0.007,0.178,0.007,0.266,0v0.1
	c-0.079,0.002-0.157,0.014-0.233,0.034v0.033c0.177,0.017,0.355,0.017,0.533,0c0-0.036,0.011-0.071,0.033-0.1
	c0.073-0.033,0.154-0.044,0.233-0.034v0.034h0.033v0.1c0.628,0.009,1.373,0.023,1.965,0.034c0.02-0.054,0.031-0.11,0.033-0.168h0.1
	c0.002,0.08,0.013,0.159,0.033,0.236c0.131,0.031,0.266,0.043,0.4,0.034c0.013,0.085-0.019,0.053,0.1,0.067
	c0.057,0.002,0.114,0.014,0.167,0.034c0.016-0.028,0.04-0.051,0.067-0.067c0.031,0.043,0.081,0.068,0.133,0.067
	c0.056-0.09,0.165-0.131,0.266-0.1v0.067l0.533,0.034c0.969,0,1.9,0,2.799,0v0.2c-0.631,0-1.238,0-1.899,0h-0.834v0.067H18.42
	c0,0.036-0.011,0.071-0.033,0.1v-0.1c-0.455-0.045-0.679-0.02-1-0.067v0.1h-0.3v0.034c0.112,0.044,0.1,0.052,0.1,0.2
	c-0.063,0.074-0.143,0.132-0.233,0.168c0,0.42,0.064,0.825,0.067,1.313h0.2l0.033-0.471c0.102-0.055,0.218-0.078,0.333-0.067
	c0.047,0.069,0.071,0.152,0.067,0.236c0.035,0.096,0.046,0.199,0.033,0.3h0.533v0.168c0.082,0.044,0.173,0.067,0.266,0.067
	c0.272,0.074,0.551,0.12,0.833,0.135l-0.067,0.808c0.436,0.106,0.886,0.141,1.332,0.1l-0.666-0.067v-0.1l1.033,0.135
	c0.1-0.07,0.213-0.116,0.333-0.135c0.146,0.121,0.279,0.254,0.399,0.4h0.033v-0.1c-0.064-0.435-0.076-0.875-0.033-1.313V9.872h0.101
	V9.7c0.128-0.084,0.281-0.12,0.433-0.1c0.113,0.06,0.238,0.094,0.366,0.1c0.003,0.025,0.015,0.049,0.033,0.067
	c-0.003,0.025-0.015,0.049-0.033,0.067c-0.14,0.085-0.308,0.109-0.466,0.067c-0.006,0.588,0.051,1.175,0.166,1.751v0.37
	c0.113,0.526,0.088,1.165,0.199,1.683l-0.032,1.01h0.1v0.135h-0.166l-0.067,0.572h0.033c0.045-0.044,0.105-0.069,0.168-0.067
	c0.074,0.063,0.131,0.145,0.166,0.236h1.933v0.2h4c0.724-0.048,1.449-0.015,2.165,0.1h2.664c1.968,0,4.154,0.014,5.962,0.034
	c-0.042-0.162-0.13-0.127-0.166-0.3h0.7c0.019,0.056,0.028,0.116,0.027,0.175c-0.102,0.269-0.125,0.561-0.066,0.843
	c-2.021,0-4.2,0.066-6.361,0.066H30.71c-0.026,0.029-0.05,0.063-0.067,0.1h-3.729l-3.364-0.033
	c-0.389-0.045-0.781-0.033-1.166,0.033c-0.063,0.111-0.141,0.213-0.232,0.301c-0.217,0.109-0.393,0.287-0.5,0.504h0.133
	c0.029,0.022,0.063,0.034,0.1,0.035c-0.014,0.105-0.048,0.207-0.1,0.3h0.133l0.1-0.269l0.334-0.035l0.032-0.1h0.566v0.37
	c0.259-0.032,0.522,0.003,0.766,0.101v0.066c-0.036,0-0.071,0.012-0.101,0.034c0.059,0.001,0.115,0.013,0.168,0.034
	c0-0.037,0.012-0.072,0.033-0.101c0.02,0.038,0.057,0.063,0.1,0.067v-0.029c-0.082-0.043-0.023,0.016-0.066-0.066h0.066v0.033
	c0.096,0.098,0.23,0.146,0.365,0.135c0.174,0.047,0.354,0.069,0.533,0.067c0.426,0.101,0.945,0.147,1.4,0.2v-0.1
	c0.646-0.006,1.287,0.096,1.9,0.3c0.004-0.047,0.015-0.093,0.033-0.136h0.033v0.035c0.022,0.033,0.043,0.135,0.066,0.168v-0.101
	c0.328-0.038,0.66,0.009,0.966,0.135v0.034c-0.047-0.004-0.094,0.008-0.133,0.034h0.032c0.309,0.059,0.623,0.069,0.934,0.034v0.1
	c0.569-0.092,1.152-0.045,1.7,0.135v0.034c-0.036,0-0.071,0.012-0.101,0.034h0.064c0.139,0.053,0.285,0.075,0.434,0.066v-0.1h0.133
	l0.033-0.168c0.133-0.045,0.256-0.112,0.365-0.199l0.833,0.033c-0.031,0.213-0.031,0.428,0,0.641
	c0.228,0.059,0.442,0.16,0.634,0.299c-0.154,0.142-0.279,0.312-0.367,0.5c-0.093,0.098-0.193,0.188-0.299,0.27
	c-0.048,0.043-0.072,0.105-0.067,0.168c0.261,0.146,0.471,0.37,0.6,0.641c0.053,0.328,0.019,0.664-0.1,0.976h0.067v-0.026
	c0.033-0.033,0.032,0.032,0.032,0.033c0.023,0.042,0.058,0.076,0.101,0.1c0.039-0.024,0.086-0.037,0.133-0.033
	c0.018,0.043,0.028,0.088,0.033,0.135h-0.066c-0.242,0.072-0.504-0.006-0.666-0.2c-0.076-0.1-0.061-0.292-0.133-0.399
	c-0.213,0.188-0.523,0.215-0.766,0.066v0.034c0.17,0.422,0.12,0.901-0.134,1.278l-0.067-0.033c0,0.127-0.108,0.134-0.133,0.337
	c-0.295,0.214-0.62,0.384-0.966,0.5c-0.007,0.047,0.027-0.015,0.033,0.034c0.063,0.025-0.067,0.033-0.067,0.033v-0.033h-0.033
	c-0.355,0.268-0.748,0.484-1.166,0.64c-0.477,0.252-0.974,0.481-1.465,0.741c-0.172,0.109-0.35,0.209-0.533,0.3
	c-0.143,0.021-0.287,0.032-0.432,0.034l-0.033,0.066c-0.467,0.179-1.146-0.092-1.666,0.035c-0.574,0.07-1.154,0.081-1.731,0.033
	H10.127c-0.355,0.021-0.712,0.01-1.066-0.033c-0.275-0.06-0.678,0.092-0.933,0.033c-0.203-0.03-0.403-0.075-0.6-0.135
	c-0.217-0.143-0.453-0.256-0.7-0.337c0-0.067,0.034-0.009,0-0.067c-0.253-0.035-0.488-0.154-0.666-0.337
	c-0.04-0.034-0.161-0.006-0.3-0.067c-0.225-0.1-1.044-0.586-1.1-0.571H4.698c0-0.067,0.034-0.009,0-0.067
	c-0.253-0.035-0.487-0.154-0.666-0.337c-0.126-0.019-0.249-0.052-0.366-0.101C3.5,23.825,3.345,23.691,3.2,23.546
	c-0.046-0.116-0.102-0.229-0.167-0.337l-0.2-0.034l-0.2-0.235c0.003-0.206,0.037-0.41,0.1-0.606H2.569
	c-0.037-0.051-0.1-0.056-0.133-0.101c-0.051-0.064-0.051-0.17-0.1-0.235c0.016,0.317-0.018,0.636-0.1,0.942h-0.1l0.1-1.01
	c-0.119,0.005-0.236-0.03-0.333-0.1c-0.004,0.174-0.107,0.329-0.266,0.4c-0.1,0.015-0.201,0.015-0.3,0
	c-0.127,0.137-0.315,0.201-0.5,0.168c-0.018-0.043-0.028-0.089-0.033-0.135c0.042-0.019,0.087-0.029,0.133-0.035
	c0.051,0.028,0.109,0.041,0.167,0.035c0.042-0.059,0.065-0.129,0.067-0.201c-0.153-0.325-0.188-0.694-0.1-1.043
	c0.123,0,0.116,0.043,0.167-0.101c-0.258-0.085-0.489-0.237-0.669-0.44c-0.066-0.446-0.077-0.898-0.033-1.348L0.969,19.1V18.9H0.902
	c-0.132,0.041-0.276,0.029-0.4-0.034c-0.082-0.077-0.119-0.19-0.1-0.3c0.05-0.028,0.078-0.086,0.067-0.143
	c0.079-0.002,0.157-0.014,0.233-0.033c0.034-0.166,0.045-0.336,0.033-0.506c0.021-0.029,0.033-0.064,0.033-0.1l0.866-0.034V17.65
	h0.6v-0.168l1.965-0.034c0.081-0.063,0.159-0.13,0.233-0.2l0.5-0.135v-0.036c-0.149-0.063-0.304-0.107-0.463-0.134v-0.101
	l-1.6-0.168c-0.045-0.188-0.208-0.324-0.4-0.337c-0.162-0.047-0.331-0.071-0.5-0.069c-0.594-0.099-1.199-0.122-1.8-0.069
	c-0.055-0.046-0.101-0.104-0.133-0.168c-0.07-0.514-0.081-1.033-0.033-1.549c-0.04-0.173-0.004-0.355,0.1-0.5h0.932l-0.033-0.64
	c-0.047,0.003-0.094-0.01-0.133-0.037h0.1V12.7H0.935v0.067c-0.057,0.095-0.156,0.157-0.266,0.168
	c-0.106,0.038-0.221,0.05-0.333,0.034c-0.029-0.178-0.029-0.36,0-0.539c0.203-0.082,0.43-0.082,0.633,0
	c-0.025-0.382-0.014-0.766,0.033-1.145h0.067c0.063-0.033,0.138-0.033,0.2,0v0.067c0.08,0.354,0.091,0.72,0.033,1.078
	c0.361-0.016,0.55,0,0.633,0.269h0.034c-0.015-0.136,0.051-0.267,0.167-0.337c0.052-0.029,0.115-0.029,0.167,0
	c0.004,0.042,0.029,0.08,0.067,0.1c-0.043,0.165-0.066,0.334-0.067,0.505H2.034c-0.16-0.24-0.451-0.359-0.733-0.3v0.64
	c0.037,0,0.072,0.011,0.1,0.034H1.269l-0.033,0.64h1.333v-0.17H2.7v-0.033h0.033L2.7,13.71h0.033
	c-0.117-0.039-0.242-0.05-0.364-0.033v-0.135c0.091-0.009,0.181-0.032,0.266-0.067v-2.189h0.134V10.68h0.2V7.414
	C2.928,6.999,2.938,6.58,3.002,6.168l0.031,4.512h0.136c0,1.014,0.033,1.908,0.033,2.862h0.131C3.298,11.865,3.4,9.907,3.4,8.087
	V6.606C3.373,6.404,3.384,6.198,3.433,6v5.252C3.433,12.036,3.538,12.886,3.469,13.542z M21.887,10.242
	c-0.087,0.294-0.109,0.604-0.066,0.909c0.027,0.017,0.05,0.04,0.066,0.067c0.025-0.003,0.049-0.015,0.067-0.034
	c0.085-0.049,0.038,0.007,0.067-0.1c-0.131-0.215-0.002-0.641-0.138-0.842H21.887z M13.994,10.983
	c-0.022,0.064-0.033,0.132-0.033,0.2h0.067c0.007-0.069-0.005-0.138-0.037-0.2H13.994z M14.327,11.183
	c0-0.036-0.012-0.071-0.033-0.1c-0.036-0.036-0.083-0.06-0.133-0.067v0.034c0.1,0.076,0.037,0.017,0,0.135h0.166V11.183z
	 M16.492,11.048c-0.026,0.05-0.06,0.096-0.1,0.135h0.3v-0.065c-0.042-0.004-0.08-0.029-0.1-0.067h-0.1V11.048z M14.26,11.082
	c0.012,0.01,0.066,0.018,0.033,0.067c-0.04-0.014-0.106-0.057-0.036-0.065L14.26,11.082z M14.86,11.722v-0.1
	c-0.21,0.024-0.422,0.024-0.633,0c0.082-0.044,0.023,0.014,0.067-0.067c-0.042-0.018-0.087-0.029-0.133-0.034
	c-0.04,0.025-0.086,0.037-0.133,0.034v-0.168h-0.071v0.168c0.018,0.018,0.029,0.042,0.033,0.067
	c0.277,0.101,0.574,0.136,0.867,0.102L14.86,11.722z M14.16,11.385v0.1h0.166v-0.1h-0.169H14.16z M18.323,11.385
	c0.057,0.03,0.042,0.03,0.1,0H18.323z M21.887,11.419c-0.09,0.317-0.113,0.649-0.066,0.976h0.066c0.074,0.036,0.16,0.036,0.233,0
	v-0.3c-0.065-0.207-0.089-0.424-0.067-0.64h-0.068c-0.029-0.022-0.064-0.034-0.101-0.034L21.887,11.419z M18.157,11.619
	c0.036,0,0.071,0.012,0.1,0.034c-0.037,0.002-0.073-0.008-0.103-0.03L18.157,11.619z M18.823,11.619c0.036,0,0.071,0.012,0.1,0.034
	c-0.037,0.002-0.073-0.008-0.103-0.03L18.823,11.619z M18.057,11.653c0.018,0.019,0.029,0.042,0.033,0.067h-0.036v-0.063
	L18.057,11.653z M13.994,11.788v0.135c0.053,0.021,0.11,0.032,0.167,0.034c0.044-0.048,0.102-0.083,0.166-0.1
	c-0.116,0.009-0.232-0.014-0.336-0.066L13.994,11.788z M18.057,11.788h0.933v0.067c-0.313,0.057-0.634,0.035-0.936-0.064
	L18.057,11.788z M14.427,11.888v0.2c-0.17-0.007-0.339-0.041-0.5-0.1v0.135c0.03,0.178,0.041,0.358,0.033,0.539
	c0.058,0.038,0.094,0.1,0.1,0.168c-0.048,0.027-0.074,0.081-0.067,0.135c0.35,0.077,0.715,0.029,1.033-0.135
	c0.115-0.193-0.067-0.579,0.033-0.808c0.017-0.039,0.1-0.089,0.133-0.135h-0.768L14.427,11.888z M21.854,12.629
	c-0.053,0.323-0.064,0.651-0.033,0.976c0.092,0.053,0.196,0.077,0.301,0.067c0.042-0.023,0.076-0.058,0.1-0.1
	c0.036-0.307,0.002-0.617-0.1-0.909c-0.086-0.034-0.18-0.044-0.27-0.03L21.854,12.629z M14.593,13.168v0.135h0.067
	c0.129-0.042,0.266-0.053,0.4-0.034v-0.2h-0.07c-0.125,0.061-0.261,0.096-0.4,0.103L14.593,13.168z M14.26,13.639v0.236h0.166v-0.1
	l0.167-0.1v-0.032h-0.336L14.26,13.639z M1.035,14.62v-0.2c-0.064-0.022-0.132-0.034-0.2-0.034
	c-0.025,0.087-0.036,0.178-0.033,0.269h0.033C0.897,14.624,0.966,14.612,1.035,14.62z M1.235,14.452v0.135h0.134
	c0.017-0.027,0.04-0.05,0.067-0.067v-0.035L1.235,14.452z M5.098,16.943c0.06,0.043,0.14,0.043,0.2,0H5.098z M5.731,17.01v0.1
	c0.327,0.002,0.639,0.136,0.866,0.371l0.167,0.199h0.4c0.138,0.117,0.327,0.156,0.5,0.1c0-0.106-0.04-0.08,0.1-0.1v0.168h0.065
	v-0.063h0.133v0.066l0.766,0.034c0.031,0.047,0.064,0.093,0.1,0.136c0.18,0.028,0.365,0.006,0.533-0.067v-0.101H8.828l-0.067-0.5
	H8.395v-0.1C7.502,17.233,6.612,17.152,5.731,17.01z M21.551,17.885v-0.199c-0.132,0.041-0.131,0-0.232-0.067
	c-0.005,0.042-0.029,0.079-0.067,0.1v0.034C21.342,17.816,21.443,17.861,21.551,17.885L21.551,17.885z M20.618,17.852
	c0.019,0.018,0.042,0.029,0.067,0.033C20.667,17.867,20.645,17.855,20.618,17.852L20.618,17.852z M26.846,18.491
	c0.021,0.037,0.059,0.063,0.1,0.067c0.027-0.023,0.074-0.045,0.101-0.067H26.846z M27.079,18.491c0.057,0.03,0.043,0.03,0.101,0
	H27.079z M27.313,18.525c0.057,0.029,0.041,0.029,0.1,0H27.313z M27.578,18.559c0.018,0.019,0.041,0.031,0.066,0.034
	C27.627,18.575,27.604,18.563,27.578,18.559L27.578,18.559z M27.512,18.626c0.084,0.069,0.201,0.082,0.299,0.034L27.512,18.626z
	 M27.844,18.66c0.057,0.029,0.043,0.029,0.1,0H27.844z M27.977,18.693c0.019,0.02,0.042,0.031,0.067,0.035
	c-0.018-0.019-0.04-0.03-0.065-0.035H27.977z M30.809,19.031c0.018,0.018,0.041,0.029,0.066,0.033
	c-0.018-0.018-0.04-0.029-0.064-0.035L30.809,19.031z M2.069,21.354c-0.069,0.1-0.104,0.217-0.1,0.338
	c0.085,0.066,0.192,0.102,0.3,0.1c0.006-0.051,0.03-0.099,0.067-0.135l-0.1-0.27C2.185,21.359,2.127,21.348,2.069,21.354z
	 M32.91,21.421c-0.076,0.095-0.113,0.216-0.1,0.337h0.032v0.034c0.026-0.003,0.05-0.016,0.067-0.034
	c0.079-0.016,0.135-0.087,0.133-0.168c0.011-0.047-0.002-0.098-0.033-0.135v-0.034H32.91L32.91,21.421z M1.503,21.521
	c-0.023,0.188-0.083,0.359-0.1,0.571c0.064,0.022,0.132,0.034,0.2,0.034c0.025-0.088,0.037-0.178,0.033-0.27
	c-0.067-0.086-0.067-0.246-0.135-0.336H1.503z M2.769,22.2l0.033-0.37c-0.075-0.025-0.153-0.039-0.233-0.039l-0.033,0.1
	C2.415,22.061,2.576,22.2,2.769,22.2z M5.169,22.971c-0.032,0.086-0.055,0.176-0.067,0.269l0.1,0.034
	c0.032,0.008,0.013,0.025,0.033,0c0.09-0.06,0.129-0.172,0.096-0.273H5.269C5.24,22.979,5.205,22.969,5.169,22.971z M4.836,23.037
	c-0.042,0.087-0.113,0.157-0.2,0.199v0.035h0.033c0.018,0.018,0.042,0.029,0.067,0.033c0.038-0.033,0.084-0.056,0.133-0.065
	c0.047-0.058,0.038-0.144-0.02-0.19c-0.006-0.004-0.012-0.008-0.018-0.012H4.836z M6.868,23.777h-0.3v-0.033H6.53v-0.135
	c-0.274-0.094-0.542-0.206-0.8-0.338c-0.265,0.17-0.543,0.316-0.833,0.438h0.035c0.062,0.062,0.146,0.097,0.233,0.101
	c0.043-0.119,0.143-0.207,0.266-0.236v0.033h0.038c-0.043,0.121-0.077,0.244-0.1,0.371c0.139,0.061,0.284,0.105,0.433,0.135
	c0.018-0.109,0.095-0.201,0.2-0.236v0.034c0.027,0.052,0.039,0.11,0.033,0.168c-0.049,0.069-0.073,0.153-0.066,0.237
	c0.124,0.027,0.238,0.085,0.333,0.168c0.026-0.003,0.049-0.015,0.067-0.033l0.167-0.236c0.025,0.004,0.049,0.016,0.067,0.034
	c0.025,0.003,0.049,0.016,0.067,0.034c-0.063,0.104-0.108,0.218-0.133,0.337c0.12,0.083,0.256,0.14,0.4,0.168
	C6.974,24.768,7,24.73,7.004,24.688c-0.13-0.284-0.179-0.6-0.141-0.91H6.868z M4.332,23.34c-0.011,0.047,0.047,0.049,0.067,0.067
	C4.422,23.372,4.341,23.35,4.332,23.34z M3.869,23.576c0.025,0.053,0.075,0.09,0.133,0.1C3.962,23.637,3.917,23.604,3.869,23.576z
	 M13.328,24.047c0.02,0.32-0.062,0.639-0.233,0.909h1.465v0.034h-0.236v0.236h0.266v0.1h0.2c0.026-0.098,0.038-0.199,0.033-0.301
	c-0.429-0.332-0.613-0.891-0.466-1.414H14.29v0.068c-0.039,0.125-0.122,0.23-0.233,0.299c-0.235,0.082-0.486,0.105-0.732,0.068
	H13.328z M29.648,23.609c-0.073,0.086-0.164,0.154-0.268,0.199c0.066,0.13,0.171,0.234,0.301,0.301
	c0.151-0.127,0.318-0.053,0.332-0.338c-0.031-0.064-0.077-0.121-0.133-0.168c-0.078,0.008-0.158,0.01-0.236,0.006H29.648z
	 M30.113,23.609l0.134,0.236l0.433-0.201v-0.035h-0.1c-0.154,0.03-0.314,0.03-0.469,0H30.113z M31.346,23.643
	c-0.035,0.118-0.13,0.088-0.033,0.135v0.035h0.033v-0.035c0.01-0.021-0.01-0.016,0.033-0.033v0.033h0.033
	c-0.018-0.047-0.041-0.092-0.069-0.135H31.346z M4.035,23.677c0.018,0.019,0.042,0.03,0.067,0.034
	c-0.019-0.019-0.043-0.031-0.07-0.034H4.035z M5.335,23.677c-0.063,0.047-0.101,0.121-0.1,0.2c0.052,0.042,0.017,0.021,0.067,0
	c0.053-0.053,0.065-0.135,0.029-0.2H5.335z M30.014,23.677l0.067,0.236h0.067v-0.034c0.025-0.004,0.049-0.016,0.066-0.033
	c-0.056-0.039-0.092-0.102-0.1-0.169h-0.1H30.014z M4.132,23.71c0.035,0.044,0.081,0.079,0.133,0.101v-0.066
	c0.014-0.009,0.025-0.02,0.034-0.034h-0.03C4.225,23.728,4.176,23.728,4.132,23.71z M31.143,23.71l0.033,0.101h-0.033
	c-0.016-0.027-0.039-0.051-0.066-0.067v0.034c0.018,0.018,0.029,0.041,0.033,0.066h0.066v-0.033
	C31.191,23.74,31.208,23.777,31.143,23.71z M4.332,23.811c0.119,0.117,0.269,0.199,0.433,0.235
	C4.661,23.91,4.503,23.824,4.332,23.811L4.332,23.811z M31.043,23.844c-0.082,0.098-0.221,0.126-0.333,0.067
	c0.012,0.058,0,0.118-0.033,0.168h0.033c0.056-0.07,0.149-0.097,0.233-0.067V23.98c0.009-0.021-0.01-0.016,0.033-0.035v0.035h0.032
	v-0.035c0.005-0.031,0.089-0.07,0.034-0.1V23.844z M28.911,24.044c-0.044,0.122-0.032,0.257,0.032,0.37
	c0.193,0.001,0.367-0.119,0.434-0.3c-0.043-0.063-0.054-0.177-0.1-0.236c-0.076,0.126-0.221,0.192-0.365,0.169L28.911,24.044z
	 M29.411,23.943c-0.004,0.092,0.007,0.183,0.032,0.27h0.033c0.019-0.018,0.042-0.03,0.067-0.033v-0.064
	c-0.04-0.061-0.085-0.116-0.133-0.17V23.943z M20.984,24.044c0.088,0.485-0.121,0.976-0.532,1.246v0.034h0.2v-0.1h0.166V24.99
	c0.042-0.018,0.087-0.029,0.133-0.034c0.007,0.114,0.029,0.228,0.066,0.337c0.107,0.038,0.221,0.05,0.334,0.034v-0.101h0.133V24.99
	c0.042-0.018,0.087-0.029,0.133-0.034c0.039,0.3,0.033,0.392,0.4,0.37v-0.1h0.133c-0.029-0.287-0.146-0.557-0.334-0.774
	c-0.02-0.159-0.053-0.317-0.1-0.472c-0.234,0.082-0.486,0.104-0.732,0.066V24.044z M4.898,24.014c-0.044,0.123-0.059,0.027,0,0.135
	h0.071v-0.067C4.869,24.085,4.962,24.08,4.898,24.014z M5.898,24.014c-0.026,0.07-0.06,0.138-0.1,0.2h0.071v0.034h0.028v-0.066
	c0.037-0.049,0.062-0.107,0.072-0.168H5.898L5.898,24.014z M9.761,24.048c0.004,0.097,0.073,0.179,0.167,0.2
	c0.058,0.043,0.128,0.066,0.2,0.066c0.082-0.035,0.151-0.094,0.2-0.168c-0.009-0.021,0.01-0.015-0.033-0.033
	C10.128,24.037,9.941,24.014,9.761,24.048L9.761,24.048z M17.388,24.048l0.033,0.2c0.014,0.008,0.025,0.02,0.033,0.034
	c0.11,0.042,0.234,0.03,0.333-0.034h0.033v-0.133C17.674,24.109,17.529,24.086,17.388,24.048L17.388,24.048z M25.082,24.048
	c0.05,0.307-0.021,0.62-0.2,0.875c0.078,0.118,0.114,0.259,0.101,0.4h0.466l0.032-0.37h0.133l0.033,0.337
	c0.153,0.034,0.311,0.045,0.467,0.034v-0.1c-0.387-0.129-0.693-0.426-0.834-0.809c-0.015-0.113-0.037-0.227-0.066-0.337
	C25.174,24.055,25.127,24.043,25.082,24.048L25.082,24.048z M28.682,24.048c0.028,0.109-0.016,0.052,0.067,0.101
	c0.029-0.028,0.052-0.063,0.067-0.101h-0.139H28.682z M30.414,24.048l0.033,0.101c-0.152-0.021-0.301,0.061-0.366,0.199h0.101
	c0.104-0.084,0.394-0.137,0.229-0.301L30.414,24.048z M30.514,24.048l0.033,0.101c0.04-0.011,0.076-0.034,0.1-0.067
	c-0.043-0.018-0.09-0.029-0.137-0.034L30.514,24.048z M5.269,24.216l-0.033,0.067C5.289,24.236,5.269,24.216,5.269,24.216z
	 M5.336,24.25l-0.033,0.066c0.053-0.047,0.028-0.067,0.028-0.067L5.336,24.25z M9.499,25.327l0.033-0.337h0.129v0.236
	c0.154,0.077,0.327,0.111,0.5,0.1l0.033-0.337h0.133v0.235c0.143,0.076,0.304,0.111,0.466,0.101
	c0.024-0.077,0.035-0.156,0.033-0.236c-0.188-0.249-0.344-0.521-0.466-0.808c-0.178,0.166-0.458,0.155-0.623-0.023
	c-0.003-0.004-0.007-0.008-0.01-0.011c0.019,0.426-0.199,0.827-0.566,1.044v0.034h0.333L9.499,25.327z M28.783,24.484
	c0.046-0.004,0.091-0.015,0.133-0.033v-0.033h-0.038l-0.032-0.135h-0.068v0.199L28.783,24.484z M6.535,24.484
	c0.011-0.055,0.011-0.111,0-0.168c-0.018,0.02-0.029,0.043-0.033,0.067c-0.027,0.03-0.05,0.063-0.067,0.101H6.535L6.535,24.484z
	 M29.346,24.62v0.101c0.218-0.03,0.418-0.137,0.565-0.301c-0.031-0.035-0.065-0.068-0.101-0.1l0.033,0.1
	c-0.164,0.006-0.314,0.096-0.4,0.236C29.416,24.634,29.381,24.621,29.346,24.62z M29.911,24.32c0.017,0.047,0.039,0.093,0.067,0.135
	c0.029-0.028,0.052-0.063,0.066-0.1c-0.047-0.006-0.092-0.019-0.134-0.039V24.32z M17.222,25.33v-0.1h0.133v0.1
	c0.036,0,0.071-0.012,0.1-0.034c0.083-0.147-0.027-0.282,0.167-0.337l0.067,0.37h0.2c0.041-0.101,0.013-0.076,0.133-0.101
	c0.037,0.101,0.006,0.063,0.1,0.101v-0.07c0.04-0.11,0.073-0.223,0.1-0.337c-0.156-0.174-0.29-0.366-0.4-0.572
	c-0.134,0.076-0.298,0.076-0.433,0c-0.021,0.331-0.164,0.643-0.4,0.875c0.003,0.025,0.015,0.049,0.033,0.067
	c0.062,0.03,0.131,0.043,0.199,0.035L17.222,25.33z M28.68,24.354l-0.033,0.201h0.066V24.52c0.021-0.029,0.033-0.064,0.033-0.101
	c-0.03-0.026-0.039-0.044-0.068-0.069L28.68,24.354z M29.212,24.59l0.033,0.1h-0.034c-0.017-0.027-0.039-0.05-0.066-0.066
	c0.013,0.1,0.055,0.042-0.033,0.1c-0.137,0.101-0.2,0-0.233,0.168c0.019,0.019,0.029,0.042,0.033,0.067h0.067
	c0.125-0.104,0.49-0.183,0.232-0.372L29.212,24.59z M6.997,24.79v0.067H7.03v-0.069H6.996L6.997,24.79z M28.611,24.857l0.033,0.1
	h-0.033c-0.016-0.027-0.039-0.051-0.066-0.066c-0.033,0.119-0.119,0.218-0.232,0.269l0.033,0.1c0.163-0.059,0.531-0.212,0.266-0.403
	V24.857z M28.813,24.857c-0.039,0.035-0.063,0.083-0.067,0.135h0.032v0.033c0.026-0.003,0.05-0.015,0.068-0.033h0.032
	c-0.017-0.049-0.038-0.095-0.065-0.137V24.857z M12.992,25.227h0.5l0.033-0.235h-0.467C13.012,25.061,12.988,25.143,12.992,25.227
	L12.992,25.227z M13.658,24.991v0.235h0.5c0.001-0.079,0.013-0.158,0.033-0.235H13.658z M18.587,25.361
	c0.001-0.058,0.012-0.115,0.033-0.168c-0.106-0.029-0.208-0.075-0.3-0.135v0.235c0.018,0.019,0.029,0.042,0.033,0.067H18.587
	L18.587,25.361z M21.518,25.327h0.101c0.005-0.091-0.007-0.183-0.033-0.269h-0.034v0.033C21.52,25.166,21.508,25.247,21.518,25.327z
	 M22.284,25.327c0.005-0.091-0.007-0.183-0.033-0.269h-0.067v0.199H22.15c-0.032,0.034,0.033,0.033,0.033,0.034
	C22.213,25.314,22.248,25.326,22.284,25.327z M24.784,25.327l0.032-0.269h-0.034v0.033c-0.058,0.087-0.139,0.156-0.233,0.2v0.034
	h0.233L24.784,25.327z M24.852,25.059c-0.01,0.1,0.027,0.198,0.1,0.269v-0.236L24.852,25.059z M9.53,25.327h0.131v-0.068
	c-0.017-0.064-0.051-0.122-0.1-0.168L9.53,25.327z M10.196,25.327h0.133v-0.068c-0.017-0.064-0.051-0.122-0.1-0.168L10.196,25.327z
	 M13.527,25.227h0.1v-0.136h-0.069v0.034c-0.022,0.029-0.034,0.064-0.034,0.102H13.527z M14.193,25.092v0.135h0.1v-0.136
	L14.193,25.092L14.193,25.092z M14.859,25.328h0.133v-0.035c-0.017-0.064-0.051-0.123-0.1-0.168v-0.034h-0.035v0.236L14.859,25.328z
	 M17.523,25.092v0.236h0.1v-0.237L17.523,25.092L17.523,25.092z M18.189,25.092v0.236h0.1v-0.237L18.189,25.092L18.189,25.092z
	 M20.854,25.092v0.236h0.1v-0.237L20.854,25.092L20.854,25.092z M22.318,25.092v0.2c0.131,0.031,0.266,0.042,0.399,0.034v-0.067
	c-0.141-0.037-0.275-0.094-0.401-0.168L22.318,25.092z M25.518,25.092v0.135h0.067v0.035h0.033v-0.137L25.518,25.092z
	 M12.928,25.159c0.007,0.047-0.027-0.015-0.033,0.034c-0.064,0.025,0.067,0.033,0.067,0.033c-0.004-0.026-0.017-0.051-0.037-0.068
	L12.928,25.159z M10.863,25.327h0.133v-0.034c-0.027-0.029-0.05-0.063-0.067-0.1H10.86v0.135L10.863,25.327z M14.993,25.191
	l0.033,0.136h0.1v-0.034L14.993,25.191z M28.249,25.227c-0.029,0.027-0.052,0.062-0.067,0.1h0.067
	c0.034-0.094,0.063-0.026-0.004-0.1H28.249z M12.795,25.26l-0.033,0.067c0.054-0.048,0.03-0.068,0.03-0.068L12.795,25.26z
	 M12.862,25.26v0.067c0.119-0.015,0.084,0.016,0.133-0.067h-0.137H12.862z M13.028,25.26v0.067h0.067v-0.068h-0.07L13.028,25.26z
	 M13.228,25.26v0.067h0.233v-0.034h0.033v-0.034h-0.269L13.228,25.26z M13.528,25.26v0.067h0.133v-0.034
	c-0.014-0.008-0.025-0.02-0.033-0.034L13.528,25.26L13.528,25.26z M13.694,25.26v0.067h0.067v-0.034h0.033v-0.034L13.694,25.26
	L13.694,25.26z M13.894,25.26c0.059,0.064,0.149,0.09,0.233,0.067v-0.034h0.033v-0.034h-0.269L13.894,25.26z M14.194,25.26v0.067
	h0.133v-0.034c-0.014-0.008-0.025-0.02-0.033-0.034L14.194,25.26L14.194,25.26z M14.36,25.26v0.067h0.1v-0.068L14.36,25.26
	L14.36,25.26z M16.925,25.26c-0.018,0.019-0.042,0.03-0.067,0.034v0.034h0.1c-0.003-0.026-0.017-0.051-0.036-0.069L16.925,25.26z
	 M26.352,25.294c0.018,0.019,0.041,0.03,0.066,0.034c-0.02-0.02-0.044-0.031-0.07-0.035L26.352,25.294z M28.083,25.328l-0.067,0.1
	l0.133-0.066c-0.019-0.02-0.043-0.031-0.069-0.034L28.083,25.328z M26.451,25.564c0.018,0.018,0.041,0.029,0.066,0.033
	c-0.019-0.02-0.043-0.032-0.07-0.035L26.451,25.564z M26.917,25.564c-0.011,0.047,0.047,0.049,0.067,0.066
	c0.019-0.037-0.063-0.059-0.071-0.068L26.917,25.564z M8.495,25.6c0.071,0.045,0.162,0.045,0.233,0H8.495z M23.05,25.63
	c0.038,0.034,0.095,0.034,0.134,0H23.05z M15.856,25.898c0.057,0.031,0.043,0.031,0.1,0H15.856z M16.556,25.898
	c0.057,0.031,0.042,0.031,0.1,0H16.556z M17.222,25.898c0.057,0.031,0.043,0.031,0.1,0H17.222z M17.922,25.898
	c0.057,0.031,0.043,0.031,0.1,0H17.922z M18.588,25.898c0.038,0.034,0.095,0.034,0.133,0H18.588L18.588,25.898z"/>
</svg>
