<svg xmlns="http://www.w3.org/2000/svg" width="39.969" height="40" viewBox="0 0 39.969 40">
  <defs>
    <style>
      .cls-1 {
        fill: #fff;
        fill-rule: evenodd;
      }
    </style>
  </defs>
  <path id="us_m4a3e2_sherman_jumbo_cobra_king_ico" class="cls-1" d="M16.12,9.988h1.311V9.933a0.188,0.188,0,0,1-.027-0.11h0.027a1.844,1.844,0,0,0,.383.028,0.145,0.145,0,0,1,0,.138h0.191a0.427,0.427,0,0,0,.055-0.248H18.2l0.027,0.331a6.132,6.132,0,0,0,1.612.083v0.083a4.848,4.848,0,0,1,.9.055h1.257c0.848,0,1.7,0,2.541,0V10.54c-1.232,0-2.56.027-3.852,0.028v0.111a0.344,0.344,0,0,1-.109-0.028,0.293,0.293,0,0,1-.027.166V10.651c-0.9,0-1.462.056-2.24,0.055a2.331,2.331,0,0,0-.055.69,3.793,3.793,0,0,1-.437.028v0.028a5.264,5.264,0,0,1,.082,1.6h0.027a0.472,0.472,0,0,1,.3-0.138,0.47,0.47,0,0,0,.082-0.469,0.425,0.425,0,0,1,.137-0.028,0.722,0.722,0,0,0,.055.248h0.082l-0.027.276h0.082a1.436,1.436,0,0,1,.9-0.138V12.556H19.59v0.276l0.191,0.028a1.117,1.117,0,0,1,.437-0.359,0.533,0.533,0,0,0,.109.055,1.378,1.378,0,0,0-.027.387,2.338,2.338,0,0,1,.9.221,0.841,0.841,0,0,0,.492.359c0.048-.237.239-0.208,0.519-0.193v0.028H22.24a0.627,0.627,0,0,0,.137.387,0.644,0.644,0,0,0,.383.055,5.124,5.124,0,0,1-.027-0.552h0.109a1.082,1.082,0,0,0,.027.442,0.37,0.37,0,0,0,.055.11l0.082-.028a2.4,2.4,0,0,1-.027-0.386c0.033-.071.084,0,0.109-0.166a0.2,0.2,0,0,0-.191-0.083c-0.05.084-.073,0.047-0.164,0.028V13.053a0.138,0.138,0,0,1,.027-0.166c0.02-.024.034-0.031,0.055-0.055a0.45,0.45,0,0,0,.219.083c0.179-.461.562-0.454,1.2-0.442V13.55a1.334,1.334,0,0,1-.383.028,0.85,0.85,0,0,0,.027.193,0.5,0.5,0,0,0,.164.028V13.633h0.082v0.248a4.571,4.571,0,0,1,.929.414,0.808,0.808,0,0,1,.9-0.442,1.446,1.446,0,0,1,.3.3,4.4,4.4,0,0,1,.027.58l0.164,0.083a1.608,1.608,0,0,1,.027.276c0.173,0.007.214,0.052,0.41,0.055l-0.027-.469A0.244,0.244,0,0,0,26.94,14.6c0.369,0.065.818,0.032,1.175,0.111a2.27,2.27,0,0,1,.656.055c0.064,0.064.1,0.157,0.164,0.221l-0.027.3h1.339v0.248h0.082v0.3l9.426,0.138v0.69l-9.426.138v0.276H30.246v0.552H28.771c-0.1.041-.214,0.183-0.328,0.221l-0.464.028a0.876,0.876,0,0,1-.464.11l-0.164-.414a0.1,0.1,0,0,0-.027.055,1.461,1.461,0,0,0-.082.193c-0.029.043-.139,0.045-0.164,0.083v0.276H26.995l-0.027.221a0.521,0.521,0,0,1,.328.276,2.549,2.549,0,0,0,1.147-.166,1.369,1.369,0,0,1,.3-0.166,0.627,0.627,0,0,0,.3.166,0.727,0.727,0,0,1,.383-0.221,1.218,1.218,0,0,0,.3.055,0.722,0.722,0,0,0,.027.138,0.293,0.293,0,0,0,.109.028l0.082,0.138,0.519,0.055v0.055a1.222,1.222,0,0,0,.137.055l0.328-.028a6.272,6.272,0,0,1,.847.055V18.8l-0.164-.083a0.223,0.223,0,0,0,0-.111,0.16,0.16,0,0,1,.109,0c0.107,0.055.143,0.149,0.246,0.193a0.351,0.351,0,0,1,.027-0.11c0.1,0.046.167,0.159,0.246,0.193l0.109-.028a0.971,0.971,0,0,1,.191.111,0.361,0.361,0,0,0,.137.166,0.362,0.362,0,0,1,.246-0.221v0.028a1.344,1.344,0,0,0-.082.331c0.17,0.052.283,0.224,0.437,0.276a1,1,0,0,1,.355.055,2.625,2.625,0,0,1,.191.3,4.76,4.76,0,0,0,.547.359,1.757,1.757,0,0,1,.6.276,0.389,0.389,0,0,0-.3.3c0.1,0,.1-0.013.137,0.055a1.581,1.581,0,0,0-.218.469,3.411,3.411,0,0,1,.519.276,1.618,1.618,0,0,1,.137.3H36.94a0.816,0.816,0,0,0,.355.028V22.22l-1.585.028v0.028h0.027a3.425,3.425,0,0,0,.929.469c0.2,0.087.419,0.233,0.628,0.3l0.465,0.083c0.194,0.081.353,0.246,0.519,0.331l0.41,0.083,0.082,0.138a1.841,1.841,0,0,1,.738.414,0.9,0.9,0,0,0-.246.248,0.176,0.176,0,0,1,.109.028s-0.079.036-.055,0.055h0.027c0.084,0.3.39,0.517,0.492,0.8a1.748,1.748,0,0,1,.027.8,2.013,2.013,0,0,0,.027.387h0.055a3.021,3.021,0,0,1-.055.911H39.727a1.126,1.126,0,0,1-.109.248H39.7a0.1,0.1,0,0,1,.055-0.028V27.6a1.169,1.169,0,0,0-.219.359h0.082a0.235,0.235,0,0,1,.137-0.028,0.168,0.168,0,0,0,.055.055,0.1,0.1,0,0,1-.027.055,1.166,1.166,0,0,1-.437.193,0.71,0.71,0,0,1-.137.221,0.113,0.113,0,0,1-.109-0.028,2.727,2.727,0,0,1-.738.469c-0.019-.021-0.036-0.062-0.055-0.083a0.965,0.965,0,0,1-.246.138v0.028a0.388,0.388,0,0,1,.137.028,0.1,0.1,0,0,1-.055.028,2.544,2.544,0,0,1-.656.387,0.189,0.189,0,0,0-.055-0.111,0.729,0.729,0,0,1-.191.111v0.055c0.089,0.023.042-.014,0.082,0.055H37.268a1.392,1.392,0,0,1-.656.359l-0.027-.083-0.191.111c0.048,0.058.054,0.04,0.055,0.083a7.268,7.268,0,0,1-.628.387,0.206,0.206,0,0,0-.137-0.055,0.823,0.823,0,0,0-.164.083v0.028c0.089,0.023.042-.014,0.082,0.055a2.034,2.034,0,0,1-.71.359l-0.055-.11a1.994,1.994,0,0,1-.219.055v0.028a0.107,0.107,0,0,1,.055.083,6.653,6.653,0,0,1-.847.083,0.354,0.354,0,0,1,.027-0.11H33.525v0.028h0.027a0.318,0.318,0,0,0,.082.055V31H32.787a0.351,0.351,0,0,1,.027-0.11h-0.3v0.028A0.243,0.243,0,0,1,32.6,31h-0.82a0.351,0.351,0,0,1,.027-0.11H31.475v0.028a0.244,0.244,0,0,1,.082.083h-0.82a0.351,0.351,0,0,1,.027-0.11h-0.3v0.028a0.243,0.243,0,0,1,.082.083h-0.82a0.351,0.351,0,0,1,.027-0.11H29.426v0.028a0.243,0.243,0,0,1,.082.083h-0.82a0.357,0.357,0,0,1,.027-0.11H28.388v0.028h0.027a0.316,0.316,0,0,0,.082.055V31H27.7a0.354,0.354,0,0,1,.027-0.11H27.4v0.028a0.492,0.492,0,0,1,.109.083H26.721a0.351,0.351,0,0,1,.027-0.11H26.421v0.028A0.492,0.492,0,0,1,26.53,31H25.71V30.945a0.168,0.168,0,0,0,.055-0.055H25.437v0.028a0.674,0.674,0,0,1,.082.083H24.727a0.351,0.351,0,0,1,.027-0.11H24.426v0.028a0.49,0.49,0,0,1,.109.083H23.743a0.351,0.351,0,0,1,.027-0.11H23.443v0.028a0.49,0.49,0,0,1,.109.083H22.76a0.351,0.351,0,0,1,.027-0.11H22.459v0.028a0.1,0.1,0,0,1,.027.055,0.132,0.132,0,0,1,.082.028h-0.82V30.945A0.168,0.168,0,0,0,21.8,30.89H21.475v0.028a0.675,0.675,0,0,1,.082.083H20.765a0.357,0.357,0,0,1,.027-0.11H20.465v0.028a0.492,0.492,0,0,1,.109.083H19.781a0.354,0.354,0,0,1,.027-0.11H19.481v0.028A0.492,0.492,0,0,1,19.59,31H18.8a0.351,0.351,0,0,1,.027-0.11H18.5v0.028a0.1,0.1,0,0,1,.027.055,0.132,0.132,0,0,1,.082.028h-0.82V30.945a0.168,0.168,0,0,0,.055-0.055H17.514v0.028A0.674,0.674,0,0,1,17.6,31H16.8a0.351,0.351,0,0,1,.027-0.11h-0.3v0.028a0.674,0.674,0,0,1,.082.083H15.82a0.351,0.351,0,0,1,.027-0.11H15.519v0.028a0.49,0.49,0,0,1,.109.083H14.836a0.351,0.351,0,0,1,.027-0.11H14.536v0.028a0.1,0.1,0,0,1,.027.055,0.132,0.132,0,0,1,.082.028h-0.82V30.945a0.168,0.168,0,0,0,.055-0.055H13.552v0.028a0.675,0.675,0,0,1,.082.083H12.842a0.354,0.354,0,0,1,.027-0.11h-0.3v0.028A0.675,0.675,0,0,1,12.65,31H11.858a0.354,0.354,0,0,1,.027-0.11h-0.3v0.028a0.682,0.682,0,0,1,.082.083H10.874a0.354,0.354,0,0,1,.027-0.11H10.574v0.028a0.1,0.1,0,0,1,.027.055,0.132,0.132,0,0,1,.082.028c-0.275,0-.555-0.016-0.792-0.028V30.945H9.863a0.354,0.354,0,0,1,.027-0.111l-0.3-.055v0.028a0.107,0.107,0,0,1,.055.083H9.508a3.148,3.148,0,0,0-.628-0.221l0.027-.138a1.465,1.465,0,0,1-.273-0.083v0.028a0.2,0.2,0,0,1,.055.11H8.634c-0.178-.137-0.48-0.134-0.656-0.276a0.142,0.142,0,0,1-.027-0.083,0.1,0.1,0,0,0,.027-0.055A1.457,1.457,0,0,1,7.7,30.089v0.028a0.527,0.527,0,0,1,.082.111H7.7A1.929,1.929,0,0,1,7.022,29.9a0.169,0.169,0,0,0,.055-0.055l-0.3-.11v0.028a0.529,0.529,0,0,1,.082.11H6.776a1.926,1.926,0,0,1-.683-0.331,0.167,0.167,0,0,0,.055-0.055l-0.3-.111V29.4a0.276,0.276,0,0,1,.082.138H5.9a2.918,2.918,0,0,0-.738-0.3c0.03-.084.073-0.065,0-0.111a0.353,0.353,0,0,0-.219-0.083v0.028A0.2,0.2,0,0,1,5,29.178H4.973a4.324,4.324,0,0,0-.738-0.331V28.819a0.119,0.119,0,0,0,.082-0.083c-0.124-.031-0.187-0.1-0.3-0.138v0.055a0.142,0.142,0,0,1,.027.083H4.016c-0.161-.23-0.453-0.384-0.628-0.663A0.148,0.148,0,0,0,3.5,27.99a0.579,0.579,0,0,1-.137-0.221H3.333V27.8c-0.019.021-.036,0.062-0.055,0.083V27.852a1.409,1.409,0,0,1-.246-0.883H3.087A0.1,0.1,0,0,0,3.142,27v-0.11a0.441,0.441,0,0,1-.027-0.221H3.087v0.028a0.319,0.319,0,0,0-.055.083H3.005V26.582c0.034-.056.145-0.606,0.164-0.69a0.352,0.352,0,0,0,.137,0,1.426,1.426,0,0,0,.109-0.248H3.388a0.194,0.194,0,0,1-.109.055V25.644a1.961,1.961,0,0,1,.574-0.663c0.093,0.136.186-.029,0.3-0.11V24.843c-0.118,0-.1.04-0.137-0.028l0.246-.138V24.65H2.4V24.622a3.076,3.076,0,0,0,.164-0.884H1.885V23.49H2.623a0.354,0.354,0,0,1,.027-0.11H2.6a2.313,2.313,0,0,0-.956-0.11,0.808,0.808,0,0,0-.082-0.276c-0.208-.149-0.587-0.038-0.82-0.166a3,3,0,0,1-.246-0.221,0.134,0.134,0,0,1-.027.083V22.662a0.428,0.428,0,0,1,0-.3C0.38,22.324.4,22.347,0.383,22.247H0.273V22.192c0.009-.048.047-0.046-0.027-0.083C0.129,22.026.021,22.082,0,21.888a1.423,1.423,0,0,1,.219-0.525A0.139,0.139,0,0,1,.3,21.336a0.967,0.967,0,0,1,.164-0.525,3.184,3.184,0,0,1,.383-0.028v0.028a0.494,0.494,0,0,0-.246.028H0.628a0.653,0.653,0,0,0,.383.083,0.187,0.187,0,0,0,.055-0.138,0.093,0.093,0,0,1-.055-0.028,0.344,0.344,0,0,0,.109-0.028,0.764,0.764,0,0,1,.3-0.635,1.021,1.021,0,0,0,.519.111c0.023,0.09-.013.042,0.055,0.083a2,2,0,0,1,.628.055c-0.007.239-.029,0.408,0.109,0.442a0.349,0.349,0,0,1,.328-0.138c0.012-.133.045-0.133,0.055-0.276a3.154,3.154,0,0,1-.492-0.663,0.726,0.726,0,0,1,0-.138,0.266,0.266,0,0,1-.191-0.276l0.546-.525A0.511,0.511,0,0,1,3.06,18.63a3.583,3.583,0,0,1,1.23-.469l0.9-.028a2.215,2.215,0,0,1,.929-0.028c0.186,0.052.4,0.159,0.6,0.221l0.355,0.083c0.045,0.019.118,0.1,0.164,0.11,0.335,0.108.6-.1,0.71,0.221a1.582,1.582,0,0,1,.109.58,2.65,2.65,0,0,1,.137.359,0.952,0.952,0,0,1,.273.138V19.348H9.317v0.414a6.44,6.44,0,0,0,1.366-.166,0.823,0.823,0,0,1,.082-0.221c0.01,0.141.02,0.137,0.164,0.138a0.176,0.176,0,0,0,.164,0c-0.016-.186.03-0.281,0.273-0.276a1.218,1.218,0,0,1,.6-0.083c0.053,0.018.094,0.122,0.137,0.138l0.3-.055-0.027-.359c0.356-.051.381-0.425,0.71-0.469v0.083a1.178,1.178,0,0,0-.464.5,0.1,0.1,0,0,0,.027.055,4.644,4.644,0,0,1,1.612-.193l0.055-.166a1.834,1.834,0,0,0,.547-0.111,17.478,17.478,0,0,0-1.557-1.27,1.484,1.484,0,0,1-.956-1.353H11.5a1.825,1.825,0,0,0-.109-0.193V15.289H10.41a0.427,0.427,0,0,1-.055-0.248,0.288,0.288,0,0,1,.137-0.055V14.6h0.246a0.1,0.1,0,0,1,.027-0.055V14.489a2.6,2.6,0,0,1-.574-1.022c0.123-.056.262-0.344,0.492-0.193a0.313,0.313,0,0,1,.246.331,0.418,0.418,0,0,1,0,.221,0.094,0.094,0,0,1,.055.028,0.094,0.094,0,0,0,.055-0.028,0.748,0.748,0,0,0,.355-0.3,0.616,0.616,0,0,1,.109.166,0.939,0.939,0,0,0-.355.193v0.055a0.654,0.654,0,0,0,.219.11c0.077-.146.074-0.021,0.164,0,0.145,0.034.089-.122,0.219-0.083l0.027,0.083h0.9a1.969,1.969,0,0,1,.3-0.193h0.355c0.7-.151,1.622.078,2.322-0.055,0.017-.278.08-0.455,0.082-0.773h0.137c0.023,0.09-.013.042,0.055,0.083V12.749a3.85,3.85,0,0,1-.027-0.8h0.109c0-.348.053-0.63,0.055-1.022l-0.191.028a0.294,0.294,0,0,0-.055.138H15.656a0.849,0.849,0,0,0-.027-0.193,4.22,4.22,0,0,0-1.12-.028,0.306,0.306,0,0,1-.191.083V10.927h0.027a0.138,0.138,0,0,1,.082-0.028V10.789H14.372a0.589,0.589,0,0,0-.328,0V10.568H13.907V10.292h0.109l0.027-.3c0.29,0.009.495-.023,0.792-0.028V9.822a0.706,0.706,0,0,1,.355-0.055c0.1,0.2.056,0.208,0.41,0.193a1.145,1.145,0,0,0,.464.028V8H16.12V9.988Zm4.044,0.8a0.1,0.1,0,0,1,.027.055H20.164V10.789Zm0.41,0.028c0.03,0.046.048,0.03,0,.055V10.816ZM16.12,10.9c0,0.4.052,0.694,0.055,1.049h0.109c0,0.558-.026,1.108-0.027,1.74a0.3,0.3,0,0,0,.219.083,0.455,0.455,0,0,0,.273.055,2.069,2.069,0,0,1,.191-0.138c0.08-.108-0.061-0.129.082-0.193a0.656,0.656,0,0,1,.3-0.028,16.454,16.454,0,0,1,.027-2.016,0.078,0.078,0,0,1-.027-0.028,1.528,1.528,0,0,1-.328-0.028V11.037a4.592,4.592,0,0,1-.546-0.193Zm3.934-.028a0.131,0.131,0,0,1,.082.028A0.131,0.131,0,0,1,20.055,10.872Zm0.574,0h0.055V10.9A0.094,0.094,0,0,1,20.628,10.872Zm-0.847.028a0.42,0.42,0,0,1,.219.028A0.421,0.421,0,0,1,19.781,10.9Zm0.956,0a0.42,0.42,0,0,1,.219.028A0.421,0.421,0,0,1,20.738,10.9Zm-1.011.028h0.055v0.028A0.093,0.093,0,0,1,19.727,10.927Zm1.229,0h0.055v0.028A0.093,0.093,0,0,1,20.956,10.927Zm-1.257.028a0.188,0.188,0,0,1,0,.193V10.954Zm1.311,0a0.1,0.1,0,0,1,.027.055H21.011V10.954Zm0.027,0.055a0.242,0.242,0,0,1,.027.138,3.193,3.193,0,0,1-1.311.083l-0.027-.083h1.284A0.437,0.437,0,0,0,21.038,11.01Zm-9.727,2.485h0.055v0.028A0.093,0.093,0,0,1,11.312,13.495ZM0.3,22.3a0.758,0.758,0,0,1,0,.469V22.3Zm-0.027.718a0.758,0.758,0,0,1,0,.469V23.02Zm-0.027.718a0.758,0.758,0,0,1,0,.469V23.738Z" transform="translate(0 0.5)"/>
</svg>
