<?xml version="1.0" encoding="utf-8"?>
<!-- Generator: Adobe Illustrator 16.0.0, SVG Export Plug-In . SVG Version: 6.00 Build 0)  -->
<!DOCTYPE svg PUBLIC "-//W3C//DTD SVG 1.1//EN" "http://www.w3.org/Graphics/SVG/1.1/DTD/svg11.dtd">
<svg version="1.1" id="Layer_1" xmlns="http://www.w3.org/2000/svg" xmlns:xlink="http://www.w3.org/1999/xlink" x="0px" y="0px"
	 width="40.031px" height="40px" viewBox="0 0 40.031 40" enable-background="new 0 0 40.031 40" xml:space="preserve">
<g>
	<g>
		<path id="us_m46_patton_73_armor_bat_ico" fill="#FFFFFF" d="M13.381,13.613v-0.789c-0.021-0.062-0.029-0.126-0.024-0.191
			c0.055-0.264,0.015-0.622,0.071-0.885v-0.455c0.077-0.514,0.11-1.034,0.1-1.554h0.1v0.023c-0.044,0.293-0.06,0.589-0.048,0.885
			c-0.059,0.276,0.018,0.6-0.048,0.909c-0.08,0.626-0.104,1.258-0.071,1.889h0.119c0-0.8,0.023-1.634,0.024-2.463h0.012v0.047
			c0.048,0.22,0.056,0.446,0.024,0.669v1.769c0.052-0.027,0.115-0.027,0.167,0c-0.027,0.015-0.045,0.042-0.048,0.072
			c0.045,0.044,0.104,0.069,0.167,0.072c0.03-0.036,0.054-0.076,0.071-0.12c-0.02-0.012-0.036-0.028-0.048-0.048h0.167
			c0.078,0.021,0.16,0.021,0.238,0v0.024c-0.027,0.015-0.045,0.042-0.048,0.072c0.044,0.043,0.104,0.069,0.166,0.072
			c0.03-0.036,0.054-0.076,0.071-0.12c-0.02-0.012-0.036-0.029-0.048-0.048h0.166c0.078,0.016,0.159,0.016,0.238,0v0.024
			c-0.027,0.015-0.045,0.042-0.048,0.072c0.044,0.043,0.104,0.069,0.166,0.072c0.03-0.036,0.054-0.076,0.071-0.12
			c-0.02-0.012-0.036-0.029-0.048-0.048h0.176c0.079,0.016,0.16,0.016,0.238,0v0.024c-0.027,0.015-0.045,0.042-0.048,0.072
			c0.044,0.043,0.104,0.069,0.166,0.072c0.03-0.036,0.054-0.076,0.071-0.12c-0.02-0.012-0.036-0.028-0.048-0.048h0.143
			c0.086,0.021,0.176,0.021,0.262,0v0.024c-0.027,0.015-0.045,0.042-0.048,0.072c0.045,0.044,0.104,0.069,0.167,0.072
			c0.03-0.036,0.054-0.076,0.071-0.12c-0.019-0.012-0.035-0.029-0.047-0.048h0.143c0.086,0.021,0.176,0.021,0.262,0v0.024
			c-0.026,0.015-0.044,0.042-0.047,0.072c0.04,0.038,0.089,0.063,0.143,0.072c0.045-0.029,0.08-0.07,0.1-0.12
			c-0.02-0.012-0.036-0.029-0.048-0.048h0.143c0.086,0.021,0.176,0.021,0.262,0v0.024c-0.027,0.015-0.045,0.042-0.048,0.072
			c0.04,0.038,0.089,0.063,0.143,0.072c0.03-0.036,0.054-0.076,0.071-0.12c-0.02-0.012-0.036-0.028-0.048-0.048h0.157
			c0.086,0.021,0.176,0.021,0.262,0v0.024c-0.07,0.031-0.069,0.015-0.048,0.072c0.036,0.043,0.087,0.069,0.143,0.072
			c0.03-0.036,0.054-0.076,0.071-0.12c-0.02-0.012-0.036-0.029-0.047-0.048h0.166c0.078,0.021,0.16,0.021,0.238,0v0.024
			c-0.027,0.015-0.045,0.042-0.048,0.072c0.045,0.043,0.104,0.069,0.166,0.072c0.03-0.036,0.054-0.076,0.071-0.12
			c-0.019-0.012-0.036-0.029-0.047-0.048h0.166c0.079,0.016,0.16,0.016,0.238,0v0.024c-0.027,0.015-0.044,0.042-0.047,0.072
			c0.044,0.043,0.104,0.069,0.166,0.072c0.03-0.036,0.054-0.076,0.071-0.12c-0.02-0.012-0.036-0.028-0.048-0.048h0.167
			c0.079,0.016,0.159,0.016,0.238,0v0.024c-0.027,0.015-0.045,0.042-0.048,0.072c0.044,0.043,0.104,0.069,0.166,0.072
			c0.03-0.036,0.054-0.076,0.071-0.12c-0.02-0.012-0.036-0.029-0.048-0.048h0.167c0.077,0.027,0.161,0.027,0.238,0v0.024
			c-0.027,0.015-0.045,0.042-0.048,0.072c0.059,0.052,0.136,0.078,0.214,0.072c0.045-0.029,0.08-0.07,0.1-0.12
			c-0.02-0.012-0.037-0.028-0.05-0.047c0.09,0.006,0.082,0.049,0.119-0.024h0.024v-0.048c-0.01-0.006-0.019-0.014-0.024-0.024
			l-0.238-0.024v-0.262c-0.268-0.133-0.581-0.142-0.856-0.024v0.071h-0.119l-0.024-0.143c-0.268-0.043-0.54-0.052-0.809-0.024
			c-0.041,0.036-0.09,0.061-0.143,0.072v-0.048h0.07c0-0.026-0.008-0.051-0.024-0.072c-0.044-0.021-0.094-0.03-0.143-0.024
			c-0.03,0.019-0.065,0.027-0.1,0.024c-0.017-0.054-0.025-0.11-0.024-0.167h-0.1v-0.215h0.1v-0.191
			c0.038-0.015,0.078-0.023,0.119-0.024c0.15,0.029,0.306,0.021,0.452-0.024V12.2c0.089-0.042,0.188-0.058,0.285-0.048
			c0.026,0.035,0.042,0.077,0.048,0.12c0.485,0,1.026,0.023,1.546,0.024V12.2h0.341c-0.002,0.034-0.01,0.068-0.023,0.1h0.143
			c0.014-0.013,0.03-0.021,0.049-0.024V12.13h0.1l0.023,0.239c0.044,0.025,0.093,0.042,0.144,0.048
			c0.005-0.782-0.3-1.472-0.333-2.248h0.07l0.357,2.248c0.184,0.007,0.367,0.031,0.547,0.072c0.131-0.036,0.266-0.052,0.4-0.048
			c0.305,0.058,0.616,0.082,0.927,0.072h0.452c0.229,0.03,0.459,0.038,0.689,0.024h1.332V12.7l-2.806,0.024V12.8h-0.071
			c0.005,0.042-0.004,0.084-0.023,0.12V12.8c-0.287,0.018-0.574,0.002-0.856-0.048h-0.05V12.8c-0.134,0.017-0.27,0.008-0.4-0.024
			v0.048c-0.014,0.218,0.01,0.437,0.071,0.646c0.052-0.026,0.114-0.026,0.166,0c-0.026,0.015-0.045,0.042-0.048,0.072
			c0.039,0.038,0.09,0.063,0.143,0.072c0.03-0.036,0.055-0.077,0.071-0.12c-0.02-0.012-0.036-0.028-0.048-0.048h0.143
			c0.07,0.016,0.145,0.016,0.215,0v0.023c-0.027,0.015-0.045,0.042-0.047,0.072c0.039,0.038,0.089,0.063,0.143,0.072
			c0.029-0.036,0.054-0.077,0.07-0.12c-0.02-0.012-0.036-0.029-0.049-0.049h0.141c0.07,0.017,0.144,0.017,0.214,0v0.024
			c-0.026,0.015-0.044,0.042-0.047,0.072c0.039,0.038,0.089,0.063,0.143,0.072c0.03-0.036,0.054-0.077,0.071-0.12
			c-0.02-0.012-0.036-0.029-0.048-0.048h0.143c0.07,0.017,0.144,0.017,0.214,0v0.024c-0.027,0.015-0.045,0.042-0.048,0.072
			c0.04,0.038,0.089,0.063,0.144,0.072c0.031-0.036,0.057-0.076,0.074-0.12c-0.02-0.012-0.035-0.028-0.048-0.048h0.119
			c0.078,0.021,0.16,0.021,0.238,0v0.024c-0.027,0.015-0.045,0.042-0.048,0.072c0.035,0.043,0.087,0.07,0.143,0.072
			c0.03-0.036,0.055-0.077,0.071-0.12c-0.02-0.012-0.036-0.028-0.048-0.048h0.119c0.078,0.021,0.16,0.021,0.237,0v0.024
			c-0.026,0.015-0.045,0.042-0.048,0.072c0.035,0.043,0.088,0.07,0.143,0.072c0.021-0.031,0.037-0.064,0.049-0.101
			c0.033-0.031,0-0.028-0.024-0.072h0.119c0.069,0.021,0.144,0.021,0.214,0c-0.029,0.111-0.025,0.159,0.119,0.167
			c0.029-0.036,0.054-0.076,0.07-0.12c-0.02-0.012-0.035-0.029-0.047-0.048h0.119c0.094,0.02,0.19,0.02,0.284,0v0.167h0.048
			c0.021-0.031,0.037-0.064,0.047-0.1c0.034-0.031,0-0.028-0.023-0.072h0.117c0.045,0.022,0.027,0.009,0.1,0
			c-0.016,0.057-0.007,0.117,0.023,0.167c0.011-0.006,0.019-0.014,0.024-0.024c0.064-0.082-0.012-0.107,0.101-0.143
			c0.037,0.017,0,0,0.07,0c0,0.107,0,0.131,0.071,0.167v-0.013c0.019-0.029,0.028-0.115,0.047-0.143
			c0.067,0.05,0.058-0.024,0.101,0.048c0.014,0.02,0.023,0.065,0.047,0.12h0.048c0.005-0.091-0.009-0.139,0.047-0.167
			c0.038,0.015,0.081,0.015,0.119,0c-0.019,0.054-0.019,0.112,0,0.167h0.032c-0.004-0.064,0.022-0.125,0.07-0.167
			c0.045,0.021,0.028,0.009,0.1,0c-0.013,0.057-0.004,0.116,0.024,0.167c0.011-0.006,0.019-0.014,0.024-0.024
			c0.064-0.082-0.012-0.107,0.1-0.143c0.032,0.013,0.068,0.013,0.1,0c-0.019,0.045-0.019,0.097,0,0.143
			c0.02-0.002,0.035-0.011,0.049-0.024c0.055-0.088-0.04-0.088,0.07-0.12c0.045,0.021,0.028,0.009,0.101,0
			c-0.002,0.057,0.007,0.113,0.024,0.167c0.01-0.006,0.018-0.015,0.023-0.024c0.013-0.013,0.021-0.03,0.023-0.048
			c0.014-0.032,0.014-0.068,0-0.1c0.056,0.011,0.111,0.011,0.166,0v0.048c-0.015,0.021-0.023,0.046-0.023,0.072
			c0.031,0.021,0.064,0.038,0.1,0.048v-0.02c0.021-0.046,0.037-0.094,0.047-0.143c0.047,0.027,0.043,0.014,0.101,0
			c-0.007,0.049,0.002,0.099,0.024,0.143c0.02,0.016,0.045,0.024,0.07,0.024c-0.006-0.06,0.011-0.12,0.049-0.167v0.023
			c0.037,0.078,0.086,0.15,0.143,0.215c-0.055,0.047-0.074,0.124-0.047,0.191h0.1V13.8c0.051-0.011,0.09-0.05,0.1-0.1h0.024v0.167
			c-0.069-0.009-0.049-0.048-0.101,0.024c-0.02,0.037-0.02,0.083,0,0.12h0.039c0.002-0.018,0.01-0.035,0.023-0.048v0.191h-0.023
			c-0.035-0.062,0.004-0.027-0.071-0.048c-0.021,0.065-0.015-0.01-0.048,0.048c0.025,0.035,0.041,0.077,0.048,0.12
			c0.119,0,0.1-0.013,0.1,0.143h-0.028c-0.039-0.063-0.049-0.006-0.119-0.024v0.024c0.028,0.045,0.053,0.093,0.07,0.143
			c0.027-0.01,0.052-0.027,0.071-0.048v0.167c-0.087-0.016-0.088-0.032-0.119,0.072h0.071v0.072c0.063,0.007,0.05,0.02,0.047,0.143
			c-0.063,0-0.085,0-0.1,0.119c0.034-0.002,0.068-0.01,0.1-0.024v0.167h-0.021c-0.028-0.045,0-0.029-0.047-0.024
			c-0.023,0.052-0.031,0.11-0.024,0.167c0.034-0.002,0.068-0.01,0.1-0.024V15.5c-0.081,0-0.1,0-0.1,0.143
			c0.034-0.002,0.068-0.01,0.1-0.024v0.167h-0.028c-0.021-0.016-0.046-0.024-0.071-0.024v0.145c0.1,0.021,0.094-0.008,0.1,0.143
			h-0.028c-0.021-0.015-0.046-0.023-0.071-0.024v0.167c0.034-0.002,0.068-0.01,0.1-0.024v0.143h-0.1v0.143
			c0.01,0.006,0.019,0.014,0.024,0.024c0.026-0.01,0.051-0.027,0.07-0.048v0.17h-0.023c-0.021-0.016-0.046-0.024-0.071-0.024v0.143
			l7.206,0.1v-0.146c1.188,0.083,2.379,0.083,3.566,0v0.12c0.053,0,0.334-0.048,0.334-0.048c0.182,0.066,0.379,0.083,0.57,0.048
			c0.307-0.193,0.662-0.292,1.023-0.287l0.023,0.072c0.056,0.404,0.056,0.814,0,1.219c-0.125,0.026-0.252,0.034-0.38,0.024
			c-0.098-0.048-0.202-0.082-0.31-0.101c-0.114-0.027-0.227-0.067-0.332-0.12l-0.024-0.072c-0.191-0.034-0.388-0.017-0.571,0.048
			c-0.111-0.021-0.223-0.035-0.336-0.043v0.12c-1.188-0.083-2.379-0.083-3.566,0V17.51c-2.356,0-4.723,0.069-7.111,0.072V17.7
			h-0.021c-0.039-0.063-0.049-0.006-0.119-0.024V17.7c0.019,0.03,0.027,0.064,0.023,0.1c0.1,0.05,0.116,0,0.119,0.167
			c-0.076,0.004-0.15,0.029-0.214,0.072c-0.011-0.05-0.05-0.09-0.101-0.1v0.024c-0.015,0.021-0.023,0.046-0.023,0.072
			c-0.073-0.029-0.145-0.063-0.214-0.1c-0.008-0.061-0.032-0.119-0.071-0.167c-0.066,0.031-0.029,0.034-0.1,0.024
			c0.024,0.104-0.039,0.209-0.145,0.234c-0.015,0.003-0.03,0.005-0.046,0.005c0.001-0.026-0.008-0.052-0.024-0.072
			c-0.02-0.015-0.045-0.023-0.07-0.024c-0.006,0.01-0.014,0.018-0.023,0.024v0.072h-0.134c-0.002-0.035-0.011-0.068-0.024-0.1
			h-0.022v0.024c-0.037,0.053-0.102,0.081-0.166,0.072c0.005-0.046-0.026-0.088-0.071-0.1v0.024
			c-0.016,0.021-0.023,0.046-0.023,0.072h-0.143c-0.003-0.035-0.011-0.068-0.024-0.1h-0.048c-0.02,0.1-0.026,0.094-0.144,0.1
			c0.005-0.046-0.025-0.089-0.071-0.1v0.024c-0.016,0.021-0.023,0.046-0.023,0.072c-0.08-0.01-0.155-0.044-0.214-0.1
			c-0.026,0.094-0.027,0.092-0.144,0.1c-0.002-0.035-0.01-0.068-0.023-0.1h-0.047c-0.129,0.2-0.314,0.026-0.477,0
			c-0.128,0.2-0.283,0.016-0.476,0c-0.095,0.134-0.198,0.262-0.31,0.383c-0.121,0.074-0.232,0.163-0.332,0.263h0.262l0.023,0.072
			h0.238c0.301-0.033,0.604-0.018,0.9,0.049c0.121,0.153,0.255,0.297,0.399,0.43c0.163-0.041,0.333-0.049,0.5-0.024
			c0.028,0.063-0.021,0.043,0.048,0.072V19.16h0.024v0.023c0.075,0.194,0.218,0.355,0.399,0.454c0.027-0.079,0.027-0.079,0.119-0.1
			c0.053,0.043,0.109,0.083,0.166,0.119v0.024c0.064,0.01,0.129,0.025,0.19,0.047c0.054,0.105,0.148,0.184,0.262,0.215
			c0.023,0.045,0.032,0.095,0.024,0.144h0.1c-0.057-0.146-0.091-0.298-0.1-0.454c0.055-0.104,0.09-0.218,0.1-0.335
			c-0.084-0.009-0.146-0.082-0.143-0.167c0.113-0.075,0.245-0.116,0.381-0.119v0.101h0.07v0.12h-0.064v0.119h0.143V19.4
			c0.045,0.188,0.053,0.383,0.024,0.574h0.048c0.074-0.038,0.155-0.063,0.238-0.072v-0.217c-0.092-0.224-0.164-0.455-0.214-0.692
			h0.143c0.136,0.354,0.224,0.724,0.263,1.1c0.32,0.125,0.624,0.293,0.899,0.5c0.12,0.159,0.286,0.276,0.476,0.335
			c0.023,0.251,0.096,0.495,0.215,0.717c-0.255,0.057-0.477,0.211-0.618,0.431c0.031,0.075,0.04,0.159,0.024,0.239
			c-0.035,0.06-0.031,0.043-0.119,0.048v0.143h0.1c-0.007,0.243-0.072,0.48-0.189,0.693c-0.054-0.021-0.062-0.042-0.101-0.024
			s-0.026,0.03-0.048,0.049c0.027,0.045,0.052,0.093,0.07,0.143c-0.126,0.18-0.278,0.342-0.451,0.478
			c-0.038-0.054-0.039-0.05-0.071-0.048c-0.036,0.01-0.069,0.026-0.101,0.048l0.071,0.119c-0.149,0.124-0.309,0.236-0.476,0.335
			l-0.024-0.072l-0.118,0.072c0.029,0.035,0.053,0.076,0.07,0.119c-0.149,0.124-0.309,0.236-0.477,0.335
			c-0.06-0.089-0.053-0.052-0.143,0c0.03,0.036,0.055,0.075,0.071,0.119c-0.147,0.126-0.308,0.238-0.476,0.335
			c-0.026-0.028-0.063-0.046-0.101-0.048c-0.012,0.019-0.028,0.036-0.047,0.048l0.071,0.119c-0.164,0.102-0.315,0.223-0.452,0.359
			c-0.028-0.039-0.071-0.064-0.119-0.072c-0.013,0.02-0.028,0.035-0.048,0.048c0.021,0.036,0.029,0.077,0.023,0.118
			c-0.118,0.141-0.264,0.254-0.428,0.336c-0.025-0.029-0.062-0.046-0.1-0.049c-0.021,0.02-0.045,0.036-0.071,0.049
			c0.028,0.058,0.048,0.041,0.024,0.1c-0.189,0.148-0.426,0.225-0.666,0.215v-0.1c-0.057-0.002-0.113,0.006-0.168,0.023
			c0.01,0.033,0.01,0.067,0,0.101c-0.195,0.034-0.395,0.042-0.594,0.024v-0.121h-0.1v0.121h-0.596
			c0.002-0.041,0.01-0.082,0.025-0.121h-0.144v0.121h-0.57v-0.121h-0.118v0.121h-0.572v-0.121h-0.143v0.121h-0.57v-0.121h-0.119
			v0.121h-0.594c0-0.041,0.009-0.082,0.024-0.121h-0.119l-0.024,0.121h-0.571v-0.121H19.54v0.121h-0.57v-0.121h-0.143v0.121h-0.571
			v-0.121h-0.119v0.121h-0.57v-0.121h-0.119v0.101c-0.196,0.034-0.396,0.042-0.594,0.024v-0.121h-0.12v0.121h-0.571v-0.121h-0.147
			v0.121H15.45v-0.121h-0.119v0.121H14.76v-0.121h-0.119v0.101c-0.196,0.034-0.396,0.043-0.594,0.024v-0.12h-0.119v0.12h-0.571
			v-0.12h-0.141v0.12h-0.572v-0.12h-0.119v0.12h-0.571v-0.12h-0.119v0.12h-0.594v-0.12h-0.119v0.12h-0.571v-0.12h-0.143v0.12h-0.57
			v-0.12H9.716v0.12H9.148v-0.12H9.029v0.12H8.435v-0.12H8.316v0.12H7.745v-0.12H7.602v0.12H7.031c0-0.041,0.009-0.082,0.024-0.12
			H6.916v0.12c-0.211,0.012-0.422-0.018-0.622-0.084c-0.02-0.037-0.028-0.079-0.024-0.12H6.152c-0.027,0.1-0.042,0.1-0.166,0.1
			c-0.113-0.073-0.32-0.041-0.428-0.12c-0.061-0.1,0.049-0.107-0.119-0.119v0.023H5.416v0.072c-0.19-0.01-0.376-0.059-0.547-0.144
			c-0.013-0.013-0.021-0.03-0.024-0.048c0.016-0.021,0.024-0.046,0.024-0.072L4.725,25.95c0,0.026-0.008,0.052-0.024,0.071
			c-0.021,0.016-0.045,0.024-0.071,0.024c-0.147-0.079-0.309-0.129-0.476-0.146l0.024-0.12l-0.119-0.024
			c0.004,0.047-0.026,0.089-0.071,0.1c-0.147-0.092-0.306-0.164-0.472-0.217c0.021-0.054,0.042-0.062,0.024-0.1
			S3.506,25.518,3.488,25.5c-0.071,0.032-0.055,0.073-0.119,0.048c-0.199-0.065-0.374-0.191-0.5-0.358
			c0.026-0.027,0.043-0.063,0.048-0.101l-0.071-0.024v-0.022c-0.024-0.024-0.023,0.024-0.024,0.024
			c-0.026,0.028-0.062,0.045-0.1,0.048c-0.159-0.118-0.302-0.255-0.428-0.406c0.029-0.019,0.054-0.042,0.071-0.072
			c-0.043-0.005-0.081-0.032-0.1-0.071c-0.042,0.021-0.081,0.045-0.119,0.071c-0.161-0.114-0.305-0.252-0.428-0.407
			c0.031-0.041,0.041-0.037,0.024-0.071l-0.048-0.072c-0.059,0.037-0.06,0.071-0.119,0.048c-0.182-0.086-0.337-0.219-0.452-0.383
			c0.039-0.02,0.065-0.057,0.071-0.1c-0.035-0.031-0.076-0.055-0.119-0.072c-0.038,0.054-0.039,0.05-0.071,0.048
			c-0.151-0.101-0.213-0.3-0.357-0.407v0.144c-0.213,0.063-0.444,0.03-0.631-0.091c0.012-0.057,0.021-0.113,0.024-0.172
			c0.027-0.051,0.061-0.1,0.1-0.143c-0.028-0.013-0.047-0.037-0.053-0.066c0.124-0.035,0.244-0.083,0.357-0.145v-0.191
			c-0.042-0.105-0.059-0.221-0.048-0.335h0.12c-0.002-0.057,0.006-0.112,0.024-0.167H0.416c0.006-0.148,0.123-0.459,0.1-0.5
			c-0.122-0.123-0.293-0.175-0.428-0.287c0.264-0.242,0.357-0.618,0.238-0.955c-0.035-0.003-0.068-0.011-0.1-0.024
			c0.058-0.103,0.092-0.218,0.1-0.335c-0.051-0.007-0.101-0.023-0.144-0.051V20c0.027,0.015,0.044,0.041,0.048,0.072H0.206
			c-0.066-0.143-0.09-0.299-0.071-0.454c0.032-0.037,0.042-0.101,0.071-0.144c0.03-0.019,0.065-0.027,0.1-0.023v-0.1
			c0.123-0.027,0.238-0.084,0.333-0.168c0.15-0.027,0.305-0.02,0.452,0.024v-0.144H0.753l-0.024-0.049
			c0.165-0.03,0.333-0.039,0.5-0.023c0.109-0.027,0.221-0.036,0.333-0.024c-0.017-0.085-0.029-0.059-0.048-0.143
			c0.05-0.029,0.107-0.046,0.166-0.048c0.086-0.023,0.173-0.039,0.262-0.049c0.027,0.069,0.067,0.101,0.1,0.168
			c-0.026,0-0.051,0.008-0.071,0.023H1.99c0.021,0.016,0.045,0.023,0.071,0.023c0.1-0.017,0.196-0.051,0.285-0.1
			c-0.033-0.025-0.057-0.061-0.071-0.1c0.059-0.031,0.124-0.048,0.19-0.048c0.101-0.033,0.209-0.033,0.309,0
			c0.023,0.044,0.032,0.094,0.024,0.143h0.167c0.044-0.021,0.094-0.03,0.143-0.024c-0.017-0.084-0.029-0.059-0.048-0.143
			c0.043-0.025,0.092-0.042,0.143-0.048c0.017,0.007,0.243-0.017,0.333,0c0.027,0.136,0.059,0.149,0.238,0.144v-0.063
			c0.077-0.02,0.036,0.012,0.071-0.048c-0.014-0.013-0.024-0.028-0.029-0.048c0.091-0.035,0.188-0.052,0.285-0.047
			c0.069-0.027,0.145-0.027,0.214,0c0.014,0.106,0.013,0.125,0.1,0.143c0.095-0.09,0.217-0.148,0.309-0.239
			c0.021,0.047,0.068,0.075,0.119,0.072v-0.143c0.7,0,1.194-0.049,1.807-0.048v0.1c0.071-0.005,0.143-0.005,0.214,0
			c0.007,0.066,0.054,0.123,0.119,0.143l-0.048,0.072h0.12c0.155-0.134,0.381-0.144,0.547-0.024H7.578v0.024h0.1
			c-0.021-0.176-0.114-0.259-0.143-0.43c0.453-0.105,0.929,0.01,1.284,0.311c0.03-0.019,0.065-0.027,0.1-0.023
			c0.013,0.047,0.013,0.096,0,0.143h0.158c0.167-0.116,0.38-0.143,0.571-0.072v0.072c0.258-0.107,0.545-0.115,0.809-0.024h-0.025
			v0.024h0.262c0.122-0.136,0.294-0.213,0.476-0.215l0.214,0.143l-0.047,0.072h0.143v-0.22c0.225-0.059,0.459-0.075,0.69-0.048
			v-0.047h-0.144c-0.231-0.071-0.471-0.111-0.713-0.12c-0.209-0.052-0.464-0.052-0.69-0.119c-0.066-0.02-0.189-0.083-0.262-0.1
			c-0.109,0.025-0.221,0.034-0.333,0.024c-0.043-0.05-0.101-0.085-0.166-0.1c-0.134,0.207-0.361,0.026-0.523,0
			c-0.09,0.099-0.229,0.138-0.357,0.1c0-0.07,0.023-0.033,0-0.072c-0.052-0.021-0.11-0.028-0.166-0.02
			c-0.063,0.091-0.178,0.132-0.285,0.1c-0.063-0.063-0.149-0.099-0.238-0.1c-0.134,0.207-0.361,0.026-0.523,0
			c-0.067,0.2-0.26,0.039-0.357,0c-0.051,0.1-0.1,0.1-0.262,0.1c0-0.055-0.044-0.1-0.1-0.1l0,0c-0.055,0.088-0.162,0.129-0.262,0.1
			c-0.016-0.055-0.063-0.094-0.119-0.1c-0.048,0.1-0.087,0.1-0.238,0.1c-0.022-0.05-0.066-0.086-0.119-0.1
			c-0.051,0.093-0.162,0.135-0.262,0.1c-0.007-0.059-0.059-0.103-0.119-0.1c-0.035,0.106-0.1,0.1-0.238,0.1
			c-0.015-0.055-0.063-0.094-0.119-0.1c-0.051,0.1-0.1,0.1-0.262,0.1c-0.035-0.059-0.059-0.124-0.071-0.191
			c0.166-0.129-0.057-0.123,0-0.287h0.053c-0.011-0.088-0.026-0.176-0.048-0.263c0.052-0.014,0.083-0.067,0.071-0.12
			c-0.021-0.02-0.045-0.036-0.071-0.048c0.017-0.083,0.04-0.164,0.069-0.243c-0.024-0.068-0.055,0.017-0.071-0.143
			c0.046-0.021,0.075-0.069,0.071-0.12c-0.048-0.031-0.076-0.086-0.071-0.143c0.054-0.026,0.083-0.085,0.071-0.144
			c-0.053-0.026-0.083-0.084-0.071-0.143c0.046-0.021,0.075-0.069,0.071-0.12c-0.054-0.037-0.082-0.103-0.071-0.167
			c0.043-0.006,0.081-0.033,0.1-0.072c-0.07-0.037-0.109-0.113-0.1-0.191c0.066-0.032,0.058-0.033,0.071-0.12
			c-0.069-0.04-0.067-0.035-0.071-0.143c0.046-0.021,0.075-0.069,0.071-0.12c-0.12-0.1-0.029-0.15,0-0.287
			c-0.053-0.026-0.083-0.085-0.071-0.143c0.165-0.1-0.066-0.131,0-0.287c0.046-0.021,0.074-0.069,0.071-0.12
			c-0.069-0.04-0.067-0.034-0.071-0.143c0.066-0.032,0.058-0.033,0.071-0.12c-0.053-0.026-0.083-0.085-0.071-0.143l0.071-0.048
			c0.039-0.1-0.057-0.088-0.071-0.12c0.011-0.083,0.035-0.163,0.071-0.238c-0.034-0.042-0.058-0.091-0.071-0.144
			c0.046-0.016,0.094-0.024,0.143-0.023v0.023c-0.027,0.015-0.045,0.042-0.048,0.072c0.031,0.036,0.073,0.062,0.119,0.072
			c0.036-0.1,0-0.148,0.119-0.167c0.053,0.022,0.113,0.022,0.166,0c-0.03,0.111-0.025,0.159,0.119,0.167
			c0.041-0.085,0.015-0.146,0.1-0.167c0.046,0.02,0.098,0.02,0.143,0c-0.012,0.1-0.033,0.144,0.1,0.167
			c0.018-0.063,0.029-0.057,0.048-0.12c-0.02-0.012-0.036-0.028-0.048-0.048h0.11c0.055,0.012,0.111,0.012,0.166,0
			c-0.019,0.045-0.019,0.097,0,0.143l0.074,0.024v-0.024c0.069-0.088-0.024-0.119,0.119-0.143c0.054,0.018,0.112,0.018,0.166,0
			v0.048c-0.015,0.021-0.023,0.046-0.024,0.072c0.02,0.012,0.036,0.029,0.048,0.048h0.051l0.024-0.048
			c0.061-0.1-0.049-0.107,0.119-0.12c0.055,0.012,0.111,0.012,0.166,0v0.023c-0.027,0.015-0.045,0.042-0.048,0.072
			c0.031,0.036,0.073,0.062,0.119,0.072c0.018-0.063,0.028-0.057,0.048-0.12c-0.02-0.012-0.036-0.028-0.048-0.048h0.12
			c0.055,0.012,0.111,0.012,0.166,0c-0.02,0.045-0.02,0.097,0,0.143l0.071,0.024v-0.024c0.072-0.093-0.028-0.13,0.143-0.143
			c0.071,0.01,0.143,0.01,0.214,0v0.023c-0.027,0.015-0.045,0.042-0.048,0.072c0.045,0.043,0.104,0.069,0.166,0.072
			c0.022-0.058,0.025-0.038,0.048-0.1c0.042-0.034-0.02-0.038-0.048-0.072c0.174,0,0.236,0,0.4,0v0.024
			c-0.027,0.015-0.045,0.042-0.048,0.072c0.044,0.043,0.104,0.069,0.166,0.072c0.03-0.036,0.054-0.076,0.071-0.12
			c-0.02-0.012-0.036-0.029-0.048-0.048h0.147c0.078,0.021,0.16,0.021,0.238,0v0.024c-0.027,0.015-0.045,0.042-0.048,0.072
			c0.045,0.043,0.104,0.069,0.166,0.072c0.03-0.036,0.054-0.076,0.071-0.12c-0.02-0.012-0.036-0.029-0.048-0.048h0.143
			c0.078,0.021,0.16,0.021,0.238,0v0.024c-0.027,0.015-0.045,0.042-0.048,0.072c0.045,0.043,0.104,0.069,0.166,0.072
			c0.03-0.036,0.054-0.076,0.071-0.12c-0.02-0.011-0.037-0.026-0.049-0.045h0.145c0.062,0.022,0.129,0.022,0.19,0v0.024
			c-0.027,0.015-0.045,0.042-0.048,0.072c0.059,0.052,0.136,0.078,0.214,0.072c0.03-0.036,0.054-0.077,0.071-0.12
			c-0.02-0.012-0.036-0.028-0.048-0.048h0.1c0.077,0.027,0.161,0.027,0.238,0c0.006,0.081,0.063,0.149,0.143,0.167V13.4
			c-0.034-0.132-0.042-0.27-0.024-0.406c-0.008-0.279-0.016-0.558-0.024-0.837L10.575,9.5h0.024v0.048
			c0.035,0.141,0.043,0.287,0.024,0.43c0.008,0.279,0.016,0.558,0.024,0.837c0.078,0.858,0.095,1.765,0.1,2.654h0.024
			c0.13-0.036,0.267-0.044,0.4-0.024v0.024c-0.027,0.015-0.045,0.042-0.048,0.072c0.044,0.043,0.104,0.069,0.166,0.072
			c0.021-0.031,0.037-0.064,0.048-0.101c0.042-0.034-0.02-0.038-0.048-0.072c0.174,0,0.236,0,0.4,0v0.024
			c-0.027,0.015-0.045,0.042-0.048,0.072c0.045,0.044,0.104,0.069,0.167,0.072c0.03-0.036,0.054-0.076,0.071-0.12
			c-0.019-0.012-0.035-0.029-0.047-0.048h0.143c0.078,0.021,0.16,0.021,0.238,0v0.024c-0.04,0.036-0.024,0.017-0.024,0.048
			c0.028,0.086,0.036,0.087,0.143,0.101c0.03-0.036,0.054-0.077,0.071-0.12c-0.02-0.012-0.036-0.029-0.048-0.048h0.167
			c0.079,0.016,0.16,0.016,0.238,0v0.024c-0.027,0.015-0.045,0.042-0.048,0.072c0.04,0.038,0.089,0.063,0.143,0.072
			c0.03-0.036,0.054-0.077,0.071-0.12c-0.02-0.012-0.036-0.029-0.048-0.048h0.166c0.079,0.016,0.16,0.016,0.238,0v0.024
			c-0.027,0.015-0.044,0.042-0.047,0.072C13.275,13.579,13.326,13.604,13.381,13.613z M22.132,12.943h0.048v0.024
			C22.162,12.964,22.146,12.956,22.132,12.943L22.132,12.943z M22.532,12.943h0.048v0.024c-0.017-0.003-0.031-0.012-0.043-0.024
			H22.532z M21.914,12.967c0.049-0.006,0.099,0.002,0.143,0.024c-0.048,0.006-0.098-0.003-0.141-0.024H21.914z M22.675,12.967
			c0.042-0.004,0.083,0.004,0.119,0.024c-0.04,0.003-0.079-0.005-0.114-0.024H22.675z M22.818,12.991
			c0.013,0.013,0.021,0.03,0.023,0.048h-0.02v-0.048H22.818z M21.891,13.134h0.955v0.024c-0.013,0.013-0.021,0.03-0.023,0.048
			h-0.928v-0.048c-0.021-0.045-0.029-0.094-0.023-0.143h0.023v0.12L21.891,13.134z M22.841,13.034
			c0.028,0.027,0.028,0.071,0.001,0.099c0,0,0,0.001-0.001,0.001V13.034z"/>
	</g>
</g>
</svg>
