<?xml version="1.0" encoding="utf-8"?>
<!-- Generator: Adobe Illustrator 16.0.0, SVG Export Plug-In . SVG Version: 6.00 Build 0)  -->
<!DOCTYPE svg PUBLIC "-//W3C//DTD SVG 1.1//EN" "http://www.w3.org/Graphics/SVG/1.1/DTD/svg11.dtd">
<svg version="1.1" id="Layer_1" xmlns="http://www.w3.org/2000/svg" xmlns:xlink="http://www.w3.org/1999/xlink" x="0px" y="0px"
	 width="40px" height="40px" viewBox="0 0 40 40" enable-background="new 0 0 40 40" xml:space="preserve">
<path id="Color_Fill_1" fill="#FFFFFF" d="M3.212,15.919h0.34v0.048c-0.12,0.063-0.033-0.021-0.1,0.1H3.8
	c0.275-0.033,0.553-0.033,0.827,0c-0.005,0.104,0.053,0.199,0.146,0.242c0.094,0.042,0.192,0.075,0.292,0.101v-0.101h-0.15
	c0.077-0.186,0.126-0.381,0.146-0.58h0.194v0.1c0.045,0.191,0.045,0.39,0,0.581H5.3c0.356-0.206,1.106,0.178,1.8,0l0.146-0.101
	c0.288-0.06,0.648,0.211,1.022,0.146c0.262,0.015,0.525-0.003,0.783-0.054c0.106-0.065,0.221-0.114,0.341-0.146
	c0.013-0.61-0.214-1.201-0.633-1.645c-0.202,0.129-0.45,0.166-0.681,0.1c-0.015-0.007-0.195-0.242-0.195-0.242H7.445
	c-0.8-0.288-1.58-0.627-2.336-1.016c-0.2-0.1-0.421-0.037-0.633-0.145c-0.25-0.217-0.477-0.461-0.676-0.726
	c-0.036-0.058-0.053-0.126-0.049-0.194H3.99v-0.1c0.057-0.335,0.073-0.677,0.049-1.016c0.069-0.708,0.103-1.418,0.1-2.129h0.338
	c0,0.818-0.008,1.489,0.049,2.274c0.164-0.028,0.332-0.011,0.487,0.048v-0.141h0.194v0.145c0.191-0.002,0.37-0.091,0.487-0.242h0.73
	c0.012,0.02,0.029,0.036,0.049,0.048v0.145c0.162-0.019,0.325-0.019,0.487,0c0.07-0.285,0.104-0.578,0.1-0.871
	c0.336-0.069,0.676-0.119,1.018-0.148c0.016,0.306,0.016,0.613,0,0.919c-0.053,0-0.104,0.016-0.146,0.048
	c0.429-0.014,0.854-0.078,1.268-0.19c-0.016-0.115,0.001-0.232,0.049-0.339c-0.013,0.1,0.004,0.2,0.049,0.29
	c0.547,0.088,1.104,0.104,1.655,0.048c0.125-0.098,0.295-0.117,0.438-0.048c0.01-0.068-0.04,0.019-0.049-0.048
	c-0.094-0.038,0.1-0.048,0.1-0.048c0.17,0.069,0.352,0.103,0.535,0.1c0.01-0.068-0.04,0.019-0.049-0.048
	c-0.094-0.038,0.1-0.048,0.1-0.048c0.133,0.118,0.312,0.171,0.487,0.145v0.145h0.1c0.1,0.052,0.125-0.055,0.292,0
	c0.057,0.058,0.106,0.123,0.146,0.194c0.107-0.025,0.208-0.074,0.292-0.145c0.086,0.022,0.211,0.116,0.341,0.145v-0.149h0.195
	c0.112,0.242,1.684,0.152,2.238,0.145v-0.193c0.288-0.056,0.583-0.072,0.876-0.048c0.078,0.08,0.181,0.131,0.292,0.145
	c0.341-0.157,1.641,0.385,1.8,0.29c-0.053,0.001-0.104-0.016-0.146-0.048h0.146c0-0.053,0.017-0.104,0.049-0.145
	c0.078,0.041,0.159,0.074,0.243,0.1c-0.016-0.266-0.045-0.452,0.146-0.532c0.08-0.019,0.163-0.019,0.243,0
	c0.035,0.089,0.105,0.16,0.195,0.194l-0.049,0.145c0.161,0.285,0.378,0.215,0.779,0.194l-0.049,0.145
	c0.764,0.062,0.672,0.549,1.265,0.581c0.709,0.104,1.428,0.121,2.141,0.048v0.048h0.05v0.145h-1.764v0.1h1.217
	c0.316,0.09,0.649,0.106,0.973,0.048c0.236-0.06,0.522-0.225,0.73-0.29h0.438c0.563-0.083,1.131-0.132,1.701-0.145v0.048
	c-0.041,0.025-0.076,0.06-0.101,0.101h0.049c0.318-0.3,1.38,0.245,1.947,0.194c1.601-0.145,3.446,0.1,5.256,0.1
	c0.696,0.052,1.396,0.052,2.093,0c-0.159-0.031-0.309-0.098-0.438-0.194v-0.1h0.778c0.157-0.061,0.331-0.061,0.487,0v0.242
	l-0.194,0.048v0.048h0.389c0.775,0.104,1.561,0.117,2.34,0.039v0.726c-2.288,0-4.352,0.092-6.667,0.1v0.194
	c-0.127,0.02-0.063-0.036-0.101,0.1c0.063,0.103,0.096,0.219,0.101,0.339c-0.165,0.264-0.311,0.539-0.438,0.823
	c-0.09-0.053-0.19-0.089-0.295-0.105c-0.112-0.144-0.195-0.308-0.242-0.484h-0.047l-0.049,0.532c-0.078,0.032-0.165,0.032-0.242,0
	c-0.145-0.132-0.275-0.277-0.39-0.436c-0.28,0.317-0.697,0.479-1.119,0.436v-0.1c-0.089-0.163-0.106-0.356-0.049-0.532l-0.341,0.048
	c0.003-0.114,0.02-0.228,0.049-0.339h-0.1c-0.111,0.041-0.226,0.074-0.342,0.1c-0.287,0.266-0.688,0.374-1.07,0.29l0.049-0.677
	h-0.045v0.048c-0.146,0.151-0.114,0.347-0.243,0.437c-0.31-0.168-0.3,0.239-0.535,0.194c-0.085-0.016-0.229-0.3-0.341-0.339
	l-0.633,0.1c-0.061-0.03-0.116-0.255-0.195-0.29h-0.973c-0.299-0.1-0.611-0.148-0.926-0.146c-1.152-0.259-2.348-0.259-3.5,0
	c-0.031,0.226-0.115,0.44-0.242,0.629c-0.221,0.066-0.451,0.1-0.681,0.101c-0.157,0.058-0.462,0.24-0.633,0.29
	c-0.314-0.007-0.619-0.108-0.876-0.29h-1.9v0.1h0.049c0.318,0.124,0.603,0.323,0.827,0.581c-0.031,0.042-0.048,0.093-0.049,0.145
	c0.169,0.099,0.349,0.18,0.535,0.242c-0.009-0.124,0.084-0.232,0.208-0.242c0.011-0.001,0.023-0.001,0.034,0
	c0.334,0.236,1.256,0.187,1.314,0.677c0.387-0.06,0.781-0.06,1.167,0v-0.059c-0.055-0.156-0.055-0.327,0-0.483
	c0.305-0.1,0.615-0.18,0.93-0.242c0.09-0.061,0.027,0.088,0.049,0.1h0.292v-0.196c0.191-0.044,0.388-0.061,0.584-0.048
	c0.086,0.126,0.081,0.065,0.292,0.048v-0.146c0.479-0.054,0.951-0.151,1.411-0.29c0.373-0.05,0.752-0.034,1.119,0.048
	c0.257-0.046,0.519-0.062,0.778-0.048c0.621,0.139,1.412,0.148,2,0.29c0.037,0.281,0.17,0.262,0.488,0.242
	c0.037,0.028,0.663-0.091,1.07-0.1v0.484c0.101,0.023,0.198,0.058,0.292,0.1c-0.081,0.057-0.135,0.145-0.146,0.242
	c0.094,0.022,0.178,0.073,0.242,0.146c0.059-0.038,0.107-0.087,0.146-0.146h0.146l0.1,0.146c0.17-0.075,0.364-0.075,0.535,0
	c0.026,0.026,0.043,0.062,0.049,0.1c0.031,0.042,0.049,0.093,0.049,0.146h-0.16V16.21l-0.389-0.048
	c-0.004,0.038-0.021,0.073-0.049,0.1c0.004,0.038,0.021,0.074,0.049,0.101c0.09,0.088,0.188,0.169,0.292,0.241
	c-0.063,0.027-0.036,0-0.05,0.049c0.328,0.128,0.672,0.209,1.022,0.242v-0.152c-0.053,0-0.104-0.017-0.146-0.049h0.195v0.194
	c0.26-0.018,0.256-0.083,0.534-0.1c0.024,0.068,0.059,0.134,0.101,0.194c-0.02-0.168,0.016-0.338,0.1-0.484
	c0.043-0.031,0.094-0.048,0.146-0.048c0.659,0.312,1.343,0.569,2.043,0.774c0.367-0.087,0.742-0.136,1.119-0.146
	c0.34,0.138,0.705,0.204,1.071,0.194c0.164,0.244,0.521,0.3,0.681,0.531c0.471,0.672,0.152,1.913,0,2.613h-0.1
	c-0.04-0.157,0.023-0.074-0.1-0.145c-0.078,0.131-0.113,0.283-0.101,0.436c0.04,0.074,0.058,0.158,0.05,0.242
	c-0.287,0.195-0.494,0.488-0.584,0.822c-0.164-0.021-0.506,0.131-0.535,0.101c-0.069-0.188-0.118-0.383-0.146-0.581
	c-0.166,0.072-0.329,0.152-0.486,0.242c-0.086,0.109-0.029,0.377-0.101,0.484c-0.183-0.09-0.382-0.139-0.584-0.146
	c-0.454,0.412-0.942,0.784-1.46,1.113c0.068,0.151,0.102,0.317,0.1,0.483c-0.1,0.069-0.219,0.104-0.341,0.101
	c-0.147-0.085-0.325-0.103-0.487-0.048c-0.352,0.129-0.621,0.415-0.729,0.773c-0.063,0.23,0.084,0.415,0,0.678
	c-0.121,0.296-0.285,0.573-0.487,0.822c-0.105,0.078-0.22,0.144-0.341,0.194c-0.042,0.077-0.075,0.157-0.101,0.241
	c-0.346,0.319-0.763,0.552-1.217,0.678c-0.125-0.039-0.257-0.056-0.389-0.048c-0.438,0.161-0.915,0.179-1.363,0.048
	c-0.137-0.104-0.267-0.218-0.389-0.339l-0.389-0.048c-0.324-0.181-0.606-0.428-0.827-0.727c-0.101-0.165-0.048-0.355-0.146-0.531
	c-0.065-0.117-0.271-0.257-0.342-0.388c-0.133-0.247-0.006-0.646-0.146-0.871c-0.09-0.043-0.191-0.06-0.291-0.048V24h-0.043
	c-0.03,0.406-0.183,0.795-0.438,1.113c-0.068,0.283-0.167,0.559-0.292,0.822c-0.237,0.246-0.542,0.414-0.876,0.484
	c-0.238,0.109-0.421,0.387-0.681,0.484c-0.751,0.083-1.513,0.018-2.238-0.193c-0.235-0.148-0.435-0.347-0.584-0.581
	c-0.22-0.149-0.431-0.312-0.633-0.483c-0.277-0.543-0.443-1.135-0.487-1.742h-0.73v-0.29h-0.048v0.048
	c-0.071,0.145-0.23,0.225-0.389,0.193c-0.091-0.043-0.192-0.06-0.292-0.047v0.047h-0.049c-0.02,0.709-0.239,1.396-0.633,1.984
	c-0.15,0.137-0.396,0.148-0.535,0.29c-0.183,0.283-0.434,0.516-0.73,0.677l-1.071,0.049c-0.36,0.135-0.758,0.135-1.119,0
	c-0.21-0.096-0.382-0.375-0.584-0.484l-0.341-0.048c-0.201-0.116-0.381-0.263-0.535-0.437c-0.172-0.273-0.139-0.6-0.292-0.919
	c-0.289-0.293-0.416-0.708-0.341-1.112l-0.487-0.049v0.101c0.074,0.253,0.074,0.521,0,0.774c-0.275,0.648-0.671,1.24-1.168,1.741
	c-1.448,1.013-3.443,0.661-4.457-0.788c-0.451-0.644-0.648-1.432-0.556-2.212c-0.811,0-1.717-0.053-2.384-0.1
	c-0.077,0.133-0.197,0.235-0.341,0.29c0.026,0.179,0.009,0.361-0.049,0.531c-0.042,0.031-0.093,0.049-0.146,0.049
	c0.008-0.211-0.008-0.422-0.049-0.629c-0.021-0.033-0.166-0.057-0.195-0.101C2.068,23.229,2.219,23,1.849,22.936
	c-0.163,0.17-0.403,0.244-0.633,0.194c-0.156-0.173-0.242-0.397-0.243-0.63c0.186-0.082,0.365-0.179,0.535-0.29
	c-0.02-0.012-0.037-0.028-0.049-0.048c-0.14,0.078-0.286,0.144-0.438,0.193c-0.003-0.135-0.037-0.268-0.1-0.387
	c0.004-0.114,0.021-0.229,0.049-0.339c-0.1-0.268-0.57-0.381-0.681-0.677L0.24,19.984c-0.01-0.031-0.112-0.021-0.1-0.1
	c0.08-0.183,0.114-0.382,0.1-0.581C0.142,19.188,0.061,19.059,0,18.919c0.164-0.481,0.214-0.995,0.146-1.5
	C-0.039,17.414,0.013,17.467,0,17.227h0.146c0.051-0.065,0.118-0.115,0.195-0.146c-0.007-0.167,0.028-0.333,0.1-0.483
	c-0.158-0.041-0.074,0.023-0.146-0.101c0.198-0.28,0.269-0.632,0.195-0.968v-2.416C0.487,9.8,0.546,6.382,0.535,3h0.1v12.484
	c0.05,0.206,0.066,0.418,0.049,0.629H0.73c0.043-0.068-0.038-0.12,0.1-0.101v0.048c0.2,0.088,0.206,0.239,0.195,0.532H0.973v0.048
	h0.1c0.02-0.173-0.023-0.121,0.1-0.193c0.3-0.215,1.629,0.231,1.849-0.146C3.11,16.188,3.175,16.059,3.212,15.919z M11.582,10.935
	c0.115,0.002,0.229,0.019,0.341,0.048v0.048h-0.487v-0.047C11.489,10.985,11.54,10.968,11.582,10.935L11.582,10.935z M6.424,11.467
	c0-0.052-0.017-0.104-0.049-0.145c-0.205-0.062-0.421-0.078-0.633-0.048c-0.012,0.02-0.029,0.037-0.049,0.048v0.048h0.341
	C6.155,11.429,6.288,11.463,6.424,11.467L6.424,11.467z M12.701,11.419v0.1h0.243v-0.1H12.701L12.701,11.419z M4.575,11.519
	c0,0.052,0.017,0.104,0.049,0.145c0.001-0.054-0.017-0.106-0.05-0.148L4.575,11.519z M17.665,11.519
	c0.077,0.132,0.044,0.122,0.243,0.145c0.027-0.026,0.062-0.043,0.1-0.048v-0.051c-0.116,0.004-0.233-0.012-0.344-0.049
	L17.665,11.519z M4.526,11.761c-0.005,0.068,0.012,0.137,0.049,0.194c0.006-0.069-0.011-0.139-0.049-0.197V11.761z M19.271,11.761
	c0.027,0.026,0.063,0.043,0.1,0.048c-0.027-0.028-0.063-0.045-0.101-0.051L19.271,11.761z M21.85,12.584v0.1L22,12.629v-0.048h-0.15
	V12.584z M17.08,15.242c0.162-0.051,0.338-0.033,0.487,0.048c0.04-0.157-0.024-0.074,0.1-0.145v0.048h0.049l-0.73-0.435v0.1
	C17.082,14.961,17.117,15.106,17.08,15.242z M22.38,15.242v0.145c0.101,0.013,0.202-0.003,0.292-0.048
	c-0.068,0.006-0.137-0.011-0.195-0.048c0.174-0.02,0.123,0.023,0.195-0.1h-0.044c-0.074,0.042-0.159,0.059-0.244,0.051H22.38z
	 M18.68,15.677v0.101h0.049v-0.101h-0.043H18.68z M19.069,15.822v0.1c0.109,0.045,0.232,0.045,0.341,0
	c-0.117-0.014-0.229-0.048-0.335-0.099L19.069,15.822z M19.458,15.967c0.039,0.069,0.116,0.108,0.195,0.1v-0.051L19.458,15.967z
	 M30.65,16.161v0.1H30.8V16.21L30.65,16.161z M0.82,16.742v0.339h0.056V16.98c0.054-0.024,0.104-0.059,0.146-0.1
	c-0.031-0.042-0.048-0.093-0.049-0.145H0.827L0.82,16.742z M31.38,16.79c0.11,0.087,0.261,0.105,0.39,0.048L31.38,16.79z
	 M32.645,16.838v0.1h0.101v-0.051L32.645,16.838z M33.229,17.177c0.338,0.064,0.68,0.098,1.022,0.101v-0.051h-0.042v-0.05
	c-0.354-0.038-0.7-0.136-1.021-0.29v0.146c0.031,0.042,0.048,0.093,0.049,0.145H33.229z M32.986,17.077
	c0.061,0.04,0.126,0.074,0.195,0.1v-0.1h-0.188H32.986z M1.217,22.645c0.015,0.175,0.167,0.305,0.341,0.291
	c0.054-0.071,0.088-0.154,0.1-0.242h-0.1C1.451,22.646,1.333,22.63,1.217,22.645z M33.771,23.227
	c-0.025,0.062-0.042,0.127-0.049,0.193c0.063,0.025,0.129,0.041,0.195,0.048v-0.1h0.049c0.049-0.05-0.048-0.048-0.049-0.048
	C33.887,23.267,33.832,23.231,33.771,23.227L33.771,23.227z M32.993,23.42c-0.106,0.125-0.239,0.224-0.39,0.29v0.048h0.101
	C32.845,23.691,32.95,23.568,32.993,23.42L32.993,23.42z"/>
</svg>
