<?xml version="1.0" encoding="utf-8"?>
<!-- Generator: Adobe Illustrator 16.0.0, SVG Export Plug-In . SVG Version: 6.00 Build 0)  -->
<!DOCTYPE svg PUBLIC "-//W3C//DTD SVG 1.1//EN" "http://www.w3.org/Graphics/SVG/1.1/DTD/svg11.dtd">
<svg version="1.1" id="Layer_1" xmlns="http://www.w3.org/2000/svg" xmlns:xlink="http://www.w3.org/1999/xlink" x="0px" y="0px"
	 width="40px" height="40px" viewBox="0 0 40 40" enable-background="new 0 0 40 40" xml:space="preserve">
<path id="us_m4a2_1944_germ_ico" fill="#FFFFFF" d="M14.43,10.3c0.03,0,0.06,0.01,0.084,0.028c0.058,0.258,0.067,0.525,0.028,0.787
	c-0.051,0.1,0.046,0.049,0.028,0.141l-0.056,0.028c-0.022,0.141-0.012,0.285,0.028,0.422h0.478l0.337-0.112
	c0.085-0.264,0.133-0.538,0.141-0.814h0.113v0.309H15.7v0.056c-0.015,0.097,0.005,0.197,0.056,0.281
	c0.08-0.048,0.165-0.085,0.253-0.112c0.012-0.232,0.139-0.443,0.338-0.562c-0.029-0.052-0.048-0.109-0.056-0.169l0.056-0.028
	c0.049-0.036,0.108-0.055,0.169-0.056v-0.119h0.056c0.05-0.035,0.119-0.023,0.154,0.027c0.006,0.009,0.011,0.019,0.015,0.029
	c-0.063,0.045-0.059,0.046-0.056,0.084c0.035,0.023,0.073,0.042,0.112,0.056c-0.008,0.042-0.028,0.08-0.056,0.112
	c0.41,0.059,0.826,0.068,1.238,0.028c0.09-0.031,0.187-0.041,0.281-0.028v-0.2c0.05-0.036,0.108-0.055,0.169-0.056
	c0.007-0.07,0.026-0.137,0.056-0.2c0.148-0.03,0.299-0.04,0.45-0.028c0.137,0.281,0.072,0.5,0.534,0.478
	c0.09,0.031,0.187,0.041,0.281,0.028c0.017-0.158,0.149-0.279,0.309-0.281c0.292,0.331,0.282,0.3,0.9,0.281
	c0.094,0.066,0.198,0.114,0.309,0.141v-0.611c0.019-0.024,0.028-0.054,0.028-0.084c-0.011-0.007-0.021-0.017-0.028-0.028
	c-0.113,0.003-0.226-0.007-0.336-0.028V9.733c-0.355-0.196-0.781-0.216-1.154-0.056c-0.021,0.034-0.03,0.073-0.028,0.112h-0.172
	c-0.001-0.067-0.011-0.135-0.028-0.2c-0.372-0.059-0.75-0.068-1.125-0.028c-0.064,0.051-0.143,0.081-0.225,0.084V9.621h0.028
	c0.024-0.018,0.054-0.028,0.084-0.028V9.48c-0.064-0.021-0.132-0.03-0.2-0.028c-0.052,0.025-0.111,0.035-0.169,0.028V9.255h-0.137
	V8.974h0.112c0.025-0.101,0.034-0.206,0.028-0.309c0.29,0.009,0.487-0.024,0.788-0.028V8.525c0.125-0.051,0.26-0.07,0.394-0.056
	c0.036,0.049,0.055,0.108,0.056,0.169c0.687,0,1.439,0.027,2.166,0.028V8.609c-0.015-0.015-0.024-0.035-0.027-0.056h0.422V8.525
	h0.027c0,0.172-0.01,0.147,0.201,0.141C21.994,8.593,22.003,8.517,22,8.44h0.141l0.028,0.337c0.372,0.063,0.748,0.1,1.125,0.112
	c0.176-0.04,0.356-0.049,0.535-0.028c0.543,0.13,1.104,0.168,1.66,0.112L28.551,9v0.225l-3.882,0.028v0.112
	c-0.039-0.003-0.077-0.013-0.112-0.028c0.01,0.068,0,0.138-0.029,0.2V9.368c-0.23-0.036-0.465-0.055-0.699-0.056
	c-0.362,0.072-0.734,0.082-1.1,0.028c-0.113,0.007-0.295,0.055-0.479,0.056c-0.054,0.229-0.072,0.465-0.057,0.7
	c-0.139,0.018-0.28,0.027-0.422,0.028v0.028c0.016,0.23,0.063,0.458,0.142,0.674c0.277,0.061,0.563,0.07,0.844,0.028V10.8
	c-0.138-0.073-0.232-0.209-0.253-0.365c-0.082,0.026-0.167,0.044-0.253,0.056c-0.03-0.026-0.058-0.055-0.084-0.084
	c0.001-0.076,0.01-0.151,0.028-0.225c0.045-0.017,0.092-0.027,0.141-0.028c0.025,0.054,0.081,0.088,0.141,0.084
	c0.033-0.158,0.137-0.293,0.281-0.365c0.289-0.102,0.598-0.131,0.9-0.084c-0.004-0.04,0.006-0.079,0.027-0.112
	c-0.007,0.058,0.003,0.117,0.028,0.169c0.429-0.059,0.864-0.059,1.294,0v0.028h-0.029c-0.429,0.06-0.864,0.06-1.293,0v1.012h-0.17
	l-0.027,0.2c0.078,0.003,0.156-0.016,0.225-0.056c0.131,0.016,0.262,0.025,0.395,0.028V10.52h0.112
	c0.019,0.197,0.009,0.396-0.028,0.59c0.271-0.092,0.568,0.027,0.701,0.281c0.024,0.12,0.024,0.245,0,0.365
	c-0.045,0.059-0.074,0.127-0.084,0.2c0.086,0.231,0.221,0.441,0.394,0.618c0.239-0.057,0.487-0.067,0.731-0.028l-0.028-0.2
	c0.071-0.086,0.171-0.146,0.28-0.169c0.072,0.028,0.149,0.038,0.226,0.028c0.056-0.068,0.123-0.126,0.2-0.169
	c0.163,0.021,0.313,0.102,0.422,0.225c0.321,0.223,0.582,0.522,0.759,0.871c0.03,0.149,0.087,0.292,0.169,0.421h1.266
	c0.02,0.055,0.029,0.112,0.028,0.169l9.451,0.112v0.646c-3.136,0-6.285,0.108-9.451,0.112v0.141
	c-0.425,0.093-0.862,0.112-1.294,0.056c-0.045,0.356-0.371,0.608-0.727,0.563c-0.002,0-0.003,0-0.004,0L27.117,15.1
	c-0.133,0.038-0.252,0.117-0.338,0.225c0.065,0.093,0.113,0.198,0.141,0.309c0.422,0.072,0.854,0.053,1.266-0.056l0.281-0.028
	c0.078-0.09,0.162-0.173,0.253-0.25c0.075,0.104,0.185,0.175,0.31,0.2c0.035-0.023,0.073-0.042,0.113-0.056
	c0.075-0.125,0.226-0.183,0.365-0.14c0.053,0.026,0.111,0.036,0.169,0.028c0.04,0.059,0.06,0.129,0.056,0.2h0.113
	c0.061,0.12,0.123,0.121,0.31,0.112c0.09,0.032,0.187,0.041,0.28,0.028V15.8h0.506c0.061-0.085,0.151-0.146,0.254-0.169h0.027
	c-0.074,0.091-0.059,0.025-0.056,0.169c0.124-0.004,0.249,0.015,0.366,0.056c0.027-0.054,0.065-0.102,0.113-0.14
	c-0.139-0.017-0.25-0.118-0.281-0.253c-0.027-0.05-0.006,0,0-0.056c0.039,0.001,0.077,0.011,0.113,0.028
	c0.064,0.084,0.141,0.16,0.225,0.225l0.027-0.084c0.092,0.077,0.176,0.162,0.254,0.253L32.1,15.8
	c0.116,0.097,0.203,0.223,0.254,0.365h0.056c0.06-0.093,0.148-0.163,0.253-0.2c0.007,0.012,0.017,0.021,0.027,0.028
	c-0.062,0.103-0.1,0.218-0.112,0.337c0.253,0.29,0.536,0.555,0.844,0.787c0.072,0.113,0.168,0.209,0.281,0.281
	c0.165-0.044,0.34-0.044,0.506,0c0.104,0.059,0.116,0.223,0.226,0.28c0.117-0.075,0.254-0.114,0.394-0.112v0.142h0.084v0.2h-0.087
	v0.14h0.199c0.025,0.101,0.035,0.205,0.028,0.31h0.535c0.013-0.055,0.042-0.104,0.084-0.142c-0.015-0.276-0.091-0.545-0.226-0.787
	c0.055-0.019,0.112-0.028,0.17-0.028v-0.023h0.025v0.028c0.221,0.243,0.297,0.585,0.199,0.899c-0.063,0.174-0.182,0.322-0.337,0.422
	v0.028h0.056c0.222,0.052,0.451,0.062,0.676,0.028l0.084-0.421l0.199,0.028c0.011,0.131,0.001,0.264-0.027,0.393
	c0.104-0.016,0.209-0.006,0.309,0.027c0.029,0.072,0.039,0.149,0.028,0.226h-0.034v0.028l-0.45,0.027
	c-0.084,0.243-0.208,0.471-0.366,0.674c0.044,0.068,0.102,0.126,0.17,0.17c0.068,0.188,0.211,0.34,0.394,0.422h0.366
	c0.402-0.035,0.809-0.026,1.209,0.027c0.332,0.109,0.646,0.271,0.928,0.479c0.095,0.025,0.183,0.072,0.257,0.137v0.843
	c0.07,0.089,0.146,0.173,0.226,0.253c-0.033,0.033-0.062,0.071-0.084,0.112c0.051,0.062,0.107,0.118,0.168,0.169
	c0.025-0.023,0.054-0.042,0.084-0.056c0.113,0.265,0.207,0.536,0.281,0.814h-0.031v0.028h-0.084l0.027,0.253H40
	c-0.01,0.292-0.038,0.583-0.084,0.871l-0.141-0.028c-0.029,0.072-0.049,0.148-0.057,0.225c0.01,0.037,0.127,0.043,0.057,0.084
	c-0.105,0.252-0.258,0.481-0.45,0.675H39.27c-0.013-0.032-0.033-0.132-0.057-0.056c-0.056,0.051-0.117,0.112-0.169,0.168
	c0.04,0.023,0.062,0.067,0.056,0.112c-0.232,0.101-0.449,0.233-0.646,0.394c-0.039-0.035-0.089-0.056-0.141-0.057
	c-0.064,0.011-0.123,0.04-0.17,0.084c0.031,0.03,0.051,0.069,0.058,0.111c-0.228,0.068-0.438,0.184-0.619,0.337
	c-0.038-0.035-0.089-0.056-0.142-0.056c-0.063,0.01-0.122,0.039-0.168,0.084c0.029,0.03,0.049,0.069,0.056,0.111
	c-0.229,0.064-0.44,0.18-0.619,0.338c-0.038-0.035-0.089-0.056-0.142-0.057c-0.063,0.011-0.121,0.04-0.168,0.084
	c-0.133,0.244-0.373,0.41-0.647,0.45v-0.079c-0.079,0.018-0.154,0.046-0.226,0.084c0.027,0.043,0.027,0.098,0,0.141
	c-0.186,0.13-0.383,0.242-0.59,0.336c-0.09,0.013-0.039-0.066-0.084-0.084l-0.226,0.028c0.003,0.039,0.013,0.077,0.028,0.112H34.6
	c-0.246,0.111-0.518,0.16-0.787,0.141v-0.14h-0.226v0.142H32.8c-0.007-0.012-0.017-0.021-0.028-0.029
	c0-0.15-0.026-0.119-0.225-0.111v0.141h-0.789v-0.142H31.5v0.142h-0.783v-0.142h-0.253v0.142h-0.787v-0.142h-0.254
	c0.009,0.046,0.009,0.095,0,0.142H29.17c-0.178-0.014-0.357-0.014-0.535,0v-0.142h-0.224v0.142H27.65
	c-0.006-0.012-0.016-0.021-0.027-0.029c0-0.15-0.027-0.119-0.225-0.111v0.141h-0.76v-0.142h-0.254
	c0.033,0.138-0.035,0.153-0.225,0.142c-0.168-0.012-0.338-0.012-0.506,0c-0.008-0.012-0.017-0.021-0.028-0.029
	c0-0.15-0.026-0.119-0.226-0.111v0.141h-0.76v-0.142h-0.252c0.045,0.22-0.507,0.153-0.761,0.142v-0.142H23.4v0.142h-0.756v-0.142
	h-0.254v0.142h-0.759v-0.142h-0.254v0.028c0.021,0.034,0.03,0.073,0.028,0.113h-0.76c-0.008-0.012-0.018-0.021-0.028-0.029
	c0-0.15-0.027-0.119-0.225-0.111v0.141h-0.759v-0.142h-0.253c0.045,0.22-0.506,0.153-0.759,0.142v-0.142h-0.253v0.028
	c0.021,0.034,0.03,0.073,0.028,0.113h-0.76v-0.142h-0.253v0.142h-0.759v-0.142h-0.254v0.028c0.021,0.034,0.031,0.073,0.028,0.113
	H15.64c-0.007-0.012-0.017-0.021-0.028-0.029c0-0.15-0.027-0.119-0.225-0.111v0.141h-0.76v-0.142h-0.253
	c0.045,0.22-0.505,0.153-0.76,0.142v-0.142h-0.252v0.028c0.021,0.034,0.031,0.073,0.028,0.113h-0.76v-0.142h-0.253
	c0.045,0.22-0.505,0.153-0.759,0.142v-0.142h-0.254v0.028c0.021,0.034,0.03,0.073,0.028,0.113h-0.76v-0.029H10.6
	c0-0.15-0.027-0.119-0.225-0.111v0.141c-0.265-0.004-0.528-0.032-0.788-0.084c0.013-0.036,0.013-0.075,0-0.111
	c-0.066-0.045-0.146-0.065-0.225-0.057v0.112c-0.273-0.025-0.535-0.122-0.759-0.281c0.018-0.024,0.028-0.054,0.028-0.084
	c-0.071-0.032-0.147-0.051-0.225-0.056v0.084c-0.256-0.043-0.503-0.128-0.731-0.253c0.013-0.036,0.013-0.076,0-0.112
	c-0.058-0.046-0.126-0.074-0.2-0.084c0.002,0.053-0.033,0.1-0.084,0.112c-0.193-0.131-0.411-0.22-0.64-0.259
	c0-0.121,0.04-0.101-0.028-0.141c-0.045-0.043-0.107-0.063-0.169-0.056c-0.011,0.053-0.06,0.089-0.113,0.084
	c-0.233-0.063-0.452-0.167-0.647-0.31c0.014-0.067,0.046-0.033-0.028-0.084c-0.036-0.039-0.093-0.051-0.141-0.027
	c-0.023,0.025-0.042,0.053-0.056,0.084c-0.221-0.115-0.457-0.2-0.7-0.253c0.005-0.052,0.024-0.1,0.056-0.14l-0.253-0.084
	c-0.003,0.038-0.013,0.076-0.028,0.111c-0.273-0.033-0.528-0.151-0.731-0.337c0.031-0.017,0.052-0.049,0.056-0.084
	c-0.078-0.011-0.15-0.05-0.2-0.112c-0.032,0.049-0.083,0.08-0.141,0.084c-0.156-0.229-0.412-0.367-0.563-0.617
	c0.052-0.012,0.088-0.06,0.084-0.112c-0.044-0.052-0.082-0.108-0.113-0.169L2.925,24.8c-0.12-0.278-0.196-0.573-0.225-0.875h0.113
	l-0.028-0.253H2.672L2.7,23.279H2.082v-1.321c-0.106-0.013-0.183-0.108-0.17-0.215c0-0.003,0.001-0.007,0.001-0.011
	c0.047-0.043,0.105-0.072,0.169-0.084v-0.983H2.053v0.028c-0.021,0.054-0.028-0.057-0.028-0.057
	c0.048-0.055,0.069-0.128,0.056-0.199h0.31v-0.109c-0.102-0.006-0.191-0.072-0.225-0.169c0.023-0.046,0.042-0.093,0.056-0.142
	c0.085,0.001,0.17-0.008,0.253-0.027V19.85c0.043-0.086,0.063-0.184,0.056-0.281c-0.036-0.014-0.074-0.023-0.113-0.027V19.6
	C2.4,19.625,2.39,19.654,2.39,19.684c-0.096-0.002-0.191-0.021-0.281-0.056l0.029,0.082c-0.131-0.027-0.262,0.044-0.309,0.169
	c-0.03,0.067-0.096,0.111-0.169,0.112c0,0-1.1-0.155-1.181-0.2c-0.084-0.065-0.16-0.141-0.225-0.225
	C0.23,19.59,0.202,19.609,0.17,19.622v-0.054c0.024-0.125,0.004-0.256-0.057-0.368H0v-0.052c0.058,0,0.115-0.009,0.169-0.028
	c-0.001,0.058,0.009,0.114,0.028,0.169c0.301-0.004,0.582-0.149,0.759-0.393C1.4,18.5,1.892,18.16,2.419,17.884
	c-0.03-0.026-0.058-0.054-0.084-0.084c0.234-0.019,0.216-0.177,0.478-0.2c0-0.029,0.01-0.06,0.028-0.084
	c0.024-0.018,0.054-0.027,0.084-0.027l0.028,0.056c0.062-0.03,0.132-0.041,0.2-0.028c0.063,0.037-0.012,0.062,0.056,0.057
	c0.051-0.041,0.073-0.107,0.056-0.17c0.448,0,0.752,0.031,1.153,0.029c0.017-0.046,0.026-0.094,0.028-0.142
	c-0.187-0.077-0.014-0.226-0.028-0.337H4.36c-0.013-0.16-0.004-0.32,0.028-0.478c0.576-0.037,1.149-0.121,1.712-0.25h0.51
	c0.304-0.083,0.615-0.14,0.928-0.169c0.053,0.13,0.154,0.28,0.2,0.393c0.01,0.084,0.01,0.169,0,0.253
	c0.015,0.015,0.035,0.024,0.056,0.028c-0.01-0.342,0.191-0.654,0.506-0.787c0.233-0.174,0.488-0.316,0.759-0.422
	c0.176-0.04,0.358-0.04,0.534,0c0.3,0.065,0.519,0,0.788,0.084c0.225,0.104,0.441,0.227,0.647,0.365
	c0.004,0.13,0.043,0.256,0.113,0.365c0.295-0.182,0.639-0.271,0.985-0.253c0.06,0.049,0.127,0.087,0.2,0.112
	c0.199-0.025,0.396-0.062,0.591-0.112c0.054-0.026,0.109-0.143,0.169-0.169c0.129-0.03,0.261-0.049,0.394-0.056
	c0.156,0.01,0.308,0.047,0.45,0.112c0.106-0.083,0.177-0.203,0.2-0.337c-0.257-0.008-0.5-0.119-0.675-0.309
	c-0.027-0.478-0.027-0.956,0-1.433c-0.342-0.122-0.709-0.16-1.069-0.112c-0.071-0.029-0.148-0.039-0.225-0.028
	c-0.048-0.105-0.068-0.222-0.056-0.337c0.041-0.146,0.05-0.3,0.028-0.45h0.591v-0.055l-0.7-0.927c0.03-0.03,0.05-0.07,0.056-0.112
	c-0.022,0-0.134-0.044-0.084-0.084c0.111-0.184,0.321-0.284,0.534-0.253l-0.028,0.056L12.6,11.56c0.077,0.065,0.144,0.141,0.2,0.225
	c-0.03,0.112-0.02,0.231,0.028,0.337c0.034,0.021,0.073,0.031,0.113,0.028c0.1-0.127,0.233-0.2,0.338-0.337v0.028
	c0.042,0.038,0.071,0.087,0.084,0.141c-0.138,0.043-0.258,0.132-0.338,0.253l0.535,0.056V11.7h0.619
	c0-0.475-0.054-0.865-0.056-1.377c0.045-0.017,0.093-0.027,0.141-0.028c-0.007-1.491,0.028-3.074,0.028-4.609
	C14.236,5.124,14.254,4.557,14.346,4v0.056c0.041,0.165,0.051,0.337,0.028,0.506v5.2C14.413,9.938,14.432,10.119,14.43,10.3z
	 M24.13,9.485c0.015,0.015,0.024,0.035,0.028,0.056h-0.023V9.48L24.13,9.485z M23.989,9.569c0.03,0,0.06,0.01,0.084,0.028
	c-0.029-0.002-0.058-0.014-0.079-0.033L23.989,9.569z M24.607,9.569c0.031,0,0.061,0.01,0.084,0.028
	c-0.029-0.002-0.057-0.014-0.078-0.033L24.607,9.569z M23.736,9.597c0.067-0.01,0.137,0,0.199,0.028
	c-0.066,0.008-0.134-0.003-0.194-0.032L23.736,9.597z M24.749,9.597c0.067-0.01,0.138,0,0.2,0.028
	c-0.066,0.008-0.135-0.003-0.195-0.032L24.749,9.597z M23.68,9.625h0.057v0.028h-0.023v0.028c-0.016-0.016-0.025-0.038-0.027-0.06
	L23.68,9.625z M24.945,9.625h0.057C24.975,9.666,25,9.655,24.951,9.621L24.945,9.625z M25.002,9.681
	c0.035,0.051,0.035,0.118,0,0.169V9.677V9.681z M13.193,11.785h0.056v0.028C13.228,11.81,13.208,11.8,13.193,11.785z"/>
</svg>
