<svg xmlns="http://www.w3.org/2000/svg" width="39.969" height="40" viewBox="0 0 39.969 40">
  <defs>
    <style>
      .cls-1 {
        fill: #fff;
        fill-rule: evenodd;
      }
    </style>
  </defs>
  <path id="us_m60a2_ico" class="cls-1" d="M13.9,18.323l0.36,0.06a0.223,0.223,0,0,0-.06.18,4.544,4.544,0,0,0,.511.03V18.5a1.582,1.582,0,0,0,.991-0.03H15.075V17.933a2.269,2.269,0,0,0,.54-0.629c0.008-.029.024-0.011,0-0.03-0.064-.063-0.145-0.12-0.21-0.18a0.961,0.961,0,0,1,.691-1.048,1.175,1.175,0,0,1,.03-0.359,1.992,1.992,0,0,1,.661-0.15,0.614,0.614,0,0,1,.21-0.6,0.2,0.2,0,0,1,.12-0.03V14.7h0.3v0.21h0.03v-0.03c0.214-.229.222-0.192,0.661-0.18a0.437,0.437,0,0,1,.18,0,0.4,0.4,0,0,0,.06.09l0.421-.09a4.919,4.919,0,0,0,.541.09V14.7a0.452,0.452,0,0,1,.27.18L19.97,15a1.411,1.411,0,0,0,.39-0.18,0.52,0.52,0,0,1,.15.06l0.03,0.21H20.6a0.288,0.288,0,0,1,.33-0.21v0.03c-0.072.09-.069,0.274-0.15,0.36a0.287,0.287,0,0,0-.15.15,3.538,3.538,0,0,0,.42.509,1.182,1.182,0,0,0,.481.03v0.09a0.476,0.476,0,0,1,.24.03v0.06c0.134,0.072,1.131-.017,1.351.03h1.411l0.06-.09,0.661,0.09v0.15c-1.015.005-2.3,0-3.483,0v0.09a0.713,0.713,0,0,1-.24-0.03,0.55,0.55,0,0,0-.03.15,0.486,0.486,0,0,0,.27.27,0.31,0.31,0,0,1,.3-0.15,0.3,0.3,0,0,1,.15.3c-0.339.323,0.336,0.615,0.45,0.869v0.659H22.042v0.12h0.841a1.591,1.591,0,0,0,.06-0.27h0.21v0.15a0.184,0.184,0,0,1,.06.06l0.09-.03a0.547,0.547,0,0,0,.03-0.18h0.18a1.2,1.2,0,0,0,.06.27H24.5a1.138,1.138,0,0,1,1.171-.389v-0.09a1.065,1.065,0,0,0,.541.03c0.106-.064-0.03-0.1.21-0.12,0.057,0.036.175,0.028,0.24,0.06a1,1,0,0,1,.39.539,2.69,2.69,0,0,0,.751.09c0.353-.232-0.008-0.668.811-0.659,0.108,0.1.224,0.2,0.33,0.3a1.673,1.673,0,0,1-.09.569,0.346,0.346,0,0,1,.06.09l0.21,0.03a0.43,0.43,0,0,1,.03-0.15c0.052,0.024.055,0.079,0.09,0.03a0.421,0.421,0,0,1,.21-0.12,0.883,0.883,0,0,0,.3.06c0.033-.139.064-0.153,0.24-0.15a0.193,0.193,0,0,0,.21.12v-0.24a1.8,1.8,0,0,1,.661-0.12c0.061,0.017.129,0.1,0.18,0.12h1.982a3.663,3.663,0,0,1-.03.988h0.571v0.27H32.222v0.12h0.571v0.12l0.751,0.03a0.644,0.644,0,0,1,.03.21,2.942,2.942,0,0,1-.781.03v0.09c2.4,0,4.851-.029,7.207-0.03V21.5c-2.434,0-4.967-.029-7.447-0.03a0.671,0.671,0,0,1,.06.27c-0.007.02-.048,0-0.06,0.15h-0.3a0.775,0.775,0,0,1-.661.539l-0.39.03c-0.217.087-.491,0.2-0.721,0.3a0.419,0.419,0,0,1-.36.479H29.94a0.411,0.411,0,0,1-.3.15l0.03,0.33a5.042,5.042,0,0,0,1.321.03,0.959,0.959,0,0,1,.541-0.06c0.18-.039.508,0.029,0.721-0.03,0.128-.035.225-0.176,0.33-0.21a0.277,0.277,0,0,1,.21.06c0.08,0.012.15-.055,0.27-0.06V23.5a0.461,0.461,0,0,0-.3.3h0.09a0.2,0.2,0,0,1,.18-0.09c-0.01.058,0,.221,0,0.359h0.09v0.18l0.09,0.03a1.1,1.1,0,0,0,.6.09c0.031-.166.063-0.213,0.27-0.21a2.042,2.042,0,0,0,.961.27h0.541c0.351,0.076.714,0.079,1.051,0.18a0.464,0.464,0,0,0,.27.09,1.794,1.794,0,0,1,.18-0.15h0.751a0.762,0.762,0,0,1,.12-0.24,0.56,0.56,0,0,0,.27.12,0.261,0.261,0,0,1,.12-0.09v0.03a4.5,4.5,0,0,0-.39.779,2.193,2.193,0,0,1,.661.719,0.368,0.368,0,0,1,.15.33c-0.011.027-.281,0.439-0.3,0.449-0.051.027-.116,0.007-0.15,0.03a0.258,0.258,0,0,1,.03.15l-0.511.359c0.146,0.729-.265,1.15-0.21,1.707h0.06c0.08,0.044.161-.015,0.24,0.03a0.2,0.2,0,0,1,.03.12l-0.09.03a0.934,0.934,0,0,1-.571-0.09c-0.032.049-.023,0.159-0.06,0.21-0.016.022-.5,0.417-0.511,0.419a1.907,1.907,0,0,0-.21-0.03c-0.06.055-.032,0.185-0.09,0.24a4.084,4.084,0,0,1-.48.329,0.662,0.662,0,0,0-.33.03,0.166,0.166,0,0,1-.03.18l-0.45.329a0.757,0.757,0,0,0-.27.03c-0.089.057-.066,0.205-0.15,0.27a3.4,3.4,0,0,0-.42.27,1.134,1.134,0,0,1-.3-0.06,0.656,0.656,0,0,1-.811.569,0.553,0.553,0,0,1-.06.27,3.482,3.482,0,0,0-.48.359,2.24,2.24,0,0,0-.27-0.06,0.44,0.44,0,0,1-.12.27,1.677,1.677,0,0,1-.6.24,0.336,0.336,0,0,0-.21-0.09c-0.112.022-.2,0.145-0.33,0.18-0.48.124-1.653-.122-1.922,0H28.318c-0.042-.024-0.053-0.168-0.12-0.09a1.65,1.65,0,0,1-.811.09,0.227,0.227,0,0,0-.24-0.15,0.757,0.757,0,0,1-.751.15c-0.035-.08-0.058-0.063-0.09-0.15h-0.15v0.09a2.393,2.393,0,0,1-.721.06,0.208,0.208,0,0,0-.21-0.15,0.757,0.757,0,0,1-.751.15,0.208,0.208,0,0,0-.21-0.15v0.09a2.52,2.52,0,0,1-.751.06,0.192,0.192,0,0,0-.18-0.15,0.808,0.808,0,0,1-.781.15,0.212,0.212,0,0,0-.15-0.15,0.873,0.873,0,0,1-.811.15,0.212,0.212,0,0,0-.15-0.15,0.792,0.792,0,0,1-.781.15,0.261,0.261,0,0,0-.15-0.15,0.86,0.86,0,0,1-.811.15,0.212,0.212,0,0,0-.15-0.15,0.792,0.792,0,0,1-.781.15,0.33,0.33,0,0,0-.15-0.15,0.873,0.873,0,0,1-.811.15,0.212,0.212,0,0,0-.15-0.15,0.808,0.808,0,0,1-.781.15,0.33,0.33,0,0,0-.15-0.15,0.589,0.589,0,0,1-.09.15H15.916a0.942,0.942,0,0,0-.15-0.15,0.792,0.792,0,0,1-.781.15,0.212,0.212,0,0,0-.15-0.15,0.808,0.808,0,0,1-.781.15,0.261,0.261,0,0,0-.15-0.15,0.867,0.867,0,0,1-.781.15,0.216,0.216,0,0,0-.18-0.15,0.708,0.708,0,0,1-.721.15,0.192,0.192,0,0,0-.21-0.15,0.661,0.661,0,0,1-.691.15,0.216,0.216,0,0,0-.18-0.15,0.808,0.808,0,0,1-.781.15l-0.03-.09c-0.054-.021-0.045.022-0.06,0.03a1.376,1.376,0,0,1-.571.06H7.508V32.88a3.9,3.9,0,0,0-.661,0,3.038,3.038,0,0,1-.27-0.15l-0.15-.03a1.334,1.334,0,0,0-.21-0.3,0.821,0.821,0,0,1-.21.03,1.464,1.464,0,0,1-.42-0.36,0.9,0.9,0,0,0-.12-0.329,0.4,0.4,0,0,1-.18,0s-0.358-.385-0.36-0.389a0.441,0.441,0,0,0-.09-0.27,0.666,0.666,0,0,1-.541-0.689,0.466,0.466,0,0,1-.24,0l-0.36-.329a0.9,0.9,0,0,0-.12-0.329,0.4,0.4,0,0,1-.18,0,1.44,1.44,0,0,1-.42-0.659,0.278,0.278,0,0,1-.21-0.06l-0.631.06a0.531,0.531,0,0,1-.751.419,0.1,0.1,0,0,0-.03-0.06l0.03-.09h0.06a0.534,0.534,0,0,1,.21.03l0.03-.06a1.817,1.817,0,0,0,.03-0.569c0.063-.176.236-0.214,0.3-0.389H1.261c-0.044-.075-0.038-0.055-0.15-0.06v-0.15H1.081c-0.184.306-.847,0.436-0.991,0a0.661,0.661,0,0,1-.06-0.479c0.062-.047.089-0.138,0.15-0.18a2.981,2.981,0,0,1,.45-0.18l0.03,0.09a0.3,0.3,0,0,1,.15-0.03c0.1,0.039.157,0.163,0.27,0.21v-0.03a0.259,0.259,0,0,0,.03-0.15H1.021a0.935,0.935,0,0,0-.03-0.3,0.8,0.8,0,0,1-.3.15v-0.06a0.182,0.182,0,0,0,.06-0.06c-0.076-.044-0.034.006-0.06-0.09a0.274,0.274,0,0,0,.21-0.12,1.561,1.561,0,0,1-.24-0.869V25.571a1.076,1.076,0,0,1-.15-0.329,3.18,3.18,0,0,0,.931-0.809l0.18,0.03V22.906a1.7,1.7,0,0,0,.36-0.03v-0.12c-0.115-.071-0.023-0.146,0-0.27-0.16.018-.322,0.075-0.511,0.09-0.02-.108-0.059-0.084-0.03-0.15,0.044-.076.038-0.055,0.15-0.06a0.361,0.361,0,0,1,.3.03,7.52,7.52,0,0,1,1.982-.18,0.642,0.642,0,0,1,.03.21,9.962,9.962,0,0,0,1.922-.18h4.685l1.171,0.24V21.737a0.426,0.426,0,0,0,.36-0.06H9.88c-0.023-.02-0.067-0.039-0.09-0.06a4.689,4.689,0,0,1-.06-1.468H9.67V20.12H9.64v0.6a3.292,3.292,0,0,0-.12.929H8.8a17.346,17.346,0,0,1,0-3.714H9.369v-0.06c-0.054-.04-0.1-0.156-0.15-0.18h-0.6v0.09a0.629,0.629,0,0,1-.39.06c-0.115-.038-0.118-0.061-0.12-0.21a1,1,0,0,1,.27-0.03,0.463,0.463,0,0,1,.12-0.15H9.4a4,4,0,0,1,.931.779V18.8c0.362,0,.7-0.011.991,0v-0.27h0.15v-0.18H11.5v-0.03a0.251,0.251,0,0,0,.15-0.03,1.263,1.263,0,0,0,.03-0.509h0.09a4.574,4.574,0,0,1,.06-1.348V10.684a9.142,9.142,0,0,1,.03-1.528h0.03v0.03a1.985,1.985,0,0,1,.03.719v4.942a7.055,7.055,0,0,0,.06,1.617v0.629c0.016,0.071.03,0.689,0.03,0.689l0.09,0.03a4.518,4.518,0,0,1,.03.539,0.277,0.277,0,0,1,.18,0c0.012,0.107-.014.075,0.06,0.12a0.424,0.424,0,0,1,.24-0.09,0.641,0.641,0,0,1,.03.21h0.21v-0.03h0.03v-0.09a1.078,1.078,0,0,0,.631-0.06s-0.117-.006-0.06-0.03h0.06a0.7,0.7,0,0,1,.3-0.06c-0.005-2.707.03-5.487,0.03-8.237V7.869A2.435,2.435,0,0,1,13.874,7C13.873,10.773,13.9,14.6,13.9,18.323Z" transform="translate(-0.031)"/>
</svg>
