<?xml version="1.0" encoding="utf-8"?>
<!-- Generator: Adobe Illustrator 16.0.0, SVG Export Plug-In . SVG Version: 6.00 Build 0)  -->
<!DOCTYPE svg PUBLIC "-//W3C//DTD SVG 1.1//EN" "http://www.w3.org/Graphics/SVG/1.1/DTD/svg11.dtd">
<svg version="1.1" id="Layer_1" xmlns="http://www.w3.org/2000/svg" xmlns:xlink="http://www.w3.org/1999/xlink" x="0px" y="0px"
	 width="39.969px" height="40px" viewBox="0 0 39.969 40" enable-background="new 0 0 39.969 40" xml:space="preserve">
<path id="us_m18_hellcat_black_cat_ico" fill="#FFFFFF" d="M11.104,11.953h0.093c-0.012,0.168-0.012,0.337,0,0.506
	c0.156-0.013,0.313-0.002,0.467,0.032v0.032h-0.031c-0.044,0.028-0.174,0.034-0.218,0.063c-0.064,0.291-0.075,0.591-0.031,0.886
	h0.062c0.03-0.224,0.072-0.446,0.125-0.665c0.561-0.234,1.168-0.332,1.773-0.285c0.304,0.025,0.609-0.007,0.9-0.095h0.031v-0.031
	h-1.024c-0.053,0.049-0.117,0.083-0.187,0.1v-0.069h0.093c0-0.034-0.011-0.067-0.031-0.095c-0.048-0.026-0.103-0.037-0.157-0.031
	c-0.047,0.026-0.102,0.038-0.156,0.032v-0.222h-0.122v-0.253h0.124v-0.317c0.256,0.011,0.448,0,0.746,0v-0.158
	c0.112-0.028,0.227-0.039,0.342-0.032c0.04,0.055,0.061,0.122,0.062,0.19h1.991v-0.125h0.031c0.121,0.045,0.253,0.045,0.373,0
	c0,0.159-0.017,0.131,0.187,0.127c0.023-0.073,0.034-0.15,0.032-0.227h0.125l0.031,0.316c0.099,0.041,0.205,0.062,0.311,0.063
	c0.253,0.158,0.926-0.1,1.213,0.032c0.443,0.062,0.89,0.094,1.337,0.095c0.351,0.042,0.705,0.053,1.058,0.032
	c0.713,0,1.332,0,1.99,0v0.222l-3.607,0.032c-0.026,0.1,0.015,0.048-0.062,0.095v-0.029h-0.032c0.006,0.055-0.004,0.11-0.031,0.158
	v-0.126H18.6c0.003,0.044-0.007,0.089-0.031,0.127c-0.015-0.2-0.111-0.172-0.311-0.158c-0.166,0.042-0.341,0.031-0.5-0.032v0.063
	c-0.177,0.012-0.354,0.001-0.529-0.032c-0.123,0.063-0.263,0.086-0.4,0.063c-0.016,0.026-0.037,0.047-0.062,0.063
	c0.008,0.063,0.008,0.127,0,0.19c0.964-0.005,1.7,0.154,2.613,0.158v0.032h-0.033c-0.027,0.021-0.1,0.042-0.124,0.063
	c0.103,0.151,0.167,0.324,0.187,0.506c0.089-0.156,0.255-0.253,0.435-0.253v0.506c0.178,0.006,0.176,0.049,0.342,0.063v-0.349h0.062
	c0.03-0.008,0.012-0.025,0.031,0c0.109,0.095,0.195,0.214,0.25,0.348c0.189,0.017,0.377,0.05,0.56,0.1
	c0.101,0.4,0.136,0.593,0.685,0.57c0.18,0.108,0.381,0.173,0.591,0.19v-0.066c-0.087-0.033-0.155-0.103-0.188-0.19
	c0.038-0.027,0.08-0.048,0.124-0.063c0.136,0.171,0.307,0.311,0.5,0.411c0.008-0.039,0.029-0.073,0.063-0.095
	c0.057,0.021,0.109,0.054,0.154,0.095c0.082,0.013,0.06-0.054,0.094-0.063l0.558,0.063c0.017,0.041,0.026,0.083,0.031,0.127
	c-0.013,0.008-0.024,0.019-0.031,0.032l-0.5,0.095v0.158l4.323,0.063c0.84-0.061,1.682-0.05,2.52,0.032h3.2
	c0.806,0.083,1.618,0.094,2.427,0.032c1.387,0,3.041,0.059,4.323,0v0.791c-1.375-0.065-3.101,0-4.571,0
	c-0.851-0.062-1.703-0.051-2.552,0.032h-0.677c-0.84-0.061-1.682-0.05-2.52,0.032h-1.836l-2.613,0.032
	c-0.674-0.025-1.349-0.015-2.021,0.032v0.221l-0.188,0.032c-0.096,0.352-0.303,0.663-0.59,0.886v0.032h0.03
	c0.013,0.045,0.048,0.082,0.093,0.095c0.029-0.046,0.09-0.151,0.125-0.095c0.118,0.113,0.204,0.254,0.25,0.412
	c0.221,0.074,0.451,0.117,0.684,0.127c0.066-0.071,0.139-0.135,0.218-0.19c0.162-0.028,0.329,0.005,0.467,0.095h0.56v0.096h0.156
	v-0.13c0.121-0.158,0.301-0.261,0.5-0.285v0.411c0.258-0.037,0.518-0.059,0.777-0.063c0.273,0.048,0.543,0.111,0.809,0.189
	c0.236-0.313,0.58-0.527,0.965-0.6c0.173,0.07,0.34,0.155,0.5,0.253l0.373,0.032c0.133,0.385,0.186,0.793,0.154,1.199h0.031
	c0.008-0.013,0.018-0.023,0.031-0.031c0.061-0.27,0.165-0.526,0.311-0.76c0.381-0.342,0.957-0.342,1.338,0
	c0.309,0.616,0.438,1.307,0.373,1.994c0.447,0.313,0.819,0.723,1.088,1.199c0.059,0.047,0.111,0.1,0.156,0.158
	c0.055,0.304,0.055,0.614,0,0.918h0.063c0.049-0.027,0.107-0.027,0.156,0v0.127l-0.094,0.032c-0.037,0.023-0.08,0.034-0.124,0.032
	c-0.001,0.074-0.013,0.148-0.03,0.222h-0.129c-0.014-0.086-0.034-0.171-0.063-0.253c-0.031-0.053-0.15-0.073-0.188-0.127
	c-0.028-0.135-0.08-0.264-0.154-0.38c-0.061,0.037-0.123,0.07-0.188,0.1c-0.046,0.061-0.087,0.124-0.124,0.19
	c0.036,0.076,0.063,0.055,0.031,0.127c-0.029,0.093-0.233,0.326-0.312,0.506c-0.02,0.094-0.029,0.189-0.03,0.285
	c-0.062,0.092-0.122-0.014-0.155,0.158c0.015,0.083,0.015,0.169,0,0.252h-0.094c-0.014,0.09-0.045,0.177-0.094,0.254
	c-0.043,0.007,0.013-0.026-0.03-0.032c-0.024-0.062-0.031,0.063-0.031,0.063c0.017,0.017,0.027,0.039,0.031,0.063
	c-0.126,0-0.074-0.053-0.125,0.032c-0.063,0.182-0.169,0.345-0.312,0.475l-0.154-0.032v0.032c-0.037,0.027-0.4,0.429-0.436,0.476
	c-0.07-0.028-0.08-0.057-0.124-0.032c-0.157,0.178-0.335,0.337-0.528,0.475l-0.188-0.032c-0.029,0.049-0.051,0.103-0.063,0.158
	c-0.111,0.11-0.236,0.206-0.373,0.285c-0.072,0.008-0.145,0.008-0.217,0c-0.07,0.079-0.133,0.164-0.188,0.253
	c-0.129,0.065-0.254,0.14-0.373,0.222c-0.04-0.043-0.097-0.066-0.155-0.063c-0.126,0.18-0.299,0.321-0.5,0.411
	c-0.082-0.024-0.073-0.038-0.155-0.063c-0.15,0.157-0.318,0.295-0.5,0.411c-0.061-0.037-0.123-0.071-0.188-0.1
	c-0.196,0.197-0.496,0.248-0.747,0.127c-0.186,0.115-0.409,0.151-0.622,0.1c-0.033-0.014,0.012-0.085-0.093-0.063
	c-0.195,0.086-0.41,0.119-0.622,0.095c-0.05-0.026,0.006-0.122-0.125-0.095l-0.031,0.063l-0.591,0.032l-0.031-0.095l-0.467,0.095
	c-0.211,0.045-0.187-0.065-0.249-0.095l-0.5,0.095c-0.094,0.019-0.191-0.019-0.249-0.095c-0.103-0.006-0.202,0.028-0.28,0.095
	c-0.201,0.001-0.4-0.031-0.591-0.095c-0.025,0.027-0.046,0.061-0.062,0.095h-0.52l-0.031-0.095
	c-0.141-0.058-0.166,0.074-0.218,0.095c-0.231,0.009-0.463-0.024-0.684-0.095l-0.062,0.095c-0.232,0.009-0.463-0.023-0.684-0.095
	l-0.062,0.095c-0.232,0.009-0.463-0.023-0.684-0.095l-0.062,0.095c-0.232,0.009-0.463-0.023-0.684-0.095l-0.062,0.095h-0.5
	c-0.052-0.029-0.034-0.142-0.187-0.095c-0.167,0.103-0.368,0.137-0.56,0.095c-0.054-0.03-0.032-0.138-0.188-0.095
	c-0.168,0.099-0.368,0.133-0.56,0.095c-0.053-0.024-0.063-0.153-0.218-0.095c-0.081,0.06-0.179,0.093-0.28,0.095h-0.28
	c-0.048-0.026-0.038-0.147-0.187-0.095l-0.062,0.095c-0.231,0.009-0.463-0.023-0.684-0.095l-0.063,0.095h-0.5l-0.031-0.095
	c-0.14-0.058-0.166,0.074-0.218,0.095c-0.231,0.009-0.463-0.023-0.684-0.095l-0.062,0.095c-0.232,0.007-0.463-0.024-0.684-0.095
	c-0.179,0.104-0.389,0.137-0.591,0.095c-0.048-0.026-0.038-0.147-0.188-0.095l-0.062,0.095c-0.231,0.008-0.461-0.024-0.681-0.097
	l-0.062,0.096h-0.5c-0.048-0.026-0.038-0.148-0.187-0.096l-0.062,0.096h-0.5c-0.048-0.026-0.038-0.148-0.187-0.096l-0.062,0.096
	h-0.5l-0.031-0.096H7.652c-0.157-0.034-0.143,0.074-0.187,0.096l-0.496-0.032c-0.012-0.075-0.079-0.13-0.156-0.127
	c-0.194,0.062-0.404,0.051-0.591-0.032v-0.126c-0.223-0.026-0.442-0.079-0.653-0.157c-0.005-0.066-0.041-0.125-0.095-0.162
	c-0.061-0.022-0.127-0.022-0.187,0c-0.091,0-0.274-0.159-0.4-0.19c-0.006-0.063-0.041-0.122-0.093-0.158
	c-0.061-0.021-0.126-0.021-0.187,0c-0.141-0.058-0.275-0.132-0.4-0.221c0-0.119,0.015-0.111-0.062-0.158
	c-0.161-0.05-0.317-0.113-0.467-0.19c-0.057-0.043-0.039-0.184-0.093-0.221c-0.116-0.07-0.202,0.021-0.316-0.062
	c-0.114-0.083-0.268-0.345-0.342-0.38c-0.159-0.059-0.306-0.144-0.435-0.254L2.43,24.261H2.24c-0.117-0.091-0.222-0.196-0.311-0.314
	c0.025-0.062,0.025-0.13,0-0.19l-0.187-0.063c-0.032-0.029-0.029-0.133-0.062-0.158c-0.094-0.071-0.306,0.085-0.373-0.19
	c-0.06-0.128-0.071-0.274-0.031-0.411c0.054-0.039,0.12-0.062,0.187-0.063v-0.127H1.431c-0.05,0.025-0.102,0.047-0.156,0.063
	c-0.003-0.043-0.014-0.086-0.031-0.127l0.187-0.063c0.075-0.334,0.127-0.673,0.156-1.013c-0.039-0.109-0.103-0.208-0.187-0.287
	c0.08-0.072,0.115-0.181,0.093-0.285c-0.12-0.092-0.216-0.212-0.28-0.348c-0.07,0.027-0.08,0.056-0.124,0.031
	c-0.042-0.12-0.095-0.236-0.156-0.348l-0.156-0.063c-0.031-0.05-0.008-0.147-0.03-0.188c-0.157,0.106-0.257-0.063-0.249-0.253
	c0.11-0.088,0.187-0.211,0.218-0.348c-0.099-0.148-0.133-0.331-0.093-0.506c-0.098-0.018-0.192-0.049-0.281-0.094
	c0.002-0.036-0.009-0.071-0.031-0.1c-0.124-0.092-0.253-0.051-0.28-0.254C-0.007,18.44-0.018,18.311,0,18.184
	c0.045-0.035,0.1-0.057,0.156-0.063c0.01-0.109-0.012-0.22-0.063-0.317c0.075-0.127,0.168-0.242,0.275-0.344
	c0.106-0.03,0.158,0.1,0.249,0.063c0.093-0.144,0.271-0.208,0.435-0.157c0.305-0.128,0.641-0.161,0.964-0.095
	c0.012-0.076,0.079-0.13,0.156-0.127c0.365,0.148,0.763,0.192,1.151,0.127l0.031-0.158H3.39v-0.032
	c0.167-0.021,0.56-0.095,0.56-0.095c0.054,0.016,0.153,0.13,0.218,0.158V16.7h0.28v0.443H4.51c0.212-0.062,0.432-0.093,0.653-0.095
	c0.399-0.093,0.805-0.157,1.213-0.19v-0.127c0.023-0.003,0.045-0.015,0.062-0.032c0.024,0.003,0.045,0.015,0.062,0.032
	c0.02,0.028,0.031,0.061,0.031,0.095l1.4,0.032c0.087-0.04-0.024-0.067,0.156-0.095v0.063c0.042,0.144,0.052,0.294,0.031,0.443H8.46
	c0.005-0.079-0.017-0.157-0.062-0.222c0.049-0.046,0.09-0.1,0.124-0.158c0.169,0.099,0.346,0.183,0.529,0.253
	c0.027-0.021,0.06-0.032,0.093-0.032c0.026-0.1-0.015-0.048,0.062-0.095v0.032c0.01,0.071,0.043,0.138,0.093,0.19
	c0.25,0.099,0.511,0.163,0.778,0.19v0.127h0.715v-1.361h-4.6c-0.109-0.09-0.236-0.155-0.373-0.19
	c-0.008,0.055-0.043,0.103-0.093,0.127c-0.048-0.026-0.103-0.038-0.157-0.032c0.018-0.065,0.007-0.134-0.031-0.19
	c0.063-0.271,0.104-0.546,0.124-0.823c-0.124-0.029-0.24-0.083-0.342-0.158c0.164,0,0.278,0.011,0.373,0l0.156-0.823
	c-0.077-0.041-0.021,0.014-0.062-0.063h0.03c0.027,0.021,0.06,0.031,0.093,0.032v-0.127l0.218,0.032
	c0.033-0.139,0.09-0.115,0.124-0.253c-0.045-0.101-0.077-0.208-0.093-0.317H6.19v-0.031c0.248,0.096,0.514,0.138,0.779,0.126
	c0.025-0.339,0.07-0.736,0.467-0.728c0.323,0.103,0.664,0.135,1,0.095c0.093,0.18,0.23,0.332,0.4,0.443
	c0.25,0.083,0.515,0.116,0.778,0.095v-0.854l0.055-0.032c0.396-0.105,0.809-0.127,1.213-0.063c0.012-0.168,0.012-0.337,0-0.506
	h0.093c0-1.136,0.031-2.389,0.031-3.576c-0.042-0.454-0.03-0.91,0.036-1.361C11.043,8.597,11.093,10.372,11.104,11.953z
	 M18.414,12.396c0.034,0,0.066,0.011,0.093,0.032C18.473,12.428,18.44,12.417,18.414,12.396z M19.005,12.396
	c0.034,0,0.066,0.011,0.093,0.032C19.064,12.428,19.031,12.417,19.005,12.396z M18.196,12.428c0.044-0.003,0.087,0.008,0.124,0.032
	C18.276,12.463,18.232,12.451,18.196,12.428L18.196,12.428z M19.196,12.428c0.044-0.003,0.087,0.008,0.124,0.032
	c-0.045,0.004-0.091-0.008-0.129-0.033L19.196,12.428z M19.351,12.46c0.017,0.018,0.027,0.039,0.031,0.063h-0.035v-0.064
	L19.351,12.46z M10.891,12.56H9.705v0.056c-0.061,0.27-0.071,0.549-0.031,0.823h0.031c0.115-0.065,0.777,0.107,1.182,0.032v-0.255
	c0.052-0.217,0.052-0.444,0-0.662L10.891,12.56z M11.669,13.345h0.093v0.19l3.507,0.032v-0.951
	c-0.686-0.034-1.374-0.002-2.053,0.095h-0.525c-0.288,0.064-0.684,0.062-0.933,0.127C11.686,12.997,11.655,13.171,11.669,13.345z
	 M16.769,12.645v0.253h-0.066c-0.224,0.055-0.456,0.066-0.684,0.032v0.411l-0.311,0.032v0.19h0.249v-0.155h0.871v0.127h0.062
	c0.062-0.014,0.125-0.014,0.187,0c0.08-0.135-0.02-0.467,0.062-0.6c0.027-0.021,0.059-0.032,0.093-0.032
	c0.027,0.114,0.038,0.231,0.031,0.348c0.075,0,0.778,0,0.778,0c0.044-0.064,0.111-0.11,0.187-0.127
	c0.048,0.139,0.123,0.268,0.218,0.38c0.186,0.029,0.375,0.029,0.56,0c0.061,0.047-0.017,0.045,0.093,0.063
	c0.01-0.244,0.09-0.338,0.093-0.633l-0.187-0.158L16.769,12.645z"/>
</svg>
