<svg xmlns="http://www.w3.org/2000/svg" width="40" height="40" viewBox="0 0 40 40">
  <defs>
    <style>
      .cls-1 {
        fill: #fff;
        fill-rule: evenodd;
      }
    </style>
  </defs>
  <path id="us_m4a2_sherman_ico" class="cls-1" d="M14.232,14.046c0,0.566,0,.838,0,1.334a0.973,0.973,0,0,0,.818-0.178,2.037,2.037,0,0,0,.121-0.711h0.091a2.21,2.21,0,0,0,.151.622,0.217,0.217,0,0,1,.121-0.059c0.033-.362.418-0.343,0.454-0.682a0.183,0.183,0,0,1-.061-0.059,0.651,0.651,0,0,0,.242-0.148,0.105,0.105,0,0,1-.03-0.059H16.26a0.093,0.093,0,0,1,.121.059,0.118,0.118,0,0,0-.06.119h0.091v0.059a0.548,0.548,0,0,1-.061.089h1.242a0.572,0.572,0,0,1,.273-0.03V14.224a0.726,0.726,0,0,1,.666-0.267c0.141,0.293.03,0.463,0.515,0.445a0.573,0.573,0,0,0,.273.03,0.322,0.322,0,0,1,.3-0.267c0.274,0.307.261,0.282,0.848,0.267a1.387,1.387,0,0,0,.333.148V13.987a0.2,0.2,0,0,0,.03-0.118,1.741,1.741,0,0,1-.363-0.03V13.483a1.413,1.413,0,0,0-1.151-.03v0.089H19.167l-0.03-.178a4.346,4.346,0,0,0-1.12-.03,0.407,0.407,0,0,1-.182.089V13.365h0.091V13.246a0.665,0.665,0,0,0-.212-0.03,0.267,0.267,0,0,1-.151.03V13.039H17.441V12.772a0.149,0.149,0,0,0,.091-0.03,0.54,0.54,0,0,0,.03-0.267c0.287,0.013.489-.023,0.787-0.03V12.3H18.41a0.66,0.66,0,0,1,.3-0.03,0.307,0.307,0,0,1,.061.178c0.669,0,1.407.028,2.12,0.03V12.416a0.105,0.105,0,0,1-.03-0.059h0.394v-0.03h0.03v0.03c0.06,0.093-.021.122,0.212,0.119v-0.03h0.03V12.238h0.151l0.03,0.326a0.688,0.688,0,0,0,.3.059c0.267,0.161,1-.1,1.3.03a4.973,4.973,0,0,0,1.635.119c1.021,0,2,0,3,0v0.237l-3.815.03v0.118a0.392,0.392,0,0,1-.121-0.03,0.188,0.188,0,0,1-.03.119V13.128H23.649a0.307,0.307,0,0,1-.03.178V13.128a13.023,13.023,0,0,0-1.847.059,2.062,2.062,0,0,0-.061.652H21.65c-0.078.046-.286,0.012-0.363,0.059a1.432,1.432,0,0,1,.121.652,3.267,3.267,0,0,0,.848.03V14.491a1.815,1.815,0,0,0-.363-0.326,0.144,0.144,0,0,1-.151.059v-0.03h-0.03a0.28,0.28,0,0,1,.03-0.267,0.207,0.207,0,0,1,.121-0.03,0.144,0.144,0,0,0,.151.059,1.271,1.271,0,0,1,.182-0.326c0.114-.017.2-0.066,0.3-0.089a2.057,2.057,0,0,1,.7.03c0.4,0.085.917-.086,1.272,0.03v0.03h-0.03a5.171,5.171,0,0,1-1.241.03V14.58H23.013l-0.03.207a1.112,1.112,0,0,1,.363-0.059v0.059h0.212a1.907,1.907,0,0,0,.03-0.534h0.121a2.927,2.927,0,0,1-.03.563H23.77a0.54,0.54,0,0,1,.454.059l0.151,0.267a3.016,3.016,0,0,1-.061.563c0.118,0.019.11,0.045,0.242,0.059a1.9,1.9,0,0,1,.787-0.089,2.107,2.107,0,0,1-.121.474,0.485,0.485,0,0,0,.151.03L25.344,16a0.912,0.912,0,0,1,.212-0.148c0.315-.087.2,0.143,0.454-0.178a2.009,2.009,0,0,1,1.12.948,1.7,1.7,0,0,0,.242.534h1.211a0.306,0.306,0,0,1,.061.178l9.235,0.089v0.622l-9.235.119v0.119a3.837,3.837,0,0,1-1.3.059c-0.066.169-.136,0.322-0.212,0.474a3.458,3.458,0,0,1-.485.059,0.46,0.46,0,0,0-.151-0.237,1.049,1.049,0,0,1-.3.178c0.052,0.09.122,0.285,0.151,0.326a3.778,3.778,0,0,0,1.3-.03c0.012,0.078-.023.039,0.061,0.059a0.89,0.89,0,0,1,.424-0.326A0.334,0.334,0,0,0,28.4,19a0.9,0.9,0,0,1,.394-0.178,0.487,0.487,0,0,0,.242.03,0.4,0.4,0,0,0,.424.3,1.392,1.392,0,0,0,.333.059v0.119H30.28a0.972,0.972,0,0,1,.273-0.178v0.03a0.118,0.118,0,0,0-.061.119l0.363,0.059a1.346,1.346,0,0,1,.091-0.148h-0.03v-0.03c-0.069.012-.033,0.027-0.091,0l-0.151-.119L30.7,19h-0.03a0.157,0.157,0,0,1,.091-0.03v-0.03h0.03v0.03c0.088,0.059.121,0.158,0.212,0.207a0.122,0.122,0,0,1,.121-0.059l0.182,0.237c0.06-.017.1,0.021,0.151,0a0.936,0.936,0,0,1,.3-0.267,0.385,0.385,0,0,1,.03.207,0.523,0.523,0,0,0-.182.3l0.061,0.089a0.943,0.943,0,0,1,.3-0.207v0.089a1.439,1.439,0,0,0-.121.267,0.122,0.122,0,0,0,.121.059,0.23,0.23,0,0,1,.151-0.207,0.267,0.267,0,0,1,.151-0.03c0.108,0.191.167,0.276,0.394,0.207a4.17,4.17,0,0,0,.515.5c-0.068.049-.091,0.051-0.061,0.119,0.022,0.026.038,0.033,0.061,0.059a0.234,0.234,0,0,1,.151-0.03l0.454,0.385c-0.032.073-.06,0.086-0.03,0.148a0.156,0.156,0,0,0,.091.03,0.33,0.33,0,0,1,.212-0.059V21.16h0.121v0.119l0.3,0.267c-0.077.067-.05,0.072-0.03,0.178a0.662,0.662,0,0,0,.212.03,0.336,0.336,0,0,1,.151,0,0.729,0.729,0,0,0,.091-0.415l-0.242-.474h0.121a0.157,0.157,0,0,1,.091-0.03,0.884,0.884,0,0,1,.06,1.067,0.1,0.1,0,0,0,.03.059,0.437,0.437,0,0,0,.484.207l0.091-.415a0.766,0.766,0,0,1,.151.059,0.789,0.789,0,0,1,.03.356H35.7V22.2H36v0.237a1.124,1.124,0,0,0-.454.059,1.763,1.763,0,0,0,.333.267c-0.026.067-.054,0.076-0.03,0.119a0.114,0.114,0,0,0,.121.089,1.382,1.382,0,0,1,.151-0.03c0.19,0.091.326,0.231,0.515,0.326-0.026.067-.054,0.076-0.03,0.119a0.13,0.13,0,0,0,.091.089,0.2,0.2,0,0,0,.212-0.03,4.063,4.063,0,0,0,1.211.622,4.251,4.251,0,0,1,1.453,1.571A1.63,1.63,0,0,1,40,26.643H39.97v0.03l-0.939-.178v0.119h0.121a6.226,6.226,0,0,1-.091.83,0.182,0.182,0,0,0-.121,0,1.342,1.342,0,0,0-.091.207c0.089,0.038.088,0.018,0.06,0.089a0.949,0.949,0,0,1-.484.622s-0.04-.086-0.061-0.059v0.03l-0.151.119c0.026,0.067.054,0.076,0.03,0.119-0.168.163-.434,0.225-0.606,0.385-0.075-.022-0.1-0.093-0.121-0.059-0.165.034-.167,0.052-0.151,0.207a5.226,5.226,0,0,1-.636.3c-0.1-.061-0.118-0.03-0.242.03,0.01,0.084.032,0.061,0,.119a1.753,1.753,0,0,1-.636.326l-0.03-.089a0.744,0.744,0,0,0-.212.119c0.04,0.051.052,0.048,0.03,0.089a2.482,2.482,0,0,1-.636.356,0.2,0.2,0,0,0-.061-0.119v0.03a0.166,0.166,0,0,0-.151.178l0.03,0.03H34.762a3.859,3.859,0,0,0-.575.326,0.366,0.366,0,0,0-.3-0.059,0.369,0.369,0,0,0,.03.119,6.318,6.318,0,0,1-.818.119V30.852H32.854V30.97H32.1c-0.045-.126-0.015-0.123-0.242-0.119V30.97H31.067V30.852H30.825V30.97H30.068c-0.045-.126-0.015-0.123-0.242-0.119V30.97H29.039V30.852H28.8V30.97H28.039V30.852H27.8V30.97H27.04V30.852H26.828a0.142,0.142,0,0,1-.03.089,1.97,1.97,0,0,1-.727.03V30.852H25.829V30.97H25.1c-0.045-.126-0.015-0.123-0.242-0.119V30.97H24.1V30.852H23.891a0.141,0.141,0,0,1-.03.089,1.97,1.97,0,0,1-.727.03V30.852H22.892V30.97H22.135V30.852H21.923V30.97H21.166V30.852H20.954a0.141,0.141,0,0,1-.03.089,1.97,1.97,0,0,1-.727.03V30.852H19.955V30.97H19.2V30.852H18.986V30.97H18.229V30.852H17.986V30.97H17.26V30.852H17.017V30.97H16.26V30.852H16.048V30.97H15.291V30.852H15.049V30.97H14.323V30.852H14.08V30.97H13.323V30.852H13.111V30.97H12.354V30.852H12.112V30.97H11.385c-0.045-.126-0.015-0.123-0.242-0.119V30.97H10.386V30.852H10.144c0.012,0.067.028,0.032,0,.089a1.213,1.213,0,0,1-.484.03,0.579,0.579,0,0,0-.273-0.059,0.171,0.171,0,0,0,0-.119,0.33,0.33,0,0,0-.212-0.059,0.369,0.369,0,0,1-.03.119,7.184,7.184,0,0,1-.727-0.237L8.478,30.5c-0.118-.019-0.11-0.045-0.242-0.059-0.034.085-.005,0.054-0.091,0.089a1.992,1.992,0,0,0-.636-0.237c0.011-.114.057-0.1-0.061-0.148a0.207,0.207,0,0,0-.121-0.03,0.13,0.13,0,0,1-.091.089A1.554,1.554,0,0,0,6.6,29.963l0.03-.148-0.212-.059a0.114,0.114,0,0,1-.121.089c-0.156-.116-0.424-0.116-0.575-0.237-0.063-.084.03-0.071-0.061-0.119-0.16-.119-0.135.041-0.273,0.03a2.712,2.712,0,0,1-.636-0.3c0.015-.071.049-0.036-0.03-0.089a0.36,0.36,0,0,0-.151-0.059,0.2,0.2,0,0,1-.061.119,3.576,3.576,0,0,0-.666-0.3l0.03-.119c-0.1-.025-0.12-0.059-0.212-0.089-0.057.053-.024,0.055-0.091,0.03A1.39,1.39,0,0,1,3,28.155a0.13,0.13,0,0,0,.091-0.089A0.351,0.351,0,0,1,3,27.888l-0.151.03a3.01,3.01,0,0,1-.212-0.8,0.164,0.164,0,0,0,.121-0.089,0.315,0.315,0,0,1-.03-0.178H2.6v-0.03a0.919,0.919,0,0,0,.061-0.356H1.877a7,7,0,0,1-1.453.207l-0.03-.059a3.629,3.629,0,0,0,.242-0.622c0.309-.484.609-0.9,0.908-1.363a2.169,2.169,0,0,1,.424-0.682c-0.051-.088-0.031,0-0.03-0.119a0.7,0.7,0,0,1,.394-0.089V23.65A0.3,0.3,0,0,1,2.12,23.5a0.841,0.841,0,0,0,.061-0.148,0.4,0.4,0,0,0,.212-0.03,0.927,0.927,0,0,0,.091-0.415H2.362a0.142,0.142,0,0,1-.03.089,0.409,0.409,0,0,1-.212.03,1.6,1.6,0,0,0-.363.148c0.015,0.086.037,0.054-.03,0.119a3.9,3.9,0,0,1-1.211-.148,1.369,1.369,0,0,1-.3-0.237A0.141,0.141,0,0,1,.182,23c0-.052.03-0.3,0.03-0.3-0.045-.064-0.066,0-0.091-0.119a0.149,0.149,0,0,1-.091-0.03H0v-0.03l0.182-.03v0.059a0.149,0.149,0,0,0-.03.089H0.212a0.711,0.711,0,0,0,.212.059,3.053,3.053,0,0,1,.636-0.474,6.013,6.013,0,0,1,1.3-.919A0.248,0.248,0,0,1,2.3,21.219a2.665,2.665,0,0,1,.454-0.178,0.368,0.368,0,0,1,.03-0.119,0.9,0.9,0,0,0,.363.059,0.2,0.2,0,0,0,.03-0.119c0.489,0,.781.016,1.181,0-0.034-.144-0.056-0.057-0.091-0.119a0.385,0.385,0,0,1,.061-0.326,0.515,0.515,0,0,1-.03-0.474H4.542a3.685,3.685,0,0,1,.848-0.089c0.222-.053.509-0.1,0.757-0.148H6.541a4.423,4.423,0,0,1,.848-0.148,1.192,1.192,0,0,1,.151.711H7.631c-0.015-.949,1.3-1.432,2.271-1.156l0.3,0.03a1.747,1.747,0,0,1,.575.326,2.1,2.1,0,0,0,.121.356,2.408,2.408,0,0,1,.908-0.267,0.6,0.6,0,0,0,.333.119,4.661,4.661,0,0,1,1.211-.326c0.119,0.019.167,0.122,0.3,0.148a1.93,1.93,0,0,0,.151-0.326h-0.03v-0.03a0.8,0.8,0,0,1-.636-0.326,8.509,8.509,0,0,0,0-1.3,1.814,1.814,0,0,0-1.242-.148,0.673,0.673,0,0,1-.061-0.356,0.963,0.963,0,0,0,.03-0.415h0.575V16.536a3.011,3.011,0,0,1-.666-0.949h0.03v0.059a0.739,0.739,0,0,0,.182.178,1.065,1.065,0,0,1,.515-0.089,0.45,0.45,0,0,1,.03-0.237,0.3,0.3,0,0,0,.061.3c0.029,0.008.011,0.023,0.03,0a0.447,0.447,0,0,0,.333-0.3,0.105,0.105,0,0,1-.061-0.03H12.99a0.264,0.264,0,0,1,.061.178l-0.3.207c0.036,0.079-.027.053,0.061,0.089a0.784,0.784,0,0,1,.454,0V15.38H13.9a6.192,6.192,0,0,1-.061-1.334,10.724,10.724,0,0,0,.151-3.112v-1.9A6.184,6.184,0,0,1,14.02,8h0.03a41.214,41.214,0,0,1,.03,4.238,6.68,6.68,0,0,0,.061,1.808h0.091Zm9.205-.711a0.2,0.2,0,0,1,.121.03A0.2,0.2,0,0,1,23.437,13.335Zm0.636,0a0.257,0.257,0,0,1,.151.03A0.259,0.259,0,0,1,24.073,13.335Zm-0.848.03a0.2,0.2,0,0,1,.121.03A0.2,0.2,0,0,1,23.225,13.365Zm1.09,0a0.2,0.2,0,0,1,.121.03A0.2,0.2,0,0,1,24.315,13.365Zm-1.151.03a0.107,0.107,0,0,1,.03.059h-0.03V13.394Zm1.3,0.03a0.154,0.154,0,0,1,0,.178V13.424ZM12.082,15.2a0.148,0.148,0,0,1,.091.03A0.148,0.148,0,0,1,12.082,15.2Zm-0.121.03a0.148,0.148,0,0,1,.091.03A0.149,0.149,0,0,1,11.961,15.232Zm0.242,0a0.148,0.148,0,0,1,.091.03A0.148,0.148,0,0,1,12.2,15.232Zm-0.333.059H11.93v0.03A0.1,0.1,0,0,1,11.87,15.291Zm-0.061.059c0.026,0.056.014,0.022,0,.089h-0.03Zm0.636,0.03a0.105,0.105,0,0,1,.03.059h-0.03V15.38Zm-0.727.059c0.077,0.043.034-.006,0.061,0.089h-0.03V15.5A0.106,0.106,0,0,1,11.718,15.439Z" transform="translate(0 0.5)"/>
</svg>
