<?xml version="1.0" encoding="utf-8"?>
<!-- Generator: Adobe Illustrator 16.0.0, SVG Export Plug-In . SVG Version: 6.00 Build 0)  -->
<!DOCTYPE svg PUBLIC "-//W3C//DTD SVG 1.1//EN" "http://www.w3.org/Graphics/SVG/1.1/DTD/svg11.dtd">
<svg version="1.1" id="Layer_1" xmlns="http://www.w3.org/2000/svg" xmlns:xlink="http://www.w3.org/1999/xlink" x="0px" y="0px"
	 width="39.969px" height="40px" viewBox="0 0 39.969 40" enable-background="new 0 0 39.969 40" xml:space="preserve">
<path id="us_m3a1_stuart_usmc_ico" fill="#FFFFFF" d="M12.847,4.695h0.455c0.036,0.054,0.076,0.104,0.122,0.151h0.759v-0.12h0.152
	v0.12c0.407,0,0.739-0.009,1.093,0V4.544h0.091v0.54c1.566,0,3.189,0.028,4.708,0.03v0.37c-1.548,0-3.2,0.029-4.8,0.03v0.03
	c0.036,0.107,0.046,0.221,0.03,0.332c0.012,0.007,0.022,0.018,0.03,0.03c0.148,0.013,0.292,0.054,0.425,0.121v0.027h0.03
	c-0.093,0.145-0.146,0.312-0.152,0.483c-0.051,0.143-0.191,0.244-0.243,0.393c0.418-0.066,0.812,0.219,0.877,0.638
	c0.001,0.009,0.002,0.018,0.003,0.026H16.34v1.54h0.364V8.953c0.21-0.039,0.425-0.049,0.638-0.03c0.019,0.069,0.019,0.142,0,0.211
	h0.213v-0.15c0.19-0.036,0.384-0.046,0.577-0.03c0.037,0.207,0.106,0.227,0.364,0.211c0.044-0.076,0.013-0.047,0.121-0.06V8.953
	c0.442-0.068,0.891-0.079,1.336-0.03l0.122,0.242c0.046-0.025,0.099-0.035,0.152-0.03V8.953c0.176-0.06,0.363-0.08,0.546-0.06
	l0.031,0.091c0.019,0.026,0.029,0.058,0.029,0.091c0.287,0,0.318-0.058,0.639-0.06c0.136-0.435,0.6-0.676,1.033-0.54
	c0.155,0.048,0.292,0.142,0.395,0.268c0.09,0.121,0.133,0.271,0.121,0.423c0.492,0.04,0.975,0.162,1.428,0.362
	c0.127,0.04,0.199-0.036,0.3,0l0.062,0.091c0.148,0.051,0.301,0.092,0.455,0.121l0.183-0.03c0.388,0.151,0.783,0.283,1.185,0.393
	c0.032,0.124,0.095,0.238,0.182,0.332l0.273-0.03c-0.023-0.068-0.034-0.14-0.029-0.211c0.023-0.042,0.072-0.066,0.121-0.06
	c0.139,0.117,0.637,0.077,0.82,0.181c0.238,0.326,0.451,0.669,0.639,1.027c0.1,0.063,0.299,0.017,0.395,0.091
	c0.076,0.059,0.07,0.286,0.152,0.332h1.883c0.18,0.046,0.365,0.056,0.548,0.03v0.089l4.399,0.03c0.828,0.093,1.663,0.093,2.49,0
	v0.483c-0.855,0-1.854-0.019-2.732,0.03c-0.567-0.028-1.135-0.018-1.7,0.03h-1.788c-0.966,0.135-1.942,0.176-2.916,0.121v0.06
	c0.082-0.012,0.166-0.001,0.242,0.03c0.023,0.036,0.033,0.079,0.031,0.121h0.127v0.091h0.09c0,0.123-0.021,0.245-0.061,0.362h-0.13
	c0.015,0.183-0.006,0.367-0.062,0.543c-0.34,0.078-0.686,0.139-1.032,0.181c-0.086,0.054-0.167,0.115-0.243,0.181
	c-0.18,0.044-0.363,0.075-0.547,0.091v-0.122h-0.026c-0.1,0.033-0.179,0.111-0.213,0.211c0.02,0.026,0.03,0.058,0.03,0.091
	c-0.122-0.009-0.245,0.001-0.364,0.03c0.103,0.388,0.185,0.781,0.243,1.178c0.053-0.083,0.163-0.107,0.246-0.054
	c0.021,0.014,0.04,0.033,0.054,0.054c0.024,0.058,0.024,0.123,0,0.181h-0.056c-0.027,0.019-0.059,0.03-0.092,0.03
	c0.009,0.073,0.029,0.145,0.062,0.211c0.272,0.1,0.492,0.308,0.606,0.574c0.044,0.138,0.074,0.279,0.092,0.423
	c0.154,0.108,0.217,0.306,0.152,0.482c-0.023,0.037-0.033,0.079-0.03,0.121l1.458,0.092v-0.092c0.248,0.016,0.494,0.066,0.729,0.15
	l1.186,0.061v0.029c-0.043,0.24-0.063,0.482-0.062,0.726c0.082,0.063,0.146,0.146,0.183,0.241c0.221,0.026,0.444,0.036,0.668,0.03
	v0.121c-0.102-0.006-0.203,0.005-0.301,0.03v0.029h0.119c0.057,0.027,0.12,0.038,0.182,0.031v0.086l0.578,0.061v-0.116
	c0.139-0.059,0.28-0.108,0.424-0.151v0.092h0.092l0.029,0.211h0.031v0.029l1.185,0.151c0.01-0.126-0.007-0.11,0.091-0.151
	c0.026-0.02,0.059-0.029,0.091-0.029c0.094-0.44,0.304-0.848,0.608-1.178c0.113-0.045,0.225-0.096,0.334-0.151
	c0.037-0.067,0.066-0.138,0.091-0.211c0.296-0.292,0.723-0.405,1.124-0.3v0.06c-0.076,0.171-0.117,0.355-0.121,0.543l0.029,0.181
	l-0.09,0.03c-0.029,0.099-0.051,0.198-0.062,0.3h0.062c0.229-0.121,0.387-0.344,0.424-0.6c-0.098-0.334-0.148-0.679-0.151-1.027
	l0.213-0.03c0.055,0.417,0.136,0.831,0.243,1.238c-0.019,0.09-0.029,0.181-0.03,0.272c0.046,0.199,0.073,0.494,0.121,0.693
	c0.017,0.336,0.058,0.67,0.122,1c0.234,0.146,0.479,0.277,0.729,0.394c0.047-0.045,0.076-0.106,0.121-0.151v0.03l0.334,0.3
	c-0.037,0.053-0.059,0.116-0.061,0.182c0.225,0.34,0.887,0.963,0.729,1.448c-0.099,0.017-0.199,0.026-0.299,0.03
	c-0.232-0.031-0.467-0.041-0.701-0.03v0.03c0.063,0.061,0.114,0.133,0.152,0.211v0.182c0.317,0.709,0.272,1.528-0.121,2.199
	c-0.154,0.261-0.349,0.496-0.576,0.695l-0.03,0.121c-0.124,0.177-0.29,0.336-0.425,0.513l-0.273,0.211
	c-0.137,0.238-0.311,0.452-0.516,0.634c-0.312,0.229-0.601,0.438-0.911,0.664c-0.125,0.092-0.233,0.248-0.364,0.332
	c-0.391,0.251-0.842,0.4-1.215,0.664c-0.667,0.469-1.824,0.36-2.764,0.574h-0.527c-0.15,0.026-0.305,0.026-0.456,0
	c-0.79,0.154-1.601,0.186-2.399,0.091c-0.301-0.046-0.771,0.111-1.125,0.03c-0.441-0.069-0.891-0.079-1.336-0.03
	c-0.381,0.089-0.953-0.053-1.244,0c-0.379,0.069-0.857-0.073-1.185-0.03c-0.362,0.053-0.73,0.053-1.093,0
	c-0.364-0.08-0.856,0.021-1.184-0.029c-0.296-0.045-0.858,0.05-1.186,0c-0.115-0.019-0.326,0.029-0.486,0.029
	c-0.708,0.051-1.419,0.041-2.126-0.029H16.7c-0.841,0.028-1.683,0.008-2.521-0.061c-0.088,0.033-0.18,0.053-0.273,0.061
	c-0.484-0.055-0.972-0.064-1.458-0.03c-0.248,0-0.64-0.026-0.79,0c-0.435,0.074-0.948-0.086-1.276-0.03
	c-0.4,0.068-0.9-0.076-1.245-0.029c-0.403,0.057-0.812,0.057-1.215,0c-0.362-0.08-0.857,0.016-1.185-0.03
	c-0.383,0.044-0.769,0.055-1.154,0.03c-0.167-0.056-0.441-0.144-0.668-0.211L4.49,28.971c-0.552-0.344-1.028-0.795-1.4-1.328
	c-0.07-0.178-0.131-0.359-0.182-0.543c-0.101-0.156-0.192-0.317-0.273-0.483c-0.087-0.254-0.027-0.55-0.091-0.755
	c-0.125-0.298-0.135-0.631-0.03-0.937c-0.014-0.161-0.014-0.322,0-0.483c0.106-0.208,0.228-0.408,0.364-0.6
	c0.06-0.186,0.131-0.366,0.213-0.543c0.104-0.107,0.216-0.207,0.334-0.3c0.158-0.25,0.341-0.483,0.547-0.695
	c0.281-0.116,0.547-0.269,0.79-0.452c-0.234-0.248-0.374-0.572-0.393-0.912c0.088-0.135,0.215-0.24,0.364-0.301
	c-0.056-0.084-0.117-0.164-0.182-0.242l0.03-0.211l-0.091-0.06v-0.213H4.434c-0.06,0.048-0.137,0.069-0.213,0.06
	c-0.022-0.037-0.053-0.068-0.091-0.089c-0.166,0.107-0.352,0.179-0.547,0.211c-0.001-0.089-0.033-0.174-0.091-0.241v0.03
	c-0.646,0.47-0.819,1.731-1.154,2.536h-0.03v-0.036c-0.02-0.026-0.03-0.058-0.03-0.091c0.057-0.146,0.097-0.298,0.121-0.453
	c0.136-0.422,0.299-0.836,0.486-1.238c0.113-0.143,0.196-0.307,0.243-0.482c0.099-0.17,0.21-0.331,0.334-0.483
	c-0.031-0.188-0.157-0.349-0.334-0.423c-0.223,0.107-0.458,0.188-0.7,0.241c-0.414,0.182-0.84,0.333-1.276,0.453v-0.206
	c0.02-0.026,0.03-0.059,0.03-0.092h-0.15l0.03-0.6c-0.343-0.031-0.68-0.111-1-0.24c-0.093-0.199-0.104-0.428-0.03-0.635
	c0.115-0.013,0.228-0.043,0.334-0.091v-0.03c-0.035-0.029-0.067-0.061-0.097-0.094c0.036-0.058,0.066-0.118,0.091-0.181
	c-0.141-0.021-0.252-0.131-0.273-0.272c0.145-0.248,0-0.492,0.425-0.483c0.15,0.037,0.307,0.037,0.457,0
	c0.115,0.053,0.238,0.084,0.364,0.091c0.07-0.044,0.089-0.143,0.152-0.181c0.088-0.053,0.162,0.1,0.213-0.151
	c-0.222-0.009-0.43-0.107-0.577-0.272c-0.109-0.134-0.089-0.332,0.045-0.44c0.024-0.02,0.05-0.035,0.079-0.047
	c0.151-0.037,0.311-0.026,0.456,0.03c0.137-0.055,0.262-0.136,0.368-0.238h0.269c0.047-0.025,0-0.09,0-0.091
	c0.117-0.035,0.229-0.085,0.331-0.15v-0.091l0.091,0.03c0.125-0.124,0.284-0.208,0.456-0.242c0.041,0.032,0.072,0.073,0.091,0.121
	c0.172-0.083,0.335-0.183,0.486-0.3c0.064-0.003,0.125,0.033,0.152,0.091c0.033,0.067,0.033,0.144,0,0.211h0.063
	c0.345-0.447,1.194-0.308,1.853-0.3v-0.06c-0.97-1.167,0.575-1.866,1.579-2.083c0.372,0.027,0.738,0.098,1.093,0.211v-0.06
	c-0.059-0.026-0.096-0.086-0.091-0.151c-0.033,0-0.065-0.01-0.091-0.03c-0.067-0.051-0.111-0.127-0.121-0.211
	c0.094-0.037,0.069-0.011,0.091-0.121c-0.087-0.065-0.16-0.149-0.212-0.246l0.03-0.12c-0.089-0.121-0.189-0.232-0.3-0.332
	c-0.17-0.222-0.298-0.442-0.459-0.668c-0.675-0.933-1.451-1.817-2.126-2.748c-0.331-0.534-0.707-1.04-1.124-1.51l0.03-0.06h0.03
	v0.03c0.381,0.405,0.717,0.851,1,1.329c0.679,0.934,1.454,1.819,2.129,2.751c0.333,0.558,0.755,1.058,1.25,1.479
	c0.025-0.042,0.072-0.066,0.121-0.06c0.069,0.164,0.161,0.316,0.273,0.453c0.026-0.02,0.059-0.03,0.091-0.03
	c0.05,0.088,0.111,0.169,0.182,0.242v0.124l0.091,0.06c-0.02,0.037-0.03,0.079-0.03,0.121l0.421,0.539
	c0.05-0.009,0.102-0.009,0.152,0c0.059-0.044,0.119-0.084,0.182-0.121c0.044,0.122,0.146,0.213,0.273,0.242
	c0.165-0.201,0.408-0.322,0.668-0.332c0.032,0.029,0.063,0.059,0.091,0.091l0.03,1.087h0.122c0-0.088-0.029-0.042,0-0.091
	c0.055-0.041,0.117-0.071,0.182-0.091c0.034,0.1,0.034,0.1,0.152,0.121c0.026-0.02,0.059-0.03,0.091-0.03v-0.181h0.03
	c0.086,0.042,0.187,0.042,0.273,0c0.096-0.179,0.219-0.342,0.364-0.483h0.881c0.142-0.014,0.284-0.014,0.425,0
	c0.088,0.147,0.23,0.254,0.395,0.3c0.011,0.153,0.286,0.1,0.516,0.091c0.002,0.071,0.012,0.142,0.03,0.211
	c0.158,0.085,0.338,0.117,0.516,0.091v-0.06c0.029-0.047-0.007-0.181,0.03-0.241c0.031-0.018,0.062-0.038,0.091-0.06
	c-0.126,0.045-0.266-0.006-0.334-0.121c0,0,0.235-0.311,0.243-0.332c0.029-0.072-0.06-0.075,0-0.151
	c0.049-0.018,0.1-0.028,0.152-0.03c0.083-0.091,0.155-0.191,0.213-0.3v-1.059h-0.027c-0.144-0.143-0.221-0.34-0.213-0.543
	c-0.06-0.4-0.07-0.806-0.03-1.208v-0.362c0.066-0.065,0.127-0.136,0.182-0.211c-0.123-0.028-0.114-0.044-0.122-0.181
	c0.063-0.042,0.138-0.063,0.213-0.06V9.345c0.105-0.035,0.199-0.097,0.273-0.181h0.121v-1.57c-0.1-0.025-0.046,0.015-0.091-0.06
	c0.044-0.013,0.079-0.047,0.091-0.091c-0.264-0.04-0.521-0.121-0.759-0.242c0.018,0.048,0.028,0.099,0.03,0.151
	c-0.061,0-0.008-0.031-0.061,0c0.02,0.026,0.03,0.058,0.03,0.091c-0.061,0-0.009-0.031-0.061,0c0.022,0.036,0.033,0.079,0.03,0.121
	c-0.061,0-0.009-0.031-0.061,0c0.005,0.081,0.005,0.162,0,0.242h-0.362c-0.021-0.198-0.072-0.392-0.152-0.574
	c-0.418,0.002-0.825-0.136-1.154-0.393c-0.145-0.216-0.359-0.376-0.607-0.455v0.03c0.039,0.052,0.06,0.116,0.061,0.181h-0.148v0.089
	c-0.056,0.032-0.118,0.053-0.182,0.06v-0.06c-0.019-0.026-0.03-0.058-0.03-0.091H12.3c0.02-0.219-0.069-0.355-0.03-0.574
	c0.037-0.026,0.078-0.046,0.121-0.06c0.036-0.022,0.079-0.033,0.121-0.03V5.843h-0.09V5.752h-0.274v-0.09
	c-0.062,0.007-0.124-0.004-0.179-0.031h0.061c0.058-0.028,0.035-0.011,0.121,0v-0.09c-0.142-0.191-0.082-0.166-0.428-0.151
	c-0.01,0.279-0.094,0.549-0.243,0.785c-0.077,0.034-0.166,0.034-0.243,0c-0.031-0.098-0.051-0.198-0.061-0.3
	c0.024-0.026,0.269-0.412,0.273-0.423l-0.03-0.3c0.21-0.039,0.425-0.048,0.638-0.03l0.03-0.06c0.044-0.061,0.066-0.136,0.061-0.211
	h0.091V4.756h0.152V4.665h-0.122v-0.09c0.176-0.06,0.362-0.08,0.547-0.06C12.836,4.573,12.847,4.634,12.847,4.695z M1.518,16.833
	c0.016,0.017,0.026,0.037,0.03,0.06h-0.03V16.833z"/>
</svg>
