<?xml version="1.0" encoding="utf-8"?>
<!-- Generator: Adobe Illustrator 16.0.0, SVG Export Plug-In . SVG Version: 6.00 Build 0)  -->
<!DOCTYPE svg PUBLIC "-//W3C//DTD SVG 1.1//EN" "http://www.w3.org/Graphics/SVG/1.1/DTD/svg11.dtd">
<svg version="1.1" id="Layer_1" xmlns="http://www.w3.org/2000/svg" xmlns:xlink="http://www.w3.org/1999/xlink" x="0px" y="0px"
	 width="39.969px" height="40px" viewBox="0 0 39.969 40" enable-background="new 0 0 39.969 40" xml:space="preserve">
<path id="Color_Fill_1" fill="#FFFFFF" d="M8.216,14.467h2.777c0.361,0.055,0.73,0.028,1.08-0.079
	c0.045-0.139,0.059-0.287,0.039-0.432c0.06,0.005,0.115,0.033,0.154,0.079v-0.079l-0.039-0.039H12.3
	c0.034-0.025,0.074-0.039,0.116-0.039c0.093,0.082,0.197,0.149,0.309,0.2l-0.038,0.118c-0.066-0.001-0.131-0.015-0.193-0.039
	l-0.039,0.236c0.185,0.114,0.4,0.169,0.617,0.157c0-0.125-0.046-0.095,0.116-0.118c0.034-0.025,0.074-0.039,0.116-0.039v-0.122
	h0.116V13.8l0.617-0.039v-0.04c-0.087-0.126-0.128-0.279-0.116-0.432h0.116c0,0.042,0.013,0.084,0.039,0.118v-0.079
	c0.056-0.048,0.107-0.101,0.154-0.157c0.393,0.265,0.778-0.144,1.234-0.157c0.001,0.08-0.012,0.16-0.039,0.236
	c0.121-0.012,0.243,0.016,0.347,0.079v-0.237c0.037-0.086,0.051-0.181,0.039-0.275h0.424c-0.019-0.05-0.019-0.106,0-0.157h0.077
	v0.157h0.193c-0.019-0.037-0.019-0.081,0-0.118l0.077,0.039l-0.039-0.118c0.102-0.004,0.198-0.046,0.27-0.118
	c0.151-0.013,0.302,0.028,0.424,0.118h1.581c0.011-0.068,0.054-0.126,0.116-0.157c0.06,0.428,0.34,0.2,0.733,0.275
	c1.102,0.115,2.211,0.142,3.317,0.079v0.157c-1.2-0.005-2.291,0.109-3.395,0.118v0.078h0.154c0.059,0.033,0.126,0.046,0.193,0.039
	c0,0.042-0.013,0.084-0.038,0.118c-0.1-0.037-0.209-0.037-0.309,0v0.118H18.9c-0.066,0.029,0.008,0.124-0.116,0.118
	c-0.168,0.003-0.335-0.01-0.5-0.039l-0.039-0.118c-0.031-0.014-0.809,0.039-0.964,0.039V13.6h-0.155
	c-0.111,0.168-0.425,0.265-0.5,0.432l0.039,0.157c-0.014,0.039-0.124,0.108-0.154,0.157c0.144,0.005,0.28,0.061,0.386,0.157
	c-0.017-0.119-0.003-0.241,0.039-0.354v0.432c0.132,0.005,0.262,0.032,0.386,0.079c0.048-0.15,0.078-0.154,0.27-0.157
	c0.188,0.198,0.471,0.275,0.733,0.2v-0.432c0.752-0.121,1.515-0.16,2.276-0.118v0.039h0.039v0.118l0.887,0.039l-0.038,0.825h0.077
	c0.539,0.147,1.101,0.2,1.658,0.157v0.039h-0.043c-0.074,0.03,0.077,0.039,0.077,0.039c0.728,0.022,1.45,0.115,2.16,0.275
	c0.267,0.039,0.418-0.423,0.771-0.2c-0.229-0.004-0.449,0.08-0.616,0.236c0.003,0.03,0.018,0.058,0.038,0.079
	c0.07,0.255,0.201,0.292,0.541,0.275c0.588,0.084,1.184,0.097,1.773,0.039V16.2c0.029,0.047,0.043,0.102,0.039,0.157
	c0.678,0.097,1.366,0.097,2.044,0c0.122-0.113,0.251-0.217,0.386-0.314h1.66c0.145,0.066,0.275,0.16,0.385,0.275v0.079h0.425
	c0.087,0.045,0.177,0.084,0.27,0.119h4.591c0.5-0.036,1.002-0.022,1.5,0.038v-0.082c-0.102-0.017-0.181-0.098-0.193-0.2h0.347
	c0.11,0.042,0.229,0.056,0.347,0.039c0.024,0.064,0.037,0.131,0.039,0.2c-0.029,0.005-0.057,0.019-0.076,0.039h0.27
	c0,0.282,0,0.347,0,0.629c-0.311-0.009-0.621,0.019-0.926,0.079H35.6c-1.055-0.061-2.114-0.021-3.162,0.118
	c-0.693,0.153-1.554-0.101-2.201,0.039l-0.848-0.039c-0.757,0-1.332,0-2.045,0h-0.96c-0.058,0.046-0.109,0.099-0.153,0.157h-0.463
	c0,0.119-0.012,0.238-0.039,0.354c-0.67,0.068-1.33,0.213-1.967,0.432h0.232v0.119h0.076c0.266,0.018,0.526-0.067,0.729-0.237h0.5
	c0.02,0.032,0.046,0.059,0.077,0.079c-0.045,0.041-0.072,0.097-0.077,0.156c0.122,0.041,0.136,0.03,0.271,0.08
	c-0.014,0.065-0.014,0.133,0,0.199c0.104-0.063,0.23-0.078,0.347-0.039v0.154c0.029,0.004,0.057,0.018,0.077,0.039
	c0.113-0.025,0.23-0.038,0.347-0.039c-0.01-0.081,0.004-0.163,0.039-0.236v0.236h0.425c-0.009-0.069,0.005-0.139,0.038-0.2v0.2
	c0.367,0,0.872-0.027,1.119,0c0.015-0.1-0.028-0.053,0.077-0.079c0.262,0.085,0.537,0.111,0.811,0.079
	c0.399,0.088,0.93-0.036,1.35,0.079c0.353,0.1,0.699,0.3,1.041,0.393c0.17-0.174,0.426-0.235,0.656-0.157
	c0.212,0.096,0.432,0.175,0.655,0.236c0.033,0.342,0.147,0.583,0.193,0.865H32.71v0.039c-0.029-0.004-0.057-0.018-0.077-0.039
	c-0.092-0.1-0.105-0.282-0.193-0.393v0.076c-0.1,0.07-0.135,0.166-0.23,0.236c0.125,0.203,0.204,0.432,0.23,0.668
	c-0.033,0.025-0.074,0.039-0.115,0.039c-0.073-0.034-0.029-0.02-0.116,0c-0.028-0.17-0.095-0.331-0.192-0.473v0.039
	c-0.035,0.037-0.425,0.512-0.425,0.512c0.028,0.156,0.041,0.313,0.039,0.472c-0.044,0.2-0.127,0.38-0.153,0.59
	c-0.086-0.015-0.101-0.042-0.154,0c0.043,0.024,0.072,0.069,0.076,0.118c-0.084,0.076-0.15,0.17-0.192,0.275
	c-0.067-0.031-0.071-0.1-0.116-0.039h-0.039c0.03,0.068,0.1,0.072,0.039,0.117c-0.088,0.098-0.192,0.177-0.309,0.236
	c0.008,0.041,0.021,0.08,0.039,0.118c0.027,0.034,0.049,0.044,0.076,0.079c0.094-0.045,0.067-0.08,0.154-0.039h0.039
	c-0.004,0.03-0.018,0.058-0.039,0.079c-0.084,0.038-0.178,0.052-0.27,0.039c-0.129-0.109-0.295-0.166-0.463-0.157v0.039
	c0.031,0.02,0.058,0.047,0.076,0.079c-0.127,0.079-0.284,0.094-0.424,0.039c0.016,0.115,0.063,0.049-0.039,0.118
	c-0.089,0.068-0.196,0.109-0.309,0.117c-0.02-0.031-0.045-0.059-0.077-0.078v0.039c0.032,0.02,0.058,0.047,0.077,0.078
	c-0.25,0.137-0.526,0.217-0.811,0.236v0.039h0.039c0.074,0.03-0.076,0.039-0.076,0.039c-0.187,0.123-0.396,0.203-0.617,0.236
	c-0.02-0.032-0.046-0.06-0.077-0.079v0.039c0.031,0.02,0.058,0.047,0.077,0.079c-0.154-0.008-0.451,0.228-0.771,0.274
	c-0.019-0.032-0.045-0.059-0.076-0.079V24.1c0.031,0.021,0.057,0.047,0.076,0.079c-0.154-0.008-0.451,0.229-0.771,0.275
	c-0.02-0.032-0.046-0.06-0.077-0.079v0.039c0.031,0.02,0.058,0.047,0.077,0.079h-0.078c-0.117,0.105-0.29,0.122-0.424,0.039v0.039
	c0.05,0.005,0.093,0.034,0.116,0.079c-0.159,0.063-0.334,0.076-0.5,0.039v0.039c0.049,0.004,0.093,0.034,0.115,0.078
	c-0.158,0.065-0.329,0.093-0.5,0.079c-0.017,0.108-0.13,0.087-0.347,0.079l-0.039-0.079c-0.101-0.041-0.053,0.065-0.116,0.079
	c-0.119-0.007-0.236-0.033-0.347-0.079c-0.088,0.068-0.2,0.097-0.31,0.079c-0.039-0.012-0.017-0.105-0.115-0.079v0.079
	c-0.135,0.039-0.279,0.01-0.387-0.079c-0.064,0.067-0.008,0.078-0.153,0.079c-0.071-0.005-0.14-0.032-0.193-0.079
	c-0.112-0.03-0.252,0.193-0.463,0c-0.209,0.212-0.288-0.038-0.424,0v0.079c-0.121,0.045-0.258,0.014-0.347-0.079
	c-0.121,0.055-0.254,0.082-0.387,0.079v-0.083H21.6c-0.016,0.106-0.1,0.086-0.309,0.079v-0.079c-0.12,0.059-0.253,0.086-0.386,0.079
	v-0.079h-0.114c-0.086,0.07-0.199,0.099-0.309,0.079v-0.079c-0.119,0.061-0.252,0.088-0.386,0.079v-0.079h-0.115v0.079
	c-0.134,0.015-0.269-0.014-0.386-0.079v0.079c-0.146,0.01-0.291-0.018-0.424-0.079v0.079c-0.122,0.021-0.247-0.007-0.347-0.079
	c-0.103,0.067-0.226,0.095-0.347,0.079v-0.079c-0.138,0.044-0.28,0.071-0.424,0.079v-0.079h-0.078v0.079
	c-0.146,0.01-0.292-0.018-0.424-0.079v0.079c-0.109,0.042-0.233,0.011-0.309-0.079c-0.1-0.021-0.215,0.22-0.424,0
	c-0.1-0.022-0.175,0.22-0.386,0c-0.107-0.022-0.034,0.058-0.077,0.079c-0.121,0.043-0.256,0.013-0.347-0.079
	c-0.12,0.058-0.252,0.085-0.386,0.079v-0.079c-0.1-0.021-0.074,0.065-0.116,0.079c-0.133,0.004-0.265-0.023-0.386-0.079
	c-0.103,0.067-0.226,0.095-0.347,0.079v-0.079c-0.11,0.046-0.228,0.073-0.347,0.079c-0.085-0.018,0.011-0.029-0.038-0.079h-0.039
	c-0.086,0,0,0.037-0.039,0.079c-0.122,0.036-0.253,0.006-0.347-0.079c-0.037-0.032-0.071,0.077-0.077,0.079
	c-0.133,0.002-0.264-0.025-0.386-0.079v0.079c-0.122,0.036-0.253,0.006-0.347-0.079c-0.121,0.056-0.253,0.083-0.386,0.079v-0.079
	c-0.137,0.046-0.28,0.073-0.424,0.079v-0.079c-0.121,0.057-0.253,0.083-0.386,0.079v-0.079c-0.1-0.043-0.208,0.181-0.424,0
	c-0.038-0.032-0.071,0.077-0.077,0.079c-0.134,0.031-0.275,0.003-0.386-0.079c-0.094,0.086-0.225,0.116-0.347,0.079v-0.079
	c-0.134,0.056-0.279,0.083-0.424,0.079v-0.079h-0.077v0.079c-0.122,0.024-0.248-0.004-0.347-0.079
	c-0.11,0.083-0.252,0.112-0.386,0.079v-0.079c-0.121,0.056-0.253,0.083-0.386,0.079c-0.552-0.055-1.107-0.055-1.659,0l0.039-0.079
	H7.445c-0.123,0.087-0.278,0.116-0.424,0.079c0,0,0.013-0.14-0.039-0.079c-0.128,0.075-0.284,0.09-0.424,0.039
	c-0.411,0.047-0.827,0.034-1.234-0.039L5.362,24.8H5.323c-0.324-0.036-0.611-0.227-0.771-0.511v0.039H4.59
	c0.074,0.029-0.077,0.039-0.077,0.039c-0.223-0.248-0.483-0.461-0.771-0.629c-0.379-0.291-0.969-0.826-1.389-1.141
	c-0.211-0.303-0.472-0.568-0.771-0.785c-0.063,0.199-0.193,0.209-0.463,0.199V21.9c0.075,0.022,0.155,0.022,0.231,0
	c0.055-0.032,0.085-0.094,0.077-0.157c-0.022-0.063-0.063-0.117-0.116-0.157c-0.288,0.467-0.754-0.034-0.694-0.432
	c0.096-0.088,0.218-0.143,0.347-0.157c0.09-0.007,0.18-0.007,0.27,0c0.045,0.067,0.1,0.167,0.154,0.235
	c-0.017-0.118,0.025-0.237,0.112-0.319H1.466v-0.04c-0.107,0.055-0.227,0.081-0.347,0.079c0-0.043-0.014-0.084-0.039-0.118
	c-0.233-0.133-0.508-0.176-0.771-0.118v-0.039H0.27v-0.118C0.171,20.543,0.079,20.502,0,20.441c0.141-0.027,0.105,0,0.154-0.118
	c-0.064-0.044-0.024,0,0-0.079C0.061,20.227-0.005,20.143,0,20.048c0.042,0.001,0.083-0.013,0.116-0.039
	c0.021-0.021,0.034-0.049,0.038-0.079c-0.042,0.001-0.083-0.013-0.116-0.039c0.125-0.031,0.059,0.02,0.116-0.078
	C0.1,19.816,0.045,19.803,0,19.773c0.141-0.027,0.105,0,0.154-0.118c0,0-0.151-0.009-0.077-0.039h0.077v-0.079
	C0.1,19.542,0.046,19.529,0,19.5h0.154c-0.011-0.078-0.011-0.158,0-0.236H0V19.1h0.154c-0.111-0.503-0.137-1.021-0.077-1.533h0.309
	c0.065-0.036,0.384-0.045,0.5-0.078v-0.034c-0.054,0.005-0.108-0.009-0.154-0.039c0.3,0.009,0.6-0.029,0.888-0.115
	c-0.029-0.004-0.057-0.018-0.077-0.039c0.524-0.078,1.057-0.078,1.581,0c0.01,0,0.113,0.056,0.154,0.079v0.079
	c0.196,0.009,0.393-0.018,0.579-0.079c0.805,0.111,1.62,0.139,2.43,0.079c0.514-0.036,1.031-0.022,1.543,0.039
	c0.206,0.037,0.417,0.023,0.617-0.039c-0.087-0.026-0.132-0.101-0.193-0.118L8.138,17.34c-0.125-0.197-0.296-0.359-0.5-0.472
	c-0.845,0.12-1.702,0.12-2.546,0c-0.1-0.032-0.143-0.164-0.231-0.2h-0.5v-0.589c-0.275-0.239-0.442-0.58-0.461-0.944h0.034
	c0.052,0.091,0.047,0.072,0.077,0.079c0.078-0.081,0.142-0.173,0.189-0.275l0.12,0.039c0.109-0.062,0.191-0.16,0.232-0.278
	c-0.02-0.095-0.062-0.048,0.039-0.118c0.023,0.2,0.054,0.2,0.27,0.2c-0.018-0.107-0.043-0.212-0.077-0.315H4.86
	c0.031,0.174,0.128,0.328,0.27,0.432v-0.078c-0.112-0.348-0.099-0.723,0.039-1.062c0.154-0.085,0.297-0.191,0.424-0.313
	c-0.113,0.015-0.048,0.063-0.116-0.039c0.079-0.056,0.174-0.083,0.27-0.079c0.345,0.044,0.693,0.07,1.041,0.079v-0.865
	c-0.036-0.102-0.036-0.212,0-0.314h0.348c0.037,0.633,0.033,1.725,0.039,2.2c0.181-0.001,0.361,0.011,0.54,0.039v-1.022h0.077V14.7
	H7.83v-0.075c0.234-0.695,0.313-1.433,0.231-2.162V7h0.078v6.76C8.223,13.985,8.25,14.229,8.216,14.467z M19.325,13.013
	c0.066,0.035,0.049,0.035,0.116,0H19.325z M16.818,13.213c-0.071,0.041-0.149,0.067-0.231,0.079v0.039h0.424
	c0.02-0.032,0.046-0.059,0.077-0.079V13.21h-0.27V13.213z M19.981,13.213h0.077v0.039c-0.03-0.005-0.057-0.02-0.077-0.042V13.213z
	 M20.598,13.213c0.043,0,0.083,0.013,0.116,0.039H20.6V13.21L20.598,13.213z M19.942,13.37c0.27-0.041,0.545-0.028,0.81,0.039
	c-0.27,0.04-0.545,0.025-0.81-0.042V13.37z M16.201,13.449c0.2,0.069,0.417,0.069,0.617,0H16.201L16.201,13.449z M15.777,13.606
	v0.079h0.039c-0.003-0.032-0.017-0.063-0.04-0.085L15.777,13.606z M16.201,13.606v0.154c0.075,0.023,0.155,0.023,0.231,0
	c0.071-0.027,0.136-0.067,0.193-0.118V13.6H16.2L16.201,13.606z M14.079,13.645c0.03,0.055,0.091,0.086,0.154,0.079v-0.043
	c-0.053-0.004-0.105-0.018-0.154-0.039V13.645z M10.685,17.689c0.066,0.035,0.049,0.035,0.116,0H10.685z M10.839,17.729
	c0.448,0.189,0.913,0.335,1.389,0.433C11.853,17.816,11.343,17.658,10.839,17.729z M23.723,18.477v-0.158h-0.271v0.039h0.077
	C23.563,18.434,23.64,18.48,23.723,18.477z M26.384,18.555c0.13-0.019,0.263-0.005,0.386,0.039
	C26.641,18.613,26.508,18.6,26.384,18.555z M0.077,19.145v0.08h0.039C0.112,19.193,0.099,19.166,0.077,19.145L0.077,19.145z
	 M0,19.38c0.042-0.001,0.083,0.013,0.116,0.039C0.074,19.42,0.033,19.406,0,19.38z M0.077,20.087v0.079h0.039v-0.079H0.077z
	 M1,20.913h0.08v0.039H1V20.913z M0.923,21.268c-0.021,0.05-0.033,0.103-0.039,0.156c0.049,0.021,0.101,0.033,0.154,0.039
	c0.021-0.021,0.048-0.034,0.077-0.039v-0.117c-0.061-0.023-0.125-0.037-0.189-0.041L0.923,21.268z M31.473,21.542
	c-0.013,0.054,0.055,0.058,0.077,0.079c0.03-0.043-0.063-0.068-0.075-0.079H31.473z M1.659,21.62v0.08H1.7v-0.08H1.659z
	 M26.693,22.72c-0.043,0.221-0.068,0.444-0.077,0.668c-0.004,0.073,0.045,0.14,0.116,0.157v0.039h0.037v-0.117
	c0.054,0.005,0.105,0.018,0.154,0.039c0.017-0.044,0.043-0.084,0.076-0.117c-0.04-0.087-0.066-0.18-0.077-0.274H27
	c0.002,0.102,0.063,0.192,0.154,0.235v-0.039c0.119-0.049,0.087-0.016,0.115-0.158c-0.03-0.047-0.056-0.099-0.076-0.152h0.078
	c0.033,0.078,0.086,0.146,0.153,0.2h0.038v0.039c0.071-0.062,0.148-0.114,0.232-0.157c-0.041-0.101-0.041-0.213,0-0.314V22.8
	c0.062,0.067,0.092,0.17,0.154,0.236c0.062-0.04,0.113-0.095,0.15-0.158c-0.076-0.094-0.1-0.168,0-0.235v0.039
	c0.049,0.06,0.088,0.127,0.116,0.199c0.065-0.051,0.152-0.065,0.231-0.039V22.8l-0.039-0.039h0.082
	c0.02-0.022,0.033-0.05,0.039-0.079c-0.048-0.083-0.062-0.182-0.039-0.274c0.021,0.021,0.034,0.049,0.039,0.079
	c0.049,0.06,0.088,0.127,0.115,0.199c0.062-0.033,0.126-0.059,0.193-0.078v-0.045c-0.057-0.08-0.084-0.177-0.077-0.274H28.7
	c0.048,0.112,0.128,0.208,0.231,0.274v-0.039l-0.039-0.039h0.076c0.096,0.012,0.182-0.057,0.193-0.152c0-0.002,0-0.003,0-0.004
	c-0.047-0.034-0.1-0.061-0.154-0.079c-0.231-0.032-0.467-0.019-0.693,0.039c0.011,0.122-0.078,0.229-0.199,0.241
	c-0.024,0.002-0.048,0-0.071-0.006c-0.438,0.133-0.894,0.199-1.353,0.197L26.693,22.72z M2.353,22.484
	c-0.013,0.055,0.055,0.058,0.077,0.08C2.457,22.521,2.364,22.5,2.353,22.484z M3.934,23.035v0.039H3.9
	c-0.074,0.029,0.077,0.039,0.077,0.039C4,23.157,4.043,23.187,4.093,23.191v-0.039c0.032-0.034,0.058-0.074,0.077-0.117H3.934z
	 M22.912,24.018h0.347c-0.027-0.107,0.021-0.219,0.116-0.274v0.274h0.193v-0.039h0.039c-0.011-0.081,0.002-0.163,0.037-0.236v0.039
	c0.035,0.073,0.049,0.155,0.039,0.236h0.348v-0.039c-0.232-0.257-0.345-0.6-0.309-0.943h-0.5c-0.057,0.258-0.191,0.491-0.387,0.668
	C22.887,23.8,22.913,23.908,22.912,24.018z M4.243,23.074c-0.054,0.096-0.068,0.208-0.039,0.313c0.05,0.052,0.12,0.081,0.193,0.079
	l-0.039,0.079H4.4v-0.039c0.089-0.065,0.167-0.146,0.231-0.235C4.517,23.179,4.385,23.111,4.243,23.074z M19.788,24.018h0.347
	l0.039-0.275h0.077v0.275h0.232v-0.039c-0.154-0.258-0.271-0.535-0.347-0.826c-0.027,0.258-0.169,0.488-0.386,0.63
	C19.775,23.857,19.789,23.938,19.788,24.018L19.788,24.018z M4.588,23.427c-0.023,0.101-0.091,0.117-0.039,0.157
	c0.029,0.063,0.087,0.105,0.154,0.118v-0.156c-0.035-0.042-0.073-0.081-0.113-0.118L4.588,23.427z M26.5,23.467
	c-0.029,0.081-0.083,0.15-0.154,0.2V23.7h0.077c0.034-0.034,0.06-0.073,0.077-0.118C26.534,23.518,26.534,23.535,26.5,23.467z
	 M16.664,24.018h0.347v-0.078c0.048-0.104,0.033-0.226-0.039-0.314h-0.038v0.039C16.79,23.729,16.688,23.861,16.664,24.018
	L16.664,24.018z M3.934,23.782c-0.013,0.054,0.055,0.057,0.077,0.079C4.039,23.818,3.945,23.794,3.934,23.782z M22.6,24.018h0.2
	v-0.235h-0.042c-0.039,0.052-0.093,0.093-0.154,0.118v0.117H22.6z M4.741,23.818l0.119,0.121c-0.02-0.055-0.062-0.098-0.116-0.118
	L4.741,23.818z M10.874,24.018c0.125-0.033,0.059,0.02,0.116-0.078c-0.032-0.035-0.058-0.075-0.077-0.118h-0.035v0.2L10.874,24.018z
	 M13.844,23.818c-0.081,0.065-0.172,0.118-0.27,0.156v0.039h0.309c0.024-0.063,0.037-0.131,0.039-0.199h-0.074L13.844,23.818z
	 M19.669,23.818c-0.078,0.052-0.144,0.119-0.193,0.199h0.193c0.024-0.063,0.037-0.131,0.039-0.199h-0.036H19.669z M13.999,24.018
	c0.042,0.001,0.083-0.013,0.116-0.039c-0.044-0.023-0.072-0.068-0.077-0.117H14L13.999,24.018L13.999,24.018z M7.792,23.9
	l-0.039,0.117h0.154C7.884,23.967,7.843,23.924,7.792,23.9z M17.127,23.9c0.032,0.127-0.019,0.06,0.077,0.117v-0.039
	C17.17,23.949,17.16,23.929,17.127,23.9L17.127,23.9z M10.685,23.939c-0.03,0.026-0.086,0.052-0.116,0.078
	c0.151,0,0.174,0.021,0.232-0.078H10.685z M16.51,23.939c-0.021,0.021-0.048,0.034-0.077,0.039v0.039h0.154v-0.078H16.51
	L16.51,23.939z M7.6,23.979c0.021,0.021,0.048,0.034,0.077,0.039C7.656,23.996,7.629,23.982,7.6,23.979z M6.6,24.332l-0.039,0.079
	C6.625,24.355,6.6,24.332,6.6,24.332z M6.33,24.371c0.021,0.021,0.048,0.034,0.077,0.039c-0.022-0.021-0.051-0.035-0.081-0.039H6.33
	z"/>
</svg>
