<?xml version="1.0" encoding="utf-8"?>
<!-- Generator: Adobe Illustrator 16.0.0, SVG Export Plug-In . SVG Version: 6.00 Build 0)  -->
<!DOCTYPE svg PUBLIC "-//W3C//DTD SVG 1.1//EN" "http://www.w3.org/Graphics/SVG/1.1/DTD/svg11.dtd">
<svg version="1.1" id="Layer_1" xmlns="http://www.w3.org/2000/svg" xmlns:xlink="http://www.w3.org/1999/xlink" x="0px" y="0px"
	 width="40px" height="40px" viewBox="0 0 40 40" enable-background="new 0 0 40 40" xml:space="preserve">
<path id="us_m4_sherman_ico" fill="#FFFFFF" d="M13.08,10.195h0.127c0,0.536-0.06,0.94-0.063,1.431
	c0.335,0.023,0.671-0.031,0.982-0.159v-0.031h-0.033c-0.037-0.112-0.091-0.133-0.127-0.254h0.064V11.15h0.032
	c-0.003,0.117,0.058,0.227,0.158,0.286c0.113-0.088,0.3-0.1,0.412-0.191c0.055-0.142,0.118-0.279,0.19-0.413
	c0.076-0.038,0.15-0.08,0.222-0.127v-0.16c-0.025-0.016-0.047-0.038-0.063-0.064c0.097-0.03,0.184-0.084,0.253-0.159
	c-0.008-0.031-0.025-0.012,0-0.032c0.1-0.073,0.121-0.043,0.222,0c-0.034,0.047-0.056,0.102-0.063,0.159h0.1
	c-0.006,0.058-0.028,0.113-0.063,0.159h1.26c0.102-0.036,0.21-0.047,0.317-0.032v-0.222h0.063c0.1-0.066,0.309,0.026,0.443-0.032
	c0.058-0.066,0.136-0.11,0.222-0.127l0.032,0.382l0.76,0.032c0-0.118,0.078-0.221,0.19-0.255c0.029-0.021,0.064-0.033,0.1-0.032
	c0.07,0.047,0.125,0.113,0.158,0.19c0.021,0.029,0.033,0.064,0.032,0.101c0.355-0.018,0.711,0.036,1.045,0.159v-0.64
	c0.024-0.038,0.035-0.082,0.032-0.127c-0.127,0.003-0.255-0.008-0.38-0.032V9.591c-0.183-0.053-0.363-0.116-0.538-0.191
	c-0.217,0.004-0.431,0.047-0.633,0.127v0.127h-0.19l-0.032-0.191c-0.377-0.061-0.76-0.072-1.14-0.032
	C17.137,9.491,17.06,9.511,17,9.477c-0.007-0.004-0.013-0.008-0.019-0.014h0.095V9.337H16.69l-0.031-0.221h-0.127V8.828h0.127
	l0.032-0.318c0.294,0.014,0.488-0.025,0.792-0.032V8.351c0.135-0.031,0.274-0.042,0.412-0.032c0.019,0.051,0.03,0.105,0.032,0.159
	c0.69,0,1.45,0.031,2.185,0.032V8.382h0.475c-0.003,0.044-0.015,0.087-0.032,0.127h0.223c0.023-0.082,0.035-0.168,0.031-0.254h0.127
	v0.223c0.049,0.088,0.128,0.156,0.223,0.191c0.261,0.161,1.193-0.1,1.488,0.032c0.57,0.141,1.158,0.184,1.742,0.127l3.072,0.032
	v0.256H23.5v0.127l-0.1-0.032c0.008,0.065-0.004,0.132-0.032,0.191V9.209h-0.343c0.006,0.055-0.006,0.11-0.032,0.159V9.209
	c-0.519-0.022-1.328,0.036-1.933,0.064c-0.057,0.229-0.078,0.465-0.063,0.7h-0.064c-0.082,0.05-0.3,0.013-0.379,0.064
	c0.077,0.236,0.12,0.482,0.127,0.731h0.854c0.105,0.06,0.228,0.083,0.348,0.064c0.015,0.056,0.036,0.109,0.063,0.159
	c0.072-0.069,0.158-0.124,0.253-0.159v0.35c0.25,0,0.265,0.084,0.507,0.1c0.04-0.396,0.104-0.789,0.189-1.177
	c0.088-0.045,0.187-0.068,0.285-0.064c0.071,0.141,0.125,0.291,0.158,0.445c-0.003,0.172,0.019,0.343,0.063,0.509
	c0.268,0.104,0.416,0.39,0.349,0.668c-0.046,0.067-0.079,0.143-0.095,0.223c0.01,0.09,0.1,0.215,0.127,0.318l0.316,0.059
	c-0.007-0.186,0-0.257,0.158-0.286v0.032h0.032c0.002,0.161,0.022,0.321,0.063,0.477H24.8c-0.021-0.051-0.021-0.108,0-0.159
	c0.093-0.252,0.233-0.11,0.443-0.159c0.088-0.059,0.163-0.135,0.222-0.223c0.45,0.149,0.832,0.454,1.077,0.859
	c0.074,0.252,0.192,0.489,0.349,0.7c0.419,0.063,0.844,0.074,1.267,0.032c0.019,0.051,0.03,0.104,0.032,0.159l10.355,0.127v0.668
	l-10.357,0.126v0.127c-0.431,0.068-0.867,0.079-1.301,0.032c-0.017,0.017-0.039,0.028-0.063,0.032
	c-0.004,0.19-0.098,0.368-0.254,0.477c-0.125,0.07-0.268,0.104-0.411,0.1c-0.048-0.079-0.101-0.206-0.158-0.286l-0.317,0.191
	c0.106,0.273,0.043,0.5,0.476,0.477c0.159-0.1,0.392,0.095,0.6,0c0.095-0.096,0.216-0.163,0.349-0.191
	c0.217,0.139,0.471,0.205,0.728,0.191c0.101-0.04,0.062-0.2,0.285-0.159c0.237,0.067,0.481,0.101,0.728,0.1
	c0.094-0.088,0.223-0.125,0.348-0.1c0.07,0.033,0.146,0.055,0.223,0.064c-0.031,0.176,0.028,0.355,0.158,0.477
	c0.434,0.265,0.956-0.081,1.393,0.223c0.078,0.085,0.049,0.257,0.127,0.35l0.223,0.127c0.059,0.072,0.062,0.188,0.127,0.254
	c0.108,0.023,0.215,0.057,0.316,0.101c0.066,0.187,0.119,0.378,0.158,0.573c0.077-0.029,0.051-0.034,0.127-0.064
	c0.025,0.102,0.068,0.199,0.127,0.286c0.079-0.052,0.164-0.095,0.253-0.127c0.071,0.026,0.147,0.038,0.222,0.032
	c0.088-0.116,0.211-0.197,0.352-0.232c0.038,0.053,0.125,0.137,0.158,0.1c0.162-0.285,0.354-0.553,0.57-0.8
	c0.062-0.051,0.142-0.073,0.222-0.063c0.253,0.086,0.49,0.215,0.7,0.382c0.3,0.187,0.658,0.28,0.949,0.478
	c0.105,0.07,0.2,0.213,0.317,0.285c0.249,0.05,0.461,0.215,0.569,0.445c-0.234,0.283-0.417,0.606-0.537,0.954
	c0.264,0.177,0.538,0.336,0.822,0.477v-0.03c0.104-0.113,0.188-0.242,0.252-0.381h0.063c0.032,0.045,0.076,0.079,0.127,0.101
	c-0.103,0.137-0.188,0.286-0.253,0.444c0.298,0.295,0.641,0.542,1.015,0.732c0.077,0.119,0.141,0.248,0.189,0.382
	c0.193,0.158,0.413,0.255,0.6,0.413c0.187,0.201,0.346,0.426,0.476,0.668c0.429,0.428,0.696,0.988,0.76,1.59h-0.062
	c-0.281-0.113-0.584-0.168-0.888-0.158c0.087,0.346,0.077,0.709-0.032,1.049c-0.057,0.038-0.109,0.08-0.158,0.128
	c-0.03,0.351-0.248,0.656-0.569,0.8c-0.091,0.054-0.229,0.3-0.349,0.382c-0.138,0.101-0.286,0.185-0.442,0.254
	c-0.075-0.001-0.15,0.009-0.222,0.032c-0.009,0.043-0.02,0.085-0.032,0.127c-0.205,0.128-0.417,0.244-0.634,0.35l-0.127-0.031
	c-0.122,0.1-0.238,0.205-0.349,0.317c-0.149,0.093-0.306,0.173-0.442,0.255c-0.061-0.029-0.131-0.029-0.19,0
	c-0.015,0.042-0.024,0.084-0.032,0.127l-0.6,0.351l-0.158-0.032c-0.049,0.059-0.092,0.123-0.127,0.191
	c-0.139,0.098-0.287,0.184-0.443,0.254c-0.166,0.074-0.377,0-0.507,0.063l-0.032,0.101l-0.822,0.031
	c-0.041-0.014-0.026-0.084-0.127-0.063l-0.063,0.063c-0.282,0.084-0.8-0.1-1.014-0.031c-0.101,0.041-0.208,0.063-0.317,0.063
	c-0.182,0.017-0.365-0.005-0.537-0.063c-0.041-0.021,0.012-0.043-0.033-0.032c-0.044,0.03-0.086,0.063-0.127,0.101
	c-0.338,0.017-0.676,0.017-1.014,0c-0.339,0.012-0.679-0.01-1.014-0.064l-0.032,0.064c-0.286,0.045-0.579,0.023-0.854-0.064
	c0,0-0.53,0.064-0.666,0.064c-0.146-0.033-0.293-0.055-0.442-0.064c-0.219,0.045-0.442,0.066-0.665,0.064
	c-0.133-0.045-0.271-0.067-0.412-0.064v0.064c-0.285,0.049-0.58,0.027-0.855-0.064c-0.013,0-0.547,0.064-0.699,0.064
	s-0.452-0.08-0.508-0.064c-0.186,0.045-0.377,0.066-0.569,0.064c-0.136-0.032-0.273-0.053-0.412-0.064l-0.032,0.064
	c-0.339,0.01-0.678-0.012-1.013-0.064c-0.29,0.081-0.597,0.081-0.887,0c-0.01,0-0.578,0.064-0.728,0.064
	c-0.108-0.004-0.216-0.025-0.317-0.064c-0.098,0-0.196,0.022-0.285,0.064H18.5c-0.036-0.051-0.097-0.076-0.158-0.064l-0.063,0.064
	c-0.339,0.006-0.677-0.016-1.013-0.064c-0.278,0.088-0.577,0.088-0.855,0c-0.013,0-0.547,0.064-0.7,0.064
	c-0.168-0.031-0.337-0.053-0.507-0.064c-0.186,0.048-0.378,0.069-0.57,0.064c-0.133-0.043-0.272-0.064-0.412-0.064l-0.032,0.064
	c-0.319,0.113-0.824-0.082-1.013,0c-0.275,0.05-0.559,0.027-0.824-0.064h-0.19c-0.278,0.078-0.569,0.1-0.855,0.064
	c-0.026-0.051-0.073-0.087-0.127-0.101c-0.277,0.081-0.569,0.104-0.855,0.063c-0.041-0.014-0.025-0.084-0.127-0.063
	c-0.298,0.086-0.611,0.108-0.918,0.063c-0.043-0.015-0.024-0.076-0.127-0.063c-0.278,0.077-0.569,0.092-0.854,0.044l-0.063-0.1
	l-0.38,0.031c-0.217-0.042-0.429-0.105-0.633-0.19c-0.054-0.028-0.078-0.138-0.127-0.159l-0.19,0.032
	c-0.215-0.074-0.427-0.159-0.633-0.255l-0.063-0.127H5.954c-0.418-0.141-0.8-0.351-1.172-0.51c-0.188-0.009-0.363-0.102-0.475-0.254
	c-0.371-0.031-0.61-0.227-0.982-0.285v-0.084H3.262c-0.154-0.091-0.511-0.1-0.728-0.223c-0.058-0.07-0.111-0.145-0.158-0.223
	c-0.128-0.088-0.215,0-0.348-0.101l-0.475-0.509l0.032-0.159c-0.041-0.11-0.234-0.207-0.285-0.35l-0.1-0.601
	c0.05-0.036,0.074-0.098,0.063-0.158c-0.006-0.025-0.087-0.101-0.1-0.127L1.2,23.682c-0.393,0.041-0.749,0.147-1.172,0.158v-0.031H0
	c0.061-0.236,0.135-0.471,0.222-0.699c0.231-0.264,0.432-0.552,0.6-0.859L0.79,22.123c0.04-0.018,0.083-0.029,0.127-0.032
	c0.033-0.03,0.523-0.849,0.538-0.891c0.022-0.062-0.025-0.12,0-0.191c0.093,0.013,0.04,0.052,0.1-0.032
	c0.037-0.02,0.06-0.058,0.063-0.1c-0.056-0.061-0.059-0.025-0.032-0.1c0.065-0.018,0.128-0.039,0.19-0.064v-0.497H1.33
	c-0.022-0.072-0.032-0.147-0.03-0.224c0.214-0.335-0.03-1.057,0.19-1.368c0.013,0.114-0.015,0.08,0.063,0.127
	c0.011-0.179,0.046-0.274,0.063-0.413l0.158-0.031v-0.669h0.031v-0.032l1.14-0.127c0.047-0.145,0.168-0.254,0.317-0.285
	c0.192,0.045,0.379-0.213,0.38,0.19h0.063c0.094-0.11,0.254-0.138,0.38-0.063l0.032-0.159c0.108-0.05,0.241-0.047,0.348-0.101
	l0.032-0.1c0.084-0.031,0.04,0.057,0.063,0.064l0.918-0.032c0.38-0.089,0.951-0.024,1.3-0.101h0.57c0.17-0.023,0.34-0.058,0.507-0.1
	c0.02-0.007,0.083-0.092,0.1-0.1c0.066-0.021,0.294,0.08,0.412,0.063c0.118-0.016,0.27-0.1,0.412-0.127v-0.264
	c-0.045-0.123-0.066-0.252-0.063-0.382c0.643-0.021,1.28-0.117,1.9-0.286h0.95c0.371,0.04,0.745,0.018,1.108-0.064
	c-0.228,0.012-0.442-0.113-0.544-0.318c-0.063-0.127-0.085-0.272-0.063-0.413c-0.673,0-1.379-0.1-1.362-0.827
	c0.042-0.125,0.074-0.252,0.095-0.382c0.174-0.203,0.39-0.366,0.633-0.477c0.182-0.199,0.383-0.38,0.6-0.541
	c0.041-0.016,0.086-0.016,0.127,0c0.011-0.35,0.021-0.7,0.032-1.05h0.665c0-0.49-0.061-0.9-0.063-1.431h0.127
	c0-1.391,0.032-2.885,0.032-4.326c-0.056-0.784-0.045-1.571,0.032-2.353c0.017,0.017,0.029,0.04,0.032,0.064
	c0.045,0.177,0.056,0.36,0.032,0.541v1.272C13.048,6.991,13.083,8.646,13.08,10.195z M22.961,9.368
	c0.012,0.01,0.063,0.017,0.032,0.064C22.958,9.416,22.895,9.376,22.961,9.368z M22.803,9.432c0.045-0.004,0.09,0.007,0.127,0.032
	c-0.045,0.005-0.092-0.007-0.13-0.032H22.803z M23.468,9.432c0.034,0,0.067,0.011,0.095,0.032
	C23.529,9.464,23.495,9.453,23.468,9.432z M22.581,9.464c0.055-0.006,0.11,0.005,0.158,0.032
	C22.684,9.502,22.629,9.491,22.581,9.464z M23.658,9.464c0.055-0.006,0.109,0.005,0.158,0.032
	C23.762,9.502,23.706,9.491,23.658,9.464z M22.486,9.564c0.037,0.046,0.037,0.112,0,0.159V9.559V9.564z M22.518,9.716h1.33V9.78
	C23.404,9.826,22.955,9.804,22.518,9.716z"/>
</svg>
