<?xml version="1.0" encoding="utf-8"?>
<!-- Generator: Adobe Illustrator 16.0.0, SVG Export Plug-In . SVG Version: 6.00 Build 0)  -->
<!DOCTYPE svg PUBLIC "-//W3C//DTD SVG 1.1//EN" "http://www.w3.org/Graphics/SVG/1.1/DTD/svg11.dtd">
<svg version="1.1" id="Layer_1" xmlns="http://www.w3.org/2000/svg" xmlns:xlink="http://www.w3.org/1999/xlink" x="0px" y="0px"
	 width="40px" height="40px" viewBox="0 0 40 40" enable-background="new 0 0 40 40" xml:space="preserve">
<path id="us_m24_chaffee_ico" fill="#FFFFFF" d="M14.453,8.115h0.107c0.043-0.08,0.062-0.171,0.053-0.261h0.133
	c0,0.178,0.044,0.2,0.053,0.365c0.067,0.03,0.14,0.047,0.213,0.052c0.148,0.037,0.301,0.046,0.453,0.026h1.095v0.078
	c0.268-0.007,0.536,0.01,0.8,0.052c0.42,0.088,0.947-0.055,1.333,0.026h0.987c0.709,0,1.318,0,2,0v0.261
	c-1.383,0-2.814,0.025-4.213,0.026v0.1c-0.037-0.003-0.073-0.012-0.107-0.026c0.008,0.062-0.001,0.125-0.027,0.182V8.845H16.96
	c0.005,0.045-0.004,0.091-0.027,0.13c0-0.157-0.024-0.161-0.187-0.156c-0.24-0.005-0.481,0.003-0.72,0.026
	c0.013-0.024,0.013-0.053,0-0.078c-0.192,0.085-0.405,0.112-0.613,0.078c0.013-0.024,0.013-0.053,0-0.078H15.36v0.1h-0.48
	c-0.071,0.236-0.099,0.483-0.08,0.729c-0.111,0.04-0.229,0.058-0.347,0.052l0.027,0.729l0.187-0.026
	c0.012,0.093,0.094,0.161,0.187,0.156c-0.011,0.122-0.011,0.244,0,0.365h-0.08c-0.11,0.088-0.169,0.225-0.16,0.365
	c-0.094,0.276-0.122,0.571-0.08,0.86l0.32-0.026c0.031-0.123,0.085-0.238,0.16-0.339c0.002-0.228,0.029-0.455,0.08-0.677
	c0.099-0.057,0.181-0.137,0.24-0.234c0.121,0.04,0.237,0.092,0.347,0.156c0.407-0.022,0.797-0.167,1.12-0.417h1.04
	c-0.007-0.105,0.002-0.211,0.027-0.313h0.052v0.339c0.095,0.027,0.195,0.036,0.293,0.026c0.088-0.189,0.215-0.358,0.373-0.495
	c0.101,0.014,0.199,0.04,0.293,0.078h-0.026c-0.111,0.188-0.149,0.411-0.107,0.625H18.8c0.226,0.009,0.449,0.042,0.667,0.1v0.1
	c0.014,0.006,0.427,0.208,0.427,0.208v0.235c0.022,0.042,0.04,0.085,0.053,0.13c0.108,0.067,0.225,0.12,0.347,0.156v-0.455
	c-0.084-0.01-0.145-0.087-0.135-0.171c0-0.004,0.001-0.007,0.002-0.011c-0.006-0.054,0.003-0.108,0.027-0.156
	c0.052-0.018,0.105-0.026,0.16-0.026c0.035,0.088,0.041,0.075,0.16,0.078c0.012-0.07,0.029-0.14,0.053-0.208
	c0.063-0.041,0.1-0.119,0.159-0.156c0.325-0.111,0.673-0.145,1.013-0.1c0.051,0.301,0.06,0.608,0.027,0.912h0.188v0.156H21.76v0.052
	h-0.8v0.156c0.124,0.024,0.248,0.042,0.373,0.052c0.011,0.127,0.079,0.243,0.187,0.313c0.24,0.12,0.506,0.182,0.773,0.182V12.31
	c-0.072-0.325-0.09-0.66-0.053-0.99h0.053v0.912l0.08,0.026c0.116,0.004,0.232-0.004,0.347-0.026v0.052h0.453
	c0.048-0.057,0.103-0.109,0.16-0.156c0.021,0.003,0.038,0.012,0.053,0.026c0.101,0.058-0.032,0.065,0.107,0.1
	c-0.005-0.102,0.022-0.202,0.08-0.287v0.313c-0.047,0.033-0.103,0.051-0.16,0.052v0.13c0.011,0.006,0.021,0.015,0.026,0.026h1.067
	V12.7c0.109-0.03,0.226,0.009,0.293,0.1c-0.028,0-0.057,0.009-0.08,0.026c0.015,0.014,0.024,0.032,0.027,0.052l0.453,0.058
	c-0.003-0.082,0.015-0.162,0.053-0.234c0.065-0.2,0.627-0.639,0.667-0.13c0.021,0.085,0.029,0.173,0.027,0.261
	c0.025,0.031,0.691,0.624,0.693,0.625h0.213c0.231,0.076,0.271,0.173,0.267,0.495c0.011,0.006,0.021,0.015,0.026,0.026
	c0.118,0.017,0.234,0.043,0.348,0.078h1.466v0.1c1.41,0,2.873,0.026,4.32,0.026c0.746-0.052,1.495-0.043,2.239,0.026h1.334
	c1.1,0,2.076-0.052,3.146-0.052v0.912c-0.383,0.041-0.77,0.023-1.146-0.052l-9.894,0.052v0.1h-0.106v0.208
	c-0.327,0.051-0.658,0.06-0.987,0.026c-0.034-0.012-0.222-0.038-0.293-0.052c-0.009,0.069-0.022,0.055-0.16,0.052
	c-0.036-0.013-0.247-0.037-0.32-0.052c-0.02,0.129-0.032-0.024-0.106,0.078c-0.021,0.069-0.04,0.139-0.053,0.209
	c-0.08,0.12-0.18,0.226-0.293,0.313L25.52,16.16c-0.026-0.111-0.071-0.217-0.133-0.313c-0.109,0.051-0.174,0.167-0.16,0.287
	c0.015,0.014,0.024,0.032,0.027,0.052c0.563,0.114,1.134,0.174,1.707,0.182c0.016,0.042,0.025,0.085,0.027,0.13
	c0.007,0.061,0.007,0.122,0,0.182c0.05,0.024,0.105,0.033,0.16,0.026c0.209-0.264,0.561-0.368,0.879-0.261
	c0.068,0.028,0.142,0.037,0.214,0.026c0.058-0.052,0.134-0.08,0.213-0.078v0.052c-0.017,0.022-0.026,0.05-0.027,0.078
	c0.072,0.012,0.144,0.029,0.214,0.052c0.097,0.1,0.162,0.227,0.187,0.365c-0.028,0-0.058,0.009-0.08,0.026h0.026
	c0.033,0.02,0.07,0.029,0.107,0.026c0.073-0.2,0.766,0.4,1.014,0.443v-0.044c-0.079-0.095-0.117-0.216-0.107-0.339
	c0.034-0.014,0.07-0.022,0.107-0.026c0.328,0.266,0.686,0.494,1.066,0.677c0.071,0.005,0.141-0.023,0.188-0.078
	c0.266-0.048,0.527,0.107,0.612,0.365c0.169,0.022,0.331,0.075,0.48,0.156c0.079-0.158,0.2-0.271,0.293-0.418
	c-0.044-0.027-0.064-0.079-0.054-0.129c0.165-0.116,0.359-0.179,0.561-0.183v0.156h0.107v0.1h0.211v-0.6h0.268V18.8h0.027v0.026
	l0.16,0.025c0.033-0.08,0.01-0.059,0.106-0.078c0.226,0.146,0.509,0.125,0.507,0.5c0.779,0,1.579,0.025,2.32,0.026v0.261
	c-0.317,0.051-0.641,0.059-0.96,0.026c-0.372-0.04-0.748-0.04-1.12,0v0.026h0.027c0.139,0.127,0.302,0.225,0.479,0.287
	c0.032-0.051,0-0.031,0.054-0.026c0.199,0.067,0.106,0.149,0.213,0.313c0.145,0.223,0.394,0.399,0.533,0.625
	c0.039,0.144,0.093,0.283,0.159,0.416c0.138,0.102,0.247,0.236,0.32,0.392c-0.101,0.1-0.25,0.138-0.347,0.235
	c-0.08-0.024-0.045-0.054-0.107-0.026c-0.086,0.081-0.166,0.169-0.24,0.261c-0.031-0.02-0.069-0.028-0.107-0.025v0.052
	c0.08-0.009,0.152,0.049,0.16,0.128c0.001,0.01,0.001,0.019,0,0.027c-0.095,0.032-0.152,0.13-0.133,0.229l0.08,0.052
	c0.033,0.019,0.07,0.026,0.107,0.026v0.156c-0.033,0.045-0.053,0.1-0.053,0.156c-0.08-0.005-0.16-0.005-0.24,0v0.049
	c-0.012,0.1,0.007,0.199,0.053,0.287c-0.039,0.066-0.033,0.049-0.133,0.053c-0.027,0.005-0.055,0.014-0.08,0.025
	c-0.043,0.028-0.064,0.08-0.053,0.131c0.046,0.043,0.082,0.096,0.106,0.155c-0.082,0.067-0.154,0.146-0.213,0.235
	c-0.052-0.047-0.118-0.074-0.187-0.078c-0.052,0.021-0.084,0.074-0.08,0.13c0.025,0.058,0.035,0.12,0.027,0.183
	c-0.035,0.014-0.07,0.021-0.107,0.025c-0.043-0.045-0.1-0.072-0.16-0.078c-0.095,0.005-0.168,0.085-0.164,0.18
	c0.001,0.01,0.002,0.02,0.004,0.028c0.029,0.016,0.05,0.045,0.053,0.078c-0.1,0.071-0.207,0.133-0.32,0.183v-0.024
	c-0.02-0.017-0.074-0.081-0.133-0.13c-0.014,0.014-0.033,0.022-0.053,0.025c-0.023,0.053-0.09,0.117-0.107,0.156
	c-0.029,0.072,0.008,0.158-0.026,0.209c-0.021,0.023-0.034,0.029-0.053,0.053c-0.021-0.004-0.039-0.013-0.054-0.026l-0.08-0.026
	c0.008-0.054-0.002-0.107-0.026-0.156v0.026c-0.064,0.017-0.115,0.065-0.134,0.13c0.047,0.038,0.059,0.104,0.027,0.156
	c-0.068,0.063-0.172,0.092-0.24,0.156c-0.1-0.035-0.11-0.094-0.213-0.131c-0.135,0.133-0.299,0.231-0.479,0.287
	c0.021,0.088,0.011,0.18-0.026,0.262c-0.076,0.071-0.168,0.125-0.268,0.156c-0.03-0.078-0.104-0.129-0.188-0.131
	c-0.194,0.093-0.36,0.237-0.479,0.417c0,0.027,0.013,0.048,0.026,0.13c-0.088,0.063-0.188,0.106-0.293,0.131
	c-0.05-0.037-0.095-0.081-0.133-0.131c-0.223,0.07-0.412,0.219-0.533,0.418c-0.017,0.021-0.026,0.049-0.026,0.077
	c0.069,0.011,0.035-0.019,0.053,0.052h-0.028c-0.063,0.062-0.152,0.096-0.213,0.156c-0.061-0.052-0.135-0.086-0.214-0.1
	c-0.222,0.041-0.41,0.188-0.507,0.391c-0.012,0.045-0.002,0.094,0.027,0.131c-0.087,0.059-0.188,0.094-0.293,0.1
	c-0.053-0.044-0.098-0.097-0.133-0.156c-0.146,0.054-0.299,0.087-0.453,0.1v0.078c-0.029,0-0.057,0.009-0.08,0.026
	c-0.023,0.04-0.041,0.085-0.053,0.13c-0.091,0.047-0.193,0.064-0.293,0.052c-0.004-0.02-0.013-0.038-0.027-0.052
	c0.007-0.052,0.007-0.104,0-0.156h-0.48c-0.127,0.228-0.109,0.223-0.533,0.208c-0.002-0.02-0.012-0.038-0.026-0.052
	c0.007-0.052,0.007-0.104,0-0.156h-0.479c-0.128,0.228-0.111,0.223-0.533,0.208c-0.004-0.02-0.013-0.038-0.027-0.052
	c0.007-0.052,0.007-0.104,0-0.156h-0.48c-0.061,0.223-0.182,0.223-0.533,0.208l-0.026-0.208h-0.479
	c-0.01,0.045-0.039,0.082-0.08,0.1c0.014,0.033,0.022,0.066,0.026,0.101H24.48l-0.027-0.208h-0.48
	c-0.009,0.045-0.039,0.082-0.08,0.1c0.014,0.032,0.023,0.066,0.027,0.101h-0.48l-0.026-0.208h-0.479
	c-0.01,0.044-0.039,0.081-0.08,0.1c0.014,0.032,0.022,0.066,0.026,0.101H22.4l-0.027-0.208h-0.48
	c-0.029,0.065-0.047,0.136-0.053,0.208h-0.48l-0.026-0.208h-0.479c-0.03,0.065-0.049,0.136-0.054,0.208h-0.48l-0.027-0.208h-0.48
	c-0.03,0.065-0.048,0.136-0.053,0.208h-0.453v-0.024c-0.034-0.045-0.052-0.1-0.053-0.156h-0.48c-0.03,0.066-0.048,0.137-0.053,0.209
	h-0.454c-0.003-0.021-0.012-0.039-0.027-0.053c0.007-0.052,0.007-0.104,0-0.156h-0.48c-0.043,0.063-0.071,0.134-0.08,0.209h-0.427
	c-0.003-0.021-0.012-0.039-0.027-0.053c0.007-0.052,0.007-0.104,0-0.156h-0.48c-0.043,0.063-0.071,0.134-0.08,0.209H16.24
	c-0.003-0.021-0.013-0.039-0.027-0.053c0.007-0.052,0.007-0.104,0-0.156h-0.48c-0.123,0.221-0.093,0.224-0.507,0.209
	c-0.003-0.021-0.012-0.039-0.027-0.053c0.007-0.052,0.007-0.104,0-0.156H14.72c-0.123,0.221-0.093,0.224-0.507,0.209
	c-0.003-0.021-0.012-0.039-0.027-0.053c0.007-0.052,0.007-0.104,0-0.156h-0.48c-0.123,0.221-0.093,0.224-0.507,0.209
	c-0.003-0.021-0.013-0.039-0.027-0.053c0.007-0.052,0.007-0.104,0-0.156h-0.48c-0.127,0.228-0.11,0.224-0.533,0.209l-0.027-0.209
	h-0.48c-0.03,0.066-0.048,0.137-0.053,0.209h-0.452c-0.003-0.021-0.012-0.039-0.027-0.053c0.007-0.052,0.007-0.104,0-0.156h-0.48
	c-0.041,0.052-0.06,0.117-0.053,0.183c-0.147,0.042-0.302,0.05-0.453,0.026c-0.003-0.021-0.012-0.039-0.027-0.053
	c0.007-0.052,0.007-0.104,0-0.156h-0.48c-0.127,0.228-0.11,0.224-0.533,0.209l-0.027-0.209h-0.48
	c-0.03,0.066-0.048,0.137-0.053,0.209c-0.158,0.043-0.328,0.006-0.453-0.101c-0.1-0.104-0.075-0.112-0.373-0.101
	c-0.063-0.037-0.145-0.018-0.183,0.045c-0.001,0.002-0.003,0.005-0.004,0.008c-0.018,0.03-0.027,0.064-0.027,0.1H7.44
	c-0.084-0.036-0.175-0.055-0.267-0.052l-0.027-0.156c-0.166-0.112-0.36-0.175-0.56-0.182c-0.066,0.028-0.116,0.086-0.133,0.155
	c-0.117-0.027-0.226-0.081-0.32-0.155c0.048-0.058,0.067-0.134,0.053-0.208c-0.174-0.118-0.362-0.215-0.56-0.287
	c-0.034,0.057-0.094,0.094-0.16,0.1c-0.096-0.051-0.171-0.135-0.213-0.234c0.029-0.037,0.04-0.085,0.027-0.131
	c-0.147-0.136-0.319-0.242-0.507-0.313c-0.063,0.047-0.136,0.081-0.213,0.1c-0.093-0.042-0.168-0.115-0.213-0.207
	C4.466,25.645,4,25.493,3.893,25.391l-0.16,0.051l0.027,0.053H3.733C3.718,25.508,3.7,25.517,3.68,25.52
	c-0.067-0.069-0.149-0.123-0.24-0.155c-0.006-0.079,0.003-0.159,0.027-0.234c-0.173-0.083-0.334-0.188-0.48-0.313
	c-0.059,0.055-0.133,0.09-0.213,0.101c-0.125-0.013-0.224-0.11-0.24-0.235c0.021-0.041,0.04-0.085,0.053-0.13
	c-0.188-0.126-0.395-0.224-0.613-0.286c-0.026,0.049-0.042,0.094-0.08,0.051c-0.072-0.082-0.164-0.145-0.267-0.182
	c-0.181,0.059-0.374,0.067-0.56,0.026c-0.103-0.091-0.192-0.194-0.267-0.31c0.034-0.092,0.052-0.188,0.053-0.287H0.96
	c0.042,0.201,0.111,0.248,0.373,0.234c0.107-0.027,0.202-0.092,0.267-0.181c-0.047-0.05-0.076-0.114-0.08-0.183
	c-0.072,0.002-0.144-0.008-0.213-0.025c-0.053-0.096-0.081-0.203-0.08-0.313l0.133-0.026c0.035-0.063,0.053-0.136,0.053-0.208
	c-0.034-0.109-0.043-0.226-0.027-0.34c-0.345-0.055-0.674-0.188-0.96-0.391c-0.108-0.025-0.203-0.091-0.266-0.183
	c0.134-0.126,0.243-0.276,0.32-0.443H0.32v-0.052c0.072,0.01,0.146,0.001,0.213-0.026c0.017-0.022,0.026-0.05,0.027-0.077
	c-0.032-0.093-0.041-0.191-0.027-0.287c0.063-0.029,0.119-0.074,0.16-0.131H0.427v-0.078C0.018,20.8,0.117,20.292,0,19.97
	c0.062-0.015,0.124-0.022,0.187-0.026v-0.834h0.026c0.226,0.061,0.459,0.087,0.693,0.078c0.22-0.276,0.553-0.439,0.907-0.442v-0.234
	H1.92l0.027,0.209h0.026c0.041-0.021,0.087-0.03,0.133-0.026l0.053-0.286c0.066-0.041,0.1-0.117,0.16-0.156
	c0.454-0.213,0.941-0.345,1.44-0.392c0.03-0.211,0.169-0.222,0.427-0.207c0.1-0.064,0.331,0.037,0.453-0.026
	c0.009,0,0.044-0.101,0.053-0.101c0.009,0,0.66,0.127,0.827,0.131V17.6l-0.08-0.208c0.039-0.028,0.085-0.046,0.133-0.052
	c-0.003,0.102,0.024,0.202,0.08,0.287c0.023,0.017,0.051,0.026,0.08,0.026c0.143-0.071,0.513,0.084,0.693,0
	c0.025-0.035,0.052-0.068,0.08-0.101c0.081-0.018,0.165-0.009,0.24,0.026c0.041,0,0.12-0.044,0.187-0.053
	c0.201-0.287,0.507-0.484,0.853-0.546c0.152-0.002,0.305,0.015,0.453,0.052c0.092-0.047,0.181-0.1,0.267-0.156L8.747,16.9
	c0.136-0.062-0.018-0.167,0.293-0.156c0.051,0.125,0.146,0.227,0.267,0.287c-0.07-0.345,0.123-0.688,0.453-0.808
	c0.262-0.074,0.53-0.126,0.8-0.156c0.112-0.043,0.135-0.22,0.24-0.261h0.88c0.056-0.044,0.119-0.078,0.187-0.1
	c0.048,0.05,0.102,0.093,0.16,0.13c0.062,0.157,0.142,0.306,0.24,0.443v-0.087h0.213v0.078h0.267c-0.01-0.071,0-0.142,0.027-0.208
	c0.244-0.134,0.53-0.17,0.8-0.1c0.059,0.093,0.087,0.203,0.08,0.313h0.133v-0.083h0.08c-0.077-0.196-0.166-0.388-0.267-0.573h-1.28
	c-0.183-0.044-0.373-0.053-0.56-0.026V15.2c-0.921,0-1.849,0.05-2.8,0.052v-0.414H8.907c0,0.028-0.01,0.056-0.027,0.078v-0.078
	H8.773c-0.034-0.045-0.052-0.1-0.053-0.156c0.057-0.013,0.105-0.049,0.133-0.1c-0.087-0.035-0.148-0.115-0.16-0.208
	c0.09-0.111,0.129-0.255,0.107-0.396c0.064,0.008,0.088,0.027,0.133-0.052c-0.03-0.083-0.04-0.173-0.027-0.261
	c0.382-0.121,0.775-0.208,1.173-0.26c0.558-0.132,1.103-0.315,1.627-0.547l0.373-0.078l0.16-0.208
	c-0.003-0.02-0.013-0.039-0.027-0.052c-0.039-0.066,0.006-0.029-0.08-0.052c-0.041,0.018,0,0-0.08,0v-0.08
	c0.08,0.027,0.168,0.018,0.24-0.025c0.163-0.115,0.285-0.28,0.347-0.469c0.394-0.607,0.615-1.309,0.64-2.032
	c0.178,0.002,0.356-0.006,0.533-0.026l0.027-0.156h-0.026V9.653c-0.126,0-0.252-0.018-0.373-0.053V9.236
	c-0.207-0.048-0.394-0.162-0.587-0.208c-0.229-0.001-0.456,0.042-0.667,0.13V9.21c-0.017,0.022-0.027,0.05-0.027,0.078H12
	c-0.007-0.072-0.025-0.142-0.053-0.208c-0.397-0.06-0.801-0.069-1.2-0.026c-0.072,0.049-0.154,0.083-0.24,0.101V9.106L10.64,9.08
	v-0.1h-0.053c-0.113-0.032-0.233-0.032-0.347,0V8.923c-0.027-0.065-0.037-0.137-0.027-0.208H10.08V8.428h0.133
	c-0.002-0.104,0.007-0.21,0.027-0.313h0.16c0.222,0.04,0.449,0.03,0.667-0.026v-0.13c0.137-0.049,0.283-0.067,0.427-0.052
	c0.02,0.032,0.047,0.059,0.08,0.078c-0.014,0.032-0.023,0.066-0.027,0.1c0.758,0,1.577,0.025,2.373,0.026V8.063
	c-0.019-0.03-0.028-0.065-0.027-0.1h0.027c0.13,0.036,0.267,0.045,0.4,0.026c0.066-0.475,0.075-0.956,0.027-1.433
	c0.015-0.015,0.024-0.035,0.026-0.056h0.053v0.052c0.038,0.145,0.047,0.295,0.027,0.443V8.115z M16.906,8.975
	c0.014,0.014,0.023,0.032,0.027,0.052h-0.026L16.906,8.975L16.906,8.975z M17.36,9c0.03,0.043,0.047,0.028,0,0.052V9z M16.853,9.026
	h0.053v0.026H16.88c-0.023,0.017-0.051,0.026-0.08,0.026V9.053C16.82,9.05,16.839,9.041,16.853,9.026L16.853,9.026z M17.413,9.052
	h0.053v0.026C17.446,9.076,17.428,9.067,17.413,9.052L17.413,9.052z M16.506,9.078c0.09-0.013,0.182-0.004,0.267,0.026
	C16.684,9.117,16.592,9.108,16.506,9.078L16.506,9.078z M17.493,9.078c0.09-0.013,0.181-0.004,0.267,0.026
	C17.67,9.117,17.579,9.108,17.493,9.078L17.493,9.078z M16.426,9.104c0.029,0,0.057,0.009,0.08,0.026h-0.053
	c-0.017-0.006-0.012,0.01-0.026-0.024L16.426,9.104z M17.759,9.104c0.086,0.022,0.041-0.013,0.08,0.052h-0.026
	c-0.019-0.021-0.033-0.028-0.053-0.05L17.759,9.104z M16.399,9.156c0.035,0.056,0.035,0.126,0,0.182v-0.18V9.156z M17.839,9.312
	c0.033,0.041,0.017,0.013,0,0.052c-0.458,0.074-0.924,0.091-1.387,0.052l-0.027-0.078c0.471,0.044,0.946,0.037,1.415-0.024
	L17.839,9.312z M13.892,12.152h0.133v-1.275h-0.24c-0.176,0.548-0.399,1.08-0.667,1.589h0.133c0.242-0.032,0.467-0.142,0.642-0.312
	L13.892,12.152z M8.827,15.046c0.014,0.014,0.023,0.032,0.027,0.052H8.827V15.046z"/>
</svg>
