<svg xmlns="http://www.w3.org/2000/svg" width="40" height="40" viewBox="0 0 40 40">
  <defs>
    <style>
      .cls-1 {
        fill: #fff;
        fill-rule: evenodd;
      }
    </style>
  </defs>
  <path id="us_m3_lee_ico" class="cls-1" d="M14.1,11.264c0.17-.006.235-0.048,0.4-0.058V9.435a0.843,0.843,0,0,1,.347-0.058c0.055,0.027.034,0.011,0.116,0a0.434,0.434,0,0,1,.058-0.261,0.42,0.42,0,0,1,.231-0.058V9.116a0.54,0.54,0,0,1,.029.261,2.732,2.732,0,0,0,.925.058V9.377h0.4c0.023-.009.042-0.1,0.087-0.087a0.547,0.547,0,0,1,.058.087c0.067,0.024.257-.06,0.376-0.029a1.4,1.4,0,0,0,.231.087c0.425,0.042,1.06-.234,1.214,0a0.251,0.251,0,0,1,.029.145,0.209,0.209,0,0,0,.231-0.058,0.139,0.139,0,0,1-.087-0.029h0.029c0.025-.033.1-0.059,0.116-0.087,0.078-.115-0.045-0.129.116-0.174a0.206,0.206,0,0,0,.116.058V9.319H19.046a0.364,0.364,0,0,1,.029.319,0.174,0.174,0,0,1-.116.145,0.506,0.506,0,0,1-.347.058v0.232a1.831,1.831,0,0,1,.4.261c0.054,0.074.06,0.164,0.116,0.232a0.311,0.311,0,0,1,.174-0.029c0.011,0.076-.021.038,0.058,0.058a1.571,1.571,0,0,1,.665-0.058c0.558,0.072,1.292-.007,2.139,0a0.954,0.954,0,0,1,.029.29c-0.978,0-2.042.028-3.064,0.029v0.116a0.177,0.177,0,0,1,.058.058h0.434v0.174c0.169,0.006.235,0.048,0.4,0.058a0.886,0.886,0,0,0,.029.2,4.077,4.077,0,0,0,.723.551,0.646,0.646,0,0,0,.289-0.029,1.672,1.672,0,0,1,.809.087,1.815,1.815,0,0,1,.607.377,1.053,1.053,0,0,0,.145.232h0.4c0.029,0.026.231,0.232,0.231,0.232h1.965v0.087l4.162,0.058c0.345,0.074.832-.053,1.214,0.029a2.488,2.488,0,0,0,.954,0V13.5a9.149,9.149,0,0,0-1.965.029l-4.364.058v0.087H23.468V13.76c0.252,0.012.121,0.051,0.231,0.116h2.63a0.97,0.97,0,0,1,.058.261,3.355,3.355,0,0,1-.925.058H23.7a0.451,0.451,0,0,1-.173.377,5.71,5.71,0,0,1,.4.493h1.127V14.979h0.231a0.141,0.141,0,0,0,.029.087,0.382,0.382,0,0,0,.2.029V14.544a1.178,1.178,0,0,1,1.3,0V15.1a2.069,2.069,0,0,1,.26.058V15.124H27.11V15.037h0.2v0.029h0.029v0.087a1.753,1.753,0,0,1,.289.058h1.012a7.432,7.432,0,0,0,1.474.2l0.029,0.2a0.664,0.664,0,0,1,.549.581H29.942v0.029a0.542,0.542,0,0,1,.087.319c0.082-.009.06-0.031,0.116,0a0.84,0.84,0,0,0,.549.348l0.145,0.261a2.711,2.711,0,0,1-.058.493,0.3,0.3,0,0,1,.087.174c-0.02.062-.051-0.016-0.058,0.058a0.958,0.958,0,0,0,.116.232c2.462,0,4.807.083,7.225,0.087V17.939h0.867V18.2h0.116v0.842H39.017V19.3H38.15V19.042c-2.255,0-4.4.083-6.676,0.087v0.029H31.5a1.755,1.755,0,0,0,.578.29,0.5,0.5,0,0,0,.029.174c0.087,0.044.155,0.14,0.231,0.174a0.47,0.47,0,0,1,.231,0c0.008,0.114-.016.132,0.058,0.174a0.6,0.6,0,0,0,.462.2,0.514,0.514,0,0,0,.029.174,1.263,1.263,0,0,0,.231.2,0.675,0.675,0,0,1,.2-0.029,0.41,0.41,0,0,1,.116.261c0.04,0.057.155,0.083,0.2,0.145a0.617,0.617,0,0,1,.2-0.029v0.087a0.645,0.645,0,0,1,.2.087v0.058l0.636,0.145a0.689,0.689,0,0,0,.318.145,0.452,0.452,0,0,1,.4-0.377,0.141,0.141,0,0,1,.029-0.087c0.021-.025.036-0.033,0.058-0.058H35.78c0.027,0.1.011,0.09,0.116,0.116-0.013.33,0.084,0.455,0.434,0.435v0.261a0.942,0.942,0,0,0-.173.058c0.113,0.118.117,0.347,0.231,0.464,0.024,0.024.377,0.223,0.4,0.232h0.983a3.222,3.222,0,0,1,1.821.7,3.8,3.8,0,0,1-.376.726c0.149,0.419.5,0.576,0.636,1.016,0.057,0.179-.017.467,0.029,0.58l0.087,0.058a2.145,2.145,0,0,1-.087.871,0.95,0.95,0,0,0-.145.174l0.029,0.145a2.265,2.265,0,0,1-.26.493,1.531,1.531,0,0,1-.289.29,0.175,0.175,0,0,0-.145.029,1.469,1.469,0,0,1-.087.2,3.843,3.843,0,0,1-.347.2c-0.114.08-.226,0.22-0.347,0.29a0.188,0.188,0,0,0-.173,0,0.681,0.681,0,0,0-.029.145c-0.035.044-.45,0.328-0.52,0.377a3.955,3.955,0,0,0-.376.145l-0.029.116a8.535,8.535,0,0,1-.723.551,0.375,0.375,0,0,0-.173,0l-0.116.2a5.734,5.734,0,0,1-.607.435,0.136,0.136,0,0,0-.116-0.029,0.688,0.688,0,0,0-.116.2,2.116,2.116,0,0,1-.694.406,2.117,2.117,0,0,0-.231-0.029,1.209,1.209,0,0,1-.087.116,2.834,2.834,0,0,1-.809.058c-0.043-.021-0.021-0.089-0.116-0.087s-0.066.066-.116,0.087a2.442,2.442,0,0,1-1.041-.087,1.951,1.951,0,0,1-.925.087,0.194,0.194,0,0,0-.116-0.087,0.563,0.563,0,0,0-.116.087,2.042,2.042,0,0,1-.925-0.058,0.245,0.245,0,0,0-.2.058c-0.37.081-.856-0.075-1.069,0H27.948a0.146,0.146,0,0,0-.145-0.058l-0.058.058c-0.337.1-.832-0.074-1.04,0H25.78a0.138,0.138,0,0,0-.145-0.058,1.95,1.95,0,0,1-.954,0c-0.005,0-.66.058-0.809,0.058a1.342,1.342,0,0,0-.462,0,5.422,5.422,0,0,1-.983-0.058l-0.058.058c-0.341.1-.857-0.075-1.069,0H20.462a0.221,0.221,0,0,0-.2-0.058,1.794,1.794,0,0,1-.925,0,0.607,0.607,0,0,0-.289.058,6.51,6.51,0,0,0-.925,0c-0.35.106-.877-0.089-1.069,0a5.753,5.753,0,0,1-1.069-.058,1.882,1.882,0,0,1-.954,0,1.011,1.011,0,0,0-.347.058H14.017a0.14,0.14,0,0,0-.173-0.058,0.269,0.269,0,0,1-.144.058c-0.16.008-.925-0.058-0.925-0.058a2.2,2.2,0,0,1-.838.058,0.345,0.345,0,0,0-.058-0.087,0.2,0.2,0,0,0-.173.087H10.983a0.683,0.683,0,0,0-.26-0.087l-0.058.087H9.884c-0.045-.023-0.03-0.111-0.145-0.087a0.865,0.865,0,0,0-.087.087H8.815l-0.058-.087c-0.1-.034-0.089.046-0.116,0.058a2.974,2.974,0,0,1-.78-0.029c-0.059-.023-0.112-0.13-0.173-0.145-0.086-.021-0.1.074-0.2,0.058a2.62,2.62,0,0,1-.549-0.145,1.275,1.275,0,0,1-.231-0.116L6.676,30.42a0.834,0.834,0,0,0-.289-0.029,4.6,4.6,0,0,1-.665-0.319l-0.087-.145a0.832,0.832,0,0,0-.231,0c-0.054-.017-0.745-0.344-0.78-0.377L4.6,29.433a0.4,0.4,0,0,0-.231,0A4.291,4.291,0,0,1,3.873,29.2a1.535,1.535,0,0,1-.289-0.145A0.279,0.279,0,0,0,3.5,28.91a0.257,0.257,0,0,0-.173.029,6.615,6.615,0,0,1-.665-0.348l-0.145-.029a0.964,0.964,0,0,0-.058-0.145H2.225a1.743,1.743,0,0,1-.26-0.116A3.3,3.3,0,0,1,.78,26.879a0.137,0.137,0,0,0,.058-0.145,1.286,1.286,0,0,1-.173-0.9A0.337,0.337,0,0,1,.751,25.66a2.475,2.475,0,0,1,.029-0.58,3.008,3.008,0,0,1,.867-1.1V23.947h-0.2a1.253,1.253,0,0,0-.376-0.087v0.029a0.247,0.247,0,0,1,.058.2H1.012V24.063H0.983a0.223,0.223,0,0,0-.058-0.2,0.227,0.227,0,0,0,.087-0.232,1.037,1.037,0,0,0-.607.435H0.376V24.034A0.566,0.566,0,0,1,0,23.454l0.78-.493v-2a0.175,0.175,0,0,1-.116-0.145A0.452,0.452,0,0,0,.78,20.348,0.175,0.175,0,0,1,.665,20.2,0.452,0.452,0,0,0,.78,19.739a0.175,0.175,0,0,1-.116-0.145c0.094-.063.087-0.176,0.173-0.232s0.23-.007.318-0.058a0.412,0.412,0,0,1,.058-0.087,1.208,1.208,0,0,1,.2.029l0.029-.087a2.176,2.176,0,0,0,.636-0.348H2.11V18.578A0.315,0.315,0,0,1,2.081,18.4l0.549-.058c0.148-.222.429-0.332,0.578-0.551a0.936,0.936,0,0,1-.289-0.552c0.131,0,.054-0.105.087-0.232L3.064,17.04V17.011c0.046-.045.067-0.133,0.116-0.174a1.851,1.851,0,0,0,.549-0.087,1.32,1.32,0,0,1,.116-0.174c0.05,0,.168.028,0.26,0.029V16.517a4.881,4.881,0,0,0,1.994-.2,0.309,0.309,0,0,1,.289.087,4.067,4.067,0,0,0,.665-0.058,5.546,5.546,0,0,1,1.243-.2,0.4,0.4,0,0,1,.231-0.2v0.116a4.959,4.959,0,0,1,.751.319,0.351,0.351,0,0,1,.145,0,1.494,1.494,0,0,0,.751.261v0.116a0.421,0.421,0,0,1,.289.174,0.207,0.207,0,0,1,.058.116c-0.232.027-.154,0.357-0.145,0.668h0.058a1.786,1.786,0,0,1,.549-0.174l0.376,0.029a0.72,0.72,0,0,1,.26-0.087c0.029,0.078-.07.133,0.058,0.2a0.911,0.911,0,0,1,.318,0,0.219,0.219,0,0,1,.145-0.116V17.243l-0.145-.029V16.778a0.774,0.774,0,0,0,.058-0.377l0.087-.029a1.056,1.056,0,0,0-.058-0.493,0.381,0.381,0,0,1,.231-0.058,0.312,0.312,0,0,0,.173.029V15.734h0.174V15.588a1.2,1.2,0,0,0,.289-1.306,0.139,0.139,0,0,0,.087-0.029,0.253,0.253,0,0,0,.029-0.145L12.948,12.6c-0.1-.442-0.038-0.945-0.145-1.422-0.078-.348-0.03-0.748-0.116-1.132a5.753,5.753,0,0,1-.116-1.016H12.6V9H12.63l0.491,4.789H13.15V13.76a2.368,2.368,0,0,0,.058-0.61,7.373,7.373,0,0,0,.087-1.364h0.231c0.006,0.1-.043.06,0.058,0.087a1.29,1.29,0,0,1,.289-0.261,0.8,0.8,0,0,0,.231-0.058v-0.29ZM3.439,16.72H3.5v0.029A0.1,0.1,0,0,1,3.439,16.72Zm-0.52.406a0.105,0.105,0,0,1,.029.058H2.919V17.127Zm0,0.377H2.977C2.943,17.551,2.965,17.54,2.919,17.5Zm-0.029.029a0.1,0.1,0,0,1,.029.058H2.89V17.533Zm0.116,0.116c0.032,0.048.051,0.031,0,.058V17.649ZM1.763,18.868a0.241,0.241,0,0,1,.145.029A0.241,0.241,0,0,1,1.763,18.868Zm-0.2.029a0.241,0.241,0,0,1,.145.029A0.241,0.241,0,0,1,1.561,18.9Z" transform="translate(0 0.016)"/>
</svg>
