<svg xmlns="http://www.w3.org/2000/svg" width="40" height="40" viewBox="0 0 40 40">
  <defs>
    <style>
      .cls-1 {
        fill: #fff;
        fill-rule: evenodd;
      }
    </style>
  </defs>
  <path id="us_merkava_mk_1_ico" class="cls-1" d="M8.23,19.535H8.313v0.082c0.1,0.02.068,0.034,0.165,0.055V19.453H8.532v0.273h0.11a0.167,0.167,0,0,0,.055.055,0.428,0.428,0,0,0-.027.137l0.494-.027v0.055H9.191a0.327,0.327,0,0,1,.247-0.082,0.164,0.164,0,0,0,.11.137V19.863c-0.069-.04-0.042-0.012-0.055-0.109l0.549-.055a1.687,1.687,0,0,0,.384.055,2,2,0,0,0,.22-0.109,5.969,5.969,0,0,1,.741-0.137,7.566,7.566,0,0,1,.768.109V19.563a0.292,0.292,0,0,1-.137-0.109h0.027V19.426H12.1a2.908,2.908,0,0,0,.357.328h0.192a0.458,0.458,0,0,1,.192-0.164,0.608,0.608,0,0,1-.055-0.246A0.691,0.691,0,0,1,13,19.317v0.027h0.027a1.153,1.153,0,0,0,.082.328H13.2q0.014-.26.027-0.519a1.608,1.608,0,0,0-.878-0.109,0.1,0.1,0,0,0-.055-0.027l-0.027-.082a0.3,0.3,0,0,1-.027-0.164,0.992,0.992,0,0,0-.3.109,0.385,0.385,0,0,1-.027-0.109h0.027V18.743l0.137,0.027V18.715a0.3,0.3,0,0,1-.027-0.164,0.3,0.3,0,0,1-.22-0.328,1.026,1.026,0,0,0,.055-0.437h0.192l-0.027.437,0.274-.027c0.015-.152.064-0.087,0.11-0.164,0.018-.031-0.014-0.095,0-0.137a0.912,0.912,0,0,0,.357.055v0.082L13.8,18a0.132,0.132,0,0,1,.027-0.082,1.449,1.449,0,0,0,.466,0,0.631,0.631,0,0,0,.082.164,1.843,1.843,0,0,1,.549.027h1.509V17.95a0.078,0.078,0,0,0,.027-0.027,0.094,0.094,0,0,1,.055.027,0.3,0.3,0,0,1,.027.164l0.466,0.027v0.082H16.653a1.663,1.663,0,0,0-.85.082h0.192v0.109l-0.521.027a1.914,1.914,0,0,0-.768,0,0.536,0.536,0,0,1-.247.137v0.109c0.15-.017.431-0.048,0.6-0.082a0.9,0.9,0,0,0,.082.191,1.625,1.625,0,0,1,.549.027H17.2V18.661a0.077,0.077,0,0,0,.027-0.027,0.093,0.093,0,0,1,.055.027,0.3,0.3,0,0,1,.027.164h0.466v0.109a5.1,5.1,0,0,0-1.207.055H16.6c0.128,0.075.149-.066,0.165,0.137a1.4,1.4,0,0,0-.412.027l-0.192-.027a2.466,2.466,0,0,0-.713.055H15.117a1.153,1.153,0,0,0-.3.191c-0.079-.021-0.041-0.071-0.082,0a2.987,2.987,0,0,0-.055.629H14.513v0.055H14.87a2.464,2.464,0,0,0,.658.027c0.44,0.116,1.063.083,1.536,0.191h0.329a9.258,9.258,0,0,0,2.03.137,1.242,1.242,0,0,1,.631.164c0.2,0.021.414-.167,0.6-0.137l1.1,0.328V20.6H21.674a0.132,0.132,0,0,1-.027.082c-0.01-.167-0.027-0.223-0.22-0.219V20.355c0.089-.023.042,0.013,0.082-0.055h-0.22V20.109h0.247a0.187,0.187,0,0,0-.11-0.191,0.185,0.185,0,0,1-.137.055V19.918a0.251,0.251,0,0,0,.192-0.109,0.1,0.1,0,0,0,.027-0.055H20.686a0.08,0.08,0,0,1-.11,0c0.07-.04.031,0.006,0.055-0.082H20.357V19.508H20.274V19.317h0.082V19.1c0.226,0.01.343-.02,0.576-0.027a0.132,0.132,0,0,1,.027-0.082,0.51,0.51,0,0,1,.247-0.027c0.062,0.111.054,0.114,0.274,0.109a1.307,1.307,0,0,0,.494.027h1.262a0.5,0.5,0,0,0,.027-0.164h0.11L23.4,19.18h0.055a1.476,1.476,0,0,0,.741.055v0.027H24.17c-0.053.021,0.055,0.027,0.055,0.027a2.769,2.769,0,0,1,.878,0,5.449,5.449,0,0,0,.988.027c0.6,0,1.264,0,1.866,0v0.191c-0.6,0-1.185,0-1.838,0H25.268a1.137,1.137,0,0,1-.439.082,0.132,0.132,0,0,1-.027.082V19.59a9.063,9.063,0,0,1-1.043-.027c-0.013.079-.141,0.061-0.3,0.055a0.735,0.735,0,0,1-.11.082,0.986,0.986,0,0,1,.027.41h0.165V20.3H23.347v0.082H23.155V20.3h-1.07v0.055a0.183,0.183,0,0,1,.027.109h0.357a0.269,0.269,0,0,1-.082.219c-0.023-.089.014-0.042-0.055-0.082v0.465a1.131,1.131,0,0,1,.439.082c0.021-.072.033-0.065,0.055-0.137a0.1,0.1,0,0,1,.027.055,0.416,0.416,0,0,0,.274.109,2.457,2.457,0,0,0,.384.082c0.021,0,.033-0.089.11-0.055a0.235,0.235,0,0,0,.082.082,0.193,0.193,0,0,1,.137-0.082v0.109h0.137a0.345,0.345,0,0,1,.027-0.109c0.058,0.038.09,0.134,0.137,0.164L24.5,21.394a7.474,7.474,0,0,0,1.1.191v0.246a4.978,4.978,0,0,0,1.646-.082,0.559,0.559,0,0,1,.082-0.246,3.615,3.615,0,0,0,.686,0c0.588,0,1.344.056,1.838,0l0.027,0.273c1.687,0.039,4.377.055,6.5,0.055h1.838a4.736,4.736,0,0,1,.741,0A3.452,3.452,0,0,0,40,21.886V22.6H39.479c-0.023.089,0.013,0.042-.055,0.082V22.6a0.29,0.29,0,0,0-.274.082,0.636,0.636,0,0,0-.192-0.082v0.082c-1.839-.034-3.914,0-5.844,0H30.425c-0.112.05,0.012,0.069-.11,0.055a0.055,0.055,0,0,1-.055.027,0.614,0.614,0,0,1-.055-0.082,0.865,0.865,0,0,0-.439.137H29.108c-0.6,0-1.332-.034-1.838,0a0.132,0.132,0,0,0-.027-0.082V22.706c-0.484-.028-1.343-0.028-2.03-0.027a0.132,0.132,0,0,0-.027-0.082,1.546,1.546,0,0,1-.3.055,2,2,0,0,1-.768.246l0.027,0.219a0.44,0.44,0,0,0-.11.137H23.978a0.162,0.162,0,0,0-.11-0.137,0.156,0.156,0,0,1-.137.164,0.186,0.186,0,0,0-.082-0.164v0.055a0.139,0.139,0,0,0-.027.082,0.6,0.6,0,0,1-.22-0.109,0.118,0.118,0,0,1-.11.109,0.343,0.343,0,0,0-.274-0.027v0.109a0.434,0.434,0,0,1-.137.027V23.2H22.826a0.532,0.532,0,0,0-.274-0.055,1.289,1.289,0,0,1-.494.355v0.027h0.466a2.779,2.779,0,0,1,.988-0.027,1.043,1.043,0,0,1,.768-0.109,2.361,2.361,0,0,1,.027.246c0.087,0,.494.027,0.494,0.027a0.361,0.361,0,0,1,.384-0.109,0.8,0.8,0,0,0,.192.137l1.235,0.027c0.666,0.162,1.372.373,2.03,0.492a0.619,0.619,0,0,0,.329-0.164,0.244,0.244,0,0,1,.22.082c0.075,0.019.035-.05,0.055-0.055a3.55,3.55,0,0,1,.466.055c0.023,0.089-.013.042,0.055,0.082a0.612,0.612,0,0,1,.439.027,10.2,10.2,0,0,1,1.317.273,0.139,0.139,0,0,1,.027.082,0.235,0.235,0,0,0-.027.137l0.466,0.027,0.027-.082a0.139,0.139,0,0,0,.027-0.082h0.082a4.413,4.413,0,0,0,.741.6c0.117,0.087.158,0.3,0.274,0.383a1.547,1.547,0,0,0,.274.082,3.243,3.243,0,0,1,.466.246,7.987,7.987,0,0,0,.631.519,0.986,0.986,0,0,0-.027.191,1.529,1.529,0,0,0,.658.355v0.082a0.429,0.429,0,0,0,.22.109,0.251,0.251,0,0,0,.082-0.137,0.2,0.2,0,0,0-.027-0.191H35.61a0.141,0.141,0,0,1,.082-0.027,1.665,1.665,0,0,1-.027.6,0.563,0.563,0,0,1-.631.137c0,0.165-.016.232-0.137,0.273a0.709,0.709,0,0,1-.576.055,0.189,0.189,0,0,1-.027.164l-0.082-.027a0.6,0.6,0,0,1-.3.355,0.794,0.794,0,0,1-.055.219c-0.087,0-.037-0.046-0.082.027a1.989,1.989,0,0,0-.082.246l-0.165-.027a0.093,0.093,0,0,1-.027.055,0.206,0.206,0,0,1,.055.164c-0.031.092-.031,0.091-0.137,0.109-0.045-.061-0.047-0.082-0.11-0.055a1.425,1.425,0,0,0-.055.219l-0.082.027a0.186,0.186,0,0,0-.137-0.055,0.077,0.077,0,0,1-.027.027l0.055,0.164a1.552,1.552,0,0,1-.192.055l-0.055-.109c-0.139.068-.2,0.153-0.357,0.219a0.207,0.207,0,0,1,.028.137,0.186,0.186,0,0,1-.165.082l-0.055-.109a0.519,0.519,0,0,0-.357.273c0.036,0.047.047,0.044,0.027,0.082a0.229,0.229,0,0,1-.165.082,0.118,0.118,0,0,0-.11-0.109,0.7,0.7,0,0,0-.3.273c0.036,0.047.047,0.044,0.027,0.082-0.148.142-.157-0.024-0.274,0a0.387,0.387,0,0,0-.3.246c0.036,0.047.047,0.044,0.027,0.082a0.327,0.327,0,0,1-.165.082c-0.026-.093-0.011-0.085-0.11-0.109a0.564,0.564,0,0,0-.3.273c0.036,0.048.047,0.044,0.027,0.082a0.328,0.328,0,0,1-.165.082,0.584,0.584,0,0,0-.055-0.137l-0.357.219,0.055,0.164a0.264,0.264,0,0,0-.137.082H29.575a0.584,0.584,0,0,0-.055-0.137l-0.384.219,0.055,0.164H29.136a0.2,0.2,0,0,1-.165.055,0.3,0.3,0,0,0-.055-0.137,0.81,0.81,0,0,1-.412.109v0.164a0.652,0.652,0,0,0-.22.027V31.809H27.846a0.5,0.5,0,0,0-.027.164H27.627L27.6,31.809H27.161v0.164h-0.22V31.809H26.5a0.5,0.5,0,0,0-.027.164h-0.22V31.809H25.816v0.164H25.6V31.809H25.158a0.5,0.5,0,0,0-.027.164h-0.22V31.809H24.472l-0.027.164H24.252V31.809H23.813a0.5,0.5,0,0,0-.027.164H23.594V31.809H23.155l-0.027.164H22.936V31.809H22.5v0.164h-0.22V31.809H21.866v0.055a0.184,0.184,0,0,0-.027.109H21.646V31.809H21.207v0.164H20.988V31.809H20.576a0.5,0.5,0,0,0-.027.164H20.357V31.809H19.918c-0.005.18-.006,0.171-0.22,0.164V31.809H19.287a0.5,0.5,0,0,0-.027.164H19.067V31.809H18.628l-0.027.164H18.409V31.809H17.97v0.164H17.75V31.809H17.339a0.5,0.5,0,0,0-.027.164H17.119V31.809H16.68a0.314,0.314,0,0,0,0,.164h-0.22V31.809H16.049a0.5,0.5,0,0,0-.027.164H15.83V31.809H15.391l-0.027.164H15.172V31.809H14.733v0.164h-0.22V31.809H14.1v0.055a0.184,0.184,0,0,0-.027.109H13.882V31.809H13.443v0.164h-0.22V31.809H12.812a0.5,0.5,0,0,0-.027.164H12.593V31.809H12.154v0.164H11.934V31.809H11.523a0.5,0.5,0,0,0-.027.164H11.3V31.809H10.864l-0.027.164H10.645V31.809H10.206v0.164H9.986V31.809H9.575v0.055a0.184,0.184,0,0,0-.027.109H9.355V31.809H8.916l-0.027.164H8.7V31.809H8.285a0.5,0.5,0,0,0-.027.164H8.038l0.027-.164H7.627L7.6,31.973H7.407V31.809H6.968l-0.027.164H6.749V31.809a1.675,1.675,0,0,0-.412,0,0.184,0.184,0,0,0-.055.137l-0.219-.027,0.027-.164H6.063V31.727C5.9,31.708,5.8,31.642,5.652,31.617c-0.028.087-.044,0.111-0.11,0.082-0.093-.026-0.085-0.011-0.11-0.109a0.184,0.184,0,0,0,.027-0.109c-0.145-.035-0.229-0.111-0.384-0.137-0.038.076-.039,0.109-0.11,0.082a0.592,0.592,0,0,1-.137-0.055l0.055-.164a2.365,2.365,0,0,0-.412-0.137,0.107,0.107,0,0,1-.082.109,0.318,0.318,0,0,1-.137-0.137,0.2,0.2,0,0,0,.055-0.109A2.365,2.365,0,0,0,3.9,30.8l-0.055.109A0.669,0.669,0,0,1,3.649,30.8a0.513,0.513,0,0,0,.082-0.137L3.32,30.5a0.263,0.263,0,0,1-.082.137A0.479,0.479,0,0,1,3.073,30.5a0.523,0.523,0,0,0,.082-0.109,1.156,1.156,0,0,0-.412-0.137,0.253,0.253,0,0,1-.137.082,0.325,0.325,0,0,1-.11-0.109,0.519,0.519,0,0,0,.082-0.109c-0.166-.041-0.264-0.135-0.439-0.164-0.028.087-.044,0.111-0.11,0.082-0.093-.026-0.085-0.011-0.11-0.109,0.036-.047.047-0.044,0.027-0.082a0.847,0.847,0,0,0-.412-0.191,0.364,0.364,0,0,1-.055.109,0.433,0.433,0,0,1-.192-0.164,0.192,0.192,0,0,0,.082-0.137,0.905,0.905,0,0,1-.274-0.3l-0.165.082c-0.03-.1-0.078-0.124-0.11-0.219,0.1-.032.1-0.041,0.11-0.164a0.5,0.5,0,0,0-.247-0.328,0.1,0.1,0,0,1-.055.027L0.6,28.31H0.741V27.845C0.622,27.8.6,27.8,0.6,27.626a0.1,0.1,0,0,0,.027-0.055H0.713A0.141,0.141,0,0,0,.8,27.6V27.544H0.823V27.517H0.192A0.243,0.243,0,0,0,.11,27.435v0.109A0.348,0.348,0,0,1,0,27.517a2.355,2.355,0,0,0,.027-1.011c0.142-.066.06-0.149,0.137-0.273a2.56,2.56,0,0,0,.494-0.6A0.739,0.739,0,0,0,.6,25.276c0.169-.052.176-0.181,0.165-0.41H0.741v0.027a0.705,0.705,0,0,0-.11.273H0.576V25.139a0.972,0.972,0,0,0,.192-0.656H0.96a1.056,1.056,0,0,1,.357-0.3,0.322,0.322,0,0,0,.137.055c0.037,0.082-.018.074,0.137,0.082a4.466,4.466,0,0,1,1.015-.164,1.782,1.782,0,0,1,.247-0.137V23.936H2.908c0.055-.034.144,0,0.247-0.055V23.827a3.866,3.866,0,0,0,.576,0V23.772a3.379,3.379,0,0,0,.521-0.027l0.027-.082a5.873,5.873,0,0,1,2.085-.137v0.109H5.624a0.346,0.346,0,0,1-.027.109h0.11a6.434,6.434,0,0,1,1.152.055,6.724,6.724,0,0,1,.576-0.465c-0.544-.13-1.02-0.514-1.536-0.683l-1.043.055c-0.874.046-1.8-.027-2.634-0.027A2.2,2.2,0,0,1,.85,22.488a1.494,1.494,0,0,1-.192-0.547A0.294,0.294,0,0,1,.85,21.859v0.027c-0.13.02-.136,0.046-0.137,0.191H0.768c0.136-.154.315,0.047,0.439,0.082A4.351,4.351,0,0,0,.96,21.2C0.923,21.1.936,20.88,0.905,20.847S0.8,20.812.768,20.793H0.8a0.727,0.727,0,0,1,.384-0.055,1.218,1.218,0,0,1,.713-0.711H2.03a3.1,3.1,0,0,0,.3-0.3H2.5a4.533,4.533,0,0,0,1.07.41,0.425,0.425,0,0,0,.384.027,5,5,0,0,0,.027-1.2,0.1,0.1,0,0,1-.027-0.055,0.432,0.432,0,0,1,.137-0.027v0.055c0.013,0.023-.027,1.011-0.027,1.23H4.088v0.027c0.18,0.017.242,0.046,0.439,0.055a0.621,0.621,0,0,1,.192-0.355V19.863c0.028-.027.027,0.027,0.027,0.027,0.1,0.038.092,0.1,0.192,0.137,0.013-.1.007-0.1,0.082-0.137A3.024,3.024,0,0,1,5.9,19.863V19.7H5.953c0.059-.129,0-0.757.055-0.984l0.027-7.3V9.093a2.547,2.547,0,0,1,.027-0.9l0.027,9.923c0,0.572.061,1.1,0.055,1.585H6.228v0.246H6.255c0.075-.03.068,0.055,0.192,0.027a2.427,2.427,0,0,1,1.372.109V19.973a0.3,0.3,0,0,0,.027-0.164h0.11a0.9,0.9,0,0,0,.027-0.273H8.066a4.335,4.335,0,0,1,.027-1.011c0.068-.317-0.034-0.728.027-1.011V9.148A4.486,4.486,0,0,1,8.148,8H8.176v8.939A2.132,2.132,0,0,1,8.2,17.7C8.2,18.342,8.272,18.968,8.23,19.535Zm16.845,0.137a0.1,0.1,0,0,1,.028.055H25.075V19.672ZM25.1,19.727h0.055v0.027A0.1,0.1,0,0,1,25.1,19.727Zm-0.576.027a0.231,0.231,0,0,1,.137.027A0.231,0.231,0,0,1,24.527,19.754Zm0.713,0a0.23,0.23,0,0,1,.137.027A0.23,0.23,0,0,1,25.24,19.754Zm-0.8.055a0.08,0.08,0,0,1,0,.109V19.809Zm0.96,0.109a0.175,0.175,0,0,1,.027-0.109v0.137a3.552,3.552,0,0,1-.933.027V19.918H25.4Z" transform="translate(0 0.016)"/>
</svg>
