<svg xmlns="http://www.w3.org/2000/svg" width="40" height="40" viewBox="0 0 40 40">
  <defs>
    <style>
      .cls-1 {
        fill: #fff;
        fill-rule: evenodd;
      }
    </style>
  </defs>
  <path id="us_m247_ico" class="cls-1" d="M10.126,19.639h1.586l-0.036-2.53a1.018,1.018,0,0,1-.072-0.361,0.376,0.376,0,0,1,.216-0.072,0.666,0.666,0,0,0,.324.036,1.915,1.915,0,0,0-.072-0.289c-0.111-.075-0.181-0.219-0.288-0.289-0.144-.094-0.25-0.057-0.4-0.145a7,7,0,0,0,.036-1.446,2,2,0,0,1,.829-0.108,10.35,10.35,0,0,1,.036-2.1H11.856a3,3,0,0,1,.324-1.482h0.432a0.457,0.457,0,0,1,.252-0.145,0.864,0.864,0,0,0,.54.181,2.517,2.517,0,0,1,.36,1.446H13.333a7.17,7.17,0,0,1-.036,1.88v1.771h0.144v0.145c-0.1-.012-0.075-0.038-0.144,0a1.2,1.2,0,0,0-.036.506,2,2,0,0,1,.432,0,0.391,0.391,0,0,1,.144.434,0.7,0.7,0,0,0-.036.253c0.321,0.013.559,0.172,1.009,0.181V17.47h0.036l0.144-.542h0.072v0.036H15.1l-0.216.687c-0.365-.038-0.87-0.018-0.865.434h1.513v0.072a0.671,0.671,0,0,1,.036.325h0.144V18.157a2.107,2.107,0,0,1,.829-0.072V17.8h0.072a0.915,0.915,0,0,1,.36,0,0.956,0.956,0,0,1,.252-0.506,0.625,0.625,0,0,1,.36-0.108V16.53a0.472,0.472,0,0,0,.288-0.072h1.045c0-.205-0.072-0.687-0.072-0.687a1.6,1.6,0,0,0,.18-0.4,0.174,0.174,0,0,0,.108-0.036,0.829,0.829,0,0,0,.144-0.361c-0.588-.11-0.425-0.963-0.4-1.518h0.072a0.184,0.184,0,0,1,.108-0.036V13.277h0.18v0.145h0.9V13.6H20.18c0.024-.026.128-0.049,0.144-0.072l0.036-.542a10.16,10.16,0,0,0,.324-1.048h0.18c0.266,0.472.536,0.942,0.829,1.41a2.1,2.1,0,0,1,.577,1.229,4.572,4.572,0,0,0-.4.687c-0.214.345-.47,0.7-0.685,1.048a0.752,0.752,0,0,1-.5.578,13.922,13.922,0,0,1-.36-1.518A0.48,0.48,0,0,1,20.18,15.3v0.253a8.77,8.77,0,0,1,0,1.735h0.18V17.4h0.108a1.187,1.187,0,0,0,.036.506,0.615,0.615,0,0,0,.649.145,0.129,0.129,0,0,0,.072.036l0.036,0.181h1.73a0.568,0.568,0,0,1,.288-0.036v0.217h0.288c0.03,0.117-.018.055,0.072,0.108a1.092,1.092,0,0,1,.468.108l0.288-.036,0.036,0.108c0.013,0.008.685,0.1,0.757,0.108a0.479,0.479,0,0,1,.18-0.289,0.724,0.724,0,0,1,.577.253,0.38,0.38,0,0,1-.036.289l1.838,0.434a0.236,0.236,0,0,1,.288-0.217v0.072a0.781,0.781,0,0,1,.036.217,2.329,2.329,0,0,0,.576.145c0.389,0.119.853,0.218,1.225,0.361a0.475,0.475,0,0,1,.432.578,1.35,1.35,0,0,0-.18.362,0.762,0.762,0,0,1,.18.434H30.45v0.361l8.144,0.108c0.476-.1.952-0.2,1.405-0.253v0.9a9.554,9.554,0,0,1-1.477-.253l-8.072.108a0.882,0.882,0,0,0-.072.253,3.036,3.036,0,0,1,.108.47c-0.1.051-.214,0.1-0.324,0.145L30.2,23.434H30.054l0.216,0.831a0.465,0.465,0,0,1,.252.036,0.244,0.244,0,0,1,.036.145,3.932,3.932,0,0,0-.613.687,0.849,0.849,0,0,1-.18.325,0.579,0.579,0,0,0-.18.036,1.123,1.123,0,0,0-.108-0.181,0.1,0.1,0,0,1-.036.036l-0.108.181h0.18v0.217h0.324v0.108a0.174,0.174,0,0,0-.108.036,0.573,0.573,0,0,1,.036.289c0.335,0.014.557-.116,0.9-0.108v0.072a0.245,0.245,0,0,1,.036.145,0.357,0.357,0,0,0,.216-0.072,1.749,1.749,0,0,1,.829-0.434,0.1,0.1,0,0,0,.036.036,0.552,0.552,0,0,0-.108.4h0.072a4.258,4.258,0,0,0,.9.036V26.4a1.511,1.511,0,0,0,.288.036l0.324-.181V26.108h0.252v0.542a0.656,0.656,0,0,0,.216.036,4.669,4.669,0,0,1,1.55-.036V26.506h0.4v0.361c0.311,0,.433,0,0.721,0,0.205,0.271.5,0.47,0.721,0.723,0.059,0.066.081,0.156,0.144,0.217s0.137,0.013.18,0.072a5.905,5.905,0,0,0,.4.614,1.6,1.6,0,0,1,.541.759,1,1,0,0,1-.973.217,1.647,1.647,0,0,1-.216.759l-0.216.072-0.18.506a1.627,1.627,0,0,0-.252.145,0.855,0.855,0,0,0-.072.325c-0.112.172-.383,0.251-0.5,0.434-0.063-.037-0.12-0.092-0.18-0.036l-0.108.036c0.026,0.11.059,0.137-.036,0.181a0.836,0.836,0,0,1-.541.325,0.2,0.2,0,0,0-.144,0,0.406,0.406,0,0,0,0,.181,1.162,1.162,0,0,1-.757.361,0.766,0.766,0,0,1-.468.542,0.419,0.419,0,0,0-.252,0,0.975,0.975,0,0,0-.036.217,5.146,5.146,0,0,1-.468.325,0.24,0.24,0,0,0-.18-0.036,0.576,0.576,0,0,0-.108.253l-0.4.289a0.756,0.756,0,0,1-.288,0,2.156,2.156,0,0,1-.072.217,4.3,4.3,0,0,1-2.414.4H10.45A6.537,6.537,0,0,1,8.9,34.892c-0.3-.091-0.305.1-0.613,0a1.727,1.727,0,0,1-.4-0.181,1.181,1.181,0,0,0-.144-0.253,0.431,0.431,0,0,0-.216.036,2.673,2.673,0,0,1-.468-0.361,0.553,0.553,0,0,0-.108-0.289l-0.216.036a2.189,2.189,0,0,1-.4-0.289L6.234,33.3a0.374,0.374,0,0,0-.216.036,2.425,2.425,0,0,1-.4-0.289,3.679,3.679,0,0,0-.18-0.325,1.612,1.612,0,0,1-.252,0,1.831,1.831,0,0,1-.4-0.325c-0.081-.149.052-0.142-0.108-0.217a0.539,0.539,0,0,1-.216,0,0.761,0.761,0,0,1-.432-0.542c-0.215,0-.859-0.292-0.721-0.542-0.1-.12-0.177.007-0.288-0.036l-0.216-.289H1.189a0.6,0.6,0,0,1-.468-0.036,0.886,0.886,0,0,1-.18-0.651c0.066-.045.114-0.145,0.18-0.181a0.523,0.523,0,0,0,.324-0.145,0.842,0.842,0,0,0,.432.181,0.236,0.236,0,0,0,.108-0.181l-0.973-.867a0.445,0.445,0,0,1-.108.361,0.8,0.8,0,0,0-.144-0.4v-0.8a11.323,11.323,0,0,1,0-1.916C0.431,25.811.3,25.381,0.4,25.1H0.036V24.988a0.188,0.188,0,0,0,.18-0.108,0.687,0.687,0,0,1-.18-0.289A0.141,0.141,0,0,0,.18,24.482a0.634,0.634,0,0,1-.144-0.289A0.334,0.334,0,0,0,.18,24.084,0.634,0.634,0,0,1,.036,23.8c0.04-.02.2-0.072,0.108-0.109A0.925,0.925,0,0,0,0,23.4c0.2-.067.325-0.255,0.5-0.325a2.073,2.073,0,0,1,.937.036V23.036c-0.117-.03-0.055.018-0.108-0.072H1.405a0.739,0.739,0,0,0,.432.072v0.108a0.605,0.605,0,0,0,.288.108,0.746,0.746,0,0,0,.5.072v0.108L3.315,23.47c0.064-.034-0.011-0.127.144-0.108,0.05,0.006.183,0.066,0.252,0.072,0.194,0.018.588-.1,0.649-0.072v0.072H5.982c0.029-.012.024-0.118,0.144-0.072v0.072A0.9,0.9,0,0,0,6.559,23.4H6.667l-0.036.072,0.36,0.072v0.831a0.653,0.653,0,0,1,.144.108c1.261-.058,2.407.138,3.712,0.145V24.518a1.221,1.221,0,0,1,.541.036V24.59c-0.117.03-.055-0.018-0.108,0.072h0.252c0.12,0.046.446,0,.649,0.072a6.682,6.682,0,0,0,2.018.506V25.133a0.659,0.659,0,0,0,.5-0.072c-0.618-.137-1.142-0.555-1.73-0.723H11.964c-0.791,0-1.644.02-2.378,0.036a0.513,0.513,0,0,1-.036-0.145,2.181,2.181,0,0,0,.18-0.614H9.694V23.578l-0.252-.036a0.651,0.651,0,0,1,.18-0.506c0.1-.053.172,0.048,0.252-0.072l0.108-.325H9.838A0.242,0.242,0,0,0,9.694,22.6l0.072-.47a0.415,0.415,0,0,1,.252-0.072c0.056,0.045.018,0.023,0.072,0a6.337,6.337,0,0,0,.036-1.482,5.368,5.368,0,0,0-.288-0.542,21.94,21.94,0,0,0-1.369-2.747c-0.384-.629-0.591-1.32-0.973-1.952-1.083-1.792-1.94-3.75-3.027-5.53a4.732,4.732,0,0,1-.36-0.687,0.775,0.775,0,0,0-.036-0.289c-0.356-.6-0.68-1.28-1.045-1.88L2.775,6.373A5.311,5.311,0,0,1,2.054,5H2.126V5.072A10.185,10.185,0,0,1,2.919,6.59c0.738,1.216,1.315,2.58,2.054,3.8,0.127,0.209.161,0.441,0.288,0.651,0.866,1.429,1.55,3.023,2.414,4.446,0.244,0.4.369,0.827,0.613,1.229,0.385,0.636.686,1.335,1.081,1.988a6.154,6.154,0,0,1,.685,1.157h0.072V19.639Zm2.631-9.109a0.174,0.174,0,0,1,.108.036A0.174,0.174,0,0,1,12.757,10.53Z"/>
</svg>
