<svg xmlns="http://www.w3.org/2000/svg" width="39.969" height="40" viewBox="0 0 39.969 40">
  <defs>
    <style>
      .cls-1 {
        fill: #fff;
        fill-rule: evenodd;
      }
    </style>
  </defs>
  <path id="us_mk1_grant_ico" class="cls-1" d="M14.113,12.3V12.152a0.568,0.568,0,0,0,.173-0.117,2.274,2.274,0,0,1,.26,0,1.035,1.035,0,0,1-.058-0.234H14.6V11.713c0.076,0,.433-0.029.433-0.029l0.029-.088s0.578,0.11.635,0.117a1.528,1.528,0,0,1,.058-0.439,1.362,1.362,0,0,1,.693-0.146,1.034,1.034,0,0,0,.26.556,2.9,2.9,0,0,0,.519-0.029,3.434,3.434,0,0,0,1.616-.059c0.111-.03.068,0.063,0.115,0.088a1.31,1.31,0,0,1,.548.117,0.86,0.86,0,0,1-.058.234,1.384,1.384,0,0,1,.433.088V12.3a2.253,2.253,0,0,1,.952.088,3.163,3.163,0,0,0,.462.439,0.776,0.776,0,0,0,.4-0.059l0.635,0.088a2.447,2.447,0,0,1,.548.322l0.231,0.293c0.132,0.061.321-.036,0.433,0.029,0.059,0.034.086,0.172,0.144,0.2h1.934v0.088c2.092,0,4.16.091,6.147,0.088V14.26c-1.988-.011-4.057.084-6.147,0.088v0.088H23.9v0.088h0.173v0.029H24.1v0.088h0.087a0.574,0.574,0,0,1,.058.264,0.59,0.59,0,0,1-.144.059,1.881,1.881,0,0,1-.087.351c0.029,0.395.435,0.291,0.144,0.878-0.11.015-.121,0.041-0.231,0.059v0.117h0.721V16.28h0.26V16.4h0.2V15.87a1.129,1.129,0,0,1,1.27-.029V16.4a2.061,2.061,0,0,1,.26.059V16.338h0.231a0.143,0.143,0,0,0,.029.088,5.927,5.927,0,0,0,1.27.088,5.819,5.819,0,0,0,1.414.176l0.029,0.234c0.234,0.133.521,0.143,0.52,0.527-0.073.043-.045,0.013-0.058,0.117H29.928l-0.029.088a0.392,0.392,0,0,0-.029.205,7.99,7.99,0,0,0,1.039,1.054,5.009,5.009,0,0,0,.635.146,23.734,23.734,0,0,0,5.83.381V19.178h0.837v0.263h0.115v0.82H38.211v0.264H37.374V20.261l-3.03.059-1.732.029c-0.03.015-.048,0.1-0.087,0.117a1.636,1.636,0,0,0-.895.468,0.283,0.283,0,0,1,.087.059,0.429,0.429,0,0,1,.2-0.029,0.968,0.968,0,0,0,.26.381,1.905,1.905,0,0,0,.289.029,0.527,0.527,0,0,0,.029.176,0.825,0.825,0,0,0,.52.234,0.525,0.525,0,0,0,.029.176c0.052,0.055.122,0.091,0.173,0.146a1.025,1.025,0,0,1,.2-0.029,0.142,0.142,0,0,0,.029.088,4.362,4.362,0,0,0,1.1.439,0.876,0.876,0,0,1,.433-0.468,0.192,0.192,0,0,1,.115-0.029,0.5,0.5,0,0,0,.52.527V22.9H35.44v0.029a2.461,2.461,0,0,0,.144.293h0.837a2.054,2.054,0,0,1-.029.41h1.1l0.722,0.2a0.853,0.853,0,0,1,.058.117,2.413,2.413,0,0,0,.26.117c0.161,0.116.274,0.319,0.433,0.439a10.9,10.9,0,0,1,1.01.82c0,0.5,0,1.044-.029,1.493H39.134a2.854,2.854,0,0,1-.462,1.522,3.951,3.951,0,0,1-.4.293l-0.029.146c-0.014.017-.667,0.486-0.693,0.5H37.374c-0.061.036-.082,0.187-0.144,0.234a5.786,5.786,0,0,1-.577.41,0.336,0.336,0,0,0-.2.029l-0.029.146c-0.031.037-.643,0.474-0.693,0.5H35.584c-0.06.033-.2,0.26-0.289,0.322a4.731,4.731,0,0,1-.4.293H34.719a0.751,0.751,0,0,0-.087.176,3.8,3.8,0,0,1-.548.41,0.755,0.755,0,0,1-.318-0.029c-0.042.011-.075,0.1-0.115,0.117a2.451,2.451,0,0,1-.779.059l-0.058-.088a0.643,0.643,0,0,0-.289.088,3.08,3.08,0,0,1-.895-0.088,1.385,1.385,0,0,1-.924.029c-0.023-.008-0.6.059-0.75,0.059s-0.415-.082-0.491-0.059a1.8,1.8,0,0,1-.924,0s-0.659.059-.808,0.059a1.024,1.024,0,0,0-.433,0H26.465a0.145,0.145,0,0,0-.144-0.059l-0.058.059c-0.316.1-.872-0.068-1.068,0a9.54,9.54,0,0,1-1.068,0,9.172,9.172,0,0,1-1.068,0,5.337,5.337,0,0,1-.952-0.059,1.809,1.809,0,0,1-.924,0s-0.611.059-.75,0.059a0.969,0.969,0,0,0-.433,0,9.173,9.173,0,0,1-1.068,0,5.346,5.346,0,0,1-.952-0.059l-0.029.059H17.056a0.138,0.138,0,0,0-.144-0.059,1.731,1.731,0,0,1-.895,0c-0.021-.007-0.649.059-0.808,0.059a1.333,1.333,0,0,0-.462,0H13.939a0.139,0.139,0,0,0-.173-0.059l-0.029.059H12.9a0.1,0.1,0,0,0-.144-0.059l-0.029.059H11.919a0.139,0.139,0,0,0-.173-0.059l-0.029.059a1.914,1.914,0,0,1-.952-0.088,1.464,1.464,0,0,1-.837.088c-0.052-.021-0.031-0.11-0.144-0.088a0.853,0.853,0,0,0-.087.088H8.889l-0.058-.088c-0.125-.039-0.123.119-0.289,0.088a2.373,2.373,0,0,1-.664-0.088L7.85,31.766,7.561,31.8a3.075,3.075,0,0,1-.577-0.176,0.8,0.8,0,0,0-.289-0.2,3.214,3.214,0,0,1-.808-0.322L5.8,30.946l-0.289-.029a5.8,5.8,0,0,1-.664-0.322l-0.087-.146a0.63,0.63,0,0,0-.231,0,5.382,5.382,0,0,1-.491-0.234C3.918,30.16,3.8,29.982,3.723,29.951a0.254,0.254,0,0,0-.173.029A6.281,6.281,0,0,1,2.771,29.6l-0.087-.146-0.173.029a3.613,3.613,0,0,1-.693-0.439,1.049,1.049,0,0,0-.029-0.176,1.868,1.868,0,0,1-.4-0.293A3.39,3.39,0,0,1,1.1,28.019a0.677,0.677,0,0,0,.029-0.234c-0.013-.032-0.1-0.075-0.115-0.117a1.606,1.606,0,0,1,0-.878H0.895A2.426,2.426,0,0,1,0,26.819V26.789a4.048,4.048,0,0,0,.433-1.054,7.858,7.858,0,0,1,.491-1.054,5.148,5.148,0,0,1,.664-0.5,1.778,1.778,0,0,1,.433-0.351V23.745l-1.01.234a0.443,0.443,0,0,1-.058-0.117,2.783,2.783,0,0,1-.173-0.7A6.63,6.63,0,0,1,.4,21.579c0.123-.066.188-0.167,0.317-0.234V21.315c-0.13,0-.133.009-0.173-0.088a0.267,0.267,0,0,0,.115-0.088C0.725,21.191.706,21.2,0.75,21.2a0.393,0.393,0,0,0,.231-0.176,0.912,0.912,0,0,1,.144-0.468,1.794,1.794,0,0,0,.895-0.293,0.163,0.163,0,0,1,0-.117A0.185,0.185,0,0,1,1.9,20.115l0.375-.029a3.421,3.421,0,0,0,.4-0.146H3l0.75-.146A0.459,0.459,0,0,1,3.81,19.7c0.11-.047.113,0.037,0.173-0.058a1.146,1.146,0,0,1-.115-0.2,0.931,0.931,0,0,0,.058-0.849c-0.022-.064-0.16-0.208-0.173-0.264s0.077-.178.087-0.263l1.1-.117V17.861l0.4-.059v0.117H5.4A3.066,3.066,0,0,1,6.2,17.8a13.627,13.627,0,0,1,2.165-.322V17.363a0.838,0.838,0,0,0,.4-0.059v0.117a2.632,2.632,0,0,1,1.414-.059,1.468,1.468,0,0,0,.029,1.142H10.3a3.716,3.716,0,0,0-.058.468h0.029V19c0.129-.032.258-0.112,0.375-0.146a2.64,2.64,0,0,1,.75-0.029c0.043,0,.162-0.1.231-0.117V18.8c-0.079.047-.028,0-0.029,0.117a0.5,0.5,0,0,0,.548-0.146,1,1,0,0,1-.058-0.263l-0.115-.029V18.036a1.772,1.772,0,0,0,.087-0.878,0.377,0.377,0,0,1,.231-0.059,0.308,0.308,0,0,0,.173.029V17.012h0.173V16.865a0.551,0.551,0,0,0,.289-0.585c-0.448-.279-1.642-0.331-1.9-0.732a3.1,3.1,0,0,1-.115-1.347,1.164,1.164,0,0,1,.26-1.054l0.375-.088c0.456-.15.967-0.3,1.414-0.468a1.456,1.456,0,0,0,.375-0.117c0.305-.329.057-0.942,0.173-1.493a4.3,4.3,0,0,0,0-.849V8.025A4.1,4.1,0,0,1,13.535,7h0.029V8.552a4.308,4.308,0,0,1,.029,1.083,14.265,14.265,0,0,0,.087,2.722H13.8A0.484,0.484,0,0,1,14.113,12.3ZM1.76,20.144a0.138,0.138,0,0,1,.087.029A0.138,0.138,0,0,1,1.76,20.144Z" transform="translate(0 0.516)"/>
</svg>
