<?xml version="1.0" encoding="utf-8"?>
<!-- Generator: Adobe Illustrator 16.0.0, SVG Export Plug-In . SVG Version: 6.00 Build 0)  -->
<!DOCTYPE svg PUBLIC "-//W3C//DTD SVG 1.1//EN" "http://www.w3.org/Graphics/SVG/1.1/DTD/svg11.dtd">
<svg version="1.1" id="Layer_1" xmlns="http://www.w3.org/2000/svg" xmlns:xlink="http://www.w3.org/1999/xlink" x="0px" y="0px"
	 width="40px" height="40px" viewBox="0 0 40 40" enable-background="new 0 0 40 40" xml:space="preserve">
<path id="us_m1_ip_abrams_ico" fill="#FFFFFF" d="M11.69,15.808v-0.59c0.099-0.017,0.2-0.027,0.3-0.03
	c0.112,0.028,0.2,0.147,0.335,0.187v0.03c-0.033,0-0.065,0.011-0.091,0.031c-0.011,0.058,0.014,0.058-0.122,0.062v-0.031
	c-0.031-0.03-0.03,0.03-0.03,0.031c-0.036,0.11-0.046,0.227-0.03,0.342h0.061c0.172,0.023,0.345,0.034,0.518,0.03
	c0.123-0.122,0.217-0.271,0.274-0.434c-0.01,0.073,0,0.148,0.03,0.217v-0.031c0.029-0.063,0.087-0.108,0.155-0.122
	c-0.009-0.125,0.001-0.25,0.03-0.371c0.089,0.024,0.182,0.035,0.274,0.03c0.062-0.136,0.145-0.261,0.244-0.372
	c-0.051-0.033-0.075-0.096-0.061-0.154c0.1-0.026,0.046,0.015,0.091-0.063c0.01-0.059-0.022-0.039,0.061-0.063
	c0.039,0.078-0.013,0.021,0.061,0.063v-0.094h0.091c0-0.033,0.01-0.066,0.03-0.094c0.32,0.122,0.672,0.133,1,0.031
	c0.207-0.007,0.414,0.024,0.609,0.094v-0.063c0.051-0.06,0.074-0.139,0.061-0.217c0.173,0,0.347-0.009,0.519-0.028v-0.22h0.122
	c0.025,0.1-0.015,0.047,0.061,0.093c0.087-0.089,0.214-0.124,0.335-0.093c0-0.034,0.01-0.066,0.03-0.093
	c0.067-0.029,0.141-0.04,0.213-0.031c0.007,0.013,0.018,0.023,0.03,0.031v0.093h1.766c0.018-0.05,0.028-0.102,0.03-0.155h0.091
	v0.218c0.147,0.049,0.302,0.069,0.457,0.062c0.083,0.03,0.4-0.04,0.578,0c1,0.13,2.009,0.161,3.014,0.093v0.155
	c-0.653-0.009-2.458-0.121-2.618,0.217h0.03c0.082,0.004,0.163,0.015,0.244,0.031c-0.048,0.024-0.082,0.07-0.091,0.124h0.183
	c-0.001-0.033,0.01-0.066,0.03-0.094v0.125h-0.03v0.03h-0.362v0.063h-1.491v0.217h-0.609V14.91c-0.32-0.068-0.648-0.089-0.974-0.062
	c-0.053-0.041-0.049-0.054-0.091-0.031c-0.264,0.146-0.51,0.321-0.731,0.526c0.024,0.086,0.055,0.168,0.091,0.248
	c0.083,0.053,0.176,0.084,0.274,0.094c-0.004-0.044,0.006-0.088,0.03-0.124v0.31c0.195,0.012,0.2,0.079,0.4,0.094
	c0-0.107,0.087-0.193,0.193-0.193c0.017,0,0.034,0.002,0.051,0.007c0.017,0.017,0.038,0.027,0.061,0.031l0.083,0.247
	c0.216-0.112,0.659,0.089,0.852,0c0.094-0.186,0.156-0.384,0.183-0.59c0.152,0.012,0.303-0.032,0.426-0.123h1.613v0.062
	c-0.043-0.003-0.086,0.008-0.122,0.031h0.03c0.329,0.071,0.665,0.103,1,0.093v0.031c-0.061,0.253-0.081,0.514-0.062,0.773
	c0.599-0.012,1.194,0.072,1.767,0.248c0.614-0.039,1.231,0.024,1.826,0.187c0.427,0.005,0.854-0.016,1.278-0.062v0.062
	c-0.247-0.003-0.493,0.028-0.731,0.093v0.063c0.092,0.087,0.165,0.192,0.213,0.31c0.718,0,1.494,0.03,2.254,0.031v0.372h0.883
	c0.063-0.256,0.283-0.187,0.578-0.187h1.582c0.02,0.05,0.029,0.103,0.031,0.155c0.214-0.002,0.428,0.02,0.639,0.063h2.557
	c1.678,0,3.458-0.086,5.084,0.03V17.6c-0.047-0.007-0.09-0.028-0.122-0.063c0.257,0,0.522-0.015,0.7,0v0.093
	c-0.042,0.004-0.084,0.015-0.122,0.031V17.7H40v0.651h-0.243v0.093h-0.243v-0.096c-4.527,0.069-9.035,0.122-13.517,0.124
	c-0.058,0.181-0.129,0.356-0.213,0.527c-0.321,0.024-0.638,0.087-0.944,0.186h-0.548c-0.156,0.063-0.31,0.136-0.457,0.217
	c0.017,0.017,0.038,0.027,0.062,0.031c0.035,0.023,0.078,0.033,0.121,0.031l-0.029,0.186h0.029c0.101-0.057,0.35-0.035,0.518-0.093
	v-0.095c0.3,0,0.441-0.06,0.761-0.062l0.03,0.062c-0.004,0.115,0.006,0.229,0.029,0.342v-0.031c0.02-0.027,0.03-0.06,0.03-0.093
	c0.101,0.026,0.046-0.015,0.091,0.062l-0.029,0.031h0.063c0.077-0.031,0.162-0.043,0.244-0.031c0.008,0.013,0.018,0.023,0.03,0.031
	c-0.01,0.062-0.01,0.124,0,0.186c0.234,0.15,0.517,0.205,0.791,0.155c0.03-0.05,0.028-0.2,0.061-0.248
	c0.13-0.04,0.267-0.051,0.4-0.03c0.017,0.016,0.038,0.027,0.062,0.03c-0.012,0.084-0.002,0.169,0.029,0.248
	c0.363,0.059,0.733,0.069,1.1,0.031c0.135-0.089,0.299-0.122,0.457-0.093c0.116,0.013,0.229,0.044,0.336,0.093h0.631
	c0.424-0.024,0.849,0.038,1.248,0.187c0.183,0.137,0.413,0.193,0.639,0.154c0.017-0.028,0.027-0.061,0.029-0.093
	c0.214,0.001,0.428-0.009,0.64-0.031c0.019,0.05,0.028,0.103,0.03,0.156c0.129-0.022,0.25,0.065,0.271,0.194
	c0.002,0.018,0.004,0.036,0.002,0.054c-0.002,0.223,0.039,0.443,0.122,0.65h-0.09c-0.043-0.152-0.104-0.298-0.183-0.435
	c-0.076,0.142-0.179,0.267-0.301,0.372c0.096,0.172,0.158,0.361,0.184,0.557c-0.037,0.027-0.078,0.049-0.122,0.063
	c-0.021-0.164-0.095-0.316-0.213-0.434c-0.087,0.26-0.4,0.408-0.487,0.65v0.373c-0.029,0.176-0.092,0.346-0.184,0.5
	c-0.016-0.018-0.037-0.027-0.061-0.031c-0.039,0.285-0.208,0.537-0.457,0.682v0.248c0.059,0.021,0.121,0.031,0.184,0.031
	c0.036-0.023,0.078-0.035,0.121-0.031v0.125h-0.064c-0.107,0.039-0.227,0.039-0.335,0l-0.151-0.248
	c-0.177,0.174-0.426,0.254-0.671,0.217c0.017,0.039,0.026,0.08,0.03,0.123l-0.7,0.311c-0.003-0.039-0.026-0.074-0.062-0.094
	c-0.15,0.273-0.449,0.43-0.76,0.4c0,0.1,0.051,0.043-0.03,0.094c-0.156,0.141-0.429,0.162-0.578,0.309
	c-0.08-0.023-0.073-0.037-0.152-0.061c0,0.09,0.029,0.043,0,0.092c-0.207,0.143-0.433,0.258-0.67,0.342v-0.098
	c-0.1,0.027-0.047-0.014-0.091,0.063c0.038,0.049,0.02,0.016,0,0.063c-0.209,0.131-0.434,0.236-0.67,0.309
	c-0.027-0.1-0.034-0.086-0.061-0.092c-0.023,0.037-0.033,0.08-0.031,0.123c-0.6,0.041-0.94,0.037-1.582,0.031
	c-0.025-0.1,0.015-0.047-0.062-0.092v0.092h-0.731c-0.024-0.1,0.016-0.047-0.061-0.092v0.092h-0.761
	c-0.024-0.1,0.015-0.047-0.062-0.092v0.092H22.04v-0.092h-0.092v0.092h-0.73c-0.024-0.1,0.015-0.047-0.061-0.092v0.092h-0.731
	v-0.092h-0.091v0.092H19.6c-0.025-0.1,0.015-0.047-0.061-0.092v0.092h-0.726c-0.025-0.1,0.015-0.047-0.061-0.092v0.092h-0.761
	c-0.025-0.1,0.015-0.047-0.061-0.092v0.092H17.2c-0.025-0.1,0.015-0.047-0.061-0.092v0.092h-0.761
	c-0.025-0.1,0.015-0.047-0.061-0.092v0.092h-0.731c-0.025-0.1,0.015-0.047-0.061-0.092v0.092h-0.761
	c-0.025-0.1,0.015-0.047-0.061-0.092v0.092h-0.73c-0.025-0.1,0.015-0.047-0.061-0.092v0.092h-0.761
	c-0.025-0.1,0.015-0.047-0.061-0.092v0.092h-0.731c-0.025-0.1,0.015-0.047-0.061-0.092v0.092h-0.73v-0.092h-0.092v0.092h-0.73
	c-0.025-0.1,0.015-0.047-0.061-0.092v0.092H9.954v-0.092H9.863v0.092H9.132c-0.025-0.1,0.015-0.047-0.061-0.092v0.092h-0.76
	c-0.025-0.1,0.015-0.047-0.061-0.092v0.092H7.519c-0.025-0.1,0.015-0.047-0.061-0.092v0.092H6.7c-0.025-0.1,0.015-0.047-0.061-0.092
	v0.092H5.906v-0.123H5.814v0.123H5.753c-0.269-0.049-0.52-0.168-0.731-0.34c0.025-0.016,0.046-0.037,0.061-0.063h-0.03v-0.031
	C4.98,25.57,5,25.6,4.932,25.566c-0.185-0.107-0.358-0.232-0.518-0.373c-0.081-0.125,0.094-0.059-0.03-0.154
	c0,0-0.04,0.09-0.061,0.063V25.07c-0.235-0.111-0.427-0.297-0.548-0.525c-0.045,0.051-0.022,0.031-0.061,0.029
	c-0.225-0.096-0.415-0.258-0.548-0.465c0.025-0.016,0.046-0.037,0.061-0.061H3.2v-0.031c-0.044,0.033-0.097,0.055-0.152,0.061
	c-0.131-0.193-0.385-0.271-0.518-0.465c0.034-0.018,0.057-0.053,0.061-0.092H2.527c-0.018,0.033-0.052,0.057-0.091,0.063
	c-0.095-0.1-0.195-0.191-0.3-0.279C2.071,23.176,2,23.053,1.923,22.932c0.032-0.029,0.063-0.061,0.091-0.092H1.979v-0.031
	c-0.108,0-0.153-0.027-0.335-0.031c0.002,0.146-0.082,0.279-0.213,0.342c-0.097,0.037-0.204,0.037-0.3,0L1.1,23.025
	C1.138,23.012,1.178,23.004,1.218,23c0.046,0.025,0.1,0.037,0.152,0.031l0.03-0.094c0.01-0.107-0.036-0.213-0.122-0.279
	c-0.215,0.537-0.872,0.451-0.791-0.248c0.059-0.037,0.1-0.125,0.152-0.154c0.114-0.033,0.226-0.074,0.335-0.123V22.1H0.822
	c-0.026-0.02-0.059-0.029-0.091-0.031v-0.096H0.183c-0.022-0.07-0.032-0.143-0.03-0.217c-0.019-0.027-0.03-0.059-0.03-0.094H0V21.6
	c0.1-0.059,0.1-0.111,0.091-0.278H0v-0.185h0.091c-0.01-0.107,0-0.045-0.061-0.094c0.085-0.095,0.092-0.067,0-0.154
	c0.08-0.101,0.039-0.069,0-0.187c0.075-0.04,0.021,0.013,0.061-0.062c-0.023-0.003-0.044-0.014-0.061-0.03
	c0.075-0.04,0.021,0.013,0.061-0.062c-0.1-0.026-0.047,0.015-0.091-0.063c0.02-0.123,0.02-0.248,0-0.372h0.091
	c-0.011-0.123-0.082-0.067,0-0.124c0.057-0.104,0.079-0.224,0.061-0.341c0.053-0.073,0.084-0.159,0.092-0.249
	c-0.07-0.053-0.132-0.115-0.183-0.186c-0.003-0.125,0.007-0.25,0.03-0.373c0.082-0.1,0.206-0.157,0.335-0.154
	c0.203,0.021,0.407,0.021,0.609,0v-0.061h0.183l0.03-0.093C1.629,18.473,2.016,18.462,2.4,18.5c0.051,0.029,0.094,0.072,0.122,0.125
	h0.339c1.356,0,2.652,0,4.11,0c0.568,0,1.27,0.01,1.826,0.062c0.214,0.046,0.438,0.024,0.639-0.062H9.224
	c-0.209-0.053-0.423-0.084-0.639-0.094c-0.054-0.037-0.104-0.079-0.152-0.124L8.25,18.438c-0.097-0.087-0.188-0.181-0.274-0.279
	c0.03-0.046,0.041-0.101,0.03-0.155c-0.053-0.11-0.154-0.189-0.274-0.217c-0.058,0.078-0.109,0.161-0.152,0.248
	c-0.854,0.053-1.71,0.021-2.557-0.093c-0.063-0.618-0.073-1.239-0.03-1.858c0.475,0.056,0.953,0.076,1.431,0.062
	c0.008-0.075,0.029-0.148,0.061-0.218c0.059-0.019,0.12-0.028,0.182-0.027c0-0.172-0.04-0.658-0.03-0.682H6.7
	C6.7,15.2,6.728,15.1,6.728,15.1v-0.5c0-0.456-0.016-0.927,0-1.3h0.365c0,0.778,0.046,1.579,0.03,2.261
	c0.14-0.045,0.294-0.009,0.4,0.093c0.006,0.063,0.006,0.124,0,0.186c0.083-0.012,0.165-0.031,0.244-0.062
	C7.819,15.522,7.838,15.26,7.823,15c0.143-1.119,0.173-2.251,0.091-3.376V1h0.062v13.693c0.078,0.367,0.12,0.74,0.124,1.115
	c0.085-0.001,0.169,0.02,0.244,0.062c0.289-0.071,0.59-0.082,0.883-0.03C10.048,15.885,10.871,15.875,11.69,15.808z M0.03,21.725
	h0.061v0.031C0.067,21.754,0.046,21.742,0.03,21.725z"/>
</svg>
