<?xml version="1.0" encoding="utf-8"?>
<!-- Generator: Adobe Illustrator 16.0.0, SVG Export Plug-In . SVG Version: 6.00 Build 0)  -->
<!DOCTYPE svg PUBLIC "-//W3C//DTD SVG 1.1//EN" "http://www.w3.org/Graphics/SVG/1.1/DTD/svg11.dtd">
<svg version="1.1" id="Layer_1" xmlns="http://www.w3.org/2000/svg" xmlns:xlink="http://www.w3.org/1999/xlink" x="0px" y="0px"
	 width="40px" height="40px" viewBox="0 0 40 40" enable-background="new 0 0 40 40" xml:space="preserve">
<path id="Color_Fill_1" fill="#FFFFFF" d="M4.644,15.461h0.1v0.025h0.023c0.004,0.084,0.021,0.168,0.049,0.249H4.742v0.125h0.147
	v0.101h0.05c-0.009-0.144,0.008-0.286,0.049-0.424c-0.054-0.003-0.096-0.046-0.1-0.1h0.026c0.036-0.063-0.005-0.028,0.074-0.05
	c0.06-0.9,0.074-2,0.074-3.016v-1.445c0.032-0.273,0.041-0.55,0.024-0.825V3.548h0.049v7.377c0.055,0.398,0.063,0.801,0.025,1.2
	v2.766c0.046,0.187,0.063,0.38,0.049,0.573h1.843c0.307-0.073,0.666-0.153,0.983-0.224c0.074-0.006,0.149,0.002,0.221,0.025
	l0.295-0.05v-0.05c-0.026-0.056-0.043-0.116-0.051-0.177c0.268-0.03,0.493-0.133,0.786-0.149c-0.003,0.066,0.024,0.13,0.074,0.174
	c0.103-0.034,0.212-0.043,0.319-0.025c0.425-0.028,0.852-0.028,1.278,0v-0.075l-0.86-0.05c-0.086-0.044-0.176-0.078-0.27-0.1
	c-0.008-0.06,0.001-0.12,0.025-0.174H9.8c-0.025-0.005-0.05-0.013-0.074-0.025c-0.021-0.039-0.021-0.086,0-0.125
	c-0.117-0.038-0.221-0.121-0.344-0.174c0.005-0.094-0.011-0.188-0.049-0.274c-0.08-0.072-0.171-0.132-0.27-0.175
	c-0.197-0.178-0.411-0.336-0.639-0.473c-0.292-0.1-1.021,0.1-1.13-0.125c0.07,0,0.138-0.018,0.2-0.05
	c-0.12-0.107-0.252-0.199-0.394-0.274c-0.038-0.021-0.081-0.029-0.123-0.025c0.01,0.056,0.023,0.027,0,0.075
	c-0.033-0.052-0.124-0.081-0.147-0.125s0.047-0.041,0.049-0.05c0.024-0.151,0.008-0.307-0.049-0.449
	c0.091-0.049,0.192-0.074,0.295-0.075c0.063-0.026,0.132-0.035,0.2-0.025V12.2H7.3c-0.047-0.019,0.049-0.025,0.049-0.025
	c0.173,0.041,0.354,0.023,0.516-0.05c-0.026-0.023-0.051-0.048-0.074-0.075h0.022v-0.028c0.181-0.083,0.354-0.184,0.516-0.3h0.295
	c0.239,0.026,0.479-0.046,0.663-0.2c0.432,0.117,0.333,0.593,0.737,0.6v-0.1h0.024V12c0.075-0.012,0.148-0.028,0.221-0.05
	c-0.022-0.107-0.022-0.217,0-0.324c-0.025-0.001-0.049-0.01-0.069-0.026c0.105-0.236,0.122-0.501,0.049-0.748h0.049
	c0.105-0.058,0.237-0.038,0.319,0.05c-0.071,0.239-0.054,0.496,0.049,0.723c-0.027,0-0.053,0.008-0.074,0.025
	c0.021,0.09,0.021,0.184,0,0.274h0.049c0.147-0.085,0.304-0.152,0.467-0.2c0.305-0.222,0.659-0.367,1.032-0.424v0.025
	c-0.019,0.002-0.036,0.011-0.049,0.025c0.106,0.011,0.204,0.065,0.27,0.149h0.467c-0.008-0.073,0.033-0.144,0.1-0.174
	c0.152-0.043,0.314-0.043,0.467,0c0.006,0.06,0.023,0.119,0.049,0.174c0.167-0.15,0.394-0.215,0.614-0.174
	c0.043,0.037,0.059,0.147,0.1,0.174h0.786V11.4h0.1c0.015-0.04,0.023-0.082,0.025-0.125c-0.032-0.014-0.018,0-0.025-0.025
	c0.411-0.038,0.826-0.013,1.229,0.075v-0.05c-0.035,0.003-0.07-0.005-0.1-0.025c0.191-0.006,0.38-0.009,0.565,0
	c0.021-0.06,0.046-0.118,0.074-0.174v0.149c-0.02,0.013-0.037,0.03-0.049,0.05c0.061,0.032,0.017-0.011,0.049,0.05h0.025
	c0.01-0.089-0.012-0.063,0.049-0.1v0.1c-0.021,0.022-0.037,0.047-0.049,0.075H16.9c0,0.027,0.008,0.053,0.024,0.075V11.4h0.1
	c0.003,0.035,0.011,0.068,0.025,0.1H17.1v-0.375c-0.027,0-0.053,0.008-0.074,0.025c0.068,0.028,0.013,0.126,0,0.224h-0.1
	c0.007-0.049,0.007-0.1,0-0.149c0.036,0.003,0.071-0.006,0.1-0.025c-0.08-0.021-0.038,0.012-0.074-0.05
	c0.029-0.039,0.054-0.081,0.074-0.125c0.022,0.021,0.047,0.038,0.074,0.05c-0.021-0.031-0.038-0.064-0.049-0.1
	c0.051-0.063,0.069-0.146,0.049-0.224c-0.073,0.004-0.143,0.03-0.2,0.075c-0.017,0.079-0.072,0.145-0.147,0.175l-0.025-0.075
	c0.037-0.052,0.062-0.111,0.074-0.174c0.223-0.146,0.521-0.083,0.667,0.139c0.007,0.011,0.014,0.023,0.021,0.035
	c0.025-0.029,0.061-0.047,0.1-0.05V10.9h-0.022c-0.047,0.019,0.049,0.025,0.049,0.025V10.9c0.025-0.025,0.024,0.025,0.025,0.025
	c0.03,0.044,0,0.044,0.024,0.075c0.046-0.044,0.02-0.046,0.074-0.025c0.054,0.021-0.011,0.041,0.1,0.05V11.1
	c0.1,0.012,0,0.047,0.123,0.075c-0.003,0.035-0.011,0.068-0.025,0.1c0.092,0.016,0.167,0.239,0.295,0.3h1.056
	c0.955,0.185,1.932,0.235,2.9,0.149v0.125c-0.381,0-0.748-0.029-1.155,0V11.9c0.151-0.006,0.147-0.046,0.147,0.125H21.13
	c-0.244-0.034-0.491-0.042-0.737-0.025v0.174c-0.058,0.059-0.14,0.087-0.221,0.075c-0.09-0.005-0.18-0.005-0.27,0v0.075h-0.148
	c0,0.2-0.037,0.32-0.025,0.473h0.91c0.068,0.154,0.223,0.252,0.393,0.249c0.215,0.063,0.441,0.08,0.662,0.05h1.523
	c1.86,0,3.932,0.053,5.627,0.05c0.051,0.109,0.076,0.229,0.074,0.349c-0.119,0.066-0.258,0.092-0.393,0.075
	c-0.195-0.042-0.396-0.042-0.59,0c-0.556,0.061-1.115,0.069-1.672,0.025l-5.135,0.05c-0.132,0.005-0.26,0.049-0.367,0.125
	c-0.024,0.056-0.059,0.106-0.101,0.149c-0.333,0.052-0.672,0.061-1.007,0.025v0.025h-0.023c0.008,0.1,0.008,0.2,0,0.3l-0.123-0.025
	c-0.046,0.119-0.114,0.229-0.2,0.324c-0.013,0.044,0.03,0.177,0.025,0.224c-0.073,0.02-0.141,0.053-0.2,0.1h-0.017v0.025h0.294
	c0.111,0.033,0.229,0.042,0.344,0.025v0.224h0.025v0.025c0.06,0.007,0.118,0.024,0.172,0.05v-0.328h0.564v0.5l1.131,0.025
	c0.068,0.261,0.248,0.481,0.49,0.6l-0.025-0.05c0.159-0.109,0.333-0.193,0.517-0.249c0.1,0.052,0.208,0.085,0.319,0.1
	c0.035,0.096,0.045,0.2,0.025,0.3h0.073c0-0.027,0.009-0.053,0.024-0.074c0.414-0.166,0.867-0.201,1.301-0.101
	c0.324,0.075,0.711-0.081,1.081,0c0.276,0.034,0.556,0.042,0.835,0.025h1.671V15.76c0.489-0.065,0.983-0.074,1.474-0.025v0.35H30.2
	c0.061,0.167,0.086,0.346,0.073,0.523h-0.027v0.024h-0.025v-0.224c0.033-0.08,0.033-0.17,0-0.249
	c-0.078,0.018-0.143,0.073-0.172,0.149c0.063,0.035,0.028-0.006,0.049,0.074h0.074v0.174H30.1c-0.01,0.068-0.026,0.135-0.049,0.2
	h0.025c0.041-0.05,0.091-0.092,0.146-0.125v0.05c-0.053,0.041-0.11,0.074-0.172,0.101v0.024c0.117-0.004,0.233,0.013,0.344,0.051
	c-0.059,0.097-0.084,0.211-0.074,0.324h0.05c0.085,0.008,0.171-0.01,0.246-0.051c0.06,0.027,0.11,0.07,0.147,0.125
	c0.119-0.07,0.262-0.088,0.394-0.05c0.081,0.077,0.11,0.194,0.073,0.3c0.419,0.072,0.83,0.181,1.229,0.324V17.5
	c0.017-0.021,0.024-0.048,0.024-0.075c0.225,0.038,0.441,0.113,0.64,0.224c0.356,0.149,0.7,0.201,1.058,0.35
	c0.219,0.113,0.449,0.205,0.688,0.273c0.067-0.012,0.135-0.028,0.199-0.049h0.361c0.191-0.062,0.395-0.07,0.59-0.025v-0.069h0.172
	v0.125h0.025v0.024c0.139,0,0.15,0.045,0.319,0.051v-0.1c0.18-0.012,0.333-0.021,0.368,0.125c-0.053,0.013-0.098,0.049-0.122,0.1
	h0.147v0.074l0.344,0.101L37.42,18.8V19c0.131-0.016,0.265-0.007,0.393,0.025V19h-0.023c-0.047-0.02,0.049-0.025,0.049-0.025
	c0.101,0.07,0.191,0.154,0.27,0.25c0.063,0.086,0.039,0.254,0.101,0.349c0.12,0.091,0.315,0.09,0.442,0.174
	c0.231,0.181,0.432,0.399,0.59,0.647h-0.026c-0.024-0.041-0.06-0.074-0.101-0.1v0.025c0.195,0.209,0.346,0.454,0.443,0.723
	c-0.021,0.013-0.037,0.029-0.05,0.05h0.173c0.013-0.013,0.029-0.022,0.049-0.024v-0.074c-0.029-0.011-0.054-0.028-0.074-0.051
	l0.025-0.049c0.021,0.018,0.027,0.03,0.049,0.049c0.002-0.033,0.011-0.067,0.024-0.1c0.026,0.023,0.051,0.049,0.074,0.075v-0.075
	H39.8v-0.025c-0.063,0-0.208,0.007-0.221,0c-0.132-0.125-0.248-0.268-0.345-0.424h0.025c0.094,0.137,0.21,0.254,0.344,0.35
	c0.091,0.004,0.182,0.012,0.271,0.025c0.013,0.027,0.028,0.053,0.049,0.074c-0.047,0.11-0.1,0.16-0.147,0.274
	c0.089,0.024,0.166,0.076,0.222,0.149c-0.003,0.019-0.011,0.036-0.024,0.049c-0.104,0.037-0.211,0.063-0.32,0.076
	c-0.164,0.108-0.307,0.281-0.467,0.399c-0.276,0.2-0.555,0.373-0.834,0.573c-0.201,0.142-0.392,0.33-0.59,0.474
	c-0.279,0.2-0.568,0.361-0.836,0.573c-0.059,0.133-0.133,0.259-0.221,0.374c-0.143,0.069-0.291,0.127-0.441,0.174
	c-0.048-0.019-0.098-0.027-0.148-0.024c-0.081,0.026-0.165,0.146-0.246,0.174c-0.219-0.009-0.434-0.051-0.639-0.125
	c-0.043-0.101-0.121-0.182-0.222-0.225c-0.048,0.014-0.099,0.014-0.147,0c0.002-0.085,0.02-0.17,0.05-0.249
	c-0.073-0.087-0.14-0.179-0.2-0.274c-0.053-0.049-0.145-0.049-0.199-0.1c-0.178,0.091-0.35,0.191-0.517,0.301
	c-0.077,0.015-0.151,0.04-0.222,0.074c0.072,0.113,0.081,0.254,0.025,0.374c-0.301,0.004-0.602-0.046-0.885-0.149
	c-0.197,0.1-0.361,0.256-0.467,0.449h-0.137v0.025h-0.025c0.037,1.49-1.143,2.729-2.633,2.766c-0.238,0.006-0.477-0.02-0.709-0.076
	c-1.248-0.357-2.148-1.447-2.26-2.741h-0.101v0.05c-0.054,0.1-0.021,0.596-0.101,0.822c-0.217,0.676-0.67,1.251-1.277,1.619
	c-0.203,0.105-0.418,0.189-0.639,0.25c-0.586,0.131-1.197,0.069-1.744-0.174c-1.025-0.432-1.672-1.457-1.622-2.567h-0.709v-0.224
	h-0.024v0.024c-0.063,0.169-0.242,0.265-0.418,0.224c-0.079-0.027-0.163-0.036-0.246-0.024c0.033,1.521-1.173,2.781-2.694,2.814
	c-0.234,0.005-0.468-0.02-0.696-0.073l-0.59-0.225c-0.628-0.357-1.101-0.934-1.327-1.619c-0.082-0.272-0.033-0.617-0.123-0.9H14.3
	c-0.097,1.226-0.905,2.279-2.064,2.691c-0.536,0.161-1.105,0.17-1.646,0.025c-1.291-0.424-2.082-1.722-1.868-3.063
	c-0.84,0-1.8-0.024-2.555,0v0.474c-0.03,0.019-0.056,0.044-0.074,0.075H6.069v-0.026C6.005,24.289,5.977,24.209,6,24.134
	c-0.028-0.079-0.036-0.165-0.025-0.249H5.946C5.9,23.907,5.85,23.916,5.799,23.91c0.022,0.149,0.013,0.303-0.025,0.449
	c-0.017,0.045-0.042,0.088-0.074,0.125H5.676v-0.026C5.586,24.29,5.56,24.096,5.6,23.91c-0.131-0.025-0.225-0.141-0.221-0.274
	c-0.014-0.101-0.005-0.202,0.025-0.3c-0.031-0.021-0.064-0.037-0.1-0.05c-0.015-0.058-0.023-0.115-0.025-0.175
	c-0.011-0.026-0.14-0.228-0.172-0.273l-0.762-0.723c-0.066,0.439-0.216,0.863-0.442,1.246c-0.068,0.141-0.212,0.228-0.369,0.224
	c-0.213-0.334-0.259-0.749-0.123-1.121c0.031-0.036,0.064-0.069,0.1-0.1l0.074-0.349h0.051c0.051-0.223,0.042-0.455-0.025-0.674
	c0.074-0.109,0.101-0.244,0.074-0.374c-0.033-0.036-0.058-0.079-0.074-0.125L3.686,20.6c0.005-0.084-0.004-0.168-0.025-0.248
	c0.039-0.109,0.108-0.204,0.2-0.274l0.025-0.4l-1.744-0.424v-0.101H1.6v-0.027H1.572c0.019-0.101,0.01-0.204-0.025-0.3
	c0.006,0.052-0.002,0.104-0.025,0.149C1.525,18.916,1.518,18.856,1.5,18.8H1.425v-0.1H0.86c-0.024-0.114-0.033-0.232-0.025-0.349
	H0.86c0.021,0.016,0.047,0.024,0.074,0.024c0.032-0.284,0.006-0.571-0.074-0.846c0.011,0.075,0.002,0.152-0.025,0.224
	c0-0.318,0.052-0.38,0.049-0.623H0.86c-0.002,0.02-0.011,0.037-0.025,0.051v-0.076c0.17-0.246-0.145-0.699,0.295-0.699
	c0.179,0.027,0.362,0.027,0.541,0v0.1H1.7c0.061-0.085,0.168-0.124,0.27-0.1v-0.023c-0.093-0.031-0.14-0.121-0.221-0.15
	c-0.201-0.049-0.407-0.074-0.614-0.074v-0.15H0.958c-0.018,0.046-0.042,0.088-0.074,0.125C0.8,16.023,0.58,16.066,0.491,15.96
	c-0.017-0.024-0.032-0.101-0.049-0.125c0.014,0.138-0.012,0.276-0.074,0.399H0.344v-0.025C0.218,16.068,0.103,15.918,0,15.76
	c0.05-0.109,0.076-0.229,0.074-0.349c0.2,0.01,0.375,0.045,0.393-0.1c0.059-0.011,0.117-0.028,0.172-0.05v-0.174
	c-0.023-0.044-0.005,0,0-0.05H0.614c-0.028,0.059-0.07,0.11-0.123,0.149v-0.024H0.467v-0.025c0.142-0.125,0.328-0.188,0.516-0.175
	c0.112-0.158,0.196-0.335,0.246-0.523c0.151-0.023,0.286-0.1,0.418-0.125l0.22,0.026c0.1-0.001,0.2-0.019,0.295-0.05h0.614
	c0.19-0.062,0.392-0.079,0.59-0.05c0.085,0.043,0.167,0.093,0.246,0.149c0.184,0.044,0.327,0.189,0.369,0.374
	c0.038,0.077,0.055,0.163,0.049,0.249c0.139,0.021,0.121,0.05,0.27,0.075c-0.013,0.092-0.004,0.186,0.025,0.274
	c0.02-0.07,0.063-0.131,0.123-0.174c0.021-0.081,0.03-0.165,0.025-0.249c0.059-0.498,0.075-1,0.049-1.5V3H4.57v7.626
	c0.058,0.438,0.067,0.881,0.025,1.321v2.742C4.658,14.941,4.674,15.203,4.644,15.461z M10.244,10.576h0.369v0.05h-0.367v-0.05
	H10.244z M17.2,10.826v0.124h0.049v-0.025c-0.017-0.031-0.017-0.068,0-0.1L17.2,10.826L17.2,10.826z M17.3,10.976
	c-0.026,0-0.053,0.008-0.074,0.025H17.2v0.5c0.112,0.012,0.22,0.046,0.319,0.1c0.056,0.015,0.246-0.026,0.344-0.025
	c0.011-0.028,0.027-0.054,0.049-0.075c-0.186-0.219-0.391-0.419-0.614-0.6v0.075H17.3z M15.334,11.276v0.05
	c0.035-0.013,0.069-0.029,0.1-0.05H15.334z M15.534,11.276c0.013,0.014,0.03,0.022,0.049,0.025
	c-0.015-0.015-0.034-0.024-0.055-0.027L15.534,11.276z M15.634,11.276c0.028,0.028,0.073,0.028,0.1,0H15.634z M16.347,11.276v0.05
	h0.246v-0.05c-0.082,0.028-0.172,0.028-0.254-0.002L16.347,11.276z M16.716,11.276c-0.026,0-0.053,0.009-0.074,0.025
	c0.027,0.016,0.045,0.044,0.049,0.075h0.025V11.276z M12.343,11.326h0.049v0.025c-0.022-0.001-0.043-0.011-0.058-0.027
	L12.343,11.326z M12.9,11.5h0.467v-0.1c-0.134-0.048-0.277-0.065-0.418-0.05c-0.013,0.013-0.031,0.022-0.049,0.025V11.5z
	 M15.7,11.375c0.013,0.013,0.03,0.022,0.049,0.025C15.736,11.386,15.719,11.377,15.7,11.375L15.7,11.375z M12.457,11.4
	c0.013,0.014,0.022,0.031,0.025,0.05h-0.025V11.4z M20.59,11.824c-0.123,0.075-0.419-0.027-0.541,0.05l0.688,0.026v-0.05
	c-0.047-0.018-0.096-0.027-0.146-0.028V11.824z M20.836,11.849c0.036,0.028,0.087,0.028,0.123,0H20.836L20.836,11.849z
	 M9.829,12.223v0.025H9.8c-0.047,0.019,0.049,0.025,0.049,0.025c0.013-0.014,0.031-0.024,0.051-0.027v-0.025H9.828L9.829,12.223z
	 M7.371,12.3c-0.021,0.016-0.077,0.033-0.1,0.05c0.07,0.004,0.14-0.013,0.2-0.05H7.371z M7.171,12.425v0.274H7.3v-0.253
	c-0.04-0.015-0.083-0.024-0.126-0.025L7.171,12.425z M7.4,12.446v0.1h0.02V12.5c0.014-0.014,0.022-0.031,0.025-0.05H7.4V12.446z
	 M7.326,12.92v0.05l0.1,0.075c-0.021-0.052-0.057-0.096-0.104-0.126L7.326,12.92z M7,12.944c0.05,0.025,0.087,0.071,0.1,0.125H7.076
	v-0.025H7.052C7.03,13.014,7.012,12.979,7,12.944z M7.467,12.944c0.047,0.147,0.191,0.241,0.344,0.224
	c0.019-0.017,0.055-0.033,0.074-0.05c-0.155-0.006-0.302-0.068-0.416-0.174H7.467z M7.1,13.069c0.031,0.003,0.06,0.022,0.074,0.05
	H7.2v0.025C7.156,13.137,7.119,13.109,7.1,13.069z M7.2,13.144c0.031,0.003,0.059,0.022,0.074,0.05H7.3v0.025
	C7.256,13.212,7.219,13.184,7.2,13.144L7.2,13.144z M28.479,13.244v0.075h0.1v-0.076L28.479,13.244L28.479,13.244z M28.725,13.244
	c0.02,0.081-0.013,0.038,0.049,0.075v-0.076h-0.051L28.725,13.244z M28.479,13.393v0.1h0.1c0-0.027-0.008-0.054-0.023-0.075v-0.025
	h-0.078H28.479z M28.725,13.418v0.05h0.049v-0.05h-0.051H28.725z M18.773,14.888c-0.021,0.081-0.029,0.165-0.025,0.249h0.025v-0.05
	l0.2-0.174v-0.025H18.773z M18.601,14.913v0.1c0.032,0.038,0.075,0.064,0.123,0.075v-0.175H18.601L18.601,14.913z M0.493,15.213
	c0.016,0.022,0.024,0.048,0.025,0.075H0.491v-0.076L0.493,15.213z M22.311,15.785h0.049l-0.024,0.074h-0.05v-0.024
	C22.299,15.821,22.307,15.804,22.311,15.785z M22.163,16.009c0.013,0.014,0.03,0.022,0.049,0.025
	C22.199,16.021,22.182,16.012,22.163,16.009L22.163,16.009z M22.113,16.184c-0.004,0.117,0.085,0.215,0.201,0.225v-0.025
	C22.279,16.291,22.205,16.218,22.113,16.184L22.113,16.184z M22.9,16.333c-0.013,0.032-0.013,0.067,0,0.101h0.023v-0.101H22.9z
	 M3.195,16.458c0.013,0.013,0.031,0.022,0.049,0.024C3.23,16.47,3.213,16.461,3.195,16.458L3.195,16.458z M0.935,16.533
	c-0.003,0.035,0.006,0.07,0.025,0.1C0.962,16.598,0.953,16.563,0.935,16.533L0.935,16.533z M1.697,16.533
	c-0.012,0.032-0.012,0.067,0,0.1H1.72v-0.1H1.7H1.697z M0.837,16.882c0.014,0.014,0.022,0.031,0.025,0.05H0.835v-0.05H0.837z
	 M0.812,17.182c0.027,0.016,0.045,0.044,0.049,0.075H0.835v0.023H0.811v-0.024C0.79,17.209,0.8,17.236,0.812,17.182L0.812,17.182z
	 M30.887,17.257l-0.074,0.125h0.047c0.102,0.05,0.209,0.084,0.32,0.101c0.01-0.041,0.01-0.084,0-0.125
	c-0.035-0.063,0.006-0.028-0.074-0.051c-0.068-0.035-0.144-0.053-0.221-0.051L30.887,17.257z M30.911,17.457
	c0.065,0.094,0.185,0.135,0.295,0.1V17.53c-0.103-0.006-0.204-0.031-0.297-0.075L30.911,17.457z M31.2,17.6
	c-0.031,0.028-0.064,0.054-0.101,0.075l1.131,0.224c0.031-0.062-0.012-0.017,0.049-0.049v-0.021
	C31.895,17.8,31.652,17.613,31.2,17.6z M0.86,17.829c0.044,0.13,0.044,0.271,0,0.399V17.829z M0.811,17.854
	c0.041,0.113,0.041,0.236,0,0.35V17.854z M33.488,18.055l0.246,0.074c0.031-0.043,0.049-0.096,0.05-0.148
	c-0.087-0.035-0.178-0.061-0.271-0.075c-0.016,0.048-0.024,0.097-0.025,0.147V18.055z M33.932,18.055
	c-0.018,0.047-0.025,0.098-0.025,0.148h0.049c0.061,0.039,0.129,0.064,0.199,0.074c0.032-0.043,0.049-0.096,0.05-0.149h-0.052
	c-0.063-0.05-0.141-0.075-0.221-0.075V18.055z M33.145,18.079l-0.024,0.05c0.118,0.043,0.243,0.068,0.368,0.075
	c0.142,0.046,0.262,0.157,0.394,0.2h0.2v-0.051C33.765,18.279,33.451,18.188,33.145,18.079L33.145,18.079z M34.324,18.354
	l0.295-0.051v-0.025l-0.27-0.075c-0.018,0.048-0.025,0.099-0.025,0.149V18.354z M35.725,18.253l-0.025,0.075h0.049v0.025h0.025
	v-0.026c0.043-0.021,0.084-0.046,0.123-0.075L35.725,18.253L35.725,18.253z M0.786,18.3c0.035,0.071,0.035,0.153,0,0.224V18.3z
	 M35.232,18.325c-0.021,0.016-0.076,0.032-0.1,0.05h0.148c0.006-0.01,0.014-0.019,0.023-0.025v-0.022h-0.072V18.325z M34.742,18.4
	l0.025,0.074l0.246,0.051V18.5c-0.033-0.022-0.043-0.064-0.025-0.1H34.742z M34.251,18.475c-0.013,0.014-0.03,0.022-0.049,0.025
	v0.025h0.073c0.006-0.011,0.015-0.02,0.024-0.025c-0.013-0.013-0.03-0.021-0.049-0.023V18.475z M34.5,18.5l-0.025,0.075
	c0.121,0.022,0.237,0.064,0.344,0.125l0.025-0.101L34.5,18.5z M37.08,18.674c0,0.072,0.023,0.035,0,0.075
	c-0.098,0.099-0.143,0.237-0.123,0.374c-0.058,0.143-0.066,0.301-0.025,0.449c0.109,0.038,0.209,0.098,0.295,0.174V19.7
	c-0.047-0.163-0.055-0.334-0.024-0.5c0.038-0.044,0.079-0.086,0.123-0.125c0.018-0.108,0.009-0.22-0.025-0.324
	c-0.071-0.032-0.147-0.058-0.224-0.075L37.08,18.674z M37.689,18.95c0.035-0.003,0.07,0.005,0.101,0.024
	C37.755,18.979,37.72,18.969,37.689,18.95z M38.206,19.623c-0.056,0.254-0.216,0.473-0.442,0.6
	c-0.104,0.001-0.205-0.025-0.295-0.074v0.024h0.025V20.2c0.088,0.058,0.189,0.093,0.295,0.1c0.161-0.081,0.316-0.173,0.467-0.274
	c0.158-0.027,0.309-0.086,0.441-0.174C38.549,19.748,38.382,19.67,38.206,19.623z M37.665,20.323v0.05h0.024v-0.027h0.025
	c-0.014-0.014-0.03-0.021-0.049-0.025L37.665,20.323z M37.443,20.473c0.011,0.064-0.018,0.032,0.05,0.049V20.47h-0.048
	L37.443,20.473z M37.297,20.547c0,0.027,0.009,0.054,0.025,0.075c0.021-0.021,0.047-0.037,0.074-0.05v-0.027H37.3L37.297,20.547z
	 M3.759,21.469c-0.013,0.192-0.037,0.384-0.074,0.573h0.05v-0.05c0.079-0.096,0.137-0.205,0.172-0.324
	c-0.061-0.058-0.111-0.126-0.148-0.201V21.469z M3.959,21.743c-0.201,0.429-0.302,0.897-0.295,1.371h0.022v-0.05
	c0.19-0.386,0.323-0.797,0.393-1.222L3.959,21.743z M33.611,23.66v0.15h0.123v-0.15H33.611z M32.727,23.686
	c-0.12,0.14-0.271,0.25-0.441,0.323v0.025h0.049C32.48,23.936,32.612,23.818,32.727,23.686z M35.6,23.835
	c0.008,0.063-0.011,0.044,0.101,0.05v-0.025h0.024v-0.024H35.6z"/>
</svg>
