<svg xmlns="http://www.w3.org/2000/svg" width="40" height="40" viewBox="0 0 40 40">
  <defs>
    <style>
      .cls-1 {
        fill: #fff;
        fill-rule: evenodd;
      }
    </style>
  </defs>
  <path id="us_m50_ontos_ico" class="cls-1" d="M7.391,14.432l1.783,0.074a5.329,5.329,0,0,1,.854-0.557H9.916V13.616c0.966,0,2.025.037,3.045,0.037,0.2,0,.966.037,0.966,0.037,0.052-.079.055-0.225,0.111-0.3a0.133,0.133,0,0,0,.074.037,4.782,4.782,0,0,0,.037-0.557h0.483v0.148h0.149v0.037h0.037v0.186h0.557a0.378,0.378,0,0,0,.112.186h0.928V13.281H16.6V13.43a0.152,0.152,0,0,0,.148-0.074,3.178,3.178,0,0,1,1.114.074,1.162,1.162,0,0,1,.037-0.371h0.074v0.668c1.854,0,3.775.035,5.571,0.037v0.408l-2.34.037v0.111h0.557v0.3c6.1,0,12.228.022,18.236,0v1.708c-5.551-.044-11.213,0-16.787,0h-4.2a4.446,4.446,0,0,0-1.523.074,0.189,0.189,0,0,1,.037.111c-0.074,0-.011-0.038-0.074,0a0.25,0.25,0,0,1,.037.149c-0.074,0-.01-0.038-0.074,0a1.681,1.681,0,0,1,0,.26H16.973a0.969,0.969,0,0,0-.149-0.557,7.64,7.64,0,0,0-1.783-.037,0.982,0.982,0,0,1-.409.111v0.52h0.149V16.511h0.966V17.4H16.6c0.176,0.07.407,0.308,0.594,0.371h3.64c0-.353.07-0.479,0.074-0.817h0.223c0,0.337.072,0.464,0.074,0.817L40,17.811v1.262c-5.662-.052-11.38,0-17.084,0a2.71,2.71,0,0,0-.3,1h0.074a2.175,2.175,0,0,0,.966.371v0.111a0.194,0.194,0,0,1,.186.111,0.251,0.251,0,0,0-.074.186c0.62,0.132,1.118.446,1.746,0.52v0.148a1.539,1.539,0,0,0,.409.186,0.127,0.127,0,0,1,.037-0.074l-0.037-.186a1.031,1.031,0,0,1,.669.111V21.6a0.4,0.4,0,0,0,0,.223H26.481v0.111h0.074a0.19,0.19,0,0,0,.111.037A0.3,0.3,0,0,1,27,21.709c0.224,0.163.921,0.236,1.077,0.408a1.025,1.025,0,0,1,.037.334h0.111V22.34h0.111V22.192h0.371V22.34h0.074a0.486,0.486,0,0,0,.3-0.223H29.007A0.189,0.189,0,0,0,28.9,22.08l0.037-.26c0.415,0.049.694,0.291,1.114,0.334v0.111a4.525,4.525,0,0,1,1.077.371,18.482,18.482,0,0,0,2.451.742c0.317,0.071.633,0.314,1,.371l-0.037.26a3.4,3.4,0,0,0-.706-0.074v0.074c0.793,0.043,1.461.409,2.266,0.445,0.392-.606,1.454-0.638,2.414-0.52v0.891a5.627,5.627,0,0,1,.706.111,0.568,0.568,0,0,1-.186.371,1.12,1.12,0,0,0-.52-0.148,9.347,9.347,0,0,0-.037,1.151,1.062,1.062,0,0,0,.409.3,0.624,0.624,0,0,0,0,.742v0.26a1.4,1.4,0,0,1-.186.149,8.064,8.064,0,0,1-.074.965,0.25,0.25,0,0,1-.148.037,3.479,3.479,0,0,1-.037-0.928L38.329,27.8a1.31,1.31,0,0,0-.557-0.111l-0.037.074c-0.133.266-.07,1.051-0.557,1.077V28.763a1.481,1.481,0,0,0,.334-0.78H37.475A8.619,8.619,0,0,0,36.4,29.32a0.393,0.393,0,0,0-.186-0.074,0.977,0.977,0,0,1-.3.408l0.148,0.186a2.282,2.282,0,0,0-.408.371,0.411,0.411,0,0,0-.111-0.223,3.8,3.8,0,0,1-.557.371c0.164,0.173.177,0.171,0.111,0.371a0.859,0.859,0,0,0-.26.186c-0.111-.047-0.139-0.039-0.223-0.074-0.036-.1.033-0.087-0.074-0.148a1.469,1.469,0,0,1-.409.334,0.508,0.508,0,0,1,.186.223H34.28a0.2,0.2,0,0,0-.149-0.111v0.074c0.049,0.049.122,0.111,0.074,0.148a0.519,0.519,0,0,1-.26.186l-0.111-.186a0.521,0.521,0,0,1-.186,0,1.187,1.187,0,0,1-.371.3,0.928,0.928,0,0,0,.149.186,0.367,0.367,0,0,1-.111.186c-0.066.093-.157,0.13-0.223,0.223a0.866,0.866,0,0,1-.149-0.037c-0.057-.055-0.092-0.131-0.149-0.186a1.556,1.556,0,0,1-.409.3,1.33,1.33,0,0,0,.186.186c-0.042.062-.051,0.128-0.074,0.148a1.388,1.388,0,0,1-.3.223c-0.019-.153-0.135-0.266-0.223-0.223L31.495,33a0.128,0.128,0,0,0,.037.074v0.037a0.124,0.124,0,0,1,.111,0,0.105,0.105,0,0,0,.037.037,0.782,0.782,0,0,0-.074.223,0.464,0.464,0,0,1-.409.148,0.832,0.832,0,0,1-.149-0.186,1.472,1.472,0,0,1-.409.334V33.7a0.294,0.294,0,0,1,.223.223H30.826a0.144,0.144,0,0,0-.111-0.074,0.289,0.289,0,0,1-.26.334L30.344,34a0.519,0.519,0,0,1-.186,0,0.881,0.881,0,0,1-.371.26,0.862,0.862,0,0,1,.149.3H29.9c-0.042-.107-0.006-0.068-0.111-0.111,0.008,0.124.08,0.089-.037,0.148a0.813,0.813,0,0,1-.334.148,0.47,0.47,0,0,0-.037-0.148H29.3a0.174,0.174,0,0,1,0,.186V34.74a0.25,0.25,0,0,1-.037-0.148,0.507,0.507,0,0,1,.037-0.148H29.267a1.576,1.576,0,0,1-.557.186,0.354,0.354,0,0,1,.111.3H28.784a0.473,0.473,0,0,0-.037-0.148H28.672v0.037a0.188,0.188,0,0,1,.037.111l-0.409.037a1.436,1.436,0,0,0-.037-0.334H28.152a1.233,1.233,0,0,1-.52.037v0.111c-0.11.005-.087,0.087-0.037,0.223H27.187V34.963H27.15V35a0.588,0.588,0,0,1-.037-0.3H27.15V34.666H26.63V34.7a0.309,0.309,0,0,1,0,.3V34.74H26.592v0.037c-0.1.01-.073,0-0.074,0.186h0.037V35H26.184a1.435,1.435,0,0,0-.037-0.334H25.553v0.111c-0.11.005-.087,0.087-0.037,0.223H25.144V34.74a1.318,1.318,0,0,0-.594-0.074V34.7a0.309,0.309,0,0,1,0,.3c0-.15.02-0.2-0.074-0.26V35H24.1a0.571,0.571,0,0,0,0-.334H23.473v0.111c-0.11.005-.087,0.087-0.037,0.223H23.027V34.963H22.99V35a0.588,0.588,0,0,1-.037-0.3H22.99V34.666H22.47a0.3,0.3,0,0,0-.111.223A0.19,0.19,0,0,1,22.4,35H22.024a0.384,0.384,0,0,0-.037-0.334H21.43a0.568,0.568,0,0,0-.074.334H20.984a0.384,0.384,0,0,0-.037-0.334H20.39V34.7a0.587,0.587,0,0,1,.037.3c-0.077-.013-0.3,0-0.483,0a0.571,0.571,0,0,0,0-.334H19.313V34.74a0.49,0.49,0,0,0-.037.26H18.9a0.384,0.384,0,0,0-.037-0.334H18.31V34.7a0.588,0.588,0,0,1,.037.3c-0.077-.013-0.3,0-0.483,0a0.384,0.384,0,0,0-.037-0.334H17.27a0.49,0.49,0,0,0-.074.3h0.037V35H16.825a0.571,0.571,0,0,0,0-.334H16.23a0.63,0.63,0,0,0-.074.3h0.037V35H15.822V34.926a0.321,0.321,0,0,0,.037-0.186,2.006,2.006,0,0,0-.669-0.074v0.111c-0.11.005-.087,0.087-0.037,0.223H14.745a0.571,0.571,0,0,0,0-.334H14.15v0.111c-0.11.005-.087,0.087-0.037,0.223H13.742a1.44,1.44,0,0,0-.037-0.334H13.111v0.111c-0.11.005-.087,0.087-0.037,0.223H12.7c0.015-.462-0.15-0.351-0.631-0.334V34.74a0.491,0.491,0,0,0-.037.26H11.662a0.571,0.571,0,0,0,0-.334H11.031v0.148c-0.1.01-.066-0.017-0.074,0.148h0.037V35H10.622a0.384,0.384,0,0,0-.037-0.334H10.028V34.7a0.309,0.309,0,0,1,0,.3V34.74H9.991v0.037c-0.1.01-.066-0.017-0.074,0.148A0.134,0.134,0,0,1,9.954,35H9.582a0.384,0.384,0,0,0-.037-0.334H8.988A0.568,0.568,0,0,0,8.914,35H8.542a0.68,0.68,0,0,0,.037-0.223l-0.074.037V34.777A0.4,0.4,0,0,0,8.468,35H8.431V34.74c0.092-.048.025,0.016,0.074-0.074H7.948A0.568,0.568,0,0,0,7.874,35H7.5a0.571,0.571,0,0,0,0-.334H6.871V34.74a0.491,0.491,0,0,0-.037.26H6.462a0.423,0.423,0,0,0-.037-0.334H5.868A0.719,0.719,0,0,0,5.794,35H5.422a0.384,0.384,0,0,0-.037-0.334H4.828A0.568,0.568,0,0,0,4.754,35H4.42V34.74a1.44,1.44,0,0,0-.631-0.074V34.74a0.491,0.491,0,0,1,.037.26c-0.077-.013-0.3,0-0.483,0a0.571,0.571,0,0,0,0-.334H2.9a0.322,0.322,0,0,0-.186-0.037,0.348,0.348,0,0,0-.111.3,2.536,2.536,0,0,1-.446-0.111,0.127,0.127,0,0,0-.037-0.074,0.565,0.565,0,0,1,.149-0.26,3.451,3.451,0,0,1-.557-0.223,0.124,0.124,0,0,1,0,.111l-0.074-.037c0.026,0.111.046,0.124-.074,0.186-0.031-.084-0.309-0.187-0.409-0.334a0.61,0.61,0,0,0,.186-0.111,1.326,1.326,0,0,1-.111-0.111c0.092-.048.025,0.016,0.074-0.074a1.226,1.226,0,0,1-.371-0.408,0.656,0.656,0,0,1-.149,0c-0.017,0-.186.148-0.186,0.148V33.552a0.449,0.449,0,0,1-.186-0.3,0.325,0.325,0,0,0,.26-0.223,1.538,1.538,0,0,0-.334-0.594,0.211,0.211,0,0,1-.186.037,0.689,0.689,0,0,1-.074-0.408H0.111c0.075,0.118.161,0.037,0.3,0a4.162,4.162,0,0,1,0-.668H0.3c0-.112.012-0.108-0.186-0.111a1.992,1.992,0,0,1,.111-0.52H0.3V30.8c0.169,0.042.1,0.048,0.149,0.148H0.52C0.57,30.743.686,30.6,0.743,30.4a0.253,0.253,0,0,1-.26-0.148,4.06,4.06,0,0,0,.26-0.408,0.374,0.374,0,0,0,.3.148,4.133,4.133,0,0,1,.409-0.371,1.4,1.4,0,0,1-.186-0.26,2.372,2.372,0,0,1,.446-0.3l0.037,0.186H1.783V29.208a8,8,0,0,0,.037-1.485,0.726,0.726,0,0,1-.149-0.371L0.149,27.2a5.867,5.867,0,0,0,.037,1.448,5.568,5.568,0,0,1,.149.78h-0.3L0,26.87c0.182-.081.345-0.23,0.52-0.3A1.935,1.935,0,0,0,1,26.424c0.277-.472-0.106-1.21.446-1.411a1.371,1.371,0,0,0,.26.037,8.01,8.01,0,0,0,.966-0.371l0.52-.148a3.035,3.035,0,0,0,.483-0.705c0.248-.352.566-0.689,0.817-1.04A1.621,1.621,0,0,1,4.9,22.229c0.044,0.069.179,0.2,0.223,0.148a0.989,0.989,0,0,0,.26-0.371,0.448,0.448,0,0,1-.223-0.223,1.646,1.646,0,0,0,.371-0.52,0.658,0.658,0,0,0,.3.148A2.994,2.994,0,0,0,6.5,20.484H6.462a0.251,0.251,0,0,1-.149.037c-0.082.13-.186,0.229-0.26,0.371a0.127,0.127,0,0,1-.074-0.037H5.942l0.037-.111c0.118-.083.152-0.255,0.26-0.334l0.223-.037,0.186-.223s0.049,0.107.074,0.074V20.187a3.248,3.248,0,0,0,.223-0.26,1.333,1.333,0,0,1-.111-0.26,0.289,0.289,0,0,0,.149-0.223c-0.054-.046-0.095-0.1-0.149-0.148a2.841,2.841,0,0,1-2.117.52v-1H4.531V18.59H3.937V18.256H4.383l-0.037-.223a0.52,0.52,0,0,1,.26-0.148,0.577,0.577,0,0,1,.111-0.26,6.535,6.535,0,0,0-.074-1.559H4.531V15.843H3.937V15.509a0.526,0.526,0,0,0,.446-0.074H3.863V15.064H4.345V14.989a0.25,0.25,0,0,1-.037-0.149,0.4,0.4,0,0,1,.26-0.111c0.009-.28.073-0.5,0.074-0.854H4.9c0.293-.637,1.562-0.227,2.191-0.186V13.616a0.364,0.364,0,0,1,0-.3l0.111-.037a0.25,0.25,0,0,1,.149-0.037V4.705A1.89,1.89,0,0,1,7.391,4v6.943c0,0.644-.142,2.155.186,2.45a1.6,1.6,0,0,1-.111.334,0.218,0.218,0,0,1,.111.26A0.647,0.647,0,0,0,7.391,14.432ZM0.111,31.4a0.311,0.311,0,0,1,.186.037A0.31,0.31,0,0,1,.111,31.4ZM0.26,32.55a0.241,0.241,0,0,1,.149.037A0.239,0.239,0,0,1,.26,32.55Zm-0.111.037a0.179,0.179,0,0,1,.111.037A0.18,0.18,0,0,1,.149,32.587ZM0.483,33.07H0.557v0.037A0.128,0.128,0,0,1,.483,33.07Zm-0.111.037a0.18,0.18,0,0,1,.111.037A0.18,0.18,0,0,1,.371,33.107Zm0.446,0.446H0.891v0.037H0.817V33.552Zm-0.149.111H0.743V33.7H0.669V33.664ZM2.711,34.7a0.149,0.149,0,0,1,0,.186V34.7Zm5.237,0a0.309,0.309,0,0,1,0,.3V34.7Zm1.04,0a0.309,0.309,0,0,1,0,.3V34.7Zm12.442,0a0.309,0.309,0,0,1,0,.3V34.7Zm1.04,0a0.309,0.309,0,0,1,0,.3V34.7Zm2.563,0a0.309,0.309,0,0,1,0,.3V34.7ZM5.868,34.74a0.25,0.25,0,0,1,0,.26V34.74Zm1.04,0a0.25,0.25,0,0,1,0,.26V34.74Zm2.563,0a0.25,0.25,0,0,1,0,.26V34.74Zm1.04,0a0.25,0.25,0,0,1,0,.26V34.74Zm0.557,0a0.25,0.25,0,0,1,0,.26V34.74Zm1.04,0a0.25,0.25,0,0,1,0,.26V34.74Zm0.483,0a0.25,0.25,0,0,1,0,.26V34.74Zm0.557,0a0.25,0.25,0,0,1,0,.26V34.74Zm0.483,0a0.25,0.25,0,0,1,0,.26V34.74Zm0.557,0a0.25,0.25,0,0,1,0,.26V34.74Zm0.483,0a0.149,0.149,0,0,1,0,.186V34.74Zm4.68,0a0.25,0.25,0,0,1,0,.26V34.74Zm2.563,0a0.19,0.19,0,0,1,.037.111H21.913V34.74Zm1.6,0a0.25,0.25,0,0,1,0,.26V34.74Zm2.08,0a0.25,0.25,0,0,1,0,.26V34.74Zm0.483,0a0.25,0.25,0,0,1,0,.26V34.74Zm-21.244.037a0.2,0.2,0,0,1,0,.223V34.777Zm16.045,0a0.2,0.2,0,0,1,0,.223V34.777Zm-4.605.148A0.134,0.134,0,0,1,16.3,35H16.267V34.926Z" transform="translate(0 0.5)"/>
</svg>
