<?xml version="1.0" encoding="utf-8"?>
<!-- Generator: Adobe Illustrator 16.0.0, SVG Export Plug-In . SVG Version: 6.00 Build 0)  -->
<!DOCTYPE svg PUBLIC "-//W3C//DTD SVG 1.1//EN" "http://www.w3.org/Graphics/SVG/1.1/DTD/svg11.dtd">
<svg version="1.1" id="Layer_1" xmlns="http://www.w3.org/2000/svg" xmlns:xlink="http://www.w3.org/1999/xlink" x="0px" y="0px"
	 width="39.969px" height="40px" viewBox="0 0 39.969 40" enable-background="new 0 0 39.969 40" xml:space="preserve">
<path id="Color_Fill_1" fill="#FFFFFF" d="M8.825,10.761c0.046,0.304,0.029,0.613-0.049,0.91l0.925-0.048
	c0.1-0.191,0.09-0.221,0.195-0.431l0.1,0.048l-0.049,0.239h1.605c0.712-0.215,1.483-0.091,2.092,0.335
	c0.034,0.017,1.986-0.011,2.92,0c-0.003-0.09,0.034-0.178,0.1-0.239c0.575-0.078,1.144,0.183,1.46,0.67h1.606
	c-0.02-0.384-0.131-0.489,0-0.575l0.049-0.287h0.243v0.1l0.046,0.763l1.314-0.048l0.049,0.144l-0.049,0.287l2.92,0.048l-0.049,0.191
	l-1.605,0.048l3.017,0.048l0.049-0.239c1.124-0.005,2.247,0.075,3.358,0.239h7.1l-0.049-0.1c-0.146-0.092-0.079-0.01-0.146-0.191
	c0.592-0.057,1.461-0.157,1.121,0.343l2.53,0.048v0.718l-12.899,0.191c-1.285,0-4.761-0.315-5.354,0.1v0.623l-0.1,0.048
	c-0.733-0.013-3.519-0.171-3.894,0.1h0.1c0.325,0.236,0.761,0.246,0.73,0.718l0.487,0.192l0.146-0.239
	c0.57,0.259,1.155,0.483,1.753,0.67l0.68-0.1l0.101-0.431c2.2-0.696,4.527-0.892,6.813-0.575c0.355,0.073,0.5,0.378,0.875,0.431
	c0,0,0.945-0.165,1.022-0.144v0.479h0.292c-0.079,0.077-0.131,0.178-0.146,0.287l0.293,0.144l0.146-0.191
	c0.216,0.092,0.446,0.141,0.681,0.144c0.065,0.2,0.078,0.189-0.1,0.287c-0.074-0.3-0.244-0.251-0.389-0.1v0.048
	c0.603,0.25,1.248,0.38,1.9,0.383c0.018-0.123,0.067-0.239,0.146-0.335c1.532,0.678,4.563,0.39,6.618,0.287v2.73h0.439v0.144H39.58
	l-0.1,2.3l-0.101-0.048v-1.06l-1.649-0.049c0.055,0.127,0.035,0.273-0.049,0.383h-0.049v-0.383l-0.584,0.048L37,21.63h-0.145
	l-0.049-0.048v-0.621c-1.115,0.428-2.139,1.061-3.018,1.868c0.099,0.161,0.099,0.365,0,0.526c-0.502-0.057-1.007,0.081-1.411,0.384
	c0.044,3.6-5.78,3.579-5.791,0h-0.633c0.045,3.627-5.813,3.571-5.791-0.048h-0.778v-0.24c-0.238,0.174-0.544,0.228-0.827,0.144
	c0.054,3.821-5.864,3.839-5.791,0.048l-0.633-0.048c0.065,3.828-5.893,3.915-5.791-0.144H3.862l0.049-0.235l-0.342,0.187
	c0.035,0.198,0,0.401-0.1,0.576l-0.1-0.049c0.03-0.463-0.17-0.912-0.535-1.199c-0.141,0.145-0.333,0.23-0.535,0.238l-0.243-0.1
	c-0.153-0.197-0.153-0.474,0-0.671c0.201-0.096,0.417-0.157,0.638-0.183l-0.341-0.334c-0.207,0.061-0.426,0.061-0.633,0
	c-0.034-0.725-0.377-1.22-0.341-1.869H0.456l-0.341,0.049l-0.049-0.101c-0.092-1.147-0.075-2.301,0.049-3.445l1.314,0.048
	l0.049-4.693h0.191l0.052,4.645c0.739,0.13,1.494,0.146,2.238,0.048c0.072-0.27,0.14-0.328,0.487-0.335l-0.1,0.144
	c0.481-0.019,0.962,0.063,1.411,0.239l0.146-0.575H6.1l0.049,0.1L6.1,16.416h0.438l-0.049-0.287l3.552,0.048
	c-0.015-0.494-0.167-0.975-0.438-1.389c-1.827-0.112-3.576-0.78-5.012-1.916v-0.243l0.341-0.1l0.049-3.013h0.341V9.66
	c0.1,0.508,0,1.521,0.1,2.059l0.147-0.048c0.3,0.111,0.142-0.018,0.487-0.048c0.1,0.143-0.039,0.113,0.243,0.144
	c0.322-0.469,1.059-0.116,1.46-0.048l0.1-0.862L8.825,10.761z M12.085,11.383L12.085,11.383z M6.538,11.622
	c0.207,0.112,0.595,0.158,0.633,0H6.538z M13.253,11.766L13.253,11.766z M21.38,12.866L21.38,12.866z M17.439,14.975
	c0.016,0.161,0.084,0.313,0.195,0.431c0.185-0.175,0.2,0.094,0.341-0.145C17.768,15.235,17.577,15.133,17.439,14.975z
	 M22.695,15.358l-0.049,0.144c0.069-0.056,0.153-0.091,0.242-0.1L22.695,15.358z M19.435,15.98l0.146,0.048L19.435,15.98z
	 M9.75,16.216l0.049,0.244c0.112-0.041,0.201-0.128,0.243-0.239H9.75V16.216z M6.587,16.316c0.108,0.1,0.094,0.095,0.243,0.048
	L6.587,16.316z M6.928,16.316v0.144l2.774,0.048l-0.049-0.1l0.049-0.1H6.928V16.316z M30.628,16.316l0.101,0.048L30.628,16.316z
	 M1.918,16.603l-0.049,0.1c0.141-0.025,0.238,0.038,0.146-0.1h-0.1H1.918z M0.847,16.651l-0.146,0.048l0.049,0.144h0.484v-0.048
	c-0.086-0.125-0.242-0.182-0.389-0.144H0.847z M0.409,16.699v0.144l0.049-0.144H0.407H0.409z M31.455,16.799L31.455,16.799z
	 M0.409,16.943l0.049,0.239h0.046v-0.243h-0.1L0.409,16.943z M0.75,16.943l0.049,0.239h0.435l0.1-0.1l-0.049-0.144H0.748
	L0.75,16.943z M32.575,16.943L32.575,16.943z M34.182,16.943l0.387,0.139v-0.143h-0.391L34.182,16.943z M34.716,16.943v0.239h2.19
	v-0.243h-2.19V16.943z M37.052,16.943v0.239h2.19v-0.243h-2.193L37.052,16.943z M33.063,16.991l0.1,0.192l0.486-0.048L33.063,16.991
	z M32.916,17.135l0.146,0.048L32.916,17.135z M0.41,17.279v0.237h0.192c-0.01-0.113-0.087-0.208-0.195-0.242L0.41,17.279z
	 M0.848,17.279l0.049,0.287l0.094-0.05l0.049-0.239H0.845L0.848,17.279z M33.448,17.279c0.286,0.19,0.644,0.243,0.973,0.144
	c-0.307-0.131-0.642-0.182-0.973-0.149V17.279z M36.416,17.279c0.17,0.266,0.262,0.15,0.486,0.048v-0.053h-0.485L36.416,17.279z
	 M39.238,17.279h-2.189c0.115,0.2,0.141,0.082,0.049,0.287h2.142v-0.292L39.238,17.279z M35.438,17.379l0.342,0.192l0.199-0.155
	V17.37h-0.535L35.438,17.379z M1.038,17.479l0.1,0.1L1.038,17.479z M0.405,17.91H0.65c0.011-0.106-0.025-0.211-0.1-0.287H0.407
	v0.273L0.405,17.91z M0.892,17.623c0.065,0.255,0.028,0.261,0.341,0.287l-0.049-0.192l-0.049-0.1H0.894L0.892,17.623z
	 M34.323,17.623l0.194,0.144l0.049-0.144H34.323L34.323,17.623z M34.956,17.623l-0.049,0.239h0.049
	c0.254-0.172,0.239-0.107,0.487,0.048l0.1-0.192L34.956,17.623z M36.563,17.623v0.192l0.1-0.048l0.049-0.144H36.563L36.563,17.623z
	 M39.239,17.896v-0.287l-2,0.048h0.1C37.94,17.903,38.596,17.985,39.239,17.896z M37.239,17.796c0.11,0.1,0.051,0.08,0.194,0.048
	L37.239,17.796z M1.181,17.94l-0.195,0.048v0.239h0.2v-0.283L1.181,17.94z M37.239,18.227h0.341v-0.283h-0.336v0.287L37.239,18.227z
	 M37.727,17.988v0.239h1.513v-0.283L37.727,17.988z M0.402,17.988v0.239h0.346l-0.049-0.235H0.407L0.402,17.988z M36.412,18.088
	l0.146,0.048L36.412,18.088z M0.402,18.327v0.239h0.394l-0.049-0.239h-0.34H0.402z M37.239,18.327
	c-0.1,0.044-0.172,0.133-0.195,0.239h0.584l-0.049-0.239h-0.335H37.239z M39.239,18.566v-0.239H37.73l0.049,0.239H39.239
	L39.239,18.566z M0.407,18.666v0.239h0.195l0.195-0.239H0.407z M1.137,18.666v0.239l0.389-0.048c-0.2-0.14-0.171,0-0.146-0.192
	L1.137,18.666L1.137,18.666z M37.637,18.666l-0.486,0.048l0.486,0.191v-0.242V18.666z M37.783,18.666v0.239l1.46,0.048v-0.29h-1.464
	L37.783,18.666z M0.411,19.001v0.101c0.043-0.092,0.04-0.019-0.004-0.104L0.411,19.001z M1.19,19.001l0.049,0.287h0.287v-0.29h-0.34
	L1.19,19.001z M37.54,19.001l0.101,0.048L37.54,19.001z M39.24,19.288v-0.29h-1.461l0.146,0.287h1.314L39.24,19.288z M0.845,19.046
	l-0.146,0.239h0.243L0.845,19.046z M1.38,19.333l-0.146,0.048l0.049,0.235h0.146L1.38,19.333z M38.07,19.333
	c0.374,0.157,0.795,0.157,1.169,0h-1.171H38.07z M0.553,19.381l-0.1,0.192h0.538v-0.192H0.553z M37.73,19.816v0.238h1.266
	l-0.049-0.238H37.73z M37.585,19.864l-0.101,0.192h0.146v-0.197h-0.046V19.864z M37.634,20.391v-0.244
	c-0.226-0.046-0.456,0.049-0.584,0.239h0.584V20.391z M37.779,20.152l-0.049,0.238h1.217l0.049-0.238H37.779L37.779,20.152z
	 M37.634,20.773v-0.291h-0.536c0.046,0.088,0.063,0.188,0.049,0.287h0.487V20.773z M37.734,20.486v0.287h1.505v-0.291H37.73
	L37.734,20.486z M2.791,22.109c0.033,0.063,0.084,0.112,0.146,0.145L2.791,22.109z M2.207,22.493
	c0.028,0.077,0.079,0.144,0.146,0.192l0.146,0.047l0.1-0.19h-0.1L2.207,22.493z M33.594,23.068c0.1,0.179-0.021,0.078,0.195,0.144
	v-0.048L33.594,23.068z M32.869,23.216l-0.146,0.192L32.869,23.216z M32.626,23.408l-0.243,0.238
	c0.064-0.045,0.346-0.191,0.238-0.244L32.626,23.408z"/>
</svg>
