<svg xmlns="http://www.w3.org/2000/svg" width="40" height="40" viewBox="0 0 40 40">
  <defs>
    <style>
      .cls-1 {
        fill: #fff;
        fill-rule: evenodd;
      }
    </style>
  </defs>
  <path id="us_m4_sherman_calliope_ico" class="cls-1" d="M23.018,8.741h1.754c0.909,0.228,1.894.466,2.807,0.693h1.684c0,0.482,0,.964,0,1.594-1.418-.013-3.318-0.174-4.351.243a1.09,1.09,0,0,1,.07.45c1.369,0,2.857.033,4.281,0.035v1.593a36.429,36.429,0,0,0-3.965.035,8.213,8.213,0,0,0,.7,1.7c0.348,0.8.573,1.6,0.947,2.39,0.074,0.156.128,0.064,0.211,0.139s0.467,1.151.561,1.351l0.14-.069c0.018,0.189,0,.177.246,0.173a6.565,6.565,0,0,0,.035,1.178,0.434,0.434,0,0,1,.386.069,0.849,0.849,0,0,0-.386.035,0.231,0.231,0,0,1,.035.139l10.351,0.139v0.624l-10.351.139v0.139a5.13,5.13,0,0,1-1.333.035,0.527,0.527,0,0,1-.421.52,0.361,0.361,0,0,1-.316.035,0.84,0.84,0,0,0-.14-0.242,1.152,1.152,0,0,1-.281.173,1.608,1.608,0,0,0,.14.416,2.591,2.591,0,0,0,.947.035c0.319-.356.711,0.2,1.088,0a0.28,0.28,0,0,1,.211-0.139,3.237,3.237,0,0,0,.772.1,0.335,0.335,0,0,1,.316-0.1,1.6,1.6,0,0,0,.246.069c0.014,0.282.012,0.493,0.351,0.485a0.7,0.7,0,0,0,.421.1c0.024-.006.017-0.071,0.07-0.069a2.433,2.433,0,0,1,.737.173c0.037,0.071.019,0.175,0.07,0.277l0.421,0.45c0.142,0.07.2-.053,0.281,0.069a2.1,2.1,0,0,1,.14.554c0.294-.01.085,0.146,0.351,0.208V24.642l0.421-.035a0.7,0.7,0,0,1,.175-0.208c0.1-.025.225,0.1,0.316,0.069a5.17,5.17,0,0,1,.561-0.762A0.417,0.417,0,0,1,34,23.637a2.781,2.781,0,0,0,.491.242c0.1,0.058.212,0.193,0.316,0.242l0.21,0.035,0.07,0.139a5.5,5.5,0,0,1,.526.208c0.083,0.061.15,0.183,0.246,0.242a1.27,1.27,0,0,1,.6.381c0.009,0.034.028,0.013,0,.035a2.339,2.339,0,0,1-.526.9,0.119,0.119,0,0,0,.035.069,2.578,2.578,0,0,0,.807.485,2.478,2.478,0,0,1,.246-0.416l0.105,0.035a0.521,0.521,0,0,1,.07.138,0.794,0.794,0,0,0-.246.381,13.183,13.183,0,0,0,1.088.762,1.168,1.168,0,0,1,.105.312,4.7,4.7,0,0,0,.456.277,4.052,4.052,0,0,1,.807,1.039,2.146,2.146,0,0,1,.6,1.282H39.965v0.035l-0.877-.173v0.069a0.453,0.453,0,0,1,.035.242H39.088v0.035H38.983a1.623,1.623,0,0,1-.035.416h0.105l-0.035.242a0.449,0.449,0,0,1-.14-0.035,0.52,0.52,0,0,1-.07.208c0.1,0.045.1,0.021,0.07,0.1-0.084.217-.121,0.039-0.211,0.1a0.67,0.67,0,0,1-.211.312,0.211,0.211,0,0,1,.07.139,0.324,0.324,0,0,1-.175.1c-0.055-.043-0.018-0.022-0.07,0l-0.105.069,0.07,0.139a0.337,0.337,0,0,0-.175.1,0.729,0.729,0,0,0-.175-0.069,0.367,0.367,0,0,1-.281.173c0.011,0.1.037,0.072,0,.139a1.24,1.24,0,0,0-.105.1c-0.088-.06-0.057-0.087-0.14-0.069l-0.105.035c0,0.14.057,0.083-.035,0.139-0.026.03-.044,0.039-0.07,0.069-0.109-.029-0.095-0.068-0.175-0.035a1.077,1.077,0,0,0-.246.1,0.2,0.2,0,0,1,0,.139,0.421,0.421,0,0,1-.281.035l-0.105.035c0.018,0.076.04,0.069,0,.139-0.026.03-.044,0.039-0.07,0.069-0.087-.026-0.114-0.109-0.14-0.069-0.139.036-.178,0.1-0.316,0.139,0.018,0.077.04,0.069,0,.139-0.026.03-.044,0.039-0.07,0.069-0.087-.026-0.114-0.109-0.14-0.069l-0.14.069a0.484,0.484,0,0,1,.035.139c-0.2.038-.1,0.049-0.246-0.035H35.228v0.035l-0.281.139c0.007,0.116.075,0.083-.035,0.139a0.478,0.478,0,0,1-.316.035c0.011,0.1.037,0.072,0,.139a0.658,0.658,0,0,1-.175.1l-0.035-.1a0.839,0.839,0,0,0-.421.381h-0.07c-0.043-.107-0.013-0.078-0.14-0.1-0.027.024-.078,0.045-0.105,0.069,0.044,0.054.023,0.018,0,.069a0.608,0.608,0,0,1-.21.069c-0.046-.116-0.054-0.1-0.211-0.1a0.609,0.609,0,0,1-.211.069v0.1h-0.21v-0.1H32.6v0.1c-0.264-.011-0.311-0.1-0.632-0.1v0.1h-0.21v-0.1h-0.21v0.1c-0.265-.011-0.311-0.1-0.632-0.1v0.1H30.7v-0.1H30.491v0.1h-0.21v-0.1H29.86v0.1h-0.21v-0.1h-0.21v0.1H29.193v-0.1H28.807v0.1a3.575,3.575,0,0,1-.421-0.1v0.1H28.14v-0.1H27.754v0.1a3.582,3.582,0,0,1-.421-0.1v0.1h-0.21v-0.1H26.737l-0.035.1a0.726,0.726,0,0,1-.386-0.1v0.1h-0.21v-0.1a3.556,3.556,0,0,0-.6.1v-0.1H25.3v0.1h-0.21v-0.1H24.7l-0.035.1a0.726,0.726,0,0,1-.386-0.1v0.1H24.07v-0.1H23.684l-0.035.1a0.726,0.726,0,0,1-.386-0.1v0.1c-0.265-.011-0.311-0.1-0.632-0.1v0.1c-0.219-.015-0.173-0.084-0.386-0.1v0.1h-0.21v-0.1a3.556,3.556,0,0,0-.6.1v-0.1h-0.21v0.1c-0.265-.011-0.311-0.1-0.632-0.1v0.1h-0.21v-0.1H20.211v0.1c-0.264-.011-0.311-0.1-0.632-0.1v0.1h-0.21v-0.1H19.193v0.1c-0.265-.011-0.311-0.1-0.632-0.1v0.1h-0.21v-0.1h-0.07c-0.054-.025,0,0-0.105,0v0.1h-0.21v-0.1H17.544v0.1H17.368a0.807,0.807,0,0,0-.105-0.139,0.6,0.6,0,0,1-.351.139v-0.1H16.526v0.1h-0.21v-0.1a0.12,0.12,0,0,1-.07-0.035,0.121,0.121,0,0,0-.07.035,0.176,0.176,0,0,0-.035.1H15.895v-0.1H15.509v0.1H15.3v-0.1a0.12,0.12,0,0,1-.07-0.035,0.121,0.121,0,0,0-.07.035,0.175,0.175,0,0,0-.035.1c-0.264-.011-0.311-0.1-0.632-0.1v0.1h-0.21v-0.1a0.12,0.12,0,0,1-.07-0.035,0.12,0.12,0,0,0-.07.035,0.175,0.175,0,0,0-.035.1c-0.255-.013-0.313-0.1-0.632-0.1v0.1h-0.21v-0.1a0.12,0.12,0,0,1-.07-0.035,0.663,0.663,0,0,1-.351.139v-0.1H12.456v0.1h-0.21v-0.1h-0.07a0.18,0.18,0,0,0-.105-0.035,0.166,0.166,0,0,1-.035.1,0.385,0.385,0,0,1-.21.035v-0.1H11.439v0.1h-0.21a0.167,0.167,0,0,0-.035-0.1,0.239,0.239,0,0,0-.14-0.035,0.166,0.166,0,0,1-.035.1,0.385,0.385,0,0,1-.21.035v-0.1H10.421v0.1H10.211a0.166,0.166,0,0,0-.035-0.1,0.238,0.238,0,0,0-.14-0.035v0.139H9.789v-0.1H9.4v0.1H9.193a0.166,0.166,0,0,0-.035-0.1,0.239,0.239,0,0,0-.14-0.035v0.035H8.982v0.1H8.772v-0.1l-0.386-.035v0.1a0.35,0.35,0,0,1-.211-0.069c-0.03-.065-0.017-0.026,0-0.1l-0.211-.035v0.1a1.078,1.078,0,0,1-.246-0.035c0-.1.034-0.048,0-0.1a1.063,1.063,0,0,0-.351-0.139v0.1l-0.211-.035V34.446H7.088a0.181,0.181,0,0,0-.105-0.035v0.1L6.807,34.48a0.538,0.538,0,0,1-.035-0.173c-0.12-.016-0.2-0.1-0.281-0.1-0.131-.012-0.05.115-0.175,0.069a0.41,0.41,0,0,1-.175-0.208C6,34.119,6,34.205,5.86,34.1a0.3,0.3,0,0,0-.105-0.139,0.539,0.539,0,0,0-.281-0.1l-0.035.1a0.628,0.628,0,0,1-.14-0.069c-0.073-.1.035-0.083-0.07-0.139a0.693,0.693,0,0,0-.14-0.069,0.435,0.435,0,0,1-.035.139,0.912,0.912,0,0,0-.175-0.069c-0.015-.124.017-0.087-0.07-0.139-0.22-.193-0.255.016-0.421-0.035a0.576,0.576,0,0,1-.175-0.242,0.627,0.627,0,0,1-.211.1,0.408,0.408,0,0,0-.105-0.069,0.188,0.188,0,0,0,0-.139,1.144,1.144,0,0,0-.316-0.069,0.217,0.217,0,0,1-.14.069,0.4,0.4,0,0,0-.105-0.069c0.015-.128.012-0.075-0.07-0.173-0.126.059-.137,0.143-0.281,0.035-0.066-.089.04-0.079-0.105-0.139a0.329,0.329,0,0,0-.246-0.069,0.293,0.293,0,0,1-.105.069,2.934,2.934,0,0,0-.246-0.312c-0.055.033-.105,0.126-0.14,0.069a2.14,2.14,0,0,0-.421-0.52c-0.052.058-.025,0.035-0.07,0.035a0.189,0.189,0,0,1-.105-0.208,0.178,0.178,0,0,0,0-.173H1.439v0.035C1.4,31.847,1.4,31.779,1.4,31.778c-0.144-.147-0.059-0.16,0-0.312a1.039,1.039,0,0,0-.175-0.346v0.035c-0.035.034-.035-0.034-0.035-0.035a1.279,1.279,0,0,1-.07-0.208h0.14L1.228,30.67H1.123a1.04,1.04,0,0,1,.035-0.242H1.263A0.434,0.434,0,0,1,1.3,30.289H1.193A3.958,3.958,0,0,1,0,30.462V30.393A2.232,2.232,0,0,0,.035,30.15c0.027-.077.145-0.176,0.175-0.242s-0.069-.085,0-0.173a4.674,4.674,0,0,0,.6-0.831c0.035-.076-0.074-0.093,0-0.173H0.912c0.044-.043.505-0.809,0.526-0.866L1.4,27.725a0.383,0.383,0,0,0,.175-0.139,0.468,0.468,0,0,0-.035-0.139H1.579V27.413a0.275,0.275,0,0,0,.14,0,1.83,1.83,0,0,0,.035-0.52H1.3a3.469,3.469,0,0,1,.175-1.559c0.029,0.112-.017.053,0.07,0.1,0.005-.195.012-0.38,0.211-0.416V24.365H1.789V24.33l1.158-.139a0.852,0.852,0,0,0,.14-0.242,1.194,1.194,0,0,0,.456-0.1,1.438,1.438,0,0,0,.105.277,0.389,0.389,0,0,1,.421-0.069l0.035-.173a6.546,6.546,0,0,1,1.333-.139,11.779,11.779,0,0,1,1.474-.1H7.544c0.068-.021.314-0.143,0.386-0.173,0.109-.045.358,0.085,0.526,0.035,0.073-.022.209-0.082,0.316-0.1V23.187a1.091,1.091,0,0,1-.07-0.45,8.148,8.148,0,0,0,1.86-.277h0.982a2.476,2.476,0,0,0,1.123-.069,0.524,0.524,0,0,1-.6-0.485,0.3,0.3,0,0,1,0-.242,1.367,1.367,0,0,1-1.333-.485,0.845,0.845,0,0,1,.07-0.658c0.159-.444,1.308-0.823,1.333-1.247a1.869,1.869,0,0,0,.07-0.831h1.053a1.215,1.215,0,0,1,.281-0.139,0.672,0.672,0,0,0,.526,0,0.125,0.125,0,0,0,.035-0.069,0.362,0.362,0,0,1-.14-0.208A0.1,0.1,0,0,0,14,17.991a0.1,0.1,0,0,1,.035.035,0.539,0.539,0,0,0,.175.242A1.781,1.781,0,0,1,14.7,18.06c-0.058-.1-0.037-0.014-0.035-0.173a1.686,1.686,0,0,0,.351-0.416,0.466,0.466,0,0,0-.035-0.139,0.85,0.85,0,0,0,.281-0.242,0.183,0.183,0,0,1,.175.1,0.134,0.134,0,0,0-.07.1h0.105a0.308,0.308,0,0,1-.105.173h0.982V17.4a1.007,1.007,0,0,1-.807-1.282,5.8,5.8,0,0,0,.21-0.589,2.872,2.872,0,0,0-.105-0.554l0.035-1.524a0.362,0.362,0,0,1-.316-0.1V13.314h0.07a0.185,0.185,0,0,1,.175,0V12.725a0.3,0.3,0,0,1-.175-0.035h0.07c0.051-.088-0.008-0.039.105-0.069V12.483a0.51,0.51,0,0,0-.175.035V12.448c0.025-.053,0,0,0-0.1h0.035a0.239,0.239,0,0,0,.14.035V11.755h-0.07a0.136,0.136,0,0,1-.105.069,0.209,0.209,0,0,0-.035-0.139,1.545,1.545,0,0,1,.526-0.035,0.535,0.535,0,0,1,.21-0.277v0.069a0.272,0.272,0,0,0-.14.208,1.241,1.241,0,0,0,.842.1,0.86,0.86,0,0,1,.386-0.035V11.478H17.123V11.236h0.105V11.062l-0.561-.035c-0.151.045-.246,0.192-0.421,0.243V11.236h0.035l0.246-.173V11.028H16.035a0.625,0.625,0,0,1-.632.069,0.118,0.118,0,0,0-.035-0.069V10.993h0.07a0.185,0.185,0,0,1,.175,0V10.4a0.3,0.3,0,0,1-.175-0.035h0.07c0.051-.088-0.008-0.039.105-0.069V10.162a0.508,0.508,0,0,0-.175.035V10.127c0.025-.054,0,0,0-0.1h0.035a0.239,0.239,0,0,0,.14.035V9.434h-0.07a0.136,0.136,0,0,1-.105.069A0.209,0.209,0,0,0,15.4,9.365,0.936,0.936,0,0,1,16,9.33l0.035,0.1,1.3-.035V9.053H17.158a0.69,0.69,0,0,1,.035-0.242h-0.14a1.991,1.991,0,0,1-.561.069,4.856,4.856,0,0,1-1.474.139,15.713,15.713,0,0,0,2.176-.277h5.754V5h0.07V8.741Zm-5.474.1a0.69,0.69,0,0,1-.035.242h0.175V9.434h5.263V8.776H17.439V8.845h0.105Zm5.474-.069V9.434H24.14c0-.273.061-0.343,0.07-0.589,0.132,0,.123.016,0.175-0.069H23.018Zm1.614,0.277H24.526V9.434c0.666,0.009,1.28,0,2,0a1.206,1.206,0,0,0,.7-0.069H27.053a2.888,2.888,0,0,0-.737-0.173c-0.543-.16-1.152-0.29-1.719-0.416V8.845A0.371,0.371,0,0,1,24.632,9.053ZM16.175,11.27h0.07a0.211,0.211,0,0,1-.07.069v0.035H16.14Zm-0.421,2.182c0,0.649-.015,1.282,0,1.871H15.79V15.289l0.175-.97a3.824,3.824,0,0,1,.561-0.97H16.035A0.251,0.251,0,0,1,15.754,13.453Zm0.947-.1a6.246,6.246,0,0,0-.877,2.286c0.529,0.376.968,1.542,1.895,1.386a2.166,2.166,0,0,1,.035-0.693c0.15-.266.345-0.019,0.351-0.554l-0.246-.727a4.157,4.157,0,0,1-.526-1.7H17.3A1.129,1.129,0,0,1,16.7,13.349Zm0.7,0a4.2,4.2,0,0,0,.6,1.871,6.043,6.043,0,0,0,.21.8V15.982a1.836,1.836,0,0,0,.035-0.693V13.557c-0.051-.042-0.091-0.182-0.14-0.208H17.4Zm1.965,0v1.49c0.059,0.166.25,0.289,0.316,0.485h0.07V13.349H19.368Zm0.947,0v3.707h0.316a2.789,2.789,0,0,0,.035.554h0.877a0.476,0.476,0,0,0,.351.069,0.434,0.434,0,0,0,.035.139,0.67,0.67,0,0,1,.281-0.139v0.346a1.472,1.472,0,0,0,.456.069,2.216,2.216,0,0,0,.105-0.693,19.742,19.742,0,0,0,.175-4.053H20.316Zm2.7,0v3.534h0.14a0.369,0.369,0,0,1,.105.242,1.674,1.674,0,0,1,.105.727h0.105a0.566,0.566,0,0,1,.246.381,0.573,0.573,0,0,1-.07.416L23.754,19l0.351,0.1a0.509,0.509,0,0,1,.07-0.312l0.105,0.035a0.738,0.738,0,0,0,.07.416,0.967,0.967,0,0,0,.421.035,1.045,1.045,0,0,1,.035-0.242c0.108-.041.381-0.017,0.491-0.069,0.063-.03.108-0.164,0.175-0.208a2.423,2.423,0,0,1,1.017.8,0.98,0.98,0,0,0,.6.762c0.1-.144.216,0.006,0.316-0.139a1.324,1.324,0,0,0,0-.52h-0.07a0.368,0.368,0,0,1-.21.069,0.1,0.1,0,0,0-.035-0.035,5.142,5.142,0,0,0-.842-1.836c-0.357-.819-0.587-1.725-0.912-2.46a11.068,11.068,0,0,1-.7-1.594,0.418,0.418,0,0,0,.386-0.242,0.232,0.232,0,0,1-.035-0.139A7,7,0,0,0,23.018,13.349ZM25.474,14.7a1.162,1.162,0,0,1-.281.139L25.439,15.6a0.218,0.218,0,0,1,.14.035l-0.035.1c0.093,0.273.165,0.55,0.281,0.831,0.253,0.613.51,1.287,0.807,1.836a4.411,4.411,0,0,0,.6,1.108,0.226,0.226,0,0,0,.14-0.208,9.684,9.684,0,0,1-.667-1.49,1.442,1.442,0,0,1,.07-0.139,2.731,2.731,0,0,0-.281-0.589c-0.182-.409-0.322-0.826-0.491-1.213A3.807,3.807,0,0,0,25.474,14.7Zm-6.105,1.039h0.105l0.035,0.554a0.83,0.83,0,0,0,0,.658,0.557,0.557,0,0,0,.246.069c0.017-.785.093-1.673-0.351-2.009V14.977H19.368v0.762Zm-3.614-.069a1.144,1.144,0,0,0,1.193,1.767V17.4h0.035a1.039,1.039,0,0,1,.035-0.242c0.137,0,.158.017,0.211-0.069a2.075,2.075,0,0,1-1.3-.8C15.826,16.112,15.868,15.854,15.754,15.67Zm2.07,1.455,0.421,0.035A1.391,1.391,0,0,0,18.07,16.4a0.333,0.333,0,0,1-.14.1C17.915,16.72,17.837,16.877,17.825,17.125Zm1.93-.035a0.53,0.53,0,0,1-.386-0.208v0.346c0.16,0.039.24,0.125,0.386,0.173V17.09Z" transform="translate(0 0.016)"/>
</svg>
