<svg xmlns="http://www.w3.org/2000/svg" width="80" height="40" viewBox="0 0 80 40">
  <defs>
    <style>
      .cls-1 {
        fill: #fff;
        fill-rule: evenodd;
      }
    </style>
  </defs>
  <path id="us_pc_451_ico" class="cls-1" d="M44.614,7.285a0.205,0.205,0,0,1,.127.042,2.249,2.249,0,0,0,0,1.053h0.254a0.272,0.272,0,0,1,.042-0.168,0.273,0.273,0,0,0,.127.211l0.212-.042V8.423H45.291a0.939,0.939,0,0,0-.508.674,5.225,5.225,0,0,1,.169.885A2.454,2.454,0,0,1,46.138,9.9a2.256,2.256,0,0,0-.677.126c-0.13.213-.3,0.344-0.466,0.59h0.169a1.325,1.325,0,0,0,.381-0.126,0.237,0.237,0,0,0,.3.084l0.042-.126a0.851,0.851,0,0,0,.212.084q0.021,1.032.042,2.064a4.443,4.443,0,0,0-.974.211v0.084h0.169A8.557,8.557,0,0,0,45.5,14.7c0.108,0.491.03,0.994,0.127,1.432a6.581,6.581,0,0,0,.169,1.643,0.46,0.46,0,0,0,.254.042,0.153,0.153,0,0,1,.085-0.042v0.253H46.053a0.32,0.32,0,0,0-.3,0,5.222,5.222,0,0,1,.127,1.474,1.651,1.651,0,0,1,.381.042V19.458a0.363,0.363,0,0,0,.042-0.211l0.381,0.042v0.084a0.215,0.215,0,0,0-.042.126,0.206,0.206,0,0,1,.127.042c-0.137.035-.065-0.021-0.127,0.084a0.458,0.458,0,0,1,0,.211c0.655-.038,1.5.006,2.455,0v0.084H47.323v0.084c-0.011.041-.033,0.016,0,0.042a18.9,18.9,0,0,0,1.9-.042v1.811h0.889a3.265,3.265,0,0,0,.042-0.885c-0.057-.12,0-0.716-0.042-0.927H50.37V19.626a1.744,1.744,0,0,1,.508-0.042v0.421h0.3a6.723,6.723,0,0,1,0-1.137,17.739,17.739,0,0,0,3.048.042V18.531H54.73V18.91a10.639,10.639,0,0,0,1.4-.042V16a4.872,4.872,0,0,1,0-1.137,0.369,0.369,0,0,1,.212-0.042,0.592,0.592,0,0,1,.042.168,0.152,0.152,0,0,0-.042.084,0.44,0.44,0,0,1,.3.084h-0.3v0.253h0.085V15.372c0.029-.032.056-0.094,0.085-0.126v0.168a0.206,0.206,0,0,1,.127.042,1.424,1.424,0,0,1-.3,0v2.359a0.44,0.44,0,0,1,.3.084h-0.3v3.2a1.286,1.286,0,0,1,.254.126v0.042h-0.55v2.4a0.2,0.2,0,0,1,.127.042H56.042v1.516H56.3V24.891H56.72a0.991,0.991,0,0,1-.042.337h0.381a0.12,0.12,0,0,1,.042-0.042c-0.016-.32-0.086-0.343.254-0.337v0.042a0.555,0.555,0,0,0-.042.295h0.381a0.991,0.991,0,0,0-.042-0.337h0.212a10.6,10.6,0,0,0-.085-1.98,4.494,4.494,0,0,1,1.185-.042V22.28H59.09a0.632,0.632,0,0,1,.085.168c-0.116.018-.094,0.142-0.085,0.379h1.1a0.12,0.12,0,0,0,.042.042,9.357,9.357,0,0,1,0,1.685,0.994,0.994,0,0,0-.085.59,0.152,0.152,0,0,0-.042.084h0.127c0.047-.142.048-0.14,0.212-0.169V25.1a0.163,0.163,0,0,0-.085.126h0.381V25.144a0.257,0.257,0,0,1-.085-0.084h0.085a1.3,1.3,0,0,0,.974.169V25.1a0.206,0.206,0,0,1-.127-0.042,0.475,0.475,0,0,0,.127-0.505,0.46,0.46,0,0,1-.127-0.084h0.127V23.965a0.206,0.206,0,0,1-.127-0.042h0.085l0.042-.084a1.1,1.1,0,0,0,.212.084v0.042H61.757V24.47h0.169v0.042H61.841a0.826,0.826,0,0,0-.085.506l0.169,0.042V25.1H61.757v0.126h0.466c0.029-.974.365-1.784,0.381-2.822-0.059-.009.017,0.035-0.042,0.042-0.033.081-.042-0.084-0.042-0.084a0.45,0.45,0,0,1,.212-0.084v2.948h1.947a1.613,1.613,0,0,0-.085-0.295H64.72a0.465,0.465,0,0,1,.127-0.253,0.816,0.816,0,0,1-.508-0.421A1.3,1.3,0,0,0,64.55,23.8H64.466c-0.1.077-.183-0.034-0.212-0.168-0.053-.066-0.027-0.021,0-0.084a1.086,1.086,0,0,1,.169-0.295h0.085a0.311,0.311,0,0,0,.254.337c0.032-.111.051-0.1,0.085-0.211a4.437,4.437,0,0,1-.3-0.463L64,22.954a0.862,0.862,0,0,0-.169-0.126v0.084a0.113,0.113,0,0,0,.042.084H63.746a1.353,1.353,0,0,1-.085-0.632,1.229,1.229,0,0,1,.381-0.042,0.2,0.2,0,0,1,.042-0.126c0.088,0.155.321,0.04,0.381-.084A0.25,0.25,0,0,1,64.3,21.9h0.169a0.908,0.908,0,0,1,.423-0.042v0.084c-0.011.041-.033,0.016,0,0.042a1.033,1.033,0,0,0,.466.042c0.033-.313.181-0.358,0.55-0.337V21.9h0.169l-0.042.548h3.81V22.7H66.328v0.042a0.275,0.275,0,0,1,.127.211,0.436,0.436,0,0,0-.254.168,0.422,0.422,0,0,0,0,.337,0.571,0.571,0,0,0-.169.211h0.085c0.058-.045.157-0.087,0.212-0.126l0.085,0.463c-0.209.009-.26,0.252-0.254,0.632-0.085,0-.012-0.043-0.085,0a0.578,0.578,0,0,0,.212.295,0.121,0.121,0,0,1,.042-0.042V25.06a0.3,0.3,0,0,0-.085.169H66.5a0.621,0.621,0,0,0,.3-0.126,0.205,0.205,0,0,1-.127-0.042h0.127V24.849h0.423V25.06a0.2,0.2,0,0,1,.127.042,0.539,0.539,0,0,0-.169.042v0.042h0.3a3.051,3.051,0,0,0,.127-1.137c0.37,0,.363.005,0.8,0v0.042a0.973,0.973,0,0,0-.042.505,0.205,0.205,0,0,0,.127-0.042,1,1,0,0,0,.381-0.59,0.464,0.464,0,0,1-.127-0.084,2.248,2.248,0,0,1,.339,0v0.042H68.995a0.314,0.314,0,0,0-.085.253,0.514,0.514,0,0,1,.381.168,3.461,3.461,0,0,0,1.058-.337,0.152,0.152,0,0,1-.042-0.084l0.212-.042c0.052,0.131.016,0.1,0.169,0.126a8.234,8.234,0,0,1,1.27-1.39V22.7a1.416,1.416,0,0,0-.55.674c0.034,0.068.1,0.284,0.169,0.421a0.551,0.551,0,0,1,.3.042c0.238,0.268-.064,1.033.381,1.137,0.062-.106.053-0.077,0.212-0.084V24.47a0.289,0.289,0,0,1-.169-0.084h0.169V23.88a0.274,0.274,0,0,1-.169-0.042h0.085c0.074-.056.068-0.073,0.127-0.042l0.127,0.042V23.88H72.508v0.505a0.2,0.2,0,0,1,.127.042c-0.172.07-.141,0.27-0.127,0.505a2.484,2.484,0,0,0,.466,0c0,0.127-.014.123,0.212,0.126V24.976a0.145,0.145,0,0,1-.085-0.042,0.887,0.887,0,0,1,.254.126s0.8-.084.974-0.084V25.1h0.381V24.976a0.274,0.274,0,0,1-.169-0.042,1.526,1.526,0,0,1,.635.042H75.005V25.1c0.363,0,.705-0.027,1.016-0.042a0.273,0.273,0,0,0-.127-0.211h0.127V24.344a0.2,0.2,0,0,1-.127-0.042h0.127a2.892,2.892,0,0,0-.042-0.59h0.042V23.67a0.145,0.145,0,0,1,.085.042h0.042a4.145,4.145,0,0,0,.254,1.221h0.042a0.287,0.287,0,0,1,.212-0.084v0.042a0.23,0.23,0,0,0-.127.168H76.91V24.976a1.031,1.031,0,0,1-.127-0.126,0.643,0.643,0,0,1,.254.084V25.06l1.989-.042a16.907,16.907,0,0,1,.381-1.853q-0.042-1.179-.085-2.359a0.205,0.205,0,0,1-.127-0.042c0.184-.107.038-0.323,0-0.463a0.913,0.913,0,0,1,.3-0.042V20.3h0.042a1.456,1.456,0,0,0-.085.505h0.042a0.216,0.216,0,0,1,.127-0.042,0.271,0.271,0,0,1,.042-0.169v0.169a0.206,0.206,0,0,1,.127.042l-0.339.042c0.079,1.265.173,2.394,0.212,3.622h0.212a1.821,1.821,0,0,1-.042.548A0.274,0.274,0,0,1,80,25.06a5.556,5.556,0,0,0-.677,1.432c-0.319.721-.711,1.493-0.974,2.274l-0.381,1.769c-0.249,1.022.037,2.779-.8,3.2a4.269,4.269,0,0,1-.889.084,8.2,8.2,0,0,1-1.439.042c-0.533,0-1.144.042-1.736,0.042H72.127c-0.627.137-1.48-.106-2.159,0.042a8.566,8.566,0,0,1-1.566.042c-0.954,0-2.11,0-3.048.084a22.476,22.476,0,0,0-2.413.042c-0.746.165-1.677-.111-2.37,0.042H58.455l-10.794.253-3.64.042c-0.586.128-1.393-.1-2.032,0.042a11.181,11.181,0,0,1-1.947.042c-0.879.011-2,.055-2.878,0.084H34.836a22.472,22.472,0,0,1-2.37.042c-1.058.1-2.306,0.084-3.386,0.084h-1.9L13.63,35a15.693,15.693,0,0,0-.973-1.306,0.639,0.639,0,0,0-.466-0.463c-0.149.09-.447-0.04-0.635,0.042v0.084a9.763,9.763,0,0,1-1.439,0c-0.611.133-1.4-.012-2.032,0.126a9.457,9.457,0,0,1-1.439.169,0.9,0.9,0,0,0-.423-0.042c-0.127.069,0.026,0.112-.3,0.126v0.969H5.841c-0.036-.027-0.133-0.056-0.169-0.084-0.3-.335.032-0.779-0.339-1.1a1.611,1.611,0,0,0,.127-0.969,0.6,0.6,0,0,1,.169-0.042c0.063,0.07.031,0.043,0.085,0.042A0.487,0.487,0,0,0,5.8,32.431H5.841v0.548a0.454,0.454,0,0,1,.042.253,1.3,1.3,0,0,0,.3-0.042,0.2,0.2,0,0,0,.042.126,1.66,1.66,0,0,1,.508-0.084L6.688,32.094l-1.608-.168a10.724,10.724,0,0,1-.169,2.064,4.007,4.007,0,0,1-1.016.084A0.5,0.5,0,0,1,3.725,33.9a10.4,10.4,0,0,1-.466-2.19l-1.27-.084V31.546A2.691,2.691,0,0,1,1.778,30.7C1.6,30.1,1.48,29.389,1.312,28.766a2.757,2.757,0,0,0-.127-0.927C1.131,27.9,1.011,28.02.974,27.966a0.151,0.151,0,0,1-.042-0.084,0.442,0.442,0,0,0,.254-0.505,2.076,2.076,0,0,1-.127-0.885,7.513,7.513,0,0,1-.8-0.463,0.3,0.3,0,0,0,.212-0.211V25.86a0.326,0.326,0,0,0,.127.126,0.672,0.672,0,0,0,.339.042,0.641,0.641,0,0,0-.169-0.547,0.4,0.4,0,0,1-.254-0.126A0.639,0.639,0,0,1,.677,25.27a0.164,0.164,0,0,0,.127.084L0,21.69a0.206,0.206,0,0,1,.127.042H0.169a7.923,7.923,0,0,0,.339,1.39,9.138,9.138,0,0,0,.762,2.569,1.664,1.664,0,0,0,.466.632,1.746,1.746,0,0,1,.677-0.042,7.141,7.141,0,0,1,1.862.042,1.28,1.28,0,0,0,0,.463A10.326,10.326,0,0,0,6.519,26.7a4.328,4.328,0,0,0,.042,1.179l0.085-.042a10.984,10.984,0,0,0,.042-2.527H6.73v2.4H6.772V27.671H6.815A3.722,3.722,0,0,1,7.026,27V26.955C7.069,26.914,7.068,27,7.069,27a1.013,1.013,0,0,0,.085.59,1.412,1.412,0,0,0,.593.042c0-.8.243-1.394,0.254-2.274H8.127v0.084a19.089,19.089,0,0,1,0,2.19H9.058L9.1,26.787h1.227l0.042-.59H10.5a4.73,4.73,0,0,0-.042-0.842h0.169V25.4a3.227,3.227,0,0,0-.042.969h0.847a0.228,0.228,0,0,1,.127-0.169v1.432h1.016a6.237,6.237,0,0,0-.085-2.148,0.391,0.391,0,0,1,.212-0.126c-0.011.885,0.231,1.467,0.254,2.274h2.116V27.545A0.631,0.631,0,0,0,15.153,27H14.942V26.955H14.9a0.2,0.2,0,0,1-.042.126,1.81,1.81,0,0,1,.085-0.547h-0.8a3.232,3.232,0,0,0-1.185-.042V26.408l1.989-.042a0.771,0.771,0,0,1,.085-0.337,1.427,1.427,0,0,1-.042.337H15.2a0.236,0.236,0,0,1,.169,0,0.817,0.817,0,0,1,0-.463h0.127a1.374,1.374,0,0,1,.042-0.59V25.86h0.212v0.126c0.111,0.016.056-.031,0.085,0.084-0.11.012-.083,0-0.085,0.21h0.085a4.653,4.653,0,0,0,.846.126v0.084a0.732,0.732,0,0,0-.339.168,0.284,0.284,0,0,1,.085.211H16.381V26.787a1.4,1.4,0,0,0-.169-0.168v0.253a1.676,1.676,0,0,0,0,.421,1.093,1.093,0,0,0,.381-0.084,2.457,2.457,0,0,1,.593.084,0.219,0.219,0,0,1,.042-0.084v0.211c-0.107.062-.077,0.053-0.085,0.211h0.846a0.5,0.5,0,0,1,.127-0.211,4.666,4.666,0,0,0,0-1.011,2.656,2.656,0,0,1-.042-0.927,13.747,13.747,0,0,0,.169-2.78H18.37l0.042,2.443,2.963-.126c0.65-.141,1.364.042,1.947-0.084,0.618-.134,1.115.177,1.693,0a8.477,8.477,0,0,0,.974-0.379,0.943,0.943,0,0,1,.677-0.379,4.747,4.747,0,0,0,.593.379V23.291a0.481,0.481,0,0,1-.212,0c-0.03-.065-0.005-0.006,0-0.126a2.118,2.118,0,0,0,.339-0.463v0.042a8.154,8.154,0,0,1,.042,1.938c0.308,0.115.6,0.313,0.889,0.421a5,5,0,0,1,.931.295c0.236,0.144.446,0.056,0.508,0.379-0.474.331-.407,1.234-0.889,1.558a3,3,0,0,1-1.354.211v0.084h1.735a4.813,4.813,0,0,1,.635-0.126,1.626,1.626,0,0,1,.8-0.421V26.618h0.254v-0.59a0.462,0.462,0,0,0,.3-0.126h1.1a0.856,0.856,0,0,0,.635.126,0.493,0.493,0,0,1,.085-0.126h1.1a0.833,0.833,0,0,0,.381.126l-0.127-.842c-0.141.016-.12,0.042-0.127-0.168a3.418,3.418,0,0,0-.085-1.264,9.926,9.926,0,0,1-.381-2.274H33.651V21.4a0.429,0.429,0,0,0,.085-0.463H33.609a3.111,3.111,0,0,0-.085-0.59h0.085a5.261,5.261,0,0,1,1.355-.211,32.392,32.392,0,0,1,3.344-.548l0.085,0.59-0.127.042a1.694,1.694,0,0,1,.042.295c0.117,0.054.214,0.119,0.169,0.211a0.529,0.529,0,0,0-.127.042,5.135,5.135,0,0,1,.212,1.348c0.119,0.493.175,1.1,0.3,1.6L38.9,24.217a1.472,1.472,0,0,1,.212.253H38.984a9.137,9.137,0,0,0,.339,2.106,1.069,1.069,0,0,0,.339.042v-0.59A0.7,0.7,0,0,0,40,25.9l0.55,0.042V25.86c0.133-.027.048,0.136,0.212,0.084V25.86a0.241,0.241,0,0,1,.254.084,1.61,1.61,0,0,1,.423-0.084,0.146,0.146,0,0,0,.212.084V25.86H41.9a4.044,4.044,0,0,1,.127-1.137A0.952,0.952,0,0,1,42.5,24.47l0.042-.505a4.768,4.768,0,0,1,1.354-.084V22.743c-2.117.043-2.074-.643-2.032-2.7l-0.212.042V20.005h0.212V19.669h0.085a0.146,0.146,0,0,0,.169,0v0.084c-0.011.041-.033,0.016,0,0.042a0.422,0.422,0,0,0,.212.126l0.085-.842H42.2V18.531h0.466a1.549,1.549,0,0,1,.042.463,0.152,0.152,0,0,0-.042.084H42.5a2.164,2.164,0,0,0,.127,1.053,1.9,1.9,0,0,0,1.227.295V20.005c0.5,0.005.953,0.081,1.524,0.084a6.645,6.645,0,0,0-.127-1.348H44.91c-0.066.052-.021,0.027-0.085,0a1.452,1.452,0,0,0,0-.211H44.741a1.677,1.677,0,0,1-.085-0.21h-0.72V18.236h1.227c0,0.133-.072.057,0.042,0.126V18.321a0.363,0.363,0,0,0,.042-0.211,0.778,0.778,0,0,1-.042-0.379,0.409,0.409,0,0,1-.254.042,0.214,0.214,0,0,1-.042-0.126h0.042V17.6a1.489,1.489,0,0,0,.254.084V17.6a7.877,7.877,0,0,1-.127-1.558c-0.29-1.291-.091-2.793-0.381-4.086-0.1-.461.045-1.5-0.212-1.643-0.036,0-.037.021-0.169,0.042V10.318H44.275l-0.042-.211H44.36A1.469,1.469,0,0,0,44.233,9.9c-0.02-.129.1-0.1,0.127-0.168V8.549l-0.508-.084V8.423h0.042A1.031,1.031,0,0,1,44.36,8.38c0-.4,0-0.595,0-1.011a1.006,1.006,0,0,0-.339.042V7.327a1.114,1.114,0,0,0,0-.632c-0.134,0-.057.071-0.127-0.042h0.127a8.658,8.658,0,0,0-.169-1.727c-0.071-.323.006-0.624-0.085-0.885L43.937,4V4.463a2.113,2.113,0,0,1,.042.505,9.668,9.668,0,0,1,.169,1.685h0.042a0.153,0.153,0,0,1,.085-0.042V6.317a5.32,5.32,0,0,1-.127-0.674,0.562,0.562,0,0,1,.339-0.084,0.6,0.6,0,0,1,.042.168,1.745,1.745,0,0,0,.085.885,0.142,0.142,0,0,1,.127,0c-0.077.091-.017,0.092-0.127,0.126a0.167,0.167,0,0,0-.042.084A1.017,1.017,0,0,1,44.614,7.285Zm0.127-.632H44.91V6.738H44.868C44.835,6.709,44.773,6.683,44.741,6.654ZM43.683,6.7a0.164,0.164,0,0,1,.127.042C43.705,6.8,43.756,6.754,43.683,6.7Zm1.27,1.348h0.085V8.086A0.145,0.145,0,0,1,44.952,8.043Zm0.085,0.042h0.085V8.128A0.146,0.146,0,0,1,45.037,8.086Zm-0.169.042h0.085V8.17A0.145,0.145,0,0,1,44.868,8.128Zm10.963,6.865c0.047,0.07.075,0.045,0,.084V14.993Zm0.085,0.084H56V15.12A0.146,0.146,0,0,1,55.915,15.077Zm0.55,2.906a0.454,0.454,0,0,1,.042.253H56.466V18.152A0.234,0.234,0,0,1,56.466,17.984ZM47.2,19.458a0.282,0.282,0,0,1,0,.295V19.458Zm32.423,0.969a0.755,0.755,0,0,1,.169.084,0.551,0.551,0,0,1-.3-0.042A0.2,0.2,0,0,0,79.619,20.427Zm-0.635.253c0.047,0.07.075,0.045,0,.084V20.679Zm-22.73,1.053a1.218,1.218,0,0,1,.085-0.337,0.145,0.145,0,0,1,.085.042,0.97,0.97,0,0,1,.085.295H56.254Zm7.661,0.421H64V22.2A0.146,0.146,0,0,1,63.915,22.154ZM18.5,23.122a0.8,0.8,0,0,1,.127.169H18.54c-0.031-.037-0.053-0.048-0.085-0.084A0.152,0.152,0,0,0,18.5,23.122ZM0.72,25.481a0.152,0.152,0,0,1,.042.084H0.72V25.481Zm-0.339.168a0.608,0.608,0,0,1,.212.042v0.042C0.383,25.735.389,25.759,0.381,25.65Z" transform="translate(0 0.5)"/>
</svg>
