<svg xmlns="http://www.w3.org/2000/svg" xmlns:xlink="http://www.w3.org/1999/xlink" width="80.125" height="40" viewBox="0 0 80.125 40">
  <defs>
    <style>
      .cls-1 {
        fill: #fff;
        fill-rule: evenodd;
      }
    </style>
    <clipPath id="clip-path">
      <rect x="0.063" width="80" height="40"/>
    </clipPath>
  </defs>
  <g clip-path="url(#clip-path)">
    <path id="us_pt810_ico" class="cls-1" d="M45.36,2.652h0.074c0,4.456,0,8.885,0,13.417h0.05a0.927,0.927,0,0,0,.422.05,0.46,0.46,0,0,0,.124.248c0.119,0.271-.116.332-0.174,0.471a0.691,0.691,0,0,1-.025.2h0.322a0.431,0.431,0,0,1,.372-0.05v0.025H46.55v0.074h0.074a5,5,0,0,1-.05-0.694h0.05v0.174a1.293,1.293,0,0,1,.074.521l1.19-.025h0.347a2.55,2.55,0,0,0,.67.05V16.466a0.635,0.635,0,0,1,.521.347,0.409,0.409,0,0,0-.273.3c0.4,0.027.9,0.025,1.339,0.025V17.26H49.228v0.074h1.017v0.223H50.171v0.422L50.295,18v0.074a1.081,1.081,0,0,0-.05.57,2.138,2.138,0,0,0,.223.025,3.2,3.2,0,0,0,0-.992h0.248v0.05a3.758,3.758,0,0,0,0,1.091c0.011,0.865-.028,1.8-0.025,2.7a3.994,3.994,0,0,0,1.19-.05c0.5-.166.133-1.591,0.422-2.034a1.133,1.133,0,0,1,.521-0.4,1.305,1.305,0,0,0,.521-0.074,0.33,0.33,0,0,0,0-.223,1.138,1.138,0,0,1-.2-0.248l-0.174-.05V18.326a1.439,1.439,0,0,1,.719-0.347V18.8H53.469V19.02h0.446v-0.2h0.2v0.2h0.149v-0.2h0.174v0.2h0.5l0.05-.645a0.413,0.413,0,0,1-.2-0.1,0.517,0.517,0,0,1-.273.1,0.646,0.646,0,0,1-.025-0.546,0.352,0.352,0,0,1,.1-0.025,1.175,1.175,0,0,0,.223.347,0.862,0.862,0,0,1,.645.868h0.322v0.074h0.446a4.178,4.178,0,0,0,.074-1.414h0.025a3.456,3.456,0,0,0,.1,1.438H56.2a1.094,1.094,0,0,0,.422.769H56.148a1.307,1.307,0,0,1-.322.248,0.453,0.453,0,0,1,.025.149H56c0.05-.164.046-0.3,0.273-0.3a0.843,0.843,0,0,0,.62.074,0.655,0.655,0,0,1-.174.422,1.839,1.839,0,0,0-.57-0.05A0.205,0.205,0,0,1,56,20.31v0.025a0.3,0.3,0,0,0-.1.322c0.057,0.121.055,0.838,0.1,1.066h0.3V21.5h0.149V21.4H56.371V21.277l1.761,0.074c0,0.141,0,.148,0,0.3a4.908,4.908,0,0,1,.868.025,0.533,0.533,0,0,1,.025.174H58.95a1.679,1.679,0,0,1,.074.372H59a0.152,0.152,0,0,0-.05-0.05v1.786H58.876v0.521l4.34-.1V24.3h0.273V23.311c-0.553,0-1.193-.07-1.711-0.074v0.1H61.7v-0.1H61.529a1.832,1.832,0,0,1-.025-0.5h0.025V22.716a0.385,0.385,0,0,0,.2-0.025,0.126,0.126,0,0,0,.025-0.074,1.241,1.241,0,0,1,0-.471,5.549,5.549,0,0,0,.074-1.042h-0.2v-0.05h0.694a0.79,0.79,0,0,0,.149-0.124l0.521-.149V20.707h0.273V20.459H63.34a2.193,2.193,0,0,1,.372-0.67,0.855,0.855,0,0,0,.322.174l0.1-.025a4.322,4.322,0,0,1,.372.248,0.691,0.691,0,0,1,.347.174,0.6,0.6,0,0,0-.1.347,3.181,3.181,0,0,0,.471-0.1V20.434c-0.081-.021-0.038.012-0.074-0.05,0-.061-0.013-0.022-0.05-0.1a3.193,3.193,0,0,0,.347-0.124c0.088,0.128.463,0.055,0.546,0.174H65.869v0.273c0.147,0.012.211,0.027,0.422,0.05a0.315,0.315,0,0,1-.025.1h0.149c0.02-.081-0.012-0.038.05-0.074l0.025,0.149h0.918a0.339,0.339,0,0,0,.223.074V20.98h4.588a4.493,4.493,0,0,1,.818-0.05V21.3c-1.68-.113-3.61-0.072-5.406-0.074v0.1H67.58c-0.026-.032.02-0.06-0.05-0.05a0.084,0.084,0,0,1-.05.05c-0.087.018-.047,0.037-0.074,0.05a0.819,0.819,0,0,0-.4.05c0.063,0.036.038,0.011,0.05,0.1a1.13,1.13,0,0,1-.4.05,0.746,0.746,0,0,1-.5,0l-1.141.025v0.025a1.186,1.186,0,0,0,.273.174V21.724a0.99,0.99,0,0,0,.347-0.05c0.037,0.017.025,0.088,0.1,0.074l0.05-.074a0.672,0.672,0,0,1,.347.025,0.853,0.853,0,0,0,.471.223,2.813,2.813,0,0,0,.5.074,0.514,0.514,0,0,1-.1.322,0.366,0.366,0,0,0-.174-0.05v0.05a0.126,0.126,0,0,1,.025.074c-0.082.062-.112,0.19-0.2,0.248l-0.174.05v0.124c0.083,0.054.026,0.065,0,.149,0.089,0.01.062-.012,0.1,0.05a0.12,0.12,0,0,0-.074.025,0.5,0.5,0,0,1,.025.248,0.216,0.216,0,0,0-.124.05,0.326,0.326,0,0,0-.2-0.05l-0.025.074-0.074-.025c-0.033.028-.043,0.093-0.074,0.124a0.09,0.09,0,0,0-.05-0.025,0.62,0.62,0,0,0-.05-0.124s-0.461,0-.645,0V24.3c0.916,0,1.863-.024,2.827-0.025V23.162h0.149v1.091c0.664,0,1.169.025,1.81,0.025a0.421,0.421,0,0,0,.05-0.2h0.1v0.149a0.722,0.722,0,0,0,.347.05l-0.025-.223h0.918a0.12,0.12,0,0,0-.025-0.074V23.956l-0.322-.025v-0.1a3.043,3.043,0,0,1,.818.025,0.085,0.085,0,0,1-.025.05,2.3,2.3,0,0,1-.322.074v0.074c0.347,0,.651-0.045.942-0.05,0-.462-0.006-0.965-0.025-1.389h0.149v0.992h0.025a0.356,0.356,0,0,1,.422-0.1,0.262,0.262,0,0,1,.2.223,0.747,0.747,0,0,1,.025.322h0.719v-0.1l-0.322-.025-0.025-.074a3.1,3.1,0,0,1,.818-0.025v0.1l-0.322.025v0.1h0.372V23.881h0.273V24.03l0.422-.05a0.379,0.379,0,0,1,.05.223H75.07v0.149h0.372c0.044-.015.067-0.121,0.174-0.074v0.05a0.787,0.787,0,0,0,.347.05v-0.05a0.214,0.214,0,0,0,.025-0.124l-0.322-.025L75.64,24.1h0.025V24.08a0.18,0.18,0,0,0,.2-0.05,0.139,0.139,0,0,1-.149-0.074h0.074a0.464,0.464,0,0,0,.124.074v0.025H75.888c-0.048.019,0.05,0.025,0.05,0.025a2.043,2.043,0,0,1,.868.05c-0.01.056-.023,0.027,0,0.074a1.344,1.344,0,0,0,.769.1c0.648,0,1.022-.211,1.637-0.223a2.361,2.361,0,0,1,.1-0.67h0.1a0.223,0.223,0,0,0,.174.248,0.3,0.3,0,0,1,.2-0.074v0.546a0.926,0.926,0,0,1,.2,1.066,6.841,6.841,0,0,1-.521,1.414,4.607,4.607,0,0,0-.4.744,0.511,0.511,0,0,1,.149.1l-0.025.074a0.147,0.147,0,0,0-.1,0,0.478,0.478,0,0,1-.2.273c-0.055.028-.288-0.093-0.5-0.1a0.725,0.725,0,0,1-.2.3c0.017,0.062.059,0.046,0.025,0.074a3.352,3.352,0,0,1-.446.818c-0.19.312-.3,0.635-0.5,0.942-0.113.18-.3,0.327-0.422,0.5a10.614,10.614,0,0,1-5.53,3.621c-0.247.081-.463,0.077-0.719,0.149-0.9.253-1.927,0.377-2.9,0.6l-0.471.025c-0.629.141-1.342,0.083-1.984,0.223-0.385.084-.827,0-1.19,0.074H63.637c-0.234.051-.56,0.024-0.794,0.074l-1.736.074c-0.123.027-.342-0.008-0.5,0.025-0.763.165-1.668-.017-2.43,0.149H57.04a7.226,7.226,0,0,1-1.314.025c-0.671,0-1.423.025-2.133,0.025l-7.415-.074c-1.8,0-3.558-.061-5.307-0.074-0.476,0-1-.01-1.438-0.025a6.2,6.2,0,0,1-.942-0.025c-0.327-.071-0.745.039-1.042-0.025H36.407a4.3,4.3,0,0,0-.769-0.025,6.775,6.775,0,0,1-1.24-.05c-0.248-.054-0.576.022-0.794-0.025l-1.538-.025c-0.217-.047-0.545.029-0.794-0.025-0.209-.045-0.528.027-0.769-0.025-0.21-.045-0.528.027-0.769-0.025-0.579-.126-1.282.026-1.86-0.1l-1.835-.05c-0.373-.081-0.813.037-1.215-0.05-0.139-.03-0.376.012-0.546-0.025-0.819-.176-1.786.029-2.6-0.149-0.347-.076-0.724.02-1.042-0.05-0.347-.076-0.724.02-1.042-0.05a3.468,3.468,0,0,0-1.166.1l-2.356.223c-0.072.022-.126,0.1-0.2,0.124l-1.166.1a0.528,0.528,0,0,0-.3-0.05c-0.6.13-1.291,0.091-1.885,0.223l-0.719.05c-0.359.08-.806,0.069-1.166,0.149H10.392c-0.068.02-.115,0.1-0.174,0.124H9.97c-0.2.045-.491,0.075-0.694,0.1A0.3,0.3,0,0,1,9.1,35.562l-1.066.1a3.468,3.468,0,0,0-.446.05,0.946,0.946,0,0,1-.2.149l-0.719.05a0.227,0.227,0,0,0-.05.1,0.7,0.7,0,0,1-.322.025,0.085,0.085,0,0,1-.025.05A1.173,1.173,0,0,1,6,37.323,0.757,0.757,0,0,1,5.828,37.3c-0.012-.05-0.054-0.257-0.1-0.2a0.443,0.443,0,0,1,.025-0.223A0.711,0.711,0,0,0,5.7,36.6l0.05-.5a1.327,1.327,0,0,1-.347.025,0.127,0.127,0,0,1-.025-0.074l-0.918.1L4.39,37.348l-1.463-.124A2.565,2.565,0,0,1,2.728,37V36.182A2.436,2.436,0,0,1,2.7,35.339c-0.008-.6-0.052-1.208-0.05-1.835a0.52,0.52,0,0,1-.322-0.05,5.1,5.1,0,0,1-.025-1.19A6.636,6.636,0,0,1,2.282,31.1c-0.072-.336.054-0.8-0.025-1.166-0.072-.336.054-0.8-0.025-1.166a8.061,8.061,0,0,1-.05-1.339L2.009,27.4a1.143,1.143,0,0,1,.074-0.6,0.358,0.358,0,0,0,.149-0.1,0.648,0.648,0,0,1-.4-0.744,0.461,0.461,0,0,0,.074-0.248,1.551,1.551,0,0,0-.1-0.2l-1.86-3.67L0.1,21.8a1.129,1.129,0,0,0,.223.446c0.162,0.264.267,0.566,0.422,0.818s0.218,0.54.372,0.794c0.333,0.547.625,1.16,0.918,1.736a1.65,1.65,0,0,1,.322-0.174,0.893,0.893,0,0,1,.744.3,4.449,4.449,0,0,0,.446-0.546V24.3a3.613,3.613,0,0,0-.1-0.719H3.522a0.46,0.46,0,0,1,.025-0.3H3.572a0.385,0.385,0,0,0,.025.2,0.152,0.152,0,0,1,.05-0.05,0.421,0.421,0,0,0,.025.149c0.1,0,.112-0.012.149,0.05a1.229,1.229,0,0,0-.273.05c0.067,0.112.024,0.3,0.1,0.4,0.019,0.017.055,0.033,0.074,0.05a1.179,1.179,0,0,0-.025.446v1.141H3.72a0.644,0.644,0,0,1,.322-0.05,2.423,2.423,0,0,0,.025-0.645,0.167,0.167,0,0,1-.025-0.1L7.788,24.8l0.025,1.339H7.837V26.113a0.567,0.567,0,0,1,.372-0.422,0.355,0.355,0,0,1,.347,0c0.377,0.1.383,0.5,0.372,0.992h0.05a2.543,2.543,0,0,1,.694-0.05A0.12,0.12,0,0,1,9.7,26.56v0.074l0.818-.025a1.232,1.232,0,0,0,.05-0.422,1.772,1.772,0,0,1,0-.843l0.62-.025c0,0.45.037,0.855,0.05,1.265a10.5,10.5,0,0,0,1.711-.124v-0.2a0.513,0.513,0,0,0-.174.05v-0.05a1.2,1.2,0,0,1-.025-0.422,6.473,6.473,0,0,1-.05-0.769c-0.081-.02-0.038.012-0.074-0.05H12.7a2.042,2.042,0,0,1,0-.273,1.529,1.529,0,0,0-.3-0.149,4.647,4.647,0,0,1-.6.248,0.375,0.375,0,0,1-.05-0.1,1.69,1.69,0,0,0,.645-0.4H12.227a0.127,0.127,0,0,1-.074.025l-0.025-.347h0.05a1.507,1.507,0,0,0,.471-0.025,2.333,2.333,0,0,0-.025-0.347h-0.05a0.823,0.823,0,0,0-.347-0.025,0.509,0.509,0,0,1-.05-0.124c0.061-.032.017,0.011,0.05-0.05h-0.4c-0.036-.062-0.031-0.045-0.124-0.05-0.021-.081.012-0.038-0.05-0.074-0.032.061,0.011,0.017-.05,0.05v-0.1H7.019a3.348,3.348,0,0,1-.843.074V23.013a0.452,0.452,0,0,1,.149-0.025,1.574,1.574,0,0,0,.372.025,5.977,5.977,0,0,0,1.141.05h3.77v-0.1h0.05c0.032,0.061-.011.017,0.05,0.05V22.939c0.259-.016.677-0.024,1.042-0.025V22.74H12.8v0.074h0.149v-0.1H13a0.908,0.908,0,0,1,.347-0.05V22.393h-0.05a0.09,0.09,0,0,1-.05.025v-0.05c0.216-.019.458-0.108,0.67-0.124a1,1,0,0,0,.223.174,0.209,0.209,0,0,0-.124.248h0.124c0.038,0.13.158,0.11,0.322,0.1a0.751,0.751,0,0,0-.1-0.4,0.07,0.07,0,0,0,.025-0.025c0.043,0.02.046,0.065,0.074,0.025a2.148,2.148,0,0,0,.471-0.223A1.17,1.17,0,0,1,15.1,22c0.079-.025.023,0.062,0.074,0.05a1.391,1.391,0,0,1,.4-0.174,4.363,4.363,0,0,0,.3.62,0.127,0.127,0,0,0,.074.025v0.248a2.628,2.628,0,0,1,.942.347h0.719v0.05h-0.2a3.948,3.948,0,0,0,.1,1.389,0.368,0.368,0,0,1-.025.2,0.216,0.216,0,0,0,.223.05v0.025a1.125,1.125,0,0,1,.025.446,0.622,0.622,0,0,1-.2.025,0.749,0.749,0,0,0,.124.347,2.576,2.576,0,0,1,.025.67,2.668,2.668,0,0,0,.843-0.05,0.8,0.8,0,0,0,.074-0.521,2.053,2.053,0,0,1,0-.645l0.62-.025a0.315,0.315,0,0,0,.025.1H19.27V25.146a4.041,4.041,0,0,0,.446-0.694,1.282,1.282,0,0,0,.174-0.223,3.065,3.065,0,0,0-.05-1.017,1.615,1.615,0,0,1,.62-0.05c0.116-1.093.86-1.428,2.108-1.414V22.22h0.074v-0.3h0.223q0.012,0.62.025,1.24h0.124a0.448,0.448,0,0,0,.074.1,2.083,2.083,0,0,0-.05.818v2.009l1.86-.1,0.05-.521H24.825V23.931H24.8a0.152,0.152,0,0,1-.05.05V23.708h0.074v-0.1H24.751V23.46l0.074-.025a5.1,5.1,0,0,1,1.19-.025V23.36a6.519,6.519,0,0,0,.149-0.942H25.916a4.109,4.109,0,0,1-.818,0,1.694,1.694,0,0,1-.471-0.05H22.99V22.195c1.115,0,2.127-.027,3.2-0.025l0.1-.694h0.05v0.05c-0.036.062-.025,0.5-0.074,0.645h0.074V22.145h0.025V22.071c0.269,0,.389.047,0.645,0.05a0.848,0.848,0,0,1,.025-0.2,0.423,0.423,0,0,1-.2-0.273,2.384,2.384,0,0,0,.149-0.422,2.763,2.763,0,0,0,.694-0.1,0.712,0.712,0,0,1,.174.347,1.154,1.154,0,0,1,.025.521c0.286,0,.173.1,0.322,0.174H28.52V22.021h0.4v0.1l0.322,0.025v0.273H29.165v0.149H28.744v0.025a2.267,2.267,0,0,0,.273.273,1.208,1.208,0,0,0,.57.1v0.149a0.352,0.352,0,0,1-.1.025,0.369,0.369,0,0,0-.273-0.074v0.025a0.108,0.108,0,0,1,.074.074H29.264a0.634,0.634,0,0,0-.2-0.1v0.074a0.269,0.269,0,0,1,.025.149H29.066v-0.05c-0.168-.114-0.045-0.1-0.124-0.273-0.055-.117-0.25-0.232-0.322-0.372H28.595v0.124a1.082,1.082,0,0,0-.05.694h0.719a0.328,0.328,0,0,1,.05.2H29.24v0.1h0.074a1.313,1.313,0,0,1,0,.273l-0.074-.05v1.538H29.091l0.05,0.3h0.3a1.529,1.529,0,0,0,.025-0.422,1.365,1.365,0,0,1-.05-0.67l0.5-.025V23.708c-0.086,0-.082,0-0.074-0.149a0.47,0.47,0,0,0,.074-0.2h-0.1l0.025-.174h0.05a1.178,1.178,0,0,1,.446-0.025h1.141v-0.05a0.692,0.692,0,0,1,0-.4h0.05V22.74a0.78,0.78,0,0,1,.05.422c0.784,0,1.643,0,2.43,0a8.163,8.163,0,0,1,1.364.025v0.05a0.214,0.214,0,0,1,.025.124h-0.1c0.017,0.128.079,0.215,0.1,0.372H35.34a0.152,0.152,0,0,0-.05-0.05v0.248h0.3c0-.335-0.058-0.421-0.05-0.694,0.071-.028.046,0,0.074-0.074,0.1,0.022.036-.029,0.1-0.025s0.079,0.06.149,0.074l0.05,0.694a0.68,0.68,0,0,0,.223-0.025l0.025,0.149H35.911l0.05,0.744a0.314,0.314,0,0,1,.2.248H35.985v0.4l0.62-.025V24.328H36.531c0-1.219.017-2.3,0.1-3.447a0.337,0.337,0,0,0,.248-0.4,3.61,3.61,0,0,0,.025-0.918c0-.732-0.016-1.536-0.025-2.282H36.754l0.074,0.5h-0.05a0.315,0.315,0,0,0-.025-0.1H36.729a0.207,0.207,0,0,1-.025.124c0-.579,0-0.884,0-1.463h0.05v0.521a0.167,0.167,0,0,0-.025.1,0.453,0.453,0,0,0,.149.025v-0.05a5.118,5.118,0,0,0,0-1.364c-0.039-1.155.051-2.318,0-3.447H36.754v0.5H36.729V12.6a4.826,4.826,0,0,1-.05-0.818,7.815,7.815,0,0,0-.645-0.546,0.347,0.347,0,0,1,0-.124h0.05a2.72,2.72,0,0,0,.6.546V11.184h0.074v0.6a0.259,0.259,0,0,0,.149.05c0.005-.16-0.025-0.794-0.025-0.794H36.605v-0.1h0.223V10.861h0.1A1.5,1.5,0,0,1,37,10.712c0.036-.12-0.033-0.473,0-0.645,0.206-.056.285-0.015,0.273-0.3,0.006-.024.019-0.009,0-0.025-0.018-.056-0.1-0.188-0.149-0.124-0.238-.4-0.306-0.388-0.942-0.372a6.374,6.374,0,0,1-1.265.05,1.4,1.4,0,0,1,.273-1.215,2.974,2.974,0,0,1,1.042-.2,7.5,7.5,0,0,1,2.778.05,4.2,4.2,0,0,1,.744.124,0.921,0.921,0,0,1,.223.223c0.023,0.328,0,.671,0,1.017l-2.083-.05a0.62,0.62,0,0,1-.05.124c-0.014-.032,0-0.018-0.025-0.025a0.241,0.241,0,0,0-.1.273,0.085,0.085,0,0,1,.05.025H37.6c0.016,0.22.079,0.177-.025,0.347,0.122,0.046.132,0.121,0.124,0.3a0.521,0.521,0,0,0,.149.57v0.074h0.223a2.821,2.821,0,0,0,.05.992H38.49c0.036-.062.064-0.037,0.1-0.1a0.2,0.2,0,0,1,0-.248h0.05v0.174c0.075,0,.072-0.008.074,0.124,0.271,0.012.625,0.049,0.967,0.05v0.05H38.862a1.629,1.629,0,0,0-.67.645,2.709,2.709,0,0,1,.074.521c0.138,0.442.078,0.907,0.2,1.414,0.128,0.537.141,1.2,0.273,1.761l0.05,0.521c0.107,0.346.058,0.683,0.149,1.066l0.2,1.19,0.223,0.149a1.134,1.134,0,0,0,.2.3V17.954h-0.1a0.257,0.257,0,0,1,.05-0.174,4.536,4.536,0,0,1,1.091-.025h2.9a0.14,0.14,0,0,0,.149.1c0.125-.145.111-0.024,0.273-0.1a2.793,2.793,0,0,0,.223-0.248V17.483H43.723c-0.007-.162-0.048-0.229-0.05-0.422a0.389,0.389,0,0,1,.124-0.025,0.269,0.269,0,0,0,.174,0V16.912h0.422v0.174h0.322a0.868,0.868,0,0,1,.174-0.223,0.182,0.182,0,0,0,.124.05V16.491a0.6,0.6,0,0,0,.025-0.273,0.945,0.945,0,0,1,.248-0.174,0.09,0.09,0,0,0,.05.025V13.44a3.108,3.108,0,0,1-.025-0.818,12.639,12.639,0,0,0,.025-2.108C45.335,7.922,45.341,5.247,45.36,2.652ZM37.82,9.5a0.1,0.1,0,0,1,0,.124V9.5Zm-1.066,1.587a0.16,0.16,0,0,1,.1.025A0.16,0.16,0,0,1,36.754,11.084Zm1.736,0.422h0.372v0.025H38.837a0.823,0.823,0,0,1-.347.025v-0.05Zm6.374,5.307a0.089,0.089,0,0,1,.025.05H44.864v-0.05ZM28.024,21.872a0.089,0.089,0,0,1,.025.05H28.024v-0.05ZM28,21.922a0.089,0.089,0,0,1,.025.05H28v-0.05Zm-15.227.62a0.1,0.1,0,0,1,0,.124V22.542Zm-9.325.67H3.82v0.025H3.795a0.823,0.823,0,0,1-.347.025v-0.05Z" transform="translate(0.063 0)"/>
  </g>
</svg>
