<svg xmlns="http://www.w3.org/2000/svg" width="40" height="40" viewBox="0 0 40 40">
  <defs>
    <style>
      .cls-1 {
        fill: #fff;
        fill-rule: evenodd;
      }
    </style>
  </defs>
  <path id="Color_Fill_1" data-name="Color Fill 1" class="cls-1" d="M17.579,12.263a0.22,0.22,0,0,1,.135.044,2.047,2.047,0,0,0-.045.789v1.885a63.848,63.848,0,0,0,.179,7.408h0.135V22.3a1.975,1.975,0,0,0,.045-0.658c0.059-.167-0.08-0.7,0-0.877a7.041,7.041,0,0,0,.045-2.016h2.736a3.87,3.87,0,0,0,1.345.044h3.408a0.677,0.677,0,0,1,.045.219,8.815,8.815,0,0,0-.045,2.1h0.045V21.03a0.859,0.859,0,0,1,.134-0.219h1.211a6.6,6.6,0,0,1,1.031,0V20.767h0.045V20.241h0.09a0.163,0.163,0,0,0,.09.044V20.11a1.3,1.3,0,0,0,.045-0.57A46.607,46.607,0,0,1,33,19.584a5.568,5.568,0,0,1,.09.833c1.239-.04,1.158.239,1.121,1.4a2.079,2.079,0,0,0-.269.132h0.538l0.09,0.131L35.7,22.126l0.583,0.044,0.09-.175A0.941,0.941,0,0,1,37,21.951a0.786,0.786,0,0,1,.135.219,0.22,0.22,0,0,1,.045.132c0.914,0.089,1.725.534,2.556,0.526a8.023,8.023,0,0,0,0,1.052,0.5,0.5,0,0,1,.135.263H39.686v0.044H39.641v0.131H39.417v0.044H39.372v0.088h0.09c0.066-.111.02-0.068,0.179-0.088A0.435,0.435,0,0,0,40,24.8c-0.019.261-.084,0.4-0.09,0.7h-0.09l-0.045-.263H39.731v0.088a1.577,1.577,0,0,1-.09,1.227,2.427,2.427,0,0,1-.179.482,2.414,2.414,0,0,1-2.735.789,3.115,3.115,0,0,1-1.525-1.14,2.244,2.244,0,0,0-.314-0.833,9.393,9.393,0,0,1-2.87.131H25.83a4.65,4.65,0,0,1-1.121-.263,1.373,1.373,0,0,0-.538-0.438v0.044H24.126V25.37H24.3a4.444,4.444,0,0,1-.09.526,0.664,0.664,0,0,1-.493-0.219,2.174,2.174,0,1,1-4.26-.526H18.61a0.7,0.7,0,0,1-.673.175c0,0.672.028,1.477,0,2.017h-0.09V27.167a10.01,10.01,0,0,1,0-1.71H17.579a0.209,0.209,0,0,0-.045-0.131c-0.125.106-.009,0.042-0.179,0v0.351H17.085V25.238a1.245,1.245,0,0,0-.538-0.175,0.336,0.336,0,0,1-.269.088c-0.055-.308-0.141-0.372-0.538-0.351l0.045,0.526H15.471v0.351a1.278,1.278,0,0,0-.493.044,9.218,9.218,0,0,0-2.152-.088l0.045,0.482a2.092,2.092,0,0,1,.538.131V26.29H11.883V26.247h0.09a1.391,1.391,0,0,1,.448-0.131,0.6,0.6,0,0,0,.045-0.438,0.978,0.978,0,0,0-.449-0.044c-0.037.142,0.022,0.067-.09,0.131V25.633H11.749a0.535,0.535,0,0,1-.269.307,0.155,0.155,0,0,1-.09-0.044,0.494,0.494,0,0,1-.359-0.57c-0.731,0-.987.3-1.659,0.307a1.886,1.886,0,0,1-.628-0.307A2.736,2.736,0,0,1,7.8,25.238c-0.04-.048-0.045.044-0.045,0.044a0.3,0.3,0,0,0-.09.307,1.287,1.287,0,0,1-.269,1.1,2.71,2.71,0,0,1-2.915,1.184,2.426,2.426,0,0,1-1.3-1.1,10.5,10.5,0,0,0-.269-1.1,4.431,4.431,0,0,0-1.659,0,0.363,0.363,0,0,1,.359.131H0V25.764a0.892,0.892,0,0,0,.493-0.131,0.569,0.569,0,0,1-.045-0.307H0.314c0-.349.087-0.489,0.09-0.877H0.224a3.593,3.593,0,0,1,0-.877H0.359a6.369,6.369,0,0,0-.09-1.753,9.566,9.566,0,0,1,.045-2.06,20.836,20.836,0,0,0,2.422-.088V19.54H2.87V19.277a2.745,2.745,0,0,0,.314-0.132,3.3,3.3,0,0,1-.135-0.877,3.751,3.751,0,0,0-.987-0.044,0.725,0.725,0,0,1-.359.044l0.045-.438H2.2v0.131H2.915L2.87,17.129H2.915V17.085l0.314-.044L2.377,12.877l0.359-.044V12.789a0.22,0.22,0,0,1-.045-0.131H2.556l-0.09-.395h0.09a2.034,2.034,0,0,1,.9-0.175v0.088a1,1,0,0,1,.09.307,0.22,0.22,0,0,0-.135.044H3.587a0.6,0.6,0,0,1,.493-0.131,2.069,2.069,0,0,0,.314.219c0.016,0.4.169,0.6,0.179,1.052H4.888V13.71H4.933a10.674,10.674,0,0,0,.4,2.06H5.516l0.269,1.359c-0.031.09-.321,0.3-0.359,0.395a0.814,0.814,0,0,0,.09.351,1.871,1.871,0,0,0-.045.526H5.605c0,0.33.084,0.4,0.09,0.745a0.865,0.865,0,0,1-.314.132V19.54H5.516v0.131c0.709,0.046,1.448.085,2.242,0.088V19.627c0.18-.1.318-0.3,0.493-0.395a0.455,0.455,0,0,0,.224-0.044V18.751c0.52-.03.833-0.064,0.807,0.482-0.506.324-.146,2.267-0.269,2.893v0.789c0.176-.027.368-0.1,0.538-0.131a1.485,1.485,0,0,1,1.48.57,2.313,2.313,0,0,0,.179.351l0.583,0.438c0.048,0.1,0,.238.045,0.307L12.153,22.3a0.383,0.383,0,0,0,.224-0.044H12.242V22.126a0.22,0.22,0,0,0,.134-0.044,1.737,1.737,0,0,0,.045-0.964h0.493v0.175h0.224v0.7h0.538v0.132H13.139a0.209,0.209,0,0,1-.045.131V21.469H12.915a0.89,0.89,0,0,0-.09.219,2.8,2.8,0,0,1,.09.438h0.135v0.131a0.219,0.219,0,0,0-.135.044h0.224a22.757,22.757,0,0,0,.045,2.586H13.139a0.21,0.21,0,0,0-.314.044h0.493a1.8,1.8,0,0,1,.717-0.044V24.844a0.466,0.466,0,0,1-.045-0.263,0.647,0.647,0,0,1,.449-0.263v0.044h0.045v0.131h0.942a0.718,0.718,0,0,1,.269-0.175,0.674,0.674,0,0,1,.045.219h0.493a0.6,0.6,0,0,0,.269.351,0.606,0.606,0,0,0,.314.044l0.045-.263c0.361-.04.239-0.491,0.224-0.964a1.477,1.477,0,0,1-.224-0.175v0.044c-0.088.065,0.025,0.063-.134,0.088,0-.146.03-0.137-0.224-0.131,0,0.139.076,0.059-.045,0.131-0.059-.147-0.069-0.127-0.269-0.131a0.543,0.543,0,0,1-.045.175h-0.09V22.521a6.905,6.905,0,0,1,.045-1.534h0.045V21.03c0.029,0.038.06,0.138,0.09,0.175V21.118c0.086-.063.084,0.08,0.134,0.088a1.553,1.553,0,0,0,.493-0.088h0.045v0.088h0.045L17,20.986H17.04V21.03a3.259,3.259,0,0,1,.045,1.227h0.269c0.17-2.184.179-4.855,0.179-7.189A15.347,15.347,0,0,0,17.489,12h0.134v0.044A0.373,0.373,0,0,0,17.579,12.263ZM3.991,12.088h0.09C4.027,12.158,4.062,12.141,3.991,12.088Zm-0.224.044h0.09v0.044A0.154,0.154,0,0,1,3.767,12.132Zm-0.224.044h0.09v0.044A0.155,0.155,0,0,1,3.543,12.175Zm0.359,0h0.09v0.044A0.155,0.155,0,0,1,3.9,12.175Zm-0.224.044h0.09v0.044A0.154,0.154,0,0,1,3.677,12.219Zm0.314,0c0.039,0.082.021,0.032,0,.131H3.946Zm-0.224.044h0.09a0.271,0.271,0,0,1-.09.088v0.044H3.722Zm0.314,0a0.157,0.157,0,0,1,.045.088H4.081V12.263Zm-0.538.044a0.157,0.157,0,0,1,.045.088H3.543V12.307Zm0.628,6.4c0.043-.176.093-0.121,0.135-0.307-0.114-.064-0.051.01-0.09-0.131H3.9v0.044a0.29,0.29,0,0,1,.09.438H4.3V18.707H4.17Zm0.269-.395v0.219H4.484v0.044h0.09V18.488C4.681,18.4,4.516,18.354,4.439,18.312ZM4.35,18.4a0.209,0.209,0,0,0,.045.132A0.209,0.209,0,0,0,4.35,18.4ZM3.9,18.444v0.088H3.946A0.149,0.149,0,0,0,3.9,18.444Zm0.717,0.131a0.546,0.546,0,0,1-.045.175h0.09A0.279,0.279,0,0,0,4.619,18.575Zm17.668,0.132a0.964,0.964,0,0,1,.448.044A0.964,0.964,0,0,1,22.287,18.707Zm-13.229.57a0.556,0.556,0,0,0,.045.307A0.556,0.556,0,0,0,9.058,19.277Zm19.417,0.351a0.209,0.209,0,0,0,.045.131A0.209,0.209,0,0,0,28.475,19.627Zm4.619,0.833a2.881,2.881,0,0,0,.224,1.447,0.727,0.727,0,0,0,.538,0c-0.486-.02-0.335-0.8-0.314-1.271a2.08,2.08,0,0,0,.269-0.131A3.757,3.757,0,0,1,33.094,20.46Zm-4.888.131a0.361,0.361,0,0,0,.045.219A0.36,0.36,0,0,0,28.206,20.592Zm-2.646.57a0.279,0.279,0,0,0,.045.175A0.279,0.279,0,0,0,25.561,21.162Zm-13.318.131h0.134v0.132H12.242V21.293Zm13.318,0.088a2.846,2.846,0,0,0,.045,1.1A2.844,2.844,0,0,0,25.561,21.381ZM36.5,21.995a0.289,0.289,0,0,0-.135.219h0.09V22.17a1.567,1.567,0,0,1,.135-0.131A0.163,0.163,0,0,0,36.5,21.995Zm0.179,0.044a0.367,0.367,0,0,0-.09.131H36.547v0.044l0.359,0.044V22.214A0.483,0.483,0,0,0,36.682,22.038Zm0.224,0a0.228,0.228,0,0,0,.135.219,0.162,0.162,0,0,0,.09.044V22.258a0.31,0.31,0,0,1-.09-0.175Zm-19.551.877v1.271a0.558,0.558,0,0,1,.314-0.088,0.31,0.31,0,0,0-.045.307,0.483,0.483,0,0,0-.269.044c0.229,0.01.206,0.09,0.269,0a0.586,0.586,0,0,0,.359-0.132,0.838,0.838,0,0,1-.269.044V24.274h0.269V23.923l-0.4.044V23.88H17.8a0.555,0.555,0,0,0-.045-0.307v0.263H17.579V23.222a0.22,0.22,0,0,1-.135-0.044c0.114-.065.09-0.093,0.09-0.263H17.354Zm8.072,0.044a0.162,0.162,0,0,0,.09.044A0.164,0.164,0,0,0,25.426,22.959Zm-17,.219a0.133,0.133,0,0,0,.179,0H8.43Zm2.287,0.044c0,0.006.135,0.131,0.135,0.131A0.224,0.224,0,0,0,10.718,23.222Zm7.13,0.088a0.209,0.209,0,0,0,.045.131A0.209,0.209,0,0,0,17.848,23.31Zm0,0.263V23.88h0.09V23.573h-0.09Zm5.65,0.394a1.392,1.392,0,0,1-.449.132v0.044h0.493a0.533,0.533,0,0,0,.224.088V24.143A0.292,0.292,0,0,0,23.5,23.967Zm-4.978.438v0.131a5.518,5.518,0,0,0,1.57-.395V24.1H19.641a0.724,0.724,0,0,1-.359.044,1,1,0,0,1-.224.263H18.52ZM39.1,24.1v0.175l0.135,0.088A0.551,0.551,0,0,0,39.1,24.1Zm-21.435.438a2.732,2.732,0,0,0,.045.789H17.8V24.537H17.668Zm-5.247.307v0.088h0.045A0.149,0.149,0,0,0,12.422,24.844Zm1.928,0a0.261,0.261,0,0,0,.269.088V24.844H14.35Zm2.646,0c0.017,0.115-.033.057,0.09,0.088V24.844H17Zm6.682,0.438a0.209,0.209,0,0,0,.045.131,0.368,0.368,0,0,0,.09-0.131H23.677Zm-23.094.044a1.546,1.546,0,0,0-.045.307h0.09A0.567,0.567,0,0,0,.673,25.37,0.163,0.163,0,0,0,.583,25.326Zm0.628,0a0.656,0.656,0,0,0-.224.044L1.031,25.5H1.166a0.127,0.127,0,0,1,.045-0.044V25.326Zm8.43,0.131a0.163,0.163,0,0,0,.09.044A0.163,0.163,0,0,0,9.641,25.458Zm1.525,0.131v0.088h0.09V25.633H11.3V25.589H11.166Zm0.359,0.088,0.045,0.131h0.045V25.764a0.157,0.157,0,0,0,.045-0.088H11.525Zm-0.224.044c-0.008.11,0.011,0.1,0.179,0.132V25.808A0.278,0.278,0,0,0,11.3,25.721Zm3.543,0.044h0.09v0.044H14.888C14.857,25.814,14.8,25.811,14.843,25.764Zm-0.224.088H14.8V25.9a0.506,0.506,0,0,0-.09.131,0.156,0.156,0,0,1-.09-0.044C14.58,25.9,14.6,25.951,14.619,25.852Z"/>
</svg>
