<svg xmlns="http://www.w3.org/2000/svg" width="39.969" height="40" viewBox="0 0 39.969 40">
  <defs>
    <style>
      .cls-1 {
        fill: #fff;
        fill-rule: evenodd;
      }
    </style>
  </defs>
  <path id="us_t114_ico" class="cls-1" d="M14.3,10a5.619,5.619,0,0,1,.078.673h0.5V10h0.913v0.673h10.75v0.078h0.078V10.88h0.078v0.466H37.573v1.165H26.693a0.356,0.356,0,0,0-.078.285H26.536v-0.1c-0.522,0-1.017.066-1.513,0.1a0.75,0.75,0,0,0-.052.362h-3.94a7.817,7.817,0,0,0-1.618.052c-0.13.028-.293-0.006-0.391,0.026,0.228,0.382.546,0.724,0.809,1.087a0.9,0.9,0,0,1,.339.6h0.157a0.372,0.372,0,0,0,.209.259,0.762,0.762,0,0,1,.339,0,2,2,0,0,0,.026-0.544H20.378V14.556h0.6V14.478h0.183v0.078h0.313v0.078H21.239v0.544h0.418a1.062,1.062,0,0,1,1.07-.233l0.052-.233h0.209c0.017,0.117.056,0.121,0.078,0.233h0.183a1.677,1.677,0,0,1,1.122-.129,0.892,0.892,0,0,0,.731.129h2.061a0.564,0.564,0,0,1,.157.285,3.947,3.947,0,0,1,.7.026,0.472,0.472,0,0,1,.026.155,4.77,4.77,0,0,1,.835.207,1.556,1.556,0,0,0,.47.052,7.113,7.113,0,0,1,.731.233c0.835,0.251,1.664.333,2.5,0.569a5.085,5.085,0,0,0,.757.233v0.129a2.559,2.559,0,0,1,.548.129l1.644,0.311V17.2a1.525,1.525,0,0,1,.183-0.155H35.93c0.125-.056.213-0.263,0.339-0.337a1.329,1.329,0,0,1,1.044.052c0.023,0.019.029,0.033,0.052,0.052-0.012.069-.017,0.321-0.026,0.337a0.133,0.133,0,0,1-.078.026l-0.1.44c0.085,0,.2.062,0.261,0.052a0.941,0.941,0,0,1,.13-0.052c0.079,0.016.131,0.124,0.235,0.155v0.026h-0.13c0.027,0.125.1,0.127,0.13,0.259a3.57,3.57,0,0,1,.678.311,0.62,0.62,0,0,1,.783-0.44,0.661,0.661,0,0,1,.365.492,0.833,0.833,0,0,1-.026.466,0.66,0.66,0,0,1,.417.362,1.216,1.216,0,0,0-.183.388,5.158,5.158,0,0,0-.522,1.087c0.063,0.047.074,0.133,0.131,0.181a0.963,0.963,0,0,1,.548.828,1.089,1.089,0,0,1-.157.129,1.693,1.693,0,0,1-.887-0.026,6.133,6.133,0,0,1-.391.958,0.769,0.769,0,0,1-.183.414,1.374,1.374,0,0,0-.287-0.078c-0.075.3-.305,0.526-0.391,0.828a0.425,0.425,0,0,1,.157.026l-0.1.673a0.514,0.514,0,0,0-.235-0.1,0.532,0.532,0,0,1-.157.1c-0.023.019-.029,0.033-0.052,0.052a0.547,0.547,0,0,1,.052.233,0.223,0.223,0,0,1,.209.1,2.424,2.424,0,0,1-.5.518,0.349,0.349,0,0,0-.391-0.233,0.909,0.909,0,0,1-.078.078,0.129,0.129,0,0,1,.052.129,0.216,0.216,0,0,0-.052.078h0.026a0.514,0.514,0,0,0,.157.1v0.052a2.147,2.147,0,0,0-.574.388H36.164V26.127a0.42,0.42,0,0,0-.339-0.207c-0.088.034-.076,0.04-0.078,0.155,0.029,0.066-.038.048-0.026,0.1a0.891,0.891,0,0,0,.131.207,1.425,1.425,0,0,0-.548.362H35.277V26.722a0.5,0.5,0,0,0-.339-0.207,0.112,0.112,0,0,0-.1.1,2.144,2.144,0,0,1,.13.362,2.82,2.82,0,0,0-.574.362,0.956,0.956,0,0,1-.1-0.207,1.377,1.377,0,0,1-.235-0.026,0.251,0.251,0,0,0-.13.078,0.338,0.338,0,0,1,.052.311,0.767,0.767,0,0,0,.13.052H34.077a1.849,1.849,0,0,1-.6.388V27.913c-0.074-.064-0.039-0.081-0.1-0.129a0.674,0.674,0,0,0-.235-0.1,0.761,0.761,0,0,0-.1.13,0.174,0.174,0,0,1,.052.129,0.284,0.284,0,0,0-.078.052c0.089,0.08.117,0.116,0.183,0.181H33.138a1.817,1.817,0,0,1-.6.388l-0.078-.233a0.146,0.146,0,0,1-.183-0.078,0.677,0.677,0,0,1-.131.052,0.29,0.29,0,0,1-.1.259c0.05,0.062.084,0.148,0.13,0.207-0.292.033-.478,0.168-0.809,0.181a0.7,0.7,0,0,1,.026-0.233c-0.109-.009-0.1,0-0.13-0.078a0.132,0.132,0,0,1-.026-0.078H31.05a0.371,0.371,0,0,0,.026.13,0.155,0.155,0,0,0-.1.052,0.452,0.452,0,0,1,.026.207H30.946a2.579,2.579,0,0,1-.7.026,0.074,0.074,0,0,1,.026-0.026,2.245,2.245,0,0,0,.026-0.233H30.267a0.134,0.134,0,0,1-.078.026V28.586H29.954v0.155H29.876V28.715H29.9c0.05-.02-0.052-0.026-0.052-0.026a0.074,0.074,0,0,0-.026-0.026V28.9H29.9a0.075,0.075,0,0,1-.026.026,1.519,1.519,0,0,1-.7.052,0.691,0.691,0,0,0,.026-0.233H29.119a0.587,0.587,0,0,0,0-.155H28.885v0.155a0.333,0.333,0,0,1-.1-0.026V28.9s0.1,0,.052.026H28.78a1.415,1.415,0,0,1-.678.052,1.124,1.124,0,0,0-.052-0.388H27.815v0.155a0.333,0.333,0,0,1-.1-0.026V28.9s0.1,0,.052.026H27.71a1.319,1.319,0,0,1-.678.052,0.822,0.822,0,0,0-.052-0.388H26.771a0.144,0.144,0,0,1-.078.155c-0.034-.064.011-0.018-0.052-0.052V28.9c0.07,0.022-.011.016,0.052,0.052a1.916,1.916,0,0,1-.7.026c0-.074.021-0.01-0.026-0.078,0.058-.05.042-0.048,0.052-0.155H25.936l-0.026-.155H25.7a0.144,0.144,0,0,1-.078.155c-0.034-.064.011-0.018-0.052-0.052V28.9c0.07,0.022-.011.016,0.052,0.052a2,2,0,0,1-.731.026,0.441,0.441,0,0,0-.052-0.362,0.416,0.416,0,0,0-.209-0.026l-0.026.155H24.553c-0.034-.064.011-0.018-0.052-0.052V28.9c0.07,0.022-.011.016,0.052,0.052a2,2,0,0,1-.731.026,1.2,1.2,0,0,0-.026-0.388H23.562l-0.026.155H23.483c-0.034-.064.011-0.018-0.052-0.052V28.9s0.1,0,.052.026H23.431a1.241,1.241,0,0,1-.652.052c0-.045.026-0.207,0.026-0.207a0.246,0.246,0,0,1-.078-0.181H22.492l-0.026.155H22.414c-0.034-.064.011-0.018-0.052-0.052V28.9a0.127,0.127,0,0,1,.078.026H22.388a1.371,1.371,0,0,1-.678.052,0.074,0.074,0,0,1,.026-0.026,2.305,2.305,0,0,0,.026-0.233H21.735a0.134,0.134,0,0,1-.078.026V28.586H21.422v0.155a0.333,0.333,0,0,1-.1-0.026V28.9c0.07,0.022-.011.016,0.052,0.052a2,2,0,0,1-.731.026,0.693,0.693,0,0,0,.026-0.233H20.587a0.587,0.587,0,0,0,0-.155H20.352v0.155a0.333,0.333,0,0,1-.1-0.026V28.9s0.1,0,.052.026H20.248a1.415,1.415,0,0,1-.678.052,1.124,1.124,0,0,0-.052-0.388H19.283v0.155a0.332,0.332,0,0,1-.1-0.026V28.9s0.1,0,.052.026H19.178a1.319,1.319,0,0,1-.678.052,0.822,0.822,0,0,0-.052-0.388H18.239a0.144,0.144,0,0,1-.078.155c-0.034-.064.011-0.018-0.052-0.052V28.9c0.07,0.022-.011.016,0.052,0.052a1.916,1.916,0,0,1-.7.026c0-.074.021-0.01-0.026-0.078,0.058-.05.042-0.048,0.052-0.155H17.4l-0.026-.155H17.169a0.144,0.144,0,0,1-.078.155c-0.034-.064.011-0.018-0.052-0.052V28.9c0.07,0.022-.011.016,0.052,0.052a2,2,0,0,1-.731.026,0.441,0.441,0,0,0-.052-0.362,0.415,0.415,0,0,0-.209-0.026l-0.026.155H16.021c-0.034-.064.011-0.018-0.052-0.052V28.9c0.07,0.022-.011.016,0.052,0.052a2,2,0,0,1-.731.026,1.2,1.2,0,0,0-.026-0.388H15.029L15,28.741H14.951c-0.034-.064.011-0.018-0.052-0.052V28.9s0.1,0,.052.026H14.9a1.241,1.241,0,0,1-.652.052c0-.186-0.043-0.224-0.052-0.388H13.96l-0.026.155H13.881c-0.034-.064.011-0.018-0.052-0.052V28.9a0.127,0.127,0,0,1,.078.026H13.855a1.37,1.37,0,0,1-.678.052,0.074,0.074,0,0,1,.026-0.026,2.275,2.275,0,0,0,.026-0.233H13.2a0.134,0.134,0,0,1-.078.026V28.586H12.89v0.155H12.812V28.715h0.026c0.05-.02-0.052-0.026-0.052-0.026V28.664H12.759V28.9h0.078v0.026H12.812a1.519,1.519,0,0,1-.7.052,0.9,0.9,0,0,0,.026-0.233H12.055V28.586H11.82v0.155a0.332,0.332,0,0,1-.1-0.026V28.9s0.1,0,.052.026H11.716a1.415,1.415,0,0,1-.678.052l0.026-.233H10.985a0.587,0.587,0,0,0,0-.155H10.75v0.155a0.332,0.332,0,0,1-.1-0.026V28.9s0.1,0,.052.026H10.646a1.319,1.319,0,0,1-.678.052,0.822,0.822,0,0,0-.052-0.388H9.706v0.026H9.68v0.129a0.333,0.333,0,0,1-.1-0.026V28.9c0.07,0.022-.011.016,0.052,0.052a1.916,1.916,0,0,1-.7.026,0.134,0.134,0,0,0-.078-0.026V28.922H8.871A0.467,0.467,0,0,1,8.9,28.741a0.382,0.382,0,0,0-.209-0.155V28.56H8.663c0,0.128,0,.142-0.13.155-0.02.009-.017,0-0.026,0.1,0,0.027-.013.047-0.026,0.129a1.766,1.766,0,0,1-.731-0.129,0.969,0.969,0,0,0,0-.414,0.179,0.179,0,0,1-.1-0.052,0.183,0.183,0,0,0-.13.129,0.393,0.393,0,0,0-.1-0.052c0,0.064-.037.135-0.052,0.233H7.306c-0.16-.143-0.445-0.162-0.6-0.311a0.785,0.785,0,0,0,.1-0.388l-0.209-.1a0.293,0.293,0,0,1-.078.155,0.113,0.113,0,0,0-.078-0.078,0.26,0.26,0,0,1-.1.259,2.176,2.176,0,0,1-.6-0.337,0.574,0.574,0,0,0,.078-0.337,0.42,0.42,0,0,0-.13-0.1,1.383,1.383,0,0,1-.183.1c-0.014-.034,0-0.019-0.026-0.026a0.489,0.489,0,0,1-.13.233A2.159,2.159,0,0,1,4.775,27.4a0.887,0.887,0,0,0,.078-0.362,0.612,0.612,0,0,0-.209-0.078,0.249,0.249,0,0,1-.078.13c-0.045-.034-0.042-0.045-0.078-0.026a0.434,0.434,0,0,1-.1.207,5.075,5.075,0,0,1-.548-0.311,2.078,2.078,0,0,1,.052-0.388l-0.209-.1a0.294,0.294,0,0,1-.078.155c-0.03-.033-0.056-0.085-0.078-0.052a0.569,0.569,0,0,0-.052.233,2.19,2.19,0,0,1-.652-0.337A0.425,0.425,0,0,0,2.9,26.1a0.132,0.132,0,0,0-.13-0.052,0.494,0.494,0,0,0-.078.1c-0.059-.023-0.067-0.046-0.1-0.026a0.647,0.647,0,0,1-.157.181,4.856,4.856,0,0,1-.548-0.466,0.387,0.387,0,0,0,.235-0.337H2.087V25.48a0.4,0.4,0,0,1-.261-0.052,0.344,0.344,0,0,1-.183.078L1.513,25.3H0.939a0.177,0.177,0,0,0-.1-0.026,0.432,0.432,0,0,1-.157-0.259A2.2,2.2,0,0,1,.939,24.03L0.783,24C0.7,23.842.562,23.685,0.5,23.512a4.537,4.537,0,0,1-.13-0.673c-0.048-.23.159-0.683,0.1-0.828A1.4,1.4,0,0,1,.339,21.8a1.731,1.731,0,0,1,.052-0.751V17.869a0.854,0.854,0,0,1-.235-0.7,4.2,4.2,0,0,1,.235-0.362V15.384c0-.076.036-0.163,0.026-0.207a1.294,1.294,0,0,1-.365-0.932,0.679,0.679,0,0,1,.809-0.44c0.151-.165.464,0.094,0.5,0.181,0.062,0.088-.006.22,0.052,0.337a0.262,0.262,0,0,1,.1.129H1.357c-0.058.121-.187,0.225-0.235,0.337V14.97a0.823,0.823,0,0,1-.183.207,5.253,5.253,0,0,1,.052,1.45,0.6,0.6,0,0,0,.522.078V16.238H1.826a0.812,0.812,0,0,1,.235-0.492,0.279,0.279,0,0,1,.235.207c0.064-.016.077-0.061,0.1-0.026a0.2,0.2,0,0,0,.078.078,1.385,1.385,0,0,1,.548-0.285c0,0.128-.009.133,0.1,0.155l1.774-.518V15.2a0.268,0.268,0,0,1-.052-0.155H4.879V15.022l0.365-.078a0.956,0.956,0,0,0,.078.285H5.349V15.2c0.112-.134.056-0.281,0.313-0.285a5.2,5.2,0,0,1,.157-1.165l0.052-.6c0.1-.442.148-0.958,0.209-1.424H6.053V11.708a3.157,3.157,0,0,1-.417-0.078,0.509,0.509,0,0,0-.1-0.155,1,1,0,0,1,.026-0.311,0.819,0.819,0,0,0,.6-0.492A1.765,1.765,0,0,0,6.523,10.6c0.481-.111.939,0.168,1.461,0.052,0.341-.076.9-0.021,1.279-0.078H9.706c0.043,0.023-.007.063,0.078,0.078l4.1,0.026a5.618,5.618,0,0,1,.052-0.6ZM34.912,26.8h0.052v0.026A0.09,0.09,0,0,1,34.912,26.8ZM34,27.343h0.052v0.026A0.089,0.089,0,0,1,34,27.343Zm-25.492,1.6H8.558v0.026A0.089,0.089,0,0,1,8.506,28.948Z" transform="translate(-0.031 0.5)"/>
</svg>
