<?xml version="1.0" encoding="utf-8"?>
<!-- Generator: Adobe Illustrator 16.0.0, SVG Export Plug-In . SVG Version: 6.00 Build 0)  -->
<!DOCTYPE svg PUBLIC "-//W3C//DTD SVG 1.1//EN" "http://www.w3.org/Graphics/SVG/1.1/DTD/svg11.dtd">
<svg version="1.1" id="Layer_1" xmlns="http://www.w3.org/2000/svg" xmlns:xlink="http://www.w3.org/1999/xlink" x="0px" y="0px"
	 width="39.969px" height="40px" viewBox="0 0 39.969 40" enable-background="new 0 0 39.969 40" xml:space="preserve">
<path id="Color_Fill_1" fill="#FFFFFF" d="M9.132,14.751c0.945,0.068,1.894,0.031,2.83-0.11c0.075-0.434,0.093-0.876,0.053-1.315
	c0.193-0.327-0.089-1.1,0.107-1.425v2.356h0.16c0.058,0.081,0.095,0.175,0.107,0.274h0.16c-0.011-0.146-0.011-0.292,0-0.438
	c0.16-0.023,0.322-0.023,0.481,0v0.164c0.569-0.05,1.141-0.05,1.709,0c0.333-0.269,0.605-0.604,0.8-0.986h0.053v-0.054h-0.211
	v-0.219h-0.107c-0.459-0.076-0.924-0.113-1.389-0.11c0.021-0.161,0.087-0.069-0.053-0.164c-0.044,0.178,0.026,0.084-0.107,0.164
	c-0.024-0.164-0.024-0.33,0-0.493h0.427v-0.111c0.175-0.069,0.209,0.088,0.267,0.11c0.498,0.07,1.002,0.07,1.5,0
	c0.028-0.043,0.064-0.081,0.107-0.11v0.11c0.084,0.083,0.202,0.124,0.32,0.11c1.063,0.104,2.132,0.141,3.2,0.11v0.11H17.41
	c-0.431,0.136-0.888,0.174-1.335,0.11v0.384h-0.214v0.548h-0.053v0.055c-0.402,0.018-0.736,0.315-0.8,0.712h0.052v-0.056
	c0.066-0.119,0.185-0.2,0.32-0.219v0.164c0.185,0.177,0.441,0.258,0.694,0.219c0.233,0.178,0.509,0.291,0.8,0.329v-0.274h0.481
	c0.038,0.125,0.056,0.254,0.053,0.384c0.542,0.024,1.08,0.116,1.6,0.274c0.964,0.245,1.916,0.281,2.777,0.548
	c0.457,0.036,0.898,0.187,1.281,0.438c0.022,0.123,0.078,0.236,0.16,0.329c0.395,0.139,0.816,0.177,1.229,0.11h3.314
	c1.756,0,3.666,0.055,5.5,0.055h2.084c0.545-0.3,2.682,0.053,3.043-0.055c0.463-0.069,0.934-0.05,1.39,0.055
	c0.19,0.187,0.233,0.478,0.106,0.712c-0.514,0.058-1.031,0.077-1.549,0.055l-0.053,0.164h-2.938v-0.11h-7.209
	c-1.675-0.058-3.351-0.021-5.021,0.11v0.329c-0.651,0.407-1.909,0.149-2.83,0.329v0.22c0.192,0.312,0.285,0.674,0.267,1.041
	l-0.534,0.055v0.055h0.053c0.436,0.4,0.872,0.124,1.549,0.109c0,0.06,0.018,0.117,0.053,0.164c0.078-0.139-0.012-0.062,0.16-0.109
	v0.164c0.162,0.016,0.326-0.003,0.481-0.055v0.218c0.2,0.052,0.383,0.169,0.587,0.219c0.41,0.101,0.9-0.085,1.175,0
	c0.044-0.178-0.026-0.084,0.106-0.164c0.034,0.146,0.133,0.267,0.268,0.329c0.041-0.006,0.078-0.025,0.107-0.055
	c0.043-0.049,0.08-0.104,0.106-0.164l0.16,0.055c0.114,0.208,0.204,0.429,0.267,0.658h-0.16c-0.006,0.068-0.046,0.131-0.106,0.164
	c0.28,0.442,0.428,0.955,0.427,1.479h-0.053c-0.005-0.041-0.023-0.08-0.053-0.109v0.164c0.061,0.139,0.061,0.298,0,0.438
	c-0.047-0.041-0.061-0.068-0.107-0.109c0.031,0.088,0.031,0.185,0,0.273l-0.107-0.055v0.058h-0.053v0.056h0.053v-0.056
	c0.041-0.104,0.054,0.109,0.054,0.109h-0.054c-0.075,0.218-0.256,0.383-0.48,0.438l0.053-0.111h-0.053
	c-0.109,0.236-0.33,0.4-0.587,0.438l0.053-0.11h-0.053c-0.113,0.225-0.337,0.37-0.587,0.383c0,0,0.209,0.012,0.107,0.056h-0.108
	c-0.11,0.083-0.238,0.14-0.374,0.164c0,0,0.209,0.011,0.107,0.056h-0.106c-0.091,0.055-0.122,0.006-0.214,0.055
	c0,0,0.209,0.011,0.107,0.055H22.7c-0.131,0.136-0.298,0.23-0.481,0.273l0.053-0.109h-0.056c-0.028,0.029-0.066,0.049-0.106,0.055
	c0.029,0.105,0.088,0.047,0,0.11c-0.127,0.142-0.295,0.237-0.481,0.274l0.054-0.11h-0.053c-0.063,0.145,0.048,0.1-0.107,0.163
	c-0.57,0.312-1.226,0.428-1.869,0.332H4.593c-0.265-0.135-0.557-0.21-0.854-0.219c-0.415-0.367-0.839-0.822-1.282-1.151
	C2,24.271,0.748,23.521,0.694,22.971c-0.098-0.344-0.079-0.71,0.053-1.041h-0.16v-0.164c-0.194-0.03-0.393-0.03-0.587,0v-0.111
	c0.135-0.203,0.243-0.424,0.32-0.656c-0.154-0.034-0.265-0.171-0.267-0.329c-0.022-0.104,0.02-0.212,0.107-0.274
	c0.327-0.109,0.678-0.127,1.015-0.055c0.655-0.209,1.338-0.319,2.025-0.328v-0.055l-0.053-0.055h0.111
	c0.334,0.074,0.681,0.074,1.015,0c0.444,0.061,1.495-0.045,2.19-0.055v-0.111c-0.034-0.047-0.053-0.104-0.053-0.163
	c0.624-0.208,1.299-0.208,1.923,0c-0.076-0.007-0.151,0.013-0.214,0.055c0.873-0.036,1.747-0.019,2.617,0.056
	c-0.023,0.166-0.005,0.335,0.053,0.492v-0.164c0.21-0.027,0.411-0.103,0.588-0.22c0.029-0.03,0.047-0.069,0.053-0.11h-0.642v-0.328
	c0.327-0.065,0.648-0.157,0.961-0.273l-0.32-1.041H9.72c-0.153-0.093-0.433,0.022-0.641-0.055c-0.272-0.1-0.393-0.5-0.694-0.6
	c-0.6-0.2-1.208,0.159-1.549-0.274c-0.284-0.369,0.07-1.169,0.16-1.589c0.063-0.3-0.044-0.474,0-0.712h1.442
	c0.171-0.062,0.354-0.081,0.534-0.055c0.028-1.044,0.053-2.27,0.053-3.4c-0.063-0.456-0.045-0.92,0.054-1.37
	C9.075,11.557,9.03,13.268,9.132,14.751z M13.832,12.451v0.11h0.053v-0.056h0.053C13.91,12.476,13.872,12.457,13.832,12.451
	L13.832,12.451z M16.876,13.051c0.25-0.037,0.506-0.018,0.748,0.055c-0.25,0.038-0.506,0.02-0.748-0.053V13.051z M12.71,14.094
	c0.032,0.061,0.092,0.103,0.16,0.11C12.823,14.159,12.769,14.122,12.71,14.094z M16.982,14.806c0,0.059,0.018,0.117,0.053,0.164
	c0.071-0.08,0.164-0.136,0.267-0.164H16.982z M39.413,16.884c-0.116,0.137-0.175,0.314-0.16,0.493
	c0.028,0.03,0.047,0.068,0.054,0.109h0.106c0.081,0.045,0.175,0.065,0.267,0.055c0.109-0.12,0.166-0.277,0.16-0.438
	c-0.054-0.075-0.128-0.132-0.214-0.164C39.563,16.898,39.488,16.879,39.413,16.884z M9.613,19.514
	c0.093-0.01,0.187,0.01,0.267,0.055c-0.092,0.013-0.186-0.006-0.267-0.051V19.514z M20.24,19.957
	c-0.028,0.07-0.046,0.145-0.053,0.219h0.107v-0.219H20.24z M0.694,20.341c0.029,0.029,0.066,0.049,0.107,0.056
	C0.772,20.366,0.735,20.347,0.694,20.341L0.694,20.341z M0.213,20.451c-0.026,0.061-0.063,0.115-0.107,0.164l0.054,0.164
	c0.068,0.029,0.14,0.047,0.214,0.055v-0.055C0.352,20.656,0.297,20.543,0.213,20.451L0.213,20.451z M3.2,23.792v0.11h0.111v-0.11
	H3.2z M2.559,24.066v0.109H2.67v-0.055L2.559,24.066z M2.777,24.284c0.032,0.061,0.092,0.103,0.16,0.11v-0.11H2.777z M8.758,25.161
	c0.058,0.001,0.115-0.019,0.16-0.056c0.041-0.066,0.06-0.144,0.054-0.222c-0.015-0.168-0.051-0.333-0.107-0.493l-0.16,0.055
	c-0.066,0.172-0.176,0.324-0.32,0.438c0.036,0.106,0.054,0.218,0.053,0.329h0.107c0.065-0.091,0.1,0.021,0.107-0.273H8.7v-0.056
	h0.058v0.274V25.161z M3.044,24.449v0.109H3.2v-0.054L3.044,24.449z M13.672,25.161h0.214v-0.277h0.053v0.11
	c0.037,0.068,0.092,0.125,0.16,0.164c0.029,0.029,0.066,0.049,0.107,0.055v-0.329c-0.083-0.134-0.137-0.282-0.16-0.438h-0.054v0.056
	C13.798,24.668,13.683,24.906,13.672,25.161L13.672,25.161z M16.342,25.161v-0.277H16.4v0.11c0.031,0.087,0.086,0.163,0.16,0.219
	c0.065-0.091,0.1,0.021,0.107-0.273h0.053v-0.056h0.053v0.274c0.058,0,0.115-0.02,0.16-0.055C16.981,25,17,24.887,16.986,24.773
	c-0.055-0.102-0.091-0.213-0.107-0.328H16.5l-0.374,0.712h0.214L16.342,25.161z M19.226,25.161h0.16v-0.277h0.053v0.056
	c0.115,0.149,0.041,0.213,0.267,0.273c-0.032-0.337-0.179-0.4-0.214-0.768h-0.266c-0.087,0.264-0.194,0.521-0.32,0.768h0.16
	l0.107-0.329h0.053v0.274V25.161z M21.79,24.668c0.173-0.045,0.081,0.027,0.16-0.109h-0.107v-0.054h-0.054L21.79,24.668
	L21.79,24.668z M11.216,25.161h0.214v-0.277h0.053v0.11c0.04,0.066,0.058,0.143,0.053,0.219c0.074-0.006,0.146-0.025,0.214-0.055
	v-0.051H11.7c-0.062-0.169-0.133-0.334-0.214-0.493l-0.107,0.055C11.277,24.813,11.22,24.985,11.216,25.161L11.216,25.161z
	 M3.259,24.668c0.032,0.061,0.092,0.103,0.16,0.109v-0.109H3.259L3.259,24.668z M5.983,24.832c-0.014,0.109-0.014,0.22,0,0.329
	l0.214,0.055v-0.218c-0.063-0.064-0.136-0.121-0.216-0.165L5.983,24.832z M5.876,25.161v-0.218H5.821v0.055H5.768l-0.053,0.164
	L5.876,25.161L5.876,25.161z M9.027,24.941c-0.006,0.115,0.057,0.224,0.16,0.274v-0.11C9.13,25.055,9.076,25,9.025,24.943
	L9.027,24.941z M11.11,25.216c0.001-0.094,0.02-0.187,0.053-0.274h-0.055l-0.214,0.274h0.214H11.11z M8.333,25.161
	c-0.044-0.179,0.026-0.084-0.107-0.164c-0.029,0.029-0.066,0.049-0.107,0.055v0.056h0.052c0.046,0.035,0.102,0.055,0.16,0.055
	L8.333,25.161z M17.033,24.997l0.053,0.219H17.2v-0.11L17.033,24.997z M13.508,25.107v0.055h-0.05
	c-0.1,0.043,0.107,0.055,0.107,0.055c-0.005-0.041-0.024-0.08-0.054-0.109H13.508z M5.444,25.162
	c0.029,0.029,0.066,0.049,0.107,0.055c-0.028-0.029-0.064-0.048-0.104-0.055H5.444z M20.932,25.762
	c0.028,0.029,0.065,0.049,0.106,0.055c-0.028-0.027-0.064-0.045-0.103-0.051L20.932,25.762z"/>
</svg>
