<?xml version="1.0" encoding="utf-8"?>
<!-- Generator: Adobe Illustrator 16.0.0, SVG Export Plug-In . SVG Version: 6.00 Build 0)  -->
<!DOCTYPE svg PUBLIC "-//W3C//DTD SVG 1.1//EN" "http://www.w3.org/Graphics/SVG/1.1/DTD/svg11.dtd">
<svg version="1.1" id="Layer_1" xmlns="http://www.w3.org/2000/svg" xmlns:xlink="http://www.w3.org/1999/xlink" x="0px" y="0px"
	 width="40px" height="40px" viewBox="0 0 40 40" enable-background="new 0 0 40 40" xml:space="preserve">
<path id="us_t20_ico" fill="#FFFFFF" d="M13.678,12.188c0,0.439-0.068,0.739-0.071,1.126h0.517
	c-0.005,0.058,0.012,0.115,0.047,0.161c0.281-0.06,0.556-0.144,0.822-0.253c-0.045-0.027-0.028,0-0.024-0.046
	c0.048-0.18,0.179-0.325,0.354-0.391c0.422-0.031,0.846-0.039,1.269-0.023c0.108-0.024,0.218-0.039,0.329-0.046v-0.16h0.047
	c0.072-0.044,0.212,0.016,0.306-0.023c0.049-0.044,0.097-0.09,0.141-0.138c0.028-0.017,0.019,0.015,0.024,0.023
	c0.063,0.087,0.096,0.192,0.094,0.3l0.541,0.046c-0.003-0.127,0.099-0.233,0.226-0.236c0.019,0,0.038,0.001,0.056,0.006
	c0.059,0.064,0.1,0.144,0.117,0.23h0.564c0.1,0.028,0.186,0.1,0.282,0.138v-0.53c0.018-0.027,0.026-0.06,0.024-0.092
	c-0.094,0.002-0.189-0.006-0.282-0.023c0.008-0.101,0-0.202-0.023-0.3c-0.288-0.139-0.622-0.147-0.916-0.023H18.1v0.069h-0.121
	c-0.01-0.055-0.026-0.109-0.047-0.161h-0.917c-0.045,0.042-0.104,0.066-0.165,0.069V11.89h0.024c0.04-0.025,0.066-0.068,0.07-0.115
	c-0.053-0.017-0.109-0.024-0.165-0.023c-0.043,0.021-0.093,0.029-0.141,0.023v-0.184h-0.093v-0.207h0.094v-0.253
	c0.235,0.007,0.4-0.018,0.635-0.023v-0.092c0.104-0.042,0.217-0.057,0.329-0.046c0.055,0.137,0.059,0.149,0.306,0.138
	c0.138,0.034,0.282,0.042,0.423,0.023h1.058v-0.115h0.024c0.101,0.018,0.203,0.026,0.305,0.023c0.046,0.072-0.016,0.095,0.165,0.092
	c0.013-0.012,0.029-0.021,0.047-0.023v-0.161h0.094c0.008,0.093,0.023,0.186,0.047,0.276c0.436,0.065,0.877,0.081,1.316,0.046v0.069
	c1.241,0.005,2.586,0.044,3.83,0.046v0.207h-3.174v0.025c0.016,0.02,0.023,0.044,0.023,0.069h-0.094
	c0.004,0.04-0.004,0.08-0.023,0.115v-0.117h-0.282c0.005,0.04-0.004,0.08-0.024,0.115c0-0.122,0-0.129-0.117-0.138
	c-0.063-0.036-0.387,0.04-0.563,0.023c-0.282-0.027-0.457,0.021-0.846,0.023c-0.044,0.181-0.061,0.367-0.047,0.552h-0.047
	c-0.066,0.039-0.24,0.006-0.305,0.046c0.102,0.231,0.126,0.49,0.07,0.736h0.047c0.022-0.058,0.079-0.096,0.141-0.092
	c0.04,0.064,0.006,0.235,0.047,0.3c0.06,0.023,0.125,0.031,0.188,0.023c0.075-0.106,0.075,0.005,0.165-0.046l0.4-0.345
	c-0.07-0.123-0.178-0.219-0.306-0.276c-0.043,0.07-0.063,0.039-0.141,0.023v-0.094c-0.029-0.036-0.015-0.012,0-0.046
	c0.016-0.1,0.02-0.1,0.117-0.115c0.021,0.045,0.067,0.072,0.117,0.069c0.106-0.272,0.395-0.428,0.682-0.368
	c-0.006-0.048,0.002-0.096,0.023-0.138v0.115h1.08v0.023c-0.012,0.012-0.021,0.028-0.023,0.046h-0.775v0.115H21.6
	c0.256-0.134,0.33,0.909,0.33,1.149h0.047c0.104,0.04,0.217,0.056,0.328,0.046c0.317-0.221,0.125-0.568,0.776-0.414
	c0.071,0.069,0.135,0.146,0.188,0.23c0.064,0.189-0.062,0.316,0.141,0.368c0.138,0.039,0.279,0.062,0.423,0.069
	c0.069,0.02,0.13,0.07,0.212,0.092c0.037,0.083,0.068,0.167,0.094,0.253c0.055-0.012,0.109-0.019,0.166-0.023
	c0.021,0.032,0.045,0.063,0.07,0.092c0.031,0.011,0-0.013,0.023-0.022c0.113-0.042,0.238-0.042,0.353,0
	c0.071,0.091,0.104,0.207,0.095,0.322c-0.088,0.067-0.167,0.144-0.236,0.23c0.106,0.063,0.209,0.132,0.307,0.207
	c0.033-0.161,0.15-0.292,0.307-0.345h0.047c0.023,0.175,0.106,0.337,0.234,0.46c0.331,0.068,0.669,0.091,1.006,0.069v0.115
	L40,15.223v0.6l-13.49,0.138v0.115h-0.047c-0.21,0.032-0.423,0.039-0.635,0.023c-0.112,0.023-0.301,0.046-0.4,0.069
	c-0.012,0.173-0.098,0.332-0.234,0.438c-0.278-0.247-0.291-0.086-0.213-0.506h-0.021c-0.04,0.112-0.141,0.192-0.259,0.207
	c0.007,0.226,0.079,0.354,0.094,0.551c-0.049,0.033-0.106,0.049-0.165,0.047c-0.091,0.027-0.188,0.035-0.281,0.022
	c-0.082,0.066-0.153,0.144-0.213,0.23c0.137-0.003,0.272,0.021,0.4,0.069h0.611c0.082-0.096,0.188-0.168,0.306-0.211
	c0.024,0.066,0.032,0.138,0.022,0.207h0.142c0.028-0.082,0.034-0.084,0.141-0.092c0.216,0.115,0.467,0.147,0.705,0.092
	c0.024,0.178,0.08,0.35,0.165,0.506c0.028,0.018,0.061,0.025,0.094,0.023c0.035-0.059,0.01-0.036,0.094-0.046
	c0.062,0.104,0.086,0.226,0.07,0.345c0.118,0.19,0.303,0.33,0.518,0.391c0.013,0.013,0.029,0.021,0.047,0.023
	c0.035-0.279,0.27-0.33,0.564-0.3c0.056,0.075,0.118,0.144,0.188,0.207v0.114c0.18-0.008,0.244-0.084,0.445-0.092v0.092H28.7
	c0.028,0.018,0.062,0.025,0.094,0.023v0.115l0.235,0.046v-0.3h0.188v0.275c0.335,0,0.584,0.043,0.893,0.047
	c0.154,0.14,0.329,0.256,0.518,0.345c0.078,0.094,0.148,0.194,0.211,0.3c-0.01,0.033-0.025,0.064-0.047,0.092h0.939
	c0.092,0.028,0.188,0.036,0.283,0.023v0.207c-0.479,0-0.996,0.021-1.5,0.023c-0.037,0.055-0.086,0.102-0.142,0.138
	c0.017,0.026,0.062,0.049,0.069,0.069v0.137c0.029,0.021,0.061,0.037,0.095,0.047c0.076,0.082,0.14,0.175,0.188,0.275
	c0.039,0.145,0.07,0.29,0.094,0.438c-0.042,0.033-0.061,0.087-0.047,0.138c0.067,0.229,0.051,0.474-0.047,0.69l-0.095,0.068v0.161
	c-0.045,0.105-0.101,0.206-0.165,0.3c-0.08,0.105-0.176,0.198-0.281,0.276h-0.102c-0.029,0.052-0.053,0.105-0.071,0.161
	c-0.053,0.049-0.355,0.3-0.399,0.322c-0.028-0.018-0.062-0.026-0.094-0.023c-0.06,0.03-0.084,0.164-0.142,0.207
	c-0.095,0.085-0.197,0.162-0.306,0.23c-0.047,0.021-0.069-0.051-0.116,0v0.092c-0.017,0.023-0.349,0.285-0.376,0.3h-0.117
	c-0.021,0.036-0.037,0.074-0.047,0.115c-0.092,0.096-0.193,0.181-0.305,0.253l-0.213,0.068v0.093
	c-0.011,0.017-0.354,0.288-0.375,0.3c-0.027-0.019-0.062-0.027-0.095-0.023c-0.06,0.094-0.131,0.178-0.212,0.254
	c-0.162,0.037-0.328,0.053-0.494,0.045c-0.027,0.027-0.051,0.059-0.07,0.093c-0.1,0.028-0.201,0.052-0.305,0.069
	c-0.127,0.016-0.256,0-0.376-0.047H25.9c-0.191,0.057-0.391,0.072-0.588,0.047c-0.027-0.038-0.072-0.057-0.117-0.047l-0.023,0.047
	c-0.197,0.029-0.398,0.014-0.588-0.047h-0.07c-0.189,0.059-0.391,0.074-0.587,0.047c-0.015-0.044-0.063-0.066-0.105-0.052
	c-0.004,0.001-0.008,0.003-0.011,0.005l-0.024,0.047c-0.197,0.029-0.398,0.014-0.588-0.047c-0.082-0.022-0.07,0.035-0.095,0.047
	h-0.519c-0.056-0.037-0.122-0.054-0.188-0.047l-0.023,0.047c-0.189,0.031-0.383,0.016-0.564-0.047
	c-0.217,0.038-0.438,0.054-0.658,0.047v-0.053H21.1c-0.025-0.002-0.051,0.006-0.07,0.023l-0.023,0.022
	c-0.229,0.007-0.457-0.009-0.682-0.046L20.3,24.97c-0.228,0.005-0.456-0.011-0.681-0.046l-0.023,0.046
	c-0.224,0.077-0.554-0.057-0.682,0c-0.221,0.012-0.441-0.004-0.658-0.046l-0.023,0.046c-0.197,0.03-0.398,0.015-0.588-0.046
	c-0.045-0.01-0.091,0.008-0.117,0.046c-0.189,0.03-0.382,0.015-0.564-0.046h-0.113l-0.023,0.046
	c-0.189,0.032-0.383,0.017-0.564-0.046c-0.017-0.007-0.363,0.047-0.47,0.046c-0.073-0.002-0.145-0.018-0.212-0.046
	c-0.065-0.002-0.131,0.014-0.188,0.046H14.9c-0.026-0.037-0.072-0.056-0.117-0.046l-0.024,0.046
	c-0.189,0.03-0.382,0.015-0.564-0.046c-0.049-0.015-0.341,0.046-0.47,0.046s-0.3-0.059-0.352-0.046l-0.024,0.046h-0.376
	c-0.09-0.032-0.186-0.048-0.282-0.046v0.046c-0.228,0.015-0.457-0.001-0.681-0.046c-0.189,0.063-0.39,0.078-0.587,0.046
	c-0.015-0.043-0.062-0.066-0.105-0.052c-0.004,0.002-0.008,0.004-0.012,0.006c-0.199,0.062-0.412,0.062-0.611,0
	c-0.049-0.014-0.216,0.046-0.329,0.046c-0.141-0.021-0.283-0.021-0.423,0c-0.2,0.069-0.513-0.054-0.635,0
	c-0.221,0.01-0.441-0.006-0.658-0.046c-0.174,0.06-0.359,0.075-0.541,0.046c-0.029-0.009-0.02-0.063-0.094-0.046L7.991,24.97
	c-0.174,0.026-0.351,0.011-0.517-0.046H7.427c-0.062,0-0.042,0.036-0.071,0.046c-0.212,0.01-0.424,0.002-0.635-0.022L6.7,24.97
	c-0.213,0.007-0.426-0.009-0.635-0.046L6.042,24.97c-0.137,0.015-0.275-0.01-0.4-0.069L5.43,24.878
	c-0.035-0.014-0.059-0.08-0.094-0.092l-0.212,0.022c-0.029-0.011-0.389-0.199-0.423-0.229l-0.047-0.115
	c-0.082-0.048-0.19-0.006-0.259-0.048c-0.129-0.061-0.254-0.127-0.376-0.2l-0.07-0.114H3.807c-0.165-0.07-0.322-0.154-0.47-0.254
	c-0.009-0.029-0.017-0.061-0.023-0.092c-0.061-0.018-0.125-0.025-0.188-0.023c-0.14-0.056-0.273-0.125-0.4-0.207
	c-0.052-0.031-0.1-0.137-0.141-0.16c-0.041-0.011-0.084-0.002-0.118,0.022C2.394,23.35,2.292,23.3,2.208,23.25
	c-0.095-0.049-0.182-0.11-0.259-0.184c-0.011-0.042-0.027-0.082-0.049-0.119c-0.091-0.025-0.179-0.064-0.259-0.115
	c-0.063-0.098-0.133-0.19-0.212-0.275H0.987v-0.162H0.658c-0.042,0.055-0.185,0.14-0.212,0.185c-0.027,0.045,0,0.089-0.024,0.114
	c0.005-0.039-0.002-0.079-0.022-0.114c-0.082-0.048-0.168-0.087-0.259-0.115C0.088,22.408,0.041,22.346,0,22.28
	c-0.019-0.194,0.061-0.384,0.212-0.507c0.056-0.036,0.122-0.053,0.188-0.045l-0.024-0.345h0.047
	c0.122,0.116,0.234,0.226,0.353,0.345L0.8,22.098h0.187v-0.162h0.165v-0.045c-0.07-0.327-0.062-0.666,0.024-0.988l-0.611-0.301
	c-0.01,0.026-0.027,0.108-0.047,0.047c-0.125-0.066-0.193-0.207-0.165-0.346c0.296-0.135,0.56-0.331,0.776-0.574
	C1.045,19.354,1.07,18.963,1.2,18.602H1.011v-0.045c0.093,0.001,0.177-0.055,0.211-0.141c0,0.025,0.008,0.049,0.024,0.068
	c0.028-0.017,0.061-0.024,0.094-0.022l-0.023-0.229c-0.183-0.118-0.38-0.211-0.588-0.276v-0.112
	c0.173,0.002,0.347-0.013,0.517-0.046L1.058,16.74l0.235-0.047l0.188,1.08l2.961-0.229c0.271,0.032,0.544,0.001,0.8-0.092
	c0.015-0.021,0.023-0.044,0.023-0.069l0.188-0.023c0,0.025,0.008,0.05,0.023,0.069c0.013-0.013,0.029-0.021,0.047-0.022
	c0.01,0.082-0.011,0.058,0.047,0.092c0.012-0.1,0.033-0.082,0.047-0.184c0.056-0.002,0.111-0.01,0.165-0.023
	c0.022,0.059,0.054,0.113,0.094,0.161c0.176-0.054,0.357-0.085,0.541-0.093c0.368-0.09,0.83-0.17,1.175-0.252v-0.068
	c0.056-0.023,0.036-0.023,0.093-0.046c0.034,0.058-0.005,0.026,0.071,0.046v0.068c0.061,0.023,0.124,0.039,0.188,0.047
	c0.038-0.075,0.095-0.139,0.165-0.185h0.516c0.09,0.062,0.197,0.095,0.306,0.093V16.9c0.217-0.035,0.438-0.043,0.658-0.022
	l0.024,0.069c0.019,0.035,0.027,0.075,0.023,0.115c0.109,0,0.215,0.031,0.306,0.092c0.25,0.025,0.501,0.033,0.752,0.022
	c0.282,0.009,0.565,0.001,0.846-0.022c0.091-0.061,0.197-0.092,0.306-0.092V16.9c0.217-0.035,0.438-0.043,0.658-0.022
	c0.018,0.071,0.041,0.14,0.07,0.207c0.1-0.03,0.207-0.003,0.282,0.069l0.987-0.023v0.161c0.072-0.011,0.143-0.026,0.212-0.046
	c-0.012-0.2-0.045-0.469-0.071-0.645c-0.442,0.082-0.898,0.008-1.293-0.207c-0.121-0.285-0.145-0.601-0.07-0.9
	c0.023-0.445,0.046-0.889,0.07-1.333c0.025-0.089,0.115-0.18,0.141-0.253l0.047-0.6c0.206,0,0.3,0,0.517,0
	c0-0.381-0.068-0.685-0.071-1.126l0.117-0.023v-0.385c0.043-0.427,0.051-0.858,0.024-1.287V8.216c-0.025-0.4-0.018-0.801,0.024-1.2
	c0.013,0.012,0.021,0.028,0.024,0.046c0.035,0.135,0.042,0.276,0.024,0.414v0.989c0,1.232,0.026,2.5,0.023,3.7h0.047
	C13.628,12.18,13.653,12.188,13.678,12.188z M21.622,11.797c0.008,0.007,0.047,0.012,0.022,0.046
	C21.619,11.832,21.572,11.803,21.622,11.797L21.622,11.797z M21.975,11.797c0.025,0.038,0.041,0.025,0,0.046V11.797L21.975,11.797z
	 M21.48,11.843c0.04-0.004,0.08,0.004,0.117,0.023C21.557,11.871,21.517,11.863,21.48,11.843L21.48,11.843z M22.021,11.843
	c0.048-0.006,0.097,0.002,0.141,0.023C22.113,11.872,22.064,11.865,22.021,11.843L22.021,11.843z M21.316,11.866
	c0.04-0.005,0.081,0.003,0.117,0.023C21.393,11.894,21.352,11.886,21.316,11.866L21.316,11.866z M22.209,11.866
	c0.033-0.003,0.066,0.005,0.094,0.023C22.27,11.892,22.237,11.884,22.209,11.866L22.209,11.866z M21.27,11.889
	c0.012,0.012,0.02,0.028,0.022,0.046H21.27V11.889L21.27,11.889z M22.327,11.889c0.013,0.012,0.021,0.028,0.024,0.046h-0.024V11.889
	L22.327,11.889z M22.35,11.936c0.027,0.034,0.027,0.082,0,0.115V11.936z"/>
</svg>
