<?xml version="1.0" encoding="utf-8"?>
<!-- Generator: Adobe Illustrator 16.0.0, SVG Export Plug-In . SVG Version: 6.00 Build 0)  -->
<!DOCTYPE svg PUBLIC "-//W3C//DTD SVG 1.1//EN" "http://www.w3.org/Graphics/SVG/1.1/DTD/svg11.dtd">
<svg version="1.1" id="Layer_1" xmlns="http://www.w3.org/2000/svg" xmlns:xlink="http://www.w3.org/1999/xlink" x="0px" y="0px"
	 width="40px" height="40px" viewBox="0 0 40 40" enable-background="new 0 0 40 40" xml:space="preserve">
<path id="Color_Fill_1" fill="#FFFFFF" d="M15.258,8.431c0.075,0,0.147-0.024,0.206-0.07c0.043-0.184,0.066-0.372,0.069-0.561
	c0.061-0.663,0.353-1.284,0.825-1.754c1.606-0.515,3.329-0.54,4.949-0.07c0.729,0.435,0.933,1.657,0.961,2.807l1.924,0.561
	c0.777,0.051,1.541,0.217,2.269,0.491c0.366,0.225,0.69,0.509,0.962,0.842c0.053,0.17,0.121,0.335,0.206,0.491h1.306
	c0.528-0.026,1.058-0.003,1.582,0.07c1.271,0.01,2.748,0.057,4.123,0.07v0.281c-2.313-0.006-4.5,0.134-6.666,0.14l0.068,0.421
	c1.907,0.01,4.555,0.155,6.667,0.14v0.351c-1.147-0.006-2.399,0-3.711,0h-1.513c-0.382,0.093-0.773,0.14-1.168,0.14v0.14
	c0.045,0.062,0.069,0.135,0.069,0.211c1.841-0.018,4.081,0.136,6.255,0.14v0.281c-1.214-0.014-2.718,0-4.125,0
	c-0.648-0.081-1.308-0.009-1.924,0.21c0.309,0.386,0.071,0.717,0.825,0.7c0.531,0.042,1.065-0.002,1.583-0.132v0.07
	c-0.045,0.061-0.068,0.135-0.068,0.21h0.205c0.271,0.402,0.691,0.68,1.168,0.772c-0.039-0.207-0.14-0.218,0.069-0.351
	c0.269,0.297,0.597,0.536,0.962,0.7c0.613,0.199,0.95-0.316,1.307,0.49l0.344,0.07c-0.029-0.242,0.02-0.486,0.138-0.7
	c0.222-0.076,0.453-0.123,0.687-0.14c0.166-0.237,0.021-0.307,0.412-0.351c-0.072,0.518-0.025,1.046,0.137,1.544v-1.265h0.275
	c-0.056,0.585-0.032,1.175,0.069,1.754c0.171-0.096,0.379-0.096,0.55,0c0.107,0.118,0.18,0.265,0.206,0.421H40v0.352h-2.2v0.07
	h0.138c0.199,0.256,0.636,0.305,0.824,0.561c0.061,0.183,0.107,0.371,0.137,0.561c0.274,0.434,0.623,0.814,1.031,1.123v0.07h-0.066
	c-0.088,0.118-0.188,0.162-0.275,0.281c-0.165-0.081-0.119-0.143-0.275-0.07c-0.139,0.357-0.209,0.739-0.205,1.123
	c-0.125,0.243-0.088,0.112-0.275,0.21v0.14H38.9c0.006-0.053,0.031-0.102,0.068-0.14v0.21H38.9c-0.068,0.071,0.067,0.069,0.068,0.07
	c-0.129,0.074-0.244,0.17-0.344,0.281h0.068v-0.067c0.054-0.135,0.07,0.14,0.07,0.14c-0.104,0.106-0.221,0.201-0.345,0.281
	c-0.054-0.002-0.104-0.027-0.137-0.07c0.033,0.139,0.033,0.283,0,0.422h-0.206c-0.168,0.086-0.094-0.052-0.206,0H37.8
	c0.038,0.135,0.113,0.06,0,0.14c-0.134,0.12-0.302,0.194-0.481,0.211c0,0,0.27,0.014,0.138,0.069H37.32
	c-0.092,0.104-0.211,0.178-0.344,0.211v-0.069c0.056-0.035,0.103-0.083,0.137-0.14h-0.068c-0.1,0.186-0.047,0.218-0.206,0.281V23.73
	H36.77v0.07h0.069c0.068,0.071-0.067,0.069-0.069,0.07c-0.298,0.171-0.623,0.289-0.961,0.352c0.037,0.135,0.112,0.06,0,0.14
	c-0.12,0.15-0.292,0.251-0.481,0.28v-0.069H35.4c0.132-0.054-0.139-0.07-0.139-0.07c-0.119,0.15-0.291,0.251-0.48,0.281
	c-0.008,0.315-0.068,0.183-0.275,0.421c-0.171-0.048-0.128-0.165-0.206-0.07c-0.224,0.035-0.423,0.163-0.55,0.352
	c0.156-0.028,0.075-0.064,0.206,0h-0.073c-0.359,0.228-0.754,0.394-1.168,0.49c0.038,0.136,0.113,0.061,0,0.141
	c-0.306,0.219-0.659,0.363-1.031,0.421v0.069c0.075,0,0.147,0.024,0.207,0.07c-0.391-0.04-0.785-0.017-1.168,0.07
	c-0.096,0.098-0.214,0.17-0.345,0.21c-0.431-0.601-0.823,0.093-1.168,0l-0.137-0.21h-0.619c-0.06,0.136-0.196,0.22-0.345,0.21
	c-0.51-0.565-0.811,0.094-1.168,0c-0.223-0.202-0.531-0.281-0.824-0.21c-0.094,0.046-0.084,0.293-0.344,0.21l-0.069-0.21
	c-0.293-0.074-0.604,0.005-0.825,0.21c-0.26,0.072-0.229-0.166-0.344-0.21c-0.5-0.191-0.727,0.307-1.031,0.21l-0.068-0.21
	c-0.293-0.074-0.604,0.004-0.826,0.21c-0.26,0.072-0.229-0.166-0.344-0.21c-0.292-0.057-0.595,0.021-0.824,0.21
	c-0.258,0.056-0.567-0.44-1.031-0.21c-0.034,0.077-0.081,0.148-0.138,0.21c-0.289,0.062-0.165-0.153-0.275-0.21
	c-0.358-0.074-0.73,0.002-1.031,0.21c-0.261-0.452-0.77-0.082-1.1,0c-0.382-0.61-0.8,0.089-1.1,0l-0.069-0.21
	c-0.475-0.249-0.792,0.309-1.1,0.21l-0.069-0.21c-0.292-0.066-0.599,0.012-0.825,0.21c-0.291,0.056-0.162-0.151-0.275-0.21
	c-0.357-0.074-0.73,0.002-1.031,0.21c-0.392-0.606-0.789,0.087-1.1,0l-0.138-0.21c-0.486-0.2-0.714,0.32-1.031,0.21l-0.069-0.21
	c-0.293-0.072-0.603,0.006-0.825,0.21c-0.274,0.075-0.2-0.167-0.344-0.21c-0.481-0.15-0.678,0.292-0.962,0.21L8.8,26.75
	c-0.568-0.236-0.784,0.245-1.237-0.07c0.075,0.001,0.147-0.023,0.206-0.07c-0.431,0.021-0.859-0.076-1.24-0.278
	c0.052-0.007,0.101-0.032,0.137-0.07c-0.083-0.026-1.031-0.421-1.031-0.421c-0.08-0.186-0.197-0.352-0.344-0.49
	c-0.232-0.138-0.419-0.082-0.687-0.211l0.069-0.211c-0.457-0.107-0.881-0.324-1.237-0.631l0.275,0.07
	c-0.394-0.393-0.915-0.275-1.237-0.7h0.138v0.063H2.68c-0.156-0.172-0.343-0.314-0.55-0.42v0.069
	c0.056,0.036,0.103,0.083,0.137,0.14H2.131c-0.3-0.5-0.937-0.351-0.962-1.123h0.068v0.07c0.077,0.076,0.141,0.338,0.206,0.21
	c0.044-0.062,0.068-0.134,0.069-0.21c-0.149-0.201-0.222-0.449-0.206-0.699h0.069c0.007,0.053,0.031,0.102,0.069,0.14v-0.56H1.375
	c0.013,0.121-0.011,0.243-0.069,0.351v-0.421c-0.312,0.004-0.612-0.123-0.825-0.352l0.069-0.07H0.412c0,0-0.03,0.279-0.069,0.141
	v-0.07C0.192,20.889,0.066,20.785,0,20.645c0.2-0.147,1.117-1.765,0.893-1.895h0.275v-0.141H0.962
	c-0.248,0.067-0.5,0.114-0.756,0.141v-1.333c0.57,0,0.7-0.028,1.306,0c0.143-0.139,0.305-0.257,0.481-0.351
	c0.133-0.188-0.075-0.156,0.137-0.281c0.057,0.229-0.034,0.107,0.137,0.21v-0.07c0.082-0.242,0.254-0.443,0.481-0.561
	c0.401-0.22,0.849-0.341,1.306-0.351v-0.211c0.536-0.033,1.066-0.128,1.581-0.281c0.142,0.062,0.28,0.132,0.412,0.211
	c0.181-0.09,0.326-0.238,0.412-0.42c0.362-0.178,0.767-0.251,1.168-0.21c0.027,0.101,0.105,0.181,0.206,0.21
	c0.487-0.316,1.075-0.441,1.649-0.351c0.083-0.042,0.143-0.254,0.206-0.281c0.174-0.045,0.358,0.009,0.481,0.14
	c0.007-0.271,0.167-0.516,0.412-0.632c0.262-0.113,0.541-0.184,0.825-0.211c0.149-0.102,0.288-0.219,0.412-0.351h1.306
	c0.095,0.368,0.448,0.608,0.825,0.561v-0.279c0.27-0.064,0.548-0.088,0.825-0.07c0.037,0.038,0.085,0.062,0.137,0.07v0.281
	c0.163-0.006,0.326,0.018,0.481,0.07l0.137-0.771h-2.68v-0.07h-0.065c-0.038-0.22-0.107-0.433-0.206-0.632h0.206V9.908
	c0.396,0.033,0.753-0.24,0.825-0.632c0.289-0.088,0.594-0.112,0.893-0.07c0.047-0.532,0.226-0.335,0.344-0.561
	c-0.044-0.396-0.067-0.794-0.069-1.193c0.195-0.708,0.265-1.444,0.206-2.175c-0.108-0.747-0.085-1.507,0.069-2.246v3.93
	C15.182,7.44,15.251,7.935,15.258,8.431z M15.739,8.361h1.581c0.054-0.125,0.152-0.224,0.275-0.281V5.978
	c-1.306,0.027-1.895,0.971-1.855,2.386V8.361z M17.732,5.975V8.01c0.383-0.104,0.791,0.035,1.031,0.351H20V5.978h-2.268V5.975z
	 M20.069,5.975v2.386c0.316,0,1.713-0.143,1.718-0.14c0.055,0.099,0.163,0.154,0.275,0.14c0.037-1.421-0.629-2.397-1.994-2.383
	V5.975z M14.708,8.782c-0.039,0.161-0.062,0.325-0.069,0.491h0.069c0.037-0.037,0.085-0.062,0.137-0.07V8.785h-0.137V8.782z
	 M28.729,13.554c0.037,0.038,0.086,0.062,0.138,0.07c-0.038-0.036-0.085-0.06-0.138-0.067V13.554z M14.159,13.975v0.211h0.55v-0.208
	h-0.55V13.975z M7.491,15.171v0.14c-0.254-0.016-0.509,0.008-0.756,0.07c-0.052,0.186-0.082,0.167-0.137,0.352h0.618
	c0.133-0.035,0.253-0.108,0.344-0.211h0.069v-0.07c-0.18-0.027-0.09,0.052-0.137-0.14C7.628,15.331,7.577,15.281,7.491,15.171z
	 M34.158,16.014c0.037,0.037,0.085,0.062,0.137,0.069C34.258,16.046,34.21,16.021,34.158,16.014L34.158,16.014z M0.412,18.821
	c0.037,0.038,0.061,0.087,0.069,0.14H0.412V18.821z M1.031,20.084l-0.344,0.491h0.069C0.906,20.451,1.004,20.276,1.031,20.084z
	 M38.969,21.207v0.141h0.069C39.031,21.294,39.007,21.244,38.969,21.207L38.969,21.207z M1.581,22.47
	c-0.001,0.076,0.023,0.149,0.069,0.21v-0.21H1.581z M33.334,23.87c-0.102,0.293-0.148,0.603-0.137,0.912v0.069h0.137
	c0.194-0.15,0.379-0.314,0.55-0.49c0.016-0.145-0.009-0.29-0.069-0.422h0.139c0.066,0.141,0.193,0.244,0.344,0.281
	c0.259-0.119,0.475-0.314,0.619-0.561c-0.088-0.095-0.114-0.23-0.068-0.352c0.129,0.14,0.296,0.237,0.48,0.281
	c0.214-0.101,0.385-0.274,0.48-0.49h-0.069v-0.068c-0.524,0.203-1.091,0.275-1.649,0.21c-0.045,0.378-0.377,0.655-0.757,0.632
	L33.334,23.87z M5.98,23.87H5.567c-0.002-0.343-0.276-0.622-0.619-0.632c-0.164,0.111-0.304,0.255-0.412,0.421h0.138
	c0.06,0.045,0.132,0.069,0.206,0.069c0.065-0.1,0.2-0.334,0.275-0.211h0.068c-0.084,0.123-0.109,0.277-0.069,0.422
	c0.137,0.141,0.342,0.211,0.481,0.351c0.053-0.007,0.101-0.032,0.137-0.07c0.134-0.062,0.216-0.199,0.207-0.347L5.98,23.87z
	 M36.357,23.309c-0.041,0.078-0.117,0.131-0.205,0.141v0.07h0.137c0.121-0.066,0-0.016,0.137,0v-0.07
	c0.002-0.055,0.027-0.105,0.069-0.141H36.357L36.357,23.309z M2.337,23.59h0.137v0.07c-0.052-0.007-0.1-0.031-0.137-0.068V23.59z
	 M3.643,23.59c-0.027,0.159-0.063,0.076,0,0.21c0.166,0.224,0.412,0.374,0.687,0.421c0.017-0.028,0.041-0.053,0.069-0.07
	c-0.081-0.08-0.195-0.129-0.275-0.211c0.052-0.007,0.101-0.031,0.137-0.069c-0.196-0.112-0.403-0.206-0.618-0.278V23.59z
	 M3.643,23.66H3.78v0.07c-0.052-0.006-0.101-0.03-0.137-0.067V23.66z M22.818,23.66l-0.481,1.4
	c-0.312,0.189-0.572,0.455-0.756,0.771c0.037,0.038,0.062,0.088,0.069,0.141h0.756c0.021-0.176,0.123-0.331,0.275-0.422
	c-0.002,0.144,0.021,0.286,0.068,0.422c0.252-0.014,0.504-0.014,0.756,0v-0.07h0.069c0.007-0.098,0.03-0.191,0.069-0.281
	c-0.767-0.514-0.477-1.336-0.826-1.958V23.66z M27.079,25.977H27.9l0.137-0.422h0.072v0.076c0.058,0.107,0.082,0.23,0.07,0.352
	c0.391-0.008,0.409-0.006,0.824,0c0.046-0.136,0.069-0.278,0.069-0.422c-0.619-0.426-0.448-1.36-0.757-1.895v0.064
	c-0.577,0.476-0.541,1.356-1.236,1.826L27.079,25.977L27.079,25.977z M3.78,23.73h0.138v0.07C3.865,23.794,3.817,23.77,3.78,23.73z
	 M3.917,23.801h0.138v0.07c-0.052-0.007-0.101-0.031-0.137-0.068L3.917,23.801z M35.463,23.871c-0.1,0.086-0.191,0.18-0.275,0.281
	h0.069c0.108-0.057,0.185-0.16,0.207-0.279L35.463,23.871z M3.092,24.082H3.23v0.07c-0.052-0.007-0.1-0.031-0.137-0.068
	L3.092,24.082z M36.219,24.082h0.137v0.07c-0.051-0.008-0.1-0.031-0.136-0.068L36.219,24.082z M4.6,24.154
	c0.037,0.037,0.085,0.062,0.137,0.07c-0.12,0.147-0.136,0.1-0.137,0.209c0.166,0.225,0.412,0.375,0.687,0.422l0.069-0.211
	c-0.267-0.101-0.087-0.119-0.206-0.211C5.004,24.281,4.81,24.183,4.6,24.154z M10.854,25.979h0.756
	c0.038-0.168,0.135-0.318,0.275-0.42c0.025,0.51,0.309,0.459,0.825,0.42v-0.069h0.069c-0.377-0.358-0.68-0.788-0.893-1.263
	c-0.011-0.166-0.034-0.33-0.069-0.491c-0.068,0.985-0.885,0.948-0.958,1.823H10.854z M36.077,24.154h0.143v0.07
	c-0.052-0.008-0.101-0.032-0.137-0.07H36.077z M3.3,24.225h0.136v0.069C3.384,24.287,3.336,24.262,3.3,24.225z M35.945,24.225h0.139
	v0.069C36.031,24.287,35.982,24.263,35.945,24.225L35.945,24.225z M4.746,24.294H4.88v0.07c-0.053-0.007-0.101-0.032-0.138-0.07
	H4.746z M17.32,25.979h0.756c0.036-0.09,0.06-0.186,0.069-0.281c-0.543-0.379-0.532-1.215-0.825-1.4v0.135
	c-0.197,0.257-0.359,0.54-0.481,0.842c-0.123,0.17-0.509,0.185-0.619,0.351v0.281c0.27,0.064,0.548,0.088,0.825,0.069
	c-0.009-0.166,0.069-0.325,0.206-0.421L17.32,25.979z M4.88,24.364h0.137v0.067C4.965,24.425,4.917,24.4,4.88,24.364z M6.048,24.364
	v0.067H5.979c-0.132,0.053,0.137,0.069,0.137,0.069C6.109,24.449,6.085,24.401,6.048,24.364z M34.434,24.504l-0.069,0.141
	C34.484,24.547,34.434,24.505,34.434,24.504L34.434,24.504z M35.189,24.645h0.138v0.069C35.274,24.707,35.227,24.684,35.189,24.645
	L35.189,24.645z M4.055,24.714h0.137v0.07C4.14,24.777,4.092,24.753,4.055,24.714L4.055,24.714z M5.636,24.714
	c-0.045,0.136-0.069,0.278-0.069,0.421c0.219,0.178,0.479,0.299,0.756,0.352l0.069-0.211c-0.154-0.066-0.293-0.162-0.412-0.28
	c0.052-0.007,0.101-0.032,0.137-0.07C5.906,24.859,5.859,24.78,5.636,24.714L5.636,24.714z M34.982,24.784h0.138v0.069
	C35.068,24.848,35.02,24.822,34.982,24.784L34.982,24.784z M4.261,24.854H4.4v0.07c-0.053-0.006-0.102-0.03-0.139-0.068V24.854z
	 M5.704,24.854h0.138v0.07c-0.054-0.006-0.104-0.029-0.142-0.068L5.704,24.854z M34.845,24.854h0.138v0.07
	c-0.053-0.006-0.101-0.03-0.138-0.068V24.854z M4.4,24.926l0.2,0.07v0.07C4.514,25.055,4.439,25.003,4.4,24.926z M5.843,24.926
	h0.136v0.07C5.927,24.988,5.878,24.965,5.843,24.926L5.843,24.926z M34.229,25.207h0.138v0.07c-0.054-0.008-0.103-0.032-0.14-0.071
	L34.229,25.207z M34.091,25.277h0.138v0.07c-0.054-0.008-0.103-0.032-0.14-0.07H34.091z M5.019,25.348h0.136v0.069
	c-0.053-0.007-0.102-0.032-0.138-0.069H5.019z M33.954,25.348h0.137v0.069c-0.053-0.007-0.102-0.031-0.139-0.069H33.954z
	 M5.225,25.487h0.136v0.069c-0.052-0.007-0.101-0.031-0.138-0.069H5.225z M6.531,25.487v0.28l0.479,0.281
	c-0.119-0.219-0.283-0.41-0.481-0.562H6.531z M5.363,25.557l0.204,0.074v0.07c-0.089-0.01-0.167-0.064-0.206-0.145H5.363z
	 M10.518,25.768c-0.128,0.09-0.362,0.113-0.481,0.211h0.481c0.034-0.057,0.081-0.105,0.137-0.141
	c-0.038-0.037-0.086-0.063-0.139-0.07H10.518z M15.948,25.768c-0.042,0.077-0.119,0.13-0.206,0.14v0.069h0.206l0.069-0.211h-0.072
	L15.948,25.768z M33.199,25.768h0.137v0.069h-0.07C33.217,25.848,33.131,25.842,33.199,25.768L33.199,25.768z M21.309,25.837
	l-0.068,0.14c0.117-0.097,0.066-0.139,0.066-0.139L21.309,25.837z M23.783,25.837c-0.023,0.101,0.1,0.101,0.137,0.14
	c0.046-0.072-0.12-0.117-0.14-0.139L23.783,25.837z M26.807,25.837l-0.068,0.14c0.117-0.097,0.062-0.139,0.062-0.139L26.807,25.837z
	 M29.281,25.837v0.14h0.137v-0.069L29.281,25.837z M32.992,25.907h0.137v0.069c-0.053-0.006-0.102-0.03-0.139-0.068L32.992,25.907z
	 M5.982,25.977h0.135v0.07c-0.053-0.007-0.102-0.031-0.138-0.068L5.982,25.977z M32.855,25.977h0.135v0.07
	c-0.053-0.007-0.102-0.031-0.139-0.068L32.855,25.977z M6.12,26.047l0.206,0.07v0.07c-0.089-0.008-0.167-0.061-0.209-0.139
	L6.12,26.047z M6.326,26.188l0.206,0.069v0.074c-0.09-0.009-0.168-0.062-0.209-0.142L6.326,26.188z M9.556,26.327
	c0.194,0.1,0.424,0.1,0.619,0H9.553H9.556z M10.656,26.327c0.194,0.1,0.424,0.1,0.619,0h-0.622H10.656z M11.824,26.327
	c0.147,0.092,0.333,0.092,0.481,0h-0.484H11.824z M12.924,26.327c0.147,0.092,0.334,0.092,0.481,0h-0.484H12.924z M15.124,26.327
	c0.147,0.092,0.334,0.092,0.481,0H15.12H15.124z M16.292,26.327c0.1,0.082,0.244,0.082,0.344,0h-0.347H16.292z M17.392,26.327
	c0.1,0.081,0.244,0.081,0.344,0h-0.348H17.392z M18.492,26.327c0.077,0.073,0.198,0.073,0.275,0h-0.279H18.492z M20.279,26.327
	c0.038,0.038,0.086,0.062,0.138,0.069c-0.039-0.036-0.089-0.06-0.142-0.065L20.279,26.327z M20.76,26.327
	c0.118,0.062,0.088,0.062,0.206,0h-0.21H20.76z M21.379,26.327c0.037,0.037,0.085,0.062,0.137,0.069
	c-0.038-0.036-0.088-0.059-0.141-0.065L21.379,26.327z M21.859,26.327c0.119,0.062,0.089,0.062,0.207,0h-0.211H21.859z
	 M22.479,26.327c0.119,0.062,0.088,0.062,0.207,0h-0.211H22.479z M23.029,26.327c0.037,0.037,0.085,0.062,0.137,0.069
	c-0.039-0.036-0.089-0.06-0.143-0.065L23.029,26.327z M23.579,26.327c0.077,0.073,0.198,0.073,0.274,0h-0.279H23.579z
	 M24.129,26.327c0.037,0.037,0.085,0.062,0.137,0.069c-0.039-0.036-0.088-0.06-0.142-0.065L24.129,26.327z M24.68,26.327
	c0.076,0.073,0.197,0.073,0.274,0h-0.28H24.68z M25.779,26.327c0.1,0.082,0.244,0.082,0.344,0h-0.35H25.779z M26.879,26.327
	c0.1,0.082,0.244,0.082,0.344,0h-0.35H26.879z M27.979,26.327c0.124,0.087,0.289,0.087,0.412,0h-0.418H27.979z M29.079,26.327
	c0.124,0.087,0.288,0.087,0.412,0h-0.419H29.079z M30.18,26.327c0.076,0.073,0.197,0.073,0.274,0h-0.282H30.18z M32.241,26.327
	h0.137v0.069c-0.054-0.004-0.104-0.027-0.144-0.065L32.241,26.327z M32.104,26.396h0.138v0.07c-0.054-0.006-0.104-0.029-0.142-0.068
	L32.104,26.396z M31.967,26.467H32.1v0.07h-0.072c-0.047,0.012-0.133,0.007-0.068-0.067L31.967,26.467z M7.019,26.537
	c0.075-0.001,0.147,0.023,0.206,0.07c-0.078,0.004-0.154-0.021-0.215-0.067L7.019,26.537z M7.294,26.607
	c0.097-0.008,0.194,0.017,0.275,0.069c-0.099,0.011-0.2-0.013-0.284-0.067L7.294,26.607z M31.074,26.747
	c0.097-0.008,0.193,0.017,0.275,0.069c-0.1,0.012-0.2-0.012-0.285-0.066L31.074,26.747z M8.187,26.816
	c0.097-0.008,0.194,0.018,0.275,0.07c-0.099,0.012-0.199-0.012-0.283-0.065L8.187,26.816z M30.867,26.816
	c0.074,0,0.146,0.024,0.206,0.07c-0.077,0.004-0.153-0.02-0.214-0.065L30.867,26.816z"/>
</svg>
