<?xml version="1.0" encoding="utf-8"?>
<!-- Generator: Adobe Illustrator 16.0.0, SVG Export Plug-In . SVG Version: 6.00 Build 0)  -->
<!DOCTYPE svg PUBLIC "-//W3C//DTD SVG 1.1//EN" "http://www.w3.org/Graphics/SVG/1.1/DTD/svg11.dtd">
<svg version="1.1" id="Layer_1" xmlns="http://www.w3.org/2000/svg" xmlns:xlink="http://www.w3.org/1999/xlink" x="0px" y="0px"
	 width="39.969px" height="40px" viewBox="0 0 39.969 40" enable-background="new 0 0 39.969 40" xml:space="preserve">
<path id="us_t114_ico" fill="#FFFFFF" d="M14.269,7.5c0.04,0.223,0.065,0.447,0.078,0.673h0.5V7.5h0.913v0.673h10.75v0.078h0.078
	V8.38h0.078v0.466h10.876v1.165h-10.88c-0.066,0.08-0.095,0.184-0.078,0.285h-0.079v-0.1c-0.522,0-1.017,0.065-1.513,0.1
	c-0.047,0.115-0.064,0.239-0.053,0.362H21c-0.54-0.039-1.082-0.021-1.618,0.052c-0.13,0.028-0.293-0.006-0.391,0.026
	c0.228,0.382,0.546,0.724,0.809,1.087c0.188,0.147,0.31,0.363,0.339,0.6h0.157c0.025,0.115,0.103,0.21,0.209,0.259
	c0.112-0.026,0.228-0.026,0.339,0c0.033-0.179,0.043-0.362,0.026-0.544h-0.523v-0.082h0.6v-0.078h0.183v0.078h0.313v0.078h-0.235
	v0.544h0.418c0.286-0.27,0.698-0.359,1.069-0.233l0.053-0.233h0.209c0.018,0.117,0.057,0.121,0.078,0.233h0.183
	c0.349-0.171,0.745-0.217,1.122-0.129c0.213,0.147,0.48,0.194,0.73,0.129h2.062c0.079,0.078,0.134,0.177,0.157,0.285
	c0.233-0.012,0.468-0.003,0.7,0.026c0.017,0.05,0.026,0.103,0.026,0.155c0.283,0.043,0.563,0.113,0.834,0.207
	c0.153,0.041,0.313,0.059,0.471,0.052c0.248,0.064,0.491,0.143,0.73,0.233c0.835,0.251,1.664,0.333,2.5,0.569
	c0.246,0.097,0.499,0.175,0.758,0.233v0.129c0.187,0.022,0.37,0.066,0.547,0.129l1.645,0.311V14.7
	c0.057-0.057,0.118-0.108,0.184-0.155h0.215c0.125-0.056,0.213-0.263,0.34-0.337c0.34-0.126,0.717-0.107,1.044,0.052
	c0.022,0.02,0.028,0.033,0.052,0.052c-0.012,0.069-0.018,0.321-0.025,0.337c-0.023,0.017-0.051,0.026-0.078,0.026l-0.101,0.44
	c0.085,0,0.2,0.062,0.261,0.052c0.043-0.021,0.086-0.038,0.131-0.052c0.078,0.016,0.131,0.124,0.234,0.155v0.026h-0.13
	c0.026,0.125,0.101,0.127,0.13,0.259c0.236,0.08,0.464,0.184,0.678,0.311c0.085-0.332,0.422-0.533,0.754-0.448
	c0.01,0.002,0.02,0.005,0.029,0.008c0.195,0.095,0.332,0.278,0.365,0.492c0.036,0.155,0.027,0.316-0.025,0.466
	c0.185,0.054,0.337,0.187,0.416,0.362c-0.083,0.117-0.145,0.249-0.183,0.388c-0.216,0.341-0.392,0.706-0.522,1.087
	c0.063,0.047,0.074,0.133,0.131,0.182c0.322,0.152,0.533,0.472,0.549,0.828c-0.049,0.047-0.102,0.091-0.157,0.129
	c-0.293,0.07-0.599,0.061-0.888-0.026c-0.103,0.329-0.233,0.65-0.391,0.958c-0.018,0.153-0.082,0.297-0.183,0.414
	c-0.093-0.036-0.188-0.063-0.287-0.078c-0.075,0.3-0.306,0.525-0.392,0.828c0.055-0.002,0.107,0.008,0.158,0.025l-0.101,0.674
	c-0.069-0.053-0.149-0.088-0.235-0.101c-0.046,0.042-0.099,0.076-0.156,0.101c-0.023,0.019-0.029,0.033-0.053,0.052
	c0.035,0.073,0.053,0.152,0.053,0.233c0.082-0.009,0.163,0.029,0.209,0.1c-0.141,0.196-0.309,0.371-0.5,0.518
	c-0.055-0.163-0.221-0.262-0.392-0.232c-0.024,0.027-0.05,0.053-0.077,0.078c0.041,0.029,0.061,0.079,0.051,0.129
	c-0.022,0.021-0.04,0.049-0.051,0.078h0.025c0.046,0.042,0.1,0.076,0.157,0.1v0.052c-0.212,0.098-0.405,0.229-0.574,0.388h-0.032
	v-0.021c-0.07-0.121-0.198-0.199-0.339-0.207c-0.088,0.034-0.076,0.04-0.078,0.155c0.029,0.065-0.038,0.048-0.026,0.1
	c0.035,0.075,0.078,0.145,0.131,0.207c-0.207,0.077-0.396,0.2-0.547,0.362h-0.027v-0.021c-0.08-0.113-0.202-0.188-0.339-0.207
	c-0.054,0.005-0.095,0.047-0.101,0.1c0.055,0.116,0.098,0.237,0.131,0.361c-0.205,0.098-0.398,0.219-0.574,0.362
	c-0.042-0.064-0.075-0.134-0.1-0.207c-0.08-0.002-0.158-0.011-0.236-0.026c-0.05,0.013-0.096,0.04-0.129,0.078
	c0.067,0.089,0.086,0.205,0.052,0.312c0.042,0.021,0.085,0.038,0.13,0.052h-0.034c-0.173,0.167-0.376,0.299-0.601,0.389v-0.022
	c-0.073-0.063-0.038-0.081-0.1-0.129c-0.07-0.048-0.15-0.082-0.234-0.101c-0.038,0.04-0.072,0.084-0.101,0.131
	c0.034,0.033,0.054,0.08,0.052,0.129c-0.028,0.013-0.055,0.03-0.078,0.052c0.09,0.08,0.117,0.116,0.184,0.181h-0.061
	c-0.173,0.168-0.377,0.3-0.601,0.389l-0.077-0.233c-0.072,0.026-0.152-0.008-0.184-0.078c-0.042,0.022-0.086,0.039-0.131,0.052
	c0.013,0.098-0.025,0.195-0.1,0.26c0.049,0.062,0.084,0.147,0.129,0.207c-0.291,0.032-0.478,0.168-0.809,0.181
	c-0.004-0.079,0.004-0.157,0.025-0.233c-0.108-0.009-0.1,0-0.129-0.078c-0.018-0.022-0.026-0.05-0.026-0.078H31.02
	c0,0.045,0.009,0.089,0.025,0.131c-0.039,0.004-0.074,0.022-0.1,0.052c0.024,0.065,0.033,0.137,0.025,0.207h-0.056
	c-0.231,0.04-0.467,0.049-0.7,0.026c0.006-0.012,0.016-0.02,0.026-0.026c0.013-0.077,0.021-0.155,0.026-0.233h-0.031
	c-0.023,0.017-0.051,0.025-0.078,0.026v-0.159h-0.235v0.155h-0.078v-0.026h0.024c0.05-0.02-0.053-0.025-0.053-0.025
	c-0.006-0.012-0.015-0.02-0.025-0.026V26.4h0.078c-0.006,0.01-0.016,0.02-0.026,0.025c-0.226,0.072-0.466,0.09-0.7,0.053
	c0.022-0.076,0.031-0.154,0.026-0.233h-0.081c0.007-0.052,0.007-0.104,0-0.155h-0.234v0.155c-0.034-0.003-0.068-0.013-0.1-0.026
	V26.4c0,0,0.1,0,0.053,0.025h-0.058c-0.218,0.072-0.451,0.09-0.679,0.053c0.006-0.132-0.012-0.264-0.051-0.389h-0.235v0.155
	c-0.034-0.003-0.068-0.013-0.101-0.026V26.4c0,0,0.101,0,0.053,0.025H27.68c-0.219,0.076-0.452,0.095-0.679,0.053
	c0.015-0.133-0.004-0.266-0.052-0.389H26.74c0.012,0.063-0.021,0.127-0.078,0.155c-0.034-0.063,0.011-0.019-0.053-0.052V26.4
	c0.07,0.021-0.01,0.016,0.053,0.052c-0.23,0.052-0.467,0.061-0.7,0.026c0-0.074,0.021-0.011-0.026-0.078
	c0.059-0.051,0.043-0.049,0.053-0.155h-0.084l-0.025-0.155h-0.21c0.012,0.063-0.021,0.127-0.078,0.155
	c-0.034-0.063,0.011-0.019-0.052-0.052V26.4c0.07,0.021-0.012,0.016,0.052,0.052c-0.239,0.054-0.487,0.063-0.731,0.026
	c0.037-0.123,0.018-0.255-0.051-0.362C24.742,26.09,24.67,26.08,24.6,26.09l-0.026,0.155h-0.052
	c-0.033-0.063,0.012-0.019-0.052-0.052V26.4c0.07,0.021-0.011,0.016,0.052,0.052c-0.239,0.054-0.487,0.063-0.73,0.026
	c0.013-0.131,0.004-0.262-0.025-0.389h-0.234l-0.026,0.155h-0.053c-0.034-0.063,0.011-0.019-0.052-0.052V26.4c0,0,0.1,0,0.052,0.025
	H23.4c-0.209,0.076-0.435,0.094-0.652,0.053c0-0.045,0.025-0.207,0.025-0.207c-0.05-0.047-0.078-0.113-0.078-0.182h-0.234
	l-0.025,0.155h-0.053c-0.033-0.063,0.012-0.019-0.052-0.052V26.4c0.028,0,0.056,0.009,0.078,0.025h-0.052
	c-0.219,0.074-0.451,0.092-0.678,0.053c0.006-0.012,0.015-0.02,0.025-0.026c0.013-0.077,0.021-0.155,0.025-0.233h-0.026
	c-0.022,0.017-0.05,0.025-0.078,0.026v-0.159h-0.235v0.155c-0.034-0.004-0.068-0.013-0.1-0.026V26.4
	c0.07,0.021-0.012,0.016,0.052,0.052c-0.239,0.054-0.487,0.063-0.731,0.026c0.022-0.076,0.031-0.154,0.027-0.233h-0.082
	c0.006-0.052,0.006-0.104,0-0.155h-0.236v0.155c-0.034-0.003-0.068-0.013-0.1-0.026V26.4c0,0,0.1,0,0.052,0.025h-0.056
	c-0.218,0.072-0.451,0.09-0.678,0.053c0.005-0.132-0.012-0.264-0.052-0.389h-0.235v0.155c-0.034-0.003-0.068-0.013-0.1-0.026V26.4
	c0,0,0.1,0,0.052,0.025h-0.057c-0.217,0.076-0.451,0.095-0.678,0.053c0.015-0.133-0.003-0.266-0.052-0.389h-0.209
	c0.012,0.063-0.021,0.127-0.078,0.155c-0.034-0.063,0.011-0.019-0.052-0.052V26.4c0.07,0.021-0.011,0.016,0.052,0.052
	c-0.229,0.052-0.467,0.061-0.7,0.026c0-0.074,0.021-0.011-0.026-0.078c0.058-0.051,0.042-0.049,0.052-0.155h-0.087l-0.026-0.155
	h-0.205c0.011,0.063-0.021,0.127-0.078,0.155c-0.034-0.063,0.011-0.019-0.052-0.052V26.4c0.07,0.021-0.011,0.016,0.052,0.052
	c-0.24,0.054-0.488,0.063-0.731,0.026c0.036-0.123,0.017-0.255-0.052-0.362c-0.066-0.026-0.138-0.036-0.209-0.026l-0.026,0.155
	H15.99c-0.034-0.063,0.011-0.019-0.052-0.052V26.4c0.07,0.021-0.011,0.016,0.052,0.052c-0.24,0.054-0.488,0.063-0.731,0.026
	c0.013-0.131,0.004-0.262-0.026-0.389h-0.235l-0.029,0.151H14.92c-0.034-0.064,0.011-0.019-0.052-0.052V26.4c0,0,0.1,0,0.052,0.025
	h-0.051c-0.209,0.076-0.434,0.094-0.652,0.053c0-0.187-0.043-0.225-0.052-0.389h-0.236l-0.026,0.155H13.85
	c-0.034-0.063,0.011-0.019-0.052-0.052V26.4c0.028,0,0.056,0.009,0.078,0.025h-0.052c-0.218,0.074-0.451,0.092-0.678,0.053
	c0.006-0.012,0.015-0.02,0.026-0.026c0.013-0.077,0.021-0.155,0.026-0.233h-0.029c-0.022,0.017-0.05,0.025-0.078,0.026v-0.159
	h-0.232v0.155h-0.078v-0.026h0.026c0.05-0.02-0.052-0.025-0.052-0.025v-0.025h-0.027V26.4h0.078v0.025h-0.025
	c-0.227,0.072-0.466,0.09-0.7,0.053c0.019-0.076,0.027-0.155,0.026-0.233h-0.083v-0.159h-0.235v0.155
	c-0.035-0.004-0.068-0.013-0.1-0.026V26.4c0,0,0.1,0,0.052,0.025h-0.056c-0.218,0.072-0.451,0.09-0.678,0.053l0.026-0.233h-0.079
	c0.007-0.052,0.007-0.104,0-0.155h-0.235v0.155c-0.034-0.003-0.068-0.013-0.1-0.026V26.4c0,0,0.1,0,0.052,0.025h-0.056
	c-0.218,0.076-0.452,0.095-0.678,0.053c0.014-0.133-0.003-0.266-0.052-0.389h-0.21v0.026H9.649v0.129
	c-0.035-0.003-0.068-0.013-0.1-0.026V26.4c0.07,0.021-0.011,0.016,0.052,0.052c-0.23,0.052-0.467,0.061-0.7,0.026
	c-0.022-0.018-0.05-0.026-0.078-0.026v-0.03H8.84c-0.002-0.062,0.008-0.123,0.029-0.181c-0.049-0.075-0.124-0.13-0.209-0.155v-0.025
	H8.632c0,0.127,0,0.142-0.13,0.154c-0.02,0.01-0.017,0-0.026,0.1c0,0.027-0.013,0.048-0.026,0.129c-0.25,0.01-0.5-0.034-0.731-0.129
	c0.03-0.136,0.03-0.277,0-0.414c-0.038-0.006-0.073-0.023-0.1-0.051c-0.063,0.016-0.113,0.065-0.13,0.129
	c-0.031-0.022-0.064-0.04-0.1-0.053c0,0.064-0.037,0.135-0.052,0.233H7.275c-0.16-0.144-0.445-0.162-0.6-0.312
	c0.066-0.118,0.101-0.252,0.1-0.388l-0.209-0.101c-0.01,0.059-0.037,0.113-0.078,0.156c-0.01-0.039-0.04-0.068-0.078-0.078
	c0.019,0.098-0.02,0.199-0.1,0.259c-0.217-0.08-0.419-0.194-0.6-0.337c0.06-0.102,0.087-0.22,0.078-0.338
	c-0.037-0.041-0.081-0.075-0.13-0.1c-0.059,0.038-0.12,0.071-0.183,0.1c-0.014-0.033,0-0.019-0.026-0.025
	c-0.021,0.088-0.066,0.169-0.13,0.232c-0.208-0.079-0.401-0.189-0.575-0.328c0.051-0.114,0.078-0.237,0.078-0.362
	C4.758,24.5,4.687,24.473,4.613,24.46c-0.012,0.05-0.039,0.096-0.078,0.13c-0.045-0.033-0.042-0.045-0.078-0.025
	c-0.014,0.076-0.049,0.148-0.1,0.207c-0.189-0.093-0.372-0.196-0.548-0.312c0.005-0.131,0.022-0.261,0.052-0.388l-0.209-0.1
	c-0.01,0.058-0.037,0.111-0.078,0.154c-0.03-0.033-0.056-0.085-0.078-0.052c-0.034,0.073-0.051,0.152-0.052,0.233
	c-0.235-0.075-0.455-0.189-0.652-0.338c0.083-0.104,0.111-0.242,0.077-0.371c-0.03-0.041-0.081-0.061-0.13-0.052
	c-0.03,0.03-0.057,0.063-0.078,0.101c-0.059-0.023-0.067-0.047-0.1-0.026c-0.041,0.069-0.094,0.131-0.157,0.181
	c-0.194-0.142-0.377-0.297-0.548-0.466C1.992,23.279,2.083,23.148,2.091,23H2.056v-0.02c-0.09,0.013-0.183-0.006-0.261-0.053
	c-0.052,0.044-0.116,0.07-0.183,0.078L1.482,22.8H0.908c-0.03-0.019-0.065-0.027-0.1-0.026c-0.082-0.064-0.138-0.156-0.157-0.258
	c0.007-0.345,0.096-0.682,0.257-0.985L0.752,21.5c-0.083-0.158-0.221-0.314-0.283-0.488c-0.06-0.221-0.104-0.445-0.13-0.673
	c-0.048-0.229,0.159-0.683,0.1-0.828c-0.05-0.065-0.094-0.137-0.131-0.211c-0.038-0.251-0.021-0.507,0.052-0.751v-3.18
	c-0.18-0.186-0.267-0.443-0.235-0.7c0.072-0.125,0.15-0.245,0.235-0.362v-1.423c0-0.076,0.036-0.163,0.026-0.207
	c-0.242-0.249-0.373-0.585-0.365-0.932c0.114-0.335,0.466-0.526,0.809-0.44c0.151-0.165,0.464,0.094,0.5,0.181
	c0.062,0.088-0.006,0.22,0.052,0.337c0.046,0.031,0.082,0.076,0.1,0.129H1.326c-0.058,0.121-0.187,0.225-0.235,0.337v0.181
	c-0.049,0.079-0.11,0.149-0.183,0.207c0.084,0.479,0.102,0.967,0.052,1.45c0.153,0.105,0.345,0.134,0.522,0.078v-0.467h0.313
	c0.02-0.187,0.103-0.36,0.235-0.492c0.114,0.014,0.207,0.096,0.235,0.207c0.064-0.016,0.077-0.061,0.1-0.026
	c0.018,0.033,0.045,0.06,0.078,0.078c0.159-0.135,0.346-0.232,0.548-0.285c0,0.128-0.009,0.133,0.1,0.155l1.774-0.518V12.7
	c-0.033-0.045-0.051-0.1-0.052-0.155h0.035v-0.023l0.365-0.078c0.011,0.099,0.038,0.195,0.078,0.285h0.027V12.7
	c0.112-0.134,0.056-0.281,0.313-0.285c0.008-0.393,0.061-0.784,0.157-1.165l0.052-0.6c0.1-0.442,0.148-0.958,0.209-1.424H6.022
	V9.208C5.881,9.191,5.742,9.165,5.605,9.13c-0.023-0.057-0.058-0.11-0.1-0.155C5.497,8.871,5.506,8.766,5.531,8.664
	c0.27-0.053,0.495-0.238,0.6-0.492C6.253,8.161,6.375,8.137,6.492,8.1c0.481-0.111,0.939,0.168,1.461,0.052
	c0.341-0.076,0.9-0.021,1.279-0.078h0.443c0.043,0.023-0.007,0.063,0.078,0.078l4.1,0.026c0.006-0.201,0.024-0.401,0.052-0.6
	L14.269,7.5z M34.881,24.3h0.053v0.026C34.913,24.323,34.895,24.314,34.881,24.3z M33.969,24.843h0.053v0.026
	C34.001,24.866,33.982,24.857,33.969,24.843z M8.477,26.443h0.05v0.025c-0.019-0.001-0.037-0.008-0.052-0.021L8.477,26.443z"/>
</svg>
