<svg xmlns="http://www.w3.org/2000/svg" width="40" height="40" viewBox="0 0 40 40">
  <defs>
    <style>
      .cls-1 {
        fill: #fff;
        fill-rule: evenodd;
      }
    </style>
  </defs>
  <path id="us_t26e4_superpershing_ico" class="cls-1" d="M9.246,17.553v0.068c0.413,0.011.812-.047,1.2-0.068,0.2-.011.461,0.06,0.488-0.137a0.374,0.374,0,0,1-.044-0.159A0.151,0.151,0,0,0,11,17.189,4.066,4.066,0,0,0,11.02,16.3c0.014-.093.022-0.319,0.022-0.319-0.036-.023-0.142-0.022-0.177-0.046H10.843V15.709a0.783,0.783,0,0,0-.687-0.023H10.133v0.068H10.044l-0.022-.114a2.535,2.535,0,0,0-.687-0.023,0.111,0.111,0,0,1-.067.023c0-.082.02-0.09-0.111-0.091a0.147,0.147,0,0,1-.089.023V15.413H9V15.254H9.069V15.072a0.423,0.423,0,0,0,.177.068l0.044-.068,0.244-.023V14.981a0.383,0.383,0,0,1,.222-0.045,0.245,0.245,0,0,1,.044.114c0.394,0,.838.022,1.264,0.023V14.981H11.33v0.091a0.658,0.658,0,0,0,.155-0.023V14.912h0.066l0.022,0.2a0.485,0.485,0,0,0,.222.045,3.136,3.136,0,0,0,.754.023,5.66,5.66,0,0,0,1.2.068h1.6v0.159c-0.441,0-.9,0-1.4,0H13.326a8.072,8.072,0,0,1-1.707.091,1.361,1.361,0,0,0-.044.433H11.552v0.023a0.456,0.456,0,0,0-.222.023,1.1,1.1,0,0,1,.044.5L11.4,17.394a0.275,0.275,0,0,1,.066.114,1.033,1.033,0,0,0,.754-0.387,0.272,0.272,0,0,1-.022-0.25,0.39,0.39,0,0,0,.333-0.273,0.247,0.247,0,0,1-.066-0.136,0.306,0.306,0,0,1,.089-0.023,0.832,0.832,0,0,1,.155.319,0.263,0.263,0,0,0-.044.068h0.2a1.738,1.738,0,0,1,.665-0.114,0.3,0.3,0,0,1,.022-0.159v0.159a0.313,0.313,0,0,0,.2.068l0.222-.273a0.256,0.256,0,0,0,.111.046,0.7,0.7,0,0,0,.066.319,1.111,1.111,0,0,0,.355.046c0.052-.131.129-0.124,0.31-0.114,0.061,0.184.046,0.307,0.31,0.3a0.287,0.287,0,0,0,.155.023V17.1H15.3a2.159,2.159,0,0,1,.133-0.729,2.186,2.186,0,0,0,.6.091,8.632,8.632,0,0,0,1.574.228,0.636,0.636,0,0,1-.022.2h0.155a6.868,6.868,0,0,0,1.109.159c0.292,0.076.658,0.094,0.953,0.159,0.119,0.026.1-.079,0.222-0.046a0.411,0.411,0,0,1,.089.091l0.31,0.023c0.326,0.085.713,0.075,1.02,0.137v0.023a0.644,0.644,0,0,0-.044.273,0.657,0.657,0,0,1,.155.023V17.8a0.118,0.118,0,0,0-.022.068l-0.155-.023-0.044.3H21.264a6.23,6.23,0,0,0-1.286-.228c-0.025.117-.234,0.255-0.288,0.432h0.532v0.341c0.108,0.064.321,0.069,0.421,0.137,0.008,0.014.052,0.153,0,.159H22a0.971,0.971,0,0,0,.377.023h0.953l3.5,0.023L37.273,19.1a0.613,0.613,0,0,1,.044-0.091h0.776c0.212-.053.473-0.129,0.687-0.182H39.8a1.17,1.17,0,0,1,.2.82,1.747,1.747,0,0,1-.2.3H38.758a2.551,2.551,0,0,0-.865-0.182H37.317a3.888,3.888,0,0,0-1.175-.068c-0.827,0-1.691.022-2.483,0.023l-13.1.068V19.92a0.773,0.773,0,0,1-.133.114H20.266a0.673,0.673,0,0,0-.044.41H19.934v-0.41H19.911a4.7,4.7,0,0,1-.377.41,0.627,0.627,0,0,0-.177.137,2.709,2.709,0,0,1,.333.068h0.754a2.182,2.182,0,0,1,.31.25,0.407,0.407,0,0,1,.066-0.091,1.157,1.157,0,0,0,.222.2,0.627,0.627,0,0,1,.333.091,0.161,0.161,0,0,1,.022.068l0.2,0.114h0.111a1.72,1.72,0,0,0,.444.3V21.423h0.067a0.472,0.472,0,0,0-.067-0.228,1.1,1.1,0,0,1,.067-0.455,0.126,0.126,0,0,1-.111-0.136,0.331,0.331,0,0,1,.089-0.046,0.417,0.417,0,0,1,.222-0.068v0.091h0.067v0.114H22.417v0.091H22.55v0.592H22.373v0.046h0.067v0.114h0.022c0.266-.437.813-0.078,1.02,0.091V21.65H23.437a0.108,0.108,0,0,0-.111-0.091v0.023a1.291,1.291,0,0,0,.177.273c0.039-.021,0,0,0.044,0a4.525,4.525,0,0,0,.244.706h0.2V22.7a0.7,0.7,0,0,0-.133.045,0.515,0.515,0,0,0,.333.228,0.8,0.8,0,0,1,.177-0.2,0.217,0.217,0,0,1,.266.25l-0.022.091a0.628,0.628,0,0,1,.133.2H24.7c-0.023.028-.056-0.027-0.111-0.046-0.017.06-.027,0.054-0.044,0.114a0.3,0.3,0,0,1,.022.159,0.382,0.382,0,0,1,.133.228H24.656V23.79H24.634V23.768a0.308,0.308,0,0,0-.155-0.114l-0.244.273a2.105,2.105,0,0,1-.288.182l-0.067-.023-0.155.182-0.488.478a2.9,2.9,0,0,1-.665.66c-0.021-.033-0.064-0.108-0.089-0.068a0.984,0.984,0,0,0-.2.25,0.29,0.29,0,0,0-.133,0l-0.266.228-0.044.159H21.707a1.392,1.392,0,0,0-.177.137c-0.07.054-.084,0.18-0.155,0.228a0.24,0.24,0,0,0-.111,0l-0.288.25a0.357,0.357,0,0,1-.044.137c-0.076.047-.359,0.065-0.488,0.137a0.36,0.36,0,0,1-.111.114,0.148,0.148,0,0,1-.089-0.068H19.823C19.8,26.986,19.8,26.984,19.712,27c-0.143-.223-0.451-0.029-0.6,0-0.082-.232-0.476-0.02-0.576,0a0.478,0.478,0,0,0-.466-0.091c-0.023.084-.015,0.08-0.111,0.091a0.513,0.513,0,0,0-.466-0.091c-0.025.077-.025,0.076-0.111,0.091-0.143-.223-0.451-0.029-0.6,0a0.478,0.478,0,0,0-.466-0.091c-0.022.084-.015,0.08-0.111,0.091a0.478,0.478,0,0,0-.466-0.091c-0.022.084-.015,0.08-0.111,0.091a0.513,0.513,0,0,0-.466-0.091c-0.025.077-.025,0.076-0.111,0.091-0.143-.223-0.451-0.029-0.6,0a0.478,0.478,0,0,0-.466-0.091c-0.022.084-.014,0.08-0.111,0.091-0.08-.23-0.479-0.025-0.576,0a0.476,0.476,0,0,0-.466-0.091c-0.006,0-.039.089-0.044,0.091a0.965,0.965,0,0,0-.532-0.091,0.253,0.253,0,0,1-.133.091,0.478,0.478,0,0,0-.466-0.091c-0.023.084-.015,0.08-0.111,0.091-0.08-.23-0.479-0.025-0.576,0-0.143-.223-0.451-0.029-0.6,0a0.478,0.478,0,0,0-.466-0.091C9.889,26.993,9.9,26.989,9.8,27a0.478,0.478,0,0,0-.466-0.091c-0.022.084-.015,0.08-0.111,0.091a0.513,0.513,0,0,0-.466-0.091c-0.025.077-.025,0.076-0.111,0.091-0.143-.223-0.451-0.029-0.6,0a0.478,0.478,0,0,0-.466-0.091c-0.022.084-.015,0.08-0.111,0.091a0.531,0.531,0,0,0-.466-0.091C6.98,26.991,6.973,26.992,6.874,27c-0.082-.232-0.482-0.014-0.6,0a0.406,0.406,0,0,0-.421-0.091A0.149,0.149,0,0,1,5.7,27a0.672,0.672,0,0,0-.532-0.114,0.59,0.59,0,0,1-.111-0.137,3.089,3.089,0,0,0-.31-0.137c-0.089-.02-0.07.048-0.133,0.023a0.3,0.3,0,0,1-.067-0.114c-0.011-.011-0.3-0.132-0.31-0.136l-0.177.023a0.763,0.763,0,0,1-.089-0.137,3.358,3.358,0,0,0-.31-0.136,1.767,1.767,0,0,1-.177.023,0.421,0.421,0,0,0-.488-0.228,0.585,0.585,0,0,0-.554-0.25A0.247,0.247,0,0,0,2.284,25.5a0.432,0.432,0,0,1-.155.068,0.241,0.241,0,0,0-.044-0.182,0.972,0.972,0,0,0-.177-0.046,0.16,0.16,0,0,0-.133-0.228,0.147,0.147,0,0,1-.089.023l-0.022-.068a0.191,0.191,0,0,0,.067-0.137A0.212,0.212,0,0,1,1.6,24.746c0.049-.053.025-0.018,0.022-0.114H1.574a0.881,0.881,0,0,1-.665.228V24.7H0.865V24.86H0.687v0.068a1.119,1.119,0,0,0-.4.046A0.7,0.7,0,0,0,0,24.883V24.815a0.692,0.692,0,0,1,.111-0.3A0.246,0.246,0,0,1,.044,24.4a5.994,5.994,0,0,0,.643-0.2C0.694,24,.781,23.843.8,23.676c0.02-.192-0.081-0.416-0.044-0.615A3.483,3.483,0,0,0,.82,22.4H0.776l-0.244.091V22.06a2.115,2.115,0,0,1,.2-0.319c0.077-.058.48-0.234,0.51-0.273a1.481,1.481,0,0,1,.621-0.683,2.039,2.039,0,0,0,.532.182,5.382,5.382,0,0,0,.643.25,1.536,1.536,0,0,0,.6-0.182,1.531,1.531,0,0,0,.244.068,3.522,3.522,0,0,0,.554-0.091c0.141-.051.312-0.159,0.466-0.2a4.323,4.323,0,0,0,1.064-.114H5.809V20.649a0.912,0.912,0,0,0,.377-0.068,4.954,4.954,0,0,1,.82.068,10.129,10.129,0,0,1,1.264,0c0.924,0,1.956,0,2.749,0v0.273h0.133a0.587,0.587,0,0,0,.022-0.182,1.376,1.376,0,0,0-.111-0.136,3.431,3.431,0,0,0-1.086-.228C9.645,20.29,9.265,20.3,8.914,20.194c-0.274-.082-0.619-0.206-0.887-0.319-0.217-.091-0.44-0.15-0.643-0.228L7.14,19.579V19.1H6.9V18.509H6.984v-0.5a3.192,3.192,0,0,1,1.4-.114,0.359,0.359,0,0,1,.4-0.25V17.576l0.111-.023a0.215,0.215,0,0,1,.067-0.182,1.369,1.369,0,0,0-.022-0.546,0.7,0.7,0,0,1,.022-0.25l-0.022-.433L8.825,13H8.869v0.455a2.991,2.991,0,0,1,.022.66c0.036,0.171-.02.439,0.022,0.637,0.12,0.566-.029,1.262.089,1.821a1.746,1.746,0,0,0,.155.956A0.146,0.146,0,0,0,9.246,17.553Zm3.3-1.935a0.229,0.229,0,0,1,.133.023A0.228,0.228,0,0,1,12.55,15.618Zm0.466,0a0.281,0.281,0,0,1,.155.023A0.28,0.28,0,0,1,13.016,15.618Zm-3.792.023H9.268v0.023A0.075,0.075,0,0,1,9.224,15.641Zm3.237,0.137h0.8V15.8H13.237A1.8,1.8,0,0,1,12.461,15.777Z"/>
</svg>
