<?xml version="1.0" encoding="utf-8"?>
<!-- Generator: Adobe Illustrator 16.0.0, SVG Export Plug-In . SVG Version: 6.00 Build 0)  -->
<!DOCTYPE svg PUBLIC "-//W3C//DTD SVG 1.1//EN" "http://www.w3.org/Graphics/SVG/1.1/DTD/svg11.dtd">
<svg version="1.1" id="Layer_1" xmlns="http://www.w3.org/2000/svg" xmlns:xlink="http://www.w3.org/1999/xlink" x="0px" y="0px"
	 width="39.938px" height="40px" viewBox="0 0 39.938 40" enable-background="new 0 0 39.938 40" xml:space="preserve">
<path id="Color_Fill_1" fill="#FFFFFF" d="M13.986,12.739h0.767c0.061-0.148,0.168-0.271,0.306-0.353
	c0.029-0.149,0.029-0.302,0-0.452c0.045-0.032,0.099-0.05,0.153-0.05c0.064,0.035,0.117,0.088,0.153,0.151
	c-0.214,0.038-0.187,0.026-0.2,0.251c0.388,0.068,0.782,0.085,1.175,0.05c0.054-0.203,0.252-0.333,0.46-0.3
	c0.146,0.248,0.437,0.37,0.715,0.3c0.006-0.069,0.023-0.137,0.051-0.2h0.101c0.177,0.204,0.458,0.282,0.715,0.2
	c0.049-0.11,0.066-0.232,0.051-0.352h-0.256v-0.251h-0.051v-0.05c-0.292-0.074-0.601-0.039-0.868,0.1v-0.15h-0.869l0.051-0.251
	h-0.153c-0.006,0.069-0.023,0.137-0.052,0.2h-0.051v-0.05c-0.082-0.081-0.136-0.187-0.153-0.3c0.086-0.057,0.142-0.149,0.153-0.251
	c0.041,0.025,0.075,0.06,0.101,0.1c0.035,0.078,0.007,0.007,0,0.151h0.154c-0.006-0.077-0.042-0.149-0.1-0.2
	c0.128-0.026,0.25-0.077,0.357-0.151c0.199-0.015,0.397,0.039,0.563,0.151c0.238,0.027,1.635-0.05,1.635-0.05
	c0.036-0.063,0.089-0.116,0.153-0.151c0.021,0.46,0.67,0.326,1.124,0.3c0.435,0.268,2.554,0.105,3.27,0.1v0.151
	c-0.903-0.054-1.811-0.021-2.708,0.1c-0.138,0.01-0.276-0.007-0.408-0.05c-0.429-0.015-0.857,0.019-1.277,0.1v0.452h-0.257
	c-0.011,0.168,0.007,0.337,0.051,0.5c0.312-0.219,0.696-0.309,1.073-0.251l-0.052,0.352c0.093,0.057,0.174,0.213,0.256,0.251h0.357
	v0.1h0.563c0.507-0.032,1.014,0.054,1.481,0.251c0.035,0.039,0.067,0.112,0.101,0.151v-0.1c0.084-0.199,0.302-0.306,0.511-0.251
	c0.279,0.521,0.229,1.122,1.175,1.104c0.283,0.075,0.579,0.092,0.869,0.05c0.117,0.252,2.048,0.157,2.656,0.151
	c0.317,0.077,0.646,0.094,0.971,0.05h2.4l8.735,0.056V15l-10.318,0.1h-3.271c-0.391,0.028-0.783,0.028-1.175,0v0.151l-1.43,0.1
	c-0.152,0.4-0.591,0.331-0.613,0.854c0.382,0.034,1.772-0.313,2.2-0.05c0.173,0.065,0.317,0.19,0.409,0.352l0.255-0.2v0.101
	c-0.063,0.037-0.115,0.089-0.153,0.151c0.527,0.125,0.548,0.62,1.073,0.652v-0.252h0.051v0.1c0.113,0.104,0.185,0.247,0.2,0.4
	c0.317,0.08,0.646,0.097,0.971,0.05c0.276-0.122,0.592-0.122,0.868,0v0.151h-0.2c-0.006,0.068-0.023,0.137-0.051,0.199h0.153
	c0.116-0.1,0.328-0.107,0.46-0.199c-0.046-0.086-0.046-0.064,0-0.151c0.021,0.058,0.059,0.236,0.1,0.101l0.1-0.051v-0.05
	c-0.07,0.005-0.14-0.013-0.199-0.05c0.133-0.088,0.068-0.083,0.051-0.3c0.192-0.081,0.366-0.201,0.511-0.353h0.051l0.358,1h0.357
	c0.345-0.046,0.67,0.167,0.767,0.5c-0.284,0.118-0.519,0.33-0.664,0.601c0.942,0.499,1.308,1.665,0.817,2.612
	c-0.488,0.92-2.814,1.992-3.78,2.611c-0.622,0.515-1.311,0.941-2.048,1.27c-0.541,0.083-1.09,0.1-1.636,0.05H5.965
	c-0.646,0.067-1.299,0.051-1.941-0.05c-0.405-0.219-0.769-0.508-1.072-0.854c-0.893-0.591-1.686-1.32-2.351-2.16
	c-0.113-0.413-0.096-0.853,0.051-1.256c-0.065-0.177-0.099-0.364-0.1-0.553c0.036-0.052,0.091-0.089,0.153-0.101
	c0.053-0.01,0.104-0.026,0.152-0.05c-0.162-0.228-0.1-0.55-0.255-0.8c-0.064-0.024-0.131-0.041-0.2-0.05
	c-0.105-0.218-0.158-0.458-0.152-0.7c-0.284-0.035-0.274-0.138-0.255-0.452c0.137-0.007,0.273-0.023,0.408-0.05
	c0.321-0.482,0.108-1.35,0.716-1.557c0.06-0.037,0.13-0.055,0.199-0.051c0.007-0.094-0.03-0.187-0.1-0.25
	c0.334,0.115,0.7,0.098,1.022-0.051c-0.063-0.078-0.033-0.025,0-0.1v0.05c0.123,0.101,0.12,0,0.152,0.2l0.664-0.051v-0.26h0.148
	v0.199c0.371-0.063,0.747-0.098,1.124-0.1v-0.051c0.027-0.025,0.063-0.043,0.1-0.049c0.15,0.045,0.311,0.045,0.46,0
	c0.042-0.164-0.024-0.078,0.101-0.151v0.151h0.157c0.006-0.07,0.023-0.137,0.052-0.201H5.25v0.151
	c0.191-0.003,0.381-0.036,0.562-0.1l0.358,0.05c0.1-0.035,0.1-0.146,0.2-0.2c0.344,0.126,0.719,0.144,1.072,0.05V15.9
	c0.925,0.097,1.858,0.029,2.76-0.2c0.437-0.101,0.932-0.026,1.276-0.151c0.091,0.13,0.273,0.221,0.358,0.352
	c0.017,0.026-0.083,0.133,0,0.201h0.409c0.439-0.101,0.897-0.084,1.328,0.049c-0.279-0.147-0.509-0.374-0.661-0.65
	c-0.112-0.664-0.13-1.341-0.052-2.01c0.109-0.219,0.178-0.457,0.2-0.7l0.767-0.05c-0.042-0.47-0.025-0.942,0.051-1.407V6.66
	c-0.07-0.72-0.051-1.445,0.058-2.16v5.778C13.996,11.097,14.013,11.918,13.986,12.739z M16.486,11.332
	c0.266,0.089,0.553,0.089,0.817,0H16.49H16.486z M20.062,11.784c0.308-0.045,0.62-0.028,0.92,0.05
	c-0.306,0.044-0.617,0.028-0.917-0.049L20.062,11.784z M16.435,12.184c0,0.055,0.018,0.108,0.051,0.151v-0.148h-0.049L16.435,12.184
	z M16.793,12.184l0.051,0.151h0.053v-0.05h0.052v-0.05h-0.052c-0.028-0.026-0.063-0.043-0.102-0.048L16.793,12.184z M22.872,13.139
	c-0.031,0.08-0.048,0.165-0.052,0.251c0.064,0.026,0.132,0.042,0.2,0.05c0.043-0.061,0.077-0.128,0.101-0.2h-0.042
	c-0.075-0.125-0.023-0.076-0.205-0.099L22.872,13.139z M1.367,16.607v0.101h0.051v-0.101H1.367z M1.467,16.658
	c0.074,0.09,0.194,0.129,0.307,0.1v-0.05c-0.104,0.001-0.206-0.016-0.304-0.05H1.467z M29.973,17.258v0.1h0.051v-0.1h-0.049H29.973z
	 M26.703,17.409c0.041,0.069,0.119,0.108,0.199,0.1v-0.1H26.703z M30.024,17.509c-0.044,0.165-0.1,0.2-0.152,0.353h0.1
	c0.078-0.042,0.167-0.059,0.255-0.051v-0.05c-0.053-0.074-0.087-0.16-0.1-0.251h-0.101L30.024,17.509z M26.703,17.66v0.1h0.256v-0.1
	h-0.253H26.703z M27.112,17.66c0.04,0.131,0.074,0.265,0.101,0.4c0.158-0.057,0.312-0.123,0.46-0.201
	c-0.006,0.071,0.013,0.142,0.051,0.201c0.002-0.087,0.02-0.172,0.051-0.252c0.105,0.014,0.211-0.004,0.307-0.05
	c-0.31-0.109-0.641-0.142-0.965-0.096L27.112,17.66z M29.258,17.811c-0.106,0.092-0.3,0.113-0.409,0.2
	c0.201,0.011,0.553-0.1,0.411-0.198L29.258,17.811z M29.513,17.811v0.101h0.054v-0.101h-0.051H29.513z M26.754,17.911
	c-0.039,0.034-0.114,0.065-0.153,0.1h0.051c0.078,0.052,0.178,0.052,0.256,0h0.051v-0.05c-0.069-0.005-0.137-0.021-0.201-0.047
	L26.754,17.911z M-0.011,20.477h0.1v0.1h-0.1V20.477z M0.703,20.576c-0.027,0.063-0.044,0.131-0.052,0.199h0.052v0.051h0.1v-0.249
	L0.703,20.576L0.703,20.576z M28.647,21.782l-0.255,0.3c0.062,0.266,0.165,0.521,0.307,0.754c0.253-0.235,0.547-0.423,0.867-0.553
	c-0.027-0.027-0.062-0.044-0.1-0.051c-0.14-0.1-0.354-0.105-0.511-0.199C28.851,21.971,28.756,21.852,28.647,21.782z M26.501,22.887
	c0.051,0.145,0.068,0.3,0.051,0.452c-0.113,0.048-0.217,0.115-0.306,0.2c0.157,0.169,0.133,0.589,0.255,0.652
	c0.229-0.225,0.592-0.322,0.816-0.553c-0.225-0.141-0.417-0.33-0.562-0.553v-0.2L26.501,22.887L26.501,22.887z M26.45,22.938
	c-0.23,0.032-0.454,0.1-0.664,0.199c0.027,0.027,0.062,0.045,0.1,0.051c0.093,0.075,0.178,0.159,0.255,0.25l0.358-0.1v-0.249
	C26.467,23.045,26.449,22.992,26.45,22.938L26.45,22.938z M2.389,23.137c0.282,0.361,0.629,0.666,1.022,0.9
	c0.029-0.336,0.195-0.645,0.46-0.854c-0.337-0.063-0.681-0.08-1.022-0.051c-0.153,0.011-0.307,0.013-0.46,0.006V23.137z
	 M14.139,23.137c0.472,0.625,0.688,0.606,0.409,1.608h0.613V24.7c-0.422-0.437,0.028-1.087,0.152-1.407h-0.051
	c-0.265,0.089-0.552,0.089-0.817,0c-0.107-0.039-0.212-0.092-0.309-0.154L14.139,23.137z M15.467,23.137l-0.1,0.151l0.152-0.05
	c-0.006-0.038-0.024-0.073-0.053-0.1V23.137z M21.342,23.137l-0.1,0.151l0.152-0.05c-0.007-0.039-0.027-0.074-0.058-0.1
	L21.342,23.137z M8.417,23.188c0.169,0.178,0.336,0.377,0.511,0.553c0.051,0.341-0.003,0.689-0.153,1h0.512v-0.1
	c-0.247-0.446-0.165-1.002,0.199-1.356h-0.1c-0.323,0.097-0.671,0.063-0.969-0.095V23.188z M20.017,23.188
	c0.174,0.178,0.335,0.373,0.511,0.553c0.051,0.341-0.002,0.689-0.152,1h0.662V24.7c-0.462-0.461,0.006-1.027,0.152-1.407h-0.1
	c-0.359,0.1-0.742,0.063-1.076-0.104L20.017,23.188z M5.458,23.986c-0.08,0.244-0.146,0.535-0.2,0.755h1.831v-0.101
	c-0.078-0.195-0.146-0.396-0.2-0.6c-0.472-0.104-0.958-0.12-1.435-0.048L5.458,23.986z M11.18,23.986
	c-0.003,0.265-0.071,0.523-0.2,0.755h1.891V24.7c-0.095-0.208-0.162-0.428-0.2-0.653c-0.49-0.109-0.997-0.127-1.494-0.054
	L11.18,23.986z M17.055,23.986c-0.081,0.248-0.146,0.541-0.2,0.755h1.839v-0.101c-0.076-0.196-0.143-0.396-0.199-0.6
	c-0.475-0.104-0.964-0.121-1.443-0.048L17.055,23.986z M22.93,23.986c-0.08,0.244-0.145,0.535-0.2,0.755h1.839v-0.101
	c-0.08-0.195-0.147-0.395-0.199-0.6c-0.475-0.104-0.964-0.121-1.443-0.048L22.93,23.986z"/>
</svg>
