<svg xmlns="http://www.w3.org/2000/svg" width="40" height="40" viewBox="0 0 40 40">
  <defs>
    <style>
      .cls-1 {
        fill: #fff;
        fill-rule: evenodd;
      }
    </style>
  </defs>
  <path id="Color_Fill_1" data-name="Color Fill 1" class="cls-1" d="M17.54,17.448V17.3a0.579,0.579,0,0,0,.348-0.606,0.345,0.345,0,0,1-.05-0.2l0.4,0.051v0.1c-0.268.019-.257,0.068-0.248,0.354H19.28a0.472,0.472,0,0,1,.5-0.354,0.71,0.71,0,0,0,.8.354,0.247,0.247,0,0,1,.05-0.152,0.25,0.25,0,0,1,.149-0.05c0.121,0.24.333,0.22,0.7,0.2a0.179,0.179,0,0,0,.1.05V16.691a0.182,0.182,0,0,0,.05-0.1h-0.3v-0.3h-0.1a0.926,0.926,0,0,0-.894.05l-0.05-.151a2.278,2.278,0,0,0-.994.05c0.019-.169.05-0.143-0.2-0.152a1.108,1.108,0,0,1,0-.606,0.956,0.956,0,0,0,.6-0.152,0.729,0.729,0,0,1,.547.152h1.441c0.014-.134.041-0.106,0.3-0.1,0.072,0.129-.011.057,0.149,0.1a0.273,0.273,0,0,1,.149-0.2c0,0.286.017,0.3,0.3,0.3a4.115,4.115,0,0,0,.994.051,18.338,18.338,0,0,0,3.578.1v0.2c-1.743-.03-3.134.1-4.77,0.1v0.05h-0.05a0.935,0.935,0,0,1-.05.455c-0.059.039-.239,0.06-0.3,0.1a1.1,1.1,0,0,1,.05.505,1.269,1.269,0,0,0,.4-0.253,1.491,1.491,0,0,1,.745-0.051l0.05,0.1a3.249,3.249,0,0,1,0,.4c0.265,0.088.62,0.271,0.944,0.354,0.821,0.21,1.712-.19,2.037.4a0.663,0.663,0,0,1,.5-0.4,0.71,0.71,0,0,1,.248.707,1.832,1.832,0,0,1,.6.606H28.87a0.331,0.331,0,0,0,.2.051v0.151c2.341-.011,4.632.134,6.907,0.152l2.534,0.05A5.757,5.757,0,0,1,40,19.47a1.69,1.69,0,0,0-.05.505l-10.882.253v0.152l-1.59.051c-0.139.419-.635,0.425-0.7,0.859a0.387,0.387,0,0,0,.149.152,0.232,0.232,0,0,0,.2.05,1.1,1.1,0,0,0,.149-0.152h2.037a2.476,2.476,0,0,0,.944.657,1.365,1.365,0,0,0,.7.606,0.47,0.47,0,0,0,0-.3h0.05a0.931,0.931,0,0,1,.2.354,0.562,0.562,0,0,1,0,.253h1.143a0.936,0.936,0,0,1,.6-0.152,0.627,0.627,0,0,0,.348.152v0.2H33.044V23.36h0.05a1.32,1.32,0,0,1,.6-0.253,0.239,0.239,0,0,1,0-.253h0.1c0.026-.055-0.02-0.306,0-0.4a2.342,2.342,0,0,1,.6-0.3V22.2h0.05a5.99,5.99,0,0,0,.348,1.061h0.5c0.29,0.188.715,0.09,0.745,0.556a4.041,4.041,0,0,0-.8.657v0.05a2.229,2.229,0,0,1,.944,2.981,4.137,4.137,0,0,1-1.59,1.314c-1.057.677-2.123,1.444-3.18,2.122a6.6,6.6,0,0,1-1.838,1.011H7.155a5.771,5.771,0,0,1-1.54-.051,4.714,4.714,0,0,1-1.242-1.061,10.978,10.978,0,0,1-2.484-2.375,2.357,2.357,0,0,1,.05-1.364,2.315,2.315,0,0,0-.149-0.657,0.528,0.528,0,0,1,.348-0.152,4,4,0,0,0-.248-0.909,2.583,2.583,0,0,1-.348-0.354c-0.054-.156-0.011-0.393-0.05-0.505a4.076,4.076,0,0,0-1.043-.657,0.247,0.247,0,0,1-.05.151V23.865L0,23.815v-0.05a10.065,10.065,0,0,0,.547-2.021c0.5,0.068,1.022.333,1.54,0.455v0.05a1.89,1.89,0,0,0-.2.657h0.05V22.8a1,1,0,0,1,.7-0.758,0.321,0.321,0,0,0-.1-0.253h0.3v0.1l0.8-.1v-0.2h0.05a0.4,0.4,0,0,0,.149.152,0.26,0.26,0,0,1,.05.151l0.745-.1-0.05-.253h0.2v0.2a3.652,3.652,0,0,0,1.292-.152,0.238,0.238,0,0,1-.149-0.05,5.909,5.909,0,0,0,.7,0c0.041-.164-0.024-0.077.1-0.152v0.152h0.2v-0.2H7.056v0.152a3.258,3.258,0,0,0,1.242-.3,0.331,0.331,0,0,0,.05.2,3.235,3.235,0,0,1,.447-0.1,0.238,0.238,0,0,1-.149-0.05c0.33,0.015.5,0.01,0.845,0a0.4,0.4,0,0,1,0-.2h0.1v0.152c1.443,0.011,2.642-.389,4.224-0.4,0.019-.132-0.037-0.066.1-0.1,0.056,0.082.4,0.556,0.4,0.556v0.05h0.5a2.815,2.815,0,0,1,1.391.05,1.639,1.639,0,0,1-.745-0.808V18.257A2.132,2.132,0,0,0,15.7,17.5a3.927,3.927,0,0,0,.8-0.05,2.78,2.78,0,0,1-.1-0.909c0-.015.14-0.123,0.149-0.152V10.476A10.827,10.827,0,0,1,16.6,8v6.72a11.387,11.387,0,0,1,.05,2.728h0.646A0.34,0.34,0,0,0,17.54,17.448Zm1.838-1.718V15.579l-0.2-.051v0.051c0.136,0.081.041-.008,0.05,0.152h0.149Zm0.1,0.1a1.447,1.447,0,0,0,.894,0H19.478Zm-0.3.1v0.1c0.178-.021.125,0.024,0.2-0.1h-0.2Zm4.273,0.455a2.345,2.345,0,0,1,.944.05A2.347,2.347,0,0,1,23.453,16.387Zm-4.025.4a0.722,0.722,0,0,0-.05.2h0.05v-0.1C19.49,16.814,19.461,16.867,19.429,16.792Zm0.348,0.152c0.161-.042.076,0.025,0.149-0.1h-0.05v-0.05h-0.1v0.152Zm6.758,0.96a0.539,0.539,0,0,0-.1.253,0.522,0.522,0,0,0,.248.1,0.539,0.539,0,0,0,.1-0.253A0.521,0.521,0,0,0,26.534,17.9ZM14.311,21.137c0.055,0.084.088,0.054,0,.1v-0.1Zm15.6,0.4c0.062,0.079.032,0.026,0,.1-0.017.016-.064,0.169-0.149,0.1Zm-27.23.3a0.33,0.33,0,0,0,.05.2A0.33,0.33,0,0,0,2.683,21.844Zm0.149,0.1a0.345,0.345,0,0,0,.348.1v-0.1A0.464,0.464,0,0,1,2.832,21.945ZM34.385,22.6a0.247,0.247,0,0,0,.05.152A0.247,0.247,0,0,0,34.385,22.6Zm-3.627.152v0.152h0.248V22.8A0.769,0.769,0,0,0,30.758,22.754Zm2.981,0.152a0.411,0.411,0,0,0,0,.2h0.05V23.057l0.149-.1v-0.05h-0.2Zm0.745,0a1.477,1.477,0,0,0-.2.4h0.1a0.5,0.5,0,0,0,.248-0.152C34.576,23.085,34.547,22.973,34.485,22.905Zm-32.646.05-0.248.96h0.1A2,2,0,0,0,1.839,22.956Zm32.3,0.05a0.179,0.179,0,0,0,.1.05A0.178,0.178,0,0,0,34.137,23.006Zm-3.379.1v0.1h0.248v-0.05h0.05V23.107h-0.3Zm0.447,0a1.173,1.173,0,0,0,.149.455A1.806,1.806,0,0,1,31.8,23.31c0.021,0.181-.023.127,0.1,0.2,0.019-.272.067-0.261,0.348-0.253V23.107H31.205Zm2.385,0.152a1.574,1.574,0,0,1-.5.2v0.051h0.2C33.361,23.464,33.736,23.341,33.59,23.259Zm0.248,0a0.178,0.178,0,0,0,.1.051A0.178,0.178,0,0,0,33.839,23.259Zm-3.18.152a1.135,1.135,0,0,0,.348.1v-0.1H30.658Zm0.05,0.1c0.085,0.044.063,0.045,0.149,0H30.708ZM2.087,26.695a0.735,0.735,0,0,1,.05-0.253h-0.2a0.141,0.141,0,0,1-.05.05,0.174,0.174,0,0,0,.05.1C2.01,26.722,1.927,26.651,2.087,26.695Zm30.807,1.112a1.741,1.741,0,0,0-.3.455,1,1,0,0,1,.248,1.011h0.05a5.91,5.91,0,0,1,1.391-.909V28.312A2.177,2.177,0,0,1,32.894,27.806Zm-2.137,1.213a1.409,1.409,0,0,1-.248.1,1.457,1.457,0,0,1,.1.505,1.454,1.454,0,0,0-.4.152,2.326,2.326,0,0,1,.248,1.061A5.162,5.162,0,0,1,31.7,30.03V29.979C31.008,29.932,31.047,29.473,30.758,29.019Zm-0.4.1c-0.18.124-.479,0.117-0.646,0.253h0.05a1.236,1.236,0,0,0,.5.3,0.846,0.846,0,0,1,.3-0.1V29.423a0.881,0.881,0,0,1-.1-0.3h-0.1Zm-26.683.253v0.152c0.492,0.3.818,0.795,1.292,1.112a1.317,1.317,0,0,1,.547-1.213A6.87,6.87,0,0,0,3.677,29.373Zm6.807,0a1.539,1.539,0,0,1,.5.556c0.391,0.491-.062,1.1-0.2,1.465h0.894v-0.05c-0.744-.505-0.186-1.318,0-1.819h-0.05A1.414,1.414,0,0,1,10.485,29.373Zm6.36,0a1.538,1.538,0,0,1,.5.556c0.391,0.492-.063,1.092-0.2,1.465h0.994v-0.05a1.37,1.37,0,0,1,0-1.768H17.143A0.386,0.386,0,0,0,16.845,29.373Zm1.441,0-0.05.152h0.05a0.192,0.192,0,0,1,.149-0.1V29.373H18.286Zm5.019,0a1.325,1.325,0,0,1,.3,2.021h1.044v-0.05A1.242,1.242,0,0,1,24.3,30.08c0.07-.208.269-0.343,0.348-0.556H24.6A1.85,1.85,0,0,1,23.3,29.373Zm1.491,0-0.1.152c0.02,0.012.189-.09,0.248-0.1V29.373H24.8Zm1.739,0.96a1.659,1.659,0,0,1-.4,1.061h2.435v-0.05c-0.4-.287-0.169-0.585-0.4-0.96a3.866,3.866,0,0,0-1.441-.051A0.273,0.273,0,0,0,26.534,30.333Zm-19.329,0a2.376,2.376,0,0,1-.348,1.061H9.242v-0.05a2.021,2.021,0,0,1-.4-0.96A4.463,4.463,0,0,0,7.2,30.333Zm6.36,0a1.658,1.658,0,0,1-.4,1.061H15.6v-0.05a2.02,2.02,0,0,1-.4-0.96A4.464,4.464,0,0,0,13.565,30.333Zm6.509,0-0.1.606a5.212,5.212,0,0,1-.3.455h2.385v-0.05a3.039,3.039,0,0,1-.4-0.96A4.316,4.316,0,0,0,20.075,30.333Z" transform="translate(0 0.016)"/>
</svg>
