<?xml version="1.0" encoding="utf-8"?>
<!-- Generator: Adobe Illustrator 16.0.0, SVG Export Plug-In . SVG Version: 6.00 Build 0)  -->
<!DOCTYPE svg PUBLIC "-//W3C//DTD SVG 1.1//EN" "http://www.w3.org/Graphics/SVG/1.1/DTD/svg11.dtd">
<svg version="1.1" id="Layer_1" xmlns="http://www.w3.org/2000/svg" xmlns:xlink="http://www.w3.org/1999/xlink" x="0px" y="0px"
	 width="40px" height="40px" viewBox="0 0 40 40" enable-background="new 0 0 40 40" xml:space="preserve">
<path id="Color_Fill_1" fill="#FFFFFF" d="M20.205,11.754c0.988,0.013,2.609,0.12,4.148,0.121v0.162c-0.771-0.007-1.668,0-2.547,0
	l-0.041,0.162c-0.064-0.08-0.181-0.091-0.26-0.027c-0.01,0.008-0.02,0.017-0.027,0.027c0-0.164,0.067-0.1-0.041-0.162
	c-0.387,0.112-0.793,0.14-1.19,0.081l-0.041,0.162h0.821c0.273,0.161,0.789-0.007,1.027,0.162c-0.054,0.022-0.031,0-0.041,0.04
	c0.057,0.171,0.135,0.17,0.369,0.162c0.396-0.035,0.795-0.035,1.191,0c-0.014,0.217-0.041,0.434-0.082,0.648h0.041v0.041
	c0.354,0.037,0.591,0.1,0.9,0.121c0.032,0.085,0.074,0.166,0.123,0.243c0.17-0.066,0.355-0.081,0.533-0.041v0.081h-0.039
	c-0.098,0.025-0.184,0.082-0.246,0.162h0.082c0.324,0.073,0.658,0.087,0.986,0.041c0.752-0.056,1.507-0.056,2.259,0
	c0.942,0.076,1.89,0.089,2.834,0.041h0.944c0.613,0.071,1.232,0.084,1.848,0.04c0.931,0.047,1.863,0.047,2.793,0v0.526
	c-1.285-0.069-2.574-0.069-3.859,0c-0.82-0.07-1.646-0.057-2.465,0.04h-1.232c-0.878-0.022-1.756,0.019-2.628,0.122h-0.411
	c-0.283,0.13-0.558,0.279-0.821,0.445c-0.243,0.105-0.312-0.189-0.37,0.162c-0.053,0.185-0.053,0.382,0,0.567
	c2.348,0,4.719,0.121,6.653,0.121v0.122l0.616,0.04c-0.059-0.243,0.13-0.338,0.451-0.324c0.05-0.03,0.107-0.044,0.164-0.041
	c0.006,0.11-0.008,0.219-0.041,0.324h0.205c0.129,0.069,0.237-0.074,0.412,0l0.041,0.122l0.451,0.04
	c0.191-0.092,0.026-0.3,0.329-0.121v-0.121h0.164c0.06,0.076,0.128,0.143,0.205,0.2c0.065,0.094,0.095,0.209,0.082,0.324
	c0.122-0.019,0.247-0.019,0.37,0c0,0.128-0.07,0.054,0.041,0.121c0.299-0.02,0.6-0.02,0.9,0l0.041-0.121
	c0.213-0.06,0.438-0.073,0.656-0.041v0.243c0.441-0.005,0.881,0.035,1.314,0.121c0.041,0.186,0.055,0.377,0.041,0.567l0.615,0.041
	v-0.241h0.082v0.243c0.229,0.061,0.467,0.074,0.7,0.04H39.1c0.02-0.365,0.153-0.674,0.164-1.093h0.123
	c0.022,0.379-0.005,0.76-0.082,1.133h0.164c0.071,0.036,0.053,0.036,0.123,0c-0.199-0.036-0.175-0.1-0.164-0.324
	c0.098-0.258,0.141-0.534,0.123-0.81h0.123c-0.027,0.373-0.007,0.791,0,1.174h0.041v-0.04c0.032-0.048,0.049-0.195,0.082-0.243
	v0.041c0.039,0.089,0.054,0.187,0.041,0.283H40v0.04c-0.16,0.229-0.297,0.474-0.411,0.729c-0.082,0.118-0.282,0.137-0.37,0.243
	c-0.031,0.099-0.072,0.193-0.123,0.283c-0.191,0.149-0.462,0.187-0.656,0.324c-0.702,0.513-1.324,1.127-1.849,1.821
	c-0.197,0.129-0.354,0.311-0.452,0.525c-0.107,0.039-0.365,0.129-0.369,0.121c-0.022-0.021-0.037-0.051-0.041-0.081
	c0.033-0.021,0.061-0.048,0.082-0.081c-0.137-0.074-0.229-0.21-0.246-0.363c-0.018,0.01-0.031,0.023-0.041,0.041
	c-0.021,0.051-0.035,0.105-0.041,0.161c-0.145,0.061-0.297,0.102-0.453,0.121v-0.08c0.034-0.021,0.063-0.048,0.082-0.081
	c-0.084-0.097-0.152-0.206-0.204-0.324c-0.36,0.234-0.746,0.424-1.15,0.567c-0.536,0.274-1.1,0.579-1.644,0.851
	c-0.071,0.035-0.268,0.136-0.327,0.035h-0.041c-0.052,0.032-0.038,0.172-0.082,0.2l-0.411,0.04c-0.082,0.029-0.2,0.12-0.288,0.162
	c-0.065,0.254-0.21,0.48-0.411,0.648l-0.328,0.121c-0.432,0.287-0.904,0.506-1.4,0.648c-0.143,0.088-0.279,0.182-0.411,0.283
	c-0.156,0.016-0.31,0.057-0.452,0.122c-0.352,0.259-0.738,0.463-1.15,0.606c-0.485,0.106-0.986,0.12-1.478,0.041l-2.013,0.039
	l-0.738-0.039c-0.874,0.078-1.754,0.078-2.628,0c-0.716-0.053-1.739,0.113-2.341,0c-0.125-0.01-0.25,0.003-0.37,0.039
	c-0.506,0.07-1.019,0.057-1.52-0.039l-2.382,0.039c-0.954-0.402-1.862-0.906-2.71-1.5c-0.315-0.008-0.63-0.046-0.939-0.111
	c-0.75-0.483-1.486-0.978-2.259-1.457c-0.132-0.082-0.273-0.256-0.411-0.324c-0.138-0.069-0.317-0.042-0.451-0.119
	c-0.35-0.313-0.753-0.56-1.191-0.729c-0.034,0.161-0.104,0.313-0.205,0.444c-0.078-0.069-0.184-0.099-0.287-0.081v0.04H4.846
	c0.016,0.093,0.038,0.044,0,0.121v0.041l-0.37-0.081c-0.022-0.063,0.028-0.156,0-0.199c0,0-0.34-0.182-0.37-0.201
	c-0.323-0.235-0.561-0.557-0.9-0.809c-0.993-0.727-1.867-1.602-2.59-2.597c0.005,0.126-0.023,0.252-0.082,0.364
	c-0.114-0.164-0.295-0.268-0.493-0.283v-0.121h0.164v-0.122H0.041C0.016,17.639,0.002,17.571,0,17.502
	c0.406-0.22,0.284-0.753,0.575-1.133v0.041c0.03,0.169,0.085,0.333,0.164,0.486c0.089-0.232,0.118-0.484,0.082-0.73h0.041v0.081
	c0.071,0.138,0.113,0.29,0.123,0.445c0.233-0.027,0.468-0.027,0.7,0c0.037,0.075,0.051,0.16,0.041,0.243
	c-0.097-0.003-0.194,0.01-0.287,0.04v0.041h1.23v-0.081c0.058-0.083-0.083-0.044-0.041-0.2c0.054-0.084,0.083-0.183,0.082-0.283
	h0.206v0.243c0.479,0.045,0.961,0.031,1.437-0.041c0.02,0.083,0.047,0.165,0.082,0.243c0.245-0.033,0.494-0.033,0.739,0
	c-0.175-1.746,1.783-1.547,3-1.255c-0.062,0.113-0.103,0.236-0.123,0.364L9.2,16.045v0.162h0.081
	c0.036,0.026,0.079,0.041,0.123,0.041v-0.041c-0.092-0.063-0.14-0.173-0.123-0.283c0.707-0.105,1.424-0.119,2.135-0.04v-0.168
	c0.31-0.074,0.626-0.115,0.945-0.121c0.184,0.034,0.363,0.088,0.534,0.162l0.041,0.122h3.08l0.041-1.093h-3.121
	c-0.175-0.046-0.354-0.074-0.534-0.081c-0.033-0.06-0.075-0.114-0.123-0.162c0.059-0.183,0.087-0.375,0.082-0.567
	c-0.09,0.012-0.18-0.018-0.246-0.081H12.4l0.082-0.607c0.084,0.008,0.169-0.005,0.246-0.04c0.053-0.127,0.081-0.263,0.082-0.4
	c0.15,0.084,0.324,0.112,0.493,0.081c0.002-0.113,0.03-0.224,0.082-0.324c0.064-0.187,0.2-0.175,0.452-0.162
	c0.16,0.049,0.328,0.063,0.493,0.04c0.168,0.232,0.418,0.392,0.7,0.445v-0.04l-0.041-0.04h0.082c0.064,0.05,0.021,0.026,0.082,0
	c0.076-0.124,0-0.444,0.082-0.567v0.607c0.205,0.02,0.475,0.039,0.821,0.04c0.044-0.201,0.059-0.407,0.044-0.612
	c-0.285-0.052-0.575-0.065-0.863-0.04v-0.04h0.821c0.016-0.207,0.057-0.41,0.123-0.607c0.025-0.219-0.003-0.441-0.082-0.648
	c-0.016-0.102,0.014-0.206,0.082-0.283V9.816c-0.065-0.432-0.052-0.873,0.041-1.3v2.064H16.3c0.147-0.091,0.325-0.12,0.493-0.081
	c0.1,0.052,0.028-0.017,0.082,0.081c0,0.01,0.153,0.435,0.164,0.486c0.036,0.159-0.088,0.172-0.041,0.283
	c0.129,0.147,0.24,0.311,0.329,0.486h0.082c0.095-0.274,0.339-0.083,0.575-0.2v-0.083c0.174-0.023,0.35,0.02,0.493,0.121
	c0.398,0.062,0.805,0.034,1.191-0.081c0.143-0.027,0.29,0.002,0.411,0.081c0.014-0.069,0.061-0.128,0.126-0.157v0.243V11.754z
	 M16.222,11.228v0.648H16.3v-0.081c0.067-0.124,0.109-0.26,0.123-0.4C16.36,11.335,16.292,11.279,16.222,11.228z M16.304,12.078
	c-0.005,0.057,0.01,0.114,0.041,0.162c0.003-0.058-0.013-0.115-0.045-0.162H16.304z M17.782,12.24c0.227,0.074,0.472,0.074,0.7,0
	H17.782z M21.314,12.24H21.4v0.04C21.367,12.277,21.338,12.263,21.314,12.24z M21.848,12.24h0.082v0.04
	C21.898,12.276,21.87,12.262,21.848,12.24L21.848,12.24z M16.348,12.28c-0.032,0.217-0.019,0.438,0.041,0.648
	c0.031-0.216,0.016-0.438-0.044-0.648H16.348z M17.868,12.968h0.164c-0.022-0.106-0.022-0.217,0-0.324h1.15v-0.283l-1.52,0.04v0.081
	c0.11,0.141,0.181,0.309,0.203,0.486H17.868z M20.209,12.361c0.001,0.083-0.013,0.166-0.041,0.243h0.328
	c0.479-0.012,0.959,0.001,1.438,0.04v-0.08c-0.061-0.033-0.115-0.073-0.164-0.121L20.209,12.361z M16.266,12.482
	c-0.011,0.083,0.003,0.168,0.041,0.243c0.01-0.083-0.006-0.167-0.044-0.242L16.266,12.482z M16.43,12.522v0.4h0.082v-0.04
	c0.026-0.035,0.041-0.077,0.041-0.121c-0.053-0.059-0.074-0.175-0.126-0.238L16.43,12.522z M12.53,14.586
	c0.022,0.021,0.051,0.036,0.082,0.04c-0.023-0.022-0.054-0.036-0.086-0.039L12.53,14.586z M34.83,16.731l-0.041,0.081
	c0.066-0.055,0.037-0.079,0.037-0.079L34.83,16.731z M1.154,16.771v0.162c-0.057-0.005-0.115,0.009-0.164,0.04
	c0.097-0.002,0.193-0.016,0.287-0.04v-0.16H1.15L1.154,16.771z M1.441,16.771v0.081h0.12v-0.079H1.437L1.441,16.771z M4.151,16.771
	c-0.037,0.033-0.078,0.061-0.123,0.081v0.04h0.243c0.022-0.022,0.051-0.036,0.082-0.04v-0.036L4.151,16.771z M3.2,16.816
	c0.118,0.087,0.269,0.116,0.411,0.081c0.022,0.021,0.051,0.036,0.082,0.04c-0.03-0.035-0.052-0.046-0.082-0.081
	c0.173,0.02,0.286,0.093,0.37-0.041L3.2,16.816L3.2,16.816z M34.74,16.857l-0.164,0.283h0.044V17.1
	c0.082-0.054,0.13-0.148,0.123-0.246L34.74,16.857z M5.212,16.897C5.18,16.925,5.12,16.95,5.089,16.978
	c0.111,0.016,0.225,0.001,0.329-0.04L5.212,16.897z M1.105,17.097c0.531,0.072,1.069,0.072,1.6,0H1.105z M2.912,17.097
	c0.022,0.021,0.051,0.036,0.082,0.04c-0.021-0.021-0.049-0.035-0.078-0.04H2.912z M3.446,17.097c0.418,0.104,0.855,0.104,1.273,0
	H3.45H3.446z M4.801,17.097c0.241,0.076,0.499,0.076,0.739,0H4.801L4.801,17.097z M5.622,17.097c0.103,0.055,0.226,0.055,0.329,0
	H5.626H5.622z M9.195,17.097c0.241,0.076,0.499,0.076,0.739,0H9.2H9.195z M1.269,18.598c0.278,0.348,0.611,0.648,0.986,0.889
	c0.605,0.451,1.129,0.976,1.766,1.418c0.22,0.232,0.468,0.437,0.739,0.606v-0.2c-0.281-0.177-0.481-0.461-0.739-0.647
	c-0.536-0.386-1.04-0.746-1.561-1.134c-0.364-0.35-0.761-0.662-1.187-0.934L1.269,18.598z M2.09,18.997
	c0.569,0.611,1.218,1.143,1.93,1.579c0.205,0.145,0.425,0.267,0.657,0.363c0.044-0.043,0.073-0.1,0.082-0.162H4.8v-0.039H4.764
	c-0.295-0.232-0.612-0.436-0.945-0.607c-0.553-0.409-1.129-0.787-1.725-1.132L2.09,18.997z M38.23,19.197l-0.041,0.08
	c0.076-0.051,0.045-0.075,0.045-0.075L38.23,19.197z M38.025,19.318l-0.041,0.08c0.074-0.051,0.045-0.075,0.045-0.075L38.025,19.318
	z M37.82,19.439c-0.2,0.108-0.393,0.23-0.575,0.365h0.045c0.2-0.107,0.394-0.229,0.575-0.365h-0.042H37.82z M37.861,19.561
	c-0.377,0.275-0.793,0.493-1.232,0.648l-0.738,0.688c0.012,0.193-0.016,0.387-0.082,0.567c0.016,0.01,0.03,0.023,0.041,0.04
	c0.03-0.004,0.059-0.018,0.082-0.04c0.473-0.435,0.887-0.937,1.354-1.376c0.224-0.152,0.431-0.328,0.616-0.525h-0.037L37.861,19.561
	z M37.161,19.805c-0.072,0.048-0.142,0.102-0.205,0.161H37c0.041-0.03,0.264-0.122,0.166-0.157L37.161,19.805z M36.261,20.33
	c-0.159,0.094-0.298,0.218-0.411,0.363h0.082c0.113-0.135,0.253-0.245,0.411-0.323c-0.022-0.02-0.05-0.032-0.079-0.035L36.261,20.33
	z M35.193,21.059v0.243h0.041c0.041-0.065,0.098-0.121,0.164-0.161V21.1L35.193,21.059z M5.01,21.227v0.08
	c0.034,0.021,0.062,0.049,0.082,0.082h0.083v-0.082C5.132,21.26,5.073,21.231,5.01,21.227z M30.311,23.371l-0.041,0.081
	c0.069-0.058,0.039-0.081,0.039-0.081H30.311z M29.816,23.57l-0.041,0.123h0.041c0.037-0.035,0.064-0.076,0.082-0.123h-0.084H29.816
	z M29.406,23.771c-0.063,0.051-0.131,0.092-0.205,0.121v0.041h0.082c0.062-0.051,0.131-0.092,0.205-0.121
	c-0.025-0.021-0.056-0.035-0.088-0.037L29.406,23.771z M21.068,24.904h0.451l0.041-0.324H21.6v0.086
	c0.028,0.041,0.053,0.162,0.082,0.2c0.133,0.046,0.273,0.06,0.411,0.041v-0.079c-0.202-0.289-0.367-0.602-0.493-0.932
	c-0.063,0.5-0.484,0.563-0.531,1.013V24.904z M24.684,23.893c-0.113,0.406-0.359,0.764-0.701,1.012h0.041
	c0.124-0.008,0.248-0.008,0.371,0v-0.036h0.041c-0.004-0.097,0.01-0.192,0.041-0.283h0.041c0.002,0.112,0.029,0.224,0.082,0.324
	c0.136-0.017,0.273-0.017,0.41,0c-0.028-0.341-0.083-0.68-0.164-1.013h-0.164L24.684,23.893z M27.764,23.893
	c-0.02,0.145,0.025,0.291,0.123,0.399h0.081c-0.016-0.119-0.067-0.051,0.041-0.121c0.122,0.04,0.229,0,0.246-0.2
	c-0.022-0.021-0.036-0.05-0.041-0.08h-0.452L27.764,23.893z M11.254,23.932l-0.041,0.123c0.165,0.049,0.247,0.148,0.411,0.199
	c0.018-0.059,0.046-0.113,0.082-0.162c-0.135-0.091-0.291-0.145-0.453-0.154L11.254,23.932z M11.993,23.932
	c0.025,0.046,0.071,0.076,0.123,0.082v-0.076h-0.124L11.993,23.932z M28.379,23.932v0.084h0.081v-0.078h-0.082L28.379,23.932z
	 M28.995,23.973c-0.025,0.046-0.071,0.076-0.123,0.082v0.039h0.082c0.036-0.033,0.078-0.061,0.123-0.08
	c-0.023-0.021-0.053-0.033-0.083-0.035L28.995,23.973z M18.605,24.904c0.082-0.288,0.037-0.598-0.123-0.85v0.08
	c-0.15,0.154-0.275,0.332-0.37,0.526c0.034,0.062,0.048,0.13,0.041,0.2c0.146,0.037,0.296,0.054,0.447,0.048L18.605,24.904z
	 M11.788,24.135l-0.041,0.243c0.133,0.063,0.271,0.118,0.411,0.162c0.032-0.069,0.108-0.075,0.041-0.122
	c-0.112-0.127-0.254-0.223-0.413-0.277L11.788,24.135z M27.68,24.18c-0.045,0.141-0.117,0.184-0.164,0.324h0.041
	c0.088-0.044,0.159-0.113,0.205-0.199C27.734,24.271,27.708,24.216,27.68,24.18z M28.46,24.221c-0.055,0.059-0.126,0.102-0.205,0.12
	v0.041h0.082c0.062-0.051,0.131-0.093,0.205-0.122c-0.022-0.023-0.051-0.038-0.082-0.044V24.221z M15.318,24.26
	c-0.188,0.219-0.395,0.422-0.616,0.607c0.133,0.037,0.272,0.051,0.411,0.041c-0.015-0.122,0.031-0.243,0.123-0.324
	c-0.012,0.311,0.053,0.342,0.37,0.324c0.022-0.021,0.051-0.037,0.082-0.041v-0.08C15.545,24.626,15.421,24.449,15.318,24.26
	L15.318,24.26z M12.279,24.584c0.005,0.052,0.036,0.098,0.082,0.122v0.041H12.4v-0.081h-0.039
	C12.308,24.566,12.379,24.639,12.279,24.584L12.279,24.584z M25.092,24.626l0.082,0.283h0.041v-0.041h0.041
	c0.041-0.041-0.04-0.04-0.041-0.04C25.195,24.75,25.152,24.679,25.092,24.626z M18.028,24.666c-0.102,0.1-0.23,0.17-0.37,0.2v0.041
	h0.329v-0.039h0.041C18.055,24.804,18.056,24.73,18.028,24.666L18.028,24.666z M18.728,24.666v0.2
	c0.079,0.026,0.162,0.04,0.246,0.041v-0.039C18.885,24.81,18.802,24.742,18.728,24.666L18.728,24.666z M20.9,24.787
	c-0.043,0.113-0.101,0.055,0,0.122v-0.041C20.955,24.805,20.93,24.848,20.9,24.787z M15.109,25.111v0.08h0.411l0.041-0.08
	c-0.148,0.027-0.3,0.029-0.448,0.005L15.109,25.111z M15.684,25.111c0.133,0.088,0.296,0.117,0.452,0.08v-0.039L15.684,25.111z
	 M17.327,25.111c-0.041,0.027-0.164,0.052-0.205,0.08h0.205l0.041-0.08h-0.037H17.327z M17.491,25.111
	c0.133,0.088,0.296,0.117,0.452,0.08v-0.075h-0.12c-0.107,0.029-0.221,0.029-0.328,0L17.491,25.111z M18.107,25.111v0.08
	c0.152,0.021,0.307,0.008,0.452-0.041L18.107,25.111z M21.967,25.111c-0.049,0.031-0.199,0.049-0.246,0.08
	c0.154,0.047,0.322,0.018,0.451-0.08h-0.201H21.967z M22.501,25.111c-0.035,0.025-0.129,0.054-0.164,0.08
	c0.098,0.014,0.196-0.001,0.287-0.041L22.501,25.111z M24.309,25.111c-0.035,0.025-0.129,0.054-0.164,0.08
	c0.141,0.046,0.297,0.016,0.41-0.08h-0.242H24.309z M24.842,25.111c-0.031,0.027-0.092,0.053-0.123,0.08
	c0.155,0.047,0.323,0.018,0.452-0.08h-0.325H24.842z M13.918,25.152c0.131,0.059,0.28,0.059,0.411,0h-0.407H13.918z M14.493,25.152
	c0.144,0.061,0.308,0.061,0.452,0H14.5H14.493z M18.723,25.152c0.13,0.059,0.28,0.059,0.411,0h-0.407H18.723z M19.339,25.152
	c0.046,0.043,0.118,0.043,0.164,0h-0.16H19.339z M20.529,25.152c0.131,0.059,0.281,0.059,0.412,0h-0.407H20.529z M21.146,25.152
	c0.131,0.059,0.279,0.059,0.41,0H21.15H21.146z M23.527,25.152c0.145,0.061,0.309,0.061,0.453,0h-0.448H23.527z M25.335,25.152
	c0.145,0.061,0.308,0.061,0.452,0h-0.448H25.335z"/>
</svg>
