<?xml version="1.0" encoding="utf-8"?>
<!-- Generator: Adobe Illustrator 16.0.0, SVG Export Plug-In . SVG Version: 6.00 Build 0)  -->
<!DOCTYPE svg PUBLIC "-//W3C//DTD SVG 1.1//EN" "http://www.w3.org/Graphics/SVG/1.1/DTD/svg11.dtd">
<svg version="1.1" id="Layer_1" xmlns="http://www.w3.org/2000/svg" xmlns:xlink="http://www.w3.org/1999/xlink" x="0px" y="0px"
	 width="39.906px" height="40px" viewBox="0 0 39.906 40" enable-background="new 0 0 39.906 40" xml:space="preserve">
<path id="Color_Fill_1" fill="#FFFFFF" d="M13.884,0.916c0.166-0.012,0.329-0.046,0.485-0.1C14.346,0.543,14.363,0.269,14.418,0
	c0.052,0.003,0.102,0.02,0.145,0.048c0.069,0.251,0.086,0.514,0.049,0.771h0.194v0.1h0.048v0.045h-0.243
	c0.004,0.142,0.056,0.277,0.146,0.386v0.579c0.05,0.155,0.226,0.379,0.291,0.53c0.204,0.517,0.366,1.049,0.485,1.591
	c0.107,0.757,0.058,1.529-0.145,2.266v0.579l-0.1,0.048c0.023,0.147,0.057,0.292,0.1,0.434c-0.021,0.012-0.037,0.028-0.049,0.048
	c-0.255-0.052-0.516-0.068-0.776-0.048v0.338c0.216,0.133,0.412,0.295,0.582,0.482c0.542-0.19,1.247-0.242,1.794-0.386l0.485-0.048
	c0.248-0.308,0.623-0.485,1.018-0.481c0.212,0.055,0.41,0.153,0.582,0.289l0.045,0.144L20.575,8c0.057-0.115,0.2-0.2,0.241-0.289
	c0.074-0.164-0.03-0.406,0.049-0.53c0.068-0.1,0.172-0.169,0.291-0.193c0.129,0.097,0.277,0.163,0.436,0.193
	c0.054-0.07,0.088-0.153,0.1-0.241c-0.249-0.276-0.307-0.676-0.145-1.012c0.075-0.046,0.13-0.159,0.194-0.193
	c0.192-0.1,0.35,0,0.532-0.1c0,0.053,0.018,0.104,0.05,0.146c0.185-0.271,0.155,0.049,0.436-0.048
	c0.019-0.046,0.054-0.082,0.101-0.1c-0.001,0.053,0.017,0.104,0.049,0.145V5.738c0.027-0.027,0.044-0.063,0.049-0.101
	c-0.109-0.121-0.037-0.158,0-0.386L24.404,5.3v3.182h0.101l1.647,0.145c0.083,0.164,0.117,0.348,0.101,0.53
	c-0.048,0.213-0.112,0.423-0.194,0.627V9.45h-0.59L25.42,9.305c0.041-0.025,0.075-0.059,0.1-0.1h-0.145
	c-0.07,0.122-0.061,0.088-0.242,0.1c-0.04-0.157,0.024-0.074-0.1-0.145V9.4h-0.531c-0.061,0.103-0.094,0.219-0.1,0.338h0.048
	c0.135-0.107,0.254-0.101,0.291-0.048c0.163,0.063,0.14,0.074,0.145,0.289c0.032,0.042,0.049,0.093,0.05,0.145
	c-0.166,0.082-0.35,0.117-0.533,0.1v2.122c-0.455-0.006-0.909,0.027-1.358,0.101l-0.339-1.4H22.66
	c-0.027,0.026-0.063,0.043-0.1,0.048c-0.107,0.394-0.172,0.798-0.194,1.205c0.293,0.03,0.366,0.065,0.63,0.1
	c0.025,0.062,0.042,0.126,0.049,0.193c-0.131,0.209-0.229,0.437-0.291,0.675c0.146-0.021,0.297-0.004,0.436,0.048h-0.045
	c-0.052,0.053-0.119,0.088-0.193,0.1v0.048c0.168-0.043,0.348-0.006,0.484,0.1c0.037,0.058,0.054,0.125,0.049,0.193h-0.1
	c-0.042,0.031-0.093,0.048-0.145,0.048l-0.049,0.289h0.582v-0.207h0.195v0.193H24.6c-0.001-0.053,0.016-0.104,0.049-0.145
	c0.005,0.066,0.021,0.132,0.049,0.193h0.049c0.02-0.173-0.023-0.121,0.1-0.193s0.422-0.026,0.533-0.1
	c0.081-0.084,0.146-0.182,0.194-0.289c-0.068,0.006-0.137-0.011-0.194-0.048c0.084,0.009,0.168-0.007,0.242-0.048
	c0.036-0.058,0.053-0.125,0.049-0.193h-0.246l-0.048-0.1h0.048v-0.042c0.147-0.024,0.293-0.058,0.436-0.1l0.05,0.145
	c0.024,0.272,0.024,0.547,0,0.82c-0.308,0.267-0.485,0.654-0.485,1.061h-0.1c0-0.053-0.018-0.104-0.049-0.146
	c0,0.651,0.057,1.057,0,1.688c-0.067,0.235-0.084,0.481-0.049,0.724l0.145,0.1c0.02,0.16,0.02,0.322,0,0.481
	c0.09,0.044,0.191,0.061,0.291,0.048c0.191-0.3,0.438-0.562,0.727-0.771c0.422,0.013,0.843-0.003,1.262-0.048
	c-0.012,0.128-0.012,0.258,0,0.386v0.047h0.049v-0.192c0.099-0.002,0.197,0.014,0.291,0.048v-0.145
	c0.121-0.009,0.242,0.026,0.339,0.101c-0.026,0.027-0.044,0.063-0.048,0.1h0.588c0.458,0.161,0.96,0.144,1.406-0.048v-0.056h-0.246
	v-0.101h1.406v0.048c-0.069,0.038-0.109,0.114-0.1,0.193c1.139,0.123,2.451-0.136,3.441,0.048c0.011,0.089,0.045,0.172,0.101,0.241
	c0.473-0.132,0.979-0.023,1.358,0.289c0.064,0.219,0.08,0.449,0.048,0.675c0.151,0.002,0.294,0.073,0.388,0.192
	c0.073,0.055-0.042,0.095-0.049,0.146c0.283,0.197,0.628,0.282,0.97,0.241v-0.1c-0.073-0.011-0.142-0.047-0.194-0.101
	c0.375,0.02,0.748,0.067,1.115,0.146c0.094,0.103,0.175,0.216,0.242,0.338h0.873c0.091-0.043,0.191-0.061,0.291-0.049
	c0.03,0.832,0.041,1.559-0.824,1.592c-0.025,0.184-0.068,0.199-0.1,0.386h0.049V21.6c0.4-0.019,0.541,0.041,0.533,0.435
	c-0.063,0.032-0.137,0.125-0.194,0.145c-0.2-0.03-0.403,0.005-0.582,0.101c-0.052,0.198-0.016,0.409,0.101,0.578h0.679V23
	c-0.26,0.036-0.471,0.228-0.533,0.482c0.044,0.48-0.155,0.951-0.532,1.252c-0.346,0.281-0.74,0.494-1.164,0.628
	c-0.889,0.386-1.875,0.847-2.765,1.3c-0.871,0.307-1.798,0.422-2.718,0.338H11.993l-1.891-0.048c-0.549-0.204-1.084-0.445-1.6-0.724
	c-1-0.436-2.211-0.699-2.764-1.591c-0.26-0.344-0.365-0.78-0.291-1.204c0.104-0.285,0.233-0.56,0.388-0.82H4.669v-1.881H4.478
	c-0.008,0.137-0.08,0.262-0.194,0.339c-0.107,0.052-0.232,0.052-0.339,0v-0.101c-0.036-0.058-0.052-0.125-0.048-0.193H1.908v-0.045
	c0.096-0.348,0.096-0.715,0-1.062c-0.216,0.136-0.111,0.022-0.291-0.048H1.23c-0.326,0.038-0.645-0.111-0.824-0.386
	C0.281,19,0.23,18.731,0.261,18.466H0.069V16.1c-0.08-0.314-0.096-0.643-0.048-0.964c0.097-0.142,0.21-0.271,0.339-0.386
	c0.049-0.081-0.156-0.1,0.048-0.241c0.108-0.088,0.25-0.124,0.388-0.1c0.029,0.077,0.045,0.158,0.048,0.241
	c0.326-0.036,0.557-0.133,0.921-0.146c0.035-0.209,0.225-0.356,0.436-0.337c0.06,0.042,0.125,0.076,0.194,0.1v0.101
	c0.49-0.07,0.976-0.167,1.455-0.289h0.046v-0.241l0.727-0.048v-0.049c-0.173-0.133-0.321-0.296-0.436-0.482l0.145-0.1
	c0.04-0.03,0.169-0.085,0.291-0.145v0.193c0,0-0.14,0.063-0.1,0.1h0.052c0.116,0.146,0.266,0.262,0.436,0.338
	c0.55-0.178,1.123-0.275,1.7-0.289v-0.049c-0.104-0.247-0.104-0.525,0-0.771c0.11-0.132,0.266-0.218,0.436-0.241
	c-0.035,0.29-0.08,0.786-0.145,1.109c0.319,0.073,0.644,0.121,0.97,0.145v0.337c0.354,0.035,0.71,0.051,1.067,0.048
	c-0.013-0.112-0.013-0.226,0-0.338c0.028-0.055,0.083-0.093,0.145-0.1c0.009,0.22,0,0.243,0.194,0.289
	c0.358-0.261,0.73-0.502,1.115-0.723v0.048h0.046c-0.144,0.3-0.179,0.641-0.1,0.964h0.194l-0.049-0.434h0.194V13.5h0.242v0.145
	h0.194v0.1c-0.025,0.111-0.041,0.224-0.049,0.338h1.939c0.026-0.373-0.007-0.747-0.1-1.109c-0.012-0.214,0.022-0.428,0.1-0.627
	c-0.068-0.518-0.215-1.022-0.436-1.495c-0.039-0.08,0.035-0.419,0-0.482c-0.177,0.286-0.429,0.519-0.727,0.675v-0.052h0.048
	c0.324-0.25,0.576-0.583,0.727-0.964c-0.038-0.211-0.019-0.428,0.053-0.629c-0.443-0.087-0.366-0.5-0.339-1.012
	c-0.027-0.027-0.043-0.062-0.048-0.1c0.395-0.146,0.675-0.499,0.727-0.916c-0.862-0.015-1.708-0.229-2.473-0.627
	c-0.236-0.1-0.468-0.042-0.63-0.145c-0.04-0.074-0.057-0.158-0.049-0.241c0.038-0.004,0.073-0.021,0.1-0.048
	c0.172,0.051,0.354,0.068,0.533,0.048V6.316c-0.088-0.054-0.17-0.119-0.242-0.193c0.038-0.004,0.073-0.021,0.1-0.048
	c-0.161-0.18-0.277-0.395-0.339-0.627h-0.1l0.048,0.289h-0.052V5.689H9.957L9.857,5.4c0.067-0.005,0.132-0.021,0.194-0.048
	c-0.025-0.062-0.042-0.126-0.048-0.193h0.145c0.163-0.279,0.376-0.524,0.63-0.723c0.186-0.01,0.368-0.06,0.533-0.145
	c0.321,0.582,0.581,1.196,0.776,1.832c-0.102,0.071-0.217,0.121-0.339,0.145v0.048h0.051c0.164,0.141,0.461,0.153,0.63,0.289h-0.1
	c-0.07,0.056-0.154,0.09-0.242,0.1c0.027,0.026,0.063,0.043,0.1,0.048c0.4,0.273,1.285-0.036,1.891-0.048V6.85h0.339V6.8h0.052
	c-0.009-0.083,0.008-0.167,0.049-0.241c0.078-0.028,0.145-0.079,0.194-0.145h-0.1c-0.042,0.031-0.093,0.048-0.145,0.048L13.205,5.4
	c0.018-0.31,0.118-0.61,0.291-0.868c0.054-0.421,0.02-0.848-0.1-1.254c-0.029-0.526,0.106-1.049,0.388-1.495
	c0.034-0.245,0.203-0.449,0.436-0.53c0.035,0.027,0,0.07,0.1,0.048V1.254c0.027-0.027,0.044-0.062,0.049-0.1l-0.727-0.241
	c0.081-0.282,0.115-0.575,0.1-0.868V0c0.038,0.004,0.073,0.021,0.1,0.048C13.914,0.332,13.929,0.627,13.884,0.916z M10.199,5.4
	l0.049,0.145h0.048C10.29,5.483,10.254,5.429,10.199,5.4z M10.538,5.545c-0.043,0.041-0.092,0.075-0.145,0.1v0.048
	C10.552,5.638,10.542,5.618,10.538,5.545L10.538,5.545z M10.053,5.738c0.027,0.027,0.044,0.062,0.049,0.1h-0.048v-0.1H10.053z
	 M10.441,5.786l0.1,0.434c0.116,0.056,0.084,0.1,0.194,0.048h0.1V6.22c-0.178-0.033-0.133,0-0.194-0.145
	c-0.044-0.09-0.061-0.19-0.049-0.289H10.441L10.441,5.786z M10.102,5.834c0.097,0.048,0.168,0.136,0.194,0.241h-0.048V6.027h-0.049
	C10.157,5.968,10.125,5.903,10.102,5.834z M22.029,5.834h-0.242c-0.053,0.104-0.117,0.201-0.194,0.289
	c-0.062,0.25-0.009,0.516,0.146,0.723v0.048h0.049C21.841,6.535,21.922,6.181,22.029,5.834L22.029,5.834z M10.975,6.22
	c0.042,0.059,0.077,0.124,0.1,0.193h0.049C11.128,6.321,11.065,6.239,10.975,6.22z M11.848,6.654c0.027,0.026,0.062,0.043,0.1,0.048
	C11.921,6.676,11.886,6.659,11.848,6.654z M13.497,6.847c-0.001,0.052,0.016,0.103,0.048,0.145V6.846h-0.049L13.497,6.847z
	 M13.109,6.947c0.077,0.075,0.184,0.111,0.291,0.1V6.991h0.048V6.943h-0.34L13.109,6.947z M12.769,8.1v0.1h0.1V8.1H12.769z
	 M14.757,8.1c0.083,0.043,0.062,0.043,0.145,0H14.757z M12.478,9.113v0.1l0.145,0.048v-0.1h-0.048
	C12.548,9.135,12.515,9.118,12.478,9.113z M12.429,10.222h0.1c-0.019,0.03-0.157,0.26-0.243,0.193L12.429,10.222z M21.98,12.151
	l0.049-0.434c-0.19-0.044-0.381,0.074-0.426,0.265c-0.006,0.024-0.009,0.048-0.01,0.072h0.049V12.1
	C21.758,12.104,21.871,12.12,21.98,12.151L21.98,12.151z M22.126,11.717l-0.048,0.482h0.048v0.048
	c0.038-0.004,0.073-0.021,0.101-0.048c0.068-0.151,0.103-0.316,0.1-0.482H22.126L22.126,11.717z M25.714,13.067
	c0.08,0.054,0.052,0.085,0.101,0H25.714z M25.714,13.212c0.04,0.157-0.024,0.074,0.101,0.145v-0.146L25.714,13.212L25.714,13.212z
	 M22.514,13.935v0.145h0.146v-0.146h-0.144L22.514,13.935z M10.684,14.035c0.027,0.026,0.062,0.043,0.1,0.048
	c-0.027-0.028-0.062-0.047-0.1-0.053V14.035z M11.023,14.035c0.027,0.026,0.063,0.043,0.1,0.048
	c-0.026-0.028-0.061-0.047-0.099-0.053L11.023,14.035z M0.502,14.518v0.1h0.291v-0.1H0.502z M0.357,14.564v0.101h0.048v-0.101H0.357
	z M0.257,15.191c-0.04-0.156,0.024-0.073-0.1-0.145v0.1H0.114v0.049H0.26L0.257,15.191z M25.324,16.012
	c0.057,0.07,0.057,0.171,0,0.241v-0.246V16.012z M25.375,16.3c0.057,0.071,0.057,0.171,0,0.241V16.3z M29.98,17.5
	c0.084,0.043,0.063,0.043,0.146,0H29.98z M25.908,17.741c0.006,0.066,0.021,0.132,0.049,0.192h0.049v-0.19h-0.1L25.908,17.741z
	 M26.15,17.841c-0.017,0.067,0.068,0.07,0.1,0.101c0.032-0.057-0.081-0.088-0.1-0.103V17.841z M3.993,18.948l0.048,0.145H4.09
	v-0.145h-0.1H3.993z M38.417,19.382c0.052,0.054,0.12,0.089,0.194,0.101V19.43h-0.049v-0.048H38.417L38.417,19.382z M4.09,19.72
	c-0.005,0.068,0.011,0.136,0.048,0.193C4.144,19.846,4.127,19.777,4.09,19.72z M4.19,19.768c0,0.053,0.016,0.104,0.048,0.146v-0.146
	H4.187H4.19z M4.29,19.768c-0.001,0.053,0.016,0.104,0.048,0.146v-0.146H4.284H4.29z M3.951,20.105
	c-0.001,0.052,0.016,0.104,0.048,0.145v-0.145H3.945H3.951z M4.339,20.205l-0.242,0.048c-0.032,0.093-0.048,0.19-0.048,0.289
	c-0.052,0.139-0.068,0.288-0.048,0.435c0.094,0.031,0.192,0.048,0.291,0.047v-0.051h0.041c0.012-0.111,0.012-0.225,0-0.337
	c-0.077-0.029-0.144-0.079-0.194-0.145c0.126-0.037,0.208-0.16,0.194-0.291L4.339,20.205z M39.248,21.796
	c0,0.14-0.047,0.067,0,0.146c0.076,0.06,0.025,0.031,0.1,0c0.027-0.027,0.044-0.063,0.049-0.101L39.248,21.796z M35.225,25.171
	c0.408-0.058,0.793-0.224,1.114-0.481c-0.146-0.166-0.36-0.256-0.582-0.241c-0.126,0.137-0.3,0.223-0.485,0.241
	c-0.055,0.152-0.074,0.316-0.054,0.479L35.225,25.171z M8.308,24.541c-0.072,0.147-0.191,0.267-0.339,0.338v0.048
	c0.318,0.081,0.627,0.193,0.921,0.337v-0.1c-0.054-0.154-0.071-0.32-0.048-0.482C8.658,24.66,8.479,24.612,8.308,24.541z
	 M31.29,25.361c-0.101,0.23-0.214,0.456-0.339,0.675h0.727v-0.101C31.521,25.764,31.391,25.57,31.29,25.361z M27.46,25.409
	c-0.099,0.216-0.212,0.425-0.339,0.627h0.727v-0.101C27.699,25.775,27.568,25.599,27.46,25.409z M23.678,25.509
	c-0.068,0.22-0.217,0.323-0.291,0.53h0.631v-0.1c-0.128-0.134-0.241-0.279-0.34-0.435V25.509z M19.945,25.557
	c-0.06,0.171-0.141,0.332-0.242,0.482h0.582v-0.1c-0.149-0.105-0.2-0.276-0.34-0.386V25.557z M12.624,25.605l-0.242,0.434h0.533
	v-0.1c-0.122-0.096-0.169-0.239-0.291-0.34V25.605z M16.26,25.605c-0.071,0.148-0.152,0.294-0.242,0.434h0.581v-0.1
	c-0.095-0.13-0.209-0.244-0.339-0.34V25.605z"/>
</svg>
