<svg xmlns="http://www.w3.org/2000/svg" width="40" height="40" viewBox="0 0 40 40">
  <defs>
    <style>
      .cls-1 {
        fill: #fff;
        fill-rule: evenodd;
      }
    </style>
  </defs>
  <path id="ussr_t_44_122_ico" class="cls-1" d="M16.205,18.191h0.223v0.244a2.016,2.016,0,0,0,.536.022c0.072-.086.107-0.059,0.2-0.022V18.147H17.3a0.658,0.658,0,0,1,.179-0.488,0.441,0.441,0,0,1,.4.022,0.975,0.975,0,0,1,0,.755c0.171,0.014.092,0.063,0.178,0.111a2.331,2.331,0,0,0,.357.044,7.053,7.053,0,0,0,.915.133c0.057-.121.051-0.2,0.245-0.2a0.31,0.31,0,0,0,.245.244,1.911,1.911,0,0,0,.536.111v0.089c0.571,0.071.694,0.649,1.317,0.688L21.7,19.834a8.829,8.829,0,0,1,1.83.111L32.7,19.989c1.009,0,2.082.022,3.125,0.022a7.824,7.824,0,0,0,1.362,0A0.346,0.346,0,0,0,37.21,19.9a14.444,14.444,0,0,1,2.7-.133,0.516,0.516,0,0,1,.045.178,2.789,2.789,0,0,1-.022,1,0.258,0.258,0,0,1-.156.044,2.293,2.293,0,0,1-.692,0,1.933,1.933,0,0,1-.893-0.111H37.656a1.919,1.919,0,0,0-.447-0.044V20.743H37.165a4.967,4.967,0,0,0-1.138-.022l-2.991.022-9.576.067a8.713,8.713,0,0,1-1.763.111l-0.022.155a3.805,3.805,0,0,0-.982.2,1.56,1.56,0,0,0-.4.089,0.472,0.472,0,0,1,.022.222c0.023,0,.294-0.036.313-0.044V21.5l1.741-.022,0.022-.2h0.335a0.235,0.235,0,0,0,.089.2,0.7,0.7,0,0,0,.357.067v0.067a0.332,0.332,0,0,1,.2.111,0.955,0.955,0,0,1,.424-0.177c-0.023.856-.112,0.978,0.781,0.954A4.6,4.6,0,0,0,26,22.563v0.111c0.228,0.067.573,0.056,0.826,0.133a1.86,1.86,0,0,1,1.205,1.2L28.1,24.338a1.676,1.676,0,0,1,.223.4,5.243,5.243,0,0,1-.714.222,2.379,2.379,0,0,1-.893.91c-0.059.041-.146,0.042-0.2,0.089-0.339.289-.726,0.566-1.094,0.821-0.052.036-.126,0.026-0.179,0.067-0.02.015-.022,0.072-0.045,0.089-0.284.209-.581,0.375-0.87,0.577a1.553,1.553,0,0,1-.246.2,6.121,6.121,0,0,1-.937.244c-0.262.06-.6-0.061-0.826-0.022a5.38,5.38,0,0,1-1.473,0,4.4,4.4,0,0,0-.446.022c-0.464,0-.961,0-1.362,0H17.946l-0.29-.022a5.381,5.381,0,0,1-1.473,0,5.619,5.619,0,0,0-.625.022H13.192l-0.2-.022a5.38,5.38,0,0,1-1.473,0l-0.2.022H10.469c-0.181,0-.438-0.042-0.58-0.022a9.8,9.8,0,0,1-1.25.022l-0.312-.022a5.4,5.4,0,0,1-1.473,0l-0.223.022L5.4,27.933a16.732,16.732,0,0,1-2.433-.843,8.678,8.678,0,0,1-1.875-.8A1.717,1.717,0,0,1,.67,25.714a2.952,2.952,0,0,0-.112-0.422,1.608,1.608,0,0,1-.513-0.555,0.464,0.464,0,0,1,.223-0.533,0.954,0.954,0,0,0,.2-0.621C0.4,23.566.435,23.595,0.4,23.54l0.067-.022c0.121-.081.269,0,0.29-0.2L0.491,23.3c-0.008-.071.016-0.094-0.045-0.133a0.106,0.106,0,0,1-.112.044,0.076,0.076,0,0,0-.022-0.044,6.783,6.783,0,0,0,0-.865c0.011-.131.059-0.3,0.067-0.422a0.746,0.746,0,0,1,.2-0.044V21.9l0.179-.022V21.72H0.67V21.565a1.291,1.291,0,0,0,.2-0.067H1.629l0.045-.067c0.067-.012.056,0.054,0.089,0.067a5.447,5.447,0,0,0,.6.022,0.67,0.67,0,0,0,.089-0.067c0.036-.01.307,0.046,0.424,0.044a1.283,1.283,0,0,1,.268-0.044,2.468,2.468,0,0,0,.58.067c0.026-.043.093-0.073,0.112-0.111,0.082-.166-0.068-0.183.2-0.178,0.057-.026.255,0.022,0.379,0a6.351,6.351,0,0,1,1.027,0v0.022H5.469a0.445,0.445,0,0,1-.022.155c0.1,0.012.1,0.009,0.112,0.111H6.406c0.035-.02.007-0.105,0.089-0.089a1.122,1.122,0,0,0,.112.089,1.36,1.36,0,0,0,.223-0.067,2.321,2.321,0,0,0,.982.067,0.8,0.8,0,0,1,.29-0.044,11.9,11.9,0,0,0,2.232.044v0.111a4.746,4.746,0,0,0,.737.4A0.969,0.969,0,0,0,11,21.3H9.665a0.917,0.917,0,0,1-.446-0.377,3.832,3.832,0,0,1,.2-1.309H9.4V19.59c-0.141,0-.245-0.008-0.268-0.133a0.351,0.351,0,0,1,.112-0.022,0.346,0.346,0,0,0,.2.044,0.347,0.347,0,0,0,.022-0.111H9.4l0.2-1H9.665l-0.067.4H9.621a2.125,2.125,0,0,1,1.116-.222,0.784,0.784,0,0,1,.781-0.555,3.379,3.379,0,0,1,.513.022A1.194,1.194,0,0,0,12.3,17.9h0.246a2.006,2.006,0,0,1,.558,0,3.724,3.724,0,0,0,1.161-.111,0.158,0.158,0,0,0,.045-0.089c-0.076-.021-0.069-0.009-0.089-0.089a0.138,0.138,0,0,1,.089-0.044,0.694,0.694,0,0,0,.313,0l0.022,0.288a2,2,0,0,1,.8.2,0.582,0.582,0,0,1,.022.333l0.245-.044V18.169l0.268,0.022a0.547,0.547,0,0,1,.067-0.244q0.011-2.973.022-5.947h0.045v1.931a5.12,5.12,0,0,1,.022,1.176v2.84A0.547,0.547,0,0,1,16.205,18.191Z"/>
</svg>
