<svg xmlns="http://www.w3.org/2000/svg" width="40" height="40" viewBox="0 0 40 40">
  <defs>
    <style>
      .cls-1 {
        fill: #fff;
        fill-rule: evenodd;
      }
    </style>
  </defs>
  <path id="ussr_t_50_ico" class="cls-1" d="M20.474,12.422a2.21,2.21,0,0,1,.416.023,3.447,3.447,0,0,1,.44.963c-0.032,0,.009-0.019-0.023-0.023-0.018-.044-0.023.046-0.023,0.046a2.757,2.757,0,0,1,.208.619A1.6,1.6,0,0,1,22.163,14V13.66a0.5,0.5,0,0,1,.162-0.023,0.348,0.348,0,0,1,.046.206,0.3,0.3,0,0,1,.023.161h1.6l0.81-.023a0.681,0.681,0,0,1,.416-0.046,0.332,0.332,0,0,1,.231-0.115V13.27h0.324V13.041c0.1,0.009.056,0.028,0.093,0.046a0.776,0.776,0,0,1,.254-0.046V13.27h0.347V13.8l0.463,0.023a0.5,0.5,0,0,0,.324.39,1.71,1.71,0,0,0,.717.069,0.585,0.585,0,0,1,0-.252c0.137-.1.361-0.193,0.44,0.046a0.306,0.306,0,0,1-.069.3h0.046a0.849,0.849,0,0,0,.578,0,0.11,0.11,0,0,0,.023.069,0.281,0.281,0,0,0,.463-0.183,0.962,0.962,0,0,1,.278-0.046,0.23,0.23,0,0,1,.069.206c0,0.006.386,0.246,0.416,0.252a0.244,0.244,0,0,1,.185,0,0.535,0.535,0,0,1-.023.252,0.7,0.7,0,0,1,.255.413,0.227,0.227,0,0,1,.162.046l0.9-.023V15.4a0.3,0.3,0,0,1,.023.161h1.11a0.49,0.49,0,0,1,.023.16h1.828a1,1,0,0,1,.139.115h1.134a7.091,7.091,0,0,0,1.3.023c0.921,0,1.935-.02,2.753-0.023v0.55a0.676,0.676,0,0,1-.208.023,1.049,1.049,0,0,0-.509-0.046H37.941l-3.123.023a0.617,0.617,0,0,1-.116.115H32.851v0.138a2.748,2.748,0,0,1-.694.023H30.746a0.271,0.271,0,0,1-.069.046v0.046h0.069l0.023,0.183a1.379,1.379,0,0,0-.486.436,0.262,0.262,0,0,1,.023.206,0.672,0.672,0,0,1-.208.023,4.008,4.008,0,0,0-.532-0.046c-0.176.242-.548,0.325-0.717,0.573h0.81a3.149,3.149,0,0,0,.486.275,0.316,0.316,0,0,1,.231-0.069,0.085,0.085,0,0,0,.046.023,3.159,3.159,0,0,0,.486.665h0.509v0.023a0.417,0.417,0,0,1,.185.16,0.364,0.364,0,0,0,0,.3,1.337,1.337,0,0,0,.416.367c0.317,0.233.634,0.488,0.948,0.734a1.468,1.468,0,0,0,.416.367,0.281,0.281,0,0,1,.093-0.092c-0.02-.035-0.066-0.017-0.023-0.046a0.424,0.424,0,0,1,.139-0.046,0.419,0.419,0,0,0,.116.069V20.768a1.089,1.089,0,0,1-.717-0.757,0.511,0.511,0,0,1,.139-0.367,1.128,1.128,0,0,1,1.249-.5,7.28,7.28,0,0,1,.046,1.628,1.278,1.278,0,0,1-.255.16V20.86H34.124c-0.007,0-.065-0.007-0.139-0.023a0.47,0.47,0,0,1-.162.183c0.066,0.07,0,.087,0,0.138a1.1,1.1,0,0,0,.463,0l1.2-.046a4.79,4.79,0,0,1,2.915.825,0.983,0.983,0,0,1,.393.459,0.551,0.551,0,0,0-.162-0.023,2.272,2.272,0,0,0-.786.619,1.29,1.29,0,0,1,.185.6,2.2,2.2,0,0,1-.463,1.766c-0.124.169-.336,0.292-0.463,0.459a13.056,13.056,0,0,1-1.226,1.307,7.812,7.812,0,0,1-.787.757l-0.439.459a3.688,3.688,0,0,1-1.087.573,3.823,3.823,0,0,1-1.041.069H7.079a3.816,3.816,0,0,1-.925-0.046,5.363,5.363,0,0,1-1.5-.826c-0.826-.518-1.707-1.036-2.522-1.49l-0.046-.092c-0.113-.087-0.254-0.123-0.37-0.206a1.1,1.1,0,0,0-.231-0.229c-0.019-.006-0.1.008-0.139,0a0.555,0.555,0,0,0,0-.138,3.057,3.057,0,0,0-.3-0.344,2.2,2.2,0,0,0-.093-0.229L0.81,25.308a1.86,1.86,0,0,0-.185-0.917s0.084-.2.093-0.229a0.456,0.456,0,0,0-.023-0.206,0.563,0.563,0,0,1,.046-0.3H0.833A0.847,0.847,0,0,0,.74,23.313H0.763a0.274,0.274,0,0,0,.185.046c0.072-.157.2-0.281,0.254-0.436C0.91,22.736.709,22.437,0.44,22.236a2.005,2.005,0,0,1-.44-0.3,1.838,1.838,0,0,0,.37-0.321,1.664,1.664,0,0,1,.208-0.069,1.853,1.853,0,0,0,.162-0.16A1.681,1.681,0,0,1,1.2,21.227a1.278,1.278,0,0,0,.81-0.115c0.068-.129-0.056-0.182-0.093-0.3-0.02-.063.009-0.251-0.023-0.367a2.32,2.32,0,0,1-.208-0.78c-0.068.009-.029,0.037-0.069-0.023a0.189,0.189,0,0,0-.046-0.115,0.218,0.218,0,0,0,.069-0.092,0.112,0.112,0,0,1-.069-0.023,0.235,0.235,0,0,0,.069-0.16,0.3,0.3,0,0,1-.093-0.023,0.85,0.85,0,0,0,.069-0.137,0.33,0.33,0,0,1-.139-0.321,0.647,0.647,0,0,1,.463-0.206,3.826,3.826,0,0,0,.578-0.275V18.269H2.29V18.246H2.313V18.223a1.217,1.217,0,0,0,.856-0.3,9.279,9.279,0,0,1,2.105-.688,0.974,0.974,0,0,1,.763.321l0.116,0.206c0.082,0.065.192,0.081,0.278,0.138a0.673,0.673,0,0,0,.37.183,0.729,0.729,0,0,1,.254-0.115v0.023H7.01a0.32,0.32,0,0,0-.185.183,0.263,0.263,0,0,1,.046.069H6.894V18.223A0.22,0.22,0,0,1,7.1,18.154l0.046,0.069a1.232,1.232,0,0,0,.37-0.252H7.565c0.084-.117-0.07-0.319.254-0.344A1.58,1.58,0,0,1,8.167,17.6V17.558a0.545,0.545,0,0,1,.185.023s0.005-.037.093-0.046c0.009,0.06-.017.03,0.046,0.046,0.029-.074.02-0.06,0.116-0.069v0.023H8.583c-0.044.018,0.046,0.023,0.046,0.023a0.391,0.391,0,0,1,.278-0.092C8.913,17.526,8.9,17.507,9,17.512c0.036-.074.075-0.071,0.185-0.069,0.009,0.06-.017.03,0.046,0.046a7.83,7.83,0,0,1,1.087,0c0.832-.016,1.822-0.026,2.637-0.023v0.023a0.088,0.088,0,0,0-.069.046h0.139c0.087-.125.109,0.044,0.208,0.023a0.964,0.964,0,0,1,.856.252L14.2,17.948h0.278a0.578,0.578,0,0,1,.347.069c0.056,0.021.042-.1,0.093-0.046a0.409,0.409,0,0,0,.278.115,0.377,0.377,0,0,1,.069-0.115h0.023v0.023a0.3,0.3,0,0,0,.139.092,0.243,0.243,0,0,1,.093-0.115c0.086,0.017.243-.012,0.255,0a0.2,0.2,0,0,1,.139.16h0.069a3.02,3.02,0,0,1,.162-0.619,4.274,4.274,0,0,1,.116-0.573H16.218a0.119,0.119,0,0,0-.069-0.023,1.172,1.172,0,0,1,.139-0.55,0.452,0.452,0,0,1,.116-0.023,2.874,2.874,0,0,0,0-.619c0.024-.072.142-0.147,0.162-0.206a0.551,0.551,0,0,0-.046-0.138c0.024-.151.117-0.327,0.139-0.5L16.8,14.9a2.538,2.538,0,0,0,.139-0.436,0.6,0.6,0,0,1-.3-0.069,0.116,0.116,0,0,1-.023-0.069,0.369,0.369,0,0,1,.116-0.023,0.481,0.481,0,0,0,.254.046V14.325H17V14.256c0.359-.075.2-0.216,0.3-0.5a6.93,6.93,0,0,1,.37-0.986,0.515,0.515,0,0,1,.208-0.321,5.444,5.444,0,0,1,1.226-.023,0.7,0.7,0,0,1,.023-0.161,0.37,0.37,0,0,1,.116-0.023,0.619,0.619,0,0,0,.347,0v0.046a0.168,0.168,0,0,1,.046.138H20.4L20.428,11h0.046v1.422Z"/>
</svg>
