<svg xmlns="http://www.w3.org/2000/svg" width="40" height="40" viewBox="0 0 40 40">
  <defs>
    <style>
      .cls-1 {
        fill: #fff;
        fill-rule: evenodd;
      }
    </style>
  </defs>
  <path id="ussr_a_12_mk_2_matilda_2a_f96_ico" class="cls-1" d="M17.888,13.09c0.628,0,1.161.066,1.814,0.069a2.918,2.918,0,0,0-.023-0.389h0.528V12.678h0.046a2.7,2.7,0,0,1,.689-0.137v0.046a1.587,1.587,0,0,0-.23.481h0.046a3.042,3.042,0,0,0,.666.023,1.274,1.274,0,0,1,.436.206v0.046a1.13,1.13,0,0,0-.138.916,0.151,0.151,0,0,1,.138.183,0.626,0.626,0,0,1,.413.091,0.2,0.2,0,0,0,.253.114q0.012-.481.023-0.962a0.362,0.362,0,0,1,.115-0.023,1.03,1.03,0,0,1,.023.3,1.666,1.666,0,0,1,.023.618h0.023a0.575,0.575,0,0,0,.184-0.229h0.505V14.281h0.046a2.6,2.6,0,0,1,.712-0.137v0.023a0.821,0.821,0,0,0-.138.3H24.2a2.766,2.766,0,0,1,.735-0.023v0.366H25.4v0.046a0.939,0.939,0,0,1,.069.412c0.075-.019.035,0.011,0.069-0.046a0.117,0.117,0,0,1-.023-0.069,0.887,0.887,0,0,0,.322-0.092,0.119,0.119,0,0,0,.069.115,0.748,0.748,0,0,0,.3-0.137,0.463,0.463,0,0,1-.046-0.412h0.689a1.453,1.453,0,0,0,.482.092,0.671,0.671,0,0,1,.092-0.183,1.649,1.649,0,0,0,.367.137,1.8,1.8,0,0,0,.689.366v0.137a5.393,5.393,0,0,0,1.906.114v0.023H30.4v0.366c0.028,0.046.155,0.064,0.138,0.16a0.437,0.437,0,0,0-.138.252L40,16.135V16.8a1.805,1.805,0,0,1-.666.046A1.055,1.055,0,0,0,38.76,16.8a8.978,8.978,0,0,1-1.676.023l-6.682.023v1.007a0.463,0.463,0,0,1,.138.16,0.947,0.947,0,0,0-.161.549,1.236,1.236,0,0,1-.459.023H28.749a2.742,2.742,0,0,1-1.148.778,0.227,0.227,0,0,0-.046-0.137,1.317,1.317,0,0,0-.23-0.023,0.818,0.818,0,0,0-.161-0.458,2.028,2.028,0,0,1-.253.069,0.434,0.434,0,0,1-.367.16c-0.06-.089-0.008-0.129-0.161-0.137a0.7,0.7,0,0,0-.3.115,0.248,0.248,0,0,1,.023.137l0.276-.023a0.806,0.806,0,0,0,.046.275,1.348,1.348,0,0,0,.39.046s0.146,0.277.046,0.275h0.069a0.2,0.2,0,0,1,.184-0.046V19.66a0.265,0.265,0,0,1,.046.206,4.121,4.121,0,0,0,.758-0.252,2.282,2.282,0,0,1,1.952.8,0.32,0.32,0,0,1,.115,0l0.023-.366L30.54,20.1V20.027l0.758-.046V20a1.059,1.059,0,0,0-.276.5H31V20.53h0.115a1.7,1.7,0,0,1,.574.092c0.026,0.043.019,0.164,0.046,0.206a0.765,0.765,0,0,0,.322.023,0.238,0.238,0,0,1,.3-0.252,0.445,0.445,0,0,1,.23.092,0.526,0.526,0,0,1,.046.16,1.136,1.136,0,0,0,.321.023,0.765,0.765,0,0,0,.322.023,0.146,0.146,0,0,1,.138-0.16,0.776,0.776,0,0,0,.344.046,0.11,0.11,0,0,0,.023.069,0.943,0.943,0,0,0,.666.183c0.027-.127.066-0.145,0.23-0.137a0.79,0.79,0,0,0,.253.046,0.568,0.568,0,0,0,.069.252c0.144,0.109.329,0.156,0.459,0.275l-0.069.206a0.7,0.7,0,0,1-.207,0,1.463,1.463,0,0,0,0,.206h0.046V21.766a0.892,0.892,0,0,1,.207.023,0.667,0.667,0,0,0,.046.183c-0.075.019-.035-0.011-0.069,0.046h0.023a2.655,2.655,0,0,0,.873.229c0.156-.2.073-0.633,0.207-0.847a14.684,14.684,0,0,0,.735-1.992c-0.133-.019-0.225-0.021-0.23-0.183a0.509,0.509,0,0,1,.23-0.389,1.026,1.026,0,0,0,.322.092,0.078,0.078,0,0,0,.023.046,1.957,1.957,0,0,1-.161.481,0.216,0.216,0,0,0-.138,0,3.089,3.089,0,0,1-.253.732,8.529,8.529,0,0,0-.551,1.992,0.5,0.5,0,0,1,.3,0,1.054,1.054,0,0,0-.276.069,0.151,0.151,0,0,0,0,.114,2.866,2.866,0,0,0,.551.412,0.079,0.079,0,0,1-.023.046,2.391,2.391,0,0,1-.367.618,0.692,0.692,0,0,0,.069.137,0.237,0.237,0,0,0-.184.092,2.035,2.035,0,0,1,.23.389,0.351,0.351,0,0,0,.069.206,0.249,0.249,0,0,0,.138.023L37.015,24.7H36.992a0.2,0.2,0,0,0-.115-0.023l-0.046-.092H36.808V24.7a2.058,2.058,0,0,1-.092.71,0.35,0.35,0,0,1,.115.092c-0.054.122-.125,0.208-0.184,0.321A0.315,0.315,0,0,0,36.51,25.7a0.092,0.092,0,0,1-.092.046v0.069a0.863,0.863,0,0,0-.344.435,0.2,0.2,0,0,1,.023.114,1.353,1.353,0,0,1-.253.137,0.182,0.182,0,0,0-.046-0.137,0.9,0.9,0,0,0-.528.412,0.092,0.092,0,0,1,0,.114c-0.053.054-.131,0.083-0.184,0.137H35.04a0.5,0.5,0,0,0-.069-0.16,1.321,1.321,0,0,0-.505.412,0.1,0.1,0,0,1,.023.114,2.438,2.438,0,0,1-.207.16,0.079,0.079,0,0,1-.046-0.023,1.3,1.3,0,0,1-.069-0.137c-0.039.02-.107,0.037-0.115,0.046a0.906,0.906,0,0,0-.39.412,0.154,0.154,0,0,1,.023.092,0.713,0.713,0,0,0-.207.137,0.079,0.079,0,0,1-.046-0.023,0.419,0.419,0,0,1-.069-0.16H33.341v0.023A3.146,3.146,0,0,1,33,28.2l-0.276.092c-0.067.047-.071,0.175-0.138,0.229a0.6,0.6,0,0,1-.344.069,0.371,0.371,0,0,1,.069-0.206H32.216a2.5,2.5,0,0,0-.666.183c-0.016.023-.03,0.091-0.046,0.114a0.641,0.641,0,0,1-.322.046,0.689,0.689,0,0,1,.069-0.229H31.229a4.319,4.319,0,0,1-.735.183l-0.023.16a1.021,1.021,0,0,0-.344.046v-0.16a0.125,0.125,0,0,0,.069-0.092H30.172c-0.161.143-.537,0.04-0.758,0.183a0.937,0.937,0,0,1-.046.16h-0.39l0.046-.206H29a3.135,3.135,0,0,1-.689.046c-0.082.164-.155,0.172-0.413,0.16V28.931c0.034-.046.064-0.115,0.092-0.16H27.922a3.234,3.234,0,0,1-.689.046c-0.067.179-.163,0.172-0.413,0.16V28.954c0.043-.059.076-0.129,0.115-0.183H26.843a2.135,2.135,0,0,1-.666.046c-0.072.174-.16,0.172-0.413,0.16a0.381,0.381,0,0,1,.092-0.206H25.764a2.135,2.135,0,0,1-.666.046c-0.095.192-.128,0.173-0.413,0.16a0.435,0.435,0,0,1,.092-0.206H24.707a2.3,2.3,0,0,1-.689.046c-0.07.168-.143,0.172-0.39,0.16a0.313,0.313,0,0,1,.092-0.206H23.628a2.2,2.2,0,0,1-.689.046c-0.036.19-.163,0.173-0.39,0.16l0.023-.16c0.075-.019.035,0.011,0.069-0.046H22.549a2.086,2.086,0,0,1-.666.046,0.489,0.489,0,0,1-.046.114h0.6v0.023l-0.964.023V28.954a1.191,1.191,0,0,0,.092-0.183H21.493c-0.141.082-.507,0-0.712,0.069l-0.023.137H20.413a0.282,0.282,0,0,1,.092-0.206H20.413a2.15,2.15,0,0,1-.689.046c-0.036.19-.163,0.173-0.39,0.16V28.931c0.034-.046.064-0.115,0.092-0.16H19.334a2.086,2.086,0,0,1-.666.046c-0.066.179-.163,0.172-0.413,0.16V28.954c0.043-.059.076-0.129,0.115-0.183H18.255a2.158,2.158,0,0,1-.643.046c-0.072.174-.16,0.172-0.413,0.16a0.382,0.382,0,0,1,.092-0.206H17.2a2.2,2.2,0,0,1-.689.046c-0.035.195-.162,0.173-0.39,0.16V28.931a0.671,0.671,0,0,0,.092-0.16H16.119a2.221,2.221,0,0,1-.666.046c-0.07.168-.143,0.172-0.39,0.16a0.383,0.383,0,0,1,.092-0.206H15.04c-0.136.072-.51,0-0.712,0.069l-0.023.137H13.961a0.327,0.327,0,0,1,.023-0.114H13.318c-0.013-.03,0-0.017-0.023-0.023a0.169,0.169,0,0,0-.046.137H12.882V28.931a0.866,0.866,0,0,0,.092-0.16H12.882a2.135,2.135,0,0,1-.666.046c-0.069.168-.143,0.172-0.39,0.16V28.908a1.315,1.315,0,0,1-.505-0.023h0.505a0.834,0.834,0,0,0,.092-0.137H11.894a1.911,1.911,0,0,1-.758.069c-0.036.19-.163,0.173-0.39,0.16a0.492,0.492,0,0,1,.092-0.206H10.723a2.176,2.176,0,0,1-.666.046,0.88,0.88,0,0,1-.046.16H9.667V28.931a0.711,0.711,0,0,0,.115-0.183H9.759A2.586,2.586,0,0,1,9,28.817a0.881,0.881,0,0,1-.046.16H8.611l0.023-.16H7.922c-0.036.19-.163,0.173-0.39,0.16A0.557,0.557,0,0,1,7.6,28.771H7.509a2.294,2.294,0,0,1-.735.023,0.131,0.131,0,0,1-.138.114,0.931,0.931,0,0,1-.39-0.16H6.269a0.166,0.166,0,0,1,.138-0.114V28.611a5.433,5.433,0,0,1-.735-0.252,0.2,0.2,0,0,1-.161.114,0.785,0.785,0,0,1-.253-0.16A0.832,0.832,0,0,1,5.442,28.2V28.176c-0.285-.018-0.474-0.2-0.758-0.229l-0.092.114a1.161,1.161,0,0,1-.321-0.16H4.294c0.036-.069.083-0.093,0.115-0.16-0.259-.015-0.447-0.2-0.712-0.229l-0.092.114a0.582,0.582,0,0,1-.276-0.16,0.472,0.472,0,0,0,.161-0.137,1.533,1.533,0,0,1-.6-0.3,0.251,0.251,0,0,1-.161.069,0.671,0.671,0,0,1-.3-0.275A0.1,0.1,0,0,0,2.5,26.757a1.244,1.244,0,0,1-.367-0.366,0.689,0.689,0,0,0-.069-0.137H1.929a0.712,0.712,0,0,1-.161-0.32c0.086,0,.081.011,0.115-0.046a1.3,1.3,0,0,1-.138-0.458c-0.049-.127-0.126,0-0.138-0.229a0.361,0.361,0,0,1-.023-0.183H1.676l0.046-.3a0.71,0.71,0,0,1-.505-0.847,0.812,0.812,0,0,0-.138-0.046c-0.03.056,0.01,0.016-.046,0.046a0.211,0.211,0,0,1-.069-0.114,0.139,0.139,0,0,0,.046-0.046,3.713,3.713,0,0,1-.62-1.579H0.321a2.847,2.847,0,0,1-.115.526,0.265,0.265,0,0,1-.161.046A0.4,0.4,0,0,1,0,22.476a4.623,4.623,0,0,0,.115-1.1A1.038,1.038,0,0,1,.62,21.194a0.909,0.909,0,0,0,.39.229,0.639,0.639,0,0,0,.184-0.275,0.393,0.393,0,0,1-.046-0.137l0.115-.046a0.441,0.441,0,0,1-.023-0.252H1.309c0.031,0.061.062,0.163,0.092,0.229H1.47a1.03,1.03,0,0,1,.046-0.252,0.359,0.359,0,0,1,.115-0.023V20.278C1.776,20.3,1.849,20.37,2,20.393l0.023-.275H2.067a1.794,1.794,0,0,0,.092.5,1.478,1.478,0,0,1,.367-0.069c0.386-.1.806-0.123,1.217-0.229,1.09-.282,2.286-0.371,3.375-0.664l0.964-.16A1.353,1.353,0,0,1,8.5,19.408a0.409,0.409,0,0,1,.207.16,2.7,2.7,0,0,1,.666-0.16V19.225H9.529v0.092H9.552a0.609,0.609,0,0,1,.367-0.183,0.69,0.69,0,0,0,.344.16,0.11,0.11,0,0,1,.023-0.069,5.391,5.391,0,0,1,1.355-.046h3.789v-0.16H15.385c-0.111-.081-0.323-0.056-0.436-0.137a1.578,1.578,0,0,1-.023-0.572V16.822a0.76,0.76,0,0,1,.39-0.16V16.5c-0.477,0-.959.006-1.378,0a0.562,0.562,0,0,1-.115-0.252,0.311,0.311,0,0,0,.046-0.275,4.243,4.243,0,0,0-.115-1.122,0.244,0.244,0,0,1,.115-0.046,0.365,0.365,0,0,0,.161,0,3.249,3.249,0,0,0,1.584-.091,0.2,0.2,0,0,0,.069.16V14.761a1.08,1.08,0,0,0,.574-0.206v0.092l-0.184.092v0.023h0.092a0.832,0.832,0,0,0,.345.023l0.023-.275a2.949,2.949,0,0,1,.436-0.069V14.327H16.716v-0.5a1.9,1.9,0,0,0,.3-0.3h0.092V13.411a0.363,0.363,0,0,1-.115-0.114,1.075,1.075,0,0,1,.85-0.206q0.011-1.11.023-2.221A3.445,3.445,0,0,1,17.888,10v3.09Z" transform="translate(0 0.516)"/>
</svg>
