<?xml version="1.0" encoding="utf-8"?>
<!-- Generator: Adobe Illustrator 16.0.0, SVG Export Plug-In . SVG Version: 6.00 Build 0)  -->
<!DOCTYPE svg PUBLIC "-//W3C//DTD SVG 1.1//EN" "http://www.w3.org/Graphics/SVG/1.1/DTD/svg11.dtd">
<svg version="1.1" id="Layer_1" xmlns="http://www.w3.org/2000/svg" xmlns:xlink="http://www.w3.org/1999/xlink" x="0px" y="0px"
	 width="40px" height="40px" viewBox="0 0 40 40" enable-background="new 0 0 40 40" xml:space="preserve">
<path id="ussr_object_120_ico" fill="#FFFFFF" d="M11.045,13.742v0.445c0.056,0.047,0.106,0.099,0.152,0.156
	c-0.002,0.017-0.01,0.033-0.022,0.045c-0.104,0.056-0.157,0.175-0.13,0.289c-0.051-0.003-0.102-0.011-0.152-0.021
	c-0.185,0.159-0.275,0.403-0.238,0.645c0.052,0.01,0.103,0.025,0.152,0.045c0.004,0.127,0.019,0.254,0.043,0.378
	c0.016,0.002,0.032,0.01,0.043,0.022c0.352-0.133,0.2-0.47,0.8-0.467c0.012,0.012,0.027,0.02,0.043,0.022v0.045
	c-0.032,0.176-0.039,0.356-0.022,0.534h0.022v0.022c0.454,0.013,0.905,0.08,1.343,0.2c0.162,0.056,0.33,0.093,0.5,0.111v0.089
	c0.109,0.051,0.21,0.161,0.3,0.2c0.127,0.053,0.314,0,0.411,0.044l0.043,0.2h1c-0.002-0.031,0.005-0.063,0.022-0.089
	c-0.016,0.087,0.008,0.177,0.065,0.245c0.221,0.048,0.448,0.056,0.671,0.022H17.8v0.093l6.13,0.022c0.979,0,2.092,0.051,3.031-0.022
	c0-0.024,0.008-0.048,0.021-0.067c0.251-0.041,0.506-0.049,0.759-0.022h1.948c0.01,0.039,0.025,0.076,0.043,0.111
	c0.094-0.011,0.189-0.011,0.283,0v0.067h6.975c0.24,0.03,0.484,0,0.71-0.089c0.015-0.02,0.021-0.043,0.022-0.067
	c-0.054-0.029-0.016,0.01-0.043-0.044h0.151v0.044c-0.056,0.032-0.024,0-0.043,0.067c0.179,0.032,0.36,0.04,0.541,0.022
	c0.137,0.056,0.287,0.072,0.433,0.045H40v0.712c-2.389,0-4.72-0.022-7.212-0.022h-2.772c-0.078,0.067-0.187,0.084-0.281,0.045
	c-0.059,0.211-0.424,0.133-0.672,0.133h-2.078c-0.006-0.009-0.014-0.017-0.022-0.022V17.86c-0.744-0.058-1.653-0.044-2.469-0.044
	c-0.419-0.032-0.839-0.025-1.257,0.022l-5.436,0.022v0.067c-0.762,0.02-1.607,0.022-2.4,0.022c-0.005,0.009-0.013,0.017-0.022,0.021
	c0.009,0.084-0.006,0.169-0.043,0.245v-0.111H14.12c-0.072,0.149-0.195,0.268-0.347,0.334v-0.023
	c-0.018-0.02-0.032-0.042-0.043-0.067h-0.021v0.022c-0.046,0.221-0.075,0.443-0.087,0.668H13.8v-0.11
	c0.169,0.013,0.382,0.044,0.606,0.044c0.032-0.095,0.011-0.092,0.173-0.089c0.063,0.09,0.179,0.126,0.282,0.089
	c0.026-0.076-0.023-0.066,0.065-0.089v0.089c0.088-0.005,0.175-0.02,0.26-0.044v0.111h0.065c-0.005-0.157-0.02-0.313-0.043-0.468
	c0.025-0.01,0.047-0.025,0.065-0.045c0.101,0.04,0.215,0.023,0.3-0.043l0.327,0.022v-0.09h0.043l-0.022,0.089l0.8,0.067
	c0.004-0.034,0.019-0.065,0.043-0.089c0.07,0.011,0.133,0.052,0.173,0.111c0.156,0.043,0.315,0.072,0.476,0.09v-0.11
	c0.051,0,0.072-0.017,0.173-0.022c0.015,0.043,0.022,0.089,0.022,0.135l0.455,0.043c0.002-0.03,0.01-0.061,0.022-0.088h0.043v0.088
	c0.09,0,0.1,0,0.217,0c0.051-0.143,0.198-0.227,0.347-0.199c0.021,0.069,0.051,0.137,0.087,0.199h0.087v0.067
	c0.137-0.06,0.283-0.098,0.433-0.11v0.066c0.218,0.014,0.431,0.043,0.671,0.044v-0.09h0.043v0.11l0.52,0.021
	c0.025,0.05,0.074,0.083,0.13,0.089c0.003-0.079,0.069-0.14,0.148-0.137c0.009,0,0.017,0.001,0.024,0.003
	c0.084,0.024,0.173,0.031,0.26,0.021v0.092c-0.055,0.033-0.043,0.047-0.043,0.134l0.195,0.067v0.043
	c0.053-0.018,0.104-0.04,0.152-0.066c0.043,0.033,0.098,0.049,0.151,0.044c0.155-0.079,0.327-0.116,0.5-0.11
	c0.034,0.08,0.054,0.348,0.087,0.399c0.136,0.024,0.254,0.104,0.325,0.224c-0.029,0.028-0.038,0.072-0.022,0.11
	c0.307,0.083,0.617,0.15,0.932,0.2l0.107-0.289h0.043c0.017,0.058,0.026,0.053,0.043,0.111c-0.038,0.068-0.061,0.145-0.064,0.223
	h0.043c0.163,0.105,0.48,0.068,0.65,0.178c0.115,0.076,0.205,0.185,0.26,0.313v0.13c0.205,0.216,0.36,0.474,0.455,0.757
	l-0.043,0.021c-0.08,0.008-0.161,0.001-0.238-0.021c0.008,0.084-0.008,0.168-0.043,0.245c0.07,0.028,0.057,0.019,0.064,0.11h-0.07
	c0.021,0.105,0.09,0.145,0.087,0.2c-0.019,0.051-0.058,0.092-0.108,0.111c0.043,0.03,0.061,0.085,0.043,0.134h-0.086
	c0.014,0.066,0.021,0.133,0.021,0.2c-0.033,0.039-0.08,0.063-0.13,0.067c0.014,0.035,0.014,0.075,0,0.11
	c-0.033,0.021-0.075,0.021-0.108,0c-0.008,0.082-0.012,0.154-0.021,0.2c-0.058,0.01-0.116,0.01-0.174,0v0.111h-0.043
	c-0.028,0.018-0.064-0.02-0.107,0c-0.029,0.057-0.065,0.109-0.108,0.156c-0.026,0-0.071-0.033-0.151-0.045
	c-0.034,0.084-0.051,0.056-0.131,0.066c-0.012,0.06-0.043,0.114-0.086,0.156c-0.024,0-0.047-0.035-0.088-0.045l-0.195,0.067
	c-0.021,0.063-0.051,0.122-0.086,0.179c-0.063-0.027-0.128-0.043-0.195-0.045c-0.029,0.031-0.08,0.037-0.107,0.067
	c-0.021,0.057-0.051,0.109-0.088,0.156c-0.063-0.021-0.129-0.035-0.195-0.045c0,0.007-0.168,0.22-0.172,0.223
	c-0.066-0.003-0.131-0.011-0.195-0.022c-0.059,0.087-0.132,0.162-0.217,0.224c-0.028-0.028-0.067-0.042-0.107-0.04
	c-0.086,0.069-0.158,0.152-0.217,0.245c-0.066-0.034-0.14-0.05-0.213-0.045c-0.055,0.09-0.129,0.166-0.217,0.223
	c-0.085-0.071-0.211-0.062-0.282,0.023c-0.021,0.025-0.036,0.056-0.044,0.088c-0.138,0-0.162-0.065-0.367-0.067
	c-0.039,0.082-0.128,0.127-0.217,0.111c-0.021-0.076-0.096-0.123-0.173-0.111c-0.055,0.088-0.159,0.133-0.26,0.111
	c-0.007-0.065-0.064-0.114-0.13-0.111c-0.067,0.085-0.174,0.127-0.281,0.111c-0.007-0.065-0.064-0.114-0.13-0.111
	c-0.03,0.059-0.086,0.1-0.152,0.111l-0.022-0.067c-0.027,0.045-0.078,0.071-0.13,0.067c0-0.024-0.008-0.048-0.022-0.067
	c-0.038-0.03-0.035-0.039-0.065-0.021c-0.048,0.033-0.099,0.063-0.152,0.089c-0.009-0.031-0.033-0.057-0.065-0.067
	c-0.007,0.042-0.045,0.07-0.087,0.067c-0.01-0.06-0.066-0.1-0.125-0.09c-0.001,0-0.003,0-0.004,0.001
	c-0.012,0.012-0.027,0.019-0.043,0.021v0.067c-0.048-0.027-0.099-0.05-0.152-0.067c-0.027,0.005-0.02,0.109-0.108,0.067
	c-0.011-0.024-0.025-0.047-0.043-0.067c-0.037-0.02-0.011-0.009-0.043,0c-0.041,0.026-0.084,0.05-0.13,0.067l-0.043-0.089
	c-0.043,0.041-0.095,0.071-0.152,0.089c-0.03-0.063-0.031-0.088-0.087-0.067c-0.039,0.03-0.083,0.054-0.13,0.067L17.5,24.405
	c-0.048,0.045-0.108,0.075-0.173,0.089v-0.067c-0.017-0.002-0.032-0.01-0.043-0.021c-0.048,0.033-0.099,0.063-0.152,0.089
	c-0.016-0.04-0.047-0.072-0.087-0.089c-0.022,0.052-0.073,0.087-0.13,0.089c-0.022-0.07-0.034-0.092-0.087-0.067
	c-0.053,0.024-0.024,0-0.043,0.067H16.7c-0.01-0.032-0.024-0.063-0.043-0.089c-0.049,0.045-0.108,0.075-0.173,0.089
	c-0.002-0.031-0.01-0.061-0.022-0.089c-0.062,0.036-0.127,0.066-0.195,0.089c-0.002-0.031-0.01-0.061-0.022-0.089
	c-0.052,0.04-0.11,0.07-0.173,0.089c-0.021-0.075-0.008-0.069-0.087-0.089c-0.016,0.057-0.071,0.095-0.13,0.089
	c-0.009-0.032-0.024-0.063-0.043-0.089c-0.043,0.041-0.095,0.071-0.152,0.089c-0.022-0.07-0.034-0.092-0.087-0.067
	c-0.039,0.03-0.083,0.054-0.13,0.067c-0.01-0.044-0.043-0.078-0.087-0.089c-0.015,0.048-0.057,0.083-0.108,0.089
	c-0.03-0.063-0.031-0.088-0.087-0.067c-0.046,0.032-0.098,0.056-0.152,0.067c-0.023-0.073-0.032-0.068-0.065-0.067
	c-0.031,0.04-0.079,0.065-0.13,0.067c-0.022-0.07-0.034-0.092-0.087-0.067c-0.039,0.03-0.083,0.054-0.13,0.067l-0.043-0.089
	c-0.048,0.045-0.108,0.075-0.173,0.089c-0.002-0.031-0.01-0.061-0.022-0.089c-0.061,0.036-0.126,0.066-0.195,0.089v-0.067H14.12
	v-0.021c-0.022-0.022-0.021,0.021-0.022,0.021c-0.032,0.04-0.079,0.065-0.13,0.067c-0.004-0.047-0.041-0.084-0.087-0.089
	c-0.022,0.052-0.073,0.087-0.13,0.089c-0.009-0.032-0.024-0.063-0.043-0.089c-0.043,0.041-0.095,0.071-0.152,0.089
	c-0.03-0.063-0.031-0.088-0.087-0.067c-0.045,0.032-0.097,0.056-0.152,0.067c-0.002-0.031-0.01-0.061-0.022-0.089
	c-0.048,0.045-0.108,0.075-0.173,0.089c-0.021-0.075-0.008-0.069-0.087-0.089c-0.016,0.057-0.071,0.095-0.13,0.089
	c-0.009-0.032-0.023-0.063-0.043-0.089c-0.041,0.044-0.093,0.075-0.152,0.089c-0.022-0.07-0.034-0.092-0.087-0.067
	c-0.039,0.03-0.083,0.054-0.13,0.067l-0.043-0.089c-0.049,0.045-0.108,0.075-0.173,0.089v-0.067
	c-0.016-0.002-0.031-0.01-0.043-0.021c-0.039,0.019-0.069,0.05-0.087,0.089c-0.06-0.008-0.113-0.039-0.147-0.089
	c-0.016,0.058-0.071,0.095-0.13,0.089c-0.022-0.07-0.034-0.092-0.087-0.067c-0.053,0.024-0.024,0-0.043,0.067h-0.089
	c-0.009-0.032-0.024-0.063-0.043-0.089c-0.048,0.045-0.108,0.075-0.173,0.089c-0.002-0.031-0.01-0.061-0.022-0.089
	c-0.062,0.036-0.127,0.066-0.195,0.089c-0.002-0.031-0.01-0.061-0.022-0.089c-0.051,0.04-0.11,0.07-0.173,0.089
	c-0.023-0.078-0.008-0.069-0.086-0.089c-0.016,0.057-0.071,0.095-0.13,0.089c-0.009-0.032-0.024-0.063-0.043-0.089
	c-0.043,0.041-0.095,0.071-0.152,0.089c-0.022-0.07-0.034-0.092-0.087-0.067c-0.039,0.03-0.083,0.054-0.13,0.067l-0.043-0.089
	c-0.045,0.038-0.097,0.067-0.152,0.089c-0.03-0.063-0.031-0.088-0.087-0.067c-0.045,0.032-0.097,0.056-0.152,0.067
	C9.939,24.416,9.93,24.425,9.9,24.427c-0.031,0.04-0.079,0.065-0.13,0.067c-0.022-0.07-0.034-0.092-0.087-0.067
	c-0.039,0.03-0.083,0.054-0.13,0.067c-0.009-0.032-0.023-0.063-0.043-0.089c-0.048,0.045-0.108,0.075-0.173,0.089
	c-0.002-0.031-0.01-0.061-0.022-0.089c-0.062,0.036-0.127,0.066-0.195,0.089v-0.067H9.074v-0.021
	c-0.022-0.022-0.021,0.021-0.022,0.021c-0.031,0.04-0.079,0.065-0.13,0.067c-0.005-0.047-0.041-0.084-0.087-0.089
	c-0.022,0.052-0.073,0.087-0.13,0.089c-0.009-0.032-0.024-0.063-0.043-0.089c-0.043,0.041-0.095,0.071-0.152,0.089
	c-0.022-0.07-0.034-0.092-0.087-0.067c-0.045,0.032-0.097,0.056-0.152,0.067c-0.002-0.031-0.01-0.061-0.022-0.089
	c-0.048,0.045-0.108,0.075-0.173,0.089c-0.02-0.075-0.008-0.069-0.087-0.089c-0.016,0.058-0.071,0.095-0.13,0.089
	c0.003-0.04-0.021-0.076-0.059-0.089c-0.022,0.052-0.073,0.087-0.13,0.089c-0.022-0.07-0.034-0.092-0.087-0.067
	c-0.039,0.03-0.083,0.054-0.13,0.067c-0.009-0.032-0.024-0.063-0.043-0.089c-0.048,0.045-0.108,0.075-0.173,0.089
	c0.006-0.043-0.023-0.082-0.065-0.089c-0.007-0.001-0.014-0.001-0.021,0c-0.015,0.048-0.057,0.083-0.108,0.089
	c-0.016-0.04-0.047-0.072-0.087-0.089c-0.016,0.058-0.071,0.095-0.13,0.089c-0.022-0.07-0.034-0.092-0.087-0.067
	c-0.045,0.032-0.097,0.056-0.152,0.067c-0.026-0.069-0.008-0.051-0.087-0.067c-0.027,0.069-0.008,0.05-0.087,0.067
	c-0.026-0.078-0.026-0.078-0.112-0.089c-0.145,0.167-0.11,0.008-0.217,0.021c-0.052,0.041-0.007,0.056-0.108,0.067v-0.067
	c-0.018-0.011-0.033-0.026-0.043-0.045H5.891c-0.036,0.063-0.101,0.105-0.173,0.111c-0.009-0.025-0.025-0.101-0.043-0.044
	c-0.114,0.076-0.106-0.021-0.217-0.067c-0.034,0.056-0.089,0.096-0.152,0.111c-0.011-0.024-0.025-0.048-0.043-0.067
	c-0.018,0.043-0.062,0.07-0.108,0.067c-0.017-0.045-0.048-0.084-0.087-0.111c-0.101,0.073-0.222,0.111-0.347,0.111
	c0-0.024-0.007-0.047-0.021-0.066c-0.028-0.029-0.067-0.046-0.108-0.045c-0.062,0.091-0.174,0.136-0.282,0.111
	c0-0.024-0.007-0.048-0.022-0.067c-0.012-0.012-0.027-0.02-0.043-0.021c-0.121,0.002-0.24,0.032-0.347,0.089
	c-0.055-0.216-0.339-0.14-0.433-0.134c-0.075-0.049-0.04-0.11-0.13-0.178c-0.098-0.027-0.198-0.042-0.3-0.044
	c0.017-0.078-0.03-0.157-0.108-0.178c-0.081-0.058-0.188,0.042-0.26-0.022c-0.002-0.059-0.026-0.114-0.067-0.156
	c-0.083-0.033-0.171-0.049-0.26-0.045c-0.024-0.059-0.061-0.111-0.108-0.155c-0.092-0.048-0.198-0.063-0.3-0.045
	c0.019-0.045,0.01-0.097-0.022-0.134c-0.101-0.07-0.227-0.094-0.347-0.066c0.029-0.055,0.01-0.123-0.043-0.156
	c-0.088-0.039-0.186-0.054-0.282-0.044c-0.036-0.034-0.052-0.085-0.043-0.134C1.129,22.975,1.054,22.91,1,22.891
	c-0.047,0.024-0.1,0.032-0.152,0.022L0.8,22.691c-0.076-0.079-0.164-0.146-0.26-0.2c0.065-0.11,0.065-0.247,0-0.356H0.52v0.021
	c-0.008,0.057-0.03,0.11-0.065,0.156V22.29C0.272,22.11,0.212,21.84,0.3,21.6c0.081-0.072,0.177-0.126,0.282-0.156
	c0.008-0.096,0.008-0.192,0-0.288c-0.116,0-0.3,0.032-0.325,0.021c-0.014-0.02-0.021-0.043-0.022-0.067
	c0.108-0.078,0.19-0.187,0.238-0.312C0.185,20.719-0.012,20.451,0,20.152c0.044-0.102,0.121-0.188,0.217-0.244
	c0.25-0.072,0.518-0.057,0.758,0.044v0.022c-0.043-0.008-0.087-0.008-0.13,0c0.021,0.091,0.102,0.155,0.195,0.155
	c0.055-0.022,0.114-0.03,0.173-0.022c0.027,0.039,0.042,0.086,0.043,0.134c-0.016,0.026-0.024,0.058-0.022,0.089l0.541-0.089
	c-0.025-0.114-0.061-0.227-0.108-0.334c-0.04-0.298,0.095-0.593,0.347-0.757c0.104-0.022,0.202-0.068,0.286-0.135h0.017v-0.02
	c-0.062,0.017-0.127,0-0.173-0.045h0.043c0.235,0.051,0.477,0.058,0.715,0.021c-0.002,0.031-0.01,0.061-0.022,0.09
	c0.291,0.121,0.528,0.342,0.671,0.623c0.029,0.08,0.082,0.15,0.152,0.199v-0.021h0.022l0.022-0.134H3.725v0.021
	c-0.017,0.043-0.022-0.044-0.022-0.044c0.012-0.013,0.02-0.027,0.022-0.044c-0.055-0.009-0.034,0.013-0.043-0.066
	c0.063-0.166,0.107-0.338,0.13-0.513c0.286-0.022,0.668-0.044,1.018-0.044v-0.09c-0.26-0.034-0.515-0.102-0.758-0.2
	c-0.338-0.114-0.692-0.183-1.018-0.267H0.563v-0.023H0.541c-0.018-0.127-0.105-0.245-0.108-0.356s0.252-0.549,0.282-0.69
	c-0.016-0.104-0.023-0.208-0.022-0.312c-0.15-0.033-0.368-0.171-0.455-0.178c-0.021,0.031-0.052,0.054-0.087,0.067
	c0.006-0.055,0-0.057,0-0.178c0.05-0.001,0.101-0.009,0.149-0.022c0.123-0.355,0.349-0.665,0.65-0.89
	c0.073-0.014,0.148-0.007,0.217,0.022v-0.045c-0.086-0.04-0.138-0.129-0.13-0.223h0.046c0.014,0.093,0.018,0.1,0.108,0.111
	c0-0.121-0.007-0.22,0-0.289c0.088-0.024,0.175-0.054,0.26-0.089l6.042-0.022c0.07-0.062,0.109-0.152,0.107-0.245h0.11v0.111h0.541
	v-0.222c0.443,0.041,0.866-0.085,1.386-0.089v-0.089c0.233,0,0.284,0.058,0.433,0.044v-0.155h0.173v-0.245l0.173-0.089
	c-0.08-0.083-0.112-0.2-0.087-0.312c0.067-0.064,0.128-0.137,0.195-0.2c0-0.8,0.021-1.594,0.022-2.36h0.044v0.467
	c0.038,0.168,0.045,0.341,0.022,0.512v1.269h0.022C10.768,13.729,10.908,13.721,11.045,13.742z M21.094,18.906
	c0.023-0.001,0.047,0.007,0.065,0.021C21.135,18.929,21.112,18.921,21.094,18.906z"/>
</svg>
