<?xml version="1.0" encoding="utf-8"?>
<!-- Generator: Adobe Illustrator 16.0.0, SVG Export Plug-In . SVG Version: 6.00 Build 0)  -->
<!DOCTYPE svg PUBLIC "-//W3C//DTD SVG 1.1//EN" "http://www.w3.org/Graphics/SVG/1.1/DTD/svg11.dtd">
<svg version="1.1" id="Layer_1" xmlns="http://www.w3.org/2000/svg" xmlns:xlink="http://www.w3.org/1999/xlink" x="0px" y="0px"
	 width="39.969px" height="40px" viewBox="0 0 39.969 40" enable-background="new 0 0 39.969 40" xml:space="preserve">
<path id="ussr_pzkpfw_v_ico" fill="#FFFFFF" d="M7.834,16.955c-0.005,0.115,0.018,0.23,0.067,0.335
	c0.069,0.004,0.136,0.02,0.2,0.045v0.335c0.286,0.006,0.572-0.018,0.853-0.07c0.173-0.399,0.27-0.835,0.448-1.25
	c0.071-0.166,0.2-0.35,0.269-0.514c0.079-0.271,0.199-0.526,0.358-0.759c-0.017-0.059-0.027-0.053-0.045-0.112h0.022v-0.019
	c0.075,0,0.054,0.048,0.09-0.022c0.071-0.097,0.131-0.202,0.179-0.313c0.135-0.219,0.286-0.452,0.425-0.67
	c-0.063,0.005-0.125-0.009-0.18-0.04c-0.012-0.012-0.02-0.028-0.022-0.045c0.036-0.013,0.074-0.021,0.112-0.022
	c0.082,0.051,0.173,0.082,0.269,0.089c0.027-0.224,0.087-0.442,0.179-0.648c0.023-0.045,0.115-0.092,0.134-0.134
	c0.022-0.125,0.029-0.253,0.022-0.38c0.09,0,0.122,0.012,0.157-0.045h-0.224v-0.226h1.7c0.03-0.075,0.018-0.092,0.112-0.112
	c0.014,0.036,0.021,0.074,0.022,0.112h1.7v0.223c-0.051,0.019-0.104,0.034-0.157,0.045v0.357c0.126,0.109,0.226,0.246,0.291,0.4
	c0.051,0.02,0.104,0.035,0.157,0.045c0.008,0.041-0.013,0.036,0.067,0.045c0.014,0.111,0.021,0.223,0.022,0.335
	c0.173,0.003,0.345-0.011,0.515-0.045c-0.024-0.064-0.04-0.131-0.045-0.2l2.037,0.2v0.022c-0.014,0.02-0.022,0.043-0.022,0.067
	h0.112c0.069,0.091,0.162,0.16,0.269,0.2c0.057,0.022,0.119,0.03,0.179,0.022l0.022-0.357c0.027-0.017,0.05-0.04,0.067-0.067
	l0.067,0.021c0.042,0.138,0.057,0.281,0.045,0.424c0.102,0.024,0.208,0.032,0.313,0.022c0.035-0.053,0.093-0.086,0.157-0.089
	c0.107,0.072,0.23,0.118,0.358,0.134v-0.063h0.291v0.156c0.009,0.006,0.017,0.013,0.022,0.022c0.152,0.008,0.304,0.038,0.448,0.089
	V14.3c0.385,0.086,0.75,0.245,1.074,0.469l0.962,0.223c0.019,0.068,0.041,0.211,0.067,0.29c0.595,0.053,1.193,0.068,1.791,0.045
	l2.396,0.022l6.133,0.067l2.484,0.022c0.463-0.037,0.928-0.029,1.389,0.022c0.455,0.047,0.916,0.025,1.365-0.067
	c0.238-0.027,0.478-0.035,0.717-0.022c0.199-0.032,0.386-0.142,0.56-0.179c0.066-0.004,0.132,0.021,0.179,0.067
	c0.269,0.023,0.537,0.031,0.807,0.022c0.053,0.061,0.098,0.128,0.134,0.2c0.077,0.263,0.018,0.548-0.157,0.759h-0.779
	c-0.279,0.034-0.563,0.004-0.828-0.089c-0.218,0.001-0.435-0.014-0.649-0.045l-0.045-0.067l-0.739,0.022h-1.992
	c-0.617,0.06-1.238,0.067-1.857,0.022h-0.514c-0.618,0.06-1.24,0.067-1.858,0.022h-0.515c-0.223,0.028-0.447,0.035-0.672,0.022
	h-1.277l-3.737,0.045c-0.47-0.038-0.942-0.03-1.41,0.022c-0.3,0.067-0.692-0.011-0.94,0.045c0.012,0.168,0.018,0.273-0.133,0.29
	c-0.27,0.097-0.547,0.171-0.828,0.223c-0.365,0.247-0.792,0.385-1.231,0.4v-0.13l-0.179,0.022l-0.022,0.2
	c-0.045,0.004-0.09,0.011-0.134,0.022c0.059,0.125,0.082,0.263,0.067,0.4h0.157V17.6c0.115,0,0.411-0.059,0.448-0.045
	c0.175,0.045,0.357,0.061,0.537,0.045v-0.063h-0.09v-0.045h0.246v-0.335c0.142-0.014,0.285-0.006,0.425,0.021
	c0.019,0.033,0.04,0.063,0.067,0.089c-0.003,0.017-0.01,0.033-0.022,0.045c-0.02,0.014-0.043,0.022-0.067,0.022v0.112
	c0.291,0.022,0.582,0.029,0.873,0.021c-0.025-0.219-0.041-0.3,0.18-0.313c0.057,0.093,0.08,0.204,0.066,0.313
	c0.247-0.001,0.494,0.014,0.739,0.045v0.067h0.313v-0.089c-0.044-0.015-0.089-0.022-0.135-0.022c0.011-0.078,0.051-0.15,0.112-0.2
	h-0.113c-0.191,0.044-0.391,0.044-0.582,0v-0.046c-0.019-0.035-0.026-0.074-0.022-0.112h0.022v-0.022
	c0.566-0.041,1.343,0.018,1.9-0.045v0.601H24.6c0.017-0.05,0.061-0.085,0.112-0.09c0.2,0.248,0.59,0.331,0.783,0.581
	c0.205-0.086,0.427-0.124,0.649-0.112l-0.022-0.155h0.112c0.004-0.12,0.043-0.237,0.111-0.335h0.448V17.6h0.156v0.045
	c0.064,0.188,0.064,0.393,0,0.582h-0.156c0.028,0.07,0.074,0.132,0.134,0.179v0.134c0.063,0.136,0.217,0.203,0.358,0.156
	c0.083-0.014,0.167-0.006,0.246,0.021c0.106,0.021,0.091-0.035,0.112-0.045c0.128-0.015,0.258,0,0.379,0.045v0.135
	c-0.299-0.016-0.59,0.023-0.899,0.021c0.007,0.103,0.037,0.202,0.09,0.29l0.089,0.022c0.023,0.08,0.039,0.162,0.045,0.246
	c0.042,0.02,0.088,0.027,0.135,0.021c0.133-0.065,0.286-0.073,0.425-0.021c0.179,0.064,0.369,0.094,0.56,0.088
	c0.335,0.055,0.664,0.137,0.985,0.246c0.073,0.033,0.378,0.16,0.381,0.156c0.05-0.033,0.103-0.063,0.157-0.089
	c0.027,0.04,0.066,0.071,0.111,0.089c-0.037,0.109-0.118,0.199-0.224,0.246c-0.022-0.036-0.087-0.127-0.112-0.089
	c-0.123,0.138-0.223,0.297-0.291,0.469c0.254,0.112,0.535,0.144,0.807,0.089c0.055,0.467,0.062,0.938,0.021,1.407
	c-0.017,0.002-0.033,0.01-0.045,0.022c-0.039-0.011-0.076-0.025-0.111-0.045v0.088c0.045,0.146,0.074,0.296,0.09,0.447h-0.09v0.045
	c-0.072,0.217-0.109,0.443-0.112,0.67c-0.23,0.147-0.392,0.381-0.448,0.648c-0.036-0.05-0.037-0.047-0.066-0.045
	c-0.189,0.139-0.35,0.313-0.471,0.514c-0.057-0.025-0.117-0.041-0.179-0.045c-0.089,0.073-0.187,0.133-0.291,0.18
	c-0.067,0.07-0.121,0.154-0.157,0.246h-0.039c-0.029-0.076-0.035-0.065-0.134-0.067c-0.083,0.075-0.224,0.085-0.313,0.155
	c-0.043,0.057-0.08,0.116-0.111,0.18c-0.051-0.041-0.114-0.064-0.18-0.067c-0.082,0.076-0.223,0.085-0.313,0.156
	c-0.043,0.056-0.08,0.116-0.112,0.179c-0.051-0.041-0.113-0.064-0.179-0.066c-0.083,0.076-0.223,0.085-0.313,0.156
	c-0.043,0.056-0.081,0.115-0.112,0.179c-0.054-0.038-0.114-0.061-0.179-0.067c-0.115,0.068-0.235,0.127-0.358,0.18L26.01,25.8H25.9
	v-0.067c-0.199-0.021-0.398,0.01-0.582,0.089c-0.029,0.018-0.043,0.1-0.067,0.112c-0.036,0.014-0.076,0.014-0.112,0
	c-0.014-0.02-0.021-0.043-0.021-0.067l-0.561,0.045c-0.05,0.046-0.111,0.077-0.179,0.089c-0.011-0.043-0.034-0.082-0.067-0.111
	l-0.515,0.021c-0.047,0.051-0.11,0.082-0.179,0.089c-0.012-0.043-0.034-0.082-0.067-0.112c-0.164-0.019-0.33-0.012-0.491,0.022
	c-0.058,0.048-0.127,0.078-0.201,0.089v-0.087c-0.184-0.038-0.375-0.038-0.56,0c-0.056,0.05-0.126,0.081-0.2,0.089v-0.089h-0.05
	c-0.234-0.054-0.48-0.022-0.694,0.089v-0.089h-0.043c-0.235-0.055-0.481-0.022-0.694,0.089c-0.011-0.043-0.034-0.082-0.067-0.112
	l-0.492,0.022c-0.058,0.047-0.127,0.077-0.2,0.089v-0.088H19.81c-0.213-0.051-0.437-0.019-0.627,0.089v-0.089h-0.045
	c-0.204-0.05-0.419-0.018-0.6,0.089v-0.089h-0.049c-0.213-0.051-0.437-0.019-0.627,0.089v-0.089h-0.044
	c-0.204-0.048-0.418-0.017-0.6,0.089v-0.089h-0.05c-0.316-0.192-0.468,0.225-0.671-0.022c-0.142-0.016-0.286-0.008-0.425,0.022
	c-0.05,0.046-0.112,0.077-0.179,0.089v-0.089h-0.045c-0.204-0.05-0.419-0.018-0.6,0.089c0-0.024-0.007-0.048-0.022-0.066
	c-0.012-0.013-0.028-0.021-0.045-0.022c-0.204-0.048-0.419-0.017-0.6,0.089v-0.089h-0.054c-0.204-0.05-0.419-0.018-0.6,0.089v-0.089
	h-0.049c-0.204-0.05-0.419-0.019-0.6,0.089c-0.04-0.15-0.216-0.122-0.4-0.112c-0.082,0.06-0.177,0.099-0.278,0.112v-0.089h-0.043
	C12.344,25.86,12.12,25.893,11.93,26v-0.089h-0.044c-0.204-0.048-0.418-0.017-0.6,0.089v-0.089h-0.049
	c-0.204-0.05-0.419-0.019-0.6,0.089v-0.089h-0.049C10.375,25.86,10.151,25.893,9.961,26v-0.089H9.916
	c-0.316-0.192-0.468,0.225-0.672-0.022c-0.142-0.016-0.286-0.008-0.425,0.022C8.767,25.954,8.706,25.984,8.64,26v-0.089H8.6
	C8.386,25.857,8.16,25.89,7.969,26v-0.089H7.924C7.712,25.861,7.489,25.893,7.3,26v-0.089H7.252c-0.132-0.022-0.266-0.03-0.4-0.022
	c-0.1-0.021-0.235-0.072-0.336-0.089c-0.071,0.007-0.139,0.03-0.2,0.067c-0.024,0-0.081-0.022-0.134-0.022v-0.023
	c0.03-0.039,0.039-0.036,0.022-0.067c-0.177-0.147-0.397-0.234-0.627-0.246c-0.013-0.043,0.014-0.1,0-0.134
	c-0.127-0.099-0.261-0.188-0.4-0.269c-0.082-0.001-0.165-0.008-0.246-0.021c0.018-0.043,0.018-0.092,0-0.134L4.544,24.7
	c-0.075-0.005-0.149-0.005-0.224,0c0.01-0.052,0.01-0.104,0-0.156c-0.14-0.045-0.228-0.18-0.358-0.223
	c-0.074-0.013-0.15-0.013-0.224,0c-0.014-0.046,0.014-0.101,0-0.134l-0.4-0.291c-0.077,0.002-0.15-0.03-0.2-0.088
	C3.2,23.783,3.2,23.8,3.179,23.744C3.1,23.518,2.8,23.4,2.731,23.164H2.82c-0.017-0.086-0.047-0.17-0.09-0.246v-0.313
	c-0.011-0.029-0.082-0.066-0.09-0.088c0.051-0.127,0.074-0.264,0.067-0.4L2.64,22.095C2.65,22.056,2.674,22.021,2.708,22v-0.311
	H2.44v-0.469c-0.121-0.127-0.226-0.269-0.314-0.421c-0.033,0.037-0.016,0.023-0.045,0.022c-0.032-0.076-0.069-0.15-0.111-0.223
	H1.455c-0.12-0.306-0.286-0.592-0.492-0.849C0.858,19.58,0.819,19.4,0.716,19.232c-0.134-0.199-0.254-0.408-0.358-0.625
	c0.011-0.043,0.011-0.09,0-0.133C0.216,18.354,0.095,18.211,0,18.05c0.033-0.024,0.071-0.04,0.112-0.045l0.381,0.4
	c0.103-0.011,0.198-0.059,0.269-0.134c-0.011-0.066-0.019-0.133-0.022-0.2c-0.112-0.179-0.209-0.364-0.291-0.559h0.133v-0.044
	l-0.067-0.021c-0.126-0.055-0.269-0.063-0.4-0.022v-0.4c0.305-0.037,0.612,0.052,0.851,0.246c0.14,0.122,0.037,0.28,0.313,0.29
	v-0.092H1.5v0.067l0.291,0.022V17.38h0.044c0.099,0.048,0.214,0.048,0.313,0v0.179h0.068V17.38c0.029-0.003,0.054-0.02,0.067-0.045
	c0.207,0.082,0.437,0.09,0.649,0.022c0.055-0.024,0.477,0.053,0.582,0.045c0.061,0,0.107-0.05,0.134-0.045
	c0.044,0.042,0.076,0.096,0.09,0.156c0.027-0.016,0.059-0.024,0.09-0.021l-0.022-0.134l0.067-0.022
	c0.105-0.033,0.221-0.017,0.313,0.045v0.2h0.022c0.082-0.045,0.175-0.068,0.269-0.067L4.5,17.424h0.29l0.045-0.156
	c0.017,0.002,0.033,0.01,0.045,0.022c0.055,0.086,0,0.119,0.134,0.134c0.042-0.023,0.087-0.038,0.134-0.045
	c0.002-0.03,0.01-0.061,0.022-0.089c0.123,0,0.244-0.023,0.358-0.067c0.106-0.003,0.212,0.012,0.313,0.045
	c0.441-0.042,0.887-0.02,1.321,0.067c0.006,0.039,0.031,0.072,0.067,0.089v-0.089c0.075-0.007,0.145-0.038,0.2-0.089
	c0.066-0.081,0.091-0.188,0.067-0.29h0.09c0.084-2.13,0.045-4.311,0.045-6.476V8.715C7.609,8.476,7.625,8.234,7.678,8
	c0,1.267,0.022,2.607,0.022,3.908v1.318c-0.014,0.231-0.006,0.462,0.022,0.692v2.233c-0.015,0.267-0.007,0.535,0.022,0.8h0.09
	V16.955z M15.221,13.069c0.029,0.048,0.029,0.108,0,0.156V13.069L15.221,13.069z"/>
</svg>
