<svg xmlns="http://www.w3.org/2000/svg" width="40" height="40" viewBox="0 0 40 40">
  <defs>
    <style>
      .cls-1 {
        fill: #fff;
        fill-rule: evenodd;
      }
    </style>
  </defs>
  <path id="ussr_9p149_ico" class="cls-1" d="M25.131,15.364a0.445,0.445,0,0,0,.14,0c0.054-.052.11-0.111,0.163-0.165h0.489V15.1h0.093V15.2c0.1,0,.339-0.048.349-0.047s0.114,0.068.14,0.071l0.209-.047a1.278,1.278,0,0,0,.256.071V15.222h0.023a0.129,0.129,0,0,1,0-.118,0.118,0.118,0,0,1,.07-0.024V15.1h0.023c0,0.1.04,0.077,0.186,0.071,0.055-.027.167,0.006,0.279-0.024a6.855,6.855,0,0,1,.861-0.165,0.268,0.268,0,0,1,.023-0.142h0.047a2.935,2.935,0,0,0,0-.567H28.5V14.3c0.1,0.174-.016.513,0.093,0.662,0.056-.036.16-0.032,0.209-0.071A0.142,0.142,0,0,1,28.97,14.8a0.117,0.117,0,0,1,.07-0.024v0.071a0.079,0.079,0,0,1,.047.024c0.1-.02.178-0.055,0.279-0.071a0.3,0.3,0,0,0,.233.142,0.2,0.2,0,0,1,.023-0.118v0.095h0.07c0-.4-0.021-0.853-0.047-1.182h0.116a1.582,1.582,0,0,0,.023-0.425,3.57,3.57,0,0,0,.907-0.071v0.047H30.669a0.474,0.474,0,0,1-.326.095v0.331a1.034,1.034,0,0,0,.3.024V13.686H30.436V13.638h0.186a0.083,0.083,0,0,0,.047.024v0.307a0.26,0.26,0,0,1,0,.165H30.646a0.156,0.156,0,0,0-.093-0.024v0.638h0.256c0.042,0.143.134,0.152,0.326,0.142v-0.4H31.041V14.395h0.093V13.686a6.425,6.425,0,0,1,2.327.142,0.97,0.97,0,0,1,.326.544c0.027,0.107-.021.237,0,0.284a0.183,0.183,0,0,1,.116.189,0.284,0.284,0,0,0-.07.142h-0.07a0.8,0.8,0,0,1-.14-0.024,0.779,0.779,0,0,1-.814.307c-0.018-.062-0.028-0.056-0.047-0.118a0.524,0.524,0,0,0,.023-0.236l-0.349-.024,0.023,0.26h0.047a0.2,0.2,0,0,1,.163,0c0.077,0.312.34,0.344,0.745,0.331,0.013,0.005.095,0.009,0.14,0.024v0.024l-0.14.024v0.685a0.086,0.086,0,0,1,.023.047,0.558,0.558,0,0,1,.349.095,2.223,2.223,0,0,0-.093.686,1.191,1.191,0,0,1,.279.095l1.257,0.024a0.115,0.115,0,0,1,.023-0.071,0.315,0.315,0,0,0,.3.071,2.364,2.364,0,0,1-.07-0.425h0.023v0.024a2.052,2.052,0,0,1,.07.284,0.756,0.756,0,0,0,.838.425,0.68,0.68,0,0,0,.326-0.473h0.023v0.118a1.93,1.93,0,0,0-.163.307h0.047V17.42a0.781,0.781,0,0,0,.419-0.686h0.023v0.236c-0.072.1-.091,0.231-0.163,0.331a1.417,1.417,0,0,1-1.21.355V17.7a0.085,0.085,0,0,1,.023.047,4.094,4.094,0,0,0,.861.213,0.168,0.168,0,0,1,.163-0.071,0.155,0.155,0,0,0,.093.024,0.3,0.3,0,0,1-.023.095h0.047a7.368,7.368,0,0,0,1.21.26,1.266,1.266,0,0,1,.535-0.26v0.095a0.357,0.357,0,0,0-.233.213h0.047c0.105,0.067.213,0,.326,0.071a0.111,0.111,0,0,0-.07.024,0.26,0.26,0,0,1,.14.189,8.151,8.151,0,0,1,1.07.213v0.024c-0.038.029-.1,0.093-0.07,0.118V18.98A0.64,0.64,0,0,1,40,18.862v0.071a2.688,2.688,0,0,1-.279.307,0.122,0.122,0,0,1-.023-0.071,0.209,0.209,0,0,0,.07-0.071H39.744V19.075H39.7a0.612,0.612,0,0,0-.093.213,0.206,0.206,0,0,1,.093.189,0.776,0.776,0,0,1-.186.165v0.142a1.1,1.1,0,0,1-.372.307c0.035,0.06.115,0.132,0.14,0.189a1.079,1.079,0,0,1,0,.236,0.542,0.542,0,0,1,.186.354,0.312,0.312,0,0,1-.233.071,0.232,0.232,0,0,0-.116-0.071,0.221,0.221,0,0,1-.163.213,0.182,0.182,0,0,0-.163-0.095,0.258,0.258,0,0,1-.116.118,0.8,0.8,0,0,0-.3-0.071,0.2,0.2,0,0,1-.163.165c-0.033.17-.2,0.108-0.256,0.307,0,0,.067.031,0.047,0.047H37.976a0.255,0.255,0,0,1-.14.142l-0.047-.024a2.726,2.726,0,0,0-.279.355c0.033,0.056.04,0.014,0.023,0.071a1.754,1.754,0,0,0-.209.354,0.147,0.147,0,0,1,.07.166,0.711,0.711,0,0,0-.116.284,0.311,0.311,0,0,0-.209.118,0.35,0.35,0,0,0-.093-0.047v0.047a0.729,0.729,0,0,1,.023.213,0.421,0.421,0,0,1-.14.118,0.118,0.118,0,0,1-.07.024l-0.023.118H36.649a0.578,0.578,0,0,1-.209-0.047,0.334,0.334,0,0,1-.07.236,1.477,1.477,0,0,1-.558.166,0.129,0.129,0,0,1,0,.118,0.768,0.768,0,0,1-.535.118v0.047a0.844,0.844,0,0,0-.023.118,0.7,0.7,0,0,1-.535.095,0.273,0.273,0,0,1-.07.213,0.7,0.7,0,0,1-.489.071,0.6,0.6,0,0,1-.046.189,0.638,0.638,0,0,1-.512.095,0.846,0.846,0,0,0-.047.142c0.029,0.037.015,0.012,0,.047a0.671,0.671,0,0,1-.535.095,0.273,0.273,0,0,1-.07.213,1.067,1.067,0,0,1-.442.118,0.09,0.09,0,0,0-.047-0.071,0.333,0.333,0,0,1-.07.236,1.109,1.109,0,0,1-.489.095l-0.023-.071H31.856a0.368,0.368,0,0,1-.116.189,1.432,1.432,0,0,1-.465-0.024,0.608,0.608,0,0,1-.4.071c-0.024-.007-0.106-0.064-0.14-0.071a0.582,0.582,0,0,0-.233.071,3.372,3.372,0,0,1-.535-0.071v0.071c-0.284,0-.417-0.064-0.651-0.071v0.071c-0.144,0-.6-0.084-0.628-0.071l-0.023.071H28.3a0.577,0.577,0,0,0-.256-0.071v0.071a1.32,1.32,0,0,1-.465-0.071c-0.148-.044-0.146.049-0.186,0.071a0.676,0.676,0,0,1-.465-0.071,0.173,0.173,0,0,0-.186.071,1.241,1.241,0,0,1-.628-0.095v0.095a1.548,1.548,0,0,1-.628-0.095c-0.03.141-.235,0.1-0.4,0.095a0.406,0.406,0,0,0-.256-0.095c-0.029.139-.215,0.1-0.372,0.095a0.563,0.563,0,0,0-.279-0.095v0.095a2.192,2.192,0,0,1-.628-0.095c-0.03.141-.235,0.1-0.4,0.095a0.357,0.357,0,0,0-.256-0.095,0.115,0.115,0,0,1-.023.071,0.831,0.831,0,0,1-.349.024,0.366,0.366,0,0,0-.279-0.095v0.095a3,3,0,0,1-.628-0.095,0.115,0.115,0,0,1-.023.071,0.9,0.9,0,0,1-.372.024,0.405,0.405,0,0,0-.256-0.095c-0.029.139-.215,0.1-0.372,0.095a0.3,0.3,0,0,0-.256-0.071,0.122,0.122,0,0,0-.023.071,1.558,1.558,0,0,1-.628-0.095c-0.03.141-.235,0.1-0.4,0.095a0.264,0.264,0,0,0-.256-0.071v0.071c-0.286,0-.408-0.066-0.652-0.071v0.071c-0.148,0-.6-0.087-0.628-0.071l-0.023.071H17.359a0.575,0.575,0,0,0-.256-0.071v0.071h-0.4a0.882,0.882,0,0,0-.093-0.071,2.084,2.084,0,0,1-.535.071,0.31,0.31,0,0,0-.256-0.071l-0.023.071H15.428a0.712,0.712,0,0,0-.256-0.071v0.071a1.9,1.9,0,0,1-.512-0.071,0.478,0.478,0,0,0-.233.071,2.885,2.885,0,0,1-.535-0.071v0.071l-0.372.024a0.61,0.61,0,0,0-.279-0.095,0.116,0.116,0,0,1-.023.071,0.829,0.829,0,0,1-.349.024,0.321,0.321,0,0,0-.256-0.095v0.024H12.589v0.071a5.43,5.43,0,0,1-.651-0.095,0.116,0.116,0,0,1-.023.071,0.761,0.761,0,0,1-.326.024,0.405,0.405,0,0,0-.326-0.095,0.116,0.116,0,0,1-.023.071,0.691,0.691,0,0,1-.3.024,0.422,0.422,0,0,0-.326-0.095,0.162,0.162,0,0,0-.023.095,2.209,2.209,0,0,1-.651-0.118c-0.013.156-.121,0.13-0.279,0.118a0.91,0.91,0,0,0-.326-0.118,0.275,0.275,0,0,0-.093.118H9.005a0.668,0.668,0,0,0-.349-0.118c-0.075.03-.061,0.021-0.07,0.118-0.252,0-.3-0.085-0.535-0.095-0.019-.077.011-0.036-0.047-0.071a0.279,0.279,0,0,1-.326.142A0.594,0.594,0,0,0,7.4,25.811c-0.035-.057.029-0.056-0.047-0.095a1.372,1.372,0,0,0-.14.142,0.962,0.962,0,0,1-.465-0.378,0.3,0.3,0,0,0-.14.118,0.974,0.974,0,0,1-.442-0.4,0.288,0.288,0,0,1-.186.095,0.793,0.793,0,0,1-.419-0.355,0.406,0.406,0,0,1-.209.095c-0.1-.1-0.245-0.159-0.349-0.26-0.079-.077.056-0.046-0.047-0.118-0.2.182-.221,0.077-0.372-0.071A1.583,1.583,0,0,1,4.4,24.487a1.014,1.014,0,0,1-.023-0.118,0.266,0.266,0,0,1-.186.095,4.325,4.325,0,0,1-.4-0.26l0.023-.095H3.77a0.354,0.354,0,0,1-.209.095,1.6,1.6,0,0,1-.14-0.095,0.465,0.465,0,0,0-.047-0.095,1,1,0,0,1-.163-0.071,1.183,1.183,0,0,1-.023-0.118,0.379,0.379,0,0,0-.14.118,1.1,1.1,0,0,1-.419-0.4,0.121,0.121,0,0,0,.023-0.071H2.629a0.7,0.7,0,0,1-.209.024,1.449,1.449,0,0,1-.209-0.52,0.088,0.088,0,0,0,.07-0.047,0.305,0.305,0,0,1-.209-0.095,0.907,0.907,0,0,1-.023-0.544,0.293,0.293,0,0,0-.256-0.095,0.228,0.228,0,0,1-.186.047V22.171a0.853,0.853,0,0,1-.4-0.307,0.121,0.121,0,0,1-.023-0.071H1.117a0.756,0.756,0,0,1,.07-0.355,2.346,2.346,0,0,1,.675-0.5A2.082,2.082,0,0,1,1.7,20.067H1.606a0.3,0.3,0,0,0-.163-0.024V19.926a0.9,0.9,0,0,0,.233-0.047,1.958,1.958,0,0,0-.047-0.709,0.7,0.7,0,0,0-.163-0.189,2.258,2.258,0,0,1-.908.307c-0.022.135-.045,0.255-0.209,0.26a0.271,0.271,0,0,0-.186,0V19.5a0.168,0.168,0,0,0,.163-0.071A0.5,0.5,0,0,0,.4,19.24,0.667,0.667,0,0,1,0,18.7a2.353,2.353,0,0,0,.768-1.3V17.089a4.665,4.665,0,0,0-.163-0.827A1.6,1.6,0,0,1,1,15.907a0.674,0.674,0,0,0,.233.047,0.193,0.193,0,0,0,.07.213,0.156,0.156,0,0,1,.116-0.047v0.024H1.443c-0.032.1-.123,0.214,0,0.284a4.395,4.395,0,0,0,.186-0.591l0.14-.024V15.671c-0.057-.031-0.016.01-0.047-0.047,0.057-.031.016,0.01,0.047-0.047a0.563,0.563,0,0,0,.372,0,0.249,0.249,0,0,0,.047.236,0.97,0.97,0,0,0,.4.024c0-.316-0.022-0.738-0.023-0.945H2.606a3.025,3.025,0,0,1,1.3-.118,15.787,15.787,0,0,1,3.374.118,0.081,0.081,0,0,0,.023.047,2.006,2.006,0,0,0-.047.591H7.981V15.175a0.079,0.079,0,0,0,.047-0.024,0.08,0.08,0,0,1,.047.024,0.492,0.492,0,0,1,.047.355,8.121,8.121,0,0,0,1.443-.024,0.724,0.724,0,0,1,.07-0.355,0.812,0.812,0,0,1,.256.095,3.4,3.4,0,0,0,.372-0.024V15.08H10.4l0.023,0.142H10.7a0.377,0.377,0,0,1,.023.118l0.116,0.024v0.165h2.048V15.175a0.08,0.08,0,0,0,.047-0.024,0.08,0.08,0,0,1,.046.024,0.492,0.492,0,0,1,.046.355h1.955c0.009-.005.037-0.089,0.046-0.095h0.559a0.408,0.408,0,0,1,.046.189h0.628a0.434,0.434,0,0,0,.489.213V15.766c0.095,0,.3-0.024.3-0.024l0.07,0.024-0.023.071h0.14l0.023-.307h1.466V15.482a0.26,0.26,0,0,0,.023-0.142h0.14v0.071h0.07a0.494,0.494,0,0,1,.047.118,0.122,0.122,0,0,0-.023.071h0.093a2.408,2.408,0,0,1,.233-0.567c-0.052-.056-0.025-0.008-0.023-0.095a0.067,0.067,0,0,1,.023.024,3.725,3.725,0,0,0,.814.5V15.364h0.116v0.142h0.047a0.761,0.761,0,0,0,.326.024,0.155,0.155,0,0,1,.023-0.095v0.095h0.07V15.34a0.663,0.663,0,0,0-.209-0.024V15.246a2.825,2.825,0,0,0,.3-0.307c0.421-.009.726-0.153,1.187-0.142a0.756,0.756,0,0,0,.558-0.047H22.455a6.015,6.015,0,0,0-1.163-.355c-1.165-.4-2.458-0.637-3.7-0.993-0.456-.131-0.949-0.167-1.4-0.284A1.217,1.217,0,0,1,15.66,13h0.116l2.42,0.5c0.836,0.24,1.731.422,2.536,0.685,0.193,0.063.361,0.053,0.558,0.118,0.374,0.123.769,0.222,1.163,0.354a2.655,2.655,0,0,0,.954.213c0.009,0.06-.014.037,0.07,0.047a3.354,3.354,0,0,0,1.256-.071c0,0.216.1,0.244,0.116,0.449a0.066,0.066,0,0,0-.023.024c-0.077,0-.1-0.033-0.14.047a0.086,0.086,0,0,0-.023.047,0.407,0.407,0,0,0,.3.024c0.067,0.045.019,0.081,0.14,0.095A0.514,0.514,0,0,0,25.131,15.364Zm5.561-2.151h0.047v0.024A0.079,0.079,0,0,1,30.692,13.213Zm-1.117,1.536a0.122,0.122,0,0,1,.023.071H29.575V14.749Zm-0.209.024a0.111,0.111,0,0,1,.07.024A0.111,0.111,0,0,1,29.366,14.773Zm9.54,3.664a0.1,0.1,0,0,1,0,.118V18.436Z" transform="translate(0 0.5)"/>
</svg>
