<svg xmlns="http://www.w3.org/2000/svg" width="40" height="40" viewBox="0 0 40 40">
  <defs>
    <style>
      .cls-1 {
        fill: #fff;
        fill-rule: evenodd;
      }
    </style>
  </defs>
  <path id="Color_Fill_1" data-name="Color Fill 1" class="cls-1" d="M15.341,14.711a8.964,8.964,0,0,0,.884.2,0.689,0.689,0,0,1,.2-0.474v0.118l-0.12.355h0.8a1.111,1.111,0,0,0,.482.04,1.179,1.179,0,0,0,.04.276h0.08a5.737,5.737,0,0,0,1.446.04,14.506,14.506,0,0,0,2.651-.04c0.491-.1.848,0.1,1.365,0V15.5c-1.72-.016-3.7,0-5.542,0-0.029.14-.049,0.1-0.08,0.237l0.723-.039v0.2l-1.2.04v0.118H16.386c-0.033-.128.02-0.06-0.08-0.118a2.152,2.152,0,0,1-.562.2,1.371,1.371,0,0,0-.04.71h0.2a1.1,1.1,0,0,1,.8-0.118v0.04h0.04a0.8,0.8,0,0,0-.08.2,5.891,5.891,0,0,1,1.325.316l0.482,0.04c0.38,0.1.85,0.228,1.2,0.355l0.763,0.158a2.122,2.122,0,0,0,.321.237l1.887,0.079V18.3l11.366,0.118V18.3c0.706,0.033,1.733,0,2.57,0a4.142,4.142,0,0,1,1.044.039c0.03-.156,0-0.127.161-0.158a0.611,0.611,0,0,1,.04.2h0.6l0.04-.2a0.142,0.142,0,0,1,.04.079,0.363,0.363,0,0,0,.281.079,5.212,5.212,0,0,1,1.044,0,0.97,0.97,0,0,1,.12.75,0.353,0.353,0,0,0-.12.118,4.947,4.947,0,0,0-1.285-.039l-0.04.158a0.141,0.141,0,0,1-.04-0.079,0.2,0.2,0,0,1-.04-0.118,3.081,3.081,0,0,1-.6-0.04c-0.008.18,0,.2-0.161,0.237a0.692,0.692,0,0,0-.08-0.158,2.826,2.826,0,0,1-1,.039c-0.927,0-2.088-.013-2.57,0V19.092l-11.365.118v0.158H21.526a2.927,2.927,0,0,1-.683.118v0.119a4.851,4.851,0,0,1,1.446.118c0.051,0.011.458-.08,0.642-0.079v0.079c-0.1.051-.027-0.017-0.08,0.079,0.327,0.077.585,0.341,0.924,0.434a0.544,0.544,0,0,1,.08-0.316,0.441,0.441,0,0,1,.241-0.04,0.275,0.275,0,0,0,.161.04l0.08,0.474h0.08c0.029-.4.156-0.537,0.642-0.513a2.729,2.729,0,0,0,.4.118,0.644,0.644,0,0,1,.08.316,0.412,0.412,0,0,0-.12.276H25.5a0.681,0.681,0,0,1,.12-0.2,0.289,0.289,0,0,0,.161.079c0,0.125-.068.053,0.04,0.118a4.273,4.273,0,0,0,.683.04,3.637,3.637,0,0,1,1.807,1.54,0.525,0.525,0,0,0-.562.395,0.35,0.35,0,0,1,.12.316,0.856,0.856,0,0,0-.2.592,3.134,3.134,0,0,0-.4.276l-0.04.2-0.4.039a0.738,0.738,0,0,0-.2.237l-0.241-.04a2.325,2.325,0,0,0-.4.276,0.817,0.817,0,0,0-.442.079,0.59,0.59,0,0,1-.12.2l-0.12-.079a0.737,0.737,0,0,0-.442.316c-0.1-.027-0.028-0.048-0.08-0.079l-0.4.158a0.291,0.291,0,0,1-.08.158l-0.241-.039a2.651,2.651,0,0,0-.321.276,1.886,1.886,0,0,0-.321,0,0.74,0.74,0,0,0-.2.237l-0.241-.04c-0.2.047-.306,0.232-0.522,0.276C22.3,25.708,22,26,21.807,25.961a0.509,0.509,0,0,0-.442-0.079,0.18,0.18,0,0,1-.2.079V25.882a2.1,2.1,0,0,0-.6.079V25.882a0.93,0.93,0,0,0-.522.079c-0.135.014-.075-0.061-0.12-0.079a0.761,0.761,0,0,0-.482.079c-0.133.029-.081-0.064-0.12-0.079a0.753,0.753,0,0,0-.482.079H18.675V25.882a2.029,2.029,0,0,0-.6.079V25.882a3.076,3.076,0,0,0-.643.079V25.882a2.017,2.017,0,0,0-.6.079V25.882a0.926,0.926,0,0,0-.522.079c-0.135.015-.075-0.061-0.12-0.079a0.761,0.761,0,0,0-.482.079h-0.12V25.882a3.056,3.056,0,0,0-.643.079V25.882a0.779,0.779,0,0,0-.482.079,1.614,1.614,0,0,0-.562-0.079,0.181,0.181,0,0,1-.2.079V25.882a2.645,2.645,0,0,0-.6.079V25.882a2.782,2.782,0,0,0-.643.079V25.882a0.643,0.643,0,0,0-.442.079h-0.12a0.853,0.853,0,0,0-.482-0.079c-0.049.015-.034,0.108-0.161,0.079l-0.04-.079a4.358,4.358,0,0,0-.6.079c-0.37-.137-0.954.038-1.245-0.079a2.008,2.008,0,0,0-.6.079V25.882a3.057,3.057,0,0,0-.643.079V25.882H7.871a1.567,1.567,0,0,1-.361.079V25.882a3.063,3.063,0,0,0-.643.079V25.882H6.627a1.567,1.567,0,0,1-.361.079V25.882a3.069,3.069,0,0,0-.643.079V25.882a0.753,0.753,0,0,0-.482.079c-0.127.03-.112-0.063-0.161-0.079l-0.643.04V25.8a4.37,4.37,0,0,1-.6-0.079,1.255,1.255,0,0,0-.281-0.316H3.213c-0.133-.078-0.2-0.491-0.482-0.316-0.07-.051-0.057-0.183-0.12-0.237A1.454,1.454,0,0,0,2.329,24.7a0.234,0.234,0,0,1-.161.039,0.361,0.361,0,0,1-.04-0.158,0.935,0.935,0,0,0-.562-0.237,0.213,0.213,0,0,0,0-.158,0.586,0.586,0,0,0-.2.04c-0.017-.141.019-0.1-0.08-0.158a0.557,0.557,0,0,1-.161-0.04c-0.1-.148-0.03-0.213-0.281-0.237v-0.2H0.723a0.59,0.59,0,0,1-.08-0.158c0.089-.092.046-0.031,0.04-0.2a0.371,0.371,0,0,1-.161-0.118A0.153,0.153,0,0,0,.6,23a3.43,3.43,0,0,1-.281-0.671,0.66,0.66,0,0,1-.04.237H0.161A1.665,1.665,0,0,0,0,22.053,3.606,3.606,0,0,0,.161,21.7a3.072,3.072,0,0,0,.4-0.513,0.72,0.72,0,0,1-.281-0.592A0.674,0.674,0,0,1,.6,20.276c0.174-.115.544-0.042,0.723-0.158,0.082-.065-0.028-0.046.08-0.079a7.016,7.016,0,0,1,1.486-.158,0.592,0.592,0,0,1,.321-0.04c0.039,0.012-.045.067,0.04,0.079A1.811,1.811,0,0,1,4.016,19.8a1.84,1.84,0,0,0,.442.079,2.315,2.315,0,0,1,.884-0.158,8.077,8.077,0,0,0,2.57-.04,10.1,10.1,0,0,0,1.807-.079H9.4a1.216,1.216,0,0,0-.04-0.395l-0.12.079c0-.115.039-0.055,0-0.118-0.075.07-.032,0.073-0.12,0.039,0,0-.159-0.017-0.08-0.039h0.04v-0.04l0.12,0.04v-0.04a0.153,0.153,0,0,1-.12-0.079h0.04V19.013a0.689,0.689,0,0,0,.241.079l0.04-.158H9.237A1.014,1.014,0,0,1,9,19.053l0.04-.079H9a0.275,0.275,0,0,1-.161.04c-0.008.055,0.033-.016,0.04,0.039,0.077,0.031-.08.039-0.08,0.039-0.339-.294-0.767-0.256-0.763-0.908a0.5,0.5,0,0,1,.2-0.474,1.141,1.141,0,0,1,1.285-.316,1.531,1.531,0,0,0,.482.316,0.146,0.146,0,0,1,.08-0.039,1.365,1.365,0,0,1,1.727-.868c-0.043-.189.073-0.289,0.361-0.276a0.146,0.146,0,0,1,.08-0.04V16.447a0.393,0.393,0,0,1-.4-0.2c0.1-.051.027,0.017,0.08-0.079a0.4,0.4,0,0,1-.2-0.237h0.04a1.818,1.818,0,0,0,.321.118,2.929,2.929,0,0,0,.482.237,12.656,12.656,0,0,0,1.566-.158V16.053a0.263,0.263,0,0,1-.04-0.158,0.214,0.214,0,0,0,.161-0.158,0.255,0.255,0,0,1-.08-0.276,0.677,0.677,0,0,0,.161-0.276,0.735,0.735,0,0,1-.4-0.355,0.68,0.68,0,0,1,.321-0.2V14.513h0.08a1.256,1.256,0,0,1,.723-0.04,0.494,0.494,0,0,0,.04.158,0.247,0.247,0,0,1,.161.039V14h0.08v0.71Zm-0.2,0a0.331,0.331,0,0,0-.08.118,0.113,0.113,0,0,0-.04.039h0.241A0.214,0.214,0,0,0,15.141,14.711Zm-0.924.04v0.118a1.241,1.241,0,0,1,.281.118V14.908C14.355,14.816,14.528,14.762,14.217,14.75Zm1.124,0.04,0.04,0.158h0.442v-0.04A3.3,3.3,0,0,1,15.341,14.79Zm1.928,0.276c0.069,0.035.051,0.035,0.12,0h-0.12Zm-0.884.671a1.609,1.609,0,0,0-.482.04v0.039h0.4a0.146,0.146,0,0,0,.08.04V15.737Zm0.683,0a0.145,0.145,0,0,0,.08.04A0.146,0.146,0,0,0,17.068,15.737Zm-1.526.04a0.437,0.437,0,0,0,0,.2v0.04h0.04l0.04-.237h-0.08Zm-1.365.355a1.235,1.235,0,0,0,.6.04c-0.008.132-.086,0.095,0.04,0.158a0.558,0.558,0,0,1,.04-0.2C14.66,16.123,14.27,15.79,14.177,16.132Zm1.245-.079a0.6,0.6,0,0,0-.08.276h0.08a0.459,0.459,0,0,0,.12-0.237Zm-0.161.158a0.2,0.2,0,0,0-.12.04h0.04v0.04l0.08,0.039V16.211ZM38.554,18.54a0.929,0.929,0,0,0,.04.434A0.929,0.929,0,0,0,38.554,18.54Zm0.161,0a0.928,0.928,0,0,0,.04.434A0.928,0.928,0,0,0,38.715,18.54Zm0.321,0v0.434h0.08a1.167,1.167,0,0,1,0-.434h-0.08Zm0.321,0v0.434h0.08V18.54h-0.08Zm0.321,0v0.434h0.08V18.54h-0.08Zm-30.8.553h0.08v0.04A0.138,0.138,0,0,1,8.876,19.092Zm0.12,0c0.014,0.012.08,0.021,0.04,0.079C8.991,19.152,8.911,19.1,9,19.092Zm15.783,0.829a0.275,0.275,0,0,1-.161.039,0.553,0.553,0,0,0-.04.158h0.04a0.6,0.6,0,0,1,.241-0.158A0.146,0.146,0,0,0,24.779,19.921ZM25.1,19.961a2,2,0,0,0,.04.592h0.08V20.316a0.455,0.455,0,0,0,0-.355H25.1ZM25.3,20a1.843,1.843,0,0,1-.04.553h0.08V20.513a0.526,0.526,0,0,0,.12-0.434A0.609,0.609,0,0,0,25.3,20ZM0.562,21.421c-0.094.185-.225,0.32-0.321,0.513h0.08c0.06-.213.21-0.269,0.281-0.474h0.04V21.421H0.562ZM1,21.816V21.658a0.61,0.61,0,0,0-.161-0.079,0.334,0.334,0,0,1-.161.079,1.068,1.068,0,0,0-.2.316H0.6A1.05,1.05,0,0,1,1,21.816Zm25.141,1.658a0.188,0.188,0,0,0-.04-0.118v0.039h-0.04l-0.04.079h0.12Zm-0.562.118a0.289,0.289,0,0,1-.161.079V23.75a0.233,0.233,0,0,1,.2.2,0.138,0.138,0,0,0,.08-0.039c0.1-.051.027,0.017,0.08-0.079-0.049-.053-0.073-0.141-0.12-0.2A0.145,0.145,0,0,0,25.582,23.592Zm0.562,0a0.161,0.161,0,0,0,.161.079v-0.04Zm-1.084.276c-0.054.049-.144,0.072-0.2,0.118a1.034,1.034,0,0,1,.281.237v-0.04c0.1-.058.062-0.017,0.08-0.158a0.28,0.28,0,0,1-.08-0.158H25.06Zm-1.044.2a1.576,1.576,0,0,0-.04.71h0.04a0.146,0.146,0,0,1,.08-0.04,0.61,0.61,0,0,0,.04-0.2,0.516,0.516,0,0,1-.08-0.355,0.31,0.31,0,0,1,.2-0.04,0.691,0.691,0,0,1,.281.355l0.12-.04,0.04-.118a0.614,0.614,0,0,1-.12-0.395C24.321,23.958,24.263,24.042,24.016,24.066Zm-3.414.04H20.361c-0.041.562-.462,0.63-0.482,1.184a0.748,0.748,0,0,0,.241.039V25.25a0.942,0.942,0,0,0,.04-0.434h0.281l0.04,0.513h0.241a4.211,4.211,0,0,0-.12-1.342v0.119ZM2.45,24.145a0.331,0.331,0,0,0-.08.119c-0.01.038-.031,0.015,0,0.039a1.4,1.4,0,0,0,.12.118,0.139,0.139,0,0,0,.08-0.04,1.331,1.331,0,0,1,.161-0.158,0.146,0.146,0,0,0-.08-0.04A0.353,0.353,0,0,0,2.45,24.145Zm0.522,0.237a0.678,0.678,0,0,1-.12.2,0.134,0.134,0,0,0,.04.079,1.405,1.405,0,0,1,.12.118h0.04v-0.04A0.411,0.411,0,0,0,3.213,24.5H3.173c-0.052-.1.017-0.027-0.08-0.079A0.207,0.207,0,0,0,2.972,24.382Zm13.9,0.434,0.04,0.513h0.161a1.661,1.661,0,0,0,.04-0.276c-0.046-.144-0.136-0.282-0.2-0.434h-0.04v0.04a0.756,0.756,0,0,0-.12.158h0.12Zm-3.494.276h0.241a1.085,1.085,0,0,0-.08-0.355h-0.04v0.04l-0.2.158a1.987,1.987,0,0,0,.08.355v-0.2Zm-6.506.237c0.144-.016.1,0.019,0.161-0.079,0.01-.038.031-0.015,0-0.04a0.793,0.793,0,0,0-.241-0.237v0.118C6.889,25.15,6.868,25.176,6.867,25.329ZM10,25.013a0.59,0.59,0,0,0-.08.158c0.026,0.034.054,0.124,0.08,0.158V25.25A0.206,0.206,0,0,0,10,25.013Zm6.466,0.079c0.13-.033.061,0.019,0.12-0.079h-0.08a0.693,0.693,0,0,0-.2.276h0.04v0.039a0.138,0.138,0,0,0,.08-0.039A0.338,0.338,0,0,0,16.466,25.092Zm-10.08.118a0.463,0.463,0,0,1-.12.079v0.039H6.426V25.25l0.04-.04H6.386Zm13.133,0c-0.054.049-.144,0.072-0.2,0.118C19.451,25.328,19.616,25.295,19.518,25.211Zm1.566,0.04v0.079h0.08V25.29Zm-8.554.237a0.145,0.145,0,0,0,.08.04A0.145,0.145,0,0,0,12.53,25.487Zm0.6,0a0.145,0.145,0,0,0,.08.04A0.147,0.147,0,0,0,13.133,25.487Zm-7.871.04c-0.035.026-.126,0.053-0.161,0.079H5.261l0.04-.079H5.261Zm0.562,0.04a0.146,0.146,0,0,0,.08.04A0.145,0.145,0,0,0,5.823,25.566Zm0.6,0a0.146,0.146,0,0,0,.08.04A0.145,0.145,0,0,0,6.426,25.566Zm0.6,0a0.146,0.146,0,0,0,.08.04A0.145,0.145,0,0,0,7.028,25.566Zm1.767,0a0.164,0.164,0,0,0,.2,0H8.8Zm0.6,0a0.164,0.164,0,0,0,.2,0H9.4Zm0.6,0a0.164,0.164,0,0,0,.2,0H10Zm0.6,0a0.216,0.216,0,0,0,.241,0H10.6Zm1.325,0a0.119,0.119,0,0,0,.161,0H11.928Zm0.522,0a0.216,0.216,0,0,0,.241,0H12.45Zm0.643,0a0.164,0.164,0,0,0,.2,0h-0.2Zm0.6,0a0.216,0.216,0,0,0,.241,0H13.695Zm0.643,0c0.069,0.035.051,0.035,0.12,0h-0.12Zm1.2,0a0.164,0.164,0,0,0,.2,0h-0.2Zm0.643,0a0.119,0.119,0,0,0,.161,0H16.185Zm0.6,0a0.119,0.119,0,0,0,.161,0H16.787Zm0.6,0a0.119,0.119,0,0,0,.161,0H17.39Z" transform="translate(0 0.016)"/>
</svg>
