<?xml version="1.0" encoding="utf-8"?>
<!-- Generator: Adobe Illustrator 16.0.0, SVG Export Plug-In . SVG Version: 6.00 Build 0)  -->
<!DOCTYPE svg PUBLIC "-//W3C//DTD SVG 1.1//EN" "http://www.w3.org/Graphics/SVG/1.1/DTD/svg11.dtd">
<svg version="1.1" id="Layer_1" xmlns="http://www.w3.org/2000/svg" xmlns:xlink="http://www.w3.org/1999/xlink" x="0px" y="0px"
	 width="39.969px" height="40px" viewBox="0 0 39.969 40" enable-background="new 0 0 39.969 40" xml:space="preserve">
<path id="ussr_kv_2_1940_ico" fill="#FFFFFF" d="M29.689,11.231v-0.093c0.075-0.011,0.152-0.011,0.228,0v0.093h2.01
	c0.078,0.154,0.132,0.32,0.16,0.49c1.671,0.064,3.531,0.047,5.277,0.047h2.216c0.103-0.036,0.211-0.051,0.32-0.047
	c0.055,0.488,0.063,0.98,0.022,1.47c-0.104,0.023-0.213,0.031-0.319,0.023c-0.16-0.061-0.332-0.077-0.5-0.047H37.73
	c-1.855,0-3.842-0.071-5.621,0.047c-0.008,0.039-0.008,0.079,0,0.117c0.021,0.015,0.045,0.023,0.07,0.023
	c0.01,0.071,0.002,0.143-0.023,0.21c-0.067-0.009-0.029-0.038-0.069,0.023c0.04,0.036,0.065,0.086,0.069,0.14
	c-0.039,0.047-0.099,0.074-0.16,0.07c-0.042,0.284-0.127,0.559-0.251,0.817c-0.01,0.121-0.058,0.235-0.138,0.327h-2.717v0.07
	c-0.179,0-0.217-0.022-0.344-0.022c-0.305,0.293-0.686,0.495-1.1,0.584c-0.004-0.122-0.035-0.242-0.092-0.35l-0.205,0.07v-0.116
	h-0.135V15.5h0.137v0.117h-0.137v1.7c-0.024,0-0.049,0.008-0.068,0.023c0.037,0.153,0.045,0.312,0.022,0.467h0.457
	c0.115-0.088,0.237-0.166,0.366-0.233h2.443c0.094-0.08,0.194-0.15,0.301-0.21h0.732c0.041,0.044,0.066,0.102,0.068,0.163
	c-0.064,0.055-0.113,0.128-0.137,0.21c0.115-0.004,0.229,0.003,0.343,0.022c0.05,0.115,0.111,0.225,0.183,0.327
	c0.041,0.04,0.125-0.058,0.138,0.14c-0.015,0.021-0.022,0.045-0.023,0.07c0.059,0.05,0.12,0.097,0.183,0.14l0.435-0.023
	c0.045,0.019,0.041,0.068,0.091,0.093v-0.14c0.078,0.006,0.154,0.021,0.229,0.047c0.134-0.049,0.271-0.088,0.41-0.117V19.1
	c0.1-0.009,0.201-0.009,0.301,0l1.553-4.317c0.01,0.005,0.018,0.013,0.023,0.023h0.022L33.55,19.1h0.708
	c0.051-0.021,0.105-0.029,0.16-0.022c0.016,0.045,0.023,0.093,0.023,0.14h1.348c0.257,0.09,0.528,0.13,0.8,0.117
	c0.029,0.163,0.152,0.125,0.274,0.188c0.232,0.117,0.416,0.3,0.64,0.42c-0.002,0.018-0.011,0.034-0.022,0.047
	c-0.128,0.212-0.298,0.395-0.5,0.537c0.011,0.029,0.011,0.063,0,0.093c0.044,0.011,0.084,0.035,0.113,0.069
	c0,0-0.066,0.031-0.046,0.047h0.021l0.32,0.4l0.069-0.022l0.069,0.116l0.068,0.023l0.047,0.163c0.039,0.038,0.086,0.069,0.137,0.093
	c0.101,0.107,0.178,0.234,0.228,0.373c0.024,0.241,0.017,0.484-0.022,0.725c0.068,0.049,0.109,0.126,0.113,0.209
	c-0.157,0.145-0.248,0.348-0.25,0.561c0.121-0.002,0.234,0.061,0.299,0.163c0.018,0.028,0.025,0.061,0.023,0.093
	c-0.043,0.043-0.1,0.067-0.16,0.07c-0.055,0.007-0.109-0.002-0.16-0.023c0.025,0.102-0.021,0.207-0.113,0.258
	c-0.079,0.023-0.166,0.006-0.229-0.048v0.048c0.018,0.152,0.056,0.301,0.114,0.443c-0.049,0.047-0.115,0.072-0.183,0.07
	c-0.031-0.039-0.07-0.071-0.114-0.094c-0.056,0.07-0.139,0.113-0.228,0.117c-0.07-0.075-0.104-0.178-0.092-0.279
	c0.057-0.101,0.088-0.213,0.092-0.327h-0.053c-0.081,0.127-0.156,0.225-0.251,0.373l-0.069-0.048
	c-0.058,0.142-0.053,0.023-0.16,0.07c-0.028,0.014-0.205,0.174-0.25,0.211c-0.053,0.125-0.123,0.242-0.207,0.35
	c-0.018,0.009-0.213,0.017-0.228,0.022c-0.132,0.097-0.255,0.206-0.364,0.327c0,0,0.065,0.031,0.045,0.047h-0.023
	c-0.064,0.145-0.208,0.236-0.365,0.233c-0.109,0.065-0.209,0.144-0.3,0.233c-0.056,0.135-0.142,0.254-0.251,0.35
	c-0.052,0.043-0.123,0.051-0.184,0.023c-0.217,0.16-0.396,0.368-0.524,0.606l-0.069-0.047c-0.01,0.033-0.025,0.064-0.046,0.093
	c-0.039-0.018-0.042-0.061-0.069-0.023c-0.132,0.079-0.254,0.173-0.364,0.28l0.046,0.07c-0.1,0.035-0.116,0.132-0.206,0.163
	c-0.077,0.015-0.156,0.007-0.228-0.023c-0.134,0.057-0.271,0.104-0.412,0.141v0.069c-0.094,0.044-0.195,0.067-0.299,0.07
	c-0.197-0.077-0.409-0.101-0.617-0.07c-0.09,0.06-0.193,0.093-0.301,0.093c0-0.024-0.008-0.049-0.022-0.069
	c-0.196-0.028-0.396-0.036-0.595-0.023c-0.08,0.075-0.19,0.108-0.299,0.093V27.43h-0.103v-0.047H29.85
	c-0.09,0.06-0.193,0.092-0.301,0.094c0-0.025-0.008-0.051-0.023-0.07c-0.196-0.029-0.395-0.036-0.594-0.023
	c-0.079,0.077-0.19,0.111-0.3,0.094V27.43h-0.108v-0.047h-0.5c-0.088,0.06-0.192,0.092-0.299,0.094c0-0.025-0.008-0.051-0.023-0.07
	c-0.197-0.029-0.396-0.036-0.594-0.023c-0.08,0.077-0.191,0.111-0.301,0.094c-0.179-0.105-0.391-0.139-0.594-0.094
	c-0.088,0.062-0.193,0.094-0.3,0.094c0-0.025-0.008-0.051-0.022-0.07c-0.197-0.029-0.396-0.036-0.595-0.023
	c-0.079,0.077-0.19,0.111-0.3,0.094V27.43h-0.104v-0.047h-0.5c-0.09,0.06-0.193,0.092-0.301,0.094c0-0.025-0.008-0.051-0.023-0.07
	c-0.188-0.023-0.38-0.031-0.57-0.023c-0.089,0.075-0.205,0.109-0.32,0.094c-0.18-0.105-0.391-0.139-0.594-0.094
	c-0.08,0.077-0.191,0.111-0.3,0.094V27.43h-0.115v-0.047h-0.5c-0.079,0.077-0.19,0.111-0.3,0.094V27.43H21.26v-0.047h-0.5
	c-0.087,0.078-0.205,0.112-0.32,0.094V27.43h-0.117v-0.047h-0.454c-0.089,0.075-0.205,0.109-0.32,0.094
	c-0.179-0.105-0.391-0.139-0.594-0.094c-0.08,0.077-0.191,0.111-0.3,0.094c-0.179-0.104-0.391-0.137-0.594-0.094
	c-0.089,0.075-0.205,0.109-0.32,0.094V27.43h-0.113v-0.047h-0.5c-0.087,0.078-0.205,0.112-0.32,0.094V27.43h-0.117v-0.047h-0.457
	c-0.104,0.063-0.222,0.095-0.343,0.094c-0.006-0.062,0-0.047-0.114-0.048c-0.258-0.054-0.527-0.037-0.777,0.048V27.43h-0.114v-0.047
	h-0.457c-0.069,0.046-0.147,0.078-0.228,0.094c-0.084-0.012-0.164-0.043-0.232-0.094h-0.362c-0.133,0.07-0.284,0.103-0.434,0.094
	V27.43h-0.114v-0.047h-0.457c-0.064,0.04-0.134,0.071-0.206,0.094c-0.092,0.002-0.182-0.031-0.251-0.094h-0.343
	c-0.133,0.07-0.283,0.103-0.434,0.094V27.43h-0.114v-0.047h-0.457c-0.069,0.045-0.146,0.077-0.228,0.094
	c-0.084-0.005-0.165-0.038-0.229-0.094H9.975c-0.133,0.07-0.284,0.103-0.434,0.094V27.43H9.426v-0.047H8.969
	c-0.095,0.079-0.22,0.113-0.343,0.094c-0.164-0.102-0.36-0.136-0.548-0.094c-0.075,0.051-0.161,0.083-0.251,0.094
	c-0.076-0.012-0.147-0.044-0.206-0.094c-0.218-0.037-0.442-0.004-0.64,0.094c-0.102,0.008-0.205-0.009-0.3-0.048v-0.069
	c-0.21-0.017-0.416-0.063-0.612-0.14c0,0.025-0.008,0.05-0.023,0.07c-0.131-0.027-0.25-0.094-0.343-0.19h0.023
	c0.023-0.023-0.023-0.022-0.023-0.022c-0.212-0.163-0.468-0.259-0.734-0.277c-0.129-0.253-0.401-0.401-0.685-0.373
	c-0.09-0.065-0.162-0.154-0.206-0.257c-0.028-0.023-0.371-0.205-0.388-0.21c-0.071-0.019-0.02,0.045-0.069,0.047
	c-0.097-0.011-0.19-0.043-0.274-0.093l0.023-0.07c-0.125-0.022-0.321-0.281-0.5-0.326H2.825v0.047
	c-0.047-0.006-0.089-0.031-0.114-0.07c-0.053-0.021-0.017,0.072-0.069,0.023c-0.05-0.014-0.092-0.047-0.114-0.094
	c-0.026-0.021-0.058-0.038-0.091-0.047l0.023-0.07c-0.083-0.067-0.175-0.123-0.274-0.162c-0.051,0.021-0.105,0.037-0.16,0.047
	c-0.065-0.176-0.187-0.066-0.3-0.164c-0.026-0.023-0.027-0.063-0.004-0.088c0.001-0.002,0.002-0.003,0.004-0.004
	c-0.042-0.007-0.081-0.023-0.114-0.047c-0.013-0.021,0.042-0.054,0-0.094c-0.082-0.074-0.174-0.138-0.274-0.188
	c-0.042,0.021-0.09,0.029-0.137,0.023c-0.015-0.029-0.022-0.061-0.023-0.093c-0.042-0.03-0.088-0.054-0.137-0.07l-0.114-0.233
	l0.023-0.116c-0.032-0.097-0.133-0.218-0.181-0.329c-0.2-0.02-0.065-0.064-0.137-0.21l-0.091-0.047
	c-0.033-0.097-0.041-0.2-0.023-0.3h0.068l-0.023-0.188l-0.137-0.023c0.029,0.289,0.014,0.58-0.046,0.864
	c-0.042,0.024-0.089,0.04-0.137,0.048c-0.028-0.02-0.059-0.035-0.091-0.048c0.01-0.313,0.003-0.626-0.023-0.938
	c-0.026-0.034-0.057-0.065-0.091-0.093c-0.058-0.115-0.074-0.248-0.046-0.373c0.153-0.115,0.334-0.188,0.525-0.211v-0.094h0.069
	c0.016-0.123,0.054-0.241,0.114-0.35c-0.058-0.032-0.086-0.1-0.069-0.163c0.077-0.026,0.136-0.088,0.16-0.165
	c-0.04-0.043-0.042-0.018-0.022-0.068c0.027-0.101,0.067-0.093,0.091-0.188l-0.228-0.023c-0.016-0.053-0.024-0.107-0.023-0.162
	c0.019-0.021,0.035-0.045,0.046-0.07l0.206,0.07v-0.351h0.022c0.157,0.04,0.32,0.048,0.48,0.022c0.098-0.08,0.176-0.184,0.228-0.299
	c-0.172-0.127-0.355-0.238-0.548-0.332l-0.206-0.022c-0.033-0.021-0.055-0.113-0.091-0.14l-0.091-0.023v-0.561
	c0.093-0.146,0.083-0.36,0.16-0.514c0.33-0.64,1.02-1.011,1.736-0.934c0.162,0.052,0.33,0.083,0.5,0.093V17.93
	c0.185,0,0.27,0.045,0.48,0.047V17.79c0.056-0.051,0.13-0.076,0.206-0.07c0.013,0.013,0.029,0.021,0.046,0.023
	C3.775,17.827,3.8,17.91,3.852,17.976c0.045-0.069,0.112-0.1,0.16-0.163c-0.048-0.068-0.064-0.153-0.043-0.233
	c0.861,0,1.631,0,2.513,0c0.403-0.026,0.808-0.026,1.211,0c0.397,0.042,0.799,0.019,1.188-0.07c-0.051-0.092-0.059-0.201-0.023-0.3
	c0.054-0.035,0.119-0.051,0.183-0.047c0.157-0.04,0.32-0.047,0.48-0.023c0.029,0.035,0.052,0.074,0.069,0.117
	c0.046,0.093,0.062,0.198,0.046,0.3c0.172,0.044,0.351,0.052,0.525,0.023c0.079-0.04,0.008-0.1,0.183-0.117
	c0.035,0.031,0.06,0.072,0.069,0.117c0.787-0.022,1.563-0.196,2.284-0.514V17h0.521v0.07c0.08,0.021,0.156,0.053,0.229,0.093
	l0.457,0.093c0.23,0.095,0.5,0.252,0.731,0.327h0.548c0.481,0,0.883-0.019,1.3-0.023c-0.004-0.079,0.003-0.157,0.023-0.233H16.44
	v-0.261h-1.051c-0.137,0.019-0.277,0.011-0.411-0.023c-0.218-0.165-0.411-0.362-0.571-0.584l-0.046-0.093H12.83v-1.284h-0.228
	c-0.148-0.077-0.237-0.233-0.229-0.4c-0.039-0.153-0.047-0.312-0.023-0.467c0.031-0.339,0.019-0.767,0.023-1.144
	c-0.094-0.042-0.198-0.059-0.3-0.047c-0.013-0.012-0.029-0.021-0.046-0.023l-0.023-0.07c-0.042-0.184-0.05-0.374-0.023-0.56
	c0.068-0.027,0.13-0.067,0.183-0.117c-0.04-0.086-0.104-0.159-0.183-0.21c0.011-0.071,0.026-0.141,0.046-0.21
	c-0.341,0-0.7,0.018-1.005,0.023v-0.042c-0.022-0.044-0.022-0.096,0-0.14h0.16c0.248,0.055,0.503,0.063,0.754,0.023
	c0.002-0.018,0.01-0.035,0.023-0.047c-0.02-0.052-0.028-0.107-0.023-0.163c0.09-0.204,0.232-0.381,0.411-0.514l0.023-0.42
	c0.127-0.107,0.29-0.166,0.457-0.163V9.854c0.083-0.05,0.177-0.082,0.274-0.093c0.021-0.043,0.029-0.092,0.023-0.14
	c-0.113-0.082-0.181-0.211-0.183-0.35c0.262-0.065,0.533-0.081,0.8-0.047c0.375,0.231,0.829,0.298,1.256,0.187l1.508,0.023v-0.07
	c0.031-0.039,0.07-0.07,0.114-0.093c0.291-0.086,0.6-0.086,0.891,0c0.084,0.2,0.081,0.316,0.388,0.3
	c0.005-0.087,0.021-0.174,0.046-0.257c0.283-0.114,0.594-0.139,0.891-0.07c0.07,0.045,0.126,0.11,0.16,0.187H20
	c0.126-0.033,0.258-0.041,0.388-0.023c0.381-0.03,0.766-0.006,1.141,0.07c0.073,0.066,0.149,0.128,0.229,0.187h1.279V9.62
	c0.063-0.106,0.013-0.283,0.068-0.4c0.031-0.063,0.153-0.107,0.184-0.163l0.023-0.28c0.055-0.102,0.133-0.19,0.228-0.257
	c0.151-0.006,0.346,0.042,0.457,0.023c0.124-0.049,0.263-0.049,0.388,0c0.264,0.1,0.133,0.337,0.251,0.584
	c0.055,0.072,0.101,0.15,0.138,0.233c0.002,0.095,0.018,0.189,0.045,0.28c0.173,0.041,0.351,0.048,0.525,0.023h1.348
	c0.078,0.038,0.101-0.02,0.16-0.047c0.105,0.025,0.213,0.041,0.32,0.047h1.051c0.119,0.068,0.228,0.155,0.32,0.257
	c0.167,0.096,0.314,0.223,0.434,0.373l-0.022,0.07c0.062,0.088,0.167,0.168,0.229,0.257c0.058,0.122,0.127,0.239,0.205,0.35
	c0.09-0.067,0.157,0,0.252,0.047c-0.028,0.058-0.036,0.124-0.023,0.187C29.637,11.221,29.662,11.23,29.689,11.231z"/>
</svg>
