<?xml version="1.0" encoding="utf-8"?>
<!-- Generator: Adobe Illustrator 16.0.0, SVG Export Plug-In . SVG Version: 6.00 Build 0)  -->
<!DOCTYPE svg PUBLIC "-//W3C//DTD SVG 1.1//EN" "http://www.w3.org/Graphics/SVG/1.1/DTD/svg11.dtd">
<svg version="1.1" id="Layer_1" xmlns="http://www.w3.org/2000/svg" xmlns:xlink="http://www.w3.org/1999/xlink" x="0px" y="0px"
	 width="40px" height="40px" viewBox="0 0 40 40" enable-background="new 0 0 40 40" xml:space="preserve">
<path id="ussr_is_2_1943_ico" fill="#FFFFFF" d="M17.137,14.832h0.13v-0.155h0.3c-0.009,0.081-0.009,0.163,0,0.244
	c0.075,0.054,0.17,0.07,0.259,0.044c0.034,0.027,0.011,0.014,0.043,0c0.116-0.08,0.212-0.186,0.281-0.31
	c0.26-0.141,0.558-0.195,0.85-0.155l0.022-0.244c0.068-0.055,0.134-0.114,0.195-0.177c0.14-0.002,0.279,0.02,0.411,0.067
	c0.088,0.279,0.125,0.572,0.108,0.864c0.053,0.015,0.095,0.058,0.108,0.111L21,15.209l0.048,0.091
	c0.034,0.017,0.3,0.039,0.324,0.044c0.172-0.021,0.341-0.065,0.5-0.133c0.271-0.014,0.543,0.023,0.8,0.111
	c-0.037,0.06-0.06,0.129-0.064,0.2c0.031,0.023,0.068,0.038,0.107,0.044c-0.004-0.039,0.004-0.077,0.021-0.111
	c0.113,0.1,0.285,0.133,0.39,0.244c0.034-0.021,0.065-0.081,0.087-0.044c0.045,0.018,0.082,0.049,0.107,0.089
	c-0.02,0.035-0.077,0.066-0.043,0.089c0.012,0.017,0.217,0.31,0.217,0.31h0.173c0.013,0.009,0.11,0.167,0.13,0.177H24.2l0.022,0.066
	l0.691,0.022c0.709,0.092,1.426,0.114,2.139,0.066L37.3,16.538v-0.133l0.454-0.022V16.25h0.107v0.133
	c0.256-0.019,0.51-0.063,0.757-0.133c0.433-0.043,0.87-0.028,1.3,0.044c0.119,0.355,0.104,0.741-0.043,1.085
	c-0.182,0.06-0.374,0.075-0.563,0.044h-0.695c-0.248-0.065-0.501-0.11-0.756-0.133v0.09h-0.108v-0.089H37.3v-0.155l-5.272,0.044
	h-1.838c-0.317-0.022-0.636-0.015-0.951,0.022h-2.031c-0.742-0.047-1.488-0.024-2.227,0.066l-0.691,0.022
	c0,0-0.076,0.017-0.087,0.022v0.044h-0.409c-0.061,0.028,0.018,0.047-0.107,0.066l-0.022,0.111c-0.237,0.058-0.454,0.18-0.627,0.354
	c-0.056,0.048-0.123,0.079-0.195,0.089c-0.028-0.033-0.065-0.056-0.108-0.066c-0.223,0.194-0.799,0.088-0.885,0.421h0.346
	c0.012,0.012,0.026,0.02,0.043,0.022V18.2c-0.012-0.012-0.02-0.027-0.022-0.044h0.173c0.118-0.041,0.243-0.056,0.367-0.044v0.244
	c0.117,0.037,0.057,0.076,0.107,0.111l0.217,0.022c0.099,0.112,0.179,0.239,0.238,0.377c0.041,0.032,0.085,0.062,0.129,0.089
	c0.101,0.1,0.168,0.211,0.26,0.311c0.049,0,0.013-0.027,0.064,0c0.014,0.075,0.036,0.15,0.065,0.222
	c0.017,0.083-0.047,0.09-0.022,0.133c0.025,0.017,0.057,0.024,0.086,0.022c0.078-0.025,0.158-0.04,0.238-0.045v-0.113
	c-0.082-0.134-0.098-0.297-0.043-0.443c0.035-0.039,0.064-0.084,0.086-0.133l0.174-0.133l0.237-0.022v0.753
	c0.136-0.029,0.271-0.052,0.409-0.066c0.068,0.049,0.133,0.1,0.193,0.155h0.26c0.189,0.019,0.377,0.049,0.563,0.089
	c0.014,0.036,0.014,0.076,0,0.111c-0.02,0.018-0.042,0.033-0.065,0.044v0.022h0.173c0.084-0.027,0.172-0.035,0.259-0.022v-0.2h0.043
	c0.004,0.068,0.019,0.137,0.043,0.2c0.53-0.08,1.066,0.111,1.427,0.509c0.131,0.078,0.234,0.194,0.299,0.332
	c-0.012,0.012-0.019,0.027-0.021,0.045c-0.084,0.072-0.179,0.133-0.281,0.176c-0.014-0.02-0.021-0.043-0.021-0.066
	c-0.092,0.057-0.193,0.094-0.301,0.111c-0.156-0.049-0.291-0.172-0.453-0.244v0.044c0.072,0.062,0.131,0.137,0.173,0.222
	l-0.022,0.09c0.079,0.041,0.146,0.102,0.195,0.176c-0.039,0.006-0.076,0.021-0.107,0.045c0.063,0.085,0.107,0.184,0.129,0.287
	c0.035-0.013,0.072-0.02,0.108-0.021c0.01,0.043,0.032,0.082,0.065,0.111c0.027,0.178,0.013,0.36-0.043,0.531
	c-0.033,0.049-0.063,0.102-0.086,0.155c-0.03,0.036,0.041,0.017,0.043,0.022c0.014,0.063-0.002,0.127-0.043,0.177
	c-0.009-0.016-0.025-0.024-0.043-0.022c0.018,0.043,0.025,0.088,0.021,0.133c-0.02,0.043-0.082,0.08-0.107,0.134H27.38
	c0.001-0.046-0.007-0.091-0.022-0.134h-0.021v0.022c-0.079,0.096-0.165,0.185-0.259,0.267c0.034,0.018,0.058,0.051,0.064,0.088
	c-0.099,0.087-0.207,0.161-0.324,0.222c0.02-0.045,0.01-0.097-0.021-0.133c-0.078,0.064-0.165,0.116-0.259,0.155
	c0.022,0.041,0.037,0.086,0.043,0.133c-0.174,0.05-0.214,0.115-0.39,0.154c0-0.069,0.031-0.041-0.043-0.065
	C26.098,23.525,26.048,23.562,26,23.6c-0.023,0.045,0.091,0.119,0,0.155c-0.061,0.022-0.027-0.048-0.087-0.022
	c-0.042,0.067-0.103,0.121-0.173,0.156c0-0.084,0.025-0.055-0.065-0.066c-0.064,0.045-0.138,0.075-0.216,0.089l0.021,0.133
	c-0.1,0.054-0.17,0.113-0.299,0.177V24.18c0.028-0.053,0.03-0.055-0.022-0.089c-0.085,0.071-0.18,0.132-0.281,0.177
	c0.038,0.025,0.062,0.066,0.065,0.111c-0.035,0.013-0.071,0.02-0.108,0.021c-0.059,0.06-0.124,0.111-0.194,0.156
	c0.011-0.045,0.011-0.09,0-0.134h-0.049v0.022c-0.084,0.033-0.164,0.078-0.238,0.133c0.023,0.033,0.039,0.07,0.043,0.111
	c-0.119,0.053-0.064-0.023-0.129,0v0.021c-0.062,0.043-0.127,0.08-0.195,0.111c0.018-0.045,0.01-0.097-0.022-0.133
	c-0.085,0.051-0.182,0.08-0.28,0.088v0.134c-0.043,0.015-0.086,0.022-0.131,0.022c-0.137-0.013-0.273-0.013-0.41,0
	c-0.009-0.059,0.016-0.029-0.043-0.045c-0.103,0.052-0.223,0.052-0.324,0c-0.125,0.043-0.258,0.058-0.389,0.045
	c-0.009-0.059,0.016-0.029-0.043-0.045c-0.106,0.058-0.227,0.081-0.347,0.067c0.009-0.05,0.021-0.024,0-0.067
	c-0.131,0.075-0.284,0.1-0.433,0.067c0.01-0.05,0.021-0.024,0-0.067c-0.097,0.08-0.23,0.098-0.346,0.045
	c0.07-0.019,0.033,0.01,0.065-0.045h-0.084c-0.112,0.084-0.261,0.101-0.39,0.045c0.028-0.004,0.053-0.02,0.065-0.045h-0.087
	c-0.098,0.079-0.227,0.104-0.346,0.067c-0.035-0.04-0.256,0.04-0.41,0c-0.108-0.005-0.216-0.005-0.324,0
	c-0.017-0.021-0.577,0-0.735,0c0.009-0.05,0.02-0.024,0-0.067c-0.131,0.074-0.285,0.098-0.432,0.067
	c-0.008-0.058,0.016-0.029-0.043-0.044c-0.075,0.057-0.176,0.065-0.259,0.021c0.053-0.028,0.015,0.01,0.043-0.043H18.3
	c-0.121,0.082-0.275,0.099-0.411,0.043c0.028-0.002,0.052-0.019,0.065-0.043h-0.083c-0.229,0.077-0.474,0.1-0.713,0.066
	c0.009-0.05,0.02-0.023,0-0.066c-0.09,0.075-0.212,0.101-0.324,0.066c-0.245-0.021-0.49-0.021-0.735,0
	c0.009-0.05,0.02-0.023,0-0.066c-0.124,0.072-0.271,0.096-0.411,0.066c0.009-0.05,0.02-0.023,0-0.066
	c-0.095,0.064-0.211,0.088-0.324,0.066c-0.008-0.059,0.016-0.029-0.043-0.044c-0.114,0.054-0.243,0.069-0.367,0.044
	c-0.008-0.059,0.016-0.029-0.043-0.044c-0.084,0.05-0.186,0.065-0.281,0.044c-0.008-0.059,0.016-0.029-0.043-0.044
	c-0.121,0.06-0.258,0.075-0.389,0.044c-0.238-0.016-0.476-0.016-0.713,0c-0.008-0.059,0.016-0.029-0.043-0.044
	c-0.084,0.05-0.185,0.065-0.281,0.044c-0.008-0.059,0.016-0.029-0.043-0.044c-0.117,0.045-0.243,0.06-0.367,0.044
	c-0.008-0.057,0.012-0.035-0.065-0.044c-0.077,0.049-0.17,0.065-0.259,0.044c-0.008-0.057,0.013-0.035-0.065-0.044
	c-0.107,0.054-0.229,0.069-0.346,0.044c-0.008-0.057,0.013-0.035-0.065-0.044c-0.208,0.075-0.433,0.091-0.648,0.044
	c-0.126,0.033-0.259,0.041-0.389,0.021c-0.011-0.013,0.021-0.063-0.022-0.043c-0.233,0.058-0.475,0.072-0.713,0.043
	c0.009-0.05,0.02-0.023,0-0.065c-0.131,0.073-0.285,0.097-0.432,0.065c0.009-0.05,0.02-0.023,0-0.065
	c-0.082,0.074-0.2,0.092-0.3,0.044c0.062-0.025,0.04,0,0.065-0.066H9.487c-0.142,0.087-0.314,0.111-0.475,0.066
	c0.07-0.018,0.033,0.011,0.065-0.044H8.99c-0.079,0.078-0.196,0.104-0.3,0.065v-0.045c-0.023-0.017-0.038,0.043-0.043,0.045
	c-0.128,0.025-0.261,0.025-0.389,0c-0.345-0.02-0.691-0.02-1.037,0c0.009-0.051,0.02-0.024,0-0.066
	c-0.125,0.068-0.271,0.091-0.411,0.066c0.009-0.051,0.02-0.024,0-0.066c-0.091,0.074-0.216,0.092-0.324,0.044
	c0.07-0.019,0.033,0.011,0.065-0.044h-0.09c-0.112,0.083-0.261,0.1-0.389,0.044c0.053-0.029,0.015,0.009,0.043-0.044H6.051
	c-0.067,0.068-0.167,0.094-0.259,0.066c-0.028-0.064,0.025-0.047-0.065-0.066c-0.079,0.024-0.165,0.017-0.238-0.021
	c-0.017,0.1-0.024,0.086-0.13,0.088c0-0.08,0.032-0.045-0.043-0.065c-0.094,0.021-0.192,0.015-0.281-0.022v-0.023h0.022
	c0.027-0.016,0.05-0.039,0.065-0.067l0.022-0.022H5.1c-0.119-0.053-0.242-0.097-0.367-0.133c0.018,0.043,0.018,0.091,0,0.133
	c-0.128-0.028-0.248-0.09-0.346-0.178c0.033-0.002,0.064-0.018,0.086-0.043v-0.044l-0.3-0.133c-0.017,0.093-0.011,0.081-0.108,0.089
	c-0.016-0.019-0.027-0.025-0.043-0.044c0.053-0.028,0.015,0.009,0.043-0.044H3.976c-0.054,0.008-0.109-0.009-0.151-0.044l0.065-0.11
	c-0.066-0.017-0.3-0.096-0.3-0.09c-0.031,0.024-0.068,0.039-0.108,0.045c-0.016-0.02-0.027-0.025-0.043-0.045
	c0.053-0.029,0.015,0.01,0.043-0.044H3.393c-0.068,0.013-0.138-0.004-0.193-0.045v-0.022h0.02c0.019-0.02,0.034-0.041,0.043-0.066
	c0.005-0.021,0.017-0.008,0-0.021c-0.231-0.019-0.454-0.095-0.648-0.222c0.079-0.015,0.059,0,0.086-0.065
	c-0.114-0.039-0.223-0.092-0.324-0.155c-0.001,0.038-0.008,0.075-0.022,0.11c-0.017-0.002-0.032-0.01-0.043-0.021
	c-0.115-0.028-0.22-0.09-0.3-0.177c0.054-0.032,0.04-0.028,0.043-0.111c-0.064-0.051-0.138-0.089-0.216-0.11
	c-0.018,0.02-0.032,0.042-0.043,0.066H1.75c-0.016-0.035-0.048-0.06-0.086-0.066l0.022-0.066c-0.249-0.188-0.449-0.432-0.586-0.711
	h0.024c0.033,0.066,0.099,0.108,0.173,0.111v-0.045c-0.074-0.051-0.122-0.131-0.13-0.221c0.035-0.022,0.064-0.053,0.086-0.089
	c-0.092-0.024-0.186-0.039-0.281-0.045v0.022H0.951v0.043c0.053,0.023,0.099,0.063,0.13,0.111C1.047,22.38,1,22.421,0.972,22.5
	c0.1,0.016,0.122,0.043,0.13,0.155H1.081c-0.248-0.011-0.495-0.048-0.735-0.111v-0.291c0.015-0.259-0.07-0.513-0.238-0.709
	c-0.031-0.209-0.009-0.423,0.065-0.62H0.151c-0.024,0.048-0.077,0.074-0.13,0.067H0v-0.023c0.086-0.054,0.156-0.143,0.238-0.2
	L0.3,20.791c0.16-0.146,0.311-0.302,0.454-0.465c0.345-0.266,0.691-0.541,1.037-0.801c0.281-0.159,0.53-0.369,0.735-0.619
	c-0.062-0.235,0.07-0.478,0.3-0.554c0.044-0.001,0.088,0.006,0.13,0.022c0.109-0.168,0.28-0.287,0.475-0.332
	c0.038,0.028,0.083,0.043,0.13,0.044v-0.33c1.461-0.1,2.657-0.021,4.149-0.022v0.443C7.777,18.268,7.887,18.318,8,18.31v-0.554
	c0.531-0.022,1.142-0.015,1.707-0.022c0.188-0.063,0.386-0.086,0.583-0.067l0.043,0.067h0.54l-0.022-0.177h-0.024v-0.022
	c-0.103-0.009-0.204-0.031-0.3-0.066v-0.134c0.028-0.012,0.057-0.019,0.087-0.022c0.019,0.014,0.041,0.022,0.065,0.022v-0.066h0.216
	c0.05-0.14,0.115-0.274,0.194-0.4c-0.04-0.027-0.071-0.064-0.089-0.109l-0.151-0.021v-0.067h0.086v-0.089
	c-0.257,0-0.53,0.012-0.756,0.022c-0.013-0.036-0.021-0.073-0.022-0.111c0.042-0.015,0.085-0.022,0.13-0.022
	c0.191,0.045,0.389,0.052,0.583,0.022c0.017-0.243,0.134-0.468,0.324-0.62h0.043c-0.004,0.038,0.004,0.077,0.022,0.111
	c0.042-0.049,0.117-0.094,0.13-0.111c0.034-0.053,0.049-0.115,0.043-0.177c0.053-0.001,0.105-0.017,0.151-0.044l0.022-0.133h0.108
	c0.018-0.033,0.04-0.063,0.065-0.089c-0.002-0.017-0.01-0.032-0.022-0.044c-0.028-0.055,0.009-0.015-0.043-0.044
	c-0.034-0.019-0.074-0.027-0.113-0.022c-0.01,0.032-0.034,0.056-0.065,0.066v-0.044c0.018-0.02,0.032-0.042,0.043-0.066
	c-0.034-0.002-0.064-0.018-0.086-0.044l0.022-0.066h0.519c0.221-0.22,0.539-0.312,0.843-0.244c-0.005-0.314,0.129-0.614,0.367-0.82
	c0.19-0.06,0.367-0.158,0.519-0.288c-0.022-0.042-0.037-0.086-0.043-0.133h0.111v0.2h0.022c0.055-0.022,0.114-0.03,0.173-0.022
	v-0.09c0.027-0.012,0.057-0.019,0.086-0.022v0.022h0.022c-0.018,0.035-0.018,0.076,0,0.111c0.185,0.043,0.375,0.051,0.562,0.022
	c0.052-0.085,0.165-0.01,0.281,0c0.003-0.104-0.004-0.208-0.022-0.31h0.281c0.096-0.034,0.198-0.049,0.3-0.044v0.266
	c0.055-0.029,0.113-0.051,0.173-0.066v0.111c0.065,0,0.13,0.007,0.194,0.022v-0.2h0.108v0.044c-0.024,0.043-0.046,0.087-0.065,0.133
	c0.348,0.06,0.645,0.284,0.8,0.6l0.068,0.242h0.065c0.033-0.019,0.071-0.026,0.108-0.022v-0.4c0-0.011,0.06-0.05,0.065-0.067V11
	h0.022v0.022c0.048,0.352,0.055,0.709,0.021,1.063v2.171C17.134,14.445,17.148,14.639,17.137,14.832z"/>
</svg>
