<svg xmlns="http://www.w3.org/2000/svg" width="80" height="40" viewBox="0 0 80 40">
  <defs>
    <style>
      .cls-1 {
        fill: #fff;
        fill-rule: evenodd;
      }
    </style>
  </defs>
  <path id="ussr_pr_123bis_ico" class="cls-1" d="M39.634,10.589q0.022,2.206.043,4.413a8.4,8.4,0,0,1,.043,1.782h0.129a1.147,1.147,0,0,1,.775-0.509l0.043,0.382a0.21,0.21,0,0,1,.129.043c-0.109.062-.049-0.009-0.086,0.127a0.465,0.465,0,0,0,.3.127,0.834,0.834,0,0,1,.388-0.3V16.7a0.263,0.263,0,0,0-.086.085h0.259V16.7a0.456,0.456,0,0,0,0-.212,2.351,2.351,0,0,1-.689-0.085,2.514,2.514,0,0,1-.258-0.764c0.184-.091.213-0.39,0.345-0.424a9.234,9.234,0,0,1,1.465.043,4.581,4.581,0,0,1-.086,1.4h0.991V16.7a1.777,1.777,0,0,0-.732.085,0.283,0.283,0,0,0-.043.17,0.283,0.283,0,0,1,.043.17c0.4,0,.433.038,0.819,0.042a1.654,1.654,0,0,0-.086.34v0.042a1.056,1.056,0,0,1,.3-0.085,0.12,0.12,0,0,0,.043.042,0.123,0.123,0,0,1-.043.042,0.473,0.473,0,0,0-.259.17,0.637,0.637,0,0,1,.172.3c-0.127.055-.125,0.026-0.086,0.127,0.046,0.259.1,0.313,0.431,0.3A5.167,5.167,0,0,1,44.76,18.4c0.077-.024.112-0.162,0.172-0.085h0.043a0.122,0.122,0,0,1-.043.042,3.982,3.982,0,0,1-.646.721c0.024,0.082.071,0.036,0,.085-0.061.125-.167,0-0.215,0.255,0.362,0.426.275,1.543,1.034,1.528a1.263,1.263,0,0,1,.56.085,4.178,4.178,0,0,0,1.723-.127,0.153,0.153,0,0,0,.043-0.085H47a0.2,0.2,0,0,1,.043-0.127,3.86,3.86,0,0,1,1.379-.042A2.629,2.629,0,0,1,49.37,20.6l2.154-.042,5.385-.085c0.611-.129,1.446.1,2.111-0.042a2.788,2.788,0,0,1,1.077,0,0.144,0.144,0,0,1-.043.085,1.058,1.058,0,0,1-.474.043v0.127H60.4a0.709,0.709,0,0,1-.043.255h0.3a12.933,12.933,0,0,0,.043-2.631,1.368,1.368,0,0,0-.431.042V18.269A3.454,3.454,0,0,1,61,18.185c0,0.121-.034.017,0.043,0.127H60.829c0,0.814.042,1.828,0,2.5h0.043a2.591,2.591,0,0,1,1.163-.17,0.635,0.635,0,0,0,.086-0.17H62.079V20.434H61.734V20.349h0.345a0.156,0.156,0,0,0,.086.042c0.014,0.177-.008.156,0.129,0.212a3.482,3.482,0,0,0,1.206.043c0.185,0.27.066,0.276,0.56,0.255v-0.34a1.368,1.368,0,0,0-.431.042V20.391H64.06c-0.016-.169-0.116-0.091,0-0.17a0.452,0.452,0,0,1,.431-0.085,0.123,0.123,0,0,0,.043.042,0.658,0.658,0,0,0-.043.212,1.368,1.368,0,0,0,.431-0.042v0.212H64.491v0.3h0.043V20.9h0.129c-0.034-.234-0.121-0.256.215-0.255v0.085a0.215,0.215,0,0,0-.043.127H65.18c-0.02-.129-0.086-0.133-0.043-0.17a0.329,0.329,0,0,1,.3,0,0.259,0.259,0,0,0-.086.17,4.936,4.936,0,0,0,1.551-.085c-0.14-.035-0.066.021-0.129-0.085a0.6,0.6,0,0,0,.431-0.127c-0.033-.1-0.009-0.064.043-0.17a1.056,1.056,0,0,0,.689.127l0.086-.127a0.667,0.667,0,0,0-.388-0.085V20.221h0.3a0.156,0.156,0,0,0,.086.042,0.659,0.659,0,0,1,.043.212h0.56v-0.17a0.211,0.211,0,0,1,.129.042,0.283,0.283,0,0,1,.043.17,1.785,1.785,0,0,0,1.249-.127,1.394,1.394,0,0,1,.215.17,5.04,5.04,0,0,0,1.378-.043l0.043-.339h0.043a2.926,2.926,0,0,0,1.939.339H78.1a0.2,0.2,0,0,1-.043.127,0.378,0.378,0,0,1-.215.042v0.127h0.388a8.145,8.145,0,0,1,.474-1.57,3.039,3.039,0,0,0,.6-1.018H79.182a0.144,0.144,0,0,0-.043-0.085V18.1h0.043a0.222,0.222,0,0,1,.129-0.042c0-1.2.048-2.107,0.043-3.565a3.33,3.33,0,0,0-.646,0V14.408a0.607,0.607,0,0,0,.646-0.17,0.149,0.149,0,0,1-.086-0.042c0.14-.035.066,0.021,0.129-0.085a0.211,0.211,0,0,1-.129-0.042h0.086c0.063-.107.054-0.078,0.215-0.085,0,2.471-.16,4.683,0,6.875a1.192,1.192,0,0,0,.431.085V21.07a0.211,0.211,0,0,0-.129.042,3.021,3.021,0,0,0-.388.849c-0.237.532-.5,1.106-0.775,1.655a1.558,1.558,0,0,0-.345.806,0.318,0.318,0,0,0,.172.17,0.5,0.5,0,0,0-.345.085,11.4,11.4,0,0,0-.819,1.316,8.677,8.677,0,0,1-4.007,2.8,16.747,16.747,0,0,1-2.111.424H69.445a12.583,12.583,0,0,1-2.283.042H62.639L40.926,29.3V28.751c-0.653,0-1.4.01-1.982-.042a14.62,14.62,0,0,1-1.551-.042c-0.32-.073-0.766.018-1.034-0.043-0.638-.144-1.421.052-2.025-0.085H33.473a13.073,13.073,0,0,1-1.939-.127H30.587c-1.116-.242-2.463.039-3.576-0.212h-0.9a5.646,5.646,0,0,0-2.283.17l-0.646.042a3.754,3.754,0,0,1-1.335.17c-0.127-.154-0.033-0.3-0.3-0.339a4.773,4.773,0,0,1-1.163.085c-0.715.156-1.612,0.053-2.326,0.212h-0.6c-1.216.265-2.35,0.043-3.49,0.3-0.409.091-.847,0-1.206,0.085-0.394.088-.817,0.008-1.163,0.085l-1.723.085c-0.732.158-1.6,0-2.369,0.17a3.929,3.929,0,0,1-1.508.127L5.9,29.769a4.022,4.022,0,0,1,.215.594,0.8,0.8,0,0,1-.258.042,0.744,0.744,0,0,0-.3-0.17,1.077,1.077,0,0,1-.474.424V30.448a2.767,2.767,0,0,1,.086-0.679,0.516,0.516,0,0,0-.517-0.212,0.467,0.467,0,0,0-.215-0.17V29.345L4.7,29.133H4.954v-0.17l0.129,0.042V28.878a1.105,1.105,0,0,1-.172-0.849A0.777,0.777,0,0,0,5.083,27.9a0.752,0.752,0,0,1,.9.467,3.263,3.263,0,0,0,.043.509,0.81,0.81,0,0,0,.388.043V28.836a2.368,2.368,0,0,0,.3-1.018l-0.129-.042A2.755,2.755,0,0,0,5.6,27.733L3.145,27.69c0.013,1.238-.116,2.071-0.172,3.183a3.284,3.284,0,0,1-1.206.085,0.309,0.309,0,0,0-.172-0.085c-0.186-.725-1.035-1.491-1.12-2.249a5.239,5.239,0,0,0,.517-1.231,4.363,4.363,0,0,0,.215-0.382,10.068,10.068,0,0,0-.3-1.782H0.775v-0.17c0.162-.006.151,0.02,0.215-0.085A1.325,1.325,0,0,1,0,24.423H0.086A2.351,2.351,0,0,1,.948,24.38l1.939-.043C2.83,23.8,2.592,23.264,2.5,22.768a1.4,1.4,0,0,0,.043-0.3c-0.088-.367-0.177-0.79-0.3-1.188a4.685,4.685,0,0,1-.3-1.146H2.025V20.094c0.043-.042.043,0.042,0.043,0.042C2.161,20.27,2.1,20.494,2.2,20.646a9.146,9.146,0,0,0,1.465,1.146v-0.17a1.945,1.945,0,0,1-.129-0.552,1.592,1.592,0,0,1-.689-0.552c0.162-.079.109-0.115,0.086-0.3H3.059a1.407,1.407,0,0,0,.086-0.552H3.274a0.864,0.864,0,0,0,0-.255H3.36L3.4,19.5c0.092,0.129-.035.145,0.086,0.212a2.091,2.091,0,0,0,.819.3V19.882c0.106-.055.029,0.018,0.086-0.085a0.723,0.723,0,0,1,.129.085c0.087,0.069-.03.049,0.086,0.085V19.924c0.043-.042.043,0.042,0.043,0.042a0.463,0.463,0,0,0,.129.255H6.031a6.275,6.275,0,0,1,1.723,0v0.127h-0.3v0.085a1.2,1.2,0,0,1,0,.255l0.258,0.042a1.83,1.83,0,0,1,.215,1.018H8.142v0.085a0.894,0.894,0,0,1,.043.424H8.616l0.043-.509a0.21,0.21,0,0,0,.129-0.042,7.378,7.378,0,0,0,.991-1.443,0.469,0.469,0,0,1-.431-0.255H9.478a0.531,0.531,0,0,0-.043-0.17H9.564a0.99,0.99,0,0,1,.043-0.34c-0.154-.018-0.108.02-0.172-0.085H9.779a1.376,1.376,0,0,1,.043.424c0,0.036-.021.037-0.043,0.17H9.995a1.137,1.137,0,0,1,.646-0.721,0.294,0.294,0,0,1,.172-0.042V19.033H10.469q-0.043-.764-0.086-1.528H10.339c-0.033.029-.1,0.056-0.129,0.085,0.111,0.163-.378.282-0.517,0.34L9.65,17.8a0.416,0.416,0,0,0,.474-0.34,0.49,0.49,0,0,1-.086-0.127h0.086a0.23,0.23,0,0,0,.172.17c0.183-.152.192-0.075,0.431-0.042A1.5,1.5,0,0,1,11.158,17V16.954H10.942A2.757,2.757,0,0,1,9.952,17l-0.56.042v0.085s-0.763-.083-0.948-0.085V16.911H8.358a1.585,1.585,0,0,0-.646-0.042,0.271,0.271,0,0,1-.043.17v-0.17a0.627,0.627,0,0,1-.215-0.042v0.042H7.5c0.083,0.033-.086.042-0.086,0.042a0.157,0.157,0,0,0-.086-0.042c-0.012.11,0.02,0.075-.172,0.085V16.869a0.214,0.214,0,0,1-.043-0.127H7.151V16.7a0.955,0.955,0,0,0,.258,0c0.017,0.111-.032.055,0.086,0.085a1.321,1.321,0,0,1,.56-0.042,0.635,0.635,0,0,0,.086-0.17A1.314,1.314,0,0,1,8.1,16.317H8.228V16.7l0.948-.043a4.249,4.249,0,0,0,.043-1.146H9.262a2.554,2.554,0,0,0,.086,1.1,0.578,0.578,0,0,0,.3.042,12,12,0,0,1,1.637-.127V15.808h0.086v0.043c0.086,0.14,0,.5.086,0.637a0.3,0.3,0,0,0,.172.042V16.445a0.214,0.214,0,0,0,.043-0.127h0.172a3.43,3.43,0,0,0-.043-0.679h0.215A0.932,0.932,0,0,1,12.45,15.6v0.043h0.043v0.636c0.1-.017.047-0.039,0.129,0a0.453,0.453,0,0,1,.043.255h0.172a0.6,0.6,0,0,1,.043-0.212h0.043v0.17l0.388,0.042c0.057-.126-0.042-0.1.172-0.127,0.017,0.111-.032.056,0.086,0.085a0.235,0.235,0,0,1,.172-0.17,0.309,0.309,0,0,0,.172.085,1.762,1.762,0,0,0,.388-0.679,0.214,0.214,0,0,0,.043-0.127H14.217a0.636,0.636,0,0,1-.086-0.17,1.057,1.057,0,0,0,.129-0.3,0.931,0.931,0,0,0,.215-0.17,0.38,0.38,0,0,1-.129-0.127,0.261,0.261,0,0,0,.086-0.085,4.013,4.013,0,0,0,.689.043,0.516,0.516,0,0,1,.172.339,0.454,0.454,0,0,1,0,.3,1.122,1.122,0,0,0-.172.255l-0.129-.042v0.212a1.263,1.263,0,0,1,.172.806l0.689-.042a5.387,5.387,0,0,1,.043,1.443,2.026,2.026,0,0,1,.043.806,11.339,11.339,0,0,1-1.163.042v0.212h0.732V19.33H15.6a0.333,0.333,0,0,0,.431-0.085,15.518,15.518,0,0,0,.259-2.5h0.129a0.145,0.145,0,0,0,.043.085c-0.1,1.045.118,2.435,0.043,3.522a0.676,0.676,0,0,1-.215.17,1.3,1.3,0,0,1-.732.085q0.021,0.7.043,1.4a9.807,9.807,0,0,0,1.637-.085V21.792c0.046,0,.622-0.154.646-0.17a0.283,0.283,0,0,0,.043-0.17s-0.168-.008-0.086-0.042h0.086a0.934,0.934,0,0,1,.732.042l0.732-.212V21.07l-1.982.042V21.2a0.493,0.493,0,0,1-.258.043,2.75,2.75,0,0,1-.474-1.485h0.043V19.712h0.129c0-.427.215-0.5,0.172-0.806H16.888V18.779c0.152-.03.107-0.052,0.258-0.085a1.818,1.818,0,0,1,.129-0.424h0.043v0.042a0.352,0.352,0,0,0,0,.17,2.118,2.118,0,0,0,1.077.085,6.953,6.953,0,0,1,.862-0.127l0.129,0.17a2.434,2.434,0,0,0,.431.085c0.2,0.046.45,0.011,0.6,0.043a0.9,0.9,0,0,1,.043.3,3.733,3.733,0,0,0,.862-0.127s0.79,0.085.948,0.085a0.521,0.521,0,0,1,.215-0.255V18.694c0.044-.042.043,0.042,0.043,0.043a0.214,0.214,0,0,1,.043.127,8.172,8.172,0,0,0,1.249.085A0.684,0.684,0,0,1,24,18.4a1.5,1.5,0,0,1,.043.552h0.646a3.585,3.585,0,0,1,1.422-.042,1,1,0,0,1,.259-0.424c0.022,0.075.091,0.249,0.129,0.17a0.465,0.465,0,0,1,.172-0.255,0.472,0.472,0,0,1,.258-0.043,0.471,0.471,0,0,1,0-.212V18.1l0.129,0.043a1.82,1.82,0,0,0,0,.552H27.1V18.651a0.493,0.493,0,0,0,.086-0.212h0.043v0.042a0.66,0.66,0,0,0,.172.212c0.122,0.088.1-.042,0.172,0.085-0.14.035-.066-0.021-0.129,0.085h0.474a0.71,0.71,0,0,1,.474-0.085c0.357-.095,1.188-0.184,1.292-0.637a0.749,0.749,0,0,1-.043-0.849,14.52,14.52,0,0,0,.56-1.952,0.483,0.483,0,0,1-.388,0c-0.115-.151-0.046-0.132-0.431-0.127-0.191-.115-0.474.057-0.646-0.042a0.99,0.99,0,0,1,.646-0.127,0.744,0.744,0,0,1,.086-0.17,1.483,1.483,0,0,0,1.034.085V14.578c0.1-.161-0.015-0.562.086-0.721l0.043,1.1c0.667,0,1.379-.026,1.982-0.042a3.16,3.16,0,0,1,.043-1.188c0,0.453.082,0.693,0.086,1.146,0.123,0,.017-0.033.129,0.043a0.156,0.156,0,0,1,.086-0.043V14.662h0.215c-0.01-.2-0.024-0.428-0.043-0.679h0.646a2.239,2.239,0,0,1,.043.636,0.553,0.553,0,0,1,.172.043,0.585,0.585,0,0,0,0,.212h0.172V14.7a0.211,0.211,0,0,1,.129.042,0.215,0.215,0,0,0-.043.127l0.388,0.043c0.057-.126-0.042-0.1.172-0.127,0.017,0.107-.025.067,0.129,0.085,0.036-.138-0.021-0.065.086-0.127a0.223,0.223,0,0,0,.129.043,0.867,0.867,0,0,1,.431-0.509V14.026l-0.215-.042a1.742,1.742,0,0,0,.043-0.424,0.168,0.168,0,0,0,.172-0.127c0.061-.052-0.04-0.095-0.086-0.17a0.122,0.122,0,0,0,.043-0.042,1.134,1.134,0,0,1,.689-0.043,0.684,0.684,0,0,1,.3.3,5.534,5.534,0,0,1-.172.552c-0.15,0-.143.005-0.129,0.255a1.61,1.61,0,0,1,.172.806l0.775-.042a22.009,22.009,0,0,1,0,2.376,1.615,1.615,0,0,0,.474.042,0.377,0.377,0,0,1,.215-0.042l0.172-.509c-0.087-.049-0.368-0.3-0.474-0.382a0.12,0.12,0,0,1,.043-0.042,0.61,0.61,0,0,1,.474-0.255,3.287,3.287,0,0,1,.086-0.721q-0.022-1.188-.043-2.376H38.083v0.042a2.528,2.528,0,0,1-.3.849V13.941a1.47,1.47,0,0,0,.086-0.552,6.009,6.009,0,0,0,.215-1.613,2.17,2.17,0,0,1-.646-0.212V11.437h0.172l-0.043-.127c0.154-.018.108,0.02,0.172-0.085a0.273,0.273,0,0,1,0-.255c-0.14-.035-0.066.021-0.129-0.085h0.345a1.261,1.261,0,0,1-.043.552h0.172q-0.021-.615-0.043-1.231a0.456,0.456,0,0,1-.258,0,0.283,0.283,0,0,1-.043-0.17,0.122,0.122,0,0,0,.043-0.042l0.258,0.042A0.712,0.712,0,0,0,38,9.782c0.154-.018.108,0.02,0.172-0.085-0.047-.075.009-0.237-0.043-0.339C38.1,9.3,37.994,9.187,37.954,9.1c0.162-.006.151,0.02,0.215-0.085a0.662,0.662,0,0,1-.043-0.339,0.21,0.21,0,0,1,.129.042,0.453,0.453,0,0,1,.043.255,0.153,0.153,0,0,0-.043.085c0.162,0.006.151-.02,0.215,0.085a0.726,0.726,0,0,0-.172.594h0.172V9.825a0.662,0.662,0,0,0-.043.339,0.416,0.416,0,0,1,.3.127l-0.3.042q0.021,1.1.043,2.207h0.043V12.5a0.776,0.776,0,0,0,.043-0.382l0.345-.042v0.085H38.772a0.854,0.854,0,0,1,0,.34,0.28,0.28,0,0,1,.172.042,1.261,1.261,0,0,0-.086.255c-0.18.146-.366,0.058-0.388,0.382a2.658,2.658,0,0,1,.043.976,6.352,6.352,0,0,0,.172,1.952,0.852,0.852,0,0,1,.819.3c0.092,0.129-.035.145,0.086,0.212V16.572a5.155,5.155,0,0,0,0-1.655q-0.021-2.206-.043-4.413a0.122,0.122,0,0,1-.043-0.042c-0.175,0-.1.069-0.172-0.043a0.121,0.121,0,0,0,.043-0.042,0.618,0.618,0,0,0,.172.042V8.679A1.729,1.729,0,0,1,39.591,8a8.7,8.7,0,0,0,.172,2.589H39.634Zm-0.819-.339c0.14,0.035.066-.021,0.129,0.085H38.9a0.222,0.222,0,0,1-.129.043V10.292h0.043V10.249Zm0.172,0.042a0.211,0.211,0,0,1,.129.042,0.44,0.44,0,0,1-.172.085Zm0.3,0.042v0.127H39.16V10.419H39.2V10.376H39.16V10.334h0.129Zm0.474,0.17,0.172,0.042v0.043A0.171,0.171,0,0,1,39.763,10.5ZM30.544,13.05a0.421,0.421,0,0,1,0,.382V13.05Zm-1.12,1.57H29.51v0.212H29.424V14.62Zm-20.2.085a0.846,0.846,0,0,1,0,.594V14.7Zm25.159,0.042a0.281,0.281,0,0,1,.172.043A0.281,0.281,0,0,1,34.378,14.747Zm-5.9.255a0.161,0.161,0,0,1,.043.212,0.21,0.21,0,0,1,.129.043H28.476A0.322,0.322,0,0,1,28.476,15Zm0.086,0a0.21,0.21,0,0,1,.129.043A0.21,0.21,0,0,1,28.562,15Zm5.256,0.212v0.212H33.172V15.3H33v0.34l-0.388.042v0.085a0.214,0.214,0,0,0-.043.127H32.353v0.424h0.086c0.778,0.623,2.146-.139,2.369-0.849a0.121,0.121,0,0,0,.043-0.042,0.163,0.163,0,0,1-.129-0.085A4.578,4.578,0,0,1,33.818,15.214ZM32.052,17.59v-0.17h-0.3c-0.048-.44-0.053-1.085-0.086-1.528a0.211,0.211,0,0,1-.129-0.042h0.086a0.679,0.679,0,0,1,.215-0.127v0.127h0.129a1.769,1.769,0,0,1,.474-0.467V15.341H30.673c-0.028.045-.19,0.2-0.215,0.085V17.8H30.5v0.042A10.277,10.277,0,0,1,32.052,17.59Zm2.542-2.079a0.152,0.152,0,0,1,.043.085H34.593V15.511Zm-3.231.17a0.44,0.44,0,0,1,.172.382l-0.56.212V16.148h0.086l0.388-.17A1.047,1.047,0,0,1,31.362,15.681Zm-1.12.127c-0.2.5-.266,1.031-0.431,1.57a0.87,0.87,0,0,0-.129.552,0.41,0.41,0,0,0,.258.212,1.506,1.506,0,0,0,.3-0.255A9.2,9.2,0,0,0,30.242,15.808ZM13.01,16.36a0.282,0.282,0,0,1,.172.042A0.282,0.282,0,0,1,13.01,16.36Zm-0.517.509v0.17l-0.646.043V16.954H11.675v0.339H11.33c-0.035.207,0.026,0.21-.258,0.212V17.93h0.043v0.042c0.257,0.038.515,0.175,0.732,0.212a2.141,2.141,0,0,0,1.766-1.273H13.527a0.243,0.243,0,0,0-.172,0,0.461,0.461,0,0,1-.086.212c-0.023-.186-0.018-0.192-0.215-0.212A2.5,2.5,0,0,1,12.493,16.869Zm23.393,0.467v0.17h1.077a0.633,0.633,0,0,0,.086-0.17H35.886ZM78.88,18.142a0.46,0.46,0,0,1,.258.042l-0.258.042V18.142Zm-17.835.085H61.26v0.085H61.131C61.1,18.275,61.077,18.264,61.045,18.227Zm18.137,2.589a4.935,4.935,0,0,1,.129-0.764v-1.4H79.268v0.042H79.225a6.29,6.29,0,0,0-.819,2.079A1.984,1.984,0,0,0,79.182,20.816Zm-62.9-1.825-0.086.382a1.718,1.718,0,0,1-.215.17,3.428,3.428,0,0,0-.431.043,0.214,0.214,0,0,0-.043.127,1.643,1.643,0,0,1,.043.679,2.339,2.339,0,0,0,.646.042,0.156,0.156,0,0,1,.086-0.042,5.558,5.558,0,0,0,.086-1.358Zm28.131,0.17a1.408,1.408,0,0,1,.258.085C44.454,19.252,44.424,19.273,44.416,19.161ZM3.36,19.8l-0.172.509a0.262,0.262,0,0,1,.086.085,1.648,1.648,0,0,0,.732-0.424C3.742,19.934,3.642,19.824,3.36,19.8Zm0.517,0.679V20.349a1.4,1.4,0,0,0,.474-0.17c-0.085-.063.024-0.06-0.129-0.085a2.022,2.022,0,0,0-.862.3v0.085H3.877ZM1.9,20.434a0.123,0.123,0,0,1,0,.17v-0.17Zm1.982,0.127A3.05,3.05,0,0,1,3.1,20.476a0.161,0.161,0,0,1-.086.127v0.043H3.059a2.905,2.905,0,0,1,.517.382,3.166,3.166,0,0,0,.258.806V21.792A4.012,4.012,0,0,0,3.877,20.561ZM2.714,22.64H3.1v-0.17l0.258-.043,0.086-.594a7.247,7.247,0,0,0-1.12-.849v0.127A5.2,5.2,0,0,1,2.714,22.64Zm-0.3,1.91a7.306,7.306,0,0,1-1.766.042v0.043H0.689a2.219,2.219,0,0,0,.689.382,9.416,9.416,0,0,0,1.68-.212,0.283,0.283,0,0,0,.043-0.17A1.987,1.987,0,0,0,2.412,24.55ZM3.1,25.1v-0.17H3.059V24.889a5.382,5.382,0,0,0-.948.17V25.1H3.1Zm-1.163.424a3.523,3.523,0,0,0,.086.806H2.068a0.156,0.156,0,0,1,.086-0.042V25.908C1.977,25.612,2.232,25.674,1.939,25.526Zm0.086,1.018a3.638,3.638,0,0,0,.172.891,0.33,0.33,0,0,0,.129-0.127L2.2,26.544A0.351,0.351,0,0,1,2.025,26.544ZM2.2,27.69l0.086,0.934H2.369a0.375,0.375,0,0,0,.086-0.3,1.412,1.412,0,0,1-.086-0.637A0.338,0.338,0,0,1,2.2,27.69Zm4.868,1.358,8.1-.594v-0.17l0.388-.042,0.129-.382a4.443,4.443,0,0,0-1.163-.043,8.712,8.712,0,0,0-2.025-.042c-1.582,0-3.305-.047-4.954-0.042A2.918,2.918,0,0,0,7.065,29.048Zm9.262-1.188a1.166,1.166,0,0,0-.215.552H16.2l4.739-.382V27.987h-0.9a3.518,3.518,0,0,0-1.206-.043ZM2.369,29.218H2.542L2.5,28.836H2.456c-0.081.036-.032,0.02-0.129,0v0.17A0.363,0.363,0,0,1,2.369,29.218Z" transform="translate(0 0.5)"/>
</svg>
