<svg xmlns="http://www.w3.org/2000/svg" width="39.969" height="40" viewBox="0 0 39.969 40">
  <defs>
    <style>
      .cls-1 {
        fill: #fff;
        fill-rule: evenodd;
      }
    </style>
  </defs>
  <path id="ussr_asu_85_ico" class="cls-1" d="M15.316,18.042c0.153,0.015.208-.042,0.319-0.022,0.236,0.041.478,0.147,0.729,0.18V18.154a1.6,1.6,0,0,1-.387-0.428,1.879,1.879,0,0,1,.684-0.113c0.209,0.046.438,0.151,0.661,0.2V17.592a1.435,1.435,0,0,1-.114-0.135c-0.256-.193-0.288.026-0.273-0.5,0.074-.046.2-0.078,0.273-0.135,0.2-.149,0-0.227.433-0.225a0.118,0.118,0,0,1,.068-0.022v0.045a2.041,2.041,0,0,1,0,1.08H17.641a0.427,0.427,0,0,0-.205-0.023v0.18c0.195,0,.266,0,0.456,0a1.233,1.233,0,0,0,.068.54,0.359,0.359,0,0,1,.182.022c0.148,0.176.051,0.349,0.41,0.338a2.044,2.044,0,0,1,.41-0.023,1.629,1.629,0,0,0,.319-0.113c0.09-.042.1-0.017,0.137-0.112a0.626,0.626,0,0,0,.046-0.383h0.114c0.09-.113.253-0.156,0.342-0.27a0.835,0.835,0,0,1-.16-1.08,4.085,4.085,0,0,1,.456-0.338,3.885,3.885,0,0,1,.684.023v0.09a7.344,7.344,0,0,0,0,1.508H20.558l0.023,0.158h0.251a0.64,0.64,0,0,0,.16.112,0.854,0.854,0,0,0,.684.36,2.687,2.687,0,0,0,.433.675,2.247,2.247,0,0,0,1.185.225l0.023,0.18H23.7a0.407,0.407,0,0,1,.023.135h8.524a3.563,3.563,0,0,1,.843,0c0.059-.027.111-0.113,0.16-0.135h2.575a1.216,1.216,0,0,0,.16.135H37.63a1.375,1.375,0,0,1,.433-0.068l0.023-.113h0.068v0.045a0.113,0.113,0,0,1,.023.068,9.042,9.042,0,0,1,1.755-.068l0.023,0.068a3.026,3.026,0,0,1,0,.855,2.423,2.423,0,0,1-1.094.09,1.955,1.955,0,0,0-.684-0.09l-0.023.113H38.086V20.765a0.114,0.114,0,0,1-.023-0.068,6.973,6.973,0,0,0-1.641-.045H35.943a1,1,0,0,0-.137.135H33.254a0.657,0.657,0,0,0-.137-0.135l-0.228.023c-0.185-.016-0.441-0.023-0.661-0.023h-8.5v0.113h1.914V20.81a3.117,3.117,0,0,1,.023.81c0.576,0,1.192-.013,1.732-0.023l0.023,0.2h0.023a1.739,1.739,0,0,1,.5,0c0.321-.005.636-0.005,0.934,0a6.978,6.978,0,0,1,.5,1.553,2.526,2.526,0,0,0-.752.315,1.2,1.2,0,0,1-.387,1.08c-0.259.186-.565,0.283-0.843,0.45-0.784.47-1.624,0.854-2.462,1.283a4.736,4.736,0,0,1-1.071.45,6.373,6.373,0,0,1-1.367.045H6.883A8.307,8.307,0,0,1,5.2,26.933a3.912,3.912,0,0,1-1.071-.585c-0.367-.229-0.727-0.424-1.094-0.653a2.186,2.186,0,0,0-.661-0.405c-0.053.077-.084,0.065-0.182,0.045a0.406,0.406,0,0,0-.023-0.2,0.672,0.672,0,0,0-.3-0.2,0.229,0.229,0,0,1-.182.045V24.929a0.151,0.151,0,0,1-.023-0.09,0.233,0.233,0,0,0,.091-0.113H1.732a0.765,0.765,0,0,0-.3-0.2l-0.114-.158v-0.2a0.635,0.635,0,0,0,.228-0.338,0.183,0.183,0,0,1-.16-0.18c0.058-.029.176-0.043,0.251-0.067l-0.091-.27c0.09-.017.073,0,0.091-0.09a0.465,0.465,0,0,1-.068-0.18c-0.067.013-.071,0.046-0.114-0.022a0.824,0.824,0,0,1-.137-0.428l0.068-.023A1.6,1.6,0,0,0,1.3,22.048H1.276a0.757,0.757,0,0,1-.068.383,0.4,0.4,0,0,1-.182-0.09v0.585a1.086,1.086,0,0,1-.091.383v0.022c-0.023.022-.023-0.022-0.023-0.022a3.02,3.02,0,0,1,.046-0.833,0.39,0.39,0,0,1-.046-0.338,1.515,1.515,0,0,1-.046-0.293H0.912c0.038,0.048.064,0.069,0.114,0.045a0.431,0.431,0,0,0,.068-0.09A0.4,0.4,0,0,0,1,21.733,2.8,2.8,0,0,0,.16,21.621c-0.017-.154-0.022-0.389-0.023-0.63H0.114v0.022c-0.018.043-.023-0.045-0.023-0.045,0.066-.1-0.023-0.271.046-0.315a2.691,2.691,0,0,0,.547-0.135,0.184,0.184,0,0,1-.16-0.068H0.068V20.405a0.916,0.916,0,0,1-.023-0.36c0-.265-0.053-0.992-0.023-1.058S0.1,18.915.228,18.92a1.1,1.1,0,0,0,.41.023c0.228,0,1.178-.043,1.231-0.023,0.1,0.032.131,0.1,0.228,0.135V18.987H2.165a0.342,0.342,0,0,1,.319-0.225v-0.27H5.174v0.27a0.71,0.71,0,0,0,.16,0c0.061-.1.056-0.3,0.114-0.405l0.068,0.023,0.046,0.2c0.981,0.1,2.384-.155,3.487-0.158a0.7,0.7,0,0,0,.068.113V18.515a5.115,5.115,0,0,0,.274-0.878,0.111,0.111,0,0,1-.068-0.023c0.056-.081.042-0.2,0.091-0.293a1.057,1.057,0,0,1,.228-0.2C10.276,17.087,11,17.1,11.67,17.1a10.412,10.412,0,0,1,2.325.158,5.07,5.07,0,0,1,.775.158,4.89,4.89,0,0,1,0,.518h0.046a0.735,0.735,0,0,0,.274.067,0.3,0.3,0,0,1,.091-0.27V16.714l0.046-2.273V13.405A1.061,1.061,0,0,1,15.248,13l-0.023,4.727,0.091,0.067v0.248Z" transform="translate(-0.031)"/>
</svg>
