<?xml version="1.0" encoding="utf-8"?>
<!-- Generator: Adobe Illustrator 16.0.0, SVG Export Plug-In . SVG Version: 6.00 Build 0)  -->
<!DOCTYPE svg PUBLIC "-//W3C//DTD SVG 1.1//EN" "http://www.w3.org/Graphics/SVG/1.1/DTD/svg11.dtd">
<svg version="1.1" id="Layer_1" xmlns="http://www.w3.org/2000/svg" xmlns:xlink="http://www.w3.org/1999/xlink" x="0px" y="0px"
	 width="40px" height="40px" viewBox="0 0 40 40" enable-background="new 0 0 40 40" xml:space="preserve">
<path id="ussr_isu_152_ico" fill="#FFFFFF" d="M23.113,12.6h1.852c0.294,0.022,0.59,0.022,0.883,0v-0.089h0.065v-0.086h-0.065
	v-0.238h0.086V12.6c0.148,0.032,0.301,0.046,0.452,0.043c-0.007-0.051,0.001-0.104,0.022-0.151v0.151
	c0.23,0,0.334-0.057,0.537-0.065l0.021,0.065c0.022,0.055,0.029,0.114,0.022,0.173c-0.028,0.033-0.066,0.056-0.108,0.065
	c-0.147-0.069-0.311-0.099-0.474-0.086c0.008,0.059,0,0.118-0.022,0.173v-0.176l-0.84,0.043v0.043h0.064v0.086l-0.064,0.022
	c-0.22,0.047-0.445,0.055-0.668,0.022h-1.764v0.108h0.365c0.01,0.064,0.01,0.129,0,0.194h-0.365
	c-0.005,0.175,0.018,0.35,0.064,0.518c0.021,0.07-0.035,0.046-0.043,0.065v0.432c0.088-0.001,0.176,0.014,0.26,0.043
	c0.004,0.066,0.018,0.132,0.043,0.194c0.227,0,0.472-0.007,0.668-0.022v-0.084h0.15v0.086h0.108c0.015,0.042,0.021,0.086,0.021,0.13
	c-0.016,0.026-0.023,0.056-0.021,0.086h-0.11v0.022h0.021c0.192,0.066,0.396,0.096,0.6,0.086c0.044-0.025-0.02-0.041,0.086-0.065
	v0.022h0.021v0.064c0.677,0.025,1.487,0.139,2.153,0.173c0.149,0.235,0.364,0.366,0.538,0.6c0.102,0.179,0.232,0.34,0.389,0.475
	h0.388c0.18,0.063,0.37,0.085,0.56,0.065l1.615,0.022c0.269-0.017,0.538,0.005,0.8,0.065l5.429,0.043v-0.083
	c0.41-0.02,0.821,0.002,1.228,0.065h1.659c0.084,0.03,0.17,0.052,0.258,0.065v0.95c-0.088,0.013-0.174,0.035-0.258,0.064h-1.184
	c-0.23-0.004-0.462,0.018-0.688,0.065h-1.013v-0.086l-4.717,0.022c-0.238-0.008-0.476,0-0.712,0.021l-0.021,0.043L29.445,17.5
	c0.035,0.105,0.009,0.172-0.129,0.173V17.8h0.064c0.016,0.026,0.039,0.049,0.064,0.065c-0.021,0.082-0.005,0.169,0.044,0.238
	c-0.003,0.056-0.026,0.109-0.065,0.15c0.01,0.052,0.024,0.102,0.043,0.151c-0.033,0.051-0.09,0.083-0.15,0.086v0.151
	c-0.06,0.063-0.125,0.121-0.194,0.172h-1.378v0.043h1.12c0.154,0.056,0.313,0.099,0.474,0.131c0.27,0.221,0.502,0.484,0.689,0.777
	c-0.063,0.043-0.022,0.051,0,0.131c-0.057,0.024-0.113,0.046-0.172,0.064l-0.108-0.15l-0.731,0.258l0.043,0.065
	c-0.029-0.007-0.059-0.007-0.086,0L28.95,20.2h0.022c0.016,0.034,0.048,0.058,0.086,0.065c0.074-0.068,0.162-0.12,0.258-0.151
	c0.031,0.035,0.047,0.082,0.043,0.13c-0.036,0.051-0.059,0.111-0.065,0.173c0.056,0.101,0.173,0.16,0.215,0.259
	c0.022,0.305,0,0.609-0.065,0.907h-0.02c0.001-0.023-0.006-0.046-0.021-0.065c-0.053,0.045-0.03-0.026-0.064,0.043
	c-0.043,0.074-0.072,0.154-0.086,0.238c0.073,0.02,0.066,0.008,0.086,0.086c-0.086,0.133-0.188,0.256-0.3,0.367
	c0.001-0.045-0.007-0.088-0.022-0.13h-0.022v0.022l-0.216,0.172c0.038,0.024,0.063,0.064,0.065,0.108
	c-0.122,0.112-0.26,0.208-0.409,0.281c0.02-0.044,0.012-0.095-0.021-0.13c-0.066,0.04-0.132,0.083-0.194,0.13l0.021,0.086
	l-0.087,0.022c0.021,0.054,0.003,0.115-0.043,0.15h-0.021c0.001-0.023-0.006-0.047-0.021-0.064v0.021
	c-0.053,0.076-0.117,0.142-0.193,0.194c-0.004-0.04-0.02-0.077-0.043-0.108c-0.112,0.055-0.193,0.137-0.3,0.194
	c0.022,0.04,0.036,0.084,0.043,0.13c-0.026,0.019-0.056,0.033-0.087,0.043l0.021-0.043h-0.066l-0.021,0.107
	c-0.053,0.043-0.11,0.08-0.172,0.108c0.011-0.042,0.011-0.087,0-0.13h-0.022l-0.3,0.216c0.038,0.024,0.062,0.063,0.065,0.108
	c-0.12,0.072-0.2,0.162-0.346,0.238v-0.063c0.017-0.025,0.024-0.056,0.022-0.086h-0.024l-0.322,0.237
	c0.037,0.024,0.061,0.064,0.064,0.108c-0.104,0.087-0.221,0.159-0.345,0.216V24.37c0.048-0.052,0.024-0.017,0.021-0.108h-0.041
	c-0.109,0.049-0.227,0.07-0.346,0.065v0.022c0.018,0.032,0.025,0.07,0.022,0.107c-0.052,0.002-0.103,0.009-0.151,0.021
	c0.01-0.049,0.02-0.022,0-0.064c-0.072,0.059-0.167,0.082-0.259,0.064v-0.021c0.03-0.029,0.054-0.066,0.065-0.107h-0.26
	c0.01,0.027,0.01,0.058,0,0.086c-0.174,0.056-0.357,0.07-0.537,0.043v-0.021c0.03-0.029,0.053-0.066,0.064-0.107h-0.26
	c0.021,0.032,0.021,0.074,0,0.107c-0.169,0.04-0.344,0.048-0.517,0.021v-0.043c0.039-0.018,0.069-0.048,0.087-0.086H23.65
	c0.021,0.032,0.021,0.074,0,0.107c-0.169,0.04-0.344,0.048-0.517,0.021v-0.021c0.035-0.026,0.059-0.064,0.065-0.107h-0.28v0.021
	c0.018,0.033,0.024,0.07,0.021,0.108c-0.172,0.025-0.348,0.018-0.517-0.022c0.036-0.026,0.06-0.064,0.065-0.108h-0.28v0.022
	c0.03,0.018,0.048,0.052,0.043,0.086c-0.178,0.031-0.359,0.039-0.539,0.022v-0.043c0.018-0.027,0.032-0.057,0.043-0.086H21.5v0.021
	c0.018,0.032,0.025,0.07,0.021,0.108H20.98v-0.021c0.043-0.021,0.074-0.062,0.086-0.107h-0.28v0.021
	c0.048,0.051,0.024,0.017,0.022,0.108h-0.54v-0.021c0.036-0.029,0.065-0.066,0.086-0.107h-0.3v0.021
	c0.028,0.028,0.044,0.067,0.043,0.108H19.58v-0.021c0.018-0.035,0.032-0.07,0.043-0.107h-0.258c0.021,0.032,0.021,0.074,0,0.107
	c-0.169,0.04-0.345,0.048-0.517,0.021v-0.021c0.028-0.029,0.044-0.067,0.043-0.107h-0.259v0.021c0.038,0.041,0.04,0.017,0.021,0.065
	c-0.165,0.062-0.344,0.076-0.517,0.043v-0.043c0.04-0.01,0.067-0.046,0.065-0.086h-0.258c0.021,0.032,0.021,0.074,0,0.107
	c-0.169,0.04-0.345,0.048-0.517,0.021v-0.021c0.031-0.029,0.053-0.066,0.065-0.107h-0.3v0.021c0.036,0.022,0.053,0.066,0.043,0.108
	c-0.172,0.025-0.348,0.018-0.517-0.022c0.036-0.026,0.059-0.065,0.065-0.108H16.5v0.022c0.018,0.032,0.025,0.07,0.022,0.108H16
	v-0.043c0.018-0.027,0.032-0.057,0.043-0.086h-0.254c0.021,0.032,0.021,0.074,0,0.107c-0.169,0.04-0.345,0.048-0.517,0.021v-0.021
	c0.043-0.021,0.074-0.062,0.086-0.107h-0.28v0.021c0.018,0.032,0.025,0.07,0.022,0.108h-0.539v-0.021
	c0.036-0.029,0.065-0.066,0.086-0.107h-0.3v0.021c0.018,0.032,0.025,0.07,0.022,0.108h-0.5v-0.021
	c0.016-0.035,0.03-0.071,0.043-0.107h-0.256c0.021,0.032,0.021,0.074,0,0.107c-0.169,0.04-0.345,0.048-0.517,0.021v-0.021
	c0.028-0.029,0.044-0.067,0.043-0.107h-0.258v0.021c0.018,0.032,0.026,0.07,0.022,0.108h-0.539v-0.021
	c0.042-0.021,0.074-0.062,0.086-0.107h-0.258c0.05,0.199-0.336,0.141-0.538,0.129v-0.021c0.08-0.03,0.046-0.042,0.086-0.107h-0.3
	v0.021c0.036,0.022,0.053,0.066,0.043,0.108h-0.519v-0.021c0.031-0.029,0.053-0.066,0.065-0.107h-0.28v0.021
	c0.018,0.033,0.025,0.07,0.021,0.108h-0.538v-0.021c0.031-0.029,0.053-0.066,0.065-0.107h-0.259c0.021,0.032,0.021,0.074,0,0.107
	c-0.169,0.04-0.345,0.048-0.517,0.021v-0.043c0.039-0.018,0.07-0.048,0.086-0.086H9.37c0.021,0.032,0.021,0.074,0,0.107
	c-0.169,0.04-0.345,0.048-0.517,0.021v-0.021c0.035-0.026,0.058-0.064,0.065-0.107h-0.28v0.021c0.018,0.032,0.025,0.07,0.022,0.108
	h-0.5v-0.021c0.016-0.035,0.03-0.071,0.043-0.107H7.927v0.021c0.031,0.017,0.048,0.052,0.043,0.086
	c-0.177,0.031-0.358,0.038-0.538,0.022v-0.043c0.018-0.027,0.032-0.057,0.043-0.086H7.216v0.021c0.018,0.032,0.026,0.07,0.022,0.108
	H6.7v-0.021c0.042-0.021,0.074-0.062,0.086-0.107H6.505v0.021c0.048,0.051,0.025,0.017,0.022,0.108
	c-0.181,0.002-0.362-0.02-0.538-0.065v-0.021c0.017-0.012,0.032-0.026,0.043-0.043H5.773v0.021c0.029,0.028,0.044,0.067,0.043,0.108
	c-0.139-0.002-0.277-0.023-0.409-0.065v-0.021h0.021c0.019-0.02,0.034-0.041,0.043-0.065h0.022v-0.021L5.105,24.22
	c0.018,0.042,0.018,0.089,0,0.13c-0.135-0.035-0.261-0.102-0.366-0.193c0.038-0.012,0.064-0.049,0.061-0.088
	c-0.118-0.035-0.233-0.078-0.345-0.131c0.008,0.038,0,0.077-0.022,0.108C4.396,24.039,4.36,24.023,4.33,24
	c-0.03-0.021-0.008-0.038-0.13-0.04c-0.046-0.023-0.09-0.052-0.129-0.086c0.032-0.017,0.061-0.039,0.086-0.065v-0.021
	c-0.128-0.035-0.251-0.086-0.366-0.151C3.8,23.7,3.8,23.727,3.7,23.744c-0.012-0.016-0.043-0.028-0.06-0.044
	c0.053-0.028,0.015,0.009,0.043-0.043H3.576c-0.075,0.003-0.146-0.028-0.194-0.086c0.07-0.019,0.033,0.011,0.065-0.044h0.021v-0.021
	c-0.119-0.041-0.234-0.092-0.345-0.15c0.009,0.049,0.02,0.022,0,0.064c-0.033,0.018-0.071,0.025-0.108,0.021
	C3,23.427,2.968,23.413,2.951,23.4c0.018-0.012,0.032-0.025,0.043-0.043c-0.104,0.015-0.211-0.008-0.3-0.065
	c0-0.067,0.031-0.04-0.043-0.065c-0.04,0.02-0.084,0.027-0.129,0.022c-0.025-0.052-0.055-0.103-0.088-0.149
	c-0.009,0.031-0.034,0.057-0.065,0.065c-0.127-0.04-0.245-0.106-0.345-0.194c0.07-0.018,0.033,0.012,0.065-0.043
	c0-0.017-0.009-0.032-0.022-0.043c-0.073,0.048-0.153,0.084-0.237,0.108c-0.06-0.093-0.156-0.136-0.214-0.222
	c0.053-0.027,0.015,0.01,0.043-0.043c-0.109-0.016-0.2-0.09-0.237-0.193c0.08,0,0.075,0.027,0.108-0.065
	c-0.027-0.017-0.05-0.041-0.065-0.069c-0.071,0.016-0.144,0.016-0.215,0c0,0.165-0.133,0.3-0.299,0.301
	c-0.008,0-0.016,0-0.024-0.001c-0.031-0.031-0.06-0.065-0.087-0.101l-0.086-0.367c-0.109-0.125-0.247-0.06-0.258-0.299
	c-0.065-0.176-0.115-0.357-0.151-0.541c-0.129-0.135-0.237-0.287-0.323-0.453c-0.027-0.369,0.106-0.731,0.366-0.994
	c0.459-0.459,0.99-0.839,1.572-1.127c0.265-0.119,0.495-0.305,0.668-0.539c-0.024-0.014-0.04-0.038-0.043-0.065h0.021v-0.021
	c0.026,0.018,0.055,0.033,0.086,0.043c0.277-0.201,0.524-0.441,0.732-0.713c-0.128-0.028-0.213-0.151-0.194-0.281
	c0.063-0.046,0.103-0.117,0.108-0.195c-0.052-0.135-0.2-0.287,0.043-0.346l0.151,0.021c0.029-0.013-0.02-0.046,0.086-0.064v0.021
	H3.64v0.065c0.721,0.114,1.455,0.114,2.176,0c0.218-0.024,0.438-0.002,0.646,0.065c0.621,0,1.287,0.006,1.874,0.021v0.193h0.043
	C8.462,16.998,8.551,16.989,8.638,17v-0.168c0.665,0,1.2,0.009,1.852,0c0.207-0.075,0.427-0.104,0.646-0.086
	c0.009,0,0.034,0.081,0.043,0.086H12.9c-0.004-0.123,0.003-0.246,0.022-0.367c0.084,0,0.1,0.011,0.129-0.043h-0.062v-0.13
	c-0.129-0.047-0.247-0.121-0.345-0.216h0.065c0.026,0.016,0.056,0.023,0.086,0.022c0.026-0.189,0.084-0.372,0.172-0.54v-0.649
	h-0.086v-0.173h0.086v-0.13h-0.151l-0.022-0.043c0.042-0.014,0.085-0.022,0.129-0.022v-0.085h0.367v-0.238h0.086v0.238
	c0.072-0.049,0.152-0.085,0.237-0.108c0.059,0.112,0.02,0.152,0.194,0.152c0.054,0.022,0.114,0.03,0.172,0.022
	c0.02-0.107,0.035-0.215,0.043-0.324L14.8,14.24v0.28h0.237v-0.064c0.227-0.038,0.451-0.096,0.668-0.173
	c0.018-0.033,0.025-0.071,0.022-0.108c-0.012-0.012-0.02-0.026-0.022-0.043h0.043v0.043c0.043,0.158,0.182,0.271,0.345,0.281v-0.13
	c0.121-0.024,0.244-0.032,0.366-0.022c0.024,0.057,0.046,0.114,0.065,0.173h0.065l0.021,0.108h0.043V14.5h0.172v0.086h0.3
	c0.022-0.07,0.037-0.143,0.043-0.216c0.049-0.016,0.1-0.023,0.151-0.022c0.012,0.012,0.027,0.019,0.043,0.022
	c0.012,0.069,0.011,0.155,0.022,0.194c0.078,0.019,0.158,0.027,0.237,0.022V14.5h0.172v0.086l0.3-0.022v-0.108
	c0.066-0.035,0.141-0.05,0.215-0.043c0.015,0.049,0.022,0.1,0.021,0.151h0.258V14.52c-0.21-0.239,0.383-0.206,0.582-0.194
	c0.046,0.024,0.083,0.062,0.108,0.108c-0.01,0.028-0.01,0.058,0,0.086h-0.042c-0.019-0.018-0.041-0.032-0.065-0.043V14.5
	c0.018,0.041,0.01,0.016,0,0.065h0.3v-0.13c0.075,0.002,0.146-0.029,0.194-0.086c0.122-0.067,0.164,0.034,0.172-0.151
	c0.065-0.038,0.141-0.053,0.215-0.043c0.023,0.009-0.008,0.057,0.065,0.043c0.153-0.059,0.312-0.103,0.474-0.13
	c0-0.039,0.069-0.375,0.086-0.41c0.018-0.035,0.127-0.065,0.151-0.108v-0.41c-0.012-0.047-0.043-0.086-0.086-0.108
	c-0.055-0.022-0.114-0.03-0.173-0.022c0.002,0.091-0.021,0.18-0.064,0.259c0-0.151-0.053-0.14-0.065-0.281
	c-0.15,0.011-0.316,0.043-0.517,0.043L19.9,12.9h-0.04c0.009-0.117,0.031-0.233,0.065-0.346c0.212-0.014,0.421-0.05,0.625-0.107
	V12.36h-0.173c-0.032-0.186-0.04-0.375-0.022-0.562c-0.018-0.033-0.025-0.07-0.021-0.108h0.043c0.042,0.022,0.446,0.024,0.539,0.043
	v0.583c-0.018,0.011-0.032,0.026-0.043,0.043c0.07,0.018,0.033-0.011,0.064,0.043c0.022,0.055,0.029,0.115,0.021,0.173h0.172
	c0.027-0.092,0.027-0.189,0-0.281h0.043c0.344-0.05,0.693-0.042,1.034,0.022c-0.009,0.075,0.006,0.15,0.043,0.216
	c0.033,0.018,0.071,0.025,0.108,0.021v-0.086c0.07,0.018,0.033-0.011,0.064,0.043c-0.009,0.006-0.017,0.013-0.021,0.022h0.107
	c0.18,0.062,0.371,0.084,0.561,0.065V8.883c-0.046-0.461-0.031-0.926,0.043-1.383V12.6z M20.485,13.27
	c0.023,0.024,0.023,0.062,0,0.086v-0.088V13.27z"/>
</svg>
