<?xml version="1.0" encoding="utf-8"?>
<!-- Generator: Adobe Illustrator 16.0.0, SVG Export Plug-In . SVG Version: 6.00 Build 0)  -->
<!DOCTYPE svg PUBLIC "-//W3C//DTD SVG 1.1//EN" "http://www.w3.org/Graphics/SVG/1.1/DTD/svg11.dtd">
<svg version="1.1" id="Layer_1" xmlns="http://www.w3.org/2000/svg" xmlns:xlink="http://www.w3.org/1999/xlink" x="0px" y="0px"
	 width="39.969px" height="40px" viewBox="0 0 39.969 40" enable-background="new 0 0 39.969 40" xml:space="preserve">
<path id="Color_Fill_1" fill="#FFFFFF" d="M14.631,4.5c0.027,0.027,0.045,0.062,0.051,0.1h-0.051V4.5z M14.631,5.2
	c0.033,0.043,0.051,0.096,0.051,0.151h-0.051V5.2z M14.631,5.953c0.054,0.056,0.054,0.144,0,0.2V5.953z M14.631,6.653
	c0.069,0.125,0.069,0.276,0,0.4V6.653z M14.784,12.378l0.664-0.05c0.005-0.194,0.058-0.383,0.153-0.552
	c0.745,0.103,1.497,0.136,2.248,0.1v-0.345H17.9c0.216,0.209,0.529,0.286,0.817,0.2v-0.2h0.2c0.022-0.121,0.056-0.238,0.1-0.353
	c0.099-0.033,0.202-0.05,0.306-0.05l0.051-0.5c0.292-0.078,0.148-0.221,0.306-0.4c0.295-0.254,0.688-0.364,1.073-0.3v1.352h0.216
	v0.15h0.153c0.18,0.121,0.335,0.274,0.46,0.452c0.021,0.187,0.054,0.371,0.1,0.552c0.032-0.056,0.09-0.093,0.153-0.1v0.05
	c-0.111,0.086-0.183,0.213-0.2,0.352c0.116-0.02,0.055-0.046,0.153,0c0.052,0.126,0.069,0.265,0.051,0.4
	c-0.123,0.07-0.1,0.134-0.051,0.2v0.05c0.401-0.18,0.838-0.266,1.276-0.251c-0.049-0.341,0.005-0.689,0.153-1l-0.153-0.8
	c-0.047-0.039-0.098-0.073-0.152-0.1c0.027-0.679,0.129-1.353,0.306-2.009c-0.408-0.054-0.823-0.037-1.226,0.05V8.919h0.1
	c0.428,0.144,0.885,0.178,1.328,0.1c0.101,0.427,0.135,0.868,0.1,1.306c-0.1,0.378-0.356,0.614-0.459,0.954h0.562
	c0.337-0.062,0.679-0.095,1.022-0.101v-0.151h0.152c0.352,0.174,0.525,0.579,0.409,0.954c-0.388,0.068-0.782,0.085-1.175,0.05v0.1
	c0.152,0.329,0.206,0.696,0.152,1.055c0.867,0.124,1.75,0.09,2.605-0.1l1.175-0.05c0.535-0.128,1.089-0.162,1.636-0.1
	c0.104,0.12,0.19,0.254,0.256,0.4h-0.154c0.014,0.138,0.047,0.272,0.1,0.4c0.15,0.04,0.305,0.057,0.46,0.05
	c0.714-0.054,1.433-0.054,2.146,0c0.764,0.083,1.533,0.1,2.3,0.05c0.453-0.093,0.92-0.109,1.379-0.05
	c0.138,0.005,0.274,0.022,0.409,0.05l0.1,0.2h0.974c0.113-0.048,0.236-0.066,0.358-0.05v0.399c-0.321-0.043-0.648-0.043-0.971,0
	v0.05c0.237-0.009,0.292-0.056,0.358,0.05h-0.461c-0.044-0.032-0.098-0.049-0.152-0.05v-0.05h0.051c0.1-0.039-0.1-0.05-0.1-0.05
	c-0.297,0.095-0.613,0.112-0.92,0.05c-0.63-0.089-1.271-0.056-1.89,0.101l1.326,1.162l2.963-0.05
	c0.138,0.005,0.274,0.022,0.409,0.05l0.1,0.2h0.92c0.129-0.051,0.27-0.068,0.408-0.049v0.4c-0.32-0.068-0.65-0.068-0.971,0
	c0.139-0.02,0.279-0.002,0.409,0.05c-0.931-0.126-1.872-0.159-2.81-0.1c-0.101,0.023-0.4,0.133-0.461,0.151
	c-0.389-0.05-0.782-0.067-1.175-0.05v0.1h-0.817c-0.738,0.157-1.492,0.241-2.248,0.25v0.051c0.084,0.054,0.123,0.154,0.101,0.25
	h-0.048v0.051l-1.277,0.251v0.151l2.811,0.05c0.467-0.119,0.951-0.153,1.43-0.101c0.04,0.27,0.092,0.101,0.408,0.2
	c0.101,0.03,0.285,0.177,0.359,0.2c0.459-0.023,0.919-0.023,1.379,0c0.037,0.006,0.072,0.023,0.1,0.05
	c-0.049,0.11-0.066,0.232-0.051,0.353c-0.296,0.13-0.604,0.23-0.92,0.3c0,0.233,0.113,0.5-0.1,0.552h0.1
	c0.28,0.303,0.608,0.558,0.972,0.753c0.093,0.075,0.179,0.159,0.255,0.251l-0.051,0.151h0.816c0.117,0.032,0.237,0.05,0.358,0.05
	h0.051v0.05h-0.2c0.006,0.069,0.023,0.137,0.051,0.2l0.153-0.05l0.052,0.251c0.138,0.141,0.127-0.092,0.199,0.1l-0.152,0.051
	l0.199,0.6c0.227-0.059,0.465,0.02,0.613,0.199c0.089,0.275,0.123,0.566,0.1,0.854h-0.199v0.101
	c0.078,0.083,0.131,0.188,0.152,0.299h-0.459c0.047,0.244,0.151,0.209,0.199,0.453c-0.075,0.054-0.162,0.088-0.255,0.1
	c-0.043-0.07-0.106-0.229-0.153-0.151c-0.399,0.259-0.641,0.731-1.021,1c-0.871,0.625-1.831,1.083-2.76,1.657
	c-0.625,0.491-1.311,0.902-2.039,1.223h-0.459c-1.223,0.133-2.453,0.15-3.678,0.051h-4.801c-0.699,0.194-4.462-0.002-5.462-0.002
	H8.96l-0.715-0.199c-0.971-0.471-2-0.969-2.963-1.456c-0.411-0.142-0.805-0.326-1.175-0.552c-0.05-0.268-0.249-0.482-0.511-0.553
	c0.025-0.33-0.044-0.661-0.2-0.953c0.128-0.042,0.211-0.166,0.2-0.301c-0.027-0.027-0.045-0.063-0.051-0.1
	c-0.388-0.07-0.783-0.089-1.176-0.055V22.93c0.121-0.318,0.173-0.659,0.153-1c-0.271-0.091-0.516-0.246-0.715-0.451
	c-0.061-0.189-0.167-0.361-0.307-0.5c-0.292,0.404-0.782,0.616-1.277,0.552v-0.05H0.169c-0.042-0.197-0.06-0.398-0.051-0.601
	c-0.134-0.019-0.067,0.037-0.1-0.1c0.015-0.161-0.014-0.507,0-0.854c0.287-0.18,0.56-0.38,0.817-0.6v0.1
	c-0.063,0.037-0.115,0.09-0.153,0.151c0.038,0.005,0.073,0.022,0.1,0.05c0.5-0.121,0.816,0.189,1.635,0.1
	c0.093-0.133,0.146-0.289,0.153-0.451c0.083-0.226,0.135-0.461,0.153-0.7h0.1c0.075,0.128,0.108,0.1,0.307,0.1
	c0.222-0.165,0.412-0.368,0.562-0.6H3.545v-0.4l0.613,0.101c-0.014,0.117-0.014,0.234,0,0.352c0.101-0.08,0.23-0.117,0.358-0.1
	c-0.019-0.219-0.1-0.254,0.051-0.353c0.575-0.098,1.155-0.164,1.737-0.2c1.666-0.371,3.24,0.051,4.9-0.15
	c0.629-0.076,1.647,0.225,2.146-0.1c0.038-0.061,0.055-0.131,0.051-0.201c-1.125,0-2.409-0.139-3.321-0.1
	c-0.042,0.163,0.025,0.077-0.1,0.151v-0.2L8.756,16.8c0.087-0.935,0.087-1.876,0-2.812h1.533v-0.2h0.2V13.64h-0.252v-0.05h0.051
	v-0.05l0.153,0.05c-0.038-0.044-0.064-0.057-0.1-0.1h0.1c0.092-0.073,0.148-0.183,0.153-0.3c-0.055-0.178-0.072-0.367-0.051-0.552
	c0.15-0.04,0.305-0.057,0.46-0.05c-0.012-0.103,0.006-0.207,0.051-0.3c0.077-0.13,0.153-0.106,0.358-0.1
	c0.625,0.096,1.26,0.112,1.89,0.05v0.1c0.011,0.12-0.006,0.24-0.051,0.352c0.806-0.012,0.394,0.316,0.664,0.753
	c0.046,0.064,0.121,0.101,0.2,0.1c0.057-0.1,0.03-0.091,0-0.2l-0.1,0.05v-0.05c-0.052-0.126-0.069-0.264-0.051-0.4h0.051
	c0.06,0.037,0.13,0.054,0.2,0.05c-0.048-0.142-0.115-0.276-0.2-0.4h0.1c0.128,0.095,0.307,0.073,0.409-0.05
	c0.043-0.215,0.06-0.434,0.051-0.653c0.12-1.084,0.137-2.177,0.051-3.264c-0.058-0.401-0.041-0.81,0.051-1.205
	c0,1.679,0.092,3.409,0.107,4.963V12.378z M19.433,11.173h0.255c0.025-0.041,0.06-0.075,0.1-0.1
	c-0.074-0.139-0.179-0.259-0.306-0.351v0.1c-0.049,0.112-0.066,0.235-0.049,0.356V11.173z M19.893,11.123
	c-0.021,0.114-0.047,0.054,0,0.151c0.095,0.095,0.241,0.115,0.358,0.05c-0.132-0.038-0.255-0.104-0.359-0.195L19.893,11.123z
	 M19.178,11.523V11.28c0.166-0.042,0.078,0.025,0.153-0.1h-0.2c-0.07,0.083-0.106,0.191-0.1,0.3
	c0.042,0.031,0.093,0.049,0.146,0.051L19.178,11.523z M19.433,11.223c0.027,0.026,0.062,0.044,0.1,0.05
	c-0.028-0.024-0.063-0.04-0.1-0.044V11.223z M19.633,11.323c-0.107,0.124-0.145,0.294-0.1,0.452c0.207,0.055,0.377,0.203,0.46,0.4
	h0.051c0.026-0.338,0.245-0.632,0.562-0.753c-0.181-0.036-0.126-0.062-0.306-0.1c-0.063,0.156-0.019,0.113-0.2,0.151
	c-0.134-0.097-0.297-0.148-0.463-0.143L19.633,11.323z M15.802,11.823c0.021,0.127-0.03,0.079,0.153,0.1v-0.05h0.051v-0.05h-0.2
	H15.802z M23.669,12.323v0.8h0.358v-0.9h-0.049c-0.071,0.095-0.193,0.139-0.31,0.111V12.323z M23.311,12.323v0.753
	c0.082,0.03,0.168,0.047,0.256,0.05v-0.8h-0.252L23.311,12.323z M23.158,12.976c-0.001,0.055,0.018,0.108,0.051,0.151
	c0-0.05-0.018-0.1-0.047-0.14L23.158,12.976z M11.511,13.528c0.093,0.063,0.214,0.063,0.307,0h-0.304H11.511z M12.277,13.528
	c0.088,0.044,0.065,0.045,0.153,0h-0.149H12.277z M12.532,13.528c0.088,0.044,0.065,0.045,0.153,0h-0.149H12.532z M12.992,13.528
	c0.027,0.027,0.062,0.044,0.1,0.05c-0.027-0.022-0.061-0.036-0.096-0.039L12.992,13.528z M29.952,13.928v0.1h0.051
	c-0.007-0.033-0.022-0.063-0.047-0.087L29.952,13.928z M30.207,13.928v0.1c0.851,0.08,1.707,0.063,2.554-0.05
	c-0.848,0.099-1.704,0.086-2.549-0.037L30.207,13.928z M34.549,13.978c0.559,0.088,1.127,0.088,1.686,0h-1.68H34.549z
	 M10.386,14.078v0.1h0.051v-0.05h0.051c-0.028-0.021-0.062-0.033-0.097-0.036L10.386,14.078z M30.927,15.6
	c1.296-0.044,2.179,0,3.78,0v-0.05c-0.818-0.488-0.748-1.111-2.146-1.1c-0.295,0.1-0.608,0.134-0.918,0.1v0.05
	c0.268,0.366-0.774,0.44-1.125,0.5v0.151c0.063,0.075,0.114,0.159,0.151,0.249c0.027-0.027,0.045-0.062,0.051-0.1
	c0.04-0.06,0.062-0.242,0.101-0.3v0.05C30.917,15.278,30.956,15.441,30.927,15.6z M30.669,14.644
	c-0.112,0.048-0.236,0.065-0.358,0.05v0.1h0.101c0.142-0.087,0.425-0.059,0.562-0.151L30.669,14.644L30.669,14.644z M30.924,15.744
	c0.075,0.058,0.18,0.058,0.256,0h-0.253H30.924z M31.945,15.744c0.028,0.026,0.063,0.044,0.101,0.05
	c-0.027-0.024-0.062-0.04-0.097-0.045L31.945,15.744z M32.252,15.744v0.1h0.051v-0.1h-0.048H32.252z M32.452,15.744
	c-0.027,0.026-0.063,0.044-0.101,0.05v0.05h2.2V15.8c-0.696,0.075-1.4,0.058-2.093-0.051L32.452,15.744z M36.59,15.794
	c0.541,0.088,1.094,0.088,1.635,0h-1.627H36.59z M31.328,16.648c-0.148,0.053-0.303,0.086-0.46,0.1V16.8h0.2
	c0.142-0.087,0.425-0.059,0.562-0.151h-0.294H31.328z M0.828,19.159c0.104,0.001,0.208-0.016,0.307-0.05v0.1
	c-0.105,0.021-0.208,0.055-0.307,0.1v-0.145V19.159z M1.237,19.259h0.1v0.05c-0.034-0.006-0.065-0.021-0.091-0.045L1.237,19.259z
	 M1.337,19.309h0.1v0.051c-0.033-0.006-0.064-0.021-0.089-0.045L1.337,19.309z M0.826,19.46h0.1v0.05
	c-0.033-0.006-0.064-0.021-0.089-0.045L0.826,19.46z M1.026,19.66c-0.017,0.07,0.073,0.072,0.1,0.1
	c0.054-0.047-0.07-0.078-0.084-0.094L1.026,19.66z M0.276,21.273c0.225,0,0.449-0.033,0.664-0.101v-0.05
	c-0.281,0.031-0.563-0.061-0.771-0.252v0.2c0.048,0.088,0.011,0,0,0.1C0.307,21.191,0.24,21.135,0.276,21.273z M1.809,20.973
	c-0.001,0.055,0.017,0.108,0.051,0.151c0.112,0.314,0.386,0.544,0.715,0.601v-0.25c0.058-0.162,0.058-0.339,0-0.5H1.808
	L1.809,20.973z M39.05,21.626v0.101C39.132,21.665,39.111,21.7,39.05,21.626L39.05,21.626z M30.008,24.639
	c-0.316,0-0.5,0.014-0.715,0v0.101c0.3,0.464-0.447,1.37-0.613,1.606h1.941v-0.05C30.17,25.869,29.943,25.256,30.008,24.639
	L30.008,24.639z M34.607,24.639v0.5h0.101c0.116-0.113,0.255-0.199,0.409-0.25v-0.051c-0.123,0.007-0.232-0.078-0.256-0.199
	c-0.085,0.015-0.172,0.015-0.256-0.001L34.607,24.639z M7.175,24.839H5.997v0.101h0.1c0.348,0.254,0.75,0.425,1.175,0.5v-0.101
	c-0.079-0.154-0.115-0.327-0.103-0.501L7.175,24.839z M24.8,25.492c-0.153,0.306-0.342,0.592-0.562,0.854h1.121v-0.05
	c-0.229-0.237-0.419-0.509-0.563-0.805L24.8,25.492z M11.671,25.542c-0.122,0.294-0.295,0.565-0.511,0.8h1.073v-0.05
	c-0.215-0.229-0.404-0.479-0.564-0.75H11.671z M16.064,25.542c-0.117,0.297-0.291,0.569-0.511,0.8h1.073v-0.05
	c-0.216-0.228-0.405-0.479-0.565-0.75H16.064z M20.406,25.643c-0.105,0.262-0.262,0.499-0.46,0.699h0.971v-0.05
	c-0.224-0.168-0.298-0.479-0.514-0.649H20.406z"/>
</svg>
