<svg xmlns="http://www.w3.org/2000/svg" width="40" height="40" viewBox="0 0 40 40">
  <defs>
    <style>
      .cls-1 {
        fill: #fff;
        fill-rule: evenodd;
      }
    </style>
  </defs>
  <path id="ussr_su_57_ico" class="cls-1" d="M17.563,13.069v1.1c3.157,0,6.493.06,9.778,0.063V14.8H23.356V14.83a2.193,2.193,0,0,0,.276.409,0.833,0.833,0,0,1,.092-0.189v0.031h0.031a5.684,5.684,0,0,1,.766,1.572,0.789,0.789,0,0,0,.4.409c0.111-.066.125,0.02,0.215,0.063L25.1,16.937h0.061c0.093-.06.279,0.024,0.4-0.031a2.7,2.7,0,0,1,.95-0.094,0.932,0.932,0,0,1,.031.283,0.348,0.348,0,0,0-.031.189h0.061a0.581,0.581,0,0,1,.49-0.031c0.076,0.022.148,0.1,0.215,0.126l1.012,0.094c0.335,0.08.766,0.086,1.1,0.157,0.18,0.038.17-.094,0.337-0.063a4.189,4.189,0,0,1,.46.063l0.031,0.094,0.552,0.031c0.516,0.121,1.138.106,1.655,0.22a0.9,0.9,0,0,0,.306-0.063,3.814,3.814,0,0,1,.491.063l0.031,0.094a1.346,1.346,0,0,0,.46.031c0.1,0.2.237,0.386,0.337,0.6a0.1,0.1,0,0,0,.061-0.031,0.737,0.737,0,0,0,.061-0.22,0.781,0.781,0,0,1-.215-0.157,0.109,0.109,0,0,1,.031-0.063l0.031-.094c0.172-.022.263-0.083,0.46-0.094v0.126h0.092v0.189H34.483v0.126h0.184a2.666,2.666,0,0,1-.031,1.006h0.306l0.031-.094a5.261,5.261,0,0,0,.061-1.509h0.215c0.016,0.961.122,1.625-.46,2.013a0.913,0.913,0,0,0,.46.44V20.4H35.188a0.088,0.088,0,0,0-.123,0,2.579,2.579,0,0,0,.613.629l-0.031.094a6.894,6.894,0,0,0,.858.063V20.994h0.061c0.013,0.113-.014.079,0.061,0.126a1.105,1.105,0,0,1,1.41-1.069,1.192,1.192,0,0,1,.736.755,0.516,0.516,0,0,1,.429-0.094,0.462,0.462,0,0,1-.031.157h0.184v0.094h0.123a0.245,0.245,0,0,0,.031-0.314,1.057,1.057,0,0,0-.276-0.031,0.115,0.115,0,0,1-.031-0.063,0.558,0.558,0,0,0,.123-0.094,1.049,1.049,0,0,1,.306.063c0.085,0.018.266-.021,0.368,0v1.667c-0.021.032-.039,0.126-0.061,0.157a1.062,1.062,0,0,1-1.1.5V22.6H37.088c-0.184.058-.408,0.206-0.582,0.283a1.928,1.928,0,0,0-.337.094c-0.12.082-.084,0.368-0.368,0.157a0.748,0.748,0,0,0,.153-0.315H35.862a1.228,1.228,0,0,1-.429.126v0.094H35.341a4.24,4.24,0,0,1-.031,1.793,3.086,3.086,0,0,1-3.647,2.044,3,3,0,0,1-2.054-1.855c-0.095-.231-0.106-0.794-0.215-0.975a1.63,1.63,0,0,1-.644.032,0.09,0.09,0,0,1-.031.031V24.2c-0.678.005-1.451,0.03-2.176,0.031a0.154,0.154,0,0,0-.031-0.094,2.547,2.547,0,0,0-.95-0.032,1.176,1.176,0,0,0-.674-0.6,4.034,4.034,0,0,1-1.073.032v0.283a2.435,2.435,0,0,1-1.011,0V23.541l-0.644-.032v0.126H21.732V23.509H20.383V23.384H20.322v0.094H20.107V23.384a2.4,2.4,0,0,1-.8-0.22V23.2H19.28a0.289,0.289,0,0,1,.061.283H19.249L19.28,23.7a0.248,0.248,0,0,1-.184.094,0.633,0.633,0,0,1-.031.314,0.225,0.225,0,0,0-.153,0c0.018,0.2-.074.241-0.245,0.252a0.222,0.222,0,0,1-.061.22,0.28,0.28,0,0,0-.184,0c0.012,0.071.028,0.034,0,.094l-0.061.094c-0.074-.036-0.053-0.064-0.123-0.031H18.207c0.016,0.107.027,0.135-.123,0.157a0.154,0.154,0,0,0-.092-0.032v0.157a0.116,0.116,0,0,0-.092.063c-0.074-.036-0.053-0.064-0.123-0.032a0.466,0.466,0,0,0-.031.126,0.459,0.459,0,0,1-.123.063s-0.04-.091-0.061-0.063v0.031a0.239,0.239,0,0,1-.123.157,0.542,0.542,0,0,0-.123,0c-0.046.076,0.038,0.075-.061,0.126a0.119,0.119,0,0,1-.092.063s-0.04-.091-0.061-0.063v0.031a1.79,1.79,0,0,0-.092.189l-0.184-.031v0.063c0.038,0.049.02,0.016,0,.063-0.023.027-.039,0.035-0.061,0.063l-0.153-.031v0.126a1.018,1.018,0,0,1-.245.063c0.016,0.107.027,0.135-.123,0.157a0.155,0.155,0,0,0-.092-0.032,0.191,0.191,0,0,1,0,.126,0.439,0.439,0,0,1-.245.063c0.012,0.071.028,0.034,0,.094a0.335,0.335,0,0,1-.184.063H15.694c0,0.091.03,0.044,0,.094a0.7,0.7,0,0,1-.276.031c-0.032.018-.095,0.274-0.215,0.157a0.186,0.186,0,0,0-.123-0.063c-0.033.123-.035,0.121-0.184,0.126v0.031c-0.031.031-.03-0.031-0.031-0.031a0.186,0.186,0,0,0-.123-0.063v0.094c-0.205-.009-0.117-0.062-0.184-0.094-0.092-.045-0.094.175-0.245,0.094a0.28,0.28,0,0,0-.092-0.094c-0.04.106-.047,0.091-0.184,0.094V26.78H13.946v0.094c-0.206-.009-0.117-0.062-0.184-0.094-0.092-.045-0.093.175-0.245,0.094a0.28,0.28,0,0,0-.092-0.094c-0.04.106-.047,0.091-0.184,0.094V26.78H13.149v0.094c-0.205-.009-0.117-0.062-0.184-0.094-0.092-.045-0.093.175-0.245,0.094a0.28,0.28,0,0,0-.092-0.094c-0.04.106-.047,0.091-0.184,0.094V26.78H12.353v0.094H12.169c-0.025-.1.015-0.048-0.061-0.094-0.146.24-.157-0.022-0.276,0-0.063.082-.035,0.088-0.184,0.094V26.78H11.556v0.094H11.372c-0.025-.1.015-0.048-0.061-0.094-0.146.24-.157-0.022-0.276,0-0.063.082-.035,0.088-0.184,0.094V26.78H10.759v0.094H10.575V26.78H10.483v0.094A0.206,0.206,0,0,1,10.3,26.78c-0.1-.029-0.056.078-0.092,0.094a0.257,0.257,0,0,1-.245-0.094v0.094H9.778V26.78H9.686v0.094C9.48,26.865,9.569,26.812,9.5,26.78c-0.092-.045-0.093.175-0.245,0.094a0.28,0.28,0,0,0-.092-0.094c-0.04.106-.047,0.091-0.184,0.094V26.78H8.889v0.094C8.683,26.865,8.772,26.812,8.7,26.78c-0.092-.045-0.093.175-0.245,0.094a0.28,0.28,0,0,0-.092-0.094c-0.04.106-.047,0.091-0.184,0.094V26.78H8.092v0.094a0.18,0.18,0,0,1-.184-0.094c-0.1-.036-0.087.169-0.245,0.094L7.632,26.78a1.271,1.271,0,0,1-.307.031V26.717a0.288,0.288,0,0,1-.184.031,0.2,0.2,0,0,1-.153-0.189c-0.1.027-.083,0.061-0.153,0.032C6.7,26.54,6.749,26.515,6.713,26.4a0.456,0.456,0,0,1-.123.063,0.552,0.552,0,0,1-.092-0.22c-0.118.051-.205,0.089-0.215-0.126a0.2,0.2,0,0,1-.153,0,0.15,0.15,0,0,1-.061-0.157,0.2,0.2,0,0,1-.153,0l-0.092-.031c0-.123.069-0.082-0.061-0.126a0.154,0.154,0,0,1-.092.032,0.676,0.676,0,0,1-.061-0.189c-0.075.019-.091,0.074-0.123,0.031a2.056,2.056,0,0,0-.153-0.189,0.163,0.163,0,0,1-.184-0.032c0.011-.093.061-0.065-0.031-0.126A0.2,0.2,0,0,1,5,25.365a1.159,1.159,0,0,1-.061-0.189c-0.075.019-.091,0.074-0.123,0.031a0.179,0.179,0,0,1-.092-0.189,0.322,0.322,0,0,1-.184.031l-0.061-.189a0.454,0.454,0,0,1-.123.063,0.552,0.552,0,0,1-.092-0.22c-0.074.036-.053,0.064-0.123,0.031L4.046,24.7c0-.16-0.033-0.124-0.184-0.126a0.5,0.5,0,0,1-.031-0.157,0.177,0.177,0,0,1-.123,0c-0.128-.092-0.042-0.177-0.153-0.252-0.09.023-.081-0.023-0.153-0.094a0.426,0.426,0,0,1,.061-0.126,0.475,0.475,0,0,1-.215-0.157,0.244,0.244,0,0,0,.031-0.157,0.193,0.193,0,0,1-.123-0.22,0.127,0.127,0,0,0,.061-0.126H3.126L3.1,23.069c-0.415,0-.805-0.052-1.134-0.063,0-.119.03-0.086-0.123-0.094a0.742,0.742,0,0,1-.613.755l-0.031-.6A0.747,0.747,0,0,1,1.1,21.717a0.11,0.11,0,0,0-.061-0.031,2.36,2.36,0,0,0-.981-0.094C0.023,21.2,0,20.658,0,20.176a0.366,0.366,0,0,1,.307-0.094,5.732,5.732,0,0,1,.981-0.252V19.8H0.031C0.032,18.626,0,17.438,0,16.308H0.889V16.245a1.27,1.27,0,0,1,0-.535,3.407,3.407,0,0,1,.858-0.063,0.109,0.109,0,0,0,.061.031,0.744,0.744,0,0,1,.031.346H1.992a1.726,1.726,0,0,0,.031-0.472,1.968,1.968,0,0,1,0-.723H2.176V14.453h0.4v0.094a3.089,3.089,0,0,0,.858-0.031V14.484c-0.1-.026-0.047.015-0.092-0.063l0.4,0.031a1.08,1.08,0,0,1,.368-0.063c0.141,0.03.326,0.119,0.46,0.157H8.7c0.53,0,1.134-.019,1.533-0.031l0.674-.063c0.1,0.031.232,0.113,0.337,0.157a0.109,0.109,0,0,1-.031.063A0.333,0.333,0,0,1,11,14.83h1.349l-0.031-.189H12.046V14.8H11.985V14.642a0.149,0.149,0,0,1,.061-0.22v0.094a0.709,0.709,0,0,0,.245-0.031V14.453a2.312,2.312,0,0,0-.306-0.063V14.3c0.182-.007.186-0.053,0.368-0.063,0.04-.078-0.013-0.021.061-0.063V13.887h0.368V13.73h0.184v-0.44h0.184V13.226A4.916,4.916,0,0,1,12.628,12h0.031a0.459,0.459,0,0,0,.031.157,6.589,6.589,0,0,1,1.533.315c0.67,0.187,1.322.192,1.992,0.377A3.876,3.876,0,0,0,17.563,13.069Zm-4.414.818h0.215a0.453,0.453,0,0,0,.031-0.126,1.717,1.717,0,0,1-.215-0.44H13.149v0.566Z" transform="translate(0 0.516)"/>
</svg>
