<?xml version="1.0" encoding="utf-8"?>
<!-- Generator: Adobe Illustrator 16.0.0, SVG Export Plug-In . SVG Version: 6.00 Build 0)  -->
<!DOCTYPE svg PUBLIC "-//W3C//DTD SVG 1.1//EN" "http://www.w3.org/Graphics/SVG/1.1/DTD/svg11.dtd">
<svg version="1.1" id="Layer_1" xmlns="http://www.w3.org/2000/svg" xmlns:xlink="http://www.w3.org/1999/xlink" x="0px" y="0px"
	 width="39.969px" height="40px" viewBox="0 0 39.969 40" enable-background="new 0 0 39.969 40" xml:space="preserve">
<path id="Color_Fill_1" fill="#FFFFFF" d="M18.22,13.477h0.255v0.249h0.146c0-0.108-0.011-0.215-0.036-0.32h0.437
	c0.081-0.035,0.168-0.047,0.255-0.036v0.32c0.194,0.024,0.39,0.024,0.583,0v-0.355c0.233,0.015,0.467-0.009,0.692-0.071v0.352
	c0.153,0.068,0.3,0.151,0.437,0.249c0.18,0.048,0.363,0.083,0.548,0.106c0.114,0.012,0.229-0.013,0.327-0.071
	c0.378,0.15,0.941,0.113,1.312,0.284c0.044,0.055,0.08,0.114,0.109,0.178c0.118,0.055,0.239,0.102,0.364,0.142
	c0.127,0.114,0.261,0.221,0.399,0.32h0.511c0.377-0.013,0.756,0.011,1.129,0.071c0.031,0.043,0.056,0.091,0.072,0.142
	c0.027,0.042,0.041,0.092,0.037,0.142l14.172,0.145v0.532l-14.171,0.142l-0.037,0.213c-0.337,0.129-0.694,0.201-1.056,0.213h-0.364
	c-0.167,0.117-0.315,0.262-0.437,0.426c-0.275,0.188-0.585,0.321-0.911,0.392v-0.106h-0.183v0.639
	c-0.146-0.02-0.295-0.008-0.437,0.037c0.2,0.008,0.271,0,0.51,0c0.017,0.096,0.042,0.191,0.073,0.283h0.037v-0.035
	c0.081-0.127,0.154-0.257,0.219-0.392l0.328-0.071c0.026,0.08,0.039,0.165,0.037,0.25c0.043,0.125,0.055,0.259,0.035,0.391
	c0.236-0.082,0.48-0.13,0.729-0.143l0.326,0.178v0.07c0,0,0.729,0.063,0.765,0.071c0.147,0.191,0.258,0.407,0.328,0.639h0.219
	v-0.036c-0.088-0.115-0.149-0.249-0.182-0.391h0.109c0.174,0.17,0.309,0.375,0.4,0.6c0.358,0.007,0.715,0.066,1.055,0.178h-0.035
	v0.035c-0.169-0.026-0.34-0.038-0.51-0.035v0.179h-0.073c-0.229-0.036-0.463-0.036-0.692,0v0.035h0.073
	c0.263,0.06,0.533,0.071,0.8,0.034c0.744-0.068,1.494-0.02,2.223,0.143c0.324,0.366,0.662,0.7,0.983,1.066
	c0.159,0.115,0.306,0.246,0.437,0.391c-0.349,0.084-0.666,0.27-0.91,0.533c-0.092-0.076-0.209-0.113-0.328-0.107
	c-0.172,0.158-0.253,0.725-0.438,0.994c-0.045,0.022-0.095,0.035-0.146,0.036c-0.146,0.117-0.28,0.248-0.399,0.392
	c-0.119,0.053-0.24,0.101-0.365,0.141c-0.171,0.113-0.33,0.245-0.474,0.392l-0.036,0.106h-0.145c-0.15,0.113-0.285,0.244-0.4,0.392
	l-0.255,0.071c-0.129,0.076-0.271,0.189-0.399,0.283l-0.183,0.25c-0.1,0.063-0.2,0.045-0.291,0.106
	c-0.101,0.115-0.21,0.222-0.327,0.32h-0.222c-0.078,0.024-0.187,0.118-0.255,0.142c-0.239,0.083-0.309,0-0.51,0.071
	c-0.027,0.009-0.119,0.101-0.146,0.106c-0.056-0.004-0.108-0.029-0.146-0.07c-0.185-0.021-0.372,0.003-0.545,0.07
	c-0.116,0.022-0.101-0.056-0.146-0.07c-0.281-0.041-0.568-0.017-0.838,0.07c-0.068,0.006-0.136-0.02-0.182-0.07
	c-0.186-0.023-0.374,0.001-0.547,0.07c-0.129,0.028-0.107-0.055-0.146-0.07c-0.293-0.047-0.593-0.022-0.874,0.07
	c-0.068,0.006-0.136-0.02-0.183-0.07c-0.257-0.072-0.529,0.135-0.691,0.07c-0.269-0.096-0.557-0.121-0.838-0.07v0.07h-0.145
	c-0.173-0.072-0.362-0.097-0.547-0.07c-0.041,0.059-0.112,0.086-0.182,0.07c-0.27-0.088-0.557-0.111-0.838-0.07
	c-0.194,0.023-0.39,0.023-0.583,0l-0.328,0.07V25.41c-0.293-0.046-0.592-0.021-0.874,0.07c-0.068,0.006-0.136-0.02-0.182-0.07
	c-0.185-0.023-0.373,0.002-0.546,0.07c-0.129,0.028-0.107-0.055-0.146-0.07h-0.837l-0.036,0.07c-0.216-0.043-0.436-0.066-0.656-0.07
	c-0.046,0.05-0.113,0.076-0.182,0.07c-0.271-0.086-0.557-0.111-0.838-0.07c-0.049,0.016-0.028,0.086-0.146,0.07
	c-0.031-0.016-0.057-0.04-0.073-0.07c-0.185-0.027-0.374-0.004-0.546,0.07c-0.325-0.057-0.654-0.08-0.984-0.07l-0.037,0.035
	c-0.023,0.009,0,0.039-0.073,0.035c-0.199-0.066-0.41-0.092-0.619-0.07c-0.044,0.014-0.014,0.072-0.109,0.07H9.623
	c-0.27-0.092-0.557-0.116-0.838-0.07l-0.036,0.07c-0.068,0.006-0.134-0.021-0.18-0.07c-0.185-0.023-0.373,0.002-0.546,0.07H7.874
	c-0.269-0.096-0.557-0.121-0.838-0.07c-0.218,0.094-0.37-0.087-0.692,0c-0.391,0.001-0.781-0.035-1.166-0.107
	c-0.181-0.041-0.354-0.113-0.51-0.213H4.377l-0.036-0.105c-0.269-0.102-0.551-0.161-0.838-0.178
	c-0.125-0.064-0.247-0.136-0.364-0.214l-0.4-0.034c-0.041-0.019-0.095-0.119-0.146-0.143c-0.189-0.073-0.384-0.133-0.583-0.178
	H1.754c-0.112-0.061-0.251-0.217-0.364-0.284C1.3,23.9,1.2,23.939,1.099,23.883l-0.474-0.746c-0.258-0.021-0.489-0.168-0.62-0.391
	c-0.069-0.416,0.008-0.842,0.219-1.207c0.196-0.167,0.357-0.371,0.474-0.6c-0.104-0.102-0.202-0.21-0.292-0.323
	c-0.073,0.012-0.147,0.012-0.219,0H0.26c0.317-0.261,1.381-0.369,1.384-0.853h0.037c0.091-0.037,0.177-0.087,0.255-0.147
	c-0.034-0.039-0.048-0.092-0.036-0.142h0.036c0.207-0.238,0.439-0.452,0.692-0.64c0.287-0.077,0.579-0.138,0.874-0.178l0.182-0.214
	l0.255-0.178v-0.949c0.02-0.02,0.032-0.045,0.036-0.071h1.094c0.23-0.023,0.462-0.023,0.692,0c0.774-0.091,1.556-0.103,2.332-0.036
	c0-0.107,0.011-0.215,0.036-0.32c0.401-0.134,0.832-0.146,1.24-0.037c0.042,0.113,0.067,0.232,0.073,0.354h1.712
	c0.186-0.069,0.386-0.094,0.583-0.071c0.505,0.086,1.019,0.109,1.53,0.071V17.17c-0.65-0.183-1.331-0.23-2-0.143
	c-0.151-0.143-0.29-0.278-0.437-0.426l0.139-1.03h-0.035v-0.035l-0.255-0.036v-0.106l0.328,0.036
	c0.024-0.069,0.036-0.141,0.036-0.213h0.036v-0.037l-0.11,0.035v-0.035h0.037c0.037-0.079,0.062-0.163,0.073-0.249
	c-0.098-0.194-0.183-0.395-0.255-0.6c0.059-0.036,0.108-0.086,0.145-0.145c-0.041-0.021-0.068-0.062-0.073-0.107
	c0.242-0.09,0.072-0.111,0.182-0.249c0.05-0.062,0.2-0.051,0.255-0.107c0.021-0.061,0.045-0.12,0.073-0.177
	c0.554-0.379,1.227-0.543,1.894-0.462c0.4,0.1,0.6,0.4,0.947,0.5l0.073-0.639c0.638-0.424,1.041-0.05,1.931-0.213v-0.038
	c-0.039-0.102-0.052-0.212-0.037-0.32l0.692-0.036v0.32c0.211,0.023,0.391,0.116,0.692,0.178c0.071,0.166,0.109,0.742,0.182,0.852
	v-0.141c0.106-0.038,0.216-0.062,0.328-0.071c-0.005-1.619,0.036-3.367,0.036-5.043c-0.062-0.639-0.048-1.283,0.04-1.918
	C18.182,8.828,18.216,11.222,18.22,13.477z M8.239,16.922v0.284h0.109c0-0.096,0.012-0.191,0.036-0.284H8.239z M9.076,17.206v-0.249
	c-0.18-0.037-0.363-0.049-0.546-0.035c-0.027,0.092-0.04,0.188-0.036,0.284H8.53C8.708,17.156,8.897,17.156,9.076,17.206z
	 M9.185,16.922c-0.005,0.096,0.007,0.192,0.036,0.284h0.074v-0.249L9.185,16.922z M0.769,21.184c-0.461,0.393-0.67,1.006-0.546,1.6
	c0.097,0.105,0.224,0.18,0.364,0.213v-0.037c-0.1-0.091-0.035-0.1-0.036-0.213c-0.048-0.52,0.124-1.035,0.474-1.421
	C0.955,21.254,0.866,21.205,0.769,21.184z M27.947,22.816c-0.275,0.145-0.521,0.336-0.729,0.567
	c0.044,0.026,0.095,0.038,0.146,0.035c0.26-0.15,0.483-0.355,0.656-0.601h-0.072V22.816z M4.596,23.456
	c0.002,0.088,0.027,0.174,0.073,0.249h0.072v-0.071c-0.038-0.053-0.063-0.114-0.072-0.178H4.596z M7.073,23.456v0.071h0.073v-0.071
	H7.069H7.073z M15.925,23.456c0.021,0.019,0.046,0.031,0.073,0.035C15.978,23.473,15.952,23.46,15.925,23.456z M16.763,24.841
	c0.001-0.088,0.026-0.174,0.073-0.249c0.026-0.182,0.181-0.317,0.364-0.32c0.048,0.076,0.136,0.111,0.182,0.179l0.146,0.391h0.874
	V24.77c-0.461-0.275-0.741-0.776-0.733-1.313H16.69c-0.165,0.522-0.452,0.997-0.838,1.385H16.763z M20.77,23.456
	c0.02,0.019,0.045,0.031,0.072,0.035C20.822,23.473,20.797,23.46,20.77,23.456z M21.716,23.456c-0.036,0.552-0.333,1.053-0.8,1.349
	v0.035h0.8c-0.01-0.282,0.194-0.527,0.474-0.568c0.039,0.063,0.109,0.09,0.146,0.143l0.146,0.426h0.586v-0.033
	c-0.286-0.18-0.515-0.439-0.655-0.746c-0.06-0.205-0.132-0.406-0.22-0.601h-0.476L21.716,23.456z M22.882,23.456
	c0.021,0.019,0.046,0.031,0.073,0.035C22.936,23.473,22.91,23.46,22.882,23.456L22.882,23.456z M3.938,23.563
	c-0.146,0.076-0.28,0.172-0.4,0.285c0.041,0.021,0.068,0.061,0.073,0.106h0.037v-0.038c0.126-0.09,0.227-0.212,0.292-0.354H3.938z
	 M12.538,23.598c-0.076,0.255-0.213,0.486-0.4,0.676c0.408,0.09,0.252,0.459,0.4,0.567h0.765V24.77
	c-0.277-0.18-0.493-0.439-0.619-0.746C12.659,23.875,12.609,23.73,12.538,23.598L12.538,23.598z M26.309,23.598v0.071h0.035
	C26.34,23.643,26.328,23.617,26.309,23.598z M7.401,23.634c-0.039,0.034-0.075,0.069-0.109,0.107h0.036
	C7.392,23.666,7.4,23.688,7.401,23.634z M11.518,23.634c-0.031,0.054-0.1,0.026-0.037,0.071c0.032,0.022,0.07,0.035,0.109,0.035
	c0.028-0.024,0.081-0.047,0.109-0.071h-0.036v-0.035H11.518L11.518,23.634z M15.671,23.634c0.043,0.06,0.109,0.099,0.182,0.107
	v-0.036c-0.059-0.03-0.121-0.054-0.184-0.071H15.671z M23.139,23.634c-0.032,0.029-0.068,0.054-0.109,0.071v0.035h0.109
	c0.019-0.029,0.044-0.054,0.073-0.071C23.191,23.65,23.166,23.638,23.139,23.634L23.139,23.634z M9.733,23.67v0.105h0.145v-0.106
	L9.733,23.67L9.733,23.67z M14.033,23.67c0.03,0.115-0.018,0.055,0.073,0.105v-0.07L14.033,23.67z M24.816,23.67l-0.037,0.105h0.074
	c-0.001-0.039-0.015-0.076-0.039-0.106L24.816,23.67z M5.834,23.816c-0.039,0.1-0.077,0.121,0.035,0.1h0.038
	C5.888,23.879,5.863,23.846,5.834,23.816z M26.6,23.816c-0.232,0.131-0.432,0.313-0.584,0.533h0.073
	c0.223-0.132,0.409-0.314,0.546-0.533H26.6z M8.311,23.887c-0.223,0.313-0.493,0.588-0.8,0.817c0.025,0.026,0.048,0.079,0.073,0.106
	c0.166,0.047,0.339,0.06,0.51,0.035c0.028-0.16,0.166-0.279,0.328-0.283c0.033,0.029,0.069,0.053,0.109,0.07
	c0.045-0.063,0.07-0.139,0.072-0.217c-0.055-0.198-0.154-0.381-0.292-0.534V23.887z M15.488,23.887
	c0.045,0.064,0.109,0.113,0.182,0.143v-0.076L15.488,23.887z M18.73,23.887v0.029c-0.023,0.036-0.079,0.007-0.036,0.035
	c0.069,0.056,0.075,0.066,0.146,0.035c0.028-0.004,0.053-0.016,0.073-0.035c-0.059-0.029-0.12-0.053-0.183-0.069V23.887z
	 M20.552,23.887c-0.032,0.029-0.069,0.053-0.109,0.071v0.035h0.036c0.057,0.044,0.019,0.022,0.073,0
	c0.05-0.004,0.1-0.016,0.146-0.035c-0.049-0.025-0.098-0.051-0.146-0.076V23.887z M23.357,23.887
	c-0.047,0.029-0.096,0.053-0.146,0.071v0.071h0.036c0.069-0.065,0.159-0.067,0.11-0.147V23.887z M13.776,23.923
	c-0.012,0.05,0.052,0.052,0.073,0.071c0.025-0.043-0.063-0.064-0.073-0.078V23.923z M6.818,23.958
	c-0.051,0.073-0.077,0.16-0.073,0.249c0.054,0.039,0.116,0.063,0.182,0.07c0.095,0.011,0.182-0.01,0.182-0.213
	c-0.021-0.02-0.036-0.047-0.04-0.076H7.036v-0.035H6.818V23.958z M11.08,23.958c-0.018,0.04-0.043,0.075-0.073,0.106
	c-0.003,0.076,0.04,0.147,0.109,0.179v0.036c0.037,0.035,0.036-0.035,0.036-0.036c0.048-0.046,0.075-0.111,0.073-0.179
	c-0.043-0.043-0.092-0.081-0.145-0.111V23.958z M2.92,24.029c-0.1,0.062-0.3,0.041-0.4,0.106l0.4,0.107l0.149-0.183
	c-0.044-0.027-0.097-0.041-0.149-0.037V24.029z M4.92,24.064l0.036,0.178c0.063,0.016,0.125,0.039,0.182,0.07
	c-0.057-0.096-0.13-0.181-0.215-0.252L4.92,24.064z M6.269,24.238c-0.02,0.02-0.045,0.031-0.073,0.035v0.035h0.185v-0.035h0.036
	v-0.035H6.269z M14.976,24.238c0.022,0.039,0.063,0.066,0.109,0.07v-0.035L14.976,24.238z M19.238,24.238v0.07h0.221v-0.07H19.24
	H19.238z M19.894,24.238c0.01,0.093,0,0.07,0.182,0.07v-0.035h0.036v-0.035h-0.216H19.894z M23.829,24.238v0.07h0.04v-0.035h0.035
	c-0.02-0.02-0.045-0.031-0.073-0.035H23.829z M3.683,24.273v0.213h0.038v0.035c0.266,0.115,0.549,0.187,0.838,0.213h0.037v-0.035
	c-0.071-0.047-0.085-0.135-0.146-0.178c-0.088-0.062-0.581-0.178-0.765-0.248H3.683z M7.035,25.091v0.071
	c0.316,0.059,0.643,0.033,0.947-0.071H7.546C7.377,25.119,7.205,25.119,7.035,25.091L7.035,25.091z M8.747,25.091
	c0.293,0.101,0.606,0.124,0.911,0.071v-0.037c-0.302-0.029-0.606-0.041-0.909-0.035L8.747,25.091z M11.047,25.091
	c-0.031,0.022-0.115,0.048-0.146,0.071c0.185,0.045,0.379,0.02,0.546-0.071H11.047z M12.213,25.091
	c0.305,0.102,0.63,0.126,0.947,0.071v-0.037h0.036V25.09h-0.659c-0.107,0.032-0.221,0.032-0.328,0L12.213,25.091z M15.674,25.091
	c0.305,0.102,0.63,0.126,0.947,0.071v-0.037h0.037V25.09h-0.769c-0.069,0.035-0.151,0.035-0.22,0L15.674,25.091z M17.532,25.091
	c-0.028,0.024-0.081,0.048-0.109,0.071c0.317,0.059,0.643,0.033,0.947-0.071h-0.842H17.532z M20.883,25.091v0.071
	c0.315,0.046,0.637,0.034,0.947-0.036c-0.28-0.019-0.623-0.036-0.95-0.036L20.883,25.091z M22.596,25.091
	c0.305,0.102,0.629,0.126,0.946,0.071v-0.037h0.037V25.09h-0.076c-0.302,0.037-0.608,0.037-0.911,0L22.596,25.091z"/>
</svg>
