<svg xmlns="http://www.w3.org/2000/svg" width="80" height="40" viewBox="0 0 80 40">
  <defs>
    <style>
      .cls-1 {
        fill: #fff;
        fill-rule: evenodd;
      }
    </style>
  </defs>
  <path id="ussr_od_200_ico" class="cls-1" d="M47.273,4h0.165q0.041,1.8.083,3.608a0.587,0.587,0,0,0,.165.041,0.42,0.42,0,0,0,.207-0.123c-0.081-.1-0.055-0.067-0.041-0.205a0.117,0.117,0,0,0,.041-0.041,0.117,0.117,0,0,1,.041.041,0.328,0.328,0,0,1,0,.287,0.348,0.348,0,0,1,.207.041H48.058a1.131,1.131,0,0,1-.5.041q0.021,1.189.041,2.378h0.041a1.056,1.056,0,0,1,.579-0.205,5.274,5.274,0,0,0,.289.82H47.769V10.643a0.681,0.681,0,0,0,.207-0.656H47.893a1.307,1.307,0,0,1-.248.123,1.451,1.451,0,0,1,0,.615q0.021,1.168.041,2.337a10.25,10.25,0,0,1,.083,1.968v0.7a10.251,10.251,0,0,1,.083,1.968v0.7a6.731,6.731,0,0,1,.248,1.558l5.826-.164v0.451a2.6,2.6,0,0,1,.537.041c0.118,0.25.327,0.479,0.455,0.7a13.391,13.391,0,0,1,.578,1.6,4.782,4.782,0,0,1,.5,1.148,0.789,0.789,0,0,1,.248.164v-0.41a2.6,2.6,0,0,1-.041-0.984H55.992V22.124h0.289A0.2,0.2,0,0,1,56.322,22v0.123c0.4-.027.9-0.041,1.364-0.041,0.018-.181-0.035-0.169.124-0.205a1.519,1.519,0,0,1-.041.451,0.212,0.212,0,0,1-.124.041,3.1,3.1,0,0,1-.083,1.517h0.455a2.781,2.781,0,0,1,1.033-.041c-0.006-.209,0-0.3,0-0.574h0.413V22.083h0.124v1.148h0.041a0.572,0.572,0,0,1,.454.041,3.14,3.14,0,0,1,.992-0.041c0.63,0,1.044-.047,1.653-0.041a3.014,3.014,0,0,1,.083-1.312,6.651,6.651,0,0,0,.124,1.394,1.538,1.538,0,0,1,.041.492h0.5a1.01,1.01,0,0,1,.455-0.041V23.56h0.165v-0.2h0.165v0.2h0.207v-0.2h0.165v0.2h0.207v0.164c0.354,0,.689-0.027.992-0.041V21.96h0.083v1.722l0.331-.041V23.519l0.083-.041a1.247,1.247,0,0,1,.744-0.2c-0.017.273,0.5,0.177,0.95,0.164a1.319,1.319,0,0,0,.7.041V23.6a0.143,0.143,0,0,1,.083.041,0.142,0.142,0,0,0,.083-0.041,7.026,7.026,0,0,0,.041-1.722h0.083v1.64H69.05a1.676,1.676,0,0,1,.785-0.246,1.565,1.565,0,0,0,1.033.123,1.188,1.188,0,0,0,.661.041V23.56h0.083a0.657,0.657,0,0,0,.331.041V21.8h0.083v1.8h0.413V23.478A0.714,0.714,0,0,0,72.81,23.4a0.357,0.357,0,0,1-.124-0.164c0.17-.068.176-0.166,0.165-0.41a0.289,0.289,0,0,1-.124-0.328h0.124V22.37h0.124a0.2,0.2,0,0,1,.041-0.123V22.37h0.165v0.123h0.124v0.246c-0.168.084-.176,0.15-0.165,0.41a0.18,0.18,0,0,1,.124.123,7.553,7.553,0,0,1,1.488.123V23.232a5.8,5.8,0,0,1,0-1.681,0.582,0.582,0,0,0,.041.2h0.124a12.965,12.965,0,0,0,.413,1.6l1.9-.041,0.041-.123,0.248-.041v0.164h0.62v0.123H77.727v0.041H77.686V23.6c0.8,0,1.471-.078,2.314-0.082v0.41H79.793a5.134,5.134,0,0,1-.7,1.353c-0.2.316-.3,0.627-0.5,0.943-0.437.708-.932,1.424-1.322,2.173,0.161,0,.186-0.02.248,0.082a0.764,0.764,0,0,0-.124.2,0.581,0.581,0,0,0-.331.082,3.023,3.023,0,0,0-.372.615c-0.382.6-.77,1.259-1.2,1.845A9,9,0,0,1,72.355,33.4c-4.282,1.792-11.12,1.113-16.942,1.107L21.2,34.016c-0.268-.6-1.158-2.165-1.942-1.886V32.007a7.761,7.761,0,0,0-1.777.246c-0.99.23-1.985,0.139-2.975,0.369-0.748.173-1.557,0.144-2.355,0.328a7.377,7.377,0,0,1-1.446.205v0.2l-2.769.369a7.066,7.066,0,0,1,.083,1.23A0.761,0.761,0,0,1,7.769,35a2.075,2.075,0,0,0-.248-0.328,3.788,3.788,0,0,1,.124-0.9,0.92,0.92,0,0,1-.5-0.287,0.741,0.741,0,0,0,.083-0.943H7.273a0.412,0.412,0,0,0,.207.123,1.194,1.194,0,0,1,.207-0.492l0.124,0.9,1.364-.205V32.581a2.771,2.771,0,0,1-.207-1.107l-4.174.041c0.02,0.944.119,1.88,0.124,2.87l-2.479.082a7.6,7.6,0,0,0-.248-1.722c-0.094-.4-0.039-0.794-0.165-1.148a6.563,6.563,0,0,1-1.653.082V26.43H0A1.252,1.252,0,0,0,0,25.9H0.372A3.348,3.348,0,0,0,.207,24.79a1.773,1.773,0,0,0,.165-0.369A2.47,2.47,0,0,1,.207,23.6a1.1,1.1,0,0,1,.248-0.246l-0.041-.246a0.354,0.354,0,0,1,.124-0.123l-0.413-4.51H0.083v0.041c-0.032.079-.041-0.082-0.041-0.082a0.838,0.838,0,0,0,.289-0.041v0.082A6.543,6.543,0,0,0,.372,19.91c0.116,0.43.047,1.006,0.165,1.435v0.369a7.444,7.444,0,0,0,.5.779,5.566,5.566,0,0,0,.537.984,5.29,5.29,0,0,1,1.322-.246,0.842,0.842,0,0,1,0-.246H2.934V22.944a0.255,0.255,0,0,0,.165.082,2.454,2.454,0,0,0,.207,1.066A4.064,4.064,0,0,1,4.3,23.929c0.754-.192,1.638-0.256,2.4-0.451a2.136,2.136,0,0,0,1.074-.246,6.049,6.049,0,0,0,.165-1.394H8.017v0.287a3.013,3.013,0,0,0-.165,1.189H7.893a1.532,1.532,0,0,1,.7-0.123c-0.025-.409-0.153-0.71-0.165-1.148H8.471V22H8.554a0.842,0.842,0,0,1,.083.2,2.139,2.139,0,0,1,.165.9H9.05a0.875,0.875,0,0,1,.041.287,0.755,0.755,0,0,1,.041.369,1.338,1.338,0,0,0-.289.287c-0.062-.068-0.03-0.042-0.083-0.041a8.98,8.98,0,0,0-1.157.9H7.645a2.676,2.676,0,0,0,.992.041l2.521-.082V24.79a1.813,1.813,0,0,0,.207-0.615H11.322a0.451,0.451,0,0,1-.248.041V24.175h0.041a1.887,1.887,0,0,1,.289-0.082,1.441,1.441,0,0,1,.413-0.984V23.97a0.733,0.733,0,0,1,.165.082H11.9a1.718,1.718,0,0,0-.083.82h0.289a9.478,9.478,0,0,1,.083-1.927,1.424,1.424,0,0,1,.785-0.328V22.7a5.367,5.367,0,0,0-.289,2.132c1.114,0.016,1.444-.04,2.479-0.082V23.97l-1.942-.7V22.944h0.661a5.386,5.386,0,0,1,.083-1.6,3.469,3.469,0,0,1,.041-1.189,0.77,0.77,0,0,1,.372-0.041,0.2,0.2,0,0,1,.041-0.123,0.887,0.887,0,0,1,.413-0.041v0.041h0.041c0.008,0.148-.061.085,0.083,0.123A2.837,2.837,0,0,0,15,19.664a2.1,2.1,0,0,1,.5-0.205,0.856,0.856,0,0,1,.372-0.779,4.318,4.318,0,0,0,1.281.738,1.081,1.081,0,0,1,.083-0.246,0.566,0.566,0,0,0,.5,0,8.247,8.247,0,0,1,.331-0.984,0.337,0.337,0,0,1-.248-0.164c0.162,0.046.427-.022,0.62,0.041a0.737,0.737,0,0,0-.124.2,3.3,3.3,0,0,1,.289.738c0.141,0.142.209-.037,0.248,0.246,0.008,0.135-.018.573,0,0.861H18.678v0.164a6.5,6.5,0,0,0,1.694.041,4.184,4.184,0,0,0,1.446.123,40.175,40.175,0,0,0,4.463-.082V20.73a6.857,6.857,0,0,1-.868-0.082l-0.5.041a16.113,16.113,0,0,0-3.017,0,2.935,2.935,0,0,0-1.529.123H20.331v0.041h0.537a0.14,0.14,0,0,0,.041.082,0.87,0.87,0,0,1-.083.205,2.518,2.518,0,0,0-.992,0,4.7,4.7,0,0,1-1.157-.041,0.561,0.561,0,0,1-.124.287c0.161,0,.186-0.02.248,0.082H18.76v0.041c0.161,0,.186-0.02.248,0.082a0.645,0.645,0,0,0-.331.041,6.979,6.979,0,0,0,.413.615,2.7,2.7,0,0,0,.331.123v0.123a2.8,2.8,0,0,1,.5-0.082v0.082a0.251,0.251,0,0,0-.083.082c0.166-.005.226-0.022,0.289,0.082a0.54,0.54,0,0,1,.041.287h0.372V22.575H20.95a0.648,0.648,0,0,1,.083-0.246c0.026,0.287.223,0.266,0.537,0.246,0,0.586,0,1.1,0,1.763h0.083a0.212,0.212,0,0,1,.124-0.041,1.565,1.565,0,0,0,1.033.123c0.151,0.1.48-.054,0.661,0.041,0.013,0.007.07,0.158,0.083,0.164a0.426,0.426,0,0,0,.331-0.082,16.15,16.15,0,0,0,.041-1.681H24.05v0.574l3.43-.082a1.412,1.412,0,0,1,.083-0.738c0.015,0.225.041,0.465,0.041,0.738l3.471-.082v0.369h0.083V22.7a0.147,0.147,0,0,0,.041-0.082c-0.155-.006-0.145.019-0.207-0.082a3.038,3.038,0,0,1,.7.082c-0.024-1.542.271-2.086,1.694-2.173v0.082a3.424,3.424,0,0,0-.207.984,6.533,6.533,0,0,1-.165.9l-0.207.082V23.56a0.274,0.274,0,0,1,.041.164c0.134,0.034.063-.02,0.124,0.082H32.851v0.328h0.083a0.443,0.443,0,0,1,.454-0.123c0,0.111-.055.066,0.083,0.123a3.334,3.334,0,0,0,1.157.082,4.281,4.281,0,0,1,.537-1.64,0.347,0.347,0,0,1-.207-0.041h0.083a0.17,0.17,0,0,1,.207-0.082l0.165,0.041v0.041a0.468,0.468,0,0,0-.207,0,3.69,3.69,0,0,1,.041,1.025,0.268,0.268,0,0,1,.165.041H35.248v0.738h0.124c0.223-1.152.447-2.458,0.7-3.649a2.713,2.713,0,0,1,1.033-.082,3.264,3.264,0,0,0,.909-0.123H36.86V18.475h0.124a2.241,2.241,0,0,1,.207-0.984A0.445,0.445,0,0,1,36.9,17c0.1-.093.2-0.192,0.289-0.287,0.3-.009.519,0.007,0.537,0.205a1.014,1.014,0,0,1,.124.451,0.383,0.383,0,0,0-.124.328,1.1,1.1,0,0,0,.537.533,0.829,0.829,0,0,1,.413-0.123,4.46,4.46,0,0,0,.537.205V17.778h0.537v0.574a0.2,0.2,0,0,1,.124.041,0.319,0.319,0,0,0,.124.123,1.979,1.979,0,0,0,1.033-.041,0.352,0.352,0,0,1-.207-0.164h0.289V18.229c0.073-.018.219,0.078,0.372,0.082a1.215,1.215,0,0,1,.041-0.533l0.041,0.574-0.455.123v0.082h1.24a3.656,3.656,0,0,1,.372-0.328,1.881,1.881,0,0,0,0,.328,1.639,1.639,0,0,0,.331.041c0.091-.3.108-0.445,0.5-0.451,0.164,0.148.3,0.065,0.331,0.287a1,1,0,0,0,.041.492,0.652,0.652,0,0,1-.207.041,0.7,0.7,0,0,0,.248.656,0.608,0.608,0,0,0,.579-0.123c0.1-.165-0.02-0.574.083-0.738A8.611,8.611,0,0,1,46.405,17.7l0.331,2.255a3.19,3.19,0,0,0,.661,0,2.989,2.989,0,0,0-.083-1.312h0.124a16.626,16.626,0,0,0,.041-2.542,10.379,10.379,0,0,0-.041-1.886v-0.9a15.446,15.446,0,0,0-.083-2.665,4.657,4.657,0,0,1-.661-0.533c-0.571-.421-1.092-0.9-1.653-1.312a2.689,2.689,0,0,1-.909-0.738A0.626,0.626,0,0,1,44.3,7.978a3.594,3.594,0,0,0,.744.574c0.491,0.36.945,0.78,1.446,1.148a2.164,2.164,0,0,0,.909.656q-0.021-1.168-.041-2.337H47.314s-0.054.118-.083,0.082V8.06c-0.117-.1-0.007-0.159-0.248-0.205V8.06H46.86c-0.051-1.032-.08-2.626-0.083-3.936H46.9q0.021,0.984.041,1.968h0.372Q47.293,5.046,47.273,4ZM46.942,6.214c0.011,0.473.04,1.028,0.041,1.558h0.124a0.441,0.441,0,0,0,.248-0.328,2.6,2.6,0,0,1-.041-0.984H47.19V6.378h0.124V6.214H46.942Zm-0.331,1.6h0.083V7.855A0.142,0.142,0,0,1,46.612,7.813ZM40.165,19.131H40l0.041-.164a2.056,2.056,0,0,0-.289-0.123v0.123H39.215V18.8H39.132a0.835,0.835,0,0,1-.207,0v0.082l-0.331.082v0.082h0.041a2.507,2.507,0,0,0,.785.328L39.5,19.541h0.455a0.487,0.487,0,0,1,.207-0.082V19.131Zm0.62-.082c0,0.432.014,0.9,0.041,1.271a0.962,0.962,0,0,0-.248.2,2.51,2.51,0,0,1,.083,1.107q0.021,1.251.041,2.5h0.083a2.015,2.015,0,0,0,.785.041,5.993,5.993,0,0,1,.083-1.845,16.529,16.529,0,0,1,.041,1.722,4.1,4.1,0,0,1,.62-0.205c0.07-.554.552-0.775,0.62-1.271-0.149-.171-0.076-0.321-0.413-0.328a0.449,0.449,0,0,1-.289-0.041V22.042a4.985,4.985,0,0,0-.165-1.8,2.656,2.656,0,0,1,.207-1.066,0.367,0.367,0,0,1-.124-0.123,0.44,0.44,0,0,1-.207.082V19.09a0.7,0.7,0,0,0,.083-0.246H41.116a4.166,4.166,0,0,1-.785,0v0.041A0.57,0.57,0,0,0,40.785,19.049Zm10.661,0.9v0.328A12.578,12.578,0,0,0,53.8,20.2V20.074c-0.027-.035-0.055-0.129-0.083-0.164a0.657,0.657,0,0,0-.331-0.041A10.609,10.609,0,0,1,51.446,19.951Zm-2.4.369H50.5a0.252,0.252,0,0,1,.083-0.082c-0.082-.259-0.062-0.3-0.578-0.287a2.4,2.4,0,0,1-.909.041A1.023,1.023,0,0,0,49.05,20.32Zm-0.95-.287v0.328h0.826a1.017,1.017,0,0,0,.041-0.328,2.4,2.4,0,0,0-.661-0.041A0.361,0.361,0,0,1,48.1,20.033Zm-0.7.328V20.033a0.763,0.763,0,0,0-.661.123,0.5,0.5,0,0,0,.124.246A1.062,1.062,0,0,1,47.4,20.361Zm3.347-.164a0.2,0.2,0,0,0,.041.123,1.648,1.648,0,0,0,.578-0.123h-0.62ZM14.256,21.345a1.856,1.856,0,0,0,1.612,1.6,0.4,0.4,0,0,0-.083-0.246,0.851,0.851,0,0,1-.661-0.615,1.477,1.477,0,0,1,.083-0.615,0.448,0.448,0,0,0-.083-0.205A2.093,2.093,0,0,1,14.256,21.345Zm-0.289,1.6h0.992V22.862a2.3,2.3,0,0,1-.7-0.82,1.388,1.388,0,0,0-.289-0.574v1.476ZM0.7,23.6a1.508,1.508,0,0,0,.62-0.123,0.208,0.208,0,0,0,.041-0.123,5.671,5.671,0,0,1-.7-1.189H0.579v0.082A5.026,5.026,0,0,1,.7,23.6Zm43.471-1.189c-0.148.357-.507,1.1-0.248,1.353a1.072,1.072,0,0,0,.331.123,0.141,0.141,0,0,1-.041.082,0.319,0.319,0,0,0-.124.123,1.455,1.455,0,0,0,.248.082,0.149,0.149,0,0,1,.083-0.041,0.717,0.717,0,0,1,.083-0.205,5.926,5.926,0,0,1-.041-1.517H44.38v0.041c-0.032.049-.05,0.2-0.083,0.246a0.43,0.43,0,0,0-.041-0.246A0.149,0.149,0,0,0,44.174,22.411Zm-9.38.123c0.134,0.034.063-.02,0.124,0.082H34.711a0.116,0.116,0,0,1-.041.041V22.575A0.2,0.2,0,0,0,34.793,22.534Zm-0.248.041h0.083v0.082H34.38a0.451,0.451,0,0,1-.248.041V22.616A0.8,0.8,0,0,0,34.546,22.575Zm-0.992.082h0.083C33.587,22.723,33.619,22.708,33.554,22.657Zm0.124,0h0.248v0.082H33.678V22.657Zm0.289,0a0.2,0.2,0,0,1,.124.041A0.2,0.2,0,0,1,33.967,22.657Zm-1.116.041a0.2,0.2,0,0,1,.124.041A0.2,0.2,0,0,1,32.851,22.7Zm0.165,0H33.1v0.041A0.142,0.142,0,0,1,33.017,22.7Zm0.124,0a0.2,0.2,0,0,1,.124.041A0.2,0.2,0,0,1,33.141,22.7Zm0.165,0a0.439,0.439,0,0,1,.248.041A0.439,0.439,0,0,1,33.306,22.7Zm-24.421.164L9.008,22.9v0.041H8.884V22.862ZM9.05,22.9c0.046,0.068.073,0.044,0,.082V22.9Zm2.727,0,0.248,0.082v0.041H11.86a0.28,0.28,0,0,1-.289,0h0.083A1.468,1.468,0,0,0,11.777,22.9Zm-2.6.041,0.248,0.082v0.041H9.339C9.264,23.01,9.173,23.084,9.174,22.944Zm0.289,0.082a0.283,0.283,0,0,1,.248.123H9.628A0.355,0.355,0,0,1,9.463,23.027Zm1.942,0a0.525,0.525,0,0,1,.165.041v0.041H11.488a0.737,0.737,0,0,0-.289.041V23.068A0.35,0.35,0,0,0,11.405,23.027Zm-1.653.082c0.134,0.034.063-.02,0.124,0.082H9.835C9.8,23.155,9.783,23.144,9.752,23.109Zm0.165,0h0.207v0.082H9.917V23.109Zm0.868,0h0.207v0.082C10.887,23.164,10.86,23.224,10.785,23.109Zm0.248,0a0.2,0.2,0,0,1,.124.041A0.2,0.2,0,0,1,11.033,23.109Zm-0.868.041a0.348,0.348,0,0,1,.207.041A0.349,0.349,0,0,1,10.165,23.15Zm0.248,0a0.645,0.645,0,0,1,.331.041A0.647,0.647,0,0,1,10.413,23.15Zm9.876,1.517h0.248V23.314H20.455c-0.032.028-.092,0.054-0.124,0.082A3.467,3.467,0,0,0,20.289,24.667ZM2.851,23.519c-0.3.186-.865,0.047-1.157,0.246a1.2,1.2,0,0,0,.413.533,3.072,3.072,0,0,0,.95-0.246,1.776,1.776,0,0,1-.124-0.533H2.851Zm32.19,0.7c0.034,0.133-.02.063,0.083,0.123V23.6H35.041a0.419,0.419,0,0,1-.207.041,1.92,1.92,0,0,1-.165.574h0.372ZM34.5,23.642c0.134,0.034.063-.02,0.124,0.082H34.339a0.359,0.359,0,0,1-.207.041V23.683A0.675,0.675,0,0,0,34.5,23.642Zm-1.488.082H33.1v0.082H33.017V23.724Zm0.413,0h0.207v0.082H33.6V23.765a0.318,0.318,0,0,1-.289,0A0.2,0.2,0,0,0,33.43,23.724Zm0.248,0h0.248v0.082H33.678V23.724Zm0.289,0a0.2,0.2,0,0,1,.124.041A0.2,0.2,0,0,1,33.967,23.724Zm-33.223.164L0.785,24.5a2.248,2.248,0,0,0,1.074-.246A0.76,0.76,0,0,0,1.4,23.765,1.512,1.512,0,0,1,.744,23.888Zm32.4-.123a0.2,0.2,0,0,1,.124.041A0.2,0.2,0,0,1,33.141,23.765Zm-14.422.9,0.413,0.041V23.847a2.235,2.235,0,0,0-.413.123v0.7Zm-9.793-.7H9.091v0.082H9.008C8.978,24.016,8.956,24.005,8.926,23.97Zm0.207,0.041a0.147,0.147,0,0,1,.041.082H9.132V24.011Zm0.083,0.041c0.134,0.034.063-.02,0.124,0.082A0.157,0.157,0,0,1,9.215,24.052ZM9.38,24.093l0.207,0.041v0.082H9.545C9.44,24.119,9.428,24.208,9.38,24.093Zm0.248,0.041a0.536,0.536,0,0,1,.331.123H9.876A0.337,0.337,0,0,1,9.628,24.134Zm1.24,0.041H10.95v0.082H10.7V24.216A0.269,0.269,0,0,0,10.868,24.175Zm0.124,0a0.147,0.147,0,0,1,.041.082H10.992V24.175ZM10,24.216a0.2,0.2,0,0,1,.124.041A0.2,0.2,0,0,1,10,24.216Zm0.165,0H10.5V24.3H10.165V24.216Zm0.372,0a0.2,0.2,0,0,1,.124.041H10.62a0.149,0.149,0,0,1-.083.041V24.216Zm-5.62.82a1.579,1.579,0,0,1,.041-0.369H5V24.626H5.124V24.462a8.284,8.284,0,0,0-2.025.369,2.185,2.185,0,0,0-.744.123,0.148,0.148,0,0,1,.041.082A23.9,23.9,0,0,0,4.917,25.036Zm4.959,6.438a4.421,4.421,0,0,0,.248,1.23,0.211,0.211,0,0,0,.124.041,1.443,1.443,0,0,1,.372-0.082v0.164a8.08,8.08,0,0,0,1.777-.246c0.789-.184,1.605-0.153,2.355-0.328,0.886-.206,1.858-0.081,2.686-0.369V31.843H17.273a13.271,13.271,0,0,0-1.9-.123c-0.371-.079-0.819.008-1.24-0.082-0.625-.134-1.469.063-2.149-0.082A11.6,11.6,0,0,0,9.876,31.474Z" transform="translate(0 0.5)"/>
</svg>
