<svg xmlns="http://www.w3.org/2000/svg" width="80" height="40" viewBox="0 0 80 40">
  <defs>
    <style>
      .cls-1 {
        fill: #fff;
        fill-rule: evenodd;
      }
    </style>
  </defs>
  <path id="ussr_pr_191_ico" class="cls-1" d="M29.2,7h0.165V8.981a5.083,5.083,0,0,0,1.44.083V9.1H29.45V9.187a2.092,2.092,0,0,0-.082.949A1.394,1.394,0,0,0,29.7,10.1a0.2,0.2,0,0,1,.041-0.124v0.041a1.009,1.009,0,0,1,.123.124,0.148,0.148,0,0,0-.041.082,4.675,4.675,0,0,0-.453.289,0.579,0.579,0,0,1,0,.206h0.123L29.45,11.87c0.1,0.016.065-.024,0.082,0.124a0.731,0.731,0,0,1,.082.289s-0.069.142-.082,0.165H29.45q-0.021.619-.041,1.238a0.849,0.849,0,0,0,.206.083,0.559,0.559,0,0,1,.123-0.124,1.017,1.017,0,0,1,.123.124,0.148,0.148,0,0,0-.041.082c-0.086.051-.217,0.1-0.247,0.124h0.041c0.041,0.042-.041.041-0.041,0.041-0.073.05-.072,0-0.123,0.041,0.013,0.2-.041.916-0.041,1.321v4.168h0.37c-0.088,1.665-.082,3.469-0.082,5.406,0,0.48-.148,1.63.165,1.816v-4h0.37v2.1h0.082c0.046-.229.273-0.183,0.535-0.165v0.041H30.4V24.87h0.082a0.653,0.653,0,0,0,.452,0,0.267,0.267,0,0,1,.041-0.165V24.87a0.531,0.531,0,0,0,.576-0.083H31.506V24.746A0.863,0.863,0,0,1,31.1,24.7h0.453a0.389,0.389,0,0,0,.288.33,1.951,1.951,0,0,0,.041-0.206h0.041v0.206h0.165A12.6,12.6,0,0,0,32,21.94a0.3,0.3,0,0,0,.329-0.083H32.37V21.816H32.206l0.041-.248a0.2,0.2,0,0,0,.123-0.041A4.207,4.207,0,0,0,32.946,20a1.388,1.388,0,0,0,.288-0.124,0.211,0.211,0,0,1,.041.124,6,6,0,0,0,2.139-.165S35.666,19.991,35.7,20h0.782a3.069,3.069,0,0,0,.329.991h1.4a1.114,1.114,0,0,0,.494.041,0.2,0.2,0,0,1,.041-0.124v0.124c0.151,0,.336-0.061.37-0.041a0.358,0.358,0,0,1,.041.206H39.075c-0.063-.029-0.005-0.005-0.123,0-0.016-.108.03-0.054-0.082-0.082a0.21,0.21,0,0,1-.123.041,0.2,0.2,0,0,1-.041.124V21.156H38.129c0.016,0.121.067,0.052-.041,0.124a3.244,3.244,0,0,1-1.193.041v0.041a0.607,0.607,0,0,1,.288.413c-0.032.028-.092,0.054-0.123,0.082a0.15,0.15,0,0,1,.041.083h1.522V21.816h1.069a0.586,0.586,0,0,0,.082.124H41.46v0.083H41.337v0.7h0.041a0.3,0.3,0,0,1,.288-0.124,0.347,0.347,0,0,1,.082.124,0.4,0.4,0,0,1-.082.248,1.076,1.076,0,0,0,.247.083l0.123,0.578a1.232,1.232,0,0,1-.658-0.041l-0.041.825a1.588,1.588,0,0,1,.288,1.981,1.26,1.26,0,0,1-.288.206,0.452,0.452,0,0,1,0,.206l1.44,0.041v-0.66H41.954V26.108a7.278,7.278,0,0,0,.535-1.94,0.52,0.52,0,0,0-.164.041V24.086a1.536,1.536,0,0,0,.7-0.371,1.058,1.058,0,0,1-.288-0.413,0.18,0.18,0,0,0,.123-0.124,2.468,2.468,0,0,0,1.152.165,0.651,0.651,0,0,0,.041-0.206L44.5,23.1v0.041c-0.118.046-.076,0.007-0.123,0.124a1.638,1.638,0,0,1,.658.165A5.708,5.708,0,0,1,45.82,23.3a4.09,4.09,0,0,0,.658.371,0.117,0.117,0,0,1,.041-0.041,0.824,0.824,0,0,1,.123-0.413,0.354,0.354,0,0,1,.206-0.041l0.041,0.454h0.041v0.041a1.621,1.621,0,0,1,.782.165c-0.1.06-.046-0.009-0.082,0.124,0.248,0.166.543,0.18,0.781,0.33,0.091,0.057.162,0.249,0.247,0.289h0.9a0.118,0.118,0,0,0,.041.041v0.124l8.1,0.124V25.2l-3.907.082v0.041a0.76,0.76,0,0,1,.329.206,1.751,1.751,0,0,1,.37.908c-0.082,0-.012-0.042-0.082,0a0.28,0.28,0,0,1,.041.165c-0.082,0-.012-0.042-0.082,0a0.149,0.149,0,0,1,.041.082,1.347,1.347,0,0,0,.411.041,0.21,0.21,0,0,0,.123.041v0.619l-0.535-.041v0.206l2.139,0.082-0.165-.949h0.041a0.431,0.431,0,0,0,.288.124,5.714,5.714,0,0,1,.041-1.032H56.8v1.114a2.187,2.187,0,0,0,.576.206,1.09,1.09,0,0,1,.165-0.124v0.082a1,1,0,0,0-.041.454H57.46a0.21,0.21,0,0,0-.206-0.124,0.149,0.149,0,0,1-.082.041v0.206a6.261,6.261,0,0,0,1.111,0c-0.034-.134.02-0.063-0.082-0.124a0.426,0.426,0,0,1-.247.082c-0.039-.324-0.184-0.517-0.206-0.867H57.83a1.342,1.342,0,0,0,1.069.206V27.47H58.859a0.21,0.21,0,0,0-.206-0.124,0.148,0.148,0,0,1-.082.041v0.165h0.041v0.041a9.3,9.3,0,0,0,.987.041V27.47H59.8V27.3h0.082a0.355,0.355,0,0,1,.206-0.041V25.819h0.082v1.445c0.134,0.034.063-.02,0.123,0.082-0.1.06-.046-0.009-0.082,0.124H60.3a0.209,0.209,0,0,1,.123-0.041,0.267,0.267,0,0,1,.041-0.165c0.017,0.148-.019.1,0.082,0.165a0.653,0.653,0,0,0,.452,0V27.3a0.98,0.98,0,0,1-.452-0.041,1.608,1.608,0,0,1,.411,0L61.08,27.3v0.124c0.133,0.034.063-.02,0.123,0.082H61.162v0.041H61.45V27.387h0.082v0.165l2.016-.041a13.938,13.938,0,0,1,.082-1.9h0.041v0.949a1.508,1.508,0,0,0,1.069.165,3.86,3.86,0,0,0,.082.7h0.206a0.287,0.287,0,0,1,.206-0.289c0.468-.341,1.511-0.236,1.974-0.578a2.9,2.9,0,0,0,.041-1.073h0.041v0.082a2.639,2.639,0,0,1,.041.991h0.041c0.639-.494,1.181.286,1.769,0.041v0.413a0.148,0.148,0,0,1,.041.083H69.1a0.277,0.277,0,0,0-.206-0.083,0.65,0.65,0,0,0-.041.206h0.082a7.7,7.7,0,0,1,1.028-.082,1.2,1.2,0,0,0,.165-0.619h0.123a4.155,4.155,0,0,0,.082-1.032l-0.74-.041v0.041a1.259,1.259,0,0,1,0,.7H69.512V26.108a2.809,2.809,0,0,1-.082-0.743c0.55-.013,1.2-0.04,1.81-0.041V25.241a1.752,1.752,0,0,1-.041-0.7H71.28v0.082a1.726,1.726,0,0,1,.041.784l-0.9.083L70.458,26.4l0.658-.041v0.124c2.441,0.012,4.853-.137,7.239-0.248a40.964,40.964,0,0,0,0-4.994H78.6v0.041a3.347,3.347,0,0,0-.082,1.321c0,1.206.02,2.492,0.041,3.632L80,26.191a7.9,7.9,0,0,1-.987,2.146h0.329a0.2,0.2,0,0,1-.041.124,0.875,0.875,0,0,1-.411.041,4.825,4.825,0,0,1-.7,1.238,5.2,5.2,0,0,1-2.262,2.435,19.789,19.789,0,0,1-3.249.619c-0.356.078-.751,0.014-1.069,0.082H70.129a20.686,20.686,0,0,1-3.455.041H1.234V32.876H1.193L0.9,30.029H0.452V29.864H0.864l-0.082-.743A1.038,1.038,0,0,1,0,28.048H1.193V26.273H1.275v0.041a7.146,7.146,0,0,1,.041,1.733H1.481l0.041-.33H1.6v0.041a0.368,0.368,0,0,0,0,.289H2.1c0.074-2.011.121-4.026,0.123-6.314-0.092.016-.105,0.044-0.165,0a0.627,0.627,0,0,1,0-.454,0.329,0.329,0,0,0,.165,0V21.073c-0.13-.117.144-0.206,0-0.454A0.952,0.952,0,0,1,2.1,20.537H2.221V19.752H1.6V19.67a3.98,3.98,0,0,0,.617-0.537V18.349H2.386a1.987,1.987,0,0,0,.041.784c0.11,0.289.468,0.322,0.576,0.619H2.427a75.785,75.785,0,0,0,.123,8.3,0.343,0.343,0,0,0,.206-0.041,0.729,0.729,0,0,1,.617-0.165v0.041a1.449,1.449,0,0,0-.452.041v0.082H3a0.652,0.652,0,0,0,.452,0c0.017-.148-0.019-0.1.082-0.165,0.017,0.148-.019.1,0.082,0.165a0.652,0.652,0,0,0,.452,0V27.924H4.031V27.883a0.862,0.862,0,0,1-.411-0.041,1.941,1.941,0,0,1,.782.206V27.841a0.211,0.211,0,0,1-.041-0.124H4.4V27.8a0.913,0.913,0,0,0,.987.248V27.8H5.594V27.718a0.546,0.546,0,0,1-.123-0.66,0.724,0.724,0,0,1,.946-0.413V26.273H6.458v0.083c0.052,0.082-.015.263,0.041,0.371,0.034,0.066.206,0.093,0.247,0.165a1.437,1.437,0,0,1,0,.743H6.828a0.277,0.277,0,0,1,.165-0.041V27.14H7.116V26.81a3.524,3.524,0,0,0,1.275-.165,0.646,0.646,0,0,0,.452-0.082c0.09-.16-0.077-0.177.123-0.248a2.382,2.382,0,0,0,.781.33,0.392,0.392,0,0,0,.247-0.082v0.165H10.2c0.017,0.108.066,0.089,0.288,0.082v0.454H10.53V27.222c0.162-.219.049-0.708,0.206-0.949v0.083a0.278,0.278,0,0,1,.041.165c0.665,0,1.1,0,1.728,0V26.314h0.082a1.388,1.388,0,0,0,.9.206V26.273h0.041v0.083a0.279,0.279,0,0,1,.041.165c0.671,0,1.16,0,1.769,0,0.246,0,.722-0.064.781-0.041a1.123,1.123,0,0,0,.288.289,1.112,1.112,0,0,1,.041-0.5v0.083a2.384,2.384,0,0,1,.041.908h0.452V27.016C16.828,27,16.855,26.8,16.864,26.562h0.082a0.164,0.164,0,0,0,.164.082c0.265-.808,1.48-0.37,2.057-0.206a3.6,3.6,0,0,0,.247-0.33h0.041V26.067H18.262a0.717,0.717,0,0,0-.617-0.165,0.2,0.2,0,0,1-.041.124V25.9l-0.247-.041V25.9H17.4c0.079,0.032-.082.041-0.082,0.041a0.418,0.418,0,0,0-.082,0,0.358,0.358,0,0,1-.041-0.206h0.165c0.016,0.108-.03.054,0.082,0.082a0.276,0.276,0,0,1,.165-0.041,0.2,0.2,0,0,1,.041-0.124v0.124l1.892-.041a4.5,4.5,0,0,0,.329-0.991h0.782a0.641,0.641,0,0,1,.329-0.124,5.592,5.592,0,0,0,1.522.124h0.535c0.085-.048-0.037-0.081.165-0.124v0.124H23.4a12.143,12.143,0,0,0,.535,1.568,0.2,0.2,0,0,1,.123.041,0.485,0.485,0,0,1,.082.206c-0.155.006-.145-0.02-0.206,0.082h0.288a0.807,0.807,0,0,0,.206.619,0.2,0.2,0,0,1,.041-0.124,2.025,2.025,0,0,0,.411-0.083c0-1.976,0-3.7,0-5.654a11.048,11.048,0,0,0-2.756-.083v0.124a4.837,4.837,0,0,0-.864,1.2,1.794,1.794,0,0,0-.453.66H20.648V23.137a1.377,1.377,0,0,0,.411-0.537,3.953,3.953,0,0,0,.864-1.279,7.153,7.153,0,0,0-2.1.083,0.135,0.135,0,0,1-.206-0.083H19.537V21.4A1.916,1.916,0,0,1,19,21.362a0.438,0.438,0,0,1-.082-0.206A0.479,0.479,0,0,0,19,21.032a1.693,1.693,0,0,1,.535-0.041,6.21,6.21,0,0,0,1.769.041c0.27-.015.7,0.028,0.946,0.041,1.035,0.055,2.168-.009,3.085,0V15.791h0.082v5.283h3.7v-4.5a0.7,0.7,0,0,0-.247.041V16.533h0.247c0-.863.037-1.755,0.041-2.559a7,7,0,0,1-1.069-.908,1.076,1.076,0,0,1-.576-0.578h0.041a11.94,11.94,0,0,1,1.481,1.238l0.123-.041V13.438a3.276,3.276,0,0,1-.041-1.2l-0.206.041V12.159H29a0.209,0.209,0,0,0,.123.041L29.08,10.714H29.2a8.308,8.308,0,0,0-.082-1.61H27.764V9.063h1.357A7.53,7.53,0,0,0,29.2,7Zm-0.453,5.2a0.2,0.2,0,0,1,.123.041A0.2,0.2,0,0,1,28.751,12.2Zm-1.193.041a0.2,0.2,0,0,1,.123.041c-0.054.015-.17,0.178-0.288,0.083A1.362,1.362,0,0,0,27.558,12.241Zm1.069,8.3c0.109,0.049.074-.037,0.123,0.082-0.028.032-.054,0.092-0.082,0.124Zm-26.571.454a0.149,0.149,0,0,1,.041.082H2.057V20.991Zm76.751,0.082h0.247v0.041a0.319,0.319,0,0,1-.123.124v0.041H78.89V21.238a2.045,2.045,0,0,1-.165-0.124h0.082V21.073Zm-0.164.083h0.082V21.2A0.141,0.141,0,0,1,78.643,21.156Zm-76.627.825c0.133,0.034.063-.02,0.123,0.082a0.149,0.149,0,0,0-.041.082H2.015V21.981Zm3.332,5.448a0.211,0.211,0,0,1,.041.124H5.347V27.429Zm-0.041.206a0.211,0.211,0,0,1,.041.124H5.306V27.635Zm-0.041.206a0.211,0.211,0,0,1,.041.124H5.265V27.841Z" transform="translate(0 0.016)"/>
</svg>
