<svg xmlns="http://www.w3.org/2000/svg" width="40" height="40" viewBox="0 0 40 40">
  <defs>
    <style>
      .cls-1 {
        fill: #fff;
        fill-rule: evenodd;
      }
    </style>
  </defs>
  <path id="Color_Fill_1" data-name="Color Fill 1" class="cls-1" d="M16.184,14.25a3.992,3.992,0,0,1,.435-0.05h0.1c0,0.145-.047.07,0,0.15a4.715,4.715,0,0,0,1.546.1c1.283,0,2.017.007,3.237,0V14.6a8.153,8.153,0,0,0-2.56.2c-0.5.178-1.277-.19-1.643,0.1a0.381,0.381,0,0,1-.145.15A0.247,0.247,0,0,0,17.1,14.9v0.25a7.25,7.25,0,0,1-1.111.1V15.4a0.953,0.953,0,0,1-.531.1,0.868,0.868,0,0,0-.435-0.05v0.1a1.5,1.5,0,0,1,.1.4h0.145a0.261,0.261,0,0,1,.193,0V16.2h0.1a4.021,4.021,0,0,0,1.643.1c0.018-.131-0.036-0.066.1-0.1-0.019.113-.044,0.054,0,0.15a1.041,1.041,0,0,1,.676-0.2v0.5a1.147,1.147,0,0,0,.483.35,1,1,0,0,1,.435.15A1.093,1.093,0,0,0,19.227,17a0.419,0.419,0,0,0,.241.25L19.662,17l0.193,0.15c0.054-.144.008-0.092,0.145-0.15,0.208,0.368.549,0.038,0.725,0.3a0.163,0.163,0,0,0-.1.05H20.87v0.4a1.421,1.421,0,0,1,.338.05c0.037,0.208.025,0.182,0.242,0.2a10.265,10.265,0,0,0,1.836.15,26.23,26.23,0,0,1,3.575.1h1.5a5.814,5.814,0,0,0,2.319,0h0.773a15.466,15.466,0,0,0,2.367.05v0.15a0.8,0.8,0,0,0,.435-0.1,12.858,12.858,0,0,0,3,.15c0.632-.154,1.6.251,2.077,0a1.155,1.155,0,0,0,.676.15V18.7a1.714,1.714,0,0,0-.048.7H39.9a6.7,6.7,0,0,0-1.546-.05l-3.72-.05-0.87-.05a0.8,0.8,0,0,1-.531.15,17.253,17.253,0,0,1-3-.25H27.73c-0.269-.063-0.761.029-1.015,0a25.084,25.084,0,0,0-2.609-.1H21.449c-0.232.062-.292,0.144-0.483,0.2a1.994,1.994,0,0,1-.435-0.05c-0.069.029-.212,0.212-0.29,0.25H20v0.1h0.145c0.643-.469,2.9.276,3.333,0.15a0.554,0.554,0,0,1,.58.25,2.547,2.547,0,0,0,1.208-.1c0.006,0.2.005,0.156,0.29,0.15a1.15,1.15,0,0,0,.435-0.05,1.677,1.677,0,0,0,.145.15l1.014,0.05c0.068,0.026.141,0.179,0.193,0.2l0.435-.05a3.927,3.927,0,0,1,.87.7,1.413,1.413,0,0,1,.676.7c-0.248.179-.386,0.516-0.628,0.7a1.552,1.552,0,0,0-.242.15l-0.387-.05c-0.087,1.066-1.016,1.336-1.691,1.8A11.169,11.169,0,0,1,24.3,25.7a15.255,15.255,0,0,1-3.14.05H16.377a6.789,6.789,0,0,1-1.4.25c-0.281-.431-1.5-0.25-2.174-0.25H6.377c-0.211-.151-0.507-0.161-0.725-0.3-1.087-.7-2.056-1.506-3.188-2.2-0.164-.1-0.129-0.392-0.29-0.5a0.341,0.341,0,0,1-.193.1,0.739,0.739,0,0,1-.048.25h-0.1c-0.073-.164-0.2-0.231-0.29-0.4a3.259,3.259,0,0,1-1.014.4A0.558,0.558,0,0,0,.386,23a5.608,5.608,0,0,1,.29-1.95H0.483a1.715,1.715,0,0,0-.338-0.6L0,19.6c0.934-.073,1.86-0.413,2.85-0.5L2.8,18.75a2.5,2.5,0,0,1,.725-0.05,2.737,2.737,0,0,1,1.014-.1v0.1H4.589c1.056-.194,2.218-0.033,3.333-0.25a0.535,0.535,0,0,0,.1.5,10.15,10.15,0,0,1,1.111.2,0.38,0.38,0,0,0,.145.15,1.405,1.405,0,0,1,.531-0.25A0.727,0.727,0,0,1,9.42,19a0.512,0.512,0,0,1-.193-0.45,5.2,5.2,0,0,1-.966-0.05,0.763,0.763,0,0,1-.1-0.2c-0.045-.08-0.075-1.09-0.1-1.3a3.771,3.771,0,0,0,1.063-.3A0.554,0.554,0,0,1,8.6,16.35a0.794,0.794,0,0,1-.1-0.55c0.166-.177.322-0.372,0.483-0.55a0.8,0.8,0,0,1,.87.8c0.034,0.171-.143.191-0.048,0.25a0.241,0.241,0,0,0,.145.05,0.813,0.813,0,0,1,.29-0.1v-0.6a1.28,1.28,0,0,0-.048-0.5c0.139-.056.089-0.009,0.145-0.15H9.9a3.568,3.568,0,0,1,.048-0.7h0.29a0.934,0.934,0,0,0,.193.1,2.623,2.623,0,0,1-.048,1.5h0.048V15.8a1.03,1.03,0,0,1,.29-0.35,0.682,0.682,0,0,1,.628,0l0.048,0.4a1.7,1.7,0,0,0,.87.1,2.189,2.189,0,0,1,.58-0.3l0.048-.3a0.778,0.778,0,0,1,.628.05V14.95a1.4,1.4,0,0,1-.048-0.6h0.1a6.728,6.728,0,0,1,1.111,0,1.068,1.068,0,0,1,0-.3L16.135,14A0.812,0.812,0,0,1,16.184,14.25Zm1.643,0.35a1.5,1.5,0,0,0,.918,0H17.826ZM17,15.05V14.9a2.945,2.945,0,0,1-1.014,0V15h0.87A0.241,0.241,0,0,0,17,15.05Zm-3.285.2v0.1h0.1V15.3h0.048V15.25H13.72Zm6.232,2.1v0.1c0.173-.021.122,0.024,0.193-0.1H19.952Zm-13.72,1.3A0.668,0.668,0,0,0,6.28,19,0.668,0.668,0,0,0,6.232,18.65Zm-1.739.25a0.247,0.247,0,0,0,.048.15A0.247,0.247,0,0,0,4.493,18.9Zm-3.14.5c0.083,0.044.062,0.044,0.145,0H1.353Zm18.454,0.1c0.01,0.07-.04-0.02-0.048.05-0.093.039,0.1,0.05,0.1,0.05A0.173,0.173,0,0,0,19.807,19.5Zm2.609,0.1c0.04,0.162-.024.076,0.1,0.15V19.7a0.183,0.183,0,0,0,.048-0.1H22.416Zm2.609,0.3V20h0.1V19.9h-0.1Zm-24.2.9-0.048.1C0.857,20.83.821,20.8,0.821,20.8Zm0.29,0v0.1a0.374,0.374,0,0,1,.193,0A0.341,0.341,0,0,0,1.111,20.8Zm-0.145.25v0.1H1.014V21.1H1.063A0.173,0.173,0,0,0,.966,21.05Zm0.29,0.05a0.341,0.341,0,0,0,.193.1V21.15H1.4V21.1H1.256Zm0.435,0.2c0.083,0.044.062,0.044,0.145,0H1.691Zm0,0.2v0.2h0.1a0.19,0.19,0,0,1,.1-0.15V21.5H1.691Zm0.1,0.35v0.1H1.836v-0.1H1.787ZM0.531,22.9l0.29-.05V22.8H0.87a1.549,1.549,0,0,0-.242-0.9C0.605,22.235.534,22.485,0.531,22.9Zm0.338-.85L1.014,22.5h0.1V22.45a0.272,0.272,0,0,0,.145-0.2H1.3V22.2A0.766,0.766,0,0,1,.87,22.05Zm0.87,0.5c-0.019.113-.044,0.054,0,0.15l0.048,0.1H1.836V22.75a0.3,0.3,0,0,0,.1-0.1ZM26.425,23a0.759,0.759,0,0,1,.1.2,0.163,0.163,0,0,0-.1.05h0.1V23.2c0.06-.078.031-0.026,0-0.1C26.459,22.977,26.543,23.066,26.425,23Zm0.338,0a0.172,0.172,0,0,0,.1.05A0.172,0.172,0,0,0,26.763,23Zm-18.019.6a1.722,1.722,0,0,0-.435.55c-0.127.2-.236,0.592-0.338,0.8H9.034v-0.1C8.625,24.51,8.9,23.983,8.744,23.6Zm3.527,0.05c-0.184.3-.435,0.167-0.435,0.7a2.2,2.2,0,0,0-.29.6h1.159V24.9a1.326,1.326,0,0,1-.29-1.25H12.271Zm-7.1.15c-0.019.113-.044,0.054,0,0.15a0.173,0.173,0,0,0,.1.05V23.8h-0.1Zm13.527,0a0.965,0.965,0,0,1-.29.15,2.155,2.155,0,0,1-.338,1h1.16V24.9A6.474,6.474,0,0,0,18.7,23.8Zm3.237,0.15a1.808,1.808,0,0,1-.338,1h0.821V24.9a1.175,1.175,0,0,1-.338-0.95H21.932ZM25.121,24a0.172,0.172,0,0,0,.1.05A0.172,0.172,0,0,0,25.121,24Zm-9.758.45a1.7,1.7,0,0,1-.242.5h0.531V24.9A1.807,1.807,0,0,1,15.362,24.45Z"/>
</svg>
