<svg xmlns="http://www.w3.org/2000/svg" width="40" height="40" viewBox="0 0 40 40">
  <defs>
    <style>
      .cls-1 {
        fill: #fff;
        fill-rule: evenodd;
      }
    </style>
  </defs>
  <path id="ussr_zprk_2s6_ico" class="cls-1" d="M20.477,8a0.139,0.139,0,0,1,.087.029,2.4,2.4,0,0,0-.087.612c-0.108.457-.127,1-0.231,1.458V10.39c-0.179.788-.157,1.666-0.347,2.478a3.69,3.69,0,0,0-.144,1.254l-0.087.9a1.767,1.767,0,0,1,.2.466l0.173,0.029V15.55a0.431,0.431,0,0,0-.058.2h0.173a2.851,2.851,0,0,0,.318-0.291,4.013,4.013,0,0,1-.318-1.749l1.011-.262a0.335,0.335,0,0,1,.2-0.233V8.5h0.087v4.693H21.6v0.117H21.574s-0.013-.116-0.029-0.058v0.029a0.252,0.252,0,0,0-.087.117,0.335,0.335,0,0,1,.2.146,1.85,1.85,0,0,1,.549-0.816,7.142,7.142,0,0,1,.809.146c0.593,0.37.471,1.452,0.462,2.419a0.1,0.1,0,0,1,.087,0L23.6,15.434c-0.094.024-.044-0.014-0.087,0.058h0.52a4.064,4.064,0,0,1,2.022-.088,1.61,1.61,0,0,0,.173-0.583H26.166a0.31,0.31,0,0,1-.173.029,0.141,0.141,0,0,1,.029-0.087,0.5,0.5,0,0,0,.173-0.146,0.17,0.17,0,0,1-.116-0.058,1.842,1.842,0,0,1,.029-0.379,0.326,0.326,0,0,0,.2-0.262,4.307,4.307,0,0,1,.491-0.029v0.058c0.025,0.041.087,1.008,0.087,1.108a0.139,0.139,0,0,1,.087.029,2.133,2.133,0,0,0-.346.612c0.184-.006.262,0.017,0.289,0.175-0.039.07-.041,0.072,0.029,0.117a0.172,0.172,0,0,1,.173-0.175c0.306,0.175.45-.109,0.433,0.466a0.686,0.686,0,0,1,.173.117l0.318,0.029c0.25,0.066.565,0.116,0.809,0.175a2.567,2.567,0,0,1,.116.9l1.184,0.029V17.445a2.386,2.386,0,0,0,.693-0.875,0.149,0.149,0,0,1-.029-0.087,0.139,0.139,0,0,1-.087-0.029c-0.007-.012-0.016-0.13-0.029-0.233a0.1,0.1,0,0,0,.058-0.029c0.109,0.034.193,0.157,0.289,0.175,0.068,0.013.089-.117,0.2-0.058a0.2,0.2,0,0,0,.144.117V16.57h0.2v0.058c-0.109,0-.1-0.014-0.144.058h0.116a0.193,0.193,0,0,0,.116.029v0.816H31.74a7.121,7.121,0,0,1,.375-1.4,0.193,0.193,0,0,1,.116-0.029,1.768,1.768,0,0,0,.664.175v1.428h0.578V18.29a5.258,5.258,0,0,0-.578-0.029v1.632l-0.78.175-0.029-.087a8.834,8.834,0,0,0-.4-1.341v0.816H31.538a0.081,0.081,0,0,1-.029.029,3.712,3.712,0,0,1,.029.9l0.751,0.029a4.465,4.465,0,0,0,.087.5,0.887,0.887,0,0,1-.809.2L31.6,21.351h4.159a2.3,2.3,0,0,1,.4.262,0.878,0.878,0,0,1,.635.5H35.033v0.029L35.119,22.2a5.022,5.022,0,0,0,.491.146,0.279,0.279,0,0,1,.318-0.175,1.317,1.317,0,0,1,.635.379c0.026,0.073.013,0.184,0.029,0.233a3.7,3.7,0,0,0,.578.292,0.634,0.634,0,0,0,.029-0.2,0.2,0.2,0,0,1-.029-0.117,0.524,0.524,0,0,0,.116-0.087h0.375v0.321a0.871,0.871,0,0,1-.2-0.029v0.058a3.274,3.274,0,0,0,1.155.058v0.466a0.439,0.439,0,0,1-.26.058,1.252,1.252,0,0,1-.376.058v0.2a4.164,4.164,0,0,1,.924.2l0.115,0.146a1.394,1.394,0,0,1,.2-0.058,1.818,1.818,0,0,1,.26.146,0.131,0.131,0,0,1,.2-0.058h0.029l-0.029.088a0.4,0.4,0,0,0-.115-0.029v0.291h0.087a0.142,0.142,0,0,1,.029-0.087l0.029,0.146H39.567v0.088a0.412,0.412,0,0,0,.144-0.029v0.437c-0.067-.006-0.032-0.013-0.115.058a0.254,0.254,0,0,1,.029.146c-0.075,0-.056-0.022-0.115.058a0.32,0.32,0,0,0-.058.175,0.668,0.668,0,0,1,.231.35,0.147,0.147,0,0,1-.144.087,0.205,0.205,0,0,0-.115-0.058v0.029A2.218,2.218,0,0,1,40,27.5a0.407,0.407,0,0,1-.115.029,0.083,0.083,0,0,0-.029-0.029,2.48,2.48,0,0,0-.491-1.4H39.307c0.071,0.372-.218.546-0.144,0.845a0.94,0.94,0,0,1-.4.233c-0.05-.122-0.091-0.075-0.231-0.058a0.142,0.142,0,0,0-.029-0.087c-0.2.293-.591,0.019-0.809,0.292a0.235,0.235,0,0,0-.029.117,0.452,0.452,0,0,0-.318.35,2.185,2.185,0,0,0-.433-0.233,2.657,2.657,0,0,1-.318.35c0.023,0.05.076,0.054,0.029,0.087-0.065.093-.11,0.046-0.144,0.117l0.029,0.029H36.448a0.612,0.612,0,0,1-.087,0,2.307,2.307,0,0,0-.318.321c-0.045.021,0,0-.087,0a0.1,0.1,0,0,1,0,.087l-0.144-.029c-0.029.04-.26,0.321-0.26,0.321l-0.116-.029a0.093,0.093,0,0,1,0,.117c-0.05-.023-0.053-0.077-0.087-0.029a1.275,1.275,0,0,0-.4.379c-0.072-.02-0.054-0.069-0.087-0.029a0.547,0.547,0,0,0-.231.175,0.37,0.37,0,0,1-.029.087,0.11,0.11,0,0,1-.144.029c0,0.092.049,0.039-.029,0.087a0.612,0.612,0,0,1-.087,0,0.335,0.335,0,0,0-.231.262c-0.069.116-.114-0.04-0.144,0.117-0.088-.014-0.091-0.058-0.116-0.029a1.038,1.038,0,0,0-.289.291c-0.082.061-.07-0.029-0.116,0.058,0.007,0.028.023,0.011,0,.029v0.029c-0.07-.026-0.046-0.031-0.116-0.058a2.917,2.917,0,0,0-.289.35l-0.116-.029a0.1,0.1,0,0,1,0,.087,0.672,0.672,0,0,0-.4.087v0.087c-0.055.006-.26,0.058-0.26,0.058-0.061-.028-0.026-0.116-0.173-0.087-0.124.024-.246,0.085-0.318,0.087a0.878,0.878,0,0,0-.491,0,3.121,3.121,0,0,0-.635,0,3.078,3.078,0,0,0-.607-0.058v0.058a0.286,0.286,0,0,1-.2-0.058c-0.094.088-.229-0.1-0.433,0v0.058a3.091,3.091,0,0,0-.607-0.058v0.058H28.737a0.879,0.879,0,0,1-.144-0.058v0.058a0.963,0.963,0,0,0-.433-0.058v0.058H28.13a1.424,1.424,0,0,1-.4-0.058,2.077,2.077,0,0,1-.289.058H27.408c-0.036-.035.024-0.066-0.058-0.058v0.058a0.861,0.861,0,0,0-.4-0.058v0.058a0.318,0.318,0,0,1-.289-0.058,0.479,0.479,0,0,0-.346.058,0.309,0.309,0,0,1-.173-0.029v0.029H26.108a0.674,0.674,0,0,0-.4-0.058v0.058a2.652,2.652,0,0,0-.635-0.058v0.058a3.064,3.064,0,0,0-.607-0.058,1.556,1.556,0,0,1-.635,0c-0.008.076,0,.057-0.144,0.058a0.774,0.774,0,0,0-.462-0.058v0.058H23.163s-0.04,0-.058,0c-0.063,0,.005-0.067-0.087-0.058,0,0-.678.064-0.693,0.058V30.913a2.813,2.813,0,0,0-.607.058V30.913a1.625,1.625,0,0,0-.491.058V30.913c-0.09-.012-0.035.095-0.144,0.058V30.913a0.482,0.482,0,0,0-.346.058,3.877,3.877,0,0,0-.607-0.058v0.058H20.072a0.551,0.551,0,0,0-.144-0.058c-0.013,0,.02.074-0.058,0.058l-0.029-.058a0.454,0.454,0,0,0-.318.058,1.116,1.116,0,0,1-.491-0.058,1.7,1.7,0,0,1-.289.058,0.785,0.785,0,0,0-.462-0.058c-0.032.013,0.032,0.045-.029,0.058-0.11.024-.159-0.125-0.173,0a0.9,0.9,0,0,0-.433-0.058v0.058a3.618,3.618,0,0,0-.607-0.058v0.058a0.1,0.1,0,0,1-.144-0.058c-0.1-.013-0.019.073-0.115,0.058-0.064-.01.006-0.043-0.029-0.058H16.4c-0.008.076,0,.057-0.144,0.058a0.775,0.775,0,0,0-.462-0.058c-0.033.014,0.024,0.052-.058,0.058,0,0-.041,0-0.058,0a0.96,0.96,0,0,0-.433-0.058,0.675,0.675,0,0,1-.347.058V30.913a2.422,2.422,0,0,0-.607.058V30.913a1.523,1.523,0,0,0-.491.058V30.913c-0.09-.017-0.034.1-0.144,0.058V30.913a1.09,1.09,0,0,0-.491.058,1,1,0,0,0-.4-0.058,0.26,0.26,0,0,1-.2.058c-0.027-.008.023-0.07-0.058-0.058-0.009,0,0,.087-0.087.058V30.913a3.038,3.038,0,0,0-.606.058V30.913a2.28,2.28,0,0,0-.607.058V30.913a2.943,2.943,0,0,0-.635.058V30.913a1.083,1.083,0,0,0-.491.058,0.229,0.229,0,0,1-.115,0V30.913c-0.238-.111-0.377.1-0.549,0-0.029.026,0,.091-0.087,0.058V30.913a1.081,1.081,0,0,0-.491.058,0.232,0.232,0,0,1-.116,0V30.913a0.47,0.47,0,0,0-.347.058,0.961,0.961,0,0,1-.318-0.058l0.029-.087a1.115,1.115,0,0,1-.578-0.175c-0.023-.029-0.043-0.052,0-0.088A5.293,5.293,0,0,1,6.931,30.3a0.178,0.178,0,0,0,.058-0.058,2.61,2.61,0,0,1-.606-0.262,0.178,0.178,0,0,0,.058-0.058H6.412c-0.074-.071-0.187-0.1-0.26-0.175-0.069.041-.017,0.049-0.087,0.029a1.288,1.288,0,0,0-.2-0.088l0.029-.117a0.57,0.57,0,0,1-.26-0.146,0.139,0.139,0,0,1-.2-0.029c0.036-.046.019-0.015,0-0.058a0.147,0.147,0,0,1-.087.029V29.251a0.722,0.722,0,0,1-.231-0.146c-0.071.018-.086,0.069-0.116,0.029-0.111-.061-0.031-0.054-0.087-0.117-0.049.012-.067,0.049-0.116,0l0.029-.087c-0.056-.067-0.2-0.084-0.26-0.146-0.072.02-.054,0.069-0.087,0.029a1.479,1.479,0,0,1-.462-0.379,0.177,0.177,0,0,1-.116.058c-0.1-.163-0.166-0.055-0.318-0.117a0.307,0.307,0,0,1,0-.233,0.257,0.257,0,0,1-.087-0.087c-0.05.023-.053,0.076-0.087,0.029a0.385,0.385,0,0,0-.26-0.2C3.1,27.944,3.067,27.971,3,27.939a0.23,0.23,0,0,1-.087-0.058c0.065-.151.178-0.2,0.231-0.35H2.888l-1.415-.146V26.715A0.876,0.876,0,0,1,1.415,26.1L1.5,26.074a0.362,0.362,0,0,0-.087-0.35,0.189,0.189,0,0,1,.058-0.175H1.155V25.461A0.176,0.176,0,0,1,1.1,25.4a1.028,1.028,0,0,1-.2.029v-0.2a0.355,0.355,0,0,1-.26-0.2,4.29,4.29,0,0,1-.173-1.2A0.65,0.65,0,0,0,.52,23.508H0.26l-0.144-.2A0.193,0.193,0,0,1,0,23.333V23.158c0.117-.028.133-0.034,0.144-0.175a0.66,0.66,0,0,1-.029-0.408c0.084,0,.04.028,0.087,0a0.389,0.389,0,0,0,.029-0.2H0.462c0.135-.4,1.7-0.426,2.282-0.437a0.555,0.555,0,0,1,.462-0.321V21.526H3.264a3.806,3.806,0,0,1,1.819-.146,1.212,1.212,0,0,0,.087.408A0.818,0.818,0,0,1,5.747,21.7a0.2,0.2,0,0,0,.087.146V21.788a0.357,0.357,0,0,1,.087-0.175,3.865,3.865,0,0,1,1.011-.029,0.246,0.246,0,0,1,.029-0.146v0.146a0.618,0.618,0,0,0,.433-0.262,2.7,2.7,0,0,1,1.5-.175l0.029,0.088a0.545,0.545,0,0,1,.029.262,0.756,0.756,0,0,1,.318-0.058,0.4,0.4,0,0,0,.058.087h0.52V21.439a1,1,0,0,1,.289-0.117,0.833,0.833,0,0,0,.578,0c0.009,0,.048.111,0.058,0.117h0.433l0.029,0.087h1.791c0.074-.017.086-0.126,0.2-0.087V21.5a2.077,2.077,0,0,0,.578-0.058,0.223,0.223,0,0,0,.116.087,0.142,0.142,0,0,1,.029-0.087v0.087c0.473,0,1,.039,1.386.058V21.439h0.058v0.146a6.569,6.569,0,0,1,.78.029V21.73h0.058c0.042-.073.036-0.053,0.144-0.058a0.126,0.126,0,0,0,.087.087,1.158,1.158,0,0,0-.029.233h0.751V21.5H17.04v-0.35a0.138,0.138,0,0,1-.087-0.029H17.04V20.972H16.4V21h0.029c0.056,0.023-.058.029-0.058,0.029a3.993,3.993,0,0,0-1.155-.058,10.638,10.638,0,0,1-2.6-.146c-0.408-.112-0.844.1-0.838-0.437a0.58,0.58,0,0,1-.087-0.437c0.026-.133.049-0.052,0.087-0.117V19.4a2.445,2.445,0,0,1-.029-0.933,0.114,0.114,0,0,1-.116-0.058c0.071-.038.02,0.013,0.058-0.058H11.639a0.078,0.078,0,0,0-.058.029V18.29a1.262,1.262,0,0,0,.029-0.758,0.361,0.361,0,0,0,.116-0.029c-0.018-.056-0.022-0.193-0.029-0.2a0.782,0.782,0,0,0-.144-0.117h0.173c0.011-.2.056-0.32,0.058-0.583h0.144l0.029-.087a1.5,1.5,0,0,1-.866-0.641h0.347a0.152,0.152,0,0,1,.087-0.146c0.037,0.086.018,0.085,0.087,0.058a0.191,0.191,0,0,0,.087-0.146,0.882,0.882,0,0,1-.2-0.9h0.029V14.85H11.87s-0.009-.1.029-0.058V14.85a0.343,0.343,0,0,0,.116.117,1.125,1.125,0,0,0,.144-0.787c-0.292-.029-0.7-0.084-1.04-0.088V13.976h0.087V13.422H11.061l-0.029-.088a2.393,2.393,0,0,1,.231-0.088,7.951,7.951,0,0,1-.058-1.574H11.119V11.586h0.087V11.032h0.087a3.023,3.023,0,0,0-.058-0.525,1.57,1.57,0,0,0,.318-0.058c-0.017-.812.25-1.512,1.04-1.516l0.029-.175a2.285,2.285,0,0,0,.289-0.029c0.058,0.027-.023.066,0.144,0.087V8.933a1.3,1.3,0,0,0,.289.233v-0.2H13.43V9.341c0.35,0.261.283,0.739,0.924,0.729a1.116,1.116,0,0,0,.433.029,7.827,7.827,0,0,1,1.444.058,2.061,2.061,0,0,0,.318.321c0.037-.072-0.012-0.02.058-0.058a2.091,2.091,0,0,1,.058.641h0.029a0.333,0.333,0,0,1,.318.029,1.716,1.716,0,0,0,0,.554l-0.058.117a0.345,0.345,0,0,0,.029.175,2.785,2.785,0,0,0-.087.933c-0.187.058-.269,0.026-0.26,0.292,0.073,0.043.053,0.037,0.058,0.146-0.078.064-.1,0.2-0.173,0.262a0.548,0.548,0,0,0-.116.029l-0.26.5H13.718a0.741,0.741,0,0,0-.347.146h0.433v0.087a0.361,0.361,0,0,1,.375.175,1.6,1.6,0,0,1,.029.612h0.144v0.379a0.859,0.859,0,0,0,.144.117,2.954,2.954,0,0,1,.289-0.437,0.339,0.339,0,0,1-.058-0.087,0.837,0.837,0,0,1,.4-0.058v-0.35c0.226-.01.434-0.007,0.664,0v0.35H16.52a0.176,0.176,0,0,0,.058.058,0.463,0.463,0,0,0-.058.2,0.331,0.331,0,0,1,.318.2,0.389,0.389,0,0,1,.029.2h-0.2v0.058h0.029a0.536,0.536,0,0,0,.318.117V15.783h0.607V15.667a0.139,0.139,0,0,1-.087-0.029H17.56a2.631,2.631,0,0,1,1.386-.117,0.112,0.112,0,0,0,.087.058V15.434h0.087a0.9,0.9,0,0,1,.318-0.466l0.115-.787c0.023-.074.093-0.173,0.116-0.262L19.7,13.51c0.182-.736.139-1.532,0.318-2.3,0.132-.571.119-1.177,0.26-1.778A7.714,7.714,0,0,0,20.477,8Zm-5.285,2.39c0.03,0.932.2,1.885,0.2,2.8a0.484,0.484,0,0,0,.173-0.029c-0.021-.025-0.036-0.033-0.058-0.058a0.7,0.7,0,0,1,.318.058V12.722a1.989,1.989,0,0,0-.029-0.583l-0.116-1.516A0.429,0.429,0,0,0,16,10.449l0.029-.029H15.971A2.088,2.088,0,0,0,15.191,10.39Zm6.989,2.274a0.106,0.106,0,0,1,.029.058H22.181V12.664Zm-10.339,2.07a0.106,0.106,0,0,1,.029.058H11.841V14.734Zm17.213,3.5a6.2,6.2,0,0,0,.115,1.37,1.913,1.913,0,0,0,.116.758V20.331a2.237,2.237,0,0,0,.029-0.816h0.9a4.386,4.386,0,0,0,.173-0.554,0.351,0.351,0,0,1-.231-0.379,0.564,0.564,0,0,1-.087-0.35H29.054ZM16.549,21.06h0.058v0.029A0.1,0.1,0,0,1,16.549,21.06Zm0.116,0.029a0.139,0.139,0,0,1,.087.029A0.139,0.139,0,0,1,16.664,21.089Zm23.047,3.294a0.149,0.149,0,0,1,.029.087H39.711V24.383Z" transform="translate(0 0.5)"/>
</svg>
