<?xml version="1.0" encoding="utf-8"?>
<!-- Generator: Adobe Illustrator 16.0.0, SVG Export Plug-In . SVG Version: 6.00 Build 0)  -->
<!DOCTYPE svg PUBLIC "-//W3C//DTD SVG 1.1//EN" "http://www.w3.org/Graphics/SVG/1.1/DTD/svg11.dtd">
<svg version="1.1" id="Layer_1" xmlns="http://www.w3.org/2000/svg" xmlns:xlink="http://www.w3.org/1999/xlink" x="0px" y="0px"
	 width="40px" height="40px" viewBox="0 0 40 40" enable-background="new 0 0 40 40" xml:space="preserve">
<path id="Color_Fill_1" fill="#FFFFFF" d="M10.743,7.5c0.053,0.056,0.053,0.144,0,0.2V7.5z M10.7,8.528
	c0.086,0.667,0.086,1.341,0,2.008V8.528z M10.652,10.928h0.1v0.245h-0.1V10.928z M10.7,14.209h0.192
	c0.047-0.759,0.139-1.539,0.144-2.351h0.144c-0.01,0.917-0.074,1.833-0.192,2.742c0.033,0.505,0.033,1.012,0,1.518h0.1
	c0.506-0.112,1.03-0.112,1.535,0l0.1-0.2c0.142,0.031,0.287,0.048,0.432,0.049v-0.632c0.097-0.063,0.179-0.146,0.24-0.245
	c0.433,0.06,0.873,0.043,1.3-0.049c-0.009,0.117,0.046,0.229,0.144,0.294c-0.079-0.019-0.161-0.019-0.24,0
	c-0.037,0.06-0.053,0.13-0.048,0.2h0.029c0.184-0.122,0.411-0.159,0.624-0.1v0.735c0.455-0.014,0.5,0.048,1.055,0.049
	c0.006,0.123-0.029,0.243-0.1,0.343h0.192c0.228-0.064,0.472-0.028,0.671,0.1c0.712,0.078,1.417,0.209,2.11,0.392v-0.2
	c0.393,0.012,1,0,1.535,0v0.441H20.24v0.2c0.195,0.087,0.41,0.122,0.624,0.1c0,0,1.685,0.101,1.87,0.147l1.3-0.049
	c0.858,0,1.86,0.113,2.638,0.049c0.7-0.059,1.828,0,2.686,0c0.303,0.036,0.607,0.053,0.912,0.049c1.126-0.195,2.277-0.195,3.404,0
	l1.727-0.049l3.646,0.049v-0.057c-0.03-0.042-0.048-0.094-0.048-0.146h0.384v0.2c0.038,0.004,0.073,0.021,0.101,0.049
	c0.17-0.034,0.344-0.052,0.518-0.053v0.735l-6.331,0.049v0.1c-0.143,0.027-0.287,0.043-0.433,0.049
	c-1.008,0.053-2.363-0.138-3.309-0.146l-8.969,0.1c-0.04,0.159,0.023,0.075-0.1,0.146c-0.154-0.107-0.346-0.144-0.528-0.1
	c-0.016,0.127-0.114,0.227-0.24,0.245c-0.16,0.107-0.368,0.107-0.528,0v0.147l0.958,0.1l0.101,0.2h0.048
	c0.04-0.159-0.023-0.075,0.1-0.147V19.4h0.145v-0.245H21.1V19.4h0.24v-0.245h0.145V19.3c0.441-0.007,0.547-0.175,0.959-0.2v0.147
	c0.188-0.005,0.461,0.069,0.576,0.049c0.058-0.01,0.229-0.136,0.287-0.147c0.357,0.002,0.712,0.051,1.055,0.147
	c0.253,0.04,0.564-0.169,0.72,0.101l-0.048,0.049h0.1c0.004-0.038,0.021-0.073,0.049-0.101c0.002,0.116,0.019,0.231,0.047,0.343
	c0.027-0.027,0.043-0.063,0.049-0.1c0.09-0.123,0.231-0.197,0.384-0.2c0.058-0.036,0.124-0.054,0.192-0.049
	c-0.016,0.212-0.016,0.425,0,0.638c0.482,0.186,0.98,0.333,1.486,0.44c-0.091-0.069-0.172-0.152-0.24-0.245h0.19
	c0.435,0.195,0.884,0.359,1.343,0.49c-0.004,0.084-0.021,0.166-0.048,0.245c-0.333,0.589-0.776,1.12-1.151,1.665
	c-0.078,0.198-0.191,0.381-0.336,0.539c-0.343,0.213-0.74,0.25-1.055,0.49c-0.102,0.188-0.274,0.329-0.48,0.392
	c-0.15,0.114-0.268,0.337-0.432,0.44l-0.288,0.049c-0.3,0.158-0.589,0.339-0.862,0.539c-0.655,0.528-1.362,0.987-2.11,1.371
	c-0.618,0.106-1.247,0.123-1.87,0.049H4.94l-1.1-0.049c-0.82-0.477-1.591-1.034-2.3-1.664c-0.156-0.101-0.431,0.039-0.624-0.05
	c-0.145-0.067-0.3-0.256-0.48-0.343L0.48,24.1c-0.19-0.035-0.154,0-0.192-0.199c0.043-0.092,0.06-0.193,0.048-0.295
	c-0.162-0.065-0.2-0.037-0.24-0.244c0.077-0.029,0.158-0.047,0.24-0.049c0.032-0.241,0.069-0.345,0.1-0.539
	c-0.078-0.09-0.177-0.158-0.288-0.2c0.065,0.241,0.01,0.501-0.148,0.694v-0.343c0.25-0.587,0.365-1.224,0.336-1.86
	c-0.17-0.035-0.119-0.061-0.288-0.101V20.82c0.127-0.006,0.239-0.083,0.288-0.2c0.034-0.076,0.006-0.007,0-0.147
	c-0.17-0.035-0.119-0.06-0.288-0.1v-0.141h0.144c0.048-0.123,0.112-0.238,0.192-0.344c-0.093-0.042-0.189-0.075-0.288-0.1
	C0.095,19.69,0.111,19.593,0.144,19.5l0.144,0.049c-0.036-0.043-0.06-0.055-0.1-0.1h0.24V19.3l0.1,0.05V19.3
	c0.574-0.062,1.151-0.078,1.727-0.049c0.14-0.051,0.292-0.051,0.432,0V19.2c-0.131-0.021-0.259-0.056-0.384-0.101H2.4
	c0.229-0.125,0.209,0.074,0.336,0.147h1.1C3.9,19.102,3.79,19.128,4.028,19.1c0.279-0.149,0.392,0.338,0.815,0.147v-0.101
	c0.119,0.063,0.25,0.098,0.384,0.101c0.089-0.149,0.261-0.228,0.432-0.2c0.058,0.059,0.107,0.126,0.144,0.2h0.576
	c-0.019-0.111-0.044-0.054,0-0.147c0.37-0.33,1.421-0.067,2.014-0.049V18.91c0.066,0.006,0.131,0.021,0.192,0.049l0.048-0.343H8.441
	v-0.101c-0.034-0.076-0.006-0.007,0-0.146c-0.212-0.024-0.249-0.036-0.288-0.245c0.03-0.042,0.047-0.093,0.047-0.146
	c-0.131-0.022-0.259-0.057-0.384-0.1V16.51c0.106-0.229,0.141-0.485,0.1-0.735c-0.111-0.182-0.2-0.049-0.24-0.343
	c0.073-0.24,0.073-0.496,0-0.735H7c-0.012-0.163-0.012-0.327,0-0.49c0.415-0.155,0.861-0.205,1.3-0.145
	c0.069-0.023,0.134-0.057,0.192-0.1c0.106-0.01,0.211,0.026,0.288,0.1h1.487v0.147H10.6l0.048-2.057
	c-0.042-0.311-0.026-0.626,0.048-0.931v2.987L10.7,14.209z M9.549,14.699c0.005,0.406,0.093,0.655,0.1,1.126h0.1
	c0.063-0.084,0.146-0.153,0.24-0.2v0.049h0.048v0.1c-0.238,0.025-0.411,0.238-0.386,0.476c0,0.005,0.001,0.01,0.001,0.015h0.131
	c0.049-0.18,0.031-0.172,0.24-0.2c0.141-0.044,0.292-0.044,0.432,0c-0.061-0.472,0.14-1.1,0.144-1.763H9.976
	c0.019,0.204-0.13,0.384-0.334,0.403c-0.033,0.003-0.066,0.001-0.098-0.004L9.549,14.699z M10.7,14.307
	c-0.103,0.424-0.068,0.87,0.1,1.273l0.1-1.273H10.7z M14.441,15.384c0,0.053,0.016,0.105,0.048,0.147
	c-0.001-0.054-0.019-0.105-0.052-0.147H14.441z M14.541,15.629c-0.021,0.149-0.004,0.3,0.048,0.441
	c0.018-0.149-0.002-0.301-0.057-0.441H14.541z M14.441,15.678c-0.018,0.133-0.001,0.268,0.048,0.392
	c0.017-0.133-0.001-0.268-0.052-0.392H14.441z M9.741,16.021c0.026,0.027,0.043,0.063,0.048,0.1H9.736v-0.1H9.741z M14.541,16.221
	c0.027,0.027,0.062,0.044,0.1,0.049c-0.029-0.03-0.067-0.049-0.109-0.053L14.541,16.221z M14.733,16.321v0.1h0.327v-0.1h-0.336
	H14.733z M17.41,16.8c0.027,0.027,0.062,0.044,0.1,0.049C17.483,16.822,17.448,16.805,17.41,16.8z M17.842,16.849
	c0.082,0.043,0.061,0.043,0.144,0H17.842z M18.178,16.9c0.37,0.194,0.755,0.358,1.151,0.49c0.021-0.056,0.056-0.106,0.1-0.147
	h-0.052c-0.07-0.124-0.021-0.076-0.192-0.1C18.858,17.028,18.521,16.947,18.178,16.9z M19.665,17.292
	c0.136,0.123,0.344,0.123,0.48,0H19.665z M8.346,18.271c0.027,0.026,0.062,0.044,0.1,0.049c-0.027-0.027-0.063-0.043-0.101-0.047
	L8.346,18.271z M9.017,19.006V19.4c0.144-0.01,0.288-0.01,0.432,0v-0.049H9.5c-0.02-0.133,0.036-0.266,0.144-0.344H9.017V19.006z
	 M3.933,19.152v0.101h0.1V19.2L3.933,19.152z M4.077,19.152c0.051,0.082,0.146,0.121,0.24,0.101V19.2
	c-0.077-0.028-0.158-0.044-0.24-0.045V19.152z M5.42,19.152v0.101h0.335V19.2c-0.108-0.034-0.222-0.049-0.335-0.045V19.152z
	 M8.441,19.3c0.168,0.075,0.36,0.075,0.528,0H8.441z M26.379,20.035c0.053-0.001,0.104,0.017,0.145,0.049h-0.145V20.035
	L26.379,20.035z M0.288,22.093c-0.023,0.134-0.057,0.265-0.1,0.392H0.24c0.042-0.04,0.091-0.074,0.144-0.1
	C0.348,22.243,0.421,22.182,0.288,22.093z M0.188,23.366c0,0.133-0.064,0.079,0.1,0.146v-0.146H0.188z M23.641,24.492
	c-0.355,0.178-0.756,0.248-1.15,0.199v0.101c0.054,0.157,0.07,0.325,0.048,0.49h0.101c0.338-0.31,0.728-0.558,1.15-0.735v-0.055
	h-0.145H23.641z M2.394,24.691l0.719,0.539c-0.003-0.184,0.03-0.367,0.1-0.539H2.4H2.394z M5.32,24.741
	c0.071,0.392-0.015,0.796-0.24,1.126h1.155v-0.1c-0.238-0.306-0.31-0.709-0.192-1.078L5.32,24.741z M8.92,24.691H8.153v0.101
	c0.118,0.368,0.046,0.771-0.192,1.077h1.2v-0.055c-0.275-0.307-0.366-0.735-0.24-1.127L8.92,24.691z M11.03,24.691
	c0.121,0.4,0.05,0.835-0.192,1.176h1.1v-0.053c-0.24-0.323-0.312-0.742-0.192-1.127h-0.715L11.03,24.691z M14.579,24.691h-0.718
	v0.101c0.104,0.37,0.033,0.767-0.192,1.077h1.151v-0.055c-0.27-0.309-0.36-0.734-0.24-1.127L14.579,24.691z M17.025,24.691
	c-0.086,0.156-0.206,0.156-0.288,0.295c0.063,0.314-0.025,0.641-0.24,0.881h1.153v-0.053c-0.24-0.323-0.312-0.742-0.192-1.127
	h-0.432L17.025,24.691z M19.567,24.691c0.063,0.402-0.004,0.814-0.192,1.176h1.2v-0.053c-0.234-0.326-0.305-0.742-0.192-1.127
	h-0.815L19.567,24.691z"/>
</svg>
