<svg xmlns="http://www.w3.org/2000/svg" width="39.969" height="40" viewBox="0 0 39.969 40">
  <defs>
    <style>
      .cls-1 {
        fill: #fff;
        fill-rule: evenodd;
      }
    </style>
  </defs>
  <path id="ussr_kv_1_zis_5_ico" class="cls-1" d="M25.709,13.128V13.22h0.643c0.052,0.023.036,0.09,0.161,0.069,0.108-.018.242-0.071,0.322-0.092a3.755,3.755,0,0,1,1.218.138,0.947,0.947,0,0,1,.276.069,0.249,0.249,0,0,1,.023.138,0.118,0.118,0,0,0-.023.069,0.449,0.449,0,0,1,.253.184,0.264,0.264,0,0,1,.161-0.046,0.364,0.364,0,0,1,.023.115,0.083,0.083,0,0,0-.023.046h1.011a1.171,1.171,0,0,1,.3.207,2.435,2.435,0,0,0,.184.391l2.711,0.023c2.355,0,4.7,0,7.007,0a2.61,2.61,0,0,1,.023.691,1.222,1.222,0,0,1-.345.023,1.871,1.871,0,0,0-.666-0.023c-0.6,0-1.233.019-1.792,0.023l-6.617.023a1.959,1.959,0,0,0,.253.668,0.9,0.9,0,0,0-.23.714,0.946,0.946,0,0,1-.184.115H29.868c-0.25,0-.47.031-0.666,0.046a2.016,2.016,0,0,1-.942,1.013,0.264,0.264,0,0,0-.161-0.23c-0.048.037-.118,0.051-0.161,0.092a1.007,1.007,0,0,1,.092.3,1.306,1.306,0,0,0-.368.115v0.023h1.93v0.115h1.264a0.332,0.332,0,0,1,.322-0.322,6.682,6.682,0,0,1,.965-0.023,0.533,0.533,0,0,0,.345.368,0.65,0.65,0,0,0,.115.046c0.115,0.214.265,0.42,0.391,0.622a0.852,0.852,0,0,0,.092.207h0.184a0.118,0.118,0,0,0,.069.023c0.181-.288.475-0.07,0.643-0.069a1,1,0,0,1,.574-0.138v0.829a10.251,10.251,0,0,0,2.022-.046c0.188-.04.4,0.126,0.528,0.069a0.271,0.271,0,0,0,.046-0.115h0.023v0.023a0.316,0.316,0,0,0,.046.138,1.983,1.983,0,0,0,.345.184,1.709,1.709,0,0,1,.345.368,0.4,0.4,0,0,0-.069.184H37.817s-0.03-.066-0.046-0.046v0.023a0.319,0.319,0,0,0-.092.207,0.794,0.794,0,0,0,.207.092,2.184,2.184,0,0,1,.551.46c0.128,0.22.119,0.472,0.23,0.714a2.569,2.569,0,0,1,.207.368,2.1,2.1,0,0,0-.023.253,2.512,2.512,0,0,1,.23.6h0.138v0.023h0.023a0.88,0.88,0,0,0,.046.161,0.2,0.2,0,0,0-.161.161,0.921,0.921,0,0,1,.046.437l0.161,0.115a0.577,0.577,0,0,0-.046.161c-0.268,0-.235.167-0.505,0.184a1,1,0,0,1-.23-0.276H38.507a0.171,0.171,0,0,1-.069.184,0.266,0.266,0,0,0-.069-0.046,0.108,0.108,0,0,1-.023.115c-0.067,0-.032-0.022-0.069,0a1.282,1.282,0,0,0-.276.391c0.03,0.013.017,0,.023,0.023-0.048.079-.111,0.155-0.161,0.23l-0.069-.046a2.878,2.878,0,0,1-.391.3c-0.069.059,0,.073-0.023,0.138a1.818,1.818,0,0,1-.161.207l-0.069-.046a0.1,0.1,0,0,1-.092.092s-0.03-.066-0.046-0.046v0.023a1.8,1.8,0,0,0-.391.3s0.066,0.03.046,0.046H36.646a0.545,0.545,0,0,1-.184.184,0.727,0.727,0,0,1-.161.069c-0.01,0-.016-0.06-0.046-0.046a1.8,1.8,0,0,0-.138.138,2.128,2.128,0,0,0-.253.115,0.1,0.1,0,0,0,0,.092l-0.138.046c0.005,0.064.041,0.034-.023,0.069a0.4,0.4,0,0,1-.253.092V26.8H35.4c-0.091.018-.314,0.18-0.436,0.23,0.009,0.067.038,0.029-.023,0.069a0.117,0.117,0,0,1-.069.023v0.069H34.831a0.716,0.716,0,0,1-.253.046,0.059,0.059,0,0,0-.023-0.046,1.839,1.839,0,0,1-.437.184c0.009,0.052.021,0.025,0,.069a0.949,0.949,0,0,1-.161.138,0.484,0.484,0,0,0-.207.023c-0.03-.023.01-0.06-0.069-0.046a2.273,2.273,0,0,0-.437.207h0.023v0.023a0.7,0.7,0,0,0-.253.092c-0.1.028-.182-0.031-0.276,0V27.816a4.507,4.507,0,0,1-.551.046v0.069c-0.153,0-.169.041-0.322,0.046a0.111,0.111,0,0,0-.023-0.069,0.155,0.155,0,0,1-.092.023V27.862H31.223v0.069c-0.14.006-.151,0.041-0.3,0.046a0.112,0.112,0,0,0-.023-0.069,0.2,0.2,0,0,1-.115.023V27.862H30.3v0.069a0.323,0.323,0,0,0-.161.046,0.545,0.545,0,0,1-.276-0.046V27.862H29.362v0.069c-0.153,0-.169.041-0.322,0.046a0.112,0.112,0,0,0-.023-0.069,0.2,0.2,0,0,1-.115.023V27.862H28.4v0.069a0.686,0.686,0,0,1-.322.046V27.931H27.938V27.862H27.456v0.069a0.323,0.323,0,0,0-.161.046,0.544,0.544,0,0,1-.276-0.046V27.862H26.514v0.069c-0.14.006-.151,0.041-0.3,0.046a0.111,0.111,0,0,0-.023-0.069,0.154,0.154,0,0,1-.092.023V27.862H25.595v0.069a0.323,0.323,0,0,0-.161.046,0.544,0.544,0,0,1-.276-0.046V27.862H24.653v0.069a0.323,0.323,0,0,0-.161.046,0.544,0.544,0,0,1-.276-0.046V27.862H23.734v0.069H23.573v0.046a0.606,0.606,0,0,1-.3-0.046V27.862h-0.46v0.069a0.324,0.324,0,0,0-.161.046,0.545,0.545,0,0,1-.276-0.046V27.862H21.873v0.069a0.323,0.323,0,0,0-.161.046,0.544,0.544,0,0,1-.276-0.046V27.862H20.908v0.069a0.388,0.388,0,0,1-.138-0.023v0.069a2.253,2.253,0,0,1-.3-0.046V27.862H19.966v0.069a0.324,0.324,0,0,0-.161.046,0.545,0.545,0,0,1-.276-0.046V27.862H19.024v0.069a0.324,0.324,0,0,0-.161.046,0.545,0.545,0,0,1-.276-0.046V27.862H18.082v0.069c-0.153,0-.169.041-0.322,0.046a0.111,0.111,0,0,0-.023-0.069,0.154,0.154,0,0,1-.092.023V27.862H17.117v0.069a0.323,0.323,0,0,0-.161.046,0.544,0.544,0,0,1-.276-0.046V27.862H16.175v0.069H16.037v0.046a0.567,0.567,0,0,1-.322-0.046V27.862H15.279v0.069a0.745,0.745,0,0,1-.368.046V27.931H14.773V27.862H14.337v0.069H14.2v0.046a0.667,0.667,0,0,1-.368-0.046V27.862H13.418v0.069c-0.161.005-.245,0.045-0.437,0.046a0.111,0.111,0,0,0-.023-0.069,0.2,0.2,0,0,1-.115.023V27.862H12.5v0.069a0.309,0.309,0,0,0-.161.046,0.939,0.939,0,0,1-.437-0.046V27.862H11.58v0.069H11.442v0.046a1.726,1.726,0,0,1-.483-0.046V27.862h-0.3v0.069c-0.212,0-.283.044-0.528,0.046a0.111,0.111,0,0,0-.023-0.069,0.154,0.154,0,0,1-.092.023V27.862h-0.3v0.069a0.389,0.389,0,0,1-.138-0.023v0.069H9.42V27.931a0.714,0.714,0,0,1-.253.046,0.114,0.114,0,0,0-.115-0.046V27.862H8.8v0.069a0.312,0.312,0,0,0-.161.046,1.6,1.6,0,0,1-.253-0.046v0.046H8.225A0.112,0.112,0,0,0,8.2,27.908a0.154,0.154,0,0,1-.092.023V27.862H7.881v0.069H7.743v0.046a0.134,0.134,0,0,1-.161-0.046,2.157,2.157,0,0,1-.3.046,0.112,0.112,0,0,0-.115-0.046V27.862A1.685,1.685,0,0,1,6.2,27.793H6.226c0.011-.064-0.013-0.027-0.046-0.046a1.45,1.45,0,0,0-.712-0.161,0.694,0.694,0,0,0-.437-0.322c-0.1-.027-0.214.028-0.3,0l-0.161-.115V27.056A1.522,1.522,0,0,0,3.883,26.9V26.8c-0.13,0-.006.006-0.092-0.092l-0.322-.138A0.837,0.837,0,0,1,3.1,26.527a0.152,0.152,0,0,1-.092-0.161A2.973,2.973,0,0,1,2.642,26.2a0.209,0.209,0,0,0-.115.046c-0.009,0-.084-0.069-0.092-0.069a0.228,0.228,0,0,1-.161,0A0.394,0.394,0,0,0,2.114,26a0.241,0.241,0,0,1-.161.069L1.93,25.905a0.769,0.769,0,0,0-.437-0.115c-0.072-.108-0.114-0.135-0.184-0.23a0.141,0.141,0,0,0,.046-0.046,0.415,0.415,0,0,1-.092-0.069H1.08a1,1,0,0,0,0-.184c-0.053-.077-0.479-0.25-0.3-0.368a0.4,0.4,0,0,1-.069-0.069c-0.022-.075.075-0.048,0.023-0.092A0.253,0.253,0,0,0,.643,24.57a0.238,0.238,0,0,0-.138-0.046,0.973,0.973,0,0,0,.069-0.276H0.551V24.225A0.289,0.289,0,0,1,.46,24.2v0.714a0.24,0.24,0,0,0-.046.138H0.207V25.007a3.6,3.6,0,0,1-.069-1.013,1.075,1.075,0,0,1-.115-0.575,1.262,1.262,0,0,1,.46-0.207V23.142a0.4,0.4,0,0,1-.046-0.3A0.367,0.367,0,0,0,.643,22.5,0.275,0.275,0,0,1,.574,22.36c0.106-.042.12-0.053,0.115-0.207H0.46a0.475,0.475,0,0,1-.046-0.115,0.3,0.3,0,0,0,.161-0.092H0.689v-0.46a4.809,4.809,0,0,0,.758-0.023c0.014-.046-0.017-0.073,0-0.115a0.543,0.543,0,0,0,.115-0.138,4.467,4.467,0,0,1-.919-0.53l0.138-.921-0.069-.023V19.367H0.735V19.344H0.758v0.023c0.048,0.057.027,0.186,0.069,0.253V19.6c0.067-.085.075-0.206,0.138-0.3a1.8,1.8,0,0,1,.368-0.368,4.023,4.023,0,0,1,1.838-.253V18.607H3.4v0.069H3.538a0.223,0.223,0,0,1,.092-0.253A0.2,0.2,0,0,1,3.745,18.4a0.256,0.256,0,0,1,.069.184,0.117,0.117,0,0,1,.023.069h0.23a0.2,0.2,0,0,1,.115-0.184A3.318,3.318,0,0,1,5.123,18.4c0.3-.064.658,0.025,0.988-0.046A2.937,2.937,0,0,1,6.8,18.308a0.368,0.368,0,0,1,.115.092H7.559V18.308a0.212,0.212,0,0,1,.115-0.069,0.16,0.16,0,0,1,.115,0,0.562,0.562,0,0,1,.046.161,8.978,8.978,0,0,1,1.126,0c0.04-.133.03-0.2,0.207-0.207,0-.095,0-0.143,0-0.276a1.082,1.082,0,0,1,.62-0.115,0.937,0.937,0,0,1,.138.529,0.469,0.469,0,0,1,.184.046,0.552,0.552,0,0,1,.023-0.253,0.625,0.625,0,0,1,.276-0.023v0.023h0.023l-0.046.069h0.092a1.956,1.956,0,0,0,.345-0.023,1.408,1.408,0,0,1,.138-0.115c0.044-.008.033,0.018,0.046,0.023a0.571,0.571,0,0,1,.115.115h0.46c0.022,0.006.009,0.018,0.023,0a1.4,1.4,0,0,0,.023-0.529h0.322V17.571a0.559,0.559,0,0,1,.322-0.069,0.241,0.241,0,0,0,.161.069v0.092h4.48l0.115-.575H15.416a13.8,13.8,0,0,1-1.4.023,2.046,2.046,0,0,1-.62.023c-0.079-.021-0.184-0.071-0.276-0.092a0.25,0.25,0,0,0-.046-0.069l0.253-.9H12.981V15.937a0.5,0.5,0,0,0,.391-0.069,0.361,0.361,0,0,1-.184-0.115,0.532,0.532,0,0,1-.6-0.322,1.091,1.091,0,0,1-.3-0.023V15.315h0.115V15.223h-1.08V15.177a0.12,0.12,0,0,1,0-.115h1.08a0.2,0.2,0,0,1,.115-0.023,1.948,1.948,0,0,0,.092-0.391,0.893,0.893,0,0,1,.574-0.253,0.42,0.42,0,0,0,.023.207,1.209,1.209,0,0,0,.459-0.3,0.226,0.226,0,0,0-.023-0.207A1.369,1.369,0,0,0,13.808,14a0.13,0.13,0,0,0,.115.023,3.171,3.171,0,0,1,.253-0.714c0.126-.084.715-0.044,0.781-0.138a0.3,0.3,0,0,1-.161-0.207,0.2,0.2,0,0,0,.023-0.115,3.142,3.142,0,0,1,1.08-.046c0.078,0.052.2,0.036,0.276,0.092s0.086,0.184.161,0.23a1.7,1.7,0,0,0,.758.023V13.036c0.049-.03.072-0.087,0.115-0.115a0.883,0.883,0,0,0,.276-0.092,0.118,0.118,0,0,0,.023-0.069h0.069L17.6,12.875h2.527a0.447,0.447,0,0,1,.23.207l-0.023.069H20.4a0.424,0.424,0,0,1,.207-0.023l0.023-.207,0.092-.069a2.141,2.141,0,0,1,.965,0,1.18,1.18,0,0,1,.092.253,0.624,0.624,0,0,0,.276.023,0.11,0.11,0,0,0,.023.069,0.969,0.969,0,0,0,.39.023,2.57,2.57,0,0,1,1.034,0V13.174a6.019,6.019,0,0,0,.161-0.921,0.728,0.728,0,0,1,.207-0.23,0.527,0.527,0,0,1,.345.023,0.378,0.378,0,0,1,.207.461,2.021,2.021,0,0,0,.138.414,1.311,1.311,0,0,1,.643.046c0.062,0.027.121,0.115,0.184,0.138Z" transform="translate(-0.031)"/>
</svg>
