<svg xmlns="http://www.w3.org/2000/svg" width="80" height="40" viewBox="0 0 80 40">
  <defs>
    <style>
      .cls-1 {
        fill: #fff;
        fill-rule: evenodd;
      }
    </style>
  </defs>
  <path id="ussr_pr_1204_ico" class="cls-1" d="M48.329,18.006a1.589,1.589,0,0,1,.658,0,1.718,1.718,0,0,1,.165.249c-0.014.034-.006,1.186,0,1.288a2.326,2.326,0,0,0-.37.208c-0.032.246-.236,0.558-0.206,0.665,0.06,0.1.052,0.076,0.206,0.083a0.956,0.956,0,0,0,.411.125v0.249a2.355,2.355,0,0,1,.535.208,1.323,1.323,0,0,1,1.152-.249,1.554,1.554,0,0,0,.123.457c0.121-.016.051-0.068,0.123,0.041a0.452,0.452,0,0,0-.123.083c0.184,0.29.131,0.813,0.535,0.873a1.3,1.3,0,0,0,.37.79,0.726,0.726,0,0,0,.165-0.582H52.36a0.735,0.735,0,0,0,.206.623H52.36v0.125l0.329,0.041,0.165-.623a5.248,5.248,0,0,1,1.4-.166,1.007,1.007,0,0,1,.247.5,0.766,0.766,0,0,1,.123.291,1.822,1.822,0,0,1,1.152.332,8.359,8.359,0,0,1,.288,1A6.8,6.8,0,0,1,56.72,26.9h0.165v0.083c-0.119.07-.115,0.06-0.123,0.249,0.47-.039.715-0.126,1.234-0.208,0.034-.135-0.02-0.064.082-0.125v1.745a2.946,2.946,0,0,0,.37-0.083V27.645a0.532,0.532,0,0,0,.576-0.166c-0.112-.066-0.034.007-0.041-0.125h0.041V27.313a2.4,2.4,0,0,0,.7-0.083,0.692,0.692,0,0,0,.206-0.291c0.008-.079-0.035-0.169-0.041-0.416a1.049,1.049,0,0,0,.329-0.54l0.247-.042c0.239-.1.037-0.2,0.411-0.208V25.693a1.8,1.8,0,0,1,.041-0.208,0.275,0.275,0,0,1,.165-0.042,0.769,0.769,0,0,1,.041.249,2.267,2.267,0,0,0,.74-0.374,2.673,2.673,0,0,1,1.028-.042v0.166a0.639,0.639,0,0,0,.206.042,0.543,0.543,0,0,1,.041-0.291v0.291H63.26a0.2,0.2,0,0,0,.041.125,0.275,0.275,0,0,1,.164-0.041v0.041H63.424c-0.079.032,0.082,0.042,0.082,0.042,0.088-.041.176,0.022,0.37-0.042a2.035,2.035,0,0,0,1.028.083,2.4,2.4,0,0,0,1.851.582,2.943,2.943,0,0,0,.987-0.041,3.818,3.818,0,0,0,1.727.125L71.733,26.4a6.127,6.127,0,0,1,1.234-.083V26.4a0.577,0.577,0,0,1,0,.415h-0.7a4.723,4.723,0,0,0-1.645-.041l-2.468-.042a5.947,5.947,0,0,1-1.44.125,1.554,1.554,0,0,0-.041.457,7.227,7.227,0,0,1,0,1.205,0.516,0.516,0,0,1,.164.042V28.6H66.674V28.85a1.341,1.341,0,0,0,.411.042A0.733,0.733,0,0,0,67,28.684a0.725,0.725,0,0,1,.37-0.125c0.016,0.105-.024.066,0.123,0.083a0.162,0.162,0,0,0-.082-0.166c-0.04-.135.069-0.088,0.082-0.125a0.956,0.956,0,0,0-.082-0.582h1.357a1.818,1.818,0,0,0-.082.5,1.453,1.453,0,0,0,1.069-.042,0.141,0.141,0,0,1-.082-0.041h0.288v0.041a0.156,0.156,0,0,0-.123.083,3.227,3.227,0,0,0,.617,0,0.814,0.814,0,0,1,.452-0.374,1.382,1.382,0,0,1-.041-0.415h0.7a0.856,0.856,0,0,1,.082-0.706,0.535,0.535,0,0,0,.494.416,0.148,0.148,0,0,1,.082-0.041V27.23s-0.119.055-.082,0.083h0.041a9.674,9.674,0,0,0,.823.582c0.039,0.033.045,0.129,0.082,0.166a0.367,0.367,0,0,1,.247.083v0.083c0.125,0.09.36,0.042,0.493,0.125a0.157,0.157,0,0,0-.123.083,1.357,1.357,0,0,0,.617.125c0.016,0.105-.024.066,0.123,0.083A4.023,4.023,0,0,1,75.6,28.6a0.224,0.224,0,0,0,.123.166,0.276,0.276,0,0,1,.206-0.083v0.042h0.041v0.208a23.041,23.041,0,0,0,2.427.042,12.226,12.226,0,0,1,.987-2.244A1.824,1.824,0,0,0,79.3,25.9l-0.041-.748-0.206-1.247a0.705,0.705,0,0,1-.453,0l0.411-.041c0.026-.163.063-0.151,0.082-0.332H79.26a6.164,6.164,0,0,0,0,.665c-0.108.016-.054-0.031-0.082,0.083a0.282,0.282,0,0,1,.041.166c0.111,0.018.09,0.1,0.082,0.332,0,0,.075.868,0.123,1.08a12,12,0,0,1,.165,2.867,0.488,0.488,0,0,1,.411.582,4.73,4.73,0,0,0-.535,1,0.414,0.414,0,0,0,.247.208v0.041a1.328,1.328,0,0,0-.453.083,3.212,3.212,0,0,0-.37.665c-0.571.947-1.061,2.223-2.057,2.742C74.885,35.06,71.62,35,68.689,35H1.563c-0.1-.948-0.29-2.035-0.37-3.033l-0.37-.083V31.8H0.864V31.759c0.274,0,.3-0.049.288-0.332a4.7,4.7,0,0,1-.165-1.288A2.964,2.964,0,0,1,0,29.474H0.041V29.432c0.314-.038.5-0.2,0.823-0.249V28.975a0.667,0.667,0,0,0,.411-0.291,9.634,9.634,0,0,0,.041-1.7C1.2,26.962,1.225,26.8,1.234,26.565a1.022,1.022,0,0,1-.041-0.374c-0.164.071-.138-0.285-0.247-0.457H1.152a2.036,2.036,0,0,1,0-.457H1.111v0.042c-0.032.08-.041-0.083-0.041-0.083a0.151,0.151,0,0,0,.041-0.083A0.184,0.184,0,0,1,.9,24.986c0.118-.084.041-0.1,0-0.249H1.111l-0.041-.748c0.133-.034.063,0.02,0.123-0.083,0.029-.064.005-0.006,0-0.125H1.275c0.029,0.147.051,0.1,0.082,0.249-0.036.058-.045,0.233-0.082,0.291-0.034-.135.02-0.064-0.082-0.125v0.374H1.316A0.271,0.271,0,0,1,1.357,24.4v0.166a5.2,5.2,0,0,0,.7-0.041v0.083h-0.7a2.142,2.142,0,0,1-.041.831V24.612H1.193a8.785,8.785,0,0,0,.123,1.33l0.041,0.79a1.7,1.7,0,0,1,.206.208c0.143,0.323.056,0.622,0.535,0.623a0.148,0.148,0,0,1,.082-0.041c0-.162-0.02-0.187.082-0.249a0.8,0.8,0,0,1,.165-0.042A0.373,0.373,0,0,0,2.55,26.9H2.674v0.166a0.341,0.341,0,0,1,.206.042H2.674v0.166c2.24,0.085,4.5.239,6.787,0.249V26.939H9.542v0.582H9.625a0.67,0.67,0,0,0,.452,0,0.9,0.9,0,0,1,.041.291H10.53V27.645c0.6-.016,1.328-0.006,1.933,0V27.562c-0.057-.084-0.064-0.249-0.123-0.332a2.969,2.969,0,0,0-1.11-.041l-0.041-.083a0.161,0.161,0,0,0,.082-0.125h-0.7a2.84,2.84,0,0,1-.864.042V26.856c1.06,0,1.626,0,2.715,0,0.214-1,1.438-1.03,2.632-.873a3.28,3.28,0,0,0,.452-0.79h1.316a0.27,0.27,0,0,1,.041-0.166v0.166a3.649,3.649,0,0,0,.617.083v1.994h0.041a7.753,7.753,0,0,1,.864-0.249c0.083-.111-0.04-0.1.165-0.125v0.042a0.15,0.15,0,0,0-.041.083l0.247,0.041v0.083a1.579,1.579,0,0,1,.864.166,2.452,2.452,0,0,1,.782.042,1.078,1.078,0,0,1,.329-0.042,0.289,0.289,0,0,0,.123.083,5.984,5.984,0,0,1,.987-0.083,11.7,11.7,0,0,0,1.357-.374v0.125a0.341,0.341,0,0,1,.206.042H23.2v0.249h0.041a8.919,8.919,0,0,1,1.851,0c-0.006.163-.092,0.108,0.082,0.166,0.077-.078.535-0.374,0.535-0.374a0.711,0.711,0,0,1,.041-0.249H25.172V26.856h0.617V26.773a2.663,2.663,0,0,1,.041-0.665h0.7c0.078,0.179.1,0.215,0.37,0.208a2.826,2.826,0,0,1,.082.457,0.622,0.622,0,0,1-.452.249v1.2a0.853,0.853,0,0,1,.123.54c-0.159,0-.122-0.027-0.123.208a4.383,4.383,0,0,0,.617-0.042l0.082-1.2a21.645,21.645,0,0,1,2.632-.374V26.9a0.2,0.2,0,0,1,.123.042,0.9,0.9,0,0,0-.041.416,22.584,22.584,0,0,1,2.674-.208c0.191,0,.848-0.088.864-0.083a7.639,7.639,0,0,1,.9.249,4.772,4.772,0,0,0,.411.291V26.939h0.082v0.914c0.25,0.288.254,1.093,0.7,1.122V28.892H35.455a1.631,1.631,0,0,0-.041-0.374c0.119,0.053.085-.047,0.123,0.125a0.15,0.15,0,0,0-.041.083h0.082a2.222,2.222,0,0,0,.864.041V28.518h0.082v0.125a0.213,0.213,0,0,0-.041.125l0.987-.041V28.643a0.214,0.214,0,0,1-.041-0.125H37.47V28.56a0.705,0.705,0,0,1,.082.416h0.576a8.5,8.5,0,0,1,.494-1.911c0.216-.67.278-1.283,0.494-1.953a3.513,3.513,0,0,0,.247-0.914H39.28a0.755,0.755,0,0,0-.37-0.042,0.328,0.328,0,0,0,0-.208,1.025,1.025,0,0,1-.288-0.042,1.116,1.116,0,0,1-.082.249,1.49,1.49,0,0,1,.247.457H38.54a1.166,1.166,0,0,1-.247,0V24.529a0.847,0.847,0,0,0,.164-0.457,1.516,1.516,0,0,0-.123-0.249,0.661,0.661,0,0,0,.535-0.083,20.094,20.094,0,0,1-2.3-.706c-1.052-.354-2.076-0.523-3.126-0.873a7.734,7.734,0,0,0-2.3-.582,0.447,0.447,0,0,1-.123-0.291,0.5,0.5,0,0,1,.37-0.125,0.548,0.548,0,0,0,.411.083V21.122h0.165v0.041c-0.091.1-.041,0.118,0,0.291,0.9,0.31,1.825.48,2.756,0.79a20.94,20.94,0,0,0,2.55.748,1.049,1.049,0,0,1-.041-0.457,1.183,1.183,0,0,0,.823-0.54h0.041v0.042h0.041a3.852,3.852,0,0,0-.411.457,1.506,1.506,0,0,1,.041.332c-0.04.111-.155,0.121-0.206,0.249h0.041a6.157,6.157,0,0,0,1.6.5,0.118,0.118,0,0,0,.041.042l-0.041.208h0.288a0.631,0.631,0,0,0,.164-0.374,0.5,0.5,0,0,1-.082-0.457c-0.109-.012-0.086-0.034-0.082-0.249a2.8,2.8,0,0,0-.946-1.371,0.119,0.119,0,0,1-.164,0,0.15,0.15,0,0,1-.041-0.083,3.412,3.412,0,0,0,.288-0.706,0.7,0.7,0,0,0,.288.125V20.54a2.624,2.624,0,0,1-.206-0.706c-0.14-.426-0.324-0.94-0.453-1.371a1.613,1.613,0,0,0-.164-0.582h0.123V17.756H38.087a0.118,0.118,0,0,1,.041-0.041c-0.034-.231.008-1.062,0-1.5-0.1-.016-0.065.024-0.082-0.125a1.56,1.56,0,0,1-.082-0.249h0.165l-0.082-1.7a3.508,3.508,0,0,1-.946-0.332l-0.041.208a0.251,0.251,0,0,0-.165-0.083,0.533,0.533,0,0,0-.041-0.166h1.028V13.684a3.227,3.227,0,0,0-.411-0.54,0.275,0.275,0,0,1-.164.042v-0.54h0.041a1.123,1.123,0,0,0,.658.083V12.147c-0.732.165,0.006-1.076-.206-1.454-0.065-.116-0.142-0.02-0.165-0.249,0.241-.111.224-0.3,0.206-0.665-0.127-.085-0.136-0.249-0.247-0.332a0.567,0.567,0,0,1-.37-0.249h0.165a0.539,0.539,0,0,1,.288-0.042V8.823H37.635a0.148,0.148,0,0,1-.082.042V8.74A0.342,0.342,0,0,1,37.347,8.7h0.165a0.27,0.27,0,0,1,.041-0.166V8.7h0.123L37.594,7.659H37.347a0.2,0.2,0,0,1-.041.125,0.533,0.533,0,0,0-.041-0.166A0.514,0.514,0,0,0,37.594,7.2a0.65,0.65,0,0,1-.041-0.416,0.548,0.548,0,0,1-.165-0.332,0.161,0.161,0,0,0,.165-0.125H37.388a0.165,0.165,0,0,1-.041-0.083c0.1-.132.08-0.63,0.165-0.748a0.208,0.208,0,0,1,.123-0.042c-0.008.27,0.188,0.634,0.206,1.039a0.261,0.261,0,0,0-.206.042,0.214,0.214,0,0,1,.041.125,0.136,0.136,0,0,1,.123,0,1.324,1.324,0,0,0-.041.665l0.329,0.291a0.15,0.15,0,0,0-.041.083,0.345,0.345,0,0,0-.123-0.083c-0.008.334-.075,0.322-0.082,0.748h0.082a0.35,0.35,0,0,1,.041-0.208,1.655,1.655,0,0,1-.041.5,0.341,0.341,0,0,1,.206.042,0.43,0.43,0,0,0-.247.042,1.31,1.31,0,0,1,0,.374,0.877,0.877,0,0,0,.288.042V8.864h0.165V8.906a0.362,0.362,0,0,0-.041.208h0.164V9.238H38.17V9.654h0.082a0.543,0.543,0,0,1,.041-0.291,2.328,2.328,0,0,1,.123.54l-0.123.042V10.36h0.123a0.438,0.438,0,0,1,.082.249l-0.164.083a0.5,0.5,0,0,1,.123.415,0.457,0.457,0,0,0-.206.5,8.352,8.352,0,0,1,.041,1.953q0.082,2.2.164,4.4a18.037,18.037,0,0,0,2.1-.166,1.694,1.694,0,0,1,.082-0.582c-0.131-.042-0.256-0.166-0.37-0.208-0.5-.184-1.331.173-1.769-0.125a0.748,0.748,0,0,0,.329-0.125h4.278v0.249H41.378a1.14,1.14,0,0,0-.206.291h0.165v0.5h2.756v0.083H44.051c-0.073.05-.072,0-0.123,0.041-0.084.068,0.029,0.049-.082,0.083V17.964H43.8v0.042H43.764L43.8,18.089H43.764c-0.073.05-.072,0-0.123,0.042,0.01,0.04.032,0.016,0,.042-0.073.05-.072,0-0.123,0.042,0.01,0.04.032,0.016,0,.041-0.073.05-.072,0-0.123,0.042,0.01,0.04.032,0.016,0,.042-0.073.05-.072,0-0.123,0.042,0.01,0.04.032,0.016,0,.042-0.073.05-.072,0-0.123,0.041,0.045,0.55,0,1.461,0,2.285,0.234,0,.245,0,0.494,0v0.083a1.65,1.65,0,0,0,.165.582,0.144,0.144,0,0,1,.041-0.083,2.411,2.411,0,0,1,.165-1.163l-0.082-.041c-0.068-.046-0.087.04-0.164-0.083a1.137,1.137,0,0,1,.576-0.54l0.041,0.291H45a1.838,1.838,0,0,1-.123.665h0.535V20.416a4.566,4.566,0,0,0,.37-0.374h0.946V20c0.063-.062.1-0.146,0.165-0.208a1.982,1.982,0,0,1-.165-0.706,1.6,1.6,0,0,1,.617-0.249,0.359,0.359,0,0,0,.206.208A2.006,2.006,0,0,1,47.63,18.3c0.084-.273.284-0.308,0.658-0.291V6a2.781,2.781,0,0,1,.041-1V18.006ZM37.47,7.825a0.581,0.581,0,0,1,0,.457V7.825ZM38.046,7.95a0.581,0.581,0,0,1,0,.457V7.95Zm-0.7.083a0.581,0.581,0,0,1,0,.457V8.033ZM31.136,23.075H31.3a0.6,0.6,0,0,1,.041.166,0.556,0.556,0,0,0,0,.54,0.251,0.251,0,0,0-.082.083,0.14,0.14,0,0,1-.082-0.042c-0.118-.047-0.076-0.007-0.123-0.125H31.1c0.072,0.055.066,0.072,0.123,0.041a0.282,0.282,0,0,0,.041-0.166A0.626,0.626,0,0,1,31.136,23.075Zm48,0.249a0.282,0.282,0,0,1,.041.166H79.136A0.326,0.326,0,0,1,79.136,23.324Zm-0.823.623a0.528,0.528,0,0,1,.288.042,0.836,0.836,0,0,1-.452,0A0.264,0.264,0,0,0,78.314,23.947Zm-15.054,1.5h0.082v0.042A0.141,0.141,0,0,1,63.26,25.443Zm7.4,1.5a0.2,0.2,0,0,1,.123.041A0.2,0.2,0,0,1,70.663,26.939Zm0.165,0a0.2,0.2,0,0,1,.123.041A0.2,0.2,0,0,1,70.828,26.939Zm0.165,0h0.082a0.116,0.116,0,0,1-.041.041C71.005,26.986,70.953,26.983,70.992,26.939Zm0.123,0a0.67,0.67,0,0,1,.329.083H71.116V26.939ZM58.2,27.064a0.2,0.2,0,0,1,.123.042A0.2,0.2,0,0,1,58.2,27.064Z" transform="translate(0 -0.031)"/>
</svg>
