<?xml version="1.0" encoding="utf-8"?>
<!-- Generator: Adobe Illustrator 16.0.0, SVG Export Plug-In . SVG Version: 6.00 Build 0)  -->
<!DOCTYPE svg PUBLIC "-//W3C//DTD SVG 1.1//EN" "http://www.w3.org/Graphics/SVG/1.1/DTD/svg11.dtd">
<svg version="1.1" id="Layer_1" xmlns="http://www.w3.org/2000/svg" xmlns:xlink="http://www.w3.org/1999/xlink" x="0px" y="0px"
	 width="39.938px" height="40px" viewBox="0 0 39.938 40" enable-background="new 0 0 39.938 40" xml:space="preserve">
<path id="Color_Fill_1" fill="#FFFFFF" d="M5.769,15.7c0.317-0.042,0.64-0.027,0.951,0.045v0.09h2.849v-0.266h0.05
	c0.054,0.034,0.117,0.049,0.181,0.045c0.068,0.058,0.116,0.138,0.136,0.226h2.034c0.2-0.182,0.455-0.293,0.725-0.316
	c0-0.049,0.016-0.096,0.046-0.135c0.151-0.128,0.319-0.234,0.5-0.316v0.045c-0.091,0.045-0.157,0.127-0.182,0.226h0.136
	c0.035-0.031,0.101-0.059,0.137-0.09c0.186-0.14,0.302-0.354,0.316-0.587c0.05,0.001,0.098-0.015,0.137-0.045
	c0.033-0.054,0.049-0.117,0.045-0.18h-0.042c-0.07,0.109-0.163,0.202-0.272,0.271v-0.09c0.315-0.283,0.438-0.723,0.317-1.128
	c-0.041-0.084-0.057-0.178-0.045-0.271h0.136c-0.025,0.3-0.045,0.828-0.045,1.309h0.045v-0.047c0.032-0.057,0.079-0.104,0.136-0.135
	V14.4c0.058,0.079,0.09,0.173,0.091,0.271c0.132-0.049,0.269-0.079,0.408-0.09c-0.012-0.093,0.004-0.187,0.045-0.271v0.271
	c0.442-0.064,0.895-0.018,1.314,0.135c0.393,0.048,0.79,0.033,1.178-0.045c0.378-0.008,0.757,0.007,1.133,0.045
	c-0.009-0.078,0.007-0.157,0.045-0.226v0.226c0.318,0.005,0.636-0.01,0.951-0.045v0.181c-1.089-0.046-2.181-0.001-3.262,0.135v0.181
	c-0.094,0.063-0.204,0.095-0.317,0.09c-0.13,0.049-0.271,0.064-0.408,0.045v0.316h-0.5l-0.045-0.226h-0.135v0.045H14.51
	c0.002,0.126-0.029,0.25-0.091,0.361c0.896,0.052,1.718,0.519,2.22,1.264c0.238-0.055,0.486-0.055,0.726,0l0.045-0.271H17.5
	c0.264,0.083,0.538,0.128,0.814,0.135c0.108,0.039,0.214,0.084,0.317,0.135c0.305,0.021,0.611-0.01,0.906-0.09v0.09h0.5
	c0.148-0.07,0.285-0.162,0.407-0.271c0.362-0.057,0.731-0.042,1.088,0.045l0.091,0.226c0.168-0.011,0.337,0.004,0.5,0.045
	c0.066,0.194,0.05,0.406-0.045,0.587c-0.248,0.15-0.842-0.062-1.087,0.09c1.71,0,3.274,0.045,4.847,0.045l2.13,0.043
	c1.017-0.18,2.052-0.226,3.08-0.135v0.135h0.091c0.236,0.063,0.482,0.078,0.726,0.045h5.391c0.845-0.201,1.715-0.277,2.582-0.226
	v0.045h0.045c0.082,0.329,0.066,0.674-0.045,0.993c-0.509,0.083-1.027,0.097-1.54,0.045c-0.688-0.214-1.411-0.291-2.129-0.226
	h-3.357c-0.589-0.033-1.18-0.019-1.767,0.045v0.136c-1.027,0.092-2.062,0.047-3.076-0.135l-1,0.045
	c-0.877-0.023-1.754,0.007-2.627,0.09l-0.544-0.045h-2.811v0.09c-0.067,0.026-0.864-0.045-1.133-0.045h-2.943v0.045h0.045
	c0.03,0.125,0.075,0.247,0.136,0.361c0.02,0.131-0.095,0.122-0.091,0.316c0.06-0.016,0.121-0.016,0.181,0
	c-0.04,0.102-0.07,0.208-0.091,0.316c-0.217,0.191-0.374,0.442-0.453,0.722c0.91-0.015,1.717-0.078,2.356-0.046
	c0.584,0.09,1.149,0.272,1.676,0.543c0.399,0.132,1.083,0.006,1.399,0.09c0.642,0.142,1.293,0.232,1.948,0.271
	c0.252,0.368,0.598,0.664,1,0.857c-0.024,0.024-0.057,0.04-0.091,0.045c-0.245,0.232-0.984,0.388-1.042,0.768
	c0.022,0.104,0.022,0.211,0,0.315c-0.2,0.135-0.3,0.412-0.5,0.542h-0.177c-0.101,0.05-0.211,0.218-0.317,0.271H22.71
	c-0.101,0.051-0.217,0.211-0.317,0.271c-0.263,0.157-0.569,0.181-0.814,0.36c-0.268,0.211-0.556,0.393-0.861,0.543l-0.091-0.045
	c-0.471,0.136-0.963,0.182-1.45,0.135c-0.631,0.078-1.27,0.078-1.9,0c-0.267-0.034-0.556,0.084-0.814,0.045
	c-0.269-0.053-0.543-0.067-0.815-0.045c-0.558,0.033-1.117,0.033-1.676,0c-0.506,0.015-1.077,0.078-1.585,0.045
	c-0.284-0.053-0.573-0.067-0.861-0.045c-0.399,0.066-1-0.008-1.399,0.045l-0.37-0.045c-0.437,0.054-0.878,0.054-1.314,0
	c-0.453-0.059-0.975,0.063-1.358,0l-0.362,0.045c-0.419-0.053-0.992,0.023-1.4-0.045c-0.181,0.02-0.363,0.02-0.544,0
	C4.326,25.181,3.9,24.909,3.502,24.6c-0.232-0.132-0.682-0.293-1-0.5c-0.111-0.07-0.163-0.283-0.272-0.36
	c-0.089,0.024-0.183,0.024-0.271,0c-0.051-0.072-0.097-0.147-0.136-0.227c0.047-0.112,0.1-0.213,0.14-0.313l-0.136-0.045
	c-0.154-0.006-0.308,0.009-0.457,0.045c-0.089-0.073-0.204-0.106-0.317-0.091c-0.151,0.088-0.328,0.119-0.5,0.091
	c-0.549-0.181-0.683-1.259-0.402-1.853c0.07-0.147,0.238-0.18,0.317-0.316c-0.064-0.019-0.115-0.067-0.136-0.131h0.046v-0.049
	c0.088,0.097,0.196,0.174,0.316,0.226C0.669,20.982,0.675,20.9,0.649,20.76c0.101,0.018,0.406,0,0.635,0l0.086-0.135
	c-0.036-0.072-0.065-0.147-0.086-0.225c-0.101-0.151-0.26-0.217-0.362-0.361h0.226c0.26,0.277,0.566,0.507,0.906,0.677v0.044h0.045
	v-0.135c0.339,0.008,0.676-0.038,1-0.135c0.364,0.123,0.753,0.154,1.132,0.09c0.536-0.115,1.084-0.16,1.631-0.135
	c0.753,0.132,1.525,0.102,2.266-0.09H3.548v-0.047H3.502c-0.003-0.106-0.018-0.213-0.045-0.315H3.412
	c-0.021,0.323-0.191,0.336-0.544,0.315c-0.05-0.048-0.113-0.08-0.182-0.09V19.9c0.092-0.15,0.125-0.328,0.091-0.5
	c-0.175,0.041-0.334,0.135-0.452,0.271v-0.129c0.071-0.035,0.122-0.103,0.136-0.181l-0.362-0.316l-0.136,0.09v-0.09
	c0.029-0.039,0.045-0.086,0.045-0.135c-0.102,0.042-0.216,0.042-0.317,0h0.091c0.038-0.039,0.068-0.085,0.088-0.136l-0.45-0.135
	c-0.089-0.111-0.165-0.232-0.227-0.361c-0.101-0.056-0.206-0.101-0.316-0.135C0.825,18.108,0.827,18,0.784,17.962
	C0.691,17.94,0.6,17.91,0.512,17.872c0.065-0.109,0.097-0.235,0.091-0.362c0.423-0.065,0.816-0.254,1.132-0.542
	c0.677-0.416,1.362-0.714,2.039-1.128c0.2-0.121,0.39-0.34,0.589-0.451c0.443-0.155,0.857-0.384,1.224-0.677V12.5h0.046
	c0.055,0.736,0.055,1.476,0,2.212h0.045c0.213-0.143,0.475-0.192,0.725-0.135v0.045c-0.034,0.004-0.066,0.02-0.091,0.045h0.137
	c0,0,0.02-0.179,0.045-0.09v0.045c0.046,0.114,0.062,0.239,0.045,0.361c-0.09,0.021-0.16,0.091-0.182,0.181
	c0.087,0.07,0.126,0.111,0.092,0.181c-0.025,0.024-0.058,0.04-0.092,0.045c-0.021-0.05-0.051-0.096-0.087-0.136
	C6.038,15.311,5.851,15.478,5.769,15.7z M13.469,14.707c0.051,0.089,0.027,0.082,0,0.181h-0.046V14.8
	c0.024-0.023,0.04-0.054,0.046-0.088V14.707z M16.142,14.797c0.311,0.092,0.641,0.092,0.951,0H16.142L16.142,14.797z M15.598,15.068
	c0.051,0.047,0.13,0.047,0.181,0H15.598z M13.514,15.113v0.09h0.045c-0.005-0.033-0.021-0.063-0.045-0.085V15.113z M14.375,15.203
	c0.078,0.04,0.058,0.04,0.136,0H14.375L14.375,15.203z M4.862,16.061c-0.064,0.042-0.112,0.107-0.136,0.181
	c0.048,0.025,0.202-0.132,0.135-0.176L4.862,16.061z M4.5,16.287c-0.04,0.038-0.071,0.084-0.091,0.135h0.09
	c0.039-0.038,0.07-0.084,0.091-0.135H4.5L4.5,16.287z M4.183,16.468v0.09h0.044v-0.041h0.042c-0.023-0.024-0.054-0.04-0.087-0.045
	L4.183,16.468z M20.399,16.879l-0.045,0.135h0.09c0.04,0.029,0.088,0.044,0.137,0.045l0.045-0.181L20.399,16.879L20.399,16.879z
	 M20.669,17.059h0.544c-0.001-0.049,0.016-0.096,0.045-0.135c0.06,0.152,0.07,0.131,0.271,0.135
	c0.001-0.049-0.015-0.096-0.045-0.135c-0.084-0.041-0.179-0.056-0.271-0.045c-0.167,0.009-0.334,0.009-0.5,0v0.045h-0.044V17.059z
	 M3.638,16.924v0.09h0.136v-0.045L3.638,16.924z M2.551,17.285c0,0.1-0.01,0.032,0.091,0.045v-0.045H2.551z M2.324,17.42
	c-0.115,0.108-0.256,0.186-0.408,0.226v0.045h0.092c0.115-0.108,0.255-0.186,0.408-0.226V17.42H2.324L2.324,17.42z M3.411,17.781
	l-0.042,0.136h0.043v-0.09h0.045v-0.046H3.411L3.411,17.781z M38.611,17.917V18.5h0.317v-0.583H38.611L38.611,17.917z
	 M39.291,17.917V18.5h0.271v-0.09c-0.058-0.162-0.058-0.338,0-0.5H39.29L39.291,17.917z M38.291,18.504
	c-0.032-0.179-0.032-0.363,0-0.542h-0.315v0.09c-0.046,0.115-0.062,0.239-0.045,0.361c0.037,0.022,0.068,0.053,0.091,0.09h0.272
	L38.291,18.504z M2.776,18.82c0,0.049,0.016,0.096,0.045,0.135v-0.136H2.778L2.776,18.82z M2.776,19.091v0.09h0.048V19.09H2.778
	L2.776,19.091z M3.32,19.181c0,0.048,0.016,0.096,0.046,0.135C3.365,19.268,3.351,19.22,3.32,19.181L3.32,19.181z M3.32,19.768v0.09
	h0.093v-0.09H3.32L3.32,19.768z M0.24,21.032c0.028,0.039,0.044,0.087,0.045,0.136H0.241L0.24,21.032L0.24,21.032z M0.285,21.348
	c-0.092,0.198-0.139,0.414-0.137,0.633h0.047c0.113-0.114,0.219-0.234,0.317-0.361C0.459,21.512,0.381,21.42,0.285,21.348
	L0.285,21.348z M0.15,22.3c0.006,0.223,0.068,0.44,0.182,0.632c0.039,0.029,0.087,0.045,0.136,0.045
	c0.144-0.017,0.282-0.063,0.408-0.135C0.657,22.643,0.369,22.492,0.15,22.3z M0.65,22.48c0.056,0.065,0.116,0.126,0.182,0.181H0.92
	l0.049-0.185h-0.32L0.65,22.48z M1.058,22.616c0.025,0.024,0.057,0.04,0.091,0.045c-0.024-0.026-0.057-0.044-0.093-0.05
	L1.058,22.616z M1.692,22.887c0.01,0.063-0.037-0.018-0.045,0.045c-0.087,0.035,0.091,0.045,0.091,0.045
	c-0.004-0.036-0.021-0.069-0.048-0.095L1.692,22.887z M22.529,23.288c0.025,0.024,0.057,0.04,0.092,0.045
	C22.595,23.309,22.564,23.293,22.529,23.288z M22.574,23.378c0.074,0.05,0.048,0.08,0.091,0h-0.097H22.574z M22.755,23.423v0.09
	H22.8v-0.09H22.755z M22.347,23.559c-0.047,0.06-0.109,0.106-0.181,0.135v0.047h0.045c0.045,0.091,0.128,0.157,0.227,0.181v-0.046
	c0.024-0.024,0.04-0.057,0.045-0.09C22.427,23.725,22.401,23.623,22.347,23.559L22.347,23.559z M22.256,23.874h-0.135
	c-0.018-0.118,0.033-0.06-0.092-0.09v0.046h-0.045c0.076,0.053,0.125,0.135,0.137,0.227C22.23,23.963,22.228,24.054,22.256,23.874
	L22.256,23.874z M21.984,23.919h-0.135c-0.022,0.036-0.054,0.067-0.091,0.09v0.045h0.045l0.091,0.136
	c0.061-0.03,0.121-0.061,0.182-0.09C22.012,24.063,21.976,23.992,21.984,23.919L21.984,23.919z M14.6,24.145
	c-0.067,0.264-0.191,0.51-0.362,0.723c-0.015,0.059-0.015,0.121,0,0.181h0.182V25c-0.037-0.04-0.068-0.086-0.091-0.135
	c0.101-0.119,0.251-0.186,0.407-0.182v0.09c0.095,0.119,0.059,0.089,0.046,0.271h0.181c0.003-0.121,0.018-0.242,0.045-0.361h0.317
	c0.033,0.117,0.048,0.239,0.045,0.361h0.181c-0.005-0.122,0.011-0.244,0.045-0.361c0.107-0.004,0.215,0.012,0.317,0.045
	c-0.117-0.174-0.18-0.377-0.182-0.586c-0.241-0.019-0.474-0.132-0.68-0.136c-0.139,0-0.269,0.12-0.45,0.14L14.6,24.145z
	 M17.726,25.045h0.136l0.046-0.361h0.316v0.182c0.049-0.001,0.097,0.015,0.136,0.045c-0.028,0.039-0.044,0.086-0.045,0.135h0.137
	l0.045-0.361h0.316v0.182c0.05-0.001,0.098,0.015,0.137,0.045c-0.029,0.039-0.045,0.086-0.046,0.135h0.137
	c0.01-0.145,0.057-0.284,0.136-0.406c-0.136-0.18-0.186-0.411-0.136-0.632h-0.5c-0.11,0.088-0.287,0.101-0.408,0.181
	c-0.087,0.239-0.227,0.455-0.408,0.633c0.016,0.075,0.017,0.152,0.003,0.229L17.726,25.045z M21.626,24.052
	c0,0.101-0.01,0.032,0.091,0.046v-0.041h-0.094L21.626,24.052z M3.826,24.098v0.09H3.91V24.1H3.82L3.826,24.098z M21.357,24.098
	l-0.045,0.226c0.076,0.07,0.17,0.117,0.272,0.135v-0.041c-0.056-0.071-0.079-0.2-0.136-0.271c-0.026-0.026-0.061-0.043-0.098-0.047
	L21.357,24.098z M21.669,24.146c-0.034,0.039-0.058,0.051-0.091,0.09c0.023,0.024,0.039,0.056,0.045,0.09h0.091
	C21.738,24.182,21.813,24.262,21.669,24.146z M3.458,24.236c0.054,0.119-0.041,0.08,0.091,0.135
	C3.543,24.313,3.508,24.263,3.458,24.236L3.458,24.236z M11.34,25.049c0.049,0.001,0.097-0.016,0.136-0.045
	c-0.037-0.04-0.067-0.086-0.091-0.135c0.21,0,0.17,0.074,0.181-0.182h0.317l0.045,0.361C11.98,25.05,12.03,25.032,12.069,25
	c-0.04-0.039-0.073-0.083-0.1-0.132c0.142-0.02,0.252-0.13,0.272-0.271c-0.034-0.055-0.05-0.118-0.046-0.182l-0.5-0.09
	C11.535,24.544,11.414,24.789,11.34,25.049L11.34,25.049z M3.594,24.372v0.09c0.034,0.005,0.066,0.021,0.091,0.045l0.136-0.045
	c-0.024-0.024-0.057-0.04-0.091-0.045C3.691,24.388,3.642,24.372,3.594,24.372L3.594,24.372z M21.306,24.417
	c-0.015,0.063,0.064,0.065,0.091,0.09C21.428,24.459,21.318,24.43,21.306,24.417L21.306,24.417z M3.869,24.462
	c0,0.128-0.008,0.131,0.181,0.181v-0.136L3.869,24.462z M6.719,24.688v0.182c0.083,0.02,0.14,0.096,0.136,0.181h0.09v-0.182
	c-0.094-0.144-0.2-0.279-0.316-0.406v0.09c-0.051,0.027-0.085,0.078-0.091,0.136H6.719L6.719,24.688z M9.029,24.869h0.141v0.181
	h0.087v-0.317c0.024-0.023,0.04-0.056,0.045-0.09c-0.066-0.043-0.1-0.16-0.136-0.09C9.072,24.63,9.021,24.747,9.029,24.869
	L9.029,24.869z M21.215,24.508v0.045h-0.046c-0.087,0.035,0.091,0.045,0.091,0.045v-0.046h0.045
	C21.281,24.527,21.249,24.512,21.215,24.508L21.215,24.508z M4.092,24.689v0.09l0.136,0.045v-0.09H4.182
	c-0.024-0.025-0.057-0.041-0.091-0.047L4.092,24.689z M6.492,24.734c-0.03,0.087-0.046,0.179-0.045,0.271h0.045
	c0.051-0.081,0.11-0.157,0.177-0.228H6.628v-0.045H6.492V24.734z M11.656,24.734c-0.03,0.087-0.046,0.179-0.046,0.271h0.046v0.045
	h0.045V25c0.066-0.061,0.114-0.139,0.136-0.227h-0.045v-0.041h-0.136V24.734z M12.2,24.734V25h0.136
	c0.005-0.034,0.021-0.066,0.045-0.09c-0.005-0.034-0.021-0.066-0.045-0.09c-0.067-0.112,0.01-0.049-0.136-0.088V24.734z
	 M14.51,24.734c-0.028,0.104-0.028,0.212,0,0.315c0.136-0.045,0.12,0.019,0.181-0.09c0.018-0.074,0.018-0.151,0-0.226H14.51z
	 M15.099,24.734c-0.03,0.087-0.045,0.179-0.045,0.271h0.045v0.045c0.049-0.003,0.096-0.019,0.136-0.045
	c0.038-0.069,0.054-0.147,0.045-0.226h-0.045v-0.047h-0.136V24.734z M15.643,24.734V25c0.059,0.021,0.123,0.021,0.182,0
	c0.033-0.055,0.049-0.117,0.045-0.182c-0.024-0.023-0.04-0.056-0.045-0.09h-0.182V24.734z M17.999,24.734
	c-0.021,0.104-0.021,0.211,0,0.315c0.048-0.003,0.095-0.019,0.136-0.045c0.037-0.069,0.053-0.147,0.045-0.226h-0.046v-0.047h-0.136
	L17.999,24.734z M18.588,24.734c-0.021,0.104-0.021,0.211,0,0.315c0.048-0.003,0.095-0.019,0.136-0.045
	c0.038-0.069,0.054-0.147,0.045-0.226h-0.046v-0.047h-0.136L18.588,24.734z M19.132,24.734l0.045,0.315
	c0.049-0.003,0.096-0.019,0.136-0.045c0.057-0.071,0.029-0.022,0-0.09c-0.008-0.097-0.085-0.174-0.182-0.183L19.132,24.734z
	 M9.347,24.779c-0.023,0.088-0.023,0.182,0,0.271h0.044c0.008-0.184,0.054-0.149-0.045-0.272L9.347,24.779z M15.915,24.779v0.09
	c0.072-0.055,0.054-0.02,0-0.092V24.779z M6.315,24.824c-0.027,0.072-0.042,0.148-0.045,0.226h0.086
	c0.01-0.078-0.006-0.157-0.045-0.227L6.315,24.824z M8.897,24.824c-0.003,0.078,0.013,0.155,0.045,0.226V25
	c0.034-0.055,0.05-0.117,0.045-0.182H8.893L8.897,24.824z M8.806,24.869L8.757,25h0.046c0.002-0.128,0.043-0.059,0-0.132
	L8.806,24.869z M6.586,24.914c-0.001,0.049,0.016,0.096,0.045,0.135V25c0.024-0.024,0.04-0.057,0.045-0.09H6.583L6.586,24.914z
	 M11.252,24.914V25h0.045c-0.006-0.033-0.022-0.064-0.048-0.087L11.252,24.914z M14.061,24.914c0.012,0.049-0.091,0.092,0,0.135
	c0,0.061,0.045-0.09,0.045-0.09l0.045-0.045h-0.094H14.061z M15.961,25.049h0.181V25c-0.056-0.039-0.116-0.069-0.181-0.09v0.135
	V25.049z M9.483,24.959v0.09h0.044v-0.09H9.483L9.483,24.959z M11.115,24.959l-0.046,0.09c0.078-0.064,0.044-0.091,0.044-0.091
	L11.115,24.959z M17.547,24.959l-0.045,0.09c0.077-0.064,0.043-0.091,0.043-0.091L17.547,24.959z M8.576,25
	c0.024,0.024,0.057,0.04,0.091,0.045C8.642,25.021,8.611,25.005,8.576,25z M12.517,25c0.025,0.024,0.057,0.04,0.091,0.045
	C12.583,25.021,12.551,25.005,12.517,25z"/>
</svg>
