<?xml version="1.0" encoding="utf-8"?>
<!-- Generator: Adobe Illustrator 16.0.0, SVG Export Plug-In . SVG Version: 6.00 Build 0)  -->
<!DOCTYPE svg PUBLIC "-//W3C//DTD SVG 1.1//EN" "http://www.w3.org/Graphics/SVG/1.1/DTD/svg11.dtd">
<svg version="1.1" id="Layer_1" xmlns="http://www.w3.org/2000/svg" xmlns:xlink="http://www.w3.org/1999/xlink" x="0px" y="0px"
	 width="40px" height="40px" viewBox="0 0 40 40" enable-background="new 0 0 40 40" xml:space="preserve">
<path id="Color_Fill_1" fill="#FFFFFF" d="M21.373,14.316c-0.223,0-0.8,0.05-0.8,0.05c-0.215-0.19-0.472-0.327-0.749-0.4
	c-0.018-0.542-0.191-0.886-0.2-1.488c0.471,0.039,0.714-0.1,1.5-0.1v0.1c-0.317-0.028-0.637-0.011-0.949,0.05v0.05h1
	c0.411-0.052,0.813-0.152,1.2-0.3c0,0,1.068,0.285,1.1,0.3c-0.008-0.249,0.009-0.499,0.051-0.744
	c0.324-0.165,0.684-0.25,1.049-0.248c0.038,0.412,0.055,0.826,0.05,1.24c0.601,0,0.886,0.01,1.399,0
	c-0.005,0.069-0.021,0.136-0.049,0.2c-0.396-0.07-0.801-0.086-1.201-0.05v0.05c0.625,0.218,1.293,0.286,1.949,0.2
	c0.285,0.004,0.569,0.038,0.848,0.1h1.801c1.222,0,3.023-0.041,4,0.05c0.847,0.079,1.904-0.06,2.6,0v0.24
	c-1.838,0.144-3.92,0-5.943,0c-1.855,0-3.392,0.146-5.243,0.149c-0.177,0.167-0.314,0.372-0.4,0.6
	c0.095,0.099,0.216,0.169,0.351,0.199c0.008-0.145,0.061-0.285,0.149-0.399c0.243-0.068,0.499-0.086,0.749-0.05
	c0.313,0.474,0.99-0.219,1.448,0.05c0.245,0.219,0.479,0.451,0.7,0.694h0.8v0.1h-0.05c-0.172,0.145-0.6,0.023-0.801,0.148
	c0.4,0.33,0.513,1.17,1.201,1.19c0.29-0.091,0.596-0.125,0.899-0.1c0.732-0.075,1.472-0.058,2.2,0.05
	c0.117-0.155,0.219-0.323,0.3-0.5c-0.087-0.059-0.212-0.128-0.3-0.2c0.123-0.063,0.033,0.021,0.1-0.1
	c-0.199-0.079-0.166-0.275-0.15-0.546c0.127-0.123,0.26-0.239,0.4-0.346c0.16-0.057,0.332-0.074,0.5-0.051v0.1
	c0.1,0.391,0.1,0.801,0,1.19c-0.08,0.03-0.164,0.047-0.25,0.05c-0.043-0.031-0.096-0.049-0.15-0.05v0.05
	c0.119,0.141,0.139,0.34,0.051,0.5h0.15c0.076-0.041,0.163-0.059,0.25-0.05v0.15l0.25,0.05c-0.002,0.186,0.121,0.349,0.299,0.4
	c0.137-0.121,0.32-0.176,0.5-0.149v0.646c0.487,0,0.535,0.141,1,0.148v0.595c0.135,0.028,0.258,0.099,0.351,0.2
	c0.114-0.091,0.255-0.143,0.399-0.148c0.094,0.236-0.012,0.328,0.301,0.347c0.079,0.029,0.167-0.011,0.196-0.091
	c0.001-0.003,0.003-0.006,0.003-0.01c-0.271,0.006-0.328,0-0.399-0.199h0.05c0.156-0.12,0.361-0.157,0.549-0.101
	c0.452,0.147,0.926,0.215,1.4,0.2c0.622,0.153,1.26,0.236,1.9,0.248c0.211,0.188,0.322,0.463,0.299,0.744
	c-0.047,0.109-0.064,0.229-0.049,0.347c-0.113,0.036-0.232,0.053-0.351,0.05c-0.033-0.096-0.05-0.197-0.05-0.3
	c-0.134,0.056-0.254,0.14-0.35,0.248c-0.137,0.05-0.234-0.147-0.4-0.1c-0.267,0.127-0.467,0.361-0.549,0.645
	c0.111,0.046,0.214,0.114,0.3,0.2c-0.146,0.346-0.412,0.627-0.749,0.793c-0.479-0.143-0.998-0.051-1.4,0.248
	c-0.8,0.576-1.672,1.881-2.899,1.934c-0.187,1.597-1.633,2.739-3.229,2.553c-0.393-0.047-0.772-0.172-1.115-0.37
	c-0.561-0.354-0.997-0.874-1.248-1.488c-0.031-0.219-0.082-0.435-0.15-0.646c-0.311-0.078-0.633-0.096-0.949-0.049
	c-0.154,0.325-0.436-0.048-0.699,0.148c-0.027,0.02-0.164,0.66-0.201,0.744c-0.186,0.402-0.459,0.758-0.799,1.041
	c-1.771,1.3-4.551,0.363-4.695-1.835h-3c-0.205,1.569-1.643,2.675-3.212,2.47c-1.325-0.174-2.354-1.24-2.481-2.57
	c-0.646,0-0.867,0.144-1.448,0.149c-0.234,1.562-1.69,2.639-3.252,2.404c-0.117-0.018-0.233-0.042-0.348-0.074
	c-1.133-0.333-1.958-1.308-2.1-2.479h-0.1c-0.522,0.133-1.062,0.183-1.6,0.149l-0.1-0.149H2.6c-0.359-0.146-0.694-0.447-1.049-0.595
	h-0.2c-0.072-0.079-0.138-0.161-0.2-0.248c-0.242-0.086-0.463-0.222-0.649-0.399v-0.346h0.35L0.6,20.462
	c-0.08,0.032-0.17,0.032-0.25,0C0.323,20.435,0.306,20.4,0.3,20.361l0.25-0.049c-0.082-0.153-0.039-0.344,0.1-0.446
	c-0.056-0.03-0.093-0.086-0.1-0.149H0.6v0.051h0.05c0.024,0.086,0.058,0.168,0.1,0.248c0.067-0.656-0.374-1.449-0.15-2.033H0.549
	c0,0-0.066,0.143-0.1,0.1v-0.05c-0.027-0.027-0.045-0.063-0.05-0.101c0.034-0.037,0.065-0.11,0.1-0.148
	c0,0.054,0.017,0.106,0.05,0.148v-0.05H0.6c0.174-0.479-0.3-1.024,0.15-1.389c0.06-0.038,0.24-0.06,0.3-0.101
	c-0.138-0.045-0.26-0.131-0.35-0.244h0.1c0.128,0.137,0.33,0.178,0.5,0.1c0.105-0.297,0.296-0.557,0.549-0.744
	c0.494,0.112,1.006,0.112,1.5,0V16.1c1.079,0.006,1.957-0.109,2.946-0.101l0.1-0.2h0.05c0,0.258,0.01,0.21,0.35,0.2
	c-0.011-0.166-0.107-0.119,0.05-0.2c0.052,0.262,0.248,0.219,0.549,0.2c0.447-0.062,0.901-0.062,1.348,0
	c1.014-0.067,2.032-0.067,3.046,0c0.013,0.105,0.047,0.208,0.1,0.3c0.285-0.176,0.282,0.116,0.5,0.051
	c0.123-0.064,0.034,0.021,0.1-0.101c-0.179-0.021-0.126,0.022-0.2-0.101c0.034-0.037,0.066-0.11,0.1-0.148
	c0.343-0.084,0.699-0.102,1.049-0.05V16h0.05v0.148l0.25-0.049c0.154-1.6,0.205-3.206,0.15-4.811c0-1.683,0.05-3.544,0.05-5.306
	V3.156c-0.055-0.38-0.04-0.767,0.046-1.14c-0.01,3.164,0.049,6.436,0.05,9.521c0,1.264-0.226,3.6,0.15,4.463l0.6-0.148
	c0.028-0.015,0.133-0.145,0.15-0.149c0.301-0.002,0.601,0.015,0.9,0.05c0.808,0,1.738-0.02,2.4,0c0.113-0.722,0.13-1.456,0.05-2.182
	h0.1v0.546c0.431,0.604,0.935,1.154,1.5,1.636c0.264-0.01,0.525,0.061,0.749,0.2l0.749-0.05
	C21.553,15.387,21.55,14.83,21.373,14.316z M19.673,12.581c0.027,0.027,0.063,0.044,0.1,0.05c-0.026-0.027-0.061-0.046-0.098-0.053
	L19.673,12.581z M19.673,12.681v0.1h0.05v-0.05h0.05c-0.026-0.028-0.061-0.047-0.098-0.054L19.673,12.681z M18.373,15.755h1.1v-0.1
	c-0.435-0.345-0.641-1.148-1.149-1.388v0.049c0.106,0.471,0.125,0.958,0.053,1.436L18.373,15.755z M31.956,15.605
	c0.007,0.162-0.046,0.322-0.149,0.446H31.76v-0.1c0.084-0.105,0.152-0.224,0.2-0.349L31.956,15.605z M1.644,15.906
	c-0.042,0.078-0.076,0.162-0.1,0.248H1.6c0.027-0.027,0.062-0.045,0.1-0.051c0.005-0.068,0.022-0.137,0.05-0.199h-0.1L1.644,15.906z
	 M0.244,17.691h0.2v0.1H0.4c-0.039-0.04-0.112-0.075-0.15-0.105L0.244,17.691z M0.144,17.84c0.027,0.027,0.044,0.063,0.05,0.1H0.15
	v-0.1H0.144z M0.094,17.939c0.027,0.027,0.045,0.063,0.05,0.101H0.1v-0.101H0.094z M0.044,18.089
	c0.027,0.027,0.044,0.063,0.05,0.101H0.05v-0.101H0.044z M-0.006,18.189c0.063,0.09,0.063,0.209,0,0.3V18.189z M0.044,18.536
	c0.058,0.072,0.058,0.175,0,0.248v-0.257V18.536z M37.8,18.578c0.144,0.105,0.327,0.143,0.5,0.1v-0.05
	C38.132,18.639,37.963,18.621,37.8,18.578z M38.5,18.678c0.375,0.101,0.76,0.15,1.148,0.149v-0.101h-0.5
	C38.938,18.666,38.717,18.648,38.5,18.678L38.5,18.678z M0.1,18.826c0.057,0.072,0.057,0.176,0,0.248V18.826z M0.15,19.126
	c0.032,0.043,0.05,0.095,0.05,0.149H0.15v-0.152V19.126z M0.25,19.374c0.027,0.027,0.044,0.062,0.05,0.101H0.25V19.374z
	 M37.8,20.316c-0.075,0.059-0.112,0.153-0.1,0.248c0.044,0.031,0.096,0.049,0.149,0.049c0.135-0.172,0.186-0.133,0.35-0.049v-0.101
	C38.063,20.424,37.93,20.375,37.8,20.316z M0.8,20.465l0.05,0.2H0.9v-0.2H0.8z M37.5,20.616c-0.217,0.146-0.418,0.313-0.6,0.5H37
	c0.225-0.154,0.493-0.187,0.7-0.347c0.026-0.027,0.044-0.063,0.05-0.101C37.664,20.666,37.58,20.648,37.5,20.616z M37.9,20.766
	l0.05,0.148H38c-0.004-0.065-0.042-0.123-0.1-0.154V20.766z"/>
</svg>
