<svg xmlns="http://www.w3.org/2000/svg" width="40" height="40" viewBox="0 0 40 40">
  <defs>
    <style>
      .cls-1 {
        fill: #fff;
        fill-rule: evenodd;
      }
    </style>
  </defs>
  <path id="Color_Fill_1" data-name="Color Fill 1" class="cls-1" d="M25.776,15h0.1v0.046A0.165,0.165,0,0,1,25.776,15Zm2.387,3.565h0.191a1.161,1.161,0,0,0,.191.231,2.85,2.85,0,0,1,0,.509H28.258l0.048,0.648h0.1a0.374,0.374,0,0,0,.143-0.278c0.053-.077-0.046-0.1.1-0.185,0.06,0.2.194,0.215,0.43,0.232V19.537h0.1l0.048,0.185H29.4v0.139a0.7,0.7,0,0,0,.382-0.185c0.02,0.166-.023.117,0.1,0.185a1,1,0,0,0,.191-0.185l-0.048-.046h0.1v0.139a8.064,8.064,0,0,1,.955,0v0.278a1.628,1.628,0,0,0-.048.694H31.36a0.465,0.465,0,0,1,.334-0.324,0.609,0.609,0,0,0,.668.324l-0.048.648h0.334a3.8,3.8,0,0,1,0-.556,2.055,2.055,0,0,1,1.337-.046c0.049,0.024.141,0.166,0.191,0.185a11.151,11.151,0,0,1,1.193.046l-1.146.046,0.048,0.278a3.162,3.162,0,0,1,1.337,0,3.08,3.08,0,0,0-.62.046v0.046a0.41,0.41,0,0,1,.239.046H35.179a0.408,0.408,0,0,0-.191.139h0.286c0.039-.15-0.023-0.071.1-0.139a0.22,0.22,0,0,0,.048.139,2.125,2.125,0,0,1,.525-0.324H35.8a0.248,0.248,0,0,1-.143.046V21.25a1.406,1.406,0,0,1,.811.046,0.636,0.636,0,0,0-.334.046h0.1c0.353,0.212,1.424-.312,1.862-0.046a0.517,0.517,0,0,0-.286.046h0.1c0.2,0.105,1.764-.2,1.957-0.093V21.111a6.178,6.178,0,0,1-1.623.093l1.671-.185c0.034,0.164.059,0.115,0.1,0.278a2.792,2.792,0,0,0-.334.694c-0.281.548-.616,1.124-0.907,1.667a2.871,2.871,0,0,1-.334.741,2.271,2.271,0,0,1-1.1.093H34.32a0.832,0.832,0,0,0-.143.232,0.216,0.216,0,0,1,.1.232,1.055,1.055,0,0,1-.334.046,0.483,0.483,0,0,1-.1-0.232c0.085-.087.088-0.037,0.048-0.139-0.135-.271-1.176-0.139-1.575-0.139H6.635a0.89,0.89,0,0,0-.859-0.185,13.69,13.69,0,0,1-2.291.046l-0.048.463H3.294a3.409,3.409,0,0,0-.143-0.324,2.729,2.729,0,0,1-.334-0.278,1.042,1.042,0,0,0,.239-0.093A0.437,0.437,0,0,1,3.1,23.8a0.249,0.249,0,0,1,.143-0.046,2.152,2.152,0,0,0,.334.37c0.139-.081.4-0.049,0.525-0.139a0.666,0.666,0,0,0,.1-0.324l-1.384-.139a1.428,1.428,0,0,1-.573.6c0.2,0.089.144,0.268,0.1,0.463h-1a2.589,2.589,0,0,1-.048-0.741,0.327,0.327,0,0,0,.1-0.185,1.478,1.478,0,0,0,.525-0.232H1.527a0.777,0.777,0,0,0-.382-0.046C0.97,22.895.4,22.586,0.811,22.037a0.173,0.173,0,0,0,.1.046,0.292,0.292,0,0,0,.048.185A0.573,0.573,0,0,1,1,22.083a1.4,1.4,0,0,0,.859-0.046A1.71,1.71,0,0,1,1,21.991l2.243,0.046L3.294,21.9a1.725,1.725,0,0,1,.621.046c-0.041.2-.132,0.2,0,0.37a1.666,1.666,0,0,1,.477.046,0.133,0.133,0,0,1,.048-0.046V22.269H4.057V22.176a0.761,0.761,0,0,0,.382-0.046H4.105V22.037a2.14,2.14,0,0,1,.621.046,0.321,0.321,0,0,0-.048.232v0.046c0.165-.092.076-0.056,0.286,0V22.269a0.235,0.235,0,0,1-.143-0.046,3.208,3.208,0,0,0,.764-0.046V22.13a2.058,2.058,0,0,1-.811-0.046H5.585A0.874,0.874,0,0,1,6.062,21.9a0.583,0.583,0,0,0,.621.185,2.382,2.382,0,0,1,.1-0.37H5.632V21.62a3.291,3.291,0,0,0,1.193,0c0.056-.021.169-0.163,0.239-0.185a2.66,2.66,0,0,1,1.241.046v0.37a0.491,0.491,0,0,1,0,.232H8.64l0.048-.556H8.735a1.915,1.915,0,0,0,1,0V21.482H8.878V21.435H9.833l0.048-.185h0.334l0.048-.093c0.125-.023.091,0.078,0.143,0.093a0.662,0.662,0,0,0,.477-0.093,0.715,0.715,0,0,0,.764.185,0.3,0.3,0,0,1,.334-0.232l0.048,0.232c0.169,0.033.118,0.057,0.286,0.093V21.389h0.048a1,1,0,0,1-.1-0.694h0.191a3.529,3.529,0,0,0,.573.093,2.253,2.253,0,0,1-.1.6,2.723,2.723,0,0,0,.334.093,6.78,6.78,0,0,1,1.623-.648c1.28-.543,2.529-1.222,3.771-1.806l-0.286-.787h0.048a0.648,0.648,0,0,0,.334.046,0.583,0.583,0,0,1,.048-0.324,4.467,4.467,0,0,0,0,.741V18.565a9.809,9.809,0,0,0,2-.6,46.388,46.388,0,0,0,5.251-1.852V16.2h-0.1a6.452,6.452,0,0,1-1.575.6c-1.193.49-2.513,0.9-3.771,1.343-0.508.18-1.822,0.266-1.862,0.833,0.033,0.036.063,0.1,0.1,0.139a0.557,0.557,0,0,0,.143.093,0.518,0.518,0,0,1,.1-0.37v0.463H19a0.33,0.33,0,0,1-.191.046A12.364,12.364,0,0,0,19,20.787c0.18,0,.167.084,0.143,0.37h0.191V21.111a0.232,0.232,0,0,1-.048-0.139h0.143a0.292,0.292,0,0,0,.048.185c0.04-.15-0.023-0.071.1-0.139,0.151,0.234.323,0.026,0.668,0v0.139h0.334v0.324H20.286a1.3,1.3,0,0,0-.048.417,0.305,0.305,0,0,0-.048.185h0.048V22.13a0.9,0.9,0,0,1,.43.046,0.428,0.428,0,0,0-.43.093h1.193V22.222a2.945,2.945,0,0,1-.907-0.185,0.3,0.3,0,0,1-.048-0.185,9.519,9.519,0,0,1,1.527,0,3.222,3.222,0,0,1,0-.417,0.735,0.735,0,0,0,.43,0,0.976,0.976,0,0,1,.143.417h0.716V21.9a0.585,0.585,0,0,1-.43.185,1.484,1.484,0,0,0-.621-0.046V22.13h1.241V21.806H23.246V21.713h0.048a0.248,0.248,0,0,0,.143.046c0-.648-0.2-1.215-0.143-1.574a5.866,5.866,0,0,0,1.527-.556,5.516,5.516,0,0,0,.477-1.25c0.26-.613.611-1.31,0.811-1.944a1.015,1.015,0,0,0-.143-0.694c0.125-.018.063,0.034,0.1-0.093a0.289,0.289,0,0,1-.191,0,0.165,0.165,0,0,1-.048-0.092c0.3-.017.207-0.077,0.334-0.232a4.185,4.185,0,0,0,.382,1.62h0.048V16.9c0.037-.089.048,0.093,0.048,0.093a0.673,0.673,0,0,0,0,.278,11.7,11.7,0,0,0,.764,1.945,2.644,2.644,0,0,1,0-.833h0.334a0.248,0.248,0,0,0,.143.046,0.252,0.252,0,0,1,.143-0.185A3.435,3.435,0,0,0,28.162,18.565Zm-1.575-2.037a0.231,0.231,0,0,1,.048.139H26.587V16.528Zm-0.334.139v0.417h0.1A1.041,1.041,0,0,0,26.253,16.667ZM26.4,16.806l0.048,0.231h0.048A0.5,0.5,0,0,0,26.4,16.806Zm-0.43.139c-0.227.583-.37,1.168-0.62,1.759a5.94,5.94,0,0,0-.477,1.25h0.048V19.907c0.037-.089.048,0.093,0.048,0.093a0.165,0.165,0,0,0-.1.046h0.1A0.248,0.248,0,0,1,25.107,20v0.093a1.633,1.633,0,0,0,.1.694h0.048V20.741H25.3v0.046a0.232,0.232,0,0,0,.048-0.139,2.74,2.74,0,0,0,.143-0.787c0.152-.585.279-1.28,0.382-1.9A3.373,3.373,0,0,0,25.967,16.944Zm0.1,0.139a0.173,0.173,0,0,0,.1.046A0.174,0.174,0,0,0,26.062,17.083Zm0.382,0c0.205,0.627.3,1.365,0.477,1.991a0.966,0.966,0,0,0,.191.648c0.074,0.033.006,0.006,0.143,0a0.475,0.475,0,0,1,.048-0.278,0.583,0.583,0,0,0,.048.324c0.09-.04.035-0.022,0.143,0V19.676a10.148,10.148,0,0,1-.716-1.805A1.449,1.449,0,0,0,26.444,17.083Zm-0.191.046v0.648H26.3V17.685a0.524,0.524,0,0,0,.143-0.093A0.883,0.883,0,0,0,26.253,17.13Zm-0.334,1.065h0.239V17.176h-0.1Zm0.573-.556a0.293,0.293,0,0,0,.048.185A0.292,0.292,0,0,0,26.492,17.639Zm-8.114.046a0.166,0.166,0,0,1,.048.093H18.377V17.685Zm0,0.139a0.375,0.375,0,0,1,0,.37v-0.37ZM26.3,17.87c0.066,0.513.031,1.579,0.1,2.222h0.143l0.048-.37h0.191V19.676a6.129,6.129,0,0,1-.286-1.805H26.3Zm0.239,0,0.286,1.9c0.138-.059.1,0.053,0.143-0.139C26.654,19.17,26.862,18.323,26.539,17.87Zm1.384,0.139a0.184,0.184,0,0,1,.1.185H27.971V18.1A0.165,0.165,0,0,1,27.924,18.009Zm-2.148,1.343h0.382a3.676,3.676,0,0,0,.048-1.018,0.9,0.9,0,0,0-.286-0.046v0.046H25.871Zm-7.3-1.018a1.773,1.773,0,0,0,.191.463,3.294,3.294,0,0,1,0-.417H18.616V18.333H18.473Zm-5.346,3.8a0.634,0.634,0,0,0,.334-0.046c-0.155-.059-0.126-0.041-0.143-0.232a8.337,8.337,0,0,1,1.48,0l0.048-.417a0.518,0.518,0,0,1,.382.093,0.943,0.943,0,0,1,.191.324h0.716V21.9H16.086a0.376,0.376,0,0,1-.382.185,1.484,1.484,0,0,0-.621-0.046V22.13H15.9c0.074,0.033.007,0.006,0.143,0a1.763,1.763,0,0,0,.191-1.157,0.782,0.782,0,0,1-.1-0.278,0.235,0.235,0,0,0,.143-0.046,0.235,0.235,0,0,1-.143-0.046h0.1a2.631,2.631,0,0,1,1.48-.556V19.907a1.628,1.628,0,0,0,.764-0.648V19.213h-0.1a6.313,6.313,0,0,1-1.48.741,21.81,21.81,0,0,1-3.771,1.62A0.837,0.837,0,0,1,13.127,22.13Zm5.68-2.917v0.093H18.95V19.259Zm-0.859,1.62h0.191V20.741a4.432,4.432,0,0,0,.43-1.481H18.52a3.662,3.662,0,0,1-.764.88A1.805,1.805,0,0,1,17.948,20.833ZM27.4,19.306a0.279,0.279,0,0,0,.286.093V19.306H27.4Zm-8.783.093a5.374,5.374,0,0,1-.334,1.389,0.158,0.158,0,0,0-.048-0.093v0.093h0.048c0.12,0.071.375,0.073,0.477,0.139V20.278A2.84,2.84,0,0,0,18.616,19.4Zm7.017,1.019h0.573V20.37a4.258,4.258,0,0,1,.048-0.88,1.618,1.618,0,0,0-.477-0.046v0.046H25.728Zm1.432-.972a0.182,0.182,0,0,1,0,.231V19.444Zm12.792,0a0.166,0.166,0,0,1,.048.093H39.857V19.444Zm-12.363.046,0.1,0.278a0.166,0.166,0,0,0,.048-0.093,0.359,0.359,0,0,0,.048-0.185H27.494Zm-0.907.046c0.053,0.077.085,0.05,0,.093V19.537Zm-1.432.741h0.191v0.046H25.3V20.37A0.526,0.526,0,0,1,25.155,20.278Zm0.334,0a0.219,0.219,0,0,0,.048.139V20.278H25.489Zm-6.635.139L18.9,21.157H19V21.065C18.9,20.9,18.961,20.573,18.854,20.417Zm7.542,0a0.876,0.876,0,0,0,.1.463h0.048l0.048-.463H26.4Zm-0.764.046a0.444,0.444,0,0,0-.048.278,0.536,0.536,0,0,0,.286,0,0.75,0.75,0,0,1,.239-0.231V20.463H25.633Zm14.224,0a0.231,0.231,0,0,1,.048.139H39.857V20.463Zm-14.415.046a0.378,0.378,0,0,0,.048.231A0.378,0.378,0,0,0,25.442,20.509Zm0.764,0v0.231h0.1A0.3,0.3,0,0,0,26.205,20.509ZM0,20.556H0.716a1.943,1.943,0,0,0,.048.787,0.378,0.378,0,0,1,.048-0.232,1.829,1.829,0,0,1,0,.926,0.272,0.272,0,0,0-.1-0.185,2.054,2.054,0,0,0-.048-0.88H0V20.556Zm26.11,0.185a0.571,0.571,0,0,1,.048-0.185H26.11l-0.143.185H26.11Zm6.253-.093a0.237,0.237,0,0,1,.143.046A0.235,0.235,0,0,1,32.363,20.648Zm-0.955.139,0.048,0.139H31.5V20.787h-0.1Zm8.353,0.093c0.155,0.038.073-.023,0.143,0.093H39.618a7.281,7.281,0,0,1-1.241.139V21.019A5.357,5.357,0,0,0,39.761,20.88ZM26.4,20.926l0.048,0.139h0.048V20.926H26.4Zm11.742,0.139a0.316,0.316,0,0,1,.191.046A0.315,0.315,0,0,1,38.138,21.065Zm-0.907.046a1.32,1.32,0,0,1,.573.046,3.042,3.042,0,0,1-1.241.046A1.951,1.951,0,0,0,37.232,21.111Zm0.62,0a0.235,0.235,0,0,1,.143.046A0.235,0.235,0,0,1,37.852,21.111Zm-0.191.185a0.174,0.174,0,0,0,.1.046A0.175,0.175,0,0,0,37.661,21.3Zm-0.573.046c0.082,0.041.061,0.041,0.143,0H37.088Zm0.191,0a0.143,0.143,0,0,0,.191,0H37.279Zm-26.3.046a0.764,0.764,0,0,1-.048.278h0.1V21.389H10.979Zm0.334,0a0.143,0.143,0,0,0,.191,0H11.313Zm23.007,0v0.093h0.1c0.111-.066.415-0.025,0.525-0.093H34.32Zm3.246,0c0.082,0.041.061,0.041,0.143,0H37.566Zm-5.251.093a0.33,0.33,0,0,0,.334,0H32.315Zm3.294,0a0.95,0.95,0,0,0,.191.093V21.482H35.609Zm-3.294.139v0.093c0.314,0,.425-0.009.668,0V21.62H32.315Zm-29.737.417c-0.037.032-.107,0.061-0.143,0.093a0.62,0.62,0,0,1,.191.046A0.22,0.22,0,0,0,2.578,22.037Zm-0.525.046a0.33,0.33,0,0,0,.334,0H2.053Zm0.621,0v0.139a0.729,0.729,0,0,0,.191.093V22.222a0.235,0.235,0,0,1-.143-0.046c0.155-.038.073,0.023,0.143-0.093H2.673Zm0.286,0v0.093H3.246V22.083H2.959ZM6.3,22.13v0.093H6.635V22.13H6.3Zm7.208,0a0.776,0.776,0,0,1-.382.046v0.093h1.1V22.176A2.537,2.537,0,0,1,13.508,22.13ZM1,22.176a0.279,0.279,0,0,0,.286.093,0.675,0.675,0,0,0,.334-0.046V22.176H1Zm7.3,0a0.259,0.259,0,0,0,.286,0H8.305Zm6.778,0c0.022,0.13.2,0.1,0.477,0.093,0.041-.03.15-0.062,0.191-0.093H15.084Zm7.16,0a1.3,1.3,0,0,0,.859.093V22.176H22.243Zm-19.9.046v0.093a1.577,1.577,0,0,0,.286-0.093H2.339Zm0.621,0v0.093a0.988,0.988,0,0,1,.334.046V22.269A1.055,1.055,0,0,0,2.959,22.222Zm2.1,0.046v0.093h0.43V22.269H5.06Zm0.477,0v0.093h0.1V22.269h-0.1Zm1.146,0.139V22.269H6.3v0.046a0.166,0.166,0,0,1,.048.093H6.683Zm6.444-.093v0.093a2.175,2.175,0,0,0,1.146-.093H13.127Zm7.064,0v0.093l0.191-.046V22.315H20.191Zm0.382,0v0.093h0.859V22.315H20.573Z"/>
</svg>
