<?xml version="1.0" encoding="utf-8"?>
<!-- Generator: Adobe Illustrator 16.0.0, SVG Export Plug-In . SVG Version: 6.00 Build 0)  -->
<!DOCTYPE svg PUBLIC "-//W3C//DTD SVG 1.1//EN" "http://www.w3.org/Graphics/SVG/1.1/DTD/svg11.dtd">
<svg version="1.1" id="Layer_1" xmlns="http://www.w3.org/2000/svg" xmlns:xlink="http://www.w3.org/1999/xlink" x="0px" y="0px"
	 width="40px" height="40px" viewBox="0 0 40 40" enable-background="new 0 0 40 40" xml:space="preserve">
<path id="Color_Fill_1" fill="#FFFFFF" d="M16.029,12.279c0.052-0.001,0.102,0.016,0.143,0.048h0.048v0.145h0.145v-0.048
	c0.031-0.148,0.232-0.118,0.526-0.1c0.124,0.095,0.289,0.114,0.431,0.049c-0.225-0.028-0.232-0.041-0.239-0.291l0.431,0.049v-0.1
	c-0.109-0.468-0.075-0.958,0.1-1.406c0.073-0.04,0.156-0.057,0.239-0.049v0.054H17.9c-0.013,0.631,0.153,1.253,0.479,1.794v-0.1
	c0.041-0.043,0.075-0.092,0.1-0.146c-0.052,0.001-0.103-0.017-0.144-0.049h0.144V11.6l0.143-0.1
	c0.012-0.084-0.005-0.169-0.048-0.242c-0.004-0.106,0.031-0.21,0.1-0.291c0.002-0.163-0.014-0.325-0.048-0.485h0.335L19,10.727
	h-0.148c0.092,0.464,0.156,0.934,0.191,1.406h0.431c0.052-0.538,0.282-0.617,0.909-0.582v-0.242h0.143l0.101-0.582h1.244v0.194
	c0.099-0.013,0.198,0.004,0.287,0.048c-0.155,0.04-0.073-0.024-0.144,0.1h0.049c0.09-0.076,0.1-0.092,0.19-0.049
	c0.036,0.058,0.052,0.126,0.048,0.194h0.432v1.164c0.201,0.094,0.395,0.208,0.574,0.339v0.049h-0.244
	c-0.247-0.083-0.511-0.1-0.766-0.049v0.049h0.048c0.169,0.061,0.35,0.077,0.526,0.048c0.04,0.043,0.074,0.093,0.1,0.146l0.526,0.049
	c0.147,0.044,0.237,0.146,0.383,0.194c0.05-0.115,0.161-0.191,0.287-0.194l0.478,0.533h0.049v-0.051
	c0.104-0.106,0.215-0.204,0.334-0.291v0.049c0.154,0.086,0.272,0.224,0.336,0.388c-0.038,0.004-0.074,0.021-0.1,0.048h0.1
	c0.066-0.007-0.02-0.056,0.048-0.048c0.066,0.049,0.116,0.116,0.144,0.194c0.094,0.023,0.189,0.04,0.286,0.049
	c0.496,0.003,0.991,0.037,1.483,0.1h0.861c0.623-0.017,1.247,0.016,1.865,0.1l3.35,0.041c0.465,0.1,1.15-0.069,1.675,0.048
	c0.469,0.106,1.14-0.05,1.675,0.049L40,14.364v0.63c-0.236,0.05-0.478,0.067-0.718,0.049c-0.376-0.087-0.766-0.104-1.148-0.049
	l-2.87-0.048c-0.293-0.063-0.611,0.075-0.957,0c-0.937-0.2-2.029,0.061-3.063-0.101c-0.582-0.089-1.42,0.09-2.057-0.049
	c-0.635-0.106-1.281-0.106-1.914,0l-1.771-0.049l0.048,0.242l0.287,0.242c0.146,0.052,0.374,0.013,0.479,0.048v0.15
	c-0.082-0.009-0.166,0.008-0.238,0.049c0.629,0.127,1.274,0.161,1.914,0.1c0.285-0.072,0.5-0.141,0.813-0.194v0.146h0.101
	c0.485,0.3,1.128-0.21,1.723,0.194c-0.078,0.116-0.067,0.173,0.048,0.242c0.346-0.266,0.765-0.418,1.2-0.436
	c0.054,0.271,0.069,0.548,0.048,0.824c-0.06,0.076-0.031,0.025,0,0.1l1.148,0.388c0.229,0.025,0.459-0.009,0.67-0.1
	c0.613,0.347,1.305,0.53,2.009,0.533v0.1c-0.052,0-0.103,0.017-0.144,0.048c0.387,0.088,0.664,0.428,0.67,0.824
	c-0.042,0.143-0.075,0.289-0.1,0.436c-0.176,0.365-0.438,0.682-0.765,0.922c-0.319,0.088-0.625,0.218-0.909,0.388
	c-0.175,0.368-0.4,0.711-0.67,1.018c-0.124,0.046-0.252,0.079-0.383,0.101c-0.178,0.076-0.362,0.248-0.526,0.339
	c-0.348,0.19-0.717,0.274-1.053,0.485c-0.226,0.275-0.501,0.506-0.813,0.679c0.026,0.093,0.078,0.041,0,0.1
	c-0.277,0.204-0.584,0.367-0.908,0.485v0.193c-0.159,0.097-0.341,0.146-0.526,0.146c-0.224,0.085-0.243,0.42-0.526,0.533
	l-0.238-0.049c-0.111,0.086-0.195,0.205-0.239,0.339c-0.216,0.147-0.461,0.246-0.718,0.29c0.025,0.094,0.078,0.043,0,0.101
	c-0.129,0.173-0.316,0.292-0.526,0.339l0.048-0.1h-0.056c-0.154,0.214-0.349,0.396-0.574,0.533c-0.149-0.007-0.3,0.027-0.431,0.1
	c-0.064,0.124-0.164,0.226-0.287,0.291l-0.67-0.048l-0.049,0.1c-0.212,0.029-0.429-0.005-0.621-0.1
	c-0.246,0.081-0.506,0.116-0.766,0.1l-0.048-0.1c-0.284,0.049-0.572,0.082-0.86,0.1c-0.088-0.089-0.214-0.126-0.336-0.1l-0.047,0.1
	c-0.229,0.028-0.461-0.006-0.671-0.1c-0.229,0.083-0.474,0.118-0.718,0.1c-0.105-0.091-0.246-0.128-0.383-0.1l-0.049,0.1
	c-0.212,0.028-0.428-0.007-0.622-0.1c-0.246,0.083-0.506,0.118-0.765,0.1l-0.048-0.1c-0.269,0.047-0.54,0.08-0.813,0.1
	c-0.105-0.091-0.247-0.128-0.383-0.1l-0.048,0.1c-0.361,0.134-0.551-0.231-0.861-0.1v0.1c-0.197,0.042-0.402,0.006-0.574-0.1
	c-0.242,0.01-0.482,0.043-0.718,0.1c-0.092-0.044-0.188-0.077-0.287-0.1c-0.238-0.009-0.252,0.106-0.526,0.1
	c-0.182-0.085-0.392-0.085-0.574,0c-0.291,0.005-0.58-0.028-0.861-0.1c-0.159,0.093-0.345,0.128-0.526,0.1
	c-0.107-0.087-0.247-0.124-0.383-0.1c-0.144,0.085-0.312,0.12-0.478,0.1c-0.108-0.086-0.247-0.122-0.383-0.1
	c-0.174,0.099-0.376,0.134-0.574,0.1c-0.087-0.089-0.213-0.126-0.335-0.1c-0.161,0.087-0.345,0.122-0.526,0.1
	c-0.108-0.086-0.247-0.122-0.383-0.1l-0.048,0.1c-0.182,0.034-0.37-0.001-0.526-0.1c-0.122-0.028-0.249,0.01-0.335,0.1
	c-0.197,0.036-0.401,0.001-0.574-0.1c-0.122-0.028-0.249,0.01-0.335,0.1c-0.197,0.036-0.4,0.001-0.574-0.1
	c-0.121-0.028-0.249,0.01-0.335,0.1c-0.197,0.036-0.4,0.001-0.574-0.1c-0.291-0.101-0.423,0.2-0.766,0.1
	c-0.118-0.104-0.273-0.157-0.431-0.145c-0.165-0.101-0.342-0.183-0.526-0.242c-0.042-0.1-0.091-0.196-0.144-0.291
	c-0.275-0.048-0.527-0.185-0.718-0.388c0.038-0.004,0.073-0.021,0.1-0.049c-0.069-0.021-0.134-0.056-0.191-0.1v0.049h0.043
	c0.092,0.038-0.1,0.049-0.1,0.049v-0.063H4.115c-0.021-0.095,0.074-0.035,0-0.101c-0.14,0.066-0.608-0.26-0.478-0.388
	c-0.355-0.258-0.53-0.008-0.766-0.532l-0.144,0.049c0.023-0.047,0.023-0.101,0-0.146c-0.233,0.028-0.459-0.087-0.574-0.291
	c-0.241,0.103-0.506,0.137-0.766,0.1c-0.15-0.244-0.326-0.473-0.526-0.679c0.006,0.132-0.01,0.263-0.048,0.388
	c-0.026-0.027-0.043-0.063-0.048-0.1c-0.029-0.176-0.045-0.354-0.048-0.533l-0.1-0.049c0.013-0.103,0.047-0.201,0.1-0.291
	c-0.013-0.191-0.16-0.413-0.191-0.63C0.632,21.533,0.69,21.416,0.67,21.3c-0.125-0.019-0.063,0.036-0.1-0.1
	c-0.057-0.345-0.137-0.685-0.239-1.019C0.322,20.58,0.243,20.975,0.1,21.346C0.073,21.32,0.038,21.304,0,21.3
	c-0.003-0.247,0.03-0.493,0.1-0.729c0,0.052,0.016,0.104,0.048,0.145L0.1,20.327c0.125-0.019,0.063,0.036,0.1-0.101
	c-0.026-0.027-0.043-0.063-0.048-0.1c0.121-0.02,0.076,0.028,0.1-0.145c0.079-0.168,0.128-0.349,0.144-0.533
	c-0.125-0.02-0.063,0.035-0.1-0.1c0.274-0.179-0.03-0.483,0-0.582c0.038-0.007,0.072-0.024,0.1-0.05H0.239
	c-0.013-1-0.023-2.213,0-3.151h0.1c0.027,0.027,0.063,0.043,0.1,0.048c0.02,0.174-0.023,0.122,0.1,0.194
	c-0.009-0.083,0.007-0.168,0.048-0.242c0.41-0.331,1.823-0.155,2.775-0.146v-0.233c0.179-0.084,0.377-0.119,0.574-0.1
	c0.054,0.118,0.118,0.231,0.191,0.339c0.159-0.211,1.054,0.212,1.483,0c0.122-0.104,0.25-0.202,0.383-0.291v0.049
	c-0.041,0.025-0.075,0.059-0.1,0.1c0.203,0.066,0.411,0.114,0.622,0.145l-0.048-0.242h0.04v0.049
	c0.036,0.058,0.053,0.125,0.048,0.194h0.287v-0.195h0.287v0.194h0.192v-0.194h0.191v0.194H7.7v-0.194l0.29,0.049v0.145h0.192
	c0.015-0.122,0.085-0.229,0.191-0.291c0.404,0.113,0.824,0.162,1.244,0.145c0.034-0.11,0.05-0.225,0.048-0.339
	c0.031-0.042,0.047-0.093,0.048-0.145l3.206-0.049c0.106-0.074,0.218-0.139,0.335-0.194v0.049c-0.038,0.004-0.073,0.021-0.1,0.048
	h0.191c0.27,0.041,0.544,0.041,0.813,0v-0.728h-0.139v-0.242h0.144v-0.533c-0.038-0.004-0.074-0.021-0.1-0.049
	c-0.038,0.004-0.073,0.021-0.1,0.049c-0.054,0.06-0.102,0.125-0.143,0.194V13.3c-0.051-0.139-0.068-0.289-0.048-0.436h0.1
	c0.026-0.011,0.194-0.019,0.287-0.049v-0.148c0.163-0.035,0.323-0.084,0.478-0.146v-0.485c-0.043-0.106,0.185-1.545,0.191-2.036h0.1
	c0.043,0.9,0.242,1.793,0.239,2.57h0.048c0.027-0.078,0.078-0.145,0.144-0.194c0.081,0.101,0.207,0.155,0.335,0.145v-0.048h-0.048
	c-0.092-0.038,0.1-0.048,0.1-0.048c0.113,0.12,0.1,0.076,0.287,0.048v-0.194H16.029z M22.105,11.115
	c-0.026,0.026-0.062,0.043-0.1,0.048v0.048H22.2v-0.1H22.1L22.105,11.115z M19.762,11.6c-0.104,0.183-0.185,0.378-0.239,0.582
	c0.07,0.065,0.12,0.149,0.144,0.242c0.011-0.251,0.243-0.666,0.191-0.727c-0.063-0.12,0.019-0.033-0.097-0.097H19.762z
	 M15.839,12.279h0.1v0.048c-0.039-0.003-0.075-0.021-0.102-0.048H15.839z M15.648,12.327h0.1v0.049
	c-0.039-0.004-0.075-0.021-0.102-0.049H15.648z M5.981,15.091c0.161-0.01,0.322,0.006,0.478,0.048v0.049h-0.1
	C6.286,15.139,6.058,15.141,5.981,15.091z M3.4,15.43h0.619v-0.1c-0.123-0.162-0.328-0.237-0.526-0.194
	C3.433,15.222,3.4,15.325,3.4,15.43z M8.328,15.236c0.022,0.136,0.2,0.108,0.478,0.1v-0.051c-0.157-0.042-0.319-0.058-0.481-0.049
	H8.328z M5.744,15.381c0.027,0.027,0.062,0.044,0.1,0.049c-0.027-0.027-0.063-0.044-0.102-0.048L5.744,15.381z M8.232,15.381
	c0.2,0.079,0.422,0.079,0.622,0H8.23H8.232z M8.902,15.381c0.151,0.071,0.327,0.071,0.478,0H8.9H8.902z M30.624,15.623h0.101v0.049
	c-0.039-0.003-0.075-0.021-0.103-0.048L30.624,15.623z M30.725,15.672h0.1v0.049c-0.04-0.002-0.078-0.019-0.106-0.048L30.725,15.672
	z M0.478,16.3c-0.009,0.084,0.007,0.168,0.048,0.242C0.535,16.458,0.519,16.374,0.478,16.3z M0.478,16.688v1.6h0.1v-0.87
	c-0.099-0.16-0.002-0.568-0.1-0.727V16.688z M35.264,17.415c0.026,0.027,0.062,0.044,0.1,0.049c-0.027-0.026-0.063-0.042-0.1-0.046
	V17.415z M35.934,17.851c-0.103,0.184-0.215,0.362-0.336,0.533c-0.049,0.236-0.129,0.464-0.238,0.679
	c-0.22,0.146-0.414,0.326-0.574,0.533h0.1c0.041,0.031,0.092,0.048,0.143,0.049c0.48-0.449,1.095-0.612,1.101-1.552
	c-0.048-0.092-0.114-0.173-0.194-0.238V17.851z M35.311,18.821l-0.238,0.291c0.126-0.046,0.218-0.155,0.238-0.288V18.821z
	 M29.475,22.845c0.02,0.018,0.114,0.175,0.143,0.048c-0.045-0.021-0.094-0.036-0.143-0.043V22.845z M30.145,22.845
	c-0.002,0.053,0.016,0.104,0.047,0.146c0.082-0.09,0.016-0.08-0.047-0.141V22.845z M29.091,22.945v0.145h0.101
	c0.082,0.042,0.008-0.042,0.144,0C29.266,22.945,29.361,22.96,29.091,22.945L29.091,22.945z M30,22.945l-0.048,0.145H30
	C30.025,22.948,30.094,23.057,30,22.945L30,22.945z M29.761,22.993c-0.083,0.054-0.136,0.144-0.144,0.241l0.1,0.049l-0.048-0.146
	h0.048c0,0,0.063,0.14,0.1,0.101v-0.051C29.83,23.118,29.81,23.046,29.761,22.993L29.761,22.993z M28.761,23.042
	c-0.057,0.036-0.124,0.054-0.19,0.049v0.101c0.049,0.057,0.117,0.092,0.19,0.1c0.067-0.088,0.181-0.128,0.287-0.1L29,23.291h0.048
	v-0.055h0.048v-0.049c-0.055-0.028-0.092-0.082-0.1-0.145h-0.24L28.761,23.042z M30.389,23.091h0.1v0.048
	c-0.04-0.002-0.077-0.02-0.105-0.048H30.389z M28.283,23.191c-0.009,0.153,0.063,0.301,0.191,0.388c0.045,0.012,0.018,0.038,0.047,0
	c0.054-0.052,0.089-0.12,0.101-0.194c-0.093-0.099-0.212-0.168-0.345-0.197L28.283,23.191z M28.044,23.24
	c-0.327,0.082-0.663,0.131-1,0.145c0.003,0.352,0.12,0.692,0.335,0.971l-0.1-0.146c0.092-0.032,0.189-0.049,0.287-0.049v0.049h0.048
	c-0.079-0.168-0.128-0.349-0.145-0.533c0.097-0.077,0.213-0.127,0.335-0.145l0.145,0.241c0.127-0.083,0.287-0.102,0.431-0.049
	c-0.067-0.19-0.186-0.359-0.342-0.488L28.044,23.24z M28.8,23.285c-0.016,0.066,0.068,0.07,0.101,0.1
	C28.934,23.33,28.816,23.3,28.8,23.285z M29.47,23.285c-0.042,0.041-0.091,0.074-0.144,0.1v0.045h0.048v0.049h0.048V23.43
	l-0.048-0.049h0.101c0.084-0.046,0-0.011,0.1,0c-0.025-0.039-0.061-0.072-0.1-0.096H29.47z M3.78,23.333
	c-0.024,0.063-0.024,0.132,0,0.194C3.866,23.406,3.883,23.434,3.78,23.333z M4.211,23.333H4.019
	c-0.014,0.084-0.067,0.157-0.144,0.194c0.027,0.067,0.061,0.133,0.1,0.193c0.074-0.033,0.006-0.006,0.144,0
	C4.145,23.532,4.188,23.545,4.211,23.333z M4.355,23.333c-0.047,0.168-0.111,0.33-0.191,0.485c0.097,0.076,0.212,0.126,0.335,0.145
	c0.178-0.175,0.31-0.392,0.383-0.63H4.355L4.355,23.333z M8.422,23.333c0.131,0.512,0.044,1.055-0.239,1.5
	c-0.123,0.076-0.208,0.198-0.239,0.339H7.99c0.121-0.059,0.262-0.059,0.383,0c0.02-0.275,0.1-0.258,0.383-0.242
	c0.01,0.098,0.063,0.188,0.144,0.242c0.205-0.125,0.433-0.207,0.67-0.242c0.041,0.116,0.089,0.229,0.144,0.34v-0.101
	c0.053-0.024,0.102-0.059,0.144-0.101c-0.407-0.485-0.517-1.154-0.287-1.744h-1.15L8.422,23.333z M12.922,23.333
	c0.081,0.44,0.031,0.896-0.144,1.31c-0.28,0.2-0.483,0.491-0.574,0.823h0.143v-0.241c0.083-0.063,0.183-0.098,0.287-0.101
	c0-0.053,0.017-0.104,0.048-0.146c0.105-0.047,0.221-0.064,0.335-0.05c0.042,0.175,0.058,0.354,0.048,0.533h0.191v-0.286
	c0.077-0.029,0.157-0.045,0.239-0.048c-0.001-0.053,0.016-0.104,0.048-0.146c0.089-0.044,0.188-0.061,0.287-0.049
	c0.082,0.164,0.116,0.349,0.1,0.532h0.239v-0.29c0.153-0.08,0.285-0.197,0.383-0.339c-0.273-0.454-0.31-1.013-0.1-1.5h-1.533
	L12.922,23.333z M17.563,23.333c-0.009,0.718-0.089,1.432-0.239,2.133H17.7l0.048-0.485c0.124-0.037,0.253-0.053,0.383-0.049
	c0.042,0.175,0.059,0.354,0.048,0.533h0.431v-0.482c0.108-0.035,0.222-0.052,0.335-0.049c0.082,0.164,0.117,0.349,0.1,0.532h0.383
	c0.008-0.79-0.282-1.026-0.287-1.938c-0.236-0.012-0.465-0.078-0.67-0.194H17.56H17.563z M22.635,25.466h0.239l-0.048-0.436
	c0.113-0.074,0.248-0.109,0.383-0.101c0.107,0.104,0.203,0.217,0.287,0.34c0.035,0.058,0.053,0.125,0.048,0.193h0.19l-0.047-0.484
	h0.047v-0.045c0.1,0.012,0.199-0.005,0.287-0.05c-0.371-0.425-0.498-1.011-0.334-1.551h-1.295c-0.025,0.062-0.042,0.128-0.049,0.194
	c0.174,0.471,0.103,0.998-0.191,1.406c0.258-0.012,0.474,0.188,0.484,0.445c0.002,0.029,0,0.059-0.005,0.088L22.635,25.466z
	 M29.143,23.43c0.035,0.045,0.133,0.227,0.19,0.101c0.038-0.095-0.163-0.078-0.194-0.101H29.143z M3.11,23.479
	c-0.022,0.07-0.056,0.136-0.1,0.194h0.052c0.078-0.1,0.056,0.034,0.1-0.1h0.044v-0.046H3.158v-0.049H3.11z M28.995,23.479
	c-0.027,0.027-0.063,0.045-0.101,0.049c-0.006,0.188,0.045,0.056-0.047,0.195h0.1c0.084-0.047,0-0.012,0.1,0L29,23.576h0.048
	c0.024,0.041,0.06,0.075,0.101,0.1c-0.04-0.072-0.09-0.139-0.148-0.197H28.995z M3.349,23.527c-0.142,0.259-0.194,0.188,0.048,0.291
	l-0.048,0.101H3.4v-0.052h0.045c0.042-0.078,0.075-0.159,0.1-0.243C3.475,23.604,3.408,23.57,3.349,23.527L3.349,23.527z
	 M27.655,24.013c0.062,0.022,0.129,0.022,0.19,0c0.023-0.063,0.023-0.132,0-0.194c-0.064-0.05-0.113-0.117-0.144-0.193
	c-0.038,0.004-0.073,0.021-0.101,0.049c-0.031,0.043-0.047,0.094-0.047,0.146C27.623,23.858,27.662,23.934,27.655,24.013
	L27.655,24.013z M28.038,23.771l-0.048,0.145h0.048c0.024-0.145,0.094-0.036,0-0.146V23.771z M28.708,23.771
	c0.006,0.061-0.093,0.091,0,0.145c0.048-0.037,0.082-0.088,0.101-0.145H28.708z M3.541,23.82c-0.005,0.066-0.021,0.132-0.048,0.193
	c0.063-0.016,0.128-0.016,0.191,0l-0.048,0.101h0.048c0.066-0.038,0.125,0.034,0.191,0c0.026-0.027,0.043-0.063,0.048-0.101
	c-0.167-0.054-0.217-0.14-0.382-0.195V23.82z M4.741,23.82c-0.074,0.063-0.125,0.147-0.144,0.242l-0.048,0.1
	c0.063-0.017,0.128-0.017,0.191,0l-0.048,0.1h0.045v-0.056c0.021-0.129,0.021-0.26,0-0.388L4.741,23.82z M28.377,23.869
	c0.029,0.076,0.078,0.144,0.143,0.193l-0.047-0.145h0.047c0.072,0.081,0.035,0.049,0.101,0.048h0.04v-0.051h-0.049v-0.048
	c-0.078,0.014-0.159,0.014-0.238,0L28.377,23.869z M28.234,23.969c-0.047,0.072-0.064,0.158-0.049,0.242v0.048
	c0.137-0.093,0.064-0.087,0.191-0.1c-0.029-0.077-0.081-0.146-0.146-0.195L28.234,23.969z M4.071,24.068
	c-0.053,0.158-0.06,0.162-0.1,0.291h0.048c0.091-0.045,0.056-0.018,0.191,0c0.006-0.188-0.045-0.055,0.048-0.193
	c-0.058-0.045-0.122-0.08-0.191-0.105L4.071,24.068z M27.99,24.255c-0.016,0.067,0.068,0.07,0.1,0.101
	C28.12,24.3,28,24.27,27.99,24.255z M27.081,24.304c-0.001,0.053,0.017,0.104,0.048,0.146V24.3h-0.048V24.304z M27.895,24.304
	c-0.121,0.095-0.078,0.064-0.239,0.05V24.5H27.7v0.049c0.13-0.079,0.007-0.04,0.144-0.049v-0.051
	c0.04-0.149,0.139-0.021,0.051-0.149V24.304z M4.258,24.354c0.017,0.063,0.017,0.13,0,0.193c0.131,0.018,0.26,0.052,0.383,0.1
	c0.012-0.02,0.028-0.035,0.048-0.047c-0.027-0.027-0.062-0.044-0.1-0.049c-0.073-0.114-0.195-0.188-0.331-0.199V24.354z
	 M27.464,24.453c-0.003,0.068,0.014,0.135,0.048,0.193v0.05h0.049v-0.054h0.047v-0.049c-0.033-0.061-0.082-0.111-0.144-0.145V24.453
	z M4.785,24.553c-0.05,0.2-0.084,0.225,0,0.34c0.074-0.035,0.006-0.007,0.144,0v-0.153c-0.053-0.025-0.102-0.06-0.144-0.101
	c0.077-0.054,0.058-0.017,0-0.093V24.553z M28.039,24.602h0.1v0.047c-0.039-0.005-0.074-0.024-0.101-0.055L28.039,24.602z
	 M27.369,24.648c-0.016,0.067,0.068,0.07,0.1,0.101c0.031-0.062-0.087-0.092-0.101-0.106L27.369,24.648z M27.227,24.749
	c-0.043,0.041-0.092,0.074-0.145,0.101v0.047h0.048v0.05c0.159-0.128,0.197-0.104,0.095-0.207L27.227,24.749z M26.939,24.798
	c-0.024,0.142-0.06,0.089,0.047,0.194v0.038c0.049,0.048,0.048-0.048,0.049-0.05h0.048v-0.047c-0.052-0.046-0.1-0.094-0.146-0.146
	L26.939,24.798z M4.977,24.898v0.1c0.071,0.013,0.162,0.109,0.191,0.1C5.167,25.079,5,24.9,4.976,24.885L4.977,24.898z M8.422,25.48
	H8.66c0.025-0.063,0.042-0.128,0.048-0.194c-0.022-0.063-0.039-0.128-0.048-0.194l-0.048-0.1l-0.144,0.049v0.291
	c-0.028,0.039-0.044,0.086-0.047,0.135L8.422,25.48z M9.283,25.48h0.239c0.025-0.063,0.042-0.128,0.048-0.194
	c-0.042-0.095-0.075-0.191-0.1-0.291c-0.038,0.004-0.073,0.021-0.1,0.049c-0.063,0.132-0.093,0.277-0.088,0.423L9.283,25.48z
	 M12.824,25.48h0.143c-0.007-0.166-0.041-0.33-0.1-0.485c-0.038,0.004-0.074,0.021-0.1,0.049h-0.04
	c0.057,0.134,0.09,0.277,0.096,0.423L12.824,25.48z M13.637,24.995c-0.016,0.183,0.055,0.362,0.191,0.485v-0.207
	c-0.033-0.049-0.062-0.194-0.1-0.242c-0.025-0.025-0.057-0.043-0.092-0.049L13.637,24.995z M14.498,24.995
	c0.018,0.169,0.066,0.333,0.143,0.485v-0.063c0.031-0.042,0.047-0.093,0.048-0.145c-0.033-0.049-0.062-0.194-0.1-0.242
	c-0.024-0.025-0.055-0.042-0.089-0.049L14.498,24.995z M17.898,24.995l-0.048,0.146h0.239v-0.062
	c-0.059-0.042-0.125-0.075-0.194-0.097L17.898,24.995z M18.759,24.995l-0.048,0.146H18.9v-0.1h-0.048
	c-0.024-0.029-0.058-0.051-0.096-0.059L18.759,24.995z M22.159,24.995c-0.063,0.155-0.063,0.329,0,0.485
	c0.009-0.16,0.057-0.314,0.141-0.45L22.159,24.995z M23.02,24.995c-0.04,0.158-0.057,0.321-0.047,0.485h0.1
	c0.002-0.151,0.037-0.3,0.1-0.437L23.02,24.995z M23.977,25.48c0.057-0.145,0.039-0.308-0.047-0.437v-0.062
	c-0.049-0.049-0.048,0.048-0.049,0.049c-0.063,0.119-0.08,0.257-0.048,0.388c0.04,0.03,0.088,0.047,0.138,0.048L23.977,25.48z
	 M17.183,25.044v0.049h-0.054c-0.092,0.038,0.1,0.05,0.1,0.05c-0.002-0.043-0.021-0.083-0.052-0.112L17.183,25.044z M24.121,25.044
	v0.101h0.145v-0.065L24.121,25.044z M26.753,25.044c0.026,0.026,0.062,0.044,0.101,0.049c-0.027-0.033-0.065-0.056-0.107-0.063
	L26.753,25.044z M7.853,25.48v-0.354H7.8c-0.106,0.072-0.189,0.173-0.239,0.291h0.047c0.073,0.04,0.156,0.057,0.239,0.049
	L7.853,25.48z M14.743,25.48h0.287V25.38l-0.287-0.242v0.339V25.48z M21.729,25.48h0.281v-0.354h-0.048
	c-0.106,0.092-0.188,0.209-0.239,0.34L21.729,25.48z M8.045,25.48H8.23c0.001-0.1-0.015-0.198-0.048-0.291l-0.144,0.048v0.241
	L8.045,25.48z M8.954,25.48h0.185v-0.256h-0.1v-0.049C8.995,25.128,9,25.225,9,25.225c-0.042,0.073-0.06,0.158-0.053,0.242
	L8.954,25.48z M9.815,25.48h0.239v-0.207c-0.041-0.025-0.075-0.06-0.1-0.101L9.81,25.221v0.242L9.815,25.48z M12.494,25.48h0.144
	v-0.305h-0.1v0.049c-0.041,0.074-0.058,0.158-0.05,0.242L12.494,25.48z M13.355,25.48h0.144v-0.305h-0.054v0.049
	c-0.064,0.063-0.099,0.151-0.096,0.242L13.355,25.48z M17.183,25.48v-0.256h-0.1v-0.049c-0.048-0.048-0.047,0.049-0.048,0.049
	c-0.042,0.035-0.054,0.061-0.1,0.1c0.004,0.037,0.021,0.072,0.048,0.1c0.059,0.035,0.126,0.05,0.194,0.043L17.183,25.48z
	 M17.853,25.48h0.239V25.38c-0.041-0.061-0.074-0.126-0.1-0.194c-0.038,0.004-0.073,0.021-0.1,0.049
	c-0.037,0.071-0.052,0.152-0.045,0.232L17.853,25.48z M18.714,25.48h0.239v-0.207c-0.041-0.025-0.075-0.06-0.1-0.101H18.8v0.048
	c-0.079,0.055-0.116,0.153-0.092,0.246L18.714,25.48z M24.169,25.48h0.144c-0.014-0.104-0.047-0.203-0.101-0.291h-0.049v0.291
	H24.169z M14.269,25.238c-0.009,0.084,0.007,0.168,0.048,0.242c0.009-0.09-0.012-0.18-0.059-0.256L14.269,25.238z M14.46,25.238
	c-0.029,0.077-0.045,0.159-0.048,0.242h0.1v-0.256H14.45L14.46,25.238z M19.627,25.238v0.242c0.052,0,0.103-0.018,0.144-0.049
	c0.026-0.027,0.043-0.063,0.048-0.101h-0.058c-0.07-0.131,0.01-0.063-0.144-0.106L19.627,25.238z M22.45,25.238v0.242h0.1V25.38
	c-0.05-0.048-0.077-0.118-0.11-0.155L22.45,25.238z M23.311,25.238v0.242h0.101v-0.256H23.3L23.311,25.238z M24.411,25.48h0.19
	v-0.063c-0.033-0.061-0.082-0.111-0.143-0.145v-0.049H24.4v0.241L24.411,25.48z M13.55,25.286c-0.005,0.067,0.012,0.136,0.048,0.194
	c0.005-0.074-0.015-0.147-0.057-0.207L13.55,25.286z M22.307,25.286c-0.006,0.067,0.011,0.136,0.047,0.194
	c0.007-0.074-0.012-0.146-0.054-0.207L22.307,25.286z M26.518,25.286l-0.049,0.1c0.074-0.086,0.038-0.112,0.038-0.112L26.518,25.286
	z M4.938,25.335h0.1v0.035c-0.042-0.002-0.081-0.02-0.11-0.049L4.938,25.335z M7.378,25.48c0-0.053-0.016-0.104-0.048-0.146v0.035
	H7.273l-0.048,0.1h0.143L7.378,25.48z M9.627,25.335c0,0.052,0.017,0.104,0.048,0.146v-0.159H9.617L9.627,25.335z M12.115,25.48
	c-0.04-0.157,0.023-0.074-0.1-0.146c-0.027,0.026-0.063,0.044-0.1,0.049v0.101h0.191L12.115,25.48z M12.689,25.335v0.101h0.048
	v-0.101h-0.058H12.689z M7.474,25.384v0.101h0.038v-0.101H7.464H7.474z M10.153,25.384v0.101h0.1v-0.066L10.153,25.384z
	 M24.652,25.384c-0.016,0.067,0.068,0.07,0.101,0.101c0.017-0.069-0.099-0.101-0.112-0.114L24.652,25.384z M16.758,25.432
	c0.027,0.027,0.063,0.045,0.1,0.049c-0.028-0.034-0.068-0.057-0.112-0.063L16.758,25.432z M19.964,25.432
	c0.027,0.027,0.063,0.045,0.1,0.049c-0.028-0.034-0.068-0.057-0.112-0.063L19.964,25.432z M25.896,25.577
	c0.027,0.026,0.063,0.044,0.101,0.049c-0.028-0.034-0.068-0.057-0.112-0.062L25.896,25.577z M6.22,25.612
	c0.027,0.026,0.063,0.043,0.1,0.048C6.293,25.633,6.258,25.617,6.22,25.612z M5.789,25.807h0.1v0.047
	C5.851,25.85,5.815,25.833,5.789,25.807z M25.55,25.9c0.052-0.001,0.103,0.017,0.144,0.049C25.642,25.949,25.591,25.932,25.55,25.9z
	"/>
</svg>
