<svg xmlns="http://www.w3.org/2000/svg" width="39.969" height="40" viewBox="0 0 39.969 40">
  <defs>
    <style>
      .cls-1 {
        fill: #fff;
        fill-rule: evenodd;
      }
    </style>
  </defs>
  <path id="ussr_smk_ico" class="cls-1" d="M21.505,12.889a3.641,3.641,0,0,1,1.336.3c0.189,0.061.392,0,.611,0.046,0.182,0.042.379,0.109,0.543,0.137a0.3,0.3,0,0,1,.09-0.16,5.272,5.272,0,0,1,.566.479h1.064V13.71h0.023a1.185,1.185,0,0,0,.045.5,1.226,1.226,0,0,0,.475.023v0.137h0.068v0.182c1.692,0,3.411.064,5.071,0.023V15.1c-1.636-.043-3.371.021-5.071,0.023v0.182H26.259v0.159h-0.5l-0.023.068h-1c-0.123.208-.346,0.312-0.475,0.5a0.066,0.066,0,0,1-.023-0.023,0.513,0.513,0,0,1-.113-0.137,0.064,0.064,0,0,0-.023.023,1.127,1.127,0,0,1-.294.16c0.034,0.119-.015.221,0.023,0.342,0.2,0.645.38,1.343,0.589,1.983a2.339,2.339,0,0,0,.226.73l0.634-2.348a0.729,0.729,0,0,0,.317-0.046,0.285,0.285,0,0,1,.045-0.068,2.133,2.133,0,0,0,.43-0.023l0.091-.114a0.828,0.828,0,0,1,.34-0.046,0.721,0.721,0,0,1,.023-0.228,0.078,0.078,0,0,1,.045.023,0.425,0.425,0,0,1,.023.205,6.587,6.587,0,0,1,1.63.023l0.181,0.023c0.058,0.028.136,0.174,0.226,0.046a0.065,0.065,0,0,0,.023-0.023,0.109,0.109,0,0,1-.068-0.023h0.045a1.235,1.235,0,0,1,.77-0.091V16.195a0.406,0.406,0,0,0,.091-0.068,0.433,0.433,0,0,1,.294.023c0.091,0.03.093,0.06,0.091,0.182a0.54,0.54,0,0,1,.068.274,2.6,2.6,0,0,1,.634.091,0.229,0.229,0,0,1,.136-0.046,0.3,0.3,0,0,1,.068.091c0.015,0.009.219,0.066,0.226,0.068l0.407-.023a4.939,4.939,0,0,1,.543.068,0.089,0.089,0,0,1,.068-0.091,3.69,3.69,0,0,1,.5.388L32.666,17.4h0.226v0.068a2.886,2.886,0,0,1,.724.091h0.407a4.2,4.2,0,0,1,1.041.068l2.852,0.023v0.319c-0.581,0-1.17.023-1.721,0.023a7.9,7.9,0,0,0-1.539.068H33.571a2.731,2.731,0,0,1-.679.091v0.068H32.733a1.038,1.038,0,0,1-.521.729c-0.023-.072-0.036-0.093-0.091-0.068A1.069,1.069,0,0,0,31.9,19v0.023h0.2V18.976h0.068a0.249,0.249,0,0,0,.181.046,0.11,0.11,0,0,1,.113-0.046,0.207,0.207,0,0,0,.181.046V18.976a1.942,1.942,0,0,0,.543.046c0.037-.016.068-0.1,0.113-0.114a3.5,3.5,0,0,1,1.019-.023,0.678,0.678,0,0,0,0,.274,0.527,0.527,0,0,0,.317.3,0.926,0.926,0,0,1,.407,0c0.247-.009.577-0.026,0.86-0.023a0.064,0.064,0,0,1,.023-0.023,4.162,4.162,0,0,1,.181-0.729,0.318,0.318,0,0,1,.09-0.023,0.139,0.139,0,0,0,.045.046l-0.2.729h0.2a2.037,2.037,0,0,0,.5-0.023V19.5a1.909,1.909,0,0,1,.747.16c0.046,0.02.1,0.1,0.136,0.114h0.2c0.121,0.031.264,0.05,0.407,0.091,0.2,0.056.363,0.172,0.543,0.205l0.023-.114h0.045v0.023a0.187,0.187,0,0,0-.023.137c0.089,0.085.218,0.1,0.317,0.182l0.045,0.091a2.137,2.137,0,0,0,.385.342,1.756,1.756,0,0,0,.159.615q0.011,0.194.023,0.388a3.814,3.814,0,0,1,.226.456,1.519,1.519,0,0,1-.226,1.026V23.193H39.728c-0.036.424-.128,1.036-0.611,1.026-0.077-.08-0.151-0.143-0.226-0.228V23.968H38.619v0.068a0.977,0.977,0,0,0-.5.319,1.927,1.927,0,0,1-.2.3l-0.068-.023L37.8,24.7a0.109,0.109,0,0,0-.091-0.023,1.087,1.087,0,0,0-.407.433,0.539,0.539,0,0,0-.385.182,0.7,0.7,0,0,0-.113.046v0.023h0.023a0.41,0.41,0,0,1-.113.182,0.668,0.668,0,0,1-.226.023,0.859,0.859,0,0,0-.272.205,0.821,0.821,0,0,1-.136.182,0.842,0.842,0,0,1-.226.023,0.918,0.918,0,0,0-.272.205,0.824,0.824,0,0,1-.136.182A3.039,3.039,0,0,0,35,26.5a1.618,1.618,0,0,1-.249.251,3.558,3.558,0,0,0-.407.023,1.3,1.3,0,0,1-.453.205c-0.171-.286-0.542.1-0.747,0a0.431,0.431,0,0,0-.385-0.091,0.4,0.4,0,0,1-.34.091,0.469,0.469,0,0,0-.407-0.091,0.371,0.371,0,0,1-.317.091,0.522,0.522,0,0,0-.43-0.091,0.4,0.4,0,0,1-.34.091,0.469,0.469,0,0,0-.407-0.091,0.4,0.4,0,0,1-.34.091V26.932h-0.09V26.886a5.753,5.753,0,0,0-.634.091,0.506,0.506,0,0,0-.43-0.091,0.315,0.315,0,0,1-.294.091,0.593,0.593,0,0,0-.408-0.091,0.53,0.53,0,0,1-.362.091,0.508,0.508,0,0,0-.43-0.091,0.351,0.351,0,0,1-.317.091,0.529,0.529,0,0,0-.362-0.091,0.542,0.542,0,0,1-.362.091,0.547,0.547,0,0,0-.453-0.091,0.313,0.313,0,0,1-.294.091,0.548,0.548,0,0,0-.453-0.091,0.326,0.326,0,0,1-.294.091,0.549,0.549,0,0,0-.453-0.091,0.326,0.326,0,0,1-.294.091V26.932H24.154V26.886H23.792c-0.006.059,0.011,0.041-.09,0.046-0.1.114-.2-0.01-0.272-0.046H23.045c-0.006.059,0.011,0.041-.09,0.046a6.491,6.491,0,0,1-.657-0.046,0.3,0.3,0,0,1-.272.091,0.591,0.591,0,0,0-.475-0.091,0.289,0.289,0,0,1-.272.091,0.55,0.55,0,0,0-.453-0.091,0.3,0.3,0,0,1-.272.091,0.593,0.593,0,0,0-.475-0.091,0.3,0.3,0,0,1-.272.091,0.594,0.594,0,0,0-.475-0.091c-0.016.007-.117,0.085-0.136,0.091a1.723,1.723,0,0,0-.611-0.091,0.328,0.328,0,0,1-.272.091,0.593,0.593,0,0,0-.475-0.091,0.269,0.269,0,0,1-.249.091V26.932H17.5V26.886H17.091a0.269,0.269,0,0,1-.249.091V26.932h-0.09V26.886H16.344a0.287,0.287,0,0,1-.249.091V26.932H16V26.886H15.6a0.287,0.287,0,0,1-.249.091V26.932H15.258V26.886H14.873a0.554,0.554,0,0,1-.249.091,0.111,0.111,0,0,0-.023-0.068,1.974,1.974,0,0,0-.475-0.023v0.046H14.012v0.046H13.877V26.932H13.786V26.886H13.379a0.328,0.328,0,0,1-.272.091V26.932H13.016V26.886H12.632a0.3,0.3,0,0,1-.272.091,0.551,0.551,0,0,0-.453-0.091,0.328,0.328,0,0,1-.272.091V26.932H11.545V26.886H11.16a0.3,0.3,0,0,1-.272.091,0.594,0.594,0,0,0-.475-0.091,0.517,0.517,0,0,1-.294.091c-0.006-.059.011-0.041-0.091-0.046a0.483,0.483,0,0,0-.362-0.046,0.306,0.306,0,0,1-.272.091,0.6,0.6,0,0,0-.475-0.091,0.289,0.289,0,0,1-.272.091,0.551,0.551,0,0,0-.453-0.091,0.346,0.346,0,0,1-.294.091,0.551,0.551,0,0,0-.453-0.091,0.346,0.346,0,0,1-.294.091A0.55,0.55,0,0,0,6.7,26.886a0.326,0.326,0,0,1-.294.091,0.552,0.552,0,0,0-.453-0.091,0.648,0.648,0,0,1-.272.091,0.111,0.111,0,0,0-.023-0.068,1.142,1.142,0,0,1-.407-0.068c-0.138-.027-0.207.04-0.362,0.023a0.111,0.111,0,0,0-.023-0.068,0.151,0.151,0,0,1-.091.023c0.009-.076.023-0.065-0.091-0.068a1.1,1.1,0,0,0-.543-0.137V26.544a0.109,0.109,0,0,1-.068-0.023H4.052c-0.009-.045.035-0.016,0-0.046a2.836,2.836,0,0,0-.294-0.182c-0.063-.023-0.147.025-0.2,0A1.265,1.265,0,0,1,3.4,26.157l0.023-.068A0.925,0.925,0,0,0,2.9,25.883a1,1,0,0,0-.7-0.433l0.023-.091a2.271,2.271,0,0,1-.385-0.251C1.808,25.1,1.651,25.1,1.63,25.085a1,1,0,0,1-.2-0.3A3.239,3.239,0,0,0,.86,24.447,0.571,0.571,0,0,0,.77,24.1c-0.051.009-.025,0.021-0.068,0a0.785,0.785,0,0,1-.023-0.16H0.611c-0.021-.1-0.1-0.138-0.113-0.228A1.725,1.725,0,0,1,.543,23.4H0.5a0.152,0.152,0,0,0-.091-0.023,3.954,3.954,0,0,1-.045.821H0.226V24.173H0.2a5.18,5.18,0,0,0-.023-0.8A0.454,0.454,0,0,1,.045,22.92a0.18,0.18,0,0,1,.136-0.137,1.053,1.053,0,0,1,.385-0.114,0.307,0.307,0,0,0-.045-0.182A0.16,0.16,0,0,0,.656,22.35c0.007-.014.028-0.184,0.045-0.273H0.656a1.423,1.423,0,0,1-.317.137,0.2,0.2,0,0,0-.091-0.068A0.083,0.083,0,0,1,.226,22.1a1.291,1.291,0,0,0,1.019-.73,1.1,1.1,0,0,1-.317-0.182,6.233,6.233,0,0,1-.634.547c-0.057-.1-0.088-0.143-0.158-0.251,0.2-.116.333-0.308,0.521-0.433V21.027a0.262,0.262,0,0,1-.249-0.274,2.825,2.825,0,0,0,.34-0.638,6.375,6.375,0,0,1,1.019-1.664,2.1,2.1,0,0,1,.611-0.274,0.511,0.511,0,0,0,.294-0.091v-0.3H2.739a1.73,1.73,0,0,0,.023.342H3.079V17.813a0.139,0.139,0,0,0,.045-0.046H3.147V17.79a0.465,0.465,0,0,1,.045.319H3.214c0.04-.024.576,0.023,0.747,0.023h2.06a0.078,0.078,0,0,1,.023-0.046V18.041A1.678,1.678,0,0,1,5.5,17.608H5.523V17.585a1.157,1.157,0,0,1,1.064.228,2.554,2.554,0,0,0,.272.274,2.971,2.971,0,0,0,1,.046c-0.016-.409.06-0.676,0.475-0.661a1.567,1.567,0,0,1,.724-0.046c0.661,0,1.208-.025,1.788-0.046V17.4H10.821c-0.043.018,0.045,0.023,0.045,0.023a3.657,3.657,0,0,1,.7,0c0.332-.008.721-0.022,1.041-0.046,0.006,0.059-.011.041,0.091,0.046a0.157,0.157,0,0,1,.113,0c0-.085-0.027-0.056.068-0.068,0.029,0.066-.026.047,0.068,0.068A0.464,0.464,0,0,1,13.2,17.38V17.4H13.175c-0.044.018,0.045,0.023,0.045,0.023a1.02,1.02,0,0,1,.2-0.046c0.009,0.058-.013.036,0.068,0.046a9.7,9.7,0,0,1,1.449.046,0.615,0.615,0,0,0,.136.16,0.979,0.979,0,0,1,.068.5h0.181V18.087a3.343,3.343,0,0,0,.181-0.821,7.257,7.257,0,0,0,.272-1.641,0.311,0.311,0,0,1-.2-0.046H12.518a0.36,0.36,0,0,1-.023-0.114,0.792,0.792,0,0,0,.045-0.57,20.373,20.373,0,0,1-2.264-.023,0.388,0.388,0,0,1,.023-0.137H10.255a2.987,2.987,0,0,0-.792-0.046,0.3,0.3,0,0,1-.023.16V14.69a1.285,1.285,0,0,1-.362,0c-0.009.058,0.013,0.036-.068,0.046V14.713H8.987C8.981,14.772,9,14.753,8.9,14.758L8.874,14.69a0.269,0.269,0,0,1,0-.205,0.567,0.567,0,0,1,.181-0.023,0.682,0.682,0,0,0,.385.068,0.3,0.3,0,0,1,.023-0.16v0.16a2.388,2.388,0,0,0,.475-0.046V14.371h0.068V14.3H9.938V14.052h0.091v0.433c0.7,0.073,1.722,0,2.513,0V13.892l0.136-.023a0.245,0.245,0,0,0,.068-0.16h0.272V13.664a0.116,0.116,0,0,0,.023-0.068,0.9,0.9,0,0,0,.385-0.137,1.545,1.545,0,0,0,.249,0c0.2-.061.385-0.186,0.566-0.251l0.249-.023c0.219-.076.436-0.28,0.656-0.342V12.707h-0.2V12.616h0.113V12.547a0.112,0.112,0,0,0,.113-0.091,0.66,0.66,0,0,1-.158-0.251H15.1a0.635,0.635,0,0,1,.294.228,2,2,0,0,1,.385.046h0.566a10.942,10.942,0,0,1,1.426.046c0.076,0.011.044-.036,0.068-0.046h0.589v0.228H18v0.137a6.08,6.08,0,0,0,1.064.046h1.72c-0.014-.473.032-0.983,0.5-0.866A1.982,1.982,0,0,1,21.505,12.889Zm-8.444,4.422a0.145,0.145,0,0,1,.091.023A0.144,0.144,0,0,1,13.062,17.312Z" transform="translate(-0.031 0.5)"/>
</svg>
