<?xml version="1.0" encoding="utf-8"?>
<!-- Generator: Adobe Illustrator 16.0.0, SVG Export Plug-In . SVG Version: 6.00 Build 0)  -->
<!DOCTYPE svg PUBLIC "-//W3C//DTD SVG 1.1//EN" "http://www.w3.org/Graphics/SVG/1.1/DTD/svg11.dtd">
<svg version="1.1" id="Layer_1" xmlns="http://www.w3.org/2000/svg" xmlns:xlink="http://www.w3.org/1999/xlink" x="0px" y="0px"
	 width="39.969px" height="40px" viewBox="0 0 39.969 40" enable-background="new 0 0 39.969 40" xml:space="preserve">
<path id="ussr_btr_152a_ico" fill="#FFFFFF" d="M28.869,15.572h0.068c0.027,0.395,0.035,0.79,0.022,1.186h0.022v0.022
	c0.168,0.011,0.367,0.047,0.52,0.067c0.093,0.012,0.145-0.043,0.271-0.045c0,0.089,0,0.07,0.135,0.067
	c0.024-0.05,0.084-0.07,0.134-0.046c0,0,0.001,0,0.001,0.001l0.025,0.068l0.293,0.022c0.266,0.061,0.566,0.023,0.857,0.09
	c0.266,0.06,0.566,0.024,0.857,0.089c0.188,0.042,0.441,0.047,0.632,0.09h0.338c0.565,0.125,1.208,0.1,1.782,0.224
	c0.135,0.013,0.268-0.037,0.361-0.134c0.207-0.083,0.434-0.106,0.653-0.067c-0.008,0.102,0.016,0.203,0.068,0.291
	c0.19,0.052,0.39,0.074,0.587,0.067v-0.4h0.271v0.448c0.209-0.052,0.426,0.051,0.519,0.246c0.033,0.143,0.134,0.26,0.271,0.313
	c-0.015,0.036-0.015,0.076,0,0.112c0.116,0.035,0.219,0.104,0.293,0.2h-0.025c-0.034-0.028-0.072-0.051-0.113-0.067v0.022
	c0.013,0.036,0.021,0.074,0.023,0.112c0.101,0.102,0.178,0.224,0.226,0.358c0.116,0.035,0.229,0.08,0.338,0.134v0.045h-0.046
	c-0.033-0.023-0.072-0.039-0.113-0.045c-0.01,0.028-0.01,0.061,0,0.089c0.037,0.08,0.082,0.154,0.135,0.225
	c0.021-0.012,0.047-0.012,0.068,0c0.019,0.059,0.033,0.118,0.045,0.179l0.361,0.157v0.021h-0.021v0.021l-0.182-0.09v0.045
	c0.005,0.023,0.013,0.047,0.023,0.067c0.045,0.085,0.114,0.155,0.199,0.2c0.063,0.1-0.027,0.2,0.158,0.246
	c0.1,0.025,0.125-0.053,0.2-0.021c0.101,0.113,0.235,0.191,0.383,0.224v0.045H39.45c-0.147-0.103-0.321-0.165-0.5-0.179
	c0.022,0.199,0.438,0.604,0.36,0.648h0.52c0.052,0.063,0.076,0.144,0.068,0.225h0.07v0.179H39.9v0.313h0.068v0.179H39.9v0.201
	c-0.232,0.074-0.479,0.098-0.721,0.066c-0.064-0.027-0.132-0.043-0.201-0.045c0.003-0.031,0.011-0.062,0.023-0.09
	c0.043,0.015,0.089,0.021,0.135,0.021c0.009-0.123,0.039-0.244,0.09-0.357c-0.387-0.145-0.764-0.317-1.127-0.516v0.045h0.02
	c0.053,0.059,0.123,0.098,0.199,0.112c0.229,0.154,0.357,0.419,0.339,0.694c-0.058,0.033-0.048,0.066-0.046,0.156H38.48V21.95
	h-0.361v0.157h-0.135V21.95h-0.271v0.022c0.024,0.089,0.017,0.184-0.021,0.269h-0.137c-0.012-0.029,0-0.017-0.022-0.022
	c-0.111,0.362-0.142,0.744-0.091,1.119c-0.108,0.541-0.331,1.053-0.653,1.5c-0.664,0.807-1.692,1.221-2.729,1.1l-0.339-0.021
	c-0.498-0.143-0.966-0.377-1.376-0.693c-0.455-0.397-0.784-0.919-0.947-1.5c-0.078-0.242-0.03-0.535-0.112-0.783
	c-0.243-0.003-0.485-0.033-0.722-0.09c-0.312-0.072-0.64-0.047-0.926-0.112c-0.281-0.022-0.561-0.067-0.835-0.134l-1.263-0.135
	c-1.073-0.181-2.162-0.248-3.249-0.199V22.4c-0.625,0-1.228,0-1.899,0h-0.9c-0.275,0.055-0.555,0.093-0.836,0.111v-0.07h-0.133V22.4
	l-0.337,0.021C20.12,22.415,19.911,22.4,19.71,22.4v-0.138h-1.041c-0.333,0.075-0.673,0.12-1.015,0.134
	c0.265,1.48-0.587,2.933-2.008,3.425c-1.354,0.46-2.846-0.067-3.61-1.276c-0.225-0.303-0.372-0.656-0.429-1.029
	c-0.053-0.001-0.106-0.008-0.158-0.021c-0.007,0.078-0.03,0.154-0.068,0.224c-0.049,0.022-0.104,0.03-0.158,0.022
	c-0.11-0.008-0.194-0.104-0.186-0.213c0-0.012,0.002-0.022,0.005-0.033c-0.059,0.016-0.121,0.016-0.18,0
	c-0.044,0.365-0.185,0.713-0.406,1.007c-0.357,0.597-0.906,1.056-1.557,1.3c-0.245,0.063-0.494,0.108-0.745,0.135
	c-0.313,0.062-0.637,0.055-0.948-0.022c-0.858-0.204-1.594-0.755-2.03-1.522c-0.375-0.607-0.505-1.336-0.361-2.035
	c0.098-0.387,0.25-0.757,0.451-1.101H2.469v0.226H2.248v0.111l-0.045,0.022c-0.06,0.038-0.13,0.054-0.2,0.045L1.977,21.3H1.909
	v-0.178l-0.2-0.022v0.09c-0.19,0.135-0.43,0.176-0.654,0.112c-0.15-0.125-0.212-0.327-0.158-0.515h0.2
	c-0.011,0.059-0.011,0.119,0,0.179c0.042,0.07,0.133,0.093,0.203,0.052c0.036-0.021,0.061-0.057,0.069-0.098
	c-0.047-0.045-0.085-0.098-0.113-0.157c-0.21-0.014-0.374-0.063-0.362-0.313c0.012-0.013,0.021-0.028,0.023-0.045
	c0.083-0.103,0.207-0.16,0.338-0.157c0.081-0.042,0.164-0.08,0.248-0.112c0.057,0.218,0.141,0.429,0.248,0.628
	c0.05-0.021,0.104-0.029,0.158-0.022l-0.023-0.336c-0.058-0.017-0.119-0.024-0.18-0.022c-0.008-0.201-0.031-0.402-0.068-0.6H1.569
	v-0.094h0.069c0.034-0.281,0.042-0.566,0.023-0.85l0.023-1.074H1.661v0.022c-0.025,0.028-0.271,0.268-0.271,0.268v0.873
	c-0.088,0.213-0.134,0.44-0.135,0.671c-0.077,0.018-0.152,0.039-0.226,0.067c-0.301,0.044-0.608,0.021-0.9-0.067
	c-0.138-0.631-0.183-1.28-0.135-1.925v-3.423c0.061-0.188,0.098-0.384,0.11-0.582c0.04-0.028,0.086-0.044,0.135-0.045
	c0.332-0.103,0.688-0.095,1.015,0.022c0.016,0.229,0.062,0.454,0.135,0.671v0.873c0.129,0.066,0.179,0.2,0.293,0.268V14.3
	c-0.024-0.063-0.032-0.132-0.023-0.2c0.032-0.026,0.069-0.043,0.11-0.05v-0.089c0.051-0.039,0.096-0.083,0.135-0.134h10.18v-0.135
	h-0.115c-0.024-0.387-0.024-0.776,0-1.164h0.7c0.044,0.013,0.089,0.021,0.135,0.022c0.1-0.13,0.306-0.176,0.406-0.313
	c0.047-0.183,0.149-0.347,0.293-0.47c0.118-0.029,0.24-0.036,0.361-0.022c0.208-0.113,0.397-0.257,0.563-0.425
	c0.256-0.183,0.494-0.381,0.745-0.559c0.145-0.083,0.28-0.181,0.406-0.291c0.576,0.065,1.144,0.192,1.692,0.38
	c0.794,0.226,1.574,0.314,2.369,0.537c0.437,0.147,0.893,0.23,1.354,0.246c0.018,0.033,0.041,0.063,0.068,0.09
	c-0.003,0.017-0.011,0.033-0.023,0.045c-0.055,0.136-0.143,0.074-0.271,0.134c-0.176,0.083-0.331,0.205-0.451,0.358h0.135
	c0.058-0.022,0.119-0.03,0.18-0.021l-0.022,0.268c0.052-0.009,0.105-0.009,0.158,0c0.028-0.131,0.036-0.266,0.022-0.4
	c0.024,0,0.048,0.007,0.067,0.022c0.008,0.064,0.031,0.126,0.068,0.179c0.158-0.088,0.344-0.112,0.52-0.067v0.045
	c-0.121-0.018-0.244-0.01-0.361,0.022c-0.021,0.042-0.028,0.088-0.023,0.134c0.016,0.02,0.023,0.043,0.023,0.067h0.271l0.022-0.045
	c0.052,0.019,0.104,0.034,0.158,0.045c0.038-0.083,0.093-0.159,0.157-0.224h1.242l0.022,0.38h0.045
	c0.058,0.022,0.119,0.03,0.181,0.022c0.006,0.059,0.019,0.047,0.135,0.045c0.086-0.056,0.193-0.072,0.293-0.045
	c0.006,0.059,0.019,0.047,0.135,0.045c0.053-0.05,0.13-0.068,0.199-0.045c0.01,0.059,0.037,0.049,0.158,0.045
	c0.071-0.054,0.164-0.071,0.248-0.045c0.006,0.059,0.02,0.047,0.135,0.045c0.037-0.065,0.113-0.072,0.158-0.134h0.024
	c0.021,0.031,0.044,0.061,0.067,0.089h0.791c0.006,0.059,0.019,0.047,0.135,0.045c0.079-0.055,0.178-0.071,0.271-0.045
	c0.006,0.059,0.019,0.047,0.135,0.045c0.148-0.065,0.313-0.088,0.474-0.067c0.147-0.036,0.3-0.051,0.451-0.045
	c0.021,0.031,0.044,0.061,0.067,0.09l1.016-0.045V13l-1.008-0.046c-0.254,0.083-0.526,0.099-0.789,0.045
	c-0.359-0.042-0.723-0.049-1.084-0.022h-0.454c-0.238,0.068-0.742,0.046-1.105,0.134c-0.288,0.07-0.61,0.058-0.925,0.134
	c-0.258,0.066-0.523,0.104-0.79,0.112c0.015,0.169,0.058,0.19,0.068,0.358h-0.181v0.112c0.262,0,0.637,0.014,0.767,0
	c0.132-0.037,0.269-0.052,0.405-0.045v0.045c0.037,0.017,0.075,0.032,0.113,0.045l1.105,0.045c0.216,0.049,0.479-0.01,0.722,0.045
	c0.397,0.058,0.798,0.087,1.2,0.089l0.316,0.358c0.1-0.024,0.131-0.061,0.199,0.022c0.01,0.005,0.018,0.013,0.023,0.022
	c-0.071,0-0.03-0.038-0.068,0.022h0.023c0.076,0.054,0.1,0.007,0.113,0.134c0,0-0.065,0.029-0.045,0.045h0.022
	c0.083,0.125,0.228,0.2,0.315,0.313c0.399,0.428,0.775,0.876,1.129,1.343c0.033-0.024,0.072-0.04,0.113-0.045
	c0.012,0.036,0.012,0.076,0,0.112c0.072-0.008,0.146,0.017,0.199,0.067c0.037,0.034,0.055,0.084,0.045,0.134
	c0.075-0.009,0.064-0.022,0.068,0.09c-0.061,0.019,0.009,0.014-0.045,0.045c0.042,0.02,0.088,0.028,0.135,0.022
	c0.027,0.017,0.059,0.024,0.09,0.022c-0.043-0.396-0.021-0.797,0.068-1.186V10h0.045V15.572z"/>
</svg>
