<svg xmlns="http://www.w3.org/2000/svg" width="39.969" height="40" viewBox="0 0 39.969 40">
  <defs>
    <style>
      .cls-1 {
        fill: #fff;
        fill-rule: evenodd;
      }
    </style>
  </defs>
  <path id="ussr_t_64a_1971_ico" class="cls-1" d="M17.481,21.649a2.3,2.3,0,0,1,.963.054,1.49,1.49,0,0,0,.3.108v0.081a2.284,2.284,0,0,0,.22.189,3.314,3.314,0,0,0,1.074,0v0.135c0.034,0.01.242,0.135,0.11,0.162h0.358a2.755,2.755,0,0,0,.743.027,8.667,8.667,0,0,0,1.156.054h0.523c0.25,0.053.624-.033,0.908,0.027A6.748,6.748,0,0,0,25,22.541h0.716a7.407,7.407,0,0,0,1.377.054h0.5c0.25,0.053.624-.033,0.909,0.027a5.8,5.8,0,0,0,1.376.027V22.568a0.756,0.756,0,0,0,.248-0.054l1.6,0.027a5.306,5.306,0,0,1,.936.027c0.311,0.066.712-.025,0.991,0.027,0.011,0.1-.013.068,0.055,0.108a9.369,9.369,0,0,0,1.789.054c0.461,0.1,1.074-.077,1.569.027a5.77,5.77,0,0,0,1.019.027H40q-0.014.392-.028,0.784c-2.059.006-4.192-.129-6.277-0.135a0.219,0.219,0,0,0-.083.162H33.255a0.506,0.506,0,0,0-.055.081,0.891,0.891,0,0,1-.22-0.081,4.239,4.239,0,0,1-.661-0.027c-0.493-.109-1.11.075-1.569-0.027H30.09V23.514h-0.22a0.622,0.622,0,0,0-.11-0.108c-0.272-.085-0.689.028-0.936-0.027H26.1c-1.965,0-4.162,0-5.919,0a0.282,0.282,0,0,1-.138.108v0.135a1.741,1.741,0,0,0-1.1.108,0.76,0.76,0,0,0-.275.162H18.637v0.027h0.248a1.747,1.747,0,0,1,.908-0.054V23.7a1.017,1.017,0,0,1,.193.054v0.108c0.238,0,.582-0.05.771-0.027,0.153,0.019.3,0.156,0.468,0.189a0.4,0.4,0,0,0,.275-0.108l0.3,0.027a0.523,0.523,0,0,1,.11-0.108,0.78,0.78,0,0,0,.5.27,0.22,0.22,0,0,1,.165-0.054c0.046,0.011.1,0.064,0.165,0.081,0.038-.094.063-0.083,0.193-0.081a0.228,0.228,0,0,0,.083.108,0.518,0.518,0,0,1,.33-0.054c0.045,0.04.1,0.091,0.138,0.135a0.923,0.923,0,0,1,.5-0.027,0.41,0.41,0,0,0,.3.108,0.885,0.885,0,0,0,.413.054V24.054h0.578v0.351a1.153,1.153,0,0,0,.33.027v0.081L27.226,24.7c0.2,0.054.41,0.195,0.578,0.243l0.441-.027v0.054h0.193a0.319,0.319,0,0,1-.055.135,1.422,1.422,0,0,0,.027.378,0.793,0.793,0,0,1,.193.405,0.2,0.2,0,0,0-.083.189H28.41a0.077,0.077,0,0,1-.027.027,4.791,4.791,0,0,1,.027.595,2.074,2.074,0,0,0-.055.378c-0.123,0-.468-0.027-0.468-0.027-0.02.022-.006,0.053-0.027,0.081s-0.121.055-.138,0.081l-0.028.27h-0.11a0.587,0.587,0,0,0-.138.27,1.089,1.089,0,0,1-.275.108,0.9,0.9,0,0,0-.055.135,1.68,1.68,0,0,1-.248.027c-0.056.035-.06,0.16-0.11,0.189H26.566a1.026,1.026,0,0,1-.138.189,0.336,0.336,0,0,0-.165-0.027,1.035,1.035,0,0,0-.11.189l-0.22.027a1.335,1.335,0,0,0-.055.135,0.287,0.287,0,0,1-.193,0,0.763,0.763,0,0,1-.3.216v0.027l-0.055-.027v0.027a0.565,0.565,0,0,1-.138.162,0.323,0.323,0,0,0-.193,0l-0.11.189H24.694c-0.038.025-.041,0.136-0.083,0.162a1.751,1.751,0,0,0-.248.027c-0.049.032-.038,0.129-0.083,0.162a1.642,1.642,0,0,1-.22.027,1.247,1.247,0,0,1-.193.162l-0.028.027a0.5,0.5,0,0,0-.33,0l-0.028.081a0.315,0.315,0,0,1-.248-0.081c-0.014,0-.1.078-0.11,0.081-0.152.032-.146-0.119-0.3-0.081a1.013,1.013,0,0,0-.082.081,0.239,0.239,0,0,1-.193-0.081,0.52,0.52,0,0,1-.248.081,0.5,0.5,0,0,0-.193-0.081,0.171,0.171,0,0,1-.193.081c-0.187-.171-0.133.064-0.33,0a0.353,0.353,0,0,0-.193-0.081c-0.106.144-.169,0.038-0.275,0a0.437,0.437,0,0,1-.248.081,0.322,0.322,0,0,0-.193-0.081,0.151,0.151,0,0,1-.165.081,0.633,0.633,0,0,0-.11-0.081,0.628,0.628,0,0,1-.22.081,0.22,0.22,0,0,0-.193-0.081,0.249,0.249,0,0,1-.193.081,0.758,0.758,0,0,1-.11-0.081,0.461,0.461,0,0,1-.22.081,1.143,1.143,0,0,0-.083-0.081c-0.209-.06-0.159.2-0.385,0a0.684,0.684,0,0,1-.248.081c-0.011,0-.064-0.076-0.083-0.081a0.21,0.21,0,0,0-.193.081,0.266,0.266,0,0,1-.22-0.081,0.271,0.271,0,0,1-.193.081H18.032a0.352,0.352,0,0,0-.193-0.081c-0.119.118-.156,0.045-0.275,0a0.552,0.552,0,0,1-.248.081,0.388,0.388,0,0,0-.193-0.081c-0.153.2-.22-0.029-0.3,0-0.022.008-.088,0.076-0.11,0.081-0.119.028-.106-0.063-0.165-0.081-0.2-.061-0.183.2-0.413,0a0.311,0.311,0,0,1-.248.081,0.3,0.3,0,0,0-.193-0.081,0.151,0.151,0,0,1-.165.081c-0.207-.16-0.146.056-0.33,0a0.467,0.467,0,0,0-.22-0.081,0.151,0.151,0,0,1-.165.081,0.636,0.636,0,0,0-.11-0.081,0.458,0.458,0,0,1-.22.081,0.217,0.217,0,0,0-.193-0.081,0.247,0.247,0,0,1-.193.081,0.166,0.166,0,0,1-.083-0.081,0.77,0.77,0,0,1-.248.081,1.143,1.143,0,0,0-.083-0.081c-0.155-.044-0.152.117-0.3,0.081a0.982,0.982,0,0,1-.083-0.081,0.685,0.685,0,0,1-.248.081,0.351,0.351,0,0,0-.193-0.081c-0.151.167-.151,0.042-0.275,0a0.678,0.678,0,0,1-.248.081,0.4,0.4,0,0,0-.193-0.081l-0.055.081H12l-0.165-.081a0.216,0.216,0,0,1-.193.081H11.617c-0.033-.014-0.03-0.114-0.165-0.081-0.178.043-.11,0.12-0.33,0a0.175,0.175,0,0,1-.193.081,0.22,0.22,0,0,0-.193-0.081,1.014,1.014,0,0,0-.083.081,0.261,0.261,0,0,1-.22-0.081,0.463,0.463,0,0,1-.22.081,1.1,1.1,0,0,0-.083-0.081,0.9,0.9,0,0,0-.275.081,1.055,1.055,0,0,0-.165-0.081,0.643,0.643,0,0,1-.193.081A0.171,0.171,0,0,0,9.3,29.892c-0.129.129-.171,0.034-0.3,0a0.264,0.264,0,0,1-.22.081,0.171,0.171,0,0,0-.193-0.081c-0.125.125-.159,0.039-0.275,0a0.677,0.677,0,0,1-.248.081,0.392,0.392,0,0,0-.193-0.081c-0.107.145-.168,0.037-0.275,0a0.682,0.682,0,0,1-.248.081,0.4,0.4,0,0,0-.193-0.081c-0.106.144-.169,0.038-0.275,0a0.59,0.59,0,0,1-.22.081,0.555,0.555,0,0,0-.22-0.081,0.151,0.151,0,0,1-.165.081,0.66,0.66,0,0,0-.11-0.081,0.455,0.455,0,0,1-.22.081,0.217,0.217,0,0,0-.193-0.081,1.032,1.032,0,0,0-.083.081,0.919,0.919,0,0,1-.3-0.081,0.528,0.528,0,0,1-.165.054,0.869,0.869,0,0,1-.165-0.162,0.853,0.853,0,0,0-.248,0,1.246,1.246,0,0,1-.11-0.162l-0.248-.027L4.4,29.46a0.543,0.543,0,0,0-.275-0.027,0.762,0.762,0,0,1-.083-0.162c-0.063-.046-0.193.021-0.248-0.027a0.454,0.454,0,0,0-.165-0.189,0.243,0.243,0,0,1-.138.027l-0.11-.162a1.211,1.211,0,0,1-.248-0.027,0.533,0.533,0,0,0-.083-0.162H2.836c-0.043-.023-0.045-0.136-0.083-0.162H2.533C2.49,28.543,2.5,28.435,2.45,28.405a0.258,0.258,0,0,0-.22,0,0.858,0.858,0,0,1-.138-0.189A0.529,0.529,0,0,1,1.9,28.189,1.02,1.02,0,0,1,1.817,28c-0.05-.047-0.138.074-0.165-0.135H1.569c-0.053-.217-0.117-0.259-0.413-0.243a1.821,1.821,0,0,1-.688-1.081,2.066,2.066,0,0,1,.165-0.351,0.58,0.58,0,0,1-.551-0.351c-0.217-.284.152-0.539,0.3-0.649a2.27,2.27,0,0,0,.358.027V25.162c-0.018-.023-0.037-0.085-0.055-0.108l-0.22.081V25.108H0.5c0.145-.127.3-0.1,0.3-0.378l-0.248-.054V24.3h0.33a0.451,0.451,0,0,0-.028-0.162A1.23,1.23,0,0,1,1.1,24.027v0.027H1.074c-0.053.021,0.055,0.027,0.055,0.027A1.623,1.623,0,0,1,1.9,23.946c0.064-.131.124-0.144,0.33-0.135a0.306,0.306,0,0,1,.165,0v-0.73H7.3V23.73H7.571V23.676L7.9,23.73c0.047,0.084.006,0.086,0.11,0.108a1.327,1.327,0,0,0-.083-0.432,0.435,0.435,0,0,1-.193-0.189H7.763V23.189a0.549,0.549,0,0,0,.193.081l0.028-.378a4.776,4.776,0,0,1-.936-0.432,2.087,2.087,0,0,1-.358-0.135A0.712,0.712,0,0,1,6.607,21.3L6.69,21.27V20.865c-0.089-.06-0.026-0.057,0-0.162H7.378a0.156,0.156,0,0,0,.028.081H7.433c0.027,0.088-.046.058-0.055,0.081v0.378a0.323,0.323,0,0,0,.165.081,0.268,0.268,0,0,1,.358.027l0.028,0.081a0.2,0.2,0,0,0,.138-0.027,4.327,4.327,0,0,0,.5.189,0.336,0.336,0,0,0-.028-0.108,1.075,1.075,0,0,1,.248-0.027,0.484,0.484,0,0,0,.193.162,0.36,0.36,0,0,0,.165-0.405H9.222v-0.7a1.08,1.08,0,0,1-.11-0.432,2.415,2.415,0,0,1-.358.054l-0.028-.459a2.477,2.477,0,0,1-.468-0.027,0.767,0.767,0,0,1-.028-0.243H9a4.759,4.759,0,0,1,.385.324,2.621,2.621,0,0,0,.633-0.108v0.054a1.027,1.027,0,0,0-.633.189,0.722,0.722,0,0,0-.028.324H9.47a0.868,0.868,0,0,1,.138.243,2.465,2.465,0,0,0-.055.946H9.608a1.177,1.177,0,0,0,.248-0.162A0.192,0.192,0,0,1,9.8,21.108H9.855c0.024,0.087.031,0.075,0.055,0.081a0.138,0.138,0,0,0,0-.135c0.177-.068.363-0.211,0.551-0.27a0.508,0.508,0,0,1,.22.027l0.028-.081a1.385,1.385,0,0,1,.193-0.054,3.494,3.494,0,0,1,.413-0.3,3.664,3.664,0,0,1,1.4-.162c0.047-.093.049-0.1,0.193-0.108v0.027h0.028v0.081h0.083v-0.3a0.506,0.506,0,0,0,.22-0.081,0.26,0.26,0,0,1-.083-0.351,0.427,0.427,0,0,1,.275-0.243c0.041-.22.347-0.174,0.606-0.162v0.054a0.947,0.947,0,0,0,.138.757,0.421,0.421,0,0,0-.165.054,1.03,1.03,0,0,1-.027.243H13.847c-0.015-.035,0-0.02-0.028-0.027a1.748,1.748,0,0,0-.413.649,1.1,1.1,0,0,0,.441.027l0.027,0.216H13.93a0.921,0.921,0,0,0,.413.081,0.919,0.919,0,0,0,.083-0.514,0.808,0.808,0,0,0,0-.378c0-.027.074-0.156,0.083-0.189V18.243q0.014-2.919.027-5.838v-1.73A1.828,1.828,0,0,1,14.563,10c0,2.829.028,5.667,0.027,8.459,0,0.412,0,.784,0,1.135v0.459a1.252,1.252,0,0,1,.083.405,0.985,0.985,0,0,0,.11.676l-0.028.054h0.661a1.227,1.227,0,0,1,.468.027,7.568,7.568,0,0,1,1.431.054A0.778,0.778,0,0,1,17.481,21.649Zm-11.012.946a0.134,0.134,0,0,1,.083.027A0.134,0.134,0,0,1,6.469,22.595Z" transform="translate(-0.031)"/>
</svg>
