<?xml version="1.0" encoding="utf-8"?>
<!-- Generator: Adobe Illustrator 16.0.0, SVG Export Plug-In . SVG Version: 6.00 Build 0)  -->
<!DOCTYPE svg PUBLIC "-//W3C//DTD SVG 1.1//EN" "http://www.w3.org/Graphics/SVG/1.1/DTD/svg11.dtd">
<svg version="1.1" id="Layer_1" xmlns="http://www.w3.org/2000/svg" xmlns:xlink="http://www.w3.org/1999/xlink" x="0px" y="0px"
	 width="39.938px" height="40px" viewBox="0 0 39.938 40" enable-background="new 0 0 39.938 40" xml:space="preserve">
<path id="Color_Fill_1" fill="#FFFFFF" d="M18.163,0.003v0.623c0.199-0.027,0.087-0.113,0.209,0.069c-0.379,0.25,0,0.483,0,0.692
	c-0.021,0.79,0.049,1.58,0.209,2.354V4.85c0.066,0.158,0.167,0.059,0.139,0.208c-0.055,0.291,0.493,0.336,0.278,0.554
	c-0.062,0.059-0.108,0.129-0.14,0.208c0.122,0.209,0.171,0.452,0.14,0.692c0.2,0.653,0.627,1.417,0.899,2.077l0.14-0.069v0.069
	c0.162,0.167,0.191,0.423,0.069,0.623c0.2,0.585,0.5,1.243,0.766,1.87c0.773,1.808,1.577,3.733,2.364,5.54
	c0.149,0.341,0.917,2.41,0.9,2.424c-0.062,0.057-0.133,0.104-0.209,0.14c0.038,0.037,0.087,0.062,0.139,0.069
	c0.282,0.153,0.438-0.108,0.558,0.139c-0.05,0.156-0.073,0.32-0.07,0.484c0.176,0.027,0.11-0.039,0.139,0.209
	c-0.088,0.048-0.16,0.119-0.209,0.207c-0.357,0.261-0.509,0.154-0.486,0.832c0.46,0.752-0.794,1.705-1.53,1.73v0.416
	c0.089,0.037,0.183,0.061,0.278,0.068c0.338-0.436,1.321,0.018,1.809-0.275c0.446-0.225,0.829-0.559,1.113-0.971
	c0.018-0.439-0.006-0.879-0.07-1.314h0.348c0.739-0.092,1.487-0.092,2.227,0c2.126,0,3.924-0.016,5.982,0v-2.841
	c-0.053-0.394-0.029-0.793,0.07-1.177v4.017c0.605,0,1.229,0.029,1.739,0.068c-0.027,0.154-0.075,0.178,0,0.277
	c0.149-0.092,0.337-0.092,0.487,0c0.129,0.545,0.152,1.107,0.069,1.662c0.775-0.039,1.059-0.252,1.601-0.277
	c-0.001-0.076,0.023-0.148,0.069-0.209c0.09,0.172-0.029,0.047,0.14,0.139c0.059-0.188,0.222-0.322,0.417-0.346
	c-0.062-0.877-0.038-1.758,0.069-2.63c0.112-0.043,0.229-0.065,0.349-0.07c0.194,0.113,0.303,0.331,0.277,0.555
	c0.228,0.371-0.251,0.75-0.068,1.177h0.139c0.102,0.619,0.102,1.25,0,1.869h0.139c0.008-0.053,0.032-0.102,0.07-0.139v0.693h-0.07
	c0.009-0.098-0.016-0.195-0.068-0.277v0.277c0.057,0.035,0.104,0.082,0.139,0.139h-0.132c-0.119-0.004-0.236-0.027-0.348-0.068
	c0.031,0.33-0.017,0.662-0.14,0.969c-0.5,0.455-1.961,0.9-2.226,1.455h0.139c0.202,0.064,0.415,0.088,0.626,0.068
	c0.101,0.184,0.19,0.412,0.278,0.623c0.12-0.033,0.237-0.08,0.348-0.139c-0.157-0.166-0.076-0.023-0.068-0.277
	c0.053-0.006,0.102-0.031,0.139-0.068c0.053,0.006,0.102,0.031,0.139,0.068c0.052,0.082,0.076,0.18,0.07,0.277
	c-0.053,0.006-0.102,0.031-0.139,0.068c0.174,0.084,0.363,0.131,0.556,0.139v-0.068c-0.053-0.008-0.102-0.031-0.139-0.07
	c0.189-0.105,0-0.135,0.139-0.346c0.061-0.045,0.134-0.068,0.209-0.068v0.068h0.064c0,0.338-0.056,0.23,0.07,0.416h-0.205
	l-0.068,0.346c-0.112-0.105-0.265-0.156-0.417-0.139v0.068c0.194,0.113,0.304,0.332,0.277,0.555c-0.151,0.125-0.427,0.93-0.7,1.316
	c-0.305,0.471-0.654,0.91-1.044,1.316c-0.162,0.15-0.441,0.064-0.626,0.207c-0.29,0.223,0.029,0.465-0.699,0.555
	c-0.195-0.162-0.448-0.238-0.7-0.209c-0.28,0.236-0.582,0.443-0.9,0.623c-0.059,0.135-0.104,0.273-0.139,0.416
	c-0.446,0.326-0.939,0.582-1.461,0.762c-0.274,0.248-0.611,0.416-0.975,0.486c-0.497,0.34-1.034,0.619-1.6,0.83
	c-0.578,0.059-1.161,0.059-1.739,0c-1.063,0.119-2.137,0.119-3.2,0c-0.464-0.057-0.935-0.033-1.391,0.07
	c-0.372,0.016-0.745-0.008-1.113-0.07c-0.188,0.004-0.374,0.027-0.557,0.07c-0.7-0.068-1.884,0.031-2.435-0.07
	c-0.487-0.063-0.982-0.039-1.462,0.07c-0.044,0.006-0.274-0.068-0.417-0.07c-0.533-0.004-0.849,0.115-1.252,0.07
	c-0.296-0.063-0.598-0.084-0.899-0.07c-0.878,0.115-1.767,0.115-2.645,0c-0.302-0.023-0.604,0-0.899,0.07
	c-0.211-0.004-0.42-0.027-0.626-0.07c-0.663-0.117-1.423,0.094-1.948,0H8.494c-0.778-0.324-1.486-0.795-2.087-1.385
	c-0.364-0.33-1.08-0.387-1.184-1.178c-0.323-0.035-0.65-0.035-0.974,0c-0.022-0.486,0.001-0.973,0.069-1.455H3.902
	c-0.354,0.059-0.717,0.012-1.043-0.139c-0.184-0.08-0.397-0.053-0.557,0.07c-0.038-0.119-0.085-0.234-0.139-0.348H1.537
	c-0.146-0.176-0.31-0.338-0.487-0.484V28.74c-0.188-0.002-0.375-0.025-0.557-0.07c-0.09-0.199,0.079-0.141-0.209-0.207v-0.277h0.14
	c0.083,0.051,0.181,0.076,0.278,0.068c0.008,0.26-0.084,0.17,0.209,0.209v-0.416h-0.14v-2.285c-0.104-0.213-0.221-0.42-0.348-0.623
	h-0.07v0.348c0.244,0.807,0.361,1.648,0.349,2.492H0.494L0.007,25.07c-0.012-0.328,0.035-0.656,0.139-0.967l0.417,0.068v-0.418
	h0.209c-0.078,0.201-0.078,0.424,0,0.623v-0.416H0.98v-0.275h0.07c0.038,0.037,0.087,0.061,0.139,0.068
	c0,0.219-0.118,0.092,0.07,0.207c-0.006-0.131,0.082-0.246,0.209-0.275c-0.008,0.096,0.017,0.193,0.07,0.275v-0.068
	c0.074-0.199,0.099-0.412,0.069-0.623l0.487,0.068c0.014-0.1-0.057,0.029-0.07-0.068c-0.134-0.055,0.14-0.068,0.14-0.068
	c0.843,0.197,1.708,0.289,2.573,0.277c0.012,0.209-0.012,0.42-0.069,0.621h0.626v-0.484c1.259-0.057,2.52,0.037,3.757,0.277
	c0.761,0.166,1.551,0.061,2.226,0.207l1.531,0.07c1.463,0.322,3.313,0.32,4.661,0.623c-0.063-0.35,0.04-0.707,0.278-0.969
	c0.121-0.088,0.267-0.137,0.417-0.139c-0.022-0.207-0.022-0.416,0-0.623c-0.746,0-1.351,0.01-1.948,0v-0.348h-0.627V22.23h-0.278
	v-0.762c0.223-0.117,0.457-0.211,0.7-0.277c-0.025-0.199-0.14-0.143,0.069-0.277c0.062,0.057,0.132,0.104,0.209,0.139
	c-0.089-0.121-0.137-0.266-0.14-0.416c0.46-0.593,0.792-1.278,0.975-2.007c0.464-1.056,0.785-1.809,1.321-3.046
	c0.206-0.475,0.85-1.419,0.7-2.008c-0.088-0.159-0.206-0.3-0.348-0.415c-0.271-0.561-0.505-1.139-0.7-1.731
	c0.047-0.084,0.071-0.18,0.07-0.277c-0.219-0.7-0.71-0.833-0.7-1.662c0.008-0.48-0.526-0.5-0.278-1.247
	c-0.141-0.087-0.259-0.206-0.348-0.346h0.139v0.069h0.069c-0.106-0.37-0.271-0.72-0.487-1.039v0.07
	c-0.23,0.133-0.3,0.378-0.417,0.416c-0.06-0.084-0.106-0.178-0.139-0.277c-0.089-0.121-0.137-0.266-0.139-0.415
	c0.212-0.218,0.378-0.477,0.486-0.762c-0.074-0.075-0.123-0.172-0.139-0.277c0.487,0.06,0.951-0.228,1.113-0.692
	c0.107-0.359,0.155-0.733,0.139-1.108c-0.089-0.387-0.252-0.805-0.348-1.246c-0.035-0.449,0.036-0.9,0.209-1.316
	c0.05-0.391,0.05-0.786,0-1.177h0.138C17.683,0.035,17.923-0.013,18.163,0.003z M17.607,4.989c0,0.2-0.064,0.179,0.278,0.208V5.058
	C17.789,5.05,17.696,5.027,17.607,4.989z M16.285,6.374c-0.043,0.078-0.121,0.129-0.209,0.138v0.069h0.139
	c0.062-0.057,0.133-0.103,0.209-0.138C16.386,6.406,16.337,6.382,16.285,6.374z M16.285,7.413c0.206,0.107,0.394,0.248,0.556,0.415
	v0.069C16.605,7.805,16.407,7.633,16.285,7.413L16.285,7.413z M17.537,9.975c-0.023,0.1,0.1,0.1,0.139,0.138
	C17.725,10.039,17.556,9.995,17.537,9.975z M19.207,14.545c-0.135,1.021-0.908,1.866-1.184,2.77c-0.013,0.161-0.013,0.323,0,0.484
	l-0.139-0.068v0.072c-0.465,0.81-0.839,1.669-1.113,2.562h0.209c0.753-0.46,1.545-0.854,2.365-1.177l0.417-0.139
	c0.105-0.191,0.222-0.377,0.348-0.555c0.391-0.305,0.689-0.1,0.7-0.831c-0.178-0.305-0.317-0.63-0.417-0.969
	c0.075,0.001,0.149-0.023,0.209-0.069H20.32c-0.11-0.747-0.652-1.21-0.486-1.87c-0.158,0.028-0.076,0.064-0.209,0
	c-0.057-0.087-0.104-0.18-0.14-0.277C19.396,14.514,19.302,14.537,19.207,14.545z M21.637,20.223
	c-0.392-0.119-0.718-0.396-0.9-0.762c-0.151-0.006-0.357-0.074-0.417-0.07c-0.057,0.063-0.129,0.111-0.209,0.14
	c-0.069-0.095-0.164-0.167-0.273-0.208c-0.222,0.091-0.432,0.207-0.626,0.346l-2.018,0.9v0.068h2.088c0.12-0.064,1.67-0.008,2.435,0
	v-0.068C21.656,20.463,21.628,20.343,21.637,20.223z M20.107,19.323c0.038,0.037,0.087,0.061,0.14,0.068
	c-0.037-0.035-0.084-0.061-0.136-0.068H20.107z M23.037,19.803l-0.07,0.207h0.139v-0.064c0.038-0.037,0.063-0.086,0.07-0.139h-0.139
	V19.803z M22.689,19.942c-0.054,0.047-0.154,0.091-0.209,0.138c0.073,0.103,0.12,0.222,0.14,0.347h0.069v-0.065
	c0.136-0.06,0.219-0.198,0.209-0.347L22.689,19.942z M23.315,19.942l-0.069,0.691h0.069v-0.064c0.104-0.112,0.153-0.263,0.14-0.415
	c-0.01-0.089-0.063-0.167-0.144-0.208L23.315,19.942z M21.785,20.08c-0.052,0.181-0.052,0.373,0,0.553
	c0.159,0.061,0.257,0.137,0.417,0.209v-0.205l-0.209-0.552h-0.212L21.785,20.08z M24.285,20.08
	c-0.132,0.084-0.271,0.153-0.417,0.208v0.069h0.277c0.038-0.037,0.087-0.062,0.14-0.069c0.027-0.152,0.063-0.07,0-0.203V20.08z
	 M23.102,20.426c-0.146,0.016-0.289,0.063-0.417,0.138c0.038,0.27,0.133,0.529,0.278,0.762v-0.064
	c0.099-0.266,0.146-0.547,0.139-0.832V20.426z M23.589,20.564c-0.065,0.383-0.182,0.756-0.348,1.107l-0.417,0.346
	c0.012,0.217-0.037,0.432-0.14,0.623h0.209c0.134-0.078,0.273-0.148,0.417-0.209l0.417-0.553c0.043-0.441-0.004-0.887-0.139-1.311
	V20.564z M23.798,20.633c0.033,0.119,0.08,0.236,0.139,0.346v-0.275L23.798,20.633z M23.172,20.771v0.139h0.064
	c-0.006-0.051-0.029-0.098-0.064-0.133V20.771z M23.798,21.049c-0.001,0.074,0.023,0.148,0.069,0.207v-0.203h-0.069V21.049z
	 M38.476,21.256c0.089,0.008,0.167,0.061,0.209,0.139h0.07v0.068c-0.09,0.033-0.188,0.033-0.278,0
	c-0.05-0.102-0.01-0.004-0.001-0.201V21.256z M23.798,21.402c-0.008,0.098,0.017,0.195,0.069,0.277
	C23.875,21.582,23.851,21.484,23.798,21.402z M38.267,21.539c0.092,0.119,0.12,0.111,0.07,0.207v0.07h-0.07v-0.07
	C38.218,21.639,38.258,21.736,38.267,21.539z M38.406,21.539c0.037,0.037,0.061,0.086,0.068,0.139h-0.067L38.406,21.539
	L38.406,21.539z M38.058,21.816c0.038,0.037,0.063,0.086,0.07,0.139h-0.07V21.816z M38.198,21.816c0.091,0.148,0.091,0.336,0,0.484
	C38.179,22.139,38.18,21.977,38.198,21.816L38.198,21.816z M37.919,22.023c0.037,0.037,0.062,0.086,0.07,0.139h-0.07V22.023
	L37.919,22.023z M37.78,22.232c0.078,0.041,0.13,0.119,0.14,0.207h-0.07v-0.07c-0.037-0.037-0.061-0.086-0.067-0.139L37.78,22.232z
	 M39.589,22.232c0.095,0.172,0.095,0.381,0,0.553V22.23V22.232z M36.528,22.994c-0.06,0.154-0.083,0.32-0.069,0.484
	c0.083,0.127,0.205,0.225,0.348,0.277v-0.07c0.057-0.053,0.133-0.078,0.209-0.07c0.433,0.119,0.89,0.119,1.322,0v-0.137
	c0.03-0.303,0.007-0.607-0.07-0.9c-0.554,0.229-1.141,0.369-1.739,0.414V22.994z M37.99,22.785c0.037,0.039,0.061,0.088,0.068,0.139
	H37.99V22.785L37.99,22.785z M37.289,22.924c0.037,0.039,0.062,0.088,0.069,0.141h-0.069V22.924L37.289,22.924z M37.845,22.994
	c0.087,0.107,0.045,0.035,0,0.139c-0.024,0.021-0.09,0.232-0.209,0.139L37.845,22.994z M37.08,23.201
	c0.037,0.037,0.062,0.086,0.069,0.139H37.08v-0.137V23.201z M36.941,23.34h0.14v0.068c-0.052-0.008-0.099-0.033-0.135-0.07
	L36.941,23.34z M37.358,23.408h0.14v0.07c-0.052-0.01-0.099-0.033-0.135-0.07H37.358z M36.732,23.479h0.14v0.068
	c-0.051-0.008-0.099-0.033-0.135-0.068H36.732z M37.219,23.479h0.139v0.068c-0.051-0.008-0.098-0.033-0.134-0.068H37.219z
	 M37.08,23.547h0.139v0.068c-0.051-0.008-0.098-0.031-0.134-0.068H37.08z M39.793,23.754c0.037,0.039,0.062,0.088,0.068,0.141
	h-0.063v-0.141H39.793z M39.306,23.824h0.139v0.068c-0.051-0.008-0.098-0.031-0.134-0.068H39.306z M39.867,23.893
	c0.08,0.102,0.08,0.244,0,0.346V23.893z M1.397,24.031v0.139h0.07C1.46,24.117,1.436,24.068,1.397,24.031L1.397,24.031z
	 M37.224,24.104c-0.008,0.094-0.031,0.188-0.07,0.275h1.392v-0.348L37.224,24.104z M36.459,24.104v0.414h0.208v-0.414H36.459z
	 M36.181,24.172c-0.001,0.074,0.024,0.148,0.07,0.207c0.001-0.076-0.023-0.148-0.07-0.209V24.172z M39.381,24.172
	c0.078,0.115,0.123,0.074,0,0.139V24.17V24.172z M39.52,24.311c0.098-0.008,0.195,0.016,0.278,0.068
	c-0.098,0.008-0.195-0.018-0.278-0.07V24.311z M16.285,24.656c0,0.578-0.114,0.846-0.14,1.314h0.278v-0.348
	c0.111-0.127,0.256-0.223,0.417-0.277c0.03,0.246,0.155,0.471,0.348,0.623v-0.066l0.14,0.068v-0.068
	c0.161-0.295,0.21-0.639,0.139-0.969c-0.417-0.031-0.702-0.219-1.182-0.279V24.656z M35.276,24.656
	c0.088,0.057,0.181,0.102,0.278,0.137l-0.07,0.139h0.07v-0.068c0.037-0.039,0.063-0.088,0.07-0.141
	c-0.111-0.041-0.229-0.064-0.349-0.068V24.656z M36.111,24.656c0.174,0.094,0.383,0.094,0.557,0H36.111z M38.198,24.656h-0.9
	c-0.056,0.201-0.079,0.412-0.069,0.623h0.069v0.068c0.383-0.096,0.709-0.348,0.9-0.693V24.656z M0.285,24.932v0.141h0.069
	C0.348,25.018,0.323,24.969,0.285,24.932L0.285,24.932z M3.067,25.555c0.244,0.105,0.521,0.105,0.766,0H3.067z M7.519,26.109v0.346
	h0.141c0.148-0.141,0.359-0.193,0.557-0.139v-0.555L5.99,25.693v0.068c0.072,0.104,0.12,0.223,0.139,0.348H7.519L7.519,26.109z
	 M8.419,25.762v0.555h0.353v-0.555H8.424H8.419z M8.976,25.762v0.555l1.81,0.068v-0.623H8.98H8.976z M16.637,25.902
	c0.12,0.061,0.089,0.063,0.209,0H16.637z M37.367,26.387c0.062,0.059,0.132,0.105,0.209,0.141v-0.143h-0.214L37.367,26.387z
	 M37.089,26.457v0.137c0.121,0.09,0.267,0.137,0.417,0.141v-0.072c-0.128-0.092-0.271-0.162-0.421-0.207L37.089,26.457z
	 M0.563,28.74c0.038,0.037,0.063,0.086,0.07,0.139h-0.07V28.74z M37.78,29.016c-0.281,0.357-0.712,0.574-0.974,0.971h0.07
	c0.083-0.053,0.181-0.076,0.277-0.07l0.7-0.9h-0.072H37.78z M2.859,29.432c-0.06,0.047-0.219,0.094-0.277,0.141
	c0.271,0,0.313,0.035,0.417-0.141H2.859z M36.737,29.709l-0.139,0.209C36.622,29.93,36.927,29.734,36.737,29.709z M2.58,29.848h0.14
	v0.07C2.667,29.91,2.617,29.887,2.58,29.848L2.58,29.848z M3.415,29.918c0.098-0.008,0.195,0.016,0.277,0.068
	C3.595,29.994,3.497,29.971,3.415,29.918z M35.972,30.609c-0.054,0.047-0.155,0.092-0.209,0.139
	C35.869,30.73,36.182,30.67,35.972,30.609z M32.637,32.064c-0.067,0.1-0.249,0.15-0.139,0.207c0.108,0.086,0.035,0.045,0.139,0
	C32.803,32.15,32.769,32.213,32.637,32.064z M10.998,33.311c-0.003-0.146,0.078-0.281,0.209-0.346
	c0.013-0.033-0.074-0.68-0.07-0.832h-0.139v0.141c-0.077,0.227-0.195,0.438-0.349,0.623l0.14,0.414H10.998z M14.267,32.133
	c-0.13,0.416-0.317,0.813-0.556,1.178h0.209c-0.008-0.148,0.075-0.285,0.209-0.348c0.036,0.281,0.014,0.283,0.278,0.348
	c-0.008-0.148,0.075-0.285,0.209-0.348c0.035,0.281,0.014,0.283,0.277,0.348v-0.07c-0.148-0.334-0.266-0.682-0.348-1.039v-0.068
	H14.267z M17.676,32.133c-0.131,0.387-0.345,0.742-0.626,1.039c0.037,0.037,0.063,0.086,0.07,0.139h0.209
	c0.015-0.141,0.091-0.268,0.209-0.346c0.036,0.281,0.014,0.281,0.277,0.346c0.015-0.141,0.092-0.268,0.209-0.346
	c0.036,0.281,0.015,0.281,0.278,0.346l0.07-0.139c-0.145-0.336-0.262-0.684-0.349-1.039C17.912,32.176,17.788,32.176,17.676,32.133z
	 M20.806,33.311v-0.348h0.139v0.141c0.045,0.059,0.069,0.133,0.07,0.207h0.278v-0.348h0.144v0.141
	c0.045,0.059,0.069,0.133,0.07,0.207h0.278v-0.139c-0.255-0.281-0.358-0.668-0.278-1.039c-0.09,0.031-0.188,0.031-0.278,0
	c-0.339,0.275-0.603,0.633-0.765,1.039h0.07C20.63,33.346,20.559,33.279,20.806,33.311L20.806,33.311z M24.145,32.34
	c-0.105,0.314-0.176,0.641-0.209,0.971h0.278v-0.348h0.139v0.07c0.052,0.082,0.076,0.18,0.07,0.277h0.278v-0.348h0.136v0.07
	c0.052,0.082,0.076,0.18,0.07,0.277h0.277v-0.139c-0.377-0.4-0.012-0.992-0.556-1.039c-0.067,0.018-0.026,0.055-0.07,0
	c-0.08,0.08-0.128,0.199-0.209,0.277C24.291,32.365,24.22,32.342,24.145,32.34L24.145,32.34z M27.554,32.34
	c-0.097,0.316-0.166,0.641-0.209,0.971h0.278v-0.348h0.139v0.07c0.052,0.082,0.076,0.18,0.07,0.277h0.277v-0.348h0.14v0.07
	c0.052,0.082,0.076,0.18,0.069,0.277h0.278c-0.096-0.389-0.166-0.781-0.209-1.178C27.888,32.172,27.973,32.328,27.554,32.34z
	 M31.454,32.133c-0.076,0.102-0.124,0.221-0.14,0.346h0.07v0.068l0.209-0.068V32.34c-0.057-0.053-0.096-0.152-0.144-0.207H31.454z
	 M31.732,32.133v0.139c0.095-0.008,0.188-0.031,0.275-0.068v-0.07h-0.279H31.732z M6.619,32.271v0.139l0.209,0.07V32.34h0.069
	v-0.068H6.615H6.619z M7.106,32.34c-0.061,0.156-0.124,0.18-0.069,0.277c0.061,0.045,0.134,0.068,0.209,0.07l0.139-0.209
	c-0.087-0.061-0.182-0.105-0.282-0.139H7.106z M30.967,32.34c-0.045,0.111-0.045,0.236,0,0.348v0.068
	c0.053-0.008,0.102-0.031,0.139-0.068c0.038-0.039,0.063-0.088,0.07-0.141c-0.05-0.088-0.124-0.158-0.213-0.207H30.967z
	 M32.15,32.34c-0.06,0.086-0.106,0.18-0.139,0.277h0.069c0.073-0.064,0.144-0.135,0.209-0.207L32.15,32.34z M7.524,32.549
	c-0.034,0.076-0.081,0.146-0.139,0.207c0.008,0.09,0.061,0.168,0.139,0.209v0.068c0.07,0.07,0.069-0.068,0.07-0.068
	c0.063-0.129,0.087-0.273,0.07-0.416H7.52H7.524z M31.663,32.617c-0.072,0.195-0.176,0.096,0,0.209
	c0.061-0.059,0.108-0.131,0.139-0.209h-0.143H31.663z M31.176,32.895v0.139h0.061v-0.07h0.07c-0.037-0.035-0.084-0.061-0.135-0.068
	H31.176z M10.515,33.311c0.008-0.096,0.032-0.189,0.07-0.277h-0.07c-0.082,0.082-0.152,0.174-0.209,0.277H10.515z M11.215,33.033
	l0.069,0.277h0.139v-0.07c-0.067-0.072-0.14-0.143-0.216-0.207H11.215z M9.476,33.518v0.139c0.249-0.029,0.175,0.033,0.278-0.139
	H9.467H9.476z M9.963,33.586c0.077,0.076,0.2,0.076,0.278,0H9.954H9.963z M10.45,33.586c0.077,0.076,0.2,0.076,0.277,0h-0.291H10.45
	z M11.007,33.586c0.12,0.063,0.089,0.063,0.209,0h-0.218H11.007z M11.494,33.586c0.077,0.076,0.2,0.076,0.277,0h-0.287H11.494z
	 M13.025,33.586c0.078,0.076,0.201,0.076,0.278,0h-0.288H13.025z M13.512,33.586c0.077,0.076,0.2,0.076,0.278,0h-0.288H13.512z
	 M13.999,33.586c0.077,0.076,0.2,0.076,0.277,0H13.99H13.999z M14.556,33.586c0.12,0.063,0.089,0.063,0.209,0h-0.219H14.556z
	 M15.043,33.586c0.077,0.076,0.2,0.076,0.277,0h-0.283H15.043z M16.573,33.586c0.119,0.063,0.089,0.063,0.209,0h-0.22H16.573z
	 M17.06,33.586c0.078,0.076,0.201,0.076,0.278,0H17.05H17.06z M17.547,33.586c0.077,0.076,0.2,0.076,0.278,0h-0.288H17.547z
	 M18.103,33.586c0.12,0.063,0.089,0.063,0.209,0h-0.218H18.103z M18.59,33.586c0.077,0.076,0.2,0.076,0.278,0h-0.287H18.59z
	 M20.12,33.586c0.12,0.063,0.089,0.063,0.209,0h-0.219H20.12z M20.607,33.586c0.078,0.076,0.201,0.076,0.278,0h-0.287H20.607z
	 M21.094,33.586c0.077,0.076,0.2,0.076,0.278,0h-0.287H21.094z M21.581,33.586c0.077,0.076,0.2,0.076,0.277,0h-0.286H21.581z
	 M22.137,33.586c0.038,0.037,0.087,0.063,0.139,0.07c-0.04-0.039-0.092-0.063-0.147-0.068L22.137,33.586z M23.25,33.586
	c0.038,0.037,0.086,0.063,0.139,0.07c-0.041-0.039-0.095-0.064-0.152-0.068L23.25,33.586z M23.667,33.586
	c0.12,0.063,0.089,0.063,0.209,0h-0.217H23.667z M24.154,33.586c0.078,0.076,0.201,0.076,0.278,0h-0.286H24.154z M24.641,33.586
	c0.078,0.076,0.2,0.076,0.278,0h-0.282H24.641z M25.128,33.586c0.077,0.076,0.2,0.076,0.278,0H25.12H25.128z M26.728,33.586
	c0.12,0.063,0.089,0.063,0.209,0H26.72H26.728z M27.145,33.586c0.078,0.076,0.201,0.076,0.278,0h-0.286H27.145z M27.701,33.586
	c0.119,0.063,0.089,0.063,0.209,0h-0.217H27.701z M28.188,33.586c0.078,0.076,0.201,0.076,0.278,0h-0.285H28.188z M28.675,33.586
	c0.077,0.076,0.2,0.076,0.278,0h-0.286H28.675z"/>
</svg>
