<svg xmlns="http://www.w3.org/2000/svg" width="40" height="40" viewBox="0 0 40 40">
  <defs>
    <style>
      .cls-1 {
        fill: #fff;
        fill-rule: evenodd;
      }
    </style>
  </defs>
  <path id="ussr_9p157_ico" class="cls-1" d="M18.89,17.454l0.025-.251a0.261,0.261,0,0,0,.128-0.075,6.979,6.979,0,0,1,.051-1.33V10h0.051v5.371a1.847,1.847,0,0,1,.026.452,6.848,6.848,0,0,1,.026,1.305,1.772,1.772,0,0,1,.281.351h3.267A0.618,0.618,0,0,0,23,17.4H22.821V17.128a2.337,2.337,0,0,1,.613-0.025,0.97,0.97,0,0,0,.408.351,1.764,1.764,0,0,1,1.557-.427c0.306,0.083.526,0.288,0.791,0.377a0.275,0.275,0,0,1,.1-0.151h0.1v-0.1h0.2a1.2,1.2,0,0,1,.025-0.753A10.068,10.068,0,0,0,24.1,16.25v-0.1H23.587V16.1a2.58,2.58,0,0,1-.179-1.355,2.761,2.761,0,0,0,.357-0.1,0.747,0.747,0,0,0,.026-0.326h0.281v0.226h0.051a0.132,0.132,0,0,0,.077.025v0.151H24.072v0.5h0.051a0.132,0.132,0,0,0,.077.025V15.4H24.072v0.176c1.107,0,1.938-.051,3.038-0.05v0.125H26.982v0.075a1.353,1.353,0,0,0,1.327-.276l0.025,0.05a0.223,0.223,0,0,1,.051.125,1.75,1.75,0,0,0-.357.176v0.025H28.36a0.63,0.63,0,0,0,.281.025,1.279,1.279,0,0,1-.077.7,5.39,5.39,0,0,1-1.583.151v0.176a0.927,0.927,0,0,1,.408,0,0.922,0.922,0,0,0-.1.276,0.57,0.57,0,0,0,.306.075l0.026-.151h0.459a0.177,0.177,0,0,0,.077.2l0.051-.226a0.905,0.905,0,0,1,.511.125,1.625,1.625,0,0,0,.51.025,1.841,1.841,0,0,0,.74.1v0.075a2.428,2.428,0,0,1,.485,0,1.13,1.13,0,0,1,.153.1,1.724,1.724,0,0,0,.459.025,0.866,0.866,0,0,0,.077-0.151h0.077a1.784,1.784,0,0,0-.051-0.226h0.077V16.651a0.373,0.373,0,0,1-.128-0.025,0.812,0.812,0,0,1-.051.427,0.131,0.131,0,0,1-.076.025,0.093,0.093,0,0,0-.051-0.025,0.532,0.532,0,0,1-.025-0.176,0.8,0.8,0,0,0,.051-0.351,0.073,0.073,0,0,1-.026-0.025,2.9,2.9,0,0,0-.587-0.075c0,0.1.014,0.137-.051,0.176a0.984,0.984,0,0,0-.587.1c0-.114.02-0.532,0-0.6a0.873,0.873,0,0,1-.153-0.3,0.088,0.088,0,0,0,.051-0.025,2.7,2.7,0,0,1,.562.226l0.919,0.151a0.12,0.12,0,0,1,.026-0.075c0.037,0.064-.006.028,0.077,0.05a5.054,5.054,0,0,0,.051-1.406,1.541,1.541,0,0,0-.025-0.7H30.734v-0.8a0.073,0.073,0,0,0,.026-0.025,1.9,1.9,0,0,0,.383-0.075H32.47a1.294,1.294,0,0,1-.179.8l-0.025.1H31.883l-0.026.351h0.511v0.5H31.857V16.2a4.989,4.989,0,0,1,.511-0.025,5.19,5.19,0,0,0,.791.126c-0.01.057-.023,0.027,0,0.075a0.717,0.717,0,0,0,.306.05l0.025-.075a0.783,0.783,0,0,1-.025-0.151h0.025v0.075L34.027,16.4,34,16.476a0.513,0.513,0,0,1,.153.075,7.69,7.69,0,0,0,.791.126c0.157,0.037.417,0,.511,0.025a1.323,1.323,0,0,0,.536.075,0.524,0.524,0,0,1,.077-0.3,0.153,0.153,0,0,1,.051.1,1.3,1.3,0,0,0-.051.2c0.446,0.015.658,0.244,1.123,0.251l-0.026.226a0.572,0.572,0,0,1-.306-0.075,0.193,0.193,0,0,0-.051.075,0.647,0.647,0,0,1-.383-0.075H35.992A5.93,5.93,0,0,0,34.435,17v0.025h0.026c0.134,0.076.239,0,.281,0.176a0.247,0.247,0,0,1-.23.1,2.966,2.966,0,0,0-.817-0.151,0.6,0.6,0,0,0-.051.176s-0.047.32-.051,0.326a2.128,2.128,0,0,0-.919-0.075v0.05H32.8a0.978,0.978,0,0,0-.179.452,2.9,2.9,0,0,0,.894.878,0.491,0.491,0,0,0,.408.226,0.745,0.745,0,0,0,.026-0.251c0.021-.048.127-0.1,0.153-0.151a3.816,3.816,0,0,0,.153-0.653V18.107H34.206l-0.1.3H34.052V18.333a2.391,2.391,0,0,1,.255-0.728v0.125a0.859,0.859,0,0,0-.051.226h0.128l-0.2.828a0.237,0.237,0,0,0,.179-0.05c0.029-.029.047-0.071,0.077-0.1v0.025l0.051,0.025v0.025a0.615,0.615,0,0,0-.281.577,0.31,0.31,0,0,1,.153.2,0.125,0.125,0,0,0-.051.125,1.561,1.561,0,0,0,1.021.377,0.766,0.766,0,0,1,.842-0.4v0.05a3.32,3.32,0,0,1,.051.552,2.072,2.072,0,0,1,1.353.527v0.326h0.1a0.229,0.229,0,0,0,.128-0.2c-0.04-.047-0.048-0.052-0.025-0.1,0.029-.072,0-0.046.077-0.075a0.553,0.553,0,0,1,.255-0.025,0.276,0.276,0,0,1,.077.2l-0.1.05a0.093,0.093,0,0,0,.051.025,0.5,0.5,0,0,0,.1.05v0.075h0.536V21.5H38.239v0.351c-0.123.045-.223,0.024-0.23,0.2h0.026a0.223,0.223,0,0,1,.128-0.025v0.1a0.733,0.733,0,0,1,.536.652,1.305,1.305,0,0,1,.74.226,1.792,1.792,0,0,1,.179.552h0.128a0.186,0.186,0,0,1,.179-0.125,0.2,0.2,0,0,1,.077.05,0.379,0.379,0,0,1-.332.276,0.515,0.515,0,0,1-.485-0.251H39.158v0.025a0.953,0.953,0,0,1-.179.2,1.038,1.038,0,0,1-.459.1l0.051,0.527a0.953,0.953,0,0,0-.1.276c-0.007.087,0.062,0.04,0.077,0.075a2.046,2.046,0,0,1-.255.778c-0.051,0-.007-0.026-0.051,0a5,5,0,0,1-.434.653c-0.091.067-.191,0.145-0.281,0.2a0.367,0.367,0,0,0-.306.125,0.188,0.188,0,0,1-.025.05,3.663,3.663,0,0,1-.97.427c0.01,0.074.042,0.031-.026,0.075a2.882,2.882,0,0,1-.944.4c0.01,0.074.042,0.031-.026,0.075a2.869,2.869,0,0,1-.587.326,0.3,0.3,0,0,0-.1-0.025,0.4,0.4,0,0,0-.23.125H34.282l0.026,0.05H34.282a3.751,3.751,0,0,1-.97.427c0.01,0.074.042,0.031-.026,0.075a2.594,2.594,0,0,1-.613.3,0.4,0.4,0,0,0-.128-0.05,2.509,2.509,0,0,0-.306.176,2.612,2.612,0,0,1-.383.05,3.624,3.624,0,0,0-.638-0.075l-0.026.075a4.993,4.993,0,0,1-1.047-.075l-0.025.075H29.356l-0.026-.075H29.049l-0.026.075H28.258l-0.026-.075H27.977l-0.026.075H27.39a1.023,1.023,0,0,0-.511-0.075l-0.026.075H26.088l-0.026-.075H25.807l-0.026.075H25.22a1.023,1.023,0,0,0-.511-0.075l-0.025.075h-0.74l-0.026-.075H23.638l-0.026.075H22.846l-0.026-.075H22.565l-0.026.075H21.774l-0.026-.075H21.468l-0.026.075H20.677V28.925H20.7c0.049-.02-0.051-0.025-0.051-0.025a4.562,4.562,0,0,0-.715.05H19.6l-0.025-.075a0.317,0.317,0,0,0-.306.075H18.711a0.911,0.911,0,0,0-.485-0.075L18.2,28.95H17.435l-0.026-.075a5,5,0,0,1-1.047.075l-0.026-.075H16.082a0.353,0.353,0,0,0-.051.075H15.29l-0.026-.075H14.984l-0.025.075H14.193l-0.026-.075H13.912l-0.025.075H13.121L13.1,28.875H12.814l-0.025.075H12.023L12,28.875a4.991,4.991,0,0,1-1.046.075l-0.026-.075a0.317,0.317,0,0,0-.306.075H10.032a0.243,0.243,0,0,1-.179-0.075H9.572l-0.026.075a2.75,2.75,0,0,1-.766-0.05V28.824a4.783,4.783,0,0,1-1.047-.3c0.01-.074.042-0.031-0.026-0.075a1.039,1.039,0,0,0-.434-0.1,4.3,4.3,0,0,1-.536-0.226V28.046a1.242,1.242,0,0,0-.2-0.1,0.25,0.25,0,0,0-.128.05,5.8,5.8,0,0,1-.689-0.3c0.022-.047.012-0.018,0-0.075a2.255,2.255,0,0,1-1-.351l0.026-.025H4.7a0.478,0.478,0,0,0-.357-0.075l-0.613-.251A0.375,0.375,0,0,0,3.6,26.766a1.111,1.111,0,0,0-.255,0,2.143,2.143,0,0,1-.459-0.2,1.418,1.418,0,0,1-.2-0.251,1.148,1.148,0,0,0-.179-0.1l-0.1.025a4.154,4.154,0,0,1-.357-0.4,1.841,1.841,0,0,1-.128-0.151c-0.041-.1.09-0.185-0.077-0.276a1.212,1.212,0,0,0-.077.628H1.685V25.587l-0.051-.025a1.541,1.541,0,0,1-.306-0.1l-0.077-.1H0.638v-0.2H1.2v-0.1a0.808,0.808,0,0,0,.23-0.3,1.127,1.127,0,0,1-.153-0.151,0.467,0.467,0,0,1-.408.2,0.38,0.38,0,0,1-.255-0.276,0.292,0.292,0,0,1-.051-0.2,0.352,0.352,0,0,0,.128-0.176A0.455,0.455,0,0,1,.536,23.83a1.066,1.066,0,0,1-.306.025A1.729,1.729,0,0,0,0,23.6a0.086,0.086,0,0,1,.026-0.05c0.037-.063.011-0.039,0.1-0.05a0.308,0.308,0,0,0,.23.151l0.026-.075a1.068,1.068,0,0,0,.128-0.6,0.966,0.966,0,0,0,1.021-.452,1.069,1.069,0,0,1-.587-0.652c0.049-.03.031,0,0.026-0.05-0.031-.081-0.1-0.107-0.128-0.176a1.992,1.992,0,0,1,.1-1.029H0.919V20.592a0.369,0.369,0,0,1-.1.025,0.51,0.51,0,0,0,0-.151A0.322,0.322,0,0,0,.97,20.291,0.119,0.119,0,0,1,.919,20.14a0.533,0.533,0,0,1,.408-0.427,0.282,0.282,0,0,1,.179,0,2.138,2.138,0,0,0,.179.2c0,0.28-.083.274-0.077,0.527a4.444,4.444,0,0,1,.944.929L2.629,21.5H2.884a1.905,1.905,0,0,1,.23-0.151c-0.027-.048-0.021-0.2-0.051-0.226a2.569,2.569,0,0,0-.638-0.6C2.381,20.58,2.4,20.555,2.3,20.542a6.638,6.638,0,0,0-.357-0.577l1.71-1.657a2.3,2.3,0,0,1,.664-0.6,1.988,1.988,0,0,0,.536.452,3.464,3.464,0,0,1,.306.377,0.8,0.8,0,0,1,.357.427C5.456,19,5.46,19,5.463,19.036a0.847,0.847,0,0,0,.1.1,0.089,0.089,0,0,0,.051-0.025,0.308,0.308,0,0,0,.153-0.276c-0.015-.022-0.047-0.163-0.077-0.226a0.8,0.8,0,0,1,.281-0.1c0.12,0.133.1,0.346,0.357,0.351a2.289,2.289,0,0,1,.306-0.477,3.615,3.615,0,0,0,.511.1c0.052,0.261.3,0.215,0.613,0.2v-0.1l0.434-.025v0.125H8.245a2.96,2.96,0,0,1,.664,0L8.934,18.76H9.623V18.684H9.879V18.76H11.1V18.684h0.255V18.76h0.1a0.6,0.6,0,0,0-.2-0.326,0.293,0.293,0,0,1-.255,0,0.544,0.544,0,0,1-.179-0.326c0.157-.1.236-0.31,0.383-0.427a2.125,2.125,0,0,0,.485-0.427h0.026v0.025a0.893,0.893,0,0,1,.332.351c-0.017.019-.034,0.056-0.051,0.075v0.025H11.921v0.075a0.607,0.607,0,0,0-.255.176v0.025h0.026a0.705,0.705,0,0,0,.536.251,1.075,1.075,0,0,0,.153.151,3.216,3.216,0,0,1,1.072-.05h2.987l0.026-.075a1.506,1.506,0,0,1,.332-0.075l0.026,0.151H17.1v-0.05a0.214,0.214,0,0,0,.026-0.125H16.975V17.956h0.2l0.051-.251,0.128,0.025V17.68a0.161,0.161,0,0,1,0-.151h0.077V17.454h0.153a0.12,0.12,0,0,0,.026.075V17.5h0.026a0.349,0.349,0,0,0,.026-0.1h0.153l0.026-.2a2.635,2.635,0,0,0,.128-1.355,0.837,0.837,0,0,0,.051-0.452V10h0.051v5.4a1.738,1.738,0,0,1,.026.427,6.972,6.972,0,0,1,.026,1.33,0.532,0.532,0,0,1,.153.126l0.2,0.025a0.817,0.817,0,0,0,.1.1l0.2-.025C18.836,17.4,18.765,17.428,18.89,17.454ZM2.425,20.567a0.09,0.09,0,0,1,.026.05H2.425v-0.05Z" transform="translate(0 0.5)"/>
</svg>
