<svg xmlns="http://www.w3.org/2000/svg" width="39.969" height="40" viewBox="0 0 39.969 40">
  <defs>
    <style>
      .cls-1 {
        fill: #fff;
        fill-rule: evenodd;
      }
    </style>
  </defs>
  <path id="ussr_m4a2_76w_sherman_ico" class="cls-1" d="M11.807,13.012a15.252,15.252,0,0,0,1.574.024V12.988a0.119,0.119,0,0,1-.024-0.071h0.382l-0.024.118h0.167a0.45,0.45,0,0,0,.048-0.212h0.1l0.024,0.282a0.658,0.658,0,0,0,.239.047c0.224,0.136.841-.087,1.1,0.024a4.215,4.215,0,0,0,1.383.094c0.813,0,1.722.024,2.5,0.024v0.188c-1.022,0-2.129.023-3.2,0.024V13.6a3.372,3.372,0,0,0-.382-0.024,0.2,0.2,0,0,1-.024.118V13.577c-0.425-.018-1.061.033-1.55,0.047a1.36,1.36,0,0,0-.048.541,3.371,3.371,0,0,1-.382.024v0.024a5.169,5.169,0,0,1,.072,1.482h0.024V15.671a0.623,0.623,0,0,1,.1-0.306,0.515,0.515,0,0,1,.239-0.023,2.433,2.433,0,0,1,.119-0.282,0.511,0.511,0,0,0-.048-0.212,0.377,0.377,0,0,1,.119-0.024v0.047a0.453,0.453,0,0,1,.048.188h0.1a0.835,0.835,0,0,1-.024.282h0.048a1.619,1.619,0,0,1,.93-0.118V14.988h0.048a0.243,0.243,0,0,0,.048.235,0.249,0.249,0,0,0,.143.047c0.061-.105.055-0.035,0.167-0.094A0.794,0.794,0,0,0,16,14.918a0.665,0.665,0,0,1,.167.071,0.91,0.91,0,0,1,.024.376c0.3,0,.558.126,0.859,0.141a0.709,0.709,0,0,0,.024.165c0.127,0.079.62,0.377,0.62,0.377,0.067-.076.058-0.221,0.119-0.306a0.95,0.95,0,0,1,.382-0.024,0.777,0.777,0,0,0,.143.33,0.516,0.516,0,0,0,.31.047,9.207,9.207,0,0,1-.024-0.965h0.1v0.188h0.024V15.294a0.172,0.172,0,0,1,.143-0.118,0.138,0.138,0,0,0,.143.047c0.086-.38.5-0.364,0.978-0.353v0.894H19.583v0.047a0.382,0.382,0,0,0,0,.259h0.143V15.953H19.8v0.188a0.067,0.067,0,0,1,.024.023,2,2,0,0,1,.6.188c0.023-.045.038-0.085,0.072-0.047a1.66,1.66,0,0,0,.5.188,0.613,0.613,0,0,1,.787-0.047L21.9,16.588l0.954,0.094c0.088,0.028.287,0.2,0.406,0.259a0.492,0.492,0,0,0-.048.141,1.136,1.136,0,0,0,.286.4,1.533,1.533,0,0,0,.739.094v0.047a0.27,0.27,0,0,1,.048.212l10.877,0.094h1.765c0.13,0,.611.044,0.668,0.023V17.906a5.557,5.557,0,0,1,.62-0.023,4.228,4.228,0,0,1,1.717-.141v0.047a1.931,1.931,0,0,1,0,1.012,4.425,4.425,0,0,1-1.145.023,2.01,2.01,0,0,0-.6-0.165h-0.5a9.3,9.3,0,0,0-1.837-.047H34.967a4.58,4.58,0,0,1-.811.024H31.938a5.085,5.085,0,0,1-.906.023H29.243l-4.961.047v0.188a0.225,0.225,0,0,1-.191.071c-0.3.177-.809-0.166-1.049,0.188a0.6,0.6,0,0,0-.048.306,0.306,0.306,0,0,1-.1-0.023,0.651,0.651,0,0,1-.31.494c0.115,0.154.186,0.122,0.5,0.118a1.216,1.216,0,0,1,.334-0.071l0.191-.212c0.186,0.082.786-.044,1.121,0.071a0.361,0.361,0,0,0,.024.188,0.448,0.448,0,0,0,.215.024,0.164,0.164,0,0,0,.1.023l-0.024.118h0.1c0.079-.048.231,0.017,0.334-0.023a0.821,0.821,0,0,1,.215-0.141v0.024a0.11,0.11,0,0,0-.048.118,0.952,0.952,0,0,1,.31.047,0.128,0.128,0,0,1,.1-0.094A0.086,0.086,0,0,0,26,20.094a2.1,2.1,0,0,0-.215-0.141,0.093,0.093,0,0,1,.048-0.07c0.054-.009.026-0.022,0.072,0,0.09,0.058.107,0.134,0.167,0.165,0.045-.042.019-0.044,0.072-0.024a0.353,0.353,0,0,1,.191.188c0.041-.019.044-0.062,0.072-0.024a0.649,0.649,0,0,1,.215.282,1.38,1.38,0,0,1,.239-0.165,0.119,0.119,0,0,1,.024.071,0.7,0.7,0,0,0-.1.235,5.065,5.065,0,0,1,.668.588l0.215,0.235a3.923,3.923,0,0,1,.453.023,0.587,0.587,0,0,0,.239.212,0.531,0.531,0,0,1,.286-0.071v0.118h0.072v0.141H28.646v0.118h0.167v0.259h0.429a0.691,0.691,0,0,1,.1-0.141,1.452,1.452,0,0,0-.191-0.612,0.519,0.519,0,0,1,.167-0.024,1.283,1.283,0,0,1,.167.753,2.156,2.156,0,0,0-.262.329,1.542,1.542,0,0,0,.572.023,0.821,0.821,0,0,1,.072-0.306,0.123,0.123,0,0,1,.072-0.024,0.162,0.162,0,0,0,.1.024,2.274,2.274,0,0,1-.024.329h0.238V22.8a0.649,0.649,0,0,0-.358.047,1.8,1.8,0,0,0-.31.565H29.6a1.329,1.329,0,0,0,.453.424h0.406a3.855,3.855,0,0,1,.93.071L31.6,23.929c0.027,0.019.039,0.1,0.072,0.118,0.1,0.067.223,0.06,0.334,0.118a4.216,4.216,0,0,1,.525.377,4.342,4.342,0,0,1,.739,1.012,3.934,3.934,0,0,1,.406.588,0.437,0.437,0,0,0-.048.212,2.664,2.664,0,0,1-.859-0.141v0.094h0.1a5.421,5.421,0,0,1-.072.706l-0.119-.024a0.642,0.642,0,0,0-.024.188,0.144,0.144,0,0,1,.048.094,1.7,1.7,0,0,1-.429.518s-0.031-.068-0.048-0.047v0.024a0.237,0.237,0,0,0-.119.141s0.069,0.031.048,0.047H32.129a1.308,1.308,0,0,1-.572.329,0.254,0.254,0,0,0-.048-0.071,0.243,0.243,0,0,0-.143.141c0.03,0.037.015,0.012,0,.047a2.277,2.277,0,0,1-.525.282,0.16,0.16,0,0,0-.048-0.094,0.5,0.5,0,0,1-.143.094c0.008,0.067.025,0.049,0,.094-0.127.125-.327,0.137-0.477,0.282a0.182,0.182,0,0,0-.119-0.047,0.513,0.513,0,0,0-.119.047l0.024,0.118c-0.21.052-.332,0.216-0.549,0.259a0.26,0.26,0,0,0-.048-0.071,0.287,0.287,0,0,1-.143.071,0.125,0.125,0,0,1,0,.118,2.273,2.273,0,0,1-.525.282,0.16,0.16,0,0,0-.048-0.094,0.557,0.557,0,0,1-.167.047c-0.01.084,0.011,0.059-.048,0.094a1.286,1.286,0,0,1-.62.094V29.882H27.621v0.094H26.977V29.882H26.786a0.847,0.847,0,0,1-.668.094V29.882H25.927v0.094H25.283V29.882H25.069v0.094H24.425V29.882H24.234v0.094H23.59V29.882H23.4v0.094H22.683V29.882h-0.1a1.129,1.129,0,0,1-.787.094V29.882H21.753v0.094H19.344V29.882H19.3v0.094H18.6V29.882H18.485v0.094h-0.62V29.882H17.7v0.094H17.03V29.882H16.959v0.094H14.574V29.882H14.526v0.094H13.763V29.882H13.643v0.094H12.952V29.882H12.761v0.094h-0.62c-0.037-.1-0.027-0.1-0.215-0.094a0.705,0.705,0,0,1-.62.094V29.882H11.115v0.094h-0.62V29.882H10.3v0.094H9.684V29.882H9.493a0.113,0.113,0,0,1-.024.07,1.69,1.69,0,0,1-.62.024V29.882a0.693,0.693,0,0,0-.191,0v0.094a1.7,1.7,0,0,1-.644-0.071l0.024-.094-0.191-.024a0.16,0.16,0,0,1-.048.094l-0.572-.188c0-.106.007-0.109-0.072-0.141a0.687,0.687,0,0,0-.119-0.047,0.092,0.092,0,0,1-.024.118,1.493,1.493,0,0,0-.549-0.212c0-.1.034-0.083-0.024-0.118A0.177,0.177,0,0,0,6.3,29.247c-0.029.073-.009,0.053-0.1,0.07a2.906,2.906,0,0,0-.525-0.212l0.048-.094H5.677a0.177,0.177,0,0,0-.143-0.047,0.09,0.09,0,0,1-.1.071,2.1,2.1,0,0,0-.525-0.212l0.048-.094H4.914a0.177,0.177,0,0,0-.143-0.047,0.09,0.09,0,0,1-.1.07,2.1,2.1,0,0,0-.525-0.212L4.2,28.447H4.15A0.177,0.177,0,0,0,4.007,28.4a0.1,0.1,0,0,1-.072.071,3.467,3.467,0,0,0-.549-0.235c0.008-.067.025-0.049,0-0.094a1.01,1.01,0,0,1-.119-0.094c-0.038.022-.072,0.085-0.1,0.047A1.046,1.046,0,0,1,2.7,27.6a0.094,0.094,0,0,0,.048-0.094,0.439,0.439,0,0,1-.072-0.118c-0.068.008-.049,0.025-0.1,0a1.039,1.039,0,0,1-.191-0.659h0.1V26.682a0.308,0.308,0,0,1-.024-0.165h-0.1a2.554,2.554,0,0,0,.024-0.329,6.293,6.293,0,0,0-1.431.141c-0.188.044-.406,0.082-0.453-0.071,0.033-.054.015-0.178,0.048-0.235,0.109-.19.286-0.378,0.405-0.565,0.095-.148.171-0.368,0.239-0.471,0.132-.2.322-0.422,0.453-0.635,0.048-.078,0-0.161.048-0.212s0.048,0.037.1-.071a0.317,0.317,0,0,1,.024-0.094,1.79,1.79,0,0,1,.31-0.094,0.085,0.085,0,0,0,.024-0.047,0.209,0.209,0,0,1-.191-0.188,0.119,0.119,0,0,0,.024-0.071,4.9,4.9,0,0,1-1.169-.165l-0.239-.024A2.409,2.409,0,0,1,.358,23.2a0.113,0.113,0,0,1-.024.071V23.247l-0.048-.165H0.334V23.035H0.358V23.012a0.6,0.6,0,0,0-.215-0.047V22.941H0.119v0.141a0.2,0.2,0,0,1,.024.118c-0.072.032-.064-0.016-0.072,0.118H0.048V23.294a0.744,0.744,0,0,1,0-.447c0.057-.156.226-0.1,0.286-0.259a0.666,0.666,0,0,1,0-.141H0.31v0.024a0.438,0.438,0,0,0-.072.118H0.191V22.565a5.184,5.184,0,0,0,.692-1.506,0.975,0.975,0,0,1,.286-0.635,3.242,3.242,0,0,1,1.073.212,0.425,0.425,0,0,0,.072.094l-0.1.965H2.266a0.261,0.261,0,0,1,.215-0.071V21.529a1.2,1.2,0,0,0,.334.047,0.2,0.2,0,0,0,.024-0.118H3.292V21.388H3.411l0.024-.071a0.157,0.157,0,0,1-.024-0.094L3.673,21.2V21.082H3.721a0.815,0.815,0,0,1,.334,0c0.187-.02.415-0.081,0.62-0.094L4.7,21.294H4.723V21.271a0.28,0.28,0,0,1,.1-0.094,1.179,1.179,0,0,1,.572-0.094H5.581a0.91,0.91,0,0,1,.167-0.141,2.649,2.649,0,0,1,.811.024L6.535,20.8A0.52,0.52,0,0,1,6.7,20.777l0.024,0.188a6.241,6.241,0,0,0,.835-0.118c0.016,0.018.031,0.052,0.048,0.07a3.066,3.066,0,0,1,.382-0.047,5.541,5.541,0,0,1,.787-0.165A0.294,0.294,0,0,1,8.8,20.612H8.825v0.071c0.041,0,.626-0.107.644-0.118V20.518a0.6,0.6,0,0,1,.191-0.094,1.646,1.646,0,0,1,.382-0.047,0.486,0.486,0,0,0,.31.094,2.878,2.878,0,0,1,1-.259,0.875,0.875,0,0,0,.239.094l0.143-.282c0.147,0,.139-0.02.31-0.023a0.245,0.245,0,0,0-.024-0.141,0.986,0.986,0,0,0-.429-0.376c-0.308-.218-0.6-0.487-0.906-0.706A0.91,0.91,0,0,1,10.113,18a2.9,2.9,0,0,1-.62-0.047v-0.4c-0.061-.034-0.027.005-0.048-0.071H8.658a0.412,0.412,0,0,1-.048-0.235A0.255,0.255,0,0,1,8.73,17.2V16.824H9.207v0.329H9.445a4.09,4.09,0,0,1,.167-0.376H9.159V16.659A2.891,2.891,0,0,1,8.706,16c0.016-.018.031-0.053,0.048-0.071a0.214,0.214,0,0,0,.262.212,0.194,0.194,0,0,1,.239-0.047A0.15,0.15,0,0,1,9.278,16c0,0.125,0,.132.119,0.141a1.085,1.085,0,0,0,.262-0.235,0.145,0.145,0,0,1-.048-0.047H9.66v0.024a0.2,0.2,0,0,1,.072.141H9.66a0.562,0.562,0,0,1-.215.165v0.024a1.32,1.32,0,0,0,.215.094c0.059-.112.074-0.019,0.215,0a0.1,0.1,0,0,1,.072-0.071,0.448,0.448,0,0,0,.405.071,3.005,3.005,0,0,1,.286-0.165h1c0-.486-0.046-0.847-0.048-1.341h0.024V14.777h0.072c0-.354.046-0.647,0.048-1.035-0.172,0-.93.047-0.93,0.047,0.081-.022.074-0.009,0.1-0.094a0.52,0.52,0,0,0-.167-0.024,0.261,0.261,0,0,1-.143.024V13.482h-0.1V13.271h0.1V13.035c0.238,0.007.4-.018,0.644-0.024V12.918a0.705,0.705,0,0,1,.334-0.047c0.041,0.107,0,.138.167,0.141V10.965A3.719,3.719,0,0,1,11.759,10h0.024v1.082a1.46,1.46,0,0,1,.024.541v1.388Zm3.84,0.682a0.084,0.084,0,0,1,.024.047H15.647V13.694Zm-0.048.047h0.048v0.024A0.081,0.081,0,0,1,15.6,13.741Zm-0.239.024a0.442,0.442,0,0,1,.215.024A0.439,0.439,0,0,1,15.361,13.765Zm0.716,0a0.442,0.442,0,0,1,.215.024A0.44,0.44,0,0,1,16.076,13.765Zm-0.787.024h0.048v0.024H15.313v0.024A0.085,0.085,0,0,1,15.289,13.788Zm1.026,0h0.048v0.024A0.083,0.083,0,0,1,16.315,13.788Zm-1.049.047a0.123,0.123,0,0,1,0,.141V13.835Zm1.1,0a0.123,0.123,0,0,1,0,.141V13.835Zm-1.049.118a3.994,3.994,0,0,1,1.05.024V14H16.339a3.4,3.4,0,0,1-.787.024H15.313C15.268,13.987,15.317,13.99,15.313,13.953ZM8.945,15.647a0.116,0.116,0,0,1,.072.024A0.117,0.117,0,0,1,8.945,15.647Zm-0.072.024a0.116,0.116,0,0,1,.072.024A0.116,0.116,0,0,1,8.873,15.671Zm0.167,0a0.116,0.116,0,0,1,.072.024A0.116,0.116,0,0,1,9.04,15.671Zm-0.215.024H8.873v0.023A0.082,0.082,0,0,1,8.825,15.694Zm0.334,0.047H9.207C9.179,15.779,9.2,15.77,9.159,15.741Zm-0.405.024c0.02,0.044.011,0.017,0,.071H8.73Zm0.477,0.047a0.134,0.134,0,0,1,.048.141H9.255Zm-0.549.024H8.73v0.047H8.682V15.835Z" transform="translate(-0.031 -0.016)"/>
</svg>
