<svg xmlns="http://www.w3.org/2000/svg" width="79.969" height="40" viewBox="0 0 79.969 40">
  <defs>
    <style>
      .cls-1 {
        fill: #fff;
        fill-rule: evenodd;
      }
    </style>
  </defs>
  <path id="Color_Fill_1" data-name="Color Fill 1" class="cls-1" d="M56.047,11a0.342,0.342,0,0,1,.095.19H56.047V11Zm0.095,0.474a1.227,1.227,0,0,1-.095.663,0.561,0.561,0,0,0-.189-0.379c0.234-.123.065,0.041,0.189-0.189a0.325,0.325,0,0,1-.189-0.095h0.284Zm-0.095,1.8c-0.013-.555-0.116-0.68-0.095-1.042h0.189a5.936,5.936,0,0,0,.568,2.653,2.556,2.556,0,0,0-.095-1.232H56.71V13.558h0.284a2.342,2.342,0,0,0,.095,1.516H56.8a15.2,15.2,0,0,0,.852,3.032h0.095a1.609,1.609,0,0,1,.095-0.569l0.663,0.189,0.095-.568h0.284c0.211,0.574,1.438.962,1.041,1.705a0.826,0.826,0,0,1-.379.284,4.828,4.828,0,0,0,1.894-.095,0.324,0.324,0,0,1-.189-0.095h0.189a3.27,3.27,0,0,1,.663-0.189v0.379h0.947a1.066,1.066,0,0,1,0-.474V18.579a0.325,0.325,0,0,1,.189.095h0.095l-0.095.474h0.663v0.095a0.671,0.671,0,0,0-.284.758H63.337c-0.005.9,0.058,1.787,0.095,2.558,0.605,0,1.018-.025,1.42,0a0.458,0.458,0,0,1,.095-0.284,0.358,0.358,0,0,0,.379.284V21.8H65.041a1.743,1.743,0,0,0-.284-0.568,0.371,0.371,0,0,0,.379-0.284,0.458,0.458,0,0,1-.284-0.095h1.609c0.452,0.72,2.16.5,3.314,0.474v0.095H69.87v0.095H66.935v0.095H66.84a3.283,3.283,0,0,1,.095.853c-0.279-.054-0.294-0.193-0.473.095H68.45a1.414,1.414,0,0,1,.852,0,0.458,0.458,0,0,1,.095-0.284v0.284c1.165,0.036,2.039,0,2.178-.284,0.193-.232-0.116-0.138.189-0.284v0.474a2.729,2.729,0,0,0,.757,0c0.044-.471-0.077-0.449.473-0.474,0.526-.332,3.548-0.09,4.166-0.095,0-.3-0.114-0.228.284-0.284a2.555,2.555,0,0,1,.757.19,1.225,1.225,0,0,0-.663.095h2.367v0.189H79.811a7.483,7.483,0,0,0-2.272,0v0.095h0.095a4.614,4.614,0,0,0,2.272,0v0.19H77.633v0.095c0.964,0.021,1.1.1,2.177,0.095,0.04-.086.013-0.047,0.095,0a0.342,0.342,0,0,1,.095.189c-0.712,1.045-1.054,3.191-1.515,4.453a4.521,4.521,0,0,1-.379,1.232c-0.539.333-3.382,0.095-4.26,0.095H20.166c-0.74-.461-2.4-0.245-3.408-0.474-2.579-.586-6.155.179-9.278,0.189a0.458,0.458,0,0,1-.095.284,0.823,0.823,0,0,1-.568.379,0.566,0.566,0,0,1-.095-0.663c-0.339-.039-0.238.045-0.379-0.189a1.654,1.654,0,0,0,.568-0.947H7.1a1.155,1.155,0,0,0,.663.758,1.252,1.252,0,0,0,.189-0.758,0.342,0.342,0,0,0,.095-0.189H7.29a2.463,2.463,0,0,0-2.651.474H4.544v0.095c0.536,0.04.5,0.194,0.473,0.758a0.342,0.342,0,0,0-.095.189,8.12,8.12,0,0,1-2.178.095V28.432H2.651L2.462,26.537a2.373,2.373,0,0,1,.757-0.095,0.5,0.5,0,0,0,.568,0,4.639,4.639,0,0,1-1.325-.189c-0.063-.526-0.29-0.962-0.379-1.421a0.69,0.69,0,0,1,.189-0.568l-0.095-.758H1.893V23.316H2.083a4.322,4.322,0,0,1-.284-1.61H1.893a3.957,3.957,0,0,0,.379,1.705,5.662,5.662,0,0,0,2.083.095h5.3c0.72-.339,2.664.041,3.6-0.095,0.544-.079,1.356.185,1.609-0.189h0.095c0.094-.1-0.093-0.094-0.095-0.095-0.529-.339-2.186-0.107-2.935-0.095v-0.19h3.124a0.459,0.459,0,0,1,.095-0.284,7.85,7.85,0,0,1,2.083-.663,4.114,4.114,0,0,1-.473,1.516h1.7l-0.095-1.326h0.947c0,0.012-.029.331,0.095,0.19v-0.19c0.041-.132.146-0.3-0.095-0.379-0.4-.276-2.222.219-2.84-0.19a10.917,10.917,0,0,0,3.03-.095c0.155-.142.332-0.319,0.473-0.474,0.224,0.04.922,0,1.42,0v0.095c-0.166.131-.267,0.066-0.095,0.189a0.793,0.793,0,0,1,.189.284H21.4a2.2,2.2,0,0,1-.379.568h2.367a9.2,9.2,0,0,1,2.178-.474l5.4-1.516c1.892-.7,3.8-1.3,5.68-2.084,0.488-.2,1.11-0.592,1.609-0.758l2.556-.284,6.817-1.232c1.456-.415,3.052-0.737,4.544-1.232a17.711,17.711,0,0,1,3.03-.947l-0.189-1.61H55.1V11.853l0.284,0.095a2.908,2.908,0,0,0,0,1.326,1.34,1.34,0,0,0,.379.095A0.483,0.483,0,0,1,56.047,13.274Zm-0.473-1.042h0.189v0.095A0.324,0.324,0,0,1,55.574,12.232Zm0.379,1.137a1.111,1.111,0,0,1-.473.19v0.284c0.074,0.113.113,0.456,0.189,0.568V14.316A1.087,1.087,0,0,0,55.953,13.368ZM37.207,19.432a0.56,0.56,0,0,0,.379-0.189v0.663a0.639,0.639,0,0,1,.095.379h0.473a1.633,1.633,0,0,0,1.231,1.042c0.1-.252,1.092-0.016,1.61,0a1.608,1.608,0,0,1,.095-0.568h0.095v0.095c0.532,0.749.331,1.859,0.379,2.747a1.567,1.567,0,0,0,1.231.379,1.024,1.024,0,0,0,.568.095,1.341,1.341,0,0,0,.095-0.379c-0.192-.155.067-0.11-0.189-0.189V23.6c-0.17.125,0.043,0.156-.379,0.189-0.113-.074-0.456-0.113-0.568-0.189,0.234-.123.065,0.041,0.189-0.19H42.32c-0.122.234,0.041,0.065-.189,0.19l-0.095-.663c0.684-.042,1.819-0.006,2.746,0l0.189-.663a0.342,0.342,0,0,1,.095.189c0.074,0.113.113,0.456,0.189,0.568,0.74-.358,1.957.184,2.84-0.095v0.189H47.527a0.483,0.483,0,0,1-.284.095V23.6l-1.988-.19v0.568a4.824,4.824,0,0,0,2.556-.568c0.443-.169.884,0.027,1.041-0.095a4.01,4.01,0,0,0,.095-1.61,1.725,1.725,0,0,0,.852-0.095,1.468,1.468,0,0,1-.757-0.095l1.42-.095v0.095h0.095v0.095a0.611,0.611,0,0,0-.379.095H51.6a2.365,2.365,0,0,1,.379-0.474,8.358,8.358,0,0,0-.189-1.895,7.736,7.736,0,0,1,.947-0.663,6.279,6.279,0,0,0,1.041-.379,3.03,3.03,0,0,0,.568-1.137c0.727-1.4,1.094-1.647.947-3.505H55.1c-0.956.7-3.1,0.912-4.355,1.326a68.444,68.444,0,0,1-12.4,2.463,1.039,1.039,0,0,1-.189.474s-0.041-.376-0.095-0.19v0.095a5.939,5.939,0,0,0-1.609,1.421h0.189a0.355,0.355,0,0,1,.473-0.095A0.483,0.483,0,0,1,37.207,19.432Zm18.746-5.495c-0.127.729-.333,2.638,0.189,3.411A12.492,12.492,0,0,0,55.953,13.937Zm0.379,0.379v0.663h0.189V14.79C56.455,14.694,56.4,14.411,56.331,14.316Zm-1.61,4.926H55.1v0.189a0.611,0.611,0,0,0-.379.095,3.894,3.894,0,0,1,.189,1.705c0.206,0.12.621,0.221,0.852,0.379a0.611,0.611,0,0,0-.379.095h0.095a2.021,2.021,0,0,0,.947.095c-0.065-.335-0.181-0.258-0.189-0.284,0,0,.186-1.18.189-1.516H56.142V19.811a0.53,0.53,0,0,0,.189-0.663,15.035,15.035,0,0,1-.757-3.979H55.479v0.095a13.539,13.539,0,0,0-1.231,2.842A6.256,6.256,0,0,1,54.722,19.242Zm1.894-.189a4.7,4.7,0,0,1,1.231.095V19.053a21.61,21.61,0,0,1-1.231-3.884H56.426v0.663A17.776,17.776,0,0,1,56.615,19.053ZM23.1,22.747H22.722v0.189h1.515a4.263,4.263,0,0,1,.663,0l0.189-.663a0.341,0.341,0,0,1,.095.189c0.074,0.113.113,0.456,0.189,0.568,0.671-.352,1.993.05,2.84-0.095v0.189c-0.862.012-.668,0.37-1.325,0.474a3.186,3.186,0,0,0-1.515-.19,0.628,0.628,0,0,0,0,.474c0.122,0.234-.041.064,0.189,0.189,0.074-.046,1.971-0.383,1.988-0.379a3.2,3.2,0,0,0,.284.189,1.725,1.725,0,0,1,.852-0.474V22.842a1.014,1.014,0,0,0-.663-0.284,0.483,0.483,0,0,0-.284-0.095V21.705l0.663-.095a0.548,0.548,0,0,1,.663-0.474,0.962,0.962,0,0,1,.189.379h0.284c0.078-.307-0.046-0.145.189-0.284a0.493,0.493,0,0,0,.473,0v0.284h0.284a0.458,0.458,0,0,1,.095-0.284v0.474h0.568c0-.33.012-0.315,0.568-0.284V20.853h0.189a0.822,0.822,0,0,0,.095.474,2.293,2.293,0,0,0,1.041.095V21.8h0.095c0.263-.342.8-0.512,1.041-0.853A4.727,4.727,0,0,0,34.462,20a15.7,15.7,0,0,1,1.7-.663c0.619-.413,1.064-1.181,1.7-1.611V17.632H37.681c-0.889.76-2.459,0.95-3.6,1.421A67.034,67.034,0,0,1,23.1,22.274v0.474Zm14.959-4.832a0.341,0.341,0,0,1,.095.189H38.059V17.916Zm-0.095.189a0.483,0.483,0,0,1,.095.284H37.965V18.105Zm-0.095.284a0.341,0.341,0,0,1,.095.189H37.87V18.39Zm-0.095.189a0.342,0.342,0,0,1,.095.189H37.775V18.579Zm-0.095.189a0.342,0.342,0,0,1,.095.189H37.681V18.768Zm-0.095.189a0.483,0.483,0,0,1,.095.284H37.586V18.958Zm24.142,0.095a0.341,0.341,0,0,0,.189.095A0.341,0.341,0,0,0,61.728,19.053Zm18.083,0.095a0.483,0.483,0,0,1,.095.284H79.811V19.147ZM56.615,20v0.853a2.035,2.035,0,0,0,.663.095c0.092-.024.036-0.074,0.095,0a0.484,0.484,0,0,0,.095-0.284A1.255,1.255,0,0,0,57.562,20H56.615Zm-16.852.189c0.579,0.193.789,0.912-.095,0.947a2.339,2.339,0,0,0-.284-0.284,0.457,0.457,0,0,1-.095.284V20.663A1.41,1.41,0,0,0,39.763,20.19Zm-1.894.284a0.341,0.341,0,0,1-.189.095v0.095h0.379V20.474H37.87Zm17.136,0a0.457,0.457,0,0,1,.284.095H55.2a0.342,0.342,0,0,1-.189.095V20.474ZM1.8,21.705l-1.609.284c-0.069-.407-0.3-0.752,0-0.947a8.034,8.034,0,0,1,1.42-.379v0.189A1.781,1.781,0,0,1,1.8,21.705Zm35.976-.758,0.095,0.758h0.379V20.947H37.775Zm42.035,0a0.34,0.34,0,0,1,.095.189H79.811V20.947Zm-45.444.095a1.461,1.461,0,0,0-.189.663h0.189a0.794,0.794,0,0,1,.095-0.474,0.793,0.793,0,0,0,.095.474A0.794,0.794,0,0,0,34.367,21.042Zm5.87,0a0.342,0.342,0,0,1,.095.189H40.237V21.042Zm-1.8.284v0.379h0.189c0.155-.192.11,0.066,0.189-0.19A1.269,1.269,0,0,1,38.438,21.326Zm-4.544.189v0.19h0.095v-0.19H33.894Zm-6.911.095a1.468,1.468,0,0,1,.757.095A1.468,1.468,0,0,1,26.982,21.611Zm6.059,1.611H33.42V22.747H33.61c-0.024.289-.264,0.409,0.284,0.474V23.032s-0.37-.018-0.189-0.095h0.189V22.747c-0.236,0-.429-0.1-0.473-0.569A0.517,0.517,0,0,0,33.7,21.8H33.515A1.555,1.555,0,0,0,33.041,23.221Zm37.775-.853H70.438a1.341,1.341,0,0,1-.095-0.379,0.324,0.324,0,0,0,.189-0.095,0.325,0.325,0,0,1,.189.095A0.639,0.639,0,0,1,70.817,22.368Zm5.87-.379c-0.463.294-3.012,0.105-3.787,0.095v0.095h0.189a17.685,17.685,0,0,0,4.355,0V22.084A2.24,2.24,0,0,1,76.686,21.99Zm-8.994.284a0.342,0.342,0,0,1,.095.189H67.692V22.274Zm-2.178.095v0.189H65.7V22.368H65.515Zm9.846,0v0.189a3.086,3.086,0,0,0,1.231-.095A6.565,6.565,0,0,0,75.361,22.368Zm1.42,0a0.276,0.276,0,0,0,.379,0H76.781Zm-57.467.189c0.163,0.084.121,0.084,0.284,0H19.314Zm2.461,1.421,1.7,0.095a1.341,1.341,0,0,0,.095-0.379,0.341,0.341,0,0,1-.095-0.189,0.317,0.317,0,0,1-.284,0V23.6a0.578,0.578,0,0,1,.189.189H23.006a1.025,1.025,0,0,0-.568-0.095V23.6h0.095a2.806,2.806,0,0,0,.568-0.095,1.249,1.249,0,0,0-.852.095l-0.095-.663a0.611,0.611,0,0,0,.379-0.095H21.965A2.194,2.194,0,0,0,21.775,23.979ZM42.6,23.411V23.6a0.612,0.612,0,0,0,.379-0.095A1.2,1.2,0,0,1,42.6,23.411Zm5.3,0.095c0.044,0.272.487,0.21,1.041,0.189V23.505H47.905ZM3.03,23.6a1.5,1.5,0,0,1-.757.095V23.79H2.367a29.743,29.743,0,0,0,4.26,0A1.8,1.8,0,0,0,7.953,23.6H6.438A17.058,17.058,0,0,1,3.03,23.6Zm5.207,0V23.79H9.562V23.6H8.9A4.237,4.237,0,0,1,8.237,23.6Zm1.8,0V23.79c1.432,0.013,3.6.317,4.828-.095V23.6H10.036Zm6.533,0V23.79c0.669,0,.859-0.012,1.42,0V23.6h-1.42Zm11.74,0-0.284.379C28.148,24.081,28.351,23.691,28.308,23.6Zm13.728,0a0.342,0.342,0,0,1,.095.189H42.036V23.6Zm6.059,0.189a0.77,0.77,0,0,0,.852.284V23.884H48.852V23.79A4.9,4.9,0,0,1,48.095,23.79Zm-34.556.095c-0.073.065-.211,0.124-0.284,0.189h0.379A0.325,0.325,0,0,0,13.539,23.884Zm0.284,0a2.332,2.332,0,0,0,1.42.189V23.884H15.148A2.328,2.328,0,0,1,13.823,23.884Zm2.272,0c0.054,0.309,1.256.207,1.893,0.189V23.884H17.515A5.234,5.234,0,0,1,16.095,23.884Zm-12.97.095v0.189c0.658-.006,1.01,0,1.8,0V23.979h-1.8Zm1.988,0v0.189a1.2,1.2,0,0,0,.379-0.095V23.979H5.112Zm0.473,0v0.189a22.71,22.71,0,0,0,2.367-.095V23.979H5.586Zm2.651,0a0.982,0.982,0,0,0,.568.189V23.979H8.237Zm0.757,0v0.189a15.743,15.743,0,0,0,3.03-.189H8.994Zm3.124,0a1.31,1.31,0,0,0,1.042,0H12.118Zm16.095,0a0.341,0.341,0,0,0,.189.095A0.342,0.342,0,0,0,28.213,23.979Zm-25.846.095a0.5,0.5,0,0,0,.568,0H2.367Zm6.059,2.937a3.736,3.736,0,0,0-.095.758H8.521a22.921,22.921,0,0,0,4.166-.284Z" transform="translate(-0.031 0.031)"/>
</svg>
