<svg xmlns="http://www.w3.org/2000/svg" width="80" height="40" viewBox="0 0 80 40">
  <defs>
    <style>
      .cls-1 {
        fill: #fff;
        fill-rule: evenodd;
      }
    </style>
  </defs>
  <path id="Color_Fill_1" data-name="Color Fill 1" class="cls-1" d="M51.551,9h0.191V9.1A0.325,0.325,0,0,1,51.551,9Zm4.773,7.486h0.382a2.425,2.425,0,0,0,.382.486,6.262,6.262,0,0,1,0,1.069H56.516l0.1,1.361H56.8a0.8,0.8,0,0,0,.286-0.583c0.106-.161-0.092-0.207.191-0.389,0.121,0.425.388,0.452,0.859,0.486V18.528h0.191c0.1,0.357.063,0.342,0.477,0.389v0.292a1.385,1.385,0,0,0,.764-0.389c0.04,0.348-.045.245,0.191,0.389a2.048,2.048,0,0,0,.382-0.389l-0.1-.1h0.191v0.292a15.325,15.325,0,0,1,1.909,0V19.6a3.581,3.581,0,0,0-.1,1.458h0.668a0.953,0.953,0,0,1,.668-0.681,1.2,1.2,0,0,0,1.336.681l-0.1,1.361H65.3a8.429,8.429,0,0,1,0-1.167,3.926,3.926,0,0,1,2.673-.1c0.1,0.049.283,0.348,0.382,0.389,0.685,0.285,1.826-.272,2.387.1l-2.291.1,0.1,0.583c0.689-.02,2.092-0.38,2.673,0a5.87,5.87,0,0,0-1.241.1v0.1a0.788,0.788,0,0,1,.477.1h-0.1a0.82,0.82,0,0,0-.382.292h0.573c0.079-.316-0.047-0.149.191-0.292a0.476,0.476,0,0,0,.1.292c0.387-.669.73-0.2,1.05-0.681H71.6a0.481,0.481,0,0,1-.286.1V22.125a2.687,2.687,0,0,1,1.623.1,1.217,1.217,0,0,0-.668.1h0.191c0.705,0.446,2.849-.654,3.723-0.1a0.992,0.992,0,0,0-.573.1H75.8c0.407,0.221,3.529-.41,3.914-0.194V21.833c-0.408.04-2.83,0.455-3.246,0.194l3.341-.389c0.068,0.344.117,0.241,0.191,0.583a6,6,0,0,0-.668,1.458c-0.562,1.15-1.233,2.359-1.814,3.5a6.183,6.183,0,0,1-.668,1.556c-0.357.35-1.528,0.194-2.2,0.194H68.64a1.762,1.762,0,0,0-.286.486,0.462,0.462,0,0,1,.191.486,2.019,2.019,0,0,1-.668.1,1.039,1.039,0,0,1-.191-0.486c0.17-.183.176-0.077,0.1-0.292-0.27-.57-2.352-0.292-3.15-0.292H13.27a1.719,1.719,0,0,0-1.718-.389,26.075,26.075,0,0,1-4.582.1l-0.1.972H6.587A7.332,7.332,0,0,0,6.3,28.931a5.523,5.523,0,0,1-.668-0.583,2.024,2.024,0,0,0,.477-0.194,0.957,0.957,0,0,1,.1-0.681,0.482,0.482,0,0,1,.286-0.1,4.445,4.445,0,0,0,.668.778c0.278-.171.809-0.1,1.05-0.292A1.45,1.45,0,0,0,8.4,27.181l-2.768-.292a2.942,2.942,0,0,1-1.146,1.264c0.391,0.187.288,0.563,0.191,0.972h-2a5.7,5.7,0,0,1-.1-1.556,0.7,0.7,0,0,0,.191-0.389,2.89,2.89,0,0,0,1.05-.486H3.055a1.486,1.486,0,0,0-.764-0.1C1.94,25.579.806,24.93,1.623,23.778a0.342,0.342,0,0,0,.191.1,0.637,0.637,0,0,0,.1.389A1.251,1.251,0,0,1,2,23.875a2.678,2.678,0,0,0,1.718-.1A3.266,3.266,0,0,1,2,23.681l4.487,0.1,0.1-.292a3.286,3.286,0,0,1,1.241.1c-0.081.412-.263,0.418,0,0.778a3.183,3.183,0,0,1,.955.1,0.274,0.274,0,0,1,.1-0.1v-0.1H8.115V24.069a1.457,1.457,0,0,0,.764-0.1H8.21V23.778a4.073,4.073,0,0,1,1.241.1,0.7,0.7,0,0,0-.1.486v0.1c0.33-.193.152-0.118,0.573,0V24.264a0.457,0.457,0,0,1-.286-0.1,6.117,6.117,0,0,0,1.527-.1v-0.1a3.929,3.929,0,0,1-1.623-.1h1.623a1.7,1.7,0,0,1,.955-0.389,1.135,1.135,0,0,0,1.241.389,5.2,5.2,0,0,1,.191-0.778H11.265V22.9a6.273,6.273,0,0,0,2.387,0c0.111-.044.338-0.343,0.477-0.389a5.076,5.076,0,0,1,2.482.1v0.778a1.081,1.081,0,0,1,0,.486h0.668l0.1-1.167h0.1a3.652,3.652,0,0,0,2,0v-0.1H17.757v-0.1h1.909l0.1-.389H20.43l0.1-.194c0.25-.048.182,0.163,0.286,0.194a1.272,1.272,0,0,0,.955-0.194c0.2,0.5.831,0.425,1.527,0.389a0.6,0.6,0,0,1,.668-0.486l0.1,0.486c0.337,0.07.237,0.119,0.573,0.194v-0.1h0.1a2.195,2.195,0,0,1-.191-1.458h0.382a6.778,6.778,0,0,0,1.146.194,4.947,4.947,0,0,1-.191,1.264,5.273,5.273,0,0,0,.668.194c0.814-.709,2.218-0.9,3.246-1.361,2.561-1.141,5.059-2.567,7.542-3.792l-0.573-1.653h0.1a1.243,1.243,0,0,0,.668.1,1.28,1.28,0,0,1,.1-0.681,9.837,9.837,0,0,0,0,1.556V16.486a18.925,18.925,0,0,0,4.01-1.264,89.84,89.84,0,0,0,10.5-3.889v0.194H51.933c-0.786.677-2.151,0.833-3.15,1.264-2.387,1.029-5.026,1.884-7.542,2.819-1.017.378-3.644,0.559-3.723,1.75,0.065,0.075.125,0.217,0.191,0.292a1.1,1.1,0,0,0,.286.194,1.129,1.129,0,0,1,.191-0.778v0.972H38a0.636,0.636,0,0,1-.382.1A27.151,27.151,0,0,0,38,21.153c0.359,0,.334.176,0.286,0.778h0.382v-0.1a0.5,0.5,0,0,1-.1-0.292h0.286a0.637,0.637,0,0,0,.1.389c0.079-.315-0.047-0.149.191-0.292,0.3,0.492.647,0.054,1.337,0v0.292h0.668v0.681H40.573a2.858,2.858,0,0,0-.1.875,0.665,0.665,0,0,0-.1.389h0.1v0.1a1.712,1.712,0,0,1,.859.1,0.827,0.827,0,0,0-.859.194h2.387v-0.1a5.658,5.658,0,0,1-1.814-.389h-0.1V23.389a18.088,18.088,0,0,1,3.055,0,7.147,7.147,0,0,1,0-.875,1.4,1.4,0,0,0,.859,0,2.115,2.115,0,0,1,.286.875h1.432v0.1a1.148,1.148,0,0,1-.859.389,2.83,2.83,0,0,0-1.241-.1v0.194h2.482V23.292H46.492V23.1h0.1a0.481,0.481,0,0,0,.286.1c0-1.361-.395-2.552-0.286-3.306,0.587-.219,2.819-0.746,3.055-1.167A11.956,11.956,0,0,0,50.6,16.1c0.519-1.287,1.222-2.752,1.623-4.083a2.216,2.216,0,0,0-.286-1.458c0.25-.037.125,0.072,0.191-0.194a0.553,0.553,0,0,1-.382,0,0.353,0.353,0,0,1-.1-0.194c0.591-.035.414-0.162,0.668-0.486a9.148,9.148,0,0,0,.764,3.4h0.1v-0.1c0.074-.187.1,0.194,0.1,0.194a1.474,1.474,0,0,0,0,.583A25.307,25.307,0,0,0,54.8,17.847a5.829,5.829,0,0,1,0-1.75h0.668a0.481,0.481,0,0,0,.286.1,0.525,0.525,0,0,1,.286-0.389C56.12,16.219,56.226,16.1,56.325,16.486Zm-3.15-4.278a0.5,0.5,0,0,1,.1.292h-0.1V12.208Zm-0.668.292v0.875H52.7A2.28,2.28,0,0,0,52.506,12.5Zm0.286,0.292,0.1,0.486h0.1A1.078,1.078,0,0,0,52.792,12.792Zm-0.859.292c-0.454,1.225-.741,2.453-1.241,3.694a12.865,12.865,0,0,0-.955,2.625h0.1v-0.1c0.074-.187.1,0.194,0.1,0.194a0.325,0.325,0,0,0-.191.1h0.191a0.482,0.482,0,0,1,.286-0.1v0.194a3.589,3.589,0,0,0,.191,1.458h0.1v-0.1h0.1v0.1a0.5,0.5,0,0,0,.1-0.292,6,6,0,0,0,.286-1.653c0.3-1.228.557-2.689,0.764-3.986A7.418,7.418,0,0,0,51.933,13.083Zm0.191,0.292a0.342,0.342,0,0,0,.191.1A0.342,0.342,0,0,0,52.124,13.375Zm0.764,0c0.41,1.316.607,2.866,0.955,4.181,0.138,0.521-.015,1.114.382,1.361,0.148,0.069.013,0.013,0.286,0a1.043,1.043,0,0,1,.1-0.583,1.28,1.28,0,0,0,.1.681c0.18-.084.07-0.046,0.286,0V18.819a21.932,21.932,0,0,1-1.432-3.792C53.332,14.472,53.372,13.654,52.888,13.375Zm-0.382.1v1.361h0.1V14.639a1.042,1.042,0,0,0,.286-0.194A1.905,1.905,0,0,0,52.506,13.472Zm-0.668,2.236h0.477V13.569H52.124Zm1.146-1.167a0.636,0.636,0,0,0,.1.389A0.637,0.637,0,0,0,52.983,14.542Zm-16.229.1a0.353,0.353,0,0,1,.1.194h-0.1V14.639Zm0,0.292a0.822,0.822,0,0,1,0,.778V14.931Zm15.847,0.1c0.133,1.077.062,3.317,0.191,4.667h0.286l0.1-.778h0.382v-0.1a13.449,13.449,0,0,1-.573-3.792H52.6Zm0.477,0,0.573,3.986c0.276-.124.2,0.111,0.286-0.292C53.308,17.757,53.723,15.978,53.079,15.028Zm2.768,0.292a0.391,0.391,0,0,1,.191.389h-0.1V15.514A0.352,0.352,0,0,1,55.847,15.319Zm-4.3,2.819h0.764a8.1,8.1,0,0,0,.1-2.139,1.719,1.719,0,0,0-.573-0.1V16h-0.1ZM36.945,16a3.839,3.839,0,0,0,.382.972,7.282,7.282,0,0,1,0-.875h-0.1V16H36.945ZM26.253,23.972a1.215,1.215,0,0,0,.668-0.1c-0.309-.124-0.251-0.085-0.286-0.486a15.872,15.872,0,0,1,2.96,0l0.1-.875a1,1,0,0,1,.764.194c0.37,0.183.124,0.49,0.382,0.681h1.432v0.1h-0.1a0.743,0.743,0,0,1-.764.389,2.83,2.83,0,0,0-1.241-.1v0.194H31.79c0.148,0.069.013,0.013,0.286,0a3.859,3.859,0,0,0,.382-2.431,1.7,1.7,0,0,1-.191-0.583,0.456,0.456,0,0,0,.286-0.1,0.457,0.457,0,0,1-.286-0.1h0.191c0.154-.576,2.22-1.081,2.96-1.167V19.306c0.651,0.09,1-.985,1.527-1.361v-0.1H36.754A12.4,12.4,0,0,1,33.795,19.4a42.546,42.546,0,0,1-7.542,3.4A1.841,1.841,0,0,1,26.253,23.972Zm11.36-6.125v0.194H37.9v-0.1ZM35.9,21.25h0.382V21.056a9.659,9.659,0,0,0,.859-3.111h-0.1a7.591,7.591,0,0,1-1.527,1.847A3.935,3.935,0,0,1,35.9,21.25Zm18.9-3.208a0.544,0.544,0,0,0,.573.194V18.042H54.8Zm-17.566.194a11.747,11.747,0,0,1-.668,2.917,0.335,0.335,0,0,0-.1-0.194v0.194h0.1c0.239,0.149.75,0.154,0.955,0.292V20.083a4.79,4.79,0,0,1-.1-1.847H37.232Zm14.033,2.139h1.146v-0.1a9.37,9.37,0,0,1,.1-1.847,3.083,3.083,0,0,0-.955-0.1v0.1h-0.1Zm2.864-2.042a0.4,0.4,0,0,1,0,.486V18.333Zm25.585,0a0.353,0.353,0,0,1,.1.194h-0.1V18.333Zm-24.725.1,0.191,0.583a0.353,0.353,0,0,0,.1-0.194,0.784,0.784,0,0,0,.1-0.389H54.988Zm-1.814.1c0.107,0.161.169,0.1,0,.194V18.528ZM50.31,20.083h0.382v0.1H50.6v0.1A1.044,1.044,0,0,1,50.31,20.083Zm0.668,0a0.475,0.475,0,0,0,.1.292A0.475,0.475,0,0,0,50.979,20.083Zm-13.27.292,0.1,1.556H38V21.736C37.791,21.393,37.921,20.7,37.709,20.375Zm15.084,0a1.915,1.915,0,0,0,.191.972h0.1l0.1-.972H52.792Zm-1.528.1a0.976,0.976,0,0,0-.1.583,1.026,1.026,0,0,0,.573,0,1.534,1.534,0,0,1,.477-0.486v-0.1H51.265Zm28.449,0a0.5,0.5,0,0,1,.1.292h-0.1V20.472Zm-28.83.1a0.827,0.827,0,0,0,.1.486A0.827,0.827,0,0,0,50.883,20.569Zm1.527,0v0.486H52.6A0.642,0.642,0,0,0,52.411,20.569ZM0,20.667H1.432a4.277,4.277,0,0,0,.1,1.653,0.826,0.826,0,0,1,.1-0.486,4.027,4.027,0,0,1,0,1.944,0.579,0.579,0,0,0-.191-0.389c0.235-.161-0.06-1.166-0.1-1.847H0V20.667Zm52.22,0.389a1.25,1.25,0,0,1,.1-0.389h-0.1l-0.286.389H52.22Zm12.506-.194a0.456,0.456,0,0,1,.286.1A0.456,0.456,0,0,1,64.726,20.861Zm-1.909.292,0.1,0.292h0.1V21.153H62.816Zm16.707,0.194c0.31,0.081.146-.048,0.286,0.194H79.236c-0.57.356-1.85,0.08-2.482,0.292V21.639A10.232,10.232,0,0,0,79.523,21.347Zm-26.73.1,0.1,0.292h0.1V21.444H52.792Zm23.484,0.292a0.608,0.608,0,0,1,.382.1A0.609,0.609,0,0,1,76.277,21.736Zm-1.814.1a2.517,2.517,0,0,1,1.146.1c-0.7.023-1.951,0.439-2.482,0.1A3.732,3.732,0,0,0,74.463,21.833Zm1.241,0a0.457,0.457,0,0,1,.286.1A0.456,0.456,0,0,1,75.7,21.833Zm-0.382.389a0.342,0.342,0,0,0,.191.1A0.343,0.343,0,0,0,75.322,22.222Zm-1.146.1c0.164,0.086.122,0.086,0.286,0H74.177Zm0.382,0a0.275,0.275,0,0,0,.382,0H74.559Zm-52.6.1a1.678,1.678,0,0,1-.1.583h0.191V22.417h-0.1Zm0.668,0a0.275,0.275,0,0,0,.382,0H22.625Zm46.014,0v0.194h0.191c0.223-.137.829-0.053,1.05-0.194H68.64Zm6.492,0c0.164,0.086.122,0.086,0.286,0H75.131Zm-10.5.194a0.633,0.633,0,0,0,.668,0H64.63Zm6.587,0a1.857,1.857,0,0,0,.382.194V22.611H71.217ZM64.63,22.9V23.1c0.628,0,.85-0.018,1.337,0V22.9H64.63Zm-59.475.875c-0.074.066-.213,0.128-0.286,0.194a1.194,1.194,0,0,1,.382.1V23.778h-0.1Zm-1.05.1a0.633,0.633,0,0,0,.668,0H4.105Zm1.241,0v0.292a1.43,1.43,0,0,0,.382.194V24.167a0.456,0.456,0,0,1-.286-0.1c0.31-.081.146,0.048,0.286-0.194H5.346Zm0.573,0v0.194H6.492V23.875H5.919Zm6.683,0.1v0.194H13.27V23.972H12.6Zm14.415,0a1.485,1.485,0,0,1-.764.1v0.194h2.2V24.069A4.836,4.836,0,0,1,27.017,23.972ZM2,24.069a0.544,0.544,0,0,0,.573.194,1.293,1.293,0,0,0,.668-0.1v-0.1H2Zm14.606,0a0.5,0.5,0,0,0,.573,0H16.611Zm13.556,0c0.043,0.273.406,0.216,0.955,0.194,0.082-.063.3-0.13,0.382-0.194H30.167Zm14.32,0c0.052,0.31,1.094.214,1.718,0.194V24.069H44.487Zm-39.809.1v0.194a3.058,3.058,0,0,0,.573-0.194H4.678Zm1.241,0v0.194a1.893,1.893,0,0,1,.668.1V24.264A2.017,2.017,0,0,0,5.919,24.167Zm4.2,0.1v0.194h0.859V24.264H10.119Zm0.955,0v0.194h0.191V24.264H11.074Zm2.291,0.292V24.264H12.6v0.1a0.353,0.353,0,0,1,.1.194h0.668Zm12.888-.194v0.194c0.589,0.024,2.053.182,2.291-.194H26.253Zm14.129,0v0.194l0.382-.1v-0.1H40.382Zm0.764,0v0.194h1.718V24.361H41.146Z" transform="translate(0 0.5)"/>
</svg>
