<?xml version="1.0" encoding="utf-8"?>
<!-- Generator: Adobe Illustrator 16.0.0, SVG Export Plug-In . SVG Version: 6.00 Build 0)  -->
<!DOCTYPE svg PUBLIC "-//W3C//DTD SVG 1.1//EN" "http://www.w3.org/Graphics/SVG/1.1/DTD/svg11.dtd">
<svg version="1.1" id="Layer_1" xmlns="http://www.w3.org/2000/svg" xmlns:xlink="http://www.w3.org/1999/xlink" x="0px" y="0px"
	 width="39.969px" height="40px" viewBox="0 0 39.969 40" enable-background="new 0 0 39.969 40" xml:space="preserve">
<path id="ussr_zsu_37_ico" fill="#FFFFFF" d="M12.878,12.262c0.025-0.138,0.08-0.268,0.16-0.383
	c-0.112,0.023-0.123-0.006-0.114-0.158c0.048,0.003,0.094-0.024,0.114-0.068c0.017-0.027,0.025-0.058,0.023-0.09L12.832,11.5v-0.072
	c0.266,0.027,0.533,0.035,0.8,0.022c0.03,0.087,0.082,0.094,0.114,0.18c-0.049,0.038-0.07,0.063-0.046,0.113
	c0.033,0.027,0.063,0.057,0.091,0.09c0.02,0.035,0.02,0.078,0,0.113c-0.043,0.014-0.126,0.016-0.137,0.021
	c0.081,0.085,0.123,0.2,0.114,0.316c1.102,0.06,2.207,0.015,3.3-0.135c0.085,0.243,0.192,0.477,0.319,0.7
	c0.184,0.417,0.31,0.866,0.456,1.307l0.228,1.082c0.157,0.037,0.319,0.044,0.479,0.022h5.584c0.18,0.041,0.365,0.049,0.548,0.023
	h3.258c0.327,0.021,0.655,0.014,0.98-0.023l0.752,0.023c0.55-0.097,1.105-0.15,1.664-0.158v0.7
	c-0.573-0.005-1.145-0.058-1.709-0.158l-10.37,0.023v0.045c-0.034,0.133-0.042,0.271-0.023,0.406v0.988h-0.203v0.045
	c0.039,0.052,0.063,0.115,0.068,0.18h-2.256v0.135h0.615c0.024-0.01,0.008-0.063,0.137-0.045c0.123,0.05,0.257,0.065,0.387,0.045
	c0.025-0.011-0.009-0.048,0.114-0.045c0.1,0,0.063,0.033,0.091,0.045h1.163v-0.067h0.068V17.31c0.037-0.014,0.075-0.021,0.114-0.023
	c0.304,0.038,0.613,0.023,0.912-0.045v-0.09h0.207v0.09l0.479,0.023c0.029-0.032,0.059-0.062,0.091-0.09h0.365
	c0.171-0.037,0.488-0.045,0.593-0.068L22.4,17.13c0.136-0.015,0.272-0.022,0.41-0.023c0.306,0.069,0.622,0.084,0.934,0.045
	c0.408-0.052,0.82-0.06,1.23-0.023l1.983-0.023h1.122c0.195-0.039,0.396-0.039,0.593,0l0.615-0.09
	c0.279,0.081,0.554,0.178,0.821,0.293h0.182c0.055,0.096,0.145,0.168,0.251,0.2c0.089,0.028,0.183,0.036,0.274,0.023V17.2
	c0.072-0.009,0.142-0.032,0.205-0.068h0.957v0.316h-0.207v0.068h0.5v0.064l0.41,0.022v-0.247h0.092V17.6h0.091v0.5
	c0.083,0.105,0.174,0.203,0.272,0.293c0.037-0.081,0.117-0.133,0.205-0.135c0.093,0.034,0.149,0.127,0.137,0.225
	c-0.052,0.089-0.082,0.19-0.09,0.293c0.017,0.029,0.032,0.059,0.045,0.09L33.618,19c0.001,0.069,0.017,0.137,0.046,0.2
	c0.117,0.069,0.239,0.129,0.365,0.18c0.285,0.191,0.591,0.35,0.912,0.474c0.107-0.002,0.215-0.018,0.318-0.045
	c0.874,0.044,1.75,0.029,2.621-0.046c0.031,0.032,0.07,0.056,0.114,0.068c0.062,0.054,0.144,0.3,0.205,0.383
	c0.1,0.136,0.263,0.249,0.364,0.384c0.217,0.301,0.469,0.572,0.752,0.811c0.288,0.148,0.52,0.385,0.662,0.676
	c-0.004,0.108-0.027,0.216-0.068,0.316c-0.012-0.019-0.027-0.034-0.046-0.045c0,0.024-0.009,0.048-0.023,0.067
	c-0.018-0.036-0.052-0.062-0.091-0.067c-0.132,0.149-0.285,0.278-0.456,0.383c-0.226,0.168-0.426,0.399-0.638,0.586
	c-0.155,0.135-0.338,0.085-0.342,0.383h-0.092c-0.354,0.465-0.797,0.854-1.301,1.148c-0.377,0.269-0.729,0.601-1.117,0.856
	c-0.373,0.183-0.762,0.334-1.162,0.451c-0.468,0.2-0.947,0.364-1.436,0.563c-0.162,0.077-0.329,0.144-0.5,0.199h-0.273
	c-0.583,0.069-1.17,0.084-1.756,0.045H9.755c-1.149-0.293-2.271-0.682-3.355-1.164c-0.501-0.174-0.983-0.4-1.436-0.677l-0.16-0.18
	c-0.125-0.075-0.24-0.166-0.342-0.271c-0.044-0.087-0.082-0.178-0.114-0.27c-0.28-0.588-0.304-1.264-0.068-1.87H3.943
	c-0.062,0.135-0.133,0.146-0.342,0.135c-0.171-0.04-0.348-0.056-0.524-0.045c-0.02-0.027-0.035-0.058-0.046-0.09
	c0.36-0.282,0.5-0.829,0.889-1.082v-0.024c-0.272-0.017-0.542-0.069-0.8-0.158c-0.039-0.077-0.062-0.161-0.068-0.248
	c-0.069-0.049-0.146-0.087-0.228-0.112c-0.217-0.134-0.446-0.294-0.661-0.428c-0.184-0.08-0.36-0.179-0.524-0.294v-0.563
	l0.205-0.023v-0.225c-0.065-0.1-0.082-0.225-0.044-0.338c-0.02-0.078,0.017-0.012,0.046-0.068v-0.5h1
	c-0.084-0.344-0.267-0.657-0.524-0.9v-0.064c0.577,0,0.949-0.021,1.527-0.022v-0.135H2.37c-0.017-0.072-0.047-0.14-0.091-0.2
	c-0.223,0.352-0.575,0.603-0.98,0.7c-0.195,0.013-0.387-0.06-0.524-0.2l-0.16-0.023c-0.031-0.043-0.054-0.091-0.068-0.142
	c-0.079-0.082-0.147-0.173-0.205-0.271c-0.075-0.208-0.022-0.462-0.091-0.676C0.178,16.63,0.094,16.706,0,16.769V16.7
	c0.102-0.089,0.173-0.207,0.205-0.338c-0.073-0.04-0.129-0.104-0.16-0.18h0.046c0.056,0.074,0.043,0.05,0.16,0.045
	c0.03-0.312,0.177-0.602,0.41-0.811c0.126-0.058,0.249-0.125,0.365-0.2c-0.151-0.145-0.22-0.356-0.182-0.563l0.046-0.09
	c-0.063-0.117-0.086-0.251-0.068-0.383c0.053-0.11,0.099-0.223,0.137-0.338H0.934c-0.03,0.049-0.08,0.083-0.137,0.09v-0.025
	c0.074-0.048,0.13-0.118,0.16-0.2c-0.02-0.051-0.035-0.104-0.046-0.158h0.046v0.045c0.015,0.02,0.023,0.044,0.023,0.068
	c0.371-0.159,0.717-0.372,1.026-0.631c0.117-0.041,0.225-0.102,0.319-0.18v-0.566H2.6v-0.226c0.5,0,1.027-0.024,1.481-0.023
	c-0.013-0.464,0.286-0.878,0.729-1.014c0.233-0.066,0.484,0.012,0.638,0.2l0.021,0.116c0.069,0.085,0.137,0,0.16,0.158
	c-0.116,0.086-0.191,0.217-0.205,0.361c0.038,0.066,0.084,0.126,0.137,0.18c0.053,0.026,0.089-0.026,0.137,0.045l-0.16,0.113v0.023
	h0.022c0.14,0.075,0.301,0.099,0.456,0.068h1.322c0.321-0.084,0.656-0.091,0.98-0.022c0.19,0.031,0.384,0.023,0.57-0.023
	c0.093-0.009,0.188,0.007,0.274,0.045H10.3C11.161,12.285,12.053,12.265,12.878,12.262z"/>
</svg>
