<svg xmlns="http://www.w3.org/2000/svg" width="40" height="40" viewBox="0 0 40 40">
  <defs>
    <style>
      .cls-1 {
        fill: #fff;
        fill-rule: evenodd;
      }
    </style>
  </defs>
  <path id="Color_Fill_1" data-name="Color Fill 1" class="cls-1" d="M25.423,12.049V12.3l0.344,0.049v0.346a1.073,1.073,0,0,1,.491.1,0.908,0.908,0,0,1,.049.3H26.8V12.84a0.7,0.7,0,0,1,.2-0.049,0.908,0.908,0,0,1,.049.3H27.73v0.049h0.049l0.1,0.494a1.68,1.68,0,0,1,1.423.593l0.147,0.247h1.62c0.324,0.317,1.566.148,2.159,0.148h0.736a0.693,0.693,0,0,1,.1.148h1.178c1.027,0,2.159.015,3.043,0V15.21a17.851,17.851,0,0,0-4.319.148H31.215l-0.049.148c-0.372.167-1.011-.148-1.325,0.049a1.074,1.074,0,0,0-.2.889,1.7,1.7,0,0,0-.884.3v-0.1a0.27,0.27,0,0,0,.147-0.2H28.859a0.857,0.857,0,0,0-.294.3,1.412,1.412,0,0,1,.147.691h1.129v-0.1c-0.148-.112-0.107-0.064-0.1-0.247a1.75,1.75,0,0,1,.834-0.395,0.588,0.588,0,0,0,.344.346,0.24,0.24,0,0,0,.049.148,1.991,1.991,0,0,1,1.031,0,0.911,0.911,0,0,1,.1.444,1.328,1.328,0,0,0-.1.445,7.547,7.547,0,0,0,.344.889,1.028,1.028,0,0,0,.2.543h0.442a3.248,3.248,0,0,0,.785-0.049c0.051,0.019.128,0.174,0.2,0.2L36.025,19.8c1.81,0.409,2.8.156,3.975,1.284a7.232,7.232,0,0,1-.589,1.827c-0.007.034,0.094,0.317,0.1,0.346a2.6,2.6,0,0,1-.1.741c-0.409,1.2-2.424,1.761-3.583,2.272A24.845,24.845,0,0,1,31.362,28H10.945a15.437,15.437,0,0,1-4.074-.3c-1.94-.6-4.659-0.608-5.742-2.074l-0.245-.2a3.038,3.038,0,0,1-.294-1.876c0.075-.238.239-0.54,0.344-0.79A1.693,1.693,0,0,1,.54,21.679c-0.054-.174-0.206-0.37-0.245-0.543A3.792,3.792,0,0,0,0,19.852a1.981,1.981,0,0,1,.147-0.2A1.484,1.484,0,0,0,.1,19.012c0.5-.159.8-0.663,1.276-0.84a0.672,0.672,0,0,0,.147.494h0.1a1.986,1.986,0,0,1,.589-0.741l0.147,0.049V17.926H2.307c-0.049-.05.048-0.049,0.049-0.049a0.231,0.231,0,0,1,.245-0.1v-0.2H2.7a0.3,0.3,0,0,0,.1.1,1.146,1.146,0,0,1,.245-0.642H1.816a3.869,3.869,0,0,0-.442,0c0-.313-0.009-0.392,0-0.642h2.8a8.532,8.532,0,0,0,1.129,0V16.1H5.939v0.2a10.9,10.9,0,0,1,1.963,0,2.226,2.226,0,0,1,.589-0.1,5.726,5.726,0,0,0,1.129.494V16.444h0.687l0.049,0.247h6.429V16.543c0.373,0.017.2,0.069,0.343,0.148h1.325l0.049-.247H15.018a0.892,0.892,0,0,0-.1-0.346c0.456-.139.445-1.117,0.589-1.58a0.883,0.883,0,0,0,.147-0.543,0.411,0.411,0,0,1-.147-0.2,0.31,0.31,0,0,0,.245-0.148c-0.124-.072-0.076-0.022-0.1-0.2h0.1a3.058,3.058,0,0,1,1.374-.2V13.185a0.334,0.334,0,0,1-.1-0.247,0.436,0.436,0,0,1,.442-0.2,0.551,0.551,0,0,1,.147.4,0.139,0.139,0,0,0-.049.049h0.344c0.033-.021.736-0.2,0.736-0.2a1.01,1.01,0,0,0,.638.1v-0.1h0.2l0.049-.1a0.879,0.879,0,0,1,.589.1H21.4a4.313,4.313,0,0,0,1.669-.148,0.265,0.265,0,0,1-.2-0.2h0.1a0.25,0.25,0,0,1,.147-0.049,0.239,0.239,0,0,0,.049.148,0.9,0.9,0,0,0,.442.049V12.642a0.572,0.572,0,0,1,.294-0.148,0.408,0.408,0,0,0,.344.148,1.511,1.511,0,0,1,.147-0.346,1.292,1.292,0,0,0,.736,0c0-.193-0.024-0.222.1-0.3A0.33,0.33,0,0,0,25.423,12.049Zm-0.883.395v0.593h0.1A0.529,0.529,0,0,0,24.54,12.444Zm-0.785.2v0.049H23.706c-0.094.038,0.1,0.049,0.1,0.049V12.691h0.049A0.176,0.176,0,0,0,23.755,12.642Zm-6.282.444v-0.2a0.168,0.168,0,0,1-.1-0.049,0.168,0.168,0,0,0-.1.049,0.2,0.2,0,0,0-.1.2,0.14,0.14,0,0,1,.049.049Zm-8,3.654a2.361,2.361,0,0,0,.049.691H9.571V17.383a0.178,0.178,0,0,0,.049-0.1A1.41,1.41,0,0,1,9.472,16.741ZM2.4,18.025v0.1H2.454A0.169,0.169,0,0,0,2.4,18.025Zm-0.294.2v0.1H2.16V18.272H2.209A0.177,0.177,0,0,0,2.11,18.222Zm-0.245.2c0.016,0.109-.051.053,0.049,0.1a0.14,0.14,0,0,1,.049-0.049A0.176,0.176,0,0,0,1.865,18.42ZM0.2,19.6a0.236,0.236,0,0,0,.147-0.049H0.393V19.506a0.469,0.469,0,0,1-.147-0.2H0.2v0.3ZM35.976,24.3a4.91,4.91,0,0,0-.736.642h0.049a6.074,6.074,0,0,0,.883-0.445A1.619,1.619,0,0,1,35.976,24.3Zm-24,.988H11.387a4.2,4.2,0,0,1-.442,1.136h1.423v-0.1A1.8,1.8,0,0,1,11.976,25.284Zm5.693,0a2.422,2.422,0,0,1-.442,1.136h3.485v-0.1a1.547,1.547,0,0,1-.393-1.037h-2.65Zm8.344,0a3.218,3.218,0,0,1-.442,1.136H28.81v-0.1a1.722,1.722,0,0,1-.393-1.037h-2.4Zm8.1,0v0.1l0.2-.049V25.284h-0.2Zm-28.368.247-0.883-.1a0.746,0.746,0,0,0-.1.2l1.031,0.247v-0.2A0.253,0.253,0,0,1,5.742,25.531Z"/>
</svg>
