<?xml version="1.0" encoding="utf-8"?>
<!-- Generator: Adobe Illustrator 16.0.0, SVG Export Plug-In . SVG Version: 6.00 Build 0)  -->
<!DOCTYPE svg PUBLIC "-//W3C//DTD SVG 1.1//EN" "http://www.w3.org/Graphics/SVG/1.1/DTD/svg11.dtd">
<svg version="1.1" id="Layer_1" xmlns="http://www.w3.org/2000/svg" xmlns:xlink="http://www.w3.org/1999/xlink" x="0px" y="0px"
	 width="39.969px" height="40px" viewBox="0 0 39.969 40" enable-background="new 0 0 39.969 40" xml:space="preserve">
<path id="ussr_zsu_23_4_ico" fill="#FFFFFF" d="M13.043,5.707c0.313,0.025,0.625,0.066,0.934,0.123
	c0.263,0.815,0.482,1.646,0.654,2.485c0.251,0.672,0.419,1.373,0.5,2.086c-0.442,0.366-0.935,0.666-1.463,0.89
	c-0.062-0.093-0.148-0.167-0.249-0.215v0.061c0.165,0.242,0.281,0.514,0.342,0.8c0.125-0.016,0.248,0.044,0.312,0.153
	c0.009,0.245-0.009,0.26,0,0.491c0.288-0.011,0.633-0.03,0.965-0.031c0-0.105,0.046-0.206,0.125-0.276
	c0.054-0.117-0.1-0.389,0.187-0.46c0.053,0.023,0.457-0.027,0.654-0.031V11.9h1.214c0-0.1-0.053-0.041,0.031-0.092
	c0.036,0.052,0.093,0.085,0.156,0.092v-0.118c-0.054-0.108-0.095-0.221-0.124-0.338h0.9v-0.122h0.467
	c0.053,0.107,0.116,0.21,0.187,0.307h0.062v-0.277h0.156c-0.044-0.219-0.012-0.447,0.093-0.644l0.156-0.031
	c0.035-0.125,0.077-0.248,0.125-0.368c0.051-0.016,0.103-0.026,0.156-0.031c0.102-0.083,0.195-0.176,0.278-0.278h0.592v0.951
	c0.132,0.066,0.134,0.134,0.124,0.338c0.41,0.062,0.693,0.445,0.631,0.856c-0.023,0.151-0.091,0.291-0.195,0.402
	c0.055,0.107,0.097,0.22,0.125,0.337h0.124c0.002,0.076,0.023,0.15,0.063,0.215c0.186-0.028,0.374,0.016,0.528,0.123
	c0.008-0.095,0.053-0.183,0.125-0.245c0.061-0.038,0.164,0,0.25-0.031v-0.061c0,0,0.381,0.062,0.5,0.062
	c0.432,0,0.678-0.064,1.09-0.062v0.092c0.819-0.008,1.93,0.031,2.957,0.031h1.213v-0.061h0.468v0.092
	c0.434-0.058,0.873-0.058,1.307,0c0.046,0.103,0.108,0.196,0.188,0.276c0.249-0.093,0.521-0.104,0.778-0.031
	c0.138,0.097,0.254,0.223,0.342,0.368h0.716c0.565,0.099,1.142,0.12,1.712,0.061c1.556,0,2.781-0.024,4.14-0.031
	c0.021,0.059,0.031,0.121,0.031,0.184c0.392,0.074,0.796,0.063,1.183-0.031v0.43l-0.399-0.031c0,0.142-0.101,0.109-0.312,0.093
	c-0.125,0.006-0.248-0.038-0.342-0.123c-0.133,0.075-0.288,0.097-0.436,0.062c-0.598-0.096-1.207-0.096-1.805,0
	c0,0.033-0.012,0.064-0.031,0.092c-0.295-0.124-0.621-0.156-0.935-0.092v0.061c0.278,0.229,0.521,0.498,0.716,0.8l0.25,0.215
	c0.02,0.058,0.051,0.109,0.092,0.153h1c0.229-0.025,0.458-0.025,0.686,0c0.178-0.002,0.355-0.021,0.529-0.061
	c0.107-0.012,0.215,0.01,0.311,0.061l0.592-0.031c0.02,0.059,0.03,0.121,0.03,0.184c0.39,0.053,0.786,0.043,1.173-0.029v0.43
	l-0.4-0.031c0,0.144-0.127,0.109-0.342,0.092c-0.092-0.01-0.18-0.041-0.258-0.092c-0.154,0.027-0.311,0.037-0.467,0.031
	c-0.576-0.11-1.167-0.11-1.743,0c-0.077,0.037-0.048,0.055-0.124,0.092v-0.123c-1.977-0.024-3.789,0.4-5.479,0.522v0.03
	c0.029,0.068,0.041,0.143,0.031,0.216h0.03c0.128-0.052,0.263-0.082,0.4-0.093c0.509-0.181,1.048-0.264,1.588-0.244v0.061
	c0.041,0.047,0.036,0.117-0.01,0.158c-0.015,0.014-0.032,0.021-0.052,0.025c-0.322,0.111-0.66,0.174-1,0.185
	c-0.527,0.114-1.047,0.257-1.557,0.431v0.03h2.801c0.456-0.12,0.932-0.151,1.399-0.092c0.021,0.06,0.031,0.121,0.03,0.184
	c0.219,0.051,0.43,0.134,0.623,0.245h0.841c0.188,0,0.646-0.059,0.685-0.031c0.049,0.159,0.06,0.328,0.031,0.491H36.95
	c-0.239,0.09-0.493,0.132-0.747,0.123c0.023,0.101,0.033,0.204,0.031,0.308c-0.02,0.041-0.049-0.015-0.063,0.123h-0.125v0.061
	c0.008,0.071,0.008,0.144,0,0.215c0.113,0.134,0.249,0.248,0.4,0.337c0.293,0.241,0.573,0.497,0.84,0.767
	c-0.021,0.06-0.031,0.122-0.031,0.185c0.456-0.035,0.914-0.035,1.37,0c-0.11,0.013-0.078-0.015-0.124,0.062
	c-0.008,0.029-0.023,0.012,0,0.03c0.07,0.101,0.064,0.079,0.188,0.062c0.002,0.141,0.108,0.259,0.248,0.275v0.03h-0.09
	c-0.017-0.017-0.038-0.027-0.062-0.031v0.062c0.116,0.222,0.2,0.46,0.249,0.706c0.066,0.057,0.129,0.118,0.188,0.184
	c0.023,0.189-0.009,0.382-0.094,0.552c0.019,0.207,0.049,0.412,0.094,0.614h-0.561c-0.176,0.269-0.439,0.476-0.623,0.767
	c-0.035,0.099-0.046,0.204-0.031,0.308c-0.054,0.14-0.139,0.266-0.249,0.368c-0.077,0.059-0.177,0.035-0.249,0.092
	c-0.108,0.147-0.244,0.271-0.4,0.368c-0.062-0.009-0.125-0.009-0.187,0c-0.121,0.065-0.187,0.231-0.312,0.307
	c-0.102,0.026-0.205,0.047-0.311,0.062c-0.115,0.121-0.24,0.234-0.373,0.336c-0.072-0.008-0.146-0.008-0.218,0
	c-0.042,0.057-0.073,0.118-0.093,0.185c-0.166,0.087-0.345,0.149-0.529,0.185c-0.109,0.068-0.05,0.146-0.156,0.215
	c-0.068,0.047-0.142,0.088-0.218,0.123l-0.155-0.031c-0.102,0.084-0.195,0.177-0.281,0.275c-0.121,0.041-0.246,0.072-0.372,0.093
	c-0.088,0.065-0.171,0.138-0.249,0.215c-0.143,0.077-0.31,0.099-0.467,0.062c-0.096,0.034-0.2,0.153-0.28,0.184
	c-0.154,0.029-0.313,0.029-0.468,0c-0.076-0.005-0.153,0.017-0.217,0.061c-0.229,0.032-0.461,0.021-0.686-0.031
	c-1.219-0.031-2.373,0.031-3.734,0.031H13.883c-0.395,0.02-0.79,0.009-1.183-0.031c-0.03-0.004-0.2,0.031-0.28,0.031
	c-0.384,0.023-0.77,0.014-1.152-0.031c-0.067-0.012-0.313,0.031-0.436,0.031c-0.53,0.034-1.062,0.014-1.588-0.061
	C9.079,26.871,9.102,27,8.934,26.969c-0.191-0.037-0.322-0.16-0.5-0.184c-0.081-0.012-0.059,0.053-0.093,0.061
	c-0.129-0.002-0.256-0.033-0.372-0.091C7.93,26.701,7.888,26.649,7.844,26.6c-0.193-0.003-0.383-0.045-0.56-0.123
	c-0.013-0.054-0.034-0.105-0.062-0.152c-0.072-0.019-0.146-0.019-0.218,0c-0.1-0.039-0.193-0.09-0.28-0.153
	c-0.005-0.042-0.015-0.083-0.031-0.123c-0.179-0.021-0.35-0.085-0.5-0.184c-0.02-0.026-0.031-0.06-0.031-0.093
	c-0.178,0-0.352-0.054-0.5-0.152c-0.022-0.056-0.054-0.107-0.093-0.153H5.354c-0.098-0.042-0.192-0.093-0.28-0.153
	c-0.008-0.041-0.018-0.082-0.031-0.123c-0.068-0.029-0.144-0.04-0.218-0.03c-0.145-0.067-0.256-0.188-0.311-0.337
	c-0.094,0.029-0.093,0.06-0.187,0.092c-0.024-0.05-0.107-0.1-0.031-0.153v-0.03c-0.065-0.121-0.28-0.17-0.342-0.308
	c-0.038-0.084,0.075-0.122,0-0.184H3.86c-0.027,0.02-0.06,0.03-0.093,0.03v-0.062c-0.011-0.019-0.187-0.92-0.187-0.92
	c0.047-0.074,0.078-0.158,0.089-0.246H2.21c0.068-0.513,0.193-1.016,0.374-1.5c0.002-0.186,0.023-0.37,0.062-0.552H2.335
	c-0.291,0.018-0.583,0.007-0.872-0.031c-0.17,0.278-0.485,0.434-0.809,0.4c0-0.033-0.01-0.066-0.031-0.092
	c-0.096-0.023-0.189-0.054-0.28-0.093c-0.016-0.053-0.037-0.104-0.062-0.153H0.187c-0.04-0.076-0.051-0.162-0.031-0.246
	c-0.013-0.045-0.11-0.077-0.125-0.123C0.026,20.6,0.037,20.547,0.062,20.5c0-0.078-0.052-0.057-0.062-0.092
	c0.018-0.159,0.06-0.314,0.125-0.46c0.243-0.218,0.503-0.414,0.778-0.589v0.031c-0.086,0.057-0.161,0.129-0.218,0.215h0.124
	c0.078,0.055,0.185,0.034,0.239-0.044c0.004-0.005,0.007-0.011,0.01-0.017l-0.031-0.031H1.09c0.104,0.06,0.222,0.092,0.342,0.092
	c0.017,0.033,0.038,0.064,0.062,0.093c0.303,0.091,0.625,0.103,0.934,0.03H2.21V19.7c0.102,0.009,0.203-0.024,0.28-0.093
	c-0.042-0.039-0.064-0.095-0.063-0.152c0.292-0.105,0.217-0.8,0.467-0.951c0.057,0.067,0.013,0.067,0.093,0.092
	c0.063-0.006,0.125-0.006,0.187,0c0.146-0.184,0.311-0.35,0.494-0.496c-0.023-0.132-0.023-0.268,0-0.399h0.129
	c0.121,0.042,0.245,0.075,0.371,0.1c0.026,0.073,0.058,0.146,0.093,0.216c0.086-0.043,0.161-0.106,0.218-0.185l0.093,0.031V17.52
	l0.096-0.03c0.131,0.03,0.266,0.041,0.4,0.03c0.078-0.033,0.152-0.073,0.223-0.119c0.215-0.044,0.436-0.055,0.654-0.031v-0.156
	h0.123v0.123c2.321-0.155,4.649-0.187,6.973-0.092l0.031-0.4l-1.681-0.031c-0.368,0.041-0.74-0.001-1.089-0.123V17H8.747
	c0-1-0.015-2.059-0.031-3.007h0.062c0.069,0.029,0.144,0.04,0.218,0.03V13.9H8.869v-0.062c-0.026-0.046-0.037-0.1-0.031-0.153h0.031
	v-0.032c0.487-0.035,0.975-0.045,1.463-0.031c0.057-0.084,0.099-0.178,0.124-0.276c-0.062-0.156-0.083-0.324-0.062-0.491
	c0.038-0.1,0.012-0.069,0.124-0.092c0.058,0.028,0.123,0.039,0.187,0.031v-0.153h0.093c0.024-0.152,0.077-0.297,0.156-0.429
	c0.335,0.135,0.696,0.198,1.058,0.184c0.032-0.151,0.043-0.306,0.031-0.46c-0.043-0.181-0.043-0.371,0-0.552
	c-0.011-0.409-0.021-0.818-0.031-1.227c-0.151-0.071-0.308-0.132-0.467-0.184c-0.146,0.072-0.305,0.113-0.467,0.123
	c-0.05-0.352-0.154-0.693-0.311-1.013c-0.058,0.031-0.122,0.052-0.187,0.061V9.2c0.02,0.026,0.031,0.059,0.031,0.092H10.49
	c-0.039-0.119-0.06-0.243-0.063-0.368h0.031V8.9h0.062c-0.003,0.065,0.034,0.126,0.093,0.153c0.074-0.019,0.14-0.062,0.187-0.123
	c-0.128-0.303-0.212-0.624-0.249-0.951l1.276-0.307c-0.018-0.05-0.018-0.104,0-0.154h0.093c-0.012-0.157-0.043-0.311-0.093-0.46
	c-0.088,0.01-0.064,0.032-0.124,0h-0.035V7.026H11.7V7l0.187-0.031l-0.031-0.276h0.062c0.058,0.09,0.066,0.046,0.187,0.031
	c-0.015-0.354,0.038-0.708,0.156-1.043c0.25-0.007,0.499,0.003,0.747,0.031V1.565C12.958,1.044,12.97,0.519,13.043,0V5.707z
	 M0.498,19.238v-0.123H0.56c0.033-0.014,0.175-0.029,0.249-0.062v0.093C0.691,19.146,0.699,19.22,0.498,19.238z M0.898,19.177
	c0.075,0.017,0.142,0.061,0.187,0.123H1.027c-0.084-0.077-0.12-0.036-0.124-0.124L0.898,19.177z M1.178,19.27
	c0.017,0.016,0.028,0.037,0.031,0.061H1.183v-0.063L1.178,19.27z M0.969,19.482h0.058v0.031C1.005,19.51,0.984,19.499,0.969,19.482z
	"/>
</svg>
