<svg xmlns="http://www.w3.org/2000/svg" width="40" height="40" viewBox="0 0 40 40">
  <defs>
    <style>
      .cls-1 {
        fill: #fff;
        fill-rule: evenodd;
      }
    </style>
  </defs>
  <path id="Color_Fill_1" data-name="Color Fill 1" class="cls-1" d="M9.458,10a0.4,0.4,0,0,1,0,.387V10ZM9.409,17.99a9.7,9.7,0,0,0,1.232.048,1.358,1.358,0,0,0,.1-0.63h0.2v0.1c0.007,0.011.011,0.387,0,.581h0.049v0.048c0.785,0.022,1.116.19,2.02,0.194a0.4,0.4,0,0,1,.049-0.242c0,0.377.354,0.356,0.64,0.242v0.145c-0.429,0-.87-0.022-1.231-0.048v0.145H11.872v0.145l-0.837-.048v0.1h0.246l-0.049,1.211h0.246c-0.011.2,0,.263,0,0.533H12.02c0.019,0.127-.037.063,0.1,0.1-0.009-.194-0.1-0.16.148-0.194V20.17h0.1v0.048h0.049c-0.02.11-.045,0.052,0,0.145a1.592,1.592,0,0,1,.739.1c0.019,0.122-.029.076,0.148,0.1a2.39,2.39,0,0,0-.049-0.339,0.422,0.422,0,0,1,.394-0.1l0.049,0.194c-0.128.013-.1,0-0.1,0.242a3.474,3.474,0,0,0,.837,0,1.028,1.028,0,0,1,.64-0.387,5.756,5.756,0,0,0,.837.048v0.291h0.542a2.158,2.158,0,0,1,.049.63,8.152,8.152,0,0,1,2.463.63V21.719a0.2,0.2,0,0,1,.1-0.048,2.132,2.132,0,0,1,.69.1,3.619,3.619,0,0,0,.936-0.1l0.542,0.048a1.681,1.681,0,0,1-.049.533,3.487,3.487,0,0,1,.64.242,9.064,9.064,0,0,0,1.576,0,33.122,33.122,0,0,0,3.547.049,20.2,20.2,0,0,0,3.3-.049h0.788a20.258,20.258,0,0,0,2.512,0v0.145a37.338,37.338,0,0,1,5.567,0c-0.01-.209-0.059-0.2.246-0.194v0.145L40,22.639v0.678c-1.108-.015-2.734,0-4.236,0a13.588,13.588,0,0,1-2.217-.048c-0.041.157,0.024,0.074-.1,0.145-0.1-.115-2.464.117-3.153,0a13.361,13.361,0,0,0-3.695-.048,2.663,2.663,0,0,0-.493-0.048,9.7,9.7,0,0,1-1.773.048l-2.512.048a0.674,0.674,0,0,0-.049.194,0.969,0.969,0,0,1,0,.436,0.98,0.98,0,0,0-.64,0,4.71,4.71,0,0,1,.985.1c0.37,0.072,1.4-.192,1.576-0.1l0.049,0.145a0.546,0.546,0,0,0,.345-0.049c0.456,0.147,1.039.209,1.527,0.339l1.97,0.194c0.384,0.134.754,0.42,1.182,0.533a7.168,7.168,0,0,1,.443,1.017,0.55,0.55,0,0,0-.443.242c-0.168.258-.129,0.63-0.3,0.872a3.874,3.874,0,0,1-.985.726,9.536,9.536,0,0,1-2.463,1.792L23.4,29.9H11.035a18.876,18.876,0,0,1-3.5-.048H6.847a5.957,5.957,0,0,1-1.724-1.065c-0.4-.279-1.169-0.356-1.379-0.823a0.4,0.4,0,0,1-.3.194,6.124,6.124,0,0,0-.837-1.017c-0.405.379-1.578-.921-1.872-1.065v1.114H0.493V25.884H0.1V25.835H0.049V25.69A0.24,0.24,0,0,0,.2,25.642c-0.122-.063-0.034.021-0.1-0.1a2.393,2.393,0,0,0,.1-1.259H0.1s-0.022.192-.049,0.1V24.334A0.244,0.244,0,0,1,0,24.189l0.443,0.048a1.139,1.139,0,0,0,.049.533l0.049-.678,0.394-.048a2.627,2.627,0,0,1-.1-0.291h0.1V23.511H1.182V23.8H2.069V23.753a0.777,0.777,0,0,1-.246-0.242h0.1c0.048-.012.019-0.038,0.049,0a0.835,0.835,0,0,0,.69.291,5.249,5.249,0,0,1-.049-1.114,0.266,0.266,0,0,0,.2-0.145c-0.147-.161.091-1.11-0.1-1.162-0.1-.027.1-0.048,0.1-0.048a6.8,6.8,0,0,1,.985,0c0,0.234.431,0.169,0.788,0.145v-0.1c0.129-.09.074,0.151,0.148,0.1v-0.1l0.3-.048V20.848c0.3-.447.2-2.706,0.2-3.535h0.2a32.233,32.233,0,0,0,.049,4.019,0.549,0.549,0,0,1,.246.1l1.232-.049L7.34,21.429a3.778,3.778,0,0,1,1.232-.1v-0.1c-0.1-.175-0.062-0.747.246-0.775a0.264,0.264,0,0,0,.3,0h-0.2c-0.045-.89.237-1.789-0.985-1.743a0.254,0.254,0,0,0-.148-0.048,0.869,0.869,0,0,1,.049-0.436c0.127-.365.892-0.26,1.379-0.242a6.7,6.7,0,0,1,.1-1.4c0.14-.639-0.078-1.455.049-2.034,0.144-.655-0.081-1.488.049-2.082,0.115-.524-0.189-1.707.049-2.082C9.46,12.966,9.409,15.507,9.409,17.99Zm0.3,0.145a0.179,0.179,0,0,0,.1.048A0.179,0.179,0,0,0,9.7,18.136Zm4.384,0.194v0.194H14.039a0.432,0.432,0,0,0-.246-0.048V18.329h0.049v0.048A0.786,0.786,0,0,1,14.089,18.329ZM9.409,20.46c0.085,0.043.063,0.043,0.148,0H9.409Zm-5.566.872a0.241,0.241,0,0,1,.148.048A0.241,0.241,0,0,1,3.842,21.332Zm-0.887.145v0.968h0.1V21.768A0.457,0.457,0,0,0,2.956,21.477Zm0.2,0a3.337,3.337,0,0,0,.345.968H3.6V22.01a1.293,1.293,0,0,0,.049-0.533H3.153ZM3.3,21.864a0.241,0.241,0,0,1,.148.048A0.241,0.241,0,0,1,3.3,21.864Zm-0.148.581h0.3V22.4A1.132,1.132,0,0,1,3.2,21.913H3.153v0.533Zm0.3-.29h0.1V22.2A0.171,0.171,0,0,1,3.448,22.155Zm-0.493.387c0.041,0.157-.024.074,0.1,0.145V22.542h-0.1ZM3.6,22.688V22.542H3.153v0.1H3.4A0.336,0.336,0,0,0,3.6,22.688Zm-0.837,0a0.179,0.179,0,0,0,.1.049A0.179,0.179,0,0,0,2.759,22.688Zm-0.049.1a0.6,0.6,0,0,0,.049.194,0.9,0.9,0,0,1,.345,0V22.736H3C2.841,22.9,2.949,22.817,2.709,22.785Zm0.443-.048v0.242h0.2A0.232,0.232,0,0,1,3.4,22.833a0.232,0.232,0,0,0,.049.145A0.309,0.309,0,0,1,3.5,22.785v0.194H3.645V22.736C3.383,22.739,3.357,22.749,3.153,22.736Zm0.542,0.242a0.418,0.418,0,0,0,.246-0.048c-0.13-.037-0.118-0.058-0.246-0.1v0.145Zm1.773,0.63a0.309,0.309,0,0,0-.049-0.194,0.309,0.309,0,0,1-.049.194V23.559c-0.084-.088.041-0.131-0.246-0.145v0.1c0.122,0.063.034-.021,0.1,0.1h-0.2V23.559a0.322,0.322,0,0,0,.049-0.194h-0.2c0.016,0.234.117,0.164,0,.242a4.487,4.487,0,0,1-1.281,0V23.559H3.645c0.09-.082.134,0.04,0.148-0.242H3.5a0.618,0.618,0,0,1-.049.339A0.618,0.618,0,0,0,3.4,23.317c0,0.189.024,0.218-.1,0.291V23.559a0.413,0.413,0,0,0,.049-0.242A0.241,0.241,0,0,1,3.2,23.269H3.35V23.027h-0.2a1.966,1.966,0,0,1-.049.63H3.054V23.22A0.322,0.322,0,0,0,3.1,23.027a4,4,0,0,1-.443,0v0.1a1.01,1.01,0,0,0,.148.387c0-.189-0.024-0.218.1-0.291a0.139,0.139,0,0,0,.049.048,1.846,1.846,0,0,0-.1.63H2.906a2.547,2.547,0,0,1,1.232-.1,21.787,21.787,0,0,0,3.054-.1,1.576,1.576,0,0,0,.985-0.048s-0.193-.009-0.1-0.048h0.1v-0.1a1.146,1.146,0,0,1-.3,0c-0.006.181,0.059,0.118-.148,0.145v-0.1a0.169,0.169,0,0,0,.1-0.048,3.938,3.938,0,0,0-1.429.048,3.478,3.478,0,0,1,1.281.048,16.5,16.5,0,0,1-2.02,0v-0.1c0.164,0.023.243,0.1,0.345-.048H5.665a0.254,0.254,0,0,0-.148-0.048v0.1a0.3,0.3,0,0,1,.1.1H5.468ZM3.4,23.027a0.4,0.4,0,0,0,.049.242A0.4,0.4,0,0,0,3.4,23.027Zm0.1,0v0.242H3.645V23.027H3.5Zm0.69,0.242V23.075a0.17,0.17,0,0,1-.1-0.049,1.1,1.1,0,0,1-.394,0v0.242h0.1A3.149,3.149,0,0,1,4.187,23.269Zm-1.379-.194a0.173,0.173,0,0,1,.049.1H2.808v-0.1Zm1.429,0.048v0.145H4.483l0.049-.1H4.483V23.124H4.236Zm0.345,0a0.179,0.179,0,0,0,.1.048A0.179,0.179,0,0,0,4.581,23.124Zm-0.739.194v0.242a1.821,1.821,0,0,1,.345,0V23.317H3.842Zm0.394,0v0.242H4.483V23.317H4.236Zm0.3,0.048c0.065,0.183-.048.179,0.246,0.194l0.049-.145H4.778V23.366H4.532Zm1.576,0.1c0.016,0.107-.051.052,0.049,0.1A0.165,0.165,0,0,0,6.108,23.463Zm15.32,0.145c-0.041-.157.024-0.074-0.1-0.145a0.179,0.179,0,0,1-.1.048v0.048h0.049A0.254,0.254,0,0,0,21.429,23.608Zm0.1-.145a0.231,0.231,0,0,0,.049.145V23.559a0.174,0.174,0,0,0,.049-0.1h-0.1Zm-15.32.048c0.085,0.043.063,0.043,0.148,0H6.207Zm2.02,0.048a0.2,0.2,0,0,0,.246,0H8.227Zm12.759,0.048a0.179,0.179,0,0,0,.1.048A0.179,0.179,0,0,0,20.985,23.608Zm-12.759.048v0.1a1.493,1.493,0,0,0,.64-0.048ZM8.916,23.7a0.146,0.146,0,0,0,.2,0h-0.2Zm0.345,0c0.085,0.043.063,0.043,0.148,0H9.261Zm0.2,0a0.179,0.179,0,0,0,.1.048A0.179,0.179,0,0,0,9.458,23.7Zm11.33,0.242h0.148V23.753H20.887V23.7a3.378,3.378,0,0,1-.542.048l-0.049.1c-0.084.089,0.054,0.093-.148,0.145a1.277,1.277,0,0,0-.739.048h0.542a1.4,1.4,0,0,0,.788,0V24c-0.187.014-.295,0.072-0.394-0.1a0.174,0.174,0,0,0,.049-0.1h0.049c0.041,0.157-.024.074,0.1,0.145a0.21,0.21,0,0,1,.2,0,0.231,0.231,0,0,1,.049-0.145v0.145Zm0.64-.1V23.7a0.808,0.808,0,0,1-.443,0v0.242h0.1c0.041-.157-0.024-0.074.1-0.145A0.474,0.474,0,0,0,21.429,23.85Zm0.1-.145c0.041,0.157-.024.074,0.1,0.145V23.7h-0.1ZM20.788,24c0.085,0.043.063,0.043,0.148,0H20.788Zm0.2,0a0.179,0.179,0,0,0,.1.048A0.178,0.178,0,0,0,20.985,24ZM1.97,24.044a0.6,0.6,0,0,0,.493,0H1.97ZM0.443,25.061a1.139,1.139,0,0,0,.049.533A1.139,1.139,0,0,0,.443,25.061Zm0.739,1.065v0.1a5.865,5.865,0,0,0,.542.436v-0.1A2.082,2.082,0,0,1,1.182,26.126Zm0.3,0a0.68,0.68,0,0,0,.394.291V26.223a0.174,0.174,0,0,1-.049-0.1H1.478ZM26.8,27.433c-0.187.255-.555,0.329-0.739,0.581h0.1a4.185,4.185,0,0,0,.788-0.581H26.8ZM22.512,28.6a5,5,0,0,1-.3.533h0.64V29.08A3.017,3.017,0,0,1,22.512,28.6Zm-10.049.049a1.172,1.172,0,0,1-.246.484h0.591V29.08C12.658,28.962,12.612,28.761,12.463,28.644Zm-3.35.145a1.308,1.308,0,0,1-.2.339H9.409V29.08A1.52,1.52,0,0,0,9.113,28.789Zm6.7,0-0.2.339h0.493V29.08A1.029,1.029,0,0,0,15.813,28.789Zm3.3,0a1.309,1.309,0,0,1-.2.339h0.493V29.08A1.522,1.522,0,0,0,19.113,28.789Z" transform="translate(0 0.016)"/>
</svg>
