<svg xmlns="http://www.w3.org/2000/svg" width="80" height="40" viewBox="0 0 80 40">
  <defs>
    <style>
      .cls-1 {
        fill: #fff;
        fill-rule: evenodd;
      }
    </style>
  </defs>
  <path id="ussr_skr_pr159_ico" class="cls-1" d="M50.421,20.372V21.2a2.593,2.593,0,0,1,.25.165V21.322c0.028-.032.055-0.092,0.083-0.124a0.15,0.15,0,0,0,.083.041c0,0.15-.014.149,0.166,0.207a1.143,1.143,0,0,0,.375-0.289H51.42v0.165c-0.083,0-.012-0.042-0.083,0a0.706,0.706,0,0,1-.042.331c0.412,0.005.514-.006,0.79,0l0.042-.62a6.047,6.047,0,0,1,1.581-.041V21.2c-0.135.034-.064-0.02-0.125,0.083h0.125v0.248H53.5a0.2,0.2,0,0,1-.042.124V21.529H53.125a0.4,0.4,0,0,0,.166.372,0.265,0.265,0,0,1,.208.041,0.118,0.118,0,0,1-.042.041,1.469,1.469,0,0,1-.208.124,0.142,0.142,0,0,0,.042.083,1.149,1.149,0,0,0,.374.248H53.625v0.041h0.832a0.151,0.151,0,0,1,.083-0.041v-0.95h0.042a1,1,0,0,0,.707.083s-0.016-.145.042-0.083a0.6,0.6,0,0,0,.333.083,0.79,0.79,0,0,0,.25.248,0.749,0.749,0,0,1,.042-0.372v0.992L56.5,22.4V22.025a0.881,0.881,0,0,1-.416-0.041H56.5V21.57a0.879,0.879,0,0,1-.416-0.041,0.718,0.718,0,0,0,.458-0.083V22.4h0.042v0.041a0.821,0.821,0,0,0-.458.165,2.331,2.331,0,0,1,.166.578,16.523,16.523,0,0,0,.707,2.231,0.453,0.453,0,0,0,.25.041V25.248a0.269,0.269,0,0,1-.166-0.041h0.166V24.752a0.763,0.763,0,0,1-.374-0.041,1.31,1.31,0,0,0,.416-0.041v0.537a0.2,0.2,0,0,1,.125.041H57.286v0.207a0.143,0.143,0,0,1,.083.041,2.681,2.681,0,0,1,.874-0.124v0.041H58.2c-0.08.032,0.083,0.041,0.083,0.041,0.077-.131.118-0.129,0.333-0.124V25.124a0.35,0.35,0,0,1-.208-0.041h0.208V24.752l-0.25-.041a0.141,0.141,0,0,0-.042-0.083,15.9,15.9,0,0,0,.042-2.355c0.279-.183.569-0.4,0.874-0.579,0.561,0.091,1.581-.091,2.2-0.041a2.552,2.552,0,0,1,.79.372c0.029-.152,0-0.113.125-0.165a0.117,0.117,0,0,1,.042-0.041v0.207h0.208a0.118,0.118,0,0,0,.042.041v0.372c0.067,0.022.492,0.338,0.333,0.413h1.789v0.124H63.027v0.041c0.266,0.37.134,1.126,0.79,1.116a1.8,1.8,0,0,1,.749-0.083v0.041H64.524c-0.08.032,0.083,0.041,0.083,0.041,0.253-.406.842-0.165,0.915-0.579-0.105-.016-0.066.024-0.083-0.124,0.124-.166.12-0.458,0.25-0.62a4.282,4.282,0,0,1,1.331-.083l0.333,0.785a3.7,3.7,0,0,1,.957-0.124,0.118,0.118,0,0,1-.042.041c0.035,0.49-.522.473-0.166,1.157a3.1,3.1,0,0,1,.957-0.124q-0.021-.372-0.042-0.744a0.442,0.442,0,0,1-.25-0.041h0.374v0.041a0.76,0.76,0,0,0-.042.372,0.65,0.65,0,0,1,.333.041H69.1v0.331h0.042a1.346,1.346,0,0,1,.458,0V24.38a1.472,1.472,0,0,1,.458.041V24.339h0.25a0.446,0.446,0,0,1,.042-0.289H69.974V24.008l0.749-.041V23.554a0.27,0.27,0,0,1-.166-0.041h0.333v0.041a0.752,0.752,0,0,0-.083.579c0.2-.013.141-0.1,0.208,0,0.121,0.053.086-.047,0.125,0.124h0.166a2.341,2.341,0,0,1,.208-0.289h0.042V23.926c-0.091-.02-0.072,0-0.083-0.041a2.959,2.959,0,0,1,.125-0.413,0.351,0.351,0,0,1-.208-0.041c0.221-.044.4-0.2,0.624-0.248v0.041c-0.1.053-.028-0.018-0.083,0.083h0.291c0.44,0.266,1.81-.185,2.246.083h-2a1.394,1.394,0,0,0,.042.331h0.042c0.1-.1.1-0.056,0.291-0.041C73,23.93,73.1,23.9,73.469,23.884V23.76a0.181,0.181,0,0,0,.125-0.124h0.042v0.041a0.444,0.444,0,0,1,.042.248h0.042V23.884c0.5,0.14.79-.383,1.206-0.537l1.414-.124,2.871-.372a1.853,1.853,0,0,1,.25-0.537H79.5V22.4a0.826,0.826,0,0,0-.208.454l0.374-.041a8.586,8.586,0,0,0,.25-1.116H79.875v0.041a0.476,0.476,0,0,0-.083.124H79.75V21.777a0.723,0.723,0,0,0,.166-0.331h0.042V21.57c-0.145.315,0.132,1.114,0,1.57a22.334,22.334,0,0,1-.874,2.273c-0.523,1.255-.863,2.575-1.373,3.8-0.319.767-.425,1.806-1.04,2.273-1,.755-3.617.537-5.367,0.537h-1.5a11.762,11.762,0,0,1-2.246.041H48.674v0.083a4.021,4.021,0,0,1,.125.413c0.062,0.118.22,0.255,0.291,0.372a1.323,1.323,0,0,1,.125,1.033c-0.388,1.148-2.1,1-3.619.992a17.827,17.827,0,0,1-4.7-.7,16.281,16.281,0,0,1-2.33-.578l0.042-.124,3-.7a0.869,0.869,0,0,0,.208-0.826H40.1a9.019,9.019,0,0,1-2.08.041H32.533l-16.225.083H11.524a7.069,7.069,0,0,1-1.872.083,0.59,0.59,0,0,0,.042.207c-0.132,0-.056-0.07-0.125.041a0.367,0.367,0,0,1,.083.455,0.482,0.482,0,0,1-.291.083,4.055,4.055,0,0,1-.208-0.661A2.31,2.31,0,0,0,8.2,32.149a1.432,1.432,0,0,1-.957.124L7.28,32.438c-0.132,0-.056-0.07-0.125.041a0.469,0.469,0,0,1,.166.5,0.491,0.491,0,0,1-.166.165,0.454,0.454,0,0,1-.25.041,1.51,1.51,0,0,1-.25-0.455c-0.041-.174.036-0.243,0-0.372l-0.582-.083c-0.4.632-1.467,0.189-2,.041,0.017,0.094.038,0.045,0,.124C3.985,32.35,4.065,32.393,3.952,32.4a0.259,0.259,0,0,0-.083-0.207,0.363,0.363,0,0,0,.125-0.248L4.119,31.9v0.165a0.2,0.2,0,0,0,.125-0.041,0.761,0.761,0,0,0,.042-0.372,4.871,4.871,0,0,1-.166-1.4H3.536c-0.41-.245-1.555.1-1.955-0.165A7.619,7.619,0,0,1,.832,28.76a6.907,6.907,0,0,1-.79-1.322,4.139,4.139,0,0,1,0-1.074H0.208v-0.5a0.352,0.352,0,0,1-.166-0.124H0.208V25.537A0.2,0.2,0,0,1,.083,25.5c0.036-.078.02-0.03,0-0.124H0.291V25.207c0.135-.034.064,0.02,0.125-0.083A1.166,1.166,0,0,1,.374,24.5c-0.09-.422-0.069-0.98-0.166-1.4-0.1-.455.047-0.935-0.083-1.322H0.208v0.454a3.725,3.725,0,0,1,.083.95c0.2,0.9.124,1.944,0.374,2.645a3.947,3.947,0,0,1,.582-0.083,0.59,0.59,0,0,0-.042-0.207H1.539v0.207H1.622a1.2,1.2,0,0,1,.25,0,0.344,0.344,0,0,1,.042-0.207v0.207c0.4,0,.567.032,0.957,0.041a0.343,0.343,0,0,0,.042-0.248,2.074,2.074,0,0,0,.416-0.124,0.559,0.559,0,0,0,.291.207,1.1,1.1,0,0,0,.042.661,0.464,0.464,0,0,0,.333.124l0.083-.248a1.208,1.208,0,0,1,.333,0,0.434,0.434,0,0,1,.541-0.537,0.726,0.726,0,0,1,.25.289c0.048,0.168-.15.333-0.083,0.372,0.055,0.139.064,0.12,0.25,0.124a0.454,0.454,0,0,0,.25.041A0.235,0.235,0,0,1,5.658,26.2v0.124H5.783a1.47,1.47,0,0,1,.042-0.62v0.62H6.115a1.317,1.317,0,0,1,.333-0.248,2.47,2.47,0,0,0,.5-0.785,1.791,1.791,0,0,0,.5-0.165c-0.015.122-.083,0.085,0.042,0.165,0.061-.152.115-0.167,0.333-0.165,0,0.131-.07.056,0.042,0.124a0.272,0.272,0,0,1,.208-0.124c-0.015.122-.083,0.085,0.042,0.165a0.206,0.206,0,0,1,.208-0.165c-0.015.122-.083,0.085,0.042,0.165,0.042-.152.027-0.145,0.208-0.165-0.024.122-.085,0.128,0.042,0.207V25.289H8.653a0.328,0.328,0,0,1,0-.165,4.821,4.821,0,0,0,1.165-.289c0,0.1.021,0.071,0.042,0.248-0.121,0-.058-0.04-0.125,0H9.776c0.041,0.042-.041.041-0.042,0.041a1.067,1.067,0,0,1-.333.165,0.471,0.471,0,0,1-.083.331,0.521,0.521,0,0,0-.042-0.165H9.152a0.59,0.59,0,0,0,.042.207H9.028l-0.042-.124c0.1-.053.028,0.018,0.083-0.083H8.944L8.9,25.579a0.445,0.445,0,0,0-.042.248,0.3,0.3,0,0,0,.291-0.041v0.124a2.383,2.383,0,0,0,0,.62H9.236a0.262,0.262,0,0,1,.208-0.289c0.017,0.108.067,0.089,0.291,0.083a0.374,0.374,0,0,0,.208.083v-0.62h0.083v0.744l1.623,0.041q0.021-.392.042-0.785h0.083v0.579a4.928,4.928,0,0,1,.541,0,0.721,0.721,0,0,1-.083.207H12.9a1.971,1.971,0,0,1,.042-0.785v0.826c0.513,0,.654,0,1.123,0V25.785h0.083v0.041c0.042,0.041.041-.041,0.042-0.041a2.115,2.115,0,0,0,.042-0.826,0.857,0.857,0,0,1,.208-0.083V24.711H14.311V24.256H14.6a1.353,1.353,0,0,1,.042.413c-0.114.066-.1,0.037-0.125,0.207h0.624a0.266,0.266,0,0,1,.042-0.165V25a0.539,0.539,0,0,1,.25.165,0.365,0.365,0,0,1,.374-0.083c-0.027.626,0,1.356,0.583,1.364v0.165a0.767,0.767,0,0,0,.25.041,2.221,2.221,0,0,1,.042-0.868v0.868A5.553,5.553,0,0,0,18.3,26.57H17.681a0.933,0.933,0,0,0-.666-0.207,1.685,1.685,0,0,1-.042-0.5,4.184,4.184,0,0,0,.458-1.2H15.684V24.546h0.083a7.458,7.458,0,0,1,1.706,0,0.9,0.9,0,0,1,.166-0.372l0.166-.041c0.183-.236-0.192-0.395.25-0.413V23.512h0.083a1.07,1.07,0,0,1,.125.207,2.628,2.628,0,0,1,.458-0.331,6.251,6.251,0,0,1,.749,0c0.908-.18,2.416.046,2.663,0.578v0.661a5.291,5.291,0,0,1,0,1.24h2.746V25.661a2.794,2.794,0,0,0-.666.041,0.529,0.529,0,0,0-.166-0.248,0.458,0.458,0,0,0,.125-0.331,2.351,2.351,0,0,1,.5.041V24.917a1.817,1.817,0,0,0,.541.041l0.042,0.207h0.042V25.124A0.21,0.21,0,0,0,25.335,25h0.25v0.207h0.042a0.213,0.213,0,0,1,.125-0.041c0.035-.134-0.02-0.063.083-0.124,0,0.162,0,.155.042,0.165a5.4,5.4,0,0,1,1.331-.041,4.346,4.346,0,0,0,1.706.041v0.5H28.872a5.846,5.846,0,0,0-1.415-.041l-0.042.248h2.246V25.95H28.747v0.455h2.2v-0.5a2.267,2.267,0,0,1-.874-0.041h1.29a0.118,0.118,0,0,1,.042-0.041,10.7,10.7,0,0,1,.416-1.529,1.037,1.037,0,0,0,.208-0.165h0.333a0.52,0.52,0,0,1-.042.165h0.083a11.007,11.007,0,0,1,1.206-.207V23.926a0.285,0.285,0,0,1-.166-0.083c-0.131.055-.2,0.121-0.333,0.165V23.967a1.461,1.461,0,0,1,.125-0.124,0.434,0.434,0,0,1,.25-0.083,1.694,1.694,0,0,0,.333.331c0.225-.137.986-0.051,1.165-0.165A1.784,1.784,0,0,1,35.32,23.6a4.764,4.764,0,0,0,1-.413V15.5H36.36v7.645H36.4a4.355,4.355,0,0,1,1.04-.661,3.276,3.276,0,0,0,.5,1.736,5.139,5.139,0,0,0,.125.909,1.644,1.644,0,0,1,.666-0.041,1.592,1.592,0,0,0-.042-0.661c-0.056-.182-0.13-0.21-0.374-0.207l-0.042.248H38.19V24.422a0.729,0.729,0,0,0,.083-0.331,1.454,1.454,0,0,0,.374.041,2.062,2.062,0,0,1,.333.909,0.14,0.14,0,0,1,.125,0l0.125,0.826a2.779,2.779,0,0,1,1.04.041H39.688v0.124a0.441,0.441,0,0,1,.374.041,1.844,1.844,0,0,1,0,.289h0.5v-0.5a0.27,0.27,0,0,1-.166-0.041h0.541c0.091-.4.345-0.752,0.458-1.116V24.132a9.881,9.881,0,0,1,.042-1.694h0.083a1.264,1.264,0,0,1,.541-0.041,4.337,4.337,0,0,0-.083-0.95,1.556,1.556,0,0,0,0-.62,1.089,1.089,0,0,0-.166-0.083h0.125a3.3,3.3,0,0,0,0-.372,0.86,0.86,0,0,0-.208-0.083,0.151,0.151,0,0,1-.083.041V20.124a0.277,0.277,0,0,1-.042-0.165,3.364,3.364,0,0,0,.374,0V19.835a0.27,0.27,0,0,1-.166-0.041,0.789,0.789,0,0,0,0-.744c0.157-.006.146,0.019,0.208-0.083a1.612,1.612,0,0,1-.042-0.331H41.851l-0.042-.165h0.125a4.425,4.425,0,0,1,.042-0.62H41.394c0.107-.76-0.529-0.924-0.832-1.364h0.083a0.315,0.315,0,0,0,.208.165,1.438,1.438,0,0,0-.25-0.826V15.785H40.562v0.041c-0.084.068,0.029,0.048-.083,0.083V15.868H40.437v0.041h0.042c0.08,0.032-.083.041-0.083,0.041V15.909H40.354V15.95H40.4c0.08,0.032-.083.041-0.083,0.041V15.95H40.27v0.041c-0.085.068,0.029,0.048-.083,0.083V16.033H40.146c0.017,0.094.038,0.045,0,.124a7.1,7.1,0,0,0-.915-0.826,1.472,1.472,0,0,1-.416-0.124,0.6,0.6,0,0,0,.208-0.041,1.1,1.1,0,0,1,.042-0.5v0.041h0.042a0.846,0.846,0,0,0,0,.5c0.272,0.033.4,0.163,0.666,0.207V15.248h0.042a1.311,1.311,0,0,0,1,.5V15.165h1.082v-0.62a1.22,1.22,0,0,0-.208-0.165,1.535,1.535,0,0,1-1.248.207,0.754,0.754,0,0,1-.042-0.248l0.166-.5a4.415,4.415,0,0,1,1.165-.041,0.311,0.311,0,0,0,.166.207,1,1,0,0,1,.707-0.041V13.8a1.387,1.387,0,0,1,.666-0.248V13.6H43.183a1.471,1.471,0,0,0,.374.661,0.427,0.427,0,0,1-.25.289c-0.144.015-.329-0.152-0.624-0.165a2.131,2.131,0,0,0-.125.785h0.874v1.2h1.706v0.083H44.68a0.2,0.2,0,0,1-.042.124,0.263,0.263,0,0,0-.208-0.124,0.2,0.2,0,0,1-.042.124c-0.069-.1-0.007-0.041-0.125,0-0.035-.134.02-0.063-0.083-0.124a0.2,0.2,0,0,1-.042.124,2.237,2.237,0,0,0-1.29-.083,7.008,7.008,0,0,1,.333,1.322,0.862,0.862,0,0,0,.624-0.083h-0.25V17.479h0.208V17.355H43.682a0.453,0.453,0,0,0-.25-0.041v-0.5h0.791c0,0.258,0,.279,0,0.537a0.894,0.894,0,0,0-.208.083v0.041h0.25v0.248h-0.25V17.81a0.351,0.351,0,0,1,.208.041,1.079,1.079,0,0,0-.832.579A10.628,10.628,0,0,0,43.6,19.5h0.832V19.215a0.273,0.273,0,0,1-.208-0.083l0.25,0.041V18.1a0.458,0.458,0,0,0-.458.289H43.973V18.306c0.221-.223.832-0.481,1,0H44.93a0.467,0.467,0,0,0-.416-0.207v1.074a1.522,1.522,0,0,0,.374-0.124v0.041H44.847v0.041a1.043,1.043,0,0,1-.291.083,0.451,0.451,0,0,1,0,.331,4.677,4.677,0,0,1-.832.248,8.7,8.7,0,0,0,.416,1.777,1.1,1.1,0,0,0,.541.165,0.294,0.294,0,0,0,.083-0.165c-0.158-.021-0.175-0.058-0.333-0.083V20.455h0.582a3.257,3.257,0,0,0,0-.578c-0.207-.29-0.149-0.47.333-0.454a1.186,1.186,0,0,1,.042.372c-0.083,0-.012-0.042-0.083,0a0.148,0.148,0,0,1,.042.083c-0.121,0-.058-0.04-0.125,0a1.845,1.845,0,0,1,0,.289,0.527,0.527,0,0,1,.166.041,0.849,0.849,0,0,0-.083.207,2.41,2.41,0,0,0,.666.041A0.715,0.715,0,0,1,46.219,20a0.663,0.663,0,0,1,.333-0.041,0.55,0.55,0,0,0,.374.454,0.347,0.347,0,0,0,.083-0.124c-0.054-.023-0.031,0-0.042-0.041a1.077,1.077,0,0,0,.125-0.207h0.083a0.52,0.52,0,0,1-.042.165,0.534,0.534,0,0,1,.166.041,1.061,1.061,0,0,0-.125.165H47.26c0.032-.028.093-0.054,0.125-0.083a0.277,0.277,0,0,0,.042-0.165,0.268,0.268,0,0,0,0-.248,3.1,3.1,0,0,0-.832-0.041V19.835h0.832c0.124,0.059.006,0.157,0.166,0.124a0.859,0.859,0,0,0,.25-0.165V19.752h-1.5a3.933,3.933,0,0,0-.25-1.033h0.749V18.347h-0.25l-0.042-.124a0.373,0.373,0,0,1,0-.454,1.943,1.943,0,0,1,.333-0.041c0.189-.056.492-0.213,0.707-0.289,0.308-.11.759,0.194,0.874,0.083a1.216,1.216,0,0,0,.375-0.579h0.042v0.5a5.127,5.127,0,0,1,0,.661c0.113,0.087.168,0.208,0.291,0.289-0.049.11,0.037,0.074-.083,0.124a0.118,0.118,0,0,0-.042-0.041v0.041H49.09c0.08,0.032-.083.041-0.083,0.041a0.118,0.118,0,0,0-.042-0.041v0.041h0.042c0.08,0.032-.083.041-0.083,0.041V18.554H48.882V18.6a4.707,4.707,0,0,1,0,.537H48.84V19.091a1.73,1.73,0,0,1-.333-0.579H48.341l-0.042.124a0.356,0.356,0,0,0-.042.207,0.225,0.225,0,0,1,.125.165c-0.058.009,0.017-.034-0.042-0.041-0.032-.079-0.042.083-0.042,0.083a2.4,2.4,0,0,1,.042.5v0.041a1.954,1.954,0,0,1,.832-0.124v0.207l-0.291-.041c0,0.19-.132.147-0.416,0.124v0.041c0.156,0.127.291,0.539,0.416,0.62h1c0.049-.715.041-1.575,0.042-2.355H49.88c-0.077.126-.035,0.1-0.166,0.083v0.041h0.042c0.08,0.032-.083.041-0.083,0.041a0.118,0.118,0,0,0-.042-0.041v0.041h0.042c0.08,0.032-.083.041-0.083,0.041a0.157,0.157,0,0,0-.166-0.124V17.934c0.1-.043.154-0.087,0.25-0.124a0.766,0.766,0,0,0,.25.165V5h0.042V19.422a1.9,1.9,0,0,1,.083.992h0.042A0.662,0.662,0,0,1,50.421,20.372ZM39.48,10.992a0.7,0.7,0,0,1,.083.455,0.118,0.118,0,0,1-.042-0.041c-0.058-.009.017,0.034-0.042,0.041-0.032.079-.042-0.083-0.042-0.083,0.1-.053.028,0.018,0.083-0.083C39.392,11.2,39.456,11.148,39.48,10.992Zm-0.166,2.686a1.463,1.463,0,0,1-.166.5H39.106v-0.5a2.007,2.007,0,0,0,.083-0.744H39.48a0.425,0.425,0,0,0-.125-0.289,4.827,4.827,0,0,0,.125-1.2,0.149,0.149,0,0,1,.042.083,1.13,1.13,0,0,1,.083.579c-0.058.009,0.017-.034-0.042-0.041-0.032-.08-0.042.083-0.042,0.083,0.089,0.176,0,1.307.125,1.653H39.563C39.49,13.664,39.5,13.7,39.314,13.678Zm0-.909H39.4V12.81H39.355v0.041A0.148,0.148,0,0,1,39.314,12.769Zm5.325,0.62L44.6,13.76H44.555V13.678a1.3,1.3,0,0,1-.125-0.289,2.416,2.416,0,0,1-.915.083,7.315,7.315,0,0,0,.79-0.165A1.02,1.02,0,0,1,44.639,13.388Zm-1.331.124a0.35,0.35,0,0,1,.208.041A0.35,0.35,0,0,1,43.307,13.512Zm-3.7.331a0.544,0.544,0,0,1,.042.289H39.6V14.091A0.245,0.245,0,0,1,39.6,13.843Zm4.7,0.041h0.083v0.041A0.143,0.143,0,0,1,44.306,13.884Zm-5.242.289a0.653,0.653,0,0,1,0,.5v-0.5Zm0.541,0h0.083v0.289H39.6A1.253,1.253,0,0,1,39.6,14.174Zm0.042,0.579a0.827,0.827,0,0,1,.042-0.289H39.73c0,0.36.041,0.393,0.042,0.785H39.73a1.145,1.145,0,0,0-.083-0.413,2.024,2.024,0,0,1-.333-0.041V14.752h0.333Zm-0.291.207h0.083V15H39.355V14.959Zm-0.208.124H39.23v0.041A0.143,0.143,0,0,1,39.147,15.083Zm1.706,0.124v0.579a5.133,5.133,0,0,1,.874-0.165V15.248a1.724,1.724,0,0,0-.5-0.041A0.514,0.514,0,0,1,40.853,15.207Zm2.454,0.041v0.5h0.083v-0.5H43.307Zm-3.078.95a0.527,0.527,0,0,1,.291.248A0.528,0.528,0,0,1,40.229,16.2Zm1.456,0.248c0.05,0.121-.032.058-0.125,0.041,0,0.107-.044.537-0.042,0.826a2.7,2.7,0,0,0,.5.372V17.479a1.663,1.663,0,0,1-.042-0.454c-0.118,0-.016.033-0.125-0.041a0.424,0.424,0,0,0,0-.537A0.143,0.143,0,0,1,41.685,16.446Zm7.239,1.033h0.083v0.041A0.142,0.142,0,0,1,48.924,17.479Zm0.083,0.041H49.09v0.041A0.143,0.143,0,0,1,49.007,17.521Zm0.083,0.041h0.083V17.6A0.143,0.143,0,0,1,49.09,17.562ZM49.173,17.6h0.083v0.041A0.142,0.142,0,0,1,49.173,17.6Zm0.083,0.041H49.34v0.041A0.142,0.142,0,0,1,49.256,17.645Zm0.083,0.041h0.083v0.041A0.143,0.143,0,0,1,49.34,17.686Zm0.083,0.041h0.083v0.041A0.143,0.143,0,0,1,49.423,17.727Zm0.083,0.041h0.083V17.81A0.143,0.143,0,0,1,49.506,17.769Zm-7.28.124a1.668,1.668,0,0,0,.333.33c0.277,0.256.241-.058,0.5-0.248V17.934H42.475A0.453,0.453,0,0,0,42.226,17.893ZM43.1,18.017a1.594,1.594,0,0,1-.333.413,1.275,1.275,0,0,0,.582.578V18.843C43.2,18.625,43.255,18.229,43.1,18.017Zm-0.874.041v0.95h0.042a3.111,3.111,0,0,0,.374-0.578Zm7.28,0.165c0.088,0.12.014,0.066-.083,0.207H49.381V18.388H49.34V18.347A0.225,0.225,0,0,0,49.506,18.223Zm-4.535.083a0.573,0.573,0,0,1,.083.578H45.013V18.76A0.555,0.555,0,0,0,44.971,18.306Zm-1.04.083c0.075,0.138-.034.268,0.042,0.455l0.25,0.289H44.139A0.8,0.8,0,0,1,43.931,18.388Zm5.325,0,0.125,0.041v0.041A0.158,0.158,0,0,1,49.256,18.388Zm-0.083.041h0.083v0.041A0.143,0.143,0,0,1,49.173,18.43Zm-6.49.124-0.416.579c0.435,0,.613.08,1.04,0.083V19.132A4.423,4.423,0,0,0,42.683,18.554Zm3.744,0.207,0.083,0.455h0.5V19.132a0.574,0.574,0,0,1-.166-0.372H46.428Zm1.04,0.413a0.2,0.2,0,0,0,.125-0.041,2.159,2.159,0,0,1-.083-0.331H47.468v0.372Zm-2.5-.289c0.036,0.078.02,0.03,0,.124H44.93Zm1.581,0.372,0.083,0.413h0.458V19.587a0.649,0.649,0,0,1-.042-0.331h-0.5Zm0.666,0v0.165H47.093l0.042,0.248h0.333l0.042-.413H47.218Zm-4.41.083a0.432,0.432,0,0,0,.125.455,1.532,1.532,0,0,1,.416-0.413V19.339H42.808Zm0.624,0.041-0.374.413a0.443,0.443,0,0,0,.291.041l0.042-.124A0.265,0.265,0,0,0,43.432,19.38Zm36.485,0.207a0.148,0.148,0,0,1,.042.083H79.917V19.587ZM43.1,19.917v0.165a3.844,3.844,0,0,0,.624.455V20.331a1.261,1.261,0,0,1-.125-0.413H43.1Zm-0.291.124a7.659,7.659,0,0,0-.582.661H43.64V20.62A3.982,3.982,0,0,0,42.808,20.041Zm-0.5.744a2.238,2.238,0,0,0,.957.413,1.677,1.677,0,0,1,.416-0.372V20.785H42.309Zm1.5,0.124-0.208.455,0.374,0.124V21.322A3.771,3.771,0,0,0,43.807,20.909Zm-1.581.165,0.208,0.62H42.392V21.612a0.771,0.771,0,0,1-.125-0.207H42.226v0.661h0.042c0.053-.082.164-0.133,0.208-0.207-0.028-.088-0.051-0.087,0-0.165,0.018,0.047.048,0.194,0.083,0.083,0.061-.039.2-0.119,0.125-0.165A0.944,0.944,0,0,0,42.226,21.074Zm0.208,0c0.094,0.188.235,0.31,0.333,0.5H42.85l0.125-.165A2.166,2.166,0,0,0,42.434,21.074Zm8.653,0.041a0.148,0.148,0,0,1,.042.083H51.087V21.116Zm-0.042.083a0.148,0.148,0,0,1,.042.083H51.045V21.2Zm-8.029.289a0.482,0.482,0,0,0-.125.248,1.22,1.22,0,0,0,.208.165,0.49,0.49,0,0,1,.208-0.083,0.58,0.58,0,0,0,.042-0.165A1.65,1.65,0,0,0,43.016,21.488Zm0.957,0.165a1.331,1.331,0,0,1-.291.124,0.118,0.118,0,0,0,.042.041,0.781,0.781,0,0,0,.416.248V21.984a0.6,0.6,0,0,1-.083-0.331H43.973Zm0.208,0.041a2.588,2.588,0,0,0,.166.661c0.115-.025.025,0,0.083-0.083a0.278,0.278,0,0,0,.333.041,0.722,0.722,0,0,0,.166-0.331A4.471,4.471,0,0,0,44.181,21.694Zm9.236,0.041a0.21,0.21,0,0,1,.042.124H53.417V21.736Zm-10.151.455a1.166,1.166,0,0,0,.749-0.083,3.843,3.843,0,0,0-.541-0.289,0.321,0.321,0,0,0-.125.124A0.428,0.428,0,0,0,43.266,22.19Zm36.443-.331a0.756,0.756,0,0,1-.166.454H79.5V22.231A1.459,1.459,0,0,0,79.709,21.86ZM44.6,21.942a0.15,0.15,0,0,1,.042.083H44.6V21.942Zm-0.042.083a0.149,0.149,0,0,1,.042.083H44.555V22.025Zm-0.042.083a0.15,0.15,0,0,1,.042.083H44.514V22.107Zm-0.042.083a0.149,0.149,0,0,1,.042.083H44.472V22.19Zm26.5,1.281a0.65,0.65,0,0,1,.333.041A0.65,0.65,0,0,1,70.972,23.471Zm-0.874.083a0.764,0.764,0,0,1,.374.041A0.762,0.762,0,0,1,70.1,23.554Zm-0.416.041a0.649,0.649,0,0,1,.333.041A0.649,0.649,0,0,1,69.683,23.6Zm-0.458.041a0.762,0.762,0,0,1,.374.041A0.764,0.764,0,0,1,69.225,23.636Zm-0.915.083a0.764,0.764,0,0,1,.374.041A0.762,0.762,0,0,1,68.31,23.719Zm2.579,0.207a0.882,0.882,0,0,1,.416.041A0.879,0.879,0,0,1,70.889,23.926Zm-1.373.124a0.763,0.763,0,0,1,.374.041A0.763,0.763,0,0,1,69.516,24.05Zm-0.915.083a0.88,0.88,0,0,1,.416.041A0.88,0.88,0,0,1,68.6,24.132Zm-0.5.041a0.879,0.879,0,0,1,.416.041A0.881,0.881,0,0,1,68.1,24.174Zm-10.276.454a0.881,0.881,0,0,1,.416.041A0.881,0.881,0,0,1,57.826,24.628Zm-0.5.041a0.881,0.881,0,0,1,.416.041A0.879,0.879,0,0,1,57.327,24.669Zm0.624,0.455a0.762,0.762,0,0,1,.374.041A0.764,0.764,0,0,1,57.951,25.124Zm-0.458.041a0.763,0.763,0,0,1,.374.041A0.763,0.763,0,0,1,57.494,25.165Zm-40.6,1.157h0.083v0.041A0.142,0.142,0,0,1,16.89,26.322ZM6.115,30.331L5.907,31.984H5.949a3.806,3.806,0,0,0,.624-0.372c0.106-.265-0.253-0.819.374-0.826a0.15,0.15,0,0,0,.083.041,0.917,0.917,0,0,1,.125.5,0.871,0.871,0,0,0-.166.248H7.072A0.369,0.369,0,0,1,7.2,31.446V31.57a0.149,0.149,0,0,0-.042.083H7.239A0.991,0.991,0,0,0,7.7,31.24a0.785,0.785,0,0,0,.083-0.5,0.633,0.633,0,0,0-.707-0.331A4.059,4.059,0,0,0,6.115,30.331Z" transform="translate(0 -0.063)"/>
</svg>
