<?xml version="1.0" encoding="utf-8"?>
<!-- Generator: Adobe Illustrator 16.0.0, SVG Export Plug-In . SVG Version: 6.00 Build 0)  -->
<!DOCTYPE svg PUBLIC "-//W3C//DTD SVG 1.1//EN" "http://www.w3.org/Graphics/SVG/1.1/DTD/svg11.dtd">
<svg version="1.1" id="Layer_1" xmlns="http://www.w3.org/2000/svg" xmlns:xlink="http://www.w3.org/1999/xlink" x="0px" y="0px"
	 width="40px" height="40px" viewBox="0 0 40 40" enable-background="new 0 0 40 40" xml:space="preserve">
<path id="ussr_t_80u_ico" fill="#FFFFFF" d="M10.424,15.605c0.084,0.022,0.04-0.013,0.078,0.053c-0.021,0.039-0.03,0.085-0.026,0.13
	c0.106-0.015,0.206-0.06,0.287-0.13c0.135-0.043,0.275-0.068,0.417-0.078c0.194,0.027,0.386,0.071,0.573,0.131l-0.052,0.418
	l0.339-0.052c-0.007-0.062-0.007-0.122,0-0.183h0.078c0.174,0.07,0.367,0.08,0.547,0.025c0.129-0.098,0.181-0.267,0.13-0.42h0.5
	v-0.077h0.1c0.029,0.099,0.083,0.188,0.156,0.261c0.023-0.016,0.05-0.025,0.078-0.025c0-0.028,0.009-0.056,0.026-0.078
	c0.075-0.049,0.154-0.092,0.235-0.131c0.032,0.081,0.01,0.059,0.1,0.078c0.153-0.124,0.351-0.181,0.547-0.157v0.078h0.078
	c-0.013-0.14-0.013-0.279,0-0.418c0.053-0.036,0.117-0.056,0.182-0.052v-0.156c0.045-0.033,0.1-0.051,0.156-0.053
	c0.155,0.063,0.331,0.043,0.469-0.052c0.017-0.022,0.026-0.05,0.026-0.077c0.152-0.021,0.239-0.106,0.417-0.132
	c0-0.045,0.009-0.089,0.026-0.131c0.08,0.044,0.174,0.054,0.261,0.026v-0.548H16c-0.032-0.172-0.041-0.348-0.026-0.522
	c0.019-0.031,0.028-0.067,0.026-0.104c0.26,0,0.479-0.038,0.677-0.052c0.021,0.1,0.083,0.2,0.1,0.287l-0.052,0.392
	c-0.139,0.017-0.278,0.025-0.417,0.026c-0.032,0.172-0.041,0.348-0.026,0.522c0.358,0.01,0.741,0.017,1.095,0
	c0.08,0.164,0.271,0.243,0.443,0.183v-0.053c-0.063-0.007-0.125-0.024-0.182-0.052h0.026c0.11-0.033,0.226-0.042,0.339-0.026
	c0.006,0.011,0.016,0.02,0.026,0.026c-0.005,0.044,0.004,0.09,0.026,0.13c0.118,0.034,0.243,0.043,0.365,0.025l2.346,0.101
	c-0.001-0.028,0.008-0.056,0.025-0.078c0.022-0.017,0.05-0.026,0.078-0.026c0.057,0.025,0.12,0.034,0.182,0.026v0.078
	c0.469,0,0.822,0,1.251,0v0.183c-0.556-0.006-1.211-0.076-1.85-0.078v0.1c-0.235,0.025-0.472,0.008-0.7-0.051v0.1
	c-0.6,0-1.171,0-1.746,0v0.078c-0.241,0.01-0.53,0.025-0.808,0.025c0.031,0.233,0.092,0.462,0.182,0.68h-0.051
	c-0.362,0.154-0.764,0.189-1.147,0.1v-0.061c-0.083-0.017-0.167,0.002-0.235,0.052c0.083,0.039,0.142,0.118,0.156,0.209
	c-0.069,0.092-0.114,0.199-0.13,0.313H16.1v0.078h0.078v-0.1c0.375,0.024,0.75,0.008,1.12-0.052
	c0.014,0.014,0.023,0.031,0.026,0.052l-0.026,0.026h0.052c0.175-0.07,0.359-0.114,0.547-0.132v0.835h0.052
	c0.041-0.059,0.043-0.055,0.078-0.052c0.049,0.048,0.114,0.075,0.182,0.078c0.125-0.231,0.462-0.05,0.651,0
	c0.106,0.028,0.117-0.067,0.156-0.026c0.034,0.039,0.079,0.067,0.13,0.078c0.021-0.037,0.047-0.07,0.078-0.1V17.1
	c0.049,0.051,0.113,0.086,0.182,0.101c0.02-0.044,0.055-0.08,0.1-0.101c0.025,0.038,0.075,0.125,0.1,0.078
	c0.081-0.07,0.181-0.117,0.287-0.131c0.226,0.243,0.576,0.326,0.886,0.209v0.1H20.43v0.026h0.026
	c0.076,0.054,0.221-0.006,0.313,0.052l0.025,0.101c0.192,0.024,0.389,0.007,0.573-0.052c0.1,0.033,0.1,0.053,0.1,0.183
	c-0.128,0.075-0.243,0.173-0.339,0.287v0.052H21.5c0.266,0.053,0.537,0.07,0.809,0.053c0.229,0.046,0.465,0.063,0.699,0.051
	c0.08-0.044,0.171-0.063,0.262-0.051c0.078,0.048,0.168,0.074,0.261,0.077v-0.1l2.84,0.1v0.078l0.208,0.026v-0.074h0.156v0.078
	h0.234v-0.078l2.945,0.1v0.078c0.188,0,0.227-0.043,0.391-0.052v0.078h0.131v-0.073c0.248-0.046,0.502-0.063,0.756-0.052
	c0.277,0.06,0.679-0.041,0.99,0.026c0.492,0.063,0.988,0.081,1.484,0.052v0.1h0.054c0.011-0.093-0.012-0.065,0.052-0.1v0.157
	c0.114,0.003,0.228-0.006,0.34-0.026v-0.079c0.135,0.041,0.275,0.067,0.416,0.078v-0.078l2.138,0.052v0.101
	c0.12-0.03,0.241-0.048,0.365-0.053v0.058c0.068,0.016,0.138,0.024,0.209,0.026v-0.101l1.849,0.044v0.03
	c-0.017,0.022-0.025,0.05-0.025,0.077h0.182c0-0.027,0.009-0.055,0.025-0.077c0.229,0.107,0.48,0.152,0.73,0.131v0.679
	c-0.103,0.024-0.208,0.033-0.313,0.026c-0.131-0.022-0.266-0.013-0.392,0.026c-0.45-0.037-0.951-0.052-1.459-0.053
	c-0.478,0.03-0.958,0.014-1.433-0.052c-0.368-0.082-0.838,0.049-1.174-0.026h-1.172c-0.102-0.032-0.206-0.049-0.313-0.052v0.157
	h-0.053c-0.01-0.094,0.013-0.066-0.051-0.1v0.1l-0.183-0.026c-0.04,0.046-0.096,0.073-0.155,0.078
	c-0.049-0.049-0.114-0.077-0.183-0.078v0.026h0.026c0.05,0.02-0.053,0.025-0.053,0.025c-0.168-0.056-0.346-0.073-0.521-0.052
	c-0.265-0.056-0.632,0-0.938-0.026c-0.306-0.025-0.699-0.027-1.041-0.025v-0.1c-0.039,0.023-0.086,0.033-0.131,0.025
	c-0.017-0.022-0.025-0.05-0.025-0.078c-2.795,0.043-5.644-0.129-8.469-0.131v0.053c0.102,0.08,0.134,0.221,0.077,0.338
	c0.217,0.021,0.434,0.029,0.651,0.026v0.052c-0.018,0.023-0.025,0.051-0.026,0.078H22.7v-0.031c0.043,0.006,0.087,0.006,0.13,0
	c0.065,0.014,0.117,0.066,0.13,0.131c0.078-0.032,0.086-0.082,0.156-0.051c0.069,0.03,0.036,0.088,0.1,0.129
	c0.046,0.033,0.101,0.052,0.156,0.053c0.126-0.139,0.322-0.189,0.5-0.131v0.131l0.261-0.026c0.035,0.044,0.08,0.077,0.131,0.101
	H24.7v-0.049c0.02-0.009,0.469,0.092,0.521,0.101c0.228,0.005,0.455-0.013,0.678-0.052l0.026,0.052
	c0.265,0.093,0.595,0.087,0.86,0.157l0.5,0.052l0.13,0.157c0.146,0.025,0.295,0.034,0.442,0.025
	c0.219,0.086,0.402,0.242,0.521,0.444c0.2,0.272,0.461,0.524,0.651,0.809c0.073,0.093,0.127,0.199,0.155,0.313
	c-0.163,0.206-0.367,0.376-0.6,0.5c-0.119,0.03-0.245,0.03-0.365,0v0.1h0.026c0.022-0.017,0.05-0.025,0.078-0.025
	c-0.011,0.115-0.057,0.224-0.13,0.313c0.046,0.049,0.048,0.021,0.025,0.078c-0.002,0.076-0.056,0.141-0.13,0.157
	c0.001-0.028-0.009-0.056-0.026-0.078c-0.006,0.011-0.015,0.02-0.025,0.026c-0.027,0.056-0.061,0.108-0.1,0.156
	c0.035,0.025,0.062,0.061,0.078,0.1c-0.063,0.041-0.116,0.095-0.156,0.158l-0.078-0.053c-0.039,0.103-0.092,0.199-0.156,0.287
	c-0.049,0.18,0.025,0.425-0.025,0.574h-0.058v-0.044c-0.031-0.226-0.031-0.454,0-0.679h-0.026c-0.049,0.036-0.102,0.07-0.156,0.1
	c0.029,0.025,0.048,0.062,0.053,0.1c-0.037,0.021-0.07,0.048-0.1,0.078c-0.045,0.005-0.091-0.004-0.131-0.025
	c-0.035,0.082-0.1,0.147-0.183,0.183c-0.003-0.034-0.013-0.068-0.026-0.101l-0.209,0.101c0.12,0.192-0.1,0.172-0.209,0.209
	c0.012,0.06,0.024,0.028,0,0.078c-0.019,0.022-0.033,0.028-0.052,0.052c-0.053-0.037-0.117-0.056-0.182-0.052
	c-0.042,0.036-0.076,0.08-0.101,0.13c-0.02,0.045,0.039,0.014,0,0.078c-0.016,0.029-0.045,0.049-0.078,0.052
	c0,0-0.033-0.075-0.052-0.052V24.4c-0.035,0.013-0.069,0.03-0.1,0.052c0.022,0.045,0.022,0.032,0,0.078
	c-0.022,0.017-0.05,0.025-0.078,0.026c-0.033-0.076,0.03-0.055-0.078-0.078c-0.067,0.044-0.128,0.097-0.182,0.156h-0.039v0.026
	c0.085,0.022,0.04-0.013,0.077,0.052c-0.037,0.028-0.082,0.047-0.129,0.053c-0.015-0.035,0-0.02-0.026-0.026
	c-0.035,0.013-0.069,0.03-0.101,0.052c0.023,0.045,0.023,0.033,0,0.078c-0.021,0.017-0.049,0.025-0.078,0.025
	c-0.012-0.028-0.029-0.055-0.051-0.078c-0.09,0.047-0.17,0.108-0.235,0.184h0.077v0.078h-0.056c-0.032,0.005-0.066,0.005-0.1,0
	c-0.046,0.058-0.099,0.11-0.156,0.156v0.026h-0.03v-0.021c-0.054-0.07,0.024-0.063-0.101-0.078
	c-0.069,0.029-0.132,0.074-0.183,0.131c-0.012,0.032-0.012,0.067,0,0.101c-0.133,0-0.071,0.019-0.155-0.053
	c-0.057,0.07-0.146,0.108-0.235,0.1c-0.014-0.012-0.025-0.025-0.035-0.039c-0.045-0.006-0.09,0.003-0.13,0.025
	c-0.048-0.045,0.024-0.043-0.052-0.078c-0.033,0.012-0.066,0.021-0.1,0.026c0.013,0.032,0.021,0.065,0.025,0.101
	c-0.209,0-0.383,0-0.6,0c0.004-0.035,0.012-0.068,0.025-0.101h-0.129V25.4c0.016,0.022,0.025,0.05,0.025,0.078h-0.13
	c-0.021-0.086,0.013-0.041-0.052-0.078c-0.063,0.162-0.207,0.039-0.287,0c-0.033,0.084-0.023,0.068-0.131,0.078l-0.025-0.053
	c0.021-0.013,0.039-0.031,0.052-0.052h-0.052c-0.04-0.019,0,0-0.078,0V25.4c0.017,0.022,0.025,0.05,0.026,0.078h-0.13V25.4H22.28
	v0.078h-0.208V25.4c-0.028-0.001-0.056,0.008-0.078,0.025c0.014,0.015,0.023,0.033,0.025,0.053h-0.156
	c0.003-0.035,0.012-0.068,0.025-0.101h-0.1V25.4c0.017,0.022,0.025,0.05,0.025,0.078h-0.129V25.4H21.6v0.078h-0.205V25.4
	c-0.121,0.029-0.049,0.054-0.101,0.078c-0.057,0.002-0.112-0.017-0.155-0.053c-0.063,0.053,0.008,0.047-0.131,0.053V25.4H20.9v0.078
	h-0.184V25.4h-0.078v0.078h-0.157c0.003-0.035,0.012-0.068,0.026-0.101H20.4V25.4c0.017,0.022,0.026,0.05,0.026,0.078
	c-0.071-0.022-0.141-0.049-0.209-0.078l-0.026,0.078h-0.178c-0.011-0.047-0.052-0.08-0.1-0.078v0.078h-0.13
	c0.003-0.035,0.012-0.068,0.026-0.101H19.7V25.4c0.017,0.022,0.025,0.05,0.026,0.078H19.57V25.4h-0.078v0.078h-0.209V25.4h-0.078
	v0.078h-0.156c0.003-0.035,0.012-0.068,0.026-0.101h-0.1V25.4c0.017,0.022,0.026,0.05,0.026,0.078h-0.13
	c-0.033-0.076,0.03-0.055-0.078-0.078c-0.039,0.1-0.1,0.084-0.235,0.078V25.4h-0.082v0.078c-0.056-0.003-0.11-0.021-0.156-0.053
	c-0.058,0.024-0.119,0.042-0.182,0.053V25.4h-0.079v0.078H17.85V25.4h-0.078v0.078h-0.156c0.003-0.035,0.012-0.068,0.026-0.101h-0.1
	V25.4c0.017,0.022,0.026,0.05,0.026,0.078c-0.083-0.012-0.162-0.037-0.235-0.078v0.078c-0.1-0.005-0.198-0.031-0.287-0.078v0.078
	c-0.065,0.009-0.131-0.01-0.182-0.053c-0.047,0.053-0.026,0.049-0.13,0.053V25.4h-0.1v0.078h-0.191V25.4
	c-0.125,0.047-0.257,0.073-0.391,0.078V25.4h-0.1v0.078h-0.186V25.4h-0.1v0.078c-0.14,0-0.068-0.011-0.13-0.053
	c-0.044,0.035-0.1,0.054-0.156,0.053c-0.053-0.022,0.014-0.049-0.1-0.078c-0.063,0.158-0.179,0.039-0.261,0
	c-0.092,0.082-0.22,0.111-0.339,0.078V25.4h-0.1v0.078c-0.092-0.008-0.181-0.034-0.261-0.078c-0.048,0.117-0.1,0.072-0.182,0.025
	c-0.024,0.071-0.043,0.053-0.13,0.053V25.4h-0.1v0.078c-0.072,0.018-0.146-0.015-0.183-0.078c-0.094-0.038-0.069,0.063-0.1,0.078
	c-0.095,0.01-0.191,0.01-0.287,0V25.4c-0.093,0.035-0.189,0.061-0.287,0.078V25.4h-0.1v0.078c-0.14-0.006-0.067,0-0.13-0.053
	c-0.039,0.045-0.098,0.064-0.156,0.053c-0.035-0.014-0.01-0.117-0.1-0.078c-0.055,0.022,0.016,0.072-0.182,0.078V25.4
	c-0.128,0.026-0.049,0.047-0.1,0.078c-0.043,0.023-0.099,0.008-0.123-0.035c-0.003-0.006-0.006-0.012-0.008-0.018
	c-0.035-0.015-0.04,0.049-0.052,0.053c-0.137,0.031-0.1-0.117-0.208-0.078c-0.043,0.016,0.016,0.074-0.182,0.078V25.4
	c-0.136,0.038-0.276,0.064-0.417,0.078V25.4c-0.081,0.042-0.17,0.068-0.261,0.078c-0.032-0.082-0.01-0.06-0.1-0.078v0.078
	c-0.096,0.007-0.191,0.007-0.287,0c-0.043-0.018,0-0.106-0.1-0.078l-0.026,0.078c-0.143,0.071-0.187-0.101-0.261-0.078
	c-0.019,0.054-0.073,0.086-0.13,0.078c-0.027-0.092,0.032-0.101-0.078-0.131v0.022H9.98c0.01,0.059,0.024,0.028,0,0.078
	c-0.03,0.019-0.065,0.027-0.1,0.026C9.868,25.438,9.837,25.409,9.8,25.4v0.078c-0.24,0-0.22,0-0.417,0
	c0.003-0.035,0.012-0.068,0.026-0.101H9.355c-0.036-0.007-0.072,0.003-0.1,0.026c0.032,0.041,0.017,0.013,0,0.052
	c-0.03,0.019-0.064,0.027-0.1,0.026c-0.138-0.027-0.279-0.027-0.417,0v-0.034H8.7c0-0.076,0.025-0.036,0-0.078
	c-0.049-0.023-0.103-0.032-0.156-0.026v0.026H8.521c0.044,0.077,0.027,0,0.026,0.1H8.313c-0.094-0.023-0.193-0.023-0.287,0
	c0.011-0.032,0.011-0.067,0-0.1c-0.066-0.026-0.137-0.036-0.208-0.026v0.026H7.792c0.044,0.077,0.027,0,0.026,0.1
	c-0.1-0.002-0.197-0.026-0.287-0.069c-0.036,0.091-0.059,0.08-0.182,0.078c0.011-0.033,0.011-0.068,0-0.101
	c-0.092-0.036-0.195-0.036-0.287,0c0.037,0.062,0.044,0.015,0.026,0.078c-0.04,0.021-0.085,0.03-0.13,0.026
	C6.916,25.4,6.934,25.408,6.827,25.4c-0.044,0.076-0.038,0.072-0.156,0.078c-0.006-0.035-0.015-0.068-0.026-0.101
	c-0.092-0.03-0.19-0.04-0.287-0.026c0.012,0.033,0.012,0.068,0,0.101c-0.042-0.016-0.085-0.024-0.13-0.026v-0.083
	c-0.045-0.012-0.089-0.029-0.13-0.052c-0.004,0.02-0.013,0.037-0.026,0.052c-0.042,0.017-0.088,0.017-0.13,0l0.026-0.131
	c-0.083-0.062-0.183-0.096-0.287-0.1c0.012,0.024,0.012,0.054,0,0.077H5.629c-0.03-0.029-0.057-0.063-0.078-0.1
	c0.014-0.014,0.023-0.032,0.026-0.052c-0.035-0.005-0.063-0.028-0.077-0.06c-0.036,0.029-0.085,0.039-0.13,0.025
	c-0.014-0.031-0.022-0.065-0.026-0.1c0.064-0.034,0.018,0.011,0.052-0.053c-0.084-0.07-0.182-0.124-0.287-0.156
	c0.012,0.032,0.012,0.067,0,0.1c-0.041-0.025-0.075-0.06-0.1-0.1c0.021-0.014,0.039-0.031,0.052-0.053
	c-0.105,0.006-0.208-0.029-0.287-0.1c0.038-0.011,0.067-0.04,0.078-0.078c-0.073-0.09-0.177-0.148-0.292-0.165
	c0,0.083,0.037,0.05-0.052,0.078c-0.02-0.122-0.135-0.204-0.256-0.184c-0.002,0-0.003,0.001-0.005,0.001
	c0.002-0.09-0.034-0.176-0.1-0.235c-0.039-0.027-0.083-0.045-0.13-0.052c0.012,0.024,0.012,0.053,0,0.078H3.961l-0.13-0.209
	c-0.045,0.02-0.048,0.068-0.078,0.025c-0.077-0.028-0.128-0.101-0.13-0.183c0.014-0.015,0.023-0.032,0.026-0.052
	c-0.065-0.013-0.127-0.039-0.182-0.078c0,0.076,0.025,0.035,0,0.078c-0.014,0.014-0.032,0.022-0.052,0.025
	c-0.1-0.146-0.294-0.168-0.365-0.287L3.023,23.15H2.945c-0.109-0.068-0.312-0.033-0.417-0.101c-0.146-0.144-0.276-0.301-0.391-0.47
	c-0.004-0.088-0.013-0.175-0.026-0.262c-0.093,0.11-0.209,0.199-0.339,0.262v-0.03c-0.047-0.042-0.082-0.097-0.1-0.157
	c0.113-0.043,0.206-0.127,0.261-0.234c-0.048,0.027-0.108,0.027-0.156,0c-0.023-0.02-0.029-0.033-0.052-0.053
	c0.051-0.082,0.095-0.17,0.13-0.261H1.824v-0.026c-0.079,0.152-0.224,0.258-0.391,0.287c-0.186,0.05-0.38-0.036-0.469-0.205
	c-0.099-0.266-0.08-0.56,0.052-0.81c-0.295,0.017-0.379,0.024-0.365-0.313c-0.04-0.153-0.04-0.315,0-0.469l-0.365-0.026
	c-0.004-0.079-0.004-0.157,0-0.235h0.339L0.6,19.913l-0.5-0.052c-0.037-0.055-0.055-0.118-0.052-0.184
	c-0.02-0.041-0.036-0.085-0.048-0.13h0.1c0.297,0.138,0.64,0.138,0.938,0c0.065-0.028,0.15-0.138,0.208-0.157
	c0.038-0.012,0.436,0,0.521,0c0-0.108,0.045-0.084,0.208-0.078c0.292-0.052,0.589-0.069,0.886-0.052
	C3.962,19.059,5.081,18.972,6.2,19c0.031,0.114,0.064,0.109,0.208,0.1c0.033-0.018,0.06-0.045,0.078-0.078
	c-0.045,0.006-0.09-0.004-0.13-0.025c0.029-0.084,0.038-0.174,0.026-0.262h0.1c0.001-0.139-0.008-0.279-0.026-0.418l0.182-0.025
	v-0.049c0.057-0.275,0.066-0.558,0.026-0.835c0.095-0.119,0.239-0.187,0.391-0.183v-0.235c0.114,0.007,0.228,0.024,0.339,0.052
	l0.026-0.13c-0.146-0.108-0.248-0.267-0.287-0.444c0.042-0.016,0.086-0.024,0.13-0.025c0.18,0.033,0.366-0.003,0.521-0.101
	c0.162-0.053,0.478,0.013,0.651-0.052c0.302-0.1,0.624-0.127,0.938-0.078c0.015-0.166,0.015-0.334,0-0.5h0.034v0.026
	c0.039,0.076,0.124,0.116,0.208,0.1v-0.075l0.052-0.025V15.71h0.027v0.052c-0.021,0.014-0.039,0.031-0.052,0.053h0.312
	c0.075,0.027,0.156,0.037,0.235,0.025v-0.13h-0.078C10.1,15.637,10,15.652,9.85,15.658c-0.079-0.172-0.106-0.361-0.078-0.549
	c0.03-0.05,0.056-0.102,0.078-0.156c0.175,0.002,0.347,0.047,0.5,0.131v-2.167c0.046-0.206,0.055-0.418,0.026-0.627V3.127
	C10.346,2.918,10.354,2.706,10.4,2.5L10.424,15.605z M1.59,22.105c0.035-0.002,0.07,0.008,0.1,0.026
	C1.655,22.134,1.62,22.125,1.59,22.105z"/>
</svg>
