<svg xmlns="http://www.w3.org/2000/svg" width="40" height="40" viewBox="0 0 40 40">
  <defs>
    <style>
      .cls-1 {
        fill: #fff;
        fill-rule: evenodd;
      }
    </style>
  </defs>
  <path id="Color_Fill_1" data-name="Color Fill 1" class="cls-1" d="M11.985,15.215a0.24,0.24,0,0,1,.148.049,7.509,7.509,0,0,0-.148,1.129l0.3,0.049V16.295a3.355,3.355,0,0,1,.937.049l-0.049.147h0.444c0.189-.138.2-0.034,0.444,0v0.147a1.923,1.923,0,0,0,.444-0.049V16.54a1.686,1.686,0,0,1-.395-0.049V16h0.345V15.9a1.318,1.318,0,0,1,0-1.031,1.051,1.051,0,0,0,.641-0.1c0.056-.034.85,0.1,0.986,0.1l-0.049.245h0.049V15.068c0.2-.114.043-0.2,0.444-0.2V14.92a0.177,0.177,0,0,0-.049.1,1.53,1.53,0,0,1,.592.245H16.72a1.508,1.508,0,0,1-.1.638,0.991,0.991,0,0,0-.345.491,1.013,1.013,0,0,1,.148.54,0.5,0.5,0,0,1,.493.147,0.612,0.612,0,0,0,.049.147V17.178c0.627-.6.532-0.562,1.776-0.54a0.178,0.178,0,0,0,.1.049V16.54c0.73-.076,1.306-0.4,2.072-0.442a0.163,0.163,0,0,0,0,.147,1.729,1.729,0,0,1,.3-0.1,16.389,16.389,0,0,0,1.036,1.521,9.513,9.513,0,0,0,.838,1.669,1.391,1.391,0,0,0-.2.344,0.33,0.33,0,0,1,.1.245,0.911,0.911,0,0,0-.543.343,1.747,1.747,0,0,1,.493.1,0.751,0.751,0,0,0-.049-0.344h0.1l0.049,0.294a5.631,5.631,0,0,0,1.332-.393h2.269a0.236,0.236,0,0,1,.049-0.147,0.765,0.765,0,0,1,.691-0.1c-0.049.366,0.215,0.266,0.74,0.245a0.237,0.237,0,0,0,.049.147c0.017-.25.036-0.243,0.3-0.245,0.149-.091,2.385-0.018,2.91-0.049V19.485c0.328-.007.412-0.007,0.74,0v4.466h0.2a19.893,19.893,0,0,1,.148-4.466,5.106,5.106,0,0,1,1.973-.1,0.572,0.572,0,0,0,.345.049c0.859-.383,1.659-0.1,2.663-0.1v0.245h0.1a6.932,6.932,0,0,1,.937.049,0.767,0.767,0,0,1,.049.245c0.075,0.2-.21.307-0.148,0.589a11.446,11.446,0,0,0,.641,1.767,3.1,3.1,0,0,0,.641.294,11.691,11.691,0,0,1,.2,2.945,5.367,5.367,0,0,0-.3.982H39.9v0.1c0,0.007.1,1.288,0.1,1.521a1.239,1.239,0,0,1-.493.491,1.2,1.2,0,0,0-.3,0l-0.049.294a1.723,1.723,0,0,1,.493.147v0.049H39.507a1.616,1.616,0,0,0-.838.1,1.26,1.26,0,0,1-.1.491,0.539,0.539,0,0,0-.148.1,2.488,2.488,0,0,1-.543-0.049,0.893,0.893,0,0,0-.247-0.393,0.179,0.179,0,0,1-.1.049V29.2h-0.3c0.077,3.519-5.143,3.5-5.179.343L29.347,29.4v0.049H29.3a2.594,2.594,0,1,1-5.179-.294,1.006,1.006,0,0,0-.543-0.1,1.027,1.027,0,0,1-.049.491,1.726,1.726,0,0,0-.049-0.54H23.428a4.2,4.2,0,0,0-.049.785h0.493v0.1H22.343v-0.1a0.517,0.517,0,0,0,.493-0.1s-0.032-.513-0.049-0.687l-3.5-.049L18.3,29.1c-0.05.316-.1,0.407-0.493,0.393a0.881,0.881,0,0,1-.395,0,5.658,5.658,0,0,0-1.578-.1,0.236,0.236,0,0,1-.049.147V29.4a3.354,3.354,0,0,1-.789,0,2.692,2.692,0,0,1-4.044,2.159,2.945,2.945,0,0,1-.937-1.031,2.927,2.927,0,0,0-.247-0.589c-0.052.092-.165,0.286-0.247,0.2a1.72,1.72,0,0,0-.3-0.147,1.89,1.89,0,0,1-.641,1.129,2.548,2.548,0,0,1-4.094-.54,2.393,2.393,0,0,1-.345-1.718,3.893,3.893,0,0,1,.543-1.129H4l-0.049.147c-0.244.333,0,1.155-.247,1.472V29.1H3.551a1.435,1.435,0,0,0,0,.785A1.015,1.015,0,0,1,4,30.037H2.466v-0.1H2.959a1.22,1.22,0,0,0-.049-0.785A1.743,1.743,0,0,0,2.663,29.1a3.712,3.712,0,0,1-.049-1.374H2.367a1.62,1.62,0,0,0-.3.393H2.219V29.3a3.2,3.2,0,0,1-1.134-.049,0.664,0.664,0,0,0,0-.442,0.973,0.973,0,0,1-.345.147,7.991,7.991,0,0,1,0-.834,0.84,0.84,0,0,0-.3.049V27.877H0.493a1.638,1.638,0,0,0,.986.1,1.33,1.33,0,0,1,.2-0.344,1.067,1.067,0,0,0-.345-0.049c-0.072.125,0.011,0.055-.148,0.1a0.168,0.168,0,0,0-.049-0.1c0.035-.109.036-0.468,0.049-0.491a0.986,0.986,0,0,1,.444,0,1.412,1.412,0,0,0,.049-0.442,0.176,0.176,0,0,0,.049-0.1,0.843,0.843,0,0,0-.3.049c-0.052-.31-0.1-0.1-0.2-0.245V25.522a4.2,4.2,0,0,0,1.529-.049H2.17a9.584,9.584,0,0,0,0-1.178H2.022c0.006,0.5,0,.463,0,1.08a7.387,7.387,0,0,0-1.628,0,0.25,0.25,0,0,0-.049.147h-0.2l-0.1-.147a2.826,2.826,0,0,0,.2-0.736,9.834,9.834,0,0,0,.543-1.472A1.544,1.544,0,0,1,0,22.871H0.2c0.893,0.742.67-1.211,0.641-1.963H0.888a0.291,0.291,0,0,1,.345-0.245,0.908,0.908,0,0,1,.641-0.049,1.124,1.124,0,0,0,.247.344,0.315,0.315,0,0,0-.1.245,0.239,0.239,0,0,0,.148-0.049c-0.064-.027-0.037,0-0.049-0.049a1.9,1.9,0,0,1,1.233-.147h3.6V21.1c-0.16.041-.075-0.024-0.148,0.1H7.793a2.613,2.613,0,0,1,.937-0.049v-0.1a0.33,0.33,0,0,0,.1-0.245H7V20.221H6.757c-0.016-.347-0.018-0.733,0-1.08H5.524V18.11H5.475a2.833,2.833,0,0,1-.986.687,0.529,0.529,0,0,1,.049.294H4.587c0.117-.11.017-0.054,0.2-0.049v0.442a0.384,0.384,0,0,1-.345-0.049c0,0.143.048,0.068,0,.147v0.049a0.17,0.17,0,0,1-.1-0.049,0.614,0.614,0,0,0-.049-0.147s-0.01.192-.049,0.1v-0.1a6.068,6.068,0,0,1,.049-1.374c0.841-.565.818-1.434,2.269-1.423V15.951H6.412c-0.042-.113-0.1-0.181-0.148-0.295l0.247-.049V15.558a0.385,0.385,0,0,1-.2,0,4.1,4.1,0,0,1-.3-0.834,0.29,0.29,0,0,0,.247-0.2H6.215a0.644,0.644,0,0,1-.444.147L5.721,13.448a5.184,5.184,0,0,1-.3-0.834h0.2l-0.049-.736a2.682,2.682,0,0,0-.691.245v-0.1a0.572,0.572,0,0,1,0-.442l0.592-.2c0.083,0.008.233,0.209,0.3,0.2a1.749,1.749,0,0,1,.691-0.1v-0.2h-0.1a0.168,0.168,0,0,1-.049.1,0.355,0.355,0,0,0-.1-0.393v0.2h-0.2V10.012a1.923,1.923,0,0,1,.444.049v0.1H6.313L6.363,11.19a0.645,0.645,0,0,1,.345.2l0.543-.147c-0.02-.111-0.045-0.053,0-0.147a0.482,0.482,0,0,0,.592.147c0.266,1.11,1,2.043,1.085,3.387l-0.247.049v0.1a1.432,1.432,0,0,1,.148.295,0.168,0.168,0,0,1,.049-0.1v0.393c-0.131.014-.1,0.04-0.1,0.294a1.779,1.779,0,0,1,0,.982H9.125a0.62,0.62,0,0,0-.049-0.2H9.223v0.2h0.1v-0.1c-0.035-.076-0.006-0.007,0-0.147H9.667a0.168,0.168,0,0,0,.049.1v-0.2a3.553,3.553,0,0,1,.986.049c0,0.155-.07.092,0.1,0.147a0.916,0.916,0,0,1,.691,0v0.147H11.64v-0.2c0.186-.007.173,0.023,0.247-0.1a0.239,0.239,0,0,1-.148-0.049,4.063,4.063,0,0,0,.1-1.178,12.979,12.979,0,0,0,0-3.386c-0.06-.427.049-1.282,0.049-1.816A7.608,7.608,0,0,1,11.936,8C11.954,10.259,11.983,12.731,11.985,15.215ZM6.51,10.209a1.6,1.6,0,0,1,.543.687h-0.1C6.857,10.609,6.61,10.5,6.51,10.209ZM7.053,10.9a0.268,0.268,0,0,1,.148.2H7.152A0.14,0.14,0,0,0,7.1,11.043Zm-1.085.687-0.049.1C6,11.612,5.968,11.583,5.968,11.583Zm1.085,3.73a0.178,0.178,0,0,0,.1.049A0.178,0.178,0,0,0,7.053,15.313ZM6.51,15.8v0.1H6.56V15.8H6.51Zm3.4,0.589v0.1h0.493v-0.1H9.914Zm2.565,0v0.1h0.493v-0.1H12.478Zm4.735,0.344a0.176,0.176,0,0,1,.049.1H17.213v-0.1Zm-0.049.491a0.178,0.178,0,0,0,.1.049A0.178,0.178,0,0,0,17.164,17.227Zm9.914,2.5v0.1h0.1v-0.1h-0.1Zm0,0.147a0.178,0.178,0,0,0,.1.049A0.178,0.178,0,0,0,27.078,19.877Zm-6.954.442V20.81a5.5,5.5,0,0,0-2.318.245,0.571,0.571,0,0,0,.345.1,3.938,3.938,0,0,1,.986,0,8.431,8.431,0,0,0,2.17-.1,1.522,1.522,0,0,0,.2.147v2.061a3.137,3.137,0,0,0,0,1.374,1.709,1.709,0,0,1-.148.589,0.646,0.646,0,0,1,.049.294,2.6,2.6,0,0,1-.395.1v0.1H21.6a1.624,1.624,0,0,1,.345-0.147,0.249,0.249,0,0,1-.049-0.147H21.554V20.81H21.6V20.761a1.286,1.286,0,0,0,.691-0.2,0.53,0.53,0,0,0,.049-0.294H22.294a2.237,2.237,0,0,1-1.43.638l-0.493-.933H20.321a0.531,0.531,0,0,1-.049.294A0.253,0.253,0,0,1,20.123,20.319Zm8.237-.343a1.311,1.311,0,0,0,.049.589,0.518,0.518,0,0,1,.345-0.54V19.976H28.36Zm0.888,0a0.637,0.637,0,0,0,.641.245c0.1-.068.3-0.076,0.395-0.147a0.176,0.176,0,0,0,.049-0.1H29.248Zm1.184,0V20.27h0.1a2.218,2.218,0,0,1,.838-0.147V19.976H30.432Zm-13.169.049c-0.16.041-.075-0.024-0.148,0.1a0.567,0.567,0,0,1,.1.147h0.049V20.025Zm10.851,0.147a0.316,0.316,0,0,0,.049.2A0.316,0.316,0,0,0,28.113,20.172Zm2.713,0.54h0.148c0.041-.159-0.024-0.075.1-0.147a0.735,0.735,0,0,1,.1.2,0.188,0.188,0,0,0-.148.1h0.3v0.049h0.049V20.319l-0.543.049a0.564,0.564,0,0,0-.1.344h0.049a0.41,0.41,0,0,1,.049-0.245v0.245Zm-2.713-.245a0.41,0.41,0,0,0,.049.245A0.409,0.409,0,0,0,28.113,20.466ZM0.888,22.282h0.2V22.233H1.134a7.2,7.2,0,0,1,.395-1.57H1.43l-0.444.147A4.9,4.9,0,0,0,.888,22.282Zm0.838-.589V21.006a0.239,0.239,0,0,0,.148-0.049,0.33,0.33,0,0,0,.049-0.2,0.524,0.524,0,0,0-.247-0.1l-0.3,1.031H1.726Zm26.437-.736c0.2,0.006.27,0.027,0.345-.1H28.36c-0.112.037-.075,0.011-0.2-0.049v0.147Zm-23.181.1a0.237,0.237,0,0,0,.049.147V21.055H4.982Zm24.562,0v0.1h0.3V21.1h0.049V21.055H29.544ZM5.327,21.1v0.1c0.177-.021.124,0.023,0.2-0.1h-0.2Zm0.444,0v0.1H6.56V21.1H5.771Zm-3.7.2a1.051,1.051,0,0,0-.049.344h0.1a0.14,0.14,0,0,0,.049.049V21.6A2.189,2.189,0,0,0,2.219,21.3H2.072Zm5.672,0v0.1H7.793A0.168,0.168,0,0,0,7.744,21.3Zm20.616,0h-0.2a0.69,0.69,0,0,0-.049.2c0.305,0.213-.109,1.163.2,1.374V22.92H28.36V21.3Zm-20.321.491c0.226-.018.341,0,0.641,0L8.73,21.35H7.99v0.1A0.647,0.647,0,0,1,8.039,21.791Zm-0.247-.343a2.195,2.195,0,0,0,.049.883A2.195,2.195,0,0,0,7.793,21.448Zm-6.461.294v0.1H1.381v-0.1H1.332Zm0.395,0.54V21.791a0.748,0.748,0,0,0-.3.1,0.7,0.7,0,0,1-.1.393H1.726Zm0.3-.491v0.638A0.239,0.239,0,0,0,2.17,22.38a0.33,0.33,0,0,0,.049-0.2,0.511,0.511,0,0,1,0-.393h-0.2Zm5.968,0.1v0.2H8.434v-0.2A2.122,2.122,0,0,1,7.99,21.89Zm0.543,0v0.1H8.582A0.168,0.168,0,0,0,8.533,21.89Zm-7.645.491a1.027,1.027,0,0,0,.049.491l0.1-.491H0.888Zm0.395,0c-0.1.747-.65,1.411-0.3,2.307H1.036a0.84,0.84,0,0,0,.543.1c-0.006-.613,0-1.454,0-2.209-0.178-.009-0.1.073-0.148-0.1a0.188,0.188,0,0,0,.148-0.1h-0.3ZM39.31,22.626V22.479l-0.2-.049v0.147h0.049v0.049H39.31Zm-37.238-.1a1.607,1.607,0,0,0-.049.491H2.072v0.049h0.1V22.626H2.219c0.049-.05-0.049-0.049-0.049-0.049A0.178,0.178,0,0,0,2.072,22.528Zm37.485,0.2V22.577h-0.1c-0.048-.012-0.019-0.038-0.049,0-0.061.077-.032,0.025,0,0.1A0.252,0.252,0,0,0,39.556,22.724Zm-11.344.294a3.2,3.2,0,0,0,.148,1.571V23.018H28.212Zm-26.19.2c0,0.517,0,.524,0,0.982H2.17V23.215H2.022Zm-1.332.638v0.1H0.74v-0.1H0.691ZM0.641,24v0.1H0.691A0.168,0.168,0,0,0,.641,24Zm-0.2,1.276H1.43a0.782,0.782,0,0,1,.247-0.245V24.982a0.239,0.239,0,0,1-.148-0.049H1.578c0.038-.034.11-0.064,0.148-0.1a2.816,2.816,0,0,1-.789-0.049A2.615,2.615,0,0,1,.838,24H0.789v0.1A2.987,2.987,0,0,0,.444,25.276Zm0.148-1.129-0.2.687H0.444A1.793,1.793,0,0,0,.592,24.147Zm7.152,0.147v0.344h0.1A0.682,0.682,0,0,0,7.744,24.295Zm0,0.442a0.178,0.178,0,0,0,.1.049A0.178,0.178,0,0,0,7.744,24.736Zm20.37,0.687h-0.74l-0.049.1a0.616,0.616,0,0,1-.049.147,0.253,0.253,0,0,1-.148.049V25.472l-0.2-.049a0.7,0.7,0,0,1-.049.245c-0.178.009-.1-0.073-0.148,0.1h0.049a1.847,1.847,0,0,1,.789-0.049,0.236,0.236,0,0,1,.049-0.147,1.794,1.794,0,0,1,.74-0.049V24.834H28.113v0.1a0.485,0.485,0,0,1,.148.393h-0.1a0.516,0.516,0,0,0-.049-0.294v0.393ZM7.744,25.08a0.239,0.239,0,0,0-.148.049,0.53,0.53,0,0,0-.049.295,0.414,0.414,0,0,1,.247.049H6.461v0.1H6.51c0.5-.3,1.626.206,2.121-0.1a0.9,0.9,0,0,1-.444-0.049c0.145-.069.135-0.094,0.148-0.295h-0.2v0.344H7.891a2.162,2.162,0,0,0-.1-0.589H7.744v0.2Zm0.444-.1c0.085,0.043.063,0.044,0.148,0H8.187Zm-6.51.147a0.211,0.211,0,0,1-.1.1,0.427,0.427,0,0,0,.345.049v-0.1H1.973V25.129h-0.3Zm19.581,0.049a0.237,0.237,0,0,0,.049.147V25.178H21.258Zm10.21,0.294a0.642,0.642,0,0,0,.345-0.049,0.37,0.37,0,0,1-.247-0.2H31.517v0.1A0.25,0.25,0,0,0,31.467,25.472Zm-31.27-.2v0.1H0.3v-0.1H0.2Zm16.819,0.2v0.2a0.239,0.239,0,0,0-.148.049c0.715,0,1.56-.035,1.726-0.049a0.177,0.177,0,0,1,.049.1,0.177,0.177,0,0,0,.049-0.1h0.049V25.62a3.553,3.553,0,0,0,1.43.1V25.669a0.33,0.33,0,0,1-.049-0.2H17.016Zm4.143-.049a0.144,0.144,0,0,0,.2,0h-0.2Zm3.65,0a0.559,0.559,0,0,0,.641.294V25.669a0.422,0.422,0,0,0-.148-0.2A1.058,1.058,0,0,0,24.809,25.423Zm1.282,0-0.493.049V25.62h0.1a0.907,0.907,0,0,1,.345-0.147v0.049a0.782,0.782,0,0,0-.247.245h0.1a1.016,1.016,0,0,0,.444-0.147h-0.1c-0.077.061-.025,0.032-0.1,0A0.33,0.33,0,0,1,26.091,25.423Zm-22.343.049c0.016,0.109-.051.053,0.049,0.1a0.645,0.645,0,0,0,.592.147,0.145,0.145,0,0,0,.2,0A2,2,0,0,1,3.9,25.571a0.3,0.3,0,0,0,.1-0.1H3.748Zm0.395,0v0.1c0.445,0.065,1.561.385,1.874-.049H5.968V25.472H4.143Zm11.64,0H12.035a4.028,4.028,0,0,0-1.43.049h2.614c0.081,0.026.215,0.17,0.3,0.2h0.74a6.043,6.043,0,0,0,1.628-.049C15.757,25.6,15.806,25.647,15.783,25.472Zm7.793,0.049v0.147c0.375,0.012.708,0.049,1.233,0.049v-0.1A2.834,2.834,0,0,0,23.576,25.522Zm8.977,0a0.691,0.691,0,0,0-.049.2h0.1A0.316,0.316,0,0,0,32.552,25.522Zm-3.3.2a1.018,1.018,0,0,0-.444.147,0.57,0.57,0,0,0-.1.147L29.2,26.061A1.048,1.048,0,0,0,29.248,25.718Zm0.493,0v0.343h0.3a0.3,0.3,0,0,1,.1-0.1,0.178,0.178,0,0,0-.1-0.049,0.252,0.252,0,0,0-.148-0.049V25.718H29.741Zm3.058,0a0.237,0.237,0,0,0,.049.147V25.718H32.8Zm-4.39.147a0.738,0.738,0,0,0-.1.2H28.36V26.11h0.049V26.061A0.143,0.143,0,0,0,28.409,25.865ZM32.7,25.914v0.1h0.1v-0.1H32.7Zm6.708,0c-0.16.041-.075-0.024-0.148,0.1a1.693,1.693,0,0,1,.1.442h0.049V26.4a0.177,0.177,0,0,0,.049-0.1C39.3,26.213,39.384,26.12,39.408,25.914Zm-11.443.049v0.294h0.1a0.316,0.316,0,0,0,.1-0.245h0.049V25.963H27.966ZM38.718,26.11a0.271,0.271,0,0,0,.049.295V26.356C38.844,26.233,38.811,26.194,38.718,26.11Zm-10.653.2c0.082,0.055.053,0.087,0.1,0h-0.1Zm0.247,0.1a0.178,0.178,0,0,0,.1.049A0.178,0.178,0,0,0,28.311,26.4Zm-0.592.049a0.411,0.411,0,0,0-.1.147h0.1a0.6,0.6,0,0,0,.3-0.147h-0.3Zm-26.683.491h0.1v0.049A0.17,0.17,0,0,1,1.036,26.945Zm0.3,0.54H1.578v-0.1c-0.055-.1-0.029-0.089,0-0.2h-0.2a0.139,0.139,0,0,0-.049-0.049v0.344ZM14.7,27.73v0.54h0.3c0.041,0.159-.024.075,0.1,0.147v-0.1a1.088,1.088,0,0,1-.1-0.589H14.7Zm9.026,0a0.236,0.236,0,0,0,.049.147c0.153-.092.454-0.049,0.592-0.147A2.773,2.773,0,0,1,23.724,27.73Zm5.08,0v0.147L29,28.025v-0.1c-0.034-.038-0.065-0.11-0.1-0.147A0.178,0.178,0,0,0,28.8,27.73Zm1.677,0.294v-0.2h-0.1V27.779H30.333c0.005,0.259.149,0.449-.1,0.54-0.1.035,0.1,0.049,0.1,0.049a1.158,1.158,0,0,0,.493.147,0.645,0.645,0,0,0,.1-0.393A1.223,1.223,0,0,0,30.481,28.025Zm1.43-.147a0.262,0.262,0,0,0,.3,0h-0.3Zm0,0.1a0.327,0.327,0,0,0-.049.245,0.784,0.784,0,0,0,.395.049l0.148-.294H31.911Zm-2.022.1a0.412,0.412,0,0,0-.1.147h0.3v-0.1Zm-28.952.049a3.621,3.621,0,0,0,.148.393v-0.1c0.015-.037.027-0.174,0.049-0.295h-0.2Zm14.353,0a0.515,0.515,0,0,0,.049.295A0.516,0.516,0,0,0,15.29,28.123Zm8.434,0.54h0.345l0.049-.147a0.525,0.525,0,0,1-.395-0.1v0.245Zm8.335,0.491,0.049-.54h-0.1a0.537,0.537,0,0,0-.3-0.049l-0.049.294a0.292,0.292,0,0,0-.2.1V28.663a0.249,0.249,0,0,0,.049-0.147,1.336,1.336,0,0,0-.543.344,6.751,6.751,0,0,1-1.776-.2v0.1c0.032,0.042.066,0.154,0.1,0.2a3.609,3.609,0,0,0,1.184.1A9.067,9.067,0,0,0,32.059,29.153Zm5.277,0h0.395l0.049-.442H37.287v-0.2h-0.1v0.2A0.88,0.88,0,0,1,37.337,29.153Zm0.543-.442-0.049.442h0.049a2.106,2.106,0,0,1,.986-0.491V28.614Zm0.74,0.1v0.2l0.395-.049v-0.1a0.565,0.565,0,0,1-.1-0.147A0.837,0.837,0,0,1,38.619,28.81Zm-0.2.1c-0.093.086-.245,0.115-0.345,0.2l0.444-.049,0.049-.1H38.52A0.177,0.177,0,0,0,38.422,28.908Zm-7,.049a0.176,0.176,0,0,1,.049.1H31.418v-0.1Zm7.1,0.2c-0.19.12-.559,0.068-0.74,0.2a0.574,0.574,0,0,1,.1.245,1.833,1.833,0,0,0,.543.049A0.4,0.4,0,0,0,38.52,29.153Zm-7.546.54a0.581,0.581,0,0,1,0,.491V29.693Zm-0.049.589a0.25,0.25,0,0,1,.049.147H30.925V30.282Z" transform="translate(0 0.016)"/>
</svg>
