<?xml version="1.0" encoding="utf-8"?>
<!-- Generator: Adobe Illustrator 16.0.0, SVG Export Plug-In . SVG Version: 6.00 Build 0)  -->
<!DOCTYPE svg PUBLIC "-//W3C//DTD SVG 1.1//EN" "http://www.w3.org/Graphics/SVG/1.1/DTD/svg11.dtd">
<svg version="1.1" id="Layer_1" xmlns="http://www.w3.org/2000/svg" xmlns:xlink="http://www.w3.org/1999/xlink" x="0px" y="0px"
	 width="40px" height="40px" viewBox="0 0 40 40" enable-background="new 0 0 40 40" xml:space="preserve">
<path id="ussr_t_34_1941_57_ico" fill="#FFFFFF" d="M20.358,13.016c0.088,0.022,0.177,0.036,0.268,0.043v0.2
	c0.128,0.013,0.247,0.05,0.358,0.065v0.087h-0.09l0.022,0.391c0.238-0.008,0.476,0.036,0.694,0.13
	c0.047,0.058,0.109,0.102,0.179,0.13v-0.046c-0.065-0.102-0.036-0.237,0.065-0.303c0.016-0.009,0.03-0.017,0.047-0.022
	c0.074-0.042,0.164-0.05,0.246-0.022c0.189,0.261,0.147,0.26-0.022,0.5h0.044c0.232,0.068,0.477,0.083,0.716,0.043
	c0.104,0.029,0.214,0.021,0.313-0.022l-0.358-0.13c0.343-0.014,0.679,0.102,0.94,0.325c0.06,0.073,0.127,0.141,0.199,0.2h1.209
	c0.125-0.032,0.254-0.04,0.381-0.022c0.018,0.185,0.182,0.32,0.367,0.301c0.004,0,0.008-0.001,0.013-0.001
	c0.251,0.116,0.534,0.146,0.805,0.087h2.483c0.4,0.043,0.805,0.05,1.207,0.022h2.371L40,14.991v0.477l-13.646,0.065
	c0,0.135-0.039,0.024-0.156,0.087c0.134,0.337,0.173,0.705,0.111,1.063h-2.26c-0.033,0.096-0.088,0.185-0.156,0.26
	c-0.067-0.026-0.117-0.083-0.135-0.152c0.034-0.034,0.051-0.082,0.045-0.13h-0.021c-0.105,0.093-0.227,0.166-0.358,0.217
	c0.237,0.172,0.027,0.358,0.492,0.347c0.063-0.264,0.39-0.207,0.716-0.2v0.022h-0.066v0.239c0.144,0.1,0.351,0.434,0.47,0.477
	c0.038-0.019,0.076-0.04,0.112-0.064c0.082-0.1,0.045-0.2,0.224-0.217c0.013-0.012,0.028-0.02,0.045-0.022
	c0.033,0.465,0.45,0.407,0.962,0.391c0.081,0.048,0.184,0.04,0.268,0.087l0.067,0.087c0.054,0.024,0.127-0.113,0.179,0.065
	c-0.041,0.02-0.068,0.062-0.066,0.108c0.069,0.058,0.145,0.108,0.224,0.152c-0.006,0.1-0.006,0.2,0,0.3h0.2
	c-0.014-0.087-0.05-0.164-0.066-0.239c-0.03-0.354,0.232-0.665,0.587-0.694c0.036-0.003,0.071-0.003,0.106,0
	c0.051,0.316,0.059,0.637,0.021,0.955l0.601-0.022c0.013,0.035,0.021,0.071,0.022,0.108c-0.051,0.016-0.104,0.023-0.158,0.022
	c-0.153-0.037-0.313-0.044-0.469-0.022v0.174c-0.04,0.027-0.086,0.042-0.135,0.043c-0.049-0.021-0.104-0.029-0.156-0.022
	c-0.051,0.076-0.096,0.156-0.135,0.239c0.084,0.025,0.161,0.07,0.225,0.13h0.357v0.108c0.498-0.056,1.002-0.056,1.5,0
	c0.206,0.052,0.491-0.023,0.671,0.022c0.181,0.046,0.373-0.016,0.537,0.043c0.224,0.095,0.435,0.22,0.626,0.369
	c0.061,0.124,0.136,0.241,0.225,0.347c0.269,0.176,0.461,0.447,0.537,0.759c0.042,0.095,0.064,0.196,0.066,0.3
	c-0.25,0.167-0.531,0.277-0.828,0.325c-0.092,0.009-0.182,0.031-0.268,0.065c-0.074,0.123-0.134,0.254-0.18,0.391
	c-0.05-0.026-0.102-0.049-0.156-0.064v0.043c0.061,0.016,0.104,0.067,0.111,0.13c-0.176,0.209-0.389,0.386-0.625,0.521
	c-0.068,0.066-0.153,0.112-0.246,0.131c-0.034-0.028-0.072-0.05-0.112-0.065v0.043c0.034,0.041,0.042,0.045,0.022,0.087
	c-0.175,0.142-0.381,0.238-0.601,0.282c0,0.069,0.038,0.028-0.022,0.064c-0.259,0.232-0.695,0.3-0.939,0.544
	c-0.027-0.02-0.059-0.033-0.09-0.044c0.008,0.028,0.008,0.059,0,0.087c-0.193,0.072-0.375,0.173-0.537,0.301
	c-0.027-0.02-0.059-0.033-0.09-0.043c0.012,0.027,0.019,0.057,0.021,0.086c-0.374,0.093-0.625,0.445-1.007,0.521l-0.022-0.13h-0.065
	c0.011,0.06,0.025,0.117,0.045,0.174c-0.216,0.029-0.341,0.152-0.582,0.175c-0.003-0.031-0.01-0.061-0.022-0.088H26v0.108
	c-0.099,0.013-0.196,0.034-0.291,0.065h-0.698v-0.201c0.084,0,0.079,0.01,0.112-0.043c-0.299-0.041-0.579-0.17-0.805-0.369
	c-0.49-0.304-0.813-0.816-0.873-1.389h-0.672c-0.063,0.606-0.412,1.146-0.939,1.453c0.025,0.101,0.063,0.225,0.09,0.348h0.2v0.217
	h-1.207v-0.217H20.85v0.217h-0.692c0.006-0.08,0.006-0.16,0-0.239c-0.08-0.034-0.162-0.063-0.246-0.087v0.107h0.179v0.218h-1.141
	v-0.216h0.2c0.02-0.156,0.058-0.309,0.112-0.456c-0.425-0.331-0.706-0.813-0.783-1.345h-1.051c-0.102,0.795-0.66,1.457-1.427,1.692
	v0.108h0.179v0.217h-1.168v-0.217h-0.045v0.217H14.3v-0.217c0.135,0.028,0.275,0.014,0.4-0.043c-0.26-0.102-0.515-0.217-0.761-0.348
	v0.043c0.065,0.104,0.096,0.225,0.089,0.348h0.2v0.217h-1.163v-0.217h0.179c0.017-0.207,0.095-0.402,0.224-0.564
	c0.064-0.037,0.125-0.08,0.179-0.13c-0.305-0.294-0.496-0.687-0.537-1.106h-0.2c-0.068,0.593-0.406,1.121-0.917,1.432
	c0.059,0.113,0.09,0.24,0.089,0.369h0.178v0.217H11.1c-0.006-0.08,0.001-0.161,0.022-0.239h-0.07v0.239H10.38
	c-0.006-0.08,0.001-0.16,0.02-0.238h-0.109v0.021c0.025,0.07,0.033,0.145,0.022,0.218H9.15v-0.218h0.179
	c0.019-0.145,0.064-0.285,0.134-0.412c-0.48-0.31-0.793-0.82-0.85-1.389H8.345c-0.073,0.428-0.267,0.827-0.559,1.149
	c0.257,0.108,0.412,0.374,0.38,0.651h0.2v0.217H7.2v-0.217h0.2c0.018-0.14,0.048-0.277,0.089-0.412H7.472
	c-0.237,0.201-0.522,0.336-0.828,0.391v0.021h0.492v0.218H6.465v-0.218H6.4v0.217c-0.367,0.014-0.733-0.047-1.076-0.178
	c0.03-0.074,0.062-0.155,0-0.2v-0.013H5.3c0.009,0.076-0.006,0.152-0.045,0.218c-0.193-0.109-0.406-0.177-0.626-0.2l0.022-0.217
	c0.121,0.021,0.241,0.051,0.358,0.087v-0.039c-0.136-0.072-0.263-0.159-0.38-0.261c-0.052-0.078-0.111-0.15-0.179-0.217V24.3H4.43
	c-0.022,0.022,0.022,0.021,0.022,0.022c0.046,0.031,0.101,0.047,0.157,0.043l-0.022,0.199c-0.028,0.012-0.059,0.02-0.089,0.022
	c-0.337-0.146-0.69-0.255-1.051-0.325c0.004-0.074,0.02-0.146,0.045-0.217h0.065c0.046,0.031,0.101,0.047,0.157,0.043
	c0.033-0.166,0.129-0.314,0.268-0.412c0.088-0.021,0.171-0.057,0.246-0.107c-0.126-0.169-0.19-0.376-0.179-0.586H3.4
	c-0.163,0.106-0.32,0.223-0.47,0.347c-0.213,0.11-0.366,0.028-0.358,0.369c-0.028,0.034-0.014,0.011,0,0.043
	c0.049,0.027,0.102,0.05,0.157,0.065l-0.045,0.199c-0.4-0.044-0.725-0.266-1.119-0.326v-0.117H1.544
	c-0.01,0.031-0.035,0.055-0.067,0.064c-0.209-0.061-0.396-0.182-0.537-0.347c0.056-0.04,0.102-0.092,0.134-0.152l-0.067-0.022
	v-0.021H0.984c0.003,0.069-0.031,0.136-0.089,0.174c-0.017-0.002-0.033-0.01-0.045-0.022c-0.201-0.153-0.35-0.365-0.425-0.607
	c-0.048-0.063-0.078-0.135-0.089-0.213c0.061-0.033,0.131-0.049,0.2-0.043v-0.091H0.515c-0.061,0.036-0.129,0.059-0.2,0.065v-0.044
	c-0.073-0.21-0.081-0.437-0.022-0.651c0.084,0,0.079,0.011,0.112-0.043C0.3,21.591,0.31,21.57,0.313,21.457
	c0.071-0.132,0.131-0.27,0.179-0.412c0.102-0.105,0.191-0.223,0.268-0.347h0.023v-0.022C0.43,20.563,0.145,20.301,0,19.96
	c0.388-0.045,0.75-0.386,1.23-0.435v-0.391c0.114,0.014,0.223-0.047,0.27-0.152c-0.045-0.027-0.083-0.064-0.112-0.109
	c0.23-0.141,0.391-0.4,0.6-0.542c0.346-0.152,0.725-0.212,1.1-0.174l0.022-0.174c0.101,0.003,0.199,0.025,0.291,0.065
	c0.072-0.067,0.139-0.14,0.2-0.217c-0.058-0.06-0.096-0.135-0.111-0.216l0.2,0.043l0.022-0.065c0.06-0.01,0.12-0.01,0.179,0
	c0.095-0.056,0.178-0.13,0.246-0.217c-0.052-0.029-0.041-0.026-0.045-0.043c0.058-0.111,0.171-0.133,0.224-0.239
	c0.038-0.148,0.045-0.304,0.022-0.456c0.197-0.02,0.392,0.062,0.515,0.217L5.3,16.64c0.165-0.056,0.363-0.043,0.537-0.087
	l1.879-0.021c0.09-0.008,0.18-0.022,0.268-0.043l0.045,0.064h0.696l0.022-0.064c0.08-0.043,0.1,0.055,0.134,0.064h2.64v-0.456
	c0.027-0.019,0.057-0.033,0.089-0.043v0.022c0.039,0.156,0.046,0.318,0.022,0.477h2.617V16.51c-0.17-0.028-0.343-0.036-0.515-0.021
	H12.6c-0.011-0.024-0.026-0.046-0.045-0.065c0.065-0.151,0.155-0.291,0.268-0.412c-0.049-0.071-0.08-0.153-0.089-0.239
	c0.082-0.015,0.165-0.015,0.246,0c0.053-0.194,0.226-0.31,0.291-0.5c-0.079-0.049-0.135-0.127-0.157-0.217
	c0.083-0.151,0.26-0.224,0.425-0.174c0.089-0.193,0.202-0.375,0.335-0.542c-0.06-0.01-0.1-0.067-0.089-0.127
	c0-0.001,0-0.002,0-0.003c-0.017-0.026-0.024-0.057-0.022-0.087c0.08,0.001,0.159-0.006,0.237-0.021
	c0.217-0.219,0.12-0.207,0.582-0.2v-0.039c-0.1-0.056-0.153-0.169-0.134-0.282c0.079-0.155,0.265-0.221,0.425-0.152
	c0.025,0.04,0.055,0.076,0.089,0.108c0.017,0.137-0.033,0.274-0.134,0.369h0.832c0.239-0.354,1.129-0.243,1.723-0.239
	c0.032-0.08,0.116-0.125,0.2-0.108c0.27,0.134,0.578,0.172,0.872,0.108c0.137,0.097,0.312,0.121,0.47,0.065
	c0.006-0.226,0.06-0.448,0.157-0.651c0.03-0.029,0.07-0.044,0.112-0.043c0.065,0.079,0.097,0.18,0.089,0.282h-0.021v-0.021
	c-0.019-0.019-0.034-0.041-0.045-0.065h-0.045c-0.031,0.044-0.047,0.098-0.045,0.152c-0.071,0.105-0.071,0.242,0,0.347
	c0.049,0.021,0.104,0.029,0.157,0.022v-0.065c0.161-0.077,0.336-0.121,0.515-0.13v0.065h-0.157l-0.067,0.109h0.09v0.152
	c0.102,0.032,0.211,0.032,0.313,0c-0.082-0.17-0.127-0.354-0.134-0.543c0.174-0.015,0.346-0.043,0.515-0.087L20.358,13.016
	L20.358,13.016z M2.8,23.823l0.645,0.192v0.022c-0.023,0.048-0.038,0.099-0.045,0.151c-0.028,0.012-0.058,0.02-0.089,0.022
	c-0.148-0.106-0.416-0.084-0.559-0.2c-0.014-0.019-0.022-0.041-0.022-0.064C2.76,23.91,2.784,23.868,2.8,23.823z M17.945,24.777h0.2
	v0.218H16.98v-0.218h0.179c0-0.242,0.117-0.468,0.313-0.608c0.036-0.033,0.085-0.049,0.134-0.043
	c0.209,0.151,0.333,0.394,0.336,0.651H17.945z M23.984,24.777h0.201v0.218h-1.23v-0.218h0.225c0.004-0.258,0.129-0.498,0.336-0.651
	h0.133c0.193,0.164,0.314,0.398,0.334,0.651H23.984z M8.415,24.777h0.668v0.218H8.412v-0.218H8.415z M12.33,24.777H13v0.218h-0.673
	v-0.218H12.33z M16.245,24.777h0.671v0.218h-0.674v-0.218H16.245z M18.214,24.777h0.671v0.218H18.21v-0.218H18.214z M22.195,24.777
	h0.695v0.218h-0.699v-0.218H22.195z M24.232,24.777h0.716v0.218h-0.72v-0.218H24.232z"/>
</svg>
