<svg xmlns="http://www.w3.org/2000/svg" width="40" height="40" viewBox="0 0 40 40">
  <defs>
    <style>
      .cls-1 {
        fill: #fff;
        fill-rule: evenodd;
      }
    </style>
  </defs>
  <path id="ussr_type_65_aa_ico" class="cls-1" d="M24.784,16.063a4.253,4.253,0,0,0,1.443-.187v0.063a0.581,0.581,0,0,0,0,.438c0.114,0.419.173,0.924,0.282,1.344a1.07,1.07,0,0,0,.063.344,1.62,1.62,0,0,0,.627.031,0.273,0.273,0,0,1,.157-0.031v0.219c1.512,0.061,3.125.094,4.674,0.094h2.416a7.782,7.782,0,0,0,1.412.031,7.793,7.793,0,0,0,1.412-.031l1.067,0.031A8.421,8.421,0,0,1,40,18.281v0.687a11.672,11.672,0,0,1-1.851-.156c-0.254-.05-0.581.095-0.878,0.031a12.478,12.478,0,0,0-2.416,0c-2.519,0-5.077.021-7.5,0.125v0.219H27.42a0.765,0.765,0,0,1,.345-0.031v0.625c-0.329,0-.542-0.06-0.91-0.062V19.75c0.178,0.29.046,0.832,0.251,1.094,0.287,0.168.623-.026,0.627,0.438,0.162,0.273-.2.49-0.533,0.469a0.613,0.613,0,0,0-.251-0.062,1.823,1.823,0,0,1-.408.688,0.107,0.107,0,0,0,.031.063c0.265,0.165.484,0.107,0.471,0.563h0.126v0.094h-1.6v0.094h0.188v0.156l1.506-.156V23.25a1.635,1.635,0,0,0-.125.625h0.031a0.629,0.629,0,0,1,.408-0.094v0.063a1.81,1.81,0,0,0,.094.563,1.779,1.779,0,0,1,.439-0.062,1.279,1.279,0,0,1,.533-0.25c0.075,0.057.512,0.355,0.565,0.375h0.22a3.535,3.535,0,0,1,.533.313c-0.019.077-.074,0.093-0.031,0.125a0.639,0.639,0,0,0,.251.313,0.809,0.809,0,0,0,.157.563c0.091,0,.044-0.03.094,0s0.058,0.089.094,0.125a0.192,0.192,0,0,0-.063.125,0.546,0.546,0,0,1,.251.313h3.733v0.125h0.094c0.09,0.583,1.23,1.17,1.443,1.75a2.432,2.432,0,0,0-1.255.594,0.409,0.409,0,0,1,0,.281,1.76,1.76,0,0,1-.6,1.219,5.189,5.189,0,0,1-.784.406c-0.293.177-.637,0.374-0.941,0.531-0.076.039-.169,0.013-0.251,0.063a19.686,19.686,0,0,1-2.6,1.344,6.544,6.544,0,0,1-1.035.281H26.541l-0.314-.031a8.448,8.448,0,0,1-2.2,0l-0.345.031H21.8a8.483,8.483,0,0,0-1,0H17.443c-0.564-.112-1.457.05-2.133,0-0.857-.064-2.005,0-2.886,0H11.106l-0.345-.031a7.609,7.609,0,0,1-2.071,0l-0.251.031H6.776c-0.864-.206-1.861-0.494-2.635-0.75-1.048-.347-2.67-0.56-3.357-1.25A2.453,2.453,0,0,1,.5,30.469a2,2,0,0,1-.282-1.5c0.045-.181.009-0.452,0.063-0.687H0.345a0.234,0.234,0,0,0,.125.125V28.375A1.01,1.01,0,0,0,.6,28.188a2.7,2.7,0,0,1-.345-0.344l0.063-.187A0.649,0.649,0,0,1,0,27.188a2.8,2.8,0,0,0,.784-0.375L1.1,26.75V26.188a0.439,0.439,0,0,0,.22-0.062,0.368,0.368,0,0,0,.22-0.156,0.121,0.121,0,0,1-.063-0.094,7.975,7.975,0,0,1,1-.844,7.6,7.6,0,0,1,.973-0.156l0.094-.031V23.188H3.859V23.094A0.527,0.527,0,0,1,4.2,23.031a0.542,0.542,0,0,0,.408.156,0.8,0.8,0,0,0,.063-0.156H4.706C4.737,23,4.675,23,4.675,23a2.949,2.949,0,0,0-1.035-.031H1.663a7.448,7.448,0,0,1-.816,0V22.906C0.8,22.826.824,22.792,0.91,22.75a1.4,1.4,0,0,1,.533-0.031H2.792V22.563H2.824V22.531a0.108,0.108,0,0,1,.063.031,0.27,0.27,0,0,1,.031.156H9.129a0.4,0.4,0,0,1,.376-0.031,1.865,1.865,0,0,1,.063.5H9.663V23.125c0.046-.075.079-0.311,0.125-0.406,0.583-.045,1.281-0.031,1.914-0.031a1.567,1.567,0,0,1,.722.063c0.131,0.166-.038.406,0.251,0.438a2.241,2.241,0,0,1,.784,0h1.82a2,2,0,0,0,.879-0.062h0.031V23.094H14.463c-0.147-.546-0.614-0.961-0.753-1.5a2.046,2.046,0,0,1,.126-0.812l0.345-2.313c-0.019-.042-0.063.028-0.094-0.125h0.031V18.313h0.094a18.088,18.088,0,0,0,.282-2.25h3.012a1.848,1.848,0,0,1,.282-1.125c0.2-.28.369-0.092,0.345-0.594a1.549,1.549,0,0,1-.314-0.156c0.171-.3-0.084-0.612.314-0.75a1.459,1.459,0,0,1,.91,0c0.12,0.187.275,0.409,0.408,0.594H19.326c0.029,0.152.093,0.13,0.125,0.281-0.153.072-.034,0.214-0.094,0.344a0.981,0.981,0,0,0-.188.125,0.913,0.913,0,0,0-.094.656h0.063a1.921,1.921,0,0,0,.533.188,2.726,2.726,0,0,1,.471,0c0.061,0.023.2,0.1,0.282,0.125h0.22a1.394,1.394,0,0,1,.282.313h0.816V15.906h0.408a0.491,0.491,0,0,1,.031.156h0.847a0.971,0.971,0,0,1,.345-0.25,2.617,2.617,0,0,1,.314-0.75,0.424,0.424,0,0,0,.157-0.125,0.089,0.089,0,0,0,.031-0.031,0.186,0.186,0,0,1-.126-0.062V14.813H23.78a3.031,3.031,0,0,1,.941-0.094V6h0.031C24.752,9.356,24.783,12.754,24.784,16.063Z" transform="translate(0 0.5)"/>
</svg>
