<?xml version="1.0" encoding="utf-8"?>
<!-- Generator: Adobe Illustrator 16.0.0, SVG Export Plug-In . SVG Version: 6.00 Build 0)  -->
<!DOCTYPE svg PUBLIC "-//W3C//DTD SVG 1.1//EN" "http://www.w3.org/Graphics/SVG/1.1/DTD/svg11.dtd">
<svg version="1.1" id="Layer_1" xmlns="http://www.w3.org/2000/svg" xmlns:xlink="http://www.w3.org/1999/xlink" x="0px" y="0px"
	 width="40px" height="40px" viewBox="0 0 40 40" enable-background="new 0 0 40 40" xml:space="preserve">
<path id="Color_Fill_1" fill="#FFFFFF" d="M15.341,12.727c0.291,0.082,0.586,0.148,0.884,0.2c0.003-0.178,0.075-0.348,0.2-0.474
	v0.118l-0.12,0.354h0.8c0.156,0.049,0.32,0.063,0.482,0.04c0.002,0.093,0.016,0.186,0.04,0.276h0.08
	c0.479,0.074,0.964,0.087,1.446,0.04c0.883,0.067,1.771,0.054,2.652-0.04c0.49-0.1,0.848,0.1,1.364,0v0.274
	c-1.72-0.016-3.7,0-5.542,0c-0.029,0.14-0.049,0.1-0.08,0.237l0.723-0.039v0.2l-1.2,0.04v0.118h-0.684
	c-0.033-0.128,0.021-0.061-0.08-0.118c-0.177,0.092-0.367,0.16-0.562,0.2c-0.076,0.229-0.089,0.474-0.04,0.71h0.2
	c0.242-0.14,0.528-0.182,0.8-0.118v0.04h0.04c-0.036,0.063-0.063,0.13-0.08,0.2c0.452,0.054,0.897,0.16,1.325,0.316l0.482,0.04
	c0.38,0.1,0.85,0.228,1.2,0.355l0.763,0.158c0.099,0.089,0.207,0.168,0.321,0.237l1.888,0.079v0.145l11.365,0.118v-0.118
	c0.706,0.033,1.733,0,2.57,0c0.348-0.031,0.699-0.018,1.044,0.039c0.03-0.156,0-0.127,0.161-0.158c0.024,0.063,0.037,0.131,0.04,0.2
	h0.6l0.04-0.2c0.021,0.021,0.035,0.049,0.04,0.079c0.079,0.064,0.181,0.093,0.281,0.079c0.347-0.035,0.696-0.035,1.044,0
	c0.141,0.223,0.184,0.494,0.12,0.75c-0.05,0.029-0.091,0.07-0.12,0.118c-0.425-0.069-0.857-0.082-1.285-0.039l-0.04,0.158
	c-0.021-0.021-0.035-0.049-0.04-0.079c-0.025-0.034-0.039-0.075-0.04-0.118c-0.2,0.006-0.401-0.007-0.6-0.04
	c-0.009,0.18,0,0.2-0.161,0.237c-0.02-0.056-0.047-0.109-0.08-0.158c-0.328,0.072-0.667,0.085-1,0.039c-0.928,0-2.088-0.013-2.57,0
	v-0.115l-11.365,0.118v0.158h-1.121c-0.222,0.066-0.451,0.106-0.683,0.118v0.119c0.485-0.033,0.973,0.006,1.446,0.118
	c0.051,0.011,0.458-0.08,0.643-0.079v0.079c-0.101,0.051-0.027-0.017-0.08,0.079c0.326,0.077,0.584,0.341,0.924,0.434
	c-0.007-0.111,0.021-0.221,0.08-0.316c0.074-0.036,0.158-0.05,0.24-0.04c0.049,0.03,0.105,0.043,0.161,0.04l0.08,0.474h0.08
	c0.028-0.4,0.156-0.537,0.642-0.513c0.131,0.049,0.264,0.089,0.4,0.118c0.053,0.097,0.081,0.206,0.08,0.316
	c-0.073,0.073-0.116,0.172-0.12,0.276H25.5c0.028-0.073,0.068-0.141,0.12-0.2c0.044,0.042,0.101,0.07,0.161,0.079
	c0,0.125-0.068,0.053,0.039,0.118c0.227,0.032,0.455,0.045,0.684,0.041c0.758,0.297,1.395,0.838,1.807,1.539
	c-0.259-0.025-0.498,0.143-0.562,0.396c0.092,0.077,0.137,0.196,0.12,0.315c-0.139,0.166-0.211,0.377-0.2,0.592
	c-0.14,0.082-0.274,0.174-0.399,0.276l-0.041,0.2l-0.399,0.039c-0.083,0.064-0.151,0.145-0.2,0.237l-0.24-0.04
	c-0.144,0.078-0.277,0.17-0.4,0.275c-0.152-0.016-0.305,0.012-0.442,0.079c-0.026,0.074-0.067,0.142-0.12,0.2l-0.119-0.079
	c-0.183,0.046-0.341,0.158-0.442,0.316c-0.101-0.027-0.028-0.048-0.08-0.079l-0.4,0.158c-0.009,0.06-0.037,0.115-0.079,0.158
	l-0.242-0.039c-0.113,0.083-0.221,0.176-0.32,0.275c-0.107-0.009-0.215-0.009-0.321,0c-0.083,0.064-0.151,0.145-0.2,0.237
	l-0.24-0.04c-0.2,0.047-0.307,0.232-0.522,0.275C22.3,23.725,22,24.016,21.807,23.977c-0.127-0.093-0.29-0.122-0.441-0.078
	c-0.042,0.067-0.123,0.1-0.2,0.078v-0.078c-0.202-0.003-0.405,0.023-0.601,0.078v-0.078c-0.177-0.025-0.359,0.002-0.521,0.078
	c-0.135,0.015-0.075-0.061-0.12-0.078c-0.165-0.027-0.334,0-0.482,0.078c-0.133,0.029-0.081-0.063-0.12-0.078
	c-0.165-0.028-0.334,0-0.482,0.078h-0.164v-0.078c-0.203-0.004-0.405,0.022-0.6,0.078v-0.078c-0.217,0.003-0.432,0.029-0.643,0.078
	v-0.078c-0.203-0.004-0.405,0.022-0.6,0.078v-0.078c-0.178-0.025-0.359,0.002-0.522,0.078c-0.135,0.016-0.075-0.061-0.12-0.078
	c-0.165-0.027-0.334,0-0.482,0.078h-0.12v-0.078c-0.216,0.003-0.432,0.029-0.643,0.078v-0.078c-0.165-0.026-0.334,0.001-0.482,0.078
	c-0.181-0.059-0.371-0.086-0.562-0.078c-0.042,0.066-0.123,0.1-0.2,0.078v-0.078c-0.203,0.003-0.404,0.029-0.6,0.078v-0.078
	c-0.217,0.001-0.433,0.027-0.643,0.078v-0.078c-0.152-0.028-0.309,0-0.442,0.078h-0.12c-0.149-0.072-0.317-0.1-0.482-0.078
	c-0.049,0.015-0.034,0.107-0.161,0.078l-0.04-0.078c-0.202,0.012-0.402,0.038-0.6,0.078c-0.37-0.137-0.954,0.039-1.245-0.078
	c-0.203-0.004-0.405,0.021-0.6,0.078v-0.078c-0.217,0.003-0.432,0.029-0.643,0.078v-0.078H7.871
	c-0.117,0.04-0.238,0.066-0.361,0.078v-0.078c-0.216,0.003-0.432,0.029-0.643,0.078v-0.078h-0.24
	c-0.117,0.04-0.238,0.066-0.361,0.078v-0.078c-0.217,0.003-0.432,0.029-0.643,0.078v-0.078c-0.165-0.028-0.334,0-0.482,0.078
	c-0.127,0.03-0.112-0.063-0.161-0.078l-0.643,0.039v-0.121c-0.202-0.013-0.402-0.039-0.6-0.08c-0.075-0.119-0.17-0.227-0.281-0.315
	H3.213c-0.133-0.078-0.2-0.491-0.482-0.315c-0.07-0.052-0.057-0.184-0.12-0.237c-0.088-0.062-0.183-0.112-0.282-0.152
	c-0.047,0.032-0.104,0.046-0.161,0.039c-0.025-0.049-0.039-0.103-0.04-0.157c-0.155-0.141-0.354-0.224-0.562-0.238
	c0.021-0.05,0.021-0.106,0-0.157c-0.068,0.001-0.136,0.015-0.2,0.04c-0.017-0.141,0.019-0.1-0.08-0.158
	c-0.056-0.006-0.11-0.019-0.161-0.04c-0.1-0.147-0.03-0.213-0.281-0.237v-0.199H0.723c-0.035-0.049-0.062-0.102-0.08-0.158
	c0.089-0.092,0.046-0.031,0.04-0.2c-0.063-0.024-0.119-0.064-0.161-0.118c0.043-0.023,0.072-0.066,0.078-0.115
	c-0.117-0.213-0.211-0.438-0.281-0.671c0.001,0.081-0.012,0.161-0.04,0.237H0.161C0.136,20.403,0.081,20.23,0,20.068
	c0.06-0.114,0.114-0.232,0.161-0.353c0.151-0.156,0.285-0.328,0.4-0.513c-0.183-0.141-0.288-0.361-0.281-0.592
	c0.066-0.141,0.18-0.253,0.32-0.319c0.174-0.115,0.544-0.042,0.723-0.158c0.082-0.065-0.028-0.046,0.08-0.079
	c0.488-0.105,0.987-0.158,1.486-0.158c0.101-0.043,0.212-0.057,0.321-0.04c0.039,0.012-0.045,0.067,0.04,0.079
	c0.244-0.095,0.505-0.136,0.766-0.12c0.144,0.044,0.292,0.071,0.442,0.079c0.281-0.11,0.582-0.164,0.884-0.158
	c0.854,0.124,1.721,0.111,2.57-0.04c0.604,0.027,1.208,0.001,1.807-0.079H9.4c0.008-0.133-0.005-0.267-0.04-0.395l-0.12,0.079
	c0-0.115,0.039-0.055,0-0.118c-0.075,0.07-0.032,0.073-0.12,0.039c0,0-0.159-0.017-0.08-0.039h0.04v-0.04l0.12,0.04v-0.04
	c-0.051-0.005-0.096-0.035-0.12-0.079h0.04v-0.036c0.075,0.041,0.156,0.067,0.241,0.079l0.04-0.158H9.237
	C9.164,17,9.084,17.04,9,17.069l0.04-0.079H9c-0.048,0.029-0.104,0.043-0.161,0.04c-0.008,0.055,0.033-0.016,0.04,0.039
	c0.077,0.031-0.08,0.039-0.08,0.039C8.46,16.814,8.032,16.852,8.036,16.2c-0.026-0.183,0.051-0.365,0.2-0.474
	c0.317-0.369,0.833-0.495,1.285-0.316c0.139,0.135,0.303,0.242,0.482,0.316c0.022-0.021,0.05-0.035,0.08-0.039
	c0.236-0.716,1.008-1.105,1.724-0.869c0.001,0,0.002,0,0.003,0.001c-0.043-0.189,0.073-0.289,0.361-0.276
	c0.022-0.021,0.05-0.035,0.08-0.04v-0.04c-0.162,0.023-0.321-0.057-0.4-0.2c0.1-0.051,0.027,0.018,0.08-0.079
	c-0.096-0.049-0.168-0.134-0.2-0.237h0.04c0.103,0.049,0.21,0.089,0.321,0.118c0.153,0.094,0.314,0.173,0.482,0.237
	c0.524-0.02,1.047-0.073,1.566-0.158v-0.075c-0.03-0.047-0.044-0.102-0.04-0.158c0.079-0.018,0.142-0.079,0.161-0.158
	c-0.081-0.067-0.112-0.176-0.08-0.276c0.075-0.078,0.13-0.172,0.161-0.276c-0.173-0.064-0.316-0.191-0.4-0.355
	c0.086-0.095,0.197-0.165,0.321-0.2v-0.117h0.08c0.232-0.084,0.483-0.098,0.723-0.04c0.004,0.054,0.018,0.107,0.04,0.158
	c0.057-0.006,0.113,0.008,0.161,0.039v-0.67h0.08v0.71L15.341,12.727z M15.141,12.727c-0.035,0.033-0.063,0.073-0.08,0.118
	c-0.017,0.01-0.03,0.023-0.04,0.039h0.241C15.25,12.815,15.205,12.756,15.141,12.727z M14.217,12.767v0.118
	c0.099,0.028,0.193,0.067,0.281,0.118v-0.079C14.355,12.832,14.528,12.778,14.217,12.767L14.217,12.767z M15.341,12.807l0.04,0.158
	h0.442v-0.04C15.66,12.897,15.499,12.857,15.341,12.807L15.341,12.807z M17.269,13.083c0.069,0.035,0.051,0.035,0.12,0H17.269z
	 M16.385,13.754c-0.162-0.011-0.324,0.002-0.482,0.04v0.039h0.4c0.022,0.021,0.05,0.035,0.08,0.04v-0.12L16.385,13.754z
	 M17.068,13.754c0.022,0.021,0.05,0.036,0.08,0.04C17.126,13.772,17.098,13.758,17.068,13.754L17.068,13.754z M15.542,13.794
	c-0.016,0.066-0.016,0.134,0,0.2v0.04h0.04l0.04-0.237h-0.08V13.794z M14.177,14.149c0.194,0.063,0.4,0.077,0.6,0.04
	c-0.008,0.132-0.086,0.095,0.04,0.158c0.001-0.069,0.015-0.136,0.04-0.2C14.66,14.139,14.27,13.806,14.177,14.149L14.177,14.149z
	 M15.422,14.07c-0.048,0.084-0.076,0.179-0.08,0.276h0.08c0.063-0.065,0.104-0.147,0.12-0.237L15.422,14.07z M15.261,14.228
	c-0.043,0-0.085,0.014-0.12,0.04h0.04v0.04l0.08,0.039V14.228L15.261,14.228z M38.555,16.556c-0.021,0.146-0.008,0.294,0.039,0.434
	C38.615,16.844,38.602,16.695,38.555,16.556z M38.715,16.556c-0.021,0.146-0.008,0.294,0.04,0.434
	C38.776,16.844,38.763,16.695,38.715,16.556z M39.036,16.556v0.434h0.08c-0.027-0.144-0.027-0.291,0-0.434H39.036z M39.357,16.556
	v0.434h0.08v-0.434H39.357z M39.678,16.556v0.434h0.08v-0.434H39.678z M8.878,17.109h0.08v0.04c-0.031-0.004-0.06-0.018-0.082-0.041
	L8.878,17.109z M8.998,17.109c0.014,0.012,0.08,0.021,0.04,0.079c-0.047-0.02-0.127-0.072-0.038-0.08L8.998,17.109z M24.781,17.938
	c-0.049,0.029-0.105,0.043-0.161,0.039c-0.021,0.05-0.034,0.104-0.04,0.158h0.04c0.066-0.071,0.149-0.125,0.241-0.158
	c-0.022-0.022-0.051-0.036-0.082-0.04L24.781,17.938z M25.1,17.977c-0.016,0.198-0.002,0.398,0.041,0.591h0.079v-0.236
	c0.048-0.113,0.048-0.242,0-0.355H25.1z M25.3,18.016c0.015,0.185,0.001,0.372-0.04,0.552h0.08v-0.039
	c0.104-0.12,0.147-0.279,0.12-0.435C25.41,18.061,25.357,18.034,25.3,18.016z M0.562,19.438c-0.094,0.185-0.225,0.319-0.321,0.513
	h0.08c0.06-0.214,0.21-0.269,0.281-0.474h0.04v-0.039H0.562z M1,19.832v-0.158c-0.049-0.034-0.104-0.061-0.161-0.079
	c-0.045,0.041-0.101,0.068-0.161,0.079c-0.084,0.093-0.152,0.199-0.2,0.316H0.6C0.721,19.91,0.857,19.856,1,19.832z M26.141,21.49
	c0.001-0.043-0.014-0.084-0.039-0.118v0.039h-0.041l-0.039,0.079H26.141z M25.579,21.607c-0.044,0.043-0.101,0.07-0.161,0.08v0.078
	c0.104,0.014,0.186,0.096,0.2,0.2c0.03-0.004,0.058-0.018,0.08-0.039c0.1-0.051,0.026,0.017,0.079-0.079
	c-0.049-0.053-0.072-0.141-0.119-0.199c-0.021-0.021-0.047-0.035-0.076-0.041H25.579z M26.141,21.607
	c0.033,0.057,0.097,0.088,0.161,0.08v-0.041L26.141,21.607z M25.057,21.884c-0.054,0.05-0.144,0.072-0.199,0.118
	c0.106,0.062,0.201,0.142,0.281,0.237v-0.04c0.1-0.059,0.062-0.018,0.079-0.158c-0.043-0.043-0.071-0.098-0.079-0.158h-0.078
	L25.057,21.884z M24.014,22.084c-0.068,0.23-0.082,0.474-0.041,0.71h0.041c0.021-0.021,0.049-0.035,0.079-0.04
	c0.024-0.064,0.038-0.131,0.04-0.2c-0.068-0.104-0.098-0.23-0.08-0.354c0.061-0.035,0.131-0.05,0.2-0.04
	c0.131,0.083,0.229,0.208,0.281,0.354l0.12-0.039l0.039-0.119c-0.084-0.113-0.126-0.253-0.119-0.395
	c-0.254,0.014-0.311,0.098-0.559,0.121L24.014,22.084z M20.6,22.124h-0.239c-0.041,0.562-0.462,0.63-0.482,1.185
	c0.078,0.025,0.159,0.039,0.241,0.039v-0.082c0.047-0.139,0.061-0.288,0.04-0.434h0.281l0.04,0.513h0.242
	c0.031-0.45-0.009-0.903-0.121-1.342v0.119L20.6,22.124z M2.45,22.161c-0.035,0.033-0.063,0.073-0.08,0.119
	c-0.01,0.038-0.031,0.015,0,0.038c0.038,0.043,0.078,0.082,0.12,0.119c0.03-0.005,0.058-0.019,0.08-0.041
	c0.049-0.057,0.103-0.109,0.161-0.157c-0.022-0.021-0.05-0.036-0.08-0.04C2.589,22.167,2.52,22.153,2.45,22.161z M2.972,22.398
	c-0.028,0.072-0.069,0.141-0.12,0.199c0.004,0.03,0.018,0.059,0.04,0.079c0.042,0.037,0.083,0.077,0.12,0.118h0.04v-0.04
	c0.081-0.058,0.138-0.143,0.161-0.239h-0.04c-0.052-0.1,0.017-0.026-0.08-0.078C3.058,22.412,3.016,22.398,2.972,22.398z
	 M16.872,22.832l0.04,0.513h0.161c0.021-0.091,0.034-0.183,0.04-0.276c-0.046-0.144-0.136-0.281-0.2-0.434h-0.04v0.04
	c-0.047,0.048-0.087,0.101-0.12,0.158L16.872,22.832L16.872,22.832z M13.378,23.107h0.241c-0.007-0.121-0.034-0.241-0.08-0.354
	h-0.04v0.04l-0.2,0.158c0.016,0.12,0.043,0.239,0.08,0.355v-0.201L13.378,23.107z M6.872,23.345c0.144-0.016,0.1,0.02,0.161-0.079
	c0.01-0.037,0.031-0.015,0-0.039c-0.063-0.096-0.145-0.177-0.241-0.237v0.118c0.097,0.059,0.076,0.084,0.075,0.237H6.872z
	 M10,23.029c-0.035,0.048-0.062,0.102-0.08,0.158c0.026,0.033,0.054,0.123,0.08,0.157v-0.079C10.05,23.195,10.05,23.1,10,23.029z
	 M16.466,23.107c0.13-0.032,0.061,0.02,0.12-0.078h-0.08c-0.088,0.074-0.157,0.168-0.2,0.275h0.04v0.039
	c0.03-0.004,0.058-0.018,0.08-0.039C16.459,23.245,16.473,23.176,16.466,23.107z M6.386,23.227c-0.035,0.031-0.076,0.059-0.12,0.078
	v0.039h0.16v-0.078l0.04-0.039H6.386z M19.519,23.227c-0.054,0.049-0.144,0.071-0.2,0.117
	C19.451,23.344,19.616,23.311,19.519,23.227L19.519,23.227z M21.085,23.266v0.079h0.08v-0.038L21.085,23.266z M12.531,23.503
	c0.021,0.021,0.05,0.036,0.08,0.04C12.589,23.521,12.561,23.508,12.531,23.503L12.531,23.503z M13.131,23.503
	c0.022,0.021,0.05,0.036,0.08,0.04c-0.021-0.021-0.048-0.035-0.078-0.04H13.131z M5.26,23.543c-0.035,0.025-0.126,0.053-0.161,0.079
	h0.162l0.04-0.079H5.26L5.26,23.543z M5.822,23.583c0.021,0.021,0.05,0.035,0.08,0.04C5.881,23.602,5.853,23.587,5.822,23.583
	L5.822,23.583z M6.422,23.583c0.022,0.021,0.05,0.035,0.08,0.04c-0.021-0.021-0.047-0.035-0.076-0.041L6.422,23.583z M7.022,23.583
	c0.022,0.021,0.05,0.035,0.08,0.04c-0.02-0.021-0.046-0.035-0.074-0.041L7.022,23.583z M8.789,23.583c0.059,0.046,0.141,0.046,0.2,0
	H8.8H8.789z M9.389,23.583c0.059,0.046,0.141,0.046,0.2,0H9.4H9.389z M9.989,23.583c0.059,0.046,0.141,0.046,0.2,0H10H9.989z
	 M10.589,23.583c0.073,0.049,0.168,0.049,0.241,0H10.6H10.589z M11.914,23.583c0.045,0.042,0.115,0.042,0.161,0h-0.147H11.914z
	 M12.436,23.583c0.073,0.049,0.168,0.049,0.241,0H12.45H12.436z M13.079,23.583c0.059,0.046,0.141,0.046,0.2,0H13.079z
	 M13.679,23.583c0.073,0.049,0.168,0.049,0.241,0h-0.225H13.679z M14.322,23.583c0.069,0.035,0.051,0.035,0.12,0H14.322z
	 M15.522,23.583c0.059,0.046,0.141,0.046,0.2,0H15.522z M16.165,23.583c0.045,0.042,0.115,0.042,0.161,0h-0.141H16.165z
	 M16.765,23.583c0.045,0.042,0.115,0.042,0.161,0h-0.139H16.765z M17.365,23.583c0.045,0.042,0.115,0.042,0.161,0H17.39H17.365z"/>
</svg>
