<svg xmlns="http://www.w3.org/2000/svg" width="80" height="40" viewBox="0 0 80 40">
  <defs>
    <style>
      .cls-1 {
        fill: #fff;
        fill-rule: evenodd;
      }
    </style>
  </defs>
  <path id="ussr_1124_ack_ico" class="cls-1" d="M39.015,13.03V12.869H38.933v6.5a1,1,0,0,1,.123.4h0.082a0.791,0.791,0,0,1,0-.4,2.413,2.413,0,0,0,.123.323h0.164V19.616a1.145,1.145,0,0,0,.082-0.2,0.7,0.7,0,0,1-.246-0.04l0.041-.121a2.51,2.51,0,0,0,.574-1.091l0.164-.566h0.205V17.434h0.123V17.6h0.451a0.594,0.594,0,0,1,.164-0.4,2.049,2.049,0,0,0,0-.566,0.414,0.414,0,0,1-.41-0.4,0.346,0.346,0,0,1-.041-0.2,1.286,1.286,0,0,1,.9-0.4,3.89,3.89,0,0,1,.041,1.05c-0.031.01-.188,0.087-0.205,0v0.768a0.145,0.145,0,0,1,.041.081h0.9a0.659,0.659,0,0,0,.328.04V17.434h0.123v0.121l0.985,0.04c0.2,1,.3,1.012,1.518.97a2.353,2.353,0,0,0,1.231,0,0.625,0.625,0,0,1,.041.2,0.591,0.591,0,0,1-.164.04,1.359,1.359,0,0,0-.9-0.04c0.016,0.118.067,0.051-.041,0.121a3.422,3.422,0,0,1-1.231.04v0.04a0.743,0.743,0,0,1,.328.444H44.185v0.04a0.23,0.23,0,0,1,.082.242l2.5,0.364V19.737a0.649,0.649,0,0,1,.205-0.04,1.311,1.311,0,0,1,.041.4h0.205a7.368,7.368,0,0,0,.287.929H47.262c-0.022.547-.04,1.21-0.041,1.818a1.37,1.37,0,0,0,.41.04,4.761,4.761,0,0,0,1.354.081,4.406,4.406,0,0,0,1.559-.121V22.97a0.2,0.2,0,0,1,.123.04H50.544v0.162a2.133,2.133,0,0,1,.369.283c-0.1.052-.028-0.017-0.082,0.081,0.233,0.192.151,0.408,0.615,0.4,0.06-.037,1.117.035,1.354,0.04V23.818H52.513V23.374a3.413,3.413,0,0,0-.9-0.04V23.253a0.558,0.558,0,0,1,.123-0.485,1.622,1.622,0,0,1-.082-0.242c0.421-.276.275-0.793,0.533-1.051l0.246-.081c0.069-.048.1-0.2,0.164-0.242a1.207,1.207,0,0,1,1.354.242,5.945,5.945,0,0,1,1.272,0V21.313a0.345,0.345,0,0,0,.041-0.2,0.281,0.281,0,0,0,.164-0.04,1.358,1.358,0,0,0,.205.2,0.482,0.482,0,0,1,.246,0,0.156,0.156,0,0,0-.123.081,0.424,0.424,0,0,0,.492-0.081,0.754,0.754,0,0,1,.041-0.525h0.082a0.271,0.271,0,0,1,.246,0,1.079,1.079,0,0,0,.164.606,1.62,1.62,0,0,0,.738.121,4.892,4.892,0,0,1,.574.242h1.231c0.12,0.355,1.329.215,1.805,0.2a2.874,2.874,0,0,0,1.026.04c0.924,0,1.838.04,2.667,0v0.364H59.733v0.606H58.339l-0.082.525H58.215v-0.04a1.149,1.149,0,0,1-.082-0.2H58.051c0,0.163-.093.539-0.123,0.768a21.887,21.887,0,0,0,3.528-.04,3.572,3.572,0,0,0,.041-0.97c0.028-.031.054-0.09,0.082-0.121A1.8,1.8,0,0,0,61.7,23.98v-0.04a6.227,6.227,0,0,0,.287-1.172h0.041a1.644,1.644,0,0,0,1.108.727,2.431,2.431,0,0,1,1.026-.485v0.081a4.821,4.821,0,0,0-.246.929h1.19a3.425,3.425,0,0,1,.123-1.172c0,0.4.015,0.829,0.041,1.172a5.178,5.178,0,0,0,.944-0.121c0.17-.026.434,0.035,0.615,0,0.017-.145-0.019-0.1.082-0.162,0.017,0.145-.019.1,0.082,0.162a5.2,5.2,0,0,0,1.067.04,0.611,0.611,0,0,1,.533-0.2,2.275,2.275,0,0,1,.041-0.889,9.871,9.871,0,0,1,.041,1.05,2.573,2.573,0,0,0,.7.04A0.657,0.657,0,0,1,69.7,23.9V24.02h2.051V23.939c0.162-.266-0.057-0.857.123-1.091a2.476,2.476,0,0,0,.082,1.131,1.634,1.634,0,0,0,.656.04c0.047-.115.126-0.02,0.287,0a0.193,0.193,0,0,1,.041-0.121,0.589,0.589,0,0,0,.533.081,1.217,1.217,0,0,1,.123-0.323H73.436v-0.04a0.463,0.463,0,0,0,.082-0.364c0.411,0,.566-0.016.9,0v0.04a0.653,0.653,0,0,0,.123.566,0.343,0.343,0,0,0,.328.04,0.193,0.193,0,0,1,.041-0.121,0.45,0.45,0,0,1,.246-0.04,0.279,0.279,0,0,1,.164-0.04c-0.027.145-.08,0.114-0.041,0.2a0.551,0.551,0,0,0,.287.04,0.565,0.565,0,0,0,.041-0.162,0.25,0.25,0,0,1-.082-0.081h0.164c0.094,0.23.033,0.251,0.41,0.242,0.086-.139.247,0,0.492,0.04l-0.041-.121a3.481,3.481,0,0,1,.451-0.323c0.169,0.137.232-.018,0.41-0.04a0.961,0.961,0,0,1,.287.121,1.977,1.977,0,0,0,.328-0.081,0.922,0.922,0,0,1,.082.485c0.214-.014.2-0.063,0.41-0.081V23.657h0.164v0.283h0.164V23.657h0.164v0.283a5.736,5.736,0,0,0,.574.081c0-1.61-.03-3.3-0.041-4.848h0.205c-0.005,1.55,0,3.293,0,4.848H80a12,12,0,0,1-.369,2.343,3.845,3.845,0,0,1-.246,1.131c-0.562.857-2.368,1.354-3.528,1.7-3.667,1.085-9.209.727-13.908,0.727-12.57,0-25.241.04-37.744,0.04l-12.759-.04c-0.334-.071-0.846.041-1.231-0.04A17.408,17.408,0,0,0,8,29.758l-0.779-.081a0.5,0.5,0,0,1-.287.121A0.7,0.7,0,0,0,6.4,29.556a0.366,0.366,0,0,1-.123.364H4.759a1.161,1.161,0,0,1-.123-0.687,3.281,3.281,0,0,1-.9-0.283,15.372,15.372,0,0,1-2.092-.808A1.756,1.756,0,0,1,.779,27.7a7.954,7.954,0,0,0,.287-1.455H0.9A0.451,0.451,0,0,0,.656,26.2V25.96l0.451-.04V25.838a0.345,0.345,0,0,0,.041-0.2H1.272l0.041-.283H0.862A7.4,7.4,0,0,1,0,24.141,2.014,2.014,0,0,1,.41,23.9v0.04c0.265,0.269.421,0.943,0.9,0.97a2.693,2.693,0,0,1,0-.4,0.212,0.212,0,0,1,.123-0.04,1.038,1.038,0,0,0,1.067,0l0.41,0.04c-0.013-1.58-.236-2.949-0.246-4.566-0.23.031-.222-0.033-0.205-0.4a0.145,0.145,0,0,1-.041-0.081H2.462v-0.04c0.093,0.016.044,0.037,0.123,0a1.082,1.082,0,0,0,.041-0.485,5.02,5.02,0,0,1-.082-1.374,0.2,0.2,0,0,1-.123-0.04c0.133-.034.063,0.02,0.123-0.081A0.738,0.738,0,0,1,2.5,17.071a0.761,0.761,0,0,1,.246-0.04v0.081a4.929,4.929,0,0,1,.082.97,0.579,0.579,0,0,1,.287.081C2.953,18.2,3,18.246,2.831,18.283l0.328,6.263a16.753,16.753,0,0,0,3.036-.081A1.091,1.091,0,0,0,6.154,24.1H6.277V23.939l0.205-.04c0.042-.213.2-0.178,0.451-0.162v0.081a0.364,0.364,0,0,0-.369.081H6.646c0.416,0.261,1.456-.468,1.559-0.646l0.041-.242H8.492a1.971,1.971,0,0,1,.9-0.081,12.175,12.175,0,0,0,2.872.081,0.709,0.709,0,0,1,.082-0.162V23.01h5.908c0.4,0,1.969-.081,1.969-0.081a0.624,0.624,0,0,0,.164.081,1.247,1.247,0,0,1,.862,0,13.358,13.358,0,0,0,2.626-.04v-0.04H22.646V22.323c-1.684,0-3.47-.028-5.087.04v-0.4c1.731,0.073,3.624-.038,5.415-0.04,0.112-.319.887-0.216,1.313-0.2,0.286-.266,1.213-0.091,1.395-0.444a0.819,0.819,0,0,1,.123-0.485c0.03-.035.052-0.046,0.082-0.081a0.214,0.214,0,0,1,.205.121,0.694,0.694,0,0,1,.041.525l0.369,0.04a0.338,0.338,0,0,0,.082-0.121,0.141,0.141,0,0,1-.082-0.04,1.741,1.741,0,0,0,.574-0.121c0.148,0.421.485,0.306,1.026,0.283,0.128-.128.182-0.044,0.328,0,0.105-.051.19-0.186,0.287-0.242a1.631,1.631,0,0,1,1.067,0,0.893,0.893,0,0,0,.41.323l0.287,0.849,0.246,0.2a0.843,0.843,0,0,0,0,.364,0.841,0.841,0,0,0,.779-0.04,1.185,1.185,0,0,0-.082-0.283c-0.165.005-.224,0.022-0.287-0.081a0.222,0.222,0,0,0,0-.162h0.492a0.193,0.193,0,0,0,.041.121,0.28,0.28,0,0,1,.164-0.04,4.735,4.735,0,0,1,.123-1.737h-0.9v0.04H31.015v-0.04c-0.064-.076-0.078-0.083-0.041-0.162a0.506,0.506,0,0,1,.451-0.081,0.193,0.193,0,0,0-.041-0.121,4.027,4.027,0,0,0-1.395-.04H26.38a0.77,0.77,0,0,1-.369.04V19.98c1.651,0.067,3.559.039,5.415,0.04V19.9h0.862a2.979,2.979,0,0,1,.615-0.687,1.765,1.765,0,0,1-.082-0.4,0.477,0.477,0,0,0,.369-0.323l-0.041-.2a2.787,2.787,0,0,0,.164-0.323,0.248,0.248,0,0,1-.082-0.081,9.9,9.9,0,0,1,2.42-.121v0.768a0.948,0.948,0,0,0,.164.121,2,2,0,0,1,.123.364v0.283a1.217,1.217,0,0,1,.205.445c0.381-.007.349-0.152,0.738-0.162a0.362,0.362,0,0,0,.41.162,1.043,1.043,0,0,0,.123.364l-0.082.768a7.268,7.268,0,0,1,.041,1.454h0.656a0.821,0.821,0,0,0,0,.242c-0.443.023-.207,0.178-0.41,0.283h-1.19v0.04a0.432,0.432,0,0,1,.041.242c1.072,0,1.834.078,2.831,0.081V22.97H39.221a2.91,2.91,0,0,0-1.067-.04V22.849A2.172,2.172,0,0,1,38.113,22a4.14,4.14,0,0,0,.369-0.323,5.016,5.016,0,0,1,.82.162V21.313l-0.123-.04a4.115,4.115,0,0,1,.082-0.606,3.369,3.369,0,0,1-.944-0.889,0.985,0.985,0,0,0,.328-0.04c0-.329.079-0.452,0.082-0.808a0.2,0.2,0,0,1-.123-0.04,1.725,1.725,0,0,0,.123-1.091V14.525a13.108,13.108,0,0,1-1.518-1.455,0.962,0.962,0,0,0-.656-0.485,0.272,0.272,0,0,0-.041-0.242,0.114,0.114,0,0,0,.041-0.04,0.79,0.79,0,0,0,.287,0,0.761,0.761,0,0,0,.41.566,8.8,8.8,0,0,0,1.477,1.414V11.576a0.2,0.2,0,0,1-.123-0.04h0.041a1.986,1.986,0,0,0,.123-1.091l-0.082-.04a0.464,0.464,0,0,0,.041-0.4h0.205v0.04h0.041a7.291,7.291,0,0,0-.041,1.454,0.189,0.189,0,0,1,.164.04,2.617,2.617,0,0,0-.164,1.253h0.041v-0.04a1.3,1.3,0,0,1,.123-0.364,0.9,0.9,0,0,1,.041.646H39.015ZM3.446,17.96H3.528V18.04a1.432,1.432,0,0,1-.41.04A0.248,0.248,0,0,1,3.036,18H3.159A0.355,0.355,0,0,0,3.446,17.96Zm43.815,3.394a0.145,0.145,0,0,1,.041.081H47.262V21.354Zm3.405,1.576a0.884,0.884,0,0,1,.287.081H50.708Zm21.826,0.566a0.6,0.6,0,0,1,.246.242H72.615C72.575,23.615,72.535,23.617,72.492,23.495Zm-0.328.162a0.284,0.284,0,0,1,.205.121H72.41v0.04A0.273,0.273,0,0,1,72.164,23.657Zm0.246,0.162h0.082v0.04H72.41v-0.04Z" transform="translate(0 0.016)"/>
</svg>
