<svg xmlns="http://www.w3.org/2000/svg" width="40" height="40" viewBox="0 0 40 40">
  <defs>
    <style>
      .cls-1 {
        fill: #fff;
        fill-rule: evenodd;
      }
    </style>
  </defs>
  <path id="ussr_bm_8_24_ico" class="cls-1" d="M8.959,9V9.153H8.731l-0.025.076a0.13,0.13,0,0,0-.025.076,1.277,1.277,0,0,1,.406.585l0.228-.025V9.686h0.3l-0.025-.2H28.249c0,0.192.2,0.538,0.178,0.661a2.605,2.605,0,0,1-.178.407c-0.024.056,0.02,0.132,0,.153H26.777v0.127a0.072,0.072,0,0,0-.025.025,2.481,2.481,0,0,0-.558.025,2.666,2.666,0,0,0-.457.28c-0.377.231-.776,0.412-1.142,0.636-0.707.432-1.462,0.77-2.157,1.195-0.183.112-.384,0.158-0.558,0.28a0.987,0.987,0,0,0-.076.127,9.553,9.553,0,0,1-.99.585v1.144h0.076a1.477,1.477,0,0,1,.178-0.483,3.968,3.968,0,0,1,1.523-.025V14.67c-0.213-.005-0.262.065-0.254,0.28a0.219,0.219,0,0,1,.076.1H22.157a1.149,1.149,0,0,1-.457.025v0.051h2.233l-0.025.153H23.6v0.915h0.3v0.076H22.944v0.381h0.761v0.178h0.076v0.864h0.254a0.3,0.3,0,0,1,.178-0.229,0.794,0.794,0,0,0,.2-0.051,0.683,0.683,0,0,1,.1-0.1,1.364,1.364,0,0,1,.634.076h1.853c0.1-.284,1.257-0.186,1.675-0.178a0.178,0.178,0,0,0,.178.051,0.375,0.375,0,0,0,.076.254,0.183,0.183,0,0,0-.076.178h0.634a0.312,0.312,0,0,1,.178-0.076,4.312,4.312,0,0,1,.2.661l0.787,0.1-0.152.763H31.32a5.091,5.091,0,0,1,1.041,0h1.5a10.534,10.534,0,0,0,1.37.28v0.026a1.234,1.234,0,0,0-.406.076v0.025H35.3a2.809,2.809,0,0,0,.685.051c0.265,0.058.59-.018,0.888,0.051,0.246,0.057.511,0.093,0.761,0.178a4.594,4.594,0,0,1,.99.61c0.116,0.073.245,0.1,0.355,0.178a3.865,3.865,0,0,0,.787.585A0.423,0.423,0,0,1,40,21v0.152l-0.355.381c-0.268.186-.594,0.319-0.863,0.483a1.774,1.774,0,0,0-.66.381,1.31,1.31,0,0,1,.076.178,0.346,0.346,0,0,1,.178.152,0.752,0.752,0,0,0,0,.686,1.7,1.7,0,0,1-.025.178c0.016,0.049.156,0.081,0.127,0.178-0.018.06-.173,0.087-0.2,0.152l-0.076.483c-0.008.027-.071,0.105-0.076,0.127-0.024.1,0.055,0.163,0.025,0.229a0.575,0.575,0,0,1-.228.076c-0.1.2-.314,0.379-0.406,0.559a1.9,1.9,0,0,1-.051.2,0.335,0.335,0,0,0-.178-0.025,1.761,1.761,0,0,1-.431.381c-0.365.276-.67,0.635-1.041,0.915-0.138.1-.243,0.277-0.381,0.381-0.678.514-1.251,1.14-1.929,1.653-0.118.089-.21,0.243-0.33,0.331-0.2.148-.423,0.241-0.635,0.381a1.565,1.565,0,0,1-.228.178l-0.381.051a8.783,8.783,0,0,1-2,.127H10.914a8.344,8.344,0,0,1-2.005-.1,3.624,3.624,0,0,1-.863-0.483C7.536,29.078,7,28.83,6.5,28.525c-1-.609-2.059-1.1-3.046-1.7C3.09,26.6,2.682,26.48,2.335,26.237a1.018,1.018,0,0,1-.178-0.28,2.787,2.787,0,0,1-.381-0.508l-0.051-.407a2.139,2.139,0,0,1,0-1.093H1.65a3.528,3.528,0,0,1-.761.3,0.619,0.619,0,0,1-.254.051,0.767,0.767,0,0,1-.152-0.076l-0.051-.636L0.2,23.466V23.39H0.3V23.339a0.1,0.1,0,0,1-.051-0.076H0.279V23.237c0.129,0,.116-0.047.1-0.229a3.909,3.909,0,0,1-.1-1.017H0.254a0.166,0.166,0,0,1-.127.076,0.266,0.266,0,0,1-.051-0.152A1.533,1.533,0,0,0,0,21.2H0.076a0.874,0.874,0,0,0,.127.331,2.455,2.455,0,0,0,.736.051H2.056a3.925,3.925,0,0,0,.431-0.2,0.46,0.46,0,0,0,.33-0.178,0.926,0.926,0,0,1-.2-0.432,0.242,0.242,0,0,0,.228-0.153,1.3,1.3,0,0,1,.025-0.636V19.958l0.3-.051c0-.133.009-0.142,0-0.305A0.346,0.346,0,0,0,3.4,19.475a0.825,0.825,0,0,1-.025-0.127A0.584,0.584,0,0,1,3.6,19.322H3.629c-0.01.075-.042,0.032,0.025,0.076,0.184-.1.838-0.089,0.838-0.432a0.22,0.22,0,0,1-.025-0.127L5.2,18.788V18.661l0.635-.025-0.025-.127a0.087,0.087,0,0,0,.051-0.026,0.549,0.549,0,0,1,.076.076,1.178,1.178,0,0,0,.66-0.152,0.6,0.6,0,0,0,.076-0.2,0.1,0.1,0,0,0,.1.051A0.123,0.123,0,0,1,6.8,18.178V18.2c0.017,0.02.033,0.057,0.051,0.076A4.4,4.4,0,0,0,8.02,17.9a0.22,0.22,0,0,1-.076-0.1H7.97V17.771c0.082,0.032.1,0.06,0.178,0,0.017-.02.033-0.057,0.051-0.076a0.091,0.091,0,0,0,.051.025c0,0.1-.031.062,0.076,0.076a0.644,0.644,0,0,0,.431-0.1,3.328,3.328,0,0,1,.914-0.127c0.052,0.07.019,0.077,0.2,0.076a0.926,0.926,0,0,0,.381.051V17.619a2.086,2.086,0,0,1,.254.026,0.761,0.761,0,0,0,.279-0.254V17.364H10.355a1.809,1.809,0,0,0-.431-0.025,4.889,4.889,0,0,0-.964-0.076l-0.025-.28,1.294-.1h0.457a2.936,2.936,0,0,1,.863-0.051,1.041,1.041,0,0,1,.33.127c0.094,0.085.036,0.175,0.2,0.2V16.653h0.406V16.271H11.8V16.195h0.076V15.28H11.8V15.127h0.076a4.961,4.961,0,0,1,.127-1.3,0.329,0.329,0,0,1-.33-0.127,0.334,0.334,0,0,1-.051-0.28H11.548a1.435,1.435,0,0,1,.1-0.534c0.056,0.037.134,0.086,0.152,0.1,0.067,0.089.025,0.136,0.178,0.153V13.068l0.228,0.025,0.025-.229a0.122,0.122,0,0,1-.076-0.025,0.171,0.171,0,0,1-.025-0.1h-0.1a0.451,0.451,0,0,1-.076-0.229h0.051a1.266,1.266,0,0,1,.3-0.051v-0.1a0.542,0.542,0,0,0-.152-0.432,1.639,1.639,0,0,1-.33-0.89H11.751a0.354,0.354,0,0,1,.051-0.152H11.574c-0.022-.016-0.08-0.034-0.1-0.051a0.22,0.22,0,0,1-.025-0.127H9.594l0.025-.2a1.7,1.7,0,0,1-.3.051v-0.2H9.086c-0.043.25-.752,0.746-0.127,0.737v0.153a0.7,0.7,0,0,1-.584-0.33,1.167,1.167,0,0,1,.051-0.458,1.234,1.234,0,0,1,.888-0.2V10.17H8.553a1.053,1.053,0,0,1-.381.2V9.839H8.3a0.646,0.646,0,0,0,.228.2,2.157,2.157,0,0,0,.787-0.051H8.782l-0.2-.076C8.508,9.871,8.47,9.786,8.4,9.737c-0.052-.31-0.029-0.657.33-0.686A0.391,0.391,0,0,1,8.959,9Zm4.366,0.737a0.48,0.48,0,0,0-.2.2,0.432,0.432,0,0,0-.051.28c0.079,0.082.15,0.173,0.228,0.254,0.146,0,.159,0,0.3,0a0.444,0.444,0,0,0,.2-0.331,0.173,0.173,0,0,0-.025-0.178,0.255,0.255,0,0,0-.228-0.2A0.47,0.47,0,0,0,13.325,9.737Zm0.939,0a0.13,0.13,0,0,1-.076.025,1.736,1.736,0,0,1-.178.2,2.25,2.25,0,0,0,0,.305,0.443,0.443,0,0,0,.33.2,0.217,0.217,0,0,0,.178-0.025,0.517,0.517,0,0,0,.228-0.229V9.992C14.661,9.9,14.58,9.823,14.492,9.737H14.264Zm0.914,0a0.489,0.489,0,0,0-.254.458,0.3,0.3,0,0,1,.051.127,0.457,0.457,0,0,0,.3.153,0.417,0.417,0,0,0,.178,0,0.469,0.469,0,0,0,.2-0.305,0.391,0.391,0,0,0,0-.229A0.577,0.577,0,0,0,15.178,9.737Zm0.939,0c-0.082.079-.172,0.15-0.254,0.229a0.388,0.388,0,0,0,.025.28,0.512,0.512,0,0,0,.2.229,0.376,0.376,0,0,0,.279-0.025,0.513,0.513,0,0,0,.228-0.2,1.117,1.117,0,0,0-.051-0.356,1.286,1.286,0,0,1-.2-0.153H16.117Zm0.939,0a0.129,0.129,0,0,1-.076.025,0.416,0.416,0,0,0-.178.28,0.339,0.339,0,0,0,0,.229,0.444,0.444,0,0,0,.33.2,0.417,0.417,0,0,0,.178,0,0.652,0.652,0,0,0,.178-0.2,0.427,0.427,0,0,0,.025-0.331A0.535,0.535,0,0,0,17.056,9.737Zm0.914,0c-0.088.086-.168,0.166-0.254,0.254a0.488,0.488,0,0,0,.229.483,0.364,0.364,0,0,0,.279-0.025,0.513,0.513,0,0,0,.228-0.2,0.387,0.387,0,0,0-.025-0.28A0.517,0.517,0,0,0,18.2,9.737H17.97Zm0.939,0a0.129,0.129,0,0,1-.076.025,1.737,1.737,0,0,1-.178.2,1.708,1.708,0,0,0,0,.305,0.444,0.444,0,0,0,.33.2,0.217,0.217,0,0,0,.178-0.025,0.234,0.234,0,0,0,.178-0.178,0.382,0.382,0,0,0,.051-0.254c-0.036-.043-0.04-0.105-0.076-0.152l-0.178-.127H18.909Zm0.914,0a0.48,0.48,0,0,0-.2.2,0.431,0.431,0,0,0-.051.28c0.079,0.082.15,0.173,0.229,0.254,0.146,0,.159,0,0.3,0a0.444,0.444,0,0,0,.2-0.331,0.173,0.173,0,0,0-.025-0.178,0.255,0.255,0,0,0-.228-0.2A0.47,0.47,0,0,0,19.822,9.737Zm0.939,0a0.129,0.129,0,0,1-.076.025,1.737,1.737,0,0,1-.178.2,2.267,2.267,0,0,0,0,.305,0.444,0.444,0,0,0,.33.2,0.217,0.217,0,0,0,.178-0.025,0.518,0.518,0,0,0,.229-0.229V9.992C21.158,9.9,21.078,9.823,20.99,9.737H20.761Zm0.914,0a0.489,0.489,0,0,0-.254.458,0.3,0.3,0,0,1,.051.127,0.457,0.457,0,0,0,.3.153,0.418,0.418,0,0,0,.178,0,0.47,0.47,0,0,0,.2-0.305,0.2,0.2,0,0,0-.025-0.2,0.255,0.255,0,0,0-.228-0.2A0.47,0.47,0,0,0,21.675,9.737Zm0.939,0c-0.082.079-.172,0.15-0.254,0.229a0.387,0.387,0,0,0,.025.28,0.513,0.513,0,0,0,.2.229,0.376,0.376,0,0,0,.279-0.025,0.513,0.513,0,0,0,.228-0.2,1.12,1.12,0,0,0-.051-0.356,1.287,1.287,0,0,1-.2-0.153H22.614Zm0.939,0a0.129,0.129,0,0,1-.076.025,0.416,0.416,0,0,0-.178.28,0.225,0.225,0,0,0,.025.229,0.293,0.293,0,0,0,.3.2,0.418,0.418,0,0,0,.178,0,0.652,0.652,0,0,0,.178-0.2,0.427,0.427,0,0,0,.025-0.331A0.535,0.535,0,0,0,23.553,9.737Zm0.914,0c-0.088.086-.168,0.166-0.254,0.254a0.488,0.488,0,0,0,.228.483,0.364,0.364,0,0,0,.279-0.025,0.513,0.513,0,0,0,.228-0.2,0.387,0.387,0,0,0-.025-0.28A0.517,0.517,0,0,0,24.7,9.737H24.467Zm1.853,0a0.48,0.48,0,0,0-.2.2,0.431,0.431,0,0,0-.051.28c0.079,0.082.15,0.173,0.228,0.254,0.146,0,.159,0,0.3,0a0.444,0.444,0,0,0,.2-0.331,0.173,0.173,0,0,0-.025-0.178,0.255,0.255,0,0,0-.228-0.2A0.469,0.469,0,0,0,26.32,9.737Zm0.939,0a0.129,0.129,0,0,1-.076.025,1.736,1.736,0,0,1-.178.2,2.267,2.267,0,0,0,0,.305,0.443,0.443,0,0,0,.33.2,0.217,0.217,0,0,0,.178-0.025,0.517,0.517,0,0,0,.228-0.229V9.992c-0.086-.088-0.166-0.168-0.254-0.254H27.259Zm-15.228,1.3H11.954a0.859,0.859,0,0,0,.254.585,0.183,0.183,0,0,1,.2-0.051,3.484,3.484,0,0,0-.127-0.686h-0.3v0.051C12.044,10.97,12.019,10.943,12.031,11.034Zm1.751-.152a6.311,6.311,0,0,0-.914.788,0.4,0.4,0,0,0,.1.432,2.1,2.1,0,0,0,.635.2,5.148,5.148,0,0,0,.812.28,1.354,1.354,0,0,0,.406-0.2c0.352-.182.723-0.337,1.066-0.508a2.843,2.843,0,0,0,.863-0.432,1.185,1.185,0,0,0-.051-0.534,3.675,3.675,0,0,0-.939-0.025h-1.98Zm5.076,0a6.24,6.24,0,0,1-1.244.585c-1,.442-1.976.994-2.995,1.424v0.026h0.127a5.144,5.144,0,0,1,1.066-.178c0.811-.208,1.723-0.256,2.538-0.458,0.307-.076.608-0.083,0.888-0.153a0.442,0.442,0,0,0,.3-0.076,5.466,5.466,0,0,1-.457-0.788A0.723,0.723,0,0,0,18.858,10.881Zm1.523,0a2.439,2.439,0,0,0-.685.712l0.558,0.992c0.112,0.064.421-.106,0.66-0.051a1.513,1.513,0,0,1,.533.229,0.425,0.425,0,0,0,.279.2,1.737,1.737,0,0,1,.457-0.254c0.393-.24.826-0.472,1.218-0.712a0.744,0.744,0,0,0,.558-0.432,2.1,2.1,0,0,0-.33-0.661,3.42,3.42,0,0,0-.888-0.025h-2.36ZM19.7,12.407l-5.127.89v0.025h0.025a5.869,5.869,0,0,0,1.117.051c0.39,0.084.884-.038,1.294,0.051,0.166,0.036.437-.017,0.635,0.025a10.69,10.69,0,0,0,1.878.076l0.178-.458a0.706,0.706,0,0,0,.229-0.331A1.309,1.309,0,0,0,19.7,12.407Zm0.914,2.72V14.009a8.6,8.6,0,0,1-1.4-.127c-0.4-.088-0.887.032-1.269-0.051H17.386a9.588,9.588,0,0,1-1.345-.076l-1.066-.025L14.569,13.7a0.711,0.711,0,0,1-.406.025V13.78a1.681,1.681,0,0,1,.254.356,9.928,9.928,0,0,0,.863.992h5.33Zm2.411,0.28a0.537,0.537,0,0,1,0,.661h0.127A0.546,0.546,0,0,0,23.3,15.89a0.337,0.337,0,0,0,.051-0.229A0.368,0.368,0,0,0,23.02,15.407Zm-9.594.864-0.025.381h2.817l0.2-.381H13.426Zm7.386,0v0.381h1.574V16.271H20.812Z" transform="translate(0 0.5)"/>
</svg>
