<?xml version="1.0" encoding="utf-8"?>
<!-- Generator: Adobe Illustrator 16.0.0, SVG Export Plug-In . SVG Version: 6.00 Build 0)  -->
<!DOCTYPE svg PUBLIC "-//W3C//DTD SVG 1.1//EN" "http://www.w3.org/Graphics/SVG/1.1/DTD/svg11.dtd">
<svg version="1.1" id="Layer_1" xmlns="http://www.w3.org/2000/svg" xmlns:xlink="http://www.w3.org/1999/xlink" x="0px" y="0px"
	 width="39.969px" height="40px" viewBox="0 0 39.969 40" enable-background="new 0 0 39.969 40" xml:space="preserve">
<path id="ussr_asu_85_ico" fill="#FFFFFF" d="M15.285,16.042c0.153,0.015,0.208-0.042,0.319-0.022
	c0.236,0.041,0.478,0.147,0.729,0.18v-0.046c-0.154-0.118-0.285-0.263-0.387-0.428c0.219-0.08,0.451-0.118,0.684-0.113
	c0.209,0.046,0.438,0.151,0.661,0.2v-0.221c-0.041-0.042-0.079-0.087-0.114-0.135c-0.256-0.193-0.288,0.026-0.273-0.5
	c0.074-0.046,0.2-0.078,0.273-0.135c0.2-0.149,0-0.228,0.433-0.225c0.02-0.014,0.044-0.022,0.068-0.022v0.045
	c0.097,0.354,0.097,0.727,0,1.08H17.61c-0.065-0.024-0.136-0.032-0.205-0.023v0.18c0.195,0,0.266,0,0.456,0
	c-0.018,0.183,0.005,0.368,0.068,0.54c0.062-0.008,0.124-0.001,0.182,0.022c0.148,0.176,0.051,0.349,0.41,0.338
	c0.136-0.021,0.273-0.029,0.41-0.023c0.11-0.026,0.217-0.064,0.319-0.113c0.09-0.042,0.1-0.017,0.137-0.112
	c0.056-0.119,0.072-0.253,0.046-0.383h0.114c0.09-0.113,0.253-0.156,0.342-0.27c-0.314-0.271-0.382-0.73-0.16-1.08
	c0.144-0.123,0.296-0.236,0.456-0.338c0.228-0.012,0.458-0.005,0.684,0.023v0.09c-0.052,0.501-0.052,1.007,0,1.508h-0.342
	l0.022,0.158h0.251c0.047,0.045,0.102,0.083,0.16,0.112c0.158,0.222,0.412,0.356,0.684,0.36c0.11,0.246,0.256,0.473,0.434,0.675
	c0.367,0.182,0.777,0.259,1.186,0.225l0.022,0.18h0.383c0.015,0.043,0.022,0.089,0.022,0.135h8.524c0.28-0.034,0.563-0.034,0.843,0
	c0.06-0.027,0.111-0.113,0.16-0.135h2.575c0.05,0.049,0.103,0.095,0.16,0.135H37.6c0.139-0.046,0.285-0.069,0.433-0.068l0.022-0.113
	h0.068v0.045c0.015,0.02,0.023,0.043,0.023,0.068c0.581-0.08,1.169-0.103,1.754-0.068l0.023,0.068c0.041,0.284,0.041,0.571,0,0.855
	c-0.354,0.113-0.727,0.144-1.094,0.09c-0.221-0.07-0.453-0.102-0.684-0.09l-0.023,0.112h-0.068v-0.038
	c-0.015-0.021-0.022-0.044-0.022-0.068c-0.544-0.08-1.095-0.095-1.642-0.045h-0.479c-0.05,0.04-0.096,0.086-0.137,0.135h-2.553
	c-0.039-0.052-0.084-0.098-0.137-0.135l-0.229,0.022c-0.185-0.016-0.44-0.022-0.66-0.022h-8.5v0.113h1.914v0.045
	c0.043,0.268,0.051,0.539,0.022,0.81c0.576,0,1.192-0.013,1.732-0.022l0.022,0.199h0.023c0.166-0.023,0.334-0.023,0.5,0
	c0.32-0.005,0.636-0.005,0.934,0c0.227,0.496,0.395,1.018,0.5,1.553c-0.266,0.064-0.52,0.17-0.752,0.315
	c0.063,0.402-0.083,0.81-0.387,1.08c-0.259,0.187-0.564,0.282-0.843,0.45c-0.784,0.47-1.624,0.854-2.462,1.283
	c-0.338,0.193-0.697,0.344-1.071,0.449c-0.452,0.064-0.911,0.079-1.367,0.045H6.852c-0.561,0.044-1.125,0.031-1.683-0.039
	c-0.385-0.139-0.747-0.336-1.071-0.586c-0.367-0.229-0.727-0.424-1.094-0.652c-0.194-0.174-0.418-0.311-0.661-0.405
	c-0.053,0.077-0.084,0.065-0.182,0.045c0.009-0.067,0.001-0.136-0.023-0.2c-0.08-0.093-0.184-0.162-0.3-0.199
	c-0.051,0.04-0.118,0.057-0.182,0.045v-0.052c-0.017-0.026-0.025-0.058-0.023-0.09c0.042-0.026,0.074-0.066,0.091-0.112H1.701
	c-0.083-0.09-0.186-0.158-0.3-0.201l-0.114-0.157v-0.2c0.111-0.084,0.191-0.203,0.228-0.338c-0.091-0.012-0.159-0.088-0.16-0.18
	c0.058-0.029,0.176-0.043,0.251-0.067l-0.091-0.271c0.09-0.017,0.073,0,0.091-0.09c-0.035-0.055-0.058-0.115-0.068-0.18
	c-0.067,0.014-0.071,0.046-0.114-0.021c-0.084-0.128-0.132-0.275-0.137-0.429l0.068-0.022c0-0.178-0.029-0.354-0.086-0.522H1.245
	c0.011,0.132-0.013,0.264-0.068,0.384c-0.067-0.015-0.13-0.045-0.182-0.091v0.585c-0.007,0.133-0.038,0.262-0.091,0.383v0.022
	c-0.023,0.022-0.023-0.022-0.023-0.022c-0.023-0.278-0.008-0.559,0.046-0.832c-0.066-0.1-0.083-0.225-0.046-0.339
	c-0.025-0.096-0.04-0.194-0.046-0.293h0.046c0.038,0.048,0.064,0.069,0.114,0.046c0.026-0.027,0.049-0.058,0.068-0.091
	c-0.028-0.026-0.06-0.049-0.094-0.067c-0.272-0.079-0.556-0.117-0.84-0.111c-0.017-0.154-0.022-0.389-0.023-0.63H0.083v0.021
	c-0.018,0.044-0.023-0.045-0.023-0.045c0.066-0.1-0.023-0.271,0.046-0.315c0.187-0.025,0.37-0.07,0.547-0.135
	c-0.061,0.006-0.121-0.02-0.16-0.067H0.037v-0.045c-0.032-0.118-0.04-0.24-0.023-0.36c0-0.265-0.053-0.992-0.023-1.058
	c0.03-0.066,0.078-0.072,0.206-0.067c0.134,0.033,0.273,0.041,0.41,0.023c0.228,0,1.178-0.043,1.231-0.023
	c0.1,0.032,0.131,0.1,0.228,0.135v-0.068h0.068c0.049-0.135,0.176-0.225,0.319-0.226v-0.27h2.69v0.27
	c0.053,0.006,0.107,0.006,0.16,0c0.062-0.1,0.056-0.3,0.114-0.405l0.068,0.023l0.046,0.2c0.98,0.1,2.384-0.155,3.487-0.158
	c0.019,0.04,0.042,0.078,0.068,0.113v-0.02c0.118-0.284,0.209-0.578,0.274-0.878c-0.024,0-0.048-0.008-0.068-0.022
	c0.056-0.081,0.042-0.2,0.091-0.293c0.066-0.078,0.143-0.145,0.228-0.2c0.634-0.034,1.358-0.021,2.028-0.021
	c0.778-0.035,1.558,0.019,2.325,0.158c0.262,0.033,0.521,0.085,0.775,0.158c0.009,0.172,0.009,0.346,0,0.518h0.046
	c0.086,0.04,0.179,0.063,0.274,0.067c-0.017-0.1,0.017-0.201,0.091-0.27v-1.017l0.046-2.273v-1.036
	c-0.019-0.135-0.012-0.273,0.021-0.405l-0.023,4.727l0.091,0.067V16.042z"/>
</svg>
