<svg xmlns="http://www.w3.org/2000/svg" width="80" height="40" viewBox="0 0 80 40">
  <defs>
    <style>
      .cls-1 {
        fill: #fff;
        fill-rule: evenodd;
      }
    </style>
  </defs>
  <path id="ussr_pr_123k_hydrofoils_ico" class="cls-1" d="M42.824,6H43a14.04,14.04,0,0,0,.088,2.525h1.752V8.658H43.087c-0.112.99,0,2.285,0,3.411v1.285H43a3.971,3.971,0,0,0,0,.93,15.071,15.071,0,0,0,0,3.544h0.131v0.221a1.185,1.185,0,0,0,.394-0.044,1.048,1.048,0,0,0,.35.886,0.862,0.862,0,0,0-.744.487,4.477,4.477,0,0,1,.131.532,1.84,1.84,0,0,0,1.007,1.019c0.036-.144-0.022-0.068.088-0.133a1.2,1.2,0,0,0,.788.089v0.177H45.1a1.9,1.9,0,0,0-.7-0.133,0.126,0.126,0,0,1-.044.044v0.089a2.372,2.372,0,0,1,.7.576,13.276,13.276,0,0,0,.438,1.684H45.364v0.133c0.3,0.02.653,0.044,1.007,0.044V23.323h0.306c0.435-.692.818-0.642,1.927-0.62a0.689,0.689,0,0,1,.525,0,0.421,0.421,0,0,0-.438.4,2.426,2.426,0,0,0,.832,0c0.753,0,1.523-.049,2.233-0.089l6.043-.177a11.432,11.432,0,0,1,1.357-.044,3.876,3.876,0,0,1,1.051-.044V22.88h0.131v0.133h0.35a13.867,13.867,0,0,0,.044-2.747,1.862,1.862,0,0,0-.438,0V20.222h0.044a0.924,0.924,0,0,1,.7-0.089L61,20.222H61.04a0.292,0.292,0,0,1-.175.044v1.949a3.119,3.119,0,0,1,0,.576h0.306c0.2-.125.606-0.035,0.788-0.177A0.228,0.228,0,0,0,62,22.481H61.96V22.437h-0.35V22.348h0.35a0.675,0.675,0,0,0,.219.266,1.8,1.8,0,0,0,1.226,0V22.392l0.438-.044a0.329,0.329,0,0,0-.088-0.266h0.613v0.044a0.388,0.388,0,0,0-.044.221h0.394a0.125,0.125,0,0,0,.044.044v0.133H64.324v0.133a1.29,1.29,0,0,0,.219.177,0.409,0.409,0,0,0,.35,0V22.7h0.263v0.133h0.35c0.005-.176,0-0.138.263-0.133,0,0.172.117,0.156,0.394,0.133A1.906,1.906,0,0,0,66.82,22.7c-0.142-.037-0.067.022-0.131-0.089l0.482-.044c0-.168-0.051-0.183.175-0.222a0.509,0.509,0,0,0,.525.089,0.629,0.629,0,0,0,.044-0.177H67.871V22.215H67.564V22.127h0.263c0.034,0.03.1,0.058,0.131,0.089a0.3,0.3,0,0,1,.044.177h0.613V22.215a0.21,0.21,0,0,1,.131.044,0.34,0.34,0,0,0,.131.133,1.363,1.363,0,0,0,1.182-.133,0.149,0.149,0,0,1,.088.044,0.171,0.171,0,0,1,.088.133c-0.057.025-.032,0-0.044,0.044a2.793,2.793,0,0,0,1.182.177,0.931,0.931,0,0,1,0-.266A0.173,0.173,0,0,1,71.2,22.3c0.127,0,.061.043,0.131,0a1.076,1.076,0,0,1,.175-0.31c0.389,0.414,1.072.205,1.751,0.354a25.07,25.07,0,0,0,4.86.177c0.2-.9.975-1.722,1.226-2.614a0.371,0.371,0,0,1-.175-0.133h0.088a0.221,0.221,0,0,1,.131-0.044v-3.81a1.731,1.731,0,0,0-.131-0.133c-0.008-.077.044-0.338,0.044-0.487h0.394v0.089a0.281,0.281,0,0,0-.175.044,0.591,0.591,0,0,1,.044.31h0.175v0.044a3.531,3.531,0,0,0-.131,1.728v3.943c0,0.374.06,0.811,0.044,1.108l0.131,0.044a0.375,0.375,0,0,0,.219.044v0.133a0.211,0.211,0,0,0-.131.044,3.648,3.648,0,0,0-.394.93,9.952,9.952,0,0,0-1.051,2.614,0.479,0.479,0,0,1,.131.089,0.871,0.871,0,0,0-.306.044,8.742,8.742,0,0,1-5.868,4.7,14.825,14.825,0,0,1-3.284.221H67.7c-0.621.135-1.47-.1-2.146,0.044-0.621.135-1.47-.1-2.146,0.044a8.647,8.647,0,0,1-1.576.044l-2.146.044a0.215,0.215,0,0,1-.044.133,1.245,1.245,0,0,0-.613,1.152l0.306,0.4c-1.377-.02-1.628.64-2.977,0.665a0.515,0.515,0,0,1-.088-0.31,0.709,0.709,0,0,1-.044-0.355,0.209,0.209,0,0,1-.131-0.044,6.279,6.279,0,0,0,.394-1.551h-1.62a3.144,3.144,0,0,1-1.139.044l-2.627.044-6.568.133-2.321.044a5.286,5.286,0,0,0-1.357.044V31.43H38.4a7.49,7.49,0,0,1-1.357-.044c-0.55-.12-1.256.064-1.751-0.044-0.55-.12-1.256.064-1.751-0.044l-2.977-.044a11.079,11.079,0,0,0-2.1-.089H27.674c-0.4-.086-0.992.053-1.445-0.044a3.742,3.742,0,0,0-1.27-.044,23.245,23.245,0,0,1-3.328.532V31.563H21.587l-0.044-.31a9.784,9.784,0,0,0-2.277.221l-1.445.089c-0.432.107-1.014,0.067-1.445,0.177H15.895a3.314,3.314,0,0,1-.832.177c-0.123.016-.034-0.06-0.088-0.089a3.54,3.54,0,0,0-.526.044l-4.817.487c-0.882.224-2.06-.037-2.8,0.31a6.107,6.107,0,0,0-1.095.133,1.01,1.01,0,0,0,.131.842H5.824V33.69a1.194,1.194,0,0,0-.438-0.177A1.345,1.345,0,0,1,4.817,34l0.131-1.019a1.13,1.13,0,0,0-.569-0.089A1.3,1.3,0,0,1,4.2,32.671a0.693,0.693,0,0,1,.219-0.177,0.469,0.469,0,0,1,.263-0.044,1.033,1.033,0,0,0,.088-0.31A1.457,1.457,0,0,1,4.685,31.3a0.683,0.683,0,0,1,1.051.487c0.044,0.194-.107.36-0.044,0.443v0.044l0.482-.089a3.545,3.545,0,0,1,.307-1.108,17.142,17.142,0,0,0-3.766-.089,0.292,0.292,0,0,1-.175.044V31.12H2.671v2.127a3.54,3.54,0,0,1-.963.044,8.9,8.9,0,0,1-.613-2.171,2.571,2.571,0,0,0,1.27-.089H2.146a2.762,2.762,0,0,0-1.051-.044V30.5H1.138V30.456l0.569-.044c0.14-.209.575-0.478,0.657-0.665V28.595a12.31,12.31,0,0,1-1.27-1.949,2.066,2.066,0,0,0-.263-0.355l-0.263-.044V26.07a0.83,0.83,0,0,1-.044-0.4H0.788a3.372,3.372,0,0,0,.088-1.019A2.262,2.262,0,0,1,.7,24.032a4.5,4.5,0,0,0-.657-1.551,0.549,0.549,0,0,0,.175-0.044c-0.026-.152-0.091-0.179.044-0.266A0.158,0.158,0,0,1,.35,22.127a0.508,0.508,0,0,0,.219.4V22.481c0.044-.044.043,0.044,0.044,0.044a0.228,0.228,0,0,1,.044.133c-0.127,0-.061-0.043-0.131,0A3.712,3.712,0,0,0,.92,23.943a0.889,0.889,0,0,1,.219-0.8,1.764,1.764,0,0,1,.613,0v0.089a0.5,0.5,0,0,0-.263,0,14.519,14.519,0,0,1,.35,1.728,0.956,0.956,0,0,0,.175.665V25.449a0.256,0.256,0,0,0,.175,0,3.679,3.679,0,0,1,.307-0.4,0.433,0.433,0,0,0,.307.487,0.471,0.471,0,0,0,.263.044l0.044-.975H3.634V24.563H3.678A1.155,1.155,0,0,1,4.2,23.5a6.4,6.4,0,0,1,.394.753H4.641V24.209a3.089,3.089,0,0,0,.175-0.753H4.9V23.5c0.253,0.369.056,1.029,0.7,1.019a1.305,1.305,0,0,1,.569-0.044v0.709a3.936,3.936,0,0,0,.613-0.089c0.06,0.183.024,0.243,0.263,0.266l0.044-.93H7.181a1.05,1.05,0,0,1,.482-0.044,8.15,8.15,0,0,1,.657-1.772H8.145a4.941,4.941,0,0,0,.044-1.949,0.329,0.329,0,0,0,.307-0.4,0.622,0.622,0,0,0-.307.089,0.15,0.15,0,0,0,0-.133A4.456,4.456,0,0,1,6.962,20c-0.333-.09-0.716-0.023-1.007-0.089-0.316-.072-0.748.04-0.92-0.044a0.269,0.269,0,0,1-.088-0.089,0.171,0.171,0,0,0,.088-0.133H4.948A2.338,2.338,0,0,0,4.335,19.6a9.048,9.048,0,0,0-1.576-.133V19.247a4.1,4.1,0,0,1,1.664.177,2.05,2.05,0,0,1,.788-0.044,2.321,2.321,0,0,0,.92.089c0.153-.022.13,0.072,0.175,0.089,0.193,0.07.4-.095,0.613-0.044,0.046,0.046-.054.091,0.044,0.089H7.006V19.557l0.131-.044V19.38H6.568V19.2H6.612a1.177,1.177,0,0,0,.525.044,1.667,1.667,0,0,1,.088-0.4H7.269v0.177H7.4a0.491,0.491,0,0,1-.131.266H7.531a0.567,0.567,0,0,1-.044.177,0.149,0.149,0,0,1,.088.044l0.394-.089V19.291a0.21,0.21,0,0,1-.131-0.044,1.475,1.475,0,0,0,.35-0.044V19.38c-0.119.071-.036-0.007-0.044,0.133H8.276V19.291H8.407A0.807,0.807,0,0,1,8.495,18.8v0.532c0.329-.008.3-0.115,0.613-0.133V19.07H9.239v0.177H9.5V19.38l0.832,0.089-0.044-.576,0.788,0.044V19.2a5.475,5.475,0,0,1,.525.8V19.956a1.778,1.778,0,0,1,.7-0.709,1.362,1.362,0,0,1,.044-0.31,0.214,0.214,0,0,1-.175-0.221,0.468,0.468,0,0,0,.131-0.31H12.48l0.088-.133a0.171,0.171,0,0,1-.088-0.133h0.044V18.095c0.209,0.064.486,0.035,0.7,0.089,0.187,0.291.248,0.806-.219,0.886C13,19.4,13.049,19.583,13.049,20h0.175v0.31a0.21,0.21,0,0,1,.131.044,0.387,0.387,0,0,1,.044.222,16.142,16.142,0,0,0-.175,1.994H13.049V22.7l-0.788-.044a0.452,0.452,0,0,1-.306.177c-0.107-.012-0.239-0.111-0.394-0.133v0.133H11.385v0.133l2.759,0.177V22.614a1.357,1.357,0,0,0-.438.044V22.57c0.28-.014.411-0.085,0.744-0.089a1.334,1.334,0,0,0,.131.4H14.494a0.363,0.363,0,0,0-.175-0.266v1.152a3.918,3.918,0,0,1,.306,1.152h0.482a0.158,0.158,0,0,1,.088-0.044V24.652a0.911,0.911,0,0,1-.131-0.487h0.044v0.089c0.185,0.22.086,0.6,0.482,0.62V24.7h0.044V24.652a16.5,16.5,0,0,0,2.058-.576V23.854l-1.97.089v0.133H15.457c-0.091-.207-0.279-0.368-0.35-0.576a0.58,0.58,0,0,0,.044-0.31,0.4,0.4,0,0,1-.219-0.266c-0.054-.285.484-1.136,0.394-1.241a0.376,0.376,0,0,1-.175-0.133,1.591,1.591,0,0,0,.307-0.089c0.008-.134.208-0.347,0.088-0.4h0.131l0.044,0.266h0.525a6.714,6.714,0,0,1,.963-0.044,0.5,0.5,0,0,1,.35-0.133c0.042,0.014.12,0.153,0.175,0.177a2.675,2.675,0,0,0,.963.089c0.152,0.314.261,0.333,0.744,0.31a2.182,2.182,0,0,1,1.139-.044,3.169,3.169,0,0,1,.175-0.31,0.15,0.15,0,0,1,.088.044,0.228,0.228,0,0,1,.044.133,5.572,5.572,0,0,0,1.226.044,0.966,0.966,0,0,1,.175-0.576l0.088,0.576c0.812,0,1.434-.061,2.058-0.089a0.645,0.645,0,0,1,.263-0.443,0.173,0.173,0,0,0,.131.177A0.228,0.228,0,0,1,25,20.975a0.85,0.85,0,0,1,.175-0.044c0.107-.176-0.091-0.181.175-0.221a1.026,1.026,0,0,0,.044.487h0.044a0.192,0.192,0,0,1,.131-0.133,0.233,0.233,0,0,0,.131.221c0.143,0.1.12-.073,0.175,0.133H25.835v0.044h0.394a4.567,4.567,0,0,1,1.095-.266c0.206-.466.454-0.893,0.657-1.373a1.675,1.675,0,0,1-.613-0.266,0.124,0.124,0,0,1,.044-0.044,1.874,1.874,0,0,1,.876-0.177,15.223,15.223,0,0,1,.919-1.905c0.447-1.021.9-2.005,1.4-2.968,0.179-.348.491-1.458,0.876-1.506V12.2c-0.1.018-.047,0.041-0.131,0a0.16,0.16,0,0,1-.044-0.089c0.157-.018.11,0.021,0.175-0.089a0.808,0.808,0,0,1-.438-0.354l-0.175.044V11.538c0.47-.464-0.2-1.9.482-2.392a2.11,2.11,0,0,1,.569-0.266,1.28,1.28,0,0,1,.7.089,1.073,1.073,0,0,1,.832.753v1.728a0.446,0.446,0,0,1,.088.266c-0.181-.007-0.455.258-0.788,0.31v0.222a0.787,0.787,0,0,1,.35.089,0.754,0.754,0,0,1,.131.266,2.2,2.2,0,0,0-.832.177v0.576a3.275,3.275,0,0,1,0,.842,17.762,17.762,0,0,1,0,2.392c0.157,0.018.11-.021,0.175,0.089H32.4V16.81a0.174,0.174,0,0,1,.131.089v0.044h0.044a0.221,0.221,0,0,1-.131.044v4.253a12.209,12.209,0,0,0,2.5-.177,8.682,8.682,0,0,0,.438-1.019c0.269-.406.905-0.425,1.051-0.842a0.369,0.369,0,0,1,.175.133,1.057,1.057,0,0,1,.569-0.266V18.892a0.21,0.21,0,0,1-.131-0.044c0.167-.056.171-0.09,0.175-0.31h0.131c0-3.237-.024-6.583-0.044-9.747h0.35a7.165,7.165,0,0,0-.175-1.506C37.466,7.2,37.6,6.65,37.614,6.532H37.7c0.068-.031.006-0.006,0.131,0V6.62a2.326,2.326,0,0,1-.044,1.418l0.044,0.975H37.526v9.835a2.368,2.368,0,0,0,.744-0.31l0.044-.709a1.653,1.653,0,0,0,.394-0.709,0.19,0.19,0,0,0-.175-0.177,0.311,0.311,0,0,1-.175.089V16.854a3.429,3.429,0,0,1,.35-0.487,3.83,3.83,0,0,0,.438-0.266,0.149,0.149,0,0,1,.088.044,2.558,2.558,0,0,1,.044.266c0.02,0.053.111,0.079,0.131,0.133a0.138,0.138,0,0,0-.088.089,0.971,0.971,0,0,0,.175.133l0.044,0.443a0.337,0.337,0,0,0-.306.354c0.248,0.359.087,0.464,0.876,0.443,0.049-.313.162-0.412,0.219-0.709h0.088a2.876,2.876,0,0,0,.175.709h0.131V17.873l0.263,0.044V17.475h0.044a0.474,0.474,0,0,0,.263,0V16.943a0.747,0.747,0,0,0-.525-0.222V16.677a0.16,0.16,0,0,1-.044-0.089,0.892,0.892,0,0,1,.044-0.665,0.465,0.465,0,0,0,.438-0.177,4.03,4.03,0,0,1,.788-0.044,0.289,0.289,0,0,0,.044.177V15.835a4.067,4.067,0,0,0,.569-1.949h0.219l-0.044-.532H42.562V13.31a2.623,2.623,0,0,0,.044-1.063,19.347,19.347,0,0,0-.044-2.924h0.219a4.806,4.806,0,0,0-.044-0.665h-1.8V8.57a6.755,6.755,0,0,1,1.8-.044V8.437A11.7,11.7,0,0,0,42.824,6Zm-2.5,2.171a15.175,15.175,0,0,1,.044,2.437v4.563c0,0.667.056,1.562,0,2.082a0.161,0.161,0,0,1-.044-0.089,20.279,20.279,0,0,1,0-2.658V8.171ZM29.513,20.886H29.382c0.05,0.423.335,0.469,0.832,0.443,0.216-.14.656,0.074,0.919-0.044a0.494,0.494,0,0,1,.088-0.133,1.439,1.439,0,0,0,.263.089V18.627c-0.473-.534.058-0.967-0.044-1.418-0.026-.117.044-0.727,0.044-1.152,0-1.012-.012-2.163,0-2.924H31.4V13.089H31.352a9.172,9.172,0,0,1-.963,2.082c-0.274.529-.46,1.043-0.7,1.595-0.14.321-.385,0.654-0.525,0.975a7,7,0,0,1-.744,1.595,1.943,1.943,0,0,0,.832,1.329,0.181,0.181,0,0,1,.219.044A0.3,0.3,0,0,1,29.513,20.886Zm49.436-1.063a0.363,0.363,0,0,1,.219.044l-0.219.044V19.823Zm-50.75.133a8.58,8.58,0,0,0-.569,1.2h0.306a2.1,2.1,0,0,1,.832-0.044c0.053-.137.137-0.181,0.219-0.354A1.345,1.345,0,0,0,28.2,19.956Zm32.885,0.221a0.622,0.622,0,0,1,.219.044v0.044H61.171C61.139,20.227,61.116,20.216,61.084,20.177Zm18.172,2.348a17.2,17.2,0,0,0,.131-2.26H79.343V20.31a11.225,11.225,0,0,0-1.051,2.26h0.832A0.222,0.222,0,0,1,79.256,22.525ZM8.013,20.62H8.1v0.044H8.057v0.044A0.161,0.161,0,0,1,8.013,20.62Zm37.351,0.31a0.667,0.667,0,0,1,.394.133H45.627C45.466,20.967,45.3,21.136,45.364,20.93Zm-0.175.044h0.088v0.044A0.15,0.15,0,0,1,45.189,20.975ZM0,22.348a0.228,0.228,0,0,1,.044.133H0V22.348ZM0.175,22.88a0.131,0.131,0,0,1,0,.177V22.88Zm14.8,1.152c0.111,0.064.049-.01,0.088,0.133H15.019ZM6.787,32.316a8.45,8.45,0,0,0,1.839-.177c0.492-.11,1-0.035,1.445-0.133,0.942-.21,1.987-0.065,2.89-0.266,0.455-.1,1.91.055,1.97-0.354l0.394-.044,0.131-.4a7.62,7.62,0,0,0-1.97-.044h-4.2a11.158,11.158,0,0,1-2.058.089A3.661,3.661,0,0,0,6.787,32.316Zm9.108-.842a8.677,8.677,0,0,0,1.883-.177c0.474-.106.973-0.038,1.4-0.133,0.506-.112,1.041.021,1.489-0.133V30.987H18.916a2.191,2.191,0,0,0-.832-0.044H16.07v0.044H16.026C16,31.2,15.919,31.238,15.895,31.475Z"/>
</svg>
