<svg xmlns="http://www.w3.org/2000/svg" width="80" height="40" viewBox="0 0 80 40">
  <defs>
    <style>
      .cls-1 {
        fill: #fff;
        fill-rule: evenodd;
      }
    </style>
  </defs>
  <path id="Color_Fill_1" data-name="Color Fill 1" class="cls-1" d="M46.024,8c0.427,0.651.152,2.14,0.282,3.333H46.212v-0.1c-0.276-.465.055-1.023-0.188-1.429a0.8,0.8,0,0,1-.094.476A4.17,4.17,0,0,1,46.024,8Zm5.647,3.238a0.774,0.774,0,0,1,.094-0.667v-0.1h0.094v0.476a0.647,0.647,0,0,1,.094.381,4.58,4.58,0,0,0-2.353.476,0.452,0.452,0,0,1,.282.1c-0.538.327-.432,1.134-0.659,1.524h0.659c0.006,0.575.011,0.6,0,1.143a1.853,1.853,0,0,0,.753-0.19v0.286h0.377V13.429H51.2v0.1a1.767,1.767,0,0,0,0,1.238,1.026,1.026,0,0,0,.471-0.191c0.438-.729-0.256-2.418.188-3.143a33.233,33.233,0,0,1-.094,3.714c-0.359-.094-0.38-0.311-0.659-0.381a5.817,5.817,0,0,0-1.882.762v1.619h1.129l-0.094-.476a0.6,0.6,0,0,0,.377-0.1c-0.081-.179-0.045-0.07,0-0.286h0.094c0.093,0.487.389,0.417,0.941,0.381v-0.1h0.094a3.45,3.45,0,0,1,.094-1.429v1.619H51.577c-0.214.306-.542,0.444-0.753,0.762a0.624,0.624,0,0,1,.753.571,0.344,0.344,0,0,0,.094-0.19c0.133-.222.051-0.827,0.188-1.048a1.558,1.558,0,0,0,.188,1.238V10.476h0.094c0,2.571.14,5.651,0,7.9h0.094v0.1c0.367,0,.423-0.047.565,0.191a0.413,0.413,0,0,0-.565.381,0.49,0.49,0,0,1,.094.286h0.659v-0.19a0.49,0.49,0,0,1-.094-0.286h0.094v0.191a0.49,0.49,0,0,1,.094.286,8.214,8.214,0,0,1,1.6.1,4.512,4.512,0,0,0,.188,1.143c0.26-.325,1.314.25,2.071-0.286a1.862,1.862,0,0,0,.188-0.952H57.035v0.1a3.333,3.333,0,0,0-.188.857H56.471l0.094-.952H56.377a0.548,0.548,0,0,1-.659-0.1,2.975,2.975,0,0,0,.188-0.667,1.717,1.717,0,0,1-.094-1.238,4.535,4.535,0,0,0,2.729-.286l-0.094.286h0.094v-0.1c0.073-.183.094,0.191,0.094,0.191-0.067.147-.012,0.013,0,0.286l-0.282-.1V17.9c0.306,0.079.144-.047,0.282,0.19L58.447,18v0.1a0.49,0.49,0,0,0-.094.286c0.306,0.079.144-.047,0.282,0.19l-0.188-.1v0.1a0.49,0.49,0,0,0-.094.286c0.306,0.079.144-.047,0.282,0.191a1.032,1.032,0,0,0-.282.191c0.306,0.079.144-.047,0.282,0.191-0.082.07-.106,0.12-0.188,0.19a1.747,1.747,0,0,0-.753-0.286v0.381a1.042,1.042,0,0,1,.094.571,3.341,3.341,0,0,1,1.035.286,5.135,5.135,0,0,1,.188.857,0.311,0.311,0,0,1,.282,0v-0.1a0.375,0.375,0,0,1,.188-0.1c0.264,0.438,1.7.155,1.976-.1a0.452,0.452,0,0,1-.282-0.1,1.205,1.205,0,0,1,.659.1,0.452,0.452,0,0,0-.282.1h0.188a17.512,17.512,0,0,0,4.047-.191v-0.1H65.6a0.763,0.763,0,0,1-.565,0,5.277,5.277,0,0,0,0-1.9,0.476,0.476,0,0,1,.282-0.1c0.246-.152,1.245.2,1.977,0,0.195-.053.372-0.216,0.565-0.286a0.585,0.585,0,0,0,.094.381c-0.292.117-.213,0.036-0.282,0.381,0.305,0.079.144-.047,0.282,0.19-0.305.079-.144-0.047-0.282,0.191H67.577c-0.093.1,0.093,0.094,0.094,0.1,0.161,0.145.122-.112,0.282,0.19H67.671v0.476h0.094c0.052-.124,0-0.071.094-0.1a0.344,0.344,0,0,1,.094.191H67.671a0.464,0.464,0,0,0,.094.286c0.113-.165,2.124.055,2.918-0.1a49.536,49.536,0,0,1,6.118-.286,10.558,10.558,0,0,1,2.353-.1v-0.1a4.958,4.958,0,0,1,0-1.9H78.871c0.078-.309-0.046-0.145.188-0.286a0.329,0.329,0,0,0,.094.191,2.87,2.87,0,0,1,.094-1.238v0.1a29.455,29.455,0,0,1,0,4.476l0.753-.1V21.81C78.958,22.7,77.6,26.43,77.082,28c-0.36,1.1-.441,3.126-1.318,3.714-0.551.421-3.332,0.191-4.329,0.191l-11.576-.191a21.8,21.8,0,0,1-4.047-.191c-0.883-.193-2.058.072-2.824-0.1-0.823-.18-1.93.059-2.635-0.1-1.552-.339-3.421.131-4.894-0.19H43.388a28.412,28.412,0,0,1-5.082-.286l-11.671-.476c-1.113-.244-2.44.079-3.671-0.191-0.466-.1-1.3.032-1.882-0.1a26.05,26.05,0,0,0-4.706-.286l-0.094,1.048L5.459,30.381v0.952a15.063,15.063,0,0,0-1.694-.1l-0.376-2.19c0.337-.04.237,0.045,0.376-0.191a2.831,2.831,0,0,1-.659-0.1A11.345,11.345,0,0,0,2.165,25.9a1.394,1.394,0,0,1-.471-0.286c0.337-.04.237,0.045,0.376-0.19-0.424-.28-0.291-1.959-0.376-2.476H1.788v-0.1H2.071V22.381H1.694c0.078-.309-0.046-0.146.188-0.286,0.122,0.235-.04.065,0.188,0.191V21.81c-0.279-.127-0.228.092-0.282-0.381,0.253-.1.071-0.429,0-0.762H1.694v0.381a0.345,0.345,0,0,1,.094.191H1.6V20.571A0.8,0.8,0,0,0,1.788,19.9H1.882a3.934,3.934,0,0,0,.565,2.381,2.532,2.532,0,0,0,1.129.1A0.621,0.621,0,0,1,3.671,22v0.667H3.576a1.5,1.5,0,0,0-1.224-.191c0.078,0.309-.046.146,0.188,0.286a3.082,3.082,0,0,1,1.318.191v-0.1A2.056,2.056,0,0,1,3.765,21.9H3.953V22a0.648,0.648,0,0,0-.094.381,4.209,4.209,0,0,1,.753-0.191c0.137,0.123-.048.216,0.282,0.191,0.015-.044-0.059-0.295.094-0.191a2.725,2.725,0,0,0,1.412.191V22a1.932,1.932,0,0,0-1.224.1V21.9a3.441,3.441,0,0,1,1.035-.1,4.647,4.647,0,0,0,1.318,0V21.429H7.435a0.327,0.327,0,0,1-.094.19V21.333a1.1,1.1,0,0,0,.188-0.286H7.718v0.1a0.578,0.578,0,0,0-.188.19H7.718a3.044,3.044,0,0,1,.565-0.381l-0.565.1v-0.1H7.812a1.123,1.123,0,0,1,1.129,0,1.979,1.979,0,0,1,.376.857h0.753A9.465,9.465,0,0,1,9.788,20H9.506V19.714a4.127,4.127,0,0,1,2.635,1.048l0.565,1.048h3.012a1.214,1.214,0,0,0-.094-0.381H15.435a0.464,0.464,0,0,1-.094.286V21.143h0.094c0.122,0.235-.04.065,0.188,0.19v-0.19a0.551,0.551,0,0,1-.188-0.572,1.463,1.463,0,0,1,.471-0.1c0.214,0.14.594,0.063,0.847,0.191a5.973,5.973,0,0,0,1.224.952,0.339,0.339,0,0,1,.188-0.1v0.1a0.412,0.412,0,0,0-.282.286,0.732,0.732,0,0,0,.282.286V22a0.578,0.578,0,0,1-.188-0.191h0.188v0.1c0.212,0.152.2,0.156,0.188,0.286a0.79,0.79,0,0,0-.282.762H17.977v0.1a1.047,1.047,0,0,1,.471.476h0.188l1.318-.1h0.094v-0.1a0.373,0.373,0,0,1,.188-0.1,3.162,3.162,0,0,1,.377.381c0.073,0.114.113,0.459,0.188,0.572a0.805,0.805,0,0,1,.094-0.476V24.1h0.565V23.619a0.78,0.78,0,0,1-.471-0.1h3.953a0.528,0.528,0,0,1,0-.381,2.242,2.242,0,0,0,.753-0.1V22h0.659v0.762h0.094c0.194-.316,1.1-0.214,1.6-0.191a2.076,2.076,0,0,1,.094.667s-0.368.018-.188,0.1h0.188v0.1a2.681,2.681,0,0,1,1.318-.381l-0.094-.571,0.188-.1a8.686,8.686,0,0,0,1.224-.286c0,0.3-.159.128,0.094,0.286a0.863,0.863,0,0,1,.941.381,1.072,1.072,0,0,1,.376-1.143H32.094v-0.1a0.849,0.849,0,0,1-.847.1,1.581,1.581,0,0,0,.565-0.1v-0.1H31.059v0.1a0.322,0.322,0,0,1,.188.1H30.965c-0.5-.533-2.37.1-2.823-0.19H28.047v-0.1a14.874,14.874,0,0,1,3.953-.1,0.338,0.338,0,0,1,.188-0.1c0.408-2.024,2.636-1,4.235-.762,0.133,0.416.425,0.712,0.565,1.143h0.094V21.238h0.471c-0.025-.892.136-1.679,0.847-1.714v-0.1c-0.5-.015-0.621-0.065-0.659-0.572a1.445,1.445,0,0,1,.094-1.143h0.941a2.807,2.807,0,0,1,.188,1.333c0.256,0.273.081,0.237,0,.667a0.865,0.865,0,0,1,.471.952l1.129,0.1V15.524a5.463,5.463,0,0,1,.094-2v7.238c0.926,0,3.855-.495,4.047-0.381a4.044,4.044,0,0,1,.282,2.1h0.188a0.338,0.338,0,0,1,.188-0.1v0.286a5.333,5.333,0,0,1,.847-0.1v-0.19a3.978,3.978,0,0,0,.471-1.524,0.754,0.754,0,0,1-.659-0.1v0.191a0.489,0.489,0,0,1,.094.286H46.024a0.476,0.476,0,0,0-.282-0.1,1.217,1.217,0,0,1,.094-0.381H45.647c-0.132-.084-0.528-0.1-0.659-0.191a0.344,0.344,0,0,1-.094-0.19,4.964,4.964,0,0,0,0-1.333h0.565V18.667a0.906,0.906,0,0,0,.282-0.381h0.188v0.381c-0.244.027-.167-0.044-0.188,0.381h1.129c0.007-1.071.509-1.4,0.659-2.286H47.435a1.089,1.089,0,0,1-.282.191V16.571l0.471,0.1V16.1c-0.2-.2-0.27-0.2,0-0.381a0.329,0.329,0,0,0,.094.191c0.025-.8.159-0.918,0.188-1.714l-2.259-.952a0.413,0.413,0,0,1-.282.286V13.333a1.87,1.87,0,0,1-.188-0.381h0.471a1.472,1.472,0,0,0,1.318.1,0.321,0.321,0,0,1-.188-0.1c0.21-.115.124-0.14,0.188-0.476h0.941a0.476,0.476,0,0,1,.282-0.1V11.81h0.941v-0.1a1.474,1.474,0,0,1-.659-1.333,0.848,0.848,0,0,0,.659-0.667c-0.067-.147-0.012-0.013,0-0.286h0.282a0.338,0.338,0,0,0,.188.1c-0.059.64,0.584,0.417,0.659,1.238a1.013,1.013,0,0,0-.753.667h0.188A9.171,9.171,0,0,0,51.671,11.238ZM49.224,9.524a0.464,0.464,0,0,0,.094.286A0.463,0.463,0,0,0,49.224,9.524Zm0.377,0.1h0.188v0.1A0.321,0.321,0,0,1,49.6,9.619Zm-0.659.1a0.345,0.345,0,0,1,.094.19H48.941V9.714Zm0.847,0h0.188v0.1A0.321,0.321,0,0,1,49.788,9.714Zm0.188,0.1h0.188V9.9A0.321,0.321,0,0,1,49.977,9.81Zm0.188,0.1h0.188V10A0.321,0.321,0,0,1,50.165,9.9ZM50.353,10l0.471,0.1v0.1H50.541C50.472,10.107,50.423,10.083,50.353,10Zm0.471,0.191h0.188v0.1A0.322,0.322,0,0,1,50.824,10.191Zm0.188,0.1H51.2v0.1A0.321,0.321,0,0,1,51.012,10.286Zm-2.259.1c0.162,0.084.12,0.085,0.282,0H48.753Zm2.447,0h0.188v0.1A0.322,0.322,0,0,1,51.2,10.381Zm0.188,0.1h0.188v0.1A0.321,0.321,0,0,1,51.388,10.476Zm-2.635.1c0.162,0.084.12,0.085,0.282,0H48.753Zm-0.188.1c0.114,0.222.258,0.542,0.377,0.762h0.188V11.238A7.405,7.405,0,0,1,48.565,10.667Zm-2.635.286a0.344,0.344,0,0,1,.094.19H45.929v-0.19Zm3.294,0.286v0.191h0.094A0.327,0.327,0,0,0,49.224,11.238Zm-3.2.1a0.345,0.345,0,0,1,.094.191H46.024V11.333Zm0.282,0a0.345,0.345,0,0,1,.094.191H46.306V11.333Zm-0.282.476H46.4a0.464,0.464,0,0,1,.094-0.286v0.191a0.489,0.489,0,0,1,.094.286H46.494a1.009,1.009,0,0,0-.565-0.1,0.621,0.621,0,0,1,.094-0.381V11.81ZM45.835,12h0.188v0.191H45.835V12Zm0.753,0a0.344,0.344,0,0,1,.094.191H46.588V12Zm0.094,0.191a0.344,0.344,0,0,1,.094.191H46.682V12.191Zm-0.471.191a0.509,0.509,0,0,1,.376.381H46.494A1.675,1.675,0,0,1,46.212,12.381Zm0.471,0.1h0.188C46.759,12.629,46.831,12.593,46.682,12.476Zm0.377,0.1v0.571h0.847V12.571H47.059Zm-0.471.191h0.188C46.665,12.915,46.737,12.879,46.588,12.762Zm1.6,0a0.8,0.8,0,0,0-.188.286h0.094l0.188-.286H48.188Zm-1.976.476A5.058,5.058,0,0,0,48,14.1l0.094-.667H47.906A4.853,4.853,0,0,0,46.212,13.238Zm2.165,0a4.1,4.1,0,0,0,.376.857H48.659l-0.282-.476H48.282v0.1a0.832,0.832,0,0,0-.094.476h0.094v0.1l0.47,0.1c0.078-.309-0.046-0.146.188-0.286a0.362,0.362,0,0,0,.188.286V14.191c-0.348-.264-0.222-0.473,0-0.857H48.753A0.629,0.629,0,0,0,48.377,13.238Zm1.882,0.191a1.145,1.145,0,0,1,0,.952V13.429Zm-3.577.381a0.49,0.49,0,0,1,.094.286H46.588V14A0.344,0.344,0,0,0,46.682,13.81Zm1.412,0.572v0.19a0.983,0.983,0,0,0,.565-0.1Zm-0.565.286c0.239,0.139.106-.021,0.188,0.286H47.529V14.667Zm0.659,0.1,0.094,0.286c-0.276-.037-0.118-0.156-0.282.1h0.282a1.444,1.444,0,0,0,.188-0.381H48.188Zm0.565,0a1.36,1.36,0,0,0-.094.381h0.094v-0.19l0.188-.1A0.339,0.339,0,0,0,48.753,14.762Zm0.565,0.476a1.935,1.935,0,0,0,.753-0.286v-0.1H49.412v0.1H49.318v0.286Zm-0.282-.286v0.19h0.094A0.327,0.327,0,0,0,49.035,14.952Zm-0.941,1.238,0.094,0.286h0.188V16.286H48.282A0.338,0.338,0,0,0,48.094,16.191Zm0.471,1.048,0.565-.1V16.286c-0.379.085-.015-0.014-0.377-0.1a1.238,1.238,0,0,0,.188.952H48.753a0.577,0.577,0,0,0-.188-0.191v0.286Zm0-.952-0.094.286h0.094v-0.1C48.682,16.327,48.625,16.428,48.565,16.286Zm-0.094.952V16.762H48.377a0.364,0.364,0,0,1-.282.191v-0.1a0.579,0.579,0,0,0,.188-0.19c-0.235-.065-0.175-0.225-0.282-0.1a1.143,1.143,0,0,0-.282.572h0.094a0.364,0.364,0,0,1,.282-0.191v0.1a0.578,0.578,0,0,0-.188.191h0.565Zm0.847,1.333h0.847V17.619l-0.941-.381V18C49.424,18.214,49.335,18.135,49.318,18.571Zm-1.506,0h0.282a2.118,2.118,0,0,1,.282-0.952,4.328,4.328,0,0,0,.376.572H48.659c-0.266.2-.227-0.095-0.376,0.191H48.188c-0.093.1,0.093,0.094,0.094,0.1v0.1a1.656,1.656,0,0,1,.753,0v-0.1h0.094a1.944,1.944,0,0,1,0-1.048,0.924,0.924,0,0,0-.753.19c-0.231-.249-0.181-0.193-0.659-0.19v0.1a1.676,1.676,0,0,1,.377.762H48v-0.1a1.143,1.143,0,0,1-.282-0.572H47.624l-0.094.762h0.188a0.464,0.464,0,0,1,.094-0.286v0.476Zm-0.565-.381-0.094.191C47.317,18.248,47.247,18.191,47.247,18.191Zm-0.188.286a0.338,0.338,0,0,0,.188.1A0.338,0.338,0,0,0,47.059,18.476Zm0.471,0a0.338,0.338,0,0,0,.188.1A0.337,0.337,0,0,0,47.529,18.476ZM52.8,18.667a0.344,0.344,0,0,1,.094.19H52.8v-0.19Zm3.388,0a0.338,0.338,0,0,0,.188.1A0.338,0.338,0,0,0,56.188,18.667Zm-54.494.286L1.788,19.9H1.6a3.415,3.415,0,0,1-1.412.286A3.1,3.1,0,0,0,0,19.238H0.376A3.1,3.1,0,0,1,1.694,18.952Zm66.071,0.191h0.188v0.1A0.322,0.322,0,0,1,67.765,19.143Zm-2.259.667a0.493,0.493,0,0,0,.565,0H65.506Zm-0.188.381c0.162,0.084.12,0.085,0.282,0H65.318Zm2.071,0a0.338,0.338,0,0,0,.188.1A0.338,0.338,0,0,0,67.388,20.191Zm3.294,0.286a0.344,0.344,0,0,1,.094.191H70.682V20.476Zm6.494,0.191v0.476h1.6a1.689,1.689,0,0,1,.188-0.381C79,21.1,78.92,21,79.153,21.143V20.571H79.059A4.789,4.789,0,0,1,77.177,20.667ZM41.788,22.381a0.451,0.451,0,0,1,.282.1c-0.239.139-.106-0.021-0.188,0.286,0.72,0.031,2.093.08,2.353-.381a9.835,9.835,0,0,0,.377-1.714H44.424c-0.277.191-.764,0.181-1.035,0.381-0.062.294-.543,0.231-1.129,0.191-0.073.065-.21,0.125-0.282,0.191s-0.106.12-.188,0.19A2.7,2.7,0,0,1,41.788,22.381Zm31.247-1.524v0.476a11.133,11.133,0,0,0,2.071-.1V20.762H75.012A5.074,5.074,0,0,1,73.035,20.857Zm2.165-.1v0.476h1.882V20.762H75.2Zm-32.565.1c-0.379.232-1.318-.046-1.694,0.191a4.269,4.269,0,0,0,2.071-.191H42.635Zm4.235,0a1.361,1.361,0,0,0-.094.381h0.094v0.1h0.094C46.971,20.941,47.1,21.068,46.871,20.857Zm22.212,0.191v0.476a30.387,30.387,0,0,0,3.859-.191V20.857H72.753C72.242,21.183,69.946,21.058,69.082,21.048Zm-60.706-.1a1.617,1.617,0,0,0,.659.381v-0.1A1.387,1.387,0,0,0,8.376,20.952Zm57.882,0a0.338,0.338,0,0,0,.188.1A0.338,0.338,0,0,0,66.259,20.952Zm-26.729.1v0.191a3.17,3.17,0,0,1,.753.1v-0.19H40A0.807,0.807,0,0,0,39.529,21.048Zm5.176,0-0.188,1.524h0.188a2.147,2.147,0,0,0,.188-1.238C44.83,21.26,44.771,21.121,44.706,21.048Zm22.494,0.1a0.621,0.621,0,0,1-.094.381,0.464,0.464,0,0,0-.094-0.286v0.286a3.059,3.059,0,0,0,.941.1c0-.26.007-0.113,0.188-0.381a0.743,0.743,0,0,0,.847.286V21.048H68.894A4.219,4.219,0,0,1,67.2,21.143Zm3.765,0a0.344,0.344,0,0,1,.094.19H70.965v-0.19Zm-25.035.1a0.489,0.489,0,0,1,.094.286H45.929V21.238Zm13.647,0h0.188v0.1A0.321,0.321,0,0,1,59.577,21.238Zm5.647,0.1V21.81l0.471-.1,0.094-.476H65.6A0.629,0.629,0,0,1,65.224,21.333Zm1.035-.1a0.806,0.806,0,0,0,.094.476A0.8,0.8,0,0,0,66.259,21.238Zm10.918,0.1v0.381h1.506a0.463,0.463,0,0,1,.094-0.286v0.286h0.282l0.094-.476H78.871A4.218,4.218,0,0,1,77.177,21.333Zm-40,0v0.191h0.188V21.333H37.177Zm0.282,0v0.191h0.094A0.327,0.327,0,0,0,37.459,21.333Zm25.788,0.1V21.81a2.335,2.335,0,0,0,.753.1,2.53,2.53,0,0,1,1.129-.1V21.333Zm-54.212,0V21.81H9.224V21.619C9.141,21.549,9.117,21.5,9.035,21.429Zm9.224,0h0.188v0.1H18.259v-0.1Zm24.941,0h0.282a1,1,0,0,1,.188.571,0.978,0.978,0,0,1-.565.191C42.991,21.672,42.956,21.842,43.2,21.429Zm19.012,0.1V22l0.941-.191V21.429Zm10.824,0V21.9l2.071-.1V21.429H75.012A5.074,5.074,0,0,1,73.035,21.524Zm2.165-.1V21.81h1.788v-0.1h0.094V21.429H75.2Zm-56.753.1a0.346,0.346,0,0,1,.094.191H18.447V21.524Zm27.388,0a0.49,0.49,0,0,1,.094.286H45.835V21.524Zm16.188,0a0.806,0.806,0,0,0,.094.476A0.8,0.8,0,0,0,62.024,21.524Zm9.506,0.1V22h0.094a3.087,3.087,0,0,1,1.318-.1V21.524H72.753A2.807,2.807,0,0,1,71.529,21.619ZM60.8,22.1V21.619H60.047V21.81c0.081,0.179.045,0.07,0,.286H60.8Zm0.094-.476a0.621,0.621,0,0,0,.094.381A0.621,0.621,0,0,0,60.894,21.619Zm-42.353.1a0.344,0.344,0,0,1,.094.191H18.541V21.714Zm51.294,0c0.162,0.084.12,0.085,0.282,0H69.835Zm-67.482.1a2.5,2.5,0,0,1,1.129.1A2.5,2.5,0,0,1,2.353,21.81Zm1.6,0H5.176v0.1H4.988V22A3.923,3.923,0,0,1,3.953,21.81Zm41.788,0a0.648,0.648,0,0,1,0,.667V21.81Zm21.741,0c0.163,0.126.151,0.165,0.282,0.1h0.094v-0.1H67.482Zm-1.882.1a0.629,0.629,0,0,1-.376.1c0.125,0.283-.091.231,0.376,0.286a0.328,0.328,0,0,1,.094-0.191A0.327,0.327,0,0,0,65.6,21.9Zm-1.318.476V22l-1.035.191v0.191h0.565C64.069,22.156,63.855,22.313,64.282,22.381ZM64.565,22v0.286h0.471V22H64.565Zm3.953,0a0.338,0.338,0,0,0,.188.1A0.338,0.338,0,0,0,68.518,22Zm-37.27.1a0.346,0.346,0,0,1,.094.191H31.247V22.1Zm31.341,0a1.009,1.009,0,0,1-.565.1v0.191h0.094a1.474,1.474,0,0,0,.753.1l0.094-.191A1.412,1.412,0,0,0,62.588,22.1Zm-19.859.1h0.188v0.1H42.729v-0.1Zm3.765,0a1.091,1.091,0,0,0,.282.191V22.191H46.494Zm15.247,0a0.808,0.808,0,0,1-.471.1l-0.094.191h0.094a1.009,1.009,0,0,1,.565-0.1A0.328,0.328,0,0,0,61.741,22.191Zm-43.388.1a0.281,0.281,0,0,1,0,.381V22.286Zm23.718,0h0.188v0.1A0.321,0.321,0,0,1,42.071,22.286Zm17.977,0a1.218,1.218,0,0,1-.094.381h0.094a1.987,1.987,0,0,1,.941-0.1l0.094-.286H60.047Zm-56.188.191v0.286H4.141a0.578,0.578,0,0,1,.188-0.191v-0.1H3.859Zm2.541,0H4.706v0.191H5.553c0.361,0.2.321-.227,0.659-0.1a0.347,0.347,0,0,0,.188.191V22.476Zm12.047,0.191a0.489,0.489,0,0,1,.094.286H18.447V22.667Zm-15.624.19a0.493,0.493,0,0,0,.565,0H2.824Zm1.129,0a0.338,0.338,0,0,0,.188.1A0.338,0.338,0,0,0,3.953,22.857Zm27.859,0a0.376,0.376,0,0,0,.376.191v-0.1H32.094v-0.1H31.812Zm4.235,0v0.191h0.471v-0.1H36.424v-0.1H36.047Zm9.318,0.1v0.286h0.377V22.952H45.365Zm-26.823.1a0.49,0.49,0,0,1,.094.286H18.541V23.048Zm26.729,0.476c0.371-.039.371,0.042,0.471-0.191H45.271a1.511,1.511,0,0,0-.094.476h0.094V23.524Zm-26.447.191V24h0.847V23.619a2.775,2.775,0,0,0-1.224.1h0.376Zm2.729-.1V24.1h1.318V23.619H21.553Zm1.412,0v1.048a1.543,1.543,0,0,0,.753-0.286v0.286h0.471V24.381a0.835,0.835,0,0,1,.471.286V24.476a2.583,2.583,0,0,0-1.412-.191v-0.1H23.153V24.1h1.694l-0.094-.476H22.965Zm-3.2.191V24h0.094V23.81H19.765Zm0.659,0V24h0.188V23.9Zm-1.976.1c0.162,0.084.12,0.085,0.282,0H18.447Zm9.976,0.19c0.078,0.309-.046.146,0.188,0.286V24.1H28.424Zm-6.965.381V24.191a1.184,1.184,0,0,0-.377.1v0.191h0.377Zm0.094-.286v0.286h1.318V24.191H21.553Zm4.706,0.286a0.452,0.452,0,0,0,.282-0.1l-0.282-.191v0.286Zm-6.4-.191v0.286c0.305-.079.144,0.047,0.282-0.19h0.094v-0.1H19.859Zm7.247,0.191v0.191a0.6,0.6,0,0,0,.377-0.1A1.183,1.183,0,0,1,27.106,24.476Zm-5.271.1a1.108,1.108,0,0,0,.941,0H21.835Zm4.424,0a0.273,0.273,0,0,0,.377,0H26.259Zm0.565,0a0.338,0.338,0,0,0,.188.1A0.338,0.338,0,0,0,26.824,24.571Z"/>
</svg>
