<svg xmlns="http://www.w3.org/2000/svg" width="40" height="40" viewBox="0 0 40 40">
  <defs>
    <style>
      .cls-1 {
        fill: #fff;
        fill-rule: evenodd;
      }
    </style>
  </defs>
  <path id="ussr_is_2_1944_ico" class="cls-1" d="M17.031,13H17.1v2.437a3.9,3.9,0,0,0,.161,1.494,1.045,1.045,0,0,1,.3-0.023v0.138h0.046a1.158,1.158,0,0,1,.322-0.023,0.111,0.111,0,0,0,.023.069,1.137,1.137,0,0,1,1.036-.322,0.381,0.381,0,0,1,.161-0.368,0.5,0.5,0,0,1,.46,0L19.7,16.563a0.587,0.587,0,0,0,.092.506c0.084,0.05.349-.039,0.506,0a4.127,4.127,0,0,0,1.22.161,0.111,0.111,0,0,0,.023.069,1.7,1.7,0,0,1,.483,0,0.111,0.111,0,0,0,.023.069,0.1,0.1,0,0,1,.069-0.069c-0.009.067-.038,0.029,0.023,0.069a0.165,0.165,0,0,1,.092-0.046,0.148,0.148,0,0,0,.023.092,0.117,0.117,0,0,1,.115-0.069v0.069l0.207-.023a2.033,2.033,0,0,0,.483.115,0.687,0.687,0,0,0,.3.322,0.066,0.066,0,0,1,.023.023,0.254,0.254,0,0,0-.115.046,0.269,0.269,0,0,1,.023.161,2.874,2.874,0,0,1,.184.276,0.965,0.965,0,0,1,.391.023,0.117,0.117,0,0,1,.023.069,0.108,0.108,0,0,0-.046.115h0.368v0.069a7.345,7.345,0,0,1,1.381.092L37.307,18.77V18.632a2.327,2.327,0,0,0,.437-0.023V18.494H37.86v0.115a4.237,4.237,0,0,0,.875-0.115l1.151,0.023,0.023,0.069a1.564,1.564,0,0,1,0,.988,0.5,0.5,0,0,1-.161.023,1.441,1.441,0,0,1-.529.023c-0.525,0-.9-0.1-1.358-0.115v0.069H37.745V19.506l-0.437-.023V19.345l-5.086.046H30.4a4.963,4.963,0,0,0-.9.023H25.869c-0.143.031-.38-0.014-0.552,0.023a5.592,5.592,0,0,1-1.1.069v0.069H23.844v0.069a0.293,0.293,0,0,0-.23.115,2.911,2.911,0,0,0-.391.115,2.108,2.108,0,0,1-.161.161,1.027,1.027,0,0,1-.322.046c-0.089.02-.25,0.1-0.345,0.138-0.281.1-.425-0.011-0.552,0.276h0.391a0.78,0.78,0,0,0-.023-0.184h0.276a0.9,0.9,0,0,1,.276-0.046v0.253a0.111,0.111,0,0,1,.069.023h0.023v0.069c0.606,0.059.932,0.507,1.542,0.575a0.269,0.269,0,0,0,.069-0.138c-0.186-.261.134-0.5,0.253-0.621l0.23-.023v0.667c0.154,0.012.078,0.036,0.138,0.069,0.035,0.02.761-.023,0.875-0.023a0.064,0.064,0,0,0,.023.023,1.128,1.128,0,0,1-.046.828h0.207a2.624,2.624,0,0,0,.483.023,1.765,1.765,0,0,1,.391.161,1.806,1.806,0,0,1,.414.3,1.97,1.97,0,0,0,.368.437,1.527,1.527,0,0,0-.23.506,0.543,0.543,0,0,1,.023.161c-0.093,0-.055-0.038-0.092.023a0.117,0.117,0,0,0-.023.069,0.108,0.108,0,0,1,.115,0,1.535,1.535,0,0,1-.069.989,0.361,0.361,0,0,1-.115.184H27.365a0.091,0.091,0,0,0-.023-0.115v0.023a2.488,2.488,0,0,1-.253.253,0.132,0.132,0,0,1,.069.092,0.8,0.8,0,0,0-.069.069c-0.035-.02-0.017-0.066-0.046-0.023a0.938,0.938,0,0,1-.23.184,0.286,0.286,0,0,0,0-.138H26.789a0.89,0.89,0,0,1-.23.138c0.012,0.1.05,0.119-.046,0.161a0.71,0.71,0,0,0-.161.115c-0.1-.018-0.1-0.025-0.207-0.046a1.492,1.492,0,0,1-.161.115,0.108,0.108,0,0,1,.046.115H25.984c-0.04.018-.012-0.035-0.069,0a0.453,0.453,0,0,1-.184.161,0.178,0.178,0,0,0,0-.092c-0.115.051-.179,0.073-0.276,0.115a0.111,0.111,0,0,1,.023.115,1.18,1.18,0,0,1-.3.184V26.2c0.031-.055.032-0.057-0.023-0.092-0.077.076-.2,0.108-0.276,0.184,0.051,0.038.069,0.039,0.046,0.092a0.808,0.808,0,0,1-.092,0,0.312,0.312,0,0,1-.207.161,0.091,0.091,0,0,0-.023-0.115,0.794,0.794,0,0,1-.23.138,0.307,0.307,0,0,1,0,.161c-0.063-.016-0.011,0-0.046-0.046a1.477,1.477,0,0,1-.253.138c0.011-.075.035-0.09-0.069-0.115-0.055.042-.153,0.049-0.207,0.092-0.06.1,0,.131-0.161,0.138a1.027,1.027,0,0,0-.3,0c-0.309-.037-0.773,0-1.22,0-0.009-.06.017-0.03-0.046-0.046a0.626,0.626,0,0,1-.368.046c-0.009-.06.017-0.03-0.046-0.046a0.458,0.458,0,0,1-.3.046c-0.009-.058.013-0.036-0.069-0.046a0.521,0.521,0,0,1-.345.046c-0.009-.058.013-0.036-0.069-0.046a1.784,1.784,0,0,1-.759.069,6.446,6.446,0,0,0-1.059,0c0.009-.052.021-0.025,0-0.069a0.185,0.185,0,0,1-.253.023,0.3,0.3,0,0,1-.184.046V26.908a0.654,0.654,0,0,1-.3.023c0.057-.03.016,0.01,0.046-0.046H18.3a0.5,0.5,0,0,1-.414.069,2.835,2.835,0,0,0-.322,0c-0.037-.041-0.253.041-0.414,0-0.018-.021-0.835,0-1.036,0,0.009-.052.021-0.025,0-0.069a0.641,0.641,0,0,1-.437.069c-0.009-.06.017-0.03-0.046-0.046a0.318,0.318,0,0,1-.253.046V26.931a0.089,0.089,0,0,0,.046-0.069H15.4a0.614,0.614,0,0,1-.46.092c0.009-.052.021-0.025,0-0.069a0.359,0.359,0,0,1-.322.069c-0.011-.012.022-0.067-0.023-0.046a0.7,0.7,0,0,1-.391.046,2.6,2.6,0,0,0-.322,0,6.3,6.3,0,0,0-.736,0c-0.009-.06.017-0.03-0.046-0.046a0.547,0.547,0,0,1-.368.046c-0.009-.06.017-0.03-0.046-0.046a0.365,0.365,0,0,1-.276.046c-0.009-.06.017-0.03-0.046-0.046a0.577,0.577,0,0,1-.368.046c-0.009-.06.017-0.03-0.046-0.046a2.109,2.109,0,0,1-.691.046c-0.009-.06.017-0.03-0.046-0.046a0.335,0.335,0,0,1-.276.046,6.1,6.1,0,0,0-.736,0c-0.009-.06.017-0.03-0.046-0.046a0.757,0.757,0,0,1-.368.046c-0.009-.06.017-0.03-0.046-0.046a0.405,0.405,0,0,1-.276.046c-0.009-.06.017-0.03-0.046-0.046a0.563,0.563,0,0,1-.368.046c-0.009-.06.017-0.03-0.046-0.046a0.365,0.365,0,0,1-.276.046c-0.009-.06.017-0.03-0.046-0.046a0.577,0.577,0,0,1-.368.046c-0.009-.06.017-0.03-0.046-0.046a0.472,0.472,0,0,1-.322.069,8.781,8.781,0,0,0-1.151,0c0.009-.052.021-0.025,0-0.069a1.487,1.487,0,0,1-.736.046,0.087,0.087,0,0,0,.069-0.046H6.03a0.6,0.6,0,0,1-.552-0.023,0.111,0.111,0,0,1-.023.069,0.118,0.118,0,0,1-.069.023c-0.089-.064-0.256-0.05-0.345-0.115H5.063a0.437,0.437,0,0,1,.092-0.069V26.77a1.835,1.835,0,0,1-.437-0.115v0.023a0.155,0.155,0,0,1,.023.092,0.151,0.151,0,0,1-.115-0.046c0.057-.03.016,0.01,0.046-0.046H4.6A0.2,0.2,0,0,1,4.4,26.609a0.091,0.091,0,0,0,.069-0.092,2.865,2.865,0,0,0-.3-0.115,0.308,0.308,0,0,1-.046.092,1.282,1.282,0,0,1-.3-0.161c0.026-.034.048-0.07,0.023-0.092a0.887,0.887,0,0,0-.276-0.092,0.141,0.141,0,0,1-.092.046,0.083,0.083,0,0,0-.046-0.023c0-.073.033-0.043-0.046-0.069A0.153,0.153,0,0,1,3.2,26.035a0.091,0.091,0,0,0,.069-0.092,1.327,1.327,0,0,1-.138-0.069c-0.072-.017-0.065.038-0.092,0.046A0.694,0.694,0,0,1,2.6,25.736c0.084-.016.063,0,0.092-0.069a1.421,1.421,0,0,1-.345-0.161c0.017,0.083.041,0.093-.069,0.115A1.972,1.972,0,0,1,2,25.437c0.058-.034.036-0.01,0.046-0.092a2.319,2.319,0,0,1-.23-0.161c-0.017.091,0,.074-0.092,0.092-0.1-.178-0.067-0.035-0.161-0.138A2.685,2.685,0,0,1,1.4,24.862c-0.093-.13-0.234-0.224-0.322-0.368,0.082-.01.058,0.011,0.092-0.046A0.141,0.141,0,0,1,1.128,24.4a0.327,0.327,0,0,1-.092.023,0.124,0.124,0,0,1-.069.092V24.54H0.99A0.236,0.236,0,0,1,1.1,24.7H1.059a3.3,3.3,0,0,1-.736-0.115V24.379A0.948,0.948,0,0,0,.092,23.6a1.09,1.09,0,0,1,.069-0.575H0.138A0.192,0.192,0,0,1,0,23.092V23.046c0.072-.041.139-0.13,0.207-0.161L0.3,22.908c0.012-.008.033-0.079,0.046-0.092a4.234,4.234,0,0,1,.414-0.391c0.329-.246.659-0.5,0.99-0.736a1.915,1.915,0,0,0,.644-0.552H2.486a0.14,0.14,0,0,1,.046-0.046,0.915,0.915,0,0,1,0-.345c0.047-.037.069-0.1,0.115-0.138a0.99,0.99,0,0,0,.161-0.069l0.023-.207A0.325,0.325,0,0,1,3.2,20.149a0.82,0.82,0,0,1,.345.184,0.338,0.338,0,0,1,.046.161H3.682V19.92H5.5a0.248,0.248,0,0,1,.207-0.069,0.394,0.394,0,0,1,.276.069H7.825v0.529a0.948,0.948,0,0,0,.276.023,2.063,2.063,0,0,0,.023-0.552,6.889,6.889,0,0,0,1.864-.069,1.532,1.532,0,0,1,.46.046l0.023-.069L10.84,19.8a1.9,1.9,0,0,1,.069-0.414c-0.075-.019-0.035.011-0.069-0.046a0.328,0.328,0,0,0,.23-0.3,0.815,0.815,0,0,0-.552-0.092,0.156,0.156,0,0,0-.092-0.023V18.862h0.092V18.793c-0.259,0-.532.012-0.759,0.023V18.77A0.117,0.117,0,0,1,9.735,18.7a0.424,0.424,0,0,1,.138-0.023,3.461,3.461,0,0,0,.99,0,0.62,0.62,0,0,1,.368-0.575V18.2h0.046c0.04-.058.129-0.084,0.161-0.138a0.2,0.2,0,0,1,0-.138c0.115-.006.13,0.025,0.138-0.115a0.083,0.083,0,0,0,.023-0.046,0.249,0.249,0,0,1-.184-0.138,0.8,0.8,0,0,0,.138-0.023,1.335,1.335,0,0,1,.092-0.115,1.657,1.657,0,0,1,.322,0,0.741,0.741,0,0,0,.138-0.207,0.132,0.132,0,0,1-.046-0.138,0.383,0.383,0,0,1,.115-0.115,2.442,2.442,0,0,0,.737,0L13,16.563a3.351,3.351,0,0,1,.506-0.345c0.142-.055.2,0.009,0.253-0.138a0.662,0.662,0,0,1-.046-0.115h0.115v0.184h0.023a0.305,0.305,0,0,1,.161-0.023l0.023-.115h0.023a0.118,0.118,0,0,0,.069.023v0.092c0.081-.016.046-0.036,0.069-0.046a1.558,1.558,0,0,1,.322.023,0.537,0.537,0,0,0,.069-0.23H14.569a1.683,1.683,0,0,1-.621.023V15.414H12.612V15.23H13V15.138H10.7A0.191,0.191,0,0,0,10.656,15a2.439,2.439,0,0,0-.69-0.046,0.243,0.243,0,0,1-.023.138V14.954a0.631,0.631,0,0,1-.207-0.023c-0.006.06,0.011,0.041-.092,0.046V14.954H9.62C9.611,15.012,9.634,14.99,9.551,15V14.977H9.528c-0.009.058,0.013,0.036-.069,0.046a0.567,0.567,0,0,1-.046-0.207,0.187,0.187,0,0,1,.138-0.069,0.733,0.733,0,0,0,.391.069,0.242,0.242,0,0,1,.023-0.138v0.138h0.345A0.683,0.683,0,0,0,10.38,14.4h0.092V14.77a0.666,0.666,0,0,0,.207.023,3.456,3.456,0,0,1,.875-0.023,7.726,7.726,0,0,0,2.071-.115v0.069H13.74V14.678a0.3,0.3,0,0,0,.023-0.161,3.374,3.374,0,0,1,.967,0c-0.014.082-.008,0.172-0.023,0.23h0.184a0.271,0.271,0,0,1,.069-0.184V13.989a0.064,0.064,0,0,0,.023-0.023c0.156-.01.384,0,0.506-0.023v0.115a1.179,1.179,0,0,0-.023.46,0.576,0.576,0,0,1-.184.023v0.092a0.064,0.064,0,0,1,.023.023c0.209,0.008.309,0.067,0.552,0.069v0.207H15.9a0.471,0.471,0,0,1-.046.23l-0.483-.023V15.23a0.362,0.362,0,0,1-.115.023V15.138a0.9,0.9,0,0,0-.207.023v0.092a1.047,1.047,0,0,0-.023.391L15.1,15.759a0.5,0.5,0,0,1,.161-0.023v0.115l0.276-.023V16.1H15.6V16.035a0.293,0.293,0,0,0,.092-0.023v0.046a0.117,0.117,0,0,1,.023.069,0.791,0.791,0,0,1,.184.023V15.966h0.115v0.023a1.276,1.276,0,0,0-.069.138,1.142,1.142,0,0,1,.782.529,0.682,0.682,0,0,1,.069.276,0.111,0.111,0,0,0,.069-0.023,2.291,2.291,0,0,0,.161-1.2V13ZM15.3,15.368a0.118,0.118,0,0,1,.023.069H15.3V15.368Z"/>
</svg>
