<?xml version="1.0" encoding="utf-8"?>
<!-- Generator: Adobe Illustrator 16.0.0, SVG Export Plug-In . SVG Version: 6.00 Build 0)  -->
<!DOCTYPE svg PUBLIC "-//W3C//DTD SVG 1.1//EN" "http://www.w3.org/Graphics/SVG/1.1/DTD/svg11.dtd">
<svg version="1.1" id="Layer_1" xmlns="http://www.w3.org/2000/svg" xmlns:xlink="http://www.w3.org/1999/xlink" x="0px" y="0px"
	 width="40px" height="40px" viewBox="0 0 40 40" enable-background="new 0 0 40 40" xml:space="preserve">
<path id="ussr_type_65_aa_ico" fill="#FFFFFF" d="M24.784,11.063c0.487,0.021,0.976-0.042,1.442-0.187v0.063
	c-0.057,0.141-0.057,0.297,0,0.438c0.114,0.419,0.174,0.924,0.282,1.344c0.002,0.118,0.023,0.234,0.063,0.344
	c0.205,0.051,0.418,0.062,0.627,0.031c0.048-0.025,0.103-0.036,0.156-0.031v0.219c1.513,0.061,3.125,0.094,4.675,0.094h2.415
	c0.469,0.053,0.941,0.063,1.412,0.031c0.471,0.032,0.943,0.022,1.412-0.031l1.067,0.031c0.549-0.098,1.106-0.141,1.663-0.128v0.687
	c-0.62-0.002-1.239-0.055-1.852-0.156c-0.254-0.05-0.58,0.095-0.877,0.031c-0.804-0.078-1.613-0.078-2.416,0
	c-2.52,0-5.078,0.021-7.5,0.125v0.219h0.064c0.111-0.037,0.229-0.047,0.346-0.031v0.625c-0.33,0-0.543-0.061-0.91-0.063v0.031
	c0.178,0.29,0.045,0.832,0.25,1.094c0.287,0.168,0.623-0.025,0.627,0.438c0.162,0.272-0.199,0.489-0.532,0.469
	c-0.079-0.038-0.164-0.06-0.251-0.062c-0.084,0.256-0.223,0.491-0.408,0.688c0.003,0.023,0.014,0.046,0.031,0.063
	c0.265,0.166,0.484,0.107,0.471,0.563h0.126v0.095h-1.601v0.094h0.188v0.156l1.507-0.156v0.059c-0.083,0.198-0.125,0.41-0.125,0.625
	h0.03c0.121-0.077,0.265-0.11,0.408-0.094v0.063c0.001,0.191,0.033,0.382,0.094,0.563c0.144-0.039,0.291-0.06,0.438-0.063
	c0.156-0.124,0.339-0.209,0.533-0.25c0.075,0.058,0.512,0.355,0.565,0.375h0.22c0.187,0.089,0.365,0.193,0.533,0.313
	c-0.02,0.076-0.074,0.093-0.031,0.125c0.049,0.129,0.137,0.238,0.252,0.313c-0.021,0.201,0.035,0.402,0.156,0.563
	c0.092,0,0.044-0.03,0.094,0c0.051,0.03,0.059,0.089,0.094,0.125c-0.035,0.032-0.058,0.077-0.063,0.125
	c0.121,0.068,0.21,0.181,0.251,0.313h3.733v0.125h0.094c0.09,0.582,1.23,1.17,1.443,1.75c-0.468,0.071-0.904,0.277-1.256,0.594
	c0.033,0.09,0.033,0.189,0,0.281c-0.028,0.47-0.244,0.908-0.6,1.219c-0.249,0.157-0.512,0.293-0.784,0.406
	c-0.293,0.176-0.637,0.373-0.94,0.53c-0.076,0.039-0.17,0.013-0.252,0.063c-0.832,0.512-1.701,0.961-2.6,1.344
	c-0.336,0.121-0.683,0.216-1.035,0.281h-1.977l-0.314-0.031c-0.729,0.096-1.469,0.096-2.199,0l-0.346,0.031H21.8
	c-0.333-0.02-0.667-0.02-1,0h-3.357c-0.564-0.112-1.457,0.05-2.133,0c-0.857-0.064-2.005,0-2.886,0h-1.318l-0.345-0.031
	c-0.687,0.094-1.384,0.094-2.071,0l-0.251,0.031H6.776c-0.864-0.207-1.861-0.494-2.635-0.75c-1.048-0.348-2.67-0.561-3.357-1.25
	c-0.112-0.146-0.208-0.305-0.284-0.473c-0.289-0.443-0.39-0.982-0.282-1.5c0.045-0.181,0.009-0.451,0.063-0.687h0.063
	c0.024,0.056,0.069,0.101,0.125,0.125v-0.032c0.051-0.057,0.094-0.12,0.13-0.188c-0.125-0.104-0.241-0.219-0.345-0.344l0.063-0.187
	c-0.172-0.1-0.29-0.272-0.318-0.47c0.279-0.083,0.544-0.209,0.784-0.375L1.1,21.75v-0.563c0.078,0,0.153-0.021,0.22-0.062
	c0.091-0.022,0.169-0.078,0.22-0.156c-0.035-0.019-0.059-0.054-0.063-0.094c0.31-0.308,0.644-0.591,1-0.844
	c0.321-0.073,0.646-0.126,0.973-0.156l0.094-0.031v-1.657h0.315v-0.094c0.104-0.059,0.224-0.081,0.341-0.063
	c0.108,0.106,0.256,0.163,0.408,0.156c0.026-0.051,0.047-0.103,0.063-0.156h0.035C4.737,18,4.675,18,4.675,18
	c-0.34-0.071-0.69-0.082-1.035-0.031H1.663c-0.272,0.016-0.544,0.016-0.816,0v-0.063C0.8,17.826,0.824,17.792,0.91,17.75
	c0.174-0.045,0.355-0.055,0.533-0.031h1.349v-0.156h0.032v-0.031c0.023,0.003,0.046,0.014,0.063,0.031
	c0.025,0.047,0.037,0.102,0.031,0.155h6.211c0.112-0.072,0.253-0.084,0.376-0.03c0.043,0.162,0.065,0.331,0.063,0.5h0.095v-0.063
	c0.046-0.075,0.079-0.311,0.125-0.406c0.583-0.045,1.281-0.031,1.914-0.031c0.242-0.035,0.489-0.014,0.722,0.063
	c0.131,0.166-0.038,0.406,0.251,0.438c0.26-0.047,0.525-0.047,0.784,0h1.82c0.294,0.045,0.594,0.023,0.879-0.063h0.031v-0.033
	h-1.726c-0.147-0.546-0.614-0.961-0.753-1.5c-0.013-0.276,0.029-0.553,0.126-0.812l0.345-2.313
	c-0.019-0.042-0.063,0.028-0.094-0.125h0.031v-0.031h0.094c0.141-0.744,0.235-1.495,0.282-2.25h3.012
	c-0.029-0.396,0.07-0.79,0.282-1.125c0.2-0.28,0.369-0.092,0.345-0.594c-0.11-0.04-0.215-0.092-0.314-0.156
	c0.171-0.3-0.084-0.612,0.314-0.75c0.296-0.097,0.615-0.097,0.91,0c0.12,0.187,0.275,0.409,0.408,0.594h-0.125
	c0.029,0.152,0.093,0.13,0.125,0.281c-0.153,0.072-0.034,0.214-0.094,0.344c-0.067,0.034-0.13,0.076-0.188,0.125
	c-0.112,0.199-0.146,0.433-0.094,0.656h0.063c0.167,0.088,0.347,0.152,0.533,0.188c0.157-0.014,0.314-0.014,0.471,0
	c0.061,0.023,0.2,0.1,0.282,0.125h0.221c0.109,0.089,0.204,0.195,0.281,0.313h0.816v-0.158h0.408
	c0.019,0.05,0.029,0.103,0.031,0.156h0.846c0.096-0.108,0.213-0.193,0.346-0.25c0.064-0.265,0.171-0.518,0.314-0.75
	c0.061-0.029,0.115-0.071,0.156-0.125c0.014-0.007,0.023-0.018,0.031-0.031c-0.049-0.004-0.094-0.026-0.126-0.063V9.813h0.031
	c0.307-0.081,0.624-0.112,0.94-0.094V1h0.031C24.752,4.356,24.783,7.754,24.784,11.063z"/>
</svg>
