<svg xmlns="http://www.w3.org/2000/svg" width="40" height="40" viewBox="0 0 40 40">
  <defs>
    <style>
      .cls-1 {
        fill: #fff;
        fill-rule: evenodd;
      }
    </style>
  </defs>
  <path id="Color_Fill_1" data-name="Color Fill 1" class="cls-1" d="M12.9,14.05a0.242,0.242,0,0,0,.05.149,2.678,2.678,0,0,0,1.187.349L14.289,14h0.1v0.05a1.051,1.051,0,0,0-.148.5c0.505,0,1,.042,1.384,0a0.3,0.3,0,0,0,0,.2,1.88,1.88,0,0,0,1.236.149h3.659c0.018-.009.779,0,1.038,0v0.3c-1.835-.126-3.878-0.05-5.834-0.05a2.31,2.31,0,0,0-.148.249h0.643a0.177,0.177,0,0,1,.1-0.05,0.171,0.171,0,0,0,.049.1,0.171,0.171,0,0,1-.049.1c-0.593.382-2.256-.119-2.67,0.4a0.519,0.519,0,0,0-.1.3H13.7v0.3a1.238,1.238,0,0,1,.247.2c0.367,0,.564.023,0.89,0v-0.2a0.631,0.631,0,0,1,.495-0.3,0.179,0.179,0,0,0,.1.05,2.062,2.062,0,0,1,.049.6,6.889,6.889,0,0,1,1.78.149,1.84,1.84,0,0,0,.4-0.05,1.175,1.175,0,0,1,.1.2,3.2,3.2,0,0,0,.939.149,2.253,2.253,0,0,1,.544.149,0.872,0.872,0,0,0,.1.2,0.26,0.26,0,0,0,.2-0.1l0.445,0.05v0.2a3.883,3.883,0,0,1,1.434.2l5.736,0.05c0.863,0,1.792.05,2.719,0.05h1.088a6.431,6.431,0,0,1,1.681-.1h2.126l0.049,0.149a5.935,5.935,0,0,0,1.632-.05H40V18.88a15.8,15.8,0,0,0-3.461,0h-1.78v0.1H34.265l-0.049.1a3.19,3.19,0,0,0-.495-0.1H32.089a4.658,4.658,0,0,1-1.187-.1l-4.153.05c-2.387,0-5.727-.186-7.219.6v0.05h0.346a0.32,0.32,0,0,1,.3,0V19.427c1.02,0,1.887.095,2.818,0.1v0.05c-0.125.073-.076,0.022-0.1,0.2,0.3,0.072.491,0.324,0.742,0.4l0.247-.05c0.091,0.031.305,0.214,0.4,0.249a0.994,0.994,0,0,1,.2,0,0.193,0.193,0,0,1,.1.149,0.3,0.3,0,0,0-.1.1h0.1a1.205,1.205,0,0,0,.3.05,1.181,1.181,0,0,1,.049-0.647,1.432,1.432,0,0,1,.692-0.1,0.524,0.524,0,0,1,.1.3h0.3a0.241,0.241,0,0,1-.049.149c-0.05.035-.2,0.064-0.247,0.1a0.593,0.593,0,0,1,0,.4h0.1a0.19,0.19,0,0,1,.1-0.149v0.1a0.256,0.256,0,0,0-.049.149c1.75-.03,1.683,0,2.522.9a0.171,0.171,0,0,1-.049.1,3.453,3.453,0,0,1-.494.3,1.384,1.384,0,0,1-.049,1.494,3.325,3.325,0,0,1-1.088.7c-0.587.359-1.222,0.673-1.829,1.046a4.2,4.2,0,0,1-.494.349,6.921,6.921,0,0,1-2.027.05h-4.7L8.9,25.95H5.933L4.549,25.9a10.486,10.486,0,0,1-2.324-1.394,2.873,2.873,0,0,1-1.187-.846,5.83,5.83,0,0,1-.2-1,1.767,1.767,0,0,1-.4.448v-0.05A1.2,1.2,0,0,1,0,22.664,3.784,3.784,0,0,1,.494,21.27a0.38,0.38,0,0,1-.2,0c-0.483-.8.346-1.035,1.088-1.1l0.049-.3a1.234,1.234,0,0,1,.4-0.05v-0.2a20.518,20.518,0,0,1,3.511,0l1.731-.05a2.237,2.237,0,0,1,.544.349,0.656,0.656,0,0,0-.148-0.349,0.649,0.649,0,0,1,.4-0.1,0.351,0.351,0,0,0,.593,0H7.911a8.626,8.626,0,0,1,.544-1.892l-0.593.05a1.08,1.08,0,0,1,.049-0.8c-0.16-.041-0.076.024-0.148-0.1L8.6,16.788a0.927,0.927,0,0,0,.643.5c0.038-.034.11-0.065,0.148-0.1a0.543,0.543,0,0,0,.049-0.3H9.592v0.2h0.1a5.073,5.073,0,0,0,.494-0.448,0.255,0.255,0,0,0,.05-0.149h0.2a0.537,0.537,0,0,1,.148-0.3H10.037c-0.076-.035-0.007-0.006-0.148,0a0.863,0.863,0,0,0-.2-0.5h0.2c0.615,0.526,1.259.219,1.928,0.05,0.4-.1.609,0.247,0.791-0.05a2.741,2.741,0,0,1-.3-0.747,1.489,1.489,0,0,1-.593-0.5,2.85,2.85,0,0,0,.346-0.249,0.18,0.18,0,0,1-.05-0.1A4.531,4.531,0,0,1,12.9,14.05Zm-0.791.149a0.179,0.179,0,0,0,.1.05A0.177,0.177,0,0,0,12.114,14.2Zm-0.1.149V14.5l0.3,0.1v-0.05c-0.034-.038-0.065-0.111-0.1-0.149A0.332,0.332,0,0,0,12.015,14.349Zm0.989,0a0.418,0.418,0,0,0-.1.149,2.188,2.188,0,0,0,.692.05V14.5A1.3,1.3,0,0,1,13,14.349Zm0.841,1.1c0.014,0.13,0,.1.247,0.1,0.094-.046.058-0.019,0.2,0v-0.1H13.844Zm-0.495.4-0.148.249h0.1C13.363,15.972,13.416,15.973,13.35,15.842ZM8.405,16.888a0.586,0.586,0,0,1,.247.448,0.356,0.356,0,0,0-.1.2h0.1a3.238,3.238,0,0,0,.3-0.249A0.782,0.782,0,0,0,8.405,16.888Zm0.049,1.195v0.1H8.5A0.171,0.171,0,0,0,8.455,18.083Zm16.564,1.942-0.049.149h0.1a0.559,0.559,0,0,1,.593,0v-0.1A2.222,2.222,0,0,0,25.019,20.025Zm-23.98.249c0.063,0.069.2,0.213,0.247,0.149H1.335a0.179,0.179,0,0,0-.1-0.05A0.2,0.2,0,0,0,1.038,20.274Zm23.98,0.548a0.317,0.317,0,0,0,.4.05Zm0.692,2.689a0.594,0.594,0,0,1-.4.4,0.566,0.566,0,0,0-.445.05,3.732,3.732,0,0,0,.247.7,3.384,3.384,0,0,1,1.236-.647v-0.05A2.984,2.984,0,0,1,25.711,23.51Zm-18.541.5-0.049.249h-0.2a1.224,1.224,0,0,0-.544-0.05,1.7,1.7,0,0,1-.346,1.145H8.059V25.3a1.265,1.265,0,0,1-.3-1.295H7.169Zm7.664,0a0.517,0.517,0,0,0-.3.05,0.664,0.664,0,0,1-.346.2,1.224,1.224,0,0,0-.544-0.05,1.669,1.669,0,0,1-.346,1.145H15.13V25.3A1.336,1.336,0,0,1,14.833,24.008Zm3.56,0H18.245a0.336,0.336,0,0,1-.346.249,3.091,3.091,0,0,0-.4-0.05l-0.148.05a1.246,1.246,0,0,1-.3,1.1H18.69V25.3A1.265,1.265,0,0,1,18.393,24.008Zm3.412,0a0.363,0.363,0,0,1-.346.249,2.029,2.029,0,0,0-.494-0.05,0.707,0.707,0,0,0-.05.2,1.276,1.276,0,0,1-.3.946h2.126v-0.1a1.139,1.139,0,0,1-.247-1.245H21.8Zm-18.047.05a1.169,1.169,0,0,1-.445.349,0.177,0.177,0,0,0,.1.05,1.319,1.319,0,0,0,.346.2,1.345,1.345,0,0,1,.1-0.6h-0.1Zm6.576,0.149a5.944,5.944,0,0,1-.049.6c-0.061.207-.226,0.347-0.3,0.548h1.384V25.3a1.11,1.11,0,0,1-.3-1.1H11.026A1.255,1.255,0,0,1,10.334,24.208Z" transform="translate(0 0.016)"/>
</svg>
