<?xml version="1.0" encoding="utf-8"?>
<!-- Generator: Adobe Illustrator 16.0.0, SVG Export Plug-In . SVG Version: 6.00 Build 0)  -->
<!DOCTYPE svg PUBLIC "-//W3C//DTD SVG 1.1//EN" "http://www.w3.org/Graphics/SVG/1.1/DTD/svg11.dtd">
<svg version="1.1" id="Layer_1" xmlns="http://www.w3.org/2000/svg" xmlns:xlink="http://www.w3.org/1999/xlink" x="0px" y="0px"
	 width="40px" height="40px" viewBox="0 0 40 40" enable-background="new 0 0 40 40" xml:space="preserve">
<path id="ussr_bmp_2_ico" fill="#FFFFFF" d="M11.652,14.57v0.135c0.107,0.07,0.229,0.116,0.356,0.135
	c0.024-0.091,0.084-0.168,0.165-0.216c0.219-0.027,0.439-0.027,0.658,0c0.215-0.053,0.436-0.08,0.658-0.081
	c-0.01-0.167-0.047-0.332-0.11-0.487l-0.165-0.027c0.022,0.063,0.013,0.134-0.027,0.188L13.1,14.191
	c-0.008,0.07,0,0.053-0.137,0.054c-0.049-0.053-0.119-0.08-0.165-0.135c0.145-0.106,0.222-0.281,0.202-0.46h-0.142v-0.134
	c-0.221,0.025-0.444,0.007-0.658-0.054v0.081h-0.137c-0.024-0.098-0.034-0.199-0.027-0.3c0.062-0.02,0.127-0.029,0.192-0.027v-0.108
	h0.137v0.108l0.685-0.027v-0.081h0.466v0.081h1.727v0.352c-0.182,0.006-0.235,0.051-0.439,0.054v0.081l0.521-0.027
	c0.023-0.088-0.014-0.041,0.055-0.081c0.023,0.088-0.013,0.041,0.055,0.081v-0.108c0.004-0.082-0.004-0.165-0.027-0.244l0.082-0.027
	c0.025-0.125,0.044-0.251,0.055-0.379c0.109-0.204,0.283-0.365,0.493-0.46c0.088-0.031,0.182-0.04,0.274-0.027v-0.107h0.055
	c0.035,0.014,0.074,0.014,0.11,0c0.038,0.094,0.083,0.185,0.137,0.271l-0.027,0.135c-0.017,0.239,0,0.418,0,0.649l0.027,0.216
	c-0.045,0.071-0.101,0.135-0.165,0.189l0.027,0.271c0.079-0.006,0.155-0.034,0.219-0.081h0.247c0.007,0,0.077-0.106,0.082-0.108
	c0.072-0.028,0.033,0.045,0.055,0.054c0.104-0.047,0.224-0.047,0.329,0v0.054h0.632v0.054h-0.11v0.162
	c-0.201-0.003-0.401,0.006-0.6,0.027v0.568c0.079-0.043,0.162-0.079,0.247-0.108c0.362,0.194,0.769,0.288,1.179,0.271
	c0.128,0.027,0.3-0.057,0.384-0.027v0.054h0.137c0.086,0.037,0.169,0.083,0.247,0.135c0.062,0.083,0.135,0.156,0.219,0.216
	c0.04-0.046,0.096-0.075,0.157-0.083v0.135h0.439c0.092-0.191,0.224-0.2,0.521-0.189v-0.105h0.056c0.035,0.013,0.075,0.013,0.11,0
	v0.108c0.072,0.072,0.172,0.111,0.273,0.108c0.053-0.043,0.057-0.051,0.11-0.027c0.038,0.021,0.061,0.064,0.055,0.108
	c-0.052,0.026-0.107,0.044-0.165,0.054l-0.027,0.054H23.3v0.081c3,0,6.556,0.023,9.212,0v0.325c-1.971,0-4.322-0.027-6.5-0.027
	h-2.652c-0.031,0.034-0.059,0.069-0.082,0.108h-2.168c-0.03,0.3-0.12,0.427-0.137,0.699h0.11c-0.043,0.056-0.071,0.121-0.082,0.189
	c0.001,0.086,0.056,0.162,0.138,0.189c0.22,0.074,0.451,0.111,0.685,0.107c0.562,0.094,1.131,0.13,1.7,0.108
	c0.034-0.095,0.08-0.187,0.137-0.271l0.439-0.026c0.071-0.088,0.166-0.153,0.273-0.189v0.189c0.038,0.079,0.107,0.138,0.191,0.161
	v0.217c0.341,0,0.494,0,0.9,0c0.037-0.092,0.021-0.112,0.137-0.135c0.162,0.041,0.332,0.041,0.494,0
	c0.197,0.043,0.398,0.07,0.6,0.08v-0.211l1.043,0.108l0.027,0.271h0.109c0.105,0.039,0.217,0.058,0.329,0.055
	c-0.001-0.029,0.009-0.059,0.026-0.081c0.023,0.088-0.013,0.041,0.056,0.081c0.081-0.179,0.272-0.279,0.466-0.244
	c0.188,0.035,0.371,0.089,0.548,0.162c0.044-0.078,0.131-0.121,0.22-0.108c0.023,0.033,0.041,0.069,0.055,0.108
	c-0.038,0.006,0.011-0.022-0.027-0.027c-0.021-0.052-0.027,0.055-0.027,0.055c0.032,0.087,0.032,0.183,0,0.271h0.027
	c0.108-0.026,0.221-0.026,0.329,0c-0.007-0.276,0.039-0.553,0.138-0.812c0,0.334-0.055,0.468-0.056,0.838h0.056
	c0.063,0.045,0.141,0.064,0.219,0.055c0.006-0.096,0.088-0.169,0.184-0.162c0.003,0,0.006,0,0.008,0
	c0.162,0.049,0.326,0.086,0.494,0.107c0.009,0.127-0.014,0.166,0.082,0.189c0.289,0.023,0.573,0.077,0.85,0.162
	c0.226,0.057,0.561,0.066,0.823,0.135c0.083-0.002,0.165-0.012,0.247-0.027c0.01,0,0.066,0.076,0.082,0.082h0.137
	c0.063,0.019,0.156,0.094,0.219,0.107c0.07-0.023,0.146-0.033,0.22-0.027c0.028,0.05,0.08,0.08,0.137,0.082v-0.106H33.8v0.135
	c0.25,0.011,0.498,0.047,0.74,0.108v-0.108h0.082v0.108h0.055c0.084,0.047,0.14-0.047,0.247,0c0.133,0.076,0.285,0.113,0.439,0.107
	v-0.08c0.089,0.021,0.042-0.014,0.082,0.054c0.009,0.05-0.021,0.034,0.055,0.054c0.187,0.012,0.371,0.049,0.548,0.107l0.3-0.026
	l0.082-0.162c0.069,0.031,0.144,0.05,0.219,0.054l0.027-0.216c0.201-0.164,0.454-0.251,0.713-0.243v0.107h0.521v0.244h-0.323
	c-0.065,0.057-0.112,0.133-0.137,0.216c0.24,0.005,0.479-0.022,0.713-0.081c0.001-0.175,0.028-0.348,0.082-0.514h0.026v0.027
	c0.041,0.233,0.021,0.475-0.055,0.699h0.439c0.059-0.055,0.141-0.074,0.219-0.054c-0.011,0.079-0.045,0.034,0.027,0.081
	c0.201,0.09,0.413,0.153,0.631,0.188v0.081c0.155,0.026,0.314,0.019,0.467-0.022v0.135c-0.223-0.013-0.445,0.015-0.658,0.081
	c0.051,0.074,0.089,0.156,0.11,0.244c-0.042,0.049-0.101,0.078-0.165,0.08c-0.053-0.022-0.02-0.012-0.082,0
	c-0.021-0.063-0.059-0.119-0.11-0.161c-0.084,0.048-0.158,0.112-0.219,0.188c0.049,0.041,0.079,0.1,0.082,0.162
	c-0.067,0.052-0.108,0.131-0.11,0.217v0.026c0.041-0.029,0.088-0.048,0.137-0.054c0.008,0.011,0.017,0.02,0.027,0.027
	c-0.221,0.664-0.341,0.526-0.932,0.405c-0.068,0.038-0.125,0.095-0.164,0.162c-0.018,0.023-0.027,0.052-0.027,0.081
	c-0.227,0.026-0.444,0.109-0.631,0.243c-0.025-0.04-0.091-0.146-0.109-0.108c-0.222,0.277-0.415,0.577-0.576,0.893
	c-0.064,0.044-0.143,0.063-0.219,0.055c-0.021-0.033-0.068-0.055-0.082-0.081c-0.039-0.071-0.015-0.183-0.056-0.243
	c-0.182,0.148-0.331,0.333-0.438,0.541c0.1,0.1,0,0.215-0.166,0.217c-0.021-0.044-0.062-0.074-0.109-0.082v0.027
	c-0.063,0.073-0.137,0.137-0.219,0.189l-0.137,0.486c-0.021-0.002-0.041-0.012-0.056-0.027c-0.088-0.064-0.147-0.162-0.165-0.271
	c-0.162-0.013-0.183-0.069-0.355-0.081c-0.007,0.012-0.016,0.021-0.027,0.027c0.073,0.129,0.037,0.292-0.082,0.379
	c-0.096-0.068-0.217-0.088-0.329-0.055c0.021,0.063,0.021,0.129,0,0.189c-0.134,0.151-0.253,0.314-0.356,0.487h-0.135l-0.027,0.162
	c-0.125,0.071-0.244,0.153-0.356,0.243h-0.192c-0.035,0.048-0.054,0.104-0.056,0.162c-0.057,0.043-0.122,0.07-0.192,0.082
	l-0.109,0.161c-0.1,0.05-0.189,0-0.273,0.054c-0.032,0.049-0.051,0.104-0.056,0.162c-0.058,0.039-0.124,0.066-0.192,0.082
	l-0.109,0.162c-0.08,0.039-0.182-0.016-0.247,0.026c-0.044,0.055-0.072,0.12-0.082,0.188c-0.058,0.039-0.124,0.066-0.192,0.082
	l-0.082,0.135c-0.063,0.044-0.164-0.012-0.246,0.027c-0.06,0.058-0.098,0.133-0.11,0.215c-0.059,0.039-0.124,0.067-0.192,0.082
	l-0.082,0.135l-0.247,0.027c-0.085,0.053-0.083,0.221-0.165,0.27l-0.164,0.027c-0.015,0.046-0.033,0.092-0.056,0.135h-0.217
	c-0.073,0.083-0.138,0.174-0.192,0.27l-0.165,0.027c-0.05,0.059-0.104,0.113-0.165,0.162c-0.129,0.01-0.257,0.027-0.384,0.054
	l-0.137,0.162h-0.218c-0.041,0.035-0.087,0.063-0.138,0.081c-0.097-0.064-0.213-0.092-0.329-0.081
	c-0.038,0.034-0.074,0.07-0.109,0.108c-0.068,0.006-0.137-0.014-0.192-0.055c-0.05,0.008-0.097,0.025-0.137,0.055
	c-0.138-0.01-0.275-0.028-0.411-0.055l-0.055,0.055c-0.103-0.004-0.203-0.021-0.301-0.055l-0.082,0.055
	c-0.121,0.008-0.242-0.011-0.355-0.055l-0.165,0.055c-0.067-0.003-0.134-0.021-0.192-0.055c-0.049,0.007-0.096,0.025-0.137,0.055
	c-0.121,0.008-0.242-0.011-0.355-0.055c-0.05,0.007-0.097,0.025-0.138,0.055c-0.024,0.006-0.393,0-0.438,0
	c-0.246-0.031-0.494-0.031-0.74,0c-0.139,0.008-0.278-0.011-0.411-0.055c-0.042,0.005-0.081,0.023-0.11,0.055
	c-0.068,0.006-0.137-0.014-0.191-0.055c-0.042,0.004-0.082,0.023-0.11,0.055c-0.066-0.008-0.132-0.025-0.192-0.055l-0.026,0.055
	c-0.068,0.002-0.136-0.018-0.192-0.055c-0.041,0.005-0.08,0.023-0.109,0.055c-0.068,0.006-0.138-0.013-0.192-0.055
	c-0.05,0.007-0.097,0.025-0.137,0.055c-0.138,0.027-0.107-0.054-0.22-0.027v0.027l-0.246-0.055
	c-0.046,0.039-0.105,0.059-0.166,0.055c-0.029-0.03-0.068-0.049-0.109-0.055c-0.058,0.035-0.124,0.055-0.191,0.055
	c-0.023-0.025-0.051-0.043-0.082-0.055c-0.033,0.041-0.086,0.062-0.138,0.055c-0.04-0.029-0.087-0.047-0.137-0.055l-0.056,0.055
	c-0.068,0.013-0.139-0.008-0.191-0.055c-0.038,0.016-0.074,0.033-0.109,0.055c-0.061,0.01-0.123-0.011-0.166-0.055
	c-0.029,0.015-0.057,0.033-0.082,0.055c-0.068,0.008-0.138-0.012-0.191-0.055c-0.066,0.04-0.143,0.059-0.219,0.055l-0.055-0.055
	l-0.247,0.055l-0.027-0.055H20.1c-0.034,0.039-0.085,0.06-0.137,0.055c-0.041-0.029-0.088-0.047-0.137-0.055
	c-0.046,0.039-0.105,0.059-0.165,0.055c-0.03-0.03-0.068-0.049-0.11-0.055c-0.058,0.036-0.124,0.055-0.192,0.055L19.3,26.936
	c-0.049,0.031-0.106,0.051-0.165,0.054c-0.04-0.028-0.086-0.046-0.135-0.054c-0.055,0.041-0.124,0.06-0.192,0.054
	c-0.029-0.03-0.068-0.05-0.11-0.054l-0.055,0.054c-0.061,0.019-0.127-0.003-0.165-0.054c-0.272,0.053-0.551,0.053-0.823,0
	c-0.057,0.037-0.124,0.055-0.192,0.054c-0.034-0.022-0.071-0.04-0.11-0.054c-0.057,0.036-0.124,0.055-0.192,0.054l-0.055-0.054
	c-0.051-0.003-0.101,0.018-0.137,0.054c-0.156-0.01-0.312-0.028-0.466-0.054l-0.055,0.054c-0.077,0.005-0.154-0.014-0.219-0.054
	c-0.145,0.026-0.292,0.045-0.439,0.054c-0.041-0.028-0.088-0.047-0.137-0.054c-0.382,0.053-0.77,0.053-1.152,0
	c-0.082-0.013-0.123,0.06-0.219,0.054c-0.117-0.028-0.236-0.046-0.356-0.054c-0.055,0.04-0.124,0.059-0.192,0.054
	c-0.048-0.035-0.105-0.054-0.165-0.054c-0.113,0.045-0.235,0.063-0.356,0.054c-0.041-0.028-0.088-0.047-0.137-0.054
	c-0.066,0.038-0.143,0.057-0.219,0.054c-0.041-0.028-0.088-0.047-0.137-0.054c-0.123,0.043-0.253,0.061-0.384,0.054
	c-0.035-0.021-0.072-0.04-0.11-0.054c-0.059,0.032-0.125,0.051-0.192,0.054l-0.082-0.054c-0.145,0.029-0.292,0.047-0.439,0.054
	c-0.035-0.022-0.072-0.04-0.11-0.054c-0.057,0.036-0.124,0.055-0.192,0.054c-0.029-0.03-0.068-0.05-0.11-0.054
	c-0.041,0.028-0.087,0.047-0.137,0.054c-0.074,0-0.045-0.026-0.082-0.054c-0.17,0.045-0.35,0.045-0.521,0
	c-0.059,0.002-0.116,0.02-0.165,0.054c-0.09,0.01-0.069-0.032-0.11-0.054c-0.048,0.033-0.106,0.052-0.165,0.054
	c-0.041-0.028-0.088-0.046-0.137-0.054c-0.058,0.036-0.124,0.055-0.192,0.054l-0.055-0.054c-0.042,0.004-0.081,0.022-0.11,0.054
	c-0.061,0.013-0.124-0.008-0.165-0.054c-0.022,0.014-0.041,0.031-0.055,0.054c-0.068,0.002-0.135-0.017-0.192-0.054
	c-0.042,0.004-0.081,0.023-0.11,0.054c-0.076-0.007-0.149-0.024-0.219-0.054c-0.05,0.029-0.106,0.048-0.164,0.054H8.5l-0.027-0.054
	c-0.057,0.038-0.124,0.057-0.192,0.054c-0.03-0.03-0.068-0.049-0.11-0.054c-0.056,0.04-0.124,0.059-0.192,0.054l-0.055-0.081
	c-0.054-0.01-0.109-0.01-0.164,0c-0.051-0.005-0.102,0.016-0.137,0.054c-0.069,0.011-0.139-0.009-0.192-0.054l-0.192,0.027
	c-0.079-0.068-0.162-0.131-0.247-0.189l-0.274,0.027c-0.06-0.019-0.106-0.113-0.164-0.136H6.388c-0.085-0.043-0.1-0.2-0.192-0.243
	c-0.124-0.059-0.179,0.053-0.3,0l-0.11-0.136l-0.219-0.026c-0.051-0.075-0.107-0.147-0.167-0.217c-0.099-0.014-0.2-0.023-0.3-0.026
	l-0.082-0.136c-0.079-0.007-0.154-0.035-0.218-0.082c-0.014-0.061-0.042-0.115-0.082-0.162l-0.274-0.027l-0.082-0.135h-0.14
	c-0.092-0.051-0.1-0.238-0.192-0.301c-0.058-0.035-0.151,0.012-0.219-0.026c-0.044-0.024-0.064-0.132-0.11-0.162l-0.137-0.026
	l-0.082-0.216c-0.087-0.064-0.191-0.103-0.3-0.108c-0.041-0.05-0.086-0.095-0.137-0.135c-0.149,0.224-0.373,0.387-0.631,0.461
	c-0.155,0.031-0.316-0.008-0.439-0.108c-0.315-0.256-0.568-0.579-0.74-0.947c-0.07-0.241,0.018-0.499,0.219-0.649
	c-0.186-0.199,0.018-0.234,0-0.379c-0.012-0.094-0.119-0.212-0.137-0.352H1.1v-0.382c0.089-0.022,0.042,0.013,0.082-0.054
	c-0.054-0.143-0.099-0.287-0.137-0.434c-0.25-0.145-0.451-0.361-0.576-0.622l0.247-0.405c-0.071-0.126-0.118-0.264-0.137-0.406
	c-0.188,0.018-0.377-0.01-0.552-0.079H0v-0.027c0.229-0.112-0.032-0.606,0.082-0.839l0.11-0.054
	c-0.015-0.056-0.034-0.109-0.055-0.162c-0.005-0.025,0.027-0.46,0.027-0.46l0.083-0.059v-0.267c0.073-0.124,0.119-0.263,0.137-0.406
	H0.3l-0.027-0.271H0.192v-0.08H0.3c-0.132-0.37-0.035-0.782,0.247-1.055c0.17-0.096,0.375-0.105,0.553-0.027
	c0.234,0.222,0.338,0.549,0.274,0.865c0.271,0.006,0.541-0.03,0.8-0.107H3.92v-0.082h0.11v0.081H4.5
	c0.02-0.065,0.047-0.13,0.082-0.188h1.34v0.27L6,17.275c0.12,0.056,0.253,0.074,0.384,0.054c0.072-0.375,0.253-0.371,0.713-0.353
	v-0.188c0.446-0.058,0.897-0.058,1.343,0v0.328c0.11,0.001,0.199,0.093,0.197,0.203c0,0.013-0.002,0.026-0.005,0.04h0.3v-0.139
	c0.089-0.031,0.172-0.076,0.247-0.135H9.075c-0.097-0.031-0.199-0.041-0.3-0.027c0-0.737,0-1.441,0-2.137h0.3
	C9.074,14.84,9.082,14.758,9.1,14.678l0.082-0.027c0.051-0.024,0.108-0.034,0.165-0.027c0.024,0.022,0.052,0.04,0.082,0.054
	l0.027,0.244l0.6,0.027l0.027-0.081l0.192,0.027c0.051-0.099,0.116-0.189,0.192-0.27h0.143c0.055-0.558,0.073-1.118,0.055-1.678
	v-2.544c0-2.413,0.027-4.93,0.027-7.387h0.028c0.052,0.023,0.021,0.013,0.082,0v5.763c0.039,0.15,0.048,0.306,0.027,0.46v1.163
	c0,1.421-0.037,2.905,0.055,4.248c0.045,0.027,0.083,0.064,0.11,0.108c0.041-0.027,0.051-0.086,0.082-0.108
	C11.267,14.613,11.459,14.587,11.652,14.57z M15.381,13.244c0.015,0.015,0.024,0.033,0.027,0.054H15.38L15.381,13.244L15.381,13.244
	z M24.895,17.244c0.092-0.014,0.186-0.004,0.273,0.027c-0.092,0.014-0.186,0.006-0.273-0.023V17.244z"/>
</svg>
