<svg xmlns="http://www.w3.org/2000/svg" width="80" height="40" viewBox="0 0 80 40">
  <defs>
    <style>
      .cls-1 {
        fill: #fff;
        fill-rule: evenodd;
      }
    </style>
  </defs>
  <path id="Color_Fill_1" data-name="Color Fill 1" class="cls-1" d="M41.376,13.2a3.894,3.894,0,0,0,.884-0.1v0.192c0.13,0.167.17,0.155,0.1,0.289a0.9,0.9,0,0,1-.786.481,0.865,0.865,0,0,0-.491-0.1,2.1,2.1,0,0,0,.295,1.54v-0.1c-0.084-.181-0.047-0.071,0-0.289a0.339,0.339,0,0,1,.2.1c0.265,0.406-.041.431,0.983,0.385l0.1-.577h0.2a1.363,1.363,0,0,0,.1.674h-0.2a3.047,3.047,0,0,1-.983.289V16.18a11.779,11.779,0,0,1,1.376,3.079h0.1c-0.013-.387-0.053-0.526.2-0.674v0.1c0.186,0.322-.066.808,0.1,1.059a1.325,1.325,0,0,0,.688.1V19.548h-0.1v0.1c-0.076.185-.1-0.193-0.1-0.193a1.117,1.117,0,0,0,.983-0.481,1.533,1.533,0,0,1-.786-0.481,0.7,0.7,0,0,0,.885-0.1c-0.128-.053-0.073,0-0.1-0.1a0.692,0.692,0,0,1,.295-0.1l0.1-.289H44.619a0.736,0.736,0,0,1-.2-0.1,0.345,0.345,0,0,1-.1-0.192,0.482,0.482,0,0,0,.295-0.1c-0.37-.329-0.027-1.218,0-1.925h0.688v0.385h0.1a1.187,1.187,0,0,1,.983-0.192v0.1a0.34,0.34,0,0,0-.2.1,0.733,0.733,0,0,1,.59.1,2.918,2.918,0,0,0,.2.866,1.777,1.777,0,0,1,1.671.192h0.1c0.1,0.1-.1.1-0.1,0.1a0.508,0.508,0,0,1-.295.1c-0.013-.393-0.089-0.308-0.688-0.289,0.03,0.4.077,0.681-.491,0.77V17.623c-0.093-.077-0.265.278-0.295,0.289a4.361,4.361,0,0,0-.786.1,0.953,0.953,0,0,1,.491.385,0.345,0.345,0,0,0-.1.192,1.826,1.826,0,0,1,.885.1,2.435,2.435,0,0,0-.885.289,2.727,2.727,0,0,1,.1.866h1.278V18.49a7.009,7.009,0,0,1,1.867-.1c0.132-.269.137-0.237,0.491-0.289V18.49c-0.354.019-.2-0.143-0.295,0.192a2.615,2.615,0,0,1,.2,1.059,2.875,2.875,0,0,0,1.769-.192v0.192a2.565,2.565,0,0,0-.1,1.155,0.482,0.482,0,0,1,.295.1c-0.356.343-.221,1.4-0.2,2.31h0.295V23.013h0.491V22.628h0.1V22.82a0.819,0.819,0,0,1,.1.481h0.688c-0.03-.642-0.113-0.809.393-0.866v0.77a1.573,1.573,0,0,0,.491.1,0.459,0.459,0,0,1,.1-0.289s0.019,0.376.1,0.192V23.013a0.547,0.547,0,0,0,.2-0.578H54.349a1.34,1.34,0,0,1-.1-0.385,2.156,2.156,0,0,1,.688-0.1,1.984,1.984,0,0,1,.1-0.962v0.962h0.688V21.665H55.233V21.184h0.393V20.992a0.365,0.365,0,0,1-.295-0.385,3.964,3.964,0,0,1,1.867.1,3,3,0,0,1,.59.577H61.13v0.1h-0.1v0.1a10.561,10.561,0,0,0-3.145,0v0.192c0.307,0.255.654,0.961,0.1,1.251-0.163.107-.209-0.092-0.393,0.192h0.1a2.431,2.431,0,0,0,1.081.1,1.2,1.2,0,0,0-.1-0.385h0.2v0.385c1.236-.095,1.636-1.23,2.752-1.347a7.573,7.573,0,0,1,.983.289l1.081-.1c0.777,0.255.162,0.676,1.769,0.674,0.491,0.291,1.675-.1,2.162.192H64.472a5.352,5.352,0,0,1,.295.962l2.359-.289c-0.029-.35-0.144-0.253.1-0.481v-0.1h0.1c0.087,0.458.25,0.41,0.786,0.385l1.081-.289c0.011,0.373-.064.286,0.491,0.289a1.711,1.711,0,0,0,.885-0.481,1.758,1.758,0,0,0,.295.289L74.1,22.82l0.1-.289c0.61-.3.6,0.457,1.179,0.289a18.5,18.5,0,0,1,4.423-.674c-0.013-.631-0.129-2.276.1-2.406v-0.1H80v0.192c-0.342.584,0.2,1.717-.1,2.406a5.988,5.988,0,0,1-.491.481l0.1,0.192c-1.229,1.729-2.3,3.7-3.44,5.485a13.18,13.18,0,0,1-1.179,2.117H58.28a1.484,1.484,0,0,0-.1.481h-0.59a1.484,1.484,0,0,1-.1-0.481H13.956a23.435,23.435,0,0,0-2.654-.866c-1.116-.2-2.981.463-4.128,0.481a3.167,3.167,0,0,1,0,.674,0.371,0.371,0,0,1-.393-0.289,0.825,0.825,0,0,1-.295.193V30.134H6.093V29.941a1.188,1.188,0,0,0,.393-0.962H5.405a3.874,3.874,0,0,0-.1,1.155H4.423L3.931,28.883a3.287,3.287,0,0,1-1.376-.1A5.009,5.009,0,0,1,.786,25.707a1.7,1.7,0,0,0,.393-0.577c-0.243-.125-0.067.041-0.2-0.192a1.076,1.076,0,0,0,.295-0.192,0.392,0.392,0,0,1-.393-0.193,0.531,0.531,0,0,0,.393-0.289A1.5,1.5,0,0,0,.786,23.59a1.822,1.822,0,0,1-.688.289V23.686A0.639,0.639,0,0,1,0,23.3c0.387-.091.625-0.273,0.983-0.385a3.733,3.733,0,0,0,.885,2.021c0.532,0.334,2.192.109,2.948,0.1-0.006-.28-0.095-0.134,0-0.289,0.073-.084.124-0.109,0.2-0.193l0.295,0.1v0.385H5.9l-0.1-.577H6.093v0.385c0.5-.142.385,0.062,0.688,0.192h3.44V24.36a1.837,1.837,0,0,1,.59-0.1,2.022,2.022,0,0,0,2.064.77c0.126-.407.242-0.513,0.393-0.962H12.58c-0.586-.348-1.973.161-2.555-0.192l3.342-.1c0.18-.084.292-0.485,0.491-0.577a6.191,6.191,0,0,1,1.867-.1v0.1h0.1c-0.1.292-.193,0.288-0.295,0.577h0.393v0.385a1.574,1.574,0,0,1-.491.1v0.77h0.491V24.649h0.2c0,0.432-.193.326,0.295,0.385l0.2-.289c0.441-.178.528,0.226,0.688,0.289h1.966a6.047,6.047,0,0,0,.491-1.155c-0.257-.037-0.129.072-0.2-0.192h0.2c0.152,0.068.013,0.012,0.295,0,0.015-.487,0-0.642,0-1.251h0.983a1.2,1.2,0,0,1-.1.385h0.491a0.357,0.357,0,0,1,.2-0.1c0.079,0.42.109,0.379,0.59,0.385v-0.77a1.263,1.263,0,0,1-.983-0.1,2.759,2.759,0,0,0,1.966-.481c0.265,0.585.384,0.038,0.786,0.1,0.063,0.253.244,0.239,0.491,0.289a0.669,0.669,0,0,1,.1-0.481h-0.2v0.1h-0.1V21.28h0.1a1.051,1.051,0,0,0,.2.289V21.28c-0.07-.149-0.013-0.013,0-0.289h0.491v0.193a4.219,4.219,0,0,1,0,.674,1.108,1.108,0,0,0,.688-0.192c0.19-.094.052,0.145,0.1,0.192h0.59a1.2,1.2,0,0,0,.1.385h0.2c0.081-.312-0.048-0.147.2-0.289v0.385h-0.2v0.1l-0.2-.1c-0.038.252,0.073,0.126-.2,0.193-0.04.675-.151,0.7-0.2,1.347H25.848v0.1h0.1a0.519,0.519,0,0,0,0,.385l0.2-.1v0.1a1.089,1.089,0,0,0,.688.577c0.186-.15.268,0.116,0.393-0.192-0.689.008-.7,0.051-0.688-0.674a36.233,36.233,0,0,0,4.03-.1c-0.049-1,.281-1.024,1.278-0.962a10.371,10.371,0,0,0,.393,1.155,3.935,3.935,0,0,1,1.572-.1v0.674H34a0.328,0.328,0,0,1,.1-0.193,3.568,3.568,0,0,1,0-.962c-1.191-.666-1.348-0.377-1.278-2.31H33.71c0.081,0.312-.048.147,0.2,0.289V21.184a0.744,0.744,0,0,1-.2-0.674,0.481,0.481,0,0,1-.295-0.1,0.344,0.344,0,0,0,.1-0.192,21.885,21.885,0,0,1,3.538-1.251c0.038-.252-0.073-0.126.2-0.193a3.539,3.539,0,0,1,.688.674c-0.285.2,0.075,1.01,0.2,1.444h0.2a1.223,1.223,0,0,1,.1-0.674c0.081,0.312-.048.147,0.2,0.289a2.841,2.841,0,0,1,.491-0.192V20.7h-0.2a0.508,0.508,0,0,0-.295-0.1c0.014,0.493-.435,1.038-0.1,1.54a0.58,0.58,0,0,0,.393.481V22.435c0.515-.8.362-2.264,0.688-3.176a0.571,0.571,0,0,1-.59-0.192,1.7,1.7,0,0,0,.59-0.1c0.046-.69.234-0.758,0.295-1.54H39.8v-0.1c-0.564-.037-1.185-0.1-1.867-0.1v0.1a4.452,4.452,0,0,1,1.572,1.636h-0.1c-0.381-.551-1.539-1.228-1.769-1.732V13.87a1.652,1.652,0,0,0,0-.77,0.79,0.79,0,0,1-.295-0.289h0.2c0.127,0.238-.042.066,0.2,0.193v-0.1a1.824,1.824,0,0,1-.1-0.481,1.326,1.326,0,0,0-.688-0.1V11.946h0.2c0.145,0.245.208,0.193,0.59,0.192-0.014-.826-0.221-3.648.1-4.138a1.985,1.985,0,0,0,.1.962c0.127-.237-0.042-0.066.2-0.192V8.962c-0.454.261-.246,1.1-0.295,1.636h0.1c0.127-.237-0.042-0.066.2-0.192V10.6c-0.872.528,0.157,1.188,0,1.636-0.044.127-.291,0.05-0.1,0.289h-0.2c-0.168.306,0.783,2.564,0.885,2.983h0.1v-0.1a2.954,2.954,0,0,0,1.474,0,2.6,2.6,0,0,0,.2-1.444,0.276,0.276,0,0,1-.1-0.1,2.317,2.317,0,0,1-1.179.192v-0.1h-0.1a1.486,1.486,0,0,0,.1-0.481,2.033,2.033,0,0,1,1.081-.193c0.284,0.324.717-.051,0.983,0.385V13.485A0.485,0.485,0,0,0,41.376,13.2Zm-4.423-2.213h0.2v0.1A0.34,0.34,0,0,1,36.953,10.983Zm0.983,0.192h0.2v0.192h-0.2V11.176Zm0.2,1.059h0.2v0.1h-0.1v0.1A0.345,0.345,0,0,1,38.133,12.234Zm4.324,0.481a0.344,0.344,0,0,1,.393.385h-0.1A2.249,2.249,0,0,0,42.457,12.716Zm-0.2.1h0.2v0.1A0.339,0.339,0,0,1,42.26,12.812Zm-0.295.1a0.481,0.481,0,0,1,.295.1A0.481,0.481,0,0,1,41.966,12.908Zm-0.2.1h0.2v0.1A0.339,0.339,0,0,1,41.769,13Zm-3.243,2.5a9.82,9.82,0,0,0-.59-2.021h-0.1V15.41A2.156,2.156,0,0,0,38.526,15.506Zm-1.179-1.925h0.2v0.193h-0.2V13.582Zm1.769,1.155a0.5,0.5,0,0,1,0,.577V14.736Zm2.162,0h0.2v0.1A0.339,0.339,0,0,1,41.278,14.736ZM40,15.025a0.345,0.345,0,0,1,.1.192H40V15.025Zm2.654,0.385V15.6h0.1A0.327,0.327,0,0,0,42.654,15.41Zm-4.816.192v1.155h0.1v-0.1a2.945,2.945,0,0,0,.59-1.059H37.838Zm1.081,0V15.8c0.529,0.335.509,0.754,1.179,0.77V16.372a2.745,2.745,0,0,0,.2-0.77H38.919Zm1.572,0V15.8a0.527,0.527,0,0,1,.295.385h0.1v-0.1a2.543,2.543,0,0,0,.393-0.481H40.491Zm-1.769,1.54a1.466,1.466,0,0,1,.1-0.77v0.77h0.688a3.167,3.167,0,0,1,0-.674c-0.395-.184-0.491-0.584-0.885-0.77a6.63,6.63,0,0,1-.786,1.444h0.885Zm1.671-1.251-0.1.866h0.1v-0.1a0.8,0.8,0,0,0,.295-0.577Zm0.786,0a1.053,1.053,0,0,1-.2.289,0.328,0.328,0,0,0,.1.192,0.366,0.366,0,0,0,.2.289v0.1h0.1V16.469C41.3,16.354,41.258,16.005,41.179,15.891Zm-0.393.481-0.59.77h1.179v-0.1A7.564,7.564,0,0,0,40.786,16.372Zm1.376,5.87h0.295V22.05c0.093-.16.084-0.415,0.2-0.674a1.489,1.489,0,0,0,.393.192V21.28c-0.812-.963-0.606-3.3-1.376-4.331a24.618,24.618,0,0,0,.295,4.812h0.1c0.037-.438.092-0.5,0.491-0.577v0.1A1.267,1.267,0,0,0,42.162,22.243Zm-1.867-5c0.171,0.529.6,0.741,0.786,1.251h-0.1A0.536,0.536,0,0,0,40.59,18.2a1.187,1.187,0,0,1-.393.385V18.393a0.732,0.732,0,0,0,.393-0.481c-0.2-.149-0.281-0.337-0.491-0.481l-0.2,1.347H40a0.594,0.594,0,0,1,.2-0.192v0.192a1.188,1.188,0,0,0-.393.385h1.671v-0.1a1.27,1.27,0,0,1-.393-0.577h0.1a0.865,0.865,0,0,0,.295.289V18.2a1.492,1.492,0,0,1-.1-0.77h-0.1a1.549,1.549,0,0,1-.491.481V17.72a0.732,0.732,0,0,0,.393-0.481A6.438,6.438,0,0,1,40.295,17.239Zm6.585,0v0.193h0.1V17.239h-0.1Zm-7.273.193h0.2l-0.1.289a3.9,3.9,0,0,1-.786.481Zm2.752,1.058,0.393,1.347h0.2V19.644A12.683,12.683,0,0,0,42.359,18.49Zm1.769,0.481a0.683,0.683,0,0,1,.2.385h-0.1a0.357,0.357,0,0,0-.2-0.1v-0.1A0.345,0.345,0,0,0,44.128,18.971Zm2.555,0.1h0.2v0.1A0.339,0.339,0,0,1,46.683,19.067Zm0.295,0a1.555,1.555,0,0,1,.786.1A1.554,1.554,0,0,1,46.978,19.067Zm-7.174.192a1.827,1.827,0,0,0,.885.77,0.741,0.741,0,0,1,.491-0.385v0.1c-0.159.1-.559,0.375-0.393,0.481a2.754,2.754,0,0,0,.786.77V19.933a0.639,0.639,0,0,1-.1-0.385c-0.223.038-.107,0.088-0.295,0a0.865,0.865,0,0,0,.295-0.289H39.8Zm12.678,0a0.819,0.819,0,0,1,.1.481h-0.1v-0.1A0.526,0.526,0,0,1,52.482,19.259Zm-12.776.192-0.2,1.444h0.1C40.128,20.249,40.713,20.071,39.705,19.452Zm12.58,0.289h0.2v0.1A0.339,0.339,0,0,1,52.285,19.741Zm-9.337.289v0.193a0.6,0.6,0,0,0,.1.481h0.1A0.667,0.667,0,0,0,42.948,20.029Zm0.59,0L43.931,20.9h0.1v-0.77A1.574,1.574,0,0,0,43.538,20.029Zm-3.047.193A9.608,9.608,0,0,0,39.41,21.28h2.162A3.887,3.887,0,0,0,40.491,20.222Zm2.752,0.385V20.8h0.1A0.327,0.327,0,0,0,43.243,20.607Zm-17.789.481a0.277,0.277,0,0,1,0,.385V21.088ZM39.116,22.82h0.491a2.37,2.37,0,0,0,.1-0.77c-0.066-.082-0.16-0.268-0.295-0.481h0.2a1.49,1.49,0,0,0,1.376.385,2.213,2.213,0,0,1,.59-0.481v-0.1H39.41v0.192A2.689,2.689,0,0,0,39.116,22.82Zm13.17-1.444h0.2v0.1A0.34,0.34,0,0,1,52.285,21.377Zm-18.575.289v0.192h0.2v-0.1H34v-0.1H33.71Zm7.568,1.059h0.393V21.665h-0.2A1.238,1.238,0,0,0,41.278,22.724ZM40.1,21.762a0.645,0.645,0,0,1,.393.1A0.645,0.645,0,0,1,40.1,21.762Zm0.491,0h0.2v0.1A0.339,0.339,0,0,1,40.59,21.762Zm-17.3.1h0.2v0.1A0.339,0.339,0,0,1,23.292,21.858ZM33.808,22.05c0.02,0.135-.081-0.039-0.1.1-0.189.075,0.2,0.1,0.2,0.1A0.328,0.328,0,0,0,33.808,22.05Zm18.673,0a0.482,0.482,0,0,1,.295.1A0.481,0.481,0,0,1,52.482,22.05Zm-19.951.1h0.2v0.192h-0.2V22.146Zm22.113,0c0.169,0.085.126,0.086,0.295,0H54.644Zm0.59,0a0.357,0.357,0,0,0,.2.1A0.357,0.357,0,0,0,55.233,22.146Zm4.521,2.117,1.966-.1c-0.039-.383-0.194-0.388.1-0.577,0.018,0.476.017,0.529,0.491,0.577V23.205H61.818V22.628a1.27,1.27,0,0,1,.393.1V22.531a1.04,1.04,0,0,0-.688-0.385,1.7,1.7,0,0,1-.59,1.059c-0.4.187-.547-0.144-0.786,0.193A1.436,1.436,0,0,0,59.754,24.264ZM34,22.628V22.339H33.71v0.1h0.1v0.1h-0.1A0.508,0.508,0,0,0,34,22.628Zm21.229-.193a0.468,0.468,0,0,0,.491.193V22.435H55.233Zm3.538,0a0.345,0.345,0,0,1,.1.193h-0.1V22.435Zm2.752,0a1.5,1.5,0,0,1,0,1.155V22.435Zm-8.649.1a0.345,0.345,0,0,1,.1.192h-0.1V22.531Zm1.474,0c0.222,0.142.5,0.252,0.2,0.385v-0.1A0.372,0.372,0,0,1,54.349,22.531Zm-27.912.385a0.221,0.221,0,0,1,.1.289C26.289,23.02,26.526,23.063,26.437,22.916Zm28.894,0v0.289a1.477,1.477,0,0,0,.983-0.1v-0.1h-0.2A1.563,1.563,0,0,1,55.332,22.916Zm19.558,0v0.192h0.2v-0.1h0.1v-0.1H74.889ZM73.12,23.3a0.459,0.459,0,0,0-.1-0.289,4.88,4.88,0,0,1-1.966.289v0.192h0.2Zm0.491-.289v0.192H74.2v-0.1A1.832,1.832,0,0,0,73.612,23.013ZM74.1,23.59A0.459,0.459,0,0,0,74,23.3a0.841,0.841,0,0,0-.393.289H74.1ZM74.5,23.3c0.038,0.252-.073.126,0.2,0.192V23.4h0.1V23.3H74.5Zm-32.138.1a0.357,0.357,0,0,0,.2.1A0.357,0.357,0,0,0,42.359,23.4Zm17.3,0V23.59h0.2V23.4h-0.2ZM70.27,23.686a0.459,0.459,0,0,0-.1-0.289,9.32,9.32,0,0,1-1.278.289v0.1h0.2A6.426,6.426,0,0,1,70.27,23.686Zm-8.354-.192h0.2v0.1A0.338,0.338,0,0,1,61.917,23.494Zm-45.8.1a1.307,1.307,0,0,1,0,1.058V23.59Zm55.725,0a0.358,0.358,0,0,1-.2.1v0.1C71.922,23.747,72.015,23.8,71.843,23.59Zm-2.555.289a3.728,3.728,0,0,1-.59.192v0.1h0.2a2.048,2.048,0,0,0,.885-0.289H69.288Zm-8.452.77V24.36l-1.179.1v0.192h1.179Zm0.1-.289v0.289a2.8,2.8,0,0,0,1.474-.289H60.934ZM28.6,24.649c0.038,0.252-.073.126,0.2,0.193V24.649H28.6Zm3.243,0a0.7,0.7,0,0,0,.688.193c0.253-.15.929-0.038,1.179-0.193H31.843Zm30.074,0a2.141,2.141,0,0,1-.983.1v0.192h0.393C61.756,24.7,62.2,25.079,61.917,24.649Zm-1.671.1c-0.138.085-.551,0.1-0.688,0.192a1.62,1.62,0,0,0,1.278-.192h-0.59Zm-28.894.481a13.565,13.565,0,0,0,1.474-.1,0.978,0.978,0,0,0,.983-0.192H31.745a0.421,0.421,0,0,1-.393,0v0.289Zm-4.914-.192c0.163,0.107.105,0.17,0.2,0h-0.2Zm0.295,0v0.192h2.26v-0.1h-0.1v-0.1H26.732Zm-22.113.385V25.13c-0.857.008-1.856,0-2.948,0v0.192C2.435,25.4,3.7,25.407,4.619,25.418Zm2.555-.289a0.673,0.673,0,0,1-.393.1v0.192H7.174C7.214,25.2,7.265,25.314,7.174,25.13Zm0.2,0v0.192h0.1V25.13h-0.1Zm1.081,0a0.292,0.292,0,0,0,.393,0H8.452Zm0.786,0-0.1.289h0.2A0.459,0.459,0,0,0,9.238,25.13Zm0.983,0.289V25.13a1.366,1.366,0,0,0-.688.1,0.345,0.345,0,0,0-.1.192h0.786Zm1.572-.289-0.2.289h1.278l0.1-.192A6.133,6.133,0,0,0,11.794,25.13Zm4.324,0-0.1.289h0.393v-0.1h0.1a0.357,0.357,0,0,0-.2-0.1A0.357,0.357,0,0,0,16.118,25.13Zm1.179,0c0,0.42,1.114.321,1.867,0.289l0.1-.289H18.084A6.308,6.308,0,0,1,17.3,25.13Zm14.054,0.192v0.192c0.606,0.023,2.113.18,2.359-.192H31.351Zm-4.619.1v0.193a8.391,8.391,0,0,0,2.26-.1v-0.1h-2.26Zm-25.061.1v0.192H2.064a0.357,0.357,0,0,1,.2-0.1v-0.1H1.671Zm0.983,0c0.032,0.213-.1.1,0.1,0.192A0.328,0.328,0,0,0,2.654,25.515Zm0.983,0c0.169,0.085.126,0.086,0.295,0H3.636Zm0.59,0c0.009,0.247-.042.135,0.393,0.192V25.515H4.226Zm2.752,0v0.192a1.555,1.555,0,0,0,.786-0.1A3.411,3.411,0,0,1,6.978,25.515Zm1.474,0v0.192H8.845v-0.1h-0.1v-0.1H8.452Zm1.081,0v0.192h0.688V25.515H9.533Zm2.064,0a0.4,0.4,0,0,0,.492,0H11.6Zm0.59,0a1.457,1.457,0,0,0,.786.192V25.515H12.187Zm3.145,0c-0.1.067-.393,0.124-0.491,0.192,0.507,0.025,1.373.117,1.573-.192H16.02A1.088,1.088,0,0,1,15.332,25.515Zm1.867,0v0.192h0.786V25.515H17.2Zm0.884,0v0.192h0.983V25.515H18.084Zm-10.221.1a0.292,0.292,0,0,0,.393,0H7.862Zm8.747,0a0.4,0.4,0,0,0,.491,0H16.609Zm2.555,0a0.357,0.357,0,0,0,.2.1A0.357,0.357,0,0,0,19.165,25.611Zm-11.6,4.042,0.1-.577H6.781v0.193a2.139,2.139,0,0,1,.491.481A0.508,0.508,0,0,1,7.568,29.653Zm0.688-.481a2.451,2.451,0,0,0-.2.481H8.452a3.389,3.389,0,0,0,1.769-.192Z" transform="translate(0 0.5)"/>
</svg>
