<?xml version="1.0" encoding="utf-8"?>
<!-- Generator: Adobe Illustrator 16.0.0, SVG Export Plug-In . SVG Version: 6.00 Build 0)  -->
<!DOCTYPE svg PUBLIC "-//W3C//DTD SVG 1.1//EN" "http://www.w3.org/Graphics/SVG/1.1/DTD/svg11.dtd">
<svg version="1.1" id="Layer_1" xmlns="http://www.w3.org/2000/svg" xmlns:xlink="http://www.w3.org/1999/xlink" x="0px" y="0px"
	 width="40px" height="40px" viewBox="0 0 40 40" enable-background="new 0 0 40 40" xml:space="preserve">
<path id="ussr_t_34_1942_ico" fill="#FFFFFF" d="M23.949,11.978h0.115c0.053,0.049,0.086,0.117,0.092,0.189
	c-0.004,0.081-0.02,0.161-0.047,0.237c0.08,0.057,0.182,0.075,0.276,0.047c0.084,0.085,0.233,0.083,0.322,0.166l0.092,0.19h0.345
	c0.367,0.049,0.738,0.049,1.105,0c0.007,0.047,0.007,0.095,0,0.142c0.02,0.015,0.044,0.023,0.068,0.024
	c0.145,0.055,0.29,0.103,0.438,0.142c0.142,0.112,0.296,0.207,0.46,0.284h1.911c0.022,0.039,0.236,0.391,0.253,0.4h1.039
	c0.242,0.053,0.492,0.061,0.737,0.024h1.911c2.271,0,4.615,0.026,6.885,0.024c0.037,0.227,0.045,0.457,0.023,0.686
	c-0.16,0.03-0.322,0.038-0.484,0.024c-0.234-0.052-0.477-0.06-0.715-0.024h-1.887l-7.023,0.071v0.047
	c0.164,0.355,0.204,0.755,0.115,1.136h-0.045c-0.24,0.067-0.491,0.083-0.737,0.047c-0.593-0.037-1.188-0.005-1.773,0.095
	c-0.04,0.279-0.125,0.549-0.253,0.8v0.024H27.15v-0.017c-0.088-0.07-0.146-0.172-0.161-0.284c0.066-0.116,0.105-0.246,0.114-0.379
	h-0.022c-0.102,0.049-0.171,0.147-0.185,0.26c-0.002,0.083-0.025,0.165-0.068,0.237c-0.068,0.278-0.1,0.565-0.092,0.852h-1.084
	v0.047h1.429c0.224,0.118,0.439,0.252,0.646,0.4c0.123-0.021,0.249,0.014,0.344,0.095v-0.116c-0.055-0.162-0.055-0.338,0-0.5
	c0.164-0.183,0.359-0.336,0.576-0.45l0.346,0.024v0.828h0.046c0.319-0.082,0.653,0.052,0.829,0.331l0.092,0.166h0.23
	c0.157,0.044,0.305,0.116,0.438,0.213c0.053,0.297,0.252,0.547,0.53,0.663l-0.185-0.568H31v-0.021
	c0.018,0.002,0.033,0.011,0.046,0.024c0.247,0.098,0.416,0.328,0.438,0.592H32.1c0.025,0.035,0.041,0.076,0.047,0.118H33v0.047
	c0.047,0.114-0.037,0.153-0.184,0.142c-0.22-0.05-0.446-0.059-0.668-0.024v0.26c-0.018,0.002-0.034,0.011-0.047,0.023
	c-0.288-0.053-0.582-0.068-0.875-0.047v0.047c0.027,0.054,0.051,0.109,0.069,0.166c0.128,0.131,0.286,0.229,0.461,0.284h2.511
	c0.95,0.078,1.708,0.825,1.799,1.774c-0.155,0.009-0.31,0.032-0.461,0.072c0.02,0.163,0.074,0.348,0.093,0.5
	c-0.004,0.255-0.066,0.506-0.185,0.733c-0.338,0.586-0.867,1.037-1.5,1.278c-0.705,0.443-1.449,0.83-2.164,1.277
	c-0.555,0.373-1.141,0.697-1.75,0.971c-0.246,0.1-0.617,0.1-0.807,0.166h-1.98c-0.1,0-0.318-0.055-0.345-0.047
	c-0.763,0.103-1.536,0.103-2.3,0c-0.061-0.01-0.043,0.039-0.068,0.047H19.16c-0.445-0.033-0.892-0.033-1.336,0h-3.362
	c-0.375-0.029-0.752-0.029-1.128,0H11.4c-0.107,0-0.219-0.059-0.276-0.047c-0.726,0.104-1.462,0.104-2.188,0
	c-0.055-0.01-0.094,0.045-0.184,0.047H7.093c-0.601-0.129-1.193-0.296-1.773-0.5c-0.326-0.125-0.6-0.17-0.944-0.284
	c-0.631-0.212-1.325-0.459-1.934-0.687c-0.14-0.052-0.236-0.025-0.368-0.07c-0.585-0.151-1.094-0.512-1.429-1.015
	c-0.155-0.33-0.263-0.681-0.322-1.041c-0.06-0.27,0.115-0.489,0.069-0.733c-0.048-0.186-0.056-0.379-0.023-0.568h0.069
	c0.026,0.065,0.057,0.129,0.092,0.189h0.046c0.03-0.1,0.085-0.189,0.161-0.261v-0.026c-0.17-0.121-0.305-0.283-0.391-0.474
	c0.037-0.015,0.068-0.039,0.092-0.071C0.262,21.253,0.114,21.076,0,20.878c0.275-0.062,0.539-0.166,0.783-0.308l0.207-0.071v-0.615
	H0.23v-2.983c0.148-0.048,0.306-0.064,0.461-0.047c0.258-0.052,0.522-0.06,0.783-0.024c0.524-0.03,1.181,0,1.773,0v-0.071h0.138
	v-0.075h0.184v0.071h0.116v0.099c0.117-0.02,0.237-0.003,0.345,0.047c0.043,0.06,0.082,0.123,0.115,0.189
	c0.149,0.2,0.37,0.343,0.507,0.568h0.023v-0.023c0.031-0.046,0.089-0.136,0.138-0.213c0.067,0,0.032,0.023,0.069,0
	c0.019-0.038,0.035-0.077,0.046-0.118c0.38-0.087,0.74-0.248,1.059-0.473c0.848-0.172,1.715-0.236,2.579-0.189h0.553
	c0.091-0.051,0.195-0.076,0.3-0.071c0.015,0.021,0.023,0.045,0.023,0.071c-0.032,0.002-0.063,0.011-0.092,0.024v0.018H9.6v-0.043
	c0.024-0.068,0.033-0.141,0.023-0.213H9.442v-0.166c1.48-0.006,3.264-0.012,4.744,0v0.166H14c-0.002,0.087,0.006,0.175,0.023,0.26
	h2.257c0.035,0.02,0.075,0.028,0.115,0.024l-0.023-0.166h-1.75c-0.056-0.051-0.095-0.116-0.115-0.189
	c-0.003-0.33,0.076-0.655,0.23-0.947c-0.052-0.17-0.091-0.345-0.115-0.521l0.092-0.047l0.023-0.26
	c0.132-0.286,0.225-0.589,0.276-0.9h-0.068c-0.042-0.045-0.066-0.104-0.069-0.166c0.061-0.018,0.116-0.05,0.161-0.095
	c-0.18-0.042-0.342-0.142-0.46-0.284c0.131,0,0.588,0.061,0.6,0.047c0.068-0.143,0.115-0.294,0.138-0.45
	c0.117-0.284,0.209-0.577,0.276-0.876c0.079,0.004,0.156,0.021,0.23,0.047v0.071c-0.085,0.205-0.147,0.419-0.184,0.639h0.046
	c0.044-0.02,0.091-0.035,0.138-0.047c0.035-0.019,0.082-0.1,0.115-0.118l0.253-0.024l0.115-0.166
	c0.073-0.04,0.143-0.088,0.207-0.142c0.022-0.053,0.054-0.101,0.092-0.142h0.115c0.124-0.048,0.3-0.15,0.438-0.189
	c0.37-0.076,0.753-0.042,1.104,0.095c0.07,0.03,0.159,0.12,0.23,0.142c0.292,0.002,0.584-0.014,0.875-0.047l0.023,0.284
	c0.072-0.011,0.146,0.006,0.207,0.047c0.015,0.021,0.023,0.045,0.023,0.071c-0.015,0.021-0.023,0.046-0.023,0.071h1.658l0.023-0.118
	h0.068v-0.378c0.01-0.006,0.018-0.014,0.023-0.024c0.098-0.014,0.19-0.046,0.275-0.095c-0.011,0.08-0.003,0.161,0.023,0.237
	c0.082,0.053,0.216,0.066,0.3,0.118c-0.024,0.037-0.106,0.1-0.069,0.118c0.018,0.037,0.053,0.063,0.093,0.071
	c0.015-0.159,0.157-0.276,0.316-0.261c0.002,0,0.003,0,0.005,0.001c0.027,0.028,0.051,0.06,0.069,0.095
	c-0.072,0.023-0.142,0.055-0.207,0.095l0.025,0.075c0.177,0.066,0.365,0.091,0.553,0.071l0.022-0.071h0.23v-0.1
	c-0.102-0.106-0.137-0.26-0.092-0.4c0.01-0.293,0.098-0.579,0.253-0.828c0.165-0.086,0.358-0.095,0.53-0.024
	c0.086,0.078,0.129,0.192,0.115,0.308C23.889,11.545,23.936,11.76,23.949,11.978z"/>
</svg>
