<svg xmlns="http://www.w3.org/2000/svg" width="40" height="40" viewBox="0 0 40 40">
  <defs>
    <style>
      .cls-1 {
        fill: #fff;
        fill-rule: evenodd;
      }
    </style>
  </defs>
  <path id="ussr_zut_37_ico" class="cls-1" d="M19.4,13.326l0.982,0.116a0.489,0.489,0,0,0,.551.163,0.088,0.088,0,0,0,.048.023c0.155,0.379.11,0.416,0.743,0.4a2.18,2.18,0,0,0,.695.023l0.958,0.046h0.647c0.218,0.046.543-.028,0.79,0.023a5.649,5.649,0,0,0,.934.046h0.623a6.228,6.228,0,0,0,1.15.046h0.407c0.21,0.044.527-.027,0.767,0.023a7.947,7.947,0,0,0,1.413.046V14.186H30.18V14.4h0.072a0.652,0.652,0,0,0,.048.209h7.9a4.807,4.807,0,0,1,.838-0.023L40,14.558v0.535l-0.982-.023a4.927,4.927,0,0,1-.862-0.023H30.3a0.739,0.739,0,0,1-.048.163l-0.072.023c-0.037.065,0.017,0.669,0,.767H30.108c-0.066-.108-0.255-0.021-0.335,0V15.954a1.63,1.63,0,0,1-.024-0.349h-8.91a2.62,2.62,0,0,0-.239.581,1.238,1.238,0,0,0,.12.209h1.8c0.035,0.059-.005.026,0.072,0.047v0.767l0.288-.023v0.07h0.1a0.455,0.455,0,0,1,.551-0.3,2.078,2.078,0,0,0,.335.07,4.064,4.064,0,0,0,.767.256,1.2,1.2,0,0,1,.718-0.233v0.6a5.865,5.865,0,0,1,1.533,1.07,1.61,1.61,0,0,0,.383.3V18.977c0.051-.073.043-0.208,0.1-0.279a0.326,0.326,0,0,1,.168-0.023,0.067,0.067,0,0,0,.024.023,0.612,0.612,0,0,0,.1.3,0.671,0.671,0,0,0,.287.023,2.843,2.843,0,0,1,.6-0.023V18.954s0.34,0.068.359,0.07l1.27,0.023V19.07H30.108a0.516,0.516,0,0,1-.335.186v0.07a4.293,4.293,0,0,1,2.922,1.116c0.142,0.1.233,0.273,0.383,0.372v0.023a0.451,0.451,0,0,0-.144.116c-0.089.058-.2,0.061-0.287,0.116-0.134.08-.275,0.195-0.407,0.279a0.7,0.7,0,0,0-.311.209,0.352,0.352,0,0,1,.12.023,0.8,0.8,0,0,0-.048.14,0.119,0.119,0,0,1,.072.023,0.116,0.116,0,0,1,.024.07,0.653,0.653,0,0,0,.024.512l0.072,0.023c0.031,0.081-.055.084-0.072,0.116a0.844,0.844,0,0,1,.072.14c-0.1.024-.117,0.037-0.12,0.163a1.046,1.046,0,0,0-.048.419,0.28,0.28,0,0,0-.1.093c0.032,0.04.041,0.037,0.024,0.07a0.255,0.255,0,0,0-.168.116c-0.007.017-.013,0.083-0.024,0.14a0.207,0.207,0,0,0-.192.209c0.03,0.036.015,0.012,0,.046a0.128,0.128,0,0,1-.12,0,0.19,0.19,0,0,1-.024.116c-0.06.033-.1-0.016-0.168,0.023a4.948,4.948,0,0,0-.383.326c-0.413.3-.808,0.589-1.221,0.884-0.1.07-.187,0.189-0.287,0.256-0.141.093-.306,0.122-0.455,0.209-0.443.261-.935,0.454-1.389,0.721a5.228,5.228,0,0,1-.791.442l-0.431.047a8.716,8.716,0,0,1-1.8.093H8.359a6.648,6.648,0,0,1-1.341-.07l-0.431-.023-1.317-.349c-0.248-.074-0.484-0.071-0.719-0.163-0.322-.127-0.653-0.284-0.982-0.419v0.093a0.153,0.153,0,0,0-.024.093c-0.472.017-.941,0.067-1.461,0.07a3.213,3.213,0,0,0-.192-0.93L1.844,25c-0.039-.043-0.13-0.047-0.168-0.093A3.507,3.507,0,0,1,1.15,24a3.019,3.019,0,0,1-.024-1.14c0.039-.133.13-0.253,0.168-0.4H0.886a1.43,1.43,0,0,1-.551.047,2.233,2.233,0,0,1,.695-1.488A2.68,2.68,0,0,0,1.437,20.7,5.686,5.686,0,0,1,.958,20.14a0.236,0.236,0,0,1-.12-0.07,3.983,3.983,0,0,1-.479.163c-0.224.176-.368-0.167-0.359-0.4a0.786,0.786,0,0,1,.1-0.093,1.091,1.091,0,0,0,.359-0.116A2.005,2.005,0,0,1,.12,19.14a0.361,0.361,0,0,0,.287-0.163A1.125,1.125,0,0,0,.743,18.93a0.2,0.2,0,0,0,.024-0.116,0.494,0.494,0,0,1-.072-0.372H0.647a0.266,0.266,0,0,1-.144.023,0.254,0.254,0,0,1-.072-0.186C0.58,18.21.695,18.063,0.838,18a0.577,0.577,0,0,0,.287-0.093c-0.03-.037-0.015-0.012,0-0.047,0.292-.244.966-0.247,1.246-0.465a0.34,0.34,0,0,1,.1-0.139,0.161,0.161,0,0,1,.12-0.023,1.359,1.359,0,0,0,.24-0.326,1.008,1.008,0,0,1,.359.023C3.2,16.936,3.263,17,3.281,17A0.826,0.826,0,0,1,3.5,16.93a0.559,0.559,0,0,0,.1.093,4.135,4.135,0,0,0,.695-0.233,3.234,3.234,0,0,1,.623-0.116,1.006,1.006,0,0,1,.144.419l1.054-.3a0.41,0.41,0,0,1,.072.093c0.065,0.093.052,0.258,0.12,0.349a0.166,0.166,0,0,0,.1.023v-0.07H6.9v-0.07H7.066v0.07H7.88v-0.07H8.048v0.07H8.12v0.07H8.431v-0.07H8.623v0.07H8.766v-0.07H8.982v0.07H9.1V16.442A2.45,2.45,0,0,1,9.7,16.4V16.349H9.581a1.667,1.667,0,0,0-.6-0.116l0.263-1.488H9.222a0.424,0.424,0,0,1-.335.046,0.916,0.916,0,0,1-.335-0.558,0.753,0.753,0,0,1,.838-0.3,0.973,0.973,0,0,1,0-.232c0.027-.067,0-0.043.072-0.07a3.589,3.589,0,0,1,.886-0.023h2.323V13.163a0.53,0.53,0,0,1,.168-0.023,11.131,11.131,0,0,0,1.365.023c0.4,0.083.934-.066,1.365,0.023a6.887,6.887,0,0,0,1.2.023l1.724,0.046v-0.07A1.447,1.447,0,0,1,19.018,13a1.2,1.2,0,0,1,.359.256A0.117,0.117,0,0,1,19.4,13.326Z"/>
</svg>
