<svg xmlns="http://www.w3.org/2000/svg" xmlns:xlink="http://www.w3.org/1999/xlink" width="80.063" height="40" viewBox="0 0 80.063 40">
  <defs>
    <style>
      .cls-1 {
        fill: #fff;
        fill-rule: evenodd;
      }
    </style>
    <clipPath id="clip-path">
      <rect x="0.031" y="0.016" width="80" height="40"/>
    </clipPath>
  </defs>
  <g clip-path="url(#clip-path)">
    <path id="ussr_destroyer_frunze_ico" class="cls-1" d="M59.651,13.914v0.863a6.045,6.045,0,0,1,1.565.043,9.939,9.939,0,0,0-1.946.086,0.679,0.679,0,0,1-.212.216,0.8,0.8,0,0,1,.085.389c-0.144.066-.135,0.117-0.127,0.432h0.042a0.151,0.151,0,0,1,.085-0.043c0.008-.155-0.063-0.09.085-0.13a0.687,0.687,0,0,1,0,.3,0.751,0.751,0,0,0-.169.259,4.9,4.9,0,0,1,.127,1.252,20.677,20.677,0,0,1,.338,3.108h0.762a1.558,1.558,0,0,0-.042-0.475h0.169V20.3c0.021,0.06-.021.248,0,0.388a0.758,0.758,0,0,1,.381.043,0.939,0.939,0,0,1,.042.432,3.8,3.8,0,0,1,.465,0,0.364,0.364,0,0,1,.127-0.173,1.538,1.538,0,0,1-.085-0.259,0.438,0.438,0,0,1-.254-0.043c0.165,0,.19.021,0.254-0.086a0.38,0.38,0,0,0,.042-0.216,0.643,0.643,0,0,1-.338-0.043c0.137-.036.065,0.021,0.127-0.086a2.479,2.479,0,0,0,.127-0.82,0.6,0.6,0,0,1,.338.086,1.912,1.912,0,0,1,.042.82h0.3v0.82H62.1c0.031-.251.061-0.647,0.085-0.863H62.4v0.086a7.712,7.712,0,0,1,.085.777h0.127c0-.379-0.041-0.623-0.042-0.863,0.716,0,1.463.107,2.115,0.13v0.043a5.4,5.4,0,0,0-.042,1.856,1.779,1.779,0,0,0-.55.13,9.946,9.946,0,0,1,0,1.511h0.042a0.9,0.9,0,0,1,.508.086V23.971c0.03-.067.005-0.006,0-0.13a0.508,0.508,0,0,1,.381-0.13,0.152,0.152,0,0,0,.085.043,0.284,0.284,0,0,1,.042-0.173v0.6h0.931v-0.3H65.912l-0.042-.432a0.244,0.244,0,0,0,.169,0c0.066-.081.08-0.089,0.042-0.173-0.062-.109-0.053-0.079-0.212-0.086a0.36,0.36,0,0,0-.212-0.043V22.719a2.219,2.219,0,0,1,.635-0.043,1.337,1.337,0,0,0,.211.043,1.273,1.273,0,0,0,.127-0.3c0.171,0.029.083,0.078,0.169,0.13a1.347,1.347,0,0,1,.212-0.086c0.122,0.137-.028.141,0.211,0.173a1.268,1.268,0,0,0,.931.13c0.766,0,1.627.054,2.454,0.043v0.173H70.566a3.265,3.265,0,0,0-.846,0l-2.242.043v0.345H67.351a0.4,0.4,0,0,0,.212.345,0.29,0.29,0,0,0,.127.043,0.85,0.85,0,0,0-.085.388h0.085a2.515,2.515,0,0,0,.973.043,0.623,0.623,0,0,0,.042-0.173,0.157,0.157,0,0,1-.042-0.086,0.9,0.9,0,0,0,.3.043c0.047-.124.007-0.079,0.127-0.13V23.669l0.508-.043v0.259h0.042a0.748,0.748,0,0,1,.127-0.086,0.629,0.629,0,0,1,.085-0.3,0.412,0.412,0,0,1,.339,0c0.107,0.063.048-.009,0.085,0.13-0.053.068-.027,0.022,0,0.086,0.055,0.107-.018.029,0.085,0.086a1.117,1.117,0,0,0,.55.13c-0.006-.265-0.015-0.226.3-0.216v0.259c0.618,0.032,1.06.078,1.735,0.086a1.311,1.311,0,0,1,.042-0.561v0.561h0.169V23.842a0.588,0.588,0,0,1,.169-0.043,0.8,0.8,0,0,1,.042.259l0.3-.043V23.842a0.588,0.588,0,0,1,.169-0.043,0.248,0.248,0,0,0,.211.173,1.051,1.051,0,0,1,.042-0.475,1.051,1.051,0,0,0,.042.475c0.033-.029.094-0.057,0.127-0.086s0.057-.136.085-0.173l0.338,0.13a0.866,0.866,0,0,0,.169.216c0.068,0.042.9-.04,1.185-0.043a0.147,0.147,0,0,0,0,.13,0.837,0.837,0,0,1,.212-0.043,1.577,1.577,0,0,1,.042-0.648v0.691h1.734a1.711,1.711,0,0,1,.042-0.691v0.691h0.381c0.29-.5.64-0.982,0.973-1.468a1.562,1.562,0,0,0,.254-0.3V20.648h0.085v0.043a2.887,2.887,0,0,0-.042,1.036,13.251,13.251,0,0,0,.085,2.5c0.272,0.069.181,1.528,0.169,1.942a11.992,11.992,0,0,0-.254,1.813,4.231,4.231,0,0,1-.8,2.158,5,5,0,0,1-2.031.6l-0.169.518a2.64,2.64,0,0,0-.761.043c0.063,0.114.029,0.134,0.127,0.173,0.131,0.088.243,0.009,0.254,0.345l-0.127.043a4.229,4.229,0,0,1-2.158-.086c-0.182-.084-0.278.076-0.381-0.086a0.7,0.7,0,0,0,.042-0.345h0.212l0.085,0.259a13.984,13.984,0,0,0,1.734-.173c-0.037-.266-0.983-0.182-1.523-0.173a0.963,0.963,0,0,0-.931-0.216,22.432,22.432,0,0,1-3.384.173c-4.125.234-8.374,0.3-12.607,0.3-5.595,0-11.357.172-17.049,0.173l-4.992-.043a14.36,14.36,0,0,1-2.792-.043H30.291L23.9,31.439,16.88,31.05c-0.874-.2-1.919-0.1-2.792-0.3l-0.931-.043c-0.44-.1-0.945-0.019-1.438-0.129a7.661,7.661,0,0,0-2.581-.086l-0.465-.13a39.564,39.564,0,0,0-4.019.475,0.315,0.315,0,0,1-.085.389V31.18c-0.043-.043-0.042.043-0.042,0.043a0.687,0.687,0,0,1-.212.389A1.649,1.649,0,0,1,4.1,30.835l-0.212-.043v0.086a0.526,0.526,0,0,1-.127.777A2.468,2.468,0,0,1,2.5,31.612c-0.939-.245-1.7-0.5-1.523-1.727l0.3-.259c0.606-.045,1.232.08,1.9,0.086l0.042-.13a0.223,0.223,0,0,1-.042-0.13,8.849,8.849,0,0,1-1.946-.475,0.951,0.951,0,0,1-.719-0.345,4.659,4.659,0,0,1-.423-1.554,5.334,5.334,0,0,1,.042-0.993H0.3L0,23.669H0.042v0.086a6.167,6.167,0,0,1,.212,1.511A3.665,3.665,0,0,0,1.015,26a0.367,0.367,0,0,1,.042-0.216,0.642,0.642,0,0,0,.677.777,3.2,3.2,0,0,1,.508-0.086V26.345H2.115V26.3a0.407,0.407,0,0,0,0-.345H2.073c-0.035.14,0.021,0.066-.085,0.13,0.042-.288.11-0.452-0.212-0.475a0.455,0.455,0,0,1-.212-0.173,0.223,0.223,0,0,1-.042-0.129h0.55a1.312,1.312,0,0,1,.042-0.561,1.052,1.052,0,0,0,.042.475,0.213,0.213,0,0,1,.127-0.043v0.13H3.427v0.129H2.708v0.043c0.07,0.065.043,0.031,0.042,0.086C2.7,25.6,2.546,25.62,2.5,25.655a0.439,0.439,0,0,0,.127.216,0.149,0.149,0,0,1,.042-0.086,5.252,5.252,0,0,1,0,.734,7.883,7.883,0,0,0,1.565-.086,1.173,1.173,0,0,1,.042-0.648,0.682,0.682,0,0,0,.042.345,0.3,0.3,0,0,1,.381.043,0.683,0.683,0,0,0,.042.216,0.214,0.214,0,0,0,.127.043,1.007,1.007,0,0,1,.931,0,1.576,1.576,0,0,1,.042-0.648,1.844,1.844,0,0,0,.042.734,0.771,0.771,0,0,0,.381.043V26.3A3.159,3.159,0,0,0,6.9,26.216v-0.13H7.023a0.782,0.782,0,0,0,.127-0.216,0.223,0.223,0,0,0,.042-0.13H7.065A1.041,1.041,0,0,1,7.107,25.4H6.3a1.973,1.973,0,0,0-.761-0.043l-1.608-.043V25.18l3.384-.086c0.058-.118.147-0.172,0.212-0.3a1.919,1.919,0,0,1,.212.13,0.555,0.555,0,0,1,.042-0.173,0.144,0.144,0,0,1,.085.043,0.483,0.483,0,0,0,.338.3c-0.022-.191-0.06-0.155-0.085-0.345a0.652,0.652,0,0,1,.212-0.043v0.043H8.377a0.341,0.341,0,0,0,0,.173,6.168,6.168,0,0,0,2.581.173,0.474,0.474,0,0,1,.3-0.3v0.043c0.083,0.064-.024.062,0.127,0.086a0.557,0.557,0,0,1,.042-0.173,0.144,0.144,0,0,1,.085.043,0.417,0.417,0,0,0,.338.3c-0.023-.2-0.068-0.173-0.085-0.389h0.212a1.467,1.467,0,0,0,.127.3,0.962,0.962,0,0,1,.381.086,0.816,0.816,0,0,1,.042.389H12.48v0.043a0.3,0.3,0,0,0-.381.129H12.057C12.015,25.7,12.1,25.7,12.1,25.7a0.3,0.3,0,0,0,.085.173,0.213,0.213,0,0,1,.127-0.043,0.524,0.524,0,0,1-.212.518,0.151,0.151,0,0,0-.085-0.043v0.259h0.677a1.844,1.844,0,0,1,.042-0.734v0.734c0.491,0,.729-0.084,1.227-0.086a0.633,0.633,0,0,0,.592.086,1.843,1.843,0,0,1,.042-0.734v0.734h1.1V26.3H15.569V26.043H15.7a7.01,7.01,0,0,0-.042-0.863,1,1,0,0,1-.55-0.3,1.841,1.841,0,0,0,.085-0.82h2.538a1.04,1.04,0,0,1,.042-0.345H16.8a9.452,9.452,0,0,0-2.2-.043V23.5a17.85,17.85,0,0,0,3.511-.13l0.042-.216h0.169c0.1,0.114.055,0,.254-0.043a0.328,0.328,0,0,0,.3.345,1.271,1.271,0,0,0-.085-0.345,0.26,0.26,0,0,0,.085-0.086,0.144,0.144,0,0,1,.085.043,0.482,0.482,0,0,1,.169.3,0.675,0.675,0,0,1,.381.043,0.938,0.938,0,0,1,.042.432,0.922,0.922,0,0,0-.381.086,0.222,0.222,0,0,0-.042.13h0.931a0.367,0.367,0,0,1,.042-0.216v0.216a1.3,1.3,0,0,0,.423-0.043c-0.179-.562-0.053-1.388-0.212-2.115-0.1-.449-0.031-1.205-0.169-1.64a11.68,11.68,0,0,1-.254-2.374,1.577,1.577,0,0,1-.592-0.259c-0.651-.292-1.283-0.585-1.9-0.863a5.7,5.7,0,0,1-1.354-.6h0.042V16.115c0.872,0.4,1.732.766,2.623,1.165a3.273,3.273,0,0,0,1.142.475V17.583c-0.141.017-.12,0.043-0.127-0.173a5.077,5.077,0,0,1-.127-1.252c-0.293-1.3-.18-2.918-0.465-4.1a6.39,6.39,0,0,1-.085-1.9c0,0.346.075,0.452,0.085,0.777a0.2,0.2,0,0,1,.127.043H19.122a10.861,10.861,0,0,1,.127,1.252,0.2,0.2,0,0,1,.127.043,0.2,0.2,0,0,0-.127.043,0.224,0.224,0,0,1,.042.13,0.539,0.539,0,0,1,.3.043c-0.241,0-.29.009-0.3,0.259a1.149,1.149,0,0,1,.085.691,0.539,0.539,0,0,1,.3.043H19.418v0.043h0.042a1.208,1.208,0,0,0,0,.648c0.1,0.083.075,1.414,0.212,1.6a0.379,0.379,0,0,1,.338.043,8.446,8.446,0,0,0,.169.906L20.9,24.058l0.211-.043a1.711,1.711,0,0,1,.042-0.691v0.734h0.169a5.557,5.557,0,0,1,.042-0.777,0.561,0.561,0,0,1-.338-0.432,0.511,0.511,0,0,0,.085-0.216,0.831,0.831,0,0,1,.423-0.13v0.043a0.839,0.839,0,0,0-.085.647l0.127,0.043c0.046,0.064-.065.044-0.085,0.043a2.911,2.911,0,0,0,.042.6h0.042a0.692,0.692,0,0,1,.338-0.129c0.016,0.012.259,0.274,0.085,0.3h3.215v-0.13H25.045V23.842a1.049,1.049,0,0,0,.3-0.13c-0.018-.152-0.085-0.131.042-0.216,0.065-.03.006-0.006,0.127,0-0.023.1-.018,0.12-0.042,0.259h0.465a1.225,1.225,0,0,0,.8.086v0.086H25.976v0.086H25.933v0.043h1.4a2.879,2.879,0,0,0,.085.906c0.031,0.076-.043,1.307-0.042,1.554h0.085c-0.022-.509.035-0.769,0.465-0.82a0.671,0.671,0,0,1,.085.389,0.812,0.812,0,0,0-.127.216H27.753v0.216h0.592a1.709,1.709,0,0,1,.042-0.691,1.008,1.008,0,0,0,.085.691v-0.3a1.98,1.98,0,0,0,.085-0.475,0.572,0.572,0,0,1-.212-0.13,0.3,0.3,0,0,0,.042-0.173H27.753a1,1,0,0,0-.127-0.173c0.036-.081.02-0.032,0-0.13a0.535,0.535,0,0,0,.127-0.173h0.211c0.078-.058.089-0.3,0.169-0.345h0.635a0.241,0.241,0,0,0,.254.086v0.216h0.042a0.151,0.151,0,0,1,.085-0.043,3.254,3.254,0,0,0,.042-0.82,0.2,0.2,0,0,1,.127.043,1.18,1.18,0,0,1,.127.432L29.7,24.619a1.337,1.337,0,0,1,.042-0.3,0.144,0.144,0,0,1-.085-0.043h0.423v0.043H29.995a0.365,0.365,0,0,0-.169.13,1.731,1.731,0,0,1,.423.561,0.278,0.278,0,0,1,.338-0.173,1.063,1.063,0,0,0,.888.13,0.426,0.426,0,0,0,.212-0.13c-0.159-.059-0.168-0.129-0.169-0.345a0.319,0.319,0,0,0,.169-0.173c-0.229-.087-0.077-0.185-0.212-0.345a7.293,7.293,0,0,1-.931-0.475H30.5V23.453h0.169a1.911,1.911,0,0,0,.846.389,1.274,1.274,0,0,1,1.058-.345c0.02,0.126.255,0.1,0.508,0.086L33,22.676a0.2,0.2,0,0,1-.127-0.043H33l-0.127-.777c-0.059-.009.017,0.035-0.042,0.043-0.033.083-.042-0.086-0.042-0.086a0.382,0.382,0,0,0,.085-0.388,0.2,0.2,0,0,1-.127-0.043c0.255-.16-0.065-0.582,0-0.648a2.369,2.369,0,0,0,.423-0.216h-0.3V20.475a7.166,7.166,0,0,1,1.777.043,0.763,0.763,0,0,0-.592.086h0.592a0.4,0.4,0,0,0,.169.13,3.375,3.375,0,0,0,.169,1.209c-0.107.017-.067-0.025-0.085,0.13a7.416,7.416,0,0,1,.127,1.209h0.085c0.029-.305.327-0.237,0.635-0.216a9.174,9.174,0,0,1,.085-2.2,0.379,0.379,0,0,1-.127-0.13h0.085a0.467,0.467,0,0,1,.169.432,9.537,9.537,0,0,0-.042,1.9,1.552,1.552,0,0,1,.8.173,5.75,5.75,0,0,0,1.058,0,4.155,4.155,0,0,1,.042-1.511,6.279,6.279,0,0,1,.085,1.165h0.042V22.849a1.329,1.329,0,0,0,.042-0.561,1.02,1.02,0,0,1,.127.863,0.157,0.157,0,0,1,.042.086h0.592c-0.032-.336-0.261-0.639.042-0.863a0.434,0.434,0,0,1,.254-0.086c0.054,0.14.037,0.114,0.212,0.13v0.6H39.09v0.043a0.3,0.3,0,0,1,.042.173c0.326,0,.57-0.009.8,0l0.042-.95a0.834,0.834,0,0,1,.127.777,0.3,0.3,0,0,1,.042.173,2.508,2.508,0,0,0,1.65-.259,0.637,0.637,0,0,1-.042-0.3,0.2,0.2,0,0,1-.127-0.043h0.127a4.87,4.87,0,0,0-.212-0.82,0.382,0.382,0,0,0,.085-0.388,0.27,0.27,0,0,1-.169-0.043h0.127a0.788,0.788,0,0,0-.127-0.518,3.325,3.325,0,0,0,.127-0.389,8.3,8.3,0,0,1,1.988.043,0.509,0.509,0,0,0-.465.086h0.465a0.725,0.725,0,0,0,.169.259,0.282,0.282,0,0,1,.169-0.043l0.254,2.417h0.508l0.042-.95a0.925,0.925,0,0,1,.127.82,0.868,0.868,0,0,1,.254.518,1.6,1.6,0,0,1,1.185,0,1.152,1.152,0,0,1,.169,1.209,0.767,0.767,0,0,0-.338.216,2.45,2.45,0,0,0-.042.691h0.085a2.136,2.136,0,0,0,.846.043l0.042-.259c-0.27,0-.455.011-0.635,0V25.18a1.4,1.4,0,0,0,.254-0.086c0.075-.061.09-0.3,0.169-0.345h0.677a0.36,0.36,0,0,0,.211.043v0.173a0.2,0.2,0,0,0,.127-0.043,1.713,1.713,0,0,0,.085-0.734H48.1a0.558,0.558,0,0,0,.127.475,0.282,0.282,0,0,0,.169.043,0.121,0.121,0,0,1,.042-0.043A1.66,1.66,0,0,0,48.4,24.4h0.381v0.043a0.707,0.707,0,0,0-.254.043v0.086c0.123,0,.059-0.042.127,0a4.149,4.149,0,0,1,.254.518,1.108,1.108,0,0,1,.381-0.13v0.043c-0.055.024-.031,0-0.042,0.043a0.451,0.451,0,0,0,.254.043c0.062-.109.019-0.067,0.169-0.086a1.225,1.225,0,0,0,.8.086c0.1-.054.584,0.007,0.846-0.043v0.086c-0.1.039-.067,0.046-0.169,0.086a5.273,5.273,0,0,1-1.481.173c-0.174.042-.307,0.135-0.465,0.173l0.042,0.216H51.19a1.944,1.944,0,0,0,.169-1.424c-0.122-.055-0.087.049-0.127-0.13a2.094,2.094,0,0,0,0-.993,11.06,11.06,0,0,1-.212-1.64,3.322,3.322,0,0,0-.127-0.777l-0.042-.086c0.078-.139.111,0.03,0.127-0.259a8.543,8.543,0,0,1,2.031.043,0.589,0.589,0,0,0-.508.086c0.594,0,.505.216,1.015,0.216a0.211,0.211,0,0,1-.042.13,0.169,0.169,0,0,0-.169-0.086l0.085,0.82h0.127V21.511h0.042v0.043a0.3,0.3,0,0,1,.042.173H53.39v0.086a2.7,2.7,0,0,1,.127.907c0.129-.02.133-0.086,0.169-0.043h0.042a0.122,0.122,0,0,1-.042.043,2.207,2.207,0,0,1-.169.173,7.44,7.44,0,0,1,.212,1.813h0.042V24.662a0.9,0.9,0,0,1,.677-0.6,0.773,0.773,0,0,1,.169.388l-0.169.518a0.237,0.237,0,0,1,.127.173l0.127-.043a0.233,0.233,0,0,1,.127-0.173V24.748a2.7,2.7,0,0,1,.931.086v0.13h0.127V24.878a1.522,1.522,0,0,0,0-.648,0.654,0.654,0,0,1,.211-0.043,0.459,0.459,0,0,0,0,.259,0.6,0.6,0,0,0,.254.3h0.085V24.489h0.042V24.446a0.144,0.144,0,0,1-.085-0.043,0.873,0.873,0,0,1,.423.043,0.707,0.707,0,0,0-.254.043v0.043H56.69v0.216a1.2,1.2,0,0,1,.254.345,1.107,1.107,0,0,1,.381-0.13v0.043c-0.055.024-.031,0-0.042,0.043a0.36,0.36,0,0,0,.212.043c0.062-.109.053-0.079,0.212-0.086a1.225,1.225,0,0,0,.8.086,1.213,1.213,0,0,1,.508,0,9,9,0,0,0,.423-1.122,3.064,3.064,0,0,0-.127-1.079c-0.152-.7-0.071-1.425-0.212-2.072l-0.169-2.072-0.508-4.662c0.214-.1.228-0.187,0.211-0.518a2,2,0,0,1-.085-0.734,0.282,0.282,0,0,1,.169-0.043l-0.042-.647a0.2,0.2,0,0,1-.127-0.043h0.127a1.973,1.973,0,0,1-.042-0.432,0.525,0.525,0,0,0-.169.043V11.626c0.151-.018.106,0.02,0.169-0.086a1.616,1.616,0,0,1-.085-0.561,0.2,0.2,0,0,1-.127-0.043h0.127V10.719a0.745,0.745,0,0,1-.169-0.086h0.127A1.789,1.789,0,0,0,58.424,9.9a0.341,0.341,0,0,0-.169-0.216h0.169A2.1,2.1,0,0,0,58.3,8.95c-0.066.054-.022,0.028-0.085,0,0.269-.183-0.083-0.59.127-0.95a2.708,2.708,0,0,0,.212,1.165c0.053,0.069-.071.036-0.085,0.043a4.842,4.842,0,0,0,.085.95c0.113,0.462.056,0.974,0.212,1.64a13.51,13.51,0,0,0,.212,2.072A1.63,1.63,0,0,0,59.651,13.914ZM18.911,9.381a0.3,0.3,0,0,1,0,.3v-0.3ZM18.953,9.77a0.366,0.366,0,0,1,0,.345V9.77ZM19.08,9.9a0.156,0.156,0,0,1,.042.086H19.08V9.9Zm0.127,0.82h0.085v0.043A0.144,0.144,0,0,1,19.207,10.719Zm39.556,0.043h0.085v0.043A0.145,0.145,0,0,1,58.763,10.763Zm-0.3.475h0.085v0.043A0.145,0.145,0,0,1,58.466,11.237ZM19.291,11.5h0.085V11.54A0.145,0.145,0,0,1,19.291,11.5ZM58.551,12.4a0.2,0.2,0,0,1,.127.043A0.2,0.2,0,0,1,58.551,12.4Zm-39.133.777H19.5v0.043A0.144,0.144,0,0,1,19.418,13.18Zm-0.254.475a0.176,0.176,0,0,1,0,.216V13.655Zm0.3,0.173a0.2,0.2,0,0,1,.127.043A0.2,0.2,0,0,1,19.461,13.827Zm0.085,0.648a0.2,0.2,0,0,1,.127.043A0.2,0.2,0,0,1,19.545,14.475Zm0.042,0.647a0.268,0.268,0,0,1,.169.043A0.269,0.269,0,0,1,19.588,15.122ZM20.1,15.856a0.157,0.157,0,0,1,.042.086H20.1V15.856ZM32.66,21.079a0.2,0.2,0,0,1,.127.043A0.2,0.2,0,0,1,32.66,21.079Zm8.757,0H41.5v0.043A0.144,0.144,0,0,1,41.417,21.079Zm12.057,0.043a0.174,0.174,0,0,1,.085.173H53.517V21.252A0.223,0.223,0,0,1,53.474,21.122Zm-15.7.389h0.085v0.173H37.779V21.511Zm15.78,0.345a0.3,0.3,0,0,1,.085.216H53.6V22.029A0.3,0.3,0,0,1,53.559,21.856ZM53.6,22.245a0.311,0.311,0,0,1,.085.173H53.6V22.245Zm-20.772.086h0.085v0.043A0.144,0.144,0,0,1,32.829,22.331Zm8.757,0h0.085v0.043A0.144,0.144,0,0,1,41.587,22.331Zm-19.968.259H21.7v0.043A0.144,0.144,0,0,1,21.618,22.59Zm0.127,0.13a0.157,0.157,0,0,1,.042.086H21.745V22.719Zm-1.735.259a1.515,1.515,0,0,1,.127.13v0.086H20.1V23.151A0.31,0.31,0,0,1,20.011,22.978Zm1.735,0a0.157,0.157,0,0,1,.042.086H21.745V22.978Zm-0.042.086a0.157,0.157,0,0,1,.042.086H21.7V23.065Zm23.4,0.043h0.085v0.043A0.144,0.144,0,0,1,45.1,23.108Zm-0.085.043H45.1v0.043A0.144,0.144,0,0,1,45.013,23.151Zm-23.437.043h0.085v0.043A0.144,0.144,0,0,1,21.576,23.194Zm-1.608.086a0.167,0.167,0,0,1,.085.13H20.011V23.367A0.156,0.156,0,0,1,19.968,23.281Zm0.085,0.13a0.157,0.157,0,0,1,.042.086H20.053V23.41Zm7.657,1.424h0.085v0.043A0.144,0.144,0,0,1,27.71,24.835ZM1.692,26H1.777v0.043A0.145,0.145,0,0,1,1.692,26Zm-0.085.043H1.692v0.043H1.65C1.621,26.092,1.568,26.089,1.608,26.043Z" transform="translate(0.031 0.016)"/>
  </g>
</svg>
