<?xml version="1.0" encoding="utf-8"?>
<!-- Generator: Adobe Illustrator 16.0.0, SVG Export Plug-In . SVG Version: 6.00 Build 0)  -->
<!DOCTYPE svg PUBLIC "-//W3C//DTD SVG 1.1//EN" "http://www.w3.org/Graphics/SVG/1.1/DTD/svg11.dtd">
<svg version="1.1" id="Layer_1" xmlns="http://www.w3.org/2000/svg" xmlns:xlink="http://www.w3.org/1999/xlink" x="0px" y="0px"
	 width="40px" height="40px" viewBox="0 0 40 40" enable-background="new 0 0 40 40" xml:space="preserve">
<path id="ussr_bt_5_ico" fill="#FFFFFF" d="M25.256,9.5h0.174v0.088l0.237-0.022l0.022,0.372l0.236,0.022v0.548h0.022
	c0.067-0.058,0.1-0.024,0.194,0v0.307h0.086v0.065c0.045-0.018,0.088-0.04,0.129-0.066c0.083,0.035,0.17,0.057,0.26,0.066v-0.044
	c0.029-0.107,0.037-0.219,0.021-0.329c0.085-0.024,0.175-0.024,0.26,0c0.028,0.09,0.024,0.278,0.043,0.373h1.316
	c0.04,0.105,0.055,0.218,0.043,0.329h0.237v0.241c0.454,0.122,0.827,0.444,1.015,0.876h1.792c0.229-0.035,0.464-0.027,0.691,0.022
	c0.075,0.071,0.179,0.103,0.28,0.088c0.143,0.035,0.289,0.042,0.433,0.022l1.144,0.022c0.037,0.021,0.066,0.051,0.086,0.088h1.274
	c0.351,0.04,0.706,0.047,1.058,0.022h2.138c0.097-0.033,0.198-0.048,0.3-0.044v0.57h-0.3v-0.045l-3.152,0.021h-1.319
	c-0.615,0.139-1.248,0.183-1.877,0.131c-0.035,0.17-0.201,0.131-0.39,0.132h-1.035l-0.065,0.109c0.084,0,0.101-0.011,0.131,0.044
	h-0.174v0.066c-0.031,0.023-0.068,0.039-0.107,0.044v0.372c0.042,0.077,0.071-0.009,0.086,0.153
	c-0.067,0.031-0.142,0.046-0.216,0.044c-0.026-0.047-0.041-0.099-0.043-0.153h-0.601c0,0.201-0.164,0.363-0.365,0.362
	c-0.029,0-0.059-0.004-0.088-0.011c-0.094-0.022-0.191-0.015-0.28,0.022c-0.011-0.064-0.13-0.048-0.259-0.044v0.021
	c-0.166,0.047-0.162,0.174-0.151,0.395H28.3v0.57H27.48v0.15h1.488c0-0.024,0.008-0.047,0.022-0.066
	c0.019-0.014,0.042-0.022,0.065-0.022c0.051,0.008,0.102,0.023,0.15,0.044l0.043-0.066c-0.039-0.017-0.07-0.049-0.086-0.088h0.043
	c0.027,0.016,0.05,0.039,0.064,0.066c0.02,0.041,0.027,0.087,0.021,0.132c0.055-0.012,0.105-0.034,0.15-0.066
	c0.045,0.005,0.084,0.029,0.108,0.066h0.476v-0.085h0.539v-0.11c0.025-0.026,0.055-0.048,0.086-0.066
	c0.026-0.017,0.057-0.024,0.087-0.022c0.024,0.046,0.054,0.09,0.086,0.131v-0.021c0.021-0.045,0.06-0.077,0.108-0.088l0.021,0.066
	c0.048,0.261,0.041,0.53-0.021,0.789c0.035,0.13,0.086,0.254,0.15,0.372l0.367,1.117c0.126,0.005,0.247,0.051,0.345,0.131
	c0.009,0.049,0.032,0.094,0.065,0.131v-0.02c0.043-0.095,0.11-0.178,0.193-0.241v0.022h0.022c-0.029,0.119-0.101,0.189-0.13,0.307
	c0.029,0.036,0.066,0.066,0.107,0.088c0.172,0.07,0.355,0.1,0.54,0.088c0.4,0.09,0.759,0,1.166,0.088
	c0.563,0.125,1.222,0.053,1.771,0.175c0.313,0.07,0.658-0.021,0.949,0.044c0.264,0.058,0.545-0.008,0.777,0.044
	c0.375,0.083,0.814-0.034,1.166,0.066c0.193,0.051,0.381,0.117,0.561,0.2c0.128,0.096,0.25,0.198,0.367,0.307
	c0.371,0.139,0.625,0.481,0.648,0.876l-0.193,0.022c-0.102,0.294-0.238,0.573-0.41,0.832c0.058,0.06,0.096,0.136,0.107,0.219
	l-0.086,0.044c0.066,0.229,0.117,0.464,0.15,0.7c0.035,0.013,0.072,0.021,0.108,0.022l-0.043,0.263H39.59
	c-0.019-0.015-0.041-0.022-0.064-0.022l-0.022,0.066c-0.032,0.092-0.055,0.188-0.065,0.285c-0.069,0.133-0.127,0.271-0.172,0.416
	l0.086,0.044l-0.086,0.2c-0.035-0.02-0.071-0.033-0.108-0.045c-0.134,0.191-0.304,0.355-0.5,0.482
	c0.019,0.038,0.041,0.074,0.065,0.109c-0.085,0.063-0.18,0.106-0.281,0.132c-0.027-0.017-0.049-0.039-0.065-0.066
	c-0.265,0.121-0.511,0.285-0.776,0.416c0.014,0.04,0.036,0.077,0.064,0.11c-0.077,0.034-0.156,0.063-0.237,0.088l-0.043-0.088
	c-0.28,0.109-0.532,0.263-0.8,0.395l0.064,0.109c-0.072,0.044-0.152,0.074-0.236,0.088c-0.025-0.026-0.047-0.056-0.064-0.088
	l-0.82,0.416c0.028,0.029,0.044,0.068,0.043,0.109c-0.067,0.037-0.141,0.059-0.217,0.066c-0.018-0.027-0.031-0.057-0.043-0.088
	c-0.236,0.068-0.462,0.172-0.668,0.307c-0.016,0.041,0.041,0.088-0.022,0.11c-0.081,0.045-0.168,0.075-0.259,0.088
	c-0.01-0.038-0.024-0.075-0.043-0.11l-0.777,0.264c-0.014,0.02-0.021,0.042-0.021,0.066c0.014,0.019,0.021,0.041,0.021,0.065
	c-0.075,0.011-0.148,0.032-0.216,0.065c-0.011-0.088,0-0.088-0.086-0.109c-0.224,0.121-0.464,0.209-0.712,0.263
	c0,0.101,0.027,0.101-0.022,0.132c-0.06,0.034-0.126,0.057-0.194,0.065C32.3,26.2,32.24,26.206,32.1,26.215
	c-0.217,0.064-0.441,0.102-0.668,0.11c0.004,0.046,0.02,0.091,0.043,0.131H31.3c-0.04,0.02-0.085,0.027-0.13,0.022v-0.11
	c-0.275,0-0.536,0-0.82,0c-0.005,0.009-0.013,0.017-0.021,0.022c0,0.094,0.031,0.076-0.021,0.109
	c-0.098-0.029-0.2-0.036-0.301-0.021v-0.11c-0.3-0.048-0.605-0.056-0.906-0.022c-0.016,0.043-0.023,0.088-0.022,0.133h-0.259v-0.11
	h-0.043c-0.301-0.047-0.607-0.047-0.907,0v0.11h-0.259v-0.11c-0.307-0.049-0.619-0.056-0.928-0.022
	c-0.029,0.178-0.046,0.139-0.281,0.133v-0.11c-0.258-0.042-0.519-0.05-0.777-0.022c-0.012,0.012-0.027,0.02-0.043,0.022
	c0,0.173-0.1,0.116-0.3,0.11v-0.11c-0.3-0.048-0.605-0.056-0.907-0.022c-0.015,0.043-0.021,0.088-0.021,0.133h-0.261v-0.11h-0.043
	c-0.302-0.032-0.606-0.025-0.907,0.022V26.5h-0.259v-0.109c-0.313-0.051-0.634-0.058-0.95-0.022v0.11H21.65v-0.022
	c0.017-0.026,0.024-0.058,0.022-0.088c-0.259-0.021-0.518-0.028-0.776-0.022c-0.015,0.043-0.021,0.088-0.021,0.133h-0.3v-0.11
	c-0.286-0.046-0.576-0.054-0.863-0.022c-0.015,0.043-0.022,0.088-0.022,0.133h-0.262v-0.11c-0.307-0.049-0.619-0.056-0.928-0.022
	c-0.012,0.012-0.027,0.02-0.043,0.022v0.11h-0.3v-0.131h-0.909c-0.015,0.042-0.022,0.086-0.022,0.131h-0.259
	c0.011-0.043,0.011-0.088,0-0.131h-0.755c-0.014,0.042-0.021,0.086-0.021,0.131h-0.325v-0.109c-0.157-0.029-0.316-0.037-0.475-0.021
	c-0.112,0.031-0.23,0.038-0.345,0.021c-0.015,0.042-0.022,0.086-0.022,0.131h-0.237c0.008-0.049,0.023-0.057,0-0.088
	c-0.279-0.043-0.562-0.051-0.842-0.021V26.5h-0.259v-0.131l-0.864-0.021v0.131h-0.237v-0.109c-0.229-0.039-0.461-0.046-0.691-0.021
	c-0.015,0.042-0.022,0.086-0.022,0.131h-0.3v-0.045c0.014-0.019,0.021-0.042,0.021-0.065c-0.271-0.044-0.547-0.052-0.82-0.022
	c-0.054,0.135-0.04,0.137-0.259,0.133v-0.11c-0.165-0.03-0.333-0.038-0.5-0.022c-0.105,0.031-0.216,0.038-0.324,0.022v0.11H9.455
	v-0.11c-0.223-0.019-0.63-0.022-0.95-0.022c-0.015,0.043-0.022,0.088-0.022,0.133H8.2v-0.11H8.181v-0.021
	c-0.218-0.014-0.435-0.044-0.648-0.089c-0.01,0.045-0.025,0.089-0.043,0.132c-0.082-0.037-0.17-0.053-0.259-0.045V26.3
	c0.016-0.026,0.024-0.057,0.022-0.088c-0.324-0.017-0.5-0.176-0.8-0.2V26.1c-0.069-0.001-0.136-0.021-0.193-0.06
	c-0.007-0.048-0.028-0.094-0.06-0.131c-0.232-0.108-0.47-0.203-0.712-0.285c-0.018,0.027-0.032,0.058-0.043,0.088
	c-0.083-0.022-0.158-0.067-0.216-0.131c0.023-0.024,0.039-0.055,0.043-0.088c-0.232-0.149-0.488-0.261-0.756-0.329
	c-0.03,0.061-0.031,0.087-0.086,0.066c-0.065-0.014-0.125-0.044-0.173-0.088c0.036-0.025,0.053-0.068,0.043-0.11
	c-0.21-0.101-0.427-0.188-0.648-0.263L3.6,24.857c-0.1-0.021-0.19-0.078-0.254-0.157c0.023-0.024,0.038-0.056,0.043-0.088
	c-0.259-0.129-0.526-0.238-0.8-0.329l-0.043,0.088c-0.078-0.024-0.15-0.063-0.216-0.11c-0.13-0.228-0.347-0.394-0.6-0.46
	c-0.023,0.021-0.044,0.043-0.065,0.066V23.85c-0.069-0.039-0.123-0.102-0.151-0.176c0.035-0.017,0.059-0.05,0.065-0.088
	c-0.169-0.117-0.379-0.581-0.5-0.613c-0.037,0.029-0.035,0.038-0.065,0.022c-0.048-0.066-0.085-0.141-0.108-0.22
	c0.095-0.012,0.1-0.008,0.108-0.109c-0.108-0.225-0.153-0.475-0.13-0.723H0.777v-0.328H0.8c0.026,0.016,0.056,0.023,0.086,0.021
	l0.086-0.394L0.5,21c-0.033,0.158-0.1,0.307-0.194,0.438C0.188,21.414,0.081,21.353,0,21.264c0.171-0.211,0.31-0.447,0.41-0.699
	c0.27-0.449,0.532-0.922,0.8-1.381c-0.11-0.039-0.208-0.108-0.281-0.199c-0.018-0.034-0.026-0.072-0.022-0.11
	c0.076-0.065,0.135-0.147,0.173-0.241c-0.18-0.193-0.313-0.426-0.389-0.679c0.02-0.104,0.064-0.202,0.13-0.285
	c0.101-0.051,0.211-0.081,0.324-0.088l0.561,0.394c0.084-0.082,0.188-0.142,0.3-0.175c0.012,0.012,0.027,0.02,0.043,0.022V17.65
	c-0.029-0.1-0.043-0.203-0.043-0.307c-0.077-0.316,0.063-0.646,0.345-0.811l0.324-0.066c0.026-0.041,0.048-0.085,0.065-0.131
	c0.094-0.148,0.211-0.281,0.345-0.394c0.137-0.094,0.282-0.174,0.434-0.241c0.157-0.032,0.315-0.054,0.475-0.066
	c0.233,0.053,0.473,0.075,0.712,0.066c0.026-0.034,0.048-0.071,0.065-0.11c0.206-0.107,0.44-0.146,0.669-0.11v-0.24
	c0.051-0.003,0.098-0.027,0.13-0.066c0.037-0.1,0.066-0.202,0.086-0.307c0.088-0.232,0.279-0.411,0.518-0.482
	c0.495-0.117,1.006-0.146,1.511-0.085v-0.068h0.3V14.3h0.434c0.022-0.029,0.052-0.052,0.086-0.066
	c0.22,0.092,0.462,0.115,0.695,0.066c0.125,0.079,0.264,0.131,0.41,0.153v0.066c0.079,0.068,0.144,0.15,0.194,0.241
	c0.041-0.019,0.016-0.01,0.065,0c-0.019,0.019-0.034,0.042-0.043,0.066c0.072,0.041,0.075,0,0.086,0.11
	C9.895,15.124,9.901,15.313,9.93,15.5h0.216v-0.063h0.173V15.5h0.108c0.014-0.211,0.014-0.424,0-0.635h0.108V14.8h0.215v0.066
	c0.124,0.029,0.253,0.013,0.367-0.044h-0.086c-0.06-0.041-0.161-0.043-0.216-0.088h0.022c0.353-0.087,0.718-0.11,1.079-0.066
	c0.43-0.064,0.866-0.086,1.3-0.066h0.518c0.166,0.02,0.334,0.02,0.5,0c0.154-0.067,0.29,0.07,0.5,0l0.022-0.044l0.355,0.042h1.1
	v-0.083h0.281V14.6h1.058c0-0.024-0.007-0.047-0.022-0.066c-0.094-0.055-0.153,0.013-0.173-0.131l0.065-0.022
	c0.055-0.022,0.114-0.03,0.173-0.022c0.057,0.068,0.087,0.153,0.086,0.241H18.5l-0.022,0.263c0.138,0.03,0.282,0.015,0.41-0.044
	c-0.103-0.045-0.164-0.152-0.151-0.263c0.127-0.117,0.185-0.291,0.151-0.46H16.3v-0.412c-0.063-0.018-0.128-0.025-0.194-0.022
	c0-0.157,0-0.339,0-0.548H16.3c0.026-0.309,0.004-0.619-0.065-0.92c-0.034-0.034-0.082-0.05-0.13-0.044c0-0.218,0-0.364,0-0.57H16.3
	v-0.305c0.521,0.026,1.042-0.011,1.554-0.11l0.41-0.022c0.325-0.079,0.659-0.116,0.993-0.11c-0.005-0.104,0.009-0.208,0.043-0.307
	h0.065V10.4c0.018-0.011,0.032-0.026,0.043-0.044h0.022V10.4c0.03,0.107,0.037,0.219,0.021,0.329h0.086l0.043,0.263h0.086
	c0.047-0.068,0.106-0.127,0.173-0.175v-0.46c-0.081-0.049-0.022-0.142,0-0.219c0.345-0.163,0.251,0.384,0.238,0.7
	c0.083,0.013,0.138,0.092,0.194,0.088c0.14-0.037,0.285-0.052,0.429-0.046c0.022-0.028,0.052-0.051,0.086-0.066h0.024
	c0.015,0,0.1,0.059,0.129,0.066c0.359,0.033,0.722,0.026,1.08-0.022c0.194-0.006,0.389,0.001,0.582,0.022
	c0.391,0,0.601-0.043,0.929-0.044v-0.087h0.108c0.18,0.131,0.407,0.179,0.625,0.132v-0.067h-0.108
	c-0.015-0.042-0.022-0.086-0.022-0.131c0.018-0.028,0.032-0.057,0.043-0.088c0.292-0.057,0.588-0.086,0.885-0.088V9.96h0.131
	c0.032-0.052,0.047-0.113,0.043-0.175C25.262,9.692,25.27,9.596,25.256,9.5z"/>
</svg>
