<svg xmlns="http://www.w3.org/2000/svg" width="40" height="40" viewBox="0 0 40 40">
  <defs>
    <style>
      .cls-1 {
        fill: #fff;
        fill-rule: evenodd;
      }
    </style>
  </defs>
  <path id="Color_Fill_1" data-name="Color Fill 1" class="cls-1" d="M11.735,21.2l-0.05.45a1.96,1.96,0,0,1,1-.2l0.1-.45c0.466-.035.583-0.176,0.7,0.2a1.044,1.044,0,0,1,1.1-.2,0.89,0.89,0,0,1,.3-0.75c0.576,0.134.636-.317,1.248-0.3v-0.3a3.977,3.977,0,0,1-.1-0.9l0.7-.05v0.1a0.786,0.786,0,0,1,.05.6l-0.449.05v0.5h0.05c0.564-.141,1.02.277,1.448,0.15-0.154-.015-0.3.047-0.2-0.1,1.337,0.1,3.259.628,4.694,0.4v0.25c-1.775-.1-3.2.053-5.094,0.05l0.15,0.7a12.889,12.889,0,0,1-1.4,0c0.13,0.333-.125.408,0.15,0.55a10.293,10.293,0,0,1,1.8-.15q-0.025.4-.05,0.8c0.149-.051,2.741.016,2.9,0.3l-0.25.05L21.473,23v0.25l-0.3.25a55.287,55.287,0,0,0,5.743.15c0.642-.3,3.145.353,3.645,0.1l3.2,0.05c0.389,0.36,1.426-.071,2.4.1A27.606,27.606,0,0,0,40,24.15V24.9c-6.284.013-11.462-.348-18.027-0.35l0.15,0.4a41.489,41.489,0,0,1,5.793.95c0.379,0.175,1.375,1.245,1.2,1.55a0.994,0.994,0,0,1-.8.45,11.443,11.443,0,0,1-.849,1.8V29.15l-2.946,1.8L18.077,31,6.092,30.95A13.4,13.4,0,0,1,2.047,27.9c-0.216.154-.194,0.237-0.4,0.05l0.15-.2C1,27.5.761,27.488,0.949,26.65A0.426,0.426,0,0,1,.6,26.5V25.85H0.25v-0.3L0.6,25.5A1.849,1.849,0,0,1,.05,25.3L0,25.05H0.05a2.519,2.519,0,0,0,1.7-.25,17.908,17.908,0,0,1,4.644-.2,7.273,7.273,0,0,1,.4-1.85h0.25V22.5l0.35,0.05V22.5l-0.1-.1-0.2-.45c0.77-.022,1.37-0.242,2.247-0.25V21.2a1.149,1.149,0,0,0,.8.15V21.3a0.517,0.517,0,0,0-.4-0.1V20.45a1.106,1.106,0,0,1,.6.15V8l0.1,0.1V21.3A3.063,3.063,0,0,1,11.735,21.2Zm3.745-.6c-0.033.3-.039,0.245-0.25,0.35l-0.35.05,0.1,0.3c0.348-.135.258,0.049,0.549,0.2C15.417,21.191,15.587,20.91,15.481,20.6Zm-8.14,1.45,0.1,0.1A0.19,0.19,0,0,0,7.341,22.05Zm12.534,0.9L20.025,23Zm0.949,0.2-0.05.2a0.426,0.426,0,0,0,.45-0.2h-0.4ZM7.241,24.55l0.1,0.1Zm0.449,0h0Zm0.5,0-0.1.05,0.25,0.05v-0.1H8.19Zm1.1,0-0.2.05,0.1,0.1Zm-2.247.05,0.1,0.05Zm0.4,0,0.2,0.05Zm13.783,0.05-0.6.15,0.7,0.05V24.8Zm0.5,0.25h0ZM22.372,25l0.05,0.1,0.05-.1h-0.1ZM1.548,26.7L1.8,27A0.364,0.364,0,0,0,1.548,26.7ZM1,26.75v0.1C1.048,26.763,1.044,26.839,1,26.75ZM1.7,27.5l-0.1.05V27.6C1.727,27.543,1.684,27.522,1.7,27.5Zm25.069,0.9v0.15l0.25-.1V28.4h-0.25Zm-0.2.05-0.1.15a0.364,0.364,0,0,0,.15-0.15h-0.05Zm-0.3.25-0.25.25,0.35-.25h-0.1Zm-17.528.15a1.392,1.392,0,0,1-.35.25c-0.109.15-.173,0.836-0.3,1.05H9.039A5.805,5.805,0,0,1,8.739,28.85Zm3.6,0.05c-0.088.215-.128,0.223-0.4,0.25a1.7,1.7,0,0,1-.25,1h1A5.539,5.539,0,0,1,12.335,28.9Zm13.583,0.05-0.15.15C25.813,29.072,26.052,28.994,25.918,28.95Zm-7.141.2-0.2.05a1.534,1.534,0,0,1-.3.95h0.949A3.483,3.483,0,0,0,18.777,29.15Zm3.346,0.35a1.4,1.4,0,0,1-.25.65h0.6Zm-6.692.35-0.15.3h0.35V30.1l-0.1-.1Z" transform="translate(0 0.5)"/>
</svg>
