<svg xmlns="http://www.w3.org/2000/svg" width="40" height="40" viewBox="0 0 40 40">
  <defs>
    <style>
      .cls-1 {
        fill: #fff;
        fill-rule: evenodd;
      }
    </style>
  </defs>
  <path id="ussr_zis_43_ico" class="cls-1" d="M16.637,13.623c0.394,0,.821.033,1.148,0.024a1.245,1.245,0,0,0,.328,0V13.79c0.1,0.012.266,0.047,0.375,0.072,0.152,0.035.369,0,.492,0.024,0.327,0.075.685-.021,0.984,0.048,0.327,0.074.685-.02,0.984,0.048h0.469a8.817,8.817,0,0,1,1.031.072L23.925,14.1c0.621,0.14,1.37-.022,1.992.119h0.492c0.3,0.067.7,0.025,1.008,0.072h0.469a2.116,2.116,0,0,0,.562.048,0.137,0.137,0,0,1,.117-0.048,10.016,10.016,0,0,0,2.086-.024l-0.024.667H30.58a4.111,4.111,0,0,0-.89-0.119c-0.532-.124-1.135-0.041-1.711-0.167-0.183-.04-0.433.01-0.586-0.024H26.807c-0.153-.034-0.4.016-0.586-0.024-0.545-.12-1.212.024-1.757-0.1H23.878a8.657,8.657,0,0,0-1.242-.072H22.121c-0.36-.079-0.784.038-1.172-0.048-0.36-.079-0.784.037-1.172-0.048a9.546,9.546,0,0,0-1.687-.072v0.167l-1.055-.072-0.023.143h0.4a2.172,2.172,0,0,0,.516.024c0.387,0.085.853,0.017,1.148,0.072v0.167c0.076,0.02.036-.012,0.07,0.048h-0.07v0.167a0.292,0.292,0,0,1-.094-0.024,0.117,0.117,0,0,1-.023.072,2.528,2.528,0,0,0-.844-0.072c-0.484-.01-1.009-0.041-1.476-0.048q0.035,0.691.07,1.383l0.469,0.072-0.07.453H17.012a0.565,0.565,0,0,0-.281-0.048v0.048a7.985,7.985,0,0,1,.07,1.049,2.14,2.14,0,0,1,.234.191,0.372,0.372,0,0,1-.117.191,0.167,0.167,0,0,0-.094-0.048v0.048a0.455,0.455,0,0,0,.281.048,0.305,0.305,0,0,0,.164.024v0.1a11.361,11.361,0,0,0-2.671.358l-0.609-.024v0.1H14.2a0.458,0.458,0,0,1,.14.262H14.294a0.906,0.906,0,0,0-.375-0.024v0.024c0.2,0.239.236,0.819,0.422,1.073a5.063,5.063,0,0,0,.445.334H15.3a4.466,4.466,0,0,0,1.031.048c0.648,0.06,1.345.1,2.015,0.1,0-.939.115-1.746,0.117-2.718H18.7V18.01l2.742,0.119V18.081a4.024,4.024,0,0,0,.047-1h0.281a0.362,0.362,0,0,1,.047.191,0.1,0.1,0,0,0-.047.1,0.2,0.2,0,0,1,.141.191,1.5,1.5,0,0,1,0,.429l0.047,0.048c0,0.009-.081.649-0.094,0.739,0.008,0.02.066,0.076,0.07,0.1a0.258,0.258,0,0,1-.07.191,1.406,1.406,0,0,1-.023.31,0.8,0.8,0,0,1,.023.477,6.641,6.641,0,0,0-.117,1.335h0.07A0.181,0.181,0,0,1,22,21.013l0.3-3.838c0.108-.043.122-0.055,0.117-0.215a0.123,0.123,0,0,0,.023-0.072l6,0.954L28.4,18.1H28.26l-1.687-.286v0.048c0.067,0.068.1,0.17,0.164,0.238,0,0,.031-0.069.047-0.048v0.024a3.449,3.449,0,0,1,.656.906,1.233,1.233,0,0,1,.258.429c-0.03.013-.017,0-0.023,0.024,0.063,0.131.214,0.257,0.258,0.381,0.023,0.063-.017.107,0,0.167l8.178,1.049V20.965h0.141a1.015,1.015,0,0,0,.727.191A0.116,0.116,0,0,1,37,21.085a0.156,0.156,0,0,1,.094-0.024,1.979,1.979,0,0,0,.726.119v0.1c0.222-.011.348-0.093,0.633-0.1l-0.047,1.025a0.442,0.442,0,0,1,.094.1c-0.061.009-.031-0.018-0.047,0.048a0.485,0.485,0,0,1,.117.167c-0.033,0,.009-0.02-0.023-0.024-0.018-.046-0.023.048-0.023,0.048a1.537,1.537,0,0,1,.188.5c0.027,0.061.088,0.078,0.117,0.143H38.8V23.159c-0.018-.046-0.023.048-0.023,0.048,0.049,0.061.1,0.132,0.141,0.191-0.068,0-.033-0.023-0.07,0a0.543,0.543,0,0,0,.141.191c-0.033.057-.04,0.014-0.024,0.072a0.841,0.841,0,0,0,.117.191c-0.053-.009-0.025-0.022-0.07,0a1.029,1.029,0,0,1,.141.215H39.133V24.041c-0.018-.046-0.024.048-0.024,0.048,0.049,0.061.1,0.131,0.141,0.191-0.068,0-.033-0.023-0.07,0a0.991,0.991,0,0,1,.188.524,0.5,0.5,0,0,0-.117.048,0.129,0.129,0,0,0,.07.1c0.081-.041.075,0.026,0.141,0.048h0.3a0.361,0.361,0,0,1,.234.429,1.232,1.232,0,0,1-.141.215c-0.083.059-.2,0.06-0.281,0.119a1.4,1.4,0,0,1,.188.477H39.7l-0.164-.5H39.344v0.048c0.252,0.267.109,0.4,0.023,0.644a1.018,1.018,0,0,0,0,.191,1.588,1.588,0,0,0-.469.548c-0.089.14-.136,0.539-0.211,0.715a3.065,3.065,0,0,1-1.43,1.526,5.179,5.179,0,0,1-.82.286,1.565,1.565,0,0,1-.586.024h-0.4c-0.129-.031-0.3-0.048-0.445-0.1a3.068,3.068,0,0,1-1.664-1.263,2.988,2.988,0,0,1-.4-0.739,3.851,3.851,0,0,1-.141-0.81c-0.765.008-1.431-.356-2.109-0.286v0.262l-0.7.024-0.023-.167H29.924a1.072,1.072,0,0,0-.562-0.072v0.119l-0.82.024V26.567c-0.317.011-.764,0.01-1.078,0.048V26.472l-5.132-.215v0.286a9.908,9.908,0,0,0-1.078-.048v0.048a3.662,3.662,0,0,0-.07.715,1.994,1.994,0,0,1-.445.858c0.02,0.045.011,0.018,0,.072l-0.047-.024a1.071,1.071,0,0,1-.562.644,4.234,4.234,0,0,1-.773.5,12.539,12.539,0,0,1-2.062.358l-0.445.024c-0.489.113-1.078,0.1-1.57,0.214H13.99a7.046,7.046,0,0,1-1.336.024H10.006l-4.241.024a8.639,8.639,0,0,1-1.64-.024L3.656,29.9a2.923,2.923,0,0,1-1.523-1.073,2.554,2.554,0,0,1-.516-2.026V26.544a5.2,5.2,0,0,1,.258-0.691c0.085-.148.223-0.267,0.3-0.429H2.062a0.537,0.537,0,0,0-.234-0.048A2.962,2.962,0,0,1,1.875,24.3H2.062a5.6,5.6,0,0,1,1.359,0V24.112H3.351V24.041c-0.6,0-.963-0.045-1.547-0.048,0-.226-0.084-0.236-0.094-0.453A1.14,1.14,0,0,1,1.9,23.373V23.349H1.828V23.206L2.414,23.23a4.349,4.349,0,0,1,.023-0.524H2.32V22.682a1.025,1.025,0,0,0,.023-0.405l-1.5-.072V21.943c-0.19,0-.38-0.012-0.539-0.024a0.279,0.279,0,0,1-.047-0.167c0.052-.083-0.025-0.255.023-0.358s0.089,0.02.094-.215A0.209,0.209,0,0,0,.4,21.061H0.187l0.023-.31H0.187v0.024a1.661,1.661,0,0,0-.141.358H0V21.109a3.128,3.128,0,0,0,.258-1.24V19.321c0.108-.509-0.014-1.136.094-1.645V17.128c0.028-.133-0.024-0.391.023-0.548A0.531,0.531,0,0,1,.492,16.46l0.023-.31A1.721,1.721,0,0,1,.82,16.1c0,0.529-.054.92-0.07,1.383a1.766,1.766,0,0,1,.023.358,2.427,2.427,0,0,0-.023.787c0.053,0.248-.02.6,0.047,0.858A0.638,0.638,0,0,1,.89,19.7l-0.023.071H0.8v0.1a2.07,2.07,0,0,0,.562.024,2.177,2.177,0,0,0,.516.024A10.221,10.221,0,0,0,3,19.988H3.492c0.33,0.072.72-.031,1.078,0.048,0.138,0.03.371-.013,0.539,0.024a8.338,8.338,0,0,0,1.5.072,5.847,5.847,0,0,0,1.219.048,4.44,4.44,0,0,0,.445-0.262,1.039,1.039,0,0,0,.094-0.238,4.359,4.359,0,0,0,.4-0.834,0.9,0.9,0,0,1-.375-0.024,0.123,0.123,0,0,1-.023-0.072,0.442,0.442,0,0,1,.375-0.143v-0.1c-1.262.019-2.013-.587-3.257-0.62V17.8c0.471,0,.937.055,1.383,0.024a6.761,6.761,0,0,1,.469-2.05,2.791,2.791,0,0,1-.328-1.144H7.053a0.085,0.085,0,0,0,.047.024V14.529a0.531,0.531,0,0,1,.047-0.405,1.121,1.121,0,0,1,.844-0.715c0-.12.007-0.157,0.094-0.191a1.753,1.753,0,0,1,.68-0.143V13l0.562,0.024a1.228,1.228,0,0,1,.047-0.262H9.467V12.741H9.49a0.667,0.667,0,0,1,.422-0.787,2.073,2.073,0,0,1,.422-0.906,0.434,0.434,0,0,0,.258.1,0.212,0.212,0,0,1,.234-0.119,0.839,0.839,0,0,1,.351.215l0.094-.024a0.205,0.205,0,0,1,.141.262l-0.047-.024v0.024a0.608,0.608,0,0,0,.258.191,0.347,0.347,0,0,0-.07.215,3.907,3.907,0,0,0,.539.286,1.544,1.544,0,0,0,.351.262,0.731,0.731,0,0,1,.07-0.167,0.324,0.324,0,0,0,.094.024c0.007-.188.077-0.336,0.094-0.524h0.188v0.119h0.047V11.764a0.722,0.722,0,0,0,.047-0.334,0.919,0.919,0,0,0,.188-0.143h0.188A1.05,1.05,0,0,1,13.615,11a1.435,1.435,0,0,1,.445.048,1.707,1.707,0,0,0,.047-0.334c0.022-.056.086-0.105,0.117-0.167-0.084-.028-0.086-0.036-0.094-0.143a0.17,0.17,0,0,0,.14-0.191,0.24,0.24,0,0,1-.164-0.048,0.123,0.123,0,0,1-.023-0.072H14.13a1.749,1.749,0,0,0,.656.048,0.4,0.4,0,0,0,.117.143,0.257,0.257,0,0,0-.07.167,0.112,0.112,0,0,1,.07.024,0.262,0.262,0,0,1,.024.143H14.88c-0.04.036-.03-0.028-0.07,0.048a0.462,0.462,0,0,1,0,.5,0.066,0.066,0,0,1,.023.024,0.6,0.6,0,0,1,.117-0.048,0.32,0.32,0,0,0,.047.1,0.339,0.339,0,0,1,.516.024,1.442,1.442,0,0,1,.047.31,1.035,1.035,0,0,1,.07.524,2.4,2.4,0,0,0-.164.524h0.188l0.094,0.954H16l-0.07-2c-0.1-.323-0.421-0.581-0.515-0.93l0.023-.62h0.047V10h0.023v0.024l1.031,1.55Zm22.074,9.3h0.047v0.024A0.08,0.08,0,0,1,38.711,22.92Z" transform="translate(0 0.016)"/>
</svg>
