<svg xmlns="http://www.w3.org/2000/svg" width="40" height="40" viewBox="0 0 40 40">
  <defs>
    <style>
      .cls-1 {
        fill: #fff;
        fill-rule: evenodd;
      }
    </style>
  </defs>
  <path id="Color_Fill_1" data-name="Color Fill 1" class="cls-1" d="M17,16.008h0.872v0.378l0.484,0.047L18.5,16.717H18.354v0.425a1,1,0,0,0,.533.095l0.048-.472,1.792,0.142V16.764l0.823,0.095V17a0.724,0.724,0,0,0,.291-0.095l0.775,0.047V17h0.048a1.417,1.417,0,0,0,0,.331l0.581,0.189c-0.036.041-.061,0.053-0.1,0.095a1.367,1.367,0,0,1,.63.189h0.049c0.127-.126.16-0.075,0.339-0.047a0.7,0.7,0,0,0,.63.567V18.228a0.276,0.276,0,0,1,0-.283h0.048v0.047a0.612,0.612,0,0,1,.048.331H25.23a8.052,8.052,0,0,1,1.017,1.039,3.025,3.025,0,0,1,1.211.047V18.8h0.1V18.89a0.7,0.7,0,0,1,0,.52H27.6a0.815,0.815,0,0,1,.533,0l0.242,0.425a3.418,3.418,0,0,1,.872,0h2.615c2.7,0,5.587,0,8.136,0v0.756a1.634,1.634,0,0,1-.484.047,2.068,2.068,0,0,0-.775-0.047H36.707a14.264,14.264,0,0,1-2.567.047H29.1c0,0.251-.118,1.4-0.1,1.417,0.04,0.028.131,0.047,0.242,0.095-0.019.107-.045,0.051,0,0.142a1.281,1.281,0,0,0,1.259.52,5.235,5.235,0,0,0,.775.142,6.642,6.642,0,0,1,1.308.85,7.491,7.491,0,0,0,.387,1.181,1.517,1.517,0,0,0-.581.189c0.39,2.068-2.365,2.511-3.777,3.071a18.95,18.95,0,0,1-1.986.661l-1.5.047H12.107c-2.452,0-5.242.161-7.022-.473C3.7,27.987,1.818,27.8,1.162,26.591A1.844,1.844,0,0,1,.92,25.268a3.351,3.351,0,0,1,.387-0.756H0.339a0.276,0.276,0,0,0-.194,0v0.52H0.1V24.937A0.188,0.188,0,0,1,0,24.748a2.161,2.161,0,0,0,.145-0.425,2.54,2.54,0,0,0,.533-0.756,0.7,0.7,0,0,1-.194-0.661,2.563,2.563,0,0,0,.291-0.331,0.286,0.286,0,0,1-.1-0.378A2.016,2.016,0,0,0,1.017,22.1a0.335,0.335,0,0,0,.1-0.189,0.467,0.467,0,0,1-.242-0.142c0.183-.172.1-0.2,0.048-0.425H0.969V21.3a0.328,0.328,0,0,0,.242,0,5.319,5.319,0,0,0,1.017-1.512c-0.123-.069-0.055.01-0.1-0.142H2.179V19.6a0.328,0.328,0,0,0,.242,0,1.644,1.644,0,0,0,0-.9,4.847,4.847,0,0,1,.387-0.378,2.567,2.567,0,0,0,.969-0.331,2.348,2.348,0,0,1,1.211.236,1.086,1.086,0,0,1,.291-0.189c0.453,0.345,1.2-.045,1.695-0.095a0.225,0.225,0,0,0,.048.142c0.8,0.551,2.913-.324,3.923-0.567,0.023,0.171.013,0.172,0.145,0.236a3.611,3.611,0,0,1,.484-0.142,0.226,0.226,0,0,1,.048-0.142,4.759,4.759,0,0,1,.484-0.142,0.538,0.538,0,0,0,.1-0.189,2.587,2.587,0,0,1,1.307-.236V16.717h0.1c0.122,0.185.139,0.022,0.339,0.142a0.912,0.912,0,0,1,.1.189h0.1a0.68,0.68,0,0,1,.242-0.189,2.154,2.154,0,0,0-.145-0.236,2.061,2.061,0,0,0,.339-0.142V11h0.048v5.433h0.1a0.8,0.8,0,0,1,.387-0.142c0.087-.05.076,0.131,0.1,0.142H15.5l1.4-.047A0.612,0.612,0,0,0,17,16.008Zm-4.891,1.465a0.7,0.7,0,0,0-.29.189h0.048L12.3,17.52V17.472H12.107Zm-7.119,1.8a0.849,0.849,0,0,1-.291.095v0.095H4.746a0.929,0.929,0,0,0,.387-0.189H4.988ZM4.6,19.409L4.552,19.5C4.637,19.438,4.6,19.409,4.6,19.409Zm-1.017.331a0.576,0.576,0,0,1-.242.094v0.047H3.39l0.048,0.095h0.1a0.206,0.206,0,0,1,.194-0.189V19.74H3.584Zm-0.242.378-0.048.142H3.341C3.344,20.123,3.388,20.194,3.341,20.118Zm-2.131,2.41c-0.019.107-.044,0.051,0,0.142,0.063,0.117-.021.032,0.1,0.095,0.037-.124.058-0.113,0.1-0.236A0.385,0.385,0,0,1,1.211,22.528Zm-0.387.189a0.8,0.8,0,0,0-.194.567,0.9,0.9,0,0,1,.145.189H0.823c0.1-.275.32-0.47,0.387-0.661C1.094,22.808,1.061,22.737.823,22.717Zm0.242,0.142a0.169,0.169,0,0,1,.048.095H1.065V22.858Zm3.487,3.307a1.589,1.589,0,0,1-.823.945v0.047L5.424,27.63V27.488a4.3,4.3,0,0,1-.1-0.85A2.965,2.965,0,0,0,4.552,26.165Zm4.7,0.661A2.749,2.749,0,0,1,8.862,28.1H8.91a8,8,0,0,1,2.179,0V28.008a1.745,1.745,0,0,1-.339-1.37H9.879A1.082,1.082,0,0,1,9.249,26.827Zm6.15-.189H15.3a1.129,1.129,0,0,0-.194.189H14.625v0.095a1.771,1.771,0,0,1-.339,1.181h0.048a2.961,2.961,0,0,1,1.4,0V28.008A1.625,1.625,0,0,1,15.4,26.638Zm13.124,0a0.589,0.589,0,0,1-.63.189v0.095a1.623,1.623,0,0,1-.049.661h0.049a10.447,10.447,0,0,1,1.743-.614V26.921a0.733,0.733,0,0,1-.339.094,0.41,0.41,0,0,1,0-.331A2.862,2.862,0,0,0,28.523,26.638Zm-9.249.189a2.059,2.059,0,0,1-.387,1.276h0.1a2.57,2.57,0,0,1,1.259,0V28.008c-0.435-.43-0.177-0.983-0.387-1.323A0.6,0.6,0,0,1,19.274,26.827Zm4.746,0H23.777v0.095a1.772,1.772,0,0,1-.339,1.181h0.048a1.558,1.558,0,0,1,.872,0V28.008A1.537,1.537,0,0,1,24.019,26.827Z" transform="translate(0 0.016)"/>
</svg>
