<svg xmlns="http://www.w3.org/2000/svg" width="39.969" height="40" viewBox="0 0 39.969 40">
  <defs>
    <style>
      .cls-1 {
        fill: #fff;
        fill-rule: evenodd;
      }
    </style>
  </defs>
  <path id="Color_Fill_1" data-name="Color Fill 1" class="cls-1" d="M31.2,15.5l-0.047.591h0.8v0.955h0.468a0.638,0.638,0,0,1-.047.227,1.423,1.423,0,0,1,.936,1.046,0.569,0.569,0,0,1,.421,0A1.647,1.647,0,0,1,34.48,18l0.047,0.818H34.62a2.947,2.947,0,0,0,1.029.045c0.926,0,2.614-.043,2.9.5H38.5l-0.047.136c-0.133-.015-0.1-0.048-0.187,0,0.061,0.025.035,0,.047,0.046a1.742,1.742,0,0,1-.328.409v0.091a2.076,2.076,0,0,1,1.263,1.636,2.218,2.218,0,0,1-.14.955c0.146-.028.115-0.068,0.187,0.091,0.012,0.044.037,0.017,0,.045a0.319,0.319,0,0,1-.234.091v0.318A7.44,7.44,0,0,0,37.474,24.5,14.222,14.222,0,0,1,32.8,27H6.643a10.883,10.883,0,0,1-2.807-1.273C3.625,25.6,3.393,25.58,3.181,25.455a2.969,2.969,0,0,0-1.4-.636,1.221,1.221,0,0,0-.889-0.591,0.939,0.939,0,0,0-.7-0.864,8.708,8.708,0,0,1-.14-1.409,0.318,0.318,0,0,0,.281-0.182,0.632,0.632,0,0,0,0-.454A0.669,0.669,0,0,0,.8,20.773c-0.192-.009-0.214,0-0.281-0.136H0.936a0.243,0.243,0,0,1,0-.182,0.56,0.56,0,0,0,.608-0.364A0.162,0.162,0,0,1,1.5,20a2.151,2.151,0,0,1-1.029-.591c0.11-.075.21-0.916,0.327-1.091,0.608-.9,1.533-0.735,2.807-0.727,0.047-.167.031-0.16,0.234-0.182,0,0,.02.181,0.047,0.091V17.455a0.3,0.3,0,0,0,.047-0.182H7.673c0.517,0,1.221-.051,1.591,0V17.227a0.278,0.278,0,0,1-.14-0.318,0.163,0.163,0,0,0,.047-0.091h0.7a0.322,0.322,0,0,0,.187.045,0.947,0.947,0,0,0,.093.318,0.176,0.176,0,0,1,.187-0.136,1.706,1.706,0,0,0,1.029.227c0.013-.481.695-0.342,1.17-0.318a2.014,2.014,0,0,1,1.123-.182,0.955,0.955,0,0,0,.515.091,0.683,0.683,0,0,0,.094-0.136,0.509,0.509,0,0,1,.421.227h0.7c0.527,0,.949,0,1.544,0V16.909h0.047a1.345,1.345,0,0,1,0-.318c0.056-.035.225-0.054,0.281-0.091-0.26-.2-0.135-0.373-0.655-0.364V15.955H15.673l-0.047-.091h0.047V15.818a7.051,7.051,0,0,0,1.357,0,0.517,0.517,0,0,1,.234-0.545,0.658,0.658,0,0,1,.281-0.045,0.7,0.7,0,0,0,.093-0.318h0.14V13.455h0.281V13.364a0.525,0.525,0,0,1-.094-0.227,2.772,2.772,0,0,1,.749-0.046,1.109,1.109,0,0,0,.515.318,1.335,1.335,0,0,1,.936-0.136c0.883,0,1.708.077,2.48,0.091,0.17-.369.456-0.294,0.982-0.273a0.415,0.415,0,0,0,.468.318,1.142,1.142,0,0,1,1.17-.318,7.182,7.182,0,0,0,.749.364h1.123a12.726,12.726,0,0,1,2.386.136c0.34,0.075.6-.284,0.842-0.182a3.241,3.241,0,0,1,.561.864l0.14,0.409h1.684c0.389,0.232,1.533-.08,2.059.045a28.582,28.582,0,0,0,5.146.136,1.816,1.816,0,0,1,.047.546,16.835,16.835,0,0,1-3.228.045,4.5,4.5,0,0,1-1.544.046H31.2ZM16.749,16a0.14,0.14,0,0,0,.187,0H16.749Zm0.7,0.5a0.171,0.171,0,0,0,.094.046A0.17,0.17,0,0,0,17.45,16.5ZM3.7,17.455v0.091H3.789V17.455H3.7Zm33.544,6.5c-0.036.046-.258,0.239-0.14,0.273,0.035,0.055.047-.046,0.047-0.046C37.264,24.067,37.371,24.082,37.24,23.955Zm-2.246.864a1.312,1.312,0,0,1,.468.136,1.382,1.382,0,0,0,.561-0.591,0.162,0.162,0,0,1-.047-0.091H35.93a3.528,3.528,0,0,1-1.45.091v0.091a1.03,1.03,0,0,1,.094.318,2.169,2.169,0,0,1,.421.273V24.818Zm-30.83-.455a1.279,1.279,0,0,0-.047.409H4.211L4.444,24.5A0.553,0.553,0,0,0,4.164,24.364Zm0.842,0.727,0.14-.727H4.819v0.091c0.04,0.1-.1.434-0.047,0.546A0.321,0.321,0,0,0,5.006,25.091Zm0.749-.727a0.337,0.337,0,0,0-.047.227,0.443,0.443,0,0,0,.327.091A0.321,0.321,0,0,0,6.129,24.5H6.175V24.455H6.129l-0.047-.091H5.754Zm4.491,0c-0.059.1-.137,0.152-0.094,0.227a0.443,0.443,0,0,0,.328.091,0.305,0.305,0,0,0,.14-0.273H10.526A0.519,0.519,0,0,0,10.246,24.364Zm3.836,0a1.578,1.578,0,0,1-.749,1.773,0.8,0.8,0,0,0,.094.182,2.624,2.624,0,0,0,.982.045,1.709,1.709,0,0,1,.094-0.318A0.753,0.753,0,0,1,14.737,26c-0.036-.319-0.238-0.625-0.281-0.954l0.14-.682H14.082Zm1.123,0a0.422,0.422,0,0,1-.14.182v0.045h0.047a0.992,0.992,0,0,0,.374.136,0.826,0.826,0,0,1,.14-0.273,0.28,0.28,0,0,1-.094-0.091H15.2Zm3.7,0a1.691,1.691,0,0,1-.281,1.318,2.464,2.464,0,0,0,.234.636,0.52,0.52,0,0,0,.281.045,0.679,0.679,0,0,1,.421-0.636c0.111,0.279.084,0.634,0.515,0.636V26.273a1.411,1.411,0,0,0-.14-1.182l0.14-.727H18.9Zm1.918,0H20.632a0.337,0.337,0,0,0-.047.227,0.926,0.926,0,0,0,.187.091V24.591A0.383,0.383,0,0,0,20.819,24.364Zm3.275,0a1.734,1.734,0,0,1-.7,1.773,0.525,0.525,0,0,1,.094.227h0.281a2.659,2.659,0,0,1,.14-0.591,0.714,0.714,0,0,1,.187-0.091,1.644,1.644,0,0,1,.328.682h1.123a2.713,2.713,0,0,1,.14-0.409,2.417,2.417,0,0,0-.234-0.818l0.094-.773h-1.45Zm5.1,2,0.187-.636a0.753,0.753,0,0,1,.234-0.046,1.689,1.689,0,0,1,.328.682h0.187a1.6,1.6,0,0,1,.281-0.727l0.14,0.045a2.672,2.672,0,0,1,.281.682h0.234l0.094-.5c-0.049-.167-0.226-0.446-0.281-0.682a2.6,2.6,0,0,1,.094-0.818,10.092,10.092,0,0,0-1.731.045,1.613,1.613,0,0,1-.936,1.909v0.045h0.889ZM3.135,24.773l-0.047.182H3.181V25H3.228V24.955l0.14-.091a0.171,0.171,0,0,0-.094-0.045A0.243,0.243,0,0,0,3.135,24.773ZM3.743,25L3.7,25.273H3.789a0.243,0.243,0,0,0,.14.046,0.817,0.817,0,0,0,.14-0.227A1.836,1.836,0,0,1,3.743,25Zm5.193,0.046a0.754,0.754,0,0,0-.094.273,1.051,1.051,0,0,0,.281.182V25.455a0.777,0.777,0,0,0,.187-0.318A2.541,2.541,0,0,1,8.936,25.046Zm4.257,0a0.755,0.755,0,0,0-.094.273,1.051,1.051,0,0,0,.281.182,1.308,1.308,0,0,0,.187-0.364C13.389,25.113,13.37,25.073,13.193,25.046Zm4.819,0a1.747,1.747,0,0,0-.047.364c0.123,0.035.112,0.055,0.234,0.091V25.455a1.211,1.211,0,0,0,.187-0.318A2.538,2.538,0,0,1,18.012,25.046Zm5.427,0.091-0.047.318h0.047V25.364a0.844,0.844,0,0,0,.14-0.227h-0.14Zm11.041,0a0.748,0.748,0,0,1-.047.273c0.123,0.035.112,0.055,0.234,0.091V25.455C34.591,25.36,34.563,25.222,34.48,25.136Zm-30.035.136L4.4,25.636H4.491a0.243,0.243,0,0,0,.14.045,1.015,1.015,0,0,0,.187-0.273A0.986,0.986,0,0,1,4.444,25.273Zm5.942,0c-0.074.055-.208,0.079-0.281,0.136l0.234,0.364h0.047V25.727a0.374,0.374,0,0,0,.234-0.273A0.5,0.5,0,0,0,10.386,25.273Zm4.725,0.091a0.986,0.986,0,0,0,.187.409h0.047V25.727a0.6,0.6,0,0,0,.281-0.227,0.556,0.556,0,0,0-.281-0.227A0.32,0.32,0,0,1,15.111,25.364Zm5.708-.091a1.483,1.483,0,0,1-.281.136,0.62,0.62,0,0,0,.281.364,0.564,0.564,0,0,1,.187-0.182ZM5.8,25.318c-0.036.031-.1,0.06-0.14,0.091H5.708a0.243,0.243,0,0,0,.14.045,0.282,0.282,0,0,1,.094-0.091V25.318H5.8Zm6.5,0.227v0.091h0.047A0.154,0.154,0,0,0,12.3,25.546Zm4.772,0v0.182H17.17v0.045c0.047,0.045.046-.045,0.047-0.045a0.322,0.322,0,0,0,.093-0.182H17.076Zm5.287,0,0.281,0.227V25.591A0.878,0.878,0,0,0,22.363,25.546Zm3.789,0.045a0.423,0.423,0,0,0,.14.182A0.421,0.421,0,0,0,26.152,25.591Zm-21.006.091a0.314,0.314,0,0,0-.047.273,0.83,0.83,0,0,0,.374.182V26.091A4.869,4.869,0,0,1,5.146,25.682ZM6.69,25.818a0.956,0.956,0,0,0,.281.136A0.258,0.258,0,0,0,6.69,25.818Zm1.637,0v0.091H8.421V25.864Zm2.807,0a0.209,0.209,0,0,0,0,.227A0.294,0.294,0,0,0,11.135,25.818Zm-1.4.045,0.094,0.5H10.2V26.318A1.621,1.621,0,0,1,9.731,25.864Zm-0.421.091a4.967,4.967,0,0,1-.421.318,0.163,0.163,0,0,1,.047.091H9.216V26.318H9.263A0.7,0.7,0,0,0,9.31,25.955Zm6.737,0.227a0.623,0.623,0,0,0,.328-0.045,1.276,1.276,0,0,1-.328-0.182v0.227Zm2.2-.136a2.209,2.209,0,0,1-.515.318H18.2l0.047-.136A0.13,0.13,0,0,0,18.246,26.046Zm3.228,0.045v0.091C21.549,26.128,21.531,26.163,21.474,26.091Zm-13.754.5A0.273,0.273,0,0,0,8,26.682V26.636Z" transform="translate(-0.031 -0.016)"/>
</svg>
