<svg xmlns="http://www.w3.org/2000/svg" width="80" height="40" viewBox="0 0 80 40">
  <defs>
    <style>
      .cls-1 {
        fill: #fff;
        fill-rule: evenodd;
      }
    </style>
  </defs>
  <path id="ussr_mbk_161_1943_ico" class="cls-1" d="M38.375,11h0.206v2.886h0.164a0.5,0.5,0,0,1,.041-0.16h0.041v0.16a0.2,0.2,0,0,1,.123.04h-0.37v0.441c0.108,0.015.054-.03,0.082,0.08a1.115,1.115,0,0,1,0,.241,1.38,1.38,0,0,0-.082.842v2.686a1.469,1.469,0,0,1,.452.08H38.7v0.842a0.351,0.351,0,0,1,.206.04H38.7V20.02h1.275a2.887,2.887,0,0,0,.041-0.8,0.655,0.655,0,0,1-.329-0.04h0.329a2.445,2.445,0,0,0-.041-0.521c0.253-.015.259-0.1,0.247-0.361-0.029-.062-0.005-0.005,0-0.12-0.5.011-.4-0.392-0.37-0.842a2.941,2.941,0,0,1,.782-0.04c0,0.7-.04,1.129-0.041,1.924h0.041a1.348,1.348,0,0,1,.617-0.04,0.521,0.521,0,0,1,.164-0.281,0.856,0.856,0,0,1-.041-0.481H41.46a0.455,0.455,0,0,1,.247-0.04,1,1,0,0,1,.165.16c-0.047.1,0.057,0.069,0.041,0.16a0.824,0.824,0,0,0-.123.441h0.164a0.477,0.477,0,0,1,.494-0.4V18.216h0.041V18.3a0.726,0.726,0,0,1,.041.361h0.247c0.034,0.13-.02.061,0.082,0.12v-0.04c0.035-.076.02-0.03,0-0.12a0.706,0.706,0,0,1,.658.16h0.576V18.7c-0.1-.052-0.028.017-0.082-0.08a1.954,1.954,0,0,1,.329,0,0.287,0.287,0,0,1,.082-0.321c0.05,0.066.074-.015,0.082,0.2a0.217,0.217,0,0,0,0,.16c-0.1.015-.065-0.023-0.082,0.12a5.845,5.845,0,0,0,1.357,0V18.9H45.738a5.436,5.436,0,0,0-1.316.08v0.2c0.639,0.071,1.166.424,1.81,0.521,0-.563,0-0.826,0-1.483h0.082a11.173,11.173,0,0,0,0,1.523h0.041v0.04h0.123v0.681a0.35,0.35,0,0,1,.453.12,0.671,0.671,0,0,0,.041.321,0.345,0.345,0,0,0-.164.12,0.535,0.535,0,0,0,.206.321,0.458,0.458,0,0,1,.411-0.321c0.016,0.1-.031.052,0.082,0.08,0.1-.208.282-0.084,0.453-0.04v-0.12h0.082c0.271-.171.348,0.041,0.453,0.12a6.1,6.1,0,0,0,.658,0v-0.08a0.142,0.142,0,0,1-.082-0.04,2.911,2.911,0,0,1,.452-0.04,0.608,0.608,0,0,1,.041-0.321v0.361l-0.288.08v0.04h0.864a0.213,0.213,0,0,0,.123.04V20.9h0.082v0.12c-0.01.039-.032,0.015,0,0.04a0.727,0.727,0,0,1,.329.12H50.139v0.08c-0.284.12-.938-0.058-1.234,0.04a5.591,5.591,0,0,1,0,1.363h0.165c0.037,0.1.044,0.064,0.082,0.16a1.257,1.257,0,0,0-.041,1.042h0.864V22.345h0.082v1.523h1.152l-0.041-.241H50.55a0.136,0.136,0,0,0-.041-0.08c0.108-.456.327-0.751,0.452-1.243a3.915,3.915,0,0,0,.494-0.281,0.839,0.839,0,0,1,.74.241c0.229-.025.573,0,0.9,0a0.616,0.616,0,0,0,.041-0.2,3.225,3.225,0,0,0,.411.08c0,0.121-.013.117,0.206,0.12a0.115,0.115,0,0,1,.041-0.04c-0.005-.248.021-0.4,0.247-0.441a2.39,2.39,0,0,0,.164.441,1.475,1.475,0,0,0,.658.12c0.082,0.022.227,0.139,0.288,0.16h0.864c0.115,0.05-.032.086,0.206,0.12a0.713,0.713,0,0,1,.041-0.361v0.361l2.961,0.04a0.8,0.8,0,0,1,.165-0.321v0.321c0.238,0,.324.01,0.494,0v0.281l-0.494-.04v0.281l0.535-.12v0.561H60.01a10.675,10.675,0,0,1,2.344-.561V22.145a0.2,0.2,0,0,1,.123.04,2.254,2.254,0,0,0-.041.882h0.041a4.074,4.074,0,0,1,1.193-.281v0.08a0.94,0.94,0,0,0-.206.361h0.206a0.149,0.149,0,0,1,.082-0.04,0.286,0.286,0,0,0,.082.321V23.187a6.67,6.67,0,0,0,1.275-.08c-0.005.161-.022,0.219,0.082,0.281V23.107h0.164V21.984H65.44v1.122a1.859,1.859,0,0,0,1.193-.241,1.882,1.882,0,0,0-.041-0.281,1.726,1.726,0,0,1,.082-0.361,2.159,2.159,0,0,0-.082-0.762,0.869,0.869,0,0,0,.493-0.4,0.187,0.187,0,0,1-.082-0.2,0.5,0.5,0,0,1,.37-0.16c0.2,0.336.052,0.266,0,.6a0.782,0.782,0,0,0,.535.2,0.927,0.927,0,0,1,.206-0.281v0.04a0.177,0.177,0,0,1,.123.12,0.265,0.265,0,0,1,.041.16,0.337,0.337,0,0,1-.247.16,2.433,2.433,0,0,0,.288,1.042,0.766,0.766,0,0,1,.37.04,0.653,0.653,0,0,0-.329.04,0.974,0.974,0,0,0,.494.08v-0.08s-0.161-.008-0.082-0.04h0.082a0.6,0.6,0,0,1,.576-0.12,0.542,0.542,0,0,1,.329-0.12,0.6,0.6,0,0,1,.082.16,0.2,0.2,0,0,1,.041.12,1.156,1.156,0,0,0,.37-0.04v-0.04a0.545,0.545,0,0,1-.288-0.04,8.524,8.524,0,0,0,.946-0.12,0.538,0.538,0,0,1,.082-0.561,0.214,0.214,0,0,1,.123-0.04V21.7a0.27,0.27,0,0,1-.165-0.04,5.439,5.439,0,0,1,.9-0.04v0.04H71.815V21.7c-0.148-.047-0.461-0.051-0.617-0.08a2.806,2.806,0,0,1,0,.361h0.165a0.114,0.114,0,0,0,.041.04c0.019,0.2.017,0.311,0.041,0.521a0.755,0.755,0,0,1,.37.08h-0.37c0.034,0.13-.02.061,0.082,0.12a0.782,0.782,0,0,1,.37-0.04v0.16h0.082v-0.16a10.848,10.848,0,0,1,1.275-.08v0.361h0.082a0.346,0.346,0,0,1,.082-0.361,4.631,4.631,0,0,1,1.234-.08,2.834,2.834,0,0,1,.041-1.082v1.082h0.041a10.453,10.453,0,0,1,1.316-.12v0.481h0.288v0.16l0.247,0.04a7.562,7.562,0,0,1,.082-1.8H76.71v1.644c0.121,0.041.01,0.054-.041,0.16h0.494v-0.12h0.123l0.082-.481a0.6,0.6,0,0,0-.206.04V22.305a0.2,0.2,0,0,1-.041-0.12h0.041a0.364,0.364,0,0,0,.206.04,0.851,0.851,0,0,0-.082-0.281h0.452V21.9h0.041v0.08a0.339,0.339,0,0,0-.041.2h0.617a0.789,0.789,0,0,0-.041-0.281l0.453-.04V21.9a0.3,0.3,0,0,0,0,.241,0.6,0.6,0,0,0,.206-0.04v0.16H79.1c0.008-1.88-.234-3.66-0.247-5.572H78.89a0.405,0.405,0,0,0,.206.12,0.2,0.2,0,0,1,.041.12H78.972c-0.028,1.749.326,3.519,0.329,5.292a0.591,0.591,0,0,0,.165.04,0.214,0.214,0,0,1,.123-0.04v0.722H80a5.476,5.476,0,0,1-.74,2.2c-0.421.971-.777,2.515-1.686,2.967a13.651,13.651,0,0,1-2.838.441H74.159c-0.408.087-.983,0.031-1.4,0.12H71.938c-0.551.117-1.206-.048-1.81,0.08a22.461,22.461,0,0,1-3.7.12H63.383a21.415,21.415,0,0,1-3.5.04H58.9a7.475,7.475,0,0,1-1.316.04H27.352a13.018,13.018,0,0,1-2.386-.04l-7.321-.08c-0.321-.069-0.821.04-1.193-0.04-0.912-.2-1.931,0-2.838-0.2-1.311-.286-2.714-0.357-3.949-0.641A4.483,4.483,0,0,0,8.185,28l-1.069-.04H5.388a0.549,0.549,0,0,1-.329.08,1.545,1.545,0,0,1-.288.6H4.73V28.118A0.2,0.2,0,0,1,4.689,28l-0.206-.04-0.041-.12a0.419,0.419,0,0,0,.247-0.16A5.672,5.672,0,0,0,4.812,27H4.607a1.81,1.81,0,0,0-.74-0.16,9.1,9.1,0,0,1-.041,1.644l-0.123.04a6.97,6.97,0,0,1-1.933,0v-0.08A4.34,4.34,0,0,1,1.563,26.8a1.3,1.3,0,0,1,.247-0.16,1.621,1.621,0,0,0,.782-0.08H2.386a1.778,1.778,0,0,0-.781-0.16c-0.328-.548-0.732-1.077-1.111-1.6A1.4,1.4,0,0,1,0,23.869H0.165V22.305H0.247v0.842c0.1,0.052.028-.017,0.082,0.08l-0.082-.04v0.04a0.427,0.427,0,0,1,0,.2c0.118,0.019.091,0.206,0.082,0.441H0.411a9.135,9.135,0,0,0-.082-2.606c-0.087-.393.061-0.771,0-1.082a15.841,15.841,0,0,1-.165-2.365,1.033,1.033,0,0,1,.247.12,0.2,0.2,0,0,1,.041.12H0.288c0,1.206.2,2.272,0.206,3.568,0.148,0.008.085-.059,0.123,0.08A5.459,5.459,0,0,0,.74,23.829v0.04H1.152a5.854,5.854,0,0,1,.041-1.6H1.234v0.962a4.858,4.858,0,0,1,0,.641H1.769a8.469,8.469,0,0,0,.041-0.922H3.455A3.451,3.451,0,0,1,3.5,22.265H3.537v0.681H3.825a7.408,7.408,0,0,0,.041.922h2.18c0-.58,0-0.954,0-1.564a1.24,1.24,0,0,1-.658,0,1.565,1.565,0,0,1,.946.04H6.129v0.842a0.27,0.27,0,0,1,.165.04H6.129v0.641H6.7l0.041-.241a2.352,2.352,0,0,0,.658-0.04,0.869,0.869,0,0,1-.082-0.4l0.206,0.04v-0.16H7.65v0.16H7.774a5.184,5.184,0,0,0,.288-0.481H7.815v-0.08c0.133-.033.063,0.02,0.123-0.08,0.027-.2-0.4-0.134-0.781-0.12-0.253-.152-0.541.03-0.74-0.12a0.822,0.822,0,0,0,.494-0.16H6.54a2.65,2.65,0,0,0-.946-0.04c-0.841,0-1.729.026-2.509,0.04V21.944H3.167a4.482,4.482,0,0,0,1.4.04c1.229,0,2.294-.073,3.455-0.08A2.023,2.023,0,0,0,7.9,21.664a0.326,0.326,0,0,1,.082-0.24A2.835,2.835,0,0,0,7.9,21.143a0.739,0.739,0,0,0,.37-0.6,0.248,0.248,0,0,1-.082-0.08H8.473a1.083,1.083,0,0,0,.288.8,0.664,0.664,0,0,1,.206-0.04c0.084,0.066-.029.047,0.082,0.08a2.419,2.419,0,0,0,.864-0.441,7.1,7.1,0,0,1,.37.922c0.241-.021.241-0.1,0.494-0.12,0.016,0.1-.024.063,0.123,0.08a0.365,0.365,0,0,0,.206.04c0.015,0.607.04,1.141,0.041,1.844H11.6v0.241h0.082V22.706h0.987V22.265H12.71v0.08a0.726,0.726,0,0,1,.041.361h0.494v0.08a2.555,2.555,0,0,1,.041,1.082h0.7v-0.2H13.738V23.187a2.976,2.976,0,0,0,.864-0.12v0.722H14.56a0.15,0.15,0,0,0-.082-0.04v0.12h1.275V22.345h0.082v1.4a0.545,0.545,0,0,1,.288.04c-0.166-.005-0.225-0.022-0.288.08h0.576c-0.034-.13.02-0.061-0.082-0.12v0.04H16.288V23.067a2.214,2.214,0,0,1,.329.08v-0.08a1.139,1.139,0,0,0,.082-0.321H16.617a0.235,0.235,0,0,0-.165,0,0.414,0.414,0,0,1-.041.241,0.928,0.928,0,0,0-.041-0.321,0.318,0.318,0,0,0,.247-0.321c-0.181-.115.205-0.472,0.288-0.6H16.74a0.5,0.5,0,0,1,.041-0.16H16.123a7.515,7.515,0,0,0-1.769-.04v-0.16l2.509-.04v-0.2a4.122,4.122,0,0,1,1.069-.04,0.418,0.418,0,0,0,.082-0.2,0.47,0.47,0,0,1-.082-0.361,0.987,0.987,0,0,1,.452-0.12,0.149,0.149,0,0,0,.082.04,0.453,0.453,0,0,0,.123.241,0.314,0.314,0,0,1-.165.16l0.041,0.12a3.328,3.328,0,0,0,.452.2V21.3h0.329v0.321H18.8c0,0.112.057,0.116-.123,0.16a1.026,1.026,0,0,0,.288.561v1.523h0.576v-0.2H19.291V23.187a4.092,4.092,0,0,0,.864-0.12v0.722H20.113a0.15,0.15,0,0,0-.082-0.04v0.12h1.974V22.907c-0.309,0-.607.021-0.864,0.04V22.666c0.239,0.007.528,0,.864,0v-0.4h0.041v0.08a0.621,0.621,0,0,1,.041.321l2.879-.04a0.811,0.811,0,0,1,.206-0.281v0.16a6.213,6.213,0,0,0,1.686-.241l0.123-.441a0.283,0.283,0,0,1,.165-0.04,1.121,1.121,0,0,0,.165.441,0.283,0.283,0,0,0,.165.04c0.052-.116-0.047-0.082.123-0.12a1.035,1.035,0,0,0,.288-0.08v0.08a0.2,0.2,0,0,1,.041.12c0.209,0,.882.02,0.946,0a0.834,0.834,0,0,1,.7-0.241,4.229,4.229,0,0,0,.535.281c0.067,0.549.357,0.712,0.411,1.283a2.431,2.431,0,0,1-.658.04v0.241H31.3a8.871,8.871,0,0,1,.041-1.6h0.041v1.6h0.494l0.041-.2a0.966,0.966,0,0,0,.617-0.682c0.232-.347.839-0.478,1.111-0.882h0.041v0.04c0.031,0.091.009,0.061-.041,0.16,0.3,0.078.491,0.306,0.781,0.4a0.346,0.346,0,0,1,.082-0.361,1.267,1.267,0,0,0,.37.842H34.92v-0.04a0.826,0.826,0,0,0,.123-0.4h0.329a1.569,1.569,0,0,0,.288.922v-0.08a1.5,1.5,0,0,0,.123-0.962V20.541A1.77,1.77,0,0,1,35.5,20.02H35.62c-0.024-.464,0-1.213,0-1.8,0.133,0.033.063-.02,0.123,0.08-0.082,0-.012-0.041-0.082,0a6.263,6.263,0,0,1,.041.8h0.082l-0.041.08c-0.027.142,0,.677,0,0.842,0.408,0,.844-0.015,1.193-0.04,0.011-.715-0.035-2.181.041-2.566a0.965,0.965,0,0,1,.082-0.561v-0.04h0.123c0.034-.13-0.02-0.061.082-0.12,0.066,0.134.18,0.147,0.247,0.281,0.106,0.184-.062.218-0.082,0.361-0.062.447,0.068,1.841,0.082,2.646h0.082s0.5,0.035.782,0.04V19.258H38.17v-0.08h0.206V18.3H38.17v-0.08c0.1-.052.028,0.017,0.082-0.08a0.248,0.248,0,0,1-.082-0.08,0.658,0.658,0,0,1,.206-0.04V14.408a0.2,0.2,0,0,1-.123-0.04,1.835,1.835,0,0,1-.493-0.4c-0.366-.269-0.7-0.533-1.07-0.8a1.623,1.623,0,0,0-.452-0.361c-0.048.076,0,.048-0.082,0.04-0.1-.052-0.028.017-0.082-0.08a0.313,0.313,0,0,0,.164-0.16c0.554,0.436,1.07.9,1.645,1.323a1.892,1.892,0,0,0,.494.4V12.082A6.074,6.074,0,0,1,38.375,11Zm0.37,2.566a0.156,0.156,0,0,1,.123.08,0.114,0.114,0,0,1,.041.04C38.7,13.688,38.693,13.73,38.746,13.566Zm1.933,4.61a0.656,0.656,0,0,1,.411.12H40.843A0.351,0.351,0,0,1,40.679,18.176Zm-2.632.04,0.082,0.04a0.5,0.5,0,0,1-.165.04v-0.04A0.142,0.142,0,0,0,38.046,18.216Zm3.126,0,0.123,0.04V18.3C41.149,18.278,41.181,18.322,41.172,18.216Zm-2.056.08a2.668,2.668,0,0,1,.987.04A2.668,2.668,0,0,1,39.116,18.3ZM45.2,18.577a0.2,0.2,0,0,1,.041.12H45.2v-0.12Zm-6.211.6a1.131,1.131,0,0,1,.494.04A1.131,1.131,0,0,1,38.992,19.178Zm-1.069.04a0.351,0.351,0,0,1,.206.04A0.352,0.352,0,0,1,37.923,19.218Zm-0.247.04a0.265,0.265,0,0,1,.041.16H37.635v-0.04A0.2,0.2,0,0,0,37.676,19.258Zm-0.041.24c0.1,0.058.046-.009,0.082,0.12a0.425,0.425,0,0,0-.041.241H37.594v-0.2A0.265,0.265,0,0,0,37.635,19.5ZM79.26,20.421a0.208,0.208,0,0,1,0,.241V20.421Zm0.041,0.6a0.2,0.2,0,0,1,.041.12H79.3v-0.12Zm-28.545.04h0.082v0.16H50.756A0.215,0.215,0,0,0,50.756,21.062ZM70.746,21.7a0.27,0.27,0,0,1,.164.04A0.272,0.272,0,0,1,70.746,21.7Zm-0.206.04a0.271,0.271,0,0,1,.165.04A0.272,0.272,0,0,1,70.54,21.744Zm-0.206.04a0.351,0.351,0,0,1,.206.04A0.352,0.352,0,0,1,70.334,21.784Zm-2.262.04a0.544,0.544,0,0,1,.288.04A0.545,0.545,0,0,1,68.072,21.824Zm1.933,0a0.545,0.545,0,0,1,.288.04A0.546,0.546,0,0,1,70.005,21.824Zm-1.6.04a0.545,0.545,0,0,1,.288.04A0.544,0.544,0,0,1,68.4,21.864Zm1.234,0a0.545,0.545,0,0,1,.288.04A0.544,0.544,0,0,1,69.635,21.864Zm-0.864.04a1.639,1.639,0,0,1,.658.04A1.637,1.637,0,0,1,68.771,21.9Zm-68.154.2a0.158,0.158,0,0,1,0,.2V22.1Zm5.141,1.082H5.964v0.08H5.635v0.04c-0.042.04-.041-0.04-0.041-0.04H5.553v-0.04A0.352,0.352,0,0,0,5.758,23.187Zm0.576,0.04a0.652,0.652,0,0,1,.329.04A0.655,0.655,0,0,1,6.334,23.227Zm0.37,0.04a1.007,1.007,0,0,1,.452.04A1.007,1.007,0,0,1,6.7,23.267Zm-1.069.481a0.654,0.654,0,0,1,.329.04A0.654,0.654,0,0,1,5.635,23.748Z"/>
</svg>
