<?xml version="1.0" encoding="utf-8"?>
<!-- Generator: Adobe Illustrator 16.0.0, SVG Export Plug-In . SVG Version: 6.00 Build 0)  -->
<!DOCTYPE svg PUBLIC "-//W3C//DTD SVG 1.1//EN" "http://www.w3.org/Graphics/SVG/1.1/DTD/svg11.dtd">
<svg version="1.1" id="Layer_1" xmlns="http://www.w3.org/2000/svg" xmlns:xlink="http://www.w3.org/1999/xlink" x="0px" y="0px"
	 width="40px" height="40px" viewBox="0 0 40 40" enable-background="new 0 0 40 40" xml:space="preserve">
<path id="ussr_bm_8_24_ico" fill="#FFFFFF" d="M8.959,6.5v0.153H8.731L8.706,6.729C8.69,6.751,8.681,6.778,8.681,6.805
	C8.869,6.958,9.01,7.16,9.087,7.39l0.228-0.025V7.186h0.3l-0.025-0.2h18.659c0,0.192,0.2,0.538,0.178,0.661
	c-0.048,0.141-0.106,0.277-0.178,0.407c-0.024,0.056,0.021,0.132,0,0.153h-1.472v0.127c-0.011,0.006-0.02,0.015-0.025,0.025
	c-0.187-0.013-0.373-0.004-0.559,0.025c-0.16,0.078-0.314,0.172-0.457,0.28c-0.377,0.231-0.775,0.412-1.142,0.636
	c-0.706,0.432-1.462,0.77-2.157,1.195c-0.183,0.112-0.383,0.158-0.558,0.28c-0.028,0.041-0.054,0.083-0.075,0.127
	c-0.318,0.215-0.649,0.41-0.99,0.585v1.144h0.076c0.029-0.17,0.09-0.333,0.178-0.483c0.501-0.106,1.018-0.115,1.522-0.025v0.047
	c-0.213-0.005-0.262,0.065-0.254,0.28c0.034,0.025,0.062,0.06,0.076,0.1h-0.256c-0.149,0.039-0.305,0.048-0.457,0.025v0.051h2.233
	l-0.025,0.153H23.6v0.915H23.9v0.076h-0.957v0.381h0.762v0.178h0.076v0.864h0.254c0.016-0.102,0.083-0.188,0.178-0.229
	c0.068-0.008,0.136-0.025,0.2-0.051c0.03-0.037,0.063-0.07,0.101-0.1c0.214-0.025,0.432,0.001,0.633,0.076H27
	c0.1-0.284,1.257-0.186,1.675-0.178c0.046,0.049,0.114,0.069,0.179,0.051c-0.007,0.091,0.02,0.182,0.076,0.254
	c-0.058,0.04-0.088,0.109-0.076,0.178h0.633c0.051-0.043,0.113-0.07,0.179-0.076c0.084,0.214,0.151,0.436,0.2,0.661l0.787,0.1
	L30.5,16.642h0.82c0.346-0.036,0.694-0.036,1.041,0h1.5c0.449,0.124,0.907,0.217,1.369,0.28v0.026
	c-0.139,0.002-0.275,0.028-0.405,0.076v0.025H35.3c0.226,0.045,0.456,0.063,0.685,0.051c0.266,0.058,0.591-0.018,0.889,0.051
	c0.246,0.057,0.511,0.093,0.761,0.178c0.354,0.161,0.688,0.365,0.99,0.61c0.116,0.072,0.245,0.1,0.354,0.178
	c0.236,0.228,0.502,0.424,0.787,0.585c0.051-0.095,0.134-0.167,0.234-0.202v0.152l-0.355,0.381
	c-0.268,0.186-0.594,0.318-0.862,0.482c-0.245,0.078-0.47,0.208-0.66,0.381c0.03,0.058,0.056,0.117,0.076,0.179
	c0.075,0.028,0.138,0.082,0.178,0.151c-0.11,0.216-0.11,0.471,0,0.687c-0.005,0.06-0.014,0.119-0.024,0.178
	c0.016,0.05,0.155,0.081,0.127,0.179c-0.019,0.06-0.174,0.086-0.201,0.151l-0.075,0.483c-0.009,0.027-0.071,0.104-0.076,0.127
	c-0.024,0.1,0.056,0.162,0.024,0.229c-0.069,0.041-0.146,0.067-0.228,0.076c-0.1,0.2-0.313,0.379-0.405,0.559
	c-0.014,0.068-0.031,0.135-0.052,0.2c-0.056-0.024-0.117-0.032-0.178-0.024c-0.122,0.149-0.268,0.278-0.431,0.381
	c-0.365,0.275-0.67,0.635-1.041,0.915c-0.139,0.1-0.243,0.276-0.381,0.381c-0.679,0.514-1.252,1.14-1.93,1.653
	c-0.117,0.089-0.21,0.242-0.33,0.33c-0.199,0.148-0.423,0.242-0.635,0.382c-0.07,0.065-0.146,0.126-0.229,0.178l-0.381,0.051
	c-0.659,0.118-1.33,0.161-2,0.127H10.914c-0.67,0.048-1.343,0.015-2.005-0.1c-0.309-0.121-0.599-0.283-0.863-0.483
	C7.536,26.578,7,26.33,6.5,26.025c-1-0.609-2.059-1.101-3.046-1.7C3.09,24.1,2.682,23.98,2.335,23.737
	c-0.074-0.083-0.134-0.178-0.178-0.28c-0.146-0.154-0.274-0.324-0.381-0.508l-0.051-0.407c-0.095-0.358-0.095-0.735,0-1.093H1.65
	c-0.241,0.129-0.497,0.229-0.761,0.3c-0.08,0.034-0.167,0.052-0.254,0.051c-0.053-0.02-0.104-0.045-0.152-0.075l-0.051-0.637
	L0.2,20.966v-0.075h0.1v-0.052c-0.028-0.016-0.047-0.044-0.051-0.076h0.03v-0.025c0.129,0,0.116-0.048,0.1-0.229
	c-0.078-0.333-0.111-0.675-0.1-1.017H0.254c-0.028,0.044-0.075,0.071-0.127,0.075c-0.032-0.043-0.05-0.097-0.051-0.151
	C0.108,19.174,0.082,18.929,0,18.7h0.076c0.019,0.118,0.063,0.23,0.127,0.331c0.241,0.054,0.489,0.07,0.736,0.051h1.117
	c0.147-0.059,0.292-0.125,0.431-0.2c0.13-0.01,0.25-0.074,0.33-0.178c-0.103-0.124-0.172-0.273-0.2-0.433
	c0.1,0.002,0.191-0.059,0.228-0.152c-0.044-0.211-0.036-0.43,0.025-0.636v-0.025l0.3-0.051c0-0.133,0.009-0.142,0-0.305
	c0.09-0.01,0.173-0.056,0.23-0.127c-0.012-0.042-0.02-0.084-0.025-0.127c0.073-0.023,0.149-0.032,0.225-0.026h0.029
	c-0.01,0.075-0.042,0.032,0.025,0.076c0.184-0.1,0.838-0.089,0.838-0.432c-0.021-0.039-0.03-0.083-0.025-0.127L5.2,16.288v-0.127
	l0.635-0.025L5.81,16.009c0.02-0.002,0.038-0.012,0.051-0.026c0.028,0.023,0.053,0.048,0.076,0.076
	c0.23,0.015,0.459-0.038,0.66-0.152c0.037-0.062,0.063-0.129,0.076-0.2c0.02,0.036,0.06,0.056,0.1,0.051
	c0-0.029,0.009-0.057,0.027-0.08V15.7c0.017,0.02,0.033,0.057,0.051,0.076c0.405-0.07,0.799-0.197,1.169-0.376
	c-0.035-0.025-0.061-0.06-0.076-0.1H7.97v-0.029c0.082,0.032,0.1,0.06,0.178,0c0.017-0.02,0.033-0.057,0.051-0.076
	c0.014,0.014,0.032,0.022,0.051,0.025c0,0.1-0.031,0.063,0.076,0.076c0.151,0.019,0.304-0.017,0.431-0.1
	c0.297-0.085,0.605-0.127,0.914-0.127c0.052,0.07,0.019,0.077,0.2,0.076c0.122,0.043,0.252,0.061,0.381,0.051v-0.077
	c0.085,0.003,0.17,0.012,0.254,0.026c0.113-0.06,0.209-0.147,0.279-0.254v-0.027h-0.43c-0.142-0.026-0.287-0.034-0.431-0.025
	c-0.318-0.057-0.641-0.083-0.964-0.076l-0.025-0.28l1.294-0.1h0.457c0.284-0.06,0.574-0.077,0.863-0.051
	c0.117,0.023,0.228,0.066,0.33,0.127c0.094,0.085,0.036,0.175,0.2,0.2v-0.506h0.406v-0.382H11.8v-0.076h0.076V12.78H11.8v-0.153
	h0.076c-0.015-0.437,0.027-0.874,0.127-1.3c-0.125,0.025-0.254-0.024-0.33-0.127c-0.058-0.081-0.077-0.184-0.051-0.28h-0.074
	c-0.001-0.183,0.033-0.364,0.1-0.534c0.056,0.037,0.134,0.086,0.152,0.1c0.067,0.089,0.025,0.136,0.178,0.153v-0.071l0.228,0.025
	l0.025-0.229c-0.027,0-0.054-0.009-0.076-0.025c-0.019-0.03-0.027-0.064-0.025-0.1h-0.1c-0.046-0.068-0.072-0.147-0.076-0.229h0.051
	c0.098-0.029,0.198-0.046,0.3-0.051v-0.1c0.016-0.159-0.04-0.317-0.152-0.432c-0.195-0.257-0.31-0.567-0.33-0.89h-0.072
	c0.005-0.054,0.022-0.106,0.051-0.152h-0.228c-0.022-0.016-0.08-0.034-0.1-0.051c-0.021-0.039-0.03-0.083-0.025-0.127H9.594
	l0.025-0.2C9.521,8.033,9.42,8.05,9.319,8.058v-0.2H9.086c-0.043,0.25-0.752,0.746-0.127,0.737v0.153
	C8.721,8.745,8.501,8.62,8.375,8.418C8.361,8.264,8.379,8.108,8.426,7.96c0.26-0.177,0.578-0.249,0.888-0.2V7.67H8.553
	c-0.112,0.092-0.241,0.16-0.381,0.2V7.339H8.3c0.059,0.084,0.137,0.152,0.228,0.2c0.263,0.031,0.53,0.014,0.787-0.051H8.782
	l-0.2-0.076C8.508,7.371,8.47,7.286,8.4,7.237C8.348,6.927,8.371,6.58,8.73,6.551C8.799,6.511,8.879,6.493,8.959,6.5z M13.325,7.237
	c-0.085,0.045-0.155,0.114-0.2,0.2c-0.048,0.085-0.066,0.184-0.051,0.28c0.079,0.082,0.15,0.173,0.228,0.254c0.146,0,0.159,0,0.3,0
	c0.114-0.074,0.188-0.195,0.2-0.331c0.026-0.06,0.016-0.128-0.025-0.178c-0.023-0.109-0.116-0.19-0.228-0.2
	C13.478,7.235,13.4,7.227,13.325,7.237z M14.264,7.237c-0.022,0.016-0.049,0.024-0.076,0.024c-0.054,0.071-0.114,0.138-0.178,0.2
	c-0.007,0.102-0.007,0.204,0,0.305c0.074,0.114,0.195,0.187,0.33,0.2c0.061,0.018,0.125,0.009,0.178-0.025
	c0.099-0.05,0.178-0.13,0.228-0.229V7.492C14.661,7.4,14.58,7.323,14.492,7.237H14.264z M15.178,7.237
	c-0.166,0.09-0.265,0.269-0.254,0.458c0.027,0.038,0.044,0.082,0.051,0.127c0.077,0.087,0.184,0.142,0.3,0.153
	c0.059,0.013,0.12,0.013,0.178,0c0.105-0.071,0.177-0.181,0.2-0.305c0.023-0.075,0.023-0.154,0-0.229
	C15.536,7.302,15.359,7.227,15.178,7.237z M16.117,7.237c-0.082,0.079-0.172,0.149-0.254,0.229c-0.027,0.093-0.018,0.193,0.025,0.28
	c0.042,0.095,0.111,0.175,0.2,0.229c0.093,0.028,0.193,0.019,0.279-0.025c0.094-0.042,0.174-0.112,0.228-0.2
	c0.002-0.121-0.015-0.241-0.051-0.356c-0.071-0.044-0.139-0.096-0.2-0.153h-0.227V7.237z M17.056,7.237
	c-0.022,0.016-0.049,0.024-0.076,0.024c-0.096,0.065-0.16,0.166-0.178,0.28c-0.026,0.074-0.026,0.155,0,0.229
	c0.074,0.114,0.195,0.187,0.33,0.2c0.059,0.013,0.12,0.013,0.178,0c0.072-0.053,0.133-0.122,0.178-0.2
	c0.053-0.103,0.062-0.222,0.025-0.331C17.404,7.301,17.232,7.225,17.056,7.237L17.056,7.237z M17.97,7.237
	c-0.088,0.086-0.168,0.166-0.254,0.254c-0.026,0.192,0.063,0.382,0.229,0.483c0.093,0.029,0.193,0.02,0.279-0.025
	c0.094-0.042,0.174-0.112,0.228-0.2c0.027-0.093,0.018-0.193-0.025-0.28c-0.049-0.1-0.128-0.181-0.227-0.231H17.97z M18.909,7.237
	c-0.022,0.016-0.049,0.024-0.076,0.024c-0.054,0.071-0.114,0.138-0.178,0.2c-0.009,0.102-0.009,0.204,0,0.305
	c0.074,0.113,0.195,0.187,0.33,0.2c0.06,0.018,0.125,0.009,0.178-0.025c0.089-0.02,0.158-0.089,0.178-0.178
	c0.046-0.076,0.064-0.166,0.051-0.254c-0.036-0.043-0.04-0.104-0.076-0.152l-0.178-0.127h-0.229V7.237z M19.823,7.237
	c-0.085,0.045-0.155,0.114-0.2,0.2c-0.048,0.085-0.066,0.184-0.051,0.28c0.079,0.082,0.15,0.173,0.229,0.254c0.146,0,0.159,0,0.3,0
	c0.114-0.074,0.188-0.195,0.2-0.331c0.026-0.06,0.016-0.128-0.025-0.178c-0.024-0.109-0.116-0.19-0.228-0.2
	C19.976,7.235,19.898,7.227,19.823,7.237L19.823,7.237z M20.762,7.237c-0.021,0.016-0.049,0.024-0.076,0.024
	c-0.054,0.071-0.113,0.138-0.178,0.2c-0.007,0.102-0.007,0.204,0,0.305c0.074,0.113,0.195,0.187,0.33,0.2
	c0.061,0.018,0.125,0.009,0.178-0.025c0.1-0.05,0.18-0.13,0.229-0.229V7.492C21.158,7.4,21.078,7.323,20.99,7.237H20.762
	L20.762,7.237z M21.676,7.237c-0.166,0.09-0.265,0.269-0.254,0.458c0.027,0.038,0.044,0.082,0.051,0.127
	c0.077,0.087,0.185,0.142,0.301,0.153c0.059,0.013,0.119,0.013,0.178,0c0.105-0.071,0.177-0.181,0.199-0.305
	c0.029-0.066,0.02-0.143-0.024-0.2c-0.024-0.109-0.116-0.19-0.228-0.2C21.828,7.241,21.751,7.229,21.676,7.237L21.676,7.237z
	 M22.615,7.237c-0.082,0.079-0.172,0.149-0.254,0.229c-0.027,0.093-0.019,0.193,0.024,0.28c0.042,0.095,0.112,0.175,0.2,0.229
	c0.093,0.028,0.193,0.019,0.279-0.025c0.094-0.042,0.174-0.112,0.228-0.2c0.003-0.121-0.015-0.241-0.051-0.356
	c-0.071-0.044-0.139-0.096-0.2-0.153h-0.228L22.615,7.237z M23.555,7.237c-0.023,0.016-0.049,0.024-0.076,0.024
	c-0.096,0.065-0.16,0.166-0.179,0.28c-0.034,0.075-0.024,0.163,0.025,0.229c0.042,0.127,0.166,0.21,0.3,0.2
	c0.059,0.013,0.119,0.013,0.178,0c0.072-0.053,0.133-0.122,0.178-0.2c0.053-0.103,0.063-0.222,0.025-0.331
	c-0.108-0.138-0.277-0.213-0.453-0.203H23.555z M24.468,7.237C24.38,7.323,24.3,7.403,24.214,7.491
	c-0.026,0.192,0.063,0.381,0.228,0.483c0.094,0.029,0.193,0.02,0.279-0.025c0.095-0.042,0.174-0.112,0.229-0.2
	c0.027-0.093,0.018-0.193-0.025-0.28c-0.048-0.099-0.127-0.18-0.224-0.231H24.468L24.468,7.237z M26.32,7.237
	c-0.084,0.045-0.154,0.114-0.199,0.2c-0.049,0.085-0.066,0.184-0.051,0.28c0.078,0.082,0.149,0.173,0.228,0.254
	c0.146,0,0.159,0,0.3,0c0.114-0.074,0.188-0.195,0.2-0.331c0.026-0.06,0.017-0.128-0.024-0.178c-0.024-0.109-0.117-0.19-0.229-0.2
	C26.473,7.235,26.396,7.227,26.32,7.237L26.32,7.237z M27.26,7.237c-0.021,0.016-0.049,0.024-0.076,0.024
	c-0.054,0.071-0.113,0.138-0.178,0.2c-0.007,0.102-0.007,0.204,0,0.305c0.074,0.114,0.195,0.187,0.33,0.2
	c0.061,0.018,0.125,0.009,0.178-0.025c0.099-0.05,0.179-0.13,0.229-0.229V7.492c-0.086-0.088-0.166-0.168-0.254-0.254L27.26,7.237
	L27.26,7.237z M12.032,8.537h-0.078c0.006,0.22,0.097,0.43,0.254,0.585c0.05-0.057,0.129-0.077,0.2-0.051
	c-0.02-0.232-0.062-0.462-0.127-0.687h-0.3v0.051c0.063,0.034,0.038,0.007,0.05,0.098L12.032,8.537z M13.783,8.385
	c-0.329,0.233-0.635,0.497-0.914,0.788c-0.057,0.151-0.018,0.321,0.1,0.432c0.2,0.1,0.414,0.167,0.635,0.2
	c0.262,0.116,0.534,0.209,0.812,0.28c0.146-0.043,0.283-0.111,0.406-0.2c0.352-0.182,0.723-0.337,1.066-0.508
	c0.31-0.094,0.602-0.24,0.863-0.432c0.024-0.179,0.007-0.362-0.051-0.534c-0.311-0.049-0.626-0.057-0.939-0.025h-1.979L13.783,8.385
	z M18.859,8.385c-0.392,0.24-0.809,0.437-1.244,0.585c-1,0.442-1.976,0.994-2.995,1.424v0.026h0.127
	c0.348-0.097,0.705-0.156,1.066-0.178c0.811-0.208,1.723-0.256,2.538-0.458c0.307-0.076,0.608-0.083,0.888-0.153
	c0.105,0.012,0.212-0.015,0.3-0.076c-0.174-0.25-0.327-0.513-0.457-0.788c-0.032-0.149-0.11-0.284-0.224-0.386L18.859,8.385z
	 M20.382,8.385c-0.274,0.188-0.507,0.431-0.685,0.712l0.558,0.992c0.112,0.064,0.421-0.106,0.66-0.051
	c0.19,0.041,0.372,0.119,0.533,0.229c0.061,0.103,0.161,0.175,0.278,0.2c0.139-0.107,0.293-0.192,0.457-0.254
	c0.394-0.24,0.826-0.472,1.219-0.712c0.246-0.041,0.456-0.203,0.558-0.432c-0.07-0.238-0.182-0.462-0.33-0.661
	c-0.294-0.047-0.592-0.056-0.888-0.025h-2.36V8.385z M19.7,9.907l-5.127,0.89v0.025h0.025c0.37,0.052,0.744,0.069,1.117,0.051
	c0.39,0.084,0.884-0.038,1.294,0.051c0.166,0.036,0.437-0.017,0.635,0.025c0.623,0.08,1.251,0.105,1.878,0.076l0.178-0.458
	c0.106-0.085,0.186-0.201,0.229-0.331C19.87,10.115,19.793,10.004,19.7,9.907z M20.614,12.627v-1.118
	c-0.47-0.004-0.938-0.046-1.4-0.127c-0.4-0.088-0.887,0.032-1.269-0.051h-0.559c-0.449,0.006-0.899-0.019-1.345-0.076l-1.066-0.025
	l-0.406-0.03c-0.13,0.047-0.271,0.056-0.406,0.025v0.055c0.1,0.107,0.185,0.227,0.254,0.355c0.266,0.35,0.554,0.681,0.863,0.992
	h5.329L20.614,12.627z M23.025,12.907c0.151,0.194,0.151,0.467,0,0.661h0.127c0.061-0.048,0.111-0.109,0.147-0.178
	c0.044-0.068,0.062-0.149,0.052-0.229c-0.048-0.146-0.18-0.246-0.332-0.254H23.025z M13.431,13.771l-0.025,0.381h2.817l0.2-0.381
	h-2.997H13.431z M20.816,13.771v0.381h1.574v-0.381h-1.578H20.816z"/>
</svg>
