<svg xmlns="http://www.w3.org/2000/svg" width="40" height="40" viewBox="0 0 40 40">
  <defs>
    <style>
      .cls-1 {
        fill: #fff;
        fill-rule: evenodd;
      }
    </style>
  </defs>
  <path id="Color_Fill_1" data-name="Color Fill 1" class="cls-1" d="M12.218,15c0.958,0,1.5.135,2.473,0.139a0.508,0.508,0,0,0,.1.14c-0.052.221-.184,0.331-0.1,0.372a0.281,0.281,0,0,0,.194,0v0.232h0.1a1.708,1.708,0,0,0,.582.046l0.1,0.14a1.012,1.012,0,0,0,.727,0v0.139l0.533,0.047c0.142,0.195.3,0.389,0.436,0.6a2.848,2.848,0,0,1,1.551.14V16.954a0.535,0.535,0,0,1-.145-0.093h0.679v0.093a0.323,0.323,0,0,0-.194.047H19.3a2.07,2.07,0,0,0,.873.14,9.627,9.627,0,0,0,2.182.186h1.261s0.181,0.125.194,0.139a8.326,8.326,0,0,1,2.036-.046c0.182,0,.66.1,0.679,0.093V17.419a2.2,2.2,0,0,0,.339.093,4.864,4.864,0,0,1,1.794-.093c0.094,0.021,1.207.141,1.212,0.139V17.465c0.125-.029.1,0.08,0.145,0.093,0.143,0.039.933-.046,1.309-0.046h1.5a19.694,19.694,0,0,0,2.764,0,0.693,0.693,0,0,1,.436.093,2.048,2.048,0,0,0,.63-0.093c0.744,0.119,1.912-.062,2.57.046a4.468,4.468,0,0,0,.776.093V18.4c-3.667-.01-7.075.093-10.57,0.093l-3.539.047a8.408,8.408,0,0,0-2.279.139H22.352a9.237,9.237,0,0,0-2.036.186,1.113,1.113,0,0,0-.873.233h0.049V19.047a3.858,3.858,0,0,0,.97-0.14c0.487-.017,1.048.09,1.6,0.093v0.326a5.543,5.543,0,0,0,.824.046,1.045,1.045,0,0,1,.533-0.093h0.049a0.671,0.671,0,0,0,.1.14,3.725,3.725,0,0,0,.485.046h0.776a8.744,8.744,0,0,1,1.939.372c0.27,0.13.429-.035,0.679,0.093a9.131,9.131,0,0,1,1.115,1.4,0.157,0.157,0,0,1-.049.093,1.181,1.181,0,0,1-.824.419,1.542,1.542,0,0,1-.436.884,0.945,0.945,0,0,0-.242.14,3.935,3.935,0,0,0-.049.558H26.909V23.372a1.7,1.7,0,0,0-.048-0.465,4.062,4.062,0,0,1-1.018.6,7.963,7.963,0,0,1-2.036,1.163,9.089,9.089,0,0,1-1.988.047H15.758a6.056,6.056,0,0,1-1.212.233l-0.194-.233H13.091a23.048,23.048,0,0,1-3.248-.047c-1.142-.212-3.2.293-4.121-0.093a8.437,8.437,0,0,1-1.309-.93C4.038,23.4,3.67,23.206,3.3,22.954c-0.112-.076-0.223-0.263-0.339-0.326a3.786,3.786,0,0,1-.388-0.093c-0.232-.167-0.354-0.774-0.533-0.884-0.079.1-.083,0.14-0.194,0.093a0.169,0.169,0,0,1-.1-0.046A1.1,1.1,0,0,0,1.891,21a0.986,0.986,0,0,0-.436-0.326c-0.234.121-.288-0.083-0.436-0.139a1.437,1.437,0,0,1-.339.093V20.581H0.63a2.207,2.207,0,0,1,.048-1.023l-0.63-.093A0.821,0.821,0,0,1,0,19.186H0.1a2.114,2.114,0,0,0,1.6-.279H2.521a12.877,12.877,0,0,1,2.57-.233l0.921-.046a4.377,4.377,0,0,0,1.5.093c0.111-.024,1.277-0.008,1.309,0a0.4,0.4,0,0,0,.242.14V18.767l0.145-.046a0.78,0.78,0,0,0,.339,0H9.261l-0.048-.279H9.164V18.4l-3.588-.744V16.442l1.406,0.046a3.47,3.47,0,0,1,1.164-.14c-0.042-.164-0.054-0.209.194-0.233,0.213,0.4,2.906.858,2.958,0a0.853,0.853,0,0,0-.194-0.558c0.129-.058.228-0.03,0.339-0.093,0.1-.069-0.027-0.066.146-0.093V15.326h0.049c0.064,0.156.075,0.135,0.291,0.139C12.053,15.245,12.2,15.367,12.218,15ZM8.194,16.163c0.04,0.151-.024.071,0.1,0.139V16.256H8.339V16.209H8.291A0.177,0.177,0,0,0,8.194,16.163Zm10.764,0.744c0.062,0.151.043,0.122,0.242,0.14V16.954A0.787,0.787,0,0,0,18.958,16.907ZM18.909,19v0.093H19.2V19H18.909Zm2.764,0.093a0.562,0.562,0,0,0,.146.093V19.093H21.673Zm-20.945.465a0.177,0.177,0,0,0,.1.047A0.177,0.177,0,0,0,.727,19.558Zm0.533,1.349a0.5,0.5,0,0,1,.485.14,0.471,0.471,0,0,1,.1.279,0.561,0.561,0,0,1-.63.326,0.177,0.177,0,0,0-.1-0.046,0.474,0.474,0,0,1-.1-0.279C0.933,21.139,1.135,21.027,1.261,20.907Zm24.679,1.256c0.081,0.052.052,0.082,0.1,0h-0.1Zm0.242,0.093a0.64,0.64,0,0,0-.049.186h0.049a0.915,0.915,0,0,1,.242-0.14V22.256H26.182Zm-0.194.046c-0.047.068-.173,0.1-0.1,0.14v0.046h0.049V22.442C26,22.361,26.023,22.367,25.988,22.3Zm-0.291.233a2.089,2.089,0,0,1-.873.512v0.046h0.1c0.255-.223.673-0.282,0.921-0.512Zm-17.5.372a1.555,1.555,0,0,1-.339,1.023H8.873V23.884c-0.483-.333-0.158-0.841-0.339-1.163A0.382,0.382,0,0,1,8.194,22.907Zm3.491,0.046a1.564,1.564,0,0,1-.339.977h1.067V23.884a1.291,1.291,0,0,1-.291-1.163H12.073A0.378,0.378,0,0,1,11.685,22.954ZM18.133,23a1.548,1.548,0,0,1-.291.93h1.018V23.884a1.024,1.024,0,0,1-.291-1.07H18.521A0.33,0.33,0,0,1,18.133,23ZM4.945,22.954c0.08,0.052.052,0.082,0.1,0h-0.1Zm16.679,0.093a1.307,1.307,0,0,1-.291.884h0.679V23.884A2.7,2.7,0,0,1,21.624,23.047Zm-6.545.558a0.9,0.9,0,0,1-.194.325h0.436V23.884C15.217,23.8,15.184,23.685,15.079,23.6Z" transform="translate(0 0.016)"/>
</svg>
