<?xml version="1.0" encoding="utf-8"?>
<!-- Generator: Adobe Illustrator 16.0.0, SVG Export Plug-In . SVG Version: 6.00 Build 0)  -->
<!DOCTYPE svg PUBLIC "-//W3C//DTD SVG 1.1//EN" "http://www.w3.org/Graphics/SVG/1.1/DTD/svg11.dtd">
<svg version="1.1" id="Layer_1" xmlns="http://www.w3.org/2000/svg" xmlns:xlink="http://www.w3.org/1999/xlink" x="0px" y="0px"
	 width="39.969px" height="40px" viewBox="0 0 39.969 40" enable-background="new 0 0 39.969 40" xml:space="preserve">
<path id="ussr_t_62_ico" fill="#FFFFFF" d="M16.123,14.756c-0.046,0.156-0.068,0.319-0.064,0.482
	c0.02,0.023,0.042,0.045,0.064,0.065c0.094-0.055,0.174-0.129,0.236-0.219h0.6v0.131h0.043c0,0.069-0.015,0.137-0.043,0.2
	l0.364,0.044c0.003-0.05,0.026-0.098,0.063-0.131c0.043,0,0.069-0.01,0.086,0.088c-0.016,0.026-0.023,0.057-0.021,0.088
	c0.314,0.035,0.624,0.108,0.921,0.219c0.389,0.121,0.75,0.155,1.136,0.285c0.143,0.065,0.294,0.11,0.45,0.131v-0.049
	c0.01-0.016,0.01-0.078,0.021-0.131h-0.172c-0.006-0.045,0.001-0.09,0.021-0.131c0.041-0.126,0.149-0.182,0.193-0.307
	c-0.157-0.215-0.197-0.494-0.107-0.744c0.168-0.367,0.569-0.567,0.964-0.482v1.554h-0.171c0.001,0.044-0.007,0.089-0.021,0.131
	h0.106v0.131c-0.085-0.02-0.171-0.035-0.257-0.044l0.021,0.132c0.436,0.045,0.875,0.03,1.307-0.044h0.363V16.2l0.344-0.022
	c0.013,0.036,0.02,0.073,0.021,0.11c-0.023,0.07-0.03,0.146-0.021,0.219h0.129c0.023,0.033,0.038,0.07,0.043,0.11
	c-0.027,0.034-0.014,0.011,0,0.044c0.189,0.043,0.387,0.05,0.579,0.022l1.434,0.017c0.313,0.045,0.628,0.06,0.943,0.044h0.368
	c0.175,0.038,0.442-0.022,0.644,0.022c0.228,0.028,0.457,0.036,0.687,0.022h1.264c0.436-0.034,0.873-0.026,1.307,0.022h1.178
	c0.152,0.021,0.307,0.006,0.451-0.044c0.01-0.038,0.024-0.075,0.043-0.11h3.448c0,0.015,0.089,0.142,0.021,0.153h4.072
	c0.26-0.04,0.525-0.045,0.787-0.017v0.679c-1.595,0-3.238-0.021-4.863-0.021c0.054,0.191-0.168,0.167-0.363,0.152
	c-0.285,0.022-0.572,0.022-0.857,0h-2.25l-0.043-0.131c-0.682-0.049-1.453,0-2.143,0c-2.327,0-4.452,0.105-6.727,0.11V17.6
	c0.036,0.067,0,0.077-0.021,0.153c-0.492-0.038-0.988,0.021-1.457,0.175v0.022h0.75c0.064,0.034,0.238-0.027,0.363,0
	c0.096,0.013,0.193-0.002,0.279-0.044c0.264-0.037,0.53-0.037,0.793,0c0.016,0.051,0.046,0.096,0.086,0.131
	c0.113-0.096,0.27-0.121,0.407-0.066v0.045c0.028,0.037,0.037,0.034,0.021,0.065c-0.075,0.058-0.122,0.146-0.129,0.241
	c0.053,0.046,0.09,0.107,0.107,0.175c0.005-0.009,0.012-0.017,0.021-0.022c0.012-0.026,0.021-0.055,0.025-0.084h0.172
	c0.016-0.115,0.053-0.235,0.063-0.371h0.149c0.015,0.125,0.036,0.249,0.064,0.371c0.142-0.023,0.274-0.084,0.387-0.175
	c0.264-0.031,0.533-0.017,0.793,0.044c0.11,0.023,0.186,0.128,0.172,0.24c-0.007,0.051-0.007,0.102,0,0.152l0.086,0.066
	c0.055,0.093,0.104,0.188,0.149,0.285c0.847,0.024,1.594,0.563,1.886,1.358c-0.211,0.12-0.395,0.284-0.537,0.481h0.016v0.022h-0.041
	c-0.006-0.009-0.012-0.017-0.021-0.022c-0.01,0.029-0.01,0.06,0,0.088c0.039,0.042,0.062,0.097,0.064,0.153
	c-0.069,0.106-0.143,0.33-0.214,0.481c-0.028-0.011-0.057-0.019-0.087-0.021c-0.059,0.099-0.123,0.193-0.192,0.285
	c0.067,0,0.029-0.037,0.063,0.021c-0.199,0.144-0.131,0.215-0.342,0.22l-0.15,0.11c0.006,0.063,0.017,0.1-0.043,0.131
	c-0.049,0.072-0.123,0.1-0.172,0.175c-0.045-0.038-0.03-0.044-0.063-0.044c-0.089,0.045-0.163,0.113-0.214,0.199
	c0.023,0,0.046,0.008,0.064,0.022c-0.035,0.021-0.058,0.073-0.086,0.088c-0.031,0.002-0.061-0.005-0.086-0.022
	c0.016,0.027,0.016,0.062,0,0.088l-0.043-0.021c0.01,0.021,0.01,0.045,0,0.066c-0.031-0.021-0.048-0.078-0.064-0.045
	c-0.096,0.036-0.172,0.107-0.215,0.201c0.023-0.001,0.047,0.007,0.064,0.021h-0.023v0.021c-0.037,0.042-0.096,0.059-0.149,0.045
	c0.011,0.074,0.019,0.094-0.086,0.108c-0.028-0.054,0.009-0.015-0.043-0.044c-0.053,0.07-0.118,0.13-0.192,0.176
	c0.037,0.045,0.041,0.031,0.043,0.065c-0.063,0.077-0.145,0.138-0.236,0.175c-0.028-0.054,0.009-0.015-0.043-0.044
	c-0.072,0.059-0.138,0.126-0.193,0.2c0.053,0.027,0.016-0.01,0.043,0.044c-0.07,0.068-0.15,0.127-0.236,0.175
	c-0.031-0.056,0-0.025-0.063-0.044c-0.048,0.078-0.125,0.134-0.214,0.153c0.005,0.009,0.012,0.016,0.021,0.021
	c0.017,0.016,0.048,0.029,0.064,0.044h-0.039c-0.077,0.063-0.164,0.116-0.257,0.153c-0.024-0.063,0-0.04-0.064-0.066
	c-0.081,0.039-0.16,0.083-0.236,0.131c0.054,0.028,0.016-0.008,0.043,0.045c-0.115,0.011-0.23,0.033-0.343,0.065v-0.075l-0.3,0.022
	v0.044c0.017,0.002,0.031,0.01,0.043,0.021h-0.3v-0.066h-0.193c-0.008,0.111-0.2,0.07-0.364,0.066c0-0.082-0.039-0.078-0.17-0.066
	c-0.109,0.088-0.256,0.113-0.387,0.066v-0.066h-0.193c-0.008,0.111-0.199,0.07-0.363,0.066v-0.066h-0.189
	c-0.008,0.111-0.222,0.07-0.386,0.066c0-0.086-0.058-0.078-0.193-0.066v0.044c0.016,0.002,0.032,0.01,0.043,0.022h-0.41
	c0-0.082-0.039-0.078-0.171-0.066c-0.005,0.009-0.012,0.017-0.021,0.021c0.016,0.02,0.027,0.025,0.043,0.045h-0.405
	c0-0.101-0.045-0.072-0.193-0.066c-0.008,0.111-0.2,0.07-0.364,0.066v-0.066h-0.196c-0.008,0.111-0.222,0.07-0.386,0.066
	c0-0.086-0.057-0.078-0.193-0.066v0.044c0.017,0.002,0.032,0.01,0.043,0.022h-0.411v-0.066c-0.065-0.004-0.13,0.004-0.193,0.021
	c0.016,0.02,0.027,0.025,0.043,0.045h-0.424c0-0.082-0.039-0.078-0.171-0.066c-0.008,0.111-0.222,0.07-0.386,0.066
	c0-0.082-0.039-0.078-0.171-0.066c-0.008,0.111-0.222,0.07-0.386,0.066v-0.066h-0.193v0.044c0.016,0.002,0.031,0.01,0.043,0.022
	h-0.408v-0.066c-0.065-0.004-0.13,0.004-0.193,0.021c0.016,0.02,0.027,0.025,0.043,0.045h-0.428c0-0.082-0.039-0.078-0.171-0.066
	c-0.008,0.111-0.222,0.07-0.386,0.066v-0.066h-0.171c-0.008,0.111-0.222,0.07-0.386,0.066v-0.066h-0.193v0.044
	c0.016,0.002,0.031,0.01,0.043,0.022h-0.412v-0.066c-0.065-0.004-0.13,0.004-0.193,0.021c0.016,0.02,0.027,0.025,0.043,0.045h-0.424
	c0-0.082-0.039-0.078-0.171-0.066c-0.008,0.111-0.222,0.07-0.386,0.066v-0.066h-0.169c-0.008,0.111-0.222,0.07-0.386,0.066v-0.066
	h-0.195v0.044c0.016,0.002,0.031,0.01,0.043,0.022h-0.407v-0.066c-0.065-0.004-0.13,0.004-0.193,0.021
	c0.016,0.02,0.027,0.025,0.043,0.045h-0.428c0-0.082-0.039-0.078-0.171-0.066c-0.008,0.111-0.222,0.07-0.386,0.066v-0.066H9.696
	v0.044c0.017,0.002,0.032,0.01,0.043,0.022H9.31c0-0.082-0.039-0.078-0.171-0.066v0.044c0.016,0.002,0.031,0.01,0.043,0.022H8.753
	c0-0.091-0.019-0.07-0.15-0.066c-0.117,0.088-0.269,0.112-0.407,0.066v-0.066H8.003v0.044c0.017,0.002,0.032,0.01,0.043,0.022H7.618
	c0-0.082-0.039-0.078-0.171-0.066v0.044c0.016,0.002,0.031,0.01,0.043,0.022H7.061v-0.066H6.869v0.044
	c0.016,0.002,0.031,0.01,0.043,0.022H6.569c-0.018-0.015-0.041-0.022-0.064-0.022c-0.009-0.06-0.053-0.048-0.171-0.044v0.021H6.311
	c0.016,0.02,0.027,0.025,0.043,0.045H6.182c-0.049-0.016-0.099-0.022-0.15-0.022c0-0.063,0.021-0.03,0-0.065
	c-0.098-0.031-0.198-0.054-0.3-0.066c0,0.088,0.042,0.072-0.064,0.088c-0.09-0.02-0.172-0.065-0.236-0.131
	c0.018-0.012,0.032-0.026,0.043-0.044c-0.105-0.021-0.207-0.059-0.3-0.11c0.008,0.029,0.008,0.059,0,0.088
	c-0.101-0.035-0.194-0.088-0.279-0.152C4.914,24.044,4.929,24.022,4.94,24c-0.11-0.03-0.165-0.1-0.279-0.131
	c0.007,0.063,0.023,0.045,0,0.088c-0.077-0.066-0.163-0.119-0.257-0.157v-0.022c0.018-0.012,0.033-0.026,0.043-0.045H4.425
	c-0.056-0.051-0.139-0.074-0.192-0.133l-0.064,0.024v0.022H4.19c0.041,0.017-0.043,0.021-0.043,0.021
	c-0.054-0.034-0.111-0.064-0.171-0.088c-0.073-0.051,0.022-0.073-0.021-0.131c-0.083-0.043-0.169-0.078-0.257-0.109
	c0,0.023-0.007,0.047-0.021,0.066c-0.071-0.066-0.188-0.085-0.257-0.153c0.018-0.011,0.032-0.026,0.043-0.044
	c-0.085-0.05-0.163-0.107-0.257-0.152c0,0.072,0.046,0.053-0.021,0.088c-0.088-0.045-0.168-0.104-0.236-0.176
	c-0.035-0.039,0.02-0.029-0.045-0.068c-0.018,0.042-0.061,0.068-0.107,0.065c-0.074-0.103-0.179-0.18-0.3-0.219
	c-0.015-0.058-0.044-0.11-0.086-0.153c-0.063,0.016-0.128,0.023-0.193,0.022c-0.008-0.044-0.008-0.088,0-0.132L2.111,22.4
	c-0.068-0.098-0.113-0.211-0.129-0.329c-0.065,0.013-0.129-0.025-0.15-0.089c0.023-0.023,0.038-0.054,0.043-0.086
	c-0.227-0.152-0.363-0.406-0.364-0.68c-0.046-0.004-0.09-0.019-0.129-0.044c-0.053,0.061-0.136,0.086-0.214,0.066
	c-0.059-0.045-0.104-0.105-0.129-0.175c-0.253-0.322-0.355-0.737-0.279-1.14H0.74v0.022c-0.113,0.182-0.345,0.247-0.536,0.152
	c-0.09-0.043-0.165-0.113-0.214-0.199c-0.042-0.211,0.031-0.428,0.193-0.569c-0.062-0.091-0.039-0.216,0.053-0.278
	c0.003-0.002,0.007-0.004,0.011-0.007c0.08,0.041,0.167,0.063,0.257,0.065c0.375,0.057,0.755-0.047,1.05-0.284v-0.021H1.383
	c-0.097,0.029-0.199,0.037-0.3,0.022l-0.021-0.2H0.847v-0.041h0.215c0-0.023,0.007-0.047,0.021-0.066
	c0.12-0.022,0.242-0.029,0.364-0.021c0.233-0.043,0.471-0.051,0.707-0.021c0.029-0.076,0.092-0.134,0.171-0.153
	c0.098-0.024,0.201-0.024,0.3,0c0.008,0.055-0.012,0.034,0.064,0.044c0.018-0.071-0.01-0.033,0.043-0.066v0.066
	c0.027-0.004,0.051-0.021,0.064-0.044C2.869,18.3,2.911,18.4,2.969,18.3c-0.023,0.001-0.046-0.007-0.064-0.022
	c0.12,0,0.17,0.057,0.214,0.045c0.047-0.041,0.11-0.057,0.171-0.045c0.047-0.066,0.119,0,0.214,0.022v-0.085h0.065V18.3H3.59
	l0.279-0.041L3.847,18.3c0.111,0.035,0.227,0.05,0.343,0.044l-0.021-0.129c-0.023,0-0.046-0.008-0.064-0.021
	c0.133,0,0.218-0.016,0.321-0.022v0.066c0.382-0.025,0.777-0.064,1.178-0.066v-0.153c0.153,0.014,0.167,0.092,0.321,0.11v-0.065
	c0.116-0.023,0.237-0.008,0.343,0.043c0.076,0.014,0.052-0.112,0.15-0.065l0.021,0.065c0.109,0.043,0.227,0.059,0.343,0.045v-0.022
	h0.021V18.04h0.066c0.005,0.057,0.027,0.11,0.064,0.153c0.066-0.043,0.209,0,0.279-0.045l0.021-0.065
	c0.053-0.032,0.111-0.054,0.171-0.065v0.065h0.085c0.029,0.065-0.014,0.06,0.107,0.065c0.141-0.023,0.285-0.031,0.428-0.021
	c0.184-0.041,0.479,0.016,0.664-0.044c0.093-0.054,0.194-0.091,0.3-0.108c0.022,0.052,0.073,0.086,0.129,0.088
	c0.026-0.062,0.083-0.104,0.15-0.109v0.087h0.022c0.113-0.079,0.258-0.094,0.385-0.04v0.066h0.065
	c-0.001,0.023,0.007,0.047,0.021,0.065c0.033-0.02,0.071-0.028,0.109-0.026v-0.131h0.214v-0.065c-0.323,0.038-0.648-0.058-0.9-0.263
	c-0.005-0.141-0.02-0.279-0.044-0.417l0.043-0.263H9.16v0.022c-0.017,0.042-0.021-0.044-0.021-0.044
	c0.041-0.127,0.062-0.26,0.064-0.394c0.036-0.063,0.079-0.122,0.129-0.175c0.069-0.219,0.264-0.375,0.493-0.394
	c0.08-0.039,0.169-0.054,0.257-0.044c0.124,0.035,0.15,0.145,0.278,0.175c0.055-0.036,0.15-0.008,0.214-0.044
	c0.062-0.052,0.135-0.089,0.214-0.109v-0.11c0.196-0.192,0.429-0.341,0.686-0.438c0.074,0,0.146,0.015,0.214,0.044
	c0.094-0.042,0.197-0.065,0.3-0.066l0.064-0.2c0.043,0.006,0.086,0.006,0.128,0c0.026-0.024,0.055-0.046,0.086-0.066
	c0.1-0.139-0.054-0.2,0.236-0.2v0.087h0.021c0.052-0.04,0.142-0.047,0.193-0.087c0.014-0.019,0.021-0.042,0.021-0.066
	c-0.054-0.032-0.039-0.027-0.043-0.109h-0.063V14.69l-0.129-0.022c-0.018-0.042-0.033-0.086-0.043-0.131
	c0.028-0.033,0.065-0.056,0.107-0.066c0.09-0.031,0.188-0.031,0.279,0c0.034,0.037,0.056,0.083,0.064,0.131
	c-0.028,0.04-0.05,0.084-0.064,0.131c0.023,0,0.046,0.007,0.064,0.022h-0.107c-0.006,0.06-0.021,0.119-0.043,0.175h0.021
	c0.282-0.137,0.587-0.219,0.9-0.241c0.057,0.042,0.123,0.073,0.193,0.088c0.153-0.081,0.31-0.154,0.471-0.219
	c0.008,0.041,0.045,0.069,0.086,0.066V14.3c0.082-0.01,0.153-0.059,0.193-0.131c-0.112-0.04-0.094-0.175-0.086-0.328h0.022
	c0.041-0.114,0.139-0.1,0.171-0.219h0.064v-0.071c0.025-0.026,0.054-0.048,0.086-0.066c0.151-0.051,0.313-0.066,0.471-0.044v0.526
	c0.062,0.053,0.12,0.112,0.171,0.175c-0.002,0.017-0.009,0.032-0.021,0.044c-0.072,0.121-0.151,0.057-0.15,0.285
	c-0.014,0.02-0.021,0.042-0.021,0.066c-0.051,0.002-0.102-0.006-0.15-0.022c-0.071,0.213-0.314,0.309-0.386,0.5h0.107
	c0.336,0.071,0.685-0.037,0.921-0.285c0-0.7,0-1.361,0-2.1v-0.92c0.044-0.23,0.059-0.466,0.043-0.7V9.938
	c-0.02-0.146-0.012-0.294,0.023-0.438c0,1.678,0.042,3.359,0.043,4.993c0.05-0.021,0.108-0.013,0.15,0.022
	c0.018,0.033,0.025,0.071,0.021,0.109c-0.018,0.042-0.032,0.086-0.043,0.131L16.123,14.756L16.123,14.756z M12.931,14.756
	c0.011,0.012,0.019,0.027,0.021,0.044h-0.021V14.756z"/>
</svg>
