<svg xmlns="http://www.w3.org/2000/svg" width="80" height="40" viewBox="0 0 80 40">
  <defs>
    <style>
      .cls-1 {
        fill: #fff;
        fill-rule: evenodd;
      }
    </style>
  </defs>
  <path id="Color_Fill_1" data-name="Color Fill 1" class="cls-1" d="M54.951,19.655h0.594v-0.1a2.489,2.489,0,0,1-.5-0.2h0.5a3.917,3.917,0,0,0-.3-1.281h0.2c0.033,0.478.154,0.607,0.2,1.084a0.872,0.872,0,0,0,.891-0.2h-0.3a6.162,6.162,0,0,0-.3-1.281h0.1v0.2a0.355,0.355,0,0,1,.1.2h0.1v-0.69h0.693a0.531,0.531,0,0,1,.4-0.394v0.1a1.922,1.922,0,0,1,.2.394,1.559,1.559,0,0,1,.5-0.1,1.871,1.871,0,0,1,.594,1.576c-0.291.181-.157,0.156-0.1,0.493h0.594l-0.1-.591h0.1v-0.1h0.2a0.6,0.6,0,0,0,.2.2c-0.073.086-.125,0.111-0.2,0.2h1.881v1.281a0.709,0.709,0,0,0-.4.1c0.492,0.558-.052.826,1.485,0.788v-0.1a1.72,1.72,0,0,1-.792-0.3h0.4c-0.014-.38.017-0.208,0.3-0.493a0.6,0.6,0,0,1-.2-0.2h1.584c0.561,0.891,2.368.246,3.465,0.591v0.1H64.158a0.507,0.507,0,0,1-.3.1v0.3h0.594c-0.042.724-.477,0.981-0.1,1.478a1.184,1.184,0,0,0,.594.3c-0.024-.374-0.2-0.341.1-0.493a1.977,1.977,0,0,0,.1.69,3.941,3.941,0,0,0,1.98,0H66.634V22.808a3.484,3.484,0,0,1-.792-0.394,0.642,0.642,0,0,0,.4-0.1,3.326,3.326,0,0,1-.4-1.084h0.1a4.119,4.119,0,0,0,1.98.493l0.1,0.493h3.267v0.2H68.119a1.679,1.679,0,0,0,.3.887,1.574,1.574,0,0,0,.792.1,0.358,0.358,0,0,1,.2-0.1,0.6,0.6,0,0,1,0-.493c1.1,0.041,3.019-.112,3.96-0.1,0.119,0.429.242,0.415,0.792,0.394a9.912,9.912,0,0,0,1.485,0c0.764,0.467,3.759.381,4.356,0.2v0.591a5.021,5.021,0,0,0-.5,1.576,38.151,38.151,0,0,0-1.287,4.039c-1.22.4-3.864,0.1-5.346,0.1H21.881c-0.865-.53-2.763.138-3.861-0.1-1.634-.352-3.44-0.21-5.148-0.591a6.736,6.736,0,0,0-2.673-.3c-0.856.182-1.892-.014-2.871,0.2a15.8,15.8,0,0,1-2.673.394,0.607,0.607,0,0,1-.3.788V29.9a1.3,1.3,0,0,1-.1-0.69,3.383,3.383,0,0,1-.792-0.1v-0.2a1.92,1.92,0,0,0,.792-0.3c-0.2-.235-0.268-0.422,0-0.591,0.181,0.3.129,0.046,0.3,0.2,0.227,0.363-.165.362,0.3,0.493a0.763,0.763,0,0,0,.3-0.3,0.639,0.639,0,0,0,0-.591H4.455c-0.624-.411-1.93.573-2.277,0.887h0.4a0.57,0.57,0,0,1,.594-0.2,1.8,1.8,0,0,1,.1.591C2.7,29.784,2.1,29.641.891,29.606a1.027,1.027,0,0,1-.2-0.591,2.912,2.912,0,0,1-.3-1.379,1.039,1.039,0,0,1,.594-0.2,3.036,3.036,0,0,0,.99.3v-0.3A2.03,2.03,0,0,1,.5,27.044a2.041,2.041,0,0,1,0-2.266v0.394a3.973,3.973,0,0,1,1.485,0V24.68H2.772a0.822,0.822,0,0,0,.1.493V24.68H3.663v0.394a12.94,12.94,0,0,0,2.376-.1v-0.1a0.48,0.48,0,0,1-.3-0.1c0.321-.082.151,0.048,0.3-0.2H4.851v-0.1a3.965,3.965,0,0,1,1.782.1c-0.092.188-.038,0.115,0,0.394a0.788,0.788,0,0,1,.693-0.2c0.179,0.191.079,0.312,0.792,0.3v-0.1C7.9,24.745,8.005,24.9,8.02,24.483a6.6,6.6,0,0,1,2.475.1H8.812v0.3a1.259,1.259,0,0,0-.4.1v0.1h0.3c0.279-.125,1.468.107,1.683-0.2H9.5v-0.1a3.113,3.113,0,0,0,.99-0.1v0.394a6.3,6.3,0,0,0,2.376-.1c-0.386,0-.445.049-0.594-0.2a1.053,1.053,0,0,0,.2-0.69,12.254,12.254,0,0,0-3.168,0v-0.2h3.267l0.2-.591a5.443,5.443,0,0,0,1.98-.394v0.2a3.508,3.508,0,0,0-.4.887,0.642,0.642,0,0,1,.4.1h-0.1a2.4,2.4,0,0,0-.5.3h-0.1v0.1a1.049,1.049,0,0,1,.594.1c-0.4-.013-0.541-0.053-0.693.2h1.98v0.1a5.5,5.5,0,0,0-2.475.2,11.944,11.944,0,0,1,2.574,0V23.99s-0.387-.019-0.2-0.1h0.2v-0.2h-0.4V22.808h0.99v-0.1h-0.1v-0.1c-0.639-.059-2.536.144-3.069-0.2l3.168-.1c0.3-.606.965-0.531,1.881-0.493v0.1c-0.165.147-.1,0.071-0.1,0.2a0.764,0.764,0,0,1,.3.3,0.34,0.34,0,0,0-.2.1,0.643,0.643,0,0,1,.4.1h-0.2c-0.076.067-.221,0.129-0.3,0.2,0.777-.026,1.172-0.2,1.782-0.2,0.028,0.257,0,.194.5,0.2v-0.2a0.831,0.831,0,0,1-.2-0.788c0.386,0,.445.049,0.594-0.2a0.339,0.339,0,0,1-.2-0.1h0.3a0.475,0.475,0,0,1,.1-0.3v0.2c0.3,0.256,0,.4.792,0.394v0.788c-0.854.357-.951,1.289-0.99,2.168a2.966,2.966,0,0,1,1.287.1,1.61,1.61,0,0,0-1.287.2h1.98a1.677,1.677,0,0,1-.1-0.69c-0.691-.074-0.878-0.125-1.386-0.2a0.337,0.337,0,0,0-.1-0.2,1.385,1.385,0,0,0,.1-0.394c0.521-.047,2.3.3,2.871,0,0.127-.183.161-0.518,0.3-0.69,0.031,0.465-.035.7,0.3,0.788,0.179-.158,2.326.042,2.772-0.1v0.2h-0.1a15.88,15.88,0,0,1-2.97.394v0.3a5.077,5.077,0,0,1,1.98.1,4.773,4.773,0,0,0-1.881.1,0.661,0.661,0,0,0-.1.394c0.572-.036.889,0,1.782,0v-0.3h0.2a2.345,2.345,0,0,1,1.386,0v-0.2h-0.99v-0.1h0.99a3.848,3.848,0,0,0-.2-1.675h1.287V22.217a9.051,9.051,0,0,1,1.386.2v-0.2a0.882,0.882,0,0,1,.1-0.788l0.1,0.985h0.2V21.626h-0.1a1.035,1.035,0,0,1-.1.591,3.8,3.8,0,0,0,0-1.872,1.523,1.523,0,0,1-.1.788c0.025-.713.248-2.291,0-2.463l-1.089.493c0.067,0.307.149,0.443,0.2,0.788H29.7v-0.2c-0.067-.076-0.13-0.22-0.2-0.3v0.1c-0.307.411-.338,1.319-0.792,1.576v-0.2c0.45-.529.4-1.692,1.089-1.971a2.032,2.032,0,0,1,1.089-.394c0-1.264.12-1.809,0.1-3.054l-1.683.1V14.631a5.111,5.111,0,0,0,1.683-.2,2.341,2.341,0,0,0,.4,1.773c0.937-.57,3.943-0.559,5.248-0.887,3.955-.993,8.342-1.158,12.277-2.168,1.462-.375,4.266-0.273,5.148-0.887a0.511,0.511,0,0,0,0-.493c0.258-.028.195,0,0.2-0.493a1.768,1.768,0,0,1,0-1.281,6.189,6.189,0,0,0,.2,1.478l-0.1.69a16.89,16.89,0,0,0,.3,2.364h0.1a5.489,5.489,0,0,1,0-.887l0.1-.2h0.1a0.671,0.671,0,0,0,.2.394,2,2,0,0,0-.1.788,0.318,0.318,0,0,1-.4,0v0.591a2.926,2.926,0,0,1,.594,1.182h-0.1v-0.1a0.7,0.7,0,0,1-.2-0.394h-0.1v0.3l0.495,1.576h-0.2a3.567,3.567,0,0,0-.4-1.478Zm-1.287-8.079h0.2a3.837,3.837,0,0,1-.2.69C53.64,11.69,53.5,11.865,53.663,11.576Zm0.2,0.1h0.2v0.1A0.339,0.339,0,0,1,53.861,11.675Zm-0.594.2a0.394,0.394,0,0,1,0,.493V11.872Zm0.891,2.857,0.1-2.266h-0.2a1.934,1.934,0,0,0-.2,1.182,5.8,5.8,0,0,1,.2.887h-0.2a5.078,5.078,0,0,0-.2-1.872,0.67,0.67,0,0,0-.4-0.1,7.108,7.108,0,0,1-1.98.394v0.3c0.313,0.491.145,1.425,0.5,1.872A5.8,5.8,0,0,1,54.158,14.729Zm-2.97-1.773-19.8,3.35v0.1c1.3,0.211,2.312,1.154,3.465,1.478l16.733-2.759v-0.1A5.029,5.029,0,0,1,51.188,12.956Zm3.861,1.281h0.2v0.2h-0.2v-0.2Zm-1.287.591c-0.515.316-1.764,0.079-2.079,0.591a1.989,1.989,0,0,0,.4.887,1.848,1.848,0,0,1,.891-0.591v0.1A1.285,1.285,0,0,0,51.98,17c0.242,0.379.137,1.117,0.4,1.478v-0.2a14.286,14.286,0,0,0,1.782-3.251c-0.224.039-.107,0.091-0.3,0a1.083,1.083,0,0,0,.3-0.2h-0.4Zm-0.1.3h0.2v0.1h-0.1C53.694,15.235,53.57,15.227,53.663,15.123Zm-9.406,5.222a0.809,0.809,0,0,1-.3.788h0.99a1.366,1.366,0,0,1-.3.887h0.99c0.082-.32-0.049-0.151.2-0.3a0.393,0.393,0,0,0,.1-0.2c-0.29.039-.124,0.161-0.3-0.1a0.522,0.522,0,0,0,0-.788,0.989,0.989,0,0,1-.5.3v-0.1h0.1a1.182,1.182,0,0,0,.5-0.591,1.063,1.063,0,0,1-.1-0.591h-0.3v-0.1h0.1v-0.1h-0.1a0.508,0.508,0,0,1,.3-0.1c0.908-.6,2.223-0.525,3.267-0.985A11.559,11.559,0,0,0,50.4,17.291c0.5-.334,1.281-0.456,1.386-1.182-0.148-.228-0.141-0.671-0.3-0.887L35.347,17.98a0.358,0.358,0,0,0,.2.1,7.905,7.905,0,0,0,2.079.887c1.316,0.569,2.762,1.244,4.059,1.872a2.535,2.535,0,0,0,1.98.2,0.857,0.857,0,0,1-.2-0.887,1.4,1.4,0,0,1,.4-0.1A0.374,0.374,0,0,0,44.257,20.345Zm9.109-5.025h0.2v0.1h-0.1C53.4,15.432,53.273,15.424,53.366,15.32Zm0,4.335h0.5c0.019-.828.518-2.394,0.1-3.054a5.524,5.524,0,0,1-.594,2.463l0.792-3.645h-0.1v0.2c-0.587.59-2.147,3.356-1.386,4.335a1.887,1.887,0,0,0,.4.3l0.2-.887h0.1v0.3Zm-0.3-4.138h0.2v0.1h-0.1C53.1,15.629,52.976,15.621,53.069,15.517ZM31.287,18.473a12,12,0,0,0,3.366-.591L31.188,16.4v0.69A1.729,1.729,0,0,1,31.287,18.473ZM55.248,16.4a0.354,0.354,0,0,1,.1.2h-0.1V16.4ZM49.9,18.079a1.9,1.9,0,0,0,.4.887,0.481,0.481,0,0,0-.3.1,0.859,0.859,0,0,1,.3.394,1.315,1.315,0,0,0,.693.1c0.161-.1.632-0.094,0.792-0.2,0.151-.146.244-0.347,0.4-0.493,0.013-.6-0.11-2.029-0.495-2.266-0.551.682-1.639,0.885-2.178,1.576h0.1A0.507,0.507,0,0,1,49.9,18.079ZM55.347,16.6a0.354,0.354,0,0,1,.1.2h-0.1V16.6Zm0.1,0.2a0.354,0.354,0,0,1,.1.2h-0.1V16.8Zm0.1,0.2a0.355,0.355,0,0,1,.1.2h-0.1V17Zm-1.188,2.66h0.3a8.485,8.485,0,0,0-.2-2.562C54.461,18,54.393,18.88,54.356,19.655Zm1.287-2.463a0.381,0.381,0,0,1,.2.3h-0.1v-0.1A0.354,0.354,0,0,1,55.644,17.192Zm-24.554.394a1.035,1.035,0,0,0,.1.591A1.034,1.034,0,0,0,31.089,17.586Zm0.5,4.926a19.292,19.292,0,0,1,.1,2.463h0.1a14.287,14.287,0,0,1,1.782.1v-0.2H32.178v-0.1a3.264,3.264,0,0,0,1.386-.1,0.6,0.6,0,0,1-.2-0.2,0.34,0.34,0,0,0,.2-0.1c-0.72-.073-0.983-0.125-1.485-0.2a0.337,0.337,0,0,0-.1-0.2,1.389,1.389,0,0,0,.1-0.394,23.419,23.419,0,0,0,2.97,0,1.363,1.363,0,0,1,.2-0.69l0.1,0.788a18.547,18.547,0,0,0,2.97-.1v0.2h-0.1a15.879,15.879,0,0,1-2.97.394v0.3a1.813,1.813,0,0,1,.891.1,3.856,3.856,0,0,0-.891.1v0.394l0.99-.1v-0.3h0.2a1.5,1.5,0,0,1,1.188,0,1.244,1.244,0,0,0,.1.394,0.34,0.34,0,0,0,.2-0.1,0.5,0.5,0,0,0,.1-0.3,0.642,0.642,0,0,0,.4-0.1,0.341,0.341,0,0,1-.2-0.1h0.3a3.228,3.228,0,0,0-.2-1.675c-0.755-.6-2.176-0.728-2.772-1.478h0.2a4.391,4.391,0,0,0,1.089.591v-0.1l-0.1-.1h0.2c1.246,1.3,2.641.763,4.158,0.493a0.475,0.475,0,0,0,.1.3c0.155-.122.05-0.063,0.2,0a1.147,1.147,0,0,0-.495.493h0.594v-0.2a2.486,2.486,0,0,0,.2-0.493c-0.224.039-.107,0.09-0.3,0h0.1a3.508,3.508,0,0,0,.3-0.3,1.492,1.492,0,0,0,.4.2l-0.1-1.084-6.931-3.054a14.133,14.133,0,0,0-3.465.493l0.1,0.2-0.4-.1v2.168a6.674,6.674,0,0,1,.2,1.576,1.544,1.544,0,0,1,.792.1H31.584Zm0.2-3.744a2.124,2.124,0,0,1,.5.2v0.1h-0.2A3.491,3.491,0,0,1,31.782,18.769Zm20.4,0.2a3.438,3.438,0,0,0-.2.591,1.329,1.329,0,0,1,.4.2V19.36C52.312,19.275,52.244,19.05,52.178,18.966Zm4.456,0a0.357,0.357,0,0,0,.2.1A0.358,0.358,0,0,0,56.634,18.966Zm-25.446.1a0.475,0.475,0,0,0,.1.3v-0.3h-0.1Zm1.089,0a2.131,2.131,0,0,1,.5.2v0.1h-0.2A3.493,3.493,0,0,1,32.277,19.064Zm-1.386.1a1.034,1.034,0,0,0,.1.591A1.035,1.035,0,0,0,30.891,19.163Zm23.168,0.1v0.2h0.1v-0.2h-0.1Zm-23.96.1h0.2v0.1H30.1v-0.1Zm1.386,0a23.83,23.83,0,0,0,3.861,1.773v0.2h-0.1C34.485,20.759,31.846,20.075,31.485,19.36Zm1.287,0a2.128,2.128,0,0,1,.495.2v0.1h-0.2A3.507,3.507,0,0,1,32.772,19.36Zm-2.475.1h0.2v0.1A0.34,0.34,0,0,1,30.3,19.458Zm0.2,0.1h0.2v0.1A0.34,0.34,0,0,1,30.5,19.557Zm20.792,0a1.572,1.572,0,0,1-.792.1,1.541,1.541,0,0,0-.1.493,0.354,0.354,0,0,1,.1.2,7.716,7.716,0,0,1,1.98.788V20.739a0.757,0.757,0,0,0-.1-0.788A1.244,1.244,0,0,0,51.287,19.557Zm-18.02.1a2.126,2.126,0,0,1,.5.2v0.1h-0.2A3.492,3.492,0,0,1,33.267,19.655Zm-2.376.2v0.2h0.1v-0.2h-0.1Zm-1.089.1a0.5,0.5,0,0,1,.1.3H29.8v-0.3Zm3.96,0a2.128,2.128,0,0,1,.495.2v0.1h-0.2A3.492,3.492,0,0,1,33.762,19.951Zm19.406,0.1a0.475,0.475,0,0,0,.1.3v-0.3h-0.1Zm-0.594.1,0.3,1.084,0.1-.887A1.5,1.5,0,0,0,52.574,20.148Zm-22.673.1a2.01,2.01,0,0,1,.4,1.084H30.2v-0.2A1.766,1.766,0,0,1,29.9,20.246Zm4.356,0a2.131,2.131,0,0,1,.5.2v0.1h-0.2A3.508,3.508,0,0,1,34.257,20.246ZM50.5,21.035h0.4v0.1h-0.2c-0.073.086-.125,0.111-0.2,0.2a3.666,3.666,0,0,1,.2.591h0.1a0.475,0.475,0,0,1,.1-0.3v0.3h0.4v-0.2l-0.3-.1c-0.263-.2-0.2.11-0.3-0.3h0.2a3.5,3.5,0,0,1,.693.493c0.077,0.118.118,0.474,0.2,0.591v-0.1a2.1,2.1,0,0,0,.1-0.985h0.495v-0.1a15.141,15.141,0,0,0-1.98-.788v0.2A0.661,0.661,0,0,1,50.5,21.035Zm3.069,0.3c0.512-.02.342,0.051,0.594-0.2a2.157,2.157,0,0,1,.594.2V20.443c-0.344.039-.137,0.011-0.3,0.2-0.132.154-.1-0.2-0.1-0.2H53.564v0.2a1.665,1.665,0,0,1,.594.493h-0.2a0.942,0.942,0,0,0-.4-0.3V21.33Zm1.98,0a0.474,0.474,0,0,1,.1-0.3c0.16,0.377.556,0.311,1.089,0.3V20.542l-1.386-.1v0.2a0.394,0.394,0,0,1,.2.394h-0.1v-0.1a1.842,1.842,0,0,1-.3-0.493h-0.1v0.788A1.559,1.559,0,0,0,55.545,21.33Zm-20.792-.788a2.124,2.124,0,0,1,.5.2v0.1h-0.2A3.491,3.491,0,0,1,34.753,20.542ZM52.97,21.33h0.495V20.64l-0.4-.1v0.394A0.662,0.662,0,0,0,52.97,21.33Zm0.891-.788a0.48,0.48,0,0,1,.3.1h-0.2l-0.1.1v-0.2Zm2.97,0.788h0.3a1.891,1.891,0,0,0-.1-0.69,0.357,0.357,0,0,0-.2-0.1V21.33Zm-21.584-.493,0.3,0.1v0.1A0.377,0.377,0,0,1,35.248,20.837Zm9.7,0.1h0.2v0.1h-0.1v0.1A0.355,0.355,0,0,1,44.951,20.936Zm-9.208.2a2.128,2.128,0,0,1,.495.2v0.1h-0.2A3.507,3.507,0,0,1,35.743,21.133Zm-5.446.2a0.5,0.5,0,0,1,.1.3H30.3v-0.3Zm-1.782.1c0.244,0.128.067-.042,0.2,0.2a3.9,3.9,0,0,0-.5,1.084h-0.1v-0.2A2.186,2.186,0,0,0,28.515,21.429Zm7.723,0a2.126,2.126,0,0,1,.5.2v0.1h-0.2A3.492,3.492,0,0,1,36.238,21.429Zm-5.842.2a0.5,0.5,0,0,1,.1.3H30.4v-0.3ZM50.99,22.02a0.475,0.475,0,0,0,.1.3,0.671,0.671,0,0,0,.4.1V22.02h-0.5Zm-5.941.1c-0.118.077-.477,0.118-0.594,0.2h0.99v-0.1h0.1v-0.1h-0.5Zm9.307,0v0.493a0.48,0.48,0,0,0,.3-0.1,0.7,0.7,0,0,0,.2-0.394h-0.5Zm-12.376.3c0.164,0.11.106,0.174,0.2,0h-0.2Zm-11.188.1,0.1,0.3h0.1v-0.3h-0.2Zm20.99,0a0.821,0.821,0,0,0,.1.493A0.821,0.821,0,0,0,51.782,22.512Zm12.574,0.1a0.642,0.642,0,0,1,.4.1A0.642,0.642,0,0,1,64.356,22.611Zm0.891,0a0.481,0.481,0,0,1,.3.1A0.48,0.48,0,0,1,65.248,22.611Zm0.693,0a0.355,0.355,0,0,1,.1.2h-0.1v-0.2Zm3.069,0a0.355,0.355,0,0,1,.1.2h-0.1v-0.2Zm4.455,0a3.864,3.864,0,0,1,1.584.1A2.689,2.689,0,0,1,73.465,22.611Zm3.96,0a3.263,3.263,0,0,1,1.386.1A2.458,2.458,0,0,1,77.426,22.611Zm-38.911.1a1.184,1.184,0,0,0,.99,0h-0.99Zm1.584,0L40.2,23h0.1v-0.3H40.1Zm28.317,0h0.2v0.1A0.341,0.341,0,0,1,68.416,22.709Zm2.871,0.69V22.906l-1.188-.1a0.992,0.992,0,0,1-.594.493v0.1h1.782Zm0.1-.493V23.3h0.1c0.609-.382.713,0.131,0.891-0.1a0.354,0.354,0,0,0,.1-0.2,1.313,1.313,0,0,0-.792-0.2A0.508,0.508,0,0,1,71.386,22.906Zm1.683-.1c0.038,0.258-.073.129,0.2,0.2v-0.2h-0.2Zm6.238,0a0.354,0.354,0,0,1,.1.2h-0.1v-0.2Zm-14.852.3-0.1.3h0.693V23.3Zm0.693,0a1.288,1.288,0,0,1,.693.1A1.288,1.288,0,0,1,65.149,23.1ZM70,23.1h0.2v0.1A0.339,0.339,0,0,1,70,23.1Zm0.99,0h0.2v0.1A0.339,0.339,0,0,1,70.99,23.1Zm5.644,0h0.2v0.1A0.339,0.339,0,0,1,76.634,23.1Zm0.3,0a2.966,2.966,0,0,1,1.287.1A2.964,2.964,0,0,1,76.931,23.1Zm1.386,0h0.2v0.1A0.34,0.34,0,0,1,78.317,23.1Zm-26.634.1c0.164,0.11.106,0.174,0.2,0h-0.2ZM40.2,23.3c0.02,0.138-.081-0.04-0.1.1-0.19.076,0.2,0.1,0.2,0.1A0.337,0.337,0,0,0,40.2,23.3Zm0.693,0a0.4,0.4,0,0,0,.495,0H40.891Zm26.832,0a2.846,2.846,0,0,0,.495.2V23.3H67.723Zm7.426,0v0.2h0.4V23.4h-0.1V23.3h-0.3Zm-31.287.1a0.357,0.357,0,0,0,.2.1A0.358,0.358,0,0,0,43.861,23.4ZM0,23.5a0.355,0.355,0,0,1,.1.2H0V23.5Zm56.139,0.1a1.082,1.082,0,0,0,.1.493,1.738,1.738,0,0,1,.792-0.394V23.6H56.139Zm-56.04.2a0.355,0.355,0,0,1,.1.2H0.1v-0.2Zm0.1,0.2a0.85,0.85,0,0,1,.1.493H0.1v-0.3A0.355,0.355,0,0,0,.2,23.99Zm1.485,0.1c0.035,0.03.2,0.052,0.1,0.2C1.672,24.238,1.474,24.111,1.683,24.089Zm21.287,0c0.17,0.087.127,0.088,0.3,0h-0.3Zm0.594,0a0.358,0.358,0,0,0,.2.1A0.358,0.358,0,0,0,23.564,24.089Zm0.693,0c0.17,0.087.127,0.088,0.3,0h-0.3Zm9.208,0c0.17,0.087.127,0.088,0.3,0h-0.3Zm0.594,0a0.358,0.358,0,0,0,.2.1A0.357,0.357,0,0,0,34.059,24.089Zm0.693,0a0.29,0.29,0,0,0,.4,0h-0.4Zm-13.069.2c0.123,0.154.064,0.05,0,.2a0.671,0.671,0,0,1-.4.1v-0.1A0.393,0.393,0,0,0,21.683,24.286Zm10.594,0.3a0.833,0.833,0,0,1-.5-0.1,0.625,0.625,0,0,0,.5-0.2v0.3Zm-31.98-.1a0.355,0.355,0,0,1,.1.2H0.3v-0.2Zm1.287,0a0.48,0.48,0,0,1,.3.1A0.481,0.481,0,0,1,1.584,24.483Zm2.079,0a2.377,2.377,0,0,1,1.089.1A2.38,2.38,0,0,1,3.663,24.483Zm3.069,0a0.831,0.831,0,0,1,.5.1A0.833,0.833,0,0,1,6.733,24.483Zm4.455,0h0.2v0.1A0.341,0.341,0,0,1,11.188,24.483Zm3.564,0h0.2v0.1A0.34,0.34,0,0,1,14.753,24.483Zm1.089,0a0.355,0.355,0,0,1,.1.2h-0.1v-0.2Zm6.04,0a0.48,0.48,0,0,1,.3.1A0.481,0.481,0,0,1,21.881,24.483Zm4.951,0h0.2v0.1A0.34,0.34,0,0,1,26.832,24.483Zm10.99,0h0.2v0.1A0.34,0.34,0,0,1,37.822,24.483Zm-37.228.1a0.355,0.355,0,0,1,.1.2h-0.1v-0.2Zm7.525,0.1v0.2h0.2v-0.2h-0.2Zm-4.257.1a0.481,0.481,0,0,1,.3.1A0.48,0.48,0,0,1,3.861,24.778Zm0.4,0a1.544,1.544,0,0,1,.792.1A1.543,1.543,0,0,1,4.257,24.778Zm4.653,0a0.833,0.833,0,0,1,.5.1A0.831,0.831,0,0,1,8.911,24.778Zm1.683,0a2.093,2.093,0,0,1,.99.1A2.09,2.09,0,0,1,10.594,24.778Zm24.752,0h0.2v0.1A0.34,0.34,0,0,1,35.347,24.778Zm0.3,0a0.833,0.833,0,0,1,.495.1A0.831,0.831,0,0,1,35.644,24.778Zm-7.624.1v0.2h0.1v-0.2h-0.1Zm10.4,0v0.2h0.1v-0.2h-0.1ZM5.743,27.931l-0.1.591h0.1v0.1c0.707,0.062,3.3.163,3.861-.2A20.479,20.479,0,0,1,5.743,27.931Z"/>
</svg>
