<svg xmlns="http://www.w3.org/2000/svg" width="40" height="40" viewBox="0 0 40 40">
  <defs>
    <style>
      .cls-1 {
        fill: #fff;
        fill-rule: evenodd;
      }
    </style>
  </defs>
  <path id="ussr_t_54_1947_ico" class="cls-1" d="M13.913,13.173h0.066V13.5H13.913v0.194a1.381,1.381,0,0,1-.374.022v0.173h0.022a0.9,0.9,0,0,1,.308-0.086v0.043a0.334,0.334,0,0,1,.022.173,0.233,0.233,0,0,0,.22-0.043c-0.054-.028-0.015.009-0.044-0.043,0.056-.032.034-0.009,0.044-0.086H14.089v0.022c-0.017.042-.022-0.043-0.022-0.043a3.153,3.153,0,0,1,.815-0.022,0.3,0.3,0,0,0,.154.022,0.631,0.631,0,0,1,.022-0.281v0.3h0.11a0.686,0.686,0,0,0,.044.13,0.3,0.3,0,0,0,.154.022V13.95c-0.029-.012-0.016,0-0.022-0.022V13.907a3.4,3.4,0,0,0,1.3.13c0.756,0,1.546.021,2.267,0.022V14.037h0.022v-0.41h0.11v0.41a1.05,1.05,0,0,0,.484.065,1.172,1.172,0,0,1,.418-0.086,1.044,1.044,0,0,1,.044.216,0.21,0.21,0,0,1-.22.108,2.173,2.173,0,0,0-1.1-.043v0.022a0.229,0.229,0,0,1,.022.13H15.564v0.065h0.55v0.151c0.3,0,.547-0.011.814,0v0.065H17.9v0.151H16.929v0.065c-0.568.024-1.241,0-1.871,0a3.393,3.393,0,0,0,.066,1.188,1.577,1.577,0,0,1,1.5-.065,1.2,1.2,0,0,0,.308.324,1.511,1.511,0,0,0,.4.065,3.73,3.73,0,0,0,1.189.151c0.043,0.051.024,0.035,0.066,0.086a0.428,0.428,0,0,0,.066-0.065l0.176,0.022,0.022-.065c0.057-.014.043,0.037,0.066,0.043l0.727,0.065a0.382,0.382,0,0,0,.11-0.065,1.25,1.25,0,0,1,.528,0,0.946,0.946,0,0,1,.55.108c-0.025.032-.046,0.066-0.022,0.086l0.242,0.086a3.574,3.574,0,0,0,.9.626l0.594,0.022v0.13a6.668,6.668,0,0,1,.9.108c0.339,0.072.767-.044,1.079,0.022H24.9a7.266,7.266,0,0,1,1.321.022h0.374a7.275,7.275,0,0,1,1.321.022h1.7a5.532,5.532,0,0,0,.991.022L32.185,17.9h0.793a7.857,7.857,0,0,0,1.431.022h0.4a10.053,10.053,0,0,0,1.739.022q1.73,0,3.412,0a2.151,2.151,0,0,1,.022.583,1.014,1.014,0,0,1-.286.022,1,1,0,0,0-.374-0.022H38.437c-1.069,0-2.181.022-3.28,0.022l-7.375.108h-1.7a8.476,8.476,0,0,1-1.519.022,18.878,18.878,0,0,0-2.025.13v0.108a2.668,2.668,0,0,0-.9.108v0.022c0.281,0.016.388,0.156,0.682,0.194a0.062,0.062,0,0,1-.022.022,0.333,0.333,0,0,1,.022.108h0.132V19.306a0.408,0.408,0,0,1,.2.022,0.162,0.162,0,0,0-.176.043h0.638a0.606,0.606,0,0,1,.4,0,0.121,0.121,0,0,1,.022-0.043V19.5a1.5,1.5,0,0,1,.154.086l0.881-.022v0.043a0.138,0.138,0,0,1,0,.13c-0.079.009-.055-0.01-0.088,0.043,0.04,0.052.047,0.143,0.088,0.194a1.018,1.018,0,0,0,.242-0.086,0.375,0.375,0,0,1-.132-0.281,0.718,0.718,0,0,1,.639-0.389,1.4,1.4,0,0,1,.022.389,1.221,1.221,0,0,1,0,.367h0.044V19.91h0.2L25.6,20.062A0.158,0.158,0,0,0,25.779,20a0.557,0.557,0,0,0,.044-0.151,0.134,0.134,0,0,0,.044.043L25.8,20.04a0.9,0.9,0,0,1,.594.151,0.6,0.6,0,0,0,.11.108h0.242a2.488,2.488,0,0,1,.638.043,3.623,3.623,0,0,1,1.277.669,1.9,1.9,0,0,1,.484.5,0.69,0.69,0,0,1,.11.216c-0.153.123-.327,0.209-0.484,0.324a2.01,2.01,0,0,1-.286.259,0.859,0.859,0,0,0-.088,0c0.02,0.075-.014.011-0.044,0.065a0.626,0.626,0,0,1,.022.238c-0.016.023-.093,0.017-0.11,0.043a0.677,0.677,0,0,0-.044.475c-0.041.028-.053,0.083-0.088,0.108s-0.1-.005-0.154.022l-0.11.151a0.4,0.4,0,0,0-.11.065c-0.071.112,0.051,0.19-.2,0.216a0.15,0.15,0,0,0-.088-0.022c-0.051.073-.18,0.1-0.22,0.173-0.055.1,0.026,0.107-.088,0.151a0.459,0.459,0,0,1-.176.022l-0.22.13c-0.057.077,0.009,0.127-.088,0.173-0.071.046-.209,0.019-0.286,0.065a0.684,0.684,0,0,0-.154.151c0,0.018.048,0.051,0.022,0.086a2.492,2.492,0,0,1-.352.086,1.274,1.274,0,0,0-.242.3,0.251,0.251,0,0,0-.132-0.022,0.6,0.6,0,0,0-.264.151c-0.075.109,0.008,0.161-.154,0.194a0.158,0.158,0,0,0-.088-0.043c-0.058.076-.189,0.1-0.242,0.173-0.025.035,0.007,0.114-.022,0.151a0.241,0.241,0,0,1-.154.043,0.46,0.46,0,0,0-.418.238,0.732,0.732,0,0,1-.176.043,0.263,0.263,0,0,0-.176-0.086,0.8,0.8,0,0,1-.11.086c-0.106.024-.115-0.069-0.22-0.043a0.566,0.566,0,0,1-.242.086,0.111,0.111,0,0,0-.132-0.086,0.206,0.206,0,0,1-.22.086l-0.044-.086a0.33,0.33,0,0,1-.242.086,0.111,0.111,0,0,0-.132-0.086,0.206,0.206,0,0,1-.22.086l-0.044-.086a0.353,0.353,0,0,1-.242.086,0.124,0.124,0,0,0-.132-0.086,0.22,0.22,0,0,1-.22.086,0.113,0.113,0,0,0-.11-0.065c-0.041.069-.062,0.068-0.176,0.065a0.147,0.147,0,0,0-.132-0.086c-0.183.2-.2-0.012-0.33,0.022a0.235,0.235,0,0,1-.176.065,0.147,0.147,0,0,0-.132-0.086,0.259,0.259,0,0,1-.242.086,0.083,0.083,0,0,0-.088-0.065,0.157,0.157,0,0,1-.176.065,0.149,0.149,0,0,0-.154-0.086c-0.182.217-.2-0.028-0.33,0.022v0.043a0.357,0.357,0,0,1-.176.022,0.111,0.111,0,0,0-.132-0.086,0.22,0.22,0,0,1-.22.086A0.391,0.391,0,0,0,19,25.892a0.206,0.206,0,0,1-.22.086,0.111,0.111,0,0,0-.132-0.086,0.22,0.22,0,0,1-.22.086,0.113,0.113,0,0,0-.11-0.065c-0.04.069-.062,0.068-0.176,0.065a0.147,0.147,0,0,0-.132-0.086,0.22,0.22,0,0,1-.22.086,0.113,0.113,0,0,0-.11-0.065c-0.04.069-.062,0.068-0.176,0.065a0.147,0.147,0,0,0-.132-0.086,0.22,0.22,0,0,1-.22.086,0.112,0.112,0,0,0-.11-0.065c-0.042.072-.079,0.069-0.2,0.065-0.025-.073-0.025-0.072-0.11-0.086-0.217.2-.248-0.02-0.352,0.022v0.043a0.358,0.358,0,0,1-.176.022,0.111,0.111,0,0,0-.132-0.086,0.206,0.206,0,0,1-.22.086l-0.044-.086a0.33,0.33,0,0,1-.242.086,0.111,0.111,0,0,0-.132-0.086,0.206,0.206,0,0,1-.22.086l-0.044-.086a0.33,0.33,0,0,1-.242.086,0.111,0.111,0,0,0-.132-0.086,0.206,0.206,0,0,1-.22.086l-0.044-.086a0.353,0.353,0,0,1-.242.086,0.124,0.124,0,0,0-.132-0.086,0.22,0.22,0,0,1-.22.086,0.113,0.113,0,0,0-.11-0.065c-0.04.069-.062,0.068-0.176,0.065a0.147,0.147,0,0,0-.132-0.086c-0.183.2-.2-0.012-0.33,0.022a0.235,0.235,0,0,1-.176.065,0.147,0.147,0,0,0-.132-0.086,0.259,0.259,0,0,1-.242.086,0.083,0.083,0,0,0-.088-0.065,0.157,0.157,0,0,1-.176.065,0.149,0.149,0,0,0-.154-0.086c-0.182.217-.2-0.028-0.33,0.022v0.043a0.357,0.357,0,0,1-.176.022,0.111,0.111,0,0,0-.132-0.086,0.206,0.206,0,0,1-.22.086,0.391,0.391,0,0,0-.066-0.086,0.206,0.206,0,0,1-.22.086,0.111,0.111,0,0,0-.132-0.086,0.22,0.22,0,0,1-.22.086,0.113,0.113,0,0,0-.11-0.065c-0.041.069-.062,0.068-0.176,0.065a0.124,0.124,0,0,0-.132-0.086,0.22,0.22,0,0,1-.22.086,0.113,0.113,0,0,0-.11-0.065c-0.031.078-.068,0.069-0.176,0.065a0.111,0.111,0,0,0-.132-0.086,0.22,0.22,0,0,1-.22.086,0.392,0.392,0,0,0-.066-0.086,0.22,0.22,0,0,1-.22.086,0.124,0.124,0,0,0-.132-0.086,0.22,0.22,0,0,1-.22.086,0.112,0.112,0,0,0-.11-0.065c-0.031.078-.068,0.069-0.176,0.065a0.111,0.111,0,0,0-.132-0.086,0.22,0.22,0,0,1-.22.086A0.393,0.393,0,0,0,8.1,25.892a0.206,0.206,0,0,1-.22.086,0.111,0.111,0,0,0-.132-0.086,0.22,0.22,0,0,1-.22.086,0.392,0.392,0,0,0-.066-0.086,0.206,0.206,0,0,1-.22.086,0.111,0.111,0,0,0-.132-0.086c-0.182.217-.2-0.028-0.33,0.022v0.043a0.357,0.357,0,0,1-.176.022c-0.1-.155-0.168-0.014-0.352,0a0.653,0.653,0,0,0-.462-0.173,0.215,0.215,0,0,1-.132.022A0.659,0.659,0,0,1,5.5,25.633a1.542,1.542,0,0,1-.2-0.108c-0.082,0-.169.03-0.176,0.022A0.372,0.372,0,0,1,5,25.352c-0.248-.215-0.407.037-0.528-0.281a1.9,1.9,0,0,0-.308-0.151,0.376,0.376,0,0,1-.11.022A0.415,0.415,0,0,1,3.9,24.748,3.129,3.129,0,0,1,3.434,24.6c-0.015-.022-0.028-0.086-0.044-0.108a0.763,0.763,0,0,0-.44-0.13,3.477,3.477,0,0,1-.462-0.216l-0.4-.367A1.152,1.152,0,0,0,2,23.6L1.871,23.56a4.242,4.242,0,0,1-.44-0.238A1.241,1.241,0,0,1,1.3,23.128a0.436,0.436,0,0,1,.022-0.3c0.065-.222.321-0.187,0.418-0.475H0.771A1.9,1.9,0,0,1,.4,22.5a0.206,0.206,0,0,1-.088-0.151,0.136,0.136,0,0,0,.11,0V22.329a0.718,0.718,0,0,1-.066-0.086c-0.058-.037-0.1.066-0.132-0.086a0.318,0.318,0,0,0,.132-0.173l-0.176-.5H0.154a0.138,0.138,0,0,1-.022.086V21.379H0.044l-0.022-.043a0.118,0.118,0,0,0,.066-0.086A0.556,0.556,0,0,1,0,20.9H0.044a1.534,1.534,0,0,1,.572-0.173l-0.022-.842H1.409a1.07,1.07,0,0,1-.044-0.151l-0.132.022V19.694l0.132-.022V19.457H1.607a0.581,0.581,0,0,0,.066.238,0.635,0.635,0,0,1,.11-0.043,0.751,0.751,0,0,1,.044-0.281,0.446,0.446,0,0,0,.022.216V19.565a0.144,0.144,0,0,0,.022-0.086c0.727,0,1.544.015,2.2,0V19.392c0.71-.013,1.4-0.124,2.135-0.13a0.3,0.3,0,0,1-.044.151H6.318a0.253,0.253,0,0,1,.242-0.108c0.105,0.118.082-.014,0.176,0.043l0.022,0.086H7.177L7.2,19.5a0.127,0.127,0,0,0,.11-0.043H7.9l1.717-.022a0.1,0.1,0,0,1,.022-0.065,0.114,0.114,0,0,1,.066-0.022,0.7,0.7,0,0,0,.374.043V19.284a0.281,0.281,0,0,0-.22-0.13,3.352,3.352,0,0,0-.44-0.086,3.94,3.94,0,0,1-.771-0.648,1.155,1.155,0,0,1-.066-0.475,0.623,0.623,0,0,1-.11-0.216A0.651,0.651,0,0,0,9,17.341a0.386,0.386,0,0,1-.11-0.259H8.916a0.589,0.589,0,0,0,.286.151,1.354,1.354,0,0,1,.176-0.281,0.427,0.427,0,0,0,.308-0.194,1.384,1.384,0,0,1-.242-0.518c-0.1-.014-0.138-0.049-0.242-0.065V16.11a0.971,0.971,0,0,0-.242.065V16.11a0.87,0.87,0,0,1,.374-0.043,3.427,3.427,0,0,0,.9.3c0.069-.1.258-0.158,0.308-0.259,0.024-.049,0-0.117.022-0.151a0.329,0.329,0,0,0,.022.173,1.031,1.031,0,0,1,.55-0.194,0.446,0.446,0,0,1,.022-0.216,0.416,0.416,0,0,1,.418-0.086,0.163,0.163,0,0,0,.088.108,0.426,0.426,0,0,1,.308-0.043H12.9a0.333,0.333,0,0,0,.022-0.108,1.7,1.7,0,0,0,.837-0.216c0.148-.064.346-0.051,0.352-0.259H13.957a0.332,0.332,0,0,1-.286.216,0.226,0.226,0,0,1-.22-0.022,0.362,0.362,0,0,1-.22-0.3l-0.264-.238a1.252,1.252,0,0,1-.154-0.777,3.069,3.069,0,0,0,.594-0.086V13.713H13.121a2.485,2.485,0,0,1-.022-0.669,3.067,3.067,0,0,1,.793-0.022A0.454,0.454,0,0,1,13.913,13.173Z" transform="translate(0 0.5)"/>
</svg>
