<?xml version="1.0" encoding="utf-8"?>
<!-- Generator: Adobe Illustrator 16.0.0, SVG Export Plug-In . SVG Version: 6.00 Build 0)  -->
<!DOCTYPE svg PUBLIC "-//W3C//DTD SVG 1.1//EN" "http://www.w3.org/Graphics/SVG/1.1/DTD/svg11.dtd">
<svg version="1.1" id="Layer_1" xmlns="http://www.w3.org/2000/svg" xmlns:xlink="http://www.w3.org/1999/xlink" x="0px" y="0px"
	 width="40px" height="40px" viewBox="0 0 40 40" enable-background="new 0 0 40 40" xml:space="preserve">
<path id="Color_Fill_1" fill="#FFFFFF" d="M13.089,3.358c-0.008,0.069,0.006,0.14,0.041,0.2v-0.16h0.163v0.239
	c0.132,0.033,0.062-0.02,0.122,0.08c-0.046,0.236-0.061,0.478-0.041,0.718c-0.06,0.492,0.122,0.982,0.488,1.316
	c0.066,0.228,0.21,0.425,0.406,0.558c0.271,0.116,0.56,0.184,0.854,0.2c-0.02,0.8-0.414,1.446-0.488,2.233
	c0.111-0.028,0.228,0.021,0.285,0.12c-0.151,0.289-0.261,0.598-0.325,0.917c-0.529-0.172-1.073-0.292-1.626-0.359
	c-0.029-0.123-0.07-0.243-0.122-0.359c-0.053-0.054-1.31-0.649-1.423-0.678v0.239c0.039-0.019,0.083-0.019,0.122,0
	c0,0.1-0.053,0.035,0.041,0.12v-0.04l-0.041-0.04h0.081c0.1,0.168,0.258,0.245,0.366,0.4l0.163-0.08v0.279
	c-0.08,0.316-0.065,0.648,0.041,0.957c-0.132,0.033-0.062-0.02-0.122,0.08c0.066,0.137,0.081,0.292,0.041,0.439H12.6v0.319h3.05
	c0.074,0.206,0.074,0.432,0,0.638h0.2c0.042-0.197,0.056-0.399,0.041-0.6c-0.126-0.049-0.092-0.015-0.122-0.159
	c0.138,0,0.61-0.08,0.61-0.08c0.246,0.094,0.512,0.122,0.772,0.08c0.085-0.08,0.181-0.147,0.285-0.2h2.2v0.2h0.244v-0.2h2.154
	c0.114,0.034,0.214,0.104,0.284,0.2h0.936v-0.081h0.081l0.041,0.08h0.487c-0.036,0.2-0.076,0.078-0.121,0.159
	c-0.09,0.162,0.049,0.463-0.041,0.6c-0.252,0.063-0.515,0.077-0.771,0.04v0.12h0.528c-0.009,0.294-0.036,0.586-0.081,0.877h0.041
	c0.046-0.114,0.164-0.18,0.285-0.16c0.339,0.086,0.262,0.549,0.244,0.957c0.541,0.041,1.084,0.054,1.626,0.04
	c0.028-0.091,0.04-0.187,0.036-0.283c-0.127-0.081-0.031-0.228,0-0.4h0.326v-0.08c-0.016-0.052-0.016-0.107,0-0.159
	c-0.095-0.1-0.121,0.022-0.164-0.16c0.404-0.702,0.602-1.503,0.569-2.313h0.122c0.033-0.12,0.02-0.249-0.041-0.359
	c0.082-0.06,0.184-0.088,0.285-0.08c0.132-0.345,1.309-0.211,1.789-0.2v0.159l0.854,0.04c0.025,1.101,0.161,2.196,0.407,3.269
	l-0.123,1.083h0.081c0.512,0.173,1.064,0.187,1.585,0.04v0.08l-0.772,0.159c-0.022,0.327-0.039,0.735-0.041,1.116h-0.079
	c-0.017-0.143,0.019-0.1-0.081-0.16c-0.285,0.112-0.595,0.14-0.895,0.08c-0.021,0.316-0.078,0.582-0.08,0.957
	c-0.279,0.072-0.567,0.1-0.854,0.08v0.16c-0.568,0.09-1.149,0.063-1.707-0.08v0.278h-0.123v0.12h-2.399
	c-0.313-0.043-0.629-0.029-0.936,0.04c0.738,0,1.43,0,2.236,0c0.311,0.03,0.623,0.03,0.935,0c0.544,0.009,1.087-0.019,1.626-0.08
	c0.637-0.041,1.275-0.041,1.911,0c0.14-0.007,0.279,0.021,0.405,0.08c0.594,0.139,1.365-0.075,1.912,0.04h1.422
	c0.048-0.018,0.145-0.141,0.201-0.16h1.1c0.104-0.049,0.213-0.09,0.324-0.12v0.08c-0.033,0.062-0.047,0.131-0.041,0.2
	c0.045,0,0.088-0.014,0.123-0.04c0.068-0.178,0.096-0.368,0.08-0.558c0.106-0.047,0.215-0.086,0.326-0.121
	c0.055,0.057,0.123,0.099,0.199,0.121c0.028,0.24-0.009,0.334,0.041,0.6H36.5c0.01-0.017,0.023-0.03,0.041-0.04v0.12
	c0.613-0.016,1.225,0,1.911,0c0.04-0.184,0.054-0.371,0.041-0.559c0.08-0.514,0.094-1.037,0.041-1.555v-4.029
	c-0.054-0.518-0.039-1.041,0.041-1.555l0.081,7.7H38.9c-0.008-1.781,0.041-3.7,0.041-5.542c-0.068-0.69-0.054-1.386,0.041-2.073
	v7.058c0.078,0.33-0.026,1.01,0.08,1.315c0.055,0.089,0.122,0.17,0.201,0.239c0.045,0.197,0.045,0.402,0,0.6h-0.279
	c-0.019-0.096-0.045-0.188-0.082-0.279c-0.071,0.107-0.172,0.053-0.243,0.16c0.19,0.121-0.232,0.558-0.325,0.678h0.244
	c0.027,0.133,0.027,0.269,0,0.4l0.365,0.08c0.002-0.068,0.016-0.137,0.041-0.199h0.041c0.014,0.219,0.054,0.237,0.285,0.238
	c0.168,0.077,0.347,0.131,0.529,0.159v-0.08c0.08-0.06-0.023-0.058,0.122-0.08c0.024,0.063,0.038,0.132,0.041,0.2
	c-0.073,0.029-0.132,0.087-0.163,0.16h0.122c-0.129,0.317-0.196,0.656-0.2,1c-0.072,0.005-0.912,0.925-1.22,1.076
	c0.073,0.091,0.116,0.203,0.122,0.319c-0.059,0.069-0.064,0.163-0.122,0.239l-0.366,0.279c-0.292-0.029-0.579-0.098-0.854-0.2
	c-0.061,0.1-1,0.534-1.221,0.718c-0.019,0.016-0.356,0.641-0.406,0.758c-0.367,0.131-0.71,0.318-1.016,0.559
	c-0.125,0.016-0.247,0.043-0.367,0.08c-0.062,0.07-0.129,0.137-0.199,0.199c-0.107,0.045-0.2-0.007-0.285,0.041
	c-0.063,0.07-0.129,0.137-0.2,0.199c-0.058,0.013-0.118-0.002-0.163-0.04c-0.089,0.071-0.171,0.151-0.244,0.239l-0.324,0.04
	c-0.066,0.056-0.121,0.124-0.164,0.2c-0.133,0.035-0.269,0.063-0.405,0.08L32.205,26.1c-0.068,0.041-0.152-0.033-0.244,0
	c-0.102,0.071-0.197,0.151-0.285,0.239c-0.177-0.002-0.354,0.011-0.527,0.04v0.08c-0.133,0.064-0.922-0.085-1.139-0.04
	c-0.648,0.072-1.303,0.072-1.951,0c-0.39-0.088-0.746,0.121-1.138,0.04c-0.282-0.051-0.569-0.064-0.854-0.04
	c-0.166,0.034-0.342-0.043-0.568,0c-0.825,0.089-1.658,0.075-2.48-0.04c-0.191,0.006-0.383,0.032-0.568,0.08v-0.095
	c-0.227-0.101-0.301,0.174-0.528,0.079v-0.079c-0.167-0.015-0.335,0.013-0.487,0.079h-0.092v-0.079
	c-0.193-0.015-0.387,0.013-0.568,0.079v-0.079c-0.154-0.012-0.308,0.016-0.447,0.079c-0.047,0-0.1-0.064-0.163-0.079
	c-0.231-0.052-0.352,0.146-0.529,0.079v-0.079c-0.03-0.015-0.832,0.09-0.976,0.079c-0.716-0.049-1.55,0.029-2.439-0.039
	c-0.383-0.03-0.775,0.056-1.057,0l-0.406,0.039c-0.324-0.031-0.65-0.045-0.976-0.039c-0.091,0.033-0.188,0.047-0.285,0.039
	c-0.295-0.049-0.596-0.063-0.894-0.039c-0.077,0.031-0.161,0.045-0.244,0.039c-0.283-0.047-0.571-0.047-0.854,0
	c-0.11,0.01-0.221-0.004-0.325-0.039c-0.11-0.002-0.219,0.011-0.325,0.039c-0.285,0.018-0.584-0.033-0.854-0.039
	c-0.338,0.031-0.678,0.031-1.016,0c-0.367-0.084-0.891,0.139-1.138,0.039v-0.079c-0.081-0.019-0.162-0.032-0.244-0.04l-0.2,0.04
	c-0.181-0.176-0.405-0.3-0.65-0.359l-0.122-0.2c-0.138-0.046-0.274-0.099-0.407-0.158c-0.043-0.075-0.099-0.143-0.163-0.201
	c-0.138-0.031-0.274-0.072-0.407-0.119c0.016-0.057,0-0.117-0.041-0.159c-0.159-0.101-0.23,0.019-0.366-0.08
	c-0.05-0.055-0.079-0.126-0.081-0.2c-0.2-0.07-0.391-0.164-0.569-0.279c-0.036,0.026-0.079,0.041-0.122,0.041v-0.2
	c-0.177,0.008-0.1-0.083-0.244-0.16c-0.066-0.005-0.133-0.005-0.2,0c-0.129-0.19-0.021-0.44-0.329-0.476
	c0.034-0.074,0.048-0.156,0.041-0.238L3.7,23.454c-0.114,0.037-0.174,0.091-0.285,0.12c-0.089,0.012-0.179-0.019-0.244-0.08
	c-0.237-0.019-0.474,0.022-0.691,0.12c-0.077-0.489-0.077-0.986,0-1.476H2.4c-0.252,0.185-0.359-0.025-0.569-0.08V22.1
	c0.057,0.031,0.089,0.094,0.081,0.158c-0.017,0.01-0.031,0.023-0.041,0.04l-0.285,0.04c0,0.043-0.014,0.086-0.041,0.12v0.04
	c-0.214,0.043-0.432,0.07-0.65,0.08l-0.041-0.12h0.04c0.087,0.085,0.22,0.102,0.325,0.04l0.041-0.12
	c-0.146-0.089-0.138-0.244-0.284-0.319v0.039c-0.089,0.102-0.146,0.227-0.163,0.359v-0.04c-0.037-0.074-0.051-0.157-0.041-0.239
	c0.068-0.055,0.124-0.123,0.163-0.199c-0.062-0.033-0.131-0.047-0.2-0.041c-0.033-0.057-0.097-0.088-0.163-0.08v-0.159h0.119
	c0.019-0.07,0.045-0.138,0.081-0.2H0.2v-0.04H0.163v-0.12H0c0.029-0.141,0.061-0.076,0.081-0.12c0.013-0.358,0-0.718-0.04-1.073
	c0.246-0.101,0.518-0.115,0.772-0.041c-0.013-0.281-0.083-0.25-0.081-0.478l-0.285-0.042c-0.016-0.159-0.08-0.161,0.041-0.238
	c0.076-0.037,0.161-0.051,0.244-0.041c0-0.1-0.053-0.091,0.081-0.16c0.036-0.025,0.078-0.039,0.122-0.039
	c0.005-0.063,0.034-0.12,0.081-0.16H0.854v-0.236c0.095-0.01,0.19-0.01,0.285,0c0.151-0.261,0.252-0.248,0.732-0.238
	c0.343-0.252,0.754-0.391,1.179-0.4c-0.027-0.217,0-0.436,0.081-0.639v0.159h1.544c-0.004-0.056,0.01-0.112,0.041-0.159l0.041,0.678
	c0.44,0.01,0.877,0.077,1.3,0.201h0.976c0.056-0.037,0.111-0.078,0.163-0.121c0.132-0.027,0.771,0,1.138,0v-0.6h0.04
	c0.333,0.074,0.678,0.088,1.016,0.04c0.833,0,1.626,0.007,2.48,0v-0.8h0.081v0.12c1.081-0.005,3.314-0.321,4.228,0.04v-0.16h-0.163
	v-0.155c-1.856,0-3.539,0-5.529,0v0.12c-0.517,0.057-1.038-0.04-1.5-0.279c-0.063-0.233-0.076-0.479-0.041-0.718H8.78v-0.514H8.618
	v-1.519H8.78v-0.239c-0.346-0.212-0.673-0.452-0.98-0.718v-0.359c0.33,0.067,0.646,0.188,0.935,0.359v-1.436
	c0.101-0.102,0.209-0.195,0.325-0.279h1.55v-0.119c0.246,0.001,0.447-0.196,0.448-0.442c0-0.012,0-0.024-0.001-0.036h-0.122
	c0.034-0.091,0.061-0.184,0.081-0.279c-0.059-0.03-0.092-0.095-0.081-0.16h-0.2v-0.2H10.61V9.618h-0.325
	c-0.016-0.257-0.1-0.505-0.244-0.718V8.143c-0.05-0.57-0.05-1.144,0-1.714c0.089-0.264,0.349-0.551,0.447-0.837l0.2-1.077
	c0.022-0.029,0.133-0.051,0.163-0.08c0.313-0.216,0.497-0.576,0.488-0.957c-0.008-0.042-0.022-0.082-0.041-0.12
	c-0.016-0.165-0.159-0.288-0.325-0.279c-0.197,0.064-0.404,0.092-0.61,0.08c0,0.12,0.01,0.053-0.081,0.159H10.2
	c0-0.043-0.014-0.085-0.041-0.12c-0.044,0.043-0.102,0.071-0.163,0.08c0.005,0.161,0.022,0.218-0.081,0.279v-0.04
	C9.9,3.428,9.86,3.345,9.8,3.278l-0.041,0.04v-0.08C9.594,2.78,9.624,2.274,9.84,1.838c-0.034,0.439-0.021,0.88,0.041,1.316h0.038
	C9.831,2.718,9.845,2.268,9.96,1.838c-0.044,0-0.087-0.014-0.122-0.04h0.081c0.123-0.162,0.337-0.227,0.529-0.159
	c0.44-0.246,0.991-0.164,1.341,0.2c0.17,0.034,0.31,0.155,0.366,0.319c-0.021,0.021-0.036,0.049-0.041,0.08
	c-0.035-0.03-0.046-0.05-0.081-0.08v0.363c0.026,0.034,0.054,0.125,0.081,0.159c-0.016-0.108-0.001-0.218,0.041-0.319
	c-0.006,0.138,0.021,0.275,0.081,0.4c-0.226,0.021-0.425,0.156-0.528,0.359c-0.081,0.065-0.094,0.185-0.028,0.266
	c0.019,0.023,0.042,0.041,0.069,0.053C12.024,3.07,12.64,3.326,13.089,3.358z M10.854,1.643v0.08h0.041
	C10.891,1.692,10.876,1.664,10.854,1.643z M10.935,1.643c-0.051,0.142-0.051,0.297,0,0.439C10.961,1.937,10.961,1.788,10.935,1.643z
	 M11.016,1.643c-0.054,0.168-0.054,0.35,0,0.518C11.049,1.99,11.048,1.814,11.016,1.643z M11.097,1.643
	c-0.076,0.314-0.076,0.643,0,0.957c0.051-0.317,0.052-0.64,0.003-0.957H11.097z M11.178,1.643L11.137,2.6h0.083
	C11.269,2.281,11.255,1.956,11.178,1.643L11.178,1.643z M11.26,1.684c-0.055,0.358-0.042,0.723,0.04,1.076
	C11.355,2.402,11.342,2.037,11.26,1.684z M11.341,1.724c-0.033,0.333-0.019,0.67,0.041,1h0.041v-0.2
	C11.291,2.304,11.464,1.848,11.341,1.724L11.341,1.724z M10.325,1.764v0.08h0.041C10.362,1.813,10.348,1.785,10.325,1.764
	L10.325,1.764z M10.731,1.764c-0.004,0.056,0.01,0.112,0.041,0.159C10.777,1.867,10.763,1.811,10.731,1.764L10.731,1.764z
	 M10.812,1.764c-0.008,0.069,0.006,0.139,0.041,0.2C10.861,1.895,10.848,1.824,10.812,1.764L10.812,1.764z M11.462,1.804
	c-0.076,0.291-0.063,0.597,0.038,0.88C11.546,2.391,11.534,2.091,11.462,1.804L11.462,1.804z M10.362,1.884
	c0,0.044,0.014,0.086,0.041,0.12v-0.12h-0.037H10.362z M11.541,1.884c-0.036,0.24-0.022,0.484,0.041,0.718
	c0.037-0.239,0.024-0.484-0.037-0.718H11.541z M10.484,1.964c0,0.043,0.014,0.086,0.041,0.12V1.962h-0.037L10.484,1.964z
	 M11.622,2.004v0.517h0.081v-0.08c-0.053-0.093-0.018-0.346-0.077-0.439L11.622,2.004z M11.822,2.044
	c-0.014,0.152,0.017,0.305,0.089,0.44c0.026-0.152-0.003-0.309-0.082-0.442L11.822,2.044z M11.944,2.124v0.56h0.081
	c0.005-0.19-0.02-0.38-0.074-0.562L11.944,2.124z M10.806,2.244c-0.015,0.108-0.001,0.218,0.041,0.319
	c0.018-0.108,0.006-0.219-0.034-0.321L10.806,2.244z M10.399,2.324c-0.017,0.121-0.003,0.245,0.041,0.359
	c0.021-0.122,0.009-0.246-0.033-0.362L10.399,2.324z M10.887,2.324c-0.013,0.095,0.001,0.191,0.041,0.279
	c0.016-0.095,0.004-0.193-0.034-0.282L10.887,2.324z M10.968,2.324c-0.015,0.108-0.001,0.218,0.041,0.319
	c0.019-0.108,0.007-0.22-0.033-0.322L10.968,2.324z M10.488,2.484c-0.008,0.069,0.007,0.14,0.041,0.2
	C10.537,2.615,10.522,2.544,10.488,2.484z M10.569,2.723c-0.008,0.069,0.006,0.139,0.041,0.2c0.009-0.07-0.006-0.142-0.041-0.203
	V2.723z M11.504,2.923c-0.032,0.082-0.089,0.152-0.163,0.2c0-0.043-0.014-0.086-0.041-0.12v0.04h-0.04v0.04h0.04l0.122,0.159h0.041
	c0.052-0.102,0.093-0.209,0.122-0.319H11.5H11.504z M10.528,3.162h0.082v0.04c-0.031-0.005-0.06-0.02-0.081-0.043L10.528,3.162z
	 M10.447,3.401c0.056,0.099,0.056,0.22,0,0.319V3.398V3.401z M12.683,3.401c-0.013,0.055,0.058,0.058,0.081,0.08
	c0.029-0.046-0.07-0.071-0.081-0.083V3.401z M12.846,3.441v0.08h0.081V3.478h0.041v-0.04h-0.122V3.441z M10,3.557
	c0.045,0.024,0.076,0.069,0.081,0.12h-0.04v-0.04C10.019,3.615,10.005,3.587,10,3.557z M11.789,3.637
	c-0.035,0.048-0.062,0.102-0.081,0.159h0.041c0.03-0.049,0.072-0.09,0.122-0.12C11.849,3.655,11.82,3.641,11.789,3.637z
	 M10.122,3.717c0.022,0.022,0.036,0.05,0.041,0.08h-0.041V3.717z M11.789,3.797c-0.061,0.073-0.127,0.14-0.2,0.2h0.041
	c0.035,0.049,0.062,0.102,0.081,0.159c0.022-0.022,0.036-0.05,0.041-0.08C11.816,3.998,11.831,3.89,11.789,3.797z M12.765,3.797
	v0.08H12.8C12.797,3.847,12.785,3.819,12.765,3.797L12.765,3.797z M10.204,3.837c0.045,0.024,0.076,0.069,0.081,0.12h-0.041V3.916
	c-0.023-0.021-0.039-0.049-0.044-0.08L10.204,3.837z M10.285,3.957c0.099,0.065,0.17,0.164,0.2,0.279h-0.038V4.195h-0.04
	C10.359,4.119,10.318,4.039,10.285,3.957L10.285,3.957z M12.724,3.957v0.08h0.041C12.761,4.006,12.747,3.978,12.724,3.957
	L12.724,3.957z M11.383,3.997c-0.073,0.112-0.155,0.219-0.244,0.319h0.041V4.275C11.301,4.236,11.383,4.123,11.383,3.997
	L11.383,3.997z M11.5,4.036c-0.132,0.202-0.313,0.367-0.528,0.478v0.04l0.447,0.08c0.03-0.049,0.072-0.09,0.122-0.12v0.08
	c-0.033,0.02-0.061,0.048-0.081,0.08h0.081v-0.04c0.073-0.065,0.129-0.147,0.163-0.239h-0.037c-0.03,0.049-0.072,0.09-0.122,0.12
	v-0.08c0.101-0.095,0.105-0.254,0.011-0.355C11.539,4.063,11.521,4.048,11.5,4.036z M11.663,4.195c0,0.043,0.014,0.086,0.041,0.12
	c0.001-0.043-0.012-0.085-0.037-0.12H11.663z M10.484,4.235c0.045,0.024,0.076,0.069,0.081,0.12h-0.036v-0.04
	c-0.022-0.021-0.036-0.049-0.041-0.08H10.484z M11.338,4.235c0.022,0.021,0.037,0.05,0.041,0.08h-0.037v-0.08H11.338z M13.045,4.315
	c-0.01,0.082,0.004,0.166,0.041,0.239c0.012-0.082-0.001-0.165-0.037-0.239H13.045z M10.606,4.395
	c0.022,0.021,0.036,0.05,0.041,0.08H10.61v-0.08H10.606z M11.134,4.795c-0.039,0.046-0.066,0.101-0.081,0.159
	c0.064,0.095,0.147,0.176,0.244,0.239c0.053,0.053,0.125,0.082,0.2,0.08v-0.04c-0.063-0.073-0.118-0.153-0.163-0.239
	c-0.017-0.102-0.095-0.182-0.196-0.201L11.134,4.795z M11.3,5.073c0.014,0.012,0.081,0.021,0.041,0.08
	C11.3,5.133,11.215,5.084,11.3,5.073z M11.1,5.113v0.08C11.163,5.145,11.147,5.176,11.1,5.113L11.1,5.113z M11.019,5.95
	l-0.081,0.279h0.041c0.101-0.089,0.21-0.169,0.325-0.239V5.95H11.1c-0.074,0.034,0,0.009-0.084,0H11.019z M10.819,6.508
	c-0.09,0.362-0.047,0.745,0.122,1.077c0.063-0.355,0.09-0.716,0.081-1.077c-0.069,0.013-0.14,0.013-0.209,0H10.819z M11.104,6.548
	v0.08h0.041c-0.005-0.031-0.021-0.059-0.045-0.08H11.104z M10.904,6.748c0.042,0.044,0.042,0.114,0,0.159V6.748L10.904,6.748z
	 M10.863,7.107c0.043,0.044,0.043,0.115,0,0.159V7.107L10.863,7.107z M10.782,7.507l0.041,0.359h0.041V7.784
	c-0.004-0.1-0.036-0.196-0.092-0.279L10.782,7.507z M11.5,8.821c-0.046,0.1-0.061,0.211-0.041,0.319h0.244
	c0.021-0.051,0.035-0.104,0.041-0.159C11.644,8.927,11.609,8.867,11.5,8.821z M12.882,9.021c0.027,0.098,0.069,0.192,0.122,0.279
	c0.141-0.016,0.282,0.013,0.406,0.08V9.3h-0.036c-0.153-0.109-0.316-0.203-0.488-0.28L12.882,9.021z M11.825,9.061
	c-0.013,0.055,0.058,0.058,0.081,0.08c0.033-0.044-0.065-0.069-0.077-0.081L11.825,9.061z M10.443,9.141l-0.041,0.4h0.2
	c-0.007-0.133-0.007-0.267,0-0.4h-0.155H10.443z M12.11,11.135c0.074,0.05,0.17,0.05,0.244,0h-0.24H12.11z M12.517,11.135
	c-0.004,0.056,0.01,0.112,0.041,0.159c0.005-0.056-0.008-0.113-0.038-0.161L12.517,11.135z M23.293,12.884
	c-0.031,0.213-0.018,0.431,0.041,0.638C23.365,13.309,23.352,13.091,23.293,12.884z M23.374,13.562h0.487v-0.278H23.5v-0.277h-0.085
	c-0.011-0.017-0.024-0.03-0.041-0.04v0.6V13.562z M29.553,14.52c0.022,0.021,0.051,0.035,0.081,0.039
	c-0.022-0.02-0.051-0.033-0.081-0.037V14.52z M30.325,14.52c-0.009,0.242,0.019,0.483,0.081,0.717
	c0.055-0.24,0.025-0.492-0.081-0.715V14.52z M3.171,17.712v0.438c0.335,0,0.5-0.105,0.569-0.08c0.274,0.096,0.564,0.136,0.854,0.121
	v-0.08c0.038-0.131,0.065-0.266,0.081-0.4h-1.5L3.171,17.712z M4.756,18.189v0.08h0.691V18.23h-0.04v-0.041H4.756z M38.577,18.669
	v-0.2h-0.162c-0.03,0.049-0.072,0.091-0.122,0.12v0.04h0.081C38.436,18.662,38.507,18.676,38.577,18.669z M38.414,18.589H38.5v0.04
	C38.468,18.626,38.438,18.611,38.414,18.589L38.414,18.589z M0.528,18.789c0.044,0,0.087,0.014,0.122,0.04H0.61
	c-0.063,0.026-0.128,0.036-0.082-0.045V18.789z M38.211,18.789l-0.041,0.439h-0.121c0,0.043,0.014,0.086,0.041,0.119
	c0.184-0.166,0.348-0.354,0.488-0.558L38.211,18.789L38.211,18.789z M38.089,19.389l-0.041,0.2h0.082
	c0.009-0.071-0.005-0.143-0.041-0.205V19.389z M38.374,19.469c-0.005,0.057,0.01,0.112,0.041,0.159
	c0.005-0.057-0.01-0.113-0.041-0.161V19.469z M38.658,21.9l-0.041,0.08c0.072-0.058,0.042-0.082,0.042-0.082L38.658,21.9z
	 M1.5,22.059c-0.022,0.064-0.022,0.135,0,0.199c0.037-0.043,0.078-0.084,0.122-0.119v-0.041L1.5,22.059z M1.175,22.258
	c0.037,0.033,0.078,0.061,0.122,0.08c-0.024-0.044-0.068-0.074-0.118-0.08H1.175z M38.329,22.378c0,0.116-0.039,0.056,0,0.12
	l0.041,0.08c0.059-0.016,0.104-0.062,0.122-0.12h0.041c0.04-0.04-0.04-0.039-0.041-0.04c-0.048-0.029-0.104-0.043-0.159-0.041
	L38.329,22.378z M37.719,22.538c-0.063,0.035-0.13,0.062-0.199,0.08c-0.033,0.021-0.061,0.048-0.082,0.08
	c0.107,0.021,0.219,0.021,0.326,0v-0.161h-0.039L37.719,22.538z M33.979,24.332c0.035,0.063,0.062,0.131,0.082,0.2h0.041v-0.12
	c-0.022-0.021-0.037-0.05-0.041-0.08h-0.076H33.979z M18.003,24.452v0.159h-0.076c-0.097-0.093-0.238-0.123-0.366-0.079
	c-0.002,0.39-0.13,0.767-0.366,1.077h0.163c0.036,0.131,0.063,0.265,0.081,0.399h0.2l0.041-0.399h0.2v0.158h0.122v0.239h0.2
	l0.041-0.399c0.044,0,0.087-0.014,0.122-0.041c-0.248-0.332-0.309-0.768-0.163-1.155h-0.031c-0.049,0.03-0.106,0.044-0.163,0.04
	L18.003,24.452z M21.743,24.452v0.159h-0.076c-0.062-0.1-0.122-0.084-0.285-0.079c-0.041,0.473-0.276,0.907-0.649,1.2
	c0.065,0.076,0.096,0.178,0.08,0.279h0.123l0.041-0.4h0.199v0.158h0.2v0.239h0.081V25.93c0.041-0.102,0.056-0.211,0.041-0.32h0.2
	v0.16h0.2c-0.005,0.096,0.041,0.186,0.121,0.238c0.011-0.148,0.038-0.296,0.082-0.439c-0.164-0.361-0.221-0.762-0.164-1.155H21.87
	c-0.036,0.024-0.079,0.038-0.122,0.038L21.743,24.452z M25.443,24.452v0.159h-0.077c-0.06-0.1-0.052-0.072-0.2-0.079v0.159
	c-0.137-0.008-0.1-0.086-0.163,0.039c-0.092,0.137-0.042,0.361-0.122,0.519c-0.217,0.199-0.361,0.467-0.406,0.758h0.041v-0.241
	h0.199c-0.004,0.057,0.01,0.113,0.041,0.16l0.041-0.318H25l0.041,0.399h0.041v-0.241h0.2c-0.011,0.082,0.003,0.166,0.041,0.239
	v-0.399h0.2l0.041,0.399h0.045v-0.08c0.031-0.048,0.045-0.104,0.041-0.159h0.244c0.016-0.072,0.043-0.14,0.082-0.201
	c-0.023-0.084-0.172-0.19-0.201-0.278c-0.077-0.287-0.077-0.59,0-0.877L25.443,24.452z M29.264,24.452v0.159h-0.076
	c-0.06-0.1-0.051-0.072-0.201-0.079v0.159l-0.199-0.041c-0.042,0.691-0.471,0.758-0.488,1.356h0.122l0.041-0.239h0.163v-0.16h0.2
	l0.041,0.399h0.122v-0.241h0.162v-0.158h0.201v0.076c0.041,0.102,0.055,0.211,0.041,0.319h0.162v-0.237h0.163v-0.158
	c0.044,0,0.087-0.014,0.122-0.041c-0.266-0.322-0.342-0.762-0.199-1.155h-0.25c-0.036,0.025-0.078,0.04-0.123,0.04L29.264,24.452z
	 M33.085,24.452v0.159c-0.093-0.033-0.188-0.06-0.284-0.079v0.159h-0.076c-0.036-0.025-0.078-0.04-0.123-0.041v0.041h-0.041
	l-0.08,0.6c0.069,0.031,0.074,0.1,0.121,0.04c0.022-0.021,0.037-0.05,0.041-0.08c-0.043-0.043-0.071-0.099-0.08-0.159
	c0.123-0.065,0.213-0.182,0.244-0.318c0.03,0.004,0.059,0.018,0.08,0.039c0.055,0.09,0.123,0.17,0.2,0.239
	c0.022-0.021,0.036-0.05,0.041-0.079c-0.033-0.036-0.061-0.076-0.081-0.121c0.117-0.084,0.214-0.193,0.285-0.318v-0.04
	c0.041-0.04,0.04,0.039,0.041,0.04c0.1,0.082,0.133,0.199,0.244,0.279v-0.121c-0.026-0.033-0.041-0.076-0.041-0.119
	c0.03-0.004,0.059-0.019,0.081-0.04c0.058,0.017,0.113,0.044,0.163,0.079c-0.109-0.199-0.189-0.213-0.61-0.199
	c-0.035,0.025-0.077,0.039-0.121,0.039L33.085,24.452z M5.809,24.652c0.064,0.025,0.136,0.025,0.2,0
	c0.067-0.055,0.123-0.123,0.163-0.2H6.138c-0.105,0.037-0.22,0.037-0.325,0c0.012,0.065,0.012,0.132,0,0.198L5.809,24.652z
	 M6.622,24.452H6.341c0.02,0.1-0.119,0.366-0.081,0.399c0.038,0.035,0.115,0.073,0.163,0.121c0.031-0.005,0.059-0.019,0.081-0.041
	c0.075-0.149,0.116-0.313,0.122-0.48L6.622,24.452z M10.159,24.532c0,0.706-0.355,0.788-0.366,1.475
	c0.044,0.001,0.087-0.014,0.122-0.04c0.034-0.061,0.048-0.131,0.041-0.199h0.163v-0.16h0.2v0.399h0.163l0.041-0.239h0.127
	c-0.036-0.146-0.104-0.283-0.2-0.399c-0.077-0.272-0.091-0.559-0.041-0.837h-0.246L10.159,24.532z M13.533,26.007h0.284l0.041-0.399
	h0.2l0.041,0.399h0.291c-0.034-0.157,0.012-0.321,0.122-0.438c-0.223-0.266-0.313-0.617-0.244-0.957
	c-0.142-0.059-0.294-0.086-0.447-0.08v0.039c0.041,0.353-0.078,0.703-0.325,0.957c-0.022,0.066,0.044,0.343,0.041,0.479
	L13.533,26.007z M34.427,24.572c0.022,0.021,0.051,0.035,0.081,0.039c-0.021-0.021-0.047-0.035-0.076-0.041L34.427,24.572z
	 M5.403,24.691c0.006,0.132,0.113,0.236,0.244,0.24v-0.041h0.044c-0.083-0.082-0.179-0.15-0.284-0.201L5.403,24.691z M5.931,24.971
	l-0.041,0.16c0.098,0.021,0.184,0.078,0.244,0.159h0.045l0.041-0.159c-0.104-0.035-0.201-0.091-0.285-0.162L5.931,24.971z
	 M6.5,25.248c-0.02,0.044-0.047,0.085-0.081,0.12c0.004,0.03,0.019,0.059,0.041,0.08c0.072,0.066,0.154,0.12,0.244,0.159
	c0.004-0.029,0.019-0.059,0.041-0.08v-0.079C6.659,25.387,6.577,25.32,6.5,25.248z M16.907,26.006h0.2
	c0-0.121,0.013-0.241,0.041-0.359h-0.034c-0.092,0.068-0.174,0.148-0.244,0.24c0.026,0.033,0.041,0.076,0.041,0.119H16.907z
	 M13.007,26.006h0.285v-0.279h-0.04C13.144,25.792,13.059,25.89,13.007,26.006L13.007,26.006z M30.121,26.006v-0.122l-0.2-0.12v0.16
	c0.022,0.021,0.036,0.05,0.041,0.08h0.163L30.121,26.006z M14.633,25.807v0.159c0.092,0.028,0.188,0.042,0.285,0.04v-0.04
	C14.816,25.927,14.72,25.873,14.633,25.807L14.633,25.807z M26.098,25.807l0.041,0.199h0.041c0.018-0.076-0.014-0.156-0.08-0.199
	H26.098z M18.577,26.006c0.146-0.017,0.1,0.02,0.163-0.08c-0.059-0.018-0.114-0.045-0.163-0.08V26.006z M9.39,26.006
	c0.001-0.044-0.013-0.087-0.04-0.122c-0.022,0.021-0.051,0.036-0.081,0.04v0.08H9.39V26.006z M10.853,26.006h0.163v-0.04
	l-0.163-0.079V26.006z M24.186,25.887c0,0.043,0.015,0.085,0.041,0.119v-0.122h-0.039L24.186,25.887z M20.365,25.926
	c-0.031,0.027-0.091,0.053-0.122,0.08h0.163C20.402,25.976,20.388,25.947,20.365,25.926L20.365,25.926z M22.479,25.926v0.08
	c0.066-0.048,0.051-0.021,0.002-0.08H22.479z M16.422,25.966c0.046,0.042,0.117,0.042,0.163,0H16.422L16.422,25.966z"/>
</svg>
