<svg xmlns="http://www.w3.org/2000/svg" width="39.938" height="40" viewBox="0 0 39.938 40">
  <defs>
    <style>
      .cls-1 {
        fill: #fff;
        fill-rule: evenodd;
      }
    </style>
  </defs>
  <path id="ussr_t_28e_ico" class="cls-1" d="M25.968,13.234h0.108v0.088h1.838v0.353a0.393,0.393,0,0,1,.087.066h0.692a0.669,0.669,0,0,0,.108.088V13.763c-0.033-.043-0.032-0.107-0.065-0.154a2.621,2.621,0,0,0-.238-0.2h0.13c0.054,0.077.165,0.1,0.216,0.176a1.329,1.329,0,0,1,.087.683,3.983,3.983,0,0,0,1.168.044,0.637,0.637,0,0,1,.216.353h0.195a0.713,0.713,0,0,1,.065.4c-0.066.039-.186,0.054-0.238,0.088h0.022a1.726,1.726,0,0,0,.757.044,0.335,0.335,0,0,1,.043.088,0.151,0.151,0,0,1,.022.088c1.038,0,2.208.039,3.178,0.022a1.761,1.761,0,0,1,0,.661,0.49,0.49,0,0,1-.173-0.044l-3.005.044a0.232,0.232,0,0,1-.043.154,3.2,3.2,0,0,1-.822.022c-0.188.4-1.074,0-1.362,0.22a0.417,0.417,0,0,0-.022.2H28.822v-0.2H28.8a0.69,0.69,0,0,1-.627.132V16.8h0.259v-0.11a0.39,0.39,0,0,0,.086-0.066,0.518,0.518,0,0,1,.13.088,1.339,1.339,0,0,0,.173.022L28.8,16.8h1.254a0.108,0.108,0,0,1,.022-0.066,1.155,1.155,0,0,1,.454-0.022,0.834,0.834,0,0,0,.433.154v0.066a9.907,9.907,0,0,1,1.643.22l0.454-.022v0.176a0.178,0.178,0,0,1,.108.022,0.655,0.655,0,0,1,.13.066,2.823,2.823,0,0,0,.173.639h0.087v0.044c0.061,0.084.015,0.089,0,.2a1.135,1.135,0,0,0,.324.022c0.019-.011.975-0.021,1.1-0.022a0.481,0.481,0,0,1,.022.154,0.532,0.532,0,0,1-.173.022,3.318,3.318,0,0,0-.843-0.022v0.11h0.087v0.088l-0.3.022a0.236,0.236,0,0,0-.043.11,1.981,1.981,0,0,1,.195.507,2.438,2.438,0,0,0,.562.242,0.452,0.452,0,0,1,.5-0.22,0.647,0.647,0,0,1,.67-0.441V18.546H35.7v0.088a0.479,0.479,0,0,0-.022.22H35.87l-0.087,1.1h1.924a5.859,5.859,0,0,1,.822-0.022,2.392,2.392,0,0,1,.627.154l0.324,0.441a1.686,1.686,0,0,1,.346.242,0.571,0.571,0,0,1,.151.242,3.44,3.44,0,0,1-.865.375,0.521,0.521,0,0,0-.3.132h0.022v0.022c0.053-.013.064-0.052,0.087-0.022a1.41,1.41,0,0,0,.151.176,0.387,0.387,0,0,0-.065.088,1.091,1.091,0,0,1,.195.441c0.064-.008.045-0.044,0.086,0.022a0.291,0.291,0,0,1,.065.2H39.287l0.043,0.507h0.022a0.108,0.108,0,0,1,.065-0.022v0.22H39.33l-0.043.419h0.065c-0.013.105-.048,0.141-0.065,0.242a0.125,0.125,0,0,0-.086,0,1.319,1.319,0,0,0-.173.441l0.065,0.022a0.5,0.5,0,0,1-.13.242,0.133,0.133,0,0,0-.043-0.044,1.208,1.208,0,0,1-.324.617c-0.032-.021-0.047-0.079-0.065-0.044l-0.346.287a0.185,0.185,0,0,1,.043.066l-0.151.132H38.032a0.107,0.107,0,0,0-.022-0.066,1.29,1.29,0,0,1-.346.309,0.334,0.334,0,0,1,.043.088,1.007,1.007,0,0,1-.195.11,0.108,0.108,0,0,0-.022-0.066,0.926,0.926,0,0,1-.346.286,0.131,0.131,0,0,1,0,.088,0.722,0.722,0,0,1-.194.132l-0.022-.066a1.194,1.194,0,0,0-.389.264,0.125,0.125,0,0,0,0,.088c-0.09.029-.122,0.082-0.216,0.11a0.108,0.108,0,0,0-.022-0.066c-0.115.117-.3,0.167-0.411,0.287,0.029,0.038.037,0.035,0.022,0.066a0.372,0.372,0,0,1-.216.11,0.108,0.108,0,0,0-.022-0.066,1.982,1.982,0,0,0-.454.265c0.027,0.034.014,0.011,0,.044a0.505,0.505,0,0,1-.216.11c-0.018-.072.011-0.034-0.043-0.066a1.821,1.821,0,0,1-.433.22c0,0.074.047,0.053-.022,0.088a0.76,0.76,0,0,1-.195.11V27.824l-0.519.066v0.088H33.557V27.912H33.081v0.066H32.843l0.022-.066H32.389v0.066H32.151V27.912H31.676v0.066H31.46V27.912H30.984v0.066H30.768a0.6,0.6,0,0,0-.476-0.066v0.066H30.054l0.022-.066H29.6v0.066H29.384V27.912H28.908v0.066H28.692V27.912H28.216v0.066H28V27.912H27.524v0.066H27.287V27.912H26.832v0.066H26.595l0.022-.066H26.141v0.066H25.9V27.912H25.427v0.066H25.211a0.6,0.6,0,0,0-.476-0.066v0.066H24.5V27.912H24.022v0.066H23.805V27.912H23.33v0.066H23.114V27.912H22.638v0.066H22.4l0.022-.066H21.946v0.066H21.708V27.912H21.254v0.066H21.016V27.912H20.541c0,0.1-.069.079-0.216,0.066V27.912H19.849v0.066H19.632V27.912H19.157v0.066H18.919l0.022-.066H18.465v0.066H18.227l0.022-.066H17.773v0.066H17.557V27.912H17.081v0.066H16.843l0.022-.066H16.389v0.066H16.151V27.912H15.676v0.066H15.46V27.912H14.984v0.066H14.746V27.912H14.27v0.066H14.054a0.6,0.6,0,0,0-.476-0.066v0.066H13.341V27.912H12.865c0,0.1-.069.079-0.216,0.066V27.912H12.173v0.066H11.957V27.912H11.481v0.066H11.243l0.022-.066H10.789v0.066H10.551V27.912H10.1v0.066H9.859V27.912H9.405v0.066H9.168V27.912H8.692c0,0.1-.069.079-0.216,0.066V27.912H8v0.066H7.762V27.912H7.286v0.066H7.049l0.022-.066h-0.5v0.066H6.357V27.912a2.5,2.5,0,0,1-.5-0.088,0.144,0.144,0,0,1-.022.088A0.5,0.5,0,0,0,5.6,27.868V27.846a0.254,0.254,0,0,0,.043-0.066A1.663,1.663,0,0,1,5.168,27.6c-0.018.072,0.011,0.034-.043,0.066a0.46,0.46,0,0,1-.195-0.132,0.133,0.133,0,0,0,.043-0.044,1.532,1.532,0,0,1-.454-0.2c-0.024.063,0,.041-0.065,0.066l-0.173-.088L4.3,27.185H4.281a3.2,3.2,0,0,0-.432-0.242v0.066a0.456,0.456,0,0,1-.238-0.11,0.125,0.125,0,0,0,.022-0.088,0.937,0.937,0,0,0-.259-0.132A0.265,0.265,0,0,0,3.2,26.59a0.181,0.181,0,0,1-.065.044,0.452,0.452,0,0,0-.173-0.11,0.132,0.132,0,0,0,0-.088c-0.109-.1-0.283-0.137-0.389-0.243-0.067.019-.059,0.043-0.108,0.022a0.4,0.4,0,0,1-.173-0.11,0.085,0.085,0,0,0,.043-0.066A3.24,3.24,0,0,0,1.946,25.8c-0.029.051-.026,0.04-0.043,0.044a0.292,0.292,0,0,1-.173-0.22,2.823,2.823,0,0,1-.324-0.22c-0.034.021-.065,0.08-0.086,0.044-0.159-.081-0.1-0.174-0.216-0.22a0.708,0.708,0,0,1-.562.088A0.535,0.535,0,0,1,.3,24.716c0.028-.073.1-0.135,0.13-0.22a0.2,0.2,0,0,1-.065-0.132c-0.061.007-.045,0.023-0.086,0a0.591,0.591,0,0,1-.108-0.242H0.238a0.108,0.108,0,0,0-.022-0.066C0.118,24,.072,24.067.065,23.9c-0.005-.021-0.017-0.008,0-0.022a0.4,0.4,0,0,1,.108-0.066,0.649,0.649,0,0,1-.022-0.2H0.13a0.109,0.109,0,0,1-.065.022,1.152,1.152,0,0,0,0-.419,0.077,0.077,0,0,1-.043-0.11,0.53,0.53,0,0,1,.086-0.066l0.022-.331A1.234,1.234,0,0,0,.238,22.6L0.3,21.9H0.238l0.022-.242H0.324V21.609a1.013,1.013,0,0,0,.043-0.242H0.3c-0.018-.072.011-0.034-0.043-0.066a0.41,0.41,0,0,1-.173.11,0.827,0.827,0,0,0-.022-0.242h0.13a0.412,0.412,0,0,0,.216-0.242,0.519,0.519,0,0,0,.432-0.2C0.91,20.746.9,20.77,0.951,20.749a0.865,0.865,0,0,0,.043-0.485,1.533,1.533,0,0,0,0-.176c0.04-.162.093-0.349,0.151-0.529s0.183-.322.238-0.485a0.359,0.359,0,0,0-.022-0.11,2.931,2.931,0,0,1,.973-0.485V18.347a2.226,2.226,0,0,1,.454-0.154,0.256,0.256,0,0,1,.043.066,2.276,2.276,0,0,0,.735-0.353,0.359,0.359,0,0,1-.022-0.4,1.477,1.477,0,0,1,.865-0.2,0.6,0.6,0,0,0,.108.265,1.092,1.092,0,0,1,.476-0.2V17.245a2.39,2.39,0,0,1,.454-0.154,0.255,0.255,0,0,1,.043.066,4.426,4.426,0,0,1,.454-0.2,2.64,2.64,0,0,1,1.341.22,1.381,1.381,0,0,1,1.016.529,1.4,1.4,0,0,1,.389-0.022V17.642A0.638,0.638,0,0,1,8.5,16.959a0.525,0.525,0,0,0,.043-0.242,0.594,0.594,0,0,1,.411-0.242l-0.022-.2A0.2,0.2,0,0,0,9.1,16.209h1.081a2.992,2.992,0,0,1,.259.176h0.476a1.691,1.691,0,0,1,.173.176h7.416V16.276H15.87V16.121c-0.23-.1-0.185-0.251-0.173-0.573a0.479,0.479,0,0,0,.022-0.22c-0.3,0-.623,0-0.886-0.022V15.218h0.087v-0.11c-0.336,0-.689.016-0.995,0.022a0.482,0.482,0,0,1-.022-0.154,0.532,0.532,0,0,1,.173-0.022,1.4,1.4,0,0,0,.519.022c0.383,0,.709,0,1.124,0L15.7,13.939c0.233-.054.185-0.332,0.173-0.617h3.113a0.744,0.744,0,0,0,.043-0.2H18.681V13.036a0.341,0.341,0,0,0,.216-0.242l-0.216-.309a0.11,0.11,0,0,1,.108-0.066,1.769,1.769,0,0,0,1.34.287v0.176h1.643V12.793H21.708V12.705h0.368v0.088H21.989v0.088h0.065a0.236,0.236,0,0,1,.043.11H22.7v-0.2a0.391,0.391,0,0,0-.13-0.022,0.133,0.133,0,0,1-.043.044V12.771a0.188,0.188,0,0,1,.087-0.066,0.11,0.11,0,0,1,.065-0.022,0.749,0.749,0,0,1,.108.088c0.032,0.062.009,0.128,0.043,0.176a0.077,0.077,0,0,1,.043-0.022V12.838h0.411l0.022,0.33h0.13c0-.14.021-0.093,0.022-0.242a0.82,0.82,0,0,0,.151-0.044c0.034,0.115.075,0.048,0.108,0.11a0.456,0.456,0,0,1,.086.242h0.26V13.19a0.791,0.791,0,0,1,.259.044,1.059,1.059,0,0,0,.389-0.044c0.043-.017.2,0.043,0.3,0.044a8.052,8.052,0,0,1,.151-1.1,0.539,0.539,0,0,1,.541-0.11,0.493,0.493,0,0,1,.086.132,0.838,0.838,0,0,1,.022.176A3.2,3.2,0,0,1,25.968,13.234Z" transform="translate(-0.031 0.016)"/>
</svg>
