<svg xmlns="http://www.w3.org/2000/svg" width="40" height="40" viewBox="0 0 40 40">
  <defs>
    <style>
      .cls-1 {
        fill: #fff;
        fill-rule: evenodd;
      }
    </style>
  </defs>
  <path id="ussr_t_80u_ico" class="cls-1" d="M10.424,21.106c0.084,0.022.04-.013,0.078,0.052a0.226,0.226,0,0,0-.026.13,0.552,0.552,0,0,0,.287-0.13,1.777,1.777,0,0,1,.417-0.078,3.455,3.455,0,0,1,.573.131l-0.052.418,0.339-.052a0.83,0.83,0,0,1,0-.183h0.078a0.822,0.822,0,0,0,.547.026A0.377,0.377,0,0,0,12.795,21h0.5V20.923h0.1a0.61,0.61,0,0,0,.156.261,0.133,0.133,0,0,1,.078-0.026,0.126,0.126,0,0,1,.026-0.078,2.261,2.261,0,0,1,.235-0.131c0.032,0.081.01,0.059,0.1,0.078a0.734,0.734,0,0,1,.547-0.157v0.078h0.078a2.39,2.39,0,0,1,0-.418,0.3,0.3,0,0,1,.182-0.052V20.322a0.272,0.272,0,0,1,.156-0.052,0.5,0.5,0,0,0,.469-0.052,0.133,0.133,0,0,0,.026-0.078c0.152-.021.239-0.106,0.417-0.131a0.375,0.375,0,0,1,.026-0.131,0.331,0.331,0,0,0,.261.026V19.356H16a1.931,1.931,0,0,1-.026-0.522A0.176,0.176,0,0,0,16,18.73c0.26,0,.479-0.038.677-0.052,0.021,0.1.083,0.2,0.1,0.287l-0.052.392a3.621,3.621,0,0,1-.417.026,1.932,1.932,0,0,0-.026.522c0.358,0.01.741,0.017,1.095,0a0.361,0.361,0,0,0,.443.183V20.035a0.557,0.557,0,0,1-.182-0.052h0.026a0.782,0.782,0,0,1,.339-0.026,0.074,0.074,0,0,0,.026.026,0.219,0.219,0,0,0,.026.13,0.863,0.863,0,0,0,.365.026l2.345,0.1a0.126,0.126,0,0,1,.026-0.078,0.133,0.133,0,0,1,.078-0.026,0.344,0.344,0,0,0,.182.026v0.078c0.468,0,.822,0,1.251,0v0.183c-0.556-.006-1.211-0.076-1.85-0.078v0.1a1.94,1.94,0,0,1-.7-0.052v0.1c-0.6,0-1.171,0-1.746,0v0.078c-0.241.01-.53,0.026-0.808,0.026a2.73,2.73,0,0,0,.182.679H17.329a1.838,1.838,0,0,1-1.147.1V21.314a0.3,0.3,0,0,0-.235.052,0.278,0.278,0,0,1,.156.209,0.687,0.687,0,0,0-.13.313H16.1v0.078h0.078v-0.1a4.932,4.932,0,0,0,1.12-.052,0.094,0.094,0,0,1,.026.052l-0.026.026h0.052a1.972,1.972,0,0,1,.547-0.131v0.835h0.052c0.041-.059.043-0.055,0.078-0.052a0.279,0.279,0,0,0,.182.078c0.125-.231.462-0.05,0.651,0,0.106,0.028.117-.067,0.156-0.026a0.239,0.239,0,0,0,.13.078,0.468,0.468,0,0,1,.078-0.1v0.026a0.364,0.364,0,0,0,.182.1,0.2,0.2,0,0,1,.1-0.1c0.025,0.038.075,0.124,0.1,0.078a0.541,0.541,0,0,1,.287-0.131,0.817,0.817,0,0,0,.886.209v0.1H20.43v0.026h0.026c0.076,0.053.221-.006,0.313,0.052l0.026,0.1a1.317,1.317,0,0,0,.573-0.052c0.1,0.033.1,0.053,0.1,0.183a1.321,1.321,0,0,0-.339.287v0.052H21.5a3.143,3.143,0,0,0,.808.052,2.792,2.792,0,0,0,.7.052,0.429,0.429,0,0,1,.261-0.052,0.532,0.532,0,0,0,.261.078v-0.1l2.84,0.1v0.078l0.208,0.026V23.664h0.156v0.078h0.235V23.664l2.945,0.1v0.078c0.188,0,.226-0.043.391-0.052v0.078h0.13V23.795a3.319,3.319,0,0,1,.756-0.052c0.278,0.06.679-.041,0.99,0.026a7.849,7.849,0,0,0,1.485.052v0.1H33.72c0.011-.093-0.012-0.066.052-0.1v0.157a1.627,1.627,0,0,0,.339-0.026V23.873a1.922,1.922,0,0,0,.417.078V23.873l2.137,0.052v0.1a1.78,1.78,0,0,1,.365-0.052V24.03a1,1,0,0,0,.209.026v-0.1L39.088,24V24.03a0.134,0.134,0,0,0-.026.078h0.182a0.126,0.126,0,0,1,.026-0.078,1.419,1.419,0,0,0,.73.131v0.679a1.067,1.067,0,0,1-.313.026,0.848,0.848,0,0,0-.391.026c-0.45-.037-0.951-0.051-1.459-0.052a7.219,7.219,0,0,1-1.433-.052c-0.368-.082-0.837.049-1.173-0.026H34.059a1.108,1.108,0,0,0-.313-0.052v0.157H33.694c-0.011-.093.012-0.066-0.052-0.1v0.1l-0.182-.026a0.232,0.232,0,0,1-.156.078,0.263,0.263,0,0,0-.182-0.078v0.026h0.026c0.05,0.02-.052.026-0.052,0.026a1.189,1.189,0,0,0-.521-0.052c-0.265-.056-0.632,0-0.938-0.026s-0.7-.028-1.042-0.026v-0.1a0.191,0.191,0,0,1-.13.026,0.134,0.134,0,0,1-.026-0.078c-2.794.043-5.643-.129-8.469-0.131v0.052a0.279,0.279,0,0,1,.078.339,6.155,6.155,0,0,0,.651.026v0.052a0.133,0.133,0,0,0-.026.078H22.7V25.022a0.479,0.479,0,0,0,.13,0,0.168,0.168,0,0,1,.13.131c0.078-.033.086-0.083,0.156-0.052s0.037,0.089.1,0.13a0.27,0.27,0,0,0,.156.052,0.475,0.475,0,0,1,.5-0.13v0.13l0.261-.026a0.347,0.347,0,0,0,.13.1H24.7V25.309c0.02-.009.469,0.092,0.521,0.1a3.44,3.44,0,0,0,.678-0.052l0.026,0.052c0.264,0.093.594,0.087,0.86,0.157l0.5,0.052,0.13,0.157a1.924,1.924,0,0,0,.443.026,1.05,1.05,0,0,1,.521.444c0.2,0.273.461,0.525,0.651,0.809a0.82,0.82,0,0,1,.156.313,1.915,1.915,0,0,1-.6.5,0.74,0.74,0,0,1-.365,0v0.1h0.026a0.133,0.133,0,0,1,.078-0.026,0.577,0.577,0,0,1-.13.313c0.046,0.049.048,0.021,0.026,0.078a0.166,0.166,0,0,1-.13.157,0.126,0.126,0,0,0-.026-0.078,0.073,0.073,0,0,1-.026.026,0.768,0.768,0,0,1-.1.157,0.226,0.226,0,0,1,.078.1,0.519,0.519,0,0,0-.156.157l-0.078-.052a1.23,1.23,0,0,1-.156.287c-0.049.18,0.025,0.425-.026,0.574H27.544V29.616a2.476,2.476,0,0,1,0-.679H27.518a1.345,1.345,0,0,1-.156.1,0.161,0.161,0,0,1,.052.1,0.452,0.452,0,0,0-.1.078,0.225,0.225,0,0,1-.13-0.026,0.345,0.345,0,0,1-.183.183,0.329,0.329,0,0,0-.026-0.1l-0.209.1c0.12,0.192-.1.172-0.209,0.209,0.011,0.059.024,0.028,0,.078-0.019.023-.033,0.029-0.052,0.052a0.284,0.284,0,0,0-.182-0.052,0.411,0.411,0,0,0-.1.13c-0.02.045,0.039,0.014,0,.078a0.1,0.1,0,0,1-.078.052s-0.034-.075-0.052-0.052V29.9a0.462,0.462,0,0,0-.1.052c0.023,0.045.023,0.033,0,.078a0.134,0.134,0,0,1-.078.026c-0.033-.076.03-0.054-0.078-0.078a0.987,0.987,0,0,0-.182.157H25.616v0.026c0.085,0.022.04-.013,0.078,0.052a0.276,0.276,0,0,1-.13.052c-0.014-.034,0-0.019-0.026-0.026a0.46,0.46,0,0,0-.1.052c0.023,0.045.023,0.033,0,.078a0.132,0.132,0,0,1-.078.026,0.284,0.284,0,0,0-.052-0.078,0.8,0.8,0,0,0-.235.183h0.078v0.078H25.095a0.317,0.317,0,0,1-.1,0,1.066,1.066,0,0,1-.156.157v0.026H24.808V30.739c-0.053-.07.025-0.062-0.1-0.078a0.5,0.5,0,0,0-.182.131,0.146,0.146,0,0,0,0,.1c-0.133,0-.072.019-0.156-0.052a0.269,0.269,0,0,1-.235.1A0.22,0.22,0,0,1,24.1,30.9a0.206,0.206,0,0,0-.13.026c-0.048-.045.024-0.043-0.052-0.078a0.667,0.667,0,0,1-.1.026,0.369,0.369,0,0,1,.026.1c-0.209,0-.383,0-0.6,0a0.332,0.332,0,0,1,.026-0.1H23.14V30.9a0.133,0.133,0,0,1,.026.078h-0.13c-0.021-.085.013-0.04-0.052-0.078-0.063.163-.206,0.04-0.287,0-0.033.084-.023,0.069-0.13,0.078l-0.026-.052a0.159,0.159,0,0,0,.052-0.052H22.541c-0.04-.018,0,0-0.078,0V30.9a0.133,0.133,0,0,1,.026.078h-0.13V30.9H22.28v0.078H22.072V30.9a0.126,0.126,0,0,0-.078.026,0.094,0.094,0,0,1,.026.052H21.863a0.329,0.329,0,0,1,.026-0.1h-0.1V30.9a0.133,0.133,0,0,1,.026.078h-0.13V30.9H21.6v0.078H21.394V30.9c-0.121.03-.048,0.054-0.1,0.078a0.229,0.229,0,0,1-.156-0.052c-0.062.053,0.009,0.047-.13,0.052V30.9H20.9v0.078H20.717V30.9H20.638v0.078H20.482a0.329,0.329,0,0,1,.026-0.1H20.4V30.9a0.133,0.133,0,0,1,.026.078,1.925,1.925,0,0,1-.209-0.078l-0.026.078H20.013a0.1,0.1,0,0,0-.1-0.078v0.078h-0.13a0.332,0.332,0,0,1,.026-0.1H19.7V30.9a0.133,0.133,0,0,1,.026.078H19.57V30.9H19.492v0.078H19.283V30.9H19.205v0.078H19.049a0.329,0.329,0,0,1,.026-0.1h-0.1V30.9a0.133,0.133,0,0,1,.026.078h-0.13c-0.033-.076.03-0.054-0.078-0.078-0.039.1-.1,0.085-0.235,0.078V30.9H18.476v0.078a0.3,0.3,0,0,1-.156-0.052,0.8,0.8,0,0,1-.182.052V30.9H18.059v0.078H17.85V30.9H17.772v0.078H17.616a0.332,0.332,0,0,1,.026-0.1h-0.1V30.9a0.134,0.134,0,0,1,.026.078,0.653,0.653,0,0,1-.235-0.078v0.078a0.682,0.682,0,0,1-.287-0.078v0.078a0.23,0.23,0,0,1-.182-0.052c-0.047.053-.026,0.048-0.13,0.052V30.9h-0.1v0.078H16.443V30.9a1.23,1.23,0,0,1-.391.078V30.9h-0.1v0.078H15.766V30.9h-0.1v0.078c-0.14,0-.068-0.01-0.13-0.052a0.241,0.241,0,0,1-.156.052c-0.053-.022.014-0.048-0.1-0.078-0.062.159-.179,0.04-0.261,0a0.362,0.362,0,0,1-.339.078V30.9h-0.1v0.078a0.644,0.644,0,0,1-.261-0.078c-0.048.117-.1,0.073-0.182,0.026-0.024.071-.043,0.053-0.13,0.052V30.9h-0.1v0.078a0.165,0.165,0,0,1-.183-0.078c-0.094-.038-0.069.063-0.1,0.078a1.307,1.307,0,0,1-.287,0V30.9a1.5,1.5,0,0,1-.287.078V30.9h-0.1v0.078c-0.14-.006-0.067,0-0.13-0.052a0.164,0.164,0,0,1-.156.052c-0.035-.013-0.01-0.117-0.1-0.078-0.055.023,0.016,0.072-.182,0.078V30.9c-0.128.027-.049,0.047-0.1,0.078a0.09,0.09,0,0,1-.13-0.052c-0.035-.015-0.04.049-0.052,0.052-0.137.032-.1-0.117-0.208-0.078-0.043.016,0.016,0.074-.182,0.078V30.9a2.372,2.372,0,0,1-.417.078V30.9a0.717,0.717,0,0,1-.261.078c-0.032-.081-0.01-0.059-0.1-0.078v0.078a1.886,1.886,0,0,1-.287,0c-0.043-.017,0-0.106-0.1-0.078l-0.026.078c-0.143.072-.187-0.1-0.261-0.078a0.119,0.119,0,0,1-.13.078c-0.027-.091.032-0.1-0.078-0.131V30.87H9.98c0.01,0.059.024,0.028,0,.078a0.176,0.176,0,0,1-.1.026A0.113,0.113,0,0,0,9.8,30.9v0.078c-0.24,0-.22,0-0.417,0a0.33,0.33,0,0,1,.026-0.1H9.355a0.119,0.119,0,0,0-.1.026c0.032,0.041.017,0.013,0,.052a0.176,0.176,0,0,1-.1.026,1.1,1.1,0,0,0-.417,0V30.948H8.7c0-.076.025-0.036,0-0.078a0.282,0.282,0,0,0-.156-0.026V30.87H8.521c0.044,0.077.027,0,.026,0.1H8.313a0.594,0.594,0,0,0-.287,0,0.154,0.154,0,0,0,0-.1,0.41,0.41,0,0,0-.208-0.026V30.87H7.792c0.044,0.077.027,0,.026,0.1A0.682,0.682,0,0,1,7.531,30.9c-0.036.091-.059,0.08-0.182,0.078a0.154,0.154,0,0,0,0-.1,0.394,0.394,0,0,0-.287,0c0.037,0.062.044,0.015,0.026,0.078a0.226,0.226,0,0,1-.13.026C6.916,30.9,6.934,30.908,6.827,30.9c-0.044.076-.038,0.073-0.156,0.078a0.607,0.607,0,0,0-.026-0.1,0.629,0.629,0,0,0-.287-0.026,0.144,0.144,0,0,1,0,.1,0.407,0.407,0,0,0-.13-0.026V30.843a0.556,0.556,0,0,1-.13-0.052,0.115,0.115,0,0,1-.026.052,0.177,0.177,0,0,1-.13,0l0.026-.131a0.521,0.521,0,0,0-.287-0.1,0.088,0.088,0,0,1,0,.078H5.629a0.461,0.461,0,0,1-.078-0.1,0.1,0.1,0,0,0,.026-0.052A0.1,0.1,0,0,1,5.5,30.478a0.138,0.138,0,0,1-.13.026,0.37,0.37,0,0,1-.026-0.1c0.064-.034.018,0.011,0.052-0.052a0.825,0.825,0,0,0-.287-0.157,0.144,0.144,0,0,1,0,.1,0.318,0.318,0,0,1-.1-0.1,0.16,0.16,0,0,0,.052-0.052,0.4,0.4,0,0,1-.287-0.1,0.114,0.114,0,0,0,.078-0.078A0.456,0.456,0,0,0,4.56,29.8c0,0.083.037,0.049-.052,0.078a0.223,0.223,0,0,0-.261-0.183,0.308,0.308,0,0,0-.1-0.235,0.3,0.3,0,0,0-.13-0.052,0.088,0.088,0,0,1,0,.078H3.961l-0.13-.209c-0.045.02-.048,0.069-0.078,0.026a0.2,0.2,0,0,1-.13-0.183,0.094,0.094,0,0,0,.026-0.052,0.461,0.461,0,0,1-.182-0.078c0,0.076.025,0.036,0,.078a0.094,0.094,0,0,1-.052.026c-0.1-.147-0.294-0.168-0.365-0.287L3.023,28.65H2.945c-0.109-.068-0.312-0.033-0.417-0.1a3.06,3.06,0,0,1-.391-0.47,2.282,2.282,0,0,0-.026-0.261,1.029,1.029,0,0,1-.339.261V28.05a0.344,0.344,0,0,1-.1-0.157,0.494,0.494,0,0,0,.261-0.235,0.158,0.158,0,0,1-.156,0c-0.023-.019-0.029-0.033-0.052-0.052a1.558,1.558,0,0,0,.13-0.261H1.824V27.319a0.55,0.55,0,0,1-.391.287A0.411,0.411,0,0,1,.964,27.4a0.99,0.99,0,0,1,.052-0.809c-0.295.016-.379,0.024-0.365-0.313a0.938,0.938,0,0,1,0-.47l-0.365-.026a2.09,2.09,0,0,1,0-.235H0.625L0.6,25.413l-0.5-.052a0.3,0.3,0,0,1-.052-0.183A0.749,0.749,0,0,1,0,25.048H0.1a1.12,1.12,0,0,0,.938,0c0.065-.029.15-0.138,0.208-0.157,0.038-.012.436,0,0.521,0,0-.109.045-0.085,0.208-0.078a3.737,3.737,0,0,1,.886-0.052A16.229,16.229,0,0,1,6.2,24.5c0.031,0.114.064,0.11,0.208,0.1a0.2,0.2,0,0,0,.078-0.078,0.217,0.217,0,0,1-.13-0.026,0.558,0.558,0,0,0,.026-0.261h0.1a3.079,3.079,0,0,0-.026-0.418l0.182-.026V23.742a2.418,2.418,0,0,0,.026-0.835,0.486,0.486,0,0,1,.391-0.183V22.489a2.012,2.012,0,0,1,.339.052l0.026-.13a0.752,0.752,0,0,1-.287-0.444,0.407,0.407,0,0,1,.13-0.026,0.732,0.732,0,0,0,.521-0.1c0.162-.053.478,0.013,0.651-0.052a2.019,2.019,0,0,1,.938-0.078,2.848,2.848,0,0,0,0-.5H9.407v0.026a0.191,0.191,0,0,0,.208.1V21.262l0.052-.026V21.21H9.694v0.052a0.159,0.159,0,0,0-.052.052H9.954a0.483,0.483,0,0,0,.235.026V21.21H10.111C10.1,21.137,10,21.152,9.85,21.158a0.973,0.973,0,0,1-.078-0.548,1.158,1.158,0,0,0,.078-0.157,1.067,1.067,0,0,1,.5.131V18.417a1.735,1.735,0,0,0,.026-0.627V8.627A1.735,1.735,0,0,1,10.4,8Zm-8.834,6.5a0.169,0.169,0,0,1,.1.026A0.168,0.168,0,0,1,1.59,27.606Z" transform="translate(0 0.5)"/>
</svg>
