<?xml version="1.0" encoding="utf-8"?>
<!-- Generator: Adobe Illustrator 16.0.0, SVG Export Plug-In . SVG Version: 6.00 Build 0)  -->
<!DOCTYPE svg PUBLIC "-//W3C//DTD SVG 1.1//EN" "http://www.w3.org/Graphics/SVG/1.1/DTD/svg11.dtd">
<svg version="1.1" id="Layer_1" xmlns="http://www.w3.org/2000/svg" xmlns:xlink="http://www.w3.org/1999/xlink" x="0px" y="0px"
	 width="40px" height="40px" viewBox="0 0 40 40" enable-background="new 0 0 40 40" xml:space="preserve">
<path id="ussr_t_60_1941_ico" fill="#FFFFFF" d="M23.557,12.199v-0.47h0.025c0.307,0.208,0.645,0.366,1,0.47
	c-0.002,0.091,0.007,0.182,0.025,0.271H25c0.264,0.056,0.534,0.064,0.8,0.025h2.11v-0.1h0.322v0.42h0.25v0.05h8.607v0.47h-8.757
	v0.025c0.081,0.1-0.053,0.049-0.024,0.148c0.025,0.045,0.043,0.096,0.049,0.148c-0.114,0.121-0.283,0.177-0.447,0.149v-0.1
	c-0.27-0.022-0.54,0.002-0.801,0.074c-0.225,0.019-0.451,0.002-0.672-0.05H24.6c-0.033,0.188-0.042,0.379-0.024,0.569l-0.9,0.421
	v0.521h0.274c0.017-0.088,0.063-0.167,0.131-0.224c0.084-0.008,0.168-0.025,0.249-0.05c0.019-0.037,0.044-0.071,0.075-0.1
	c0.225-0.027,0.453-0.01,0.672,0.05h1.841c0.552-0.188,1.141-0.239,1.716-0.149c0.061,0.079,0.037,0.054,0.149,0.05
	c0.031,0.081,0.056,0.163,0.075,0.247c-0.016,0.041-0.068-0.015-0.075,0.173h0.647c0.048-0.042,0.109-0.068,0.174-0.074
	c0.063,0.126,0.068,0.3,0.123,0.445c0.043,0.062,0.076,0.129,0.101,0.2c0.253,0.01,0.503,0.051,0.746,0.124
	c0.021,0.038,0.029,0.081,0.024,0.124c-0.068,0.192-0.119,0.392-0.148,0.594h3.06c0.12,0.092,0.274,0.128,0.423,0.1
	c0.084,0.018,0.26,0,0.373,0.025c0.293,0.088,0.596,0.146,0.9,0.173v0.025h-0.05l-0.274,0.074v0.025
	c0.852,0.019,1.701,0.109,2.537,0.271l0.3,0.05c0.362,0.199,0.712,0.422,1.046,0.668c0.353,0.186,0.68,0.419,0.969,0.693h0.025
	v-0.024c0.064-0.078,0.14-0.146,0.225-0.2v0.025c0.021,0.038,0.029,0.081,0.024,0.124c-0.146,0.101-0.227,0.3-0.373,0.4
	c-0.146,0.1-0.282,0.114-0.423,0.2l-0.7,0.421c-0.148,0.059-0.29,0.134-0.423,0.223c0.018,0.014,0.27,0.332,0.273,0.346
	c-0.072,0.275-0.082,0.563-0.024,0.842c0.054,0.059,0.095,0.126,0.124,0.199c-0.115,0.027-0.197,0.129-0.2,0.248
	c-0.06,0.161-0.109,0.326-0.149,0.494c-0.041,0.1,0.072,0.2,0.025,0.247c-0.073,0.021-0.148,0.038-0.224,0.05
	c-0.121,0.164-0.229,0.338-0.323,0.52l-0.1,0.05c-0.017,0.065-0.025,0.133-0.025,0.2c-0.214,0.022-0.406,0.141-0.521,0.322
	c-0.293,0.221-0.534,0.5-0.821,0.718c-0.884,0.666-1.628,1.489-2.513,2.153c-0.176,0.133-0.316,0.34-0.5,0.47
	c-0.183,0.13-0.36,0.2-0.547,0.321c-0.094,0.083-0.193,0.158-0.299,0.224l-0.373,0.05c-0.855,0.133-1.723,0.175-2.588,0.124H10.448
	c-0.583,0.038-1.167,0.005-1.741-0.101c-0.151-0.064-0.293-0.147-0.423-0.248c-0.3-0.18-0.61-0.32-0.9-0.494
	c-0.831-0.5-1.717-0.912-2.537-1.41c-0.645-0.393-1.33-0.7-1.965-1.089c-0.25-0.152-0.535-0.226-0.771-0.4
	C2,23.633,1.907,23.49,1.837,23.338c-0.104-0.105-0.195-0.221-0.274-0.346c-0.075-0.311-0.132-0.624-0.174-0.94
	c0.022-0.28,0.15-0.565,0.174-0.866l-0.871,0.051c-0.02,0.031-0.036,0.064-0.05,0.1c-0.126,0.021-0.256,0.004-0.373-0.05
	C0.129,21.244,0.025,21.127,0,20.982c0.014-0.07,0.039-0.138,0.075-0.199c0.084,0.055,0.177,0.096,0.274,0.124
	c0.075-0.121,0.159-0.236,0.251-0.345c0.208-0.328,0.369-0.66,0.6-0.965c0.162-0.126,0.312-0.267,0.448-0.421
	c-0.188-0.199-0.236-0.492-0.124-0.742c0.037-0.074,0.166-0.155,0.2-0.223c-0.011-0.177-0.045-0.352-0.1-0.52
	c-0.089-0.414,0.118-0.833,0.5-1.015c0.259-0.111,0.527-0.202,0.8-0.271c0.619-0.251,1.277-0.433,1.915-0.693
	c0.685-0.279,1.41-0.481,2.114-0.767c0.459-0.208,0.933-0.381,1.418-0.52c0.603-0.064,1.211-0.073,1.816-0.025l0.025-0.124h0.174
	c0.333,0.086,0.676,0.128,1.021,0.124c0.141,0.03,0.27,0.099,0.373,0.2c0.01,0.036,0.027,0.07,0.05,0.1H12.7
	c0.024,0.036,0.072,0.118,0.1,0.074c0.173-0.269,0.307-0.56,0.4-0.866c0.281-0.632,0.64-1.273,0.92-1.905
	c0.109-0.356,0.278-0.691,0.5-0.99c0.061-0.038,0.2,0.017,0.274-0.024c0.069-0.103,0.153-0.194,0.249-0.272h1.443
	c-0.01-0.043-0.027-0.085-0.05-0.124h0.224v0.05c-0.016,0.021-0.024,0.047-0.025,0.074h1.468c0.294-0.213,0.671-0.277,1.02-0.173
	c0.018,0.059,0.053,0.11,0.1,0.149c0.288,0.173,1.136-0.153,1.468,0.1c0.01,0.056,0.036,0.107,0.075,0.149
	c-0.011-0.125,0.007-0.252,0.05-0.371v0.025c0.141,0.24,0.395,0.391,0.672,0.4l0.075-0.1c0.527,0.139,1.077,0.173,1.617,0.1
	c0.099,0.173,0.183,0.355,0.249,0.544c-0.133,0.079-0.25,0.181-0.348,0.3c-0.045,0.066-0.054,0.149-0.025,0.223l0.148,0.124
	L23.557,12.199z"/>
</svg>
