<svg xmlns="http://www.w3.org/2000/svg" width="79.938" height="40" viewBox="0 0 79.938 40">
  <defs>
    <style>
      .cls-1 {
        fill: #fff;
        fill-rule: evenodd;
      }
    </style>
  </defs>
  <path id="Color_Fill_1" data-name="Color Fill 1" class="cls-1" d="M40.034,16.28c0.572,0.014,1.952.107,2.064-.137-0.175-.1-0.078.015-0.138-0.2l0.206-.068A0.567,0.567,0,0,1,42.58,15.8a0.734,0.734,0,0,0,.619.2V15.939a0.447,0.447,0,0,1-.275-0.068h0.963V15.529H43.405a1.138,1.138,0,0,1-.206-0.751,1.142,1.142,0,0,1,.344-0.341,2.454,2.454,0,0,0,1.1.136V14.71a1.283,1.283,0,0,1-.069.956,2.107,2.107,0,0,1-.481-0.068v0.409a1.085,1.085,0,0,0,.344.068v0.2h0.688a1.324,1.324,0,0,0,0-.41c-0.128-.078-0.492-0.056-0.619-0.136h0.069a3.285,3.285,0,0,1,1.72,0l-1.032.068,0.069,0.41a1.9,1.9,0,0,1,.619.068v0.068a0.579,0.579,0,0,0-.481.137,7.815,7.815,0,0,1,.344,2.116h0.413q0.034-.614.069-1.229h1.995l0.55,0.887h0.344V18.191a0.53,0.53,0,0,1-.069-0.546H48.839l-0.069-.2h0.206a0.687,0.687,0,0,0,.55.136v-0.2H49.39c-0.165-.1-0.163.084-0.275-0.137H49.046a1.2,1.2,0,0,1,.138-0.273,0.956,0.956,0,0,0,.344.068l-0.069-.2H49.8c0.08,0.086.147,0.224,0.206,0.137a0.594,0.594,0,0,1,.688-0.273A1.351,1.351,0,0,0,52,17.031V16.963a0.3,0.3,0,0,1-.206-0.2h0.688v0.068H52.416a0.591,0.591,0,0,0-.275.2h1.513a1.486,1.486,0,0,1,.619.068v0.068a1.365,1.365,0,0,0-.825.2,14.027,14.027,0,0,1-2.27.068v0.683H50.9v-0.2H50.009v0.137a0.346,0.346,0,0,0-.069.2,0.335,0.335,0,0,1,.206.068,0.458,0.458,0,0,1,.069.273,1.745,1.745,0,0,0,.619.2,2.751,2.751,0,0,1,.206-0.273H51.66c0.95-.21,2.106-0.13,3.1-0.341,1.237-.264,2.77.177,3.921-0.068h2.889a1.5,1.5,0,0,0,1.1.409l10.318-.2a0.439,0.439,0,0,1,.069-0.273v0.273c1.615,0,3.3-.06,4.815-0.068v0.273h0.275v2.253a4.276,4.276,0,0,0,1.169.068,1.284,1.284,0,0,1,.619-0.068c0.023,2.453-.135,6.345-1.513,7.372a5.1,5.1,0,0,1-1.513.887,14.049,14.049,0,0,1-3.3.137l-5.434.068-23.732.068a1.456,1.456,0,0,1-.069-0.478,21.587,21.587,0,0,1-4.54-.2H38.521c-0.628-.137-1.509-0.065-2.133-0.2-1.022-.229-2.313.017-3.3-0.2H31.918c-1.433-.311-3.173-0.034-4.609-0.341a1.669,1.669,0,0,0-.619.068,20.63,20.63,0,0,0-2.751.068H22.15c-1.4.306-3.258,0.035-4.54,0.341l-2.683-.068c-1.074.234-2.446-.11-3.577,0.136-0.472.1-1.232-.053-1.789,0.068-0.467.1-1.239-.062-1.788,0.068a12.466,12.466,0,0,1-1.376.2v0.137a0.915,0.915,0,0,1,.206.751,0.978,0.978,0,0,1-.275.068,1.4,1.4,0,0,0-.55-0.41,0.51,0.51,0,0,1-.413.137V29.386a0.462,0.462,0,0,0,.206-0.41c-0.1-.246-0.211-0.217-0.55-0.2a1.8,1.8,0,0,1-.963.2A1.719,1.719,0,0,1,3.233,30H2.545c-0.262-.253-0.5-0.491-0.757-0.751a10.9,10.9,0,0,1,.482-3.481,4.682,4.682,0,0,0,0-1.092,0.6,0.6,0,0,0,.206-0.2c-0.138-.082-1.1-0.683-1.1-0.683a0.506,0.506,0,0,1,.069-0.136l0.138-.2a0.577,0.577,0,0,0,.206.137c0-.2-0.066-0.095,0-0.2,0.051-.059.087-0.077,0.138-0.136,0.06,0.051.078,0.086,0.138,0.136,0.059-.355.169-0.321,0.344-0.2A0.4,0.4,0,0,1,2.545,22.9a0.547,0.547,0,0,1,.206.137,0.4,0.4,0,0,1,.138-0.273A0.547,0.547,0,0,1,3.1,22.9V22.7a0.845,0.845,0,0,1,.757,0v-0.2l0.688-.068V22.082a0.587,0.587,0,0,0,.069-0.341H4.54v0.068a0.68,0.68,0,0,0-.206.341H4.265v-0.2c0.6-.641-0.067-1.515-0.206-2.184-1.216.139-2.182,0.9-3.439,1.024-0.087-.749-0.5-1.3-0.619-2.048H0.138A15.047,15.047,0,0,1,3.3,17.713a0.328,0.328,0,0,1,.069-0.2,0.511,0.511,0,0,1,.413-0.137V17.44a1.125,1.125,0,0,0,.069.887,12.179,12.179,0,0,0,.894,2.662c0.359-.525,1.139-0.821,1.169-1.638H6.26v0.341L6.6,19.829V19.9H6.466a0.353,0.353,0,0,0-.206-0.068c0.053,0.515.1,1.242,0.206,1.775H9.08c0.423-.265,3-0.076,3.715-0.068a0.328,0.328,0,0,0,.069.2V21.672a4.729,4.729,0,0,0,.825-1.229c0.21-.608-0.1-1.257.413-1.57v0.068a1.24,1.24,0,0,1,.206.546h0.55l0.206-.614H15.2l0.138,0.614,8.667-.2c0.029-.316.1-0.3,0.137-0.614H24.42a0.777,0.777,0,0,0,.138.546,0.917,0.917,0,0,0,.481.068,0.688,0.688,0,0,1,.413-0.614,1.361,1.361,0,0,0,.275.614,1.942,1.942,0,0,1-.138,1.3,0.6,0.6,0,0,0,.206.136v0.819c1.122,0.006,1.931-.13,2.958-0.136,0-.251.193-0.227,0.619-0.2a1.835,1.835,0,0,0,.55-0.2c0.057,0.222-.034.1,0.138,0.2a2.027,2.027,0,0,1,.825,0V19.556h0.069v0.136a4.318,4.318,0,0,1,.069,1.638H31.3V21.058a2.768,2.768,0,0,0,.757,0,5.534,5.534,0,0,1,.206-1.16,8.9,8.9,0,0,0-1.032-.068V19.556a0.335,0.335,0,0,1-.206-0.068H31.23v-0.2l2.339-.068V18.942c0.233-.065.214-0.026,0.275-0.273a0.246,0.246,0,0,1-.069-0.137H32.881v0.2H32.605V18.055a13.942,13.942,0,0,1-2.27-.068,1.544,1.544,0,0,0-.825-0.2V17.713h0.069a0.918,0.918,0,0,1,.481-0.068,0.568,0.568,0,0,1,.069-0.341v0.341a2.672,2.672,0,0,0,1.513-.136C31.18,17.5,31.2,17.355,31.23,16.894H31.3v0.478a1.015,1.015,0,0,1,.688.137,0.261,0.261,0,0,0-.206.136h0.757a1.4,1.4,0,0,1,1.169-.273,0.859,0.859,0,0,0,.069.273,0.659,0.659,0,0,1,.55-0.2v0.136a0.237,0.237,0,0,0-.138.068c0.212-.017.351-0.09,0.482,0.137,0.049,0.105.009,0.009,0,.2a0.611,0.611,0,0,0-.482.068v0.136h0.55a0.493,0.493,0,0,1,.275-0.136v0.2a1.177,1.177,0,0,0-.413.068,0.5,0.5,0,0,1,0,.546h0.275c0.858-.952.716-0.924,2.545-0.887a3.345,3.345,0,0,1,.069.956,0.457,0.457,0,0,1,.069.273h0.413V19.147H38.04a15.1,15.1,0,0,1,.344-2.8,0.594,0.594,0,0,0,.413-0.2H38.727c-0.068-.069.068-0.067,0.069-0.068a1.1,1.1,0,0,1,.55-0.068c0.022-1.447.134-3.425,0.138-5.324l-0.757.068A11.466,11.466,0,0,0,39,13.208c0.2,0.9.1,1.81,0.275,2.662l-0.55.068a18.433,18.433,0,0,0-.413-3.481c-0.116-.515.11-1.334-0.275-1.57-0.686.425-2.216,0.378-3.1,0.614-2.609.7-5.361,0.88-8.048,1.57-3.022.776-6.336,1.105-9.355,1.911l-2.476.41c-1.913.489-3.923,0.653-5.916,1.16a43.88,43.88,0,0,1-5.021,1.024A1,1,0,0,0,3.852,17.3c0.223-.057.105,0.033,0.206-0.137H3.99C3.922,17.1,4.057,17.1,4.058,17.1c0.657-.428,2.23-0.382,3.1-0.614,2.345-.63,4.879-0.786,7.291-1.433,2.824-.757,5.839-0.964,8.736-1.707,2.023-.518,4.166-0.694,6.26-1.229,3.284-.839,6.912-1.38,10.181-2.116v0.068h0.069c-0.03.308,0.157,0.321,0.138,0.614A28.212,28.212,0,0,0,40.034,16.28Zm4.471-.41a0.347,0.347,0,0,1,.069.2H44.506v-0.2Zm-1.032.068a0.2,0.2,0,0,0,.275,0H43.474Zm-4.54.2V16.28H39A0.234,0.234,0,0,0,38.934,16.143Zm0.138,0V16.28h0.138V16.212h0.069V16.143H39.071ZM52.485,16.28a0.273,0.273,0,0,1,0,.341V16.28Zm1.169,0.478a0.245,0.245,0,0,1,.069.137H53.654V16.758Zm0.757,0.273c0.165,0.141.015,0.065,0.069,0.2C54.355,17.277,54.424,17.1,54.411,17.031Zm-4.54.273a0.2,0.2,0,0,0,.275,0H49.871Zm0.069,0.273a1.061,1.061,0,0,0,.963.2V17.645H50.7A0.9,0.9,0,0,1,49.94,17.577Zm-20.705.068c0.175,0.1.078-.015,0.138,0.2H29.235v-0.2Zm4.334,0.273a0.278,0.278,0,0,0,.344,0H33.568Zm0.069,0.273a0.585,0.585,0,0,1-.55.137,0.352,0.352,0,0,0-.206-0.068V18.4h0.825l0.069-.2H33.637Zm44.231,0.614-1.926.068q-0.034.853-.069,1.707a3.376,3.376,0,0,0,.688.136,0.852,0.852,0,0,1,.826-0.409c0.084,0.168.122,0.105,0.206,0.273-0.223.056-.105-0.033-0.206,0.136h0.069a1.1,1.1,0,0,0,.55.068V18.6H77.868v0.2Zm-4.609.273v1.433a0.991,0.991,0,0,0,.344-0.068v0.2c0.223-.057.105,0.033,0.206-0.137a0.751,0.751,0,0,1-.206-0.137h0.206v0.068h0.069v0.2a3.984,3.984,0,0,0,.757-0.137c0.212-.031.709,0.07,1.032,0.068a0.418,0.418,0,0,1,.138-0.137v-1.57C74.8,18.862,74.357,19.077,73.259,19.079Zm-6.947.546a9.366,9.366,0,0,1-.138.956h1.238l0.069-1.57a0.98,0.98,0,0,0-.275-0.068,9.357,9.357,0,0,1-2.408.068,3.066,3.066,0,0,0-.069.887,1.256,1.256,0,0,1,.069.614h0.138a1.037,1.037,0,0,1,.55,0,0.672,0.672,0,0,1,.344-0.751A0.588,0.588,0,0,1,66.311,19.625Zm1.307-.683c0.005,0.09-.132.124,0,0.2h0.963a5,5,0,0,1,1.445.2h0.138V19.283a0.635,0.635,0,0,0-.344-0.2A8.3,8.3,0,0,0,67.618,18.942Zm-3.646,1.706h0.619a5,5,0,0,0,.069-1.365,0.457,0.457,0,0,1-.069-0.273l-1.788.068v0.068h0.069a9.785,9.785,0,0,0,1.032.887,1.2,1.2,0,0,0-.206.273h0.138s0.013-.267.069-0.137v0.137A0.587,0.587,0,0,1,63.973,20.649Zm-2.545-.273a4.589,4.589,0,0,0-.069-1.3,20.222,20.222,0,0,0-2.339.137,4.459,4.459,0,0,1,.069,1.229h0.138A6.643,6.643,0,0,1,61.427,20.375Zm0.344-1.3a0.334,0.334,0,0,0-.206.068,2.867,2.867,0,0,0-.069,1.16h0.069v0.068a0.236,0.236,0,0,0,.138-0.068A3.072,3.072,0,0,0,61.771,19.079Zm0.138,0v1.16a6.225,6.225,0,0,0,1.651.068V20.239A9.537,9.537,0,0,0,61.909,19.079Zm8.53,0c0.118,0.06.088,0.061,0.206,0H70.439Zm1.238,0.137v0.614a0.2,0.2,0,0,0-.069.068H71.4v-0.2H70.989a0.417,0.417,0,0,1-.138.137l0.069,0.2h0.413v0.478a2.967,2.967,0,0,1,1.032,0V20.239a0.334,0.334,0,0,1-.206-0.068,0.334,0.334,0,0,0,.206-0.068,0.458,0.458,0,0,1-.069-0.273h0.825V19.147a3.706,3.706,0,0,0-1.032-.068A0.4,0.4,0,0,1,71.677,19.215Zm-13.757,0v1.16a3.71,3.71,0,0,0,1.032.068V19.215a1.266,1.266,0,0,0-.413-0.068A1.284,1.284,0,0,1,57.919,19.215Zm-1.857,0a16.513,16.513,0,0,1-1.72.068,4.454,4.454,0,0,0-.069,1.229h0.138a4.013,4.013,0,0,1,1.651,0,1.24,1.24,0,0,0,.069-0.41A2.045,2.045,0,0,1,56.062,19.215Zm0.138,0v1.229c0.623,0,1.088-.04,1.651,0V19.215H56.2Zm-2.82,1.3H54.2V19.283a3.9,3.9,0,0,0-.825.068v1.16ZM50.7,19.42c0.054,0.491.188,0.894,0.206,1.433a11.657,11.657,0,0,0,2.064-.068V20.512h0.275v-1.16C52.373,19.348,51.47,19.4,50.7,19.42Zm-26.07.956H24.97V19.42H24.695A3.345,3.345,0,0,0,24.626,20.375Zm45.125-.956a3.483,3.483,0,0,1,.275.614h0.138V19.966a0.858,0.858,0,0,1-.138-0.478A0.467,0.467,0,0,0,69.751,19.42Zm1.238,0a0.366,0.366,0,0,0,.413,0H70.989Zm-55.512.273V20.58c2.858,0.011,5.706-.008,8.461-0.2V19.488Zm-1.032,0v0.956h0.275V19.693H14.445Zm-8.667.273c-0.326.5-1,.752-1.032,1.5a0.246,0.246,0,0,1,.069.136H5.709a3.345,3.345,0,0,0,.069-0.956,4.424,4.424,0,0,0,.138-0.683H5.778ZM72.984,20.1a0.248,0.248,0,0,0,.138.068A0.249,0.249,0,0,0,72.984,20.1Zm0,0.137v0.273h0.138v-0.2ZM15.615,21.263a12.629,12.629,0,0,0,3.1-.41c0.057,0.222-.034.1,0.138,0.2a1.8,1.8,0,0,1,.963.273H19.742a4.091,4.091,0,0,1-.619.137v0.2h1.169V21.4a2.153,2.153,0,0,0,.688,0v0.2a12.069,12.069,0,0,0,2.132-.068,2.042,2.042,0,0,1,.069-0.273h0.206c0.057,0.222-.034.1,0.138,0.2V21.4a2.563,2.563,0,0,0,.413-0.819H23.732a6.792,6.792,0,0,1-2.339.068l-3.646.137a9.507,9.507,0,0,0-2.339.068A0.451,0.451,0,0,1,15.615,21.263Zm8.942-.683c0.134,0.145.2,0.3,0.275,0.136l0.206-.068V20.58H24.557Zm52.279,0v0.136h0.137V20.58H76.836Zm-62.39.2a1.034,1.034,0,0,0,.206.683,0.718,0.718,0,0,1,.206-0.614A1.268,1.268,0,0,0,14.445,20.785ZM24.695,21.6H24.9a4.345,4.345,0,0,1,0-.683H24.764V20.99A1.41,1.41,0,0,0,24.695,21.6Zm-11.212-.273a1.463,1.463,0,0,1-.138.341h0.138a0.721,0.721,0,0,0,.137-0.341H13.482Zm10.249,0c0.014,0.1-.056-0.027-0.069.068-0.132.053,0.138,0.068,0.138,0.068A0.233,0.233,0,0,0,23.732,21.331Zm0.413,0c0.118,0.06.088,0.061,0.206,0H24.144Zm1.1,0c0.118,0.06.088,0.061,0.206,0H25.245Zm-8.667.068a2.272,2.272,0,0,0-.963.068,0.965,0.965,0,0,1,.481.136,0.944,0.944,0,0,0-.481.068,0.246,0.246,0,0,0-.069.137h0.275c0.014-.1-0.057.027-0.069-0.068-0.132-.053.138-0.068,0.138-0.068a0.467,0.467,0,0,0,.482,0A0.447,0.447,0,0,1,16.1,21.6a1.354,1.354,0,0,0,.413,0A0.346,0.346,0,0,0,16.578,21.4Zm0.482,0v0.341h0.206V21.4H17.059Zm0.413,0v0.341H17.61A0.32,0.32,0,0,0,17.472,21.4Zm0.206,0.068v0.273h0.757V21.672H18.5v-0.2H17.678ZM15,21.6a0.2,0.2,0,0,0,.275,0H15Zm-0.481.068c0.057,0.221-.034.1,0.138,0.2V21.809h0.069V21.741H14.652A0.249,0.249,0,0,0,14.514,21.672Zm-3.439.068c-0.006.183,0.065,0.254,0.413,0.273l0.069-.2A1.49,1.49,0,0,0,11.075,21.741Zm1.032,0.273V21.741a0.9,0.9,0,0,0-.482.068A2.815,2.815,0,0,0,12.107,22.014Zm0.069-.273v0.273h0.138c0-.217-0.083-0.164.206-0.2a0.2,0.2,0,0,0,.069.068l-0.069.137h0.069V21.945a0.346,0.346,0,0,0,.069-0.2H12.175Zm1.307,0a0.249,0.249,0,0,0,.137.068A0.248,0.248,0,0,0,13.482,21.741Zm-8.53.068a0.859,0.859,0,0,0,.069.273H5.159V21.809H4.953Zm0.275,0v0.273a2.1,2.1,0,0,0,.482-0.068v-0.2H5.228Zm1.238,0v0.2c0.259-.01.242,0.032,0.344-0.137H6.879V21.809H6.466Zm0.55,0a0.366,0.366,0,0,0,.413,0H7.016Zm0.894,0a0.248,0.248,0,0,0,.138.068A0.248,0.248,0,0,0,7.911,21.809Zm0.206,0a0.466,0.466,0,0,0,.482,0H8.117Zm0.619,0a0.366,0.366,0,0,0,.413,0H8.736Zm0.55,0c0.057,0.221-.034.1,0.138,0.2v-0.2H9.286Zm0.206,0v0.2H9.768v-0.2H9.493Zm0.344,0v0.2h0.55v-0.2H9.837Zm1.1,0.2v-0.2H10.456v0.136a0.246,0.246,0,0,1,.275,0,0.236,0.236,0,0,0-.138.068h0.344Zm-6.81.546a0.248,0.248,0,0,0,.138.068A0.249,0.249,0,0,0,4.127,22.56ZM3.371,22.7a0.248,0.248,0,0,0,.138.068A0.249,0.249,0,0,0,3.371,22.7ZM4.54,23.72A2.672,2.672,0,0,0,4.4,22.833a1.738,1.738,0,0,0-.55-0.068,6.543,6.543,0,0,1-.963.273l-1.1.614V23.72H1.857v0.068A10.28,10.28,0,0,1,4.54,23.72Zm-2.476.2a2.636,2.636,0,0,0,1.445.136,4.14,4.14,0,0,1,1.032-.068V23.925H2.064Zm2.545,3v1.433l0.963-.068V28.225a0.69,0.69,0,0,1-.206-0.683A0.956,0.956,0,0,1,6.328,27.2,0.979,0.979,0,0,1,6.4,28.294H6.535c0.372-.219,1.469.228,2.132,0.068,0.47-.113,1.236.064,1.788-0.068,1.859-.447,4.485.172,6.191-0.41a1.96,1.96,0,0,1-.069-0.614,3.993,3.993,0,0,0-1.1-.068c-0.517-.316-1.961.017-2.683-0.137-0.537-.114-1.371.064-1.995-0.068a12.077,12.077,0,0,0-2.132-.068H4.609Zm13,0.956c1.372,0.072,2.861-.064,4.265-0.068a6.921,6.921,0,0,0,2.064-.136,19.133,19.133,0,0,1-3.99-.273c-0.767-.165-1.577,0-2.27-0.136v0.341A0.458,0.458,0,0,0,17.61,27.884Z"/>
</svg>
