<svg xmlns="http://www.w3.org/2000/svg" width="39.938" height="40" viewBox="0 0 39.938 40">
  <defs>
    <style>
      .cls-1 {
        fill: #fff;
        fill-rule: evenodd;
      }
    </style>
  </defs>
  <path id="ussr_kv_1_l_11_ico" class="cls-1" d="M26.127,13.224H26.77l0.022,0.066c0.09,0.048.258-.026,0.333,0.022a0.448,0.448,0,0,0,.133.153,3.971,3.971,0,0,0,.555.022,2.2,2.2,0,0,1,.866.415,0.156,0.156,0,0,0-.044.088c0.317,0.1.5,0.535,0.777,0.634,0.314,0.112.782,0.015,1.065,0.153a1.478,1.478,0,0,1,.466.481c0.233,0.3.692,0.3,0.71,0.831l6.038,0.022v0.656H31.743v0.022H31.72v0.066l-0.289.022c-0.054.167-.214,0.163-0.444,0.153a1.808,1.808,0,0,1-.422.022,5.8,5.8,0,0,1-1.088.066,0.258,0.258,0,0,1-.178.219l-0.089-.022a0.752,0.752,0,0,0-.155.219,1.6,1.6,0,0,1-.355.262V17.771l-0.111-.131a0.062,0.062,0,0,0-.022.022,0.31,0.31,0,0,0-.244.219,0.372,0.372,0,0,1,.044.131H28.324a2.562,2.562,0,0,1-1.154.088v0.044h0.888V18.47l0.4,0.022V18.4c0.048-.026.092-0.088,0.133-0.109a0.714,0.714,0,0,0,.289-0.066,0.11,0.11,0,0,0,.022-0.066h0.067l0.022,0.109h2.4A1.779,1.779,0,0,1,32.63,18.1v0.175a0.646,0.646,0,0,1,.244.066,0.618,0.618,0,0,0,.377.415,0.659,0.659,0,0,0,0,.153,0.338,0.338,0,0,0,.4.262,0.461,0.461,0,0,1,.6-0.066,0.859,0.859,0,0,1,.6-0.2v0.262h0.022a0.194,0.194,0,0,1,.111-0.022v0.59a1.433,1.433,0,0,0,.666.066,1.835,1.835,0,0,0,.644.022h0.555a1.8,1.8,0,0,1,.4-0.066c0.142,0.017.293,0.081,0.466,0.087l0.022-.109H37.8v0.044a0.188,0.188,0,0,0-.022.109,2.667,2.667,0,0,1,.666.393,0.458,0.458,0,0,1,0,.328H38.424c-0.033-.036-0.016-0.022-0.044-0.022a0.558,0.558,0,0,0-.133.24,2.652,2.652,0,0,1,.8.7c0.126,0.232.178,0.453,0.311,0.677l0.155,0.131a1.888,1.888,0,0,1,.377.481,0.709,0.709,0,0,1-.133.9,0.991,0.991,0,0,1,.044.35,0.161,0.161,0,0,1,.133.153,0.254,0.254,0,0,0-.044.109c-0.259.006-.218,0.18-0.488,0.2a0.754,0.754,0,0,1-.244-0.262H39.134c-0.027.183-.114,0.111-0.133,0.131s-0.016.085-.044,0.109c-0.047.006-.066-0.033-0.111,0.022a1.246,1.246,0,0,1-.244.328c0.017,0.038.058,0.04,0.022,0.066-0.046.075-.108,0.147-0.155,0.219L38.4,25.093a1.239,1.239,0,0,1-.311.219,2.313,2.313,0,0,0-.289.437L37.736,25.7a3.23,3.23,0,0,0-.511.328,0.089,0.089,0,0,0,.022.087,1.145,1.145,0,0,0-.2.2,0.178,0.178,0,0,0-.133.044,0.247,0.247,0,0,0-.089-0.044,1.98,1.98,0,0,0-.2.175,1.022,1.022,0,0,0-.222.087l0.022,0.087a2.229,2.229,0,0,1-.266.175,1.155,1.155,0,0,0-.621.2c0,0.064.021,0.03,0,.066a0.97,0.97,0,0,1-.2.153c-0.077.02-.05-0.046-0.089-0.044a0.194,0.194,0,0,1-.089.044H35.139V27.213H35.094a1.832,1.832,0,0,0-.422.219c0.006,0.021.017,0.008,0,.022a0.151,0.151,0,0,1-.111.044,0.1,0.1,0,0,1-.022.066v0.022l-0.133.022c-0.009-.014.02-0.062-0.022-0.044s-0.04.064-.089,0.044c-0.019-.016-0.025-0.028-0.044-0.044a0.942,0.942,0,0,1-.466.175V27.8a0.588,0.588,0,0,0-.2.087,0.863,0.863,0,0,1-.311,0c-0.018-.071.011-0.033-0.044-0.066a1.218,1.218,0,0,1-.533.044v0.066H32.542v0.044a0.515,0.515,0,0,1-.288-0.044V27.869H31.743v0.066H31.587v0.044a0.619,0.619,0,0,1-.311-0.044V27.869H30.788v0.066a0.312,0.312,0,0,0-.155.044,0.57,0.57,0,0,1-.288-0.044V27.869H29.811c0,0.076,0,.073-0.133.066-0.06.1-.2,0.011-0.311,0V27.869H28.857v0.066H28.7v0.044a0.619,0.619,0,0,1-.311-0.044V27.869H27.88c0,0.076,0,.073-0.133.066-0.06.1-.2,0.011-0.311,0V27.869H26.948v0.066c-0.141,0-.163.039-0.311,0.044a0.1,0.1,0,0,0-.022-0.066,0.2,0.2,0,0,1-.111.022V27.869H25.993v0.066H25.86v0.044a0.514,0.514,0,0,1-.289-0.044V27.869H25.039v0.066a0.616,0.616,0,0,1-.311.044V27.934H24.595l0.022-.066H24.107v0.066a0.312,0.312,0,0,0-.155.044,0.571,0.571,0,0,1-.289-0.044V27.869H23.174v0.066a0.312,0.312,0,0,0-.155.044,0.571,0.571,0,0,1-.289-0.044V27.869H22.22v0.066c-0.138.006-.159,0.041-0.311,0.044a0.1,0.1,0,0,0-.022-0.066,0.2,0.2,0,0,1-.111.022V27.869H21.243v0.066c-0.138.006-.159,0.041-0.311,0.044a0.1,0.1,0,0,0-.022-0.066,0.2,0.2,0,0,1-.111.022V27.869H20.289v0.066a0.312,0.312,0,0,0-.155.044,0.571,0.571,0,0,1-.289-0.044V27.869H19.334v0.066c-0.141,0-.163.039-0.311,0.044A0.1,0.1,0,0,0,19,27.913a0.2,0.2,0,0,1-.111.022V27.869H18.357c0,0.076,0,.073-0.133.066-0.052.091-.233,0.023-0.289-0.022-0.021-.039,0,0,0-0.044H17.4v0.066c-0.151,0-.175.04-0.333,0.044a0.1,0.1,0,0,0-.022-0.066,0.2,0.2,0,0,1-.111.022V27.869H16.448v0.066a0.309,0.309,0,0,0-.155.044,0.617,0.617,0,0,1-.311-0.044V27.869H15.516v0.066H15.383v0.044a0.655,0.655,0,0,1-.355-0.044V27.869H14.584v0.066a0.823,0.823,0,0,1-.4.044V27.934H14.051V27.869H13.629v0.066H13.5v0.044a0.829,0.829,0,0,1-.422-0.044V27.869H12.7v0.066H12.564v0.044a0.955,0.955,0,0,1-.466-0.044V27.869H11.765v0.066H11.743a0.214,0.214,0,0,0-.111.044,0.275,0.275,0,0,1-.178-0.044,0.476,0.476,0,0,1-.2.044c0.009-.05.02-0.024,0-0.066a0.2,0.2,0,0,1-.111.022V27.869H10.832v0.066c-0.234.008-.305,0.041-0.533,0.044a0.1,0.1,0,0,0-.022-0.066,0.152,0.152,0,0,1-.089.022V27.869H9.878v0.066H9.745v0.044a0.2,0.2,0,0,1-.178-0.044c-0.072-.02-0.047.037-0.067,0.044a0.543,0.543,0,0,1-.289-0.044V27.869H8.946v0.066a0.3,0.3,0,0,0-.155.044H8.635V27.934a1.059,1.059,0,0,0-.266.044,0.1,0.1,0,0,0-.022-0.066,0.2,0.2,0,0,1-.111.022V27.869H8.013v0.066a0.3,0.3,0,0,0-.155.044H7.7V27.934a0.882,0.882,0,0,0-.289.044,0.1,0.1,0,0,0-.022-0.066,0.151,0.151,0,0,1-.089.022V27.869c-0.417,0-.512.045-0.866,0.044V27.825a0.1,0.1,0,0,1-.089.022c-0.029-.013-0.031-0.091-0.067-0.109a1.79,1.79,0,0,0-.488-0.109,0.416,0.416,0,0,1-.222-0.044c-0.06-.052-0.1-0.136-0.133-0.153a1.213,1.213,0,0,0-.511-0.175L4.861,27.3a1.407,1.407,0,0,1-.222-0.153c0.009-.064.036-0.027-0.022-0.066a1.188,1.188,0,0,0-.666-0.175V26.842C3.816,26.8,3.925,26.8,3.862,26.732L3.574,26.6a2.858,2.858,0,0,1-.444-0.066l0.022-.066a0.142,0.142,0,0,1-.111-0.022l0.022-.066a4.123,4.123,0,0,1-.4-0.175c-0.048-.008-0.043,0-0.044.044a0.514,0.514,0,0,1-.289-0.066A0.32,0.32,0,0,1,2.2,26.011,1.15,1.15,0,0,1,2,26.1a0.212,0.212,0,0,0-.111-0.219,1.9,1.9,0,0,0-.355-0.087c-0.2-.137-0.075-0.332-0.422-0.328V25.246A0.586,0.586,0,0,1,.8,25.027,1.4,1.4,0,0,0,.666,24.59,1.454,1.454,0,0,0,.488,24.5a2.07,2.07,0,0,1-.067.568h-0.2V25.027a3.5,3.5,0,0,1-.067-1.005,1.334,1.334,0,0,1-.133-0.546,1.711,1.711,0,0,1,.266-0.2l0.222-.044V23.169c-0.072-.018-0.034.011-0.067-0.044a0.776,0.776,0,0,0,.022-0.284H0.533a0.1,0.1,0,0,1,.022-0.066V22.754H0.622A0.675,0.675,0,0,0,.6,22.383l0.133-.044A0.464,0.464,0,0,1,.71,22.186H0.488A0.185,0.185,0,0,0,.422,22.1V22.055A2.273,2.273,0,0,1,.71,21.967V21.508c0.273,0,.508,0,0.733,0A0.784,0.784,0,0,0,1.6,21.224,5.316,5.316,0,0,1,.644,20.7,0.64,0.64,0,0,0,.71,20.328a4.742,4.742,0,0,1,.155-0.743c0.376-.879,1.159-0.85,2.375-0.874V18.645l0.222-.022V18.71H3.6V18.689H3.618c-0.007-.133-0.007-0.2.089-0.24a0.111,0.111,0,0,1,.133.022,0.341,0.341,0,0,1,.067.219H4.129a0.258,0.258,0,0,1,.111-0.175,2.982,2.982,0,0,1,1.043-.087l1.643-.087c0.032,0.01.085,0.078,0.111,0.087H7.68c0.018-.121.164-0.26,0.244-0.109a0.146,0.146,0,0,1,.044.109c0.4,0,.807-0.014,1.154,0V18.317a0.931,0.931,0,0,1,.089-0.087H9.345V18.186a0.235,0.235,0,0,1,.067-0.306,1.629,1.629,0,0,1,.533-0.044,0.3,0.3,0,0,1,.111.219,2.025,2.025,0,0,1,.044.328,0.271,0.271,0,0,1,.178.022A1.345,1.345,0,0,1,10.3,18.12h0.178a0.708,0.708,0,0,0,.4-0.022,0.342,0.342,0,0,0,.355.066v0.022c-0.029.012-.016,0-0.022,0.022a0.783,0.783,0,0,0,.377.022,3.6,3.6,0,0,1,1.687-.634,3.125,3.125,0,0,1,1.754.393,3.62,3.62,0,0,0,.511.35,3.284,3.284,0,0,0,.777.022l0.022-.066a1.129,1.129,0,0,1,.466.022c0.036-.033.078-0.073,0.111-0.109a0.244,0.244,0,0,1,.111.044,0.078,0.078,0,0,1,.022.044,0.145,0.145,0,0,1,.022.087L17.2,18.4V18.3h0.222V18.142A2.408,2.408,0,0,0,18.2,18.1H17.248V18.055a5.672,5.672,0,0,0,.2-1.137h-3a1.763,1.763,0,0,1-1.021-.109,4.969,4.969,0,0,0,.289-0.962,1,1,0,0,1-.311-0.153,0.1,0.1,0,0,0,0-.109,0.68,0.68,0,0,0-.288-0.022,2.364,2.364,0,0,1-.577,0V15.454h0.111V15.366h-1.11V15.213a0.563,0.563,0,0,1,.178-0.022,1.419,1.419,0,0,0,.511.022c0.4,0,.693,0,1.11,0a0.636,0.636,0,0,0-.089-0.24A2.925,2.925,0,0,1,13.74,14.4a0.751,0.751,0,0,1,.422-0.066,3.305,3.305,0,0,1,.244-0.853,0.354,0.354,0,0,1,.089-0.24,0.7,0.7,0,0,0,.466-0.022h0.244V13.18a0.261,0.261,0,0,1-.155-0.262c0.015-.017.029-0.049,0.044-0.066a5.136,5.136,0,0,1,1.154-.022c0.052,0.042.149,0.042,0.2,0.087a0.786,0.786,0,0,0,.2.241,5.487,5.487,0,0,0,.577.044,0.276,0.276,0,0,1,.155-0.066V13.071a0.541,0.541,0,0,1,.4-0.153V12.831a0.062,0.062,0,0,0,.022-0.022,0.076,0.076,0,0,1,.044.022,1.121,1.121,0,0,0,.71.087h1.887c0.03,0.026.074,0.02,0.111,0.044,0.053,0.035.084,0.145,0.133,0.175h0.244A0.619,0.619,0,0,1,21,12.9a2.138,2.138,0,0,1,1.021-.044,0.63,0.63,0,0,0,.155.284,0.547,0.547,0,0,0,.244.022v0.066a1.645,1.645,0,0,0,.444-0.044,4.189,4.189,0,0,1,1.021.044V13.18c0.2-.332-0.041-1.113.466-1.137a0.5,0.5,0,0,1,.289,0,1.194,1.194,0,0,1,.178.219,1.385,1.385,0,0,0,.111.656h0.355a1.627,1.627,0,0,0,.222.022c0.1,0.033.2,0.141,0.289,0.175s0.241,0.013.333,0.044v0.066Zm-14.85,4.94a0.291,0.291,0,0,1,.155.022A0.29,0.29,0,0,1,11.276,18.164Z" transform="translate(-0.031)"/>
</svg>
