<svg xmlns="http://www.w3.org/2000/svg" width="40" height="40" viewBox="0 0 40 40">
  <defs>
    <style>
      .cls-1 {
        fill: #fff;
        fill-rule: evenodd;
      }
    </style>
  </defs>
  <path id="ussr_t_44_ico" class="cls-1" d="M16.552,15.042c0.347,0,.6-0.079.927-0.088l-0.023.329h0.271V15.02l0.656-.066v0.329c0.107,0.007.111,0.043,0.113,0.044a0.757,0.757,0,0,0,.181-0.044v0.044a0.11,0.11,0,0,1,.023.066,4.622,4.622,0,0,1,1.131.176c0.279,0.053.647,0.05,0.972,0.132a2.023,2.023,0,0,0,.769.11v0.022a0.767,0.767,0,0,0-.068.11,2.2,2.2,0,0,1,.95.439l0.362,0.4h1.221a0.323,0.323,0,0,1,.2.285c5.113,0.193,10.446.152,15.715,0.154a2.338,2.338,0,0,1,.023.637,3.286,3.286,0,0,1-.814.022H37.422A4.375,4.375,0,0,1,36.4,17.9H33.759l-5.2.022a8.045,8.045,0,0,1-1.4.044H26.682c-0.27.057-.651-0.041-0.95,0.022a9.092,9.092,0,0,1-1.492.044,0.6,0.6,0,0,1-.045.2,2.651,2.651,0,0,1-1.018.11,1.464,1.464,0,0,0-.52.022,1.921,1.921,0,0,0-.384.329,1.9,1.9,0,0,1-1.063.307,0.394,0.394,0,0,0-.023.132h0.249l0.023-.066,2.284-.022V18.995a0.455,0.455,0,0,0,.023-0.22h0.452a0.226,0.226,0,0,0,.023.132,0.177,0.177,0,0,0,.226.154,4.339,4.339,0,0,1,.791.329,0.792,0.792,0,0,1,.769-0.4c0,0.317,0,.517,0,0.813,0.292,0.087.535,0.331,0.814,0.417h0.294a2.339,2.339,0,0,0,.565.022,1.458,1.458,0,0,1,.5-0.022,2.535,2.535,0,0,1,.339.2h1.085a1.079,1.079,0,0,1,.2-0.044,1.917,1.917,0,0,1,1.085.505,3.679,3.679,0,0,1,.611.7,0.689,0.689,0,0,1-.023.527,1.29,1.29,0,0,1-.814.022v0.044a1.572,1.572,0,0,1-.407,1.34,9.6,9.6,0,0,1-1.673,1.01,16.267,16.267,0,0,1-2.261,1.318,7.141,7.141,0,0,1-2.216.132H10.447a11.463,11.463,0,0,1-1.266-.022c-0.047-.006-0.128.021-0.2,0.022H8.095c-0.24,0-.569-0.047-0.769-0.022a3.685,3.685,0,0,1-1.018,0l-0.43-.022a9.552,9.552,0,0,1-1.922-.9c-0.2-.1-0.37-0.161-0.543-0.264-0.549-.325-1.164-0.52-1.673-0.878a1.477,1.477,0,0,1-.249-0.242l-0.113-.2a0.208,0.208,0,0,1-.09.022,2.165,2.165,0,0,1-.678-0.439,1.14,1.14,0,0,1,.113-0.791,0.264,0.264,0,0,1,.113,0,0.839,0.839,0,0,1-.023.571,0.277,0.277,0,0,0,.2.088c0.035,0.027.012,0.014,0.045,0,0.091-.025.109-0.04,0.113-0.154A1.723,1.723,0,0,1,1.221,22.2a3.3,3.3,0,0,0-.158-0.439l-0.136.044a2.2,2.2,0,0,0-.09.329H0.769l-0.023-.461H0.724a0.117,0.117,0,0,1-.068.022V21.652c0.065-.025.042,0,0.068-0.066H0.7a0.563,0.563,0,0,1-.249.11V21.652a0.862,0.862,0,0,0,.136-0.4H0.565a0.2,0.2,0,0,1-.136.11L0,20.093l0.068-.022c-0.045-.194.006-0.091,0.045-0.264A0.253,0.253,0,0,1,.068,19.7l0.113-.022a0.237,0.237,0,0,0,.09.22,0.162,0.162,0,0,0,.045-0.132,0.16,0.16,0,0,1-.023-0.176c0.121,0,.137.033,0.249,0.044V19.61H0.565V19.434a1.771,1.771,0,0,0,.656-0.176,0.4,0.4,0,0,1,.2-0.154v-0.11h0.43v-0.11c0.436,0,.708.022,1.108,0.022a0.505,0.505,0,0,1,.023-0.176,0.079,0.079,0,0,1,.045.022,0.232,0.232,0,0,1,.023.132,5.359,5.359,0,0,1,.611.022v-0.2a3.1,3.1,0,0,1,.769-0.022H6.015a0.082,0.082,0,0,0,.045.022,0.505,0.505,0,0,1-.023.176H6.15a6.2,6.2,0,0,1,.927,0l-0.023.176H7.077c0.032-.038.877,0,1.2,0A7.874,7.874,0,0,0,9.7,18.995a1.777,1.777,0,0,1,.52.066,1.149,1.149,0,0,0,.384-0.022l0.633,0.022a0.226,0.226,0,0,0-.023-0.132,0.253,0.253,0,0,0-.249-0.22,1.607,1.607,0,0,1-.565.022H8.954a0.977,0.977,0,0,1-.113-0.922H8.819a1.539,1.539,0,0,1-.475-0.044c-0.032,0-.141.057-0.181,0.066a1.369,1.369,0,0,1-.882-0.285A1.344,1.344,0,0,1,7.168,17.3a0.81,0.81,0,0,1-.136-0.615,1.309,1.309,0,0,1,.226-0.307A0.992,0.992,0,0,1,7.3,16.228a0.647,0.647,0,0,1,.543-0.176,0.7,0.7,0,0,1,.52-0.022c0.092,0.014.044-.056,0.136-0.044a0.805,0.805,0,0,0,.452-0.022,0.082,0.082,0,0,0-.045-0.022,1.394,1.394,0,0,1-.294-0.11,0.074,0.074,0,0,1,.023-0.044,0.24,0.24,0,0,1,.226-0.044,0.6,0.6,0,0,0,.294.044l0.023-.132a0.283,0.283,0,0,0,.158-0.088l0.588-.044a7.373,7.373,0,0,1,1.447-.132l0.023-.22H11.125V15.152a1.02,1.02,0,0,1,.181-0.263,1.867,1.867,0,0,1,.565-0.176h0.181c0.149-.05.28-0.237,0.43-0.285H12.73c0.016-.005.057-0.062,0.068-0.066a0.363,0.363,0,0,1,.294.066h1.131l0.023-.066H14.7V14.3h0.045a0.454,0.454,0,0,1,.113-0.022,0.786,0.786,0,0,1,.068-0.066V14.186a0.154,0.154,0,0,1-.136-0.088,0.407,0.407,0,0,0,.068-0.11,0.87,0.87,0,0,0,.452.022l0.023,0.351a1.271,1.271,0,0,1,1.017.461V14.8h0.023a8.045,8.045,0,0,0,.045-1.8h0.045v1.735A0.344,0.344,0,0,1,16.552,15.042Z" transform="translate(0 0.5)"/>
</svg>
