<svg xmlns="http://www.w3.org/2000/svg" width="39.969" height="40" viewBox="0 0 39.969 40">
  <defs>
    <style>
      .cls-1 {
        fill: #fff;
        fill-rule: evenodd;
      }
    </style>
  </defs>
  <path id="Color_Fill_1" data-name="Color Fill 1" class="cls-1" d="M15.449,17.387a12.966,12.966,0,0,1,1.476-.2,2.066,2.066,0,0,0,.246.986,2.809,2.809,0,0,0,.492-0.1,0.362,0.362,0,0,1-.3-0.345h0.3V17.683h0.049v0.1a0.252,0.252,0,0,1,.049.148l0.246-.049a0.751,0.751,0,0,1,.2-0.3c0.157-.394-0.055-0.645.443-0.69v0.444c0.529,0,.72.052,1.181,0.049v-0.1a0.654,0.654,0,0,0,.049-0.345h0.492l0.049,0.444c0.488,0.02,1.017-.033,1.525,0a0.239,0.239,0,0,0,.049.148V17.486a1.01,1.01,0,0,1,.492-0.345,0.251,0.251,0,0,0,.246.148v0.739h0.443v-0.3h0.049v0.049a0.427,0.427,0,0,1,.049.246h0.689l0.148-.2a4.955,4.955,0,0,1,2.313.345v0.1h-0.1a1.6,1.6,0,0,0-.689-0.1v0.1l1.328,0.1a0.621,0.621,0,0,1,.3-0.1,3.651,3.651,0,0,1,.492.247c0.433,0.146.812,0.067,1.279,0.2,0.156,0.043.414,0.2,0.541,0.247h9.5v0.789a1.229,1.229,0,0,1-.394.049,16.861,16.861,0,0,0-2.706-.049h-6.4a7.1,7.1,0,0,1-1.328.394V20.2h1.132v0.148l3.838,0.1c0.431,0.116.939,0.334,1.378,0.444,0.349,0.087.771,0.039,1.033,0.1,1.294,0.294,2.726-.149,3.985.1,0.02,0.558.582,1.161,0.246,1.627a3.872,3.872,0,0,1-.443.246,2.771,2.771,0,0,0-.443.789,1.933,1.933,0,0,1-.2.1l-0.049.246a2.56,2.56,0,0,1-.64.838,9.928,9.928,0,0,1-1.87.789A20.469,20.469,0,0,1,33.161,27H7.38A10.665,10.665,0,0,1,5.9,26.409c-0.436-.184-0.843-0.259-1.279-0.444A3.423,3.423,0,0,0,3.1,25.472V25.324a3.934,3.934,0,0,1-.738-0.345,0.453,0.453,0,0,1-.2.049c-0.039-.056,0-0.165-0.049-0.246-0.1-.187-0.329-0.309-0.443-0.542A0.6,0.6,0,0,1,.886,23.6V23.155a0.414,0.414,0,0,0-.148-0.1,0.63,0.63,0,0,1,0-.641,0.92,0.92,0,0,1-.3-0.444H0.492s0.065,0.142.1,0.1V22.021a0.3,0.3,0,0,0,.1-0.1,1.859,1.859,0,0,0-.344-0.148v0.049a0.191,0.191,0,0,1,.1.148H0.394a3.341,3.341,0,0,1-.246-0.394A2.265,2.265,0,0,0,.3,21.232a0.328,0.328,0,0,1-.3-0.2,0.417,0.417,0,0,1,.344-0.148A1.737,1.737,0,0,1,.59,20.838c0.054-.054.019-0.053,0.1-0.148a2.516,2.516,0,0,0,.689,0,0.238,0.238,0,0,1,.049-0.148A6.018,6.018,0,0,1,3,20.394a0.624,0.624,0,0,0,.049.2,2.6,2.6,0,0,0,.492-0.049,1.125,1.125,0,0,1,.1-0.2,4.755,4.755,0,0,0,1.033,0,0.719,0.719,0,0,0,.689.148,6.488,6.488,0,0,1,2.362-.3,5.43,5.43,0,0,0,.787-0.1,3.523,3.523,0,0,1,.541.3,1.338,1.338,0,0,1,.3-0.2A0.178,0.178,0,0,1,9.3,20.1H9.643a8.406,8.406,0,0,0,1.673.1,10.823,10.823,0,0,0,2.657.049V20.1H13.727V19.951a0.164,0.164,0,0,1-.148,0,7.644,7.644,0,0,1,.492-1.183,1.758,1.758,0,0,0,.689.049V18.768h0.049a3.178,3.178,0,0,0-.049-1.282l0.492-.049c0.1-.959.1-2.07,0.1-3.155A3.556,3.556,0,0,1,15.4,13,39.816,39.816,0,0,0,15.449,17.387Zm1.328,0.69c-0.32.194-.933,0.034-1.23,0.246H15.6a0.425,0.425,0,0,0,.2.148c0.3-.2.87-0.088,1.181-0.3a0.179,0.179,0,0,0,.049-0.1H16.777Zm8.364,0.148a0.991,0.991,0,0,1,.344.049V18.127a1.5,1.5,0,0,1-.344-0.049v0.148Zm-10.135.1a0.319,0.319,0,0,0-.1.247h0.049a0.178,0.178,0,0,1,.1-0.049,0.63,0.63,0,0,1,.049-0.2h-0.1Zm13.137,0.049h0.1v0.049A0.168,0.168,0,0,1,28.143,18.373ZM27.552,20.1v0.1h0.394V20.148H28V20.1H27.552ZM6.4,20.444a0.178,0.178,0,0,0,.1.049A0.177,0.177,0,0,0,6.4,20.444Zm-4.92.1a0.238,0.238,0,0,0,.049.148,3.221,3.221,0,0,1,.492-0.1V20.542H1.476Zm37.54,0.591v0.1H39.41V21.183h0.049V21.134H39.016Zm0.492,0v0.1h0.049v-0.1H39.508Zm-0.59,1.922a0.2,0.2,0,0,0,.2.1v-0.1h-0.2ZM24.8,24.782a2,2,0,0,1-.394,1.331h0.1a21.192,21.192,0,0,1,2.8,0V26.063a1.488,1.488,0,0,1-.344-1.43H26.126A1.583,1.583,0,0,1,24.8,24.782Zm6.3-.148a0.239,0.239,0,0,1-.049.148,0.533,0.533,0,0,1-.3.049,0.976,0.976,0,0,1-.443,0c-0.062-.224-0.156-0.212-0.443-0.2v0.1c0.313,0.465-.2,1.1-0.3,1.38h2.116v-0.1a1.368,1.368,0,0,1-.3-1.38h-0.3Zm4.822,0a1.339,1.339,0,0,1-.2.345h0.049c0.119-.108.324-0.137,0.443-0.247l-0.148-.049A0.251,0.251,0,0,0,35.916,24.634Zm-29.668.049H5.264c-0.111.163-.283,0.231-0.394,0.394A5.117,5.117,0,0,1,6.3,25.62V25.472A1.158,1.158,0,0,1,6.248,24.683ZM21.8,24.831c-0.454,0-1,.046-1.378.049a2.128,2.128,0,0,0-.787,0,1.745,1.745,0,0,1-.344,1.232h0.2a20.35,20.35,0,0,1,2.657,0v-0.1A1.437,1.437,0,0,1,21.8,24.831ZM9.2,24.88a2.026,2.026,0,0,1-.344,1.232h0.1a13.44,13.44,0,0,1,2.116,0,1.054,1.054,0,0,0,.738-0.1,1.269,1.269,0,0,1-.344-1.134H9.2Zm5.264,0a2.481,2.481,0,0,1-.394,1.232h2.755a0.273,0.273,0,0,1,.2,0v-0.1a1.362,1.362,0,0,1-.394-1.134H14.465ZM34.342,24.93a1.564,1.564,0,0,1-.1.641h0.1a2.986,2.986,0,0,1,.738-0.345V25.176A1.182,1.182,0,0,1,34.342,24.93Z"/>
</svg>
