<?xml version="1.0" encoding="utf-8"?>
<!-- Generator: Adobe Illustrator 16.0.0, SVG Export Plug-In . SVG Version: 6.00 Build 0)  -->
<!DOCTYPE svg PUBLIC "-//W3C//DTD SVG 1.1//EN" "http://www.w3.org/Graphics/SVG/1.1/DTD/svg11.dtd">
<svg version="1.1" id="Layer_1" xmlns="http://www.w3.org/2000/svg" xmlns:xlink="http://www.w3.org/1999/xlink" x="0px" y="0px"
	 width="80px" height="40px" viewBox="0 0 80 40" enable-background="new 0 0 80 40" xml:space="preserve">
<path id="Color_Fill_1" fill="#FFFFFF" d="M24.208,3h0.083c0.018,0.127,0.003,0.257-0.042,0.378C24.256,3.25,24.242,3.123,24.208,3z
	 M24.125,3.294c0.092,0.1,0.13,0.058,0.042,0.126V3.5h-0.042V3.294z M24.167,3.672c0.074,0.218,0.074,0.455,0,0.673V3.672
	L24.167,3.672z M24.542,10.272c0.049,0.837,0.183,1.851,0.167,2.606c-0.006,0.29,0.118,0.59,0.125,0.883
	c0.391-0.02,0.782,0.008,1.166,0.083c-0.366-0.021-0.732,0.021-1.083,0.126c-0.017-0.11-0.067-0.091-0.292-0.084v0.042
	c0.045,0,0.089,0.015,0.125,0.042c-0.045,0-0.089,0.015-0.125,0.042c0.022,0.022,0.037,0.052,0.042,0.084
	c0.094-0.017,0.045-0.039,0.125,0c-0.142,0.317-0.171,0.673-0.083,1.009h0.458c0.005-0.058,0.019-0.115,0.042-0.168
	c0.051,0.036,0.107,0.064,0.167,0.084c-0.074,0.187-0.089,0.392-0.042,0.588c-0.053,0.021-0.109,0.036-0.167,0.041
	c-0.036-0.051-0.064-0.107-0.083-0.167c0.059-0.034,0.092-0.1,0.083-0.168c-0.045,0-0.089-0.014-0.125-0.042h0.125v-0.126h-0.459
	v0.042c0.031,0.05,0.046,0.109,0.042,0.168c0.093-0.039,0.199-0.039,0.292,0L24.75,15.4l0.375,5.127
	c0.022-0.022,0.037-0.052,0.042-0.084c1.007-0.62,1.988-1.288,3-1.934c0.371-0.236,0.723-0.547,1.125-0.756
	c-0.058-0.074-0.101-0.16-0.125-0.252c0.018-0.01,0.032-0.024,0.042-0.042h0.125v0.168c0.018,0.011,0.032,0.024,0.042,0.042
	c0.067-0.023,0.141-0.023,0.208,0c-0.016,0.066,0.009,0.287,0,0.294c-0.018,0.061-0.046,0.117-0.083,0.168h-0.084
	c-0.032-0.11-0.05-0.1-0.083-0.21c0.076-0.031,0.136-0.092,0.167-0.168h-0.043c-0.312,0.275-0.663,0.501-1.042,0.672
	c-0.723,0.461-1.444,1.01-2.167,1.471c-0.438,0.126-0.802,0.432-1,0.842h0.292v0.21c-0.032,0.004-0.061,0.019-0.083,0.042
	c-0.032-0.004-0.061-0.02-0.083-0.042c-0.059-0.034-0.092-0.101-0.083-0.168c-0.064-0.005-0.125-0.035-0.167-0.085v0.337
	c0.164,0.269-0.023,0.3,0.458,0.294c0.028-0.081,0.042-0.166,0.042-0.252c-0.032-0.004-0.061-0.02-0.083-0.042
	c0.238-0.036,0.166-0.134,0.417-0.168c0.055,0.01,0.112,0.01,0.167,0c0.233,0.086,0,0.259,0.458,0.168l0.042-0.126
	c0.013-0.21,0.013-0.42,0-0.631h0.042c0.025,0.047,0.072,0.079,0.125,0.084c-0.02-0.039-0.02-0.086,0-0.125h0.083l-0.042,0.125
	h0.125V20.15h0.917c0.015-0.084,0.059-0.158,0.124-0.211c0.426-0.078,0.858-0.12,1.292-0.127v-0.084h0.25
	c0.007,0.031,0.021,0.061,0.042,0.084v0.043h0.042v-0.043H30v-0.336h0.042v0.041c0.021,0.098,0.021,0.197,0,0.295h0.125
	c0.074,0.283,0.4,0.229,0.75,0.209c0.341-0.08,0.695-0.094,1.042-0.041c0.055,0.123,0.162,0.215,0.292,0.252
	c0.05-0.031,0.108-0.047,0.167-0.043v0.084c-0.093,0.145-0.042,0.382-0.125,0.547c-0.208,0.242-0.484,0.416-0.792,0.5
	c0.182,0.016,0.363,0.044,0.542,0.084c0.099-0.078,0.212-0.136,0.333-0.168c0.268,0.027,0.326,0.176,0.583,0.209
	c0.042-0.283,0.027-0.381,0.333-0.377v0.041c-0.059-0.004-0.118,0.011-0.167,0.043c0.079,0.075,0.111,0.188,0.083,0.293h0.083
	c0.15,0.016,0.3-0.029,0.417-0.125c0.041-0.266,0.055-0.533,0.042-0.801c0.064-0.559,0.569-0.96,1.128-0.896
	c0.041,0.006,0.082,0.012,0.122,0.021l-0.125,1.301c-0.105,0.098-0.166,0.234-0.167,0.378h0.25c0.05-0.161,0.207-0.267,0.375-0.253
	c0.098,0.101,0.21,0.186,0.333,0.253c0.075-0.159,0.159-0.313,0.25-0.462l-0.042-1.01c0-0.938-0.085-1.914-0.125-2.773h0.042
	c0.038,0.045,0.08,0.088,0.125,0.126v-0.628c-0.072,0.008-0.145-0.007-0.208-0.042h0.208c0.018-0.101,0.046-0.199,0.084-0.294
	c-0.059,0.004-0.118-0.01-0.167-0.042c0.129-0.052,0.094-0.017,0.125-0.168c0.328-0.017,0.451,0,0.875,0V15.9
	c-0.138,0.025-0.277,0.039-0.417,0.041c-0.018-0.01-0.032-0.023-0.042-0.041c0.319-0.023,0.639-0.023,0.958,0v0.041h-0.04
	c-0.14,0.01-0.281-0.004-0.417-0.041v0.13c0.4,0,0.543-0.026,0.833,0c0.029,0.077,0.071,0.147,0.125,0.21h-0.125
	c0.035,0.096,0.063,0.193,0.083,0.294c0.072-0.009,0.145,0.007,0.208,0.042h-0.207l0.042,0.588h0.042
	C37.889,17.093,37.935,17.031,38,17v0.21c-0.042,0.573-0.042,1.149,0,1.724h0.167c0.048,0.123,0.119,0.237,0.208,0.336l-0.083,0.125
	h0.625v0.043c-0.063,0.203-0.077,0.42-0.042,0.631c-0.291,0.074-0.571,0.188-0.833,0.336c0.022,0.139,0.036,0.279,0.042,0.42
	c0.034,0.1,0.155,0.225,0.208,0.336c0.017-0.01,0.032-0.025,0.042-0.042c0.062-0.147,0.104-0.304,0.125-0.462
	c0.116-0.061,0.245-0.089,0.375-0.084c0.044,0.039,0.086,0.081,0.125,0.126c0.141,0.213-0.039,0.541,0.292,0.63
	c0.063-0.247,0.091-0.502,0.083-0.758c-0.005-0.185,0.022-0.369,0.083-0.545c0.155,0.016,0.238-0.086,0.292,0
	c0.031,0.05,0.046,0.108,0.042,0.168h-0.084c0.001-0.046-0.014-0.09-0.042-0.127c-0.114,0.097-0.188,0.23-0.208,0.379
	c-0.056,0.19-0.07,0.391-0.042,0.588h0.083c-0.011-0.086,0.004-0.174,0.042-0.252c0.033,0.06,0.099,0.093,0.167,0.084
	c0.016-0.11-0.031-0.055,0.083-0.084c0.063,0.109,0.125,0.089,0.292,0.084V20.7c0.413-0.069,0.833-0.084,1.25-0.042V20.7h0.042
	v0.168c0.314,0,0.411-0.054,0.625-0.042c-0.007,0.175,0.037,0.349,0.125,0.5h0.042v-0.252c0.029-0.266,0.029-0.534,0-0.801
	c-0.092-0.09-0.175-0.188-0.25-0.293h0.042c0.045,0.045,0.104,0.074,0.167,0.084c0.093,0.413,0.136,0.837,0.125,1.261h0.708
	c-0.007-0.212-0.035-0.423-0.083-0.63c0.413-0.07,0.833-0.084,1.25-0.043c0.025,0.068,0.04,0.139,0.042,0.211
	c-0.096,0.083-0.129,0.217-0.083,0.336h0.206v-0.125h0.458v0.252h0.208c0.068-0.417,0.134-0.945,0.667-0.715
	c0.024,0.15,0.081,0.294,0.167,0.42V20.99c0.05-0.078,0.029-0.254,0.083-0.336l0.333-0.168c0.096-0.176,0.18-0.358,0.25-0.547
	c0.053,0.023,0.109,0.037,0.167,0.043c0.057-0.814,0.028-1.631-0.083-2.438v-0.968c-0.078-0.187-0.121-0.387-0.125-0.588H46.5
	c-0.002,0.199,0.026,0.396,0.083,0.588h0.042c0.012-0.115,0.039-0.229,0.083-0.336c-0.046,0-0.089-0.015-0.125-0.042h0.042
	c0.051-0.062,0.115-0.107,0.167-0.168c0.29,0.041,0.583,0.056,0.875,0.042V15.9h0.042v0.041c0.027,0.037,0.041,0.081,0.042,0.127
	c0.276-0.04,0.557-0.04,0.833,0c0.08,0.047,0.164,0.09,0.25,0.125v0.047h-0.167v0.126h0.125c0.024,0.28,0.069,0.128,0.125,0.252
	c0.015,0.489,0.028,0.979,0.042,1.471h0.167v0.126h-0.168c-0.055,0.916,0.015,1.835,0.208,2.732h0.042V20.7
	c0.098-0.498,0.14-1.006,0.125-1.513c0.131-0.645,0.759-1.06,1.402-0.929c0.005,0.001,0.01,0.002,0.015,0.003
	c-0.005,0.521-0.047,1.041-0.125,1.555H50.5V19.9c-0.071,0.428-0.014,0.866,0.167,1.261c0.011,0.386-0.046,0.769-0.167,1.135h0.042
	c0.175-0.054,0.36-0.067,0.542-0.042c-0.004-0.059,0.01-0.118,0.042-0.168c0.017,0.15-0.021,0.105,0.083,0.168
	c0.068-0.016,0.14-0.016,0.208,0v-0.172c-0.071,0.008-0.145-0.007-0.208-0.042c0.157-0.006,0.146,0.021,0.208-0.084h-0.209v-0.042
	h0.208V21.62h-0.291c0.011,0.086-0.004,0.174-0.042,0.252c-0.05-0.336-0.036-0.679,0.042-1.009v0.588
	c0.1,0.014,0.201-0.001,0.292-0.042c-0.071,0.008-0.145-0.007-0.208-0.042c0.157-0.006,0.146,0.02,0.208-0.084h-0.209v-0.041h0.208
	v-0.5c-0.099-0.003-0.197-0.017-0.292-0.042v-0.089c0.042-0.068,0.04-0.269,0.083-0.336v0.336h0.125
	c-0.016-0.114-0.001-0.23,0.042-0.336c-0.016,0.113-0.001,0.229,0.042,0.336v-0.336c-0.059-0.035-0.092-0.101-0.083-0.168
	c0.102-0.023,0.19-0.083,0.25-0.168l0.542,0.041v-0.041c-0.045-0.42-0.045-0.842,0-1.262H52.5v-1.009
	c-0.045,0.001-0.09-0.015-0.125-0.042c0.113-0.016,0.228-0.002,0.333,0.042h-0.125v1.009h0.333v0.588
	c0.068-0.014,0.139-0.014,0.208,0c0.013,0.084,0.013,0.169,0,0.252c-0.067,0.025-0.125,0.068-0.167,0.127
	c0.1,0.108,0.15,0.268,0.25,0.377c-0.047-0.145-0.016-0.303,0.083-0.42v0.127h0.292c-0.001-0.046,0.014-0.09,0.042-0.127
	c-0.023,0.219,0.021,0.438,0.125,0.631h-0.166v0.293h0.333c-0.014-0.1,0.001-0.201,0.042-0.293v0.293h0.417l-0.042-0.377
	c-0.2-0.019-0.358-0.178-0.375-0.379c0.095-0.029,0.192-0.044,0.292-0.041c0.022,0.021,0.052,0.037,0.083,0.041v-0.252
	c0.39-0.021,0.78-0.007,1.167,0.043v0.084c0.027,0.036,0.041,0.08,0.042,0.125h0.667v-0.082c-0.064-0.445-0.078-0.896-0.042-1.346
	c-0.069-0.306,0.058-0.826-0.042-1.177C56.052,16.721,56.01,16.271,56,15.82h0.125c-0.005,0.183,0.01,0.365,0.042,0.546h0.083
	v-0.042c0.027-0.037,0.041-0.081,0.042-0.126c-0.046,0.001-0.089-0.015-0.125-0.042h0.083c0.035-0.061,0.078-0.117,0.125-0.168
	c0.248,0.037,0.499,0.051,0.75,0.042v-0.169c-0.045,0.001-0.09-0.014-0.125-0.041c0.113-0.016,0.228-0.002,0.333,0.041h-0.125v0.169
	c0.278,0.032,0.56,0.019,0.833-0.042c0.207-0.571,0.346-1.163,0.417-1.765c0.271-0.96,0.426-1.979,0.708-2.984
	c0.183-0.519,0.309-1.055,0.375-1.6c-0.076-0.047-0.146-0.104-0.208-0.168H59.25c-0.569,0.038-1.141,0.024-1.708-0.042
	c0.126,0.018,0.255,0.003,0.375-0.042c-0.046,0-0.089-0.015-0.125-0.042h1.417c0.025-0.067,0.039-0.138,0.042-0.21
	c-0.038-0.123-0.038-0.254,0-0.378h0.417V8.506c0.232-0.047,0.471-0.061,0.708-0.042c0.104,0.069,0.178,0.174,0.208,0.294H61
	c-0.02,0.182-0.02,0.365,0,0.546c0.219,0.11,0.469,0.14,0.708,0.084c0.525-0.085,1.063-0.071,1.583,0.042
	c-0.135,0.035-0.064-0.021-0.125,0.084c-0.761-0.092-1.529-0.106-2.292-0.042c-0.15,0.224-0.397,0.364-0.667,0.378l0.042,0.8
	c0.39-0.041,0.782-0.026,1.167,0.042c0.02,0.047,0.002,0.101-0.042,0.126c0.086,0.092,0.112,0.008,0.125,0.084
	c-0.165,0.199-0.228,0.464-0.167,0.715l-1.042,0.168v0.294c0.19,0.085,0,0.088,0.125,0.168c0.053,0.029,0.096,0.073,0.125,0.126
	c-0.237,0.375-0.299,0.836-0.167,1.261c0.086,0.011,0.173-0.003,0.25-0.042c-0.127-0.155-0.145-0.373-0.042-0.546h0.333
	c0.033,0.06,0.1,0.093,0.167,0.084c0.013,0.154,0.013,0.309,0,0.462c-0.046,0-0.089,0.015-0.125,0.042h0.333
	c0.034,0.152,0.034,0.31,0,0.462c-0.229,0.139-0.624,0.058-0.833,0.21c-0.045,0.121-0.06,0.25-0.042,0.378
	c0.053,0.277,0.067,0.56,0.042,0.841c0.064,0.501,0.093,1.007,0.083,1.513c0.349-0.007,0.697-0.035,1.042-0.084V17
	c-0.032,0.004-0.062,0.02-0.083,0.042h0.792v-0.087h-0.415v-0.043h0.417c-0.021-0.16-0.058-0.178-0.083-0.336
	c0.031-0.004,0.061-0.02,0.083-0.042l0.25,0.084c-0.086,0.077-0.145,0.181-0.167,0.294c0.127-0.018,0.256-0.004,0.375,0.042
	c-0.086-0.01-0.173,0.006-0.25,0.046h0.042c0.063,0.035,0.136,0.049,0.208,0.042c0.223,0.017,0.447,0.002,0.667-0.042
	c-0.032-0.004-0.061-0.02-0.083-0.042h0.208V17c-0.032,0.004-0.061,0.02-0.083,0.042c0.211,0.015,0.137,0.358,0.125,0.672
	l-0.333,0.042v0.168c0.36,0,0.7-0.009,0.958,0v0.631c-0.045,0-0.09,0.015-0.125,0.043c0.135,0.034,0.064-0.021,0.125,0.084
	c-0.203-0.074-0.429-0.025-0.583,0.125c-0.028,0.065-0.005,0.006,0,0.127h0.208c0.063-0.035,0.137-0.05,0.208-0.043v1.301
	c0.208-0.064,0.427,0.053,0.491,0.26c0.004,0.012,0.006,0.022,0.009,0.033c0.2,0,0.558,0.055,0.583,0.043
	c0.043-0.107,0.057-0.223,0.042-0.336h0.667v0.041c-0.043,0.107-0.057,0.223-0.042,0.336c0.335,0.029,0.674,0,1-0.084
	c-0.022-0.021-0.052-0.037-0.083-0.041c-0.161-0.052-0.332-0.066-0.5-0.043v-0.293l-0.25-0.043
	c-0.035-0.081-0.063-0.165-0.083-0.252c0.235-0.08,0.328,0.022,0.333-0.293h1.083c0.028,0.08,0.042,0.166,0.042,0.252l1.917,0.041
	v0.127l-1.833,0.041v0.295h0.042c0.306-0.125,0.644-0.139,0.958-0.043c0.045,0.063,0.074,0.135,0.083,0.211
	c-0.034,0.037-0.062,0.08-0.083,0.125h0.375c-0.02-0.141-0.006-0.285,0.042-0.42c-0.02,0.143-0.005,0.286,0.042,0.42
	c-0.003-0.154,0.012-0.31,0.042-0.461h0.708v0.041h-0.044c-0.036,0.027-0.131,0.057-0.167,0.084c0.1-0.014,0.201,0.002,0.292,0.043
	c-0.026,0.036-0.042,0.08-0.042,0.125h0.042c0.226-0.012,0.452,0.018,0.667,0.084c-0.016-0.113-0.001-0.229,0.042-0.336v0.336h0.125
	c-0.056-0.144-0.065-0.189,0.083-0.252v-0.041c0.042-0.043,0.041,0.041,0.042,0.041c0.016,0.088,0.044,0.173,0.083,0.252
	c0.012-0.199,0.023-0.219,0.208-0.252c0.022,0.023,0.052,0.037,0.083,0.043V20.4c-0.022,0.022-0.037,0.052-0.042,0.084h0.083v-0.211
	c0.045,0,0.09,0.015,0.125,0.043h0.043v0.125c0.276-0.031,0.555-0.045,0.833-0.041c-0.011-0.087,0.004-0.174,0.042-0.252V20.4h0.208
	c-0.008-0.073,0.007-0.146,0.042-0.211V20.4c0.157,0.048,0.328,0.017,0.458-0.084h-0.25v-0.041h0.042
	c0.089-0.063,0.172-0.134,0.25-0.211c0-0.1,0.015-0.197,0.042-0.293h-0.084c-0.195,0.094-0.419,0.108-0.625,0.041
	c0.005-0.058,0.019-0.114,0.042-0.168c0.104,0.076,0.25,0.059,0.333-0.041c-0.106-0.062-0.047,0.008-0.083-0.127h0.375v-0.043
	c-0.035-0.086-0.078-0.171-0.125-0.252c-0.059-0.037-0.166-0.012-0.208-0.041c0.451-0.043,0.906,0.014,1.333,0.168
	c0.139,0.424,0.436,0.317,0.958,0.293v0.084h-0.666c-0.077,0.038-0.165,0.053-0.25,0.043c0.001,0.213,0.028,0.425,0.083,0.631
	c-0.113-0.016-0.228-0.002-0.333,0.041h1.125c0.049,0.022,0.047,0.166,0.167,0.084c0.032-0.121,0.09-0.236,0.167-0.336
	c0.188,0.027,0.372,0.084,0.542,0.168c-0.031,0.051-0.046,0.109-0.042,0.168c0.058,0.006,0.114,0.02,0.167,0.043v-0.043
	c0.033-0.031,0.079-0.046,0.125-0.041c-0.011-0.087,0.004-0.174,0.042-0.252c-0.006,0.219-0.005,0.256,0.125,0.336v-0.043
	c0.022-0.021,0.052-0.035,0.083-0.041c0.036,0.026,0.08,0.041,0.125,0.041c-0.016-0.113-0.001-0.229,0.042-0.336
	c-0.016,0.114-0.001,0.23,0.042,0.336c0.234-0.062,0.482-0.047,0.708,0.043c-0.018-0.128-0.003-0.258,0.042-0.379
	c-0.045,0.133-0.014,0.278,0.083,0.379v0.041h0.04c-0.018-0.127-0.004-0.257,0.042-0.377v0.377h0.5
	c-0.021-0.141-0.005-0.285,0.042-0.42c-0.047,0.146-0.016,0.305,0.083,0.42c-0.018-0.127-0.003-0.257,0.042-0.377v0.377h0.417
	c-0.021-0.141-0.005-0.285,0.042-0.42v0.42c0.271-0.014,0.539-0.07,0.792-0.168c0.011-0.192,0.067-0.38,0.167-0.545h0.042v0.125
	c-0.089,0.109-0.146,0.24-0.167,0.379c0.197-0.035,0.399,0.027,0.542,0.168V19.1c-0.053-0.531-0.053-1.067,0-1.6h0.083v0.084
	c-0.066,0.275-0.08,0.561-0.042,0.841v2.101h0.083c0.01-0.06-0.034,0.017-0.042-0.043c-0.08-0.032,0.083-0.041,0.083-0.041
	c0.004,0.031,0.02,0.061,0.042,0.084c-0.364,2.029-0.334,3.652-1.833,4.58c-0.52,0.264-1.064,0.475-1.625,0.631l-0.417,0.084
	c-0.226,0.145-0.628,0.855-0.875,0.968h-0.834c-0.181-0.177-0.393-0.319-0.625-0.42c-0.327,0.05-0.648,0.134-0.958,0.252
	c-0.756,0.229-1.543,0.342-2.333,0.336H11.708c-0.089-0.341-0.295-0.638-0.583-0.841c-0.005,0.058-0.019,0.114-0.042,0.168
	c-0.1-0.059-0.024-0.071-0.125-0.042c-0.104,0.241-0.26,0.456-0.458,0.63c-0.349,0.12-0.726,0.135-1.083,0.042
	c-0.112-0.325-0.168-0.666-0.167-1.009c0.344-0.061,0.694-0.075,1.042-0.043v-0.038c-1.07-0.046-2.344,0-3.417,0v0.042
	c0.079,0.277,0.064,0.572-0.042,0.841c-0.561,0.208-1.172,0.237-1.75,0.084c-0.32-0.515-0.452-1.122-0.375-1.724
	c0.064-0.061,0.135-0.117,0.209-0.166c0.3-0.101,0.62,0.158,0.833,0.041c-0.484-0.055-0.96-0.17-1.417-0.342
	c-0.715-0.22-1.72-0.232-2.083-0.8c-0.14-0.337-0.238-0.69-0.292-1.051c-0.093-0.211-0.122-0.444-0.083-0.672h0.083
	c0.006,0.157-0.02,0.147,0.083,0.21v-0.21c-0.145-0.364-0.243-0.746-0.292-1.136c-0.141-0.467-0.213-0.969-0.375-1.471
	c-0.023-0.07-0.152-0.271-0.166-0.33c-0.001-0.217-0.044-0.432-0.125-0.632c0.005,0.144,0.033,0.286,0.083,0.421l-1.042,0.209
	C0.114,19.123,0.1,19.109,0.083,19.1L0,18.552h0.042V18.51C0.35,18.403,0.674,18.347,1,18.342c0.028,0.032,0.055,0.094,0.083,0.126
	v-0.126c-0.084-0.107-0.128-0.241-0.125-0.378H1v0.042c0.141,0.352,0.239,0.719,0.292,1.094c0.193,0.601,0.482,1.469,0.583,1.977
	c0.042,0.428,0.169,0.842,0.375,1.219c-0.016-0.113-0.001-0.229,0.042-0.336v0.336H2.75V22.25c-0.136-0.109-0.237-0.255-0.292-0.42
	H2.5c0.077,0.201,0.225,0.365,0.417,0.462c-0.016-0.114-0.001-0.229,0.042-0.336v0.336H4c-0.013-0.1,0.001-0.2,0.042-0.292v0.294
	h1.083c-0.016-0.114-0.001-0.229,0.042-0.336v0.292c0.073,0.018,0.144,0.045,0.208,0.084c0.005-0.058,0.019-0.115,0.042-0.168
	c0.101,0.058,0.221,0.072,0.333,0.042c0.035,0.136-0.02,0.063,0.083,0.126c-0.015-0.113,0-0.229,0.042-0.334
	c-0.01,0.134,0.054,0.263,0.167,0.336c0.036-0.027,0.08-0.041,0.125-0.042v-0.17h0.125c0,0.108-0.054,0.101,0.083,0.168V22.25
	c0.065-0.115,0.094-0.246,0.083-0.378H7v0.42h0.542c-0.011-0.087,0.004-0.174,0.042-0.252c-0.001,0.086,0.013,0.171,0.042,0.252
	H7.75V22.04c0.286-0.013,0.477-0.083,0.833-0.084v0.168H8.75c-0.03,0.067-0.03,0.144,0,0.21h0.125l-0.042-0.252
	c0.071-0.002,0.142-0.016,0.208-0.042v0.084c0.028,0.052,0.028,0.115,0,0.168h0.126c0.022-0.083,0.022-0.169,0-0.252H9.25
	c0.036,0.026,0.08,0.042,0.125,0.042v0.21h0.042v0.042h0.125c-0.018-0.127-0.003-0.258,0.042-0.378v0.378h0.708
	c-0.013-0.1,0.001-0.201,0.042-0.294v0.294h0.125v-0.126c0.489,0.006,0.639,0,1,0C11.451,22.137,11.465,22.063,11.5,22v0.336h0.125
	c0.007-0.212,0.035-0.424,0.083-0.63h-0.666c-0.078-0.038-0.165-0.052-0.25-0.042v-0.086c0.271-0.018,0.591-0.042,0.917-0.042
	c-0.04-0.118,0.023-0.247,0.141-0.287c0.008-0.003,0.017-0.005,0.026-0.007c0.424-0.163,0.886-0.207,1.333-0.126
	c-0.149,0.017-0.1-0.021-0.167,0.084c-0.052,0.063-0.095,0.134-0.125,0.21h0.375l-0.042,0.21c0.097-0.011,0.195-0.011,0.292,0h0.042
	v0.042c-0.059-0.005-0.118,0.01-0.167,0.042c0.059-0.005,0.118,0.01,0.167,0.042l-0.625,0.084c-0.004,0.031-0.019,0.062-0.042,0.084
	c0.004,0.031,0.019,0.062,0.042,0.084c0.175,0.054,0.36,0.068,0.542,0.042c-0.013,0.101,0.001,0.202,0.042,0.294
	c-0.02-0.142-0.005-0.285,0.042-0.42v0.42h0.125V22l0.125-0.042c0.01-0.018,0.025-0.032,0.042-0.042v0.21
	c-0.035,0.064-0.049,0.138-0.042,0.21h0.625v-0.043c-0.072-0.085-0.072-0.209,0-0.294c0.155,0.015,0.308,0.042,0.458,0.084
	c-0.085-0.011-0.173,0.003-0.25,0.042h0.292c0.113-0.266,0.142-0.559,0.083-0.841c0.157-0.024,0.311-0.067,0.458-0.126
	c-0.034-0.165-0.034-0.335,0-0.5c0.066-0.035,0.136-0.063,0.208-0.084v0.294h0.25v0.21h0.083c-0.02-0.142-0.005-0.285,0.042-0.42
	v0.42h0.166v-0.5c-0.248-0.045-0.502-0.045-0.75,0v-0.135c0.653-0.023,1.194-0.082,1.958-0.084v-0.211
	c0.366-0.024,0.824-0.041,1.25-0.041v0.252h0.083c0.078-0.038,0.165-0.053,0.25-0.043l0.042,0.127h0.042v0.041h-0.042
	c-0.05,0.077-0.123,0.137-0.208,0.168c0.061,0.148,0.061,0.314,0,0.463h0.458c0.177-0.055,0.365-0.055,0.542,0
	c0.025-0.067,0.04-0.139,0.042-0.21c-0.007-0.126-0.007-0.253,0-0.378c-0.085,0.011-0.173-0.004-0.25-0.043
	c0.229,0.007,0.457-0.036,0.667-0.125c0.005-0.059,0.019-0.115,0.042-0.168c-0.181,0-0.356-0.059-0.5-0.168
	c0.072,0.008,0.145-0.007,0.208-0.043h-0.209v-0.463h0.833v-0.084c-0.061-0.018-0.108-0.064-0.125-0.125
	c0.086-0.019,0.17-0.047,0.25-0.084v0.041c0.041,0.08,0.041,0.174,0,0.252H21.5c0.23,0.063,0.472,0.077,0.708,0.043
	c0.017-0.166-0.018-0.166,0.083-0.211c0.062,0.084,0.059-0.023,0.083,0.127c-0.022,0.022-0.037,0.052-0.042,0.084h1.083
	c0.044-0.18,0.162-0.301,0.208-0.463c0.051-0.174-0.04-0.34,0-0.42c0.041-0.133,0.154-0.23,0.292-0.252
	c0.128,0.069,0.4-0.029,0.625,0.042c-0.044,0.04-0.086,0.081-0.125,0.126h0.208c0.005-0.439-0.067-0.654-0.042-0.883h-0.206v0.042
	c0.133,0.037,0.116,0.047,0.125,0.084c-0.05,0.031-0.108,0.046-0.167,0.042v-0.042c0.032-0.005,0.061-0.019,0.083-0.042
	c-0.344-0.066-0.692-0.107-1.042-0.126v-0.084c0.135-0.035,0.064,0.021,0.125-0.084c-0.045,0.001-0.089-0.015-0.125-0.042
	c0.022-0.023,0.037-0.053,0.042-0.084H23.5c0.004,0.031,0.019,0.062,0.042,0.084c-0.001-0.086,0.013-0.171,0.042-0.252
	c0.072,0.008,0.145-0.007,0.208-0.042h-0.125c-0.011-0.14-0.011-0.28,0-0.42c0.144-0.068,0.299-0.11,0.458-0.126V16.7
	c0.072,0.143,0.087,0.308,0.042,0.462c-0.072-0.008-0.145,0.006-0.208,0.042h0.625v-0.081c-0.063-0.277-0.105-0.558-0.125-0.841
	l0.083,0.042c-0.181-0.572,0.083-1.843-0.208-2.186c0.105-0.1,0.08-0.038,0.083-0.252c-0.528,0.017-1.057,0.003-1.583-0.042
	c-0.347,0.048-0.7,0.034-1.042-0.042c0.5,0.014,1.82,0.09,1.958-0.168c-0.045,0.001-0.089-0.014-0.125-0.042h0.083v-0.084
	c0.022,0.023,0.037,0.052,0.042,0.084c0.031,0.051,0.046,0.109,0.042,0.168h0.583l-0.042-1.051c0.066-0.025,0.137-0.04,0.208-0.042
	l-0.417-7.229c0.166-0.005,0.13,0,0.125-0.252c-0.083-0.274-0.083-0.567,0-0.841c-0.051,0.414,0.007,0.834,0.167,1.219
	c-0.132,0-0.056-0.071-0.125,0.042c-0.003,0.21-0.017,0.421-0.042,0.63c0.167,0.787,0.058,1.694,0.208,2.4
	c-0.025,0.48,0.017,0.961,0.125,1.429c0.008-0.173,0-0.192,0.125-0.252v0.084h0.043v0.042c-0.135,0.035-0.064-0.021-0.125,0.084
	c0.058,0.005,0.114,0.019,0.167,0.042c-0.046,0.053-0.103,0.096-0.167,0.126c0.022,0.023,0.037,0.052,0.042,0.084h-0.125V10.272z
	 M24.209,5.522v0.084h0.041V5.522H24.209L24.209,5.522z M59.209,12.457h0.375c-0.025-0.183-0.012-0.369,0.042-0.546v0.546H60v-0.883
	h-0.375V11.49h0.042v-0.042c0.122,0.033,0.249,0.048,0.375,0.042V11.2c-0.126,0.018-0.255,0.003-0.375-0.042h0.375v-0.172
	c-0.126,0.018-0.255,0.004-0.375-0.042h0.375c0.007-0.365-0.007-0.729-0.042-1.093c-0.096-0.022-0.195-0.022-0.292,0
	c-0.087,0.244-0.144,0.499-0.167,0.757C59.337,11.204,59.225,11.827,59.209,12.457L59.209,12.457z M60.542,10.734v0.084h0.208
	v-0.084H60.542z M61.167,10.734v0.084h0.125v-0.084H61.167z M60.042,11.701c-0.037,0.252-0.022,0.51,0.042,0.757
	C60.121,12.205,60.107,11.947,60.042,11.701L60.042,11.701z M59.125,12.247c-0.008,0.073,0.007,0.146,0.042,0.21
	C59.175,12.384,59.16,12.311,59.125,12.247z M58.417,15.525h0.167v0.084c-0.438,0.111-0.413,1.348-0.458,1.43H58.5
	c0.098-0.008,0.195-0.008,0.292,0V16.87h1.167v0.168c0.223-0.006,0.227,0.04,0.25-0.168c-0.086-0.387-0.101-0.786-0.042-1.177
	c-0.034-0.021-0.063-0.051-0.083-0.084h-1.042v-0.5h0.083v0.42h0.333c-0.021-0.142-0.005-0.286,0.042-0.42v0.42h0.667v-0.088
	c-0.087-0.207,0.019-0.754-0.042-1.135l-0.042-1.639c-0.062-0.034-0.118-0.076-0.167-0.126c-0.297-0.028-0.598,0.015-0.875,0.126
	L58.417,15.525z M60.667,13.592c0.022,0.022,0.052,0.037,0.083,0.042C60.728,13.611,60.698,13.597,60.667,13.592z M23.834,13.928
	h0.083v0.042C23.885,13.966,23.855,13.951,23.834,13.928L23.834,13.928z M23.917,13.97c0.045,0,0.089,0.015,0.125,0.042
	C23.997,14.013,23.953,13.998,23.917,13.97z M24.834,13.97h0.083v0.042h-0.042C24.846,14.018,24.794,14.015,24.834,13.97
	L24.834,13.97z M24.042,14.012h0.083v0.042C24.093,14.05,24.064,14.035,24.042,14.012z M60.417,14.012
	c0.061,0.048,0.147,0.048,0.208,0H60.417z M61.042,14.012c0.071,0.037,0.054,0.037,0.125,0H61.042z M24.125,14.054h0.083V14.1
	C24.176,14.095,24.146,14.078,24.125,14.054z M24.25,14.1h0.083v0.042H24.25V14.1z M60.417,14.142v0.084
	c0.104,0.008,0.208-0.021,0.292-0.084H60.417z M22.084,14.814c0.227,0.092,0.438,0.219,0.625,0.378
	c0.57,0.358,1.123,0.746,1.708,1.051v0.042h-0.084c-0.259-0.195-0.539-0.363-0.833-0.5c-0.318-0.2-0.648-0.465-0.958-0.672
	c-0.169-0.074-0.324-0.176-0.459-0.302L22.084,14.814z M56.75,15.861c0.072-0.008,0.145,0.008,0.208,0.043l-0.208,0.041V15.861z
	 M57.375,15.861h0.208v0.084H57.5C57.468,15.917,57.407,15.891,57.375,15.861z M47.292,15.9c0.099-0.014,0.2,0,0.292,0.041
	C47.3,15.962,47.35,16.03,47.292,15.9z M47.834,15.9l0.5,0.041v0.043H48.25v0.046L47.834,15.9z M56.584,15.9
	c0.058,0.004,0.114,0.019,0.167,0.041v0.043h-0.084C56.637,15.951,56.613,15.939,56.584,15.9L56.584,15.9z M57.626,15.9
	c0.046-0.001,0.089,0.014,0.125,0.041h-0.084C57.639,15.951,57.586,15.948,57.626,15.9L57.626,15.9z M36.209,15.941
	c0.045,0,0.089,0.015,0.125,0.043c-0.045,0.002-0.089-0.012-0.126-0.039L36.209,15.941z M37.376,15.941h0.083v0.043
	c-0.031-0.004-0.061-0.017-0.084-0.039L37.376,15.941z M47.043,15.941c0.071,0.002,0.142,0.017,0.208,0.043v0.046h-0.126
	c-0.031-0.037-0.052-0.048-0.083-0.085L47.043,15.941z M56.46,15.941h0.083v0.043c-0.031-0.004-0.062-0.017-0.085-0.039
	L56.46,15.941z M57.752,15.941h0.083v0.043c-0.032-0.003-0.062-0.017-0.085-0.039L57.752,15.941z M46.919,15.984
	c0.046-0.001,0.089,0.014,0.125,0.041h-0.127v-0.037L46.919,15.984z M48.377,15.984h0.083v0.046
	c-0.032-0.004-0.063-0.019-0.085-0.042L48.377,15.984z M46.627,16.741c-0.035,0.238-0.021,0.481,0.042,0.715
	c0.034-0.237,0.019-0.479-0.044-0.712L46.627,16.741z M62.377,16.951v0.084h0.042c-0.005-0.031-0.021-0.059-0.044-0.08
	L62.377,16.951z M79.794,17.413h0.083v0.042c-0.031-0.003-0.062-0.016-0.085-0.038L79.794,17.413z M35.919,17.455v0.084h0.042
	c-0.005-0.031-0.021-0.059-0.044-0.08L35.919,17.455z M58.169,17.623c0.104,0.057,0.229,0.057,0.333,0h-0.335H58.169z
	 M58.544,17.623c0.075,0.053,0.175,0.053,0.25,0H58.544z M59.794,17.623c0.104,0.057,0.229,0.057,0.333,0h-0.335H59.794z
	 M60.586,17.623c0.047,0.045,0.12,0.045,0.167,0h-0.17H60.586z M60.794,17.623c0.072,0.037,0.054,0.037,0.125,0h-0.127H60.794z
	 M61.002,17.623c0.104,0.057,0.229,0.057,0.333,0H61H61.002z M61.627,17.623c0.188,0.07,0.395,0.07,0.583,0h-0.585H61.627z
	 M62.544,17.623c0.258,0.08,0.534,0.08,0.792,0h-0.794H62.544z M58.169,17.707c-0.036,0.395-0.009,0.792,0.083,1.177
	c-0.014-0.309,0-0.618,0.042-0.925c0.232-0.115,0.493-0.158,0.75-0.126v-0.08h-0.25c-0.204-0.058-0.417-0.072-0.627-0.042
	L58.169,17.707z M59.711,17.707v0.252c0.253,0,0.29-0.008,0.5,0v-0.21L59.711,17.707z M60.586,17.959h0.208v-0.21
	c-0.054-0.022-0.109-0.036-0.167-0.042c-0.029,0.082-0.044,0.169-0.044,0.256L60.586,17.959z M23.961,17.749
	c0.059-0.005,0.118,0.01,0.167,0.042c-0.059,0.007-0.119-0.007-0.17-0.038L23.961,17.749z M37.836,17.749
	c-0.011,0.087,0.004,0.174,0.042,0.252c0.009-0.085-0.006-0.171-0.045-0.248L37.836,17.749z M46.669,17.749
	c-0.03,0.21-0.017,0.425,0.042,0.63c0.029-0.209,0.014-0.423-0.044-0.626L46.669,17.749z M59.086,17.749v0.21h0.083v-0.21h-0.086
	H59.086z M59.211,17.749v0.21h0.333v-0.21h-0.336H59.211z M59.586,17.749v0.21h0.083v-0.21h-0.086H59.586z M61.169,17.749v0.21
	c0.055-0.014,0.112-0.014,0.167,0V17.8h-0.044v-0.047h-0.125L61.169,17.749z M61.544,17.749v0.168h0.042v0.042h0.083v-0.21h-0.127
	H61.544z M63.044,17.749v0.168h0.125v-0.164h-0.127L63.044,17.749z M24.125,17.8c0.059-0.005,0.118,0.011,0.167,0.042
	C24.233,17.847,24.174,17.832,24.125,17.8z M56.25,17.879c-0.004,0.059,0.01,0.118,0.042,0.168
	C56.297,17.988,56.281,17.929,56.25,17.879z M23.792,18.509v0.084h0.333V18.51L23.792,18.509L23.792,18.509z M35.959,18.551
	c-0.016,0.113-0.001,0.23,0.042,0.336C36.016,18.773,36.001,18.658,35.959,18.551L35.959,18.551z M63.751,18.551
	c0.061,0.049,0.147,0.049,0.208,0H63.751L63.751,18.551z M46.709,18.719c-0.03,0.211-0.016,0.426,0.042,0.631
	C46.781,19.139,46.767,18.925,46.709,18.719L46.709,18.719z M61.792,18.8c0.061,0.049,0.147,0.049,0.208,0H61.792z M62.417,18.8
	c0.132,0.062,0.284,0.062,0.417,0H62.417z M63.25,18.8c0.061,0.049,0.147,0.049,0.208,0H63.25z M63.875,18.926
	c0.072,0.037,0.053,0.037,0.125,0H63.875z M29.375,19.01h0.167c0.021,0.034,0.049,0.063,0.083,0.084
	c-0.051,0.094-0.093,0.192-0.125,0.295h-0.083c0.008-0.128-0.051-0.216-0.042-0.375V19.01z M56.292,19.052
	c-0.018,0.128-0.003,0.258,0.042,0.378c0.018-0.126,0.002-0.254-0.042-0.373V19.052z M79.708,19.141
	c0.022,0.022,0.037,0.052,0.042,0.084h-0.042V19.141z M79.666,19.225c0.022,0.022,0.037,0.052,0.042,0.084h-0.041L79.666,19.225
	L79.666,19.225z M23.249,19.309c0.022,0.022,0.037,0.052,0.042,0.084H23.25L23.249,19.309L23.249,19.309z M79.624,19.309
	c0.022,0.022,0.037,0.052,0.042,0.084h-0.041L79.624,19.309L79.624,19.309z M23.541,19.393L23.5,19.561h0.083
	C23.588,19.501,23.574,19.441,23.541,19.393L23.541,19.393z M29.374,19.393c0.022,0.022,0.037,0.052,0.042,0.084h-0.041
	L29.374,19.393L29.374,19.393z M79.582,19.393c0.022,0.022,0.037,0.052,0.042,0.084h-0.041L79.582,19.393L79.582,19.393z
	 M29.5,19.434c-0.014,0.078,0.03,0.053-0.083,0.084v-0.041C29.449,19.472,29.478,19.457,29.5,19.434z M38.292,19.434
	c0.003,0.099,0.048,0.191,0.125,0.252h-0.125v0.168h0.333v-0.42H38.292z M38.667,19.434v0.42h0.167v-0.42H38.667z M79.542,19.477
	c0.035,0.064,0.035,0.145,0,0.209H79.5v-0.125C79.522,19.537,79.537,19.508,79.542,19.477z M38.042,19.518V19.6l0.125-0.041v-0.041
	H38.042z M63.667,20.568H64v-0.084c-0.051-0.277-0.051-0.563,0-0.84c-0.139-0.034-0.285,0.015-0.375,0.125
	C63.621,20.037,63.635,20.304,63.667,20.568z M38.209,19.686c-0.004,0.06,0.01,0.119,0.042,0.168
	c0.004-0.059-0.011-0.117-0.043-0.166L38.209,19.686z M46.751,19.686c-0.013,0.101,0.001,0.202,0.042,0.295
	c0.013-0.1-0.002-0.201-0.043-0.293L46.751,19.686z M52.918,19.98c0.059,0.004,0.117-0.01,0.167-0.043
	c-0.082-0.057-0.13-0.151-0.125-0.252h-0.043L52.918,19.98L52.918,19.98z M79.46,19.686c0.022,0.023,0.037,0.053,0.042,0.084h-0.044
	v-0.082L79.46,19.686z M36,19.729v0.084h0.042v-0.084H36z M53.292,19.771V19.9h0.292v-0.129H53.292z M61.792,19.771
	c0.061,0.049,0.147,0.049,0.208,0H61.792z M62.417,19.771c0.132,0.062,0.284,0.062,0.417,0H62.417z M63.25,19.771
	c0.061,0.049,0.147,0.049,0.208,0H63.25z M79.417,19.771c0.022,0.022,0.037,0.052,0.042,0.084h-0.042V19.771z M27.875,19.813h0.083
	V19.9h-0.083V19.813z M36,19.855c-0.011,0.086,0.004,0.174,0.042,0.252C36.053,20.021,36.038,19.934,36,19.855z M38.292,19.9
	c0.089,0.084,0.215,0.115,0.333,0.084V19.9H38.292z M38.834,19.9h-0.167v0.084c0.058,0.004,0.114,0.019,0.167,0.041V19.9z
	 M29.334,19.941l0.042,0.252H29.5v-0.254h-0.167L29.334,19.941z M29.709,20.193h0.125c0.001-0.085-0.013-0.17-0.042-0.252h-0.084
	L29.709,20.193L29.709,20.193z M29.959,19.941c-0.008,0.073,0.007,0.146,0.042,0.211c0.017-0.074,0.045-0.145,0.083-0.211H29.959
	L29.959,19.941z M41.792,19.941h0.083c-0.02,0.087-0.047,0.172-0.083,0.252v-0.254V19.941z M53.292,19.941v0.127h0.292v-0.129
	h-0.292V19.941z M63.667,19.941c0.022,0.023,0.037,0.053,0.042,0.084h-0.042v-0.086V19.941z M20.125,19.984
	c0.047,0.044,0.12,0.044,0.167,0H20.125z M21.25,19.984c0.072,0.037,0.053,0.037,0.125,0H21.25z M28.125,20.236h0.125V19.98h-0.083
	v0.043c-0.035,0.064-0.049,0.137-0.042,0.209V20.236z M28.417,19.984v0.252h0.167v-0.211c-0.017-0.01-0.032-0.023-0.042-0.041
	H28.417z M28.75,19.984v0.252h0.125V19.98H28.75V19.984z M29.042,19.984v0.209h0.167v-0.045c-0.031-0.05-0.046-0.108-0.042-0.168
	h-0.125V19.984z M55.584,19.984l0.042,0.209h0.208v0.337h0.125c-0.019-0.129-0.004-0.26,0.041-0.382v0.379h0.208V19.98h-0.625
	L55.584,19.984z M21.709,20.025c0.146,0.064,0.312,0.064,0.458,0H21.709L21.709,20.025z M22.376,20.025
	c0.202,0.072,0.423,0.072,0.625,0H22.376L22.376,20.025z M23.043,20.025c0.022,0.023,0.052,0.037,0.083,0.043
	c-0.022-0.023-0.052-0.04-0.084-0.045L23.043,20.025z M23.21,20.025c0.047,0.045,0.12,0.045,0.167,0h-0.169H23.21z M30.918,20.236
	h0.792v-0.211c-0.265-0.011-0.53,0.004-0.792,0.043V20.236z M31.751,20.025v0.211h0.042c0.086-0.101,0.124-0.084,0.25-0.043
	l-0.125-0.168H31.751L31.751,20.025z M30.043,20.068c0,0.045,0.014,0.09,0.042,0.125c0.001-0.046-0.014-0.092-0.043-0.129
	L30.043,20.068z M30.376,20.068c-0.045-0.001-0.089,0.014-0.125,0.041c0.045,0.047,0.074,0.105,0.083,0.168h0.042V20.068z
	 M30.418,20.068v0.168c0.114-0.033,0.226-0.075,0.333-0.127c0,0.135-0.05,0.101,0.125,0.127v-0.172h-0.459L30.418,20.068z
	 M46.543,20.109c-0.059,0.167-0.143,0.322-0.25,0.463c0.086,0.154,0.143,0.324,0.167,0.5h0.04v-0.04
	c0.164-0.264,0.21-0.585,0.125-0.884L46.543,20.109z M52.418,20.277h-0.126v0.253c0.317,0.011,0.339,0.034,0.333-0.294
	c-0.036-0.079-0.02-0.031,0-0.127h-0.25v0.043c0.026,0.035,0.041,0.078,0.042,0.123L52.418,20.277z M21.626,21.119
	c-0.022-0.155-0.007-0.313,0.042-0.462v0.462h0.167c-0.023-0.168-0.009-0.339,0.042-0.5v0.5H22c0.167-0.182,0.244-0.428,0.208-0.672
	c-0.059,0.004-0.118-0.01-0.167-0.043h0.167v-0.256c-0.352-0.08-0.72-0.035-1.042,0.127c0.094,0.271,0.094,0.568,0,0.841h0.458
	L21.626,21.119z M22.334,20.152v0.168c0.217,0.043,0.442-0.003,0.625-0.127v0.127c0.102,0.018,0.204-0.033,0.25-0.127
	c0.018-0.01,0.032-0.023,0.042-0.041h-0.084c-0.278,0.016-0.556,0.014-0.834-0.004L22.334,20.152z M23.334,20.152l-0.042,0.125
	h0.333c-0.059-0.135-0.025-0.131-0.292-0.129L23.334,20.152z M36.001,20.152v0.084h0.042c-0.004-0.033-0.019-0.064-0.043-0.088
	L36.001,20.152z M38.043,20.152v0.168h0.042c0.108-0.082,0.3-0.086,0.417-0.168H38.043L38.043,20.152z M69.043,20.152v0.084h0.25
	v-0.045c-0.08-0.028-0.166-0.043-0.251-0.043L69.043,20.152z M27.043,20.193v0.168h0.042c0.269-0.086,0.557-0.1,0.833-0.041v-0.088
	c-0.017-0.01-0.032-0.023-0.042-0.041h-0.834L27.043,20.193z M46.751,20.193v0.084h0.042v-0.086H46.75L46.751,20.193z
	 M56.334,20.193c-0.016,0.114-0.001,0.23,0.042,0.336c0.016-0.114,0.001-0.23-0.043-0.338L56.334,20.193z M52.667,20.236v0.293
	h0.083v-0.297h-0.083V20.236z M64.125,20.236v0.084h0.042c-0.003-0.033-0.019-0.064-0.042-0.088V20.236z M64.042,20.277
	c-0.009,0.068,0.023,0.135,0.083,0.168c-0.021-0.06-0.049-0.117-0.083-0.17V20.277z M64.334,20.277
	c0.005,0.059,0.02,0.115,0.042,0.168h0.042c0.01-0.068-0.023-0.137-0.085-0.17L64.334,20.277z M68.084,20.277v0.084h0.042v-0.045
	h0.042c-0.023-0.022-0.053-0.037-0.085-0.041L68.084,20.277z M68.334,20.277c0.005,0.059,0.02,0.115,0.042,0.168h0.042
	c0.01-0.068-0.023-0.137-0.085-0.17L68.334,20.277z M68.959,20.277v0.295H69c0.039-0.045,0.081-0.087,0.125-0.127
	c-0.048-0.063-0.104-0.121-0.167-0.17L68.959,20.277z M75.042,20.277c-0.005,0.047,0.011,0.093,0.042,0.127
	c0.057-0.104,0.016-0.057-0.042-0.129V20.277z M75.334,20.277c-0.02,0.055-0.02,0.114,0,0.168c0.064,0.053,0.021,0.027,0.083,0
	c0.026-0.036,0.042-0.08,0.042-0.125h-0.042c-0.035,0.136,0.021,0.063-0.083,0.125V20.4c0.036-0.071,0.036-0.053-0.001-0.125
	L75.334,20.277z M68.251,20.32v0.08h0.042v-0.084H68.25L68.251,20.32z M22.334,20.361c0.16,0.066,0.34,0.066,0.5,0H22.334z
	 M52.334,20.361c0.027,0.037,0.041,0.081,0.042,0.127h-0.043v-0.129L52.334,20.361z M23.376,20.908h0.25
	c-0.034-0.165-0.034-0.335,0-0.5h-0.084c-0.125,0.086-0.203,0.227-0.208,0.378c0.025,0.034,0.04,0.076,0.041,0.119L23.376,20.908z
	 M68.043,20.408c0.022,0.022,0.052,0.037,0.083,0.042c-0.021-0.026-0.052-0.044-0.084-0.05L68.043,20.408z M79.543,20.534V20.4
	c-0.085-0.002-0.17,0.013-0.25,0.041v0.084h0.25V20.534z M22.335,20.45v0.462h0.292c-0.013-0.078,0-0.275,0-0.462h-0.294H22.335z
	 M22.668,20.45c0,0.233,0.005,0.229,0,0.462h0.082c-0.014-0.14-0.014-0.28,0-0.42h0.042c-0.05,0.145-0.019,0.305,0.083,0.42V20.82
	c0.048-0.065,0.09-0.136,0.125-0.209c-0.032,0.004-0.061,0.019-0.083,0.041c-0.028,0.033-0.055,0.095-0.083,0.127l0.042-0.336
	c-0.069,0.012-0.14,0.012-0.209,0L22.668,20.45z M22.918,20.492v0.084H23v-0.092h-0.083L22.918,20.492z M67.251,20.492
	c0.081,0.035,0.165,0.063,0.25,0.084v-0.092H67.25L67.251,20.492z M20.126,20.912h0.25c0.007-0.127-0.007-0.256-0.042-0.378
	c-0.08,0.021-0.152,0.065-0.208,0.126c-0.008,0.081-0.009,0.163-0.001,0.245L20.126,20.912z M26.709,20.534
	c-0.008,0.072,0.007,0.146,0.042,0.21c0.009-0.075-0.006-0.151-0.043-0.217L26.709,20.534z M68.001,20.534
	c0.075,0.052,0.175,0.052,0.25,0H68.001L68.001,20.534z M16.334,20.576c-0.003,0.168,0.011,0.335,0.042,0.5h0.958l0.042-0.5H16.334
	L16.334,20.576z M25.126,20.576v0.084h0.042v-0.092h-0.043L25.126,20.576z M20,20.611c-0.056,0.139-0.04,0.295,0.042,0.42
	C20.067,20.89,20.052,20.744,20,20.611z M23.125,20.652c-0.001,0.047,0.014,0.091,0.042,0.127V20.7
	C23.155,20.669,23.18,20.676,23.125,20.652z M15.583,20.695c-0.001,0.045,0.014,0.09,0.042,0.125c0-0.043-0.015-0.086-0.042-0.12
	V20.695z M46.791,20.695c-0.063,0.203-0.146,0.4-0.25,0.588h0.042V21.2c0.157-0.114,0.238-0.308,0.209-0.5L46.791,20.695z
	 M26.708,20.779c-0.004,0.059,0.01,0.117,0.042,0.168C26.754,20.888,26.74,20.829,26.708,20.779z M15.333,20.863
	c0.022,0.022,0.037,0.052,0.042,0.084h-0.042V20.863z M15.583,20.863c-0.011,0.086,0.004,0.174,0.042,0.252
	C15.636,21.029,15.621,20.941,15.583,20.863z M15.291,20.947c0.022,0.022,0.037,0.052,0.042,0.084h-0.041L15.291,20.947
	L15.291,20.947z M18.291,21.031v0.084h0.083v-0.083L18.291,21.031L18.291,21.031z M1.916,21.073C1.963,21.099,1.995,21.146,2,21.2
	H1.958v-0.042C1.936,21.135,1.921,21.105,1.916,21.073L1.916,21.073z M18.583,21.073c0.072,0.036,0.053,0.036,0.125,0H18.583z
	 M27.25,21.115V21.2h0.042C27.288,21.168,27.273,21.139,27.25,21.115L27.25,21.115z M25.667,21.157
	c-0.001,0.046,0.014,0.09,0.042,0.126C25.709,21.238,25.695,21.193,25.667,21.157L25.667,21.157z M26.334,21.157l0.042,0.126H26.5
	v-0.041C26.457,21.193,26.397,21.164,26.334,21.157L26.334,21.157z M2,21.2c0.046,0.026,0.078,0.073,0.083,0.126H2.042v-0.042
	C2.02,21.262,2.005,21.232,2,21.2z M27.417,21.2c0.035,0.136-0.02,0.063,0.083,0.126V21.2H27.417z M26.667,21.242
	c0.022,0.022,0.052,0.037,0.083,0.042C26.728,21.262,26.698,21.247,26.667,21.242z M27.167,21.242
	c0.045,0.068,0.128,0.102,0.208,0.084v-0.084H27.167z M41.25,21.368v0.294h0.625c0.047-0.137,0.034-0.114,0.083-0.252
	c-0.032-0.004-0.062-0.02-0.083-0.042c0.12-0.048,0.077-0.007,0.125-0.126h-0.125C41.694,21.371,41.467,21.418,41.25,21.368z
	 M32.792,21.326h0.083v0.042C32.843,21.363,32.814,21.35,32.792,21.326z M2.125,21.368c0.047,0.025,0.078,0.073,0.083,0.126H2.167
	v-0.042C2.145,21.43,2.13,21.4,2.125,21.368z M33.458,21.368c0.045-0.001,0.089,0.015,0.125,0.042
	C33.538,21.41,33.494,21.396,33.458,21.368z M25.166,21.452c0.072,0.037,0.053,0.037,0.125,0H25.166L25.166,21.452z M25.708,22.335
	h0.125v-0.547c0.066-0.025,0.137-0.04,0.208-0.042v-0.294h-0.333v0.042C25.732,21.773,25.732,22.055,25.708,22.335z M26.125,21.452
	v0.084l0.125-0.042v-0.042H26.125z M27.333,21.662v-0.21c-0.347-0.053-0.701-0.038-1.042,0.042c0.145-0.016,0.29,0.014,0.417,0.084
	c-0.031,0.037-0.052,0.047-0.083,0.084H27.333z M27.416,21.452v0.21h0.125v-0.21H27.416L27.416,21.452z M27.583,21.452v0.21h0.25
	v-0.21H27.583z M27.875,21.452v0.21h0.917v-0.21H27.875z M30.042,21.662v-0.21c-0.333-0.051-0.672-0.036-1,0.042
	c0.113-0.006,0.225,0.009,0.333,0.042C29.39,21.748,29.73,21.673,30.042,21.662z M15,21.494c0.022,0.022,0.037,0.053,0.042,0.084H15
	V21.494z M51.125,21.494v0.084h0.292v-0.084H51.125z M2.25,21.536c0.046,0.026,0.078,0.073,0.083,0.126H2.292V21.62
	C2.27,21.598,2.255,21.568,2.25,21.536z M2.333,21.662c0.066,0.032,0.113,0.096,0.125,0.168H2.417
	c-0.01-0.018-0.025-0.031-0.042-0.042L2.333,21.662z M33.5,22.25h0.208v-0.5c-0.071,0.002-0.142,0.016-0.208,0.042
	C33.5,21.886,33.5,22.009,33.5,22.25z M14.958,21.83c0.022,0.023,0.037,0.053,0.042,0.084h-0.042V21.83z M14.875,21.956h0.083V22
	C14.926,21.995,14.897,21.979,14.875,21.956z M4.875,22c0.048,0.062,0.048,0.148,0,0.21V22z M14.5,22.082
	c0.072,0.037,0.053,0.037,0.125,0H14.5z M15.042,22.082l-0.125,0.252h0.042v-0.041C15.025,22.244,15.058,22.162,15.042,22.082z
	 M5.834,24.982c0.022,0.021,0.052,0.037,0.083,0.041C5.894,25.002,5.865,24.987,5.834,24.982L5.834,24.982z M10.709,25.907h-0.167
	v0.042l0.125,0.084c0.01,0.018,0.025,0.031,0.042,0.042V25.907z M74.584,26.407c-0.045,0.062-0.074,0.134-0.083,0.21h0.083
	c0.064,0.029,0.006,0.005,0.125,0v-0.163L74.584,26.407z M75.042,26.407c-0.046,0.062-0.073,0.134-0.083,0.21h0.083
	c0.063,0.029,0.006,0.005,0.125,0V26.5c-0.048-0.02-0.091-0.049-0.125-0.088V26.407z"/>
</svg>
