<svg xmlns="http://www.w3.org/2000/svg" width="40" height="40" viewBox="0 0 40 40">
  <defs>
    <style>
      .cls-1 {
        fill: #fff;
        fill-rule: evenodd;
      }
    </style>
  </defs>
  <path id="ussr_su_76m_1943_ico" class="cls-1" d="M11.938,13.2v0.192H11.744v1.089a1.976,1.976,0,0,1,.292.1,0.376,0.376,0,0,1,.389-0.416,1.373,1.373,0,0,1-.033.416h0.389a1.077,1.077,0,0,1,.032-0.256c-0.184-.007-0.2-0.033-0.195-0.224a0.214,0.214,0,0,0,.033-0.128h0.195v0.1h0.292v0.192a0.262,0.262,0,0,0-.13.32h1.557c0.027,0.1-.016.049,0.065,0.1,0.05-.023,0,0,0.1,0,0.043,0.082.126,0.116,0.162,0.192,0.16,0.337-.048.309,0.519,0.288a2.732,2.732,0,0,0,.681-0.192,1.3,1.3,0,0,1,.1-0.384V14.6h0.032c-0.022.066-.042,0.222-0.065,0.288h0.1a0.673,0.673,0,0,1,.325-0.128,1.146,1.146,0,0,0,.616.352,0.614,0.614,0,0,0,0-.192,1.315,1.315,0,0,0-.649-0.32V14.572h0.032a0.167,0.167,0,0,1,.1-0.032,3,3,0,0,0,.487.224c0.2,0.123.61,0.509,0.779,0.576h0.876a1.474,1.474,0,0,0,.552.032H20.73l4.7,0.064a0.32,0.32,0,0,0,.195.16,0.694,0.694,0,0,0-.065.576h0.065l0.1-.352h0.065v0.128a0.643,0.643,0,0,0-.033.576c0.024,0.162-.062.214-0.032,0.288a1.027,1.027,0,0,0,.195.1,0.332,0.332,0,0,0-.065.192l6.391,0.064a13.8,13.8,0,0,0,1.784.032c0.078,0,.616.032,0.616,0.032a1.532,1.532,0,0,1,.13-0.16,0.156,0.156,0,0,1,.195.064L35.62,17.1a10.538,10.538,0,0,1,2.3-.192,1.716,1.716,0,0,1,.195,1.121,1.577,1.577,0,0,1-.227.224,2.669,2.669,0,0,1-.941.032,4.426,4.426,0,0,1-1.135-.192H35.264c-0.135-.046-0.481-0.082-0.616-0.128l-8.532.064a0.091,0.091,0,0,1-.033.032,1.037,1.037,0,0,0,.065.736,1.019,1.019,0,0,0,.195.1v0.064c-0.146.083-.126,0.136-0.1,0.32-0.6-.034-1.437,0-2.141,0a7.774,7.774,0,0,0-1.395.032H19.5v0.064a0.163,0.163,0,0,0-.032.1h0.292a2.666,2.666,0,0,1,.227.576c0.868,0,1.482.156,2.4,0.16l0.032-.16c0.089-.044.276-0.058,0.389-0.1,0-.275.043-0.515,0.357-0.512l0.032,0.1a1.228,1.228,0,0,1,.13.48H23.65l0.1-.512a0.433,0.433,0,0,1,.259-0.064,1.277,1.277,0,0,1,.162.544,1.117,1.117,0,0,1,.259.032,0.169,0.169,0,0,0,.162.192,1.3,1.3,0,0,1,1.071-.16,0.7,0.7,0,0,0,.616.128,7.54,7.54,0,0,1,1.3-.032,0.536,0.536,0,0,1,.033-0.192H27.38c-0.2-.119-0.723-0.009-0.908-0.128a0.8,0.8,0,0,0-.13-0.16,0.337,0.337,0,0,1-.195-0.064,0.469,0.469,0,0,0,.389-0.1,1.188,1.188,0,0,0,.487.064,4.085,4.085,0,0,0,.876.128,0.917,0.917,0,0,1,.26-0.128,0.563,0.563,0,0,0,.422.16c0.009,0.083,0,.063.162,0.064a1.125,1.125,0,0,0,.357.064,0.338,0.338,0,0,0,.065-0.16c-0.08-.041-0.022.014-0.065-0.064h0.195a0.093,0.093,0,0,0,.032.032,0.657,0.657,0,0,0-.065.16,0.377,0.377,0,0,0,.227.064,0.928,0.928,0,0,1,.357.032,0.274,0.274,0,0,0-.162.032,0.723,0.723,0,0,1,.195.608,0.111,0.111,0,0,1,.065.032,0.558,0.558,0,0,1,.26-0.064V20.24h0.032V20.208c0.293-.022.662-0.063,1.038-0.064V20.56c0.4,0,.619.09,1.006,0.1V20.368h0.1v0.288h0.1V21.2a6.161,6.161,0,0,1,.876,1.025,2.69,2.69,0,0,0,.227.384,4.279,4.279,0,0,0,.843.448,2.933,2.933,0,0,0,1.071-.032h1.3c0.206-.045.382-0.115,0.551-0.16,0.074,0.123.031-.018,0.13,0.064a1.129,1.129,0,0,1,.1.224,3.705,3.705,0,0,0,.324.352,7.888,7.888,0,0,0,2.076,1.537,1.7,1.7,0,0,0,.032.384,0.417,0.417,0,0,0-.13.032c0.01,0.091.034,0.066,0,.128a0.167,0.167,0,0,0-.1-0.032,1.3,1.3,0,0,1-.422.448,5.183,5.183,0,0,1-.941.929,0.135,0.135,0,0,1,.032.16,2.953,2.953,0,0,0-.487.576,0.867,0.867,0,0,1-.1.192c-0.513.433-1.064,0.8-1.622,1.185-0.217.151-.427,0.37-0.649,0.512a3.45,3.45,0,0,1-.552.192c-0.5.207-1.007,0.393-1.525,0.608a10.029,10.029,0,0,1-1.4.544,11.181,11.181,0,0,1-2.206.032H6.78a22.746,22.746,0,0,1-3.763-1.345,4.949,4.949,0,0,1-1.979-1.185,2.711,2.711,0,0,1,.065-2.85H0.584a0.49,0.49,0,0,1-.389.128A2.183,2.183,0,0,0,0,25.556a3.033,3.033,0,0,1,.843-1.217,1.271,1.271,0,0,0,.519-0.352,0.387,0.387,0,0,1-.162-0.32,1.129,1.129,0,0,0,.195-0.224V22.13a1.382,1.382,0,0,0,.1-0.384H2.433l0.032,0.7H2.53V21.905c0.066-.068.039-0.069,0.032-0.224H2.53V21.649a0.882,0.882,0,0,1-.389-0.032A0.954,0.954,0,0,1,2.109,21.2a1.214,1.214,0,0,1,.357-0.032,6.945,6.945,0,0,0-.1-1.889,2.7,2.7,0,0,0,.1-0.929,0.346,0.346,0,0,0,.195-0.032,1.207,1.207,0,0,0,.162-1.025,1.919,1.919,0,0,0,.13-0.384A5.873,5.873,0,0,1,4.023,14.8a4.91,4.91,0,0,1,2.076-.16c1.585,0,3.167-.011,4.8,0a0.773,0.773,0,0,1,.162-0.448,0.435,0.435,0,0,1,.227-0.032v0.352h0.13l0.032-3.939A6.653,6.653,0,0,1,11.484,9c0,1.715.031,3.521,0.032,5.284h0.065V13.355a0.162,0.162,0,0,0,.032-0.1A0.9,0.9,0,0,1,11.938,13.2Zm-7.462,1.7a1.87,1.87,0,0,0-.519.288,6.734,6.734,0,0,0-.551,1.281c-0.1.244-.279,0.549-0.357,0.8v0.8H3.114A9.854,9.854,0,0,1,4.7,17.07c1.1-.687,2.18-1.452,3.309-2.114V14.924H6.326a1.359,1.359,0,0,0-.519-0.032H4.477ZM36.821,17.23a1.429,1.429,0,0,0-.065.672h0.032v0.032a1.45,1.45,0,0,0,1.071-.1,1.044,1.044,0,0,0,0-.576A10.178,10.178,0,0,0,36.821,17.23Zm-0.487.064a1.173,1.173,0,0,0-.487.192,0.37,0.37,0,0,0,0,.288c0.238,0.009.333,0.086,0.584,0.1l0.032-.1a0.725,0.725,0,0,0,0-.448Z" transform="translate(0 0.016)"/>
</svg>
