<?xml version="1.0" encoding="utf-8"?>
<!-- Generator: Adobe Illustrator 16.0.0, SVG Export Plug-In . SVG Version: 6.00 Build 0)  -->
<!DOCTYPE svg PUBLIC "-//W3C//DTD SVG 1.1//EN" "http://www.w3.org/Graphics/SVG/1.1/DTD/svg11.dtd">
<svg version="1.1" id="Layer_1" xmlns="http://www.w3.org/2000/svg" xmlns:xlink="http://www.w3.org/1999/xlink" x="0px" y="0px"
	 width="40px" height="40px" viewBox="0 0 40 40" enable-background="new 0 0 40 40" xml:space="preserve">
<path id="ussr_zsu_57_2_ico" fill="#FFFFFF" d="M15.974,13.709c0.099,0.009,0.194,0.039,0.281,0.088l0.045,0.088
	c0.06,0.03,0.1-0.03,0.173,0c0.246,0.1,0.524,0.254,0.779,0.329h2.208c0.261,0,0.5,0.188,0.714,0.176v-0.044
	c-0.189-0.081-0.359-0.201-0.5-0.351c0.018-0.02,0.032-0.042,0.043-0.066c0.017,0.002,0.032,0.01,0.043,0.022
	c0.231,0.063,0.365,0.28,0.606,0.329c0.028-0.033,0.066-0.056,0.108-0.066v0.066c-0.027,0.016-0.049,0.039-0.065,0.065
	c0.246,0.074,0.479,0.185,0.692,0.329c-0.016,0.026-0.023,0.057-0.021,0.088c-0.213-0.061-0.423-0.135-0.628-0.22
	c0.001,0.023,0.009,0.046,0.022,0.066c0.062,0.042,0.127,0.079,0.195,0.11l0.151,0.2l0.195,0.066c0.041,0.064,0.077,0.131,0.108,0.2
	c0.056,0.033,0.114,0.062,0.173,0.088c0.115,0.087,0.224,0.183,0.325,0.285v0.154l-0.065,0.044c0.006-0.045-0.002-0.091-0.021-0.132
	c-0.055-0.022-0.115-0.03-0.174-0.022c-0.027,0.039-0.042,0.084-0.043,0.132c0.064,0.074,0.07,0.207,0.131,0.285
	c0.164,0.039,0.333,0.046,0.5,0.022H23.2v-0.027h0.022v-0.395h0.086v0.417h1.082v0.219H24.5v0.066h2.273
	c0.389-0.029,0.78-0.022,1.168,0.021c0.312,0.068,0.647-0.018,0.932,0.044h0.454c0.54-0.041,1.083-0.034,1.623,0.022h3.073
	c0.324,0.037,0.65,0.044,0.975,0.022h1.97c0.365,0.042,0.733,0.049,1.101,0.022c0.18-0.022,0.359-0.029,0.541-0.022
	c0.428-0.084,0.863-0.122,1.3-0.11c0.078,0.179,0.108,0.376,0.087,0.571c-0.043,0.055-0.104,0.094-0.173,0.11
	c-0.162-0.066-0.459,0.065-0.714,0c-1.313-0.176-2.641-0.212-3.961-0.11c-3.588,0-7.051,0.087-10.649,0.088v0.088h-0.104v0.22
	h-0.434v0.439c-0.172,0.03-0.346,0.037-0.52,0.022h-1.147V17.7h-0.043v0.044h-0.39v0.026c0.039,0.083,0.062,0.172,0.064,0.263h0.065
	c0.016,0.027,0.038,0.049,0.065,0.066c-0.033,0.077-0.055,0.158-0.065,0.241h0.087c0,0.083-0.015,0.164-0.043,0.241l-0.152-0.022
	V18.6c-0.027,0.047-0.015,0.174-0.043,0.219c-0.057,0.027-0.107,0.065-0.15,0.11h0.237v-0.062h1.753
	c0.035,0.031,0.064,0.068,0.088,0.109c0.072,0.014,0.146,0.006,0.215-0.021c0.202-0.027,0.407-0.02,0.606,0.021v0.045h-0.065v0.065
	h0.369c0.033-0.1,0.1-0.2,0.129-0.329c0.31-0.036,0.621-0.043,0.932-0.021c0.061,0.076,0.125,0.149,0.195,0.219
	c0.022,0.145-0.008,0.293-0.088,0.417c-0.032,0.025-0.061,0.056-0.086,0.088c-0.014,0.08-0.021,0.161-0.022,0.242h0.39
	c0.129,0.027,0.262,0.027,0.391,0c0.005,0.04,0.02,0.077,0.043,0.11c0.089-0.021,0.182-0.005,0.26,0.043l0.043-0.328
	c0.041-0.016,0.086-0.022,0.13-0.022c0.058,0.107,0.08,0.23,0.065,0.351c0.939-0.129,1.871,0.288,2.399,1.076
	c0.137,0.127,0.253,0.275,0.347,0.438c-0.17,0.069-0.312,0.221-0.477,0.307c0.053,0.095,0.083,0.199,0.087,0.308h-0.021
	c-0.043-0.076-0.132-0.112-0.215-0.088c-0.082,0.111-0.154,0.229-0.217,0.351c-0.027-0.012-0.057-0.019-0.087-0.022
	c-0.018,0.165-0.054,0.327-0.108,0.483c0.072,0,0.053-0.047,0.088,0.022c-0.074,0.111-0.14,0.229-0.195,0.351
	c-0.035-0.021-0.064-0.081-0.087-0.044c-0.104,0.057-0.181,0.15-0.216,0.263c0.053,0.028,0.015-0.009,0.043,0.044
	c-0.102,0.078-0.211,0.145-0.325,0.2c-0.031-0.056,0-0.024-0.065-0.044c-0.062,0.07-0.135,0.129-0.216,0.176
	c0.005,0.01,0.013,0.017,0.022,0.022c0.02,0.013,0.041,0.02,0.064,0.021c-0.081,0.088-0.176,0.162-0.281,0.22
	c-0.048-0.019-0.1-0.026-0.151-0.021c-0.056,0.021-0.111,0.1-0.173,0.132v0.044c0.07,0.019,0.033-0.011,0.064,0.045
	c-0.095,0.066-0.195,0.125-0.3,0.176c0.001-0.024-0.007-0.047-0.022-0.066c-0.082,0.081-0.177,0.148-0.28,0.2
	c0.005,0.009,0.013,0.017,0.022,0.021c0.017,0.015,0.047,0.029,0.064,0.044l-0.3,0.221c-0.003-0.031-0.011-0.061-0.022-0.088
	c-0.118,0.037-0.213,0.127-0.26,0.242c0.029,0-0.009-0.019,0.021-0.022c0.018-0.042,0.022,0.044,0.022,0.044
	c-0.079,0.08-0.175,0.141-0.281,0.176c-0.019-0.02-0.04-0.034-0.064-0.044c-0.067,0.074-0.147,0.134-0.238,0.176v0.066
	c0.021-0.011,0.044-0.011,0.065,0c-0.084,0.101-0.198,0.171-0.325,0.2c-0.015-0.018-0.028-0.049-0.043-0.066
	c-0.106,0.094-0.231,0.162-0.368,0.2c0.006,0.009,0.013,0.017,0.021,0.022c0.027,0.015,0.051,0.037,0.065,0.065h-0.052
	c-0.103,0.091-0.232,0.145-0.368,0.153v-0.101c-0.13,0.01-0.255,0.047-0.368,0.11c-0.008,0.041,0.01,0.041-0.087,0.044
	c-0.097,0.036-0.197,0.058-0.3,0.065c0-0.078,0.031-0.045-0.043-0.065c-0.359,0.09-0.734,0.104-1.1,0.044
	c-0.108-0.01-0.33,0.021-0.477,0.021c-0.421,0-0.85,0-1.255,0v-0.045c0.014-0.019,0.021-0.042,0.022-0.065h-0.072v0.044
	c-0.041,0.044-0.033,0.07-0.195,0.066c-0.129-0.018-0.261-0.018-0.391,0v-0.11h-0.086c-0.005,0.009-0.012,0.017-0.021,0.022
	c0.02,0.053,0.023,0.034,0.043,0.088H20.39c-0.122-0.017-0.246-0.017-0.368,0v-0.11h-0.109c-0.005,0.009-0.013,0.017-0.022,0.022
	c0.02,0.053,0.023,0.034,0.043,0.088h-0.39c-0.051-0.005-0.102-0.005-0.152,0v-0.11h-0.15l0.022,0.11h-0.5v-0.11
	c-0.059-0.003-0.117,0.005-0.173,0.022c0,0.139-0.147,0.1-0.325,0.088c-0.05-0.004-0.101-0.004-0.151,0v-0.045
	c0.014-0.019,0.021-0.042,0.022-0.065c-0.073-0.005-0.146,0.003-0.216,0.022c0.02,0.053,0.023,0.034,0.043,0.088h-0.475v-0.045
	c0.014-0.019,0.021-0.042,0.021-0.065h-0.238c0.009,0.038,0.023,0.075,0.043,0.11h-0.454v-0.045
	c0.014-0.019,0.022-0.042,0.022-0.065c-0.094-0.007-0.189,0-0.281,0.022c0.02,0.053,0.023,0.034,0.043,0.088h-0.412
	c0.001-0.038,0.008-0.075,0.022-0.11h-0.282L16,25.979h-0.39v-0.11c-0.101-0.008-0.202-0.001-0.3,0.022
	c0.02,0.053,0.023,0.034,0.043,0.088h-0.375v-0.11h-0.324c0.009,0.038,0.023,0.075,0.043,0.11h-0.368v-0.045
	c0.014-0.019,0.021-0.042,0.022-0.065c-0.118-0.011-0.236-0.003-0.351,0.022c0.02,0.053,0.023,0.034,0.043,0.088H13.68v-0.11
	c-0.101-0.008-0.202-0.001-0.3,0.022c0.02,0.053,0.023,0.034,0.043,0.088H13.03v-0.11h-0.26l0.022,0.11h-0.433v-0.045
	c0.014-0.019,0.022-0.042,0.022-0.065c-0.087-0.007-0.175,0.001-0.26,0.022c0.02,0.053,0.023,0.034,0.043,0.088H11.71v-0.045
	c0.014-0.019,0.022-0.042,0.022-0.065h-0.238c0.008,0.038,0.023,0.075,0.043,0.11h-0.476v-0.11h-0.195l0.022,0.11h-0.325
	c-0.05-0.004-0.101-0.004-0.151,0v-0.11H10.26v0.044c-0.033,0.034,0.034,0.034,0,0.066H9.74v-0.045
	c0.014-0.019,0.021-0.042,0.022-0.065c-0.059-0.003-0.117,0.005-0.173,0.022c0.02,0.053,0.023,0.034,0.043,0.088H9.091v-0.045
	c0.014-0.019,0.022-0.042,0.022-0.065h-0.13v0.022H8.961c0.02,0.053,0.023,0.034,0.043,0.088H8.81c-0.122-0.017-0.246-0.017-0.368,0
	v-0.11H8.355v0.022H8.333c0.02,0.053,0.023,0.034,0.043,0.088H8.182c-0.129-0.018-0.261-0.018-0.39,0v-0.11H7.727v0.044
	c-0.03,0.021,0.006,0.014,0.022,0.066H7.554c-0.06-0.026-0.3,0.021-0.433,0c-0.334-0.054-0.65,0-1.017-0.045v-0.065H6.061
	c-0.095-0.041-0.197-0.063-0.3-0.066c0,0.063,0.021,0.058-0.087,0.066c-0.101-0.028-0.195-0.072-0.281-0.132
	c0.027-0.017,0.049-0.039,0.065-0.066c-0.13-0.033-0.2-0.116-0.325-0.154c0.008,0.029,0.008,0.06,0,0.088
	c-0.117-0.035-0.222-0.104-0.3-0.199c0.014-0.02,0.022-0.043,0.022-0.066c-0.092-0.061-0.193-0.105-0.3-0.132H4.524l0.043,0.065H4.5
	c-0.079-0.073-0.2-0.1-0.281-0.176c0.024-0.014,0.041-0.038,0.043-0.065c-0.083-0.063-0.178-0.106-0.279-0.13
	c-0.012,0.02-0.02,0.042-0.022,0.065c-0.117-0.036-0.221-0.106-0.3-0.2c0.012-0.012,0.02-0.027,0.022-0.043
	c-0.11-0.04-0.212-0.1-0.3-0.177c-0.009,0.079,0.01,0.056-0.043,0.088c-0.242-0.222-0.7-0.312-0.952-0.549
	c-0.054,0.026-0.113,0.042-0.173,0.044V24.02H2.186l-0.433-0.4c-0.11-0.057-0.115,0.049-0.152-0.088
	c0.024-0.032,0.045-0.067,0.022-0.088c-0.16-0.153-0.335-0.289-0.523-0.406c-0.243,0.066-0.498-0.055-0.6-0.285
	c-0.116-0.102-0.224-0.212-0.325-0.329C-0.006,21.97-0.03,21.469,0.108,21C0.2,20.828,0.335,20.683,0.5,20.579
	c0.099-0.026,0.189-0.079,0.26-0.154c-0.043-0.032-0.074-0.079-0.087-0.132L1,20.184c0.014-0.019,0.022-0.042,0.022-0.065
	c-0.077-0.165-0.122-0.345-0.13-0.527h0.017v-0.022c0.071,0.02,0.085,0.045,0.152,0.066c0.083-0.069,0.156-0.15,0.216-0.24
	c-0.027-0.071-0.027-0.15,0-0.221H1.32c0.026-0.016,0.057-0.023,0.087-0.021v-0.088H1.364c-0.034,0.02-0.075,0.02-0.108,0v-0.043
	c0.034-0.02,0.07-0.035,0.108-0.045c0.053,0.044,0.084,0.107,0.087,0.176h0.216v-0.066c0.031-0.01,0.056-0.035,0.065-0.066
	c0.034,0.019,0.074,0.019,0.108,0c0.018-0.027,0.032-0.057,0.043-0.088c0.144,0.061,0.242-0.064,0.433,0
	C2.454,18.984,2.604,19,2.749,18.977c0.086-0.045,0.185-0.061,0.281-0.045c0.228,0.051,0.459,0.08,0.693,0.088
	c0.07-0.025,0.143-0.048,0.216-0.065c0-0.024,0.007-0.047,0.022-0.066c0,0,0.028,0.064,0.039,0.046v-0.022
	c0.077-0.112,0.211-0.173,0.346-0.154c0.128-0.022,0.259-0.03,0.39-0.022c0.466-0.07,0.937-0.1,1.407-0.088v0.33
	c0.309,0,0.391-0.08,0.649-0.088V19c0.083-0.009,0.163-0.031,0.238-0.066c0.018,0.039,0.04,0.076,0.064,0.11
	c0.374-0.167,0.79-0.214,1.19-0.132h0.849c0.046,0.034,0.089,0.07,0.13,0.109h0.325v0.045c0.089,0.035,0.38-0.082,0.541-0.045
	c0.121,0.059,0.256,0.082,0.39,0.066c0.055-0.043,0.126-0.059,0.195-0.044c0.134,0.038,0.272,0.052,0.411,0.044v-0.2l-2.684-0.044
	v-0.283H8.333l-0.022-0.045c-0.038-0.06-0.061-0.128-0.065-0.2c-0.335-0.001-0.67,0.028-1,0.088l-0.584,0.021
	c-0.368,0.082-0.86,0.084-1.212,0.133L5.476,18.3H5.455v0.022c-0.036,0.077-0.097,0.139-0.173,0.176
	C5.281,18.48,5.273,18.463,5.26,18.45c0.033-0.1,0.05-0.233,0.087-0.329c-0.07-0.018-0.033,0.011-0.065-0.044
	c0.023-0.063,0.006-0.133-0.044-0.177c0.031-0.03,0.054-0.068,0.065-0.11c0.057,0.017,0.052,0.026,0.108,0.044
	c0.029-0.358,0.102-0.712,0.216-1.053c0.105-0.376,0.119-0.733,0.238-1.1c0.1-0.318,0.226-0.655,0.346-0.966
	c0.099,0.01,0.194,0.04,0.281,0.088c0.087-0.007,0.175-0.021,0.26-0.044l0.693-0.021v-0.019h0.023
	c0.002-0.167,0.017-0.334,0.043-0.5c0.122-0.24,0.32-0.433,0.563-0.549l0.173-0.022c0.073-0.058,0.168-0.082,0.26-0.066
	c0.102,0.045,0.196,0.104,0.281,0.176c0.142,0.035,0.271,0.111,0.368,0.22c0.099,0.219,0.129,0.463,0.087,0.7h0.021
	c0.069-0.049,0.158-0.059,0.236-0.025c0.048-0.049,0.107-0.087,0.173-0.11c-0.009-0.05-0.02-0.024,0-0.066
	c0.166-0.057,0.31-0.165,0.411-0.307c0.057-0.274,0.192-0.525,0.39-0.724c0.334-0.071,0.678-0.086,1.017-0.044
	c0.819,0,1.716,0.017,2.468,0.044c0.032,0.028,0.068,0.05,0.108,0.065l0.13,0.176l0.021,0.285c0.087-0.002,0.175,0.005,0.26,0.022
	c0.016,0.111-0.023,0.124,0.108,0.132v0.066l0.585,0.022l0.043-0.2c-0.057-0.067-0.073-0.16-0.043-0.242l0.087-0.154
	c0.068,0.02,0.1,0.018,0.173,0.044c0.017-0.091,0.011-0.08,0.108-0.088c0.037-0.002,0.073-0.009,0.108-0.022
	c0.03,0,0.1,0.054,0.152,0.066c0.084-0.868,0.106-1.741,0.065-2.612c-0.032-0.335-0.025-0.673,0.022-1.007
	c0,0.8,0.022,1.633,0.022,2.458v1.053C15.948,13.57,15.971,13.638,15.974,13.709z"/>
</svg>
