<?xml version="1.0" encoding="utf-8"?>
<!-- Generator: Adobe Illustrator 16.0.0, SVG Export Plug-In . SVG Version: 6.00 Build 0)  -->
<!DOCTYPE svg PUBLIC "-//W3C//DTD SVG 1.1//EN" "http://www.w3.org/Graphics/SVG/1.1/DTD/svg11.dtd">
<svg version="1.1" id="Layer_1" xmlns="http://www.w3.org/2000/svg" xmlns:xlink="http://www.w3.org/1999/xlink" x="0px" y="0px"
	 width="40px" height="40px" viewBox="0 0 40 40" enable-background="new 0 0 40 40" xml:space="preserve">
<path id="ussr_t_10m_ico" fill="#FFFFFF" d="M15.7,13.952h0.255c0.027,0.295,0.027,0.593,0,0.888
	c-0.067,0.061-0.116,0.14-0.139,0.228c0.037,0.013,0.069,0.037,0.093,0.068c0.006,0.022,0.018,0.009,0,0.023
	c-0.059,0.048-0.133,0.072-0.209,0.068v0.25h0.05c0.049-0.153,0.179-0.168,0.394-0.159v0.228c0.184,0.04,0.369,0.07,0.556,0.091
	c0.082-0.116,0.076-0.2,0.162-0.319c0.058-0.082,0.172-0.122,0.232-0.2c0.245,0.067,0.535,0,0.533,0.319
	c-0.03,0.112-0.054,0.226-0.069,0.341c0.058,0.044,0.12,0.083,0.185,0.114v-0.076h0.185v0.114c0.273,0.036,0.544,0.089,0.812,0.159
	c0.354,0.034,0.712,0.026,1.065-0.023v0.023l-0.093,0.273H19.9c0.092,0.015,0.186,0.015,0.278,0
	c0.321-0.042,0.646,0.021,0.928,0.182c0.078-0.041,0.166-0.063,0.254-0.068c0.043,0.017,0.101,0.117,0.14,0.137
	c0.192,0.026,0.386,0.042,0.579,0.046c0.222,0.065,0.529,0.1,0.764,0.159c0.109-0.001,0.219,0.014,0.324,0.046
	c0.027,0.019,0.021,0.1,0.046,0.114c0.05,0.034,0.7,0.01,0.788,0.023l3.752,0.023c0.484,0.053,0.973,0.061,1.459,0.023
	c0.911,0.066,1.826,0.043,2.732-0.068H32.7c0.651-0.049,1.308-0.003,1.946,0.137h2.223c0.024-0.064,0.04-0.132,0.046-0.2h0.162v0.11
	c0.296,0.037,0.597,0.005,0.88-0.091v0.091l0.417-0.023v-0.087h0.046c0.079,0.094,0.207,0.13,0.324,0.091v-0.091H38.8
	c0.039,0.113,0.148,0.1,0.3,0.091v-0.091h0.047c0.054,0.1,0.137,0.1,0.299,0.091v-0.091h0.045c0.079,0.094,0.207,0.13,0.324,0.091
	v-0.073h0.068c0.101,0.276,0.133,0.573,0.094,0.865c-0.049,0.046-0.104,0.085-0.162,0.114v-0.091h-0.277
	c-0.021,0.077-0.01,0.071-0.094,0.091v-0.091c-0.122-0.01-0.244,0.022-0.346,0.091v-0.091c-0.123-0.012-0.246,0.021-0.348,0.091
	v-0.091h-0.255c-0.017,0.051-0.063,0.086-0.116,0.091v-0.091l-0.417-0.023v0.091h-0.046c-0.268-0.095-0.555-0.119-0.834-0.068v0.114
	H36.92c-0.004-0.069-0.02-0.136-0.046-0.2h-1.738c-0.302-0.026-0.605-0.002-0.899,0.068c-0.025,0.037-0.049,0.075-0.069,0.114H34.07
	v-0.05h-2.131l-0.069-0.091c-0.509-0.055-1.021-0.055-1.529,0c-1.271,0-2.532,0.045-3.774,0.046l-3.358,0.022
	c-0.026,0.042-0.058,0.08-0.093,0.114c-0.299,0.017-0.595,0.07-0.881,0.159c0.023,0.058,0.032,0.12,0.023,0.182h0.069
	c0.034,0.036,0.064,0.074,0.093,0.114c0.005,0.046,0.013,0.092,0.023,0.137c0.025-0.038,0.071-0.056,0.115-0.046
	c0.053,0.092,0.114,0.176,0.162,0.273c0.451,0.048,0.678,0.193,1.135,0.199V18.87H24v0.2l0.395,0.067
	c0.066,0.05,0.137,0.096,0.209,0.138l0.694,0.022c0,0.05-0.022,0.319-0.022,0.319c0.123,0.071,0.256,0.125,0.394,0.158
	c0.246,0.211,0.556,0.332,0.88,0.343v0.478c0.033,0.084,0.158,0.158,0.186,0.229c0.002,0.066,0.01,0.134,0.022,0.199
	c0.022,0.047-0.038,0.008-0.046,0.023l0.068,0.706H26.59c-0.012-0.013-0.028-0.021-0.046-0.022v-0.105
	c-0.044-0.203-0.044-0.412,0-0.615H26.5c-0.224,0.079-0.467,0.087-0.695,0.023v0.023c0.096,0.156,0.136,0.341,0.116,0.523
	c-0.126,0.16-0.212,0.347-0.255,0.546c-0.074,0.06-0.162,0.099-0.255,0.114c-0.256,0.173-0.144,0.292-0.509,0.3
	c-0.115,0.116-0.238,0.224-0.371,0.319c-0.057-0.026-0.04-0.047-0.094-0.023c-0.137,0.07-0.262,0.162-0.369,0.273
	c-0.063,0.004-0.124,0.004-0.186,0c-0.109,0.08-0.21,0.172-0.3,0.272c-0.062,0.012-0.124,0.012-0.185,0
	c-0.152,0.079-0.285,0.188-0.395,0.319c-0.051-0.021-0.107-0.029-0.162-0.023c-0.109,0.099-0.225,0.189-0.347,0.273
	c-0.05-0.006-0.097-0.021-0.14-0.046c-0.145-0.006-0.287,0.025-0.416,0.091c-0.192,0.047-0.185-0.105-0.371-0.068
	c-0.137,0.038-0.276,0.061-0.418,0.068v-0.071c-0.141,0.006-0.281,0.028-0.416,0.068c-0.187,0.041-0.178-0.109-0.372-0.068
	c-0.121,0.062-0.259,0.086-0.394,0.068c-0.049-0.025-0.028-0.101-0.185-0.068c-0.123,0.058-0.259,0.081-0.394,0.068l-0.023-0.068
	c-0.195-0.001-0.39,0.022-0.579,0.068v-0.068c-0.142,0.006-0.281,0.028-0.417,0.068c-0.083,0.009-0.167-0.017-0.232-0.068
	c-0.18,0.004-0.358,0.026-0.533,0.068v-0.068c-0.134,0.005-0.266,0.028-0.394,0.068c-0.09,0.009-0.181-0.015-0.255-0.068
	c-0.179,0.008-0.357,0.03-0.533,0.068v-0.068c-0.134,0.005-0.266,0.028-0.394,0.068c-0.091,0.009-0.182-0.015-0.255-0.068
	c-0.179,0.009-0.357,0.031-0.533,0.068v-0.068c-0.134,0.005-0.267,0.028-0.394,0.068c-0.192,0.047-0.184-0.107-0.371-0.068
	c-0.123,0.058-0.259,0.081-0.394,0.068c-0.053-0.058-0.131-0.084-0.208-0.068c-0.128,0.038-0.261,0.062-0.394,0.068v-0.068
	c-0.134,0.005-0.266,0.027-0.394,0.068c-0.083,0.015-0.169-0.011-0.232-0.068c-0.188-0.007-0.375,0.017-0.556,0.068v-0.068
	c-0.141,0.006-0.281,0.028-0.417,0.068c-0.083,0.009-0.167-0.017-0.232-0.068c-0.179,0.004-0.358,0.026-0.533,0.068v-0.068
	c-0.134,0.005-0.267,0.027-0.394,0.068c-0.084,0.015-0.169-0.011-0.232-0.068c-0.188-0.005-0.375,0.019-0.556,0.068v-0.068
	c-0.134,0.005-0.267,0.028-0.394,0.068c-0.09,0.009-0.181-0.015-0.255-0.068c-0.179,0.008-0.357,0.03-0.533,0.068v-0.068
	c-0.237,0-0.348,0.063-0.579,0.068v-0.068c-0.237,0-0.348,0.063-0.579,0.068v-0.068c-0.241,0-0.365,0.063-0.6,0.068v-0.068
	c-0.134,0.005-0.267,0.027-0.394,0.068c-0.084,0.015-0.169-0.011-0.232-0.068c-0.188-0.007-0.375,0.017-0.556,0.068v-0.068
	c-0.272,0-0.323,0.043-0.6,0.046v-0.068H5.165c-0.154-0.021-0.31-0.021-0.463,0c-0.15-0.043-0.036-0.154-0.3-0.159
	c-0.099-0.021-0.199-0.037-0.3-0.046c-0.049-0.058-0.104-0.111-0.162-0.159C3.791,23.532,3.644,23.51,3.5,23.47
	c-0.02-0.043-0.056-0.076-0.1-0.092c-0.122-0.029-0.246-0.045-0.371-0.046c-0.085-0.077-0.188-0.132-0.3-0.159
	c-0.119-0.043-0.245-0.065-0.371-0.067c0.002-0.049-0.025-0.094-0.069-0.114c-0.161-0.071-0.334-0.109-0.51-0.114
	c-0.029-0.039-0.045-0.088-0.046-0.137c0.015-0.02,0.023-0.044,0.023-0.068c-0.199-0.075-0.364-0.221-0.463-0.41
	c0.052-0.037,0.07-0.039,0.046-0.091c-0.063-0.109-0.117-0.224-0.162-0.342l-0.463,0.067c-0.125-0.22-0.217-0.457-0.274-0.703
	c0.039-0.081,0.07-0.165,0.093-0.252c-0.06,0.023-0.125,0.023-0.185,0H0.324c0.068-0.092,0.155-0.168,0.255-0.226
	c0.047-0.058,0.074-0.2,0.116-0.25c0.065-0.033,0.127-0.072,0.185-0.116c-0.045-0.057-0.03-0.033-0.023-0.113h0.069
	c0,0,0.03,0.065,0.046,0.046v-0.023c0.065-0.021,0.127-0.052,0.185-0.091v-0.387c-0.084-0.018-0.133-0.071-0.207-0.092
	c-0.147,0.008-0.295,0-0.44-0.022c-0.062-0.039-0.098-0.108-0.093-0.183c0.095-0.135,0.104-0.312,0.023-0.455
	c-0.021-0.123-0.006-0.25,0.046-0.364c0.106-0.022,0.216-0.03,0.324-0.022c0.115-0.021,0.231-0.03,0.348-0.026
	c0.21-0.05,0.425,0.011,0.695-0.046c0.215-0.047,0.474,0.006,0.718-0.047c0.437-0.07,0.879-0.093,1.32-0.067
	c0.064-0.118,0.125-0.122,0.371-0.114c0.1,0.106,0.139-0.02,0.232-0.023c0.37,0.02,0.741,0.02,1.112,0v0.068h0.3v-0.063H6v0.068
	h0.277v-0.09c0.037-0.014,0.077-0.021,0.116-0.023c0.066,0.025,0.138,0.033,0.208,0.023c0-0.024,0.008-0.048,0.023-0.068
	c0.043-0.021,0.091-0.028,0.139-0.023c0.103,0.041,0.216,0.049,0.324,0.023c0.019,0.021,0.034,0.043,0.046,0.068
	c0.124,0.022,0.25-0.011,0.347-0.091h0.6c0.259-0.049,0.523-0.064,0.787-0.046c0.105,0.024,0.307,0.1,0.394,0.114
	c0.109-0.048,0.228-0.071,0.347-0.068c0.035,0.026,0.066,0.057,0.093,0.091c0.141,0.025,0.285,0.009,0.417-0.046
	c0.163-0.026,0.331-0.011,0.486,0.046c0-0.024,0.008-0.048,0.023-0.068c0.096-0.004,0.191-0.027,0.278-0.068
	c-0.134-0.038-0.259-0.1-0.371-0.182c-0.029-0.005-0.144,0.045-0.232,0.046c-0.114-0.225-0.237-0.081-0.232-0.5
	c0.053-0.108,0.092-0.223,0.116-0.341h-0.064c-0.254-0.012-0.493-0.12-0.672-0.3c-0.021-0.059-0.021-0.123,0-0.182
	c0.069-0.052,0.095-0.157,0.162-0.2L9.8,16.434v-0.137c0.214-0.188,0.457-0.342,0.718-0.455c0.155-0.061,0.236,0.072,0.417,0.023
	c0.073-0.021,0.158-0.1,0.232-0.114l0.208,0.023l0.046-0.091h0.371c0.055-0.022,0.1-0.115,0.162-0.137h0.136l0.07-0.091
	c0.1-0.044,0.266,0.028,0.347-0.023c0.013-0.013,0.021-0.029,0.023-0.046c-0.11-0.03-0.1-0.09-0.093-0.228
	c0.091-0.021,0.185-0.029,0.278-0.023l-0.023-0.114c-0.161-0.069-0.342-0.142-0.51-0.2v0.114H11.6V14.84l-1-0.023
	c-0.017-0.08-0.029-0.056-0.046-0.137c0.081-0.033,0.167-0.049,0.255-0.046c0.121,0.033,0.247,0.041,0.371,0.023v-0.091h-0.062
	v-0.068h-0.047c-0.415-0.055-0.834-0.063-1.251-0.023c-1.151,0-2.259,0-3.243,0v-0.2l0.579,0.023
	c0.063-0.036,0.135-0.052,0.208-0.046c0.461,0.054,0.926,0.069,1.39,0.046c0.278,0.017,0.557,0.009,0.834-0.023l0.278,0.023
	c0.417,0.03,0.835,0.022,1.251-0.023c0.023-0.084,0.039-0.171,0.047-0.259c0.331,0.014,0.667-0.021,1.065-0.023l-0.116-0.41h0.069
	v0.023h0.023c0.004,0.137,0.044,0.271,0.116,0.387c0.028,0.017,0.061,0.025,0.093,0.023c0.257-0.1,0.52-0.184,0.787-0.25
	c0.021-0.042,0.029-0.09,0.023-0.137c0.232-0.005,0.465,0.01,0.695,0.046c-0.002,0.032-0.01,0.063-0.023,0.091
	c0.142,0.013,0.251,0.13,0.255,0.273c-0.171,0.09-0.3,0.211-0.463,0.3c-0.014,0.231-0.094,0.453-0.232,0.638h0.069
	c0.288-0.071,0.586-0.086,0.88-0.046c0.051,0.02,0.106,0.028,0.162,0.023c0.06-0.022,0.122-0.038,0.185-0.046
	c0.019-0.074-0.011-0.035,0.046-0.068l0.023,0.068c0.091-0.054,0.194-0.085,0.3-0.091c0.01-0.262,0.127-0.509,0.324-0.683v-0.069
	c0.065-0.045,0.135-0.083,0.208-0.114v-1.935H15.7V13.952L15.7,13.952z M17.159,15.022h0.046v0.023h-0.019v0.023
	c-0.013-0.012-0.021-0.028-0.023-0.046H17.159z M16.904,15.181c0.026,0.038,0.041,0.024,0,0.046V15.181z M0.278,20.941h0.046v0.023
	C0.307,20.963,0.291,20.955,0.278,20.941z M0.3,21.01c0.013,0.013,0.021,0.029,0.023,0.047H0.3V21.01z M0.277,21.057
	c0.013,0.012,0.021,0.027,0.023,0.045H0.278L0.277,21.057L0.277,21.057z M0.254,21.102c0.001,0.17-0.047,0.336-0.139,0.479
	C0.08,21.599,0.04,21.606,0,21.602v-0.045C0.098,21.412,0.183,21.26,0.254,21.102L0.254,21.102z"/>
</svg>
