<svg xmlns="http://www.w3.org/2000/svg" width="79.906" height="40" viewBox="0 0 79.906 40">
  <defs>
    <style>
      .cls-1 {
        fill: #fff;
        fill-rule: evenodd;
      }
    </style>
  </defs>
  <path id="Color_Fill_1" data-name="Color Fill 1" class="cls-1" d="M51.323,10a1.115,1.115,0,0,1,.1.606h-0.2A1.97,1.97,0,0,0,51.323,10Zm1.384,2.729a0.5,0.5,0,0,1,.1-0.3v0.4a0.471,0.471,0,0,1,.3.1H51.916v0.707h0.4V13.133h0.2c0.015,0.45.055,0.3,0.4,0.606-0.49.015-.46,0.012-0.989,0v0.606a3.409,3.409,0,0,0,.593.2,0.608,0.608,0,0,1,0-.4,0.5,0.5,0,0,1,.3-0.1v0.1h0.1a2.547,2.547,0,0,1-.2.505,1.051,1.051,0,0,1-.593.1v0.3c0.321,0.084.151-.05,0.3,0.2h-0.4l0.1,1.011a1.233,1.233,0,0,0,.4-0.1,0.64,0.64,0,0,0,.692.606V16.064c-0.256-.028-0.175.047-0.2-0.4a0.854,0.854,0,0,1-.2-0.707,1.03,1.03,0,0,0,.989-0.2c0.242,0.5.634,0.458,0.692,1.213-0.314.186-.309,0.287-0.3,0.809h0.89v-0.2c0.161-.054.418,0.129,0.791,0.1v0.1a1.115,1.115,0,0,0-.1.606l-0.692.1v0.2a0.693,0.693,0,0,0-.1.4,1.777,1.777,0,0,0,.593.1V17.681h0.2a3.536,3.536,0,0,0,.3.808c0.472,0.071.492,0.141,0.89,0.2v0.4h-0.1v0.1h-0.3V19.8a0.628,0.628,0,0,1,.4.1h-0.4c0,0.735,0,.931,0,1.718h0.1a0.8,0.8,0,0,1,.89-0.505c0.2,0.14.594,0.157,0.791,0.3a10.242,10.242,0,0,1,.3,2.021h0.791a0.354,0.354,0,0,1,.2-0.1V22.835H59.135V21.825a5.693,5.693,0,0,1,1.088,0l0.2-.606h0.2c0.1,0.188.2,0.387,0.3,0.606h0.2v-0.2s0.781,0.164.89,0.2h0.1a3.008,3.008,0,0,0,.2.4c0.652,0.327,1.632-.175,2.176.2H62.4v0.2a2.03,2.03,0,0,0-.2.4,2.278,2.278,0,0,0,1.78.4,2.438,2.438,0,0,1,.1-0.809,3.128,3.128,0,0,0,1.978-.1,4.976,4.976,0,0,0,3.263.606v0.2H67.145v0.1a25.723,25.723,0,0,0,3.956,0,0.337,0.337,0,0,1-.2-0.1c1.417,0.011,2.557.093,4.054,0.1,0.773,0,1.222.368,1.78,0a8.38,8.38,0,0,1-2.868-.2c0.873-.017,3.645-0.131,4.153.2a2.6,2.6,0,0,0-1.187.1h1.879a2.217,2.217,0,0,0,.2-0.3,0.794,0.794,0,0,1,.593.2,0.523,0.523,0,0,0,.1-0.3c-0.876.016-2.653,0.462-3.362,0a31.331,31.331,0,0,1,3.461-.1c0.067-.078.13-0.226,0.2-0.3v0.4c-0.251.147-.112-0.022-0.2,0.3h0.1a0.349,0.349,0,0,1,.1-0.2v0.606a26.561,26.561,0,0,0-1.582,3.941L77.923,29H10.087A4.385,4.385,0,0,0,8.5,28.394c-0.111.29-.017,0.186-0.3,0.3-0.033-.421.018-0.372-0.3-0.505a1.833,1.833,0,0,0-.989-0.4,2.127,2.127,0,0,1,0,1.112H4.153a7.209,7.209,0,0,1-.1-1.92,3.054,3.054,0,0,0,.494-0.3c-1.206.038-2.366-.287-2.571-0.91a3.836,3.836,0,0,1,0-1.516v0.505l0.989-.1v-0.3h7.614a2.7,2.7,0,0,1,.3-0.808h0.1v0.505c0.409-.022.694,0,1.286,0a0.8,0.8,0,0,1,0-.4h0.2c-0.021.338-.213,0.242,0.1,0.4,0.325,0.367,1.614.222,2.274,0.2a0.841,0.841,0,0,0,.495.1v-0.1a1.913,1.913,0,0,0-1.187-.2c-0.231-.143-0.859-0.055-1.088-0.2h2.274l0.2-.4h0.791v-0.2h0.2v0.2l1.879-.1,0.1,1.011a2.532,2.532,0,0,0,1.088-.4v0.1a0.888,0.888,0,0,0-.3.3h0.2a0.773,0.773,0,0,0,.3-0.3,0.611,0.611,0,0,1-.2-0.2h0.2a0.857,0.857,0,0,0,.4.3v-0.1h-0.1a1.875,1.875,0,0,0-.1-0.91H17.8v-0.2h2.274l0.2-.4h0.791v-0.2c0.249-.131.126,0.243,0.4,0.1,0.218-.309.026-0.4,0.494-0.505,0.082,0.445.086,0.562,0.593,0.606a1.051,1.051,0,0,1,.593-0.1l0.1,1.011h0.89a0.6,0.6,0,0,1-.2.4h0.3l0.1-.707a0.472,0.472,0,0,0,.3-0.1,0.611,0.611,0,0,1-.2-0.2h0.4v0.2h-0.1v0.1h0.3v-0.3h0.3v0.3h0.3V22.633a3,3,0,0,0,1.088-.3c0.433-.026.632,0.448,1.187,0.3a1.531,1.531,0,0,0,.3-0.3,6.565,6.565,0,0,1,.692.3c0.876,0.3.923-.389,1.978,0V22.128a0.472,0.472,0,0,1-.3-0.1,0.523,0.523,0,0,1-.1-0.3c0.206-.123.2-0.987,0.989-1.314a0.568,0.568,0,0,0,.791.1v0.606a0.757,0.757,0,0,0-.2.606h0.692c0.082,0.328-.048.154,0.2,0.3v-0.3h0.3a3.811,3.811,0,0,0-.3.808h0.2c0.563-.381.987,0.151,1.78,0.2a18.292,18.292,0,0,1,0-3.537,5.623,5.623,0,0,1,1.978-1.314,1.416,1.416,0,0,0,.593,0,3.576,3.576,0,0,1,0-1.314H38.27v-0.2a0.523,0.523,0,0,0,.1-0.3h-0.1v-0.1a3.8,3.8,0,0,1-1.879-.3,1.376,1.376,0,0,0,1.187-.2h-0.2c-0.207-.129-0.784-0.069-0.989-0.2,1.1,0,1.171-.006,2.175,0v-0.4l-1.78-.1v-0.1a3.1,3.1,0,0,0,.2-1.617H36.292V12.527h0.2v0.4h0.494a1.88,1.88,0,0,1,.1-0.91,1.6,1.6,0,0,0,.1.809c0.041-.362-0.047-0.254.2-0.4v0.1a3.243,3.243,0,0,0-.2,2.122,12.391,12.391,0,0,0,1.681-.1V13.942a1.036,1.036,0,0,1,.494-0.2v0.3c-0.321.084-.151-0.05-0.3,0.2a0.694,0.694,0,0,1,.1.4h0.3a2.466,2.466,0,0,1-.1,1.112c-0.01-.541-0.018-0.51,0-1.011a1.475,1.475,0,0,0-.593.2c0.36,0.655-.021.95,0,2.122a6.554,6.554,0,0,0,.3.91c-0.019.079-.273,0.325-0.3,0.4a6.569,6.569,0,0,0,.1,2.425h0.4a3.6,3.6,0,0,1,2.373-.4,8.691,8.691,0,0,0-2.769.707,0.891,0.891,0,0,0-.1.505,1.477,1.477,0,0,0,.4.2C40.473,20.8,42.816,20.643,44.1,19.6a7.891,7.891,0,0,1-4.549-1.314,0.354,0.354,0,0,1-.2.1l0.1-.2h-0.1a0.354,0.354,0,0,1-.2.1v-0.3h0.2a10.392,10.392,0,0,0,1.879,1.011,0.5,0.5,0,0,1,.3-0.1v0.1h-0.1c-0.19.078,0.2,0.1,0.2,0.1a0.5,0.5,0,0,1,.3-0.1v0.1a0.337,0.337,0,0,0-.2.1h0.2a0.284,0.284,0,0,1,.4,0,0.336,0.336,0,0,0-.2.1h0.3A2.9,2.9,0,0,1,44.8,19.8a0.651,0.651,0,0,1,.593-0.3,1.52,1.52,0,0,0,.89.3c0.028,0.267.082,0.212,0.593,0.2-0.045-.257,0-1.062,0-1.617a0.436,0.436,0,0,0,.3-0.3l2.472-.606a1.371,1.371,0,0,0,.4,1.213,1.8,1.8,0,0,0,.89.1,2.222,2.222,0,0,0,.1-0.707,8.991,8.991,0,0,0,.4-3.537h0.3c0-1.27-.118-3.082-0.1-4.245l0.3-.1c0.082,0.328-.048.154,0.2,0.3-0.4.6,0.092,1.82-.2,2.122A1.533,1.533,0,0,0,52.707,12.729Zm-0.3-2.223h0.2v0.1A0.337,0.337,0,0,1,52.41,10.505Zm0,0.809a1.116,1.116,0,0,1,.1.606h-0.2v-0.4A0.367,0.367,0,0,0,52.41,11.314ZM53.1,12.931h0.2v0.1A0.337,0.337,0,0,1,53.1,12.931Zm0.2,0.1h0.2v0.1A0.337,0.337,0,0,1,53.3,13.032Zm0.2,0.1h0.2v0.1A0.337,0.337,0,0,1,53.5,13.133Zm0.2,0.1h0.2v0.1A0.336,0.336,0,0,1,53.7,13.234Zm0.2,0.1a3.753,3.753,0,0,1,.692.2v0.1h-0.3C54.173,13.522,54.009,13.452,53.894,13.335Zm0.692,0.3h0.2v0.1A0.337,0.337,0,0,1,54.586,13.638Zm0.2,0.1h0.2v0.1A0.337,0.337,0,0,1,54.784,13.739Zm0.2,0.1h0.2v0.1A0.337,0.337,0,0,1,54.982,13.84Zm0.2,0.1a3.745,3.745,0,0,1,.692.2v0.1h-0.3C55.459,14.128,55.294,14.059,55.179,13.942Zm0.692,0.3h0.2v0.1A0.337,0.337,0,0,1,55.871,14.245Zm0.2,0.1h0.2v0.1A0.336,0.336,0,0,1,56.069,14.346Zm0.2,0.1a3.753,3.753,0,0,1,.692.2v0.1h-0.3C56.547,14.634,56.382,14.564,56.267,14.447Zm0.692,0.3h0.2v0.1A0.337,0.337,0,0,1,56.959,14.75Zm0.2,0.1h0.2v0.1A0.337,0.337,0,0,1,57.157,14.851Zm0.2,0.1,0.494,0.1v0.1h-0.3C57.479,15.066,57.428,15.04,57.355,14.952Zm0.494,0.2h0.2v0.1A0.337,0.337,0,0,1,57.849,15.154Zm0.2,0.1,0.494,0.1v0.1h-0.3C58.172,15.369,58.12,15.343,58.047,15.255Zm-20.272.1v0.3h0.791v-0.3H37.775Zm20.766,0.1h0.2v0.1A0.336,0.336,0,0,1,58.541,15.457Zm0.2,0.1,0.494,0.1v0.1h-0.3C58.864,15.673,58.812,15.647,58.739,15.559Zm-7.12.1-0.2,1.415h0.2v-0.1A1.859,1.859,0,0,0,51.619,15.66Zm-12.361.1h0.1c0.048,0.279-.055.119-0.2,0.2Zm19.975,0h0.2v0.1A0.336,0.336,0,0,1,59.234,15.761Zm0.2,0.1,0.494,0.1v0.1h-0.3C59.556,15.976,59.5,15.95,59.431,15.862Zm-20.47.1h0.2v0.1A0.337,0.337,0,0,1,38.962,15.963Zm20.964,0.1h0.2v0.1A0.336,0.336,0,0,1,59.926,16.064Zm0.2,0.1,0.494,0.1v0.1h-0.3C60.248,16.279,60.2,16.253,60.124,16.165Zm0.494,0.2,0.494,0.1v0.1h-0.3C60.743,16.481,60.691,16.455,60.618,16.367Zm0.494,0.2,0.494,0.1v0.1h-0.3C61.237,16.683,61.186,16.657,61.113,16.569Zm0.494,0.2,0.494,0.1v0.1H61.8C61.732,16.885,61.68,16.859,61.607,16.771Zm-5.736.1h0.2v0.1A0.337,0.337,0,0,1,55.871,16.872Zm6.23,0.1a0.472,0.472,0,0,1,.3.1A0.472,0.472,0,0,1,62.1,16.973Zm0.3,0.1h0.2v0.1A0.337,0.337,0,0,1,62.4,17.075ZM51.125,18.793h0.593V17.176a0.472,0.472,0,0,0-.3.1A4.491,4.491,0,0,0,51.125,18.793ZM62.6,17.176a0.472,0.472,0,0,1,.3.1A0.472,0.472,0,0,1,62.6,17.176Zm0.3,0.1,0.494,0.1v0.1h-0.3C63.017,17.391,62.966,17.365,62.893,17.277Zm-10.977.2v0.707H52.41v-0.1h-0.1a0.484,0.484,0,0,0,0-.505,0.663,0.663,0,0,1-.1.4V17.479h-0.3Zm11.471,0a0.472,0.472,0,0,1,.3.1A0.472,0.472,0,0,1,63.387,17.479Zm0.3,0.1,0.494,0.1v0.1h-0.3C63.808,17.694,63.757,17.668,63.684,17.58Zm-24.92.2a0.5,0.5,0,0,0,.1.3v-0.3h-0.1Zm25.414,0a0.472,0.472,0,0,1,.3.1A0.472,0.472,0,0,1,64.178,17.782Zm0.3,0.1a0.472,0.472,0,0,1,.3.1A0.472,0.472,0,0,1,64.475,17.883Zm0.3,0.1a5.129,5.129,0,0,1,.791.2v0.1h-0.3C65.123,18.17,64.9,18.111,64.771,17.984Zm0.791,0.3a0.472,0.472,0,0,1,.3.1A0.472,0.472,0,0,1,65.562,18.287Zm0.3,0.1a0.472,0.472,0,0,1,.3.1A0.472,0.472,0,0,1,65.859,18.388Zm0.3,0.1a0.472,0.472,0,0,1,.3.1A0.472,0.472,0,0,1,66.156,18.489Zm0.3,0.1a0.472,0.472,0,0,1,.3.1A0.472,0.472,0,0,1,66.452,18.59Zm0.3,0.1a0.471,0.471,0,0,1,.3.1A0.472,0.472,0,0,1,66.749,18.692Zm0.3,0.1a0.471,0.471,0,0,1,.3.1A0.472,0.472,0,0,1,67.046,18.793Zm-17.206.1v0.2a1.457,1.457,0,0,0,1.088-.2H49.839Zm1.285,0v0.2c0.354-.042.249,0.048,0.4-0.2h-0.4Zm16.218,0a0.472,0.472,0,0,1,.3.1A0.472,0.472,0,0,1,67.342,18.894Zm0.3,0.1a0.472,0.472,0,0,1,.3.1A0.472,0.472,0,0,1,67.639,18.995Zm-33.424.1c0.23,0.1.161,0.007,0.4,0.1v0.1h-0.4V19.1Zm33.721,0a0.472,0.472,0,0,1,.3.1A0.472,0.472,0,0,1,67.936,19.1Zm-11.075.1a0.237,0.237,0,0,1,.1.3C56.711,19.305,56.95,19.351,56.86,19.2Zm11.372,0a0.472,0.472,0,0,1,.3.1A0.472,0.472,0,0,1,68.232,19.2Zm0.3,0.1a0.472,0.472,0,0,1,.3.1A0.472,0.472,0,0,1,68.529,19.3Zm0.3,0.1a1.01,1.01,0,0,1,.692.2h-0.4C69.046,19.532,68.9,19.469,68.826,19.4ZM44.5,19.6v0.1H44.4c-0.19.078,0.2,0.1,0.2,0.1A0.349,0.349,0,0,0,44.5,19.6Zm25.018,0a0.472,0.472,0,0,1,.3.1A0.472,0.472,0,0,1,69.518,19.6Zm0.3,0.1a1.01,1.01,0,0,1,.692.2h-0.4C70.035,19.835,69.891,19.772,69.815,19.7ZM44.1,22.835H44.6a14.3,14.3,0,0,1,.1-2.628H44.1V19.8H44a21.808,21.808,0,0,1-3.659,1.718c-0.677.3-1.35,0.12-1.384,1.112h0.2c0.63-.367,2.4-0.462,2.967-0.91a1.737,1.737,0,0,0,.4.4c0.488,0.174,1.441-.119,1.681.3A0.694,0.694,0,0,0,44.1,22.835ZM42.917,19.9a0.472,0.472,0,0,1,.3.1A0.472,0.472,0,0,1,42.917,19.9Zm27.59,0a0.472,0.472,0,0,1,.3.1h-0.3V19.9Zm-28.084.1a0.629,0.629,0,0,1,.4.1A0.629,0.629,0,0,1,42.423,20.005Zm3.164,0c0.17,0.089.126,0.09,0.3,0h-0.3Zm4.252,0a1.88,1.88,0,0,0,.1.91A1.88,1.88,0,0,0,49.839,20.005Zm2.967,0.3v-0.3H52.312v0.1a0.367,0.367,0,0,1,.1.2h0.4Zm18-.3a1.01,1.01,0,0,1,.692.2H71.1C71.024,20.139,70.879,20.075,70.8,20.005Zm-33.325.1a1.086,1.086,0,0,0,.1.606C37.591,20.259,37.705,20.321,37.478,20.106Zm4.549,0a0.629,0.629,0,0,1,.4.1A0.628,0.628,0,0,1,42.027,20.106Zm-0.4.1a0.629,0.629,0,0,1,.4.1A0.628,0.628,0,0,1,41.632,20.207Zm4.747,0a5.3,5.3,0,0,0,.2.809h0.3V20.207H46.378Zm25.118,0a1.01,1.01,0,0,1,.692.2h-0.4C71.716,20.341,71.572,20.277,71.5,20.207Zm-46.972.2a0.367,0.367,0,0,1,.1.2h-0.1v-0.2Zm47.664,0a1.009,1.009,0,0,1,.692.2h-0.4C72.408,20.543,72.264,20.479,72.188,20.41Zm-25.612.1h0.2v0.1A0.336,0.336,0,0,1,46.576,20.511Zm26.3,0.1a0.628,0.628,0,0,1,.4.1A0.629,0.629,0,0,1,72.88,20.612Zm0.4,0.1a0.628,0.628,0,0,1,.4.1A0.628,0.628,0,0,1,73.276,20.713Zm-35.8.1v0.2h0.1v-0.2h-0.1Zm36.193,0a1.9,1.9,0,0,1,1.088.3h-0.4C74.18,20.987,73.843,20.953,73.671,20.814Zm-27,.3c0.082,0.328-.049.154,0.2,0.3v-0.3h-0.2Zm28.084,0a0.629,0.629,0,0,1,.4.1A0.629,0.629,0,0,1,74.759,21.117Zm0.4,0.1a0.629,0.629,0,0,1,.4.1A0.628,0.628,0,0,1,75.155,21.218Zm0.4,0.1a0.629,0.629,0,0,1,.4.1A0.628,0.628,0,0,1,75.55,21.319ZM79.7,22.33a2.347,2.347,0,0,1-1.285-.3c0.58,0.021.805,0.169,1.384,0.2a1.881,1.881,0,0,1,.1-0.91,2.406,2.406,0,0,1-.2,1.415v-0.4Zm-55.179-.91a0.367,0.367,0,0,1,.1.2h-0.1v-0.2Zm51.421,0a0.629,0.629,0,0,1,.4.1A0.629,0.629,0,0,1,75.946,21.42Zm0.4,0.1a2.345,2.345,0,0,1,1.285.3H77.132C76.932,21.684,76.539,21.667,76.341,21.521ZM0,22.128a4.326,4.326,0,0,0,1.384-.3v0.2a2.375,2.375,0,0,1,.2.707,4.343,4.343,0,0,1-1.384.2A1.5,1.5,0,0,1,0,22.128Zm77.627-.3a0.628,0.628,0,0,1,.4.1A0.628,0.628,0,0,1,77.627,21.825Zm0.4,0.1a0.629,0.629,0,0,1,.4.1A0.628,0.628,0,0,1,78.022,21.926Zm-40.544.2a0.5,0.5,0,0,0,.1.3A0.5,0.5,0,0,0,37.478,22.128Zm-35.9.808a0.367,0.367,0,0,1,.1.2h-0.1v-0.2Zm28.579,0.505h0.4a0.5,0.5,0,0,0-.1-0.3c-0.186.087-.073,0.048-0.3,0v0.3Zm11.867,0c-0.082-.328.048-0.154-0.2-0.3v0.1c-0.193.042-.071-0.155-0.2,0a0.367,0.367,0,0,0-.1.2h0.494Zm1.088-.3v0.3a1.781,1.781,0,0,0,1.384-.2H44.3A2.633,2.633,0,0,0,43.115,23.138Zm15.525,0a1.765,1.765,0,0,1,.89.1A1.767,1.767,0,0,1,58.64,23.138Zm3.56,0.1v0.2h0.1A0.348,0.348,0,0,0,62.2,23.239Zm-60.519.1a0.542,0.542,0,0,1,.1.809Zm69.617,0.1a0.514,0.514,0,0,0,.593,0H71.3Zm1.088,0a0.975,0.975,0,0,0,.89,0h-0.89Zm1.187,0v0.2a1.256,1.256,0,0,0,.692-0.1A1.952,1.952,0,0,1,73.572,23.442Zm-50.828.1a1.747,1.747,0,0,0,1.286,0H22.744Zm7.417,0a0.284,0.284,0,0,0,.4,0h-0.4Zm13.152,0a1.154,1.154,0,0,0,.989,0H43.313Zm1.088,0a0.355,0.355,0,0,0,.2.1A0.354,0.354,0,0,0,44.4,23.543Zm14.042,0a1.154,1.154,0,0,0,.989,0H58.443Zm4.252,0c0.17,0.089.126,0.09,0.3,0h-0.3Zm0.89,0c0.17,0.089.126,0.09,0.3,0h-0.3Zm3.461,0a0.975,0.975,0,0,0,.89,0h-0.89Zm1.088,0c0.494,0.306,1.685-.109,2.175.2a0.629,0.629,0,0,0-.4.1,1.572,1.572,0,0,0,1.285-.2H70.7A13.516,13.516,0,0,0,68.134,23.543Zm6.23,0a0.808,0.808,0,0,0,.791,0H74.363Zm1.088,0a0.354,0.354,0,0,0,.2.1A0.353,0.353,0,0,0,75.451,23.543Zm-4.153.1v0.2h0.2a0.773,0.773,0,0,1,.4-0.1v-0.1H71.3Zm1.483,0a0.354,0.354,0,0,0,.2.1A0.354,0.354,0,0,0,72.781,23.644Zm-50.136.1a0.654,0.654,0,0,0,.692,0H22.645Zm20.569,0a1.154,1.154,0,0,0,.989,0H43.214Zm15.525,0a0.514,0.514,0,0,0,.593,0H58.739Zm3.857,0a0.284,0.284,0,0,0,.4,0H62.6Zm0.989,0a0.975,0.975,0,0,0,.89,0h-0.89Zm5.142,0a0.514,0.514,0,0,0,.593,0H68.727Zm-66.65.3a0.367,0.367,0,0,1,.1.2h-0.1v-0.2Zm1.286,0.4a4.083,4.083,0,0,0,2.274,0H3.362Zm2.472,0a11.9,11.9,0,0,0,3.56,0H5.834Zm3.857,0a1.342,1.342,0,0,0,1.088,0H9.691Zm1.582,0a0.514,0.514,0,0,0,.593,0H11.273Zm7.021,0a0.354,0.354,0,0,0,.2.1A0.354,0.354,0,0,0,18.294,24.452Zm0.89,0a0.653,0.653,0,0,0,.692,0H19.184Zm-15.723.2a0.355,0.355,0,0,0,.2.1A0.354,0.354,0,0,0,3.461,24.654Zm0.692,0a0.514,0.514,0,0,0,.593,0H4.153Zm0.791,0a0.391,0.391,0,0,0,.494,0H4.944Zm1.384,0a1.959,1.959,0,0,0,1.384,0H6.329Zm1.582,0a0.355,0.355,0,0,0,.2.1A0.354,0.354,0,0,0,7.911,24.654Zm0.4,0a0.284,0.284,0,0,0,.4,0h-0.4Zm0.593,0a0.355,0.355,0,0,0,.2.1A0.354,0.354,0,0,0,8.9,24.654Zm0.89,0a0.391,0.391,0,0,0,.494,0H9.79Zm0.593,0a0.355,0.355,0,0,0,.2.1A0.354,0.354,0,0,0,10.383,24.654Zm7.515,0a0.355,0.355,0,0,0,.2.1A0.354,0.354,0,0,0,17.9,24.654Zm1.681,0c0.17,0.089.126,0.09,0.3,0h-0.3ZM6.032,26.878a1.6,1.6,0,0,0,.1.808A1.6,1.6,0,0,0,6.032,26.878Z" transform="translate(0 0.5)"/>
</svg>
