<svg xmlns="http://www.w3.org/2000/svg" width="40" height="40" viewBox="0 0 40 40">
  <defs>
    <style>
      .cls-1 {
        fill: #fff;
        fill-rule: evenodd;
      }
    </style>
  </defs>
  <path id="ussr_bmp_3_ico" class="cls-1" d="M18.7,17.57a3.3,3.3,0,0,0,.706.027,0.583,0.583,0,0,0,.109-0.241,0.783,0.783,0,0,1-.244-0.536h0.027v0.054a1.065,1.065,0,0,1,.136.268,5.481,5.481,0,0,0,.489.483V17.6c0.054-.071-0.03-0.053.081-0.08v0.027H19.973c-0.052.021,0.054,0.027,0.054,0.027a0.184,0.184,0,0,0,.109.027,0.406,0.406,0,0,0,.054-0.241c-0.067-.035-0.018.012-0.054-0.054a0.526,0.526,0,0,0,.488-0.268,0.428,0.428,0,0,1-.136-0.134c0.07-.04.057-0.08,0.054-0.188H20.516a0.261,0.261,0,0,1-.244.161A0.36,0.36,0,0,1,20.19,16.6a0.836,0.836,0,0,1,.678-0.322,1.66,1.66,0,0,1,.027-0.349,0.9,0.9,0,0,1,.651-0.214v0.107H21.6a0.756,0.756,0,0,1,.407-0.054,2.337,2.337,0,0,1-.054.858,1.377,1.377,0,0,1,.868.215h0.136l0.027,0.188H23.2a0.9,0.9,0,0,1,.027-0.215,0.393,0.393,0,0,1,.109-0.027v0.027h0.027a1.738,1.738,0,0,0,.027.349,0.383,0.383,0,0,1,.19.054c0.35,0.1.3,0.658,0.217,1.019h0.461a2.754,2.754,0,0,1,.461-0.054c0.181-.057.411-0.163,0.6-0.214a4.771,4.771,0,0,0,.977.107,0.428,0.428,0,0,1,.081-0.107,1.877,1.877,0,0,0,.244.107c0.3-.014.529,0,0.868,0V17.892a0.792,0.792,0,0,1,.244-0.027v0.215a0.368,0.368,0,0,1,.244-0.054l0.027,0.081c0.046,0.024.363,0.042,0.407,0.054a0.161,0.161,0,0,0,0,.161,0.3,0.3,0,0,0,.163.027c0.056-.034.112,0.014,0.217-0.027,0.083-.033.144-0.219,0.244-0.08l-0.054.027a2.4,2.4,0,0,1-.353.134c0.03,0.08,0,.28.027,0.429H28.548V18.776H28.467c-0.077,0-.023.041-0.054,0.054H27.788v0.027c0.083,0.071.041,0.15,0,.241,0.644,0.07,1.533-.049,2.144.08,0.324,0.069.741-.035,1.031,0.027h1.058a5.607,5.607,0,0,0,.9.027c0.275,0.006.609,0.027,0.923,0.027h0.6c0.522,0.111,1.2,0,1.737.081l0.516-.027a5.786,5.786,0,0,0,1.113.054h0.434A10.486,10.486,0,0,0,40,19.42v0.67a8.51,8.51,0,0,1-1.6-.054c-0.322-.073-0.742.038-1.031-0.027-0.37-.084-0.687.051-1.031-0.027l-2.388-.027c-0.194-.043-0.5.024-0.733-0.027a7.143,7.143,0,0,0-1.33-.054H31.153c-0.289-.064-0.709.044-1.031-0.027-0.289-.064-0.709.044-1.031-0.027a4.7,4.7,0,0,0-.841-0.027c-0.5,0-.983,0-1.438,0v0.054c0.134,0,.14-0.009.163,0.107a0.975,0.975,0,0,0-.326.134h0.027v0.027a0.7,0.7,0,0,1,.489.349,0.336,0.336,0,0,0-.3.054H26.839v0.027a0.881,0.881,0,0,1,.271.054,1.134,1.134,0,0,0,.081.161,0.3,0.3,0,0,0,.244.054,0.983,0.983,0,0,0,.054-0.161h0.027v0.08a0.135,0.135,0,0,0-.027.08l0.081,0.027a1.219,1.219,0,0,0,.407-0.08,9.382,9.382,0,0,0,1.384,0v0.215h0.027a0.4,0.4,0,0,1,.434,0c0.046,0.049-.03.052,0.081,0.08A1.591,1.591,0,0,1,30.665,21v0.134h0.027a0.646,0.646,0,0,1,.353,0V21.028H31.1v0.134a0.133,0.133,0,0,1,.081.027c0.133,0.146-.042.241-0.081,0.375h0.054a4.985,4.985,0,0,1,.787.107,4.806,4.806,0,0,1,.841.161l0.3-.027a4.593,4.593,0,0,0,1.058.08v0.107a0.563,0.563,0,0,0,.136.054,0.668,0.668,0,0,0,.244.054,0.306,0.306,0,0,1,.244-0.295,1.5,1.5,0,0,1,.434.054,0.513,0.513,0,0,1,.271-0.4,2.921,2.921,0,0,1,1.33.161,1.7,1.7,0,0,1,.054.751c0.392,0,.56.1,0.868,0.107,0.023-.087-0.013-0.041.054-0.08a0.138,0.138,0,0,0,.136.08v0.08c0.2,0,.858-0.045.9-0.027a0.1,0.1,0,0,1,.027.054c-0.021,0-.153.074-0.108,0.161a0.286,0.286,0,0,1,.081.188,0.236,0.236,0,0,1-.109.081,0.185,0.185,0,0,1-.108.027v0.08a3.507,3.507,0,0,0-.841,1.26,0.935,0.935,0,0,0-.217.4,1.275,1.275,0,0,1,.054.59,8.188,8.188,0,0,1-.923.831c-0.042.019,0,0-.081,0V26.175a0.164,0.164,0,0,0,.054-0.054l-0.217-.107v0.429a0.8,0.8,0,0,1,.081.348H36.2V26.738a1.383,1.383,0,0,0,.136-0.67H36.309c-0.123.161-.2,0.013-0.326,0.08-0.045.023-.773,0.594-0.787,0.617-0.039.064-.014,0.129-0.054,0.188a4.049,4.049,0,0,1-.488.482,0.812,0.812,0,0,1-.136.188l-0.136.027c-0.092.06-.132,0.2-0.217,0.268l-0.136.027-0.081.134c-0.069.054-.177,0.051-0.244,0.107a21.188,21.188,0,0,1-1.9,1.5,4.86,4.86,0,0,0-.407.349l-0.027.08c-0.069.055-.177,0.051-0.244,0.107a5.8,5.8,0,0,1-.434.4,1.814,1.814,0,0,1-.217.054,2.216,2.216,0,0,1-.217.161,2.913,2.913,0,0,1-.814.107l-0.3-.027a0.456,0.456,0,0,1-.271.054,1.966,1.966,0,0,0-.624-0.054c-0.252.06-.535-0.04-0.841,0-0.58.076-1.291,0-1.9,0.054a0.355,0.355,0,0,1-.19-0.054,2.437,2.437,0,0,0-.624.054,0.309,0.309,0,0,1-.217-0.054,1.978,1.978,0,0,0-.624.054,0.408,0.408,0,0,1-.244-0.054c-0.212-.032-0.627.1-0.787,0.054A2.423,2.423,0,0,0,22.2,30.92a2.3,2.3,0,0,1-.651.027l-0.19-.027a4.277,4.277,0,0,1-1.14,0l-0.19.027a2.378,2.378,0,0,1-.678-0.027,3.655,3.655,0,0,0-.678.054,6.352,6.352,0,0,0-.76-0.054,0.455,0.455,0,0,1-.271.054,1.966,1.966,0,0,0-.624-0.054,0.367,0.367,0,0,1-.244.054,1.969,1.969,0,0,0-.624-0.054,4.31,4.31,0,0,1-1.167,0c-0.187-.045-0.644.091-0.787,0.054a2.431,2.431,0,0,0-.624-0.054,1.954,1.954,0,0,1-.733,0,2.7,2.7,0,0,1-.353.054,2.425,2.425,0,0,0-.624-0.054,2.268,2.268,0,0,1-.651.027,0.416,0.416,0,0,0-.19-0.027,2.256,2.256,0,0,1-.651.027L10.2,30.92a3.949,3.949,0,0,1-1.113,0,1.9,1.9,0,0,0-.6.054c-0.15.039-.592-0.1-0.787-0.054a2.152,2.152,0,0,1-.624.027,0.437,0.437,0,0,0-.19-0.027,0.2,0.2,0,0,1-.109.054,1.654,1.654,0,0,1-.244-0.107l-0.353-.027a10.5,10.5,0,0,1-1.574-1.019l-0.19-.054-0.136-.161a2.82,2.82,0,0,0-.407-0.268,0.592,0.592,0,0,1-.19-0.054,1.163,1.163,0,0,0-.081-0.134c-0.089-.062-0.184-0.074-0.271-0.134A1.527,1.527,0,0,0,3.2,28.882l-0.163-.027-0.081-.134a3,3,0,0,0-.57-0.295l-0.163-.188c-0.1-.069-0.207-0.087-0.3-0.161l-0.081-.134a0.5,0.5,0,0,1-.217-0.054,2.662,2.662,0,0,1-.3-0.777,3.914,3.914,0,0,1-.271-0.456l0.054-.134a6.256,6.256,0,0,0-.3-0.8A2.921,2.921,0,0,0,.6,25a1.505,1.505,0,0,0-.353-0.054v-0.08C0.4,24.79.256,24.695,0.326,24.54a1.267,1.267,0,0,0,.461-0.563c-0.1-.019-0.067-0.033-0.163-0.054V23.816c0.1-.019.067-0.033,0.163-0.054V23.655H0.841a0.325,0.325,0,0,1,.217,0,0.372,0.372,0,0,1-.027-0.322H0.9c-0.022.087,0.013,0.041-.054,0.08V22.851a4.159,4.159,0,0,0-.054-1.045H0.706V21.591H0.787a4.28,4.28,0,0,1,.136-0.456H1.058a0.336,0.336,0,0,1,.271-0.322V20.572c0.564,0,1.169,0,1.655,0V20.465a0.673,0.673,0,0,0,.136-0.107,1.233,1.233,0,0,1,.488.027,0.626,0.626,0,0,0,.326.188c0.181-.085.837,0.106,1.085,0V20.519a0.651,0.651,0,0,1,.353.054,1.124,1.124,0,0,0,.136-0.08H5.862v0.054a0.765,0.765,0,0,0,.326-0.081c0.024,0,.28.053,0.407,0.054a0.612,0.612,0,0,1,.136-0.161c0.114,0,.528.042,0.57,0.027a0.112,0.112,0,0,1,.109-0.054v0.107a0.868,0.868,0,0,0,.326-0.08,0.244,0.244,0,0,0,.271.134c0.128-.08.388,0.043,0.543-0.027l0.027-.08a5.173,5.173,0,0,1,.733-0.027V20.251H9.417v0.107H9.5a1.067,1.067,0,0,1,.054-0.241l1.764-.08c0.011-.1-0.013-0.067.054-0.107a2.791,2.791,0,0,1,.841-0.027,12.118,12.118,0,0,1,1.574-.08v0.107h0.136a0.321,0.321,0,0,1,.081.295h0.109a0.283,0.283,0,0,1,.353.054c-0.109,0-.148-0.015-0.19.054h0.271a0.364,0.364,0,0,1,.38-0.241V19.983c-0.19.01-.259,0.09-0.461,0.107a1.325,1.325,0,0,1-.38-0.509,2.216,2.216,0,0,1,.054-0.724c0.033-.029.208-0.21,0.217-0.214a0.659,0.659,0,0,0,.244-0.054c0.133-.108-0.073-0.21.244-0.215,0,0,.036.077,0.054,0.054V18.4a0.136,0.136,0,0,0,.081-0.134,6.206,6.206,0,0,0,1.737-.241,2.462,2.462,0,0,0,.733-0.134,1.3,1.3,0,0,0,.054-0.751,0.823,0.823,0,0,1,.054-0.295q-0.014-.536-0.027-1.072-0.081-2.814-.163-5.629-0.014-.764-0.027-1.528A1.158,1.158,0,0,1,17.368,8V8.054a2.115,2.115,0,0,1,.054.7q0.014,0.8.027,1.608a7.748,7.748,0,0,1,.054,1.5V12.37c0.061,0.278-.041.681,0.027,0.992,0.061,0.278-.041.681,0.027,0.992,0.063,0.286-.043.7,0.027,1.019,0.063,0.286-.043.7,0.027,1.019,0.1,0.436.047,1.005,0.136,1.448a0.59,0.59,0,0,0,.19.027,3.223,3.223,0,0,1,.678-0.027A0.4,0.4,0,0,0,18.7,17.57Zm4.423-.751a0.132,0.132,0,0,1,.081.027A0.131,0.131,0,0,1,23.121,16.819ZM0.3,25.1a3.858,3.858,0,0,1,.109.965A1.471,1.471,0,0,1,0,26.094V26.068A1.312,1.312,0,0,0,.3,25.1Z" transform="translate(0 0.5)"/>
</svg>
