<svg xmlns="http://www.w3.org/2000/svg" width="39.969" height="40" viewBox="0 0 39.969 40">
  <defs>
    <style>
      .cls-1 {
        fill: #fff;
        fill-rule: evenodd;
      }
    </style>
  </defs>
  <path id="ussr_isu_122s_ico" class="cls-1" d="M20.662,16.506h1.709a5.278,5.278,0,0,0,.705,0v-0.36h0.086v0.212H23.1v0.064h0.064v0.085a3.023,3.023,0,0,0,.919-0.021c0.04,0.127.081,0.257-.128,0.254a2.345,2.345,0,0,0-1.111-.021v0.021a0.084,0.084,0,0,1,.043.085l-0.064.021a1.688,1.688,0,0,1-.6.021h-1.56v0.106h0.32v0.169h-0.32c0,0.339.02,0.539,0.021,0.889h0.149a0.178,0.178,0,0,1,.064.148h0.085v0.063l0.427-.021V18.135h0.128V18.2l0.192-.021,0.021,0.063a4.489,4.489,0,0,0,.492.021H24.06a3.037,3.037,0,0,0,.449.592c-0.018.032-.061,0.016-0.021,0.042,0.044,0.089.137,0.19,0.171,0.275,0.045,0.113-.011.306,0.021,0.4a1.419,1.419,0,0,1,.235.085l0.641,0.021a7.9,7.9,0,0,0,1.474.042c1.2,0,2.464.015,3.7,0.021,2.246,0.01,4.517.041,6.795,0.042V19.659l0.6-.021a0.264,0.264,0,0,1,.021-0.085,0.074,0.074,0,0,1,.043.021,0.108,0.108,0,0,1,.021.063,3.312,3.312,0,0,0,.62-0.148H39.4a0.776,0.776,0,0,1,.492.064,1.555,1.555,0,0,1-.021,1.121H38.739a1.152,1.152,0,0,0-.534-0.127,0.267,0.267,0,0,1-.021.085,0.074,0.074,0,0,1-.043-0.021,0.108,0.108,0,0,1-.021-0.064c-0.244,0-.358-0.041-0.6-0.042V20.378l-9.273.064a11.832,11.832,0,0,0-1.581.021c-0.4.059-.828-0.032-1.175,0.042a2.689,2.689,0,0,0-.812.085H24.658a1.382,1.382,0,0,1-.15.529,0.838,0.838,0,0,1,.342.021,0.107,0.107,0,0,1,.021.063,1.863,1.863,0,0,0-.128.275,1.51,1.51,0,0,1-.556.529v0.021h0.534a0.78,0.78,0,0,1,.043-0.254l0.021,0.254a3.379,3.379,0,0,1,1.5.148c0.214,0.158.329,0.44,0.555,0.592a0.231,0.231,0,0,1-.064.064,0.473,0.473,0,0,1,.021.106,0.179,0.179,0,0,1-.128.064,0.2,0.2,0,0,0-.15-0.127,1.839,1.839,0,0,1-.6.211v0.021a0.129,0.129,0,0,1,.043.042c-0.073,0-.084-0.02-0.107.042a0.26,0.26,0,0,1,.085.085A0.463,0.463,0,0,1,26.2,23.15h0.021c0,0.027-.043.254-0.043,0.254a1.037,1.037,0,0,0,.171.19,2.023,2.023,0,0,1-.043.846H26.282a0.1,0.1,0,0,0-.021-0.064c-0.04.018-.016,0.01-0.064,0a0.722,0.722,0,0,0-.043.233,0.248,0.248,0,0,0,.064.042,0.839,0.839,0,0,1-.278.36,0.3,0.3,0,0,0-.021-0.106H25.9v0.021l-0.171.148a0.222,0.222,0,0,1,.043.106c-0.147.05-.218,0.184-0.363,0.233a0.083,0.083,0,0,0-.021-0.106,0.563,0.563,0,0,0-.235.317,0.639,0.639,0,0,0-.256.148,0.232,0.232,0,0,0-.043-0.106,0.732,0.732,0,0,1-.256.19,0.358,0.358,0,0,1,.043.127,0.288,0.288,0,0,0-.085.042,0.1,0.1,0,0,0-.021-0.064v0.021c-0.053.064-.094,0.112-0.15,0.169H24.338a0.163,0.163,0,0,0,0-.106H24.316v0.021l-0.235.148a0.233,0.233,0,0,1,0,.148l-0.064.021c-0.012-.028,0-0.016-0.021-0.021a0.363,0.363,0,0,1-.192.169V26.492a0.061,0.061,0,0,0,0-.085,0.985,0.985,0,0,1-.3.212,0.14,0.14,0,0,1,.064.106c-0.12.042-.14,0.125-0.278,0.169,0-.08.01-0.074-0.043-0.106a0.76,0.76,0,0,1-.321.064c0.012,0.062.044,0.066-.021,0.106,0,0-.209.023-0.3,0.021,0.016-.112,0-0.114-0.192-0.106,0.012,0.077.012,0.1-.107,0.106a2.765,2.765,0,0,0-.363,0V26.958a0.417,0.417,0,0,0,.043-0.085H21.752v0.021a0.141,0.141,0,0,1,.021.085H21.3V26.958a0.2,0.2,0,0,0,.064-0.085H21.133c0.011,0.047.024,0.042,0,.085a1.244,1.244,0,0,1-.47.021V26.958a0.116,0.116,0,0,0,.064-0.085H20.47v0.021a0.142,0.142,0,0,1,.021.085H20.043V26.958a0.417,0.417,0,0,0,.043-0.085H19.85c0.011,0.047.024,0.042,0,.085a1.176,1.176,0,0,1-.449.021c0.015-.117,0-0.115-0.192-0.106,0.011,0.047.024,0.042,0,.085a1.244,1.244,0,0,1-.47.021V26.958a0.092,0.092,0,0,0,.064-0.063h0.021V26.873H18.568v0.021a0.142,0.142,0,0,1,.021.085H18.12V26.958a0.416,0.416,0,0,0,.043-0.085H17.906v0.021a0.084,0.084,0,0,1,.043.085H17.5c0.016-.112,0-0.114-0.192-0.106v0.106h-0.47V26.958a0.416,0.416,0,0,0,.043-0.085H16.667v0.106H16.2V26.958a0.116,0.116,0,0,0,.064-0.085H16.026c0.011,0.047.024,0.042,0,.085a1.244,1.244,0,0,1-.47.021V26.958a0.116,0.116,0,0,0,.064-0.085H15.363v0.021a0.141,0.141,0,0,1,.021.085H14.957c0.017-.119-0.018-0.114-0.214-0.106v0.021a0.142,0.142,0,0,1,.021.085c-0.142,0-.283,0-0.47,0V26.958a0.416,0.416,0,0,0,.043-0.085H14.1v0.021a0.142,0.142,0,0,1,.021.085,1.3,1.3,0,0,1-.491-0.021,0.115,0.115,0,0,0,.085-0.085H13.462v0.021c0.048,0.05.023,0.007,0.021,0.085h-0.47V26.958a0.4,0.4,0,0,0,.064-0.085H12.821v0.021a0.142,0.142,0,0,1,.021.085H12.393V26.958a0.416,0.416,0,0,0,.043-0.085H12.2c0.011,0.047.024,0.042,0,.085a1.244,1.244,0,0,1-.47.021V26.958c0.066-.039.01-0.027,0.043-0.063a0.46,0.46,0,0,0-.214-0.021c0.011,0.047.024,0.042,0,.085a0.145,0.145,0,0,1-.085.021,2.834,2.834,0,0,0-.385,0V26.958a0.116,0.116,0,0,0,.064-0.085H10.919v0.021a0.142,0.142,0,0,1,.021.085,1.3,1.3,0,0,1-.492-0.021,0.116,0.116,0,0,0,.064-0.085H10.256v0.021a0.084,0.084,0,0,1,.043.085H9.85c0.016-.112,0-0.114-0.192-0.106v0.106c-0.142,0-.283,0-0.47,0V26.958a0.416,0.416,0,0,0,.043-0.085H9v0.021a0.142,0.142,0,0,1,.021.085H8.547V26.958a0.2,0.2,0,0,0,.064-0.085H8.376c0.011,0.047.024,0.042,0,.085a1.244,1.244,0,0,1-.47.021V26.958a0.116,0.116,0,0,0,.064-0.085H7.714v0.021a0.142,0.142,0,0,1,.021.085H7.286V26.958a0.416,0.416,0,0,0,.043-0.085H7.094c0.011,0.047.024,0.042,0,.085a1.176,1.176,0,0,1-.449.021c0.015-.117,0-0.115-0.192-0.106,0.011,0.047.024,0.042,0,.085a1.244,1.244,0,0,1-.47.021V26.958a0.092,0.092,0,0,0,.064-0.063H6.068V26.873H5.812v0.021a0.142,0.142,0,0,1,.021.085,0.582,0.582,0,0,1-.47-0.085,0.416,0.416,0,0,0-.214-0.021v0.021a0.085,0.085,0,0,1,.043.085c-0.178,0-.184-0.034-0.363-0.042V26.894a0.289,0.289,0,0,0,.085-0.042V26.831l-0.342-.063c0,0.063.025,0.073-.085,0.085A1.868,1.868,0,0,1,4.231,26.7a0.083,0.083,0,0,0,.064-0.085,1.024,1.024,0,0,1-.321-0.127c0.016,0.077.038,0.086-.064,0.106a0.077,0.077,0,0,0-.043-0.021c0-.067.026-0.051-0.064-0.063a0.185,0.185,0,0,1-.171-0.064A0.083,0.083,0,0,0,3.7,26.365a1.626,1.626,0,0,1-.321-0.127,0.1,0.1,0,0,1-.021.106,0.073,0.073,0,0,1-.043-0.021A0.261,0.261,0,0,0,3.12,26.26a0.153,0.153,0,0,0-.085-0.042V26.175c0.053-.027.015,0.009,0.043-0.042a1.794,1.794,0,0,0-.3-0.148c0.009,0.048.02,0.023,0,.063a0.146,0.146,0,0,1-.085.021,1.836,1.836,0,0,0-.278-0.127c0-.067.03-0.04-0.043-0.064a0.156,0.156,0,0,1-.128.021c-0.022-.015-0.022-0.087-0.043-0.106l-0.107.021a1.42,1.42,0,0,1-.278-0.169c0.053-.027.015,0.009,0.043-0.042l0.021-.021H1.838V25.561c-0.022-.021-0.021.021-0.021,0.021a0.24,0.24,0,0,1-.192.085,0.377,0.377,0,0,1-.15-0.233,0.2,0.2,0,0,1-.192-0.169,0.1,0.1,0,0,0,.085-0.021V25.223H1.346c-0.026-.066-0.008-0.048-0.085-0.063a0.165,0.165,0,0,1-.128,0,0.857,0.857,0,0,1-.214.275l-0.128-.042a3.1,3.1,0,0,0-.107-0.381,2.6,2.6,0,0,1-.235-0.148V24.757c-0.028-.088-0.079-0.211-0.107-0.3l-0.021-.19a2.393,2.393,0,0,1-.3-0.423,1.006,1.006,0,0,1,.278-0.8,4.756,4.756,0,0,1,1.389-1.016,1.709,1.709,0,0,0,.641-0.487,0.286,0.286,0,0,0-.021-0.085l0.107,0.021,0.192-.212a0.953,0.953,0,0,0,.449-0.423,0.182,0.182,0,0,1-.15-0.233A0.9,0.9,0,0,0,2.991,20.4a0.27,0.27,0,0,1-.107-0.191,1.146,1.146,0,0,1,.342-0.127,0.977,0.977,0,0,0,.833.148,9.592,9.592,0,0,0,1.09,0,1.135,1.135,0,0,1,.684,0c0.558,0,1.123,0,1.624,0V20.4H7.714V20.23H9.38a1.223,1.223,0,0,1,.577-0.064,5.5,5.5,0,0,0,1.581.064V19.913c0.083,0,.1.011,0.128-0.042H11.6V19.765a0.767,0.767,0,0,1-.3-0.191h0.064a0.109,0.109,0,0,0,.064.021c0.015-.242.14-0.368,0.15-0.613h0.085v-0.7H11.453l-0.021-.042c0.088-.028.276-0.013,0.363-0.042V18.135H11.88a0.656,0.656,0,0,1,.021-0.212h0.021v0.021a0.448,0.448,0,0,1,.021.212h0.064c0.024-.1.045-0.108,0.171-0.106,0.039,0.108,0,.124.15,0.127a0.286,0.286,0,0,0,.149.021,1.57,1.57,0,0,0,.043-0.275c0.269,0,.453.039,0.705,0.042V18.2H13.44V18.135a2.17,2.17,0,0,0,.6-0.148,0.62,0.62,0,0,1,.021-0.127v0.021a2.558,2.558,0,0,1,.192.275,0.338,0.338,0,0,1,.107-0.021c0.053-.149.137-0.138,0.342-0.127a1.874,1.874,0,0,0,.128.233h0.043V18.178h0.15v0.063h0.3V18.093a0.248,0.248,0,0,1,.15-0.042,0.077,0.077,0,0,0,.043.021v0.042a0.737,0.737,0,0,1,.021.106,0.46,0.46,0,0,0,.214.021V18.178H15.9v0.063h0.064a0.355,0.355,0,0,1-.021.127H16V18.241h0.171V18.114h0.192a0.386,0.386,0,0,1,.021.127H16.6V18.2a0.227,0.227,0,0,1-.021-0.127,1.407,1.407,0,0,1,.534-0.042,0.187,0.187,0,0,0,.085.042,0.228,0.228,0,0,1,.021.127,0.13,0.13,0,0,0-.043.042h0.214V18.135a0.492,0.492,0,0,0,.3-0.127,0.182,0.182,0,0,0,.021-0.106A4.075,4.075,0,0,0,18.4,17.8c0.007-.043.068-0.348,0.085-0.381s0.11-.035.128-0.064a0.553,0.553,0,0,0-.085-0.465,0.286,0.286,0,0,0-.149-0.021,0.651,0.651,0,0,1-.064.254,2.714,2.714,0,0,0-.043-0.275c-0.141.01-.282,0.042-0.47,0.042-0.017-.122-0.04-0.058-0.064-0.106a1.313,1.313,0,0,1,.064-0.317,4,4,0,0,0,.556-0.085V16.295h-0.15a1.8,1.8,0,0,1-.021-0.487,0.181,0.181,0,0,1-.021-0.106h0.043a2.347,2.347,0,0,1,.449.042,1.4,1.4,0,0,1,.021.529,0.652,0.652,0,0,1,.043.212h0.171c0.006-.105.012-0.18,0.021-0.254l0.919,0.021,0.043,0.211h0.107V16.379h0.043c0,0.08-.021.058,0.085,0.064a1.165,1.165,0,0,0,.513.063V12.36A0.939,0.939,0,0,1,20.641,12Q20.652,14.253,20.662,16.506Zm-2.372.635a0.076,0.076,0,0,1,.021.042H18.291V17.141Z" transform="translate(-0.031 0.5)"/>
</svg>
