<svg xmlns="http://www.w3.org/2000/svg" width="40" height="40" viewBox="0 0 40 40">
  <defs>
    <style>
      .cls-1 {
        fill: #fff;
        fill-rule: evenodd;
      }
    </style>
  </defs>
  <path id="ussr_bt_7_1937_ico" class="cls-1" d="M25.3,12h0.09a0.108,0.108,0,0,0,.022.067,0.354,0.354,0,0,1,.179-0.022v0.247L25.9,12.314v0.494H25.95c0.035-.153.155-0.089,0.269-0.067v0.067l0.134,0.022a1.2,1.2,0,0,1,.067.224h-0.2v0.067h0.807V12.741H27.07a0.212,0.212,0,0,1,.224,0,0.874,0.874,0,0,0,.022.359,1.084,1.084,0,0,0,.426.022,1.1,1.1,0,0,0,.112.471,0.082,0.082,0,0,0,.045.022,1.029,1.029,0,0,0,.269.045,4.13,4.13,0,0,1,.627.2,1.617,1.617,0,0,1,.538.426,0.888,0.888,0,0,0,.134.247h1.658a0.2,0.2,0,0,1,.09.157h1.815a5.036,5.036,0,0,1,1.031.045v0.067c1.417,0,2.825,0,4.213,0v0.471c-0.907,0-2.054-.012-3.025,0H34.062a0.891,0.891,0,0,1-.09.112H31.216v0.09a5.346,5.346,0,0,1-1.389.067,1.9,1.9,0,0,1-.067.179,0.892,0.892,0,0,1-.09.045,3.044,3.044,0,0,0-.022.7c-0.205,0-.327.044-0.56,0.045a0.51,0.51,0,0,1-.336.247V16.735a0.836,0.836,0,0,0,.179-0.224H28.661a0.267,0.267,0,0,1-.135.067V16.6a2.777,2.777,0,0,1,.179.875h1.12a0.494,0.494,0,0,1,.045-0.224,3.635,3.635,0,0,1,1.008-.18,0.354,0.354,0,0,1,.023.112,2.435,2.435,0,0,1,1.076.067,1.12,1.12,0,0,1,.067.7,0.116,0.116,0,0,0-.045.112l0.471,1.391a2.331,2.331,0,0,0,.874.135,1.41,1.41,0,0,1,.448-0.09,0.228,0.228,0,0,0,.09.135,1.036,1.036,0,0,0,.224.023c0.357,0.081.759,0.026,1.143,0.112,0.28,0.063.6,0.022,0.9,0.09a13.249,13.249,0,0,1,3.048.628,1.21,1.21,0,0,1,.807.763l-0.135.628c-0.1.243-.232,0.517-0.336,0.763a2.412,2.412,0,0,1-.112.359l-0.067.022a1.907,1.907,0,0,0,.045.247l-0.045.516c0.073,0.019.034-.011,0.067,0.045a0.622,0.622,0,0,0-.045.247,4.021,4.021,0,0,0-.672.7c0.026,0.054.046,0.039,0.022,0.09a0.662,0.662,0,0,1-.314.18,0.09,0.09,0,0,0-.09-0.045,2.06,2.06,0,0,1-.695.382c0.006,0.085.045,0.078-.022,0.112a1.119,1.119,0,0,1-.269.135c-0.021-.076-0.009-0.07-0.09-0.09a3.432,3.432,0,0,1-.739.337,0.484,0.484,0,0,0,.045.112l-0.246.09a0.284,0.284,0,0,0-.022-0.09l-0.784.337a0.253,0.253,0,0,1,0,.112,0.4,0.4,0,0,1-.247.09V26.452a2.654,2.654,0,0,0-.964.426,0.114,0.114,0,0,1,.022.067,0.883,0.883,0,0,1-.247.067,0.115,0.115,0,0,1-.022-0.067,3.344,3.344,0,0,0-.874.337l0.045,0.112c-0.136.019-.2,0.089-0.336,0.112a0.088,0.088,0,0,0-.067-0.09,2.552,2.552,0,0,1-.964.337v0.067a0.08,0.08,0,0,1,.022.045h-0.09a0.434,0.434,0,0,1-.224.045v-0.09c-0.287.012-.64,0.044-0.986,0.045a0.353,0.353,0,0,0-.022.112H30.3a0.354,0.354,0,0,1-.022-0.112H29.311v0.112H29.042V27.865a3.353,3.353,0,0,0-.9.022c0,0.141-.131.1-0.314,0.09v-0.09a3.751,3.751,0,0,0-.986-0.022v0.112H26.6v-0.09a3.577,3.577,0,0,0-.941-0.022,0.35,0.35,0,0,0-.022.112H25.367v-0.09a3.751,3.751,0,0,0-.986-0.022v0.112H24.112V27.865H23.261a0.353,0.353,0,0,0-.022.112H22.9v-0.09a3.663,3.663,0,0,0-.964-0.022,0.35,0.35,0,0,0-.022.112H21.67v-0.09a3.493,3.493,0,0,0-.919-0.022,0.081,0.081,0,0,1-.045.022v0.09H20.437v-0.09a3.663,3.663,0,0,0-.964-0.022,0.353,0.353,0,0,0-.022.112H19.182v-0.09H18.308v0.09H17.972v-0.09H16.986v0.09H16.74v-0.09H15.776v0.09L15.507,28V27.888a3.663,3.663,0,0,0-.964-0.022,0.413,0.413,0,0,0-.022.135H14.275V27.888h-0.9V28H13.042V27.888H12.078V28H11.832V27.888H10.868V28H10.6V27.888H9.613V28H9.345V27.888H8.471V28l-0.336-.045V27.843a3.871,3.871,0,0,1-.762-0.135,0.476,0.476,0,0,0-.2-0.023,0.439,0.439,0,0,0-.045.09L6.9,27.708a0.257,0.257,0,0,1,0-.09,3.09,3.09,0,0,0-.9-0.224v0.022H5.983v0.067a0.557,0.557,0,0,1-.246-0.067A0.506,0.506,0,0,1,5.714,27.3L4.8,27.08v0.112l-0.269-.045V27.013C4.227,27,4,26.853,3.7,26.833v0.09l-0.336-.067V26.743H3.339V26.721a9.325,9.325,0,0,1-1.008-.269,0.4,0.4,0,0,1-.045.09A0.151,0.151,0,0,0,2.174,26.5a0.63,0.63,0,0,1-.807.247,0.822,0.822,0,0,1-.426-1.032,1.217,1.217,0,0,0,.134-0.247A5.664,5.664,0,0,0,.627,24.7v0.022c-0.062.011-.026-0.012-0.045-0.045a0.416,0.416,0,0,1-.022-0.2H0.65a1.965,1.965,0,0,1-.022-0.763H0.56a8.778,8.778,0,0,1,.381-0.92,1.023,1.023,0,0,1-.336-0.785C0.377,21.3.18,20.594,0,19.832a0.168,0.168,0,0,0,.09-0.09A1.193,1.193,0,0,0,.134,19.2H0.067V19.091c0.259-.161.5-0.368,0.739-0.539,0.09-.064.207-0.086,0.291-0.157a0.865,0.865,0,0,1,.224-0.2v0.023a0.39,0.39,0,0,1,0,.157,0.982,0.982,0,0,0,.246.359V18.71a0.09,0.09,0,0,0,.045-0.09,0.2,0.2,0,0,1-.067-0.067,2.46,2.46,0,0,0,.515-0.359H2.084a0.429,0.429,0,0,1,.067-0.2,2.859,2.859,0,0,0,.471-0.269C2.582,17.68,2.58,17.7,2.6,17.655s0-.025.067-0.045V17.588H2.689V17.61a0.44,0.44,0,0,1,.045.09L2.8,17.677a0.924,0.924,0,0,1,.134-0.494,0.441,0.441,0,0,0,.112-0.112H1.972a1.408,1.408,0,0,0-.627,0V16.443H4.056c0.436,0,.917.027,1.233,0V16.151c0.253-.006.4-0.006,0.65,0v0.2H5.983a1.935,1.935,0,0,1,.74,0v-0.09c0.348,0.015.795,0.015,1.143,0,0.019,0.073-.011.034,0.045,0.067a0.548,0.548,0,0,1,.269,0c0.035-.121.108-0.121,0.269-0.112a0.782,0.782,0,0,1,.067.135,1.02,1.02,0,0,1,.874.4,0.415,0.415,0,0,1,.2-0.023V16.488h0.717l0.022,0.224h1.681V16.668a0.117,0.117,0,0,1,0-.112h1.86V16.488c0.241,0,.412,0,0.65,0a0.578,0.578,0,0,0,.471.067h1.322a0.125,0.125,0,0,0,.09,0v0.157h0.358V16.6h0.045a0.543,0.543,0,0,1,.247-0.023,0.752,0.752,0,0,0,.067.135h1.322l0.045-.224H15.619l0.023-.135a0.064,0.064,0,0,1-.023-0.022H15.552a0.867,0.867,0,0,0-.045-0.157,0.49,0.49,0,0,1,.224-0.067c0.011-.136.09-0.246,0.09-0.359a1.322,1.322,0,0,1-.179-0.449,4.826,4.826,0,0,1-1.322-.247,0.351,0.351,0,0,0,.022-0.112h0.045a0.151,0.151,0,0,0,.09.022l0.022-.135c-0.447-.005-0.859-0.16-1.277-0.18V14.6a0.244,0.244,0,0,1-.022-0.135,0.234,0.234,0,0,1,.134-0.045,2.654,2.654,0,0,0,.762.157,3.52,3.52,0,0,0,.381.09c0.074,0.009.015-.05,0.09-0.045,0,0,.105.019,0.112,0.022v0.045h0.134a6.206,6.206,0,0,0,.829.157c0-.223.008-0.46,0.022-0.651a1.942,1.942,0,0,1,.246-0.18l0.381-.09a0.156,0.156,0,0,0,.045-0.135,0.108,0.108,0,0,1-.067-0.022,0.166,0.166,0,0,1-.045-0.135,0.272,0.272,0,0,0,.09-0.09,0.353,0.353,0,0,0,.112.022l0.022-.157a4.265,4.265,0,0,0,.919-0.112,0.334,0.334,0,0,0,.269-0.067,0.244,0.244,0,0,1-.157-0.269,0.3,0.3,0,0,1,.134-0.135,0.354,0.354,0,0,1,.179-0.022c0.039,0.055.088,0.126,0.134,0.179a2.818,2.818,0,0,1-.112.269,1.791,1.791,0,0,0,.359-0.045v-0.09a0.682,0.682,0,0,0,.157-0.022V13.01a0.765,0.765,0,0,0,.179-0.022v0.09a0.527,0.527,0,0,0,.179-0.022,0.146,0.146,0,0,0,.022.09A0.387,0.387,0,0,1,19,13.122V13.01a1.561,1.561,0,0,1,.829-0.135l0.067,0.09h1.524a2.344,2.344,0,0,0,.9-0.067,3.811,3.811,0,0,1,.4-0.045,0.081,0.081,0,0,0,.022-0.045,0.226,0.226,0,0,1-.179-0.2h0.022c0.076,0.078.106,0,.224-0.023a0.351,0.351,0,0,1,.022.112,0.081,0.081,0,0,0-.022.045,0.77,0.77,0,0,0,.314.067,1.3,1.3,0,0,0,.224-0.157l0.224,0.022V12.628H23.91a0.314,0.314,0,0,1,.4-0.314v0.157H24.2v0.651h0.336v-0.09a0.742,0.742,0,0,1,.2-0.045,0.541,0.541,0,0,1,.067-0.135c0.02-.083-0.106-0.323-0.112-0.471h0.291V12.314l0.314-.022V12Zm-2.756.561a0.081,0.081,0,0,1,.022.045H22.543V12.561Z"/>
</svg>
