<?xml version="1.0" encoding="utf-8"?>
<!-- Generator: Adobe Illustrator 16.0.0, SVG Export Plug-In . SVG Version: 6.00 Build 0)  -->
<!DOCTYPE svg PUBLIC "-//W3C//DTD SVG 1.1//EN" "http://www.w3.org/Graphics/SVG/1.1/DTD/svg11.dtd">
<svg version="1.1" id="Layer_1" xmlns="http://www.w3.org/2000/svg" xmlns:xlink="http://www.w3.org/1999/xlink" x="0px" y="0px"
	 width="40px" height="40px" viewBox="0 0 40 40" enable-background="new 0 0 40 40" xml:space="preserve">
<path id="Color_Fill_1" fill="#FFFFFF" d="M10.335,2.516c0.088,0.627,0.088,1.264,0,1.892V2.516z M10.335,4.507
	c0.122,0.474,0.122,0.971,0,1.444V4.507z M10.335,6.05c0.127,0.507,0.127,1.037,0,1.543V6.05L10.335,6.05z M11.726,15.658
	l-0.05,0.447l0.348-0.049v-0.201h0.1c0.176,0.059,0.363,0.076,0.547,0.051c0.058-0.146,0.107-0.297,0.149-0.448
	c0.183,0.048,0.376,0.03,0.547-0.05c0.038,0.103,0.108,0.189,0.2,0.249c0.283-0.258,0.686-0.335,1.043-0.2
	c-0.017-0.166-0.017-0.334,0-0.5h0.2v-0.2c0.455-0.063,0.904-0.163,1.342-0.3v-0.6H16v-0.641c0.234,0,0.468-0.017,0.7-0.05
	c0.069,0.227,0.086,0.466,0.05,0.7H16.3c-0.014,0.201,0.003,0.403,0.05,0.6c0.7-0.236,0.91,0.132,1.54,0.149v-0.051
	c-0.087-0.014-0.162-0.069-0.2-0.148h0.1c0.076,0.041,0.162,0.059,0.248,0.05v0.2c1.567,0.008,3.051,0.225,4.272,0.1v0.2
	c-0.845-0.081-1.697-0.047-2.534,0.101l-1.54-0.051c-0.343,0.072-0.693,0.105-1.044,0.101v0.1c0.099,0.185,0.15,0.391,0.149,0.601
	h-0.1c-0.434,0.154-0.908,0.154-1.342,0v0.05h0.05c0.044,0.04,0.094,0.074,0.149,0.1l-0.05,0.3
	c-0.161,0.041-0.076-0.023-0.149,0.101h0.05c0.647,0.016,1.295-0.018,1.938-0.101v0.801h0.1c0.236-0.049,1.056,0.084,1.242,0
	l0.1,0.148c0.068,0.031,0.118-0.138,0.149-0.148c0.059,0.047,0.127,0.082,0.2,0.1c0.048-0.016,0.05-0.191,0.2-0.148
	c0.042,0.062,0.076,0.129,0.1,0.199h0.791v0.149c-0.103-0.014-0.207,0.004-0.3,0.05c0.313,0.049,0.629,0.065,0.944,0.05
	c0.026,0.063,0.043,0.132,0.05,0.2c-0.1,0.045-0.399,0.232-0.3,0.3c0.638,0.128,1.291,0.162,1.938,0.101l0.4,0.05
	c0.051-0.024,0.012-0.148,0.248-0.101c0.766,0.157,1.923-0.087,2.584,0.2c0.227,0.101,0.4-0.166,0.547,0.05
	c0.333-0.123,0.693-0.157,1.043-0.1c0.434,0.1,1.1-0.071,1.59,0.05c0.191,0.083,0.394,0.133,0.601,0.149
	c0.229-0.061,0.464-0.095,0.7-0.1c0.709,0.069,1.424,0.086,2.137,0.049c0.285-0.058,0.581-0.022,0.845,0.101h-0.05v0.05h0.348
	c0.625-0.094,1.26-0.111,1.889-0.05c0.42-0.032,0.842,0.019,1.242,0.149c0.619-0.178,1.278-0.16,1.887,0.05
	c0.089-0.018,0.173-0.052,0.248-0.101l0.051,0.101L40,18.646v0.699c-2.124,0.008-4.218-0.091-6.261-0.148
	c0,0.054-0.018,0.105-0.05,0.148c-0.112-0.14-2.062,0.101-2.733-0.05c-0.702-0.146-1.419-0.212-2.138-0.2h-1.34
	c-0.299-0.016-0.597-0.016-0.895,0c-1.468-0.126-3.046-0.1-4.621-0.1v0.05c0.078,0.084,0.129,0.188,0.148,0.3
	c-0.135-0.02-0.273-0.002-0.399,0.051c0.431-0.074,0.873,0.016,1.242,0.248c0.116-0.043,0.063-0.1,0.149-0.05
	c0.064,0.101,0.18,0.158,0.299,0.149c0.289-0.311,0.801,0.183,1.293,0.1c0.867-0.021,1.735,0.063,2.584,0.249l0.148,0.2
	c0.235,0.018,0.469,0.052,0.7,0.1c0.163,0.159,0.298,0.345,0.399,0.549c0.278,0.268,0.498,0.59,0.646,0.945
	c-0.202,0.275-0.507,0.455-0.845,0.5c-0.07,0.967-0.688,0.646-0.7,1.742h-0.1c0.025-0.184,0.009-0.371-0.051-0.548
	c-0.436,0.325-0.901,0.608-1.391,0.846c-0.499,0.406-1.051,0.743-1.64,1c-0.41,0.07-0.827,0.087-1.242,0.05H7.9
	c-0.647,0.065-1.301,0.031-1.938-0.1c-0.504-0.273-0.971-0.609-1.391-1c-0.5-0.354-1-0.637-1.491-1l-0.2-0.249
	c-0.1-0.062-0.228,0.013-0.348-0.05c-0.218-0.211-0.388-0.466-0.5-0.747c-0.073,0.101-0.18,0.171-0.3,0.2l-0.1-0.149
	c0.107-0.067,0.178-0.137,0.3-0.2v-0.05c-0.141,0.017-0.1,0.054-0.2,0c-0.027-0.026-0.044-0.062-0.05-0.1
	c0.066-0.052,0.118-0.122,0.149-0.2h-0.1c-0.081,0.2-0.285,0.322-0.5,0.3c-0.21-0.076-0.349-0.276-0.348-0.5
	c-0.029-0.103-0.01-0.212,0.05-0.3c0.111-0.062,0.227-0.111,0.348-0.148v-0.051l-0.348,0.1c-0.006-0.188,0.049-0.135-0.2-0.148
	c-0.027-0.027-0.062-0.045-0.1-0.05v-0.3c-0.077-0.14-0.077-0.309,0-0.448h-0.4V20.04H0.6v-0.149l-0.547-0.05v-0.1
	c-0.037-0.06-0.055-0.13-0.05-0.2l0.646,0.1c0.382-0.084,0.923-0.3,1.342-0.399c0.297,0.017,0.596,0.017,0.894,0
	c0.2-0.048,0.553-0.166,0.745-0.2c0.147,0.032,0.297,0.049,0.447,0.05c0.443-0.081,0.892-0.13,1.342-0.149
	c0.331-0.008,0.8,0.137,1.043,0.101c-0.078-0.243-0.078-0.504,0-0.747c0.278-0.084,0.219-0.445,0.2-0.8
	c-0.027-0.027-0.044-0.063-0.05-0.101c0.074-0.063,0.158-0.112,0.248-0.148c0.06-0.037,0.13-0.055,0.2-0.05v-0.243l0.34,0.05v-0.149
	c-0.153-0.083-0.263-0.229-0.3-0.399h0.05v-0.048c0.289-0.01,0.575-0.061,0.85-0.15l0.05-0.5c0.547,0.021,1.095,0.005,1.64-0.05
	c0,0.231,0.2,0.177,0.547,0.149v-0.051c-0.041-0.044-0.074-0.094-0.1-0.148c-0.45,0.008-0.426-0.206-0.4-0.647
	c0.087-0.063,0.192-0.099,0.3-0.1c0.094,0.06,0.195,0.11,0.3,0.149V7.694h0.05c0,2.723,0.135,5.8,0.05,8.164h0.1
	C10.718,15.396,11.282,15.63,11.726,15.658L11.726,15.658z M18.484,14.857c0.357,0.104,0.736,0.104,1.093,0H18.484L18.484,14.857z
	 M15.453,15.059v0.248c-0.205,0.03-0.405,0.08-0.6,0.149c0.033,0.097,0.05,0.198,0.05,0.3c0.092-0.049,0.197-0.066,0.3-0.05
	c0.161,0.063,0.131,0.044,0.149,0.249h0.2v-0.05c-0.101-0.277-0.083-0.583,0.05-0.847H15.453L15.453,15.059z M9.788,15.107
	c-0.016,0.119,0.001,0.24,0.05,0.35c0.015-0.116-0.002-0.234-0.049-0.341L9.788,15.107z M10.288,15.508v0.1h0.05
	c-0.006-0.037-0.024-0.071-0.052-0.098L10.288,15.508z M16.052,15.657c0.027,0.026,0.063,0.044,0.1,0.05
	c-0.028-0.026-0.063-0.043-0.102-0.048L16.052,15.657z M10.437,15.906c-0.016,0.118,0.001,0.239,0.05,0.349
	c0.015-0.118-0.003-0.238-0.052-0.347L10.437,15.906z M9.59,16.256h0.7v-0.148c-0.212-0.045-0.43-0.063-0.646-0.051
	C9.605,16.116,9.587,16.186,9.59,16.256z M7.3,16.505c0.03,0.056,0.086,0.094,0.149,0.101v-0.101H7.3z M7.25,17.105v0.1H7.3v-0.1
	H7.255H7.25z M19.921,17.354l-0.1,0.149h0.248c-0.044-0.054-0.092-0.104-0.143-0.151L19.921,17.354z M20.169,17.354
	c0.027,0.027,0.063,0.045,0.1,0.051c-0.025-0.027-0.059-0.045-0.095-0.053L20.169,17.354z M20.77,17.654v0.148h0.299
	c0.025-0.041,0.06-0.074,0.101-0.1v-0.051H20.77V17.654z M7.106,18.994c-0.027,0.027-0.062,0.045-0.1,0.05v0.05h0.149
	C7.15,19.057,7.133,19.021,7.106,18.994z M7.206,18.994c0.398,0.14,0.826,0.174,1.242,0.1c0.27-0.058,0.552-0.022,0.8,0.1
	c0.023-0.09,0.106-0.151,0.2-0.148v-0.05c-0.697,0.037-1.491,0.004-2.248-0.001H7.206z M21.218,19.094
	c-0.243,0.082-0.493,0.148-0.745,0.2v0.05h0.149c0.244-0.063,0.501-0.063,0.745,0v-0.1h-0.051
	C21.311,19.18,21.273,19.124,21.218,19.094L21.218,19.094z M20.324,19.343c0.027,0.027,0.062,0.045,0.1,0.05
	C20.396,19.366,20.361,19.349,20.324,19.343L20.324,19.343z M19.976,19.393c0.09,0.063,0.21,0.063,0.3,0H19.976z M22.162,19.443
	c0.081,0.074,0.19,0.111,0.3,0.1c0.026-0.027,0.044-0.063,0.05-0.1H22.162z M1.491,21.186c0.141,0.096,0.247,0.236,0.3,0.399h0.05
	v-0.2c-0.066-0.052-0.118-0.121-0.149-0.199H1.491L1.491,21.186z M2.191,22.479v0.101h0.05v-0.101H2.186H2.191z M26.591,22.729
	l0.05,0.148h0.051v-0.1L26.591,22.729z M26.839,22.828l-0.1,0.199h0.1c0.082-0.049,0.151-0.117,0.2-0.199H26.839z M26.591,22.928
	c-0.044,0.042-0.077,0.093-0.1,0.149h0.1v-0.05c0.056-0.078,0.025-0.026-0.007-0.101L26.591,22.928z M26.291,23.128
	c-0.207,0.284-0.727,0.354-0.895,0.647h0.101c0.278-0.238,0.599-0.425,0.944-0.549c-0.047-0.041-0.099-0.076-0.155-0.101
	L26.291,23.128z M8.751,23.277c-0.094,0.122-0.213,0.225-0.348,0.3v0.349c-0.079,0.25-0.196,0.486-0.348,0.7h0.988v-0.05
	c-0.419-0.43-0.119-0.973-0.298-1.301L8.751,23.277z M12.329,23.525c-0.189,0.025-0.209,0.07-0.4,0.101
	c-0.008,0.368-0.111,0.729-0.3,1.046h0.05c0.325-0.093,0.669-0.093,0.994,0v-0.156c-0.172-0.361-0.289-0.748-0.348-1.145v0.148
	L12.329,23.525z M5.074,23.576c0.082,0.056,0.053,0.088,0.1,0H5.074z M18.987,23.626c-0.357-0.012-0.4-0.052-0.4,0.3
	c-0.13,0.242-0.246,0.492-0.348,0.747h1.041v-0.1c-0.244-0.252-0.354-0.604-0.299-0.949L18.987,23.626z M22.167,23.676
	c-0.026,0.352-0.129,0.692-0.3,1h0.646v-0.1c-0.164-0.28-0.283-0.585-0.352-0.902L22.167,23.676z M15.459,24.275
	c-0.059,0.138-0.126,0.271-0.2,0.4H15.7v-0.1c-0.093-0.093-0.176-0.195-0.247-0.305L15.459,24.275z"/>
</svg>
