<?xml version="1.0" encoding="utf-8"?>
<!-- Generator: Adobe Illustrator 16.0.0, SVG Export Plug-In . SVG Version: 6.00 Build 0)  -->
<!DOCTYPE svg PUBLIC "-//W3C//DTD SVG 1.1//EN" "http://www.w3.org/Graphics/SVG/1.1/DTD/svg11.dtd">
<svg version="1.1" id="Layer_1" xmlns="http://www.w3.org/2000/svg" xmlns:xlink="http://www.w3.org/1999/xlink" x="0px" y="0px"
	 width="40px" height="40px" viewBox="0 0 40 40" enable-background="new 0 0 40 40" xml:space="preserve">
<path id="ussr_9p149_ico" fill="#FFFFFF" d="M25.131,14.864c0.047,0.007,0.094,0.007,0.141,0c0.054-0.052,0.109-0.111,0.162-0.165
	h0.489V14.6h0.093v0.1c0.101,0,0.34-0.048,0.35-0.047c0.01,0.001,0.113,0.068,0.14,0.071l0.209-0.047
	c0.083,0.033,0.169,0.057,0.256,0.071v-0.026h0.023c-0.019-0.037-0.019-0.081,0-0.118c0.021-0.015,0.044-0.024,0.069-0.024v0.02
	h0.023c0,0.1,0.04,0.077,0.186,0.071c0.056-0.027,0.168,0.006,0.279-0.024c0.283-0.073,0.57-0.128,0.861-0.165
	c-0.006-0.048,0.002-0.098,0.023-0.142h0.047c0.018-0.188,0.018-0.378,0-0.567H28.5V13.8c0.1,0.174-0.016,0.513,0.093,0.662
	c0.056-0.036,0.16-0.032,0.209-0.071c0.024-0.069,0.097-0.109,0.168-0.091c0.021-0.015,0.045-0.023,0.07-0.024v0.071
	c0.019,0.002,0.034,0.011,0.047,0.024c0.101-0.02,0.179-0.055,0.279-0.071c0.05,0.082,0.137,0.135,0.233,0.142
	c-0.006-0.041,0.003-0.082,0.022-0.118v0.095h0.069c0-0.4-0.021-0.853-0.047-1.182h0.116c0.026-0.14,0.034-0.283,0.023-0.425
	c0.304,0.015,0.608-0.009,0.907-0.071v0.047h-0.022c-0.093,0.071-0.21,0.104-0.326,0.095v0.331c0.099,0.022,0.2,0.031,0.3,0.024
	v-0.052h-0.207v-0.048h0.187c0.013,0.013,0.029,0.021,0.047,0.024v0.307c0.019,0.054,0.019,0.112,0,0.165h-0.022
	c-0.028-0.018-0.061-0.026-0.094-0.024v0.638h0.256c0.043,0.143,0.135,0.152,0.326,0.142v-0.4h-0.094v-0.095h0.093v-0.709
	c0.778-0.095,1.567-0.047,2.327,0.142c0.166,0.14,0.281,0.331,0.326,0.544c0.027,0.107-0.021,0.237,0,0.284
	c0.076,0.029,0.124,0.107,0.115,0.188c-0.035,0.04-0.061,0.089-0.069,0.143h-0.069c-0.048-0.004-0.095-0.012-0.141-0.024
	c-0.184,0.259-0.506,0.38-0.814,0.307c-0.018-0.062-0.027-0.056-0.047-0.118c0.025-0.076,0.033-0.157,0.023-0.236l-0.35-0.024
	l0.023,0.26h0.047c0.052-0.023,0.111-0.023,0.163,0c0.077,0.312,0.34,0.344,0.745,0.331c0.013,0.005,0.095,0.009,0.141,0.024v0.024
	l-0.141,0.024v0.685c0.012,0.013,0.021,0.029,0.023,0.047c0.123-0.008,0.246,0.025,0.349,0.095
	c-0.067,0.223-0.099,0.454-0.093,0.686c0.096,0.02,0.189,0.052,0.279,0.095l1.256,0.024c0-0.026,0.008-0.05,0.023-0.071
	c0.081,0.074,0.194,0.101,0.3,0.071c-0.036-0.139-0.06-0.282-0.069-0.425h0.022v0.024c0.03,0.093,0.054,0.188,0.07,0.284
	c0.146,0.319,0.493,0.496,0.838,0.425c0.173-0.102,0.292-0.275,0.326-0.473h0.022v0.118c-0.063,0.097-0.117,0.2-0.162,0.307h0.047
	V16.92c0.256-0.134,0.416-0.397,0.418-0.686h0.023v0.236c-0.072,0.1-0.091,0.231-0.163,0.331c-0.325,0.301-0.772,0.433-1.21,0.355
	V17.2c0.013,0.013,0.021,0.029,0.023,0.047c0.278,0.102,0.566,0.173,0.861,0.213c0.035-0.053,0.1-0.08,0.162-0.071
	c0.027,0.018,0.061,0.026,0.094,0.024c-0.003,0.033-0.011,0.064-0.023,0.095h0.047c0.396,0.121,0.801,0.208,1.21,0.26
	c0.155-0.128,0.339-0.217,0.535-0.26v0.095c-0.106,0.031-0.192,0.11-0.233,0.213h0.047c0.105,0.067,0.213,0,0.326,0.071
	c-0.025,0-0.05,0.009-0.07,0.024c0.074,0.037,0.127,0.107,0.141,0.189c0.361,0.047,0.719,0.118,1.07,0.213v0.024
	c-0.038,0.029-0.1,0.093-0.07,0.118v0.025c0.049-0.048,0.104-0.088,0.166-0.118v0.071c-0.085,0.109-0.178,0.212-0.279,0.307
	c-0.015-0.021-0.022-0.046-0.022-0.071c0.028-0.018,0.053-0.042,0.069-0.071h-0.023v-0.023H39.7
	c-0.044,0.064-0.076,0.137-0.093,0.213c0.063,0.041,0.099,0.114,0.093,0.189c-0.053,0.064-0.116,0.121-0.187,0.165v0.142
	c-0.1,0.128-0.227,0.233-0.371,0.307c0.034,0.06,0.114,0.132,0.14,0.189c0.009,0.078,0.009,0.157,0,0.235
	c0.104,0.09,0.171,0.217,0.186,0.354c-0.064,0.054-0.148,0.079-0.233,0.071c-0.03-0.035-0.07-0.06-0.115-0.071
	c0,0.1-0.066,0.187-0.163,0.213c-0.032-0.06-0.095-0.097-0.163-0.095c-0.024,0.051-0.065,0.092-0.116,0.117
	c-0.095-0.043-0.196-0.066-0.3-0.07c-0.014,0.084-0.079,0.15-0.163,0.165c-0.032,0.17-0.2,0.108-0.256,0.307
	c0,0,0.067,0.031,0.047,0.047h-0.028c-0.025,0.064-0.076,0.116-0.141,0.143l-0.047-0.024c-0.103,0.11-0.196,0.229-0.279,0.355
	c0.033,0.056,0.04,0.014,0.023,0.07c-0.084,0.109-0.154,0.229-0.209,0.354c0.059,0.032,0.087,0.101,0.07,0.166
	c-0.06,0.085-0.1,0.182-0.117,0.284c-0.082,0.01-0.157,0.052-0.209,0.117c-0.027-0.02-0.059-0.035-0.092-0.047v0.047
	c0.018,0.07,0.025,0.142,0.022,0.213c-0.038,0.05-0.085,0.09-0.14,0.119c-0.021,0.015-0.045,0.023-0.07,0.023l-0.023,0.118h-0.117
	c-0.071-0.003-0.143-0.019-0.209-0.047c0.008,0.085-0.018,0.169-0.069,0.235c-0.173,0.092-0.362,0.148-0.558,0.166
	c0.019,0.037,0.019,0.081,0,0.118c-0.158,0.104-0.349,0.146-0.535,0.118v0.047c-0.011,0.039-0.019,0.078-0.023,0.118
	c-0.158,0.103-0.352,0.137-0.535,0.095c0.008,0.078-0.018,0.155-0.07,0.213c-0.148,0.082-0.322,0.107-0.488,0.071
	c-0.005,0.065-0.021,0.129-0.046,0.188c-0.149,0.104-0.336,0.139-0.513,0.096c-0.02,0.046-0.035,0.094-0.047,0.142
	c0.029,0.037,0.016,0.013,0,0.048c-0.156,0.105-0.352,0.14-0.535,0.095c0.009,0.077-0.017,0.155-0.069,0.213
	c-0.138,0.071-0.288,0.11-0.442,0.118c-0.002-0.03-0.021-0.057-0.047-0.071c0.008,0.085-0.018,0.169-0.07,0.235
	c-0.153,0.068-0.32,0.102-0.488,0.096l-0.023-0.071h-0.023c-0.018,0.073-0.059,0.14-0.115,0.189
	c-0.155,0.017-0.313,0.009-0.465-0.024c-0.121,0.068-0.263,0.094-0.4,0.071c-0.023-0.007-0.105-0.064-0.141-0.071
	c-0.081,0.007-0.16,0.031-0.232,0.071c-0.18-0.01-0.359-0.033-0.535-0.071v0.071c-0.283,0-0.417-0.064-0.65-0.071v0.071
	c-0.145,0-0.601-0.084-0.629-0.071l-0.022,0.071H28.3c-0.079-0.044-0.166-0.067-0.256-0.071v0.071
	c-0.158,0.004-0.315-0.02-0.465-0.071c-0.147-0.044-0.146,0.049-0.187,0.071c-0.158,0.032-0.323,0.007-0.465-0.071
	c-0.07-0.018-0.145,0.011-0.186,0.071c-0.215,0.023-0.431-0.01-0.628-0.095v0.095c-0.214,0.012-0.428-0.021-0.628-0.095
	c-0.03,0.141-0.235,0.1-0.4,0.095c-0.072-0.061-0.162-0.094-0.256-0.095c-0.029,0.139-0.215,0.1-0.372,0.095
	c-0.083-0.056-0.179-0.089-0.278-0.095v0.095c-0.213-0.001-0.425-0.033-0.629-0.095c-0.029,0.141-0.234,0.1-0.4,0.095
	c-0.068-0.064-0.16-0.099-0.256-0.095c0.001,0.025-0.008,0.051-0.022,0.07c-0.113,0.033-0.232,0.041-0.349,0.024
	c-0.076-0.069-0.178-0.104-0.279-0.095v0.095c-0.213-0.01-0.423-0.042-0.628-0.095c0,0.025-0.008,0.051-0.023,0.07
	c-0.12,0.034-0.247,0.043-0.372,0.024c-0.071-0.061-0.162-0.095-0.256-0.095c-0.029,0.139-0.215,0.1-0.372,0.095
	c-0.069-0.063-0.164-0.089-0.256-0.071c-0.015,0.021-0.023,0.046-0.023,0.071c-0.213,0.012-0.427-0.021-0.628-0.095
	c-0.03,0.141-0.235,0.1-0.4,0.095c-0.066-0.068-0.164-0.095-0.256-0.071v0.071c-0.286,0-0.408-0.066-0.652-0.071v0.071
	c-0.148,0-0.6-0.087-0.628-0.071l-0.023,0.071h-0.368c-0.079-0.044-0.166-0.067-0.256-0.071v0.071h-0.4
	c-0.029-0.026-0.061-0.05-0.093-0.071c-0.174,0.047-0.354,0.07-0.535,0.071c-0.07-0.062-0.165-0.087-0.256-0.071l-0.023,0.071
	h-0.368c-0.08-0.04-0.167-0.063-0.256-0.071v0.071c-0.173-0.001-0.345-0.024-0.512-0.071c-0.083,0.004-0.163,0.027-0.233,0.071
	c-0.18-0.007-0.359-0.03-0.535-0.071v0.071l-0.372,0.024c-0.084-0.055-0.18-0.087-0.279-0.096c0,0.025-0.008,0.051-0.023,0.071
	c-0.113,0.032-0.232,0.041-0.349,0.024c-0.067-0.068-0.161-0.104-0.256-0.096v0.024h-0.024v0.071
	c-0.219-0.02-0.436-0.051-0.651-0.096c0,0.025-0.008,0.051-0.023,0.071c-0.105,0.031-0.217,0.04-0.326,0.024
	c-0.089-0.078-0.208-0.113-0.326-0.096c0,0.025-0.008,0.051-0.023,0.071c-0.097,0.03-0.2,0.038-0.3,0.024
	c-0.09-0.076-0.208-0.111-0.326-0.096c-0.018,0.029-0.025,0.063-0.023,0.096c-0.222-0.007-0.441-0.047-0.651-0.119
	c-0.013,0.156-0.121,0.131-0.279,0.119c-0.1-0.061-0.211-0.101-0.326-0.119c-0.042,0.03-0.073,0.071-0.093,0.119H9.005
	c-0.103-0.072-0.224-0.113-0.349-0.119c-0.075,0.03-0.062,0.021-0.07,0.119c-0.252,0-0.3-0.086-0.535-0.096
	c-0.019-0.077,0.011-0.036-0.047-0.07c-0.061,0.119-0.197,0.179-0.326,0.142C7.6,25.381,7.503,25.332,7.4,25.311
	c-0.035-0.057,0.029-0.056-0.047-0.095c-0.05,0.044-0.097,0.092-0.14,0.142c-0.191-0.072-0.354-0.205-0.465-0.377
	c-0.058,0.023-0.107,0.064-0.14,0.117c-0.186-0.084-0.34-0.224-0.442-0.399c-0.048,0.054-0.114,0.087-0.186,0.095
	c-0.177-0.064-0.326-0.19-0.419-0.355c-0.059,0.052-0.132,0.084-0.209,0.096c-0.1-0.1-0.245-0.159-0.349-0.26
	c-0.079-0.077,0.056-0.047-0.047-0.118c-0.2,0.182-0.221,0.077-0.372-0.071c-0.063-0.028-0.125-0.061-0.184-0.097
	c-0.01-0.039-0.018-0.079-0.023-0.118c-0.046,0.056-0.114,0.09-0.186,0.095c-0.138-0.079-0.271-0.166-0.4-0.26l0.023-0.095H3.77
	c-0.057,0.054-0.131,0.087-0.209,0.095c-0.048-0.029-0.095-0.062-0.14-0.095c-0.012-0.033-0.028-0.065-0.047-0.096
	c-0.056-0.019-0.111-0.042-0.163-0.07c-0.01-0.039-0.017-0.078-0.023-0.118c-0.056,0.027-0.104,0.067-0.14,0.118
	c-0.173-0.094-0.317-0.232-0.419-0.4c0.015-0.021,0.023-0.045,0.023-0.07H2.629C2.561,22.99,2.49,22.998,2.42,22.996
	c-0.103-0.158-0.174-0.335-0.209-0.52c0.03-0.004,0.056-0.021,0.07-0.048c-0.08-0.003-0.155-0.037-0.209-0.095
	c-0.063-0.175-0.071-0.365-0.023-0.544c-0.064-0.072-0.16-0.107-0.256-0.095c-0.052,0.042-0.12,0.059-0.186,0.047v-0.071
	c-0.161-0.06-0.301-0.167-0.4-0.307c-0.015-0.021-0.023-0.046-0.023-0.071H1.117c-0.006-0.122,0.018-0.244,0.07-0.355
	c0.193-0.205,0.422-0.375,0.675-0.5c-0.116-0.275-0.171-0.572-0.162-0.871H1.606c-0.051-0.022-0.107-0.031-0.163-0.023v-0.117
	c0.08-0.005,0.158-0.021,0.233-0.047c0.028-0.237,0.012-0.478-0.047-0.709c-0.042-0.072-0.098-0.136-0.163-0.189
	c-0.277,0.166-0.587,0.271-0.908,0.307c-0.022,0.135-0.045,0.255-0.209,0.26c-0.06-0.022-0.126-0.022-0.186,0V19
	c0.063,0.009,0.126-0.018,0.163-0.071c0.037-0.057,0.063-0.121,0.074-0.188C0.179,18.646,0.026,18.439,0,18.2
	c0.392-0.337,0.662-0.794,0.768-1.3v-0.311c-0.029-0.28-0.084-0.557-0.163-0.827C0.716,15.623,0.85,15.502,1,15.407
	c0.074,0.029,0.153,0.045,0.233,0.047c-0.024,0.079,0.003,0.164,0.07,0.213c0.031-0.031,0.073-0.048,0.116-0.047v0.024h0.024
	c-0.032,0.1-0.123,0.214,0,0.284c0.076-0.192,0.138-0.39,0.186-0.591l0.14-0.024v-0.142c-0.057-0.031-0.016,0.01-0.047-0.047
	c0.057-0.031,0.016,0.01,0.047-0.047c0.121,0.042,0.251,0.042,0.372,0c-0.026,0.082-0.008,0.17,0.047,0.236
	c0.13,0.036,0.267,0.044,0.4,0.024c0-0.316-0.022-0.738-0.023-0.945h0.041c0.419-0.133,0.863-0.174,1.3-0.118
	c1.125-0.082,2.256-0.042,3.374,0.118c0.002,0.018,0.01,0.034,0.022,0.047c-0.044,0.194-0.061,0.393-0.047,0.591h0.725v-0.355
	c0.018-0.002,0.035-0.011,0.047-0.024c0.018,0.002,0.035,0.011,0.047,0.024c0.06,0.108,0.076,0.235,0.047,0.355
	c0.48,0.035,0.964,0.026,1.443-0.024c-0.007-0.122,0.017-0.244,0.07-0.355c0.09,0.017,0.177,0.049,0.256,0.095
	c0.124-0.001,0.249-0.009,0.372-0.024V14.58H10.4l0.023,0.142H10.7c0.014,0.038,0.021,0.078,0.023,0.118l0.116,0.024v0.165h2.048
	v-0.354c0.018-0.002,0.034-0.011,0.047-0.024c0.018,0.003,0.034,0.011,0.046,0.024c0.06,0.108,0.076,0.235,0.046,0.355h1.955
	c0.009-0.005,0.037-0.089,0.046-0.095h0.559c0.03,0.058,0.046,0.123,0.046,0.189h0.628c0.095,0.175,0.297,0.262,0.489,0.213v-0.071
	c0.095,0,0.3-0.024,0.3-0.024l0.07,0.024l-0.023,0.071h0.14l0.023-0.307h1.466v-0.048c0.021-0.044,0.029-0.093,0.023-0.142h0.14
	v0.071h0.07c0.021,0.037,0.037,0.077,0.047,0.118c-0.015,0.021-0.023,0.045-0.023,0.071h0.093c0.053-0.198,0.131-0.389,0.233-0.567
	c-0.052-0.056-0.025-0.008-0.023-0.095c0.009,0.006,0.018,0.014,0.023,0.024c0.249,0.201,0.522,0.369,0.814,0.5v-0.098h0.116v0.142
	h0.047c0.105,0.032,0.217,0.04,0.326,0.024c-0.003-0.034,0.005-0.067,0.022-0.095v0.095h0.07v-0.19
	c-0.067-0.019-0.139-0.027-0.209-0.024v-0.07c0.107-0.095,0.208-0.197,0.3-0.307c0.421-0.009,0.727-0.153,1.188-0.142
	c0.185,0.057,0.385,0.04,0.558-0.047h-0.085c-0.375-0.157-0.765-0.276-1.163-0.355c-1.165-0.4-2.458-0.637-3.7-0.993
	c-0.456-0.131-0.949-0.167-1.4-0.284c-0.184,0.001-0.366-0.039-0.532-0.118h0.116l2.42,0.5c0.836,0.24,1.731,0.422,2.537,0.685
	c0.192,0.063,0.36,0.053,0.558,0.118c0.374,0.123,0.769,0.222,1.163,0.354c0.302,0.129,0.625,0.201,0.954,0.213
	c0.009,0.06-0.015,0.037,0.069,0.047c0.42,0.056,0.846,0.032,1.256-0.071c0,0.216,0.101,0.244,0.117,0.449
	c-0.01,0.006-0.018,0.014-0.023,0.024c-0.077,0-0.1-0.033-0.141,0.047c-0.012,0.013-0.02,0.029-0.022,0.047
	c0.093,0.046,0.2,0.055,0.3,0.024c0.066,0.045,0.02,0.081,0.141,0.095C25.121,14.978,25.131,14.921,25.131,14.864z M30.691,12.713
	h0.048v0.024C30.721,12.734,30.705,12.726,30.691,12.713z M29.575,14.249c0.015,0.021,0.022,0.045,0.022,0.071h-0.022V14.249z
	 M29.366,14.273c0.025,0,0.05,0.008,0.069,0.024C29.41,14.297,29.386,14.289,29.366,14.273z M38.906,17.937
	c0.025,0.035,0.025,0.083,0,0.118V17.937L38.906,17.937z"/>
</svg>
