<svg xmlns="http://www.w3.org/2000/svg" width="80" height="40" viewBox="0 0 80 40">
  <defs>
    <style>
      .cls-1 {
        fill: #fff;
        fill-rule: evenodd;
      }
    </style>
  </defs>
  <path id="ussr_bmo_ico" class="cls-1" d="M50.456,8h0.205a0.718,0.718,0,0,0,.1.462H50.687v0.18c0.083,0.021.039-.013,0.077,0.051H50.687V9.078c0.083,0.021.039-.013,0.077,0.051H50.687V9.54H50.97V9.668H50.841V9.694c0.075,0.052.076,0.066,0.051,0.154H50.97A0.435,0.435,0,0,0,51,10H50.687v8.573h0.385a0.463,0.463,0,0,1,.077-0.1c-0.023-.116-0.027-0.089-0.051-0.205a0.469,0.469,0,0,1,.154-0.026v0.026a2.448,2.448,0,0,0,0,.462h0.283v0.051a1.361,1.361,0,0,0,.154.744h-0.18c0,0.034-.066.651-0.077,0.667V19.525H51.278a0.847,0.847,0,0,1-.848.8,10.523,10.523,0,0,0,.026,1.181,0.8,0.8,0,0,1,.231,0c0.065,0.038.04,0.011,0.051,0.1a0.948,0.948,0,0,1-.283.026l-0.026.282h1.259v0.1h0.077V24.3h0.051V22.477a0.267,0.267,0,0,0,.077-0.128c0.042,0.566.051,1.3,0.051,1.951h0.411a3.544,3.544,0,0,0-.154-1h0.1c0.126,0.079.306,0.059,0.437,0.128a0.978,0.978,0,0,1,.437.873h0.308c-0.018-.277-0.1-0.325-0.1-0.616H53.41v0.051a1.294,1.294,0,0,1,.154.565h1.541v-1.36a1.183,1.183,0,0,1,.051-0.59v0.128a0.124,0.124,0,0,1,.077.026,1.22,1.22,0,0,0-.026.462v1.1h0.026V24.043c0.066-.1.067-0.235,0.129-0.334a1.017,1.017,0,0,1,.822-0.411l-0.154,1H58.78c0-.459,0-0.967-0.026-1.386h0.077c-0.01-.274-0.074-0.478-0.077-0.8h0.077l0.026-.385a0.411,0.411,0,0,0,.437-0.154c0.367,0,.356.15,0.719,0.154v-0.18a0.844,0.844,0,0,0,.257-0.642,1.261,1.261,0,0,1,.129-0.334,0.3,0.3,0,0,0,.154-0.154V19.7h1.824c0.114,0.054.005,0.138,0.283,0.154a0.362,0.362,0,0,1,.308-0.051c0.06,0.131,0,.1-0.051.231a0.363,0.363,0,0,1,.18.334,0.268,0.268,0,0,0-.051.128,0.917,0.917,0,0,1,.129.257,0.512,0.512,0,0,1,.206.051,0.339,0.339,0,0,1,.051.205,0.271,0.271,0,0,0-.077.282,0.752,0.752,0,0,1,.385.385l0.026,0.1h0.129a0.286,0.286,0,0,1,0,.154h0.925v0.077h0.051a2.059,2.059,0,0,0,.488.026,5.706,5.706,0,0,0,1.028.026c1.354,0,2.7-.045,3.931-0.051v0.334c-0.773-.054-1.514-0.077-2.389-0.077a6.619,6.619,0,0,0-1.207.026H66.256a8.657,8.657,0,0,0-1.439.026V22.4H64.689v0.077a2.762,2.762,0,0,1,.539,0c0.065,0.037.029-.006,0.051,0.077a0.131,0.131,0,0,1,.026.077,0.489,0.489,0,0,0-.077.1,2.817,2.817,0,0,0-.488-0.026v1.72h0.334v0.257h1.31V24.479h0.051a0.173,0.173,0,0,0,.1.026,0.874,0.874,0,0,0-.026-0.205h0.334v0.051a0.222,0.222,0,0,0-.026.128h0.462a0.776,0.776,0,0,0-.026-0.18h0.334v0.051a0.222,0.222,0,0,0-.026.128,0.437,0.437,0,0,0,.154-0.026v0.231a0.271,0.271,0,0,0,.154-0.026c0.181-.053.217-0.159,0.206-0.411l0.077-.462a1.092,1.092,0,0,1,.9-0.59V23.35a4.752,4.752,0,0,0-.154.873h0.18a2.215,2.215,0,0,1,.617-0.077,6.464,6.464,0,0,1,1.362-.1,3.539,3.539,0,0,0-.026-0.436H70.829V23.555H71.06l0.026,0.077c0.033,0.054.018,0.2,0.051,0.257a0.624,0.624,0,0,0,.283.026c0.065-.05.042-0.034,0.128-0.026V23.683H71.291V23.632a0.132,0.132,0,0,1-.026-0.077H71.137l-0.026-.077a0.47,0.47,0,0,1,.154-0.026V23.3h1.1v0.154H72.5v0.026h0.026v0.051H72.473a0.173,0.173,0,0,1-.1.026l-0.026.128H72.087v0.308c1.9,0.01,3.722-.221,5.575-0.231a1.23,1.23,0,0,0-.051-0.436h0.514v0.051a0.774,0.774,0,0,0-.026.334c0.407,0,.742-0.088,1.079-0.1V20.68a5.165,5.165,0,0,0-.051-1.386h0.334v0.051a3.748,3.748,0,0,0-.051,1.052v3.183L80,23.555v0.026a6.262,6.262,0,0,0-1.028,1.668c-0.267.512-.532,1-0.771,1.566a5.335,5.335,0,0,0-.463,1.129c0.152,0.111.42,0.089,0.565,0.205a4.408,4.408,0,0,0-.771.18,3,3,0,0,1-.385.8c-0.2.325-.345,0.629-0.565,0.924l-0.283.257a4.966,4.966,0,0,1-1.644,1.078c-0.087.038-.186,0.122-0.283,0.154a15.419,15.419,0,0,1-4.111.257l-6.268.077-3.571.026a8.864,8.864,0,0,1-1.644.026H58.317a8.751,8.751,0,0,1-1.619.026H56.236a7.945,7.945,0,0,1-1.464.026h-2.9C46.162,31.974,40.354,32,34.6,32l-15.9-.026c-0.429-.093-1,0.076-1.464-0.026-1.461-.324-3.092-0.283-4.547-0.616l-1-.1c-0.629-.142-1.325-0.109-1.978-0.257a4.039,4.039,0,0,0-1.618-.128L7.6,30.871c-0.532.118-1.164,0.088-1.7,0.205a2.942,2.942,0,0,0-1.079.18l-0.1.513A0.093,0.093,0,0,1,4.7,31.718a0.561,0.561,0,0,1-.1-0.231,0.073,0.073,0,0,0-.026.026c-0.033.048-.042,0.135-0.077,0.18V31.641c-0.128-.183-0.017-0.344-0.36-0.334a0.827,0.827,0,0,0,.051.513H4.11c-0.168-.192-0.323-0.071-0.231-0.488a0.757,0.757,0,0,1-.462-0.077H3.443a0.7,0.7,0,0,1,.462-0.18,2.217,2.217,0,0,1-.154-0.8,0.314,0.314,0,0,1,.231-0.026,1.765,1.765,0,0,1,.051.488,0.131,0.131,0,0,0-.026.077H4.033a1.916,1.916,0,0,0,.231-0.154A1.014,1.014,0,0,0,4.316,30.2a4.461,4.461,0,0,1-1.053-.154,1.287,1.287,0,0,0-.385-0.026,1.089,1.089,0,0,1-.206.488,0.452,0.452,0,0,1-.308.051V30.64a1.613,1.613,0,0,1,.334.026,4,4,0,0,1,.026,1.052,1.262,1.262,0,0,1-.617.077c-0.322-.19-1.5-0.007-1.618-0.334A1.88,1.88,0,0,1,.462,31a3.9,3.9,0,0,1,0-1.36,3.846,3.846,0,0,1,.873-0.1v-3.9a5.233,5.233,0,0,0-1.259.051,0.272,0.272,0,0,1-.051-0.128c0.066-.092.013-0.071-0.026-0.18a1.819,1.819,0,0,1,1.336-.693V24.428c-0.065-.01-0.041.015-0.051-0.077a0.214,0.214,0,0,0,.051-0.231c-0.017-.052-0.086-0.14-0.1-0.205V23.529c-0.042-.176-0.036-0.3-0.077-0.488H1.028a0.173,0.173,0,0,1-.1.026V22.708a2.128,2.128,0,0,1-.642-0.1V22.143a3.429,3.429,0,0,0,.026-1.232H0.591a1.087,1.087,0,0,1,.437-0.026c-0.086-.869-0.215-1.9-0.308-2.67l0.257-.026v0.051A1.721,1.721,0,0,0,1,18.883c0.144,0.63.1,1.361,0.231,2H1.618a1.111,1.111,0,0,0,.437-0.026c0.326-.012.751-0.006,1.079,0,0,0.579.051,1.036,0.077,1.591A6.165,6.165,0,0,0,4.419,22.4c0.249-.054.579,0.021,0.8-0.026,0.239-.052.568,0,0.745-0.051l0.154,0.026a3.7,3.7,0,0,0,.745-0.026v0.154h-0.1V22.5H6.782a0.131,0.131,0,0,0,.077.026,0.124,0.124,0,0,1-.026.077,1.523,1.523,0,0,0-.771-0.1v1.129l0.873-.051c0-.781,0-1.43,0-2.182H7.065l0.026,0.924a0.492,0.492,0,0,1,.18.051c0,0.823.021,1.509,0.026,2.284a2.317,2.317,0,0,0,.591.026H9.171a2.071,2.071,0,0,0,0-.385,0.47,0.47,0,0,0-.154-0.026l-0.18-1.181c0.947,0.1.848,0.549,1,1.412h0.283A0.874,0.874,0,0,0,10.1,24.3H10.43c0,0.122.054,0.085,0.231,0.077V24.3a1.335,1.335,0,0,1,.54-0.051V24.3H10.739l-0.026.051a0.073,0.073,0,0,0-.026.026h0.9V24.351h0.026a2.039,2.039,0,0,1,.128-0.539c0.095-.337.131-0.664,0.205-1a0.594,0.594,0,0,1-.128-0.077c-0.069.122-.149,0.062-0.257,0.026a0.842,0.842,0,0,1-.026.359c0-.132-0.033-0.394-0.026-0.411,0.037-.065-0.006-0.029.077-0.051,0.005,0.036-.021-0.01-0.026.026-0.049.02,0.051,0.026,0.051,0.026V22.682a0.184,0.184,0,0,0,.051-0.1H11.612a4.206,4.206,0,0,1-1.053.18,5.044,5.044,0,0,1-1.413.077L8.2,22.811a3.244,3.244,0,0,0-.848-0.1V22.631a9.6,9.6,0,0,1,1.285.154c0.13,0.019.269-.048,0.411-0.026a2.735,2.735,0,0,0,1-.026,2.331,2.331,0,0,1,.411,0l1.259-.231a0.48,0.48,0,0,0,.1-0.308,0.125,0.125,0,0,1-.077-0.026H11.715V22.092h0.128q0.013-.205.026-0.411a1.136,1.136,0,0,0,.36-0.257,0.393,0.393,0,0,0,.077-0.1H12.075a0.173,0.173,0,0,0-.1-0.026V21.142a1.093,1.093,0,0,0,.514-0.077H11.1a0.493,0.493,0,0,0-.36-0.051H5.549V20.783H11.1a3.793,3.793,0,0,1,1.156-.051V20.655H12.177V20.449a13.387,13.387,0,0,1,2.492-.051,0.125,0.125,0,0,0,.026.077,0.931,0.931,0,0,1,.385-0.026c0.053,0.247.24,0.22,0.54,0.205v0.462H14.978a1.567,1.567,0,0,1,0,.257H14.695c-0.022-.022.031-0.062-0.026-0.051a0.782,0.782,0,0,1-.462.077,1.307,1.307,0,0,0-.617-0.077v0.026a0.183,0.183,0,0,1,.051.1,0.64,0.64,0,0,1,.437.231,1.328,1.328,0,0,1-.822.334l0.026,0.205H13.41v0.051H13.282l-0.026.231a0.4,0.4,0,0,1-.128.026L13.1,22.3H12.871V22.58h-0.1a11.307,11.307,0,0,0,.283,1.643h0.257l-0.026.077H15.8V24.248a0.3,0.3,0,0,1-.051-0.077c-0.1,0-.141.014-0.18-0.051l-0.257-1.566c1.009,0.056,1.353.646,1.336,1.745H17.11a7,7,0,0,1,.077-1.951c0.031,0.518.026,1.31,0.026,1.951H19.4c0-.626-0.021-1.287-0.026-1.874H19.5a0.125,0.125,0,0,1,.026-0.077,0.43,0.43,0,0,1,.385-0.1V22.3a1.286,1.286,0,0,0-.283.026,0.36,0.36,0,0,0-.026.1h0.026a0.982,0.982,0,0,1,.462,0,9.384,9.384,0,0,0,1.079-.051V22.4h0.026a1.578,1.578,0,0,0-.026.462h0.617a0.873,0.873,0,0,1,.077-0.513c0.012,0.161.051,0.3,0.051,0.513h3.057a0.873,0.873,0,0,1,.077-0.513c0.012,0.161.051,0.3,0.051,0.513a7.455,7.455,0,0,1,1.593.051l0.128,0.18a1.738,1.738,0,0,0,.026.257V23.324c0.079-.1.105-0.231,0.18-0.334A1.567,1.567,0,0,1,28.08,22.5a4.236,4.236,0,0,1-.154.95c-0.06.25-.024,0.5-0.1,0.719a0.876,0.876,0,0,0-.206.026l-0.026.1h0.848a0.644,0.644,0,0,1,.54-0.1,0.324,0.324,0,0,1-.026.1h0.822V22.965a1.19,1.19,0,0,1,.077-0.616c0.042,0.566.051,1.3,0.051,1.951H30.88l0.257-1.206h0.1v-1.1H31.163v-0.1H31.24V21.553a2.165,2.165,0,0,1,.206-0.128V21.4c-0.218-.018-0.1-0.079-0.206-0.128H30.8a5.853,5.853,0,0,1-.026,1.335V21.271H30.186a0.4,0.4,0,0,1-.026-0.128,0.227,0.227,0,0,0,.077-0.077H28.311a0.131,0.131,0,0,0-.077-0.026V20.757a0.856,0.856,0,0,1,.231-0.051V20.6h0.1v0.1h2.209a1.7,1.7,0,0,1,.026-0.642v0.642h0.54V20.552h0.051c0.005-.013,0-0.571,0-0.667a1.213,1.213,0,0,1,.026-0.462v0.513H31.83v0.385c0.447,0,.775,0,1.182-0.026,0.01-.144.1-0.247,0.1-0.359,0.033-.047-0.047-0.016-0.051-0.026V19.7a0.969,0.969,0,0,0,.334-0.051v0.231H33.372a0.746,0.746,0,0,0-.206-0.051,1.749,1.749,0,0,0,.026.565,0.519,0.519,0,0,0-.18.026v0.026h0.206a0.094,0.094,0,0,1,.051-0.026,0.214,0.214,0,0,1,.026-0.128v0.128h0.257a0.423,0.423,0,0,1,.257-0.334,1.616,1.616,0,0,1,.719-0.051v0.128a5.9,5.9,0,0,0-.694.026l-0.1.128a0.475,0.475,0,0,0,0,.411,0.79,0.79,0,0,0,.54.154v0.1a0.682,0.682,0,0,1-.642-0.18l-0.077-.231H33.038v0.128h0.411a1.65,1.65,0,0,1,0,.411h-0.18c-0.005.036,0.021-.01,0.026,0.026,0.049,0.02-.051.026-0.051,0.026a1.559,1.559,0,0,0-.591-0.026v0.1a1.378,1.378,0,0,0,.385.026V21.4l-0.334.026v0.051c0.09,0.035.079,0.059,0.077,0.18l-0.077.026a0.131,0.131,0,0,1-.077.026,0.4,0.4,0,0,0-.437-0.282,0.132,0.132,0,0,0-.077-0.026V21.63a1.066,1.066,0,0,1,.36.334H32.421c-0.151-.158-0.357-0.258-0.514-0.411a0.378,0.378,0,0,0-.308.334h0.077v0.1H31.6v1.1h0.1c0.024,0.422.229,0.775,0.257,1.206h1.8a8.415,8.415,0,0,1,.822-1.1V22.477c0.075-.048.039-0.054,0.026-0.154a1.62,1.62,0,0,1,.54.154,3.114,3.114,0,0,1,.719.1c0.032,0.008.194,0.076,0.206,0.077a8.949,8.949,0,0,1,.9.1l0.129-.026a7.343,7.343,0,0,0,1.747,0V21.681a0.409,0.409,0,0,1-.206-0.154v-2h0.026c0.14-.4,1.115-0.266,1.644-0.257V18.421H40.231V18.344h0.154V17.908a0.166,0.166,0,0,1-.1-0.026h0.051c0.026-.037-0.026-0.051-0.026-0.051a1.063,1.063,0,0,1,.026-0.488,0.335,0.335,0,0,0,.257-0.334h0.128a0.124,0.124,0,0,0,.026.077,0.131,0.131,0,0,1,.077-0.026,2.517,2.517,0,0,0,.206.359c0.056,0.2-.049.409,0,0.488H40.951v0.436H41.1v0.077H41.028v0.847h1.516V18.729H41.67V17.7h3.776V17.292H44.83a0.447,0.447,0,0,1,.051-0.128H44.8V17.087a3.3,3.3,0,0,1-.385.026,3.1,3.1,0,0,1,0-.359c0.2,0,.654-0.141.719-0.1a0.222,0.222,0,0,1,.026.128h0.128V16.727a0.167,0.167,0,0,0,0-.154h0.591a0.341,0.341,0,0,0,.18.026,0.782,0.782,0,0,0,.026.18h0.026a0.223,0.223,0,0,1,.1-0.077c0.011,0.067.041,0.056,0.18,0.051a0.615,0.615,0,0,0,.462-0.026,7.363,7.363,0,0,0,1.773.077V16.5h0.077a0.472,0.472,0,0,1-.051.231c0.063,0.031.04,0.045,0.1,0.077a1.243,1.243,0,0,0,.668-0.026,0.555,0.555,0,0,1,.026.18,0.473,0.473,0,0,1-.154.026,1.942,1.942,0,0,0-.873-0.026c0.013,0.057.029,0.051,0,.1a1.144,1.144,0,0,1-.437.026H46.911v0.282h-0.18V17.292H46.012a1.344,1.344,0,0,1-.026.411h1.182v0.59h0.077V17.882h0.411v0.411h0.077v0.436h0.411V18.19c0.229-.01.421,0,0.668,0a0.123,0.123,0,0,0-.026-0.077,0.339,0.339,0,0,0-.18-0.026V17.549h0.257V17.472a0.455,0.455,0,0,1,.257-0.051,1.027,1.027,0,0,1,.257,0V17.5h0.051v0.051H49.377a2.394,2.394,0,0,0,.026.59c-0.05.085-.093,0.082-0.231,0.077V18.4a0.739,0.739,0,0,1,.257.077V18.5H49.4a0.5,0.5,0,0,1-.1.051v0.026h0.129v0.154L49.66,18.7V18.575h0.334c0.06-.039-0.028-0.075.077-0.077a0.13,0.13,0,0,1,.026.077H50.43V17.138H50.3V17.087H50.43a12.867,12.867,0,0,1,0-1.489,3.5,3.5,0,0,0-.051-0.693H50.43c0.093-.221-0.065-0.692,0-0.847a4.446,4.446,0,0,0-.051-0.847,1.468,1.468,0,0,0,.051-0.719H50.379a0.089,0.089,0,0,1,.051-0.128,1.683,1.683,0,0,0-.051-0.744A3.617,3.617,0,0,0,50.43,10.8a4.216,4.216,0,0,1,0-.693V9.951H50.379a0.089,0.089,0,0,1,.051-0.128V9.129H50.353V9.078H50.43V8.95A0.18,0.18,0,0,1,50.3,8.821a0.219,0.219,0,0,0,.128-0.128c-0.083-.021-0.039.013-0.077-0.051H50.43V8.462a0.125,0.125,0,0,1-.077-0.026A0.53,0.53,0,0,0,50.456,8Zm1,12.192a0.173,0.173,0,0,1,0,.18v-0.18ZM32.524,22.015h0.051v0.026A0.088,0.088,0,0,1,32.524,22.015Z"/>
</svg>
