<?xml version="1.0" encoding="utf-8"?>
<!-- Generator: Adobe Illustrator 16.0.0, SVG Export Plug-In . SVG Version: 6.00 Build 0)  -->
<!DOCTYPE svg PUBLIC "-//W3C//DTD SVG 1.1//EN" "http://www.w3.org/Graphics/SVG/1.1/DTD/svg11.dtd">
<svg version="1.1" id="Layer_1" xmlns="http://www.w3.org/2000/svg" xmlns:xlink="http://www.w3.org/1999/xlink" x="0px" y="0px"
	 width="40px" height="40px" viewBox="0 0 40 40" enable-background="new 0 0 40 40" xml:space="preserve">
<path id="Color_Fill_1" fill="#FFFFFF" d="M25.286,11.531c0.11,0.036,0.226,0.052,0.341,0.048c0.001,0.128,0.018,0.256,0.049,0.381
	h0.146v0.524c1.023-0.041,2.049-0.007,3.068,0.1c-0.004,0.038-0.021,0.073-0.049,0.1c-0.213,0.128-0.345,0.027-0.439,0.286h-0.047
	v0.048h0.195c0.111,0.031,0.229,0.031,0.342,0c0.019,0.12-0.028,0.075,0.146,0.1v0.381c0.175-0.051,0.36-0.051,0.536,0v0.1
	l2.1,0.048c-0.017,0.274,0.018,0.548,0.1,0.81c-0.285,0.059-0.215,0.44-0.194,0.762c-0.688-0.017-1.084,0-1.754,0h-0.787
	c-0.104,0.103-0.173,0.236-0.195,0.381c-0.157,0.039-0.075-0.023-0.146,0.1h0.049c0.424,0.253,1.471-0.149,1.8-0.048
	c0.714,0.221,1.448,0.364,2.192,0.429c0.02,0.143,0.02,0.287,0,0.429h0.244c0.107-0.051,0.223-0.084,0.341-0.1
	c-0.068,0.808,0.718,0.791,1.655,0.762c-0.005,0.066-0.021,0.131-0.049,0.191c-0.322-0.044-0.648-0.06-0.974-0.048v0.1
	c0.12,0.062,0.033-0.02,0.101,0.1c-0.085-0.009-0.17,0.007-0.244,0.048c0.146,0.3,0.244,0.622,0.291,0.952
	c0.139-0.014,0.276,0.021,0.391,0.1c-0.02-0.181,0.016-0.363,0.1-0.524c-0.199,0-0.115,0.078-0.195-0.048h0.342
	c0.002-0.082,0.018-0.162,0.049-0.238h0.049v0.048c0.125,0.255-0.023,0.447,0.536,0.429c0.17-0.371,0.577-0.57,0.974-0.476
	c0.026,0.061,0.043,0.125,0.049,0.191c-0.104,0.223-0.154,0.468-0.146,0.714c0.612,0.096,1.234,0.112,1.851,0.048
	c0.125,0.05,0.266,0.05,0.391,0c0.615,0.184,1.147,0.574,1.508,1.105c-0.035,0.073-0.085,0.138-0.146,0.19
	c-0.314,0.039-0.615,0.153-0.877,0.334c0.76,0.586,0.396,2.258-0.049,2.856c-0.526,0.511-1.135,0.929-1.8,1.237
	c-0.719,0.465-1.444,0.92-2.192,1.382c-0.203,0.17-0.414,0.329-0.634,0.476c-0.571,0.155-1.165,0.204-1.754,0.143H6.236
	c-0.745-0.249-1.452-0.602-2.1-1.047c-0.536-0.321-1.109-0.487-1.651-0.805c-0.417-0.288-0.857-0.543-1.315-0.762
	c-0.176,0.035-0.356,0.051-0.536,0.048c-0.209-0.175-0.27-0.472-0.146-0.714c-0.316-0.459-0.423-1.03-0.293-1.572
	c0.22-0.447,0.352-0.932,0.39-1.428H0.536c-0.081,0.109-0.206,0.179-0.341,0.189C0.045,20.186-0.024,19.93,0,19.674h0.1
	c0.263-0.104,0.548-0.139,0.828-0.1c-0.001-0.317,0.083-0.628,0.244-0.9c0.116-0.129,0.214-0.273,0.292-0.429
	c-0.003-0.164,0.031-0.327,0.1-0.476C2.317,17.285,3.138,16.916,4,16.674c-0.004-0.163-0.039-0.324-0.1-0.476H4
	c0.032,0.126,0.097,0.241,0.19,0.333c0.964-0.206,1.517-0.879,2.68-0.9c0.405,0.355,0.828,0.689,1.267,1
	c0.337-0.063,0.681-0.079,1.023-0.048v-0.052c-0.208-0.046-0.421-0.063-0.633-0.048v-0.052l-0.1,0.048v-0.048
	c-0.027-0.027-0.044-0.062-0.049-0.1c-0.016-0.268,0.052-0.535,0.195-0.762c0.479-0.104,0.972-0.138,1.462-0.1l0.049,0.238h0.049
	c-0.009-0.083,0.008-0.166,0.049-0.238c0.608,0.13,1.232,0.164,1.851,0.1h4.872c0.272,0,1.579-0.027,1.608,0
	c0.031-0.041,0.048-0.091,0.049-0.143h-2.484c-0.071-0.296-0.12-0.597-0.146-0.9h-1.218v-0.095c0.12-0.062,0.033,0.02,0.1-0.1
	h-1.026v-0.133c0.757,0,1.221,0,1.949,0v-0.1c-0.705-0.473-0.776-1.391-2-1.381v-0.043c-0.027-0.027-0.044-0.062-0.049-0.1
	c0.021-0.01,0.038-0.025,0.051-0.043c1.202,0.076,2.409,0.042,3.604-0.1c0.155-0.03,0.133,0.075,0.195,0.1
	c0.488,0.083,0.989,0.049,1.461-0.1v-0.043c-0.1,0.012-0.201-0.004-0.292-0.048c0.1-0.08,0.155-0.205,0.146-0.333
	c-0.06-0.035-0.11-0.084-0.146-0.143H18.9c0.138,0.107,0.313,0.159,0.487,0.143v-0.143h0.828v0.333h1.559v-0.1
	c-0.026-0.027-0.044-0.062-0.049-0.1h0.342v0.048h0.049c-0.068,0.113-0.083,0.028-0.049,0.143c0.221,0.063,0.453,0.08,0.682,0.048
	v-0.038c-0.057-0.041-0.141-0.094-0.195-0.143h0.049c0.043-0.031,0.094-0.048,0.146-0.048v0.048H22.8
	c-0.012,0.098,0.005,0.197,0.05,0.286v-0.1c0.094-0.116,0.243-0.17,0.39-0.143c0.037,0.124,0.054,0.252,0.049,0.381h0.194
	c-0.049-0.159-0.074-0.233,0.05-0.286V12.15h0.1c0.05,0.172,0.176,0.312,0.341,0.381c0.384-0.097,0.785-0.097,1.17,0V11.96h0.146
	v-0.429H25.286z M23.186,12.531c0.007-0.129-0.01-0.258-0.049-0.381c-0.037,0.004-0.072,0.021-0.1,0.048
	c-0.043,0.108-0.076,0.219-0.1,0.333h0.244H23.186z M22.357,12.388v0.143c0.177,0.044,0.363-0.011,0.487-0.143h-0.481H22.357z
	 M16.073,13.007h0.195c0.048-0.092,0.114-0.173,0.195-0.238v-0.047H14.86v0.048c0.442,0.3,0.573,1.007,1.072,1.238v-0.81
	c0.056-0.098,0.093,0.042,0.146-0.191H16.073z M27.766,12.721c0.131,0.217,0.252,0.294,0.342,0h-0.336H27.766z M14.957,14.341v0.1
	H15.1v-0.1H14.957z M15.249,14.341v0.1h0.633v-0.1H15.249L15.249,14.341z M8.867,15.241c0.44-0.016,0.881,0.018,1.315,0.1v0.048
	c-0.027,0.027-0.044,0.062-0.049,0.1c-0.039-0.032-0.06-0.121-0.1-0.144c-0.387-0.062-0.782-0.062-1.169,0v-0.1L8.867,15.241z
	 M10.182,15.384c0.027,0.027,0.044,0.063,0.049,0.1h-0.048L10.182,15.384L10.182,15.384z M10.082,16.284
	c-0.242,0.206-0.571,0.277-0.877,0.191v0.056h0.052c0.304,0.068,0.617,0.084,0.926,0.048v-0.048
	c-0.034-0.048-0.063-0.19-0.098-0.238L10.082,16.284z M33.712,17.284v0.1h0.101v-0.1H33.712z M36.346,17.631
	c0.027,0.027,0.045,0.063,0.049,0.1h-0.049V17.631z M34.346,18.107c0.064,0.102,0.064,0.231,0,0.333v-0.338V18.107z M2.728,18.431
	c-0.422,0.357-1.013,0.323-1.218,0.9h0.049v0.048c0.455-0.266,0.948-0.458,1.462-0.571C3.01,18.634,2.894,18.485,2.728,18.431z
	 M34.98,18.669c0.089,0.059,0.204,0.059,0.293,0h-0.291H34.98z M37.904,21.383H38.1c0.054-0.068,0.088-0.151,0.101-0.238h-0.052
	v-0.043h-0.1c-0.056,0.092-0.104,0.188-0.144,0.287L37.904,21.383z M37.758,22.24c0.067,0.12,0.208,0.18,0.342,0.143l0.049-0.1
	c-0.129,0.049-0.273,0.035-0.39-0.038L37.758,22.24z M37.125,22.811c-0.006,0.066-0.021,0.131-0.049,0.191h0.1V22.96
	c0.024-0.103,0.045-0.05-0.05-0.144L37.125,22.811z M0.633,23.479v0.1c0.06,0.035,0.11,0.084,0.146,0.143
	c0.153-0.064-0.031-0.168-0.146-0.238V23.479z M6.723,24.378c-0.01-0.258,0.024-0.515,0.1-0.762H6.48
	c-0.311-0.118-0.648-0.147-0.975-0.085c-0.851,0.027-1.697,0.123-2.533,0.285c0.003,0.098-0.013,0.195-0.049,0.287
	c0.386,0.134,0.75,0.326,1.077,0.57c0.455,0.271,0.948,0.489,1.413,0.715c-0.013-0.847,0.522-1.058,1.311-1L6.723,24.378z
	 M33.715,23.531c-0.163,0.172-0.271,0.017-0.341,0.238c0.068,0.201,0.117,0.408,0.146,0.619c0.371-0.073,0.751,0.075,0.975,0.381
	c0.027,0.186,0.094,0.365,0.195,0.523c0.66-0.526,1.379-0.974,2.144-1.333v-0.048c-0.388-0.08-0.765-0.208-1.12-0.381h-2H33.715z
	 M2.631,23.864c0.051,0.063,0.119,0.113,0.195,0.143v-0.1H2.777v-0.043H2.631z M9.988,24.912c0.058,0.308,0.007,0.626-0.146,0.9
	h0.682V25.77c-0.158-0.258-0.195-0.571-0.1-0.857H9.988z M14.909,24.912c0.043,0.304,0.008,0.613-0.1,0.9H15.4v-0.101
	c-0.154-0.24-0.191-0.538-0.1-0.81h-0.39L14.909,24.912z M20.22,24.912h-0.438v0.1c0.119,0.268,0.081,0.579-0.1,0.81h0.633v-0.101
	C20.165,25.479,20.13,25.183,20.22,24.912L20.22,24.912z M24.702,24.912c0.112,0.299,0.075,0.633-0.101,0.9h0.633V25.77
	c-0.201-0.24-0.24-0.578-0.1-0.857H24.7H24.702z M29.623,24.912c0.03,0.304-0.004,0.61-0.1,0.9h0.633V25.77
	c-0.158-0.258-0.195-0.571-0.1-0.857H29.623L29.623,24.912z M7.26,25.579l-0.146,0.237h1.169v-0.1
	C7.964,25.566,7.606,25.518,7.26,25.579L7.26,25.579z M12.181,25.579c-0.023,0.083-0.057,0.163-0.1,0.237h1.169V25.77
	C12.938,25.553,12.547,25.484,12.181,25.579L12.181,25.579z M17.053,25.579c-0.022,0.083-0.056,0.163-0.1,0.237h1.169v-0.1
	C17.785,25.574,17.415,25.527,17.053,25.579L17.053,25.579z M21.975,25.579c-0.011,0.087-0.045,0.17-0.101,0.237h1.169v-0.1
	c-0.338-0.143-0.707-0.189-1.07-0.138H21.975z M26.895,25.579c-0.041,0.075-0.074,0.155-0.1,0.237h1.169V25.77
	C27.649,25.559,27.262,25.49,26.895,25.579L26.895,25.579z M31.816,25.579c-0.023,0.083-0.057,0.163-0.101,0.237h1.169V25.77
	c-0.053-0.052-0.088-0.119-0.1-0.191h-0.971L31.816,25.579z"/>
</svg>
