<?xml version="1.0" encoding="utf-8"?>
<!-- Generator: Adobe Illustrator 16.0.0, SVG Export Plug-In . SVG Version: 6.00 Build 0)  -->
<!DOCTYPE svg PUBLIC "-//W3C//DTD SVG 1.1//EN" "http://www.w3.org/Graphics/SVG/1.1/DTD/svg11.dtd">
<svg version="1.1" id="Layer_1" xmlns="http://www.w3.org/2000/svg" xmlns:xlink="http://www.w3.org/1999/xlink" x="0px" y="0px"
	 width="39.938px" height="40px" viewBox="0 0 39.938 40" enable-background="new 0 0 39.938 40" xml:space="preserve">
<path id="Color_Fill_1" fill="#FFFFFF" d="M5.677,15.425c0.348-0.048,0.7-0.032,1.042,0.046v0.093h2.85v-0.278h0.05
	c0.054,0.034,0.117,0.05,0.181,0.046c0.069,0.061,0.116,0.142,0.136,0.232h2.034c0.198-0.187,0.454-0.301,0.725-0.325
	c0-0.05,0.016-0.099,0.046-0.139c0.15-0.131,0.318-0.241,0.5-0.325v0.046c-0.092,0.047-0.158,0.132-0.182,0.231h0.136
	c0.035-0.032,0.101-0.061,0.137-0.093c0.187-0.145,0.302-0.364,0.316-0.6c0.05,0.001,0.098-0.015,0.137-0.046
	c0.033-0.056,0.049-0.121,0.045-0.186h-0.042c-0.07,0.111-0.163,0.207-0.272,0.279v-0.096c0.317-0.296,0.439-0.745,0.317-1.161
	c-0.041-0.087-0.057-0.184-0.045-0.279h0.136c-0.025,0.308-0.045,0.852-0.045,1.347h0.045v-0.047
	c0.031-0.058,0.078-0.106,0.136-0.139v0.046c0.059,0.082,0.09,0.179,0.091,0.279c0.131-0.05,0.269-0.082,0.408-0.093
	c-0.012-0.096,0.004-0.192,0.045-0.279v0.279c0.443-0.067,0.896-0.019,1.314,0.139c0.393,0.049,0.79,0.034,1.178-0.046
	c0.378-0.009,0.757,0.007,1.133,0.046c-0.009-0.08,0.007-0.161,0.045-0.232V14.4c0.318,0.005,0.636-0.01,0.951-0.046v0.186
	c-1.089-0.048-2.181-0.001-3.262,0.139v0.187c-0.093,0.065-0.204,0.098-0.317,0.093c-0.13,0.05-0.271,0.065-0.408,0.046v0.325h-0.5
	L14.692,15.1h-0.136v0.046H14.51c0.002,0.13-0.029,0.258-0.091,0.372c0.573,0.016,1.128,0.21,1.586,0.557
	c0.184,0.283,0.413,0.534,0.679,0.743c0.466-0.046,0.935-0.046,1.4,0c1.315,0,2.02-0.007,3.352,0c0.08,0.189,0.111,0.396,0.091,0.6
	c-0.024,0.025-0.04,0.058-0.045,0.093c-0.168-0.024-0.339-0.009-0.5,0.046c1.71,0,3.275,0.046,4.848,0.046l2.14,0.051
	c1.016-0.186,2.052-0.232,3.08-0.139v0.139h0.091c0.236,0.064,0.482,0.08,0.726,0.046h5.391c0.844-0.206,1.715-0.285,2.582-0.232
	v0.046h0.045c0.082,0.337,0.066,0.692-0.045,1.021c-0.509,0.084-1.027,0.1-1.54,0.046c-0.687-0.22-1.411-0.299-2.129-0.232h-3.357
	c-0.589-0.035-1.18-0.02-1.767,0.046v0.139c-1.026,0.096-2.062,0.051-3.076-0.134l-1,0.047c-0.877-0.024-1.754,0.007-2.627,0.093
	l-0.544-0.046h-2.811v0.093c-0.067,0.026-0.864-0.046-1.133-0.046h-2.943v0.046h0.045c0.029,0.129,0.075,0.254,0.136,0.372
	c0.02,0.134-0.095,0.125-0.091,0.325c0.059-0.017,0.121-0.017,0.181,0c-0.04,0.105-0.07,0.214-0.091,0.325
	c-0.218,0.199-0.375,0.457-0.453,0.742c0.91-0.014,1.717-0.08,2.356-0.045c0.199,0.01,1.223,0.278,1.223,0.278l0.136,0.187
	c0.49,0.113,0.992,0.176,1.495,0.186c0.718,0.143,1.444,0.236,2.174,0.279c0.25,0.377,0.595,0.681,1,0.882
	c-0.024,0.024-0.057,0.04-0.091,0.046c-0.245,0.238-0.983,0.4-1.042,0.789c0.022,0.107,0.022,0.218,0,0.324
	c-0.2,0.14-0.3,0.424-0.5,0.558h-0.181c-0.101,0.052-0.211,0.226-0.317,0.278H22.71c-0.101,0.053-0.217,0.217-0.317,0.279
	c-0.263,0.161-0.569,0.186-0.814,0.371c-0.267,0.215-0.556,0.402-0.861,0.557l-0.091-0.047c-0.47,0.141-0.963,0.188-1.45,0.14
	c-0.631,0.081-1.27,0.081-1.9,0c-0.267-0.035-0.556,0.087-0.814,0.047c-0.269-0.054-0.543-0.069-0.815-0.047
	c-0.558,0.034-1.117,0.034-1.676,0c-0.506,0.015-1.077,0.08-1.585,0.047c-0.283-0.054-0.573-0.069-0.861-0.047
	c-0.399,0.067-1-0.008-1.399,0.047l-0.362-0.047c-0.437,0.056-0.878,0.056-1.313,0c-0.453-0.06-0.976,0.063-1.359,0L6.727,25.46
	c-0.414-0.053-1,0.024-1.399-0.047c-0.181,0.021-0.363,0.021-0.544,0c-0.448-0.237-0.873-0.518-1.269-0.836
	c-0.231-0.136-0.681-0.3-1-0.511c-0.111-0.073-0.163-0.291-0.271-0.371c-0.089,0.025-0.184,0.025-0.272,0
	c-0.051-0.074-0.096-0.152-0.136-0.232c0.044-0.118,0.1-0.217,0.136-0.325l-0.136-0.046c-0.138-0.016-0.277,0-0.408,0.046
	c-0.106-0.071-0.234-0.104-0.362-0.093c-0.15,0.09-0.327,0.122-0.5,0.093c-0.562-0.188-0.695-1.298-0.415-1.909
	c0.07-0.15,0.238-0.184,0.317-0.324c-0.066-0.02-0.118-0.072-0.136-0.139h0.046v-0.048c0.087,0.1,0.195,0.179,0.316,0.232
	c-0.024-0.097-0.019-0.177-0.045-0.325c0.33,0.068,1.101-0.116,1.45,0v-0.139c0.339,0.007,0.677-0.04,1-0.139
	c0.363,0.127,0.753,0.158,1.132,0.092c0.534-0.117,1.081-0.164,1.627-0.14c0.807,0,1.779,0.224,2.266-0.093H3.548v-0.046H3.502
	c-0.003-0.11-0.018-0.219-0.045-0.325H3.412c-0.021,0.333-0.191,0.346-0.544,0.325c-0.049-0.05-0.112-0.083-0.182-0.093v-0.325
	c0.092-0.153,0.124-0.335,0.091-0.511c-0.177,0.042-0.335,0.14-0.452,0.279v-0.14c0.072-0.037,0.123-0.106,0.136-0.186L2.099,18.86
	l-0.136,0.093v-0.092c0.029-0.041,0.045-0.089,0.045-0.139c-0.102,0.043-0.216,0.043-0.317,0h0.091
	c0.039-0.04,0.068-0.088,0.088-0.14l-0.45-0.139c-0.089-0.115-0.165-0.24-0.227-0.372c-0.1-0.058-0.206-0.104-0.316-0.139
	c-0.05-0.036-0.048-0.15-0.091-0.186c-0.094-0.022-0.185-0.054-0.272-0.093c0.065-0.113,0.097-0.242,0.091-0.372
	c0.425-0.068,0.819-0.263,1.132-0.557c0.677-0.428,1.362-0.735,2.039-1.161c0.2-0.124,0.39-0.35,0.59-0.464
	c0.427-0.179,0.836-0.396,1.223-0.65V12.5h0.045v1.9h0.045c0.211-0.147,0.475-0.198,0.725-0.139v0.046
	c-0.034,0.004-0.066,0.021-0.091,0.046h0.137c0,0,0.02-0.184,0.045-0.093v0.046c0.046,0.118,0.062,0.246,0.045,0.371
	c-0.091,0.023-0.161,0.095-0.182,0.187c0.087,0.072,0.126,0.114,0.092,0.186c-0.025,0.025-0.057,0.041-0.092,0.046
	c-0.021-0.049-0.051-0.094-0.087-0.134c-0.18,0.136-0.378,0.245-0.589,0.325v0.139H5.677z M13.469,14.4
	c0.039,0.056,0.039,0.13,0,0.186h-0.046V14.5C13.449,14.473,13.465,14.438,13.469,14.4z M16.186,14.5
	c0.295,0.092,0.611,0.092,0.906,0H16.186z M15.597,14.779c0.051,0.049,0.131,0.049,0.181,0H15.597L15.597,14.779z M13.513,14.825
	v0.093h0.046v-0.097h-0.045L13.513,14.825z M14.374,14.918c0.078,0.041,0.058,0.041,0.136,0H14.374z M5.495,15.382
	c0.024,0.025,0.057,0.041,0.091,0.046c-0.024-0.025-0.056-0.042-0.09-0.049L5.495,15.382z M4.861,15.8
	c-0.064,0.045-0.113,0.11-0.136,0.186C4.774,16,4.928,15.841,4.861,15.8z M4.499,16.032c-0.04,0.039-0.071,0.086-0.091,0.139h0.091
	c0.04-0.039,0.07-0.086,0.091-0.139H4.499z M4.182,16.218v0.093h0.045v-0.05h0.042c-0.023-0.024-0.054-0.041-0.087-0.047V16.218z
	 M3.638,16.682v0.093h0.136v-0.05L3.638,16.682z M2.551,17.053c0,0.1-0.01,0.033,0.091,0.046V17.05H2.551V17.053z M2.324,17.192
	c-0.114,0.111-0.255,0.191-0.408,0.232v0.047h0.092c0.114-0.11,0.255-0.19,0.408-0.231v-0.05H2.325L2.324,17.192z M3.411,17.563
	L3.369,17.7h0.043c0.002-0.135,0.043-0.064,0-0.139L3.411,17.563z M38.611,17.702v0.6h0.317V17.7H38.61L38.611,17.702z
	 M39.291,17.702v0.6h0.271v-0.091c-0.057-0.166-0.057-0.346,0-0.511H39.29L39.291,17.702z M38.291,18.302
	c-0.032-0.184-0.032-0.373,0-0.557h-0.315v0.093c-0.046,0.118-0.062,0.246-0.045,0.371c0.107,0.069,0.234,0.101,0.362,0.091
	L38.291,18.302z M2.776,18.627c0,0.05,0.016,0.099,0.045,0.139c0.001-0.049-0.014-0.097-0.043-0.137L2.776,18.627z M2.776,18.906V19
	h0.048c-0.005-0.035-0.021-0.068-0.046-0.093L2.776,18.906z M3.321,19c0,0.05,0.016,0.099,0.046,0.139
	C3.366,19.089,3.351,19.04,3.321,19z M3.321,19.6V19.7h0.092V19.6H3.321z M0.241,20.9c0.028,0.04,0.044,0.089,0.045,0.139H0.241
	V20.9z M0.286,21.225c-0.093,0.205-0.139,0.426-0.137,0.65h0.046c0.113-0.117,0.219-0.241,0.317-0.371
	c-0.054-0.107-0.132-0.201-0.227-0.275V21.225z M0.15,22.2c0.006,0.228,0.067,0.452,0.182,0.649
	c0.039,0.031,0.088,0.049,0.138,0.051c0.145-0.018,0.283-0.065,0.408-0.14C0.657,22.561,0.369,22.406,0.15,22.2z M1.328,22.3
	c0.074,0.052,0.048,0.082,0.091,0H1.328z M0.649,22.393c0.056,0.067,0.116,0.13,0.182,0.187h0.09l0.049-0.19h-0.32V22.393z
	 M1.057,22.532c0.024,0.024,0.057,0.04,0.091,0.046c-0.024-0.026-0.057-0.043-0.092-0.049L1.057,22.532z M1.691,22.811
	c0.01,0.064-0.037-0.02-0.045,0.047c-0.088,0.033,0.09,0.043,0.09,0.043c-0.004-0.035-0.021-0.068-0.046-0.094L1.691,22.811z
	 M22.529,23.225c0.025,0.025,0.057,0.041,0.092,0.047C22.595,23.246,22.564,23.23,22.529,23.225z M22.569,23.318
	c0.075,0.052,0.049,0.082,0.092,0H22.569z M22.75,23.364v0.093h0.045v-0.093h-0.04H22.75z M22.347,23.5
	c-0.047,0.062-0.109,0.109-0.181,0.139v0.047h0.045c0.044,0.092,0.127,0.16,0.227,0.186v-0.042c0.024-0.025,0.04-0.058,0.045-0.093
	C22.427,23.673,22.401,23.568,22.347,23.5z M22.256,23.825h-0.135c-0.018-0.122,0.033-0.062-0.092-0.093v0.045h-0.045
	c0.076,0.056,0.125,0.14,0.137,0.232c0.108-0.091,0.106,0.002,0.136-0.181L22.256,23.825z M14.6,24.104
	c-0.067,0.27-0.19,0.523-0.362,0.742c-0.015,0.062-0.015,0.125,0,0.187h0.182v-0.043c-0.037-0.042-0.068-0.089-0.091-0.14
	c0.1-0.121,0.25-0.19,0.407-0.186v0.093c0.095,0.122,0.059,0.091,0.046,0.279h0.181c0.003-0.125,0.018-0.249,0.045-0.371h0.317
	c0.033,0.12,0.048,0.245,0.045,0.371h0.181c-0.005-0.126,0.011-0.251,0.045-0.371c0.107-0.004,0.215,0.012,0.317,0.046
	c-0.058-0.111-0.229-0.807-0.272-0.836c-0.337,0.113-0.686,0.191-1.039,0.232L14.6,24.104z M21.984,23.871h-0.135
	c-0.022,0.037-0.054,0.069-0.091,0.093v0.046h0.045l0.091,0.139c0.061-0.03,0.121-0.062,0.182-0.092
	c-0.063-0.038-0.099-0.109-0.091-0.182L21.984,23.871z M17.726,25.032h0.136l0.046-0.371h0.316v0.188
	c0.05,0,0.098,0.016,0.136,0.047c-0.028,0.04-0.044,0.089-0.045,0.139h0.137l0.045-0.371h0.316v0.186
	c0.05,0,0.098,0.016,0.137,0.047c-0.029,0.04-0.045,0.089-0.046,0.139h0.137c0.01-0.148,0.057-0.292,0.136-0.418
	c-0.136-0.188-0.186-0.424-0.136-0.65h-0.5c-0.11,0.09-0.287,0.1-0.408,0.186c-0.086,0.245-0.226,0.467-0.408,0.65
	c0.015,0.077,0.016,0.156,0.003,0.233L17.726,25.032z M11.339,25.032c0.049,0.001,0.097-0.016,0.136-0.046
	c-0.037-0.042-0.067-0.089-0.091-0.139c0.21,0,0.17,0.076,0.181-0.187h0.317l0.045,0.371c0.049,0.001,0.098-0.016,0.136-0.046
	c-0.038-0.041-0.069-0.086-0.094-0.137c0.143-0.021,0.254-0.135,0.272-0.278c-0.094-0.17-0.126-0.366-0.092-0.558h-0.267
	c-0.254,0.297-0.439,0.646-0.544,1.022V25.032z M21.622,24.011c0,0.101-0.011,0.033,0.091,0.046v-0.043h-0.09L21.622,24.011z
	 M3.823,24.057v0.094H3.91v-0.09H3.82L3.823,24.057z M21.353,24.057l-0.045,0.232c0.075,0.072,0.17,0.121,0.272,0.139v-0.042
	c-0.056-0.073-0.079-0.206-0.137-0.278c-0.024-0.025-0.058-0.041-0.093-0.047L21.353,24.057z M21.669,24.107
	c-0.034,0.041-0.058,0.052-0.091,0.093c0.024,0.025,0.04,0.058,0.045,0.093h0.091C21.738,24.145,21.813,24.227,21.669,24.107z
	 M3.457,24.2c0.054,0.123-0.041,0.083,0.091,0.139C3.542,24.28,3.509,24.229,3.457,24.2z M3.593,24.339v0.093
	c0.035,0.005,0.067,0.021,0.091,0.047l0.136-0.047c-0.024-0.024-0.056-0.041-0.091-0.046C3.69,24.355,3.642,24.34,3.593,24.339z
	 M21.305,24.385c-0.015,0.064,0.064,0.067,0.091,0.094C21.428,24.429,21.318,24.4,21.305,24.385L21.305,24.385z M3.869,24.432
	c0,0.131-0.008,0.135,0.181,0.187v-0.14L3.869,24.432z M6.719,24.664v0.186c0.084,0.021,0.141,0.1,0.136,0.187h0.09V24.85
	c-0.094-0.146-0.2-0.287-0.316-0.418v0.094c-0.052,0.028-0.085,0.08-0.091,0.139H6.719L6.719,24.664z M9.029,24.85h0.141v0.187
	h0.087v-0.325c0.024-0.025,0.04-0.059,0.045-0.093c-0.066-0.045-0.1-0.166-0.136-0.093C9.071,24.605,9.02,24.727,9.029,24.85z
	 M21.215,24.479v0.047h-0.046c-0.087,0.035,0.091,0.046,0.091,0.046v-0.046h0.045C21.281,24.5,21.249,24.484,21.215,24.479z
	 M4.092,24.665c0.073,0.09,0.079,0.181,0.136,0.046H4.182C4.157,24.686,4.125,24.67,4.092,24.665L4.092,24.665z M6.492,24.711
	c-0.03,0.09-0.046,0.184-0.045,0.279h0.045c0.051-0.084,0.11-0.161,0.177-0.233H6.628v-0.046H6.492z M11.656,24.711
	c-0.03,0.09-0.046,0.184-0.046,0.279h0.046v0.046h0.045v-0.047c0.066-0.063,0.114-0.144,0.136-0.232h-0.045v-0.046H11.656z
	 M12.2,24.711v0.279h0.136c0.004-0.035,0.021-0.068,0.045-0.094c-0.004-0.035-0.021-0.067-0.045-0.093
	C12.269,24.686,12.346,24.751,12.2,24.711z M14.51,24.711c-0.028,0.106-0.028,0.219,0,0.325c0.136-0.046,0.12,0.019,0.181-0.093
	c0.018-0.076,0.018-0.156,0-0.232H14.51z M15.099,24.711c-0.03,0.09-0.045,0.184-0.045,0.279h0.045v0.046
	c0.049-0.003,0.096-0.02,0.136-0.046c0.038-0.071,0.054-0.152,0.045-0.232h-0.045v-0.047H15.099z M15.643,24.711v0.279
	c0.059,0.021,0.123,0.021,0.182,0c0.034-0.057,0.05-0.124,0.045-0.19c-0.024-0.025-0.04-0.058-0.045-0.093h-0.182V24.711z
	 M17.999,24.711c-0.021,0.107-0.021,0.218,0,0.325c0.048-0.003,0.095-0.02,0.136-0.046c0.037-0.071,0.053-0.152,0.045-0.232h-0.046
	v-0.047H17.999L17.999,24.711z M18.588,24.711c-0.021,0.107-0.021,0.218,0,0.325c0.049-0.003,0.096-0.02,0.136-0.046
	c0.038-0.071,0.054-0.152,0.045-0.232h-0.046v-0.047H18.588L18.588,24.711z M19.177,24.711c-0.021,0.107-0.021,0.218,0,0.325
	c0.049-0.003,0.096-0.02,0.136-0.046c0.057-0.073,0.029-0.024,0-0.094C19.3,24.816,19.249,24.747,19.177,24.711L19.177,24.711z
	 M9.347,24.757c-0.023,0.092-0.023,0.188,0,0.279h0.044C9.399,24.848,9.445,24.879,9.347,24.757L9.347,24.757z M15.915,24.757v0.093
	h0.091V24.8L15.915,24.757z M6.315,24.803c-0.027,0.074-0.042,0.153-0.045,0.232h0.086V24.8H6.311L6.315,24.803z M8.897,24.803
	c-0.003,0.08,0.013,0.159,0.045,0.232v-0.046c0.033-0.058,0.048-0.124,0.042-0.189H8.893L8.897,24.803z M8.806,24.85l-0.045,0.139
	h0.042V24.9h0.045c0.045-0.051-0.045-0.049-0.045-0.051H8.806z M6.586,24.895c-0.001,0.051,0.015,0.1,0.045,0.14v-0.045
	c0.021-0.025,0.034-0.057,0.038-0.089H6.583L6.586,24.895z M11.252,24.895v0.094h0.045V24.9h-0.048L11.252,24.895z M14.061,24.895
	c0.012,0.052-0.091,0.096,0,0.14c0,0.062,0.045-0.093,0.045-0.093l0.045-0.047h-0.094H14.061z M15.961,25.034h0.181v-0.045
	c-0.055-0.04-0.116-0.071-0.181-0.093V25.034L15.961,25.034z M9.483,24.941v0.093h0.044v-0.091H9.482L9.483,24.941z M11.115,24.941
	l-0.046,0.093c0.078-0.063,0.044-0.091,0.044-0.091L11.115,24.941z M17.547,24.941l-0.045,0.093
	c0.077-0.063,0.043-0.091,0.043-0.091L17.547,24.941z M8.578,24.986c0.024,0.025,0.057,0.041,0.091,0.047
	c-0.025-0.024-0.059-0.04-0.093-0.044L8.578,24.986z M12.519,24.986c0.024,0.025,0.057,0.041,0.091,0.047
	c-0.025-0.024-0.058-0.04-0.093-0.044L12.519,24.986z"/>
</svg>
