<svg xmlns="http://www.w3.org/2000/svg" width="39.969" height="40" viewBox="0 0 39.969 40">
  <defs>
    <style>
      .cls-1 {
        fill: #fff;
        fill-rule: evenodd;
      }
    </style>
  </defs>
  <path id="ussr_t_62_ico" class="cls-1" d="M16.154,17.256a1.573,1.573,0,0,0-.064.482,0.741,0.741,0,0,0,.064.066,0.738,0.738,0,0,0,.236-0.219h0.6v0.131h0.043a0.5,0.5,0,0,1-.043.2l0.364,0.044a0.191,0.191,0,0,1,.064-0.131c0.043,0,.069-0.01.086,0.088a0.15,0.15,0,0,0-.021.088,3.859,3.859,0,0,1,.921.219c0.389,0.121.75,0.155,1.136,0.285a1.609,1.609,0,0,0,.45.131V18.591C20,18.575,20,18.513,20.011,18.46H19.839a0.236,0.236,0,0,1,.021-0.131c0.041-.126.149-0.182,0.193-0.307a0.8,0.8,0,0,1-.107-0.744,0.86,0.86,0,0,1,.964-0.482V18.35H20.739a0.379,0.379,0,0,1-.021.131h0.107v0.131a2.135,2.135,0,0,0-.257-0.044L20.589,18.7a4.783,4.783,0,0,0,1.307-.044H22.26V18.7l0.343-.022a0.347,0.347,0,0,1,.021.11,0.478,0.478,0,0,0-.021.219h0.129a0.235,0.235,0,0,1,.043.11c-0.027.034-.014,0.011,0,0.044a1.585,1.585,0,0,0,.579.022L24.788,19.2a4.916,4.916,0,0,0,.943.044H26.1c0.174,0.038.442-.022,0.643,0.022a3.771,3.771,0,0,0,.686.022h1.264a6.917,6.917,0,0,1,1.307.022h1.178a0.959,0.959,0,0,0,.45-0.044,0.569,0.569,0,0,1,.043-0.11h3.449c0,0.015.089,0.142,0.021,0.153h4.071A3.052,3.052,0,0,1,40,19.292v0.679c-1.595,0-3.238-.021-4.863-0.022,0.053,0.192-.169.167-0.364,0.153a5.6,5.6,0,0,1-.857,0h-2.25l-0.043-.131c-0.682-.049-1.454,0-2.143,0-2.327,0-4.452.105-6.727,0.11V20.1c0.037,0.067,0,.077-0.021.153a3.752,3.752,0,0,0-1.457.175v0.022h0.75c0.065,0.035.239-.027,0.364,0a0.486,0.486,0,0,0,.279-0.044,2.838,2.838,0,0,1,.793,0,0.285,0.285,0,0,0,.086.131,0.4,0.4,0,0,1,.407-0.066v0.044c0.028,0.038.037,0.035,0.021,0.066a0.331,0.331,0,0,0-.129.241,0.344,0.344,0,0,1,.107.175,0.061,0.061,0,0,1,.021-0.022A0.316,0.316,0,0,0,24,20.891h0.171c0.016-.116.054-0.236,0.064-0.372h0.15a3.224,3.224,0,0,0,.064.372,0.832,0.832,0,0,0,.386-0.175,2.293,2.293,0,0,1,.793.044A0.218,0.218,0,0,1,25.8,21a0.619,0.619,0,0,0,0,.153l0.086,0.066a3.171,3.171,0,0,1,.15.285,2.071,2.071,0,0,1,1.885,1.358,1.706,1.706,0,0,0-.536.482H27.4v0.022H27.359a0.061,0.061,0,0,0-.021-0.022,0.132,0.132,0,0,0,0,.088,0.241,0.241,0,0,1,.064.153c-0.069.107-.143,0.33-0.214,0.482a0.3,0.3,0,0,0-.086-0.022,2.952,2.952,0,0,1-.193.285c0.068,0,.029-0.037.064,0.022-0.2.143-.131,0.215-0.343,0.219l-0.15.11c0.006,0.063.017,0.1-.043,0.131-0.048.073-.123,0.1-0.171,0.175-0.045-.038-0.031-0.043-0.064-0.044a0.517,0.517,0,0,0-.214.2,0.1,0.1,0,0,1,.064.022c-0.034.021-.057,0.073-0.086,0.088a0.141,0.141,0,0,1-.086-0.022,0.083,0.083,0,0,1,0,.088l-0.043-.022a0.074,0.074,0,0,1,0,.066c-0.031-.021-0.047-0.078-0.064-0.044a0.379,0.379,0,0,0-.214.2,0.1,0.1,0,0,1,.064.022H25.6v0.022a0.151,0.151,0,0,1-.15.044c0.011,0.074.019,0.094-.086,0.109-0.028-.054.009-0.015-0.043-0.044a0.681,0.681,0,0,1-.193.175c0.038,0.046.042,0.032,0.043,0.066a0.581,0.581,0,0,1-.236.175c-0.028-.054.009-0.015-0.043-0.044a1.128,1.128,0,0,0-.193.2c0.053,0.028.015-.009,0.043,0.044a1.134,1.134,0,0,1-.236.175c-0.031-.056,0-0.025-0.064-0.044a0.331,0.331,0,0,1-.214.153,0.061,0.061,0,0,0,.021.022c0.017,0.015.048,0.029,0.064,0.044H24.274a0.987,0.987,0,0,1-.257.153c-0.024-.063,0-0.04-0.064-0.066a2.241,2.241,0,0,0-.236.131c0.053,0.028.015-.009,0.043,0.044a1.866,1.866,0,0,0-.343.066V26.891l-0.3.022v0.044a0.072,0.072,0,0,1,.043.022h-0.3V26.912H22.667c-0.008.111-.2,0.071-0.364,0.066,0-.082-0.039-0.077-0.171-0.066a0.4,0.4,0,0,1-.386.066V26.912H21.553c-0.008.111-.2,0.071-0.364,0.066V26.912H21c-0.008.111-.222,0.071-0.386,0.066,0-.085-0.057-0.077-0.193-0.066v0.044a0.072,0.072,0,0,1,.043.022H20.054c0-.082-0.039-0.077-0.171-0.066a0.062,0.062,0,0,1-.021.022c0.016,0.019.027,0.025,0.043,0.044H19.5c0-.1-0.045-0.072-0.193-0.066-0.008.111-.2,0.071-0.364,0.066V26.912H18.747c-0.008.111-.222,0.071-0.386,0.066,0-.085-0.057-0.077-0.193-0.066v0.044a0.072,0.072,0,0,1,.043.022H17.8V26.912a0.577,0.577,0,0,0-.193.022c0.016,0.019.027,0.025,0.043,0.044H17.226c0-.082-0.039-0.077-0.171-0.066-0.008.111-.222,0.071-0.386,0.066,0-.082-0.039-0.077-0.171-0.066-0.008.111-.222,0.071-0.386,0.066V26.912H15.919v0.044a0.072,0.072,0,0,1,.043.022H15.554V26.912a0.577,0.577,0,0,0-.193.022c0.016,0.019.027,0.025,0.043,0.044H14.976c0-.082-0.039-0.077-0.171-0.066-0.008.111-.222,0.071-0.386,0.066V26.912H14.248c-0.008.111-.222,0.071-0.386,0.066V26.912H13.669v0.044a0.072,0.072,0,0,1,.043.022H13.3V26.912a0.577,0.577,0,0,0-.193.022c0.016,0.019.027,0.025,0.043,0.044H12.726c0-.082-0.039-0.077-0.171-0.066-0.008.111-.222,0.071-0.386,0.066V26.912H12c-0.008.111-.222,0.071-0.386,0.066V26.912H11.419v0.044a0.072,0.072,0,0,1,.043.022H11.055V26.912a0.577,0.577,0,0,0-.193.022c0.016,0.019.027,0.025,0.043,0.044H10.477c0-.082-0.039-0.077-0.171-0.066-0.008.111-.222,0.071-0.386,0.066V26.912H9.727v0.044a0.073,0.073,0,0,1,.043.022H9.341c0-.082-0.039-0.077-0.171-0.066v0.044a0.073,0.073,0,0,1,.043.022H8.784c0-.09-0.019-0.07-0.15-0.066a0.444,0.444,0,0,1-.407.066V26.912H8.034v0.044a0.073,0.073,0,0,1,.043.022H7.649c0-.082-0.039-0.077-0.171-0.066v0.044a0.073,0.073,0,0,1,.043.022H7.092V26.912H6.9v0.044a0.073,0.073,0,0,1,.043.022H6.6a0.107,0.107,0,0,0-.064-0.022c-0.009-.059-0.053-0.048-0.171-0.044v0.022H6.342c0.016,0.019.027,0.025,0.043,0.044H6.213a0.515,0.515,0,0,0-.15-0.022c0-.064.021-0.03,0-0.066a1.681,1.681,0,0,0-.3-0.066c0,0.088.042,0.072-.064,0.088a0.47,0.47,0,0,1-.236-0.131,0.132,0.132,0,0,0,.043-0.044,1.051,1.051,0,0,1-.3-0.11,0.173,0.173,0,0,1,0,.088,1,1,0,0,1-.279-0.153A0.253,0.253,0,0,0,4.971,26.5c-0.11-.03-0.165-0.1-0.279-0.131,0.007,0.062.023,0.045,0,.088A0.909,0.909,0,0,0,4.435,26.3V26.277a0.132,0.132,0,0,0,.043-0.044H4.456C4.4,26.181,4.317,26.158,4.264,26.1L4.2,26.124v0.022H4.221c0.041,0.017-.043.022-0.043,0.022a1.052,1.052,0,0,0-.171-0.088c-0.073-.051.022-0.073-0.021-0.131a2.061,2.061,0,0,0-.257-0.109,0.107,0.107,0,0,1-.021.066c-0.071-.066-0.188-0.085-0.257-0.153a0.132,0.132,0,0,0,.043-0.044c-0.085-.05-0.163-0.107-0.257-0.153,0,0.073.046,0.053-.021,0.088a0.83,0.83,0,0,1-.236-0.175C2.945,25.43,3,25.439,2.935,25.4a0.109,0.109,0,0,1-.107.066,0.6,0.6,0,0,0-.3-0.219,0.343,0.343,0,0,0-.086-0.153,0.778,0.778,0,0,1-.193.022,0.366,0.366,0,0,1,0-.131L2.142,24.9a0.751,0.751,0,0,1-.129-0.329,0.132,0.132,0,0,1-.15-0.088,0.157,0.157,0,0,0,.043-0.087,0.818,0.818,0,0,1-.364-0.679,0.282,0.282,0,0,1-.129-0.044,0.214,0.214,0,0,1-.214.066,0.379,0.379,0,0,1-.129-0.175,1.416,1.416,0,0,1-.279-1.139H0.771v0.022a0.415,0.415,0,0,1-.536.153,0.491,0.491,0,0,1-.214-0.2,0.6,0.6,0,0,1,.193-0.569,0.2,0.2,0,0,1,.064-0.285,0.6,0.6,0,0,0,.257.066,1.354,1.354,0,0,0,1.05-.285V21.307H1.414a0.7,0.7,0,0,1-.3.022l-0.021-.2H0.878V21.088H1.093a0.107,0.107,0,0,1,.021-0.066A1.445,1.445,0,0,1,1.478,21a2.317,2.317,0,0,1,.707-0.022,0.247,0.247,0,0,1,.171-0.153,0.622,0.622,0,0,1,.3,0c0.008,0.055-.012.035,0.064,0.044,0.018-.071-0.01-0.033.043-0.066v0.066a0.087,0.087,0,0,0,.064-0.044C2.9,20.8,2.942,20.9,3,20.8a0.1,0.1,0,0,1-.064-0.022c0.12,0,.17.056,0.214,0.044a0.2,0.2,0,0,1,.171-0.044c0.047-.067.119,0,0.214,0.022V20.715H3.6V20.8H3.621L3.9,20.759,3.878,20.8a0.986,0.986,0,0,0,.343.044L4.2,20.715a0.1,0.1,0,0,1-.064-0.022c0.133,0,.218-0.015.321-0.022v0.066c0.382-.025.777-0.064,1.178-0.066V20.518c0.153,0.013.167,0.092,0.321,0.11V20.562a0.543,0.543,0,0,1,.343.044c0.076,0.013.052-.113,0.15-0.066L6.47,20.606a0.715,0.715,0,0,0,.343.044V20.628H6.834V20.54H6.9a0.271,0.271,0,0,0,.064.153c0.066-.042.209,0,0.279-0.044l0.021-.066a0.542,0.542,0,0,1,.171-0.066v0.066H7.52c0.029,0.066-.014.059,0.107,0.066a1.814,1.814,0,0,1,.428-0.022c0.184-.041.479,0.016,0.664-0.044a0.885,0.885,0,0,1,.3-0.109,0.143,0.143,0,0,0,.129.088,0.18,0.18,0,0,1,.15-0.109V20.54H9.32A0.4,0.4,0,0,1,9.705,20.5v0.066H9.77a0.107,0.107,0,0,0,.021.066A0.183,0.183,0,0,1,9.9,20.606V20.475h0.214V20.409a1.2,1.2,0,0,1-.9-0.263A2.927,2.927,0,0,0,9.17,19.73l0.043-.263H9.191v0.022c-0.017.042-.021-0.044-0.021-0.044a1.349,1.349,0,0,0,.064-0.394,0.943,0.943,0,0,1,.129-0.175,0.565,0.565,0,0,1,.493-0.394,0.464,0.464,0,0,1,.257-0.044c0.124,0.035.15,0.145,0.278,0.175,0.055-.036.15-0.008,0.214-0.044a0.531,0.531,0,0,1,.214-0.109V18.35a1.978,1.978,0,0,1,.686-0.438,0.535,0.535,0,0,1,.214.044,0.756,0.756,0,0,1,.3-0.066l0.064-.2a0.478,0.478,0,0,0,.128,0,0.578,0.578,0,0,1,.086-0.066c0.1-.139-0.054-0.2.236-0.2v0.087h0.021c0.052-.04.142-0.047,0.193-0.087a0.113,0.113,0,0,0,.021-0.066c-0.054-.032-0.039-0.027-0.043-0.109H12.662V17.19l-0.129-.022a0.783,0.783,0,0,1-.043-0.131,0.2,0.2,0,0,1,.107-0.066,0.431,0.431,0,0,1,.279,0,0.258,0.258,0,0,1,.064.131,0.446,0.446,0,0,0-.064.131,0.1,0.1,0,0,1,.064.022H12.833a0.648,0.648,0,0,1-.043.175h0.021a2.454,2.454,0,0,1,.9-0.241,0.511,0.511,0,0,0,.193.088,4.909,4.909,0,0,1,.471-0.219,0.081,0.081,0,0,0,.086.066V16.8a0.257,0.257,0,0,0,.193-0.131c-0.112-.04-0.094-0.175-0.086-0.328H14.59c0.041-.114.139-0.1,0.171-0.219h0.064V16.051a0.38,0.38,0,0,1,.086-0.066,1.014,1.014,0,0,1,.471-0.044v0.526a1.307,1.307,0,0,1,.171.175,0.075,0.075,0,0,1-.021.044c-0.072.121-.151,0.057-0.15,0.285a0.114,0.114,0,0,0-.021.066,0.416,0.416,0,0,1-.15-0.022c-0.071.213-.314,0.309-0.386,0.5h0.107a0.988,0.988,0,0,0,.921-0.285c0-.7,0-1.361,0-2.1v-0.92a2.7,2.7,0,0,0,.043-0.7V12.438A1.2,1.2,0,0,1,15.919,12c0,1.678.042,3.359,0.043,4.993a0.146,0.146,0,0,1,.15.022,0.193,0.193,0,0,1,.021.109,0.828,0.828,0,0,0-.043.131h0.064Zm-3.192,0a0.079,0.079,0,0,1,.021.044H12.962V17.256Z" transform="translate(-0.031 0.5)"/>
</svg>
