<?xml version="1.0" encoding="utf-8"?>
<!-- Generator: Adobe Illustrator 16.0.0, SVG Export Plug-In . SVG Version: 6.00 Build 0)  -->
<!DOCTYPE svg PUBLIC "-//W3C//DTD SVG 1.1//EN" "http://www.w3.org/Graphics/SVG/1.1/DTD/svg11.dtd">
<svg version="1.1" id="Layer_1" xmlns="http://www.w3.org/2000/svg" xmlns:xlink="http://www.w3.org/1999/xlink" x="0px" y="0px"
	 width="40px" height="40px" viewBox="0 0 40 40" enable-background="new 0 0 40 40" xml:space="preserve">
<path id="ussr_t_54_1947_ico" fill="#FFFFFF" d="M13.913,11.673h0.066V12h-0.066v0.194c-0.123,0.024-0.249,0.032-0.374,0.022v0.173
	h0.022c0.097-0.047,0.201-0.076,0.308-0.086v0.043c0.022,0.055,0.03,0.115,0.022,0.173c0.076,0.024,0.159,0.008,0.22-0.043
	c-0.054-0.028-0.015,0.009-0.044-0.043c0.056-0.032,0.034-0.009,0.044-0.086h-0.022v0.022c-0.017,0.042-0.022-0.043-0.022-0.043
	c0.27-0.043,0.543-0.05,0.815-0.022c0.049,0.021,0.102,0.028,0.154,0.022c-0.014-0.094-0.006-0.19,0.022-0.281v0.3h0.11
	c0.01,0.045,0.025,0.088,0.044,0.13c0.049,0.021,0.102,0.028,0.154,0.022V12.45c-0.029-0.012-0.016,0-0.022-0.022v-0.021
	c0.421,0.127,0.863,0.171,1.3,0.13c0.756,0,1.546,0.021,2.267,0.022v-0.022h0.022v-0.41h0.11v0.41
	c0.154,0.06,0.32,0.082,0.484,0.065c0.133-0.054,0.275-0.083,0.418-0.086c0.022,0.07,0.037,0.143,0.044,0.216
	c-0.043,0.08-0.131,0.123-0.22,0.108c-0.357-0.108-0.736-0.123-1.1-0.043v0.022c0.02,0.041,0.028,0.085,0.022,0.13h-3.127v0.065
	h0.55v0.151c0.3,0,0.547-0.011,0.813,0v0.065H17.9v0.151h-0.971v0.065c-0.568,0.023-1.241,0-1.871,0
	c-0.048,0.396-0.026,0.799,0.066,1.188c0.457-0.273,1.021-0.298,1.5-0.065c0.082,0.126,0.186,0.236,0.308,0.324
	c0.13,0.04,0.264,0.061,0.4,0.065c0.386,0.114,0.787,0.165,1.189,0.151c0.043,0.051,0.024,0.035,0.066,0.086
	c0.024-0.019,0.046-0.041,0.066-0.065l0.176,0.022l0.022-0.065c0.057-0.014,0.043,0.037,0.066,0.043l0.727,0.065
	c0.04-0.015,0.077-0.037,0.11-0.065c0.174-0.038,0.354-0.038,0.528,0c0.19-0.021,0.382,0.018,0.55,0.108
	c-0.025,0.032-0.046,0.065-0.021,0.086l0.241,0.086c0.267,0.253,0.569,0.465,0.9,0.626l0.594,0.022v0.13
	c0.302,0.016,0.603,0.052,0.899,0.108c0.34,0.072,0.768-0.044,1.08,0.022H24.9c0.439-0.033,0.882-0.025,1.32,0.022h0.374
	c0.44-0.033,0.882-0.025,1.321,0.022h1.7c0.329,0.037,0.661,0.044,0.991,0.022l1.578,0.016h0.793
	c0.475,0.051,0.953,0.058,1.431,0.022h0.399c0.578,0.058,1.16,0.065,1.739,0.022c1.153,0,2.291,0,3.412,0
	c0.034,0.193,0.041,0.389,0.022,0.583c-0.094,0.021-0.19,0.028-0.287,0.022c-0.121-0.031-0.248-0.038-0.373-0.022h-0.885
	c-1.069,0-2.182,0.022-3.28,0.022l-7.375,0.108h-1.7c-0.505,0.053-1.014,0.06-1.52,0.021c-0.676,0.007-1.353,0.051-2.024,0.13v0.108
	c-0.304-0.016-0.608,0.021-0.899,0.108v0.022c0.28,0.016,0.387,0.156,0.682,0.194c-0.006,0.009-0.014,0.017-0.022,0.021
	c0.014,0.035,0.021,0.071,0.022,0.108h0.132v-0.065c0.067-0.01,0.136-0.002,0.2,0.022c-0.063-0.023-0.132-0.006-0.176,0.043h0.638
	c0.13-0.045,0.271-0.045,0.399,0c0.005-0.016,0.012-0.03,0.022-0.043V18c0.053,0.025,0.104,0.054,0.153,0.086l0.881-0.022v0.043
	c0.022,0.041,0.022,0.089,0,0.13c-0.078,0.009-0.055-0.01-0.088,0.043c0.041,0.052,0.048,0.143,0.088,0.194
	c0.084-0.019,0.166-0.047,0.242-0.086c-0.082-0.07-0.131-0.172-0.131-0.281c0.123-0.239,0.369-0.389,0.639-0.389
	c0.025,0.128,0.033,0.259,0.021,0.389c0.019,0.122,0.019,0.246,0,0.367h0.044V18.41h0.2l0.014,0.152
	c0.067,0.021,0.141-0.004,0.18-0.063c0.021-0.048,0.036-0.099,0.044-0.151c0.011,0.018,0.026,0.032,0.044,0.043L25.8,18.54
	c0.21-0.021,0.42,0.032,0.595,0.151c0.031,0.04,0.068,0.076,0.109,0.107h0.242c0.213-0.013,0.428,0.002,0.638,0.043
	c0.466,0.135,0.9,0.363,1.277,0.669c0.19,0.136,0.354,0.306,0.483,0.5c0.05,0.065,0.087,0.138,0.11,0.216
	c-0.153,0.123-0.327,0.209-0.483,0.324c-0.088,0.096-0.184,0.182-0.287,0.26c-0.029-0.002-0.059-0.002-0.088,0
	c0.021,0.074-0.014,0.011-0.043,0.064c0.021,0.077,0.029,0.158,0.021,0.238c-0.016,0.022-0.093,0.017-0.109,0.043
	c-0.072,0.147-0.088,0.316-0.045,0.475c-0.041,0.028-0.053,0.083-0.088,0.108c-0.035,0.024-0.1-0.005-0.154,0.021l-0.109,0.151
	c-0.04,0.016-0.077,0.037-0.11,0.064c-0.071,0.112,0.052,0.19-0.2,0.217c-0.025-0.017-0.057-0.024-0.088-0.022
	c-0.051,0.073-0.18,0.101-0.22,0.173c-0.056,0.1,0.026,0.107-0.088,0.151c-0.057,0.019-0.116,0.026-0.177,0.022l-0.219,0.129
	c-0.058,0.078,0.008,0.127-0.088,0.174c-0.072,0.046-0.209,0.019-0.287,0.064c-0.059,0.042-0.11,0.093-0.153,0.151
	c0,0.018,0.048,0.051,0.021,0.086c-0.114,0.037-0.232,0.065-0.352,0.086c-0.096,0.087-0.177,0.188-0.242,0.3
	c-0.041-0.02-0.087-0.026-0.132-0.021c-0.1,0.026-0.19,0.078-0.264,0.15c-0.076,0.109,0.008,0.161-0.154,0.194
	c-0.024-0.023-0.055-0.038-0.088-0.043c-0.059,0.076-0.189,0.1-0.242,0.173c-0.025,0.035,0.007,0.114-0.021,0.15
	c-0.045,0.032-0.1,0.047-0.154,0.044c-0.174-0.006-0.335,0.086-0.418,0.237c-0.057,0.021-0.116,0.036-0.176,0.043
	c-0.046-0.05-0.109-0.08-0.177-0.086c-0.034,0.032-0.071,0.061-0.11,0.086c-0.105,0.024-0.114-0.068-0.22-0.043
	c-0.073,0.047-0.155,0.076-0.241,0.086c-0.013-0.06-0.072-0.098-0.132-0.086h-0.001c-0.048,0.072-0.136,0.107-0.22,0.086
	l-0.044-0.086c-0.066,0.061-0.153,0.092-0.242,0.086c-0.012-0.06-0.071-0.098-0.131-0.086h-0.001
	c-0.048,0.072-0.136,0.107-0.22,0.086l-0.045-0.086c-0.066,0.059-0.152,0.089-0.241,0.086c-0.019-0.057-0.073-0.092-0.132-0.086
	c-0.051,0.069-0.137,0.104-0.221,0.086c-0.02-0.042-0.063-0.067-0.109-0.064c-0.041,0.068-0.063,0.068-0.176,0.064
	c-0.023-0.051-0.076-0.085-0.133-0.086c-0.183,0.2-0.199-0.012-0.33,0.022c-0.047,0.045-0.11,0.069-0.176,0.065
	c-0.023-0.053-0.074-0.086-0.132-0.086c-0.06,0.068-0.152,0.102-0.242,0.086c-0.009-0.041-0.046-0.068-0.088-0.065
	c-0.038,0.058-0.109,0.085-0.176,0.065c-0.027-0.06-0.089-0.095-0.154-0.086c-0.182,0.217-0.2-0.028-0.33,0.021v0.043
	c-0.056,0.021-0.117,0.029-0.176,0.021c-0.012-0.06-0.071-0.098-0.131-0.086h0c-0.051,0.069-0.136,0.104-0.22,0.086
	c-0.018-0.032-0.041-0.063-0.067-0.088c-0.048,0.071-0.136,0.105-0.22,0.086c-0.013-0.061-0.071-0.1-0.131-0.087
	c0,0,0,0.001-0.001,0.001c-0.05,0.068-0.136,0.102-0.22,0.086c-0.02-0.043-0.063-0.068-0.11-0.065
	c-0.04,0.069-0.062,0.067-0.176,0.065c-0.024-0.053-0.075-0.086-0.132-0.086c-0.05,0.068-0.136,0.102-0.22,0.086
	c-0.02-0.043-0.063-0.068-0.11-0.065c-0.04,0.069-0.062,0.067-0.176,0.065c-0.023-0.053-0.075-0.086-0.132-0.086
	c-0.05,0.068-0.136,0.102-0.22,0.086c-0.02-0.043-0.063-0.068-0.11-0.065c-0.042,0.071-0.079,0.069-0.2,0.065
	c-0.025-0.073-0.025-0.072-0.11-0.086c-0.217,0.199-0.248-0.021-0.352,0.021v0.043c-0.056,0.021-0.116,0.029-0.176,0.021
	c-0.013-0.06-0.071-0.098-0.131-0.086c0,0,0,0,0,0c-0.048,0.072-0.136,0.107-0.22,0.086l-0.044-0.086
	c-0.066,0.061-0.153,0.092-0.242,0.086c-0.012-0.06-0.071-0.098-0.131-0.086h0c-0.048,0.072-0.136,0.107-0.22,0.086l-0.044-0.086
	c-0.065,0.061-0.153,0.092-0.242,0.086c-0.012-0.06-0.071-0.098-0.131-0.086c0,0,0,0-0.001,0c-0.048,0.072-0.136,0.107-0.22,0.086
	l-0.044-0.086c-0.067,0.059-0.154,0.089-0.242,0.086c-0.018-0.057-0.073-0.092-0.132-0.086c-0.051,0.069-0.136,0.104-0.22,0.086
	c-0.02-0.042-0.063-0.067-0.11-0.064c-0.04,0.068-0.062,0.068-0.176,0.064c-0.023-0.051-0.075-0.085-0.132-0.086
	c-0.183,0.2-0.2-0.012-0.33,0.022c-0.047,0.045-0.111,0.069-0.176,0.065c-0.024-0.053-0.075-0.086-0.132-0.086
	c-0.06,0.068-0.151,0.102-0.242,0.086c-0.009-0.041-0.046-0.068-0.088-0.065c-0.038,0.058-0.109,0.085-0.176,0.065
	c-0.027-0.06-0.089-0.095-0.154-0.086c-0.182,0.217-0.2-0.028-0.33,0.021v0.043c-0.056,0.021-0.117,0.029-0.176,0.021
	c-0.012-0.06-0.071-0.098-0.131-0.086c0,0,0,0-0.001,0c-0.048,0.072-0.136,0.107-0.22,0.086c-0.018-0.031-0.041-0.061-0.066-0.086
	c-0.048,0.072-0.136,0.107-0.22,0.086c-0.013-0.06-0.071-0.098-0.131-0.086c0,0,0,0-0.001,0c-0.05,0.069-0.136,0.104-0.22,0.086
	c-0.02-0.042-0.063-0.067-0.11-0.064c-0.041,0.068-0.062,0.068-0.176,0.064c-0.018-0.057-0.073-0.092-0.132-0.086
	c-0.05,0.069-0.136,0.104-0.22,0.086c-0.02-0.042-0.063-0.067-0.11-0.064c-0.031,0.078-0.068,0.068-0.176,0.064
	c-0.012-0.06-0.071-0.098-0.131-0.086c0,0,0,0-0.001,0c-0.05,0.069-0.136,0.104-0.22,0.086c-0.018-0.031-0.041-0.061-0.066-0.086
	c-0.05,0.069-0.136,0.104-0.22,0.086c-0.018-0.057-0.073-0.092-0.132-0.086c-0.051,0.069-0.136,0.104-0.22,0.086
	c-0.02-0.042-0.063-0.068-0.11-0.064c-0.031,0.078-0.068,0.068-0.176,0.064c-0.012-0.06-0.071-0.098-0.131-0.086c0,0,0,0,0,0
	c-0.05,0.069-0.136,0.104-0.22,0.086c-0.02-0.033-0.045-0.063-0.074-0.088c-0.048,0.071-0.136,0.105-0.22,0.086
	c-0.012-0.061-0.071-0.1-0.131-0.087c0,0-0.001,0.001-0.001,0.001c-0.05,0.068-0.136,0.102-0.22,0.086
	c-0.018-0.032-0.04-0.061-0.066-0.086c-0.048,0.071-0.136,0.105-0.22,0.086c-0.013-0.061-0.071-0.1-0.131-0.087
	c0,0,0,0.001-0.001,0.001c-0.182,0.217-0.2-0.028-0.33,0.021v0.043c-0.056,0.021-0.117,0.029-0.176,0.021
	c-0.1-0.154-0.168-0.014-0.352,0c-0.125-0.115-0.291-0.178-0.462-0.172c-0.041,0.021-0.087,0.028-0.132,0.021
	C5.593,24.273,5.54,24.207,5.5,24.133c-0.069-0.031-0.136-0.066-0.2-0.107c-0.082,0-0.169,0.029-0.176,0.021
	C5.063,23.997,5.02,23.929,5,23.852c-0.248-0.215-0.407,0.037-0.528-0.28c-0.098-0.06-0.201-0.11-0.308-0.151
	c-0.035,0.013-0.072,0.021-0.11,0.021c-0.07-0.047-0.124-0.115-0.154-0.193c-0.159-0.037-0.315-0.087-0.466-0.148
	c-0.015-0.021-0.028-0.086-0.044-0.107c-0.13-0.088-0.284-0.133-0.44-0.13c-0.159-0.062-0.313-0.133-0.462-0.216l-0.4-0.367
	C2.064,22.217,2.034,22.157,2,22.1l-0.129-0.039c-0.151-0.071-0.298-0.15-0.44-0.238c-0.05-0.061-0.094-0.125-0.131-0.194
	c-0.028-0.1-0.021-0.206,0.022-0.3c0.065-0.223,0.321-0.188,0.418-0.475H0.771C0.653,20.915,0.528,20.964,0.4,21
	c-0.05-0.035-0.083-0.09-0.088-0.15c0.035,0.015,0.075,0.015,0.11,0v-0.021c-0.024-0.027-0.046-0.056-0.066-0.086
	c-0.058-0.037-0.1,0.065-0.132-0.086c0.063-0.04,0.11-0.102,0.132-0.173l-0.176-0.5H0.154c0.002,0.029-0.005,0.061-0.022,0.086
	v-0.191H0.044l-0.022-0.043c0.035-0.016,0.059-0.049,0.066-0.086C0.021,19.646-0.01,19.523,0,19.4h0.044
	c0.178-0.095,0.372-0.154,0.572-0.174l-0.022-0.842h0.815c-0.019-0.049-0.033-0.1-0.044-0.151l-0.132,0.022v-0.062l0.132-0.022
	v-0.215h0.242c0.005,0.083,0.027,0.164,0.066,0.238c0.035-0.018,0.072-0.032,0.11-0.043c-0.003-0.095,0.011-0.191,0.044-0.281
	c-0.011,0.073-0.003,0.147,0.022,0.216v-0.022c0.016-0.026,0.024-0.056,0.022-0.086c0.727,0,1.544,0.015,2.2,0v-0.087
	c0.71-0.013,1.4-0.124,2.135-0.13c-0.001,0.054-0.016,0.105-0.044,0.151h0.156c0.054-0.079,0.147-0.121,0.242-0.108
	c0.105,0.118,0.082-0.014,0.176,0.043l0.022,0.086h0.419L7.2,18c0.042,0.005,0.083-0.012,0.11-0.043H7.9l1.717-0.022
	c-0.001-0.024,0.007-0.046,0.022-0.065c0.019-0.014,0.042-0.022,0.066-0.022c0.118,0.048,0.248,0.063,0.374,0.043v-0.107
	c-0.048-0.076-0.13-0.125-0.22-0.13c-0.145-0.039-0.292-0.067-0.44-0.086c-0.284-0.182-0.543-0.4-0.771-0.648
	c-0.055-0.152-0.078-0.313-0.066-0.475c-0.05-0.064-0.088-0.137-0.11-0.216C8.705,16.204,8.907,16.056,9,15.841
	c-0.068-0.069-0.107-0.162-0.11-0.259h0.026c0.079,0.076,0.178,0.128,0.286,0.151c0.047-0.101,0.106-0.195,0.176-0.281
	c0.126-0.016,0.239-0.087,0.308-0.194c-0.116-0.154-0.198-0.33-0.242-0.518c-0.1-0.014-0.138-0.049-0.242-0.065V14.61
	c-0.083,0.011-0.165,0.033-0.242,0.065V14.61c0.12-0.042,0.248-0.056,0.374-0.043c0.285,0.141,0.587,0.242,0.9,0.3
	c0.069-0.1,0.258-0.158,0.308-0.259c0.024-0.049,0-0.117,0.022-0.151c-0.008,0.059,0,0.118,0.022,0.173
	c0.161-0.116,0.352-0.184,0.55-0.194c-0.01-0.073-0.003-0.147,0.022-0.216c0.113-0.103,0.273-0.136,0.418-0.086
	c0.012,0.048,0.044,0.087,0.088,0.108c0.094-0.053,0.204-0.068,0.308-0.043H12.9c0.013-0.035,0.021-0.071,0.022-0.108
	c0.293,0.001,0.582-0.073,0.837-0.216c0.148-0.064,0.346-0.051,0.352-0.259h-0.154c-0.045,0.122-0.157,0.206-0.286,0.216
	c-0.072,0.031-0.155,0.023-0.22-0.022c-0.123-0.052-0.208-0.167-0.22-0.3l-0.264-0.238c-0.134-0.235-0.188-0.508-0.154-0.777
	c0.2-0.009,0.399-0.038,0.594-0.086v-0.196h-0.286c-0.038-0.221-0.045-0.446-0.022-0.669c0.262-0.042,0.529-0.049,0.793-0.022
	C13.907,11.571,13.915,11.622,13.913,11.673z"/>
</svg>
