<?xml version="1.0" encoding="utf-8"?>
<!-- Generator: Adobe Illustrator 16.0.0, SVG Export Plug-In . SVG Version: 6.00 Build 0)  -->
<!DOCTYPE svg PUBLIC "-//W3C//DTD SVG 1.1//EN" "http://www.w3.org/Graphics/SVG/1.1/DTD/svg11.dtd">
<svg version="1.1" id="Layer_1" xmlns="http://www.w3.org/2000/svg" xmlns:xlink="http://www.w3.org/1999/xlink" x="0px" y="0px"
	 width="40px" height="40px" viewBox="0 0 40 40" enable-background="new 0 0 40 40" xml:space="preserve">
<path id="ussr_t_126sp_ico" fill="#FFFFFF" d="M27.557,11.746c-0.048-0.11-0.082-0.226-0.101-0.344
	c0.069-0.082,0.125-0.147,0.2-0.221h0.199c0.163,0.082,0.237,0.273,0.174,0.443c-0.046,0.04-0.08,0.091-0.1,0.148
	c0.285,0.057,0.578,0.057,0.863,0c0.011,0.068,0.047,0.129,0.1,0.172l0.594,0.246c0.182-0.121,0.406-0.157,0.617-0.1v0.1
	c0.119,0.137,0.271,0.24,0.443,0.3c0.111,0.257,0.246,0.504,0.4,0.738h1.383c0.02,0.017,0.055,0.032,0.074,0.049
	c0.019,0.03,0.027,0.065,0.025,0.1h2.024c0.046,0.045,0.087,0.095,0.123,0.148h4.79c0.211,0.048,0.431,0.048,0.642,0v0.541
	c-1.763-0.026-3.628-0.024-5.432-0.025v0.074c-0.05,0.005-0.095,0.032-0.123,0.074H32.42V14.3c-0.46,0.032-0.922,0.041-1.383,0.025
	c-0.039,0.041-0.064,0.092-0.074,0.148c0.016,0.021,0.025,0.047,0.025,0.074c-0.145,0.183-0.268,0.381-0.37,0.59
	c-0.062,0.015-0.12,0.04-0.173,0.074c-0.045,0.099-0.123,0.177-0.223,0.221c-0.061-0.036-0.13-0.052-0.199-0.049
	c-0.126,0.244-0.274,0.474-0.444,0.689h-1.308v0.1l1.58,0.025c0.047,0.045,0.096,0.086,0.148,0.123
	c0.084-0.019,0.166-0.043,0.247-0.074c0.175-0.021,0.351-0.005,0.519,0.049c0.02,0.165,0.154,0.291,0.32,0.3
	c0.011,0.086,0.035,0.169,0.074,0.246c0.079-0.031,0.168-0.031,0.247,0c0.038,0.1,0.03,0.119,0.173,0.123v0.148l0.3,0.023v0.2
	c0.11,0.003,0.22,0.029,0.321,0.074c0.029,0.088,0.029,0.183,0,0.271c0.209,0.109,0.401,0.25,0.568,0.418
	c0.059,0.002,0.114-0.025,0.147-0.074c-0.06-0.154-0.021-0.329,0.101-0.443c0.06-0.144-0.028-0.273,0.024-0.393
	c0.141-0.046,0.294-0.029,0.42,0.049c0.188-0.11,0.415-0.128,0.617-0.049c0.039,0.228,0.048,0.459,0.024,0.689
	c0.023,0.047,0.01,0.029,0,0.1h0.049c0.14-0.019,0.28-0.027,0.421-0.025c0.027-0.021,0.052-0.047,0.073-0.074l0.494-0.074
	c0.025,0.054,0.09,0.077,0.145,0.051c0.001,0,0.002-0.001,0.004-0.002c0.055-0.026,0.113-0.042,0.173-0.049
	c-0.001,0.067,0.008,0.134,0.024,0.2v0.025c0.297-0.058,0.602-0.041,0.89,0.049l0.399,0.025c0.23,0.083,0.453,0.183,0.668,0.3
	c0.104,0.021,0.204,0.054,0.3,0.1c0.029,0.047,0.054,0.097,0.073,0.148c0.117,0.156,0.252,0.3,0.371,0.467
	c0.136,0.13,0.252,0.279,0.346,0.443l-0.148,0.123c0.129,0.354,0.18,0.73,0.148,1.106c-0.353,0.052-0.694,0.159-1.012,0.32
	c0.29,1.153-0.252,2.354-1.31,2.899c-0.101,0.072-0.175,0.2-0.272,0.271c-0.354,0.266-0.679,0.547-1.037,0.811
	c-0.668,0.493-1.275,1.075-1.95,1.574c-0.503,0.454-1.069,0.835-1.679,1.131c-0.297,0.088-0.605,0.13-0.914,0.123h-0.482
	c-0.369,0.043-0.74,0.052-1.111,0.025h-12.1c-0.361,0.027-0.725,0.027-1.086,0l-6.247,0.024c-0.493,0.043-0.989,0.035-1.481-0.024
	L7.259,27.9c-0.81-0.316-1.594-0.695-2.346-1.131L4.494,26.6c-0.366-0.227-0.746-0.432-1.136-0.615
	c-0.237-0.09-0.468-0.197-0.691-0.319c-0.209-0.14-0.407-0.296-0.593-0.465c-0.107-0.176-0.25-0.327-0.42-0.443
	c-0.084-0.241-0.209-0.466-0.37-0.664l0.025-0.27c-0.024-0.072-0.095-0.116-0.123-0.2c0.072-0.18,0.089-0.377,0.049-0.566
	c-0.208,0.059-0.425-0.063-0.483-0.271c-0.004-0.017-0.008-0.032-0.01-0.049c-0.028-0.085-0.01-0.179,0.049-0.245
	c0.168-0.131,0.387-0.177,0.593-0.123c0-0.282,0.07-0.735,0.074-1.131h0.1v-0.049c0.052-0.269,0.085-0.54,0.1-0.813H0.691
	C0.461,20.34,0.227,20.348,0,20.4V20.3h0.074c-0.011-0.059-0.027-0.116-0.049-0.172L0.1,20.107c0.021-0.017,0.047-0.025,0.074-0.025
	v-0.1l0.914-0.025c0.313,0.018,0.627,0.01,0.938-0.025c0.063-0.127,0.157-0.236,0.272-0.319c0.241-0.052,0.453-0.192,0.593-0.394
	c-0.02-0.012-0.037-0.029-0.049-0.049c0.048-0.024,0.089-0.059,0.123-0.1c-0.238-0.258-0.429-0.557-0.565-0.881
	c0.073-0.004,0.143-0.03,0.2-0.074c0.056-0.072,0.134-0.124,0.222-0.148c0.054,0-0.005,0.064,0.074,0.049
	c0.077-0.036,0.151-0.077,0.222-0.123C3.44,17.798,3.74,17.639,4,17.426c0.055,0.031,0.113,0.056,0.173,0.074
	c0.035-0.042,0.079-0.076,0.127-0.1c-0.022-0.055-0.044-0.063-0.025-0.1c0.037-0.042,0.089-0.067,0.145-0.07
	c0.032,0.061-0.011,0.017,0.049,0.049l0.123-0.148h0.025v0.025c0.104,0.091,0.182,0.21,0.222,0.344c-0.081-0.011-0.16,0.029-0.2,0.1
	c0.072,0.08,0.131,0.171,0.173,0.27c0.119-0.075,0.242-0.142,0.37-0.2v0.03c0.02,0.021,0.037,0.047,0.049,0.074
	c0.24-0.116,0.45-0.284,0.617-0.492c0.06,0.056,0.141,0.083,0.222,0.074c0.355-0.154,0.675-0.38,0.938-0.664
	c-0.056-0.077-0.133-0.137-0.222-0.172v-0.077h0.1c0.063,0.07,0.12,0.144,0.173,0.221c0.257-0.112,0.493-0.269,0.694-0.464
	c0.273-0.018,0.545-0.052,0.815-0.1c0.038-0.15,0.158-0.134,0.346-0.123c0.176-0.1,0.229,0.15,0.4,0.148
	c0.209,0,0.516-0.028,0.765-0.025v-0.125h0.642V16.1c0.047,0.016,0.097,0.025,0.148,0.025c-0.021-0.11,0.018-0.224,0.1-0.3
	c0.271-0.081,0.557-0.09,0.831-0.025l0.025,0.074c0.041,0.075,0.059,0.161,0.049,0.246c0.438-0.009,0.99,0.029,1.457-0.025
	c0.005-0.092,0.021-0.183,0.049-0.271l0.074-0.025c0.277-0.065,0.567-0.056,0.84,0.025l0.052,0.276c0.082,0.006,0.165,0.006,0.247,0
	v-0.125h0.642v0.148c0.075,0.004,0.15-0.004,0.222-0.025v-0.024h-0.173c0.121-0.403,0.286-0.791,0.494-1.156
	c-0.084-0.023-0.077-0.009-0.1-0.1c0.018-0.067,0.009-0.139-0.025-0.2H15.7c0.031-0.021,0.064-0.037,0.1-0.049
	c0.132-0.157,0.187-0.365,0.148-0.566c0.4-0.082,0.119-0.31,0.2-0.492c0.053-0.123,0.142-0.011,0.1-0.246
	c0.087-0.011,0.167-0.055,0.222-0.123c0.081-0.096,0.1-0.229,0.049-0.344c0.058,0,0.113-0.027,0.148-0.074
	c0.073-0.098,0.132-0.206,0.173-0.32c-0.002-0.07-0.019-0.138-0.049-0.2c0.05-0.013,0.1-0.029,0.148-0.049l0.025-0.074
	c0.041-0.004,0.082-0.004,0.123,0c0.092-0.1,0.141-0.4,0.222-0.467h0.1c0.125-0.104,0.205-0.252,0.221-0.414
	c0.343-0.054,0.692-0.063,1.037-0.025c0.059,0.002,0.116,0.01,0.173,0.025c0.075,0.029,0.13,0.094,0.148,0.172
	c0.079-0.026,0.265-0.029,0.346-0.049l0.025,0.049H20.4c0.068-0.239,0.272-0.413,0.518-0.443c0.037,0.026,0.078,0.043,0.123,0.049
	c0.049,0.058,0.084,0.126,0.1,0.2h0.791c0.055,0.062,0.104,0.129,0.147,0.2h0.567V11.2c0.883,0,1.773,0.046,2.643,0.049V11.2
	c-0.043-0.175-0.016-0.36,0.074-0.516v-0.61c0.307-0.072,0.625-0.088,0.938-0.049c0.027,0.036,0.044,0.079,0.049,0.123
	c-0.064,0.282-0.029,0.578,0.101,0.836c0.009,0.12-0.017,0.239-0.074,0.344C26.721,11.58,27.131,11.725,27.557,11.746z"/>
</svg>
