<svg xmlns="http://www.w3.org/2000/svg" width="80" height="40" viewBox="0 0 80 40">
  <defs>
    <style>
      .cls-1 {
        fill: #fff;
        fill-rule: evenodd;
      }
    </style>
  </defs>
  <path id="ussr_mbk_161_1944_ico" class="cls-1" d="M37.758,11h0.206v2.851h0.165c0.034-.132-0.02-0.062.082-0.122v0.122a0.2,0.2,0,0,1,.123.041h-0.37V14.38c0.117,0,.016-0.032.123,0.041l-0.041.244a1.421,1.421,0,0,0-.082.855v2.81c0.2,0,.142.469,0.123,0.774a7.956,7.956,0,0,1,0,.9,7.48,7.48,0,0,0,1.316-.041V19.186H39.321a1.14,1.14,0,0,0,.082-0.448H39.321V18.615h0.206a0.116,0.116,0,0,1,.041-0.041l0.041-.285a0.438,0.438,0,0,1-.247-0.041h0.247V18.127h-0.37V17.272h0.782c0,0.775-.081,1.079-0.082,1.873a1.262,1.262,0,0,1,.658.081,4.878,4.878,0,0,1-.658-0.041L39.979,20c0.347,0,.542,0,1.028,0V19.634a3.372,3.372,0,0,1,.329-0.122V19.389h0.329c0.034,0.132-.02.062,0.082,0.122V18.29H41.83v1.262a1.754,1.754,0,0,1,.74.041L42.612,20h0.453V19.145H43.64V18.29h0.082v0.855a15.406,15.406,0,0,0,1.81.529,4.636,4.636,0,0,1,.041-1.466h0.041v1.548h0.123l0.041,0.489a1.213,1.213,0,0,1,.411.082v0.122c-0.009.08,0.028,0.124,0.041,0.326H46.108v0.081a1.452,1.452,0,0,0,.123.366,1.685,1.685,0,0,1,.864-0.285c0.034,0.132-.02.062,0.082,0.122,0.017-.146-0.019-0.1.082-0.163,0.344-.2.858,0.476,1.111,0.081-0.1-.053-0.028.017-0.082-0.081,0.229,0,.224,0,0.453,0a0.626,0.626,0,0,1,.041-0.326v0.367a0.439,0.439,0,0,0-.288.122h0.987a3.293,3.293,0,0,0,.576,0v0.122H50.015a0.9,0.9,0,0,0-.658.081H48.123V21.3a2.021,2.021,0,0,0,0,.326c0.049,0.094.1-.032,0.123,0.2H48.123l0.041,0.814h0.123a0.43,0.43,0,0,1,.082.2,0.223,0.223,0,0,0-.123.163h0.946V22.321h0.082v0.692a3.4,3.4,0,0,0,.658-0.041A0.974,0.974,0,0,1,51,22a3.56,3.56,0,0,1,.37.244,4.5,4.5,0,0,1,.9,0,0.632,0.632,0,0,0,.041-0.2,1.052,1.052,0,0,0,.411.081c-0.016.136-.041,0.116,0.164,0.122a0.149,0.149,0,0,1,.082-0.041l0.041-.407h0.206a0.116,0.116,0,0,0,.041.041,0.825,0.825,0,0,0,.082.407,1.888,1.888,0,0,0,.658.082c0.087,0.023.213,0.14,0.288,0.163h0.823a0.485,0.485,0,0,0,.206.122V22.321H55.4v0.285l2.879,0.041a1.648,1.648,0,0,0,.123-0.407,0.147,0.147,0,0,1,.041.082,2.53,2.53,0,0,1,0,.326h0.494v0.244H58.447v0.122l2.92-.041a1.919,1.919,0,0,1,.082-0.937v0.937a4.475,4.475,0,0,0,1.193-.2c0.007,0.194.087,0.134,0.37,0.122,0.175-.1.531-0.015,0.7-0.122a0.272,0.272,0,0,0,.041-0.163,0.66,0.66,0,0,1-.452-0.244c0.165-.264.139-0.965,0.247-1.14a1.008,1.008,0,0,0-.453-0.041V20.855a1.5,1.5,0,0,0,.658-0.163,0.207,0.207,0,0,0,.041-0.122,0.342,0.342,0,0,1-.082-0.326A0.613,0.613,0,0,1,64,20.122a0.518,0.518,0,0,1,.206.57h0.082V20.652a0.4,0.4,0,0,0,.165-0.2c0.012-.007-0.065-0.2-0.082-0.326a0.368,0.368,0,0,1,.37-0.163,0.211,0.211,0,0,0,.123.041,2.848,2.848,0,0,1-.041.611l0.123,0.041a2.275,2.275,0,0,0,.535.081c0.006,0.272.346,0.175,0.7,0.163a3,3,0,0,0,1.069.041h2.8V21.1a36.155,36.155,0,0,0-3.949.041V21.3c0.108,0.016.054-.03,0.082,0.081H66.139v0.041c-0.087-.071-0.06-0.08-0.123-0.081a0.172,0.172,0,0,0-.041.2c0.06,0.1-.009.046,0.123,0.082a0.58,0.58,0,0,1-.041.2H66.18a0.139,0.139,0,0,1,.041-0.081v0.2H66.18a1.006,1.006,0,0,0-.452-0.041,0.676,0.676,0,0,0,.206.407H65.645v0.244a30.365,30.365,0,0,0,4.278-.611l1.152-.122,3.5-.611c1.03-.246,2.171-0.074,3.249-0.285V20.489a5.337,5.337,0,0,1-.082-1.425L77.614,16.7H77.7a0.288,0.288,0,0,0,.206.122v0.041H77.861a0.212,0.212,0,0,1-.123.041c-0.011,1.32.231,2.64,0.206,3.991h0.082A8.861,8.861,0,0,0,80,20.855a2.325,2.325,0,0,1-.535.855,10.263,10.263,0,0,0-.7,1.466c-0.52,1.237-.889,2.528-1.481,3.665a2.418,2.418,0,0,1-.946,1.262c-0.795.4-2.035,0.234-3,.448H72.761c-0.7.153-1.6,0.006-2.3,0.163h-0.9c-0.652.142-1.49-.069-2.18,0.081a8.566,8.566,0,0,1-1.563.041l-2.1.041H60.339a9.833,9.833,0,0,1-1.81.041H55.075c-3.377,0-6.883.041-10.324,0.041H27.969a10.961,10.961,0,0,1-2.057-.041L16.576,28.8c-0.953-.21-2.1-0.042-3-0.244H13.162c-1.2-.267-2.495-0.345-3.62-0.611a4.515,4.515,0,0,0-1.522.041l-0.946-.041c-0.708,0-1.448.036-2.1,0.041a2.094,2.094,0,0,1-.288.652H4.648V27.941c-0.153.035-.187,0.046-0.247-0.122a0.433,0.433,0,0,1,.247-0.081c0-.207.052-0.718,0.041-0.733a2.591,2.591,0,0,0-.9-0.2v0.082a4.8,4.8,0,0,1,0,1.547,0.622,0.622,0,0,1-.165.081,6.424,6.424,0,0,1-1.851,0l-0.041-.122A4.691,4.691,0,0,1,1.522,26.8a0.727,0.727,0,0,1,.165-0.122,3.709,3.709,0,0,0,.987-0.122H2.468a5.578,5.578,0,0,0-.946-0.244C1.207,25.681.024,24.569,0,23.869H0.165a5.884,5.884,0,0,1,.041-1.588H0.247v1.1C0.354,23.4.3,23.35,0.329,23.462a3.7,3.7,0,0,0,0,.407H0.411v-0.2a6.865,6.865,0,0,0-.041-1.71C0.284,20.392.19,19.246,0.165,17.8H0.206a0.4,0.4,0,0,0,.206.122,0.206,0.206,0,0,1,.041.122H0.288c-0.017,1.93.28,3.922,0.411,5.824H1.111V22.24H1.152v0.082a5.84,5.84,0,0,1,.041,1.547H1.728a9.173,9.173,0,0,0,.041-0.977H3.414V22.24H3.455v0.082a1.338,1.338,0,0,1,.041.57H3.784v0.041a3.641,3.641,0,0,0-.041.937H5.265a1.372,1.372,0,0,1,.7-0.041V23.217H5.882a0.748,0.748,0,0,1-.535,0l0.617-.041v-0.9a1.206,1.206,0,0,1-.658,0,1.482,1.482,0,0,1,.9.041H6.005v0.855H6.293v0.041H6.252c-0.079.032,0.082,0.041,0.082,0.041a0.657,0.657,0,0,1,.329-0.041v0.041H6.622C6.543,23.29,6.7,23.3,6.7,23.3a0.888,0.888,0,0,1,.411-0.041,4.327,4.327,0,0,1,.041-0.814,2.52,2.52,0,0,1-.864-0.122,0.889,0.889,0,0,0,.535-0.163H6.416a2.608,2.608,0,0,0-.946-0.041c-0.834,0-1.692.031-2.468,0.041v-0.2L5.964,22a7.528,7.528,0,0,1,1.44-.122c0.134-.18.324-0.345,0.452-0.529a0.273,0.273,0,0,1-.082-0.2,0.817,0.817,0,0,0,.37-0.611,0.25,0.25,0,0,1-.082-0.081H8.1a7.176,7.176,0,0,1,1.645-.082,4.435,4.435,0,0,0,.37,1.385H10.9v0.081a7.157,7.157,0,0,1,.082,1.751h0.452c-0.01.125-.054,0.208,0.082,0.285V22.688h0.946V22.321h0.082v0.366h0.494v0.081a2.7,2.7,0,0,1,.041,1.1h0.7V23.624H13.532V23.136a6.853,6.853,0,0,0,.864-0.081v0.692a0.527,0.527,0,0,1-.164-0.041v0.163c0.438,0,.893-0.023,1.275-0.041V22.321h0.082a1.082,1.082,0,0,0,.041.489,0.149,0.149,0,0,1,.082-0.041,4.177,4.177,0,0,1,.206-1.14,3.511,3.511,0,0,0-1.234-.082H12.01V21.385c1.531,0,3.093-.039,4.566-0.041v-0.2l0.535-.081,0.041-.122a0.726,0.726,0,0,1-.165-0.367l0.247-.2a2.106,2.106,0,0,1,.247.122,2.028,2.028,0,0,1,.411-0.041,2.2,2.2,0,0,1,.041.529,5.849,5.849,0,0,0,.987.326v0.326H18.509v0.163a0.705,0.705,0,0,1-.247-0.041v0.041a1.849,1.849,0,0,0,.329.529s0.008-.159.041-0.082v0.082a6.087,6.087,0,0,1,.041,1.547l0.535-.041v-0.2H19V23.136a4.621,4.621,0,0,0,.823-0.081v0.692H19.743V23.706H19.7v0.122l1.933,0.041V22.891H20.812V22.647h0.823V22.321h0.082v0.326l2.879-.041a3.007,3.007,0,0,1,.165-0.367v0.082a0.273,0.273,0,0,1,.041.163,5.962,5.962,0,0,0,1.645-.244l0.082-.448h0.206v0.041h0.041a0.512,0.512,0,0,0,.082.367,0.359,0.359,0,0,0,.206.041c0.052-.118-0.047-0.084.123-0.122a1.965,1.965,0,0,0,.247-0.081c0.109,0.26.371,0.221,0.74,0.2a0.691,0.691,0,0,1,.247,0c0.084-.027.222-0.21,0.329-0.244a1.327,1.327,0,0,1,.617.081V22.2a2.087,2.087,0,0,1,.7,1.344,1.473,1.473,0,0,1-.658.081l-0.041.2h0.658a2.012,2.012,0,0,0,.782.041,9.163,9.163,0,0,1,.041-1.629H30.89v1.629h0.493V23.706a1.825,1.825,0,0,0,.7-0.814,2.083,2.083,0,0,1,.576-0.326,1.433,1.433,0,0,1,.535-0.448,0.238,0.238,0,0,0,0,.163,2.039,2.039,0,0,0,.7.407,0.355,0.355,0,0,1,.082-0.366,0.965,0.965,0,0,0,.411.855V23.1a0.624,0.624,0,0,0,.082-0.366H34.8a3.747,3.747,0,0,0,.288,1.018l0.082-.041a6.76,6.76,0,0,0,.041-1.792,0.443,0.443,0,0,1-.288-0.285h0.123a10.344,10.344,0,0,1,.123-1.833v0.9h0.082v0.082H35.167v0.855c0.408,0,.844-0.015,1.193-0.041a6.811,6.811,0,0,0-.041-2.24h0.123a2.435,2.435,0,0,1,0-.9h0.041V18.412h0.123c0.034-.132-0.02-0.062.082-0.122,0.061,0.155.253,0.185,0.288,0.326s-0.155.471-.165,0.733a0.2,0.2,0,0,1,.123.041,0.767,0.767,0,0,0-.082.57c0,0.553.018,1.134,0.041,1.629h0.123a1.187,1.187,0,0,1,.082-0.652q-0.021.346-.041,0.692h0.7v-3.5H37.594V18h0.165V14.421H37.635a1.655,1.655,0,0,0-.576-0.489,6.641,6.641,0,0,0-1.4-1.14c-0.06.1,0.009,0.046-.123,0.081L35.5,12.751a0.316,0.316,0,0,0,.165-0.163,0.117,0.117,0,0,1,.041.041c0.554,0.358,1.027.864,1.563,1.262a1.9,1.9,0,0,0,.494.407V11Zm0.37,2.566a0.528,0.528,0,0,1,.165.041v0.041C38.109,13.639,38.137,13.672,38.129,13.566Zm1.933,4.6,0.37,0.041V18.29H40.35C40.222,18.213,40.026,18.316,40.062,18.167Zm-2.015.041h0.082v0.041A0.141,0.141,0,0,1,38.046,18.208Zm2.427,0,0.165,0.041V18.29A0.163,0.163,0,0,1,40.473,18.208Zm-2.262.041a0.757,0.757,0,0,1,.37.041A0.758,0.758,0,0,1,38.211,18.249Zm0.535,0.041a0.993,0.993,0,0,1,.452.041A0.993,0.993,0,0,1,38.746,18.29Zm-0.535.855a0.873,0.873,0,0,1,.411.041A0.873,0.873,0,0,1,38.211,19.145Zm0.576,0.041a0.758,0.758,0,0,1,.37.041A0.755,0.755,0,0,1,38.787,19.186Zm1.275,0.122a0.936,0.936,0,0,1,.206.611H40.226V19.837A1.148,1.148,0,0,1,40.062,19.308Zm25.871,0.977c0.046,0.081.025,0.074,0,.163H65.892V20.367A0.147,0.147,0,0,0,65.933,20.285Zm0.041,0.2a0.146,0.146,0,0,1,.041.081H65.974V20.489Zm0.041,0.2a0.147,0.147,0,0,1,.041.082H66.015V20.692Zm-49.974.082a0.2,0.2,0,0,1,.123.041H16.082l-0.041.041V20.774Zm0.041,0.081a0.147,0.147,0,0,1,.041.081H16.082V20.855Zm33.4,0a0.207,0.207,0,0,1,.041.122H49.481V20.855ZM16,20.977a0.146,0.146,0,0,1,.041.081H16V20.977Zm0.041,0.081a0.147,0.147,0,0,1,.041.081H16.041V21.059Zm-0.082.122a0.147,0.147,0,0,1,.041.081H15.959V21.181ZM66.18,21.466a0.146,0.146,0,0,1,.041.081H66.18V21.466Zm-65.6.081a0.162,0.162,0,0,1,0,.2v-0.2Zm65.563,0a0.146,0.146,0,0,1,.041.082H66.139V21.548Zm0.082,0.122a0.146,0.146,0,0,1,.041.081H66.221V21.67Zm0.041,0.2a0.146,0.146,0,0,1,.041.081H66.262V21.873Zm-0.041.081a0.146,0.146,0,0,1,.041.081H66.221V21.955Zm-5.018.081,0.123,0.041v0.041H61.08a0.28,0.28,0,0,1-.165.041V22.077A0.537,0.537,0,0,0,61.2,22.036Zm-0.411.041,0.082,0.041a0.913,0.913,0,0,1-.206.041V22.118A0.2,0.2,0,0,0,60.792,22.077Zm5.511,0a0.147,0.147,0,0,1,.041.082H66.3V22.077Zm-0.041.082a0.146,0.146,0,0,1,.041.081H66.262V22.158ZM0.617,22.2a0.147,0.147,0,0,1,.041.081H0.617V22.2Zm65.728,0.081a0.147,0.147,0,0,1,.041.081H66.345V22.281Zm-0.041.081a0.147,0.147,0,0,1,.041.081H66.3V22.362Zm-66.015.774a0.147,0.147,0,0,1,.041.081H0.288V23.136Z"/>
</svg>
