<svg xmlns="http://www.w3.org/2000/svg" width="39.969" height="40" viewBox="0 0 39.969 40">
  <defs>
    <style>
      .cls-1 {
        fill: #fff;
        fill-rule: evenodd;
      }
    </style>
  </defs>
  <path id="Color_Fill_1" data-name="Color Fill 1" class="cls-1" d="M18.284,12.825V11.211a0.731,0.731,0,0,1,.587.359,3.374,3.374,0,0,1,.361-0.09v1.256h-0.09a0.787,0.787,0,0,0-.5-0.09,0.929,0.929,0,0,0-.135-0.314H18.465v0.493h2.167V12.511c0.3-.1.489-0.4,0.767-0.493l0.768,0.045h8.4c1.135,0,3.632.14,4.018-.179v0.628H34.537a0.224,0.224,0,0,0-.226-0.179v0.135a0.826,0.826,0,0,1,.045.4h0.181c0.185,0.494.393,1.009,0.587,1.48a4.069,4.069,0,0,0,.18.717,0.366,0.366,0,0,1,.316,0c-0.034-.039-0.057-0.051-0.09-0.09h0.09c0.094-.17.195-0.111,0.406-0.09,0.058,0.111-.019.03,0.09,0.09v0.045c-0.029.046-.1,0.009-0.045,0.045,0.033,0.039.057,0.051,0.09,0.09H36.027c0.037,0.146-.022.069,0.09,0.135a0.445,0.445,0,0,1,.226-0.179,2.684,2.684,0,0,0,.09.942,5.774,5.774,0,0,0,.993.538c0.46,0.278.967,0.513,1.445,0.807l0.09,0.134H40v5.291a1.085,1.085,0,0,0-.5.045,0.588,0.588,0,0,1,.316.045,3.113,3.113,0,0,1,.045,1.166H39.233a3.541,3.541,0,0,1-.09.807c-0.082.372,0.062,0.854-.045,1.166l-0.09-.045V25.964H38.962a7.157,7.157,0,0,0,0-1.7H38.781V24.3a5.04,5.04,0,0,1,.09,1.614h-1.9v0.09a1.336,1.336,0,0,1-.045,1.031l-0.226.852a5.964,5.964,0,0,1-.722.9,5.448,5.448,0,0,1-1.219.717L34,29.552a2.322,2.322,0,0,1-.587.09,7.069,7.069,0,0,1-.9-0.314l-0.316-.045a3.389,3.389,0,0,1-.316-0.314,3.28,3.28,0,0,1-1.761-3l-2.98-.045v0.134H26.591c-0.054.023,0.012,0.09-.135,0.09s-0.082-.067-0.136-0.09h-2.3c-0.157.062-.339,0.3-0.5,0.359H16.433a4.787,4.787,0,0,0-.767.493c-0.106.061-.255,0.019-0.361,0.09a0.811,0.811,0,0,0-.09.224,1.93,1.93,0,0,1-.181.09c-0.076.084-.063,0.228-0.135,0.314s-0.251.193-.316,0.269a1.72,1.72,0,0,1-.542.9c-0.06.037-.136-0.038-0.226,0a2.924,2.924,0,0,0-.316.359,0.806,0.806,0,0,0-.5.179s0.13,0.059.09,0.09H13.047c-0.067.119-.031,0.139-0.135,0.179a0.6,0.6,0,0,1-.226,0l-0.045-.134H12.6a1,1,0,0,0-.361.179,3.474,3.474,0,0,1-.632,0c0.018,0.1.041,0.049,0,.134a1.575,1.575,0,0,0-.135.134,0.915,0.915,0,0,0-.226-0.045c-0.076-.194-0.078-0.227-0.361-0.224a0.957,0.957,0,0,1-.722-0.224V29.6H9.977a0.288,0.288,0,0,1-.045.179,1.4,1.4,0,0,0-.226-0.493A2.325,2.325,0,0,1,8.984,28.7c-0.135.1-.122,0.146-0.316,0.09a0.216,0.216,0,0,1-.045.135,1.117,1.117,0,0,1,0-.538c-0.506-.19-0.251-0.643-0.587-0.807a0.175,0.175,0,0,1-.135.09,0.419,0.419,0,0,1-.135-0.359A0.2,0.2,0,0,0,7.9,27.175a1.551,1.551,0,0,1-.181-0.942c-0.138-.018-0.389-0.155-0.271-0.359,0.023-.039.2-0.052,0.226-0.09a0.876,0.876,0,0,0,0-.448A2.575,2.575,0,0,0,7.9,24.8,5.365,5.365,0,0,0,7.54,24.35a0.766,0.766,0,0,0-.677.09,0.305,0.305,0,0,0-.09-0.179,1.561,1.561,0,0,0,.09-0.269H6.682v3.363H6.546V26.368H6.456a2.548,2.548,0,0,0-.09,1.121H6.321v0.045H6.23V25.919H3.115a4.984,4.984,0,0,1,.09-1.928H2.032V23.767H1.354V23.632l0.677-.045V21.749H1.625V18.072H1.49V17.848H1.309V17.713L6,17.668a4.576,4.576,0,0,0,1.535-.09H0.226a0.163,0.163,0,0,0-.09-0.045A15.321,15.321,0,0,1,.09,14.484,0.819,0.819,0,0,0,.226,14.17c0.784-.493,2.972-0.187,4.2-0.179V13.9a2.949,2.949,0,0,1-.271-0.673H4.334c0.074,0.047.21,0,.316,0.045a1.241,1.241,0,0,0,.226.179V12.377H9.3a14.837,14.837,0,0,0,.722-1.883l2.438-.314a2.823,2.823,0,0,1,.858-0.135c0.269,0.1.348,0.372,0.632,0.448a2.9,2.9,0,0,0,1.038.045,13.849,13.849,0,0,1,2.98.179,2.977,2.977,0,0,1,.045,1.121,2.272,2.272,0,0,1,0,1.031H18.1A0.306,0.306,0,0,1,18.284,12.825Zm0.181-1.435a1.2,1.2,0,0,0,.045.538,0.562,0.562,0,0,1,.271-0.359ZM7.4,13.857a1.053,1.053,0,0,0,.451.09v-0.09H7.4Zm0.767,0a0.879,0.879,0,0,0,.451.09V13.9H8.668V13.857h-0.5ZM34.9,15.2a0.324,0.324,0,0,0,.181.09A0.323,0.323,0,0,0,34.9,15.2ZM16.93,17.982c0.078,0.04.058,0.04,0.136,0H16.93Zm3.521,0.134a2.41,2.41,0,0,0,.045.942A2.41,2.41,0,0,0,20.452,18.117ZM7.946,23.991a0.531,0.531,0,0,0,.226.09V24.036H8.217V23.991H7.946Zm30.835,0.09a0.133,0.133,0,0,0,.181,0H38.781Zm-30.925.493-0.045.09C7.889,24.6,7.856,24.574,7.856,24.574Zm23.7,1.928a1.728,1.728,0,0,0,.045.4h0.045V26.861l0.406-.269V26.547H31.828A0.492,0.492,0,0,0,31.558,26.5Zm3.657,0.045a0.6,0.6,0,0,1-.316.045v0.09a1.034,1.034,0,0,1,.316.269,0.161,0.161,0,0,0,.045-0.09,1.417,1.417,0,0,0,.135-0.314H35.214Zm-20.09.538-0.045.09C15.158,27.112,15.124,27.085,15.124,27.085Zm19.458,0.09a2.819,2.819,0,0,0,.181.493,0.161,0.161,0,0,0,.045-0.09,0.451,0.451,0,0,0,.226-0.269A2.041,2.041,0,0,0,34.582,27.175Zm-2.032.942c0.034-.238.14-0.3,0.181-0.538H32.686v0.09a0.648,0.648,0,0,0-.271.4A0.231,0.231,0,0,0,32.551,28.117ZM34,27.758l-0.045.4h0.09c0.053-.052.128-0.082,0.181-0.134C34.137,27.946,34.081,27.838,34,27.758Zm-0.858.538a0.511,0.511,0,0,0-.09-0.359v0.045a0.592,0.592,0,0,0-.181.269Zm0.361-.314a0.815,0.815,0,0,0-.045.269h0.09A0.47,0.47,0,0,0,33.5,27.982Zm-19.142.269a0.164,0.164,0,0,1-.09.045v0.045C14.318,28.321,14.479,28.289,14.357,28.251Zm-0.316.314v0.09h0.09V28.61ZM14.221,28.7a0.219,0.219,0,0,1,.136.045A0.22,0.22,0,0,1,14.221,28.7Zm-4.289.762a0.163,0.163,0,0,0,.09.045A0.164,0.164,0,0,0,9.932,29.462Zm1.445,0.269a0.162,0.162,0,0,0,.09.045A0.164,0.164,0,0,0,11.377,29.731Zm0.09,0.179c0.05,0.074.08,0.048,0,.09V29.91Z" transform="translate(-0.031 -0.016)"/>
</svg>
