<svg xmlns="http://www.w3.org/2000/svg" width="39.969" height="40" viewBox="0 0 39.969 40">
  <defs>
    <style>
      .cls-1 {
        fill: #fff;
        fill-rule: evenodd;
      }
    </style>
  </defs>
  <path id="ussr_bmp_1_ico" class="cls-1" d="M2.9,21.61H3.946V21.558c0.034,0,.279,0,0.3,0a3.537,3.537,0,0,0,1.1.053V21.558c0.09-.032.456,0.053,0.51,0.026a2.87,2.87,0,0,1,.94-0.158l0.027,0.236c0.376,0,.535-0.1.859-0.105L7.7,21.426H8.7v0.131h1.557a1.376,1.376,0,0,1,.054-0.21h0.913v-0.21h0.054a1.413,1.413,0,0,1,.537-0.026V21.032h0.134v0.079h0.591v0.026h0.027a1.774,1.774,0,0,0,.027.368,1.093,1.093,0,0,0,.3.026,1.8,1.8,0,0,1,.215-0.526,0.516,0.516,0,0,1-.43-0.289,0.69,0.69,0,0,1,.161-0.841,0.374,0.374,0,0,1-.081-0.184c0.068-.049.073-0.135,0.134-0.184,0.191-.153.367-0.3,0.564-0.447a1.568,1.568,0,0,1,.376-0.342,2.282,2.282,0,0,0,.564.552,0.075,0.075,0,0,1-.027.026l-0.456.473h0.081a0.952,0.952,0,0,1,.51-0.026v0.105H14.6a0.37,0.37,0,0,0-.027-0.131h0.054V19.77a0.132,0.132,0,0,1,.027.079c0.229-.014.422-0.073,0.671-0.079V19.586h0.483l0.027-.736A0.842,0.842,0,0,1,15.6,18.8H15.571V18.771c0.1-.011.068,0.012,0.107-0.052a0.484,0.484,0,0,0-.268-0.053V18.509L15.3,18.482c0,0.1.013,0.118-.054,0.158a0.076,0.076,0,0,1-.027.026V18.535a0.174,0.174,0,0,1-.027-0.105H15.06V18.377c0.142,0,.151,0,0.161-0.131H15.3V18.4h0.054a0.445,0.445,0,0,0,.054-0.289h0.161V18.009H15.517a0.151,0.151,0,0,1-.215,0,0.224,0.224,0,0,1-.027-0.131,0.294,0.294,0,0,0,.107-0.184H15.141a0.285,0.285,0,0,1-.188.079V17.746H14.98a0.5,0.5,0,0,1,.134-0.079V17.641H15.007a7.677,7.677,0,0,1-1.1,0,0.951,0.951,0,0,1-.027-0.289,0.588,0.588,0,0,1,.188-0.026V17.221H14.2v0.105c0.239,0,.545-0.039.671-0.026V17.221h0.483V17.3h0.51l0.027-.079a0.555,0.555,0,0,0,.054-0.394c-0.022-.042-0.082.014-0.081-0.079A3.451,3.451,0,0,1,16,16.274a2.829,2.829,0,0,0-.268-0.158,1.853,1.853,0,0,1-.054-0.6,1.061,1.061,0,0,1,.456-0.053c0.035-.018.574,0.023,0.752,0.026V15.46h0.027c0-.083-0.038-0.049.054-0.079a0.294,0.294,0,0,0,.322.105,5.419,5.419,0,0,1-.107.788l-0.322-.026a0.437,0.437,0,0,0-.161.263,0.774,0.774,0,0,0-.027.552c-0.078,0-.037-0.025-0.081,0a0.119,0.119,0,0,1,0,.131c-0.076,0-.01-0.021-0.08.026v0.052a4.119,4.119,0,0,0,.456.026V17.221H17.1V17.3l0.376-.026v0.105H17.369v0.105l-0.483.026a0.479,0.479,0,0,1-.081.158,5.064,5.064,0,0,1,.966.105,0.3,0.3,0,0,1,.054.184,2.522,2.522,0,0,1,0,.683,1.422,1.422,0,0,1-.564.053c-0.067.106-.173,0.016-0.3,0a0.715,0.715,0,0,1-.779.026c0.006,0.088.058,0.063-.027,0.105a0.139,0.139,0,0,1-.081.026l0.027,0.736c0.232,0.005.486,0.025,0.752,0.026v0.131a0.588,0.588,0,0,0,.188.026V19.8h0.027V19.77a0.663,0.663,0,0,1,.725-0.184,0.146,0.146,0,0,1,.134-0.053,1.562,1.562,0,0,0,.215-0.289,0.269,0.269,0,0,1-.107-0.289,0.684,0.684,0,0,1,.7-0.368,0.116,0.116,0,0,0,.081.079,0.533,0.533,0,0,0-.081.289h0.134c0.027-.1.018-0.092,0.134-0.105,0.051,0.074.086-.007,0.188-0.026,0.057,0.018.138,0.088,0.188,0.105,0.109,0.037.449,0,.617,0.053v0.079l-0.564-.026a0.475,0.475,0,0,1-.027.236H19.356v0.5L20.725,19.8a3.876,3.876,0,0,0,.671.184V19.849a0.33,0.33,0,0,1,.242-0.079,0.139,0.139,0,0,1,.081-0.026l-0.027-.315a1.5,1.5,0,0,0,.188.026,0.251,0.251,0,0,0,.027.184,0.233,0.233,0,0,0,.161-0.079,0.16,0.16,0,0,1-.107-0.053l-0.027-.394a1.039,1.039,0,0,0,.4.026V19.3a0.224,0.224,0,0,1,.027.131,0.27,0.27,0,0,0-.161.053,0.094,0.094,0,0,1,.027.053h0.027a8.879,8.879,0,0,1,1.074-.105l3.168-.421v0.053a0.279,0.279,0,0,1,.027.158l-3.114.368a0.65,0.65,0,0,1,0,.21,0.586,0.586,0,0,1,.134.053,0.076,0.076,0,0,1-.027.026,0.86,0.86,0,0,1-.3.026,0.767,0.767,0,0,0-.161.342A2.688,2.688,0,0,0,24,20.3a1.643,1.643,0,0,0,.7.053c0.024-.037.437-0.465,0.456-0.473a1.13,1.13,0,0,1,.564-0.053,2.247,2.247,0,0,1,.081.578c1.533,0,3.064.037,4.537,0v0.5l-4.537.026c-0.033.139-.106,0.178-0.134,0.315H25.5V21.137h-0.3V21.19a0.5,0.5,0,0,0-.054.105c0.106,0.011.106-.012,0.134,0.053,0.027,0.043.026,0.168,0.054,0.21a0.994,0.994,0,0,0,.4.026,0.23,0.23,0,0,0,.161.158,0.09,0.09,0,0,1,.027-0.053c0.021,0.115.03,0.1,0.161,0.105a3.278,3.278,0,0,1,1.342,0v-0.21l1.02,0.026v0.21H28.51a1.654,1.654,0,0,0,.617.105c0.126-.268.283-0.277,0.7-0.263a0.19,0.19,0,0,1,.188-0.053v0.053a1.089,1.089,0,0,1,.027.447l0.537,0.026c0.027-.01-0.008-0.067.08-0.052h0.027c0.064,0.023-.019.056,0.134,0.079,0.022-.085-0.013-0.04.054-0.079V22.11c0.055,0.043-.019.031,0.054,0.052V22.136c0.1-.114.036-0.185,0.268-0.184,0.093,0.058.265,0.041,0.349,0.105a0.656,0.656,0,0,1,.027.184,2.963,2.963,0,0,0,.966.21V22.372h0.081a0.326,0.326,0,0,1-.027.105h0.134a0.659,0.659,0,0,0,.242,0c0.01,0.067-.016.041,0.081,0.053a0.476,0.476,0,0,0,.4,0,0.154,0.154,0,0,0,.054.105,2.21,2.21,0,0,1,.322.053c0.1,0.014.1-.043,0.215-0.026,0.008,0.069,0,.052.134,0.053,0.039-.067-0.006-0.03.081-0.053l-0.027.079c0.241,0.025.437,0.1,0.7,0.105,0.022-.085-0.013-0.04.054-0.079v0.105a2.037,2.037,0,0,0,.268-0.026l0.027,0.079A0.471,0.471,0,0,0,35.7,22.9V23c0.17-.01.121-0.026,0.3-0.026,0.034,0.076-.031.054,0.081,0.079a6.729,6.729,0,0,0,1.1.184,1.024,1.024,0,0,1,.913-0.526v0.105H38.6v0.21H38.282a0.423,0.423,0,0,1-.134.131V23.24L38.6,23.266V23.214a1.519,1.519,0,0,0,.134-0.473h0.054v0.131a1.828,1.828,0,0,0-.134.421H38.9a1.059,1.059,0,0,0,.349-0.026,0.432,0.432,0,0,1,.081.105,1.779,1.779,0,0,0,.617.21c0,0.093.037,0.149,0.027,0.158a1.408,1.408,0,0,0-.7.631,0.094,0.094,0,0,1,.027.053,0.409,0.409,0,0,0,.107.053V24.449a0.206,0.206,0,0,1,.081-0.079,6.073,6.073,0,0,1-.134.788H39.275V24.922H39.248a0.931,0.931,0,0,1-.617-0.053,1.557,1.557,0,0,1-.456.315V25.159H38.2a1.116,1.116,0,0,0,.134-0.105,0.378,0.378,0,0,0-.188-0.105,5.727,5.727,0,0,1-1.127.736v0.026h0.027v0.026a0.908,0.908,0,0,0-.054.105,0.385,0.385,0,0,1,.107.289,0.66,0.66,0,0,1-.107.052,2.322,2.322,0,0,0-.027.421H36.94V26.578a0.931,0.931,0,0,1-.027-0.394A1.045,1.045,0,0,0,36.671,26c-0.179.271-.564,0.427-0.725,0.657A0.479,0.479,0,0,1,35.7,27a1.171,1.171,0,0,0-.269-0.236v0.026a2.16,2.16,0,0,0-.51.342c-0.1.063-.2,0.087-0.3,0.158a1.169,1.169,0,0,1-.107.158,0.139,0.139,0,0,1-.081.026,0.334,0.334,0,0,1-.027.184,1.223,1.223,0,0,1-.215.315L34.067,28v0.158H33.906l-0.027.131-0.215.079-0.134.158a2.168,2.168,0,0,0-.242.026,0.743,0.743,0,0,0-.107.21,1.215,1.215,0,0,1-.188.053l-0.027.105-0.3.053-0.081.21-0.161.026-0.081.131c-0.079.038-.178-0.014-0.242,0.026a0.384,0.384,0,0,0-.081.184,0.317,0.317,0,0,1-.161.053l-0.081.131-0.027.026c-0.1.046-.119-0.051-0.215,0a0.454,0.454,0,0,0-.107.21,0.333,0.333,0,0,1-.161.053l-0.081.131a2.663,2.663,0,0,0-.322.079l-0.081.21H30.765a0.941,0.941,0,0,1-.134.026l-0.107.158a1.189,1.189,0,0,0-.3.053c-0.042.04-.013,0.142-0.054,0.184a0.9,0.9,0,0,1-.188.026,0.843,0.843,0,0,1-.134.158l-0.322.026c-0.078.034-.12,0.153-0.188,0.184H29.128c-0.019.006-.089,0.076-0.107,0.079a0.883,0.883,0,0,0-.349-0.079c-0.041.013-.092,0.093-0.134,0.105l-0.3-.026c-0.34.064-.761-0.02-1.074,0.026l-0.242-.052a2.963,2.963,0,0,1-.832,0,1.1,1.1,0,0,1-.483.052l-0.054-.052a0.191,0.191,0,0,0-.107.052,2.817,2.817,0,0,1-.725-0.052,3.1,3.1,0,0,1-.564.052,3.661,3.661,0,0,0-1.02,0,0.186,0.186,0,0,1-.134-0.052,0.992,0.992,0,0,1-.188.052,1.436,1.436,0,0,0-.134-0.052l-0.054.052a1.217,1.217,0,0,1-.483-0.052,0.48,0.48,0,0,1-.188.052,6.315,6.315,0,0,1-.7-0.052,1,1,0,0,1-.483.052L20.7,31.309a4.244,4.244,0,0,1-.43.052c-0.014,0-.084-0.049-0.107-0.052a0.457,0.457,0,0,1-.3.052,5.2,5.2,0,0,0-.752,0,22.015,22.015,0,0,1-2.631-.079,0.232,0.232,0,0,0-.134.079c-0.018,0-.6,0-0.617,0s-0.088-.075-0.107-0.079a0.2,0.2,0,0,0-.161.079,2.24,2.24,0,0,1-.456,0,0.936,0.936,0,0,0-.376-0.079c-0.012,0-.062.073-0.081,0.079s-0.52.007-.537,0l-0.054-.079a0.385,0.385,0,0,0-.322.079H13.181c-0.045-.013-0.106-0.093-0.161-0.105a0.314,0.314,0,0,0-.242.105H12.322a1.083,1.083,0,0,1-.081-0.079c-0.17-.062-0.566.161-0.778,0.079a0.614,0.614,0,0,0-.161-0.105,0.4,0.4,0,0,0-.215.105H10.631a1.085,1.085,0,0,1-.081-0.079,0.4,0.4,0,0,0-.322.079,0.306,0.306,0,0,1-.188-0.052,0.524,0.524,0,0,0-.107.052c-0.193.038-.22-0.154-0.4-0.105-0.041.011-.093,0.093-0.134,0.105H8.94c-0.012,0-.062-0.073-0.081-0.079a1.386,1.386,0,0,0-.43.079,1.9,1.9,0,0,1-.322,0,1.081,1.081,0,0,0-.161-0.105,0.274,0.274,0,0,0-.188.079S7.3,31.283,7.3,31.283l-0.054-.105a1.206,1.206,0,0,0-.4-0.026c-0.058-.019-0.1-0.11-0.161-0.131H6.523l-0.134-.21c-0.086-.056-0.241.022-0.349-0.026l-0.107-.131H5.772l-0.161-.21a1.921,1.921,0,0,0-.322-0.026l-0.107-.131a1.059,1.059,0,0,1-.215-0.026,0.648,0.648,0,0,0-.161-0.21c-0.112-.047-0.146.043-0.268,0C4.488,30.03,4.448,29.936,4.4,29.916H4.242l-0.134-.21c-0.083-.054-0.25.027-0.349-0.026,0,0-.1-0.127-0.107-0.131H3.49A2.443,2.443,0,0,0,3.3,29.312H3.06l-0.134-.158H2.792a1.454,1.454,0,0,1-.107-0.131c-0.1-.065-0.2-0.064-0.3-0.131S2.275,28.718,2.2,28.654A0.449,0.449,0,0,1,2.094,28.6V28.523a3.121,3.121,0,0,1-.268-0.368V28a0.9,0.9,0,0,1-.107-0.105c-0.036-.125.069-0.208,0.027-0.342a0.867,0.867,0,0,1-.859.053,0.344,0.344,0,0,1-.215-0.131,1.472,1.472,0,0,1-.188-0.578A0.989,0.989,0,0,0,.7,26.473c-0.043-.034-0.041-0.1-0.081-0.131l-0.43-.184A3.062,3.062,0,0,1,0,25.527a1.267,1.267,0,0,0,.242-0.42l0.644-.21L0.94,25.132l0.134-.026V25.027A1.5,1.5,0,0,1,.94,24.659l-0.51-.052A0.089,0.089,0,0,0,.4,24.554V24.5H0.43V24.475H0.51V23.608a0.132,0.132,0,0,0,.081-0.026A0.833,0.833,0,0,0,.617,23.4c0.034-.128.078-0.334,0.107-0.421V22.583a1.769,1.769,0,0,1,.134-0.342c0.058-.087.108,0,0.134-0.158H0.805V22H1.181V21.952a0.132,0.132,0,0,1-.027-0.079l-0.376-.026V21.768c0.191,0,.22-0.046.4-0.053V21.61H1.262v0.158a6.324,6.324,0,0,0,.7,0l-0.027-.132H1.96V21.61a4.053,4.053,0,0,0,.671.026V21.584A4.232,4.232,0,0,0,2.658,20.8a2.078,2.078,0,0,0,.054-0.657,0.352,0.352,0,0,1-.027-0.184,5.848,5.848,0,0,0,.054-1.446V10.282a3.447,3.447,0,0,1,.027-0.894H2.792v2.97a1.828,1.828,0,0,1,.027.683v6.887c0.048,0.148-.037.559,0.027,0.815A4.006,4.006,0,0,1,2.9,21.61Zm12.859-4.883a0.094,0.094,0,0,1,.027.053H15.758V16.728Zm-0.7,1.709a1.4,1.4,0,0,1,.537.026h-0.4v0.421H15.06V18.436Zm15.49,3.207a0.094,0.094,0,0,1,.027.052H30.55V21.643Z" transform="translate(0 -0.391)"/>
</svg>
