<?xml version="1.0" encoding="UTF-8"?>
<svg id="Layer_2" data-name="Layer 2" xmlns="http://www.w3.org/2000/svg" width="100" height="100" viewBox="0 0 100 100">
  <defs>
    <style>
      .cls-1 {
        fill: #fff;
        fill-rule: evenodd;
      }
    </style>
  </defs>
  <path class="cls-1" d="M57,72v8l11,10v4h-12l-1-6h-.41l-.59,8h-3l-.44,4h-1.12l-.44-4h-3l-.59-8h-.41l-1,6h-12v-4l11-10v-8h-24v-7l22-19v-5l3-2,1-4c0-20.64,4-29,4-29l.62-.59L49.75,0h.44l.2,5.4.62.6s4,8.36,4,29l1,4,3,2v5l22,19v7h-24Z"/>
</svg>