<svg xmlns="http://www.w3.org/2000/svg" width="40" height="40" viewBox="0 0 40 40">
  <defs>
    <style>
      .cls-1 {
        fill: #fff;
        fill-rule: evenodd;
      }
    </style>
  </defs>
  <path id="Color_Fill_1" data-name="Color Fill 1" class="cls-1" d="M21.336,13.844L23.2,14.058q0.011-.353.022-0.705a3.111,3.111,0,0,1,.022-0.705,0.659,0.659,0,0,1,.2-0.6c0.106-.088.362-0.026,0.478-0.107a0.076,0.076,0,0,0,.022-0.043,0.225,0.225,0,0,1-.152-0.064l-0.674.021a8.047,8.047,0,0,0-1.434-.064V11.771h0.022a1.956,1.956,0,0,1,.456-0.021,8.724,8.724,0,0,1,1.651-.043l0.022-.064a1.247,1.247,0,0,0,.043-0.3l0.065-.021c0.232-.142.188,0.319,0.239,0.363a1.558,1.558,0,0,0,.543.021l1.043,0.043a1.359,1.359,0,0,1,.543.043,13.881,13.881,0,0,0-2.238.107v0.064H24.1a2.147,2.147,0,0,1,.478.064,0.97,0.97,0,0,1,.152.192,6.667,6.667,0,0,1,.065.834c0.05,0.23-.041.488,0.022,0.77,0.031,0.142.069,0.294,0.087,0.428l3.107,0.342a9.217,9.217,0,0,1,.13-2.052,0.819,0.819,0,0,1,.174-0.128,0.836,0.836,0,0,0,.434-0.085l-0.13-.021V12.263H28.18a5.363,5.363,0,0,1-1.043-.043,2.335,2.335,0,0,1-.63-0.043c0.7,0,1.429-.052,2.129-0.043a1.26,1.26,0,0,0,.043-0.342,0.3,0.3,0,0,1,.217-0.064,0.079,0.079,0,0,0,.043.021v0.043a0.572,0.572,0,0,1,.022.256c0.071,0.018.033-.011,0.065,0.043-0.005.021-.017,0.008,0,0.021a1.4,1.4,0,0,0,.5.021c0.38,0,.737.031,1.086,0.043a1.529,1.529,0,0,1,.521.021,8.819,8.819,0,0,0-1.5.064l-0.413-.021a1.708,1.708,0,0,1-.348.064V12.37a2.862,2.862,0,0,1,.543.085,6.481,6.481,0,0,1,.239,2.33,4.841,4.841,0,0,1,.869.107c0.389,0.086.788,0.048,1.151,0.128l0.369,0.021c0.48,0.108,1.043.086,1.521,0.192l0.587,0.043c0.973,0.218,2.067.149,3.042,0.363,0.561,0.124,1.174.073,1.716,0.192a1.292,1.292,0,0,1,.847.235,0.611,0.611,0,0,0,.087.214c0.028-.053-0.009-0.014.043-0.043a0.094,0.094,0,0,0,.065.064,1.923,1.923,0,0,1-.261,1.475,0.777,0.777,0,0,1-.2.256,7.016,7.016,0,0,1-1.325.064c-0.253.053-.611-0.037-0.891,0.021-0.246.052-.6-0.036-0.869,0.021-0.253.053-.611-0.037-0.891,0.021a7.019,7.019,0,0,1-1,.043,0.442,0.442,0,0,0-.022-0.214V18.2l-9.364.214a1.722,1.722,0,0,0-.8.385,1.094,1.094,0,0,1-.326.427V19.209c-0.162-.158-0.28-0.371-0.435-0.534H22.184a4.687,4.687,0,0,0-.76.021c-0.024.1-.084,0.188-0.109,0.278v0.684c-0.034.153,0.018,0.4-.022,0.577-0.059.267,0.021,0.584-.043,0.876a5.112,5.112,0,0,0-.065.577h0.087v0.043a0.142,0.142,0,0,0-.087.021h0.065a0.138,0.138,0,0,1-.065.107c0.078,0.009.055-.01,0.087,0.043H21.184A6.6,6.6,0,0,1,21.1,23.27c-0.068.292,0,.66-0.065,0.941q-0.043.78-.087,1.56l-0.239,3.206h0.022V29l4.389,1.026a0.1,0.1,0,0,1,0-.107l0.022,0.128a1.032,1.032,0,0,1,.8.363,0.761,0.761,0,0,1-.608,1.176V30.858L24.4,30.837a0.985,0.985,0,0,0-.369.021l1.282,0.021v0.705a6.014,6.014,0,0,0-1.108.107c-0.322.069-.659,0.021-0.956,0.085-0.467.1-.986,0.032-1.434,0.128a7.978,7.978,0,0,0-1.217.107,2.269,2.269,0,0,0-.152,1.026,0.584,0.584,0,0,1-.2.363,0.614,0.614,0,0,1-.152.021V34H20.054V33.4H20.011a0.112,0.112,0,0,1-.065.021V34H19.9V33.423c-0.523.011-.244-0.8-0.391-1.24-0.019-.056-0.08-0.132-0.109-0.192l-4.715-.406V30.879a4.642,4.642,0,0,0,.891-0.021,1.638,1.638,0,0,0,.391-0.021l-1.3.021v0.727a0.921,0.921,0,0,1-.434-0.128A0.815,0.815,0,0,1,14.3,30.2a6.026,6.026,0,0,1,1.2-.3c0.845-.235,1.766-0.389,2.607-0.641,0.309-.093.622-0.127,0.912-0.214a0.917,0.917,0,0,0,.261-0.064,0.077,0.077,0,0,0,.022-0.043,2.44,2.44,0,0,1-.044-0.62c-0.085-.386,0-0.829-0.087-1.24-0.108-.488-0.022-1.072-0.13-1.56v-0.3c-0.085-.382,0-0.838-0.087-1.24-0.041-.186,0-0.41-0.043-0.62a7.05,7.05,0,0,1-.087-1.453H18.707V21.86a0.061,0.061,0,0,0,.022-0.021,0.078,0.078,0,0,0,.087,0c-0.067-.026-0.049-0.008-0.065-0.085a0.107,0.107,0,0,0,.065-0.021c-0.078-.009-0.055.01-0.087-0.043,0.078-.009.055,0.01,0.087-0.043a2.189,2.189,0,0,1-.065-0.791c-0.039-.413-0.065-0.87-0.065-1.3a1.188,1.188,0,0,0-.152-0.855,1.38,1.38,0,0,0-.5-0.021H16.882a1.247,1.247,0,0,0-.456.021,1.687,1.687,0,0,0-.456.534,0.06,0.06,0,0,1-.022-0.021,1.988,1.988,0,0,1-.326-0.449,2.226,2.226,0,0,0-.76-0.342l-6.779-.15a0.222,0.222,0,0,0-.022-0.128,0.222,0.222,0,0,1-.022.128,1.47,1.47,0,0,0-.521-0.021l-1.26-.021C6,18.172,5.646,18.264,5.367,18.2c-0.253-.054-0.611.038-0.891-0.021a4.138,4.138,0,0,0-.717-0.021,6.043,6.043,0,0,1-1.043-.043c-0.28-.059-0.638.032-0.891-0.021A6.49,6.49,0,0,1,.5,18.034,1.809,1.809,0,0,1,.043,16.3a1,1,0,0,1,.109-0.064c0.028,0.053-.009.015,0.043,0.043a0.65,0.65,0,0,1,.043-0.256c0.117-.035.22-0.116,0.348-0.15l0.7-.064c0.726-.163,1.555-0.117,2.281-0.278l1.152-.107c0.534-.12,1.161-0.095,1.695-0.214L7,15.17c0.35-.078.779-0.072,1.13-0.15L8.517,15c0.3-.066.633-0.035,0.956-0.107a5.518,5.518,0,0,1,.869-0.107,9.9,9.9,0,0,1,.174-2.266,1.312,1.312,0,0,1,.608-0.15V12.305h-0.13V12.263H10.538a5.37,5.37,0,0,1-1.043-.043,2.386,2.386,0,0,1-.63-0.043c0.7,0,1.427-.052,2.129-0.043,0.1-.2-0.037-0.413.283-0.406,0.045,0.09.048,0.289,0.087,0.385a4.126,4.126,0,0,0,1.065.021c0.213,0.127.856-.063,1.065,0.064a11.592,11.592,0,0,1-1.63.043,0.755,0.755,0,0,0-.608.128,1.807,1.807,0,0,1,.521.085,4.951,4.951,0,0,1,.217,2.137L15.1,14.25a0.562,0.562,0,0,1,.065-0.214V13.609c0.054-.23-0.04-0.442.022-0.705,0.035-.15,0-0.348.043-0.513l0.087-.278a1.083,1.083,0,0,1,.608-0.15V11.9l-0.13-.021V11.835l-0.674.021a8.037,8.037,0,0,0-1.434-.064V11.75c0.7,0,1.371-.041,2.108-0.043a0.589,0.589,0,0,0,.065-0.342,0.267,0.267,0,0,1,.2-0.064,0.25,0.25,0,0,0,.065.043,1.157,1.157,0,0,0,.043.342,2.678,2.678,0,0,0,.7.021,1.071,1.071,0,0,0,.391.021,4.531,4.531,0,0,1,.826.043,0.9,0.9,0,0,1,.217.021l-2.107.043v0.043l-0.13.021v0.064h0.022a0.894,0.894,0,0,1,.521.128,4.5,4.5,0,0,1,.174,1.966l1.869-.214V9.911a1.884,1.884,0,0,0,.022-0.663l0.087-1.282a4.161,4.161,0,0,1,.521-1.56,2.607,2.607,0,0,1,.348-0.235H19.6s-0.028.062-.043,0.043V6.192H19.533V6.171A0.763,0.763,0,0,1,20.4,6.128l-0.022.043c0.139-.016.12,0.1,0.217,0.171a2.059,2.059,0,0,1,.565,1.24c0.1,0.379.056,0.868,0.152,1.282v0.47a7.78,7.78,0,0,1,.022,1.5v3.014Zm-1.391-7.8c-0.017.015-.048,0.028-0.065,0.043a0.182,0.182,0,0,0-.022.107,0.431,0.431,0,0,1,.065.128h0.043V6.043H19.946Zm0.065,0.278h0.065V6.278a0.379,0.379,0,0,0,.065-0.192H20.1a0.156,0.156,0,0,0-.087-0.043V6.321Zm0.239-.235c-0.007.03,0.031,0.031,0.043,0.043C20.309,6.106,20.256,6.092,20.25,6.086Zm-0.565.021-0.022.043C19.7,6.12,19.685,6.107,19.685,6.107Zm0.174,0.214a0.516,0.516,0,0,0-.065-0.192,0.075,0.075,0,0,0-.044.021,0.43,0.43,0,0,0-.217.171h0.326Zm0.326-.192-0.065.192h0.239c0.048-.071.04-0.025,0.109,0V6.3A0.793,0.793,0,0,0,20.185,6.128Zm0.13,0c-0.007.03,0.031,0.031,0.043,0.043C20.374,6.148,20.321,6.135,20.315,6.128ZM4.106,17.563v0.043H4.128V17.563H4.106ZM17.751,30.815a0.444,0.444,0,0,0,.022.214A0.442,0.442,0,0,0,17.751,30.815Zm-1.76.021a0.385,0.385,0,0,0,.022.192A0.383,0.383,0,0,0,15.991,30.837Zm8,0a0.383,0.383,0,0,0,.022.192A0.385,0.385,0,0,0,23.987,30.837Z" transform="translate(0 -0.016)"/>
</svg>
