<svg xmlns="http://www.w3.org/2000/svg" width="80" height="40" viewBox="0 0 80 40">
  <defs>
    <style>
      .cls-1 {
        fill: #fff;
        fill-rule: evenodd;
      }
    </style>
  </defs>
  <path id="Color_Fill_1" data-name="Color Fill 1" class="cls-1" d="M0.472,4H1.956a23.58,23.58,0,0,0,.135,4.248c0.168,0.8-.082,1.825.067,2.535a15.412,15.412,0,0,1-.135,2.6,0.44,0.44,0,0,1,.337,0,1.028,1.028,0,0,0,.472.822c0.224,0.176.582,0,.877,0.206,0.128,0.088.154,0.315,0.27,0.411a11.26,11.26,0,0,0,1.214.685C6.188,16.148,7.2,16.781,8.229,17.43a9.486,9.486,0,0,0,1.417.959L11.4,18.664a4.4,4.4,0,0,1,1.079.48l0.068,0.206,25.363-.206v0.274l0.54-.069a3.456,3.456,0,0,0,0-.822,2.111,2.111,0,0,0-.944-0.274l-0.067-.685C36.469,17.7,36.275,15.4,37.1,15.1a4.3,4.3,0,0,1,1.889,0V14.964a0.755,0.755,0,0,1,0-.48,4.093,4.093,0,0,1,1.416.206,0.353,0.353,0,0,1,.068.206L40,15.1v0.069a12.715,12.715,0,0,1,1.956.069,0.758,0.758,0,0,0,.607.206,1.268,1.268,0,0,1,.067-0.617v0.48h0.337a2.369,2.369,0,0,0-.068-0.548h0.337c0.508-.318,1.443-0.062,2.091-0.205,0.843-.187,1.92-0.157,2.766-0.343h1.147A8.163,8.163,0,0,1,50.725,14a0.844,0.844,0,0,0,.337.205A1.446,1.446,0,0,1,51.872,14a1.993,1.993,0,0,0,.4.411,1.706,1.706,0,0,1,.742-0.137,13.141,13.141,0,0,1,.2,1.439,3.069,3.069,0,0,1,.4.48,3.933,3.933,0,0,0,.068.685c0.152-.227.387-0.322,0.54-0.548a2.711,2.711,0,0,1-.742-0.754c-0.084-1.486.714-2.737,0.809-4.385H54.165a1.015,1.015,0,0,1-1.012-.137v0.274c-6.633-.655-28.247-0.479-35.653-0.48v-0.4H42.428c1.721,0,4.164.205,5.464-.274l0.4,0.069c0.9,0.023,1.8.175,2.7,0.2,0.1-.028.359-0.176,0.472-0.206h1.349l0.2-.274h0.4l0.067-.206h0.944L54.5,9.961a0.7,0.7,0,0,0,.742-0.206h0.944a1.22,1.22,0,0,0,.135.274c0.132-.085.436,0.027,0.607-0.069L57,9.756c0.707-.319,1.309.343,1.619,0.48h1.349a4.468,4.468,0,0,0,1.821.206,42.053,42.053,0,0,1,5.4.008H79.933v0.4c-7.4-.01-15.031-0.218-21.653.48V11.058a0.222,0.222,0,0,1-.2,0v0.069h0.067c0.13,0.053-.135.069-0.135,0.069a1.04,1.04,0,0,1-.877,0v0.274a7.955,7.955,0,0,1,.472,2.056h4.047a1.527,1.527,0,0,1,1.012-.274,2.378,2.378,0,0,1,.337.274h3.912c0.41,0.1.752,0.335,1.147,0.411v-0.48l0.472-.343a6.988,6.988,0,0,1,2.091.343,3.1,3.1,0,0,1,.135,1.713,0.192,0.192,0,0,1,.067.069c1.537,0.043,1.966,1.136,2.631,2.056,1.131,1.566,2.593,2.953,3.643,4.591h0.067V21.816c0.2-.36-0.05-1.121.337-1.3,0.367-.262.627,0.123,0.607,0.548a3.087,3.087,0,0,0-.067,1.576c1.04,0.3,2.279,2.669,1.821,4.317A3.574,3.574,0,0,1,78.718,28.6a1.87,1.87,0,0,0-.337.137,1.607,1.607,0,0,1-.135.548,4.263,4.263,0,0,1-1.079.274v0.069h2.5a0.193,0.193,0,0,0,.067.069v0.069H78.718a11.833,11.833,0,0,1-2.9.068,3.505,3.505,0,0,1,.135.48h-0.2v0.206H75.616a4.411,4.411,0,0,1-2.091.069,2.57,2.57,0,0,0-.068.754,0.248,0.248,0,0,0-.067.137c0.345,0.068.3,0.283,0.27,0.685l-0.742.069-0.067-.685c0.219-.057.1,0.034,0.2-0.137a2.408,2.408,0,0,1-.2-0.822H71.7a0.459,0.459,0,0,0-.2-0.206,15.693,15.693,0,0,0-2.361.891,3.551,3.551,0,0,0-1.079.343,0.7,0.7,0,0,0-.2.548c0.185,0.076.024,0.319,0,.617a1.989,1.989,0,0,1,1.012.959c0.093,1.233-.306,1.934-1.349,2.193S65.147,34.6,65.835,33.67a2.028,2.028,0,0,1,.877-0.959h0.27a5.106,5.106,0,0,1,.2-1.439c-0.4-.355-0.582-0.974-0.944-1.37a0.341,0.341,0,0,1-.2.069V29.765H65.16v0.548a4.637,4.637,0,0,1-1.282.069,0.88,0.88,0,0,1-.472.069,1.021,1.021,0,0,0-.54-0.685V29.97h-0.2V29.765H62.327v0.068a2.156,2.156,0,0,1,0,1.028h-0.2a0.732,0.732,0,0,1-.068.411V30.861A11.727,11.727,0,0,1,59.427,31V30.861H58.482a0.581,0.581,0,0,1-.068.343V30.861h-0.27V29.97a3.963,3.963,0,0,1-1.282-.205c-0.019.181-.056,0.143-0.4,0.137-0.428-.227-1.9.317-2.024,0.274a1.59,1.59,0,0,1-.4-0.411H52.816c-0.436.467-.717,0.031-1.416,0v0.548H51.2V29.765a8.7,8.7,0,0,0-1.147-.137v0.685h-0.27V29.627H48.364v0.137a0.468,0.468,0,0,0-.067.274,4.275,4.275,0,0,0-1.147.48c-0.723.3-1.419,0.533-2.091,0.822-0.479.206-.9,0.17-0.944,0.822a0.734,0.734,0,0,1,0,.617c0.691,0.159,1.512,1.4.877,2.193-0.368,1.324-2.156,1.094-2.766.137a1.444,1.444,0,0,1-.135-1.439,1.922,1.922,0,0,1,.877-0.959h0.27a3.628,3.628,0,0,0,0-1.233c0.166-.089.046,0.029,0.135-0.137a3.974,3.974,0,0,0-.742-1.3,0.524,0.524,0,0,1,0-.48,2.659,2.659,0,0,0-.674-0.548c-0.808-.607-1.468-1.436-2.294-2.056a4.853,4.853,0,0,0-1.147-1.028V26.2h-0.2a2.139,2.139,0,0,0,0-.48l-0.27-.343a8.847,8.847,0,0,1-2.7-.206c-0.824-.182-1.683-0.041-2.428-0.206l-3.98-.274c-0.745-.166-1.605-0.022-2.428-0.206a34.178,34.178,0,0,0-5.126-.48l-0.135,1.644a1.43,1.43,0,0,1-.472.069,0.242,0.242,0,0,0-.135-0.069,2.57,2.57,0,0,1-.067-0.754,2.31,2.31,0,0,0,.067-0.959,9.49,9.49,0,0,1-2.091-.206c-0.794-.2-1.647-0.028-2.361-0.206-1.075-.268-2.237-0.024-3.238-0.274-1.062-.265-2.24-0.083-3.238-0.343H9.241a2.03,2.03,0,0,1-.54-0.548,0.515,0.515,0,0,0-.472-0.274L7.42,21.131l-4.25-4.18H3.1v0.069a0.3,0.3,0,0,0-.2.205,3.514,3.514,0,0,1,.135,1.713v4.934H1.551l-0.2-7.332a2.983,2.983,0,0,1-1.214-.274H0.067V16.2c0.453-.052.775-0.187,1.282-0.206a1.607,1.607,0,0,0,.135-0.822,1.219,1.219,0,0,1-.742-0.685A3.972,3.972,0,0,1,.809,13.73,1.12,1.12,0,0,1,.337,12.7H0V12.428H1.484A2.476,2.476,0,0,0,1.349,11.4c-0.16-.431-0.7-0.416-0.877-0.754V4Z"/>
</svg>
