<svg xmlns="http://www.w3.org/2000/svg" xmlns:xlink="http://www.w3.org/1999/xlink" width="100" height="100" viewBox="0 0 100 100">
  <metadata><?xpacket begin="﻿" id="W5M0MpCehiHzreSzNTczkc9d"?>
<x:xmpmeta xmlns:x="adobe:ns:meta/" x:xmptk="Adobe XMP Core 5.6-c138 79.159824, 2016/09/14-01:09:01        ">
   <rdf:RDF xmlns:rdf="http://www.w3.org/1999/02/22-rdf-syntax-ns#">
      <rdf:Description rdf:about=""/>
   </rdf:RDF>
</x:xmpmeta>
                                                                                                    
                                                                                                    
                                                                                                    
                                                                                                    
                                                                                                    
                                                                                                    
                                                                                                    
                                                                                                    
                                                                                                    
                                                                                                    
                                                                                                    
                                                                                                    
                                                                                                    
                                                                                                    
                                                                                                    
                                                                                                    
                                                                                                    
                                                                                                    
                                                                                                    
                                                                                                    
                           
<?xpacket end="w"?></metadata>
<defs>
    <style>
      .cls-1, .cls-2, .cls-3, .cls-4, .cls-5 {
        fill-rule: evenodd;
      }

      .cls-1 {
        fill: url(#linear-gradient);
      }

      .cls-2 {
        mix-blend-mode: multiply;
        fill: url(#linear-gradient-2);
      }

      .cls-3 {
        fill: #b9e36a;
      }

      .cls-4 {
        fill: #2f2b2b;
      }

      .cls-5 {
        fill: #ffed95;
      }
    </style>
    <linearGradient id="linear-gradient" x1="50" y1="88.656" x2="50" y2="12" gradientUnits="userSpaceOnUse">
      <stop offset="0" stop-color="#537633"/>
      <stop offset="1" stop-color="#9cbf52"/>
    </linearGradient>
    <linearGradient id="linear-gradient-2" x1="50" y1="72" x2="50" y2="29" gradientUnits="userSpaceOnUse">
      <stop offset="0" stop-color="#537633"/>
      <stop offset="1" stop-color="#a9da41"/>
    </linearGradient>
  </defs>
  <path class="cls-1" d="M67.039,75.044L86.6,50.013l-19.565-25H97.053V75.044H67.039ZM50,88.671L20,49.99,50,12,80,49.99ZM32.961,75.044H2.947V25.009H32.961l-19.565,25Z"/>
  <path class="cls-2" d="M90,43.915V32H80.675l-2.609-3H93V48.175ZM19.325,32H10V43.915L7,48.175V29H21.934ZM10,56.751V69h9.325l2.609,3H7V52.492ZM80.675,69H90V56.751l3-4.259V72H78.066Z"/>
  <path class="cls-3" d="M67,25H97v4H70ZM78,52L50,17,22,52l-2-2L50,12,80,50ZM3,29V25H33l-3,4H3ZM30,75L13,54V50L33,75H30ZM87,54L70,75H67L87,50v4Z"/>
  <path class="cls-4" d="M21,35l4,31H66c4.543,0,6.3.008,7.409,0,4.453,0,4.625-4.724,4.625-8.936V54.592a9.056,9.056,0,0,0-1.955-5.563,9.129,9.129,0,0,0,.989-4.557c0-3.076-.247-5.737-1.464-7.384C73.472,34.6,67.728,35,64,35H21Z"/>
  <path id="WB" class="cls-5" d="M75.048,51.279a6.464,6.464,0,0,1,.965,3.907v2.5a9.016,9.016,0,0,1-.7,4.048,3.638,3.638,0,0,1-2.217,1.8,32.343,32.343,0,0,1-6.906.483H57.013V37.009h8.148a22.8,22.8,0,0,1,5.594.516,5.524,5.524,0,0,1,3.07,2.088c0.779,1.048,1.169,2.786,1.169,5.115a5.022,5.022,0,0,1-.826,3.295A6.865,6.865,0,0,1,70.7,49.455C72.508,49.821,74.4,50.429,75.048,51.279ZM67.78,42.752a1.185,1.185,0,0,0-.677-0.641,12.245,12.245,0,0,0-2.085-.15v5.994q0.5-.016.779-0.017a2.833,2.833,0,0,0,1.928-.508,7.511,7.511,0,0,0,.315-2.906A4.26,4.26,0,0,0,67.78,42.752ZM68,54.666a3.253,3.253,0,0,0-.408-2.1,6.174,6.174,0,0,0-2.576-.416v7.543a5.541,5.541,0,0,0,2.529-.466A3,3,0,0,0,68,57.181V54.666ZM42.388,64.016Q41.049,57.8,40.024,49.879q-0.468,3.4-2.179,14.137h-9.7l-3.5-27.006h7.588l0.825,9.454,0.8,9.093c0.288-4.706,1.008-10.921,2.16-18.548h8.111c0.108,0.788.392,3.8,0.852,8.94L45.85,56.206c0.444-6.526,1.171-12.957,2.18-19.2h7.588L52.14,64.016H42.388Z"/>
</svg>
