<svg width="12" height="32"><path d="M 7 12.057 L 7 11 L 10 9 L 10 6 L 7 8 L 7 6 L 6 6 L 6 8 L 3 6 L 3 9 L 6 11 L 6 12.057 C 4.305 12.446 3 14.738 3 16.5 L 3 19.5 C 3 21.432 4.031 23.656 6.5 25 C 8.969 23.656 10 21.432 10 19.5 L 10 16.5 C 10 14.738 8.695 12.446 7 12.057 Z" stroke-width="2" stroke="#000" stroke-linejoin="round"/><path d="M 7 12.057 L 7 11 L 10 9 L 10 6 L 7 8 L 7 6 L 6 6 L 6 8 L 3 6 L 3 9 L 6 11 L 6 12.057 C 4.305 12.446 3 14.738 3 16.5 L 3 19.5 C 3 21.432 4.031 23.656 6.5 25 C 8.969 23.656 10 21.432 10 19.5 L 10 16.5 C 10 14.738 8.695 12.446 7 12.057 Z" fill="#C89441"/></svg>