<svg xmlns="http://www.w3.org/2000/svg" width="40" height="40" viewBox="0 0 40 40">
  <defs>
    <style>
      .cls-1 {
        fill: #fff;
        fill-rule: evenodd;
      }
    </style>
  </defs>
  <path id="Color_Fill_1" data-name="Color Fill 1" class="cls-1" d="M20.237,5.9V5h0.079V5.977l0.2,0.039c1,1.525.853,4.93,0.868,7.461,0.714,0.026,1.415.113,2.17,0.117a8.877,8.877,0,0,1,.118-1.719,1.05,1.05,0,0,1,.71-0.156A0.3,0.3,0,0,0,24.5,11.6a1.381,1.381,0,0,0-.473-0.078,2.86,2.86,0,0,1-1.42-.078h0.079a4.35,4.35,0,0,1,1.657-.078,0.4,0.4,0,0,1,.2-0.43,0.268,0.268,0,0,1,.158-0.039,0.705,0.705,0,0,1,.118.2,0.416,0.416,0,0,1,.079.273c0.568,0,1.141.033,1.657,0.039v0.039H26.509a3.591,3.591,0,0,1-1.657.078,0.69,0.69,0,0,0-.118.156,6,6,0,0,0,.671.039,4.3,4.3,0,0,1,.316,2.031h0.395a2.849,2.849,0,0,0,.631.039c0.564,0.122,1.288.033,1.854,0.156h0.631c1.371,0.3,3.047.014,4.418,0.313,0.44,0.1.911-.007,1.3,0.078,0.59,0.129,1.324-.007,1.894.117h0.631c0.508,0.112,1.162.042,1.657,0.156a1.072,1.072,0,0,1,.631.156v0.313h0.2a2.441,2.441,0,0,1-.118,1.055,0.856,0.856,0,0,1-.276.039v0.351a4.406,4.406,0,0,1-.513.352,8.107,8.107,0,0,1-1.144.234c-0.805.207-1.676,0.252-2.525,0.469-0.874.224-1.88,0.322-2.761,0.547l-0.868.117c-0.653.174-1.382,0.211-2.091,0.391a8.025,8.025,0,0,1-1.5.274v0.117a8.38,8.38,0,0,0-2.446.352c-0.88.234-1.8,0.245-2.643,0.469a7.4,7.4,0,0,0-1.7.313,0.14,0.14,0,0,0-.04.078l-0.276,8.4a8.378,8.378,0,0,1,1.381.313c0.871,0.243,1.767.322,2.6,0.547a6.743,6.743,0,0,1,1.933.469,0.867,0.867,0,0,1,.237.781,0.713,0.713,0,0,0-.118.273,2.9,2.9,0,0,1-.671.313l-1.736.078c-0.5.109-.872-0.041-1.42,0.078a12.323,12.323,0,0,1-2.328.156l-0.079,1.836a1.339,1.339,0,0,1-.394.508l-0.158.039V35H20.237V34.063a1.3,1.3,0,0,1-.473,0V35H19.684V34.023c-0.732-.2-0.644-1.468-0.631-2.383l-3.116-.2c-0.44-.066-0.878.009-1.262-0.078-0.672-.152-1.548.137-1.775-0.43a0.948,0.948,0,0,1-.079-0.742c0.083-.061.116-0.179,0.2-0.234a8.449,8.449,0,0,1,2.13-.508c0.769-.213,1.6-0.284,2.406-0.508a11.1,11.1,0,0,1,1.381-.312l-0.276-8.476h-0.04V20.117a4.825,4.825,0,0,1-1.026-.2c-0.517-.146-1.06-0.139-1.538-0.274-0.819-.231-1.619-0.183-2.446-0.391a6.53,6.53,0,0,0-1.775-.234V18.906a6.9,6.9,0,0,1-1.5-.274c-0.709-.18-1.437-0.218-2.091-0.391-0.531-.141-1-0.1-1.538-0.234-1.218-.3-2.573-0.421-3.787-0.742-0.813-.215-2.5-0.125-2.485-1.094H0.2l-0.039-.117a1.327,1.327,0,0,1-.118-0.977h0.2V14.766c0.125-.037.228-0.123,0.355-0.156l2.564-.2c0.427-.091.883,0,1.262-0.078,0.427-.091.883,0,1.262-0.078,0.44-.094.911,0.006,1.3-0.078,0.613-.131,1.315.007,1.893-0.117,0.613-.131,1.315.007,1.893-0.117H11.4c0.859-.185,2.079.033,2.88-0.234,0.015-.419-0.008-1.848.316-1.992h0.552a0.3,0.3,0,0,0,.118-0.117,1.381,1.381,0,0,0-.473-0.078,2.67,2.67,0,0,1-1.381-.078h0.079a4.222,4.222,0,0,1,1.617-.078l0.079-.352a0.425,0.425,0,0,1,.276-0.117,0.142,0.142,0,0,0,.079.039,1.267,1.267,0,0,1,.118.43c0.564,0,1.147.03,1.657,0.039v0.039h-0.04a3.538,3.538,0,0,1-1.657.078,0.689,0.689,0,0,0-.118.156,6,6,0,0,0,.671.039,3.356,3.356,0,0,1,.276,1.875c0.754,0.005,1.457-.083,2.17-0.117A24.92,24.92,0,0,1,18.935,7.7c0.151-.625.064-1.482,0.631-1.68a0.2,0.2,0,0,1,.118-0.039V5h0.079V5.938H19.8A0.965,0.965,0,0,1,20.237,5.9Z"/>
</svg>
