<svg xmlns="http://www.w3.org/2000/svg" width="40" height="40" viewBox="0 0 40 40">
  <defs>
    <style>
      .cls-1 {
        fill: #fff;
        fill-rule: evenodd;
      }
    </style>
  </defs>
  <path id="Color_Fill_1" data-name="Color Fill 1" class="cls-1" d="M19.545,5h0.114c0,0.445,0,.717,0,1.2H19.7a0.192,0.192,0,0,1,.114-0.039c0,0.36,0,.512,0,0.848h0.038a0.374,0.374,0,0,1,.342-0.039c0-.314,0-0.463,0-0.81h0.152c0-.466,0-0.72,0-1.157h0.114V7.314a11.991,11.991,0,0,1,.835,3.7h2.922V10.553H24.061l-0.038-.116a5.208,5.208,0,0,0,.038-1.157c0.118-.545.2-1.116,0.3-1.62h0.228L24.63,7.43H24.364a1.871,1.871,0,0,1-.721.039c-0.614,0-1.166-.12-1.746-0.154L21.822,7.2H21.9a3.005,3.005,0,0,1,.835-0.077,10.088,10.088,0,0,1,2.049-.039,1.19,1.19,0,0,1,.949-1,2.373,2.373,0,0,1,.531.463c0.043,0.068.2,0.519,0.228,0.54h0.3a1.855,1.855,0,0,1,.721-0.039,6.747,6.747,0,0,1,1.9.193V7.314H29.336a7.912,7.912,0,0,1-2.694.077V7.468c0.117,0.161-.028.183,0.266,0.193V7.7a6.914,6.914,0,0,1,.342,1.928H27.173a0.192,0.192,0,0,1-.114.039v1.35l1.784,0.039a14.767,14.767,0,0,1,3,.154c0.514,0.115,1.047.049,1.518,0.154l2.619,0.231c0.46,0.1.975,0.041,1.48,0.154a9.506,9.506,0,0,0,1.86.193v0.27h0.076a0.909,0.909,0,0,0,.607.116V12.52a0.475,0.475,0,0,1-.152-0.038,2.249,2.249,0,0,1-1.328,2.16c-0.585.225-1.183,0.227-1.784,0.424-0.9.295-1.872,0.425-2.808,0.733-1.1.361-2.306,0.667-3.454,0.926a0.553,0.553,0,0,1-.076.463,0.936,0.936,0,0,0-.038-0.424,0.905,0.905,0,0,0-.417-0.039,3.487,3.487,0,0,1-.835.039,15.335,15.335,0,0,1-2.96.116,5.661,5.661,0,0,1-.493,1.234,0.14,0.14,0,0,1-.038-0.077,2.587,2.587,0,0,1-.455-1.118H24.213a0.252,0.252,0,0,1-.038.154V16.916H22.543a0.252,0.252,0,0,1-.038.154V16.916H21.48a1.771,1.771,0,0,0-.038.5,3.3,3.3,0,0,0-.038,1.118,9.035,9.035,0,0,1-.076,1.388v1.157c-0.178.834,0.023,1.839-.152,2.661v0.771c-0.138.644-.051,1.432-0.19,2.082v0.54l-0.266,2.507a7.92,7.92,0,0,1,1.935.193c0.509,0.128,1.05.037,1.518,0.154,0.438,0.11,1.131.017,1.328,0.116L26,30.144a1.147,1.147,0,0,1,.949.579c0.473,0.625-.274,1.463-0.607,1.7A4.109,4.109,0,0,1,24.63,33l-0.683.039c-0.5.112-1.056,0.07-1.594,0.193a12.361,12.361,0,0,1-2.125.27,0.493,0.493,0,0,1-.3.5,0.451,0.451,0,0,0-.342-0.5,8.055,8.055,0,0,0-1.632-.193c-1.966-.455-5.539.035-4.9-2.661a3.26,3.26,0,0,1,.455-0.386c0.308-.132.775-0.123,1.063-0.231,0.015,0.1-.022.061,0.114,0.077a7.284,7.284,0,0,1,1.518-.154c0.471-.105,1-0.039,1.518-0.154a7.6,7.6,0,0,1,1.556-.154l-0.3-3.047V26.017c-0.15-.7-0.036-1.552-0.19-2.275v-0.81c-0.119-.559.056-1.234-0.076-1.851-0.067-.313.039-0.8-0.038-1.157-0.069-.326.042-0.822-0.038-1.2a9.986,9.986,0,0,1-.076-1.774,3.942,3.942,0,0,0-1.063-.039,0.253,0.253,0,0,1-.038.154V16.916H15.825a0.252,0.252,0,0,1-.038.154V16.916H14.839a7.186,7.186,0,0,1-.455,1.2H14.345V18.073c-0.14-.167-0.429-1.148-0.493-1.2h-1.29a3.476,3.476,0,0,0-.835-0.039,10.744,10.744,0,0,0-2.087-.116,0.109,0.109,0,0,1-.038.039,0.478,0.478,0,0,1-.076.424,0.553,0.553,0,0,0-.076-0.463,8.758,8.758,0,0,0-1.784-.463c-1.416-.467-2.986-0.732-4.4-1.2a9.025,9.025,0,0,1-2.087-.578,2.565,2.565,0,0,1-.949-1.273l-0.114-.733A0.191,0.191,0,0,1,0,12.52V12.327a1.932,1.932,0,0,0,.683-0.116v-0.27a8.361,8.361,0,0,0,1.86-.193c0.735-.168,1.538-0.071,2.239-0.231l2.239-.193a30.384,30.384,0,0,1,5.92-.309V9.666l-0.19-.039V9.551a2.017,2.017,0,0,0,.038-0.424,4.731,4.731,0,0,1,.3-1.427,0.383,0.383,0,0,0,.19-0.116,0.455,0.455,0,0,0,.076-0.193H13.321a1.853,1.853,0,0,1-.835.077c-0.668,0-1.241-.119-1.86-0.154L10.55,7.2a1.229,1.229,0,0,1,.38-0.039,1.988,1.988,0,0,1,.493-0.039,10.166,10.166,0,0,1,2.087-.039,1.142,1.142,0,0,1,.949-1,3.194,3.194,0,0,1,.569.54,4.739,4.739,0,0,0,.19.463h0.266A1.86,1.86,0,0,1,16.2,7.044a6.871,6.871,0,0,1,1.936.193V7.314a14.872,14.872,0,0,1-2.77.077,0.525,0.525,0,0,1,0,.27c0.153-.005.208-0.021,0.266,0.077a1.583,1.583,0,0,1,.114.5,7.572,7.572,0,0,1,.19,2.275,0.253,0.253,0,0,1-.152.039v0.463H18.71a10.931,10.931,0,0,1,.835-3.7V5Z"/>
</svg>
