<?xml version="1.0" encoding="UTF-8"?><svg id="Layer_2" xmlns="http://www.w3.org/2000/svg" viewBox="0 0 100 86.6"><defs><style>.cls-1{fill:#fff;stroke-width:0px;}</style></defs><g id="Layer_1-2"><polygon class="cls-1" points="87.5 65 81.2 75.8 62.6 86.6 50.1 86.6 87.5 65"/><polygon class="cls-1" points="100 43.3 93.8 54.2 37.5 86.6 25.1 86.6 100 43.3"/><rect class="cls-1" x="14.56" y="53.69" width="86.6" height="6.2" transform="translate(-20.64 36.54) rotate(-30)"/><rect class="cls-1" x="8.29" y="42.9" width="86.6" height="6.2" transform="translate(-16.09 31.96) rotate(-30)"/><rect class="cls-1" x="2.09" y="32.08" width="86.6" height="6.2" transform="translate(-11.51 27.41) rotate(-30)"/><polygon class="cls-1" points="78.2 5.4 3.1 48.8 0 43.3 75 0 75 0 78.2 5.4"/><polygon class="cls-1" points="62.5 0 6.2 32.5 12.5 21.7 50 0 62.5 0"/><polygon class="cls-1" points="37.5 0 18.8 10.9 25 0 37.5 0"/></g></svg>