<svg xmlns="http://www.w3.org/2000/svg" width="100" height="100" viewBox="0 0 100 100">
  <metadata><?xpacket begin="﻿" id="W5M0MpCehiHzreSzNTczkc9d"?>
<x:xmpmeta xmlns:x="adobe:ns:meta/" x:xmptk="Adobe XMP Core 5.6-c138 79.159824, 2016/09/14-01:09:01        ">
   <rdf:RDF xmlns:rdf="http://www.w3.org/1999/02/22-rdf-syntax-ns#">
      <rdf:Description rdf:about=""/>
   </rdf:RDF>
</x:xmpmeta>
                                                                                                    
                                                                                                    
                                                                                                    
                                                                                                    
                                                                                                    
                                                                                                    
                                                                                                    
                                                                                                    
                                                                                                    
                                                                                                    
                                                                                                    
                                                                                                    
                                                                                                    
                                                                                                    
                                                                                                    
                                                                                                    
                                                                                                    
                                                                                                    
                                                                                                    
                                                                                                    
                           
<?xpacket end="w"?></metadata>
<defs>
    <style>
      .cls-1 {
        fill: #2b2b2c;
        stroke: #e0e0e0;
        stroke-linejoin: round;
        stroke-width: 4px;
        fill-rule: evenodd;
      }
    </style>
  </defs>
  <path class="cls-1" d="M58.989,73.852V61.6a2.576,2.576,0,0,1,2.576-2.576H73.82a5.152,5.152,0,0,0,5.152-5.152V46.132A5.152,5.152,0,0,0,73.82,40.98H61.565A2.576,2.576,0,0,1,58.989,38.4V26.154A5.152,5.152,0,0,0,53.837,21h-7.7a5.152,5.152,0,0,0-5.152,5.152V38.4a2.576,2.576,0,0,1-2.576,2.576H26.149A5.152,5.152,0,0,0,21,46.132v7.7a5.152,5.152,0,0,0,5.152,5.152H38.4a2.576,2.576,0,0,1,2.576,2.576V73.852A5.152,5.152,0,0,0,46.132,79h7.7A5.152,5.152,0,0,0,58.989,73.852Z"/>
</svg>
