<svg xmlns="http://www.w3.org/2000/svg" width="40" height="40" viewBox="0 0 40 40">
  <defs>
    <style>
      .cls-1 {
        fill: #fff;
        fill-rule: evenodd;
      }
    </style>
  </defs>
  <path id="Color_Fill_1" data-name="Color Fill 1" class="cls-1" d="M21.429,11.732l2.659,0.079c-0.093-.743-0.329-2.167.04-2.8a1.823,1.823,0,0,1,.357-0.276H25.6A1.828,1.828,0,0,1,26.071,8.5V8.346a1.658,1.658,0,0,1-.556-0.157l-0.754.039a7.488,7.488,0,0,1-1.548-.118,3.883,3.883,0,0,1-1.032-.079h0.079a4.31,4.31,0,0,1,1.111-.079,16.105,16.105,0,0,1,2.46-.118V7.48a0.193,0.193,0,0,0,.119-0.039,3.462,3.462,0,0,0,.079-0.551,0.277,0.277,0,0,1,.278.039,6.69,6.69,0,0,1,.159.906,16.789,16.789,0,0,1,2.381.118,4.271,4.271,0,0,1,1.389.118l-2.024.157-1.389-.039a2.272,2.272,0,0,1-.556.157v0.2a1.489,1.489,0,0,1,.675.2h0.913a1.656,1.656,0,0,1,.437.551,10.38,10.38,0,0,1-.04,2.677c2.988,0,6.08.038,9.127,0.039l0.04-3.346H37.5V10.63a5.276,5.276,0,0,1,.04,1.378,17.922,17.922,0,0,1,1.984.039l0.04,0.394c0.09-.016.043-0.036,0.119,0a0.338,0.338,0,0,1,.04.2h0.2a7.909,7.909,0,0,1-.159,3.031,1.377,1.377,0,0,1-.238.787,4.666,4.666,0,0,1-1.19.315c-0.96.31-1.794,0.431-2.778,0.748-1.842.594-3.844,1.1-5.794,1.614H26.468a0.631,0.631,0,0,1-.357.551c-0.012-.02-0.278-0.551-0.278-0.551H22.341a3.466,3.466,0,0,0-.516.59,11.649,11.649,0,0,0-.357,2.244v0.591c-0.07.317,0,.7-0.079,1.063-0.27,1.223-.13,2.608-0.4,3.819-0.156.707,0.022,1.478-.2,2.126A10.862,10.862,0,0,1,22.619,30c0.6,0.169,1.147.186,1.746,0.354a4.327,4.327,0,0,0,1.508.276,1.359,1.359,0,0,1,.079.473,3.694,3.694,0,0,1,.04.945,6.543,6.543,0,0,1-.119,2.008,2.113,2.113,0,0,1-.079.63q-0.08-1.043-.159-2.087a0.573,0.573,0,0,1-.2-0.039,2.341,2.341,0,0,1-.436.866c-0.231.376-.405,0.8-0.6,1.181l-3.294.2c-0.324.072-.753,0.087-1.032,0.157V35H20.04c-0.1-.012-0.34-0.126-0.476-0.157l-3.889-.236A3.354,3.354,0,0,0,15.2,33.7c-0.223-.363-0.3-0.807-0.556-1.142a0.27,0.27,0,0,1-.159.039,13.134,13.134,0,0,1-.2,2.087,16.9,16.9,0,0,1-.079-4.016,0.565,0.565,0,0,1,.159-0.039,3.632,3.632,0,0,0,1.23-.236l3.69-.827-0.675-7.48q-0.02-.709-0.04-1.417a2.348,2.348,0,0,0-.794-1.535H14.286a0.687,0.687,0,0,1-.4.551,1.538,1.538,0,0,1-.238-0.551H10.357c-0.822-.223-1.734-0.542-2.54-0.748-1.265-.324-2.607-0.607-3.849-1.024-0.553-.185-1.073-0.211-1.627-0.394a5.584,5.584,0,0,0-.873-0.276,1.56,1.56,0,0,1-.952-0.315,2,2,0,0,1-.159-0.669,5.805,5.805,0,0,1-.278-2.362,3.8,3.8,0,0,0,.079-0.709H0.4V12.4H0.556V12.087H0.6V12.047a19.291,19.291,0,0,1,1.984-.039c0-1.127.038-2.274,0.04-3.346h0.04V8.7a2.581,2.581,0,0,1,.04.945l0.04,2.362c3.047,0,6.139-.038,9.127-0.039-0.016-.809-0.357-2.883.317-3.15,0.268-.224.861,0.07,1.23-0.079A1.22,1.22,0,0,1,13.849,8.5V8.346h-0.2a0.19,0.19,0,0,0-.04-0.118c-0.184.112-.534-0.155-0.913-0.079a5.659,5.659,0,0,1-1.944-.039,2.985,2.985,0,0,1-.833-0.079c1.227,0,2.551-.174,3.73-0.2V7.48H13.77a2.953,2.953,0,0,1,.04-0.591,1.153,1.153,0,0,1,.318,0,2.938,2.938,0,0,0,.04.591h0.119V7.835a0.892,0.892,0,0,1,.357.079,2.382,2.382,0,0,0,.913-0.039,3.8,3.8,0,0,1,1.151.079,4.479,4.479,0,0,1,1.27.118l-2.182.118L14.643,8.15l-0.079.118a1.942,1.942,0,0,1-.516.079v0.2h0.04a1.211,1.211,0,0,1,.635.2c0.1,0.048.919,0.039,1.071,0.079,0.573,0.865.295,1.825,0.238,2.992l2.659-.079a15.487,15.487,0,0,1,.4-3.78l0.159-1.181A7.748,7.748,0,0,0,19.643,5a4.948,4.948,0,0,0,.794,0,12.056,12.056,0,0,0,.437,1.811l0.159,1.181A16.821,16.821,0,0,1,21.429,11.732Z"/>
</svg>
