<svg xmlns="http://www.w3.org/2000/svg" width="40" height="40" viewBox="0 0 40 40">
  <defs>
    <style>
      .cls-1 {
        fill: #fff;
        fill-rule: evenodd;
      }
    </style>
  </defs>
  <path id="Color_Fill_1" data-name="Color Fill 1" class="cls-1" d="M20.165,2.04h0.141c0.1,0.155.274,0.237,0.376,0.378a5.558,5.558,0,0,1,.47.945c1.526-.307,3.075.21,4.465,0.284V3.741H25.335C24.713,4.163,22.059,4,21.293,3.836V3.93a5.817,5.817,0,0,1,.329,1.56l0.047,0.567L21.9,6.246a1.148,1.148,0,0,1,.282.662c-0.169.067-.15,0.145-0.141,0.378a1.013,1.013,0,0,1,.141.189V7.617a0.584,0.584,0,0,0-.094.425,0.427,0.427,0,0,1,.141.284c-0.022.08-.138-0.006-0.141,0.142a1.7,1.7,0,0,0,.188.567c-0.3.122-.058,0.512,0,0.709,0.779,0.073,1.011.626,1.551,0.945a9.214,9.214,0,0,0,2.162.662l2.162,0.331c2.4,0.6,5.027.693,7.427,1.276,1.15,0.279,2.562.182,3.572,0.614a2.307,2.307,0,0,1,.705.662,3.468,3.468,0,0,1,0,1.512c-0.7,1.67-3.889,2.485-6.064,2.741v0.142H33.7a8.413,8.413,0,0,1-1.551.331V18.818a10.836,10.836,0,0,0-2.538.52l-1.41.236c-1.163.332-2.458,0.565-3.619,0.9-0.918.263-2.192,0.2-2.632,0.945-0.482.813-.09,2.418-0.329,3.5-0.157.71-.029,1.609-0.188,2.316v0.756c-0.136.614,0.006,1.323-.141,1.985L21.058,32.1c1.285,0.549,2.7.978,4,1.512a7.229,7.229,0,0,1,1.5.567,1.584,1.584,0,0,1,.517,1.56c-0.449,1.423-2.721,1.244-4.277,1.607a3.548,3.548,0,0,1-1.692.142,1.506,1.506,0,0,1-.705-0.709v0.047A8.269,8.269,0,0,0,20.071,39H19.977V38.48l-0.329-1.7H19.6c-0.111.787-1.223,0.87-2.068,0.662-1.393-.343-3.011-0.32-4-1.04a1.219,1.219,0,0,1-.564-1.371,1.68,1.68,0,0,1,.517-0.851,7.245,7.245,0,0,1,1.5-.567c0.7-.289,1.495-0.581,2.209-0.851,0.4-.152,1.732-0.45,1.786-0.851-0.27-.444-0.1-1.9-0.235-2.552-0.3-1.389-.026-3.041-0.329-4.443-0.113-.524.008-1.089-0.094-1.56q-0.024-.732-0.047-1.465c-0.331-1.218-1.621-1.079-2.82-1.418-1.163-.328-2.455-0.572-3.619-0.9l-1.41-.236a12.709,12.709,0,0,0-2.538-.52,0.229,0.229,0,0,1-.047.142,7.106,7.106,0,0,0-1.6-.331V18.488A9.238,9.238,0,0,1,4.7,18.157l-0.846-.142A6.764,6.764,0,0,1,.8,16.5a2.137,2.137,0,0,1-.705-1.418,0.363,0.363,0,0,1-.047-0.236,1.271,1.271,0,0,1,.188-0.142c0.056-.117-0.07-0.344,0-0.473,0.228-.683.9-0.668,1.645-0.851a14.127,14.127,0,0,1,2.867-.473l0.047-2.363H4.888v1.8a1.152,1.152,0,0,1,.047.52H5.029a2.172,2.172,0,0,1,.564-0.095c0.634-.16,1.333-0.158,2.021-0.331,3.025-.76,7.536-0.6,9.448-2.458a3.9,3.9,0,0,0,.7-0.331,0.754,0.754,0,0,0,.141-0.567,0.516,0.516,0,0,1-.141-0.095,1.367,1.367,0,0,0,.188-0.614c-0.135-.053-0.087-0.008-0.141-0.142a0.886,0.886,0,0,0,.047-0.756A0.636,0.636,0,0,0,18,6.955c-0.047-.105-0.083.03-0.141-0.189a0.673,0.673,0,0,0,.094-0.284c0.087-.151.351-0.277,0.423-0.425l0.094-.945a8.127,8.127,0,0,0,.235-1.182,11.314,11.314,0,0,1-3.337-.142,3.608,3.608,0,0,1-.987-0.142h0.094a3.465,3.465,0,0,1,1.034-.189A11.994,11.994,0,0,1,18.9,3.363a1.994,1.994,0,0,1,.987-1.323V1.047A0.735,0.735,0,0,1,20.118,1,3.889,3.889,0,0,1,20.165,2.04Z"/>
</svg>
