<svg xmlns="http://www.w3.org/2000/svg" width="40" height="40" viewBox="0 0 40 40">
  <defs>
    <style>
      .cls-1 {
        fill: #fff;
        fill-rule: evenodd;
      }
    </style>
  </defs>
  <path id="Color_Fill_1" data-name="Color Fill 1" class="cls-1" d="M20.188,1a1.6,1.6,0,0,0,.047.376c0.636,0.193.713,1.292,1.129,1.363a2.994,2.994,0,0,1,1.318-.094,20.185,20.185,0,0,1,3.059.423V3.116H25.506a3.1,3.1,0,0,1-.941.141,9.515,9.515,0,0,1-3.294-.047V3.3a5.755,5.755,0,0,1,.471,1.363L21.788,5.09l0.188,0.141c0.107,0.169.154,0.4,0.235,0.564-0.158.053-.156,0.053-0.188,0.235,0.069,0.113.119,0.468,0.188,0.611-0.17.067-.15,0.144-0.141,0.376a1,1,0,0,1,.188.423c-0.186.075-.156,0.261-0.141,0.517a0.447,0.447,0,0,1,.141.188c-0.175.07-.153,0.182-0.141,0.423a0.56,0.56,0,0,1,.141.282L22.871,8.9a4.033,4.033,0,0,1,.612.658,4.372,4.372,0,0,0,.706.376,25.543,25.543,0,0,0,2.635.705L35.765,12.1c1.2,0.308,2.949.125,3.812,0.752,0.65,0.472.453,1.874,0.047,2.445-0.709,1-1.822,1.143-3.2,1.551a5.819,5.819,0,0,1-1.506.376v0.235l-1.976.376V17.69a3.607,3.607,0,0,0-1.082.235c-0.473.14-1.281,0.224-1.835,0.376-1.81.5-3.7,0.629-5.459,1.128-1.062.3-2.1,0.28-2.635,1.081a5.27,5.27,0,0,0-.141,1.5l-0.282,4.7a22.056,22.056,0,0,0-.282,3.2,4.031,4.031,0,0,0-.094,1.128,3.257,3.257,0,0,0,1.459.611c1.026,0.382,2.144.756,3.153,1.175a1.712,1.712,0,0,1,1.365,1.081,1.318,1.318,0,0,1-.094.752,0.469,0.469,0,0,1,0,.235c-0.581,1.158-2.277.985-3.718,1.316a4.1,4.1,0,0,1-2.071.188,1.2,1.2,0,0,1-.659-0.705,2.094,2.094,0,0,0-.047-0.329v0.047C20.186,35.939,20.353,37.546,20,38c-0.011-.977-0.392-1.8-0.424-2.774H19.529v0.047a3.328,3.328,0,0,0-.047.47,1.118,1.118,0,0,1-.518.611,3.38,3.38,0,0,1-1.882-.094c-1.3-.319-2.662-0.185-3.576-0.846a1.786,1.786,0,0,1-.471-0.564,0.414,0.414,0,0,1,.047-0.188,0.685,0.685,0,0,1-.141-0.564,1.62,1.62,0,0,1,.518-0.94,6.605,6.605,0,0,1,1.271-.47c0.8-.325,1.686-0.639,2.494-0.94,0.571-.213,1.739-0.288,1.741-1.034-0.268-.439-0.094-1.985-0.235-2.633-0.114-.525-0.074-1.21-0.188-1.74V25.635c-0.092-.423.01-0.932-0.094-1.41-0.119-.55.04-1.216-0.094-1.834a8.925,8.925,0,0,1-.094-1.693,0.693,0.693,0,0,1-.141-0.235,2.685,2.685,0,0,0-.988-0.705,20.456,20.456,0,0,0-2.306-.47c-1.679-.47-3.538-0.68-5.223-1.128-0.831-.221-1.692-0.229-2.447-0.517a0.6,0.6,0,0,1-.047.188l-1.929-.376V17.267H5.129V17.22a5.454,5.454,0,0,1-1.318-.329C2.281,16.421,1.061,16.3.329,15.1a2.739,2.739,0,0,1-.235-0.611c-0.532-1.953,1.654-2.167,3.153-2.257a15.019,15.019,0,0,1,.047-2.962A2.3,2.3,0,0,1,3.341,8.71v3.479A5.23,5.23,0,0,0,4.612,12c0.89-.217,1.8-0.22,2.635-0.423l1.788-.235c2.876-.7,6.487-0.575,8.188-2.445l0.612-.047a0.424,0.424,0,0,1,.094-0.188c0.146-.391-0.211-0.785.047-1.175-0.052-.082-0.173,0-0.141-0.188,0.006-.033.13-0.154,0.141-0.188a1.42,1.42,0,0,0-.094-0.564l0.141-.094a0.853,0.853,0,0,0-.141-0.705,5.8,5.8,0,0,0,.612-1.692A4.5,4.5,0,0,0,18.777,3.3a14.43,14.43,0,0,1-3.482-.141,2.86,2.86,0,0,1-.941-0.141,14.479,14.479,0,0,0,1.929-.329,11.358,11.358,0,0,1,2.635.047,2.112,2.112,0,0,1,.659-1.269,1.26,1.26,0,0,0,.282-0.141,1.069,1.069,0,0,0,0-.329h0.329Z"/>
</svg>
