<svg xmlns="http://www.w3.org/2000/svg" xmlns:xlink="http://www.w3.org/1999/xlink" width="39.983" height="40" viewBox="0 -21.678 821 821.355">
  <defs>
    <style>
      .cls-1 {
        fill: #fff;
        fill-rule: evenodd;
      }
    </style>
    <clipPath id="clip-path">
      <rect width="821" height="778"/>
    </clipPath>
  </defs>
  <g clip-path="url(#clip-path)">
    <path id="Color_Fill_1" data-name="Color Fill 1" class="cls-1" d="M421,730h-3q-3,24-6,48h-2v-7c-2.4-3.859-5.708-34.332-6-41h-3c-0.372,2.076-.242,1.924-1,3-4.789,16.488-34.108,11.287-51,7-36.8-9.338-83.932-4.795-83-49,4.462-4.416,6.741-11.415,12-15,8.764-5.975,20.614-6.738,31-11,14.928-6.126,31.867-12.272,47-18,7.945-3.007,35.352-8.895,37-16-5.3-8.635-2.406-30.347-5-42-8.028-36.06-5.051-78.238-13-115-4.563-21.1,2.041-42.742-8-58-8.264-12.558-48.275-14.247-66-19-30.077-8.064-61.98-11.375-93-20-17.138-4.765-37.448-9.71-55-13-4.955-.929-4.092,2.387-8,2-6.149-.608-14.376-3.6-21-5-0.117-3.741,1.206-2.442-3-3-9.581-6.01-25.366-4.706-37-8-33.943-9.61-57.059-10.614-74-38-3.418-5.526-12.9-24.708-8-34,9.477-26.482,50.4-24.822,79-32,9.023-2.265,21.091-.337,28-5,3.686-5.761,1.134-23.876,1-32-2.411-3.485-1.251-19.728,1-23q0.5,27.5,1,55c13.845-1.275,29.235-4.729,42-8,15.3-3.921,30.8-4.36,45-8l23-3c24.806-6.4,53.07-8.777,78-15l16-2c12.363-3.8,24.05-10.188,35-15,7.366-3.237,15.307-4.216,18-12,4.869-7.253,2-40.756,2-53,0.011-32,2.326-69.556,9-97,2.165-8.9,1.7-24.634,9-28h44c14.387,23.3,10.129,61.293,17,93,1.273,5.876,0,14.368,1,19v18c0,16.648-.935,36.427,2,50,63.189,39.5,166.107,39.044,248,60,24.458,6.259,49.639,7.019,73,13,11.592,2.968,21.819,2.1,31,7,7.139,3.81,10.412,12.545,16,18-4.569,40.007-18.125,53.9-51,65l-28,5c-13.763,3.777-29.639,8.862-45,10,0.392,2.933,1.636,1.253-1,3-1.335.836-20.483,5.577-22,5-0.7-.267-0.35-2.928-5-2-8.607,1.718-18.488,3.311-28,6-41.609,11.762-87.375,17.255-129,29-13.851,3.908-45.6,4.815-54,13-14.184,13.821-5.867,39.037-11,62-3.87,17.313-.89,35.994-5,54-2.441,10.692-1.268,23.091-4,35-5.068,22.088-6.3,48.21-9,71,27.212,11.435,56.918,19.839,84,31,10.388,4.281,22.222,5.029,31,11,5.221,3.552,7.725,10.426,12,15,1.312,44.078-39.226,37.447-77,47-9.166,2.318-37.072,9.46-46,6-5.6-2.169-8.129-7.129-12-11v-3Z"/>
  </g>
</svg>
