<svg xmlns="http://www.w3.org/2000/svg" width="39.938" height="40" viewBox="0 0 39.938 40">
  <defs>
    <style>
      .cls-1 {
        fill: #fff;
        fill-rule: evenodd;
      }
    </style>
  </defs>
  <path id="Color_Fill_1" data-name="Color Fill 1" class="cls-1" d="M21.183,4.9l0.169,1.228a1.593,1.593,0,0,1,.394.5,0.858,0.858,0,0,1-.113.167L21.69,8.415c0.01,0.031.165,0.152,0.169,0.167V8.695H21.747a1.433,1.433,0,0,0,.113.614c-0.146.3,0.068,0.507-.056,0.782a3.621,3.621,0,0,1,1.409.67,15.172,15.172,0,0,0,1.8.447l2.366,0.279c2.734,0.648,5.775.633,8.507,1.284,1.35,0.322,3.793.091,3.944,1.507a1.5,1.5,0,0,1-.225,1.452c-0.7,1.126-1.872,1.157-3.324,1.563-4.614,1.292-9.341,2.145-14.028,3.35a4.047,4.047,0,0,0-.732,2.736l-0.056.614a3.2,3.2,0,0,0,.282.335c0.3,0.489.554,0.987,0.845,1.452,0.941,1.5,1.66,3.07,2.592,4.578,0.594,0.961,1.461,1.895,1.465,3.294a3.186,3.186,0,0,1-.732.893,14.9,14.9,0,0,1-3.042.614,5.2,5.2,0,0,1-1.859.279,5.313,5.313,0,0,1-.732-0.5c-0.011.734-.214,1.288-0.225,2.066H19.944a5.563,5.563,0,0,0-.338-2.066c-0.317.652-1.351,0.535-2.141,0.335-1.274-.323-4.725-0.349-4.113-2.345a3.435,3.435,0,0,1,.338-0.447l-0.056-.223a9.827,9.827,0,0,1,1.014-1.619c0.857-1.379,1.517-2.806,2.366-4.187a12.185,12.185,0,0,0,1.465-2.568c-0.177-1.223.164-2.887-.845-3.238a2.97,2.97,0,0,0-.845-0.223c-0.9-.272-1.871-0.383-2.817-0.67-3.088-.935-6.223-1.313-9.3-2.233C2.705,16.925.543,17.056,0.056,15a2.62,2.62,0,0,1,.113-0.949c0.209-.142.306-0.414,0.507-0.558A3.521,3.521,0,0,1,1.8,13.049c0.882-.222,1.811-0.2,2.648-0.391a2.765,2.765,0,0,0,.789-0.112,7.179,7.179,0,0,0,.056-1.9H5.352c0.023,0.567.055,1.252,0.056,1.9a19.367,19.367,0,0,0,3.324-.5c1.43-.336,2.908-0.292,4.282-0.614S15.749,11.2,16.9,10.7a3.031,3.031,0,0,0,.451-0.447c0.247-.155.631-0.057,0.845-0.223a1.528,1.528,0,0,1,0-.67A6.428,6.428,0,0,1,18.31,7.8c0.116-.427-0.155-1-0.056-1.228a1.639,1.639,0,0,1,.338-0.391L18.817,4.9a13.029,13.029,0,0,1-2.873-.056,2.914,2.914,0,0,1-1.183-.167c0.707-.079,1.621-0.12,2.366-0.279l1.8,0.056C19.156,3.785,19.323,3.1,20.113,3a0.828,0.828,0,0,0,.451.279c0.417,0.376.126,1.18,0.958,1.172a1.957,1.957,0,0,1,1.014,0h0.9l1.8,0.223V4.787C23.932,4.873,22.581,4.9,21.183,4.9Zm-2.7,19.54a9.222,9.222,0,0,1-1.239,2.121c-0.72,1.157-1.254,2.358-1.972,3.517a11.365,11.365,0,0,0-1.3,2.177h0.056a5.114,5.114,0,0,1,1.183-.391c0.8-.294,1.675-0.6,2.479-0.893,0.6-.22,1.362-0.1,1.352-0.949a4.82,4.82,0,0,1-.113-1.228c-0.223-1-.116-2.222-0.338-3.238A3.738,3.738,0,0,0,18.479,24.438Zm2.986,0-0.507,6.085,5.07,1.731a12.363,12.363,0,0,0-.845-1.4c-0.736-1.183-1.366-2.413-2.084-3.573-0.439-.709-0.816-1.438-1.239-2.121A3.862,3.862,0,0,0,21.465,24.438Z" transform="translate(-0.031)"/>
</svg>
