<svg xmlns="http://www.w3.org/2000/svg" width="80" height="40" viewBox="0 0 80 40">
  <defs>
    <style>
      .cls-1 {
        fill: #fff;
        fill-rule: evenodd;
      }
    </style>
  </defs>
  <path id="Color_Fill_1" data-name="Color Fill 1" class="cls-1" d="M47.458,10.333a2.408,2.408,0,0,1,1.743.588h0.1v0.1a1.931,1.931,0,0,0-.678.1v0.294c0.144,0,1.949-.07,2.131,0l0.1,0.294a11.97,11.97,0,0,0,2.131,0h5.908L80,11.8v0.1H79.9a6.053,6.053,0,0,1-2.228.1H71.961c-7.018,0-14.253.107-21.114,0.1v0.294c-0.6-.041-1.306-0.1-2.034-0.1v0.2a0.847,0.847,0,0,1,.291.392H48.91a0.594,0.594,0,0,0-.194-0.2v0.686H48.91c0.34,0.212,1.09,0,1.453.2,1.044,0.567,1.693,2.342,3.1,2.451a7.444,7.444,0,0,1,1.84-1.177v0.1a3.039,3.039,0,0,0-.969,1.078h0.1c0.784,0.508,2.8-.074,3.68.294,1.062,0.445,2.057,2.318,3,2.353,0.9,0.621,2.357.274,3.39,0.784,0.692,0.342,1.042,1.278,1.937,1.471v0.294a4.287,4.287,0,0,1,1.453,1.373h0.1a0.478,0.478,0,0,1,.1-0.294v0.1l0.581,0.784c0.506,0.358,1.134.581,1.647,0.882-0.031-.279-0.1-0.2,0-0.392a1.118,1.118,0,0,0,.29.2,1.061,1.061,0,0,1,.484-1.078,0.659,0.659,0,0,1,.581.392c0.379,0.6-.18.816,0,1.274,0.064,0.163.376,0.061,0.194,0.294a2.509,2.509,0,0,0-.484.392,1.78,1.78,0,0,1-.194,2.059H69.153a1.847,1.847,0,0,0-.387-0.294c0.288,0.827-.274.506-0.775,0.784a2.076,2.076,0,0,1,.678.2v0.1l-0.872.2v0.1a1.726,1.726,0,0,1,1.065.2c-0.006-.285-0.093-0.136,0-0.294a1.038,1.038,0,0,1,.581-0.1v0.1a0.33,0.33,0,0,0-.194.1c1.908,0.09,4.384.191,6.586,0.2v0.2H70.024a3.06,3.06,0,0,1-.678.294v0.1a4.729,4.729,0,0,1,1.356.784v0.1H70.509a3.929,3.929,0,0,0-2.421-.882,3.107,3.107,0,0,1-.1.98c-0.285-.049-0.942-0.04-1.065-0.1a4.592,4.592,0,0,1-.484-0.882,1.668,1.668,0,0,0-.678-0.1v-0.49h0.1v-0.1h0.29V27.588c-2.47.034-5.412,0.01-8.426-.2a2.706,2.706,0,0,1-.969,1.274v0.1h0.194a0.375,0.375,0,0,1,.291-0.2,4.791,4.791,0,0,1,.581.882c-0.323.219-.464,0.561-0.775,0.784v-0.2a1.1,1.1,0,0,0,.387-0.686,1.947,1.947,0,0,0-.872-0.294,1.189,1.189,0,0,1-.387.392,2.271,2.271,0,0,1,.387,1.471,3.157,3.157,0,0,1-.678.784,1.311,1.311,0,0,1-2.034-.98,1.208,1.208,0,0,1,.1-0.98,1.554,1.554,0,0,1,1.55-.588c0.078-.685.343-1.031,0.387-1.765-2.277.008-4.313-.188-6.392-0.2v0.392H49.3V27.2L46.683,27a0.83,0.83,0,0,1-.1.49v-0.1a0.667,0.667,0,0,1-.1-0.392l-2.615-.2V27.2H43.68V26.8c-1.852-.194-3.8-0.513-5.521-0.686l-0.581.2C36.6,26.249,36,25.84,34.867,25.824a1.045,1.045,0,0,1-.1.588,0.529,0.529,0,0,1-.291.392c-0.505.43-3.137-.026-3.39-0.392V25.824a0.857,0.857,0,0,0,.1-0.49,0.565,0.565,0,0,0-.387,0c-0.364.286-.572,0.715-0.968,0.98v0.1h0.194a1.174,1.174,0,0,1,.581.294H30.412a5.559,5.559,0,0,0-2.324-.294v-0.2a1.7,1.7,0,0,0,.291-1.274l-1.259-.1v0.2c-0.444.8,0.068,1.219-1.259,1.176-1.048-.646-2.415-0.1-3.68-0.392-2.711-.624-5.8-0.61-8.523-1.176a1.484,1.484,0,0,1-.194-0.392,2.213,2.213,0,0,1,0-1.274,1.08,1.08,0,0,0-.484,0,14.682,14.682,0,0,0-1.453,1.961,2.46,2.46,0,0,1-.194.49H6.489a6.945,6.945,0,0,1-1.84,1.176,6.733,6.733,0,0,1-.1,2.059,1.453,1.453,0,0,1-.387.2A0.761,0.761,0,0,1,3,28.177c-0.12-.154-0.062-0.05,0-0.2a0.688,0.688,0,0,1,.775-0.686,1.489,1.489,0,0,0,.484-0.1,0.355,0.355,0,0,0,.1-0.2,2.624,2.624,0,0,1-.291-1.078l0.484-.1c0.08,0.318-.047.15,0.194,0.294v-0.1a10.376,10.376,0,0,1,.291-1.078,5.316,5.316,0,0,1,.775-0.784A24.689,24.689,0,0,1,7.458,21.8a7.3,7.3,0,0,1,0-1.667H7.167c-0.376-1.217-1.6-1.6-2.228-2.549h-0.1v0.1c-0.63.635-1.723,2.957-2.518,3.137a2.391,2.391,0,0,1-.484-0.588A13.09,13.09,0,0,0,4.165,16.9a2.318,2.318,0,0,1-1.259-1.471,9.419,9.419,0,0,1,1.065-.392V14.745A15.166,15.166,0,0,1,0,13.471l0.291-.784,4.358,1.373a2.238,2.238,0,0,0,.678.49,0.674,0.674,0,0,1,.291-0.49c0.094,0.4.114,0.451,0.581,0.49V8.863H7.07v4.8c-0.084.211-.686,0.7-0.484,0.882,1.289,0.943,4.274-.927,5.908-1.176a0.278,0.278,0,0,0,.1.1,2.142,2.142,0,0,0,.194.686c-1.711.379-3.489,1.623-5.23,1.274a1.422,1.422,0,0,1-.1.49A7.285,7.285,0,0,1,9.1,17.1a11.194,11.194,0,0,0,4.165,2.059l18.208-.98v-0.1a3.291,3.291,0,0,1-.872-0.686,25.615,25.615,0,0,0,4.455-.2c1.3-.28,2.564.334,2.712-1.079a0.667,0.667,0,0,0,.1-0.392,4.808,4.808,0,0,1,.678.1,0.965,0.965,0,0,0,.678-0.49C38.9,14.962,38.8,14.5,38.45,14.157h0.194a5.989,5.989,0,0,1,2.131-1.078v0.1h-0.1a1.152,1.152,0,0,1-.581.294v0.1h0.1a1.951,1.951,0,0,0,1.259.588,4.9,4.9,0,0,1,4.261-.882V12.686H45.521a0.6,0.6,0,0,1-.194.2v-0.2a0.867,0.867,0,0,0,.291-0.294,6.291,6.291,0,0,0-1.743-.1,0.49,0.49,0,0,1-.291.1c-0.195-.436-0.621-0.317-1.453-0.294A5.758,5.758,0,0,0,40,12H14.431V11.8c5.153,0,10.5-.1,15.5-0.1,5.294,0,11.915.037,15.884-.294V11.118H45.617c-0.116-.076-0.466-0.117-0.581-0.2h0.1c0.449-.416,1.215-0.322,1.743-0.686a6.324,6.324,0,0,0,.1-2.353,2.517,2.517,0,0,0,.1-0.686c0.145-.163.07-0.1,0.194-0.1A16.555,16.555,0,0,1,47.458,10.333Zm-0.872.588v0.2h0.291v-0.1Zm0.968,0.1c0.166,0.086.124,0.087,0.291,0H47.555Zm-2.228.1a0.465,0.465,0,0,1,.291.1A0.464,0.464,0,0,1,45.327,11.118Zm3.487,0h0.194v0.1H48.814v-0.1Zm-3.68.1h0.194v0.1A0.33,0.33,0,0,1,45.133,11.216Zm3.874,0H49.2v0.1A0.33,0.33,0,0,1,49.007,11.216ZM46.1,12.49v0.784h0.775V12.392a0.331,0.331,0,0,1-.194-0.1A3.367,3.367,0,0,1,46.1,12.49Zm1.453,0.882h0.775V12.49a1.167,1.167,0,0,0-.581-0.1A1.027,1.027,0,0,0,47.555,13.373ZM7.264,22.49l-0.387.686h0.1v-0.1A0.668,0.668,0,0,0,7.264,22.49Zm10.557,2.549,0.194-1.471H17.337c-0.776-.48-2.739-0.262-3.68-0.588a4.644,4.644,0,0,0,0,1.471H13.85C14.336,24.82,16.991,25.019,17.821,25.039ZM6.78,23.275A9.107,9.107,0,0,0,6,24.549H6.1v-0.1A2.337,2.337,0,0,0,6.78,23.275Zm11.332,0.392-0.1,1.471,4.358,0.49a5.311,5.311,0,0,0,.1-1.373A23.183,23.183,0,0,0,18.111,23.667Zm52.494,0.294v0.2C70.761,24.04,70.724,24.116,70.605,23.961Zm-47.942.294a4.861,4.861,0,0,1-.194,1.373h0.194a6.675,6.675,0,0,0,2.034.1l0.1-1.177H24.7v-0.1Zm45.811,0.882v0.392h0.194a4.513,4.513,0,0,1,.29-0.49h-0.1A0.648,0.648,0,0,1,68.475,25.137Zm3,0.1h0.194v0.1A0.33,0.33,0,0,1,71.477,25.235Zm0.194,0.1a0.355,0.355,0,0,1,.1.2h-0.1v-0.2Zm-66.247.1a2.072,2.072,0,0,0-.387.392h0.1a1.809,1.809,0,0,1,.484-0.294A0.348,0.348,0,0,0,5.424,25.431Zm66.344,0.2a0.825,0.825,0,0,1,0,.784V25.628Zm-3.293.2a0.828,0.828,0,0,0,.1.49A0.829,0.829,0,0,0,68.475,25.824Zm3.2,0.588a0.5,0.5,0,0,1,.1.294h-0.1V26.412Zm-3.1.1v0.2h0.1A0.337,0.337,0,0,0,68.571,26.51Zm3,0.2a0.355,0.355,0,0,1,.1.2h-0.1v-0.2ZM71.283,27h0.194v0.1A0.33,0.33,0,0,1,71.283,27Zm-1.937,1.372c0.167,0.086.124,0.087,0.291,0H69.346Zm-0.194.294a0.386,0.386,0,0,0,.484,0H69.153Z" transform="translate(0 0.5)"/>
</svg>
