<svg xmlns="http://www.w3.org/2000/svg" width="80" height="40" viewBox="0 0 80 40">
  <defs>
    <style>
      .cls-1 {
        fill: #fff;
        fill-rule: evenodd;
      }
    </style>
  </defs>
  <path id="Color_Fill_1" data-name="Color Fill 1" class="cls-1" d="M47.9,9.512v0.41a23.948,23.948,0,0,1,5.5.41H80v0.2H53.6a6.525,6.525,0,0,1-2.5.1,0.705,0.705,0,0,1-.2.41c-0.334-.325-1.742-0.127-2.7-0.1L48.1,13.1a0.821,0.821,0,0,0-.5.1,1.034,1.034,0,0,1,.6.1,0.7,0.7,0,0,0-.1.41c3.181-.053,2.826.181,4.3,1.844h0.2v-0.1a0.523,0.523,0,0,1-.3-0.512h0.5v-0.1c-0.666-.428-0.6-1.146-0.4-1.946a2.235,2.235,0,0,1,.6-0.41,1.641,1.641,0,0,1,1.5,0L55,13.1a3.12,3.12,0,0,1-.1,1.434l-0.3.2a1.39,1.39,0,0,0,.2.615v0.2h3c0.723,0.442,1.749.247,2.4,0.615,0.34,0.192.565,0.872,0.9,1.127,1.554,1.181,2.966,2.652,4.6,3.688,1.017,0.645,3.047.874,3.1,2.459-0.159.116-.164,0.3-0.3,0.41-0.4.327-1.157,0.341-1.4,0.82,0.28,0.151-.124.079,0.1,0.307,0.384,0.2,1.13-.289,1.6,0a10.74,10.74,0,0,0-2.1.512,3.573,3.573,0,0,0-.1-0.819H66.5c-0.077.07-.223,0.134-0.3,0.2a0.905,0.905,0,0,0-.1.512H64.6a0.71,0.71,0,0,1-.5.512c-0.051-.416-0.02-0.418-0.4-0.512-0.717.47-1.955,0.195-2.9,0.41a20.571,20.571,0,0,1-4.2.307h-2a3.274,3.274,0,0,1-1.9.307,4.476,4.476,0,0,0-1.2-.2c-0.007,1.079.033,2.246,0.1,3.176,1.828,0.034,3.7.06,4.9-.512v-0.1H56.4a7.4,7.4,0,0,0-1.2-2.151h1.9v0.1H57a2.511,2.511,0,0,0-.7.615,4.544,4.544,0,0,1,.8,1.229,0.756,0.756,0,0,0,.5-0.41,0.477,0.477,0,0,1-.3-0.1h1.9v0.1H59A9.321,9.321,0,0,1,55.6,29.8c-1.391.378-3.426,0.1-5,.1l-9.1.1V29.693a2,2,0,0,0,.7-0.307c0.534-.771.214-3.225,0.2-4.4a19.9,19.9,0,0,1-4.9-1.434c-0.968-.32-1.989.038-2.9-0.2-0.966-.258-2.455-0.274-3.5-0.512H29.7a10.9,10.9,0,0,0-3.5-.307v0.41a3.8,3.8,0,0,0-.1,1.537H25.3V22.522a1.029,1.029,0,0,0-.6-0.2,25.6,25.6,0,0,0-4.5-.41,4.991,4.991,0,0,0-.3,1.024,3.283,3.283,0,0,0-.1-1.024c-1.074-.39-2.422-0.122-3.7-0.41A41.809,41.809,0,0,0,9,20.781v3.688H8.8a2.161,2.161,0,0,0-.9-0.1C7.856,23.588,7.7,22.72,7.7,21.7H7.6v0.2c-0.527.607-.65,2.231-1.4,2.561a1.325,1.325,0,0,1-.9.307A3.2,3.2,0,0,1,4,24.059a15.332,15.332,0,0,0,.3-3.79,9.308,9.308,0,0,1-2.1-.2,1.557,1.557,0,0,1-.2-0.41,8.22,8.22,0,0,1,2.2-.2v-0.2a13.739,13.739,0,0,1-1.4-2.868C1.883,14.569.889,12.716,0,10.844H1.4a0.8,0.8,0,0,1,0-.615,0.34,0.34,0,0,1,.2.1,0.9,0.9,0,0,1,.1.512H2.3c0.859,1.811,2.386,3.4,3.5,5.02a24.465,24.465,0,0,0,1.4,2.254H8.5V13.1H9.7a12.709,12.709,0,0,1,0,3.688,7.642,7.642,0,0,0-.6,1.332l2.1-.1a18.793,18.793,0,0,0,6.5.1c1.129-.249,2.6.119,3.6-0.1h1.8a27.091,27.091,0,0,0,5.3-.2h3.2V17.6l2.2,0.1c0.963,0,2.276.109,2.9-.307a2.853,2.853,0,0,0-1.4-.2v-0.1a4.115,4.115,0,0,0,.1-1.639l2.4,0.1c0.189-.789.715-0.82,0.8-1.742,2.723,0.006,4.419-.1,7.1-0.1a1.5,1.5,0,0,0-.1-0.512,0.821,0.821,0,0,0,.5-0.1H45.6c-0.009-.83-0.235-1.383-0.3-2.151H44.4c0-.483-0.507-0.364-1.2-0.307-0.511-.325-3.068-0.1-3.9-0.1H29.2l-0.1-.2H43.3a5.23,5.23,0,0,1,1.2-.1v-0.2a0.847,0.847,0,0,1,.8-0.1,0.652,0.652,0,0,0-.2-0.512c0.7-.014,1.614-0.4,2-0.307,0.095,0.024.467,0.273,0.6,0.307a4.392,4.392,0,0,1,1,.1H47.9ZM48,10.024v0.2a0.393,0.393,0,0,1,.4.307c-0.13.057-.074,0-0.1,0.1a1.939,1.939,0,0,0,1.7-.1H48.7v-0.1h0.2c0.318-.187.893,0.017,1.1-0.307A7,7,0,0,1,48,10.024Zm-2.3.1v0.2a1.243,1.243,0,0,0,.4-0.1v-0.1H45.7Zm0,0.41v0.2h0.4v-0.1H46v-0.1H45.7Zm1.5,0.512a2.464,2.464,0,0,0,.3,1.639,1.912,1.912,0,0,0,.4.307l0.2-1.844H47.6v-0.41H47.4l0.1,0.307H47.2Zm-0.6.819V11.151a3.846,3.846,0,0,1-1.2-.1v0.1l0.3,1.127A2.415,2.415,0,0,1,46.6,11.868Zm-0.3.41a1.644,1.644,0,0,0-.1.512h0.1v-0.1a2.021,2.021,0,0,0,.2-0.41H46.3Zm-0.4.2v0.2H46A0.354,0.354,0,0,0,45.9,12.483Zm-0.1.307V13h0.1A0.354,0.354,0,0,0,45.8,12.79ZM46.2,13.4v0.307h0.4V13.4H46.2Zm1,0v0.307H48V13.4H47.2Zm-1.3.2a0.359,0.359,0,0,0,.2.1A0.357,0.357,0,0,0,45.9,13.61Zm14,1.434a1.378,1.378,0,0,1-.2.819H59.6V15.556A1.927,1.927,0,0,0,59.9,15.044ZM35,16.683a0.4,0.4,0,0,1,.2.307H35.1v-0.1A0.373,0.373,0,0,1,35,16.683Zm7.8,8.5a39.161,39.161,0,0,0,.1,4.3l8.1-.1a32.425,32.425,0,0,0,.1-3.278,23.326,23.326,0,0,1-5.9-.41A12.637,12.637,0,0,0,42.8,25.185ZM2.3,25.9a0.634,0.634,0,0,1,.4.1A0.634,0.634,0,0,1,2.3,25.9Z" transform="translate(0 0.453)"/>
</svg>
