<svg xmlns="http://www.w3.org/2000/svg" width="80" height="40" viewBox="0 0 80 40">
  <defs>
    <style>
      .cls-1 {
        fill: #fff;
        fill-rule: evenodd;
      }
    </style>
  </defs>
  <path id="Color_Fill_1" data-name="Color Fill 1" class="cls-1" d="M3.465,11.617H4.356a0.9,0.9,0,0,1,0-.678,0.342,0.342,0,0,1,.2.1,0.553,0.553,0,0,1,.1.582c1.664,0.149,1.975,1.63,2.673,2.714,1.291,2,2.717,4.034,4.059,6.009,0.444,0.654,1.187,2.441,2.079,2.52a4.08,4.08,0,0,1,1.485-.194,1.2,1.2,0,0,0,1.485.872c0.853-.49,3.555-0.31,4.752-0.582,1.6-.363,3.645-0.206,5.248-0.678a30.855,30.855,0,0,0,2.871-1.26c0.869-.362,2.752-0.681,3.069-1.551a5.866,5.866,0,0,1-.693-1.938,4.074,4.074,0,0,0,.891-0.388,4.848,4.848,0,0,0,.891,1.841,8.471,8.471,0,0,1,2.079-.388c0.067-.876.836-1.055,1.386-1.454,0.5-.364.943-0.932,1.485-1.26,1.322-.8,3.622-0.691,5.743-0.678v-0.1a0.643,0.643,0,0,1-.1-0.388,9.576,9.576,0,0,0-1.782,0V14.427c-7.308.021-15.271-.046-22.574-0.194H13.465a7,7,0,0,1-2.475-.1H35.05c2.273,0,5.487.393,7.228-.194,0.653-.22,1.661.216,2.178-0.1a0.47,0.47,0,0,1-.495-0.194,0.955,0.955,0,0,0,.495-0.291,4.569,4.569,0,0,1,2.475.291v0.194a0.845,0.845,0,0,0-.5.1,15.153,15.153,0,0,1,3.663.291l20.792-.1h6.535a7.31,7.31,0,0,1,2.574.1l-31.287.194-0.1.291a12.705,12.705,0,0,1-1.683,0,2.041,2.041,0,0,0-.1.678,0.823,0.823,0,0,0-.1.485,3.9,3.9,0,0,1,1.089.388c0.408,0.456.425,1.346,1.188,1.454,0.918,0.645,2.858.8,3.366,1.551,0.138,0.2.154,0.582,0.3,0.775,0.43,0.269,2.647.108,3.366,0.1a2.869,2.869,0,0,1,.5-0.194v-0.1h-0.5c0.082-.315-0.048-0.148.2-0.291a3.288,3.288,0,0,0,.693.291,1.123,1.123,0,0,0-.2.485c2.294,0.056,3.18,1.5,4.554,2.423l-0.3-.388h0.2a5.645,5.645,0,0,0,1.98,2.229c-0.032-.275-0.1-0.2,0-0.388l0.5,0.581a4.723,4.723,0,0,1,1.287,0v0.485h0.594a0.8,0.8,0,0,1,.1-0.485,0.8,0.8,0,0,0,.1.485,0.8,0.8,0,0,1,.1-0.485,0.8,0.8,0,0,0,.1.485,0.462,0.462,0,0,1,.1-0.291l0.1,0.291h2.772l0.3-.388a2.733,2.733,0,0,1,1.386.1c-0.751-.031-0.948.018-1.188,0.485a1.876,1.876,0,0,1,.99.678V26.93c-0.351.189-.829,0.386-1.188,0.581a2.017,2.017,0,0,1,.594,1.357,1.361,1.361,0,0,1-.594.678,0.847,0.847,0,0,1-.792.194,0.968,0.968,0,0,1-.99-0.969,1.138,1.138,0,0,1,.4-1.163h-0.1c-1.849,1.819-7.219,2.314-10.594,2.326a0.89,0.89,0,0,0-.3.485l-2.277.1c-0.414-.237.084-0.358-0.891-0.388-0.679.584-1.334,0.034-1.98,0.1-1.726.169-3.855,0.227-5.644,0.291-0.133.327-.077,0.4-0.495,0.485a1.493,1.493,0,0,1-.1-0.485H42.673a1.048,1.048,0,0,1-.693.291V30.515c-2.431.024-4.546-.4-6.931-0.581v0.775l-3.069.1-0.1-1.26h-0.1v-0.1l-2.97-.388a2.216,2.216,0,0,1-.4,1.26c0.006-.772-0.012-0.636,0-1.357a61.72,61.72,0,0,0-6.436-.775V27.9c-0.734-.028-1.422-0.245-1.98-0.194a23.8,23.8,0,0,0-.5,3l-2.376-.388V30.128l1.485,0.194V29.934l-2.475-.1L14.753,27.22H13.861a4.588,4.588,0,0,1-.2.775c-0.754,1.273-5.528,1.949-7.426,1.163C5.2,28.729,3.564,27.3,2.475,27.22a0.8,0.8,0,0,1-.1.484,0.8,0.8,0,0,0-.1-0.484,0.616,0.616,0,0,1-.1.388,0.462,0.462,0,0,0-.1-0.291,0.33,0.33,0,0,1-.1.194c-0.063-.748-0.011-1.343-0.891-1.357l-0.5.1A6.973,6.973,0,0,0,0,25.863v-0.1H0.1a2.029,2.029,0,0,1,1.485-.291c0.536-1.748,2.142-3.169,2.475-5.04a11.611,11.611,0,0,1-.792-2.52,61.909,61.909,0,0,1-2.079-6.3H3.366c-0.016-.75-0.36-2.067,0-2.617Zm41.287,2.229a0.462,0.462,0,0,0,.1.291,0.383,0.383,0,0,1,.3-0.194v-0.1h-0.4Zm1.089,0a1.888,1.888,0,0,0,.4.291V13.943h-0.1v-0.1h-0.3Zm-2.277.194c-0.118.075-.477,0.116-0.594,0.194a2.588,2.588,0,0,0,1.386-.194H43.564Zm2.97,0a3.755,3.755,0,0,0,.594.194v0.1a1.276,1.276,0,0,0-.4.1v0.1h1.188v-0.1a1.064,1.064,0,0,1-.594-0.1h-0.1v-0.1a1.307,1.307,0,0,0,.693-0.1Zm-3.168.291c-0.085.063-.311,0.13-0.4,0.194a4.809,4.809,0,0,1,1.386.1A0.937,0.937,0,0,0,43.366,14.33Zm2.772,0.1-0.1.291h0.2A0.462,0.462,0,0,0,46.139,14.427Zm-1.386.1v0.194h0.1A0.331,0.331,0,0,0,44.753,14.524Zm0,0.291a0.81,0.81,0,0,0-.2.291h0.1a0.768,0.768,0,0,0,.2.291h0.2V15.2C45.238,14.8,44.978,14.927,44.753,14.815Zm1.881,0.775,0.1-.775h-0.1a0.36,0.36,0,0,1-.2.1,1.911,1.911,0,0,1-.1.678h0.3Zm-2.376-.678a1.208,1.208,0,0,0,.1.388h0.1V14.912h-0.2Zm1.584,0V15.4a1.424,1.424,0,0,0,.4.1V15.3a0.643,0.643,0,0,0,.1-0.388H45.842Zm6.337,4.264a1.367,1.367,0,0,0,.1.485h0.1V19.37C52.29,19.3,52.265,19.248,52.178,19.176Zm0.2,0.581a0.76,0.76,0,0,0,0,.388h0.1A0.616,0.616,0,0,0,52.376,19.758Zm4.555,0.1a2.145,2.145,0,0,1,.693.194A0.7,0.7,0,0,1,56.931,19.855ZM7.822,22.084a3.748,3.748,0,0,1-.594.194c0.2,0.656.128,1.545,0.693,1.841v-0.1a4.886,4.886,0,0,0,.1-1.938h-0.2Zm0.594,0v1.938a0.485,0.485,0,0,0,.3-0.1L9.6,22.374h-0.2A2.111,2.111,0,0,0,8.416,22.084Zm-1.584.291v0.194h0.1A0.33,0.33,0,0,0,6.832,22.374ZM9.9,22.568c-0.174.676-.671,1.1-0.891,1.744h0.1v0.1h0.2a5.628,5.628,0,0,1,1.485-.969,0.279,0.279,0,0,0-.1-0.1A1.459,1.459,0,0,0,9.9,22.568Zm-3.564.1a2.3,2.3,0,0,0-.693.969,5.866,5.866,0,0,1,1.584.775V24.022A4.508,4.508,0,0,0,6.337,22.665Zm55.248,0.194h0.2v0.1h-0.2v-0.1Zm0.495,0.388,0.3,0.1v0.1A0.376,0.376,0,0,1,62.079,23.247Zm-51.089.485a2.837,2.837,0,0,1-1.287.775v0.1h0.4a2.786,2.786,0,0,1,1.188-.194V24.216C11.173,24.076,11.114,23.861,10.99,23.731Zm51.782,0.1a0.375,0.375,0,0,1,.2.291h-0.1v-0.1A0.346,0.346,0,0,1,62.772,23.828ZM5.149,25.088a13.811,13.811,0,0,0,1.881-.1,0.347,0.347,0,0,0,.1-0.194,11.1,11.1,0,0,0-1.782-.872v0.194A1.428,1.428,0,0,0,5.149,25.088Zm4.257,0.291V25.67c0.7,0.173,1.056.649,1.782,0.775a8.447,8.447,0,0,0,.2-1.163Zm-4.257.1a2.657,2.657,0,0,0,.3,1.163,4.6,4.6,0,0,0,1.683-1.163,4.148,4.148,0,0,0-1.188-.1A1.6,1.6,0,0,1,5.149,25.476Zm4.059,0.388A2.138,2.138,0,0,0,10.2,27.7a3.2,3.2,0,0,0,.594-0.775h0.1c0.1-.1-0.1-0.1-0.1-0.1C10.355,26.436,9.673,26.22,9.208,25.863Zm-1.98.1c-0.446.435-1.147,0.623-1.584,1.066h0.1a2.206,2.206,0,0,0,.891.775c0.16-.636.59-1.057,0.792-1.648h0.1c0.1-.1-0.1-0.1-0.1-0.1A0.359,0.359,0,0,0,7.228,25.96Zm1.386,0.291a0.811,0.811,0,0,0-.2.291,4.305,4.305,0,0,1,.1,1.745h0.2A2.1,2.1,0,0,0,9.7,27.8C9.21,27.415,9.063,26.681,8.614,26.251Zm-0.693.1a1.774,1.774,0,0,0,.2.969,8.031,8.031,0,0,1,0-.969h-0.2Zm-0.4.485A2.684,2.684,0,0,0,7.03,28a3.4,3.4,0,0,0,.792.291V27.8C7.662,27.551,7.695,27.065,7.525,26.833Zm11.188,0.582c-0.033.134,0.14,0.141,0.2,0.194C18.98,27.5,18.74,27.443,18.713,27.414Zm-8.02,1.938h0.2c-0.038.061-.321,0.522-0.5,0.388Zm-0.594.485h0.2l-0.1.194-0.3.1Zm-0.4.291H9.9v0.1A0.342,0.342,0,0,1,9.7,30.128Zm-0.891.1a1.841,1.841,0,0,1,.891.1A1.841,1.841,0,0,1,8.812,30.225Z"/>
</svg>
